<svg width="16" height="16" viewBox="0 0 16 16" fill="none" xmlns="http://www.w3.org/2000/svg">
<g id="legacy / trade-type-options">
<path id="icon" d="M4.5 7C4.74546 7 4.94961 7.17688 4.99194 7.41012L5 7.5V13.292L7.14645 11.1464C7.32001 10.9729 7.58944 10.9536 7.78431 11.0886L7.85355 11.1464C8.02712 11.32 8.0464 11.5894 7.91141 11.7843L7.85355 11.8536L4.85355 14.8536L4.84129 14.8654C4.82882 14.8771 4.81575 14.8881 4.80214 14.8984L4.85355 14.8536C4.82672 14.8804 4.79759 14.9035 4.76681 14.923C4.75568 14.93 4.74405 14.9367 4.73213 14.943C4.71828 14.9503 4.70454 14.9566 4.6906 14.9624C4.67803 14.9676 4.66474 14.9724 4.6512 14.9767C4.63583 14.9816 4.62047 14.9856 4.60499 14.9889C4.59431 14.9912 4.58325 14.9932 4.57208 14.9948C4.55487 14.9973 4.53773 14.9989 4.52057 14.9996C4.51376 14.9999 4.50689 15 4.5 15L4.48043 14.9996C4.46293 14.9989 4.44546 14.9973 4.4281 14.9948L4.5 15C4.4639 15 4.4287 14.9962 4.39477 14.9889C4.37953 14.9856 4.36417 14.9816 4.34899 14.9768C4.33526 14.9724 4.32197 14.9676 4.30896 14.9622C4.29546 14.9566 4.28172 14.9503 4.26824 14.9432C4.25595 14.9367 4.24432 14.93 4.23299 14.9228C4.2273 14.9193 4.22146 14.9154 4.21569 14.9114L4.19786 14.8984C4.18425 14.8881 4.17118 14.8771 4.15871 14.8654L4.14645 14.8536L1.14645 11.8536C0.951184 11.6583 0.951184 11.3417 1.14645 11.1464C1.32001 10.9729 1.58944 10.9536 1.78431 11.0886L1.85355 11.1464L4 13.294V7.5C4 7.22386 4.22386 7 4.5 7ZM11.5 1L11.5115 1.00013C11.5324 1.00061 11.5532 1.00239 11.5739 1.00546L11.5 1C11.5361 1 11.5713 1.00383 11.6052 1.01109C11.6205 1.0144 11.6358 1.01845 11.651 1.02324C11.6647 1.02756 11.678 1.03241 11.691 1.03779C11.7045 1.04335 11.7183 1.04975 11.7318 1.05681C11.744 1.06329 11.7557 1.07002 11.767 1.07719C11.7727 1.08073 11.7785 1.08459 11.7843 1.08859L11.8021 1.10158C11.8158 1.11192 11.8288 1.12294 11.8413 1.13459L11.8536 1.14645L14.8536 4.14645C15.0488 4.34171 15.0488 4.65829 14.8536 4.85355C14.68 5.02712 14.4106 5.0464 14.2157 4.91141L14.1464 4.85355L12 2.706V8.5C12 8.77614 11.7761 9 11.5 9C11.2545 9 11.0504 8.82312 11.0081 8.58988L11 8.5V2.706L8.85168 4.85543C8.67811 5.02899 8.40869 5.04828 8.21382 4.91328L8.14457 4.85543C7.97101 4.68186 7.95172 4.41244 8.08672 4.21757L8.14457 4.14832L11.1464 1.14645L11.1587 1.13459C11.1712 1.12294 11.1842 1.11192 11.1979 1.10158L11.1464 1.14645C11.1733 1.11961 11.2024 1.09647 11.2332 1.07701C11.2443 1.07002 11.256 1.06329 11.2679 1.05703C11.2817 1.04975 11.2955 1.04335 11.3094 1.03761C11.322 1.03241 11.3353 1.02756 11.3488 1.02327C11.3642 1.01845 11.3795 1.0144 11.395 1.01109C11.405 1.0089 11.4153 1.00703 11.4258 1.00547C11.4471 1.00234 11.4683 1.00055 11.4895 1.00011C11.4925 1.00004 11.4963 1 11.5 1Z" fill="#333333"/>
</g>
</svg>
