<svg width="16" height="16" viewBox="0 0 16 16" fill="none" xmlns="http://www.w3.org/2000/svg">
<g id="legacy / crosshair-disabled" clip-path="url(#clip0_2761_489)">
<path id="icon" d="M2.5 7C3.05228 7 3.5 7.44772 3.5 8C3.5 10.4853 5.51472 12.5 8 12.5C8.55229 12.5 9 12.9477 9 13.5V15C9 15.5523 8.55229 16 8 16C7.44772 16 7 15.5523 7 15L7.00009 14.4236C4.21123 13.993 2.0076 11.7896 1.57659 9.00091L1 9C0.447715 9 0 8.55229 0 8C0 7.44772 0.447715 7 1 7H2.5ZM8 0C8.55229 0 9 0.447715 9 1L9.00054 1.57571C10.317 1.77966 11.5829 2.38872 12.5971 3.40289C13.6115 4.41733 14.2207 5.6836 14.4244 7.00046L15 7C15.5523 7 16 7.44772 16 8C16 8.55229 15.5523 9 15 9L14.4243 9.00054C14.2688 10.0046 13.8776 10.9792 13.2508 11.8351L14.7071 13.2929C15.0976 13.6834 15.0976 14.3166 14.7071 14.7071C14.3166 15.0976 13.6834 15.0976 13.2929 14.7071L1.29289 2.70711C0.902369 2.31658 0.902369 1.68342 1.29289 1.29289C1.68342 0.902369 2.31658 0.902369 2.70711 1.29289L4.1649 2.74921C5.02113 2.12221 5.99608 1.73099 7.00046 1.57556L7 1C7 0.447715 7.44772 0 8 0ZM11.1829 4.81711C9.66831 3.30252 7.34291 3.09291 5.6039 4.18828L11.8117 10.3961C12.9071 8.65709 12.6975 6.33169 11.1829 4.81711Z" fill="#333333"/>
</g>
<defs>
<clipPath id="clip0_2761_489">
<rect width="16" height="16" fill="white"/>
</clipPath>
</defs>
</svg>
