<svg width="16" height="16" viewBox="0 0 16 16" fill="none" xmlns="http://www.w3.org/2000/svg">
<g id="legacy / onramp" clip-path="url(#clip0_2761_726)">
<path id="icon" d="M12 0C14.2091 0 16 1.79086 16 4V13.5C16 14.8255 14.9685 15.91 13.6644 15.9947L13.5 16L4.04 15.999L4 16C1.8578 16 0.108921 14.316 0.00489531 12.1996L0 12C0 9.79086 1.79086 8 4 8C4.39262 8 4.77202 8.05657 5.13051 8.16199L8.16199 5.13051C8.05657 4.77202 8 4.39262 8 4C8 1.79086 9.79086 0 12 0ZM4 9C2.34315 9 1 10.3431 1 12C1 13.6569 2.34315 15 4 15L4.02922 14.9999C5.67262 14.9842 7 13.6471 7 12C7 10.3431 5.65685 9 4 9ZM8.59929 6.10703L6.10703 8.59929C7.24336 9.30484 8 10.5641 8 12C8 13.1947 7.47622 14.2671 6.64576 15.0001L13.5 15C14.2797 15 14.9204 14.4051 14.9931 13.6445L15 13.5L15.001 6.64474C14.268 7.47579 13.1952 8 12 8C10.5641 8 9.30484 7.24336 8.59929 6.10703ZM4.408 9.1832V9.8532C4.938 10.0292 5.302 10.5262 5.302 11.0912V11.2032H4.482V11.0912C4.482 10.8222 4.264 10.6062 3.998 10.6062C3.731 10.6062 3.513 10.8222 3.513 11.0912C3.513 11.3602 3.731 11.5782 3.998 11.5782C4.718 11.5782 5.302 12.1662 5.302 12.8882C5.302 13.4522 4.938 13.9492 4.408 14.1262V14.7962H3.589V14.1262C3.058 13.9492 2.694 13.4512 2.694 12.8882V12.7752H3.513V12.8882C3.513 13.1562 3.731 13.3742 3.998 13.3742C4.264 13.3742 4.482 13.1562 4.482 12.8882C4.482 12.6182 4.264 12.4002 3.998 12.4002C3.28 12.4002 2.694 11.8142 2.694 11.0912C2.694 10.5262 3.058 10.0292 3.589 9.8532V9.1832H4.408ZM12 1C10.3431 1 9 2.34315 9 4C9 5.65685 10.3431 7 12 7C13.6569 7 15 5.65685 15 4C15 2.34315 13.6569 1 12 1ZM6.5 3L6.58603 3.00696C6.97281 3.07082 7.14754 3.55957 6.85355 3.85355L3.85355 6.85355L3.78431 6.91141C3.58944 7.0464 3.32001 7.02712 3.14645 6.85355L3.08859 6.78431C2.9536 6.58944 2.97288 6.32001 3.14645 6.14645L5.293 4H4.5L4.41012 3.99194C4.17688 3.94961 4 3.74546 4 3.5C4 3.22386 4.22386 3 4.5 3H6.5ZM11.5018 1.6565V2.3235H12.1658V1.6565H12.8298V2.3235C13.0788 2.3225 13.3188 2.4155 13.5028 2.5845C13.9078 2.9555 13.9378 3.5855 13.5668 3.9915C13.7348 4.1775 13.8268 4.4185 13.8258 4.6685C13.8238 5.2185 13.3778 5.6625 12.8298 5.6605V6.3275H12.1658V5.6605H11.5018V6.3275H10.8378V5.6605H10.1728V4.9925H10.8378V2.9905H10.1728V2.3235H10.8378V1.6565H11.5018ZM12.8298 4.3255H11.5018V4.9925H12.8298C13.0138 4.9925 13.1618 4.8435 13.1618 4.6595C13.1618 4.4745 13.0138 4.3255 12.8298 4.3255ZM12.8298 2.9905H11.5018V3.6585H12.8298C13.0138 3.6585 13.1618 3.5095 13.1618 3.3245C13.1618 3.1395 13.0138 2.9905 12.8298 2.9905Z" fill="#333333"/>
</g>
<defs>
<clipPath id="clip0_2761_726">
<rect width="16" height="16" fill="white"/>
</clipPath>
</defs>
</svg>
