<svg width="16" height="16" viewBox="0 0 16 16" fill="none" xmlns="http://www.w3.org/2000/svg">
<g id="legacy / arrow-right / 1px">
<path id="icon" d="M2 8.00028C2 7.72413 2.22386 7.50028 2.5 7.50028H12.292L9.64645 4.85383C9.47288 4.68026 9.4536 4.41084 9.58859 4.21597L9.64645 4.14672C9.84171 3.95146 10.1583 3.95146 10.3536 4.14672L13.8536 7.64672C13.8576 7.65081 13.8616 7.65495 13.8656 7.65914C13.8771 7.67146 13.8881 7.68452 13.8984 7.69813C13.9072 7.70967 13.9154 7.72144 13.923 7.73347C13.93 7.74459 13.9367 7.75623 13.943 7.76815C13.9503 7.782 13.9566 7.79574 13.9624 7.80968C13.9676 7.82225 13.9724 7.83554 13.9767 7.84908C13.9816 7.86444 13.9856 7.8798 13.9889 7.89529C13.9962 7.92897 14 7.96418 14 8.00028L13.9948 7.92837C13.9973 7.9454 13.9989 7.96254 13.9996 7.97971L14 8.00028C14 8.00709 13.9999 8.01388 13.9996 8.02063C13.9989 8.03734 13.9973 8.05481 13.9948 8.07218C13.9932 8.08366 13.9912 8.09465 13.9889 8.1055C13.9856 8.12075 13.9816 8.13611 13.9768 8.15129C13.9724 8.16501 13.9676 8.1783 13.9622 8.19131C13.9566 8.20481 13.9503 8.21855 13.9432 8.23203C13.9367 8.24432 13.93 8.25596 13.9228 8.26729C13.9035 8.29787 13.8804 8.32699 13.8536 8.35383L13.8984 8.30242C13.8881 8.31603 13.8771 8.32909 13.8654 8.34156L13.8536 8.35383L10.3536 11.8538C10.1583 12.0491 9.84171 12.0491 9.64645 11.8538C9.45119 11.6586 9.45119 11.342 9.64645 11.1467L12.292 8.50028H2.5C2.25454 8.50028 2.05039 8.3234 2.00806 8.09015L2 8.00028Z" fill="#333333"/>
</g>
</svg>
