<svg width="16" height="16" viewBox="0 0 16 16" fill="none" xmlns="http://www.w3.org/2000/svg">
<g id="legacy / withdrawal" clip-path="url(#clip0_2761_722)">
<path id="icon" d="M4.5 -5.00439e-05C5.69429 -0.00269064 6.84043 0.47056 7.68492 1.31505C8.16189 1.79202 8.52043 2.36521 8.74169 2.98896H12.5C13.8807 2.98896 15 4.10825 15 5.48896V8.26754C15.5978 8.61335 16 9.25969 16 9.99997V12C16 12.7467 15.5908 13.3978 14.9844 13.7413C14.8448 14.9946 13.7858 16 12.5 16H2.54C1.15929 16 0.00312805 14.8407 0.00312805 13.46V4.99997H0.0274644C0.00931666 4.83581 0 4.66898 0 4.49997C0 2.01469 2.01472 -5.00439e-05 4.5 -5.00439e-05ZM12.5 3.98896H8.972C8.99095 4.1578 9.00039 4.32839 9.00001 4.49997C9.00001 6.98525 6.98528 8.99997 4.5 8.99997C3.08815 8.99997 1.82816 8.34978 1.00313 7.3325V13.46C1.00313 14.2884 1.71157 15 2.54 15H12.5C13.1401 15 13.6865 14.5752 13.9019 14H11C9.89543 14 9 13.1045 9 12V9.99997C9 8.8954 9.89543 7.99997 11 7.99997H14V5.48896C14 4.66053 13.3284 3.98896 12.5 3.98896ZM14 8.99997H11C10.4477 8.99997 10 9.44769 10 9.99997V12C10 12.5523 10.4477 13 11 13H14C14.5523 13 15 12.5523 15 12V9.99997C15 9.44769 14.5523 8.99997 14 8.99997ZM12 9.99997C12.5523 9.99997 13 10.4477 13 11C13 11.5523 12.5523 12 12 12C11.4477 12 11 11.5523 11 11C11 10.4477 11.4477 9.99997 12 9.99997ZM4.5 0.999972C2.567 0.999972 1 2.56698 1 4.49997C1 6.43297 2.567 7.99997 4.5 7.99997C6.433 7.99997 8 6.43297 8 4.49997C8 2.56698 6.433 0.999972 4.5 0.999972ZM6 3.99997C6.27614 3.99997 6.5 4.22383 6.5 4.49997C6.5 4.77611 6.27614 4.99997 6 4.99997H3C2.72386 4.99997 2.5 4.77611 2.5 4.49997C2.5 4.22383 2.72386 3.99997 3 3.99997H6Z" fill="#333333"/>
</g>
<defs>
<clipPath id="clip0_2761_722">
<rect width="16" height="16" fill="white"/>
</clipPath>
</defs>
</svg>
