<svg width="24" height="24" viewBox="0 0 24 24" fill="none" xmlns="http://www.w3.org/2000/svg">
<g id="legacy / rate-of-change">
<path id="line" d="M3 9H21C21.5523 9 22 8.55228 22 8C22 7.44772 21.5523 7 21 7H3C2.44772 7 2 7.44772 2 8C2 8.55228 2.44772 9 3 9Z" fill="#D6DADB"/>
<path id="icon" d="M7.349 6.0652L10.0152 21.1738C10.2003 22.2226 11.6785 22.2938 11.9635 21.2676L16.3404 5.51093L18.1425 8.51448C18.3232 8.81568 18.6487 8.99998 19 8.99998H21C21.5523 8.99998 22 8.55227 22 7.99998C22 7.4477 21.5523 6.99998 21 6.99998H19.5662L16.8575 2.48549C16.4055 1.73223 15.2716 1.88595 15.0365 2.73234L11.2178 16.4797L8.98478 3.8262C8.84419 3.02949 7.86496 2.72081 7.29289 3.29288L3.58579 6.99998H3C2.44772 6.99998 2 7.4477 2 7.99998C2 8.55227 2.44772 8.99998 3 8.99998H4C4.26522 8.99998 4.51957 8.89463 4.70711 8.70709L7.349 6.0652Z" fill="#85ACB0"/>
</g>
</svg>
