<svg width="24" height="24" viewBox="0 0 24 24" fill="none" xmlns="http://www.w3.org/2000/svg">
<g id="legacy / averages">
<path id="icon" d="M2.07152 13.3714C2.25945 13.8412 2.6232 14.496 3.19431 15.1549C4.18185 16.2944 5.45193 17 7 17C9.29666 17 10.3914 15.7035 12.3824 11.9706C13.9914 8.95354 14.7967 8 16 8C17.3882 8 18.4184 8.87061 19.1746 10.4352C19.4592 11.024 19.679 11.6639 19.8392 12.305C19.9349 12.6879 19.9884 12.9797 20.0088 13.1322C20.0818 13.6796 20.5847 14.0642 21.1322 13.9912C21.6796 13.9182 22.0642 13.4153 21.9912 12.8678C21.9615 12.6453 21.8948 12.2809 21.7795 11.82C21.5882 11.0548 21.3251 10.2885 20.9753 9.56483C19.9191 7.37939 18.2868 6 16 6C13.7033 6 12.6086 7.29646 10.6176 11.0294C9.00855 14.0465 8.20334 15 7 15C6.09807 15 5.34314 14.5806 4.70569 13.8451C4.46982 13.5729 4.26904 13.2776 4.10541 12.9831C4.01 12.8114 3.95107 12.6851 3.92848 12.6286C3.72336 12.1158 3.14139 11.8664 2.62861 12.0715C2.11582 12.2766 1.86641 12.8586 2.07152 13.3714Z" fill="#85ACB0"/>
</g>
</svg>
