<svg width="16" height="16" viewBox="0 0 16 16" fill="none" xmlns="http://www.w3.org/2000/svg">
<g id="legacy / exit-time">
<rect width="16" height="16" rx="8" fill="#4BB4B3"/>
<path id="icon" d="M3.79799 2.66667C4.04345 2.66667 4.24243 2.86565 4.24243 3.11111L4.24201 3.55533L12.4445 3.55556C12.9354 3.55556 13.3333 3.95353 13.3333 4.44445V9.77778C13.3333 10.2687 12.9354 10.6667 12.4445 10.6667H4.24201L4.24243 12.8889C4.24243 13.1344 4.04345 13.3333 3.79799 13.3333H3.77779C3.53233 13.3333 3.33334 13.1344 3.33334 12.8889V3.11111C3.33334 2.86565 3.53233 2.66667 3.77779 2.66667H3.79799ZM12.4243 8H10.6061V9.77778H12.4243V8ZM8.78789 8H6.96971V9.77778H8.78789V8ZM10.6061 6.22222H8.78789V8H10.6061V6.22222ZM6.96971 6.22222H5.15153V8H6.96971V6.22222ZM8.78789 4.44445H6.96971V6.22222H8.78789V4.44445ZM12.4243 4.44445H10.6061V6.22222H12.4243V4.44445Z" fill="white"/>
</g>
</svg>
