<svg width="16" height="16" viewBox="0 0 16 16" fill="none" xmlns="http://www.w3.org/2000/svg">
<g id="legacy / indicator-active">
<path id="icon" d="M8.88846 5.95062L11.0075 2.9697C11.2138 2.6301 11.2096 2.24387 11.0175 1.94005C10.8254 1.63624 10.4782 1.46688 10.1205 1.50246L7.84 1.5C7.50482 1.48694 7.17005 1.66193 6.97894 1.96036L2.97926 8.18986C2.794 8.53318 2.81224 8.90771 3.00645 9.19904C3.20067 9.49036 3.53938 9.65124 3.88789 9.6177L6.61308 9.6195L5.04016 13.3037C4.82157 13.8157 5.47734 14.2479 5.86171 13.8452L11.9317 7.48521L11.9917 7.4087C12.1863 7.10322 12.1903 6.71364 12.002 6.40423C11.8137 6.09481 11.4658 5.91943 11.105 5.95203L8.88846 5.95062ZM11.0602 6.95L7.04317 11.1589L7.82985 9.31633C7.97067 8.98647 7.72866 8.62 7.37 8.62H3.88958L7.82074 2.50014L10.1162 2.49999L7.51248 6.1603C7.27715 6.49135 7.51383 6.95 7.92 6.95H11.0602Z" fill="#333333"/>
</g>
</svg>
