<svg width="24" height="24" viewBox="0 0 24 24" fill="none" xmlns="http://www.w3.org/2000/svg">
<g id="legacy / ray">
<path id="secondary" d="M19.5 19.5C19.7761 19.5 20 19.7239 20 20V20.5C20 20.7761 19.7761 21 19.5 21C19.2239 21 19 20.7761 19 20.5V20C19 19.7239 19.2239 19.5 19.5 19.5ZM19.5 17C19.7761 17 20 17.2239 20 17.5V18C20 18.2761 19.7761 18.5 19.5 18.5C19.2239 18.5 19 18.2761 19 18V17.5C19 17.2239 19.2239 17 19.5 17ZM19.5 14.5C19.7761 14.5 20 14.7239 20 15V15.5C20 15.7761 19.7761 16 19.5 16C19.2239 16 19 15.7761 19 15.5V15C19 14.7239 19.2239 14.5 19.5 14.5ZM19.5 12C19.7761 12 20 12.2239 20 12.5V13C20 13.2761 19.7761 13.5 19.5 13.5C19.2239 13.5 19 13.2761 19 13V12.5C19 12.2239 19.2239 12 19.5 12ZM19.5 9.5C19.7761 9.5 20 9.72386 20 10V10.5C20 10.7761 19.7761 11 19.5 11C19.2239 11 19 10.7761 19 10.5V10C19 9.72386 19.2239 9.5 19.5 9.5ZM19.5 7C19.7761 7 20 7.22386 20 7.5V8C20 8.27614 19.7761 8.5 19.5 8.5C19.2239 8.5 19 8.27614 19 8V7.5C19 7.22386 19.2239 7 19.5 7ZM19.5 4.5C19.7455 4.5 19.9496 4.67688 19.9919 4.91012L20 5H20.5C20.7761 5 21 5.22386 21 5.5C21 5.77614 20.7761 6 20.5 6H20C19.9091 6 19.8239 5.97576 19.7505 5.93339C19.6768 5.97555 19.5913 6 19.5 6C19.2239 6 19 5.77614 19 5.5V5C19 4.72386 19.2239 4.5 19.5 4.5ZM18 5C18.2761 5 18.5 5.22386 18.5 5.5C18.5 5.77614 18.2761 6 18 6H17.5C17.2239 6 17 5.77614 17 5.5C17 5.22386 17.2239 5 17.5 5H18ZM15.5 5C15.7761 5 16 5.22386 16 5.5C16 5.77614 15.7761 6 15.5 6H15C14.7239 6 14.5 5.77614 14.5 5.5C14.5 5.22386 14.7239 5 15 5H15.5ZM13 5C13.2761 5 13.5 5.22386 13.5 5.5C13.5 5.77614 13.2761 6 13 6H12.5C12.2239 6 12 5.77614 12 5.5C12 5.22386 12.2239 5 12.5 5H13ZM10.5 5C10.7761 5 11 5.22386 11 5.5C11 5.77614 10.7761 6 10.5 6H10C9.72386 6 9.5 5.77614 9.5 5.5C9.5 5.22386 9.72386 5 10 5H10.5ZM8 5C8.27614 5 8.5 5.22386 8.5 5.5C8.5 5.77614 8.27614 6 8 6H7.5C7.22386 6 7 5.77614 7 5.5C7 5.22386 7.22386 5 7.5 5H8ZM5.5 5C5.77614 5 6 5.22386 6 5.5C6 5.77614 5.77614 6 5.5 6H5C4.72386 6 4.5 5.77614 4.5 5.5C4.5 5.22386 4.72386 5 5 5H5.5ZM3 5C3.27614 5 3.5 5.22386 3.5 5.5C3.5 5.77614 3.27614 6 3 6H2.5C2.22386 6 2 5.77614 2 5.5C2 5.22386 2.22386 5 2.5 5H3ZM19.5 2C19.7761 2 20 2.22386 20 2.5V3C20 3.27614 19.7761 3.5 19.5 3.5C19.2239 3.5 19 3.27614 19 3V2.5C19 2.22386 19.2239 2 19.5 2Z" fill="#85ACB0"/>
<path id="primary" d="M4 21C3.7342 21.0015 3.47872 20.8972 3.29 20.71C3.10069 20.5222 2.9942 20.2666 2.9942 20C2.9942 19.7334 3.10069 19.4778 3.29 19.29L17.29 5.29C17.6821 4.89788 18.3179 4.89788 18.71 5.29C19.1021 5.68212 19.1021 6.31788 18.71 6.71L4.71 20.71C4.52128 20.8972 4.2658 21.0015 4 21Z" fill="#FF444F"/>
</g>
</svg>
