<svg width="16" height="16" viewBox="0 0 16 16" fill="none" xmlns="http://www.w3.org/2000/svg">
<g id="legacy / buysell">
<g id="icon">
<path d="M1.0153 7.53284C1.25541 3.8849 4.29099 1 7.99997 1C10.7917 1 13.2028 2.63454 14.3265 5H12.5C12.2239 5 12 5.22386 12 5.5C12 5.77614 12.2239 6 12.5 6H15.0616C15.0693 6.00018 15.0771 6.00018 15.0848 6H15.5C15.7761 6 16 5.77614 16 5.5V2.5C16 2.22386 15.7761 2 15.5 2C15.2239 2 15 2.22386 15 2.5V4.12431C13.6356 1.66514 11.0127 0 7.99997 0C3.76071 0 0.291933 3.29706 0.0174556 7.46716C-0.000681013 7.74271 0.207991 7.98078 0.483537 7.99892C0.759083 8.01706 0.99716 7.80839 1.0153 7.53284Z" fill="#333333"/>
<path d="M15.9825 8.53284C16.0006 8.25729 15.792 8.01922 15.5164 8.00108C15.2409 7.98294 15.0028 8.19162 14.9847 8.46716C14.7445 12.1151 11.709 15 7.99997 15C5.20822 15 2.79715 13.3655 1.67346 11H3.5C3.77614 11 4 10.7761 4 10.5C4 10.2239 3.77614 10 3.5 10H0.938369C0.930633 9.99982 0.922876 9.99982 0.915104 10H0.5C0.223858 10 0 10.2239 0 10.5V13.5C0 13.7761 0.223858 14 0.5 14C0.776142 14 1 13.7761 1 13.5V11.8758C2.36445 14.3349 4.98728 16 7.99997 16C12.2392 16 15.708 12.7029 15.9825 8.53284Z" fill="#333333"/>
<path fill-rule="evenodd" clip-rule="evenodd" d="M9.13664 5.5803C8.95681 5.48618 8.75078 5.42288 8.51973 5.38901V4.5H7.56472V5.40985C7.49759 5.42335 7.43172 5.43956 7.36712 5.45853C7.14054 5.51865 6.94149 5.61273 6.77156 5.74187L6.77008 5.74304C6.60554 5.8733 6.47579 6.03754 6.38074 6.23421C6.28391 6.42814 6.23725 6.65326 6.23725 6.90663C6.23725 7.14621 6.27712 7.3579 6.3606 7.53878L6.36194 7.54145C6.45059 7.71875 6.57033 7.86962 6.72106 7.99295L6.72484 7.99574C6.87939 8.10997 7.05632 8.20325 7.25487 8.27605L7.25757 8.27695C7.45478 8.34269 7.6709 8.39167 7.90494 8.42419L8.29532 8.48133C8.61296 8.53121 8.80741 8.622 8.90577 8.7359L8.90898 8.73927C9.01877 8.85454 9.07364 8.99304 9.07364 9.16046C9.07364 9.38866 8.99271 9.55642 8.83446 9.67647L8.83318 9.67747C8.67766 9.79967 8.45003 9.86717 8.13773 9.86717C7.83937 9.86717 7.58198 9.80645 7.36268 9.68812C7.13956 9.56131 6.93568 9.38231 6.75151 9.14903L6.6917 9.07327L6 9.63148L6.0562 9.70534C6.28631 10.0078 6.55988 10.2519 6.87674 10.4367L6.87877 10.4379C7.08058 10.5491 7.30958 10.6252 7.56472 10.6675V11.5H8.51973V10.6777C8.90285 10.6222 9.22414 10.4893 9.479 10.2744C9.82806 9.98013 10 9.57623 10 9.07451C10 8.67814 9.87835 8.3501 9.62869 8.10018C9.37792 7.84276 8.96476 7.67919 8.40975 7.5953L8.02852 7.53811C7.73024 7.48833 7.50971 7.41199 7.35987 7.31424C7.23404 7.22834 7.16361 7.0875 7.16361 6.86843C7.16361 6.65686 7.23402 6.50044 7.36855 6.38743C7.51035 6.26745 7.72664 6.19992 8.03267 6.19992C8.33862 6.19992 8.58445 6.26113 8.77582 6.37712L8.77768 6.37819C8.97921 6.49422 9.12664 6.62255 9.22491 6.76128L9.28714 6.84914L9.94052 6.25741L9.88283 6.1871C9.67125 5.92923 9.42244 5.7266 9.13664 5.5803Z" fill="#333333"/>
</g>
</g>
</svg>
