<svg width="16" height="16" viewBox="0 0 16 16" fill="none" xmlns="http://www.w3.org/2000/svg">
<g id="legacy / responsible-trading" clip-path="url(#clip0_2761_1065)">
<path id="icon" d="M7.79047 0.0460203C7.92342 -0.0153401 8.07658 -0.0153401 8.20953 0.0460203L14.7095 3.04602C14.8866 3.12775 15 3.30497 15 3.5C15 10.3646 12.7219 14.5702 8.14704 15.9779C8.05123 16.0074 7.94877 16.0074 7.85296 15.9779C3.27806 14.5702 1 10.3646 1 3.5C1 3.30497 1.1134 3.12775 1.29047 3.04602L7.79047 0.0460203ZM8 1.05L2.002 3.818L2.0105 4.28705C2.16961 10.15 4.13764 13.6633 7.89907 14.9419L8 14.974L8.10093 14.9419C11.946 13.6349 13.917 9.99278 13.9974 3.89271L13.998 3.818L8 1.05ZM11.3536 5.64645C11.5271 5.82001 11.5464 6.08944 11.4114 6.28431L11.3536 6.35355L7.35355 10.3536C7.17999 10.5271 6.91056 10.5464 6.71569 10.4114L6.64645 10.3536L4.64645 8.35355C4.45118 8.15829 4.45118 7.84171 4.64645 7.64645C4.82001 7.47288 5.08944 7.4536 5.28431 7.58859L5.35355 7.64645L7 9.293L10.6464 5.64645C10.8417 5.45118 11.1583 5.45118 11.3536 5.64645Z" fill="#333333"/>
</g>
<defs>
<clipPath id="clip0_2761_1065">
<rect width="16" height="16" fill="white"/>
</clipPath>
</defs>
</svg>
