<svg width="16" height="17" viewBox="0 0 16 17" fill="none" xmlns="http://www.w3.org/2000/svg">
<g id="legacy / twitter">
<path id="icon" d="M14.362 4.73706C14.3717 4.87811 14.3717 5.01916 14.3717 5.16152C14.3717 9.49903 11.0697 14.5015 5.03173 14.5015V14.4989C3.2481 14.5015 1.50152 13.9906 0 13.0273C0.259354 13.0585 0.520008 13.0741 0.781312 13.0747C2.25944 13.076 3.69531 12.5801 4.85818 11.6668C3.4535 11.6402 2.22173 10.7243 1.79143 9.38723C2.28349 9.48213 2.79049 9.46263 3.27345 9.33068C1.74203 9.02128 0.64026 7.67576 0.64026 6.11313C0.64026 6.09883 0.64026 6.08518 0.64026 6.07153C1.09657 6.32568 1.60748 6.46674 2.13008 6.48234C0.687711 5.51837 0.243104 3.59954 1.11412 2.09932C2.78074 4.1501 5.23973 5.39682 7.87942 5.52877C7.61487 4.38865 7.97627 3.19394 8.82909 2.39247C10.1512 1.14965 12.2306 1.21335 13.4734 2.53483C14.2086 2.38987 14.9132 2.12012 15.558 1.73791C15.3129 2.49777 14.8001 3.14323 14.115 3.55339C14.7656 3.47669 15.4013 3.30249 16 3.03663C15.5593 3.69704 15.0042 4.2723 14.362 4.73706Z" fill="#333333"/>
</g>
</svg>
