<svg width="16" height="16" viewBox="0 0 16 16" fill="none" xmlns="http://www.w3.org/2000/svg">
<g id="legacy / visibility / 2px">
<g id="icon">
<path fill-rule="evenodd" clip-rule="evenodd" d="M8 4.75C6.20507 4.75 4.75 6.20507 4.75 8C4.75 9.79493 6.20507 11.25 8 11.25C9.79493 11.25 11.25 9.79493 11.25 8C11.25 6.20507 9.79493 4.75 8 4.75ZM6.25 8C6.25 7.0335 7.0335 6.25 8 6.25C8.9665 6.25 9.75 7.0335 9.75 8C9.75 8.9665 8.9665 9.75 8 9.75C7.0335 9.75 6.25 8.9665 6.25 8Z" fill="#333333"/>
<path fill-rule="evenodd" clip-rule="evenodd" d="M7.99998 2C5.83806 2 4.10719 2.98565 2.85784 4.07248C1.61082 5.15728 0.779559 6.39591 0.386399 7.05143C0.0346117 7.63797 0.0346119 8.36203 0.386399 8.94857C0.779559 9.60409 1.61082 10.8427 2.85784 11.9275C4.10719 13.0144 5.83806 14 7.99998 14C10.1619 14 11.8928 13.0144 13.1421 11.9275C14.3891 10.8427 15.2204 9.60409 15.6136 8.94857C15.9653 8.36203 15.9653 7.63797 15.6136 7.05143C15.2204 6.39591 14.3891 5.15728 13.1421 4.07248C11.8928 2.98565 10.1619 2 7.99998 2ZM4.1705 10.4186C3.18983 9.56548 2.50301 8.57571 2.15015 8C2.50301 7.42429 3.18983 6.43452 4.1705 5.58142C5.196 4.68932 6.47852 4 7.99998 4C9.52144 4 10.804 4.68932 11.8295 5.58142C12.8101 6.43452 13.4969 7.42429 13.8498 8C13.4969 8.57571 12.8101 9.56548 11.8295 10.4186C10.804 11.3107 9.52144 12 7.99998 12C6.47852 12 5.196 11.3107 4.1705 10.4186Z" fill="#333333"/>
</g>
</g>
</svg>
