<svg width="32" height="32" viewBox="0 0 32 32" fill="none" xmlns="http://www.w3.org/2000/svg">
<g id="legacy / stock-indices">
<g id="icon">
<path d="M15.9274 25.2629C14.7847 25.2629 13.787 23.4008 13.2531 20.6329L18.6022 20.6327C18.0677 23.4007 17.07 25.2629 15.9274 25.2629ZM14.1108 24.856C12.6088 24.1631 11.351 22.6346 10.5786 20.6323L12.5029 20.633C12.8627 22.427 13.4249 23.9029 14.1108 24.856ZM17.7446 24.8553C18.4302 23.9025 18.9923 22.4266 19.352 20.6324L21.2759 20.6332C20.5035 22.6348 19.2461 24.1629 17.7446 24.8553ZM12.2276 24.495C10.4073 23.7008 8.89149 22.3387 7.90428 20.6325L9.76321 20.6327C10.334 22.2139 11.1878 23.5481 12.2276 24.495ZM19.627 24.4946C20.6668 23.548 21.5207 22.214 22.0914 20.6328L23.9501 20.6325C22.9632 22.3386 21.4474 23.7006 19.627 24.4946ZM7.82233 15.2281C8.20174 15.2281 8.59217 15.2472 8.9964 15.2852C8.98603 15.5217 8.98019 15.7599 8.98019 16C8.98019 17.3678 9.16966 18.6718 9.51276 19.86L7.50507 19.8611C6.96538 18.6857 6.66447 17.378 6.66447 16C6.66447 15.7802 6.67213 15.5622 6.68719 15.3462C7.0232 15.2689 7.40238 15.2281 7.82233 15.2281ZM9.76599 15.3777C10.4839 15.4818 11.2468 15.6399 12.0683 15.8507L12.0678 16C12.0678 17.3679 12.1731 18.6719 12.3637 19.8601L10.3124 19.8607C9.95266 18.6854 9.7521 17.3778 9.7521 16L9.75632 15.6543L9.76599 15.3777ZM12.8398 16.059L13.2582 16.18C13.8683 16.3601 14.4738 16.5529 15.2013 16.7974L15.5759 16.9242L17.9287 17.7346C18.2835 17.8554 18.6195 17.9686 18.9383 18.0743C18.8908 18.6958 18.8224 19.2934 18.7355 19.8603L13.1199 19.8606C12.9426 18.7022 12.8426 17.4152 12.8398 16.059ZM19.6835 18.3179C20.4967 18.5793 21.1862 18.7845 21.7856 18.9385C21.7154 19.2537 21.6341 19.5614 21.5425 19.8605L19.491 19.8607C19.5671 19.386 19.6296 18.8929 19.6773 18.3846L19.6835 18.3179ZM22.5341 19.1138C23.3603 19.2858 24.0018 19.337 24.5895 19.287C24.5157 19.4814 24.4356 19.6726 24.3494 19.8605L22.3418 19.8606C22.4064 19.6367 22.4657 19.4087 22.5192 19.177L22.5341 19.1138ZM25.1903 16C25.1903 16.2938 25.1766 16.5844 25.1498 16.8711C24.4971 17.0207 23.8177 17.0241 22.8515 16.8398C22.8664 16.563 22.8745 16.2828 22.8745 16C22.8745 14.6325 22.6852 13.3289 22.3423 12.141L24.3501 12.14C24.8895 13.315 25.1903 14.6224 25.1903 16ZM22.1026 16C22.1026 16.2252 22.0973 16.4486 22.0867 16.6698C21.4503 16.5121 20.6997 16.2897 19.7884 15.9957C19.7879 14.6301 19.6824 13.3278 19.4917 12.1407L21.5427 12.1404C21.9022 13.3153 22.1026 14.6226 22.1026 16ZM19.0138 15.7404C18.7762 15.662 18.5284 15.5788 18.27 15.4912L17.8745 15.3564L16.1005 14.744C15.1867 14.4303 14.472 14.196 13.7749 13.985L13.4768 13.8959L13.07 13.7781C13.0235 13.7649 12.9771 13.7519 12.931 13.739C12.9775 13.1846 13.0406 12.6501 13.1187 12.1404L18.735 12.1403C18.9034 13.2412 19.0021 14.4583 19.0138 15.7404ZM12.1846 13.5401C11.436 13.3498 10.7313 13.2018 10.0611 13.0975C10.1331 12.77 10.217 12.4505 10.3119 12.1403L12.3636 12.1403C12.2913 12.5912 12.2313 13.0587 12.1846 13.5401ZM9.29724 12.9942C8.78916 12.9405 8.29876 12.9124 7.82233 12.9124C7.60031 12.9124 7.38644 12.923 7.18111 12.9436C7.27673 12.6697 7.38487 12.4017 7.50484 12.1401L9.51262 12.1405C9.43224 12.419 9.36029 12.7037 9.29724 12.9942ZM12.2277 7.50545C11.1877 8.45218 10.3338 9.78644 9.76305 11.3679L7.90394 11.3684C8.89074 9.66209 10.4068 8.29961 12.2277 7.50545ZM14.1101 7.14469C13.4244 8.0978 12.8623 9.5739 12.5027 11.3681L10.578 11.3688C11.3504 9.36614 12.6082 7.83735 14.1101 7.14469ZM15.9274 6.7371C17.0702 6.7371 18.068 8.59976 18.6019 11.3683L13.252 11.3686C13.7865 8.60024 14.7844 6.7371 15.9274 6.7371ZM17.7446 7.14469C19.2465 7.83734 20.5043 9.36606 21.2766 11.3687L19.3527 11.3692C19.0036 9.62928 18.4643 8.1878 17.8063 7.23253L17.7446 7.14469ZM19.627 7.50545C21.4478 8.29957 22.9638 9.66195 23.951 11.3685L22.0919 11.3684C21.5364 9.82895 20.7126 8.52367 19.7102 7.58186L19.627 7.50545Z" fill="white"/>
<path d="M24.7456 13.6885C26.081 13.483 27.4132 14.2028 27.8536 15.2979C28.3525 16.5386 27.5633 17.7363 25.6871 18.2991L25.4838 18.3566C23.864 18.786 22.3625 18.4724 17.9287 16.9624L15.5758 16.152C14.6754 15.8453 13.97 15.6179 13.2582 15.4078C11.1301 14.7795 9.383 14.4559 7.82231 14.4559C5.79198 14.4559 4.71438 15.4088 4.77436 16.6646C4.83193 17.8698 5.91434 18.8151 7.40731 18.7025C7.61986 18.6864 7.80517 18.8457 7.82122 19.0583C7.83726 19.2708 7.67795 19.4561 7.4654 19.4722C5.54108 19.6174 4.08174 18.3429 4.00333 16.7014C3.92076 14.9729 5.37827 13.684 7.82231 13.684C9.36656 13.684 11.0577 13.9793 13.0699 14.5497L13.4767 14.6675C14.2718 14.9022 15.0561 15.1571 16.1005 15.5156L17.8745 16.128C22.5148 17.7158 23.9513 18.014 25.4653 17.5598C26.9456 17.1157 27.4467 16.3551 27.1374 15.5859C26.8336 14.8304 25.8508 14.2994 24.863 14.4514C24.6523 14.4838 24.4552 14.3393 24.4228 14.1286C24.3904 13.9179 24.5349 13.7209 24.7456 13.6885Z" fill="white"/>
<path fill-rule="evenodd" clip-rule="evenodd" d="M6 0C2.68629 0 0 2.68629 0 6V26C0 29.3137 2.68629 32 6 32H26C29.3137 32 32 29.3137 32 26V6C32 2.68629 29.3137 0 26 0H6ZM13.2531 20.6329C13.787 23.4008 14.7847 25.2629 15.9274 25.2629C17.07 25.2629 18.0677 23.4007 18.6022 20.6327L13.2531 20.6329ZM10.5786 20.6323C11.351 22.6346 12.6088 24.1631 14.1108 24.856C13.4249 23.9029 12.8627 22.427 12.5029 20.633L10.5786 20.6323ZM19.352 20.6324C18.9923 22.4266 18.4302 23.9025 17.7446 24.8553C19.2461 24.1629 20.5035 22.6348 21.2759 20.6332L19.352 20.6324ZM7.90428 20.6325C8.89149 22.3387 10.4073 23.7008 12.2276 24.495C11.1878 23.5481 10.334 22.2139 9.76321 20.6327L7.90428 20.6325ZM22.0914 20.6328C21.5207 22.214 20.6668 23.548 19.627 24.4946C21.4474 23.7006 22.9632 22.3386 23.9501 20.6325L22.0914 20.6328ZM8.9964 15.2852C8.59217 15.2472 8.20174 15.2281 7.82233 15.2281C7.40238 15.2281 7.0232 15.2689 6.68719 15.3462C6.67213 15.5622 6.66447 15.7802 6.66447 16C6.66447 16.9428 6.80534 17.853 7.06717 18.7102C5.75239 18.6669 4.82746 17.7762 4.77436 16.6646C4.71438 15.4088 5.79198 14.4559 7.82231 14.4559C9.383 14.4559 11.1301 14.7795 13.2582 15.4078C13.97 15.6179 14.6754 15.8453 15.5758 16.152L17.9287 16.9624C22.3625 18.4724 23.864 18.786 25.4838 18.3566L25.6871 18.2991C27.5633 17.7363 28.3525 16.5386 27.8536 15.2979C27.4296 14.2436 26.1789 13.5373 24.8946 13.6695C24.7573 13.1399 24.5743 12.6284 24.3501 12.14L22.3423 12.141C22.6852 13.3289 22.8745 14.6325 22.8745 16C22.8745 16.2828 22.8664 16.563 22.8515 16.8398C23.8177 17.0241 24.4971 17.0207 25.1498 16.8711C25.1766 16.5844 25.1903 16.2938 25.1903 16C25.1903 15.4649 25.1449 14.9406 25.0578 14.4303C25.9773 14.3705 26.8536 14.8801 27.1374 15.5859C27.4467 16.3551 26.9456 17.1157 25.4653 17.5598C23.9513 18.014 22.5148 17.7158 17.8745 16.128L16.1005 15.5156C15.0561 15.1571 14.2718 14.9022 13.4767 14.6675L13.0699 14.5497C11.0577 13.9793 9.36656 13.684 7.82231 13.684C5.37827 13.684 3.92076 14.9729 4.00333 16.7014C4.08003 18.3071 5.47811 19.5619 7.34024 19.4799C7.3924 19.6085 7.44737 19.7354 7.50507 19.8611L9.51276 19.86C9.16966 18.6718 8.98019 17.3678 8.98019 16C8.98019 15.7599 8.98603 15.5217 8.9964 15.2852ZM12.0683 15.8507C11.2468 15.6399 10.4839 15.4818 9.76599 15.3777L9.75632 15.6543L9.7521 16C9.7521 17.3778 9.95266 18.6854 10.3124 19.8607L12.3637 19.8601C12.1731 18.6719 12.0678 17.3679 12.0678 16L12.0683 15.8507ZM13.2582 16.18L12.8398 16.059C12.8426 17.4152 12.9426 18.7022 13.1199 19.8606L18.7355 19.8603C18.8224 19.2934 18.8908 18.6958 18.9383 18.0743C18.6195 17.9686 18.2835 17.8554 17.9287 17.7346L15.5759 16.9242L15.2013 16.7974C14.4738 16.5529 13.8683 16.3601 13.2582 16.18ZM21.7856 18.9385C21.1862 18.7845 20.4967 18.5793 19.6835 18.3179L19.6773 18.3846C19.6296 18.8929 19.5671 19.386 19.491 19.8607L21.5425 19.8605C21.6341 19.5614 21.7154 19.2537 21.7856 18.9385ZM24.5895 19.287C24.0018 19.337 23.3603 19.2858 22.5341 19.1138L22.5192 19.177C22.4657 19.4087 22.4064 19.6367 22.3418 19.8606L24.3494 19.8605C24.4356 19.6726 24.5157 19.4814 24.5895 19.287ZM22.0867 16.6698C22.0973 16.4486 22.1026 16.2252 22.1026 16C22.1026 14.6226 21.9022 13.3153 21.5427 12.1404L19.4917 12.1407C19.6824 13.3278 19.7879 14.6301 19.7884 15.9957C20.6997 16.2897 21.4503 16.5121 22.0867 16.6698ZM18.27 15.4912C18.5284 15.5788 18.7762 15.662 19.0138 15.7404C19.0021 14.4583 18.9034 13.2412 18.735 12.1403L13.1187 12.1404C13.0406 12.6501 12.9775 13.1846 12.931 13.739L13.07 13.7781L13.4768 13.8959L13.7749 13.985C14.472 14.196 15.1867 14.4303 16.1005 14.744L17.8745 15.3564L18.27 15.4912ZM10.0611 13.0975C10.7313 13.2018 11.436 13.3498 12.1846 13.5401C12.2313 13.0587 12.2913 12.5912 12.3636 12.1403L10.3119 12.1403C10.217 12.4505 10.1331 12.77 10.0611 13.0975ZM7.82233 12.9124C8.29876 12.9124 8.78916 12.9405 9.29724 12.9942C9.36029 12.7037 9.43224 12.419 9.51262 12.1405L7.50484 12.1401C7.38487 12.4017 7.27673 12.6697 7.18111 12.9436C7.38644 12.923 7.60031 12.9124 7.82233 12.9124ZM9.76305 11.3679C10.3338 9.78644 11.1877 8.45218 12.2277 7.50545C10.4068 8.29961 8.89074 9.66209 7.90394 11.3684L9.76305 11.3679ZM12.5027 11.3681C12.8623 9.5739 13.4244 8.0978 14.1101 7.14469C12.6082 7.83735 11.3504 9.36614 10.578 11.3688L12.5027 11.3681ZM18.6019 11.3683C18.068 8.59976 17.0702 6.7371 15.9274 6.7371C14.7844 6.7371 13.7865 8.60024 13.252 11.3686L18.6019 11.3683ZM21.2766 11.3687C20.5043 9.36606 19.2465 7.83734 17.7446 7.14469L17.8063 7.23253C18.4643 8.1878 19.0036 9.62928 19.3527 11.3692L21.2766 11.3687ZM23.951 11.3685C22.9638 9.66195 21.4478 8.29957 19.627 7.50545L19.7102 7.58186C20.7126 8.52367 21.5364 9.82895 22.0919 11.3684L23.951 11.3685Z" fill="#33658A"/>
</g>
</g>
</svg>
