<svg width="16" height="16" viewBox="0 0 16 16" fill="none" xmlns="http://www.w3.org/2000/svg">
<g id="legacy / share-link / 1px">
<path id="icon" d="M4.5 5C4.77614 5 5 5.22386 5 5.5C5 5.74546 4.82312 5.94961 4.58988 5.99194L4.5 6H3C1.89543 6 1 6.89543 1 8C1 9.05436 1.81588 9.91817 2.85074 9.99451L3 10H7C8.10457 10 9 9.10457 9 8C9 7.72386 9.22386 7.5 9.5 7.5C9.77614 7.5 10 7.72386 10 8C10 9.59768 8.75108 10.9037 7.17627 10.9949L7 11H3C1.34315 11 0 9.65685 0 8C0 6.40232 1.24892 5.09634 2.82373 5.00509L3 5H4.5ZM13 5C14.6569 5 16 6.34315 16 8C16 9.59768 14.7511 10.9037 13.1763 10.9949L13 11H11.5C11.2239 11 11 10.7761 11 10.5C11 10.2545 11.1769 10.0504 11.4101 10.0081L11.5 10H13C14.1046 10 15 9.10457 15 8C15 6.94564 14.1841 6.08183 13.1493 6.00549L13 6H9C7.89543 6 7 6.89543 7 8C7 8.27614 6.77614 8.5 6.5 8.5C6.22386 8.5 6 8.27614 6 8C6 6.40232 7.24892 5.09634 8.82373 5.00509L9 5H13Z" fill="#333333"/>
</g>
</svg>
