<svg width="24" height="24" viewBox="0 0 24 24" fill="none" xmlns="http://www.w3.org/2000/svg">
<g id="legacy / ohlc">
<path id="icon - blue" d="M7 2C7.55228 2 8 2.44772 8 3V5H11C11.5128 5 11.9355 5.38604 11.9933 5.88338L12 6C12 6.55228 11.5523 7 11 7H8V19C8 19.5128 7.61396 19.9355 7.11662 19.9933L7 20C6.44772 20 6 19.5523 6 19V14H3C2.48716 14 2.06449 13.614 2.00673 13.1166L2 13C2 12.4477 2.44772 12 3 12H6V3C6 2.48716 6.38604 2.06449 6.88338 2.00673L7 2Z" fill="#85ACB0"/>
<path id="icon - red" d="M17 5C17.5523 5 18 5.44772 18 6V18H21C21.5128 18 21.9355 18.386 21.9933 18.8834L22 19C22 19.5523 21.5523 20 21 20H18V21C18 21.5128 17.614 21.9355 17.1166 21.9933L17 22C16.4477 22 16 21.5523 16 21V12H11C10.4477 12 10 11.5523 10 11C10 10.4477 10.4477 10 11 10H16V6C16 5.44772 16.4477 5 17 5Z" fill="#FF444F"/>
</g>
</svg>
