<svg width="24" height="24" viewBox="0 0 24 24" fill="none" xmlns="http://www.w3.org/2000/svg">
<g id="legacy / area">
<path id="bg" d="M2 15.49V22H22V4.31001C22.0286 3.79283 21.7328 3.31234 21.2581 3.10507C20.7834 2.89781 20.2299 3.00745 19.87 3.38001L12 11.58L9.23 8.68001C8.98692 8.42369 8.64468 8.28531 8.29177 8.30066C7.93885 8.316 7.60991 8.48356 7.39 8.76001L2 15.49Z" fill="#85ACB0" fill-opacity="0.3"/>
<path id="icon" d="M20.74 3C20.82 3 21 3.09 21 3.37V21H3V15.48L8.19 8.67C8.22434 8.61452 8.28475 8.58054 8.35 8.58C8.40527 8.57918 8.45749 8.60529 8.49 8.65L11.27 11.71C11.4595 11.9185 11.7282 12.0374 12.01 12.0374C12.2918 12.0374 12.5605 11.9185 12.75 11.71L20.61 3.08C20.68 3 20.73 3 20.74 3ZM20.74 2C20.4059 2.00183 20.0889 2.14761 19.87 2.4L12 11L9.23 8C9.00803 7.74606 8.68728 7.60026 8.35 7.6C7.95609 7.58767 7.58163 7.77116 7.35 8.09L2 15.14V22H22V3.37C22.0163 3.02081 21.8923 2.6796 21.6556 2.42231C21.419 2.16501 21.0893 2.01296 20.74 2Z" fill="#85ACB0"/>
</g>
</svg>
