<svg width="16" height="16" viewBox="0 0 16 16" fill="none" xmlns="http://www.w3.org/2000/svg">
<g id="legacy / sort / 1px">
<path id="icon - left" fill-rule="evenodd" clip-rule="evenodd" d="M4.14645 3.14645C4.34171 2.95118 4.65829 2.95118 4.85355 3.14645L7.85355 6.14645C8.04882 6.34171 8.04882 6.65829 7.85355 6.85355C7.65829 7.04882 7.34171 7.04882 7.14645 6.85355L5 4.70711V12.5C5 12.7761 4.77614 13 4.5 13C4.22386 13 4 12.7761 4 12.5V4.70711L1.85355 6.85355C1.65829 7.04882 1.34171 7.04882 1.14645 6.85355C0.951184 6.65829 0.951184 6.34171 1.14645 6.14645L4.14645 3.14645Z" fill="#333333"/>
<path id="icon - right" fill-rule="evenodd" clip-rule="evenodd" d="M11.5 3C11.7761 3 12 3.22386 12 3.5V11.2929L14.1464 9.14645C14.3417 8.95118 14.6583 8.95118 14.8536 9.14645C15.0488 9.34171 15.0488 9.65829 14.8536 9.85355L11.8536 12.8536C11.6583 13.0488 11.3417 13.0488 11.1464 12.8536L8.14645 9.85355C7.95118 9.65829 7.95118 9.34171 8.14645 9.14645C8.34171 8.95118 8.65829 8.95118 8.85355 9.14645L11 11.2929V3.5C11 3.22386 11.2239 3 11.5 3Z" fill="#333333"/>
</g>
</svg>
