<svg width="16" height="16" viewBox="0 0 16 16" fill="none" xmlns="http://www.w3.org/2000/svg">
<g id="legacy / arrow-left / 1px">
<path id="icon" d="M14 8.00046C14 8.2766 13.7761 8.50046 13.5 8.50046H3.708L6.35355 11.1469C6.52712 11.3205 6.5464 11.5899 6.41141 11.7848L6.35355 11.854C6.15829 12.0493 5.84171 12.0493 5.64645 11.854L2.14645 8.35401C2.14236 8.34992 2.13836 8.34578 2.13444 8.34159C2.12294 8.32928 2.11192 8.31621 2.10158 8.3026C2.09277 8.29107 2.08461 8.27929 2.07701 8.26726C2.07002 8.25614 2.06329 8.2445 2.05703 8.23259C2.04975 8.21873 2.04335 8.205 2.03761 8.19105C2.03241 8.17848 2.02756 8.1652 2.02327 8.15166C2.01845 8.13629 2.0144 8.12093 2.01109 8.10545C2.00383 8.07176 2 8.03656 2 8.00046L2.00517 8.07236C2.00271 8.05533 2.00112 8.03819 2.00042 8.02103L2 8.00046C2 7.99364 2.00014 7.98685 2.00041 7.9801C2.00106 7.96339 2.00266 7.94592 2.00517 7.92855C2.00679 7.91707 2.00877 7.90609 2.01109 7.89523C2.0144 7.87998 2.01845 7.86462 2.02324 7.84945C2.02756 7.83572 2.03241 7.82243 2.03779 7.80942C2.04335 7.79592 2.04975 7.78218 2.0568 7.7687C2.06329 7.75641 2.07002 7.74478 2.07719 7.73345C2.09647 7.70286 2.11961 7.67374 2.14645 7.6469L2.10158 7.69831C2.11192 7.6847 2.12294 7.67164 2.13459 7.65917L2.14645 7.6469L5.64645 4.1469C5.84171 3.95164 6.15829 3.95164 6.35355 4.1469C6.54882 4.34217 6.54882 4.65875 6.35355 4.85401L3.708 7.50046H13.5C13.7455 7.50046 13.9496 7.67733 13.9919 7.91058L14 8.00046Z" fill="#333333"/>
</g>
</svg>
