<svg width="16" height="16" viewBox="0 0 16 16" fill="none" xmlns="http://www.w3.org/2000/svg">
<g id="legacy / offramp" clip-path="url(#clip0_2761_728)">
<path id="icon" d="M4 0C6.20914 0 8 1.79086 8 4C8 4.39262 7.94343 4.77202 7.83801 5.13051L10.8695 8.16199C11.228 8.05657 11.6074 8 12 8C14.2091 8 16 9.79086 16 12C16 14.2091 14.2091 16 12 16L11.96 15.999L2.5 16C1.17452 16 0.0899613 14.9685 0.00531768 13.6644L0 13.5V4C0 1.79086 1.79086 0 4 0ZM12 9C10.3431 9 9 10.3431 9 12C9 13.6468 10.3269 14.9837 11.9699 14.9999L12 15C13.6569 15 15 13.6569 15 12C15 10.3431 13.6569 9 12 9ZM7.40071 6.10703C6.69516 7.24336 5.43594 8 4 8C2.80528 8 1.73289 7.47622 0.999943 6.64576L1 13.5C1 14.2797 1.59489 14.9204 2.35554 14.9931L2.5 15L9.35424 15.0001C8.52378 14.2671 8 13.1947 8 12C8 10.5641 8.75664 9.30484 9.89297 8.59929L7.40071 6.10703ZM12.4313 9.1832V9.8532C12.9613 10.0292 13.3263 10.5262 13.3263 11.0912V11.2032H12.5063V11.0912C12.5063 10.8222 12.2883 10.6062 12.0213 10.6062C11.7543 10.6062 11.5363 10.8222 11.5363 11.0912C11.5363 11.3602 11.7543 11.5782 12.0213 11.5782C12.7413 11.5782 13.3263 12.1662 13.3263 12.8882C13.3263 13.4522 12.9613 13.9492 12.4313 14.1262V14.7962H11.6123V14.1262C11.0813 13.9492 10.7173 13.4512 10.7173 12.8882V12.7752H11.5363V12.8882C11.5363 13.1562 11.7543 13.3742 12.0213 13.3742C12.2883 13.3742 12.5063 13.1562 12.5063 12.8882C12.5063 12.6182 12.2883 12.4002 12.0213 12.4002C11.3033 12.4002 10.7173 11.8142 10.7173 11.0912C10.7173 10.5262 11.0813 10.0292 11.6123 9.8532V9.1832H12.4313ZM4 1C2.34315 1 1 2.34315 1 4C1 5.65685 2.34315 7 4 7C5.65685 7 7 5.65685 7 4C7 2.34315 5.65685 1 4 1ZM9.78431 3.08859L9.85355 3.14645L12 5.293V4.5C12 4.25454 12.1769 4.05039 12.4101 4.00806L12.5 4C12.7455 4 12.9496 4.17688 12.9919 4.41012L13 4.5V6.5C13 6.91576 12.5308 7.1378 12.2122 6.90947L12.1464 6.85355L9.14645 3.85355C8.95118 3.65829 8.95118 3.34171 9.14645 3.14645C9.32001 2.97288 9.58944 2.9536 9.78431 3.08859ZM3.6061 1.6282V2.2952H4.2701V1.6282H4.9351V2.2952C5.1841 2.2942 5.4231 2.3872 5.6071 2.5562C6.0131 2.9272 6.0421 3.5572 5.6721 3.9632C5.8401 4.1492 5.9321 4.3902 5.9311 4.6402C5.9291 5.1902 5.4821 5.6342 4.9351 5.6322V6.2992H4.2701V5.6322H3.6061V6.2992H2.9421V5.6322H2.2771V4.9642H2.9421V2.9622H2.2771V2.2952H2.9421V1.6282H3.6061ZM4.9351 4.2972H3.6061V4.9642H4.9351C5.1181 4.9642 5.2661 4.8152 5.2661 4.6312C5.2661 4.4462 5.1181 4.2972 4.9351 4.2972ZM4.9351 2.9622H3.6061V3.6302H4.9351C5.1181 3.6302 5.2661 3.4812 5.2661 3.2962C5.2661 3.1112 5.1181 2.9622 4.9351 2.9622Z" fill="#333333"/>
</g>
<defs>
<clipPath id="clip0_2761_728">
<rect width="16" height="16" fill="white"/>
</clipPath>
</defs>
</svg>
