<svg width="16" height="16" viewBox="0 0 16 16" fill="none" xmlns="http://www.w3.org/2000/svg">
<g id="legacy / security-and-privacy" clip-path="url(#clip0_2761_1075)">
<path id="icon" d="M11.5 0C12.2797 0 12.9204 0.594888 12.9931 1.35554L13 1.5V4.5C13 4.77614 12.7761 5 12.5 5C12.2545 5 12.0504 4.82312 12.0081 4.58988L12 4.5V1.5C12 1.25454 11.8231 1.05039 11.5899 1.00806L11.5 1H1.5C1.25454 1 1.05039 1.17688 1.00806 1.41012L1 1.5V14.5C1 14.7455 1.17688 14.9496 1.41012 14.9919L1.5 15H10.5C10.7761 15 11 15.2239 11 15.5C11 15.7455 10.8231 15.9496 10.5899 15.9919L10.5 16H1.5C0.720304 16 0.0795513 15.4051 0.00686658 14.6445L0 14.5V1.5C0 0.720304 0.594888 0.0795513 1.35554 0.00686658L1.5 0H11.5ZM12.3419 6.02566C12.4445 5.99145 12.5555 5.99145 12.6581 6.02566L15.6581 7.02566C15.8623 7.09372 16 7.28478 16 7.5V11C16 12.2728 15.3523 13.2983 14.3 14.0875C13.9427 14.3555 13.5625 14.5772 13.1823 14.7568C13.0442 14.822 12.9233 14.8739 12.8246 14.913L12.6581 14.9743C12.5555 15.0086 12.4445 15.0086 12.3419 14.9743C12.2302 14.9371 12.0479 14.8655 11.8177 14.7568C11.4375 14.5772 11.0573 14.3555 10.7 14.0875C9.64769 13.2983 9 12.2728 9 11V7.5C9 7.28478 9.13772 7.09372 9.34189 7.02566L12.3419 6.02566ZM12.5 7.027L10 7.86V11C10 11.8494 10.4116 12.5617 11.129 13.1532L11.3 13.2875C11.599 13.5117 11.9219 13.7001 12.2448 13.8526L12.5 13.965L12.7552 13.8526C13.0781 13.7001 13.401 13.5117 13.7 13.2875C14.5227 12.6705 15 11.9147 15 11V7.86L12.5 7.027ZM5.5 12C5.77614 12 6 12.2239 6 12.5C6 12.7455 5.82312 12.9496 5.58988 12.9919L5.5 13H2.5C2.22386 13 2 12.7761 2 12.5C2 12.2545 2.17688 12.0504 2.41012 12.0081L2.5 12H5.5ZM12.5 12C12.776 12 13 12.224 13 12.5C13 12.776 12.776 13 12.5 13C12.224 13 12 12.776 12 12.5C12 12.224 12.224 12 12.5 12ZM12.5 8C12.7455 8 12.9496 8.17688 12.9919 8.41012L13 8.5V10.5C13 10.7761 12.7761 11 12.5 11C12.2545 11 12.0504 10.8231 12.0081 10.5899L12 10.5V8.5C12 8.22386 12.2239 8 12.5 8ZM7.5 9C7.77614 9 8 9.22386 8 9.5C8 9.74546 7.82312 9.94961 7.58988 9.99194L7.5 10H2.5C2.22386 10 2 9.77614 2 9.5C2 9.25454 2.17688 9.05039 2.41012 9.00806L2.5 9H7.5ZM7.5 6C7.77614 6 8 6.22386 8 6.5C8 6.74546 7.82312 6.94961 7.58988 6.99194L7.5 7H2.5C2.22386 7 2 6.77614 2 6.5C2 6.25454 2.17688 6.05039 2.41012 6.00806L2.5 6H7.5ZM7.5 3C7.77614 3 8 3.22386 8 3.5C8 3.74546 7.82312 3.94961 7.58988 3.99194L7.5 4H2.5C2.22386 4 2 3.77614 2 3.5C2 3.25454 2.17688 3.05039 2.41012 3.00806L2.5 3H7.5Z" fill="#333333"/>
</g>
<defs>
<clipPath id="clip0_2761_1075">
<rect width="16" height="16" fill="white"/>
</clipPath>
</defs>
</svg>
