<svg width="32" height="32" viewBox="0 0 32 32" fill="none" xmlns="http://www.w3.org/2000/svg">
<g id="legacy / cryptocurrencies">
<g id="icon">
<path d="M15.9681 20.7476C13.4146 20.7476 11.3455 18.6785 11.3455 16.125C11.3455 13.5715 13.4146 11.5024 15.9681 11.5024C17.3329 11.5024 18.6096 12.0747 19.4901 13.0873L21.9995 10.93C21.119 9.87342 19.9744 9.12499 18.6977 8.68474V5.99921H17.1568V8.24449C16.7605 8.20046 16.3643 8.15644 15.9681 8.15644C15.5278 8.15644 15.1316 8.20046 14.6914 8.24449V5.99921H13.1505V8.68474C10.1568 9.8294 7.99954 12.7351 7.99954 16.125C7.99954 19.5149 10.1568 22.4206 13.1505 23.5652V26.2508H14.6914V23.9615C15.0876 24.0055 15.5278 24.0495 15.9681 24.0495C16.3643 24.0495 16.7605 24.0055 17.1568 23.9615V26.2508H18.6977V23.6093C19.9744 23.169 21.075 22.3766 21.9995 21.364L19.4461 19.1627C18.5656 20.1753 17.2889 20.7476 15.9681 20.7476Z" fill="white"/>
<path fill-rule="evenodd" clip-rule="evenodd" d="M6 0C2.68629 0 0 2.68629 0 6V26C0 29.3137 2.68629 32 6 32H26C29.3137 32 32 29.3137 32 26V6C32 2.68629 29.3137 0 26 0H6ZM11.3455 16.125C11.3455 18.6785 13.4146 20.7476 15.9681 20.7476C17.2889 20.7476 18.5656 20.1753 19.4461 19.1627L21.9995 21.364C21.075 22.3766 19.9744 23.169 18.6977 23.6093V26.2508H17.1568V23.9615C16.7605 24.0055 16.3643 24.0495 15.9681 24.0495C15.5278 24.0495 15.0876 24.0055 14.6914 23.9615V26.2508H13.1505V23.5652C10.1568 22.4206 7.99954 19.5149 7.99954 16.125C7.99954 12.7351 10.1568 9.8294 13.1505 8.68474V5.99921H14.6914V8.24449C14.7283 8.2408 14.7654 8.23789 14.8018 8.23423C15.1989 8.19418 15.5648 8.15644 15.9681 8.15644C16.3643 8.15644 16.7605 8.20046 17.1568 8.24449V5.99921H18.6977V8.68474C19.9744 9.12499 21.119 9.87342 21.9995 10.93L19.4901 13.0873C18.6096 12.0747 17.3329 11.5024 15.9681 11.5024C13.4146 11.5024 11.3455 13.5715 11.3455 16.125Z" fill="#33658A"/>
</g>
</g>
</svg>
