<svg width="16" height="16" viewBox="0 0 16 16" fill="none" xmlns="http://www.w3.org/2000/svg">
<g id="legacy / delete / 2px" clip-path="url(#clip0_2761_851)">
<g id="icon">
<path d="M5.75 7C5.75 6.58579 5.41421 6.25 5 6.25C4.58579 6.25 4.25 6.58579 4.25 7V12C4.25 12.4142 4.58579 12.75 5 12.75C5.41421 12.75 5.75 12.4142 5.75 12V7Z" fill="#333333"/>
<path d="M8 6.25C8.41421 6.25 8.75 6.58579 8.75 7V12C8.75 12.4142 8.41421 12.75 8 12.75C7.58579 12.75 7.25 12.4142 7.25 12V7C7.25 6.58579 7.58579 6.25 8 6.25Z" fill="#333333"/>
<path d="M11.75 7C11.75 6.58579 11.4142 6.25 11 6.25C10.5858 6.25 10.25 6.58579 10.25 7V12C10.25 12.4142 10.5858 12.75 11 12.75C11.4142 12.75 11.75 12.4142 11.75 12V7Z" fill="#333333"/>
<path fill-rule="evenodd" clip-rule="evenodd" d="M5 0C3.89543 0 3 0.89543 3 2V3H1C0.447715 3 0 3.44772 0 4C0 4.55228 0.447715 5 1 5V13C1 14.6569 2.34315 16 4 16H12C13.6569 16 15 14.6569 15 13V5C15.5523 5 16 4.55228 16 4C16 3.44772 15.5523 3 15 3H13V2C13 0.895431 12.1046 0 11 0H5ZM3 13V5H13V13C13 13.5523 12.5523 14 12 14H4C3.44772 14 3 13.5523 3 13ZM11 3V2H5V3H11Z" fill="#333333"/>
</g>
</g>
<defs>
<clipPath id="clip0_2761_851">
<rect width="16" height="16" fill="white"/>
</clipPath>
</defs>
</svg>
