<svg width="24" height="24" viewBox="0 0 24 24" fill="none" xmlns="http://www.w3.org/2000/svg">
<g id="legacy / donchian">
<path id="icon" d="M5.78078 9H8.20449L11.0256 21.2249C11.1303 21.6786 11.5343 22 12 22H16C16.5043 22 16.9297 21.6245 16.9923 21.124L18.9355 5.57818L21.5547 3.83205C22.0142 3.5257 22.1384 2.90483 21.8321 2.4453C21.5257 1.98577 20.9048 1.8616 20.4453 2.16795L17.4453 4.16795C17.2035 4.32916 17.0438 4.58759 17.0077 4.87596L15.1172 20H12.7955L9.97439 7.77514C9.86968 7.32141 9.46566 7 9 7H5C4.54113 7 4.14115 7.3123 4.02986 7.75746L2.02986 15.7575C1.89591 16.2933 2.22167 16.8362 2.75746 16.9701C3.29326 17.1041 3.83619 16.7783 3.97014 16.2425L5.78078 9Z" fill="#85ACB0"/>
</g>
</svg>
