<svg width="16" height="16" viewBox="0 0 16 16" fill="none" xmlns="http://www.w3.org/2000/svg">
<g id="legacy / home-new" clip-path="url(#clip0_2943_317)">
<path id="icon" fill-rule="evenodd" clip-rule="evenodd" d="M7.67254 0.372155C7.86047 0.209282 8.13954 0.209282 8.32747 0.372155L15.8275 6.87216C16.0362 7.05301 16.0587 7.36879 15.8779 7.57747C15.697 7.78614 15.3812 7.8087 15.1725 7.62784L14 6.61165V14.25C14 15.0784 13.3284 15.75 12.5 15.75H3.50001C2.67158 15.75 2.00001 15.0784 2.00001 14.25V6.61165L0.827473 7.62784C0.618795 7.8087 0.303017 7.78614 0.122163 7.57747C-0.0586908 7.36879 -0.0361352 7.05301 0.172543 6.87216L7.67254 0.372155ZM2.99998 5.745C3 5.74667 3.00001 5.74833 3.00001 5.75V14.25C3.00001 14.5261 3.22387 14.75 3.50001 14.75H12.5C12.7762 14.75 13 14.5261 13 14.25V5.75C13 5.74833 13 5.74667 13 5.745L8.00001 1.41165L2.99998 5.745Z" fill="#333333"/>
</g>
<defs>
<clipPath id="clip0_2943_317">
<rect width="16" height="16" fill="white"/>
</clipPath>
</defs>
</svg>
