<svg width="16" height="16" viewBox="0 0 16 16" fill="none" xmlns="http://www.w3.org/2000/svg">
<g id="legacy / menu-hamburger / 2px">
<g id="icon">
<path fill-rule="evenodd" clip-rule="evenodd" d="M2 8C2 7.44772 2.44772 7 3 7H13C13.5523 7 14 7.44772 14 8C14 8.55228 13.5523 9 13 9H3C2.44772 9 2 8.55228 2 8Z" fill="#333333"/>
<path fill-rule="evenodd" clip-rule="evenodd" d="M2 4C2 3.44772 2.44772 3 3 3H13C13.5523 3 14 3.44772 14 4C14 4.55228 13.5523 5 13 5H3C2.44772 5 2 4.55228 2 4Z" fill="#333333"/>
<path fill-rule="evenodd" clip-rule="evenodd" d="M2 12C2 11.4477 2.44772 11 3 11H13C13.5523 11 14 11.4477 14 12C14 12.5523 13.5523 13 13 13H3C2.44772 13 2 12.5523 2 12Z" fill="#333333"/>
</g>
</g>
</svg>
