<svg width="16" height="16" viewBox="0 0 16 16" fill="none" xmlns="http://www.w3.org/2000/svg">
<g id="legacy / delete / 1px">
<path id="icon" d="M10.5 1C11.3284 1 12 1.67157 12 2.5V3H14.5C14.7761 3 15 3.22386 15 3.5C15 3.77614 14.7761 4 14.5 4H14V13.5C14 14.3284 13.3284 15 12.5 15H3.5C2.67157 15 2 14.3284 2 13.5V4H1.5C1.22386 4 1 3.77614 1 3.5C1 3.22386 1.22386 3 1.5 3H4V2.5C4 1.67157 4.67157 1 5.5 1H10.5ZM13 4H3V13.5C3 13.7761 3.22386 14 3.5 14H12.5C12.7761 14 13 13.7761 13 13.5V4ZM8 6C8.27614 6 8.5 6.22386 8.5 6.5V11.5C8.5 11.7761 8.27614 12 8 12C7.72386 12 7.5 11.7761 7.5 11.5V6.5C7.5 6.22386 7.72386 6 8 6ZM10.5 6C10.7761 6 11 6.22386 11 6.5V11.5C11 11.7761 10.7761 12 10.5 12C10.2239 12 10 11.7761 10 11.5V6.5C10 6.22386 10.2239 6 10.5 6ZM5.5 6C5.77614 6 6 6.22386 6 6.5V11.5C6 11.7761 5.77614 12 5.5 12C5.22386 12 5 11.7761 5 11.5V6.5C5 6.22386 5.22386 6 5.5 6ZM10.5 2H5.5C5.22386 2 5 2.22386 5 2.5V3H11V2.5C11 2.22386 10.7761 2 10.5 2Z" fill="#333333"/>
</g>
</svg>
