<svg width="16" height="16" viewBox="0 0 16 16" fill="none" xmlns="http://www.w3.org/2000/svg">
<g id="legacy / menu-apps / 1px">
<path id="icon" d="M4 11C4.55228 11 5 11.4477 5 12V14C5 14.5523 4.55228 15 4 15H2C1.44772 15 1 14.5523 1 14V12C1 11.4477 1.44772 11 2 11H4ZM9 11C9.55229 11 10 11.4477 10 12V14C10 14.5523 9.55229 15 9 15H7C6.44772 15 6 14.5523 6 14V12C6 11.4477 6.44772 11 7 11H9ZM14 11C14.5523 11 15 11.4477 15 12V14C15 14.5523 14.5523 15 14 15H12C11.4477 15 11 14.5523 11 14V12C11 11.4477 11.4477 11 12 11H14ZM4 12H2V14H4V12ZM9 12H7V14H9V12ZM14 12H12V14H14V12ZM4 6C4.55228 6 5 6.44772 5 7V9C5 9.55229 4.55228 10 4 10H2C1.44772 10 1 9.55229 1 9V7C1 6.44772 1.44772 6 2 6H4ZM9 6C9.55229 6 10 6.44772 10 7V9C10 9.55229 9.55229 10 9 10H7C6.44772 10 6 9.55229 6 9V7C6 6.44772 6.44772 6 7 6H9ZM14 6C14.5523 6 15 6.44772 15 7V9C15 9.55229 14.5523 10 14 10H12C11.4477 10 11 9.55229 11 9V7C11 6.44772 11.4477 6 12 6H14ZM4 7H2V9H4V7ZM9 7H7V9H9V7ZM14 7H12V9H14V7ZM4 1C4.55228 1 5 1.44772 5 2V4C5 4.55228 4.55228 5 4 5H2C1.44772 5 1 4.55228 1 4V2C1 1.44772 1.44772 1 2 1H4ZM9 1C9.55229 1 10 1.44772 10 2V4C10 4.55228 9.55229 5 9 5H7C6.44772 5 6 4.55228 6 4V2C6 1.44772 6.44772 1 7 1H9ZM14 1C14.5523 1 15 1.44772 15 2V4C15 4.55228 14.5523 5 14 5H12C11.4477 5 11 4.55228 11 4V2C11 1.44772 11.4477 1 12 1H14ZM4 2H2V4H4V2ZM9 2H7V4H9V2ZM14 2H12V4H14V2Z" fill="#333333"/>
</g>
</svg>
