<svg width="16" height="16" viewBox="0 0 16 16" fill="none" xmlns="http://www.w3.org/2000/svg">
<g id="legacy / favorite / off" clip-path="url(#clip0_2761_1043)">
<path id="icon" d="M4.25568 13.6536L7.76733 11.8074C7.91299 11.7309 8.08701 11.7309 8.23267 11.8074L11.7443 13.6536L11.0737 9.74334C11.0458 9.58114 11.0996 9.41564 11.2175 9.30077L14.0584 6.53149L10.1323 5.96099C9.96944 5.93733 9.82866 5.83504 9.75583 5.68747L8 2.12978L6.24417 5.68747C6.17134 5.83504 6.03056 5.93733 5.86771 5.96099L1.94156 6.53149L4.78255 9.30077C4.90039 9.41564 4.95416 9.58114 4.92634 9.74334L4.25568 13.6536ZM8 12.8149L3.82428 15.0102C3.45747 15.203 3.02875 14.8916 3.09881 14.4831L3.8963 9.83337L0.518072 6.54042C0.221313 6.25115 0.385068 5.74716 0.795179 5.68757L5.46377 5.00918L7.55163 0.778717C7.73504 0.407094 8.26496 0.407094 8.44837 0.778717L10.5362 5.00918L15.2048 5.68757C15.6149 5.74716 15.7787 6.25115 15.4819 6.54042L12.1037 9.83337L12.9012 14.4831C12.9713 14.8916 12.5425 15.203 12.1757 15.0102L8 12.8149Z" fill="#333333"/>
</g>
<defs>
<clipPath id="clip0_2761_1043">
<rect width="16" height="16" fill="white"/>
</clipPath>
</defs>
</svg>
