<svg width="16" height="16" viewBox="0 0 16 16" fill="none" xmlns="http://www.w3.org/2000/svg">
<g id="legacy / start-time" clip-path="url(#clip0_2761_481)">
<path id="icon" d="M8 0C12.4183 0 16 3.58172 16 8C16 12.4183 12.4183 16 8 16C3.58172 16 0 12.4183 0 8C0 3.58172 3.58172 0 8 0ZM8 1.33333C4.3181 1.33333 1.33333 4.3181 1.33333 8C1.33333 11.6819 4.3181 14.6667 8 14.6667C11.6819 14.6667 14.6667 11.6819 14.6667 8C14.6667 4.3181 11.6819 1.33333 8 1.33333ZM7.99945 2.66667C10.0236 2.66847 11.6643 4.30508 11.6667 6.3249C11.6667 8.28843 8.26997 12.9622 8.12599 13.1603L7.99945 13.3333L7.87401 13.1603C7.72894 12.9644 4.33333 8.28408 4.33333 6.3249C4.33574 4.30551 5.97571 2.66907 7.99945 2.66667ZM7.99873 4.25578C7.08018 4.25618 6.33581 4.99943 6.33601 5.91601C6.33621 6.83258 7.0809 7.57551 7.99945 7.57551C8.91808 7.57431 9.6623 6.8312 9.6629 5.91456C9.6623 4.99798 8.91728 4.25538 7.99873 4.25578Z" fill="#999999"/>
</g>
<defs>
<clipPath id="clip0_2761_481">
<rect width="16" height="16" fill="white"/>
</clipPath>
</defs>
</svg>
