<svg width="16" height="16" viewBox="0 0 16 16" fill="none" xmlns="http://www.w3.org/2000/svg">
<g id="legacy / deal-cancellation">
<g id="trading / trade / deal-cancellation">
<path id="icon" d="M13 0C14.6569 0 16 1.34315 16 3C16 4.32141 15.1457 5.44329 13.9592 5.84338C13.662 10.6011 11.7336 13.6744 8.17087 14.9699C8.06049 15.01 7.93951 15.01 7.82913 14.9699C3.94165 13.5563 2 10.026 2 4.5C2 4.26487 2.16383 4.0615 2.39358 4.01146C3.36579 3.79968 4.23768 3.48263 5.01057 3.06105C5.98979 2.52694 6.87088 1.88614 7.65487 1.13822C7.84805 0.953926 8.15195 0.953926 8.34513 1.13822C8.86751 1.63656 9.43299 2.08734 10.0419 2.49069C10.2857 1.07576 11.5172 0 13 0ZM8 2.178L7.68969 2.44659C7.01471 3.00959 6.28114 3.5071 5.48943 3.93895C4.97406 4.22005 4.4218 4.45836 3.83292 4.65402L3.3844 4.79278L3.003 4.895L3.01173 5.22076C3.16016 9.69302 4.71648 12.5339 7.67765 13.8327L7.92767 13.9374L8 13.965L8.07233 13.9374C11.0159 12.7624 12.6417 10.1431 12.9471 5.99859L13 6C11.582 6 10.3938 5.01621 10.0807 3.69393C9.57762 3.39677 9.09921 3.07103 8.64573 2.71721L8.31031 2.44659L8 2.178ZM8 4C8.24546 4 8.44961 4.17688 8.49194 4.41012L8.5 4.5V11.5C8.5 11.7761 8.27614 12 8 12C7.75454 12 7.55039 11.8231 7.50806 11.5899L7.5 11.5V4.5C7.5 4.22386 7.72386 4 8 4ZM13 1C11.8954 1 11 1.89543 11 3C11 4.10457 11.8954 5 13 5C14.1046 5 15 4.10457 15 3C15 1.89543 14.1046 1 13 1ZM13.5 2.5C13.7761 2.5 14 2.72386 14 3C14 3.24546 13.8231 3.44961 13.5899 3.49194L13.5 3.5H12.5C12.2239 3.5 12 3.27614 12 3C12 2.75454 12.1769 2.55039 12.4101 2.50806L12.5 2.5H13.5Z" fill="#333333"/>
</g>
</g>
</svg>
