<svg width="24" height="24" viewBox="0 0 24 24" fill="none" xmlns="http://www.w3.org/2000/svg">
<g id="legacy / avatar / 24px / test-2">
<path id="Subtract" fill-rule="evenodd" clip-rule="evenodd" d="M12 24C18.6274 24 24 18.6274 24 12C24 5.37258 18.6274 0 12 0C5.37258 0 0 5.37258 0 12C0 18.6274 5.37258 24 12 24ZM9.75633 14.528L10.5963 17H11.6523L8.72433 8.624H7.44033L4.51233 17H5.53233L6.37233 14.528H9.75633ZM8.02833 9.56H8.08833L9.50433 13.64H6.61233L8.02833 9.56ZM16.4838 8.624H13.0398V17H16.8438C17.1558 17 17.4438 16.94 17.7078 16.82C17.9718 16.692 18.1998 16.52 18.3918 16.304C18.5838 16.088 18.7318 15.832 18.8358 15.536C18.9478 15.24 19.0038 14.92 19.0038 14.576C19.0038 14.232 18.9438 13.94 18.8238 13.7C18.7118 13.452 18.5718 13.252 18.4038 13.1C18.2358 12.94 18.0558 12.824 17.8638 12.752C17.6798 12.68 17.5118 12.64 17.3598 12.632V12.56C17.4958 12.536 17.6438 12.492 17.8038 12.428C17.9638 12.356 18.1118 12.252 18.2478 12.116C18.3838 11.972 18.4958 11.792 18.5838 11.576C18.6718 11.36 18.7158 11.096 18.7158 10.784C18.7158 10.128 18.5158 9.604 18.1158 9.212C17.7238 8.82 17.1798 8.624 16.4838 8.624ZM16.5318 16.112H14.0478V13.112H16.5318C16.9638 13.112 17.3038 13.224 17.5518 13.448C17.7998 13.664 17.9238 13.984 17.9238 14.408V14.816C17.9238 15.24 17.7998 15.564 17.5518 15.788C17.3038 16.004 16.9638 16.112 16.5318 16.112ZM16.3638 12.248H14.0478V9.512H16.3638C16.7638 9.512 17.0758 9.612 17.2998 9.812C17.5238 10.012 17.6358 10.3 17.6358 10.676V11.084C17.6358 11.46 17.5238 11.748 17.2998 11.948C17.0758 12.148 16.7638 12.248 16.3638 12.248Z" fill="#FF444F"/>
</g>
</svg>
