<svg width="24" height="24" viewBox="0 0 24 24" fill="none" xmlns="http://www.w3.org/2000/svg">
<g id="legacy / fibonacci fan">
<path id="secondary" d="M5.61829 20.7267C5.68935 20.9043 5.61725 21.1071 5.45 21.2L4.52 21.57L4.38 21.59C4.19491 21.601 4.03028 21.4733 3.99489 21.2913C3.9595 21.1093 4.06429 20.9292 4.24 20.87L5.17 20.5C5.35519 20.4519 5.54724 20.549 5.61829 20.7267ZM4.76365 19.5352C4.86305 19.5521 4.95167 19.6078 5.01 19.69C5.06787 19.7706 5.09093 19.8711 5.074 19.9689C5.05708 20.0666 5.00159 20.1535 4.92 20.21L4.12 20.79C4.05707 20.8383 3.97925 20.863 3.9 20.86C3.78178 20.8608 3.67029 20.8051 3.6 20.71C3.48181 20.5401 3.51692 20.3075 3.68 20.18L4.48 19.6C4.5622 19.5416 4.66424 19.5183 4.76365 19.5352ZM7.55357 19.6454C7.64362 19.6848 7.7143 19.7584 7.75 19.85C7.78912 19.9427 7.78883 20.0472 7.74922 20.1397C7.7096 20.2321 7.63407 20.3044 7.54 20.34L6.61 20.7C6.56922 20.7336 6.52135 20.7575 6.47 20.77C6.31625 20.7734 6.1783 20.676 6.13 20.53C6.0805 20.4328 6.07516 20.319 6.11535 20.2176C6.15553 20.1162 6.23736 20.0369 6.34 20L7.27 19.64C7.36149 19.6041 7.46352 19.606 7.55357 19.6454ZM9.85 19.12C9.88593 19.2115 9.88399 19.3135 9.84459 19.4036C9.80519 19.4936 9.73158 19.5643 9.64 19.6L8.71 19.97C8.66239 19.9896 8.61146 19.9997 8.56 20C8.41147 19.9877 8.28129 19.8959 8.22 19.76C8.14447 19.5667 8.23795 19.3486 8.43 19.27L9.36 18.91C9.55327 18.8345 9.7714 18.928 9.85 19.12ZM6.56365 18.2352C6.66305 18.2521 6.75167 18.3078 6.81 18.39C6.86787 18.4706 6.89093 18.5711 6.874 18.6689C6.85708 18.7667 6.80159 18.8535 6.72 18.91L5.92 19.49C5.85707 19.5383 5.77925 19.563 5.7 19.56C5.58178 19.5608 5.47029 19.5051 5.4 19.41C5.28181 19.2401 5.31692 19.0075 5.48 18.88L6.28 18.3C6.36221 18.2416 6.46424 18.2183 6.56365 18.2352ZM11.893 18.3151C11.9601 18.489 11.891 18.686 11.73 18.78L10.8 19.15L10.66 19.17C10.5054 19.1687 10.367 19.0738 10.31 18.93C10.2746 18.8372 10.2779 18.7341 10.3193 18.6439C10.3607 18.5536 10.4366 18.4837 10.53 18.45L11.46 18.08C11.6425 18.0415 11.8259 18.1411 11.893 18.3151ZM14.04 17.47C14.11 17.6632 14.0181 17.8775 13.83 17.96L12.89 18.32C12.8424 18.3239 12.7946 18.317 12.75 18.3V18.35C12.5671 18.3552 12.408 18.2259 12.3755 18.0459C12.343 17.8659 12.4469 17.6891 12.62 17.63L13.55 17.26C13.7433 17.1845 13.9614 17.278 14.04 17.47ZM8.44981 16.9695C8.57146 17.023 8.65533 17.1374 8.66981 17.2695C8.68428 17.4016 8.62718 17.5314 8.52 17.61L7.72 18.19C7.65707 18.2383 7.57925 18.263 7.5 18.26C7.38178 18.2608 7.27029 18.2051 7.2 18.11C7.07631 17.9414 7.11206 17.7046 7.28 17.58L8.08 17.01C8.18718 16.9314 8.32815 16.916 8.44981 16.9695ZM16.0163 16.4956C16.1197 16.5782 16.1711 16.7097 16.1513 16.8406C16.1314 16.9714 16.0433 17.0818 15.92 17.13L14.99 17.5L14.85 17.53C14.6978 17.5213 14.563 17.4289 14.5 17.29C14.43 17.0969 14.5219 16.8825 14.71 16.8L15.65 16.44C15.7733 16.3918 15.9129 16.413 16.0163 16.4956ZM10.1567 15.6815C10.2544 15.6965 10.342 15.75 10.4 15.83C10.4617 15.9084 10.4881 16.0088 10.4729 16.1074C10.4577 16.2059 10.4024 16.2938 10.32 16.35L9.52 16.93C9.45634 16.9769 9.37903 17.0015 9.3 17C9.18139 17.0025 9.06918 16.9464 9 16.85C8.87631 16.6814 8.91206 16.4446 9.08 16.32L9.88 15.75C9.95938 15.6911 10.059 15.6664 10.1567 15.6815ZM18.23 15.83C18.2654 15.9228 18.2621 16.0259 18.2207 16.1162C18.1793 16.2064 18.1034 16.2763 18.01 16.31L17.08 16.68C17.0317 16.6807 16.9838 16.6705 16.94 16.65V16.7C16.7898 16.7018 16.6542 16.6101 16.6 16.47C16.5245 16.2767 16.618 16.0586 16.81 15.98L17.74 15.61C17.9361 15.5356 18.1554 15.634 18.23 15.83ZM20.2067 14.7639C20.3262 14.85 20.3852 14.9974 20.358 15.1422C20.3309 15.287 20.2226 15.403 20.08 15.44L19.15 15.8L19 15.83C18.8482 15.8274 18.7133 15.7322 18.66 15.59C18.6241 15.4985 18.626 15.3965 18.6654 15.3064C18.7048 15.2164 18.7784 15.1457 18.87 15.11L19.8 14.74C19.9287 14.6685 20.0872 14.6778 20.2067 14.7639ZM12.2 14.53C12.3215 14.6957 12.2857 14.9285 12.12 15.05L11.32 15.63C11.2517 15.6629 11.1747 15.6734 11.1 15.66V15.7C10.9814 15.7025 10.8692 15.6464 10.8 15.55C10.7379 15.47 10.7113 15.368 10.7264 15.2679C10.7415 15.1677 10.797 15.0781 10.88 15.02L11.68 14.45C11.8457 14.3285 12.0785 14.3643 12.2 14.53ZM21.763 14.3751C21.8301 14.549 21.761 14.746 21.6 14.84L21.24 14.98C21.2046 14.9925 21.1675 14.9993 21.13 15L21.1 15.01C20.9462 15.0134 20.8083 14.916 20.76 14.77C20.7209 14.6774 20.7212 14.5728 20.7608 14.4803C20.8004 14.3879 20.8759 14.3156 20.97 14.28L21.33 14.14C21.5125 14.1015 21.6959 14.2011 21.763 14.3751ZM13.7567 13.0815C13.8544 13.0965 13.942 13.15 14 13.23C14.1237 13.3986 14.0879 13.6354 13.92 13.76L13.12 14.33C13.0513 14.3617 12.9747 14.3721 12.9 14.36V14.4C12.779 14.4008 12.6645 14.3454 12.59 14.25C12.5321 14.1694 12.5091 14.0689 12.526 13.9711C12.5429 13.8734 12.5984 13.7865 12.68 13.73L13.48 13.15C13.5594 13.0911 13.659 13.0664 13.7567 13.0815ZM15.5567 11.7815C15.6544 11.7965 15.742 11.85 15.8 11.93C15.9182 12.0999 15.8831 12.3326 15.72 12.46L14.92 13.03C14.852 13.064 14.7756 13.0779 14.7 13.07V13.11C14.5776 13.1069 14.4634 13.048 14.39 12.95C14.3321 12.8694 14.3091 12.7689 14.326 12.6711C14.3429 12.5734 14.3984 12.4865 14.48 12.43L15.28 11.85C15.3594 11.7911 15.459 11.7664 15.5567 11.7815ZM17.3567 10.4815C17.4544 10.4965 17.542 10.55 17.6 10.63C17.7182 10.7999 17.6831 11.0326 17.52 11.16L16.72 11.73C16.652 11.764 16.5756 11.7779 16.5 11.77V11.81C16.3776 11.8069 16.2634 11.748 16.19 11.65C16.1321 11.5694 16.1091 11.4689 16.126 11.3711C16.1429 11.2734 16.1984 11.1865 16.28 11.13L17.08 10.55C17.1594 10.4911 17.259 10.4664 17.3567 10.4815ZM19.4 9.34001C19.5187 9.50845 19.4784 9.74126 19.31 9.86L18.51 10.44C18.4408 10.47 18.3647 10.4804 18.29 10.47V10.51C18.1704 10.5069 18.0592 10.4476 17.99 10.35C17.9321 10.2694 17.9091 10.1689 17.926 10.0711C17.9429 9.97336 17.9984 9.88648 18.08 9.83001L18.88 9.25001C19.0484 9.13126 19.2813 9.17156 19.4 9.34001ZM20.5574 8.1271C20.6559 8.14226 20.7438 8.19763 20.8 8.28001C20.8589 8.35938 20.8836 8.45902 20.8685 8.5567C20.8535 8.65439 20.8 8.742 20.72 8.80001L20.31 9.10001C20.2449 9.14393 20.1685 9.16823 20.09 9.17001C19.9704 9.16688 19.8592 9.1076 19.79 9.01001C19.7321 8.92939 19.7091 8.82892 19.726 8.73114C19.7429 8.63336 19.7984 8.54648 19.88 8.49001L20.28 8.20001C20.3584 8.13833 20.4588 8.11193 20.5574 8.1271Z" fill="#FF444F"/>
<path id="primary" d="M6.02381 2.78307C6.14362 2.24394 6.6778 1.90401 7.21693 2.02381C7.75606 2.14362 8.096 2.6778 7.97619 3.21693L4.5466 18.6508L19.14 3.16C19.2531 3.00081 19.4486 2.92205 19.6405 2.95834C19.8324 2.99463 19.9856 3.13932 20.0328 3.32883C20.0799 3.51833 20.0125 3.71797 19.86 3.84L4.6366 19.9998L21 20C21.5128 20 21.9355 20.386 21.9933 20.8834L22 21C22 21.5523 21.5523 22 21 22H3C2.36025 22 1.88503 21.4076 2.02381 20.7831L6.02381 2.78307Z" fill="#85ACB0"/>
</g>
</svg>
