<svg width="16" height="16" viewBox="0 0 16 16" fill="none" xmlns="http://www.w3.org/2000/svg">
<g id="legacy / market-cryptocurrencies">
<path id="icon" fill-rule="evenodd" clip-rule="evenodd" d="M10.75 0V2.66614C11.4308 3.01772 12.0349 3.49534 12.5318 4.0676L13.1429 4.77133L11.0023 6.91191L10.3009 6.07482C9.74904 5.41615 8.92359 5 8 5C6.34315 5 5 6.34315 5 8C5 9.65685 6.34315 11 8 11C8.92359 11 9.74904 10.5838 10.3009 9.92518L11.0023 9.08809L13.1429 11.2287L12.5318 11.9324C12.0349 12.5047 11.4308 12.9823 10.75 13.3339V16H8.25V13.9949C8.16705 13.9983 8.08371 14 8 14C7.91629 14 7.83295 13.9983 7.75 13.9949V16H5.25V13.3338C3.32071 12.3371 2 10.3238 2 8C2 5.67617 3.32071 3.66286 5.25 2.6662V0H7.75V2.00513C7.83295 2.00172 7.91629 2 8 2C8.08371 2 8.16705 2.00172 8.25 2.00513V0H10.75ZM8.75 3.05588C8.58581 3.03118 8.41901 3.01446 8.25 3.00614C8.21696 3.00451 8.18384 3.00321 8.15063 3.00223C8.1006 3.00075 8.05039 3 8 3C7.91617 3 7.83282 3.00206 7.75 3.00614C7.58099 3.01446 7.41419 3.03118 7.25 3.05588C7.08054 3.08137 6.91386 3.11536 6.75042 3.15741L6.75 1H6.25V3.3148C6.07868 3.37882 5.91182 3.45197 5.75 3.53365C4.11871 4.35705 3 6.04788 3 8C3 9.95212 4.11871 11.6429 5.75 12.4664C5.8494 12.5165 5.9507 12.5635 6.05377 12.6071C6.1185 12.6345 6.18392 12.6605 6.25 12.6852V15H6.75V12.8425C6.91358 12.8846 7.08039 12.9186 7.25 12.9441C7.41419 12.9688 7.58099 12.9855 7.75 12.9939C7.83282 12.9979 7.91617 13 8 13C8.04813 13 8.0961 12.9993 8.1439 12.998C8.17936 12.997 8.21473 12.9956 8.25 12.9939C8.41901 12.9855 8.58581 12.9688 8.75 12.9441C8.91961 12.9186 9.08642 12.8846 9.25 12.8425V15H9.75V12.6852C9.92132 12.6212 10.0882 12.548 10.25 12.4664C10.5328 12.3236 10.8001 12.1548 11.0489 11.9631C11.1267 11.9032 11.2027 11.841 11.2767 11.7767C11.4549 11.622 11.622 11.4549 11.7767 11.2767L11.0674 10.5674C10.9158 10.7484 10.7484 10.9158 10.5674 11.0674C9.89941 11.6271 9.04584 11.9727 8.11237 11.9985C8.07506 11.9995 8.0376 12 8 12C7.97832 12 7.95669 11.9998 7.93511 11.9995C5.7559 11.9648 4 10.1875 4 8C4 5.81638 5.74973 4.04142 7.92362 4.00071C7.94901 4.00024 7.97447 4 8 4C8.02168 4 8.04331 4.00017 8.06489 4.00051C9.01689 4.01566 9.8881 4.36338 10.5674 4.93257C10.7484 5.08422 10.9158 5.25159 11.0674 5.43258L11.7767 4.72327C11.622 4.5451 11.4549 4.37797 11.2767 4.22326C11.2027 4.15895 11.1267 4.09678 11.0489 4.03686C10.8001 3.84516 10.5328 3.67637 10.25 3.53365C10.0882 3.45197 9.92132 3.37882 9.75 3.3148V1H9.25V3.15752C9.08642 3.11542 8.91961 3.08139 8.75 3.05588Z" fill="#333333"/>
</g>
</svg>
