<svg width="24" height="24" viewBox="0 0 24 24" fill="none" xmlns="http://www.w3.org/2000/svg">
<g id="legacy / zig-zag">
<path id="icon - red" d="M5.06367 2.6489L2.06367 10.6489C1.86975 11.166 2.13176 11.7424 2.64888 11.9364C3.166 12.1303 3.74241 11.8683 3.93633 11.3512L6.93633 3.35115C7.13025 2.83403 6.86824 2.25762 6.35112 2.0637C5.834 1.86978 5.25759 2.13178 5.06367 2.6489Z" fill="#FF444F"/>
<path id="icon - blue" d="M18.8321 20.4453L6.83205 2.44528C6.5257 1.98576 5.90483 1.86158 5.4453 2.16793C4.98577 2.47429 4.8616 3.09516 5.16795 3.55468L17.1679 21.5547C17.4743 22.0142 18.0952 22.1384 18.5547 21.832C19.0142 21.5257 19.1384 20.9048 18.8321 20.4453Z" fill="#85ACB0"/>
<path id="icon - red_2" d="M20.1425 15.4855L17.1425 20.4855C16.8584 20.9591 17.0119 21.5734 17.4855 21.8575C17.9591 22.1417 18.5733 21.9881 18.8575 21.5145L21.8575 16.5145C22.1416 16.0409 21.9881 15.4267 21.5145 15.1425C21.0409 14.8584 20.4267 15.012 20.1425 15.4855Z" fill="#FF444F"/>
</g>
</svg>
