<svg width="16" height="16" viewBox="0 0 16 16" fill="none" xmlns="http://www.w3.org/2000/svg">
<g id="legacy / theme-dark" clip-path="url(#clip0_2943_316)">
<path id="icon" d="M7.87453 15.8596C4.26453 15.8596 1.08453 13.4196 0.154535 9.92957C0.104535 9.75957 0.154535 9.56957 0.284535 9.44957C0.414535 9.32957 0.594535 9.27957 0.764535 9.31957C5.37453 10.5496 9.57453 7.01957 9.57453 2.56957C9.57453 1.97957 9.49453 1.36957 9.32453 0.759568C9.27453 0.589568 9.32453 0.399568 9.45453 0.279568C9.58453 0.149568 9.76453 0.099568 9.93454 0.149568C13.4245 1.08957 15.8645 4.25957 15.8645 7.86957C15.8645 12.2796 12.2745 15.8696 7.86453 15.8696L7.87453 15.8596ZM1.38453 10.4696C2.43453 13.0896 4.99453 14.8596 7.87453 14.8596C11.7345 14.8596 14.8745 11.7196 14.8745 7.85957C14.8745 4.97957 13.1045 2.42957 10.4845 1.36957C10.5445 1.76957 10.5745 2.16957 10.5745 2.55957C10.5745 7.35957 6.30453 11.2496 1.38453 10.4696Z" fill="#333333"/>
</g>
<defs>
<clipPath id="clip0_2943_316">
<rect width="16" height="16" fill="white"/>
</clipPath>
</defs>
</svg>
