<svg width="24" height="24" viewBox="0 0 24 24" fill="none" xmlns="http://www.w3.org/2000/svg">
<g id="legacy / avatar / 24px">
<rect width="24" height="24" rx="12" fill="#FF444F"/>
<path id="AB" d="M10.4713 17L9.63133 14.528H6.24733L5.40733 17H4.38733L7.31533 8.624H8.59933L11.5273 17H10.4713ZM7.96333 9.56H7.90333L6.48733 13.64H9.37933L7.96333 9.56ZM12.9148 8.624H16.3588C17.0548 8.624 17.5988 8.82 17.9908 9.212C18.3908 9.604 18.5908 10.128 18.5908 10.784C18.5908 11.096 18.5468 11.36 18.4588 11.576C18.3708 11.792 18.2588 11.972 18.1228 12.116C17.9868 12.252 17.8388 12.356 17.6788 12.428C17.5188 12.492 17.3708 12.536 17.2348 12.56V12.632C17.3868 12.64 17.5548 12.68 17.7388 12.752C17.9308 12.824 18.1108 12.94 18.2788 13.1C18.4468 13.252 18.5868 13.452 18.6988 13.7C18.8188 13.94 18.8788 14.232 18.8788 14.576C18.8788 14.92 18.8228 15.24 18.7108 15.536C18.6068 15.832 18.4588 16.088 18.2668 16.304C18.0748 16.52 17.8468 16.692 17.5828 16.82C17.3188 16.94 17.0308 17 16.7188 17H12.9148V8.624ZM13.9228 16.112H16.4068C16.8388 16.112 17.1788 16.004 17.4268 15.788C17.6748 15.564 17.7988 15.24 17.7988 14.816V14.408C17.7988 13.984 17.6748 13.664 17.4268 13.448C17.1788 13.224 16.8388 13.112 16.4068 13.112H13.9228V16.112ZM13.9228 12.248H16.2388C16.6388 12.248 16.9508 12.148 17.1748 11.948C17.3988 11.748 17.5108 11.46 17.5108 11.084V10.676C17.5108 10.3 17.3988 10.012 17.1748 9.812C16.9508 9.612 16.6388 9.512 16.2388 9.512H13.9228V12.248Z" fill="white"/>
</g>
</svg>
