<svg width="16" height="16" viewBox="0 0 16 16" fill="none" xmlns="http://www.w3.org/2000/svg">
<g id="legacy / help-centre" clip-path="url(#clip0_2761_1063)">
<path id="icon" d="M8 0C12.4183 0 16 3.58172 16 8C16 12.4183 12.4183 16 8 16C3.58172 16 0 12.4183 0 8C0 3.58172 3.58172 0 8 0ZM8 1C4.13401 1 1 4.13401 1 8C1 11.866 4.13401 15 8 15C11.866 15 15 11.866 15 8C15 4.13401 11.866 1 8 1ZM7.80576 11.2133C8.11271 11.2133 8.33573 11.2872 8.47482 11.4349C8.61391 11.5826 8.68345 11.7765 8.68345 12.0166V12.1967C8.68345 12.4368 8.61391 12.6307 8.47482 12.7784C8.33573 12.9261 8.11271 13 7.80576 13C7.4988 13 7.27578 12.9261 7.13669 12.7784C6.9976 12.6307 6.92806 12.4368 6.92806 12.1967V12.0166C6.92806 11.7765 6.9976 11.5826 7.13669 11.4349C7.27578 11.2872 7.4988 11.2133 7.80576 11.2133ZM8.10791 3C9 3 9.70503 3.23545 10.223 3.70637C10.741 4.17729 11 4.8144 11 5.61773C11 6.06094 10.9209 6.44644 10.7626 6.77424C10.6043 7.10203 10.4005 7.38135 10.1511 7.61219C9.90168 7.84303 9.61871 8.0277 9.30216 8.16621C8.98561 8.30471 8.66907 8.40166 8.35252 8.45706V9.95291H7.2446V7.68144C8.03118 7.64451 8.64748 7.45984 9.09352 7.12742C9.53957 6.79501 9.76259 6.33795 9.76259 5.75623V5.56233C9.76259 5.09141 9.60911 4.71514 9.30216 4.43352C8.9952 4.15189 8.58274 4.01108 8.06475 4.01108C7.50839 4.01108 7.06475 4.16343 6.73381 4.46814C6.40288 4.77285 6.17986 5.16066 6.06475 5.63158L5 5.24377C5.08633 4.94829 5.21343 4.66436 5.38129 4.39197C5.54916 4.11957 5.76019 3.8795 6.01439 3.67175C6.26859 3.46399 6.56834 3.30009 6.91367 3.18006C7.25899 3.06002 7.65707 3 8.10791 3Z" fill="#333333"/>
</g>
<defs>
<clipPath id="clip0_2761_1063">
<rect width="16" height="16" fill="white"/>
</clipPath>
</defs>
</svg>
