<svg width="16" height="16" viewBox="0 0 16 16" fill="none" xmlns="http://www.w3.org/2000/svg">
<g id="legacy / crosshair-tooltip" clip-path="url(#clip0_2761_487)">
<path id="icon" d="M8 0C8.55229 0 9 0.447715 9 1L9.00091 1.57659C11.7896 2.0076 13.993 4.21123 14.4236 7.00009L15 7C15.5523 7 16 7.44772 16 8C16 8.55229 15.5523 9 15 9L14.4234 9.00091C13.9924 11.7893 11.7893 13.9924 9.00091 14.4234L9 15C9 15.5523 8.55229 16 8 16C7.44772 16 7 15.5523 7 15L7.00009 14.4236C4.21123 13.993 2.0076 11.7896 1.57659 9.00091L1 9C0.447715 9 0 8.55229 0 8C0 7.44772 0.447715 7 1 7L1.57643 7.00009C2.00708 4.2109 4.2109 2.00708 7.00009 1.57643L7 1C7 0.447715 7.44772 0 8 0ZM8 3.5C5.51472 3.5 3.5 5.51472 3.5 8C3.5 10.4853 5.51472 12.5 8 12.5C10.4853 12.5 12.5 10.4853 12.5 8C12.5 5.51472 10.4853 3.5 8 3.5ZM6 7C6.55228 7 7 7.44772 7 8C7 8.55229 6.55228 9 6 9C5.44772 9 5 8.55229 5 8C5 7.44772 5.44772 7 6 7ZM10 7C10.5523 7 11 7.44772 11 8C11 8.55229 10.5523 9 10 9H9C8.44771 9 8 8.55229 8 8C8 7.44772 8.44771 7 9 7H10Z" fill="#333333"/>
</g>
<defs>
<clipPath id="clip0_2761_487">
<rect width="16" height="16" fill="white"/>
</clipPath>
</defs>
</svg>
