<svg width="16" height="16" viewBox="0 0 16 16" fill="none" xmlns="http://www.w3.org/2000/svg">
<g id="legacy / market-forex" clip-path="url(#clip0_2761_585)">
<path id="icon" d="M9.5 3C9.67563 3 9.83838 3.09215 9.92875 3.24275L11 5.028L12.0713 3.24275C12.1466 3.11725 12.2721 3.03234 12.4135 3.00752L12.5 3H15.5C15.912 3 16.1472 3.47038 15.9 3.8L13.102 7.531L15.9287 12.2428C16.1133 12.5504 15.923 12.9353 15.5869 12.9927L15.5 13H12.5C12.3106 13 12.1375 12.893 12.0528 12.7236L11 10.618L9.94721 12.7236C9.87663 12.8648 9.74464 12.9626 9.593 12.9913L9.5 13H6.5C6.11135 13 5.8713 12.576 6.07125 12.2428L8.898 7.531L7.48032 5.63938C7.41997 5.8477 7.22777 6 7 6H3.5V7H6C6.24546 7 6.44961 7.17688 6.49194 7.41012L6.5 7.5V9.5C6.5 9.77614 6.27614 10 6 10H3.5V12.5C3.5 12.7455 3.32312 12.9496 3.08988 12.9919L3 13H1C0.723858 13 0.5 12.7761 0.5 12.5V3.5C0.5 3.22386 0.723858 3 1 3H9.5ZM6.249 4H1.5V12H2.5V9.5C2.5 9.25454 2.67688 9.05039 2.91012 9.00806L3 9H5.5V8H3C2.75454 8 2.55039 7.82312 2.50806 7.58988L2.5 7.5V5.5C2.5 5.22386 2.72386 5 3 5H6.5V4.335L6.249 4ZM9.217 4H7.5V4.001L9.9 7.2C9.98364 7.31152 10.0153 7.45015 9.99317 7.58248L9.96649 7.68003L9.92875 7.75725L7.382 12H9.19L10.5528 9.27639C10.7229 8.93622 11.1841 8.91005 11.3989 9.19789L11.4472 9.27639L12.809 12H14.617L12.0713 7.75725C11.9816 7.60783 11.9771 7.42464 12.0545 7.27293L12.1 7.2L14.5 4H12.782L11.4287 6.25725C11.2507 6.55395 10.8417 6.57867 10.6252 6.33142L10.5713 6.25725L9.217 4Z" fill="#333333"/>
</g>
<defs>
<clipPath id="clip0_2761_585">
<rect width="16" height="16" fill="white"/>
</clipPath>
</defs>
</svg>
