<svg width="16" height="16" viewBox="0 0 16 16" fill="none" xmlns="http://www.w3.org/2000/svg">
<g id="legacy / menu-hamburger / 1px">
<path id="icon" d="M13.5385 12C13.7934 12 14 12.2239 14 12.5C14 12.7761 13.7934 13 13.5385 13H2.46154C2.20664 13 2 12.7761 2 12.5C2 12.2239 2.20664 12 2.46154 12H13.5385ZM13.5385 7.5C13.7934 7.5 14 7.72386 14 8C14 8.27614 13.7934 8.5 13.5385 8.5H2.46154C2.20664 8.5 2 8.27614 2 8C2 7.72386 2.20664 7.5 2.46154 7.5H13.5385ZM13.5385 3C13.7934 3 14 3.22386 14 3.5C14 3.77614 13.7934 4 13.5385 4H2.46154C2.20664 4 2 3.77614 2 3.5C2 3.22386 2.20664 3 2.46154 3H13.5385Z" fill="#333333"/>
</g>
</svg>
