<svg width="16" height="16" viewBox="0 0 16 16" fill="none" xmlns="http://www.w3.org/2000/svg">
<g id="legacy / logout / 2px" clip-path="url(#clip0_2761_855)">
<g id="icon">
<path d="M0 3C0 1.34315 1.34315 0 3 0H8C9.65685 0 11 1.34315 11 3V4C11 4.55228 10.5523 5 10 5C9.44771 5 9 4.55228 9 4V3C9 2.44772 8.55228 2 8 2H3C2.44772 2 2 2.44772 2 3V13C2 13.5523 2.44772 14 3 14H8C8.55228 14 9 13.5523 9 13V12C9 11.4477 9.44771 11 10 11C10.5523 11 11 11.4477 11 12V13C11 14.6569 9.65685 16 8 16H3C1.34315 16 0 14.6569 0 13V3Z" fill="#333333"/>
<path d="M5.25 8C5.25 7.58579 5.58579 7.25 6 7.25H13.1893L11.9697 6.03033C11.6768 5.73744 11.6768 5.26256 11.9697 4.96967C12.2626 4.67678 12.7374 4.67678 13.0303 4.96967L15.5303 7.46967C15.8232 7.76256 15.8232 8.23744 15.5303 8.53033L13.0303 11.0303C12.7374 11.3232 12.2626 11.3232 11.9697 11.0303C11.6768 10.7374 11.6768 10.2626 11.9697 9.96967L13.1893 8.75H6C5.58579 8.75 5.25 8.41421 5.25 8Z" fill="#333333"/>
</g>
</g>
<defs>
<clipPath id="clip0_2761_855">
<rect width="16" height="16" fill="white"/>
</clipPath>
</defs>
</svg>
