<svg width="24" height="24" viewBox="0 0 24 24" fill="none" xmlns="http://www.w3.org/2000/svg">
<g id="legacy / ichimoku">
<path id="colour - red" opacity="0.31" d="M6.97 6.87L4.5 3H3L2 4V21L3.35 21.5L9.49 13.35L6.97 6.87Z" fill="#FF444F"/>
<path id="colour - blue" opacity="0.3" d="M19.5 3L18.35 8H15.25L13 13L9.98 12.75L9.49 13.35L10.9 19.39L14 16.27L17 20L19.43 19.39L20.75 21.5L22 21V3H19.5Z" fill="#85ACB0"/>
<path id="icon - red" d="M5.46482 5L7.07187 7.41058L10.0299 19.2425C10.2184 19.9966 11.1575 20.2567 11.7071 19.7071L13.8918 17.5224L16.2 20.6C16.49 20.9866 17.0149 21.1106 17.4472 20.8944L18.8025 20.2168L20.2929 21.7071C20.6834 22.0976 21.3166 22.0976 21.7071 21.7071C22.0976 21.3166 22.0976 20.6834 21.7071 20.2929L19.7071 18.2929C19.4027 17.9885 18.9378 17.9131 18.5528 18.1056L17.2993 18.7323L14.8 15.4C14.4349 14.9132 13.7232 14.8626 13.2929 15.2929L11.5418 17.044L8.97014 6.75746C8.94234 6.64626 8.89563 6.54067 8.83205 6.4453L6.83205 3.4453C6.64658 3.1671 6.33435 3 6 3H3C2.44772 3 2 3.44772 2 4C2 4.55228 2.44772 5 3 5H5.46482Z" fill="#FF444F"/>
<path id="icon - blue" d="M10.0948 13.4584L12.8107 13.9819C13.2815 14.0727 13.7504 13.8165 13.9285 13.3714L15.677 9H18C18.4767 9 18.8871 8.66354 18.9806 8.19612L19.8198 4H21C21.5523 4 22 3.55228 22 3C22 2.44772 21.5523 2 21 2H19C18.5233 2 18.1129 2.33646 18.0194 2.80388L17.1802 7H15C14.5911 7 14.2234 7.24895 14.0715 7.62861L12.3783 11.8617L9.86929 11.3781C9.4988 11.3067 9.11966 11.4498 8.88888 11.7483L2.20888 20.3883C1.87107 20.8253 1.95142 21.4533 2.38835 21.7911C2.82527 22.1289 3.45332 22.0486 3.79113 21.6117L10.0948 13.4584Z" fill="#85ACB0"/>
</g>
</svg>
