<svg width="16" height="16" viewBox="0 0 16 16" fill="none" xmlns="http://www.w3.org/2000/svg">
<g id="legacy / live-chat / filled">
<g id="icon">
<path d="M4 10H10C11.6569 10 13 8.65685 13 7V5H13.5C14.8807 5 16 6.11929 16 7.5V14.5C16 14.7022 15.8782 14.8845 15.6913 14.9619C15.5045 15.0393 15.2894 14.9966 15.1464 14.8536L13.2929 13H6.5C5.11929 13 4 11.8807 4 10.5V10Z" fill="#333333"/>
<path fill-rule="evenodd" clip-rule="evenodd" d="M0 3.5C0 2.11929 1.11929 1 2.5 1H9.5C10.8807 1 12 2.11929 12 3.5V6.5C12 7.88071 10.8807 9 9.5 9H2.70711L0.853553 10.8536C0.710554 10.9966 0.495495 11.0393 0.308658 10.9619C0.121821 10.8845 0 10.7022 0 10.5V3.5ZM3 3.5C3 3.22386 3.22386 3 3.5 3H8.5C8.77614 3 9 3.22386 9 3.5C9 3.77614 8.77614 4 8.5 4H3.5C3.22386 4 3 3.77614 3 3.5ZM3.5 5C3.22386 5 3 5.22386 3 5.5C3 5.77614 3.22386 6 3.5 6H5.5C5.77614 6 6 5.77614 6 5.5C6 5.22386 5.77614 5 5.5 5H3.5Z" fill="#333333"/>
</g>
</g>
</svg>
