<svg width="16" height="16" viewBox="0 0 16 16" fill="none" xmlns="http://www.w3.org/2000/svg">
<g id="legacy / market-commodities" clip-path="url(#clip0_2761_593)">
<path id="icon" d="M10 3C10.1894 3 10.3625 3.107 10.4472 3.27639L12.3084 7H13.5C13.6578 7 13.8044 7.07431 13.8978 7.1971L13.9472 7.27639L15.9472 11.2764C16.1134 11.6088 15.8717 12 15.5 12H0.500004C0.128313 12 -0.113435 11.6088 0.0527906 11.2764L2.05279 7.27639C2.13749 7.107 2.31062 7 2.5 7H3.69036L5.55279 3.27639C5.62337 3.13523 5.75536 3.0374 5.907 3.00871L6 3H10ZM13.19 8H9.846L8.721 11H14.69L13.19 8ZM6.153 8H2.809L1.309 11H7.278L6.153 8ZM8.77836 8H7.22036L7.99936 10.076L8.77836 8ZM9.69 4H6.309L4.809 7H11.19L9.69 4Z" fill="#333333"/>
</g>
<defs>
<clipPath id="clip0_2761_593">
<rect width="16" height="16" fill="white"/>
</clipPath>
</defs>
</svg>
