<svg width="16" height="16" viewBox="0 0 16 16" fill="none" xmlns="http://www.w3.org/2000/svg">
<g id="legacy / announcement" clip-path="url(#clip0_2761_1125)">
<path id="icon" fill-rule="evenodd" clip-rule="evenodd" d="M16 8C16 12.418 12.418 16 8 16C3.582 16 0 12.418 0 8C0 3.582 3.582 0 8 0C12.418 0 16 3.582 16 8ZM5.9756 10.4229C5.8636 10.4229 5.7506 10.4079 5.6406 10.3809C5.2886 10.2919 4.9946 10.0709 4.8096 9.7609C4.7506 9.6629 4.7066 9.5599 4.6746 9.4519C5.4216 9.5519 6.2826 9.6829 7.0846 9.8439C6.8366 10.1979 6.4276 10.4229 5.9756 10.4229ZM11.2186 3.4999C10.7956 3.4999 10.4376 3.8269 10.4376 4.2289V4.5489C10.0326 4.9389 9.0606 5.6029 7.4386 6.0779C6.3216 6.4059 4.3746 6.5929 4.0196 6.6239C4.0016 6.6009 3.9886 6.5779 3.9656 6.5569C3.8616 6.4559 3.7236 6.3999 3.5716 6.3999C3.2656 6.3999 3.0166 6.6359 3.0146 6.9259L2.99957 9.1049C2.9986 9.2459 3.0566 9.3859 3.1616 9.4859C3.2666 9.5879 3.4066 9.6509 3.5556 9.6509H3.5586C3.7116 9.6509 3.8516 9.5849 3.9526 9.4889C3.9826 9.7579 4.0736 10.0159 4.2216 10.2539C4.4946 10.6899 4.9286 10.9959 5.4456 11.1209C5.6066 11.1589 5.7716 11.1789 5.9366 11.1789C6.7476 11.1789 7.4446 10.7139 7.7516 10.0199C9.1836 10.4859 10.0326 11.0889 10.4366 11.4509V11.7719C10.4366 12.1729 10.7956 12.4999 11.2186 12.4999C11.6406 12.4999 11.9996 12.1729 11.9996 11.7719V4.2289C11.9996 3.8269 11.6406 3.4999 11.2186 3.4999Z" fill="#4BB4B3"/>
</g>
<defs>
<clipPath id="clip0_2761_1125">
<rect width="16" height="16" fill="white"/>
</clipPath>
</defs>
</svg>
