<svg width="16" height="16" viewBox="0 0 16 16" fill="none" xmlns="http://www.w3.org/2000/svg">
<g id="legacy / trade-type-lookbacks" clip-path="url(#clip0_2761_607)">
<path id="icon" d="M9.5 0C13.0899 0 16 2.91015 16 6.5C16 10.0899 13.0899 13 9.5 13H1.707L3.85355 15.1464C4.02712 15.32 4.0464 15.5894 3.91141 15.7843L3.85355 15.8536C3.65829 16.0488 3.34171 16.0488 3.14645 15.8536L0.146447 12.8536C0.142359 12.8495 0.138357 12.8453 0.13444 12.8411C0.122939 12.8288 0.11192 12.8158 0.101583 12.8021C0.0927745 12.7906 0.0846094 12.7788 0.077007 12.7668C0.0700193 12.7557 0.0632933 12.744 0.0570343 12.7321C0.0497496 12.7183 0.0433515 12.7045 0.0376106 12.6906C0.0324085 12.678 0.0275581 12.6647 0.0232684 12.6512C0.018448 12.6358 0.0143961 12.6205 0.0110857 12.605C0.00382516 12.5713 0 12.5361 0 12.5L0.00546187 12.5739C0.0023875 12.5532 0.000610998 12.5324 0.000132377 12.5115L0 12.5C0 12.4963 4.12845e-05 12.4925 0.000123424 12.4888C0.000554365 12.4683 0.0023382 12.4471 0.00546187 12.4261C0.00702791 12.4153 0.00890403 12.405 0.0110922 12.3948C0.0143961 12.3795 0.018448 12.3642 0.0232413 12.349C0.0275581 12.3353 0.0324085 12.322 0.0377922 12.309C0.0433515 12.2955 0.0497496 12.2817 0.056805 12.2682C0.0632933 12.256 0.0700193 12.2443 0.077188 12.233C0.0964658 12.2024 0.119612 12.1733 0.146447 12.1464L0.101583 12.1979C0.11192 12.1842 0.122939 12.1712 0.134589 12.1587L0.146447 12.1464L3.14645 9.14645C3.34171 8.95118 3.65829 8.95118 3.85355 9.14645C4.04882 9.34171 4.04882 9.65829 3.85355 9.85355L1.707 12H9.5C12.4635 12 14.8795 9.65622 14.9956 6.72121L15 6.5C15 3.46243 12.5376 1 9.5 1H4.5C4.22386 1 4 0.776142 4 0.5C4 0.223858 4.22386 0 4.5 0H9.5Z" fill="#333333"/>
</g>
<defs>
<clipPath id="clip0_2761_607">
<rect width="16" height="16" fill="white"/>
</clipPath>
</defs>
</svg>
