<svg width="24" height="24" viewBox="0 0 24 24" fill="none" xmlns="http://www.w3.org/2000/svg">
<g id="legacy / download">
<path id="icon" d="M5.5 16C5.77614 16 6 16.2239 6 16.5V18H18V16.5C18 16.2239 18.2239 16 18.5 16H21.5C21.7761 16 22 16.2239 22 16.5V21.5C22 21.7761 21.7761 22 21.5 22H2.5C2.22386 22 2 21.7761 2 21.5V16.5C2 16.2239 2.22386 16 2.5 16H5.5ZM5 17H3V21H21V17H19V18.5C19 18.7761 18.7761 19 18.5 19H5.5C5.22386 19 5 18.7761 5 18.5V17ZM13.5 2C13.7761 2 14 2.22386 14 2.5V10H16.5C16.912 10 17.1472 10.4704 16.9 10.8L12.4 16.8C12.2 17.0667 11.8 17.0667 11.6 16.8L7.1 10.8C6.85279 10.4704 7.08798 10 7.5 10H10V2.5C10 2.22386 10.2239 2 10.5 2H13.5ZM13 3H11V10.5C11 10.7761 10.7761 11 10.5 11H8.5L12 15.6667L15.5 11H13.5C13.2239 11 13 10.7761 13 10.5V3Z" fill="#333333"/>
</g>
</svg>
