<svg width="16" height="16" viewBox="0 0 16 16" fill="none" xmlns="http://www.w3.org/2000/svg">
<g id="legacy / restore / 1px">
<path id="icon" d="M14.5 10C14.7761 10 15 10.2239 15 10.5C15 10.7761 14.7761 11 14.5 11H11V14.5C11 14.7761 10.7761 15 10.5 15C10.2239 15 10 14.7761 10 14.5V10.5C10 10.2239 10.2239 10 10.5 10H14.5ZM5.5 10C5.77614 10 6 10.2239 6 10.5V14.5C6 14.7761 5.77614 15 5.5 15C5.22386 15 5 14.7761 5 14.5V11H1.5C1.22386 11 1 10.7761 1 10.5C1 10.2239 1.22386 10 1.5 10H5.5ZM5.5 1C5.77614 1 6 1.22386 6 1.5V5.5C6 5.77614 5.77614 6 5.5 6H1.5C1.22386 6 1 5.77614 1 5.5C1 5.22386 1.22386 5 1.5 5H5V1.5C5 1.22386 5.22386 1 5.5 1ZM10.5 1C10.7761 1 11 1.22386 11 1.5V5H14.5C14.7761 5 15 5.22386 15 5.5C15 5.77614 14.7761 6 14.5 6H10.5C10.2239 6 10 5.77614 10 5.5V1.5C10 1.22386 10.2239 1 10.5 1Z" fill="#333333"/>
</g>
</svg>
