<svg width="16" height="16" viewBox="0 0 16 16" fill="none" xmlns="http://www.w3.org/2000/svg">
<g id="legacy / open-link / 2px" clip-path="url(#clip0_2761_966)">
<g id="icon">
<path d="M0 3C0 1.34315 1.34315 0 3 0H5C5.55228 0 6 0.447715 6 1C6 1.55228 5.55228 2 5 2H3C2.44772 2 2 2.44772 2 3V13C2 13.5523 2.44772 14 3 14H13C13.5523 14 14 13.5523 14 13V11C14 10.4477 14.4477 10 15 10C15.5523 10 16 10.4477 16 11V13C16 14.6569 14.6569 16 13 16H3C1.34315 16 0 14.6569 0 13V3Z" fill="#333333"/>
<path d="M10 1C10 0.447715 10.4477 0 11 0H14C15.1046 0 16 0.895431 16 2V5C16 5.55228 15.5523 6 15 6C14.4477 6 14 5.55228 14 5V3.41421L8.70711 8.70711C8.31658 9.09763 7.68342 9.09763 7.29289 8.70711C6.90237 8.31658 6.90237 7.68342 7.29289 7.29289L12.5858 2H11C10.4477 2 10 1.55228 10 1Z" fill="#333333"/>
</g>
</g>
<defs>
<clipPath id="clip0_2761_966">
<rect width="16" height="16" fill="white"/>
</clipPath>
</defs>
</svg>
