<svg width="16" height="16" viewBox="0 0 16 16" fill="none" xmlns="http://www.w3.org/2000/svg">
<g id="legacy / open-link / 1px">
<path id="Union" fill-rule="evenodd" clip-rule="evenodd" d="M1 2.5C1 1.67157 1.67157 1 2.5 1H5.5C5.77614 1 6 1.22386 6 1.5C6 1.77614 5.77614 2 5.5 2H2.5C2.22386 2 2 2.22386 2 2.5V13.5C2 13.7761 2.22386 14 2.5 14H13.5C13.7761 14 14 13.7761 14 13.5V10.5C14 10.2239 14.2239 10 14.5 10C14.7761 10 15 10.2239 15 10.5V13.5C15 14.3284 14.3284 15 13.5 15H2.5C1.67157 15 1 14.3284 1 13.5V2.5ZM10 1.5C10 1.22386 10.2239 1 10.5 1H13.5C14.3284 1 15 1.67157 15 2.5V5.5C15 5.77614 14.7761 6 14.5 6C14.2239 6 14 5.77614 14 5.5V2.70711L8.85355 7.85355C8.65829 8.04882 8.34171 8.04882 8.14645 7.85355C7.95118 7.65829 7.95118 7.34171 8.14645 7.14645L13.2929 2H10.5C10.2239 2 10 1.77614 10 1.5Z" fill="#333333"/>
</g>
</svg>
