<svg width="16" height="16" viewBox="0 0 16 16" fill="none" xmlns="http://www.w3.org/2000/svg">
<g id="legacy / limit-maximum" clip-path="url(#clip0_2761_738)">
<path id="icon" d="M13.5 0C14.3284 0 15 0.671573 15 1.5V14.5C15 15.3284 14.3284 16 13.5 16H2.5C1.67157 16 1 15.3284 1 14.5V1.5C1 0.671573 1.67157 0 2.5 0H13.5ZM13.5 14H2.5C2.32479 14 2.1566 13.97 2.00029 13.9148L2 14.5C2 14.7455 2.17688 14.9496 2.41012 14.9919L2.5 15H13.5C13.7455 15 13.9496 14.8231 13.9919 14.5899L14 14.5L14.0007 13.9144C13.8441 13.9698 13.6756 14 13.5 14ZM13.5 12H2.5C2.32479 12 2.1566 11.97 2.00029 11.9148L2 12.5C2 12.7455 2.17688 12.9496 2.41012 12.9919L2.5 13H13.5C13.7455 13 13.9496 12.8231 13.9919 12.5899L14 12.5L14.0007 11.9144C13.8441 11.9698 13.6756 12 13.5 12ZM13.5 10H2.5C2.32479 10 2.1566 9.96996 2.00029 9.91475L2 10.5C2 10.7455 2.17688 10.9496 2.41012 10.9919L2.5 11H13.5C13.7455 11 13.9496 10.8231 13.9919 10.5899L14 10.5L14.0007 9.9144C13.8441 9.96983 13.6756 10 13.5 10ZM13.5 8H2.5C2.32479 8 2.1566 7.96996 2.00029 7.91475L2 8.5C2 8.74546 2.17688 8.94961 2.41012 8.99194L2.5 9H13.5C13.7455 9 13.9496 8.82312 13.9919 8.58988L14 8.5L14.0007 7.9144C13.8441 7.96983 13.6756 8 13.5 8ZM14 6C13.4872 6 13.0645 6.38604 13.0067 6.88338L13 7H13.5C13.7455 7 13.9496 6.82312 13.9919 6.58988L14 6.5V6ZM2 6V6.5C2 6.74546 2.17688 6.94961 2.41012 6.99194L2.5 7H3L2.99327 6.88338C2.93551 6.38604 2.51284 6 2 6ZM12 1H4C4 2.05436 3.18412 2.91817 2.14926 2.99451L2 3V5L2.14926 5.00549C3.18412 5.08183 4 5.94564 4 7H12C12 5.89543 12.8954 5 14 5V3L13.8507 2.99451C12.8159 2.91817 12 2.05436 12 1ZM8.25996 2V2.43619L8.40544 2.46584C8.49821 2.49093 8.58254 2.52668 8.65844 2.57309C8.7723 2.64269 8.87097 2.73627 8.95446 2.85383L8.60911 3.23434L8.53416 3.14617L8.44592 3.06729C8.38267 3.01779 8.3055 2.98066 8.21442 2.95592V3.72622L8.36691 3.77466C8.55899 3.84445 8.70614 3.93503 8.80835 4.0464C8.93612 4.18562 9 4.37432 9 4.61253C9 4.84145 8.93991 5.04254 8.81973 5.21578C8.69956 5.38902 8.51297 5.50193 8.25996 5.55452V6H7.82732V5.57309L7.6888 5.55075C7.55598 5.52233 7.44023 5.47564 7.34156 5.41067C7.20999 5.32405 7.09614 5.21578 7 5.08585L7.34156 4.70534L7.41746 4.79273C7.46974 4.84738 7.52541 4.89482 7.58444 4.93503C7.67299 4.99536 7.7704 5.0348 7.87666 5.05336V4.2181L7.74046 4.17917C7.5247 4.1087 7.36517 4.01031 7.26186 3.88399C7.13789 3.73241 7.0759 3.5437 7.0759 3.31787C7.0759 3.07347 7.13979 2.87394 7.26755 2.71926C7.39532 2.56458 7.58191 2.47022 7.82732 2.43619V2H8.25996ZM8.21442 4.3109V5.04408C8.30297 5.01315 8.36875 4.96442 8.41177 4.89791C8.45478 4.8314 8.47628 4.75329 8.47628 4.66357C8.47628 4.59551 8.45984 4.52978 8.42694 4.46636C8.39405 4.40294 8.32321 4.35112 8.21442 4.3109ZM7.87666 2.94664L7.80942 2.96853C7.74704 2.99376 7.69924 3.029 7.66603 3.07425C7.62176 3.13457 7.59962 3.20959 7.59962 3.2993C7.59962 3.38902 7.62176 3.45862 7.66603 3.50812C7.71031 3.55762 7.78052 3.59938 7.87666 3.63341V2.94664ZM3 1H2.5C2.25454 1 2.05039 1.17688 2.00806 1.41012L2 1.5V2C2.51284 2 2.93551 1.61396 2.99327 1.11662L3 1ZM13.5 1H13L13.0067 1.11662C13.0645 1.61396 13.4872 2 14 2V1.5C14 1.25454 13.8231 1.05039 13.5899 1.00806L13.5 1Z" fill="#333333"/>
</g>
<defs>
<clipPath id="clip0_2761_738">
<rect width="16" height="16" fill="white"/>
</clipPath>
</defs>
</svg>
