<svg width="16" height="16" viewBox="0 0 16 16" fill="none" xmlns="http://www.w3.org/2000/svg">
<g id="legacy / verification" clip-path="url(#clip0_2761_1053)">
<path id="icon" d="M8 0.000626724C8.27124 -0.00897527 8.53474 0.0920932 8.73 0.280627L8.95392 0.486919C10.1702 1.55804 11.7327 2.16113 13.36 2.18063C14.2579 2.21705 14.9745 2.94232 15 3.84063V4.34063L15.0313 4.84102C15.1268 6.843 14.8661 8.84743 14.26 10.7606C13.8303 11.8998 13.1463 12.9258 12.26 13.7606C11.1408 14.775 9.81803 15.5386 8.38 16.0006H8L7.77 15.9006H7.61C6.16715 15.4428 4.84022 14.6787 3.72 13.6606C2.8364 12.8236 2.1528 11.7982 1.72 10.6606C1.08086 8.61535 0.836524 6.46719 0.999996 4.33063V3.83063C1.02658 2.91733 1.76644 2.18627 2.68 2.17063C4.40201 2.14485 6.04989 1.46568 7.29 0.270627L7.39199 0.189584C7.56934 0.065796 7.78161 -0.000839907 8 0.000626724ZM8 1.00063L7.77043 1.21234C6.37033 2.45263 4.56728 3.15017 2.69 3.17063C2.31706 3.18081 2.01562 3.47788 2 3.85063V4.38063C1.84828 6.39899 2.07898 8.42786 2.68 10.3606C3.04816 11.3609 3.63986 12.2638 4.41 13.0006C5.42655 13.9117 6.62696 14.5938 7.93 15.0006H8.1C9.39097 14.5934 10.5783 13.9111 11.58 13.0006C12.3311 12.2541 12.9052 11.3485 13.26 10.3506C13.8542 8.40969 14.0781 6.37432 13.92 4.35063V3.84063C13.9044 3.46788 13.6029 3.17081 13.23 3.16063C11.2775 3.12162 9.41096 2.35072 8 1.00063ZM10.1 5.91063C10.2657 5.68971 10.5791 5.64494 10.8 5.81063C11.0209 5.97631 11.0657 6.28971 10.9 6.51063L7.9 10.5106C7.71743 10.754 7.3616 10.7793 7.14644 10.5642L5.14644 8.56418C4.95118 8.36892 4.95118 8.05234 5.14644 7.85707C5.3417 7.66181 5.65829 7.66181 5.85355 7.85707L7.4459 9.44942L10.1 5.91063Z" fill="#333333"/>
</g>
<defs>
<clipPath id="clip0_2761_1053">
<rect width="16" height="16" fill="white"/>
</clipPath>
</defs>
</svg>
