<svg width="16" height="16" viewBox="0 0 16 16" fill="none" xmlns="http://www.w3.org/2000/svg">
<g id="legacy / deposit" clip-path="url(#clip0_2761_720)">
<path id="icon" d="M4.5 -1.95263e-05C5.69429 -0.00266013 6.84043 0.47059 7.68492 1.31508C8.16189 1.79205 8.52043 2.36524 8.74169 2.98899H12.5C13.8807 2.98899 15 4.10828 15 5.48899V8.26757C15.5978 8.61338 16 9.25972 16 10V12C16 12.7467 15.5908 13.3978 14.9844 13.7414C14.8448 14.9947 13.7858 16 12.5 16H2.54C1.15929 16 0.00312805 14.8407 0.00312805 13.46V5H0.0274644C0.00931666 4.83584 0 4.66901 0 4.5C0 2.01472 2.01472 -1.95263e-05 4.5 -1.95263e-05ZM12.5 3.98899H8.972C8.99095 4.15783 9.00039 4.32842 9.00001 4.5C9.00001 6.98528 6.98528 9 4.5 9C3.08815 9 1.82816 8.34982 1.00313 7.33253V13.46C1.00313 14.2884 1.71157 15 2.54 15H12.5C13.1401 15 13.6865 14.5752 13.9019 14H11C9.89543 14 9 13.1046 9 12V10C9 8.89543 9.89543 8 11 8H14V5.48899C14 4.66056 13.3284 3.98899 12.5 3.98899ZM14 9H11C10.4477 9 10 9.44772 10 10V12C10 12.5523 10.4477 13 11 13H14C14.5523 13 15 12.5523 15 12V10C15 9.44772 14.5523 9 14 9ZM12 10C12.5523 10 13 10.4477 13 11C13 11.5523 12.5523 12 12 12C11.4477 12 11 11.5523 11 11C11 10.4477 11.4477 10 12 10ZM4.5 1C2.567 1 1 2.56701 1 4.5C1 6.433 2.567 8 4.5 8C6.433 8 8 6.433 8 4.5C8 2.56701 6.433 1 4.5 1ZM4.5 2.5C4.77614 2.5 5 2.72386 5 3V3.99997L6 4C6.24546 4 6.44961 4.17688 6.49194 4.41013L6.5 4.5C6.5 4.77614 6.27614 5 6 5L5 4.99997V6C5 6.24546 4.82312 6.44961 4.58988 6.49195L4.5 6.5C4.22386 6.5 4 6.27614 4 6V4.99997L3 5C2.75454 5 2.55039 4.82313 2.50806 4.58988L2.5 4.5C2.5 4.22386 2.72386 4 3 4L4 3.99997V3C4 2.75454 4.17688 2.55039 4.41012 2.50806L4.5 2.5Z" fill="#333333"/>
</g>
<defs>
<clipPath id="clip0_2761_720">
<rect width="16" height="16" fill="white"/>
</clipPath>
</defs>
</svg>
