<svg width="16" height="17" viewBox="0 0 16 17" fill="none" xmlns="http://www.w3.org/2000/svg">
<g id="legacy / apple">
<path id="icon" fill-rule="evenodd" clip-rule="evenodd" d="M11.1242 0.000976562C11.2214 0.947878 10.853 1.87523 10.3105 2.56532C9.74817 3.23586 8.85713 3.76795 7.96555 3.68922C7.849 2.78196 8.29533 1.8166 8.79913 1.22478C9.36039 0.533609 10.3298 0.0411547 11.1242 0.000976562ZM9.03193 4.33698C9.61107 4.1049 10.327 3.81802 11.1146 3.86557C11.6173 3.90521 13.0664 4.06266 13.9945 5.45804C13.9898 5.46161 13.9796 5.46843 13.9644 5.47852C13.7263 5.63692 12.2753 6.60225 12.2935 8.50669C12.3116 10.7756 14.1322 11.6257 14.3738 11.7384C14.3897 11.7459 14.3988 11.7501 14.4 11.7513C14.399 11.7543 14.3974 11.7597 14.395 11.7675C14.3491 11.9177 14.0347 12.9478 13.3183 14.0127C12.6609 14.9971 11.9847 15.9603 10.9019 15.9798C10.3924 15.9896 10.0487 15.8399 9.69102 15.684C9.316 15.5206 8.92556 15.3505 8.31255 15.3505C7.66958 15.3505 7.26044 15.5261 6.86695 15.6949C6.52713 15.8407 6.19899 15.9815 5.74202 15.9999C4.69845 16.039 3.90677 14.9569 3.24937 13.9736C1.89589 11.9875 0.872189 8.36932 2.2638 5.92986C2.94 4.71094 4.17693 3.9443 5.50999 3.92421C6.09188 3.91342 6.64879 4.13726 7.13486 4.33263C7.50438 4.48115 7.83294 4.61321 8.1004 4.61321C8.34259 4.61321 8.65889 4.48646 9.03193 4.33698Z" fill="#333333"/>
</g>
</svg>
