<svg width="32" height="32" viewBox="0 0 32 32" fill="none" xmlns="http://www.w3.org/2000/svg">
<g id="legacy / synthetic-indices">
<g id="Vector">
<path d="M13.0003 10L14.0003 9.5L13.0003 6.5H22.0003L16.0003 15L15.0003 12.5L14.0003 13L15.0003 15.5H6.00026L12.0003 7L13.0003 10Z" fill="white"/>
<path d="M5.50026 16.5H15.0003L13.0003 19L14.0003 19.5L16.0003 17L20.0003 25.5H10.5003L12.5003 22.5L11.5003 22L9.50026 25L5.50026 16.5Z" fill="white"/>
<path d="M27.0002 15.5L23.0002 6.5L16.8423 15.5L20.0003 15.5001V16.5001L16.7503 16.5L21.0002 25L27.0002 16.5H23.0002V15.5H27.0002Z" fill="white"/>
<path fill-rule="evenodd" clip-rule="evenodd" d="M6 0C2.68629 0 0 2.68629 0 6V26C0 29.3137 2.68629 32 6 32H26C29.3137 32 32 29.3137 32 26V6C32 2.68629 29.3137 0 26 0H6ZM13.0003 10L14.0003 9.5L13.0003 6.5H22.0003L16.0003 15L15.0003 12.5L14.0003 13L15.0003 15.5H6.00026L12.0003 7L13.0003 10ZM5.50026 16.5H15.0003L13.0003 19L14.0003 19.5L16.0003 17L20.0003 25.5H10.5003L12.5003 22.5L11.5003 22L9.50026 25L5.50026 16.5ZM23.0002 6.5L27.0002 15.5H23.0002V16.5H27.0002L21.0002 25L16.7503 16.5L20.0003 16.5001V15.5001L16.8423 15.5L23.0002 6.5Z" fill="#33658A"/>
</g>
</g>
</svg>
