<svg width="16" height="16" viewBox="0 0 16 16" fill="none" xmlns="http://www.w3.org/2000/svg">
<g id="legacy / vanilla">
<g id="icon">
<path fill-rule="evenodd" clip-rule="evenodd" d="M12.0528 1.27639C12.1375 1.107 12.3106 1 12.5 1H15.5C15.7761 1 16 1.22386 16 1.5C16 1.77614 15.7761 2 15.5 2H12.809L6.44721 14.7236C6.36361 14.8908 6.19371 14.9974 6.00679 15C5.81986 15.0025 5.64713 14.9005 5.55902 14.7357L2.2266 8.5H0.5C0.223858 8.5 0 8.27614 0 8C0 7.72386 0.223858 7.5 0.5 7.5H2.52632C2.71082 7.5 2.88033 7.60161 2.96729 7.76434L5.98522 13.4115L12.0528 1.27639Z" fill="#333333"/>
<path d="M11 7.5H15.5C15.7761 7.5 16 7.72386 16 8C16 8.27614 15.7761 8.5 15.5 8.5H10.5L11 7.5Z" fill="#333333"/>
<path d="M4 7.5H8L7.5 8.5H4.5L4 7.5Z" fill="#333333"/>
</g>
</g>
</svg>
