<svg width="16" height="16" viewBox="0 0 16 16" fill="none" xmlns="http://www.w3.org/2000/svg">
<g id="legacy / calendar-date-range / 2px">
<g id="icon">
<path d="M4.25 10.25H10.3385C10.5148 10.0944 10.7464 10 11 10C11.5523 10 12 10.4477 12 11C12 11.5523 11.5523 12 11 12C10.7464 12 10.5148 11.9056 10.3385 11.75H4.25V10.25Z" fill="#333333"/>
<path d="M5.66146 9.75C5.48517 9.90559 5.25361 10 5 10C4.44772 10 4 9.55228 4 9C4 8.44772 4.44772 8 5 8C5.25361 8 5.48517 8.09441 5.66146 8.25H11.75V9.75H5.66146Z" fill="#333333"/>
<path fill-rule="evenodd" clip-rule="evenodd" d="M5 1C5.55228 1 6 1.44772 6 2H10C10 1.44772 10.4477 1 11 1C11.5523 1 12 1.44772 12 2C13.6569 2 15 3.34315 15 5V12C15 13.6569 13.6569 15 12 15H4C2.34315 15 1 13.6569 1 12V5C1 3.34315 2.34315 2 4 2C4 1.44772 4.44772 1 5 1ZM4 4C3.44772 4 3 4.44772 3 5H13C13 4.44772 12.5523 4 12 4H4ZM3 7V12C3 12.5523 3.44772 13 4 13H12C12.5523 13 13 12.5523 13 12V7H3Z" fill="#333333"/>
</g>
</g>
</svg>
