<svg width="16" height="16" viewBox="0 0 16 16" fill="none" xmlns="http://www.w3.org/2000/svg">
<g id="legacy / search / 1px" clip-path="url(#clip0_2761_972)">
<path id="icon" d="M6.5 12C9.53757 12 12 9.53757 12 6.5C12 3.46243 9.53757 1 6.5 1C3.46243 1 1 3.46243 1 6.5C1 9.53757 3.46243 12 6.5 12ZM6.5 0C10.0899 0 13 2.91015 13 6.5C13 8.11487 12.4111 9.59219 11.4364 10.7289L15.8536 15.1464C16.0488 15.3417 16.0488 15.6583 15.8536 15.8536C15.6583 16.0488 15.3417 16.0488 15.1464 15.8536L10.7289 11.4364C9.59219 12.4111 8.11487 13 6.5 13C2.91015 13 0 10.0899 0 6.5C0 2.91015 2.91015 0 6.5 0Z" fill="#333333"/>
</g>
<defs>
<clipPath id="clip0_2761_972">
<rect width="16" height="16" fill="white"/>
</clipPath>
</defs>
</svg>
