<svg width="16" height="16" viewBox="0 0 16 16" fill="none" xmlns="http://www.w3.org/2000/svg">
<g id="legacy / calendar-date-from / 2px">
<g id="icon">
<path d="M5.66146 11.75C5.48517 11.9056 5.25361 12 5 12C4.44772 12 4 11.5523 4 11C4 10.4477 4.44772 10 5 10C5.25361 10 5.48517 10.0944 5.66146 10.25H11C11.4142 10.25 11.75 10.5858 11.75 11C11.75 11.4142 11.4142 11.75 11 11.75H5.66146Z" fill="#333333"/>
<path d="M4.25 9C4.25 8.58579 4.58579 8.25 5 8.25H11.75V9.75H5C4.58579 9.75 4.25 9.41421 4.25 9Z" fill="#333333"/>
<path fill-rule="evenodd" clip-rule="evenodd" d="M6 2C6 1.44772 5.55228 1 5 1C4.44772 1 4 1.44772 4 2C2.34315 2 1 3.34315 1 5V12C1 13.6569 2.34315 15 4 15H12C13.6569 15 15 13.6569 15 12V5C15 3.34315 13.6569 2 12 2C12 1.44772 11.5523 1 11 1C10.4477 1 10 1.44772 10 2H6ZM12 4C12.5523 4 13 4.44772 13 5H3C3 4.44772 3.44772 4 4 4H12ZM3 12V7H13V12C13 12.5523 12.5523 13 12 13H4C3.44772 13 3 12.5523 3 12Z" fill="#333333"/>
</g>
</g>
</svg>
