<svg width="32" height="32" viewBox="0 0 32 32" fill="none" xmlns="http://www.w3.org/2000/svg">
<g id="legacy / ETF">
<g id="icon">
<path fill-rule="evenodd" clip-rule="evenodd" d="M23.6652 22.6665H20.7749V10.6665H28V13.6659H23.6652V15.1668H28V18.1662H23.6652V22.6665Z" fill="white"/>
<path fill-rule="evenodd" clip-rule="evenodd" d="M11.8044 10.6665H20.4741V13.6659H17.5838V22.6665H14.6947V13.6659H11.8044V10.6665Z" fill="white"/>
<path d="M6.88411 18.1588H10.4886V15.9101H6.88411V13.6627H11.4974L11.5036 10.6665H4V22.6537H11.4974L11.5036 19.6575H6.88411V18.1588Z" fill="white"/>
<path fill-rule="evenodd" clip-rule="evenodd" d="M6 0C2.68629 0 0 2.68629 0 6V26C0 29.3137 2.68629 32 6 32H26C29.3137 32 32 29.3137 32 26V6C32 2.68629 29.3137 0 26 0H6ZM10.4886 18.1588H6.88411V19.6575H11.5036L11.4974 22.6537H4V10.6665H11.5036L11.4974 13.6627H6.88411V15.9101H10.4886V18.1588ZM11.8044 10.6665H20.4741V13.6659H17.5838V22.6665H14.6947V13.6659H11.8044V10.6665ZM23.6652 22.6665H20.7749V10.6665H28V13.6659H23.6652V15.1668H28V18.1662H23.6652V22.6665Z" fill="#33658A"/>
</g>
</g>
</svg>
