<svg width="16" height="16" viewBox="0 0 16 16" fill="none" xmlns="http://www.w3.org/2000/svg">
<g id="legacy / settings / 2px" clip-path="url(#clip0_2761_876)">
<g id="icon">
<path fill-rule="evenodd" clip-rule="evenodd" d="M8 4.75C6.20507 4.75 4.75 6.20507 4.75 8C4.75 9.79493 6.20507 11.25 8 11.25C9.79493 11.25 11.25 9.79493 11.25 8C11.25 6.20507 9.79493 4.75 8 4.75ZM6.25 8C6.25 7.0335 7.0335 6.25 8 6.25C8.9665 6.25 9.75 7.0335 9.75 8C9.75 8.9665 8.9665 9.75 8 9.75C7.0335 9.75 6.25 8.9665 6.25 8Z" fill="#333333"/>
<path fill-rule="evenodd" clip-rule="evenodd" d="M9.05909 0H6.9414L5.65595 1.57969C5.47282 1.64657 5.29338 1.72105 5.11801 1.80272L3.09222 1.59443L1.59468 3.09197L1.80297 5.11777C1.72129 5.29313 1.64681 5.47257 1.57993 5.6557L0.000244141 6.94115V9.05885L1.57993 10.3443C1.64681 10.5274 1.72127 10.7068 1.80294 10.8822L1.59472 12.9081L3.09224 14.4056L5.11809 14.1973C5.29343 14.279 5.47285 14.3534 5.65595 14.4203L6.9414 16H9.05909L10.3445 14.4203C10.5277 14.3534 10.7071 14.279 10.8825 14.1973L12.9082 14.4056L14.4057 12.9081L14.1975 10.8822C14.2792 10.7069 14.3537 10.5274 14.4206 10.3443L16.0002 9.05885V6.94115L14.4206 5.6557C14.3537 5.47259 14.2792 5.29317 14.1975 5.11783L14.406 3.0919L12.9084 1.59432L10.8824 1.8027C10.7071 1.72103 10.5277 1.64656 10.3445 1.57969L9.05909 0ZM6.83637 3.29779L7.50024 2H8.50024L9.16412 3.29779L9.45059 3.38777C9.72326 3.47341 9.98561 3.58263 10.2353 3.71314L10.5018 3.85241L11.8892 3.40364L12.5963 4.11075L12.1478 5.49847L12.2871 5.76494C12.4176 6.01463 12.5268 6.27699 12.6125 6.54965L12.7025 6.83612L14.0002 7.49976V8.49976L12.7025 9.16388L12.6125 9.45035C12.5268 9.72302 12.4176 9.98538 12.2871 10.2351L12.1478 10.5015L12.5964 11.8888L11.8893 12.5959L10.5018 12.1476L10.2353 12.2868C9.98563 12.4174 9.72326 12.5266 9.45059 12.6122L9.16412 12.7022L8.50049 14H7.50049L6.83637 12.7022L6.54989 12.6122C6.27725 12.5266 6.0149 12.4174 5.76522 12.2869L5.4988 12.1476L4.11134 12.5964L3.40423 11.8893L3.8526 10.5014L3.71336 10.235C3.58287 9.98534 3.47365 9.723 3.38801 9.45035L3.29804 9.16388L2.00024 8.50024V7.50024L3.29804 6.83612L3.38801 6.54965C3.47365 6.27698 3.58288 6.01462 3.71339 5.76492L3.85265 5.49848L3.40371 4.11092L4.11104 3.40404L5.49872 3.85241L5.76516 3.71315C6.01486 3.58264 6.27722 3.47341 6.54989 3.38777L6.83637 3.29779Z" fill="#333333"/>
</g>
</g>
<defs>
<clipPath id="clip0_2761_876">
<rect width="16" height="16" fill="white"/>
</clipPath>
</defs>
</svg>
