<svg width="24" height="24" viewBox="0 0 24 24" fill="none" xmlns="http://www.w3.org/2000/svg">
<g id="legacy / alligator">
<path id="icon - blue" d="M20.1893 2.41452C20.5127 1.9668 21.1378 1.86598 21.5855 2.18933C22.0332 2.51269 22.134 3.13778 21.8107 3.5855L14.4169 13.8219L18.2773 19.6133L20.4453 18.168C20.9048 17.8616 21.5257 17.9858 21.8321 18.4453C22.1384 18.9048 22.0142 19.5257 21.5547 19.8321L18.5547 21.8321C18.0952 22.1384 17.4743 22.0142 17.1679 21.5547L13.1669 15.5519L8.81068 21.5855C8.52008 21.9879 7.98378 22.1116 7.55111 21.8937L7.4453 21.8321L5.12742 20.2868L3.70711 21.7071C3.31658 22.0976 2.68342 22.0976 2.29289 21.7071C1.90237 21.3166 1.90237 20.6834 2.29289 20.2929L4.29289 18.2929C4.62996 17.9558 5.15808 17.9035 5.5547 18.168L7.75327 19.6337L11.9829 13.7759L5.95196 4.73073L3.8 7.60001C3.46863 8.04184 2.84183 8.13138 2.4 7.80001C1.95817 7.46864 1.86863 6.84184 2.2 6.40001L5.2 2.40001C5.61397 1.84805 6.44933 1.87124 6.83205 2.44531L13.2329 12.0459L20.1893 2.41452Z" fill="#85ACB0"/>
<path id="icon - red" d="M6.27009 12.1441L17.6838 15.9487C18.0921 16.0848 18.5417 15.9443 18.8 15.6L21.8 11.6C22.1314 11.1582 22.0418 10.5314 21.6 10.2C21.1582 9.86863 20.5314 9.95817 20.2 10.4L17.6325 13.8234L6.31623 10.0513C5.95689 9.93154 5.56073 10.0251 5.29289 10.2929L2.29289 13.2929C1.90237 13.6834 1.90237 14.3166 2.29289 14.7071C2.68342 15.0976 3.31658 15.0976 3.70711 14.7071L6.27009 12.1441Z" fill="#FF444F"/>
</g>
</svg>
