<svg width="16" height="16" viewBox="0 0 16 16" fill="none" xmlns="http://www.w3.org/2000/svg">
<g id="legacy / backward / 2px">
<path id="icon" d="M13.2929 1.29289L7.29289 7.2929C6.90237 7.68342 6.90237 8.31659 7.29289 8.70711L13.2929 14.7071C13.6834 15.0976 14.3166 15.0976 14.7071 14.7071C15.0976 14.3166 15.0976 13.6834 14.7071 13.2929L9.41421 8L14.7071 2.70711C15.0976 2.31658 15.0976 1.68342 14.7071 1.29289C14.3166 0.902369 13.6834 0.902369 13.2929 1.29289ZM7.29289 1.29289L1.29289 7.2929C0.902366 7.68342 0.902366 8.31659 1.29289 8.70711L7.29289 14.7071C7.68342 15.0976 8.31658 15.0976 8.70711 14.7071C9.09763 14.3166 9.09763 13.6834 8.70711 13.2929L3.41421 8L8.70711 2.70711C9.09763 2.31658 9.09763 1.68342 8.70711 1.29289C8.31658 0.902369 7.68342 0.902369 7.29289 1.29289Z" fill="#333333"/>
</g>
</svg>
