<svg width="16" height="16" viewBox="0 0 16 16" fill="none" xmlns="http://www.w3.org/2000/svg">
<g id="legacy / copy / 2px" clip-path="url(#clip0_2761_827)">
<g id="icon">
<path fill-rule="evenodd" clip-rule="evenodd" d="M5 3C5 1.34315 6.34315 0 8 0H13C14.6569 0 16 1.34315 16 3V9C16 10.6569 14.6569 12 13 12H11V13C11 14.6569 9.65685 16 8 16H3C1.34315 16 0 14.6569 0 13V7C0 5.34315 1.34315 4 3 4H5V3ZM7 4H8C9.65685 4 11 5.34315 11 7V10H13C13.5523 10 14 9.55228 14 9V3C14 2.44772 13.5523 2 13 2H8C7.44772 2 7 2.44772 7 3V4ZM9 7C9 6.44772 8.55228 6 8 6H3C2.44772 6 2 6.44772 2 7V13C2 13.5523 2.44772 14 3 14H8C8.55228 14 9 13.5523 9 13V7Z" fill="#333333"/>
<path fill-rule="evenodd" clip-rule="evenodd" d="M2.75 7.5C2.75 7.08579 3.08579 6.75 3.5 6.75H7.5C7.91421 6.75 8.25 7.08579 8.25 7.5C8.25 7.91421 7.91421 8.25 7.5 8.25H3.5C3.08579 8.25 2.75 7.91421 2.75 7.5ZM2.75 10C2.75 9.58579 3.08579 9.25 3.5 9.25H7.5C7.91421 9.25 8.25 9.58579 8.25 10C8.25 10.4142 7.91421 10.75 7.5 10.75H3.5C3.08579 10.75 2.75 10.4142 2.75 10ZM2.75 12.5C2.75 12.0858 3.08579 11.75 3.5 11.75H7.5C7.91421 11.75 8.25 12.0858 8.25 12.5C8.25 12.9142 7.91421 13.25 7.5 13.25H3.5C3.08579 13.25 2.75 12.9142 2.75 12.5Z" fill="#333333"/>
</g>
</g>
<defs>
<clipPath id="clip0_2761_827">
<rect width="16" height="16" fill="white"/>
</clipPath>
</defs>
</svg>
