<svg width="16" height="17" viewBox="0 0 16 17" fill="none" xmlns="http://www.w3.org/2000/svg">
<g id="legacy / facebook">
<path id="icon" fill-rule="evenodd" clip-rule="evenodd" d="M8 16C12.4183 16 16 12.4183 16 8C16 3.58172 12.4183 0 8 0C3.58172 0 0 3.58172 0 8C0 12.4183 3.58172 16 8 16ZM9.25 10.3752V15.9026C8.84271 15.9665 8.42523 15.9997 8 15.9997C7.57477 15.9997 7.15729 15.9665 6.75 15.9026V10.3752H4.71875V8.04854H6.75V6.27527C6.75 4.25802 7.94434 3.14375 9.77172 3.14375C10.647 3.14375 11.5625 3.30095 11.5625 3.30095V5.28174H10.5537C9.55992 5.28174 9.25 5.90218 9.25 6.5387V8.04854H11.4688L11.1141 10.3752H9.25Z" fill="#333333"/>
</g>
</svg>
