<svg width="16" height="16" viewBox="0 0 16 16" fill="none" xmlns="http://www.w3.org/2000/svg">
<g id="legacy / smartphone-3" clip-path="url(#clip0_2761_1097)">
<path id="icon" fill-rule="evenodd" clip-rule="evenodd" d="M5.5 0C4.39543 0 3.5 0.895431 3.5 2V14C3.5 15.1046 4.39543 16 5.5 16H10.5C11.6046 16 12.5 15.1046 12.5 14V2C12.5 0.895431 11.6046 0 10.5 0H5.5ZM4.5 3H11.5V13H4.5V3ZM8 15.25C8.41421 15.25 8.75 14.9142 8.75 14.5C8.75 14.0858 8.41421 13.75 8 13.75C7.58579 13.75 7.25 14.0858 7.25 14.5C7.25 14.9142 7.58579 15.25 8 15.25Z" fill="#333333"/>
</g>
<defs>
<clipPath id="clip0_2761_1097">
<rect width="16" height="16" fill="white"/>
</clipPath>
</defs>
</svg>
