<svg width="16" height="16" viewBox="0 0 16 16" fill="none" xmlns="http://www.w3.org/2000/svg">
<g id="legacy / account-limits" clip-path="url(#clip0_2761_1059)">
<path id="icon" d="M8 0C12.4183 0 16 3.58172 16 8C16 12.4183 12.4183 16 8 16C3.58172 16 0 12.4183 0 8C0 3.58172 3.58172 0 8 0ZM8 1C4.13401 1 1 4.13401 1 8C1 11.866 4.13401 15 8 15C11.866 15 15 11.866 15 8C15 4.13401 11.866 1 8 1ZM10.8536 5.14645C11.0271 5.32001 11.0464 5.58944 10.9114 5.78431L10.8536 5.85355L9.72302 6.98389C9.89901 7.28168 10 7.62904 10 8C10 9.10457 9.10457 10 8 10C6.89543 10 6 9.10457 6 8C6 6.89543 6.89543 6 8 6C8.37096 6 8.71832 6.10099 9.01611 6.27698L10.1464 5.14645C10.3417 4.95118 10.6583 4.95118 10.8536 5.14645ZM8 7C7.44772 7 7 7.44772 7 8C7 8.55229 7.44772 9 8 9C8.55229 9 9 8.55229 9 8C9 7.44772 8.55229 7 8 7ZM8 2C11.3137 2 14 4.68629 14 8C14 8.27614 13.7761 8.5 13.5 8.5C13.2239 8.5 13 8.27614 13 8C13 5.23858 10.7614 3 8 3C5.23858 3 3 5.23858 3 8C3 8.27614 2.77614 8.5 2.5 8.5C2.22386 8.5 2 8.27614 2 8C2 4.68629 4.68629 2 8 2Z" fill="#333333"/>
</g>
<defs>
<clipPath id="clip0_2761_1059">
<rect width="16" height="16" fill="white"/>
</clipPath>
</defs>
</svg>
