<svg width="24" height="24" viewBox="0 0 24 24" fill="none" xmlns="http://www.w3.org/2000/svg">
<g id="legacy / stochastic-momentum">
<path id="line - gray" d="M21 18C21.5523 18 22 18.4477 22 19C22 19.5523 21.5523 20 21 20H3C2.44772 20 2 19.5523 2 19C2 18.4477 2.44772 18 3 18H21ZM21 4C21.5523 4 22 4.44772 22 5C22 5.55228 21.5523 6 21 6H3C2.44772 6 2 5.55228 2 5C2 4.44772 2.44772 4 3 4H21Z" fill="#D6DADB"/>
<path id="icon - red" d="M10.7192 18.628C10.5023 17.5416 10.3692 16.2725 10.1594 13.6224C10.1261 13.2008 10.1065 12.9526 10.0924 12.7748C10.0664 12.4469 10.0446 12.1768 10.0231 11.9174C9.43063 4.75275 8.67975 1.91012 5.96669 2.00056C3.30529 2.08927 2.39758 4.95095 2.42466 9.50538C2.43322 10.9461 2.54228 12.4807 2.71858 14.0175C2.78283 14.5775 2.85169 15.0986 2.92066 15.5678C2.96233 15.8513 2.99505 16.056 3.01432 16.1686C3.10745 16.713 3.62425 17.0788 4.16863 16.9857C4.713 16.8926 5.07881 16.3758 4.98568 15.8314C4.96897 15.7337 4.9387 15.5443 4.89939 15.2769C4.83339 14.8279 4.76728 14.3276 4.70555 13.7895C4.53685 12.3191 4.43271 10.8535 4.42462 9.49348C4.40402 6.02815 5.03698 4.03266 6.03332 3.99945C6.88239 3.97115 7.57646 6.59873 8.02994 12.0822C8.05119 12.3392 8.07281 12.6072 8.09869 12.9331C8.11276 13.1103 8.1323 13.3579 8.16563 13.7802C8.38216 16.5156 8.51965 17.8261 8.75786 19.0194C9.14474 20.9577 9.73286 22.0413 11.0321 21.9995C12.2247 21.9612 12.9405 21.0969 13.3683 19.7062C13.6324 18.8477 13.7598 18.0444 13.9928 16.1202C14.3538 13.1388 14.7009 12.0101 15.0321 11.9995C15.0769 11.9981 15.0882 12.003 15.1353 12.0527C15.2404 12.1635 15.3563 12.3808 15.4656 12.7025C15.6756 13.3209 15.7932 13.9994 16.0086 15.6309C16.2432 17.4082 16.3715 18.1481 16.6406 18.9406C17.0821 20.2406 17.8381 21.0379 19.0321 20.9995C21.1095 20.9327 21.824 18.4172 22.047 14.0513C22.1309 12.408 22.1203 10.6604 22.0521 8.99755C22.0403 8.71054 22.0277 8.4506 22.015 8.22216C22.0073 8.08388 22.0013 7.98601 21.9978 7.93299C21.9607 7.38194 21.484 6.96524 20.933 7.00225C20.3819 7.03927 19.9652 7.51598 20.0023 8.06702C20.0149 8.2556 20.0343 8.60507 20.0537 9.07951C20.1196 10.6861 20.1299 12.3761 20.0496 13.9493C19.893 17.0157 19.3325 18.9888 18.9679 19.0005C18.9231 19.002 18.9118 18.997 18.8647 18.9474C18.7596 18.8366 18.6437 18.6192 18.5344 18.2975C18.3244 17.6791 18.2068 17.0006 17.9914 15.3691C17.7568 13.5918 17.6285 12.8519 17.3594 12.0594C16.9179 10.7594 16.1619 9.96214 14.9679 10.0005C13.7753 10.0389 13.0595 10.9031 12.6317 12.2938C12.3676 13.1523 12.2403 13.9556 12.0073 15.8798C11.6973 18.4395 11.3976 19.6335 11.1094 19.9268C10.973 19.6665 10.8389 19.2279 10.7192 18.628Z" fill="#FF444F"/>
<path id="icon - blue" d="M3.96152 14.2747C3.97465 14.2288 4.00274 14.1352 4.04523 14.0008C4.11735 13.7728 4.20284 13.5178 4.30112 13.2426C4.58149 12.4575 4.90641 11.6732 5.26943 10.9472C6.2036 9.07887 7.2054 8 8 8C8.48819 8 8.90746 8.94335 9.52381 11.7169C10.4075 15.6933 10.9882 17 13 17C15.3209 17 16.1482 15.8182 16.37 13.5995C16.3782 13.5177 16.3847 13.449 16.3981 13.3046C16.5101 12.0984 16.5612 12 17 12C17.7419 12 17.7979 12.0561 18.0513 12.8162C18.5479 14.3061 19.2419 15 21 15C21.5523 15 22 14.5523 22 14C22 13.4477 21.5523 13 21 13C20.2581 13 20.2021 12.9439 19.9487 12.1838C19.4521 10.6939 18.7581 10 17 10C15.1169 10 14.6049 10.9845 14.4066 13.1196C14.3934 13.2625 14.3875 13.3252 14.38 13.4005C14.2477 14.7234 14.0541 15 13 15C12.5118 15 12.0925 14.0567 11.4762 11.2831C10.5925 7.30665 10.0118 6 8 6C6.16959 6 4.7339 7.54613 3.48057 10.0528C3.07796 10.858 2.72319 11.7143 2.41763 12.5699C2.31083 12.869 2.21761 13.1471 2.13836 13.3976C2.09003 13.5504 2.05659 13.6619 2.03847 13.7253C1.88675 14.2563 2.19424 14.8098 2.72528 14.9615C3.25631 15.1132 3.8098 14.8058 3.96152 14.2747Z" fill="#85ACB0"/>
</g>
</svg>
