<svg width="24" height="24" viewBox="0 0 24 24" fill="none" xmlns="http://www.w3.org/2000/svg">
<g id="legacy / william-percent">
<path id="icon - red" d="M3 5H7C7.55228 5 8 4.55228 8 4C8 3.44772 7.55228 3 7 3H3C2.44772 3 2 3.44772 2 4C2 4.55228 2.44772 5 3 5Z" fill="#FF444F"/>
<path id="icon - blue" d="M10.0365 2.73236C10.3048 1.76624 11.6697 1.75224 11.9578 2.71265L14.3075 10.5451L16.0727 7.60525C16.4757 6.9339 17.4591 6.96536 17.8185 7.6611L21.8885 15.5411C22.1419 16.0318 21.9496 16.635 21.4589 16.8885C20.9682 17.1419 20.365 16.9496 20.1115 16.4589L16.8643 10.172L14.8573 13.5148C14.4103 14.2594 13.2917 14.1192 13.0422 13.2874L11.0369 6.60328L6.96351 21.2676C6.686 22.2667 5.25875 22.2352 5.0256 21.2249L2.0256 8.22486C1.90142 7.68672 2.23699 7.1498 2.77513 7.02561C3.31327 6.90143 3.8502 7.237 3.97438 7.77514L6.0896 16.9411L10.0365 2.73236ZM21 19C21.5523 19 22 19.4477 22 20C22 20.5523 21.5523 21 21 21H9.99999C9.44771 21 8.99999 20.5523 8.99999 20C8.99999 19.4477 9.44771 19 9.99999 19H21Z" fill="#85ACB0"/>
</g>
</svg>
