<svg width="24" height="24" viewBox="0 0 24 24" fill="none" xmlns="http://www.w3.org/2000/svg">
<g id="legacy / drawing tools">
<path id="icon" d="M2.29147 21.9551L2.25241 21.9345C2.24975 21.933 2.2471 21.9314 2.24448 21.9299C2.22691 21.9196 2.21005 21.9081 2.19395 21.8955C2.15861 21.868 2.12702 21.836 2.10011 21.8002C2.09018 21.7872 2.08078 21.7735 2.07207 21.7592C2.06905 21.7538 2.06616 21.7488 2.06334 21.7438C2.00967 21.6497 1.98609 21.5366 2.00632 21.4187C2.00889 21.4047 2.01162 21.3915 2.01485 21.3786C2.01773 21.3673 2.02143 21.3546 2.02566 21.3419L4.02566 15.3419C4.03749 15.3064 4.05323 15.2725 4.07251 15.2407L4.10608 15.192L4.14645 15.1464L17.1464 2.14645C17.3417 1.95118 17.6583 1.95118 17.8536 2.14645L21.8536 6.14645C22.0488 6.34171 22.0488 6.65829 21.8536 6.85355L8.85356 19.8536C8.82538 19.8817 8.79468 19.9058 8.76218 19.9259C8.74673 19.9353 8.73057 19.944 8.71394 19.9519C8.70764 19.9551 8.70101 19.958 8.69433 19.9608C8.68248 19.9657 8.67039 19.9703 8.65812 19.9743L5.58214 20.999L19.5 21C19.7455 21 19.9496 21.1769 19.9919 21.4101L20 21.5C20 21.7761 19.7761 22 19.5 22L2.51472 22.0006C2.44931 22.0029 2.38624 21.992 2.32802 21.9704C2.32643 21.9691 2.32442 21.9683 2.32241 21.9675C2.31561 21.9658 2.30342 21.9607 2.29147 21.9551ZM4.71814 16.425L3.29057 20.7094L7.57414 19.281L4.71814 16.425ZM15.0001 5.707L5.20714 15.5L8.49914 18.792L18.2921 8.999L15.0001 5.707ZM17.5 3.20711L15.7071 5L18.9991 8.292L20.7929 6.5L17.5 3.20711Z" fill="#333333"/>
</g>
</svg>
