<svg width="16" height="16" viewBox="0 0 16 16" fill="none" xmlns="http://www.w3.org/2000/svg">
<g id="legacy / edit / 2px" clip-path="url(#clip0_2761_847)">
<path id="icon" fill-rule="evenodd" clip-rule="evenodd" d="M10.2929 1.29312C11.5118 0.0741688 13.4882 0.0741681 14.7071 1.29312C15.9261 2.51207 15.9261 4.48838 14.7071 5.70733L4.41421 16.0002H0V11.586L10.2929 1.29312ZM13.2929 2.70733C12.855 2.26943 12.145 2.26943 11.7071 2.70733L10.7375 3.67689L12.3233 5.26268L13.2929 4.29312C13.7308 3.85522 13.7308 3.14524 13.2929 2.70733ZM11.2627 6.32334L9.67689 4.73755L4.23755 10.1769L5.82334 11.7627L11.2627 6.32334ZM2 12.4144L3.17689 11.2375L4.76268 12.8233L3.58579 14.0002H2V12.4144Z" fill="#333333"/>
</g>
<defs>
<clipPath id="clip0_2761_847">
<rect width="16" height="16" fill="white"/>
</clipPath>
</defs>
</svg>
