<svg width="16" height="16" viewBox="0 0 16 16" fill="none" xmlns="http://www.w3.org/2000/svg">
<g id="legacy / cut / 1px">
<path id="icon" fill-rule="evenodd" clip-rule="evenodd" d="M4.5 3C3.67157 3 3 3.67157 3 4.5C3 5.32843 3.67157 6 4.5 6C5.32843 6 6 5.32843 6 4.5C6 3.67157 5.32843 3 4.5 3ZM2 4.5C2 3.11929 3.11929 2 4.5 2C5.88071 2 7 3.11929 7 4.5C7 5.00954 6.84756 5.48348 6.5858 5.8787L8 7.29289L13.2929 2H14V2.70711L8.70711 8L14 13.2929V14H13.2929L8 8.70711L6.5858 10.1213C6.84756 10.5165 7 10.9905 7 11.5C7 12.8807 5.88071 14 4.5 14C3.11929 14 2 12.8807 2 11.5C2 10.1193 3.11929 9 4.5 9C5.00954 9 5.48348 9.15244 5.8787 9.4142L7.29289 8L5.8787 6.5858C5.48348 6.84756 5.00954 7 4.5 7C3.11929 7 2 5.88071 2 4.5ZM4.5 10C3.67157 10 3 10.6716 3 11.5C3 12.3284 3.67157 13 4.5 13C5.32843 13 6 12.3284 6 11.5C6 10.6716 5.32843 10 4.5 10Z" fill="#333333"/>
</g>
</svg>
