<svg width="16" height="16" viewBox="0 0 16 16" fill="none" xmlns="http://www.w3.org/2000/svg">
<g id="legacy / phone">
<path id="icon" d="M4.52999 0.999967C5.2233 0.995628 5.81691 1.49595 5.92999 2.18C6.01521 2.86341 6.17965 3.53459 6.41999 4.18C6.61233 4.69343 6.48726 5.27188 6.09999 5.66L5.20999 6.56C6.20584 8.31555 7.65681 9.76997 9.40999 10.77L10.31 9.88C10.6968 9.4904 11.2768 9.36501 11.79 9.56C12.4353 9.80272 13.1064 9.97048 13.79 10.06C14.4959 10.1565 15.0167 10.7677 15 11.48V13.59C15 14.3648 14.3748 14.9945 13.6 15H13.47C11.3022 14.7658 9.21968 14.0259 7.38999 12.84C5.69031 11.7605 4.24946 10.3197 3.16999 8.62C1.9767 6.78944 1.23314 4.70267 0.999991 2.53C0.963937 2.15676 1.07912 1.78466 1.31972 1.49706C1.56033 1.20946 1.90625 1.0304 2.27999 0.999967H4.52999ZM4.52999 1.99997H2.40999C2.29585 1.99969 2.18675 2.04698 2.10893 2.13049C2.03112 2.21399 1.99164 2.32616 1.99999 2.44C2.21536 4.45077 2.90046 6.38275 3.99999 8.08C5.00428 9.66367 6.34631 11.0057 7.92999 12.01C9.62888 13.1062 11.56 13.791 13.57 14.01C13.6822 14.0155 13.7916 13.9747 13.8729 13.8972C13.9542 13.8197 14.0001 13.7123 14 13.6V11.49C14.0126 11.2775 13.8606 11.0908 13.65 11.06C12.9023 10.956 12.1681 10.7716 11.46 10.51H11.32C11.2117 10.512 11.1081 10.5549 11.03 10.63L10.14 11.52C9.82138 11.8369 9.3305 11.9023 8.93999 11.68C7.02019 10.5936 5.43056 9.00743 4.33999 7.09C4.11764 6.69948 4.18309 6.20861 4.49999 5.89L5.39999 5C5.52161 4.87511 5.55344 4.68808 5.47999 4.53C5.21609 3.82262 5.03163 3.08812 4.92999 2.34C4.90008 2.14278 4.72945 1.99774 4.52999 1.99997Z" fill="#333333"/>
</g>
</svg>
