<svg width="16" height="16" viewBox="0 0 16 16" fill="none" xmlns="http://www.w3.org/2000/svg">
<g id="legacy / indicator-volatility">
<path id="icon" d="M3.5 13C3.77615 13 4 13.2239 4 13.5L3.99195 13.5899C3.94961 13.8231 3.74546 14 3.5 14H2.5C2.22386 14 2 13.7761 2 13.5C2 13.2239 2.22386 13 2.5 13H3.5ZM5.5 13C5.77615 13 6 13.2239 6 13.5L5.99195 13.5899C5.94961 13.8231 5.74546 14 5.5 14H4.5C4.22386 14 4 13.7761 4 13.5C4 13.2239 4.22386 13 4.5 13H5.5ZM7.5 13C7.77614 13 8 13.2239 8 13.5L7.99195 13.5899C7.94961 13.8231 7.74546 14 7.5 14H6.5C6.22386 14 6 13.7761 6 13.5C6 13.2239 6.22386 13 6.5 13H7.5ZM9.5 13C9.77614 13 10 13.2239 10 13.5L9.99195 13.5899C9.94961 13.8231 9.74546 14 9.5 14H8.5C8.22386 14 8 13.7761 8 13.5C8 13.2239 8.22386 13 8.5 13H9.5ZM11.5 13C11.7761 13 12 13.2239 12 13.5L11.9919 13.5899C11.9496 13.8231 11.7455 14 11.5 14H10.5C10.2239 14 10 13.7761 10 13.5C10 13.2239 10.2239 13 10.5 13H11.5ZM13.5 13C13.7761 13 14 13.2239 14 13.5C14 13.7761 13.7761 14 13.5 14H12.5C12.2239 14 12 13.7761 12 13.5C12 13.2239 12.2239 13 12.5 13H13.5ZM9.07126 4.24275C9.27425 3.90443 9.77077 3.9235 9.94722 4.27639L11.5619 7.50576L13.084 5.22265C13.2372 4.99289 13.5476 4.9308 13.7774 5.08397C14.0071 5.23715 14.0692 5.54759 13.916 5.77735L11.916 8.77735C11.7031 9.09678 11.2245 9.06699 11.0528 8.72361L9.46013 5.53828L6.92875 9.75725C6.76139 10.0362 6.37646 10.0836 6.14645 9.85355L4.63698 8.34408L2.94722 11.7236C2.82372 11.9706 2.52339 12.0707 2.2764 11.9472C2.02941 11.8237 1.92929 11.5234 2.05279 11.2764L4.05279 7.27639C4.20541 6.97114 4.61224 6.90513 4.85356 7.14645L6.40073 8.69362L9.07126 4.24275ZM3.5 2C3.77615 2 4 2.22386 4 2.5L3.99195 2.58988C3.94961 2.82312 3.74546 3 3.5 3H2.5C2.22386 3 2 2.77614 2 2.5C2 2.22386 2.22386 2 2.5 2H3.5ZM5.5 2C5.77615 2 6 2.22386 6 2.5L5.99195 2.58988C5.94961 2.82312 5.74546 3 5.5 3H4.5C4.22386 3 4 2.77614 4 2.5C4 2.22386 4.22386 2 4.5 2H5.5ZM7.5 2C7.77614 2 8 2.22386 8 2.5L7.99195 2.58988C7.94961 2.82312 7.74546 3 7.5 3H6.5C6.22386 3 6 2.77614 6 2.5C6 2.22386 6.22386 2 6.5 2H7.5ZM9.5 2C9.77614 2 10 2.22386 10 2.5L9.99195 2.58988C9.94961 2.82312 9.74546 3 9.5 3H8.5C8.22386 3 8 2.77614 8 2.5C8 2.22386 8.22386 2 8.5 2H9.5ZM11.5 2C11.7761 2 12 2.22386 12 2.5L11.9919 2.58988C11.9496 2.82312 11.7455 3 11.5 3H10.5C10.2239 3 10 2.77614 10 2.5C10 2.22386 10.2239 2 10.5 2H11.5ZM13.5 2C13.7761 2 14 2.22386 14 2.5C14 2.77614 13.7761 3 13.5 3H12.5C12.2239 3 12 2.77614 12 2.5C12 2.22386 12.2239 2 12.5 2H13.5Z" fill="#333333"/>
</g>
</svg>
