<svg width="16" height="16" viewBox="0 0 16 16" fill="none" xmlns="http://www.w3.org/2000/svg">
<g id="legacy / profit-table" clip-path="url(#clip0_2761_1081)">
<path id="icon" d="M14.5 0C15.3284 0 16 0.671573 16 1.5V14.5C16 15.3284 15.3284 16 14.5 16H1.5C0.671573 16 0 15.3284 0 14.5V1.5C0 0.671573 0.671573 0 1.5 0H14.5ZM1 4V14.5C1 14.7761 1.22386 15 1.5 15H14.5C14.7761 15 15 14.7761 15 14.5V4H1ZM5.78431 6.08859L5.85355 6.14645L7.85355 8.14645C8.04882 8.34171 8.04882 8.65829 7.85355 8.85355C7.67999 9.02712 7.41056 9.0464 7.21569 8.91141L7.14645 8.85355L6 7.707V12.5C6 12.7761 5.77614 13 5.5 13C5.22386 13 5 12.7761 5 12.5V7.707L3.85355 8.85355C3.67999 9.02712 3.41056 9.0464 3.21569 8.91141L3.14645 8.85355C2.97288 8.67999 2.9536 8.41056 3.08859 8.21569L3.14645 8.14645L5.14645 6.14645C5.32001 5.97288 5.58944 5.9536 5.78431 6.08859ZM10.5 6C10.7761 6 11 6.22386 11 6.5L10.999 11.292L12.1464 10.1464C12.3417 9.95118 12.6583 9.95118 12.8536 10.1464C13.0488 10.3417 13.0488 10.6583 12.8536 10.8536L10.8536 12.8536C10.6583 13.0488 10.3417 13.0488 10.1464 12.8536L8.14645 10.8536C7.95118 10.6583 7.95118 10.3417 8.14645 10.1464C8.34171 9.95118 8.65829 9.95118 8.85355 10.1464L9.999 11.292L10 6.5C10 6.22386 10.2239 6 10.5 6ZM1 3H15V1.5C15 1.22386 14.7761 1 14.5 1H1.5C1.22386 1 1 1.22386 1 1.5V3Z" fill="#333333"/>
</g>
<defs>
<clipPath id="clip0_2761_1081">
<rect width="16" height="16" fill="white"/>
</clipPath>
</defs>
</svg>
