<svg width="16" height="16" viewBox="0 0 16 16" fill="none" xmlns="http://www.w3.org/2000/svg">
<g id="legacy / close-circle / 1px-test-1">
<g id="Vector">
<path fill-rule="evenodd" clip-rule="evenodd" d="M5.85355 5.14645L8 7.293L10.1464 5.14645C10.3417 4.95118 10.6583 4.95118 10.8536 5.14645C11.0488 5.34171 11.0488 5.65829 10.8536 5.85355L8.707 8L10.8536 10.1464C11.0488 10.3417 11.0488 10.6583 10.8536 10.8536C10.6583 11.0488 10.3417 11.0488 10.1464 10.8536L8 8.707L5.85355 10.8536C5.65829 11.0488 5.34171 11.0488 5.14645 10.8536C4.95118 10.6583 4.95118 10.3417 5.14645 10.1464L7.293 8L5.14645 5.85355C4.95118 5.65829 4.95118 5.34171 5.14645 5.14645C5.34171 4.95118 5.65829 4.95118 5.85355 5.14645Z" fill="white"/>
<path fill-rule="evenodd" clip-rule="evenodd" d="M8 16C12.4183 16 16 12.4183 16 8C16 3.58172 12.4183 0 8 0C3.58172 0 0 3.58172 0 8C0 12.4183 3.58172 16 8 16ZM8 7.293L5.85355 5.14645C5.65829 4.95118 5.34171 4.95118 5.14645 5.14645C4.95118 5.34171 4.95118 5.65829 5.14645 5.85355L7.293 8L5.14645 10.1464C4.95118 10.3417 4.95118 10.6583 5.14645 10.8536C5.34171 11.0488 5.65829 11.0488 5.85355 10.8536L8 8.707L10.1464 10.8536C10.3417 11.0488 10.6583 11.0488 10.8536 10.8536C11.0488 10.6583 11.0488 10.3417 10.8536 10.1464L8.707 8L10.8536 5.85355C11.0488 5.65829 11.0488 5.34171 10.8536 5.14645C10.6583 4.95118 10.3417 4.95118 10.1464 5.14645L8 7.293Z" fill="#333333"/>
</g>
</g>
</svg>
