<svg width="16" height="16" viewBox="0 0 16 16" fill="none" xmlns="http://www.w3.org/2000/svg">
<g id="legacy / won / test-2">
<path id="Subtract" fill-rule="evenodd" clip-rule="evenodd" d="M8 16C12.4183 16 16 12.4183 16 8C16 3.58172 12.4183 0 8 0C3.58172 0 0 3.58172 0 8C0 12.4183 3.58172 16 8 16ZM11.8536 5.14645C11.6583 4.95118 11.3417 4.95118 11.1464 5.14645L6.5 9.79289L4.85355 8.14645C4.65829 7.95118 4.34171 7.95118 4.14645 8.14645C3.95118 8.34171 3.95118 8.65829 4.14645 8.85355L6.14645 10.8536C6.34171 11.0488 6.65829 11.0488 6.85355 10.8536L11.8536 5.85355C12.0488 5.65829 12.0488 5.34171 11.8536 5.14645Z" fill="#4BB4B3"/>
</g>
</svg>
