<svg width="16" height="16" viewBox="0 0 16 16" fill="none" xmlns="http://www.w3.org/2000/svg">
<g id="legacy / view-details / 2px">
<g id="icon">
<path d="M6 3.25C5.58579 3.25 5.25 3.58579 5.25 4C5.25 4.41421 5.58579 4.75 6 4.75H10C10.4142 4.75 10.75 4.41421 10.75 4C10.75 3.58579 10.4142 3.25 10 3.25H6Z" fill="#333333"/>
<path d="M5.25 6C5.25 5.58579 5.58579 5.25 6 5.25H10C10.4142 5.25 10.75 5.58579 10.75 6C10.75 6.41421 10.4142 6.75 10 6.75H6C5.58579 6.75 5.25 6.41421 5.25 6Z" fill="#333333"/>
<path d="M6 7.25C5.58579 7.25 5.25 7.58579 5.25 8C5.25 8.41421 5.58579 8.75 6 8.75H10C10.4142 8.75 10.75 8.41421 10.75 8C10.75 7.58579 10.4142 7.25 10 7.25H6Z" fill="#333333"/>
<path fill-rule="evenodd" clip-rule="evenodd" d="M5 0C3.34315 0 2 1.34315 2 3V11C2 12.6569 3.34315 14 5 14H10.1125C10.605 14.465 11.2692 14.75 12 14.75C12.4869 14.75 12.9442 14.6235 13.3409 14.4015L14.4697 15.5303C14.7626 15.8232 15.2374 15.8232 15.5303 15.5303C15.8232 15.2374 15.8232 14.7626 15.5303 14.4697L14.4015 13.3409C14.6235 12.9442 14.75 12.4869 14.75 12C14.75 11.2692 14.465 10.605 14 10.1125V3C14 1.34315 12.6569 0 11 0H5ZM12 9.25C10.4812 9.25 9.25 10.4812 9.25 12H5C4.44772 12 4 11.5523 4 11V3C4 2.44772 4.44772 2 5 2H11C11.5523 2 12 2.44772 12 3V9.25ZM12 10.75C11.3096 10.75 10.75 11.3096 10.75 12C10.75 12.6904 11.3096 13.25 12 13.25C12.6904 13.25 13.25 12.6904 13.25 12C13.25 11.3096 12.6904 10.75 12 10.75Z" fill="#333333"/>
</g>
</g>
</svg>
