<svg width="16" height="16" viewBox="0 0 16 16" fill="none" xmlns="http://www.w3.org/2000/svg">
<g id="legacy / live-chat / outline">
<path id="icon" d="M13.5 5C14.8807 5 16 6.11929 16 7.5V14.5L15.993 14.586C15.9292 14.9728 15.4404 15.1475 15.1464 14.8536L13.294 13H6.5L6.33562 12.9947C5.03154 12.91 4 11.8255 4 10.5C4 10.2239 4.22386 10 4.5 10C4.77614 10 5 10.2239 5 10.5C5 11.3284 5.67157 12 6.5 12H13.5L13.5787 12.0062C13.6821 12.0227 13.7785 12.0714 13.8536 12.1464L15 13.292V7.5L14.9931 7.35554C14.9204 6.59489 14.2797 6 13.5 6C13.2239 6 13 5.77614 13 5.5C13 5.22386 13.2239 5 13.5 5ZM9.5 1C10.8807 1 12 2.11929 12 3.5V6.5C12 7.88071 10.8807 9 9.5 9H2.706L0.853553 10.8536C0.55957 11.1475 0.0708157 10.9728 0.00695512 10.586L0 10.5V3.5C0 2.11929 1.11929 1 2.5 1H9.5ZM9.5 2H2.5C1.67157 2 1 2.67157 1 3.5V9.292L2.14645 8.14645C2.22146 8.07143 2.31786 8.02271 2.42131 8.00623L2.5 8H9.5C10.3284 8 11 7.32843 11 6.5V3.5C11 2.67157 10.3284 2 9.5 2ZM5.5 5C5.77614 5 6 5.22386 6 5.5C6 5.74546 5.82312 5.94961 5.58988 5.99194L5.5 6H3.5C3.22386 6 3 5.77614 3 5.5C3 5.25454 3.17688 5.05039 3.41012 5.00806L3.5 5H5.5ZM8.5 3C8.77614 3 9 3.22386 9 3.5C9 3.74546 8.82312 3.94961 8.58988 3.99194L8.5 4H3.5C3.22386 4 3 3.77614 3 3.5C3 3.25454 3.17688 3.05039 3.41012 3.00806L3.5 3H8.5Z" fill="#333333"/>
</g>
</svg>
