<svg width="16" height="16" viewBox="0 0 16 16" fill="none" xmlns="http://www.w3.org/2000/svg">
<g id="legacy / linkedin">
<path id="icon" fill-rule="evenodd" clip-rule="evenodd" d="M14.8411 0H1.2061C0.553905 0 0 0.51581 0 1.15124V14.848C0 15.4842 0.363429 16 1.01562 16H14.6507C15.3036 16 16 15.4842 16 14.848V1.15124C16 0.51581 15.4941 0 14.8411 0ZM6.09524 6.09524H8.24915V7.19314H8.27276C8.60114 6.60114 9.57105 6 10.7703 6C13.072 6 13.7143 7.2221 13.7143 9.48571V13.7143H11.4286V9.90248C11.4286 8.88914 11.024 8 10.0777 8C8.92876 8 8.38095 8.7779 8.38095 10.0549V13.7143H6.09524V6.09524ZM2.28571 13.7143H4.57143V6.09524H2.28571V13.7143ZM4.85714 3.42857C4.85723 3.61615 4.82036 3.8019 4.74865 3.97523C4.67694 4.14855 4.57179 4.30606 4.4392 4.43874C4.30661 4.57142 4.14919 4.67669 3.97591 4.74853C3.80264 4.82036 3.61691 4.85736 3.42933 4.85741C3.24176 4.85746 3.05601 4.82056 2.8827 4.74882C2.70938 4.67707 2.5519 4.57189 2.41924 4.43928C2.28658 4.30667 2.18135 4.14922 2.10954 3.97593C2.03774 3.80264 2.00078 3.61691 2.00076 3.42933C2.00073 3.0506 2.15113 2.68736 2.41889 2.41951C2.68665 2.15166 3.04984 2.00113 3.42857 2.00103C3.8073 2.00093 4.17057 2.15127 4.43847 2.41897C4.70637 2.68668 4.85697 3.04984 4.85714 3.42857Z" fill="#333333"/>
</g>
</svg>
