<svg width="16" height="16" viewBox="0 0 16 16" fill="none" xmlns="http://www.w3.org/2000/svg">
<g id="legacy / home-old" clip-path="url(#clip0_2943_319)">
<path id="icon" fill-rule="evenodd" clip-rule="evenodd" d="M7.67253 0.372155C7.86047 0.209282 8.13953 0.209282 8.32747 0.372155L15.8275 6.87216C16.0361 7.05301 16.0587 7.36879 15.8778 7.57747C15.697 7.78614 15.3812 7.8087 15.1725 7.62784L14 6.61165V14.25C14 15.0784 13.3284 15.75 12.5 15.75H3.5C2.67157 15.75 2 15.0784 2 14.25V6.61165L0.827465 7.62784C0.618788 7.8087 0.30301 7.78614 0.122156 7.57747C-0.0586984 7.36879 -0.0361429 7.05301 0.172535 6.87216L7.67253 0.372155ZM2.99998 5.745L3 5.75V14.25C3 14.5261 3.22386 14.75 3.5 14.75H5V10.25C5 9.42157 5.67157 8.75 6.5 8.75H9.5C10.3284 8.75 11 9.42157 11 10.25V14.75H12.5C12.7761 14.75 13 14.5261 13 14.25V5.75L13 5.745L8 1.41165L2.99998 5.745ZM10 14.75V10.25C10 9.97386 9.77614 9.75 9.5 9.75H6.5C6.22386 9.75 6 9.97386 6 10.25V14.75H10Z" fill="#333333"/>
</g>
<defs>
<clipPath id="clip0_2943_319">
<rect width="16" height="16" fill="white"/>
</clipPath>
</defs>
</svg>
