<svg width="16" height="16" viewBox="0 0 16 16" fill="none" xmlns="http://www.w3.org/2000/svg">
<g id="legacy / share / 1px" clip-path="url(#clip0_2761_989)">
<g id="icon">
<path d="M7.64645 0.146447C7.84171 -0.0488155 8.15829 -0.0488155 8.35355 0.146447L11.3536 3.14645C11.5488 3.34171 11.5488 3.65829 11.3536 3.85355C11.1583 4.04882 10.8417 4.04882 10.6464 3.85355L8.5 1.70711V9.5C8.5 9.77614 8.27614 10 8 10C7.72386 10 7.5 9.77614 7.5 9.5V1.70711L5.35355 3.85355C5.15829 4.04882 4.84171 4.04882 4.64645 3.85355C4.45118 3.65829 4.45118 3.34171 4.64645 3.14645L7.64645 0.146447Z" fill="black"/>
<path d="M2 7.5C2 6.6717 2.67126 6 3.49981 6H5.5C5.77614 6 6 6.22386 6 6.5C6 6.77614 5.77614 7 5.5 7H3.49981C3.22379 7 3 7.22373 3 7.5V14.5C3 14.7761 3.22386 15 3.5 15H12.5C12.7761 15 13 14.7761 13 14.5V7.5C13 7.22386 12.7761 7 12.5 7H10.5C10.2239 7 10 6.77614 10 6.5C10 6.22386 10.2239 6 10.5 6H12.5C13.3284 6 14 6.67157 14 7.5V14.5C14 15.3284 13.3284 16 12.5 16H3.5C2.67157 16 2 15.3284 2 14.5V7.5Z" fill="black"/>
</g>
</g>
<defs>
<clipPath id="clip0_2761_989">
<rect width="16" height="16" fill="white"/>
</clipPath>
</defs>
</svg>
