<svg width="16" height="16" viewBox="0 0 16 16" fill="none" xmlns="http://www.w3.org/2000/svg">
<g id="legacy / paste / 2px" clip-path="url(#clip0_2761_831)">
<g id="icon">
<path fill-rule="evenodd" clip-rule="evenodd" d="M7.75 7.5C7.75 7.08579 8.08579 6.75 8.5 6.75H12.5C12.9142 6.75 13.25 7.08579 13.25 7.5C13.25 7.91421 12.9142 8.25 12.5 8.25H8.5C8.08579 8.25 7.75 7.91421 7.75 7.5Z" fill="#333333"/>
<path fill-rule="evenodd" clip-rule="evenodd" d="M7.75 10C7.75 9.58579 8.08579 9.25 8.5 9.25H12.5C12.9142 9.25 13.25 9.58579 13.25 10C13.25 10.4142 12.9142 10.75 12.5 10.75H8.5C8.08579 10.75 7.75 10.4142 7.75 10Z" fill="#333333"/>
<path fill-rule="evenodd" clip-rule="evenodd" d="M7.75 12.5C7.75 12.0858 8.08579 11.75 8.5 11.75H12.5C12.9142 11.75 13.25 12.0858 13.25 12.5C13.25 12.9142 12.9142 13.25 12.5 13.25H8.5C8.08579 13.25 7.75 12.9142 7.75 12.5Z" fill="#333333"/>
<path fill-rule="evenodd" clip-rule="evenodd" d="M2.76223 1.00928C3.1067 0.406367 3.75589 0 4.5 0H6.5C7.24411 0 7.89331 0.406367 8.23777 1.00928C9.78347 1.13048 11 2.42317 11 4H13C14.6569 4 16 5.34315 16 7V13C16 14.6569 14.6569 16 13 16H8C6.69378 16 5.58254 15.1652 5.17071 14H3C1.34315 14 0 12.6569 0 11V4C0 2.42317 1.21653 1.13048 2.76223 1.00928ZM5 12V7C5 5.34315 6.34315 4 8 4H9C9 3.44772 8.55228 3 8 3H3C2.44772 3 2 3.44772 2 4V11C2 11.5523 2.44772 12 3 12H5ZM8 6C7.44772 6 7 6.44772 7 7V13C7 13.5523 7.44772 14 8 14H13C13.5523 14 14 13.5523 14 13V7C14 6.44772 13.5523 6 13 6H8Z" fill="#333333"/>
</g>
</g>
<defs>
<clipPath id="clip0_2761_831">
<rect width="16" height="16" fill="white"/>
</clipPath>
</defs>
</svg>
