<svg width="24" height="24" viewBox="0 0 24 24" fill="none" xmlns="http://www.w3.org/2000/svg">
<g id="legacy / templates">
<path id="icon" d="M21.5 2C21.7761 2 22 2.22386 22 2.5V21.5C22 21.7761 21.7761 22 21.5 22H2.5C2.22386 22 2 21.7761 2 21.5V2.5C2 2.22386 2.22386 2 2.5 2H21.5ZM7 18H3V21H7V18ZM21 18H8V21H21V18ZM7 14H3V17H7V14ZM21 14H8V17H21V14ZM21 3H3V13H21V3ZM17.1096 5.18765C17.2821 4.97202 17.5967 4.93706 17.8123 5.10957C18.028 5.28207 18.0629 5.59672 17.8904 5.81235L13.8904 10.8123C13.6863 11.0676 13.2961 11.0615 13.1 10.8L10.4459 7.2612L6.85355 10.8536C6.65829 11.0488 6.34171 11.0488 6.14645 10.8536C5.95118 10.6583 5.95118 10.3417 6.14645 10.1464L10.1464 6.14645C10.3616 5.93129 10.7174 5.95658 10.9 6.2L13.5128 9.68367L17.1096 5.18765Z" fill="#333333"/>
</g>
</svg>
