<svg width="16" height="16" viewBox="0 0 16 16" fill="none" xmlns="http://www.w3.org/2000/svg">
<g id="legacy / phone">
<path id="icon" d="M4.53 0.999967C5.22331 0.995628 5.81692 1.49595 5.93 2.18C6.01522 2.86341 6.17966 3.53459 6.42 4.18C6.61234 4.69343 6.48727 5.27188 6.1 5.66L5.21 6.56C6.20585 8.31555 7.65682 9.76997 9.41 10.77L10.31 9.88C10.6968 9.4904 11.2768 9.36501 11.79 9.56C12.4353 9.80272 13.1064 9.97048 13.79 10.06C14.4959 10.1565 15.0167 10.7677 15 11.48V13.59C15 14.3648 14.3748 14.9945 13.6 15H13.47C11.3022 14.7658 9.21969 14.0259 7.39 12.84C5.69032 11.7605 4.24947 10.3197 3.17 8.62C1.97671 6.78944 1.23315 4.70267 1 2.53C0.963946 2.15676 1.07912 1.78466 1.31973 1.49706C1.56034 1.20946 1.90626 1.0304 2.28 0.999967H4.53ZM4.53 1.99997H2.41C2.29586 1.99969 2.18676 2.04698 2.10894 2.13049C2.03113 2.21399 1.99165 2.32616 2 2.44C2.21537 4.45077 2.90047 6.38275 4 8.08C5.00429 9.66367 6.34632 11.0057 7.93 12.01C9.62889 13.1062 11.5601 13.791 13.57 14.01C13.6822 14.0155 13.7917 13.9747 13.8729 13.8972C13.9542 13.8197 14.0001 13.7123 14 13.6V11.49C14.0126 11.2775 13.8606 11.0908 13.65 11.06C12.9023 10.956 12.1681 10.7716 11.46 10.51H11.32C11.2117 10.512 11.1081 10.5549 11.03 10.63L10.14 11.52C9.82139 11.8369 9.33051 11.9023 8.94 11.68C7.0202 10.5936 5.43057 9.00743 4.34 7.09C4.11765 6.69948 4.1831 6.20861 4.5 5.89L5.4 5C5.52162 4.87511 5.55345 4.68808 5.48 4.53C5.2161 3.82262 5.03164 3.08812 4.93 2.34C4.90009 2.14278 4.72946 1.99774 4.53 1.99997Z" fill="#333333"/>
</g>
</svg>
