<svg width="16" height="16" viewBox="0 0 16 16" fill="none" xmlns="http://www.w3.org/2000/svg">
<g id="legacy / sell-expired">
<g id="trading / trade / sell-expired">
<path id="icon" d="M2.5 1C2.77614 1 3 1.22386 3 1.5V2H13C13.5523 2 14 2.44772 14 3V9C14 9.55229 13.5523 10 13 10H3V14.5C3 14.7761 2.77614 15 2.5 15C2.22386 15 2 14.7761 2 14.5V1.5C2 1.22386 2.22386 1 2.5 1ZM11 7H9V9H11V7ZM7 7H5V9H7V7ZM13 5H11V7H13V5ZM9 5H7V7H9V5ZM5 5H3V7H5V5ZM11 3H9V5H11V3ZM7 3H5V5H7V3Z" fill="#333333"/>
</g>
</g>
</svg>
