<svg width="16" height="16" viewBox="0 0 16 16" fill="none" xmlns="http://www.w3.org/2000/svg">
<g id="legacy / reports" clip-path="url(#clip0_2761_1085)">
<path id="icon" d="M13 8V15H14C14.5523 15 15 14.5523 15 14V8H13ZM9 0L13 4V7H16V14C16 15.1046 15.1046 16 14 16H1C0.447715 16 0 15.5523 0 15V1C0 0.447715 0.447715 0 1 0H9ZM8.58579 1H1V15H12V4.41421L8.58579 1ZM6.5 11C6.77614 11 7 11.2239 7 11.5C7 11.7761 6.77614 12 6.5 12H3.5C3.22386 12 3 11.7761 3 11.5C3 11.2239 3.22386 11 3.5 11H6.5ZM9.5 9C9.77614 9 10 9.22386 10 9.5C10 9.77614 9.77614 10 9.5 10H3.5C3.22386 10 3 9.77614 3 9.5C3 9.22386 3.22386 9 3.5 9H9.5ZM9.5 7C9.77614 7 10 7.22386 10 7.5C10 7.77614 9.77614 8 9.5 8H3.5C3.22386 8 3 7.77614 3 7.5C3 7.22386 3.22386 7 3.5 7H9.5ZM9.5 5C9.77614 5 10 5.22386 10 5.5C10 5.77614 9.77614 6 9.5 6H3.5C3.22386 6 3 5.77614 3 5.5C3 5.22386 3.22386 5 3.5 5H9.5Z" fill="#333333"/>
</g>
<defs>
<clipPath id="clip0_2761_1085">
<rect width="16" height="16" fill="white"/>
</clipPath>
</defs>
</svg>
