<svg width="16" height="16" viewBox="0 0 16 16" fill="none" xmlns="http://www.w3.org/2000/svg">
<g id="legacy / entry-spot" clip-path="url(#clip0_2761_469)">
<path id="icon" d="M8 0C12.4183 0 16 3.58172 16 8C16 12.4183 12.4183 16 8 16C3.58172 16 0 12.4183 0 8C0 3.58172 3.58172 0 8 0ZM8 1.14286C4.38124 1.14286 1.4172 3.94604 1.16085 7.49944L8.129 7.499L6.16737 5.49581C5.96901 5.29332 5.94697 4.97899 6.10125 4.75164L6.16737 4.67085C6.39052 4.44305 6.75233 4.44305 6.97549 4.67085L9.83263 7.58752C9.92068 7.6774 9.97399 7.78932 9.99256 7.90588C9.99663 7.93645 10 7.96787 10 8L9.99449 7.91897C9.99678 7.9357 9.99835 7.95251 9.99922 7.96935L10 8C10 8.01023 9.99966 8.02038 9.99899 8.03046C9.9984 8.04716 9.99676 8.06465 9.99435 8.08204C9.99182 8.08607 9.99104 8.09003 9.9902 8.09399C9.97399 8.21068 9.92068 8.3226 9.83263 8.41248L6.97549 11.3291C6.75233 11.557 6.39052 11.557 6.16737 11.3291C5.94421 11.1013 5.94421 10.732 6.16737 10.5042L8.131 8.499L1.16078 8.49956C1.41665 12.0534 4.3809 14.8571 8 14.8571C11.7871 14.8571 14.8571 11.7871 14.8571 8C14.8571 4.2129 11.7871 1.14286 8 1.14286Z" fill="#333333"/>
</g>
<defs>
<clipPath id="clip0_2761_469">
<rect width="16" height="16" fill="white"/>
</clipPath>
</defs>
</svg>
