<svg width="16" height="16" viewBox="0 0 16 16" fill="none" xmlns="http://www.w3.org/2000/svg">
<g id="legacy / trade-type-multipliers">
<g id="icon">
<path fill-rule="evenodd" clip-rule="evenodd" d="M13.1383 2.15476C13.2327 2.05592 13.3634 2 13.5 2H15.5C15.7761 2 16 2.22386 16 2.5C16 2.77614 15.7761 3 15.5 3H13.714L3.36168 13.8452C3.26733 13.9441 3.13664 14 3 14H0.5C0.223858 14 0 13.7761 0 13.5C0 13.2239 0.223858 13 0.5 13H2.78605L13.1383 2.15476Z" fill="#333333"/>
<path d="M6.08994 6.64223L6.78215 5.91706L3.36997 2.16366C3.27521 2.05943 3.14087 2 3 2H0.5C0.223858 2 0 2.22386 0 2.5C0 2.77614 0.223858 3 0.5 3H2.77882L6.08994 6.64223Z" fill="#333333"/>
<path d="M9.46175 10.3512L10.154 9.62606L13.2212 13H15.5C15.7761 13 16 13.2239 16 13.5C16 13.7761 15.7761 14 15.5 14H13C12.8591 14 12.7248 13.9406 12.63 13.8363L9.46175 10.3512Z" fill="#333333"/>
</g>
</g>
</svg>
