<svg width="16" height="16" viewBox="0 0 16 16" fill="none" xmlns="http://www.w3.org/2000/svg">
<g id="legacy / forward / 2px">
<path id="icon" d="M2.70711 1.29289L8.70711 7.2929C9.09763 7.68342 9.09763 8.31659 8.70711 8.70711L2.70711 14.7071C2.31658 15.0976 1.68342 15.0976 1.29289 14.7071C0.902369 14.3166 0.902369 13.6834 1.29289 13.2929L6.58579 8L1.29289 2.70711C0.902369 2.31658 0.902369 1.68342 1.29289 1.29289C1.68342 0.902369 2.31658 0.902369 2.70711 1.29289ZM8.70711 1.29289L14.7071 7.2929C15.0976 7.68342 15.0976 8.31659 14.7071 8.70711L8.70711 14.7071C8.31658 15.0976 7.68342 15.0976 7.29289 14.7071C6.90237 14.3166 6.90237 13.6834 7.29289 13.2929L12.5858 8L7.29289 2.70711C6.90237 2.31658 6.90237 1.68342 7.29289 1.29289C7.68342 0.902369 8.31658 0.902369 8.70711 1.29289Z" fill="#333333"/>
</g>
</svg>
