<svg width="16" height="16" viewBox="0 0 16 16" fill="none" xmlns="http://www.w3.org/2000/svg">
<g id="legacy / exit-time">
<rect width="16" height="16" rx="8" fill="#4BB4B3"/>
<path id="icon" d="M3.79798 2.66669C4.04344 2.66669 4.24242 2.86567 4.24242 3.11113L4.242 3.55535L12.4444 3.55558C12.9354 3.55558 13.3333 3.95354 13.3333 4.44446V9.7778C13.3333 10.2687 12.9354 10.6667 12.4444 10.6667H4.242L4.24242 12.8889C4.24242 13.1344 4.04344 13.3334 3.79798 13.3334H3.77778C3.53232 13.3334 3.33333 13.1344 3.33333 12.8889V3.11113C3.33333 2.86567 3.53232 2.66669 3.77778 2.66669H3.79798ZM12.4242 8.00002H10.6061V9.7778H12.4242V8.00002ZM8.78788 8.00002H6.9697V9.7778H8.78788V8.00002ZM10.6061 6.22224H8.78788V8.00002H10.6061V6.22224ZM6.9697 6.22224H5.15151V8.00002H6.9697V6.22224ZM8.78788 4.44446H6.9697V6.22224H8.78788V4.44446ZM12.4242 4.44446H10.6061V6.22224H12.4242V4.44446Z" fill="white"/>
</g>
</svg>
