<svg width="16" height="16" viewBox="0 0 16 16" fill="none" xmlns="http://www.w3.org/2000/svg">
<g id="legacy / edit / 1px" clip-path="url(#clip0_2761_845)">
<path id="icon" fill-rule="evenodd" clip-rule="evenodd" d="M11.1464 1.14644C12.1701 0.122755 13.8299 0.122755 14.8536 1.14644C15.8772 2.17013 15.8772 3.82986 14.8536 4.85355L3.70711 16H0V12.2929L11.1464 1.14644ZM14.1464 1.85355C13.5133 1.22039 12.4867 1.22039 11.8536 1.85355L11.2071 2.49998L13.5 4.79288L14.1464 4.14644C14.7796 3.51328 14.7796 2.48672 14.1464 1.85355ZM12.7929 5.49998L10.5 3.20709L2.70712 11L5.00001 13.2929L12.7929 5.49998ZM1 12.7071L2.00001 11.7071L4.29291 14L3.29289 15H1V12.7071Z" fill="#333333"/>
</g>
<defs>
<clipPath id="clip0_2761_845">
<rect width="16" height="16" fill="white"/>
</clipPath>
</defs>
</svg>
