<svg width="16" height="16" viewBox="0 0 16 16" fill="none" xmlns="http://www.w3.org/2000/svg">
<g id="legacy / deriv" clip-path="url(#clip0_2761_1061)">
<path id="Vector" d="M7.99109 15.9492H5.78162C4.4491 15.9492 3.27918 15.4297 2.48621 14.4854C1.6781 13.5225 1.36463 12.2451 1.60291 10.8887L1.78748 9.83691C2.26453 7.14111 4.84656 4.94922 7.54432 4.94922H9.77381L10.5258 0.684082L14.475 0.0493164L12.3178 12.2764C11.9613 14.3018 10.0199 15.9492 7.99109 15.9492ZM7.54432 5.94922C5.30896 5.94922 3.16834 7.771 2.77234 10.0098L2.58826 11.0615C2.40174 12.1221 2.63758 13.1094 3.25232 13.8418C3.85144 14.5557 4.74988 14.9492 5.78162 14.9492H7.99109C9.5575 14.9492 11.057 13.6719 11.3334 12.1025L13.2465 1.25928L11.3871 1.55811L10.6137 5.94922H7.54432ZM7.92225 13.291H6.57947C5.89832 13.291 5.29725 13.0225 4.88709 12.5342C4.46961 12.0371 4.30652 11.3818 4.42762 10.6904L4.54383 10.0332C4.78553 8.67139 6.04187 7.60547 7.40418 7.60547H10.3207L9.56971 11.8682C9.42713 12.6797 8.71863 13.291 7.92225 13.291ZM7.40418 8.60547C6.54187 8.60547 5.6825 9.33887 5.5282 10.208L5.41248 10.8633C5.34363 11.2588 5.42859 11.624 5.65271 11.8906C5.86951 12.1484 6.19861 12.291 6.57947 12.291H7.92225C8.22449 12.291 8.52771 12.0176 8.58435 11.6953L8.58484 11.6943L9.12928 8.60547H7.40418Z" fill="#333333"/>
</g>
<defs>
<clipPath id="clip0_2761_1061">
<rect width="16" height="16" fill="white"/>
</clipPath>
</defs>
</svg>
