<svg width="16" height="16" viewBox="0 0 16 16" fill="none" xmlns="http://www.w3.org/2000/svg">
<g id="legacy / target">
<g id="trading / trade / target" clip-path="url(#clip0_2761_532)">
<g id="icon">
<path fill-rule="evenodd" clip-rule="evenodd" d="M8 0C8.27614 0 8.5 0.223858 8.5 0.5V4.5C8.5 4.77614 8.27614 5 8 5C7.72386 5 7.5 4.77614 7.5 4.5V0.5C7.5 0.223858 7.72386 0 8 0Z" fill="#333333"/>
<path fill-rule="evenodd" clip-rule="evenodd" d="M8 11C8.27614 11 8.5 11.2239 8.5 11.5V15.5C8.5 15.7761 8.27614 16 8 16C7.72386 16 7.5 15.7761 7.5 15.5V11.5C7.5 11.2239 7.72386 11 8 11Z" fill="#333333"/>
<path fill-rule="evenodd" clip-rule="evenodd" d="M11 8C11 7.72386 11.2239 7.5 11.5 7.5H15.5C15.7761 7.5 16 7.72386 16 8C16 8.27614 15.7761 8.5 15.5 8.5H11.5C11.2239 8.5 11 8.27614 11 8Z" fill="#333333"/>
<path fill-rule="evenodd" clip-rule="evenodd" d="M0 8C0 7.72386 0.223858 7.5 0.5 7.5H4.5C4.77614 7.5 5 7.72386 5 8C5 8.27614 4.77614 8.5 4.5 8.5H0.5C0.223858 8.5 0 8.27614 0 8Z" fill="#333333"/>
<path fill-rule="evenodd" clip-rule="evenodd" d="M8 14C11.3137 14 14 11.3137 14 8C14 4.68629 11.3137 2 8 2C4.68629 2 2 4.68629 2 8C2 11.3137 4.68629 14 8 14ZM8 15C11.866 15 15 11.866 15 8C15 4.13401 11.866 1 8 1C4.13401 1 1 4.13401 1 8C1 11.866 4.13401 15 8 15Z" fill="#333333"/>
</g>
</g>
</g>
<defs>
<clipPath id="clip0_2761_532">
<rect width="16" height="16" fill="white"/>
</clipPath>
</defs>
</svg>
