<svg width="16" height="16" viewBox="0 0 16 16" fill="none" xmlns="http://www.w3.org/2000/svg">
<g id="legacy / accumulator" clip-path="url(#clip0_2761_617)">
<g id="icon">
<path d="M0 0.5C0 0.223858 0.223858 0 0.5 0H2.5C2.65927 0 2.80902 0.0758806 2.9032 0.204318L8.53091 7.87847L11.2226 6.08397C11.421 5.95177 11.685 5.97791 11.8536 6.14645L13.7071 8H15.5C15.7761 8 16 8.22386 16 8.5C16 8.77614 15.7761 9 15.5 9H13.5C13.3674 9 13.2402 8.94732 13.1464 8.85355L11.4363 7.1434L9.12287 8.68568L11.6667 12.1545L12.2867 13L13.7534 15H15.5C15.7761 15 16 15.2239 16 15.5C16 15.7761 15.7761 16 15.5 16H13.5C13.3407 16 13.191 15.9241 13.0968 15.7957L8.28998 9.24094L5.77735 10.916C5.55655 11.0632 5.25922 11.0123 5.1 10.8L2.25 7H0.5C0.223858 7 0 6.77614 0 6.5C0 6.22386 0.223858 6 0.5 6H2.5C2.65738 6 2.80557 6.0741 2.9 6.2L5.6162 9.82161L7.69803 8.43372L4.33333 3.8455L3.7133 3L2.24663 1H0.5C0.223858 1 0 0.776142 0 0.5Z" fill="#333333"/>
<path d="M0 3H1.41667V4H0V3Z" fill="#333333"/>
<path d="M2.91667 3H3.7133H4.33333V3.8455V4H2.91667V3Z" fill="#333333"/>
<path d="M5.83333 3H7.25V4H5.83333V3Z" fill="#333333"/>
<path d="M8.75 3H10.1667V4H8.75V3Z" fill="#333333"/>
<path d="M11.6667 3H13.0833V4H11.6667V3Z" fill="#333333"/>
<path d="M14.5833 3H16V4H14.5833V3Z" fill="#333333"/>
<path d="M0 12H1.41667V13H0V12Z" fill="#333333"/>
<path d="M2.91667 12H4.33333V13H2.91667V12Z" fill="#333333"/>
<path d="M5.83333 12H7.25V13H5.83333V12Z" fill="#333333"/>
<path d="M8.75 12H10.1667V13H8.75V12Z" fill="#333333"/>
<path d="M11.6667 12H13.0833V13H12.2867H11.6667V12.1545V12Z" fill="#333333"/>
<path d="M14.5833 12H16V13H14.5833V12Z" fill="#333333"/>
</g>
</g>
<defs>
<clipPath id="clip0_2761_617">
<rect width="16" height="16" fill="white"/>
</clipPath>
</defs>
</svg>
