<svg width="16" height="16" viewBox="0 0 16 16" fill="none" xmlns="http://www.w3.org/2000/svg">
<g id="legacy / market-synthetic-indices">
<path id="icon" d="M12.5 1L12.5233 1.00049C12.5367 1.0011 12.5501 1.00225 12.5634 1.00395C12.5793 1.00606 12.5948 1.0088 12.61 1.01223C12.6231 1.01506 12.6361 1.01856 12.6491 1.02261C12.6611 1.02649 12.6729 1.03067 12.6845 1.03528C12.6983 1.04064 12.7126 1.04706 12.7266 1.0542C12.7423 1.06232 12.7571 1.07085 12.7715 1.08011C12.7784 1.08461 12.7856 1.08953 12.7927 1.09466C12.8628 1.146 12.9178 1.21198 12.954 1.29047L12.9159 1.22217C12.9334 1.24835 12.9482 1.27596 12.9603 1.30456L15.954 7.79047C15.9559 7.79468 15.9578 7.7989 15.9596 7.80314C15.9674 7.82091 15.9741 7.83954 15.9797 7.85865C15.9836 7.87214 15.9869 7.88555 15.9897 7.89904C15.9935 7.91705 15.9963 7.93562 15.998 7.95449C15.9989 7.96566 15.9996 7.97638 15.9998 7.9871C15.9999 7.99115 16 7.99557 16 8L15.9969 8.05532C15.9958 8.06504 15.9945 8.07473 15.9928 8.08438L16 8C16 8.09424 15.9739 8.18239 15.9286 8.25763L15.9258 8.26205L11.9258 14.762C11.9247 14.7638 11.9236 14.7656 11.9225 14.7674C11.9152 14.7791 11.9074 14.7903 11.8992 14.8013C11.8899 14.8134 11.8802 14.8251 11.8701 14.8362C11.8617 14.8457 11.852 14.8555 11.842 14.865C11.8306 14.8754 11.819 14.8853 11.807 14.8947C11.7969 14.9026 11.7865 14.9101 11.7757 14.9172C11.7626 14.9258 11.749 14.9338 11.7352 14.9412C11.7314 14.9432 11.7275 14.9453 11.7236 14.9472L11.6983 14.959C11.6834 14.9654 11.6682 14.9711 11.6527 14.9761L11.7236 14.9472C11.6863 14.9659 11.6477 14.9794 11.6087 14.9882C11.5735 14.9959 11.5371 15 11.5 15L11.5727 14.9948C11.5566 14.9972 11.5405 14.9988 11.5244 14.9995L11.5 15H3.5C3.48641 15 3.4729 14.9994 3.45951 14.9984C3.45172 14.9978 3.44372 14.997 3.43574 14.9959C3.41634 14.9933 3.39742 14.9898 3.37885 14.9851C3.36954 14.9829 3.35985 14.9802 3.35022 14.9772C3.33439 14.9721 3.31923 14.9665 3.30439 14.9602C3.29309 14.9555 3.28118 14.9499 3.26943 14.9438C3.22023 14.918 3.17578 14.8846 3.13765 14.8446L3.2 14.9C3.16727 14.8755 3.13841 14.8477 3.11353 14.8174C3.08706 14.7851 3.06418 14.7489 3.04602 14.7095L3.08194 14.7745C3.07585 14.7652 3.07009 14.7558 3.06466 14.7462L3.04602 14.7095L0.0460203 8.20953C0.0437592 8.20463 0.0415821 8.19971 0.039489 8.19476C0.0335678 8.18113 0.0282466 8.1668 0.02358 8.15218C0.0184814 8.13575 0.0142342 8.11966 0.0108062 8.10344C0.0088363 8.09459 0.00707382 8.08487 0.00559652 8.07506C0.00241872 8.05356 0.00060907 8.03251 0.000128403 8.01147C4.22175e-05 8.00758 0 8.00379 0 8L0.000107798 7.98956C0.000565031 7.96774 0.00244899 7.94597 0.00574715 7.9244L0 8C0 7.96462 0.00367368 7.93011 0.0106603 7.89681C0.0142832 7.88001 0.0188334 7.86288 0.0242992 7.84599C0.0282632 7.83334 0.0327982 7.82103 0.0377922 7.80896C0.0513651 7.77644 0.0683828 7.74504 0.0889039 7.71539L0.0570343 7.76787C0.0632933 7.75595 0.0700193 7.74432 0.077188 7.73299L0.0889039 7.71539L4.5889 1.21539C4.59446 1.20737 4.60022 1.19955 4.60619 1.19191C4.61751 1.17717 4.63056 1.16229 4.64455 1.14816C4.65284 1.13995 4.66162 1.13169 4.67067 1.12377C4.68383 1.11208 4.69839 1.10067 4.71368 1.09001C4.72528 1.082 4.73687 1.07461 4.74874 1.06772C4.75737 1.06268 4.76677 1.0576 4.77639 1.05279L4.79476 1.04407C4.8075 1.03833 4.82049 1.03312 4.8337 1.02846L4.77639 1.05279C4.81245 1.03476 4.84965 1.02149 4.88727 1.01276C4.92353 1.00444 4.96148 1 5 1L4.9173 1.00675C4.94105 1.00276 4.96488 1.00054 4.98863 1.00001L5 1H12.5ZM6.827 8.5H1.28L3.602 13.531L4.6 12.2C4.76569 11.9791 5.07909 11.9343 5.3 12.1C5.49637 12.2473 5.55356 12.5113 5.44748 12.7233L5.4 12.8L4.5 14H10.69L7.989 8.598L6.40534 10.7927C6.24366 11.0166 5.93112 11.067 5.70725 10.9053C5.50827 10.7616 5.44633 10.4987 5.54857 10.2848L5.59466 10.2073L6.827 8.5ZM12.404 2.486L8.783 7.5H10.5C10.7761 7.5 11 7.72386 11 8C11 8.24546 10.8231 8.44961 10.5899 8.49194L10.5 8.5H9.059L11.545 13.471L14.604 8.5H12.5C12.2239 8.5 12 8.27614 12 8C12 7.75454 12.1769 7.55039 12.4101 7.50806L12.5 7.5H14.718L12.404 2.486ZM11.521 2H5.809L6.44721 3.27639C6.57071 3.52338 6.4706 3.82372 6.22361 3.94721C6.00406 4.05699 5.74236 3.99008 5.60019 3.80039L5.55279 3.72361L4.929 2.478L1.453 7.5H7.44L6.55279 5.72361C6.42929 5.47662 6.5294 5.17628 6.77639 5.05279C6.99594 4.94301 7.25764 5.00992 7.39981 5.19961L7.44721 5.27639L8.146 6.674L11.521 2Z" fill="#333333"/>
</g>
</svg>
