<svg width="16" height="16" viewBox="0 0 16 16" fill="none" xmlns="http://www.w3.org/2000/svg">
<g id="legacy / cashier">
<path id="icon" d="M1.5 6C1.22386 6 1 6.22386 1 6.5V13.5C1 13.7761 1.22386 14 1.5 14H14.5C14.7761 14 15 13.7761 15 13.5V6.5C15 6.22386 14.7761 6 14.5 6H1.5ZM15 1C15.5523 1 16 1.44772 16 2V3C16 3.55228 15.5523 4 15 4H13V5H14.5C15.3284 5 16 5.67157 16 6.5V13.5C16 14.3284 15.3284 15 14.5 15H1.5C0.671573 15 0 14.3284 0 13.5V6.5C0 5.67157 0.671573 5 1.5 5H2V3H7V5H12V4H10C9.44771 4 9 3.55228 9 3V2C9 1.44772 9.44771 1 10 1H15ZM15 11H1V12H15V11ZM13.5 9H10.5C10.2239 9 10 9.22386 10 9.5C10 9.77614 10.2239 10 10.5 10H13.5C13.7761 10 14 9.77614 14 9.5C14 9.22386 13.7761 9 13.5 9ZM8.5 9C8.22386 9 8 9.22386 8 9.5C8 9.77614 8.22386 10 8.5 10C8.77614 10 9 9.77614 9 9.5C9 9.22386 8.77614 9 8.5 9ZM6.5 9C6.22386 9 6 9.22386 6 9.5C6 9.77614 6.22386 10 6.5 10C6.77614 10 7 9.77614 7 9.5C7 9.22386 6.77614 9 6.5 9ZM4.5 9C4.22386 9 4 9.22386 4 9.5C4 9.77614 4.22386 10 4.5 10C4.77614 10 5 9.77614 5 9.5C5 9.22386 4.77614 9 4.5 9ZM2.5 9C2.22386 9 2 9.22386 2 9.5C2 9.77614 2.22386 10 2.5 10C2.77614 10 3 9.77614 3 9.5C3 9.22386 2.77614 9 2.5 9ZM13.5 7H10.5C10.2239 7 10 7.22386 10 7.5C10 7.77614 10.2239 8 10.5 8H13.5C13.7761 8 14 7.77614 14 7.5C14 7.22386 13.7761 7 13.5 7ZM8.5 7C8.22386 7 8 7.22386 8 7.5C8 7.77614 8.22386 8 8.5 8C8.77614 8 9 7.77614 9 7.5C9 7.22386 8.77614 7 8.5 7ZM6.5 7C6.22386 7 6 7.22386 6 7.5C6 7.77614 6.22386 8 6.5 8C6.77614 8 7 7.77614 7 7.5C7 7.22386 6.77614 7 6.5 7ZM4.5 7C4.22386 7 4 7.22386 4 7.5C4 7.77614 4.22386 8 4.5 8C4.77614 8 5 7.77614 5 7.5C5 7.22386 4.77614 7 4.5 7ZM2.5 7C2.22386 7 2 7.22386 2 7.5C2 7.77614 2.22386 8 2.5 8C2.77614 8 3 7.77614 3 7.5C3 7.22386 2.77614 7 2.5 7ZM6 4H3V5H6V4ZM15 2H10V3H15V2Z" fill="#333333"/>
</g>
</svg>
