<svg width="24" height="24" viewBox="0 0 24 24" fill="none" xmlns="http://www.w3.org/2000/svg">
<g id="legacy / adx">
<path id="icon - blue" d="M20.4188 15.1863C20.8682 14.8653 21.4927 14.9694 21.8137 15.4188C22.1347 15.8682 22.0307 16.4927 21.5812 16.8137L14.5812 21.8137C14.2111 22.0781 13.7092 22.0594 13.3598 21.7682L8.06137 17.3528L3.70711 21.7071C3.31658 22.0976 2.68342 22.0976 2.29289 21.7071C1.90237 21.3166 1.90237 20.6834 2.29289 20.2929L7.29289 15.2929C7.65861 14.9272 8.24286 14.9007 8.64018 15.2318L14.047 19.7375L20.4188 15.1863ZM7.29289 2.2929C7.70479 1.881 8.38016 1.90694 8.75926 2.34921L14.0565 8.52931L20.2929 2.2929C20.6834 1.90237 21.3166 1.90237 21.7071 2.2929C22.0976 2.68342 22.0976 3.31658 21.7071 3.70711L14.7071 10.7071C14.2952 11.119 13.6198 11.0931 13.2407 10.6508L7.94352 4.4707L3.70711 8.70711C3.31658 9.09763 2.68342 9.09763 2.29289 8.70711C1.90237 8.31658 1.90237 7.68342 2.29289 7.2929L7.29289 2.2929Z" fill="#85ACB0"/>
<path id="line - gray" d="M3 14H21C21.5523 14 22 13.5523 22 13C22 12.4477 21.5523 12 21 12H3C2.44772 12 2 12.4477 2 13C2 13.5523 2.44772 14 3 14Z" fill="#D6DADB"/>
</g>
</svg>
