<svg width="24" height="24" viewBox="0 0 24 24" fill="none" xmlns="http://www.w3.org/2000/svg">
<g id="legacy / aroon">
<path id="icon - blue" d="M12.7515 8.6536L15.92 11.03C16.3898 11.3824 17.0607 11.2559 17.37 10.7567L21.85 3.5267C22.1409 3.05724 21.9962 2.44084 21.5267 2.14995C21.0573 1.85905 20.4409 2.0038 20.15 2.47327L16.2456 8.77421L13.12 6.42998C12.6661 6.08953 12.0201 6.19457 11.6974 6.6613L2.17744 20.4313C1.86337 20.8856 1.97703 21.5085 2.43132 21.8225C2.8856 22.1366 3.50848 22.023 3.82256 21.5687L12.7515 8.6536Z" fill="#85ACB0"/>
<path id="icon - red" d="M5.84458 7.56963L15.1679 21.5547C15.518 22.0798 16.2609 22.1533 16.7071 21.7071L21.7071 16.7071C22.0976 16.3166 22.0976 15.6834 21.7071 15.2929C21.3166 14.9024 20.6834 14.9024 20.2929 15.2929L16.1554 19.4303L6.83205 5.44529C6.48201 4.92022 5.73911 4.84666 5.29289 5.29288L2.29289 8.29288C1.90237 8.68341 1.90237 9.31657 2.29289 9.70709C2.68342 10.0976 3.31658 10.0976 3.70711 9.70709L5.84458 7.56963Z" fill="#FF444F"/>
</g>
</svg>
