<svg width="16" height="16" viewBox="0 0 16 16" fill="none" xmlns="http://www.w3.org/2000/svg">
<g id="legacy / reddit">
<g id="icon">
<path d="M6.1661 7.99998C5.70762 7.99998 5.33335 8.37425 5.33335 8.83273C5.33335 9.29121 5.70762 9.66548 6.1661 9.66548C6.62458 9.66548 6.99885 9.29121 6.99885 8.83273C6.99885 8.37425 6.62458 7.99998 6.1661 7.99998Z" fill="#333333"/>
<path d="M8.00938 11.6397C8.3275 11.6397 9.41288 11.6023 9.98364 11.0316C10.0679 10.9474 10.0679 10.8164 10.0024 10.7228C9.91815 10.6386 9.7778 10.6386 9.69359 10.7228C9.32867 11.0783 8.57078 11.2093 8.01873 11.2093C7.46669 11.2093 6.69943 11.0783 6.34388 10.7228C6.25967 10.6386 6.11932 10.6386 6.03511 10.7228C5.95089 10.807 5.95089 10.9474 6.03511 11.0316C6.59651 11.593 7.69125 11.6397 8.00938 11.6397Z" fill="#333333"/>
<path d="M9.00119 8.83273C9.00119 9.29121 9.37546 9.66548 9.83394 9.66548C10.2924 9.66548 10.6667 9.29121 10.6667 8.83273C10.6667 8.37425 10.2924 7.99998 9.83394 7.99998C9.37546 7.99998 9.00119 8.37425 9.00119 8.83273Z" fill="#333333"/>
<path fill-rule="evenodd" clip-rule="evenodd" d="M16 8C16 12.4183 12.4183 16 8 16C3.58172 16 0 12.4183 0 8C0 3.58172 3.58172 0 8 0C12.4183 0 16 3.58172 16 8ZM12.1638 6.83039C12.8094 6.83039 13.3334 7.35437 13.3334 7.99998C13.3334 8.47717 13.0433 8.88887 12.6597 9.076C12.6784 9.18829 12.6877 9.30057 12.6877 9.4222C12.6877 11.2187 10.6012 12.669 8.01873 12.669C5.43628 12.669 3.34973 11.2187 3.34973 9.4222C3.34973 9.30057 3.35908 9.17893 3.3778 9.06665C2.9661 8.87951 2.6854 8.47717 2.6854 7.99998C2.6854 7.35437 3.20937 6.83039 3.85499 6.83039C4.16376 6.83039 4.45382 6.96138 4.65967 7.15788C5.46435 6.5684 6.5778 6.20349 7.82224 6.16606L8.41171 3.37776C8.43043 3.32162 8.4585 3.27484 8.50528 3.24677C8.55207 3.2187 8.60821 3.20934 8.66435 3.2187L10.6012 3.63039C10.7322 3.34969 11.0129 3.16255 11.3404 3.16255C11.7988 3.16255 12.1731 3.53682 12.1731 3.9953C12.1731 4.45378 11.7988 4.82805 11.3404 4.82805C10.8912 4.82805 10.5263 4.4725 10.5076 4.03273L8.77663 3.66782L8.24329 6.16606C9.45967 6.21285 10.5638 6.58712 11.3591 7.15788C11.5649 6.95203 11.8456 6.83039 12.1638 6.83039Z" fill="#333333"/>
</g>
</g>
</svg>
