<svg width="24" height="24" viewBox="0 0 24 24" fill="none" xmlns="http://www.w3.org/2000/svg">
<g id="legacy / chart-type-ohlc">
<path id="icon" d="M6.5 9C6.74546 9 6.94961 9.17688 6.99194 9.41012L7 9.5V12H11.5C11.7455 12 11.9496 12.1769 11.9919 12.4101L12 12.5C12 12.7455 11.8231 12.9496 11.5899 12.9919L11.5 13H7V21.5C7 21.7455 6.82312 21.9496 6.58988 21.9919L6.5 22C6.25454 22 6.05039 21.8231 6.00806 21.5899L6 21.5V19H2.5C2.25454 19 2.05039 18.8231 2.00806 18.5899L2 18.5C2 18.2545 2.17688 18.0504 2.41012 18.0081L2.5 18H6V9.5C6 9.25454 6.17688 9.05039 6.41012 9.00806L6.5 9ZM16.5 10C16.7455 10 16.9496 10.1769 16.9919 10.4101L17 10.5V19H21.5C21.7455 19 21.9496 19.1769 21.9919 19.4101L22 19.5C22 19.7455 21.8231 19.9496 21.5899 19.9919L21.5 20H17V21.5C17 21.7455 16.8231 21.9496 16.5899 21.9919L16.5 22C16.2545 22 16.0504 21.8231 16.0081 21.5899L16 21.5V16H12.5C12.2545 16 12.0504 15.8231 12.0081 15.5899L12 15.5C12 15.2545 12.1769 15.0504 12.4101 15.0081L12.5 15H16V10.5C16 10.2545 16.1769 10.0504 16.4101 10.0081L16.5 10Z" fill="#333333"/>
<path id="number" d="M2.096 3.624C2.39467 3.624 2.61067 3.568 2.744 3.456C2.88267 3.33867 2.952 3.19467 2.952 3.024V2.968C2.952 2.76533 2.88533 2.60267 2.752 2.48C2.624 2.35733 2.44 2.296 2.2 2.296C1.976 2.296 1.76533 2.35467 1.568 2.472C1.37067 2.584 1.20267 2.74667 1.064 2.96L0.312 2.256C0.418667 2.11733 0.533333 1.992 0.656 1.88C0.778667 1.76267 0.917333 1.664 1.072 1.584C1.22667 1.49867 1.4 1.43467 1.592 1.392C1.784 1.344 2 1.32 2.24 1.32C2.53867 1.32 2.808 1.35467 3.048 1.424C3.29333 1.49333 3.50133 1.59467 3.672 1.728C3.848 1.856 3.98133 2.01067 4.072 2.192C4.168 2.37333 4.216 2.576 4.216 2.8C4.216 2.976 4.18667 3.136 4.128 3.28C4.07467 3.424 3.99733 3.54933 3.896 3.656C3.8 3.76267 3.688 3.85067 3.56 3.92C3.432 3.984 3.296 4.02933 3.152 4.056V4.104C3.31733 4.136 3.46933 4.18933 3.608 4.264C3.752 4.33333 3.87467 4.424 3.976 4.536C4.08267 4.648 4.16533 4.78133 4.224 4.936C4.28267 5.08533 4.312 5.256 4.312 5.448C4.312 5.69867 4.26133 5.92533 4.16 6.128C4.05867 6.33067 3.91467 6.504 3.728 6.648C3.54133 6.792 3.31733 6.904 3.056 6.984C2.79467 7.05867 2.50667 7.096 2.192 7.096C1.90933 7.096 1.65867 7.06667 1.44 7.008C1.22133 6.94933 1.02933 6.872 0.864 6.776C0.704 6.67467 0.562667 6.56 0.44 6.432C0.322667 6.304 0.218667 6.168 0.128 6.024L1.016 5.336C1.13867 5.56533 1.288 5.75467 1.464 5.904C1.64533 6.048 1.888 6.12 2.192 6.12C2.464 6.12 2.67467 6.05333 2.824 5.92C2.97867 5.78133 3.056 5.59467 3.056 5.36V5.312C3.056 5.08267 2.968 4.912 2.792 4.8C2.62133 4.68267 2.384 4.624 2.08 4.624H1.576V3.624H2.096ZM7.19688 7.096C6.46621 7.096 5.92488 6.84267 5.57288 6.336C5.22088 5.82933 5.04488 5.12 5.04488 4.208C5.04488 3.296 5.22088 2.58667 5.57288 2.08C5.92488 1.57333 6.46621 1.32 7.19688 1.32C7.92754 1.32 8.46888 1.57333 8.82088 2.08C9.17288 2.58667 9.34888 3.296 9.34888 4.208C9.34888 5.12 9.17288 5.82933 8.82088 6.336C8.46888 6.84267 7.92754 7.096 7.19688 7.096ZM7.19688 6.08C7.51688 6.08 7.73821 5.96267 7.86088 5.728C7.98354 5.49333 8.04488 5.16267 8.04488 4.736V3.68C8.04488 3.25333 7.98354 2.92267 7.86088 2.688C7.73821 2.45333 7.51688 2.336 7.19688 2.336C6.87688 2.336 6.65554 2.45333 6.53288 2.688C6.41021 2.92267 6.34888 3.25333 6.34888 3.68V4.736C6.34888 5.16267 6.41021 5.49333 6.53288 5.728C6.65554 5.96267 6.87688 6.08 7.19688 6.08ZM14.3858 3.336H14.3618L13.9538 4.152L12.8658 6.128L11.8018 4.16L11.3778 3.28H11.3538V7H10.2098V1.416H11.4978L12.8658 4.032H12.8818L14.2338 1.416H15.5298V7H14.3858V3.336Z" fill="#333333"/>
</g>
</svg>
