<svg width="24" height="24" viewBox="0 0 24 24" fill="none" xmlns="http://www.w3.org/2000/svg">
<g id="legacy / stochastic-oscillator">
<path id="icon - blue" d="M20.2 15.6C20.5314 16.0419 21.1582 16.1314 21.6 15.8C22.0418 15.4687 22.1314 14.8418 21.8 14.4L12.8 2.40002C12.4349 1.91318 11.7232 1.86261 11.2929 2.29292L7.58579 6.00002H3C2.44772 6.00002 2 6.44774 2 7.00002C2 7.55231 2.44772 8.00002 3 8.00002H8C8.26522 8.00002 8.51957 7.89467 8.70711 7.70713L11.8918 4.52243L20.2 15.6Z" fill="#85ACB0"/>
<path id="icon -red" d="M20.2 21.6C20.5314 22.0419 21.1582 22.1314 21.6 21.8C22.0418 21.4687 22.1314 20.8418 21.8 20.4L12.8 8.40002C12.4349 7.91318 11.7232 7.86261 11.2929 8.29292L7.58579 12H3C2.44772 12 2 12.4477 2 13C2 13.5523 2.44772 14 3 14H8C8.26522 14 8.51957 13.8947 8.70711 13.7071L11.8918 10.5224L20.2 21.6Z" fill="#FF444F"/>
<path id="line - gray" d="M14 17C14.5523 17 15 17.4477 15 18C15 18.5523 14.5523 19 14 19H3C2.44772 19 2 18.5523 2 18C2 17.4477 2.44772 17 3 17H14ZM7 2C7.55228 2 8 2.44772 8 3C8 3.55228 7.55228 4 7 4H3C2.44772 4 2 3.55228 2 3C2 2.44772 2.44772 2 3 2H7ZM21 2C21.5523 2 22 2.44772 22 3C22 3.55228 21.5523 4 21 4H17C16.4477 4 16 3.55228 16 3C16 2.44772 16.4477 2 17 2H21Z" fill="#D6DADB"/>
</g>
</svg>
