<svg width="16" height="16" viewBox="0 0 16 16" fill="none" xmlns="http://www.w3.org/2000/svg">
<g id="legacy / calendar / 2px">
<path id="icon" fill-rule="evenodd" clip-rule="evenodd" d="M5 1C5.55228 1 6 1.44772 6 2H10C10 1.44772 10.4477 1 11 1C11.5523 1 12 1.44772 12 2C13.6569 2 15 3.34315 15 5V12C15 13.6569 13.6569 15 12 15H4C2.34315 15 1 13.6569 1 12V5C1 3.34315 2.34315 2 4 2C4 1.44772 4.44772 1 5 1ZM4 4C3.44772 4 3 4.44772 3 5H13C13 4.44772 12.5523 4 12 4H4ZM3 7V12C3 12.5523 3.44772 13 4 13H12C12.5523 13 13 12.5523 13 12V7H3Z" fill="#333333"/>
</g>
</svg>
