<svg width="24" height="24" viewBox="0 0 24 24" fill="none" xmlns="http://www.w3.org/2000/svg">
<g id="legacy / fibonacci fan">
<path id="secondary" d="M5.61828 20.7267C5.68934 20.9043 5.61724 21.1071 5.44999 21.2L4.51999 21.57L4.37999 21.59C4.1949 21.601 4.03027 21.4733 3.99488 21.2913C3.95949 21.1093 4.06427 20.9292 4.23999 20.87L5.16999 20.5C5.35518 20.4519 5.54722 20.549 5.61828 20.7267ZM4.76364 19.5352C4.86304 19.5521 4.95166 19.6078 5.00999 19.69C5.06785 19.7706 5.09092 19.8711 5.07399 19.9689C5.05707 20.0666 5.00158 20.1535 4.91999 20.21L4.11999 20.79C4.05706 20.8383 3.97924 20.863 3.89999 20.86C3.78177 20.8608 3.67028 20.8051 3.59999 20.71C3.48179 20.5401 3.51691 20.3074 3.67999 20.18L4.47999 19.6C4.56219 19.5416 4.66423 19.5183 4.76364 19.5352ZM7.55356 19.6454C7.64361 19.6848 7.71429 19.7584 7.74999 19.85C7.7891 19.9426 7.78882 20.0472 7.74921 20.1397C7.70959 20.2321 7.63406 20.3044 7.53999 20.34L6.60999 20.7C6.5692 20.7336 6.52134 20.7575 6.46999 20.77C6.31623 20.7734 6.17828 20.676 6.12999 20.53C6.08049 20.4328 6.07515 20.319 6.11533 20.2176C6.15552 20.1162 6.23734 20.0369 6.33999 20L7.26999 19.64C7.36148 19.6041 7.46351 19.606 7.55356 19.6454ZM9.84999 19.12C9.88592 19.2115 9.88398 19.3135 9.84458 19.4036C9.80518 19.4936 9.73157 19.5643 9.63999 19.6L8.70999 19.97C8.66238 19.9896 8.61145 19.9997 8.55999 20C8.41146 19.9877 8.28128 19.8958 8.21999 19.76C8.14446 19.5667 8.23794 19.3486 8.42999 19.27L9.35999 18.91C9.55326 18.8345 9.77139 18.928 9.84999 19.12ZM6.56364 18.2352C6.66304 18.2521 6.75166 18.3078 6.80999 18.39C6.86785 18.4706 6.89092 18.5711 6.87399 18.6689C6.85707 18.7666 6.80158 18.8535 6.71999 18.91L5.91999 19.49C5.85706 19.5383 5.77924 19.563 5.69999 19.56C5.58177 19.5608 5.47028 19.5051 5.39999 19.41C5.28179 19.2401 5.31691 19.0074 5.47999 18.88L6.27999 18.3C6.36219 18.2416 6.46423 18.2183 6.56364 18.2352ZM11.893 18.3151C11.9601 18.489 11.891 18.686 11.73 18.78L10.8 19.15L10.66 19.17C10.5054 19.1687 10.367 19.0738 10.31 18.93C10.2746 18.8372 10.2779 18.7341 10.3193 18.6438C10.3607 18.5536 10.4366 18.4837 10.53 18.45L11.46 18.08C11.6424 18.0415 11.8259 18.1411 11.893 18.3151ZM14.04 17.47C14.11 17.6631 14.0181 17.8775 13.83 17.96L12.89 18.32C12.8424 18.3239 12.7946 18.317 12.75 18.3V18.35C12.5671 18.3552 12.4079 18.2259 12.3754 18.0459C12.3429 17.8659 12.4469 17.6891 12.62 17.63L13.55 17.26C13.7433 17.1845 13.9614 17.278 14.04 17.47ZM8.44979 16.9695C8.57145 17.023 8.65532 17.1374 8.6698 17.2695C8.68427 17.4016 8.62717 17.5314 8.51999 17.61L7.71999 18.19C7.65706 18.2383 7.57924 18.263 7.49999 18.26C7.38177 18.2608 7.27028 18.2051 7.19999 18.11C7.07629 17.9414 7.11204 17.7046 7.27999 17.58L8.07999 17.01C8.18717 16.9314 8.32814 16.916 8.44979 16.9695ZM16.0163 16.4956C16.1197 16.5782 16.1711 16.7097 16.1513 16.8406C16.1314 16.9714 16.0432 17.0818 15.92 17.13L14.99 17.5L14.85 17.53C14.6978 17.5213 14.563 17.4289 14.5 17.29C14.43 17.0968 14.5219 16.8825 14.71 16.8L15.65 16.44C15.7732 16.3918 15.9129 16.413 16.0163 16.4956ZM10.1567 15.6815C10.2544 15.6965 10.342 15.75 10.4 15.83C10.4617 15.9084 10.4881 16.0088 10.4729 16.1074C10.4577 16.2059 10.4024 16.2938 10.32 16.35L9.51999 16.93C9.45633 16.9769 9.37902 17.0014 9.29999 17C9.18138 17.0025 9.06916 16.9464 8.99999 16.85C8.87629 16.6814 8.91204 16.4446 9.07999 16.32L9.87999 15.75C9.95937 15.6911 10.059 15.6664 10.1567 15.6815ZM18.23 15.83C18.2654 15.9228 18.2621 16.0259 18.2207 16.1162C18.1793 16.2064 18.1034 16.2763 18.01 16.31L17.08 16.68C17.0317 16.6807 16.9838 16.6704 16.94 16.65V16.7C16.7898 16.7018 16.6542 16.6101 16.6 16.47C16.5245 16.2767 16.6179 16.0586 16.81 15.98L17.74 15.61C17.936 15.5356 18.1553 15.634 18.23 15.83ZM20.2067 14.7639C20.3262 14.85 20.3851 14.9974 20.358 15.1422C20.3309 15.2869 20.2225 15.403 20.08 15.44L19.15 15.8L19 15.83C18.8481 15.8274 18.7133 15.7322 18.66 15.59C18.6241 15.4985 18.626 15.3965 18.6654 15.3064C18.7048 15.2164 18.7784 15.1457 18.87 15.11L19.8 14.74C19.9287 14.6685 20.0872 14.6778 20.2067 14.7639ZM12.2 14.53C12.3215 14.6957 12.2857 14.9285 12.12 15.05L11.32 15.63C11.2516 15.6629 11.1747 15.6734 11.1 15.66V15.7C10.9814 15.7025 10.8692 15.6464 10.8 15.55C10.7379 15.47 10.7113 15.368 10.7264 15.2678C10.7415 15.1677 10.797 15.0781 10.88 15.02L11.68 14.45C11.8457 14.3285 12.0785 14.3643 12.2 14.53ZM21.763 14.3751C21.8301 14.549 21.761 14.746 21.6 14.84L21.24 14.98C21.2046 14.9925 21.1675 14.9993 21.13 15L21.1 15.01C20.9462 15.0134 20.8083 14.916 20.76 14.77C20.7209 14.6773 20.7212 14.5728 20.7608 14.4803C20.8004 14.3879 20.8759 14.3156 20.97 14.28L21.33 14.14C21.5124 14.1015 21.6959 14.2011 21.763 14.3751ZM13.7567 13.0815C13.8544 13.0965 13.942 13.15 14 13.23C14.1237 13.3986 14.0879 13.6354 13.92 13.76L13.12 14.33C13.0513 14.3617 12.9747 14.3721 12.9 14.36V14.4C12.779 14.4008 12.6645 14.3454 12.59 14.25C12.5321 14.1694 12.5091 14.0689 12.526 13.9711C12.5429 13.8734 12.5984 13.7865 12.68 13.73L13.48 13.15C13.5594 13.0911 13.659 13.0664 13.7567 13.0815ZM15.5567 11.7815C15.6544 11.7965 15.742 11.85 15.8 11.93C15.9182 12.0999 15.8831 12.3325 15.72 12.46L14.92 13.03C14.8519 13.064 14.7756 13.0778 14.7 13.07V13.11C14.5776 13.1069 14.4634 13.048 14.39 12.95C14.3321 12.8694 14.3091 12.7689 14.326 12.6711C14.3429 12.5734 14.3984 12.4865 14.48 12.43L15.28 11.85C15.3594 11.7911 15.459 11.7664 15.5567 11.7815ZM17.3567 10.4815C17.4544 10.4965 17.542 10.55 17.6 10.63C17.7182 10.7999 17.6831 11.0325 17.52 11.16L16.72 11.73C16.6519 11.764 16.5756 11.7778 16.5 11.77V11.81C16.3776 11.8069 16.2634 11.748 16.19 11.65C16.1321 11.5694 16.1091 11.4689 16.126 11.3711C16.1429 11.2734 16.1984 11.1865 16.28 11.13L17.08 10.55C17.1594 10.4911 17.259 10.4664 17.3567 10.4815ZM19.4 9.34C19.5187 9.50844 19.4784 9.74126 19.31 9.86L18.51 10.44C18.4408 10.47 18.3647 10.4804 18.29 10.47V10.51C18.1704 10.5069 18.0592 10.4476 17.99 10.35C17.9321 10.2694 17.9091 10.1689 17.926 10.0711C17.9429 9.97335 17.9984 9.88647 18.08 9.83L18.88 9.25C19.0484 9.13126 19.2812 9.17155 19.4 9.34ZM20.5574 8.12709C20.6559 8.14225 20.7438 8.19762 20.8 8.28C20.8589 8.35938 20.8835 8.45901 20.8685 8.55669C20.8535 8.65438 20.8 8.74199 20.72 8.8L20.31 9.1C20.2449 9.14392 20.1685 9.16822 20.09 9.17C19.9704 9.16687 19.8592 9.10759 19.79 9.01C19.7321 8.92939 19.7091 8.82891 19.726 8.73113C19.7429 8.63335 19.7984 8.54647 19.88 8.49L20.28 8.2C20.3584 8.13833 20.4588 8.11193 20.5574 8.12709Z" fill="#FF444F"/>
<path id="primary" d="M6.02382 2.78307C6.14363 2.24394 6.67781 1.90401 7.21694 2.02381C7.75607 2.14362 8.096 2.6778 7.9762 3.21693L4.5466 18.6508L19.14 3.16C19.2531 3.00081 19.4486 2.92205 19.6405 2.95834C19.8324 2.99463 19.9856 3.13932 20.0328 3.32883C20.08 3.51833 20.0125 3.71797 19.86 3.84L4.6366 19.9998L21 20C21.5128 20 21.9355 20.386 21.9933 20.8834L22 21C22 21.5523 21.5523 22 21 22H3.00001C2.36026 22 1.88504 21.4076 2.02382 20.7831L6.02382 2.78307Z" fill="#85ACB0"/>
</g>
</svg>
