<svg width="24" height="24" viewBox="0 0 24 24" fill="none" xmlns="http://www.w3.org/2000/svg">
<g id="legacy / continuous">
<path id="icon" d="M11.6459 13.2246L17.7253 14.9615C18.2608 15.1145 18.8182 14.8005 18.9648 14.2631L21.9648 3.26312C22.1101 2.73029 21.7959 2.18055 21.2631 2.03524C20.7303 1.88992 20.1806 2.20406 20.0352 2.73688L17.3015 12.7604L11.2747 11.0385C10.7599 10.8914 10.2206 11.1759 10.0513 11.6838L7.67232 18.8208L3.81374 13.4188C3.49273 12.9693 2.86818 12.8653 2.41876 13.1863C1.96935 13.5073 1.86526 14.1318 2.18627 14.5812L7.18627 21.5812C7.66131 22.2463 8.69024 22.0916 8.94869 21.3162L11.6459 13.2246Z" fill="#85ACB0"/>
</g>
</svg>
