<svg width="16" height="16" viewBox="0 0 16 16" fill="none" xmlns="http://www.w3.org/2000/svg">
<g id="legacy / calendar-previous / 1px">
<path id="icon" d="M11.5 1C11.7761 1 12 1.22386 12 1.5V2H14C14.5523 2 15 2.44772 15 3V14C15 14.5523 14.5523 15 14 15H2C1.44772 15 1 14.5523 1 14V3C1 2.44772 1.44772 2 2 2H4V1.5C4 1.22386 4.22386 1 4.5 1C4.77614 1 5 1.22386 5 1.5V2H11V1.5C11 1.22386 11.2239 1 11.5 1ZM14 6H2V14H14V6ZM10.3536 8.14645C10.5488 8.34171 10.5488 8.65829 10.3536 8.85355L9.20711 10L10.3536 11.1464C10.5488 11.3417 10.5488 11.6583 10.3536 11.8536C10.1583 12.0488 9.84171 12.0488 9.64645 11.8536L8.14645 10.3536C7.95118 10.1583 7.95118 9.84171 8.14645 9.64645L9.64645 8.14645C9.84171 7.95118 10.1583 7.95118 10.3536 8.14645ZM7.35355 8.14645C7.54882 8.34171 7.54882 8.65829 7.35355 8.85355L6.20711 10L7.35355 11.1464C7.54882 11.3417 7.54882 11.6583 7.35355 11.8536C7.15829 12.0488 6.84171 12.0488 6.64645 11.8536L5.14645 10.3536C4.95118 10.1583 4.95118 9.84171 5.14645 9.64645L6.64645 8.14645C6.84171 7.95118 7.15829 7.95118 7.35355 8.14645ZM4 3H2V5H14V3H12V3.5C12 3.77614 11.7761 4 11.5 4C11.2239 4 11 3.77614 11 3.5V3H5V3.5C5 3.77614 4.77614 4 4.5 4C4.22386 4 4 3.77614 4 3.5V3Z" fill="#333333"/>
</g>
</svg>
