<svg width="16" height="16" viewBox="0 0 16 16" fill="none" xmlns="http://www.w3.org/2000/svg">
<g id="legacy / calendar-forward / 1px">
<path id="icon" d="M11.5 1C11.7761 1 12 1.22386 12 1.5V2H14C14.5523 2 15 2.44772 15 3V14C15 14.5523 14.5523 15 14 15H2C1.44772 15 1 14.5523 1 14V3C1 2.44772 1.44772 2 2 2H4V1.5C4 1.22386 4.22386 1 4.5 1C4.77614 1 5 1.22386 5 1.5V2H11V1.5C11 1.22386 11.2239 1 11.5 1ZM14 6H2V14H14V6ZM8.64645 8.14645C8.84171 7.95118 9.15829 7.95118 9.35355 8.14645L10.8536 9.64645C11.0488 9.84171 11.0488 10.1583 10.8536 10.3536L9.35355 11.8536C9.15829 12.0488 8.84171 12.0488 8.64645 11.8536C8.45118 11.6583 8.45118 11.3417 8.64645 11.1464L9.79289 10L8.64645 8.85355C8.45118 8.65829 8.45118 8.34171 8.64645 8.14645ZM5.64645 8.14645C5.84171 7.95118 6.15829 7.95118 6.35355 8.14645L7.85355 9.64645C8.04882 9.84171 8.04882 10.1583 7.85355 10.3536L6.35355 11.8536C6.15829 12.0488 5.84171 12.0488 5.64645 11.8536C5.45118 11.6583 5.45118 11.3417 5.64645 11.1464L6.79289 10L5.64645 8.85355C5.45118 8.65829 5.45118 8.34171 5.64645 8.14645ZM4 3H2V5H14V3H12V3.5C12 3.77614 11.7761 4 11.5 4C11.2239 4 11 3.77614 11 3.5V3H5V3.5C5 3.77614 4.77614 4 4.5 4C4.22386 4 4 3.77614 4 3.5V3Z" fill="#333333"/>
</g>
</svg>
