<svg width="24" height="24" viewBox="0 0 24 24" fill="none" xmlns="http://www.w3.org/2000/svg">
<g id="legacy / hollow">
<path id="icon - blue" d="M3 16C2.44772 16 2 15.5523 2 15V6C2 5.44772 2.44772 5 3 5H5V3C5 2.44772 5.44772 2 6 2C6.55228 2 7 2.44772 7 3V5H9C9.55228 5 10 5.44772 10 6V15C10 15.5523 9.55228 16 9 16H7V19C7 19.5523 6.55228 20 6 20C5.44772 20 5 19.5523 5 19V16H3ZM8 7H4V14H8V7Z" fill="#85ACB0"/>
<path id="icon - red" d="M18 2C18.5523 2 19 2.44772 19 3V7H21C21.5523 7 22 7.44772 22 8V18C22 18.5523 21.5523 19 21 19H19V21C19 21.5128 18.614 21.9355 18.1166 21.9933L18 22C17.4477 22 17 21.5523 17 21V19H15C14.4872 19 14.0645 18.614 14.0067 18.1166L14 18V8C14 7.44772 14.4477 7 15 7H17V3C17 2.44772 17.4477 2 18 2ZM20 9H16V17H20V9Z" fill="#FF444F"/>
</g>
</svg>
