<svg width="16" height="16" viewBox="0 0 16 16" fill="none" xmlns="http://www.w3.org/2000/svg">
<g id="legacy / trade-type-digits" clip-path="url(#clip0_2761_603)">
<path id="icon" d="M15 0C15.5523 0 16 0.447715 16 1V15C16 15.5523 15.5523 16 15 16H1C0.447715 16 0 15.5523 0 15V1C0 0.447715 0.447715 0 1 0H15ZM15 1H1V15H15V1ZM11 9C12.1046 9 13 9.89543 13 11C13 12.1046 12.1046 13 11 13C9.89543 13 9 12.1046 9 11C9 9.89543 9.89543 9 11 9ZM11 10C10.4477 10 10 10.4477 10 11C10 11.5523 10.4477 12 11 12C11.5523 12 12 11.5523 12 11C12 10.4477 11.5523 10 11 10ZM5 3C5.53043 3 6.03914 3.21071 6.41421 3.58579C6.78929 3.96086 7 4.46957 7 5C7 6.10457 6.10457 7 5 7C3.89543 7 3 6.10457 3 5C3 3.89543 3.89543 3 5 3ZM5 4C4.44772 4 4 4.44772 4 5C4 5.55228 4.44772 6 5 6C5.55228 6 6 5.55228 6 5C6 4.44772 5.55228 4 5 4Z" fill="#333333"/>
</g>
<defs>
<clipPath id="clip0_2761_603">
<rect width="16" height="16" fill="white"/>
</clipPath>
</defs>
</svg>
