<svg width="16" height="16" viewBox="0 0 16 16" fill="none" xmlns="http://www.w3.org/2000/svg">
<g id="legacy / trade-type-ins-outs" clip-path="url(#clip0_2761_605)">
<path id="icon" d="M15.5 15C15.7761 15 16 15.2239 16 15.5C16 15.7455 15.8231 15.9496 15.5899 15.9919L15.5 16H0.5C0.223858 16 0 15.7761 0 15.5C0 15.2545 0.176875 15.0504 0.410124 15.0081L0.5 15H15.5ZM5 12.292L7.14645 10.1464C7.32001 9.97288 7.58944 9.9536 7.78431 10.0886L7.85355 10.1464C8.02712 10.32 8.0464 10.5894 7.91141 10.7843L7.85355 10.8536L4.84113 13.8656C4.82882 13.8771 4.81575 13.8881 4.80214 13.8984C4.79061 13.9072 4.77883 13.9154 4.76681 13.923C4.75568 13.93 4.74405 13.9367 4.73213 13.943C4.71828 13.9503 4.70454 13.9566 4.6906 13.9624C4.67803 13.9676 4.66474 13.9724 4.6512 13.9767C4.63583 13.9816 4.62047 13.9856 4.60499 13.9889L4.569 13.994H4.567L4.5534 13.9972L4.527 13.998L4.54629 13.9979L4.566 13.994L4.5 14C4.49318 14 4.4864 13.9999 4.47964 13.9996C4.46293 13.9989 4.44546 13.9973 4.4281 13.9948C4.41662 13.9932 4.40563 13.9912 4.39477 13.9889C4.37953 13.9856 4.36417 13.9816 4.34899 13.9768L4.30896 13.9622C4.29546 13.9566 4.28172 13.9503 4.26824 13.9432C4.25595 13.9367 4.24432 13.93 4.23299 13.9228L4.19786 13.8984L4.193 13.895L4.192 13.894L4.14645 13.8536C4.15986 13.867 4.17385 13.8795 4.18831 13.891L4.19786 13.8984C4.18425 13.8881 4.17118 13.8771 4.15871 13.8654L1.14645 10.8536C0.951184 10.6583 0.951184 10.3417 1.14645 10.1464C1.32001 9.97288 1.58944 9.9536 1.78431 10.0886L1.85355 10.1464L4 12.292V8H0.5C0.223858 8 0 7.77614 0 7.5C0 7.25454 0.176875 7.05039 0.410124 7.00806L0.5 7H4V0.5C4 0.25454 4.17688 0.0503916 4.41012 0.00805567L4.5 0C4.74546 0 4.94961 0.176875 4.99194 0.410124L5 0.5V7H11V2.707L8.85355 4.85355C8.67999 5.02712 8.41056 5.0464 8.21569 4.91141L8.14645 4.85355C7.97288 4.67999 7.9536 4.41056 8.08859 4.21569L8.14645 4.14645L11.1589 1.13444C11.1712 1.12294 11.1842 1.11192 11.1979 1.10158C11.2094 1.09277 11.2212 1.08461 11.2332 1.07701C11.2443 1.07002 11.256 1.06329 11.2679 1.05703C11.2817 1.04975 11.2955 1.04335 11.3094 1.03761C11.322 1.03241 11.3353 1.02756 11.3488 1.02327C11.3642 1.01845 11.3795 1.0144 11.395 1.01109L11.431 1.005L11.5 1L11.5113 1.00013C11.5324 1.00061 11.5532 1.00239 11.5739 1.00546L11.6052 1.01109C11.6205 1.0144 11.6358 1.01845 11.651 1.02324L11.691 1.03779C11.7045 1.04335 11.7183 1.04975 11.7318 1.05681C11.744 1.06329 11.7557 1.07002 11.767 1.07719L11.806 1.104L11.8536 1.14645L11.811 1.108L11.8221 1.11759C11.8287 1.1231 11.8351 1.12876 11.8413 1.13459L14.8536 4.14645C15.0488 4.34171 15.0488 4.65829 14.8536 4.85355C14.68 5.02712 14.4106 5.0464 14.2157 4.91141L14.1464 4.85355L12 2.707V7H15.5C15.7761 7 16 7.22386 16 7.5C16 7.74546 15.8231 7.94961 15.5899 7.99194L15.5 8H12V14.5C12 14.7455 11.8231 14.9496 11.5899 14.9919L11.5 15C11.2545 15 11.0504 14.8231 11.0081 14.5899L11 14.5V8H5V12.292Z" fill="#333333"/>
</g>
<defs>
<clipPath id="clip0_2761_605">
<rect width="16" height="16" fill="white"/>
</clipPath>
</defs>
</svg>
