<svg width="16" height="16" viewBox="0 0 16 16" fill="none" xmlns="http://www.w3.org/2000/svg">
<g id="legacy / regulatory-information">
<path id="icon" d="M12.5 0C13.3284 0 14 0.671573 14 1.5V14.5C14 15.3284 13.3284 16 12.5 16H3.5C2.67157 16 2 15.3284 2 14.5V1.5C2 0.671573 2.67157 0 3.5 0H12.5ZM12.5 1H3.5C3.22386 1 3 1.22386 3 1.5V14.5C3 14.7761 3.22386 15 3.5 15H12.5C12.7761 15 13 14.7761 13 14.5V1.5C13 1.22386 12.7761 1 12.5 1ZM6 8C7.10457 8 8 8.89543 8 10C8 11.1046 7.10457 12 6 12C4.89543 12 4 11.1046 4 10C4 8.89543 4.89543 8 6 8ZM6 9C5.44772 9 5 9.44771 5 10C5 10.5523 5.44772 11 6 11C6.55228 11 7 10.5523 7 10C7 9.44771 6.55228 9 6 9ZM9.5 6C9.77614 6 10 6.22386 10 6.5C10 6.74546 9.82312 6.94961 9.58988 6.99194L9.5 7H4.5C4.22386 7 4 6.77614 4 6.5C4 6.25454 4.17688 6.05039 4.41012 6.00806L4.5 6H9.5ZM11.5 4C11.7761 4 12 4.22386 12 4.5C12 4.74546 11.8231 4.94961 11.5899 4.99194L11.5 5H4.5C4.22386 5 4 4.77614 4 4.5C4 4.25454 4.17688 4.05039 4.41012 4.00806L4.5 4H11.5Z" fill="#333333"/>
</g>
</svg>
