<svg width="16" height="16" viewBox="0 0 16 16" fill="none" xmlns="http://www.w3.org/2000/svg">
<g id="legacy / indicator-averages">
<path id="icon" d="M2.49434 10.575C2.52044 10.4029 2.58159 10.0906 2.68468 9.68592C2.85678 9.01028 3.08439 8.3352 3.37284 7.70927C4.16413 5.99219 5.23487 5 6.61999 5C8.12717 5 8.65352 5.75592 9.36985 8.27528C9.42108 8.45567 9.44657 8.54529 9.47313 8.63788C10.3546 11.7106 11.373 13 14 13C14.2761 13 14.5 12.7761 14.5 12.5C14.5 12.2239 14.2761 12 14 12C11.9541 12 11.2064 11.0533 10.4344 8.36212C10.4082 8.2708 10.383 8.18242 10.3317 8.00179C9.502 5.0836 8.74749 4 6.61999 4C4.75886 4 3.40148 5.25781 2.46464 7.29073C2.14825 7.9773 1.90172 8.70847 1.71562 9.43908C1.65054 9.69457 1.59756 9.93215 1.55566 10.1461C1.53015 10.2764 1.5138 10.3713 1.50565 10.425C1.46424 10.698 1.652 10.9529 1.92502 10.9943C2.19804 11.0358 2.45293 10.848 2.49434 10.575Z" fill="#333333"/>
</g>
</svg>
