<svg width="16" height="16" viewBox="0 0 16 16" fill="none" xmlns="http://www.w3.org/2000/svg">
<g id="legacy / lock / 1px">
<path id="icon" d="M4.5 8C4.22386 8 4 8.22386 4 8.5V13.5C4 13.7761 4.22386 14 4.5 14H11.5C11.7761 14 12 13.7761 12 13.5V8.5C12 8.22386 11.7761 8 11.5 8H4.5ZM8 1C10.2091 1 12 2.79086 12 5L12.0007 7.0856C12.5829 7.29172 13 7.84715 13 8.5V13.5C13 14.3284 12.3284 15 11.5 15H4.5C3.67157 15 3 14.3284 3 13.5V8.5C3 7.84678 3.41754 7.29109 4.00029 7.08525L4 5C4 2.79086 5.79086 1 8 1ZM8 10C7.44772 10 7 10.4477 7 11C7 11.5523 7.44772 12 8 12C8.55228 12 9 11.5523 9 11C9 10.4477 8.55228 10 8 10ZM8 2C6.34315 2 5 3.34315 5 5V7H11V5C11 3.34315 9.65685 2 8 2Z" fill="#333333"/>
</g>
</svg>
