<svg width="16" height="16" viewBox="0 0 16 16" fill="none" xmlns="http://www.w3.org/2000/svg">
<g id="legacy / indicator-others">
<path id="icon" d="M6.81431 7.07576C7.21997 6.9135 7.62399 7.31299 7.4663 7.72046L4.9663 14.1805C4.80142 14.6065 4.19859 14.6065 4.0337 14.1805L1.5337 7.72046C1.37602 7.31299 1.78004 6.9135 2.1857 7.07576L4.5 8.00148L6.81431 7.07576ZM6.1191 8.43088L4.6857 9.00424C4.56649 9.05192 4.43351 9.05192 4.31431 9.00424L2.88091 8.43088L4.5 12.6146L6.1191 8.43088ZM11.0291 1.83183C11.1871 1.38939 11.8129 1.38939 11.9709 1.83183L14.4709 8.83183C14.6179 9.24353 14.203 9.63237 13.8017 9.459L11.5 8.46466L9.19829 9.459C8.79698 9.63237 8.3821 9.24353 8.52913 8.83183L11.0291 1.83183ZM11.5 3.48661L9.8578 8.08477L11.3017 7.461C11.4283 7.40633 11.5717 7.40633 11.6983 7.461L13.1422 8.08477L11.5 3.48661Z" fill="#333333"/>
</g>
</svg>
