<svg width="32" height="32" viewBox="0 0 32 32" fill="none" xmlns="http://www.w3.org/2000/svg">
<g id="currencies / currency-tusd" clip-path="url(#clip0_1859_867)">
<g id="logo">
<path d="M16 0C24.8366 0 32 7.16344 32 16C32 24.8366 24.8366 32 16 32C7.16344 32 0 24.8366 0 16C0 7.16344 7.16344 0 16 0ZM19 9C15.6863 9 13 11.6863 13 15V25H19V15H25V9H19ZM7 9V15C10.3137 15 13 12.3137 13 9H7Z" fill="#1B5AFE"/>
<path d="M13 15C13 11.6863 15.6863 9 19 9H25V15H19V25H13V15Z" fill="white"/>
<path d="M7 9H13C13 12.3137 10.3137 15 7 15V9Z" fill="white"/>
</g>
</g>
<defs>
<clipPath id="clip0_1859_867">
<rect width="32" height="32" fill="white"/>
</clipPath>
</defs>
</svg>
