<svg width="32" height="32" viewBox="0 0 32 32" fill="none" xmlns="http://www.w3.org/2000/svg">
<g id="currencies / currency-pyusd" clip-path="url(#clip0_5088_173)">
<g id="logo">
<path d="M16 0C24.8366 0 32 7.16344 32 16C32 24.8366 24.8366 32 16 32C7.16344 32 0 24.8366 0 16C0 7.16344 7.16344 0 16 0ZM11.1543 6.28809L10.5635 10.2207L7.72266 10.2334L7.39941 12.2012H10.2383L10.0332 13.4893L7.19434 13.5039L6.89746 15.4834H9.73535L8.16895 25.6836H14.6289L15.6465 19.458C17.1385 19.3689 18.709 19.5957 20.1729 19.2832C22.7518 18.7326 24.7964 16.6128 25.248 14.0107C25.9204 10.1365 23.1092 6.56986 19.2129 6.28711L11.1543 6.28809ZM19.0947 8.26758C24.6728 8.80615 24.7748 16.7558 19.2109 17.4346L13.9619 17.4482L12.958 23.7031H10.4746L11.75 15.4873L18.9707 15.4795C21.249 15.1913 22.1366 12.3292 20.3496 10.8262C20.0291 10.5567 19.3359 10.2208 18.916 10.2207H12.5742L12.8896 8.26758H19.0947ZM18.7607 12.209C19.3363 12.2919 19.5215 13.0641 19.041 13.3916C19.0134 13.4102 18.8395 13.5017 18.8271 13.502H12.042L12.2656 12.2002L18.7607 12.209Z" fill="black"/>
<path d="M19.2129 6.28711C23.1092 6.56986 25.9204 10.1365 25.248 14.0107C24.7964 16.6128 22.7518 18.7326 20.1729 19.2832C18.709 19.5957 17.1385 19.3689 15.6465 19.458L14.6289 25.6836H8.16895L9.73535 15.4834H6.89746L7.19434 13.5039L10.0332 13.4893L10.2383 12.2012H7.39941L7.72266 10.2334L10.5635 10.2207L11.1543 6.28809L19.2129 6.28711ZM12.5742 10.2207H18.916C19.3359 10.2208 20.0291 10.5567 20.3496 10.8262C22.1366 12.3292 21.249 15.1913 18.9707 15.4795L11.75 15.4873L10.4746 23.7031H12.958L13.9619 17.4482L19.2109 17.4346C24.7748 16.7558 24.6728 8.80615 19.0947 8.26758H12.8896L12.5742 10.2207ZM12.042 13.502H18.8271C18.8395 13.5017 19.0134 13.4102 19.041 13.3916C19.5215 13.0641 19.3363 12.2919 18.7607 12.209L12.2656 12.2002L12.042 13.502Z" fill="#FEFEFE"/>
</g>
</g>
<defs>
<clipPath id="clip0_5088_173">
<rect width="32" height="32" fill="white"/>
</clipPath>
</defs>
</svg>
