<svg width="32" height="32" viewBox="0 0 32 32" fill="none" xmlns="http://www.w3.org/2000/svg">
<g id="currencies / currency-aed" clip-path="url(#clip0_4126_536)">
<g id="logo">
<path d="M10.4375 31.0066V0.993413C4.34314 3.25327 0 9.11944 0 16C0 22.8806 4.34314 28.7467 10.4375 31.0066Z" fill="#FF323E"/>
<path d="M31.0066 21.5625C28.7467 27.6569 22.8806 32 16 32C14.044 32 12.17 31.649 10.4375 31.0066V21.5625H31.0066Z" fill="#333333"/>
<path d="M31.0066 10.4375H10.4375V21.5625H31.0066C31.649 19.83 32 17.956 32 16C32 14.044 31.649 12.17 31.0066 10.4375Z" fill="white"/>
<path d="M10.4375 0.993413V10.4375H31.0066C28.7467 4.34314 22.8806 0 16 0C14.044 0 12.17 0.350986 10.4375 0.993413Z" fill="#12833B"/>
</g>
</g>
<defs>
<clipPath id="clip0_4126_536">
<rect width="32" height="32" fill="white"/>
</clipPath>
</defs>
</svg>
