<svg width="32" height="32" viewBox="0 0 32 32" fill="none" xmlns="http://www.w3.org/2000/svg">
<g id="currencies / currency-frax" clip-path="url(#clip0_5088_169)">
<g id="logo">
<path d="M16 0C24.8366 0 32 7.16344 32 16C32 24.8366 24.8366 32 16 32C7.16344 32 0 24.8366 0 16C0 7.16344 7.16344 0 16 0ZM20.2949 9.58301C19.067 8.75989 17.5892 8.27734 16 8.27734C14.4105 8.27734 12.9321 8.75962 11.7041 9.58301L9.06055 6.93945L6.93945 9.06055L9.58301 11.7041C8.75962 12.9321 8.27734 14.4105 8.27734 16C8.27734 17.5892 8.75989 19.067 9.58301 20.2949L6.93945 22.9395L9.06055 25.0605L11.7041 22.416C12.9322 23.2396 14.4103 23.7227 16 23.7227C17.5894 23.7227 19.0669 23.2393 20.2949 22.416L22.9395 25.0605L25.0605 22.9395L22.416 20.2949C23.2393 19.0669 23.7227 17.5894 23.7227 16C23.7227 14.4103 23.2396 12.9322 22.416 11.7041L25.0605 9.06055L22.9395 6.93945L20.2949 9.58301ZM16 11.2773C17.3044 11.2773 18.4827 11.8049 19.3389 12.6611C20.1951 13.5173 20.7227 14.6956 20.7227 16C20.7227 17.3044 20.1951 18.4827 19.3389 19.3389C18.4827 20.1951 17.3044 20.7227 16 20.7227C14.6956 20.7227 13.5173 20.1951 12.6611 19.3389C11.8049 18.4827 11.2773 17.3044 11.2773 16C11.2773 14.6956 11.8049 13.5173 12.6611 12.6611C13.5173 11.8049 14.6956 11.2773 16 11.2773Z" fill="black"/>
<path d="M20.7227 16C20.7227 14.6956 20.1951 13.5173 19.3389 12.6611C18.4827 11.8049 17.3044 11.2773 16 11.2773C14.6956 11.2773 13.5173 11.8049 12.6611 12.6611C11.8049 13.5173 11.2773 14.6956 11.2773 16C11.2773 17.3044 11.8049 18.4827 12.6611 19.3389C13.5173 20.1951 14.6956 20.7227 16 20.7227C17.3044 20.7227 18.4827 20.1951 19.3389 19.3389C20.1951 18.4827 20.7227 17.3044 20.7227 16ZM23.7227 16C23.7227 17.5894 23.2393 19.0669 22.416 20.2949L25.0605 22.9395L22.9395 25.0605L20.2949 22.416C19.0669 23.2393 17.5894 23.7227 16 23.7227C14.4103 23.7227 12.9322 23.2396 11.7041 22.416L9.06055 25.0605L6.93945 22.9395L9.58301 20.2949C8.75989 19.067 8.27734 17.5892 8.27734 16C8.27734 14.4105 8.75962 12.9321 9.58301 11.7041L6.93945 9.06055L9.06055 6.93945L11.7041 9.58301C12.9321 8.75962 14.4105 8.27734 16 8.27734C17.5892 8.27734 19.067 8.75989 20.2949 9.58301L22.9395 6.93945L25.0605 9.06055L22.416 11.7041C23.2396 12.9322 23.7227 14.4103 23.7227 16Z" fill="white"/>
</g>
</g>
<defs>
<clipPath id="clip0_5088_169">
<rect width="32" height="32" fill="white"/>
</clipPath>
</defs>
</svg>
