<svg width="32" height="32" viewBox="0 0 32 32" fill="none" xmlns="http://www.w3.org/2000/svg">
<g id="currencies / currency-shib" clip-path="url(#clip0_5088_172)">
<circle id="Ellipse 3" cx="16" cy="16" r="16" fill="white"/>
<g id="Frame 3">
<g id="Group_931">
<path id="Path_8573" d="M21.5059 6.11273C20.8884 6.73023 20.3227 7.39951 19.8198 8.11315L19.6608 8.06139C18.7438 7.76188 17.7935 7.57699 16.8358 7.51413C16.5474 7.49195 15.4713 7.49195 15.1201 7.51413C14.0588 7.58439 13.2454 7.74339 12.321 8.06508C12.284 8.07987 12.2507 8.09097 12.2174 8.10206C11.6961 7.39211 11.1155 6.72654 10.4758 6.11643C13.5449 4.54493 17.1353 4.35635 20.3485 5.59506C20.6924 5.72448 21.0289 5.87608 21.358 6.03878L21.5059 6.11273Z" fill="#F00500"/>
<path id="Path_8574" d="M27.2299 20.1379C26.764 21.4654 26.0651 22.6967 25.1592 23.769C24.6674 24.3458 24.1238 24.8746 23.5396 25.3553C22.1715 26.4572 20.5741 27.2448 18.8695 27.6589C16.9837 28.1137 15.0165 28.1137 13.1307 27.6589C11.4224 27.2448 9.82875 26.4572 8.46063 25.3553C7.8764 24.8746 7.33284 24.3458 6.84106 23.769C4.23422 20.6889 3.44292 16.4588 4.77038 12.6465C5.02182 11.9402 5.33612 11.2599 5.71328 10.6128C5.88706 10.317 6.10153 9.98418 6.20506 9.84737C6.56004 11.3745 6.99636 12.7167 7.15905 13.2011C7.14796 13.227 7.13317 13.2566 7.11838 13.2825C6.25683 15.0278 5.79093 16.7102 5.68 18.4999C5.68 18.522 5.6763 18.5479 5.6763 18.5701C5.64672 19.1063 5.66151 19.3614 5.75025 19.6979C6.02758 20.7517 6.88173 21.9128 8.22028 23.0517C10.413 24.9153 13.3859 26.2612 15.6377 26.4165C17.9858 26.5755 21.4504 25.2037 23.7578 23.1996C24.1201 22.8779 24.4603 22.5377 24.7783 22.1753C25.0076 21.9091 25.3478 21.4506 25.3219 21.4506C25.3145 21.4506 25.3219 21.4432 25.3367 21.4358C25.3478 21.4284 25.3589 21.4173 25.3515 21.4099C25.3478 21.4062 25.3552 21.3951 25.3662 21.3914C25.3773 21.3877 25.3847 21.3803 25.381 21.3729C25.3773 21.3655 25.381 21.3581 25.3958 21.3544C25.4069 21.3507 25.4106 21.3396 25.4069 21.3322C25.4032 21.3249 25.4069 21.3175 25.4143 21.3175C25.4217 21.3175 25.4291 21.3064 25.4291 21.299C25.4291 21.2916 25.4365 21.2805 25.4439 21.2805C25.4513 21.2805 25.4587 21.2731 25.4587 21.2657C25.4698 21.2361 25.4883 21.2065 25.5068 21.1806C25.5622 21.0956 25.7841 20.6999 25.8137 20.6334C26.0244 20.1564 26.1575 19.7312 26.2204 19.3059C26.25 19.1026 26.2685 18.7291 26.2537 18.6404C26.25 18.6256 26.25 18.5997 26.2463 18.559C26.2389 18.4851 26.2352 18.3741 26.2278 18.2632C26.2204 18.0968 26.2056 17.8639 26.1945 17.7492C26.0355 16.0705 25.6066 14.6987 24.7931 13.2455C24.7598 13.19 24.7303 13.1346 24.7118 13.0902C24.7044 13.0791 24.7007 13.068 24.697 13.0606C24.8116 12.7167 25.2812 11.2784 25.6547 9.6329L25.6621 9.6403L25.7175 9.71425C25.8137 9.84367 26.0688 10.2282 26.1834 10.4131C26.7048 11.2636 27.1115 12.1769 27.4 13.1309C28.0692 15.4271 28.0138 17.875 27.2299 20.1379Z" fill="#F00500"/>
<path id="Path_8575" d="M22.4304 15.7192C22.4193 15.7784 22.2456 15.9559 22.0718 16.0853C21.5615 16.4587 20.6482 16.8063 19.7201 16.9727C19.1913 17.0689 18.6625 17.0836 18.5035 17.006C18.4 16.9542 18.3852 16.9136 18.4222 16.7804C18.4998 16.5031 18.7513 16.1999 19.1432 15.9152C19.3429 15.771 20.1527 15.2792 20.5298 15.0721C21.1511 14.7319 21.6539 14.5286 21.9941 14.4805C22.1013 14.4657 22.2308 14.462 22.2714 14.4805C22.338 14.5064 22.4119 14.7024 22.4415 14.939C22.4563 15.0647 22.4489 15.6194 22.4304 15.7192Z" fill="black"/>
<path id="Path_8576" d="M13.7188 16.9431C13.6966 16.9875 13.5857 17.0356 13.46 17.0541C13.3343 17.0725 12.9497 17.0615 12.7315 17.0356C11.9476 16.932 11.1157 16.6917 10.5093 16.3959C10.1691 16.2295 9.92503 16.0631 9.74385 15.8819L9.64032 15.7747L9.62922 15.6342C9.61073 15.3901 9.61443 15.0056 9.64401 14.8687C9.6625 14.7541 9.70317 14.6432 9.75864 14.5434C9.78822 14.5064 9.78822 14.5064 9.92133 14.5064C10.084 14.5064 10.2208 14.5323 10.4427 14.6025C10.8975 14.743 11.5742 15.0832 12.3988 15.5787C13.0791 15.9854 13.3343 16.1851 13.5302 16.4587C13.6633 16.6288 13.7521 16.8692 13.7188 16.9431Z" fill="black"/>
<path id="Path_8577" d="M18.9545 22.0903C18.9545 22.1013 18.9101 22.2788 18.8546 22.4896C18.7992 22.7004 18.7548 22.8705 18.7548 22.8778C18.7141 22.8815 18.6771 22.8852 18.6365 22.8815H18.5181L18.3555 23.2661C18.2667 23.4769 18.1854 23.6728 18.1743 23.7024L18.1521 23.7542L18.0744 23.6285L17.9968 23.5028V22.4785L17.9672 22.4859C17.9043 22.5007 17.4569 22.5599 17.2609 22.5783C16.4512 22.6597 15.6377 22.6412 14.8316 22.5266C14.7022 22.5081 14.5912 22.4933 14.5876 22.497C14.5839 22.5007 14.5876 22.7373 14.5949 23.0295L14.606 23.5545L14.5432 23.6507C14.5099 23.7024 14.4766 23.7468 14.4766 23.7505C14.4655 23.7616 14.4286 23.7024 14.3435 23.5323C14.2511 23.3548 14.1845 23.1663 14.1364 22.9703L14.1106 22.8631L13.9959 22.8705L13.8813 22.8815L13.8517 22.7447C13.8369 22.6708 13.8184 22.5562 13.811 22.4933L13.8 22.375L13.7038 22.2899C13.6483 22.2419 13.5929 22.1938 13.5818 22.1864C13.5633 22.1716 13.5559 22.1457 13.5559 22.1235V22.0792L14.0181 22.0829L14.4803 22.0866L14.4951 22.1346L14.5099 22.1827L14.6689 22.1901C14.7576 22.1938 15.0387 22.2012 15.2901 22.2086L15.7523 22.2197L15.8706 22.0348L15.9927 21.8499H16.148L16.1443 21.4653L16.1406 21.0808L15.9372 20.9921C15.2827 20.7036 14.8982 20.3745 14.7539 19.9752C14.7244 19.8939 14.7244 19.8643 14.717 19.4945C14.7133 19.1284 14.7133 19.0952 14.7392 19.0138C14.7909 18.8289 14.9351 18.6847 15.12 18.6367C15.1829 18.6182 15.3493 18.6182 16.2219 18.6182L17.2499 18.6219L17.3645 18.6773C17.5013 18.7439 17.5642 18.792 17.6418 18.8955C17.7305 19.0138 17.7564 19.1063 17.7564 19.3318C17.7564 19.6535 17.7342 19.9308 17.701 20.0418C17.6529 20.1934 17.5789 20.3376 17.4865 20.467C17.3016 20.7036 16.9651 20.9403 16.6582 21.0475L16.5695 21.0808L16.5732 21.469L16.5769 21.8573L16.6582 21.8647L16.7396 21.8721L16.8505 22.0385L16.9577 22.2049H17.4532C17.7269 22.2049 17.9672 22.2086 17.9894 22.2123C18.0264 22.2197 18.0338 22.216 18.0707 22.1531L18.1151 22.0866H18.5403C18.8583 22.0718 18.9545 22.0792 18.9545 22.0903Z" fill="black"/>
<path id="Path_8578" d="M17.0023 23.1515C16.9321 23.1921 16.884 23.2106 16.8729 23.2032C16.8618 23.1995 16.81 23.1552 16.7546 23.1145L16.6547 23.0331L16.5512 23.1441C16.3256 23.3881 16.3182 23.3992 16.2517 23.4029C16.1482 23.414 16.126 23.3955 16.0002 23.2069C15.9337 23.1108 15.8819 23.0294 15.8819 23.0294C15.8819 23.0294 15.8339 23.0221 15.7784 23.0184L15.6749 23.0073L15.6268 23.1071L15.5787 23.2069L15.4937 23.1811C15.4271 23.1589 15.3606 23.133 15.2977 23.1034L15.1868 23.0479V22.8372L16.1703 22.8409L17.1539 22.8446L17.1576 22.9444C17.1613 23.0627 17.165 23.059 17.0023 23.1515Z" fill="black"/>
</g>
<path id="Path_8579" d="M26.2462 18.6403C26.2425 18.6255 26.2425 18.5997 26.2388 18.559C25.3514 18.4628 22.8185 18.4037 20.4668 20.3449C20.4668 20.3449 19.7088 16.8692 16.159 16.8692C12.6093 16.8692 11.2929 20.3449 11.2929 20.3449C9.30359 18.204 6.64128 18.3593 5.6799 18.4998C5.6799 18.522 5.6762 18.5479 5.6762 18.5701C5.64662 19.1062 5.66141 19.3614 5.75015 19.6979C6.02747 20.7517 6.88163 21.9127 8.22018 23.0516C10.4129 24.9152 13.3858 26.2612 15.6376 26.4165C17.9857 26.5755 21.4503 25.2036 23.7577 23.1995C24.12 22.8778 24.4602 22.5376 24.7782 22.1753C25.0075 21.909 25.3477 21.4505 25.3218 21.4505C25.3144 21.4505 25.3218 21.4431 25.3366 21.4357C25.3477 21.4283 25.3588 21.4173 25.3514 21.4099C25.3477 21.4062 25.3551 21.3951 25.3661 21.3914C25.3772 21.3877 25.3846 21.3803 25.3809 21.3729C25.3772 21.3655 25.3809 21.3581 25.3957 21.3544C25.4068 21.3507 25.4105 21.3396 25.4068 21.3322C25.4031 21.3248 25.4068 21.3174 25.4142 21.3174C25.4216 21.3174 25.429 21.3063 25.429 21.2989C25.429 21.2915 25.4364 21.2804 25.4438 21.2804C25.4512 21.2804 25.4586 21.273 25.4586 21.2657C25.4697 21.2361 25.4882 21.2065 25.5067 21.1806C25.5621 21.0956 25.784 20.6999 25.8136 20.6334C26.0243 20.1564 26.1574 19.7311 26.2203 19.3059C26.2425 19.1025 26.261 18.7291 26.2462 18.6403ZM17.0021 23.1515C16.9318 23.1921 16.8838 23.2106 16.8727 23.2032C16.8616 23.1995 16.8098 23.1551 16.7543 23.1145L16.6545 23.0331L16.551 23.1441C16.3254 23.3881 16.318 23.3992 16.2515 23.4029C16.1479 23.414 16.1257 23.3955 16 23.2069C15.9335 23.1108 15.8817 23.0294 15.8817 23.0294C15.8817 23.0294 15.8336 23.022 15.7782 23.0183L15.6746 23.0072L15.6266 23.1071L15.5785 23.2069L15.4934 23.181C15.4269 23.1588 15.3603 23.133 15.2975 23.1034L15.1865 23.0479V22.8372L16.1701 22.8408L17.1537 22.8445L17.1574 22.9444C17.1611 23.0627 17.1648 23.059 17.0021 23.1515ZM18.8509 22.4859C18.7954 22.6966 18.7511 22.8667 18.7511 22.8741C18.7104 22.8778 18.6734 22.8815 18.6327 22.8778H18.5144L18.3554 23.2661C18.2667 23.4768 18.1853 23.6728 18.1742 23.7024L18.152 23.7542L18.0744 23.6284L17.9967 23.5027V22.4785L17.9672 22.4859C17.9043 22.5007 17.4569 22.5598 17.2609 22.5783C16.4511 22.6597 15.6376 22.6412 14.8316 22.5265C14.7021 22.5081 14.5912 22.4933 14.5875 22.497C14.5838 22.5007 14.5875 22.7373 14.5949 23.0294L14.606 23.5545L14.5431 23.6506C14.5099 23.7024 14.4766 23.7468 14.4766 23.7505C14.4655 23.7616 14.4285 23.7024 14.3435 23.5323C14.251 23.3548 14.1845 23.1662 14.1364 22.9703L14.1105 22.863L13.9959 22.8704L13.8813 22.8815L13.8517 22.7447C13.8369 22.6708 13.8184 22.5561 13.811 22.4933L13.7999 22.3749L13.7038 22.2899C13.6483 22.2418 13.5929 22.1938 13.5818 22.1864C13.5633 22.1716 13.5559 22.1457 13.5559 22.1235V22.0791L14.0181 22.0828L14.4803 22.0865L14.4951 22.1346L14.5099 22.1827L14.6689 22.1901C14.7576 22.1938 15.0386 22.2012 15.2901 22.2086L15.7523 22.2196L15.8706 22.0348L15.9926 21.8499H16.1479L16.1442 21.4653L16.1405 21.0808L15.9372 20.992C15.2827 20.7036 14.8981 20.3745 14.7539 19.9752C14.7243 19.8938 14.7243 19.8642 14.7169 19.4945C14.7132 19.1284 14.7132 19.0951 14.7391 19.0138C14.7909 18.8289 14.9351 18.6847 15.12 18.6366C15.1828 18.6181 15.3492 18.6181 16.2219 18.6181L17.2498 18.6218L17.3644 18.6773C17.5013 18.7439 17.5641 18.7919 17.6418 18.8955C17.7305 19.0138 17.7564 19.1062 17.7564 19.3318C17.7564 19.6535 17.7342 19.9308 17.7009 20.0417C17.6529 20.1933 17.5789 20.3375 17.4865 20.467C17.3016 20.7036 16.9651 20.9403 16.6582 21.0475L16.5695 21.0808L16.5732 21.469L16.5769 21.8573L16.6582 21.8647L16.7395 21.8721L16.8505 22.0385L16.9577 22.2049H17.4532C17.7268 22.2049 17.9672 22.2086 17.9893 22.2123C18.0263 22.2196 18.0337 22.2159 18.0707 22.1531L18.1151 22.0865H18.5403C18.8694 22.0865 18.9655 22.0902 18.9655 22.1013C18.9544 22.0976 18.9064 22.2788 18.8509 22.4859Z" fill="white"/>
<path id="Path_8582" d="M26.2167 18.2632C26.2093 18.0968 26.1945 17.8638 26.1834 17.7492C26.0244 16.0705 25.5955 14.6987 24.782 13.2455C24.7487 13.19 24.7192 13.1346 24.7007 13.0902C24.6933 13.0791 24.6896 13.068 24.6859 13.0606C24.8005 12.7167 25.2701 11.2783 25.6436 9.63289C26.1502 7.39952 26.4718 4.78898 25.4883 4.00508C25.4883 4.00508 23.7874 3.87936 21.5096 6.11274C20.8921 6.73024 20.3264 7.39952 19.8235 8.11316L19.6645 8.06139C18.7475 7.76189 17.7972 7.577 16.8395 7.51414C16.5511 7.49196 15.4751 7.49196 15.1238 7.51414C14.0626 7.5844 13.2491 7.7434 12.3247 8.06509C12.2877 8.07988 12.2544 8.09098 12.2211 8.10207C11.6998 7.39212 11.1192 6.72655 10.4795 6.11644C8.10935 3.87197 6.34558 4.00138 6.34558 4.00138C5.30284 4.81117 5.65782 7.54003 6.19767 9.84736C6.55265 11.3745 6.98897 12.7167 7.15166 13.2011C7.14057 13.227 7.12578 13.2566 7.11099 13.2825C6.24944 15.0278 5.78354 16.7102 5.67261 18.4998C6.63769 18.3593 9.2963 18.2003 11.2893 20.345C11.2893 20.345 12.6057 16.8692 16.1554 16.8692C19.7052 16.8692 20.4632 20.345 20.4632 20.345C22.8149 18.4037 25.3478 18.4666 26.2352 18.559C26.2315 18.485 26.2241 18.3741 26.2167 18.2632ZM7.85052 11.8071C7.85052 11.8071 6.4676 8.34981 6.82257 6.37527C6.88174 6.04248 6.99267 5.75037 7.16646 5.52851C7.16646 5.52851 8.73425 5.68381 11.2634 8.49402C11.2634 8.49402 10.7828 8.72697 10.1394 9.22246C10.1394 9.22246 10.1357 9.22615 10.132 9.22615C9.43311 9.76231 8.53828 10.6128 7.85052 11.8071ZM13.7187 16.9431C13.6965 16.9875 13.5856 17.0356 13.4598 17.0541C13.3341 17.0725 12.9496 17.0615 12.7314 17.0356C11.9475 16.932 11.1155 16.6917 10.5091 16.3959C10.1689 16.2295 9.9249 16.0631 9.74371 15.8819L9.64018 15.7747L9.62909 15.6342C9.6106 15.3901 9.6143 15.0056 9.64388 14.8688C9.66236 14.7541 9.70304 14.6432 9.7585 14.5434C9.78808 14.5064 9.78808 14.5064 9.9212 14.5064C10.0839 14.5064 10.2207 14.5323 10.4426 14.6025C10.8974 14.743 11.574 15.0832 12.3986 15.5787C13.079 15.9854 13.3341 16.1851 13.5301 16.4587C13.6632 16.6288 13.752 16.8692 13.7187 16.9431ZM22.4303 15.7192C22.4192 15.7784 22.2454 15.9559 22.0717 16.0853C21.5614 16.4587 20.6481 16.8063 19.72 16.9727C19.1912 17.0689 18.6624 17.0836 18.5034 17.006C18.3999 16.9542 18.3851 16.9135 18.4221 16.7804C18.4997 16.5031 18.7512 16.1999 19.1431 15.9152C19.3428 15.771 20.1526 15.2792 20.5297 15.0721C21.1509 14.7319 21.6538 14.5286 21.994 14.4805C22.1012 14.4657 22.2307 14.462 22.2713 14.4805C22.3379 14.5064 22.4118 14.7024 22.4414 14.939C22.4562 15.0647 22.4488 15.6194 22.4303 15.7192ZM21.8165 9.22246L21.8091 9.21876C21.1879 8.72327 20.722 8.49032 20.722 8.49032C23.1662 5.68011 24.6785 5.52481 24.6785 5.52481C24.8449 5.75037 24.9521 6.03878 25.0113 6.37157C25.3552 8.34611 24.0203 11.8071 24.0203 11.8071C23.462 10.8124 22.7113 9.9324 21.8165 9.22246Z" fill="#FFA409"/>
<g id="Group_934">
<g id="Group_933">
<g id="Group_932">
<path id="Path_8585" d="M25.0151 6.37157C24.7267 6.33459 23.3623 6.3272 21.8167 9.22245L21.8093 9.21876C21.1881 8.72327 20.7222 8.49032 20.7222 8.49032C23.1663 5.68011 24.6786 5.52481 24.6786 5.52481C24.8487 5.75037 24.956 6.03878 25.0151 6.37157Z" fill="#FF9300"/>
</g>
<path id="Path_8586" d="M24.0241 11.8071C23.4621 10.8087 22.7152 9.93239 21.8167 9.22244C23.3623 6.32719 24.723 6.33458 25.0151 6.37156C25.359 8.3498 24.0241 11.8071 24.0241 11.8071Z" fill="#FF8300"/>
<path id="Path_8587" d="M25.0706 6.38266C25.0521 6.37896 25.0336 6.37526 25.0151 6.37157L25.0706 6.38266Z" fill="#FF8300"/>
</g>
</g>
<g id="Group_937">
<g id="Group_936">
<g id="Group_935">
<path id="Path_8590" d="M11.2634 8.49032C11.2634 8.49032 10.7827 8.72327 10.1393 9.21876C10.1393 9.21876 10.1356 9.22245 10.1319 9.22245C8.53086 6.3235 7.12205 6.33459 6.81885 6.37157C6.87801 6.03878 6.98894 5.74667 7.16273 5.52481C7.16643 5.52481 8.73422 5.68011 11.2634 8.49032Z" fill="#FF9300"/>
</g>
<path id="Path_8591" d="M10.1358 9.22244C9.43321 9.7623 8.53838 10.6091 7.85062 11.8071C7.85062 11.8071 6.4677 8.3498 6.82267 6.37156C7.12218 6.33458 8.53468 6.32719 10.1358 9.22244Z" fill="#FF8300"/>
<path id="Path_8592" d="M6.82259 6.37157C6.8041 6.37526 6.78192 6.37896 6.76343 6.38266L6.82259 6.37157Z" fill="#FF8300"/>
</g>
</g>
<path id="Path_8593" d="M20.282 13.7262C20.282 13.7262 19.0988 13.8001 19.2467 12.8757C19.3946 11.9513 20.319 11.8404 20.5778 11.8774C20.8367 11.9144 21.872 12.2841 21.6871 13.0606C21.5022 13.8371 21.2434 13.6892 21.0955 13.7262C20.9476 13.7632 20.282 13.7262 20.282 13.7262Z" fill="white"/>
<path id="Path_8594" d="M11.5555 13.7262C11.5555 13.7262 10.3722 13.8001 10.5201 12.8757C10.668 11.9513 11.5924 11.8404 11.8513 11.8774C12.1101 11.9144 13.1454 12.2841 12.9606 13.0606C12.7757 13.8371 12.5168 13.6892 12.3689 13.7262C12.221 13.7632 11.5555 13.7262 11.5555 13.7262Z" fill="white"/>
</g>
</g>
<defs>
<clipPath id="clip0_5088_172">
<rect width="32" height="32" fill="white"/>
</clipPath>
</defs>
</svg>
