<svg width="32" height="32" viewBox="0 0 32 32" fill="none" xmlns="http://www.w3.org/2000/svg">
<g id="currencies / currency-atom" clip-path="url(#clip0_5088_168)">
<circle id="logo" cx="16" cy="16" r="16" fill="#1B1E36"/>
<g id="Vector">
<path d="M17.5002 16C17.5002 16.8284 16.8286 17.5 16.0002 17.5C15.1717 17.5 14.5002 16.8284 14.5002 16C14.5002 15.1716 15.1717 14.5 16.0002 14.5C16.8286 14.5 17.5002 15.1716 17.5002 16Z" fill="white"/>
<path d="M15.5002 23.5C15.5002 24.3284 14.8286 25 14.0002 25C13.1717 25 12.5002 24.3284 12.5002 23.5C12.5002 22.6716 13.1717 22 14.0002 22C14.8286 22 15.5002 22.6716 15.5002 23.5Z" fill="white"/>
<path d="M18.5002 16C18.5002 13.2732 18.1681 10.8235 17.6427 9.07227C17.3791 8.19357 17.0747 7.51905 16.7599 7.0752C16.4359 6.61832 16.172 6.5 16.0002 6.5C15.8284 6.5 15.5645 6.61832 15.2404 7.0752C14.9256 7.51905 14.6212 8.19357 14.3576 9.07227C13.8322 10.8235 13.5002 13.2732 13.5002 16C13.5002 18.7268 13.8322 21.1765 14.3576 22.9277C14.6212 23.8064 14.9256 24.4809 15.2404 24.9248C15.5645 25.3817 15.8284 25.5 16.0002 25.5C16.172 25.5 16.4359 25.3817 16.7599 24.9248C17.0747 24.4809 17.3791 23.8064 17.6427 22.9277C18.1681 21.1765 18.5002 18.7268 18.5002 16ZM19.5002 16C19.5002 18.7961 19.1611 21.3468 18.6007 23.2148C18.3215 24.1456 17.9783 24.9348 17.5754 25.5029C17.1816 26.0581 16.6568 26.5 16.0002 26.5C15.3435 26.5 14.8187 26.0581 14.425 25.5029C14.022 24.9348 13.6788 24.1456 13.3996 23.2148C12.8392 21.3468 12.5002 18.7961 12.5002 16C12.5002 13.2039 12.8392 10.6532 13.3996 8.78516C13.6788 7.85442 14.022 7.06521 14.425 6.49707C14.8187 5.9419 15.3435 5.5 16.0002 5.5C16.6568 5.5 17.1816 5.9419 17.5754 6.49707C17.9783 7.06521 18.3215 7.85442 18.6007 8.78516C19.1611 10.6532 19.5002 13.2039 19.5002 16Z" fill="white"/>
<path d="M17.2502 13.8349C14.8887 12.4715 12.6012 11.5343 10.8219 11.1136C9.92907 10.9026 9.19273 10.8289 8.65093 10.8796C8.09324 10.9318 7.85882 11.1012 7.77292 11.25C7.68702 11.3988 7.65753 11.6865 7.89117 12.1956C8.11815 12.6901 8.55012 13.291 9.17928 13.9586C10.4332 15.2893 12.3887 16.8017 14.7502 18.1651C17.1116 19.5285 19.3991 20.4657 21.1785 20.8864C22.0712 21.0974 22.8076 21.1711 23.3494 21.1204C23.9071 21.0682 24.1415 20.8988 24.2274 20.75C24.3133 20.6012 24.3428 20.3135 24.1091 19.8044C23.8822 19.3099 23.4502 18.709 22.821 18.0414C21.5671 16.7107 19.6116 15.1983 17.2502 13.8349ZM17.7502 12.9689C20.1716 14.3669 22.2111 15.9359 23.5487 17.3552C24.2151 18.0624 24.727 18.7543 25.0175 19.3873C25.3014 20.0059 25.4217 20.6814 25.0934 21.25C24.7651 21.8186 24.12 22.0522 23.4423 22.1156C22.7488 22.1805 21.8938 22.0832 20.9481 21.8596C19.0502 21.4109 16.6716 20.4291 14.2502 19.0311C11.8287 17.6331 9.78917 16.0641 8.45163 14.6448C7.7852 13.9376 7.27334 13.2457 6.98278 12.6127C6.69888 11.9941 6.57858 11.3186 6.90689 10.75C7.2352 10.1814 7.88031 9.94781 8.55798 9.88438C9.25147 9.8195 10.1066 9.91685 11.0522 10.1404C12.9502 10.5891 15.3287 11.5709 17.7502 12.9689Z" fill="white"/>
<path d="M14.7501 13.835C12.3887 15.1984 10.4332 16.7108 9.17925 18.0414C8.55009 18.709 8.11812 19.3099 7.89114 19.8045C7.6575 20.3135 7.68699 20.6012 7.77289 20.75C7.85879 20.8988 8.09321 21.0682 8.6509 21.1204C9.1927 21.1711 9.92904 21.0975 10.8218 20.8864C12.6012 20.4658 14.8887 19.5285 17.2501 18.1651C19.6116 16.8017 21.5671 15.2893 22.821 13.9587C23.4502 13.291 23.8821 12.6902 24.1091 12.1956C24.3428 11.6865 24.3133 11.3988 24.2274 11.25C24.1415 11.1012 23.9071 10.9319 23.3494 10.8797C22.8076 10.8289 22.0712 10.9026 21.1784 11.1137C19.3991 11.5343 17.1116 12.4716 14.7501 13.835ZM14.2501 12.9689C16.6716 11.5709 19.0501 10.5891 20.9481 10.1404C21.8937 9.91688 22.7488 9.81953 23.4423 9.88441C24.12 9.94784 24.7651 10.1814 25.0934 10.75C25.4217 11.3187 25.3014 11.9941 25.0175 12.6127C24.7269 13.2457 24.2151 13.9376 23.5487 14.6448C22.2111 16.0641 20.1716 17.6331 17.7501 19.0311C15.3287 20.4292 12.9501 21.4109 11.0522 21.8596C10.1065 22.0832 9.25144 22.1805 8.55795 22.1157C7.88028 22.0522 7.23517 21.8187 6.90686 21.25C6.57855 20.6814 6.69885 20.0059 6.98275 19.3873C7.27331 18.7543 7.78516 18.0625 8.4516 17.3553C9.78914 15.936 11.8287 14.367 14.2501 12.9689Z" fill="white"/>
<path d="M23.0002 10.5C23.0002 11.3284 22.3286 12 21.5002 12C20.6717 12 20.0002 11.3284 20.0002 10.5C20.0002 9.67157 20.6717 9 21.5002 9C22.3286 9 23.0002 9.67157 23.0002 10.5Z" fill="white"/>
<path d="M10.0002 14C10.0002 14.8284 9.32859 15.5 8.50016 15.5C7.67173 15.5 7.00016 14.8284 7.00016 14C7.00016 13.1716 7.67173 12.5 8.50016 12.5C9.32859 12.5 10.0002 13.1716 10.0002 14Z" fill="white"/>
</g>
</g>
<defs>
<clipPath id="clip0_5088_168">
<rect width="32" height="32" fill="white"/>
</clipPath>
</defs>
</svg>
