<svg width="32" height="32" viewBox="0 0 32 32" fill="none" xmlns="http://www.w3.org/2000/svg">
<g id="currencies / currency-eurc" clip-path="url(#clip0_5088_171)">
<circle id="Ellipse 1" cx="16" cy="16" r="16" fill="#2775CA"/>
<path id="&#226;&#130;&#172;" d="M18.4454 14.044L17.8382 15.3608H9.43262L9.91202 14.044H18.4454ZM17.3012 16.6392L16.6812 17.9688H9.43262L9.91202 16.6392H17.3012ZM20.0051 10.5732L19.2508 12.1903C19.0122 11.9858 18.7522 11.8004 18.471 11.6342C18.1897 11.468 17.8872 11.3359 17.5633 11.2379C17.2394 11.1357 16.8921 11.0845 16.5214 11.0845C15.8396 11.0845 15.2323 11.2678 14.6997 11.6342C14.167 12.0007 13.7472 12.5504 13.4404 13.2834C13.1379 14.0121 12.9866 14.9198 12.9866 16.0064C12.9866 17.093 13.1379 18.0007 13.4404 18.7294C13.7472 19.4581 14.167 20.0057 14.6997 20.3722C15.2323 20.7344 15.8396 20.9155 16.5214 20.9155C16.8964 20.9155 17.2458 20.8665 17.5697 20.7685C17.8978 20.6705 18.1961 20.5426 18.4646 20.3849C18.7373 20.223 18.9823 20.0526 19.1997 19.8736L19.9731 21.4844C19.5214 21.8935 18.9972 22.2024 18.4007 22.4112C17.8041 22.62 17.1776 22.7244 16.5214 22.7244C15.4518 22.7244 14.5036 22.4538 13.6769 21.9126C12.8545 21.3715 12.2089 20.6001 11.7401 19.5987C11.2714 18.593 11.037 17.3956 11.037 16.0064C11.037 14.6129 11.2714 13.4134 11.7401 12.4077C12.2089 11.402 12.8545 10.6286 13.6769 10.0874C14.5036 9.54617 15.4518 9.27557 16.5214 9.27557C17.2032 9.27557 17.8382 9.3885 18.4262 9.61435C19.0143 9.83594 19.5406 10.1555 20.0051 10.5732Z" fill="white"/>
<g id="logo">
<path d="M6.66656 12.7333C4.73312 17.8667 7.39984 23.6667 12.5998 25.5333C12.7998 25.6667 12.9998 25.9333 12.9998 26.1333V27.0667C12.9998 27.2 12.9998 27.2667 12.9331 27.3333C12.8666 27.6 12.5998 27.7333 12.3331 27.6C8.59983 26.4 5.73312 23.5333 4.53312 19.8C2.53312 13.4667 5.99983 6.73328 12.3331 4.73328C12.3998 4.66672 12.5331 4.66672 12.5998 4.66672C12.8666 4.73328 12.9998 4.93328 12.9998 5.2V6.13328C12.9998 6.46672 12.8666 6.66672 12.5998 6.8C9.86656 7.8 7.66656 9.93328 6.66656 12.7333Z" fill="white"/>
<path d="M19.0666 5C19.1331 4.73328 19.3998 4.6 19.6666 4.73328C23.3331 5.93328 26.2666 8.8 27.4666 12.6C29.4666 18.9333 25.9998 25.6667 19.6666 27.6667C19.5998 27.7333 19.4666 27.7333 19.3998 27.7333C19.1331 27.6667 18.9998 27.4667 18.9998 27.2V26.2667C18.9998 25.9333 19.1331 25.7333 19.3998 25.6C22.1331 24.6 24.3331 22.4667 25.3331 19.6667C27.2666 14.5333 24.5998 8.73328 19.3998 6.86672C19.1998 6.73328 18.9998 6.46672 18.9998 6.2V5.26672C18.9998 5.13328 18.9998 5.06672 19.0666 5Z" fill="white"/>
</g>
</g>
<defs>
<clipPath id="clip0_5088_171">
<rect width="32" height="32" fill="white"/>
</clipPath>
</defs>
</svg>
