<svg width="32" height="32" viewBox="0 0 32 32" fill="none" xmlns="http://www.w3.org/2000/svg">
<g id="currencies / currency-eusdt" clip-path="url(#clip0_3968_252)">
<g id="logo">
<path d="M32 16C32 24.837 24.837 32 16 32C7.163 32 0 24.837 0 16C0 7.163 7.163 0 16 0C24.837 0 32 7.163 32 16Z" fill="#53AE94"/>
<path d="M17.975 13.868V11.488H23.418V7.861H8.596V11.488H14.04V13.866C9.616 14.069 6.29 14.946 6.29 15.996C6.29 17.046 9.618 17.921 14.04 18.126V25.749H17.976V18.125C22.392 17.921 25.712 17.045 25.712 15.997C25.712 14.949 22.392 14.073 17.976 13.869L17.975 13.868ZM17.976 17.479V17.477C17.865 17.484 17.294 17.518 16.024 17.518C15.008 17.518 14.294 17.49 14.042 17.477V17.48C10.133 17.307 7.216 16.626 7.216 15.812C7.216 14.997 10.134 14.317 14.042 14.144V16.802C14.298 16.819 15.03 16.862 16.041 16.862C17.254 16.862 17.865 16.812 17.977 16.802V14.144C21.877 14.318 24.788 14.999 24.788 15.811C24.788 16.622 21.875 17.303 17.976 17.477" fill="white"/>
</g>
</g>
<defs>
<clipPath id="clip0_3968_252">
<rect width="32" height="32" fill="white"/>
</clipPath>
</defs>
</svg>
