<svg width="32" height="32" viewBox="0 0 32 32" fill="none" xmlns="http://www.w3.org/2000/svg">
<g id="currencies / currency-optimism" clip-path="url(#clip0_5088_165)">
<g id="logo">
<path d="M16.0361 12.0996C16.8925 13.8191 18.1809 15.1074 19.9004 15.9639V16.0361C18.1809 16.8926 16.8925 18.1809 16.0361 19.9004H15.9639C15.1074 18.1809 13.8191 16.8926 12.0996 16.0361V15.9639C13.8191 15.1074 15.1074 13.8191 15.9639 12.0996H16.0361Z" fill="#FF0421"/>
<path fill-rule="evenodd" clip-rule="evenodd" d="M16 0C24.8366 0 32 7.16344 32 16C32 24.8366 24.8366 32 16 32C7.16344 32 0 24.8366 0 16C0 7.16344 7.16344 0 16 0ZM16 10.2324C11.6465 10.2324 8.11621 13.7627 8.11621 18.1162C8.11622 22.4697 11.6465 26 16 26V21.7676C20.3535 21.7676 23.8838 18.2373 23.8838 13.8838C23.8838 9.53029 20.3535 6 16 6V10.2324Z" fill="#FF0421"/>
<path d="M16 6C20.3535 6 23.8838 9.53029 23.8838 13.8838C23.8838 18.2373 20.3535 21.7676 16 21.7676V26C11.6465 26 8.11622 22.4697 8.11621 18.1162C8.11621 13.7627 11.6465 10.2324 16 10.2324V6ZM15.9639 12.0996C15.1074 13.8191 13.8191 15.1074 12.0996 15.9639V16.0361C13.8191 16.8926 15.1074 18.1809 15.9639 19.9004H16.0361C16.8925 18.1809 18.1809 16.8926 19.9004 16.0361V15.9639C18.1809 15.1074 16.8925 13.8191 16.0361 12.0996H15.9639Z" fill="#FAFAF9"/>
</g>
</g>
<defs>
<clipPath id="clip0_5088_165">
<rect width="32" height="32" fill="white"/>
</clipPath>
</defs>
</svg>
