<svg width="32" height="32" viewBox="0 0 32 32" fill="none" xmlns="http://www.w3.org/2000/svg">
<g id="currencies / currency-P2P">
<g id="logo">
<path d="M16 0C11.2212 0 6.93178 2.09502 4 5.4167L24 2.14051C21.6466 0.779154 18.9143 0 16 0Z" fill="#E12E3A"/>
<path fill-rule="evenodd" clip-rule="evenodd" d="M0 16C0 24.8365 7.16345 32 16 32C19.5572 32 22.8432 30.8392 25.5 28.8757L29.5579 7.5C28.1712 5.29274 26.2604 3.44808 24 2.14051L4 5.4167C1.51055 8.23723 0 11.9422 0 16Z" fill="#FF444F"/>
<path d="M25.5 28.8757C29.4431 25.9615 32 21.2794 32 16C32 12.8769 31.1052 9.96274 29.5579 7.5L25.5 28.8757Z" fill="#E12E3A"/>
<path d="M8.03811 11.4955C9.38144 11.4955 10.4128 11.7338 11.1321 12.2105C11.8514 12.6785 12.2111 13.4498 12.2111 14.5245C12.2111 15.6078 11.8471 16.3921 11.1191 16.8775C10.3911 17.3542 9.35111 17.5925 7.99911 17.5925H7.36211V20.6085H5.33411V11.7295C5.77611 11.6428 6.24411 11.5821 6.73811 11.5475C7.23211 11.5128 7.66544 11.4955 8.03811 11.4955ZM8.16811 13.2245C8.02077 13.2245 7.87344 13.2288 7.72611 13.2375C7.58744 13.2461 7.46611 13.2548 7.36211 13.2635V15.8635H7.99911C8.70111 15.8635 9.22978 15.7681 9.58511 15.5775C9.94044 15.3868 10.1181 15.0315 10.1181 14.5115C10.1181 14.2601 10.0704 14.0521 9.97511 13.8875C9.88844 13.7228 9.75844 13.5928 9.58511 13.4975C9.42044 13.3935 9.21678 13.3241 8.97411 13.2895C8.73144 13.2461 8.46277 13.2245 8.16811 13.2245Z" fill="white"/>
<path d="M18.4583 13.9655C18.4583 14.2948 18.3933 14.6111 18.2633 14.9145C18.1333 15.2178 17.9643 15.5125 17.7563 15.7985C17.5483 16.0758 17.3143 16.3445 17.0543 16.6045C16.7943 16.8645 16.5387 17.1115 16.2873 17.3455C16.1573 17.4668 16.0143 17.6055 15.8583 17.7615C15.711 17.9088 15.568 18.0605 15.4293 18.2165C15.2907 18.3725 15.165 18.5198 15.0523 18.6585C14.9483 18.7885 14.8833 18.8968 14.8573 18.9835H18.7313V20.6085H12.7253C12.708 20.5131 12.6993 20.3918 12.6993 20.2445C12.6993 20.0971 12.6993 19.9931 12.6993 19.9325C12.6993 19.5165 12.7643 19.1351 12.8943 18.7885C13.033 18.4418 13.2107 18.1211 13.4273 17.8265C13.644 17.5231 13.8867 17.2415 14.1553 16.9815C14.4327 16.7215 14.7057 16.4615 14.9743 16.2015C15.1823 16.0021 15.3773 15.8158 15.5593 15.6425C15.7413 15.4605 15.9017 15.2871 16.0403 15.1225C16.179 14.9491 16.2873 14.7801 16.3653 14.6155C16.4433 14.4421 16.4823 14.2688 16.4823 14.0955C16.4823 13.7141 16.374 13.4455 16.1573 13.2895C15.9407 13.1335 15.672 13.0555 15.3513 13.0555C15.1173 13.0555 14.8963 13.0945 14.6883 13.1725C14.489 13.2418 14.3027 13.3285 14.1293 13.4325C13.9647 13.5278 13.8217 13.6275 13.7003 13.7315C13.579 13.8268 13.488 13.9048 13.4273 13.9655L12.4653 12.6135C12.8467 12.2581 13.2887 11.9678 13.7913 11.7425C14.3027 11.5085 14.8487 11.3915 15.4293 11.3915C15.958 11.3915 16.413 11.4521 16.7943 11.5735C17.1757 11.6948 17.4877 11.8681 17.7303 12.0935C17.9817 12.3101 18.1637 12.5788 18.2763 12.8995C18.3977 13.2115 18.4583 13.5668 18.4583 13.9655Z" fill="white"/>
<path d="M22.493 11.4955C23.8363 11.4955 24.8677 11.7338 25.587 12.2105C26.3063 12.6785 26.666 13.4498 26.666 14.5245C26.666 15.6078 26.302 16.3921 25.574 16.8775C24.846 17.3542 23.806 17.5925 22.454 17.5925H21.817V20.6085H19.789V11.7295C20.231 11.6428 20.699 11.5821 21.193 11.5475C21.687 11.5128 22.1203 11.4955 22.493 11.4955ZM22.623 13.2245C22.4757 13.2245 22.3283 13.2288 22.181 13.2375C22.0423 13.2461 21.921 13.2548 21.817 13.2635V15.8635H22.454C23.156 15.8635 23.6847 15.7681 24.04 15.5775C24.3953 15.3868 24.573 15.0315 24.573 14.5115C24.573 14.2601 24.5253 14.0521 24.43 13.8875C24.3433 13.7228 24.2133 13.5928 24.04 13.4975C23.8753 13.3935 23.6717 13.3241 23.429 13.2895C23.1863 13.2461 22.9177 13.2245 22.623 13.2245Z" fill="white"/>
</g>
</g>
</svg>
