<svg width="32" height="32" viewBox="0 0 32 32" fill="none" xmlns="http://www.w3.org/2000/svg">
<g id="currencies / currency-aptos" clip-path="url(#clip0_5088_166)">
<g id="logo">
<path fill-rule="evenodd" clip-rule="evenodd" d="M16 0C24.8366 0 32 7.16344 32 16C32 24.8366 24.8366 32 16 32C7.16344 32 0 24.8366 0 16C0 7.16344 7.16344 0 16 0ZM6.80664 25.2676C9.17547 27.5627 12.4128 28.9999 15.9912 29C19.5697 29 22.8626 27.6359 25.2402 25.2676H11.624L9.21484 21.5566L6.80664 25.2676ZM3 17.8447C3.19 19.1557 3.57661 20.4032 4.13086 21.5566H9.21484L11.623 17.8447H3ZM4.13086 10.4229C3.57662 11.5763 3.18957 12.8236 3 14.1338L14.0322 14.1348L16.4404 10.4229H4.13086ZM16 3C12.4216 3 9.17844 4.41588 6.80957 6.71094H18.8486L16.4404 10.4229L18.8486 14.1338H29L28.9199 13.6455C28.7111 12.513 28.3541 11.4321 27.8691 10.4229H21.2568L18.8486 6.71094L25.1904 6.71191C22.822 4.41635 19.5784 3.00007 16 3Z" fill="#D5FAD3"/>
<path d="M4.13086 10.4229C3.57662 11.5763 3.18957 12.8236 3 14.1338L14.0319 14.1338L16.4404 10.4229H4.13086Z" fill="#0F0E0B"/>
<path d="M29 14.1338C28.81 12.8232 28.4234 11.5763 27.8691 10.4229H21.2568L18.8486 6.71094L25.1904 6.71191C22.822 4.41635 19.5784 3.00007 16 3C12.4216 3 9.17844 4.41588 6.80957 6.71094H18.8486L16.4404 10.4229L18.8486 14.1338H29Z" fill="#0F0E0B"/>
<path d="M9.21484 21.5566L6.80664 25.2676C9.17547 27.5627 12.4128 28.9999 15.9912 29C19.5697 29 22.8626 27.6359 25.2402 25.2676H11.624L9.21484 21.5566Z" fill="#0F0E0B"/>
<path d="M11.623 17.8447H3C3.19 19.1557 3.57661 20.4032 4.13086 21.5566H9.21484L11.623 17.8447Z" fill="#0F0E0B"/>
<path d="M14.0319 21.5567L27.8691 21.5566C28.4234 20.4032 28.8104 19.1559 29 17.8457H16.4404L14.0319 14.1338L11.623 17.8447" fill="#0F0E0B"/>
</g>
</g>
<defs>
<clipPath id="clip0_5088_166">
<rect width="32" height="32" fill="white"/>
</clipPath>
</defs>
</svg>
