<svg width="32" height="32" viewBox="0 0 32 32" fill="none" xmlns="http://www.w3.org/2000/svg">
<g id="currencies / currency-arbitrum" clip-path="url(#clip0_5088_170)">
<g id="logo">
<path fill-rule="evenodd" clip-rule="evenodd" d="M16 0C24.8366 0 32 7.16344 32 16C32 23.3698 27.0167 29.5734 20.2363 31.4307C21.0029 31.2207 21.7468 30.9562 22.4629 30.6396L18.7422 20.4336C18.6495 20.1778 18.2947 20.178 18.2031 20.4336L16.5205 25.041C16.4711 25.1678 16.4711 25.3107 16.5205 25.4375L18.8203 31.751C19.1262 31.6966 19.4289 31.633 19.7285 31.5615C18.5321 31.8471 17.2839 32 16 32C12.7435 32 9.71474 31.0264 7.1875 29.3555C7.32054 29.4434 7.45506 29.5292 7.59082 29.6133L14.832 9.7627C14.8965 9.57894 14.7612 9.38002 14.5547 9.37988H11.3242C11.0836 9.38005 10.8636 9.52834 10.7861 9.75488L4.46289 27.085C1.69928 24.2093 0 20.3033 0 16C0 7.16344 7.16344 0 16 0ZM16.9814 9.37988C16.7407 9.37996 16.5198 9.52814 16.4424 9.75488L8.92676 30.3545C10.0538 30.9109 11.2559 31.3376 12.5137 31.6172L20.4814 9.77051C20.5524 9.57917 20.4108 9.38018 20.2119 9.37988H16.9814ZM21.5674 12.6826C21.4748 12.4265 21.1196 12.4265 21.0283 12.6826L19.3457 17.2891C19.2962 17.4159 19.2962 17.5597 19.3457 17.6865L23.8203 29.96C24.9805 29.3086 26.0515 28.5176 27.0098 27.6084L21.5674 12.6826Z" fill="#05163D"/>
<path d="M18.2031 20.4336C18.2947 20.178 18.6495 20.1778 18.7422 20.4336L22.4629 30.6396C21.3133 31.1479 20.093 31.5246 18.8203 31.751L16.5205 25.4375C16.4711 25.3107 16.4711 25.1678 16.5205 25.041L18.2031 20.4336Z" fill="#12AAFF"/>
<path d="M20.2119 9.37988C20.4108 9.38018 20.5524 9.57917 20.4814 9.77051L12.5137 31.6172C11.2559 31.3376 10.0538 30.9109 8.92676 30.3545L16.4424 9.75488C16.5198 9.52814 16.7407 9.37996 16.9814 9.37988H20.2119Z" fill="white"/>
<path d="M21.0283 12.6826C21.1196 12.4265 21.4748 12.4265 21.5674 12.6826L27.0098 27.6084C26.0515 28.5176 24.9805 29.3086 23.8203 29.96L19.3457 17.6865C19.2962 17.5597 19.2962 17.4159 19.3457 17.2891L21.0283 12.6826Z" fill="#12AAFF"/>
<path d="M14.5547 9.37988C14.7612 9.38002 14.8965 9.57894 14.832 9.7627L7.59082 29.6133C6.44394 28.9033 5.39283 28.0525 4.46289 27.085L10.7861 9.75488C10.8636 9.52834 11.0836 9.38005 11.3242 9.37988H14.5547Z" fill="white"/>
</g>
</g>
<defs>
<clipPath id="clip0_5088_170">
<rect width="32" height="32" fill="white"/>
</clipPath>
</defs>
</svg>
