<svg width="15" height="18" viewBox="0 0 15 18" fill="none" xmlns="http://www.w3.org/2000/svg">
<g id="label-paired / caption / hand-gesture-tap-right-caption / regular" clip-path="url(#clip0_3546_765)">
<path id="icon" d="M12.5156 4.25C12.3984 4.25 12.2812 4.36719 12.2812 4.48438V14.5391C12.2812 14.6562 12.3984 14.75 12.5156 14.75C12.6328 14.75 12.75 14.6562 12.75 14.5391V4.48438C12.75 4.36719 12.6328 4.25 12.5156 4.25ZM12 8.375C12 9.17188 11.3906 9.80469 10.6172 9.875L9.75 11.7266C9.77344 11.7734 9.82031 11.8203 9.84375 11.8906L10.0312 12.2422C10.1953 12.5703 10.1953 12.9453 10.0547 13.2734L9.91406 13.5547C9.58594 14.2578 8.88281 14.7266 8.13281 14.75H7.99219C7.61719 14.7734 7.28906 14.7031 6.98438 14.5625L5.17969 13.6953C4.35938 13.3203 4.00781 12.3359 4.40625 11.5156L4.99219 10.25C5.22656 9.78125 5.78906 9.57031 6.25781 9.80469C6.25781 9.80469 6.28125 9.82812 6.30469 9.82812C6.32812 9.85156 6.35156 9.85156 6.35156 9.875C6.63281 9.6875 6.98438 9.64062 7.28906 9.78125C7.38281 9.80469 7.42969 9.85156 7.5 9.89844C7.75781 9.71094 8.13281 9.66406 8.46094 9.80469C8.57812 9.85156 8.67188 9.94531 8.74219 10.0156L9.16406 9.10156C9.04688 8.89062 8.97656 8.65625 8.97656 8.375C8.97656 7.55469 9.65625 6.875 10.4766 6.875C11.3203 6.875 11.9766 7.55469 11.9766 8.375H12ZM11.0156 9.07812L10.875 9.35938C11.2734 9.21875 11.5312 8.82031 11.5312 8.375C11.5312 7.8125 11.0625 7.34375 10.5 7.34375C9.91406 7.34375 9.44531 7.8125 9.44531 8.375C9.44531 8.44531 9.44531 8.49219 9.44531 8.53906L9.51562 8.375C9.70312 7.97656 10.2188 7.78906 10.6172 7.97656C11.0156 8.16406 11.2031 8.67969 11.0156 9.07812ZM8.76562 12.6875L10.5938 8.86719C10.6641 8.70312 10.5938 8.49219 10.4062 8.39844C10.2422 8.32812 10.0312 8.39844 9.9375 8.5625L8.95312 10.6719C8.90625 10.7656 8.8125 10.8125 8.71875 10.7891C8.60156 10.7656 8.53125 10.6953 8.50781 10.6016C8.48438 10.4375 8.39062 10.2969 8.25 10.2266C8.0625 10.1328 7.80469 10.2031 7.6875 10.3906C7.64062 10.4375 7.57031 10.4844 7.47656 10.4844C7.40625 10.4844 7.33594 10.4375 7.28906 10.3672C7.24219 10.2969 7.17188 10.25 7.10156 10.2031C6.91406 10.1094 6.67969 10.1562 6.53906 10.3203C6.49219 10.3672 6.44531 10.4141 6.375 10.4141C6.30469 10.4141 6.23438 10.3672 6.1875 10.3438C6.14062 10.2969 6.09375 10.25 6.04688 10.2266C5.8125 10.1328 5.53125 10.2266 5.41406 10.4609L4.82812 11.7266C4.54688 12.3125 4.78125 13.0156 5.36719 13.2969L7.17188 14.1406C7.42969 14.2578 7.6875 14.3047 7.96875 14.2812L8.10938 14.3047C8.71875 14.2578 9.23438 13.8828 9.49219 13.3438L9.63281 13.0859C9.72656 12.875 9.70312 12.6641 9.60938 12.4531L9.49219 12.2422L9.1875 12.875C9.14062 13.0156 9 13.0625 8.88281 12.9922C8.78906 12.9453 8.71875 12.8047 8.76562 12.6875Z" fill="black" fill-opacity="0.72"/>
</g>
<defs>
<clipPath id="clip0_3546_765">
<rect width="15" height="18" fill="white"/>
</clipPath>
</defs>
</svg>
