<svg width="18" height="22" viewBox="0 0 18 22" fill="none" xmlns="http://www.w3.org/2000/svg">
<g id="label-paired / sm / bell-slash-sm / bold" clip-path="url(#clip0_2556_12956)">
<path id="icon" d="M1.28906 3.91406L5.33594 7.05859C5.96484 6.10156 6.94922 5.39062 8.125 5.17188V4.625C8.125 4.16016 8.50781 3.75 9 3.75C9.46484 3.75 9.875 4.16016 9.875 4.625V5.17188C11.8711 5.55469 13.375 7.33203 13.375 9.4375V10.1484C13.375 11.3789 13.7852 12.582 14.5508 13.5664L14.9609 14.0586C15.0977 14.25 15.1523 14.4961 15.0703 14.6875L17.4766 16.6016C17.7773 16.8203 17.832 17.2305 17.5859 17.5039C17.3672 17.8047 16.957 17.8594 16.6836 17.6133L0.496094 4.92578C0.195312 4.70703 0.140625 4.29688 0.386719 4.02344C0.605469 3.72266 1.01562 3.66797 1.28906 3.91406ZM6.375 7.87891L12.5547 12.7188C12.2266 11.9258 12.0625 11.0508 12.0625 10.1484V9.4375C12.0625 7.76953 10.668 6.375 9 6.375C7.87891 6.375 6.89453 6.97656 6.375 7.87891ZM11.3516 15.125H3.53125C3.25781 15.125 3.03906 14.9883 2.92969 14.7695C2.82031 14.5508 2.84766 14.2773 3.01172 14.0586L3.42188 13.5664C4.1875 12.582 4.625 11.3789 4.625 10.1484V9.84766L5.88281 10.832C5.77344 11.8984 5.41797 12.9375 4.84375 13.8125H9.68359L11.3516 15.125ZM10.75 16C10.75 16.4648 10.5586 16.9297 10.2305 17.2578C9.90234 17.5859 9.46484 17.75 9 17.75C8.53516 17.75 8.07031 17.5859 7.74219 17.2578C7.41406 16.9297 7.25 16.4648 7.25 16H9H10.75Z" fill="black" fill-opacity="0.72"/>
</g>
<defs>
<clipPath id="clip0_2556_12956">
<rect width="18" height="22" fill="white"/>
</clipPath>
</defs>
</svg>
