<svg width="9" height="22" viewBox="0 0 9 22" fill="none" xmlns="http://www.w3.org/2000/svg">
<g id="label-paired / sm / caret-down-sm / regular" clip-path="url(#clip0_2556_12340)">
<path id="icon" d="M4.63672 13.3203L7.91797 10.2305C7.97266 10.1758 7.97266 10.1484 7.97266 10.0938C7.97266 9.98438 7.89062 9.875 7.78125 9.875H1.19141C1.08203 9.875 1 9.98438 1 10.0938C1 10.1484 1 10.1758 1.05469 10.2305L4.33594 13.3203C4.36328 13.375 4.41797 13.375 4.5 13.375C4.55469 13.375 4.60938 13.375 4.63672 13.3203ZM5.23828 13.9766C5.04688 14.168 4.77344 14.25 4.5 14.25C4.19922 14.25 3.92578 14.168 3.73438 13.9766L0.453125 10.8594C0.234375 10.668 0.125 10.3672 0.125 10.0938C0.125 9.49219 0.589844 9 1.19141 9L7.78125 9.02734C8.38281 9.02734 8.875 9.49219 8.875 10.0938C8.875 10.3672 8.73828 10.668 8.51953 10.8594L5.23828 13.9766Z" fill="black" fill-opacity="0.72"/>
</g>
<defs>
<clipPath id="clip0_2556_12340">
<rect width="9" height="22" fill="white"/>
</clipPath>
</defs>
</svg>
