<svg width="12" height="18" viewBox="0 0 12 18" fill="none" xmlns="http://www.w3.org/2000/svg">
<g id="label-paired / caption / circle-chevron-left-caption / regular" clip-path="url(#clip0_2556_10269)">
<path id="icon" d="M0.75 9.5C0.75 11.3984 1.73438 13.1094 3.375 14.0469C4.99219 15.0078 6.98438 15.0078 8.625 14.0469C10.2422 13.1094 11.25 11.3984 11.25 9.5C11.25 7.625 10.2422 5.91406 8.625 4.97656C6.98438 4.01562 4.99219 4.01562 3.375 4.97656C1.73438 5.91406 0.75 7.625 0.75 9.5ZM12 9.5C12 11.6562 10.8516 13.625 9 14.7031C7.125 15.7812 4.85156 15.7812 3 14.7031C1.125 13.625 0 11.6562 0 9.5C0 7.36719 1.125 5.39844 3 4.32031C4.85156 3.24219 7.125 3.24219 9 4.32031C10.8516 5.39844 12 7.36719 12 9.5ZM6.46875 6.61719C6.60938 6.47656 6.86719 6.47656 7.00781 6.61719C7.14844 6.75781 7.14844 7.01562 7.00781 7.15625L4.64062 9.5L7.00781 11.8672C7.14844 12.0078 7.14844 12.2656 7.00781 12.4062C6.86719 12.5469 6.60938 12.5469 6.46875 12.4062L3.84375 9.78125C3.70312 9.64062 3.70312 9.38281 3.84375 9.24219L6.46875 6.61719Z" fill="black" fill-opacity="0.72"/>
</g>
<defs>
<clipPath id="clip0_2556_10269">
<rect width="12" height="18" fill="white"/>
</clipPath>
</defs>
</svg>
