<svg width="11" height="18" viewBox="0 0 11 18" fill="none" xmlns="http://www.w3.org/2000/svg">
<g id="label-paired / caption / compress-caption / bold" clip-path="url(#clip0_2556_10592)">
<path id="icon" d="M4 4.8125V7.4375C4 7.76562 3.74219 8 3.4375 8H0.8125C0.484375 8 0.25 7.76562 0.25 7.4375C0.25 7.13281 0.484375 6.875 0.8125 6.875H2.875V4.8125C2.875 4.50781 3.10938 4.25 3.4375 4.25C3.74219 4.25 4 4.50781 4 4.8125ZM0.8125 11H3.4375C3.74219 11 4 11.2578 4 11.5625V14.1875C4 14.5156 3.74219 14.75 3.4375 14.75C3.10938 14.75 2.875 14.5156 2.875 14.1875V12.125H0.8125C0.484375 12.125 0.25 11.8906 0.25 11.5625C0.25 11.2578 0.484375 11 0.8125 11ZM8.125 4.8125V6.875H10.1875C10.4922 6.875 10.75 7.13281 10.75 7.4375C10.75 7.76562 10.4922 8 10.1875 8H7.5625C7.23438 8 7 7.76562 7 7.4375V4.8125C7 4.50781 7.23438 4.25 7.5625 4.25C7.86719 4.25 8.125 4.50781 8.125 4.8125ZM7.5625 11H10.1875C10.4922 11 10.75 11.2578 10.75 11.5625C10.75 11.8906 10.4922 12.125 10.1875 12.125H8.125V14.1875C8.125 14.5156 7.86719 14.75 7.5625 14.75C7.23438 14.75 7 14.5156 7 14.1875V11.5625C7 11.2578 7.23438 11 7.5625 11Z" fill="black" fill-opacity="0.72"/>
</g>
<defs>
<clipPath id="clip0_2556_10592">
<rect width="11" height="18" fill="white"/>
</clipPath>
</defs>
</svg>
