<svg width="15" height="18" viewBox="0 0 15 18" fill="none" xmlns="http://www.w3.org/2000/svg">
<g id="label-paired / caption / field-password-caption / bold" clip-path="url(#clip0_2512_1261)">
<path id="icon" d="M2.25 6.3125C1.71094 6.3125 1.3125 6.73438 1.3125 7.25V11.75C1.3125 12.2891 1.71094 12.6875 2.25 12.6875H12.75C13.2656 12.6875 13.6875 12.2891 13.6875 11.75V7.25C13.6875 6.73438 13.2656 6.3125 12.75 6.3125H2.25ZM0.1875 7.25C0.1875 6.125 1.10156 5.1875 2.25 5.1875H12.75C13.875 5.1875 14.8125 6.125 14.8125 7.25V11.75C14.8125 12.8984 13.875 13.8125 12.75 13.8125H2.25C1.10156 13.8125 0.1875 12.8984 0.1875 11.75V7.25ZM10.125 11.9375C9.79688 11.9375 9.5625 11.7031 9.5625 11.375V7.625C9.5625 7.32031 9.79688 7.0625 10.125 7.0625C10.4297 7.0625 10.6875 7.32031 10.6875 7.625V11.375C10.6875 11.7031 10.4297 11.9375 10.125 11.9375ZM4.6875 9.5C4.6875 9.85156 4.5 10.1562 4.21875 10.3203C3.91406 10.4844 3.5625 10.4844 3.28125 10.3203C2.97656 10.1562 2.8125 9.85156 2.8125 9.5C2.8125 9.17188 2.97656 8.86719 3.28125 8.70312C3.5625 8.53906 3.91406 8.53906 4.21875 8.70312C4.5 8.86719 4.6875 9.17188 4.6875 9.5ZM6.9375 9.5C6.9375 9.85156 6.75 10.1562 6.46875 10.3203C6.16406 10.4844 5.8125 10.4844 5.53125 10.3203C5.22656 10.1562 5.0625 9.85156 5.0625 9.5C5.0625 9.17188 5.22656 8.86719 5.53125 8.70312C5.8125 8.53906 6.16406 8.53906 6.46875 8.70312C6.75 8.86719 6.9375 9.17188 6.9375 9.5ZM9.1875 9.5C9.1875 9.85156 9 10.1562 8.71875 10.3203C8.41406 10.4844 8.0625 10.4844 7.78125 10.3203C7.47656 10.1562 7.3125 9.85156 7.3125 9.5C7.3125 9.17188 7.47656 8.86719 7.78125 8.70312C8.0625 8.53906 8.41406 8.53906 8.71875 8.70312C9 8.86719 9.1875 9.17188 9.1875 9.5Z" fill="black" fill-opacity="0.72"/>
</g>
<defs>
<clipPath id="clip0_2512_1261">
<rect width="15" height="18" fill="white"/>
</clipPath>
</defs>
</svg>
