<svg width="20" height="30" viewBox="0 0 20 30" fill="none" xmlns="http://www.w3.org/2000/svg">
<g id="label-paired / lg / phone-lg / regular" clip-path="url(#clip0_2556_17162)">
<path id="icon" d="M14.6484 16.2812L19.0234 18.1562C19.7266 18.4297 20.1172 19.1719 19.9609 19.9141L19.0234 24.2891C18.8672 24.9922 18.2422 25.5391 17.5 25.5391C17.2266 25.5391 16.9922 25.5 16.7578 25.5C16.6016 25.5 16.4062 25.5 16.25 25.4609C7.14844 24.8359 0 17.2578 0 8C0 7.29688 0.507812 6.63281 1.21094 6.47656L5.58594 5.53906C6.32812 5.38281 7.07031 5.77344 7.34375 6.47656L9.21875 10.8516C9.49219 11.4766 9.33594 12.2188 8.78906 12.6484L7.1875 13.9766C8.24219 15.7734 9.72656 17.2578 11.5234 18.3125L12.8516 16.7109C13.2812 16.1641 14.0234 16.0078 14.6484 16.2812ZM17.4609 24.25C17.6172 24.25 17.7344 24.1719 17.7734 24.0156L18.7109 19.6406C18.75 19.4844 18.6719 19.3672 18.5547 19.2891L14.1797 17.4141C14.0234 17.375 13.9062 17.4141 13.7891 17.4922L12.5 19.0938C12.1094 19.5625 11.4453 19.6797 10.8984 19.3672C8.90625 18.2344 7.26562 16.5938 6.13281 14.6016C5.82031 14.0547 5.9375 13.3906 6.40625 13L8.00781 11.7109C8.08594 11.5938 8.125 11.4766 8.08594 11.3203L6.21094 6.94531C6.13281 6.82812 6.01562 6.75 5.85938 6.78906L1.48438 7.72656C1.32812 7.72656 1.25 7.88281 1.25 8C1.25 16.9844 8.51562 24.25 17.4609 24.25Z" fill="black" fill-opacity="0.72"/>
</g>
<defs>
<clipPath id="clip0_2556_17162">
<rect width="20" height="30" fill="white"/>
</clipPath>
</defs>
</svg>
