<svg width="24" height="36" viewBox="0 0 24 36" fill="none" xmlns="http://www.w3.org/2000/svg">
<g id="label-paired / xl / right-from-bracket-xl / bold" clip-path="url(#clip0_2556_19796)">
<path id="icon" d="M16.5 12.8906V15.375C16.5 16.0312 15.9844 16.5 15.375 16.5H9.75V19.5H15.375C15.9844 19.5 16.5 20.0156 16.5 20.625V23.1562L21.6562 18L16.5 12.8906ZM24 18C24 18.5625 23.7656 19.0781 23.3906 19.4531L17.9531 24.8906C17.5312 25.3125 16.9688 25.5 16.4062 25.5C15.1875 25.5 14.25 24.5625 14.25 23.3438V21.75H9.75C8.48438 21.75 7.5 20.7656 7.5 19.5V16.5C7.5 15.2812 8.48438 14.25 9.75 14.25H14.25V12.7031C14.25 11.4844 15.1875 10.5 16.4062 10.5C16.9688 10.5 17.5312 10.7344 17.9531 11.1562L23.3906 16.5938C23.7656 16.9688 24 17.4844 24 18ZM7.875 9.75H4.125C3.04688 9.75 2.25 10.5938 2.25 11.625V24.375C2.25 25.4531 3.04688 26.25 4.125 26.25H7.875C8.48438 26.25 9 26.7656 9 27.375C9 28.0312 8.48438 28.5 7.875 28.5H4.125C1.82812 28.5 0 26.6719 0 24.375V11.625C0 9.375 1.82812 7.5 4.125 7.5H7.875C8.48438 7.5 9 8.01562 9 8.625C9 9.28125 8.48438 9.75 7.875 9.75Z" fill="black" fill-opacity="0.72"/>
</g>
<defs>
<clipPath id="clip0_2556_19796">
<rect width="24" height="36" fill="white"/>
</clipPath>
</defs>
</svg>
