<svg width="18" height="24" viewBox="0 0 18 24" fill="none" xmlns="http://www.w3.org/2000/svg">
<g id="label-paired / md / ubuntu-md" clip-path="url(#clip0_2556_14548)">
<path id="icon" d="M14.6562 6.34375C14.6562 7.21875 14.1875 7.96875 13.4688 8.40625C12.7188 8.8125 11.8438 8.8125 11.0938 8.40625C10.375 7.96875 9.90625 7.21875 9.90625 6.34375C9.90625 5.5 10.375 4.71875 11.0938 4.3125C11.8438 3.875 12.7188 3.875 13.4688 4.3125C14.1875 4.71875 14.6562 5.5 14.6562 6.34375ZM4.8125 11.5312C4.8125 12.375 4.34375 13.1562 3.625 13.5938C2.90625 14 2 14 1.25 13.5938C0.53125 13.1562 0.09375 12.375 0.09375 11.5312C0.09375 10.6875 0.53125 9.90625 1.25 9.5C2 9.0625 2.90625 9.0625 3.625 9.5C4.34375 9.90625 4.8125 10.6875 4.8125 11.5312ZM1.78125 14.8125H1.75C2.46875 14.9688 3.21875 14.875 3.875 14.5625C4.25 15.3438 4.8125 16 5.46875 16.5312C6.15625 17.0312 6.9375 17.4062 7.78125 17.5938C7.96875 17.625 8.1875 17.6562 8.375 17.6875C8.40625 18.4375 8.65625 19.1562 9.125 19.7188C7.53125 19.75 6 19.3125 4.6875 18.4375C3.375 17.5312 2.34375 16.2812 1.78125 14.8125ZM14.125 17.625C14.125 18.4688 13.6562 19.25 12.9375 19.6875C12.1875 20.0938 11.3125 20.0938 10.5625 19.6875C9.84375 19.25 9.375 18.4688 9.375 17.625C9.375 16.7812 9.84375 16 10.5625 15.5938C11.3125 15.1562 12.1875 15.1562 12.9375 15.5938C13.6562 16 14.125 16.7812 14.125 17.625ZM13.875 15H13.8438C14.4062 14.125 14.6875 13.1562 14.7188 12.125C14.75 11.125 14.5312 10.125 14.0625 9.21875C14.6562 8.84375 15.1562 8.28125 15.4062 7.625C16.3438 9 16.8125 10.625 16.75 12.2812C16.6562 13.9375 16.0625 15.5312 15.0312 16.8125C14.8438 16.0938 14.4375 15.4688 13.875 15ZM3.15625 8.25C2.90625 8.1875 2.6875 8.1875 2.4375 8.1875C2.375 8.1875 2.28125 8.1875 2.1875 8.1875C2.9375 6.875 4.03125 5.8125 5.34375 5.125C6.65625 4.40625 8.15625 4.09375 9.65625 4.21875C9.3125 4.625 9.0625 5.125 8.96875 5.65625C8.9375 5.84375 8.90625 6.03125 8.90625 6.1875C7.96875 6.21875 7.0625 6.4375 6.28125 6.875C5.46875 7.3125 4.75 7.9375 4.25 8.6875C3.90625 8.46875 3.53125 8.34375 3.15625 8.25Z" fill="black" fill-opacity="0.72"/>
</g>
<defs>
<clipPath id="clip0_2556_14548">
<rect width="18" height="24" fill="white"/>
</clipPath>
</defs>
</svg>
