<svg width="8" height="24" viewBox="0 0 8 24" fill="none" xmlns="http://www.w3.org/2000/svg">
<g id="label-paired / md / one-md / bold" clip-path="url(#clip0_2556_14850)">
<path id="icon" d="M4.75 5.75V17.5H7.25C7.65625 17.5 8 17.8438 8 18.25C8 18.6875 7.65625 19 7.25 19H4H0.75C0.3125 19 0 18.6875 0 18.25C0 17.8438 0.3125 17.5 0.75 17.5H3.25V7.09375L1.125 8.40625C0.78125 8.625 0.3125 8.5 0.09375 8.15625C-0.125 7.8125 0 7.34375 0.34375 7.125L3.59375 5.125C3.8125 4.96875 4.125 4.96875 4.34375 5.09375C4.59375 5.25 4.75 5.5 4.75 5.75Z" fill="black" fill-opacity="0.72"/>
</g>
<defs>
<clipPath id="clip0_2556_14850">
<rect width="8" height="24" fill="white"/>
</clipPath>
</defs>
</svg>
