<svg width="12" height="18" viewBox="0 0 12 18" fill="none" xmlns="http://www.w3.org/2000/svg">
<g id="label-paired / caption / filter-caption / regular" clip-path="url(#clip0_3758_421)">
<path id="icon" d="M0 5.1875C0 4.67188 0.398438 4.25 0.914062 4.25H11.0625C11.5781 4.25 12 4.67188 12 5.1875C12 5.39844 11.9062 5.60938 11.7656 5.77344L7.5 10.9531V13.9766C7.5 14.3984 7.125 14.7734 6.70312 14.7734C6.51562 14.7734 6.35156 14.7031 6.21094 14.5859L4.78125 13.4844C4.59375 13.3438 4.47656 13.1328 4.47656 12.8984V10.9531L0.210938 5.77344C0.0703125 5.60938 0 5.39844 0 5.1875ZM0.914062 5C0.820312 5 0.75 5.09375 0.75 5.1875C0.75 5.23438 0.75 5.25781 0.773438 5.30469L5.15625 10.5781C5.20312 10.6484 5.25 10.7422 5.25 10.8125V12.8984L6.67969 14C6.67969 14 6.67969 14 6.70312 14C6.72656 14 6.75 14 6.75 13.9766V10.8125C6.75 10.7422 6.77344 10.6484 6.82031 10.5781L11.2031 5.30469C11.2266 5.25781 11.25 5.23438 11.25 5.1875C11.25 5.09375 11.1562 5 11.0625 5H0.914062Z" fill="black" fill-opacity="0.72"/>
</g>
<defs>
<clipPath id="clip0_3758_421">
<rect width="12" height="18" fill="white"/>
</clipPath>
</defs>
</svg>
