<svg width="10" height="24" viewBox="0 0 10 24" fill="none" xmlns="http://www.w3.org/2000/svg">
<g id="label-paired / md / two-md / fill" clip-path="url(#clip0_2556_14842)">
<path id="icon" d="M4.4375 7C3.78125 7 3.125 7.28125 2.65625 7.75L1.6875 8.71875C1.3125 9.125 0.65625 9.125 0.28125 8.71875C-0.125 8.34375 -0.125 7.6875 0.28125 7.3125L1.25 6.34375C2.09375 5.5 3.25 5 4.4375 5C6.96875 5 9 7.03125 9 9.5625C9 10.75 8.5 11.9062 7.65625 12.75L3.40625 17H9C9.53125 17 10 17.4688 10 18C10 18.5625 9.53125 19 9 19H1C0.59375 19 0.21875 18.7812 0.0625 18.4062C-0.09375 18.0312 0 17.5938 0.28125 17.3125L6.25 11.3438C6.71875 10.875 7 10.2188 7 9.5625C7 8.15625 5.84375 7 4.4375 7Z" fill="black" fill-opacity="0.72"/>
</g>
<defs>
<clipPath id="clip0_2556_14842">
<rect width="10" height="24" fill="white"/>
</clipPath>
</defs>
</svg>
