<svg width="15" height="30" viewBox="0 0 15 30" fill="none" xmlns="http://www.w3.org/2000/svg">
<g id="label-paired / lg / file-lg / regular" clip-path="url(#clip0_2365_885)">
<path id="icon" d="M13.75 23V13H9.375C8.85417 12.974 8.41146 12.7917 8.04688 12.4531C7.70833 12.0885 7.52604 11.6458 7.5 11.125V6.75H2.5C2.13542 6.75 1.83594 6.86719 1.60156 7.10156C1.36719 7.33594 1.25 7.63542 1.25 8V23C1.25 23.3646 1.36719 23.6641 1.60156 23.8984C1.83594 24.1328 2.13542 24.25 2.5 24.25H12.5C12.8646 24.25 13.1641 24.1328 13.3984 23.8984C13.6328 23.6641 13.75 23.3646 13.75 23ZM13.75 11.75C13.6979 11.6458 13.6328 11.5547 13.5547 11.4766L9.02344 6.94531C8.94531 6.86719 8.85417 6.8151 8.75 6.78906V11.125C8.77604 11.5156 8.98438 11.724 9.375 11.75H13.75ZM0 8C0.0260417 7.29688 0.273438 6.71094 0.742188 6.24219C1.21094 5.77344 1.79688 5.52604 2.5 5.5H8.59375C9.11458 5.5 9.55729 5.68229 9.92188 6.04688L14.4531 10.5781C14.8177 10.9427 15 11.3854 15 11.9062V23C14.974 23.7031 14.7266 24.2891 14.2578 24.7578C13.7891 25.2266 13.2031 25.474 12.5 25.5H2.5C1.79688 25.474 1.21094 25.2266 0.742188 24.7578C0.273438 24.2891 0.0260417 23.7031 0 23V8Z" fill="black" fill-opacity="0.72"/>
</g>
<defs>
<clipPath id="clip0_2365_885">
<rect width="15" height="30" fill="white"/>
</clipPath>
</defs>
</svg>
