<svg width="14" height="24" viewBox="0 0 14 24" fill="none" xmlns="http://www.w3.org/2000/svg">
<g id="label-paired / md / grid-md / bold" clip-path="url(#clip0_2556_14956)">
<path id="icon" d="M2.75 6.25H1.25V7.75H2.75V6.25ZM1.25 5H2.75C3.4375 5 4 5.5625 4 6.25V7.75C4 8.46875 3.4375 9 2.75 9H1.25C0.53125 9 0 8.46875 0 7.75V6.25C0 5.5625 0.53125 5 1.25 5ZM2.75 11.25H1.25V12.75H2.75V11.25ZM1.25 10H2.75C3.4375 10 4 10.5625 4 11.25V12.75C4 13.4688 3.4375 14 2.75 14H1.25C0.53125 14 0 13.4688 0 12.75V11.25C0 10.5625 0.53125 10 1.25 10ZM1.25 16.25V17.75H2.75V16.25H1.25ZM0 16.25C0 15.5625 0.53125 15 1.25 15H2.75C3.4375 15 4 15.5625 4 16.25V17.75C4 18.4688 3.4375 19 2.75 19H1.25C0.53125 19 0 18.4688 0 17.75V16.25ZM7.75 6.25H6.25V7.75H7.75V6.25ZM6.25 5H7.75C8.4375 5 9 5.5625 9 6.25V7.75C9 8.46875 8.4375 9 7.75 9H6.25C5.53125 9 5 8.46875 5 7.75V6.25C5 5.5625 5.53125 5 6.25 5ZM6.25 11.25V12.75H7.75V11.25H6.25ZM5 11.25C5 10.5625 5.53125 10 6.25 10H7.75C8.4375 10 9 10.5625 9 11.25V12.75C9 13.4688 8.4375 14 7.75 14H6.25C5.53125 14 5 13.4688 5 12.75V11.25ZM7.75 16.25H6.25V17.75H7.75V16.25ZM6.25 15H7.75C8.4375 15 9 15.5625 9 16.25V17.75C9 18.4688 8.4375 19 7.75 19H6.25C5.53125 19 5 18.4688 5 17.75V16.25C5 15.5625 5.53125 15 6.25 15ZM11.25 6.25V7.75H12.75V6.25H11.25ZM10 6.25C10 5.5625 10.5312 5 11.25 5H12.75C13.4375 5 14 5.5625 14 6.25V7.75C14 8.46875 13.4375 9 12.75 9H11.25C10.5312 9 10 8.46875 10 7.75V6.25ZM12.75 11.25H11.25V12.75H12.75V11.25ZM11.25 10H12.75C13.4375 10 14 10.5625 14 11.25V12.75C14 13.4688 13.4375 14 12.75 14H11.25C10.5312 14 10 13.4688 10 12.75V11.25C10 10.5625 10.5312 10 11.25 10ZM11.25 16.25V17.75H12.75V16.25H11.25ZM10 16.25C10 15.5625 10.5312 15 11.25 15H12.75C13.4375 15 14 15.5625 14 16.25V17.75C14 18.4688 13.4375 19 12.75 19H11.25C10.5312 19 10 18.4688 10 17.75V16.25Z" fill="black" fill-opacity="0.72"/>
</g>
<defs>
<clipPath id="clip0_2556_14956">
<rect width="14" height="24" fill="white"/>
</clipPath>
</defs>
</svg>
