<svg width="24" height="36" viewBox="0 0 24 36" fill="none" xmlns="http://www.w3.org/2000/svg">
<g id="label-paired / xl / circle-chevron-right-xl / bold" clip-path="url(#clip0_2556_19621)">
<path id="icon" d="M21.75 18C21.75 14.5312 19.875 11.3438 16.875 9.5625C13.8281 7.82812 10.125 7.82812 7.125 9.5625C4.07812 11.3438 2.25 14.5312 2.25 18C2.25 21.5156 4.07812 24.7031 7.125 26.4844C10.125 28.2188 13.8281 28.2188 16.875 26.4844C19.875 24.7031 21.75 21.5156 21.75 18ZM0 18C0 13.7344 2.25 9.79688 6 7.64062C9.70312 5.48438 14.25 5.48438 18 7.64062C21.7031 9.79688 24 13.7344 24 18C24 22.3125 21.7031 26.25 18 28.4062C14.25 30.5625 9.70312 30.5625 6 28.4062C2.25 26.25 0 22.3125 0 18ZM11.2969 23.6719C10.8281 24.1406 10.125 24.1406 9.70312 23.6719C9.23438 23.25 9.23438 22.5469 9.70312 22.0781L13.7812 18L9.70312 13.9219C9.23438 13.5 9.23438 12.7969 9.70312 12.3281C10.125 11.9062 10.8281 11.9062 11.2969 12.3281L16.1719 17.25C16.5938 17.6719 16.5938 18.375 16.1719 18.7969L11.2969 23.6719Z" fill="black" fill-opacity="0.72"/>
</g>
<defs>
<clipPath id="clip0_2556_19621">
<rect width="24" height="36" fill="white"/>
</clipPath>
</defs>
</svg>
