<svg width="13" height="22" viewBox="0 0 13 22" fill="none" xmlns="http://www.w3.org/2000/svg">
<g id="label-paired / sm / bell-sm / fill" clip-path="url(#clip0_2556_12390)">
<path id="icon" d="M6.5 3.75C6.96484 3.75 7.375 4.16016 7.375 4.625V5.17188C9.37109 5.55469 10.875 7.33203 10.875 9.4375V9.95703C10.875 11.2422 11.3398 12.5 12.1875 13.457L12.3789 13.6758C12.625 13.9492 12.6797 14.3047 12.543 14.6328C12.4062 14.9336 12.0781 15.125 11.75 15.125H1.25C0.894531 15.125 0.566406 14.9336 0.429688 14.6328C0.292969 14.3047 0.347656 13.9492 0.59375 13.6758L0.785156 13.457C1.63281 12.5 2.125 11.2422 2.125 9.95703V9.4375C2.125 7.33203 3.62891 5.55469 5.625 5.17188V4.625C5.625 4.16016 6.00781 3.75 6.5 3.75ZM7.73047 17.2578C7.40234 17.5859 6.96484 17.75 6.5 17.75C6.03516 17.75 5.57031 17.5859 5.24219 17.2578C4.91406 16.9297 4.75 16.4648 4.75 16H6.5H8.25C8.25 16.4648 8.05859 16.9297 7.73047 17.2578Z" fill="black" fill-opacity="0.72"/>
</g>
<defs>
<clipPath id="clip0_2556_12390">
<rect width="13" height="22" fill="white"/>
</clipPath>
</defs>
</svg>
