<svg width="14" height="18" viewBox="0 0 14 18" fill="none" xmlns="http://www.w3.org/2000/svg">
<g id="label-paired / caption / keyboard-caption / fill" clip-path="url(#clip0_2556_10080)">
<path id="icon" d="M1.75 5H12.25C13.0703 5 13.75 5.67969 13.75 6.5V12.5C13.75 13.3438 13.0703 14 12.25 14H1.75C0.90625 14 0.25 13.3438 0.25 12.5V6.5C0.25 5.67969 0.90625 5 1.75 5ZM2.125 6.5C1.91406 6.5 1.75 6.6875 1.75 6.875V7.625C1.75 7.83594 1.91406 8 2.125 8H2.875C3.0625 8 3.25 7.83594 3.25 7.625V6.875C3.25 6.6875 3.0625 6.5 2.875 6.5H2.125ZM1.75 9.125V9.875C1.75 10.0859 1.91406 10.25 2.125 10.25H2.875C3.0625 10.25 3.25 10.0859 3.25 9.875V9.125C3.25 8.9375 3.0625 8.75 2.875 8.75H2.125C1.91406 8.75 1.75 8.9375 1.75 9.125ZM2.125 11C1.91406 11 1.75 11.1875 1.75 11.375V12.125C1.75 12.3359 1.91406 12.5 2.125 12.5H2.875C3.0625 12.5 3.25 12.3359 3.25 12.125V11.375C3.25 11.1875 3.0625 11 2.875 11H2.125ZM4 6.875V7.625C4 7.83594 4.16406 8 4.375 8H5.125C5.3125 8 5.5 7.83594 5.5 7.625V6.875C5.5 6.6875 5.3125 6.5 5.125 6.5H4.375C4.16406 6.5 4 6.6875 4 6.875ZM4.375 8.75C4.16406 8.75 4 8.9375 4 9.125V9.875C4 10.0859 4.16406 10.25 4.375 10.25H5.125C5.3125 10.25 5.5 10.0859 5.5 9.875V9.125C5.5 8.9375 5.3125 8.75 5.125 8.75H4.375ZM4 11.375V12.125C4 12.3359 4.16406 12.5 4.375 12.5H9.625C9.8125 12.5 10 12.3359 10 12.125V11.375C10 11.1875 9.8125 11 9.625 11H4.375C4.16406 11 4 11.1875 4 11.375ZM6.625 6.5C6.41406 6.5 6.25 6.6875 6.25 6.875V7.625C6.25 7.83594 6.41406 8 6.625 8H7.375C7.5625 8 7.75 7.83594 7.75 7.625V6.875C7.75 6.6875 7.5625 6.5 7.375 6.5H6.625ZM6.25 9.125V9.875C6.25 10.0859 6.41406 10.25 6.625 10.25H7.375C7.5625 10.25 7.75 10.0859 7.75 9.875V9.125C7.75 8.9375 7.5625 8.75 7.375 8.75H6.625C6.41406 8.75 6.25 8.9375 6.25 9.125ZM8.875 6.5C8.66406 6.5 8.5 6.6875 8.5 6.875V7.625C8.5 7.83594 8.66406 8 8.875 8H9.625C9.8125 8 10 7.83594 10 7.625V6.875C10 6.6875 9.8125 6.5 9.625 6.5H8.875ZM8.5 9.125V9.875C8.5 10.0859 8.66406 10.25 8.875 10.25H9.625C9.8125 10.25 10 10.0859 10 9.875V9.125C10 8.9375 9.8125 8.75 9.625 8.75H8.875C8.66406 8.75 8.5 8.9375 8.5 9.125ZM11.125 6.5C10.9141 6.5 10.75 6.6875 10.75 6.875V7.625C10.75 7.83594 10.9141 8 11.125 8H11.875C12.0625 8 12.25 7.83594 12.25 7.625V6.875C12.25 6.6875 12.0625 6.5 11.875 6.5H11.125ZM10.75 9.125V9.875C10.75 10.0859 10.9141 10.25 11.125 10.25H11.875C12.0625 10.25 12.25 10.0859 12.25 9.875V9.125C12.25 8.9375 12.0625 8.75 11.875 8.75H11.125C10.9141 8.75 10.75 8.9375 10.75 9.125ZM11.125 11C10.9141 11 10.75 11.1875 10.75 11.375V12.125C10.75 12.3359 10.9141 12.5 11.125 12.5H11.875C12.0625 12.5 12.25 12.3359 12.25 12.125V11.375C12.25 11.1875 12.0625 11 11.875 11H11.125Z" fill="black" fill-opacity="0.72"/>
</g>
<defs>
<clipPath id="clip0_2556_10080">
<rect width="14" height="18" fill="white"/>
</clipPath>
</defs>
</svg>
