<svg width="24" height="36" viewBox="0 0 24 36" fill="none" xmlns="http://www.w3.org/2000/svg">
<g id="label-paired / xl / playback-speed-xl / fill" clip-path="url(#clip0_3758_802)">
<path id="icon" d="M23.625 18C23.625 23.9531 19.1719 28.8281 13.5 29.5312V27.2812C17.9531 26.5781 21.375 22.6875 21.375 18C21.375 13.3594 17.9531 9.46875 13.5 8.76562V6.46875C19.1719 7.21875 23.625 12.0938 23.625 18ZM6.51562 10.4062L4.875 8.8125C6.46875 7.59375 8.39062 6.75 10.5 6.46875V8.76562C9 9 7.64062 9.5625 6.51562 10.4062ZM4.35938 12.5156C3.51562 13.6875 2.95312 15.0469 2.71875 16.5H0.46875C0.703125 14.4375 1.54688 12.5156 2.76562 10.9219L4.35938 12.5156ZM4.35938 23.4844L2.76562 25.125C1.54688 23.5312 0.703125 21.6094 0.46875 19.5H2.71875C2.95312 21 3.51562 22.3594 4.35938 23.4844ZM6.51562 25.6406C7.64062 26.4375 9 27.0469 10.5 27.2812V29.5312C8.39062 29.2969 6.46875 28.4531 4.875 27.2344L6.51562 25.6406ZM9.1875 11.7656C9.5625 11.5781 10.0312 11.625 10.3594 11.8594L17.8594 17.1094C18.1875 17.2969 18.3281 17.6719 18.3281 18C18.3281 18.375 18.1875 18.75 17.8594 18.9375L10.3594 24.1875C10.0312 24.4219 9.5625 24.4688 9.1875 24.2812C8.85938 24.0938 8.625 23.6719 8.625 23.25V12.75C8.625 12.375 8.85938 11.9531 9.1875 11.7656Z" fill="black" fill-opacity="0.72"/>
</g>
<defs>
<clipPath id="clip0_3758_802">
<rect width="24" height="36" fill="white"/>
</clipPath>
</defs>
</svg>
