<svg width="12" height="24" viewBox="0 0 12 24" fill="none" xmlns="http://www.w3.org/2000/svg">
<g id="label-paired / md / moon-md / fill" clip-path="url(#clip0_2556_15044)">
<path id="icon" d="M6.96875 5V5.03125C7.15625 5.03125 7.375 5.03125 7.5625 5.03125C7.78125 5.0625 7.96875 5.21875 8 5.4375C8.0625 5.65625 7.96875 5.875 7.78125 5.96875C6.09375 6.90625 4.96875 8.71875 4.96875 10.75C4.96875 13.8125 7.4375 16.25 10.4688 16.25C10.7812 16.25 11.0938 16.25 11.4062 16.1875C11.625 16.1562 11.8438 16.25 11.9375 16.4375C12.0312 16.6562 12 16.875 11.8438 17.0312C10.5938 18.25 8.875 19 6.96875 19C3.125 19 0 15.875 0 12C0 8.15625 3.125 5 6.96875 5Z" fill="black" fill-opacity="0.72"/>
</g>
<defs>
<clipPath id="clip0_2556_15044">
<rect width="12" height="24" fill="white"/>
</clipPath>
</defs>
</svg>
