<svg width="13" height="22" viewBox="0 0 13 22" fill="none" xmlns="http://www.w3.org/2000/svg">
<g id="label-paired / sm / arrow-up-from-bracket-sm / fill" clip-path="url(#clip0_2556_12877)">
<path id="icon" d="M7.10156 4.02344L10.6016 7.52344C10.957 7.85156 10.957 8.42578 10.6016 8.75391C10.2734 9.10938 9.69922 9.10938 9.37109 8.75391L7.375 6.75781V12.5C7.375 12.9922 6.96484 13.375 6.5 13.375C6.00781 13.375 5.625 12.9922 5.625 12.5V6.75781L3.60156 8.75391C3.27344 9.10938 2.69922 9.10938 2.37109 8.75391C2.01562 8.42578 2.01562 7.85156 2.37109 7.52344L5.87109 4.02344C6.19922 3.66797 6.77344 3.66797 7.10156 4.02344ZM2.125 13.375V15.125C2.125 15.6172 2.50781 16 3 16H10C10.4648 16 10.875 15.6172 10.875 15.125V13.375C10.875 12.9102 11.2578 12.5 11.75 12.5C12.2148 12.5 12.625 12.9102 12.625 13.375V15.125C12.625 16.5742 11.4492 17.75 10 17.75H3C1.55078 17.75 0.375 16.5742 0.375 15.125V13.375C0.375 12.9102 0.757812 12.5 1.25 12.5C1.71484 12.5 2.125 12.9102 2.125 13.375Z" fill="black" fill-opacity="0.72"/>
</g>
<defs>
<clipPath id="clip0_2556_12877">
<rect width="13" height="22" fill="white"/>
</clipPath>
</defs>
</svg>
