<svg width="18" height="24" viewBox="0 0 18 24" fill="none" xmlns="http://www.w3.org/2000/svg">
<g id="label-paired / md / arrow-up-arrow-down-md / regular" clip-path="url(#clip0_2556_15092)">
<path id="icon" d="M5.34375 5.15625L8.34375 8.15625C8.53125 8.34375 8.53125 8.6875 8.34375 8.875C8.15625 9.0625 7.8125 9.0625 7.625 8.875L5.5 6.71875V18.5C5.5 18.7812 5.25 19 5 19C4.71875 19 4.5 18.7812 4.5 18.5V6.71875L2.34375 8.875C2.15625 9.0625 1.8125 9.0625 1.625 8.875C1.4375 8.6875 1.4375 8.34375 1.625 8.15625L4.625 5.15625C4.8125 4.96875 5.15625 4.96875 5.34375 5.15625ZM16.3438 15.875L13.3438 18.875C13.1562 19.0625 12.8125 19.0625 12.625 18.875L9.625 15.875C9.4375 15.6875 9.4375 15.3438 9.625 15.1562C9.8125 14.9688 10.1562 14.9688 10.3438 15.1562L12.5 17.3125V5.5C12.5 5.25 12.7188 5 13 5C13.25 5 13.5 5.25 13.5 5.5V17.3125L15.625 15.1562C15.8125 14.9688 16.1562 14.9688 16.3438 15.1562C16.5312 15.3438 16.5312 15.6875 16.3438 15.875Z" fill="black" fill-opacity="0.72"/>
</g>
<defs>
<clipPath id="clip0_2556_15092">
<rect width="18" height="24" fill="white"/>
</clipPath>
</defs>
</svg>
