<svg width="24" height="36" viewBox="0 0 24 36" fill="none" xmlns="http://www.w3.org/2000/svg">
<g id="label-paired / xl / circle-arrow-up-right-xl / regular" clip-path="url(#clip0_2556_19994)">
<path id="icon" d="M12 28.5C15.75 28.5 19.1719 26.5312 21.0469 23.25C22.9688 20.0156 22.9688 16.0312 21.0469 12.75C19.1719 9.51562 15.75 7.5 12 7.5C8.20312 7.5 4.78125 9.51562 2.90625 12.75C0.984375 16.0312 0.984375 20.0156 2.90625 23.25C4.78125 26.5312 8.20312 28.5 12 28.5ZM12 6C16.2656 6 20.2031 8.29688 22.3594 12C24.5156 15.75 24.5156 20.2969 22.3594 24C20.2031 27.75 16.2656 30 12 30C7.6875 30 3.75 27.75 1.59375 24C-0.5625 20.2969 -0.5625 15.75 1.59375 12C3.75 8.29688 7.6875 6 12 6ZM9.375 13.5H15.75C16.125 13.5 16.5 13.875 16.5 14.25V21C16.5 21.4219 16.125 21.75 15.75 21.75C15.3281 21.75 15 21.4219 15 21V16.0781L8.76562 22.3125C8.48438 22.5938 7.96875 22.5938 7.6875 22.3125C7.40625 22.0312 7.40625 21.5156 7.6875 21.2344L13.9219 15H9.375C8.95312 15 8.625 14.6719 8.625 14.25C8.625 13.875 8.95312 13.5 9.375 13.5Z" fill="black" fill-opacity="0.72"/>
</g>
<defs>
<clipPath id="clip0_2556_19994">
<rect width="24" height="36" fill="white"/>
</clipPath>
</defs>
</svg>
