<svg width="20" height="24" viewBox="0 0 20 24" fill="none" xmlns="http://www.w3.org/2000/svg">
<g id="label-paired / md / link-md / fill" clip-path="url(#clip0_4460_537)">
<path id="icon" d="M18.0938 12.375L14.5938 15.875C12.8438 17.6562 9.96875 17.6562 8.21875 15.875C6.65625 14.3125 6.4375 11.875 7.71875 10.0625L7.75 10.0312C8.09375 9.5625 8.71875 9.46875 9.15625 9.78125C9.59375 10.0938 9.71875 10.7188 9.375 11.1875L9.34375 11.2188C8.625 12.2188 8.75 13.5938 9.625 14.4688C10.5938 15.4688 12.1875 15.4688 13.1875 14.4688L16.6875 10.9688C17.6875 9.96875 17.6875 8.375 16.6875 7.40625C15.8125 6.53125 14.4375 6.40625 13.4375 7.125L13.4062 7.15625C12.9375 7.5 12.3125 7.375 12 6.9375C11.6875 6.5 11.7812 5.875 12.2188 5.53125L12.2812 5.5C14.0938 4.21875 16.5312 4.4375 18.0938 6C19.875 7.75 19.875 10.625 18.0938 12.375ZM1.875 11.6562L5.375 8.125C7.15625 6.375 10 6.375 11.7812 8.125C13.3438 9.6875 13.5312 12.1562 12.25 13.9688L12.2188 14C11.9062 14.4688 11.25 14.5625 10.8125 14.25C10.375 13.9375 10.25 13.3125 10.5938 12.8438L10.625 12.8125C11.3438 11.7812 11.2188 10.4375 10.3438 9.5625C9.375 8.5625 7.78125 8.5625 6.78125 9.5625L3.28125 13.0625C2.3125 14.0312 2.3125 15.625 3.28125 16.625C4.15625 17.5 5.53125 17.625 6.53125 16.9062L6.5625 16.875C7.03125 16.5312 7.65625 16.6562 7.96875 17.0938C8.28125 17.5312 8.1875 18.1562 7.75 18.5L7.6875 18.5312C5.90625 19.8125 3.4375 19.5938 1.875 18.0312C0.09375 16.2812 0.09375 13.4062 1.875 11.6562Z" fill="black" fill-opacity="0.72"/>
</g>
<defs>
<clipPath id="clip0_4460_537">
<rect width="20" height="24" fill="white"/>
</clipPath>
</defs>
</svg>
