<svg width="13" height="30" viewBox="0 0 13 30" fill="none" xmlns="http://www.w3.org/2000/svg">
<g id="label-paired / lg / nine-lg / regular" clip-path="url(#clip0_2556_17320)">
<path id="icon" d="M1.5 13C1.5 15.7734 3.72656 18 6.5 18C9.19531 18 11.4219 15.8516 11.5 13.1562C11.5 13.1172 11.5 13.0781 11.5 13C11.5 10.2656 9.23438 8 6.5 8C3.72656 8 1.5 10.2656 1.5 13ZM7.78906 19.1328C7.35938 19.2109 6.92969 19.25 6.5 19.25C3.02344 19.25 0.25 16.4766 0.25 13C0.25 9.5625 3.02344 6.75 6.5 6.75C9.9375 6.75 12.75 9.5625 12.75 13C12.75 13.0781 12.75 13.1562 12.7109 13.2344C12.6719 14.7188 12.125 16.1641 11.1094 17.2578L5.09375 24.0547C4.85938 24.3281 4.46875 24.3281 4.19531 24.0938C3.92188 23.8594 3.92188 23.4688 4.15625 23.2344L7.78906 19.1328Z" fill="black" fill-opacity="0.72"/>
</g>
<defs>
<clipPath id="clip0_2556_17320">
<rect width="13" height="30" fill="white"/>
</clipPath>
</defs>
</svg>
