<svg width="14" height="22" viewBox="0 0 14 22" fill="none" xmlns="http://www.w3.org/2000/svg">
<g id="label-paired / sm / arrow-rotate-right-sm / regular" clip-path="url(#clip0_3431_800)">
<path id="icon" d="M12.6875 9H9.1875C8.94141 9 8.75 8.80859 8.75 8.5625C8.75 8.34375 8.94141 8.125 9.1875 8.125H11.5391C10.6367 6.56641 8.94141 5.5 7 5.5C4.10156 5.5 1.75 7.85156 1.75 10.75C1.75 13.6484 4.10156 16 7 16C8.83203 16 10.4727 15.043 11.4023 13.6211C11.4844 13.4844 11.6484 13.375 11.8125 13.375C12.1406 13.375 12.3594 13.7305 12.168 14.0312C11.1016 15.7539 9.16016 16.875 7 16.875C3.60938 16.875 0.875 14.1406 0.875 10.75C0.875 7.38672 3.60938 4.625 7 4.625C9.21484 4.625 11.1562 5.82812 12.25 7.60547V5.0625C12.25 4.84375 12.4414 4.625 12.6875 4.625C12.9062 4.625 13.125 4.84375 13.125 5.0625V8.5625C13.125 8.80859 12.9062 9 12.6875 9Z" fill="black" fill-opacity="0.72"/>
</g>
<defs>
<clipPath id="clip0_3431_800">
<rect width="14" height="22" fill="white"/>
</clipPath>
</defs>
</svg>
