<svg width="30" height="36" viewBox="0 0 30 36" fill="none" xmlns="http://www.w3.org/2000/svg">
<g id="label-paired / xl / wallet-circle-minus-xl / fill" clip-path="url(#clip0_2556_19402)">
<path id="icon" d="M0 10.5C0 8.85938 1.3125 7.5 3 7.5H21C21.7969 7.5 22.5 8.20312 22.5 9C22.5 9.84375 21.7969 10.5 21 10.5H3.75C3.32812 10.5 3 10.875 3 11.25C3 11.6719 3.32812 12 3.75 12H21C22.6406 12 24 13.3594 24 15V15.0469C23.7188 15.0469 23.4844 15 23.25 15C18.6562 15 15 18.7031 15 23.25C15 25.2656 15.7031 27.0938 16.875 28.5H3C1.3125 28.5 0 27.1875 0 25.5V10.5ZM16.5 23.25C16.5 19.5469 19.5 16.5 23.25 16.5C26.9531 16.5 30 19.5469 30 23.25C30 27 26.9531 30 23.25 30C19.5 30 16.5 27 16.5 23.25ZM19.5 23.25C19.5 23.6719 19.8281 24 20.25 24H26.25C26.625 24 27 23.6719 27 23.25C27 22.875 26.625 22.5 26.25 22.5H20.25C19.8281 22.5 19.5 22.875 19.5 23.25Z" fill="black" fill-opacity="0.72"/>
</g>
<defs>
<clipPath id="clip0_2556_19402">
<rect width="30" height="36" fill="white"/>
</clipPath>
</defs>
</svg>
