<svg width="16" height="22" viewBox="0 0 16 22" fill="none" xmlns="http://www.w3.org/2000/svg">
<g id="label-paired / sm / floppy-disk-pen-sm / bold" clip-path="url(#clip0_2556_12444)">
<path id="icon" d="M1.4375 6.375V15.125C1.4375 15.3711 1.62891 15.5625 1.875 15.5625H7.50781L7.17969 16.875H1.875C0.890625 16.875 0.125 16.1094 0.125 15.125V6.375C0.125 5.41797 0.890625 4.625 1.875 4.625H8.57422C9.03906 4.625 9.47656 4.81641 9.80469 5.14453L11.8555 7.19531L10.9258 8.125L8.875 6.07422C8.875 6.07422 8.875 6.07422 8.875 6.04688V8.78125C8.875 9.16406 8.57422 9.4375 8.21875 9.4375H2.96875C2.58594 9.4375 2.3125 9.16406 2.3125 8.78125V5.9375H1.875C1.62891 5.9375 1.4375 6.15625 1.4375 6.375ZM11.8555 7.19531C12.1836 7.52344 12.375 7.96094 12.375 8.42578V10.2031L11.0625 11.5156V8.42578C11.0625 8.31641 11.0078 8.20703 10.9258 8.125L11.8555 7.19531ZM3.625 5.9375V8.125H7.5625V5.9375H3.625ZM4.5 12.5C4.5 11.8984 4.82812 11.3242 5.375 10.9961C5.89453 10.6953 6.57812 10.6953 7.125 10.9961C7.64453 11.3242 8 11.8984 8 12.5C8 13.1289 7.64453 13.7031 7.125 14.0312C6.57812 14.332 5.89453 14.332 5.375 14.0312C4.82812 13.7031 4.5 13.1289 4.5 12.5ZM15.1367 10.2031L15.5469 10.6133C15.957 11.0234 15.957 11.7344 15.5469 12.1445L14.7266 12.9648L12.7852 11.0234L13.6055 10.2031C14.0156 9.79297 14.7266 9.79297 15.1367 10.2031ZM8.62891 15.1797L12.1836 11.625L14.125 13.5664L10.5703 17.1211C10.4609 17.2305 10.3242 17.3125 10.1875 17.3398L8.51953 17.75C8.38281 17.7773 8.21875 17.75 8.10938 17.6406C8 17.5312 7.97266 17.3672 8 17.2305L8.41016 15.5625C8.4375 15.4258 8.51953 15.2891 8.62891 15.1797Z" fill="black" fill-opacity="0.72"/>
</g>
<defs>
<clipPath id="clip0_2556_12444">
<rect width="16" height="22" fill="white"/>
</clipPath>
</defs>
</svg>
