<svg width="12" height="18" viewBox="0 0 12 18" fill="none" xmlns="http://www.w3.org/2000/svg">
<g id="label-paired / caption / chart-mixed-caption / regular" clip-path="url(#clip0_2556_10184)">
<path id="icon" d="M11.8828 4.39062C12.0234 4.53125 12.0234 4.76562 11.8594 4.90625L7.73438 8.65625C7.59375 8.79688 7.35938 8.79688 7.21875 8.65625L4.45312 5.86719L0.585938 8.67969C0.421875 8.82031 0.1875 8.77344 0.0703125 8.60938C-0.0703125 8.44531 -0.0234375 8.21094 0.140625 8.07031L4.26562 5.07031C4.40625 4.97656 4.61719 5 4.75781 5.11719L7.5 7.85938L11.3672 4.36719C11.5078 4.22656 11.7422 4.22656 11.8828 4.39062ZM1.875 13.625V12.125C1.875 11.9375 1.6875 11.75 1.5 11.75C1.28906 11.75 1.125 11.9375 1.125 12.125V13.625C1.125 13.8359 1.28906 14 1.5 14C1.6875 14 1.875 13.8359 1.875 13.625ZM1.5 11C2.10938 11 2.625 11.5156 2.625 12.125V13.625C2.625 14.2578 2.10938 14.75 1.5 14.75C0.867188 14.75 0.375 14.2578 0.375 13.625V12.125C0.375 11.5156 0.867188 11 1.5 11ZM4.875 9.875C4.875 9.6875 4.6875 9.5 4.5 9.5C4.28906 9.5 4.125 9.6875 4.125 9.875V13.625C4.125 13.8359 4.28906 14 4.5 14C4.6875 14 4.875 13.8359 4.875 13.625V9.875ZM3.375 9.875C3.375 9.26562 3.86719 8.75 4.5 8.75C5.10938 8.75 5.625 9.26562 5.625 9.875V13.625C5.625 14.2578 5.10938 14.75 4.5 14.75C3.86719 14.75 3.375 14.2578 3.375 13.625V9.875ZM7.875 13.625V11.375C7.875 11.1875 7.6875 11 7.5 11C7.28906 11 7.125 11.1875 7.125 11.375V13.625C7.125 13.8359 7.28906 14 7.5 14C7.6875 14 7.875 13.8359 7.875 13.625ZM7.5 10.25C8.10938 10.25 8.625 10.7656 8.625 11.375V13.625C8.625 14.2578 8.10938 14.75 7.5 14.75C6.86719 14.75 6.375 14.2578 6.375 13.625V11.375C6.375 10.7656 6.86719 10.25 7.5 10.25ZM10.875 9.875C10.875 9.6875 10.6875 9.5 10.5 9.5C10.2891 9.5 10.125 9.6875 10.125 9.875V13.625C10.125 13.8359 10.2891 14 10.5 14C10.6875 14 10.875 13.8359 10.875 13.625V9.875ZM9.375 9.875C9.375 9.26562 9.86719 8.75 10.5 8.75C11.1094 8.75 11.625 9.26562 11.625 9.875V13.625C11.625 14.2578 11.1094 14.75 10.5 14.75C9.86719 14.75 9.375 14.2578 9.375 13.625V9.875Z" fill="black" fill-opacity="0.72"/>
</g>
<defs>
<clipPath id="clip0_2556_10184">
<rect width="12" height="18" fill="white"/>
</clipPath>
</defs>
</svg>
