<svg width="27" height="36" viewBox="0 0 27 36" fill="none" xmlns="http://www.w3.org/2000/svg">
<g id="label-paired / xl / ubuntu-xl" clip-path="url(#clip0_2556_19229)">
<path id="icon" d="M21.9844 9.51562C21.9844 10.8281 21.2812 11.9531 20.2031 12.6094C19.0781 13.2188 17.7656 13.2188 16.6406 12.6094C15.5625 11.9531 14.8594 10.8281 14.8594 9.51562C14.8594 8.25 15.5625 7.07812 16.6406 6.46875C17.7656 5.8125 19.0781 5.8125 20.2031 6.46875C21.2812 7.07812 21.9844 8.25 21.9844 9.51562ZM7.21875 17.2969C7.21875 18.5625 6.51562 19.7344 5.4375 20.3906C4.35938 21 3 21 1.875 20.3906C0.796875 19.7344 0.140625 18.5625 0.140625 17.2969C0.140625 16.0312 0.796875 14.8594 1.875 14.25C3 13.5938 4.35938 13.5938 5.4375 14.25C6.51562 14.8594 7.21875 16.0312 7.21875 17.2969ZM2.67188 22.2188H2.625C3.70312 22.4531 4.82812 22.3125 5.8125 21.8438C6.375 23.0156 7.21875 24 8.20312 24.7969C9.23438 25.5469 10.4062 26.1094 11.6719 26.3906C11.9531 26.4375 12.2812 26.4844 12.5625 26.5312C12.6094 27.6562 12.9844 28.7344 13.6875 29.5781C11.2969 29.625 9 28.9688 7.03125 27.6562C5.0625 26.2969 3.51562 24.4219 2.67188 22.2188ZM21.1875 26.4375C21.1875 27.7031 20.4844 28.875 19.4062 29.5312C18.2812 30.1406 16.9688 30.1406 15.8438 29.5312C14.7656 28.875 14.0625 27.7031 14.0625 26.4375C14.0625 25.1719 14.7656 24 15.8438 23.3906C16.9688 22.7344 18.2812 22.7344 19.4062 23.3906C20.4844 24 21.1875 25.1719 21.1875 26.4375ZM20.8125 22.5H20.7656C21.6094 21.1875 22.0312 19.7344 22.0781 18.1875C22.125 16.6875 21.7969 15.1875 21.0938 13.8281C21.9844 13.2656 22.7344 12.4219 23.1094 11.4375C24.5156 13.5 25.2188 15.9375 25.125 18.4219C24.9844 20.9062 24.0938 23.2969 22.5469 25.2188C22.2656 24.1406 21.6562 23.2031 20.8125 22.5ZM4.73438 12.375C4.35938 12.2812 4.03125 12.2812 3.65625 12.2812C3.5625 12.2812 3.42188 12.2812 3.28125 12.2812C4.40625 10.3125 6.04688 8.71875 8.01562 7.6875C9.98438 6.60938 12.2344 6.14062 14.4844 6.32812C13.9688 6.9375 13.5938 7.6875 13.4531 8.48438C13.4062 8.76562 13.3594 9.04688 13.3594 9.28125C11.9531 9.32812 10.5938 9.65625 9.42188 10.3125C8.20312 10.9688 7.125 11.9062 6.375 13.0312C5.85938 12.7031 5.29688 12.5156 4.73438 12.375Z" fill="black" fill-opacity="0.72"/>
</g>
<defs>
<clipPath id="clip0_2556_19229">
<rect width="27" height="36" fill="white"/>
</clipPath>
</defs>
</svg>
