<svg width="14" height="24" viewBox="0 0 14 24" fill="none" xmlns="http://www.w3.org/2000/svg">
<g id="label-paired / md / trash-md / bold" clip-path="url(#clip0_2556_15259)">
<path id="icon" d="M5.53125 5.5C5.4375 5.5 5.375 5.5625 5.3125 5.625L4.71875 6.5H9.25L8.65625 5.625C8.625 5.5625 8.53125 5.5 8.4375 5.5H5.53125ZM11.0625 6.5H11.4688H13H13.25C13.6562 6.5 14 6.84375 14 7.25C14 7.6875 13.6562 8 13.25 8H12.875L12.125 18.1562C12.0312 19.2188 11.1875 20 10.125 20H3.84375C2.78125 20 1.9375 19.2188 1.84375 18.1562L1.09375 8H0.75C0.3125 8 0 7.6875 0 7.25C0 6.84375 0.3125 6.5 0.75 6.5H1H2.5H2.90625L4.0625 4.78125C4.375 4.3125 4.9375 4 5.53125 4H8.4375C9.03125 4 9.59375 4.3125 9.90625 4.78125L11.0625 6.5ZM11.375 8H2.59375L3.34375 18.0625C3.375 18.3125 3.59375 18.5 3.84375 18.5H10.125C10.375 18.5 10.5938 18.3125 10.625 18.0625L11.375 8Z" fill="black" fill-opacity="0.72"/>
</g>
<defs>
<clipPath id="clip0_2556_15259">
<rect width="14" height="24" fill="white"/>
</clipPath>
</defs>
</svg>
