<svg width="25" height="30" viewBox="0 0 25 30" fill="none" xmlns="http://www.w3.org/2000/svg">
<g id="label-paired / lg / handshake-lg / bold" clip-path="url(#clip0_4513_694)">
<path id="icon" d="M10.625 8.03906L8.63281 10.0312C8.00781 10.1875 7.46094 10.5 6.99219 10.9297L5.97656 11.8281C5.54688 12.1797 5.03906 12.375 4.49219 12.375H3.75V17.375C4.53125 17.4141 5.27344 17.7266 5.85938 18.3125L7.22656 19.6797L7.5 19.9531L8.55469 21.0078C8.82812 21.2812 9.21875 21.2812 9.45312 21.0078C9.53125 20.9688 9.57031 20.8906 9.60938 20.8125C9.72656 20.5 9.96094 20.2656 10.2734 20.1875C10.5859 20.1484 10.8984 20.2266 11.1328 20.4609L11.5625 20.8516C12.0312 21.3203 12.7344 21.3203 13.2031 20.8516C13.3984 20.6562 13.5156 20.3828 13.5547 20.1094C13.5547 19.7578 13.75 19.4453 14.0625 19.3281C14.375 19.1719 14.7266 19.2109 15.0391 19.4062C15.3906 19.6406 15.8984 19.6406 16.2109 19.2891C16.6016 18.9375 16.6016 18.3516 16.2109 17.9609L13.2812 14.9922L11.875 16.2812C10.8203 17.2969 9.17969 17.2969 8.08594 16.3203C6.83594 15.2266 6.79688 13.3125 8.00781 12.1797L10.7422 9.60156C11.8359 8.58594 13.2422 8 14.7266 8C16.1328 8 17.5 8.54688 18.5547 9.48438L19.7266 10.5H21.25H22.8125H24.375C24.6875 10.5 25 10.8125 25 11.125V19.25C25 19.9531 24.4141 20.5 23.75 20.5H22.5C22.0312 20.5 21.6016 20.2656 21.4062 19.875H18.0859C17.9688 20.1484 17.7734 20.4219 17.5391 20.6172C16.875 21.2812 15.9766 21.5547 15.0781 21.3984C14.9609 21.7109 14.7656 21.9453 14.5312 22.1797C13.4766 23.2734 11.7969 23.3516 10.5859 22.5312C9.60938 23.3125 8.16406 23.2734 7.22656 22.3359L6.21094 21.2812L5.9375 21.0078L4.53125 19.6406C4.29688 19.4062 4.02344 19.2891 3.75 19.2891C3.75 19.9531 3.16406 20.5 2.5 20.5H1.25C0.546875 20.5 0 19.9531 0 19.25V11.125C0 10.8125 0.273438 10.5 0.625 10.5H2.1875H3.75H4.49219C4.57031 10.5 4.64844 10.5 4.72656 10.4219L5.74219 9.52344C6.83594 8.54688 8.24219 8 9.6875 8H10.1172C10.2734 8 10.4297 8.03906 10.625 8.03906ZM21.25 18V12.375H19.375C19.1406 12.375 18.9062 12.2969 18.75 12.1406L17.3047 10.8906C16.6016 10.2266 15.6641 9.875 14.7266 9.875C13.7109 9.875 12.7734 10.2656 12.0312 10.9688L9.29688 13.5469C8.90625 13.9375 8.90625 14.5625 9.33594 14.9141C9.6875 15.2656 10.2344 15.2656 10.5859 14.9141L13.3984 12.3359C13.7891 11.9844 14.375 11.9844 14.7266 12.375C15.0781 12.7656 15.0391 13.3516 14.6875 13.7031L14.6484 13.7422L17.5391 16.6328C17.9297 17.0234 18.2031 17.5312 18.3203 18H21.2109H21.25ZM2.5 18.625C2.5 18.3125 2.1875 18 1.875 18C1.52344 18 1.25 18.3125 1.25 18.625C1.25 18.9766 1.52344 19.25 1.875 19.25C2.1875 19.25 2.5 18.9766 2.5 18.625ZM23.125 19.25C23.4375 19.25 23.75 18.9766 23.75 18.625C23.75 18.3125 23.4375 18 23.125 18C22.7734 18 22.5 18.3125 22.5 18.625C22.5 18.9766 22.7734 19.25 23.125 19.25Z" fill="black" fill-opacity="0.72"/>
</g>
<defs>
<clipPath id="clip0_4513_694">
<rect width="25" height="30" fill="white"/>
</clipPath>
</defs>
</svg>
