<svg width="24" height="36" viewBox="0 0 24 36" fill="none" xmlns="http://www.w3.org/2000/svg">
<g id="label-paired / xl / circle-question-xl / fill" clip-path="url(#clip0_3578_742)">
<path id="icon" d="M12 30C7.6875 30 3.75 27.75 1.59375 24C-0.5625 20.2969 -0.5625 15.75 1.59375 12C3.75 8.29688 7.6875 6 12 6C16.2656 6 20.2031 8.29688 22.3594 12C24.5156 15.75 24.5156 20.2969 22.3594 24C20.2031 27.75 16.2656 30 12 30ZM7.92188 13.7812V13.8281C7.73438 14.3906 8.01562 15.0469 8.625 15.2812C9.1875 15.4688 9.84375 15.1875 10.0312 14.5781L10.0781 14.5312C10.125 14.3906 10.2656 14.2969 10.4062 14.2969H13.125C13.5469 14.2969 13.875 14.5781 13.875 15C13.875 15.2344 13.7344 15.4688 13.5 15.6094L11.4375 16.7812C11.0625 16.9688 10.875 17.3438 10.875 17.7656V18.375C10.875 19.0312 11.3438 19.5 12 19.5C12.6094 19.5 13.0781 19.0312 13.125 18.4219L14.625 17.5312C15.5156 17.0156 16.125 16.0312 16.125 15C16.125 13.3594 14.7656 12 13.125 12H10.4062C9.28125 12 8.29688 12.7031 7.92188 13.7812ZM10.5 22.5C10.5 23.3438 11.1562 24 12 24C12.7969 24 13.5 23.3438 13.5 22.5C13.5 21.7031 12.7969 21 12 21C11.1562 21 10.5 21.7031 10.5 22.5Z" fill="black" fill-opacity="0.72"/>
</g>
<defs>
<clipPath id="clip0_3578_742">
<rect width="24" height="36" fill="white"/>
</clipPath>
</defs>
</svg>
