<svg width="18" height="22" viewBox="0 0 18 22" fill="none" xmlns="http://www.w3.org/2000/svg">
<g id="label-paired / sm / hand-gesture-swipe-left-right-sm / regular" clip-path="url(#clip0_3546_618)">
<path id="icon" d="M8.97266 6.56641C9.49219 6.56641 9.92969 7.00391 9.92969 7.52344V9.65625C10.0664 9.60156 10.2031 9.57422 10.3398 9.57422C10.75 9.57422 11.1055 9.82031 11.2969 10.1484C11.3789 10.1211 11.4883 10.1211 11.5703 10.1211C11.9805 10.1211 12.3359 10.3672 12.5273 10.668C12.582 10.668 12.6367 10.668 12.6641 10.668C13.2656 10.668 13.7578 11.1602 13.7578 11.7617V13.4023C13.7578 14.4688 12.8828 15.3164 11.8438 15.3164H9.51953C9.10938 15.3164 8.72656 15.2344 8.37109 15.0156L8.20703 14.9609C7.41406 14.5234 6.92188 13.7031 6.92188 12.7734V12.4453C6.92188 12.0078 7.11328 11.625 7.46875 11.3516L7.85156 11.0781C7.90625 11.0234 7.96094 10.9961 8.01562 10.9414V7.52344C8.01562 7.00391 8.45312 6.56641 8.97266 6.56641ZM8.5625 7.52344V12.4453C8.5625 12.582 8.42578 12.7188 8.28906 12.7188C8.15234 12.7188 8.01562 12.582 8.01562 12.4453V11.625L7.79688 11.7891C7.60547 11.9531 7.46875 12.1719 7.46875 12.4453V12.7734C7.46875 13.4844 7.85156 14.1406 8.48047 14.4688L8.61719 14.5508C8.89062 14.6875 9.19141 14.7695 9.51953 14.7695H11.8438C12.6094 14.7695 13.2109 14.168 13.2109 13.4023V11.7617C13.2109 11.4609 12.9648 11.2148 12.6641 11.2148C12.6094 11.2148 12.5273 11.2148 12.4727 11.2695C12.3906 11.2695 12.3086 11.2695 12.2539 11.2422C12.1719 11.2148 12.1172 11.1328 12.1172 11.0781C12.0352 10.832 11.8164 10.668 11.5703 10.668C11.4609 10.668 11.3789 10.6953 11.2969 10.75C11.2148 10.8047 11.1055 10.8047 11.0234 10.7773C10.9414 10.7227 10.8867 10.6406 10.8867 10.5586C10.832 10.3125 10.6133 10.1211 10.3398 10.1211C10.1484 10.1211 9.98438 10.2305 9.875 10.3672C9.82031 10.4766 9.68359 10.5039 9.57422 10.4766C9.46484 10.4492 9.38281 10.3398 9.38281 10.2305V7.52344C9.38281 7.30469 9.19141 7.11328 8.97266 7.11328C8.72656 7.11328 8.5625 7.30469 8.5625 7.52344ZM13.5938 9.30078L15.2617 7.63281C15.3711 7.52344 15.3711 7.35938 15.2617 7.25L13.5938 5.58203C13.4844 5.5 13.3203 5.5 13.2109 5.58203C13.1016 5.69141 13.1289 5.85547 13.2109 5.96484L14.4414 7.19531H11.2422C11.1055 7.19531 10.9961 7.30469 10.9961 7.44141C10.9961 7.57812 11.1055 7.71484 11.2422 7.71484H14.4414L13.2109 8.91797C13.1289 9.02734 13.1289 9.19141 13.2109 9.30078C13.3203 9.41016 13.4844 9.41016 13.5938 9.30078ZM4.84375 9.30078L3.17578 7.63281C3.09375 7.52344 3.09375 7.35938 3.17578 7.25L4.84375 5.58203C4.95312 5.47266 5.11719 5.47266 5.22656 5.58203C5.33594 5.69141 5.33594 5.85547 5.22656 5.96484L3.99609 7.16797H7.19531C7.33203 7.16797 7.46875 7.30469 7.46875 7.44141C7.46875 7.57812 7.33203 7.71484 7.19531 7.71484H3.99609L5.22656 8.91797C5.33594 9.02734 5.33594 9.19141 5.22656 9.30078C5.11719 9.41016 4.95312 9.41016 4.84375 9.30078Z" fill="black" fill-opacity="0.72"/>
</g>
<defs>
<clipPath id="clip0_3546_618">
<rect width="18" height="22" fill="white"/>
</clipPath>
</defs>
</svg>
