<svg width="16" height="22" viewBox="0 0 16 22" fill="none" xmlns="http://www.w3.org/2000/svg">
<g id="label-paired / sm / house-user-sm / fill" clip-path="url(#clip0_4670_644)">
<path id="icon" d="M15.8477 10.75C15.8477 11.2422 15.4375 11.625 14.9727 11.625H14.0977L14.125 16C14.125 16.9844 13.3594 17.7773 12.375 17.7773H3.625C2.64062 17.7773 1.875 16.9844 1.875 16.0273V11.625H1C0.507812 11.625 0.125 11.2422 0.125 10.75C0.125 10.5039 0.207031 10.2852 0.398438 10.0938L7.39844 3.96875C7.58984 3.77734 7.80859 3.75 8 3.75C8.19141 3.75 8.41016 3.80469 8.57422 3.94141L15.5469 10.0938C15.7656 10.2852 15.875 10.5039 15.8477 10.75ZM9.75 9.875C9.75 9.27344 9.39453 8.69922 8.875 8.37109C8.32812 8.07031 7.64453 8.07031 7.125 8.37109C6.57812 8.69922 6.25 9.27344 6.25 9.875C6.25 10.5039 6.57812 11.0781 7.125 11.4062C7.64453 11.707 8.32812 11.707 8.875 11.4062C9.39453 11.0781 9.75 10.5039 9.75 9.875ZM7.125 12.5C5.89453 12.5 4.9375 13.4844 4.9375 14.6875C4.9375 14.9336 5.12891 15.125 5.375 15.125H10.625C10.8438 15.125 11.0625 14.9336 11.0625 14.6875C11.0625 13.4844 10.0781 12.5 8.875 12.5H7.125Z" fill="black" fill-opacity="0.72"/>
</g>
<defs>
<clipPath id="clip0_4670_644">
<rect width="16" height="22" fill="white"/>
</clipPath>
</defs>
</svg>
