<svg width="27" height="36" viewBox="0 0 27 36" fill="none" xmlns="http://www.w3.org/2000/svg">
<g id="label-paired / xl / file-circle-info-xl / bold" clip-path="url(#clip0_2556_19343)">
<path id="icon" d="M3 27.75H13.3125C13.875 28.6406 14.5781 29.3906 15.4219 30C15.2812 30 15.1406 30 15 30H3C1.3125 30 0 28.6875 0 27V9C0 7.35938 1.3125 6 3 6H10.7344C11.5312 6 12.2812 6.32812 12.8438 6.89062L17.1094 11.1562C17.6719 11.7188 18 12.4688 18 13.2656V15.3281C17.1562 15.5625 16.4062 15.8906 15.75 16.3594V13.5H12C11.1562 13.5 10.5 12.8438 10.5 12V8.25H3C2.57812 8.25 2.25 8.625 2.25 9V27C2.25 27.4219 2.57812 27.75 3 27.75ZM20.25 16.5C22.6406 16.5 24.8438 17.8125 26.0625 19.875C27.2812 21.9844 27.2812 24.5625 26.0625 26.625C24.8438 28.7344 22.6406 30 20.25 30C17.8125 30 15.6094 28.7344 14.3906 26.625C13.1719 24.5625 13.1719 21.9844 14.3906 19.875C15.6094 17.8125 17.8125 16.5 20.25 16.5ZM20.25 21C20.8594 21 21.375 20.5312 21.375 19.875C21.375 19.2656 20.8594 18.75 20.25 18.75C19.5938 18.75 19.125 19.2656 19.125 19.875C19.125 20.5312 19.5938 21 20.25 21ZM18.75 23.25C18.75 23.6719 19.0781 24 19.5 24V26.25C19.0781 26.25 18.75 26.625 18.75 27C18.75 27.4219 19.0781 27.75 19.5 27.75H20.25H21C21.375 27.75 21.75 27.4219 21.75 27C21.75 26.625 21.375 26.25 21 26.25V23.25C21 22.875 20.625 22.5 20.25 22.5H19.5C19.0781 22.5 18.75 22.875 18.75 23.25Z" fill="black" fill-opacity="0.72"/>
</g>
<defs>
<clipPath id="clip0_2556_19343">
<rect width="27" height="36" fill="white"/>
</clipPath>
</defs>
</svg>
