<svg width="14" height="22" viewBox="0 0 14 22" fill="none" xmlns="http://www.w3.org/2000/svg">
<g id="label-paired / sm / circle-trash-sm / fill" clip-path="url(#clip0_2556_12951)">
<path id="icon" d="M7 17.75C4.48438 17.75 2.1875 16.4375 0.929688 14.25C-0.328125 12.0898 -0.328125 9.4375 0.929688 7.25C2.1875 5.08984 4.48438 3.75 7 3.75C9.48828 3.75 11.7852 5.08984 13.043 7.25C14.3008 9.4375 14.3008 12.0898 13.043 14.25C11.7852 16.4375 9.48828 17.75 7 17.75ZM4.375 7.25C4.12891 7.25 3.9375 7.46875 3.9375 7.6875C3.9375 7.93359 4.12891 8.125 4.375 8.125H9.625C9.84375 8.125 10.0625 7.93359 10.0625 7.6875C10.0625 7.46875 9.84375 7.25 9.625 7.25H8.47656L8.17578 6.94922C8.09375 6.86719 7.98438 6.8125 7.875 6.8125H6.125C5.98828 6.8125 5.87891 6.86719 5.79688 6.94922L5.49609 7.25H4.375ZM4.375 9L4.73047 13.457C4.75781 13.9219 5.14062 14.25 5.60547 14.25H8.36719C8.83203 14.25 9.21484 13.9219 9.24219 13.457L9.625 9H4.375Z" fill="black" fill-opacity="0.72"/>
</g>
<defs>
<clipPath id="clip0_2556_12951">
<rect width="14" height="22" fill="white"/>
</clipPath>
</defs>
</svg>
