<svg width="18" height="24" viewBox="0 0 18 24" fill="none" xmlns="http://www.w3.org/2000/svg">
<g id="label-paired / md / eye-md / fill" clip-path="url(#clip0_2556_15300)">
<path id="icon" d="M9 5C11.5 5 13.5312 6.15625 15 7.53125C16.4688 8.875 17.4375 10.5 17.9062 11.625C18 11.875 18 12.1562 17.9062 12.4062C17.4375 13.5 16.4688 15.125 15 16.5C13.5312 17.875 11.5 19 9 19C6.46875 19 4.4375 17.875 2.96875 16.5C1.5 15.125 0.53125 13.5 0.0625 12.4062C-0.03125 12.1562 -0.03125 11.875 0.0625 11.625C0.53125 10.5 1.5 8.875 2.96875 7.53125C4.4375 6.15625 6.46875 5 9 5ZM4.5 12C4.5 13.625 5.34375 15.0938 6.75 15.9062C8.125 16.7188 9.84375 16.7188 11.25 15.9062C12.625 15.0938 13.5 13.625 13.5 12C13.5 10.4062 12.625 8.9375 11.25 8.125C9.84375 7.3125 8.125 7.3125 6.75 8.125C5.34375 8.9375 4.5 10.4062 4.5 12ZM9 10C9 9.78125 8.9375 9.59375 8.875 9.375C8.8125 9.21875 8.9375 9 9.125 9C10.375 9.0625 11.5312 9.9375 11.875 11.25C12.3125 12.8438 11.375 14.4688 9.75 14.9062C8.15625 15.3438 6.5 14.375 6.09375 12.7812C6.03125 12.5625 6 12.3438 6 12.1562C5.96875 11.9688 6.1875 11.8438 6.34375 11.9062C6.5625 11.9688 6.75 12 7 12C8.09375 12 9 11.125 9 10Z" fill="black" fill-opacity="0.72"/>
</g>
<defs>
<clipPath id="clip0_2556_15300">
<rect width="18" height="24" fill="white"/>
</clipPath>
</defs>
</svg>
