<svg width="14" height="22" viewBox="0 0 14 22" fill="none" xmlns="http://www.w3.org/2000/svg">
<g id="label-paired / sm / fingerprint-sm / bold" clip-path="url(#clip0_2512_1093)">
<path id="icon" d="M1.3125 10.75V11.8438C1.27604 12.2448 1.05729 12.4635 0.65625 12.5C0.255208 12.4635 0.0364583 12.2448 0 11.8438V10.75C0.0182292 9.4375 0.33724 8.26172 0.957031 7.22266C1.57682 6.16536 2.41536 5.32682 3.47266 4.70703C4.51172 4.08724 5.6875 3.76823 7 3.75C8.07552 3.75 9.06901 3.96875 9.98047 4.40625C10.8919 4.84375 11.6667 5.4362 12.3047 6.18359C12.5417 6.51172 12.5234 6.82161 12.25 7.11328C11.9219 7.35026 11.612 7.33203 11.3203 7.05859C10.7917 6.4388 10.1536 5.95573 9.40625 5.60938C8.67708 5.24479 7.875 5.0625 7 5.0625C5.39583 5.09896 4.05599 5.65495 2.98047 6.73047C1.90495 7.80599 1.34896 9.14583 1.3125 10.75ZM13.8633 9.30078C13.9544 9.77474 14 10.2578 14 10.75V11.8438C13.9635 12.2448 13.7448 12.4635 13.3438 12.5C12.9427 12.4635 12.724 12.2448 12.6875 11.8438V10.75C12.6875 10.349 12.651 9.95703 12.5781 9.57422C12.5234 9.17318 12.6875 8.91797 13.0703 8.80859C13.4714 8.75391 13.7357 8.91797 13.8633 9.30078ZM7 5.9375C8.36719 5.97396 9.50651 6.44792 10.418 7.35938C11.3112 8.2526 11.776 9.38281 11.8125 10.75V11.4336C11.8125 12.1992 11.7669 12.9557 11.6758 13.7031C11.6029 14.0495 11.3932 14.2318 11.0469 14.25C10.8281 14.25 10.6641 14.1771 10.5547 14.0312C10.4271 13.8854 10.3724 13.7031 10.3906 13.4844C10.4635 12.8099 10.5 12.1263 10.5 11.4336V10.75C10.4818 9.76562 10.1445 8.9362 9.48828 8.26172C8.8138 7.60547 7.98438 7.26823 7 7.25C6.6901 7.25 6.38932 7.28646 6.09766 7.35938C5.76953 7.45052 5.49609 7.38672 5.27734 7.16797C5.13151 6.98568 5.08594 6.79427 5.14062 6.59375C5.17708 6.39323 5.30469 6.25651 5.52344 6.18359C5.97917 6.01953 6.47135 5.9375 7 5.9375ZM4.12891 7.82422C4.32943 8.11589 4.32943 8.42578 4.12891 8.75391C3.72786 9.33724 3.51823 10.0026 3.5 10.75V11.4336C3.5 12.2174 3.40885 13.0013 3.22656 13.7852C3.13542 14.0768 2.9349 14.2318 2.625 14.25C2.40625 14.25 2.23307 14.1589 2.10547 13.9766C1.97786 13.8125 1.93229 13.6211 1.96875 13.4023C2.11458 12.7461 2.1875 12.0898 2.1875 11.4336V10.75C2.20573 9.61979 2.54297 8.63542 3.19922 7.79688C3.32682 7.65104 3.48177 7.57812 3.66406 7.57812C3.82812 7.59635 3.98307 7.67839 4.12891 7.82422ZM9.625 10.75V11.4336C9.625 12.5273 9.51562 13.6029 9.29688 14.6602C9.22396 14.9518 9.03255 15.1068 8.72266 15.125C8.54036 15.125 8.38542 15.0521 8.25781 14.9062C8.14844 14.7604 8.11198 14.5872 8.14844 14.3867C8.33073 13.4023 8.42188 12.418 8.42188 11.4336V10.75C8.40365 10.349 8.26693 10.0117 8.01172 9.73828C7.73828 9.48307 7.40104 9.34635 7 9.32812C6.59896 9.34635 6.26172 9.48307 5.98828 9.73828C5.73307 10.0117 5.59635 10.349 5.57812 10.75V11.4336C5.57812 12.5456 5.43229 13.6393 5.14062 14.7148C5.04948 14.9701 4.86719 15.1068 4.59375 15.125C4.375 15.125 4.21094 15.043 4.10156 14.8789C3.99219 14.7148 3.95573 14.5326 3.99219 14.332C4.2474 13.3841 4.375 12.418 4.375 11.4336V10.75C4.39323 10.0026 4.64844 9.38281 5.14062 8.89062C5.63281 8.39844 6.2526 8.14323 7 8.125C7.7474 8.14323 8.36719 8.39844 8.85938 8.89062C9.35156 9.38281 9.60677 10.0026 9.625 10.75ZM7 10.0938C7.40104 10.1302 7.61979 10.349 7.65625 10.75V11.4336C7.65625 13.2383 7.32812 14.9883 6.67188 16.6836L6.50781 17.1211C6.34375 17.4674 6.0612 17.5859 5.66016 17.4766C5.3138 17.3125 5.19531 17.0299 5.30469 16.6289L5.46875 16.2188C6.05208 14.6875 6.34375 13.0924 6.34375 11.4336V10.75C6.38021 10.349 6.59896 10.1302 7 10.0938Z" fill="black" fill-opacity="0.72"/>
</g>
<defs>
<clipPath id="clip0_2512_1093">
<rect width="14" height="22" fill="white"/>
</clipPath>
</defs>
</svg>
