<svg width="12" height="18" viewBox="0 0 12 18" fill="none" xmlns="http://www.w3.org/2000/svg">
<g id="label-paired / caption / chevrons-left-caption / bold" clip-path="url(#clip0_2556_10625)">
<path id="icon" d="M1.10156 9.10156L5.60156 4.625C5.8125 4.39062 6.16406 4.39062 6.39844 4.625C6.60938 4.83594 6.60938 5.1875 6.39844 5.39844L2.27344 9.5L6.375 13.625C6.60938 13.8359 6.60938 14.1875 6.375 14.3984C6.16406 14.6328 5.8125 14.6328 5.60156 14.3984L1.10156 9.89844C0.867188 9.6875 0.867188 9.33594 1.10156 9.10156ZM10.1016 4.60156V4.625C10.3125 4.39062 10.6641 4.39062 10.8984 4.625C11.1094 4.83594 11.1094 5.1875 10.8984 5.39844L6.77344 9.52344L10.875 13.625C11.1094 13.8359 11.1094 14.1875 10.875 14.3984C10.6641 14.6328 10.3125 14.6328 10.1016 14.3984L5.60156 9.89844C5.36719 9.6875 5.36719 9.33594 5.60156 9.10156L10.1016 4.60156Z" fill="black" fill-opacity="0.72"/>
</g>
<defs>
<clipPath id="clip0_2556_10625">
<rect width="12" height="18" fill="white"/>
</clipPath>
</defs>
</svg>
