<svg width="16" height="24" viewBox="0 0 16 24" fill="none" xmlns="http://www.w3.org/2000/svg">
<g id="label-paired / md / circle-zero-md / bold" clip-path="url(#clip0_2556_14809)">
<path id="icon" d="M8 5.5C5.65625 5.5 3.53125 6.75 2.34375 8.75C1.1875 10.7812 1.1875 13.25 2.34375 15.25C3.53125 17.2812 5.65625 18.5 8 18.5C10.3125 18.5 12.4375 17.2812 13.625 15.25C14.7812 13.25 14.7812 10.7812 13.625 8.75C12.4375 6.75 10.3125 5.5 8 5.5ZM8 20C5.125 20 2.5 18.5 1.0625 16C-0.375 13.5312 -0.375 10.5 1.0625 8C2.5 5.53125 5.125 4 8 4C10.8438 4 13.4688 5.53125 14.9062 8C16.3438 10.5 16.3438 13.5312 14.9062 16C13.4688 18.5 10.8438 20 8 20ZM8 8C9.65625 8 11 9.34375 11 11V13C11 14.6562 9.65625 16 8 16C6.34375 16 5 14.6562 5 13V11C5 9.34375 6.34375 8 8 8ZM6.5 11V13C6.5 13.8438 7.15625 14.5 8 14.5C8.8125 14.5 9.5 13.8438 9.5 13V11C9.5 10.1875 8.8125 9.5 8 9.5C7.15625 9.5 6.5 10.1875 6.5 11Z" fill="black" fill-opacity="0.72"/>
</g>
<defs>
<clipPath id="clip0_2556_14809">
<rect width="16" height="24" fill="white"/>
</clipPath>
</defs>
</svg>
