<svg width="16" height="22" viewBox="0 0 16 22" fill="none" xmlns="http://www.w3.org/2000/svg">
<g id="label-paired / sm / arrow-down-a-z-sm / regular" clip-path="url(#clip0_2556_12710)">
<path id="icon" d="M7.42578 14.1406L4.80078 16.7656C4.63672 16.9297 4.33594 16.9297 4.17188 16.7656L1.54688 14.1406C1.38281 13.9766 1.38281 13.6758 1.54688 13.5117C1.71094 13.3477 2.01172 13.3477 2.17578 13.5117L4.0625 15.3984V5.0625C4.0625 4.84375 4.25391 4.625 4.5 4.625C4.71875 4.625 4.9375 4.84375 4.9375 5.0625V15.3984L6.79688 13.5117C6.96094 13.3477 7.26172 13.3477 7.42578 13.5117C7.58984 13.6758 7.58984 13.9766 7.42578 14.1406ZM11.8828 4.87109L13.6328 8.37109C13.6328 8.37109 13.6328 8.37109 13.6328 8.39844L14.0703 9.24609C14.1797 9.46484 14.0977 9.73828 13.8789 9.84766C13.6602 9.95703 13.3867 9.84766 13.2773 9.65625L12.9766 9H9.99609L9.69531 9.65625C9.58594 9.875 9.3125 9.95703 9.09375 9.84766C8.875 9.73828 8.79297 9.46484 8.90234 9.24609L9.33984 8.39844C9.33984 8.37109 9.33984 8.37109 9.33984 8.37109L11.0898 4.87109C11.1719 4.73438 11.3086 4.625 11.5 4.625C11.6641 4.625 11.8008 4.73438 11.8828 4.87109ZM11.5 6.04688L10.4336 8.125H12.5391L11.5 6.04688ZM9.75 11.625H13.25C13.4141 11.625 13.5508 11.7344 13.6328 11.8984C13.7148 12.0352 13.6875 12.2266 13.5781 12.3359L10.6523 16H13.25C13.4688 16 13.6875 16.2188 13.6875 16.4375C13.6875 16.6836 13.4688 16.875 13.25 16.875H9.75C9.55859 16.875 9.42188 16.793 9.33984 16.6289C9.28516 16.4922 9.28516 16.3008 9.39453 16.1641L12.3203 12.5H9.75C9.50391 12.5 9.3125 12.3086 9.3125 12.0625C9.3125 11.8438 9.50391 11.625 9.75 11.625Z" fill="black" fill-opacity="0.72"/>
</g>
<defs>
<clipPath id="clip0_2556_12710">
<rect width="16" height="22" fill="white"/>
</clipPath>
</defs>
</svg>
