<svg width="18" height="22" viewBox="0 0 18 22" fill="none" xmlns="http://www.w3.org/2000/svg">
<g id="label-paired / sm / signal-sm / fill" clip-path="url(#clip0_2556_12590)">
<path id="icon" d="M16 3.75C16.4648 3.75 16.875 4.16016 16.875 4.625V16.875C16.875 17.3672 16.4648 17.75 16 17.75C15.5078 17.75 15.125 17.3672 15.125 16.875V4.625C15.125 4.16016 15.5078 3.75 16 3.75ZM12.5 6.375C12.9648 6.375 13.375 6.78516 13.375 7.25V16.875C13.375 17.3672 12.9648 17.75 12.5 17.75C12.0078 17.75 11.625 17.3672 11.625 16.875V7.25C11.625 6.78516 12.0078 6.375 12.5 6.375ZM9.875 9.875V16.875C9.875 17.3672 9.46484 17.75 9 17.75C8.50781 17.75 8.125 17.3672 8.125 16.875V9.875C8.125 9.41016 8.50781 9 9 9C9.46484 9 9.875 9.41016 9.875 9.875ZM5.5 11.625C5.96484 11.625 6.375 12.0352 6.375 12.5V16.875C6.375 17.3672 5.96484 17.75 5.5 17.75C5.00781 17.75 4.625 17.3672 4.625 16.875V12.5C4.625 12.0352 5.00781 11.625 5.5 11.625ZM2.875 15.125V16.875C2.875 17.3672 2.46484 17.75 2 17.75C1.50781 17.75 1.125 17.3672 1.125 16.875V15.125C1.125 14.6602 1.50781 14.25 2 14.25C2.46484 14.25 2.875 14.6602 2.875 15.125Z" fill="black" fill-opacity="0.72"/>
</g>
<defs>
<clipPath id="clip0_2556_12590">
<rect width="18" height="22" fill="white"/>
</clipPath>
</defs>
</svg>
