<svg width="14" height="22" viewBox="0 0 14 22" fill="none" xmlns="http://www.w3.org/2000/svg">
<g id="label-paired / sm / location-crosshairs-sm / regular" clip-path="url(#clip0_2556_12738)">
<path id="icon" d="M7 3.75C7.21875 3.75 7.4375 3.96875 7.4375 4.1875V5.52734C9.98047 5.74609 12.0039 7.76953 12.2227 10.3125H13.5625C13.7812 10.3125 14 10.5312 14 10.75C14 10.9961 13.7812 11.1875 13.5625 11.1875H12.2227C12.0039 13.7578 9.98047 15.7812 7.4375 16V17.3125C7.4375 17.5586 7.21875 17.75 7 17.75C6.75391 17.75 6.5625 17.5586 6.5625 17.3125V16C3.99219 15.7812 1.96875 13.7578 1.75 11.1875H0.4375C0.191406 11.1875 0 10.9961 0 10.75C0 10.5312 0.191406 10.3125 0.4375 10.3125H1.75C1.96875 7.76953 3.99219 5.74609 6.5625 5.52734V4.1875C6.5625 3.96875 6.75391 3.75 7 3.75ZM2.625 10.75C2.625 12.3359 3.44531 13.7578 4.8125 14.5508C6.15234 15.3438 7.82031 15.3438 9.1875 14.5508C10.5273 13.7578 11.375 12.3359 11.375 10.75C11.375 9.19141 10.5273 7.76953 9.1875 6.97656C7.82031 6.18359 6.15234 6.18359 4.8125 6.97656C3.44531 7.76953 2.625 9.19141 2.625 10.75ZM8.75 10.75C8.75 10.1484 8.39453 9.57422 7.875 9.24609C7.32812 8.94531 6.64453 8.94531 6.125 9.24609C5.57812 9.57422 5.25 10.1484 5.25 10.75C5.25 11.3789 5.57812 11.9531 6.125 12.2812C6.64453 12.582 7.32812 12.582 7.875 12.2812C8.39453 11.9531 8.75 11.3789 8.75 10.75ZM4.375 10.75C4.375 9.82031 4.86719 8.97266 5.6875 8.48047C6.48047 8.01562 7.49219 8.01562 8.3125 8.48047C9.10547 8.97266 9.625 9.82031 9.625 10.75C9.625 11.707 9.10547 12.5547 8.3125 13.0469C7.49219 13.5117 6.48047 13.5117 5.6875 13.0469C4.86719 12.5547 4.375 11.707 4.375 10.75Z" fill="black" fill-opacity="0.72"/>
</g>
<defs>
<clipPath id="clip0_2556_12738">
<rect width="14" height="22" fill="white"/>
</clipPath>
</defs>
</svg>
