<svg width="16" height="24" viewBox="0 0 16 24" fill="none" xmlns="http://www.w3.org/2000/svg">
<g id="label-paired / md / message-lines-md / bold" clip-path="url(#clip0_2981_859)">
<path id="icon" d="M6.5 17V17.5L8.75 15.8125C9 15.625 9.3125 15.5 9.65625 15.5H14C14.25 15.5 14.5 15.2812 14.5 15V6C14.5 5.75 14.25 5.5 14 5.5H2C1.71875 5.5 1.5 5.75 1.5 6V15C1.5 15.2812 1.71875 15.5 2 15.5H5C5.8125 15.5 6.5 16.1875 6.5 17ZM6.46875 19.4062L6.3125 19.5L5.78125 19.9062C5.625 20.0312 5.4375 20.0312 5.25 19.9688C5.09375 19.875 5 19.7188 5 19.5V18.8438V18.6562V18.625V18.5V17H3.5H2C0.875 17 0 16.125 0 15V6C0 4.90625 0.875 4 2 4H14C15.0938 4 16 4.90625 16 6V15C16 16.125 15.0938 17 14 17H9.65625L6.5 19.375L6.46875 19.4062ZM4.75 8.5H11.25C11.6562 8.5 12 8.84375 12 9.25C12 9.6875 11.6562 10 11.25 10H4.75C4.3125 10 4 9.6875 4 9.25C4 8.84375 4.3125 8.5 4.75 8.5ZM4.75 11.5H8.25C8.65625 11.5 9 11.8438 9 12.25C9 12.6875 8.65625 13 8.25 13H4.75C4.3125 13 4 12.6875 4 12.25C4 11.8438 4.3125 11.5 4.75 11.5Z" fill="black" fill-opacity="0.72"/>
</g>
<defs>
<clipPath id="clip0_2981_859">
<rect width="16" height="24" fill="white"/>
</clipPath>
</defs>
</svg>
