<svg width="20" height="30" viewBox="0 0 20 30" fill="none" xmlns="http://www.w3.org/2000/svg">
<g id="label-paired / lg / envelope-lg / bold" clip-path="url(#clip0_2556_17172)">
<path id="icon" d="M2.5 9.875C2.14844 9.875 1.875 10.1875 1.875 10.5V11.3984L8.59375 16.9062C9.41406 17.5703 10.5469 17.5703 11.3672 16.9062L18.125 11.3984V10.5C18.125 10.1875 17.8125 9.875 17.5 9.875H2.5ZM1.875 13.8203V20.5C1.875 20.8516 2.14844 21.125 2.5 21.125H17.5C17.8125 21.125 18.125 20.8516 18.125 20.5V13.8203L12.5781 18.3516C11.0547 19.6016 8.90625 19.6016 7.42188 18.3516L1.875 13.8203ZM0 10.5C0 9.13281 1.09375 8 2.5 8H17.5C18.8672 8 20 9.13281 20 10.5V20.5C20 21.9062 18.8672 23 17.5 23H2.5C1.09375 23 0 21.9062 0 20.5V10.5Z" fill="black" fill-opacity="0.72"/>
</g>
<defs>
<clipPath id="clip0_2556_17172">
<rect width="20" height="30" fill="white"/>
</clipPath>
</defs>
</svg>
