<svg width="16" height="24" viewBox="0 0 16 24" fill="none" xmlns="http://www.w3.org/2000/svg">
<g id="label-paired / md / circle-sort-up-md / regular" clip-path="url(#clip0_2556_14794)">
<path id="icon" d="M15 12C15 9.5 13.6562 7.21875 11.5 5.96875C9.3125 4.6875 6.65625 4.6875 4.5 5.96875C2.3125 7.21875 1 9.5 1 12C1 14.5312 2.3125 16.8125 4.5 18.0625C6.65625 19.3438 9.3125 19.3438 11.5 18.0625C13.6562 16.8125 15 14.5312 15 12ZM0 12C0 9.15625 1.5 6.53125 4 5.09375C6.46875 3.65625 9.5 3.65625 12 5.09375C14.4688 6.53125 16 9.15625 16 12C16 14.875 14.4688 17.5 12 18.9375C9.5 20.375 6.46875 20.375 4 18.9375C1.5 17.5 0 14.875 0 12ZM7.625 7.15625C7.8125 6.96875 8.15625 6.96875 8.34375 7.15625L11.3438 10.1562C11.4688 10.3125 11.5312 10.5312 11.4375 10.7188C11.375 10.875 11.1875 11 11 11H5C4.78125 11 4.59375 10.9062 4.53125 10.7188C4.4375 10.5312 4.5 10.3125 4.625 10.1562L7.625 7.15625ZM6.1875 10H9.78125L8 8.21875L6.1875 10ZM4.625 13.875C4.4375 13.6875 4.4375 13.3438 4.625 13.1562C4.8125 12.9688 5.15625 12.9688 5.34375 13.1562L8 15.8125L10.625 13.1562C10.8125 12.9688 11.1562 12.9688 11.3438 13.1562C11.5312 13.3438 11.5312 13.6875 11.3438 13.875L8.34375 16.875C8.15625 17.0625 7.8125 17.0625 7.625 16.875L4.625 13.875Z" fill="black" fill-opacity="0.72"/>
</g>
<defs>
<clipPath id="clip0_2556_14794">
<rect width="16" height="24" fill="white"/>
</clipPath>
</defs>
</svg>
