<svg width="16" height="24" viewBox="0 0 16 24" fill="none" xmlns="http://www.w3.org/2000/svg">
<g id="label-paired / md / circle-bookmark-md / fill" clip-path="url(#clip0_2556_15167)">
<path id="icon" d="M8 20C5.125 20 2.5 18.5 1.0625 16C-0.375 13.5312 -0.375 10.5 1.0625 8C2.5 5.53125 5.125 4 8 4C10.8438 4 13.4688 5.53125 14.9062 8C16.3438 10.5 16.3438 13.5312 14.9062 16C13.4688 18.5 10.8438 20 8 20ZM5 9.5V15.5C5 15.7188 5.09375 15.875 5.28125 15.9688C5.4375 16.0625 5.65625 16.0312 5.8125 15.9062L8 14.1562L10.1875 15.9062C10.3125 16.0312 10.5312 16.0312 10.6875 15.9688C10.875 15.875 11 15.7188 11 15.5V9.5C11 8.6875 10.3125 8 9.5 8H6.5C5.65625 8 5 8.6875 5 9.5Z" fill="black" fill-opacity="0.72"/>
</g>
<defs>
<clipPath id="clip0_2556_15167">
<rect width="16" height="24" fill="white"/>
</clipPath>
</defs>
</svg>
