<svg width="15" height="36" viewBox="0 0 15 36" fill="none" xmlns="http://www.w3.org/2000/svg">
<g id="label-paired / xl / three-xl / regular" clip-path="url(#clip0_2556_19601)">
<path id="icon" d="M0 8.25C0 7.875 0.328125 7.5 0.75 7.5H13.5C13.7812 7.5 14.0625 7.6875 14.1562 8.01562C14.2969 8.29688 14.2031 8.625 13.9688 8.8125L5.625 16.5H9C12.2812 16.5 15 19.2188 15 22.5C15 25.8281 12.2812 28.5 9 28.5H4.17188C2.48438 28.5 0.890625 27.5625 0.140625 26.0156L0.046875 25.875C-0.140625 25.5 0 25.0312 0.375 24.8438C0.75 24.6562 1.21875 24.7969 1.40625 25.1719L1.5 25.3594C2.01562 26.3906 3.04688 27 4.17188 27H9C11.4844 27 13.5 24.9844 13.5 22.5C13.5 20.0156 11.4844 18 9 18H3.75C3.42188 18 3.14062 17.8125 3.04688 17.5312C2.90625 17.25 3 16.9219 3.23438 16.7344L11.5781 9H0.75C0.328125 9 0 8.67188 0 8.25Z" fill="black" fill-opacity="0.72"/>
</g>
<defs>
<clipPath id="clip0_2556_19601">
<rect width="15" height="36" fill="white"/>
</clipPath>
</defs>
</svg>
