<svg width="16" height="24" viewBox="0 0 16 24" fill="none" xmlns="http://www.w3.org/2000/svg">
<g id="label-paired / md / fingerprint-md / fill" clip-path="url(#clip0_2512_1102)">
<path id="icon" d="M1.5 12V13.25C1.45833 13.7083 1.20833 13.9583 0.75 14C0.291667 13.9583 0.0416667 13.7083 0 13.25V12C0.0208333 10.5 0.385417 9.15625 1.09375 7.96875C1.80208 6.76042 2.76042 5.80208 3.96875 5.09375C5.15625 4.38542 6.5 4.02083 8 4C9.22917 4 10.3646 4.25 11.4062 4.75C12.4479 5.25 13.3333 5.92708 14.0625 6.78125C14.3333 7.15625 14.3125 7.51042 14 7.84375C13.625 8.11458 13.2708 8.09375 12.9375 7.78125C12.3333 7.07292 11.6042 6.52083 10.75 6.125C9.91667 5.70833 9 5.5 8 5.5C6.16667 5.54167 4.63542 6.17708 3.40625 7.40625C2.17708 8.63542 1.54167 10.1667 1.5 12ZM15.8438 10.3438C15.9479 10.8854 16 11.4375 16 12V13.25C15.9583 13.7083 15.7083 13.9583 15.25 14C14.7917 13.9583 14.5417 13.7083 14.5 13.25V12C14.5 11.5417 14.4583 11.0938 14.375 10.6562C14.3125 10.1979 14.5 9.90625 14.9375 9.78125C15.3958 9.71875 15.6979 9.90625 15.8438 10.3438ZM8 6.5C9.5625 6.54167 10.8646 7.08333 11.9062 8.125C12.9271 9.14583 13.4583 10.4375 13.5 12V12.7812C13.5 13.6562 13.4479 14.5208 13.3438 15.375C13.2604 15.7708 13.0208 15.9792 12.625 16C12.375 16 12.1875 15.9167 12.0625 15.75C11.9167 15.5833 11.8542 15.375 11.875 15.125C11.9583 14.3542 12 13.5729 12 12.7812V12C11.9792 10.875 11.5938 9.92708 10.8438 9.15625C10.0729 8.40625 9.125 8.02083 8 8C7.64583 8 7.30208 8.04167 6.96875 8.125C6.59375 8.22917 6.28125 8.15625 6.03125 7.90625C5.86458 7.69792 5.8125 7.47917 5.875 7.25C5.91667 7.02083 6.0625 6.86458 6.3125 6.78125C6.83333 6.59375 7.39583 6.5 8 6.5ZM4.71875 8.65625C4.94792 8.98958 4.94792 9.34375 4.71875 9.71875C4.26042 10.3854 4.02083 11.1458 4 12V12.7812C4 13.6771 3.89583 14.5729 3.6875 15.4688C3.58333 15.8021 3.35417 15.9792 3 16C2.75 16 2.55208 15.8958 2.40625 15.6875C2.26042 15.5 2.20833 15.2812 2.25 15.0312C2.41667 14.2812 2.5 13.5312 2.5 12.7812V12C2.52083 10.7083 2.90625 9.58333 3.65625 8.625C3.80208 8.45833 3.97917 8.375 4.1875 8.375C4.375 8.39583 4.55208 8.48958 4.71875 8.65625ZM8 9C8.85417 9.02083 9.5625 9.3125 10.125 9.875C10.6875 10.4375 10.9792 11.1458 11 12V12.7812C11 14.0312 10.875 15.2604 10.625 16.4688C10.5417 16.8021 10.3229 16.9792 9.96875 17C9.76042 17 9.58333 16.9167 9.4375 16.75C9.3125 16.5833 9.27083 16.3854 9.3125 16.1562C9.52083 15.0312 9.625 13.9062 9.625 12.7812V12C9.60417 11.5417 9.44792 11.1562 9.15625 10.8438C8.84375 10.5521 8.45833 10.3958 8 10.375C7.54167 10.3958 7.15625 10.5521 6.84375 10.8438C6.55208 11.1562 6.39583 11.5417 6.375 12V12.7812C6.375 14.0521 6.20833 15.3021 5.875 16.5312C5.77083 16.8229 5.5625 16.9792 5.25 17C5 17 4.8125 16.9062 4.6875 16.7188C4.5625 16.5312 4.52083 16.3229 4.5625 16.0938C4.85417 15.0104 5 13.9062 5 12.7812V12C5.02083 11.1458 5.3125 10.4375 5.875 9.875C6.4375 9.3125 7.14583 9.02083 8 9ZM8.75 12V12.7812C8.75 14.8438 8.375 16.8438 7.625 18.7812L7.4375 19.2812C7.25 19.6771 6.92708 19.8125 6.46875 19.6875C6.07292 19.5 5.9375 19.1771 6.0625 18.7188L6.25 18.25C6.91667 16.5 7.25 14.6771 7.25 12.7812V12C7.29167 11.5417 7.54167 11.2917 8 11.25C8.45833 11.2917 8.70833 11.5417 8.75 12Z" fill="black" fill-opacity="0.72"/>
</g>
<defs>
<clipPath id="clip0_2512_1102">
<rect width="16" height="24" fill="white"/>
</clipPath>
</defs>
</svg>
