<svg width="14" height="22" viewBox="0 0 14 22" fill="none" xmlns="http://www.w3.org/2000/svg">
<g id="label-paired / sm / circle-arrow-up-right-sm / regular" clip-path="url(#clip0_2556_12591)">
<path id="icon" d="M7 16.875C9.1875 16.875 11.1836 15.7266 12.2773 13.8125C13.3984 11.9258 13.3984 9.60156 12.2773 7.6875C11.1836 5.80078 9.1875 4.625 7 4.625C4.78516 4.625 2.78906 5.80078 1.69531 7.6875C0.574219 9.60156 0.574219 11.9258 1.69531 13.8125C2.78906 15.7266 4.78516 16.875 7 16.875ZM7 3.75C9.48828 3.75 11.7852 5.08984 13.043 7.25C14.3008 9.4375 14.3008 12.0898 13.043 14.25C11.7852 16.4375 9.48828 17.75 7 17.75C4.48438 17.75 2.1875 16.4375 0.929688 14.25C-0.328125 12.0898 -0.328125 9.4375 0.929688 7.25C2.1875 5.08984 4.48438 3.75 7 3.75ZM5.46875 8.125H9.1875C9.40625 8.125 9.625 8.34375 9.625 8.5625V12.5C9.625 12.7461 9.40625 12.9375 9.1875 12.9375C8.94141 12.9375 8.75 12.7461 8.75 12.5V9.62891L5.11328 13.2656C4.94922 13.4297 4.64844 13.4297 4.48438 13.2656C4.32031 13.1016 4.32031 12.8008 4.48438 12.6367L8.12109 9H5.46875C5.22266 9 5.03125 8.80859 5.03125 8.5625C5.03125 8.34375 5.22266 8.125 5.46875 8.125Z" fill="black" fill-opacity="0.72"/>
</g>
<defs>
<clipPath id="clip0_2556_12591">
<rect width="14" height="22" fill="white"/>
</clipPath>
</defs>
</svg>
