<svg width="6" height="22" viewBox="0 0 6 22" fill="none" xmlns="http://www.w3.org/2000/svg">
<g id="label-paired / sm / info-sm / regular" clip-path="url(#clip0_2556_12351)">
<path id="icon" d="M2.125 5.5C2.125 5.03516 2.50781 4.625 3 4.625C3.46484 4.625 3.875 5.03516 3.875 5.5C3.875 5.99219 3.46484 6.375 3 6.375C2.50781 6.375 2.125 5.99219 2.125 5.5ZM0.8125 8.5625C0.8125 8.34375 1.00391 8.125 1.25 8.125H3C3.21875 8.125 3.4375 8.34375 3.4375 8.5625V16H5.1875C5.40625 16 5.625 16.2188 5.625 16.4375C5.625 16.6836 5.40625 16.875 5.1875 16.875H0.8125C0.566406 16.875 0.375 16.6836 0.375 16.4375C0.375 16.2188 0.566406 16 0.8125 16H2.5625V9H1.25C1.00391 9 0.8125 8.80859 0.8125 8.5625Z" fill="black" fill-opacity="0.72"/>
</g>
<defs>
<clipPath id="clip0_2556_12351">
<rect width="6" height="22" fill="white"/>
</clipPath>
</defs>
</svg>
