<svg width="17" height="24" viewBox="0 0 17 24" fill="none" xmlns="http://www.w3.org/2000/svg">
<g id="label-paired / md / paper-plane-top-md / fill" clip-path="url(#clip0_2738_4393)">
<path id="icon" d="M2.03125 4.875L15.8438 10.875C16.8438 11.3125 16.8438 12.7188 15.8438 13.1562L2.03125 19.1562C0.96875 19.625 -0.125 18.4375 0.4375 17.4062L2.625 13.375C2.75 13.125 3 12.9375 3.3125 12.9062L8.8125 12.2188C8.90625 12.2188 9 12.125 9 12C9 11.9062 8.90625 11.8125 8.8125 11.8125L3.3125 11.125C3 11.0625 2.75 10.9062 2.625 10.6562L0.4375 6.625C-0.125 5.59375 0.96875 4.40625 2.03125 4.875Z" fill="black" fill-opacity="0.72"/>
</g>
<defs>
<clipPath id="clip0_2738_4393">
<rect width="17" height="24" fill="white"/>
</clipPath>
</defs>
</svg>
