<svg width="16" height="24" viewBox="0 0 16 24" fill="none" xmlns="http://www.w3.org/2000/svg">
<g id="label-paired / md / objects-align-left-md / regular" clip-path="url(#clip0_3431_849)">
<path id="icon" d="M0 4.5C0 4.25 0.21875 4 0.5 4C0.75 4 1 4.25 1 4.5V19.5C1 19.7812 0.75 20 0.5 20C0.21875 20 0 19.7812 0 19.5V4.5ZM5 9.5C5 9.78125 5.21875 10 5.5 10H14.5C14.75 10 15 9.78125 15 9.5V7.5C15 7.25 14.75 7 14.5 7H5.5C5.21875 7 5 7.25 5 7.5V9.5ZM4 7.5C4 6.6875 4.65625 6 5.5 6H14.5C15.3125 6 16 6.6875 16 7.5V9.5C16 10.3438 15.3125 11 14.5 11H5.5C4.65625 11 4 10.3438 4 9.5V7.5ZM5 16.5C5 16.7812 5.21875 17 5.5 17H10.5C10.75 17 11 16.7812 11 16.5V14.5C11 14.25 10.75 14 10.5 14H5.5C5.21875 14 5 14.25 5 14.5V16.5ZM4 14.5C4 13.6875 4.65625 13 5.5 13H10.5C11.3125 13 12 13.6875 12 14.5V16.5C12 17.3438 11.3125 18 10.5 18H5.5C4.65625 18 4 17.3438 4 16.5V14.5Z" fill="black" fill-opacity="0.72"/>
</g>
<defs>
<clipPath id="clip0_3431_849">
<rect width="16" height="24" fill="white"/>
</clipPath>
</defs>
</svg>
