<svg width="24" height="36" viewBox="0 0 24 36" fill="none" xmlns="http://www.w3.org/2000/svg">
<g id="label-paired / xl / circle-arrow-down-left-xl / fill" clip-path="url(#clip0_2556_19973)">
<path id="icon" d="M12 30C7.6875 30 3.75 27.75 1.59375 24C-0.5625 20.2969 -0.5625 15.75 1.59375 12C3.75 8.29688 7.6875 6 12 6C16.2656 6 20.2031 8.29688 22.3594 12C24.5156 15.75 24.5156 20.2969 22.3594 24C20.2031 27.75 16.2656 30 12 30ZM15 23.25C15.6094 23.25 16.125 22.7812 16.125 22.125C16.125 21.5156 15.6094 21 15 21H10.5469L16.9219 14.6719C17.3438 14.25 17.3438 13.5469 16.9219 13.125C16.4531 12.6562 15.75 12.6562 15.3281 13.125L9 19.4531V14.625C9 14.0156 8.48438 13.5 7.875 13.5C7.21875 13.5 6.75 14.0156 6.75 14.625V22.125C6.75 22.7812 7.21875 23.25 7.875 23.25H15Z" fill="black" fill-opacity="0.72"/>
</g>
<defs>
<clipPath id="clip0_2556_19973">
<rect width="24" height="36" fill="white"/>
</clipPath>
</defs>
</svg>
