<svg width="21" height="36" viewBox="0 0 21 36" fill="none" xmlns="http://www.w3.org/2000/svg">
<g id="label-paired / xl / arrow-down-to-bracket-xl / fill" clip-path="url(#clip0_2556_19834)">
<path id="icon" d="M17.5312 16.0781L11.5312 22.0781C10.9688 22.6875 9.98438 22.6875 9.42188 22.0781L3.42188 16.0781C2.8125 15.5156 2.8125 14.5312 3.42188 13.9688C3.98438 13.3594 4.96875 13.3594 5.53125 13.9688L9 17.3906V7.5C9 6.70312 9.65625 6 10.5 6C11.2969 6 12 6.70312 12 7.5V17.3906L15.4219 13.9688C15.9844 13.3594 16.9688 13.3594 17.5312 13.9688C18.1406 14.5312 18.1406 15.5156 17.5312 16.0781ZM3 22.5V25.5C3 26.3438 3.65625 27 4.5 27H16.5C17.2969 27 18 26.3438 18 25.5V22.5C18 21.7031 18.6562 21 19.5 21C20.2969 21 21 21.7031 21 22.5V25.5C21 27.9844 18.9844 30 16.5 30H4.5C2.01562 30 0 27.9844 0 25.5V22.5C0 21.7031 0.65625 21 1.5 21C2.29688 21 3 21.7031 3 22.5Z" fill="black" fill-opacity="0.72"/>
</g>
<defs>
<clipPath id="clip0_2556_19834">
<rect width="21" height="36" fill="white"/>
</clipPath>
</defs>
</svg>
