<svg width="27" height="36" viewBox="0 0 27 36" fill="none" xmlns="http://www.w3.org/2000/svg">
<g id="label-paired / xl / arrow-up-a-z-xl / fill" clip-path="url(#clip0_2556_19504)">
<path id="icon" d="M8.57812 8.01562L12.7031 12.5156C13.2656 13.125 13.2188 14.0625 12.6094 14.625C12 15.1875 11.0625 15.1406 10.5 14.5312L9 12.8906V27C9 27.8438 8.29688 28.5 7.5 28.5C6.65625 28.5 6 27.8438 6 27V12.8906L4.45312 14.5312C3.89062 15.1406 2.95312 15.1875 2.34375 14.625C1.73438 14.0625 1.6875 13.125 2.25 12.5156L6.375 8.01562C6.65625 7.6875 7.07812 7.5 7.5 7.5C7.92188 7.5 8.29688 7.6875 8.57812 8.01562ZM15 21C15 20.2031 15.6562 19.5 16.5 19.5H22.5C23.1094 19.5 23.625 19.875 23.8594 20.4375C24.0938 21 23.9531 21.6562 23.5312 22.0781L20.1094 25.5469H22.5C23.2969 25.5469 24 26.2031 24 27.0469C24 27.8438 23.2969 28.5469 22.5 28.5469H16.5C15.8906 28.5469 15.3281 28.1719 15.0938 27.6094C14.8594 27.0469 15 26.3906 15.4219 25.9688L18.8438 22.5H16.5C15.6562 22.5 15 21.8438 15 21ZM19.5 7.5C20.0625 7.5 20.5781 7.82812 20.8125 8.34375L23.8125 14.3438L24.5625 15.8438C24.9375 16.5938 24.6562 17.4844 23.9062 17.8594C23.1562 18.2344 22.2656 17.9531 21.8906 17.2031L21.5625 16.5H17.3906L17.0625 17.2031C16.6875 17.9531 15.7969 18.2344 15.0469 17.8594C14.2969 17.4844 14.0156 16.5938 14.3906 15.8438L15.1406 14.3438L18.1406 8.34375C18.375 7.82812 18.8906 7.5 19.5 7.5ZM18.5156 14.25H20.4375L19.5 12.375L18.5156 14.25Z" fill="black" fill-opacity="0.72"/>
</g>
<defs>
<clipPath id="clip0_2556_19504">
<rect width="27" height="36" fill="white"/>
</clipPath>
</defs>
</svg>
