<svg width="14" height="24" viewBox="0 0 14 24" fill="none" xmlns="http://www.w3.org/2000/svg">
<g id="label-paired / md / memo-pad-md / regular" clip-path="url(#clip0_2981_836)">
<path id="icon" d="M1 8V18C1 18.5625 1.4375 19 2 19H12C12.5312 19 13 18.5625 13 18V8H1ZM1 7H13V6C13 5.46875 12.5312 5 12 5H2C1.4375 5 1 5.46875 1 6V7ZM14 6V7V7.5V8V18C14 19.125 13.0938 20 12 20H2C0.875 20 0 19.125 0 18V8V7.5V7V6C0 4.90625 0.875 4 2 4H12C13.0938 4 14 4.90625 14 6ZM3.5 10H10.5C10.75 10 11 10.25 11 10.5C11 10.7812 10.75 11 10.5 11H3.5C3.21875 11 3 10.7812 3 10.5C3 10.25 3.21875 10 3.5 10ZM3.5 13H10.5C10.75 13 11 13.25 11 13.5C11 13.7812 10.75 14 10.5 14H3.5C3.21875 14 3 13.7812 3 13.5C3 13.25 3.21875 13 3.5 13ZM3.5 16H7.5C7.75 16 8 16.25 8 16.5C8 16.7812 7.75 17 7.5 17H3.5C3.21875 17 3 16.7812 3 16.5C3 16.25 3.21875 16 3.5 16Z" fill="black" fill-opacity="0.72"/>
</g>
<defs>
<clipPath id="clip0_2981_836">
<rect width="14" height="24" fill="white"/>
</clipPath>
</defs>
</svg>
