<svg width="15" height="18" viewBox="0 0 15 18" fill="none" xmlns="http://www.w3.org/2000/svg">
<g id="label-paired / caption / hand-gesture-tap-left-caption / fill" clip-path="url(#clip0_3546_692)">
<path id="icon" d="M4.75781 7.97656C5.0625 7.83594 5.41406 7.97656 5.55469 8.25781L6.49219 10.2266C6.53906 10.0625 6.65625 9.94531 6.82031 9.85156C7.14844 9.71094 7.54688 9.82812 7.73438 10.1562C7.80469 9.99219 7.92188 9.85156 8.08594 9.78125C8.41406 9.61719 8.8125 9.75781 8.97656 10.0859C9.04688 9.92188 9.16406 9.78125 9.35156 9.6875C9.67969 9.52344 10.125 9.6875 10.2891 10.0391L10.875 11.3047C11.3203 12.2422 10.9219 13.3672 9.98438 13.7891L8.41406 14.5391C7.92188 14.7734 7.35938 14.8438 6.84375 14.7031L6.75 14.6797C6.1875 14.5391 5.74219 14.1641 5.50781 13.6484L5.27344 13.1562C5.15625 12.8984 5.15625 12.6172 5.27344 12.3594L5.41406 12.0312C5.4375 12.0078 5.46094 11.9609 5.48438 11.9375L5.8125 12.6641C5.88281 12.7812 6.02344 12.8281 6.14062 12.7812C6.23438 12.7344 6.30469 12.5938 6.23438 12.4766L4.47656 8.75C4.33594 8.46875 4.45312 8.11719 4.75781 7.97656ZM6.25781 8.96094C6.375 8.75 6.44531 8.49219 6.44531 8.23438C6.44531 7.41406 5.76562 6.73438 4.94531 6.73438C4.125 6.73438 3.44531 7.41406 3.44531 8.23438C3.44531 8.91406 3.89062 9.5 4.52344 9.6875L4.17188 8.96094C3.96094 8.49219 4.14844 7.92969 4.61719 7.69531C5.08594 7.48438 5.64844 7.69531 5.88281 8.14062L6.25781 8.96094ZM2.69531 4.25C2.92969 4.25 3.14062 4.46094 3.14062 4.71875V14.3047C3.14062 14.5625 2.92969 14.75 2.69531 14.75C2.4375 14.75 2.25 14.5625 2.25 14.3047V4.71875C2.25 4.46094 2.4375 4.25 2.69531 4.25Z" fill="black" fill-opacity="0.72"/>
</g>
<defs>
<clipPath id="clip0_3546_692">
<rect width="15" height="18" fill="white"/>
</clipPath>
</defs>
</svg>
