<svg width="14" height="22" viewBox="0 0 14 22" fill="none" xmlns="http://www.w3.org/2000/svg">
<g id="label-paired / sm / circle-info-sm / bold" clip-path="url(#clip0_2556_12348)">
<path id="icon" d="M7 5.0625C4.94922 5.0625 3.08984 6.15625 2.05078 7.90625C1.03906 9.68359 1.03906 11.8438 2.05078 13.5938C3.08984 15.3711 4.94922 16.4375 7 16.4375C9.02344 16.4375 10.8828 15.3711 11.9219 13.5938C12.9336 11.8438 12.9336 9.68359 11.9219 7.90625C10.8828 6.15625 9.02344 5.0625 7 5.0625ZM7 17.75C4.48438 17.75 2.1875 16.4375 0.929688 14.25C-0.328125 12.0898 -0.328125 9.4375 0.929688 7.25C2.1875 5.08984 4.48438 3.75 7 3.75C9.48828 3.75 11.7852 5.08984 13.043 7.25C14.3008 9.4375 14.3008 12.0898 13.043 14.25C11.7852 16.4375 9.48828 17.75 7 17.75ZM5.90625 12.9375H6.5625V11.1875H5.90625C5.52344 11.1875 5.25 10.9141 5.25 10.5312C5.25 10.1758 5.52344 9.875 5.90625 9.875H7.21875C7.57422 9.875 7.875 10.1758 7.875 10.5312V12.9375H8.09375C8.44922 12.9375 8.75 13.2383 8.75 13.5938C8.75 13.9766 8.44922 14.25 8.09375 14.25H5.90625C5.52344 14.25 5.25 13.9766 5.25 13.5938C5.25 13.2383 5.52344 12.9375 5.90625 12.9375ZM7 9C6.50781 9 6.125 8.61719 6.125 8.125C6.125 7.66016 6.50781 7.25 7 7.25C7.46484 7.25 7.875 7.66016 7.875 8.125C7.875 8.61719 7.46484 9 7 9Z" fill="black" fill-opacity="0.72"/>
</g>
<defs>
<clipPath id="clip0_2556_12348">
<rect width="14" height="22" fill="white"/>
</clipPath>
</defs>
</svg>
