<svg width="14" height="22" viewBox="0 0 14 22" fill="none" xmlns="http://www.w3.org/2000/svg">
<g id="label-paired / sm / clone-sm / fill" clip-path="url(#clip0_2556_12460)">
<path id="icon" d="M7.875 16V14.25H9.625V16C9.625 16.9844 8.83203 17.75 7.875 17.75H1.75C0.765625 17.75 0 16.9844 0 16V9.875C0 8.91797 0.765625 8.125 1.75 8.125H3.5V9.875H1.75V16H7.875ZM6.125 13.375C5.14062 13.375 4.375 12.6094 4.375 11.625V5.5C4.375 4.54297 5.14062 3.75 6.125 3.75H12.25C13.207 3.75 14 4.54297 14 5.5V11.625C14 12.6094 13.207 13.375 12.25 13.375H6.125Z" fill="black" fill-opacity="0.72"/>
</g>
<defs>
<clipPath id="clip0_2556_12460">
<rect width="14" height="22" fill="white"/>
</clipPath>
</defs>
</svg>
