<svg width="14" height="24" viewBox="0 0 14 24" fill="none" xmlns="http://www.w3.org/2000/svg">
<g id="label-paired / md / image-polaroid-user-md / fill" clip-path="url(#clip0_2556_14675)">
<path id="icon" d="M0 7C0 5.90625 0.875 5 2 5H12C13.0938 5 14 5.90625 14 7V17C14 18.125 13.0938 19 12 19H2C0.875 19 0 18.125 0 17V7ZM2 8V14C2 14.5625 2.4375 15 3 15H3.5C3.5 13.9062 4.375 13 5.5 13H8.5C9.59375 13 10.5 13.9062 10.5 15H11C11.5312 15 12 14.5625 12 14V8C12 7.46875 11.5312 7 11 7H3C2.4375 7 2 7.46875 2 8ZM5 10C5 9.3125 5.375 8.65625 6 8.28125C6.59375 7.9375 7.375 7.9375 8 8.28125C8.59375 8.65625 9 9.3125 9 10C9 10.7188 8.59375 11.375 8 11.75C7.375 12.0938 6.59375 12.0938 6 11.75C5.375 11.375 5 10.7188 5 10Z" fill="black" fill-opacity="0.72"/>
</g>
<defs>
<clipPath id="clip0_2556_14675">
<rect width="14" height="24" fill="white"/>
</clipPath>
</defs>
</svg>
