<svg width="16" height="24" viewBox="0 0 16 24" fill="none" xmlns="http://www.w3.org/2000/svg">
<g id="label-paired / md / phone-md / regular" clip-path="url(#clip0_2556_15280)">
<path id="icon" d="M11.7188 12.625L15.2188 14.125C15.7812 14.3438 16.0938 14.9375 15.9688 15.5312L15.2188 19.0312C15.0938 19.5938 14.5938 20.0312 14 20.0312C13.7812 20.0312 13.5938 20 13.4062 20C13.2812 20 13.125 20 13 19.9688C5.71875 19.4688 0 13.4062 0 6C0 5.4375 0.40625 4.90625 0.96875 4.78125L4.46875 4.03125C5.0625 3.90625 5.65625 4.21875 5.875 4.78125L7.375 8.28125C7.59375 8.78125 7.46875 9.375 7.03125 9.71875L5.75 10.7812C6.59375 12.2188 7.78125 13.4062 9.21875 14.25L10.2812 12.9688C10.625 12.5312 11.2188 12.4062 11.7188 12.625ZM13.9688 19C14.0938 19 14.1875 18.9375 14.2188 18.8125L14.9688 15.3125C15 15.1875 14.9375 15.0938 14.8438 15.0312L11.3438 13.5312C11.2188 13.5 11.125 13.5312 11.0312 13.5938L10 14.875C9.6875 15.25 9.15625 15.3438 8.71875 15.0938C7.125 14.1875 5.8125 12.875 4.90625 11.2812C4.65625 10.8438 4.75 10.3125 5.125 10L6.40625 8.96875C6.46875 8.875 6.5 8.78125 6.46875 8.65625L4.96875 5.15625C4.90625 5.0625 4.8125 5 4.6875 5.03125L1.1875 5.78125C1.0625 5.78125 1 5.90625 1 6C1 13.1875 6.8125 19 13.9688 19Z" fill="black" fill-opacity="0.72"/>
</g>
<defs>
<clipPath id="clip0_2556_15280">
<rect width="16" height="24" fill="white"/>
</clipPath>
</defs>
</svg>
