<svg width="9" height="18" viewBox="0 0 9 18" fill="none" xmlns="http://www.w3.org/2000/svg">
<g id="label-paired / caption / arrow-up-caption / bold" clip-path="url(#clip0_2556_10411)">
<path id="icon" d="M4.89844 4.4375L8.83594 8.5625C9.04688 8.79688 9.04688 9.14844 8.8125 9.35938C8.57812 9.57031 8.22656 9.57031 8.01562 9.33594L5.0625 6.21875V14.1875C5.0625 14.5156 4.80469 14.75 4.5 14.75C4.17188 14.75 3.9375 14.5156 3.9375 14.1875V6.21875L0.960938 9.33594C0.75 9.57031 0.398438 9.57031 0.164062 9.35938C-0.0703125 9.14844 -0.0703125 8.77344 0.140625 8.5625L4.07812 4.4375C4.19531 4.32031 4.33594 4.25 4.5 4.25C4.64062 4.25 4.78125 4.32031 4.89844 4.4375Z" fill="black" fill-opacity="0.72"/>
</g>
<defs>
<clipPath id="clip0_2556_10411">
<rect width="9" height="18" fill="white"/>
</clipPath>
</defs>
</svg>
