<svg width="24" height="36" viewBox="0 0 24 36" fill="none" xmlns="http://www.w3.org/2000/svg">
<g id="label-paired / xl / loader-xl / fill" clip-path="url(#clip0_2981_923)">
<path id="icon" d="M13.5 7.5V10.5C13.5 11.3438 12.7969 12 12 12C11.1562 12 10.5 11.3438 10.5 10.5V7.5C10.5 6.70312 11.1562 6 12 6C12.7969 6 13.5 6.70312 13.5 7.5ZM13.5 25.5V28.5C13.5 29.3438 12.7969 30 12 30C11.1562 30 10.5 29.3438 10.5 28.5V25.5C10.5 24.7031 11.1562 24 12 24C12.7969 24 13.5 24.7031 13.5 25.5ZM0 18C0 17.2031 0.65625 16.5 1.5 16.5H4.5C5.29688 16.5 6 17.2031 6 18C6 18.8438 5.29688 19.5 4.5 19.5H1.5C0.65625 19.5 0 18.8438 0 18ZM19.5 16.5H22.5C23.2969 16.5 24 17.2031 24 18C24 18.8438 23.2969 19.5 22.5 19.5H19.5C18.6562 19.5 18 18.8438 18 18C18 17.2031 18.6562 16.5 19.5 16.5ZM3.51562 9.51562C4.07812 8.95312 5.01562 8.95312 5.625 9.51562L7.73438 11.6719C8.34375 12.2344 8.34375 13.2188 7.73438 13.7812C7.17188 14.3906 6.1875 14.3906 5.625 13.7812L3.51562 11.6719C2.90625 11.0625 2.90625 10.125 3.51562 9.51562ZM18.3281 22.2656L20.4844 24.375C21.0469 24.9844 21.0469 25.9219 20.4844 26.4844C19.875 27.0938 18.9375 27.0938 18.3281 26.4844L16.2188 24.375C15.6562 23.8125 15.6562 22.8281 16.2188 22.2656C16.8281 21.6562 17.7656 21.6562 18.3281 22.2656ZM3.51562 26.4844V26.5312C2.90625 25.9219 2.90625 24.9844 3.51562 24.375L5.625 22.2656C6.1875 21.6562 7.17188 21.6562 7.73438 22.2656C8.34375 22.8281 8.34375 23.8125 7.73438 24.375L5.625 26.4844C5.01562 27.0938 4.07812 27.0938 3.51562 26.4844ZM16.2188 11.6719L18.3281 9.51562C18.9375 8.95312 19.875 8.95312 20.4844 9.51562C21.0469 10.125 21.0469 11.0625 20.4844 11.6719L18.3281 13.7812C17.7656 14.3438 16.8281 14.3438 16.2188 13.7812C15.6562 13.1719 15.6562 12.2344 16.2188 11.6719Z" fill="black" fill-opacity="0.72"/>
</g>
<defs>
<clipPath id="clip0_2981_923">
<rect width="24" height="36" fill="white"/>
</clipPath>
</defs>
</svg>
