<svg width="14" height="22" viewBox="0 0 14 22" fill="none" xmlns="http://www.w3.org/2000/svg">
<g id="label-paired / sm / arrow-up-right-from-square-sm / regular" clip-path="url(#clip0_2556_12859)">
<path id="icon" d="M9.1875 3.75H13.5625C13.7812 3.75 14 3.96875 14 4.1875V8.5625C14 8.80859 13.7812 9 13.5625 9C13.3164 9 13.125 8.80859 13.125 8.5625V5.25391L6.42578 11.9531C6.26172 12.1172 5.96094 12.1172 5.79688 11.9531C5.63281 11.7891 5.63281 11.4883 5.79688 11.3242L12.4961 4.625H9.1875C8.94141 4.625 8.75 4.43359 8.75 4.1875C8.75 3.96875 8.94141 3.75 9.1875 3.75ZM1.75 4.625H5.6875C5.90625 4.625 6.125 4.84375 6.125 5.0625C6.125 5.30859 5.90625 5.5 5.6875 5.5H1.75C1.25781 5.5 0.875 5.91016 0.875 6.375V16C0.875 16.4922 1.25781 16.875 1.75 16.875H11.375C11.8398 16.875 12.25 16.4922 12.25 16V12.0625C12.25 11.8438 12.4414 11.625 12.6875 11.625C12.9062 11.625 13.125 11.8438 13.125 12.0625V16C13.125 16.9844 12.332 17.75 11.375 17.75H1.75C0.765625 17.75 0 16.9844 0 16V6.375C0 5.41797 0.765625 4.625 1.75 4.625Z" fill="black" fill-opacity="0.72"/>
</g>
<defs>
<clipPath id="clip0_2556_12859">
<rect width="14" height="22" fill="white"/>
</clipPath>
</defs>
</svg>
