<svg width="20" height="30" viewBox="0 0 20 30" fill="none" xmlns="http://www.w3.org/2000/svg">
<g id="label-paired / lg / circle-arrow-left-lg / bold" clip-path="url(#clip0_2556_17367)">
<path id="icon" d="M1.875 15.5C1.875 18.4297 3.39844 21.0859 5.9375 22.5703C8.4375 24.0156 11.5234 24.0156 14.0625 22.5703C16.5625 21.0859 18.125 18.4297 18.125 15.5C18.125 12.6094 16.5625 9.95312 14.0625 8.46875C11.5234 7.02344 8.4375 7.02344 5.9375 8.46875C3.39844 9.95312 1.875 12.6094 1.875 15.5ZM20 15.5C20 19.0938 18.0859 22.375 15 24.1719C11.875 25.9688 8.08594 25.9688 5 24.1719C1.875 22.375 0 19.0938 0 15.5C0 11.9453 1.875 8.66406 5 6.86719C8.08594 5.07031 11.875 5.07031 15 6.86719C18.0859 8.66406 20 11.9453 20 15.5ZM8.71094 11.3984V11.4375C9.0625 11.0469 9.64844 11.0469 10 11.4375C10.3906 11.7891 10.3906 12.375 10 12.7266L8.16406 14.5625H14.0625C14.5703 14.5625 15 14.9922 15 15.5C15 16.0469 14.5703 16.4375 14.0625 16.4375H8.16406L10 18.2734C10.3906 18.6641 10.3906 19.25 10 19.6016C9.64844 19.9922 9.0625 19.9922 8.71094 19.6016L5.27344 16.1641C4.88281 15.8125 4.88281 15.2266 5.27344 14.8359L8.71094 11.3984Z" fill="black" fill-opacity="0.72"/>
</g>
<defs>
<clipPath id="clip0_2556_17367">
<rect width="20" height="30" fill="white"/>
</clipPath>
</defs>
</svg>
