<svg width="14" height="22" viewBox="0 0 14 22" fill="none" xmlns="http://www.w3.org/2000/svg">
<g id="label-paired / sm / circle-euro-sm / bold" clip-path="url(#clip0_2556_12313)">
<path id="icon" d="M12.6875 10.75C12.6875 8.72656 11.5938 6.86719 9.84375 5.82812C8.06641 4.81641 5.90625 4.81641 4.15625 5.82812C2.37891 6.86719 1.3125 8.72656 1.3125 10.75C1.3125 12.8008 2.37891 14.6602 4.15625 15.6992C5.90625 16.7109 8.06641 16.7109 9.84375 15.6992C11.5938 14.6602 12.6875 12.8008 12.6875 10.75ZM0 10.75C0 8.26172 1.3125 5.96484 3.5 4.70703C5.66016 3.44922 8.3125 3.44922 10.5 4.70703C12.6602 5.96484 14 8.26172 14 10.75C14 13.2656 12.6602 15.5625 10.5 16.8203C8.3125 18.0781 5.66016 18.0781 3.5 16.8203C1.3125 15.5625 0 13.2656 0 10.75ZM3.5 11.1875H3.9375C3.91016 11.0508 3.91016 10.9141 3.91016 10.7773C3.91016 10.6406 3.91016 10.4766 3.9375 10.3125H3.5C3.25391 10.3125 3.0625 10.1211 3.0625 9.875C3.0625 9.65625 3.25391 9.4375 3.5 9.4375H4.15625C4.67578 8.17969 5.96094 7.25 7.41016 7.25H8.55859C8.91406 7.25 9.21484 7.55078 9.21484 7.90625C9.21484 8.28906 8.91406 8.5625 8.55859 8.5625H7.41016C6.69922 8.5625 6.07031 8.91797 5.66016 9.4375H7.875C8.09375 9.4375 8.3125 9.65625 8.3125 9.875C8.3125 10.1211 8.09375 10.3125 7.875 10.3125H5.25C5.22266 10.4766 5.22266 10.6133 5.22266 10.7773C5.22266 10.9141 5.22266 11.0781 5.25 11.1875H7.875C8.09375 11.1875 8.3125 11.4062 8.3125 11.625C8.3125 11.8711 8.09375 12.0625 7.875 12.0625H5.63281C6.04297 12.6367 6.67188 12.9922 7.41016 12.9922H8.55859C8.91406 12.9922 9.21484 13.293 9.21484 13.6484C9.21484 14.0039 8.91406 14.3047 8.55859 14.3047H7.41016C5.93359 14.3047 4.64844 13.375 4.15625 12.0625H3.5C3.25391 12.0625 3.0625 11.8711 3.0625 11.625C3.0625 11.4062 3.25391 11.1875 3.5 11.1875Z" fill="black" fill-opacity="0.72"/>
</g>
<defs>
<clipPath id="clip0_2556_12313">
<rect width="14" height="22" fill="white"/>
</clipPath>
</defs>
</svg>
