<svg width="13" height="22" viewBox="0 0 13 22" fill="none" xmlns="http://www.w3.org/2000/svg">
<g id="label-paired / sm / trash-sm / bold" clip-path="url(#clip0_2556_12932)">
<path id="icon" d="M5.21484 5.0625C5.13281 5.0625 5.07812 5.11719 5.02344 5.17188L4.50391 5.9375H8.46875L7.94922 5.17188C7.92188 5.11719 7.83984 5.0625 7.75781 5.0625H5.21484ZM10.0547 5.9375H10.4102H11.75H11.9688C12.3242 5.9375 12.625 6.23828 12.625 6.59375C12.625 6.97656 12.3242 7.25 11.9688 7.25H11.6406L10.9844 16.1367C10.9023 17.0664 10.1641 17.75 9.23438 17.75H3.73828C2.80859 17.75 2.07031 17.0664 1.98828 16.1367L1.33203 7.25H1.03125C0.648438 7.25 0.375 6.97656 0.375 6.59375C0.375 6.23828 0.648438 5.9375 1.03125 5.9375H1.25H2.5625H2.91797L3.92969 4.43359C4.20312 4.02344 4.69531 3.75 5.21484 3.75H7.75781C8.27734 3.75 8.76953 4.02344 9.04297 4.43359L10.0547 5.9375ZM10.3281 7.25H2.64453L3.30078 16.0547C3.32812 16.2734 3.51953 16.4375 3.73828 16.4375H9.23438C9.45312 16.4375 9.64453 16.2734 9.67188 16.0547L10.3281 7.25Z" fill="black" fill-opacity="0.72"/>
</g>
<defs>
<clipPath id="clip0_2556_12932">
<rect width="13" height="22" fill="white"/>
</clipPath>
</defs>
</svg>
