<svg width="15" height="36" viewBox="0 0 15 36" fill="none" xmlns="http://www.w3.org/2000/svg">
<g id="label-paired / xl / question-xl / bold" clip-path="url(#clip0_3578_663)">
<path id="icon" d="M3 13.5C3 14.1562 2.48438 14.625 1.875 14.625C1.21875 14.625 0.75 14.1562 0.75 13.5C0.75 10.2188 3.42188 7.5 6.70312 7.54688H8.20312C11.5312 7.54688 14.2031 10.2188 14.2031 13.5469V13.7344C14.2031 15.6094 13.2656 17.3906 11.7188 18.4219L9.28125 20.0625C8.85938 20.3438 8.625 20.8125 8.625 21.2812V21.375C8.625 22.0312 8.10938 22.5 7.5 22.5C6.84375 22.5 6.375 22.0312 6.375 21.375V21.2812C6.375 20.0625 6.98438 18.8906 8.01562 18.1875L10.4531 16.5469C11.4375 15.9375 12 14.8594 12 13.7344V13.5C12 11.4375 10.3125 9.75 8.25 9.75H6.75C4.64062 9.75 3 11.4375 3 13.5ZM7.5 28.5C6.65625 28.5 6 27.8438 6 27C6 26.2031 6.65625 25.5 7.5 25.5C8.29688 25.5 9 26.2031 9 27C9 27.8438 8.29688 28.5 7.5 28.5Z" fill="black" fill-opacity="0.72"/>
</g>
<defs>
<clipPath id="clip0_3578_663">
<rect width="15" height="36" fill="white"/>
</clipPath>
</defs>
</svg>
