<svg width="9" height="18" viewBox="0 0 9 18" fill="none" xmlns="http://www.w3.org/2000/svg">
<g id="label-paired / caption / location-dot-caption / regular" clip-path="url(#clip0_2556_10076)">
<path id="icon" d="M8.25 8C8.25 5.9375 6.5625 4.25 4.5 4.25C2.41406 4.25 0.75 5.9375 0.75 8C0.75 8.375 0.867188 8.86719 1.125 9.5C1.38281 10.1094 1.73438 10.7656 2.15625 11.4219C2.95312 12.7109 3.89062 13.9531 4.5 14.7031C5.08594 13.9531 6.02344 12.7109 6.84375 11.4219C7.24219 10.7656 7.59375 10.1094 7.85156 9.5C8.10938 8.86719 8.25 8.375 8.25 8ZM9 8C9 10.0625 6.25781 13.6953 5.03906 15.2188C4.75781 15.5703 4.21875 15.5703 3.9375 15.2188C2.74219 13.6953 0 10.0625 0 8C0 5.51562 2.01562 3.5 4.5 3.5C6.98438 3.5 9 5.51562 9 8ZM3.375 8C3.375 8.42188 3.58594 8.77344 3.9375 8.98438C4.26562 9.19531 4.71094 9.19531 5.0625 8.98438C5.39062 8.77344 5.625 8.42188 5.625 8C5.625 7.60156 5.39062 7.25 5.0625 7.03906C4.71094 6.82812 4.26562 6.82812 3.9375 7.03906C3.58594 7.25 3.375 7.60156 3.375 8ZM4.5 9.875C3.82031 9.875 3.21094 9.52344 2.85938 8.9375C2.53125 8.375 2.53125 7.64844 2.85938 7.0625C3.21094 6.5 3.82031 6.125 4.5 6.125C5.15625 6.125 5.76562 6.5 6.11719 7.0625C6.44531 7.64844 6.44531 8.375 6.11719 8.9375C5.76562 9.52344 5.15625 9.875 4.5 9.875Z" fill="black" fill-opacity="0.72"/>
</g>
<defs>
<clipPath id="clip0_2556_10076">
<rect width="9" height="18" fill="white"/>
</clipPath>
</defs>
</svg>
