<svg width="9" height="18" viewBox="0 0 9 18" fill="none" xmlns="http://www.w3.org/2000/svg">
<g id="label-paired / caption / file-excel-caption / regular" clip-path="url(#clip0_2556_10366)">
<path id="icon" d="M7.5 14.75C7.89844 14.75 8.25 14.4219 8.25 14V8H5.625C4.99219 8 4.5 7.50781 4.5 6.875V4.25H1.5C1.07812 4.25 0.75 4.60156 0.75 5V14C0.75 14.4219 1.07812 14.75 1.5 14.75H7.5ZM5.625 7.25H8.22656C8.20312 7.20312 8.17969 7.13281 8.13281 7.08594L5.41406 4.36719C5.36719 4.32031 5.29688 4.29688 5.25 4.27344V6.875C5.25 7.08594 5.41406 7.25 5.625 7.25ZM1.5 3.5H5.15625C5.4375 3.5 5.74219 3.64062 5.95312 3.85156L8.64844 6.54688C8.85938 6.75781 9 7.0625 9 7.34375V14C9 14.8438 8.32031 15.5 7.5 15.5H1.5C0.65625 15.5 0 14.8438 0 14V5C0 4.17969 0.65625 3.5 1.5 3.5ZM3.49219 9.28906L4.5 10.7422L5.48438 9.28906C5.625 9.125 5.85938 9.07812 6.02344 9.19531C6.1875 9.3125 6.23438 9.54688 6.11719 9.73438L4.94531 11.375L6.11719 13.0391C6.23438 13.2266 6.1875 13.4375 6.02344 13.5781C5.83594 13.6953 5.625 13.6484 5.48438 13.4844L4.5 12.0312L3.49219 13.4844C3.375 13.6484 3.14062 13.6953 2.95312 13.5781C2.78906 13.4375 2.74219 13.2031 2.85938 13.0391L4.03125 11.375L2.85938 9.73438C2.74219 9.54688 2.78906 9.3125 2.95312 9.19531C3.14062 9.07812 3.375 9.125 3.49219 9.28906Z" fill="black" fill-opacity="0.72"/>
</g>
<defs>
<clipPath id="clip0_2556_10366">
<rect width="9" height="18" fill="white"/>
</clipPath>
</defs>
</svg>
