<svg width="20" height="30" viewBox="0 0 20 30" fill="none" xmlns="http://www.w3.org/2000/svg">
<g id="label-paired / lg / circle-arrow-right-lg / regular" clip-path="url(#clip0_2556_17374)">
<path id="icon" d="M18.75 15.5C18.75 12.375 17.0703 9.52344 14.375 7.96094C11.6406 6.35938 8.32031 6.35938 5.625 7.96094C2.89062 9.52344 1.25 12.375 1.25 15.5C1.25 18.6641 2.89062 21.5156 5.625 23.0781C8.32031 24.6797 11.6406 24.6797 14.375 23.0781C17.0703 21.5156 18.75 18.6641 18.75 15.5ZM0 15.5C0 11.9453 1.875 8.66406 5 6.86719C8.08594 5.07031 11.875 5.07031 15 6.86719C18.0859 8.66406 20 11.9453 20 15.5C20 19.0938 18.0859 22.375 15 24.1719C11.875 25.9688 8.08594 25.9688 5 24.1719C1.875 22.375 0 19.0938 0 15.5ZM11.0547 19.7188C10.8203 19.9531 10.3906 19.9531 10.1562 19.7188C9.92188 19.4844 9.92188 19.0547 10.1562 18.8203L12.8516 16.125H5.625C5.27344 16.125 5 15.8516 5 15.5C5 15.1875 5.27344 14.875 5.625 14.875H12.8516L10.1562 12.2188C9.92188 11.9844 9.92188 11.5547 10.1562 11.3203C10.3906 11.0859 10.8203 11.0859 11.0547 11.3203L14.8047 15.0703C15.0391 15.3047 15.0391 15.7344 14.8047 15.9688L11.0547 19.7188Z" fill="black" fill-opacity="0.72"/>
</g>
<defs>
<clipPath id="clip0_2556_17374">
<rect width="20" height="30" fill="white"/>
</clipPath>
</defs>
</svg>
