<svg width="14" height="22" viewBox="0 0 14 22" fill="none" xmlns="http://www.w3.org/2000/svg">
<g id="label-paired / sm / circle-trash-sm / regular" clip-path="url(#clip0_2556_12883)">
<path id="icon" d="M13.125 10.75C13.125 8.5625 11.9492 6.56641 10.0625 5.47266C8.14844 4.35156 5.82422 4.35156 3.9375 5.47266C2.02344 6.56641 0.875 8.5625 0.875 10.75C0.875 12.9648 2.02344 14.9609 3.9375 16.0547C5.82422 17.1758 8.14844 17.1758 10.0625 16.0547C11.9492 14.9609 13.125 12.9648 13.125 10.75ZM0 10.75C0 8.26172 1.3125 5.96484 3.5 4.70703C5.66016 3.44922 8.3125 3.44922 10.5 4.70703C12.6602 5.96484 14 8.26172 14 10.75C14 13.2656 12.6602 15.5625 10.5 16.8203C8.3125 18.0781 5.66016 18.0781 3.5 16.8203C1.3125 15.5625 0 13.2656 0 10.75ZM4.375 7.6875H5.25H5.49609L5.79688 7.38672C5.87891 7.30469 5.98828 7.25 6.125 7.25H7.875C7.98438 7.25 8.09375 7.30469 8.17578 7.38672L8.47656 7.6875H8.72266H9.625C9.84375 7.6875 10.0625 7.90625 10.0625 8.125C10.0625 8.37109 9.84375 8.5625 9.625 8.5625H9.54297L9.24219 13.457C9.1875 13.8945 8.80469 14.25 8.36719 14.25H5.60547C5.16797 14.25 4.78516 13.8945 4.75781 13.457L4.42969 8.5625H4.375C4.12891 8.5625 3.9375 8.37109 3.9375 8.125C3.9375 7.90625 4.12891 7.6875 4.375 7.6875ZM8.66797 8.5625H5.30469L5.60547 13.375H8.36719L8.66797 8.5625Z" fill="black" fill-opacity="0.72"/>
</g>
<defs>
<clipPath id="clip0_2556_12883">
<rect width="14" height="22" fill="white"/>
</clipPath>
</defs>
</svg>
