<svg width="12" height="18" viewBox="0 0 12 18" fill="none" xmlns="http://www.w3.org/2000/svg">
<g id="label-paired / caption / circle-one-caption / regular" clip-path="url(#clip0_2556_10265)">
<path id="icon" d="M11.25 9.5C11.25 7.625 10.2422 5.91406 8.625 4.97656C6.98438 4.01562 4.99219 4.01562 3.375 4.97656C1.73438 5.91406 0.75 7.625 0.75 9.5C0.75 11.3984 1.73438 13.1094 3.375 14.0469C4.99219 15.0078 6.98438 15.0078 8.625 14.0469C10.2422 13.1094 11.25 11.3984 11.25 9.5ZM0 9.5C0 7.36719 1.125 5.39844 3 4.32031C4.85156 3.24219 7.125 3.24219 9 4.32031C10.8516 5.39844 12 7.36719 12 9.5C12 11.6562 10.8516 13.625 9 14.7031C7.125 15.7812 4.85156 15.7812 3 14.7031C1.125 13.625 0 11.6562 0 9.5ZM6.1875 6.57031C6.28125 6.64062 6.375 6.75781 6.375 6.875V11.75H7.5C7.6875 11.75 7.875 11.9375 7.875 12.125C7.875 12.3359 7.6875 12.5 7.5 12.5H6H4.5C4.28906 12.5 4.125 12.3359 4.125 12.125C4.125 11.9375 4.28906 11.75 4.5 11.75H5.625V7.53125L4.85156 7.95312C4.6875 8.07031 4.45312 8 4.35938 7.8125C4.24219 7.64844 4.3125 7.41406 4.5 7.32031L5.8125 6.57031C5.92969 6.5 6.07031 6.5 6.1875 6.57031Z" fill="black" fill-opacity="0.72"/>
</g>
<defs>
<clipPath id="clip0_2556_10265">
<rect width="12" height="18" fill="white"/>
</clipPath>
</defs>
</svg>
