<svg width="13" height="22" viewBox="0 0 13 22" fill="none" xmlns="http://www.w3.org/2000/svg">
<g id="label-paired / sm / app-store-ios-sm" clip-path="url(#clip0_2556_12222)">
<path id="icon" d="M11.3125 4.625C12.0234 4.625 12.625 5.22656 12.625 5.9375V15.5625C12.625 16.3008 12.0234 16.875 11.3125 16.875H1.6875C0.949219 16.875 0.375 16.3008 0.375 15.5625V5.9375C0.375 5.22656 0.949219 4.625 1.6875 4.625H11.3125ZM3.84766 14.2773L4.36719 13.375C4.09375 13.0195 3.71094 12.9102 3.27344 13.0469L2.89062 13.7305C2.72656 13.9766 2.83594 14.332 3.08203 14.4688C3.35547 14.6328 3.68359 14.5508 3.84766 14.2773ZM7.62109 12.8008C7.86719 12.3633 7.56641 11.707 7.01953 11.707H5.32422L7.64844 7.63281C7.8125 7.38672 7.73047 7.05859 7.45703 6.89453C7.21094 6.75781 6.85547 6.83984 6.71875 7.08594L6.47266 7.52344L6.22656 7.08594C6.08984 6.83984 5.73438 6.75781 5.48828 6.89453C5.21484 7.05859 5.13281 7.38672 5.26953 7.63281L5.84375 8.61719L4.06641 11.707H2.67188C2.37109 11.707 2.125 11.9531 2.125 12.2539C2.125 12.5547 2.37109 12.8008 2.67188 12.8008H7.62109ZM10.3281 12.8008C10.6289 12.8008 10.875 12.5547 10.875 12.2539C10.875 11.9531 10.6289 11.707 10.3281 11.707H8.90625C8.16797 10.4766 7.64844 9.54688 7.29297 8.91797C6.96484 9.19141 6.63672 9.98438 7.10156 10.7773C7.53906 11.543 8.22266 12.7188 9.125 14.2773C9.26172 14.5234 9.58984 14.6328 9.86328 14.4688C10.1094 14.332 10.2188 14.0039 10.0547 13.7305L9.53516 12.8008H10.3281Z" fill="black" fill-opacity="0.72"/>
</g>
<defs>
<clipPath id="clip0_2556_12222">
<rect width="13" height="22" fill="white"/>
</clipPath>
</defs>
</svg>
