<svg width="12" height="18" viewBox="0 0 12 18" fill="none" xmlns="http://www.w3.org/2000/svg">
<g id="label-paired / caption / forward-caption / fill" clip-path="url(#clip0_2556_9989)">
<path id="icon" d="M1.21875 13.8359C1.00781 14.0234 0.679688 14.0703 0.421875 13.9297C0.164062 13.8125 0 13.5547 0 13.25V5.75C0 5.46875 0.164062 5.21094 0.421875 5.07031C0.679688 4.95312 0.984375 5 1.21875 5.1875L5.25 8.53906V9.5V10.4844L1.21875 13.8359ZM6 11.75V9.5V6.5V5.75C6 5.46875 6.16406 5.21094 6.42188 5.07031C6.67969 4.95312 6.98438 5 7.21875 5.1875L11.7188 8.9375C11.8828 9.07812 12 9.28906 12 9.5C12 9.73438 11.8828 9.94531 11.7188 10.0859L7.21875 13.8359C7.00781 14.0234 6.67969 14.0703 6.42188 13.9297C6.16406 13.8125 6 13.5547 6 13.25V11.75Z" fill="black" fill-opacity="0.72"/>
</g>
<defs>
<clipPath id="clip0_2556_9989">
<rect width="12" height="18" fill="white"/>
</clipPath>
</defs>
</svg>
