<svg width="15" height="30" viewBox="0 0 15 30" fill="none" xmlns="http://www.w3.org/2000/svg">
<g id="label-paired / lg / file-excel-lg / fill" clip-path="url(#clip0_2556_16953)">
<path id="icon" d="M2.5 5.5H8.75V10.5C8.75 11.2031 9.29688 11.75 10 11.75H15V23C15 24.4062 13.8672 25.5 12.5 25.5H2.5C1.09375 25.5 0 24.4062 0 23V8C0 6.63281 1.09375 5.5 2.5 5.5ZM10 5.5L15 10.5H10V5.5ZM6.05469 15.3047C5.78125 14.875 5.19531 14.7578 4.76562 15.0703C4.33594 15.3438 4.21875 15.9297 4.53125 16.3594L6.32812 18.9375L4.53125 21.5547C4.21875 21.9453 4.33594 22.5312 4.76562 22.8438C5.19531 23.1562 5.78125 23.0391 6.05469 22.6094L7.5 20.5781L8.90625 22.6094C9.21875 23.0391 9.76562 23.1562 10.1953 22.8438C10.625 22.5312 10.7422 21.9844 10.4297 21.5547L8.63281 18.9375L10.4297 16.3594C10.7422 15.9297 10.625 15.3438 10.1953 15.0703C9.76562 14.7578 9.17969 14.875 8.90625 15.3047L7.5 17.3359L6.05469 15.3047Z" fill="black" fill-opacity="0.72"/>
</g>
<defs>
<clipPath id="clip0_2556_16953">
<rect width="15" height="30" fill="white"/>
</clipPath>
</defs>
</svg>
