<svg width="14" height="22" viewBox="0 0 14 22" fill="none" xmlns="http://www.w3.org/2000/svg">
<g id="label-paired / sm / table-layout-sm / regular" clip-path="url(#clip0_2556_12432)">
<path id="icon" d="M12.25 5.5H1.75C1.25781 5.5 0.875 5.91016 0.875 6.375V8.125H13.125V6.375C13.125 5.91016 12.7148 5.5 12.25 5.5ZM0.875 15.125C0.875 15.6172 1.25781 16 1.75 16H4.375V9H0.875V15.125ZM5.25 16H12.25C12.7148 16 13.125 15.6172 13.125 15.125V9H5.25V16ZM1.75 4.625H12.25C13.207 4.625 14 5.41797 14 6.375V15.125C14 16.1094 13.207 16.875 12.25 16.875H1.75C0.765625 16.875 0 16.1094 0 15.125V6.375C0 5.41797 0.765625 4.625 1.75 4.625Z" fill="black" fill-opacity="0.72"/>
</g>
<defs>
<clipPath id="clip0_2556_12432">
<rect width="14" height="22" fill="white"/>
</clipPath>
</defs>
</svg>
