<svg width="20" height="30" viewBox="0 0 20 30" fill="none" xmlns="http://www.w3.org/2000/svg">
<g id="label-paired / lg / chart-area-lg / regular" clip-path="url(#clip0_2556_17218)">
<path id="icon" d="M1.25 7.375V21.125C1.25 22.1797 2.07031 23 3.125 23H19.375C19.6875 23 20 23.3125 20 23.625C20 23.9766 19.6875 24.25 19.375 24.25H3.125C1.36719 24.25 0 22.8828 0 21.125V7.375C0 7.0625 0.273438 6.75 0.625 6.75C0.9375 6.75 1.25 7.0625 1.25 7.375ZM11.6016 13.8984L8.75 11.0469L5.15625 14.6016C5.03906 14.7188 5 14.875 5 15.0312V19.25H17.5V15.5781C17.5 15.4219 17.4219 15.3047 17.3438 15.1875L14.9219 12.3359L13.3594 13.8984C13.125 14.1328 12.8125 14.25 12.5 14.25C12.1484 14.25 11.8359 14.1328 11.6016 13.8984ZM11.6016 12.1406L12.5 13L13.3594 12.1406L14.0234 11.4766C14.5312 10.9688 15.3906 11.0078 15.8594 11.5547L18.2812 14.3672C18.5547 14.7188 18.75 15.1484 18.75 15.5781V19.25C18.75 19.9531 18.1641 20.5 17.5 20.5H5C4.29688 20.5 3.75 19.9531 3.75 19.25V15.0312C3.75 14.5625 3.94531 14.0547 4.29688 13.7031L7.85156 10.1484C8.32031 9.67969 9.14062 9.67969 9.60938 10.1484L11.6016 12.1406Z" fill="black" fill-opacity="0.72"/>
</g>
<defs>
<clipPath id="clip0_2556_17218">
<rect width="20" height="30" fill="white"/>
</clipPath>
</defs>
</svg>
