<svg width="20" height="30" viewBox="0 0 20 30" fill="none" xmlns="http://www.w3.org/2000/svg">
<g id="label-paired / lg / circle-caret-down-lg / bold" clip-path="url(#clip0_2556_17025)">
<path id="icon" d="M10 23.625C12.8906 23.625 15.5469 22.1016 17.0312 19.5625C18.4766 17.0625 18.4766 13.9766 17.0312 11.4375C15.5469 8.9375 12.8906 7.375 10 7.375C7.07031 7.375 4.41406 8.9375 2.92969 11.4375C1.48438 13.9766 1.48438 17.0625 2.92969 19.5625C4.41406 22.1016 7.07031 23.625 10 23.625ZM10 5.5C13.5547 5.5 16.8359 7.41406 18.6328 10.5C20.4297 13.625 20.4297 17.4141 18.6328 20.5C16.8359 23.625 13.5547 25.5 10 25.5C6.40625 25.5 3.125 23.625 1.32812 20.5C-0.46875 17.4141 -0.46875 13.625 1.32812 10.5C3.125 7.41406 6.40625 5.5 10 5.5ZM10 19.875C9.72656 19.875 9.45312 19.7969 9.29688 19.6016L5.23438 15.2266C4.96094 14.9531 4.92188 14.5625 5.07812 14.2109C5.19531 13.8594 5.54688 13.625 5.9375 13.625H14.0625C14.4141 13.625 14.7656 13.8594 14.9219 14.2109C15.0391 14.5625 15 14.9531 14.7266 15.2266L10.6641 19.6016C10.5078 19.7969 10.2344 19.875 10 19.875Z" fill="black" fill-opacity="0.72"/>
</g>
<defs>
<clipPath id="clip0_2556_17025">
<rect width="20" height="30" fill="white"/>
</clipPath>
</defs>
</svg>
