<svg width="15" height="18" viewBox="0 0 15 18" fill="none" xmlns="http://www.w3.org/2000/svg">
<g id="label-paired / caption / user-check-caption / fill" clip-path="url(#clip0_3327_692)">
<path id="icon" d="M2.25 6.5C2.25 5.44531 2.8125 4.46094 3.75 3.92188C4.66406 3.38281 5.8125 3.38281 6.75 3.92188C7.66406 4.46094 8.25 5.44531 8.25 6.5C8.25 7.57812 7.66406 8.5625 6.75 9.10156C5.8125 9.64062 4.66406 9.64062 3.75 9.10156C2.8125 8.5625 2.25 7.57812 2.25 6.5ZM0 14.8203C0 12.5 1.85156 10.625 4.17188 10.625H6.30469C8.625 10.625 10.5 12.5 10.5 14.8203C10.5 15.1953 10.1719 15.5 9.79688 15.5H0.679688C0.304688 15.5 0 15.1953 0 14.8203ZM14.6484 7.64844L11.6484 10.6484C11.4141 10.8828 11.0625 10.8828 10.8516 10.6484L9.35156 9.14844C9.11719 8.9375 9.11719 8.58594 9.35156 8.375C9.5625 8.14062 9.91406 8.14062 10.1484 8.375L11.25 9.47656L13.8516 6.85156C14.0625 6.64062 14.4141 6.64062 14.625 6.85156C14.8594 7.08594 14.8594 7.4375 14.625 7.64844H14.6484Z" fill="black" fill-opacity="0.72"/>
</g>
<defs>
<clipPath id="clip0_3327_692">
<rect width="15" height="18" fill="white"/>
</clipPath>
</defs>
</svg>
