<svg width="14" height="22" viewBox="0 0 14 22" fill="none" xmlns="http://www.w3.org/2000/svg">
<g id="label-paired / sm / right-to-bracket-sm / regular" clip-path="url(#clip0_2556_12881)">
<path id="icon" d="M8.72266 10.8047C8.72266 10.8047 8.75 10.7773 8.75 10.75L8.72266 10.7227L5.11328 7.30469C5.08594 7.27734 5.03125 7.25 4.97656 7.25C4.89453 7.25 4.8125 7.33203 4.8125 7.44141V9C4.8125 9.24609 4.59375 9.4375 4.375 9.4375H1.09375C0.957031 9.4375 0.875 9.54688 0.875 9.65625V11.8438C0.875 11.9805 0.957031 12.0625 1.09375 12.0625H4.375C4.59375 12.0625 4.8125 12.2812 4.8125 12.5V14.0859C4.8125 14.168 4.89453 14.25 4.97656 14.25C5.03125 14.25 5.08594 14.25 5.11328 14.2227L8.72266 10.8047ZM9.625 10.75C9.625 11.0234 9.51562 11.2695 9.32422 11.4609L5.71484 14.8516C5.52344 15.043 5.25 15.125 4.97656 15.125C4.40234 15.125 3.9375 14.6602 3.9375 14.0859V12.9375H1.09375C0.464844 12.9375 0 12.4727 0 11.8438V9.65625C0 9.05469 0.464844 8.5625 1.09375 8.5625H3.9375V7.44141C3.9375 6.86719 4.40234 6.375 4.97656 6.375C5.25 6.375 5.52344 6.48438 5.71484 6.67578L9.32422 10.0664C9.51562 10.2578 9.625 10.5039 9.625 10.75ZM9.1875 16H11.8125C12.5234 16 13.125 15.4258 13.125 14.6875V6.8125C13.125 6.10156 12.5234 5.5 11.8125 5.5H9.1875C8.94141 5.5 8.75 5.30859 8.75 5.0625C8.75 4.84375 8.94141 4.625 9.1875 4.625H11.8125C13.0156 4.625 14 5.60938 14 6.8125V14.6875C14 15.918 13.0156 16.875 11.8125 16.875H9.1875C8.94141 16.875 8.75 16.6836 8.75 16.4375C8.75 16.2188 8.94141 16 9.1875 16Z" fill="black" fill-opacity="0.72"/>
</g>
<defs>
<clipPath id="clip0_2556_12881">
<rect width="14" height="22" fill="white"/>
</clipPath>
</defs>
</svg>
