<svg width="20" height="24" viewBox="0 0 20 24" fill="none" xmlns="http://www.w3.org/2000/svg">
<g id="label-paired / md / person-chalkboard-md / fill" clip-path="url(#clip0_2556_15187)">
<path id="icon" d="M6 7C5.4375 7 4.96875 6.71875 4.6875 6.25C4.40625 5.8125 4.40625 5.21875 4.6875 4.75C4.96875 4.3125 5.4375 4 6 4C6.53125 4 7 4.3125 7.28125 4.75C7.5625 5.21875 7.5625 5.8125 7.28125 6.25C7 6.71875 6.53125 7 6 7ZM5.75 19C5.75 19.5625 5.28125 20 4.75 20C4.1875 20 3.75 19.5625 3.75 19V12.0312L2.84375 13.5312C2.5625 14 1.9375 14.1562 1.46875 13.875C1 13.5938 0.84375 12.9688 1.125 12.5L2.9375 9.46875C3.5 8.5625 4.46875 8 5.53125 8H7.59375H10V5.5C10 4.6875 10.6562 4 11.5 4H18.5C19.3125 4 20 4.6875 20 5.5V12.5C20 13.3438 19.3125 14 18.5 14H11.5C10.6562 14 10 13.3438 10 12.5V11H12V12H18V6H12V8H12.5C13.0312 8 13.5 8.46875 13.5 9C13.5 9.5625 13.0312 10 12.5 10H12H10H8.25V19C8.25 19.5625 7.78125 20 7.25 20C6.6875 20 6.25 19.5625 6.25 19V15H5.75V19Z" fill="black" fill-opacity="0.72"/>
</g>
<defs>
<clipPath id="clip0_2556_15187">
<rect width="20" height="24" fill="white"/>
</clipPath>
</defs>
</svg>
