<svg width="11" height="18" viewBox="0 0 11 18" fill="none" xmlns="http://www.w3.org/2000/svg">
<g id="label-paired / caption / arrow-left-to-line-caption / fill" clip-path="url(#clip0_2556_10299)">
<path id="icon" d="M0.25 5.75C0.25 5.35156 0.578125 5 1 5C1.39844 5 1.75 5.35156 1.75 5.75V13.25C1.75 13.6719 1.39844 14 1 14C0.578125 14 0.25 13.6719 0.25 13.25V5.75ZM3.46094 10.0391C3.15625 9.75781 3.15625 9.26562 3.46094 8.98438L6.46094 5.98438C6.74219 5.67969 7.23438 5.67969 7.51562 5.98438C7.82031 6.26562 7.82031 6.75781 7.51562 7.03906L5.80469 8.75H10C10.3984 8.75 10.75 9.10156 10.75 9.5C10.75 9.92188 10.3984 10.25 10 10.25H5.80469L7.51562 11.9844C7.82031 12.2656 7.82031 12.7578 7.51562 13.0391C7.23438 13.3438 6.74219 13.3438 6.46094 13.0391L3.46094 10.0391Z" fill="black" fill-opacity="0.72"/>
</g>
<defs>
<clipPath id="clip0_2556_10299">
<rect width="11" height="18" fill="white"/>
</clipPath>
</defs>
</svg>
