<svg width="14" height="24" viewBox="0 0 14 24" fill="none" xmlns="http://www.w3.org/2000/svg">
<g id="label-paired / md / arrow-up-from-bracket-md / regular" clip-path="url(#clip0_2556_14980)">
<path id="icon" d="M7.34375 4.15625L11.3438 8.15625C11.5312 8.34375 11.5312 8.6875 11.3438 8.875C11.1562 9.0625 10.8125 9.0625 10.625 8.875L7.5 5.71875V14.5C7.5 14.7812 7.25 15 7 15C6.71875 15 6.5 14.7812 6.5 14.5V5.71875L3.34375 8.875C3.15625 9.0625 2.8125 9.0625 2.625 8.875C2.4375 8.6875 2.4375 8.34375 2.625 8.15625L6.625 4.15625C6.8125 3.96875 7.15625 3.96875 7.34375 4.15625ZM1 14.5V17.5C1 18.3438 1.65625 19 2.5 19H11.5C12.3125 19 13 18.3438 13 17.5V14.5C13 14.25 13.2188 14 13.5 14C13.75 14 14 14.25 14 14.5V17.5C14 18.9062 12.875 20 11.5 20H2.5C1.09375 20 0 18.9062 0 17.5V14.5C0 14.25 0.21875 14 0.5 14C0.75 14 1 14.25 1 14.5Z" fill="black" fill-opacity="0.72"/>
</g>
<defs>
<clipPath id="clip0_2556_14980">
<rect width="14" height="24" fill="white"/>
</clipPath>
</defs>
</svg>
