<svg width="9" height="18" viewBox="0 0 9 18" fill="none" xmlns="http://www.w3.org/2000/svg">
<g id="label-paired / caption / file-chart-column-caption / bold" clip-path="url(#clip0_2556_10566)">
<path id="icon" d="M1.125 14C1.125 14.2109 1.28906 14.375 1.5 14.375H7.5C7.6875 14.375 7.875 14.2109 7.875 14V7.25H6C5.57812 7.25 5.25 6.92188 5.25 6.5V4.625H1.5C1.28906 4.625 1.125 4.8125 1.125 5V14ZM1.5 3.5H5.36719C5.76562 3.5 6.14062 3.66406 6.42188 3.94531L8.55469 6.07812C8.83594 6.35938 9 6.73438 9 7.13281V14C9 14.8438 8.32031 15.5 7.5 15.5H1.5C0.65625 15.5 0 14.8438 0 14V5C0 4.17969 0.65625 3.5 1.5 3.5ZM5.0625 10.0625V13.0625C5.0625 13.3906 4.80469 13.625 4.5 13.625C4.17188 13.625 3.9375 13.3906 3.9375 13.0625V10.0625C3.9375 9.75781 4.17188 9.5 4.5 9.5C4.80469 9.5 5.0625 9.75781 5.0625 10.0625ZM7.125 10.8125V13.0625C7.125 13.3906 6.86719 13.625 6.5625 13.625C6.23438 13.625 6 13.3906 6 13.0625V10.8125C6 10.5078 6.23438 10.25 6.5625 10.25C6.86719 10.25 7.125 10.5078 7.125 10.8125ZM3 11.5625V13.0625C3 13.3906 2.74219 13.625 2.4375 13.625C2.10938 13.625 1.875 13.3906 1.875 13.0625V11.5625C1.875 11.2578 2.10938 11 2.4375 11C2.74219 11 3 11.2578 3 11.5625Z" fill="black" fill-opacity="0.72"/>
</g>
<defs>
<clipPath id="clip0_2556_10566">
<rect width="9" height="18" fill="white"/>
</clipPath>
</defs>
</svg>
