<svg width="30" height="36" viewBox="0 0 30 36" fill="none" xmlns="http://www.w3.org/2000/svg">
<g id="label-paired / xl / passkey-xl / fill" clip-path="url(#clip0_2512_1361)">
<path id="icon" d="M5.10938 27.2812V23.5781C5.10938 22.875 5.29688 22.2188 5.71875 21.6094C6.09375 21 6.5625 20.5312 7.21875 20.2031C8.29688 19.6875 9.375 19.2656 10.5469 18.9844C11.6719 18.75 12.7969 18.6094 13.9688 18.6094C14.3438 18.6094 14.7188 18.6094 15.0469 18.6094C15.4219 18.6562 15.7969 18.7031 16.1719 18.75C16.0781 19.8281 16.2656 20.8594 16.7344 21.8438C17.25 22.7812 17.9531 23.5781 18.8438 24.1406V27.2812H5.10938ZM22.5469 29.6719L20.8594 28.0312V22.9219C20.0625 22.6875 19.4062 22.2188 18.8906 21.5625C18.375 20.8594 18.1406 20.1094 18.1406 19.2188C18.1406 18.1406 18.5156 17.25 19.2656 16.5C20.0156 15.75 20.9062 15.375 21.9844 15.375C23.0625 15.375 23.9531 15.75 24.7031 16.5C25.4531 17.25 25.8281 18.1875 25.8281 19.2188C25.8281 20.0625 25.5938 20.7656 25.1719 21.4219C24.7031 22.0312 24.1406 22.5 23.3906 22.7812L24.75 24.1875L23.0625 25.8281L24.75 27.4688L22.5469 29.6719ZM13.9688 17.5781C12.6562 17.5781 11.4844 17.1094 10.5469 16.1719C9.60938 15.2344 9.14062 14.0625 9.14062 12.75C9.14062 11.3906 9.60938 10.2656 10.5469 9.32812C11.4844 8.39062 12.6562 7.92188 13.9688 7.92188C15.3281 7.92188 16.4531 8.39062 17.3906 9.32812C18.375 10.2656 18.8438 11.4375 18.8438 12.75C18.8438 14.0625 18.375 15.2344 17.3906 16.1719C16.4531 17.1094 15.3281 17.5781 13.9688 17.5781ZM21.9844 19.7812C22.4062 19.7812 22.7812 19.5938 23.0156 19.2656C23.2031 18.8906 23.2031 18.4688 23.0156 18.0938C22.7812 17.7656 22.4062 17.5312 21.9844 17.5781C21.5625 17.5312 21.1875 17.7656 20.9531 18.0938C20.7656 18.4688 20.7656 18.8906 20.9531 19.2656C21.1875 19.5938 21.5625 19.7812 21.9844 19.7812Z" fill="black" fill-opacity="0.72"/>
</g>
<defs>
<clipPath id="clip0_2512_1361">
<rect width="30" height="36" fill="white"/>
</clipPath>
</defs>
</svg>
