<svg width="14" height="22" viewBox="0 0 14 22" fill="none" xmlns="http://www.w3.org/2000/svg">
<g id="label-paired / sm / gear-sm / bold" clip-path="url(#clip0_2556_12920)">
<path id="icon" d="M7 3.75C7.46484 3.75 7.90234 3.80469 8.33984 3.88672C8.55859 3.94141 8.94141 4.05078 9.16016 4.43359C9.21484 4.54297 9.24219 4.65234 9.26953 4.76172L9.54297 5.82812C9.57031 5.96484 9.84375 6.12891 10.0078 6.07422L11.0469 5.77344C11.1562 5.74609 11.2656 5.71875 11.375 5.71875C11.8125 5.71875 12.1133 5.99219 12.25 6.15625C12.8516 6.83984 13.3164 7.63281 13.6172 8.50781C13.6992 8.72656 13.7812 9.10938 13.5352 9.46484C13.4805 9.57422 13.3984 9.65625 13.3164 9.73828L12.5508 10.5039C12.4141 10.6133 12.4141 10.9141 12.5508 11.0234L13.3164 11.7891C13.3984 11.8711 13.4805 11.9531 13.5352 12.0625C13.7539 12.418 13.6719 12.8008 13.6172 13.0195C13.3164 13.8945 12.8516 14.6875 12.25 15.3711C12.1133 15.5352 11.8125 15.8086 11.375 15.8086C11.2656 15.8086 11.1562 15.7812 11.0469 15.7539L10.0078 15.4258C9.84375 15.3984 9.57031 15.5352 9.54297 15.6992L9.26953 16.7656C9.24219 16.875 9.21484 16.9844 9.16016 17.0938C8.94141 17.4766 8.55859 17.5859 8.33984 17.6406C7.90234 17.7227 7.46484 17.75 7 17.75C6.53516 17.75 6.07031 17.7227 5.63281 17.6406C5.41406 17.5859 5.03125 17.4766 4.8125 17.0938C4.75781 16.9844 4.73047 16.875 4.70312 16.7656L4.42969 15.6992C4.40234 15.5352 4.12891 15.3984 3.99219 15.4258L2.95312 15.7539C2.84375 15.7812 2.70703 15.7812 2.59766 15.8086C2.16016 15.8086 1.85938 15.5352 1.72266 15.3711C1.12109 14.6875 0.65625 13.8945 0.355469 13.0195C0.300781 12.8008 0.21875 12.418 0.4375 12.0352C0.492188 11.9531 0.574219 11.8438 0.65625 11.7617L1.44922 11.0234C1.55859 10.9141 1.55859 10.6133 1.44922 10.5039L0.65625 9.73828C0.574219 9.65625 0.492188 9.57422 0.4375 9.46484C0.21875 9.10938 0.300781 8.72656 0.355469 8.50781C0.65625 7.63281 1.12109 6.83984 1.72266 6.15625C1.85938 5.99219 2.16016 5.71875 2.59766 5.71875C2.70703 5.71875 2.84375 5.74609 2.95312 5.77344L3.99219 6.07422C4.12891 6.12891 4.40234 5.96484 4.42969 5.82812L4.70312 4.76172C4.73047 4.65234 4.75781 4.54297 4.8125 4.43359C5.03125 4.05078 5.41406 3.94141 5.63281 3.88672C6.07031 3.80469 6.53516 3.75 7 3.75ZM5.96094 5.17188L5.71484 6.12891C5.49609 7.00391 4.48438 7.60547 3.60938 7.35938L2.65234 7.05859C2.21484 7.60547 1.85938 8.20703 1.61328 8.86328L2.35156 9.54688C3.00781 10.1758 3.00781 11.3516 2.35156 11.9805L1.61328 12.6641C1.85938 13.3203 2.21484 13.9219 2.65234 14.4688L3.60938 14.168C4.48438 13.9219 5.49609 14.5234 5.71484 15.3984L5.96094 16.3555C6.61719 16.4922 7.35547 16.4922 8.03906 16.3555L8.25781 15.3984C8.47656 14.5234 9.48828 13.9219 10.3633 14.168L11.3203 14.4688C11.7578 13.9219 12.1133 13.3203 12.3594 12.6641L11.6484 11.9805C10.9922 11.3516 10.9922 10.1758 11.6484 9.54688L12.3594 8.86328C12.1133 8.20703 11.7578 7.60547 11.3203 7.05859L10.3633 7.35938C9.51562 7.60547 8.47656 7.00391 8.25781 6.12891L8.03906 5.17188C7.35547 5.03516 6.61719 5.03516 5.96094 5.17188ZM5.6875 10.75C5.6875 11.2422 5.93359 11.6523 6.34375 11.8984C6.72656 12.1445 7.24609 12.1445 7.65625 11.8984C8.03906 11.6523 8.3125 11.2422 8.3125 10.75C8.3125 10.2852 8.03906 9.875 7.65625 9.62891C7.24609 9.38281 6.72656 9.38281 6.34375 9.62891C5.93359 9.875 5.6875 10.2852 5.6875 10.75ZM7 13.375C6.04297 13.375 5.19531 12.8828 4.70312 12.0625C4.23828 11.2695 4.23828 10.2578 4.70312 9.4375C5.19531 8.64453 6.04297 8.125 7 8.125C7.92969 8.125 8.77734 8.64453 9.26953 9.4375C9.73438 10.2578 9.73438 11.2695 9.26953 12.0625C8.77734 12.8828 7.92969 13.375 7 13.375Z" fill="black" fill-opacity="0.72"/>
</g>
<defs>
<clipPath id="clip0_2556_12920">
<rect width="14" height="22" fill="white"/>
</clipPath>
</defs>
</svg>
