<svg width="24" height="36" viewBox="0 0 24 36" fill="none" xmlns="http://www.w3.org/2000/svg">
<g id="label-paired / xl / circle-envelope-xl / bold" clip-path="url(#clip0_2556_19467)">
<path id="icon" d="M12 8.25C8.48438 8.25 5.29688 10.125 3.51562 13.125C1.78125 16.1719 1.78125 19.875 3.51562 22.875C5.29688 25.9219 8.48438 27.75 12 27.75C15.4688 27.75 18.6562 25.9219 20.4375 22.875C22.1719 19.875 22.1719 16.1719 20.4375 13.125C18.6562 10.125 15.4688 8.25 12 8.25ZM12 30C7.6875 30 3.75 27.75 1.59375 24C-0.5625 20.2969 -0.5625 15.75 1.59375 12C3.75 8.29688 7.6875 6 12 6C16.2656 6 20.2031 8.29688 22.3594 12C24.5156 15.75 24.5156 20.2969 22.3594 24C20.2031 27.75 16.2656 30 12 30ZM11.625 18L6 14.9062C6.04688 14.1094 6.70312 13.5 7.5 13.5H16.5C17.25 13.5 17.9062 14.1094 17.9531 14.9062L12.3281 18C12.2344 18.0469 12.0938 18.0938 12 18.0938C11.8594 18.0938 11.7188 18.0469 11.625 18ZM13.0312 19.3125L18 16.5938V21C18 21.8438 17.2969 22.5 16.5 22.5H7.5C6.65625 22.5 6 21.8438 6 21V16.5938L10.9219 19.3125C11.25 19.5 11.625 19.5938 12 19.5938C12.3281 19.5938 12.7031 19.5 13.0312 19.3125Z" fill="black" fill-opacity="0.72"/>
</g>
<defs>
<clipPath id="clip0_2556_19467">
<rect width="24" height="36" fill="white"/>
</clipPath>
</defs>
</svg>
