<svg width="23" height="30" viewBox="0 0 23 30" fill="none" xmlns="http://www.w3.org/2000/svg">
<g id="label-paired / lg / arrow-up-arrow-down-lg / fill" clip-path="url(#clip0_2556_17244)">
<path id="icon" d="M7.35938 7.14062L11.1094 10.8906C11.6172 11.3594 11.6172 12.1797 11.1094 12.6484C10.6406 13.1562 9.82031 13.1562 9.35156 12.6484L7.75 11.0469V23C7.75 23.7031 7.16406 24.25 6.5 24.25C5.79688 24.25 5.25 23.7031 5.25 23V11.0469L3.60938 12.6484C3.14062 13.1562 2.32031 13.1562 1.85156 12.6484C1.34375 12.1797 1.34375 11.3594 1.85156 10.8906L5.60156 7.14062C6.07031 6.63281 6.89062 6.63281 7.35938 7.14062ZM21.1094 20.1484L17.3594 23.8984C16.8906 24.4062 16.0703 24.4062 15.6016 23.8984L11.8516 20.1484C11.3438 19.6797 11.3438 18.8594 11.8516 18.3906C12.3203 17.8828 13.1406 17.8828 13.6094 18.3906L15.25 19.9922V8C15.25 7.33594 15.7969 6.75 16.5 6.75C17.1641 6.75 17.75 7.33594 17.75 8V19.9922L19.3516 18.3906C19.8203 17.8828 20.6406 17.8828 21.1094 18.3906C21.6172 18.8594 21.6172 19.6797 21.1094 20.1484Z" fill="black" fill-opacity="0.72"/>
</g>
<defs>
<clipPath id="clip0_2556_17244">
<rect width="23" height="30" fill="white"/>
</clipPath>
</defs>
</svg>
