<svg width="11" height="22" viewBox="0 0 11 22" fill="none" xmlns="http://www.w3.org/2000/svg">
<g id="label-paired / sm / mobile-notch-sm / bold" clip-path="url(#clip0_2556_12556)">
<path id="icon" d="M7.25 5.0625V5.5C7.25 5.74609 7.03125 5.9375 6.8125 5.9375H4.1875C3.94141 5.9375 3.75 5.74609 3.75 5.5V5.0625H2.875C2.38281 5.0625 2 5.47266 2 5.9375V15.5625C2 16.0547 2.38281 16.4375 2.875 16.4375H8.125C8.58984 16.4375 9 16.0547 9 15.5625V5.9375C9 5.47266 8.58984 5.0625 8.125 5.0625H7.25ZM0.6875 5.9375C0.6875 4.73438 1.64453 3.75 2.875 3.75H8.125C9.32812 3.75 10.3125 4.73438 10.3125 5.9375V15.5625C10.3125 16.793 9.32812 17.75 8.125 17.75H2.875C1.64453 17.75 0.6875 16.793 0.6875 15.5625V5.9375Z" fill="black" fill-opacity="0.72"/>
</g>
<defs>
<clipPath id="clip0_2556_12556">
<rect width="11" height="22" fill="white"/>
</clipPath>
</defs>
</svg>
