<svg width="15" height="36" viewBox="0 0 15 36" fill="none" xmlns="http://www.w3.org/2000/svg">
<g id="label-paired / xl / sterling-sign-xl / bold" clip-path="url(#clip0_2556_19366)">
<path id="icon" d="M4.5 13.5V16.5H10.875C11.4844 16.5 12 17.0156 12 17.625C12 18.2812 11.4844 18.75 10.875 18.75H4.5V21.75C4.5 22.9219 4.17188 24.0938 3.60938 25.1719L3 26.25H13.875C14.4844 26.25 15 26.7656 15 27.375C15 28.0312 14.4844 28.5 13.875 28.5H1.125C0.703125 28.5 0.328125 28.3125 0.140625 27.9844C-0.046875 27.6094 -0.09375 27.1875 0.09375 26.8594L1.64062 24.0938C2.01562 23.3438 2.25 22.5469 2.25 21.75V18.75H1.125C0.46875 18.75 0 18.2812 0 17.625C0 17.0156 0.46875 16.5 1.125 16.5H2.25V13.5C2.25 10.1719 4.92188 7.5 8.20312 7.5C8.8125 7.5 9.46875 7.64062 10.0781 7.82812L13.8281 9.09375C14.4375 9.28125 14.7656 9.89062 14.5312 10.5C14.3438 11.1094 13.7344 11.3906 13.125 11.2031L9.375 9.98438C9 9.84375 8.57812 9.75 8.20312 9.75C6.14062 9.75 4.5 11.4375 4.5 13.5Z" fill="black" fill-opacity="0.72"/>
</g>
<defs>
<clipPath id="clip0_2556_19366">
<rect width="15" height="36" fill="white"/>
</clipPath>
</defs>
</svg>
