<svg width="8" height="18" viewBox="0 0 8 18" fill="none" xmlns="http://www.w3.org/2000/svg">
<g id="label-paired / caption / two-caption / bold" clip-path="url(#clip0_2556_10460)">
<path id="icon" d="M3.69531 5.375C3.0625 5.375 2.47656 5.63281 2.03125 6.07812L1.21094 6.89844C0.976562 7.13281 0.625 7.13281 0.414062 6.89844C0.179688 6.6875 0.179688 6.33594 0.414062 6.125L1.23438 5.28125C1.89062 4.625 2.78125 4.25 3.69531 4.25H3.85938C5.6875 4.25 7.1875 5.75 7.1875 7.57812C7.1875 8.49219 6.78906 9.35938 6.13281 9.99219L2.21875 13.625H7.1875C7.49219 13.625 7.75 13.8828 7.75 14.1875C7.75 14.5156 7.49219 14.75 7.1875 14.75H0.8125C0.578125 14.75 0.367188 14.6094 0.273438 14.3984C0.203125 14.1875 0.25 13.9531 0.414062 13.7891L5.35938 9.17188C5.80469 8.75 6.0625 8.16406 6.0625 7.57812C6.0625 6.35938 5.07812 5.375 3.85938 5.375H3.69531Z" fill="black" fill-opacity="0.72"/>
</g>
<defs>
<clipPath id="clip0_2556_10460">
<rect width="8" height="18" fill="white"/>
</clipPath>
</defs>
</svg>
