<svg width="12" height="18" viewBox="0 0 12 18" fill="none" xmlns="http://www.w3.org/2000/svg">
<g id="label-paired / caption / circle-five-caption / regular" clip-path="url(#clip0_2556_10509)">
<path id="icon" d="M6 4.25C4.10156 4.25 2.39062 5.25781 1.45312 6.875C0.492188 8.51562 0.492188 10.5078 1.45312 12.125C2.39062 13.7656 4.10156 14.75 6 14.75C7.875 14.75 9.58594 13.7656 10.5234 12.125C11.4844 10.5078 11.4844 8.51562 10.5234 6.875C9.58594 5.25781 7.875 4.25 6 4.25ZM6 15.5C3.84375 15.5 1.875 14.375 0.796875 12.5C-0.28125 10.6484 -0.28125 8.375 0.796875 6.5C1.875 4.64844 3.84375 3.5 6 3.5C8.13281 3.5 10.1016 4.64844 11.1797 6.5C12.2578 8.375 12.2578 10.6484 11.1797 12.5C10.1016 14.375 8.13281 15.5 6 15.5ZM4.875 6.5H7.5C7.6875 6.5 7.875 6.6875 7.875 6.875C7.875 7.08594 7.6875 7.25 7.5 7.25H5.15625L4.78125 8.79688L6.65625 8.98438C7.54688 9.07812 8.22656 9.85156 8.22656 10.7422C8.22656 11.7266 7.45312 12.5 6.46875 12.5H5.4375C4.80469 12.5 4.19531 12.1953 3.84375 11.6562L3.79688 11.5859C3.67969 11.4219 3.72656 11.1875 3.91406 11.0703C4.07812 10.9531 4.3125 11 4.42969 11.1641L4.47656 11.2344C4.6875 11.5625 5.0625 11.75 5.4375 11.75H6.46875C7.03125 11.75 7.5 11.3047 7.5 10.7422C7.5 10.2266 7.10156 9.80469 6.58594 9.73438L4.26562 9.5C4.14844 9.5 4.05469 9.42969 3.98438 9.35938C3.9375 9.26562 3.91406 9.14844 3.9375 9.05469L4.5 6.80469C4.54688 6.61719 4.6875 6.5 4.875 6.5Z" fill="black" fill-opacity="0.72"/>
</g>
<defs>
<clipPath id="clip0_2556_10509">
<rect width="12" height="18" fill="white"/>
</clipPath>
</defs>
</svg>
