<svg width="13" height="30" viewBox="0 0 13 30" fill="none" xmlns="http://www.w3.org/2000/svg">
<g id="label-paired / lg / two-lg / fill" clip-path="url(#clip0_2556_17335)">
<path id="icon" d="M5.79688 9.25C4.97656 9.25 4.15625 9.60156 3.57031 10.1875L2.35938 11.3984C1.89062 11.9062 1.07031 11.9062 0.601562 11.3984C0.09375 10.9297 0.09375 10.1094 0.601562 9.64062L1.8125 8.42969C2.86719 7.375 4.3125 6.75 5.79688 6.75C8.96094 6.75 11.5 9.28906 11.5 12.4531C11.5 13.9375 10.875 15.3828 9.82031 16.4375L4.50781 21.75H11.5C12.1641 21.75 12.75 22.3359 12.75 23C12.75 23.7031 12.1641 24.25 11.5 24.25H1.5C0.992188 24.25 0.523438 23.9766 0.328125 23.5078C0.132812 23.0391 0.25 22.4922 0.601562 22.1406L8.0625 14.6797C8.64844 14.0938 9 13.2734 9 12.4531C9 10.6953 7.55469 9.25 5.79688 9.25Z" fill="black" fill-opacity="0.72"/>
</g>
<defs>
<clipPath id="clip0_2556_17335">
<rect width="13" height="30" fill="white"/>
</clipPath>
</defs>
</svg>
