<svg width="18" height="22" viewBox="0 0 18 22" fill="none" xmlns="http://www.w3.org/2000/svg">
<g id="label-paired / sm / handshake-sm / bold" clip-path="url(#clip0_4513_680)">
<path id="icon" d="M7.6875 5.52734L6.29297 6.92188C5.85547 7.03125 5.47266 7.25 5.14453 7.55078L4.43359 8.17969C4.13281 8.42578 3.77734 8.5625 3.39453 8.5625H2.875V12.0625C3.42188 12.0898 3.94141 12.3086 4.35156 12.7188L5.30859 13.6758L5.5 13.8672L6.23828 14.6055C6.42969 14.7969 6.70312 14.7969 6.86719 14.6055C6.92188 14.5781 6.94922 14.5234 6.97656 14.4688C7.05859 14.25 7.22266 14.0859 7.44141 14.0312C7.66016 14.0039 7.87891 14.0586 8.04297 14.2227L8.34375 14.4961C8.67188 14.8242 9.16406 14.8242 9.49219 14.4961C9.62891 14.3594 9.71094 14.168 9.73828 13.9766C9.73828 13.7305 9.875 13.5117 10.0938 13.4297C10.3125 13.3203 10.5586 13.3477 10.7773 13.4844C11.0234 13.6484 11.3789 13.6484 11.5977 13.4023C11.8711 13.1562 11.8711 12.7461 11.5977 12.4727L9.54688 10.3945L8.5625 11.2969C7.82422 12.0078 6.67578 12.0078 5.91016 11.3242C5.03516 10.5586 5.00781 9.21875 5.85547 8.42578L7.76953 6.62109C8.53516 5.91016 9.51953 5.5 10.5586 5.5C11.543 5.5 12.5 5.88281 13.2383 6.53906L14.0586 7.25H15.125H16.2188H17.3125C17.5312 7.25 17.75 7.46875 17.75 7.6875V13.375C17.75 13.8672 17.3398 14.25 16.875 14.25H16C15.6719 14.25 15.3711 14.0859 15.2344 13.8125H12.9102C12.8281 14.0039 12.6914 14.1953 12.5273 14.332C12.0625 14.7969 11.4336 14.9883 10.8047 14.8789C10.7227 15.0977 10.5859 15.2617 10.4219 15.4258C9.68359 16.1914 8.50781 16.2461 7.66016 15.6719C6.97656 16.2188 5.96484 16.1914 5.30859 15.5352L4.59766 14.7969L4.40625 14.6055L3.42188 13.6484C3.25781 13.4844 3.06641 13.4023 2.875 13.4023C2.875 13.8672 2.46484 14.25 2 14.25H1.125C0.632812 14.25 0.25 13.8672 0.25 13.375V7.6875C0.25 7.46875 0.441406 7.25 0.6875 7.25H1.78125H2.875H3.39453C3.44922 7.25 3.50391 7.25 3.55859 7.19531L4.26953 6.56641C5.03516 5.88281 6.01953 5.5 7.03125 5.5H7.33203C7.44141 5.5 7.55078 5.52734 7.6875 5.52734ZM15.125 12.5V8.5625H13.8125C13.6484 8.5625 13.4844 8.50781 13.375 8.39844L12.3633 7.52344C11.8711 7.05859 11.2148 6.8125 10.5586 6.8125C9.84766 6.8125 9.19141 7.08594 8.67188 7.57812L6.75781 9.38281C6.48438 9.65625 6.48438 10.0938 6.78516 10.3398C7.03125 10.5859 7.41406 10.5859 7.66016 10.3398L9.62891 8.53516C9.90234 8.28906 10.3125 8.28906 10.5586 8.5625C10.8047 8.83594 10.7773 9.24609 10.5312 9.49219L10.5039 9.51953L12.5273 11.543C12.8008 11.8164 12.9922 12.1719 13.0742 12.5H15.0977H15.125ZM2 12.9375C2 12.7188 1.78125 12.5 1.5625 12.5C1.31641 12.5 1.125 12.7188 1.125 12.9375C1.125 13.1836 1.31641 13.375 1.5625 13.375C1.78125 13.375 2 13.1836 2 12.9375ZM16.4375 13.375C16.6562 13.375 16.875 13.1836 16.875 12.9375C16.875 12.7188 16.6562 12.5 16.4375 12.5C16.1914 12.5 16 12.7188 16 12.9375C16 13.1836 16.1914 13.375 16.4375 13.375Z" fill="black" fill-opacity="0.72"/>
</g>
<defs>
<clipPath id="clip0_4513_680">
<rect width="18" height="22" fill="white"/>
</clipPath>
</defs>
</svg>
