<svg width="24" height="36" viewBox="0 0 24 36" fill="none" xmlns="http://www.w3.org/2000/svg">
<g id="label-paired / xl / chevrons-left-xl / fill" clip-path="url(#clip0_2556_19650)">
<path id="icon" d="M1.92188 16.9688L10.9219 7.96875C11.4844 7.35938 12.4688 7.35938 13.0312 7.96875C13.6406 8.53125 13.6406 9.51562 13.0312 10.0781L5.10938 18L13.0312 25.9688C13.6406 26.5312 13.6406 27.5156 13.0312 28.0781C12.4688 28.6875 11.4844 28.6875 10.9219 28.0781L1.92188 19.0781C1.3125 18.5156 1.3125 17.5312 1.92188 16.9688ZM19.9219 7.96875C20.4844 7.35938 21.4688 7.35938 22.0312 7.96875C22.6406 8.53125 22.6406 9.51562 22.0312 10.0781L14.1094 18L22.0312 25.9688C22.6406 26.5312 22.6406 27.5156 22.0312 28.0781C21.4688 28.6875 20.4844 28.6875 19.9219 28.0781L10.9219 19.0781C10.3125 18.5156 10.3125 17.5312 10.9219 16.9688L19.9219 7.96875Z" fill="black" fill-opacity="0.72"/>
</g>
<defs>
<clipPath id="clip0_2556_19650">
<rect width="24" height="36" fill="white"/>
</clipPath>
</defs>
</svg>
