<svg width="30" height="36" viewBox="0 0 30 36" fill="none" xmlns="http://www.w3.org/2000/svg">
<g id="label-paired / xl / signal-xl / regular" clip-path="url(#clip0_2556_19436)">
<path id="icon" d="M27.75 6.75V29.25C27.75 29.6719 27.375 30 27 30C26.5781 30 26.25 29.6719 26.25 29.25V6.75C26.25 6.375 26.5781 6 27 6C27.375 6 27.75 6.375 27.75 6.75ZM21 10.5C21.375 10.5 21.75 10.875 21.75 11.25V29.25C21.75 29.6719 21.375 30 21 30C20.5781 30 20.25 29.6719 20.25 29.25V11.25C20.25 10.875 20.5781 10.5 21 10.5ZM15.75 15.75V29.25C15.75 29.6719 15.375 30 15 30C14.5781 30 14.25 29.6719 14.25 29.25V15.75C14.25 15.375 14.5781 15 15 15C15.375 15 15.75 15.375 15.75 15.75ZM9 19.5C9.375 19.5 9.75 19.875 9.75 20.25V29.25C9.75 29.6719 9.375 30 9 30C8.57812 30 8.25 29.6719 8.25 29.25V20.25C8.25 19.875 8.57812 19.5 9 19.5ZM3 24C3.375 24 3.75 24.375 3.75 24.75V29.25C3.75 29.6719 3.375 30 3 30C2.57812 30 2.25 29.6719 2.25 29.25V24.75C2.25 24.375 2.57812 24 3 24Z" fill="black" fill-opacity="0.72"/>
</g>
<defs>
<clipPath id="clip0_2556_19436">
<rect width="30" height="36" fill="white"/>
</clipPath>
</defs>
</svg>
