<svg width="12" height="24" viewBox="0 0 12 24" fill="none" xmlns="http://www.w3.org/2000/svg">
<g id="label-paired / md / file-chart-column-md / regular" clip-path="url(#clip0_2556_15087)">
<path id="icon" d="M10 19C10.5312 19 11 18.5625 11 18V10H7.5C6.65625 10 6 9.34375 6 8.5V5H2C1.4375 5 1 5.46875 1 6V18C1 18.5625 1.4375 19 2 19H10ZM7.5 9H10.9688C10.9375 8.9375 10.9062 8.84375 10.8438 8.78125L7.21875 5.15625C7.15625 5.09375 7.0625 5.0625 7 5.03125V8.5C7 8.78125 7.21875 9 7.5 9ZM2 4H6.875C7.25 4 7.65625 4.1875 7.9375 4.46875L11.5312 8.0625C11.8125 8.34375 12 8.75 12 9.125V18C12 19.125 11.0938 20 10 20H2C0.875 20 0 19.125 0 18V6C0 4.90625 0.875 4 2 4ZM6.5 11.5V17.5C6.5 17.7812 6.25 18 6 18C5.71875 18 5.5 17.7812 5.5 17.5V11.5C5.5 11.25 5.71875 11 6 11C6.25 11 6.5 11.25 6.5 11.5ZM9.5 13.5V17.5C9.5 17.7812 9.25 18 9 18C8.71875 18 8.5 17.7812 8.5 17.5V13.5C8.5 13.25 8.71875 13 9 13C9.25 13 9.5 13.25 9.5 13.5ZM3.5 15.5V17.5C3.5 17.7812 3.25 18 3 18C2.71875 18 2.5 17.7812 2.5 17.5V15.5C2.5 15.25 2.71875 15 3 15C3.25 15 3.5 15.25 3.5 15.5Z" fill="black" fill-opacity="0.72"/>
</g>
<defs>
<clipPath id="clip0_2556_15087">
<rect width="12" height="24" fill="white"/>
</clipPath>
</defs>
</svg>
