<svg width="9" height="18" viewBox="0 0 9 18" fill="none" xmlns="http://www.w3.org/2000/svg">
<g id="label-paired / caption / arrow-down-caption / bold" clip-path="url(#clip0_2556_10364)">
<path id="icon" d="M4.07812 14.5859L0.140625 10.4609C-0.0703125 10.2266 -0.0703125 9.875 0.164062 9.66406C0.398438 9.45312 0.75 9.45312 0.960938 9.6875L3.9375 12.8047V4.8125C3.9375 4.50781 4.17188 4.25 4.5 4.25C4.80469 4.25 5.0625 4.50781 5.0625 4.8125V12.8047L8.01562 9.6875C8.22656 9.45312 8.60156 9.45312 8.8125 9.66406C9.04688 9.875 9.04688 10.2266 8.83594 10.4609L4.89844 14.5859C4.78125 14.7031 4.64062 14.75 4.5 14.75C4.33594 14.75 4.19531 14.7031 4.07812 14.5859Z" fill="black" fill-opacity="0.72"/>
</g>
<defs>
<clipPath id="clip0_2556_10364">
<rect width="9" height="18" fill="white"/>
</clipPath>
</defs>
</svg>
