<svg width="30" height="36" viewBox="0 0 30 36" fill="none" xmlns="http://www.w3.org/2000/svg">
<g id="label-paired / xl / language-xl / fill" clip-path="url(#clip0_2556_19447)">
<path id="icon" d="M0 12C0 10.3594 1.3125 9 3 9H12H14.25H15H27C28.6406 9 30 10.3594 30 12V24C30 25.6875 28.6406 27 27 27H15H14.25H12H3C1.3125 27 0 25.6875 0 24V12ZM15 12V24H27V12H15ZM8.34375 14.25C8.20312 13.9219 7.82812 13.6875 7.5 13.6875C7.125 13.6875 6.75 13.9219 6.60938 14.25L3.60938 21C3.42188 21.4688 3.60938 22.0312 4.07812 22.2656C4.59375 22.4531 5.10938 22.2656 5.34375 21.7969L5.76562 20.8125H9.1875L9.60938 21.7969C9.84375 22.2656 10.4062 22.4531 10.875 22.2656C11.3438 22.0312 11.5312 21.4688 11.3438 21L8.34375 14.25ZM7.5 16.9688L8.39062 18.9375H6.60938L7.5 16.9688ZM21 13.6875C21.5156 13.6875 21.9375 14.1094 21.9375 14.625V14.8125H24H24.75C25.2656 14.8125 25.6875 15.2344 25.6875 15.75C25.6875 16.2656 25.2656 16.6875 24.75 16.6875H24.6562L24.5625 16.9219C24.1406 18.0469 23.5312 19.125 22.6875 19.9688C22.7344 20.0156 22.7812 20.0156 22.8281 20.0625L23.7188 20.5781C24.1406 20.8594 24.2812 21.4219 24.0469 21.8906C23.7656 22.3125 23.2031 22.4531 22.7344 22.2188L21.8906 21.6562C21.6562 21.5625 21.4688 21.4219 21.2344 21.2812C20.7656 21.6094 20.25 21.9375 19.6406 22.1719L19.5 22.2656C19.0312 22.4531 18.4688 22.2656 18.2344 21.7969C18.0469 21.2812 18.2812 20.7656 18.75 20.5312L18.8906 20.4844C19.2188 20.3438 19.5 20.1562 19.7812 20.0156L19.2188 19.4531C18.8438 19.0781 18.8438 18.4688 19.2188 18.0938C19.5469 17.7188 20.1562 17.7188 20.5312 18.0938L21.1875 18.7969H21.2344C21.7969 18.1875 22.2656 17.4844 22.6406 16.6875H21H17.625C17.1094 16.6875 16.6875 16.2656 16.6875 15.75C16.6875 15.2344 17.1094 14.8125 17.625 14.8125H20.0625V14.625C20.0625 14.1094 20.4844 13.6875 21 13.6875Z" fill="black" fill-opacity="0.72"/>
</g>
<defs>
<clipPath id="clip0_2556_19447">
<rect width="30" height="36" fill="white"/>
</clipPath>
</defs>
</svg>
