<svg width="14" height="22" viewBox="0 0 14 22" fill="none" xmlns="http://www.w3.org/2000/svg">
<g id="label-paired / sm / file-doc-sm / regular" clip-path="url(#clip0_2556_12257)">
<path id="icon" d="M1.75 16.875H2.625V17.75H1.75C0.765625 17.75 0 16.9844 0 16V5.5C0 4.54297 0.765625 3.75 1.75 3.75H6.01562C6.34375 3.75 6.69922 3.91406 6.94531 4.16016L10.0898 7.30469C10.3359 7.55078 10.5 7.90625 10.5 8.23438V11.625H9.625V9H6.5625C5.82422 9 5.25 8.42578 5.25 7.6875V4.625H1.75C1.25781 4.625 0.875 5.03516 0.875 5.5V16C0.875 16.4922 1.25781 16.875 1.75 16.875ZM9.59766 8.125C9.57031 8.07031 9.54297 7.98828 9.48828 7.93359L6.31641 4.76172C6.26172 4.70703 6.17969 4.67969 6.125 4.65234V7.6875C6.125 7.93359 6.31641 8.125 6.5625 8.125H9.59766ZM4.8125 13.375H5.6875C6.39844 13.375 7 13.9766 7 14.6875V16.4375C7 17.1758 6.39844 17.75 5.6875 17.75H4.8125C4.56641 17.75 4.375 17.5586 4.375 17.3125V13.8125C4.375 13.5938 4.56641 13.375 4.8125 13.375ZM5.25 16.875H5.6875C5.90625 16.875 6.125 16.6836 6.125 16.4375V14.6875C6.125 14.4688 5.90625 14.25 5.6875 14.25H5.25V16.875ZM12.4688 13.375H12.9062C13.5078 13.375 14 13.8672 14 14.4688V14.6875C14 14.9336 13.7812 15.125 13.5625 15.125C13.3164 15.125 13.125 14.9336 13.125 14.6875V14.4688C13.125 14.3594 13.0156 14.25 12.9062 14.25H12.4688C12.332 14.25 12.25 14.3594 12.25 14.4688V16.6562C12.25 16.793 12.332 16.875 12.4688 16.875H12.9062C13.0156 16.875 13.125 16.793 13.125 16.6562V16.4375C13.125 16.2188 13.3164 16 13.5625 16C13.7812 16 14 16.2188 14 16.4375V16.6562C14 17.2852 13.5078 17.75 12.9062 17.75H12.4688C11.8398 17.75 11.375 17.2852 11.375 16.6562V14.4688C11.375 13.8672 11.8398 13.375 12.4688 13.375ZM7.875 14.4688C7.875 13.8672 8.33984 13.375 8.96875 13.375H9.40625C10.0078 13.375 10.5 13.8672 10.5 14.4688V16.6562C10.5 17.2852 10.0078 17.75 9.40625 17.75H8.96875C8.33984 17.75 7.875 17.2852 7.875 16.6562V14.4688ZM8.96875 14.25C8.83203 14.25 8.75 14.3594 8.75 14.4688V16.6562C8.75 16.793 8.83203 16.875 8.96875 16.875H9.40625C9.51562 16.875 9.625 16.793 9.625 16.6562V14.4688C9.625 14.3594 9.51562 14.25 9.40625 14.25H8.96875Z" fill="black" fill-opacity="0.72"/>
</g>
<defs>
<clipPath id="clip0_2556_12257">
<rect width="14" height="22" fill="white"/>
</clipPath>
</defs>
</svg>
