<svg width="20" height="30" viewBox="0 0 20 30" fill="none" xmlns="http://www.w3.org/2000/svg">
<g id="label-paired / lg / phone-lg / bold" clip-path="url(#clip0_2556_17160)">
<path id="icon" d="M14.6484 16.2812L19.0234 18.1562C19.7266 18.4297 20.1172 19.1719 19.9609 19.9141L19.0234 24.2891C18.8672 24.9922 18.2031 25.5391 17.5 25.5391C17.2266 25.5391 16.9922 25.5 16.7578 25.5C16.3672 25.5 15.9766 25.4609 15.625 25.4219C6.83594 24.4844 0 17.0625 0 8C0 7.29688 0.507812 6.63281 1.21094 6.47656L5.58594 5.53906C6.32812 5.38281 7.07031 5.77344 7.34375 6.47656L9.21875 10.8516C9.49219 11.4766 9.33594 12.2188 8.78906 12.6484L7.1875 13.9766C8.24219 15.7734 9.72656 17.2578 11.5234 18.3125L12.8516 16.7109C13.2812 16.1641 14.0234 16.0078 14.6484 16.2812ZM17.2266 23.625L18.0469 19.7578L14.1406 18.0781L13.0078 19.4844C12.4219 20.1875 11.4062 20.3828 10.5859 19.9141C8.51562 18.7031 6.79688 16.9844 5.58594 14.9141C5.11719 14.0938 5.3125 13.0781 6.01562 12.4922L7.42188 11.3594L5.74219 7.45312L1.875 8.27344C1.99219 16.7109 8.78906 23.5078 17.2266 23.625Z" fill="black" fill-opacity="0.72"/>
</g>
<defs>
<clipPath id="clip0_2556_17160">
<rect width="20" height="30" fill="white"/>
</clipPath>
</defs>
</svg>
