<svg width="16" height="24" viewBox="0 0 16 24" fill="none" xmlns="http://www.w3.org/2000/svg">
<g id="label-paired / md / fingerprint-md / fill" clip-path="url(#clip0_2556_14885)">
<path id="icon" d="M1.5 12V13.25C1.5 13.6875 1.15625 14 0.75 14C0.3125 14 0 13.6875 0 13.25V12C0 7.59375 3.5625 4 8 4C10.4062 4 12.5938 5.09375 14.0625 6.8125C14.3125 7.125 14.2812 7.59375 13.9688 7.875C13.6562 8.125 13.1875 8.09375 12.9062 7.78125C11.7188 6.40625 9.96875 5.5 8 5.5C4.40625 5.5 1.5 8.4375 1.5 12ZM15.8125 10.375C15.9375 10.9062 16 11.4375 16 12V13.2812C16 13.6875 15.6562 14.0312 15.25 14.0312C14.8125 14.0312 14.5 13.6875 14.5 13.2812V12.0312C14.5 11.5625 14.4375 11.0938 14.3438 10.6562C14.25 10.2812 14.5312 9.875 14.9375 9.78125C15.3438 9.6875 15.7188 9.96875 15.8125 10.375ZM8 6.5C11.0312 6.5 13.5 8.96875 13.5 12V12.7812C13.5 13.6562 13.4375 14.5312 13.3438 15.375C13.2812 15.75 12.9688 16 12.5938 16C12.1562 16 11.7812 15.5938 11.8438 15.1562C11.9375 14.375 12 13.5938 12 12.7812V12C12 9.8125 10.1875 8 8 8C7.625 8 7.28125 8.0625 6.9375 8.15625C6.625 8.25 6.25 8.15625 6.03125 7.90625C5.6875 7.53125 5.8125 6.9375 6.28125 6.78125C6.8125 6.59375 7.40625 6.5 8 6.5ZM4.6875 8.65625C4.9375 8.96875 4.9375 9.40625 4.6875 9.71875C4.25 10.375 4 11.1562 4 12V12.7812C4 13.6875 3.875 14.5938 3.6875 15.4688C3.625 15.7812 3.3125 16 3 16C2.5 16 2.125 15.5312 2.25 15.0312C2.40625 14.3125 2.5 13.5625 2.5 12.7812V12C2.5 10.75 2.90625 9.5625 3.625 8.65625C3.90625 8.3125 4.40625 8.34375 4.6875 8.65625ZM8 9C9.65625 9 11 10.3438 11 12V12.7812C11 14.0312 10.875 15.2812 10.625 16.4688C10.5625 16.7812 10.2812 17 9.96875 17C9.53125 17 9.1875 16.5938 9.28125 16.1562C9.5 15.0625 9.625 13.9375 9.625 12.7812V12C9.625 11.125 8.875 10.375 8 10.375C7.09375 10.375 6.375 11.125 6.375 12V12.7812C6.375 14.0625 6.1875 15.3125 5.875 16.5312C5.78125 16.8125 5.53125 17 5.21875 17C4.75 17 4.4375 16.5625 4.5625 16.0938C4.84375 15.0312 5 13.9062 5 12.7812V12C5 10.3438 6.34375 9 8 9ZM8.75 12V12.7812C8.75 14.8438 8.34375 16.875 7.625 18.8125L7.4375 19.2812C7.28125 19.6562 6.84375 19.875 6.46875 19.7188C6.09375 19.5625 5.875 19.125 6.03125 18.75L6.21875 18.2812C6.90625 16.5312 7.25 14.6562 7.25 12.7812V12C7.25 11.5938 7.5625 11.25 8 11.25C8.40625 11.25 8.75 11.5938 8.75 12Z" fill="black" fill-opacity="0.72"/>
</g>
<defs>
<clipPath id="clip0_2556_14885">
<rect width="16" height="24" fill="white"/>
</clipPath>
</defs>
</svg>
