<svg width="20" height="30" viewBox="0 0 20 30" fill="none" xmlns="http://www.w3.org/2000/svg">
<g id="label-paired / lg / right-to-bracket-lg / bold" clip-path="url(#clip0_2556_17537)">
<path id="icon" d="M7.5 19.7969L11.7969 15.5L7.5 11.2422V13.3125C7.5 13.8594 7.07031 14.25 6.5625 14.25H1.875V16.75H6.5625C7.07031 16.75 7.5 17.1797 7.5 17.6875V19.7969ZM13.75 15.5C13.75 15.9688 13.5547 16.3984 13.2422 16.7109L8.71094 21.2422C8.35938 21.5938 7.89062 21.75 7.42188 21.75C6.40625 21.75 5.625 20.9688 5.625 19.9531V18.625H1.875C0.820312 18.625 0 17.8047 0 16.75V14.25C0 13.2344 0.820312 12.375 1.875 12.375H5.625V11.0859C5.625 10.0703 6.40625 9.25 7.42188 9.25C7.89062 9.25 8.35938 9.44531 8.71094 9.79688L13.2422 14.3281C13.5547 14.6406 13.75 15.0703 13.75 15.5ZM13.4375 22.375H16.5625C17.4219 22.375 18.125 21.7109 18.125 20.8125V10.1875C18.125 9.32812 17.4219 8.625 16.5625 8.625H13.4375C12.8906 8.625 12.5 8.23438 12.5 7.6875C12.5 7.17969 12.8906 6.75 13.4375 6.75H16.5625C18.4375 6.75 20 8.3125 20 10.1875V20.8125C20 22.7266 18.4375 24.25 16.5625 24.25H13.4375C12.8906 24.25 12.5 23.8594 12.5 23.3125C12.5 22.8047 12.8906 22.375 13.4375 22.375Z" fill="black" fill-opacity="0.72"/>
</g>
<defs>
<clipPath id="clip0_2556_17537">
<rect width="20" height="30" fill="white"/>
</clipPath>
</defs>
</svg>
