<svg width="18" height="30" viewBox="0 0 18 30" fill="none" xmlns="http://www.w3.org/2000/svg">
<g id="label-paired / lg / arrow-left-to-line-lg / regular" clip-path="url(#clip0_2556_17380)">
<path id="icon" d="M0.25 22.375V8.625C0.25 8.3125 0.523438 8 0.875 8C1.1875 8 1.5 8.3125 1.5 8.625V22.375C1.5 22.7266 1.1875 23 0.875 23C0.523438 23 0.25 22.7266 0.25 22.375ZM4.15625 15.0703L9.15625 10.0703C9.39062 9.83594 9.82031 9.83594 10.0547 10.0703C10.2891 10.3047 10.2891 10.7344 10.0547 10.9688L6.10938 14.875H10.25H17.125C17.4375 14.875 17.75 15.1875 17.75 15.5C17.75 15.8516 17.4375 16.125 17.125 16.125H10.25H6.10938L10.0547 20.0703C10.2891 20.3047 10.2891 20.7344 10.0547 20.9688C9.82031 21.2031 9.39062 21.2031 9.15625 20.9688L4.15625 15.9688C3.92188 15.7344 3.92188 15.3047 4.15625 15.0703Z" fill="black" fill-opacity="0.72"/>
</g>
<defs>
<clipPath id="clip0_2556_17380">
<rect width="18" height="30" fill="white"/>
</clipPath>
</defs>
</svg>
