<svg width="11" height="18" viewBox="0 0 11 18" fill="none" xmlns="http://www.w3.org/2000/svg">
<g id="label-paired / caption / user-caption / fill" clip-path="url(#clip0_2556_10390)">
<path id="icon" d="M5.5 9.5C4.42188 9.5 3.4375 8.9375 2.89844 8C2.35938 7.08594 2.35938 5.9375 2.89844 5C3.4375 4.08594 4.42188 3.5 5.5 3.5C6.55469 3.5 7.53906 4.08594 8.07812 5C8.61719 5.9375 8.61719 7.08594 8.07812 8C7.53906 8.9375 6.55469 9.5 5.5 9.5ZM4.42188 10.625H6.55469C8.875 10.625 10.75 12.5 10.75 14.8203C10.75 15.1953 10.4219 15.5 10.0469 15.5H0.929688C0.554688 15.5 0.25 15.1953 0.25 14.8203C0.25 12.5 2.10156 10.625 4.42188 10.625Z" fill="black" fill-opacity="0.72"/>
</g>
<defs>
<clipPath id="clip0_2556_10390">
<rect width="11" height="18" fill="white"/>
</clipPath>
</defs>
</svg>
