<svg width="16" height="24" viewBox="0 0 16 24" fill="none" xmlns="http://www.w3.org/2000/svg">
<g id="label-paired / md / circle-question-md / fill" clip-path="url(#clip0_3578_728)">
<path id="icon" d="M8 20C5.125 20 2.5 18.5 1.0625 16C-0.375 13.5312 -0.375 10.5 1.0625 8C2.5 5.53125 5.125 4 8 4C10.8438 4 13.4688 5.53125 14.9062 8C16.3438 10.5 16.3438 13.5312 14.9062 16C13.4688 18.5 10.8438 20 8 20ZM5.28125 9.1875V9.21875C5.15625 9.59375 5.34375 10.0312 5.75 10.1875C6.125 10.3125 6.5625 10.125 6.6875 9.71875L6.71875 9.6875C6.75 9.59375 6.84375 9.53125 6.9375 9.53125H8.75C9.03125 9.53125 9.25 9.71875 9.25 10C9.25 10.1562 9.15625 10.3125 9 10.4062L7.625 11.1875C7.375 11.3125 7.25 11.5625 7.25 11.8438V12.25C7.25 12.6875 7.5625 13 8 13C8.40625 13 8.71875 12.6875 8.75 12.2812L9.75 11.6875C10.3438 11.3438 10.75 10.6875 10.75 10C10.75 8.90625 9.84375 8 8.75 8H6.9375C6.1875 8 5.53125 8.46875 5.28125 9.1875ZM7 15C7 15.5625 7.4375 16 8 16C8.53125 16 9 15.5625 9 15C9 14.4688 8.53125 14 8 14C7.4375 14 7 14.4688 7 15Z" fill="black" fill-opacity="0.72"/>
</g>
<defs>
<clipPath id="clip0_3578_728">
<rect width="16" height="24" fill="white"/>
</clipPath>
</defs>
</svg>
