<svg width="9" height="22" viewBox="0 0 9 22" fill="none" xmlns="http://www.w3.org/2000/svg">
<g id="label-paired / sm / forward-step-sm / fill" clip-path="url(#clip0_2556_12612)">
<path id="icon" d="M1.54688 15.8086C1.30078 16.0273 0.917969 16.082 0.617188 15.918C0.316406 15.7812 0.125 15.4805 0.125 15.125V6.375C0.125 6.04688 0.316406 5.74609 0.617188 5.58203C0.917969 5.44531 1.27344 5.5 1.54688 5.71875L6.79688 10.0938L7.125 10.3398V6.375C7.125 5.91016 7.50781 5.5 8 5.5C8.46484 5.5 8.875 5.91016 8.875 6.375V15.125C8.875 15.6172 8.46484 16 8 16C7.50781 16 7.125 15.6172 7.125 15.125V11.1602L6.79688 11.4336L1.54688 15.8086Z" fill="black" fill-opacity="0.72"/>
</g>
<defs>
<clipPath id="clip0_2556_12612">
<rect width="9" height="22" fill="white"/>
</clipPath>
</defs>
</svg>
