<svg width="23" height="30" viewBox="0 0 23 30" fill="none" xmlns="http://www.w3.org/2000/svg">
<g id="label-paired / lg / house-user-lg / fill" clip-path="url(#clip0_4670_658)">
<path id="icon" d="M22.7109 15.5C22.7109 16.2031 22.125 16.75 21.4609 16.75H20.2109L20.25 23C20.25 24.4062 19.1562 25.5391 17.75 25.5391H5.25C3.84375 25.5391 2.75 24.4062 2.75 23.0391V16.75H1.5C0.796875 16.75 0.25 16.2031 0.25 15.5C0.25 15.1484 0.367188 14.8359 0.640625 14.5625L10.6406 5.8125C10.9141 5.53906 11.2266 5.5 11.5 5.5C11.7734 5.5 12.0859 5.57812 12.3203 5.77344L22.2812 14.5625C22.5938 14.8359 22.75 15.1484 22.7109 15.5ZM14 14.25C14 13.3906 13.4922 12.5703 12.75 12.1016C11.9688 11.6719 10.9922 11.6719 10.25 12.1016C9.46875 12.5703 9 13.3906 9 14.25C9 15.1484 9.46875 15.9688 10.25 16.4375C10.9922 16.8672 11.9688 16.8672 12.75 16.4375C13.4922 15.9688 14 15.1484 14 14.25ZM10.25 18C8.49219 18 7.125 19.4062 7.125 21.125C7.125 21.4766 7.39844 21.75 7.75 21.75H15.25C15.5625 21.75 15.875 21.4766 15.875 21.125C15.875 19.4062 14.4688 18 12.75 18H10.25Z" fill="black" fill-opacity="0.72"/>
</g>
<defs>
<clipPath id="clip0_4670_658">
<rect width="23" height="30" fill="white"/>
</clipPath>
</defs>
</svg>
