<svg width="18" height="22" viewBox="0 0 18 22" fill="none" xmlns="http://www.w3.org/2000/svg">
<g id="label-paired / sm / lock-pattern-sm / fill" clip-path="url(#clip0_2512_1305)">
<path id="icon" d="M2 5.5C2 4.54297 2.76562 3.75 3.75 3.75C4.37891 3.75 4.95312 4.10547 5.25391 4.625H7.46875C7.76953 4.10547 8.34375 3.75 9 3.75C9.62891 3.75 10.2031 4.10547 10.5039 4.625H12.7188C13.0195 4.10547 13.5938 3.75 14.25 3.75C15.207 3.75 16 4.54297 16 5.5C16 6.48438 15.207 7.25 14.25 7.25C14.0859 7.25 13.9219 7.25 13.7852 7.19531L10.668 10.3125C10.7227 10.4492 10.75 10.6133 10.75 10.75C10.75 11.7344 9.95703 12.5 9 12.5C8.83594 12.5 8.67188 12.5 8.53516 12.4453L5.85547 15.125H7.46875C7.76953 14.6055 8.34375 14.25 9 14.25C9.62891 14.25 10.2031 14.6055 10.5039 15.125H12.7188C13.0195 14.6055 13.5938 14.25 14.2227 14.25C15.207 14.25 15.9727 15.043 15.9727 16C15.9727 16.9844 15.207 17.75 14.2227 17.75C13.5938 17.75 13.0195 17.4219 12.7188 16.875H10.5039C10.2031 17.4219 9.62891 17.75 8.97266 17.75C8.34375 17.75 7.76953 17.4219 7.46875 16.875H5.25391C4.95312 17.4219 4.37891 17.75 3.75 17.75C2.76562 17.75 2 16.9844 2 16C2 15.043 2.76562 14.25 3.75 14.25C3.88672 14.25 4.05078 14.2773 4.1875 14.332L7.30469 11.2148C7.25 11.0781 7.22266 10.9141 7.22266 10.75C7.22266 9.79297 8.01562 9 8.97266 9C9.13672 9 9.30078 9.02734 9.4375 9.08203L12.1172 6.375H10.5039C10.2031 6.92188 9.62891 7.25 8.97266 7.25C8.34375 7.25 7.76953 6.92188 7.46875 6.375H5.25391C4.95312 6.92188 4.37891 7.25 3.75 7.25C2.76562 7.25 2 6.48438 2 5.5ZM2 10.75C2 11.3789 2.32812 11.9531 2.875 12.2812C3.39453 12.582 4.07812 12.582 4.625 12.2812C5.14453 11.9531 5.5 11.3789 5.5 10.75C5.5 10.1484 5.14453 9.57422 4.625 9.24609C4.07812 8.94531 3.39453 8.94531 2.875 9.24609C2.32812 9.57422 2 10.1484 2 10.75ZM12.5 10.75C12.5 11.3789 12.8281 11.9531 13.375 12.2812C13.8945 12.582 14.5781 12.582 15.125 12.2812C15.6445 11.9531 16 11.3789 16 10.75C16 10.1484 15.6445 9.57422 15.125 9.24609C14.5781 8.94531 13.8945 8.94531 13.375 9.24609C12.8281 9.57422 12.5 10.1484 12.5 10.75Z" fill="black" fill-opacity="0.72"/>
</g>
<defs>
<clipPath id="clip0_2512_1305">
<rect width="18" height="22" fill="white"/>
</clipPath>
</defs>
</svg>
