<svg width="16" height="24" viewBox="0 0 16 24" fill="none" xmlns="http://www.w3.org/2000/svg">
<g id="label-paired / md / shield-check-md / fill" clip-path="url(#clip0_2556_14663)">
<path id="icon" d="M8.40625 4.09375L14.2812 6.59375C14.9688 6.90625 15.5 7.5625 15.5 8.375C15.4688 11.5 14.1875 17.1562 8.8125 19.75C8.28125 20 7.6875 20 7.15625 19.75C1.78125 17.1562 0.5 11.5 0.5 8.375C0.46875 7.5625 1 6.90625 1.6875 6.59375L7.5625 4.09375C7.6875 4.03125 7.84375 4 8 4C8.125 4 8.28125 4.03125 8.40625 4.09375ZM9.75 10.5C9.75 9.5625 8.9375 8.75 8 8.75C7.03125 8.75 6.25 9.5625 6.25 10.5C6.25 11.2188 6.65625 11.8125 7.25 12.0938V14.25C7.25 14.6875 7.5625 15 8 15C8.40625 15 8.75 14.6875 8.75 14.25V12.0938C9.3125 11.8125 9.75 11.2188 9.75 10.5Z" fill="black" fill-opacity="0.72"/>
</g>
<defs>
<clipPath id="clip0_2556_14663">
<rect width="16" height="24" fill="white"/>
</clipPath>
</defs>
</svg>
