<svg width="15" height="18" viewBox="0 0 15 18" fill="none" xmlns="http://www.w3.org/2000/svg">
<g id="label-paired / caption / bell-slash-caption / bold" clip-path="url(#clip0_2556_10504)">
<path id="icon" d="M0.890625 3.64062L4.35938 6.33594C4.89844 5.51562 5.74219 4.90625 6.75 4.71875V4.25C6.75 3.85156 7.07812 3.5 7.5 3.5C7.89844 3.5 8.25 3.85156 8.25 4.25V4.71875C9.96094 5.04688 11.25 6.57031 11.25 8.375V8.98438C11.25 10.0391 11.6016 11.0703 12.2578 11.9141L12.6094 12.3359C12.7266 12.5 12.7734 12.7109 12.7031 12.875L14.7656 14.5156C15.0234 14.7031 15.0703 15.0547 14.8594 15.2891C14.6719 15.5469 14.3203 15.5938 14.0859 15.3828L0.210938 4.50781C-0.046875 4.32031 -0.09375 3.96875 0.117188 3.73438C0.304688 3.47656 0.65625 3.42969 0.890625 3.64062ZM5.25 7.03906L10.5469 11.1875C10.2656 10.5078 10.125 9.75781 10.125 8.98438V8.375C10.125 6.94531 8.92969 5.75 7.5 5.75C6.53906 5.75 5.69531 6.26562 5.25 7.03906ZM9.51562 13.25H2.8125C2.57812 13.25 2.39062 13.1328 2.29688 12.9453C2.20312 12.7578 2.22656 12.5234 2.36719 12.3359L2.71875 11.9141C3.375 11.0703 3.75 10.0391 3.75 8.98438V8.72656L4.82812 9.57031C4.73438 10.4844 4.42969 11.375 3.9375 12.125H8.08594L9.51562 13.25ZM9 14C9 14.3984 8.83594 14.7969 8.55469 15.0781C8.27344 15.3594 7.89844 15.5 7.5 15.5C7.10156 15.5 6.70312 15.3594 6.42188 15.0781C6.14062 14.7969 6 14.3984 6 14H7.5H9Z" fill="black" fill-opacity="0.72"/>
</g>
<defs>
<clipPath id="clip0_2556_10504">
<rect width="15" height="18" fill="white"/>
</clipPath>
</defs>
</svg>
