<svg width="11" height="18" viewBox="0 0 11 18" fill="none" xmlns="http://www.w3.org/2000/svg">
<g id="label-paired / caption / memo-pad-caption / bold" clip-path="url(#clip0_2981_634)">
<path id="icon" d="M9.625 6.5H1.375V14C1.375 14.2109 1.53906 14.375 1.75 14.375H9.25C9.4375 14.375 9.625 14.2109 9.625 14V6.5ZM1.75 3.5H9.25C10.0703 3.5 10.75 4.17969 10.75 5V14C10.75 14.8438 10.0703 15.5 9.25 15.5H1.75C0.90625 15.5 0.25 14.8438 0.25 14V5C0.25 4.17969 0.90625 3.5 1.75 3.5ZM2.5 8.1875C2.5 7.88281 2.73438 7.625 3.0625 7.625H7.9375C8.24219 7.625 8.5 7.88281 8.5 8.1875C8.5 8.51562 8.24219 8.75 7.9375 8.75H3.0625C2.73438 8.75 2.5 8.51562 2.5 8.1875ZM2.5 10.4375C2.5 10.1328 2.73438 9.875 3.0625 9.875H7.9375C8.24219 9.875 8.5 10.1328 8.5 10.4375C8.5 10.7656 8.24219 11 7.9375 11H3.0625C2.73438 11 2.5 10.7656 2.5 10.4375ZM2.5 12.6875C2.5 12.3828 2.73438 12.125 3.0625 12.125H5.6875C5.99219 12.125 6.25 12.3828 6.25 12.6875C6.25 13.0156 5.99219 13.25 5.6875 13.25H3.0625C2.73438 13.25 2.5 13.0156 2.5 12.6875Z" fill="black" fill-opacity="0.72"/>
</g>
<defs>
<clipPath id="clip0_2981_634">
<rect width="11" height="18" fill="white"/>
</clipPath>
</defs>
</svg>
