<svg width="11" height="22" viewBox="0 0 11 22" fill="none" xmlns="http://www.w3.org/2000/svg">
<g id="label-paired / sm / arrow-up-to-line-sm / regular" clip-path="url(#clip0_2556_12639)">
<path id="icon" d="M0.6875 4.625H10.3125C10.5312 4.625 10.75 4.84375 10.75 5.0625C10.75 5.30859 10.5312 5.5 10.3125 5.5H0.6875C0.441406 5.5 0.25 5.30859 0.25 5.0625C0.25 4.84375 0.441406 4.625 0.6875 4.625ZM5.80078 7.38672L9.30078 10.8867C9.46484 11.0508 9.46484 11.3516 9.30078 11.5156C9.13672 11.6797 8.83594 11.6797 8.67188 11.5156L5.9375 8.75391V11.625V16.4375C5.9375 16.6836 5.71875 16.875 5.5 16.875C5.25391 16.875 5.0625 16.6836 5.0625 16.4375V11.625V8.75391L2.30078 11.5156C2.13672 11.6797 1.83594 11.6797 1.67188 11.5156C1.50781 11.3516 1.50781 11.0508 1.67188 10.8867L5.17188 7.38672C5.33594 7.22266 5.63672 7.22266 5.80078 7.38672Z" fill="black" fill-opacity="0.72"/>
</g>
<defs>
<clipPath id="clip0_2556_12639">
<rect width="11" height="22" fill="white"/>
</clipPath>
</defs>
</svg>
