<svg width="14" height="22" viewBox="0 0 14 22" fill="none" xmlns="http://www.w3.org/2000/svg">
<g id="label-paired / sm / bank-sm / regular" clip-path="url(#clip0_2362_655)">
<path id="icon" d="M7.21875 3.80469L13.5625 7.41406C13.8359 7.57812 13.9818 7.82422 14 8.15234C14 8.38932 13.918 8.58984 13.7539 8.75391C13.5898 8.91797 13.3893 9 13.1523 9H7H0.847656C0.610677 9 0.410156 8.91797 0.246094 8.75391C0.0820312 8.58984 0 8.38932 0 8.15234C0.0182292 7.82422 0.164062 7.57812 0.4375 7.41406L6.78125 3.80469C6.92708 3.73177 7.07292 3.73177 7.21875 3.80469ZM8.39453 8.125H13.0703L7 4.67969L0.929688 8.125H5.60547C5.51432 7.92448 5.46875 7.70573 5.46875 7.46875C5.48698 7.03125 5.63281 6.66667 5.90625 6.375C6.19792 6.10156 6.5625 5.95573 7 5.9375C7.4375 5.95573 7.80208 6.10156 8.09375 6.375C8.36719 6.66667 8.51302 7.03125 8.53125 7.46875C8.53125 7.70573 8.48568 7.92448 8.39453 8.125ZM7 6.8125C6.59896 6.84896 6.38021 7.06771 6.34375 7.46875C6.38021 7.86979 6.59896 8.08854 7 8.125C7.40104 8.08854 7.61979 7.86979 7.65625 7.46875C7.61979 7.06771 7.40104 6.84896 7 6.8125ZM1.75 13.375V9.875H2.625V13.375H4.8125V9.875H5.6875V13.375H8.3125V9.875H9.1875V13.375H11.375V9.875H12.25V13.375C12.5234 13.3932 12.6693 13.5391 12.6875 13.8125C12.6693 14.0859 12.5234 14.2318 12.25 14.25H1.75C1.47656 14.2318 1.33073 14.0859 1.3125 13.8125C1.33073 13.5391 1.47656 13.3932 1.75 13.375ZM1.09375 15.125H12.9062C13.1797 15.1432 13.3255 15.2891 13.3438 15.5625C13.3255 15.8359 13.1797 15.9818 12.9062 16H1.09375C0.820312 15.9818 0.674479 15.8359 0.65625 15.5625C0.674479 15.2891 0.820312 15.1432 1.09375 15.125ZM0.4375 16.875H13.5625C13.8359 16.8932 13.9818 17.0391 14 17.3125C13.9818 17.5859 13.8359 17.7318 13.5625 17.75H0.4375C0.164062 17.7318 0.0182292 17.5859 0 17.3125C0.0182292 17.0391 0.164062 16.8932 0.4375 16.875Z" fill="black" fill-opacity="0.72"/>
</g>
<defs>
<clipPath id="clip0_2362_655">
<rect width="14" height="22" fill="white"/>
</clipPath>
</defs>
</svg>
