<svg width="12" height="18" viewBox="0 0 12 18" fill="none" xmlns="http://www.w3.org/2000/svg">
<g id="label-paired / caption / playback-speed-caption / fill" clip-path="url(#clip0_3758_774)">
<path id="icon" d="M11.8125 9.5C11.8125 12.4766 9.58594 14.9141 6.75 15.2656V14.1406C8.97656 13.7891 10.6875 11.8438 10.6875 9.5C10.6875 7.17969 8.97656 5.23438 6.75 4.88281V3.73438C9.58594 4.10938 11.8125 6.54688 11.8125 9.5ZM3.25781 5.70312L2.4375 4.90625C3.23438 4.29688 4.19531 3.875 5.25 3.73438V4.88281C4.5 5 3.82031 5.28125 3.25781 5.70312ZM2.17969 6.75781C1.75781 7.34375 1.47656 8.02344 1.35938 8.75H0.234375C0.351562 7.71875 0.773438 6.75781 1.38281 5.96094L2.17969 6.75781ZM2.17969 12.2422L1.38281 13.0625C0.773438 12.2656 0.351562 11.3047 0.234375 10.25H1.35938C1.47656 11 1.75781 11.6797 2.17969 12.2422ZM3.25781 13.3203C3.82031 13.7188 4.5 14.0234 5.25 14.1406V15.2656C4.19531 15.1484 3.23438 14.7266 2.4375 14.1172L3.25781 13.3203ZM4.59375 6.38281C4.78125 6.28906 5.01562 6.3125 5.17969 6.42969L8.92969 9.05469C9.09375 9.14844 9.16406 9.33594 9.16406 9.5C9.16406 9.6875 9.09375 9.875 8.92969 9.96875L5.17969 12.5938C5.01562 12.7109 4.78125 12.7344 4.59375 12.6406C4.42969 12.5469 4.3125 12.3359 4.3125 12.125V6.875C4.3125 6.6875 4.42969 6.47656 4.59375 6.38281Z" fill="black" fill-opacity="0.72"/>
</g>
<defs>
<clipPath id="clip0_3758_774">
<rect width="12" height="18" fill="white"/>
</clipPath>
</defs>
</svg>
