<svg width="23" height="30" viewBox="0 0 23 30" fill="none" xmlns="http://www.w3.org/2000/svg">
<g id="label-paired / lg / share-from-square-lg / bold" clip-path="url(#clip0_3997_656)">
<path id="icon" d="M15.875 15.5L20.0156 11.75L15.875 8.03906V8.625V9.875C15.875 10.2266 15.5625 10.5 15.25 10.5H14H13.375H11.5C9.07812 10.5 7.125 12.4922 7.125 14.875C7.125 15.3438 7.16406 15.7734 7.32031 16.125C7.86719 14.3281 9.54688 13 11.5391 13H13.375H14H15.25C15.5625 13 15.875 13.3125 15.875 13.625V14.875V15.5ZM13.375 14.875H12.125H11.5391C10.1328 14.875 9 16.0469 9 17.4531C9 17.8047 9.03906 18.0781 9.15625 18.3125C9.23438 18.4297 9.27344 18.5469 9.35156 18.6641C9.39062 18.7031 9.42969 18.7422 9.42969 18.7812C9.46875 18.8203 9.50781 18.8203 9.54688 18.8594C9.625 18.9375 9.66406 18.9766 9.74219 19.0156C9.74219 19.0547 9.78125 19.0547 9.78125 19.0547C10.0156 19.25 10.25 19.5234 10.25 19.8359C10.25 20.1875 9.9375 20.5 9.54688 20.5H9.42969C9.35156 20.5 9.23438 20.5 9.15625 20.4609C9.07812 20.4219 8.96094 20.3828 8.84375 20.3047C8.72656 20.2266 8.57031 20.1484 8.375 20.0703C8.17969 19.9141 7.94531 19.7969 7.71094 19.6016C6.57812 18.7812 5.25 17.2578 5.25 14.875C5.25 11.4375 8.02344 8.625 11.5 8.625H12.125H13.375H14V6.86719C14 6.125 14.5859 5.5 15.3281 5.5C15.6797 5.5 15.9922 5.65625 16.2266 5.85156L21.6562 10.7344C21.9297 11.0078 22.125 11.3594 22.125 11.75C22.125 12.1797 21.9297 12.5312 21.6562 12.8047L16.2266 17.6875C15.9922 17.9219 15.6797 18 15.3672 18H15.25C14.5469 18 14 17.4531 14 16.75V14.875H13.375ZM3.0625 6.75H5.5625C6.07031 6.75 6.5 7.17969 6.5 7.6875C6.5 8.23438 6.07031 8.625 5.5625 8.625H3.0625C2.51562 8.625 2.125 9.05469 2.125 9.5625V22.6875C2.125 23.2344 2.51562 23.625 3.0625 23.625H16.1875C16.6953 23.625 17.125 23.2344 17.125 22.6875V20.1875C17.125 19.6797 17.5156 19.25 18.0625 19.25C18.5703 19.25 19 19.6797 19 20.1875V22.6875C19 24.25 17.7109 25.5 16.1875 25.5H3.0625C1.5 25.5 0.25 24.25 0.25 22.6875V9.5625C0.25 8.03906 1.5 6.75 3.0625 6.75Z" fill="black" fill-opacity="0.72"/>
</g>
<defs>
<clipPath id="clip0_3997_656">
<rect width="23" height="30" fill="white"/>
</clipPath>
</defs>
</svg>
