<svg width="16" height="24" viewBox="0 0 16 24" fill="none" xmlns="http://www.w3.org/2000/svg">
<g id="label-paired / md / circle-dot-md / bold" clip-path="url(#clip0_2556_14998)">
<path id="icon" d="M14.5 12C14.5 9.6875 13.25 7.5625 11.25 6.375C9.21875 5.21875 6.75 5.21875 4.75 6.375C2.71875 7.5625 1.5 9.6875 1.5 12C1.5 14.3438 2.71875 16.4688 4.75 17.6562C6.75 18.8125 9.21875 18.8125 11.25 17.6562C13.25 16.4688 14.5 14.3438 14.5 12ZM0 12C0 9.15625 1.5 6.53125 4 5.09375C6.46875 3.65625 9.5 3.65625 12 5.09375C14.4688 6.53125 16 9.15625 16 12C16 14.875 14.4688 17.5 12 18.9375C9.5 20.375 6.46875 20.375 4 18.9375C1.5 17.5 0 14.875 0 12ZM8 9C9.0625 9 10.0312 9.59375 10.5938 10.5C11.125 11.4375 11.125 12.5938 10.5938 13.5C10.0312 14.4375 9.0625 15 8 15C6.90625 15 5.9375 14.4375 5.375 13.5C4.84375 12.5938 4.84375 11.4375 5.375 10.5C5.9375 9.59375 6.90625 9 8 9Z" fill="black" fill-opacity="0.72"/>
</g>
<defs>
<clipPath id="clip0_2556_14998">
<rect width="16" height="24" fill="white"/>
</clipPath>
</defs>
</svg>
