<svg width="11" height="22" viewBox="0 0 11 22" fill="none" xmlns="http://www.w3.org/2000/svg">
<g id="label-paired / sm / computer-mouse-scrollwheel-sm / fill" clip-path="url(#clip0_2556_12742)">
<path id="icon" d="M4.625 3.75H6.375C8.78125 3.75 10.75 5.71875 10.75 8.125V13.375C10.75 15.8086 8.78125 17.75 6.375 17.75H4.625C2.19141 17.75 0.25 15.8086 0.25 13.375V8.125C0.25 5.71875 2.19141 3.75 4.625 3.75ZM6.375 7.25C6.375 6.78516 5.96484 6.375 5.5 6.375C5.00781 6.375 4.625 6.78516 4.625 7.25V8.125C4.625 8.61719 5.00781 9 5.5 9C5.96484 9 6.375 8.61719 6.375 8.125V7.25Z" fill="black" fill-opacity="0.72"/>
</g>
<defs>
<clipPath id="clip0_2556_12742">
<rect width="11" height="22" fill="white"/>
</clipPath>
</defs>
</svg>
