<svg width="15" height="18" viewBox="0 0 15 18" fill="none" xmlns="http://www.w3.org/2000/svg">
<g id="label-paired / caption / bell-slash-caption / regular" clip-path="url(#clip0_2556_10154)">
<path id="icon" d="M8.85938 12.5V12.5234L9.82031 13.2734H3.28125C2.69531 13.2734 2.22656 12.8047 2.22656 12.2188C2.22656 11.9609 2.34375 11.6797 2.53125 11.4922L2.60156 11.4219C3.32812 10.6953 3.75 9.71094 3.75 8.70312V8.46875L4.47656 9.03125C4.38281 10.1328 3.91406 11.1641 3.14062 11.9609L3.07031 12.0078C3.02344 12.0781 3 12.1484 3 12.2188C3 12.3828 3.11719 12.5 3.28125 12.5H8.85938ZM7.125 4.27344V3.875C7.125 3.6875 7.28906 3.5 7.5 3.5C7.6875 3.5 7.875 3.6875 7.875 3.875V4.27344C9.75 4.46094 11.25 6.05469 11.25 8V8.70312C11.25 9.71094 11.6484 10.6953 12.375 11.4219L12.4453 11.4922C12.4453 11.5156 12.4688 11.5156 12.4922 11.5391L10.7344 10.1562C10.5703 9.6875 10.5 9.19531 10.5 8.70312V8C10.5 6.35938 9.14062 5 7.5 5C6.65625 5 5.88281 5.35156 5.34375 5.91406L4.75781 5.44531C5.36719 4.78906 6.1875 4.36719 7.125 4.27344ZM6.77344 14.2578C6.89062 14.5625 7.17188 14.75 7.5 14.75C7.80469 14.75 8.08594 14.5625 8.20312 14.2578C8.27344 14.0703 8.48438 13.9531 8.67188 14.0234C8.88281 14.0938 8.97656 14.3047 8.90625 14.5156C8.69531 15.1016 8.13281 15.5 7.5 15.5C6.84375 15.5 6.28125 15.1016 6.07031 14.5156C6 14.3047 6.11719 14.0938 6.30469 14.0234C6.49219 13.9531 6.70312 14.0703 6.77344 14.2578ZM0.585938 3.59375L14.8594 14.8438C15 14.9609 15.0469 15.2188 14.9062 15.3594C14.7891 15.5234 14.5547 15.5703 14.3906 15.4297L0.140625 4.17969C-0.0234375 4.0625 -0.0703125 3.80469 0.0703125 3.66406C0.1875 3.5 0.445312 3.45312 0.585938 3.59375Z" fill="black" fill-opacity="0.72"/>
</g>
<defs>
<clipPath id="clip0_2556_10154">
<rect width="15" height="18" fill="white"/>
</clipPath>
</defs>
</svg>
