<svg width="11" height="18" viewBox="0 0 11 18" fill="none" xmlns="http://www.w3.org/2000/svg">
<g id="label-paired / caption / square-caption / bold" clip-path="url(#clip0_2556_10379)">
<path id="icon" d="M9.25 5.375H1.75C1.53906 5.375 1.375 5.5625 1.375 5.75V13.25C1.375 13.4609 1.53906 13.625 1.75 13.625H9.25C9.4375 13.625 9.625 13.4609 9.625 13.25V5.75C9.625 5.5625 9.4375 5.375 9.25 5.375ZM1.75 4.25H9.25C10.0703 4.25 10.75 4.92969 10.75 5.75V13.25C10.75 14.0938 10.0703 14.75 9.25 14.75H1.75C0.90625 14.75 0.25 14.0938 0.25 13.25V5.75C0.25 4.92969 0.90625 4.25 1.75 4.25Z" fill="black" fill-opacity="0.72"/>
</g>
<defs>
<clipPath id="clip0_2556_10379">
<rect width="11" height="18" fill="white"/>
</clipPath>
</defs>
</svg>
