<svg width="16" height="24" viewBox="0 0 16 24" fill="none" xmlns="http://www.w3.org/2000/svg">
<g id="label-paired / md / gauge-max-md / fill" clip-path="url(#clip0_2556_15076)">
<path id="icon" d="M0 12C0 9.15625 1.5 6.53125 4 5.09375C6.46875 3.65625 9.5 3.65625 12 5.09375C14.4688 6.53125 16 9.15625 16 12C16 14.875 14.4688 17.5 12 18.9375C9.5 20.375 6.46875 20.375 4 18.9375C1.5 17.5 0 14.875 0 12ZM9 7C9 6.46875 8.53125 6 8 6C7.4375 6 7 6.46875 7 7C7 7.5625 7.4375 8 8 8C8.53125 8 9 7.5625 9 7ZM8 17C9.09375 17 10 16.125 10 15C10 14.9062 9.96875 14.7812 9.96875 14.6875L13.625 12.4062C13.9688 12.1875 14.0938 11.7188 13.875 11.375C13.6562 11.0312 13.1875 10.9062 12.8438 11.125L9.15625 13.4062C8.84375 13.1562 8.4375 13 8 13C6.875 13 6 13.9062 6 15C6 16.125 6.875 17 8 17ZM5.5 8.5C5.5 7.96875 5.03125 7.5 4.5 7.5C3.9375 7.5 3.5 7.96875 3.5 8.5C3.5 9.0625 3.9375 9.5 4.5 9.5C5.03125 9.5 5.5 9.0625 5.5 8.5ZM3 13C3.53125 13 4 12.5625 4 12C4 11.4688 3.53125 11 3 11C2.4375 11 2 11.4688 2 12C2 12.5625 2.4375 13 3 13ZM12.5 8.5C12.5 7.96875 12.0312 7.5 11.5 7.5C10.9375 7.5 10.5 7.96875 10.5 8.5C10.5 9.0625 10.9375 9.5 11.5 9.5C12.0312 9.5 12.5 9.0625 12.5 8.5Z" fill="black" fill-opacity="0.72"/>
</g>
<defs>
<clipPath id="clip0_2556_15076">
<rect width="16" height="24" fill="white"/>
</clipPath>
</defs>
</svg>
