<svg width="20" height="30" viewBox="0 0 20 30" fill="none" xmlns="http://www.w3.org/2000/svg">
<g id="label-paired / lg / circle-sort-lg / fill" clip-path="url(#clip0_2556_17253)">
<path id="icon" d="M0 15.5C0 11.9453 1.875 8.66406 5 6.86719C8.08594 5.07031 11.875 5.07031 15 6.86719C18.0859 8.66406 20 11.9453 20 15.5C20 19.0938 18.0859 22.375 15 24.1719C11.875 25.9688 8.08594 25.9688 5 24.1719C1.875 22.375 0 19.0938 0 15.5ZM10.4297 9.44531C10.1953 9.21094 9.76562 9.21094 9.53125 9.44531L5.78125 13.1953C5.625 13.3906 5.54688 13.6641 5.66406 13.8984C5.74219 14.0938 5.97656 14.25 6.25 14.25H13.75C13.9844 14.25 14.2188 14.1328 14.2969 13.8984C14.4141 13.6641 14.3359 13.3906 14.1797 13.1953L10.4297 9.44531ZM9.53125 21.5938C9.76562 21.8281 10.1953 21.8281 10.4297 21.5938L14.1797 17.8438C14.3359 17.6484 14.4141 17.375 14.2969 17.1406C14.2188 16.9062 13.9844 16.75 13.75 16.75H6.25C5.97656 16.75 5.74219 16.9062 5.66406 17.1406C5.54688 17.375 5.625 17.6484 5.78125 17.8438L9.53125 21.5938Z" fill="black" fill-opacity="0.72"/>
</g>
<defs>
<clipPath id="clip0_2556_17253">
<rect width="20" height="30" fill="white"/>
</clipPath>
</defs>
</svg>
