<svg width="14" height="18" viewBox="0 0 14 18" fill="none" xmlns="http://www.w3.org/2000/svg">
<g id="label-paired / caption / house-user-caption / regular" clip-path="url(#clip0_4670_633)">
<path id="icon" d="M6.74219 3.59375C6.88281 3.47656 7.09375 3.47656 7.23438 3.59375L13.6094 9.21875C13.7734 9.35938 13.7734 9.59375 13.6562 9.75781C13.5156 9.92188 13.2812 9.92188 13.1172 9.78125L12.25 9.00781V13.625C12.25 14.6797 11.4062 15.5 10.375 15.5H3.625C2.57031 15.5 1.75 14.6797 1.75 13.625V9.00781L0.859375 9.78125C0.71875 9.92188 0.460938 9.92188 0.34375 9.75781C0.203125 9.59375 0.203125 9.35938 0.367188 9.21875L6.74219 3.59375ZM2.5 8.35156V13.625C2.5 14.2578 2.99219 14.75 3.625 14.75H10.375C10.9844 14.75 11.5 14.2578 11.5 13.625V8.35156L7 4.39062L2.5 8.35156ZM7 9.5C7.39844 9.5 7.75 9.17188 7.75 8.75C7.75 8.35156 7.39844 8 7 8C6.57812 8 6.25 8.35156 6.25 8.75C6.25 9.17188 6.57812 9.5 7 9.5ZM7 7.25C7.51562 7.25 8.00781 7.55469 8.28906 8C8.54688 8.46875 8.54688 9.05469 8.28906 9.5C8.00781 9.96875 7.51562 10.25 7 10.25C6.46094 10.25 5.96875 9.96875 5.6875 9.5C5.42969 9.05469 5.42969 8.46875 5.6875 8C5.96875 7.55469 6.46094 7.25 7 7.25ZM5.125 12.6875V12.875C5.125 13.0859 4.9375 13.25 4.75 13.25C4.53906 13.25 4.375 13.0859 4.375 12.875V12.6875C4.375 11.7734 5.125 11 6.0625 11H7.9375C8.85156 11 9.625 11.7734 9.625 12.6875V12.875C9.625 13.0859 9.4375 13.25 9.25 13.25C9.03906 13.25 8.875 13.0859 8.875 12.875V12.6875C8.875 12.1719 8.45312 11.75 7.9375 11.75H6.0625C5.52344 11.75 5.125 12.1719 5.125 12.6875Z" fill="black" fill-opacity="0.72"/>
</g>
<defs>
<clipPath id="clip0_4670_633">
<rect width="14" height="18" fill="white"/>
</clipPath>
</defs>
</svg>
