<svg width="18" height="30" viewBox="0 0 18 30" fill="none" xmlns="http://www.w3.org/2000/svg">
<g id="label-paired / lg / copy-lg / fill" clip-path="url(#clip0_2556_17030)">
<path id="icon" d="M8.375 5.5H13.2188C13.6875 5.5 14.1953 5.73438 14.5469 6.08594L17.1641 8.70312C17.5156 9.05469 17.75 9.5625 17.75 10.0312V18.625C17.75 19.6797 16.8906 20.5 15.875 20.5H8.375C7.32031 20.5 6.5 19.6797 6.5 18.625V7.375C6.5 6.35938 7.32031 5.5 8.375 5.5ZM2.125 10.5H5.25V13H2.75V23H10.25V21.75H12.75V23.625C12.75 24.6797 11.8906 25.5 10.875 25.5H2.125C1.07031 25.5 0.25 24.6797 0.25 23.625V12.375C0.25 11.3594 1.07031 10.5 2.125 10.5Z" fill="black" fill-opacity="0.72"/>
</g>
<defs>
<clipPath id="clip0_2556_17030">
<rect width="18" height="30" fill="white"/>
</clipPath>
</defs>
</svg>
