<svg width="21" height="30" viewBox="0 0 21 30" fill="none" xmlns="http://www.w3.org/2000/svg">
<g id="label-paired / lg / paper-plane-top-lg / fill" clip-path="url(#clip0_2738_4400)">
<path id="icon" d="M2.41406 6.59375L19.6797 14.0938C20.9297 14.6406 20.9297 16.3984 19.6797 16.9453L2.41406 24.4453C1.08594 25.0312 -0.28125 23.5469 0.421875 22.2578L3.15625 17.2188C3.3125 16.9062 3.625 16.6719 4.01562 16.6328L10.8906 15.7734C11.0078 15.7734 11.125 15.6562 11.125 15.5C11.125 15.3828 11.0078 15.2656 10.8906 15.2656L4.01562 14.4062C3.625 14.3281 3.3125 14.1328 3.15625 13.8203L0.421875 8.78125C-0.28125 7.49219 1.08594 6.00781 2.41406 6.59375Z" fill="black" fill-opacity="0.72"/>
</g>
<defs>
<clipPath id="clip0_2738_4400">
<rect width="21" height="30" fill="white"/>
</clipPath>
</defs>
</svg>
