<svg width="11" height="18" viewBox="0 0 11 18" fill="none" xmlns="http://www.w3.org/2000/svg">
<g id="label-paired / caption / paperclip-caption / bold" clip-path="url(#clip0_2981_613)">
<path id="icon" d="M9.03906 5.21094C8.42969 4.60156 7.42188 4.60156 6.8125 5.21094L2.33594 9.71094C1.30469 10.7422 1.30469 12.4062 2.33594 13.4141C3.34375 14.4453 5.00781 14.4453 6.03906 13.4141L9.60156 9.85156C9.8125 9.64062 10.1641 9.64062 10.375 9.85156C10.6094 10.0859 10.6094 10.4375 10.375 10.6484L6.83594 14.2109C5.35938 15.6875 2.99219 15.6875 1.53906 14.2109C0.0625 12.7578 0.0625 10.3906 1.53906 8.91406L6.03906 4.41406C7.07031 3.38281 8.78125 3.38281 9.83594 4.41406C10.8672 5.46875 10.8672 7.17969 9.83594 8.21094L5.52344 12.5234C4.77344 13.2734 3.55469 13.2031 2.89844 12.3828C2.33594 11.6797 2.40625 10.6719 3.03906 10.0391L6.60156 6.47656C6.8125 6.26562 7.16406 6.26562 7.375 6.47656C7.60938 6.71094 7.60938 7.0625 7.375 7.27344L3.83594 10.8359C3.60156 11.0703 3.57812 11.4219 3.78906 11.6797C4.02344 11.9609 4.44531 12.0078 4.72656 11.7266L9.03906 7.41406C9.64844 6.80469 9.64844 5.82031 9.03906 5.21094Z" fill="black" fill-opacity="0.72"/>
</g>
<defs>
<clipPath id="clip0_2981_613">
<rect width="11" height="18" fill="white"/>
</clipPath>
</defs>
</svg>
