<svg width="12" height="18" viewBox="0 0 12 18" fill="none" xmlns="http://www.w3.org/2000/svg">
<g id="label-paired / caption / deriv-brand-logo-caption / fill" clip-path="url(#clip0_5129_516)">
<path id="icon" d="M8.76562 12.4531L8.74219 12.5703C8.46094 13.7422 7.35938 14.6797 6.16406 14.75H6.04688H4.47656H4.3125C2.64844 14.6562 1.54688 13.2734 1.85156 11.5859L1.99219 10.8359C2.29688 9.14844 3.86719 7.74219 5.55469 7.67188L5.71875 7.64844H7.59375L8.15625 4.60156L10.1953 4.25L8.76562 12.4531ZM5.48438 9.54688C4.73438 9.61719 4.07812 10.25 3.9375 10.9766L3.86719 11.4453C3.72656 12.2188 4.24219 12.875 5.03906 12.875H6C6.375 12.875 6.72656 12.5469 6.82031 12.1719L7.26562 9.54688H5.625H5.48438Z" fill="black" fill-opacity="0.72"/>
</g>
<defs>
<clipPath id="clip0_5129_516">
<rect width="12" height="18" fill="white"/>
</clipPath>
</defs>
</svg>
