<svg width="10" height="24" viewBox="0 0 10 24" fill="none" xmlns="http://www.w3.org/2000/svg">
<g id="label-paired / md / eight-md / fill" clip-path="url(#clip0_2556_14823)">
<path id="icon" d="M9.5 9C9.5 10.0938 9.0625 11.0625 8.375 11.7812C9.34375 12.5312 10 13.6875 10 15C10 17.2188 8.1875 19 6 19H4C1.78125 19 0 17.2188 0 15C0 13.6875 0.625 12.5312 1.625 11.7812C0.90625 11.0625 0.5 10.0938 0.5 9C0.5 6.8125 2.28125 5 4.5 5H5.5C7.6875 5 9.5 6.8125 9.5 9ZM5.5 13H4.5H4.46875H4C2.875 13 2 13.9062 2 15C2 16.125 2.875 17 4 17H6C7.09375 17 8 16.125 8 15C8 13.9062 7.09375 13 6 13H5.5ZM5.5 11C6.59375 11 7.5 10.125 7.5 9C7.5 7.90625 6.59375 7 5.5 7H4.5C3.375 7 2.5 7.90625 2.5 9C2.5 10.125 3.375 11 4.5 11H5.5Z" fill="black" fill-opacity="0.72"/>
</g>
<defs>
<clipPath id="clip0_2556_14823">
<rect width="10" height="24" fill="white"/>
</clipPath>
</defs>
</svg>
