<svg width="15" height="30" viewBox="0 0 15 30" fill="none" xmlns="http://www.w3.org/2000/svg">
<g id="label-paired / lg / xmark-lg / fill" clip-path="url(#clip0_2556_17631)">
<path id="icon" d="M13.3594 11.3984L9.25781 15.5L13.3594 19.6406C13.8672 20.1094 13.8672 20.9297 13.3594 21.3984C12.8906 21.9062 12.0703 21.9062 11.6016 21.3984L7.5 17.2969L3.35938 21.3984C2.89062 21.9062 2.07031 21.9062 1.60156 21.3984C1.09375 20.9297 1.09375 20.1094 1.60156 19.6406L5.70312 15.5L1.60156 11.3984C1.09375 10.9297 1.09375 10.1094 1.60156 9.64062C2.07031 9.13281 2.89062 9.13281 3.35938 9.64062L7.5 13.7422L11.6016 9.64062C12.0703 9.13281 12.8906 9.13281 13.3594 9.64062C13.8672 10.1094 13.8672 10.9297 13.3594 11.3984Z" fill="black" fill-opacity="0.72"/>
</g>
<defs>
<clipPath id="clip0_2556_17631">
<rect width="15" height="30" fill="white"/>
</clipPath>
</defs>
</svg>
