<svg width="13" height="22" viewBox="0 0 13 22" fill="none" xmlns="http://www.w3.org/2000/svg">
<g id="label-paired / sm / share-nodes-sm / fill" clip-path="url(#clip0_3997_721)">
<path id="icon" d="M10 9.875C9.28906 9.875 8.63281 9.60156 8.16797 9.16406L5.59766 10.4492C5.59766 10.5312 5.625 10.6406 5.625 10.75C5.625 10.8867 5.59766 10.9688 5.59766 11.0781L8.16797 12.3633C8.63281 11.9258 9.28906 11.625 10 11.625C11.4492 11.625 12.625 12.8008 12.625 14.25C12.625 15.6992 11.4492 16.875 10 16.875C8.55078 16.875 7.375 15.6992 7.375 14.25C7.375 14.1406 7.375 14.0312 7.375 13.9492L4.80469 12.6641C4.33984 13.1016 3.68359 13.375 3 13.375C1.55078 13.375 0.375 12.1992 0.375 10.75C0.375 9.30078 1.55078 8.125 3 8.125C3.68359 8.125 4.33984 8.42578 4.80469 8.86328L7.375 7.57812C7.375 7.46875 7.375 7.35938 7.375 7.25C7.375 5.80078 8.55078 4.625 10 4.625C11.4492 4.625 12.625 5.80078 12.625 7.25C12.625 8.69922 11.4492 9.875 10 9.875Z" fill="black" fill-opacity="0.72"/>
</g>
<defs>
<clipPath id="clip0_3997_721">
<rect width="13" height="22" fill="white"/>
</clipPath>
</defs>
</svg>
