<svg width="13" height="22" viewBox="0 0 13 22" fill="none" xmlns="http://www.w3.org/2000/svg">
<g id="label-paired / sm / bell-sm / bold" clip-path="url(#clip0_2556_12391)">
<path id="icon" d="M6.5 3.75C6.96484 3.75 7.375 4.16016 7.375 4.625V5.17188C9.37109 5.55469 10.875 7.33203 10.875 9.4375V10.1484C10.875 11.3789 11.2852 12.582 12.0508 13.5664L12.4609 14.0586C12.625 14.2773 12.6523 14.5508 12.543 14.7695C12.4336 14.9883 12.2148 15.125 11.9688 15.125H1.03125C0.757812 15.125 0.539062 14.9883 0.429688 14.7695C0.320312 14.5508 0.347656 14.2773 0.511719 14.0586L0.921875 13.5664C1.6875 12.582 2.125 11.3789 2.125 10.1484V9.4375C2.125 7.33203 3.62891 5.55469 5.625 5.17188V4.625C5.625 4.16016 6.00781 3.75 6.5 3.75ZM6.5 6.375C4.80469 6.375 3.4375 7.76953 3.4375 9.4375V10.1484C3.4375 11.4609 3.05469 12.7188 2.34375 13.8125H10.6289C9.91797 12.7188 9.5625 11.4609 9.5625 10.1484V9.4375C9.5625 7.76953 8.16797 6.375 6.5 6.375ZM8.25 16C8.25 16.4648 8.05859 16.9297 7.73047 17.2578C7.40234 17.5859 6.96484 17.75 6.5 17.75C6.03516 17.75 5.57031 17.5859 5.24219 17.2578C4.91406 16.9297 4.75 16.4648 4.75 16H6.5H8.25Z" fill="black" fill-opacity="0.72"/>
</g>
<defs>
<clipPath id="clip0_2556_12391">
<rect width="13" height="22" fill="white"/>
</clipPath>
</defs>
</svg>
