<svg width="20" height="24" viewBox="0 0 20 24" fill="none" xmlns="http://www.w3.org/2000/svg">
<g id="label-paired / md / signal-md / bold" clip-path="url(#clip0_2556_14873)">
<path id="icon" d="M18 4C18.4062 4 18.75 4.34375 18.75 4.75V19.25C18.75 19.6875 18.4062 20 18 20C17.5625 20 17.25 19.6875 17.25 19.25V4.75C17.25 4.34375 17.5625 4 18 4ZM14 7C14.4062 7 14.75 7.34375 14.75 7.75V19.25C14.75 19.6875 14.4062 20 14 20C13.5625 20 13.25 19.6875 13.25 19.25V7.75C13.25 7.34375 13.5625 7 14 7ZM10 10C10.4062 10 10.75 10.3438 10.75 10.75V19.25C10.75 19.6875 10.4062 20 10 20C9.5625 20 9.25 19.6875 9.25 19.25V10.75C9.25 10.3438 9.5625 10 10 10ZM6 13C6.40625 13 6.75 13.3438 6.75 13.75V19.25C6.75 19.6875 6.40625 20 6 20C5.5625 20 5.25 19.6875 5.25 19.25V13.75C5.25 13.3438 5.5625 13 6 13ZM2 16C2.40625 16 2.75 16.3438 2.75 16.75V19.25C2.75 19.6875 2.40625 20 2 20C1.5625 20 1.25 19.6875 1.25 19.25V16.75C1.25 16.3438 1.5625 16 2 16Z" fill="black" fill-opacity="0.72"/>
</g>
<defs>
<clipPath id="clip0_2556_14873">
<rect width="20" height="24" fill="white"/>
</clipPath>
</defs>
</svg>
