<svg width="14" height="22" viewBox="0 0 14 22" fill="none" xmlns="http://www.w3.org/2000/svg">
<g id="label-paired / sm / clock-three-sm / fill" clip-path="url(#clip0_2556_12829)">
<path id="icon" d="M7 3.75C9.48828 3.75 11.7852 5.08984 13.043 7.25C14.3008 9.4375 14.3008 12.0898 13.043 14.25C11.7852 16.4375 9.48828 17.75 7 17.75C4.48438 17.75 2.1875 16.4375 0.929688 14.25C-0.328125 12.0898 -0.328125 9.4375 0.929688 7.25C2.1875 5.08984 4.48438 3.75 7 3.75ZM6.34375 7.03125V10.75C6.34375 11.1328 6.61719 11.4062 7 11.4062H9.84375C10.1992 11.4062 10.5 11.1328 10.5 10.75C10.5 10.3945 10.1992 10.0938 9.84375 10.0938H7.65625V7.03125C7.65625 6.67578 7.35547 6.375 7 6.375C6.61719 6.375 6.34375 6.67578 6.34375 7.03125Z" fill="black" fill-opacity="0.72"/>
</g>
<defs>
<clipPath id="clip0_2556_12829">
<rect width="14" height="22" fill="white"/>
</clipPath>
</defs>
</svg>
