<svg width="30" height="36" viewBox="0 0 30 36" fill="none" xmlns="http://www.w3.org/2000/svg">
<g id="label-paired / xl / users-xl / bold" clip-path="url(#clip0_2556_19267)">
<path id="icon" d="M6.75 13.5C5.39062 13.5 4.17188 12.7969 3.46875 11.625C2.8125 10.5 2.8125 9.04688 3.46875 7.875C4.17188 6.75 5.39062 6 6.75 6C8.0625 6 9.28125 6.75 9.98438 7.875C10.6406 9.04688 10.6406 10.5 9.98438 11.625C9.28125 12.7969 8.0625 13.5 6.75 13.5ZM24 13.5C22.6406 13.5 21.4219 12.7969 20.7188 11.625C20.0625 10.5 20.0625 9.04688 20.7188 7.875C21.4219 6.75 22.6406 6 24 6C25.3125 6 26.5312 6.75 27.2344 7.875C27.8906 9.04688 27.8906 10.5 27.2344 11.625C26.5312 12.7969 25.3125 13.5 24 13.5ZM0 20.0156C0 17.25 2.20312 15 4.96875 15H6.98438C7.73438 15 8.4375 15.1875 9.09375 15.4688C9 15.7969 9 16.1719 9 16.5C9 18.3281 9.75 19.9219 11.0156 21H10.9688H0.984375C0.421875 21 0 20.5781 0 20.0156ZM18.9844 21H18.9375C20.2031 19.9219 21 18.3281 21 16.5C21 16.1719 20.9531 15.7969 20.9062 15.4688C21.5156 15.1875 22.2188 15 22.9688 15H24.9844C27.75 15 30 17.25 30 20.0156C30 20.5781 29.5312 21 28.9688 21H18.9844ZM15 14.25C14.1562 14.25 13.4531 14.7188 13.0312 15.375C12.6094 16.0781 12.6094 16.9688 13.0312 17.625C13.4531 18.3281 14.1562 18.75 15 18.75C15.7969 18.75 16.5 18.3281 16.9219 17.625C17.3438 16.9688 17.3438 16.0781 16.9219 15.375C16.5 14.7188 15.7969 14.25 15 14.25ZM15 21C13.3594 21 11.9062 20.1562 11.0625 18.75C10.2656 17.3906 10.2656 15.6562 11.0625 14.25C11.9062 12.8906 13.3594 12 15 12C16.5938 12 18.0469 12.8906 18.8906 14.25C19.6875 15.6562 19.6875 17.3906 18.8906 18.75C18.0469 20.1562 16.5938 21 15 21ZM12.2344 24.75C10.3594 24.75 8.8125 26.0625 8.34375 27.75H21.6094C21.1406 26.0625 19.5938 24.75 17.7188 24.75H12.2344ZM12.2344 22.5H17.7188C21.1875 22.5 24 25.3125 24 28.7812C24 29.4844 23.4375 30 22.7344 30H7.21875C6.51562 30 6 29.4375 6 28.7812C6 25.3125 8.76562 22.5 12.2344 22.5Z" fill="black" fill-opacity="0.72"/>
</g>
<defs>
<clipPath id="clip0_2556_19267">
<rect width="30" height="36" fill="white"/>
</clipPath>
</defs>
</svg>
