<svg width="18" height="22" viewBox="0 0 18 22" fill="none" xmlns="http://www.w3.org/2000/svg">
<g id="label-paired / sm / person-chalkboard-sm / fill" clip-path="url(#clip0_2556_12808)">
<path id="icon" d="M5.5 6.375C5.00781 6.375 4.59766 6.12891 4.35156 5.71875C4.10547 5.33594 4.10547 4.81641 4.35156 4.40625C4.59766 4.02344 5.00781 3.75 5.5 3.75C5.96484 3.75 6.375 4.02344 6.62109 4.40625C6.86719 4.81641 6.86719 5.33594 6.62109 5.71875C6.375 6.12891 5.96484 6.375 5.5 6.375ZM5.28125 16.875C5.28125 17.3672 4.87109 17.75 4.40625 17.75C3.91406 17.75 3.53125 17.3672 3.53125 16.875V10.7773L2.73828 12.0898C2.49219 12.5 1.94531 12.6367 1.53516 12.3906C1.125 12.1445 0.988281 11.5977 1.23438 11.1875L2.82031 8.53516C3.3125 7.74219 4.16016 7.25 5.08984 7.25H6.89453H9V5.0625C9 4.35156 9.57422 3.75 10.3125 3.75H16.4375C17.1484 3.75 17.75 4.35156 17.75 5.0625V11.1875C17.75 11.9258 17.1484 12.5 16.4375 12.5H10.3125C9.57422 12.5 9 11.9258 9 11.1875V9.875H10.75V10.75H16V5.5H10.75V7.25H11.1875C11.6523 7.25 12.0625 7.66016 12.0625 8.125C12.0625 8.61719 11.6523 9 11.1875 9H10.75H9H7.46875V16.875C7.46875 17.3672 7.05859 17.75 6.59375 17.75C6.10156 17.75 5.71875 17.3672 5.71875 16.875V13.375H5.28125V16.875Z" fill="black" fill-opacity="0.72"/>
</g>
<defs>
<clipPath id="clip0_2556_12808">
<rect width="18" height="22" fill="white"/>
</clipPath>
</defs>
</svg>
