<svg width="30" height="36" viewBox="0 0 30 36" fill="none" xmlns="http://www.w3.org/2000/svg">
<g id="label-paired / xl / eye-slash-xl / fill" clip-path="url(#clip0_2556_19898)">
<path id="icon" d="M1.78125 6.28125L7.03125 10.3594C9.14062 8.76562 11.7656 7.5 15 7.5C18.75 7.5 21.7969 9.23438 24 11.2969C26.2031 13.3125 27.6562 15.75 28.3594 17.4375C28.5 17.8125 28.5 18.2344 28.3594 18.6094C27.75 20.1094 26.4844 22.2656 24.6094 24.1406L29.5312 28.0312C30.0469 28.4062 30.1406 29.1094 29.7188 29.5781C29.3438 30.0938 28.6406 30.1875 28.1719 29.7656L0.421875 8.01562C-0.09375 7.64062 -0.1875 6.9375 0.234375 6.46875C0.609375 5.95312 1.3125 5.85938 1.78125 6.28125ZM10.4531 13.0312L14.6719 16.3594C14.8594 15.9375 15 15.5156 15 15.0469C15 14.6719 14.9062 14.3906 14.8125 14.0625C14.7656 13.8281 14.9062 13.5 15.1875 13.5469C17.1094 13.5938 18.7969 14.9062 19.3125 16.875C19.5938 17.9062 19.5 18.9375 19.125 19.8281L20.9062 21.2344C21.4219 20.2969 21.75 19.1719 21.75 18C21.75 14.2969 18.7031 11.25 15 11.25C13.2188 11.25 11.625 11.9531 10.4531 13.0312ZM17.4844 24.2812L20.9062 27C19.1719 27.9375 17.2031 28.5 15 28.5C11.2031 28.5 8.15625 26.8125 5.95312 24.75C3.75 22.6875 2.29688 20.25 1.59375 18.6094C1.45312 18.2344 1.45312 17.8125 1.59375 17.4375C2.0625 16.3594 2.8125 15 3.89062 13.5938L8.29688 17.0625C8.25 17.3906 8.25 17.7188 8.25 18C8.25 21.75 11.25 24.75 15 24.75C15.8438 24.75 16.6875 24.6094 17.4844 24.2812Z" fill="black" fill-opacity="0.72"/>
</g>
<defs>
<clipPath id="clip0_2556_19898">
<rect width="30" height="36" fill="white"/>
</clipPath>
</defs>
</svg>
