<svg width="30" height="36" viewBox="0 0 30 36" fill="none" xmlns="http://www.w3.org/2000/svg">
<g id="label-paired / xl / volume-high-xl / bold" clip-path="url(#clip0_3758_682)">
<path id="icon" d="M24.9844 7.54688C28.0312 10.0312 30 13.7812 30 18C30 22.2656 28.0312 26.0156 24.9844 28.5C24.5156 28.875 23.8125 28.8281 23.3906 28.3594C23.0156 27.8438 23.1094 27.1406 23.5781 26.7656C26.1094 24.7031 27.75 21.5625 27.75 18C27.75 14.4844 26.1094 11.3438 23.5781 9.28125C23.1094 8.90625 23.0156 8.20312 23.3906 7.6875C23.8125 7.21875 24.5156 7.17188 24.9844 7.54688ZM22.1719 11.0156V11.0625C24.1875 12.7031 25.5 15.1875 25.5 18.0469C25.5 20.8594 24.1875 23.3438 22.1719 25.0312C21.6562 25.4062 20.9531 25.3125 20.5781 24.8438C20.2031 24.375 20.25 23.6719 20.7188 23.25C22.2656 22.0312 23.25 20.1562 23.25 18C23.25 15.8906 22.2656 14.0156 20.7188 12.7969C20.25 12.375 20.1562 11.6719 20.5781 11.2031C20.9531 10.7344 21.6562 10.6406 22.1719 11.0156ZM19.3125 14.5312C20.3438 15.375 21 16.5938 21 18C21 19.4531 20.3438 20.6719 19.3125 21.5156C18.8438 21.8906 18.1406 21.8438 17.7188 21.375C17.3438 20.8594 17.4375 20.1562 17.9062 19.7812C18.4219 19.3594 18.75 18.7031 18.75 18C18.75 17.2969 18.4219 16.6875 17.9062 16.2656C17.4375 15.8906 17.3438 15.1875 17.7188 14.6719C18.1406 14.2031 18.8438 14.1562 19.3125 14.5312ZM7.45312 15.4688C7.26562 15.6562 6.98438 15.75 6.75 15.75H2.625C2.39062 15.75 2.25 15.9375 2.25 16.125V19.875C2.25 20.1094 2.39062 20.25 2.625 20.25H6.75C6.98438 20.25 7.26562 20.3906 7.45312 20.5781L12.75 25.2188V10.8281L7.45312 15.4688ZM13.5938 7.5C14.3438 7.5 15 8.15625 15 8.90625V27.1406C15 27.8906 14.3438 28.5 13.5938 28.5C13.2188 28.5 12.8906 28.4062 12.6562 28.1719L6.28125 22.5H2.625C1.17188 22.5 0 21.3281 0 19.875V16.125C0 14.7188 1.17188 13.5 2.625 13.5H6.28125L12.6562 7.875C12.8906 7.64062 13.2188 7.5 13.5938 7.5Z" fill="black" fill-opacity="0.72"/>
</g>
<defs>
<clipPath id="clip0_3758_682">
<rect width="30" height="36" fill="white"/>
</clipPath>
</defs>
</svg>
