<svg width="24" height="36" viewBox="0 0 24 36" fill="none" xmlns="http://www.w3.org/2000/svg">
<g id="label-paired / xl / life-ring-xl / regular" clip-path="url(#clip0_2556_19737)">
<path id="icon" d="M18.8438 25.9688L14.5781 21.7031C13.8281 22.2188 12.9375 22.5 12 22.5C11.0156 22.5 10.125 22.2188 9.375 21.7031L5.10938 25.9688C6.9375 27.5625 9.32812 28.5 12 28.5C14.625 28.5 17.0156 27.5625 18.8438 25.9688ZM19.9219 24.8906C21.5156 23.0625 22.5 20.6719 22.5 18C22.5 15.375 21.5156 12.9844 19.9219 11.1562L15.6562 15.4219C16.1719 16.1719 16.5 17.0625 16.5 18C16.5 18.9844 16.1719 19.875 15.6562 20.625L19.9219 24.8906ZM21 25.9688L21.5156 26.4844C21.7969 26.7656 21.7969 27.2812 21.5156 27.5625C21.2344 27.8438 20.7188 27.8438 20.4375 27.5625L19.9219 27C17.8125 28.875 15.0469 30 12 30C8.95312 30 6.14062 28.875 4.03125 27L3.51562 27.5625C3.23438 27.8438 2.71875 27.8438 2.4375 27.5625C2.15625 27.2812 2.15625 26.7656 2.4375 26.4844L3 25.9688C1.125 23.8594 0 21.0469 0 18C0 15 1.125 12.1875 3 10.0781L2.4375 9.5625C2.15625 9.28125 2.15625 8.76562 2.4375 8.48438C2.71875 8.20312 3.23438 8.20312 3.51562 8.48438L4.03125 9C6.14062 7.17188 8.95312 6 12 6C15 6 17.8125 7.17188 19.9219 9L20.4375 8.48438C20.7188 8.20312 21.2344 8.20312 21.5156 8.48438C21.7969 8.76562 21.7969 9.28125 21.5156 9.5625L21 10.0781C22.8281 12.1875 24 14.9531 24 18C24 21.0469 22.8281 23.8594 21 25.9688ZM18.8438 10.0781C17.0156 8.48438 14.625 7.5 12 7.5C9.32812 7.5 6.9375 8.48438 5.10938 10.0781L9.375 14.3438C10.125 13.8281 11.0156 13.5 12 13.5C12.9375 13.5 13.8281 13.8281 14.5781 14.3438L18.8438 10.0781ZM8.29688 20.625C7.78125 19.875 7.5 18.9844 7.5 18C7.5 17.0625 7.78125 16.1719 8.29688 15.4219L4.03125 11.1562C2.4375 12.9844 1.5 15.375 1.5 18C1.5 20.6719 2.4375 23.0625 4.03125 24.8906L8.29688 20.625ZM9 18C9 19.0781 9.5625 20.0625 10.5 20.625C11.3906 21.1406 12.5625 21.1406 13.5 20.625C14.3906 20.0625 15 19.0781 15 18C15 16.9688 14.3906 15.9844 13.5 15.4219C12.5625 14.9062 11.3906 14.9062 10.5 15.4219C9.5625 15.9844 9 16.9688 9 18Z" fill="black" fill-opacity="0.72"/>
</g>
<defs>
<clipPath id="clip0_2556_19737">
<rect width="24" height="36" fill="white"/>
</clipPath>
</defs>
</svg>
