<svg width="30" height="36" viewBox="0 0 30 36" fill="none" xmlns="http://www.w3.org/2000/svg">
<g id="label-paired / xl / users-xl / regular" clip-path="url(#clip0_2556_19268)">
<path id="icon" d="M4.5 9.75C4.5 10.5938 4.92188 11.2969 5.625 11.7188C6.28125 12.1406 7.17188 12.1406 7.875 11.7188C8.53125 11.2969 9 10.5938 9 9.75C9 8.95312 8.53125 8.25 7.875 7.82812C7.17188 7.40625 6.28125 7.40625 5.625 7.82812C4.92188 8.25 4.5 8.95312 4.5 9.75ZM10.5 9.75C10.5 11.1094 9.75 12.3281 8.625 13.0312C7.45312 13.6875 6 13.6875 4.875 13.0312C3.70312 12.3281 3 11.1094 3 9.75C3 8.4375 3.70312 7.21875 4.875 6.51562C6 5.85938 7.45312 5.85938 8.625 6.51562C9.75 7.21875 10.5 8.4375 10.5 9.75ZM15 13.5C13.9219 13.5 12.9375 14.1094 12.375 15C11.8594 15.9375 11.8594 17.1094 12.375 18C12.9375 18.9375 13.9219 19.5 15 19.5C16.0312 19.5 17.0156 18.9375 17.5781 18C18.0938 17.1094 18.0938 15.9375 17.5781 15C17.0156 14.1094 16.0312 13.5 15 13.5ZM15 21C13.3594 21 11.9062 20.1562 11.0625 18.75C10.2656 17.3906 10.2656 15.6562 11.0625 14.25C11.9062 12.8906 13.3594 12 15 12C16.5938 12 18.0469 12.8906 18.8906 14.25C19.6875 15.6562 19.6875 17.3906 18.8906 18.75C18.0469 20.1562 16.5938 21 15 21ZM12.2344 24C9.70312 24 7.59375 26.0156 7.5 28.5H22.4531C22.3594 26.0156 20.25 24 17.7188 24H12.2344ZM12.2344 22.5H17.7188C21.1875 22.5 24 25.3125 24 28.7812C24 29.4844 23.4375 30 22.7344 30H7.21875C6.51562 30 6 29.4375 6 28.7812C6 25.3125 8.76562 22.5 12.2344 22.5ZM24 7.5C23.1562 7.5 22.4531 7.96875 22.0312 8.625C21.6094 9.32812 21.6094 10.2188 22.0312 10.875C22.4531 11.5781 23.1562 12 24 12C24.7969 12 25.5 11.5781 25.9219 10.875C26.3438 10.2188 26.3438 9.32812 25.9219 8.625C25.5 7.96875 24.7969 7.5 24 7.5ZM24 13.5C22.6406 13.5 21.4219 12.7969 20.7188 11.625C20.0625 10.5 20.0625 9.04688 20.7188 7.875C21.4219 6.75 22.6406 6 24 6C25.3125 6 26.5312 6.75 27.2344 7.875C27.8906 9.04688 27.8906 10.5 27.2344 11.625C26.5312 12.7969 25.3125 13.5 24 13.5ZM24.75 16.5H21C21 15.9844 20.9062 15.5156 20.8125 15H24.75C27.6094 15 30 17.3906 30 20.25C30 20.6719 29.625 21 29.25 21C28.8281 21 28.5 20.6719 28.5 20.25C28.5 18.1875 26.8125 16.5 24.75 16.5ZM9 16.5H5.25C3.14062 16.5 1.5 18.1875 1.5 20.25C1.5 20.6719 1.125 21 0.75 21C0.328125 21 0 20.6719 0 20.25C0 17.3906 2.34375 15 5.25 15H9.1875C9.04688 15.5156 9 15.9844 9 16.5Z" fill="black" fill-opacity="0.72"/>
</g>
<defs>
<clipPath id="clip0_2556_19268">
<rect width="30" height="36" fill="white"/>
</clipPath>
</defs>
</svg>
