<svg width="14" height="24" viewBox="0 0 14 24" fill="none" xmlns="http://www.w3.org/2000/svg">
<g id="label-paired / md / arrow-right-md / bold" clip-path="url(#clip0_2556_14966)">
<path id="icon" d="M13.75 12.5625L8.25 17.8125C7.9375 18.0938 7.46875 18.0938 7.1875 17.7812C6.90625 17.4688 6.90625 17 7.21875 16.7188L11.375 12.75H0.75C0.3125 12.75 0 12.4375 0 12C0 11.5938 0.3125 11.25 0.75 11.25H11.375L7.21875 7.3125C6.90625 7.03125 6.90625 6.53125 7.1875 6.25C7.46875 5.9375 7.96875 5.9375 8.25 6.21875L13.75 11.4688C13.9062 11.625 14 11.8125 14 12C14 12.2188 13.9062 12.4062 13.75 12.5625Z" fill="black" fill-opacity="0.72"/>
</g>
<defs>
<clipPath id="clip0_2556_14966">
<rect width="14" height="24" fill="white"/>
</clipPath>
</defs>
</svg>
