<svg width="9" height="22" viewBox="0 0 9 22" fill="none" xmlns="http://www.w3.org/2000/svg">
<g id="label-paired / sm / six-sm / regular" clip-path="url(#clip0_2556_12879)">
<path id="icon" d="M8 12.5C8 10.5859 6.41406 9 4.5 9C2.58594 9 1.02734 10.5312 1 12.418C1 12.4453 1 12.4727 1 12.5C1 14.4414 2.55859 16 4.5 16C6.41406 16 8 14.4414 8 12.5ZM3.57031 8.23438C3.87109 8.17969 4.17188 8.125 4.5 8.125C6.90625 8.125 8.875 10.0938 8.875 12.5C8.875 14.9336 6.90625 16.875 4.5 16.875C2.06641 16.875 0.125 14.9336 0.125 12.5C0.125 12.4453 0.125 12.418 0.125 12.3633C0.152344 11.3242 0.5625 10.3125 1.24609 9.54688L5.48438 4.78906C5.62109 4.59766 5.92188 4.59766 6.08594 4.76172C6.27734 4.89844 6.27734 5.19922 6.11328 5.36328L3.57031 8.23438Z" fill="black" fill-opacity="0.72"/>
</g>
<defs>
<clipPath id="clip0_2556_12879">
<rect width="9" height="22" fill="white"/>
</clipPath>
</defs>
</svg>
