<svg width="18" height="36" viewBox="0 0 18 36" fill="none" xmlns="http://www.w3.org/2000/svg">
<g id="label-paired / xl / percent-xl / bold" clip-path="url(#clip0_2556_19349)">
<path id="icon" d="M17.2969 11.2969L2.25 26.2969C1.82812 26.7656 1.125 26.7656 0.703125 26.2969C0.234375 25.875 0.234375 25.1719 0.703125 24.7031L15.7031 9.75C16.125 9.28125 16.8281 9.28125 17.2969 9.75C17.7188 10.1719 17.7188 10.875 17.2969 11.2969ZM5.25 12C5.25 12.8438 4.78125 13.5469 4.125 13.9688C3.42188 14.3906 2.53125 14.3906 1.875 13.9688C1.17188 13.5469 0.75 12.8438 0.75 12C0.75 11.2031 1.17188 10.5 1.875 10.0781C2.53125 9.65625 3.42188 9.65625 4.125 10.0781C4.78125 10.5 5.25 11.2031 5.25 12ZM17.25 24C17.25 24.8438 16.7812 25.5469 16.125 25.9688C15.4219 26.3906 14.5312 26.3906 13.875 25.9688C13.1719 25.5469 12.75 24.8438 12.75 24C12.75 23.2031 13.1719 22.5 13.875 22.0781C14.5312 21.6562 15.4219 21.6562 16.125 22.0781C16.7812 22.5 17.25 23.2031 17.25 24Z" fill="black" fill-opacity="0.72"/>
</g>
<defs>
<clipPath id="clip0_2556_19349">
<rect width="18" height="36" fill="white"/>
</clipPath>
</defs>
</svg>
