<svg width="9" height="18" viewBox="0 0 9 18" fill="none" xmlns="http://www.w3.org/2000/svg">
<g id="label-paired / caption / file-invoice-dollar-caption / bold" clip-path="url(#clip0_2556_10624)">
<path id="icon" d="M7.875 14V7.25H6C5.57812 7.25 5.25 6.92188 5.25 6.5V4.625H1.5C1.28906 4.625 1.125 4.8125 1.125 5V14C1.125 14.2109 1.28906 14.375 1.5 14.375H7.5C7.6875 14.375 7.875 14.2109 7.875 14ZM0 5C0 4.17969 0.65625 3.5 1.5 3.5H5.36719C5.76562 3.5 6.14062 3.66406 6.42188 3.94531L8.55469 6.07812C8.83594 6.35938 9 6.73438 9 7.13281V14C9 14.8438 8.32031 15.5 7.5 15.5H1.5C0.65625 15.5 0 14.8438 0 14V5ZM4.5 8.5625C4.75781 8.5625 4.96875 8.77344 4.96875 9.03125V9.26562C5.13281 9.28906 5.29688 9.33594 5.4375 9.35938C5.69531 9.42969 5.85938 9.6875 5.78906 9.92188C5.74219 10.1797 5.48438 10.3438 5.22656 10.2734C4.96875 10.2266 4.71094 10.1797 4.47656 10.1797C4.28906 10.1562 4.10156 10.2031 3.96094 10.2734C3.84375 10.3438 3.84375 10.3906 3.84375 10.4141C3.84375 10.4375 3.86719 10.4609 3.9375 10.5078C4.07812 10.5781 4.3125 10.6484 4.61719 10.7188C4.875 10.7891 5.22656 10.8828 5.48438 11.0469C5.76562 11.2109 6.07031 11.4922 6.07031 11.9609C6.09375 12.4531 5.8125 12.7812 5.48438 12.9453C5.32031 13.0391 5.13281 13.1094 4.94531 13.1328V13.3672C4.94531 13.625 4.73438 13.8359 4.47656 13.8359C4.21875 13.8359 4.00781 13.625 4.00781 13.3672V13.1094C3.77344 13.0625 3.5625 12.9922 3.375 12.9453C3.32812 12.9219 3.28125 12.9219 3.23438 12.8984C2.97656 12.8281 2.83594 12.5703 2.90625 12.3125C2.97656 12.0547 3.25781 11.9141 3.49219 12.0078C3.5625 12.0078 3.60938 12.0312 3.65625 12.0547C3.98438 12.1484 4.24219 12.2188 4.5 12.2188C4.71094 12.2422 4.89844 12.1953 5.03906 12.125C5.13281 12.0781 5.15625 12.0312 5.15625 11.9609C5.15625 11.9609 5.15625 11.9141 5.03906 11.8438C4.875 11.7734 4.66406 11.7031 4.35938 11.6328L4.33594 11.6094C4.07812 11.5391 3.75 11.4453 3.49219 11.3281C3.21094 11.1641 2.90625 10.8828 2.90625 10.4141C2.88281 9.92188 3.21094 9.61719 3.51562 9.45312C3.67969 9.35938 3.84375 9.3125 4.03125 9.26562V9.03125C4.03125 8.77344 4.24219 8.5625 4.5 8.5625ZM2.25 5.75H4.125C4.3125 5.75 4.5 5.9375 4.5 6.125C4.5 6.33594 4.3125 6.5 4.125 6.5H2.25C2.03906 6.5 1.875 6.33594 1.875 6.125C1.875 5.9375 2.03906 5.75 2.25 5.75ZM2.25 7.25H4.125C4.3125 7.25 4.5 7.4375 4.5 7.625C4.5 7.83594 4.3125 8 4.125 8H2.25C2.03906 8 1.875 7.83594 1.875 7.625C1.875 7.4375 2.03906 7.25 2.25 7.25Z" fill="black" fill-opacity="0.72"/>
</g>
<defs>
<clipPath id="clip0_2556_10624">
<rect width="9" height="18" fill="white"/>
</clipPath>
</defs>
</svg>
