<svg width="14" height="22" viewBox="0 0 14 22" fill="none" xmlns="http://www.w3.org/2000/svg">
<g id="label-paired / sm / circle-caret-up-sm / regular" clip-path="url(#clip0_2556_12343)">
<path id="icon" d="M7 4.625C4.78516 4.625 2.78906 5.80078 1.69531 7.6875C0.574219 9.60156 0.574219 11.9258 1.69531 13.8125C2.78906 15.7266 4.78516 16.875 7 16.875C9.1875 16.875 11.1836 15.7266 12.2773 13.8125C13.3984 11.9258 13.3984 9.60156 12.2773 7.6875C11.1836 5.80078 9.1875 4.625 7 4.625ZM7 17.75C4.48438 17.75 2.1875 16.4375 0.929688 14.25C-0.328125 12.0898 -0.328125 9.4375 0.929688 7.25C2.1875 5.08984 4.48438 3.75 7 3.75C9.48828 3.75 11.7852 5.08984 13.043 7.25C14.3008 9.4375 14.3008 12.0898 13.043 14.25C11.7852 16.4375 9.48828 17.75 7 17.75ZM7 8.125C7.24609 8.125 7.49219 8.23438 7.68359 8.42578L10.2812 11.2422C10.418 11.3789 10.5 11.5703 10.5 11.7617C10.5 12.1719 10.1445 12.5 9.73438 12.5H4.23828C3.82812 12.5 3.5 12.1719 3.5 11.7617C3.5 11.5703 3.55469 11.3789 3.69141 11.2422L6.28906 8.42578C6.48047 8.23438 6.72656 8.125 7 8.125ZM6.94531 9.02734L4.51172 11.625H9.46094L7.02734 9.02734L7 9C6.97266 9 6.94531 9.02734 6.94531 9.02734Z" fill="black" fill-opacity="0.72"/>
</g>
<defs>
<clipPath id="clip0_2556_12343">
<rect width="14" height="22" fill="white"/>
</clipPath>
</defs>
</svg>
