<svg width="12" height="18" viewBox="0 0 12 18" fill="none" xmlns="http://www.w3.org/2000/svg">
<g id="label-paired / caption / circle-four-caption / regular" clip-path="url(#clip0_2556_10406)">
<path id="icon" d="M11.25 9.5C11.25 7.625 10.2422 5.91406 8.625 4.97656C6.98438 4.01562 4.99219 4.01562 3.375 4.97656C1.73438 5.91406 0.75 7.625 0.75 9.5C0.75 11.3984 1.73438 13.1094 3.375 14.0469C4.99219 15.0078 6.98438 15.0078 8.625 14.0469C10.2422 13.1094 11.25 11.3984 11.25 9.5ZM0 9.5C0 7.36719 1.125 5.39844 3 4.32031C4.85156 3.24219 7.125 3.24219 9 4.32031C10.8516 5.39844 12 7.36719 12 9.5C12 11.6562 10.8516 13.625 9 14.7031C7.125 15.7812 4.85156 15.7812 3 14.7031C1.125 13.625 0 11.6562 0 9.5ZM5.36719 6.54688C5.57812 6.61719 5.67188 6.82812 5.57812 7.01562L4.28906 10.25H6.75V8.375C6.75 8.1875 6.91406 8 7.125 8C7.3125 8 7.5 8.1875 7.5 8.375V10.25H7.875C8.0625 10.25 8.25 10.4375 8.25 10.625C8.25 10.8359 8.0625 11 7.875 11H7.5V12.125C7.5 12.3359 7.3125 12.5 7.125 12.5C6.91406 12.5 6.75 12.3359 6.75 12.125V11H3.75C3.60938 11 3.49219 10.9531 3.42188 10.8359C3.35156 10.7422 3.35156 10.6016 3.39844 10.5078L4.89844 6.75781C4.96875 6.54688 5.17969 6.45312 5.39062 6.54688H5.36719Z" fill="black" fill-opacity="0.72"/>
</g>
<defs>
<clipPath id="clip0_2556_10406">
<rect width="12" height="18" fill="white"/>
</clipPath>
</defs>
</svg>
