<svg width="20" height="30" viewBox="0 0 20 30" fill="none" xmlns="http://www.w3.org/2000/svg">
<g id="label-paired / lg / circle-arrow-right-lg / bold" clip-path="url(#clip0_2556_17373)">
<path id="icon" d="M18.125 15.5C18.125 12.6094 16.5625 9.95312 14.0625 8.46875C11.5234 7.02344 8.4375 7.02344 5.9375 8.46875C3.39844 9.95312 1.875 12.6094 1.875 15.5C1.875 18.4297 3.39844 21.0859 5.9375 22.5703C8.4375 24.0156 11.5234 24.0156 14.0625 22.5703C16.5625 21.0859 18.125 18.4297 18.125 15.5ZM0 15.5C0 11.9453 1.875 8.66406 5 6.86719C8.08594 5.07031 11.875 5.07031 15 6.86719C18.0859 8.66406 20 11.9453 20 15.5C20 19.0938 18.0859 22.375 15 24.1719C11.875 25.9688 8.08594 25.9688 5 24.1719C1.875 22.375 0 19.0938 0 15.5ZM11.2891 19.6016C10.8984 19.9922 10.3125 19.9922 9.96094 19.6016C9.57031 19.25 9.57031 18.6641 9.96094 18.2734L11.7969 16.4375H5.9375C5.39062 16.4375 5 16.0469 5 15.5C5 14.9922 5.39062 14.5625 5.9375 14.5625H11.7969L9.96094 12.7266C9.57031 12.375 9.57031 11.7891 9.96094 11.4375C10.3125 11.0469 10.8984 11.0469 11.2891 11.4375L14.7266 14.875C15.0781 15.2266 15.0781 15.8125 14.7266 16.1641L11.2891 19.6016Z" fill="black" fill-opacity="0.72"/>
</g>
<defs>
<clipPath id="clip0_2556_17373">
<rect width="20" height="30" fill="white"/>
</clipPath>
</defs>
</svg>
