<svg width="23" height="36" viewBox="0 0 23 36" fill="none" xmlns="http://www.w3.org/2000/svg">
<g id="label-paired / xl / options-xl / fill" clip-path="url(#clip0_5147_514)">
<path id="icon" d="M2.875 29.7656C1.42188 29.7656 0.25 28.5938 0.25 27.1406V20.4375C0.25 19.5469 0.953125 18.7969 1.89062 18.7969H3.10938C4 18.7969 4.75 19.5469 4.75 20.4375V22.2188L6.15625 20.8125C7 19.9688 8.07812 19.5 9.25 19.5H12.5312C13.4219 19.5 14.1719 20.25 14.1719 21.1406V22.1719C14.1719 23.1094 13.4219 23.8125 12.5312 23.8125H10C9.53125 23.8125 9.0625 24 8.6875 24.375L7.79688 25.2656H9.57812C10.4688 25.2656 11.2188 26.0156 11.2188 26.9062V28.125C11.2188 29.0156 10.4688 29.7656 9.57812 29.7656H2.875ZM21.1562 18.1875H19.9375C19 18.1875 18.25 17.4375 18.25 16.5V14.7188L16.8438 16.1719C16 16.9688 14.9219 17.4375 13.75 17.4375H10.4688C9.57812 17.4375 8.82812 16.7344 8.82812 15.7969V14.7656C8.82812 13.875 9.57812 13.125 10.4688 13.125H13C13.4688 13.125 13.9844 12.9375 14.3125 12.6094L15.2031 11.6719H13.4219C12.5312 11.6719 11.7812 10.9688 11.7812 10.0312V8.8125C11.7812 7.92188 12.5312 7.17188 13.4219 7.17188H20.125C21.5781 7.17188 22.75 8.39062 22.75 9.84375V16.5C22.75 17.4375 22.0469 18.1406 21.1094 18.1406H21.1562V18.1875Z" fill="black" fill-opacity="0.72"/>
</g>
<defs>
<clipPath id="clip0_5147_514">
<rect width="23" height="36" fill="white"/>
</clipPath>
</defs>
</svg>
