<svg width="21" height="36" viewBox="0 0 21 36" fill="none" xmlns="http://www.w3.org/2000/svg">
<g id="label-paired / xl / arrow-up-from-bracket-xl / regular" clip-path="url(#clip0_2556_19598)">
<path id="icon" d="M11.0156 6.23438L17.0156 12.2344C17.2969 12.5156 17.2969 13.0312 17.0156 13.3125C16.7344 13.5938 16.2188 13.5938 15.9375 13.3125L11.25 8.57812V21.75C11.25 22.1719 10.875 22.5 10.5 22.5C10.0781 22.5 9.75 22.1719 9.75 21.75V8.57812L5.01562 13.3125C4.73438 13.5938 4.21875 13.5938 3.9375 13.3125C3.65625 13.0312 3.65625 12.5156 3.9375 12.2344L9.9375 6.23438C10.2188 5.95312 10.7344 5.95312 11.0156 6.23438ZM1.5 21.75V26.25C1.5 27.5156 2.48438 28.5 3.75 28.5H17.25C18.4688 28.5 19.5 27.5156 19.5 26.25V21.75C19.5 21.375 19.8281 21 20.25 21C20.625 21 21 21.375 21 21.75V26.25C21 28.3594 19.3125 30 17.25 30H3.75C1.64062 30 0 28.3594 0 26.25V21.75C0 21.375 0.328125 21 0.75 21C1.125 21 1.5 21.375 1.5 21.75Z" fill="black" fill-opacity="0.72"/>
</g>
<defs>
<clipPath id="clip0_2556_19598">
<rect width="21" height="36" fill="white"/>
</clipPath>
</defs>
</svg>
