<svg width="14" height="22" viewBox="0 0 14 22" fill="none" xmlns="http://www.w3.org/2000/svg">
<g id="label-paired / sm / life-ring-sm / fill" clip-path="url(#clip0_2556_12787)">
<path id="icon" d="M10.0352 15.043L8.44922 13.457C8.01172 13.7031 7.51953 13.8125 7 13.8125C6.45312 13.8125 5.96094 13.7031 5.52344 13.457L3.9375 15.043C4.8125 15.6445 5.85156 16 7 16C8.12109 16 9.16016 15.6445 10.0352 15.043ZM12.4961 15.0703H12.5234C12.7695 15.3984 12.7148 15.8906 12.4141 16.1914C12.1133 16.4922 11.6211 16.5195 11.293 16.2734C10.0898 17.2031 8.61328 17.75 7 17.75C5.35938 17.75 3.88281 17.2031 2.67969 16.2734C2.35156 16.5195 1.85938 16.4922 1.55859 16.1914C1.25781 15.8906 1.23047 15.3984 1.47656 15.0703C0.546875 13.8672 0 12.3906 0 10.75C0 9.13672 0.546875 7.66016 1.47656 6.45703C1.23047 6.12891 1.25781 5.63672 1.55859 5.33594C1.85938 5.03516 2.35156 4.98047 2.67969 5.22656C3.88281 4.32422 5.35938 3.75 7 3.75C8.61328 3.75 10.0898 4.32422 11.293 5.22656C11.6211 4.98047 12.1133 5.03516 12.4141 5.33594C12.7148 5.63672 12.7422 6.12891 12.4961 6.45703C13.4258 7.66016 13.9727 9.13672 13.9727 10.75C13.9727 12.3906 13.4258 13.8672 12.4961 15.0703ZM11.2656 13.8125C11.8672 12.9375 12.25 11.8984 12.25 10.75C12.25 9.62891 11.8672 8.58984 11.2656 7.71484L9.67969 9.30078C9.92578 9.73828 10.0352 10.2305 10.0352 10.75C10.0352 11.2969 9.92578 11.7891 9.67969 12.2266L11.2656 13.8125ZM10.0352 6.48438C9.16016 5.88281 8.12109 5.5 7 5.5C5.85156 5.5 4.8125 5.88281 3.9375 6.48438L5.52344 8.07031C5.96094 7.82422 6.45312 7.6875 6.97266 7.6875C7.51953 7.6875 8.01172 7.82422 8.44922 8.07031L10.0352 6.48438ZM4.29297 12.2266C4.04688 11.7891 3.9375 11.2969 3.9375 10.7773C3.9375 10.2305 4.04688 9.73828 4.29297 9.30078L2.70703 7.71484C2.10547 8.58984 1.75 9.62891 1.75 10.75C1.75 11.8984 2.10547 12.9375 2.70703 13.8125L4.29297 12.2266ZM5.6875 10.75C5.6875 11.2422 5.93359 11.6523 6.34375 11.8984C6.72656 12.1445 7.24609 12.1445 7.65625 11.8984C8.03906 11.6523 8.3125 11.2422 8.3125 10.75C8.3125 10.2852 8.03906 9.875 7.65625 9.62891C7.24609 9.38281 6.72656 9.38281 6.34375 9.62891C5.93359 9.875 5.6875 10.2852 5.6875 10.75Z" fill="black" fill-opacity="0.72"/>
</g>
<defs>
<clipPath id="clip0_2556_12787">
<rect width="14" height="22" fill="white"/>
</clipPath>
</defs>
</svg>
