<svg width="30" height="36" viewBox="0 0 30 36" fill="none" xmlns="http://www.w3.org/2000/svg">
<g id="label-paired / xl / location-crosshairs-slash-xl / regular" clip-path="url(#clip0_2556_19387)">
<path id="icon" d="M18.5156 24.6562L19.7812 25.6406C18.6094 26.3906 17.2031 26.8594 15.75 27V29.25C15.75 29.6719 15.375 30 15 30C14.5781 30 14.25 29.6719 14.25 29.25V27C9.84375 26.625 6.375 23.1562 6 18.75H3.75C3.32812 18.75 3 18.4219 3 18C3 17.625 3.32812 17.25 3.75 17.25H6C6.09375 16.5 6.23438 15.7969 6.46875 15.0938L7.73438 16.125C7.54688 16.7344 7.5 17.3438 7.5 18C7.5 22.1719 10.8281 25.5 15 25.5C16.2656 25.5 17.4844 25.2188 18.5156 24.6562ZM14.25 9.04688V6.75C14.25 6.375 14.5781 6 15 6C15.375 6 15.75 6.375 15.75 6.75V9.04688C20.1094 9.42188 23.5781 12.8906 23.9531 17.25H26.25C26.625 17.25 27 17.625 27 18C27 18.4219 26.625 18.75 26.25 18.75H23.9531C23.9062 19.5 23.7188 20.25 23.4844 20.9062L22.2188 19.9219C22.4062 19.3125 22.5 18.6562 22.5 18C22.5 13.875 19.125 10.5 15 10.5C13.6875 10.5 12.5156 10.8281 11.4375 11.3906L10.1719 10.4062C11.3906 9.65625 12.75 9.1875 14.25 9.04688ZM15 22.5C12.6094 22.5 10.6406 20.6719 10.5 18.2812L13.0781 20.3438C13.125 20.3906 13.125 20.3906 13.125 20.3906L15.75 22.4531C15.5156 22.5 15.2344 22.5 15 22.5ZM14.2031 13.5938C14.4375 13.5469 14.7188 13.5 15 13.5C17.3906 13.5 19.3125 15.375 19.4531 17.7656L16.875 15.7031C16.8281 15.6562 16.8281 15.6562 16.8281 15.6562L14.2031 13.5938ZM1.17188 6.1875L29.7188 28.6875C30 28.9219 30.0938 29.4375 29.8125 29.7188C29.5781 30.0469 29.1094 30.1406 28.7812 29.8594L0.28125 7.35938C-0.046875 7.125 -0.140625 6.60938 0.140625 6.32812C0.375 6 0.890625 5.90625 1.17188 6.1875Z" fill="black" fill-opacity="0.72"/>
</g>
<defs>
<clipPath id="clip0_2556_19387">
<rect width="30" height="36" fill="white"/>
</clipPath>
</defs>
</svg>
