<svg width="12" height="18" viewBox="0 0 12 18" fill="none" xmlns="http://www.w3.org/2000/svg">
<g id="label-paired / caption / circle-three-caption / bold" clip-path="url(#clip0_2556_10253)">
<path id="icon" d="M6 4.625C4.24219 4.625 2.64844 5.5625 1.75781 7.0625C0.890625 8.58594 0.890625 10.4375 1.75781 11.9375C2.64844 13.4609 4.24219 14.375 6 14.375C7.73438 14.375 9.32812 13.4609 10.2188 11.9375C11.0859 10.4375 11.0859 8.58594 10.2188 7.0625C9.32812 5.5625 7.73438 4.625 6 4.625ZM6 15.5C3.84375 15.5 1.875 14.375 0.796875 12.5C-0.28125 10.6484 -0.28125 8.375 0.796875 6.5C1.875 4.64844 3.84375 3.5 6 3.5C8.13281 3.5 10.1016 4.64844 11.1797 6.5C12.2578 8.375 12.2578 10.6484 11.1797 12.5C10.1016 14.375 8.13281 15.5 6 15.5ZM4.3125 6.5H7.3125C7.52344 6.5 7.73438 6.66406 7.82812 6.875C7.89844 7.08594 7.85156 7.32031 7.6875 7.48438L6.49219 8.58594C7.47656 8.67969 8.25 9.52344 8.25 10.5312C8.25 11.6328 7.35938 12.5 6.25781 12.5H5.625C4.89844 12.5 4.26562 12.1484 3.89062 11.5391L3.82031 11.4453C3.65625 11.1875 3.75 10.8359 4.00781 10.6719C4.26562 10.5078 4.61719 10.6016 4.78125 10.8594L4.85156 10.9531C5.01562 11.2344 5.29688 11.3984 5.625 11.3984H6.25781C6.72656 11.3984 7.125 11 7.125 10.5312C7.125 10.0625 6.72656 9.6875 6.25781 9.6875H5.0625C4.82812 9.71094 4.61719 9.57031 4.52344 9.33594C4.45312 9.125 4.5 8.86719 4.66406 8.72656L5.85938 7.625H4.3125C3.98438 7.625 3.75 7.39062 3.75 7.0625C3.75 6.75781 3.98438 6.5 4.3125 6.5Z" fill="black" fill-opacity="0.72"/>
</g>
<defs>
<clipPath id="clip0_2556_10253">
<rect width="12" height="18" fill="white"/>
</clipPath>
</defs>
</svg>
