<svg width="20" height="30" viewBox="0 0 20 30" fill="none" xmlns="http://www.w3.org/2000/svg">
<g id="label-paired / lg / circle-arrow-up-right-lg / regular" clip-path="url(#clip0_2556_17365)">
<path id="icon" d="M10 24.25C13.125 24.25 15.9766 22.6094 17.5391 19.875C19.1406 17.1797 19.1406 13.8594 17.5391 11.125C15.9766 8.42969 13.125 6.75 10 6.75C6.83594 6.75 3.98438 8.42969 2.42188 11.125C0.820312 13.8594 0.820312 17.1797 2.42188 19.875C3.98438 22.6094 6.83594 24.25 10 24.25ZM10 5.5C13.5547 5.5 16.8359 7.41406 18.6328 10.5C20.4297 13.625 20.4297 17.4141 18.6328 20.5C16.8359 23.625 13.5547 25.5 10 25.5C6.40625 25.5 3.125 23.625 1.32812 20.5C-0.46875 17.4141 -0.46875 13.625 1.32812 10.5C3.125 7.41406 6.40625 5.5 10 5.5ZM7.8125 11.75H13.125C13.4375 11.75 13.75 12.0625 13.75 12.375V18C13.75 18.3516 13.4375 18.625 13.125 18.625C12.7734 18.625 12.5 18.3516 12.5 18V13.8984L7.30469 19.0938C7.07031 19.3281 6.64062 19.3281 6.40625 19.0938C6.17188 18.8594 6.17188 18.4297 6.40625 18.1953L11.6016 13H7.8125C7.46094 13 7.1875 12.7266 7.1875 12.375C7.1875 12.0625 7.46094 11.75 7.8125 11.75Z" fill="black" fill-opacity="0.72"/>
</g>
<defs>
<clipPath id="clip0_2556_17365">
<rect width="20" height="30" fill="white"/>
</clipPath>
</defs>
</svg>
