<svg width="18" height="36" viewBox="0 0 18 36" fill="none" xmlns="http://www.w3.org/2000/svg">
<g id="label-paired / xl / lightbulb-xl / regular" clip-path="url(#clip0_2512_1042)">
<path id="icon" d="M14.5312 18.0938C15.3125 17 15.7188 15.7188 15.75 14.25C15.6875 12.3438 15.0312 10.75 13.7812 9.46875C12.5 8.21875 10.9062 7.5625 9 7.5C7.09375 7.5625 5.5 8.21875 4.21875 9.46875C2.96875 10.75 2.3125 12.3438 2.25 14.25C2.28125 15.7188 2.6875 17 3.46875 18.0938C3.59375 18.2812 3.73438 18.4844 3.89062 18.7031C3.95312 18.7969 4.01562 18.8906 4.07812 18.9844C4.10938 19.0156 4.125 19.0469 4.125 19.0781C4.75 19.8906 5.32812 20.75 5.85938 21.6562C6.26562 22.4375 6.53125 23.2188 6.65625 24H5.10938C5.01562 23.4375 4.82812 22.9062 4.54688 22.4062C4.07812 21.5625 3.54688 20.75 2.95312 19.9688C2.70312 19.625 2.45312 19.2812 2.20312 18.9375C1.26562 17.5938 0.78125 16.0312 0.75 14.25C0.8125 11.9062 1.625 9.96875 3.1875 8.4375C4.71875 6.875 6.65625 6.0625 9 6C11.3438 6.0625 13.2812 6.875 14.8125 8.4375C16.375 9.96875 17.1875 11.9062 17.25 14.25C17.2188 16.0312 16.7344 17.5938 15.7969 18.9375C15.5469 19.2812 15.2969 19.6094 15.0469 19.9219C15.0469 19.9531 15.0469 19.9688 15.0469 19.9688C14.4531 20.75 13.9219 21.5469 13.4531 22.3594C13.1719 22.8906 12.9844 23.4375 12.8906 24H11.3906C11.4844 23.2188 11.7344 22.4375 12.1406 21.6562C12.6719 20.7188 13.25 19.8281 13.875 18.9844C13.9062 18.9844 13.9219 18.9844 13.9219 18.9844C14.1406 18.6719 14.3438 18.375 14.5312 18.0938ZM9 10.5C7.9375 10.5312 7.04688 10.8906 6.32812 11.5781C5.64062 12.2969 5.28125 13.1875 5.25 14.25C5.21875 14.7188 4.96875 14.9688 4.5 15C4.03125 14.9688 3.78125 14.7188 3.75 14.25C3.78125 12.75 4.29688 11.5156 5.29688 10.5469C6.26562 9.54688 7.5 9.03125 9 9C9.46875 9.03125 9.71875 9.28125 9.75 9.75C9.71875 10.2188 9.46875 10.4688 9 10.5ZM6.89062 27C7.26562 27.9375 7.96875 28.4375 9 28.5C10.0312 28.4375 10.7344 27.9375 11.1094 27H6.89062ZM5.25 26.25V26.0156C5.28125 25.7031 5.45312 25.5312 5.76562 25.5H12.2344C12.5469 25.5312 12.7188 25.7031 12.75 26.0156V26.25C12.7188 27.3125 12.3594 28.2031 11.6719 28.9219C10.9531 29.6094 10.0625 29.9688 9 30C7.9375 29.9688 7.04688 29.6094 6.32812 28.9219C5.64062 28.2031 5.28125 27.3125 5.25 26.25Z" fill="black" fill-opacity="0.72"/>
</g>
<defs>
<clipPath id="clip0_2512_1042">
<rect width="18" height="36" fill="white"/>
</clipPath>
</defs>
</svg>
