<svg width="12" height="18" viewBox="0 0 12 18" fill="none" xmlns="http://www.w3.org/2000/svg">
<g id="label-paired / caption / face-viewfinder-caption / regular" clip-path="url(#clip0_2556_10030)">
<path id="icon" d="M1.125 3.5H3.375C3.5625 3.5 3.75 3.6875 3.75 3.875C3.75 4.08594 3.5625 4.25 3.375 4.25H1.125C0.914062 4.25 0.75 4.4375 0.75 4.625V6.875C0.75 7.08594 0.5625 7.25 0.375 7.25C0.164062 7.25 0 7.08594 0 6.875V4.625C0 4.01562 0.492188 3.5 1.125 3.5ZM10.875 3.5C11.4844 3.5 12 4.01562 12 4.625V6.875C12 7.08594 11.8125 7.25 11.625 7.25C11.4141 7.25 11.25 7.08594 11.25 6.875V4.625C11.25 4.4375 11.0625 4.25 10.875 4.25H8.625C8.41406 4.25 8.25 4.08594 8.25 3.875C8.25 3.6875 8.41406 3.5 8.625 3.5H10.875ZM0 14.375V12.125C0 11.9375 0.164062 11.75 0.375 11.75C0.5625 11.75 0.75 11.9375 0.75 12.125V14.375C0.75 14.5859 0.914062 14.75 1.125 14.75H3.375C3.5625 14.75 3.75 14.9375 3.75 15.125C3.75 15.3359 3.5625 15.5 3.375 15.5H1.125C0.492188 15.5 0 15.0078 0 14.375ZM10.875 15.5H8.625C8.41406 15.5 8.25 15.3359 8.25 15.125C8.25 14.9375 8.41406 14.75 8.625 14.75H10.875C11.0625 14.75 11.25 14.5859 11.25 14.375V12.125C11.25 11.9375 11.4141 11.75 11.625 11.75C11.8125 11.75 12 11.9375 12 12.125V14.375C12 15.0078 11.4844 15.5 10.875 15.5ZM5.625 8.5625C5.625 8.89062 5.36719 9.125 5.0625 9.125C4.73438 9.125 4.5 8.89062 4.5 8.5625C4.5 8.25781 4.73438 8 5.0625 8C5.36719 8 5.625 8.25781 5.625 8.5625ZM6.9375 9.125C6.60938 9.125 6.375 8.89062 6.375 8.5625C6.375 8.25781 6.60938 8 6.9375 8C7.24219 8 7.5 8.25781 7.5 8.5625C7.5 8.89062 7.24219 9.125 6.9375 9.125ZM6 6.5C4.92188 6.5 3.9375 7.08594 3.39844 8C2.85938 8.9375 2.85938 10.0859 3.39844 11C3.9375 11.9375 4.92188 12.5 6 12.5C7.05469 12.5 8.03906 11.9375 8.57812 11C9.11719 10.0859 9.11719 8.9375 8.57812 8C8.03906 7.08594 7.05469 6.5 6 6.5ZM6 13.25C4.64062 13.25 3.42188 12.5469 2.74219 11.375C2.0625 10.2266 2.0625 8.79688 2.74219 7.625C3.42188 6.47656 4.64062 5.75 6 5.75C7.33594 5.75 8.55469 6.47656 9.23438 7.625C9.91406 8.79688 9.91406 10.2266 9.23438 11.375C8.55469 12.5469 7.33594 13.25 6 13.25ZM5.01562 10.0625C5.20312 10.4141 5.57812 10.625 6 10.625C6.39844 10.625 6.77344 10.4141 6.96094 10.0625C7.07812 9.89844 7.28906 9.82812 7.47656 9.94531C7.66406 10.0391 7.71094 10.2734 7.61719 10.4609C7.28906 11 6.67969 11.3984 6 11.3984C5.29688 11.3984 4.6875 11 4.35938 10.4609C4.26562 10.2734 4.3125 10.0391 4.5 9.94531C4.6875 9.82812 4.92188 9.89844 5.01562 10.0625Z" fill="black" fill-opacity="0.72"/>
</g>
<defs>
<clipPath id="clip0_2556_10030">
<rect width="12" height="18" fill="white"/>
</clipPath>
</defs>
</svg>
