<svg width="18" height="22" viewBox="0 0 18 22" fill="none" xmlns="http://www.w3.org/2000/svg">
<g id="label-paired / sm / hand-gesture-tap-right-sm / regular" clip-path="url(#clip0_3546_772)">
<path id="icon" d="M14.8516 4.625C14.7148 4.625 14.5781 4.76172 14.5781 4.89844V16.6289C14.5781 16.7656 14.7148 16.875 14.8516 16.875C14.9883 16.875 15.125 16.7656 15.125 16.6289V4.89844C15.125 4.76172 14.9883 4.625 14.8516 4.625ZM14.25 9.4375C14.25 10.3672 13.5391 11.1055 12.6367 11.1875L11.625 13.3477C11.6523 13.4023 11.707 13.457 11.7344 13.5391L11.9531 13.9492C12.1445 14.332 12.1445 14.7695 11.9805 15.1523L11.8164 15.4805C11.4336 16.3008 10.6133 16.8477 9.73828 16.875H9.57422C9.13672 16.9023 8.75391 16.8203 8.39844 16.6562L6.29297 15.6445C5.33594 15.207 4.92578 14.0586 5.39062 13.1016L6.07422 11.625C6.34766 11.0781 7.00391 10.832 7.55078 11.1055C7.55078 11.1055 7.57812 11.1328 7.60547 11.1328C7.63281 11.1602 7.66016 11.1602 7.66016 11.1875C7.98828 10.9688 8.39844 10.9141 8.75391 11.0781C8.86328 11.1055 8.91797 11.1602 9 11.2148C9.30078 10.9961 9.73828 10.9414 10.1211 11.1055C10.2578 11.1602 10.3672 11.2695 10.4492 11.3516L10.9414 10.2852C10.8047 10.0391 10.7227 9.76562 10.7227 9.4375C10.7227 8.48047 11.5156 7.6875 12.4727 7.6875C13.457 7.6875 14.2227 8.48047 14.2227 9.4375H14.25ZM13.1016 10.2578L12.9375 10.5859C13.4023 10.4219 13.7031 9.95703 13.7031 9.4375C13.7031 8.78125 13.1562 8.23438 12.5 8.23438C11.8164 8.23438 11.2695 8.78125 11.2695 9.4375C11.2695 9.51953 11.2695 9.57422 11.2695 9.62891L11.3516 9.4375C11.5703 8.97266 12.1719 8.75391 12.6367 8.97266C13.1016 9.19141 13.3203 9.79297 13.1016 10.2578ZM10.4766 14.4688L12.6094 10.0117C12.6914 9.82031 12.6094 9.57422 12.3906 9.46484C12.1992 9.38281 11.9531 9.46484 11.8438 9.65625L10.6953 12.1172C10.6406 12.2266 10.5312 12.2812 10.4219 12.2539C10.2852 12.2266 10.2031 12.1445 10.1758 12.0352C10.1484 11.8438 10.0391 11.6797 9.875 11.5977C9.65625 11.4883 9.35547 11.5703 9.21875 11.7891C9.16406 11.8438 9.08203 11.8984 8.97266 11.8984C8.89062 11.8984 8.80859 11.8438 8.75391 11.7617C8.69922 11.6797 8.61719 11.625 8.53516 11.5703C8.31641 11.4609 8.04297 11.5156 7.87891 11.707C7.82422 11.7617 7.76953 11.8164 7.6875 11.8164C7.60547 11.8164 7.52344 11.7617 7.46875 11.7344C7.41406 11.6797 7.35938 11.625 7.30469 11.5977C7.03125 11.4883 6.70312 11.5977 6.56641 11.8711L5.88281 13.3477C5.55469 14.0312 5.82812 14.8516 6.51172 15.1797L8.61719 16.1641C8.91797 16.3008 9.21875 16.3555 9.54688 16.3281L9.71094 16.3555C10.4219 16.3008 11.0234 15.8633 11.3242 15.2344L11.4883 14.9336C11.5977 14.6875 11.5703 14.4414 11.4609 14.1953L11.3242 13.9492L10.9688 14.6875C10.9141 14.8516 10.75 14.9062 10.6133 14.8242C10.5039 14.7695 10.4219 14.6055 10.4766 14.4688Z" fill="black" fill-opacity="0.72"/>
</g>
<defs>
<clipPath id="clip0_3546_772">
<rect width="18" height="22" fill="white"/>
</clipPath>
</defs>
</svg>
