<svg width="21" height="36" viewBox="0 0 21 36" fill="none" xmlns="http://www.w3.org/2000/svg">
<g id="label-paired / xl / copy-xl / fill" clip-path="url(#clip0_2556_19377)">
<path id="icon" d="M9.75 6H15.5625C16.125 6 16.7344 6.28125 17.1562 6.70312L20.2969 9.84375C20.7188 10.2656 21 10.875 21 11.4375V21.75C21 23.0156 19.9688 24 18.75 24H9.75C8.48438 24 7.5 23.0156 7.5 21.75V8.25C7.5 7.03125 8.48438 6 9.75 6ZM2.25 12H6V15H3V27H12V25.5H15V27.75C15 29.0156 13.9688 30 12.75 30H2.25C0.984375 30 0 29.0156 0 27.75V14.25C0 13.0312 0.984375 12 2.25 12Z" fill="black" fill-opacity="0.72"/>
</g>
<defs>
<clipPath id="clip0_2556_19377">
<rect width="21" height="36" fill="white"/>
</clipPath>
</defs>
</svg>
