<svg width="18" height="24" viewBox="0 0 18 24" fill="none" xmlns="http://www.w3.org/2000/svg">
<g id="label-paired / md / pen-line-md / regular" clip-path="url(#clip0_2556_14716)">
<path id="icon" d="M13.4062 5.25C13.125 4.96875 12.6562 4.96875 12.3438 5.25L10.6562 6.96875L13.0312 9.34375L14.75 7.65625C15.0312 7.34375 15.0312 6.875 14.75 6.59375L13.4062 5.25ZM2.59375 15.0312C2.34375 15.25 2.1875 15.5625 2.09375 15.875L1.21875 18.7812L4.125 17.9375C4.4375 17.8438 4.75 17.6562 4.96875 17.4062L12.3438 10.0625L9.9375 7.65625L2.59375 15.0312ZM11.6562 4.53125C12.3438 3.875 13.4375 3.875 14.125 4.53125L15.4688 5.875C16.125 6.5625 16.125 7.65625 15.4688 8.34375L5.6875 18.125C5.3125 18.4688 4.875 18.75 4.40625 18.875L0.625 20C0.4375 20.0625 0.25 20 0.125 19.875C0 19.75 -0.03125 19.5625 0 19.375L1.125 15.5938C1.25 15.125 1.53125 14.6875 1.875 14.3125L11.6562 4.53125ZM7.5 19H17.5C17.75 19 18 19.25 18 19.5C18 19.7812 17.75 20 17.5 20H7.5C7.21875 20 7 19.7812 7 19.5C7 19.25 7.21875 19 7.5 19Z" fill="black" fill-opacity="0.72"/>
</g>
<defs>
<clipPath id="clip0_2556_14716">
<rect width="18" height="24" fill="white"/>
</clipPath>
</defs>
</svg>
