<svg width="15" height="18" viewBox="0 0 15 18" fill="none" xmlns="http://www.w3.org/2000/svg">
<g id="label-paired / caption / chart-trend-up-caption / fill" clip-path="url(#clip0_2556_10165)">
<path id="icon" d="M14.5781 3.59375C14.9531 3.78125 15.0938 4.22656 14.9062 4.60156L12.6562 9.10156C12.5391 9.35938 12.2812 9.5 12 9.5H8.69531L5.90625 15.1016C5.71875 15.4766 5.27344 15.6172 4.89844 15.4297L0.398438 13.1797C0.0234375 12.9922 -0.117188 12.5469 0.0703125 12.1719C0.257812 11.7969 0.703125 11.6562 1.07812 11.8438L4.89844 13.7656L7.57031 8.42188C7.6875 8.16406 7.94531 8 8.25 8H11.5312L13.5703 3.92188C13.7578 3.54688 14.2031 3.40625 14.5781 3.59375Z" fill="black" fill-opacity="0.72"/>
</g>
<defs>
<clipPath id="clip0_2556_10165">
<rect width="15" height="18" fill="white"/>
</clipPath>
</defs>
</svg>
