<svg width="16" height="22" viewBox="0 0 16 22" fill="none" xmlns="http://www.w3.org/2000/svg">
<g id="label-paired / sm / file-circle-info-sm / regular" clip-path="url(#clip0_2556_12434)">
<path id="icon" d="M1.875 16.875H8.21875C8.49219 17.2031 8.79297 17.5039 9.12109 17.75C9.03906 17.75 8.95703 17.75 8.875 17.75H1.875C0.890625 17.75 0.125 16.9844 0.125 16V5.5C0.125 4.54297 0.890625 3.75 1.875 3.75H6.14062C6.46875 3.75 6.82422 3.91406 7.07031 4.16016L10.2148 7.30469C10.4609 7.55078 10.625 7.90625 10.625 8.23438V9.19141C10.2969 9.27344 10.0234 9.38281 9.75 9.54688V9H6.6875C5.94922 9 5.375 8.42578 5.375 7.6875V4.625H1.875C1.38281 4.625 1 5.03516 1 5.5V16C1 16.4922 1.38281 16.875 1.875 16.875ZM9.72266 8.125C9.69531 8.07031 9.66797 7.98828 9.61328 7.93359L6.44141 4.76172C6.38672 4.70703 6.30469 4.67969 6.25 4.65234V7.6875C6.25 7.93359 6.44141 8.125 6.6875 8.125H9.72266ZM15 13.8125C15 12.7188 14.3984 11.7344 13.4688 11.1875C12.5117 10.6133 11.3359 10.6133 10.4062 11.1875C9.44922 11.7344 8.875 12.7188 8.875 13.8125C8.875 14.9336 9.44922 15.918 10.4062 16.4648C11.3359 17.0391 12.5117 17.0391 13.4688 16.4648C14.3984 15.918 15 14.9336 15 13.8125ZM8 13.8125C8 12.418 8.73828 11.1328 9.96875 10.4219C11.1719 9.71094 12.6758 9.71094 13.9062 10.4219C15.1094 11.1328 15.875 12.418 15.875 13.8125C15.875 15.2344 15.1094 16.5195 13.9062 17.2305C12.6758 17.9414 11.1719 17.9414 9.96875 17.2305C8.73828 16.5195 8 15.2344 8 13.8125ZM11.9375 12.9375C11.5547 12.9375 11.2812 12.6641 11.2812 12.2812C11.2812 11.9258 11.5547 11.625 11.9375 11.625C12.293 11.625 12.5938 11.9258 12.5938 12.2812C12.5938 12.6641 12.293 12.9375 11.9375 12.9375ZM11.0625 15.5625C11.0625 15.3438 11.2539 15.125 11.5 15.125V14.25C11.2539 14.25 11.0625 14.0586 11.0625 13.8125C11.0625 13.5938 11.2539 13.375 11.5 13.375H11.9375C12.1562 13.375 12.375 13.5938 12.375 13.8125V15.125C12.5938 15.125 12.8125 15.3438 12.8125 15.5625C12.8125 15.8086 12.5938 16 12.375 16H11.9375H11.5C11.2539 16 11.0625 15.8086 11.0625 15.5625Z" fill="black" fill-opacity="0.72"/>
</g>
<defs>
<clipPath id="clip0_2556_12434">
<rect width="16" height="22" fill="white"/>
</clipPath>
</defs>
</svg>
