<svg width="13" height="22" viewBox="0 0 13 22" fill="none" xmlns="http://www.w3.org/2000/svg">
<g id="label-paired / sm / placeholder-sm / fill" clip-path="url(#clip0_2556_12472)">
<path id="icon" d="M3 4.625H3.875V6.375H3C2.50781 6.375 2.125 6.78516 2.125 7.25V8.125H0.375V7.25C0.375 5.80078 1.55078 4.625 3 4.625ZM0.375 9H2.125V12.5H0.375V9ZM10.875 9H12.625V12.5H10.875V9ZM12.625 8.125H10.875V7.25C10.875 6.78516 10.4648 6.375 10 6.375H9.125V4.625H10C11.4492 4.625 12.625 5.80078 12.625 7.25V8.125ZM12.625 13.375V14.25C12.625 15.6992 11.4492 16.875 10 16.875H9.125V15.125H10C10.4648 15.125 10.875 14.7422 10.875 14.25V13.375H12.625ZM2.125 13.375V14.25C2.125 14.7422 2.50781 15.125 3 15.125H3.875V16.875H3C1.55078 16.875 0.375 15.6992 0.375 14.25V13.375H2.125ZM4.75 16.875V15.125H8.25V16.875H4.75ZM4.75 6.375V4.625H8.25V6.375H4.75Z" fill="black" fill-opacity="0.72"/>
</g>
<defs>
<clipPath id="clip0_2556_12472">
<rect width="13" height="22" fill="white"/>
</clipPath>
</defs>
</svg>
