<svg width="20" height="24" viewBox="0 0 20 24" fill="none" xmlns="http://www.w3.org/2000/svg">
<g id="label-paired / md / users-md / regular" clip-path="url(#clip0_2556_15118)">
<path id="icon" d="M3 6.5C3 7.0625 3.28125 7.53125 3.75 7.8125C4.1875 8.09375 4.78125 8.09375 5.25 7.8125C5.6875 7.53125 6 7.0625 6 6.5C6 5.96875 5.6875 5.5 5.25 5.21875C4.78125 4.9375 4.1875 4.9375 3.75 5.21875C3.28125 5.5 3 5.96875 3 6.5ZM7 6.5C7 7.40625 6.5 8.21875 5.75 8.6875C4.96875 9.125 4 9.125 3.25 8.6875C2.46875 8.21875 2 7.40625 2 6.5C2 5.625 2.46875 4.8125 3.25 4.34375C4 3.90625 4.96875 3.90625 5.75 4.34375C6.5 4.8125 7 5.625 7 6.5ZM10 9C9.28125 9 8.625 9.40625 8.25 10C7.90625 10.625 7.90625 11.4062 8.25 12C8.625 12.625 9.28125 13 10 13C10.6875 13 11.3438 12.625 11.7188 12C12.0625 11.4062 12.0625 10.625 11.7188 10C11.3438 9.40625 10.6875 9 10 9ZM10 14C8.90625 14 7.9375 13.4375 7.375 12.5C6.84375 11.5938 6.84375 10.4375 7.375 9.5C7.9375 8.59375 8.90625 8 10 8C11.0625 8 12.0312 8.59375 12.5938 9.5C13.125 10.4375 13.125 11.5938 12.5938 12.5C12.0312 13.4375 11.0625 14 10 14ZM8.15625 16C6.46875 16 5.0625 17.3438 5 19H14.9688C14.9062 17.3438 13.5 16 11.8125 16H8.15625ZM8.15625 15H11.8125C14.125 15 16 16.875 16 19.1875C16 19.6562 15.625 20 15.1562 20H4.8125C4.34375 20 4 19.625 4 19.1875C4 16.875 5.84375 15 8.15625 15ZM16 5C15.4375 5 14.9688 5.3125 14.6875 5.75C14.4062 6.21875 14.4062 6.8125 14.6875 7.25C14.9688 7.71875 15.4375 8 16 8C16.5312 8 17 7.71875 17.2812 7.25C17.5625 6.8125 17.5625 6.21875 17.2812 5.75C17 5.3125 16.5312 5 16 5ZM16 9C15.0938 9 14.2812 8.53125 13.8125 7.75C13.375 7 13.375 6.03125 13.8125 5.25C14.2812 4.5 15.0938 4 16 4C16.875 4 17.6875 4.5 18.1562 5.25C18.5938 6.03125 18.5938 7 18.1562 7.75C17.6875 8.53125 16.875 9 16 9ZM16.5 11H14C14 10.6562 13.9375 10.3438 13.875 10H16.5C18.4062 10 20 11.5938 20 13.5C20 13.7812 19.75 14 19.5 14C19.2188 14 19 13.7812 19 13.5C19 12.125 17.875 11 16.5 11ZM6 11H3.5C2.09375 11 1 12.125 1 13.5C1 13.7812 0.75 14 0.5 14C0.21875 14 0 13.7812 0 13.5C0 11.5938 1.5625 10 3.5 10H6.125C6.03125 10.3438 6 10.6562 6 11Z" fill="black" fill-opacity="0.72"/>
</g>
<defs>
<clipPath id="clip0_2556_15118">
<rect width="20" height="24" fill="white"/>
</clipPath>
</defs>
</svg>
