<svg width="13" height="30" viewBox="0 0 13 30" fill="none" xmlns="http://www.w3.org/2000/svg">
<g id="label-paired / lg / five-lg / fill" clip-path="url(#clip0_2556_17330)">
<path id="icon" d="M1.5 7.80469C1.61719 7.21875 2.125 6.75 2.75 6.75H10.25C10.9141 6.75 11.5 7.33594 11.5 8C11.5 8.70312 10.9141 9.25 10.25 9.25H3.76562L2.98438 13.625H7.4375C10.3672 13.625 12.75 16.0078 12.75 18.9375C12.75 21.9062 10.3672 24.25 7.4375 24.25H4.15625C2.63281 24.25 1.22656 23.3906 0.523438 22.0234L0.367188 21.7109C0.0546875 21.0859 0.289062 20.3438 0.914062 20.0312C1.53906 19.7188 2.28125 19.9531 2.59375 20.5781L2.75 20.8906C3.02344 21.4375 3.57031 21.75 4.15625 21.75H7.4375C8.96094 21.75 10.25 20.5 10.25 18.9375C10.25 17.4141 8.96094 16.125 7.4375 16.125H1.5C1.10938 16.125 0.757812 15.9688 0.523438 15.6953C0.289062 15.4219 0.171875 15.0312 0.25 14.6797L1.5 7.80469Z" fill="black" fill-opacity="0.72"/>
</g>
<defs>
<clipPath id="clip0_2556_17330">
<rect width="13" height="30" fill="white"/>
</clipPath>
</defs>
</svg>
