<svg width="10" height="24" viewBox="0 0 10 24" fill="none" xmlns="http://www.w3.org/2000/svg">
<g id="label-paired / md / five-md / regular" clip-path="url(#clip0_2556_14833)">
<path id="icon" d="M1.5 5.40625C1.5625 5.15625 1.75 5 2 5H8.5C8.75 5 9 5.25 9 5.5C9 5.78125 8.75 6 8.5 6H2.375L1.125 11H6C8.1875 11 10 12.8125 10 15C10 17.2188 8.1875 19 6 19H2.625C1.59375 19 0.625 18.4375 0.15625 17.5L0.03125 17.25C-0.09375 17 0.03125 16.6875 0.25 16.5625C0.5 16.4375 0.8125 16.5312 0.9375 16.7812L1.0625 17.0625C1.375 17.6562 1.96875 18.0312 2.625 18.0312H6C7.65625 18.0312 9 16.6875 9 15.0312C9 13.375 7.65625 12.0312 6 12.0312H0.5C0.34375 12.0312 0.1875 11.9375 0.09375 11.8125C0 11.6875 -0.03125 11.5312 0 11.4062L1.5 5.40625Z" fill="black" fill-opacity="0.72"/>
</g>
<defs>
<clipPath id="clip0_2556_14833">
<rect width="10" height="24" fill="white"/>
</clipPath>
</defs>
</svg>
