<svg width="16" height="24" viewBox="0 0 16 24" fill="none" xmlns="http://www.w3.org/2000/svg">
<g id="label-paired / md / sliders-md / fill" clip-path="url(#clip0_3758_516)">
<path id="icon" d="M0 17C0 16.4688 0.4375 16 1 16H2.6875C3.09375 15.125 3.96875 14.5 5 14.5C6 14.5 6.90625 15.125 7.28125 16H15C15.5312 16 16 16.4688 16 17C16 17.5625 15.5312 18 15 18H7.28125C6.90625 18.9062 6 19.5 5 19.5C3.96875 19.5 3.09375 18.9062 2.6875 18H1C0.4375 18 0 17.5625 0 17ZM4 17C4 17.5625 4.4375 18 5 18C5.53125 18 6 17.5625 6 17C6 16.4688 5.53125 16 5 16C4.4375 16 4 16.4688 4 17ZM10 12C10 12.5625 10.4375 13 11 13C11.5312 13 12 12.5625 12 12C12 11.4688 11.5312 11 11 11C10.4375 11 10 11.4688 10 12ZM11 9.5C12 9.5 12.9062 10.125 13.2812 11H15C15.5312 11 16 11.4688 16 12C16 12.5625 15.5312 13 15 13H13.2812C12.9062 13.9062 12 14.5 11 14.5C9.96875 14.5 9.09375 13.9062 8.6875 13H1C0.4375 13 0 12.5625 0 12C0 11.4688 0.4375 11 1 11H8.6875C9.09375 10.125 9.96875 9.5 11 9.5ZM6 8C6.53125 8 7 7.5625 7 7C7 6.46875 6.53125 6 6 6C5.4375 6 5 6.46875 5 7C5 7.5625 5.4375 8 6 8ZM8.28125 6H15C15.5312 6 16 6.46875 16 7C16 7.5625 15.5312 8 15 8H8.28125C7.90625 8.90625 7 9.5 6 9.5C4.96875 9.5 4.09375 8.90625 3.6875 8H1C0.4375 8 0 7.5625 0 7C0 6.46875 0.4375 6 1 6H3.6875C4.09375 5.125 4.96875 4.5 6 4.5C7 4.5 7.90625 5.125 8.28125 6Z" fill="black" fill-opacity="0.72"/>
</g>
<defs>
<clipPath id="clip0_3758_516">
<rect width="16" height="24" fill="white"/>
</clipPath>
</defs>
</svg>
