<svg width="25" height="30" viewBox="0 0 25 30" fill="none" xmlns="http://www.w3.org/2000/svg">
<g id="label-paired / lg / chart-trend-up-lg / fill" clip-path="url(#clip0_2556_17200)">
<path id="icon" d="M24.2969 5.65625C24.9219 5.96875 25.1562 6.71094 24.8438 7.33594L21.0938 14.8359C20.8984 15.2656 20.4688 15.5 20 15.5H14.4922L9.84375 24.8359C9.53125 25.4609 8.78906 25.6953 8.16406 25.3828L0.664062 21.6328C0.0390625 21.3203 -0.195312 20.5781 0.117188 19.9531C0.429688 19.3281 1.17188 19.0938 1.79688 19.4062L8.16406 22.6094L12.6172 13.7031C12.8125 13.2734 13.2422 13 13.75 13H19.2188L22.6172 6.20312C22.9297 5.57812 23.6719 5.34375 24.2969 5.65625Z" fill="black" fill-opacity="0.72"/>
</g>
<defs>
<clipPath id="clip0_2556_17200">
<rect width="25" height="30" fill="white"/>
</clipPath>
</defs>
</svg>
