<svg width="20" height="24" viewBox="0 0 20 24" fill="none" xmlns="http://www.w3.org/2000/svg">
<g id="label-paired / md / bell-on-md / regular" clip-path="url(#clip0_2556_15282)">
<path id="icon" d="M18.9375 4.28125C19.0625 4.53125 18.9688 4.84375 18.7188 4.96875L16.7188 5.96875C16.4688 6.09375 16.1562 5.96875 16.0312 5.75C15.9062 5.5 16 5.1875 16.25 5.0625L18.25 4.0625C18.5 3.9375 18.8125 4.03125 18.9375 4.28125ZM9.5 4.5C9.5 4.25 9.71875 4 10 4C10.25 4 10.5 4.25 10.5 4.5V5.03125C13 5.28125 15 7.40625 15 10V10.9375C15 12.2812 15.5312 13.5938 16.5 14.5625L16.5938 14.6562C16.8438 14.9062 17 15.2812 17 15.625C17 16.4062 16.375 17.0312 15.5938 17.0312H4.375C3.59375 17 3 16.4062 3 15.625C3 15.25 3.125 14.9062 3.40625 14.6562L3.46875 14.5625C4.4375 13.5938 5 12.2812 5 10.9062V10C5 7.40625 6.96875 5.28125 9.5 5.03125V4.5ZM10 6C7.78125 6 6 7.8125 6 10V10.9375C6 12.5625 5.34375 14.125 4.1875 15.2812L4.09375 15.375C4.03125 15.4375 3.96875 15.5312 3.96875 15.625C3.96875 15.8438 4.15625 16.0312 4.375 16.0312H15.5938C15.8125 16.0312 16 15.8438 16 15.625C16 15.5312 15.9375 15.4375 15.875 15.375L15.7812 15.2812C14.625 14.125 13.9688 12.5625 13.9688 10.9375V10C13.9688 7.8125 12.1875 6 9.96875 6H10ZM9.03125 18.3438C9.1875 18.75 9.5625 19 10 19C10.4062 19 10.7812 18.75 10.9375 18.3438C11.0312 18.0938 11.3125 17.9375 11.5625 18.0312C11.8125 18.125 11.9688 18.4062 11.875 18.6875C11.5938 19.4688 10.8438 20 10 20C9.125 20 8.375 19.4688 8.09375 18.6875C8 18.4062 8.15625 18.125 8.40625 18.0312C8.65625 17.9375 8.9375 18.0938 9.03125 18.3438ZM0 9.5C0 9.25 0.21875 9 0.5 9H3C3.25 9 3.5 9.25 3.5 9.5C3.5 9.78125 3.25 10 3 10H0.5C0.21875 10 0 9.78125 0 9.5ZM17 9H19.5C19.75 9 20 9.25 20 9.5C20 9.78125 19.75 10 19.5 10H17C16.7188 10 16.5 9.78125 16.5 9.5C16.5 9.25 16.7188 9 17 9ZM1.25 4.96875C1 4.84375 0.90625 4.53125 1.03125 4.28125C1.15625 4.03125 1.46875 3.9375 1.71875 4.0625L3.71875 5.0625C3.96875 5.1875 4.0625 5.5 3.9375 5.75C3.8125 5.96875 3.5 6.09375 3.25 5.96875L1.25 4.96875Z" fill="black" fill-opacity="0.72"/>
</g>
<defs>
<clipPath id="clip0_2556_15282">
<rect width="20" height="24" fill="white"/>
</clipPath>
</defs>
</svg>
