<svg width="20" height="24" viewBox="0 0 20 24" fill="none" xmlns="http://www.w3.org/2000/svg">
<g id="label-paired / md / light-chart-line-up-down-clock-md / fill" clip-path="url(#clip0_2556_15194)">
<path id="icon" d="M0 6C0 5.46875 0.4375 5 1 5C1.53125 5 2 5.46875 2 6V16.5C2 16.7812 2.21875 17 2.5 17H10.1875C10.4062 17.75 10.75 18.4375 11.25 19H2.5C1.09375 19 0 17.9062 0 16.5V6ZM3.28125 11.3125L5.78125 8.8125C6.15625 8.40625 6.8125 8.40625 7.1875 8.8125L9 10.5938L11.7812 7.8125L11.1875 7.21875C11.0625 7.09375 11 6.90625 11 6.71875C11 6.34375 11.3125 6 11.6875 6H14.5C14.75 6 15 6.25 15 6.5V7V7.03125V9.3125C15 9.6875 14.6562 10 14.2812 10C14.0938 10 13.9062 9.9375 13.7812 9.8125L13.1875 9.21875L9.6875 12.7188C9.3125 13.125 8.65625 13.125 8.28125 12.7188L6.5 10.9375L4.6875 12.7188C4.3125 13.125 3.65625 13.125 3.28125 12.7188C2.875 12.3438 2.875 11.6875 3.28125 11.3125ZM11 15.5C11 13.0312 13 11 15.5 11C17.9688 11 20 13.0312 20 15.5C20 18 17.9688 20 15.5 20C13 20 11 18 11 15.5ZM15 13.5V15.5C15 15.7812 15.2188 16 15.5 16H17C17.25 16 17.5 15.7812 17.5 15.5C17.5 15.25 17.25 15 17 15H16V13.5C16 13.25 15.75 13 15.5 13C15.2188 13 15 13.25 15 13.5Z" fill="black" fill-opacity="0.72"/>
</g>
<defs>
<clipPath id="clip0_2556_15194">
<rect width="20" height="24" fill="white"/>
</clipPath>
</defs>
</svg>
