<svg width="14" height="22" viewBox="0 0 14 22" fill="none" xmlns="http://www.w3.org/2000/svg">
<g id="label-paired / sm / right-from-bracket-sm / regular" clip-path="url(#clip0_2556_12853)">
<path id="icon" d="M13.0977 10.7227L9.48828 7.30469C9.46094 7.27734 9.40625 7.25 9.35156 7.25C9.26953 7.25 9.1875 7.33203 9.1875 7.44141V9C9.1875 9.24609 8.96875 9.4375 8.75 9.4375H5.46875C5.33203 9.4375 5.25 9.54688 5.25 9.65625V11.8438C5.25 11.9805 5.33203 12.0625 5.46875 12.0625H8.75C8.96875 12.0625 9.1875 12.2812 9.1875 12.5V14.0859C9.1875 14.168 9.26953 14.25 9.35156 14.25C9.40625 14.25 9.46094 14.25 9.48828 14.2227L13.0977 10.8047C13.0977 10.8047 13.125 10.7773 13.125 10.75L13.0977 10.7227ZM14 10.75C14 11.0234 13.8906 11.2695 13.6992 11.4609L10.0898 14.8516C9.89844 15.043 9.625 15.125 9.35156 15.125C8.77734 15.125 8.3125 14.6602 8.3125 14.0859V12.9375H5.46875C4.83984 12.9375 4.375 12.4727 4.375 11.8438V9.65625C4.375 9.05469 4.83984 8.5625 5.46875 8.5625H8.3125V7.44141C8.3125 6.86719 8.77734 6.375 9.35156 6.375C9.625 6.375 9.89844 6.48438 10.0898 6.67578L13.6992 10.0664C13.8906 10.2578 14 10.5039 14 10.75ZM4.8125 5.5H2.1875C1.44922 5.5 0.875 6.10156 0.875 6.8125V14.6875C0.875 15.4258 1.44922 16 2.1875 16H4.8125C5.03125 16 5.25 16.2188 5.25 16.4375C5.25 16.6836 5.03125 16.875 4.8125 16.875H2.1875C0.957031 16.875 0 15.918 0 14.6875V6.8125C0 5.60938 0.957031 4.625 2.1875 4.625H4.8125C5.03125 4.625 5.25 4.84375 5.25 5.0625C5.25 5.30859 5.03125 5.5 4.8125 5.5Z" fill="black" fill-opacity="0.72"/>
</g>
<defs>
<clipPath id="clip0_2556_12853">
<rect width="14" height="22" fill="white"/>
</clipPath>
</defs>
</svg>
