<svg width="18" height="36" viewBox="0 0 18 36" fill="none" xmlns="http://www.w3.org/2000/svg">
<g id="label-paired / xl / microphone-xl / fill" clip-path="url(#clip0_2556_19776)">
<path id="icon" d="M9 6C11.4844 6 13.5 8.01562 13.5 10.5V18C13.5 20.4844 11.4844 22.5 9 22.5C6.51562 22.5 4.5 20.4844 4.5 18V10.5C4.5 8.01562 6.51562 6 9 6ZM3 16.125V18C3 21.3281 5.67188 24 9 24C12.2812 24 15 21.3281 15 18V16.125C15 15.5156 15.4688 15 16.125 15C16.7344 15 17.25 15.5156 17.25 16.125V18C17.25 22.2188 14.1094 25.6406 10.125 26.2031V27.75H12.375C12.9844 27.75 13.5 28.2656 13.5 28.875C13.5 29.5312 12.9844 30 12.375 30H9H5.625C4.96875 30 4.5 29.5312 4.5 28.875C4.5 28.2656 4.96875 27.75 5.625 27.75H7.875V26.2031C3.84375 25.6406 0.75 22.2188 0.75 18V16.125C0.75 15.5156 1.21875 15 1.875 15C2.48438 15 3 15.5156 3 16.125Z" fill="black" fill-opacity="0.72"/>
</g>
<defs>
<clipPath id="clip0_2556_19776">
<rect width="18" height="36" fill="white"/>
</clipPath>
</defs>
</svg>
