<svg width="6" height="36" viewBox="0 0 6 36" fill="none" xmlns="http://www.w3.org/2000/svg">
<g id="label-paired / xl / ellipsis-vertical-xl / fill" clip-path="url(#clip0_2556_19819)">
<path id="icon" d="M3 22.875C3.9375 22.875 4.78125 23.3906 5.25 24.1875C5.71875 25.0312 5.71875 26.0156 5.25 26.8125C4.78125 27.6562 3.9375 28.125 3 28.125C2.01562 28.125 1.17188 27.6562 0.703125 26.8125C0.234375 26.0156 0.234375 25.0312 0.703125 24.1875C1.17188 23.3906 2.01562 22.875 3 22.875ZM3 15.375C3.9375 15.375 4.78125 15.8906 5.25 16.6875C5.71875 17.5312 5.71875 18.5156 5.25 19.3125C4.78125 20.1562 3.9375 20.625 3 20.625C2.01562 20.625 1.17188 20.1562 0.703125 19.3125C0.234375 18.5156 0.234375 17.5312 0.703125 16.6875C1.17188 15.8906 2.01562 15.375 3 15.375ZM5.625 10.5C5.625 11.4844 5.10938 12.3281 4.3125 12.7969C3.46875 13.2656 2.48438 13.2656 1.6875 12.7969C0.84375 12.3281 0.375 11.4844 0.375 10.5C0.375 9.5625 0.84375 8.71875 1.6875 8.25C2.48438 7.78125 3.46875 7.78125 4.3125 8.25C5.10938 8.71875 5.625 9.5625 5.625 10.5Z" fill="black" fill-opacity="0.72"/>
</g>
<defs>
<clipPath id="clip0_2556_19819">
<rect width="6" height="36" fill="white"/>
</clipPath>
</defs>
</svg>
