<svg width="18" height="24" viewBox="0 0 18 24" fill="none" xmlns="http://www.w3.org/2000/svg">
<g id="label-paired / md / basket-shopping-md / bold" clip-path="url(#clip0_2981_886)">
<path id="icon" d="M7.59375 4.09375C7.9375 4.28125 8.09375 4.75 7.90625 5.125L5.34375 10H12.625L10.0625 5.125C9.875 4.75 10.0312 4.28125 10.375 4.09375C10.75 3.90625 11.2188 4.0625 11.4062 4.40625L14.3125 10H15.4375H17H17.25C17.6562 10 18 10.3438 18 10.75C18 11.1875 17.6562 11.5 17.25 11.5H16.625L14.875 18.5C14.6562 19.375 13.8438 20 12.9375 20H5.0625C4.125 20 3.34375 19.375 3.09375 18.5L1.375 11.5H0.75C0.3125 11.5 0 11.1875 0 10.75C0 10.3438 0.3125 10 0.75 10H1H2.53125H3.65625L6.5625 4.40625C6.75 4.0625 7.21875 3.90625 7.59375 4.09375ZM2.90625 11.5L4.5625 18.125C4.625 18.3438 4.8125 18.5 5.0625 18.5H12.9375C13.1562 18.5 13.3438 18.3438 13.4062 18.125L15.0625 11.5H2.90625ZM7 13.75V16.25C7 16.6875 6.65625 17 6.25 17C5.8125 17 5.5 16.6875 5.5 16.25V13.75C5.5 13.3438 5.8125 13 6.25 13C6.65625 13 7 13.3438 7 13.75ZM9 13C9.40625 13 9.75 13.3438 9.75 13.75V16.25C9.75 16.6875 9.40625 17 9 17C8.5625 17 8.25 16.6875 8.25 16.25V13.75C8.25 13.3438 8.5625 13 9 13ZM12.5 13.75V16.25C12.5 16.6875 12.1562 17 11.75 17C11.3125 17 11 16.6875 11 16.25V13.75C11 13.3438 11.3125 13 11.75 13C12.1562 13 12.5 13.3438 12.5 13.75Z" fill="black" fill-opacity="0.72"/>
</g>
<defs>
<clipPath id="clip0_2981_886">
<rect width="18" height="24" fill="white"/>
</clipPath>
</defs>
</svg>
