<svg width="14" height="22" viewBox="0 0 14 22" fill="none" xmlns="http://www.w3.org/2000/svg">
<g id="label-paired / sm / telegram-sm" clip-path="url(#clip0_2556_12231)">
<path id="icon" d="M7 3.96875C10.7188 3.96875 13.7812 7.03125 13.7812 10.75C13.7812 14.4961 10.7188 17.5312 7 17.5312C3.25391 17.5312 0.21875 14.4961 0.21875 10.75C0.21875 7.03125 3.25391 3.96875 7 3.96875ZM10.1172 8.58984C10.1445 8.50781 10.1445 8.42578 10.1172 8.31641C10.1172 8.26172 10.0625 8.17969 10.0352 8.15234C9.95312 8.07031 9.81641 8.07031 9.76172 8.07031C9.51562 8.07031 9.10547 8.20703 7.21875 9C6.5625 9.27344 5.25 9.82031 3.28125 10.6953C2.95312 10.832 2.78906 10.9414 2.76172 11.0781C2.73438 11.2969 3.08984 11.3789 3.5 11.5156C3.85547 11.625 4.32031 11.7617 4.56641 11.7617C4.78516 11.7617 5.03125 11.6797 5.30469 11.4883C7.13672 10.2305 8.09375 9.60156 8.14844 9.60156C8.20312 9.60156 8.25781 9.57422 8.28516 9.60156C8.33984 9.65625 8.33984 9.71094 8.3125 9.73828C8.28516 9.875 6.5625 11.4609 6.45312 11.5703C6.07031 11.9531 5.63281 12.1992 6.31641 12.6367C6.89062 13.0195 7.21875 13.2656 7.82031 13.6484C8.20312 13.8945 8.50391 14.1953 8.88672 14.168C9.07812 14.1406 9.26953 13.9766 9.35156 13.457C9.59766 12.2812 10.0352 9.65625 10.1172 8.58984Z" fill="black" fill-opacity="0.72"/>
</g>
<defs>
<clipPath id="clip0_2556_12231">
<rect width="14" height="22" fill="white"/>
</clipPath>
</defs>
</svg>
