<svg width="14" height="24" viewBox="0 0 14 24" fill="none" xmlns="http://www.w3.org/2000/svg">
<g id="label-paired / md / bars-md / fill" clip-path="url(#clip0_2556_15226)">
<path id="icon" d="M0 7C0 6.46875 0.4375 6 1 6H13C13.5312 6 14 6.46875 14 7C14 7.5625 13.5312 8 13 8H1C0.4375 8 0 7.5625 0 7ZM0 12C0 11.4688 0.4375 11 1 11H13C13.5312 11 14 11.4688 14 12C14 12.5625 13.5312 13 13 13H1C0.4375 13 0 12.5625 0 12ZM14 17C14 17.5625 13.5312 18 13 18H1C0.4375 18 0 17.5625 0 17C0 16.4688 0.4375 16 1 16H13C13.5312 16 14 16.4688 14 17Z" fill="black" fill-opacity="0.72"/>
</g>
<defs>
<clipPath id="clip0_2556_15226">
<rect width="14" height="24" fill="white"/>
</clipPath>
</defs>
</svg>
