<svg width="16" height="24" viewBox="0 0 16 24" fill="none" xmlns="http://www.w3.org/2000/svg">
<g id="label-paired / md / bank-md / fill" clip-path="url(#clip0_2556_14594)">
<path id="icon" d="M7.59375 4.09375C7.84375 4 8.125 4 8.375 4.09375L15.375 7.09375C15.8125 7.28125 16.0625 7.75 15.9688 8.21875C15.875 8.6875 15.4688 9 15 9V9.25C15 9.6875 14.6562 10 14.25 10H1.75C1.3125 10 1 9.6875 1 9.25V9C0.5 9 0.09375 8.6875 0 8.21875C-0.09375 7.75 0.15625 7.28125 0.59375 7.09375L7.59375 4.09375ZM4 11V17H5.25V11H7.25V17H8.75V11H10.75V17H12V11H13.9688V17.1562C14 17.1562 14.0312 17.1562 14.0312 17.1875L15.5312 18.1875C15.9062 18.4375 16.0625 18.875 15.9375 19.3125C15.8125 19.7188 15.4375 20 15 20H1C0.53125 20 0.15625 19.7188 0.03125 19.3125C-0.09375 18.875 0.0625 18.4375 0.4375 18.1875L1.9375 17.1875C1.9375 17.1562 1.96875 17.1562 2 17.1562V11H4ZM8 6C7.4375 6 7 6.46875 7 7C7 7.5625 7.4375 8 8 8C8.53125 8 9 7.5625 9 7C9 6.46875 8.53125 6 8 6Z" fill="black" fill-opacity="0.72"/>
</g>
<defs>
<clipPath id="clip0_2556_14594">
<rect width="16" height="24" fill="white"/>
</clipPath>
</defs>
</svg>
