<svg width="20" height="24" viewBox="0 0 20 24" fill="none" xmlns="http://www.w3.org/2000/svg">
<g id="label-paired / md / language-md / bold" clip-path="url(#clip0_2556_14931)">
<path id="icon" d="M2 6H8.5H9.5H10H18C19.0938 6 20 6.90625 20 8V16C20 17.125 19.0938 18 18 18H10H9.5H8.5H2C0.875 18 0 17.125 0 16V8C0 6.90625 0.875 6 2 6ZM18 7.5H10V16.5H18C18.25 16.5 18.5 16.2812 18.5 16V8C18.5 7.75 18.25 7.5 18 7.5ZM5.5625 9.5C5.46875 9.28125 5.21875 9.125 5 9.125C4.75 9.125 4.5 9.28125 4.40625 9.5L2.40625 14C2.28125 14.3125 2.40625 14.6875 2.71875 14.8438C3.0625 14.9688 3.40625 14.8438 3.5625 14.5312L3.84375 13.875H6.125L6.40625 14.5312C6.5625 14.8438 6.9375 14.9688 7.25 14.8438C7.5625 14.6875 7.6875 14.3125 7.5625 14L5.5625 9.5ZM5.59375 12.625H4.40625L5 11.3125L5.59375 12.625ZM14.25 9.125C14.5938 9.125 14.875 9.40625 14.875 9.75V9.875H16.25H16.75C17.0938 9.875 17.375 10.1562 17.375 10.5C17.375 10.8438 17.0938 11.125 16.75 11.125H16.6875L16.625 11.2812C16.3438 12.0312 15.9062 12.75 15.375 13.3125C15.4062 13.3438 15.4375 13.3438 15.4688 13.375L16.0625 13.7188C16.3438 13.9062 16.4375 14.2812 16.2812 14.5938C16.0938 14.875 15.7188 14.9688 15.4062 14.8125L14.8125 14.4375C14.6875 14.375 14.5625 14.2812 14.4062 14.1875C14.0938 14.4062 13.7188 14.625 13.3438 14.7812L13.25 14.8438C12.9375 14.9688 12.5625 14.8438 12.4062 14.5312C12.2812 14.1875 12.4062 13.8438 12.7188 13.6875L12.8438 13.6562C13.0312 13.5625 13.25 13.4375 13.4375 13.3438L13.0312 12.9688C12.8125 12.7188 12.8125 12.3125 13.0312 12.0625C13.2812 11.8438 13.6875 11.8438 13.9375 12.0625L14.375 12.5312H14.4062C14.7812 12.125 15.0938 11.6562 15.3438 11.125H14.25H12C11.6562 11.125 11.375 10.8438 11.375 10.5C11.375 10.1562 11.6562 9.875 12 9.875H13.625V9.75C13.625 9.40625 13.9062 9.125 14.25 9.125Z" fill="black" fill-opacity="0.72"/>
</g>
<defs>
<clipPath id="clip0_2556_14931">
<rect width="20" height="24" fill="white"/>
</clipPath>
</defs>
</svg>
