<svg width="20" height="24" viewBox="0 0 20 24" fill="none" xmlns="http://www.w3.org/2000/svg">
<g id="label-paired / md / wallet-signal-md / bold" clip-path="url(#clip0_2556_14585)">
<path id="icon" d="M0 7.75C0 6.25 1.21875 5 2.75 5H14.25C14.6562 5 15 5.34375 15 5.75C15 6.1875 14.6562 6.5 14.25 6.5H2.75C2.03125 6.5 1.5 7.0625 1.5 7.75V16.25C1.5 16.9688 2.03125 17.5 2.75 17.5H11V19H2.75C1.21875 19 0 17.7812 0 16.25V7.75ZM3 8.75C3 8.34375 3.3125 8 3.75 8H13.25C14.75 8 16 9.25 16 10.75V11.6875C15.5 11.4688 15 11.3125 14.5 11.1875V10.75C14.5 10.0625 13.9375 9.5 13.25 9.5H3.75C3.3125 9.5 3 9.1875 3 8.75ZM12 12.75C12 12.3438 12.3125 12 12.75 12C16.75 12 20 15.25 20 19.25C20 19.6875 19.6562 20 19.25 20C18.8125 20 18.5 19.6875 18.5 19.25C18.5 16.0938 15.9062 13.5 12.75 13.5C12.3125 13.5 12 13.1875 12 12.75ZM12 15.75C12 15.3438 12.3125 15 12.75 15C15.0938 15 17 16.9062 17 19.25C17 19.6875 16.6562 20 16.25 20C15.8125 20 15.5 19.6875 15.5 19.25C15.5 17.75 14.25 16.5 12.75 16.5C12.3125 16.5 12 16.1875 12 15.75ZM12 19C12 18.4688 12.4375 18 13 18C13.5312 18 14 18.4688 14 19C14 19.5625 13.5312 20 13 20C12.4375 20 12 19.5625 12 19Z" fill="black" fill-opacity="0.72"/>
</g>
<defs>
<clipPath id="clip0_2556_14585">
<rect width="20" height="24" fill="white"/>
</clipPath>
</defs>
</svg>
