<svg width="9" height="22" viewBox="0 0 9 22" fill="none" xmlns="http://www.w3.org/2000/svg">
<g id="label-paired / sm / dollar-sign-sm / regular" clip-path="url(#clip0_2556_12323)">
<path id="icon" d="M4.9375 4.1875V5.52734C5.78516 5.60938 6.63281 5.77344 7.20703 5.9375C7.45312 5.99219 7.58984 6.21094 7.53516 6.45703C7.48047 6.70312 7.26172 6.83984 7.01562 6.78516C6.11328 6.56641 4.77344 6.29297 3.625 6.40234C3.05078 6.45703 2.53125 6.59375 2.17578 6.8125C1.82031 7.05859 1.57422 7.38672 1.46484 7.93359C1.38281 8.31641 1.4375 8.61719 1.54688 8.83594C1.65625 9.08203 1.84766 9.27344 2.14844 9.46484C2.75 9.84766 3.625 10.0664 4.60938 10.3398H4.63672C5.56641 10.5859 6.57812 10.8594 7.31641 11.3242C7.69922 11.5703 8.02734 11.8711 8.21875 12.2812C8.4375 12.7188 8.49219 13.2109 8.38281 13.7578C8.19141 14.6875 7.53516 15.3164 6.66016 15.6719C6.16797 15.8633 5.56641 15.9727 4.9375 16V17.3125C4.9375 17.5586 4.74609 17.75 4.5 17.75C4.25391 17.75 4.0625 17.5586 4.0625 17.3125V15.9727C3.89844 15.9453 3.70703 15.9453 3.54297 15.918C2.83203 15.8086 1.73828 15.5625 0.808594 15.1523C0.589844 15.0703 0.507812 14.7969 0.589844 14.5781C0.699219 14.3594 0.945312 14.25 1.16406 14.3594C1.98438 14.7148 2.99609 14.9336 3.65234 15.043C4.71875 15.207 5.64844 15.125 6.33203 14.8516C7.01562 14.5781 7.39844 14.168 7.50781 13.5938C7.58984 13.1836 7.53516 12.9102 7.42578 12.6641C7.31641 12.4453 7.125 12.2266 6.82422 12.0625C6.22266 11.6797 5.34766 11.4336 4.39062 11.1875L4.33594 11.1602C3.40625 10.9414 2.39453 10.668 1.68359 10.2031C1.30078 9.95703 0.972656 9.62891 0.753906 9.21875C0.5625 8.80859 0.507812 8.31641 0.589844 7.74219C0.753906 6.97656 1.13672 6.45703 1.68359 6.07422C2.23047 5.74609 2.88672 5.58203 3.54297 5.52734C3.70703 5.5 3.87109 5.5 4.0625 5.5V4.1875C4.0625 3.96875 4.25391 3.75 4.5 3.75C4.71875 3.75 4.9375 3.96875 4.9375 4.1875Z" fill="black" fill-opacity="0.72"/>
</g>
<defs>
<clipPath id="clip0_2556_12323">
<rect width="9" height="22" fill="white"/>
</clipPath>
</defs>
</svg>
