<svg width="18" height="36" viewBox="0 0 18 36" fill="none" xmlns="http://www.w3.org/2000/svg">
<g id="label-paired / xl / four-xl / fill" clip-path="url(#clip0_2556_19591)">
<path id="icon" d="M8.85938 9.65625L3.84375 20.25H12V13.5C12 12.7031 12.6562 12 13.5 12C14.2969 12 15 12.7031 15 13.5V20.25H16.5C17.2969 20.25 18 20.9531 18 21.75C18 22.5938 17.2969 23.25 16.5 23.25H15V27C15 27.8438 14.2969 28.5 13.5 28.5C12.6562 28.5 12 27.8438 12 27V23.25H1.5C0.984375 23.25 0.46875 23.0156 0.1875 22.5938C-0.046875 22.125 -0.09375 21.6094 0.140625 21.1406L6.14062 8.39062C6.46875 7.64062 7.35938 7.3125 8.10938 7.64062C8.85938 8.01562 9.1875 8.90625 8.85938 9.65625Z" fill="black" fill-opacity="0.72"/>
</g>
<defs>
<clipPath id="clip0_2556_19591">
<rect width="18" height="36" fill="white"/>
</clipPath>
</defs>
</svg>
