<svg width="15" height="30" viewBox="0 0 15 30" fill="none" xmlns="http://www.w3.org/2000/svg">
<g id="label-paired / lg / file-arrow-down-lg / bold" clip-path="url(#clip0_3431_914)">
<path id="icon" d="M1.875 23C1.875 23.3516 2.14844 23.625 2.5 23.625H12.5C12.8125 23.625 13.125 23.3516 13.125 23V11.75H10C9.29688 11.75 8.75 11.2031 8.75 10.5V7.375H2.5C2.14844 7.375 1.875 7.6875 1.875 8V23ZM2.5 5.5H8.94531C9.60938 5.5 10.2344 5.77344 10.7031 6.24219L14.2578 9.79688C14.7266 10.2656 15 10.8906 15 11.5547V23C15 24.4062 13.8672 25.5 12.5 25.5H2.5C1.09375 25.5 0 24.4062 0 23V8C0 6.63281 1.09375 5.5 2.5 5.5ZM8.4375 14.5625V18.5859L9.64844 17.375C10 16.9844 10.5859 16.9844 10.9766 17.375C11.3281 17.7266 11.3281 18.3125 10.9766 18.6641L8.16406 21.4766C7.77344 21.8672 7.1875 21.8672 6.83594 21.4766L4.02344 18.6641C3.63281 18.3125 3.63281 17.7266 4.02344 17.375C4.375 16.9844 4.96094 16.9844 5.35156 17.375L6.5625 18.5859V14.5625C6.5625 14.0547 6.95312 13.625 7.5 13.625C8.00781 13.625 8.4375 14.0547 8.4375 14.5625Z" fill="black" fill-opacity="0.72"/>
</g>
<defs>
<clipPath id="clip0_3431_914">
<rect width="15" height="30" fill="white"/>
</clipPath>
</defs>
</svg>
