<svg width="14" height="18" viewBox="0 0 14 18" fill="none" xmlns="http://www.w3.org/2000/svg">
<g id="label-paired / caption / presentation-screen-caption / bold" clip-path="url(#clip0_2556_10128)">
<path id="icon" d="M0.8125 3.5H13.1875C13.4922 3.5 13.75 3.75781 13.75 4.0625C13.75 4.39062 13.4922 4.625 13.1875 4.625H0.8125C0.484375 4.625 0.25 4.39062 0.25 4.0625C0.25 3.75781 0.484375 3.5 0.8125 3.5ZM1 5.375H2.125V10.4375C2.125 10.5547 2.19531 10.625 2.3125 10.625H7H11.6875C11.7812 10.625 11.875 10.5547 11.875 10.4375V5.375H13V10.4375C13 11.1641 12.3906 11.75 11.6875 11.75H7.53906V12.8516L9.25 14.5625C9.48438 14.7734 9.48438 15.125 9.25 15.3359C9.03906 15.5703 8.6875 15.5703 8.45312 15.3359L6.97656 13.8594L5.5 15.3359C5.28906 15.5703 4.9375 15.5703 4.72656 15.3359C4.49219 15.125 4.49219 14.7734 4.72656 14.5625L6.4375 12.8516V11.75H2.3125C1.58594 11.75 1 11.1641 1 10.4375V5.375Z" fill="black" fill-opacity="0.72"/>
</g>
<defs>
<clipPath id="clip0_2556_10128">
<rect width="14" height="18" fill="white"/>
</clipPath>
</defs>
</svg>
