<svg width="20" height="30" viewBox="0 0 20 30" fill="none" xmlns="http://www.w3.org/2000/svg">
<g id="label-paired / lg / briefcase-lg / bold" clip-path="url(#clip0_2556_17031)">
<path id="icon" d="M6.875 7.6875V9.25H13.125V7.6875C13.125 7.53125 12.9688 7.375 12.8125 7.375H7.1875C6.99219 7.375 6.875 7.53125 6.875 7.6875ZM5 9.25V7.6875C5 6.51562 5.97656 5.5 7.1875 5.5H12.8125C13.9844 5.5 15 6.51562 15 7.6875V9.25H17.5C18.8672 9.25 20 10.3828 20 11.75V16.4375V21.75C20 23.1562 18.8672 24.25 17.5 24.25H2.5C1.09375 24.25 0 23.1562 0 21.75V16.4375V11.75C0 10.3828 1.09375 9.25 2.5 9.25H5ZM1.875 17.375V21.75C1.875 22.1016 2.14844 22.375 2.5 22.375H17.5C17.8125 22.375 18.125 22.1016 18.125 21.75V17.375H12.5V18C12.5 18.7031 11.9141 19.25 11.25 19.25H8.75C8.04688 19.25 7.5 18.7031 7.5 18V17.375H1.875ZM7.5 15.5H12.5H18.125V11.75C18.125 11.4375 17.8125 11.125 17.5 11.125H14.0625H5.9375H2.5C2.14844 11.125 1.875 11.4375 1.875 11.75V15.5H7.5Z" fill="black" fill-opacity="0.72"/>
</g>
<defs>
<clipPath id="clip0_2556_17031">
<rect width="20" height="30" fill="white"/>
</clipPath>
</defs>
</svg>
