<svg width="24" height="36" viewBox="0 0 24 36" fill="none" xmlns="http://www.w3.org/2000/svg">
<g id="label-paired / xl / location-crosshairs-xl / fill" clip-path="url(#clip0_2556_19876)">
<path id="icon" d="M12 6C12.7969 6 13.5 6.70312 13.5 7.5V9.14062C17.25 9.79688 20.2031 12.75 20.8594 16.5H22.5C23.2969 16.5 24 17.2031 24 18C24 18.8438 23.2969 19.5 22.5 19.5H20.8594C20.2031 23.2969 17.25 26.25 13.5 26.9062V28.5C13.5 29.3438 12.7969 30 12 30C11.1562 30 10.5 29.3438 10.5 28.5V26.9062C6.70312 26.25 3.75 23.2969 3.09375 19.5H1.5C0.65625 19.5 0 18.8438 0 18C0 17.2031 0.65625 16.5 1.5 16.5H3.09375C3.75 12.75 6.70312 9.79688 10.5 9.14062V7.5C10.5 6.70312 11.1562 6 12 6ZM6 18C6 20.1562 7.125 22.125 9 23.2031C10.8281 24.2812 13.125 24.2812 15 23.2031C16.8281 22.125 18 20.1562 18 18C18 15.8906 16.8281 13.9219 15 12.8438C13.125 11.7656 10.8281 11.7656 9 12.8438C7.125 13.9219 6 15.8906 6 18ZM12 14.25C13.3125 14.25 14.5312 15 15.2344 16.125C15.8906 17.2969 15.8906 18.75 15.2344 19.875C14.5312 21.0469 13.3125 21.75 12 21.75C10.6406 21.75 9.42188 21.0469 8.71875 19.875C8.0625 18.75 8.0625 17.2969 8.71875 16.125C9.42188 15 10.6406 14.25 12 14.25Z" fill="black" fill-opacity="0.72"/>
</g>
<defs>
<clipPath id="clip0_2556_19876">
<rect width="24" height="36" fill="white"/>
</clipPath>
</defs>
</svg>
