<svg width="27" height="36" viewBox="0 0 27 36" fill="none" xmlns="http://www.w3.org/2000/svg">
<g id="label-paired / xl / basket-shopping-xl / bold" clip-path="url(#clip0_2981_900)">
<path id="icon" d="M11.3906 6.14062C11.9062 6.42188 12.1406 7.125 11.8594 7.6875L8.01562 15H18.9375L15.0938 7.6875C14.8125 7.125 15.0469 6.42188 15.5625 6.14062C16.125 5.85938 16.8281 6.09375 17.1094 6.60938L21.4688 15H23.1562H25.5H25.875C26.4844 15 27 15.5156 27 16.125C27 16.7812 26.4844 17.25 25.875 17.25H24.9375L22.3125 27.75C21.9844 29.0625 20.7656 30 19.4062 30H7.59375C6.1875 30 5.01562 29.0625 4.64062 27.75L2.0625 17.25H1.125C0.46875 17.25 0 16.7812 0 16.125C0 15.5156 0.46875 15 1.125 15H1.5H3.79688H5.48438L9.84375 6.60938C10.125 6.09375 10.8281 5.85938 11.3906 6.14062ZM4.35938 17.25L6.84375 27.1875C6.9375 27.5156 7.21875 27.75 7.59375 27.75H19.4062C19.7344 27.75 20.0156 27.5156 20.1094 27.1875L22.5938 17.25H4.35938ZM10.5 20.625V24.375C10.5 25.0312 9.98438 25.5 9.375 25.5C8.71875 25.5 8.25 25.0312 8.25 24.375V20.625C8.25 20.0156 8.71875 19.5 9.375 19.5C9.98438 19.5 10.5 20.0156 10.5 20.625ZM13.5 19.5C14.1094 19.5 14.625 20.0156 14.625 20.625V24.375C14.625 25.0312 14.1094 25.5 13.5 25.5C12.8438 25.5 12.375 25.0312 12.375 24.375V20.625C12.375 20.0156 12.8438 19.5 13.5 19.5ZM18.75 20.625V24.375C18.75 25.0312 18.2344 25.5 17.625 25.5C16.9688 25.5 16.5 25.0312 16.5 24.375V20.625C16.5 20.0156 16.9688 19.5 17.625 19.5C18.2344 19.5 18.75 20.0156 18.75 20.625Z" fill="black" fill-opacity="0.72"/>
</g>
<defs>
<clipPath id="clip0_2981_900">
<rect width="27" height="36" fill="white"/>
</clipPath>
</defs>
</svg>
