<svg width="18" height="30" viewBox="0 0 18 30" fill="none" xmlns="http://www.w3.org/2000/svg">
<g id="label-paired / lg / arrow-right-to-line-lg / bold" clip-path="url(#clip0_2556_17385)">
<path id="icon" d="M17.75 8.9375V22.0625C17.75 22.6094 17.3203 23 16.8125 23C16.2656 23 15.875 22.6094 15.875 22.0625V8.9375C15.875 8.42969 16.2656 8 16.8125 8C17.3203 8 17.75 8.42969 17.75 8.9375ZM12.4375 16.2031L7.125 21.2031C6.73438 21.5547 6.14844 21.5156 5.79688 21.1641C5.44531 20.7734 5.44531 20.1875 5.83594 19.8359L9.42969 16.4375H6.1875H1.1875C0.640625 16.4375 0.25 16.0469 0.25 15.5C0.25 14.9922 0.640625 14.5625 1.1875 14.5625H6.1875H9.42969L5.83594 11.2031C5.44531 10.8516 5.44531 10.2656 5.79688 9.875C6.14844 9.48438 6.73438 9.48438 7.125 9.83594L12.4375 14.8359C12.6328 15.0312 12.75 15.2656 12.75 15.5C12.75 15.7734 12.6328 16.0078 12.4375 16.2031Z" fill="black" fill-opacity="0.72"/>
</g>
<defs>
<clipPath id="clip0_2556_17385">
<rect width="18" height="30" fill="white"/>
</clipPath>
</defs>
</svg>
