<svg width="20" height="30" viewBox="0 0 20 30" fill="none" xmlns="http://www.w3.org/2000/svg">
<g id="label-paired / lg / circle-chevron-right-lg / fill" clip-path="url(#clip0_2556_17348)">
<path id="icon" d="M0 15.5C0 11.9453 1.875 8.66406 5 6.86719C8.08594 5.07031 11.875 5.07031 15 6.86719C18.0859 8.66406 20 11.9453 20 15.5C20 19.0938 18.0859 22.375 15 24.1719C11.875 25.9688 8.08594 25.9688 5 24.1719C1.875 22.375 0 19.0938 0 15.5ZM9.41406 20.2266L13.4766 16.1641C13.8281 15.8125 13.8281 15.2266 13.4766 14.8359L9.41406 10.8125C9.02344 10.4219 8.4375 10.4219 8.08594 10.8125C7.69531 11.1641 7.69531 11.75 8.08594 12.1406L11.4844 15.5391L8.08594 18.9375C7.69531 19.2891 7.69531 19.875 8.08594 20.2266C8.4375 20.6172 9.02344 20.6172 9.41406 20.2266Z" fill="black" fill-opacity="0.72"/>
</g>
<defs>
<clipPath id="clip0_2556_17348">
<rect width="20" height="30" fill="white"/>
</clipPath>
</defs>
</svg>
