<svg width="16" height="22" viewBox="0 0 16 22" fill="none" xmlns="http://www.w3.org/2000/svg">
<g id="label-paired / sm / volume-xmark-sm / bold" clip-path="url(#clip0_3758_584)">
<path id="icon" d="M4.47266 9.27344C4.36328 9.38281 4.19922 9.4375 4.0625 9.4375H1.65625C1.51953 9.4375 1.4375 9.54688 1.4375 9.65625V11.8438C1.4375 11.9805 1.51953 12.0625 1.65625 12.0625H4.0625C4.19922 12.0625 4.36328 12.1445 4.47266 12.2539L7.5625 14.9609V6.56641L4.47266 9.27344ZM8.05469 4.625C8.49219 4.625 8.875 5.00781 8.875 5.44531V16.082C8.875 16.5195 8.49219 16.875 8.05469 16.875C7.83594 16.875 7.64453 16.8203 7.50781 16.6836L3.78906 13.375H1.65625C0.808594 13.375 0.125 12.6914 0.125 11.8438V9.65625C0.125 8.83594 0.808594 8.125 1.65625 8.125H3.78906L7.50781 4.84375C7.64453 4.70703 7.83594 4.625 8.05469 4.625ZM11.7461 8.31641L13.25 9.82031L14.7539 8.31641C15 8.07031 15.4102 8.07031 15.6562 8.31641C15.9297 8.58984 15.9297 9 15.6562 9.24609L14.1523 10.75L15.6562 12.2539C15.9297 12.5273 15.9297 12.9375 15.6562 13.1836C15.4102 13.457 15 13.457 14.7539 13.1836L13.25 11.6797L11.7461 13.1836C11.4727 13.457 11.0625 13.457 10.8164 13.1836C10.543 12.9375 10.543 12.5273 10.8164 12.2539L12.3203 10.75L10.8164 9.24609C10.543 9 10.543 8.58984 10.8164 8.31641C11.0625 8.07031 11.4727 8.07031 11.7461 8.31641Z" fill="black" fill-opacity="0.72"/>
</g>
<defs>
<clipPath id="clip0_3758_584">
<rect width="16" height="22" fill="white"/>
</clipPath>
</defs>
</svg>
