<svg width="18" height="30" viewBox="0 0 18 30" fill="none" xmlns="http://www.w3.org/2000/svg">
<g id="label-paired / lg / stopwatch-lg / bold" clip-path="url(#clip0_2556_17487)">
<path id="icon" d="M5.875 6.4375C5.875 5.92969 6.26562 5.5 6.8125 5.5H11.1875C11.6953 5.5 12.125 5.92969 12.125 6.4375C12.125 6.98438 11.6953 7.375 11.1875 7.375H9.9375V9.32812C11.6172 9.52344 13.1406 10.2266 14.3516 11.3203L15.5234 10.1484C15.875 9.79688 16.4609 9.79688 16.8125 10.1484C17.2031 10.5391 17.2031 11.125 16.8125 11.4766L15.6016 12.6875C16.5391 14.0156 17.125 15.6562 17.125 17.375C17.125 21.8672 13.4531 25.5 9 25.5C4.50781 25.5 0.875 21.8672 0.875 17.375C0.875 13.2344 4 9.79688 8.0625 9.32812V7.375H6.8125C6.26562 7.375 5.875 6.98438 5.875 6.4375ZM9 23.625C11.2266 23.625 13.2578 22.4531 14.3906 20.5C15.5234 18.5859 15.5234 16.2031 14.3906 14.25C13.2578 12.3359 11.2266 11.125 9 11.125C6.73438 11.125 4.70312 12.3359 3.57031 14.25C2.4375 16.2031 2.4375 18.5859 3.57031 20.5C4.70312 22.4531 6.73438 23.625 9 23.625ZM9.9375 13.9375V18C9.9375 18.5469 9.50781 18.9375 9 18.9375C8.45312 18.9375 8.0625 18.5469 8.0625 18V13.9375C8.0625 13.4297 8.45312 13 9 13C9.50781 13 9.9375 13.4297 9.9375 13.9375Z" fill="black" fill-opacity="0.72"/>
</g>
<defs>
<clipPath id="clip0_2556_17487">
<rect width="18" height="30" fill="white"/>
</clipPath>
</defs>
</svg>
