<svg width="20" height="30" viewBox="0 0 20 30" fill="none" xmlns="http://www.w3.org/2000/svg">
<g id="label-paired / lg / file-doc-lg / bold" clip-path="url(#clip0_2365_872)">
<path id="icon" d="M2.5 23.625H3.75V25.5H2.5C1.79688 25.474 1.21094 25.2266 0.742188 24.7578C0.273438 24.2891 0.0260417 23.7031 0 23V8C0.0260417 7.29688 0.273438 6.71094 0.742188 6.24219C1.21094 5.77344 1.79688 5.52604 2.5 5.5H8.98438C9.66146 5.5 10.2474 5.7474 10.7422 6.24219L14.2578 9.75781C14.7526 10.2526 15 10.8516 15 11.5547V16.75H13.125V11.75H10C9.63542 11.75 9.33594 11.6328 9.10156 11.3984C8.86719 11.1641 8.75 10.8646 8.75 10.5V7.375H2.5C2.10938 7.40104 1.90104 7.60938 1.875 8V23C1.90104 23.3906 2.10938 23.599 2.5 23.625ZM6.875 19.25H8.125C8.64583 19.276 9.08854 19.4583 9.45312 19.7969C9.79167 20.1615 9.97396 20.6042 10 21.125V23.625C9.97396 24.1458 9.79167 24.5885 9.45312 24.9531C9.08854 25.2917 8.64583 25.474 8.125 25.5H6.875C6.48438 25.474 6.27604 25.2656 6.25 24.875V19.875C6.27604 19.4844 6.48438 19.276 6.875 19.25ZM7.5 24.25H8.125C8.51562 24.224 8.72396 24.0156 8.75 23.625V21.125C8.72396 20.7344 8.51562 20.526 8.125 20.5H7.5V24.25ZM17.8125 19.25H18.4375C18.8802 19.25 19.2448 19.4062 19.5312 19.7188C19.8438 20.0052 20 20.3698 20 20.8125V21.125C19.974 21.5156 19.7656 21.724 19.375 21.75C18.9844 21.724 18.776 21.5156 18.75 21.125V20.8125C18.724 20.6302 18.6198 20.526 18.4375 20.5H17.8125C17.6302 20.526 17.526 20.6302 17.5 20.8125V23.9375C17.526 24.1198 17.6302 24.224 17.8125 24.25H18.4375C18.6198 24.224 18.724 24.1198 18.75 23.9375V23.625C18.776 23.2344 18.9844 23.026 19.375 23C19.7656 23.026 19.974 23.2344 20 23.625V23.9375C20 24.3802 19.8438 24.7448 19.5312 25.0312C19.2448 25.3438 18.8802 25.5 18.4375 25.5H17.8125C17.3698 25.5 17.0052 25.3438 16.7188 25.0312C16.4062 24.7448 16.25 24.3802 16.25 23.9375V20.8125C16.25 20.3698 16.4062 20.0052 16.7188 19.7188C17.0052 19.4062 17.3698 19.25 17.8125 19.25ZM11.25 20.8125C11.25 20.3698 11.4062 20.0052 11.7188 19.7188C12.0052 19.4062 12.3698 19.25 12.8125 19.25H13.4375C13.8802 19.25 14.2448 19.4062 14.5312 19.7188C14.8438 20.0052 15 20.3698 15 20.8125V23.9375C15 24.3802 14.8438 24.7448 14.5312 25.0312C14.2448 25.3438 13.8802 25.5 13.4375 25.5H12.8125C12.3698 25.5 12.0052 25.3438 11.7188 25.0312C11.4062 24.7448 11.25 24.3802 11.25 23.9375V20.8125ZM12.8125 20.5C12.6302 20.526 12.526 20.6302 12.5 20.8125V23.9375C12.526 24.1198 12.6302 24.224 12.8125 24.25H13.4375C13.6198 24.224 13.724 24.1198 13.75 23.9375V20.8125C13.724 20.6302 13.6198 20.526 13.4375 20.5H12.8125Z" fill="black" fill-opacity="0.72"/>
</g>
<defs>
<clipPath id="clip0_2365_872">
<rect width="20" height="30" fill="white"/>
</clipPath>
</defs>
</svg>
