<svg width="12" height="18" viewBox="0 0 12 18" fill="none" xmlns="http://www.w3.org/2000/svg">
<g id="label-paired / caption / circle-star-caption / bold" clip-path="url(#clip0_2556_10210)">
<path id="icon" d="M6 4.625C4.24219 4.625 2.64844 5.5625 1.75781 7.0625C0.890625 8.58594 0.890625 10.4375 1.75781 11.9375C2.64844 13.4609 4.24219 14.375 6 14.375C7.73438 14.375 9.32812 13.4609 10.2188 11.9375C11.0859 10.4375 11.0859 8.58594 10.2188 7.0625C9.32812 5.5625 7.73438 4.625 6 4.625ZM6 15.5C3.84375 15.5 1.875 14.375 0.796875 12.5C-0.28125 10.6484 -0.28125 8.375 0.796875 6.5C1.875 4.64844 3.84375 3.5 6 3.5C8.13281 3.5 10.1016 4.64844 11.1797 6.5C12.2578 8.375 12.2578 10.6484 11.1797 12.5C10.1016 14.375 8.13281 15.5 6 15.5ZM6 6.33594C6.14062 6.33594 6.25781 6.42969 6.32812 6.54688L7.05469 8.04688L8.69531 8.28125C8.83594 8.30469 8.95312 8.39844 9 8.53906C9.04688 8.67969 9 8.82031 8.90625 8.91406L7.71094 10.0625L7.99219 11.7031C8.01562 11.8438 7.96875 11.9844 7.85156 12.0781C7.73438 12.1484 7.57031 12.1719 7.45312 12.1016L6 11.3281L4.52344 12.1016C4.40625 12.1719 4.24219 12.1484 4.125 12.0781C4.00781 11.9844 3.96094 11.8438 3.98438 11.7031L4.26562 10.0625L3.07031 8.91406C2.97656 8.82031 2.92969 8.67969 2.97656 8.53906C3.02344 8.39844 3.14062 8.30469 3.28125 8.28125L4.92188 8.04688L5.64844 6.54688C5.71875 6.42969 5.83594 6.33594 6 6.33594Z" fill="black" fill-opacity="0.72"/>
</g>
<defs>
<clipPath id="clip0_2556_10210">
<rect width="12" height="18" fill="white"/>
</clipPath>
</defs>
</svg>
