<svg width="8" height="18" viewBox="0 0 8 18" fill="none" xmlns="http://www.w3.org/2000/svg">
<g id="label-paired / caption / pause-caption / regular" clip-path="url(#clip0_2556_9999)">
<path id="icon" d="M1.375 5.75C1.16406 5.75 1 5.9375 1 6.125V12.875C1 13.0859 1.16406 13.25 1.375 13.25H2.5C2.6875 13.25 2.875 13.0859 2.875 12.875V6.125C2.875 5.9375 2.6875 5.75 2.5 5.75H1.375ZM0.25 6.125C0.25 5.51562 0.742188 5 1.375 5H2.5C3.10938 5 3.625 5.51562 3.625 6.125V12.875C3.625 13.5078 3.10938 14 2.5 14H1.375C0.742188 14 0.25 13.5078 0.25 12.875V6.125ZM5.5 5.75C5.28906 5.75 5.125 5.9375 5.125 6.125V12.875C5.125 13.0859 5.28906 13.25 5.5 13.25H6.625C6.8125 13.25 7 13.0859 7 12.875V6.125C7 5.9375 6.8125 5.75 6.625 5.75H5.5ZM4.375 6.125C4.375 5.51562 4.86719 5 5.5 5H6.625C7.23438 5 7.75 5.51562 7.75 6.125V12.875C7.75 13.5078 7.23438 14 6.625 14H5.5C4.86719 14 4.375 13.5078 4.375 12.875V6.125Z" fill="black" fill-opacity="0.72"/>
</g>
<defs>
<clipPath id="clip0_2556_9999">
<rect width="8" height="18" fill="white"/>
</clipPath>
</defs>
</svg>
