<svg width="16" height="24" viewBox="0 0 16 24" fill="none" xmlns="http://www.w3.org/2000/svg">
<g id="label-paired / md / circle-arrow-down-md / fill" clip-path="url(#clip0_2556_14855)">
<path id="icon" d="M8 4C10.8438 4 13.4688 5.53125 14.9062 8C16.3438 10.5 16.3438 13.5312 14.9062 16C13.4688 18.5 10.8438 20 8 20C5.125 20 2.5 18.5 1.0625 16C-0.375 13.5312 -0.375 10.5 1.0625 8C2.5 5.53125 5.125 4 8 4ZM3.96875 12.7812L7.46875 16.2812C7.75 16.5938 8.21875 16.5938 8.53125 16.2812L12 12.7812C12.3125 12.5 12.3125 12.0312 12 11.75C11.7188 11.4375 11.25 11.4375 10.9688 11.75L8.75 13.9688V8.25C8.75 7.84375 8.40625 7.5 8 7.5C7.5625 7.5 7.25 7.84375 7.25 8.25L7.21875 13.9688L5 11.75C4.71875 11.4375 4.25 11.4375 3.96875 11.75C3.65625 12.0312 3.65625 12.5 3.96875 12.7812Z" fill="black" fill-opacity="0.72"/>
</g>
<defs>
<clipPath id="clip0_2556_14855">
<rect width="16" height="24" fill="white"/>
</clipPath>
</defs>
</svg>
