<svg width="18" height="22" viewBox="0 0 18 22" fill="none" xmlns="http://www.w3.org/2000/svg">
<g id="label-paired / sm / eye-slash-sm / regular" clip-path="url(#clip0_2556_12897)">
<path id="icon" d="M0.933594 3.85938L17.5859 16.9844C17.75 17.1211 17.8047 17.4219 17.6406 17.5859C17.5039 17.7773 17.2305 17.832 17.0391 17.668L0.414062 4.54297C0.222656 4.40625 0.167969 4.10547 0.332031 3.94141C0.46875 3.75 0.769531 3.69531 0.933594 3.85938ZM16.793 11.1055C16.5195 11.7617 16.0273 12.6641 15.3164 13.5391L14.6328 12.9922C15.2891 12.1719 15.7266 11.3789 16 10.75C15.6172 9.875 14.8242 8.5625 13.6484 7.46875C12.4727 6.375 10.9141 5.5 9 5.5C7.90625 5.5 6.92188 5.80078 6.07422 6.23828L5.33594 5.63672C6.375 5.03516 7.57812 4.625 9 4.625C11.1875 4.625 12.9648 5.63672 14.25 6.83984C15.5352 8.01562 16.3828 9.4375 16.793 10.4219C16.875 10.6406 16.875 10.8867 16.793 11.1055ZM2.65625 7.98828L3.33984 8.53516C2.68359 9.32812 2.24609 10.1484 2 10.75C2.35547 11.625 3.14844 12.9375 4.32422 14.0312C5.5 15.125 7.05859 16 9 16C10.0664 16 11.0508 15.7266 11.8984 15.2891L12.6367 15.8906C11.625 16.4922 10.3945 16.875 9 16.875C6.78516 16.875 5.00781 15.8906 3.72266 14.6875C2.4375 13.4844 1.58984 12.0625 1.17969 11.1055C1.09766 10.8867 1.09766 10.6406 1.17969 10.4219C1.45312 9.76562 1.94531 8.86328 2.65625 7.98828ZM9 14.25C7.05859 14.25 5.5 12.6914 5.5 10.75C5.5 10.5859 5.5 10.4219 5.52734 10.2578L6.375 10.9141C6.45703 12.3086 7.60547 13.375 9 13.375C9.13672 13.375 9.30078 13.375 9.4375 13.3477L10.2852 14.0039C9.875 14.168 9.4375 14.25 9 14.25ZM12.5 10.75V10.7773C12.5 10.9414 12.4727 11.1055 12.4453 11.2695L11.5977 10.6133C11.5156 9.21875 10.3945 8.15234 9 8.15234C8.83594 8.15234 8.67188 8.15234 8.53516 8.17969L7.6875 7.52344C8.09766 7.35938 8.53516 7.25 9 7.25C10.9141 7.25 12.5 8.83594 12.5 10.75Z" fill="black" fill-opacity="0.72"/>
</g>
<defs>
<clipPath id="clip0_2556_12897">
<rect width="18" height="22" fill="white"/>
</clipPath>
</defs>
</svg>
