<svg width="14" height="22" viewBox="0 0 14 22" fill="none" xmlns="http://www.w3.org/2000/svg">
<g id="label-paired / sm / face-viewfinder-sm / fill" clip-path="url(#clip0_2556_12512)">
<path id="icon" d="M1.53125 3.75H3.71875C4.07422 3.75 4.375 4.05078 4.375 4.40625C4.375 4.78906 4.07422 5.0625 3.71875 5.0625H1.53125C1.39453 5.0625 1.3125 5.17188 1.3125 5.28125V7.46875C1.3125 7.85156 1.01172 8.125 0.65625 8.125C0.273438 8.125 0 7.85156 0 7.46875V5.28125C0 4.46094 0.683594 3.75 1.53125 3.75ZM10.2812 3.75H12.4688C13.2891 3.75 14 4.46094 14 5.28125V7.46875C14 7.85156 13.6992 8.125 13.3438 8.125C12.9609 8.125 12.6875 7.85156 12.6875 7.46875V5.28125C12.6875 5.17188 12.5781 5.0625 12.4688 5.0625H10.2812C9.89844 5.0625 9.625 4.78906 9.625 4.40625C9.625 4.05078 9.89844 3.75 10.2812 3.75ZM1.3125 14.0312V16.2188C1.3125 16.3555 1.39453 16.4375 1.53125 16.4375H3.71875C4.07422 16.4375 4.375 16.7383 4.375 17.0938C4.375 17.4766 4.07422 17.75 3.71875 17.75H1.53125C0.683594 17.75 0 17.0664 0 16.2188V14.0312C0 13.6758 0.273438 13.375 0.65625 13.375C1.01172 13.375 1.3125 13.6758 1.3125 14.0312ZM14 14.0312V16.2188C14 17.0664 13.2891 17.75 12.4688 17.75H10.2812C9.89844 17.75 9.625 17.4766 9.625 17.0938C9.625 16.7383 9.89844 16.4375 10.2812 16.4375H12.4688C12.5781 16.4375 12.6875 16.3555 12.6875 16.2188V14.0312C12.6875 13.6758 12.9609 13.375 13.3438 13.375C13.6992 13.375 14 13.6758 14 14.0312ZM2.625 10.75C2.625 9.19141 3.44531 7.76953 4.8125 6.97656C6.15234 6.18359 7.82031 6.18359 9.1875 6.97656C10.5273 7.76953 11.375 9.19141 11.375 10.75C11.375 12.3359 10.5273 13.7578 9.1875 14.5508C7.82031 15.3438 6.15234 15.3438 4.8125 14.5508C3.44531 13.7578 2.625 12.3359 2.625 10.75ZM6.125 9.65625C6.125 9.30078 5.82422 9 5.46875 9C5.08594 9 4.8125 9.30078 4.8125 9.65625C4.8125 10.0391 5.08594 10.3125 5.46875 10.3125C5.82422 10.3125 6.125 10.0391 6.125 9.65625ZM8.53125 10.3125C8.88672 10.3125 9.1875 10.0391 9.1875 9.65625C9.1875 9.30078 8.88672 9 8.53125 9C8.14844 9 7.875 9.30078 7.875 9.65625C7.875 10.0391 8.14844 10.3125 8.53125 10.3125ZM4.62109 11.7617C4.45703 11.9258 4.45703 12.1992 4.62109 12.3906C5.22266 12.9922 6.07031 13.375 7 13.375C7.92969 13.375 8.75 12.9922 9.35156 12.3906C9.51562 12.1992 9.51562 11.9258 9.35156 11.7617C9.16016 11.5977 8.88672 11.5977 8.72266 11.7617C8.28516 12.2266 7.68359 12.5 7 12.5C6.31641 12.5 5.6875 12.2266 5.25 11.7617C5.08594 11.5977 4.8125 11.5977 4.62109 11.7617Z" fill="black" fill-opacity="0.72"/>
</g>
<defs>
<clipPath id="clip0_2556_12512">
<rect width="14" height="22" fill="white"/>
</clipPath>
</defs>
</svg>
