<svg width="12" height="18" viewBox="0 0 12 18" fill="none" xmlns="http://www.w3.org/2000/svg">
<g id="label-paired / caption / circle-zero-caption / fill" clip-path="url(#clip0_2556_10223)">
<path id="icon" d="M6 15.5C3.84375 15.5 1.875 14.375 0.796875 12.5C-0.28125 10.6484 -0.28125 8.375 0.796875 6.5C1.875 4.64844 3.84375 3.5 6 3.5C8.13281 3.5 10.1016 4.64844 11.1797 6.5C12.2578 8.375 12.2578 10.6484 11.1797 12.5C10.1016 14.375 8.13281 15.5 6 15.5ZM6 6.5C4.75781 6.5 3.75 7.50781 3.75 8.75V10.25C3.75 11.4922 4.75781 12.5 6 12.5C7.24219 12.5 8.25 11.4922 8.25 10.25V8.75C8.25 7.50781 7.24219 6.5 6 6.5ZM4.875 8.75C4.875 8.14062 5.36719 7.625 6 7.625C6.60938 7.625 7.125 8.14062 7.125 8.75V10.25C7.125 10.8828 6.60938 11.375 6 11.375C5.36719 11.375 4.875 10.8828 4.875 10.25V8.75Z" fill="black" fill-opacity="0.72"/>
</g>
<defs>
<clipPath id="clip0_2556_10223">
<rect width="12" height="18" fill="white"/>
</clipPath>
</defs>
</svg>
