<svg width="20" height="30" viewBox="0 0 20 30" fill="none" xmlns="http://www.w3.org/2000/svg">
<g id="label-paired / lg / location-crosshairs-lg / regular" clip-path="url(#clip0_2556_17052)">
<path id="icon" d="M10 5.5C10.3125 5.5 10.625 5.8125 10.625 6.125V8.03906C14.2578 8.35156 17.1484 11.2422 17.4609 14.875H19.375C19.6875 14.875 20 15.1875 20 15.5C20 15.8516 19.6875 16.125 19.375 16.125H17.4609C17.1484 19.7969 14.2578 22.6875 10.625 23V24.875C10.625 25.2266 10.3125 25.5 10 25.5C9.64844 25.5 9.375 25.2266 9.375 24.875V23C5.70312 22.6875 2.8125 19.7969 2.5 16.125H0.625C0.273438 16.125 0 15.8516 0 15.5C0 15.1875 0.273438 14.875 0.625 14.875H2.5C2.8125 11.2422 5.70312 8.35156 9.375 8.03906V6.125C9.375 5.8125 9.64844 5.5 10 5.5ZM3.75 15.5C3.75 17.7656 4.92188 19.7969 6.875 20.9297C8.78906 22.0625 11.1719 22.0625 13.125 20.9297C15.0391 19.7969 16.25 17.7656 16.25 15.5C16.25 13.2734 15.0391 11.2422 13.125 10.1094C11.1719 8.97656 8.78906 8.97656 6.875 10.1094C4.92188 11.2422 3.75 13.2734 3.75 15.5ZM12.5 15.5C12.5 14.6406 11.9922 13.8203 11.25 13.3516C10.4688 12.9219 9.49219 12.9219 8.75 13.3516C7.96875 13.8203 7.5 14.6406 7.5 15.5C7.5 16.3984 7.96875 17.2188 8.75 17.6875C9.49219 18.1172 10.4688 18.1172 11.25 17.6875C11.9922 17.2188 12.5 16.3984 12.5 15.5ZM6.25 15.5C6.25 14.1719 6.95312 12.9609 8.125 12.2578C9.25781 11.5938 10.7031 11.5938 11.875 12.2578C13.0078 12.9609 13.75 14.1719 13.75 15.5C13.75 16.8672 13.0078 18.0781 11.875 18.7812C10.7031 19.4453 9.25781 19.4453 8.125 18.7812C6.95312 18.0781 6.25 16.8672 6.25 15.5Z" fill="black" fill-opacity="0.72"/>
</g>
<defs>
<clipPath id="clip0_2556_17052">
<rect width="20" height="30" fill="white"/>
</clipPath>
</defs>
</svg>
