<svg width="23" height="30" viewBox="0 0 23 30" fill="none" xmlns="http://www.w3.org/2000/svg">
<g id="label-paired / lg / arrow-up-a-z-lg / fill" clip-path="url(#clip0_2556_17238)">
<path id="icon" d="M7.39844 7.17969L10.8359 10.9297C11.3047 11.4375 11.2656 12.2188 10.7578 12.6875C10.25 13.1562 9.46875 13.1172 9 12.6094L7.75 11.2422V23C7.75 23.7031 7.16406 24.25 6.5 24.25C5.79688 24.25 5.25 23.7031 5.25 23V11.2422L3.96094 12.6094C3.49219 13.1172 2.71094 13.1562 2.20312 12.6875C1.69531 12.2188 1.65625 11.4375 2.125 10.9297L5.5625 7.17969C5.79688 6.90625 6.14844 6.75 6.5 6.75C6.85156 6.75 7.16406 6.90625 7.39844 7.17969ZM12.75 18C12.75 17.3359 13.2969 16.75 14 16.75H19C19.5078 16.75 19.9375 17.0625 20.1328 17.5312C20.3281 18 20.2109 18.5469 19.8594 18.8984L17.0078 21.7891H19C19.6641 21.7891 20.25 22.3359 20.25 23.0391C20.25 23.7031 19.6641 24.2891 19 24.2891H14C13.4922 24.2891 13.0234 23.9766 12.8281 23.5078C12.6328 23.0391 12.75 22.4922 13.1016 22.1406L15.9531 19.25H14C13.2969 19.25 12.75 18.7031 12.75 18ZM16.5 6.75C16.9688 6.75 17.3984 7.02344 17.5938 7.45312L20.0938 12.4531L20.7188 13.7031C21.0312 14.3281 20.7969 15.0703 20.1719 15.3828C19.5469 15.6953 18.8047 15.4609 18.4922 14.8359L18.2188 14.25H14.7422L14.4688 14.8359C14.1562 15.4609 13.4141 15.6953 12.7891 15.3828C12.1641 15.0703 11.9297 14.3281 12.2422 13.7031L12.8672 12.4531L15.3672 7.45312C15.5625 7.02344 15.9922 6.75 16.5 6.75ZM15.6797 12.375H17.2812L16.5 10.8125L15.6797 12.375Z" fill="black" fill-opacity="0.72"/>
</g>
<defs>
<clipPath id="clip0_2556_17238">
<rect width="23" height="30" fill="white"/>
</clipPath>
</defs>
</svg>
