<svg width="12" height="24" viewBox="0 0 12 24" fill="none" xmlns="http://www.w3.org/2000/svg">
<g id="label-paired / md / location-dot-md / regular" clip-path="url(#clip0_2556_14955)">
<path id="icon" d="M11 10C11 7.25 8.75 5 6 5C3.21875 5 1 7.25 1 10C1 10.5 1.15625 11.1562 1.5 12C1.84375 12.8125 2.3125 13.6875 2.875 14.5625C3.9375 16.2812 5.1875 17.9375 6 18.9375C6.78125 17.9375 8.03125 16.2812 9.125 14.5625C9.65625 13.6875 10.125 12.8125 10.4688 12C10.8125 11.1562 11 10.5 11 10ZM12 10C12 12.75 8.34375 17.5938 6.71875 19.625C6.34375 20.0938 5.625 20.0938 5.25 19.625C3.65625 17.5938 0 12.75 0 10C0 6.6875 2.6875 4 6 4C9.3125 4 12 6.6875 12 10ZM4.5 10C4.5 10.5625 4.78125 11.0312 5.25 11.3125C5.6875 11.5938 6.28125 11.5938 6.75 11.3125C7.1875 11.0312 7.5 10.5625 7.5 10C7.5 9.46875 7.1875 9 6.75 8.71875C6.28125 8.4375 5.6875 8.4375 5.25 8.71875C4.78125 9 4.5 9.46875 4.5 10ZM6 12.5C5.09375 12.5 4.28125 12.0312 3.8125 11.25C3.375 10.5 3.375 9.53125 3.8125 8.75C4.28125 8 5.09375 7.5 6 7.5C6.875 7.5 7.6875 8 8.15625 8.75C8.59375 9.53125 8.59375 10.5 8.15625 11.25C7.6875 12.0312 6.875 12.5 6 12.5Z" fill="black" fill-opacity="0.72"/>
</g>
<defs>
<clipPath id="clip0_2556_14955">
<rect width="12" height="24" fill="white"/>
</clipPath>
</defs>
</svg>
