<svg width="24" height="36" viewBox="0 0 24 36" fill="none" xmlns="http://www.w3.org/2000/svg">
<g id="label-paired / xl / clock-three-xl / bold" clip-path="url(#clip0_2556_19777)">
<path id="icon" d="M21.75 18C21.75 14.5312 19.875 11.3438 16.875 9.5625C13.8281 7.82812 10.125 7.82812 7.125 9.5625C4.07812 11.3438 2.25 14.5312 2.25 18C2.25 21.5156 4.07812 24.7031 7.125 26.4844C10.125 28.2188 13.8281 28.2188 16.875 26.4844C19.875 24.7031 21.75 21.5156 21.75 18ZM0 18C0 13.7344 2.25 9.79688 6 7.64062C9.70312 5.48438 14.25 5.48438 18 7.64062C21.7031 9.79688 24 13.7344 24 18C24 22.3125 21.7031 26.25 18 28.4062C14.25 30.5625 9.70312 30.5625 6 28.4062C2.25 26.25 0 22.3125 0 18ZM10.875 11.625C10.875 11.0156 11.3438 10.5 12 10.5C12.6094 10.5 13.125 11.0156 13.125 11.625V16.875H16.875C17.4844 16.875 18 17.3906 18 18C18 18.6562 17.4844 19.125 16.875 19.125H12C11.3438 19.125 10.875 18.6562 10.875 18V11.625Z" fill="black" fill-opacity="0.72"/>
</g>
<defs>
<clipPath id="clip0_2556_19777">
<rect width="24" height="36" fill="white"/>
</clipPath>
</defs>
</svg>
