<svg width="21" height="36" viewBox="0 0 21 36" fill="none" xmlns="http://www.w3.org/2000/svg">
<g id="label-paired / xl / unlock-xl / bold" clip-path="url(#clip0_2556_19961)">
<path id="icon" d="M6.75 12V15H18C19.6406 15 21 16.3594 21 18V27C21 28.6875 19.6406 30 18 30H3C1.3125 30 0 28.6875 0 27V18C0 16.3594 1.3125 15 3 15H4.5V12C4.5 8.71875 7.17188 6 10.5 6C13.1719 6 15.4219 7.78125 16.1719 10.1719C16.3594 10.7812 16.0312 11.3906 15.4688 11.5781C14.8594 11.7656 14.25 11.4375 14.0625 10.875C13.5469 9.375 12.1406 8.25 10.5 8.25C8.39062 8.25 6.75 9.9375 6.75 12ZM2.25 18V27C2.25 27.4219 2.57812 27.75 3 27.75H18C18.375 27.75 18.75 27.4219 18.75 27V18C18.75 17.625 18.375 17.25 18 17.25H3C2.57812 17.25 2.25 17.625 2.25 18Z" fill="black" fill-opacity="0.72"/>
</g>
<defs>
<clipPath id="clip0_2556_19961">
<rect width="21" height="36" fill="white"/>
</clipPath>
</defs>
</svg>
