<svg width="20" height="30" viewBox="0 0 20 30" fill="none" xmlns="http://www.w3.org/2000/svg">
<g id="label-paired / lg / gear-lg / fill" clip-path="url(#clip0_2556_17607)">
<path id="icon" d="M19.3359 12.0234C19.4922 12.375 19.375 12.7266 19.1016 13L17.4219 14.5234C17.4609 14.8359 17.4609 15.1875 17.4609 15.5C17.4609 15.8516 17.4609 16.2031 17.4219 16.5156L19.1016 18.0391C19.375 18.2734 19.4922 18.6641 19.3359 19.0156C19.1797 19.4844 18.9844 19.9141 18.75 20.3438L18.5547 20.6562C18.2812 21.0859 18.0078 21.5156 17.6953 21.8672C17.4609 22.1797 17.0703 22.2578 16.7188 22.1406L14.5703 21.4766C14.0234 21.8672 13.4375 22.1797 12.8516 22.4531L12.3438 24.6797C12.2656 25.0312 11.9922 25.3047 11.6406 25.3828C11.0938 25.4609 10.5469 25.5 9.96094 25.5C9.41406 25.5 8.86719 25.4609 8.32031 25.3828C7.96875 25.3047 7.69531 25.0312 7.61719 24.6797L7.10938 22.4531C6.48438 22.1797 5.9375 21.8672 5.39062 21.4766L3.24219 22.1406C2.89062 22.2578 2.5 22.1797 2.26562 21.9062C1.95312 21.5156 1.67969 21.0859 1.40625 20.6562L1.21094 20.3438C0.976562 19.9141 0.78125 19.4844 0.625 19.0156C0.46875 18.6641 0.585938 18.3125 0.859375 18.0391L2.53906 16.5156C2.5 16.2031 2.5 15.8516 2.5 15.5C2.5 15.1875 2.5 14.8359 2.53906 14.5234L0.859375 13C0.585938 12.7266 0.46875 12.375 0.625 12.0234C0.78125 11.5547 0.976562 11.125 1.21094 10.6953L1.40625 10.3828C1.67969 9.95312 1.95312 9.52344 2.26562 9.13281C2.5 8.85938 2.89062 8.78125 3.24219 8.89844L5.39062 9.5625C5.9375 9.17188 6.52344 8.82031 7.10938 8.58594L7.61719 6.35938C7.69531 6.00781 7.96875 5.73438 8.32031 5.65625C8.86719 5.57812 9.41406 5.5 10 5.5C10.5469 5.5 11.0938 5.57812 11.6406 5.65625C11.9922 5.69531 12.2656 6.00781 12.3438 6.35938L12.8516 8.58594C13.4766 8.82031 14.0234 9.17188 14.5703 9.5625L16.7188 8.89844C17.0703 8.78125 17.4609 8.85938 17.6953 9.13281C18.0078 9.52344 18.2812 9.95312 18.5547 10.3828L18.75 10.6953C18.9844 11.125 19.1797 11.5547 19.375 12.0234H19.3359ZM10 18.625C11.0938 18.625 12.1094 18.0391 12.6953 17.0625C13.2422 16.125 13.2422 14.9141 12.6953 13.9375C12.1094 13 11.0938 12.375 10 12.375C8.86719 12.375 7.85156 13 7.26562 13.9375C6.71875 14.9141 6.71875 16.125 7.26562 17.0625C7.85156 18.0391 8.86719 18.625 10 18.625Z" fill="black" fill-opacity="0.72"/>
</g>
<defs>
<clipPath id="clip0_2556_17607">
<rect width="20" height="30" fill="white"/>
</clipPath>
</defs>
</svg>
