<svg width="30" height="36" viewBox="0 0 30 36" fill="none" xmlns="http://www.w3.org/2000/svg">
<g id="label-paired / xl / bell-slash-xl / fill" clip-path="url(#clip0_2556_19475)">
<path id="icon" d="M1.78125 6.28125L8.71875 11.6719C9.79688 10.0312 11.4844 8.8125 13.5 8.4375V7.5C13.5 6.70312 14.1562 6 15 6C15.7969 6 16.5 6.70312 16.5 7.5V8.4375C19.9219 9.09375 22.5 12.1406 22.5 15.75V16.6406C22.5 18.8438 23.2969 21 24.75 22.6406L25.0781 23.0156C25.5 23.4844 25.5938 24.0938 25.3594 24.6562C25.3594 24.6562 25.3125 24.6562 25.3125 24.7031L29.5312 28.0312C30.0469 28.4062 30.1406 29.1094 29.7188 29.5781C29.3438 30.0938 28.6406 30.1875 28.1719 29.7656L0.421875 8.01562C-0.09375 7.64062 -0.1875 6.9375 0.234375 6.46875C0.609375 5.95312 1.3125 5.85938 1.78125 6.28125ZM19.0312 25.5H6C5.39062 25.5 4.82812 25.1719 4.59375 24.6562C4.35938 24.0938 4.45312 23.4844 4.875 23.0156L5.20312 22.6406C6.65625 21 7.5 18.8438 7.5 16.6406V16.4531L19.0312 25.5ZM17.1094 29.1562C16.5469 29.7188 15.7969 30 15 30C14.2031 30 13.4062 29.7188 12.8438 29.1562C12.2812 28.5938 12 27.7969 12 27H15H18C18 27.7969 17.6719 28.5938 17.1094 29.1562Z" fill="black" fill-opacity="0.72"/>
</g>
<defs>
<clipPath id="clip0_2556_19475">
<rect width="30" height="36" fill="white"/>
</clipPath>
</defs>
</svg>
