<svg width="30" height="36" viewBox="0 0 30 36" fill="none" xmlns="http://www.w3.org/2000/svg">
<g id="label-paired / xl / user-plus-xl / regular" clip-path="url(#clip0_3327_793)">
<path id="icon" d="M10.5 7.5C8.85938 7.5 7.40625 8.39062 6.5625 9.75C5.76562 11.1562 5.76562 12.8906 6.5625 14.25C7.40625 15.6562 8.85938 16.5 10.5 16.5C12.0938 16.5 13.5469 15.6562 14.3906 14.25C15.1875 12.8906 15.1875 11.1562 14.3906 9.75C13.5469 8.39062 12.0938 7.5 10.5 7.5ZM10.5 18C8.34375 18 6.375 16.875 5.29688 15C4.21875 13.1719 4.21875 10.875 5.29688 9C6.375 7.17188 8.34375 6 10.5 6C12.6094 6 14.5781 7.17188 15.6562 9C16.7344 10.875 16.7344 13.1719 15.6562 15C14.5781 16.875 12.6094 18 10.5 18ZM8.34375 21.75C4.59375 21.75 1.54688 24.7969 1.5 28.5H19.5C19.4062 24.7969 16.3594 21.75 12.6094 21.75H8.34375ZM8.34375 20.25H12.6094C17.25 20.25 21 24 21 28.6406C21 29.3906 20.3438 30 19.5938 30H1.35938C0.609375 30 0 29.3906 0 28.6406C0 24 3.70312 20.25 8.34375 20.25ZM24 20.25V16.5H20.25C19.8281 16.5 19.5 16.1719 19.5 15.75C19.5 15.375 19.8281 15 20.25 15H24V11.25C24 10.875 24.3281 10.5 24.75 10.5C25.125 10.5 25.5 10.875 25.5 11.25V15H29.25C29.625 15 30 15.375 30 15.75C30 16.1719 29.625 16.5 29.25 16.5H25.5V20.25C25.5 20.6719 25.125 21 24.75 21C24.3281 21 24 20.6719 24 20.25Z" fill="black" fill-opacity="0.72"/>
</g>
<defs>
<clipPath id="clip0_3327_793">
<rect width="30" height="36" fill="white"/>
</clipPath>
</defs>
</svg>
