<svg width="18" height="22" viewBox="0 0 18 22" fill="none" xmlns="http://www.w3.org/2000/svg">
<g id="label-paired / sm / wallet-signal-sm / regular" clip-path="url(#clip0_2362_670)">
<path id="icon" d="M0.25 6.8125C0.25 5.60938 1.20703 4.625 2.4375 4.625H12.9375C13.1562 4.625 13.375 4.84375 13.375 5.0625C13.375 5.30859 13.1562 5.5 12.9375 5.5H2.4375C1.69922 5.5 1.125 6.10156 1.125 6.8125V14.6875C1.125 15.4258 1.69922 16 2.4375 16H9.875V16.875H2.4375C1.20703 16.875 0.25 15.918 0.25 14.6875V6.8125ZM2.875 6.8125C2.875 6.59375 3.06641 6.375 3.3125 6.375H12.0625C13.2656 6.375 14.25 7.35938 14.25 8.5625V10.4766C13.9492 10.3398 13.6758 10.2578 13.375 10.1484V8.58984C13.375 7.85156 12.7734 7.27734 12.0625 7.27734H3.3125C3.06641 7.27734 2.875 7.05859 2.875 6.83984V6.8125ZM10.75 11.1875C10.75 10.9688 10.9414 10.75 11.1875 10.75C14.7969 10.75 17.75 13.7031 17.75 17.3125C17.75 17.5586 17.5312 17.75 17.3125 17.75C17.0664 17.75 16.875 17.5586 16.875 17.3125C16.875 14.1953 14.3047 11.625 11.1875 11.625C10.9414 11.625 10.75 11.4336 10.75 11.1875ZM10.75 13.8125C10.75 13.5938 10.9414 13.375 11.1875 13.375C13.3477 13.375 15.125 15.1523 15.125 17.3125C15.125 17.5586 14.9062 17.75 14.6875 17.75C14.4414 17.75 14.25 17.5586 14.25 17.3125C14.25 15.6445 12.8555 14.25 11.1875 14.25C10.9414 14.25 10.75 14.0586 10.75 13.8125ZM10.75 16.875C10.75 16.4102 11.1328 16 11.625 16C12.0898 16 12.5 16.4102 12.5 16.875C12.5 17.3672 12.0898 17.75 11.625 17.75C11.1328 17.75 10.75 17.3672 10.75 16.875Z" fill="black" fill-opacity="0.72"/>
</g>
<defs>
<clipPath id="clip0_2362_670">
<rect width="18" height="22" fill="white"/>
</clipPath>
</defs>
</svg>
