<svg width="10" height="24" viewBox="0 0 10 24" fill="none" xmlns="http://www.w3.org/2000/svg">
<g id="label-paired / md / sterling-sign-md / regular" clip-path="url(#clip0_2556_14616)">
<path id="icon" d="M2.5 8.75V12H7.5C7.75 12 8 12.25 8 12.5C8 12.7812 7.75 13 7.5 13H2.46875C2.4375 14.75 2.03125 16.4375 1.3125 18H9.5C9.75 18 10 18.25 10 18.5C10 18.7812 9.75 19 9.5 19H0.5C0.3125 19 0.15625 18.9062 0.0625 18.7812C-0.03125 18.625 -0.03125 18.4375 0.0625 18.2812L0.09375 18.2188C0.96875 16.625 1.4375 14.8438 1.46875 13H0.5C0.21875 13 0 12.7812 0 12.5C0 12.25 0.21875 12 0.5 12H1.5V8.75C1.5 6.6875 3.15625 5 5.25 5H5.46875C5.875 5 6.25 5.09375 6.65625 5.21875L9.15625 6.03125C9.40625 6.125 9.53125 6.40625 9.46875 6.6875C9.375 6.9375 9.09375 7.0625 8.8125 7L6.3125 6.15625C6.0625 6.0625 5.75 6 5.46875 6H5.25C3.71875 6 2.5 7.25 2.5 8.75Z" fill="black" fill-opacity="0.72"/>
</g>
<defs>
<clipPath id="clip0_2556_14616">
<rect width="10" height="24" fill="white"/>
</clipPath>
</defs>
</svg>
