<svg width="14" height="24" viewBox="0 0 14 24" fill="none" xmlns="http://www.w3.org/2000/svg">
<g id="label-paired / md / placeholder-md / bold" clip-path="url(#clip0_2556_15291)">
<path id="icon" d="M2.75 5H3.25C3.65625 5 4 5.34375 4 5.75C4 6.1875 3.65625 6.5 3.25 6.5H2.75C2.03125 6.5 1.5 7.0625 1.5 7.75V8.25C1.5 8.6875 1.15625 9 0.75 9C0.3125 9 0 8.6875 0 8.25V7.75C0 6.25 1.21875 5 2.75 5ZM0.75 10C1.15625 10 1.5 10.3438 1.5 10.75V13.25C1.5 13.6875 1.15625 14 0.75 14C0.3125 14 0 13.6875 0 13.25V10.75C0 10.3438 0.3125 10 0.75 10ZM13.25 10C13.6562 10 14 10.3438 14 10.75V13.25C14 13.6875 13.6562 14 13.25 14C12.8125 14 12.5 13.6875 12.5 13.25V10.75C12.5 10.3438 12.8125 10 13.25 10ZM13.25 9C12.8125 9 12.5 8.6875 12.5 8.25V7.75C12.5 7.0625 11.9375 6.5 11.25 6.5H10.75C10.3125 6.5 10 6.1875 10 5.75C10 5.34375 10.3125 5 10.75 5H11.25C12.75 5 14 6.25 14 7.75V8.25C14 8.6875 13.6562 9 13.25 9ZM14 15.75V16.25C14 17.7812 12.75 19 11.25 19H10.75C10.3125 19 10 18.6875 10 18.25C10 17.8438 10.3125 17.5 10.75 17.5H11.25C11.9375 17.5 12.5 16.9688 12.5 16.25V15.75C12.5 15.3438 12.8125 15 13.25 15C13.6562 15 14 15.3438 14 15.75ZM1.5 15.75V16.25C1.5 16.9688 2.03125 17.5 2.75 17.5H3.25C3.65625 17.5 4 17.8438 4 18.25C4 18.6875 3.65625 19 3.25 19H2.75C1.21875 19 0 17.7812 0 16.25V15.75C0 15.3438 0.3125 15 0.75 15C1.15625 15 1.5 15.3438 1.5 15.75ZM5.75 19C5.3125 19 5 18.6875 5 18.25C5 17.8438 5.3125 17.5 5.75 17.5H8.25C8.65625 17.5 9 17.8438 9 18.25C9 18.6875 8.65625 19 8.25 19H5.75ZM5 5.75C5 5.34375 5.3125 5 5.75 5H8.25C8.65625 5 9 5.34375 9 5.75C9 6.1875 8.65625 6.5 8.25 6.5H5.75C5.3125 6.5 5 6.1875 5 5.75Z" fill="black" fill-opacity="0.72"/>
</g>
<defs>
<clipPath id="clip0_2556_15291">
<rect width="14" height="24" fill="white"/>
</clipPath>
</defs>
</svg>
