<svg width="14" height="24" viewBox="0 0 14 24" fill="none" xmlns="http://www.w3.org/2000/svg">
<g id="label-paired / md / user-md / regular" clip-path="url(#clip0_2556_14595)">
<path id="icon" d="M10 8C10 6.9375 9.40625 5.96875 8.5 5.40625C7.5625 4.875 6.40625 4.875 5.5 5.40625C4.5625 5.96875 4 6.9375 4 8C4 9.09375 4.5625 10.0625 5.5 10.625C6.40625 11.1562 7.5625 11.1562 8.5 10.625C9.40625 10.0625 10 9.09375 10 8ZM3 8C3 6.59375 3.75 5.28125 5 4.5625C6.21875 3.84375 7.75 3.84375 9 4.5625C10.2188 5.28125 11 6.59375 11 8C11 9.4375 10.2188 10.75 9 11.4688C7.75 12.1875 6.21875 12.1875 5 11.4688C3.75 10.75 3 9.4375 3 8ZM1 19H13C12.9375 16.5312 10.9062 14.5 8.40625 14.5H5.5625C3.0625 14.5 1.03125 16.5312 1 19ZM0 19.0938C0 16 2.46875 13.5 5.5625 13.5H8.40625C11.5 13.5 14 16 14 19.0938C14 19.5938 13.5625 20 13.0625 20H0.90625C0.40625 20 0 19.5938 0 19.0938Z" fill="black" fill-opacity="0.72"/>
</g>
<defs>
<clipPath id="clip0_2556_14595">
<rect width="14" height="24" fill="white"/>
</clipPath>
</defs>
</svg>
