<svg width="16" height="24" viewBox="0 0 16 24" fill="none" xmlns="http://www.w3.org/2000/svg">
<g id="label-paired / md / file-csv-md / regular" clip-path="url(#clip0_2365_855)">
<path id="icon" d="M2 19H3V20H2C1.4375 19.9792 0.96875 19.7812 0.59375 19.4062C0.21875 19.0312 0.0208333 18.5625 0 18V6C0.0208333 5.4375 0.21875 4.96875 0.59375 4.59375C0.96875 4.21875 1.4375 4.02083 2 4H6.875C7.29167 4 7.64583 4.14583 7.9375 4.4375L11.5625 8.0625C11.8542 8.35417 12 8.70833 12 9.125V13H11V10H7.5C7.08333 9.97917 6.72917 9.83333 6.4375 9.5625C6.16667 9.27083 6.02083 8.91667 6 8.5V5H2C1.70833 5 1.46875 5.09375 1.28125 5.28125C1.09375 5.46875 1 5.70833 1 6V18C1 18.2917 1.09375 18.5312 1.28125 18.7188C1.46875 18.9062 1.70833 19 2 19ZM11 9C10.9583 8.91667 10.9062 8.84375 10.8438 8.78125L7.21875 5.15625C7.15625 5.09375 7.08333 5.05208 7 5.03125V8.5C7.02083 8.8125 7.1875 8.97917 7.5 9H11ZM6.25 15H6.75C7.10417 15 7.39583 15.125 7.625 15.375C7.875 15.6042 8 15.8958 8 16.25V16.5C7.97917 16.8125 7.8125 16.9792 7.5 17C7.1875 16.9792 7.02083 16.8125 7 16.5V16.25C6.97917 16.1042 6.89583 16.0208 6.75 16H6.25C6.10417 16.0208 6.02083 16.1042 6 16.25V18.75C6.02083 18.8958 6.10417 18.9792 6.25 19H6.75C6.89583 18.9792 6.97917 18.8958 7 18.75V18.5C7.02083 18.1875 7.1875 18.0208 7.5 18C7.8125 18.0208 7.97917 18.1875 8 18.5V18.75C8 19.1042 7.875 19.3958 7.625 19.625C7.39583 19.875 7.10417 20 6.75 20H6.25C5.89583 20 5.60417 19.875 5.375 19.625C5.125 19.3958 5 19.1042 5 18.75V16.25C5 15.8958 5.125 15.6042 5.375 15.375C5.60417 15.125 5.89583 15 6.25 15ZM10.4062 15H11.5C11.8125 15.0208 11.9792 15.1875 12 15.5C11.9792 15.8125 11.8125 15.9792 11.5 16H10.4062C10.1562 16.0208 10.0208 16.1562 10 16.4062C10 16.5729 10.0833 16.6979 10.25 16.7812L11.4062 17.3125C11.9479 17.5625 12.2292 17.9896 12.25 18.5938C12.25 18.9896 12.1146 19.3229 11.8438 19.5938C11.5729 19.8646 11.2396 20 10.8438 20H9.5C9.1875 19.9792 9.02083 19.8125 9 19.5C9.02083 19.1875 9.1875 19.0208 9.5 19H10.8438C11.0938 18.9792 11.2292 18.8438 11.25 18.5938C11.25 18.4271 11.1667 18.3021 11 18.2188L9.84375 17.6875C9.30208 17.4375 9.02083 17.0104 9 16.4062C9 16.0104 9.13542 15.6771 9.40625 15.4062C9.67708 15.1354 10.0104 15 10.4062 15ZM13.5 15C13.8125 15.0208 13.9792 15.1875 14 15.5V16.5C14 17.2292 14.1667 17.9167 14.5 18.5625C14.8333 17.9167 15 17.2292 15 16.5V15.5C15.0208 15.1875 15.1875 15.0208 15.5 15C15.8125 15.0208 15.9792 15.1875 16 15.5V16.5C16 17.6042 15.6875 18.6146 15.0625 19.5312L14.9062 19.7812C14.8021 19.9271 14.6667 20 14.5 20C14.3333 20 14.1979 19.9271 14.0938 19.7812L13.9375 19.5312C13.3125 18.6146 13 17.6042 13 16.5V15.5C13.0208 15.1875 13.1875 15.0208 13.5 15Z" fill="black" fill-opacity="0.72"/>
</g>
<defs>
<clipPath id="clip0_2365_855">
<rect width="16" height="24" fill="white"/>
</clipPath>
</defs>
</svg>
