<svg width="11" height="22" viewBox="0 0 11 22" fill="none" xmlns="http://www.w3.org/2000/svg">
<g id="label-paired / sm / file-invoice-dollar-sm / regular" clip-path="url(#clip0_2556_12239)">
<path id="icon" d="M9.875 16V9H6.8125C6.07422 9 5.5 8.42578 5.5 7.6875V4.625H2C1.50781 4.625 1.125 5.03516 1.125 5.5V16C1.125 16.4922 1.50781 16.875 2 16.875H9C9.46484 16.875 9.875 16.4922 9.875 16ZM9.84766 8.125C9.82031 8.07031 9.79297 7.98828 9.73828 7.93359L6.56641 4.76172C6.51172 4.70703 6.42969 4.67969 6.375 4.65234V7.6875C6.375 7.93359 6.56641 8.125 6.8125 8.125H9.84766ZM0.25 5.5C0.25 4.54297 1.01562 3.75 2 3.75H6.26562C6.59375 3.75 6.94922 3.91406 7.19531 4.16016L10.3398 7.30469C10.5859 7.55078 10.75 7.90625 10.75 8.23438V16C10.75 16.9844 9.95703 17.75 9 17.75H2C1.01562 17.75 0.25 16.9844 0.25 16V5.5ZM2 5.9375C2 5.71875 2.19141 5.5 2.4375 5.5H4.1875C4.40625 5.5 4.625 5.71875 4.625 5.9375C4.625 6.18359 4.40625 6.375 4.1875 6.375H2.4375C2.19141 6.375 2 6.18359 2 5.9375ZM2 7.6875C2 7.46875 2.19141 7.25 2.4375 7.25H4.1875C4.40625 7.25 4.625 7.46875 4.625 7.6875C4.625 7.93359 4.40625 8.125 4.1875 8.125H2.4375C2.19141 8.125 2 7.93359 2 7.6875ZM5.9375 10.4219V10.8047C6.15625 10.832 6.375 10.8594 6.56641 10.9141C6.8125 10.9688 6.94922 11.2148 6.89453 11.4336C6.83984 11.6797 6.59375 11.8164 6.375 11.7617C6.07422 11.707 5.77344 11.6523 5.47266 11.6523C5.25391 11.625 4.98047 11.6797 4.81641 11.7891C4.65234 11.8711 4.625 11.9531 4.625 12.0352C4.625 12.0898 4.625 12.1445 4.78906 12.2266C4.98047 12.3359 5.25391 12.3906 5.60938 12.5C5.91016 12.582 6.29297 12.6914 6.59375 12.8555C6.92188 13.0195 7.22266 13.3477 7.25 13.8398C7.25 14.3594 6.94922 14.6875 6.59375 14.9062C6.40234 15.0156 6.15625 15.0703 5.9375 15.125V15.4805C5.9375 15.7266 5.71875 15.918 5.5 15.918C5.25391 15.918 5.0625 15.7266 5.0625 15.4805V15.0977C4.76172 15.043 4.46094 14.9609 4.21484 14.8789C4.16016 14.8516 4.10547 14.8516 4.05078 14.8242C3.83203 14.7695 3.69531 14.5234 3.75 14.2773C3.83203 14.0586 4.07812 13.9219 4.29688 13.9766C4.37891 14.0039 4.43359 14.0312 4.48828 14.0586C4.87109 14.168 5.17188 14.25 5.5 14.25C5.77344 14.2773 6.01953 14.2227 6.18359 14.1406C6.32031 14.0586 6.375 13.9492 6.375 13.8398C6.375 13.7852 6.34766 13.7031 6.18359 13.6211C5.99219 13.5117 5.71875 13.4297 5.36328 13.3477L5.33594 13.3203C5.03516 13.2383 4.67969 13.1562 4.37891 12.9922C4.07812 12.8281 3.75 12.5273 3.75 12.0352C3.75 11.5156 4.07812 11.1875 4.40625 10.9961C4.625 10.8867 4.84375 10.832 5.0625 10.8047V10.4219C5.0625 10.1758 5.25391 9.98438 5.5 9.98438C5.74609 9.98438 5.9375 10.1758 5.9375 10.4219Z" fill="black" fill-opacity="0.72"/>
</g>
<defs>
<clipPath id="clip0_2556_12239">
<rect width="11" height="22" fill="white"/>
</clipPath>
</defs>
</svg>
