<svg width="14" height="24" viewBox="0 0 14 24" fill="none" xmlns="http://www.w3.org/2000/svg">
<g id="label-paired / md / flag-checkered-md / fill" clip-path="url(#clip0_2556_15225)">
<path id="icon" d="M1 4C1.53125 4 2 4.46875 2 5V5.5L4.15625 4.96875C5.34375 4.6875 6.59375 4.8125 7.6875 5.375C9.125 6.09375 10.8438 6.09375 12.2812 5.375L12.5938 5.21875C13.2188 4.90625 14 5.375 14 6.09375V14.8125C14 15.25 13.7188 15.625 13.3438 15.75L12.25 16.1562C10.8125 16.7188 9.1875 16.625 7.8125 15.9375C6.625 15.3438 5.28125 15.1875 4 15.5L2 16V19C2 19.5625 1.53125 20 1 20C0.4375 20 0 19.5625 0 19V16.5V14.4375V6V5C0 4.46875 0.4375 4 1 4ZM2 9.875L4 9.4375V11.4688L2 11.9062V13.9375L3.5 13.5625C3.65625 13.5312 3.8125 13.5 4 13.4688V11.4688L5.1875 11.2188C5.46875 11.1562 5.71875 11.125 6 11.1562V9.15625C6.40625 9.15625 6.84375 9.21875 7.25 9.34375L8 9.5625V11.6562L6.6875 11.25C6.46875 11.1875 6.21875 11.1562 6 11.1562V13.375C6.65625 13.4375 7.34375 13.5938 8 13.8125V11.6562L8.6875 11.8438C9.125 11.9688 9.5625 12.0625 10 12.0938V10.0625C9.75 10.0625 9.5 10 9.25 9.9375L8 9.5625V7.625C7.59375 7.5 7.1875 7.34375 6.78125 7.15625C6.53125 7.03125 6.25 6.9375 6 6.875V9.15625C5.59375 9.125 5.1875 9.15625 4.78125 9.25L4 9.4375V7.0625L2 7.5625V9.875ZM10 14.5C10.5 14.5625 11.0312 14.4688 11.5625 14.2812L12 14.125V11.875L11.75 11.9375C11.1562 12.0625 10.5625 12.125 10 12.0938V14.5ZM12 9.84375V7.625C11.3438 7.8125 10.6562 7.90625 10 7.90625V10.0625C10.4062 10.125 10.875 10.0938 11.2812 10L12 9.84375Z" fill="black" fill-opacity="0.72"/>
</g>
<defs>
<clipPath id="clip0_2556_15225">
<rect width="14" height="24" fill="white"/>
</clipPath>
</defs>
</svg>
