<svg width="24" height="36" viewBox="0 0 24 36" fill="none" xmlns="http://www.w3.org/2000/svg">
<g id="label-paired / xl / shield-check-xl / fill" clip-path="url(#clip0_2556_19705)">
<path id="icon" d="M12.6094 6.14062L21.4219 9.89062C22.4531 10.3594 23.25 11.3438 23.25 12.5625C23.2031 17.25 21.2812 25.7344 13.2188 29.625C12.4219 30 11.5312 30 10.7344 29.625C2.67188 25.7344 0.75 17.25 0.75 12.5625C0.703125 11.3438 1.5 10.3594 2.53125 9.89062L11.3438 6.14062C11.5312 6.04688 11.7656 6 12 6C12.1875 6 12.4219 6.04688 12.6094 6.14062ZM14.625 15.75C14.625 14.3438 13.4062 13.125 12 13.125C10.5469 13.125 9.375 14.3438 9.375 15.75C9.375 16.8281 9.98438 17.7188 10.875 18.1406V21.375C10.875 22.0312 11.3438 22.5 12 22.5C12.6094 22.5 13.125 22.0312 13.125 21.375V18.1406C13.9688 17.7188 14.625 16.8281 14.625 15.75Z" fill="black" fill-opacity="0.72"/>
</g>
<defs>
<clipPath id="clip0_2556_19705">
<rect width="24" height="36" fill="white"/>
</clipPath>
</defs>
</svg>
