<svg width="14" height="22" viewBox="0 0 14 22" fill="none" xmlns="http://www.w3.org/2000/svg">
<g id="label-paired / sm / circle-question-sm / bold" clip-path="url(#clip0_3578_719)">
<path id="icon" d="M12.6875 10.75C12.6875 8.72656 11.5938 6.86719 9.84375 5.82812C8.06641 4.81641 5.90625 4.81641 4.15625 5.82812C2.37891 6.86719 1.3125 8.72656 1.3125 10.75C1.3125 12.8008 2.37891 14.6602 4.15625 15.6992C5.90625 16.7109 8.06641 16.7109 9.84375 15.6992C11.5938 14.6602 12.6875 12.8008 12.6875 10.75ZM0 10.75C0 8.26172 1.3125 5.96484 3.5 4.70703C5.66016 3.44922 8.3125 3.44922 10.5 4.70703C12.6602 5.96484 14 8.26172 14 10.75C14 13.2656 12.6602 15.5625 10.5 16.8203C8.3125 18.0781 5.66016 18.0781 3.5 16.8203C1.3125 15.5625 0 13.2656 0 10.75ZM4.62109 8.28906C4.83984 7.66016 5.41406 7.25 6.07031 7.25H7.65625C8.61328 7.25 9.40625 8.04297 9.40625 9C9.40625 9.60156 9.05078 10.1758 8.53125 10.4766L7.65625 10.9961C7.62891 11.3516 7.35547 11.625 7 11.625C6.61719 11.625 6.34375 11.3516 6.34375 10.9688V10.6133C6.34375 10.3672 6.45312 10.1484 6.67188 10.0391L7.875 9.35547C8.01172 9.27344 8.09375 9.13672 8.09375 9C8.09375 8.75391 7.90234 8.58984 7.65625 8.58984H6.07031C5.98828 8.58984 5.90625 8.64453 5.87891 8.72656L5.85156 8.75391C5.74219 9.10938 5.35938 9.27344 5.03125 9.16406C4.67578 9.02734 4.51172 8.64453 4.62109 8.31641V8.28906ZM6.125 13.375C6.125 12.9102 6.50781 12.5 7 12.5C7.46484 12.5 7.875 12.9102 7.875 13.375C7.875 13.8672 7.46484 14.25 7 14.25C6.50781 14.25 6.125 13.8672 6.125 13.375Z" fill="black" fill-opacity="0.72"/>
</g>
<defs>
<clipPath id="clip0_3578_719">
<rect width="14" height="22" fill="white"/>
</clipPath>
</defs>
</svg>
