<svg width="24" height="36" viewBox="0 0 24 36" fill="none" xmlns="http://www.w3.org/2000/svg">
<g id="label-paired / xl / circle-chevron-down-xl / fill" clip-path="url(#clip0_2556_19708)">
<path id="icon" d="M12 6C16.2656 6 20.2031 8.29688 22.3594 12C24.5156 15.75 24.5156 20.2969 22.3594 24C20.2031 27.75 16.2656 30 12 30C7.6875 30 3.75 27.75 1.59375 24C-0.5625 20.2969 -0.5625 15.75 1.59375 12C3.75 8.29688 7.6875 6 12 6ZM6.32812 17.2969L11.2031 22.1719C11.625 22.6406 12.3281 22.6406 12.7969 22.1719L17.625 17.2969C18.0938 16.875 18.0938 16.1719 17.625 15.75C17.2031 15.2812 16.5 15.2812 16.0312 15.75L11.9531 19.8281L7.875 15.75C7.45312 15.2812 6.75 15.2812 6.32812 15.75C5.85938 16.1719 5.85938 16.875 6.32812 17.2969Z" fill="black" fill-opacity="0.72"/>
</g>
<defs>
<clipPath id="clip0_2556_19708">
<rect width="24" height="36" fill="white"/>
</clipPath>
</defs>
</svg>
