<svg width="27" height="36" viewBox="0 0 27 36" fill="none" xmlns="http://www.w3.org/2000/svg">
<g id="label-paired / xl / video-xl / regular" clip-path="url(#clip0_2556_19966)">
<path id="icon" d="M3 10.5C2.15625 10.5 1.5 11.2031 1.5 12V24C1.5 24.8438 2.15625 25.5 3 25.5H15C15.7969 25.5 16.5 24.8438 16.5 24V12C16.5 11.2031 15.7969 10.5 15 10.5H3ZM0 12C0 10.3594 1.3125 9 3 9H15C16.6406 9 18 10.3594 18 12V14.25V21.7969V24C18 25.6875 16.6406 27 15 27H3C1.3125 27 0 25.6875 0 24V12ZM24.3281 25.3125L19.5 22.6406V20.9062L25.0312 24C25.0781 24 25.125 24.0469 25.1719 24.0469C25.3594 24.0469 25.5 23.9062 25.5 23.7188V12.3281C25.5 12.1406 25.3594 12 25.1719 12C25.125 12 25.0781 12.0469 25.0312 12.0469L19.5 15.1406V13.4062L24.3281 10.7344C24.6094 10.5938 24.8906 10.5 25.1719 10.5C26.1562 10.5 27 11.3438 27 12.3281V23.7188C27 24.7031 26.1562 25.5 25.1719 25.5C24.8906 25.5 24.6094 25.4531 24.3281 25.3125Z" fill="black" fill-opacity="0.72"/>
</g>
<defs>
<clipPath id="clip0_2556_19966">
<rect width="27" height="36" fill="white"/>
</clipPath>
</defs>
</svg>
