<svg width="16" height="24" viewBox="0 0 16 24" fill="none" xmlns="http://www.w3.org/2000/svg">
<g id="label-paired / md / circle-caret-down-md / bold" clip-path="url(#clip0_2556_14999)">
<path id="icon" d="M8 18.5C10.3125 18.5 12.4375 17.2812 13.625 15.25C14.7812 13.25 14.7812 10.7812 13.625 8.75C12.4375 6.75 10.3125 5.5 8 5.5C5.65625 5.5 3.53125 6.75 2.34375 8.75C1.1875 10.7812 1.1875 13.25 2.34375 15.25C3.53125 17.2812 5.65625 18.5 8 18.5ZM8 4C10.8438 4 13.4688 5.53125 14.9062 8C16.3438 10.5 16.3438 13.5312 14.9062 16C13.4688 18.5 10.8438 20 8 20C5.125 20 2.5 18.5 1.0625 16C-0.375 13.5312 -0.375 10.5 1.0625 8C2.5 5.53125 5.125 4 8 4ZM8 15.5C7.78125 15.5 7.5625 15.4375 7.4375 15.2812L4.1875 11.7812C3.96875 11.5625 3.9375 11.25 4.0625 10.9688C4.15625 10.6875 4.4375 10.5 4.75 10.5H11.25C11.5312 10.5 11.8125 10.6875 11.9375 10.9688C12.0312 11.25 12 11.5625 11.7812 11.7812L8.53125 15.2812C8.40625 15.4375 8.1875 15.5 8 15.5Z" fill="black" fill-opacity="0.72"/>
</g>
<defs>
<clipPath id="clip0_2556_14999">
<rect width="16" height="24" fill="white"/>
</clipPath>
</defs>
</svg>
