<svg width="16" height="24" viewBox="0 0 16 24" fill="none" xmlns="http://www.w3.org/2000/svg">
<g id="label-paired / md / window-maximize-md / regular" clip-path="url(#clip0_2556_15106)">
<path id="icon" d="M2 6C1.4375 6 1 6.46875 1 7V10H15V7C15 6.46875 14.5312 6 14 6H2ZM1 11V17C1 17.5625 1.4375 18 2 18H14C14.5312 18 15 17.5625 15 17V11H1ZM0 7C0 5.90625 0.875 5 2 5H14C15.0938 5 16 5.90625 16 7V17C16 18.125 15.0938 19 14 19H2C0.875 19 0 18.125 0 17V7Z" fill="black" fill-opacity="0.72"/>
</g>
<defs>
<clipPath id="clip0_2556_15106">
<rect width="16" height="24" fill="white"/>
</clipPath>
</defs>
</svg>
