<svg width="12" height="18" viewBox="0 0 12 18" fill="none" xmlns="http://www.w3.org/2000/svg">
<g id="label-paired / caption / thumbs-down-caption / bold" clip-path="url(#clip0_2556_10198)">
<path id="icon" d="M7.57031 14.7031C6.67969 14.9609 5.74219 14.4219 5.48438 13.5312L5.36719 13.0625C5.27344 12.7578 5.10938 12.4766 4.89844 12.2422L3.70312 10.9297C3.49219 10.6953 3.51562 10.3438 3.72656 10.1328C3.96094 9.92188 4.3125 9.94531 4.52344 10.1797L5.74219 11.4922C6.07031 11.8438 6.30469 12.2891 6.44531 12.7578L6.5625 13.2266C6.65625 13.5312 6.96094 13.6953 7.26562 13.625C7.57031 13.5312 7.73438 13.2266 7.66406 12.9219L7.52344 12.4531C7.38281 11.9844 7.17188 11.5391 6.89062 11.1406C6.77344 10.9766 6.77344 10.7422 6.86719 10.5547C6.96094 10.3672 7.14844 10.25 7.35938 10.25H10.5C10.6875 10.25 10.875 10.0859 10.875 9.875C10.875 9.73438 10.7578 9.59375 10.6172 9.52344C10.4531 9.47656 10.3125 9.3125 10.2656 9.14844C10.2188 8.96094 10.2656 8.77344 10.4062 8.63281C10.4531 8.5625 10.5 8.49219 10.5 8.375C10.5 8.21094 10.3594 8.04688 10.1953 8.02344C9.98438 7.97656 9.82031 7.83594 9.77344 7.67188C9.70312 7.48438 9.72656 7.27344 9.84375 7.10938C9.89062 7.0625 9.9375 6.96875 9.9375 6.875C9.9375 6.73438 9.82031 6.59375 9.67969 6.52344C9.42188 6.42969 9.28125 6.14844 9.35156 5.86719C9.35156 5.82031 9.375 5.79688 9.375 5.75C9.375 5.5625 9.1875 5.375 9 5.375H6.70312C6.39844 5.375 6.11719 5.46875 5.88281 5.63281L4.42969 6.59375C4.17188 6.78125 3.82031 6.71094 3.65625 6.42969C3.46875 6.17188 3.53906 5.84375 3.79688 5.65625L5.25 4.69531C5.67188 4.41406 6.1875 4.25 6.70312 4.25H9C9.79688 4.25 10.4531 4.90625 10.5 5.70312C10.8281 5.98438 11.0625 6.40625 11.0625 6.875C11.0625 6.99219 11.0391 7.08594 11.0156 7.17969C11.3906 7.46094 11.625 7.88281 11.625 8.375C11.625 8.53906 11.6016 8.67969 11.5547 8.82031C11.8125 9.10156 12 9.47656 12 9.875C12 10.7188 11.3203 11.375 10.5 11.375H8.32031C8.4375 11.6328 8.53125 11.8906 8.60156 12.1484L8.74219 12.6172C9 13.5078 8.48438 14.4453 7.57031 14.7031ZM0.75 12.5C0.328125 12.5 0 12.1719 0 11.75V6.5C0 6.10156 0.328125 5.75 0.75 5.75H2.25C2.64844 5.75 3 6.10156 3 6.5V11.75C3 12.1719 2.64844 12.5 2.25 12.5H0.75Z" fill="black" fill-opacity="0.72"/>
</g>
<defs>
<clipPath id="clip0_2556_10198">
<rect width="12" height="18" fill="white"/>
</clipPath>
</defs>
</svg>
