<svg width="14" height="22" viewBox="0 0 14 22" fill="none" xmlns="http://www.w3.org/2000/svg">
<g id="label-paired / sm / circle-user-sm / bold" clip-path="url(#clip0_2556_12286)">
<path id="icon" d="M11.1016 14.6875C12.0859 13.6758 12.6875 12.2812 12.6875 10.75C12.6875 7.63281 10.1172 5.0625 7 5.0625C3.85547 5.0625 1.3125 7.63281 1.3125 10.75C1.3125 12.2812 1.88672 13.6758 2.87109 14.6875C3.39062 13.4023 4.64844 12.5 6.125 12.5H7.875C9.32422 12.5 10.582 13.4023 11.1016 14.6875ZM10.0078 15.5898C9.81641 14.5781 8.91406 13.8125 7.875 13.8125H6.125C5.05859 13.8125 4.15625 14.5781 3.96484 15.5898C4.83984 16.1367 5.87891 16.4375 7 16.4375C8.09375 16.4375 9.13281 16.1367 10.0078 15.5898ZM7 17.75C4.48438 17.75 2.1875 16.4375 0.929688 14.25C-0.328125 12.0898 -0.328125 9.4375 0.929688 7.25C2.1875 5.08984 4.48438 3.75 7 3.75C9.48828 3.75 11.7852 5.08984 13.043 7.25C14.3008 9.4375 14.3008 12.0898 13.043 14.25C11.7852 16.4375 9.48828 17.75 7 17.75ZM7 10.3125C7.38281 10.3125 7.73828 10.1211 7.92969 9.76562C8.12109 9.4375 8.12109 9.02734 7.92969 8.67188C7.73828 8.34375 7.38281 8.125 7 8.125C6.58984 8.125 6.23438 8.34375 6.04297 8.67188C5.85156 9.02734 5.85156 9.4375 6.04297 9.76562C6.23438 10.1211 6.58984 10.3125 7 10.3125ZM4.59375 9.21875C4.59375 8.37109 5.03125 7.57812 5.79688 7.14062C6.53516 6.73047 7.4375 6.73047 8.20312 7.14062C8.94141 7.57812 9.40625 8.37109 9.40625 9.21875C9.40625 10.0938 8.94141 10.8867 8.20312 11.3242C7.4375 11.7344 6.53516 11.7344 5.79688 11.3242C5.03125 10.8867 4.59375 10.0938 4.59375 9.21875Z" fill="black" fill-opacity="0.72"/>
</g>
<defs>
<clipPath id="clip0_2556_12286">
<rect width="14" height="22" fill="white"/>
</clipPath>
</defs>
</svg>
