<svg width="12" height="24" viewBox="0 0 12 24" fill="none" xmlns="http://www.w3.org/2000/svg">
<g id="label-paired / md / apple-md" clip-path="url(#clip0_2556_15002)">
<path id="icon" d="M9.9375 12.4062C9.9375 12.4688 9.84375 14.3125 11.875 15.2812C11.5 16.4375 10.1875 19 8.65625 19C7.78125 19 7.28125 18.4375 6.28125 18.4375C5.25 18.4375 4.6875 19 3.90625 19C2.40625 19.0625 0.96875 16.25 0.5625 15.0938C0.25 14.2188 0.125 13.375 0.125 12.5625C0.125 9.78125 1.96875 8.4375 3.71875 8.40625C4.5625 8.40625 5.625 9 6.09375 9C6.53125 9 7.75 8.28125 8.875 8.375C10.0312 8.46875 10.9062 8.90625 11.5 9.75C10.4688 10.4062 9.9375 11.25 9.9375 12.4062ZM8.1875 7.28125C7.5625 8 6.8125 8.40625 6 8.34375C5.9375 7.5 6.25 6.71875 6.8125 6.09375C7.3125 5.53125 8.1875 5.0625 8.9375 5C8.9375 5.34375 9.03125 6.28125 8.1875 7.28125Z" fill="black" fill-opacity="0.72"/>
</g>
<defs>
<clipPath id="clip0_2556_15002">
<rect width="12" height="24" fill="white"/>
</clipPath>
</defs>
</svg>
