<svg width="24" height="36" viewBox="0 0 24 36" fill="none" xmlns="http://www.w3.org/2000/svg">
<g id="label-paired / xl / briefcase-xl / regular" clip-path="url(#clip0_2556_19277)">
<path id="icon" d="M7.5 8.25V10.5H16.5V8.25C16.5 7.875 16.125 7.5 15.75 7.5H8.25C7.82812 7.5 7.5 7.875 7.5 8.25ZM6 10.5V8.25C6 7.03125 6.98438 6 8.25 6H15.75C16.9688 6 18 7.03125 18 8.25V10.5H21C22.6406 10.5 24 11.8594 24 13.5V25.5C24 27.1875 22.6406 28.5 21 28.5H3C1.3125 28.5 0 27.1875 0 25.5V13.5C0 11.8594 1.3125 10.5 3 10.5H6ZM17.25 12H6.75H3C2.15625 12 1.5 12.7031 1.5 13.5V18H8.25H9.75H14.25H15.75H22.5V13.5C22.5 12.7031 21.7969 12 21 12H17.25ZM22.5 19.5H15.75V21.75C15.75 22.5938 15.0469 23.25 14.25 23.25H9.75C8.90625 23.25 8.25 22.5938 8.25 21.75V19.5H1.5V25.5C1.5 26.3438 2.15625 27 3 27H21C21.7969 27 22.5 26.3438 22.5 25.5V19.5ZM9.75 19.5V21.75H14.25V19.5H9.75Z" fill="black" fill-opacity="0.72"/>
</g>
<defs>
<clipPath id="clip0_2556_19277">
<rect width="24" height="36" fill="white"/>
</clipPath>
</defs>
</svg>
