<svg width="20" height="30" viewBox="0 0 20 30" fill="none" xmlns="http://www.w3.org/2000/svg">
<g id="label-paired / lg / circle-user-lg / fill" clip-path="url(#clip0_2556_17163)">
<path id="icon" d="M15.5859 20.5391C14.6875 19.0156 13.0859 18 11.25 18H8.75C6.875 18 5.27344 19.0156 4.41406 20.5391C5.78125 22.0625 7.77344 23 10 23C12.1875 23 14.1797 22.0625 15.5859 20.5391ZM0 15.5C0 11.9453 1.875 8.66406 5 6.86719C8.08594 5.07031 11.875 5.07031 15 6.86719C18.0859 8.66406 20 11.9453 20 15.5C20 19.0938 18.0859 22.375 15 24.1719C11.875 25.9688 8.08594 25.9688 5 24.1719C1.875 22.375 0 19.0938 0 15.5ZM10 16.125C10.9766 16.125 11.9141 15.6172 12.4219 14.7188C12.9297 13.8594 12.9297 12.8047 12.4219 11.9062C11.9141 11.0469 10.9766 10.5 10 10.5C8.98438 10.5 8.04688 11.0469 7.53906 11.9062C7.03125 12.8047 7.03125 13.8594 7.53906 14.7188C8.04688 15.6172 8.98438 16.125 10 16.125Z" fill="black" fill-opacity="0.72"/>
</g>
<defs>
<clipPath id="clip0_2556_17163">
<rect width="20" height="30" fill="white"/>
</clipPath>
</defs>
</svg>
