<svg width="21" height="36" viewBox="0 0 21 36" fill="none" xmlns="http://www.w3.org/2000/svg">
<g id="label-paired / xl / calendar-xl / bold" clip-path="url(#clip0_2556_19684)">
<path id="icon" d="M7.125 7.125V9H13.875V7.125C13.875 6.51562 14.3438 6 15 6C15.6094 6 16.125 6.51562 16.125 7.125V9H18C19.6406 9 21 10.3594 21 12V12.75V15V27C21 28.6875 19.6406 30 18 30H3C1.3125 30 0 28.6875 0 27V15V12.75V12C0 10.3594 1.3125 9 3 9H4.875V7.125C4.875 6.51562 5.34375 6 6 6C6.60938 6 7.125 6.51562 7.125 7.125ZM2.25 15V27C2.25 27.4219 2.57812 27.75 3 27.75H18C18.375 27.75 18.75 27.4219 18.75 27V15H2.25Z" fill="black" fill-opacity="0.72"/>
</g>
<defs>
<clipPath id="clip0_2556_19684">
<rect width="21" height="36" fill="white"/>
</clipPath>
</defs>
</svg>
