<svg width="16" height="24" viewBox="0 0 16 24" fill="none" xmlns="http://www.w3.org/2000/svg">
<g id="label-paired / md / face-viewfinder-md / regular" clip-path="url(#clip0_2512_1063)">
<path id="icon" d="M1.5 4H4.5C4.8125 4.02083 4.97917 4.1875 5 4.5C4.97917 4.8125 4.8125 4.97917 4.5 5H1.5C1.1875 5.02083 1.02083 5.1875 1 5.5V8.5C0.979167 8.8125 0.8125 8.97917 0.5 9C0.1875 8.97917 0.0208333 8.8125 0 8.5V5.5C0.0208333 5.08333 0.166667 4.72917 0.4375 4.4375C0.729167 4.16667 1.08333 4.02083 1.5 4ZM14.5 4C14.9167 4.02083 15.2708 4.16667 15.5625 4.4375C15.8333 4.72917 15.9792 5.08333 16 5.5V8.5C15.9792 8.8125 15.8125 8.97917 15.5 9C15.1875 8.97917 15.0208 8.8125 15 8.5V5.5C14.9792 5.1875 14.8125 5.02083 14.5 5H11.5C11.1875 4.97917 11.0208 4.8125 11 4.5C11.0208 4.1875 11.1875 4.02083 11.5 4H14.5ZM0 18.5V15.5C0.0208333 15.1875 0.1875 15.0208 0.5 15C0.8125 15.0208 0.979167 15.1875 1 15.5V18.5C1.02083 18.8125 1.1875 18.9792 1.5 19H4.5C4.8125 19.0208 4.97917 19.1875 5 19.5C4.97917 19.8125 4.8125 19.9792 4.5 20H1.5C1.08333 19.9792 0.729167 19.8333 0.4375 19.5625C0.166667 19.2708 0.0208333 18.9167 0 18.5ZM14.5 20H11.5C11.1875 19.9792 11.0208 19.8125 11 19.5C11.0208 19.1875 11.1875 19.0208 11.5 19H14.5C14.8125 18.9792 14.9792 18.8125 15 18.5V15.5C15.0208 15.1875 15.1875 15.0208 15.5 15C15.8125 15.0208 15.9792 15.1875 16 15.5V18.5C15.9792 18.9167 15.8333 19.2708 15.5625 19.5625C15.2708 19.8333 14.9167 19.9792 14.5 20ZM7.5 10.75C7.45833 11.2083 7.20833 11.4583 6.75 11.5C6.29167 11.4583 6.04167 11.2083 6 10.75C6.04167 10.2917 6.29167 10.0417 6.75 10C7.20833 10.0417 7.45833 10.2917 7.5 10.75ZM9.25 11.5C8.79167 11.4583 8.54167 11.2083 8.5 10.75C8.54167 10.2917 8.79167 10.0417 9.25 10C9.70833 10.0417 9.95833 10.2917 10 10.75C9.95833 11.2083 9.70833 11.4583 9.25 11.5ZM8 8C7.27083 8 6.60417 8.17708 6 8.53125C5.39583 8.88542 4.90625 9.375 4.53125 10C4.17708 10.625 4 11.2917 4 12C4 12.7083 4.17708 13.375 4.53125 14C4.90625 14.625 5.39583 15.1146 6 15.4688C6.60417 15.8229 7.27083 16 8 16C8.72917 16 9.39583 15.8229 10 15.4688C10.6042 15.1146 11.0938 14.625 11.4688 14C11.8229 13.375 12 12.7083 12 12C12 11.2917 11.8229 10.625 11.4688 10C11.0938 9.375 10.6042 8.88542 10 8.53125C9.39583 8.17708 8.72917 8 8 8ZM8 17C7.10417 17 6.27083 16.7812 5.5 16.3438C4.72917 15.8854 4.11458 15.2708 3.65625 14.5C3.21875 13.7083 3 12.875 3 12C3 11.125 3.21875 10.2917 3.65625 9.5C4.11458 8.72917 4.72917 8.11458 5.5 7.65625C6.27083 7.21875 7.10417 7 8 7C8.89583 7 9.72917 7.21875 10.5 7.65625C11.2708 8.11458 11.8854 8.72917 12.3438 9.5C12.7812 10.2917 13 11.125 13 12C13 12.875 12.7812 13.7083 12.3438 14.5C11.8854 15.2708 11.2708 15.8854 10.5 16.3438C9.72917 16.7812 8.89583 17 8 17ZM6.6875 12.75C6.97917 13.2292 7.41667 13.4792 8 13.5C8.58333 13.4792 9.02083 13.2292 9.3125 12.75C9.47917 12.5 9.70833 12.4375 10 12.5625C10.2292 12.75 10.2812 12.9792 10.1562 13.25C9.69792 14.0417 8.97917 14.4583 8 14.5C7.02083 14.4583 6.30208 14.0417 5.84375 13.25C5.69792 12.9792 5.76042 12.75 6.03125 12.5625C6.30208 12.4375 6.52083 12.5 6.6875 12.75Z" fill="black" fill-opacity="0.72"/>
</g>
<defs>
<clipPath id="clip0_2512_1063">
<rect width="16" height="24" fill="white"/>
</clipPath>
</defs>
</svg>
