<svg width="12" height="18" viewBox="0 0 12 18" fill="none" xmlns="http://www.w3.org/2000/svg">
<g id="label-paired / caption / circle-dot-caption / regular" clip-path="url(#clip0_2556_10641)">
<path id="icon" d="M11.25 9.5C11.25 7.625 10.2422 5.91406 8.625 4.97656C6.98438 4.01562 4.99219 4.01562 3.375 4.97656C1.73438 5.91406 0.75 7.625 0.75 9.5C0.75 11.3984 1.73438 13.1094 3.375 14.0469C4.99219 15.0078 6.98438 15.0078 8.625 14.0469C10.2422 13.1094 11.25 11.3984 11.25 9.5ZM0 9.5C0 7.36719 1.125 5.39844 3 4.32031C4.85156 3.24219 7.125 3.24219 9 4.32031C10.8516 5.39844 12 7.36719 12 9.5C12 11.6562 10.8516 13.625 9 14.7031C7.125 15.7812 4.85156 15.7812 3 14.7031C1.125 13.625 0 11.6562 0 9.5ZM7.5 9.5C7.5 8.98438 7.19531 8.49219 6.75 8.21094C6.28125 7.95312 5.69531 7.95312 5.25 8.21094C4.78125 8.49219 4.5 8.98438 4.5 9.5C4.5 10.0391 4.78125 10.5312 5.25 10.8125C5.69531 11.0703 6.28125 11.0703 6.75 10.8125C7.19531 10.5312 7.5 10.0391 7.5 9.5ZM3.75 9.5C3.75 8.70312 4.17188 7.97656 4.875 7.55469C5.55469 7.15625 6.42188 7.15625 7.125 7.55469C7.80469 7.97656 8.25 8.70312 8.25 9.5C8.25 10.3203 7.80469 11.0469 7.125 11.4688C6.42188 11.8672 5.55469 11.8672 4.875 11.4688C4.17188 11.0469 3.75 10.3203 3.75 9.5Z" fill="black" fill-opacity="0.72"/>
</g>
<defs>
<clipPath id="clip0_2556_10641">
<rect width="12" height="18" fill="white"/>
</clipPath>
</defs>
</svg>
