<svg width="24" height="36" viewBox="0 0 24 36" fill="none" xmlns="http://www.w3.org/2000/svg">
<g id="label-paired / xl / circle-arrow-left-xl / fill" clip-path="url(#clip0_2556_19979)">
<path id="icon" d="M24 18C24 22.3125 21.7031 26.25 18 28.4062C14.25 30.5625 9.70312 30.5625 6 28.4062C2.25 26.25 0 22.3125 0 18C0 13.7344 2.25 9.79688 6 7.64062C9.70312 5.48438 14.25 5.48438 18 7.64062C21.7031 9.79688 24 13.7344 24 18ZM10.8281 11.9531L5.57812 17.25C5.10938 17.6719 5.10938 18.375 5.57812 18.7969L10.8281 24.0469C11.25 24.5156 11.9531 24.5156 12.375 24.0469C12.8438 23.625 12.8438 22.9219 12.375 22.4531L9.04688 19.125H17.625C18.2344 19.125 18.75 18.6562 18.75 18C18.75 17.3906 18.2344 16.875 17.625 16.875H9.04688L12.375 13.5469C12.8438 13.125 12.8438 12.4219 12.375 11.9531C11.9531 11.5312 11.25 11.5312 10.8281 11.9531Z" fill="black" fill-opacity="0.72"/>
</g>
<defs>
<clipPath id="clip0_2556_19979">
<rect width="24" height="36" fill="white"/>
</clipPath>
</defs>
</svg>
