<svg width="24" height="36" viewBox="0 0 24 36" fill="none" xmlns="http://www.w3.org/2000/svg">
<g id="label-paired / xl / cash-register-xl / bold" clip-path="url(#clip0_2556_19284)">
<path id="icon" d="M3 6H13.5C14.2969 6 15 6.70312 15 7.5V10.5C15 11.3438 14.2969 12 13.5 12H9.75V13.5H19.875C21.375 13.5 22.6406 14.625 22.8281 16.0781L23.9531 23.8125C23.9531 23.9531 24 24.0938 24 24.2344V27C24 28.6875 22.6406 30 21 30H3C1.3125 30 0 28.6875 0 27V24.2344C0 24.0938 0 23.9531 0 23.8125L1.125 16.0781C1.3125 14.625 2.57812 13.5 4.07812 13.5H6.75V12H3C2.15625 12 1.5 11.3438 1.5 10.5V7.5C1.5 6.70312 2.15625 6 3 6ZM4.5 8.25C4.07812 8.25 3.75 8.625 3.75 9C3.75 9.42188 4.07812 9.75 4.5 9.75H12C12.375 9.75 12.75 9.42188 12.75 9C12.75 8.625 12.375 8.25 12 8.25H4.5ZM2.25 27C2.25 27.4219 2.57812 27.75 3 27.75H21C21.375 27.75 21.75 27.4219 21.75 27V26.25H2.25V27ZM20.625 16.4062C20.5781 16.0312 20.25 15.75 19.875 15.75H4.07812C3.70312 15.75 3.375 16.0312 3.32812 16.4062L2.25 24H21.7031L20.625 16.4062ZM5.25 16.875C5.85938 16.875 6.375 17.3906 6.375 18C6.375 18.6562 5.85938 19.125 5.25 19.125C4.59375 19.125 4.125 18.6562 4.125 18C4.125 17.3906 4.59375 16.875 5.25 16.875ZM8.625 18C8.625 17.3906 9.09375 16.875 9.75 16.875C10.3594 16.875 10.875 17.3906 10.875 18C10.875 18.6562 10.3594 19.125 9.75 19.125C9.09375 19.125 8.625 18.6562 8.625 18ZM7.5 20.625C8.10938 20.625 8.625 21.1406 8.625 21.75C8.625 22.4062 8.10938 22.875 7.5 22.875C6.84375 22.875 6.375 22.4062 6.375 21.75C6.375 21.1406 6.84375 20.625 7.5 20.625ZM13.125 18C13.125 17.3906 13.5938 16.875 14.25 16.875C14.8594 16.875 15.375 17.3906 15.375 18C15.375 18.6562 14.8594 19.125 14.25 19.125C13.5938 19.125 13.125 18.6562 13.125 18ZM12 20.625C12.6094 20.625 13.125 21.1406 13.125 21.75C13.125 22.4062 12.6094 22.875 12 22.875C11.3438 22.875 10.875 22.4062 10.875 21.75C10.875 21.1406 11.3438 20.625 12 20.625ZM17.625 18C17.625 17.3906 18.0938 16.875 18.75 16.875C19.3594 16.875 19.875 17.3906 19.875 18C19.875 18.6562 19.3594 19.125 18.75 19.125C18.0938 19.125 17.625 18.6562 17.625 18ZM16.5 20.625C17.1094 20.625 17.625 21.1406 17.625 21.75C17.625 22.4062 17.1094 22.875 16.5 22.875C15.8438 22.875 15.375 22.4062 15.375 21.75C15.375 21.1406 15.8438 20.625 16.5 20.625Z" fill="black" fill-opacity="0.72"/>
</g>
<defs>
<clipPath id="clip0_2556_19284">
<rect width="24" height="36" fill="white"/>
</clipPath>
</defs>
</svg>
