<svg width="12" height="18" viewBox="0 0 12 18" fill="none" xmlns="http://www.w3.org/2000/svg">
<g id="label-paired / caption / pen-circle-caption / fill" clip-path="url(#clip0_2556_10027)">
<path id="icon" d="M6 15.5C3.84375 15.5 1.875 14.375 0.796875 12.5C-0.28125 10.6484 -0.28125 8.375 0.796875 6.5C1.875 4.64844 3.84375 3.5 6 3.5C8.13281 3.5 10.1016 4.64844 11.1797 6.5C12.2578 8.375 12.2578 10.6484 11.1797 12.5C10.1016 14.375 8.13281 15.5 6 15.5ZM8.36719 6.78125C8.01562 6.42969 7.40625 6.42969 7.05469 6.78125L6.53906 7.29688L8.20312 8.96094L8.71875 8.44531C9.07031 8.07031 9.07031 7.48438 8.71875 7.13281L8.36719 6.78125ZM3.53906 10.2734C3.44531 10.3672 3.375 10.5078 3.35156 10.625L3 12.0312C2.97656 12.1719 3 12.3125 3.09375 12.4062C3.1875 12.5 3.32812 12.5234 3.44531 12.5L4.875 12.1484C4.99219 12.1016 5.10938 12.0312 5.20312 11.9375L7.6875 9.47656L6.02344 7.8125L3.53906 10.2734Z" fill="black" fill-opacity="0.72"/>
</g>
<defs>
<clipPath id="clip0_2556_10027">
<rect width="12" height="18" fill="white"/>
</clipPath>
</defs>
</svg>
