<svg width="13" height="22" viewBox="0 0 13 22" fill="none" xmlns="http://www.w3.org/2000/svg">
<g id="label-paired / sm / expand-sm / regular" clip-path="url(#clip0_2556_12975)">
<path id="icon" d="M4.3125 4.625C4.53125 4.625 4.75 4.84375 4.75 5.0625C4.75 5.30859 4.53125 5.5 4.3125 5.5H1.25V8.5625C1.25 8.80859 1.03125 9 0.8125 9C0.566406 9 0.375 8.80859 0.375 8.5625V5.0625C0.375 4.84375 0.566406 4.625 0.8125 4.625H4.3125ZM0.375 12.9375C0.375 12.7188 0.566406 12.5 0.8125 12.5C1.03125 12.5 1.25 12.7188 1.25 12.9375V16H4.3125C4.53125 16 4.75 16.2188 4.75 16.4375C4.75 16.6836 4.53125 16.875 4.3125 16.875H0.8125C0.566406 16.875 0.375 16.6836 0.375 16.4375V12.9375ZM12.1875 4.625C12.4062 4.625 12.625 4.84375 12.625 5.0625V8.5625C12.625 8.80859 12.4062 9 12.1875 9C11.9414 9 11.75 8.80859 11.75 8.5625V5.5H8.6875C8.44141 5.5 8.25 5.30859 8.25 5.0625C8.25 4.84375 8.44141 4.625 8.6875 4.625H12.1875ZM11.75 12.9375C11.75 12.7188 11.9414 12.5 12.1875 12.5C12.4062 12.5 12.625 12.7188 12.625 12.9375V16.4375C12.625 16.6836 12.4062 16.875 12.1875 16.875H8.6875C8.44141 16.875 8.25 16.6836 8.25 16.4375C8.25 16.2188 8.44141 16 8.6875 16H11.75V12.9375Z" fill="black" fill-opacity="0.72"/>
</g>
<defs>
<clipPath id="clip0_2556_12975">
<rect width="13" height="22" fill="white"/>
</clipPath>
</defs>
</svg>
