<svg width="24" height="36" viewBox="0 0 24 36" fill="none" xmlns="http://www.w3.org/2000/svg">
<g id="label-paired / xl / arrow-rotate-right-xl / bold" clip-path="url(#clip0_3431_1012)">
<path id="icon" d="M22.125 16.5H15.375C14.7188 16.5 14.25 16.0312 14.25 15.375C14.25 14.7656 14.7188 14.25 15.375 14.25H19.5938L18.3281 12.75C16.7812 10.9219 14.5312 9.75 12 9.75C7.40625 9.75 3.75 13.4531 3.75 18C3.75 22.5938 7.40625 26.25 12 26.25C13.8281 26.25 15.5625 25.6406 16.9219 24.6094C17.4375 24.2344 18.1406 24.3281 18.5156 24.8438C18.8906 25.3594 18.7969 26.0625 18.2812 26.4375C16.5469 27.75 14.3438 28.5 12 28.5C6.1875 28.5 1.5 23.8125 1.5 18C1.5 12.2344 6.1875 7.5 12 7.5C15.2344 7.5 18.1406 9 20.0625 11.2969L21 12.4219V8.625C21 8.01562 21.4688 7.5 22.125 7.5C22.7344 7.5 23.25 8.01562 23.25 8.625V15.375C23.25 16.0312 22.7344 16.5 22.125 16.5Z" fill="black" fill-opacity="0.72"/>
</g>
<defs>
<clipPath id="clip0_3431_1012">
<rect width="24" height="36" fill="white"/>
</clipPath>
</defs>
</svg>
