<svg width="21" height="36" viewBox="0 0 21 36" fill="none" xmlns="http://www.w3.org/2000/svg">
<g id="label-paired / xl / bars-xl / fill" clip-path="url(#clip0_2556_19820)">
<path id="icon" d="M0 10.5C0 9.70312 0.65625 9 1.5 9H19.5C20.2969 9 21 9.70312 21 10.5C21 11.3438 20.2969 12 19.5 12H1.5C0.65625 12 0 11.3438 0 10.5ZM0 18C0 17.2031 0.65625 16.5 1.5 16.5H19.5C20.2969 16.5 21 17.2031 21 18C21 18.8438 20.2969 19.5 19.5 19.5H1.5C0.65625 19.5 0 18.8438 0 18ZM21 25.5C21 26.3438 20.2969 27 19.5 27H1.5C0.65625 27 0 26.3438 0 25.5C0 24.7031 0.65625 24 1.5 24H19.5C20.2969 24 21 24.7031 21 25.5Z" fill="black" fill-opacity="0.72"/>
</g>
<defs>
<clipPath id="clip0_2556_19820">
<rect width="21" height="36" fill="white"/>
</clipPath>
</defs>
</svg>
