<svg width="15" height="30" viewBox="0 0 15 30" fill="none" xmlns="http://www.w3.org/2000/svg">
<g id="label-paired / lg / computer-mouse-scrollwheel-lg / bold" clip-path="url(#clip0_2556_17070)">
<path id="icon" d="M13.125 19.25V11.75C13.125 9.36719 11.1328 7.375 8.75 7.375H6.25C3.82812 7.375 1.875 9.36719 1.875 11.75V19.25C1.875 21.6719 3.82812 23.625 6.25 23.625H8.75C11.1328 23.625 13.125 21.6719 13.125 19.25ZM0 11.75C0 8.3125 2.77344 5.5 6.25 5.5H8.75C12.1875 5.5 15 8.3125 15 11.75V19.25C15 22.7266 12.1875 25.5 8.75 25.5H6.25C2.77344 25.5 0 22.7266 0 19.25V11.75ZM7.5 9.25C8.16406 9.25 8.75 9.83594 8.75 10.5V11.75C8.75 12.4531 8.16406 13 7.5 13C6.79688 13 6.25 12.4531 6.25 11.75V10.5C6.25 9.83594 6.79688 9.25 7.5 9.25Z" fill="black" fill-opacity="0.72"/>
</g>
<defs>
<clipPath id="clip0_2556_17070">
<rect width="15" height="30" fill="white"/>
</clipPath>
</defs>
</svg>
