<svg width="18" height="30" viewBox="0 0 18 30" fill="none" xmlns="http://www.w3.org/2000/svg">
<g id="label-paired / lg / bell-lg / bold" clip-path="url(#clip0_2556_17189)">
<path id="icon" d="M9 5.5C9.66406 5.5 10.25 6.08594 10.25 6.75V7.53125C13.1016 8.07812 15.25 10.6172 15.25 13.625V14.6406C15.25 16.3984 15.8359 18.1172 16.9297 19.5234L17.5156 20.2266C17.75 20.5391 17.7891 20.9297 17.6328 21.2422C17.4766 21.5547 17.1641 21.75 16.8125 21.75H1.1875C0.796875 21.75 0.484375 21.5547 0.328125 21.2422C0.171875 20.9297 0.210938 20.5391 0.445312 20.2266L1.03125 19.5234C2.125 18.1172 2.75 16.3984 2.75 14.6406V13.625C2.75 10.6172 4.89844 8.07812 7.75 7.53125V6.75C7.75 6.08594 8.29688 5.5 9 5.5ZM9 9.25C6.57812 9.25 4.625 11.2422 4.625 13.625V14.6406C4.625 16.5156 4.07812 18.3125 3.0625 19.875H14.8984C13.8828 18.3125 13.375 16.5156 13.375 14.6406V13.625C13.375 11.2422 11.3828 9.25 9 9.25ZM11.5 23C11.5 23.6641 11.2266 24.3281 10.7578 24.7969C10.2891 25.2656 9.66406 25.5 9 25.5C8.33594 25.5 7.67188 25.2656 7.20312 24.7969C6.73438 24.3281 6.5 23.6641 6.5 23H9H11.5Z" fill="black" fill-opacity="0.72"/>
</g>
<defs>
<clipPath id="clip0_2556_17189">
<rect width="18" height="30" fill="white"/>
</clipPath>
</defs>
</svg>
