<svg width="18" height="24" viewBox="0 0 18 24" fill="none" xmlns="http://www.w3.org/2000/svg">
<g id="label-paired / md / house-user-md / regular" clip-path="url(#clip0_4670_647)">
<path id="icon" d="M8.65625 4.125C8.84375 3.96875 9.125 3.96875 9.3125 4.125L17.8125 11.625C18.0312 11.8125 18.0312 12.125 17.875 12.3438C17.6875 12.5625 17.375 12.5625 17.1562 12.375L16 11.3438V17.5C16 18.9062 14.875 20 13.5 20H4.5C3.09375 20 2 18.9062 2 17.5V11.3438L0.8125 12.375C0.625 12.5625 0.28125 12.5625 0.125 12.3438C-0.0625 12.125 -0.0625 11.8125 0.15625 11.625L8.65625 4.125ZM3 10.4688V17.5C3 18.3438 3.65625 19 4.5 19H13.5C14.3125 19 15 18.3438 15 17.5V10.4688L9 5.1875L3 10.4688ZM9 12C9.53125 12 10 11.5625 10 11C10 10.4688 9.53125 10 9 10C8.4375 10 8 10.4688 8 11C8 11.5625 8.4375 12 9 12ZM9 9C9.6875 9 10.3438 9.40625 10.7188 10C11.0625 10.625 11.0625 11.4062 10.7188 12C10.3438 12.625 9.6875 13 9 13C8.28125 13 7.625 12.625 7.25 12C6.90625 11.4062 6.90625 10.625 7.25 10C7.625 9.40625 8.28125 9 9 9ZM6.5 16.25V16.5C6.5 16.7812 6.25 17 6 17C5.71875 17 5.5 16.7812 5.5 16.5V16.25C5.5 15.0312 6.5 14 7.75 14H10.25C11.4688 14 12.5 15.0312 12.5 16.25V16.5C12.5 16.7812 12.25 17 12 17C11.7188 17 11.5 16.7812 11.5 16.5V16.25C11.5 15.5625 10.9375 15 10.25 15H7.75C7.03125 15 6.5 15.5625 6.5 16.25Z" fill="black" fill-opacity="0.72"/>
</g>
<defs>
<clipPath id="clip0_4670_647">
<rect width="18" height="24" fill="white"/>
</clipPath>
</defs>
</svg>
