<svg width="13" height="30" viewBox="0 0 13 30" fill="none" xmlns="http://www.w3.org/2000/svg">
<g id="label-paired / lg / backward-step-lg / fill" clip-path="url(#clip0_2556_16972)">
<path id="icon" d="M10.6797 22.7266L3.17969 16.4766L2.75 16.0859V21.75C2.75 22.4531 2.16406 23 1.5 23C0.796875 23 0.25 22.4531 0.25 21.75V9.25C0.25 8.58594 0.796875 8 1.5 8C2.16406 8 2.75 8.58594 2.75 9.25V14.9141L3.17969 14.5625L10.6797 8.3125C11.0703 8 11.5781 7.92188 12.0078 8.11719C12.4375 8.35156 12.75 8.78125 12.75 9.25V21.75C12.75 22.2578 12.4375 22.6875 12.0078 22.8828C11.5781 23.1172 11.0703 23.0391 10.6797 22.7266Z" fill="black" fill-opacity="0.72"/>
</g>
<defs>
<clipPath id="clip0_2556_16972">
<rect width="13" height="30" fill="white"/>
</clipPath>
</defs>
</svg>
