<svg width="14" height="22" viewBox="0 0 14 22" fill="none" xmlns="http://www.w3.org/2000/svg">
<g id="label-paired / sm / circle-arrow-up-right-sm / fill" clip-path="url(#clip0_2556_12587)">
<path id="icon" d="M0 10.75C0 8.26172 1.3125 5.96484 3.5 4.70703C5.66016 3.44922 8.3125 3.44922 10.5 4.70703C12.6602 5.96484 14 8.26172 14 10.75C14 13.2656 12.6602 15.5625 10.5 16.8203C8.3125 18.0781 5.66016 18.0781 3.5 16.8203C1.3125 15.5625 0 13.2656 0 10.75ZM10.0625 12.5V8.34375C10.0625 7.98828 9.76172 7.6875 9.40625 7.6875H5.03125C4.64844 7.6875 4.375 7.98828 4.375 8.34375C4.375 8.72656 4.64844 9 5.03125 9L7.82031 9.02734L4.12891 12.7188C3.85547 12.9648 3.85547 13.375 4.12891 13.6211C4.375 13.8945 4.78516 13.8945 5.05859 13.6211L8.75 9.92969V12.5C8.75 12.8828 9.02344 13.1562 9.40625 13.1562C9.76172 13.1562 10.0625 12.8828 10.0625 12.5Z" fill="black" fill-opacity="0.72"/>
</g>
<defs>
<clipPath id="clip0_2556_12587">
<rect width="14" height="22" fill="white"/>
</clipPath>
</defs>
</svg>
