<svg width="16" height="24" viewBox="0 0 16 24" fill="none" xmlns="http://www.w3.org/2000/svg">
<g id="label-paired / md / fingerprint-md / regular" clip-path="url(#clip0_2556_14889)">
<path id="icon" d="M1 12V13.5C1 13.7812 0.75 14 0.5 14C0.21875 14 0 13.7812 0 13.5V12C0 7.59375 3.5625 4 8 4C10.5 4 12.75 5.15625 14.2188 6.96875C14.375 7.1875 14.3438 7.5 14.125 7.6875C13.9062 7.84375 13.5938 7.8125 13.4375 7.59375C12.1562 6.03125 10.1875 5 8 5C4.125 5 1 8.15625 1 12ZM15.6875 9.875C15.875 10.5625 16 11.2812 16 12V13.5C16 13.7812 15.75 14 15.5 14C15.2188 14 15 13.7812 15 13.5V12C15 11.375 14.9062 10.75 14.7188 10.1562C14.6562 9.875 14.8125 9.59375 15.0938 9.53125C15.3438 9.46875 15.625 9.625 15.6875 9.875ZM8 6.5H7.96875C11.0312 6.5 13.4688 8.96875 13.4688 12V12.7812C13.4688 13.7188 13.4375 14.6562 13.3125 15.5938C13.2812 15.8438 13.0625 16 12.8125 16C12.5 16 12.2812 15.75 12.3125 15.4375C12.4375 14.5625 12.5 13.6875 12.5 12.7812V12C12.5 9.53125 10.4688 7.5 8 7.5C7.4375 7.5 6.90625 7.625 6.40625 7.78125C6.21875 7.875 5.96875 7.8125 5.8125 7.65625C5.59375 7.40625 5.65625 7 5.96875 6.90625C6.59375 6.65625 7.28125 6.5 8 6.5ZM4.53125 8.46875C4.6875 8.65625 4.6875 8.96875 4.5 9.15625C3.875 9.9375 3.5 10.9375 3.5 12V12.7812C3.5 13.75 3.375 14.7188 3.125 15.6562C3.0625 15.875 2.875 16 2.65625 16C2.3125 16 2.09375 15.6875 2.15625 15.375C2.375 14.5312 2.5 13.6562 2.5 12.7812V12C2.5 10.6562 2.96875 9.40625 3.8125 8.4375C4 8.21875 4.34375 8.25 4.53125 8.46875ZM8 9C9.65625 9 11 10.3438 11 12V12.7812C11 14.0938 10.8438 15.375 10.5938 16.625C10.5625 16.8438 10.3438 17 10.125 17C9.78125 17 9.5625 16.7188 9.625 16.4062C9.875 15.2188 10 14 10 12.7812V12C10 10.9062 9.09375 10 8 10C6.875 10 6 10.9062 6 12V12.7812C6 14.0938 5.8125 15.4062 5.4375 16.6562C5.375 16.875 5.1875 17 4.96875 17C4.625 17 4.40625 16.6875 4.5 16.3438C4.8125 15.1875 5 14 5 12.7812V12C5 10.3438 6.34375 9 8 9ZM8.5 12V12.7812C8.5 14.8125 8.125 16.8125 7.375 18.7188L7.1875 19.1875C7.09375 19.4688 6.8125 19.5938 6.5625 19.4688C6.28125 19.375 6.15625 19.0938 6.28125 18.8438L6.4375 18.3438C7.125 16.5938 7.5 14.6875 7.5 12.7812V12C7.5 11.75 7.71875 11.5 8 11.5C8.25 11.5 8.5 11.75 8.5 12Z" fill="black" fill-opacity="0.72"/>
</g>
<defs>
<clipPath id="clip0_2556_14889">
<rect width="16" height="24" fill="white"/>
</clipPath>
</defs>
</svg>
