<svg width="20" height="30" viewBox="0 0 20 30" fill="none" xmlns="http://www.w3.org/2000/svg">
<g id="label-paired / lg / bank-lg / regular" clip-path="url(#clip0_2362_695)">
<path id="icon" d="M10.3125 5.57812L19.375 10.7344C19.7656 10.9688 19.974 11.3203 20 11.7891C20 12.1276 19.8828 12.4141 19.6484 12.6484C19.4141 12.8828 19.1276 13 18.7891 13H10H1.21094C0.872396 13 0.585938 12.8828 0.351562 12.6484C0.117188 12.4141 0 12.1276 0 11.7891C0.0260417 11.3203 0.234375 10.9688 0.625 10.7344L9.6875 5.57812C9.89583 5.47396 10.1042 5.47396 10.3125 5.57812ZM11.9922 11.75H18.6719L10 6.82812L1.32812 11.75H8.00781C7.8776 11.4635 7.8125 11.151 7.8125 10.8125C7.83854 10.1875 8.04688 9.66667 8.4375 9.25C8.85417 8.85938 9.375 8.65104 10 8.625C10.625 8.65104 11.1458 8.85938 11.5625 9.25C11.9531 9.66667 12.1615 10.1875 12.1875 10.8125C12.1875 11.151 12.1224 11.4635 11.9922 11.75ZM10 9.875C9.42708 9.92708 9.11458 10.2396 9.0625 10.8125C9.11458 11.3854 9.42708 11.6979 10 11.75C10.5729 11.6979 10.8854 11.3854 10.9375 10.8125C10.8854 10.2396 10.5729 9.92708 10 9.875ZM2.5 19.25V14.25H3.75V19.25H6.875V14.25H8.125V19.25H11.875V14.25H13.125V19.25H16.25V14.25H17.5V19.25C17.8906 19.276 18.099 19.4844 18.125 19.875C18.099 20.2656 17.8906 20.474 17.5 20.5H2.5C2.10938 20.474 1.90104 20.2656 1.875 19.875C1.90104 19.4844 2.10938 19.276 2.5 19.25ZM1.5625 21.75H18.4375C18.8281 21.776 19.0365 21.9844 19.0625 22.375C19.0365 22.7656 18.8281 22.974 18.4375 23H1.5625C1.17188 22.974 0.963542 22.7656 0.9375 22.375C0.963542 21.9844 1.17188 21.776 1.5625 21.75ZM0.625 24.25H19.375C19.7656 24.276 19.974 24.4844 20 24.875C19.974 25.2656 19.7656 25.474 19.375 25.5H0.625C0.234375 25.474 0.0260417 25.2656 0 24.875C0.0260417 24.4844 0.234375 24.276 0.625 24.25Z" fill="black" fill-opacity="0.72"/>
</g>
<defs>
<clipPath id="clip0_2362_695">
<rect width="20" height="30" fill="white"/>
</clipPath>
</defs>
</svg>
