<svg width="10" height="24" viewBox="0 0 10 24" fill="none" xmlns="http://www.w3.org/2000/svg">
<g id="label-paired / md / sort-down-md / regular" clip-path="url(#clip0_2556_14800)">
<path id="icon" d="M4.8125 17.9375C4.84375 18 4.90625 18 5 18C5.0625 18 5.125 18 5.15625 17.9375L8.90625 14.4062C8.96875 14.3438 9 14.3125 9 14.25C9 14.125 8.875 14 8.75 14H1.21875C1.09375 14 1 14.125 1 14.25C1 14.3125 1 14.3438 1.0625 14.4062L4.8125 17.9375ZM4.125 18.6875L0.375 15.125C0.125 14.9062 0 14.5625 0 14.25C0 13.5625 0.53125 13 1.21875 13H8.75C9.4375 13 10 13.5625 10 14.25C10 14.5625 9.84375 14.9062 9.59375 15.125L5.84375 18.6875C5.625 18.9062 5.3125 19 5 19C4.65625 19 4.34375 18.9062 4.125 18.6875Z" fill="black" fill-opacity="0.72"/>
</g>
<defs>
<clipPath id="clip0_2556_14800">
<rect width="10" height="24" fill="white"/>
</clipPath>
</defs>
</svg>
