<svg width="23" height="30" viewBox="0 0 23 30" fill="none" xmlns="http://www.w3.org/2000/svg">
<g id="label-paired / lg / rectangle-ad-lg / bold" clip-path="url(#clip0_2556_17124)">
<path id="icon" d="M2.75 8.625C2.39844 8.625 2.125 8.9375 2.125 9.25V21.75C2.125 22.1016 2.39844 22.375 2.75 22.375H20.25C20.5625 22.375 20.875 22.1016 20.875 21.75V9.25C20.875 8.9375 20.5625 8.625 20.25 8.625H2.75ZM0.25 9.25C0.25 7.88281 1.34375 6.75 2.75 6.75H20.25C21.6172 6.75 22.75 7.88281 22.75 9.25V21.75C22.75 23.1562 21.6172 24.25 20.25 24.25H2.75C1.34375 24.25 0.25 23.1562 0.25 21.75V9.25ZM9.19531 12.2969L12.0078 17.9219C12.2422 18.3906 12.0469 18.9375 11.5781 19.1719C11.1484 19.4062 10.5625 19.2109 10.3281 18.7422L10.1328 18.3125H6.57812L6.38281 18.7422C6.14844 19.2109 5.60156 19.4062 5.13281 19.1719C4.66406 18.9375 4.46875 18.3906 4.70312 17.9219L7.51562 12.2969C7.67188 11.9844 7.98438 11.75 8.375 11.75C8.72656 11.75 9.03906 11.9453 9.19531 12.2969ZM8.375 14.7969L7.51562 16.4375H9.19531L8.375 14.7969ZM15.5625 15.5C15.0156 15.5 14.625 15.9297 14.625 16.4375C14.625 16.9844 15.0156 17.375 15.5625 17.375C16.0703 17.375 16.5 16.9844 16.5 16.4375C16.5 15.9297 16.0703 15.5 15.5625 15.5ZM16.5 13.8203V12.6875C16.5 12.1797 16.8906 11.75 17.4375 11.75C17.9453 11.75 18.375 12.1797 18.375 12.6875V16.4375V18.3125C18.375 18.8594 17.9453 19.25 17.4375 19.25C17.1641 19.25 16.9297 19.1719 16.7734 18.9766C16.3828 19.1719 15.9922 19.25 15.5625 19.25C14 19.25 12.75 18 12.75 16.4375C12.75 14.9141 14 13.625 15.5625 13.625C15.875 13.625 16.1875 13.7031 16.5 13.8203Z" fill="black" fill-opacity="0.72"/>
</g>
<defs>
<clipPath id="clip0_2556_17124">
<rect width="23" height="30" fill="white"/>
</clipPath>
</defs>
</svg>
