<svg width="14" height="22" viewBox="0 0 14 22" fill="none" xmlns="http://www.w3.org/2000/svg">
<g id="label-paired / sm / backward-sm / bold" clip-path="url(#clip0_2556_12620)">
<path id="icon" d="M7.875 6.32031V9.05469L12.6875 5.66406C12.8242 5.55469 12.9883 5.5 13.1523 5.5C13.6172 5.5 14 5.88281 14 6.34766V15.1797C14 15.6445 13.6172 16 13.1797 16C12.9883 16 12.8242 15.9727 12.6875 15.8633L7.84766 12.4727V15.1797C7.84766 15.6445 7.49219 16 7.02734 16C6.86328 16 6.69922 15.9453 6.5625 15.8633L0.246094 11.2969C0.0820312 11.1602 0 10.9688 0 10.75C0 10.5586 0.0820312 10.3672 0.246094 10.2305L6.5625 5.66406C6.69922 5.55469 6.86328 5.5 7.05469 5.5C7.49219 5.5 7.875 5.88281 7.875 6.32031ZM7.875 10.6406V10.8867L12.6875 14.25V7.27734L7.875 10.6406ZM1.75 10.75L6.5625 14.2227V7.30469L1.75 10.75Z" fill="black" fill-opacity="0.72"/>
</g>
<defs>
<clipPath id="clip0_2556_12620">
<rect width="14" height="22" fill="white"/>
</clipPath>
</defs>
</svg>
