<svg width="18" height="36" viewBox="0 0 18 36" fill="none" xmlns="http://www.w3.org/2000/svg">
<g id="label-paired / xl / arrow-up-to-line-xl / regular" clip-path="url(#clip0_2556_19649)">
<path id="icon" d="M0.75 7.5H17.25C17.625 7.5 18 7.875 18 8.25C18 8.67188 17.625 9 17.25 9H0.75C0.328125 9 0 8.67188 0 8.25C0 7.875 0.328125 7.5 0.75 7.5ZM9.51562 12.2344L15.5156 18.2344C15.7969 18.5156 15.7969 19.0312 15.5156 19.3125C15.2344 19.5938 14.7188 19.5938 14.4375 19.3125L9.75 14.5781V19.5V27.75C9.75 28.1719 9.375 28.5 9 28.5C8.57812 28.5 8.25 28.1719 8.25 27.75V19.5V14.5781L3.51562 19.3125C3.23438 19.5938 2.71875 19.5938 2.4375 19.3125C2.15625 19.0312 2.15625 18.5156 2.4375 18.2344L8.4375 12.2344C8.71875 11.9531 9.23438 11.9531 9.51562 12.2344Z" fill="black" fill-opacity="0.72"/>
</g>
<defs>
<clipPath id="clip0_2556_19649">
<rect width="18" height="36" fill="white"/>
</clipPath>
</defs>
</svg>
