<svg width="8" height="18" viewBox="0 0 8 18" fill="none" xmlns="http://www.w3.org/2000/svg">
<g id="label-paired / caption / euro-sign-caption / fill" clip-path="url(#clip0_2556_10059)">
<path id="icon" d="M1.375 9.125H1C0.578125 9.125 0.25 8.79688 0.25 8.375C0.25 7.97656 0.578125 7.625 1 7.625H1.65625C2.33594 5.67969 4.23438 4.25 6.4375 4.25H7C7.39844 4.25 7.75 4.60156 7.75 5C7.75 5.42188 7.39844 5.75 7 5.75H6.4375C5.07812 5.75 3.88281 6.52344 3.29688 7.625H6.25C6.64844 7.625 7 7.97656 7 8.375C7 8.79688 6.64844 9.125 6.25 9.125H2.875C2.875 9.19531 2.875 9.26562 2.875 9.3125V9.6875C2.875 9.75781 2.875 9.82812 2.875 9.875H6.25C6.64844 9.875 7 10.2266 7 10.625C7 11.0469 6.64844 11.375 6.25 11.375H3.29688C3.88281 12.5 5.07812 13.25 6.4375 13.25H7C7.39844 13.25 7.75 13.6016 7.75 14C7.75 14.4219 7.39844 14.75 7 14.75H6.4375C4.23438 14.75 2.33594 13.3438 1.65625 11.375H1C0.578125 11.375 0.25 11.0469 0.25 10.625C0.25 10.2266 0.578125 9.875 1 9.875H1.375C1.375 9.82812 1.375 9.75781 1.375 9.6875V9.3125C1.375 9.26562 1.375 9.19531 1.375 9.125Z" fill="black" fill-opacity="0.72"/>
</g>
<defs>
<clipPath id="clip0_2556_10059">
<rect width="8" height="18" fill="white"/>
</clipPath>
</defs>
</svg>
