<svg width="14" height="22" viewBox="0 0 14 22" fill="none" xmlns="http://www.w3.org/2000/svg">
<g id="label-paired / sm / circle-info-sm / fill" clip-path="url(#clip0_2556_12347)">
<path id="icon" d="M7 17.75C4.48438 17.75 2.1875 16.4375 0.929688 14.25C-0.328125 12.0898 -0.328125 9.4375 0.929688 7.25C2.1875 5.08984 4.48438 3.75 7 3.75C9.48828 3.75 11.7852 5.08984 13.043 7.25C14.3008 9.4375 14.3008 12.0898 13.043 14.25C11.7852 16.4375 9.48828 17.75 7 17.75ZM5.90625 12.9375C5.52344 12.9375 5.25 13.2383 5.25 13.5938C5.25 13.9766 5.52344 14.25 5.90625 14.25H8.09375C8.44922 14.25 8.75 13.9766 8.75 13.5938C8.75 13.2383 8.44922 12.9375 8.09375 12.9375H7.875V10.5312C7.875 10.1758 7.57422 9.875 7.21875 9.875H5.90625C5.52344 9.875 5.25 10.1758 5.25 10.5312C5.25 10.9141 5.52344 11.1875 5.90625 11.1875H6.5625V12.9375H5.90625ZM7 7.25C6.50781 7.25 6.125 7.66016 6.125 8.125C6.125 8.61719 6.50781 9 7 9C7.46484 9 7.875 8.61719 7.875 8.125C7.875 7.66016 7.46484 7.25 7 7.25Z" fill="black" fill-opacity="0.72"/>
</g>
<defs>
<clipPath id="clip0_2556_12347">
<rect width="14" height="22" fill="white"/>
</clipPath>
</defs>
</svg>
