<svg width="24" height="36" viewBox="0 0 24 36" fill="none" xmlns="http://www.w3.org/2000/svg">
<g id="label-paired / xl / sliders-xl / fill" clip-path="url(#clip0_3758_530)">
<path id="icon" d="M0 25.5C0 24.7031 0.65625 24 1.5 24H4.03125C4.64062 22.6875 5.95312 21.75 7.5 21.75C9 21.75 10.3594 22.6875 10.9219 24H22.5C23.2969 24 24 24.7031 24 25.5C24 26.3438 23.2969 27 22.5 27H10.9219C10.3594 28.3594 9 29.25 7.5 29.25C5.95312 29.25 4.64062 28.3594 4.03125 27H1.5C0.65625 27 0 26.3438 0 25.5ZM6 25.5C6 26.3438 6.65625 27 7.5 27C8.29688 27 9 26.3438 9 25.5C9 24.7031 8.29688 24 7.5 24C6.65625 24 6 24.7031 6 25.5ZM15 18C15 18.8438 15.6562 19.5 16.5 19.5C17.2969 19.5 18 18.8438 18 18C18 17.2031 17.2969 16.5 16.5 16.5C15.6562 16.5 15 17.2031 15 18ZM16.5 14.25C18 14.25 19.3594 15.1875 19.9219 16.5H22.5C23.2969 16.5 24 17.2031 24 18C24 18.8438 23.2969 19.5 22.5 19.5H19.9219C19.3594 20.8594 18 21.75 16.5 21.75C14.9531 21.75 13.6406 20.8594 13.0312 19.5H1.5C0.65625 19.5 0 18.8438 0 18C0 17.2031 0.65625 16.5 1.5 16.5H13.0312C13.6406 15.1875 14.9531 14.25 16.5 14.25ZM9 12C9.79688 12 10.5 11.3438 10.5 10.5C10.5 9.70312 9.79688 9 9 9C8.15625 9 7.5 9.70312 7.5 10.5C7.5 11.3438 8.15625 12 9 12ZM12.4219 9H22.5C23.2969 9 24 9.70312 24 10.5C24 11.3438 23.2969 12 22.5 12H12.4219C11.8594 13.3594 10.5 14.25 9 14.25C7.45312 14.25 6.14062 13.3594 5.53125 12H1.5C0.65625 12 0 11.3438 0 10.5C0 9.70312 0.65625 9 1.5 9H5.53125C6.14062 7.6875 7.45312 6.75 9 6.75C10.5 6.75 11.8594 7.6875 12.4219 9Z" fill="black" fill-opacity="0.72"/>
</g>
<defs>
<clipPath id="clip0_3758_530">
<rect width="24" height="36" fill="white"/>
</clipPath>
</defs>
</svg>
