<svg width="27" height="36" viewBox="0 0 27 36" fill="none" xmlns="http://www.w3.org/2000/svg">
<g id="label-paired / xl / house-blank-xl / bold" clip-path="url(#clip0_2556_19379)">
<path id="icon" d="M14.2031 6.28125L26.5781 16.7812C27.0469 17.2031 27.0938 17.9062 26.7188 18.375C26.2969 18.8438 25.5938 18.8906 25.125 18.5156L24 17.5312V26.25C24 28.3594 22.3125 30 20.25 30H6.75C4.64062 30 3 28.3594 3 26.25V17.5312L1.82812 18.5156C1.35938 18.8906 0.65625 18.8438 0.234375 18.375C-0.140625 17.9062 -0.09375 17.2031 0.375 16.7812L12.75 6.28125C13.1719 5.95312 13.7812 5.95312 14.2031 6.28125ZM21.75 15.6094L13.5 8.625L5.25 15.6094V26.25C5.25 27.0938 5.90625 27.75 6.75 27.75H20.25C21.0469 27.75 21.75 27.0938 21.75 26.25V15.6094Z" fill="black" fill-opacity="0.72"/>
</g>
<defs>
<clipPath id="clip0_2556_19379">
<rect width="27" height="36" fill="white"/>
</clipPath>
</defs>
</svg>
