<svg width="18" height="30" viewBox="0 0 18 30" fill="none" xmlns="http://www.w3.org/2000/svg">
<g id="label-paired / lg / paperclip-lg / regular" clip-path="url(#clip0_2981_822)">
<path id="icon" d="M15.0938 8.15625C13.9609 7.02344 12.125 7.02344 10.9922 8.15625L3.49219 15.6562C1.65625 17.4922 1.65625 20.4219 3.49219 22.2578C5.32812 24.0938 8.25781 24.0938 10.0938 22.2578L16.0312 16.3203C16.2656 16.0859 16.6953 16.0859 16.9297 16.3203C17.1641 16.5547 17.1641 16.9844 16.9297 17.2188L10.9922 23.1562C8.6875 25.4609 4.89844 25.4609 2.59375 23.1562C0.289062 20.8125 0.289062 17.0625 2.59375 14.7578L10.0938 7.25781C11.7344 5.65625 14.3516 5.65625 15.9922 7.25781C17.5938 8.89844 17.5938 11.5156 15.9922 13.1562L8.80469 20.3438C7.71094 21.4375 5.875 21.3203 4.89844 20.1094C4.07812 19.0547 4.15625 17.5703 5.09375 16.6328L11.0312 10.6953C11.2656 10.4609 11.6953 10.4609 11.9297 10.6953C12.1641 10.9297 12.1641 11.3594 11.9297 11.5938L5.99219 17.5312C5.48438 18 5.44531 18.7812 5.875 19.3281C6.38281 19.9531 7.35938 20.0312 7.90625 19.4453L15.0938 12.2578C16.2266 11.125 16.2266 9.28906 15.0938 8.15625Z" fill="black" fill-opacity="0.72"/>
</g>
<defs>
<clipPath id="clip0_2981_822">
<rect width="18" height="30" fill="white"/>
</clipPath>
</defs>
</svg>
