<svg width="20" height="30" viewBox="0 0 20 30" fill="none" xmlns="http://www.w3.org/2000/svg">
<g id="label-paired / lg / fingerprint-lg / fill" clip-path="url(#clip0_2512_1109)">
<path id="icon" d="M1.875 15.5V17.0625C1.82292 17.6354 1.51042 17.9479 0.9375 18C0.364583 17.9479 0.0520833 17.6354 0 17.0625V15.5C0.0260417 13.625 0.481771 11.9453 1.36719 10.4609C2.2526 8.95052 3.45052 7.7526 4.96094 6.86719C6.44531 5.98177 8.125 5.52604 10 5.5C11.5365 5.5 12.9557 5.8125 14.2578 6.4375C15.5599 7.0625 16.6667 7.90885 17.5781 8.97656C17.9167 9.44531 17.8906 9.88802 17.5 10.3047C17.0312 10.6432 16.5885 10.6172 16.1719 10.2266C15.4167 9.34115 14.5052 8.65104 13.4375 8.15625C12.3958 7.63542 11.25 7.375 10 7.375C7.70833 7.42708 5.79427 8.22135 4.25781 9.75781C2.72135 11.2943 1.92708 13.2083 1.875 15.5ZM19.8047 13.4297C19.9349 14.1068 20 14.7969 20 15.5V17.0625C19.9479 17.6354 19.6354 17.9479 19.0625 18C18.4896 17.9479 18.1771 17.6354 18.125 17.0625V15.5C18.125 14.9271 18.0729 14.3672 17.9688 13.8203C17.8906 13.2474 18.125 12.8828 18.6719 12.7266C19.2448 12.6484 19.6224 12.8828 19.8047 13.4297ZM10 8.625C11.9531 8.67708 13.5807 9.35417 14.8828 10.6562C16.1589 11.9323 16.8229 13.5469 16.875 15.5V16.4766C16.875 17.5703 16.8099 18.651 16.6797 19.7188C16.5755 20.2135 16.276 20.474 15.7812 20.5C15.4688 20.5 15.2344 20.3958 15.0781 20.1875C14.8958 19.9792 14.8177 19.7188 14.8438 19.4062C14.9479 18.4427 15 17.4661 15 16.4766V15.5C14.974 14.0938 14.4922 12.9089 13.5547 11.9453C12.5911 11.0078 11.4062 10.526 10 10.5C9.55729 10.5 9.1276 10.5521 8.71094 10.6562C8.24219 10.7865 7.85156 10.6953 7.53906 10.3828C7.33073 10.1224 7.26562 9.84896 7.34375 9.5625C7.39583 9.27604 7.57812 9.08073 7.89062 8.97656C8.54167 8.74219 9.24479 8.625 10 8.625ZM5.89844 11.3203C6.1849 11.737 6.1849 12.1797 5.89844 12.6484C5.32552 13.4818 5.02604 14.4323 5 15.5V16.4766C5 17.5964 4.86979 18.7161 4.60938 19.8359C4.47917 20.2526 4.19271 20.474 3.75 20.5C3.4375 20.5 3.1901 20.3698 3.00781 20.1094C2.82552 19.875 2.76042 19.6016 2.8125 19.2891C3.02083 18.3516 3.125 17.4141 3.125 16.4766V15.5C3.15104 13.8854 3.63281 12.4792 4.57031 11.2812C4.7526 11.0729 4.97396 10.9688 5.23438 10.9688C5.46875 10.9948 5.6901 11.112 5.89844 11.3203ZM10 11.75C11.0677 11.776 11.9531 12.1406 12.6562 12.8438C13.3594 13.5469 13.724 14.4323 13.75 15.5V16.4766C13.75 18.0391 13.5938 19.5755 13.2812 21.0859C13.1771 21.5026 12.9036 21.724 12.4609 21.75C12.2005 21.75 11.9792 21.6458 11.7969 21.4375C11.6406 21.2292 11.5885 20.9818 11.6406 20.6953C11.901 19.2891 12.0312 17.8828 12.0312 16.4766V15.5C12.0052 14.9271 11.8099 14.4453 11.4453 14.0547C11.0547 13.6901 10.5729 13.4948 10 13.4688C9.42708 13.4948 8.94531 13.6901 8.55469 14.0547C8.1901 14.4453 7.99479 14.9271 7.96875 15.5V16.4766C7.96875 18.0651 7.76042 19.6276 7.34375 21.1641C7.21354 21.5286 6.95312 21.724 6.5625 21.75C6.25 21.75 6.01562 21.6328 5.85938 21.3984C5.70312 21.1641 5.65104 20.9036 5.70312 20.6172C6.06771 19.263 6.25 17.8828 6.25 16.4766V15.5C6.27604 14.4323 6.64062 13.5469 7.34375 12.8438C8.04688 12.1406 8.93229 11.776 10 11.75ZM10.9375 15.5V16.4766C10.9375 19.0547 10.4688 21.5547 9.53125 23.9766L9.29688 24.6016C9.0625 25.0964 8.65885 25.2656 8.08594 25.1094C7.59115 24.875 7.42188 24.4714 7.57812 23.8984L7.8125 23.3125C8.64583 21.125 9.0625 18.8464 9.0625 16.4766V15.5C9.11458 14.9271 9.42708 14.6146 10 14.5625C10.5729 14.6146 10.8854 14.9271 10.9375 15.5Z" fill="black" fill-opacity="0.72"/>
</g>
<defs>
<clipPath id="clip0_2512_1109">
<rect width="20" height="30" fill="white"/>
</clipPath>
</defs>
</svg>
