<svg width="13" height="22" viewBox="0 0 13 22" fill="none" xmlns="http://www.w3.org/2000/svg">
<g id="label-paired / sm / qrcode-sm / bold" clip-path="url(#clip0_2556_12301)">
<path id="icon" d="M4.3125 5.9375H1.6875V8.5625H4.3125V5.9375ZM1.6875 4.625H4.3125C5.02344 4.625 5.625 5.22656 5.625 5.9375V8.5625C5.625 9.30078 5.02344 9.875 4.3125 9.875H1.6875C0.949219 9.875 0.375 9.30078 0.375 8.5625V5.9375C0.375 5.22656 0.949219 4.625 1.6875 4.625ZM4.3125 12.9375H1.6875V15.5625H4.3125V12.9375ZM1.6875 11.625H4.3125C5.02344 11.625 5.625 12.2266 5.625 12.9375V15.5625C5.625 16.3008 5.02344 16.875 4.3125 16.875H1.6875C0.949219 16.875 0.375 16.3008 0.375 15.5625V12.9375C0.375 12.2266 0.949219 11.625 1.6875 11.625ZM8.6875 5.9375V8.5625H11.3125V5.9375H8.6875ZM7.375 5.9375C7.375 5.22656 7.94922 4.625 8.6875 4.625H11.3125C12.0234 4.625 12.625 5.22656 12.625 5.9375V8.5625C12.625 9.30078 12.0234 9.875 11.3125 9.875H8.6875C7.94922 9.875 7.375 9.30078 7.375 8.5625V5.9375ZM2.34375 7.03125C2.34375 6.8125 2.53516 6.59375 2.78125 6.59375H3.21875C3.4375 6.59375 3.65625 6.8125 3.65625 7.03125V7.46875C3.65625 7.71484 3.4375 7.90625 3.21875 7.90625H2.78125C2.53516 7.90625 2.34375 7.71484 2.34375 7.46875V7.03125ZM2.78125 13.5938H3.21875C3.4375 13.5938 3.65625 13.8125 3.65625 14.0312V14.4688C3.65625 14.7148 3.4375 14.9062 3.21875 14.9062H2.78125C2.53516 14.9062 2.34375 14.7148 2.34375 14.4688V14.0312C2.34375 13.8125 2.53516 13.5938 2.78125 13.5938ZM9.34375 7.03125C9.34375 6.8125 9.53516 6.59375 9.78125 6.59375H10.2188C10.4375 6.59375 10.6562 6.8125 10.6562 7.03125V7.46875C10.6562 7.71484 10.4375 7.90625 10.2188 7.90625H9.78125C9.53516 7.90625 9.34375 7.71484 9.34375 7.46875V7.03125ZM7.375 12.0625C7.375 11.8438 7.56641 11.625 7.8125 11.625H9.5625C9.78125 11.625 10 11.8438 10 12.0625C10 12.3086 10.1914 12.5 10.4375 12.5H11.3125C11.5312 12.5 11.75 12.3086 11.75 12.0625C11.75 11.8438 11.9414 11.625 12.1875 11.625C12.4062 11.625 12.625 11.8438 12.625 12.0625V14.6875C12.625 14.9336 12.4062 15.125 12.1875 15.125H10.4375C10.1914 15.125 10 14.9336 10 14.6875C10 14.4688 9.78125 14.25 9.5625 14.25C9.31641 14.25 9.125 14.4688 9.125 14.6875V16.4375C9.125 16.6836 8.90625 16.875 8.6875 16.875H7.8125C7.56641 16.875 7.375 16.6836 7.375 16.4375V12.0625ZM10.4375 16C10.6562 16 10.875 16.2188 10.875 16.4375C10.875 16.6836 10.6562 16.875 10.4375 16.875C10.1914 16.875 10 16.6836 10 16.4375C10 16.2188 10.1914 16 10.4375 16ZM12.1875 16C12.4062 16 12.625 16.2188 12.625 16.4375C12.625 16.6836 12.4062 16.875 12.1875 16.875C11.9414 16.875 11.75 16.6836 11.75 16.4375C11.75 16.2188 11.9414 16 12.1875 16Z" fill="black" fill-opacity="0.72"/>
</g>
<defs>
<clipPath id="clip0_2556_12301">
<rect width="13" height="22" fill="white"/>
</clipPath>
</defs>
</svg>
