<svg width="20" height="30" viewBox="0 0 20 30" fill="none" xmlns="http://www.w3.org/2000/svg">
<g id="label-paired / lg / face-viewfinder-lg / bold" clip-path="url(#clip0_2556_17137)">
<path id="icon" d="M0 7.6875C0 6.51562 0.976562 5.5 2.1875 5.5H5.3125C5.82031 5.5 6.25 5.92969 6.25 6.4375C6.25 6.98438 5.82031 7.375 5.3125 7.375H2.1875C1.99219 7.375 1.875 7.53125 1.875 7.6875V10.8125C1.875 11.3594 1.44531 11.75 0.9375 11.75C0.390625 11.75 0 11.3594 0 10.8125V7.6875ZM13.75 6.4375C13.75 5.92969 14.1406 5.5 14.6875 5.5H17.8125C18.9844 5.5 20 6.51562 20 7.6875V10.8125C20 11.3594 19.5703 11.75 19.0625 11.75C18.5156 11.75 18.125 11.3594 18.125 10.8125V7.6875C18.125 7.53125 17.9688 7.375 17.8125 7.375H14.6875C14.1406 7.375 13.75 6.98438 13.75 6.4375ZM0.9375 19.25C1.44531 19.25 1.875 19.6797 1.875 20.1875V23.3125C1.875 23.5078 1.99219 23.625 2.1875 23.625H5.3125C5.82031 23.625 6.25 24.0547 6.25 24.5625C6.25 25.1094 5.82031 25.5 5.3125 25.5H2.1875C0.976562 25.5 0 24.5234 0 23.3125V20.1875C0 19.6797 0.390625 19.25 0.9375 19.25ZM19.0625 19.25C19.5703 19.25 20 19.6797 20 20.1875V23.3125C20 24.5234 18.9844 25.5 17.8125 25.5H14.6875C14.1406 25.5 13.75 25.1094 13.75 24.5625C13.75 24.0547 14.1406 23.625 14.6875 23.625H17.8125C17.9688 23.625 18.125 23.5078 18.125 23.3125V20.1875C18.125 19.6797 18.5156 19.25 19.0625 19.25ZM9.375 13.9375C9.375 14.4844 8.94531 14.875 8.4375 14.875C7.89062 14.875 7.5 14.4844 7.5 13.9375C7.5 13.4297 7.89062 13 8.4375 13C8.94531 13 9.375 13.4297 9.375 13.9375ZM11.5625 14.875C11.0156 14.875 10.625 14.4844 10.625 13.9375C10.625 13.4297 11.0156 13 11.5625 13C12.0703 13 12.5 13.4297 12.5 13.9375C12.5 14.4844 12.0703 14.875 11.5625 14.875ZM10 11.125C8.39844 11.125 6.99219 11.9844 6.21094 13.3125C5.39062 14.6797 5.39062 16.3594 6.21094 17.6875C6.99219 19.0547 8.39844 19.875 10 19.875C11.5625 19.875 12.9688 19.0547 13.75 17.6875C14.5703 16.3594 14.5703 14.6797 13.75 13.3125C12.9688 11.9844 11.5625 11.125 10 11.125ZM10 21.75C7.73438 21.75 5.70312 20.5781 4.57031 18.625C3.4375 16.7109 3.4375 14.3281 4.57031 12.375C5.70312 10.4609 7.73438 9.25 10 9.25C12.2266 9.25 14.2578 10.4609 15.3906 12.375C16.5234 14.3281 16.5234 16.7109 15.3906 18.625C14.2578 20.5781 12.2266 21.75 10 21.75ZM8.35938 16.4375C8.67188 17.0234 9.29688 17.375 10 17.375C10.6641 17.375 11.2891 17.0234 11.6016 16.4375C11.7969 16.1641 12.1484 16.0469 12.4609 16.2422C12.7734 16.3984 12.8516 16.7891 12.6953 17.1016C12.1484 18 11.1328 18.6641 10 18.6641C8.82812 18.6641 7.8125 18 7.26562 17.1016C7.10938 16.7891 7.1875 16.3984 7.5 16.2422C7.8125 16.0469 8.20312 16.1641 8.35938 16.4375Z" fill="black" fill-opacity="0.72"/>
</g>
<defs>
<clipPath id="clip0_2556_17137">
<rect width="20" height="30" fill="white"/>
</clipPath>
</defs>
</svg>
