<svg width="18" height="24" viewBox="0 0 18 24" fill="none" xmlns="http://www.w3.org/2000/svg">
<g id="label-paired / md / file-shield-md / regular" clip-path="url(#clip0_2556_14670)">
<path id="icon" d="M10 19C10.0312 19 10.0625 19 10.0938 19C10.3438 19.2812 10.625 19.5312 10.9375 19.7812C10.6562 19.9375 10.3125 20.0312 10 20.0312H2C0.875 20.0312 0 19.125 0 18.0312V6C0 4.90625 0.875 4 2 4H6.875C7.25 4 7.65625 4.1875 7.9375 4.46875L11.5312 8.0625C11.8125 8.34375 12 8.75 12 9.125V10.4688L11 10.875V10H7.5C6.65625 10 6 9.34375 6 8.5V5H2C1.4375 5 1 5.46875 1 6V18C1 18.5625 1.4375 19 2 19H10ZM10.9688 9C10.9375 8.9375 10.9062 8.84375 10.8438 8.78125L7.21875 5.15625C7.15625 5.09375 7.0625 5.0625 7 5.03125V8.5C7 8.78125 7.21875 9 7.5 9H10.9688ZM10 13.4375C10.0312 15.0938 10.6875 17.4688 13 18.75V12.2188L10 13.4375ZM17 13.4375L14 12.2188V18.75C16.2812 17.4688 16.9375 15.0938 16.9688 13.4375H17ZM13.7812 11.0625L17.5312 12.5625C17.8125 12.6875 18 12.9688 18 13.25C18 15.25 17.1875 18.5312 13.7812 19.9688C13.5938 20.0312 13.375 20.0312 13.1875 19.9688C9.78125 18.5312 9 15.25 9 13.25C9 12.9688 9.1875 12.6875 9.46875 12.5625L13.2188 11.0625C13.375 11 13.5938 11 13.75 11.0625H13.7812Z" fill="black" fill-opacity="0.72"/>
</g>
<defs>
<clipPath id="clip0_2556_14670">
<rect width="18" height="24" fill="white"/>
</clipPath>
</defs>
</svg>
