<svg width="18" height="30" viewBox="0 0 18 30" fill="none" xmlns="http://www.w3.org/2000/svg">
<g id="label-paired / lg / instagram-lg" clip-path="url(#clip0_2556_16891)">
<path id="icon" d="M9 11.0078C11.4609 11.0078 13.4922 13.0391 13.4922 15.5C13.4922 18 11.4609 19.9922 9 19.9922C6.5 19.9922 4.50781 18 4.50781 15.5C4.50781 13.0391 6.5 11.0078 9 11.0078ZM9 18.4297C10.6016 18.4297 11.8906 17.1406 11.8906 15.5C11.8906 13.8984 10.6016 12.6094 9 12.6094C7.35938 12.6094 6.07031 13.8984 6.07031 15.5C6.07031 17.1406 7.39844 18.4297 9 18.4297ZM14.7031 10.8516C14.7031 10.2656 14.2344 9.79688 13.6484 9.79688C13.0625 9.79688 12.5938 10.2656 12.5938 10.8516C12.5938 11.4375 13.0625 11.9062 13.6484 11.9062C14.2344 11.9062 14.7031 11.4375 14.7031 10.8516ZM17.6719 11.9062C17.75 13.3516 17.75 17.6875 17.6719 19.1328C17.5938 20.5391 17.2812 21.75 16.2656 22.8047C15.25 23.8203 14 24.1328 12.5938 24.2109C11.1484 24.2891 6.8125 24.2891 5.36719 24.2109C3.96094 24.1328 2.75 23.8203 1.69531 22.8047C0.679688 21.75 0.367188 20.5391 0.289062 19.1328C0.210938 17.6875 0.210938 13.3516 0.289062 11.9062C0.367188 10.5 0.679688 9.25 1.69531 8.23438C2.75 7.21875 3.96094 6.90625 5.36719 6.82812C6.8125 6.75 11.1484 6.75 12.5938 6.82812C14 6.90625 15.25 7.21875 16.2656 8.23438C17.2812 9.25 17.5938 10.5 17.6719 11.9062ZM15.7969 20.6562C16.2656 19.5234 16.1484 16.7891 16.1484 15.5C16.1484 14.25 16.2656 11.5156 15.7969 10.3438C15.4844 9.60156 14.8984 8.97656 14.1562 8.70312C12.9844 8.23438 10.25 8.35156 9 8.35156C7.71094 8.35156 4.97656 8.23438 3.84375 8.70312C3.0625 9.01562 2.47656 9.60156 2.16406 10.3438C1.69531 11.5156 1.8125 14.25 1.8125 15.5C1.8125 16.7891 1.69531 19.5234 2.16406 20.6562C2.47656 21.4375 3.0625 22.0234 3.84375 22.3359C4.97656 22.8047 7.71094 22.6875 9 22.6875C10.25 22.6875 12.9844 22.8047 14.1562 22.3359C14.8984 22.0234 15.5234 21.4375 15.7969 20.6562Z" fill="black" fill-opacity="0.72"/>
</g>
<defs>
<clipPath id="clip0_2556_16891">
<rect width="18" height="30" fill="white"/>
</clipPath>
</defs>
</svg>
