<svg width="15" height="30" viewBox="0 0 15 30" fill="none" xmlns="http://www.w3.org/2000/svg">
<g id="label-paired / lg / mobile-screen-button-lg / bold" clip-path="url(#clip0_2556_17096)">
<path id="icon" d="M2.5 23C2.5 23.3516 2.77344 23.625 3.125 23.625H11.875C12.1875 23.625 12.5 23.3516 12.5 23V19.875H2.5V23ZM2.5 18H12.5V8C12.5 7.6875 12.1875 7.375 11.875 7.375H3.125C2.77344 7.375 2.5 7.6875 2.5 8V18ZM0.625 8C0.625 6.63281 1.71875 5.5 3.125 5.5H11.875C13.2422 5.5 14.375 6.63281 14.375 8V23C14.375 24.4062 13.2422 25.5 11.875 25.5H3.125C1.71875 25.5 0.625 24.4062 0.625 23V8ZM6.25 21.125H8.75C9.0625 21.125 9.375 21.4375 9.375 21.75C9.375 22.1016 9.0625 22.375 8.75 22.375H6.25C5.89844 22.375 5.625 22.1016 5.625 21.75C5.625 21.4375 5.89844 21.125 6.25 21.125Z" fill="black" fill-opacity="0.72"/>
</g>
<defs>
<clipPath id="clip0_2556_17096">
<rect width="15" height="30" fill="white"/>
</clipPath>
</defs>
</svg>
