<svg width="15" height="18" viewBox="0 0 15 18" fill="none" xmlns="http://www.w3.org/2000/svg">
<g id="label-paired / caption / handshake-caption / regular" clip-path="url(#clip0_4513_671)">
<path id="icon" d="M6.16406 5H6.375L5.55469 5.84375C5.15625 5.9375 4.80469 6.125 4.47656 6.38281L3.53906 7.17969C3.49219 7.22656 3.42188 7.25 3.375 7.25V6.33594L4.00781 5.79688C4.61719 5.28125 5.39062 5 6.16406 5ZM2.625 11.7734V12.125C2.625 12.7578 2.10938 13.25 1.5 13.25H1.125C0.492188 13.25 0 12.7578 0 12.125V7.25C0 6.85156 0.328125 6.5 0.75 6.5H1.875H2.625V7.25V11.0234C3 11.0469 3.375 11.2109 3.63281 11.4922L4.35938 12.1953V12.1719L5.29688 13.1094C5.60156 13.4141 6.09375 13.4375 6.42188 13.1328C6.49219 13.0859 6.5625 12.9922 6.60938 12.9219C6.65625 12.8047 6.77344 12.7344 6.89062 12.7109C7.00781 12.6875 7.125 12.7344 7.19531 12.8281L7.38281 13.0156C7.6875 13.3203 8.20312 13.2969 8.48438 12.9688C8.625 12.8281 8.69531 12.6406 8.67188 12.4531C8.67188 12.3125 8.74219 12.1719 8.85938 12.1016C9 12.0312 9.14062 12.0312 9.25781 12.1016C9.53906 12.2891 9.91406 12.2656 10.1719 12.0312C10.4766 11.75 10.5 11.2578 10.1953 10.9531L8.15625 8.91406L7.125 9.875C6.53906 10.4375 5.625 10.4375 5.01562 9.89844C4.33594 9.28906 4.3125 8.21094 4.96875 7.57812L6.84375 5.82031C7.40625 5.30469 8.13281 5 8.90625 5C9.60938 5 10.2891 5.25781 10.8281 5.72656L11.6016 6.35938V7.25C11.5312 7.25 11.4609 7.22656 11.4141 7.17969L10.3594 6.28906C9.96094 5.9375 9.44531 5.75 8.90625 5.75C8.32031 5.75 7.78125 5.98438 7.35938 6.38281L5.48438 8.14062C5.15625 8.46875 5.15625 9.03125 5.50781 9.33594C5.83594 9.61719 6.30469 9.61719 6.60938 9.33594L8.39062 7.69531C8.55469 7.55469 8.78906 7.55469 8.92969 7.71875C9.07031 7.85938 9.07031 8.09375 8.90625 8.23438L8.71875 8.42188L10.7344 10.4141C10.8984 10.5781 11.0156 10.7891 11.0859 10.9766H12.375V7.27344V6.52344H13.125H14.25C14.6484 6.52344 15 6.85156 15 7.27344V12.1484C15 12.7578 14.4844 13.2734 13.875 13.2734H13.5C12.8672 13.2734 12.375 12.7578 12.375 12.1484V11.7266H11.1328C11.0859 12.0547 10.9219 12.3594 10.6641 12.5938C10.2891 12.9219 9.79688 13.0391 9.35156 12.9453C9.28125 13.1328 9.1875 13.3203 9.04688 13.4844C8.50781 14.0938 7.59375 14.1406 6.98438 13.6484C6.96094 13.6719 6.9375 13.6953 6.91406 13.6953C6.30469 14.2578 5.36719 14.2344 4.78125 13.6484L4.19531 13.0625L3.11719 12.0312C2.97656 11.8906 2.8125 11.7969 2.625 11.7734ZM1.875 7.25H0.75V12.125C0.75 12.3359 0.914062 12.5 1.125 12.5H1.5C1.6875 12.5 1.875 12.3359 1.875 12.125V7.25ZM14.25 7.25H13.125V12.125C13.125 12.3359 13.2891 12.5 13.5 12.5H13.875C14.0625 12.5 14.25 12.3359 14.25 12.125V7.25Z" fill="black" fill-opacity="0.72"/>
</g>
<defs>
<clipPath id="clip0_4513_671">
<rect width="15" height="18" fill="white"/>
</clipPath>
</defs>
</svg>
