<svg width="20" height="30" viewBox="0 0 20 30" fill="none" xmlns="http://www.w3.org/2000/svg">
<g id="label-paired / lg / location-crosshairs-lg / bold" clip-path="url(#clip0_2556_17199)">
<path id="icon" d="M10 5.5C10.5078 5.5 10.9375 5.92969 10.9375 6.4375V8.07812C14.2969 8.50781 16.9922 11.2031 17.4219 14.5625H19.0625C19.5703 14.5625 20 14.9922 20 15.5C20 16.0469 19.5703 16.4375 19.0625 16.4375H17.4219C16.9922 19.8359 14.2969 22.5312 10.9375 22.9609V24.5625C10.9375 25.1094 10.5078 25.5 10 25.5C9.45312 25.5 9.0625 25.1094 9.0625 24.5625V22.9609C5.66406 22.5312 2.96875 19.8359 2.53906 16.4375H0.9375C0.390625 16.4375 0 16.0469 0 15.5C0 14.9922 0.390625 14.5625 0.9375 14.5625H2.53906C2.96875 11.2031 5.66406 8.50781 9.0625 8.07812V6.4375C9.0625 5.92969 9.45312 5.5 10 5.5ZM4.375 15.5C4.375 17.5312 5.42969 19.3672 7.1875 20.3828C8.90625 21.3984 11.0547 21.3984 12.8125 20.3828C14.5312 19.3672 15.625 17.5312 15.625 15.5C15.625 13.5078 14.5312 11.6719 12.8125 10.6562C11.0547 9.64062 8.90625 9.64062 7.1875 10.6562C5.42969 11.6719 4.375 13.5078 4.375 15.5ZM11.875 15.5C11.875 14.8359 11.4844 14.25 10.9375 13.8984C10.3516 13.5469 9.60938 13.5469 9.0625 13.8984C8.47656 14.25 8.125 14.8359 8.125 15.5C8.125 16.2031 8.47656 16.7891 9.0625 17.1406C9.60938 17.4922 10.3516 17.4922 10.9375 17.1406C11.4844 16.7891 11.875 16.2031 11.875 15.5ZM6.25 15.5C6.25 14.1719 6.95312 12.9609 8.125 12.2578C9.25781 11.5938 10.7031 11.5938 11.875 12.2578C13.0078 12.9609 13.75 14.1719 13.75 15.5C13.75 16.8672 13.0078 18.0781 11.875 18.7812C10.7031 19.4453 9.25781 19.4453 8.125 18.7812C6.95312 18.0781 6.25 16.8672 6.25 15.5Z" fill="black" fill-opacity="0.72"/>
</g>
<defs>
<clipPath id="clip0_2556_17199">
<rect width="20" height="30" fill="white"/>
</clipPath>
</defs>
</svg>
