<svg width="15" height="36" viewBox="0 0 15 36" fill="none" xmlns="http://www.w3.org/2000/svg">
<g id="label-paired / xl / euro-sign-xl / regular" clip-path="url(#clip0_2556_19835)">
<path id="icon" d="M1.59375 16.5H0.75C0.328125 16.5 0 16.1719 0 15.75C0 15.375 0.328125 15 0.75 15H1.92188C3.1875 10.6875 7.21875 7.5 12 7.5H14.2969C14.6719 7.5 15.0469 7.875 15.0469 8.25C15.0469 8.67188 14.6719 9 14.2969 9H12C8.0625 9 4.73438 11.5312 3.46875 15H12.75C13.125 15 13.5 15.375 13.5 15.75C13.5 16.1719 13.125 16.5 12.75 16.5H3.09375C3 17.0156 3 17.5312 3 18C3 18.5156 3.04688 19.0312 3.09375 19.5H12.75C13.125 19.5 13.5 19.875 13.5 20.25C13.5 20.6719 13.125 21 12.75 21H3.46875C4.73438 24.5156 8.0625 27 12 27H14.2969C14.6719 27 15.0469 27.375 15.0469 27.75C15.0469 28.1719 14.6719 28.5 14.2969 28.5H12C7.21875 28.5 3.1875 25.3594 1.92188 21H0.75C0.328125 21 0 20.6719 0 20.25C0 19.875 0.328125 19.5 0.75 19.5H1.59375C1.5 19.0312 1.5 18.5156 1.5 18C1.5 17.5312 1.5 17.0156 1.59375 16.5Z" fill="black" fill-opacity="0.72"/>
</g>
<defs>
<clipPath id="clip0_2556_19835">
<rect width="15" height="36" fill="white"/>
</clipPath>
</defs>
</svg>
