<svg width="16" height="24" viewBox="0 0 16 24" fill="none" xmlns="http://www.w3.org/2000/svg">
<g id="label-paired / md / sun-bright-md / regular" clip-path="url(#clip0_2556_15040)">
<path id="icon" d="M8 4C8.25 4 8.5 4.25 8.5 4.5V7C8.5 7.28125 8.25 7.5 8 7.5C7.71875 7.5 7.5 7.28125 7.5 7V4.5C7.5 4.25 7.71875 4 8 4ZM0 12C0 11.75 0.21875 11.5 0.5 11.5H3C3.25 11.5 3.5 11.75 3.5 12C3.5 12.2812 3.25 12.5 3 12.5H0.5C0.21875 12.5 0 12.2812 0 12ZM12.5 12C12.5 11.75 12.7188 11.5 13 11.5H15.5C15.75 11.5 16 11.75 16 12C16 12.2812 15.75 12.5 15.5 12.5H13C12.7188 12.5 12.5 12.2812 12.5 12ZM8 16.5C8.25 16.5 8.5 16.75 8.5 17V19.5C8.5 19.7812 8.25 20 8 20C7.71875 20 7.5 19.7812 7.5 19.5V17C7.5 16.75 7.71875 16.5 8 16.5ZM2.34375 6.34375C2.53125 6.15625 2.84375 6.15625 3.03125 6.34375L4.8125 8.125C5 8.3125 5 8.625 4.8125 8.84375C4.625 9.03125 4.28125 9.03125 4.09375 8.84375L2.34375 7.0625C2.125 6.875 2.125 6.5625 2.34375 6.34375ZM2.34375 17.6562C2.125 17.4688 2.125 17.1562 2.34375 16.9688L4.09375 15.1875C4.28125 15 4.625 15 4.8125 15.1875C5 15.375 5 15.7188 4.8125 15.9062L3.03125 17.6562C2.84375 17.875 2.53125 17.875 2.34375 17.6562ZM11.1562 8.84375C10.9688 8.625 10.9688 8.3125 11.1562 8.125L12.9375 6.34375C13.125 6.15625 13.4375 6.15625 13.6562 6.34375C13.8438 6.5625 13.8438 6.875 13.6562 7.0625L11.875 8.84375C11.6875 9.03125 11.375 9.03125 11.1562 8.84375ZM11.1562 15.1875C11.375 15 11.6875 15 11.875 15.1875L13.6562 16.9688C13.8438 17.1562 13.8438 17.4688 13.6562 17.6562C13.4375 17.875 13.125 17.875 12.9375 17.6562L11.1562 15.9062C10.9688 15.7188 10.9688 15.375 11.1562 15.1875ZM10.5 12C10.5 11.125 10 10.3125 9.25 9.84375C8.46875 9.40625 7.5 9.40625 6.75 9.84375C5.96875 10.3125 5.5 11.125 5.5 12C5.5 12.9062 5.96875 13.7188 6.75 14.1875C7.5 14.625 8.46875 14.625 9.25 14.1875C10 13.7188 10.5 12.9062 10.5 12ZM4.5 12C4.5 10.75 5.15625 9.625 6.25 9C7.3125 8.34375 8.65625 8.34375 9.75 9C10.8125 9.625 11.5 10.75 11.5 12C11.5 13.2812 10.8125 14.4062 9.75 15.0312C8.65625 15.6875 7.3125 15.6875 6.25 15.0312C5.15625 14.4062 4.5 13.2812 4.5 12Z" fill="black" fill-opacity="0.72"/>
</g>
<defs>
<clipPath id="clip0_2556_15040">
<rect width="16" height="24" fill="white"/>
</clipPath>
</defs>
</svg>
