<svg width="14" height="22" viewBox="0 0 14 22" fill="none" xmlns="http://www.w3.org/2000/svg">
<g id="label-paired / sm / face-viewfinder-sm / regular" clip-path="url(#clip0_2556_12361)">
<path id="icon" d="M1.3125 3.75H3.9375C4.15625 3.75 4.375 3.96875 4.375 4.1875C4.375 4.43359 4.15625 4.625 3.9375 4.625H1.3125C1.06641 4.625 0.875 4.84375 0.875 5.0625V7.6875C0.875 7.93359 0.65625 8.125 0.4375 8.125C0.191406 8.125 0 7.93359 0 7.6875V5.0625C0 4.35156 0.574219 3.75 1.3125 3.75ZM12.6875 3.75C13.3984 3.75 14 4.35156 14 5.0625V7.6875C14 7.93359 13.7812 8.125 13.5625 8.125C13.3164 8.125 13.125 7.93359 13.125 7.6875V5.0625C13.125 4.84375 12.9062 4.625 12.6875 4.625H10.0625C9.81641 4.625 9.625 4.43359 9.625 4.1875C9.625 3.96875 9.81641 3.75 10.0625 3.75H12.6875ZM0 16.4375V13.8125C0 13.5938 0.191406 13.375 0.4375 13.375C0.65625 13.375 0.875 13.5938 0.875 13.8125V16.4375C0.875 16.6836 1.06641 16.875 1.3125 16.875H3.9375C4.15625 16.875 4.375 17.0938 4.375 17.3125C4.375 17.5586 4.15625 17.75 3.9375 17.75H1.3125C0.574219 17.75 0 17.1758 0 16.4375ZM12.6875 17.75H10.0625C9.81641 17.75 9.625 17.5586 9.625 17.3125C9.625 17.0938 9.81641 16.875 10.0625 16.875H12.6875C12.9062 16.875 13.125 16.6836 13.125 16.4375V13.8125C13.125 13.5938 13.3164 13.375 13.5625 13.375C13.7812 13.375 14 13.5938 14 13.8125V16.4375C14 17.1758 13.3984 17.75 12.6875 17.75ZM6.5625 9.65625C6.5625 10.0391 6.26172 10.3125 5.90625 10.3125C5.52344 10.3125 5.25 10.0391 5.25 9.65625C5.25 9.30078 5.52344 9 5.90625 9C6.26172 9 6.5625 9.30078 6.5625 9.65625ZM8.09375 10.3125C7.71094 10.3125 7.4375 10.0391 7.4375 9.65625C7.4375 9.30078 7.71094 9 8.09375 9C8.44922 9 8.75 9.30078 8.75 9.65625C8.75 10.0391 8.44922 10.3125 8.09375 10.3125ZM7 7.25C5.74219 7.25 4.59375 7.93359 3.96484 9C3.33594 10.0938 3.33594 11.4336 3.96484 12.5C4.59375 13.5938 5.74219 14.25 7 14.25C8.23047 14.25 9.37891 13.5938 10.0078 12.5C10.6367 11.4336 10.6367 10.0938 10.0078 9C9.37891 7.93359 8.23047 7.25 7 7.25ZM7 15.125C5.41406 15.125 3.99219 14.3047 3.19922 12.9375C2.40625 11.5977 2.40625 9.92969 3.19922 8.5625C3.99219 7.22266 5.41406 6.375 7 6.375C8.55859 6.375 9.98047 7.22266 10.7734 8.5625C11.5664 9.92969 11.5664 11.5977 10.7734 12.9375C9.98047 14.3047 8.55859 15.125 7 15.125ZM5.85156 11.4062C6.07031 11.8164 6.50781 12.0625 7 12.0625C7.46484 12.0625 7.90234 11.8164 8.12109 11.4062C8.25781 11.2148 8.50391 11.1328 8.72266 11.2695C8.94141 11.3789 8.99609 11.6523 8.88672 11.8711C8.50391 12.5 7.79297 12.9648 7 12.9648C6.17969 12.9648 5.46875 12.5 5.08594 11.8711C4.97656 11.6523 5.03125 11.3789 5.25 11.2695C5.46875 11.1328 5.74219 11.2148 5.85156 11.4062Z" fill="black" fill-opacity="0.72"/>
</g>
<defs>
<clipPath id="clip0_2556_12361">
<rect width="14" height="22" fill="white"/>
</clipPath>
</defs>
</svg>
