<svg width="16" height="22" viewBox="0 0 16 22" fill="none" xmlns="http://www.w3.org/2000/svg">
<g id="label-paired / sm / arrow-up-a-z-sm / regular" clip-path="url(#clip0_2556_12721)">
<path id="icon" d="M4.80078 4.76172L7.42578 7.38672C7.58984 7.55078 7.58984 7.85156 7.42578 8.01562C7.26172 8.17969 6.96094 8.17969 6.79688 8.01562L4.9375 6.12891V16.4375C4.9375 16.6836 4.71875 16.875 4.5 16.875C4.25391 16.875 4.0625 16.6836 4.0625 16.4375V6.12891L2.17578 8.01562C2.01172 8.17969 1.71094 8.17969 1.54688 8.01562C1.38281 7.85156 1.38281 7.55078 1.54688 7.38672L4.17188 4.76172C4.33594 4.59766 4.63672 4.59766 4.80078 4.76172ZM9.75 11.625H13.25C13.4141 11.625 13.5508 11.7344 13.6328 11.8984C13.7148 12.0352 13.6875 12.2266 13.5781 12.3359L10.6523 16H13.25C13.4688 16 13.6875 16.2188 13.6875 16.4375C13.6875 16.6836 13.4688 16.875 13.25 16.875H9.75C9.55859 16.875 9.42188 16.793 9.33984 16.6289C9.25781 16.4922 9.28516 16.3008 9.39453 16.1641L12.3203 12.5H9.75C9.50391 12.5 9.3125 12.3086 9.3125 12.0625C9.3125 11.8438 9.50391 11.625 9.75 11.625ZM11.5 4.625C11.6641 4.625 11.8008 4.73438 11.8828 4.87109L13.6328 8.37109C13.6328 8.37109 13.6328 8.37109 13.6328 8.39844L14.0703 9.24609C14.1797 9.46484 14.0977 9.73828 13.8789 9.84766C13.6602 9.95703 13.3867 9.875 13.2773 9.65625L12.9766 9H9.99609L9.69531 9.65625C9.58594 9.875 9.3125 9.95703 9.09375 9.84766C8.90234 9.73828 8.79297 9.46484 8.90234 9.24609L9.33984 8.39844C9.33984 8.37109 9.33984 8.37109 9.33984 8.37109L11.0898 4.87109C11.1719 4.73438 11.3086 4.625 11.5 4.625ZM10.4336 8.125H12.5391L11.5 6.04688L10.4336 8.125Z" fill="black" fill-opacity="0.72"/>
</g>
<defs>
<clipPath id="clip0_2556_12721">
<rect width="16" height="22" fill="white"/>
</clipPath>
</defs>
</svg>
