<svg width="12" height="18" viewBox="0 0 12 18" fill="none" xmlns="http://www.w3.org/2000/svg">
<g id="label-paired / caption / circle-plus-caption / bold" clip-path="url(#clip0_2556_10247)">
<path id="icon" d="M6 4.625C4.24219 4.625 2.64844 5.5625 1.75781 7.0625C0.890625 8.58594 0.890625 10.4375 1.75781 11.9375C2.64844 13.4609 4.24219 14.375 6 14.375C7.73438 14.375 9.32812 13.4609 10.2188 11.9375C11.0859 10.4375 11.0859 8.58594 10.2188 7.0625C9.32812 5.5625 7.73438 4.625 6 4.625ZM6 15.5C3.84375 15.5 1.875 14.375 0.796875 12.5C-0.28125 10.6484 -0.28125 8.375 0.796875 6.5C1.875 4.64844 3.84375 3.5 6 3.5C8.13281 3.5 10.1016 4.64844 11.1797 6.5C12.2578 8.375 12.2578 10.6484 11.1797 12.5C10.1016 14.375 8.13281 15.5 6 15.5ZM5.4375 11.5625V10.0625H3.9375C3.60938 10.0625 3.375 9.82812 3.375 9.5C3.375 9.19531 3.60938 8.9375 3.9375 8.9375H5.4375V7.4375C5.4375 7.13281 5.67188 6.875 6 6.875C6.30469 6.875 6.5625 7.13281 6.5625 7.4375V8.9375H8.0625C8.36719 8.9375 8.625 9.19531 8.625 9.5C8.625 9.82812 8.36719 10.0625 8.0625 10.0625H6.5625V11.5625C6.5625 11.8906 6.30469 12.125 6 12.125C5.67188 12.125 5.4375 11.8906 5.4375 11.5625Z" fill="black" fill-opacity="0.72"/>
</g>
<defs>
<clipPath id="clip0_2556_10247">
<rect width="12" height="18" fill="white"/>
</clipPath>
</defs>
</svg>
