<svg width="12" height="18" viewBox="0 0 12 18" fill="none" xmlns="http://www.w3.org/2000/svg">
<g id="label-paired / caption / phone-caption / bold" clip-path="url(#clip0_2556_10140)">
<path id="icon" d="M8.78906 9.96875L11.4141 11.0938C11.8359 11.2578 12.0703 11.7031 11.9766 12.1484L11.4141 14.7734C11.3203 15.1953 10.9219 15.5234 10.5 15.5234C10.3359 15.5234 10.1953 15.5 10.0547 15.5C9.82031 15.5 9.58594 15.4766 9.375 15.4531C4.10156 14.8906 0 10.4375 0 5C0 4.57812 0.304688 4.17969 0.726562 4.08594L3.35156 3.52344C3.79688 3.42969 4.24219 3.66406 4.40625 4.08594L5.53125 6.71094C5.69531 7.08594 5.60156 7.53125 5.27344 7.78906L4.3125 8.58594C4.94531 9.66406 5.83594 10.5547 6.91406 11.1875L7.71094 10.2266C7.96875 9.89844 8.41406 9.80469 8.78906 9.96875ZM10.3359 14.375L10.8281 12.0547L8.48438 11.0469L7.80469 11.8906C7.45312 12.3125 6.84375 12.4297 6.35156 12.1484C5.10938 11.4219 4.07812 10.3906 3.35156 9.14844C3.07031 8.65625 3.1875 8.04688 3.60938 7.69531L4.45312 7.01562L3.44531 4.67188L1.125 5.16406C1.19531 10.2266 5.27344 14.3047 10.3359 14.375Z" fill="black" fill-opacity="0.72"/>
</g>
<defs>
<clipPath id="clip0_2556_10140">
<rect width="12" height="18" fill="white"/>
</clipPath>
</defs>
</svg>
