<svg width="24" height="36" viewBox="0 0 24 36" fill="none" xmlns="http://www.w3.org/2000/svg">
<g id="label-paired / xl / arrow-up-right-from-square-xl / bold" clip-path="url(#clip0_2556_19679)">
<path id="icon" d="M14.25 7.125C14.25 6.51562 14.7188 6 15.375 6H22.8281C23.4844 6 23.9531 6.51562 23.9531 7.125V14.625C23.9531 15.2812 23.4844 15.75 22.8281 15.75C22.2188 15.75 21.7031 15.2812 21.7031 14.625V9.84375L11.25 20.2969C10.8281 20.7656 10.125 20.7656 9.70312 20.2969C9.23438 19.875 9.23438 19.1719 9.70312 18.7031L20.1562 8.25H15.375C14.7188 8.25 14.25 7.78125 14.25 7.125ZM3.375 7.5H9.375C9.98438 7.5 10.5 8.01562 10.5 8.625C10.5 9.28125 9.98438 9.75 9.375 9.75H3.375C2.71875 9.75 2.25 10.2656 2.25 10.875V26.625C2.25 27.2812 2.71875 27.75 3.375 27.75H19.125C19.7344 27.75 20.25 27.2812 20.25 26.625V20.625C20.25 20.0156 20.7188 19.5 21.375 19.5C21.9844 19.5 22.5 20.0156 22.5 20.625V26.625C22.5 28.5 20.9531 30 19.125 30H3.375C1.5 30 0 28.5 0 26.625V10.875C0 9.04688 1.5 7.5 3.375 7.5Z" fill="black" fill-opacity="0.72"/>
</g>
<defs>
<clipPath id="clip0_2556_19679">
<rect width="24" height="36" fill="white"/>
</clipPath>
</defs>
</svg>
