<svg width="12" height="18" viewBox="0 0 12 18" fill="none" xmlns="http://www.w3.org/2000/svg">
<g id="label-paired / caption / backward-caption / fill" clip-path="url(#clip0_2556_9983)">
<path id="icon" d="M10.7578 13.8359L6.75 10.4844V9.5V8.53906L10.7578 5.1875C10.9922 5 11.2969 4.95312 11.5547 5.07031C11.8125 5.21094 12 5.46875 12 5.75V13.25C12 13.5547 11.8125 13.8125 11.5547 13.9297C11.2969 14.0703 10.9922 14.0234 10.7578 13.8359ZM6 11.75V13.25C6 13.5547 5.8125 13.8125 5.55469 13.9297C5.29688 14.0703 4.99219 14.0234 4.75781 13.8359L0.257812 10.0859C0.09375 9.94531 0 9.73438 0 9.5C0 9.28906 0.09375 9.07812 0.257812 8.9375L4.75781 5.1875C4.99219 5 5.29688 4.95312 5.55469 5.07031C5.8125 5.21094 6 5.46875 6 5.75V6.5V9.5V11.75Z" fill="black" fill-opacity="0.72"/>
</g>
<defs>
<clipPath id="clip0_2556_9983">
<rect width="12" height="18" fill="white"/>
</clipPath>
</defs>
</svg>
