<svg width="16" height="24" viewBox="0 0 16 24" fill="none" xmlns="http://www.w3.org/2000/svg">
<g id="label-paired / md / file-xml-md / fill" clip-path="url(#clip0_3816_29)">
<path id="icon" d="M0 6C0 4.90625 0.875 4 2 4H7V8C7 8.5625 7.4375 9 8 9H12V13.5H5.5C4.375 13.5 3.5 14.4062 3.5 15.5V20H2C0.875 20 0 19.125 0 18V6ZM12 8H8V4L12 8ZM6 15.5C6 15.75 6.0625 15.9688 6.1875 16.1562L6.5 16.625L6.78125 16.1562C6.90625 15.9688 7 15.75 7 15.5C7 15.25 7.21875 15 7.5 15C7.75 15 8 15.25 8 15.5C8 15.9375 7.875 16.3438 7.625 16.7188L7.09375 17.5L7.625 18.3125C7.875 18.6875 8 19.0938 8 19.5C8 19.7812 7.75 20 7.5 20C7.21875 20 7 19.7812 7 19.5C7 19.2812 6.90625 19.0625 6.78125 18.875L6.5 18.4062L6.1875 18.875C6.0625 19.0625 6 19.2812 6 19.5C6 19.7812 5.75 20 5.5 20C5.21875 20 5 19.7812 5 19.5C5 19.0938 5.125 18.6562 5.34375 18.3125L5.875 17.5L5.34375 16.7188C5.125 16.3438 5 15.9375 5 15.5C5 15.25 5.21875 15 5.5 15C5.75 15 6 15.25 6 15.5ZM14 19.5V15.5C14 15.25 14.2188 15 14.5 15C14.75 15 15 15.25 15 15.5V19H15.5C15.75 19 16 19.25 16 19.5C16 19.7812 15.75 20 15.5 20H14.5C14.2188 20 14 19.7812 14 19.5ZM9.34375 15.0312C9.5625 14.9688 9.8125 15.0625 9.90625 15.25L11 17.0312L12.0625 15.25C12.1875 15.0625 12.4062 14.9688 12.625 15.0312C12.8438 15.0938 13 15.2812 13 15.5V19.5C13 19.7812 12.75 20 12.5 20C12.2188 20 12 19.7812 12 19.5V17.3125L11.4062 18.2812C11.3125 18.4375 11.1562 18.5312 11 18.5312C10.8125 18.5312 10.6562 18.4375 10.5625 18.2812L10 17.3125V19.5C10 19.7812 9.75 20 9.5 20C9.21875 20 9 19.7812 9 19.5V15.5C9 15.2812 9.125 15.0938 9.34375 15.0312Z" fill="black" fill-opacity="0.72"/>
</g>
<defs>
<clipPath id="clip0_3816_29">
<rect width="16" height="24" fill="white"/>
</clipPath>
</defs>
</svg>
