<svg width="8" height="18" viewBox="0 0 8 18" fill="none" xmlns="http://www.w3.org/2000/svg">
<g id="label-paired / caption / eight-caption / bold" clip-path="url(#clip0_2556_10212)">
<path id="icon" d="M7.375 7.15625C7.375 8.04688 6.97656 8.84375 6.34375 9.38281C7.1875 9.875 7.75 10.8125 7.75 11.8438C7.75 13.4609 6.4375 14.75 4.84375 14.75H3.15625C1.53906 14.75 0.25 13.4609 0.25 11.8438C0.25 10.8125 0.789062 9.875 1.63281 9.38281C1 8.84375 0.625 8.04688 0.625 7.15625C0.625 5.5625 1.91406 4.25 3.53125 4.25H4.46875C6.0625 4.25 7.375 5.5625 7.375 7.15625ZM4.46875 10.0625H3.53125C3.50781 10.0625 3.50781 10.0625 3.50781 10.0625H3.15625C2.17188 10.0625 1.375 10.8594 1.375 11.8438C1.375 12.8281 2.17188 13.625 3.15625 13.625H4.84375C5.82812 13.625 6.625 12.8281 6.625 11.8438C6.625 10.8594 5.82812 10.0625 4.84375 10.0625H4.46875ZM4.46875 8.9375C5.45312 8.9375 6.25 8.14062 6.25 7.15625C6.25 6.17188 5.45312 5.375 4.46875 5.375H3.53125C2.54688 5.375 1.75 6.17188 1.75 7.15625C1.75 8.14062 2.54688 8.9375 3.53125 8.9375H4.46875Z" fill="black" fill-opacity="0.72"/>
</g>
<defs>
<clipPath id="clip0_2556_10212">
<rect width="8" height="18" fill="white"/>
</clipPath>
</defs>
</svg>
