<svg width="15" height="18" viewBox="0 0 15 18" fill="none" xmlns="http://www.w3.org/2000/svg">
<g id="label-paired / caption / messages-question-caption / bold" clip-path="url(#clip0_2556_10122)">
<path id="icon" d="M1.6875 4.625C1.35938 4.625 1.125 4.88281 1.125 5.1875V9.3125C1.125 9.64062 1.35938 9.875 1.6875 9.875H2.8125C3.11719 9.875 3.375 10.1328 3.375 10.4375V10.9062L4.73438 9.96875C4.82812 9.92188 4.94531 9.875 5.0625 9.875H8.0625C8.36719 9.875 8.625 9.64062 8.625 9.3125V5.1875C8.625 4.88281 8.36719 4.625 8.0625 4.625H1.6875ZM0 5.1875C0 4.27344 0.75 3.5 1.6875 3.5H8.0625C8.97656 3.5 9.75 4.27344 9.75 5.1875V9.3125C9.75 10.25 8.97656 11 8.0625 11H5.22656L3.11719 12.4062C2.92969 12.5234 2.71875 12.5469 2.53125 12.4531C2.34375 12.3359 2.25 12.1484 2.25 11.9375V11H1.6875C0.75 11 0 10.25 0 9.3125V5.1875ZM6 11.75H7.125V12.3125C7.125 12.6406 7.35938 12.875 7.6875 12.875H9.9375C10.0312 12.875 10.1484 12.9219 10.2422 12.9688L11.625 13.9062V13.4375C11.625 13.1328 11.8594 12.875 12.1875 12.875H13.3125C13.6172 12.875 13.875 12.6406 13.875 12.3125V8.1875C13.875 7.88281 13.6172 7.625 13.3125 7.625H10.5V6.5H13.3125C14.2266 6.5 15 7.27344 15 8.1875V12.3125C15 13.25 14.2266 14 13.3125 14H12.75V14.9375C12.75 15.1484 12.6328 15.3359 12.4453 15.4531C12.2578 15.5469 12.0469 15.5234 11.8594 15.4062L9.75 14H7.6875C6.75 14 6 13.25 6 12.3125V11.75ZM3.44531 5.77344C3.58594 5.39844 3.9375 5.16406 4.3125 5.16406H5.27344C5.83594 5.16406 6.30469 5.60938 6.30469 6.19531C6.30469 6.54688 6.09375 6.89844 5.78906 7.0625L5.25 7.39062C5.25 7.60156 5.0625 7.76562 4.875 7.76562C4.66406 7.76562 4.5 7.60156 4.5 7.39062V7.17969C4.5 7.03906 4.57031 6.92188 4.6875 6.85156L5.41406 6.42969C5.50781 6.38281 5.55469 6.28906 5.55469 6.19531C5.55469 6.03125 5.4375 5.91406 5.27344 5.91406H4.3125C4.24219 5.91406 4.19531 5.96094 4.17188 6.00781L4.14844 6.03125C4.07812 6.21875 3.86719 6.33594 3.67969 6.26562C3.49219 6.19531 3.375 5.98438 3.44531 5.77344ZM4.33594 8.84375C4.3125 8.65625 4.40625 8.46875 4.59375 8.375C4.75781 8.25781 4.96875 8.25781 5.13281 8.375C5.29688 8.46875 5.41406 8.65625 5.39062 8.84375C5.41406 9.05469 5.29688 9.24219 5.13281 9.33594C4.96875 9.45312 4.75781 9.45312 4.59375 9.33594C4.40625 9.24219 4.3125 9.05469 4.33594 8.84375Z" fill="black" fill-opacity="0.72"/>
</g>
<defs>
<clipPath id="clip0_2556_10122">
<rect width="15" height="18" fill="white"/>
</clipPath>
</defs>
</svg>
