<svg width="20" height="30" viewBox="0 0 20 30" fill="none" xmlns="http://www.w3.org/2000/svg">
<g id="label-paired / lg / circle-sort-down-lg / regular" clip-path="url(#clip0_2556_17249)">
<path id="icon" d="M1.25 15.5C1.25 18.6641 2.89062 21.5156 5.625 23.0781C8.32031 24.6797 11.6406 24.6797 14.375 23.0781C17.0703 21.5156 18.75 18.6641 18.75 15.5C18.75 12.375 17.0703 9.52344 14.375 7.96094C11.6406 6.35938 8.32031 6.35938 5.625 7.96094C2.89062 9.52344 1.25 12.375 1.25 15.5ZM20 15.5C20 19.0938 18.0859 22.375 15 24.1719C11.875 25.9688 8.08594 25.9688 5 24.1719C1.875 22.375 0 19.0938 0 15.5C0 11.9453 1.875 8.66406 5 6.86719C8.08594 5.07031 11.875 5.07031 15 6.86719C18.0859 8.66406 20 11.9453 20 15.5ZM9.53125 21.5938L5.78125 17.8438C5.625 17.6484 5.54688 17.375 5.66406 17.1406C5.74219 16.9062 5.97656 16.75 6.25 16.75H13.75C13.9844 16.75 14.2188 16.9062 14.2969 17.1406C14.4141 17.375 14.3359 17.6484 14.1797 17.8438L10.4297 21.5938C10.1953 21.8281 9.76562 21.8281 9.53125 21.5938ZM7.73438 18L10 20.2656L12.2266 18H7.73438ZM5.78125 13.1953L9.53125 9.44531C9.76562 9.21094 10.1953 9.21094 10.4297 9.44531L14.1797 13.1953C14.4141 13.4297 14.4141 13.8594 14.1797 14.0938C13.9453 14.3281 13.5156 14.3281 13.2812 14.0938L10 10.7734L6.67969 14.0938C6.44531 14.3281 6.01562 14.3281 5.78125 14.0938C5.54688 13.8594 5.54688 13.4297 5.78125 13.1953Z" fill="black" fill-opacity="0.72"/>
</g>
<defs>
<clipPath id="clip0_2556_17249">
<rect width="20" height="30" fill="white"/>
</clipPath>
</defs>
</svg>
