<svg width="16" height="24" viewBox="0 0 16 24" fill="none" xmlns="http://www.w3.org/2000/svg">
<g id="label-paired / md / file-certificate-md / fill" clip-path="url(#clip0_2556_15062)">
<path id="icon" d="M4 6C4 4.90625 4.875 4 6 4H11V8C11 8.5625 11.4375 9 12 9H16V18C16 19.125 15.0938 20 14 20H6.90625C6.96875 19.8438 7 19.6875 7 19.5V17C7.03125 17 7.0625 16.9688 7.09375 16.9688C7.3125 16.875 7.5625 16.7188 7.75 16.4688C7.9375 16.25 8.0625 15.9375 8.09375 15.625C8.125 15.5312 8.125 15.4688 8.125 15.4062C8.1875 15.375 8.21875 15.3438 8.3125 15.2812C8.9375 14.7812 9.15625 13.9688 8.875 13.2188C8.8125 13.125 8.78125 13.0625 8.78125 13.0312C8.78125 12.9688 8.8125 12.9062 8.875 12.8125C9.15625 12.0938 8.9375 11.25 8.3125 10.75C8.21875 10.6875 8.1875 10.6562 8.125 10.625C8.125 10.5625 8.125 10.5 8.09375 10.4062C8 9.625 7.375 9 6.59375 8.90625C6.5 8.875 6.4375 8.875 6.375 8.875C6.34375 8.84375 6.3125 8.78125 6.25 8.6875C5.75 8.0625 4.9375 7.84375 4.1875 8.15625C4.125 8.1875 4.03125 8.21875 4 8.25V6ZM16 8H12V4L16 8ZM3.40625 9.0625L3.90625 9.25C3.9375 9.28125 4.03125 9.28125 4.09375 9.25L4.5625 9.0625C4.875 8.9375 5.25 9.03125 5.46875 9.28125L5.78125 9.71875C5.8125 9.78125 5.875 9.8125 5.9375 9.8125L6.46875 9.875C6.8125 9.9375 7.0625 10.1875 7.125 10.5312L7.1875 11.0625C7.1875 11.125 7.21875 11.1875 7.28125 11.2188L7.6875 11.5312C7.96875 11.75 8.0625 12.0938 7.9375 12.4062L7.75 12.9062C7.71875 12.9688 7.71875 13.0625 7.75 13.125L7.9375 13.5938C8.0625 13.9062 7.96875 14.2812 7.71875 14.4688L7.28125 14.8125C7.21875 14.8438 7.1875 14.9062 7.1875 14.9688L7.125 15.5C7.0625 15.8438 6.8125 16.0938 6.46875 16.1562L6 16.2188V19.5C6 19.6875 5.875 19.875 5.71875 19.9688C5.5625 20.0312 5.375 20.0312 5.21875 19.9375L4 19.125L2.75 19.9375C2.625 20.0312 2.40625 20.0312 2.25 19.9688C2.09375 19.875 2 19.6875 2 19.5V16.2188L1.5 16.1562C1.15625 16.0938 0.90625 15.8438 0.875 15.5L0.78125 14.9688C0.78125 14.9062 0.75 14.8438 0.6875 14.8125L0.28125 14.4688C0 14.2812 -0.09375 13.9062 0.03125 13.5938L0.25 13.0938C0.25 13.0625 0.25 12.9688 0.25 12.9062L0.03125 12.4375C-0.09375 12.125 0 11.75 0.28125 11.5625L0.6875 11.2188C0.75 11.1875 0.78125 11.125 0.78125 11.0625L0.84375 10.5312C0.90625 10.1875 1.15625 9.9375 1.5 9.875L2.03125 9.8125C2.09375 9.8125 2.15625 9.78125 2.1875 9.71875L2.53125 9.3125C2.71875 9.03125 3.09375 8.9375 3.40625 9.0625ZM6 13C6 12.3125 5.59375 11.6562 5 11.2812C4.375 10.9375 3.59375 10.9375 3 11.2812C2.375 11.6562 2 12.3125 2 13C2 13.7188 2.375 14.375 3 14.75C3.59375 15.0938 4.375 15.0938 5 14.75C5.59375 14.375 6 13.7188 6 13Z" fill="black" fill-opacity="0.72"/>
</g>
<defs>
<clipPath id="clip0_2556_15062">
<rect width="16" height="24" fill="white"/>
</clipPath>
</defs>
</svg>
