<svg width="11" height="18" viewBox="0 0 11 18" fill="none" xmlns="http://www.w3.org/2000/svg">
<g id="label-paired / caption / arrow-left-caption / bold" clip-path="url(#clip0_2556_10450)">
<path id="icon" d="M0.414062 9.92188C0.296875 9.80469 0.25 9.66406 0.25 9.5C0.25 9.35938 0.296875 9.21875 0.414062 9.10156L4.53906 5.16406C4.77344 4.95312 5.125 4.95312 5.33594 5.1875C5.54688 5.39844 5.54688 5.77344 5.3125 5.98438L2.19531 8.9375H10.1875C10.4922 8.9375 10.75 9.19531 10.75 9.5C10.75 9.82812 10.4922 10.0625 10.1875 10.0625H2.19531L5.3125 13.0391C5.54688 13.25 5.54688 13.6016 5.33594 13.8359C5.125 14.0703 4.77344 14.0703 4.53906 13.8594L0.414062 9.92188Z" fill="black" fill-opacity="0.72"/>
</g>
<defs>
<clipPath id="clip0_2556_10450">
<rect width="11" height="18" fill="white"/>
</clipPath>
</defs>
</svg>
