<svg width="20" height="24" viewBox="0 0 20 24" fill="none" xmlns="http://www.w3.org/2000/svg">
<g id="label-paired / md / bell-slash-md / regular" clip-path="url(#clip0_2556_15011)">
<path id="icon" d="M11.8125 16V16.0312L13.0938 17.0312H4.375C3.59375 17.0312 2.96875 16.4062 2.96875 15.625C2.96875 15.2812 3.125 14.9062 3.375 14.6562L3.46875 14.5625C4.4375 13.5938 5 12.2812 5 10.9375V10.625L5.96875 11.375C5.84375 12.8438 5.21875 14.2188 4.1875 15.2812L4.09375 15.3438C4.03125 15.4375 4 15.5312 4 15.625C4 15.8438 4.15625 16 4.375 16H11.8125ZM9.5 5.03125V4.5C9.5 4.25 9.71875 4 10 4C10.25 4 10.5 4.25 10.5 4.5V5.03125C13 5.28125 15 7.40625 15 10V10.9375C15 12.2812 15.5312 13.5938 16.5 14.5625L16.5938 14.6562C16.5938 14.6875 16.625 14.6875 16.6562 14.7188L14.3125 12.875C14.0938 12.25 14 11.5938 14 10.9375V10C14 7.8125 12.1875 6 10 6C8.875 6 7.84375 6.46875 7.125 7.21875L6.34375 6.59375C7.15625 5.71875 8.25 5.15625 9.5 5.03125ZM9.03125 18.3438C9.1875 18.75 9.5625 19 10 19C10.4062 19 10.7812 18.75 10.9375 18.3438C11.0312 18.0938 11.3125 17.9375 11.5625 18.0312C11.8438 18.125 11.9688 18.4062 11.875 18.6875C11.5938 19.4688 10.8438 20 10 20C9.125 20 8.375 19.4688 8.09375 18.6875C8 18.4062 8.15625 18.125 8.40625 18.0312C8.65625 17.9375 8.9375 18.0938 9.03125 18.3438ZM0.78125 4.125L19.8125 19.125C20 19.2812 20.0625 19.625 19.875 19.8125C19.7188 20.0312 19.4062 20.0938 19.1875 19.9062L0.1875 4.90625C-0.03125 4.75 -0.09375 4.40625 0.09375 4.21875C0.25 4 0.59375 3.9375 0.78125 4.125Z" fill="black" fill-opacity="0.72"/>
</g>
<defs>
<clipPath id="clip0_2556_15011">
<rect width="20" height="24" fill="white"/>
</clipPath>
</defs>
</svg>
