<svg width="21" height="36" viewBox="0 0 21 36" fill="none" xmlns="http://www.w3.org/2000/svg">
<g id="label-paired / xl / square-list-xl / fill" clip-path="url(#clip0_3004_452)">
<path id="icon" d="M0 10.5C0 8.85938 1.3125 7.5 3 7.5H18C19.6406 7.5 21 8.85938 21 10.5V25.5C21 27.1875 19.6406 28.5 18 28.5H3C1.3125 28.5 0 27.1875 0 25.5V10.5ZM4.5 19.5C5.29688 19.5 6 18.8438 6 18C6 17.2031 5.29688 16.5 4.5 16.5C3.65625 16.5 3 17.2031 3 18C3 18.8438 3.65625 19.5 4.5 19.5ZM6 13.5C6 12.7031 5.29688 12 4.5 12C3.65625 12 3 12.7031 3 13.5C3 14.3438 3.65625 15 4.5 15C5.29688 15 6 14.3438 6 13.5ZM4.5 24C5.29688 24 6 23.3438 6 22.5C6 21.7031 5.29688 21 4.5 21C3.65625 21 3 21.7031 3 22.5C3 23.3438 3.65625 24 4.5 24ZM9 12.375C8.34375 12.375 7.875 12.8906 7.875 13.5C7.875 14.1562 8.34375 14.625 9 14.625H16.5C17.1094 14.625 17.625 14.1562 17.625 13.5C17.625 12.8906 17.1094 12.375 16.5 12.375H9ZM9 16.875C8.34375 16.875 7.875 17.3906 7.875 18C7.875 18.6562 8.34375 19.125 9 19.125H16.5C17.1094 19.125 17.625 18.6562 17.625 18C17.625 17.3906 17.1094 16.875 16.5 16.875H9ZM9 21.375C8.34375 21.375 7.875 21.8906 7.875 22.5C7.875 23.1562 8.34375 23.625 9 23.625H16.5C17.1094 23.625 17.625 23.1562 17.625 22.5C17.625 21.8906 17.1094 21.375 16.5 21.375H9Z" fill="black" fill-opacity="0.72"/>
</g>
<defs>
<clipPath id="clip0_3004_452">
<rect width="21" height="36" fill="white"/>
</clipPath>
</defs>
</svg>
