<svg width="16" height="24" viewBox="0 0 16 24" fill="none" xmlns="http://www.w3.org/2000/svg">
<g id="label-paired / md / life-ring-md / fill" clip-path="url(#clip0_2556_15021)">
<path id="icon" d="M11.4688 16.9062L9.65625 15.0938C9.15625 15.375 8.59375 15.5 8 15.5C7.375 15.5 6.8125 15.375 6.3125 15.0938L4.5 16.9062C5.5 17.5938 6.6875 18 8 18C9.28125 18 10.4688 17.5938 11.4688 16.9062ZM14.2812 16.9375H14.3125C14.5938 17.3125 14.5312 17.875 14.1875 18.2188C13.8438 18.5625 13.2812 18.5938 12.9062 18.3125C11.5312 19.375 9.84375 20 8 20C6.125 20 4.4375 19.375 3.0625 18.3125C2.6875 18.5938 2.125 18.5625 1.78125 18.2188C1.4375 17.875 1.40625 17.3125 1.6875 16.9375C0.625 15.5625 0 13.875 0 12C0 10.1562 0.625 8.46875 1.6875 7.09375C1.40625 6.71875 1.4375 6.15625 1.78125 5.8125C2.125 5.46875 2.6875 5.40625 3.0625 5.6875C4.4375 4.65625 6.125 4 8 4C9.84375 4 11.5312 4.65625 12.9062 5.6875C13.2812 5.40625 13.8438 5.46875 14.1875 5.8125C14.5312 6.15625 14.5625 6.71875 14.2812 7.09375C15.3438 8.46875 15.9688 10.1562 15.9688 12C15.9688 13.875 15.3438 15.5625 14.2812 16.9375ZM12.875 15.5C13.5625 14.5 14 13.3125 14 12C14 10.7188 13.5625 9.53125 12.875 8.53125L11.0625 10.3438C11.3438 10.8438 11.4688 11.4062 11.4688 12C11.4688 12.625 11.3438 13.1875 11.0625 13.6875L12.875 15.5ZM11.4688 7.125C10.4688 6.4375 9.28125 6 8 6C6.6875 6 5.5 6.4375 4.5 7.125L6.3125 8.9375C6.8125 8.65625 7.375 8.5 7.96875 8.5C8.59375 8.5 9.15625 8.65625 9.65625 8.9375L11.4688 7.125ZM4.90625 13.6875C4.625 13.1875 4.5 12.625 4.5 12.0312C4.5 11.4062 4.625 10.8438 4.90625 10.3438L3.09375 8.53125C2.40625 9.53125 2 10.7188 2 12C2 13.3125 2.40625 14.5 3.09375 15.5L4.90625 13.6875ZM6.5 12C6.5 12.5625 6.78125 13.0312 7.25 13.3125C7.6875 13.5938 8.28125 13.5938 8.75 13.3125C9.1875 13.0312 9.5 12.5625 9.5 12C9.5 11.4688 9.1875 11 8.75 10.7188C8.28125 10.4375 7.6875 10.4375 7.25 10.7188C6.78125 11 6.5 11.4688 6.5 12Z" fill="black" fill-opacity="0.72"/>
</g>
<defs>
<clipPath id="clip0_2556_15021">
<rect width="16" height="24" fill="white"/>
</clipPath>
</defs>
</svg>
