<svg width="24" height="36" viewBox="0 0 24 36" fill="none" xmlns="http://www.w3.org/2000/svg">
<g id="label-paired / xl / circle-star-xl / fill" clip-path="url(#clip0_2556_19564)">
<path id="icon" d="M0 18C0 13.7344 2.25 9.79688 6 7.64062C9.70312 5.48438 14.25 5.48438 18 7.64062C21.7031 9.79688 24 13.7344 24 18C24 22.3125 21.7031 26.25 18 28.4062C14.25 30.5625 9.70312 30.5625 6 28.4062C2.25 26.25 0 22.3125 0 18ZM12 10.875C11.6719 10.875 11.4375 11.0625 11.2969 11.2969L9.60938 14.7656L5.8125 15.3281C5.53125 15.3281 5.29688 15.5625 5.20312 15.7969C5.10938 16.0781 5.20312 16.4062 5.39062 16.5938L8.15625 19.2656L7.5 23.0625C7.45312 23.3438 7.54688 23.625 7.78125 23.7656C8.01562 23.9531 8.34375 23.9531 8.57812 23.8594L12 22.0781L15.375 23.8594C15.6094 23.9531 15.9375 23.9531 16.1719 23.7656C16.4062 23.625 16.5 23.3438 16.4531 23.0625L15.8438 19.2656L18.5625 16.5938C18.7969 16.4062 18.8438 16.0781 18.75 15.8438C18.6562 15.5625 18.4219 15.375 18.1406 15.3281L14.3438 14.7656L12.6562 11.2969C12.5156 11.0625 12.2812 10.9219 12 10.9219V10.875Z" fill="black" fill-opacity="0.72"/>
</g>
<defs>
<clipPath id="clip0_2556_19564">
<rect width="24" height="36" fill="white"/>
</clipPath>
</defs>
</svg>
