<svg width="12" height="18" viewBox="0 0 12 18" fill="none" xmlns="http://www.w3.org/2000/svg">
<g id="label-paired / caption / bank-caption / fill" clip-path="url(#clip0_2556_9909)">
<path id="icon" d="M5.69531 3.57031C5.88281 3.5 6.09375 3.5 6.28125 3.57031L11.5312 5.82031C11.8594 5.96094 12.0469 6.3125 11.9766 6.66406C11.9062 7.01562 11.6016 7.25 11.25 7.25V7.4375C11.25 7.76562 10.9922 8 10.6875 8H1.3125C0.984375 8 0.75 7.76562 0.75 7.4375V7.25C0.375 7.25 0.0703125 7.01562 0 6.66406C-0.0703125 6.3125 0.117188 5.96094 0.445312 5.82031L5.69531 3.57031ZM3 8.75V13.25H3.9375V8.75H5.4375V13.25H6.5625V8.75H8.0625V13.25H9V8.75H10.4766V13.3672C10.5 13.3672 10.5234 13.3672 10.5234 13.3906L11.6484 14.1406C11.9297 14.3281 12.0469 14.6562 11.9531 14.9844C11.8594 15.2891 11.5781 15.5 11.25 15.5H0.75C0.398438 15.5 0.117188 15.2891 0.0234375 14.9844C-0.0703125 14.6562 0.046875 14.3281 0.328125 14.1406L1.45312 13.3906C1.45312 13.3672 1.47656 13.3672 1.5 13.3672V8.75H3ZM6 5C5.57812 5 5.25 5.35156 5.25 5.75C5.25 6.17188 5.57812 6.5 6 6.5C6.39844 6.5 6.75 6.17188 6.75 5.75C6.75 5.35156 6.39844 5 6 5Z" fill="black" fill-opacity="0.72"/>
</g>
<defs>
<clipPath id="clip0_2556_9909">
<rect width="12" height="18" fill="white"/>
</clipPath>
</defs>
</svg>
