<svg width="10" height="24" viewBox="0 0 10 24" fill="none" xmlns="http://www.w3.org/2000/svg">
<g id="label-paired / md / backward-step-md / regular" clip-path="url(#clip0_2556_14689)">
<path id="icon" d="M2 6.5V10.75L7.5625 6.21875C7.71875 6.09375 7.90625 6 8.125 6C8.59375 6 9 6.40625 9 6.875V17.1562C9 17.625 8.59375 18 8.125 18C7.90625 18 7.71875 17.9375 7.5625 17.8125L2 13.2812V17.5C2 17.7812 1.75 18 1.5 18C1.21875 18 1 17.7812 1 17.5V12.4688V11.5625V6.5C1 6.25 1.21875 6 1.5 6C1.75 6 2 6.25 2 6.5ZM8 7.15625L2.03125 12L8 16.875V7.15625Z" fill="black" fill-opacity="0.72"/>
</g>
<defs>
<clipPath id="clip0_2556_14689">
<rect width="10" height="24" fill="white"/>
</clipPath>
</defs>
</svg>
