<svg width="24" height="36" viewBox="0 0 24 36" fill="none" xmlns="http://www.w3.org/2000/svg">
<g id="label-paired / xl / circle-eight-xl / regular" clip-path="url(#clip0_2556_19903)">
<path id="icon" d="M22.5 18C22.5 14.25 20.4844 10.8281 17.25 8.95312C13.9688 7.03125 9.98438 7.03125 6.75 8.95312C3.46875 10.8281 1.5 14.25 1.5 18C1.5 21.7969 3.46875 25.2188 6.75 27.0938C9.98438 29.0156 13.9688 29.0156 17.25 27.0938C20.4844 25.2188 22.5 21.7969 22.5 18ZM0 18C0 13.7344 2.25 9.79688 6 7.64062C9.70312 5.48438 14.25 5.48438 18 7.64062C21.7031 9.79688 24 13.7344 24 18C24 22.3125 21.7031 26.25 18 28.4062C14.25 30.5625 9.70312 30.5625 6 28.4062C2.25 26.25 0 22.3125 0 18ZM12.5625 12C14.2969 12 15.75 13.4531 15.75 15.1875C15.75 16.1719 15.3281 17.0156 14.6719 17.5781C15.5156 18.2344 16.125 19.2656 16.125 20.4375C16.125 22.4062 14.5312 24 12.5625 24H11.4375C9.46875 24 7.875 22.4062 7.875 20.4375C7.875 19.2656 8.4375 18.2344 9.28125 17.5781C8.625 17.0156 8.25 16.1719 8.25 15.1875C8.25 13.4531 9.65625 12 11.4375 12H12.5625ZM11.4375 16.875H12.5625C13.4531 16.875 14.25 16.125 14.25 15.1875C14.25 14.2969 13.4531 13.5 12.5625 13.5H11.4375C10.5 13.5 9.75 14.2969 9.75 15.1875C9.75 16.125 10.5 16.875 11.4375 16.875ZM12.5625 18.375H11.4375C10.2656 18.375 9.375 19.3125 9.375 20.4375C9.375 21.6094 10.2656 22.5 11.4375 22.5H12.5625C13.6875 22.5 14.625 21.6094 14.625 20.4375C14.625 19.3125 13.6875 18.375 12.5625 18.375Z" fill="black" fill-opacity="0.72"/>
</g>
<defs>
<clipPath id="clip0_2556_19903">
<rect width="24" height="36" fill="white"/>
</clipPath>
</defs>
</svg>
