<svg width="20" height="30" viewBox="0 0 20 30" fill="none" xmlns="http://www.w3.org/2000/svg">
<g id="label-paired / lg / circle-caret-up-lg / fill" clip-path="url(#clip0_2556_17260)">
<path id="icon" d="M10 25.5C6.40625 25.5 3.125 23.625 1.32812 20.5C-0.46875 17.4141 -0.46875 13.625 1.32812 10.5C3.125 7.41406 6.40625 5.5 10 5.5C13.5547 5.5 16.8359 7.41406 18.6328 10.5C20.4297 13.625 20.4297 17.4141 18.6328 20.5C16.8359 23.625 13.5547 25.5 10 25.5ZM10 11.125C9.72656 11.125 9.45312 11.2422 9.29688 11.4375L5.23438 15.8125C4.96094 16.0859 4.92188 16.4766 5.07812 16.8281C5.19531 17.1797 5.54688 17.375 5.9375 17.375H14.0625C14.4141 17.375 14.7656 17.1797 14.9219 16.8281C15.0391 16.4766 15 16.0859 14.7266 15.8125L10.6641 11.4375C10.5078 11.2422 10.2344 11.125 10 11.125Z" fill="black" fill-opacity="0.72"/>
</g>
<defs>
<clipPath id="clip0_2556_17260">
<rect width="20" height="30" fill="white"/>
</clipPath>
</defs>
</svg>
