<svg width="18" height="36" viewBox="0 0 18 36" fill="none" xmlns="http://www.w3.org/2000/svg">
<g id="label-paired / xl / file-check-xl / fill" clip-path="url(#clip0_2556_19247)">
<path id="icon" d="M3 6H10.5V12C10.5 12.8438 11.1562 13.5 12 13.5H18V27C18 28.6875 16.6406 30 15 30H3C1.3125 30 0 28.6875 0 27V9C0 7.35938 1.3125 6 3 6ZM12 6L18 12H12V6ZM14.2969 19.1719H14.25C14.7188 18.75 14.7188 18.0469 14.25 17.5781C13.8281 17.1562 13.125 17.1562 12.7031 17.5781L7.45312 22.8281L5.25 20.625C4.82812 20.1562 4.125 20.1562 3.70312 20.625C3.23438 21.0469 3.23438 21.75 3.70312 22.1719L6.70312 25.1719C7.125 25.6406 7.82812 25.6406 8.29688 25.1719L14.2969 19.1719Z" fill="black" fill-opacity="0.72"/>
</g>
<defs>
<clipPath id="clip0_2556_19247">
<rect width="18" height="36" fill="white"/>
</clipPath>
</defs>
</svg>
