<svg width="12" height="18" viewBox="0 0 12 18" fill="none" xmlns="http://www.w3.org/2000/svg">
<g id="label-paired / caption / pen-caption / bold" clip-path="url(#clip0_2556_10029)">
<path id="icon" d="M0.84375 11.9609C0.9375 11.6328 1.125 11.3281 1.35938 11.0938L8.48438 3.96875C9.07031 3.38281 10.0312 3.38281 10.6172 3.96875L11.5312 4.88281C11.6016 4.95312 11.6719 5.04688 11.7188 5.11719C12.1172 5.70312 12.0469 6.5 11.5312 7.01562L4.40625 14.1406C4.38281 14.1641 4.33594 14.1875 4.3125 14.2344C4.07812 14.4219 3.82031 14.5625 3.53906 14.6562L1.71094 15.1953L0.703125 15.5C0.515625 15.5469 0.304688 15.5 0.164062 15.3359C0 15.1953 -0.046875 14.9844 0.0234375 14.7969L0.304688 13.7891L0.84375 11.9609ZM1.92188 12.2891L1.75781 12.8281L1.38281 14.1172L2.67188 13.7422L3.21094 13.5781C3.375 13.5312 3.49219 13.4609 3.60938 13.3438L8.97656 7.97656L7.52344 6.52344L2.15625 11.8906C2.13281 11.8906 2.13281 11.9141 2.10938 11.9375C2.01562 12.0312 1.96875 12.1484 1.92188 12.2891Z" fill="black" fill-opacity="0.72"/>
</g>
<defs>
<clipPath id="clip0_2556_10029">
<rect width="12" height="18" fill="white"/>
</clipPath>
</defs>
</svg>
