<svg width="12" height="18" viewBox="0 0 12 18" fill="none" xmlns="http://www.w3.org/2000/svg">
<g id="label-paired / caption / at-caption / bold" clip-path="url(#clip0_2556_10110)">
<path id="icon" d="M6 4.625C3.30469 4.625 1.125 6.82812 1.125 9.5C1.125 12.1953 3.30469 14.375 6 14.375C6.30469 14.375 6.5625 14.6328 6.5625 14.9375C6.5625 15.2656 6.30469 15.5 6 15.5C2.67188 15.5 0 12.8281 0 9.5C0 6.19531 2.67188 3.5 6 3.5C9.30469 3.5 12 6.19531 12 9.5V10.1562C12 11.3516 11.0156 12.3125 9.84375 12.3125C9.09375 12.3125 8.46094 11.9609 8.0625 11.3984C7.54688 11.9609 6.82031 12.3125 6 12.3125C4.42969 12.3125 3.1875 11.0703 3.1875 9.5C3.1875 7.95312 4.42969 6.6875 6 6.6875C6.65625 6.6875 7.28906 6.94531 7.75781 7.32031C7.875 7.17969 8.03906 7.0625 8.25 7.0625C8.55469 7.0625 8.8125 7.32031 8.8125 7.625V9.5V10.1562C8.8125 10.7422 9.25781 11.1875 9.84375 11.1875C10.4062 11.1875 10.875 10.7422 10.875 10.1562V9.5C10.875 6.82812 8.67188 4.625 6 4.625ZM7.6875 9.5C7.6875 8.91406 7.35938 8.35156 6.84375 8.04688C6.30469 7.74219 5.67188 7.74219 5.15625 8.04688C4.61719 8.35156 4.3125 8.91406 4.3125 9.5C4.3125 10.1094 4.61719 10.6719 5.15625 10.9766C5.67188 11.2812 6.30469 11.2812 6.84375 10.9766C7.35938 10.6719 7.6875 10.1094 7.6875 9.5Z" fill="black" fill-opacity="0.72"/>
</g>
<defs>
<clipPath id="clip0_2556_10110">
<rect width="12" height="18" fill="white"/>
</clipPath>
</defs>
</svg>
