<svg width="14" height="22" viewBox="0 0 14 22" fill="none" xmlns="http://www.w3.org/2000/svg">
<g id="label-paired / sm / circle-sort-up-sm / regular" clip-path="url(#clip0_2556_12712)">
<path id="icon" d="M13.125 10.75C13.125 8.5625 11.9492 6.56641 10.0625 5.47266C8.14844 4.35156 5.82422 4.35156 3.9375 5.47266C2.02344 6.56641 0.875 8.5625 0.875 10.75C0.875 12.9648 2.02344 14.9609 3.9375 16.0547C5.82422 17.1758 8.14844 17.1758 10.0625 16.0547C11.9492 14.9609 13.125 12.9648 13.125 10.75ZM0 10.75C0 8.26172 1.3125 5.96484 3.5 4.70703C5.66016 3.44922 8.3125 3.44922 10.5 4.70703C12.6602 5.96484 14 8.26172 14 10.75C14 13.2656 12.6602 15.5625 10.5 16.8203C8.3125 18.0781 5.66016 18.0781 3.5 16.8203C1.3125 15.5625 0 13.2656 0 10.75ZM6.67188 6.51172C6.83594 6.34766 7.13672 6.34766 7.30078 6.51172L9.92578 9.13672C10.0352 9.27344 10.0898 9.46484 10.0078 9.62891C9.95312 9.76562 9.78906 9.875 9.625 9.875H4.375C4.18359 9.875 4.01953 9.79297 3.96484 9.62891C3.88281 9.46484 3.9375 9.27344 4.04688 9.13672L6.67188 6.51172ZM5.41406 9H8.55859L7 7.44141L5.41406 9ZM4.04688 12.3906C3.88281 12.2266 3.88281 11.9258 4.04688 11.7617C4.21094 11.5977 4.51172 11.5977 4.67578 11.7617L7 14.0859L9.29688 11.7617C9.46094 11.5977 9.76172 11.5977 9.92578 11.7617C10.0898 11.9258 10.0898 12.2266 9.92578 12.3906L7.30078 15.0156C7.13672 15.1797 6.83594 15.1797 6.67188 15.0156L4.04688 12.3906Z" fill="black" fill-opacity="0.72"/>
</g>
<defs>
<clipPath id="clip0_2556_12712">
<rect width="14" height="22" fill="white"/>
</clipPath>
</defs>
</svg>
