<svg width="24" height="36" viewBox="0 0 24 36" fill="none" xmlns="http://www.w3.org/2000/svg">
<g id="label-paired / xl / loader-xl / regular" clip-path="url(#clip0_2981_919)">
<path id="icon" d="M12.75 6.75V11.25C12.75 11.6719 12.375 12 12 12C11.5781 12 11.25 11.6719 11.25 11.25V6.75C11.25 6.375 11.5781 6 12 6C12.375 6 12.75 6.375 12.75 6.75ZM12.75 24.75V29.25C12.75 29.6719 12.375 30 12 30C11.5781 30 11.25 29.6719 11.25 29.25V24.75C11.25 24.375 11.5781 24 12 24C12.375 24 12.75 24.375 12.75 24.75ZM0 18C0 17.625 0.328125 17.25 0.75 17.25H5.25C5.625 17.25 6 17.625 6 18C6 18.4219 5.625 18.75 5.25 18.75H0.75C0.328125 18.75 0 18.4219 0 18ZM18.75 17.25H23.25C23.625 17.25 24 17.625 24 18C24 18.4219 23.625 18.75 23.25 18.75H18.75C18.3281 18.75 18 18.4219 18 18C18 17.625 18.3281 17.25 18.75 17.25ZM20.4844 9.51562C20.7656 9.84375 20.7656 10.3125 20.4844 10.5938L17.2969 13.7812C16.9688 14.0625 16.5 14.0625 16.2188 13.7812C15.9375 13.5 15.9375 13.0312 16.2188 12.7031L19.4062 9.51562C19.6875 9.23438 20.1562 9.23438 20.4844 9.51562ZM7.73438 23.3438L4.54688 26.4844C4.26562 26.8125 3.79688 26.8125 3.51562 26.4844C3.1875 26.2031 3.1875 25.7344 3.51562 25.4531L6.65625 22.2656C6.98438 21.9844 7.45312 21.9844 7.73438 22.2656C8.01562 22.5469 8.01562 23.0156 7.73438 23.3438ZM3.51562 9.51562C3.79688 9.23438 4.26562 9.23438 4.54688 9.51562L7.73438 12.7031C8.01562 13.0312 8.01562 13.5 7.73438 13.7812C7.45312 14.0625 6.98438 14.0625 6.65625 13.7812L3.51562 10.5938C3.1875 10.3125 3.1875 9.84375 3.51562 9.51562ZM17.2969 22.2656L20.4844 25.4531C20.7656 25.7344 20.7656 26.2031 20.4844 26.4844C20.1562 26.8125 19.6875 26.8125 19.4062 26.4844L16.2188 23.3438C15.9375 23.0156 15.9375 22.5469 16.2188 22.2656C16.5 21.9844 16.9688 21.9844 17.2969 22.2656Z" fill="black" fill-opacity="0.72"/>
</g>
<defs>
<clipPath id="clip0_2981_919">
<rect width="24" height="36" fill="white"/>
</clipPath>
</defs>
</svg>
