<svg width="9" height="18" viewBox="0 0 9 18" fill="none" xmlns="http://www.w3.org/2000/svg">
<g id="label-paired / caption / four-caption / regular" clip-path="url(#clip0_2556_10443)">
<path id="icon" d="M4.07812 4.8125L0.960938 11H6.75V6.875C6.75 6.6875 6.91406 6.5 7.125 6.5C7.3125 6.5 7.5 6.6875 7.5 6.875V11H8.625C8.8125 11 9 11.1875 9 11.375C9 11.5859 8.8125 11.75 8.625 11.75H7.5V14.375C7.5 14.5859 7.3125 14.75 7.125 14.75C6.91406 14.75 6.75 14.5859 6.75 14.375V11.7734H0.351562C0.234375 11.7734 0.117188 11.7031 0.046875 11.5859C-0.0234375 11.4688 -0.0234375 11.3281 0.0234375 11.2109L3.39844 4.46094C3.49219 4.27344 3.72656 4.20312 3.91406 4.29688C4.10156 4.39062 4.17188 4.625 4.07812 4.8125Z" fill="black" fill-opacity="0.72"/>
</g>
<defs>
<clipPath id="clip0_2556_10443">
<rect width="9" height="18" fill="white"/>
</clipPath>
</defs>
</svg>
