<svg width="15" height="36" viewBox="0 0 15 36" fill="none" xmlns="http://www.w3.org/2000/svg">
<g id="label-paired / xl / backward-step-xl / fill" clip-path="url(#clip0_2556_19733)">
<path id="icon" d="M12.5156 26.6719L3.51562 19.1719L3 18.7031V25.5C3 26.3438 2.29688 27 1.5 27C0.65625 27 0 26.3438 0 25.5V10.5C0 9.70312 0.65625 9 1.5 9C2.29688 9 3 9.70312 3 10.5V17.2969L3.51562 16.875L12.5156 9.375C12.9844 9 13.5938 8.90625 14.1094 9.14062C14.625 9.42188 15 9.9375 15 10.5V25.5C15 26.1094 14.625 26.625 14.1094 26.8594C13.5938 27.1406 12.9844 27.0469 12.5156 26.6719Z" fill="black" fill-opacity="0.72"/>
</g>
<defs>
<clipPath id="clip0_2556_19733">
<rect width="15" height="36" fill="white"/>
</clipPath>
</defs>
</svg>
