<svg width="18" height="36" viewBox="0 0 18 36" fill="none" xmlns="http://www.w3.org/2000/svg">
<g id="label-paired / xl / microphone-xl / regular" clip-path="url(#clip0_2556_19530)">
<path id="icon" d="M12 10.5C12 8.85938 10.6406 7.5 9 7.5C7.3125 7.5 6 8.85938 6 10.5V18C6 19.6875 7.3125 21 9 21C10.6406 21 12 19.6875 12 18V10.5ZM4.5 10.5C4.5 8.01562 6.51562 6 9 6C11.4844 6 13.5 8.01562 13.5 10.5V18C13.5 20.4844 11.4844 22.5 9 22.5C6.51562 22.5 4.5 20.4844 4.5 18V10.5ZM3 15.75V18C3 21.3281 5.67188 24 9 24C12.2812 24 15 21.3281 15 18V15.75C15 15.375 15.3281 15 15.75 15C16.125 15 16.5 15.375 16.5 15.75V18C16.5 21.8906 13.5 25.125 9.75 25.5V28.5H12.75C13.125 28.5 13.5 28.875 13.5 29.25C13.5 29.6719 13.125 30 12.75 30H9H5.25C4.82812 30 4.5 29.6719 4.5 29.25C4.5 28.875 4.82812 28.5 5.25 28.5H8.25V25.5C4.45312 25.125 1.5 21.8906 1.5 18V15.75C1.5 15.375 1.82812 15 2.25 15C2.625 15 3 15.375 3 15.75Z" fill="black" fill-opacity="0.72"/>
</g>
<defs>
<clipPath id="clip0_2556_19530">
<rect width="18" height="36" fill="white"/>
</clipPath>
</defs>
</svg>
