<svg width="18" height="24" viewBox="0 0 18 24" fill="none" xmlns="http://www.w3.org/2000/svg">
<g id="label-paired / md / arrow-up-one-nine-md / fill" clip-path="url(#clip0_2556_14840)">
<path id="icon" d="M14.0625 5.1875C14.3438 5.375 14.5 5.6875 14.5 6V9H15C15.5312 9 16 9.46875 16 10C16 10.5625 15.5312 11 15 11H13.5H12C11.4375 11 11 10.5625 11 10C11 9.46875 11.4375 9 12 9H12.5V7.40625L12.3125 7.46875C11.7812 7.625 11.2188 7.34375 11.0312 6.84375C10.875 6.3125 11.1562 5.75 11.6562 5.5625L13.1562 5.0625C13.4688 4.96875 13.8125 5.03125 14.0625 5.21875V5.1875ZM5 5C5.28125 5 5.53125 5.125 5.71875 5.34375L8.46875 8.34375C8.84375 8.75 8.8125 9.375 8.40625 9.75C8 10.125 7.375 10.0938 7 9.6875L6 8.59375V18C6 18.5625 5.53125 19 5 19C4.4375 19 4 18.5625 4 18V8.59375L2.96875 9.6875C2.59375 10.0938 1.96875 10.125 1.5625 9.75C1.15625 9.375 1.125 8.75 1.5 8.34375L4.25 5.34375C4.4375 5.125 4.71875 5 5 5ZM13.9062 15.4062C14.4062 15.1875 14.625 14.5938 14.375 14.0938C14.1562 13.5938 13.5625 13.375 13.0625 13.5938C12.5625 13.8438 12.3438 14.4375 12.5938 14.9375C12.8125 15.4375 13.4062 15.6562 13.9062 15.4062ZM12.6562 17.125C11.5312 16.7812 10.75 15.75 10.75 14.5C10.75 13 11.9688 11.75 13.5 11.75C15 11.75 16.25 13 16.25 14.5C16.25 15.25 16 15.9688 15.5625 16.5625L14.0312 18.5938C13.7188 19.0625 13.0938 19.1562 12.625 18.8125C12.1875 18.5 12.0938 17.875 12.4375 17.4062L12.6562 17.125Z" fill="black" fill-opacity="0.72"/>
</g>
<defs>
<clipPath id="clip0_2556_14840">
<rect width="18" height="24" fill="white"/>
</clipPath>
</defs>
</svg>
