<svg width="18" height="36" viewBox="0 0 18 36" fill="none" xmlns="http://www.w3.org/2000/svg">
<g id="label-paired / xl / file-chart-column-xl / fill" clip-path="url(#clip0_2556_19908)">
<path id="icon" d="M3 6H10.5V12C10.5 12.8438 11.1562 13.5 12 13.5H18V27C18 28.6875 16.6406 30 15 30H3C1.3125 30 0 28.6875 0 27V9C0 7.35938 1.3125 6 3 6ZM12 6L18 12H12V6ZM10.125 17.625C10.125 17.0156 9.60938 16.5 9 16.5C8.34375 16.5 7.875 17.0156 7.875 17.625V25.875C7.875 26.5312 8.34375 27 9 27C9.60938 27 10.125 26.5312 10.125 25.875V17.625ZM14.25 20.625C14.25 20.0156 13.7344 19.5 13.125 19.5C12.4688 19.5 12 20.0156 12 20.625V25.875C12 26.5312 12.4688 27 13.125 27C13.7344 27 14.25 26.5312 14.25 25.875V20.625ZM6 23.625C6 23.0156 5.48438 22.5 4.875 22.5C4.21875 22.5 3.75 23.0156 3.75 23.625V25.875C3.75 26.5312 4.21875 27 4.875 27C5.48438 27 6 26.5312 6 25.875V23.625Z" fill="black" fill-opacity="0.72"/>
</g>
<defs>
<clipPath id="clip0_2556_19908">
<rect width="18" height="36" fill="white"/>
</clipPath>
</defs>
</svg>
