<svg width="18" height="24" viewBox="0 0 18 24" fill="none" xmlns="http://www.w3.org/2000/svg">
<g id="label-paired / md / star-md / fill" clip-path="url(#clip0_2556_14988)">
<path id="icon" d="M9.875 4.5625L11.9062 8.71875L16.375 9.375C16.75 9.4375 17.0625 9.6875 17.1875 10.0625C17.3125 10.4062 17.2188 10.8125 16.9375 11.0625L13.6875 14.2812L14.4688 18.8438C14.5312 19.2188 14.375 19.5938 14.0625 19.8125C13.75 20.0625 13.3438 20.0625 13 19.9062L9 17.75L4.96875 19.9062C4.65625 20.0625 4.25 20.0625 3.9375 19.8125C3.625 19.5938 3.46875 19.2188 3.53125 18.8438L4.28125 14.2812L1.03125 11.0625C0.78125 10.8125 0.6875 10.4062 0.78125 10.0625C0.90625 9.6875 1.21875 9.4375 1.59375 9.375L6.09375 8.71875L8.09375 4.5625C8.25 4.21875 8.59375 4 9 4C9.375 4 9.71875 4.21875 9.875 4.5625Z" fill="black" fill-opacity="0.72"/>
</g>
<defs>
<clipPath id="clip0_2556_14988">
<rect width="18" height="24" fill="white"/>
</clipPath>
</defs>
</svg>
