<svg width="30" height="36" viewBox="0 0 30 36" fill="none" xmlns="http://www.w3.org/2000/svg">
<g id="label-paired / xl / laptop-mobile-xl / bold" clip-path="url(#clip0_2556_19403)">
<path id="icon" d="M6 8.25C5.57812 8.25 5.25 8.625 5.25 9V21H16.5V24H2.25C0.984375 24 0 23.0156 0 21.75C0 21.375 0.328125 21 0.75 21H3V9C3 7.35938 4.3125 6 6 6H21C22.6406 6 24 7.35938 24 9V10.5H21.75V9C21.75 8.625 21.375 8.25 21 8.25H6ZM18 14.25C18 13.0312 18.9844 12 20.25 12H27.75C28.9688 12 30 13.0312 30 14.25V27.75C30 29.0156 28.9688 30 27.75 30H20.25C18.9844 30 18 29.0156 18 27.75V14.25ZM20.25 14.25V27.75H27.75V14.25H20.25Z" fill="black" fill-opacity="0.72"/>
</g>
<defs>
<clipPath id="clip0_2556_19403">
<rect width="30" height="36" fill="white"/>
</clipPath>
</defs>
</svg>
