<svg width="16" height="22" viewBox="0 0 16 22" fill="none" xmlns="http://www.w3.org/2000/svg">
<g id="label-paired / sm / video-sm / regular" clip-path="url(#clip0_2556_12604)">
<path id="icon" d="M1.875 6.375C1.38281 6.375 1 6.78516 1 7.25V14.25C1 14.7422 1.38281 15.125 1.875 15.125H8.875C9.33984 15.125 9.75 14.7422 9.75 14.25V7.25C9.75 6.78516 9.33984 6.375 8.875 6.375H1.875ZM0.125 7.25C0.125 6.29297 0.890625 5.5 1.875 5.5H8.875C9.83203 5.5 10.625 6.29297 10.625 7.25V8.5625V12.9648V14.25C10.625 15.2344 9.83203 16 8.875 16H1.875C0.890625 16 0.125 15.2344 0.125 14.25V7.25ZM14.3164 15.0156L11.5 13.457V12.4453L14.7266 14.25C14.7539 14.25 14.7812 14.2773 14.8086 14.2773C14.918 14.2773 15 14.1953 15 14.0859V7.44141C15 7.33203 14.918 7.25 14.8086 7.25C14.7812 7.25 14.7539 7.27734 14.7266 7.27734L11.5 9.08203V8.07031L14.3164 6.51172C14.4805 6.42969 14.6445 6.375 14.8086 6.375C15.3828 6.375 15.875 6.86719 15.875 7.44141V14.0859C15.875 14.6602 15.3828 15.125 14.8086 15.125C14.6445 15.125 14.4805 15.0977 14.3164 15.0156Z" fill="black" fill-opacity="0.72"/>
</g>
<defs>
<clipPath id="clip0_2556_12604">
<rect width="16" height="22" fill="white"/>
</clipPath>
</defs>
</svg>
