<svg width="15" height="18" viewBox="0 0 15 18" fill="none" xmlns="http://www.w3.org/2000/svg">
<g id="label-paired / caption / link-caption / regular" clip-path="url(#clip0_4460_519)">
<path id="icon" d="M13.8516 9.5L10.9219 12.4297C9.75 13.6016 7.85156 13.6016 6.70312 12.4297C5.57812 11.3047 5.50781 9.52344 6.53906 8.35156L6.67969 8.21094C6.79688 8.04688 7.05469 8.02344 7.19531 8.16406C7.35938 8.30469 7.38281 8.53906 7.24219 8.70312L7.125 8.84375C6.35156 9.73438 6.39844 11.0703 7.21875 11.8906C8.10938 12.7812 9.51562 12.7812 10.4062 11.8906L13.3125 8.98438C14.2031 8.09375 14.2031 6.6875 13.3125 5.79688C12.4453 4.92969 11.0156 4.92969 10.1484 5.79688L9.60938 6.33594C9.46875 6.47656 9.23438 6.47656 9.07031 6.33594C8.92969 6.17188 8.92969 5.9375 9.07031 5.79688L9.60938 5.25781C10.7812 4.08594 12.6797 4.08594 13.8516 5.25781C15.0234 6.42969 15.0234 8.32812 13.8516 9.5ZM1.125 9.5L4.05469 6.59375C5.22656 5.42188 7.10156 5.42188 8.29688 6.59375C9.39844 7.69531 9.46875 9.47656 8.4375 10.6719L8.29688 10.8125C8.17969 10.9766 7.94531 11 7.78125 10.8594C7.61719 10.7188 7.59375 10.4844 7.73438 10.3203L7.875 10.1797C8.625 9.28906 8.57812 7.95312 7.75781 7.13281C6.86719 6.24219 5.46094 6.24219 4.57031 7.13281L1.66406 10.0391C0.773438 10.9297 0.773438 12.3359 1.66406 13.2266C2.53125 14.0938 3.96094 14.0938 4.82812 13.2266L5.36719 12.6875C5.50781 12.5469 5.74219 12.5469 5.90625 12.6875C6.04688 12.8281 6.04688 13.0859 5.90625 13.2266L5.36719 13.7422C4.19531 14.9141 2.29688 14.9141 1.125 13.7422C-0.046875 12.5703 -0.046875 10.6719 1.125 9.5Z" fill="black" fill-opacity="0.72"/>
</g>
<defs>
<clipPath id="clip0_4460_519">
<rect width="15" height="18" fill="white"/>
</clipPath>
</defs>
</svg>
