<svg width="11" height="22" viewBox="0 0 11 22" fill="none" xmlns="http://www.w3.org/2000/svg">
<g id="label-paired / sm / moon-sm / fill" clip-path="url(#clip0_2556_12794)">
<path id="icon" d="M6.34766 4.625V4.65234C6.51172 4.65234 6.70312 4.65234 6.86719 4.65234C7.05859 4.67969 7.22266 4.81641 7.25 5.00781C7.30469 5.19922 7.22266 5.39062 7.05859 5.47266C5.58203 6.29297 4.59766 7.87891 4.59766 9.65625C4.59766 12.3359 6.75781 14.4688 9.41016 14.4688C9.68359 14.4688 9.95703 14.4688 10.2305 14.4141C10.4219 14.3867 10.6133 14.4688 10.6953 14.6328C10.7773 14.8242 10.75 15.0156 10.6133 15.1523C9.51953 16.2188 8.01562 16.875 6.34766 16.875C2.98438 16.875 0.25 14.1406 0.25 10.75C0.25 7.38672 2.98438 4.625 6.34766 4.625Z" fill="black" fill-opacity="0.72"/>
</g>
<defs>
<clipPath id="clip0_2556_12794">
<rect width="11" height="22" fill="white"/>
</clipPath>
</defs>
</svg>
