<svg width="12" height="18" viewBox="0 0 12 18" fill="none" xmlns="http://www.w3.org/2000/svg">
<g id="label-paired / caption / clapperboard-play-caption / bold" clip-path="url(#clip0_3431_676)">
<path id="icon" d="M1.125 13.25C1.125 13.4609 1.28906 13.625 1.5 13.625H10.5C10.6875 13.625 10.875 13.4609 10.875 13.25V8.375H1.125V13.25ZM7.875 7.25H9.375L10.875 5.75C10.875 5.5625 10.6875 5.375 10.5 5.375H9.75L7.875 7.25ZM5.625 7.25L7.5 5.375H6L4.125 7.25H5.625ZM1.875 7.25L3.75 5.375H2.25L1.125 6.5V7.25H1.875ZM12 5.75V7.25V7.8125V8.375V13.25C12 14.0938 11.3203 14.75 10.5 14.75H1.5C0.65625 14.75 0 14.0938 0 13.25V8.375V7.8125V7.25V5.75C0 4.92969 0.65625 4.25 1.5 4.25H10.5C11.3203 4.25 12 4.92969 12 5.75ZM5.0625 9.17188C5.17969 9.125 5.34375 9.125 5.4375 9.19531L7.6875 10.6953C7.80469 10.7656 7.875 10.8828 7.875 11C7.875 11.1406 7.80469 11.2578 7.6875 11.3281L5.4375 12.8281C5.34375 12.8984 5.17969 12.8984 5.0625 12.8516C4.94531 12.7812 4.875 12.6406 4.875 12.5V9.5C4.875 9.38281 4.94531 9.24219 5.0625 9.17188Z" fill="black" fill-opacity="0.72"/>
</g>
<defs>
<clipPath id="clip0_3431_676">
<rect width="12" height="18" fill="white"/>
</clipPath>
</defs>
</svg>
