<svg width="14" height="22" viewBox="0 0 14 22" fill="none" xmlns="http://www.w3.org/2000/svg">
<g id="label-paired / sm / phone-sm / bold" clip-path="url(#clip0_2556_12824)">
<path id="icon" d="M10.2539 11.2969L13.3164 12.6094C13.8086 12.8008 14.082 13.3203 13.9727 13.8398L13.3164 16.9023C13.207 17.3945 12.7422 17.7773 12.25 17.7773C12.0586 17.7773 11.8945 17.75 11.7305 17.75C11.457 17.75 11.1836 17.7227 10.9375 17.6953C4.78516 17.0391 0 11.8438 0 5.5C0 5.00781 0.355469 4.54297 0.847656 4.43359L3.91016 3.77734C4.42969 3.66797 4.94922 3.94141 5.14062 4.43359L6.45312 7.49609C6.64453 7.93359 6.53516 8.45312 6.15234 8.75391L5.03125 9.68359C5.76953 10.9414 6.80859 11.9805 8.06641 12.7188L8.99609 11.5977C9.29688 11.2148 9.81641 11.1055 10.2539 11.2969ZM12.0586 16.4375L12.6328 13.7305L9.89844 12.5547L9.10547 13.5391C8.69531 14.0312 7.98438 14.168 7.41016 13.8398C5.96094 12.9922 4.75781 11.7891 3.91016 10.3398C3.58203 9.76562 3.71875 9.05469 4.21094 8.64453L5.19531 7.85156L4.01953 5.11719L1.3125 5.69141C1.39453 11.5977 6.15234 16.3555 12.0586 16.4375Z" fill="black" fill-opacity="0.72"/>
</g>
<defs>
<clipPath id="clip0_2556_12824">
<rect width="14" height="22" fill="white"/>
</clipPath>
</defs>
</svg>
