<svg width="12" height="18" viewBox="0 0 12 18" fill="none" xmlns="http://www.w3.org/2000/svg">
<g id="label-paired / caption / search-caption / bold" clip-path="url(#clip0_2556_10628)">
<path id="icon" d="M8.625 8.375C8.625 7.03906 7.89844 5.82031 6.75 5.14062C5.57812 4.46094 4.14844 4.46094 3 5.14062C1.82812 5.82031 1.125 7.03906 1.125 8.375C1.125 9.73438 1.82812 10.9531 3 11.6328C4.14844 12.3125 5.57812 12.3125 6.75 11.6328C7.89844 10.9531 8.625 9.73438 8.625 8.375ZM7.89844 12.2188C7.05469 12.875 6 13.25 4.875 13.25C2.17969 13.25 0 11.0703 0 8.375C0 5.70312 2.17969 3.5 4.875 3.5C7.54688 3.5 9.75 5.70312 9.75 8.375C9.75 9.52344 9.35156 10.5781 8.69531 11.4219L11.8359 14.5391C12.0469 14.7734 12.0469 15.125 11.8359 15.3359C11.6016 15.5703 11.25 15.5703 11.0391 15.3359L7.89844 12.2188Z" fill="black" fill-opacity="0.72"/>
</g>
<defs>
<clipPath id="clip0_2556_10628">
<rect width="12" height="18" fill="white"/>
</clipPath>
</defs>
</svg>
