<svg width="15" height="18" viewBox="0 0 15 18" fill="none" xmlns="http://www.w3.org/2000/svg">
<g id="label-paired / caption / handshake-caption / bold" clip-path="url(#clip0_4513_673)">
<path id="icon" d="M6.375 5.02344L5.17969 6.21875C4.80469 6.3125 4.47656 6.5 4.19531 6.75781L3.58594 7.29688C3.32812 7.50781 3.02344 7.625 2.69531 7.625H2.25V10.625C2.71875 10.6484 3.16406 10.8359 3.51562 11.1875L4.33594 12.0078L4.5 12.1719L5.13281 12.8047C5.29688 12.9688 5.53125 12.9688 5.67188 12.8047C5.71875 12.7812 5.74219 12.7344 5.76562 12.6875C5.83594 12.5 5.97656 12.3594 6.16406 12.3125C6.35156 12.2891 6.53906 12.3359 6.67969 12.4766L6.9375 12.7109C7.21875 12.9922 7.64062 12.9922 7.92188 12.7109C8.03906 12.5938 8.10938 12.4297 8.13281 12.2656C8.13281 12.0547 8.25 11.8672 8.4375 11.7969C8.625 11.7031 8.83594 11.7266 9.02344 11.8438C9.23438 11.9844 9.53906 11.9844 9.72656 11.7734C9.96094 11.5625 9.96094 11.2109 9.72656 10.9766L7.96875 9.19531L7.125 9.96875C6.49219 10.5781 5.50781 10.5781 4.85156 9.99219C4.10156 9.33594 4.07812 8.1875 4.80469 7.50781L6.44531 5.96094C7.10156 5.35156 7.94531 5 8.83594 5C9.67969 5 10.5 5.32812 11.1328 5.89062L11.8359 6.5H12.75H13.6875H14.625C14.8125 6.5 15 6.6875 15 6.875V11.75C15 12.1719 14.6484 12.5 14.25 12.5H13.5C13.2188 12.5 12.9609 12.3594 12.8438 12.125H10.8516C10.7812 12.2891 10.6641 12.4531 10.5234 12.5703C10.125 12.9688 9.58594 13.1328 9.04688 13.0391C8.97656 13.2266 8.85938 13.3672 8.71875 13.5078C8.08594 14.1641 7.07812 14.2109 6.35156 13.7188C5.76562 14.1875 4.89844 14.1641 4.33594 13.6016L3.72656 12.9688L3.5625 12.8047L2.71875 11.9844C2.57812 11.8438 2.41406 11.7734 2.25 11.7734C2.25 12.1719 1.89844 12.5 1.5 12.5H0.75C0.328125 12.5 0 12.1719 0 11.75V6.875C0 6.6875 0.164062 6.5 0.375 6.5H1.3125H2.25H2.69531C2.74219 6.5 2.78906 6.5 2.83594 6.45312L3.44531 5.91406C4.10156 5.32812 4.94531 5 5.8125 5H6.07031C6.16406 5 6.25781 5.02344 6.375 5.02344ZM12.75 11V7.625H11.625C11.4844 7.625 11.3438 7.57812 11.25 7.48438L10.3828 6.73438C9.96094 6.33594 9.39844 6.125 8.83594 6.125C8.22656 6.125 7.66406 6.35938 7.21875 6.78125L5.57812 8.32812C5.34375 8.5625 5.34375 8.9375 5.60156 9.14844C5.8125 9.35938 6.14062 9.35938 6.35156 9.14844L8.03906 7.60156C8.27344 7.39062 8.625 7.39062 8.83594 7.625C9.04688 7.85938 9.02344 8.21094 8.8125 8.42188L8.78906 8.44531L10.5234 10.1797C10.7578 10.4141 10.9219 10.7188 10.9922 11H12.7266H12.75ZM1.5 11.375C1.5 11.1875 1.3125 11 1.125 11C0.914062 11 0.75 11.1875 0.75 11.375C0.75 11.5859 0.914062 11.75 1.125 11.75C1.3125 11.75 1.5 11.5859 1.5 11.375ZM13.875 11.75C14.0625 11.75 14.25 11.5859 14.25 11.375C14.25 11.1875 14.0625 11 13.875 11C13.6641 11 13.5 11.1875 13.5 11.375C13.5 11.5859 13.6641 11.75 13.875 11.75Z" fill="black" fill-opacity="0.72"/>
</g>
<defs>
<clipPath id="clip0_4513_673">
<rect width="15" height="18" fill="white"/>
</clipPath>
</defs>
</svg>
