<svg width="16" height="24" viewBox="0 0 16 24" fill="none" xmlns="http://www.w3.org/2000/svg">
<g id="label-paired / md / gear-md / fill" clip-path="url(#clip0_2556_15218)">
<path id="icon" d="M15.4688 9.21875C15.5938 9.5 15.5 9.78125 15.2812 10L13.9375 11.2188C13.9688 11.4688 13.9688 11.75 13.9688 12C13.9688 12.2812 13.9688 12.5625 13.9375 12.8125L15.2812 14.0312C15.5 14.2188 15.5938 14.5312 15.4688 14.8125C15.3438 15.1875 15.1875 15.5312 15 15.875L14.8438 16.125C14.625 16.4688 14.4062 16.8125 14.1562 17.0938C13.9688 17.3438 13.6562 17.4062 13.375 17.3125L11.6562 16.7812C11.2188 17.0938 10.75 17.3438 10.2812 17.5625L9.875 19.3438C9.8125 19.625 9.59375 19.8438 9.3125 19.9062C8.875 19.9688 8.4375 20 7.96875 20C7.53125 20 7.09375 19.9688 6.65625 19.9062C6.375 19.8438 6.15625 19.625 6.09375 19.3438L5.6875 17.5625C5.1875 17.3438 4.75 17.0938 4.3125 16.7812L2.59375 17.3125C2.3125 17.4062 2 17.3438 1.8125 17.125C1.5625 16.8125 1.34375 16.4688 1.125 16.125L0.96875 15.875C0.78125 15.5312 0.625 15.1875 0.5 14.8125C0.375 14.5312 0.46875 14.25 0.6875 14.0312L2.03125 12.8125C2 12.5625 2 12.2812 2 12C2 11.75 2 11.4688 2.03125 11.2188L0.6875 10C0.46875 9.78125 0.375 9.5 0.5 9.21875C0.625 8.84375 0.78125 8.5 0.96875 8.15625L1.125 7.90625C1.34375 7.5625 1.5625 7.21875 1.8125 6.90625C2 6.6875 2.3125 6.625 2.59375 6.71875L4.3125 7.25C4.75 6.9375 5.21875 6.65625 5.6875 6.46875L6.09375 4.6875C6.15625 4.40625 6.375 4.1875 6.65625 4.125C7.09375 4.0625 7.53125 4 8 4C8.4375 4 8.875 4.0625 9.3125 4.125C9.59375 4.15625 9.8125 4.40625 9.875 4.6875L10.2812 6.46875C10.7812 6.65625 11.2188 6.9375 11.6562 7.25L13.375 6.71875C13.6562 6.625 13.9688 6.6875 14.1562 6.90625C14.4062 7.21875 14.625 7.5625 14.8438 7.90625L15 8.15625C15.1875 8.5 15.3438 8.84375 15.5 9.21875H15.4688ZM8 14.5C8.875 14.5 9.6875 14.0312 10.1562 13.25C10.5938 12.5 10.5938 11.5312 10.1562 10.75C9.6875 10 8.875 9.5 8 9.5C7.09375 9.5 6.28125 10 5.8125 10.75C5.375 11.5312 5.375 12.5 5.8125 13.25C6.28125 14.0312 7.09375 14.5 8 14.5Z" fill="black" fill-opacity="0.72"/>
</g>
<defs>
<clipPath id="clip0_2556_15218">
<rect width="16" height="24" fill="white"/>
</clipPath>
</defs>
</svg>
