<svg width="21" height="36" viewBox="0 0 21 36" fill="none" xmlns="http://www.w3.org/2000/svg">
<g id="label-paired / xl / arrow-left-to-line-xl / bold" clip-path="url(#clip0_2556_19643)">
<path id="icon" d="M0 25.875V10.125C0 9.51562 0.46875 9 1.125 9C1.73438 9 2.25 9.51562 2.25 10.125V25.875C2.25 26.5312 1.73438 27 1.125 27C0.46875 27 0 26.5312 0 25.875ZM6.32812 17.2031L12.7031 11.2031C13.1719 10.7812 13.875 10.7812 14.2969 11.25C14.7188 11.7188 14.7188 12.4219 14.25 12.8438L9.9375 16.875H13.875H19.875C20.4844 16.875 21 17.3906 21 18C21 18.6562 20.4844 19.125 19.875 19.125H13.875H9.9375L14.25 23.2031C14.7188 23.625 14.7188 24.3281 14.2969 24.7969C13.875 25.2656 13.1719 25.2656 12.7031 24.8438L6.32812 18.8438C6.09375 18.6094 6 18.3281 6 18C6 17.7188 6.09375 17.3906 6.32812 17.2031Z" fill="black" fill-opacity="0.72"/>
</g>
<defs>
<clipPath id="clip0_2556_19643">
<rect width="21" height="36" fill="white"/>
</clipPath>
</defs>
</svg>
