<svg width="16" height="24" viewBox="0 0 16 24" fill="none" xmlns="http://www.w3.org/2000/svg">
<g id="label-paired / md / fingerprint-md / regular" clip-path="url(#clip0_2512_1098)">
<path id="icon" d="M1 12V13.5C0.979167 13.8125 0.8125 13.9792 0.5 14C0.1875 13.9792 0.0208333 13.8125 0 13.5V12C0.0208333 10.5 0.385417 9.15625 1.09375 7.96875C1.80208 6.76042 2.76042 5.80208 3.96875 5.09375C5.15625 4.38542 6.5 4.02083 8 4C9.27083 4.02083 10.4375 4.29167 11.5 4.8125C12.5625 5.33333 13.4688 6.05208 14.2188 6.96875C14.3854 7.21875 14.3646 7.44792 14.1562 7.65625C13.8854 7.84375 13.6458 7.82292 13.4375 7.59375C12.7917 6.80208 12 6.17708 11.0625 5.71875C10.125 5.23958 9.10417 5 8 5C6.6875 5.02083 5.51042 5.34375 4.46875 5.96875C3.40625 6.57292 2.57292 7.40625 1.96875 8.46875C1.34375 9.51042 1.02083 10.6875 1 12ZM15.7188 9.875C15.9062 10.5417 16 11.25 16 12V13.5C15.9792 13.7917 15.8125 13.9583 15.5 14C15.1875 13.9583 15.0208 13.7917 15 13.5V12C15 11.3542 14.9167 10.7292 14.75 10.125C14.6875 9.83333 14.8021 9.63542 15.0938 9.53125C15.4062 9.46875 15.6146 9.58333 15.7188 9.875ZM8 6.5C9.5625 6.54167 10.8542 7.08333 11.875 8.125C12.9167 9.14583 13.4583 10.4375 13.5 12V12.7812C13.5 13.7188 13.4375 14.6458 13.3125 15.5625C13.25 15.8333 13.0938 15.9792 12.8438 16C12.4896 15.9583 12.3229 15.7604 12.3438 15.4062C12.4479 14.5312 12.5 13.6562 12.5 12.7812V12C12.4583 10.7292 12.0208 9.66667 11.1875 8.8125C10.3333 7.95833 9.27083 7.52083 8 7.5C7.4375 7.5 6.91667 7.59375 6.4375 7.78125C6.1875 7.86458 5.97917 7.8125 5.8125 7.625C5.60417 7.3125 5.65625 7.0625 5.96875 6.875C6.61458 6.625 7.29167 6.5 8 6.5ZM4.53125 8.4375C4.69792 8.66667 4.69792 8.90625 4.53125 9.15625C3.86458 9.94792 3.52083 10.8958 3.5 12V12.7812C3.5 13.7604 3.38542 14.7188 3.15625 15.6562C3.07292 15.8646 2.91667 15.9792 2.6875 16C2.3125 15.9375 2.14583 15.7188 2.1875 15.3438C2.39583 14.5104 2.5 13.6562 2.5 12.7812V12C2.52083 10.6042 2.95833 9.41667 3.8125 8.4375C4.0625 8.20833 4.30208 8.20833 4.53125 8.4375ZM8 9C8.85417 9.02083 9.5625 9.3125 10.125 9.875C10.6875 10.4375 10.9792 11.1458 11 12V12.7812C11 14.0729 10.8646 15.3542 10.5938 16.625C10.5312 16.8542 10.375 16.9792 10.125 17C9.77083 16.9583 9.60417 16.75 9.625 16.375C9.875 15.1875 10 13.9896 10 12.7812V12C9.97917 11.4375 9.78125 10.9688 9.40625 10.5938C9.03125 10.2188 8.5625 10.0208 8 10C7.4375 10.0208 6.96875 10.2188 6.59375 10.5938C6.21875 10.9688 6.02083 11.4375 6 12V12.7812C6 14.0938 5.82292 15.3854 5.46875 16.6562C5.38542 16.8646 5.22917 16.9792 5 17C4.8125 17 4.67708 16.9271 4.59375 16.7812C4.48958 16.6562 4.45833 16.5104 4.5 16.3438C4.83333 15.1771 5 13.9896 5 12.7812V12C5.02083 11.1458 5.3125 10.4375 5.875 9.875C6.4375 9.3125 7.14583 9.02083 8 9ZM8.5 12V12.7812C8.5 14.8229 8.13542 16.8021 7.40625 18.7188L7.21875 19.1875C7.07292 19.4583 6.85417 19.5521 6.5625 19.4688C6.29167 19.3229 6.19792 19.1042 6.28125 18.8125L6.46875 18.3438C7.15625 16.5521 7.5 14.6979 7.5 12.7812V12C7.52083 11.6875 7.6875 11.5208 8 11.5C8.3125 11.5208 8.47917 11.6875 8.5 12Z" fill="black" fill-opacity="0.72"/>
</g>
<defs>
<clipPath id="clip0_2512_1098">
<rect width="16" height="24" fill="white"/>
</clipPath>
</defs>
</svg>
