<svg width="10" height="24" viewBox="0 0 10 24" fill="none" xmlns="http://www.w3.org/2000/svg">
<g id="label-paired / md / two-md / regular" clip-path="url(#clip0_2556_14846)">
<path id="icon" d="M4.625 6C3.71875 6 2.84375 6.375 2.1875 7L1.34375 7.875C1.15625 8.0625 0.8125 8.0625 0.625 7.875C0.4375 7.6875 0.4375 7.34375 0.625 7.15625L1.5 6.3125C2.3125 5.46875 3.4375 5 4.625 5C7 5 9 6.9375 9 9.34375C9 10.5625 8.5 11.6875 7.625 12.5312L1.75 18H9.5C9.75 18 10 18.25 10 18.5C10 18.7812 9.75 19 9.5 19H0.5C0.28125 19 0.09375 18.875 0.03125 18.6875C-0.0625 18.5 0 18.2812 0.15625 18.1562L6.9375 11.7812C7.59375 11.1562 8 10.2812 8 9.34375C8 7.5 6.46875 6 4.625 6Z" fill="black" fill-opacity="0.72"/>
</g>
<defs>
<clipPath id="clip0_2556_14846">
<rect width="10" height="24" fill="white"/>
</clipPath>
</defs>
</svg>
