<svg width="24" height="36" viewBox="0 0 24 36" fill="none" xmlns="http://www.w3.org/2000/svg">
<g id="label-paired / xl / deriv-brand-logo-xl / fill" clip-path="url(#clip0_5147_504)">
<path id="icon" d="M17.5312 23.9062L17.4844 24.1406C16.9219 26.4844 14.7188 28.3594 12.3281 28.5H12.0938H8.95312H8.625C5.29688 28.3125 3.09375 25.5469 3.70312 22.1719L3.98438 20.6719C4.59375 17.2969 7.73438 14.4844 11.1094 14.3438L11.4375 14.2969H15.1875L16.3125 8.20312L20.3906 7.5L17.5312 23.9062ZM10.9688 18.0938C9.46875 18.2344 8.15625 19.5 7.875 20.9531L7.73438 21.8906C7.45312 23.4375 8.48438 24.75 10.0781 24.75H12C12.75 24.75 13.4531 24.0938 13.6406 23.3438L14.5312 18.0938H11.25H10.9688Z" fill="black" fill-opacity="0.72"/>
</g>
<defs>
<clipPath id="clip0_5147_504">
<rect width="24" height="36" fill="white"/>
</clipPath>
</defs>
</svg>
