<svg width="18" height="22" viewBox="0 0 18 22" fill="none" xmlns="http://www.w3.org/2000/svg">
<g id="label-paired / sm / link-sm / bold" clip-path="url(#clip0_4460_528)">
<path id="icon" d="M16.1094 11.0781L13.0195 14.168C11.4609 15.6992 8.97266 15.6992 7.44141 14.168C5.99219 12.6914 5.91016 10.3672 7.25 8.80859L7.38672 8.64453C7.63281 8.37109 8.04297 8.34375 8.31641 8.58984C8.58984 8.83594 8.61719 9.24609 8.37109 9.51953L8.26172 9.65625C7.33203 10.6953 7.38672 12.2539 8.37109 13.2383C9.38281 14.25 11.0508 14.25 12.0898 13.2383L15.1797 10.1484C16.1914 9.10938 16.1914 7.46875 15.1797 6.42969C14.1953 5.47266 12.6367 5.41797 11.5977 6.32031L11.4336 6.45703C11.1602 6.70312 10.75 6.67578 10.5039 6.40234C10.2578 6.12891 10.2852 5.71875 10.5586 5.47266L10.7227 5.33594C12.2812 3.96875 14.6328 4.05078 16.1094 5.5C17.6406 7.03125 17.6406 9.51953 16.1094 11.0781ZM1.86328 10.4492L4.98047 7.35938C6.51172 5.82812 9 5.82812 10.5312 7.35938C12.0078 8.80859 12.0898 11.1602 10.7227 12.7188L10.5586 12.8828C10.3398 13.1562 9.90234 13.2109 9.62891 12.9648C9.35547 12.7188 9.32812 12.3086 9.57422 12.0352L9.73828 11.8711C10.6406 10.832 10.5859 9.27344 9.60156 8.28906C8.58984 7.25 6.92188 7.25 5.91016 8.28906L2.79297 11.3789C1.78125 12.3906 1.78125 14.0586 2.79297 15.0977C3.77734 16.0547 5.33594 16.1094 6.375 15.207L6.53906 15.0703C6.8125 14.8242 7.22266 14.8516 7.46875 15.125C7.71484 15.3984 7.6875 15.8086 7.41406 16.0547L7.25 16.1914C5.69141 17.5586 3.33984 17.4766 1.86328 16.0273C0.332031 14.4961 0.332031 11.9805 1.86328 10.4492Z" fill="black" fill-opacity="0.72"/>
</g>
<defs>
<clipPath id="clip0_4460_528">
<rect width="18" height="22" fill="white"/>
</clipPath>
</defs>
</svg>
