<svg width="20" height="30" viewBox="0 0 20 30" fill="none" xmlns="http://www.w3.org/2000/svg">
<g id="label-paired / lg / right-from-bracket-lg / fill" clip-path="url(#clip0_2556_17559)">
<path id="icon" d="M14.7266 9.64062L19.5312 14.4453C19.8047 14.7188 20 15.1094 20 15.5C20 15.9297 19.8047 16.3203 19.5312 16.5938L14.7266 21.3984C14.4922 21.6328 14.1406 21.75 13.7891 21.75C13.0859 21.75 12.5 21.1641 12.5 20.4609V18H7.5C6.79688 18 6.25 17.4531 6.25 16.75V14.25C6.25 13.5859 6.79688 13 7.5 13H12.5V10.5781C12.5 9.875 13.0859 9.25 13.7891 9.25C14.1406 9.25 14.4922 9.40625 14.7266 9.64062ZM6.25 9.25H3.75C3.04688 9.25 2.5 9.83594 2.5 10.5V20.5C2.5 21.2031 3.04688 21.75 3.75 21.75H6.25C6.91406 21.75 7.5 22.3359 7.5 23C7.5 23.7031 6.91406 24.25 6.25 24.25H3.75C1.67969 24.25 0 22.5703 0 20.5V10.5C0 8.42969 1.67969 6.75 3.75 6.75H6.25C6.91406 6.75 7.5 7.33594 7.5 8C7.5 8.70312 6.91406 9.25 6.25 9.25Z" fill="black" fill-opacity="0.72"/>
</g>
<defs>
<clipPath id="clip0_2556_17559">
<rect width="20" height="30" fill="white"/>
</clipPath>
</defs>
</svg>
