<svg width="10" height="24" viewBox="0 0 10 24" fill="none" xmlns="http://www.w3.org/2000/svg">
<g id="label-paired / md / question-md / fill" clip-path="url(#clip0_3578_651)">
<path id="icon" d="M2.5 9C2.5 9.5625 2.03125 10 1.5 10C0.9375 10 0.5 9.5625 0.5 9C0.5 6.8125 2.28125 5 4.5 5H5.5C7.6875 5 9.5 6.8125 9.5 9V9.125C9.5 10.5 8.78125 11.75 7.65625 12.5L6.34375 13.3438C6.125 13.4688 6 13.7188 6 13.9688V14C6 14.5625 5.53125 15 5 15C4.4375 15 4 14.5625 4 14V13.9688C4 13.0312 4.46875 12.1562 5.25 11.6562L6.5625 10.8125C7.125 10.4375 7.5 9.8125 7.5 9.125V9C7.5 7.90625 6.59375 7 5.5 7H4.5C3.375 7 2.5 7.90625 2.5 9ZM5 19C4.53125 19 4.125 18.7812 3.90625 18.375C3.6875 18 3.6875 17.5312 3.90625 17.125C4.125 16.75 4.53125 16.5 5 16.5C5.4375 16.5 5.84375 16.75 6.0625 17.125C6.28125 17.5312 6.28125 18 6.0625 18.375C5.84375 18.7812 5.4375 19 5 19Z" fill="black" fill-opacity="0.72"/>
</g>
<defs>
<clipPath id="clip0_3578_651">
<rect width="10" height="24" fill="white"/>
</clipPath>
</defs>
</svg>
