<svg width="21" height="36" viewBox="0 0 21 36" fill="none" xmlns="http://www.w3.org/2000/svg">
<g id="label-paired / xl / plus-xl / fill" clip-path="url(#clip0_2556_19986)">
<path id="icon" d="M12 9.75V16.5H18.75C19.5469 16.5 20.25 17.2031 20.25 18C20.25 18.8438 19.5469 19.5 18.75 19.5H12V26.25C12 27.0938 11.2969 27.75 10.5 27.75C9.65625 27.75 9 27.0938 9 26.25V19.5H2.25C1.40625 19.5 0.75 18.8438 0.75 18C0.75 17.2031 1.40625 16.5 2.25 16.5H9V9.75C9 8.95312 9.65625 8.25 10.5 8.25C11.2969 8.25 12 8.95312 12 9.75Z" fill="black" fill-opacity="0.72"/>
</g>
<defs>
<clipPath id="clip0_2556_19986">
<rect width="21" height="36" fill="white"/>
</clipPath>
</defs>
</svg>
