<svg width="14" height="22" viewBox="0 0 14 22" fill="none" xmlns="http://www.w3.org/2000/svg">
<g id="label-paired / sm / circle-ellipsis-sm / regular" clip-path="url(#clip0_2556_12845)">
<path id="icon" d="M7 16.875C9.1875 16.875 11.1836 15.7266 12.2773 13.8125C13.3984 11.9258 13.3984 9.60156 12.2773 7.6875C11.1836 5.80078 9.1875 4.625 7 4.625C4.78516 4.625 2.78906 5.80078 1.69531 7.6875C0.574219 9.60156 0.574219 11.9258 1.69531 13.8125C2.78906 15.7266 4.78516 16.875 7 16.875ZM7 3.75C9.48828 3.75 11.7852 5.08984 13.043 7.25C14.3008 9.4375 14.3008 12.0898 13.043 14.25C11.7852 16.4375 9.48828 17.75 7 17.75C4.48438 17.75 2.1875 16.4375 0.929688 14.25C-0.328125 12.0898 -0.328125 9.4375 0.929688 7.25C2.1875 5.08984 4.48438 3.75 7 3.75ZM7.65625 10.75C7.65625 11.1328 7.35547 11.4062 7 11.4062C6.61719 11.4062 6.34375 11.1328 6.34375 10.75C6.34375 10.3945 6.61719 10.0938 7 10.0938C7.35547 10.0938 7.65625 10.3945 7.65625 10.75ZM9.625 10.0938C9.98047 10.0938 10.2812 10.3945 10.2812 10.75C10.2812 11.1328 9.98047 11.4062 9.625 11.4062C9.24219 11.4062 8.96875 11.1328 8.96875 10.75C8.96875 10.3945 9.24219 10.0938 9.625 10.0938ZM5.03125 10.75C5.03125 11.1328 4.73047 11.4062 4.375 11.4062C3.99219 11.4062 3.71875 11.1328 3.71875 10.75C3.71875 10.3945 3.99219 10.0938 4.375 10.0938C4.73047 10.0938 5.03125 10.3945 5.03125 10.75Z" fill="black" fill-opacity="0.72"/>
</g>
<defs>
<clipPath id="clip0_2556_12845">
<rect width="14" height="22" fill="white"/>
</clipPath>
</defs>
</svg>
