<svg width="11" height="18" viewBox="0 0 11 18" fill="none" xmlns="http://www.w3.org/2000/svg">
<g id="label-paired / caption / flag-checkered-caption / bold" clip-path="url(#clip0_2556_10060)">
<path id="icon" d="M0.8125 3.5C1.11719 3.5 1.375 3.75781 1.375 4.0625V4.71875L3.36719 4.22656C4.25781 4.01562 5.19531 4.10938 6.01562 4.53125C7.09375 5.07031 8.38281 5.07031 9.46094 4.53125L9.69531 4.41406C10.1641 4.17969 10.75 4.53125 10.75 5.07031V11.6094C10.75 11.9375 10.5391 12.2188 10.2578 12.3125L9.4375 12.6172C8.35938 13.0391 7.14062 12.9688 6.10938 12.4531C5.21875 12.0078 4.21094 11.8906 3.25 12.125L1.375 12.5938V14.9375C1.375 15.2656 1.11719 15.5 0.8125 15.5C0.484375 15.5 0.25 15.2656 0.25 14.9375V12.875V11.7266V5V4.0625C0.25 3.75781 0.484375 3.5 0.8125 3.5ZM1.375 7.03906L3.25 6.64062V5.42188L1.375 5.89062V7.03906ZM1.375 8.1875V9.28906L3.25 8.89062V7.78906L1.375 8.1875ZM1.375 10.4375V11.4453L2.96875 11.0469C3.0625 11.0234 3.15625 11 3.25 10.9766V10.0391L1.375 10.4375ZM4.375 10.8828C5.14844 10.9062 5.89844 11.0938 6.625 11.4453V10.2734L5.3125 9.89844C5.00781 9.80469 4.67969 9.78125 4.375 9.80469V10.8828ZM7.75 11.75C8.17188 11.7969 8.61719 11.7266 9.03906 11.5625L9.625 11.3516V10.25L9.01562 10.3906C8.59375 10.5078 8.17188 10.5312 7.75 10.5078V11.75ZM9.625 9.10156V8L9.01562 8.14062C8.59375 8.25781 8.17188 8.28125 7.75 8.25781V9.38281C8.07812 9.40625 8.42969 9.38281 8.75781 9.3125L9.625 9.10156ZM9.625 6.85156V5.67969C9.01562 5.9375 8.38281 6.05469 7.75 6.05469V7.10938C8.07812 7.15625 8.42969 7.13281 8.75781 7.0625L9.625 6.85156ZM6.625 5.9375C6.22656 5.84375 5.875 5.70312 5.52344 5.53906C5.14844 5.35156 4.75 5.25781 4.375 5.23438V6.42969C4.79688 6.40625 5.21875 6.45312 5.64062 6.57031L6.625 6.85156V5.9375ZM6.625 8.02344L5.3125 7.64844C5.00781 7.55469 4.67969 7.53125 4.375 7.55469V8.67969C4.79688 8.65625 5.21875 8.70312 5.64062 8.82031L6.625 9.10156V8.02344Z" fill="black" fill-opacity="0.72"/>
</g>
<defs>
<clipPath id="clip0_2556_10060">
<rect width="11" height="18" fill="white"/>
</clipPath>
</defs>
</svg>
