<svg width="18" height="22" viewBox="0 0 18 22" fill="none" xmlns="http://www.w3.org/2000/svg">
<g id="label-paired / sm / handshake-sm / fill" clip-path="url(#clip0_4513_682)">
<path id="icon" d="M9.08203 6.10156C9.54688 5.71875 10.1211 5.5 10.7227 5.5C11.2148 5.5 11.707 5.66406 12.1172 5.91016L14.1133 7.19531L14.2227 7.25H14.25V12.418L10.4492 8.91797L10.9961 8.48047C11.1875 8.34375 11.2422 8.07031 11.0781 7.87891C10.9414 7.6875 10.668 7.63281 10.4766 7.79688L7.74219 9.90234C7.27734 10.2578 6.59375 10.1758 6.23828 9.68359C5.91016 9.21875 5.99219 8.58984 6.42969 8.23438L9.08203 6.10156ZM9.71094 9.49219L13.375 12.8555C13.8945 13.3477 13.9492 14.168 13.457 14.7148C13.0195 15.207 12.2812 15.2617 11.7617 14.9062C11.707 15.0703 11.5977 15.2344 11.4883 15.3711C10.9961 15.8906 10.1758 15.9453 9.62891 15.4531L9.16406 15.0156C9.10938 15.2344 9 15.4258 8.86328 15.5898C8.37109 16.1094 7.55078 16.1641 7.00391 15.6719L4.51562 13.375H3.75V7.25L5.71875 5.9375C6.12891 5.66406 6.64844 5.5 7.14062 5.52734C7.49609 5.52734 7.85156 5.58203 8.15234 5.71875L5.88281 7.55078C5.08984 8.20703 4.92578 9.38281 5.52734 10.2031C6.18359 11.0781 7.44141 11.2695 8.28906 10.5859L9.71094 9.49219ZM0.6875 7.25H2.875V13.375C2.875 13.8672 2.46484 14.25 2 14.25H1.125C0.632812 14.25 0.25 13.8672 0.25 13.375V7.6875C0.25 7.46875 0.441406 7.25 0.6875 7.25ZM1.5625 12.5C1.31641 12.5 1.125 12.7188 1.125 12.9375C1.125 13.1836 1.31641 13.375 1.5625 13.375C1.78125 13.375 2 13.1836 2 12.9375C2 12.7188 1.78125 12.5 1.5625 12.5ZM15.125 7.25H17.3125C17.5312 7.25 17.75 7.46875 17.75 7.6875V13.375C17.75 13.8672 17.3398 14.25 16.875 14.25H16C15.5078 14.25 15.125 13.8672 15.125 13.375V7.25ZM16 12.9375C16 13.1836 16.1914 13.375 16.4375 13.375C16.6562 13.375 16.875 13.1836 16.875 12.9375C16.875 12.7188 16.6562 12.5 16.4375 12.5C16.1914 12.5 16 12.7188 16 12.9375Z" fill="black" fill-opacity="0.72"/>
</g>
<defs>
<clipPath id="clip0_4513_682">
<rect width="18" height="22" fill="white"/>
</clipPath>
</defs>
</svg>
