<svg width="9" height="22" viewBox="0 0 9 22" fill="none" xmlns="http://www.w3.org/2000/svg">
<g id="label-paired / sm / sort-down-sm / regular" clip-path="url(#clip0_2556_12413)">
<path id="icon" d="M4.33594 15.9453C4.36328 16 4.41797 16 4.5 16C4.55469 16 4.60938 16 4.63672 15.9453L7.91797 12.8555C7.97266 12.8008 8 12.7734 8 12.7188C8 12.6094 7.89062 12.5 7.78125 12.5H1.19141C1.08203 12.5 1 12.6094 1 12.7188C1 12.7734 1 12.8008 1.05469 12.8555L4.33594 15.9453ZM3.73438 16.6016L0.453125 13.4844C0.234375 13.293 0.125 12.9922 0.125 12.7188C0.125 12.1172 0.589844 11.625 1.19141 11.625H7.78125C8.38281 11.625 8.875 12.1172 8.875 12.7188C8.875 12.9922 8.73828 13.293 8.51953 13.4844L5.23828 16.6016C5.04688 16.793 4.77344 16.875 4.5 16.875C4.19922 16.875 3.92578 16.793 3.73438 16.6016Z" fill="black" fill-opacity="0.72"/>
</g>
<defs>
<clipPath id="clip0_2556_12413">
<rect width="9" height="22" fill="white"/>
</clipPath>
</defs>
</svg>
