<svg width="12" height="18" viewBox="0 0 12 18" fill="none" xmlns="http://www.w3.org/2000/svg">
<g id="label-paired / caption / file-doc-caption / regular" clip-path="url(#clip0_2556_10550)">
<path id="icon" d="M1.5 14.75H2.25V15.5H1.5C0.65625 15.5 0 14.8438 0 14V5C0 4.17969 0.65625 3.5 1.5 3.5H5.15625C5.4375 3.5 5.74219 3.64062 5.95312 3.85156L8.64844 6.54688C8.85938 6.75781 9 7.0625 9 7.34375V10.25H8.25V8H5.625C4.99219 8 4.5 7.50781 4.5 6.875V4.25H1.5C1.07812 4.25 0.75 4.60156 0.75 5V14C0.75 14.4219 1.07812 14.75 1.5 14.75ZM8.22656 7.25C8.20312 7.20312 8.17969 7.13281 8.13281 7.08594L5.41406 4.36719C5.36719 4.32031 5.29688 4.29688 5.25 4.27344V6.875C5.25 7.08594 5.41406 7.25 5.625 7.25H8.22656ZM4.125 11.75H4.875C5.48438 11.75 6 12.2656 6 12.875V14.375C6 15.0078 5.48438 15.5 4.875 15.5H4.125C3.91406 15.5 3.75 15.3359 3.75 15.125V12.125C3.75 11.9375 3.91406 11.75 4.125 11.75ZM4.5 14.75H4.875C5.0625 14.75 5.25 14.5859 5.25 14.375V12.875C5.25 12.6875 5.0625 12.5 4.875 12.5H4.5V14.75ZM10.6875 11.75H11.0625C11.5781 11.75 12 12.1719 12 12.6875V12.875C12 13.0859 11.8125 13.25 11.625 13.25C11.4141 13.25 11.25 13.0859 11.25 12.875V12.6875C11.25 12.5938 11.1562 12.5 11.0625 12.5H10.6875C10.5703 12.5 10.5 12.5938 10.5 12.6875V14.5625C10.5 14.6797 10.5703 14.75 10.6875 14.75H11.0625C11.1562 14.75 11.25 14.6797 11.25 14.5625V14.375C11.25 14.1875 11.4141 14 11.625 14C11.8125 14 12 14.1875 12 14.375V14.5625C12 15.1016 11.5781 15.5 11.0625 15.5H10.6875C10.1484 15.5 9.75 15.1016 9.75 14.5625V12.6875C9.75 12.1719 10.1484 11.75 10.6875 11.75ZM6.75 12.6875C6.75 12.1719 7.14844 11.75 7.6875 11.75H8.0625C8.57812 11.75 9 12.1719 9 12.6875V14.5625C9 15.1016 8.57812 15.5 8.0625 15.5H7.6875C7.14844 15.5 6.75 15.1016 6.75 14.5625V12.6875ZM7.6875 12.5C7.57031 12.5 7.5 12.5938 7.5 12.6875V14.5625C7.5 14.6797 7.57031 14.75 7.6875 14.75H8.0625C8.15625 14.75 8.25 14.6797 8.25 14.5625V12.6875C8.25 12.5938 8.15625 12.5 8.0625 12.5H7.6875Z" fill="black" fill-opacity="0.72"/>
</g>
<defs>
<clipPath id="clip0_2556_10550">
<rect width="12" height="18" fill="white"/>
</clipPath>
</defs>
</svg>
