<svg width="10" height="24" viewBox="0 0 10 24" fill="none" xmlns="http://www.w3.org/2000/svg">
<g id="label-paired / md / pause-md / fill" clip-path="url(#clip0_2556_14698)">
<path id="icon" d="M1.5 6H2.5C3.3125 6 4 6.6875 4 7.5V16.5C4 17.3438 3.3125 18 2.5 18H1.5C0.65625 18 0 17.3438 0 16.5V7.5C0 6.6875 0.65625 6 1.5 6ZM7.5 6H8.5C9.3125 6 10 6.6875 10 7.5V16.5C10 17.3438 9.3125 18 8.5 18H7.5C6.65625 18 6 17.3438 6 16.5V7.5C6 6.6875 6.65625 6 7.5 6Z" fill="black" fill-opacity="0.72"/>
</g>
<defs>
<clipPath id="clip0_2556_14698">
<rect width="10" height="24" fill="white"/>
</clipPath>
</defs>
</svg>
