<svg width="20" height="30" viewBox="0 0 20 30" fill="none" xmlns="http://www.w3.org/2000/svg">
<g id="label-paired / lg / facebook-messenger-lg" clip-path="url(#clip0_2981_879)">
<path id="icon" d="M10 5.8125C15.4688 5.8125 19.6875 9.83594 19.6875 15.2266C19.6875 22.0625 13.1641 25.8906 7.1875 24.25C6.83594 24.1719 6.79688 24.25 4.76562 25.1484C4.49219 25.2266 4.21875 25.2266 4.02344 25.0703C3.78906 24.9531 3.67188 24.7188 3.67188 24.4453C3.59375 22.6484 3.67188 22.4922 3.35938 22.1797C1.44531 20.5 0.3125 18.0391 0.3125 15.2266C0.3125 9.83594 4.53125 5.8125 10 5.8125ZM15.8203 13.0781C16.0938 12.6484 15.5859 12.1406 15.1562 12.4531L12.1094 14.7578C11.875 14.9141 11.6016 14.9141 11.4062 14.7578L9.14062 13.0781C8.78906 12.8438 8.39844 12.7266 8.00781 12.8047C7.57812 12.8828 7.22656 13.1172 7.03125 13.4688L4.17969 17.9609C3.90625 18.3906 4.41406 18.8984 4.84375 18.5859L7.89062 16.2812C8.125 16.125 8.39844 16.125 8.59375 16.2812L10.8594 17.9609C11.2109 18.1953 11.6016 18.3125 12.0312 18.2344C12.4219 18.1562 12.7734 17.9219 12.9688 17.5703L15.8203 13.0781Z" fill="black" fill-opacity="0.72"/>
</g>
<defs>
<clipPath id="clip0_2981_879">
<rect width="20" height="30" fill="white"/>
</clipPath>
</defs>
</svg>
