<svg width="24" height="36" viewBox="0 0 24 36" fill="none" xmlns="http://www.w3.org/2000/svg">
<g id="label-paired / xl / circle-six-xl / fill" clip-path="url(#clip0_2556_19535)">
<path id="icon" d="M0 18C0 13.7344 2.25 9.79688 6 7.64062C9.70312 5.48438 14.25 5.48438 18 7.64062C21.7031 9.79688 24 13.7344 24 18C24 22.3125 21.7031 26.25 18 28.4062C14.25 30.5625 9.70312 30.5625 6 28.4062C2.25 26.25 0 22.3125 0 18ZM12 17.25C12.7969 17.25 13.5 17.7188 13.9219 18.375C14.3438 19.0781 14.3438 19.9688 13.9219 20.625C13.5 21.3281 12.7969 21.75 12 21.75C11.1562 21.75 10.4531 21.3281 10.0312 20.625C9.60938 19.9688 9.60938 19.0781 10.0312 18.375C10.4531 17.7188 11.1562 17.25 12 17.25ZM7.5 19.5C7.5 21.9844 9.51562 24 12 24C14.4844 24 16.5 21.9844 16.5 19.5C16.5 17.4375 15.0938 15.7031 13.2188 15.1875L14.5781 14.0156C15.0469 13.5938 15.0938 12.8906 14.7188 12.4219C14.2969 11.9531 13.5938 11.9062 13.125 12.2812L9.28125 15.5625C8.15625 16.5469 7.5 18 7.5 19.5Z" fill="black" fill-opacity="0.72"/>
</g>
<defs>
<clipPath id="clip0_2556_19535">
<rect width="24" height="36" fill="white"/>
</clipPath>
</defs>
</svg>
