<svg width="8" height="24" viewBox="0 0 8 24" fill="none" xmlns="http://www.w3.org/2000/svg">
<g id="label-paired / md / grip-dots-vertical-md / fill" clip-path="url(#clip0_2556_15008)">
<path id="icon" d="M1.5 8.5C0.9375 8.5 0.46875 8.21875 0.1875 7.75C-0.09375 7.3125 -0.09375 6.71875 0.1875 6.25C0.46875 5.8125 0.9375 5.5 1.5 5.5C2.03125 5.5 2.5 5.8125 2.78125 6.25C3.0625 6.71875 3.0625 7.3125 2.78125 7.75C2.5 8.21875 2.03125 8.5 1.5 8.5ZM1.5 13.5C0.9375 13.5 0.46875 13.2188 0.1875 12.75C-0.09375 12.3125 -0.09375 11.7188 0.1875 11.25C0.46875 10.8125 0.9375 10.5 1.5 10.5C2.03125 10.5 2.5 10.8125 2.78125 11.25C3.0625 11.7188 3.0625 12.3125 2.78125 12.75C2.5 13.2188 2.03125 13.5 1.5 13.5ZM3 17C3 17.5625 2.6875 18.0312 2.25 18.3125C1.78125 18.5938 1.1875 18.5938 0.75 18.3125C0.28125 18.0312 0 17.5625 0 17C0 16.4688 0.28125 16 0.75 15.7188C1.1875 15.4375 1.78125 15.4375 2.25 15.7188C2.6875 16 3 16.4688 3 17ZM6.5 8.5C5.9375 8.5 5.46875 8.21875 5.1875 7.75C4.90625 7.3125 4.90625 6.71875 5.1875 6.25C5.46875 5.8125 5.9375 5.5 6.5 5.5C7.03125 5.5 7.5 5.8125 7.78125 6.25C8.0625 6.71875 8.0625 7.3125 7.78125 7.75C7.5 8.21875 7.03125 8.5 6.5 8.5ZM8 12C8 12.5625 7.6875 13.0312 7.25 13.3125C6.78125 13.5938 6.1875 13.5938 5.75 13.3125C5.28125 13.0312 5 12.5625 5 12C5 11.4688 5.28125 11 5.75 10.7188C6.1875 10.4375 6.78125 10.4375 7.25 10.7188C7.6875 11 8 11.4688 8 12ZM6.5 18.5C5.9375 18.5 5.46875 18.2188 5.1875 17.75C4.90625 17.3125 4.90625 16.7188 5.1875 16.25C5.46875 15.8125 5.9375 15.5 6.5 15.5C7.03125 15.5 7.5 15.8125 7.78125 16.25C8.0625 16.7188 8.0625 17.3125 7.78125 17.75C7.5 18.2188 7.03125 18.5 6.5 18.5Z" fill="black" fill-opacity="0.72"/>
</g>
<defs>
<clipPath id="clip0_2556_15008">
<rect width="8" height="24" fill="white"/>
</clipPath>
</defs>
</svg>
