<svg width="20" height="30" viewBox="0 0 20 30" fill="none" xmlns="http://www.w3.org/2000/svg">
<g id="label-paired / lg / camera-lg / regular" clip-path="url(#clip0_2556_17153)">
<path id="icon" d="M7.46094 6.75H12.5C13.3203 6.75 14.0234 7.29688 14.2969 8.03906L14.6875 9.25H17.5C18.8672 9.25 20 10.3828 20 11.75V21.75C20 23.1562 18.8672 24.25 17.5 24.25H2.5C1.09375 24.25 0 23.1562 0 21.75V11.75C0 10.3828 1.09375 9.25 2.5 9.25H5.27344L5.66406 8.03906C5.9375 7.29688 6.64062 6.75 7.46094 6.75ZM6.83594 8.42969L6.28906 10.1094C6.21094 10.3438 5.97656 10.5 5.70312 10.5H2.5C1.79688 10.5 1.25 11.0859 1.25 11.75V21.75C1.25 22.4531 1.79688 23 2.5 23H17.5C18.1641 23 18.75 22.4531 18.75 21.75V11.75C18.75 11.0859 18.1641 10.5 17.5 10.5H14.2578C13.9844 10.5 13.75 10.3438 13.6719 10.0703L13.125 8.42969C13.0078 8.19531 12.7734 8 12.5 8H7.46094C7.1875 8 6.95312 8.19531 6.83594 8.42969ZM10 21.125C8.39844 21.125 6.99219 20.3047 6.21094 18.9375C5.39062 17.6094 5.39062 15.9297 6.21094 14.5625C6.99219 13.2344 8.39844 12.375 10 12.375C11.5625 12.375 12.9688 13.2344 13.75 14.5625C14.5703 15.9297 14.5703 17.6094 13.75 18.9375C12.9688 20.3047 11.5625 21.125 10 21.125ZM6.875 16.75C6.875 17.8828 7.46094 18.8984 8.4375 19.4844C9.375 20.0312 10.5859 20.0312 11.5625 19.4844C12.5 18.8984 13.125 17.8828 13.125 16.75C13.125 15.6562 12.5 14.6406 11.5625 14.0547C10.5859 13.5078 9.375 13.5078 8.4375 14.0547C7.46094 14.6406 6.875 15.6562 6.875 16.75Z" fill="black" fill-opacity="0.72"/>
</g>
<defs>
<clipPath id="clip0_2556_17153">
<rect width="20" height="30" fill="white"/>
</clipPath>
</defs>
</svg>
