<svg width="24" height="36" viewBox="0 0 24 36" fill="none" xmlns="http://www.w3.org/2000/svg">
<g id="label-paired / xl / file-certificate-xl / bold" clip-path="url(#clip0_2556_19496)">
<path id="icon" d="M21 27.75C21.375 27.75 21.75 27.4219 21.75 27V13.5H18C17.1562 13.5 16.5 12.8438 16.5 12V8.25H9C8.57812 8.25 8.25 8.625 8.25 9V12.1875C7.64062 11.9531 6.9375 11.9531 6.28125 12.1875C6.1875 12.2344 6.04688 12.3281 6 12.3281V12.375V9C6 7.35938 7.3125 6 9 6H16.7344C17.5312 6 18.2812 6.32812 18.8438 6.89062L23.1094 11.1562C23.6719 11.7188 24 12.4688 24 13.2656V27C24 28.6875 22.6406 30 21 30H10.3594C10.4531 29.7656 10.5 29.5312 10.5 29.25V27.75H21ZM5.10938 13.5938L5.8125 13.875C5.90625 13.9219 6.04688 13.9219 6.14062 13.875L6.89062 13.5938C7.35938 13.4062 7.875 13.5469 8.20312 13.9688L8.67188 14.5781C8.71875 14.6719 8.8125 14.7188 8.90625 14.7188L9.70312 14.8125C10.2188 14.9062 10.5938 15.2812 10.6875 15.7969L10.7812 16.5938C10.7812 16.6875 10.8281 16.7812 10.9219 16.8281L11.5781 17.2969C11.9531 17.625 12.0938 18.1875 11.9062 18.6562L11.625 19.3594C11.5781 19.4531 11.5781 19.5938 11.625 19.6406L11.9062 20.3906C12.0938 20.8594 11.9531 21.4219 11.5312 21.7031L10.9219 22.2188C10.8281 22.2656 10.7812 22.3594 10.7812 22.4531L10.6875 23.25C10.5938 23.7656 10.2188 24.1406 9.70312 24.2344L9 24.3281V29.25C9 29.5312 8.8125 29.8125 8.57812 29.9531C8.34375 30.0469 8.0625 30.0469 7.82812 29.9062L6 28.6875L4.125 29.9062C3.9375 30.0469 3.60938 30.0469 3.375 29.9531C3.14062 29.8125 3 29.5312 3 29.25V24.3281L2.25 24.2344C1.73438 24.1406 1.35938 23.7656 1.26562 23.25L1.17188 22.4531C1.17188 22.3594 1.125 22.2656 1.03125 22.2188L0.421875 21.7031C0 21.4219 -0.140625 20.8594 0.046875 20.3906L0.375 19.6875C0.375 19.5938 0.375 19.4531 0.375 19.3594L0.046875 18.6562C-0.140625 18.1875 0 17.625 0.421875 17.3438L1.03125 16.8281C1.125 16.7812 1.17188 16.6875 1.17188 16.5938L1.3125 15.7969C1.35938 15.2812 1.73438 14.9062 2.25 14.8125L3.04688 14.7188C3.14062 14.7188 3.23438 14.6719 3.28125 14.5781L3.79688 13.9688C4.07812 13.5469 4.64062 13.4062 5.10938 13.5938ZM3 19.5C3 20.5781 3.5625 21.5625 4.5 22.125C5.39062 22.6406 6.5625 22.6406 7.5 22.125C8.39062 21.5625 9 20.5781 9 19.5C9 18.4688 8.39062 17.4844 7.5 16.9219C6.5625 16.4062 5.39062 16.4062 4.5 16.9219C3.5625 17.4844 3 18.4688 3 19.5Z" fill="black" fill-opacity="0.72"/>
</g>
<defs>
<clipPath id="clip0_2556_19496">
<rect width="24" height="36" fill="white"/>
</clipPath>
</defs>
</svg>
