<svg width="25" height="30" viewBox="0 0 25 30" fill="none" xmlns="http://www.w3.org/2000/svg">
<g id="label-paired / lg / person-chalkboard-lg / fill" clip-path="url(#clip0_2556_17142)">
<path id="icon" d="M7.5 9.25C6.79688 9.25 6.21094 8.89844 5.85938 8.3125C5.50781 7.76562 5.50781 7.02344 5.85938 6.4375C6.21094 5.89062 6.79688 5.5 7.5 5.5C8.16406 5.5 8.75 5.89062 9.10156 6.4375C9.45312 7.02344 9.45312 7.76562 9.10156 8.3125C8.75 8.89844 8.16406 9.25 7.5 9.25ZM7.1875 24.25C7.1875 24.9531 6.60156 25.5 5.9375 25.5C5.23438 25.5 4.6875 24.9531 4.6875 24.25V15.5391L3.55469 17.4141C3.20312 18 2.42188 18.1953 1.83594 17.8438C1.25 17.4922 1.05469 16.7109 1.40625 16.125L3.67188 12.3359C4.375 11.2031 5.58594 10.5 6.91406 10.5H9.49219H12.5V7.375C12.5 6.35938 13.3203 5.5 14.375 5.5H23.125C24.1406 5.5 25 6.35938 25 7.375V16.125C25 17.1797 24.1406 18 23.125 18H14.375C13.3203 18 12.5 17.1797 12.5 16.125V14.25H15V15.5H22.5V8H15V10.5H15.625C16.2891 10.5 16.875 11.0859 16.875 11.75C16.875 12.4531 16.2891 13 15.625 13H15H12.5H10.3125V24.25C10.3125 24.9531 9.72656 25.5 9.0625 25.5C8.35938 25.5 7.8125 24.9531 7.8125 24.25V19.25H7.1875V24.25Z" fill="black" fill-opacity="0.72"/>
</g>
<defs>
<clipPath id="clip0_2556_17142">
<rect width="25" height="30" fill="white"/>
</clipPath>
</defs>
</svg>
