<svg width="14" height="18" viewBox="0 0 14 18" fill="none" xmlns="http://www.w3.org/2000/svg">
<g id="label-paired / caption / credit-card-caption / bold" clip-path="url(#clip0_2362_647)">
<path id="icon" d="M12.25 5.375H1.75C1.51562 5.39062 1.39062 5.51562 1.375 5.75V6.5H12.625V5.75C12.6094 5.51562 12.4844 5.39062 12.25 5.375ZM12.625 8.75H1.375V13.25C1.39062 13.4844 1.51562 13.6094 1.75 13.625H12.25C12.4844 13.6094 12.6094 13.4844 12.625 13.25V8.75ZM1.75 4.25H12.25C12.6719 4.26562 13.0234 4.41406 13.3047 4.69531C13.5859 4.97656 13.7344 5.32812 13.75 5.75V13.25C13.7344 13.6719 13.5859 14.0234 13.3047 14.3047C13.0234 14.5859 12.6719 14.7344 12.25 14.75H1.75C1.32812 14.7344 0.976562 14.5859 0.695312 14.3047C0.414062 14.0234 0.265625 13.6719 0.25 13.25V5.75C0.265625 5.32812 0.414062 4.97656 0.695312 4.69531C0.976562 4.41406 1.32812 4.26562 1.75 4.25ZM3.0625 11.375H4.1875C4.53125 11.4062 4.71875 11.5938 4.75 11.9375C4.71875 12.2812 4.53125 12.4688 4.1875 12.5H3.0625C2.71875 12.4688 2.53125 12.2812 2.5 11.9375C2.53125 11.5938 2.71875 11.4062 3.0625 11.375ZM6.0625 11.375H8.6875C9.03125 11.4062 9.21875 11.5938 9.25 11.9375C9.21875 12.2812 9.03125 12.4688 8.6875 12.5H6.0625C5.71875 12.4688 5.53125 12.2812 5.5 11.9375C5.53125 11.5938 5.71875 11.4062 6.0625 11.375Z" fill="black" fill-opacity="0.72"/>
</g>
<defs>
<clipPath id="clip0_2362_647">
<rect width="14" height="18" fill="white"/>
</clipPath>
</defs>
</svg>
