<svg width="9" height="22" viewBox="0 0 9 22" fill="none" xmlns="http://www.w3.org/2000/svg">
<g id="label-paired / sm / three-sm / fill" clip-path="url(#clip0_2556_12521)">
<path id="icon" d="M0.125 5.5C0.125 5.03516 0.507812 4.625 1 4.625H7.5625C7.91797 4.625 8.24609 4.87109 8.35547 5.19922C8.49219 5.52734 8.41016 5.91016 8.13672 6.15625L4.55469 9.4375H5.15625C7.20703 9.4375 8.875 11.1055 8.875 13.1562C8.875 15.2344 7.20703 16.875 5.15625 16.875H2.99609C1.84766 16.875 0.78125 16.2188 0.261719 15.207L0.207031 15.0977C-0.0117188 14.6602 0.152344 14.1406 0.589844 13.9219C1.02734 13.7031 1.54688 13.8672 1.76562 14.3047L1.82031 14.4141C2.03906 14.8516 2.50391 15.125 2.99609 15.125H5.15625C6.22266 15.125 7.125 14.25 7.125 13.1562C7.125 12.0898 6.22266 11.1875 5.15625 11.1875H2.3125C1.92969 11.1875 1.62891 10.9688 1.49219 10.6406C1.35547 10.3125 1.4375 9.92969 1.71094 9.68359L5.29297 6.375H1C0.507812 6.375 0.125 5.99219 0.125 5.5Z" fill="black" fill-opacity="0.72"/>
</g>
<defs>
<clipPath id="clip0_2556_12521">
<rect width="9" height="22" fill="white"/>
</clipPath>
</defs>
</svg>
