<svg width="25" height="30" viewBox="0 0 25 30" fill="none" xmlns="http://www.w3.org/2000/svg">
<g id="label-paired / lg / wallet-signal-lg / regular" clip-path="url(#clip0_2362_710)">
<path id="icon" d="M0 9.875C0 8.15625 1.36719 6.75 3.125 6.75H18.125C18.4375 6.75 18.75 7.0625 18.75 7.375C18.75 7.72656 18.4375 8 18.125 8H3.125C2.07031 8 1.25 8.85938 1.25 9.875V21.125C1.25 22.1797 2.07031 23 3.125 23H13.75V24.25H3.125C1.36719 24.25 0 22.8828 0 21.125V9.875ZM3.75 9.875C3.75 9.5625 4.02344 9.25 4.375 9.25H16.875C18.5938 9.25 20 10.6562 20 12.375V15.1094C19.5703 14.9141 19.1797 14.7969 18.75 14.6406V12.4141C18.75 11.3594 17.8906 10.5391 16.875 10.5391H4.375C4.02344 10.5391 3.75 10.2266 3.75 9.91406V9.875ZM15 16.125C15 15.8125 15.2734 15.5 15.625 15.5C20.7812 15.5 25 19.7188 25 24.875C25 25.2266 24.6875 25.5 24.375 25.5C24.0234 25.5 23.75 25.2266 23.75 24.875C23.75 20.4219 20.0781 16.75 15.625 16.75C15.2734 16.75 15 16.4766 15 16.125ZM15 19.875C15 19.5625 15.2734 19.25 15.625 19.25C18.7109 19.25 21.25 21.7891 21.25 24.875C21.25 25.2266 20.9375 25.5 20.625 25.5C20.2734 25.5 20 25.2266 20 24.875C20 22.4922 18.0078 20.5 15.625 20.5C15.2734 20.5 15 20.2266 15 19.875ZM15 24.25C15 23.5859 15.5469 23 16.25 23C16.9141 23 17.5 23.5859 17.5 24.25C17.5 24.9531 16.9141 25.5 16.25 25.5C15.5469 25.5 15 24.9531 15 24.25Z" fill="black" fill-opacity="0.72"/>
</g>
<defs>
<clipPath id="clip0_2362_710">
<rect width="25" height="30" fill="white"/>
</clipPath>
</defs>
</svg>
