<svg width="12" height="18" viewBox="0 0 12 18" fill="none" xmlns="http://www.w3.org/2000/svg">
<g id="label-paired / caption / loader-caption / regular" clip-path="url(#clip0_2981_655)">
<path id="icon" d="M6.375 3.875V6.125C6.375 6.33594 6.1875 6.5 6 6.5C5.78906 6.5 5.625 6.33594 5.625 6.125V3.875C5.625 3.6875 5.78906 3.5 6 3.5C6.1875 3.5 6.375 3.6875 6.375 3.875ZM6.375 12.875V15.125C6.375 15.3359 6.1875 15.5 6 15.5C5.78906 15.5 5.625 15.3359 5.625 15.125V12.875C5.625 12.6875 5.78906 12.5 6 12.5C6.1875 12.5 6.375 12.6875 6.375 12.875ZM0 9.5C0 9.3125 0.164062 9.125 0.375 9.125H2.625C2.8125 9.125 3 9.3125 3 9.5C3 9.71094 2.8125 9.875 2.625 9.875H0.375C0.164062 9.875 0 9.71094 0 9.5ZM9.375 9.125H11.625C11.8125 9.125 12 9.3125 12 9.5C12 9.71094 11.8125 9.875 11.625 9.875H9.375C9.16406 9.875 9 9.71094 9 9.5C9 9.3125 9.16406 9.125 9.375 9.125ZM10.2422 5.25781C10.3828 5.42188 10.3828 5.65625 10.2422 5.79688L8.64844 7.39062C8.48438 7.53125 8.25 7.53125 8.10938 7.39062C7.96875 7.25 7.96875 7.01562 8.10938 6.85156L9.70312 5.25781C9.84375 5.11719 10.0781 5.11719 10.2422 5.25781ZM3.86719 12.1719L2.27344 13.7422C2.13281 13.9062 1.89844 13.9062 1.75781 13.7422C1.59375 13.6016 1.59375 13.3672 1.75781 13.2266L3.32812 11.6328C3.49219 11.4922 3.72656 11.4922 3.86719 11.6328C4.00781 11.7734 4.00781 12.0078 3.86719 12.1719ZM1.75781 5.25781C1.89844 5.11719 2.13281 5.11719 2.27344 5.25781L3.86719 6.85156C4.00781 7.01562 4.00781 7.25 3.86719 7.39062C3.72656 7.53125 3.49219 7.53125 3.32812 7.39062L1.75781 5.79688C1.59375 5.65625 1.59375 5.42188 1.75781 5.25781ZM8.64844 11.6328L10.2422 13.2266C10.3828 13.3672 10.3828 13.6016 10.2422 13.7422C10.0781 13.9062 9.84375 13.9062 9.70312 13.7422L8.10938 12.1719C7.96875 12.0078 7.96875 11.7734 8.10938 11.6328C8.25 11.4922 8.48438 11.4922 8.64844 11.6328Z" fill="black" fill-opacity="0.72"/>
</g>
<defs>
<clipPath id="clip0_2981_655">
<rect width="12" height="18" fill="white"/>
</clipPath>
</defs>
</svg>
