<svg width="21" height="36" viewBox="0 0 21 36" fill="none" xmlns="http://www.w3.org/2000/svg">
<g id="label-paired / xl / square-list-xl / bold" clip-path="url(#clip0_3004_450)">
<path id="icon" d="M3 9.75C2.57812 9.75 2.25 10.125 2.25 10.5V25.5C2.25 25.9219 2.57812 26.25 3 26.25H18C18.375 26.25 18.75 25.9219 18.75 25.5V10.5C18.75 10.125 18.375 9.75 18 9.75H3ZM0 10.5C0 8.85938 1.3125 7.5 3 7.5H18C19.6406 7.5 21 8.85938 21 10.5V25.5C21 27.1875 19.6406 28.5 18 28.5H3C1.3125 28.5 0 27.1875 0 25.5V10.5ZM4.5 13.5C4.5 12.7031 5.15625 12 6 12C6.79688 12 7.5 12.7031 7.5 13.5C7.5 14.3438 6.79688 15 6 15C5.15625 15 4.5 14.3438 4.5 13.5ZM9.375 13.5C9.375 12.8906 9.84375 12.375 10.5 12.375H15C15.6094 12.375 16.125 12.8906 16.125 13.5C16.125 14.1562 15.6094 14.625 15 14.625H10.5C9.84375 14.625 9.375 14.1562 9.375 13.5ZM9.375 18C9.375 17.3906 9.84375 16.875 10.5 16.875H15C15.6094 16.875 16.125 17.3906 16.125 18C16.125 18.6562 15.6094 19.125 15 19.125H10.5C9.84375 19.125 9.375 18.6562 9.375 18ZM9.375 22.5C9.375 21.8906 9.84375 21.375 10.5 21.375H15C15.6094 21.375 16.125 21.8906 16.125 22.5C16.125 23.1562 15.6094 23.625 15 23.625H10.5C9.84375 23.625 9.375 23.1562 9.375 22.5ZM6 19.5C5.15625 19.5 4.5 18.8438 4.5 18C4.5 17.2031 5.15625 16.5 6 16.5C6.79688 16.5 7.5 17.2031 7.5 18C7.5 18.8438 6.79688 19.5 6 19.5ZM4.5 22.5C4.5 21.7031 5.15625 21 6 21C6.79688 21 7.5 21.7031 7.5 22.5C7.5 23.3438 6.79688 24 6 24C5.15625 24 4.5 23.3438 4.5 22.5Z" fill="black" fill-opacity="0.72"/>
</g>
<defs>
<clipPath id="clip0_3004_450">
<rect width="21" height="36" fill="white"/>
</clipPath>
</defs>
</svg>
