<svg width="16" height="24" viewBox="0 0 16 24" fill="none" xmlns="http://www.w3.org/2000/svg">
<g id="label-paired / md / briefcase-md / bold" clip-path="url(#clip0_2362_682)">
<path id="icon" d="M5.5 5.75V7H10.5V5.75C10.4792 5.60417 10.3958 5.52083 10.25 5.5H5.75C5.60417 5.52083 5.52083 5.60417 5.5 5.75ZM4 7V5.75C4.02083 5.25 4.1875 4.83333 4.5 4.5C4.83333 4.1875 5.25 4.02083 5.75 4H10.25C10.75 4.02083 11.1667 4.1875 11.5 4.5C11.8125 4.83333 11.9792 5.25 12 5.75V7H14C14.5625 7.02083 15.0312 7.21875 15.4062 7.59375C15.7812 7.96875 15.9792 8.4375 16 9V12.75V17C15.9792 17.5625 15.7812 18.0312 15.4062 18.4062C15.0312 18.7812 14.5625 18.9792 14 19H2C1.4375 18.9792 0.96875 18.7812 0.59375 18.4062C0.21875 18.0312 0.0208333 17.5625 0 17V12.75V9C0.0208333 8.4375 0.21875 7.96875 0.59375 7.59375C0.96875 7.21875 1.4375 7.02083 2 7H4ZM1.5 13.5V17C1.52083 17.3125 1.6875 17.4792 2 17.5H14C14.3125 17.4792 14.4792 17.3125 14.5 17V13.5H10V14C10 14.2917 9.90625 14.5312 9.71875 14.7188C9.53125 14.9062 9.29167 15 9 15H7C6.70833 15 6.46875 14.9062 6.28125 14.7188C6.09375 14.5312 6 14.2917 6 14V13.5H1.5ZM6 12H10H14.5V9C14.4792 8.6875 14.3125 8.52083 14 8.5H11.25H4.75H2C1.6875 8.52083 1.52083 8.6875 1.5 9V12H6Z" fill="black" fill-opacity="0.72"/>
</g>
<defs>
<clipPath id="clip0_2362_682">
<rect width="16" height="24" fill="white"/>
</clipPath>
</defs>
</svg>
