<svg width="14" height="22" viewBox="0 0 14 22" fill="none" xmlns="http://www.w3.org/2000/svg">
<g id="label-paired / sm / facebook-messenger-sm" clip-path="url(#clip0_2981_791)">
<path id="icon" d="M7 3.96875C10.8281 3.96875 13.7812 6.78516 13.7812 10.5586C13.7812 15.3438 9.21484 18.0234 5.03125 16.875C4.78516 16.8203 4.75781 16.875 3.33594 17.5039C3.14453 17.5586 2.95312 17.5586 2.81641 17.4492C2.65234 17.3672 2.57031 17.2031 2.57031 17.0117C2.51562 15.7539 2.57031 15.6445 2.35156 15.4258C1.01172 14.25 0.21875 12.5273 0.21875 10.5586C0.21875 6.78516 3.17188 3.96875 7 3.96875ZM11.0742 9.05469C11.2656 8.75391 10.9102 8.39844 10.6094 8.61719L8.47656 10.2305C8.3125 10.3398 8.12109 10.3398 7.98438 10.2305L6.39844 9.05469C6.15234 8.89062 5.87891 8.80859 5.60547 8.86328C5.30469 8.91797 5.05859 9.08203 4.92188 9.32812L2.92578 12.4727C2.73438 12.7734 3.08984 13.1289 3.39062 12.9102L5.52344 11.2969C5.6875 11.1875 5.87891 11.1875 6.01562 11.2969L7.60156 12.4727C7.84766 12.6367 8.12109 12.7188 8.42188 12.6641C8.69531 12.6094 8.94141 12.4453 9.07812 12.1992L11.0742 9.05469Z" fill="black" fill-opacity="0.72"/>
</g>
<defs>
<clipPath id="clip0_2981_791">
<rect width="14" height="22" fill="white"/>
</clipPath>
</defs>
</svg>
