<svg width="14" height="22" viewBox="0 0 14 22" fill="none" xmlns="http://www.w3.org/2000/svg">
<g id="label-paired / sm / clapperboard-play-sm / fill" clip-path="url(#clip0_3431_762)">
<path id="icon" d="M12.3867 4.65234L8.94141 8.09766L8.91406 8.125H6.37109L9.87109 4.65234L9.89844 4.625H12.25C12.3047 4.625 12.332 4.65234 12.3867 4.65234ZM10.7461 8.125L13.6172 5.28125C13.8359 5.58203 14 5.96484 14 6.375V8.125H10.7461ZM5.49609 4.625H8.03906L4.56641 8.09766L4.53906 8.125H1.99609L5.49609 4.65234L5.52344 4.625H5.49609ZM3.66406 4.625L0.191406 8.09766L0.164062 8.125H0V6.375C0 5.41797 0.765625 4.625 1.75 4.625H3.66406ZM0 9H14V15.125C14 16.1094 13.207 16.875 12.25 16.875H1.75C0.765625 16.875 0 16.1094 0 15.125V9ZM5.90625 10.8047C5.76953 10.8867 5.6875 11.0508 5.6875 11.1875V14.6875C5.6875 14.8516 5.76953 15.0156 5.90625 15.0977C6.04297 15.1523 6.23438 15.1523 6.34375 15.0703L8.96875 13.3203C9.10547 13.2383 9.1875 13.1016 9.1875 12.9375C9.1875 12.8008 9.10547 12.6641 8.96875 12.582L6.34375 10.832C6.23438 10.75 6.04297 10.75 5.90625 10.8047Z" fill="black" fill-opacity="0.72"/>
</g>
<defs>
<clipPath id="clip0_3431_762">
<rect width="14" height="22" fill="white"/>
</clipPath>
</defs>
</svg>
