<svg width="14" height="22" viewBox="0 0 14 22" fill="none" xmlns="http://www.w3.org/2000/svg">
<g id="label-paired / sm / sun-bright-sm / regular" clip-path="url(#clip0_2556_12799)">
<path id="icon" d="M7 3.75C7.21875 3.75 7.4375 3.96875 7.4375 4.1875V6.375C7.4375 6.62109 7.21875 6.8125 7 6.8125C6.75391 6.8125 6.5625 6.62109 6.5625 6.375V4.1875C6.5625 3.96875 6.75391 3.75 7 3.75ZM0 10.75C0 10.5312 0.191406 10.3125 0.4375 10.3125H2.625C2.84375 10.3125 3.0625 10.5312 3.0625 10.75C3.0625 10.9961 2.84375 11.1875 2.625 11.1875H0.4375C0.191406 11.1875 0 10.9961 0 10.75ZM10.9375 10.75C10.9375 10.5312 11.1289 10.3125 11.375 10.3125H13.5625C13.7812 10.3125 14 10.5312 14 10.75C14 10.9961 13.7812 11.1875 13.5625 11.1875H11.375C11.1289 11.1875 10.9375 10.9961 10.9375 10.75ZM7 14.6875C7.21875 14.6875 7.4375 14.9062 7.4375 15.125V17.3125C7.4375 17.5586 7.21875 17.75 7 17.75C6.75391 17.75 6.5625 17.5586 6.5625 17.3125V15.125C6.5625 14.9062 6.75391 14.6875 7 14.6875ZM2.05078 5.80078C2.21484 5.63672 2.48828 5.63672 2.65234 5.80078L4.21094 7.35938C4.375 7.52344 4.375 7.79688 4.21094 7.98828C4.04688 8.15234 3.74609 8.15234 3.58203 7.98828L2.05078 6.42969C1.85938 6.26562 1.85938 5.99219 2.05078 5.80078ZM2.05078 15.6992C1.85938 15.5352 1.85938 15.2617 2.05078 15.0977L3.58203 13.5391C3.74609 13.375 4.04688 13.375 4.21094 13.5391C4.375 13.7031 4.375 14.0039 4.21094 14.168L2.65234 15.6992C2.48828 15.8906 2.21484 15.8906 2.05078 15.6992ZM9.76172 7.98828C9.59766 7.79688 9.59766 7.52344 9.76172 7.35938L11.3203 5.80078C11.4844 5.63672 11.7578 5.63672 11.9492 5.80078C12.1133 5.99219 12.1133 6.26562 11.9492 6.42969L10.3906 7.98828C10.2266 8.15234 9.95312 8.15234 9.76172 7.98828ZM9.76172 13.5391C9.95312 13.375 10.2266 13.375 10.3906 13.5391L11.9492 15.0977C12.1133 15.2617 12.1133 15.5352 11.9492 15.6992C11.7578 15.8906 11.4844 15.8906 11.3203 15.6992L9.76172 14.168C9.59766 14.0039 9.59766 13.7031 9.76172 13.5391ZM9.1875 10.75C9.1875 9.98438 8.75 9.27344 8.09375 8.86328C7.41016 8.48047 6.5625 8.48047 5.90625 8.86328C5.22266 9.27344 4.8125 9.98438 4.8125 10.75C4.8125 11.543 5.22266 12.2539 5.90625 12.6641C6.5625 13.0469 7.41016 13.0469 8.09375 12.6641C8.75 12.2539 9.1875 11.543 9.1875 10.75ZM3.9375 10.75C3.9375 9.65625 4.51172 8.67188 5.46875 8.125C6.39844 7.55078 7.57422 7.55078 8.53125 8.125C9.46094 8.67188 10.0625 9.65625 10.0625 10.75C10.0625 11.8711 9.46094 12.8555 8.53125 13.4023C7.57422 13.9766 6.39844 13.9766 5.46875 13.4023C4.51172 12.8555 3.9375 11.8711 3.9375 10.75Z" fill="black" fill-opacity="0.72"/>
</g>
<defs>
<clipPath id="clip0_2556_12799">
<rect width="14" height="22" fill="white"/>
</clipPath>
</defs>
</svg>
