<svg width="20" height="30" viewBox="0 0 20 30" fill="none" xmlns="http://www.w3.org/2000/svg">
<g id="label-paired / lg / phone-lg / fill" clip-path="url(#clip0_2556_17158)">
<path id="icon" d="M6.40625 6.47656L7.96875 10.2266C8.24219 10.8516 8.08594 11.5938 7.53906 12.0234L5.625 13.625C6.91406 16.3594 9.14062 18.5859 11.875 19.875L13.4766 17.9609C13.9062 17.4141 14.6484 17.2578 15.2734 17.5312L19.0234 19.0938C19.7656 19.3672 20.1172 20.1875 19.9219 20.9297L18.9844 24.3672C18.7891 25.0312 18.2031 25.5 17.5 25.5C7.8125 25.5 0 17.6875 0 8C0 7.29688 0.46875 6.71094 1.13281 6.51562L4.57031 5.57812C5.3125 5.38281 6.13281 5.73438 6.40625 6.47656Z" fill="black" fill-opacity="0.72"/>
</g>
<defs>
<clipPath id="clip0_2556_17158">
<rect width="20" height="30" fill="white"/>
</clipPath>
</defs>
</svg>
