<svg width="18" height="22" viewBox="0 0 18 22" fill="none" xmlns="http://www.w3.org/2000/svg">
<g id="label-paired / sm / volume-high-sm / bold" clip-path="url(#clip0_3758_661)">
<path id="icon" d="M14.8242 4.65234C16.6016 6.10156 17.75 8.28906 17.75 10.75C17.75 13.2383 16.6016 15.4258 14.8242 16.875C14.5508 17.0938 14.1406 17.0664 13.8945 16.793C13.6758 16.4922 13.7305 16.082 14.0039 15.8633C15.4805 14.6602 16.4375 12.8281 16.4375 10.75C16.4375 8.69922 15.4805 6.86719 14.0039 5.66406C13.7305 5.44531 13.6758 5.03516 13.8945 4.73438C14.1406 4.46094 14.5508 4.43359 14.8242 4.65234ZM13.1836 6.67578V6.70312C14.3594 7.66016 15.125 9.10938 15.125 10.7773C15.125 12.418 14.3594 13.8672 13.1836 14.8516C12.8828 15.0703 12.4727 15.0156 12.2539 14.7422C12.0352 14.4688 12.0625 14.0586 12.3359 13.8125C13.2383 13.1016 13.8125 12.0078 13.8125 10.75C13.8125 9.51953 13.2383 8.42578 12.3359 7.71484C12.0625 7.46875 12.0078 7.05859 12.2539 6.78516C12.4727 6.51172 12.8828 6.45703 13.1836 6.67578ZM11.5156 8.72656C12.1172 9.21875 12.5 9.92969 12.5 10.75C12.5 11.5977 12.1172 12.3086 11.5156 12.8008C11.2422 13.0195 10.832 12.9922 10.5859 12.7188C10.3672 12.418 10.4219 12.0078 10.6953 11.7891C10.9961 11.543 11.1875 11.1602 11.1875 10.75C11.1875 10.3398 10.9961 9.98438 10.6953 9.73828C10.4219 9.51953 10.3672 9.10938 10.5859 8.80859C10.832 8.53516 11.2422 8.50781 11.5156 8.72656ZM4.59766 9.27344C4.48828 9.38281 4.32422 9.4375 4.1875 9.4375H1.78125C1.64453 9.4375 1.5625 9.54688 1.5625 9.65625V11.8438C1.5625 11.9805 1.64453 12.0625 1.78125 12.0625H4.1875C4.32422 12.0625 4.48828 12.1445 4.59766 12.2539L7.6875 14.9609V6.56641L4.59766 9.27344ZM8.17969 4.625C8.61719 4.625 9 5.00781 9 5.44531V16.082C9 16.5195 8.61719 16.875 8.17969 16.875C7.96094 16.875 7.76953 16.8203 7.63281 16.6836L3.91406 13.375H1.78125C0.933594 13.375 0.25 12.6914 0.25 11.8438V9.65625C0.25 8.83594 0.933594 8.125 1.78125 8.125H3.91406L7.63281 4.84375C7.76953 4.70703 7.96094 4.625 8.17969 4.625Z" fill="black" fill-opacity="0.72"/>
</g>
<defs>
<clipPath id="clip0_3758_661">
<rect width="18" height="22" fill="white"/>
</clipPath>
</defs>
</svg>
