<svg width="9" height="18" viewBox="0 0 9 18" fill="none" xmlns="http://www.w3.org/2000/svg">
<g id="label-paired / caption / play-caption / regular" clip-path="url(#clip0_2556_10005)">
<path id="icon" d="M1.3125 5.07031C1.19531 5 1.05469 5 0.9375 5.04688C0.820312 5.11719 0.726562 5.25781 0.726562 5.375V13.625C0.726562 13.7656 0.820312 13.9062 0.9375 13.9531C1.05469 14.0234 1.19531 14.0234 1.3125 13.9531L8.0625 9.82812C8.17969 9.75781 8.25 9.64062 8.25 9.5C8.25 9.38281 8.17969 9.26562 8.0625 9.19531L1.3125 5.07031ZM0.5625 4.41406C0.914062 4.20312 1.35938 4.20312 1.71094 4.41406L8.46094 8.53906C8.78906 8.75 9 9.125 9 9.5C9 9.89844 8.78906 10.2734 8.46094 10.4609L1.71094 14.5859C1.35938 14.8203 0.914062 14.8203 0.5625 14.6094C0.210938 14.4219 0 14.0469 0 13.625V5.375C0 4.97656 0.210938 4.60156 0.5625 4.41406Z" fill="black" fill-opacity="0.72"/>
</g>
<defs>
<clipPath id="clip0_2556_10005">
<rect width="9" height="18" fill="white"/>
</clipPath>
</defs>
</svg>
