<svg width="16" height="24" viewBox="0 0 16 24" fill="none" xmlns="http://www.w3.org/2000/svg">
<g id="label-paired / md / chart-line-up-down-md / fill" clip-path="url(#clip0_2556_15103)">
<path id="icon" d="M2 6V16.5C2 16.7812 2.21875 17 2.5 17H15C15.5312 17 16 17.4688 16 18C16 18.5625 15.5312 19 15 19H2.5C1.09375 19 0 17.9062 0 16.5V6C0 5.46875 0.4375 5 1 5C1.53125 5 2 5.46875 2 6ZM11.7812 7.8125L11.1875 7.21875C11.0625 7.09375 11 6.90625 11 6.71875C11 6.34375 11.3125 6 11.6875 6H14.5C14.75 6 15 6.25 15 6.5V7V7.03125V9.3125C15 9.6875 14.6562 10 14.2812 10C14.0938 10 13.9062 9.9375 13.7812 9.8125L13.1875 9.21875L9.6875 12.7188C9.3125 13.125 8.65625 13.125 8.28125 12.7188L6.5 10.9375L4.6875 12.7188C4.3125 13.125 3.65625 13.125 3.28125 12.7188C2.875 12.3438 2.875 11.6875 3.28125 11.3125L5.78125 8.8125C6.15625 8.40625 6.8125 8.40625 7.1875 8.8125L9 10.5938L11.7812 7.8125ZM13.7812 12.2188C13.9062 12.0938 14.0938 12 14.2812 12C14.6875 12 15 12.3438 15 12.7188V15.5C15 15.7812 14.75 16 14.5 16H11.6875C11.3125 16 11 15.6875 11 15.3125C11 15.125 11.0625 14.9375 11.1875 14.8125L11.7812 14.2188L10.6875 13.125L12.125 11.7188L13.1875 12.8125L13.7812 12.2188Z" fill="black" fill-opacity="0.72"/>
</g>
<defs>
<clipPath id="clip0_2556_15103">
<rect width="16" height="24" fill="white"/>
</clipPath>
</defs>
</svg>
