<svg width="24" height="36" viewBox="0 0 24 36" fill="none" xmlns="http://www.w3.org/2000/svg">
<g id="label-paired / xl / chart-line-xl / bold" clip-path="url(#clip0_2556_19615)">
<path id="icon" d="M2.25 8.625V25.125C2.25 25.7812 2.71875 26.25 3.375 26.25H22.875C23.4844 26.25 24 26.7656 24 27.375C24 28.0312 23.4844 28.5 22.875 28.5H3.375C1.5 28.5 0 27 0 25.125V8.625C0 8.01562 0.46875 7.5 1.125 7.5C1.73438 7.5 2.25 8.01562 2.25 8.625ZM22.1719 13.9219L15.75 20.2969C15.3281 20.7656 14.625 20.7656 14.2031 20.2969L10.5 16.5938L6.79688 20.2969C6.32812 20.7656 5.625 20.7656 5.20312 20.2969C4.73438 19.875 4.73438 19.1719 5.20312 18.75L9.70312 14.25C9.89062 14.0156 10.1719 13.9219 10.5 13.9219C10.7812 13.9219 11.0625 14.0156 11.2969 14.25L15 17.9531L20.5781 12.375C21 11.9062 21.7031 11.9062 22.1719 12.375C22.5938 12.7969 22.5938 13.5 22.1719 13.9219Z" fill="black" fill-opacity="0.72"/>
</g>
<defs>
<clipPath id="clip0_2556_19615">
<rect width="24" height="36" fill="white"/>
</clipPath>
</defs>
</svg>
