<svg width="18" height="30" viewBox="0 0 18 30" fill="none" xmlns="http://www.w3.org/2000/svg">
<g id="label-paired / lg / ellipsis-lg / bold" clip-path="url(#clip0_2556_17614)">
<path id="icon" d="M17.125 15.5C17.125 16.2031 16.7344 16.7891 16.1875 17.1406C15.6016 17.4922 14.8594 17.4922 14.3125 17.1406C13.7266 16.7891 13.375 16.2031 13.375 15.5C13.375 14.8359 13.7266 14.25 14.3125 13.8984C14.8594 13.5469 15.6016 13.5469 16.1875 13.8984C16.7344 14.25 17.125 14.8359 17.125 15.5ZM10.875 15.5C10.875 16.2031 10.4844 16.7891 9.9375 17.1406C9.35156 17.4922 8.60938 17.4922 8.0625 17.1406C7.47656 16.7891 7.125 16.2031 7.125 15.5C7.125 14.8359 7.47656 14.25 8.0625 13.8984C8.60938 13.5469 9.35156 13.5469 9.9375 13.8984C10.4844 14.25 10.875 14.8359 10.875 15.5ZM2.75 17.375C2.04688 17.375 1.46094 17.0234 1.10938 16.4375C0.757812 15.8906 0.757812 15.1484 1.10938 14.5625C1.46094 14.0156 2.04688 13.625 2.75 13.625C3.41406 13.625 4 14.0156 4.35156 14.5625C4.70312 15.1484 4.70312 15.8906 4.35156 16.4375C4 17.0234 3.41406 17.375 2.75 17.375Z" fill="black" fill-opacity="0.72"/>
</g>
<defs>
<clipPath id="clip0_2556_17614">
<rect width="18" height="30" fill="white"/>
</clipPath>
</defs>
</svg>
