<svg width="23" height="30" viewBox="0 0 23 30" fill="none" xmlns="http://www.w3.org/2000/svg">
<g id="label-paired / lg / pen-line-lg / fill" clip-path="url(#clip0_2556_17010)">
<path id="icon" d="M17.9453 6.28125L19.4688 7.80469C20.4453 8.78125 20.4453 10.3828 19.4688 11.3594L17.5938 13.2344L12.5156 8.15625L14.3906 6.28125C15.3672 5.30469 16.9688 5.30469 17.9453 6.28125ZM2.51562 18.1562L11.6172 9.05469L16.6953 14.1328L7.59375 23.2344C7.20312 23.625 6.69531 23.9375 6.14844 24.0938L1.42188 25.4609C1.10938 25.5781 0.757812 25.5 0.523438 25.2266C0.25 24.9922 0.171875 24.6406 0.289062 24.3281L1.65625 19.6016C1.8125 19.0547 2.125 18.5469 2.51562 18.1562ZM9.9375 23.625H21.8125C22.3203 23.625 22.75 24.0547 22.75 24.5625C22.75 25.1094 22.3203 25.5 21.8125 25.5H9.9375C9.39062 25.5 9 25.1094 9 24.5625C9 24.0547 9.39062 23.625 9.9375 23.625Z" fill="black" fill-opacity="0.72"/>
</g>
<defs>
<clipPath id="clip0_2556_17010">
<rect width="23" height="30" fill="white"/>
</clipPath>
</defs>
</svg>
