<svg width="16" height="24" viewBox="0 0 16 24" fill="none" xmlns="http://www.w3.org/2000/svg">
<g id="label-paired / md / arrow-up-right-from-square-md / fill" clip-path="url(#clip0_2556_15150)">
<path id="icon" d="M10 4H15C15.5312 4 16 4.46875 16 5V10C16 10.5625 15.5312 11 15 11C14.4375 11 14 10.5625 14 10V7.4375L7.6875 13.7188C7.3125 14.125 6.65625 14.125 6.28125 13.7188C5.875 13.3438 5.875 12.6875 6.28125 12.3125L12.5625 6H10C9.4375 6 9 5.5625 9 5C9 4.46875 9.4375 4 10 4ZM2.5 5H6C6.53125 5 7 5.46875 7 6C7 6.5625 6.53125 7 6 7H2.5C2.21875 7 2 7.25 2 7.5V17.5C2 17.7812 2.21875 18 2.5 18H12.5C12.75 18 13 17.7812 13 17.5V14C13 13.4688 13.4375 13 14 13C14.5312 13 15 13.4688 15 14V17.5C15 18.9062 13.875 20 12.5 20H2.5C1.09375 20 0 18.9062 0 17.5V7.5C0 6.125 1.09375 5 2.5 5Z" fill="black" fill-opacity="0.72"/>
</g>
<defs>
<clipPath id="clip0_2556_15150">
<rect width="16" height="24" fill="white"/>
</clipPath>
</defs>
</svg>
