<svg width="23" height="30" viewBox="0 0 23 30" fill="none" xmlns="http://www.w3.org/2000/svg">
<g id="label-paired / lg / keyboard-lg / fill" clip-path="url(#clip0_2556_17062)">
<path id="icon" d="M2.75 8H20.25C21.6172 8 22.75 9.13281 22.75 10.5V20.5C22.75 21.9062 21.6172 23 20.25 23H2.75C1.34375 23 0.25 21.9062 0.25 20.5V10.5C0.25 9.13281 1.34375 8 2.75 8ZM3.375 10.5C3.02344 10.5 2.75 10.8125 2.75 11.125V12.375C2.75 12.7266 3.02344 13 3.375 13H4.625C4.9375 13 5.25 12.7266 5.25 12.375V11.125C5.25 10.8125 4.9375 10.5 4.625 10.5H3.375ZM2.75 14.875V16.125C2.75 16.4766 3.02344 16.75 3.375 16.75H4.625C4.9375 16.75 5.25 16.4766 5.25 16.125V14.875C5.25 14.5625 4.9375 14.25 4.625 14.25H3.375C3.02344 14.25 2.75 14.5625 2.75 14.875ZM3.375 18C3.02344 18 2.75 18.3125 2.75 18.625V19.875C2.75 20.2266 3.02344 20.5 3.375 20.5H4.625C4.9375 20.5 5.25 20.2266 5.25 19.875V18.625C5.25 18.3125 4.9375 18 4.625 18H3.375ZM6.5 11.125V12.375C6.5 12.7266 6.77344 13 7.125 13H8.375C8.6875 13 9 12.7266 9 12.375V11.125C9 10.8125 8.6875 10.5 8.375 10.5H7.125C6.77344 10.5 6.5 10.8125 6.5 11.125ZM7.125 14.25C6.77344 14.25 6.5 14.5625 6.5 14.875V16.125C6.5 16.4766 6.77344 16.75 7.125 16.75H8.375C8.6875 16.75 9 16.4766 9 16.125V14.875C9 14.5625 8.6875 14.25 8.375 14.25H7.125ZM6.5 18.625V19.875C6.5 20.2266 6.77344 20.5 7.125 20.5H15.875C16.1875 20.5 16.5 20.2266 16.5 19.875V18.625C16.5 18.3125 16.1875 18 15.875 18H7.125C6.77344 18 6.5 18.3125 6.5 18.625ZM10.875 10.5C10.5234 10.5 10.25 10.8125 10.25 11.125V12.375C10.25 12.7266 10.5234 13 10.875 13H12.125C12.4375 13 12.75 12.7266 12.75 12.375V11.125C12.75 10.8125 12.4375 10.5 12.125 10.5H10.875ZM10.25 14.875V16.125C10.25 16.4766 10.5234 16.75 10.875 16.75H12.125C12.4375 16.75 12.75 16.4766 12.75 16.125V14.875C12.75 14.5625 12.4375 14.25 12.125 14.25H10.875C10.5234 14.25 10.25 14.5625 10.25 14.875ZM14.625 10.5C14.2734 10.5 14 10.8125 14 11.125V12.375C14 12.7266 14.2734 13 14.625 13H15.875C16.1875 13 16.5 12.7266 16.5 12.375V11.125C16.5 10.8125 16.1875 10.5 15.875 10.5H14.625ZM14 14.875V16.125C14 16.4766 14.2734 16.75 14.625 16.75H15.875C16.1875 16.75 16.5 16.4766 16.5 16.125V14.875C16.5 14.5625 16.1875 14.25 15.875 14.25H14.625C14.2734 14.25 14 14.5625 14 14.875ZM18.375 10.5C18.0234 10.5 17.75 10.8125 17.75 11.125V12.375C17.75 12.7266 18.0234 13 18.375 13H19.625C19.9375 13 20.25 12.7266 20.25 12.375V11.125C20.25 10.8125 19.9375 10.5 19.625 10.5H18.375ZM17.75 14.875V16.125C17.75 16.4766 18.0234 16.75 18.375 16.75H19.625C19.9375 16.75 20.25 16.4766 20.25 16.125V14.875C20.25 14.5625 19.9375 14.25 19.625 14.25H18.375C18.0234 14.25 17.75 14.5625 17.75 14.875ZM18.375 18C18.0234 18 17.75 18.3125 17.75 18.625V19.875C17.75 20.2266 18.0234 20.5 18.375 20.5H19.625C19.9375 20.5 20.25 20.2266 20.25 19.875V18.625C20.25 18.3125 19.9375 18 19.625 18H18.375Z" fill="black" fill-opacity="0.72"/>
</g>
<defs>
<clipPath id="clip0_2556_17062">
<rect width="23" height="30" fill="white"/>
</clipPath>
</defs>
</svg>
