<svg width="11" height="18" viewBox="0 0 11 18" fill="none" xmlns="http://www.w3.org/2000/svg">
<g id="label-paired / caption / bell-caption / regular" clip-path="url(#clip0_2556_10158)">
<path id="icon" d="M5.125 3.875C5.125 3.6875 5.28906 3.5 5.5 3.5C5.6875 3.5 5.875 3.6875 5.875 3.875V4.27344C7.75 4.46094 9.25 6.05469 9.25 8V8.70312C9.25 9.71094 9.64844 10.6953 10.375 11.4219L10.4453 11.4922C10.6328 11.6797 10.75 11.9609 10.75 12.2188C10.75 12.8047 10.2812 13.2734 9.69531 13.2734H1.28125C0.695312 13.25 0.25 12.8047 0.25 12.2188C0.25 11.9375 0.34375 11.6797 0.554688 11.4922L0.601562 11.4219C1.32812 10.6953 1.75 9.71094 1.75 8.70312V8C1.75 6.05469 3.22656 4.46094 5.125 4.27344V3.875ZM5.5 5C3.83594 5 2.5 6.35938 2.5 8V8.70312C2.5 9.92188 2.00781 11.0938 1.14062 11.9609L1.07031 12.0078C1.02344 12.0781 1 12.1484 1 12.2188C1 12.3828 1.11719 12.5 1.28125 12.5H9.69531C9.85938 12.5 10 12.3828 10 12.2188C10 12.1484 9.95312 12.0781 9.90625 12.0078L9.83594 11.9609C8.96875 11.0938 8.47656 9.92188 8.47656 8.67969V8C8.47656 6.35938 7.14062 5 5.47656 5H5.5ZM4.77344 14.2578C4.89062 14.5625 5.17188 14.75 5.5 14.75C5.80469 14.75 6.08594 14.5625 6.20312 14.2578C6.27344 14.0703 6.48438 13.9531 6.67188 14.0234C6.85938 14.0938 6.97656 14.3047 6.90625 14.5156C6.69531 15.1016 6.13281 15.5 5.5 15.5C4.84375 15.5 4.28125 15.1016 4.07031 14.5156C4 14.3047 4.11719 14.0938 4.30469 14.0234C4.49219 13.9531 4.70312 14.0703 4.77344 14.2578Z" fill="black" fill-opacity="0.72"/>
</g>
<defs>
<clipPath id="clip0_2556_10158">
<rect width="11" height="18" fill="white"/>
</clipPath>
</defs>
</svg>
