<svg width="16" height="24" viewBox="0 0 16 24" fill="none" xmlns="http://www.w3.org/2000/svg">
<g id="label-paired / md / circle-chevron-left-md / bold" clip-path="url(#clip0_2556_14854)">
<path id="icon" d="M1.5 12C1.5 14.3438 2.71875 16.4688 4.75 17.6562C6.75 18.8125 9.21875 18.8125 11.25 17.6562C13.25 16.4688 14.5 14.3438 14.5 12C14.5 9.6875 13.25 7.5625 11.25 6.375C9.21875 5.21875 6.75 5.21875 4.75 6.375C2.71875 7.5625 1.5 9.6875 1.5 12ZM16 12C16 14.875 14.4688 17.5 12 18.9375C9.5 20.375 6.46875 20.375 4 18.9375C1.5 17.5 0 14.875 0 12C0 9.15625 1.5 6.53125 4 5.09375C6.46875 3.65625 9.5 3.65625 12 5.09375C14.4688 6.53125 16 9.15625 16 12ZM8.46875 8.21875V8.25C8.75 7.9375 9.21875 7.9375 9.5 8.25C9.8125 8.53125 9.8125 9 9.5 9.3125L6.78125 12.0312L9.5 14.75C9.8125 15.0312 9.8125 15.5 9.5 15.7812C9.21875 16.0938 8.75 16.0938 8.46875 15.7812L5.21875 12.5312C4.90625 12.25 4.90625 11.7812 5.21875 11.4688L8.46875 8.21875Z" fill="black" fill-opacity="0.72"/>
</g>
<defs>
<clipPath id="clip0_2556_14854">
<rect width="16" height="24" fill="white"/>
</clipPath>
</defs>
</svg>
