<svg width="18" height="36" viewBox="0 0 18 36" fill="none" xmlns="http://www.w3.org/2000/svg">
<g id="label-paired / xl / moon-xl / bold" clip-path="url(#clip0_2556_19739)">
<path id="icon" d="M6.75 10.6406C4.07812 12 2.25 14.8125 2.25 18C2.25 22.5938 5.90625 26.25 10.4531 26.25C11.0625 26.25 11.6719 26.2031 12.2812 26.0625C8.15625 24.6562 5.20312 20.7188 5.20312 16.125C5.20312 14.1094 5.76562 12.2344 6.75 10.6406ZM9.65625 7.54688C9.79688 7.54688 9.89062 7.54688 9.98438 7.54688C10.1719 7.54688 10.3125 7.54688 10.4531 7.54688C10.5938 7.54688 10.7344 7.54688 10.8281 7.54688C11.0156 7.54688 11.1562 7.54688 11.3438 7.54688C11.6719 7.59375 11.9531 7.82812 12 8.15625C12.0938 8.48438 11.9531 8.8125 11.6719 8.95312C11.4844 9.04688 11.3438 9.14062 11.2031 9.23438C11.0156 9.375 10.8281 9.51562 10.6406 9.65625C10.5469 9.70312 10.5 9.75 10.4531 9.79688C8.625 11.2969 7.45312 13.5938 7.45312 16.1719C7.45312 20.7188 11.1562 24.375 15.6562 24.4219C15.7031 24.4219 15.7031 24.4219 15.7031 24.4219C15.75 24.4219 15.7969 24.4219 15.8438 24.4219C16.125 24.375 16.3594 24.375 16.5938 24.375C16.7344 24.3281 16.9219 24.3281 17.1094 24.2812C17.4375 24.2344 17.7656 24.375 17.9062 24.6562C18.0469 24.9844 18 25.3125 17.7656 25.5469C17.625 25.6875 17.5312 25.7812 17.3906 25.875C17.1562 26.0625 16.9688 26.25 16.7344 26.4375C16.6406 26.4844 16.5469 26.5781 16.4531 26.625C14.7656 27.7969 12.7031 28.5 10.4531 28.5C4.6875 28.5 0 23.8125 0 18C0 12.4688 4.26562 7.96875 9.65625 7.54688Z" fill="black" fill-opacity="0.72"/>
</g>
<defs>
<clipPath id="clip0_2556_19739">
<rect width="18" height="36" fill="white"/>
</clipPath>
</defs>
</svg>
