<svg width="8" height="24" viewBox="0 0 8 24" fill="none" xmlns="http://www.w3.org/2000/svg">
<g id="label-paired / md / grip-dots-vertical-md / bold" clip-path="url(#clip0_2556_15311)">
<path id="icon" d="M2 8C1.4375 8 1 7.5625 1 7C1 6.46875 1.4375 6 2 6C2.53125 6 3 6.46875 3 7C3 7.5625 2.53125 8 2 8ZM2 13C1.4375 13 1 12.5625 1 12C1 11.4688 1.4375 11 2 11C2.53125 11 3 11.4688 3 12C3 12.5625 2.53125 13 2 13ZM3 17C3 17.5625 2.53125 18 2 18C1.4375 18 1 17.5625 1 17C1 16.4688 1.4375 16 2 16C2.53125 16 3 16.4688 3 17ZM6 8C5.4375 8 5 7.5625 5 7C5 6.46875 5.4375 6 6 6C6.53125 6 7 6.46875 7 7C7 7.5625 6.53125 8 6 8ZM7 12C7 12.5625 6.53125 13 6 13C5.4375 13 5 12.5625 5 12C5 11.4688 5.4375 11 6 11C6.53125 11 7 11.4688 7 12ZM6 18C5.4375 18 5 17.5625 5 17C5 16.4688 5.4375 16 6 16C6.53125 16 7 16.4688 7 17C7 17.5625 6.53125 18 6 18Z" fill="black" fill-opacity="0.72"/>
</g>
<defs>
<clipPath id="clip0_2556_15311">
<rect width="8" height="24" fill="white"/>
</clipPath>
</defs>
</svg>
