<svg width="14" height="24" viewBox="0 0 14 24" fill="none" xmlns="http://www.w3.org/2000/svg">
<g id="label-paired / md / linux-md" clip-path="url(#clip0_2556_14587)">
<path id="icon" d="M6.875 7.875C6.84375 7.84375 6.78125 7.84375 6.78125 7.8125C6.78125 7.8125 6.78125 7.78125 6.8125 7.78125C6.84375 7.75 6.90625 7.75 6.96875 7.78125C7 7.8125 7.0625 7.84375 7.0625 7.875C7.0625 7.90625 7 7.90625 6.96875 7.90625C6.9375 7.90625 6.90625 7.875 6.875 7.875ZM6.1875 7.90625C6.15625 7.9375 6.125 7.90625 6.125 7.875C6.09375 7.84375 6.1875 7.8125 6.21875 7.78125C6.28125 7.75 6.34375 7.75 6.375 7.78125C6.40625 7.78125 6.40625 7.8125 6.40625 7.8125C6.40625 7.84375 6.34375 7.84375 6.28125 7.875C6.25 7.875 6.25 7.90625 6.1875 7.90625ZM13.125 16.625C13.4688 17.0312 13.5938 17.3125 13.5938 17.5625C13.5938 17.8125 13.4062 18 13.1562 18.125C12.6875 18.4062 12 18.625 11.5625 19.125C11.125 19.6562 10.5938 19.9688 10.0625 20C9.53125 20.0625 9.0625 19.8125 8.8125 19.2812C8.78125 19.2188 8.75 19.1562 8.71875 19.0938C8.0625 19.125 7.46875 18.9062 7 18.9375C6.3125 19 5.875 19.1562 5.5 19.1562C5.34375 19.5 5.03125 19.7188 4.6875 19.7812C4.1875 19.9062 3.5625 19.7812 2.9375 19.4688C2.34375 19.1562 1.625 19.1875 1.09375 19.0625C0.8125 19.0312 0.5625 18.9062 0.46875 18.6875C0.34375 18.4688 0.375 18.1562 0.53125 17.6875C0.5625 17.5312 0.53125 17.3125 0.5 17.0625C0.46875 16.9375 0.46875 16.8125 0.46875 16.6875C0.46875 16.5312 0.46875 16.4062 0.5625 16.2812C0.6875 16.0312 0.90625 15.9062 1.125 15.8438C1.34375 15.75 1.53125 15.7188 1.65625 15.5938C1.8125 15.4062 1.96875 15.125 2.1875 14.9375C2.09375 14.4062 2.1875 13.8438 2.375 13.2812C2.75 12.0938 3.59375 10.9688 4.1875 10.25C4.6875 9.53125 4.84375 8.96875 4.875 8.25C4.9375 7.25 4.125 4 7.3125 4C9.84375 4.03125 9.71875 6.6875 9.6875 8.125C9.6875 9.0625 10.1875 9.6875 10.75 10.375C11.2188 10.9375 11.8438 11.75 12.1875 12.6875C12.4688 13.4688 12.5938 14.3125 12.3125 15.1562C12.3438 15.1875 12.4062 15.1875 12.4375 15.2188C12.4688 15.25 12.5312 15.2812 12.5625 15.3125C12.75 15.5 12.8438 15.75 12.875 16.0312C12.9375 16.2812 13 16.5 13.125 16.625ZM6.96875 6.75C6.875 6.96875 6.84375 7.21875 6.875 7.4375C7 7.4375 7.15625 7.5 7.28125 7.5625C7.21875 7.1875 7.4375 6.8125 7.65625 6.84375C7.9375 6.84375 8.09375 7.3125 7.9375 7.6875C7.90625 7.75 7.84375 7.8125 7.8125 7.84375C8.03125 7.90625 8.15625 7.96875 8.21875 8C8.46875 7.6875 8.5625 7.1875 8.34375 6.71875C8.03125 6.0625 7.28125 6.0625 6.96875 6.75ZM5.71875 6.375C5.125 6.375 4.96875 7.5625 5.4375 8C5.6875 7.84375 5.65625 7.875 5.625 7.84375C5.375 7.625 5.40625 6.96875 5.6875 6.96875C5.875 6.9375 6.03125 7.28125 5.96875 7.5625C6.09375 7.5 6.1875 7.46875 6.3125 7.4375C6.34375 6.8125 6.03125 6.375 5.71875 6.375ZM5.28125 8.28125C5.15625 8.375 5.09375 8.5 5.15625 8.65625C5.1875 8.8125 5.34375 9 5.59375 9.15625C5.84375 9.28125 5.96875 9.5 6.21875 9.625C6.3125 9.65625 6.40625 9.65625 6.53125 9.6875C7.09375 9.71875 7.375 9.3125 7.71875 9.21875C8.09375 9.09375 8.34375 8.875 8.4375 8.65625C8.53125 8.375 8.375 8.1875 8.09375 8.0625C7.75 7.9375 7.59375 7.90625 7.40625 7.78125C7.09375 7.59375 6.8125 7.5 6.59375 7.5C6.15625 7.5 5.875 7.8125 5.71875 7.9375C5.71875 7.96875 5.46875 8.125 5.28125 8.28125ZM5.375 18.7188C5.4375 18.0625 4.40625 17.1875 4.09375 16.5625L3.5 15.4375C3.28125 15.1562 3.0625 15 2.8125 14.9375C2.5625 14.9062 2.40625 15 2.25 15.1562C2.09375 15.3125 1.96875 15.5625 1.8125 15.7188C1.5625 15.9375 1.5 15.9375 1.1875 16.0312C1 16.0938 0.84375 16.1875 0.71875 16.4062C0.65625 16.5625 0.65625 16.7812 0.6875 17.0312C0.75 17.25 0.78125 17.5312 0.71875 17.75V17.7812C0.5625 18.1875 0.5625 18.4375 0.625 18.5938C0.875 19.0625 2.09375 18.7812 3.03125 19.2812C4 19.7812 5.3125 19.8125 5.375 18.7188ZM5.34375 17.9062C6.5 18.7188 7.90625 18.4062 8.90625 17.6875C9 17.3438 9.09375 17.0312 9.125 16.7812C9.15625 16.3125 9.1875 15.875 9.25 15.5312C9.34375 15.125 9.5625 14.8125 9.9375 14.6875C10 14.0312 10.5 14.0312 11.125 14.2812C11.7188 14.5625 11.9375 14.7812 11.8438 15.0938C11.875 15.0938 11.9062 15.0938 11.9688 15.0938C12.125 14.5625 11.5312 14.2188 11 14C11.0938 13.625 11.0938 13.25 11 12.9062C10.8125 12.0938 10.2812 11.4062 9.90625 11.0625C9.8125 11.0625 9.84375 11.125 9.96875 11.25C10.3438 11.5938 11.125 12.7812 10.7188 13.9062C10.5938 13.875 10.4688 13.875 10.375 13.875C10.1875 12.9688 9.8125 12.2188 9.625 11.8438C9.28125 11.1875 8.71875 9.8125 8.46875 8.84375C8.3125 9.0625 8.09375 9.21875 7.78125 9.3125C7.625 9.375 7.46875 9.5 7.28125 9.59375C6.84375 9.84375 6.34375 9.875 5.9375 9.5625C5.8125 9.46875 5.6875 9.34375 5.5625 9.25C5.5 9.21875 5.40625 9.15625 5.375 9.125C5.3125 10.3125 4.5 11.7812 4.125 12.6562C3.875 13.25 3.71875 13.9062 3.6875 14.5625C3.03125 13.6562 3.53125 12.5 3.78125 12C4.09375 11.4375 4.125 11.2812 4.0625 11.3438C3.78125 11.7812 3.375 12.4688 3.21875 13.1875C3.125 13.5625 3.09375 13.9375 3.21875 14.2812C3.3125 14.625 3.5625 14.9688 3.96875 15.2188C3.96875 15.2188 4.75 15.6562 5.1875 16.25C5.40625 16.5625 5.46875 16.8125 5.40625 17.0312C5.34375 17.2188 5.125 17.2812 4.875 17.2812C5.03125 17.4688 5.21875 17.6875 5.34375 17.9062ZM13.375 17.5625C13.4062 17.375 13.2812 17.1562 12.9688 16.7812C12.6562 16.4375 12.7188 15.75 12.4062 15.4688C12.2188 15.2812 12 15.3125 11.7188 15.3125C11.4688 15.5938 10.9062 15.9375 10.5 15.8438C10.1562 15.75 9.9375 15.3125 9.9375 14.9062C9.90625 14.9062 9.90625 14.9062 9.90625 14.9375C9.6875 15.0312 9.5625 15.25 9.46875 15.5938C9.375 15.9062 9.375 16.3125 9.34375 16.7812C9.3125 17.1562 9.15625 17.625 9.03125 18.0625C8.90625 18.4688 8.84375 18.8438 9 19.1875C9.21875 19.6562 9.59375 19.8438 10.0312 19.8125C10.5 19.75 11 19.5 11.4062 19C12.0938 18.1562 13.3438 18.0625 13.375 17.5625ZM5.40625 8.65625C5.28125 8.5625 5.3125 8.46875 5.34375 8.46875C5.4375 8.46875 5.4375 8.5625 5.46875 8.625C5.53125 8.65625 5.625 8.75 5.71875 8.8125C5.90625 8.96875 6.1875 9.125 6.5 9.125C6.8125 9.125 7.21875 8.9375 7.4375 8.8125C7.5625 8.75 7.71875 8.59375 7.875 8.5C7.96875 8.4375 7.96875 8.34375 8.0625 8.34375C8.15625 8.34375 8.09375 8.4375 7.96875 8.5625C7.84375 8.65625 7.65625 8.78125 7.5 8.875C7.21875 9.03125 6.875 9.21875 6.5 9.21875C6.15625 9.21875 5.84375 9.03125 5.65625 8.875C5.5625 8.8125 5.46875 8.71875 5.40625 8.65625Z" fill="black" fill-opacity="0.72"/>
</g>
<defs>
<clipPath id="clip0_2556_14587">
<rect width="14" height="24" fill="white"/>
</clipPath>
</defs>
</svg>
