<svg width="20" height="30" viewBox="0 0 20 30" fill="none" xmlns="http://www.w3.org/2000/svg">
<g id="label-paired / lg / scissors-lg / regular" clip-path="url(#clip0_2556_17026)">
<path id="icon" d="M19.8438 22.8047C19.6094 23.0781 19.2188 23.0781 18.9453 22.8828L13.0078 17.8047C12.7344 17.6094 12.7344 17.1797 12.9297 16.9453C13.1641 16.6719 13.5547 16.6328 13.8281 16.8672L19.7656 21.9062C20.0391 22.1406 20.0391 22.5312 19.8438 22.8047ZM11.2109 14.7188L18.9453 8.15625C19.2188 7.96094 19.6094 7.96094 19.8438 8.23438C20.0391 8.50781 20.0391 8.89844 19.7656 9.13281L8.125 18.9375C8.51562 19.5625 8.75 20.3438 8.75 21.125C8.75 23.5469 6.75781 25.5 4.375 25.5C1.95312 25.5 0 23.5469 0 21.125C0 18.7422 1.95312 16.75 4.375 16.75C5.50781 16.75 6.5625 17.2188 7.34375 17.9609L10.2344 15.5L7.34375 13.0781C6.5625 13.8203 5.50781 14.25 4.375 14.25C1.95312 14.25 0 12.2969 0 9.875C0 7.49219 1.95312 5.5 4.375 5.5C6.75781 5.5 8.75 7.49219 8.75 9.91406C8.75 10.6953 8.51562 11.4766 8.125 12.1016L11.2109 14.7188ZM4.375 13C5.46875 13 6.48438 12.4141 7.07031 11.4375C7.61719 10.5 7.61719 9.28906 7.07031 8.3125C6.48438 7.375 5.46875 6.75 4.375 6.75C3.24219 6.75 2.22656 7.375 1.64062 8.3125C1.09375 9.28906 1.09375 10.5 1.64062 11.4375C2.22656 12.4141 3.24219 13 4.375 13ZM4.375 18C3.24219 18 2.22656 18.625 1.64062 19.5625C1.09375 20.5391 1.09375 21.75 1.64062 22.6875C2.22656 23.6641 3.24219 24.25 4.375 24.25C5.46875 24.25 6.48438 23.6641 7.07031 22.6875C7.61719 21.75 7.61719 20.5391 7.07031 19.5625C6.48438 18.625 5.46875 18 4.375 18Z" fill="black" fill-opacity="0.72"/>
</g>
<defs>
<clipPath id="clip0_2556_17026">
<rect width="20" height="30" fill="white"/>
</clipPath>
</defs>
</svg>
