<svg width="16" height="24" viewBox="0 0 16 24" fill="none" xmlns="http://www.w3.org/2000/svg">
<g id="label-paired / md / circle-chevron-right-md / regular" clip-path="url(#clip0_2556_15182)">
<path id="icon" d="M15 12C15 9.5 13.6562 7.21875 11.5 5.96875C9.3125 4.6875 6.65625 4.6875 4.5 5.96875C2.3125 7.21875 1 9.5 1 12C1 14.5312 2.3125 16.8125 4.5 18.0625C6.65625 19.3438 9.3125 19.3438 11.5 18.0625C13.6562 16.8125 15 14.5312 15 12ZM0 12C0 9.15625 1.5 6.53125 4 5.09375C6.46875 3.65625 9.5 3.65625 12 5.09375C14.4688 6.53125 16 9.15625 16 12C16 14.875 14.4688 17.5 12 18.9375C9.5 20.375 6.46875 20.375 4 18.9375C1.5 17.5 0 14.875 0 12ZM7.34375 15.875C7.15625 16.0625 6.8125 16.0625 6.625 15.875C6.4375 15.6875 6.4375 15.3438 6.625 15.1562L9.78125 12L6.625 8.875C6.4375 8.6875 6.4375 8.34375 6.625 8.15625C6.8125 7.96875 7.15625 7.96875 7.34375 8.15625L10.8438 11.6562C11.0312 11.8438 11.0312 12.1875 10.8438 12.375L7.34375 15.875Z" fill="black" fill-opacity="0.72"/>
</g>
<defs>
<clipPath id="clip0_2556_15182">
<rect width="16" height="24" fill="white"/>
</clipPath>
</defs>
</svg>
