<svg width="18" height="22" viewBox="0 0 18 22" fill="none" xmlns="http://www.w3.org/2000/svg">
<g id="label-paired / sm / box-archive-circle-arrow-down-sm / fill" clip-path="url(#clip0_2556_12823)">
<path id="icon" d="M0.25 5.5C0.25 5.03516 0.632812 4.625 1.125 4.625H13.375C13.8398 4.625 14.25 5.03516 14.25 5.5V6.375C14.25 6.86719 13.8398 7.25 13.375 7.25H1.125C0.632812 7.25 0.25 6.86719 0.25 6.375V5.5ZM1.125 8.125H13.375V9.02734C10.9141 9.24609 9 11.3242 9 13.8125C9 14.9883 9.41016 16.0547 10.0938 16.875H2.875C1.89062 16.875 1.125 16.1094 1.125 15.125V8.125ZM4.625 10.3125C4.625 10.5586 4.81641 10.75 5.0625 10.75H9.4375C9.65625 10.75 9.875 10.5586 9.875 10.3125C9.875 10.0938 9.65625 9.875 9.4375 9.875H5.0625C4.81641 9.875 4.625 10.0938 4.625 10.3125ZM9.875 13.8125C9.875 12.418 10.6133 11.1055 11.8438 10.4219C13.0469 9.71094 14.5508 9.71094 15.7812 10.4219C16.9844 11.1055 17.75 12.418 17.75 13.8125C17.75 15.2344 16.9844 16.5195 15.7812 17.2305C14.5508 17.9414 13.0469 17.9414 11.8438 17.2305C10.6133 16.5195 9.875 15.2344 9.875 13.8125ZM11.9531 13.7305C11.7891 13.8945 11.7891 14.1953 11.9531 14.3594L13.4844 15.8906C13.6484 16.0547 13.9492 16.0547 14.1133 15.8906L15.6445 14.3594C15.8086 14.1953 15.8086 13.8945 15.6445 13.7305C15.4805 13.5664 15.1797 13.5664 15.0156 13.7305L14.25 14.5234V12.0625C14.25 11.8438 14.0312 11.625 13.8125 11.625C13.5664 11.625 13.375 11.8438 13.375 12.0625V14.5234L12.582 13.7305C12.418 13.5664 12.1172 13.5664 11.9531 13.7305Z" fill="black" fill-opacity="0.72"/>
</g>
<defs>
<clipPath id="clip0_2556_12823">
<rect width="18" height="22" fill="white"/>
</clipPath>
</defs>
</svg>
