<svg width="14" height="22" viewBox="0 0 14 22" fill="none" xmlns="http://www.w3.org/2000/svg">
<g id="label-paired / sm / circle-arrow-down-sm / bold" clip-path="url(#clip0_2556_12601)">
<path id="icon" d="M7 5.0625C4.94922 5.0625 3.08984 6.15625 2.05078 7.90625C1.03906 9.68359 1.03906 11.8438 2.05078 13.5938C3.08984 15.3711 4.94922 16.4375 7 16.4375C9.02344 16.4375 10.8828 15.3711 11.9219 13.5938C12.9336 11.8438 12.9336 9.68359 11.9219 7.90625C10.8828 6.15625 9.02344 5.0625 7 5.0625ZM7 17.75C4.48438 17.75 2.1875 16.4375 0.929688 14.25C-0.328125 12.0898 -0.328125 9.4375 0.929688 7.25C2.1875 5.08984 4.48438 3.75 7 3.75C9.48828 3.75 11.7852 5.08984 13.043 7.25C14.3008 9.4375 14.3008 12.0898 13.043 14.25C11.7852 16.4375 9.48828 17.75 7 17.75ZM9.87109 11.6523L7.46484 14.0586C7.19141 14.332 6.78125 14.332 6.53516 14.0586L4.12891 11.6523C3.85547 11.4062 3.85547 10.9961 4.12891 10.75C4.375 10.4766 4.78516 10.4766 5.05859 10.75L6.34375 12.0352V7.90625C6.34375 7.55078 6.61719 7.25 7 7.25C7.35547 7.25 7.65625 7.55078 7.65625 7.90625V12.0352L8.94141 10.75C9.1875 10.4766 9.59766 10.4766 9.84375 10.75C10.1172 10.9961 10.1172 11.4062 9.84375 11.6523H9.87109Z" fill="black" fill-opacity="0.72"/>
</g>
<defs>
<clipPath id="clip0_2556_12601">
<rect width="14" height="22" fill="white"/>
</clipPath>
</defs>
</svg>
