<svg width="11" height="18" viewBox="0 0 11 18" fill="none" xmlns="http://www.w3.org/2000/svg">
<g id="label-paired / caption / flag-checkered-caption / regular" clip-path="url(#clip0_2556_10062)">
<path id="icon" d="M1 3.875V4.90625L3.29688 4.27344C4.25781 4.01562 5.26562 4.10938 6.15625 4.55469C7.14062 5.04688 8.3125 5 9.25 4.46094L9.625 4.25C10.1172 3.96875 10.75 4.32031 10.75 4.90625V11.5156C10.75 11.8203 10.5625 12.0781 10.2812 12.1953L9.57812 12.5C8.40625 13.0156 7.07031 12.9688 5.92188 12.4062C5.125 12.0078 4.23438 11.9141 3.36719 12.1484L1 12.8047V15.125C1 15.3359 0.8125 15.5 0.625 15.5C0.414062 15.5 0.25 15.3359 0.25 15.125V12.9922V12.5V5.375V5.09375V3.875C0.25 3.6875 0.414062 3.5 0.625 3.5C0.8125 3.5 1 3.6875 1 3.875ZM1 5.67969V7.13281L3.25 6.64062V5.04688L1 5.67969ZM1 7.90625V9.57031L3.25 9.07812V7.41406L1 7.90625ZM4 7.25V8.91406C4.51562 8.82031 5.05469 8.84375 5.59375 8.98438L7 9.40625V7.74219C6.95312 7.74219 6.90625 7.71875 6.88281 7.71875L5.35938 7.27344C4.9375 7.15625 4.49219 7.13281 4.07031 7.22656L4 7.25ZM7.75 7.88281V9.57031C8.10156 9.59375 8.45312 9.57031 8.80469 9.47656L10 9.21875V7.55469L8.96875 7.78906C8.57031 7.88281 8.14844 7.90625 7.75 7.88281ZM7 10.1797C6.95312 10.1797 6.90625 10.1562 6.88281 10.1562L5.35938 9.71094C4.9375 9.59375 4.49219 9.57031 4.07031 9.66406L4 9.6875V11.2812C4.77344 11.2109 5.54688 11.375 6.27344 11.7266C6.50781 11.8438 6.74219 11.9375 7 12.0078V10.1797ZM7.75 12.1016C8.26562 12.125 8.78125 12.0312 9.27344 11.8203L10 11.5156V9.99219L8.96875 10.2266C8.57031 10.3203 8.14844 10.3438 7.75 10.3203V12.1016ZM7.75 7.10938V7.13281C8.10156 7.15625 8.45312 7.13281 8.80469 7.03906L10 6.78125V4.90625L9.625 5.11719C9.03906 5.44531 8.38281 5.63281 7.75 5.63281V7.10938ZM7 5.58594C6.57812 5.53906 6.20312 5.39844 5.82812 5.21094C5.24219 4.92969 4.60938 4.83594 4 4.90625V6.47656C4.51562 6.38281 5.05469 6.40625 5.57031 6.54688L7 6.96875V5.58594ZM1 10.3438V12.0312L3.17969 11.4219C3.20312 11.4219 3.22656 11.4219 3.25 11.3984V9.85156L1 10.3438Z" fill="black" fill-opacity="0.72"/>
</g>
<defs>
<clipPath id="clip0_2556_10062">
<rect width="11" height="18" fill="white"/>
</clipPath>
</defs>
</svg>
