<svg width="13" height="22" viewBox="0 0 13 22" fill="none" xmlns="http://www.w3.org/2000/svg">
<g id="label-paired / sm / grid-sm / fill" clip-path="url(#clip0_2556_12874)">
<path id="icon" d="M0.375 5.71875C0.375 5.11719 0.839844 4.625 1.46875 4.625H2.78125C3.38281 4.625 3.875 5.11719 3.875 5.71875V7.03125C3.875 7.66016 3.38281 8.125 2.78125 8.125H1.46875C0.839844 8.125 0.375 7.66016 0.375 7.03125V5.71875ZM0.375 10.0938C0.375 9.49219 0.839844 9 1.46875 9H2.78125C3.38281 9 3.875 9.49219 3.875 10.0938V11.4062C3.875 12.0352 3.38281 12.5 2.78125 12.5H1.46875C0.839844 12.5 0.375 12.0352 0.375 11.4062V10.0938ZM3.875 14.4688V15.7812C3.875 16.4102 3.38281 16.875 2.78125 16.875H1.46875C0.839844 16.875 0.375 16.4102 0.375 15.7812V14.4688C0.375 13.8672 0.839844 13.375 1.46875 13.375H2.78125C3.38281 13.375 3.875 13.8672 3.875 14.4688ZM4.75 5.71875C4.75 5.11719 5.21484 4.625 5.84375 4.625H7.15625C7.75781 4.625 8.25 5.11719 8.25 5.71875V7.03125C8.25 7.66016 7.75781 8.125 7.15625 8.125H5.84375C5.21484 8.125 4.75 7.66016 4.75 7.03125V5.71875ZM8.25 10.0938V11.4062C8.25 12.0352 7.75781 12.5 7.15625 12.5H5.84375C5.21484 12.5 4.75 12.0352 4.75 11.4062V10.0938C4.75 9.49219 5.21484 9 5.84375 9H7.15625C7.75781 9 8.25 9.49219 8.25 10.0938ZM4.75 14.4688C4.75 13.8672 5.21484 13.375 5.84375 13.375H7.15625C7.75781 13.375 8.25 13.8672 8.25 14.4688V15.7812C8.25 16.4102 7.75781 16.875 7.15625 16.875H5.84375C5.21484 16.875 4.75 16.4102 4.75 15.7812V14.4688ZM12.625 5.71875V7.03125C12.625 7.66016 12.1328 8.125 11.5312 8.125H10.2188C9.58984 8.125 9.125 7.66016 9.125 7.03125V5.71875C9.125 5.11719 9.58984 4.625 10.2188 4.625H11.5312C12.1328 4.625 12.625 5.11719 12.625 5.71875ZM9.125 10.0938C9.125 9.49219 9.58984 9 10.2188 9H11.5312C12.1328 9 12.625 9.49219 12.625 10.0938V11.4062C12.625 12.0352 12.1328 12.5 11.5312 12.5H10.2188C9.58984 12.5 9.125 12.0352 9.125 11.4062V10.0938ZM12.625 14.4688V15.7812C12.625 16.4102 12.1328 16.875 11.5312 16.875H10.2188C9.58984 16.875 9.125 16.4102 9.125 15.7812V14.4688C9.125 13.8672 9.58984 13.375 10.2188 13.375H11.5312C12.1328 13.375 12.625 13.8672 12.625 14.4688Z" fill="black" fill-opacity="0.72"/>
</g>
<defs>
<clipPath id="clip0_2556_12874">
<rect width="13" height="22" fill="white"/>
</clipPath>
</defs>
</svg>
