<svg width="12" height="18" viewBox="0 0 12 18" fill="none" xmlns="http://www.w3.org/2000/svg">
<g id="label-paired / caption / chevrons-right-caption / bold" clip-path="url(#clip0_2556_10233)">
<path id="icon" d="M10.8984 9.10156C11.1094 9.33594 11.1094 9.6875 10.8984 9.89844L6.39844 14.3984C6.16406 14.6328 5.8125 14.6328 5.60156 14.3984C5.36719 14.1875 5.36719 13.8359 5.60156 13.625L9.70312 9.52344L5.60156 5.39844C5.36719 5.1875 5.36719 4.83594 5.60156 4.625C5.8125 4.39062 6.16406 4.39062 6.375 4.625L10.8984 9.10156ZM1.89844 4.60156L6.39844 9.10156C6.60938 9.33594 6.60938 9.6875 6.39844 9.89844L1.89844 14.3984C1.66406 14.6328 1.3125 14.6328 1.10156 14.3984C0.867188 14.1875 0.867188 13.8359 1.10156 13.625L5.20312 9.52344L1.10156 5.39844C0.867188 5.1875 0.867188 4.83594 1.10156 4.625C1.3125 4.39062 1.66406 4.39062 1.875 4.625L1.89844 4.60156Z" fill="black" fill-opacity="0.72"/>
</g>
<defs>
<clipPath id="clip0_2556_10233">
<rect width="12" height="18" fill="white"/>
</clipPath>
</defs>
</svg>
