<svg width="14" height="18" viewBox="0 0 14 18" fill="none" xmlns="http://www.w3.org/2000/svg">
<g id="label-paired / caption / rectangle-ad-caption / fill" clip-path="url(#clip0_2556_10118)">
<path id="icon" d="M1.75 4.25H12.25C13.0703 4.25 13.75 4.92969 13.75 5.75V13.25C13.75 14.0938 13.0703 14.75 12.25 14.75H1.75C0.90625 14.75 0.25 14.0938 0.25 13.25V5.75C0.25 4.92969 0.90625 4.25 1.75 4.25ZM5.61719 7.57812C5.52344 7.36719 5.33594 7.25 5.125 7.25C4.89062 7.25 4.70312 7.39062 4.60938 7.57812L2.92188 10.9531C2.78125 11.2344 2.89844 11.5625 3.17969 11.7031C3.46094 11.8438 3.78906 11.7266 3.92969 11.4453L4.04688 11.1875H6.17969L6.29688 11.4453C6.4375 11.7266 6.78906 11.8438 7.04688 11.7031C7.32812 11.5625 7.44531 11.2344 7.30469 10.9531L5.61719 7.57812ZM5.125 9.07812L5.61719 10.0625H4.60938L5.125 9.07812ZM9.4375 9.5C9.74219 9.5 10 9.75781 10 10.0625C10 10.3906 9.74219 10.625 9.4375 10.625C9.10938 10.625 8.875 10.3906 8.875 10.0625C8.875 9.75781 9.10938 9.5 9.4375 9.5ZM10 8.49219C9.8125 8.42188 9.625 8.375 9.4375 8.375C8.5 8.375 7.75 9.14844 7.75 10.0625C7.75 11 8.5 11.75 9.4375 11.75C9.69531 11.75 9.92969 11.7031 10.1641 11.5859C10.2578 11.7031 10.3984 11.75 10.5625 11.75C10.8672 11.75 11.125 11.5156 11.125 11.1875V10.0625V7.8125C11.125 7.50781 10.8672 7.25 10.5625 7.25C10.2344 7.25 10 7.50781 10 7.8125V8.49219Z" fill="black" fill-opacity="0.72"/>
</g>
<defs>
<clipPath id="clip0_2556_10118">
<rect width="14" height="18" fill="white"/>
</clipPath>
</defs>
</svg>
