<svg width="18" height="30" viewBox="0 0 18 30" fill="none" xmlns="http://www.w3.org/2000/svg">
<g id="label-paired / lg / square-list-lg / regular" clip-path="url(#clip0_3004_441)">
<path id="icon" d="M2.75 8C2.04688 8 1.5 8.58594 1.5 9.25V21.75C1.5 22.4531 2.04688 23 2.75 23H15.25C15.9141 23 16.5 22.4531 16.5 21.75V9.25C16.5 8.58594 15.9141 8 15.25 8H2.75ZM0.25 9.25C0.25 7.88281 1.34375 6.75 2.75 6.75H15.25C16.6172 6.75 17.75 7.88281 17.75 9.25V21.75C17.75 23.1562 16.6172 24.25 15.25 24.25H2.75C1.34375 24.25 0.25 23.1562 0.25 21.75V9.25ZM4.3125 11.75C4.3125 11.2422 4.70312 10.8125 5.25 10.8125C5.75781 10.8125 6.1875 11.2422 6.1875 11.75C6.1875 12.2969 5.75781 12.6875 5.25 12.6875C4.70312 12.6875 4.3125 12.2969 4.3125 11.75ZM7.75 11.75C7.75 11.4375 8.02344 11.125 8.375 11.125H13.375C13.6875 11.125 14 11.4375 14 11.75C14 12.1016 13.6875 12.375 13.375 12.375H8.375C8.02344 12.375 7.75 12.1016 7.75 11.75ZM7.75 15.5C7.75 15.1875 8.02344 14.875 8.375 14.875H13.375C13.6875 14.875 14 15.1875 14 15.5C14 15.8516 13.6875 16.125 13.375 16.125H8.375C8.02344 16.125 7.75 15.8516 7.75 15.5ZM7.75 19.25C7.75 18.9375 8.02344 18.625 8.375 18.625H13.375C13.6875 18.625 14 18.9375 14 19.25C14 19.6016 13.6875 19.875 13.375 19.875H8.375C8.02344 19.875 7.75 19.6016 7.75 19.25ZM5.25 16.4375C4.70312 16.4375 4.3125 16.0469 4.3125 15.5C4.3125 14.9922 4.70312 14.5625 5.25 14.5625C5.75781 14.5625 6.1875 14.9922 6.1875 15.5C6.1875 16.0469 5.75781 16.4375 5.25 16.4375ZM4.3125 19.25C4.3125 18.7422 4.70312 18.3125 5.25 18.3125C5.75781 18.3125 6.1875 18.7422 6.1875 19.25C6.1875 19.7969 5.75781 20.1875 5.25 20.1875C4.70312 20.1875 4.3125 19.7969 4.3125 19.25Z" fill="black" fill-opacity="0.72"/>
</g>
<defs>
<clipPath id="clip0_3004_441">
<rect width="18" height="30" fill="white"/>
</clipPath>
</defs>
</svg>
