<svg width="25" height="30" viewBox="0 0 25 30" fill="none" xmlns="http://www.w3.org/2000/svg">
<g id="label-paired / lg / field-password-lg / regular" clip-path="url(#clip0_2512_1280)">
<path id="icon" d="M3.75 9.875C2.69531 9.875 1.875 10.7344 1.875 11.75V19.25C1.875 20.3047 2.69531 21.125 3.75 21.125H21.25C22.2656 21.125 23.125 20.3047 23.125 19.25V11.75C23.125 10.7344 22.2656 9.875 21.25 9.875H3.75ZM0.625 11.75C0.625 10.0312 1.99219 8.625 3.75 8.625H21.25C22.9688 8.625 24.375 10.0312 24.375 11.75V19.25C24.375 21.0078 22.9688 22.375 21.25 22.375H3.75C1.99219 22.375 0.625 21.0078 0.625 19.25V11.75ZM16.875 19.25C16.5234 19.25 16.25 18.9766 16.25 18.625V12.375C16.25 12.0625 16.5234 11.75 16.875 11.75C17.1875 11.75 17.5 12.0625 17.5 12.375V18.625C17.5 18.9766 17.1875 19.25 16.875 19.25ZM5 15.5C5 14.8359 5.54688 14.25 6.25 14.25C6.91406 14.25 7.5 14.8359 7.5 15.5C7.5 16.2031 6.91406 16.75 6.25 16.75C5.54688 16.75 5 16.2031 5 15.5ZM8.75 15.5C8.75 14.8359 9.29688 14.25 10 14.25C10.6641 14.25 11.25 14.8359 11.25 15.5C11.25 16.2031 10.6641 16.75 10 16.75C9.29688 16.75 8.75 16.2031 8.75 15.5ZM12.5 15.5C12.5 14.8359 13.0469 14.25 13.75 14.25C14.4141 14.25 15 14.8359 15 15.5C15 16.2031 14.4141 16.75 13.75 16.75C13.0469 16.75 12.5 16.2031 12.5 15.5Z" fill="black" fill-opacity="0.72"/>
</g>
<defs>
<clipPath id="clip0_2512_1280">
<rect width="25" height="30" fill="white"/>
</clipPath>
</defs>
</svg>
