<svg width="20" height="30" viewBox="0 0 20 30" fill="none" xmlns="http://www.w3.org/2000/svg">
<g id="label-paired / lg / forward-lg / bold" clip-path="url(#clip0_2556_16983)">
<path id="icon" d="M8.75 9.17188C8.75 8.54688 9.25781 8 9.92188 8C10.1562 8 10.3906 8.07812 10.5859 8.23438L19.6094 14.7578C19.8438 14.9531 20 15.2266 20 15.5C20 15.8125 19.8438 16.0859 19.6094 16.2812L10.5859 22.8047C10.3906 22.9219 10.1562 23 9.92188 23C9.25781 23 8.75 22.4922 8.75 21.8281V17.9609L1.83594 22.8047C1.64062 22.9609 1.40625 23 1.17188 23C0.507812 23 0 22.4922 0 21.8281V9.21094C0 8.54688 0.507812 8 1.17188 8C1.40625 8 1.64062 8.07812 1.83594 8.23438L8.75 13.0781V9.17188ZM8.75 15.3438L1.875 10.5391V20.5L8.75 15.6953V15.3438ZM17.4609 15.5L10.625 10.5781V20.4609L17.4609 15.5Z" fill="black" fill-opacity="0.72"/>
</g>
<defs>
<clipPath id="clip0_2556_16983">
<rect width="20" height="30" fill="white"/>
</clipPath>
</defs>
</svg>
