<svg width="27" height="36" viewBox="0 0 27 36" fill="none" xmlns="http://www.w3.org/2000/svg">
<g id="label-paired / xl / presentation-screen-xl / fill" clip-path="url(#clip0_2556_19450)">
<path id="icon" d="M1.5 6H3H24H25.5C26.2969 6 27 6.70312 27 7.5C27 8.34375 26.2969 9 25.5 9V19.5C25.5 21.1875 24.1406 22.5 22.5 22.5H15V24.1406L18.2812 27.4688C18.8906 28.0312 18.8906 29.0156 18.2812 29.5781C17.7188 30.1875 16.7344 30.1875 16.1719 29.5781L13.5 26.9062L10.7812 29.5781C10.2188 30.1875 9.23438 30.1875 8.67188 29.5781C8.0625 29.0156 8.0625 28.0312 8.67188 27.4688L12 24.1406V22.5H4.5C2.8125 22.5 1.5 21.1875 1.5 19.5V9C0.65625 9 0 8.34375 0 7.5C0 6.70312 0.65625 6 1.5 6ZM4.5 9V19.5H13.5H22.5V9H4.5Z" fill="black" fill-opacity="0.72"/>
</g>
<defs>
<clipPath id="clip0_2556_19450">
<rect width="27" height="36" fill="white"/>
</clipPath>
</defs>
</svg>
