<svg width="11" height="18" viewBox="0 0 11 18" fill="none" xmlns="http://www.w3.org/2000/svg">
<g id="label-paired / caption / ellipsis-caption / bold" clip-path="url(#clip0_2556_10432)">
<path id="icon" d="M10.375 9.5C10.375 9.92188 10.1406 10.2734 9.8125 10.4844C9.46094 10.6953 9.01562 10.6953 8.6875 10.4844C8.33594 10.2734 8.125 9.92188 8.125 9.5C8.125 9.10156 8.33594 8.75 8.6875 8.53906C9.01562 8.32812 9.46094 8.32812 9.8125 8.53906C10.1406 8.75 10.375 9.10156 10.375 9.5ZM6.625 9.5C6.625 9.92188 6.39062 10.2734 6.0625 10.4844C5.71094 10.6953 5.26562 10.6953 4.9375 10.4844C4.58594 10.2734 4.375 9.92188 4.375 9.5C4.375 9.10156 4.58594 8.75 4.9375 8.53906C5.26562 8.32812 5.71094 8.32812 6.0625 8.53906C6.39062 8.75 6.625 9.10156 6.625 9.5ZM1.75 10.625C1.32812 10.625 0.976562 10.4141 0.765625 10.0625C0.554688 9.73438 0.554688 9.28906 0.765625 8.9375C0.976562 8.60938 1.32812 8.375 1.75 8.375C2.14844 8.375 2.5 8.60938 2.71094 8.9375C2.92188 9.28906 2.92188 9.73438 2.71094 10.0625C2.5 10.4141 2.14844 10.625 1.75 10.625Z" fill="black" fill-opacity="0.72"/>
</g>
<defs>
<clipPath id="clip0_2556_10432">
<rect width="11" height="18" fill="white"/>
</clipPath>
</defs>
</svg>
