<svg width="13" height="22" viewBox="0 0 13 22" fill="none" xmlns="http://www.w3.org/2000/svg">
<g id="label-paired / sm / lock-sm / bold" clip-path="url(#clip0_2556_12387)">
<path id="icon" d="M4.3125 7.25V9H8.6875V7.25C8.6875 6.04688 7.70312 5.0625 6.5 5.0625C5.26953 5.0625 4.3125 6.04688 4.3125 7.25ZM3 9V7.25C3 5.33594 4.55859 3.75 6.5 3.75C8.41406 3.75 10 5.33594 10 7.25V9H10.875C11.832 9 12.625 9.79297 12.625 10.75V16C12.625 16.9844 11.832 17.75 10.875 17.75H2.125C1.14062 17.75 0.375 16.9844 0.375 16V10.75C0.375 9.79297 1.14062 9 2.125 9H3ZM1.6875 10.75V16C1.6875 16.2461 1.87891 16.4375 2.125 16.4375H10.875C11.0938 16.4375 11.3125 16.2461 11.3125 16V10.75C11.3125 10.5312 11.0938 10.3125 10.875 10.3125H2.125C1.87891 10.3125 1.6875 10.5312 1.6875 10.75Z" fill="black" fill-opacity="0.72"/>
</g>
<defs>
<clipPath id="clip0_2556_12387">
<rect width="13" height="22" fill="white"/>
</clipPath>
</defs>
</svg>
