<svg width="30" height="36" viewBox="0 0 30 36" fill="none" xmlns="http://www.w3.org/2000/svg">
<g id="label-paired / xl / bell-on-xl / fill" clip-path="url(#clip0_2556_19472)">
<path id="icon" d="M15 6C15.7969 6 16.5 6.70312 16.5 7.5V8.4375C19.9219 9.09375 22.5 12.1406 22.5 15.75V16.6406C22.5 18.8438 23.2969 21 24.75 22.6406L25.0781 23.0156C25.5 23.4844 25.5938 24.0938 25.3594 24.6562C25.125 25.1719 24.5625 25.5 24 25.5H6C5.39062 25.5 4.82812 25.1719 4.59375 24.6562C4.35938 24.0938 4.45312 23.4844 4.875 23.0156L5.20312 22.6406C6.65625 21 7.5 18.8438 7.5 16.6406V15.75C7.5 12.1406 10.0781 9.09375 13.5 8.4375V7.5C13.5 6.70312 14.1562 6 15 6ZM17.1094 29.1562C16.5469 29.7188 15.7969 30 15 30C14.2031 30 13.4062 29.7188 12.8438 29.1562C12.2812 28.5938 12 27.7969 12 27H15H18C18 27.7969 17.6719 28.5938 17.1094 29.1562ZM0 15.375C0 14.7656 0.46875 14.25 1.125 14.25H4.875C5.48438 14.25 6 14.7656 6 15.375C6 16.0312 5.48438 16.5 4.875 16.5H1.125C0.46875 16.5 0 16.0312 0 15.375ZM25.125 14.25H28.875C29.4844 14.25 30 14.7656 30 15.375C30 16.0312 29.4844 16.5 28.875 16.5H25.125C24.4688 16.5 24 16.0312 24 15.375C24 14.7656 24.4688 14.25 25.125 14.25ZM27.9844 7.03125C28.2656 7.59375 28.0312 8.25 27.4688 8.53125L24.4688 10.0312C23.9062 10.3125 23.25 10.0781 22.9688 9.51562C22.6875 8.95312 22.9219 8.29688 23.4844 8.01562L26.4844 6.51562C27.0469 6.23438 27.7031 6.46875 27.9844 7.03125ZM2.48438 8.53125C1.92188 8.25 1.6875 7.59375 1.96875 7.03125C2.25 6.46875 2.90625 6.23438 3.46875 6.51562L6.46875 8.01562C7.03125 8.29688 7.26562 8.95312 6.98438 9.51562C6.70312 10.0781 6.04688 10.3125 5.48438 10.0312L2.48438 8.53125Z" fill="black" fill-opacity="0.72"/>
</g>
<defs>
<clipPath id="clip0_2556_19472">
<rect width="30" height="36" fill="white"/>
</clipPath>
</defs>
</svg>
