<svg width="30" height="36" viewBox="0 0 30 36" fill="none" xmlns="http://www.w3.org/2000/svg">
<g id="label-paired / xl / book-circle-question-xl / bold" clip-path="url(#clip0_2981_963)">
<path id="icon" d="M0 10.125C0 7.875 1.82812 6 4.125 6H18.375C19.7812 6 21 7.21875 21 8.625V15.3281C20.1562 15.5625 19.4062 15.8906 18.75 16.3594V8.625C18.75 8.4375 18.5625 8.25 18.375 8.25H4.125C3.04688 8.25 2.25 9.09375 2.25 10.125V22.8281C2.67188 22.6406 3.1875 22.5 3.75 22.5H15C15 22.7812 15 23.0156 15 23.25C15 23.7656 15.0469 24.2812 15.0938 24.75H3.75C2.90625 24.75 2.25 25.4531 2.25 26.25C2.25 27.0938 2.90625 27.75 3.75 27.75H16.3125C16.875 28.6406 17.625 29.4375 18.4688 30H3.75C1.64062 30 0 28.3594 0 26.25C0 26.1562 0 26.0156 0 25.875V10.125ZM6 12.375C6 11.7656 6.46875 11.25 7.125 11.25H15.375C15.9844 11.25 16.5 11.7656 16.5 12.375C16.5 13.0312 15.9844 13.5 15.375 13.5H7.125C6.46875 13.5 6 13.0312 6 12.375ZM6 16.125C6 15.5156 6.46875 15 7.125 15H15.375C15.9844 15 16.5 15.5156 16.5 16.125C16.5 16.7812 15.9844 17.25 15.375 17.25H7.125C6.46875 17.25 6 16.7812 6 16.125ZM16.5 23.25C16.5 19.5469 19.5 16.5 23.25 16.5C26.9531 16.5 30 19.5469 30 23.25C30 27 26.9531 30 23.25 30C19.5 30 16.5 27 16.5 23.25ZM20.25 21.0938V21.375C20.25 21.7969 20.5781 22.125 21 22.125C21.375 22.125 21.75 21.7969 21.75 21.375V21.0938C21.75 20.8594 21.9375 20.625 22.1719 20.625H24.0938C24.4219 20.625 24.75 20.9531 24.75 21.2812C24.75 21.5625 24.6094 21.75 24.375 21.8906L22.875 22.6406C22.6406 22.7812 22.5 23.0625 22.5 23.3438V24C22.5 24.4219 22.8281 24.75 23.25 24.75C23.625 24.75 24 24.4219 24 24V23.7656L25.0781 23.2031C25.7812 22.8281 26.25 22.0781 26.25 21.2812C26.25 20.1094 25.2656 19.1719 24.0938 19.1719H22.1719C21.0938 19.1719 20.25 20.0156 20.25 21.0938ZM22.125 26.625C22.125 27.2812 22.5938 27.75 23.25 27.75C23.8594 27.75 24.375 27.2812 24.375 26.625C24.375 26.0156 23.8594 25.5 23.25 25.5C22.5938 25.5 22.125 26.0156 22.125 26.625Z" fill="black" fill-opacity="0.72"/>
</g>
<defs>
<clipPath id="clip0_2981_963">
<rect width="30" height="36" fill="white"/>
</clipPath>
</defs>
</svg>
