<svg width="23" height="30" viewBox="0 0 23 30" fill="none" xmlns="http://www.w3.org/2000/svg">
<g id="label-paired / lg / file-circle-info-lg / fill" clip-path="url(#clip0_2556_17001)">
<path id="icon" d="M0.25 8C0.25 6.63281 1.34375 5.5 2.75 5.5H9V10.5C9 11.2031 9.54688 11.75 10.25 11.75H15.25V13.2734C12.3594 14.0938 10.25 16.75 10.25 19.875C10.25 22.2188 11.3828 24.25 13.1016 25.5C12.9844 25.5 12.8672 25.5 12.75 25.5H2.75C1.34375 25.5 0.25 24.4062 0.25 23V8ZM15.25 10.5H10.25V5.5L15.25 10.5ZM17.125 14.25C19.1172 14.25 20.9531 15.3438 21.9688 17.0625C22.9844 18.8203 22.9844 20.9688 21.9688 22.6875C20.9531 24.4453 19.1172 25.5 17.125 25.5C15.0938 25.5 13.2578 24.4453 12.2422 22.6875C11.2266 20.9688 11.2266 18.8203 12.2422 17.0625C13.2578 15.3438 15.0938 14.25 17.125 14.25ZM17.125 18C17.6328 18 18.0625 17.6094 18.0625 17.0625C18.0625 16.5547 17.6328 16.125 17.125 16.125C16.5781 16.125 16.1875 16.5547 16.1875 17.0625C16.1875 17.6094 16.5781 18 17.125 18ZM15.875 19.875C15.875 20.2266 16.1484 20.5 16.5 20.5V22.375C16.1484 22.375 15.875 22.6875 15.875 23C15.875 23.3516 16.1484 23.625 16.5 23.625H17.125H17.75C18.0625 23.625 18.375 23.3516 18.375 23C18.375 22.6875 18.0625 22.375 17.75 22.375V19.875C17.75 19.5625 17.4375 19.25 17.125 19.25H16.5C16.1484 19.25 15.875 19.5625 15.875 19.875Z" fill="black" fill-opacity="0.72"/>
</g>
<defs>
<clipPath id="clip0_2556_17001">
<rect width="23" height="30" fill="white"/>
</clipPath>
</defs>
</svg>
