<svg width="25" height="30" viewBox="0 0 25 30" fill="none" xmlns="http://www.w3.org/2000/svg">
<g id="label-paired / lg / location-crosshairs-slash-lg / fill" clip-path="url(#clip0_2556_17046)">
<path id="icon" d="M1.48438 5.73438L7.1875 10.1875C8.28125 9.13281 9.6875 8.39062 11.25 8.11719V6.75C11.25 6.08594 11.7969 5.5 12.5 5.5C13.1641 5.5 13.75 6.08594 13.75 6.75V8.11719C16.875 8.66406 19.3359 11.125 19.8828 14.25H21.25C21.9141 14.25 22.5 14.8359 22.5 15.5C22.5 16.2031 21.9141 16.75 21.25 16.75H19.8828C19.7266 17.6875 19.375 18.5859 18.9062 19.3672L24.6094 23.8594C25.0391 24.1719 25.1172 24.7578 24.7656 25.1484C24.4531 25.5781 23.8672 25.6562 23.4766 25.3047L0.351562 7.17969C-0.078125 6.86719 -0.15625 6.28125 0.195312 5.89062C0.507812 5.46094 1.09375 5.38281 1.48438 5.73438ZM9.17969 11.75L10.7031 12.9219C11.2109 12.6094 11.8359 12.375 12.5 12.375C14.2188 12.375 15.625 13.7812 15.625 15.5C15.625 15.8906 15.5469 16.2812 15.3906 16.6328L16.9141 17.8047C17.2656 17.1406 17.5 16.3594 17.5 15.5C17.5 12.7656 15.2344 10.5 12.5 10.5C11.2109 10.5 10.0781 10.9688 9.17969 11.75ZM13.9844 20.3047L16.1719 22.0234C15.4297 22.4531 14.6094 22.7656 13.75 22.9219V24.25C13.75 24.9531 13.1641 25.5 12.5 25.5C11.7969 25.5 11.25 24.9531 11.25 24.25V22.9219C8.08594 22.375 5.625 19.9141 5.07812 16.7891H3.75C3.04688 16.7891 2.5 16.2031 2.5 15.5391C2.5 14.8359 3.04688 14.2891 3.75 14.2891H5.07812C5.11719 13.9766 5.19531 13.7031 5.27344 13.4297L7.5 15.1875C7.5 15.3047 7.5 15.4219 7.5 15.5C7.5 18.2734 9.72656 20.5 12.5 20.5C13.0078 20.5 13.5156 20.4219 13.9844 20.3047Z" fill="black" fill-opacity="0.72"/>
</g>
<defs>
<clipPath id="clip0_2556_17046">
<rect width="25" height="30" fill="white"/>
</clipPath>
</defs>
</svg>
