<svg width="14" height="22" viewBox="0 0 14 22" fill="none" xmlns="http://www.w3.org/2000/svg">
<g id="label-paired / sm / chart-mixed-sm / regular" clip-path="url(#clip0_2556_12659)">
<path id="icon" d="M13.8633 4.78906C14.0273 4.95312 14.0273 5.22656 13.8359 5.39062L9.02344 9.76562C8.85938 9.92969 8.58594 9.92969 8.42188 9.76562L5.19531 6.51172L0.683594 9.79297C0.492188 9.95703 0.21875 9.90234 0.0820312 9.71094C-0.0820312 9.51953 -0.0273438 9.24609 0.164062 9.08203L4.97656 5.58203C5.14062 5.47266 5.38672 5.5 5.55078 5.63672L8.75 8.83594L13.2617 4.76172C13.4258 4.59766 13.6992 4.59766 13.8633 4.78906ZM2.1875 15.5625V13.8125C2.1875 13.5938 1.96875 13.375 1.75 13.375C1.50391 13.375 1.3125 13.5938 1.3125 13.8125V15.5625C1.3125 15.8086 1.50391 16 1.75 16C1.96875 16 2.1875 15.8086 2.1875 15.5625ZM1.75 12.5C2.46094 12.5 3.0625 13.1016 3.0625 13.8125V15.5625C3.0625 16.3008 2.46094 16.875 1.75 16.875C1.01172 16.875 0.4375 16.3008 0.4375 15.5625V13.8125C0.4375 13.1016 1.01172 12.5 1.75 12.5ZM5.6875 11.1875C5.6875 10.9688 5.46875 10.75 5.25 10.75C5.00391 10.75 4.8125 10.9688 4.8125 11.1875V15.5625C4.8125 15.8086 5.00391 16 5.25 16C5.46875 16 5.6875 15.8086 5.6875 15.5625V11.1875ZM3.9375 11.1875C3.9375 10.4766 4.51172 9.875 5.25 9.875C5.96094 9.875 6.5625 10.4766 6.5625 11.1875V15.5625C6.5625 16.3008 5.96094 16.875 5.25 16.875C4.51172 16.875 3.9375 16.3008 3.9375 15.5625V11.1875ZM9.1875 15.5625V12.9375C9.1875 12.7188 8.96875 12.5 8.75 12.5C8.50391 12.5 8.3125 12.7188 8.3125 12.9375V15.5625C8.3125 15.8086 8.50391 16 8.75 16C8.96875 16 9.1875 15.8086 9.1875 15.5625ZM8.75 11.625C9.46094 11.625 10.0625 12.2266 10.0625 12.9375V15.5625C10.0625 16.3008 9.46094 16.875 8.75 16.875C8.01172 16.875 7.4375 16.3008 7.4375 15.5625V12.9375C7.4375 12.2266 8.01172 11.625 8.75 11.625ZM12.6875 11.1875C12.6875 10.9688 12.4688 10.75 12.25 10.75C12.0039 10.75 11.8125 10.9688 11.8125 11.1875V15.5625C11.8125 15.8086 12.0039 16 12.25 16C12.4688 16 12.6875 15.8086 12.6875 15.5625V11.1875ZM10.9375 11.1875C10.9375 10.4766 11.5117 9.875 12.25 9.875C12.9609 9.875 13.5625 10.4766 13.5625 11.1875V15.5625C13.5625 16.3008 12.9609 16.875 12.25 16.875C11.5117 16.875 10.9375 16.3008 10.9375 15.5625V11.1875Z" fill="black" fill-opacity="0.72"/>
</g>
<defs>
<clipPath id="clip0_2556_12659">
<rect width="14" height="22" fill="white"/>
</clipPath>
</defs>
</svg>
