<svg width="16" height="24" viewBox="0 0 16 24" fill="none" xmlns="http://www.w3.org/2000/svg">
<g id="label-paired / md / puzzle-piece-two-md / fill" clip-path="url(#clip0_3909_651)">
<path id="icon" d="M8 5.25C8.3125 5.25 8.5625 5.375 8.75 5.5625C8.90625 5.75 9 6 9.0625 6.28125V6.375L9 6.46875C8.75 6.75 8.9375 7.25 9.34375 7.25H10.6562C10.9688 7.25 11.25 7.34375 11.4688 7.5C11.6562 7.625 11.75 7.8125 11.75 8V12.7812H9.4375L9.5 12.5C9.5 12.4688 9.53125 12.4062 9.5 12.375C9.46875 11.9688 9.34375 11.5625 9.0625 11.2812C8.8125 10.9688 8.4375 10.7812 7.96875 10.7812C7.53125 10.7812 7.15625 10.9688 6.875 11.2812C6.625 11.5625 6.5 11.9688 6.46875 12.375C6.46875 12.4062 6.46875 12.4688 6.46875 12.5L6.53125 12.7812H4.21875V12C4.21875 11.9375 4.21875 11.7188 4.1875 11.5312C4.1875 11.4375 4.15625 11.3125 4.125 11.2188C4.09375 11.1562 4.0625 11.0312 3.96875 10.9688C3.875 10.9062 3.78125 10.875 3.6875 10.875C3.625 10.9062 3.5625 10.9062 3.53125 10.9375C3.5 10.9375 3.46875 10.9688 3.46875 10.9688L3.40625 11H3.34375C3 10.9688 2.71875 10.8438 2.53125 10.6875C2.34375 10.5312 2.21875 10.2812 2.21875 9.96875C2.21875 9.8125 2.25 9.6875 2.3125 9.5625C2.375 9.4375 2.4375 9.34375 2.53125 9.28125C2.71875 9.15625 3 9.0625 3.34375 9.03125H3.40625L3.46875 9.0625C3.46875 9.0625 3.5 9.0625 3.53125 9.09375C3.5625 9.09375 3.625 9.125 3.6875 9.15625C3.78125 9.15625 3.875 9.125 3.96875 9.0625C4.0625 9 4.09375 8.875 4.125 8.78125C4.15625 8.6875 4.1875 8.59375 4.1875 8.5C4.21875 8.3125 4.21875 8.09375 4.21875 8.03125V8C4.21875 7.8125 4.3125 7.625 4.53125 7.5C4.71875 7.34375 5 7.25 5.3125 7.25H6.625C7.03125 7.25 7.25 6.75 7 6.46875L6.90625 6.375L6.9375 6.28125C6.96875 6 7.09375 5.75 7.25 5.5625C7.40625 5.375 7.65625 5.25 8 5.25ZM7.96875 11.25C8.3125 11.25 8.5625 11.375 8.75 11.5625C8.90625 11.75 9 12 9.0625 12.2812V12.375L9 12.4688C8.75 12.75 8.9375 13.25 9.34375 13.25H11.75V13.5C11.75 13.5625 11.75 13.6875 11.75 13.9062V14.5938C11.75 15 12.2188 15.1875 12.5312 14.9375L12.5938 14.875L12.7188 14.9062C13 14.9375 13.25 15.0312 13.4375 15.1875C13.625 15.375 13.75 15.625 13.75 15.9688C13.75 16.2812 13.625 16.5312 13.4375 16.7188C13.25 16.875 13 16.9688 12.7188 17.0312H12.5938L12.5312 16.9688C12.2188 16.7188 11.75 16.9062 11.75 17.3125V18.0312C11.75 18.2188 11.6562 18.4062 11.4688 18.5312C11.25 18.6875 10.9688 18.7812 10.6562 18.7812H9.4375L9.5 18.5C9.5 18.4688 9.53125 18.4062 9.5 18.375C9.46875 17.9688 9.34375 17.5625 9.0625 17.2812C8.8125 16.9688 8.4375 16.7812 7.96875 16.7812C7.53125 16.7812 7.15625 16.9688 6.875 17.2812C6.625 17.5625 6.5 17.9688 6.46875 18.375C6.46875 18.4062 6.46875 18.4688 6.46875 18.5L6.53125 18.7812H5.3125C5 18.7812 4.71875 18.6875 4.5 18.5312C4.3125 18.375 4.21875 18.1875 4.21875 18V14C4.21875 13.7812 4.21875 13.6562 4.21875 13.5312V13.25H6.625C7.03125 13.25 7.25 12.75 7 12.4688L6.90625 12.4062L6.9375 12.2812C6.96875 12 7.0625 11.75 7.21875 11.5625C7.40625 11.375 7.65625 11.25 7.96875 11.25Z" fill="black" fill-opacity="0.72"/>
</g>
<defs>
<clipPath id="clip0_3909_651">
<rect width="16" height="24" fill="white"/>
</clipPath>
</defs>
</svg>
