<svg width="15" height="18" viewBox="0 0 15 18" fill="none" xmlns="http://www.w3.org/2000/svg">
<g id="label-paired / caption / lock-pattern-caption / fill" clip-path="url(#clip0_2512_1298)">
<path id="icon" d="M1.5 5C1.5 4.17969 2.15625 3.5 3 3.5C3.53906 3.5 4.03125 3.80469 4.28906 4.25H6.1875C6.44531 3.80469 6.9375 3.5 7.5 3.5C8.03906 3.5 8.53125 3.80469 8.78906 4.25H10.6875C10.9453 3.80469 11.4375 3.5 12 3.5C12.8203 3.5 13.5 4.17969 13.5 5C13.5 5.84375 12.8203 6.5 12 6.5C11.8594 6.5 11.7188 6.5 11.6016 6.45312L8.92969 9.125C8.97656 9.24219 9 9.38281 9 9.5C9 10.3438 8.32031 11 7.5 11C7.35938 11 7.21875 11 7.10156 10.9531L4.80469 13.25H6.1875C6.44531 12.8047 6.9375 12.5 7.5 12.5C8.03906 12.5 8.53125 12.8047 8.78906 13.25H10.6875C10.9453 12.8047 11.4375 12.5 11.9766 12.5C12.8203 12.5 13.4766 13.1797 13.4766 14C13.4766 14.8438 12.8203 15.5 11.9766 15.5C11.4375 15.5 10.9453 15.2188 10.6875 14.75H8.78906C8.53125 15.2188 8.03906 15.5 7.47656 15.5C6.9375 15.5 6.44531 15.2188 6.1875 14.75H4.28906C4.03125 15.2188 3.53906 15.5 3 15.5C2.15625 15.5 1.5 14.8438 1.5 14C1.5 13.1797 2.15625 12.5 3 12.5C3.11719 12.5 3.25781 12.5234 3.375 12.5703L6.04688 9.89844C6 9.78125 5.97656 9.64062 5.97656 9.5C5.97656 8.67969 6.65625 8 7.47656 8C7.61719 8 7.75781 8.02344 7.875 8.07031L10.1719 5.75H8.78906C8.53125 6.21875 8.03906 6.5 7.47656 6.5C6.9375 6.5 6.44531 6.21875 6.1875 5.75H4.28906C4.03125 6.21875 3.53906 6.5 3 6.5C2.15625 6.5 1.5 5.84375 1.5 5ZM1.5 9.5C1.5 10.0391 1.78125 10.5312 2.25 10.8125C2.69531 11.0703 3.28125 11.0703 3.75 10.8125C4.19531 10.5312 4.5 10.0391 4.5 9.5C4.5 8.98438 4.19531 8.49219 3.75 8.21094C3.28125 7.95312 2.69531 7.95312 2.25 8.21094C1.78125 8.49219 1.5 8.98438 1.5 9.5ZM10.5 9.5C10.5 10.0391 10.7812 10.5312 11.25 10.8125C11.6953 11.0703 12.2812 11.0703 12.75 10.8125C13.1953 10.5312 13.5 10.0391 13.5 9.5C13.5 8.98438 13.1953 8.49219 12.75 8.21094C12.2812 7.95312 11.6953 7.95312 11.25 8.21094C10.7812 8.49219 10.5 8.98438 10.5 9.5Z" fill="black" fill-opacity="0.72"/>
</g>
<defs>
<clipPath id="clip0_2512_1298">
<rect width="15" height="18" fill="white"/>
</clipPath>
</defs>
</svg>
