<svg width="20" height="30" viewBox="0 0 20 30" fill="none" xmlns="http://www.w3.org/2000/svg">
<g id="label-paired / lg / paste-lg / regular" clip-path="url(#clip0_2556_17608)">
<path id="icon" d="M5.3125 7.53125C5.27344 7.80469 5 8 4.6875 8H4.375C4.02344 8 3.75 8.3125 3.75 8.625V9.25H8.75V8.625C8.75 8.3125 8.4375 8 8.125 8H7.77344C7.46094 8 7.22656 7.80469 7.14844 7.53125C7.07031 7.10156 6.67969 6.75 6.25 6.75C5.78125 6.75 5.39062 7.10156 5.3125 7.53125ZM6.25 5.5C7.10938 5.5 7.85156 6.04688 8.20312 6.75H10C11.3672 6.75 12.5 7.88281 12.5 9.25H11.25C11.25 8.58594 10.6641 8 10 8H9.88281C9.96094 8.19531 10 8.42969 10 8.625V9.25C10 9.28906 10 9.32812 10 9.32812C9.21875 9.48438 8.55469 9.91406 8.125 10.5H3.75C3.04688 10.5 2.5 9.95312 2.5 9.25V8.625C2.5 8.42969 2.53906 8.19531 2.57812 8H2.5C1.79688 8 1.25 8.58594 1.25 9.25V20.5C1.25 21.2031 1.79688 21.75 2.5 21.75H7.5V23H2.5C1.09375 23 0 21.9062 0 20.5V9.25C0 7.88281 1.09375 6.75 2.5 6.75H4.25781C4.60938 6.04688 5.35156 5.5 6.25 5.5ZM17.5 24.25C18.1641 24.25 18.75 23.7031 18.75 23V15.0312C18.75 14.875 18.6719 14.7188 18.5547 14.6016L15.8984 11.9453C15.7812 11.8281 15.625 11.75 15.4688 11.75H11.25C10.5469 11.75 10 12.3359 10 13V23C10 23.7031 10.5469 24.25 11.25 24.25H17.5ZM19.4141 13.7031C19.7656 14.0547 20 14.5625 20 15.0312V23C20 24.4062 18.8672 25.5 17.5 25.5H11.25C9.84375 25.5 8.75 24.4062 8.75 23V13C8.75 11.6328 9.84375 10.5 11.25 10.5H15.4688C15.9375 10.5 16.4453 10.6953 16.7969 11.0469L19.4141 13.7031Z" fill="black" fill-opacity="0.72"/>
</g>
<defs>
<clipPath id="clip0_2556_17608">
<rect width="20" height="30" fill="white"/>
</clipPath>
</defs>
</svg>
