<svg width="20" height="24" viewBox="0 0 20 24" fill="none" xmlns="http://www.w3.org/2000/svg">
<g id="label-paired / md / messages-question-md / bold" clip-path="url(#clip0_2556_14933)">
<path id="icon" d="M2.25 5.5C1.8125 5.5 1.5 5.84375 1.5 6.25V11.75C1.5 12.1875 1.8125 12.5 2.25 12.5H3.75C4.15625 12.5 4.5 12.8438 4.5 13.25V13.875L6.3125 12.625C6.4375 12.5625 6.59375 12.5 6.75 12.5H10.75C11.1562 12.5 11.5 12.1875 11.5 11.75V6.25C11.5 5.84375 11.1562 5.5 10.75 5.5H2.25ZM0 6.25C0 5.03125 1 4 2.25 4H10.75C11.9688 4 13 5.03125 13 6.25V11.75C13 13 11.9688 14 10.75 14H6.96875L4.15625 15.875C3.90625 16.0312 3.625 16.0625 3.375 15.9375C3.125 15.7812 3 15.5312 3 15.25V14H2.25C1 14 0 13 0 11.75V6.25ZM8 15H9.5V15.75C9.5 16.1875 9.8125 16.5 10.25 16.5H13.25C13.375 16.5 13.5312 16.5625 13.6562 16.625L15.5 17.875V17.25C15.5 16.8438 15.8125 16.5 16.25 16.5H17.75C18.1562 16.5 18.5 16.1875 18.5 15.75V10.25C18.5 9.84375 18.1562 9.5 17.75 9.5H14V8H17.75C18.9688 8 20 9.03125 20 10.25V15.75C20 17 18.9688 18 17.75 18H17V19.25C17 19.5312 16.8438 19.7812 16.5938 19.9375C16.3438 20.0625 16.0625 20.0312 15.8125 19.875L13 18H10.25C9 18 8 17 8 15.75V15ZM4.59375 7.03125C4.78125 6.53125 5.25 6.21875 5.75 6.21875H7.03125C7.78125 6.21875 8.40625 6.8125 8.40625 7.59375C8.40625 8.0625 8.125 8.53125 7.71875 8.75L7 9.1875C7 9.46875 6.75 9.6875 6.5 9.6875C6.21875 9.6875 6 9.46875 6 9.1875V8.90625C6 8.71875 6.09375 8.5625 6.25 8.46875L7.21875 7.90625C7.34375 7.84375 7.40625 7.71875 7.40625 7.59375C7.40625 7.375 7.25 7.21875 7.03125 7.21875H5.75C5.65625 7.21875 5.59375 7.28125 5.5625 7.34375L5.53125 7.375C5.4375 7.625 5.15625 7.78125 4.90625 7.6875C4.65625 7.59375 4.5 7.3125 4.59375 7.03125ZM5.78125 11.125C5.75 10.875 5.875 10.625 6.125 10.5C6.34375 10.3438 6.625 10.3438 6.84375 10.5C7.0625 10.625 7.21875 10.875 7.1875 11.125C7.21875 11.4062 7.0625 11.6562 6.84375 11.7812C6.625 11.9375 6.34375 11.9375 6.125 11.7812C5.875 11.6562 5.75 11.4062 5.78125 11.125Z" fill="black" fill-opacity="0.72"/>
</g>
<defs>
<clipPath id="clip0_2556_14933">
<rect width="20" height="24" fill="white"/>
</clipPath>
</defs>
</svg>
