<svg width="16" height="24" viewBox="0 0 16 24" fill="none" xmlns="http://www.w3.org/2000/svg">
<g id="label-paired / md / gear-md / regular" clip-path="url(#clip0_2556_15224)">
<path id="icon" d="M6.96875 5.1875L6.53125 6.6875C6.4375 7.0625 6.15625 7.34375 5.84375 7.5C5.59375 7.625 5.375 7.75 5.15625 7.875C4.875 8.09375 4.46875 8.1875 4.09375 8.09375L2.59375 7.71875C2.53125 7.71875 2.5 7.71875 2.46875 7.71875C2.28125 7.9375 2.125 8.15625 2 8.40625L1.84375 8.625C1.71875 8.875 1.59375 9.125 1.5 9.375C1.5 9.40625 1.53125 9.46875 1.5625 9.5L2.65625 10.5938C2.90625 10.875 3.03125 11.2812 3 11.625C3 11.75 3 11.875 3 12C3 12.1562 3 12.2812 3 12.4062C3.03125 12.75 2.90625 13.125 2.65625 13.4062L1.5625 14.5312C1.53125 14.5625 1.5 14.625 1.5 14.6562C1.59375 14.9062 1.71875 15.1562 1.84375 15.4062L1.96875 15.625C2.125 15.8438 2.28125 16.0938 2.4375 16.3125C2.5 16.3125 2.53125 16.3125 2.59375 16.3125L4.09375 15.9375C4.46875 15.8438 4.875 15.9375 5.15625 16.125C5.375 16.2812 5.59375 16.4062 5.84375 16.5312C6.15625 16.6875 6.4375 16.9688 6.53125 17.3438L6.96875 18.8438C6.96875 18.875 7 18.9062 7.03125 18.9375C7.34375 19 7.65625 19 8 19C8.3125 19 8.625 19 8.9375 18.9375C8.96875 18.9062 9 18.875 9 18.8438L9.4375 17.3438C9.53125 16.9688 9.8125 16.6875 10.125 16.5312C10.375 16.4062 10.5938 16.2812 10.8125 16.125C11.125 15.9375 11.5 15.8438 11.875 15.9375L13.375 16.3125C13.4375 16.3125 13.4688 16.3125 13.5312 16.3125C13.6875 16.0938 13.8438 15.8438 14 15.625L14.125 15.4062C14.25 15.1562 14.375 14.9062 14.4688 14.6562C14.4688 14.625 14.4375 14.5625 14.4062 14.5312L13.3125 13.4062C13.0625 13.125 12.9375 12.75 12.9688 12.4062C12.9688 12.2812 13 12.1562 13 12C13 11.875 12.9688 11.75 12.9688 11.625C12.9375 11.2812 13.0625 10.875 13.3125 10.5938L14.4062 9.5C14.4375 9.46875 14.4688 9.40625 14.4688 9.375C14.375 9.125 14.25 8.875 14.125 8.625L14 8.40625C13.8438 8.15625 13.6875 7.9375 13.5312 7.71875C13.4688 7.71875 13.4375 7.71875 13.375 7.71875L11.875 8.09375C11.5 8.1875 11.125 8.09375 10.8125 7.90625C10.5938 7.75 10.375 7.625 10.125 7.5C9.8125 7.34375 9.53125 7.0625 9.4375 6.6875L9 5.1875C9 5.15625 8.96875 5.09375 8.9375 5.0625C8.625 5.03125 8.3125 5 8 5C7.65625 5 7.34375 5.03125 7.03125 5.0625C7 5.09375 6.96875 5.15625 6.96875 5.1875ZM8 4C8.40625 4 8.78125 4.03125 9.1875 4.09375C9.25 4.125 9.28125 4.125 9.34375 4.15625C9.625 4.3125 9.875 4.59375 9.96875 4.90625L10.4062 6.40625C10.4062 6.46875 10.4688 6.5625 10.5625 6.59375C10.8438 6.71875 11.125 6.875 11.375 7.0625C11.4688 7.125 11.5625 7.15625 11.625 7.125L13.1562 6.75C13.4688 6.65625 13.8438 6.71875 14.125 6.90625C14.1562 6.9375 14.1875 6.96875 14.25 7.03125C14.4688 7.28125 14.6562 7.59375 14.8438 7.90625L15 8.125V8.15625C15.1562 8.46875 15.3125 8.78125 15.4375 9.09375C15.4688 9.15625 15.4688 9.1875 15.4688 9.25C15.5 9.59375 15.375 9.9375 15.125 10.1875L14.0312 11.3125C14 11.3438 13.9688 11.4375 13.9688 11.5312C13.9688 11.6875 14 11.8438 14 12C14 12.1562 13.9688 12.3125 13.9688 12.4688C13.9688 12.5938 14 12.6875 14.0312 12.7188L15.125 13.8438C15.375 14.0938 15.5 14.4375 15.4688 14.7812C15.4688 14.8125 15.4688 14.875 15.4375 14.9375C15.3125 15.25 15.1562 15.5625 15 15.875L14.8438 16.125C14.6562 16.4375 14.4688 16.7188 14.2188 17C14.1875 17.0625 14.1562 17.0938 14.125 17.125C13.8438 17.3125 13.4688 17.375 13.125 17.2812L11.625 16.9062C11.5625 16.875 11.4688 16.9062 11.375 16.9688C11.125 17.125 10.8438 17.2812 10.5625 17.4375C10.4688 17.4688 10.4062 17.5625 10.4062 17.625L9.96875 19.0938C9.875 19.4375 9.625 19.7188 9.34375 19.875C9.28125 19.9062 9.25 19.9062 9.1875 19.9375C8.78125 19.9688 8.40625 20 8 20C7.59375 20 7.1875 19.9688 6.78125 19.9375C6.71875 19.9062 6.6875 19.9062 6.625 19.875C6.34375 19.7188 6.09375 19.4375 6 19.0938L5.5625 17.625C5.5625 17.5625 5.5 17.4688 5.40625 17.4375C5.125 17.3125 4.84375 17.1562 4.59375 16.9688C4.5 16.9062 4.40625 16.9062 4.34375 16.9062L2.84375 17.2812C2.5 17.375 2.15625 17.3125 1.875 17.125C1.8125 17.0938 1.78125 17.0625 1.75 17.0312C1.5 16.75 1.3125 16.4375 1.125 16.125L1 15.9062L0.96875 15.875C0.8125 15.5625 0.65625 15.25 0.53125 14.9375C0.53125 14.875 0.5 14.8438 0.5 14.7812C0.5 14.4375 0.59375 14.0938 0.84375 13.8438L1.9375 12.7188C1.96875 12.6875 2 12.5938 2 12.4688C2 12.3438 2 12.1562 2 12C2 11.8438 2 11.6875 2 11.5312C2 11.4375 1.96875 11.3438 1.9375 11.3125L0.84375 10.1875C0.59375 9.9375 0.5 9.59375 0.5 9.25C0.5 9.1875 0.53125 9.15625 0.53125 9.09375C0.65625 8.78125 0.8125 8.46875 0.96875 8.15625L1 8.125L1.125 7.90625C1.3125 7.59375 1.53125 7.28125 1.75 7.03125C1.78125 6.96875 1.8125 6.9375 1.875 6.90625C2.15625 6.71875 2.5 6.65625 2.84375 6.75L4.34375 7.125C4.40625 7.15625 4.5 7.125 4.59375 7.0625C4.84375 6.90625 5.125 6.71875 5.40625 6.59375C5.5 6.5625 5.5625 6.46875 5.5625 6.40625L6 4.90625C6.09375 4.59375 6.34375 4.3125 6.625 4.15625C6.6875 4.125 6.71875 4.125 6.78125 4.09375C7.1875 4.03125 7.59375 4 8 4ZM6.25 12C6.25 12.6562 6.5625 13.2188 7.125 13.5312C7.65625 13.8438 8.3125 13.8438 8.875 13.5312C9.40625 13.2188 9.75 12.6562 9.75 12C9.75 11.375 9.40625 10.8125 8.875 10.5C8.3125 10.1875 7.65625 10.1875 7.125 10.5C6.5625 10.8125 6.25 11.375 6.25 12ZM10.75 12C10.75 13 10.2188 13.9062 9.375 14.4062C8.5 14.875 7.46875 14.875 6.625 14.4062C5.75 13.9062 5.25 13 5.25 12C5.25 11.0312 5.75 10.125 6.625 9.625C7.46875 9.15625 8.5 9.15625 9.375 9.625C10.2188 10.125 10.75 11.0312 10.75 12Z" fill="black" fill-opacity="0.72"/>
</g>
<defs>
<clipPath id="clip0_2556_15224">
<rect width="16" height="24" fill="white"/>
</clipPath>
</defs>
</svg>
