<svg width="21" height="36" viewBox="0 0 21 36" fill="none" xmlns="http://www.w3.org/2000/svg">
<g id="label-paired / xl / user-xl / regular" clip-path="url(#clip0_2556_19271)">
<path id="icon" d="M15 12C15 10.4062 14.1094 8.95312 12.75 8.10938C11.3438 7.3125 9.60938 7.3125 8.25 8.10938C6.84375 8.95312 6 10.4062 6 12C6 13.6406 6.84375 15.0938 8.25 15.9375C9.60938 16.7344 11.3438 16.7344 12.75 15.9375C14.1094 15.0938 15 13.6406 15 12ZM4.5 12C4.5 9.89062 5.625 7.92188 7.5 6.84375C9.32812 5.76562 11.625 5.76562 13.5 6.84375C15.3281 7.92188 16.5 9.89062 16.5 12C16.5 14.1562 15.3281 16.125 13.5 17.2031C11.625 18.2812 9.32812 18.2812 7.5 17.2031C5.625 16.125 4.5 14.1562 4.5 12ZM1.5 28.5H19.5C19.4062 24.7969 16.3594 21.75 12.6094 21.75H8.34375C4.59375 21.75 1.54688 24.7969 1.5 28.5ZM0 28.6406C0 24 3.70312 20.25 8.34375 20.25H12.6094C17.25 20.25 21 24 21 28.6406C21 29.3906 20.3438 30 19.5938 30H1.35938C0.609375 30 0 29.3906 0 28.6406Z" fill="black" fill-opacity="0.72"/>
</g>
<defs>
<clipPath id="clip0_2556_19271">
<rect width="21" height="36" fill="white"/>
</clipPath>
</defs>
</svg>
