<svg width="24" height="36" viewBox="0 0 24 36" fill="none" xmlns="http://www.w3.org/2000/svg">
<g id="label-paired / xl / search-xl / regular" clip-path="url(#clip0_2556_19784)">
<path id="icon" d="M18 15.75C18 12.8438 16.4062 10.125 13.875 8.625C11.2969 7.17188 8.15625 7.17188 5.625 8.625C3.04688 10.125 1.5 12.8438 1.5 15.75C1.5 18.7031 3.04688 21.4219 5.625 22.9219C8.15625 24.375 11.2969 24.375 13.875 22.9219C16.4062 21.4219 18 18.7031 18 15.75ZM16.0781 23.1562C14.3906 24.6562 12.1406 25.5 9.75 25.5C4.35938 25.5 0 21.1406 0 15.75C0 10.4062 4.35938 6 9.75 6C15.0938 6 19.5 10.4062 19.5 15.75C19.5 18.1875 18.6094 20.3906 17.1562 22.125L23.7656 28.7344C24.0469 29.0156 24.0469 29.5312 23.7656 29.8125C23.4844 30.0938 22.9688 30.0938 22.6875 29.8125L16.0781 23.1562Z" fill="black" fill-opacity="0.72"/>
</g>
<defs>
<clipPath id="clip0_2556_19784">
<rect width="24" height="36" fill="white"/>
</clipPath>
</defs>
</svg>
