<svg width="10" height="24" viewBox="0 0 10 24" fill="none" xmlns="http://www.w3.org/2000/svg">
<g id="label-paired / md / caret-up-md / regular" clip-path="url(#clip0_2556_15140)">
<path id="icon" d="M4.8125 9.09375L1.0625 12.625C1 12.6875 1 12.7188 1 12.7812C1 12.9062 1.09375 13 1.21875 13H8.75C8.875 13 9 12.9062 9 12.7812C9 12.7188 8.96875 12.6562 8.90625 12.625L5.15625 9.09375C5.125 9.03125 5.0625 9 5 9C4.90625 9 4.84375 9.03125 4.8125 9.09375ZM4.125 8.34375C4.34375 8.125 4.65625 8 5 8C5.3125 8 5.625 8.125 5.84375 8.34375L9.59375 11.9062C9.84375 12.125 10 12.4688 10 12.7812C10 13.4688 9.4375 14 8.75 14H1.21875C0.53125 14 0 13.4688 0 12.7812C0 12.4688 0.125 12.125 0.375 11.9062L4.125 8.34375Z" fill="black" fill-opacity="0.72"/>
</g>
<defs>
<clipPath id="clip0_2556_15140">
<rect width="10" height="24" fill="white"/>
</clipPath>
</defs>
</svg>
