<svg width="11" height="18" viewBox="0 0 11 18" fill="none" xmlns="http://www.w3.org/2000/svg">
<g id="label-paired / caption / arrow-up-from-bracket-caption / fill" clip-path="url(#clip0_2556_10567)">
<path id="icon" d="M6.01562 3.73438L9.01562 6.73438C9.32031 7.01562 9.32031 7.50781 9.01562 7.78906C8.73438 8.09375 8.24219 8.09375 7.96094 7.78906L6.25 6.07812V11C6.25 11.4219 5.89844 11.75 5.5 11.75C5.07812 11.75 4.75 11.4219 4.75 11V6.07812L3.01562 7.78906C2.73438 8.09375 2.24219 8.09375 1.96094 7.78906C1.65625 7.50781 1.65625 7.01562 1.96094 6.73438L4.96094 3.73438C5.24219 3.42969 5.73438 3.42969 6.01562 3.73438ZM1.75 11.75V13.25C1.75 13.6719 2.07812 14 2.5 14H8.5C8.89844 14 9.25 13.6719 9.25 13.25V11.75C9.25 11.3516 9.57812 11 10 11C10.3984 11 10.75 11.3516 10.75 11.75V13.25C10.75 14.4922 9.74219 15.5 8.5 15.5H2.5C1.25781 15.5 0.25 14.4922 0.25 13.25V11.75C0.25 11.3516 0.578125 11 1 11C1.39844 11 1.75 11.3516 1.75 11.75Z" fill="black" fill-opacity="0.72"/>
</g>
<defs>
<clipPath id="clip0_2556_10567">
<rect width="11" height="18" fill="white"/>
</clipPath>
</defs>
</svg>
