<svg width="23" height="30" viewBox="0 0 23 30" fill="none" xmlns="http://www.w3.org/2000/svg">
<g id="label-paired / lg / floppy-disk-pen-lg / bold" clip-path="url(#clip0_2556_17533)">
<path id="icon" d="M2.125 9.25V21.75C2.125 22.1016 2.39844 22.375 2.75 22.375H10.7969L10.3281 24.25H2.75C1.34375 24.25 0.25 23.1562 0.25 21.75V9.25C0.25 7.88281 1.34375 6.75 2.75 6.75H12.3203C12.9844 6.75 13.6094 7.02344 14.0781 7.49219L17.0078 10.4219L15.6797 11.75L12.75 8.82031C12.75 8.82031 12.75 8.82031 12.75 8.78125V12.6875C12.75 13.2344 12.3203 13.625 11.8125 13.625H4.3125C3.76562 13.625 3.375 13.2344 3.375 12.6875V8.625H2.75C2.39844 8.625 2.125 8.9375 2.125 9.25ZM17.0078 10.4219C17.4766 10.8906 17.75 11.5156 17.75 12.1797V14.7188L15.875 16.5938V12.1797C15.875 12.0234 15.7969 11.8672 15.6797 11.75L17.0078 10.4219ZM5.25 8.625V11.75H10.875V8.625H5.25ZM6.5 18C6.5 17.1406 6.96875 16.3203 7.75 15.8516C8.49219 15.4219 9.46875 15.4219 10.25 15.8516C10.9922 16.3203 11.5 17.1406 11.5 18C11.5 18.8984 10.9922 19.7188 10.25 20.1875C9.46875 20.6172 8.49219 20.6172 7.75 20.1875C6.96875 19.7188 6.5 18.8984 6.5 18ZM21.6953 14.7188L22.2812 15.3047C22.8672 15.8906 22.8672 16.9062 22.2812 17.4922L21.1094 18.6641L18.3359 15.8906L19.5078 14.7188C20.0938 14.1328 21.1094 14.1328 21.6953 14.7188ZM12.3984 21.8281L17.4766 16.75L20.25 19.5234L15.1719 24.6016C15.0156 24.7578 14.8203 24.875 14.625 24.9141L12.2422 25.5C12.0469 25.5391 11.8125 25.5 11.6562 25.3438C11.5 25.1875 11.4609 24.9531 11.5 24.7578L12.0859 22.375C12.125 22.1797 12.2422 21.9844 12.3984 21.8281Z" fill="black" fill-opacity="0.72"/>
</g>
<defs>
<clipPath id="clip0_2556_17533">
<rect width="23" height="30" fill="white"/>
</clipPath>
</defs>
</svg>
