<svg width="27" height="36" viewBox="0 0 27 36" fill="none" xmlns="http://www.w3.org/2000/svg">
<g id="label-paired / xl / arrow-down-one-nine-xl / regular" clip-path="url(#clip0_2556_19503)">
<path id="icon" d="M21 8.25V15H22.5C22.875 15 23.25 15.375 23.25 15.75C23.25 16.1719 22.875 16.5 22.5 16.5H20.25H18C17.5781 16.5 17.25 16.1719 17.25 15.75C17.25 15.375 17.5781 15 18 15H19.5V9.32812L18.2344 9.75C17.8125 9.84375 17.3906 9.65625 17.25 9.28125C17.1562 8.85938 17.3438 8.4375 17.7656 8.29688L20.0156 7.54688C20.2031 7.5 20.4844 7.54688 20.6719 7.6875C20.8594 7.82812 21 8.01562 21 8.29688V8.25ZM8.01562 28.3125C7.73438 28.5938 7.21875 28.5938 6.9375 28.3125L2.4375 23.8125C2.15625 23.5312 2.15625 23.0156 2.4375 22.7344C2.71875 22.4531 3.23438 22.4531 3.51562 22.7344L6.75 25.9688V8.25C6.75 7.875 7.07812 7.5 7.5 7.5C7.875 7.5 8.25 7.875 8.25 8.25V25.9688L11.4375 22.7344C11.7188 22.4531 12.2344 22.4531 12.5156 22.7344C12.7969 23.0156 12.7969 23.5312 12.5156 23.8125L8.01562 28.3125ZM20.0625 19.5C19.1719 19.5 18.375 19.9688 17.9062 20.7188C17.4844 21.5156 17.4844 22.4062 17.9062 23.1562C18.375 23.9531 19.1719 24.375 20.0625 24.375C20.9062 24.375 21.7031 23.9531 22.1719 23.1562C22.5938 22.4062 22.5938 21.5156 22.1719 20.7188C21.7031 19.9688 20.9062 19.5 20.0625 19.5ZM16.125 21.9375C16.125 19.7812 17.8594 18 20.0625 18C22.2188 18 24 19.7812 24 21.9375C24 22.0312 24 22.0781 23.9531 22.125H24C24 23.1562 23.625 24.0938 22.9688 24.8438L20.0625 28.2656C19.7812 28.5938 19.3125 28.5938 18.9844 28.3594C18.6562 28.0781 18.6562 27.6094 18.8906 27.2812L20.1094 25.875C20.0625 25.875 20.0625 25.875 20.0625 25.875C17.8594 25.875 16.125 24.1406 16.125 21.9375Z" fill="black" fill-opacity="0.72"/>
</g>
<defs>
<clipPath id="clip0_2556_19503">
<rect width="27" height="36" fill="white"/>
</clipPath>
</defs>
</svg>
