<svg width="20" height="24" viewBox="0 0 20 24" fill="none" xmlns="http://www.w3.org/2000/svg">
<g id="label-paired / md / hand-gesture-swipe-left-right-md / fill" clip-path="url(#clip0_3546_629)">
<path id="icon" d="M10 7.21875C10.4375 7.21875 10.7812 7.5625 10.7812 8V10.9062C10.9375 10.75 11.1562 10.6562 11.4062 10.6562C11.9062 10.6562 12.3125 11.0312 12.3438 11.5312C12.5 11.375 12.7188 11.2812 12.9688 11.2812C13.4688 11.2812 13.875 11.6562 13.9062 12.1562C14.0625 12 14.2812 11.9062 14.5312 11.9062C15.0312 11.9062 15.4688 12.3438 15.4688 12.8438V14.7188C15.4688 16.0938 14.3438 17.2188 12.9688 17.2188H10.6562C9.9375 17.2188 9.21875 16.9688 8.65625 16.5L8.5625 16.4062C7.96875 15.9375 7.65625 15.2188 7.65625 14.4688V13.75C7.65625 13.375 7.8125 13.0312 8.125 12.7812L8.5 12.4688C8.53125 12.4375 8.5625 12.4062 8.625 12.4062V13.4688C8.625 13.6562 8.75 13.7812 8.9375 13.7812C9.09375 13.7812 9.25 13.6562 9.25 13.4688V8C9.25 7.5625 9.5625 7.21875 10.0312 7.21875H10ZM15.1875 10.3125L16.875 8.625C17.0625 8.4375 17.0625 8.15625 16.875 8L15.0938 6.1875C14.9062 6.03125 14.625 6.03125 14.4375 6.1875C14.2812 6.375 14.2812 6.65625 14.4375 6.84375L15.4688 7.84375H12.4375C12.1875 7.84375 12 8.0625 12 8.3125C12 8.5625 12.1875 8.75 12.4375 8.75H15.4688L14.5625 9.65625C14.375 9.84375 14.375 10.125 14.5625 10.3125C14.75 10.4688 15.0312 10.4688 15.1875 10.3125ZM4.78125 10.3125L3.125 8.625C2.9375 8.4375 2.9375 8.15625 3.125 8L4.90625 6.1875C5.09375 6.03125 5.375 6.03125 5.53125 6.1875C5.71875 6.375 5.71875 6.65625 5.53125 6.84375L4.53125 7.84375H7.5625C7.8125 7.84375 8 8.0625 8 8.3125C8 8.5625 7.8125 8.75 7.5625 8.75H4.53125L5.4375 9.65625C5.59375 9.84375 5.59375 10.125 5.4375 10.3125C5.25 10.4688 4.96875 10.4688 4.78125 10.3125Z" fill="black" fill-opacity="0.72"/>
</g>
<defs>
<clipPath id="clip0_3546_629">
<rect width="20" height="24" fill="white"/>
</clipPath>
</defs>
</svg>
