<svg width="12" height="18" viewBox="0 0 12 18" fill="none" xmlns="http://www.w3.org/2000/svg">
<g id="label-paired / caption / circle-xmark-caption / bold" clip-path="url(#clip0_2556_10305)">
<path id="icon" d="M6 4.625C4.24219 4.625 2.64844 5.5625 1.75781 7.0625C0.890625 8.58594 0.890625 10.4375 1.75781 11.9375C2.64844 13.4609 4.24219 14.375 6 14.375C7.73438 14.375 9.32812 13.4609 10.2188 11.9375C11.0859 10.4375 11.0859 8.58594 10.2188 7.0625C9.32812 5.5625 7.73438 4.625 6 4.625ZM6 15.5C3.84375 15.5 1.875 14.375 0.796875 12.5C-0.28125 10.6484 -0.28125 8.375 0.796875 6.5C1.875 4.64844 3.84375 3.5 6 3.5C8.13281 3.5 10.1016 4.64844 11.1797 6.5C12.2578 8.375 12.2578 10.6484 11.1797 12.5C10.1016 14.375 8.13281 15.5 6 15.5ZM4.10156 7.60156C4.3125 7.39062 4.66406 7.39062 4.875 7.60156L5.97656 8.70312L7.07812 7.60156C7.3125 7.39062 7.66406 7.39062 7.875 7.60156C8.10938 7.83594 8.10938 8.1875 7.875 8.39844L6.77344 9.5L7.875 10.6016C8.10938 10.8359 8.10938 11.1875 7.875 11.3984C7.66406 11.6328 7.3125 11.6328 7.07812 11.3984L5.97656 10.2969L4.875 11.3984C4.66406 11.6328 4.3125 11.6328 4.10156 11.3984C3.86719 11.1875 3.86719 10.8359 4.10156 10.6016L5.20312 9.5L4.10156 8.39844C3.86719 8.1875 3.86719 7.83594 4.10156 7.60156Z" fill="black" fill-opacity="0.72"/>
</g>
<defs>
<clipPath id="clip0_2556_10305">
<rect width="12" height="18" fill="white"/>
</clipPath>
</defs>
</svg>
