<svg width="15" height="18" viewBox="0 0 15 18" fill="none" xmlns="http://www.w3.org/2000/svg">
<g id="label-paired / caption / deal-protection-caption / fill" clip-path="url(#clip0_2556_10400)">
<path id="icon" d="M7.78125 6.03125H11.1328C11.4609 6.03125 11.7891 6.07812 12.0703 6.19531C12.3516 6.3125 12.5859 6.47656 12.7969 6.6875C12.9844 6.92188 13.1484 7.17969 13.2656 7.46094C13.3594 7.76562 13.4062 8.07031 13.4062 8.39844C13.4062 8.75 13.3594 9.05469 13.2656 9.35938C13.1484 9.64062 12.9844 9.89844 12.7969 10.1094C12.5859 10.3203 12.3516 10.4844 12.0703 10.6016C11.7891 10.7188 11.4609 10.7891 11.1328 10.7891H9.89062V13.0625H7.78125V6.03125ZM11.1797 8.02344C11.1562 8 11.1094 7.95312 10.9688 7.95312H9.89062V8.84375H10.9688C11.1094 8.84375 11.1562 8.82031 11.1797 8.79688C11.2031 8.77344 11.25 8.72656 11.25 8.60938V8.21094C11.25 8.07031 11.2031 8.04688 11.2031 8.02344H11.1797ZM4.24219 6.03125C4.6875 6.03125 5.13281 6.10156 5.50781 6.24219C5.90625 6.40625 6.25781 6.61719 6.53906 6.92188C6.82031 7.22656 7.03125 7.60156 7.17188 8.04688C7.3125 8.49219 7.38281 8.98438 7.38281 9.54688C7.38281 10.0859 7.3125 10.5781 7.17188 11.0234C7.03125 11.4688 6.82031 11.8438 6.53906 12.1484C6.25781 12.4531 5.90625 12.6875 5.50781 12.8281C5.13281 12.9688 4.71094 13.0625 4.24219 13.0625H1.5V6.03125H4.24219ZM4.94531 10.8594C5.08594 10.7188 5.17969 10.4844 5.17969 10.0156V9.05469C5.17969 8.58594 5.08594 8.35156 4.94531 8.21094C4.80469 8.07031 4.59375 7.97656 4.24219 7.97656H3.63281V11.0938H4.24219C4.59375 11.0938 4.80469 11 4.94531 10.8594Z" fill="black" fill-opacity="0.72"/>
</g>
<defs>
<clipPath id="clip0_2556_10400">
<rect width="15" height="18" fill="white"/>
</clipPath>
</defs>
</svg>
