<svg width="12" height="18" viewBox="0 0 12 18" fill="none" xmlns="http://www.w3.org/2000/svg">
<g id="label-paired / caption / sliders-caption / bold" clip-path="url(#clip0_3758_500)">
<path id="icon" d="M0 13.25C0 12.9453 0.234375 12.6875 0.5625 12.6875H1.94531C2.17969 11.9375 2.90625 11.375 3.75 11.375C4.57031 11.375 5.29688 11.9375 5.53125 12.6875H11.4375C11.7422 12.6875 12 12.9453 12 13.25C12 13.5781 11.7422 13.8125 11.4375 13.8125H5.53125C5.29688 14.5859 4.57031 15.125 3.75 15.125C2.90625 15.125 2.17969 14.5859 1.94531 13.8125H0.5625C0.234375 13.8125 0 13.5781 0 13.25ZM3 13.25C3 13.6719 3.32812 14 3.75 14C4.14844 14 4.5 13.6719 4.5 13.25C4.5 12.8516 4.14844 12.5 3.75 12.5C3.32812 12.5 3 12.8516 3 13.25ZM7.5 9.5C7.5 9.92188 7.82812 10.25 8.25 10.25C8.64844 10.25 9 9.92188 9 9.5C9 9.10156 8.64844 8.75 8.25 8.75C7.82812 8.75 7.5 9.10156 7.5 9.5ZM8.25 7.625C9.07031 7.625 9.79688 8.1875 10.0312 8.9375H11.4375C11.7422 8.9375 12 9.19531 12 9.5C12 9.82812 11.7422 10.0625 11.4375 10.0625H10.0312C9.79688 10.8359 9.07031 11.375 8.25 11.375C7.40625 11.375 6.67969 10.8359 6.44531 10.0625H0.5625C0.234375 10.0625 0 9.82812 0 9.5C0 9.19531 0.234375 8.9375 0.5625 8.9375H6.44531C6.67969 8.1875 7.40625 7.625 8.25 7.625ZM4.5 6.5C4.89844 6.5 5.25 6.17188 5.25 5.75C5.25 5.35156 4.89844 5 4.5 5C4.07812 5 3.75 5.35156 3.75 5.75C3.75 6.17188 4.07812 6.5 4.5 6.5ZM6.28125 5.1875H11.4375C11.7422 5.1875 12 5.44531 12 5.75C12 6.07812 11.7422 6.3125 11.4375 6.3125H6.28125C6.04688 7.08594 5.32031 7.625 4.5 7.625C3.65625 7.625 2.92969 7.08594 2.69531 6.3125H0.5625C0.234375 6.3125 0 6.07812 0 5.75C0 5.44531 0.234375 5.1875 0.5625 5.1875H2.69531C2.92969 4.4375 3.65625 3.875 4.5 3.875C5.32031 3.875 6.04688 4.4375 6.28125 5.1875Z" fill="black" fill-opacity="0.72"/>
</g>
<defs>
<clipPath id="clip0_3758_500">
<rect width="12" height="18" fill="white"/>
</clipPath>
</defs>
</svg>
