<svg width="20" height="30" viewBox="0 0 20 30" fill="none" xmlns="http://www.w3.org/2000/svg">
<g id="label-paired / lg / circle-minus-lg / fill" clip-path="url(#clip0_2556_17628)">
<path id="icon" d="M10 25.5C6.40625 25.5 3.125 23.625 1.32812 20.5C-0.46875 17.4141 -0.46875 13.625 1.32812 10.5C3.125 7.41406 6.40625 5.5 10 5.5C13.5547 5.5 16.8359 7.41406 18.6328 10.5C20.4297 13.625 20.4297 17.4141 18.6328 20.5C16.8359 23.625 13.5547 25.5 10 25.5ZM7.1875 14.5625C6.64062 14.5625 6.25 14.9922 6.25 15.5C6.25 16.0469 6.64062 16.4375 7.1875 16.4375H12.8125C13.3203 16.4375 13.75 16.0469 13.75 15.5C13.75 14.9922 13.3203 14.5625 12.8125 14.5625H7.1875Z" fill="black" fill-opacity="0.72"/>
</g>
<defs>
<clipPath id="clip0_2556_17628">
<rect width="20" height="30" fill="white"/>
</clipPath>
</defs>
</svg>
