<svg width="12" height="24" viewBox="0 0 12 24" fill="none" xmlns="http://www.w3.org/2000/svg">
<g id="label-paired / md / mobile-screen-button-md / bold" clip-path="url(#clip0_2556_14901)">
<path id="icon" d="M2 18C2 18.2812 2.21875 18.5 2.5 18.5H9.5C9.75 18.5 10 18.2812 10 18V15.5H2V18ZM2 14H10V6C10 5.75 9.75 5.5 9.5 5.5H2.5C2.21875 5.5 2 5.75 2 6V14ZM0.5 6C0.5 4.90625 1.375 4 2.5 4H9.5C10.5938 4 11.5 4.90625 11.5 6V18C11.5 19.125 10.5938 20 9.5 20H2.5C1.375 20 0.5 19.125 0.5 18V6ZM5 16.5H7C7.25 16.5 7.5 16.75 7.5 17C7.5 17.2812 7.25 17.5 7 17.5H5C4.71875 17.5 4.5 17.2812 4.5 17C4.5 16.75 4.71875 16.5 5 16.5Z" fill="black" fill-opacity="0.72"/>
</g>
<defs>
<clipPath id="clip0_2556_14901">
<rect width="12" height="24" fill="white"/>
</clipPath>
</defs>
</svg>
