<svg width="24" height="36" viewBox="0 0 24 36" fill="none" xmlns="http://www.w3.org/2000/svg">
<g id="label-paired / xl / thumbs-up-xl / fill" clip-path="url(#clip0_2556_19790)">
<path id="icon" d="M14.6719 7.54688C15.8906 7.82812 16.6875 9 16.4531 10.2188L16.3125 10.7344C16.0781 12 15.6094 13.1719 15 14.25H21.75C22.9688 14.25 24 15.2812 24 16.5C24 17.3906 23.4844 18.1406 22.7812 18.5156C23.2969 18.9375 23.625 19.5469 23.625 20.25C23.625 21.375 22.8281 22.2656 21.7969 22.5C21.9844 22.8281 22.125 23.2031 22.125 23.625C22.125 24.6562 21.4688 25.5 20.5312 25.7812C20.5781 25.9219 20.625 26.1094 20.625 26.25C20.625 27.5156 19.5938 28.5 18.375 28.5H13.7812C12.8906 28.5 12.0469 28.2656 11.2969 27.75L9.46875 26.5781C8.25 25.7344 7.5 24.3281 7.5 22.8281V21V18.75V17.625C7.5 16.2188 8.10938 14.9531 9.1875 14.1094L9.51562 13.8281C10.7344 12.7969 11.625 11.4375 11.9062 9.84375L12 9.32812C12.2812 8.10938 13.4531 7.3125 14.6719 7.54688ZM1.5 15H4.5C5.29688 15 6 15.7031 6 16.5V27C6 27.8438 5.29688 28.5 4.5 28.5H1.5C0.65625 28.5 0 27.8438 0 27V16.5C0 15.7031 0.65625 15 1.5 15Z" fill="black" fill-opacity="0.72"/>
</g>
<defs>
<clipPath id="clip0_2556_19790">
<rect width="24" height="36" fill="white"/>
</clipPath>
</defs>
</svg>
