<svg width="18" height="30" viewBox="0 0 18 30" fill="none" xmlns="http://www.w3.org/2000/svg">
<g id="label-paired / lg / plus-lg / fill" clip-path="url(#clip0_2556_17490)">
<path id="icon" d="M10.25 8.625V14.25H15.875C16.5391 14.25 17.125 14.8359 17.125 15.5C17.125 16.2031 16.5391 16.75 15.875 16.75H10.25V22.375C10.25 23.0781 9.66406 23.625 9 23.625C8.29688 23.625 7.75 23.0781 7.75 22.375V16.75H2.125C1.42188 16.75 0.875 16.2031 0.875 15.5C0.875 14.8359 1.42188 14.25 2.125 14.25H7.75V8.625C7.75 7.96094 8.29688 7.375 9 7.375C9.66406 7.375 10.25 7.96094 10.25 8.625Z" fill="black" fill-opacity="0.72"/>
</g>
<defs>
<clipPath id="clip0_2556_17490">
<rect width="18" height="30" fill="white"/>
</clipPath>
</defs>
</svg>
