<svg width="16" height="24" viewBox="0 0 16 24" fill="none" xmlns="http://www.w3.org/2000/svg">
<g id="label-paired / md / arrow-rotate-right-md / fill" clip-path="url(#clip0_3431_888)">
<path id="icon" d="M12.0625 9L11.5312 8.46875C9.5625 6.53125 6.40625 6.53125 4.4375 8.46875C2.5 10.4375 2.5 13.5938 4.4375 15.5625C6.40625 17.5 9.5625 17.5 11.5312 15.5625C11.9062 15.1562 12.5312 15.1562 12.9375 15.5625C13.3125 15.9375 13.3125 16.5625 12.9375 16.9688C10.1875 19.6875 5.78125 19.6875 3.03125 16.9688C0.3125 14.2188 0.3125 9.8125 3.03125 7.0625C5.78125 4.34375 10.1875 4.34375 12.9375 7.0625L13.5 7.625V6C13.5 5.46875 13.9375 5 14.5 5C15.0312 5 15.5 5.46875 15.5 6V10C15.5 10.5625 15.0312 11 14.5 11H10.5C9.9375 11 9.5 10.5625 9.5 10C9.5 9.46875 9.9375 9 10.5 9H12.0625Z" fill="black" fill-opacity="0.72"/>
</g>
<defs>
<clipPath id="clip0_3431_888">
<rect width="16" height="24" fill="white"/>
</clipPath>
</defs>
</svg>
