<svg width="20" height="30" viewBox="0 0 20 30" fill="none" xmlns="http://www.w3.org/2000/svg">
<g id="label-paired / lg / circle-ellipsis-lg / fill" clip-path="url(#clip0_2556_17491)">
<path id="icon" d="M10 25.5C6.40625 25.5 3.125 23.625 1.32812 20.5C-0.46875 17.4141 -0.46875 13.625 1.32812 10.5C3.125 7.41406 6.40625 5.5 10 5.5C13.5547 5.5 16.8359 7.41406 18.6328 10.5C20.4297 13.625 20.4297 17.4141 18.6328 20.5C16.8359 23.625 13.5547 25.5 10 25.5ZM6.25 14.25C5.54688 14.25 5 14.8359 5 15.5C5 16.2031 5.54688 16.75 6.25 16.75C6.91406 16.75 7.5 16.2031 7.5 15.5C7.5 14.8359 6.91406 14.25 6.25 14.25ZM8.75 15.5C8.75 16.2031 9.29688 16.75 10 16.75C10.6641 16.75 11.25 16.2031 11.25 15.5C11.25 14.8359 10.6641 14.25 10 14.25C9.29688 14.25 8.75 14.8359 8.75 15.5ZM13.75 14.25C13.0469 14.25 12.5 14.8359 12.5 15.5C12.5 16.2031 13.0469 16.75 13.75 16.75C14.4141 16.75 15 16.2031 15 15.5C15 14.8359 14.4141 14.25 13.75 14.25Z" fill="black" fill-opacity="0.72"/>
</g>
<defs>
<clipPath id="clip0_2556_17491">
<rect width="20" height="30" fill="white"/>
</clipPath>
</defs>
</svg>
