<svg width="14" height="24" viewBox="0 0 14 24" fill="none" xmlns="http://www.w3.org/2000/svg">
<g id="label-paired / md / stopwatch-md / regular" clip-path="url(#clip0_2556_14957)">
<path id="icon" d="M4 4.5C4 4.25 4.21875 4 4.5 4H9.5C9.75 4 10 4.25 10 4.5C10 4.78125 9.75 5 9.5 5H7.5V7.03125C9.03125 7.15625 10.4375 7.8125 11.4688 8.8125L12.625 7.65625C12.8125 7.46875 13.1562 7.46875 13.3438 7.65625C13.5312 7.84375 13.5312 8.15625 13.3438 8.375L12.1562 9.5625C13 10.6562 13.5 12.0312 13.5 13.5C13.5 17.0938 10.5625 20 7 20C3.40625 20 0.5 17.0938 0.5 13.5C0.5 10.0938 3.125 7.28125 6.5 7.03125V5H4.5C4.21875 5 4 4.78125 4 4.5ZM1.5 13.5C1.5 15.4688 2.53125 17.2812 4.25 18.2812C5.9375 19.25 8.03125 19.25 9.75 18.2812C11.4375 17.2812 12.5 15.4688 12.5 13.5C12.5 11.5625 11.4375 9.75 9.75 8.75C8.03125 7.78125 5.9375 7.78125 4.25 8.75C2.53125 9.75 1.5 11.5625 1.5 13.5ZM7.5 10.5V14C7.5 14.2812 7.25 14.5 7 14.5C6.71875 14.5 6.5 14.2812 6.5 14V10.5C6.5 10.25 6.71875 10 7 10C7.25 10 7.5 10.25 7.5 10.5Z" fill="black" fill-opacity="0.72"/>
</g>
<defs>
<clipPath id="clip0_2556_14957">
<rect width="14" height="24" fill="white"/>
</clipPath>
</defs>
</svg>
