<svg width="24" height="36" viewBox="0 0 24 36" fill="none" xmlns="http://www.w3.org/2000/svg">
<g id="label-paired / xl / circle-sterling-xl / bold" clip-path="url(#clip0_2556_19287)">
<path id="icon" d="M21.75 18C21.75 14.5312 19.875 11.3438 16.875 9.5625C13.8281 7.82812 10.125 7.82812 7.125 9.5625C4.07812 11.3438 2.25 14.5312 2.25 18C2.25 21.5156 4.07812 24.7031 7.125 26.4844C10.125 28.2188 13.8281 28.2188 16.875 26.4844C19.875 24.7031 21.75 21.5156 21.75 18ZM0 18C0 13.7344 2.25 9.79688 6 7.64062C9.70312 5.48438 14.25 5.48438 18 7.64062C21.7031 9.79688 24 13.7344 24 18C24 22.3125 21.7031 26.25 18 28.4062C14.25 30.5625 9.70312 30.5625 6 28.4062C2.25 26.25 0 22.3125 0 18ZM12.2344 13.5C11.4375 13.5 10.8281 14.1562 10.8281 14.9531V16.5H12.75C13.125 16.5 13.5 16.875 13.5 17.25C13.5 17.6719 13.125 18 12.75 18H10.8281V18.4688C10.8281 19.3594 10.6875 20.2031 10.4062 21H15.375C15.9844 21 16.5 21.5156 16.5 22.125C16.5 22.7812 15.9844 23.25 15.375 23.25H8.625C8.20312 23.25 7.82812 23.0625 7.64062 22.7344C7.45312 22.4062 7.40625 21.9844 7.59375 21.6094L8.0625 20.7656C8.4375 20.0625 8.57812 19.2656 8.57812 18.5156V18H8.25C7.82812 18 7.5 17.6719 7.5 17.25C7.5 16.875 7.82812 16.5 8.25 16.5H8.57812V14.9531C8.57812 12.9375 10.2188 11.25 12.2344 11.25C12.7031 11.25 13.1719 11.3438 13.5938 11.5312L15.0469 12.0938C15.6094 12.3281 15.8906 12.9844 15.6562 13.5469C15.4219 14.1562 14.7656 14.4375 14.2031 14.2031L12.75 13.6406C12.6094 13.5469 12.4219 13.5 12.2344 13.5Z" fill="black" fill-opacity="0.72"/>
</g>
<defs>
<clipPath id="clip0_2556_19287">
<rect width="24" height="36" fill="white"/>
</clipPath>
</defs>
</svg>
