<svg width="30" height="36" viewBox="0 0 30 36" fill="none" xmlns="http://www.w3.org/2000/svg">
<g id="label-paired / xl / handshake-xl / regular" clip-path="url(#clip0_4513_699)">
<path id="icon" d="M12.3281 9H12.75L11.1094 10.6875C10.3125 10.875 9.60938 11.25 8.95312 11.7656L7.07812 13.3594C6.98438 13.4531 6.84375 13.5 6.75 13.5V11.6719L8.01562 10.5938C9.23438 9.5625 10.7812 9 12.3281 9ZM5.25 22.5469V23.25C5.25 24.5156 4.21875 25.5 3 25.5H2.25C0.984375 25.5 0 24.5156 0 23.25V13.5C0 12.7031 0.65625 12 1.5 12H3.75H5.25V13.5V21.0469C6 21.0938 6.75 21.4219 7.26562 21.9844L8.71875 23.3906V23.3438L10.5938 25.2188C11.2031 25.8281 12.1875 25.875 12.8438 25.2656C12.9844 25.1719 13.125 24.9844 13.2188 24.8438C13.3125 24.6094 13.5469 24.4688 13.7812 24.4219C14.0156 24.375 14.25 24.4688 14.3906 24.6562L14.7656 25.0312C15.375 25.6406 16.4062 25.5938 16.9688 24.9375C17.25 24.6562 17.3906 24.2812 17.3438 23.9062C17.3438 23.625 17.4844 23.3438 17.7188 23.2031C18 23.0625 18.2812 23.0625 18.5156 23.2031C19.0781 23.5781 19.8281 23.5312 20.3438 23.0625C20.9531 22.5 21 21.5156 20.3906 20.9062L16.3125 16.8281L14.25 18.75C13.0781 19.875 11.25 19.875 10.0312 18.7969C8.67188 17.5781 8.625 15.4219 9.9375 14.1562L13.6875 10.6406C14.8125 9.60938 16.2656 9 17.8125 9C19.2188 9 20.5781 9.51562 21.6562 10.4531L23.2031 11.7188V13.5C23.0625 13.5 22.9219 13.4531 22.8281 13.3594L20.7188 11.5781C19.9219 10.875 18.8906 10.5 17.8125 10.5C16.6406 10.5 15.5625 10.9688 14.7188 11.7656L10.9688 15.2812C10.3125 15.9375 10.3125 17.0625 11.0156 17.6719C11.6719 18.2344 12.6094 18.2344 13.2188 17.6719L16.7812 14.3906C17.1094 14.1094 17.5781 14.1094 17.8594 14.4375C18.1406 14.7188 18.1406 15.1875 17.8125 15.4688L17.4375 15.8438L21.4688 19.8281C21.7969 20.1562 22.0312 20.5781 22.1719 20.9531H24.75V13.5469V12.0469H26.25H28.5C29.2969 12.0469 30 12.7031 30 13.5469V23.2969C30 24.5156 28.9688 25.5469 27.75 25.5469H27C25.7344 25.5469 24.75 24.5156 24.75 23.2969V22.4531H22.2656C22.1719 23.1094 21.8438 23.7188 21.3281 24.1875C20.5781 24.8438 19.5938 25.0781 18.7031 24.8906C18.5625 25.2656 18.375 25.6406 18.0938 25.9688C17.0156 27.1875 15.1875 27.2812 13.9688 26.2969C13.9219 26.3438 13.875 26.3906 13.8281 26.3906C12.6094 27.5156 10.7344 27.4688 9.5625 26.2969L8.39062 25.125L6.23438 23.0625C5.95312 22.7812 5.625 22.5938 5.25 22.5469ZM3.75 13.5H1.5V23.25C1.5 23.6719 1.82812 24 2.25 24H3C3.375 24 3.75 23.6719 3.75 23.25V13.5ZM28.5 13.5H26.25V23.25C26.25 23.6719 26.5781 24 27 24H27.75C28.125 24 28.5 23.6719 28.5 23.25V13.5Z" fill="black" fill-opacity="0.72"/>
</g>
<defs>
<clipPath id="clip0_4513_699">
<rect width="30" height="36" fill="white"/>
</clipPath>
</defs>
</svg>
