<svg width="24" height="36" viewBox="0 0 24 36" fill="none" xmlns="http://www.w3.org/2000/svg">
<g id="label-paired / xl / circle-arrow-up-right-xl / bold" clip-path="url(#clip0_2556_19970)">
<path id="icon" d="M12 27.75C15.4688 27.75 18.6562 25.9219 20.4375 22.875C22.1719 19.875 22.1719 16.1719 20.4375 13.125C18.6562 10.125 15.4688 8.25 12 8.25C8.48438 8.25 5.29688 10.125 3.51562 13.125C1.78125 16.1719 1.78125 19.875 3.51562 22.875C5.29688 25.9219 8.48438 27.75 12 27.75ZM12 6C16.2656 6 20.2031 8.29688 22.3594 12C24.5156 15.75 24.5156 20.2969 22.3594 24C20.2031 27.75 16.2656 30 12 30C7.6875 30 3.75 27.75 1.59375 24C-0.5625 20.2969 -0.5625 15.75 1.59375 12C3.75 8.29688 7.6875 6 12 6ZM9 12.75H16.125C16.7344 12.75 17.25 13.2656 17.25 13.875V21.375C17.25 22.0312 16.7344 22.5 16.125 22.5C15.4688 22.5 15 22.0312 15 21.375V16.5938L8.67188 22.9219C8.20312 23.3906 7.5 23.3906 7.07812 22.9219C6.60938 22.5 6.60938 21.7969 7.07812 21.375L13.4062 15.0469H9C8.34375 15.0469 7.875 14.5312 7.875 13.9219C7.875 13.2656 8.34375 12.7969 9 12.7969V12.75Z" fill="black" fill-opacity="0.72"/>
</g>
<defs>
<clipPath id="clip0_2556_19970">
<rect width="24" height="36" fill="white"/>
</clipPath>
</defs>
</svg>
