<svg width="12" height="18" viewBox="0 0 12 18" fill="none" xmlns="http://www.w3.org/2000/svg">
<g id="label-paired / caption / chevrons-left-caption / fill" clip-path="url(#clip0_2556_10307)">
<path id="icon" d="M0.960938 8.98438L5.46094 4.48438C5.74219 4.17969 6.23438 4.17969 6.51562 4.48438C6.82031 4.76562 6.82031 5.25781 6.51562 5.53906L2.55469 9.5L6.51562 13.4844C6.82031 13.7656 6.82031 14.2578 6.51562 14.5391C6.23438 14.8438 5.74219 14.8438 5.46094 14.5391L0.960938 10.0391C0.65625 9.75781 0.65625 9.26562 0.960938 8.98438ZM9.96094 4.48438C10.2422 4.17969 10.7344 4.17969 11.0156 4.48438C11.3203 4.76562 11.3203 5.25781 11.0156 5.53906L7.05469 9.5L11.0156 13.4844C11.3203 13.7656 11.3203 14.2578 11.0156 14.5391C10.7344 14.8438 10.2422 14.8438 9.96094 14.5391L5.46094 10.0391C5.15625 9.75781 5.15625 9.26562 5.46094 8.98438L9.96094 4.48438Z" fill="black" fill-opacity="0.72"/>
</g>
<defs>
<clipPath id="clip0_2556_10307">
<rect width="12" height="18" fill="white"/>
</clipPath>
</defs>
</svg>
