<svg width="16" height="24" viewBox="0 0 16 24" fill="none" xmlns="http://www.w3.org/2000/svg">
<g id="label-paired / md / pen-circle-md / bold" clip-path="url(#clip0_2556_14719)">
<path id="icon" d="M14.5 12C14.5 9.6875 13.25 7.5625 11.25 6.375C9.21875 5.21875 6.75 5.21875 4.75 6.375C2.71875 7.5625 1.5 9.6875 1.5 12C1.5 14.3438 2.71875 16.4688 4.75 17.6562C6.75 18.8125 9.21875 18.8125 11.25 17.6562C13.25 16.4688 14.5 14.3438 14.5 12ZM0 12C0 9.15625 1.5 6.53125 4 5.09375C6.46875 3.65625 9.5 3.65625 12 5.09375C14.4688 6.53125 16 9.15625 16 12C16 14.875 14.4688 17.5 12 18.9375C9.5 20.375 6.46875 20.375 4 18.9375C1.5 17.5 0 14.875 0 12ZM11.1562 8.375L11.625 8.84375C12.0938 9.3125 12.0938 10.0938 11.625 10.5938L10.9375 11.2812L8.71875 9.0625L9.40625 8.375C9.875 7.90625 10.6875 7.90625 11.1562 8.375ZM4.71875 13.0312L8.03125 9.75L10.25 11.9688L6.9375 15.25C6.8125 15.375 6.65625 15.4688 6.5 15.5312L4.59375 16C4.4375 16.0312 4.25 16 4.125 15.875C4 15.75 3.96875 15.5625 4 15.375L4.46875 13.5C4.5 13.3438 4.59375 13.1562 4.71875 13.0312Z" fill="black" fill-opacity="0.72"/>
</g>
<defs>
<clipPath id="clip0_2556_14719">
<rect width="16" height="24" fill="white"/>
</clipPath>
</defs>
</svg>
