<svg width="20" height="24" viewBox="0 0 20 24" fill="none" xmlns="http://www.w3.org/2000/svg">
<g id="label-paired / md / messages-question-md / regular" clip-path="url(#clip0_2556_14911)">
<path id="icon" d="M6.3125 13H11C11.5312 13 12 12.5625 12 12V6C12 5.46875 11.5312 5 11 5H2C1.4375 5 1 5.46875 1 6V12C1 12.5625 1.4375 13 2 13H3C3.53125 13 4 13.4688 4 14V14.5L5.71875 13.2188C5.90625 13.0938 6.09375 13 6.3125 13ZM11 14H6.3125L3.78125 15.9062C3.625 16.0312 3.4375 16.0312 3.25 15.9688C3.09375 15.875 3 15.7188 3 15.5V15V14H2C0.875 14 0 13.125 0 12V6C0 4.90625 0.875 4 2 4H11C12.0938 4 13 4.90625 13 6V12C13 13.125 12.0938 14 11 14ZM10 18C8.875 18 8 17.125 8 16V15H9V16C9 16.5625 9.4375 17 10 17H13.6562C13.875 17 14.0938 17.0938 14.25 17.2188L16 18.5V18C16 17.4688 16.4375 17 17 17H18C18.5312 17 19 16.5625 19 16V10C19 9.46875 18.5312 9 18 9H14V8H18C19.0938 8 20 8.90625 20 10V16C20 17.125 19.0938 18 18 18H17V19V19.5C17 19.7188 16.875 19.875 16.7188 19.9688C16.5312 20.0312 16.3438 20.0312 16.1875 19.9062L13.6562 18H10ZM5.75 6.21875C5.21875 6.21875 4.78125 6.53125 4.59375 7V7.03125C4.5 7.3125 4.65625 7.59375 4.90625 7.6875C5.15625 7.78125 5.4375 7.625 5.53125 7.375L5.5625 7.34375C5.5625 7.25 5.65625 7.21875 5.75 7.21875H7.03125C7.25 7.21875 7.40625 7.375 7.40625 7.5625C7.40625 7.71875 7.34375 7.84375 7.21875 7.90625L6.25 8.46875C6.09375 8.5625 6 8.71875 6 8.90625V9.1875C6 9.46875 6.21875 9.6875 6.5 9.6875C6.75 9.6875 7 9.46875 7 9.1875L7.71875 8.75C8.15625 8.53125 8.40625 8.0625 8.40625 7.59375C8.40625 6.8125 7.78125 6.21875 7.03125 6.21875H5.75ZM6.5 11.8438C6.75 11.875 7 11.75 7.125 11.5C7.28125 11.2812 7.28125 11 7.125 10.7812C7 10.5625 6.75 10.4062 6.5 10.4375C6.21875 10.4062 5.96875 10.5625 5.84375 10.7812C5.6875 11 5.6875 11.2812 5.84375 11.5C5.96875 11.75 6.21875 11.875 6.5 11.8438Z" fill="black" fill-opacity="0.72"/>
</g>
<defs>
<clipPath id="clip0_2556_14911">
<rect width="20" height="24" fill="white"/>
</clipPath>
</defs>
</svg>
