<svg width="12" height="24" viewBox="0 0 12 24" fill="none" xmlns="http://www.w3.org/2000/svg">
<g id="label-paired / md / file-arrow-down-md / fill" clip-path="url(#clip0_3431_902)">
<path id="icon" d="M2 4H7V8C7 8.5625 7.4375 9 8 9H12V18C12 19.125 11.0938 20 10 20H2C0.875 20 0 19.125 0 18V6C0 4.90625 0.875 4 2 4ZM8 4L12 8H8V4ZM6.75 11.25H6.71875C6.71875 10.8438 6.40625 10.5 5.96875 10.5C5.5625 10.5 5.21875 10.8438 5.21875 11.25V14.4688L4.25 13.5C3.96875 13.1875 3.5 13.1875 3.21875 13.5C2.90625 13.7812 2.90625 14.25 3.21875 14.5312L5.46875 16.7812C5.75 17.0938 6.21875 17.0938 6.5 16.7812L8.75 14.5312C9.0625 14.25 9.0625 13.7812 8.75 13.5C8.46875 13.1875 8 13.1875 7.71875 13.5L6.75 14.4688V11.25Z" fill="black" fill-opacity="0.72"/>
</g>
<defs>
<clipPath id="clip0_3431_902">
<rect width="12" height="24" fill="white"/>
</clipPath>
</defs>
</svg>
