<svg width="18" height="22" viewBox="0 0 18 22" fill="none" xmlns="http://www.w3.org/2000/svg">
<g id="label-paired / sm / hands-holding-diamond-sm / regular" clip-path="url(#clip0_2556_12373)">
<path id="icon" d="M9.60156 4.02344L12.2266 6.64844C12.582 6.97656 12.582 7.55078 12.2266 7.87891L9.60156 10.5039C9.27344 10.8594 8.69922 10.8594 8.37109 10.5039L5.74609 7.87891C5.39062 7.55078 5.39062 6.97656 5.74609 6.64844L8.37109 4.02344C8.69922 3.66797 9.27344 3.66797 9.60156 4.02344ZM6.375 7.25L9 9.875L11.625 7.25L9 4.625L6.375 7.25ZM2 5.5C2.95703 5.5 3.75 6.29297 3.75 7.25V10.668C3.75 10.7773 3.75 10.9141 3.77734 11.0234C3.83203 10.9414 3.88672 10.8594 3.96875 10.7773C4.57031 10.1758 5.52734 10.1758 6.12891 10.7773L8.61719 13.2656C8.75391 13.4297 8.89062 13.5664 9 13.7305C9.08203 13.5664 9.21875 13.4297 9.35547 13.2656L11.8438 10.7773C12.4453 10.1758 13.4023 10.1758 14.0039 10.7773C14.0859 10.8594 14.1406 10.9414 14.1953 11.0234C14.2227 10.9141 14.25 10.7773 14.25 10.668V7.25C14.25 6.29297 15.0156 5.5 16 5.5C16.957 5.5 17.75 6.29297 17.75 7.25V13.1836C17.75 13.9766 17.4219 14.7695 16.8477 15.3438L14.5508 17.6406C14.3867 17.8047 14.0859 17.8047 13.9219 17.6406C13.7578 17.4766 13.7578 17.1758 13.9219 17.0117L16.2188 14.7148C16.6289 14.3047 16.875 13.7578 16.875 13.1836V7.25C16.875 6.78516 16.4648 6.375 16 6.375C15.5078 6.375 15.125 6.78516 15.125 7.25V10.668C15.125 11.4062 14.8242 12.1172 14.3047 12.6367L14.0039 12.9375L12.8008 14.1406L12.3633 14.5781C12.1992 14.7422 11.8984 14.7422 11.7344 14.5781C11.5703 14.4141 11.5703 14.1133 11.7344 13.9492L12.1719 13.5117L13.375 12.3086C13.6211 12.0625 13.6211 11.6523 13.375 11.4062C13.1289 11.1602 12.7188 11.1602 12.4727 11.4062L9.98438 13.8945C9.62891 14.25 9.4375 14.7148 9.4375 15.207V17.3125C9.4375 17.5586 9.21875 17.75 9 17.75C8.75391 17.75 8.5625 17.5586 8.5625 17.3125V15.207C8.5625 14.7148 8.34375 14.25 8.01562 13.8945L5.5 11.4062C5.25391 11.1602 4.84375 11.1602 4.59766 11.4062C4.35156 11.6523 4.35156 12.0625 4.59766 12.3086L5.80078 13.5117L6.23828 13.9492C6.40234 14.1133 6.40234 14.4141 6.23828 14.5781C6.07422 14.7422 5.77344 14.7422 5.60938 14.5781L5.17188 14.1406L3.96875 12.9375L3.69531 12.6367C3.14844 12.1172 2.875 11.4062 2.875 10.668V7.25C2.875 6.78516 2.46484 6.375 2 6.375C1.50781 6.375 1.125 6.78516 1.125 7.25V13.1836C1.125 13.7578 1.34375 14.3047 1.75391 14.7148L4.05078 17.0117C4.21484 17.1758 4.21484 17.4766 4.05078 17.6406C3.88672 17.8047 3.58594 17.8047 3.42188 17.6406L1.125 15.3438C0.550781 14.7695 0.25 13.9766 0.25 13.1836V7.25C0.25 6.29297 1.01562 5.5 2 5.5Z" fill="black" fill-opacity="0.72"/>
</g>
<defs>
<clipPath id="clip0_2556_12373">
<rect width="18" height="22" fill="white"/>
</clipPath>
</defs>
</svg>
