<svg width="20" height="24" viewBox="0 0 20 24" fill="none" xmlns="http://www.w3.org/2000/svg">
<g id="label-paired / md / eye-slash-md / bold" clip-path="url(#clip0_2556_15313)">
<path id="icon" d="M1.1875 4.1875L4.6875 6.90625C6.09375 5.84375 7.84375 5 10 5C12.5 5 14.5312 6.15625 16 7.53125C17.4688 8.875 18.4375 10.5 18.9062 11.625C19 11.875 19 12.1562 18.9062 12.4062C18.5 13.4062 17.6562 14.8438 16.4062 16.0938L19.6875 18.6875C20.0312 18.9375 20.0938 19.4062 19.8125 19.7188C19.5625 20.0625 19.0938 20.125 18.7812 19.8438L0.28125 5.34375C-0.0625 5.09375 -0.125 4.625 0.15625 4.3125C0.40625 3.96875 0.875 3.90625 1.1875 4.1875ZM5.90625 7.875L7.34375 9C8.0625 8.375 8.96875 8 10 8C12.1875 8 14 9.8125 14 12C14 12.6875 13.8438 13.3125 13.5312 13.8438L15.2188 15.1562C16.3125 14.0938 17.0625 12.875 17.4375 12C17.0312 11.0625 16.1875 9.75 14.9688 8.625C13.6875 7.4375 12.0312 6.5 10 6.5C8.40625 6.5 7.0625 7.0625 5.90625 7.875ZM12.3125 12.9062C12.4375 12.625 12.5 12.3125 12.5 12C12.5 10.625 11.375 9.5 10 9.5C9.96875 9.5 9.9375 9.5 9.9375 9.5C9.96875 9.6875 10 9.84375 10 10C10 10.3438 9.90625 10.625 9.78125 10.9062L12.3125 12.9062ZM13.9375 18C12.7812 18.625 11.4688 19 10 19C7.46875 19 5.4375 17.875 3.96875 16.5C2.5 15.125 1.53125 13.5 1.0625 12.4062C0.96875 12.1562 0.96875 11.875 1.0625 11.625C1.375 10.9062 1.875 10 2.59375 9.0625L3.75 10C3.1875 10.7188 2.78125 11.4375 2.53125 12C2.96875 12.9375 3.78125 14.2812 5 15.4062C6.28125 16.5938 7.9375 17.5 10 17.5C10.9375 17.5 11.8125 17.3125 12.625 16.9688L13.9375 18ZM11.1875 15.8438C10.8125 15.9375 10.4062 16 9.96875 16C7.78125 16 5.96875 14.2188 5.96875 12C5.96875 11.9375 6 11.8438 6 11.75L7.75 13.125C8.0625 13.7812 8.6875 14.2812 9.4375 14.4375L11.1875 15.8438Z" fill="black" fill-opacity="0.72"/>
</g>
<defs>
<clipPath id="clip0_2556_15313">
<rect width="20" height="24" fill="white"/>
</clipPath>
</defs>
</svg>
