<svg width="15" height="36" viewBox="0 0 15 36" fill="none" xmlns="http://www.w3.org/2000/svg">
<g id="label-paired / xl / zero-xl / fill" clip-path="url(#clip0_2556_19559)">
<path id="icon" d="M0 15C0 10.875 3.32812 7.5 7.5 7.5C11.625 7.5 15 10.875 15 15V21C15 25.1719 11.625 28.5 7.5 28.5C3.32812 28.5 0 25.1719 0 21V15ZM7.5 10.5C5.01562 10.5 3 12.5156 3 15V21C3 23.4844 5.01562 25.5 7.5 25.5C9.98438 25.5 12 23.4844 12 21V15C12 12.5156 9.98438 10.5 7.5 10.5Z" fill="black" fill-opacity="0.72"/>
</g>
<defs>
<clipPath id="clip0_2556_19559">
<rect width="15" height="36" fill="white"/>
</clipPath>
</defs>
</svg>
