<svg width="16" height="24" viewBox="0 0 16 24" fill="none" xmlns="http://www.w3.org/2000/svg">
<g id="label-paired / md / facebook-md" clip-path="url(#clip0_2556_14562)">
<path id="icon" d="M16 12C16 16.0938 12.9062 19.4688 8.96875 19.9688V14.4688H11.125L11.5625 12H8.96875V11.1562C8.96875 9.84375 9.46875 9.34375 10.7812 9.34375C11.1875 9.34375 11.5 9.375 11.6875 9.375V7.1875C11.3438 7.0625 10.4688 6.96875 9.96875 6.96875C7.28125 6.96875 6.0625 8.25 6.0625 10.9688V12H4.40625V14.4688H6.0625V19.7812C2.5625 18.9062 0 15.75 0 12C0 7.59375 3.5625 4 8 4C12.4062 4 16 7.59375 16 12Z" fill="black" fill-opacity="0.72"/>
</g>
<defs>
<clipPath id="clip0_2556_14562">
<rect width="16" height="24" fill="white"/>
</clipPath>
</defs>
</svg>
