<svg width="14" height="22" viewBox="0 0 14 22" fill="none" xmlns="http://www.w3.org/2000/svg">
<g id="label-paired / sm / circle-dollar-sm / regular" clip-path="url(#clip0_2556_12320)">
<path id="icon" d="M13.125 10.75C13.125 8.5625 11.9492 6.56641 10.0625 5.47266C8.14844 4.35156 5.82422 4.35156 3.9375 5.47266C2.02344 6.56641 0.875 8.5625 0.875 10.75C0.875 12.9648 2.02344 14.9609 3.9375 16.0547C5.82422 17.1758 8.14844 17.1758 10.0625 16.0547C11.9492 14.9609 13.125 12.9648 13.125 10.75ZM0 10.75C0 8.26172 1.3125 5.96484 3.5 4.70703C5.66016 3.44922 8.3125 3.44922 10.5 4.70703C12.6602 5.96484 14 8.26172 14 10.75C14 13.2656 12.6602 15.5625 10.5 16.8203C8.3125 18.0781 5.66016 18.0781 3.5 16.8203C1.3125 15.5625 0 13.2656 0 10.75ZM7.4375 7.03125V7.66016C7.79297 7.6875 8.14844 7.79688 8.50391 7.90625C8.55859 7.90625 8.58594 7.93359 8.64062 7.93359C8.85938 7.98828 8.99609 8.23438 8.94141 8.48047C8.88672 8.69922 8.64062 8.83594 8.39453 8.78125C8.33984 8.75391 8.25781 8.75391 8.20312 8.72656C8.01172 8.67188 7.79297 8.58984 7.57422 8.5625C7.05469 8.50781 6.58984 8.5625 6.23438 8.69922C5.87891 8.86328 5.71484 9.08203 5.6875 9.24609C5.63281 9.51953 5.74219 9.68359 5.96094 9.84766C6.26172 10.0117 6.69922 10.1484 7.21875 10.2852V10.3125C7.71094 10.4492 8.28516 10.6133 8.72266 10.8867C9.24219 11.2422 9.46094 11.8164 9.35156 12.4453C9.24219 13.0195 8.83203 13.4297 8.3125 13.6211C8.06641 13.7305 7.73828 13.8125 7.41016 13.8125V14.4688C7.41016 14.7148 7.21875 14.9062 6.97266 14.9062C6.75391 14.9062 6.53516 14.7148 6.53516 14.4688V13.7852C6.31641 13.7305 5.96094 13.6211 5.66016 13.5391C5.46875 13.4844 5.27734 13.4297 5.08594 13.375C4.86719 13.293 4.73047 13.0469 4.8125 12.8008C4.89453 12.582 5.14062 12.4727 5.35938 12.5273C5.55078 12.582 5.71484 12.6641 5.90625 12.7188C6.20703 12.8008 6.53516 12.8828 6.67188 12.9102C7.21875 12.9922 7.68359 12.9375 7.98438 12.8281C8.28516 12.6914 8.44922 12.5 8.50391 12.2812C8.53125 11.9805 8.44922 11.7617 8.20312 11.5977C7.875 11.3789 7.49219 11.2695 7.08203 11.1602C7.02734 11.1602 6.97266 11.1328 6.91797 11.1055C6.42578 10.9961 5.90625 10.832 5.49609 10.5586C5.27734 10.4219 5.05859 10.2305 4.92188 9.98438C4.78516 9.71094 4.75781 9.41016 4.8125 9.08203C4.92188 8.50781 5.35938 8.125 5.87891 7.90625C6.07031 7.82422 6.31641 7.74219 6.53516 7.71484V7.03125C6.53516 6.8125 6.72656 6.59375 6.97266 6.59375C7.21875 6.59375 7.41016 6.8125 7.41016 7.03125H7.4375Z" fill="black" fill-opacity="0.72"/>
</g>
<defs>
<clipPath id="clip0_2556_12320">
<rect width="14" height="22" fill="white"/>
</clipPath>
</defs>
</svg>
