<svg width="20" height="30" viewBox="0 0 20 30" fill="none" xmlns="http://www.w3.org/2000/svg">
<g id="label-paired / lg / arrow-rotate-right-lg / regular" clip-path="url(#clip0_3431_982)">
<path id="icon" d="M18.125 13H13.125C12.7734 13 12.5 12.7266 12.5 12.375C12.5 12.0625 12.7734 11.75 13.125 11.75H16.4844C15.1953 9.52344 12.7734 8 10 8C5.85938 8 2.5 11.3594 2.5 15.5C2.5 19.6406 5.85938 23 10 23C12.6172 23 14.9609 21.6328 16.2891 19.6016C16.4062 19.4062 16.6406 19.25 16.875 19.25C17.3438 19.25 17.6562 19.7578 17.3828 20.1875C15.8594 22.6484 13.0859 24.25 10 24.25C5.15625 24.25 1.25 20.3438 1.25 15.5C1.25 10.6953 5.15625 6.75 10 6.75C13.1641 6.75 15.9375 8.46875 17.5 11.0078V7.375C17.5 7.0625 17.7734 6.75 18.125 6.75C18.4375 6.75 18.75 7.0625 18.75 7.375V12.375C18.75 12.7266 18.4375 13 18.125 13Z" fill="black" fill-opacity="0.72"/>
</g>
<defs>
<clipPath id="clip0_3431_982">
<rect width="20" height="30" fill="white"/>
</clipPath>
</defs>
</svg>
