<svg width="11" height="18" viewBox="0 0 11 18" fill="none" xmlns="http://www.w3.org/2000/svg">
<g id="label-paired / caption / square-check-caption / regular" clip-path="url(#clip0_2556_10372)">
<path id="icon" d="M1.75 5C1.32812 5 1 5.35156 1 5.75V13.25C1 13.6719 1.32812 14 1.75 14H9.25C9.64844 14 10 13.6719 10 13.25V5.75C10 5.35156 9.64844 5 9.25 5H1.75ZM0.25 5.75C0.25 4.92969 0.90625 4.25 1.75 4.25H9.25C10.0703 4.25 10.75 4.92969 10.75 5.75V13.25C10.75 14.0938 10.0703 14.75 9.25 14.75H1.75C0.90625 14.75 0.25 14.0938 0.25 13.25V5.75ZM8.00781 8.28125L5.00781 11.2812C4.86719 11.4219 4.60938 11.4219 4.46875 11.2812L2.96875 9.78125C2.82812 9.64062 2.82812 9.38281 2.96875 9.24219C3.10938 9.10156 3.36719 9.10156 3.50781 9.24219L4.75 10.4844L7.46875 7.74219C7.60938 7.60156 7.86719 7.60156 8.00781 7.74219C8.14844 7.88281 8.14844 8.14062 8.00781 8.28125Z" fill="black" fill-opacity="0.72"/>
</g>
<defs>
<clipPath id="clip0_2556_10372">
<rect width="11" height="18" fill="white"/>
</clipPath>
</defs>
</svg>
