<svg width="20" height="30" viewBox="0 0 20 30" fill="none" xmlns="http://www.w3.org/2000/svg">
<g id="label-paired / lg / objects-align-left-lg / regular" clip-path="url(#clip0_3431_947)">
<path id="icon" d="M0 6.125C0 5.8125 0.273438 5.5 0.625 5.5C0.9375 5.5 1.25 5.8125 1.25 6.125V24.875C1.25 25.2266 0.9375 25.5 0.625 25.5C0.273438 25.5 0 25.2266 0 24.875V6.125ZM6.25 12.375C6.25 12.7266 6.52344 13 6.875 13H18.125C18.4375 13 18.75 12.7266 18.75 12.375V9.875C18.75 9.5625 18.4375 9.25 18.125 9.25H6.875C6.52344 9.25 6.25 9.5625 6.25 9.875V12.375ZM5 9.875C5 8.85938 5.82031 8 6.875 8H18.125C19.1406 8 20 8.85938 20 9.875V12.375C20 13.4297 19.1406 14.25 18.125 14.25H6.875C5.82031 14.25 5 13.4297 5 12.375V9.875ZM6.25 21.125C6.25 21.4766 6.52344 21.75 6.875 21.75H13.125C13.4375 21.75 13.75 21.4766 13.75 21.125V18.625C13.75 18.3125 13.4375 18 13.125 18H6.875C6.52344 18 6.25 18.3125 6.25 18.625V21.125ZM5 18.625C5 17.6094 5.82031 16.75 6.875 16.75H13.125C14.1406 16.75 15 17.6094 15 18.625V21.125C15 22.1797 14.1406 23 13.125 23H6.875C5.82031 23 5 22.1797 5 21.125V18.625Z" fill="black" fill-opacity="0.72"/>
</g>
<defs>
<clipPath id="clip0_3431_947">
<rect width="20" height="30" fill="white"/>
</clipPath>
</defs>
</svg>
