<svg width="9" height="18" viewBox="0 0 9 18" fill="none" xmlns="http://www.w3.org/2000/svg">
<g id="label-paired / caption / computer-mouse-scrollwheel-caption / bold" clip-path="url(#clip0_2556_10084)">
<path id="icon" d="M7.875 11.75V7.25C7.875 5.82031 6.67969 4.625 5.25 4.625H3.75C2.29688 4.625 1.125 5.82031 1.125 7.25V11.75C1.125 13.2031 2.29688 14.375 3.75 14.375H5.25C6.67969 14.375 7.875 13.2031 7.875 11.75ZM0 7.25C0 5.1875 1.66406 3.5 3.75 3.5H5.25C7.3125 3.5 9 5.1875 9 7.25V11.75C9 13.8359 7.3125 15.5 5.25 15.5H3.75C1.66406 15.5 0 13.8359 0 11.75V7.25ZM4.5 5.75C4.89844 5.75 5.25 6.10156 5.25 6.5V7.25C5.25 7.67188 4.89844 8 4.5 8C4.07812 8 3.75 7.67188 3.75 7.25V6.5C3.75 6.10156 4.07812 5.75 4.5 5.75Z" fill="black" fill-opacity="0.72"/>
</g>
<defs>
<clipPath id="clip0_2556_10084">
<rect width="9" height="18" fill="white"/>
</clipPath>
</defs>
</svg>
