<svg width="16" height="24" viewBox="0 0 16 24" fill="none" xmlns="http://www.w3.org/2000/svg">
<g id="label-paired / md / arrow-rotate-left-md / bold" clip-path="url(#clip0_3431_893)">
<path id="icon" d="M1.25 11C0.8125 11 0.5 10.6875 0.5 10.25V5.75C0.5 5.34375 0.8125 5 1.25 5C1.65625 5 2 5.34375 2 5.75V8.28125L2.625 7.53125C3.90625 6 5.8125 5 8 5C11.8438 5 15 8.15625 15 12C15 15.875 11.8438 19 8 19C6.40625 19 4.96875 18.5 3.78125 17.625C3.46875 17.375 3.375 16.9062 3.625 16.5625C3.875 16.2188 4.34375 16.1562 4.6875 16.4062C5.59375 17.0938 6.75 17.5 8 17.5C11.0312 17.5 13.5 15.0625 13.5 12C13.5 8.96875 11.0312 6.5 8 6.5C6.28125 6.5 4.78125 7.28125 3.75 8.5L2.90625 9.5H5.75C6.15625 9.5 6.5 9.84375 6.5 10.25C6.5 10.6875 6.15625 11 5.75 11H1.25Z" fill="black" fill-opacity="0.72"/>
</g>
<defs>
<clipPath id="clip0_3431_893">
<rect width="16" height="24" fill="white"/>
</clipPath>
</defs>
</svg>
