<svg width="12" height="18" viewBox="0 0 12 18" fill="none" xmlns="http://www.w3.org/2000/svg">
<g id="label-paired / caption / circle-envelope-caption / bold" clip-path="url(#clip0_2556_10143)">
<path id="icon" d="M6 4.625C4.24219 4.625 2.64844 5.5625 1.75781 7.0625C0.890625 8.58594 0.890625 10.4375 1.75781 11.9375C2.64844 13.4609 4.24219 14.375 6 14.375C7.73438 14.375 9.32812 13.4609 10.2188 11.9375C11.0859 10.4375 11.0859 8.58594 10.2188 7.0625C9.32812 5.5625 7.73438 4.625 6 4.625ZM6 15.5C3.84375 15.5 1.875 14.375 0.796875 12.5C-0.28125 10.6484 -0.28125 8.375 0.796875 6.5C1.875 4.64844 3.84375 3.5 6 3.5C8.13281 3.5 10.1016 4.64844 11.1797 6.5C12.2578 8.375 12.2578 10.6484 11.1797 12.5C10.1016 14.375 8.13281 15.5 6 15.5ZM5.8125 9.5L3 7.95312C3.02344 7.55469 3.35156 7.25 3.75 7.25H8.25C8.625 7.25 8.95312 7.55469 8.97656 7.95312L6.16406 9.5C6.11719 9.52344 6.04688 9.54688 6 9.54688C5.92969 9.54688 5.85938 9.52344 5.8125 9.5ZM6.51562 10.1562L9 8.79688V11C9 11.4219 8.64844 11.75 8.25 11.75H3.75C3.32812 11.75 3 11.4219 3 11V8.79688L5.46094 10.1562C5.625 10.25 5.8125 10.2969 6 10.2969C6.16406 10.2969 6.35156 10.25 6.51562 10.1562Z" fill="black" fill-opacity="0.72"/>
</g>
<defs>
<clipPath id="clip0_2556_10143">
<rect width="12" height="18" fill="white"/>
</clipPath>
</defs>
</svg>
