<svg width="20" height="30" viewBox="0 0 20 30" fill="none" xmlns="http://www.w3.org/2000/svg">
<g id="label-paired / lg / right-from-bracket-lg / regular" clip-path="url(#clip0_2556_17554)">
<path id="icon" d="M18.7109 15.4609L13.5547 10.5781C13.5156 10.5391 13.4375 10.5 13.3594 10.5C13.2422 10.5 13.125 10.6172 13.125 10.7734V13C13.125 13.3516 12.8125 13.625 12.5 13.625H7.8125C7.61719 13.625 7.5 13.7812 7.5 13.9375V17.0625C7.5 17.2578 7.61719 17.375 7.8125 17.375H12.5C12.8125 17.375 13.125 17.6875 13.125 18V20.2656C13.125 20.3828 13.2422 20.5 13.3594 20.5C13.4375 20.5 13.5156 20.5 13.5547 20.4609L18.7109 15.5781C18.7109 15.5781 18.75 15.5391 18.75 15.5L18.7109 15.4609ZM20 15.5C20 15.8906 19.8438 16.2422 19.5703 16.5156L14.4141 21.3594C14.1406 21.6328 13.75 21.75 13.3594 21.75C12.5391 21.75 11.875 21.0859 11.875 20.2656V18.625H7.8125C6.91406 18.625 6.25 17.9609 6.25 17.0625V13.9375C6.25 13.0781 6.91406 12.375 7.8125 12.375H11.875V10.7734C11.875 9.95312 12.5391 9.25 13.3594 9.25C13.75 9.25 14.1406 9.40625 14.4141 9.67969L19.5703 14.5234C19.8438 14.7969 20 15.1484 20 15.5ZM6.875 8H3.125C2.07031 8 1.25 8.85938 1.25 9.875V21.125C1.25 22.1797 2.07031 23 3.125 23H6.875C7.1875 23 7.5 23.3125 7.5 23.625C7.5 23.9766 7.1875 24.25 6.875 24.25H3.125C1.36719 24.25 0 22.8828 0 21.125V9.875C0 8.15625 1.36719 6.75 3.125 6.75H6.875C7.1875 6.75 7.5 7.0625 7.5 7.375C7.5 7.72656 7.1875 8 6.875 8Z" fill="black" fill-opacity="0.72"/>
</g>
<defs>
<clipPath id="clip0_2556_17554">
<rect width="20" height="30" fill="white"/>
</clipPath>
</defs>
</svg>
