<svg width="24" height="36" viewBox="0 0 24 36" fill="none" xmlns="http://www.w3.org/2000/svg">
<g id="label-paired / xl / file-pdf-xl / fill" clip-path="url(#clip0_2556_19987)">
<path id="icon" d="M0 9C0 7.35938 1.3125 6 3 6H10.5V12C10.5 12.8438 11.1562 13.5 12 13.5H18V20.25H8.25C6.5625 20.25 5.25 21.6094 5.25 23.25V30H3C1.3125 30 0 28.6875 0 27V9ZM18 12H12V6L18 12ZM8.25 22.5H9.75C11.1562 22.5 12.375 23.7188 12.375 25.125C12.375 26.5781 11.1562 27.75 9.75 27.75H9V29.25C9 29.6719 8.625 30 8.25 30C7.82812 30 7.5 29.6719 7.5 29.25V27V23.25C7.5 22.875 7.82812 22.5 8.25 22.5ZM9.75 26.25C10.3594 26.25 10.875 25.7812 10.875 25.125C10.875 24.5156 10.3594 24 9.75 24H9V26.25H9.75ZM14.25 22.5H15.75C16.9688 22.5 18 23.5312 18 24.75V27.75C18 29.0156 16.9688 30 15.75 30H14.25C13.8281 30 13.5 29.6719 13.5 29.25V23.25C13.5 22.875 13.8281 22.5 14.25 22.5ZM15.75 28.5C16.125 28.5 16.5 28.1719 16.5 27.75V24.75C16.5 24.375 16.125 24 15.75 24H15V28.5H15.75ZM19.5 23.25C19.5 22.875 19.8281 22.5 20.25 22.5H22.5C22.875 22.5 23.25 22.875 23.25 23.25C23.25 23.6719 22.875 24 22.5 24H21V25.5H22.5C22.875 25.5 23.25 25.875 23.25 26.25C23.25 26.6719 22.875 27 22.5 27H21V29.25C21 29.6719 20.625 30 20.25 30C19.8281 30 19.5 29.6719 19.5 29.25V26.25V23.25Z" fill="black" fill-opacity="0.72"/>
</g>
<defs>
<clipPath id="clip0_2556_19987">
<rect width="24" height="36" fill="white"/>
</clipPath>
</defs>
</svg>
