<svg width="20" height="24" viewBox="0 0 20 24" fill="none" xmlns="http://www.w3.org/2000/svg">
<g id="label-paired / md / book-circle-question-md / regular" clip-path="url(#clip0_2981_947)">
<path id="icon" d="M0 6C0 4.90625 0.875 4 2 4H12.5C13.3125 4 14 4.6875 14 5.5V10.2188C13.625 10.3125 13.3125 10.4375 13 10.625V5.5C13 5.25 12.75 5 12.5 5H4V16H10C10.0312 16.3438 10.0938 16.6875 10.1875 17H2C1.4375 17 1 17.4688 1 18C1 18.5625 1.4375 19 2 19H11.25C11.5625 19.4062 11.9062 19.7188 12.3125 20H2C0.875 20 0 19.125 0 18V6ZM1 6V16.2812C1.28125 16.125 1.625 16 2 16H3V5H2C1.4375 5 1 5.46875 1 6ZM5.5 8.5C5.5 8.25 5.71875 8 6 8H11C11.25 8 11.5 8.25 11.5 8.5C11.5 8.78125 11.25 9 11 9H6C5.71875 9 5.5 8.78125 5.5 8.5ZM5.5 11.5C5.5 11.25 5.71875 11 6 11H11C11.25 11 11.5 11.25 11.5 11.5C11.5 11.7812 11.25 12 11 12H6C5.71875 12 5.5 11.7812 5.5 11.5ZM11 15.5C11 13.0312 13 11 15.5 11C17.9688 11 20 13.0312 20 15.5C20 18 17.9688 20 15.5 20C13 20 11 18 11 15.5ZM12 15.5C12 17.4375 13.5625 19 15.5 19C17.4062 19 19 17.4375 19 15.5C19 13.5938 17.4062 12 15.5 12C13.5625 12 12 13.5938 12 15.5ZM13.5 14.3125C13.5 13.5938 14.0625 13 14.7812 13H16.0625C16.8438 13 17.5 13.6562 17.5 14.4375C17.5 14.9688 17.1875 15.4688 16.7188 15.7188L15.9688 16.0938C15.9375 16.3438 15.7188 16.5 15.5 16.5C15.2188 16.5 15 16.2812 15 16V15.8125C15 15.625 15.0938 15.4375 15.25 15.3438L16.25 14.8438C16.4062 14.75 16.5 14.5938 16.5 14.4375C16.5 14.2188 16.2812 14 16.0625 14H14.7812C14.625 14 14.5 14.1562 14.5 14.3125V14.5C14.5 14.7812 14.25 15 14 15C13.7188 15 13.5 14.7812 13.5 14.5V14.3125ZM15 17.5C15 17.25 15.2188 17 15.5 17C15.75 17 16 17.25 16 17.5C16 17.7812 15.75 18 15.5 18C15.2188 18 15 17.7812 15 17.5Z" fill="black" fill-opacity="0.72"/>
</g>
<defs>
<clipPath id="clip0_2981_947">
<rect width="20" height="24" fill="white"/>
</clipPath>
</defs>
</svg>
