<svg width="12" height="18" viewBox="0 0 12 18" fill="none" xmlns="http://www.w3.org/2000/svg">
<g id="label-paired / caption / facebook-messenger-caption" clip-path="url(#clip0_2981_638)">
<path id="icon" d="M6 3.6875C9.28125 3.6875 11.8125 6.10156 11.8125 9.33594C11.8125 13.4375 7.89844 15.7344 4.3125 14.75C4.10156 14.7031 4.07812 14.75 2.85938 15.2891C2.69531 15.3359 2.53125 15.3359 2.41406 15.2422C2.27344 15.1719 2.20312 15.0312 2.20312 14.8672C2.15625 13.7891 2.20312 13.6953 2.01562 13.5078C0.867188 12.5 0.1875 11.0234 0.1875 9.33594C0.1875 6.10156 2.71875 3.6875 6 3.6875ZM9.49219 8.04688C9.65625 7.78906 9.35156 7.48438 9.09375 7.67188L7.26562 9.05469C7.125 9.14844 6.96094 9.14844 6.84375 9.05469L5.48438 8.04688C5.27344 7.90625 5.03906 7.83594 4.80469 7.88281C4.54688 7.92969 4.33594 8.07031 4.21875 8.28125L2.50781 10.9766C2.34375 11.2344 2.64844 11.5391 2.90625 11.3516L4.73438 9.96875C4.875 9.875 5.03906 9.875 5.15625 9.96875L6.51562 10.9766C6.72656 11.1172 6.96094 11.1875 7.21875 11.1406C7.45312 11.0938 7.66406 10.9531 7.78125 10.7422L9.49219 8.04688Z" fill="black" fill-opacity="0.72"/>
</g>
<defs>
<clipPath id="clip0_2981_638">
<rect width="12" height="18" fill="white"/>
</clipPath>
</defs>
</svg>
