<svg width="23" height="30" viewBox="0 0 23 30" fill="none" xmlns="http://www.w3.org/2000/svg">
<g id="label-paired / lg / link-simple-lg / fill" clip-path="url(#clip0_2556_17148)">
<path id="icon" d="M0.25 15.5C0.25 12.0625 3.02344 9.25 6.5 9.25H9C9.66406 9.25 10.25 9.83594 10.25 10.5C10.25 11.2031 9.66406 11.75 9 11.75H6.5C4.42969 11.75 2.75 13.4297 2.75 15.5C2.75 17.5703 4.42969 19.25 6.5 19.25H9C9.66406 19.25 10.25 19.8359 10.25 20.5C10.25 21.2031 9.66406 21.75 9 21.75H6.5C3.02344 21.75 0.25 18.9766 0.25 15.5ZM22.75 15.5C22.75 18.9766 19.9375 21.75 16.5 21.75H14C13.2969 21.75 12.75 21.2031 12.75 20.5C12.75 19.8359 13.2969 19.25 14 19.25H16.5C18.5703 19.25 20.25 17.5703 20.25 15.5C20.25 13.4297 18.5703 11.75 16.5 11.75H14C13.2969 11.75 12.75 11.2031 12.75 10.5C12.75 9.83594 13.2969 9.25 14 9.25H16.5C19.9375 9.25 22.75 12.0625 22.75 15.5ZM7.75 14.25H15.25C15.9141 14.25 16.5 14.8359 16.5 15.5C16.5 16.2031 15.9141 16.75 15.25 16.75H7.75C7.04688 16.75 6.5 16.2031 6.5 15.5C6.5 14.8359 7.04688 14.25 7.75 14.25Z" fill="black" fill-opacity="0.72"/>
</g>
<defs>
<clipPath id="clip0_2556_17148">
<rect width="23" height="30" fill="white"/>
</clipPath>
</defs>
</svg>
