<svg width="20" height="24" viewBox="0 0 20 24" fill="none" xmlns="http://www.w3.org/2000/svg">
<g id="label-paired / md / location-crosshairs-slash-md / regular" clip-path="url(#clip0_2556_15066)">
<path id="icon" d="M12.3438 16.4375L13.1875 17.0938C12.4062 17.5938 11.4688 17.9062 10.5 18V19.5C10.5 19.7812 10.25 20 10 20C9.71875 20 9.5 19.7812 9.5 19.5V18C6.5625 17.75 4.25 15.4375 4 12.5H2.5C2.21875 12.5 2 12.2812 2 12C2 11.75 2.21875 11.5 2.5 11.5H4C4.0625 11 4.15625 10.5312 4.3125 10.0625L5.15625 10.75C5.03125 11.1562 5 11.5625 5 12C5 14.7812 7.21875 17 10 17C10.8438 17 11.6562 16.8125 12.3438 16.4375ZM9.5 6.03125V4.5C9.5 4.25 9.71875 4 10 4C10.25 4 10.5 4.25 10.5 4.5V6.03125C13.4062 6.28125 15.7188 8.59375 15.9688 11.5H17.5C17.75 11.5 18 11.75 18 12C18 12.2812 17.75 12.5 17.5 12.5H15.9688C15.9375 13 15.8125 13.5 15.6562 13.9375L14.8125 13.2812C14.9375 12.875 15 12.4375 15 12C15 9.25 12.75 7 10 7C9.125 7 8.34375 7.21875 7.625 7.59375L6.78125 6.9375C7.59375 6.4375 8.5 6.125 9.5 6.03125ZM10 15C8.40625 15 7.09375 13.7812 7 12.1875L8.71875 13.5625C8.75 13.5938 8.75 13.5938 8.75 13.5938L10.5 14.9688C10.3438 15 10.1562 15 10 15ZM9.46875 9.0625C9.625 9.03125 9.8125 9 10 9C11.5938 9 12.875 10.25 12.9688 11.8438L11.25 10.4688C11.2188 10.4375 11.2188 10.4375 11.2188 10.4375L9.46875 9.0625ZM0.78125 4.125L19.8125 19.125C20 19.2812 20.0625 19.625 19.875 19.8125C19.7188 20.0312 19.4062 20.0938 19.1875 19.9062L0.1875 4.90625C-0.03125 4.75 -0.09375 4.40625 0.09375 4.21875C0.25 4 0.59375 3.9375 0.78125 4.125Z" fill="black" fill-opacity="0.72"/>
</g>
<defs>
<clipPath id="clip0_2556_15066">
<rect width="20" height="24" fill="white"/>
</clipPath>
</defs>
</svg>
