<svg width="24" height="36" viewBox="0 0 24 36" fill="none" xmlns="http://www.w3.org/2000/svg">
<g id="label-paired / xl / puzzle-piece-two-xl / fill" clip-path="url(#clip0_3909_665)">
<path id="icon" d="M12 7.875C12.4688 7.875 12.8438 8.0625 13.125 8.34375C13.3594 8.625 13.5 9 13.5938 9.42188V9.5625L13.5 9.70312C13.125 10.125 13.4062 10.875 14.0156 10.875H15.9844C16.4531 10.875 16.875 11.0156 17.2031 11.25C17.4844 11.4375 17.625 11.7188 17.625 12V19.1719H14.1562L14.25 18.75C14.25 18.7031 14.2969 18.6094 14.25 18.5625C14.2031 17.9531 14.0156 17.3438 13.5938 16.9219C13.2188 16.4531 12.6562 16.1719 11.9531 16.1719C11.2969 16.1719 10.7344 16.4531 10.3125 16.9219C9.9375 17.3438 9.75 17.9531 9.70312 18.5625C9.70312 18.6094 9.70312 18.7031 9.70312 18.75L9.79688 19.1719H6.32812V18C6.32812 17.9062 6.32812 17.5781 6.28125 17.2969C6.28125 17.1562 6.23438 16.9688 6.1875 16.8281C6.14062 16.7344 6.09375 16.5469 5.95312 16.4531C5.8125 16.3594 5.67188 16.3125 5.53125 16.3125C5.4375 16.3594 5.34375 16.3594 5.29688 16.4062C5.25 16.4062 5.20312 16.4531 5.20312 16.4531L5.10938 16.5H5.01562C4.5 16.4531 4.07812 16.2656 3.79688 16.0312C3.51562 15.7969 3.32812 15.4219 3.32812 14.9531C3.32812 14.7188 3.375 14.5312 3.46875 14.3438C3.5625 14.1562 3.65625 14.0156 3.79688 13.9219C4.07812 13.7344 4.5 13.5938 5.01562 13.5469H5.10938L5.20312 13.5938C5.20312 13.5938 5.25 13.5938 5.29688 13.6406C5.34375 13.6406 5.4375 13.6875 5.53125 13.7344C5.67188 13.7344 5.8125 13.6875 5.95312 13.5938C6.09375 13.5 6.14062 13.3125 6.1875 13.1719C6.23438 13.0312 6.28125 12.8906 6.28125 12.75C6.32812 12.4688 6.32812 12.1406 6.32812 12.0469V12C6.32812 11.7188 6.46875 11.4375 6.79688 11.25C7.07812 11.0156 7.5 10.875 7.96875 10.875H9.9375C10.5469 10.875 10.875 10.125 10.5 9.70312L10.3594 9.5625L10.4062 9.42188C10.4531 9 10.6406 8.625 10.875 8.34375C11.1094 8.0625 11.4844 7.875 12 7.875ZM11.9531 16.875C12.4688 16.875 12.8438 17.0625 13.125 17.3438C13.3594 17.625 13.5 18 13.5938 18.4219V18.5625L13.5 18.7031C13.125 19.125 13.4062 19.875 14.0156 19.875H17.625V20.25C17.625 20.3438 17.625 20.5312 17.625 20.8594V21.8906C17.625 22.5 18.3281 22.7812 18.7969 22.4062L18.8906 22.3125L19.0781 22.3594C19.5 22.4062 19.875 22.5469 20.1562 22.7812C20.4375 23.0625 20.625 23.4375 20.625 23.9531C20.625 24.4219 20.4375 24.7969 20.1562 25.0781C19.875 25.3125 19.5 25.4531 19.0781 25.5469H18.8906L18.7969 25.4531C18.3281 25.0781 17.625 25.3594 17.625 25.9688V27.0469C17.625 27.3281 17.4844 27.6094 17.2031 27.7969C16.875 28.0312 16.4531 28.1719 15.9844 28.1719H14.1562L14.25 27.75C14.25 27.7031 14.2969 27.6094 14.25 27.5625C14.2031 26.9531 14.0156 26.3438 13.5938 25.9219C13.2188 25.4531 12.6562 25.1719 11.9531 25.1719C11.2969 25.1719 10.7344 25.4531 10.3125 25.9219C9.9375 26.3438 9.75 26.9531 9.70312 27.5625C9.70312 27.6094 9.70312 27.7031 9.70312 27.75L9.79688 28.1719H7.96875C7.5 28.1719 7.07812 28.0312 6.75 27.7969C6.46875 27.5625 6.32812 27.2812 6.32812 27V21C6.32812 20.6719 6.32812 20.4844 6.32812 20.2969V19.875H9.9375C10.5469 19.875 10.875 19.125 10.5 18.7031L10.3594 18.6094L10.4062 18.4219C10.4531 18 10.5938 17.625 10.8281 17.3438C11.1094 17.0625 11.4844 16.875 11.9531 16.875Z" fill="black" fill-opacity="0.72"/>
</g>
<defs>
<clipPath id="clip0_3909_665">
<rect width="24" height="36" fill="white"/>
</clipPath>
</defs>
</svg>
