<svg width="30" height="36" viewBox="0 0 30 36" fill="none" xmlns="http://www.w3.org/2000/svg">
<g id="label-paired / xl / fiat-onramp-xl / fill" clip-path="url(#clip0_2556_19316)">
<path id="icon" d="M22.7344 11.0156C22.7344 10.7344 22.5 10.5 22.2188 10.5H20.25V11.5312H22.2188C22.5 11.5312 22.7344 11.2969 22.7344 11.0156ZM22.7344 12.9844C22.7344 12.75 22.5 12.5156 22.2188 12.5156H20.25V13.5H22.2188C22.5 13.5 22.7344 13.2656 22.7344 12.9844ZM10.6875 17.8125L14.7656 13.7344C14.625 13.2656 14.5781 12.75 14.5781 12.2344C14.5781 8.8125 17.3438 6 20.7656 6C24.1875 6 27 8.8125 27 12.2344V26.0156C27 28.2188 25.1719 30 22.9688 30H9.1875C5.76562 30 3 27.2344 3 23.8125C3 20.3906 5.76562 17.625 9.1875 17.625C9.70312 17.625 10.2188 17.6719 10.6875 17.8125ZM24.75 17.0156C23.6719 17.9062 22.2656 18.4219 20.7656 18.4219C18.75 18.4219 16.9219 17.4375 15.7969 15.8906L12.8438 18.8438C14.3906 19.9688 15.375 21.7969 15.375 23.8125C15.375 25.3125 14.8594 26.7188 13.9688 27.75H22.9688C23.9531 27.75 24.75 26.9531 24.75 26.0156V17.0156ZM20.25 8.48438H19.2188V9.51562H18.2344V10.5H19.2188V13.5H18.2344V14.5312H19.2188V15.5156H20.25V14.5312H21.2344V15.5156H22.2188V14.5312C23.0156 14.5312 23.7188 13.875 23.7188 13.0312C23.7188 12.6562 23.5781 12.2812 23.2969 12C23.8594 11.3906 23.8125 10.4531 23.2031 9.89062C22.9688 9.65625 22.5938 9.51562 22.2188 9.51562V8.48438H21.2344V9.51562H20.25V8.48438ZM9.60938 20.25H8.34375V20.8125C7.54688 21.0469 7.03125 21.7969 7.03125 22.6406C7.03125 23.7188 7.875 24.6094 8.95312 24.6094C9.375 24.6094 9.70312 24.9375 9.70312 25.3594C9.70312 25.7344 9.375 26.0625 8.95312 26.0625C8.57812 26.0625 8.25 25.7344 8.25 25.3594V25.1719H7.03125V25.3594C7.03125 26.2031 7.54688 26.9531 8.34375 27.1875V27.75H9.60938V27.1875C10.4062 26.9531 10.9219 26.2031 10.9219 25.3594C10.9219 24.2812 10.0312 23.3906 8.95312 23.3906C8.57812 23.3906 8.25 23.0625 8.25 22.6406C8.25 22.2656 8.57812 21.9375 8.95312 21.9375C9.375 21.9375 9.70312 22.2656 9.70312 22.6406V22.8281H10.9219V22.6406C10.9219 21.7969 10.4062 21.0469 9.60938 20.8125V20.25ZM7.26562 11.4844C7.26562 10.875 7.78125 10.3594 8.39062 10.3594H12.7969C13.2656 10.3594 13.6875 10.6406 13.8281 11.0625C14.0156 11.4844 13.9219 11.9531 13.5938 12.2812L9.23438 16.6406C8.8125 17.0625 8.10938 17.0625 7.64062 16.6406C7.21875 16.2188 7.21875 15.4688 7.64062 15.0469L10.0781 12.6094H8.39062C7.78125 12.6094 7.26562 12.1406 7.26562 11.4844Z" fill="black" fill-opacity="0.72"/>
</g>
<defs>
<clipPath id="clip0_2556_19316">
<rect width="30" height="36" fill="white"/>
</clipPath>
</defs>
</svg>
