<svg width="24" height="36" viewBox="0 0 24 36" fill="none" xmlns="http://www.w3.org/2000/svg">
<g id="label-paired / xl / circle-info-xl / bold" clip-path="url(#clip0_2556_19490)">
<path id="icon" d="M12 8.25C8.48438 8.25 5.29688 10.125 3.51562 13.125C1.78125 16.1719 1.78125 19.875 3.51562 22.875C5.29688 25.9219 8.48438 27.75 12 27.75C15.4688 27.75 18.6562 25.9219 20.4375 22.875C22.1719 19.875 22.1719 16.1719 20.4375 13.125C18.6562 10.125 15.4688 8.25 12 8.25ZM12 30C7.6875 30 3.75 27.75 1.59375 24C-0.5625 20.2969 -0.5625 15.75 1.59375 12C3.75 8.29688 7.6875 6 12 6C16.2656 6 20.2031 8.29688 22.3594 12C24.5156 15.75 24.5156 20.2969 22.3594 24C20.2031 27.75 16.2656 30 12 30ZM10.125 21.75H11.25V18.75H10.125C9.46875 18.75 9 18.2812 9 17.625C9 17.0156 9.46875 16.5 10.125 16.5H12.375C12.9844 16.5 13.5 17.0156 13.5 17.625V21.75H13.875C14.4844 21.75 15 22.2656 15 22.875C15 23.5312 14.4844 24 13.875 24H10.125C9.46875 24 9 23.5312 9 22.875C9 22.2656 9.46875 21.75 10.125 21.75ZM12 15C11.1562 15 10.5 14.3438 10.5 13.5C10.5 12.7031 11.1562 12 12 12C12.7969 12 13.5 12.7031 13.5 13.5C13.5 14.3438 12.7969 15 12 15Z" fill="black" fill-opacity="0.72"/>
</g>
<defs>
<clipPath id="clip0_2556_19490">
<rect width="24" height="36" fill="white"/>
</clipPath>
</defs>
</svg>
