<svg width="20" height="30" viewBox="0 0 20 30" fill="none" xmlns="http://www.w3.org/2000/svg">
<g id="label-paired / lg / circle-dot-lg / fill" clip-path="url(#clip0_2556_17436)">
<path id="icon" d="M10 25.5C6.40625 25.5 3.125 23.625 1.32812 20.5C-0.46875 17.4141 -0.46875 13.625 1.32812 10.5C3.125 7.41406 6.40625 5.5 10 5.5C13.5547 5.5 16.8359 7.41406 18.6328 10.5C20.4297 13.625 20.4297 17.4141 18.6328 20.5C16.8359 23.625 13.5547 25.5 10 25.5ZM10 11.75C8.63281 11.75 7.42188 12.4922 6.71875 13.625C6.05469 14.7969 6.05469 16.2422 6.71875 17.375C7.42188 18.5469 8.63281 19.25 10 19.25C11.3281 19.25 12.5391 18.5469 13.2422 17.375C13.9062 16.2422 13.9062 14.7969 13.2422 13.625C12.5391 12.4922 11.3281 11.75 10 11.75Z" fill="black" fill-opacity="0.72"/>
</g>
<defs>
<clipPath id="clip0_2556_17436">
<rect width="20" height="30" fill="white"/>
</clipPath>
</defs>
</svg>
