<svg width="20" height="30" viewBox="0 0 20 30" fill="none" xmlns="http://www.w3.org/2000/svg">
<g id="label-paired / lg / globe-lg / fill" clip-path="url(#clip0_2556_17213)">
<path id="icon" d="M13.75 15.5C13.75 16.3984 13.6719 17.2188 13.5938 18H6.36719C6.28906 17.2188 6.25 16.3984 6.25 15.5C6.25 14.6406 6.28906 13.8203 6.36719 13H13.5938C13.6719 13.8203 13.75 14.6406 13.75 15.5ZM14.8438 13H19.6484C19.8828 13.8203 20 14.6406 20 15.5C20 16.3984 19.8828 17.2188 19.6484 18H14.8438C14.9219 17.2188 15 16.3594 15 15.5C15 14.6406 14.9219 13.8203 14.8438 13ZM19.2578 11.75H14.6875C14.2969 9.28906 13.5156 7.17969 12.5391 5.85156C15.5859 6.67188 18.0859 8.85938 19.2578 11.75ZM13.4375 11.75H6.52344C6.75781 10.3438 7.14844 9.09375 7.57812 8.07812C8.00781 7.14062 8.4375 6.47656 8.90625 6.04688C9.33594 5.65625 9.6875 5.5 10 5.5C10.2734 5.5 10.625 5.65625 11.0547 6.04688C11.5234 6.47656 11.9531 7.14062 12.3828 8.07812C12.8125 9.09375 13.2031 10.3438 13.4375 11.75ZM5.27344 11.75H0.703125C1.875 8.85938 4.375 6.67188 7.42188 5.85156C6.44531 7.17969 5.66406 9.28906 5.27344 11.75ZM0.3125 13H5.11719C5.03906 13.8203 5 14.6406 5 15.5C5 16.3594 5.03906 17.2188 5.11719 18H0.3125C0.078125 17.2188 0 16.3984 0 15.5C0 14.6406 0.078125 13.8203 0.3125 13ZM7.57812 22.9609C7.14844 21.9453 6.75781 20.6953 6.52344 19.25H13.4375C13.2031 20.6953 12.8125 21.9453 12.3828 22.9609C11.9531 23.8984 11.5234 24.5625 11.0547 24.9922C10.625 25.3828 10.2734 25.5 10 25.5C9.6875 25.5 9.33594 25.3828 8.90625 24.9922C8.4375 24.5625 8.00781 23.8984 7.57812 22.9609ZM5.27344 19.25C5.66406 21.75 6.44531 23.8594 7.42188 25.1875C4.375 24.3672 1.875 22.1797 0.703125 19.25H5.27344ZM19.2578 19.25C18.0859 22.1797 15.5859 24.3672 12.5391 25.1875C13.5547 23.8594 14.2969 21.75 14.6875 19.25H19.2578Z" fill="black" fill-opacity="0.72"/>
</g>
<defs>
<clipPath id="clip0_2556_17213">
<rect width="20" height="30" fill="white"/>
</clipPath>
</defs>
</svg>
