<svg width="24" height="36" viewBox="0 0 24 36" fill="none" xmlns="http://www.w3.org/2000/svg">
<g id="label-paired / xl / puzzle-xl / bold" clip-path="url(#clip0_3431_1033)">
<path id="icon" d="M21 6C22.6406 6 24 7.35938 24 9V15C24 15.4219 23.625 15.75 23.25 15.75H20.8125C20.4844 15.75 20.25 16.0312 20.25 16.3125V16.5C20.25 17.3438 19.5469 18 18.75 18C17.9062 18 17.25 17.3438 17.25 16.5V16.3125C17.25 16.0312 16.9688 15.75 16.6875 15.75H15C14.5781 15.75 14.25 15.4219 14.25 15V13.5C14.25 13.125 14.5781 12.75 15 12.75H15.75C16.5469 12.75 17.25 12.0938 17.25 11.25C17.25 10.4531 16.5469 9.75 15.75 9.75H15C14.5781 9.75 14.25 9.42188 14.25 9V6.75C14.25 6.375 14.5781 6 15 6H21ZM0 17.25V12C0 10.3594 1.3125 9 3 9H9.75C10.125 9 10.5 9.375 10.5 9.75V12.1875C10.5 12.5156 10.7344 12.75 11.0625 12.75H11.25C12.0469 12.75 12.75 13.4531 12.75 14.25C12.75 15.0938 12.0469 15.75 11.25 15.75H11.0625C10.7344 15.75 10.5 16.0312 10.5 16.3125V18.75C10.5 19.1719 10.125 19.5 9.75 19.5H8.25C7.82812 19.5 7.5 19.1719 7.5 18.75V18C7.5 17.2031 6.79688 16.5 6 16.5C5.15625 16.5 4.5 17.2031 4.5 18V18.75C4.5 19.1719 4.125 19.5 3.75 19.5H2.25V26.625C2.25 27.2812 2.71875 27.75 3.375 27.75H10.5V26.0625C10.5 25.7812 10.2188 25.5 9.9375 25.5H9.75C8.90625 25.5 8.25 24.8438 8.25 24C8.25 23.2031 8.90625 22.5 9.75 22.5H9.9375C10.2188 22.5 10.5 22.2656 10.5 21.9375V20.25C10.5 19.875 10.8281 19.5 11.25 19.5H13.5C13.875 19.5 14.25 19.875 14.25 20.25V21C14.25 21.8438 14.9062 22.5 15.75 22.5C16.5469 22.5 17.25 21.8438 17.25 21V20.25C17.25 19.875 17.5781 19.5 18 19.5H20.25C20.625 19.5 21 19.875 21 20.25V27C21 28.6875 19.6406 30 18 30H12H11.25H3.375C1.5 30 0 28.5 0 26.625V18.75V17.25Z" fill="black" fill-opacity="0.72"/>
</g>
<defs>
<clipPath id="clip0_3431_1033">
<rect width="24" height="36" fill="white"/>
</clipPath>
</defs>
</svg>
