<svg width="10" height="24" viewBox="0 0 10 24" fill="none" xmlns="http://www.w3.org/2000/svg">
<g id="label-paired / md / sort-up-md / regular" clip-path="url(#clip0_2556_14803)">
<path id="icon" d="M4.8125 6.09375L1.0625 9.625C1 9.6875 1 9.71875 1 9.78125C1 9.90625 1.09375 10 1.21875 10H8.75C8.875 10 9 9.90625 9 9.78125C9 9.71875 8.96875 9.65625 8.90625 9.625L5.15625 6.09375C5.125 6.03125 5.0625 6 5 6C4.90625 6 4.84375 6.03125 4.8125 6.09375ZM4.125 5.34375C4.34375 5.125 4.65625 5 5 5C5.3125 5 5.625 5.125 5.84375 5.34375L9.59375 8.90625C9.84375 9.125 10 9.46875 10 9.78125C10 10.4688 9.4375 11 8.75 11H1.21875C0.53125 11 0 10.4688 0 9.78125C0 9.46875 0.125 9.125 0.375 8.90625L4.125 5.34375Z" fill="black" fill-opacity="0.72"/>
</g>
<defs>
<clipPath id="clip0_2556_14803">
<rect width="10" height="24" fill="white"/>
</clipPath>
</defs>
</svg>
