<svg width="24" height="36" viewBox="0 0 24 36" fill="none" xmlns="http://www.w3.org/2000/svg">
<g id="label-paired / xl / circle-caret-up-xl / fill" clip-path="url(#clip0_2556_19673)">
<path id="icon" d="M12 30C7.6875 30 3.75 27.75 1.59375 24C-0.5625 20.2969 -0.5625 15.75 1.59375 12C3.75 8.29688 7.6875 6 12 6C16.2656 6 20.2031 8.29688 22.3594 12C24.5156 15.75 24.5156 20.2969 22.3594 24C20.2031 27.75 16.2656 30 12 30ZM12 12.75C11.6719 12.75 11.3438 12.8906 11.1562 13.125L6.28125 18.375C5.95312 18.7031 5.90625 19.1719 6.09375 19.5938C6.23438 20.0156 6.65625 20.25 7.125 20.25H16.875C17.2969 20.25 17.7188 20.0156 17.9062 19.5938C18.0469 19.1719 18 18.7031 17.6719 18.375L12.7969 13.125C12.6094 12.8906 12.2812 12.75 12 12.75Z" fill="black" fill-opacity="0.72"/>
</g>
<defs>
<clipPath id="clip0_2556_19673">
<rect width="24" height="36" fill="white"/>
</clipPath>
</defs>
</svg>
