<svg width="12" height="18" viewBox="0 0 12 18" fill="none" xmlns="http://www.w3.org/2000/svg">
<g id="label-paired / caption / fingerprint-caption / regular" clip-path="url(#clip0_2512_1084)">
<path id="icon" d="M0.75 9.5V10.625C0.734375 10.8594 0.609375 10.9844 0.375 11C0.140625 10.9844 0.015625 10.8594 0 10.625V9.5C0.015625 8.375 0.289062 7.36719 0.820312 6.47656C1.35156 5.57031 2.07031 4.85156 2.97656 4.32031C3.86719 3.78906 4.875 3.51563 6 3.5C6.95312 3.51563 7.82812 3.71875 8.625 4.10938C9.42188 4.5 10.1016 5.03906 10.6641 5.72656C10.7891 5.91406 10.7734 6.08594 10.6172 6.24219C10.4141 6.38281 10.2344 6.36719 10.0781 6.19531C9.59375 5.60156 9 5.13281 8.29688 4.78906C7.59375 4.42969 6.82812 4.25 6 4.25C5.01562 4.26562 4.13281 4.50781 3.35156 4.97656C2.55469 5.42969 1.92969 6.05469 1.47656 6.85156C1.00781 7.63281 0.765625 8.51562 0.75 9.5ZM11.7891 7.90625C11.9297 8.40625 12 8.9375 12 9.5V10.625C11.9844 10.8438 11.8594 10.9688 11.625 11C11.3906 10.9688 11.2656 10.8438 11.25 10.625V9.5C11.25 9.01562 11.1875 8.54688 11.0625 8.09375C11.0156 7.875 11.1016 7.72656 11.3203 7.64844C11.5547 7.60156 11.7109 7.6875 11.7891 7.90625ZM6 5.375C7.17188 5.40625 8.14062 5.8125 8.90625 6.59375C9.6875 7.35938 10.0938 8.32812 10.125 9.5V10.0859C10.125 10.7891 10.0781 11.4844 9.98438 12.1719C9.9375 12.375 9.82031 12.4844 9.63281 12.5C9.36719 12.4688 9.24219 12.3203 9.25781 12.0547C9.33594 11.3984 9.375 10.7422 9.375 10.0859V9.5C9.34375 8.54688 9.01562 7.75 8.39062 7.10938C7.75 6.46875 6.95312 6.14062 6 6.125C5.57812 6.125 5.1875 6.19531 4.82812 6.33594C4.64062 6.39844 4.48438 6.35938 4.35938 6.21875C4.20312 5.98438 4.24219 5.79688 4.47656 5.65625C4.96094 5.46875 5.46875 5.375 6 5.375ZM3.39844 6.82812C3.52344 7 3.52344 7.17969 3.39844 7.36719C2.89844 7.96094 2.64062 8.67188 2.625 9.5V10.0859C2.625 10.8203 2.53906 11.5391 2.36719 12.2422C2.30469 12.3984 2.1875 12.4844 2.01562 12.5C1.73438 12.4531 1.60938 12.2891 1.64062 12.0078C1.79688 11.3828 1.875 10.7422 1.875 10.0859V9.5C1.89062 8.45312 2.21875 7.5625 2.85938 6.82812C3.04688 6.65625 3.22656 6.65625 3.39844 6.82812ZM6 7.25C6.64062 7.26562 7.17188 7.48438 7.59375 7.90625C8.01562 8.32812 8.23438 8.85938 8.25 9.5V10.0859C8.25 11.0547 8.14844 12.0156 7.94531 12.9688C7.89844 13.1406 7.78125 13.2344 7.59375 13.25C7.32812 13.2188 7.20312 13.0625 7.21875 12.7812C7.40625 11.8906 7.5 10.9922 7.5 10.0859V9.5C7.48438 9.07812 7.33594 8.72656 7.05469 8.44531C6.77344 8.16406 6.42188 8.01562 6 8C5.57812 8.01562 5.22656 8.16406 4.94531 8.44531C4.66406 8.72656 4.51562 9.07812 4.5 9.5V10.0859C4.5 11.0703 4.36719 12.0391 4.10156 12.9922C4.03906 13.1484 3.92188 13.2344 3.75 13.25C3.60938 13.25 3.50781 13.1953 3.44531 13.0859C3.36719 12.9922 3.34375 12.8828 3.375 12.7578C3.625 11.8828 3.75 10.9922 3.75 10.0859V9.5C3.76562 8.85938 3.98438 8.32812 4.40625 7.90625C4.82812 7.48438 5.35938 7.26562 6 7.25ZM6.375 9.5V10.0859C6.375 11.6172 6.10156 13.1016 5.55469 14.5391L5.41406 14.8906C5.30469 15.0938 5.14062 15.1641 4.92188 15.1016C4.71875 14.9922 4.64844 14.8281 4.71094 14.6094L4.85156 14.2578C5.36719 12.9141 5.625 11.5234 5.625 10.0859V9.5C5.64062 9.26562 5.76562 9.14062 6 9.125C6.23438 9.14062 6.35938 9.26562 6.375 9.5Z" fill="black" fill-opacity="0.72"/>
</g>
<defs>
<clipPath id="clip0_2512_1084">
<rect width="12" height="18" fill="white"/>
</clipPath>
</defs>
</svg>
