<svg width="12" height="18" viewBox="0 0 12 18" fill="none" xmlns="http://www.w3.org/2000/svg">
<g id="label-paired / caption / circle-arrow-down-left-caption / fill" clip-path="url(#clip0_2556_10405)">
<path id="icon" d="M6 15.5C3.84375 15.5 1.875 14.375 0.796875 12.5C-0.28125 10.6484 -0.28125 8.375 0.796875 6.5C1.875 4.64844 3.84375 3.5 6 3.5C8.13281 3.5 10.1016 4.64844 11.1797 6.5C12.2578 8.375 12.2578 10.6484 11.1797 12.5C10.1016 14.375 8.13281 15.5 6 15.5ZM7.5 12.125C7.80469 12.125 8.0625 11.8906 8.0625 11.5625C8.0625 11.2578 7.80469 11 7.5 11H5.27344L8.46094 7.83594C8.67188 7.625 8.67188 7.27344 8.46094 7.0625C8.22656 6.82812 7.875 6.82812 7.66406 7.0625L4.5 10.2266V7.8125C4.5 7.50781 4.24219 7.25 3.9375 7.25C3.60938 7.25 3.375 7.50781 3.375 7.8125V11.5625C3.375 11.8906 3.60938 12.125 3.9375 12.125H7.5Z" fill="black" fill-opacity="0.72"/>
</g>
<defs>
<clipPath id="clip0_2556_10405">
<rect width="12" height="18" fill="white"/>
</clipPath>
</defs>
</svg>
