<svg width="16" height="24" viewBox="0 0 16 24" fill="none" xmlns="http://www.w3.org/2000/svg">
<g id="label-paired / md / bullhorn-md / fill" clip-path="url(#clip0_2556_14953)">
<path id="icon" d="M15 5V9.625C15.5625 9.90625 16 10.6562 16 11.5C16 12.375 15.5625 13.125 15 13.4062V18C15 18.4062 14.75 18.7812 14.375 18.9375C14 19.0938 13.5625 19 13.2812 18.7188L11.9062 17.3438C10.4062 15.8438 8.375 15 6.25 15H6V19C6 19.5625 5.53125 20 5 20H3C2.4375 20 2 19.5625 2 19V15C0.875 15 0 14.125 0 13V10C0 8.90625 0.875 8 2 8H5H6H6.25C8.375 8 10.4062 7.15625 11.9062 5.65625L13.2812 4.3125C13.5625 4.03125 14 3.9375 14.375 4.09375C14.75 4.25 15 4.625 15 5ZM13 7.40625C11.1562 9.09375 8.75 10 6.25 10H6V13H6.25C8.75 13 11.1562 13.9375 13 15.625V11.5V7.40625Z" fill="black" fill-opacity="0.72"/>
</g>
<defs>
<clipPath id="clip0_2556_14953">
<rect width="16" height="24" fill="white"/>
</clipPath>
</defs>
</svg>
