<svg width="14" height="22" viewBox="0 0 14 22" fill="none" xmlns="http://www.w3.org/2000/svg">
<g id="label-paired / sm / circle-envelope-sm / bold" clip-path="url(#clip0_2556_12838)">
<path id="icon" d="M7 5.0625C4.94922 5.0625 3.08984 6.15625 2.05078 7.90625C1.03906 9.68359 1.03906 11.8438 2.05078 13.5938C3.08984 15.3711 4.94922 16.4375 7 16.4375C9.02344 16.4375 10.8828 15.3711 11.9219 13.5938C12.9336 11.8438 12.9336 9.68359 11.9219 7.90625C10.8828 6.15625 9.02344 5.0625 7 5.0625ZM7 17.75C4.48438 17.75 2.1875 16.4375 0.929688 14.25C-0.328125 12.0898 -0.328125 9.4375 0.929688 7.25C2.1875 5.08984 4.48438 3.75 7 3.75C9.48828 3.75 11.7852 5.08984 13.043 7.25C14.3008 9.4375 14.3008 12.0898 13.043 14.25C11.7852 16.4375 9.48828 17.75 7 17.75ZM6.78125 10.75L3.5 8.94531C3.52734 8.48047 3.91016 8.125 4.375 8.125H9.625C10.0625 8.125 10.4453 8.48047 10.4727 8.94531L7.19141 10.75C7.13672 10.7773 7.05469 10.8047 7 10.8047C6.91797 10.8047 6.83594 10.7773 6.78125 10.75ZM7.60156 11.5156L10.5 9.92969V12.5C10.5 12.9922 10.0898 13.375 9.625 13.375H4.375C3.88281 13.375 3.5 12.9922 3.5 12.5V9.92969L6.37109 11.5156C6.5625 11.625 6.78125 11.6797 7 11.6797C7.19141 11.6797 7.41016 11.625 7.60156 11.5156Z" fill="black" fill-opacity="0.72"/>
</g>
<defs>
<clipPath id="clip0_2556_12838">
<rect width="14" height="22" fill="white"/>
</clipPath>
</defs>
</svg>
