<svg width="18" height="24" viewBox="0 0 18 24" fill="none" xmlns="http://www.w3.org/2000/svg">
<g id="label-paired / md / memo-circle-check-md / regular" clip-path="url(#clip0_2556_14556)">
<path id="icon" d="M10 5H2C1.4375 5 1 5.46875 1 6V18C1 18.5625 1.4375 19 2 19H9.25C9.5625 19.375 9.90625 19.7188 10.2812 20C10.1875 20 10.0938 20 10 20H2C0.875 20 0 19.125 0 18V6C0 4.90625 0.875 4 2 4H10C11.0938 4 12 4.90625 12 6V10.2188C11.625 10.3125 11.3125 10.4375 11 10.625V6C11 5.46875 10.5312 5 10 5ZM2 8.5C2 8.25 2.21875 8 2.5 8H9.5C9.75 8 10 8.25 10 8.5C10 8.78125 9.75 9 9.5 9H2.5C2.21875 9 2 8.78125 2 8.5ZM2.5 11H8.5C8.75 11 9 11.25 9 11.5C9 11.7812 8.75 12 8.5 12H2.5C2.21875 12 2 11.7812 2 11.5C2 11.25 2.21875 11 2.5 11ZM2.5 14H6.5C6.75 14 7 14.25 7 14.5C7 14.7812 6.75 15 6.5 15H2.5C2.21875 15 2 14.7812 2 14.5C2 14.25 2.21875 14 2.5 14ZM13.5 19C14.75 19 15.875 18.3438 16.5 17.25C17.1562 16.1875 17.1562 14.8438 16.5 13.75C15.875 12.6875 14.75 12 13.5 12C12.2188 12 11.0938 12.6875 10.4688 13.75C9.8125 14.8438 9.8125 16.1875 10.4688 17.25C11.0938 18.3438 12.2188 19 13.5 19ZM13.5 11C15.0938 11 16.5625 11.875 17.375 13.25C18.1875 14.6562 18.1875 16.375 17.375 17.75C16.5625 19.1562 15.0938 20 13.5 20C11.875 20 10.4062 19.1562 9.59375 17.75C8.78125 16.375 8.78125 14.6562 9.59375 13.25C10.4062 11.875 11.875 11 13.5 11ZM14.875 14.1562C15.0625 13.9688 15.4062 13.9688 15.5938 14.1562C15.7812 14.3438 15.7812 14.6875 15.5938 14.875L13.3438 17.125C13.1562 17.3125 12.8125 17.3125 12.625 17.125L11.375 15.875C11.1875 15.6875 11.1875 15.3438 11.375 15.1562C11.5625 14.9688 11.9062 14.9688 12.0938 15.1562L13 16.0625L14.875 14.1562Z" fill="black" fill-opacity="0.72"/>
</g>
<defs>
<clipPath id="clip0_2556_14556">
<rect width="18" height="24" fill="white"/>
</clipPath>
</defs>
</svg>
