<svg width="16" height="24" viewBox="0 0 16 24" fill="none" xmlns="http://www.w3.org/2000/svg">
<g id="label-paired / md / puzzle-piece-two-md / regular" clip-path="url(#clip0_3909_647)">
<path id="icon" d="M13.8125 14.75C14.1562 15.0312 14.3438 15.4688 14.3438 15.9688C14.3438 16.4688 14.1562 16.875 13.8125 17.1562C13.5 17.4375 13.0625 17.5938 12.625 17.625C12.5312 17.6562 12.4375 17.625 12.3438 17.5938V18.0312C12.3438 18.4375 12.125 18.7812 11.8125 19.0312C11.5 19.25 11.0938 19.4062 10.6562 19.4062C10.625 19.4062 10.5938 19.4062 10.5938 19.375H9.34375C8.78125 19.375 8.53125 18.7188 8.90625 18.3438C8.875 18.0625 8.75 17.8125 8.625 17.6562C8.46875 17.5 8.25 17.375 7.96875 17.375C7.6875 17.375 7.46875 17.5 7.34375 17.6562C7.1875 17.8125 7.09375 18.0625 7.0625 18.3438C7.4375 18.7188 7.1875 19.375 6.625 19.375H5.375C5.34375 19.4062 5.3125 19.4062 5.3125 19.4062C4.875 19.4062 4.4375 19.25 4.15625 19.0312C3.84375 18.7812 3.625 18.4375 3.625 18V14C3.625 13.8125 3.59375 13.6875 3.59375 13.5625C3.59375 13.4062 3.59375 13.2812 3.625 13V12C3.625 11.9375 3.625 11.75 3.59375 11.5938V11.5625C3.53125 11.5938 3.4375 11.5938 3.34375 11.5938C2.90625 11.5625 2.46875 11.4062 2.15625 11.1562C1.8125 10.875 1.59375 10.4688 1.59375 9.96875C1.59375 9.46875 1.8125 9.0625 2.15625 8.8125C2.5 8.5625 2.90625 8.46875 3.34375 8.4375C3.4375 8.4375 3.53125 8.4375 3.59375 8.46875V8.4375C3.59375 8.28125 3.59375 8.09375 3.59375 8C3.59375 7.59375 3.84375 7.25 4.15625 7C4.46875 6.78125 4.875 6.625 5.3125 6.625H6.34375C6.3125 6.5625 6.3125 6.46875 6.3125 6.375C6.34375 5.90625 6.5 5.5 6.78125 5.15625C7.0625 4.84375 7.5 4.625 8 4.625C8.5 4.625 8.90625 4.84375 9.1875 5.15625C9.46875 5.5 9.625 5.90625 9.65625 6.375C9.6875 6.46875 9.65625 6.5625 9.625 6.625H10.6562C11.0938 6.625 11.5312 6.78125 11.8438 7C12.1562 7.25 12.375 7.59375 12.375 8V13.0312C12.375 13.2188 12.375 13.3125 12.375 13.4062C12.3438 13.5 12.3438 13.5938 12.3438 13.9062V14.3125C12.4375 14.2812 12.5312 14.2812 12.625 14.2812C13.0625 14.3125 13.5 14.4688 13.8438 14.75H13.8125ZM5.25 18.625C5.28125 18.625 5.28125 18.625 5.3125 18.625H6.34375C6.3125 18.5625 6.3125 18.4688 6.3125 18.375C6.34375 17.9062 6.5 17.5 6.78125 17.1562C7.0625 16.8438 7.46875 16.625 7.96875 16.625C8.46875 16.625 8.90625 16.8438 9.1875 17.1562C9.46875 17.5 9.625 17.9062 9.65625 18.375C9.65625 18.4688 9.65625 18.5625 9.625 18.625H10.6562H10.6875C10.9688 18.625 11.2188 18.5312 11.375 18.4375C11.5312 18.2812 11.625 18.1562 11.625 18.0312V17.3125C11.625 16.75 12.2812 16.5 12.6562 16.875C12.9375 16.8438 13.1875 16.75 13.3438 16.5938C13.5 16.4688 13.625 16.25 13.625 15.9688C13.625 15.6562 13.5 15.4688 13.3438 15.3125C13.1875 15.1875 12.9375 15.0625 12.6562 15.0312C12.2812 15.4062 11.625 15.1562 11.625 14.5938V13.9062C11.625 13.5938 11.625 13.5 11.625 13.375H9.34375C8.8125 13.375 8.53125 12.7188 8.90625 12.3438C8.875 12.0625 8.78125 11.8125 8.625 11.6562C8.46875 11.5 8.28125 11.375 8 11.375C7.6875 11.375 7.5 11.5 7.34375 11.6562C7.21875 11.8125 7.09375 12.0625 7.0625 12.3438C7.4375 12.7188 7.1875 13.375 6.625 13.375H4.375C4.375 13.4375 4.375 13.5 4.375 13.5312C4.375 13.6562 4.375 13.7812 4.375 14V18C4.375 18.125 4.4375 18.2812 4.59375 18.4062C4.75 18.5312 5 18.625 5.25 18.625ZM4.375 12.625H6.34375C6.3125 12.5625 6.3125 12.4688 6.3125 12.375C6.34375 11.9062 6.5 11.5 6.78125 11.1562C7.0625 10.8438 7.46875 10.625 7.96875 10.625C8.46875 10.625 8.90625 10.8438 9.1875 11.1562C9.46875 11.5 9.625 11.9062 9.65625 12.375C9.65625 12.4688 9.65625 12.5625 9.625 12.625H11.625V8C11.625 7.875 11.5625 7.75 11.375 7.59375C11.2188 7.46875 10.9688 7.375 10.6562 7.375H9.34375C8.78125 7.375 8.53125 6.71875 8.90625 6.34375C8.875 6.0625 8.78125 5.8125 8.625 5.65625C8.5 5.5 8.28125 5.375 8 5.375C7.71875 5.375 7.5 5.5 7.34375 5.65625C7.21875 5.8125 7.09375 6.0625 7.0625 6.34375C7.4375 6.71875 7.1875 7.375 6.625 7.375H5.3125C5.03125 7.375 4.78125 7.46875 4.59375 7.59375C4.4375 7.75 4.375 7.875 4.375 8V8.03125C4.375 8.09375 4.375 8.3125 4.34375 8.5C4.3125 8.625 4.3125 8.71875 4.28125 8.84375C4.25 8.9375 4.1875 9.09375 4.03125 9.1875C3.90625 9.28125 3.78125 9.3125 3.6875 9.28125C3.5625 9.28125 3.5 9.25 3.4375 9.21875C3.4375 9.21875 3.40625 9.21875 3.40625 9.1875C3.375 9.1875 3.375 9.1875 3.375 9.1875C3.03125 9.21875 2.78125 9.3125 2.59375 9.40625C2.46875 9.53125 2.375 9.6875 2.375 9.96875C2.375 10.25 2.46875 10.4375 2.625 10.5625C2.78125 10.7188 3.03125 10.8125 3.375 10.8438C3.375 10.8438 3.375 10.8438 3.40625 10.8438C3.40625 10.8125 3.4375 10.8125 3.4375 10.8125C3.5 10.7812 3.5625 10.75 3.6875 10.75C3.78125 10.7188 3.90625 10.75 4.03125 10.8438C4.1875 10.9375 4.25 11.0938 4.28125 11.1875C4.3125 11.2812 4.3125 11.4062 4.34375 11.5312C4.375 11.7188 4.375 11.9375 4.375 12V12.6562V12.625Z" fill="black" fill-opacity="0.72"/>
</g>
<defs>
<clipPath id="clip0_3909_647">
<rect width="16" height="24" fill="white"/>
</clipPath>
</defs>
</svg>
