<svg width="15" height="30" viewBox="0 0 15 30" fill="none" xmlns="http://www.w3.org/2000/svg">
<g id="label-paired / lg / mobile-notch-lg / fill" clip-path="url(#clip0_2556_17100)">
<path id="icon" d="M5 8H3.75C3.39844 8 3.125 8.3125 3.125 8.625V22.375C3.125 22.7266 3.39844 23 3.75 23H11.25C11.5625 23 11.875 22.7266 11.875 22.375V8.625C11.875 8.3125 11.5625 8 11.25 8H10V8.625C10 8.97656 9.6875 9.25 9.375 9.25H5.625C5.27344 9.25 5 8.97656 5 8.625V8ZM3.75 5.5H11.25C12.9688 5.5 14.375 6.90625 14.375 8.625V22.375C14.375 24.1328 12.9688 25.5 11.25 25.5H3.75C1.99219 25.5 0.625 24.1328 0.625 22.375V8.625C0.625 6.90625 1.99219 5.5 3.75 5.5ZM5 21.125C5 20.8125 5.27344 20.5 5.625 20.5H9.375C9.6875 20.5 10 20.8125 10 21.125C10 21.4766 9.6875 21.75 9.375 21.75H5.625C5.27344 21.75 5 21.4766 5 21.125Z" fill="black" fill-opacity="0.72"/>
</g>
<defs>
<clipPath id="clip0_2556_17100">
<rect width="15" height="30" fill="white"/>
</clipPath>
</defs>
</svg>
