<svg width="24" height="36" viewBox="0 0 24 36" fill="none" xmlns="http://www.w3.org/2000/svg">
<g id="label-paired / xl / filter-xl / regular" clip-path="url(#clip0_3758_449)">
<path id="icon" d="M0 9.375C0 8.34375 0.796875 7.5 1.82812 7.5H22.125C23.1562 7.5 24 8.34375 24 9.375C24 9.79688 23.8125 10.2188 23.5312 10.5469L15 20.9062V26.9531C15 27.7969 14.25 28.5469 13.4062 28.5469C13.0312 28.5469 12.7031 28.4062 12.4219 28.1719L9.5625 25.9688C9.1875 25.6875 8.95312 25.2656 8.95312 24.7969V20.9062L0.421875 10.5469C0.140625 10.2188 0 9.79688 0 9.375ZM1.82812 9C1.64062 9 1.5 9.1875 1.5 9.375C1.5 9.46875 1.5 9.51562 1.54688 9.60938L10.3125 20.1562C10.4062 20.2969 10.5 20.4844 10.5 20.625V24.7969L13.3594 27C13.3594 27 13.3594 27 13.4062 27C13.4531 27 13.5 27 13.5 26.9531V20.625C13.5 20.4844 13.5469 20.2969 13.6406 20.1562L22.4062 9.60938C22.4531 9.51562 22.5 9.46875 22.5 9.375C22.5 9.1875 22.3125 9 22.125 9H1.82812Z" fill="black" fill-opacity="0.72"/>
</g>
<defs>
<clipPath id="clip0_3758_449">
<rect width="24" height="36" fill="white"/>
</clipPath>
</defs>
</svg>
