<svg width="24" height="36" viewBox="0 0 24 36" fill="none" xmlns="http://www.w3.org/2000/svg">
<g id="label-paired / xl / arrow-up-from-square-xl / bold" clip-path="url(#clip0_2556_19930)">
<path id="icon" d="M12.7969 6.32812L18 11.5781C18.4688 12.0469 18.4688 12.75 18 13.1719C17.5781 13.6406 16.875 13.6406 16.4062 13.1719L13.0781 9.84375V21.375C13.0781 22.0312 12.6094 22.5 11.9531 22.5C11.3438 22.5 10.8281 22.0312 10.8281 21.375V9.84375L7.5 13.1719C7.07812 13.6406 6.375 13.6406 5.95312 13.1719C5.48438 12.75 5.48438 12.0469 5.95312 11.5781L11.2031 6.32812C11.625 5.90625 12.3281 5.90625 12.7969 6.32812ZM3.375 7.5H3.75C4.35938 7.5 4.875 8.01562 4.875 8.625C4.875 9.28125 4.35938 9.75 3.75 9.75H3.375C2.71875 9.75 2.25 10.2656 2.25 10.875V26.625C2.25 27.2812 2.71875 27.75 3.375 27.75H20.625C21.2344 27.75 21.75 27.2812 21.75 26.625V10.875C21.75 10.2656 21.2344 9.75 20.625 9.75H20.25C19.5938 9.75 19.125 9.28125 19.125 8.625C19.125 8.01562 19.5938 7.5 20.25 7.5H20.625C22.4531 7.5 24 9.04688 24 10.875V26.625C24 28.5 22.4531 30 20.625 30H3.375C1.5 30 0 28.5 0 26.625V10.875C0 9.04688 1.5 7.5 3.375 7.5Z" fill="black" fill-opacity="0.72"/>
</g>
<defs>
<clipPath id="clip0_2556_19930">
<rect width="24" height="36" fill="white"/>
</clipPath>
</defs>
</svg>
