<svg width="20" height="24" viewBox="0 0 20 24" fill="none" xmlns="http://www.w3.org/2000/svg">
<g id="label-paired / md / box-archive-circle-arrow-down-md / fill" clip-path="url(#clip0_2556_15084)">
<path id="icon" d="M0 6C0 5.46875 0.4375 5 1 5H15C15.5312 5 16 5.46875 16 6V7C16 7.5625 15.5312 8 15 8H1C0.4375 8 0 7.5625 0 7V6ZM1 9H15V10.0312C12.1875 10.2812 10 12.6562 10 15.5C10 16.8438 10.4688 18.0625 11.25 19H3C1.875 19 1 18.125 1 17V9ZM5 11.5C5 11.7812 5.21875 12 5.5 12H10.5C10.75 12 11 11.7812 11 11.5C11 11.25 10.75 11 10.5 11H5.5C5.21875 11 5 11.25 5 11.5ZM11 15.5C11 13.9062 11.8438 12.4062 13.25 11.625C14.625 10.8125 16.3438 10.8125 17.75 11.625C19.125 12.4062 20 13.9062 20 15.5C20 17.125 19.125 18.5938 17.75 19.4062C16.3438 20.2188 14.625 20.2188 13.25 19.4062C11.8438 18.5938 11 17.125 11 15.5ZM13.375 15.4062C13.1875 15.5938 13.1875 15.9375 13.375 16.125L15.125 17.875C15.3125 18.0625 15.6562 18.0625 15.8438 17.875L17.5938 16.125C17.7812 15.9375 17.7812 15.5938 17.5938 15.4062C17.4062 15.2188 17.0625 15.2188 16.875 15.4062L16 16.3125V13.5C16 13.25 15.75 13 15.5 13C15.2188 13 15 13.25 15 13.5V16.3125L14.0938 15.4062C13.9062 15.2188 13.5625 15.2188 13.375 15.4062Z" fill="black" fill-opacity="0.72"/>
</g>
<defs>
<clipPath id="clip0_2556_15084">
<rect width="20" height="24" fill="white"/>
</clipPath>
</defs>
</svg>
