<svg width="14" height="22" viewBox="0 0 14 22" fill="none" xmlns="http://www.w3.org/2000/svg">
<g id="label-paired / sm / chart-line-up-down-sm / regular" clip-path="url(#clip0_2556_12403)">
<path id="icon" d="M0.875 5.0625V14.6875C0.875 15.4258 1.44922 16 2.1875 16H13.5625C13.7812 16 14 16.2188 14 16.4375C14 16.6836 13.7812 16.875 13.5625 16.875H2.1875C0.957031 16.875 0 15.918 0 14.6875V5.0625C0 4.84375 0.191406 4.625 0.4375 4.625C0.65625 4.625 0.875 4.84375 0.875 5.0625ZM10.0625 6.375C9.81641 6.375 9.625 6.18359 9.625 5.9375C9.625 5.71875 9.81641 5.5 10.0625 5.5H12.6875C12.9062 5.5 13.125 5.71875 13.125 5.9375V8.5625C13.125 8.80859 12.9062 9 12.6875 9C12.4414 9 12.25 8.80859 12.25 8.5625V7.00391L8.17578 11.0781C8.01172 11.2422 7.71094 11.2422 7.54688 11.0781L5.6875 9.19141L3.36328 11.5156C3.19922 11.6797 2.89844 11.6797 2.73438 11.5156C2.57031 11.3516 2.57031 11.0508 2.73438 10.8867L5.35938 8.26172C5.44141 8.17969 5.55078 8.125 5.6875 8.125C5.79688 8.125 5.90625 8.17969 5.98828 8.26172L7.875 10.1484L11.6211 6.375H10.0625ZM10.0625 14.25C9.81641 14.25 9.625 14.0586 9.625 13.8125C9.625 13.5938 9.81641 13.375 10.0625 13.375H11.6211L9.73438 11.5156L10.3633 10.8867L12.25 12.7734V11.1875C12.25 10.9688 12.4414 10.75 12.6875 10.75C12.9062 10.75 13.125 10.9688 13.125 11.1875V13.8125C13.125 14.0586 12.9062 14.25 12.6875 14.25H10.0625Z" fill="black" fill-opacity="0.72"/>
</g>
<defs>
<clipPath id="clip0_2556_12403">
<rect width="14" height="22" fill="white"/>
</clipPath>
</defs>
</svg>
