<svg width="14" height="22" viewBox="0 0 14 22" fill="none" xmlns="http://www.w3.org/2000/svg">
<g id="label-paired / sm / chevrons-up-sm / bold" clip-path="url(#clip0_2556_12661)">
<path id="icon" d="M7.46484 5.03516L12.6875 10.3125C12.9609 10.5586 12.9609 10.9688 12.6875 11.2148C12.4414 11.4883 12.0312 11.4883 11.7852 11.2148L6.97266 6.42969L2.1875 11.2148C1.94141 11.4883 1.53125 11.4883 1.28516 11.2148C1.01172 10.9688 1.01172 10.5586 1.28516 10.2852L6.53516 5.03516C6.78125 4.78906 7.19141 4.78906 7.46484 5.03516ZM12.7148 15.5352L12.6875 15.5625C12.9609 15.8086 12.9609 16.2188 12.6875 16.4648C12.4414 16.7383 12.0312 16.7383 11.7852 16.4648L6.97266 11.6797L2.1875 16.4648C1.94141 16.7383 1.53125 16.7383 1.28516 16.4648C1.01172 16.2188 1.01172 15.8086 1.28516 15.5352L6.53516 10.2852C6.78125 10.0391 7.19141 10.0391 7.46484 10.2852L12.7148 15.5352Z" fill="black" fill-opacity="0.72"/>
</g>
<defs>
<clipPath id="clip0_2556_12661">
<rect width="14" height="22" fill="white"/>
</clipPath>
</defs>
</svg>
