<svg width="25" height="30" viewBox="0 0 25 30" fill="none" xmlns="http://www.w3.org/2000/svg">
<g id="label-paired / lg / book-circle-question-lg / fill" clip-path="url(#clip0_2981_958)">
<path id="icon" d="M0 9.25C0 7.17969 1.67969 5.5 3.75 5.5H15H16.25C16.9141 5.5 17.5 6.08594 17.5 6.75V13.2734C14.6094 14.0938 12.5 16.75 12.5 19.875C12.5 20.1094 12.5 20.3047 12.5 20.5H3.75C3.04688 20.5 2.5 21.0859 2.5 21.75C2.5 22.4531 3.04688 23 3.75 23H13.2422C13.75 24.0156 14.4922 24.875 15.3906 25.5H15H3.75C1.67969 25.5 0 23.8203 0 21.75V9.25ZM5 11.125C5 11.4766 5.27344 11.75 5.625 11.75H13.125C13.4375 11.75 13.75 11.4766 13.75 11.125C13.75 10.8125 13.4375 10.5 13.125 10.5H5.625C5.27344 10.5 5 10.8125 5 11.125ZM5 13.625C5 13.9766 5.27344 14.25 5.625 14.25H13.125C13.4375 14.25 13.75 13.9766 13.75 13.625C13.75 13.3125 13.4375 13 13.125 13H5.625C5.27344 13 5 13.3125 5 13.625ZM13.75 19.875C13.75 16.7891 16.25 14.25 19.375 14.25C22.4609 14.25 25 16.7891 25 19.875C25 23 22.4609 25.5 19.375 25.5C16.25 25.5 13.75 23 13.75 19.875ZM16.875 18.0781V18.3125C16.875 18.6641 17.1484 18.9375 17.5 18.9375C17.8125 18.9375 18.125 18.6641 18.125 18.3125V18.0781C18.125 17.8828 18.2812 17.6875 18.4766 17.6875H20.0781C20.3516 17.6875 20.625 17.9609 20.625 18.2344C20.625 18.4688 20.5078 18.625 20.3125 18.7422L19.0625 19.3672C18.8672 19.4844 18.75 19.7188 18.75 19.9531V20.5C18.75 20.8516 19.0234 21.125 19.375 21.125C19.6875 21.125 20 20.8516 20 20.5V20.3047L20.8984 19.8359C21.4844 19.5234 21.875 18.8984 21.875 18.2344C21.875 17.2578 21.0547 16.4766 20.0781 16.4766H18.4766C17.5781 16.4766 16.875 17.1797 16.875 18.0781ZM18.4375 22.6875C18.4375 23.2344 18.8281 23.625 19.375 23.625C19.8828 23.625 20.3125 23.2344 20.3125 22.6875C20.3125 22.1797 19.8828 21.75 19.375 21.75C18.8281 21.75 18.4375 22.1797 18.4375 22.6875Z" fill="black" fill-opacity="0.72"/>
</g>
<defs>
<clipPath id="clip0_2981_958">
<rect width="25" height="30" fill="white"/>
</clipPath>
</defs>
</svg>
