<svg width="16" height="24" viewBox="0 0 16 24" fill="none" xmlns="http://www.w3.org/2000/svg">
<g id="label-paired / md / face-viewfinder-md / fill" clip-path="url(#clip0_2556_15053)">
<path id="icon" d="M1.75 4H4.25C4.65625 4 5 4.34375 5 4.75C5 5.1875 4.65625 5.5 4.25 5.5H1.75C1.59375 5.5 1.5 5.625 1.5 5.75V8.25C1.5 8.6875 1.15625 9 0.75 9C0.3125 9 0 8.6875 0 8.25V5.75C0 4.8125 0.78125 4 1.75 4ZM11.75 4H14.25C15.1875 4 16 4.8125 16 5.75V8.25C16 8.6875 15.6562 9 15.25 9C14.8125 9 14.5 8.6875 14.5 8.25V5.75C14.5 5.625 14.375 5.5 14.25 5.5H11.75C11.3125 5.5 11 5.1875 11 4.75C11 4.34375 11.3125 4 11.75 4ZM1.5 15.75V18.25C1.5 18.4062 1.59375 18.5 1.75 18.5H4.25C4.65625 18.5 5 18.8438 5 19.25C5 19.6875 4.65625 20 4.25 20H1.75C0.78125 20 0 19.2188 0 18.25V15.75C0 15.3438 0.3125 15 0.75 15C1.15625 15 1.5 15.3438 1.5 15.75ZM16 15.75V18.25C16 19.2188 15.1875 20 14.25 20H11.75C11.3125 20 11 19.6875 11 19.25C11 18.8438 11.3125 18.5 11.75 18.5H14.25C14.375 18.5 14.5 18.4062 14.5 18.25V15.75C14.5 15.3438 14.8125 15 15.25 15C15.6562 15 16 15.3438 16 15.75ZM3 12C3 10.2188 3.9375 8.59375 5.5 7.6875C7.03125 6.78125 8.9375 6.78125 10.5 7.6875C12.0312 8.59375 13 10.2188 13 12C13 13.8125 12.0312 15.4375 10.5 16.3438C8.9375 17.25 7.03125 17.25 5.5 16.3438C3.9375 15.4375 3 13.8125 3 12ZM7 10.75C7 10.3438 6.65625 10 6.25 10C5.8125 10 5.5 10.3438 5.5 10.75C5.5 11.1875 5.8125 11.5 6.25 11.5C6.65625 11.5 7 11.1875 7 10.75ZM9.75 11.5C10.1562 11.5 10.5 11.1875 10.5 10.75C10.5 10.3438 10.1562 10 9.75 10C9.3125 10 9 10.3438 9 10.75C9 11.1875 9.3125 11.5 9.75 11.5ZM5.28125 13.1562C5.09375 13.3438 5.09375 13.6562 5.28125 13.875C5.96875 14.5625 6.9375 15 8 15C9.0625 15 10 14.5625 10.6875 13.875C10.875 13.6562 10.875 13.3438 10.6875 13.1562C10.4688 12.9688 10.1562 12.9688 9.96875 13.1562C9.46875 13.6875 8.78125 14 8 14C7.21875 14 6.5 13.6875 6 13.1562C5.8125 12.9688 5.5 12.9688 5.28125 13.1562Z" fill="black" fill-opacity="0.72"/>
</g>
<defs>
<clipPath id="clip0_2556_15053">
<rect width="16" height="24" fill="white"/>
</clipPath>
</defs>
</svg>
