<svg width="24" height="36" viewBox="0 0 24 36" fill="none" xmlns="http://www.w3.org/2000/svg">
<g id="label-paired / xl / sliders-xl / bold" clip-path="url(#clip0_3758_528)">
<path id="icon" d="M0 25.5C0 24.8906 0.46875 24.375 1.125 24.375H3.89062C4.35938 22.875 5.8125 21.75 7.5 21.75C9.14062 21.75 10.5938 22.875 11.0625 24.375H22.875C23.4844 24.375 24 24.8906 24 25.5C24 26.1562 23.4844 26.625 22.875 26.625H11.0625C10.5938 28.1719 9.14062 29.25 7.5 29.25C5.8125 29.25 4.35938 28.1719 3.89062 26.625H1.125C0.46875 26.625 0 26.1562 0 25.5ZM6 25.5C6 26.3438 6.65625 27 7.5 27C8.29688 27 9 26.3438 9 25.5C9 24.7031 8.29688 24 7.5 24C6.65625 24 6 24.7031 6 25.5ZM15 18C15 18.8438 15.6562 19.5 16.5 19.5C17.2969 19.5 18 18.8438 18 18C18 17.2031 17.2969 16.5 16.5 16.5C15.6562 16.5 15 17.2031 15 18ZM16.5 14.25C18.1406 14.25 19.5938 15.375 20.0625 16.875H22.875C23.4844 16.875 24 17.3906 24 18C24 18.6562 23.4844 19.125 22.875 19.125H20.0625C19.5938 20.6719 18.1406 21.75 16.5 21.75C14.8125 21.75 13.3594 20.6719 12.8906 19.125H1.125C0.46875 19.125 0 18.6562 0 18C0 17.3906 0.46875 16.875 1.125 16.875H12.8906C13.3594 15.375 14.8125 14.25 16.5 14.25ZM9 12C9.79688 12 10.5 11.3438 10.5 10.5C10.5 9.70312 9.79688 9 9 9C8.15625 9 7.5 9.70312 7.5 10.5C7.5 11.3438 8.15625 12 9 12ZM12.5625 9.375H22.875C23.4844 9.375 24 9.89062 24 10.5C24 11.1562 23.4844 11.625 22.875 11.625H12.5625C12.0938 13.1719 10.6406 14.25 9 14.25C7.3125 14.25 5.85938 13.1719 5.39062 11.625H1.125C0.46875 11.625 0 11.1562 0 10.5C0 9.89062 0.46875 9.375 1.125 9.375H5.39062C5.85938 7.875 7.3125 6.75 9 6.75C10.6406 6.75 12.0938 7.875 12.5625 9.375Z" fill="black" fill-opacity="0.72"/>
</g>
<defs>
<clipPath id="clip0_3758_528">
<rect width="24" height="36" fill="white"/>
</clipPath>
</defs>
</svg>
