<svg width="11" height="22" viewBox="0 0 11 22" fill="none" xmlns="http://www.w3.org/2000/svg">
<g id="label-paired / sm / file-excel-sm / regular" clip-path="url(#clip0_2365_825)">
<path id="icon" d="M9 16.875C9.25521 16.875 9.46484 16.793 9.62891 16.6289C9.79297 16.4648 9.875 16.2552 9.875 16V9H6.8125C6.44792 8.98177 6.13802 8.85417 5.88281 8.61719C5.64583 8.36198 5.51823 8.05208 5.5 7.6875V4.625H2C1.74479 4.625 1.53516 4.70703 1.37109 4.87109C1.20703 5.03516 1.125 5.24479 1.125 5.5V16C1.125 16.2552 1.20703 16.4648 1.37109 16.6289C1.53516 16.793 1.74479 16.875 2 16.875H9ZM6.8125 8.125H9.875C9.83854 8.05208 9.79297 7.98828 9.73828 7.93359L6.56641 4.76172C6.51172 4.70703 6.44792 4.67057 6.375 4.65234V7.6875C6.39323 7.96094 6.53906 8.10677 6.8125 8.125ZM2 3.75H6.26562C6.63021 3.75 6.9401 3.8776 7.19531 4.13281L10.3672 7.30469C10.6224 7.5599 10.75 7.86979 10.75 8.23438V16C10.7318 16.4922 10.5586 16.9023 10.2305 17.2305C9.90234 17.5586 9.49219 17.7318 9 17.75H2C1.50781 17.7318 1.09766 17.5586 0.769531 17.2305C0.441406 16.9023 0.268229 16.4922 0.25 16V5.5C0.268229 5.00781 0.441406 4.59766 0.769531 4.26953C1.09766 3.94141 1.50781 3.76823 2 3.75ZM4.32422 10.5039L5.5 12.1719L6.67578 10.5039C6.83984 10.3034 7.04036 10.2669 7.27734 10.3945C7.47786 10.5586 7.51432 10.7591 7.38672 10.9961L6.04688 12.9375L7.38672 14.8789C7.51432 15.1159 7.47786 15.3164 7.27734 15.4805C7.04036 15.6081 6.83984 15.5716 6.67578 15.3711L5.5 13.7031L4.32422 15.3711C4.16016 15.5716 3.95964 15.6081 3.72266 15.4805C3.52214 15.3164 3.48568 15.1159 3.61328 14.8789L4.98047 12.9375L3.61328 10.9961C3.48568 10.7591 3.52214 10.5586 3.72266 10.3945C3.95964 10.2669 4.16016 10.3034 4.32422 10.5039Z" fill="black" fill-opacity="0.72"/>
</g>
<defs>
<clipPath id="clip0_2365_825">
<rect width="11" height="22" fill="white"/>
</clipPath>
</defs>
</svg>
