<svg width="27" height="36" viewBox="0 0 27 36" fill="none" xmlns="http://www.w3.org/2000/svg">
<g id="label-paired / xl / credit-card-xl / fill" clip-path="url(#clip0_2556_19273)">
<path id="icon" d="M3 7.5H24C25.6406 7.5 27 8.85938 27 10.5V12H0V10.5C0 8.85938 1.3125 7.5 3 7.5ZM27 16.5V25.5C27 27.1875 25.6406 28.5 24 28.5H3C1.3125 28.5 0 27.1875 0 25.5V16.5H27ZM5.25 22.5C4.82812 22.5 4.5 22.875 4.5 23.25C4.5 23.6719 4.82812 24 5.25 24H8.25C8.625 24 9 23.6719 9 23.25C9 22.875 8.625 22.5 8.25 22.5H5.25ZM10.5 23.25C10.5 23.6719 10.8281 24 11.25 24H17.25C17.625 24 18 23.6719 18 23.25C18 22.875 17.625 22.5 17.25 22.5H11.25C10.8281 22.5 10.5 22.875 10.5 23.25Z" fill="black" fill-opacity="0.72"/>
</g>
<defs>
<clipPath id="clip0_2556_19273">
<rect width="27" height="36" fill="white"/>
</clipPath>
</defs>
</svg>
