<svg width="12" height="24" viewBox="0 0 12 24" fill="none" xmlns="http://www.w3.org/2000/svg">
<g id="label-paired / md / file-excel-md / fill" clip-path="url(#clip0_2556_14563)">
<path id="icon" d="M2 4H7V8C7 8.5625 7.4375 9 8 9H12V18C12 19.125 11.0938 20 10 20H2C0.875 20 0 19.125 0 18V6C0 4.90625 0.875 4 2 4ZM8 4L12 8H8V4ZM4.84375 11.8438C4.625 11.5 4.15625 11.4062 3.8125 11.6562C3.46875 11.875 3.375 12.3438 3.625 12.6875L5.0625 14.75L3.625 16.8438C3.375 17.1562 3.46875 17.625 3.8125 17.875C4.15625 18.125 4.625 18.0312 4.84375 17.6875L6 16.0625L7.125 17.6875C7.375 18.0312 7.8125 18.125 8.15625 17.875C8.5 17.625 8.59375 17.1875 8.34375 16.8438L6.90625 14.75L8.34375 12.6875C8.59375 12.3438 8.5 11.875 8.15625 11.6562C7.8125 11.4062 7.34375 11.5 7.125 11.8438L6 13.4688L4.84375 11.8438Z" fill="black" fill-opacity="0.72"/>
</g>
<defs>
<clipPath id="clip0_2556_14563">
<rect width="12" height="24" fill="white"/>
</clipPath>
</defs>
</svg>
