<svg width="18" height="30" viewBox="0 0 18 30" fill="none" xmlns="http://www.w3.org/2000/svg">
<g id="label-paired / lg / trash-lg / bold" clip-path="url(#clip0_2556_17561)">
<path id="icon" d="M7.16406 7.375C7.04688 7.375 6.96875 7.45312 6.89062 7.53125L6.14844 8.625H11.8125L11.0703 7.53125C11.0312 7.45312 10.9141 7.375 10.7969 7.375H7.16406ZM14.0781 8.625H14.5859H16.5H16.8125C17.3203 8.625 17.75 9.05469 17.75 9.5625C17.75 10.1094 17.3203 10.5 16.8125 10.5H16.3438L15.4062 23.1953C15.2891 24.5234 14.2344 25.5 12.9062 25.5H5.05469C3.72656 25.5 2.67188 24.5234 2.55469 23.1953L1.61719 10.5H1.1875C0.640625 10.5 0.25 10.1094 0.25 9.5625C0.25 9.05469 0.640625 8.625 1.1875 8.625H1.5H3.375H3.88281L5.32812 6.47656C5.71875 5.89062 6.42188 5.5 7.16406 5.5H10.7969C11.5391 5.5 12.2422 5.89062 12.6328 6.47656L14.0781 8.625ZM14.4688 10.5H3.49219L4.42969 23.0781C4.46875 23.3906 4.74219 23.625 5.05469 23.625H12.9062C13.2188 23.625 13.4922 23.3906 13.5312 23.0781L14.4688 10.5Z" fill="black" fill-opacity="0.72"/>
</g>
<defs>
<clipPath id="clip0_2556_17561">
<rect width="18" height="30" fill="white"/>
</clipPath>
</defs>
</svg>
