<svg width="24" height="36" viewBox="0 0 24 36" fill="none" xmlns="http://www.w3.org/2000/svg">
<g id="label-paired / xl / thumbs-up-xl / bold" clip-path="url(#clip0_2556_19928)">
<path id="icon" d="M15.1406 7.64062C16.9688 8.15625 18 10.0312 17.4844 11.8125L17.2031 12.75C17.0625 13.2656 16.875 13.7812 16.6406 14.25H21C22.6406 14.25 24 15.6094 24 17.25C24 18.0938 23.625 18.8438 23.1094 19.4062C23.2031 19.6875 23.25 19.9688 23.25 20.2969C23.25 21.2344 22.7812 22.125 22.0312 22.6875C22.0781 22.875 22.125 23.0625 22.125 23.2969C22.125 24.2344 21.6562 25.0781 21 25.6406C20.9062 27.2344 19.5938 28.5469 18 28.5469H13.4062C12.375 28.5469 11.3438 28.2188 10.5 27.6562L7.59375 25.7344C7.07812 25.3594 6.9375 24.7031 7.3125 24.1406C7.64062 23.625 8.34375 23.4844 8.85938 23.8594L11.7656 25.7812C12.2344 26.1094 12.7969 26.2969 13.4062 26.2969H18C18.375 26.2969 18.75 25.9219 18.75 25.5469C18.75 25.4531 18.7031 25.4062 18.7031 25.3125C18.5625 24.75 18.8438 24.1875 19.3594 23.9531C19.6406 23.8594 19.875 23.5781 19.875 23.2969C19.875 23.1094 19.7812 22.9219 19.6875 22.8281C19.4531 22.5 19.4062 22.0781 19.5469 21.7031C19.6406 21.3281 19.9688 21.0938 20.3906 21C20.7188 20.9531 21 20.625 21 20.25C21 20.0625 20.9062 19.9219 20.8125 19.7812C20.5312 19.5 20.4375 19.125 20.5312 18.75C20.625 18.375 20.9062 18.0938 21.2344 17.9531C21.5156 17.8594 21.75 17.5781 21.75 17.25C21.75 16.875 21.375 16.5 21 16.5H14.7188C14.2969 16.5 13.9219 16.2656 13.7344 15.8906C13.5469 15.5156 13.5469 15.0938 13.7812 14.7656C14.3438 13.9688 14.7656 13.0781 15.0469 12.1406L15.3281 11.2031C15.4688 10.5938 15.1406 9.98438 14.5312 9.79688C13.9219 9.65625 13.3125 9.98438 13.125 10.5938L12.8906 11.5312C12.6094 12.4688 12.1406 13.3125 11.4844 14.0625L9.04688 16.6875C8.625 17.1562 7.92188 17.2031 7.45312 16.7812C7.03125 16.3594 6.98438 15.6562 7.40625 15.1875L9.79688 12.5625C10.2188 12.0938 10.5469 11.5312 10.7344 10.9219L10.9688 9.98438C11.4844 8.15625 13.3594 7.125 15.1406 7.64062ZM1.5 15H4.5C5.29688 15 6 15.7031 6 16.5V27C6 27.8438 5.29688 28.5 4.5 28.5H1.5C0.65625 28.5 0 27.8438 0 27V16.5C0 15.7031 0.65625 15 1.5 15Z" fill="black" fill-opacity="0.72"/>
</g>
<defs>
<clipPath id="clip0_2556_19928">
<rect width="24" height="36" fill="white"/>
</clipPath>
</defs>
</svg>
