<svg width="15" height="36" viewBox="0 0 15 36" fill="none" xmlns="http://www.w3.org/2000/svg">
<g id="label-paired / xl / five-xl / regular" clip-path="url(#clip0_2556_19587)">
<path id="icon" d="M2.25 8.10938C2.34375 7.73438 2.625 7.5 3 7.5H12.75C13.125 7.5 13.5 7.875 13.5 8.25C13.5 8.67188 13.125 9 12.75 9H3.5625L1.6875 16.5H9C12.2812 16.5 15 19.2188 15 22.5C15 25.8281 12.2812 28.5 9 28.5H3.9375C2.39062 28.5 0.9375 27.6562 0.234375 26.25L0.046875 25.875C-0.140625 25.5 0.046875 25.0312 0.375 24.8438C0.75 24.6562 1.21875 24.7969 1.40625 25.1719L1.59375 25.5938C2.0625 26.4844 2.95312 27.0469 3.9375 27.0469H9C11.4844 27.0469 13.5 25.0312 13.5 22.5469C13.5 20.0625 11.4844 18.0469 9 18.0469H0.75C0.515625 18.0469 0.28125 17.9062 0.140625 17.7188C0 17.5312 -0.046875 17.2969 0 17.1094L2.25 8.10938Z" fill="black" fill-opacity="0.72"/>
</g>
<defs>
<clipPath id="clip0_2556_19587">
<rect width="15" height="36" fill="white"/>
</clipPath>
</defs>
</svg>
