<svg width="24" height="36" viewBox="0 0 24 36" fill="none" xmlns="http://www.w3.org/2000/svg">
<g id="label-paired / xl / fingerprint-xl / bold" clip-path="url(#clip0_2556_19723)">
<path id="icon" d="M2.25 18V19.875C2.25 20.5312 1.73438 21 1.125 21C0.46875 21 0 20.5312 0 19.875V18C0 11.3906 5.34375 6 12 6C15.6094 6 18.8906 7.64062 21.0938 10.2188C21.4688 10.6875 21.4219 11.3906 20.9531 11.8125C20.4844 12.1875 19.7812 12.1406 19.3594 11.6719C17.5781 9.60938 14.9531 8.25 12 8.25C6.60938 8.25 2.25 12.6562 2.25 18ZM23.7188 15.5625C23.9062 16.3594 24 17.1562 24 18V19.9219C24 20.5312 23.4844 21.0469 22.875 21.0469C22.2188 21.0469 21.75 20.5312 21.75 19.9219V18.0469C21.75 17.3438 21.6562 16.6406 21.5156 15.9844C21.375 15.4219 21.7969 14.8125 22.4062 14.6719C23.0156 14.5312 23.5781 14.9531 23.7188 15.5625ZM12 9.75C16.5469 9.75 20.25 13.4531 20.25 18V19.1719C20.25 20.4844 20.1562 21.7969 20.0156 23.0625C19.9219 23.625 19.4531 24 18.8906 24C18.2344 24 17.6719 23.3906 17.7656 22.7344C17.9062 21.5625 18 20.3906 18 19.1719V18C18 14.7188 15.2812 12 12 12C11.4375 12 10.9219 12.0938 10.4062 12.2344C9.9375 12.375 9.375 12.2344 9.04688 11.8594C8.53125 11.2969 8.71875 10.4062 9.42188 10.1719C10.2188 9.89062 11.1094 9.75 12 9.75ZM7.03125 12.9844C7.40625 13.4531 7.40625 14.1094 7.03125 14.5781C6.375 15.5625 6 16.7344 6 18V19.1719C6 20.5312 5.8125 21.8906 5.53125 23.2031C5.4375 23.6719 4.96875 24 4.5 24C3.75 24 3.1875 23.2969 3.375 22.5469C3.60938 21.4688 3.75 20.3438 3.75 19.1719V18C3.75 16.125 4.35938 14.3438 5.4375 12.9844C5.85938 12.4688 6.60938 12.5156 7.03125 12.9844ZM16.5 18V19.1719C16.5 21.0469 16.3125 22.9219 15.9375 24.7031C15.8438 25.1719 15.4219 25.5 14.9531 25.5C14.2969 25.5 13.7812 24.8906 13.9219 24.2344C14.25 22.5938 14.4375 20.9062 14.4375 19.1719V18C14.4375 16.6875 13.3125 15.5625 12 15.5625C10.6406 15.5625 9.5625 16.6875 9.5625 18V19.1719C9.5625 21.0938 9.28125 22.9688 8.8125 24.7969C8.67188 25.2188 8.29688 25.5 7.82812 25.5C7.125 25.5 6.65625 24.8438 6.84375 24.1406C7.26562 22.5469 7.5 20.8594 7.5 19.1719V18C7.5 15.5156 9.51562 13.5 12 13.5C14.4844 13.5 16.5 15.5156 16.5 18ZM12 16.875C12.6094 16.875 13.125 17.3906 13.125 18V19.1719C13.125 22.2656 12.5156 25.3125 11.4375 28.2188L11.1562 28.9219C10.9219 29.4844 10.2656 29.8125 9.70312 29.5781C9.14062 29.3438 8.8125 28.6875 9.04688 28.125L9.32812 27.4219C10.3594 24.7969 10.875 21.9844 10.875 19.1719V18C10.875 17.3906 11.3438 16.875 12 16.875Z" fill="black" fill-opacity="0.72"/>
</g>
<defs>
<clipPath id="clip0_2556_19723">
<rect width="24" height="36" fill="white"/>
</clipPath>
</defs>
</svg>
