<svg width="9" height="22" viewBox="0 0 9 22" fill="none" xmlns="http://www.w3.org/2000/svg">
<g id="label-paired / sm / zero-sm / bold" clip-path="url(#clip0_2556_12489)">
<path id="icon" d="M0.125 9C0.125 6.59375 2.06641 4.625 4.5 4.625C6.90625 4.625 8.875 6.59375 8.875 9V12.5C8.875 14.9336 6.90625 16.875 4.5 16.875C2.06641 16.875 0.125 14.9336 0.125 12.5V9ZM4.5 5.9375C2.80469 5.9375 1.4375 7.33203 1.4375 9V12.5C1.4375 14.1953 2.80469 15.5625 4.5 15.5625C6.16797 15.5625 7.5625 14.1953 7.5625 12.5V9C7.5625 7.33203 6.16797 5.9375 4.5 5.9375Z" fill="black" fill-opacity="0.72"/>
</g>
<defs>
<clipPath id="clip0_2556_12489">
<rect width="9" height="22" fill="white"/>
</clipPath>
</defs>
</svg>
