<svg width="8" height="18" viewBox="0 0 8 18" fill="none" xmlns="http://www.w3.org/2000/svg">
<g id="label-paired / caption / forward-step-caption / fill" clip-path="url(#clip0_2556_10155)">
<path id="icon" d="M1.46875 13.8359C1.25781 14.0234 0.929688 14.0703 0.671875 13.9297C0.414062 13.8125 0.25 13.5547 0.25 13.25V5.75C0.25 5.46875 0.414062 5.21094 0.671875 5.07031C0.929688 4.95312 1.23438 5 1.46875 5.1875L5.96875 8.9375L6.25 9.14844V5.75C6.25 5.35156 6.57812 5 7 5C7.39844 5 7.75 5.35156 7.75 5.75V13.25C7.75 13.6719 7.39844 14 7 14C6.57812 14 6.25 13.6719 6.25 13.25V9.85156L5.96875 10.0859L1.46875 13.8359Z" fill="black" fill-opacity="0.72"/>
</g>
<defs>
<clipPath id="clip0_2556_10155">
<rect width="8" height="18" fill="white"/>
</clipPath>
</defs>
</svg>
