<svg width="20" height="30" viewBox="0 0 20 30" fill="none" xmlns="http://www.w3.org/2000/svg">
<g id="label-paired / lg / chevrons-right-lg / regular" clip-path="url(#clip0_2556_17398)">
<path id="icon" d="M2.92969 23.4688C2.69531 23.7031 2.26562 23.7031 2.03125 23.4688C1.79688 23.2344 1.79688 22.8047 2.03125 22.5703L9.10156 15.5L2.03125 8.46875C1.79688 8.23438 1.79688 7.80469 2.03125 7.57031C2.26562 7.33594 2.69531 7.33594 2.92969 7.57031L10.4297 15.0703C10.6641 15.3047 10.6641 15.7344 10.4297 15.9688L2.92969 23.4688ZM10.4297 23.4688C10.1953 23.7031 9.76562 23.7031 9.53125 23.4688C9.29688 23.2344 9.29688 22.8047 9.53125 22.5703L16.6016 15.5L9.53125 8.46875C9.29688 8.23438 9.29688 7.80469 9.53125 7.57031C9.76562 7.33594 10.1953 7.33594 10.4297 7.57031L17.9297 15.0703C18.1641 15.3047 18.1641 15.7344 17.9297 15.9688L10.4297 23.4688Z" fill="black" fill-opacity="0.72"/>
</g>
<defs>
<clipPath id="clip0_2556_17398">
<rect width="20" height="30" fill="white"/>
</clipPath>
</defs>
</svg>
