<svg width="14" height="24" viewBox="0 0 14 24" fill="none" xmlns="http://www.w3.org/2000/svg">
<g id="label-paired / md / compress-md / bold" clip-path="url(#clip0_2556_15228)">
<path id="icon" d="M5 5.75V9.25C5 9.6875 4.65625 10 4.25 10H0.75C0.3125 10 0 9.6875 0 9.25C0 8.84375 0.3125 8.5 0.75 8.5H3.5V5.75C3.5 5.34375 3.8125 5 4.25 5C4.65625 5 5 5.34375 5 5.75ZM0.75 14H4.25C4.65625 14 5 14.3438 5 14.75V18.25C5 18.6875 4.65625 19 4.25 19C3.8125 19 3.5 18.6875 3.5 18.25V15.5H0.75C0.3125 15.5 0 15.1875 0 14.75C0 14.3438 0.3125 14 0.75 14ZM10.5 5.75V8.5H13.25C13.6562 8.5 14 8.84375 14 9.25C14 9.6875 13.6562 10 13.25 10H9.75C9.3125 10 9 9.6875 9 9.25V5.75C9 5.34375 9.3125 5 9.75 5C10.1562 5 10.5 5.34375 10.5 5.75ZM9.75 14H13.25C13.6562 14 14 14.3438 14 14.75C14 15.1875 13.6562 15.5 13.25 15.5H10.5V18.25C10.5 18.6875 10.1562 19 9.75 19C9.3125 19 9 18.6875 9 18.25V14.75C9 14.3438 9.3125 14 9.75 14Z" fill="black" fill-opacity="0.72"/>
</g>
<defs>
<clipPath id="clip0_2556_15228">
<rect width="14" height="24" fill="white"/>
</clipPath>
</defs>
</svg>
