<svg width="12" height="18" viewBox="0 0 12 18" fill="none" xmlns="http://www.w3.org/2000/svg">
<g id="label-paired / caption / wallet-caption / fill" clip-path="url(#clip0_2556_10279)">
<path id="icon" d="M1.5 4.25H10.5C10.8984 4.25 11.25 4.60156 11.25 5C11.25 5.42188 10.8984 5.75 10.5 5.75H1.875C1.66406 5.75 1.5 5.9375 1.5 6.125C1.5 6.33594 1.66406 6.5 1.875 6.5H10.5C11.3203 6.5 12 7.17969 12 8V13.25C12 14.0938 11.3203 14.75 10.5 14.75H1.5C0.65625 14.75 0 14.0938 0 13.25V5.75C0 4.92969 0.65625 4.25 1.5 4.25ZM9.75 9.875C9.32812 9.875 9 10.2266 9 10.625C9 11.0469 9.32812 11.375 9.75 11.375C10.1484 11.375 10.5 11.0469 10.5 10.625C10.5 10.2266 10.1484 9.875 9.75 9.875Z" fill="black" fill-opacity="0.72"/>
</g>
<defs>
<clipPath id="clip0_2556_10279">
<rect width="12" height="18" fill="white"/>
</clipPath>
</defs>
</svg>
