<svg width="14" height="22" viewBox="0 0 14 22" fill="none" xmlns="http://www.w3.org/2000/svg">
<g id="label-paired / sm / file-xml-sm / bold" clip-path="url(#clip0_3816_20)">
<path id="icon" d="M1.75 16.4375H3.0625V17.75H1.75C0.765625 17.75 0 16.9844 0 16V5.5C0 4.54297 0.765625 3.75 1.75 3.75H6.26172C6.72656 3.75 7.16406 3.94141 7.49219 4.26953L9.98047 6.75781C10.3086 7.08594 10.5 7.52344 10.5 7.98828V12.0625H9.1875V8.125H7C6.50781 8.125 6.125 7.74219 6.125 7.25V5.0625H1.75C1.50391 5.0625 1.3125 5.28125 1.3125 5.5V16C1.3125 16.2461 1.50391 16.4375 1.75 16.4375ZM5.25 13.8125C5.25 14.0312 5.30469 14.2227 5.41406 14.3867L5.6875 14.7969L5.93359 14.3867C6.04297 14.2227 6.125 14.0312 6.125 13.8125C6.125 13.5938 6.31641 13.375 6.5625 13.375C6.78125 13.375 7 13.5938 7 13.8125C7 14.1953 6.89062 14.5508 6.67188 14.8789L6.20703 15.5625L6.67188 16.2734C6.89062 16.6016 7 16.957 7 17.3125C7 17.5586 6.78125 17.75 6.5625 17.75C6.31641 17.75 6.125 17.5586 6.125 17.3125C6.125 17.1211 6.04297 16.9297 5.93359 16.7656L5.6875 16.3555L5.41406 16.7656C5.30469 16.9297 5.25 17.1211 5.25 17.3125C5.25 17.5586 5.03125 17.75 4.8125 17.75C4.56641 17.75 4.375 17.5586 4.375 17.3125C4.375 16.957 4.48438 16.5742 4.67578 16.2734L5.14062 15.5625L4.67578 14.8789C4.48438 14.5508 4.375 14.1953 4.375 13.8125C4.375 13.5938 4.56641 13.375 4.8125 13.375C5.03125 13.375 5.25 13.5938 5.25 13.8125ZM12.25 17.3125V13.8125C12.25 13.5938 12.4414 13.375 12.6875 13.375C12.9062 13.375 13.125 13.5938 13.125 13.8125V16.875H13.5625C13.7812 16.875 14 17.0938 14 17.3125C14 17.5586 13.7812 17.75 13.5625 17.75H12.6875C12.4414 17.75 12.25 17.5586 12.25 17.3125ZM8.17578 13.4023C8.36719 13.3477 8.58594 13.4297 8.66797 13.5938L9.625 15.1523L10.5547 13.5938C10.6641 13.4297 10.8555 13.3477 11.0469 13.4023C11.2383 13.457 11.375 13.6211 11.375 13.8125V17.3125C11.375 17.5586 11.1562 17.75 10.9375 17.75C10.6914 17.75 10.5 17.5586 10.5 17.3125V15.3984L9.98047 16.2461C9.89844 16.3828 9.76172 16.4648 9.625 16.4648C9.46094 16.4648 9.32422 16.3828 9.24219 16.2461L8.75 15.3984V17.3125C8.75 17.5586 8.53125 17.75 8.3125 17.75C8.06641 17.75 7.875 17.5586 7.875 17.3125V13.8125C7.875 13.6211 7.98438 13.457 8.17578 13.4023Z" fill="black" fill-opacity="0.72"/>
</g>
<defs>
<clipPath id="clip0_3816_20">
<rect width="14" height="22" fill="white"/>
</clipPath>
</defs>
</svg>
