<svg width="20" height="30" viewBox="0 0 20 30" fill="none" xmlns="http://www.w3.org/2000/svg">
<g id="label-paired / lg / sliders-lg / bold" clip-path="url(#clip0_3758_521)">
<path id="icon" d="M0 21.75C0 21.2422 0.390625 20.8125 0.9375 20.8125H3.24219C3.63281 19.5625 4.84375 18.625 6.25 18.625C7.61719 18.625 8.82812 19.5625 9.21875 20.8125H19.0625C19.5703 20.8125 20 21.2422 20 21.75C20 22.2969 19.5703 22.6875 19.0625 22.6875H9.21875C8.82812 23.9766 7.61719 24.875 6.25 24.875C4.84375 24.875 3.63281 23.9766 3.24219 22.6875H0.9375C0.390625 22.6875 0 22.2969 0 21.75ZM5 21.75C5 22.4531 5.54688 23 6.25 23C6.91406 23 7.5 22.4531 7.5 21.75C7.5 21.0859 6.91406 20.5 6.25 20.5C5.54688 20.5 5 21.0859 5 21.75ZM12.5 15.5C12.5 16.2031 13.0469 16.75 13.75 16.75C14.4141 16.75 15 16.2031 15 15.5C15 14.8359 14.4141 14.25 13.75 14.25C13.0469 14.25 12.5 14.8359 12.5 15.5ZM13.75 12.375C15.1172 12.375 16.3281 13.3125 16.7188 14.5625H19.0625C19.5703 14.5625 20 14.9922 20 15.5C20 16.0469 19.5703 16.4375 19.0625 16.4375H16.7188C16.3281 17.7266 15.1172 18.625 13.75 18.625C12.3438 18.625 11.1328 17.7266 10.7422 16.4375H0.9375C0.390625 16.4375 0 16.0469 0 15.5C0 14.9922 0.390625 14.5625 0.9375 14.5625H10.7422C11.1328 13.3125 12.3438 12.375 13.75 12.375ZM7.5 10.5C8.16406 10.5 8.75 9.95312 8.75 9.25C8.75 8.58594 8.16406 8 7.5 8C6.79688 8 6.25 8.58594 6.25 9.25C6.25 9.95312 6.79688 10.5 7.5 10.5ZM10.4688 8.3125H19.0625C19.5703 8.3125 20 8.74219 20 9.25C20 9.79688 19.5703 10.1875 19.0625 10.1875H10.4688C10.0781 11.4766 8.86719 12.375 7.5 12.375C6.09375 12.375 4.88281 11.4766 4.49219 10.1875H0.9375C0.390625 10.1875 0 9.79688 0 9.25C0 8.74219 0.390625 8.3125 0.9375 8.3125H4.49219C4.88281 7.0625 6.09375 6.125 7.5 6.125C8.86719 6.125 10.0781 7.0625 10.4688 8.3125Z" fill="black" fill-opacity="0.72"/>
</g>
<defs>
<clipPath id="clip0_3758_521">
<rect width="20" height="30" fill="white"/>
</clipPath>
</defs>
</svg>
