<svg width="16" height="24" viewBox="0 0 16 24" fill="none" xmlns="http://www.w3.org/2000/svg">
<g id="label-paired / md / circle-two-md / fill" clip-path="url(#clip0_2556_15138)">
<path id="icon" d="M8 20C5.125 20 2.5 18.5 1.0625 16C-0.375 13.5312 -0.375 10.5 1.0625 8C2.5 5.53125 5.125 4 8 4C10.8438 4 13.4688 5.53125 14.9062 8C16.3438 10.5 16.3438 13.5312 14.9062 16C13.4688 18.5 10.8438 20 8 20ZM6.9375 9.78125C7.1875 9.625 7.4375 9.53125 7.75 9.53125H7.84375C8.46875 9.53125 9 10.0625 9 10.6875C9 11 8.84375 11.3125 8.625 11.5312L5.21875 14.7188C5 14.9375 4.9375 15.25 5.03125 15.5312C5.15625 15.8125 5.4375 16 5.75 16H10.25C10.6562 16 11 15.6875 11 15.25C11 14.8438 10.6562 14.5 10.25 14.5H7.625L9.65625 12.625C10.1875 12.125 10.4688 11.4375 10.4688 10.6875C10.4688 9.25 9.3125 8.0625 7.875 8.03125H7.75C7.125 8.03125 6.53125 8.21875 6.03125 8.59375L5.28125 9.15625C4.9375 9.40625 4.875 9.90625 5.125 10.2188C5.375 10.5625 5.875 10.625 6.1875 10.375L6.9375 9.78125Z" fill="black" fill-opacity="0.72"/>
</g>
<defs>
<clipPath id="clip0_2556_15138">
<rect width="16" height="24" fill="white"/>
</clipPath>
</defs>
</svg>
