<svg width="24" height="36" viewBox="0 0 24 36" fill="none" xmlns="http://www.w3.org/2000/svg">
<g id="label-paired / xl / chart-mixed-xl / fill" clip-path="url(#clip0_2556_19762)">
<path id="icon" d="M23.4375 10.1719L15.9375 16.1719C15.375 16.6406 14.625 16.6406 14.0625 16.2188L9 12.4219L2.4375 17.6719C1.78125 18.1875 0.84375 18.0938 0.328125 17.4375C-0.1875 16.8281 -0.09375 15.8438 0.5625 15.3281L8.0625 9.32812C8.57812 8.90625 9.32812 8.90625 9.89062 9.32812L14.9531 13.125L21.5625 7.82812C22.1719 7.3125 23.1562 7.45312 23.6719 8.0625C24.1875 8.71875 24.0469 9.65625 23.4375 10.1719ZM7.5 18C7.5 17.2031 8.15625 16.5 9 16.5C9.79688 16.5 10.5 17.2031 10.5 18V27C10.5 27.8438 9.79688 28.5 9 28.5C8.15625 28.5 7.5 27.8438 7.5 27V18ZM1.5 22.5C1.5 21.7031 2.15625 21 3 21C3.79688 21 4.5 21.7031 4.5 22.5V27C4.5 27.8438 3.79688 28.5 3 28.5C2.15625 28.5 1.5 27.8438 1.5 27V22.5ZM15 19.5C15.7969 19.5 16.5 20.2031 16.5 21V27C16.5 27.8438 15.7969 28.5 15 28.5C14.1562 28.5 13.5 27.8438 13.5 27V21C13.5 20.2031 14.1562 19.5 15 19.5ZM19.5 18C19.5 17.2031 20.1562 16.5 21 16.5C21.7969 16.5 22.5 17.2031 22.5 18V27C22.5 27.8438 21.7969 28.5 21 28.5C20.1562 28.5 19.5 27.8438 19.5 27V18Z" fill="black" fill-opacity="0.72"/>
</g>
<defs>
<clipPath id="clip0_2556_19762">
<rect width="24" height="36" fill="white"/>
</clipPath>
</defs>
</svg>
