<svg width="12" height="18" viewBox="0 0 12 18" fill="none" xmlns="http://www.w3.org/2000/svg">
<g id="label-paired / caption / circle-arrow-right-caption / fill" clip-path="url(#clip0_2556_10296)">
<path id="icon" d="M0 9.5C0 7.36719 1.125 5.39844 3 4.32031C4.85156 3.24219 7.125 3.24219 9 4.32031C10.8516 5.39844 12 7.36719 12 9.5C12 11.6562 10.8516 13.625 9 14.7031C7.125 15.7812 4.85156 15.7812 3 14.7031C1.125 13.625 0 11.6562 0 9.5ZM6.58594 12.5234L9.21094 9.89844C9.42188 9.6875 9.42188 9.33594 9.21094 9.10156L6.58594 6.5C6.35156 6.26562 6 6.26562 5.78906 6.5C5.55469 6.71094 5.55469 7.0625 5.78906 7.27344L7.45312 8.9375H3.1875C2.85938 8.9375 2.625 9.19531 2.625 9.5C2.625 9.82812 2.85938 10.0625 3.1875 10.0625L7.45312 10.0859L5.78906 11.75C5.55469 11.9609 5.55469 12.3125 5.78906 12.5234C6 12.7578 6.35156 12.7578 6.58594 12.5234Z" fill="black" fill-opacity="0.72"/>
</g>
<defs>
<clipPath id="clip0_2556_10296">
<rect width="12" height="18" fill="white"/>
</clipPath>
</defs>
</svg>
