<svg width="24" height="36" viewBox="0 0 24 36" fill="none" xmlns="http://www.w3.org/2000/svg">
<g id="label-paired / xl / phone-xl / bold" clip-path="url(#clip0_2556_19464)">
<path id="icon" d="M17.5781 18.9375L22.8281 21.1875C23.6719 21.5156 24.1406 22.4062 23.9531 23.2969L22.8281 28.5469C22.6406 29.3906 21.8438 30.0469 21 30.0469C20.6719 30.0469 20.3906 30 20.1094 30C19.6406 30 19.1719 29.9531 18.75 29.9062C8.20312 28.7812 0 19.875 0 9C0 8.15625 0.609375 7.35938 1.45312 7.17188L6.70312 6.04688C7.59375 5.85938 8.48438 6.32812 8.8125 7.17188L11.0625 12.4219C11.3906 13.1719 11.2031 14.0625 10.5469 14.5781L8.625 16.1719C9.89062 18.3281 11.6719 20.1094 13.8281 21.375L15.4219 19.4531C15.9375 18.7969 16.8281 18.6094 17.5781 18.9375ZM20.6719 27.75L21.6562 23.1094L16.9688 21.0938L15.6094 22.7812C14.9062 23.625 13.6875 23.8594 12.7031 23.2969C10.2188 21.8438 8.15625 19.7812 6.70312 17.2969C6.14062 16.3125 6.375 15.0938 7.21875 14.3906L8.90625 13.0312L6.89062 8.34375L2.25 9.32812C2.39062 19.4531 10.5469 27.6094 20.6719 27.75Z" fill="black" fill-opacity="0.72"/>
</g>
<defs>
<clipPath id="clip0_2556_19464">
<rect width="24" height="36" fill="white"/>
</clipPath>
</defs>
</svg>
