<svg width="15" height="18" viewBox="0 0 15 18" fill="none" xmlns="http://www.w3.org/2000/svg">
<g id="label-paired / caption / apple-pay-caption" clip-path="url(#clip0_2556_9878)">
<path id="icon" d="M2.71875 7.22656C2.90625 7.01562 3.02344 6.73438 3 6.42969C2.74219 6.45312 2.4375 6.59375 2.25 6.80469C2.08594 6.99219 1.94531 7.29688 1.99219 7.57812C2.27344 7.60156 2.55469 7.4375 2.71875 7.22656ZM2.97656 7.625C3.14062 7.64844 3.60938 7.69531 3.89062 8.11719C3.86719 8.14062 3.35156 8.44531 3.35156 9.07812C3.375 9.82812 4.00781 10.0625 4.03125 10.0625C4.00781 10.0859 3.91406 10.4375 3.67969 10.7656C3.46875 11.0703 3.25781 11.375 2.92969 11.375C2.60156 11.3984 2.48438 11.1875 2.10938 11.1875C1.73438 11.1875 1.61719 11.375 1.28906 11.3984C0.960938 11.3984 0.726562 11.0703 0.515625 10.7656C0.09375 10.1328 -0.234375 9.03125 0.1875 8.25781C0.421875 7.88281 0.796875 7.64844 1.21875 7.64844C1.54688 7.64844 1.82812 7.85938 2.03906 7.85938C2.22656 7.85938 2.57812 7.60156 2.97656 7.625ZM5.34375 6.78125H7.05469C7.94531 6.78125 8.55469 7.39062 8.55469 8.28125C8.55469 9.17188 7.92188 9.78125 7.03125 9.78125H6.04688V11.3516H5.34375V6.78125ZM6.04688 7.36719V9.19531H6.86719C7.47656 9.19531 7.82812 8.86719 7.82812 8.28125C7.82812 7.69531 7.47656 7.36719 6.86719 7.36719H6.04688ZM9.84375 11.375C9.1875 11.375 8.74219 11 8.71875 10.3906C8.71875 9.80469 9.16406 9.47656 10.0078 9.42969L10.875 9.38281V9.125C10.875 8.75 10.6406 8.53906 10.1953 8.53906C9.84375 8.53906 9.58594 8.72656 9.53906 9.00781H8.90625C8.90625 8.42188 9.46875 8 10.2188 8C11.0391 8 11.5547 8.42188 11.5547 9.07812V11.3516H10.8984V10.7891C10.7109 11.1641 10.2891 11.375 9.84375 11.375ZM10.0312 10.8359C10.5234 10.8359 10.875 10.5312 10.875 10.1094V9.85156L10.1016 9.89844C9.65625 9.92188 9.42188 10.0859 9.42188 10.3906C9.42188 10.6484 9.65625 10.8359 10.0312 10.8359ZM12.4453 12.5938C12.3984 12.5938 12.2109 12.5938 12.1641 12.5703V12.0312C12.2109 12.0312 12.3281 12.0312 12.375 12.0312C12.7031 12.0312 12.8672 11.9141 12.9844 11.5625L13.0547 11.3516L11.8359 8.02344H12.5859L13.4297 10.7422L14.2734 8.02344H15L13.7344 11.5156C13.4531 12.3359 13.125 12.5938 12.4453 12.5938Z" fill="black" fill-opacity="0.72"/>
</g>
<defs>
<clipPath id="clip0_2556_9878">
<rect width="15" height="18" fill="white"/>
</clipPath>
</defs>
</svg>
