<svg width="25" height="30" viewBox="0 0 25 30" fill="none" xmlns="http://www.w3.org/2000/svg">
<g id="label-paired / lg / wallet-circle-plus-lg / fill" clip-path="url(#clip0_2556_17141)">
<path id="icon" d="M0 9.25C0 7.88281 1.09375 6.75 2.5 6.75H17.5C18.1641 6.75 18.75 7.33594 18.75 8C18.75 8.70312 18.1641 9.25 17.5 9.25H3.125C2.77344 9.25 2.5 9.5625 2.5 9.875C2.5 10.2266 2.77344 10.5 3.125 10.5H17.5C18.8672 10.5 20 11.6328 20 13V13.0391C19.7656 13.0391 19.5703 13 19.375 13C15.5469 13 12.5 16.0859 12.5 19.875C12.5 21.5547 13.0859 23.0781 14.0625 24.25H2.5C1.09375 24.25 0 23.1562 0 21.75V9.25ZM13.75 19.875C13.75 16.7891 16.25 14.25 19.375 14.25C22.4609 14.25 25 16.7891 25 19.875C25 23 22.4609 25.5 19.375 25.5C16.25 25.5 13.75 23 13.75 19.875ZM16.25 19.875C16.25 20.2266 16.5234 20.5 16.875 20.5H18.75V22.375C18.75 22.7266 19.0234 23 19.375 23C19.6875 23 20 22.7266 20 22.375V20.5H21.875C22.1875 20.5 22.5 20.2266 22.5 19.875C22.5 19.5625 22.1875 19.25 21.875 19.25H20V17.375C20 17.0625 19.6875 16.75 19.375 16.75C19.0234 16.75 18.75 17.0625 18.75 17.375V19.25H16.875C16.5234 19.25 16.25 19.5625 16.25 19.875Z" fill="black" fill-opacity="0.72"/>
</g>
<defs>
<clipPath id="clip0_2556_17141">
<rect width="25" height="30" fill="white"/>
</clipPath>
</defs>
</svg>
