<svg width="27" height="36" viewBox="0 0 27 36" fill="none" xmlns="http://www.w3.org/2000/svg">
<g id="label-paired / xl / keyboard-xl / fill" clip-path="url(#clip0_2556_19391)">
<path id="icon" d="M3 9H24C25.6406 9 27 10.3594 27 12V24C27 25.6875 25.6406 27 24 27H3C1.3125 27 0 25.6875 0 24V12C0 10.3594 1.3125 9 3 9ZM3.75 12C3.32812 12 3 12.375 3 12.75V14.25C3 14.6719 3.32812 15 3.75 15H5.25C5.625 15 6 14.6719 6 14.25V12.75C6 12.375 5.625 12 5.25 12H3.75ZM3 17.25V18.75C3 19.1719 3.32812 19.5 3.75 19.5H5.25C5.625 19.5 6 19.1719 6 18.75V17.25C6 16.875 5.625 16.5 5.25 16.5H3.75C3.32812 16.5 3 16.875 3 17.25ZM3.75 21C3.32812 21 3 21.375 3 21.75V23.25C3 23.6719 3.32812 24 3.75 24H5.25C5.625 24 6 23.6719 6 23.25V21.75C6 21.375 5.625 21 5.25 21H3.75ZM7.5 12.75V14.25C7.5 14.6719 7.82812 15 8.25 15H9.75C10.125 15 10.5 14.6719 10.5 14.25V12.75C10.5 12.375 10.125 12 9.75 12H8.25C7.82812 12 7.5 12.375 7.5 12.75ZM8.25 16.5C7.82812 16.5 7.5 16.875 7.5 17.25V18.75C7.5 19.1719 7.82812 19.5 8.25 19.5H9.75C10.125 19.5 10.5 19.1719 10.5 18.75V17.25C10.5 16.875 10.125 16.5 9.75 16.5H8.25ZM7.5 21.75V23.25C7.5 23.6719 7.82812 24 8.25 24H18.75C19.125 24 19.5 23.6719 19.5 23.25V21.75C19.5 21.375 19.125 21 18.75 21H8.25C7.82812 21 7.5 21.375 7.5 21.75ZM12.75 12C12.3281 12 12 12.375 12 12.75V14.25C12 14.6719 12.3281 15 12.75 15H14.25C14.625 15 15 14.6719 15 14.25V12.75C15 12.375 14.625 12 14.25 12H12.75ZM12 17.25V18.75C12 19.1719 12.3281 19.5 12.75 19.5H14.25C14.625 19.5 15 19.1719 15 18.75V17.25C15 16.875 14.625 16.5 14.25 16.5H12.75C12.3281 16.5 12 16.875 12 17.25ZM17.25 12C16.8281 12 16.5 12.375 16.5 12.75V14.25C16.5 14.6719 16.8281 15 17.25 15H18.75C19.125 15 19.5 14.6719 19.5 14.25V12.75C19.5 12.375 19.125 12 18.75 12H17.25ZM16.5 17.25V18.75C16.5 19.1719 16.8281 19.5 17.25 19.5H18.75C19.125 19.5 19.5 19.1719 19.5 18.75V17.25C19.5 16.875 19.125 16.5 18.75 16.5H17.25C16.8281 16.5 16.5 16.875 16.5 17.25ZM21.75 12C21.3281 12 21 12.375 21 12.75V14.25C21 14.6719 21.3281 15 21.75 15H23.25C23.625 15 24 14.6719 24 14.25V12.75C24 12.375 23.625 12 23.25 12H21.75ZM21 17.25V18.75C21 19.1719 21.3281 19.5 21.75 19.5H23.25C23.625 19.5 24 19.1719 24 18.75V17.25C24 16.875 23.625 16.5 23.25 16.5H21.75C21.3281 16.5 21 16.875 21 17.25ZM21.75 21C21.3281 21 21 21.375 21 21.75V23.25C21 23.6719 21.3281 24 21.75 24H23.25C23.625 24 24 23.6719 24 23.25V21.75C24 21.375 23.625 21 23.25 21H21.75Z" fill="black" fill-opacity="0.72"/>
</g>
<defs>
<clipPath id="clip0_2556_19391">
<rect width="27" height="36" fill="white"/>
</clipPath>
</defs>
</svg>
