<svg width="12" height="18" viewBox="0 0 12 18" fill="none" xmlns="http://www.w3.org/2000/svg">
<g id="label-paired / caption / cash-register-caption / regular" clip-path="url(#clip0_2556_9948)">
<path id="icon" d="M6.375 4.25H1.875C1.66406 4.25 1.5 4.4375 1.5 4.625V5.375C1.5 5.58594 1.66406 5.75 1.875 5.75H6.375C6.5625 5.75 6.75 5.58594 6.75 5.375V4.625C6.75 4.4375 6.5625 4.25 6.375 4.25ZM1.875 3.5H6.375C6.98438 3.5 7.5 4.01562 7.5 4.625V5.375C7.5 6.00781 6.98438 6.5 6.375 6.5H4.5V7.25H9.9375C10.6875 7.25 11.3203 7.8125 11.4141 8.53906L11.9766 12.4062C11.9766 12.4766 12 12.5469 12 12.6172V14C12 14.8438 11.3203 15.5 10.5 15.5H1.5C0.65625 15.5 0 14.8438 0 14V12.6172C0 12.5469 0 12.4766 0 12.4062L0.5625 8.53906C0.65625 7.8125 1.28906 7.25 2.03906 7.25H3.75V6.5H1.875C1.24219 6.5 0.75 6.00781 0.75 5.375V4.625C0.75 4.01562 1.24219 3.5 1.875 3.5ZM0.75 14C0.75 14.4219 1.07812 14.75 1.5 14.75H10.5C10.8984 14.75 11.25 14.4219 11.25 14V13.25H0.75V14ZM10.6875 8.65625C10.6172 8.28125 10.3125 8 9.9375 8H2.03906C1.66406 8 1.35938 8.28125 1.28906 8.65625L0.75 12.5H11.2266L10.6875 8.65625ZM2.625 8.9375C2.92969 8.9375 3.1875 9.19531 3.1875 9.5C3.1875 9.82812 2.92969 10.0625 2.625 10.0625C2.29688 10.0625 2.0625 9.82812 2.0625 9.5C2.0625 9.19531 2.29688 8.9375 2.625 8.9375ZM4.3125 9.5C4.3125 9.19531 4.54688 8.9375 4.875 8.9375C5.17969 8.9375 5.4375 9.19531 5.4375 9.5C5.4375 9.82812 5.17969 10.0625 4.875 10.0625C4.54688 10.0625 4.3125 9.82812 4.3125 9.5ZM3.75 10.8125C4.05469 10.8125 4.3125 11.0703 4.3125 11.375C4.3125 11.7031 4.05469 11.9375 3.75 11.9375C3.42188 11.9375 3.1875 11.7031 3.1875 11.375C3.1875 11.0703 3.42188 10.8125 3.75 10.8125ZM6.5625 9.5C6.5625 9.19531 6.79688 8.9375 7.125 8.9375C7.42969 8.9375 7.6875 9.19531 7.6875 9.5C7.6875 9.82812 7.42969 10.0625 7.125 10.0625C6.79688 10.0625 6.5625 9.82812 6.5625 9.5ZM6 10.8125C6.30469 10.8125 6.5625 11.0703 6.5625 11.375C6.5625 11.7031 6.30469 11.9375 6 11.9375C5.67188 11.9375 5.4375 11.7031 5.4375 11.375C5.4375 11.0703 5.67188 10.8125 6 10.8125ZM8.8125 9.5C8.8125 9.19531 9.04688 8.9375 9.375 8.9375C9.67969 8.9375 9.9375 9.19531 9.9375 9.5C9.9375 9.82812 9.67969 10.0625 9.375 10.0625C9.04688 10.0625 8.8125 9.82812 8.8125 9.5ZM8.25 10.8125C8.55469 10.8125 8.8125 11.0703 8.8125 11.375C8.8125 11.7031 8.55469 11.9375 8.25 11.9375C7.92188 11.9375 7.6875 11.7031 7.6875 11.375C7.6875 11.0703 7.92188 10.8125 8.25 10.8125Z" fill="black" fill-opacity="0.72"/>
</g>
<defs>
<clipPath id="clip0_2556_9948">
<rect width="12" height="18" fill="white"/>
</clipPath>
</defs>
</svg>
