<svg width="24" height="36" viewBox="0 0 24 36" fill="none" xmlns="http://www.w3.org/2000/svg">
<g id="label-paired / xl / circle-two-xl / bold" clip-path="url(#clip0_2556_19552)">
<path id="icon" d="M12 8.25C8.48438 8.25 5.29688 10.125 3.51562 13.125C1.78125 16.1719 1.78125 19.875 3.51562 22.875C5.29688 25.9219 8.48438 27.75 12 27.75C15.4688 27.75 18.6562 25.9219 20.4375 22.875C22.1719 19.875 22.1719 16.1719 20.4375 13.125C18.6562 10.125 15.4688 8.25 12 8.25ZM12 30C7.6875 30 3.75 27.75 1.59375 24C-0.5625 20.2969 -0.5625 15.75 1.59375 12C3.75 8.29688 7.6875 6 12 6C16.2656 6 20.2031 8.29688 22.3594 12C24.5156 15.75 24.5156 20.2969 22.3594 24C20.2031 27.75 16.2656 30 12 30ZM10.4062 14.6719L9.28125 15.5156C8.8125 15.8906 8.10938 15.7969 7.73438 15.3281C7.3125 14.8125 7.45312 14.1094 7.92188 13.7344L9.04688 12.8906C9.79688 12.3281 10.6875 12 11.625 12.0469H11.8125C13.9688 12.0938 15.75 13.8281 15.75 16.0312C15.75 17.1094 15.2812 18.1875 14.4844 18.9375L11.4375 21.75H15.375C15.9844 21.75 16.5 22.2656 16.5 22.875C16.5 23.5312 15.9844 24 15.375 24H8.625C8.15625 24 7.73438 23.7188 7.54688 23.2969C7.40625 22.875 7.5 22.4062 7.82812 22.0781L12.9375 17.2969C13.2656 16.9688 13.5 16.5 13.5 16.0312C13.5 15.0938 12.7031 14.2969 11.7656 14.2969H11.625C11.1562 14.2969 10.7344 14.4375 10.4062 14.6719Z" fill="black" fill-opacity="0.72"/>
</g>
<defs>
<clipPath id="clip0_2556_19552">
<rect width="24" height="36" fill="white"/>
</clipPath>
</defs>
</svg>
