<svg width="15" height="18" viewBox="0 0 15 18" fill="none" xmlns="http://www.w3.org/2000/svg">
<g id="label-paired / caption / computer-caption / regular" clip-path="url(#clip0_2556_10088)">
<path id="icon" d="M9 5H1.5C1.07812 5 0.75 5.35156 0.75 5.75V11C0.75 11.4219 1.07812 11.75 1.5 11.75H4.03125H4.3125H6.1875H6.44531H9C9.39844 11.75 9.75 11.4219 9.75 11V5.75C9.75 5.35156 9.39844 5 9 5ZM1.5 12.5C0.65625 12.5 0 11.8438 0 11V5.75C0 4.92969 0.65625 4.25 1.5 4.25H9C9.82031 4.25 10.5 4.92969 10.5 5.75V11C10.5 11.8438 9.82031 12.5 9 12.5H6.70312L7.19531 14H8.625C8.8125 14 9 14.1875 9 14.375C9 14.5859 8.8125 14.75 8.625 14.75H7.45312H6.9375H3.5625H3.02344H1.875C1.66406 14.75 1.5 14.5859 1.5 14.375C1.5 14.1875 1.66406 14 1.875 14H3.28125L3.77344 12.5H1.5ZM4.07812 14H6.39844L5.90625 12.5H4.57031L4.07812 14ZM12.375 5C12.1641 5 12 5.1875 12 5.375V6.5H14.25V5.375C14.25 5.1875 14.0625 5 13.875 5H12.375ZM12 7.25V8H14.25V7.25H12ZM12 13.625C12 13.8359 12.1641 14 12.375 14H13.875C14.0625 14 14.25 13.8359 14.25 13.625V8.75H12V13.625ZM11.25 5.375C11.25 4.76562 11.7422 4.25 12.375 4.25H13.875C14.4844 4.25 15 4.76562 15 5.375V13.625C15 14.2578 14.4844 14.75 13.875 14.75H12.375C11.7422 14.75 11.25 14.2578 11.25 13.625V5.375ZM13.125 11.9375C12.7969 11.9375 12.5625 11.7031 12.5625 11.375C12.5625 11.0703 12.7969 10.8125 13.125 10.8125C13.4297 10.8125 13.6875 11.0703 13.6875 11.375C13.6875 11.7031 13.4297 11.9375 13.125 11.9375Z" fill="black" fill-opacity="0.72"/>
</g>
<defs>
<clipPath id="clip0_2556_10088">
<rect width="15" height="18" fill="white"/>
</clipPath>
</defs>
</svg>
