<svg width="13" height="22" viewBox="0 0 13 22" fill="none" xmlns="http://www.w3.org/2000/svg">
<g id="label-paired / sm / arrow-down-to-bracket-sm / regular" clip-path="url(#clip0_2556_12882)">
<path id="icon" d="M10.3008 9.76562L6.80078 13.2656C6.63672 13.4297 6.33594 13.4297 6.17188 13.2656L2.67188 9.76562C2.50781 9.60156 2.50781 9.30078 2.67188 9.13672C2.83594 8.97266 3.13672 8.97266 3.30078 9.13672L6.0625 11.8984V4.1875C6.0625 3.96875 6.25391 3.75 6.5 3.75C6.71875 3.75 6.9375 3.96875 6.9375 4.1875V11.8984L9.67188 9.13672C9.83594 8.97266 10.1367 8.97266 10.3008 9.13672C10.4648 9.30078 10.4648 9.60156 10.3008 9.76562ZM1.25 12.9375V15.5625C1.25 16.3008 1.82422 16.875 2.5625 16.875H10.4375C11.1484 16.875 11.75 16.3008 11.75 15.5625V12.9375C11.75 12.7188 11.9414 12.5 12.1875 12.5C12.4062 12.5 12.625 12.7188 12.625 12.9375V15.5625C12.625 16.793 11.6406 17.75 10.4375 17.75H2.5625C1.33203 17.75 0.375 16.793 0.375 15.5625V12.9375C0.375 12.7188 0.566406 12.5 0.8125 12.5C1.03125 12.5 1.25 12.7188 1.25 12.9375Z" fill="black" fill-opacity="0.72"/>
</g>
<defs>
<clipPath id="clip0_2556_12882">
<rect width="13" height="22" fill="white"/>
</clipPath>
</defs>
</svg>
