<svg width="10" height="24" viewBox="0 0 10 24" fill="none" xmlns="http://www.w3.org/2000/svg">
<g id="label-paired / md / euro-sign-md / fill" clip-path="url(#clip0_2556_14620)">
<path id="icon" d="M1.5 11.5H1C0.4375 11.5 0 11.0625 0 10.5C0 9.96875 0.4375 9.5 1 9.5H1.875C2.78125 6.90625 5.3125 5 8.25 5H9C9.53125 5 10 5.46875 10 6C10 6.5625 9.53125 7 9 7H8.25C6.4375 7 4.84375 8.03125 4.0625 9.5H8C8.53125 9.5 9 9.96875 9 10.5C9 11.0625 8.53125 11.5 8 11.5H3.5C3.5 11.5938 3.5 11.6875 3.5 11.75V12.25C3.5 12.3438 3.5 12.4375 3.5 12.5H8C8.53125 12.5 9 12.9688 9 13.5C9 14.0625 8.53125 14.5 8 14.5H4.0625C4.84375 16 6.4375 17 8.25 17H9C9.53125 17 10 17.4688 10 18C10 18.5625 9.53125 19 9 19H8.25C5.3125 19 2.78125 17.125 1.875 14.5H1C0.4375 14.5 0 14.0625 0 13.5C0 12.9688 0.4375 12.5 1 12.5H1.5C1.5 12.4375 1.5 12.3438 1.5 12.25V11.75C1.5 11.6875 1.5 11.5938 1.5 11.5Z" fill="black" fill-opacity="0.72"/>
</g>
<defs>
<clipPath id="clip0_2556_14620">
<rect width="10" height="24" fill="white"/>
</clipPath>
</defs>
</svg>
