<svg width="16" height="22" viewBox="0 0 16 22" fill="none" xmlns="http://www.w3.org/2000/svg">
<g id="label-paired / sm / rectangle-ad-sm / regular" clip-path="url(#clip0_2556_12960)">
<path id="icon" d="M1.875 5.5C1.38281 5.5 1 5.91016 1 6.375V15.125C1 15.6172 1.38281 16 1.875 16H14.125C14.5898 16 15 15.6172 15 15.125V6.375C15 5.91016 14.5898 5.5 14.125 5.5H1.875ZM0.125 6.375C0.125 5.41797 0.890625 4.625 1.875 4.625H14.125C15.082 4.625 15.875 5.41797 15.875 6.375V15.125C15.875 16.1094 15.082 16.875 14.125 16.875H1.875C0.890625 16.875 0.125 16.1094 0.125 15.125V6.375ZM5.97656 8.39844L7.94531 12.7734C8.05469 12.9922 7.94531 13.2383 7.72656 13.3477C7.50781 13.457 7.26172 13.3477 7.15234 13.1289L6.87891 12.5H4.28125L4.00781 13.1289C3.89844 13.3477 3.65234 13.457 3.43359 13.3477C3.21484 13.2383 3.10547 12.9922 3.21484 12.7734L5.18359 8.39844C5.23828 8.23438 5.40234 8.125 5.56641 8.125C5.75781 8.125 5.89453 8.23438 5.97656 8.39844ZM5.59375 9.62891L4.69141 11.625H6.46875L5.59375 9.62891ZM10.4062 10.3125C9.99609 10.3125 9.64062 10.5312 9.44922 10.8594C9.25781 11.2148 9.25781 11.625 9.44922 11.9531C9.64062 12.3086 9.99609 12.5 10.4062 12.5C10.7891 12.5 11.1445 12.3086 11.3359 11.9531C11.5273 11.625 11.5273 11.2148 11.3359 10.8594C11.1445 10.5312 10.7891 10.3125 10.4062 10.3125ZM11.5 9.79297V8.5625C11.5 8.34375 11.6914 8.125 11.9375 8.125C12.1562 8.125 12.375 8.34375 12.375 8.5625V11.4062V12.9375C12.375 13.1836 12.1562 13.375 11.9375 13.375C11.7188 13.375 11.5547 13.2383 11.5 13.0469C11.1719 13.2656 10.8164 13.375 10.4062 13.375C9.3125 13.375 8.4375 12.5 8.4375 11.4062C8.4375 10.3398 9.3125 9.4375 10.4062 9.4375C10.7891 9.4375 11.1719 9.57422 11.5 9.79297Z" fill="black" fill-opacity="0.72"/>
</g>
<defs>
<clipPath id="clip0_2556_12960">
<rect width="16" height="22" fill="white"/>
</clipPath>
</defs>
</svg>
