<svg width="13" height="22" viewBox="0 0 13 22" fill="none" xmlns="http://www.w3.org/2000/svg">
<g id="label-paired / sm / placeholder-sm / bold" clip-path="url(#clip0_2556_12921)">
<path id="icon" d="M2.78125 4.625H3.21875C3.57422 4.625 3.875 4.92578 3.875 5.28125C3.875 5.66406 3.57422 5.9375 3.21875 5.9375H2.78125C2.15234 5.9375 1.6875 6.42969 1.6875 7.03125V7.46875C1.6875 7.85156 1.38672 8.125 1.03125 8.125C0.648438 8.125 0.375 7.85156 0.375 7.46875V7.03125C0.375 5.71875 1.44141 4.625 2.78125 4.625ZM1.03125 9C1.38672 9 1.6875 9.30078 1.6875 9.65625V11.8438C1.6875 12.2266 1.38672 12.5 1.03125 12.5C0.648438 12.5 0.375 12.2266 0.375 11.8438V9.65625C0.375 9.30078 0.648438 9 1.03125 9ZM11.9688 9C12.3242 9 12.625 9.30078 12.625 9.65625V11.8438C12.625 12.2266 12.3242 12.5 11.9688 12.5C11.5859 12.5 11.3125 12.2266 11.3125 11.8438V9.65625C11.3125 9.30078 11.5859 9 11.9688 9ZM11.9688 8.125C11.5859 8.125 11.3125 7.85156 11.3125 7.46875V7.03125C11.3125 6.42969 10.8203 5.9375 10.2188 5.9375H9.78125C9.39844 5.9375 9.125 5.66406 9.125 5.28125C9.125 4.92578 9.39844 4.625 9.78125 4.625H10.2188C11.5312 4.625 12.625 5.71875 12.625 7.03125V7.46875C12.625 7.85156 12.3242 8.125 11.9688 8.125ZM12.625 14.0312V14.4688C12.625 15.8086 11.5312 16.875 10.2188 16.875H9.78125C9.39844 16.875 9.125 16.6016 9.125 16.2188C9.125 15.8633 9.39844 15.5625 9.78125 15.5625H10.2188C10.8203 15.5625 11.3125 15.0977 11.3125 14.4688V14.0312C11.3125 13.6758 11.5859 13.375 11.9688 13.375C12.3242 13.375 12.625 13.6758 12.625 14.0312ZM1.6875 14.0312V14.4688C1.6875 15.0977 2.15234 15.5625 2.78125 15.5625H3.21875C3.57422 15.5625 3.875 15.8633 3.875 16.2188C3.875 16.6016 3.57422 16.875 3.21875 16.875H2.78125C1.44141 16.875 0.375 15.8086 0.375 14.4688V14.0312C0.375 13.6758 0.648438 13.375 1.03125 13.375C1.38672 13.375 1.6875 13.6758 1.6875 14.0312ZM5.40625 16.875C5.02344 16.875 4.75 16.6016 4.75 16.2188C4.75 15.8633 5.02344 15.5625 5.40625 15.5625H7.59375C7.94922 15.5625 8.25 15.8633 8.25 16.2188C8.25 16.6016 7.94922 16.875 7.59375 16.875H5.40625ZM4.75 5.28125C4.75 4.92578 5.02344 4.625 5.40625 4.625H7.59375C7.94922 4.625 8.25 4.92578 8.25 5.28125C8.25 5.66406 7.94922 5.9375 7.59375 5.9375H5.40625C5.02344 5.9375 4.75 5.66406 4.75 5.28125Z" fill="black" fill-opacity="0.72"/>
</g>
<defs>
<clipPath id="clip0_2556_12921">
<rect width="13" height="22" fill="white"/>
</clipPath>
</defs>
</svg>
