<svg width="25" height="30" viewBox="0 0 25 30" fill="none" xmlns="http://www.w3.org/2000/svg">
<g id="label-paired / lg / users-lg / regular" clip-path="url(#clip0_2556_16937)">
<path id="icon" d="M3.75 8.625C3.75 9.32812 4.10156 9.91406 4.6875 10.2656C5.23438 10.6172 5.97656 10.6172 6.5625 10.2656C7.10938 9.91406 7.5 9.32812 7.5 8.625C7.5 7.96094 7.10938 7.375 6.5625 7.02344C5.97656 6.67188 5.23438 6.67188 4.6875 7.02344C4.10156 7.375 3.75 7.96094 3.75 8.625ZM8.75 8.625C8.75 9.75781 8.125 10.7734 7.1875 11.3594C6.21094 11.9062 5 11.9062 4.0625 11.3594C3.08594 10.7734 2.5 9.75781 2.5 8.625C2.5 7.53125 3.08594 6.51562 4.0625 5.92969C5 5.38281 6.21094 5.38281 7.1875 5.92969C8.125 6.51562 8.75 7.53125 8.75 8.625ZM12.5 11.75C11.6016 11.75 10.7812 12.2578 10.3125 13C9.88281 13.7812 9.88281 14.7578 10.3125 15.5C10.7812 16.2812 11.6016 16.75 12.5 16.75C13.3594 16.75 14.1797 16.2812 14.6484 15.5C15.0781 14.7578 15.0781 13.7812 14.6484 13C14.1797 12.2578 13.3594 11.75 12.5 11.75ZM12.5 18C11.1328 18 9.92188 17.2969 9.21875 16.125C8.55469 14.9922 8.55469 13.5469 9.21875 12.375C9.92188 11.2422 11.1328 10.5 12.5 10.5C13.8281 10.5 15.0391 11.2422 15.7422 12.375C16.4062 13.5469 16.4062 14.9922 15.7422 16.125C15.0391 17.2969 13.8281 18 12.5 18ZM10.1953 20.5C8.08594 20.5 6.32812 22.1797 6.25 24.25H18.7109C18.6328 22.1797 16.875 20.5 14.7656 20.5H10.1953ZM10.1953 19.25H14.7656C17.6562 19.25 20 21.5938 20 24.4844C20 25.0703 19.5312 25.5 18.9453 25.5H6.01562C5.42969 25.5 5 25.0312 5 24.4844C5 21.5938 7.30469 19.25 10.1953 19.25ZM20 6.75C19.2969 6.75 18.7109 7.14062 18.3594 7.6875C18.0078 8.27344 18.0078 9.01562 18.3594 9.5625C18.7109 10.1484 19.2969 10.5 20 10.5C20.6641 10.5 21.25 10.1484 21.6016 9.5625C21.9531 9.01562 21.9531 8.27344 21.6016 7.6875C21.25 7.14062 20.6641 6.75 20 6.75ZM20 11.75C18.8672 11.75 17.8516 11.1641 17.2656 10.1875C16.7188 9.25 16.7188 8.03906 17.2656 7.0625C17.8516 6.125 18.8672 5.5 20 5.5C21.0938 5.5 22.1094 6.125 22.6953 7.0625C23.2422 8.03906 23.2422 9.25 22.6953 10.1875C22.1094 11.1641 21.0938 11.75 20 11.75ZM20.625 14.25H17.5C17.5 13.8203 17.4219 13.4297 17.3438 13H20.625C23.0078 13 25 14.9922 25 17.375C25 17.7266 24.6875 18 24.375 18C24.0234 18 23.75 17.7266 23.75 17.375C23.75 15.6562 22.3438 14.25 20.625 14.25ZM7.5 14.25H4.375C2.61719 14.25 1.25 15.6562 1.25 17.375C1.25 17.7266 0.9375 18 0.625 18C0.273438 18 0 17.7266 0 17.375C0 14.9922 1.95312 13 4.375 13H7.65625C7.53906 13.4297 7.5 13.8203 7.5 14.25Z" fill="black" fill-opacity="0.72"/>
</g>
<defs>
<clipPath id="clip0_2556_16937">
<rect width="25" height="30" fill="white"/>
</clipPath>
</defs>
</svg>
