<svg width="20" height="30" viewBox="0 0 20 30" fill="none" xmlns="http://www.w3.org/2000/svg">
<g id="label-paired / lg / circle-calendar-lg / fill" clip-path="url(#clip0_2556_17572)">
<path id="icon" d="M10 25.5C6.40625 25.5 3.125 23.625 1.32812 20.5C-0.46875 17.4141 -0.46875 13.625 1.32812 10.5C3.125 7.41406 6.40625 5.5 10 5.5C13.5547 5.5 16.8359 7.41406 18.6328 10.5C20.4297 13.625 20.4297 17.4141 18.6328 20.5C16.8359 23.625 13.5547 25.5 10 25.5ZM8.125 9.25C7.77344 9.25 7.5 9.5625 7.5 9.875V10.5H6.25C5.54688 10.5 5 11.0859 5 11.75V13H15V11.75C15 11.0859 14.4141 10.5 13.75 10.5H12.5V9.875C12.5 9.5625 12.1875 9.25 11.875 9.25C11.5234 9.25 11.25 9.5625 11.25 9.875V10.5H8.75V9.875C8.75 9.5625 8.4375 9.25 8.125 9.25ZM5 19.25C5 19.9531 5.54688 20.5 6.25 20.5H13.75C14.4141 20.5 15 19.9531 15 19.25V14.25H5V19.25Z" fill="black" fill-opacity="0.72"/>
</g>
<defs>
<clipPath id="clip0_2556_17572">
<rect width="20" height="30" fill="white"/>
</clipPath>
</defs>
</svg>
