<svg width="9" height="18" viewBox="0 0 9 18" fill="none" xmlns="http://www.w3.org/2000/svg">
<g id="label-paired / caption / mobile-screen-button-caption / regular" clip-path="url(#clip0_2556_10106)">
<path id="icon" d="M6.75 4.25H2.25C1.82812 4.25 1.5 4.60156 1.5 5V11H7.5V5C7.5 4.60156 7.14844 4.25 6.75 4.25ZM7.5 11.75H1.5V14C1.5 14.4219 1.82812 14.75 2.25 14.75H6.75C7.14844 14.75 7.5 14.4219 7.5 14V11.75ZM2.25 3.5H6.75C7.57031 3.5 8.25 4.17969 8.25 5V14C8.25 14.8438 7.57031 15.5 6.75 15.5H2.25C1.40625 15.5 0.75 14.8438 0.75 14V5C0.75 4.17969 1.40625 3.5 2.25 3.5ZM3.375 13.25C3.375 13.0625 3.53906 12.875 3.75 12.875H5.25C5.4375 12.875 5.625 13.0625 5.625 13.25C5.625 13.4609 5.4375 13.625 5.25 13.625H3.75C3.53906 13.625 3.375 13.4609 3.375 13.25Z" fill="black" fill-opacity="0.72"/>
</g>
<defs>
<clipPath id="clip0_2556_10106">
<rect width="9" height="18" fill="white"/>
</clipPath>
</defs>
</svg>
