<svg width="14" height="22" viewBox="0 0 14 22" fill="none" xmlns="http://www.w3.org/2000/svg">
<g id="label-paired / sm / circle-chevron-left-sm / fill" clip-path="url(#clip0_2556_12545)">
<path id="icon" d="M14 10.75C14 13.2656 12.6602 15.5625 10.5 16.8203C8.3125 18.0781 5.66016 18.0781 3.5 16.8203C1.3125 15.5625 0 13.2656 0 10.75C0 8.26172 1.3125 5.96484 3.5 4.70703C5.66016 3.44922 8.3125 3.44922 10.5 4.70703C12.6602 5.96484 14 8.26172 14 10.75ZM7.41016 7.44141L4.56641 10.3125C4.29297 10.5586 4.29297 10.9688 4.56641 11.2148L7.41016 14.0586C7.65625 14.332 8.06641 14.332 8.3125 14.0586C8.58594 13.8125 8.58594 13.4023 8.3125 13.1289L5.93359 10.75L8.3125 8.37109C8.58594 8.125 8.58594 7.71484 8.3125 7.44141C8.06641 7.19531 7.65625 7.19531 7.41016 7.44141Z" fill="black" fill-opacity="0.72"/>
</g>
<defs>
<clipPath id="clip0_2556_12545">
<rect width="14" height="22" fill="white"/>
</clipPath>
</defs>
</svg>
