<svg width="12" height="18" viewBox="0 0 12 18" fill="none" xmlns="http://www.w3.org/2000/svg">
<g id="label-paired / caption / chart-line-up-down-caption / fill" clip-path="url(#clip0_2556_10270)">
<path id="icon" d="M1.5 5V12.875C1.5 13.0859 1.66406 13.25 1.875 13.25H11.25C11.6484 13.25 12 13.6016 12 14C12 14.4219 11.6484 14.75 11.25 14.75H1.875C0.820312 14.75 0 13.9297 0 12.875V5C0 4.60156 0.328125 4.25 0.75 4.25C1.14844 4.25 1.5 4.60156 1.5 5ZM8.83594 6.35938L8.39062 5.91406C8.29688 5.82031 8.25 5.67969 8.25 5.53906C8.25 5.25781 8.48438 5 8.76562 5H10.875C11.0625 5 11.25 5.1875 11.25 5.375V5.75V5.77344V7.48438C11.25 7.76562 10.9922 8 10.7109 8C10.5703 8 10.4297 7.95312 10.3359 7.85938L9.89062 7.41406L7.26562 10.0391C6.98438 10.3438 6.49219 10.3438 6.21094 10.0391L4.875 8.70312L3.51562 10.0391C3.23438 10.3438 2.74219 10.3438 2.46094 10.0391C2.15625 9.75781 2.15625 9.26562 2.46094 8.98438L4.33594 7.10938C4.61719 6.80469 5.10938 6.80469 5.39062 7.10938L6.75 8.44531L8.83594 6.35938ZM10.3359 9.66406C10.4297 9.57031 10.5703 9.5 10.7109 9.5C11.0156 9.5 11.25 9.75781 11.25 10.0391V12.125C11.25 12.3359 11.0625 12.5 10.875 12.5H8.76562C8.48438 12.5 8.25 12.2656 8.25 11.9844C8.25 11.8438 8.29688 11.7031 8.39062 11.6094L8.83594 11.1641L8.01562 10.3438L9.09375 9.28906L9.89062 10.1094L10.3359 9.66406Z" fill="black" fill-opacity="0.72"/>
</g>
<defs>
<clipPath id="clip0_2556_10270">
<rect width="12" height="18" fill="white"/>
</clipPath>
</defs>
</svg>
