<svg width="24" height="36" viewBox="0 0 24 36" fill="none" xmlns="http://www.w3.org/2000/svg">
<g id="label-paired / xl / right-from-bracket-xl / regular" clip-path="url(#clip0_2556_19803)">
<path id="icon" d="M22.4531 17.9531L16.2656 12.0938C16.2188 12.0469 16.125 12 16.0312 12C15.8906 12 15.75 12.1406 15.75 12.3281V15C15.75 15.4219 15.375 15.75 15 15.75H9.375C9.14062 15.75 9 15.9375 9 16.125V19.875C9 20.1094 9.14062 20.25 9.375 20.25H15C15.375 20.25 15.75 20.625 15.75 21V23.7188C15.75 23.8594 15.8906 24 16.0312 24C16.125 24 16.2188 24 16.2656 23.9531L22.4531 18.0938C22.4531 18.0938 22.5 18.0469 22.5 18L22.4531 17.9531ZM24 18C24 18.4688 23.8125 18.8906 23.4844 19.2188L17.2969 25.0312C16.9688 25.3594 16.5 25.5 16.0312 25.5C15.0469 25.5 14.25 24.7031 14.25 23.7188V21.75H9.375C8.29688 21.75 7.5 20.9531 7.5 19.875V16.125C7.5 15.0938 8.29688 14.25 9.375 14.25H14.25V12.3281C14.25 11.3438 15.0469 10.5 16.0312 10.5C16.5 10.5 16.9688 10.6875 17.2969 11.0156L23.4844 16.8281C23.8125 17.1562 24 17.5781 24 18ZM8.25 9H3.75C2.48438 9 1.5 10.0312 1.5 11.25V24.75C1.5 26.0156 2.48438 27 3.75 27H8.25C8.625 27 9 27.375 9 27.75C9 28.1719 8.625 28.5 8.25 28.5H3.75C1.64062 28.5 0 26.8594 0 24.75V11.25C0 9.1875 1.64062 7.5 3.75 7.5H8.25C8.625 7.5 9 7.875 9 8.25C9 8.67188 8.625 9 8.25 9Z" fill="black" fill-opacity="0.72"/>
</g>
<defs>
<clipPath id="clip0_2556_19803">
<rect width="24" height="36" fill="white"/>
</clipPath>
</defs>
</svg>
