<svg width="20" height="30" viewBox="0 0 20 30" fill="none" xmlns="http://www.w3.org/2000/svg">
<g id="label-paired / lg / circle-euro-lg / regular" clip-path="url(#clip0_2556_16901)">
<path id="icon" d="M18.75 15.5C18.75 12.375 17.0703 9.52344 14.375 7.96094C11.6406 6.35938 8.32031 6.35938 5.625 7.96094C2.89062 9.52344 1.25 12.375 1.25 15.5C1.25 18.6641 2.89062 21.5156 5.625 23.0781C8.32031 24.6797 11.6406 24.6797 14.375 23.0781C17.0703 21.5156 18.75 18.6641 18.75 15.5ZM0 15.5C0 11.9453 1.875 8.66406 5 6.86719C8.08594 5.07031 11.875 5.07031 15 6.86719C18.0859 8.66406 20 11.9453 20 15.5C20 19.0938 18.0859 22.375 15 24.1719C11.875 25.9688 8.08594 25.9688 5 24.1719C1.875 22.375 0 19.0938 0 15.5ZM5 16.125H5.9375C5.89844 15.9297 5.89844 15.7344 5.89844 15.5391C5.89844 15.3438 5.89844 15.1094 5.9375 14.875H5C4.64844 14.875 4.375 14.6016 4.375 14.25C4.375 13.9375 4.64844 13.625 5 13.625H6.32812C7.03125 12.1797 8.55469 11.125 10.2734 11.125H11.9141C12.2266 11.125 12.5391 11.4375 12.5391 11.75C12.5391 12.1016 12.2266 12.375 11.9141 12.375H10.2734C9.25781 12.375 8.35938 12.8828 7.77344 13.625H11.25C11.5625 13.625 11.875 13.9375 11.875 14.25C11.875 14.6016 11.5625 14.875 11.25 14.875H7.1875C7.14844 15.1094 7.14844 15.3047 7.14844 15.5391C7.14844 15.7344 7.14844 15.9688 7.1875 16.125H11.25C11.5625 16.125 11.875 16.4375 11.875 16.75C11.875 17.1016 11.5625 17.375 11.25 17.375H7.73438C8.32031 18.1953 9.21875 18.7031 10.2734 18.7031H11.9141C12.2266 18.7031 12.5391 18.9766 12.5391 19.3281C12.5391 19.6797 12.2266 19.9531 11.9141 19.9531H10.2734C8.51562 19.9531 6.99219 18.8984 6.28906 17.375H5C4.64844 17.375 4.375 17.1016 4.375 16.75C4.375 16.4375 4.64844 16.125 5 16.125Z" fill="black" fill-opacity="0.72"/>
</g>
<defs>
<clipPath id="clip0_2556_16901">
<rect width="20" height="30" fill="white"/>
</clipPath>
</defs>
</svg>
