<svg width="12" height="18" viewBox="0 0 12 18" fill="none" xmlns="http://www.w3.org/2000/svg">
<g id="label-paired / caption / arrow-up-from-square-caption / regular" clip-path="url(#clip0_2556_10378)">
<path id="icon" d="M6.25781 3.61719L8.69531 6.05469C8.83594 6.19531 8.83594 6.45312 8.69531 6.59375C8.55469 6.73438 8.29688 6.73438 8.15625 6.59375L6.375 4.78906V11C6.375 11.2109 6.1875 11.375 6 11.375C5.78906 11.375 5.625 11.2109 5.625 11V4.78906L3.82031 6.59375C3.67969 6.73438 3.42188 6.73438 3.28125 6.59375C3.14062 6.45312 3.14062 6.19531 3.28125 6.05469L5.71875 3.61719C5.85938 3.47656 6.11719 3.47656 6.25781 3.61719ZM1.5 4.25H2.25C2.4375 4.25 2.625 4.4375 2.625 4.625C2.625 4.83594 2.4375 5 2.25 5H1.5C1.07812 5 0.75 5.35156 0.75 5.75V14C0.75 14.4219 1.07812 14.75 1.5 14.75H10.5C10.8984 14.75 11.25 14.4219 11.25 14V5.75C11.25 5.35156 10.8984 5 10.5 5H9.75C9.53906 5 9.375 4.83594 9.375 4.625C9.375 4.4375 9.53906 4.25 9.75 4.25H10.5C11.3203 4.25 12 4.92969 12 5.75V14C12 14.8438 11.3203 15.5 10.5 15.5H1.5C0.65625 15.5 0 14.8438 0 14V5.75C0 4.92969 0.65625 4.25 1.5 4.25Z" fill="black" fill-opacity="0.72"/>
</g>
<defs>
<clipPath id="clip0_2556_10378">
<rect width="12" height="18" fill="white"/>
</clipPath>
</defs>
</svg>
