<svg width="18" height="22" viewBox="0 0 18 22" fill="none" xmlns="http://www.w3.org/2000/svg">
<g id="label-paired / sm / person-chalkboard-sm / bold" clip-path="url(#clip0_2556_12816)">
<path id="icon" d="M5.5 6.375C5.00781 6.375 4.59766 6.12891 4.35156 5.71875C4.10547 5.33594 4.10547 4.81641 4.35156 4.40625C4.59766 4.02344 5.00781 3.75 5.5 3.75C5.96484 3.75 6.375 4.02344 6.62109 4.40625C6.86719 4.81641 6.86719 5.33594 6.62109 5.71875C6.375 6.12891 5.96484 6.375 5.5 6.375ZM5.11719 8.5625C5.08984 8.5625 5.0625 8.58984 5.0625 8.58984V12.0625H5.9375V8.5625H5.11719ZM5.0625 17.0938C5.0625 17.4766 4.76172 17.75 4.40625 17.75C4.02344 17.75 3.75 17.4766 3.75 17.0938V9.875L2.54688 11.9531C2.38281 12.2812 1.97266 12.3906 1.67188 12.1992C1.34375 12.0352 1.23438 11.625 1.42578 11.3242L3.01172 8.48047C3.44922 7.74219 4.24219 7.25 5.11719 7.25H6.89453H9V5.0625C9 4.35156 9.57422 3.75 10.3125 3.75H16.4375C17.1484 3.75 17.75 4.35156 17.75 5.0625V11.1875C17.75 11.9258 17.1484 12.5 16.4375 12.5H10.3125C9.57422 12.5 9 11.9258 9 11.1875V9.875H10.3125V11.1875H16.4375V5.0625H10.3125V7.25H10.9688C11.3242 7.25 11.625 7.55078 11.625 7.90625C11.625 8.28906 11.3242 8.5625 10.9688 8.5625H7.25V17.0938C7.25 17.4766 6.94922 17.75 6.59375 17.75C6.21094 17.75 5.9375 17.4766 5.9375 17.0938V13.375H5.0625V17.0938Z" fill="black" fill-opacity="0.72"/>
</g>
<defs>
<clipPath id="clip0_2556_12816">
<rect width="18" height="22" fill="white"/>
</clipPath>
</defs>
</svg>
