<svg width="10" height="24" viewBox="0 0 10 24" fill="none" xmlns="http://www.w3.org/2000/svg">
<g id="label-paired / md / sterling-sign-md / bold" clip-path="url(#clip0_2556_14615)">
<path id="icon" d="M3 9V11H7.25C7.65625 11 8 11.3438 8 11.75C8 12.1875 7.65625 12.5 7.25 12.5H3V14.5C3 15.2812 2.78125 16.0625 2.40625 16.7812L2 17.5H9.25C9.65625 17.5 10 17.8438 10 18.25C10 18.6875 9.65625 19 9.25 19H0.75C0.46875 19 0.21875 18.875 0.09375 18.6562C-0.03125 18.4062 -0.0625 18.125 0.0625 17.9062L1.09375 16.0625C1.34375 15.5625 1.5 15.0312 1.5 14.5V12.5H0.75C0.3125 12.5 0 12.1875 0 11.75C0 11.3438 0.3125 11 0.75 11H1.5V9C1.5 6.78125 3.28125 5 5.46875 5C5.875 5 6.3125 5.09375 6.71875 5.21875L9.21875 6.0625C9.625 6.1875 9.84375 6.59375 9.6875 7C9.5625 7.40625 9.15625 7.59375 8.75 7.46875L6.25 6.65625C6 6.5625 5.71875 6.5 5.46875 6.5C4.09375 6.5 3 7.625 3 9Z" fill="black" fill-opacity="0.72"/>
</g>
<defs>
<clipPath id="clip0_2556_14615">
<rect width="10" height="24" fill="white"/>
</clipPath>
</defs>
</svg>
