<svg width="20" height="30" viewBox="0 0 20 30" fill="none" xmlns="http://www.w3.org/2000/svg">
<g id="label-paired / lg / arrow-up-right-from-square-lg / bold" clip-path="url(#clip0_2556_17503)">
<path id="icon" d="M11.875 6.4375C11.875 5.92969 12.2656 5.5 12.8125 5.5H19.0234C19.5703 5.5 19.9609 5.92969 19.9609 6.4375V12.6875C19.9609 13.2344 19.5703 13.625 19.0234 13.625C18.5156 13.625 18.0859 13.2344 18.0859 12.6875V8.70312L9.375 17.4141C9.02344 17.8047 8.4375 17.8047 8.08594 17.4141C7.69531 17.0625 7.69531 16.4766 8.08594 16.0859L16.7969 7.375H12.8125C12.2656 7.375 11.875 6.98438 11.875 6.4375ZM2.8125 6.75H7.8125C8.32031 6.75 8.75 7.17969 8.75 7.6875C8.75 8.23438 8.32031 8.625 7.8125 8.625H2.8125C2.26562 8.625 1.875 9.05469 1.875 9.5625V22.6875C1.875 23.2344 2.26562 23.625 2.8125 23.625H15.9375C16.4453 23.625 16.875 23.2344 16.875 22.6875V17.6875C16.875 17.1797 17.2656 16.75 17.8125 16.75C18.3203 16.75 18.75 17.1797 18.75 17.6875V22.6875C18.75 24.25 17.4609 25.5 15.9375 25.5H2.8125C1.25 25.5 0 24.25 0 22.6875V9.5625C0 8.03906 1.25 6.75 2.8125 6.75Z" fill="black" fill-opacity="0.72"/>
</g>
<defs>
<clipPath id="clip0_2556_17503">
<rect width="20" height="30" fill="white"/>
</clipPath>
</defs>
</svg>
