<svg width="20" height="30" viewBox="0 0 20 30" fill="none" xmlns="http://www.w3.org/2000/svg">
<g id="label-paired / lg / thumbs-up-lg / regular" clip-path="url(#clip0_2556_17429)">
<path id="icon" d="M11.25 8.70312L11.0938 9.36719C10.6641 10.9297 9.64844 12.2969 8.28125 13.1562L8.16406 13.2344C7.85156 13.4297 7.57812 13.7031 7.34375 14.0156C7.14844 14.2891 6.75781 14.3672 6.48438 14.1719C6.21094 13.9375 6.13281 13.5469 6.32812 13.2734C6.64062 12.8438 7.03125 12.4922 7.5 12.1797L7.61719 12.1016C8.71094 11.3984 9.53125 10.3047 9.88281 9.01562L10.0391 8.39062C10.3906 7.21875 11.5625 6.51562 12.7344 6.82812C13.9062 7.17969 14.6094 8.35156 14.2969 9.52344L14.1016 10.1875C13.9453 10.7344 13.75 11.2422 13.5156 11.75H17.5C18.8672 11.75 20 12.8828 20 14.25C20 14.9531 19.6875 15.5781 19.2578 16.0469C19.3359 16.2812 19.375 16.5156 19.375 16.75C19.375 17.4922 19.0234 18.1562 18.5547 18.625C18.6719 18.8984 18.75 19.25 18.75 19.5625C18.75 20.5 18.2422 21.3203 17.5 21.75C17.5 23.1562 16.3672 24.25 15 24.25H11.4844C10.625 24.25 9.76562 24.0156 9.0625 23.5469L7.53906 22.5312C7.07031 22.1797 6.64062 21.7891 6.32812 21.2812C6.13281 21.0078 6.21094 20.6172 6.52344 20.4219C6.79688 20.2266 7.1875 20.3047 7.38281 20.6172C7.61719 20.9688 7.89062 21.2422 8.24219 21.4766L9.76562 22.4922C10.2734 22.8438 10.8594 23 11.4844 23H15C15.6641 23 16.25 22.4531 16.25 21.75C16.25 21.6719 16.2109 21.5938 16.2109 21.5156C16.1328 21.2031 16.3281 20.8516 16.6406 20.7734C17.1094 20.6172 17.5 20.1484 17.5 19.6016C17.5 19.2891 17.3828 19.0156 17.2266 18.8203C17.1094 18.6641 17.0703 18.5078 17.1094 18.3125C17.1484 18.1172 17.2656 17.9609 17.4219 17.8828C17.8516 17.6875 18.125 17.2578 18.125 16.7891C18.125 16.5547 18.0469 16.3203 17.9297 16.1641C17.7734 15.8516 17.8906 15.5 18.1641 15.3438C18.5156 15.1094 18.75 14.7188 18.75 14.2891C18.75 13.5859 18.1641 13.0391 17.5 13.0391H12.4609C12.2266 13.0391 12.0312 12.8828 11.9141 12.6875C11.7969 12.4922 11.7969 12.2578 11.9141 12.0625C12.3438 11.3984 12.6953 10.6172 12.8906 9.83594L13.0859 9.21094C13.2031 8.70312 12.9297 8.19531 12.4219 8.03906C11.9141 7.92188 11.4062 8.19531 11.25 8.70312ZM1.25 14.25V23H3.75V14.25H1.25ZM0 14.25C0 13.5859 0.546875 13 1.25 13H3.75C4.41406 13 5 13.5859 5 14.25V23C5 23.7031 4.41406 24.25 3.75 24.25H1.25C0.546875 24.25 0 23.7031 0 23V14.25Z" fill="black" fill-opacity="0.72"/>
</g>
<defs>
<clipPath id="clip0_2556_17429">
<rect width="20" height="30" fill="white"/>
</clipPath>
</defs>
</svg>
