<svg width="11" height="18" viewBox="0 0 11 18" fill="none" xmlns="http://www.w3.org/2000/svg">
<g id="label-paired / caption / arrow-down-to-bracket-caption / bold" clip-path="url(#clip0_2556_10523)">
<path id="icon" d="M8.89844 8.58594L5.89844 11.5859C5.66406 11.8203 5.3125 11.8203 5.10156 11.5859L2.10156 8.58594C1.86719 8.375 1.86719 8.02344 2.10156 7.8125C2.3125 7.57812 2.66406 7.57812 2.875 7.8125L4.91406 9.85156V4.0625C4.91406 3.75781 5.17188 3.5 5.47656 3.5C5.80469 3.5 6.03906 3.75781 6.03906 4.0625V9.85156L8.07812 7.8125C8.3125 7.57812 8.66406 7.57812 8.875 7.8125C9.10938 8.02344 9.10938 8.375 8.875 8.58594H8.89844ZM1.375 11.5625V13.4375C1.375 13.9766 1.77344 14.375 2.3125 14.375H8.6875C9.20312 14.375 9.625 13.9766 9.625 13.4375V11.5625C9.625 11.2578 9.85938 11 10.1875 11C10.4922 11 10.75 11.2578 10.75 11.5625V13.4375C10.75 14.5859 9.8125 15.5 8.6875 15.5H2.3125C1.16406 15.5 0.25 14.5859 0.25 13.4375V11.5625C0.25 11.2578 0.484375 11 0.8125 11C1.11719 11 1.375 11.2578 1.375 11.5625Z" fill="black" fill-opacity="0.72"/>
</g>
<defs>
<clipPath id="clip0_2556_10523">
<rect width="11" height="18" fill="white"/>
</clipPath>
</defs>
</svg>
