<svg width="30" height="36" viewBox="0 0 30 36" fill="none" xmlns="http://www.w3.org/2000/svg">
<g id="label-paired / xl / hand-gesture-swipe-left-right-xl / bold" clip-path="url(#clip0_3546_641)">
<path id="icon" d="M15 10.8281C16.0312 10.8281 16.875 11.6719 16.875 12.7031V15.5156C16.9219 15.5156 17.0156 15.5156 17.1094 15.5156C17.8125 15.5156 18.4219 15.9375 18.75 16.5C18.8906 16.4531 19.0312 16.4531 19.2188 16.4531C19.875 16.4531 20.4844 16.875 20.8125 17.3906C20.9062 17.3906 21 17.3906 21.0938 17.3906C22.125 17.3906 22.9688 18.2344 22.9688 19.2656V22.3125C22.9688 24.2812 21.375 25.8281 19.4531 25.8281H15.75C14.9531 25.8281 14.2031 25.5938 13.5 25.2188L13.4062 25.1719C12.0469 24.375 11.25 22.9219 11.25 21.3281V21.0469C11.25 20.2969 11.5312 19.5938 12.0469 19.125L12.6562 18.5625C12.7969 18.4688 12.9375 18.3281 13.125 18.2344V12.7031C13.125 11.6719 13.9219 10.8281 15 10.8281ZM14.5312 12.7031V20.9062C14.5312 21.1406 14.2969 21.375 14.0625 21.375C13.7812 21.375 13.5938 21.1406 13.5938 20.9062V19.6875L13.0312 20.1562C12.75 20.3906 12.6562 20.6719 12.6562 21.0469V21.3281C12.6562 22.4062 13.2188 23.4375 14.1562 23.9531L14.2031 24C14.6719 24.2812 15.2344 24.4219 15.75 24.4219H19.4531C20.5781 24.4219 21.5625 23.4844 21.5625 22.3125V19.2656C21.5625 19.0312 21.3281 18.7969 21.0938 18.7969C20.9531 18.7969 20.8594 18.8438 20.7656 18.8906C20.5781 19.0312 20.2969 19.0781 20.0625 18.9844C19.8281 18.8438 19.6875 18.6094 19.6875 18.375C19.6875 18.0938 19.4531 17.9062 19.2188 17.9062C19.0312 17.9062 18.9375 17.9531 18.8438 18.0469C18.6562 18.2812 18.3281 18.4219 18.0469 18.2812C17.7656 18.1875 17.5781 17.9531 17.5781 17.6719V17.4375C17.5781 17.1562 17.3438 16.9688 17.1094 16.9688C16.9219 16.9688 16.8281 17.0156 16.7344 17.1094C16.5469 17.3438 16.2188 17.4844 15.9375 17.3438C15.6562 17.25 15.4688 17.0156 15.4688 16.6875V12.7031C15.4688 12.4688 15.2344 12.2344 15 12.2344C14.7188 12.2344 14.5312 12.4688 14.5312 12.7031ZM22.7812 15.4688L25.3125 12.9375C25.5938 12.6562 25.5938 12.2344 25.3125 12L22.6406 9.28125C22.3594 9.04688 21.9375 9.04688 21.6562 9.28125C21.4219 9.5625 21.4219 9.98438 21.6562 10.2656L23.2031 11.7656H18.6562C18.2812 11.7656 18 12.0938 18 12.4688C18 12.8438 18.2812 13.125 18.6562 13.125H23.2031L21.8438 14.4844C21.5625 14.7656 21.5625 15.1875 21.8438 15.4688C22.125 15.7031 22.5469 15.7031 22.7812 15.4688ZM7.17188 15.4688L4.6875 12.9375C4.40625 12.6562 4.40625 12.2344 4.6875 12L7.35938 9.28125C7.64062 9.04688 8.0625 9.04688 8.29688 9.28125C8.57812 9.5625 8.57812 9.98438 8.29688 10.2656L6.79688 11.7656H11.3438C11.7188 11.7656 12 12.0938 12 12.4688C12 12.8438 11.7188 13.125 11.3438 13.125H6.79688L8.15625 14.4844C8.39062 14.7656 8.39062 15.1875 8.15625 15.4688C7.875 15.7031 7.45312 15.7031 7.17188 15.4688Z" fill="black" fill-opacity="0.72"/>
</g>
<defs>
<clipPath id="clip0_3546_641">
<rect width="30" height="36" fill="white"/>
</clipPath>
</defs>
</svg>
