<svg width="9" height="18" viewBox="0 0 9 18" fill="none" xmlns="http://www.w3.org/2000/svg">
<g id="label-paired / caption / percent-caption / fill" clip-path="url(#clip0_2556_10021)">
<path id="icon" d="M8.76562 6.28906L1.26562 13.7891C0.984375 14.0938 0.492188 14.0938 0.210938 13.7891C-0.09375 13.5078 -0.09375 13.0156 0.210938 12.7344L7.71094 5.23438C7.99219 4.92969 8.48438 4.92969 8.76562 5.23438C9.07031 5.51562 9.07031 6.00781 8.76562 6.28906ZM3 6.5C3 7.03906 2.69531 7.53125 2.25 7.8125C1.78125 8.07031 1.19531 8.07031 0.75 7.8125C0.28125 7.53125 0 7.03906 0 6.5C0 5.98438 0.28125 5.49219 0.75 5.21094C1.19531 4.95312 1.78125 4.95312 2.25 5.21094C2.69531 5.49219 3 5.98438 3 6.5ZM9 12.5C9 13.0391 8.69531 13.5312 8.25 13.8125C7.78125 14.0703 7.19531 14.0703 6.75 13.8125C6.28125 13.5312 6 13.0391 6 12.5C6 11.9844 6.28125 11.4922 6.75 11.2109C7.19531 10.9531 7.78125 10.9531 8.25 11.2109C8.69531 11.4922 9 11.9844 9 12.5Z" fill="black" fill-opacity="0.72"/>
</g>
<defs>
<clipPath id="clip0_2556_10021">
<rect width="9" height="18" fill="white"/>
</clipPath>
</defs>
</svg>
