<svg width="9" height="22" viewBox="0 0 9 22" fill="none" xmlns="http://www.w3.org/2000/svg">
<g id="label-paired / sm / nine-sm / fill" clip-path="url(#clip0_2556_12891)">
<path id="icon" d="M1.875 9C1.875 9.95703 2.36719 10.8047 3.1875 11.2969C3.98047 11.7617 4.99219 11.7617 5.8125 11.2969C6.60547 10.8047 7.125 9.95703 7.125 9C7.125 8.07031 6.60547 7.22266 5.8125 6.73047C4.99219 6.26562 3.98047 6.26562 3.1875 6.73047C2.36719 7.22266 1.875 8.07031 1.875 9ZM4.25391 13.375C1.95703 13.2656 0.125 11.3516 0.125 9C0.125 6.59375 2.06641 4.625 4.5 4.625C6.90625 4.625 8.875 6.59375 8.875 9C8.875 9.08203 8.84766 9.16406 8.84766 9.21875C8.82031 10.2031 8.4375 11.1328 7.80859 11.8984L3.84375 16.5742C3.54297 16.957 2.96875 16.9844 2.61328 16.6836C2.23047 16.3828 2.20312 15.8086 2.50391 15.4531L4.25391 13.375Z" fill="black" fill-opacity="0.72"/>
</g>
<defs>
<clipPath id="clip0_2556_12891">
<rect width="9" height="22" fill="white"/>
</clipPath>
</defs>
</svg>
