<svg width="16" height="24" viewBox="0 0 16 24" fill="none" xmlns="http://www.w3.org/2000/svg">
<g id="label-paired / md / triangle-exclamation-md / regular" clip-path="url(#clip0_2556_15049)">
<path id="icon" d="M1.0625 17.1562C1 17.25 1 17.3438 1 17.4375C1 17.75 1.25 18.0312 1.5625 18.0312H14.4062C14.7188 18.0312 15 17.75 15 17.4375C15 17.3438 14.9688 17.25 14.9062 17.1562L8.625 6.375C8.5 6.15625 8.25 6 8 6C7.71875 6 7.46875 6.15625 7.34375 6.375L1.0625 17.1562ZM0.1875 16.6562L6.46875 5.875C6.78125 5.34375 7.375 5 8 5C8.59375 5 9.1875 5.34375 9.5 5.875L15.7812 16.6562C15.9062 16.875 16 17.1562 16 17.4375C16 18.3125 15.2812 19 14.4062 19H1.5625C0.6875 19 0 18.3125 0 17.4375C0 17.1562 0.0625 16.875 0.1875 16.6562ZM8 9C8.25 9 8.5 9.25 8.5 9.5V13.5C8.5 13.7812 8.25 14 8 14C7.71875 14 7.5 13.7812 7.5 13.5V9.5C7.5 9.25 7.71875 9 8 9ZM7.25 16C7.25 15.5938 7.5625 15.25 8 15.25C8.40625 15.25 8.75 15.5938 8.75 16C8.75 16.4375 8.40625 16.75 8 16.75C7.5625 16.75 7.25 16.4375 7.25 16Z" fill="black" fill-opacity="0.72"/>
</g>
<defs>
<clipPath id="clip0_2556_15049">
<rect width="16" height="24" fill="white"/>
</clipPath>
</defs>
</svg>
