<svg width="16" height="24" viewBox="0 0 16 24" fill="none" xmlns="http://www.w3.org/2000/svg">
<g id="label-paired / md / circle-two-md / regular" clip-path="url(#clip0_2556_15304)">
<path id="icon" d="M8 5C5.46875 5 3.1875 6.34375 1.9375 8.5C0.65625 10.6875 0.65625 13.3438 1.9375 15.5C3.1875 17.6875 5.46875 19 8 19C10.5 19 12.7812 17.6875 14.0312 15.5C15.3125 13.3438 15.3125 10.6875 14.0312 8.5C12.7812 6.34375 10.5 5 8 5ZM8 20C5.125 20 2.5 18.5 1.0625 16C-0.375 13.5312 -0.375 10.5 1.0625 8C2.5 5.53125 5.125 4 8 4C10.8438 4 13.4688 5.53125 14.9062 8C16.3438 10.5 16.3438 13.5312 14.9062 16C13.4688 18.5 10.8438 20 8 20ZM6.78125 9.46875L6.3125 9.875C6.125 10.0625 5.8125 10.0625 5.625 9.84375C5.4375 9.65625 5.4375 9.34375 5.65625 9.15625L6.09375 8.75C6.5625 8.28125 7.21875 8.03125 7.90625 8.03125C9.34375 8.03125 10.5 9.21875 10.5 10.625C10.5 11.3438 10.2188 12 9.71875 12.5L7.1875 15H10.5C10.75 15 11 15.25 11 15.5C11 15.7812 10.75 16 10.5 16H6C5.78125 16 5.59375 15.875 5.53125 15.7188C5.4375 15.5312 5.5 15.3125 5.625 15.1562L9 11.7812C9.3125 11.4688 9.5 11.0625 9.5 10.625C9.5 9.75 8.78125 9.03125 7.90625 9.03125C7.46875 9.03125 7.0625 9.1875 6.78125 9.46875Z" fill="black" fill-opacity="0.72"/>
</g>
<defs>
<clipPath id="clip0_2556_15304">
<rect width="16" height="24" fill="white"/>
</clipPath>
</defs>
</svg>
