<svg width="16" height="24" viewBox="0 0 16 24" fill="none" xmlns="http://www.w3.org/2000/svg">
<g id="label-paired / md / wallet-md / bold" clip-path="url(#clip0_2556_14645)">
<path id="icon" d="M2.75 5H14.25C14.6562 5 15 5.34375 15 5.75C15 6.1875 14.6562 6.5 14.25 6.5H2.75C2.03125 6.5 1.5 7.0625 1.5 7.75V16.25C1.5 16.9688 2.03125 17.5 2.75 17.5H13.25C13.9375 17.5 14.5 16.9688 14.5 16.25V10.75C14.5 10.0625 13.9375 9.5 13.25 9.5H3.75C3.3125 9.5 3 9.1875 3 8.75C3 8.34375 3.3125 8 3.75 8H13.25C14.75 8 16 9.25 16 10.75V16.25C16 17.7812 14.75 19 13.25 19H2.75C1.21875 19 0 17.7812 0 16.25V7.75C0 6.25 1.21875 5 2.75 5ZM12 14.5C11.4375 14.5 11 14.0625 11 13.5C11 12.9688 11.4375 12.5 12 12.5C12.5312 12.5 13 12.9688 13 13.5C13 14.0625 12.5312 14.5 12 14.5Z" fill="black" fill-opacity="0.72"/>
</g>
<defs>
<clipPath id="clip0_2556_14645">
<rect width="16" height="24" fill="white"/>
</clipPath>
</defs>
</svg>
