<svg width="12" height="18" viewBox="0 0 12 18" fill="none" xmlns="http://www.w3.org/2000/svg">
<g id="label-paired / caption / message-lines-caption / bold" clip-path="url(#clip0_2981_643)">
<path id="icon" d="M4.875 13.25V13.625L6.5625 12.3594C6.75 12.2188 6.98438 12.125 7.24219 12.125H10.5C10.6875 12.125 10.875 11.9609 10.875 11.75V5C10.875 4.8125 10.6875 4.625 10.5 4.625H1.5C1.28906 4.625 1.125 4.8125 1.125 5V11.75C1.125 11.9609 1.28906 12.125 1.5 12.125H3.75C4.35938 12.125 4.875 12.6406 4.875 13.25ZM4.85156 15.0547L4.73438 15.125L4.33594 15.4297C4.21875 15.5234 4.07812 15.5234 3.9375 15.4766C3.82031 15.4062 3.75 15.2891 3.75 15.125V14.6328V14.4922V14.4688V14.375V13.25H2.625H1.5C0.65625 13.25 0 12.5938 0 11.75V5C0 4.17969 0.65625 3.5 1.5 3.5H10.5C11.3203 3.5 12 4.17969 12 5V11.75C12 12.5938 11.3203 13.25 10.5 13.25H7.24219L4.875 15.0312L4.85156 15.0547ZM3.5625 6.875H8.4375C8.74219 6.875 9 7.13281 9 7.4375C9 7.76562 8.74219 8 8.4375 8H3.5625C3.23438 8 3 7.76562 3 7.4375C3 7.13281 3.23438 6.875 3.5625 6.875ZM3.5625 9.125H6.1875C6.49219 9.125 6.75 9.38281 6.75 9.6875C6.75 10.0156 6.49219 10.25 6.1875 10.25H3.5625C3.23438 10.25 3 10.0156 3 9.6875C3 9.38281 3.23438 9.125 3.5625 9.125Z" fill="black" fill-opacity="0.72"/>
</g>
<defs>
<clipPath id="clip0_2981_643">
<rect width="12" height="18" fill="white"/>
</clipPath>
</defs>
</svg>
