<svg width="14" height="22" viewBox="0 0 14 22" fill="none" xmlns="http://www.w3.org/2000/svg">
<g id="label-paired / sm / rotate-device-sm / bold" clip-path="url(#clip0_4329_549)">
<path id="icon" d="M11.4297 6.45703C12.3867 7.41406 12.8516 8.64453 12.8516 9.90234H13.207H13.5625C13.5625 8.48047 13.0156 7.03125 11.9219 5.9375C11.6758 5.71875 11.4297 5.5 11.1836 5.30859L10.9102 5.14453C10.582 4.95312 10.2539 4.78906 9.92578 4.65234L9.59766 4.54297L9.21484 4.46094C8.91406 4.37891 8.58594 4.32422 8.28516 4.32422L7.95703 4.29688H7.10938L9.24219 6.42969L9.48828 6.18359L9.73438 5.9375L8.88672 5.08984C8.94141 5.11719 8.99609 5.11719 9.07812 5.14453L9.37891 5.22656L9.67969 5.33594C9.98047 5.44531 10.2539 5.58203 10.5273 5.74609L10.7734 5.88281C10.9922 6.04688 11.2109 6.23828 11.4297 6.45703ZM2.73438 15.125C1.77734 14.168 1.28516 12.9375 1.28516 11.6797H0.957031H0.601562C0.601562 13.1016 1.14844 14.5508 2.24219 15.6445C2.46094 15.8633 2.73438 16.082 2.98047 16.2734L3.25391 16.4375C3.55469 16.6289 3.88281 16.793 4.23828 16.9297L4.56641 17.0391L4.92188 17.1211C5.25 17.2031 5.55078 17.2578 5.87891 17.2578L6.20703 17.2852H7.02734L4.92188 15.125L4.67578 15.3711L4.42969 15.6172L5.27734 16.4922C5.22266 16.4648 5.14062 16.4648 5.08594 16.4375L4.78516 16.3555L4.48438 16.2461C4.18359 16.1367 3.91016 16 3.63672 15.8359L3.39062 15.6992C3.17188 15.5352 2.92578 15.3438 2.73438 15.125ZM11.6484 12.8828L9.1875 15.3711C8.69531 15.8359 7.92969 15.8359 7.4375 15.3711L2.48828 10.4219C2.02344 9.92969 2.02344 9.16406 2.48828 8.69922L4.97656 6.21094C5.44141 5.74609 6.23438 5.74609 6.69922 6.21094L11.6484 11.1602C12.1406 11.6523 12.1406 12.418 11.6484 12.8828ZM5.22266 7.93359L4.23828 8.94531C4.01953 9.13672 3.69141 9.13672 3.5 8.94531L3.36328 8.80859L3.00781 9.19141C2.78906 9.38281 2.78906 9.71094 3.00781 9.92969L7.95703 14.8789C8.14844 15.0703 8.47656 15.0703 8.69531 14.8789L11.1562 12.3906C11.375 12.1992 11.375 11.8711 11.1562 11.6523L6.20703 6.70312C6.01562 6.51172 5.6875 6.51172 5.46875 6.70312L5.08594 7.08594L5.22266 7.19531C5.41406 7.41406 5.41406 7.74219 5.22266 7.93359ZM4.78516 7.57812L4.59375 7.38672L3.66406 8.31641L3.85547 8.50781L4.78516 7.57812Z" fill="black" fill-opacity="0.72"/>
</g>
<defs>
<clipPath id="clip0_4329_549">
<rect width="14" height="22" fill="white"/>
</clipPath>
</defs>
</svg>
