<svg width="16" height="22" viewBox="0 0 16 22" fill="none" xmlns="http://www.w3.org/2000/svg">
<g id="label-paired / sm / share-from-square-sm / regular" clip-path="url(#clip0_3997_640)">
<path id="icon" d="M11.0625 11.4062C11.0625 11.543 11.1445 11.625 11.2812 11.625C11.3359 11.625 11.3906 11.625 11.418 11.5703L14.9453 8.23438C14.9727 8.20703 14.9727 8.17969 14.9727 8.125C14.9727 8.09766 14.9727 8.07031 14.9453 8.04297L11.418 4.70703C11.3906 4.65234 11.3359 4.625 11.2812 4.625C11.1445 4.625 11.0625 4.73438 11.0625 4.84375V5.9375V6.375C11.0625 6.62109 10.8438 6.8125 10.625 6.8125H10.1875H9.3125H8C6.05859 6.8125 4.5 8.39844 4.5 10.3125C4.5 11.2969 4.91016 12.0078 5.40234 12.5273C5.375 12.3906 5.375 12.2539 5.375 12.1172C5.375 10.6406 6.55078 9.4375 8.02734 9.4375H9.3125H9.75H10.1875H10.625C10.8438 9.4375 11.0625 9.65625 11.0625 9.875V10.3125V11.4062ZM10.1875 10.3125H9.75H9.3125H8.02734C7.04297 10.3125 6.25 11.1328 6.25 12.1172C6.25 12.5273 6.63281 12.9648 6.87891 13.2109C7.01562 13.3203 7.125 13.4844 7.125 13.6758V13.7031C7.125 14.0039 6.85156 14.25 6.55078 14.25C6.49609 14.25 6.41406 14.25 6.35938 14.2227C5.86719 14.0039 3.625 12.8828 3.625 10.3125C3.625 7.90625 5.56641 5.9375 8 5.9375H9.3125H10.1875V5.0625V4.84375C10.1875 4.24219 10.6797 3.75 11.2812 3.75C11.5547 3.75 11.8281 3.85938 12.0195 4.05078L15.5469 7.38672C15.7383 7.57812 15.875 7.85156 15.875 8.125C15.875 8.42578 15.7383 8.67188 15.5469 8.86328L12.0195 12.1992C11.8281 12.418 11.5547 12.5 11.2812 12.5C10.6797 12.5 10.1875 12.0352 10.1875 11.4062V11.1875V10.3125ZM1.875 4.625H3.1875C3.40625 4.625 3.625 4.84375 3.625 5.0625C3.625 5.30859 3.40625 5.5 3.1875 5.5H1.875C1.38281 5.5 1 5.91016 1 6.375V16C1 16.4922 1.38281 16.875 1.875 16.875H11.5C11.9648 16.875 12.375 16.4922 12.375 16V14.6875C12.375 14.4688 12.5664 14.25 12.8125 14.25C13.0312 14.25 13.25 14.4688 13.25 14.6875V16C13.25 16.9844 12.457 17.75 11.5 17.75H1.875C0.890625 17.75 0.125 16.9844 0.125 16V6.375C0.125 5.41797 0.890625 4.625 1.875 4.625Z" fill="black" fill-opacity="0.72"/>
</g>
<defs>
<clipPath id="clip0_3997_640">
<rect width="16" height="22" fill="white"/>
</clipPath>
</defs>
</svg>
