<svg width="16" height="24" viewBox="0 0 16 24" fill="none" xmlns="http://www.w3.org/2000/svg">
<g id="label-paired / md / circle-seven-md / regular" clip-path="url(#clip0_2556_14815)">
<path id="icon" d="M8 5C5.46875 5 3.1875 6.34375 1.9375 8.5C0.65625 10.6875 0.65625 13.3438 1.9375 15.5C3.1875 17.6875 5.46875 19 8 19C10.5 19 12.7812 17.6875 14.0312 15.5C15.3125 13.3438 15.3125 10.6875 14.0312 8.5C12.7812 6.34375 10.5 5 8 5ZM8 20C5.125 20 2.5 18.5 1.0625 16C-0.375 13.5312 -0.375 10.5 1.0625 8C2.5 5.53125 5.125 4 8 4C10.8438 4 13.4688 5.53125 14.9062 8C16.3438 10.5 16.3438 13.5312 14.9062 16C13.4688 18.5 10.8438 20 8 20ZM5.5 8H10.5C10.6562 8 10.8125 8.09375 10.9062 8.25C11 8.40625 11 8.59375 10.9062 8.75L6.90625 15.75C6.78125 16 6.46875 16.0938 6.25 15.9375C6 15.8125 5.90625 15.5 6.0625 15.2812L9.625 9H5.5C5.21875 9 5 8.78125 5 8.5C5 8.25 5.21875 8 5.5 8Z" fill="black" fill-opacity="0.72"/>
</g>
<defs>
<clipPath id="clip0_2556_14815">
<rect width="16" height="24" fill="white"/>
</clipPath>
</defs>
</svg>
