<svg width="18" height="24" viewBox="0 0 18 24" fill="none" xmlns="http://www.w3.org/2000/svg">
<g id="label-paired / md / presentation-screen-md / bold" clip-path="url(#clip0_2556_14913)">
<path id="icon" d="M0.75 4H17.25C17.6562 4 18 4.34375 18 4.75C18 5.1875 17.6562 5.5 17.25 5.5H0.75C0.3125 5.5 0 5.1875 0 4.75C0 4.34375 0.3125 4 0.75 4ZM1 6.5H2.5V13.25C2.5 13.4062 2.59375 13.5 2.75 13.5H9H15.25C15.375 13.5 15.5 13.4062 15.5 13.25V6.5H17V13.25C17 14.2188 16.1875 15 15.25 15H9.71875V16.4688L12 18.75C12.3125 19.0312 12.3125 19.5 12 19.7812C11.7188 20.0938 11.25 20.0938 10.9375 19.7812L8.96875 17.8125L7 19.7812C6.71875 20.0938 6.25 20.0938 5.96875 19.7812C5.65625 19.5 5.65625 19.0312 5.96875 18.75L8.25 16.4688V15H2.75C1.78125 15 1 14.2188 1 13.25V6.5Z" fill="black" fill-opacity="0.72"/>
</g>
<defs>
<clipPath id="clip0_2556_14913">
<rect width="18" height="24" fill="white"/>
</clipPath>
</defs>
</svg>
