<svg width="16" height="24" viewBox="0 0 16 24" fill="none" xmlns="http://www.w3.org/2000/svg">
<g id="label-paired / md / circle-arrow-down-right-md / regular" clip-path="url(#clip0_2556_15296)">
<path id="icon" d="M8 19C10.5 19 12.7812 17.6875 14.0312 15.5C15.3125 13.3438 15.3125 10.6875 14.0312 8.5C12.7812 6.34375 10.5 5 8 5C5.46875 5 3.1875 6.34375 1.9375 8.5C0.65625 10.6875 0.65625 13.3438 1.9375 15.5C3.1875 17.6875 5.46875 19 8 19ZM8 4C10.8438 4 13.4688 5.53125 14.9062 8C16.3438 10.5 16.3438 13.5312 14.9062 16C13.4688 18.5 10.8438 20 8 20C5.125 20 2.5 18.5 1.0625 16C-0.375 13.5312 -0.375 10.5 1.0625 8C2.5 5.53125 5.125 4 8 4ZM6.25 15C5.96875 15 5.75 14.7812 5.75 14.5C5.75 14.25 5.96875 14 6.25 14H9.28125L5.125 9.875C4.9375 9.6875 4.9375 9.34375 5.125 9.15625C5.3125 8.96875 5.65625 8.96875 5.84375 9.15625L10 13.3125V10C10 9.75 10.2188 9.5 10.5 9.5C10.75 9.5 11 9.75 11 10V14.5C11 14.7812 10.75 15 10.5 15H6.25Z" fill="black" fill-opacity="0.72"/>
</g>
<defs>
<clipPath id="clip0_2556_15296">
<rect width="16" height="24" fill="white"/>
</clipPath>
</defs>
</svg>
