<svg width="16" height="24" viewBox="0 0 16 24" fill="none" xmlns="http://www.w3.org/2000/svg">
<g id="label-paired / md / location-crosshairs-md / bold" clip-path="url(#clip0_2556_15278)">
<path id="icon" d="M8 4C8.40625 4 8.75 4.34375 8.75 4.75V6.0625C11.4375 6.40625 13.5938 8.5625 13.9375 11.25H15.25C15.6562 11.25 16 11.5938 16 12C16 12.4375 15.6562 12.75 15.25 12.75H13.9375C13.5938 15.4688 11.4375 17.625 8.75 17.9688V19.25C8.75 19.6875 8.40625 20 8 20C7.5625 20 7.25 19.6875 7.25 19.25V17.9688C4.53125 17.625 2.375 15.4688 2.03125 12.75H0.75C0.3125 12.75 0 12.4375 0 12C0 11.5938 0.3125 11.25 0.75 11.25H2.03125C2.375 8.5625 4.53125 6.40625 7.25 6.0625V4.75C7.25 4.34375 7.5625 4 8 4ZM3.5 12C3.5 13.625 4.34375 15.0938 5.75 15.9062C7.125 16.7188 8.84375 16.7188 10.25 15.9062C11.625 15.0938 12.5 13.625 12.5 12C12.5 10.4062 11.625 8.9375 10.25 8.125C8.84375 7.3125 7.125 7.3125 5.75 8.125C4.34375 8.9375 3.5 10.4062 3.5 12ZM9.5 12C9.5 11.4688 9.1875 11 8.75 10.7188C8.28125 10.4375 7.6875 10.4375 7.25 10.7188C6.78125 11 6.5 11.4688 6.5 12C6.5 12.5625 6.78125 13.0312 7.25 13.3125C7.6875 13.5938 8.28125 13.5938 8.75 13.3125C9.1875 13.0312 9.5 12.5625 9.5 12ZM5 12C5 10.9375 5.5625 9.96875 6.5 9.40625C7.40625 8.875 8.5625 8.875 9.5 9.40625C10.4062 9.96875 11 10.9375 11 12C11 13.0938 10.4062 14.0625 9.5 14.625C8.5625 15.1562 7.40625 15.1562 6.5 14.625C5.5625 14.0625 5 13.0938 5 12Z" fill="black" fill-opacity="0.72"/>
</g>
<defs>
<clipPath id="clip0_2556_15278">
<rect width="16" height="24" fill="white"/>
</clipPath>
</defs>
</svg>
