<svg width="24" height="36" viewBox="0 0 24 36" fill="none" xmlns="http://www.w3.org/2000/svg">
<g id="label-paired / xl / fingerprint-xl / fill" clip-path="url(#clip0_2512_1116)">
<path id="icon" d="M2.25 18V19.875C2.1875 20.5625 1.8125 20.9375 1.125 21C0.4375 20.9375 0.0625 20.5625 0 19.875V18C0.03125 15.75 0.578125 13.7344 1.64062 11.9531C2.70312 10.1406 4.14062 8.70312 5.95312 7.64062C7.73438 6.57812 9.75 6.03125 12 6C13.8438 6 15.5469 6.375 17.1094 7.125C18.6719 7.875 20 8.89062 21.0938 10.1719C21.5 10.7344 21.4688 11.2656 21 11.7656C20.4375 12.1719 19.9062 12.1406 19.4062 11.6719C18.5 10.6094 17.4062 9.78125 16.125 9.1875C14.875 8.5625 13.5 8.25 12 8.25C9.25 8.3125 6.95312 9.26562 5.10938 11.1094C3.26562 12.9531 2.3125 15.25 2.25 18ZM23.7656 15.5156C23.9219 16.3281 24 17.1562 24 18V19.875C23.9375 20.5625 23.5625 20.9375 22.875 21C22.1875 20.9375 21.8125 20.5625 21.75 19.875V18C21.75 17.3125 21.6875 16.6406 21.5625 15.9844C21.4688 15.2969 21.75 14.8594 22.4062 14.6719C23.0938 14.5781 23.5469 14.8594 23.7656 15.5156ZM12 9.75C14.3438 9.8125 16.2969 10.625 17.8594 12.1875C19.3906 13.7188 20.1875 15.6562 20.25 18V19.1719C20.25 20.4844 20.1719 21.7812 20.0156 23.0625C19.8906 23.6562 19.5312 23.9688 18.9375 24C18.5625 24 18.2812 23.875 18.0938 23.625C17.875 23.375 17.7812 23.0625 17.8125 22.6875C17.9375 21.5312 18 20.3594 18 19.1719V18C17.9688 16.3125 17.3906 14.8906 16.2656 13.7344C15.1094 12.6094 13.6875 12.0312 12 12C11.4688 12 10.9531 12.0625 10.4531 12.1875C9.89062 12.3438 9.42188 12.2344 9.04688 11.8594C8.79688 11.5469 8.71875 11.2188 8.8125 10.875C8.875 10.5312 9.09375 10.2969 9.46875 10.1719C10.25 9.89062 11.0938 9.75 12 9.75ZM7.07812 12.9844C7.42188 13.4844 7.42188 14.0156 7.07812 14.5781C6.39062 15.5781 6.03125 16.7188 6 18V19.1719C6 20.5156 5.84375 21.8594 5.53125 23.2031C5.375 23.7031 5.03125 23.9688 4.5 24C4.125 24 3.82812 23.8438 3.60938 23.5312C3.39062 23.25 3.3125 22.9219 3.375 22.5469C3.625 21.4219 3.75 20.2969 3.75 19.1719V18C3.78125 16.0625 4.35938 14.375 5.48438 12.9375C5.70312 12.6875 5.96875 12.5625 6.28125 12.5625C6.5625 12.5938 6.82812 12.7344 7.07812 12.9844ZM12 13.5C13.2812 13.5312 14.3438 13.9688 15.1875 14.8125C16.0312 15.6562 16.4688 16.7188 16.5 18V19.1719C16.5 21.0469 16.3125 22.8906 15.9375 24.7031C15.8125 25.2031 15.4844 25.4688 14.9531 25.5C14.6406 25.5 14.375 25.375 14.1562 25.125C13.9688 24.875 13.9062 24.5781 13.9688 24.2344C14.2812 22.5469 14.4375 20.8594 14.4375 19.1719V18C14.4062 17.3125 14.1719 16.7344 13.7344 16.2656C13.2656 15.8281 12.6875 15.5938 12 15.5625C11.3125 15.5938 10.7344 15.8281 10.2656 16.2656C9.82812 16.7344 9.59375 17.3125 9.5625 18V19.1719C9.5625 21.0781 9.3125 22.9531 8.8125 24.7969C8.65625 25.2344 8.34375 25.4688 7.875 25.5C7.5 25.5 7.21875 25.3594 7.03125 25.0781C6.84375 24.7969 6.78125 24.4844 6.84375 24.1406C7.28125 22.5156 7.5 20.8594 7.5 19.1719V18C7.53125 16.7188 7.96875 15.6562 8.8125 14.8125C9.65625 13.9688 10.7188 13.5312 12 13.5ZM13.125 18V19.1719C13.125 22.2656 12.5625 25.2656 11.4375 28.1719L11.1562 28.9219C10.875 29.5156 10.3906 29.7188 9.70312 29.5312C9.10938 29.25 8.90625 28.7656 9.09375 28.0781L9.375 27.375C10.375 24.75 10.875 22.0156 10.875 19.1719V18C10.9375 17.3125 11.3125 16.9375 12 16.875C12.6875 16.9375 13.0625 17.3125 13.125 18Z" fill="black" fill-opacity="0.72"/>
</g>
<defs>
<clipPath id="clip0_2512_1116">
<rect width="24" height="36" fill="white"/>
</clipPath>
</defs>
</svg>
