<svg width="24" height="36" viewBox="0 0 24 36" fill="none" xmlns="http://www.w3.org/2000/svg">
<g id="label-paired / xl / circle-info-xl / fill" clip-path="url(#clip0_2556_19949)">
<path id="icon" d="M12 30C7.6875 30 3.75 27.75 1.59375 24C-0.5625 20.2969 -0.5625 15.75 1.59375 12C3.75 8.29688 7.6875 6 12 6C16.2656 6 20.2031 8.29688 22.3594 12C24.5156 15.75 24.5156 20.2969 22.3594 24C20.2031 27.75 16.2656 30 12 30ZM10.125 21.75C9.46875 21.75 9 22.2656 9 22.875C9 23.5312 9.46875 24 10.125 24H13.875C14.4844 24 15 23.5312 15 22.875C15 22.2656 14.4844 21.75 13.875 21.75H13.5V17.625C13.5 17.0156 12.9844 16.5 12.375 16.5H10.125C9.46875 16.5 9 17.0156 9 17.625C9 18.2812 9.46875 18.75 10.125 18.75H11.25V21.75H10.125ZM12 12C11.1562 12 10.5 12.7031 10.5 13.5C10.5 14.3438 11.1562 15 12 15C12.7969 15 13.5 14.3438 13.5 13.5C13.5 12.7031 12.7969 12 12 12Z" fill="black" fill-opacity="0.72"/>
</g>
<defs>
<clipPath id="clip0_2556_19949">
<rect width="24" height="36" fill="white"/>
</clipPath>
</defs>
</svg>
