<svg width="18" height="24" viewBox="0 0 18 24" fill="none" xmlns="http://www.w3.org/2000/svg">
<g id="label-paired / md / mobile-notch-rotate-md / bold" clip-path="url(#clip0_2556_15318)">
<path id="icon" d="M0.5 6.5C0.5 5.125 1.59375 4 3 4H9C10.375 4 11.5 5.125 11.5 6.5V10.375C11.3438 10.4375 11.1875 10.5312 11.0312 10.5938C10.7812 10.2812 10.4062 10.0938 10 10.0312V6.5C10 5.96875 9.53125 5.5 9 5.5H8V6C8 6.28125 7.75 6.5 7.5 6.5H4.5C4.21875 6.5 4 6.28125 4 6V5.5H3C2.4375 5.5 2 5.96875 2 6.5V17.5C2 18.0625 2.4375 18.5 3 18.5H8.875C9.1875 19 9.59375 19.4375 10.0312 19.7812C9.71875 19.9375 9.34375 20 9 20H3C1.59375 20 0.5 18.9062 0.5 17.5V6.5ZM9 11.75C9 11.3438 9.3125 11 9.75 11C10.1562 11 10.5 11.3438 10.5 11.75V12.1562C11.2812 11.4375 12.3438 11 13.5 11C15.3438 11 16.9062 12.125 17.625 13.7188C17.7812 14.0938 17.5938 14.5312 17.2188 14.6875C16.8438 14.875 16.4062 14.6875 16.25 14.3125C15.7812 13.25 14.7188 12.5 13.5 12.5C12.5938 12.5 11.8125 12.9062 11.25 13.5H12.25C12.6562 13.5 13 13.8438 13 14.25C13 14.6875 12.6562 15 12.25 15H9.75C9.3125 15 9 14.6875 9 14.25V11.75ZM9.375 17.3125C9.1875 16.9375 9.375 16.5 9.75 16.3125C10.125 16.1562 10.5625 16.3438 10.75 16.7188C11.1875 17.7812 12.25 18.5 13.5 18.5C14.375 18.5 15.1875 18.125 15.7188 17.5H14.75C14.3125 17.5 14 17.1875 14 16.75C14 16.3438 14.3125 16 14.75 16H17.25C17.6562 16 18 16.3438 18 16.75V19.25C18 19.6875 17.6562 20 17.25 20C16.8125 20 16.5 19.6875 16.5 19.25V18.875C15.6875 19.5938 14.625 20 13.5 20C11.625 20 10.0625 18.9062 9.375 17.3125Z" fill="black" fill-opacity="0.72"/>
</g>
<defs>
<clipPath id="clip0_2556_15318">
<rect width="18" height="24" fill="white"/>
</clipPath>
</defs>
</svg>
