<svg width="18" height="24" viewBox="0 0 18 24" fill="none" xmlns="http://www.w3.org/2000/svg">
<g id="label-paired / md / rectangle-ad-md / fill" clip-path="url(#clip0_2556_14893)">
<path id="icon" d="M2 5H16C17.0938 5 18 5.90625 18 7V17C18 18.125 17.0938 19 16 19H2C0.875 19 0 18.125 0 17V7C0 5.90625 0.875 5 2 5ZM7.15625 9.4375C7.03125 9.15625 6.78125 9 6.5 9C6.1875 9 5.9375 9.1875 5.8125 9.4375L3.5625 13.9375C3.375 14.3125 3.53125 14.75 3.90625 14.9375C4.28125 15.125 4.71875 14.9688 4.90625 14.5938L5.0625 14.25H7.90625L8.0625 14.5938C8.25 14.9688 8.71875 15.125 9.0625 14.9375C9.4375 14.75 9.59375 14.3125 9.40625 13.9375L7.15625 9.4375ZM6.5 11.4375L7.15625 12.75H5.8125L6.5 11.4375ZM12.25 12C12.6562 12 13 12.3438 13 12.75C13 13.1875 12.6562 13.5 12.25 13.5C11.8125 13.5 11.5 13.1875 11.5 12.75C11.5 12.3438 11.8125 12 12.25 12ZM13 10.6562C12.75 10.5625 12.5 10.5 12.25 10.5C11 10.5 10 11.5312 10 12.75C10 14 11 15 12.25 15C12.5938 15 12.9062 14.9375 13.2188 14.7812C13.3438 14.9375 13.5312 15 13.75 15C14.1562 15 14.5 14.6875 14.5 14.25V12.75V9.75C14.5 9.34375 14.1562 9 13.75 9C13.3125 9 13 9.34375 13 9.75V10.6562Z" fill="black" fill-opacity="0.72"/>
</g>
<defs>
<clipPath id="clip0_2556_14893">
<rect width="18" height="24" fill="white"/>
</clipPath>
</defs>
</svg>
