<svg width="27" height="36" viewBox="0 0 27 36" fill="none" xmlns="http://www.w3.org/2000/svg">
<g id="label-paired / xl / credit-card-xl / regular" clip-path="url(#clip0_2362_725)">
<path id="icon" d="M3 9C2.5625 9 2.20312 9.14062 1.92188 9.42188C1.64062 9.70312 1.5 10.0625 1.5 10.5V12H25.5V10.5C25.5 10.0625 25.3594 9.70312 25.0781 9.42188C24.7969 9.14062 24.4375 9 24 9H3ZM1.5 13.5V16.5H25.5V13.5H1.5ZM1.5 18V25.5C1.5 25.9375 1.64062 26.2969 1.92188 26.5781C2.20312 26.8594 2.5625 27 3 27H24C24.4375 27 24.7969 26.8594 25.0781 26.5781C25.3594 26.2969 25.5 25.9375 25.5 25.5V18H1.5ZM0 10.5C0.03125 9.65625 0.328125 8.95312 0.890625 8.39062C1.45312 7.82812 2.15625 7.53125 3 7.5H24C24.8438 7.53125 25.5469 7.82812 26.1094 8.39062C26.6719 8.95312 26.9688 9.65625 27 10.5V25.5C26.9688 26.3438 26.6719 27.0469 26.1094 27.6094C25.5469 28.1719 24.8438 28.4688 24 28.5H3C2.15625 28.4688 1.45312 28.1719 0.890625 27.6094C0.328125 27.0469 0.03125 26.3438 0 25.5V10.5ZM4.5 23.25C4.53125 22.7812 4.78125 22.5312 5.25 22.5H8.25C8.71875 22.5312 8.96875 22.7812 9 23.25C8.96875 23.7188 8.71875 23.9688 8.25 24H5.25C4.78125 23.9688 4.53125 23.7188 4.5 23.25ZM10.5 23.25C10.5312 22.7812 10.7812 22.5312 11.25 22.5H17.25C17.7188 22.5312 17.9688 22.7812 18 23.25C17.9688 23.7188 17.7188 23.9688 17.25 24H11.25C10.7812 23.9688 10.5312 23.7188 10.5 23.25Z" fill="black" fill-opacity="0.72"/>
</g>
<defs>
<clipPath id="clip0_2362_725">
<rect width="27" height="36" fill="white"/>
</clipPath>
</defs>
</svg>
