<svg width="14" height="22" viewBox="0 0 14 22" fill="none" xmlns="http://www.w3.org/2000/svg">
<g id="label-paired / sm / clock-three-sm / bold" clip-path="url(#clip0_2556_12831)">
<path id="icon" d="M12.6875 10.75C12.6875 8.72656 11.5938 6.86719 9.84375 5.82812C8.06641 4.81641 5.90625 4.81641 4.15625 5.82812C2.37891 6.86719 1.3125 8.72656 1.3125 10.75C1.3125 12.8008 2.37891 14.6602 4.15625 15.6992C5.90625 16.7109 8.06641 16.7109 9.84375 15.6992C11.5938 14.6602 12.6875 12.8008 12.6875 10.75ZM0 10.75C0 8.26172 1.3125 5.96484 3.5 4.70703C5.66016 3.44922 8.3125 3.44922 10.5 4.70703C12.6602 5.96484 14 8.26172 14 10.75C14 13.2656 12.6602 15.5625 10.5 16.8203C8.3125 18.0781 5.66016 18.0781 3.5 16.8203C1.3125 15.5625 0 13.2656 0 10.75ZM6.34375 7.03125C6.34375 6.67578 6.61719 6.375 7 6.375C7.35547 6.375 7.65625 6.67578 7.65625 7.03125V10.0938H9.84375C10.1992 10.0938 10.5 10.3945 10.5 10.75C10.5 11.1328 10.1992 11.4062 9.84375 11.4062H7C6.61719 11.4062 6.34375 11.1328 6.34375 10.75V7.03125Z" fill="black" fill-opacity="0.72"/>
</g>
<defs>
<clipPath id="clip0_2556_12831">
<rect width="14" height="22" fill="white"/>
</clipPath>
</defs>
</svg>
