<svg width="18" height="24" viewBox="0 0 18 24" fill="none" xmlns="http://www.w3.org/2000/svg">
<g id="label-paired / md / page-circle-arrow-right-md / fill" clip-path="url(#clip0_3558_4005)">
<path id="icon" d="M0 6C0 4.90625 0.875 4 2 4H7.65625C8.1875 4 8.6875 4.21875 9.0625 4.59375L11.4062 6.9375C11.7812 7.3125 12 7.8125 12 8.34375V10.2188C9.6875 10.875 8 13 8 15.5C8 17.3438 8.90625 19 10.2812 20C10.1875 20 10.0938 20 10 20H2C0.875 20 0 19.125 0 18V6ZM9 15.5C9 13.0312 11 11 13.5 11C15.9688 11 18 13.0312 18 15.5C18 18 15.9688 20 13.5 20C11 20 9 18 9 15.5ZM11 15.5C11 15.7812 11.2188 16 11.5 16H14.2812L13.375 16.9062C13.1875 17.0938 13.1875 17.4375 13.375 17.625C13.5625 17.8125 13.9062 17.8125 14.0938 17.625L15.8438 15.875C16.0312 15.6875 16.0312 15.3438 15.8438 15.1562L14.0938 13.4062C13.9062 13.2188 13.5625 13.2188 13.375 13.4062C13.1875 13.5938 13.1875 13.9375 13.375 14.125L14.2812 15H11.5C11.2188 15 11 15.25 11 15.5Z" fill="black" fill-opacity="0.72"/>
</g>
<defs>
<clipPath id="clip0_3558_4005">
<rect width="18" height="24" fill="white"/>
</clipPath>
</defs>
</svg>
