<svg width="12" height="18" viewBox="0 0 12 18" fill="none" xmlns="http://www.w3.org/2000/svg">
<g id="label-paired / caption / triangle-exclamation-caption / bold" clip-path="url(#clip0_2556_10000)">
<path id="icon" d="M5.8125 5.49219L1.17188 13.1094C1.125 13.1797 1.125 13.2266 1.125 13.2969C1.125 13.4844 1.26562 13.625 1.45312 13.625H10.5234C10.7109 13.625 10.875 13.4844 10.875 13.2969C10.875 13.2266 10.8516 13.1797 10.8047 13.1094L6.16406 5.49219C6.14062 5.42188 6.07031 5.375 6 5.375C5.90625 5.375 5.85938 5.42188 5.8125 5.49219ZM4.85156 4.90625C5.08594 4.50781 5.53125 4.25 6 4.25C6.44531 4.25 6.89062 4.50781 7.125 4.90625L11.7656 12.5234C11.9062 12.7578 12 13.0156 12 13.2969C12 14.0938 11.3438 14.75 10.5234 14.75H1.45312C0.65625 14.75 0 14.0938 0 13.2969C0 13.0156 0.0703125 12.7578 0.210938 12.5234L4.85156 4.90625ZM6.75 12.125C6.75 12.5469 6.39844 12.875 6 12.875C5.57812 12.875 5.25 12.5469 5.25 12.125C5.25 11.7266 5.57812 11.375 6 11.375C6.39844 11.375 6.75 11.7266 6.75 12.125ZM6.5625 7.8125V10.0625C6.5625 10.3906 6.30469 10.625 6 10.625C5.67188 10.625 5.4375 10.3906 5.4375 10.0625V7.8125C5.4375 7.50781 5.67188 7.25 6 7.25C6.30469 7.25 6.5625 7.50781 6.5625 7.8125Z" fill="black" fill-opacity="0.72"/>
</g>
<defs>
<clipPath id="clip0_2556_10000">
<rect width="12" height="18" fill="white"/>
</clipPath>
</defs>
</svg>
