<svg width="18" height="22" viewBox="0 0 18 22" fill="none" xmlns="http://www.w3.org/2000/svg">
<g id="label-paired / sm / user-minus-sm / regular" clip-path="url(#clip0_3327_849)">
<path id="icon" d="M6.375 4.625C5.41797 4.625 4.57031 5.14453 4.07812 5.9375C3.61328 6.75781 3.61328 7.76953 4.07812 8.5625C4.57031 9.38281 5.41797 9.875 6.375 9.875C7.30469 9.875 8.15234 9.38281 8.64453 8.5625C9.10938 7.76953 9.10938 6.75781 8.64453 5.9375C8.15234 5.14453 7.30469 4.625 6.375 4.625ZM6.375 10.75C5.11719 10.75 3.96875 10.0938 3.33984 9C2.71094 7.93359 2.71094 6.59375 3.33984 5.5C3.96875 4.43359 5.11719 3.75 6.375 3.75C7.60547 3.75 8.75391 4.43359 9.38281 5.5C10.0117 6.59375 10.0117 7.93359 9.38281 9C8.75391 10.0938 7.60547 10.75 6.375 10.75ZM5.11719 12.9375C2.92969 12.9375 1.15234 14.7148 1.125 16.875H11.625C11.5703 14.7148 9.79297 12.9375 7.60547 12.9375H5.11719ZM5.11719 12.0625H7.60547C10.3125 12.0625 12.5 14.25 12.5 16.957C12.5 17.3945 12.1172 17.75 11.6797 17.75H1.04297C0.605469 17.75 0.25 17.3945 0.25 16.957C0.25 14.25 2.41016 12.0625 5.11719 12.0625ZM12.0625 9.875H17.3125C17.5312 9.875 17.75 10.0938 17.75 10.3125C17.75 10.5586 17.5312 10.75 17.3125 10.75H12.0625C11.8164 10.75 11.625 10.5586 11.625 10.3125C11.625 10.0938 11.8164 9.875 12.0625 9.875Z" fill="black" fill-opacity="0.72"/>
</g>
<defs>
<clipPath id="clip0_3327_849">
<rect width="18" height="22" fill="white"/>
</clipPath>
</defs>
</svg>
