<svg width="21" height="36" viewBox="0 0 21 36" fill="none" xmlns="http://www.w3.org/2000/svg">
<g id="label-paired / xl / arrow-right-xl / bold" clip-path="url(#clip0_2556_19782)">
<path id="icon" d="M20.625 18.8438L12.375 26.7188C11.9062 27.1406 11.2031 27.1406 10.7812 26.6719C10.3594 26.2031 10.3594 25.5 10.8281 25.0781L17.0625 19.125H1.125C0.46875 19.125 0 18.6562 0 18C0 17.3906 0.46875 16.875 1.125 16.875H17.0625L10.8281 10.9688C10.3594 10.5469 10.3594 9.79688 10.7812 9.375C11.2031 8.90625 11.9531 8.90625 12.375 9.32812L20.625 17.2031C20.8594 17.4375 21 17.7188 21 18C21 18.3281 20.8594 18.6094 20.625 18.8438Z" fill="black" fill-opacity="0.72"/>
</g>
<defs>
<clipPath id="clip0_2556_19782">
<rect width="21" height="36" fill="white"/>
</clipPath>
</defs>
</svg>
