<svg width="30" height="36" viewBox="0 0 30 36" fill="none" xmlns="http://www.w3.org/2000/svg">
<g id="label-paired / xl / apple-pay-xl" clip-path="url(#clip0_2556_19232)">
<path id="icon" d="M5.4375 13.4531C5.8125 13.0312 6.04688 12.4688 6 11.8594C5.48438 11.9062 4.875 12.1875 4.5 12.6094C4.17188 12.9844 3.89062 13.5938 3.98438 14.1562C4.54688 14.2031 5.10938 13.875 5.4375 13.4531ZM5.95312 14.25C6.28125 14.2969 7.21875 14.3906 7.78125 15.2344C7.73438 15.2812 6.70312 15.8906 6.70312 17.1562C6.75 18.6562 8.01562 19.125 8.0625 19.125C8.01562 19.1719 7.82812 19.875 7.35938 20.5312C6.9375 21.1406 6.51562 21.75 5.85938 21.75C5.20312 21.7969 4.96875 21.375 4.21875 21.375C3.46875 21.375 3.23438 21.75 2.57812 21.7969C1.92188 21.7969 1.45312 21.1406 1.03125 20.5312C0.1875 19.2656 -0.46875 17.0625 0.375 15.5156C0.84375 14.7656 1.59375 14.2969 2.4375 14.2969C3.09375 14.2969 3.65625 14.7188 4.07812 14.7188C4.45312 14.7188 5.15625 14.2031 5.95312 14.25ZM10.6875 12.5625H14.1094C15.8906 12.5625 17.1094 13.7812 17.1094 15.5625C17.1094 17.3438 15.8438 18.5625 14.0625 18.5625H12.0938V21.7031H10.6875V12.5625ZM12.0938 13.7344V17.3906H13.7344C14.9531 17.3906 15.6562 16.7344 15.6562 15.5625C15.6562 14.3906 14.9531 13.7344 13.7344 13.7344H12.0938ZM19.6875 21.75C18.375 21.75 17.4844 21 17.4375 19.7812C17.4375 18.6094 18.3281 17.9531 20.0156 17.8594L21.75 17.7656V17.25C21.75 16.5 21.2812 16.0781 20.3906 16.0781C19.6875 16.0781 19.1719 16.4531 19.0781 17.0156H17.8125C17.8125 15.8438 18.9375 15 20.4375 15C22.0781 15 23.1094 15.8438 23.1094 17.1562V21.7031H21.7969V20.5781C21.4219 21.3281 20.5781 21.75 19.6875 21.75ZM20.0625 20.6719C21.0469 20.6719 21.75 20.0625 21.75 19.2188V18.7031L20.2031 18.7969C19.3125 18.8438 18.8438 19.1719 18.8438 19.7812C18.8438 20.2969 19.3125 20.6719 20.0625 20.6719ZM24.8906 24.1875C24.7969 24.1875 24.4219 24.1875 24.3281 24.1406V23.0625C24.4219 23.0625 24.6562 23.0625 24.75 23.0625C25.4062 23.0625 25.7344 22.8281 25.9688 22.125L26.1094 21.7031L23.6719 15.0469H25.1719L26.8594 20.4844L28.5469 15.0469H30L27.4688 22.0312C26.9062 23.6719 26.25 24.1875 24.8906 24.1875Z" fill="black" fill-opacity="0.72"/>
</g>
<defs>
<clipPath id="clip0_2556_19232">
<rect width="30" height="36" fill="white"/>
</clipPath>
</defs>
</svg>
