<svg width="21" height="36" viewBox="0 0 21 36" fill="none" xmlns="http://www.w3.org/2000/svg">
<g id="label-paired / xl / whatsapp-xl" clip-path="url(#clip0_2556_19338)">
<path id="icon" d="M17.8125 10.5938C19.7812 12.5625 21 15.1406 21 17.9531C21 23.6719 16.2188 28.3594 10.4531 28.3594C8.71875 28.3594 7.03125 27.8906 5.48438 27.0938L0 28.5L1.45312 23.1094C0.5625 21.5625 0.046875 19.7812 0.046875 17.9062C0.046875 12.1875 4.73438 7.5 10.4531 7.5C13.2656 7.5 15.8906 8.625 17.8125 10.5938ZM10.4531 26.5781C15.2344 26.5781 19.2188 22.6875 19.2188 17.9531C19.2188 15.6094 18.2344 13.4531 16.5938 11.8125C14.9531 10.1719 12.7969 9.28125 10.5 9.28125C5.71875 9.28125 1.82812 13.1719 1.82812 17.9062C1.82812 19.5469 2.29688 21.1406 3.14062 22.5469L3.375 22.875L2.48438 26.0625L5.76562 25.1719L6.04688 25.3594C7.40625 26.1562 8.90625 26.5781 10.4531 26.5781ZM15.2344 20.1094C15.4688 20.25 15.6562 20.2969 15.7031 20.4375C15.7969 20.5312 15.7969 21.0469 15.5625 21.6562C15.3281 22.2656 14.2969 22.8281 13.8281 22.875C12.9844 23.0156 12.3281 22.9688 10.6875 22.2188C8.0625 21.0938 6.375 18.4688 6.23438 18.3281C6.09375 18.1406 5.20312 16.9219 5.20312 15.6094C5.20312 14.3438 5.85938 13.7344 6.09375 13.4531C6.32812 13.1719 6.60938 13.125 6.79688 13.125C6.9375 13.125 7.125 13.125 7.26562 13.125C7.45312 13.125 7.64062 13.0781 7.875 13.5938C8.0625 14.1094 8.625 15.375 8.67188 15.5156C8.71875 15.6562 8.76562 15.7969 8.67188 15.9844C8.20312 16.9688 7.64062 16.9219 7.92188 17.3906C8.95312 19.125 9.9375 19.7344 11.4844 20.4844C11.7188 20.625 11.8594 20.5781 12.0469 20.4375C12.1875 20.25 12.7031 19.6406 12.8438 19.4062C13.0312 19.125 13.2188 19.1719 13.4531 19.2656C13.6875 19.3594 14.9531 19.9688 15.2344 20.1094Z" fill="black" fill-opacity="0.72"/>
</g>
<defs>
<clipPath id="clip0_2556_19338">
<rect width="21" height="36" fill="white"/>
</clipPath>
</defs>
</svg>
