<svg width="21" height="36" viewBox="0 0 21 36" fill="none" xmlns="http://www.w3.org/2000/svg">
<g id="label-paired / xl / square-check-xl / bold" clip-path="url(#clip0_2556_19854)">
<path id="icon" d="M3 9.75C2.57812 9.75 2.25 10.125 2.25 10.5V25.5C2.25 25.9219 2.57812 26.25 3 26.25H18C18.375 26.25 18.75 25.9219 18.75 25.5V10.5C18.75 10.125 18.375 9.75 18 9.75H3ZM0 10.5C0 8.85938 1.3125 7.5 3 7.5H18C19.6406 7.5 21 8.85938 21 10.5V25.5C21 27.1875 19.6406 28.5 18 28.5H3C1.3125 28.5 0 27.1875 0 25.5V10.5ZM15.7969 15.7969L9.79688 21.7969C9.32812 22.2656 8.625 22.2656 8.20312 21.7969L5.20312 18.7969C4.73438 18.375 4.73438 17.6719 5.20312 17.25C5.625 16.7812 6.32812 16.7812 6.79688 17.25L9 19.4531L14.2031 14.2031C14.625 13.7812 15.3281 13.7812 15.75 14.2031C16.2188 14.6719 16.2188 15.375 15.75 15.7969H15.7969Z" fill="black" fill-opacity="0.72"/>
</g>
<defs>
<clipPath id="clip0_2556_19854">
<rect width="21" height="36" fill="white"/>
</clipPath>
</defs>
</svg>
