<svg width="21" height="36" viewBox="0 0 21 36" fill="none" xmlns="http://www.w3.org/2000/svg">
<g id="label-paired / xl / calendar-xl / regular" clip-path="url(#clip0_2556_19901)">
<path id="icon" d="M5.25 6C5.625 6 6 6.375 6 6.75V9H15V6.75C15 6.375 15.3281 6 15.75 6C16.125 6 16.5 6.375 16.5 6.75V9H18C19.6406 9 21 10.3594 21 12V13.5V15V27C21 28.6875 19.6406 30 18 30H3C1.3125 30 0 28.6875 0 27V15V13.5V12C0 10.3594 1.3125 9 3 9H4.5V6.75C4.5 6.375 4.82812 6 5.25 6ZM19.5 15H1.5V27C1.5 27.8438 2.15625 28.5 3 28.5H18C18.7969 28.5 19.5 27.8438 19.5 27V15ZM18 10.5H3C2.15625 10.5 1.5 11.2031 1.5 12V13.5H19.5V12C19.5 11.2031 18.7969 10.5 18 10.5Z" fill="black" fill-opacity="0.72"/>
</g>
<defs>
<clipPath id="clip0_2556_19901">
<rect width="21" height="36" fill="white"/>
</clipPath>
</defs>
</svg>
