<svg width="13" height="18" viewBox="0 0 13 18" fill="none" xmlns="http://www.w3.org/2000/svg">
<g id="label-paired / caption / paper-plane-top-caption / bold" clip-path="url(#clip0_2738_4377)">
<path id="icon" d="M3.61719 8.9375H9.47656L2.02344 5.75L3.61719 8.9375ZM3.61719 10.0625L2.02344 13.2734L9.47656 10.0625H3.61719ZM1.53125 4.32031L12.0312 8.82031C12.3125 8.9375 12.5 9.21875 12.5 9.52344C12.5 9.80469 12.3125 10.0859 12.0312 10.2031L1.53125 14.7031C1.25 14.8203 0.898438 14.75 0.6875 14.5156C0.476562 14.3047 0.429688 13.9531 0.570312 13.6719L2.65625 9.5L0.570312 5.35156C0.429688 5.07031 0.476562 4.71875 0.6875 4.48438C0.898438 4.27344 1.25 4.20312 1.53125 4.32031Z" fill="black" fill-opacity="0.72"/>
</g>
<defs>
<clipPath id="clip0_2738_4377">
<rect width="13" height="18" fill="white"/>
</clipPath>
</defs>
</svg>
