<svg width="12" height="24" viewBox="0 0 12 24" fill="none" xmlns="http://www.w3.org/2000/svg">
<g id="label-paired / md / file-excel-md / regular" clip-path="url(#clip0_2556_14565)">
<path id="icon" d="M10 19C10.5312 19 11 18.5625 11 18V10H7.5C6.65625 10 6 9.34375 6 8.5V5H2C1.4375 5 1 5.46875 1 6V18C1 18.5625 1.4375 19 2 19H10ZM7.5 9H10.9688C10.9375 8.9375 10.9062 8.84375 10.8438 8.78125L7.21875 5.15625C7.15625 5.09375 7.0625 5.0625 7 5.03125V8.5C7 8.78125 7.21875 9 7.5 9ZM2 4H6.875C7.25 4 7.65625 4.1875 7.9375 4.46875L11.5312 8.0625C11.8125 8.34375 12 8.75 12 9.125V18C12 19.125 11.0938 20 10 20H2C0.875 20 0 19.125 0 18V6C0 4.90625 0.875 4 2 4ZM4.65625 11.7188L6 13.6562L7.3125 11.7188C7.5 11.5 7.8125 11.4375 8.03125 11.5938C8.25 11.75 8.3125 12.0625 8.15625 12.3125L6.59375 14.5L8.15625 16.7188C8.3125 16.9688 8.25 17.25 8.03125 17.4375C7.78125 17.5938 7.5 17.5312 7.3125 17.3125L6 15.375L4.65625 17.3125C4.5 17.5312 4.1875 17.5938 3.9375 17.4375C3.71875 17.25 3.65625 16.9375 3.8125 16.7188L5.375 14.5L3.8125 12.3125C3.65625 12.0625 3.71875 11.75 3.9375 11.5938C4.1875 11.4375 4.5 11.5 4.65625 11.7188Z" fill="black" fill-opacity="0.72"/>
</g>
<defs>
<clipPath id="clip0_2556_14565">
<rect width="12" height="24" fill="white"/>
</clipPath>
</defs>
</svg>
