<svg width="24" height="36" viewBox="0 0 24 36" fill="none" xmlns="http://www.w3.org/2000/svg">
<g id="label-paired / xl / message-lines-xl / fill" clip-path="url(#clip0_2981_875)">
<path id="icon" d="M0 9C0 7.35938 1.3125 6 3 6H21C22.6406 6 24 7.35938 24 9V22.5C24 24.1875 22.6406 25.5 21 25.5H14.4844L8.67188 29.8594C8.4375 30.0469 8.15625 30.0469 7.875 29.9531C7.64062 29.8125 7.5 29.5781 7.5 29.25V25.5H3C1.3125 25.5 0 24.1875 0 22.5V9ZM7.125 12.75C6.46875 12.75 6 13.2656 6 13.875C6 14.5312 6.46875 15 7.125 15H16.875C17.4844 15 18 14.5312 18 13.875C18 13.2656 17.4844 12.75 16.875 12.75H7.125ZM7.125 17.25C6.46875 17.25 6 17.7656 6 18.375C6 19.0312 6.46875 19.5 7.125 19.5H12.375C12.9844 19.5 13.5 19.0312 13.5 18.375C13.5 17.7656 12.9844 17.25 12.375 17.25H7.125Z" fill="black" fill-opacity="0.72"/>
</g>
<defs>
<clipPath id="clip0_2981_875">
<rect width="24" height="36" fill="white"/>
</clipPath>
</defs>
</svg>
