<svg width="21" height="36" viewBox="0 0 21 36" fill="none" xmlns="http://www.w3.org/2000/svg">
<g id="label-paired / xl / stopwatch-xl / fill" clip-path="url(#clip0_2556_19779)">
<path id="icon" d="M8.25 6H10.5H12.75C13.5469 6 14.25 6.70312 14.25 7.5C14.25 8.34375 13.5469 9 12.75 9H12V10.6406C13.7344 10.9219 15.3281 11.625 16.6406 12.7031L17.6719 11.7188C18.2344 11.1094 19.2188 11.1094 19.7812 11.7188C20.3906 12.2812 20.3906 13.2656 19.7812 13.8281L18.6562 14.9531C19.6406 16.5 20.25 18.3281 20.25 20.25C20.25 25.6406 15.8438 30 10.5 30C5.10938 30 0.75 25.6406 0.75 20.25C0.75 15.375 4.3125 11.3438 9 10.6406V9H8.25C7.40625 9 6.75 8.34375 6.75 7.5C6.75 6.70312 7.40625 6 8.25 6ZM11.625 15C11.625 14.3906 11.1094 13.875 10.5 13.875C9.84375 13.875 9.375 14.3906 9.375 15V21C9.375 21.6562 9.84375 22.125 10.5 22.125C11.1094 22.125 11.625 21.6562 11.625 21V15Z" fill="black" fill-opacity="0.72"/>
</g>
<defs>
<clipPath id="clip0_2556_19779">
<rect width="21" height="36" fill="white"/>
</clipPath>
</defs>
</svg>
