<svg width="12" height="18" viewBox="0 0 12 18" fill="none" xmlns="http://www.w3.org/2000/svg">
<g id="label-paired / caption / circle-user-caption / fill" clip-path="url(#clip0_2556_9902)">
<path id="icon" d="M9.35156 12.5234C8.8125 11.6094 7.85156 11 6.75 11H5.25C4.125 11 3.16406 11.6094 2.64844 12.5234C3.46875 13.4375 4.66406 14 6 14C7.3125 14 8.50781 13.4375 9.35156 12.5234ZM0 9.5C0 7.36719 1.125 5.39844 3 4.32031C4.85156 3.24219 7.125 3.24219 9 4.32031C10.8516 5.39844 12 7.36719 12 9.5C12 11.6562 10.8516 13.625 9 14.7031C7.125 15.7812 4.85156 15.7812 3 14.7031C1.125 13.625 0 11.6562 0 9.5ZM6 9.875C6.58594 9.875 7.14844 9.57031 7.45312 9.03125C7.75781 8.51562 7.75781 7.88281 7.45312 7.34375C7.14844 6.82812 6.58594 6.5 6 6.5C5.39062 6.5 4.82812 6.82812 4.52344 7.34375C4.21875 7.88281 4.21875 8.51562 4.52344 9.03125C4.82812 9.57031 5.39062 9.875 6 9.875Z" fill="black" fill-opacity="0.72"/>
</g>
<defs>
<clipPath id="clip0_2556_9902">
<rect width="12" height="18" fill="white"/>
</clipPath>
</defs>
</svg>
