<svg width="16" height="24" viewBox="0 0 16 24" fill="none" xmlns="http://www.w3.org/2000/svg">
<g id="label-paired / md / magnifying-glass-plus-md / fill" clip-path="url(#clip0_3431_874)">
<path id="icon" d="M13 10.5C13 11.9375 12.5312 13.2812 11.75 14.3438L15.6875 18.3125C16.0938 18.6875 16.0938 19.3438 15.6875 19.7188C15.3125 20.125 14.6562 20.125 14.2812 19.7188L10.3125 15.75C9.25 16.5625 7.90625 17 6.5 17C2.90625 17 0 14.0938 0 10.5C0 6.9375 2.90625 4 6.5 4C10.0625 4 13 6.9375 13 10.5ZM5.75 13.25C5.75 13.6875 6.0625 14 6.5 14C6.90625 14 7.25 13.6875 7.25 13.25V11.25H9.25C9.65625 11.25 10 10.9375 10 10.5C10 10.0938 9.65625 9.75 9.25 9.75H7.25V7.75C7.25 7.34375 6.90625 7 6.5 7C6.0625 7 5.75 7.34375 5.75 7.75V9.75H3.75C3.3125 9.75 3 10.0938 3 10.5C3 10.9375 3.3125 11.25 3.75 11.25H5.75V13.25Z" fill="black" fill-opacity="0.72"/>
</g>
<defs>
<clipPath id="clip0_3431_874">
<rect width="16" height="24" fill="white"/>
</clipPath>
</defs>
</svg>
