<svg width="16" height="22" viewBox="0 0 16 22" fill="none" xmlns="http://www.w3.org/2000/svg">
<g id="label-paired / sm / house-user-sm / regular" clip-path="url(#clip0_4670_640)">
<path id="icon" d="M7.69922 3.85938C7.86328 3.72266 8.10938 3.72266 8.27344 3.85938L15.7109 10.4219C15.9023 10.5859 15.9023 10.8594 15.7656 11.0508C15.6016 11.2422 15.3281 11.2422 15.1367 11.0781L14.125 10.1758V15.5625C14.125 16.793 13.1406 17.75 11.9375 17.75H4.0625C2.83203 17.75 1.875 16.793 1.875 15.5625V10.1758L0.835938 11.0781C0.671875 11.2422 0.371094 11.2422 0.234375 11.0508C0.0703125 10.8594 0.0703125 10.5859 0.261719 10.4219L7.69922 3.85938ZM2.75 9.41016V15.5625C2.75 16.3008 3.32422 16.875 4.0625 16.875H11.9375C12.6484 16.875 13.25 16.3008 13.25 15.5625V9.41016L8 4.78906L2.75 9.41016ZM8 10.75C8.46484 10.75 8.875 10.3672 8.875 9.875C8.875 9.41016 8.46484 9 8 9C7.50781 9 7.125 9.41016 7.125 9.875C7.125 10.3672 7.50781 10.75 8 10.75ZM8 8.125C8.60156 8.125 9.17578 8.48047 9.50391 9C9.80469 9.54688 9.80469 10.2305 9.50391 10.75C9.17578 11.2969 8.60156 11.625 8 11.625C7.37109 11.625 6.79688 11.2969 6.46875 10.75C6.16797 10.2305 6.16797 9.54688 6.46875 9C6.79688 8.48047 7.37109 8.125 8 8.125ZM5.8125 14.4688V14.6875C5.8125 14.9336 5.59375 15.125 5.375 15.125C5.12891 15.125 4.9375 14.9336 4.9375 14.6875V14.4688C4.9375 13.4023 5.8125 12.5 6.90625 12.5H9.09375C10.1602 12.5 11.0625 13.4023 11.0625 14.4688V14.6875C11.0625 14.9336 10.8438 15.125 10.625 15.125C10.3789 15.125 10.1875 14.9336 10.1875 14.6875V14.4688C10.1875 13.8672 9.69531 13.375 9.09375 13.375H6.90625C6.27734 13.375 5.8125 13.8672 5.8125 14.4688Z" fill="black" fill-opacity="0.72"/>
</g>
<defs>
<clipPath id="clip0_4670_640">
<rect width="16" height="22" fill="white"/>
</clipPath>
</defs>
</svg>
