<svg width="14" height="22" viewBox="0 0 14 22" fill="none" xmlns="http://www.w3.org/2000/svg">
<g id="label-paired / sm / circle-arrow-up-left-sm / regular" clip-path="url(#clip0_2556_12573)">
<path id="icon" d="M7 4.625C4.78516 4.625 2.78906 5.80078 1.69531 7.6875C0.574219 9.60156 0.574219 11.9258 1.69531 13.8125C2.78906 15.7266 4.78516 16.875 7 16.875C9.1875 16.875 11.1836 15.7266 12.2773 13.8125C13.3984 11.9258 13.3984 9.60156 12.2773 7.6875C11.1836 5.80078 9.1875 4.625 7 4.625ZM7 17.75C4.48438 17.75 2.1875 16.4375 0.929688 14.25C-0.328125 12.0898 -0.328125 9.4375 0.929688 7.25C2.1875 5.08984 4.48438 3.75 7 3.75C9.48828 3.75 11.7852 5.08984 13.043 7.25C14.3008 9.4375 14.3008 12.0898 13.043 14.25C11.7852 16.4375 9.48828 17.75 7 17.75ZM8.53125 8.125C8.75 8.125 8.96875 8.34375 8.96875 8.5625C8.96875 8.80859 8.75 9 8.53125 9H5.85156L9.48828 12.6367C9.65234 12.8008 9.65234 13.1016 9.48828 13.2656C9.32422 13.4297 9.02344 13.4297 8.85938 13.2656L5.25 9.62891V12.5C5.25 12.7461 5.03125 12.9375 4.8125 12.9375C4.56641 12.9375 4.375 12.7461 4.375 12.5V8.5625C4.375 8.34375 4.56641 8.125 4.8125 8.125H8.53125Z" fill="black" fill-opacity="0.72"/>
</g>
<defs>
<clipPath id="clip0_2556_12573">
<rect width="14" height="22" fill="white"/>
</clipPath>
</defs>
</svg>
