<svg width="10" height="24" viewBox="0 0 10 24" fill="none" xmlns="http://www.w3.org/2000/svg">
<g id="label-paired / md / pause-md / bold" clip-path="url(#clip0_2556_14699)">
<path id="icon" d="M1.5 7.5V16.5H3V7.5H1.5ZM0 7.5C0 6.6875 0.65625 6 1.5 6H3C3.8125 6 4.5 6.6875 4.5 7.5V16.5C4.5 17.3438 3.8125 18 3 18H1.5C0.65625 18 0 17.3438 0 16.5V7.5ZM7 7.5V16.5H8.5V7.5H7ZM5.5 7.5C5.5 6.6875 6.15625 6 7 6H8.5C9.3125 6 10 6.6875 10 7.5V16.5C10 17.3438 9.3125 18 8.5 18H7C6.15625 18 5.5 17.3438 5.5 16.5V7.5Z" fill="black" fill-opacity="0.72"/>
</g>
<defs>
<clipPath id="clip0_2556_14699">
<rect width="10" height="24" fill="white"/>
</clipPath>
</defs>
</svg>
