<svg width="24" height="36" viewBox="0 0 24 36" fill="none" xmlns="http://www.w3.org/2000/svg">
<g id="label-paired / xl / thumbs-down-xl / regular" clip-path="url(#clip0_2362_630)">
<path id="icon" d="M13.5469 26.1562C13.7969 26.8125 14.25 27.0781 14.9062 26.9531C15.5625 26.7031 15.8281 26.25 15.7031 25.5938L15.5156 24.7969C15.2344 23.8594 14.8438 22.9688 14.3438 22.125C14.1875 21.875 14.1719 21.625 14.2969 21.375C14.4531 21.125 14.6719 21 14.9531 21H21C21.4375 21 21.7969 20.8594 22.0781 20.5781C22.3594 20.2969 22.5 19.9375 22.5 19.5C22.4688 18.9375 22.2344 18.5156 21.7969 18.2344C21.4531 17.9531 21.375 17.625 21.5625 17.25C21.6875 17.0312 21.75 16.7812 21.75 16.5C21.7188 15.875 21.4531 15.4219 20.9531 15.1406C20.7344 15.0469 20.5938 14.8906 20.5312 14.6719C20.5 14.4219 20.5469 14.2031 20.6719 14.0156C20.8906 13.7656 21 13.4688 21 13.125C20.9688 12.4062 20.625 11.9219 19.9688 11.6719C19.5938 11.5156 19.4219 11.2344 19.4531 10.8281C19.4844 10.7344 19.5 10.625 19.5 10.5C19.5 10.0625 19.3594 9.70312 19.0781 9.42188C18.7969 9.14062 18.4375 9 18 9H13.8281C13.0469 9 12.3438 9.20312 11.7188 9.60938L9.9375 10.8281C9.5 11.1094 9.14062 11.4688 8.85938 11.9062C8.57812 12.25 8.23438 12.3125 7.82812 12.0938C7.48438 11.8125 7.40625 11.4688 7.59375 11.0625C8 10.4688 8.5 9.96875 9.09375 9.5625L10.875 8.39062C11.7812 7.79687 12.75 7.5 13.7812 7.5H18C18.8438 7.53125 19.5469 7.82812 20.1094 8.39062C20.6719 8.95312 20.9688 9.65625 21 10.5V10.5469C21.9375 11.1094 22.4375 11.9688 22.5 13.125C22.5 13.5312 22.4219 13.9219 22.2656 14.2969C22.8906 14.8594 23.2188 15.5938 23.25 16.5C23.25 16.8125 23.2031 17.1094 23.1094 17.3906C23.6719 17.9531 23.9688 18.6562 24 19.5C23.9688 20.3438 23.6719 21.0469 23.1094 21.6094C22.5469 22.1719 21.8438 22.4688 21 22.5H16.2188C16.5312 23.125 16.7812 23.7656 16.9688 24.4219L17.1562 25.1719C17.3438 25.8906 17.2656 26.5625 16.9219 27.1875C16.5469 27.7812 16.0156 28.1875 15.3281 28.4062C14.6094 28.5938 13.9375 28.5156 13.3125 28.1719C12.7188 27.8281 12.3125 27.2969 12.0938 26.5781L11.8594 25.7812C11.4219 24.2188 10.5156 22.9844 9.14062 22.0781L9 21.9844L9.375 21.4219L9 21.9844C8.4375 21.6406 7.98438 21.2031 7.64062 20.6719C7.39062 20.2656 7.45312 19.9219 7.82812 19.6406C8.20312 19.4219 8.54688 19.4844 8.85938 19.8281C9.10938 20.2031 9.42188 20.5 9.79688 20.7188L9.9375 20.8125C11.6562 21.9375 12.7812 23.4688 13.3125 25.4062L13.5469 26.1562ZM1.5 22.5H4.5V12H1.5V22.5ZM0 22.5V12C0 11.5625 0.140625 11.2031 0.421875 10.9219C0.703125 10.6406 1.0625 10.5 1.5 10.5H4.5C4.9375 10.5 5.29688 10.6406 5.57812 10.9219C5.85938 11.2031 6 11.5625 6 12V22.5C6 22.9375 5.85938 23.2969 5.57812 23.5781C5.29688 23.8594 4.9375 24 4.5 24H1.5C1.0625 24 0.703125 23.8594 0.421875 23.5781C0.140625 23.2969 0 22.9375 0 22.5Z" fill="black" fill-opacity="0.72"/>
</g>
<defs>
<clipPath id="clip0_2362_630">
<rect width="24" height="36" fill="white"/>
</clipPath>
</defs>
</svg>
