<svg width="27" height="36" viewBox="0 0 27 36" fill="none" xmlns="http://www.w3.org/2000/svg">
<g id="label-paired / xl / link-simple-xl / regular" clip-path="url(#clip0_2556_19459)">
<path id="icon" d="M0 18C0 13.875 3.32812 10.5 7.5 10.5H11.25C11.625 10.5 12 10.875 12 11.25C12 11.6719 11.625 12 11.25 12H7.5C4.17188 12 1.5 14.7188 1.5 18C1.5 21.3281 4.17188 24 7.5 24H11.25C11.625 24 12 24.375 12 24.75C12 25.1719 11.625 25.5 11.25 25.5H7.5C3.32812 25.5 0 22.1719 0 18ZM27 18C27 22.1719 23.625 25.5 19.5 25.5H15.75C15.3281 25.5 15 25.1719 15 24.75C15 24.375 15.3281 24 15.75 24H19.5C22.7812 24 25.5 21.3281 25.5 18C25.5 14.7188 22.7812 12 19.5 12H15.75C15.3281 12 15 11.6719 15 11.25C15 10.875 15.3281 10.5 15.75 10.5H19.5C23.625 10.5 27 13.875 27 18ZM7.125 17.25H19.875C20.25 17.25 20.625 17.625 20.625 18C20.625 18.4219 20.25 18.75 19.875 18.75H7.125C6.70312 18.75 6.375 18.4219 6.375 18C6.375 17.625 6.70312 17.25 7.125 17.25Z" fill="black" fill-opacity="0.72"/>
</g>
<defs>
<clipPath id="clip0_2556_19459">
<rect width="27" height="36" fill="white"/>
</clipPath>
</defs>
</svg>
