<svg width="27" height="36" viewBox="0 0 27 36" fill="none" xmlns="http://www.w3.org/2000/svg">
<g id="label-paired / xl / desktop-xl / regular" clip-path="url(#clip0_2981_940)">
<path id="icon" d="M24 7.5H3C2.15625 7.5 1.5 8.20312 1.5 9V18H25.5V9C25.5 8.20312 24.7969 7.5 24 7.5ZM27 18V19.5V22.5C27 24.1875 25.6406 25.5 24 25.5H16.9688L17.4844 28.5H20.25C20.625 28.5 21 28.875 21 29.25C21 29.6719 20.625 30 20.25 30H16.875H10.125H6.75C6.32812 30 6 29.6719 6 29.25C6 28.875 6.32812 28.5 6.75 28.5H9.46875L9.98438 25.5H3C1.3125 25.5 0 24.1875 0 22.5V19.5V18V9C0 7.35938 1.3125 6 3 6H24C25.6406 6 27 7.35938 27 9V18ZM1.5 19.5V22.5C1.5 23.3438 2.15625 24 3 24H10.8281H10.875H16.0781H16.125H24C24.7969 24 25.5 23.3438 25.5 22.5V19.5H1.5ZM10.9688 28.5H15.9844L15.4688 25.5H11.4844L10.9688 28.5Z" fill="black" fill-opacity="0.72"/>
</g>
<defs>
<clipPath id="clip0_2981_940">
<rect width="27" height="36" fill="white"/>
</clipPath>
</defs>
</svg>
