<svg width="18" height="36" viewBox="0 0 18 36" fill="none" xmlns="http://www.w3.org/2000/svg">
<g id="label-paired / xl / xmark-xl / fill" clip-path="url(#clip0_2556_19540)">
<path id="icon" d="M16.0312 13.0781L11.1094 18L16.0312 22.9688C16.6406 23.5312 16.6406 24.5156 16.0312 25.0781C15.4688 25.6875 14.4844 25.6875 13.9219 25.0781L9 20.1562L4.03125 25.0781C3.46875 25.6875 2.48438 25.6875 1.92188 25.0781C1.3125 24.5156 1.3125 23.5312 1.92188 22.9688L6.84375 18L1.92188 13.0781C1.3125 12.5156 1.3125 11.5312 1.92188 10.9688C2.48438 10.3594 3.46875 10.3594 4.03125 10.9688L9 15.8906L13.9219 10.9688C14.4844 10.3594 15.4688 10.3594 16.0312 10.9688C16.6406 11.5312 16.6406 12.5156 16.0312 13.0781Z" fill="black" fill-opacity="0.72"/>
</g>
<defs>
<clipPath id="clip0_2556_19540">
<rect width="18" height="36" fill="white"/>
</clipPath>
</defs>
</svg>
