<svg width="18" height="24" viewBox="0 0 18 24" fill="none" xmlns="http://www.w3.org/2000/svg">
<g id="label-paired / md / file-circle-info-md / bold" clip-path="url(#clip0_2556_14707)">
<path id="icon" d="M2 18.5H8.875C9.25 19.0938 9.71875 19.5938 10.2812 20C10.1875 20 10.0938 20 10 20H2C0.875 20 0 19.125 0 18V6C0 4.90625 0.875 4 2 4H7.15625C7.6875 4 8.1875 4.21875 8.5625 4.59375L11.4062 7.4375C11.7812 7.8125 12 8.3125 12 8.84375V10.2188C11.4375 10.375 10.9375 10.5938 10.5 10.9062V9H8C7.4375 9 7 8.5625 7 8V5.5H2C1.71875 5.5 1.5 5.75 1.5 6V18C1.5 18.2812 1.71875 18.5 2 18.5ZM13.5 11C15.0938 11 16.5625 11.875 17.375 13.25C18.1875 14.6562 18.1875 16.375 17.375 17.75C16.5625 19.1562 15.0938 20 13.5 20C11.875 20 10.4062 19.1562 9.59375 17.75C8.78125 16.375 8.78125 14.6562 9.59375 13.25C10.4062 11.875 11.875 11 13.5 11ZM13.5 14C13.9062 14 14.25 13.6875 14.25 13.25C14.25 12.8438 13.9062 12.5 13.5 12.5C13.0625 12.5 12.75 12.8438 12.75 13.25C12.75 13.6875 13.0625 14 13.5 14ZM12.5 15.5C12.5 15.7812 12.7188 16 13 16V17.5C12.7188 17.5 12.5 17.75 12.5 18C12.5 18.2812 12.7188 18.5 13 18.5H13.5H14C14.25 18.5 14.5 18.2812 14.5 18C14.5 17.75 14.25 17.5 14 17.5V15.5C14 15.25 13.75 15 13.5 15H13C12.7188 15 12.5 15.25 12.5 15.5Z" fill="black" fill-opacity="0.72"/>
</g>
<defs>
<clipPath id="clip0_2556_14707">
<rect width="18" height="24" fill="white"/>
</clipPath>
</defs>
</svg>
