<svg width="14" height="22" viewBox="0 0 14 22" fill="none" xmlns="http://www.w3.org/2000/svg">
<g id="label-paired / sm / bank-sm / bold" clip-path="url(#clip0_2556_12298)">
<path id="icon" d="M7.30078 3.83203L13.5078 7.27734C13.8086 7.44141 14 7.74219 14 8.07031C14 8.58984 13.5625 9 13.043 9H0.929688C0.410156 9 0 8.58984 0 8.07031C0 7.74219 0.164062 7.44141 0.464844 7.27734L6.67188 3.83203C6.86328 3.72266 7.10938 3.72266 7.30078 3.83203ZM6.23438 7.6875C6.15234 7.57812 6.125 7.41406 6.125 7.25C6.125 6.78516 6.50781 6.375 7 6.375C7.46484 6.375 7.875 6.78516 7.875 7.25C7.875 7.41406 7.82031 7.57812 7.73828 7.6875H11.5664L7 5.17188L2.40625 7.6875H6.23438ZM1.75 9.875H3.0625V14.25H4.8125V9.875H6.125V14.25H7.875V9.875H9.1875V14.25H10.9375V9.875H12.25V14.25H12.4688C12.8242 14.25 13.125 14.5508 13.125 14.9062C13.125 15.2891 12.8242 15.5625 12.4688 15.5625H1.75C1.36719 15.5625 1.09375 15.2891 1.09375 14.9062C1.09375 14.5508 1.36719 14.25 1.75 14.25V9.875ZM0.875 16.4375H13.3438C13.6992 16.4375 14 16.7383 14 17.0938C14 17.4766 13.6992 17.75 13.3438 17.75H0.875C0.492188 17.75 0.21875 17.4766 0.21875 17.0938C0.21875 16.7383 0.492188 16.4375 0.875 16.4375Z" fill="black" fill-opacity="0.72"/>
</g>
<defs>
<clipPath id="clip0_2556_12298">
<rect width="14" height="22" fill="white"/>
</clipPath>
</defs>
</svg>
