<svg width="11" height="22" viewBox="0 0 11 22" fill="none" xmlns="http://www.w3.org/2000/svg">
<g id="label-paired / sm / microphone-sm / regular" clip-path="url(#clip0_2556_12622)">
<path id="icon" d="M7.25 6.375C7.25 5.41797 6.45703 4.625 5.5 4.625C4.51562 4.625 3.75 5.41797 3.75 6.375V10.75C3.75 11.7344 4.51562 12.5 5.5 12.5C6.45703 12.5 7.25 11.7344 7.25 10.75V6.375ZM2.875 6.375C2.875 4.92578 4.05078 3.75 5.5 3.75C6.94922 3.75 8.125 4.92578 8.125 6.375V10.75C8.125 12.1992 6.94922 13.375 5.5 13.375C4.05078 13.375 2.875 12.1992 2.875 10.75V6.375ZM2 9.4375V10.75C2 12.6914 3.55859 14.25 5.5 14.25C7.41406 14.25 9 12.6914 9 10.75V9.4375C9 9.21875 9.19141 9 9.4375 9C9.65625 9 9.875 9.21875 9.875 9.4375V10.75C9.875 13.0195 8.125 14.9062 5.9375 15.125V16.875H7.6875C7.90625 16.875 8.125 17.0938 8.125 17.3125C8.125 17.5586 7.90625 17.75 7.6875 17.75H5.5H3.3125C3.06641 17.75 2.875 17.5586 2.875 17.3125C2.875 17.0938 3.06641 16.875 3.3125 16.875H5.0625V15.125C2.84766 14.9062 1.125 13.0195 1.125 10.75V9.4375C1.125 9.21875 1.31641 9 1.5625 9C1.78125 9 2 9.21875 2 9.4375Z" fill="black" fill-opacity="0.72"/>
</g>
<defs>
<clipPath id="clip0_2556_12622">
<rect width="11" height="22" fill="white"/>
</clipPath>
</defs>
</svg>
