<svg width="14" height="22" viewBox="0 0 14 22" fill="none" xmlns="http://www.w3.org/2000/svg">
<g id="label-paired / sm / circle-calendar-sm / bold" clip-path="url(#clip0_2556_12912)">
<path id="icon" d="M12.6875 10.75C12.6875 8.72656 11.5938 6.86719 9.84375 5.82812C8.06641 4.81641 5.90625 4.81641 4.15625 5.82812C2.37891 6.86719 1.3125 8.72656 1.3125 10.75C1.3125 12.8008 2.37891 14.6602 4.15625 15.6992C5.90625 16.7109 8.06641 16.7109 9.84375 15.6992C11.5938 14.6602 12.6875 12.8008 12.6875 10.75ZM0 10.75C0 8.26172 1.3125 5.96484 3.5 4.70703C5.66016 3.44922 8.3125 3.44922 10.5 4.70703C12.6602 5.96484 14 8.26172 14 10.75C14 13.2656 12.6602 15.5625 10.5 16.8203C8.3125 18.0781 5.66016 18.0781 3.5 16.8203C1.3125 15.5625 0 13.2656 0 10.75ZM5.6875 6.8125C5.90625 6.8125 6.125 7.03125 6.125 7.25V7.6875H7.875V7.25C7.875 7.03125 8.06641 6.8125 8.3125 6.8125C8.53125 6.8125 8.75 7.03125 8.75 7.25V7.6875H9.1875C9.89844 7.6875 10.5 8.28906 10.5 9V9.875V12.5C10.5 13.2383 9.89844 13.8125 9.1875 13.8125H4.8125C4.07422 13.8125 3.5 13.2383 3.5 12.5V9.875V9C3.5 8.28906 4.07422 7.6875 4.8125 7.6875H5.25V7.25C5.25 7.03125 5.44141 6.8125 5.6875 6.8125ZM4.8125 12.5H9.1875V9.875H4.8125V12.5Z" fill="black" fill-opacity="0.72"/>
</g>
<defs>
<clipPath id="clip0_2556_12912">
<rect width="14" height="22" fill="white"/>
</clipPath>
</defs>
</svg>
