<svg width="8" height="18" viewBox="0 0 8 18" fill="none" xmlns="http://www.w3.org/2000/svg">
<g id="label-paired / caption / five-caption / fill" clip-path="url(#clip0_2556_10254)">
<path id="icon" d="M1 4.88281C1.07031 4.53125 1.375 4.25 1.75 4.25H6.25C6.64844 4.25 7 4.60156 7 5C7 5.42188 6.64844 5.75 6.25 5.75H2.35938L1.89062 8.375H4.5625C6.32031 8.375 7.75 9.80469 7.75 11.5625C7.75 13.3438 6.32031 14.75 4.5625 14.75H2.59375C1.67969 14.75 0.835938 14.2344 0.414062 13.4141L0.320312 13.2266C0.132812 12.8516 0.273438 12.4062 0.648438 12.2188C1.02344 12.0312 1.46875 12.1719 1.65625 12.5469L1.75 12.7344C1.91406 13.0625 2.24219 13.25 2.59375 13.25H4.5625C5.47656 13.25 6.25 12.5 6.25 11.5625C6.25 10.6484 5.47656 9.875 4.5625 9.875H1C0.765625 9.875 0.554688 9.78125 0.414062 9.61719C0.273438 9.45312 0.203125 9.21875 0.25 9.00781L1 4.88281Z" fill="black" fill-opacity="0.72"/>
</g>
<defs>
<clipPath id="clip0_2556_10254">
<rect width="8" height="18" fill="white"/>
</clipPath>
</defs>
</svg>
