<svg width="16" height="24" viewBox="0 0 16 24" fill="none" xmlns="http://www.w3.org/2000/svg">
<g id="label-paired / md / face-viewfinder-md / regular" clip-path="url(#clip0_2556_15037)">
<path id="icon" d="M1.5 4H4.5C4.75 4 5 4.25 5 4.5C5 4.78125 4.75 5 4.5 5H1.5C1.21875 5 1 5.25 1 5.5V8.5C1 8.78125 0.75 9 0.5 9C0.21875 9 0 8.78125 0 8.5V5.5C0 4.6875 0.65625 4 1.5 4ZM14.5 4C15.3125 4 16 4.6875 16 5.5V8.5C16 8.78125 15.75 9 15.5 9C15.2188 9 15 8.78125 15 8.5V5.5C15 5.25 14.75 5 14.5 5H11.5C11.2188 5 11 4.78125 11 4.5C11 4.25 11.2188 4 11.5 4H14.5ZM0 18.5V15.5C0 15.25 0.21875 15 0.5 15C0.75 15 1 15.25 1 15.5V18.5C1 18.7812 1.21875 19 1.5 19H4.5C4.75 19 5 19.25 5 19.5C5 19.7812 4.75 20 4.5 20H1.5C0.65625 20 0 19.3438 0 18.5ZM14.5 20H11.5C11.2188 20 11 19.7812 11 19.5C11 19.25 11.2188 19 11.5 19H14.5C14.75 19 15 18.7812 15 18.5V15.5C15 15.25 15.2188 15 15.5 15C15.75 15 16 15.25 16 15.5V18.5C16 19.3438 15.3125 20 14.5 20ZM7.5 10.75C7.5 11.1875 7.15625 11.5 6.75 11.5C6.3125 11.5 6 11.1875 6 10.75C6 10.3438 6.3125 10 6.75 10C7.15625 10 7.5 10.3438 7.5 10.75ZM9.25 11.5C8.8125 11.5 8.5 11.1875 8.5 10.75C8.5 10.3438 8.8125 10 9.25 10C9.65625 10 10 10.3438 10 10.75C10 11.1875 9.65625 11.5 9.25 11.5ZM8 8C6.5625 8 5.25 8.78125 4.53125 10C3.8125 11.25 3.8125 12.7812 4.53125 14C5.25 15.25 6.5625 16 8 16C9.40625 16 10.7188 15.25 11.4375 14C12.1562 12.7812 12.1562 11.25 11.4375 10C10.7188 8.78125 9.40625 8 8 8ZM8 17C6.1875 17 4.5625 16.0625 3.65625 14.5C2.75 12.9688 2.75 11.0625 3.65625 9.5C4.5625 7.96875 6.1875 7 8 7C9.78125 7 11.4062 7.96875 12.3125 9.5C13.2188 11.0625 13.2188 12.9688 12.3125 14.5C11.4062 16.0625 9.78125 17 8 17ZM6.6875 12.75C6.9375 13.2188 7.4375 13.5 8 13.5C8.53125 13.5 9.03125 13.2188 9.28125 12.75C9.4375 12.5312 9.71875 12.4375 9.96875 12.5938C10.2188 12.7188 10.2812 13.0312 10.1562 13.2812C9.71875 14 8.90625 14.5312 8 14.5312C7.0625 14.5312 6.25 14 5.8125 13.2812C5.6875 13.0312 5.75 12.7188 6 12.5938C6.25 12.4375 6.5625 12.5312 6.6875 12.75Z" fill="black" fill-opacity="0.72"/>
</g>
<defs>
<clipPath id="clip0_2556_15037">
<rect width="16" height="24" fill="white"/>
</clipPath>
</defs>
</svg>
