<svg width="16" height="24" viewBox="0 0 16 24" fill="none" xmlns="http://www.w3.org/2000/svg">
<g id="label-paired / md / location-crosshairs-md / fill" clip-path="url(#clip0_2556_15179)">
<path id="icon" d="M8 4C8.53125 4 9 4.46875 9 5V6.09375C11.5 6.53125 13.4688 8.5 13.9062 11H15C15.5312 11 16 11.4688 16 12C16 12.5625 15.5312 13 15 13H13.9062C13.4688 15.5312 11.5 17.5 9 17.9375V19C9 19.5625 8.53125 20 8 20C7.4375 20 7 19.5625 7 19V17.9375C4.46875 17.5 2.5 15.5312 2.0625 13H1C0.4375 13 0 12.5625 0 12C0 11.4688 0.4375 11 1 11H2.0625C2.5 8.5 4.46875 6.53125 7 6.09375V5C7 4.46875 7.4375 4 8 4ZM4 12C4 13.4375 4.75 14.75 6 15.4688C7.21875 16.1875 8.75 16.1875 10 15.4688C11.2188 14.75 12 13.4375 12 12C12 10.5938 11.2188 9.28125 10 8.5625C8.75 7.84375 7.21875 7.84375 6 8.5625C4.75 9.28125 4 10.5938 4 12ZM8 9.5C8.875 9.5 9.6875 10 10.1562 10.75C10.5938 11.5312 10.5938 12.5 10.1562 13.25C9.6875 14.0312 8.875 14.5 8 14.5C7.09375 14.5 6.28125 14.0312 5.8125 13.25C5.375 12.5 5.375 11.5312 5.8125 10.75C6.28125 10 7.09375 9.5 8 9.5Z" fill="black" fill-opacity="0.72"/>
</g>
<defs>
<clipPath id="clip0_2556_15179">
<rect width="16" height="24" fill="white"/>
</clipPath>
</defs>
</svg>
