<svg width="13" height="22" viewBox="0 0 13 22" fill="none" xmlns="http://www.w3.org/2000/svg">
<g id="label-paired / sm / placeholder-sm / regular" clip-path="url(#clip0_2556_12911)">
<path id="icon" d="M2.78125 4.625H3.4375C3.65625 4.625 3.875 4.84375 3.875 5.0625C3.875 5.30859 3.65625 5.5 3.4375 5.5H2.78125C1.93359 5.5 1.25 6.21094 1.25 7.03125V7.6875C1.25 7.93359 1.03125 8.125 0.8125 8.125C0.566406 8.125 0.375 7.93359 0.375 7.6875V7.03125C0.375 5.71875 1.44141 4.625 2.78125 4.625ZM0.8125 9C1.03125 9 1.25 9.21875 1.25 9.4375V12.0625C1.25 12.3086 1.03125 12.5 0.8125 12.5C0.566406 12.5 0.375 12.3086 0.375 12.0625V9.4375C0.375 9.21875 0.566406 9 0.8125 9ZM12.1875 9C12.4062 9 12.625 9.21875 12.625 9.4375V12.0625C12.625 12.3086 12.4062 12.5 12.1875 12.5C11.9414 12.5 11.75 12.3086 11.75 12.0625V9.4375C11.75 9.21875 11.9414 9 12.1875 9ZM12.1875 8.125C11.9414 8.125 11.75 7.93359 11.75 7.6875V7.03125C11.75 6.21094 11.0391 5.5 10.2188 5.5H9.5625C9.31641 5.5 9.125 5.30859 9.125 5.0625C9.125 4.84375 9.31641 4.625 9.5625 4.625H10.2188C11.5312 4.625 12.625 5.71875 12.625 7.03125V7.6875C12.625 7.93359 12.4062 8.125 12.1875 8.125ZM12.625 13.8125V14.4688C12.625 15.8086 11.5312 16.875 10.2188 16.875H9.5625C9.31641 16.875 9.125 16.6836 9.125 16.4375C9.125 16.2188 9.31641 16 9.5625 16H10.2188C11.0391 16 11.75 15.3164 11.75 14.4688V13.8125C11.75 13.5938 11.9414 13.375 12.1875 13.375C12.4062 13.375 12.625 13.5938 12.625 13.8125ZM1.25 13.8125V14.4688C1.25 15.3164 1.93359 16 2.78125 16H3.4375C3.65625 16 3.875 16.2188 3.875 16.4375C3.875 16.6836 3.65625 16.875 3.4375 16.875H2.78125C1.44141 16.875 0.375 15.8086 0.375 14.4688V13.8125C0.375 13.5938 0.566406 13.375 0.8125 13.375C1.03125 13.375 1.25 13.5938 1.25 13.8125ZM5.1875 16.875C4.94141 16.875 4.75 16.6836 4.75 16.4375C4.75 16.2188 4.94141 16 5.1875 16H7.8125C8.03125 16 8.25 16.2188 8.25 16.4375C8.25 16.6836 8.03125 16.875 7.8125 16.875H5.1875ZM4.75 5.0625C4.75 4.84375 4.94141 4.625 5.1875 4.625H7.8125C8.03125 4.625 8.25 4.84375 8.25 5.0625C8.25 5.30859 8.03125 5.5 7.8125 5.5H5.1875C4.94141 5.5 4.75 5.30859 4.75 5.0625Z" fill="black" fill-opacity="0.72"/>
</g>
<defs>
<clipPath id="clip0_2556_12911">
<rect width="13" height="22" fill="white"/>
</clipPath>
</defs>
</svg>
