<svg width="20" height="30" viewBox="0 0 20 30" fill="none" xmlns="http://www.w3.org/2000/svg">
<g id="label-paired / lg / circle-arrow-up-lg / fill" clip-path="url(#clip0_2556_17375)">
<path id="icon" d="M10 25.5C6.40625 25.5 3.125 23.625 1.32812 20.5C-0.46875 17.4141 -0.46875 13.625 1.32812 10.5C3.125 7.41406 6.40625 5.5 10 5.5C13.5547 5.5 16.8359 7.41406 18.6328 10.5C20.4297 13.625 20.4297 17.4141 18.6328 20.5C16.8359 23.625 13.5547 25.5 10 25.5ZM15.0391 14.5234L10.625 10.1484C10.2734 9.79688 9.6875 9.79688 9.33594 10.1484L4.96094 14.5234C4.57031 14.9141 4.57031 15.5 4.96094 15.8516C5.3125 16.2422 5.89844 16.2422 6.28906 15.8516L9.0625 13.0781V20.1875C9.0625 20.7344 9.45312 21.125 10 21.125C10.5078 21.125 10.9375 20.7344 10.9375 20.1875V13.0781L13.7109 15.8516C14.0625 16.2422 14.6484 16.2422 15.0391 15.8516C15.3906 15.5 15.3906 14.9141 15.0391 14.5234Z" fill="black" fill-opacity="0.72"/>
</g>
<defs>
<clipPath id="clip0_2556_17375">
<rect width="20" height="30" fill="white"/>
</clipPath>
</defs>
</svg>
