<svg width="12" height="18" viewBox="0 0 12 18" fill="none" xmlns="http://www.w3.org/2000/svg">
<g id="label-paired / caption / clone-caption / fill" clip-path="url(#clip0_2556_10041)">
<path id="icon" d="M6.75 14V12.5H8.25V14C8.25 14.8438 7.57031 15.5 6.75 15.5H1.5C0.65625 15.5 0 14.8438 0 14V8.75C0 7.92969 0.65625 7.25 1.5 7.25H3V8.75H1.5V14H6.75ZM5.25 11.75C4.40625 11.75 3.75 11.0938 3.75 10.25V5C3.75 4.17969 4.40625 3.5 5.25 3.5H10.5C11.3203 3.5 12 4.17969 12 5V10.25C12 11.0938 11.3203 11.75 10.5 11.75H5.25Z" fill="black" fill-opacity="0.72"/>
</g>
<defs>
<clipPath id="clip0_2556_10041">
<rect width="12" height="18" fill="white"/>
</clipPath>
</defs>
</svg>
