<svg width="15" height="36" viewBox="0 0 15 36" fill="none" xmlns="http://www.w3.org/2000/svg">
<g id="label-paired / xl / five-xl / bold" clip-path="url(#clip0_2556_19583)">
<path id="icon" d="M1.5 8.4375C1.59375 7.92188 2.0625 7.5 2.625 7.5H12.375C12.9844 7.5 13.5 8.01562 13.5 8.625C13.5 9.28125 12.9844 9.75 12.375 9.75H3.5625L2.4375 16.125H8.8125C12.1875 16.125 15 18.9375 15 22.3125C15 25.7344 12.1875 28.5 8.8125 28.5H4.3125C2.625 28.5 1.03125 27.5625 0.28125 26.0156L0.09375 25.6406C-0.1875 25.0781 0.046875 24.4219 0.609375 24.1406C1.17188 23.8594 1.82812 24.0938 2.10938 24.6562L2.29688 25.0312C2.67188 25.7812 3.46875 26.25 4.3125 26.25H8.8125C10.9688 26.25 12.75 24.5156 12.75 22.3125C12.75 20.1562 10.9688 18.375 8.8125 18.375H1.125C0.75 18.375 0.46875 18.2344 0.234375 18C0.046875 17.7188 -0.046875 17.3906 0 17.0625L1.5 8.4375Z" fill="black" fill-opacity="0.72"/>
</g>
<defs>
<clipPath id="clip0_2556_19583">
<rect width="15" height="36" fill="white"/>
</clipPath>
</defs>
</svg>
