<svg width="24" height="36" viewBox="0 0 24 36" fill="none" xmlns="http://www.w3.org/2000/svg">
<g id="label-paired / xl / chart-line-xl / regular" clip-path="url(#clip0_2556_19589)">
<path id="icon" d="M1.5 8.25V24.75C1.5 26.0156 2.48438 27 3.75 27H23.25C23.625 27 24 27.375 24 27.75C24 28.1719 23.625 28.5 23.25 28.5H3.75C1.64062 28.5 0 26.8594 0 24.75V8.25C0 7.875 0.328125 7.5 0.75 7.5C1.125 7.5 1.5 7.875 1.5 8.25ZM22.2656 13.3125L15.5156 20.0625C15.2344 20.3438 14.7188 20.3438 14.4375 20.0625L10.5 16.0781L5.76562 20.8125C5.48438 21.0938 4.96875 21.0938 4.6875 20.8125C4.40625 20.5312 4.40625 20.0156 4.6875 19.7344L9.9375 14.4844C10.2188 14.2031 10.7344 14.2031 11.0156 14.4844L15 18.4688L21.1875 12.2344C21.4688 11.9531 21.9844 11.9531 22.2656 12.2344C22.5469 12.5156 22.5469 13.0312 22.2656 13.3125Z" fill="black" fill-opacity="0.72"/>
</g>
<defs>
<clipPath id="clip0_2556_19589">
<rect width="24" height="36" fill="white"/>
</clipPath>
</defs>
</svg>
