<svg width="20" height="30" viewBox="0 0 20 30" fill="none" xmlns="http://www.w3.org/2000/svg">
<g id="label-paired / lg / arrow-up-from-square-lg / bold" clip-path="url(#clip0_2556_17506)">
<path id="icon" d="M10.6641 5.77344L15 10.1484C15.3906 10.5391 15.3906 11.125 15 11.4766C14.6484 11.8672 14.0625 11.8672 13.6719 11.4766L10.8984 8.70312V18.3125C10.8984 18.8594 10.5078 19.25 9.96094 19.25C9.45312 19.25 9.02344 18.8594 9.02344 18.3125V8.70312L6.25 11.4766C5.89844 11.8672 5.3125 11.8672 4.96094 11.4766C4.57031 11.125 4.57031 10.5391 4.96094 10.1484L9.33594 5.77344C9.6875 5.42188 10.2734 5.42188 10.6641 5.77344ZM2.8125 6.75H3.125C3.63281 6.75 4.0625 7.17969 4.0625 7.6875C4.0625 8.23438 3.63281 8.625 3.125 8.625H2.8125C2.26562 8.625 1.875 9.05469 1.875 9.5625V22.6875C1.875 23.2344 2.26562 23.625 2.8125 23.625H17.1875C17.6953 23.625 18.125 23.2344 18.125 22.6875V9.5625C18.125 9.05469 17.6953 8.625 17.1875 8.625H16.875C16.3281 8.625 15.9375 8.23438 15.9375 7.6875C15.9375 7.17969 16.3281 6.75 16.875 6.75H17.1875C18.7109 6.75 20 8.03906 20 9.5625V22.6875C20 24.25 18.7109 25.5 17.1875 25.5H2.8125C1.25 25.5 0 24.25 0 22.6875V9.5625C0 8.03906 1.25 6.75 2.8125 6.75Z" fill="black" fill-opacity="0.72"/>
</g>
<defs>
<clipPath id="clip0_2556_17506">
<rect width="20" height="30" fill="white"/>
</clipPath>
</defs>
</svg>
