<svg width="16" height="24" viewBox="0 0 16 24" fill="none" xmlns="http://www.w3.org/2000/svg">
<g id="label-paired / md / circle-calendar-md / regular" clip-path="url(#clip0_2556_15178)">
<path id="icon" d="M15 12C15 9.5 13.6562 7.21875 11.5 5.96875C9.3125 4.6875 6.65625 4.6875 4.5 5.96875C2.3125 7.21875 1 9.5 1 12C1 14.5312 2.3125 16.8125 4.5 18.0625C6.65625 19.3438 9.3125 19.3438 11.5 18.0625C13.6562 16.8125 15 14.5312 15 12ZM0 12C0 9.15625 1.5 6.53125 4 5.09375C6.46875 3.65625 9.5 3.65625 12 5.09375C14.4688 6.53125 16 9.15625 16 12C16 14.875 14.4688 17.5 12 18.9375C9.5 20.375 6.46875 20.375 4 18.9375C1.5 17.5 0 14.875 0 12ZM6.5 7C6.75 7 7 7.25 7 7.5V8H9V7.5C9 7.25 9.21875 7 9.5 7C9.75 7 10 7.25 10 7.5V8H10.5C11.3125 8 12 8.6875 12 9.5V10V11V14.5C12 15.3438 11.3125 16 10.5 16H5.5C4.65625 16 4 15.3438 4 14.5V11V10V9.5C4 8.6875 4.65625 8 5.5 8H6V7.5C6 7.25 6.21875 7 6.5 7ZM5 9.5V10H11V9.5C11 9.25 10.75 9 10.5 9H9.5H6.5H5.5C5.21875 9 5 9.25 5 9.5ZM11 11H5V14.5C5 14.7812 5.21875 15 5.5 15H10.5C10.75 15 11 14.7812 11 14.5V11Z" fill="black" fill-opacity="0.72"/>
</g>
<defs>
<clipPath id="clip0_2556_15178">
<rect width="16" height="24" fill="white"/>
</clipPath>
</defs>
</svg>
