<svg width="15" height="18" viewBox="0 0 15 18" fill="none" xmlns="http://www.w3.org/2000/svg">
<g id="label-paired / caption / hand-gesture-tap-left-caption / bold" clip-path="url(#clip0_3546_690)">
<path id="icon" d="M3.21094 8C3.21094 7.17969 3.89062 6.5 4.71094 6.5C5.53125 6.5 6.21094 7.17969 6.21094 8C6.21094 8.25781 6.16406 8.49219 6.04688 8.70312L6.51562 9.66406L6.53906 9.64062C6.5625 9.61719 6.58594 9.61719 6.60938 9.59375C6.91406 9.45312 7.28906 9.5 7.57031 9.6875C7.61719 9.64062 7.6875 9.61719 7.75781 9.57031C8.0625 9.42969 8.4375 9.47656 8.69531 9.66406C8.71875 9.64062 8.74219 9.64062 8.74219 9.61719C8.76562 9.61719 8.78906 9.59375 8.8125 9.59375C9.28125 9.35938 9.84375 9.57031 10.0547 10.0391L10.7109 11.4219C11.1328 12.2891 10.7578 13.3438 9.86719 13.7422L8.20312 14.5391C7.85156 14.7031 7.45312 14.7734 7.07812 14.75H7.03125C6.23438 14.6797 5.55469 14.2109 5.20312 13.4844L5.15625 13.3438C4.99219 13.0156 4.96875 12.6406 5.10938 12.3125L5.27344 11.9375C5.29688 11.8672 5.34375 11.7734 5.39062 11.6797L4.33594 9.45312C3.70312 9.28906 3.21094 8.70312 3.21094 8ZM4.64062 7.92969C4.94531 7.78906 5.27344 7.8125 5.53125 7.97656C5.53125 7.53125 5.15625 7.17969 4.71094 7.17969C4.26562 7.17969 3.89062 7.55469 3.89062 8C3.89062 8.23438 3.98438 8.44531 4.125 8.58594C4.19531 8.30469 4.35938 8.07031 4.64062 7.92969ZM6.60938 12.5938L6.58594 12.5703C6.65625 12.6875 6.58594 12.8281 6.49219 12.8984C6.35156 12.9453 6.23438 12.8984 6.16406 12.7812L5.90625 12.2188L5.76562 12.5703C5.69531 12.7344 5.69531 12.875 5.76562 13.0391L5.83594 13.1797C6.07031 13.6719 6.53906 14 7.07812 14.0469H7.125C7.40625 14.0703 7.66406 14.0234 7.89844 13.9062L9.58594 13.1094C10.1016 12.875 10.3125 12.2422 10.0781 11.7266L9.42188 10.3438C9.375 10.2266 9.21094 10.1797 9.11719 10.2266C9.07031 10.25 9.02344 10.2969 9 10.3438C8.92969 10.4375 8.8125 10.5078 8.67188 10.5078C8.55469 10.5078 8.4375 10.4375 8.36719 10.3203C8.32031 10.2031 8.17969 10.1562 8.0625 10.2031C7.99219 10.25 7.94531 10.2969 7.92188 10.3672C7.89844 10.5078 7.78125 10.6484 7.61719 10.6484C7.47656 10.6719 7.33594 10.5781 7.26562 10.4609L7.21875 10.3438C7.17188 10.2266 7.00781 10.2031 6.91406 10.25C6.84375 10.2734 6.79688 10.3203 6.77344 10.4141C6.75 10.5547 6.63281 10.6719 6.46875 10.6719C6.32812 10.6953 6.1875 10.625 6.11719 10.4844L5.53125 9.26562L5.25 8.63281C5.17969 8.5625 5.03906 8.51562 4.94531 8.5625C4.85156 8.60938 4.80469 8.72656 4.82812 8.82031L5.10938 9.45312L6.60938 12.5938ZM2.57812 4.25C2.39062 4.25 2.25 4.41406 2.25 4.57812V14.4453C2.25 14.6094 2.39062 14.7734 2.57812 14.7734C2.76562 14.7734 2.90625 14.6094 2.90625 14.4453V4.57812C2.90625 4.41406 2.76562 4.25 2.57812 4.25Z" fill="black" fill-opacity="0.72"/>
</g>
<defs>
<clipPath id="clip0_3546_690">
<rect width="15" height="18" fill="white"/>
</clipPath>
</defs>
</svg>
