<svg width="20" height="30" viewBox="0 0 20 30" fill="none" xmlns="http://www.w3.org/2000/svg">
<g id="label-paired / lg / loader-lg / fill" clip-path="url(#clip0_2981_916)">
<path id="icon" d="M11.25 6.75V9.25C11.25 9.95312 10.6641 10.5 10 10.5C9.29688 10.5 8.75 9.95312 8.75 9.25V6.75C8.75 6.08594 9.29688 5.5 10 5.5C10.6641 5.5 11.25 6.08594 11.25 6.75ZM11.25 21.75V24.25C11.25 24.9531 10.6641 25.5 10 25.5C9.29688 25.5 8.75 24.9531 8.75 24.25V21.75C8.75 21.0859 9.29688 20.5 10 20.5C10.6641 20.5 11.25 21.0859 11.25 21.75ZM0 15.5C0 14.8359 0.546875 14.25 1.25 14.25H3.75C4.41406 14.25 5 14.8359 5 15.5C5 16.2031 4.41406 16.75 3.75 16.75H1.25C0.546875 16.75 0 16.2031 0 15.5ZM16.25 14.25H18.75C19.4141 14.25 20 14.8359 20 15.5C20 16.2031 19.4141 16.75 18.75 16.75H16.25C15.5469 16.75 15 16.2031 15 15.5C15 14.8359 15.5469 14.25 16.25 14.25ZM2.92969 8.42969C3.39844 7.96094 4.17969 7.96094 4.6875 8.42969L6.44531 10.2266C6.95312 10.6953 6.95312 11.5156 6.44531 11.9844C5.97656 12.4922 5.15625 12.4922 4.6875 11.9844L2.92969 10.2266C2.42188 9.71875 2.42188 8.9375 2.92969 8.42969ZM15.2734 19.0547L17.0703 20.8125C17.5391 21.3203 17.5391 22.1016 17.0703 22.5703C16.5625 23.0781 15.7812 23.0781 15.2734 22.5703L13.5156 20.8125C13.0469 20.3438 13.0469 19.5234 13.5156 19.0547C14.0234 18.5469 14.8047 18.5469 15.2734 19.0547ZM2.92969 22.5703V22.6094C2.42188 22.1016 2.42188 21.3203 2.92969 20.8125L4.6875 19.0547C5.15625 18.5469 5.97656 18.5469 6.44531 19.0547C6.95312 19.5234 6.95312 20.3438 6.44531 20.8125L4.6875 22.5703C4.17969 23.0781 3.39844 23.0781 2.92969 22.5703ZM13.5156 10.2266L15.2734 8.42969C15.7812 7.96094 16.5625 7.96094 17.0703 8.42969C17.5391 8.9375 17.5391 9.71875 17.0703 10.2266L15.2734 11.9844C14.8047 12.4531 14.0234 12.4531 13.5156 11.9844C13.0469 11.4766 13.0469 10.6953 13.5156 10.2266Z" fill="black" fill-opacity="0.72"/>
</g>
<defs>
<clipPath id="clip0_2981_916">
<rect width="20" height="30" fill="white"/>
</clipPath>
</defs>
</svg>
