<svg width="20" height="30" viewBox="0 0 20 30" fill="none" xmlns="http://www.w3.org/2000/svg">
<g id="label-paired / lg / shield-check-lg / fill" clip-path="url(#clip0_2556_16934)">
<path id="icon" d="M10.5078 5.61719L17.8516 8.74219C18.7109 9.13281 19.375 9.95312 19.375 10.9688C19.3359 14.875 17.7344 21.9453 11.0156 25.1875C10.3516 25.5 9.60938 25.5 8.94531 25.1875C2.22656 21.9453 0.625 14.875 0.625 10.9688C0.585938 9.95312 1.25 9.13281 2.10938 8.74219L9.45312 5.61719C9.60938 5.53906 9.80469 5.5 10 5.5C10.1562 5.5 10.3516 5.53906 10.5078 5.61719ZM12.1875 13.625C12.1875 12.4531 11.1719 11.4375 10 11.4375C8.78906 11.4375 7.8125 12.4531 7.8125 13.625C7.8125 14.5234 8.32031 15.2656 9.0625 15.6172V18.3125C9.0625 18.8594 9.45312 19.25 10 19.25C10.5078 19.25 10.9375 18.8594 10.9375 18.3125V15.6172C11.6406 15.2656 12.1875 14.5234 12.1875 13.625Z" fill="black" fill-opacity="0.72"/>
</g>
<defs>
<clipPath id="clip0_2556_16934">
<rect width="20" height="30" fill="white"/>
</clipPath>
</defs>
</svg>
