<svg width="30" height="36" viewBox="0 0 30 36" fill="none" xmlns="http://www.w3.org/2000/svg">
<g id="label-paired / xl / laptop-mobile-xl / fill" clip-path="url(#clip0_2556_19719)">
<path id="icon" d="M6 6H21C22.6406 6 24 7.35938 24 9V10.5H21V9H6V19.5H16.5V24H3.5625C1.59375 24 0 22.4062 0 20.4375C0 19.9219 0.375 19.5 0.890625 19.5H3V9C3 7.35938 4.3125 6 6 6ZM21 27H27V15H21V27ZM18 14.25C18 13.0312 18.9844 12 20.25 12H27.75C28.9688 12 30 13.0312 30 14.25V27.75C30 29.0156 28.9688 30 27.75 30H20.25C18.9844 30 18 29.0156 18 27.75V14.25Z" fill="black" fill-opacity="0.72"/>
</g>
<defs>
<clipPath id="clip0_2556_19719">
<rect width="30" height="36" fill="white"/>
</clipPath>
</defs>
</svg>
