<svg width="16" height="24" viewBox="0 0 16 24" fill="none" xmlns="http://www.w3.org/2000/svg">
<g id="label-paired / md / options-md / fill" clip-path="url(#clip0_5147_451)">
<path id="icon" d="M2.25 19.8438C1.28125 19.8438 0.5 19.0625 0.5 18.0938V13.625C0.5 13.0312 0.96875 12.5312 1.59375 12.5312H2.40625C3 12.5312 3.5 13.0312 3.5 13.625V14.8125L4.4375 13.875C5 13.3125 5.71875 13 6.5 13H8.6875C9.28125 13 9.78125 13.5 9.78125 14.0938V14.7812C9.78125 15.4062 9.28125 15.875 8.6875 15.875H7C6.6875 15.875 6.375 16 6.125 16.25L5.53125 16.8438H6.71875C7.3125 16.8438 7.8125 17.3438 7.8125 17.9375V18.75C7.8125 19.3438 7.3125 19.8438 6.71875 19.8438H2.25ZM14.4375 12.125H13.625C13 12.125 12.5 11.625 12.5 11V9.8125L11.5625 10.7812C11 11.3125 10.2812 11.625 9.5 11.625H7.3125C6.71875 11.625 6.21875 11.1562 6.21875 10.5312V9.84375C6.21875 9.25 6.71875 8.75 7.3125 8.75H9C9.3125 8.75 9.65625 8.625 9.875 8.40625L10.4688 7.78125H9.28125C8.6875 7.78125 8.1875 7.3125 8.1875 6.6875V5.875C8.1875 5.28125 8.6875 4.78125 9.28125 4.78125H13.75C14.7188 4.78125 15.5 5.59375 15.5 6.5625V11C15.5 11.625 15.0312 12.0938 14.4062 12.0938H14.4375V12.125Z" fill="black" fill-opacity="0.72"/>
</g>
<defs>
<clipPath id="clip0_5147_451">
<rect width="16" height="24" fill="white"/>
</clipPath>
</defs>
</svg>
