<svg width="27" height="36" viewBox="0 0 27 36" fill="none" xmlns="http://www.w3.org/2000/svg">
<g id="label-paired / xl / share-from-square-xl / regular" clip-path="url(#clip0_3997_661)">
<path id="icon" d="M18.75 19.125C18.75 19.3594 18.8906 19.5 19.125 19.5C19.2188 19.5 19.3125 19.5 19.3594 19.4062L25.4062 13.6875C25.4531 13.6406 25.4531 13.5938 25.4531 13.5C25.4531 13.4531 25.4531 13.4062 25.4062 13.3594L19.3594 7.64062C19.3125 7.54688 19.2188 7.5 19.125 7.5C18.8906 7.5 18.75 7.6875 18.75 7.875V9.75V10.5C18.75 10.9219 18.375 11.25 18 11.25H17.25H15.75H13.5C10.1719 11.25 7.5 13.9688 7.5 17.25C7.5 18.9375 8.20312 20.1562 9.04688 21.0469C9 20.8125 9 20.5781 9 20.3438C9 17.8125 11.0156 15.75 13.5469 15.75H15.75H16.5H17.25H18C18.375 15.75 18.75 16.125 18.75 16.5V17.25V19.125ZM17.25 17.25H16.5H15.75H13.5469C11.8594 17.25 10.5 18.6562 10.5 20.3438C10.5 21.0469 11.1562 21.7969 11.5781 22.2188C11.8125 22.4062 12 22.6875 12 23.0156V23.0625C12 23.5781 11.5312 24 11.0156 24C10.9219 24 10.7812 24 10.6875 23.9531C9.84375 23.5781 6 21.6562 6 17.25C6 13.125 9.32812 9.75 13.5 9.75H15.75H17.25V8.25V7.875C17.25 6.84375 18.0938 6 19.125 6C19.5938 6 20.0625 6.1875 20.3906 6.51562L26.4375 12.2344C26.7656 12.5625 27 13.0312 27 13.5C27 14.0156 26.7656 14.4375 26.4375 14.7656L20.3906 20.4844C20.0625 20.8594 19.5938 21 19.125 21C18.0938 21 17.25 20.2031 17.25 19.125V18.75V17.25ZM3 7.5H5.25C5.625 7.5 6 7.875 6 8.25C6 8.67188 5.625 9 5.25 9H3C2.15625 9 1.5 9.70312 1.5 10.5V27C1.5 27.8438 2.15625 28.5 3 28.5H19.5C20.2969 28.5 21 27.8438 21 27V24.75C21 24.375 21.3281 24 21.75 24C22.125 24 22.5 24.375 22.5 24.75V27C22.5 28.6875 21.1406 30 19.5 30H3C1.3125 30 0 28.6875 0 27V10.5C0 8.85938 1.3125 7.5 3 7.5Z" fill="black" fill-opacity="0.72"/>
</g>
<defs>
<clipPath id="clip0_3997_661">
<rect width="27" height="36" fill="white"/>
</clipPath>
</defs>
</svg>
