<svg width="16" height="24" viewBox="0 0 16 24" fill="none" xmlns="http://www.w3.org/2000/svg">
<g id="label-paired / md / circle-arrow-left-md / regular" clip-path="url(#clip0_2556_15274)">
<path id="icon" d="M1 12C1 14.5312 2.3125 16.8125 4.5 18.0625C6.65625 19.3438 9.3125 19.3438 11.5 18.0625C13.6562 16.8125 15 14.5312 15 12C15 9.5 13.6562 7.21875 11.5 5.96875C9.3125 4.6875 6.65625 4.6875 4.5 5.96875C2.3125 7.21875 1 9.5 1 12ZM16 12C16 14.875 14.4688 17.5 12 18.9375C9.5 20.375 6.46875 20.375 4 18.9375C1.5 17.5 0 14.875 0 12C0 9.15625 1.5 6.53125 4 5.09375C6.46875 3.65625 9.5 3.65625 12 5.09375C14.4688 6.53125 16 9.15625 16 12ZM7.125 8.65625C7.3125 8.46875 7.65625 8.46875 7.84375 8.65625C8.03125 8.84375 8.03125 9.1875 7.84375 9.375L5.6875 11.5H11.5C11.75 11.5 12 11.75 12 12C12 12.2812 11.75 12.5 11.5 12.5H5.6875L7.84375 14.6562C8.03125 14.8438 8.03125 15.1875 7.84375 15.375C7.65625 15.5625 7.3125 15.5625 7.125 15.375L4.125 12.375C3.9375 12.1875 3.9375 11.8438 4.125 11.6562L7.125 8.65625Z" fill="black" fill-opacity="0.72"/>
</g>
<defs>
<clipPath id="clip0_2556_15274">
<rect width="16" height="24" fill="white"/>
</clipPath>
</defs>
</svg>
