<svg width="25" height="30" viewBox="0 0 25 30" fill="none" xmlns="http://www.w3.org/2000/svg">
<g id="label-paired / lg / user-slash-lg / bold" clip-path="url(#clip0_2365_767)">
<path id="icon" d="M1.52344 5.69531L7.5 10.3828C7.55208 9.0026 8.04688 7.85677 8.98438 6.94531C9.92188 6.00781 11.0938 5.52604 12.5 5.5C13.9062 5.52604 15.0911 6.00781 16.0547 6.94531C16.9922 7.90885 17.474 9.09375 17.5 10.5C17.474 11.6719 17.1224 12.7005 16.4453 13.5859C15.7682 14.4453 14.8828 15.0312 13.7891 15.3438L24.6484 23.8203C25.0651 24.2109 25.1172 24.6536 24.8047 25.1484C24.4141 25.5651 23.9714 25.6172 23.4766 25.3047L0.351562 7.17969C-0.0651042 6.78906 -0.117188 6.34635 0.195312 5.85156C0.585938 5.4349 1.02865 5.38281 1.52344 5.69531ZM11.3672 13.3906C11.7057 13.5469 12.0833 13.625 12.5 13.625C13.3854 13.599 14.1276 13.2995 14.7266 12.7266C15.2995 12.1276 15.599 11.3854 15.625 10.5C15.599 9.61458 15.2995 8.8724 14.7266 8.27344C14.1276 7.70052 13.3854 7.40104 12.5 7.375C11.6146 7.40104 10.8724 7.70052 10.2734 8.27344C9.70052 8.8724 9.40104 9.61458 9.375 10.5C9.375 11.1771 9.57031 11.7891 9.96094 12.3359L11.3672 13.3906ZM10.3125 17.375L12.6953 19.25H10.7031C9.40104 19.276 8.29427 19.6927 7.38281 20.5C6.44531 21.3073 5.8724 22.349 5.66406 23.625H18.2422L20.5078 25.4219C20.3776 25.474 20.2344 25.5 20.0781 25.5H4.92188C4.58333 25.5 4.3099 25.3828 4.10156 25.1484C3.86719 24.9401 3.75 24.6667 3.75 24.3281C3.80208 22.4271 4.4401 20.8385 5.66406 19.5625C6.88802 18.2604 8.4375 17.5312 10.3125 17.375Z" fill="black" fill-opacity="0.72"/>
</g>
<defs>
<clipPath id="clip0_2365_767">
<rect width="25" height="30" fill="white"/>
</clipPath>
</defs>
</svg>
