<svg width="14" height="18" viewBox="0 0 14 18" fill="none" xmlns="http://www.w3.org/2000/svg">
<g id="label-paired / caption / file-circle-info-caption / regular" clip-path="url(#clip0_2556_10633)">
<path id="icon" d="M1.75 14.75H7.1875C7.42188 15.0312 7.67969 15.2891 7.96094 15.5C7.89062 15.5 7.82031 15.5 7.75 15.5H1.75C0.90625 15.5 0.25 14.8438 0.25 14V5C0.25 4.17969 0.90625 3.5 1.75 3.5H5.40625C5.6875 3.5 5.99219 3.64062 6.20312 3.85156L8.89844 6.54688C9.10938 6.75781 9.25 7.0625 9.25 7.34375V8.16406C8.96875 8.23438 8.73438 8.32812 8.5 8.46875V8H5.875C5.24219 8 4.75 7.50781 4.75 6.875V4.25H1.75C1.32812 4.25 1 4.60156 1 5V14C1 14.4219 1.32812 14.75 1.75 14.75ZM8.47656 7.25C8.45312 7.20312 8.42969 7.13281 8.38281 7.08594L5.66406 4.36719C5.61719 4.32031 5.54688 4.29688 5.5 4.27344V6.875C5.5 7.08594 5.66406 7.25 5.875 7.25H8.47656ZM13 12.125C13 11.1875 12.4844 10.3438 11.6875 9.875C10.8672 9.38281 9.85938 9.38281 9.0625 9.875C8.24219 10.3438 7.75 11.1875 7.75 12.125C7.75 13.0859 8.24219 13.9297 9.0625 14.3984C9.85938 14.8906 10.8672 14.8906 11.6875 14.3984C12.4844 13.9297 13 13.0859 13 12.125ZM7 12.125C7 10.9297 7.63281 9.82812 8.6875 9.21875C9.71875 8.60938 11.0078 8.60938 12.0625 9.21875C13.0938 9.82812 13.75 10.9297 13.75 12.125C13.75 13.3438 13.0938 14.4453 12.0625 15.0547C11.0078 15.6641 9.71875 15.6641 8.6875 15.0547C7.63281 14.4453 7 13.3438 7 12.125ZM10.375 11.375C10.0469 11.375 9.8125 11.1406 9.8125 10.8125C9.8125 10.5078 10.0469 10.25 10.375 10.25C10.6797 10.25 10.9375 10.5078 10.9375 10.8125C10.9375 11.1406 10.6797 11.375 10.375 11.375ZM9.625 13.625C9.625 13.4375 9.78906 13.25 10 13.25V12.5C9.78906 12.5 9.625 12.3359 9.625 12.125C9.625 11.9375 9.78906 11.75 10 11.75H10.375C10.5625 11.75 10.75 11.9375 10.75 12.125V13.25C10.9375 13.25 11.125 13.4375 11.125 13.625C11.125 13.8359 10.9375 14 10.75 14H10.375H10C9.78906 14 9.625 13.8359 9.625 13.625Z" fill="black" fill-opacity="0.72"/>
</g>
<defs>
<clipPath id="clip0_2556_10633">
<rect width="14" height="18" fill="white"/>
</clipPath>
</defs>
</svg>
