<svg width="16" height="24" viewBox="0 0 16 24" fill="none" xmlns="http://www.w3.org/2000/svg">
<g id="label-paired / md / circle-dollar-md / regular" clip-path="url(#clip0_2556_14625)">
<path id="icon" d="M15 12C15 9.5 13.6562 7.21875 11.5 5.96875C9.3125 4.6875 6.65625 4.6875 4.5 5.96875C2.3125 7.21875 1 9.5 1 12C1 14.5312 2.3125 16.8125 4.5 18.0625C6.65625 19.3438 9.3125 19.3438 11.5 18.0625C13.6562 16.8125 15 14.5312 15 12ZM0 12C0 9.15625 1.5 6.53125 4 5.09375C6.46875 3.65625 9.5 3.65625 12 5.09375C14.4688 6.53125 16 9.15625 16 12C16 14.875 14.4688 17.5 12 18.9375C9.5 20.375 6.46875 20.375 4 18.9375C1.5 17.5 0 14.875 0 12ZM8.5 7.75V8.46875C8.90625 8.5 9.3125 8.625 9.71875 8.75C9.78125 8.75 9.8125 8.78125 9.875 8.78125C10.125 8.84375 10.2812 9.125 10.2188 9.40625C10.1562 9.65625 9.875 9.8125 9.59375 9.75C9.53125 9.71875 9.4375 9.71875 9.375 9.6875C9.15625 9.625 8.90625 9.53125 8.65625 9.5C8.0625 9.4375 7.53125 9.5 7.125 9.65625C6.71875 9.84375 6.53125 10.0938 6.5 10.2812C6.4375 10.5938 6.5625 10.7812 6.8125 10.9688C7.15625 11.1562 7.65625 11.3125 8.25 11.4688V11.5C8.8125 11.6562 9.46875 11.8438 9.96875 12.1562C10.5625 12.5625 10.8125 13.2188 10.6875 13.9375C10.5625 14.5938 10.0938 15.0625 9.5 15.2812C9.21875 15.4062 8.84375 15.5 8.46875 15.5V16.25C8.46875 16.5312 8.25 16.75 7.96875 16.75C7.71875 16.75 7.46875 16.5312 7.46875 16.25V15.4688C7.21875 15.4062 6.8125 15.2812 6.46875 15.1875C6.25 15.125 6.03125 15.0625 5.8125 15C5.5625 14.9062 5.40625 14.625 5.5 14.3438C5.59375 14.0938 5.875 13.9688 6.125 14.0312C6.34375 14.0938 6.53125 14.1875 6.75 14.25C7.09375 14.3438 7.46875 14.4375 7.625 14.4688C8.25 14.5625 8.78125 14.5 9.125 14.375C9.46875 14.2188 9.65625 14 9.71875 13.75C9.75 13.4062 9.65625 13.1562 9.375 12.9688C9 12.7188 8.5625 12.5938 8.09375 12.4688C8.03125 12.4688 7.96875 12.4375 7.90625 12.4062C7.34375 12.2812 6.75 12.0938 6.28125 11.7812C6.03125 11.625 5.78125 11.4062 5.625 11.125C5.46875 10.8125 5.4375 10.4688 5.5 10.0938C5.625 9.4375 6.125 9 6.71875 8.75C6.9375 8.65625 7.21875 8.5625 7.46875 8.53125V7.75C7.46875 7.5 7.6875 7.25 7.96875 7.25C8.25 7.25 8.46875 7.5 8.46875 7.75H8.5Z" fill="black" fill-opacity="0.72"/>
</g>
<defs>
<clipPath id="clip0_2556_14625">
<rect width="16" height="24" fill="white"/>
</clipPath>
</defs>
</svg>
