<svg width="15" height="18" viewBox="0 0 15 18" fill="none" xmlns="http://www.w3.org/2000/svg">
<g id="label-paired / caption / user-check-caption / bold" clip-path="url(#clip0_3327_690)">
<path id="icon" d="M5.25 4.625C4.57031 4.625 3.96094 5 3.60938 5.5625C3.28125 6.14844 3.28125 6.875 3.60938 7.4375C3.96094 8.02344 4.57031 8.375 5.25 8.375C5.90625 8.375 6.51562 8.02344 6.86719 7.4375C7.19531 6.875 7.19531 6.14844 6.86719 5.5625C6.51562 5 5.90625 4.625 5.25 4.625ZM5.25 9.5C4.17188 9.5 3.1875 8.9375 2.64844 8C2.10938 7.08594 2.10938 5.9375 2.64844 5C3.1875 4.08594 4.17188 3.5 5.25 3.5C6.30469 3.5 7.28906 4.08594 7.82812 5C8.36719 5.9375 8.36719 7.08594 7.82812 8C7.28906 8.9375 6.30469 9.5 5.25 9.5ZM4.17188 11.75C2.625 11.75 1.35938 12.8984 1.14844 14.375H9.32812C9.11719 12.8984 7.85156 11.75 6.30469 11.75H4.17188ZM4.17188 10.625H6.30469C8.625 10.625 10.5 12.5 10.5 14.8203C10.5 15.1953 10.1719 15.5 9.79688 15.5H0.679688C0.304688 15.5 0 15.1953 0 14.8203C0 12.5 1.85156 10.625 4.17188 10.625ZM14.6484 7.64844L11.6484 10.6484C11.4141 10.8828 11.0625 10.8828 10.8516 10.6484L9.35156 9.14844C9.11719 8.9375 9.11719 8.58594 9.35156 8.375C9.5625 8.14062 9.91406 8.14062 10.1484 8.375L11.25 9.47656L13.8516 6.875C14.0625 6.64062 14.4141 6.64062 14.6484 6.875C14.8594 7.08594 14.8594 7.4375 14.6484 7.64844Z" fill="black" fill-opacity="0.72"/>
</g>
<defs>
<clipPath id="clip0_3327_690">
<rect width="15" height="18" fill="white"/>
</clipPath>
</defs>
</svg>
