<svg width="16" height="24" viewBox="0 0 16 24" fill="none" xmlns="http://www.w3.org/2000/svg">
<g id="label-paired / md / file-pdf-md / bold" clip-path="url(#clip0_2365_842)">
<path id="icon" d="M2 18.5H3V20H2C1.4375 19.9792 0.96875 19.7812 0.59375 19.4062C0.21875 19.0312 0.0208333 18.5625 0 18V6C0.0208333 5.4375 0.21875 4.96875 0.59375 4.59375C0.96875 4.21875 1.4375 4.02083 2 4H7.1875C7.72917 4 8.19792 4.19792 8.59375 4.59375L11.4062 7.40625C11.8021 7.80208 12 8.28125 12 8.84375V13H10.5V9H8C7.70833 9 7.46875 8.90625 7.28125 8.71875C7.09375 8.53125 7 8.29167 7 8V5.5H2C1.6875 5.52083 1.52083 5.6875 1.5 6V18C1.52083 18.3125 1.6875 18.4792 2 18.5ZM5.5 15H6.5C7 15.0208 7.41667 15.1875 7.75 15.5C8.0625 15.8333 8.22917 16.25 8.25 16.75C8.22917 17.25 8.0625 17.6667 7.75 18C7.41667 18.3125 7 18.4792 6.5 18.5H6V19.5C5.97917 19.8125 5.8125 19.9792 5.5 20C5.1875 19.9792 5.02083 19.8125 5 19.5V18V15.5C5.02083 15.1875 5.1875 15.0208 5.5 15ZM6.5 17.5C6.95833 17.4583 7.20833 17.2083 7.25 16.75C7.20833 16.2917 6.95833 16.0417 6.5 16H6V17.5H6.5ZM9.5 15H10.5C10.9167 15.0208 11.2708 15.1667 11.5625 15.4375C11.8333 15.7292 11.9792 16.0833 12 16.5V18.5C11.9792 18.9167 11.8333 19.2708 11.5625 19.5625C11.2708 19.8333 10.9167 19.9792 10.5 20H9.5C9.1875 19.9792 9.02083 19.8125 9 19.5V15.5C9.02083 15.1875 9.1875 15.0208 9.5 15ZM10.5 19C10.8125 18.9792 10.9792 18.8125 11 18.5V16.5C10.9792 16.1875 10.8125 16.0208 10.5 16H10V19H10.5ZM13 15.5C13.0208 15.1875 13.1875 15.0208 13.5 15H15C15.3125 15.0208 15.4792 15.1875 15.5 15.5C15.4792 15.8125 15.3125 15.9792 15 16H14V17H15C15.3125 17.0208 15.4792 17.1875 15.5 17.5C15.4792 17.8125 15.3125 17.9792 15 18H14V19.5C13.9792 19.8125 13.8125 19.9792 13.5 20C13.1875 19.9792 13.0208 19.8125 13 19.5V17.5V15.5Z" fill="black" fill-opacity="0.72"/>
</g>
<defs>
<clipPath id="clip0_2365_842">
<rect width="16" height="24" fill="white"/>
</clipPath>
</defs>
</svg>
