<svg width="8" height="18" viewBox="0 0 8 18" fill="none" xmlns="http://www.w3.org/2000/svg">
<g id="label-paired / caption / zero-caption / bold" clip-path="url(#clip0_2556_10409)">
<path id="icon" d="M0.25 8C0.25 5.9375 1.91406 4.25 4 4.25C6.0625 4.25 7.75 5.9375 7.75 8V11C7.75 13.0859 6.0625 14.75 4 14.75C1.91406 14.75 0.25 13.0859 0.25 11V8ZM4 5.375C2.54688 5.375 1.375 6.57031 1.375 8V11C1.375 12.4531 2.54688 13.625 4 13.625C5.42969 13.625 6.625 12.4531 6.625 11V8C6.625 6.57031 5.42969 5.375 4 5.375Z" fill="black" fill-opacity="0.72"/>
</g>
<defs>
<clipPath id="clip0_2556_10409">
<rect width="8" height="18" fill="white"/>
</clipPath>
</defs>
</svg>
