<svg width="24" height="36" viewBox="0 0 24 36" fill="none" xmlns="http://www.w3.org/2000/svg">
<g id="label-paired / xl / right-from-bracket-xl / fill" clip-path="url(#clip0_2556_19918)">
<path id="icon" d="M17.6719 10.9688L23.4375 16.7344C23.7656 17.0625 24 17.5312 24 18C24 18.5156 23.7656 18.9844 23.4375 19.3125L17.6719 25.0781C17.3906 25.3594 16.9688 25.5 16.5469 25.5C15.7031 25.5 15 24.7969 15 23.9531V21H9C8.15625 21 7.5 20.3438 7.5 19.5V16.5C7.5 15.7031 8.15625 15 9 15H15V12.0938C15 11.25 15.7031 10.5 16.5469 10.5C16.9688 10.5 17.3906 10.6875 17.6719 10.9688ZM7.5 10.5H4.5C3.65625 10.5 3 11.2031 3 12V24C3 24.8438 3.65625 25.5 4.5 25.5H7.5C8.29688 25.5 9 26.2031 9 27C9 27.8438 8.29688 28.5 7.5 28.5H4.5C2.01562 28.5 0 26.4844 0 24V12C0 9.51562 2.01562 7.5 4.5 7.5H7.5C8.29688 7.5 9 8.20312 9 9C9 9.84375 8.29688 10.5 7.5 10.5Z" fill="black" fill-opacity="0.72"/>
</g>
<defs>
<clipPath id="clip0_2556_19918">
<rect width="24" height="36" fill="white"/>
</clipPath>
</defs>
</svg>
