<svg width="12" height="36" viewBox="0 0 12 36" fill="none" xmlns="http://www.w3.org/2000/svg">
<g id="label-paired / xl / one-xl / fill" clip-path="url(#clip0_2556_19605)">
<path id="icon" d="M7.5 9V25.5H10.5C11.2969 25.5 12 26.2031 12 27C12 27.8438 11.2969 28.5 10.5 28.5H6H1.5C0.65625 28.5 0 27.8438 0 27C0 26.2031 0.65625 25.5 1.5 25.5H4.5V11.8125L2.29688 13.2656C1.64062 13.7344 0.703125 13.5469 0.234375 12.8438C-0.234375 12.1406 -0.046875 11.25 0.65625 10.7812L5.15625 7.78125C5.625 7.45312 6.1875 7.45312 6.70312 7.6875C7.17188 7.96875 7.5 8.48438 7.5 9Z" fill="black" fill-opacity="0.72"/>
</g>
<defs>
<clipPath id="clip0_2556_19605">
<rect width="12" height="36" fill="white"/>
</clipPath>
</defs>
</svg>
