<svg width="25" height="30" viewBox="0 0 25 30" fill="none" xmlns="http://www.w3.org/2000/svg">
<g id="label-paired / lg / language-lg / regular" clip-path="url(#clip0_2556_17136)">
<path id="icon" d="M11.875 9.25H2.5C1.79688 9.25 1.25 9.83594 1.25 10.5V20.5C1.25 21.2031 1.79688 21.75 2.5 21.75H11.875V9.25ZM13.125 9.25V21.75H22.5C23.1641 21.75 23.75 21.2031 23.75 20.5V10.5C23.75 9.83594 23.1641 9.25 22.5 9.25H13.125ZM25 10.5V20.5C25 21.9062 23.8672 23 22.5 23H2.5C1.09375 23 0 21.9062 0 20.5V10.5C0 9.13281 1.09375 8 2.5 8H22.5C23.8672 8 25 9.13281 25 10.5ZM6.79688 12.1797L9.29688 18.4297C9.45312 18.7422 9.29688 19.0938 8.94531 19.2109C8.63281 19.3672 8.28125 19.2109 8.16406 18.8594L7.8125 18.0391H4.64844L4.29688 18.8594C4.17969 19.2109 3.82812 19.3672 3.51562 19.2109C3.16406 19.0938 3.00781 18.7422 3.16406 18.4297L5.66406 12.1797C5.74219 11.9062 5.97656 11.75 6.25 11.75C6.48438 11.75 6.71875 11.9062 6.79688 12.1797ZM6.25 14.0938L5.15625 16.75H7.30469L6.25 14.0938ZM19.375 12.375V13H21.25H21.875C22.1875 13 22.5 13.3125 22.5 13.625C22.5 13.9766 22.1875 14.25 21.875 14.25H21.6797L21.5234 14.7188C21.1328 15.7344 20.5469 16.6719 19.8047 17.4141C19.9219 17.4922 20.0391 17.5703 20.1953 17.6484L20.9375 18.1172C21.2109 18.2734 21.3281 18.6641 21.1328 18.9766C20.9766 19.25 20.5859 19.3672 20.2734 19.1719L19.5312 18.7422C19.2969 18.5859 19.0625 18.4297 18.8281 18.2344C18.5156 18.4688 18.1641 18.6641 17.8125 18.8594L17.1484 19.2109C16.8359 19.3672 16.4453 19.2109 16.2891 18.8984C16.1328 18.625 16.2891 18.2344 16.5625 18.0781L17.2656 17.7266C17.4609 17.6484 17.6562 17.5312 17.8516 17.4141L17.0312 16.5938C16.7969 16.3203 16.7969 15.9297 17.0312 15.6953C17.3047 15.4609 17.6953 15.4609 17.9297 15.6953L18.8281 16.5938C19.4922 15.9688 20 15.1875 20.3516 14.2891V14.25H18.75H15.625C15.2734 14.25 15 13.9766 15 13.625C15 13.3125 15.2734 13 15.625 13H18.125V12.375C18.125 12.0625 18.3984 11.75 18.75 11.75C19.0625 11.75 19.375 12.0625 19.375 12.375Z" fill="black" fill-opacity="0.72"/>
</g>
<defs>
<clipPath id="clip0_2556_17136">
<rect width="25" height="30" fill="white"/>
</clipPath>
</defs>
</svg>
