<svg width="16" height="24" viewBox="0 0 16 24" fill="none" xmlns="http://www.w3.org/2000/svg">
<g id="label-paired / md / circle-arrow-down-left-md / fill" clip-path="url(#clip0_2556_15217)">
<path id="icon" d="M8 20C5.125 20 2.5 18.5 1.0625 16C-0.375 13.5312 -0.375 10.5 1.0625 8C2.5 5.53125 5.125 4 8 4C10.8438 4 13.4688 5.53125 14.9062 8C16.3438 10.5 16.3438 13.5312 14.9062 16C13.4688 18.5 10.8438 20 8 20ZM10 15.5C10.4062 15.5 10.75 15.1875 10.75 14.75C10.75 14.3438 10.4062 14 10 14H7.03125L11.2812 9.78125C11.5625 9.5 11.5625 9.03125 11.2812 8.75C10.9688 8.4375 10.5 8.4375 10.2188 8.75L6 12.9688V9.75C6 9.34375 5.65625 9 5.25 9C4.8125 9 4.5 9.34375 4.5 9.75V14.75C4.5 15.1875 4.8125 15.5 5.25 15.5H10Z" fill="black" fill-opacity="0.72"/>
</g>
<defs>
<clipPath id="clip0_2556_15217">
<rect width="16" height="24" fill="white"/>
</clipPath>
</defs>
</svg>
