<svg width="21" height="36" viewBox="0 0 21 36" fill="none" xmlns="http://www.w3.org/2000/svg">
<g id="label-paired / xl / share-nodes-xl / regular" clip-path="url(#clip0_4038_511)">
<path id="icon" d="M21 11.25C21 13.3594 19.3125 15 17.25 15C16.1719 15 15.1875 14.5781 14.4844 13.8281L7.40625 17.3906C7.45312 17.5781 7.5 17.8125 7.5 18C7.5 18.2344 7.45312 18.4688 7.40625 18.6562L14.4844 22.1719C15.1875 21.4688 16.1719 21 17.25 21C19.3125 21 21 22.6875 21 24.75C21 26.8594 19.3125 28.5 17.25 28.5C15.1406 28.5 13.5 26.8594 13.5 24.75C13.5 24.3281 13.5469 23.8594 13.6875 23.4844L6.89062 20.0625C6.1875 21.0938 5.0625 21.75 3.75 21.75C1.64062 21.75 0 20.1094 0 18C0 15.9375 1.64062 14.25 3.75 14.25C5.0625 14.25 6.1875 14.9531 6.89062 15.9844L13.6875 12.5625C13.5469 12.1406 13.5 11.7188 13.5 11.25C13.5 9.1875 15.1406 7.5 17.25 7.5C19.3125 7.5 21 9.1875 21 11.25ZM3.75 20.25C4.54688 20.25 5.25 19.8281 5.67188 19.125C6.09375 18.4688 6.09375 17.5781 5.67188 16.875C5.25 16.2188 4.54688 15.75 3.75 15.75C2.90625 15.75 2.20312 16.2188 1.78125 16.875C1.35938 17.5781 1.35938 18.4688 1.78125 19.125C2.20312 19.8281 2.90625 20.25 3.75 20.25ZM19.5 11.25C19.5 10.4531 19.0312 9.75 18.375 9.32812C17.6719 8.90625 16.7812 8.90625 16.125 9.32812C15.4219 9.75 15 10.4531 15 11.25C15 12.0938 15.4219 12.7969 16.125 13.2188C16.7812 13.6406 17.6719 13.6406 18.375 13.2188C19.0312 12.7969 19.5 12.0938 19.5 11.25ZM17.25 27C18.0469 27 18.75 26.5781 19.1719 25.875C19.5938 25.2188 19.5938 24.3281 19.1719 23.625C18.75 22.9688 18.0469 22.5 17.25 22.5C16.4062 22.5 15.7031 22.9688 15.2812 23.625C14.8594 24.3281 14.8594 25.2188 15.2812 25.875C15.7031 26.5781 16.4062 27 17.25 27Z" fill="black" fill-opacity="0.72"/>
</g>
<defs>
<clipPath id="clip0_4038_511">
<rect width="21" height="36" fill="white"/>
</clipPath>
</defs>
</svg>
