<svg width="18" height="36" viewBox="0 0 18 36" fill="none" xmlns="http://www.w3.org/2000/svg">
<g id="label-paired / xl / lightbulb-xl / regular" clip-path="url(#clip0_2556_19386)">
<path id="icon" d="M14.5312 18.1406C15.2812 17.0156 15.75 15.7031 15.75 14.25C15.75 10.5469 12.7031 7.5 9 7.5C5.25 7.5 2.25 10.5469 2.25 14.25C2.25 15.7031 2.67188 17.0156 3.42188 18.1406C3.60938 18.375 3.84375 18.7031 4.07812 19.0312C4.6875 19.8281 5.34375 20.7656 5.85938 21.7031C6.28125 22.4531 6.51562 23.25 6.60938 24.0469H5.10938C4.96875 23.4844 4.82812 22.9219 4.54688 22.4062C4.07812 21.5625 3.51562 20.7656 2.90625 19.9688C2.67188 19.6406 2.4375 19.3125 2.20312 18.9844C1.26562 17.625 0.75 16.0312 0.75 14.25C0.75 9.70312 4.40625 6 9 6C13.5469 6 17.25 9.70312 17.25 14.25C17.25 16.0312 16.6875 17.625 15.75 18.9844C15.5156 19.3125 15.2812 19.6406 15.0469 19.9688C14.4375 20.7656 13.875 21.5625 13.4062 22.4062C13.125 22.9219 12.9844 23.4375 12.8438 24H11.3438C11.4844 23.25 11.6719 22.4531 12.0938 21.7031C12.6094 20.7656 13.3125 19.8281 13.875 18.9844C14.1094 18.7031 14.3438 18.375 14.5312 18.0938V18.1406ZM9 10.5C6.89062 10.5 5.25 12.1875 5.25 14.25C5.25 14.6719 4.875 15 4.5 15C4.07812 15 3.75 14.6719 3.75 14.25C3.75 11.3906 6.09375 9 9 9C9.375 9 9.75 9.375 9.75 9.75C9.75 10.1719 9.375 10.5 9 10.5ZM6.84375 27C7.17188 27.8906 8.01562 28.5 9 28.5C9.9375 28.5 10.7812 27.8906 11.1094 27H6.84375ZM5.25 26.25V26.0156C5.25 25.7344 5.4375 25.5 5.71875 25.5H12.2344C12.5156 25.5 12.75 25.7344 12.75 26.0156V26.25C12.75 28.3594 11.0625 30 9 30C6.89062 30 5.25 28.3594 5.25 26.25Z" fill="black" fill-opacity="0.72"/>
</g>
<defs>
<clipPath id="clip0_2556_19386">
<rect width="18" height="36" fill="white"/>
</clipPath>
</defs>
</svg>
