<svg width="18" height="22" viewBox="0 0 18 22" fill="none" xmlns="http://www.w3.org/2000/svg">
<g id="label-paired / sm / users-sm / fill" clip-path="url(#clip0_2556_12279)">
<path id="icon" d="M4.1875 3.75C4.95312 3.75 5.66406 4.1875 6.07422 4.84375C6.45703 5.52734 6.45703 6.375 6.07422 7.03125C5.66406 7.71484 4.95312 8.125 4.1875 8.125C3.39453 8.125 2.68359 7.71484 2.27344 7.03125C1.89062 6.375 1.89062 5.52734 2.27344 4.84375C2.68359 4.1875 3.39453 3.75 4.1875 3.75ZM14.25 3.75C15.0156 3.75 15.7266 4.1875 16.1367 4.84375C16.5195 5.52734 16.5195 6.375 16.1367 7.03125C15.7266 7.71484 15.0156 8.125 14.25 8.125C13.457 8.125 12.7461 7.71484 12.3359 7.03125C11.9531 6.375 11.9531 5.52734 12.3359 4.84375C12.7461 4.1875 13.457 3.75 14.25 3.75ZM0.25 11.9258C0.25 10.3125 1.53516 9 3.14844 9H4.32422C4.76172 9 5.17188 9.10938 5.55469 9.27344C5.5 9.46484 5.5 9.68359 5.5 9.875C5.5 10.9414 5.9375 11.8711 6.67578 12.5C6.67578 12.5 6.67578 12.5 6.64844 12.5H0.824219C0.496094 12.5 0.25 12.2539 0.25 11.9258ZM11.3242 12.5H11.2969C12.0352 11.8711 12.4727 10.9414 12.4727 9.875C12.4727 9.68359 12.4727 9.46484 12.4453 9.27344C12.8008 9.10938 13.2109 9 13.6484 9H14.8242C16.4375 9 17.75 10.3125 17.75 11.9258C17.75 12.2539 17.4766 12.5 17.1484 12.5H11.3242ZM6.375 9.875C6.375 8.94531 6.86719 8.09766 7.6875 7.60547C8.48047 7.14062 9.49219 7.14062 10.3125 7.60547C11.1055 8.09766 11.625 8.94531 11.625 9.875C11.625 10.832 11.1055 11.6797 10.3125 12.1719C9.49219 12.6367 8.48047 12.6367 7.6875 12.1719C6.86719 11.6797 6.375 10.832 6.375 9.875ZM3.75 17.0391C3.75 15.0156 5.36328 13.375 7.38672 13.375H10.5859C12.6094 13.375 14.25 15.0156 14.25 17.0391C14.25 17.4219 13.9219 17.75 13.5117 17.75H4.46094C4.07812 17.75 3.75 17.4492 3.75 17.0391Z" fill="black" fill-opacity="0.72"/>
</g>
<defs>
<clipPath id="clip0_2556_12279">
<rect width="18" height="22" fill="white"/>
</clipPath>
</defs>
</svg>
