<svg width="21" height="36" viewBox="0 0 21 36" fill="none" xmlns="http://www.w3.org/2000/svg">
<g id="label-paired / xl / tiktok-xl" clip-path="url(#clip0_2556_19220)">
<path id="icon" d="M21 15.8438C18.8906 15.8906 16.9219 15.2344 15.2344 14.0156V22.4062C15.2344 25.5938 13.2656 28.4062 10.2656 29.5312C7.3125 30.6562 3.9375 29.8125 1.875 27.4219C-0.234375 24.9844 -0.609375 21.5625 0.890625 18.75C2.39062 15.9844 5.48438 14.4375 8.67188 14.8594V19.0781C7.21875 18.6094 5.625 19.125 4.73438 20.3438C3.89062 21.6094 3.89062 23.25 4.78125 24.4688C5.67188 25.6875 7.26562 26.2031 8.67188 25.7344C10.125 25.2656 11.1094 23.9062 11.1094 22.4062V6H15.2344C15.2344 6.375 15.2344 6.70312 15.3281 7.07812C15.6094 8.625 16.5 9.98438 17.8594 10.8281C18.75 11.4375 19.875 11.7656 21 11.7656V15.8438Z" fill="black" fill-opacity="0.72"/>
</g>
<defs>
<clipPath id="clip0_2556_19220">
<rect width="21" height="36" fill="white"/>
</clipPath>
</defs>
</svg>
