<svg width="6" height="22" viewBox="0 0 6 22" fill="none" xmlns="http://www.w3.org/2000/svg">
<g id="label-paired / sm / info-sm / fill" clip-path="url(#clip0_2556_12476)">
<path id="icon" d="M1.6875 5.9375C1.6875 5.47266 1.93359 5.0625 2.34375 4.81641C2.72656 4.57031 3.24609 4.57031 3.65625 4.81641C4.03906 5.0625 4.3125 5.47266 4.3125 5.9375C4.3125 6.42969 4.03906 6.83984 3.65625 7.08594C3.24609 7.33203 2.72656 7.33203 2.34375 7.08594C1.93359 6.83984 1.6875 6.42969 1.6875 5.9375ZM0.375 9.875C0.375 9.41016 0.757812 9 1.25 9H3C3.46484 9 3.875 9.41016 3.875 9.875V16H4.75C5.21484 16 5.625 16.4102 5.625 16.875C5.625 17.3672 5.21484 17.75 4.75 17.75H1.25C0.757812 17.75 0.375 17.3672 0.375 16.875C0.375 16.4102 0.757812 16 1.25 16H2.125V10.75H1.25C0.757812 10.75 0.375 10.3672 0.375 9.875Z" fill="black" fill-opacity="0.72"/>
</g>
<defs>
<clipPath id="clip0_2556_12476">
<rect width="6" height="22" fill="white"/>
</clipPath>
</defs>
</svg>
