<svg width="25" height="30" viewBox="0 0 25 30" fill="none" xmlns="http://www.w3.org/2000/svg">
<g id="label-paired / lg / location-crosshairs-slash-lg / bold" clip-path="url(#clip0_2556_17520)">
<path id="icon" d="M1.48438 5.73438L7.1875 10.1875C8.35938 9.05469 9.84375 8.27344 11.5625 8.07812V6.4375C11.5625 5.92969 11.9531 5.5 12.5 5.5C13.0078 5.5 13.4375 5.92969 13.4375 6.4375V8.07812C16.7969 8.50781 19.4922 11.2031 19.9219 14.5625H21.5625C22.0703 14.5625 22.5 14.9922 22.5 15.5C22.5 16.0469 22.0703 16.4375 21.5625 16.4375H19.9219C19.8047 17.4922 19.4531 18.5078 18.9062 19.3672L24.6094 23.8594C25.0391 24.1719 25.1172 24.7578 24.7656 25.1484C24.4531 25.5781 23.8672 25.6562 23.4766 25.3047L0.351562 7.17969C-0.078125 6.86719 -0.15625 6.28125 0.195312 5.89062C0.507812 5.46094 1.09375 5.38281 1.48438 5.73438ZM8.71094 11.3594L10.1953 12.5312C10.8203 12.0625 11.6406 11.75 12.5 11.75C14.5703 11.75 16.25 13.4297 16.25 15.5C16.25 16.0469 16.1328 16.5547 15.9375 17.0234L17.4219 18.1953C17.8516 17.4141 18.125 16.4766 18.125 15.5C18.125 12.4141 15.5859 9.875 12.5 9.875C11.0156 9.875 9.6875 10.4609 8.71094 11.3594ZM14.3359 15.7734C14.3359 15.6953 14.3359 15.6172 14.3359 15.5C14.3359 14.4844 13.5156 13.625 12.4609 13.625C12.2266 13.625 11.9922 13.7031 11.7969 13.7812L14.3359 15.7734ZM14.5703 20.7344L16.1719 22.0234C15.3516 22.5312 14.4141 22.8438 13.4375 22.9609V24.5625C13.4375 25.1094 13.0078 25.5 12.5 25.5C11.9531 25.5 11.5625 25.1094 11.5625 24.5625V22.9609C8.16406 22.5312 5.46875 19.8359 5.03906 16.4766H3.4375C2.89062 16.4766 2.5 16.0469 2.5 15.5391C2.5 14.9922 2.89062 14.6016 3.4375 14.6016H5.03906C5.07812 14.1719 5.15625 13.8203 5.27344 13.4297L6.91406 14.7188C6.875 14.9922 6.875 15.2656 6.875 15.5C6.875 18.625 9.375 21.125 12.5 21.125C13.2031 21.125 13.9062 21.0078 14.5703 20.7344Z" fill="black" fill-opacity="0.72"/>
</g>
<defs>
<clipPath id="clip0_2556_17520">
<rect width="25" height="30" fill="white"/>
</clipPath>
</defs>
</svg>
