<svg width="25" height="30" viewBox="0 0 25 30" fill="none" xmlns="http://www.w3.org/2000/svg">
<g id="label-paired / lg / stop-loss-lg / fill" clip-path="url(#clip0_2556_17451)">
<path id="icon" d="M5.74219 21.0859C5.03906 20.7344 4.45312 20.2656 3.94531 19.7188L3.55469 19.25L5.9375 16.8672L6.36719 17.3359C6.95312 18.0391 7.65625 18.3516 8.51562 18.3516C9.02344 18.3516 9.25781 18.2344 9.375 18.1562C9.49219 18.0391 9.53125 17.9219 9.53125 17.7266C9.53125 17.5312 9.49219 17.4531 9.45312 17.375C9.41406 17.375 9.41406 17.3359 9.33594 17.2969C9.21875 17.2578 9.0625 17.2188 8.86719 17.2188L7.85156 17.0625C6.64062 16.9062 5.66406 16.5547 5.03906 15.8906H5C4.375 15.1875 4.10156 14.3281 4.10156 13.3125C4.10156 12.7656 4.17969 12.2578 4.41406 11.7891C4.64844 11.3203 4.96094 10.8906 5.35156 10.5391C5.74219 10.2266 6.25 9.95312 6.79688 9.79688C7.34375 9.60156 7.96875 9.52344 8.63281 9.52344C9.49219 9.52344 10.2734 9.64062 10.9766 9.95312C11.6406 10.2266 12.2266 10.6562 12.7344 11.2031L13.125 11.6328L10.7422 14.0547L10.2734 13.5469C10.0781 13.3516 9.84375 13.1562 9.57031 13H9.53125C9.29688 12.8828 8.98438 12.7656 8.51562 12.7656C8.04688 12.7656 7.8125 12.8828 7.73438 12.9219C7.65625 13 7.61719 13.0391 7.61719 13.1953C7.61719 13.3125 7.65625 13.3906 7.65625 13.4297C7.65625 13.4688 7.69531 13.4688 7.69531 13.4688C7.77344 13.5469 7.96875 13.625 8.35938 13.7031L9.375 13.8594C10.5078 14.0156 11.4844 14.4062 12.1094 15.0312C12.7734 15.6562 13.0859 16.5547 13.0859 17.5703C13.0859 18.1562 12.9688 18.7031 12.7734 19.2109C12.5391 19.7188 12.2266 20.1484 11.7969 20.5C11.4062 20.8516 10.8984 21.125 10.3125 21.3203C9.72656 21.5156 9.0625 21.5938 8.39844 21.5938C7.38281 21.5938 6.52344 21.4375 5.78125 21.0859H5.74219ZM13.7109 21.4375V9.71875H17.2656V18.1562H21.25V21.4375H13.7109Z" fill="black" fill-opacity="0.72"/>
</g>
<defs>
<clipPath id="clip0_2556_17451">
<rect width="25" height="30" fill="white"/>
</clipPath>
</defs>
</svg>
