<svg width="24" height="36" viewBox="0 0 24 36" fill="none" xmlns="http://www.w3.org/2000/svg">
<g id="label-paired / xl / briefcase-xl / bold" clip-path="url(#clip0_2556_19276)">
<path id="icon" d="M8.25 8.625V10.5H15.75V8.625C15.75 8.4375 15.5625 8.25 15.375 8.25H8.625C8.39062 8.25 8.25 8.4375 8.25 8.625ZM6 10.5V8.625C6 7.21875 7.17188 6 8.625 6H15.375C16.7812 6 18 7.21875 18 8.625V10.5H21C22.6406 10.5 24 11.8594 24 13.5V19.125V25.5C24 27.1875 22.6406 28.5 21 28.5H3C1.3125 28.5 0 27.1875 0 25.5V19.125V13.5C0 11.8594 1.3125 10.5 3 10.5H6ZM2.25 20.25V25.5C2.25 25.9219 2.57812 26.25 3 26.25H21C21.375 26.25 21.75 25.9219 21.75 25.5V20.25H15V21C15 21.8438 14.2969 22.5 13.5 22.5H10.5C9.65625 22.5 9 21.8438 9 21V20.25H2.25ZM9 18H15H21.75V13.5C21.75 13.125 21.375 12.75 21 12.75H16.875H7.125H3C2.57812 12.75 2.25 13.125 2.25 13.5V18H9Z" fill="black" fill-opacity="0.72"/>
</g>
<defs>
<clipPath id="clip0_2556_19276">
<rect width="24" height="36" fill="white"/>
</clipPath>
</defs>
</svg>
