<svg width="12" height="18" viewBox="0 0 12 18" fill="none" xmlns="http://www.w3.org/2000/svg">
<g id="label-paired / caption / playback-speed-caption / regular" clip-path="url(#clip0_3758_770)">
<path id="icon" d="M11.625 9.5C11.625 12.3594 9.49219 14.7266 6.75 15.0781V14.3281C9.07031 13.9766 10.875 11.9375 10.875 9.5C10.875 7.0625 9.07031 5.04688 6.75 4.69531V3.94531C9.49219 4.29688 11.625 6.66406 11.625 9.5ZM3.11719 5.5625L2.57812 5.04688C3.32812 4.46094 4.24219 4.0625 5.25 3.94531V4.69531C4.45312 4.8125 3.72656 5.11719 3.11719 5.5625ZM2.0625 6.64062C1.59375 7.25 1.28906 7.97656 1.17188 8.75H0.421875C0.539062 7.76562 0.9375 6.85156 1.52344 6.10156L2.0625 6.64062ZM2.0625 12.3828L1.52344 12.9219C0.9375 12.1719 0.539062 11.2578 0.421875 10.25H1.17188C1.28906 11.0469 1.59375 11.7734 2.0625 12.3828ZM5.25 14.3281V15.0781C4.24219 14.9609 3.32812 14.5625 2.57812 13.9766L3.11719 13.4375C3.72656 13.9062 4.45312 14.2109 5.25 14.3281ZM4.6875 6.54688C4.80469 6.47656 4.96875 6.5 5.08594 6.57031L8.83594 9.19531C8.92969 9.26562 9 9.38281 9 9.5C9 9.64062 8.92969 9.75781 8.83594 9.82812L5.08594 12.4531C4.96875 12.5234 4.80469 12.5234 4.6875 12.4766C4.57031 12.4062 4.5 12.2656 4.5 12.125V6.875C4.5 6.73438 4.57031 6.61719 4.6875 6.54688ZM5.25 7.60156V11.4219L7.96875 9.5L5.25 7.60156Z" fill="black" fill-opacity="0.72"/>
</g>
<defs>
<clipPath id="clip0_3758_770">
<rect width="12" height="18" fill="white"/>
</clipPath>
</defs>
</svg>
