<svg width="16" height="24" viewBox="0 0 16 24" fill="none" xmlns="http://www.w3.org/2000/svg">
<g id="label-paired / md / thumbs-up-md / fill" clip-path="url(#clip0_2556_15181)">
<path id="icon" d="M9.78125 5.03125C10.5938 5.21875 11.125 6 10.9688 6.8125L10.875 7.15625C10.7188 8 10.4062 8.78125 10 9.5H14.5C15.3125 9.5 16 10.1875 16 11C16 11.5938 15.6562 12.0938 15.1875 12.3438C15.5312 12.625 15.75 13.0312 15.75 13.5C15.75 14.25 15.2188 14.8438 14.5312 15C14.6562 15.2188 14.75 15.4688 14.75 15.75C14.75 16.4375 14.3125 17 13.6875 17.1875C13.7188 17.2812 13.75 17.4062 13.75 17.5C13.75 18.3438 13.0625 19 12.25 19H9.1875C8.59375 19 8.03125 18.8438 7.53125 18.5L6.3125 17.7188C5.5 17.1562 5 16.2188 5 15.2188V14V12.5V11.75C5 10.8125 5.40625 9.96875 6.125 9.40625L6.34375 9.21875C7.15625 8.53125 7.75 7.625 7.9375 6.5625L8 6.21875C8.1875 5.40625 8.96875 4.875 9.78125 5.03125ZM1 10H3C3.53125 10 4 10.4688 4 11V18C4 18.5625 3.53125 19 3 19H1C0.4375 19 0 18.5625 0 18V11C0 10.4688 0.4375 10 1 10Z" fill="black" fill-opacity="0.72"/>
</g>
<defs>
<clipPath id="clip0_2556_15181">
<rect width="16" height="24" fill="white"/>
</clipPath>
</defs>
</svg>
