<svg width="13" height="22" viewBox="0 0 13 22" fill="none" xmlns="http://www.w3.org/2000/svg">
<g id="label-paired / sm / arrow-right-to-line-sm / fill" clip-path="url(#clip0_2556_12629)">
<path id="icon" d="M12.625 6.375V15.125C12.625 15.6172 12.2148 16 11.75 16C11.2578 16 10.875 15.6172 10.875 15.125V6.375C10.875 5.91016 11.2578 5.5 11.75 5.5C12.2148 5.5 12.625 5.91016 12.625 6.375ZM8.85156 11.3789L5.35156 14.8789C5.02344 15.2344 4.44922 15.2344 4.12109 14.8789C3.76562 14.5508 3.76562 13.9766 4.12109 13.6484L6.11719 11.625H1.25C0.757812 11.625 0.375 11.2422 0.375 10.75C0.375 10.2852 0.757812 9.875 1.25 9.875H6.11719L4.12109 7.87891C3.76562 7.55078 3.76562 6.97656 4.12109 6.64844C4.44922 6.29297 5.02344 6.29297 5.35156 6.64844L8.85156 10.1484C9.20703 10.4766 9.20703 11.0508 8.85156 11.3789Z" fill="black" fill-opacity="0.72"/>
</g>
<defs>
<clipPath id="clip0_2556_12629">
<rect width="13" height="22" fill="white"/>
</clipPath>
</defs>
</svg>
