<svg width="18" height="30" viewBox="0 0 18 30" fill="none" xmlns="http://www.w3.org/2000/svg">
<g id="label-paired / lg / arrow-down-to-bracket-lg / regular" clip-path="url(#clip0_2556_17526)">
<path id="icon" d="M14.4297 14.0938L9.42969 19.0938C9.19531 19.3281 8.76562 19.3281 8.53125 19.0938L3.53125 14.0938C3.29688 13.8594 3.29688 13.4297 3.53125 13.1953C3.76562 12.9609 4.19531 12.9609 4.42969 13.1953L8.375 17.1406V6.125C8.375 5.8125 8.64844 5.5 9 5.5C9.3125 5.5 9.625 5.8125 9.625 6.125V17.1406L13.5312 13.1953C13.7656 12.9609 14.1953 12.9609 14.4297 13.1953C14.6641 13.4297 14.6641 13.8594 14.4297 14.0938ZM1.5 18.625V22.375C1.5 23.4297 2.32031 24.25 3.375 24.25H14.625C15.6406 24.25 16.5 23.4297 16.5 22.375V18.625C16.5 18.3125 16.7734 18 17.125 18C17.4375 18 17.75 18.3125 17.75 18.625V22.375C17.75 24.1328 16.3438 25.5 14.625 25.5H3.375C1.61719 25.5 0.25 24.1328 0.25 22.375V18.625C0.25 18.3125 0.523438 18 0.875 18C1.1875 18 1.5 18.3125 1.5 18.625Z" fill="black" fill-opacity="0.72"/>
</g>
<defs>
<clipPath id="clip0_2556_17526">
<rect width="18" height="30" fill="white"/>
</clipPath>
</defs>
</svg>
