<svg width="20" height="30" viewBox="0 0 20 30" fill="none" xmlns="http://www.w3.org/2000/svg">
<g id="label-paired / lg / message-lines-lg / regular" clip-path="url(#clip0_2981_864)">
<path id="icon" d="M7.5 21.75V23.625L11.3281 20.7734C11.5234 20.6172 11.7969 20.5 12.0703 20.5H17.5C18.1641 20.5 18.75 19.9531 18.75 19.25V8C18.75 7.33594 18.1641 6.75 17.5 6.75H2.5C1.79688 6.75 1.25 7.33594 1.25 8V19.25C1.25 19.9531 1.79688 20.5 2.5 20.5H6.25C6.91406 20.5 7.5 21.0859 7.5 21.75ZM2.5 5.5H17.5C18.8672 5.5 20 6.63281 20 8V19.25C20 20.6562 18.8672 21.75 17.5 21.75H12.0703L7.22656 25.3828C7.03125 25.5391 6.79688 25.5391 6.5625 25.4609C6.36719 25.3438 6.25 25.1484 6.25 24.875V23V21.75H5H2.5C1.09375 21.75 0 20.6562 0 19.25V8C0 6.63281 1.09375 5.5 2.5 5.5ZM5.625 11.125H14.375C14.6875 11.125 15 11.4375 15 11.75C15 12.1016 14.6875 12.375 14.375 12.375H5.625C5.27344 12.375 5 12.1016 5 11.75C5 11.4375 5.27344 11.125 5.625 11.125ZM5.625 14.875H10.625C10.9375 14.875 11.25 15.1875 11.25 15.5C11.25 15.8516 10.9375 16.125 10.625 16.125H5.625C5.27344 16.125 5 15.8516 5 15.5C5 15.1875 5.27344 14.875 5.625 14.875Z" fill="black" fill-opacity="0.72"/>
</g>
<defs>
<clipPath id="clip0_2981_864">
<rect width="20" height="30" fill="white"/>
</clipPath>
</defs>
</svg>
