<svg width="30" height="36" viewBox="0 0 30 36" fill="none" xmlns="http://www.w3.org/2000/svg">
<g id="label-paired / xl / messages-question-xl / fill" clip-path="url(#clip0_2556_19444)">
<path id="icon" d="M0 9C0 7.35938 1.3125 6 3 6H16.5C18.1406 6 19.5 7.35938 19.5 9V18C19.5 19.6875 18.1406 21 16.5 21H9.46875L5.67188 23.8594C5.4375 24.0469 5.15625 24.0469 4.875 23.9531C4.64062 23.8125 4.5 23.5781 4.5 23.25V21H3C1.3125 21 0 19.6875 0 18V9ZM12 22.5H16.5C18.9844 22.5 21 20.4844 21 18V12H27C28.6406 12 30 13.3594 30 15V24C30 25.6875 28.6406 27 27 27H25.5V29.25C25.5 29.5781 25.3125 29.8125 25.0781 29.9531C24.7969 30.0469 24.5156 30.0469 24.2812 29.8594L20.4844 27H15C13.3125 27 12 25.6875 12 24V22.5ZM6.375 10.3594L6.32812 10.4062C6.1875 10.875 6.42188 11.4375 6.9375 11.5781C7.40625 11.7656 7.92188 11.5312 8.10938 11.0156V10.9688C8.15625 10.8281 8.29688 10.7812 8.4375 10.7812H10.6875C11.0156 10.7812 11.2969 11.0156 11.2969 11.3438C11.2969 11.5781 11.1562 11.7656 11.0156 11.8594L9.28125 12.8906C8.95312 13.0312 8.8125 13.3594 8.8125 13.6875V14.2031C8.8125 14.7188 9.23438 15.1406 9.75 15.1406C10.2188 15.1406 10.6406 14.7188 10.6875 14.2031L11.9062 13.5C12.7031 13.0781 13.1719 12.2344 13.1719 11.3438C13.1719 9.98438 12.0469 8.90625 10.6875 8.90625H8.4375C7.5 8.90625 6.65625 9.46875 6.375 10.3594ZM10.9688 17.625C11.0156 17.2031 10.7812 16.7344 10.3594 16.5C9.98438 16.2656 9.46875 16.2656 9.09375 16.5C8.67188 16.7344 8.4375 17.2031 8.48438 17.625C8.4375 18.0938 8.67188 18.5625 9.09375 18.7969C9.46875 19.0312 9.98438 19.0312 10.3594 18.7969C10.7812 18.5625 11.0156 18.0938 10.9688 17.625Z" fill="black" fill-opacity="0.72"/>
</g>
<defs>
<clipPath id="clip0_2556_19444">
<rect width="30" height="36" fill="white"/>
</clipPath>
</defs>
</svg>
