<svg width="25" height="30" viewBox="0 0 25 30" fill="none" xmlns="http://www.w3.org/2000/svg">
<g id="label-paired / lg / handshake-lg / fill" clip-path="url(#clip0_4513_696)">
<path id="icon" d="M12.6172 8.85938C13.2812 8.3125 14.1016 8 14.9609 8C15.6641 8 16.3672 8.23438 16.9531 8.58594L19.8047 10.4219L19.9609 10.5H20V17.8828L14.5703 12.8828L15.3516 12.2578C15.625 12.0625 15.7031 11.6719 15.4688 11.3984C15.2734 11.125 14.8828 11.0469 14.6094 11.2812L10.7031 14.2891C10.0391 14.7969 9.0625 14.6797 8.55469 13.9766C8.08594 13.3125 8.20312 12.4141 8.82812 11.9062L12.6172 8.85938ZM13.5156 13.7031L18.75 18.5078C19.4922 19.2109 19.5703 20.3828 18.8672 21.1641C18.2422 21.8672 17.1875 21.9453 16.4453 21.4375C16.3672 21.6719 16.2109 21.9062 16.0547 22.1016C15.3516 22.8438 14.1797 22.9219 13.3984 22.2188L12.7344 21.5938C12.6562 21.9062 12.5 22.1797 12.3047 22.4141C11.6016 23.1562 10.4297 23.2344 9.64844 22.5312L6.09375 19.25H5V10.5L7.8125 8.625C8.39844 8.23438 9.14062 8 9.84375 8.03906C10.3516 8.03906 10.8594 8.11719 11.2891 8.3125L8.04688 10.9297C6.91406 11.8672 6.67969 13.5469 7.53906 14.7188C8.47656 15.9688 10.2734 16.2422 11.4844 15.2656L13.5156 13.7031ZM0.625 10.5H3.75V19.25C3.75 19.9531 3.16406 20.5 2.5 20.5H1.25C0.546875 20.5 0 19.9531 0 19.25V11.125C0 10.8125 0.273438 10.5 0.625 10.5ZM1.875 18C1.52344 18 1.25 18.3125 1.25 18.625C1.25 18.9766 1.52344 19.25 1.875 19.25C2.1875 19.25 2.5 18.9766 2.5 18.625C2.5 18.3125 2.1875 18 1.875 18ZM21.25 10.5H24.375C24.6875 10.5 25 10.8125 25 11.125V19.25C25 19.9531 24.4141 20.5 23.75 20.5H22.5C21.7969 20.5 21.25 19.9531 21.25 19.25V10.5ZM22.5 18.625C22.5 18.9766 22.7734 19.25 23.125 19.25C23.4375 19.25 23.75 18.9766 23.75 18.625C23.75 18.3125 23.4375 18 23.125 18C22.7734 18 22.5 18.3125 22.5 18.625Z" fill="black" fill-opacity="0.72"/>
</g>
<defs>
<clipPath id="clip0_4513_696">
<rect width="25" height="30" fill="white"/>
</clipPath>
</defs>
</svg>
