<svg width="12" height="24" viewBox="0 0 12 24" fill="none" xmlns="http://www.w3.org/2000/svg">
<g id="label-paired / md / arrow-up-to-line-md / fill" clip-path="url(#clip0_2556_15238)">
<path id="icon" d="M1 5H11C11.5312 5 12 5.46875 12 6C12 6.5625 11.5312 7 11 7H1C0.4375 7 0 6.5625 0 6C0 5.46875 0.4375 5 1 5ZM6.6875 9.3125L10.6875 13.3125C11.0938 13.6875 11.0938 14.3438 10.6875 14.7188C10.3125 15.125 9.65625 15.125 9.28125 14.7188L7 12.4375V18C7 18.5625 6.53125 19 6 19C5.4375 19 5 18.5625 5 18V12.4375L2.6875 14.7188C2.3125 15.125 1.65625 15.125 1.28125 14.7188C0.875 14.3438 0.875 13.6875 1.28125 13.3125L5.28125 9.3125C5.65625 8.90625 6.3125 8.90625 6.6875 9.3125Z" fill="black" fill-opacity="0.72"/>
</g>
<defs>
<clipPath id="clip0_2556_15238">
<rect width="12" height="24" fill="white"/>
</clipPath>
</defs>
</svg>
