<svg width="23" height="30" viewBox="0 0 23 30" fill="none" xmlns="http://www.w3.org/2000/svg">
<g id="label-paired / lg / desktop-lg / regular" clip-path="url(#clip0_2981_933)">
<path id="icon" d="M20.25 6.75H2.75C2.04688 6.75 1.5 7.33594 1.5 8V15.5H21.5V8C21.5 7.33594 20.9141 6.75 20.25 6.75ZM22.75 15.5V16.75V19.25C22.75 20.6562 21.6172 21.75 20.25 21.75H14.3906L14.8203 24.25H17.125C17.4375 24.25 17.75 24.5625 17.75 24.875C17.75 25.2266 17.4375 25.5 17.125 25.5H14.3125H8.6875H5.875C5.52344 25.5 5.25 25.2266 5.25 24.875C5.25 24.5625 5.52344 24.25 5.875 24.25H8.14062L8.57031 21.75H2.75C1.34375 21.75 0.25 20.6562 0.25 19.25V16.75V15.5V8C0.25 6.63281 1.34375 5.5 2.75 5.5H20.25C21.6172 5.5 22.75 6.63281 22.75 8V15.5ZM1.5 16.75V19.25C1.5 19.9531 2.04688 20.5 2.75 20.5H9.27344H9.3125H13.6484H13.6875H20.25C20.9141 20.5 21.5 19.9531 21.5 19.25V16.75H1.5ZM9.39062 24.25H13.5703L13.1406 21.75H9.82031L9.39062 24.25Z" fill="black" fill-opacity="0.72"/>
</g>
<defs>
<clipPath id="clip0_2981_933">
<rect width="23" height="30" fill="white"/>
</clipPath>
</defs>
</svg>
