<svg width="14" height="22" viewBox="0 0 14 22" fill="none" xmlns="http://www.w3.org/2000/svg">
<g id="label-paired / sm / phone-sm / regular" clip-path="url(#clip0_2556_12818)">
<path id="icon" d="M10.2539 11.2969L13.3164 12.6094C13.8086 12.8008 14.082 13.3203 13.9727 13.8398L13.3164 16.9023C13.207 17.3945 12.7695 17.7773 12.25 17.7773C12.0586 17.7773 11.8945 17.75 11.7305 17.75C11.6211 17.75 11.4844 17.75 11.375 17.7227C5.00391 17.2852 0 11.9805 0 5.5C0 5.00781 0.355469 4.54297 0.847656 4.43359L3.91016 3.77734C4.42969 3.66797 4.94922 3.94141 5.14062 4.43359L6.45312 7.49609C6.64453 7.93359 6.53516 8.45312 6.15234 8.75391L5.03125 9.68359C5.76953 10.9414 6.80859 11.9805 8.06641 12.7188L8.99609 11.5977C9.29688 11.2148 9.81641 11.1055 10.2539 11.2969ZM12.2227 16.875C12.332 16.875 12.4141 16.8203 12.4414 16.7109L13.0977 13.6484C13.125 13.5391 13.0703 13.457 12.9883 13.4023L9.92578 12.0898C9.81641 12.0625 9.73438 12.0898 9.65234 12.1445L8.75 13.2656C8.47656 13.5938 8.01172 13.6758 7.62891 13.457C6.23438 12.6641 5.08594 11.5156 4.29297 10.1211C4.07422 9.73828 4.15625 9.27344 4.48438 9L5.60547 8.09766C5.66016 8.01562 5.6875 7.93359 5.66016 7.82422L4.34766 4.76172C4.29297 4.67969 4.21094 4.625 4.10156 4.65234L1.03906 5.30859C0.929688 5.30859 0.875 5.41797 0.875 5.5C0.875 11.7891 5.96094 16.875 12.2227 16.875Z" fill="black" fill-opacity="0.72"/>
</g>
<defs>
<clipPath id="clip0_2556_12818">
<rect width="14" height="22" fill="white"/>
</clipPath>
</defs>
</svg>
