<svg width="10" height="24" viewBox="0 0 10 24" fill="none" xmlns="http://www.w3.org/2000/svg">
<g id="label-paired / md / sort-md / fill" clip-path="url(#clip0_2556_14804)">
<path id="icon" d="M4.28125 5.3125C4.65625 4.90625 5.3125 4.90625 5.6875 5.3125L9.6875 9.3125C9.96875 9.59375 10.0625 10.0312 9.90625 10.4062C9.75 10.7812 9.40625 11.0312 9 11.0312H1C0.59375 11.0312 0.21875 10.7812 0.0625 10.4062C-0.09375 10.0312 0 9.59375 0.28125 9.3125L4.28125 5.3125ZM4.28125 18.7188L0.28125 14.7188C0 14.4375 -0.09375 14 0.0625 13.625C0.21875 13.25 0.59375 13 1 13H9C9.375 13 9.75 13.25 9.90625 13.625C10.0625 14 9.96875 14.4375 9.6875 14.7188L5.6875 18.7188C5.3125 19.125 4.65625 19.125 4.28125 18.7188Z" fill="black" fill-opacity="0.72"/>
</g>
<defs>
<clipPath id="clip0_2556_14804">
<rect width="10" height="24" fill="white"/>
</clipPath>
</defs>
</svg>
