<svg width="20" height="24" viewBox="0 0 20 24" fill="none" xmlns="http://www.w3.org/2000/svg">
<g id="label-paired / md / user-slash-md / regular" clip-path="url(#clip0_2556_15015)">
<path id="icon" d="M14 8C14 9.375 13.3125 10.5625 12.2812 11.2812L11.4688 10.625C12.375 10.125 13 9.125 13 8C13 6.34375 11.6562 5 10 5C8.625 5 7.46875 5.9375 7.09375 7.1875L6.28125 6.53125C6.84375 5.0625 8.3125 4 10 4C12.1875 4 14 5.8125 14 8ZM15.625 19L16.625 19.8125C16.4688 19.9375 16.2812 20 16.0625 20H3.90625C3.40625 20 3 19.5938 3 19.0938C3 16 5.46875 13.5 8.5625 13.5H8.65625L9.9375 14.5H8.5625C6.0625 14.5 4.03125 16.5312 4 19H15.625ZM0.78125 4.125L19.8125 19.125C20 19.2812 20.0625 19.625 19.875 19.8125C19.7188 20.0312 19.4062 20.0938 19.1875 19.9062L0.1875 4.90625C-0.03125 4.75 -0.09375 4.40625 0.09375 4.21875C0.25 4 0.59375 3.9375 0.78125 4.125Z" fill="black" fill-opacity="0.72"/>
</g>
<defs>
<clipPath id="clip0_2556_15015">
<rect width="20" height="24" fill="white"/>
</clipPath>
</defs>
</svg>
