<svg width="25" height="30" viewBox="0 0 25 30" fill="none" xmlns="http://www.w3.org/2000/svg">
<g id="label-paired / lg / language-lg / bold" clip-path="url(#clip0_2556_17134)">
<path id="icon" d="M2.5 8H10.625H11.875H12.5H22.5C23.8672 8 25 9.13281 25 10.5V20.5C25 21.9062 23.8672 23 22.5 23H12.5H11.875H10.625H2.5C1.09375 23 0 21.9062 0 20.5V10.5C0 9.13281 1.09375 8 2.5 8ZM22.5 9.875H12.5V21.125H22.5C22.8125 21.125 23.125 20.8516 23.125 20.5V10.5C23.125 10.1875 22.8125 9.875 22.5 9.875ZM6.95312 12.375C6.83594 12.1016 6.52344 11.9062 6.25 11.9062C5.9375 11.9062 5.625 12.1016 5.50781 12.375L3.00781 18C2.85156 18.3906 3.00781 18.8594 3.39844 19.0547C3.82812 19.2109 4.25781 19.0547 4.45312 18.6641L4.80469 17.8438H7.65625L8.00781 18.6641C8.20312 19.0547 8.67188 19.2109 9.0625 19.0547C9.45312 18.8594 9.60938 18.3906 9.45312 18L6.95312 12.375ZM6.99219 16.2812H5.50781L6.25 14.6406L6.99219 16.2812ZM17.8125 11.9062C18.2422 11.9062 18.5938 12.2578 18.5938 12.6875V12.8438H20.3125H20.9375C21.3672 12.8438 21.7188 13.1953 21.7188 13.625C21.7188 14.0547 21.3672 14.4062 20.9375 14.4062H20.8594L20.7812 14.6016C20.4297 15.5391 19.8828 16.4375 19.2188 17.1406C19.2578 17.1797 19.2969 17.1797 19.3359 17.2188L20.0781 17.6484C20.4297 17.8828 20.5469 18.3516 20.3516 18.7422C20.1172 19.0938 19.6484 19.2109 19.2578 19.0156L18.5156 18.5469C18.3594 18.4688 18.2031 18.3516 18.0078 18.2344C17.6172 18.5078 17.1484 18.7812 16.6797 18.9766L16.5625 19.0547C16.1719 19.2109 15.7031 19.0547 15.5078 18.6641C15.3516 18.2344 15.5078 17.8047 15.8984 17.6094L16.0547 17.5703C16.2891 17.4531 16.5625 17.2969 16.7969 17.1797L16.2891 16.7109C16.0156 16.3984 16.0156 15.8906 16.2891 15.5781C16.6016 15.3047 17.1094 15.3047 17.4219 15.5781L17.9688 16.1641H18.0078C18.4766 15.6562 18.8672 15.0703 19.1797 14.4062H17.8125H15C14.5703 14.4062 14.2188 14.0547 14.2188 13.625C14.2188 13.1953 14.5703 12.8438 15 12.8438H17.0312V12.6875C17.0312 12.2578 17.3828 11.9062 17.8125 11.9062Z" fill="black" fill-opacity="0.72"/>
</g>
<defs>
<clipPath id="clip0_2556_17134">
<rect width="25" height="30" fill="white"/>
</clipPath>
</defs>
</svg>
