<svg width="30" height="36" viewBox="0 0 30 36" fill="none" xmlns="http://www.w3.org/2000/svg">
<g id="label-paired / xl / wallet-signal-xl / bold" clip-path="url(#clip0_2362_732)">
<path id="icon" d="M0 11.625C0 9.375 1.82812 7.5 4.125 7.5H21.375C21.9844 7.5 22.5 8.01562 22.5 8.625C22.5 9.28125 21.9844 9.75 21.375 9.75H4.125C3.04688 9.75 2.25 10.5938 2.25 11.625V24.375C2.25 25.4531 3.04688 26.25 4.125 26.25H16.5V28.5H4.125C1.82812 28.5 0 26.6719 0 24.375V11.625ZM4.5 13.125C4.5 12.5156 4.96875 12 5.625 12H19.875C22.125 12 24 13.875 24 16.125V17.5312C23.25 17.2031 22.5 16.9688 21.75 16.7812V16.125C21.75 15.0938 20.9062 14.25 19.875 14.25H5.625C4.96875 14.25 4.5 13.7812 4.5 13.125ZM18 19.125C18 18.5156 18.4688 18 19.125 18C25.125 18 30 22.875 30 28.875C30 29.5312 29.4844 30 28.875 30C28.2188 30 27.75 29.5312 27.75 28.875C27.75 24.1406 23.8594 20.25 19.125 20.25C18.4688 20.25 18 19.7812 18 19.125ZM18 23.625C18 23.0156 18.4688 22.5 19.125 22.5C22.6406 22.5 25.5 25.3594 25.5 28.875C25.5 29.5312 24.9844 30 24.375 30C23.7188 30 23.25 29.5312 23.25 28.875C23.25 26.625 21.375 24.75 19.125 24.75C18.4688 24.75 18 24.2812 18 23.625ZM18 28.5C18 27.7031 18.6562 27 19.5 27C20.2969 27 21 27.7031 21 28.5C21 29.3438 20.2969 30 19.5 30C18.6562 30 18 29.3438 18 28.5Z" fill="black" fill-opacity="0.72"/>
</g>
<defs>
<clipPath id="clip0_2362_732">
<rect width="30" height="36" fill="white"/>
</clipPath>
</defs>
</svg>
