<svg width="9" height="36" viewBox="0 0 9 36" fill="none" xmlns="http://www.w3.org/2000/svg">
<g id="label-paired / xl / info-xl / bold" clip-path="url(#clip0_2556_19480)">
<path id="icon" d="M2.625 9.375C2.625 8.71875 2.95312 8.10938 3.5625 7.78125C4.125 7.45312 4.82812 7.45312 5.4375 7.78125C6 8.10938 6.375 8.71875 6.375 9.375C6.375 10.0781 6 10.6875 5.4375 11.0156C4.82812 11.3438 4.125 11.3438 3.5625 11.0156C2.95312 10.6875 2.625 10.0781 2.625 9.375ZM0.75 15.375C0.75 14.7656 1.21875 14.25 1.875 14.25H4.5C5.10938 14.25 5.625 14.7656 5.625 15.375V27.75H7.875C8.48438 27.75 9 28.2656 9 28.875C9 29.5312 8.48438 30 7.875 30H1.125C0.46875 30 0 29.5312 0 28.875C0 28.2656 0.46875 27.75 1.125 27.75H3.375V16.5H1.875C1.21875 16.5 0.75 16.0312 0.75 15.375Z" fill="black" fill-opacity="0.72"/>
</g>
<defs>
<clipPath id="clip0_2556_19480">
<rect width="9" height="36" fill="white"/>
</clipPath>
</defs>
</svg>
