<svg width="18" height="36" viewBox="0 0 18 36" fill="none" xmlns="http://www.w3.org/2000/svg">
<g id="label-paired / xl / file-excel-xl / bold" clip-path="url(#clip0_2365_902)">
<path id="icon" d="M2.25 27C2.28125 27.4688 2.53125 27.7188 3 27.75H15C15.4688 27.7188 15.7188 27.4688 15.75 27V13.5H12C11.5625 13.5 11.2031 13.3594 10.9219 13.0781C10.6406 12.7969 10.5 12.4375 10.5 12V8.25H3C2.53125 8.28125 2.28125 8.53125 2.25 9V27ZM3 6H10.7812C11.5938 6 12.2969 6.29687 12.8906 6.89062L17.1094 11.1094C17.7031 11.7031 18 12.4219 18 13.2656V27C17.9688 27.8438 17.6719 28.5469 17.1094 29.1094C16.5469 29.6719 15.8438 29.9688 15 30H3C2.15625 29.9688 1.45312 29.6719 0.890625 29.1094C0.328125 28.5469 0.03125 27.8438 0 27V9C0.03125 8.15625 0.328125 7.45312 0.890625 6.89062C1.45312 6.32812 2.15625 6.03125 3 6ZM7.26562 16.9219L9 19.1719L10.7344 16.9219C11.2031 16.4219 11.7344 16.3594 12.3281 16.7344C12.8281 17.2031 12.8906 17.7344 12.5156 18.3281L10.4062 21L12.5156 23.6719C12.8906 24.2656 12.8281 24.7969 12.3281 25.2656C11.7344 25.6406 11.2031 25.5781 10.7344 25.0781L9 22.8281L7.26562 25.0781C6.79688 25.5781 6.26562 25.6406 5.67188 25.2656C5.17188 24.7969 5.10938 24.2656 5.48438 23.6719L7.59375 21L5.48438 18.3281C5.10938 17.7344 5.17188 17.2031 5.67188 16.7344C6.26562 16.3594 6.79688 16.4219 7.26562 16.9219Z" fill="black" fill-opacity="0.72"/>
</g>
<defs>
<clipPath id="clip0_2365_902">
<rect width="18" height="36" fill="white"/>
</clipPath>
</defs>
</svg>
