<svg width="20" height="30" viewBox="0 0 20 30" fill="none" xmlns="http://www.w3.org/2000/svg">
<g id="label-paired / lg / circle-eight-lg / bold" clip-path="url(#clip0_2556_17283)">
<path id="icon" d="M18.125 15.5C18.125 12.6094 16.5625 9.95312 14.0625 8.46875C11.5234 7.02344 8.4375 7.02344 5.9375 8.46875C3.39844 9.95312 1.875 12.6094 1.875 15.5C1.875 18.4297 3.39844 21.0859 5.9375 22.5703C8.4375 24.0156 11.5234 24.0156 14.0625 22.5703C16.5625 21.0859 18.125 18.4297 18.125 15.5ZM0 15.5C0 11.9453 1.875 8.66406 5 6.86719C8.08594 5.07031 11.875 5.07031 15 6.86719C18.0859 8.66406 20 11.9453 20 15.5C20 19.0938 18.0859 22.375 15 24.1719C11.875 25.9688 8.08594 25.9688 5 24.1719C1.875 22.375 0 19.0938 0 15.5ZM10.3125 10.5C11.8359 10.5 13.125 11.7891 13.125 13.3125C13.125 13.9375 12.9297 14.5234 12.5781 14.9531C13.2812 15.5391 13.75 16.3984 13.75 17.375C13.75 19.1328 12.3438 20.5 10.625 20.5H9.375C7.61719 20.5 6.25 19.1328 6.25 17.375C6.25 16.3984 6.67969 15.5391 7.38281 14.9531C7.07031 14.5234 6.875 13.9375 6.875 13.3125C6.875 11.7891 8.125 10.5 9.6875 10.5H10.3125ZM9.6875 14.25H10.3125C10.8203 14.25 11.25 13.8594 11.25 13.3125C11.25 12.8047 10.8203 12.375 10.3125 12.375H9.6875C9.14062 12.375 8.75 12.8047 8.75 13.3125C8.75 13.8594 9.14062 14.25 9.6875 14.25ZM10.3125 16.125H9.6875H9.375C8.67188 16.125 8.125 16.7109 8.125 17.375C8.125 18.0781 8.67188 18.625 9.375 18.625H10.625C11.2891 18.625 11.875 18.0781 11.875 17.375C11.875 16.7109 11.2891 16.125 10.625 16.125H10.3125Z" fill="black" fill-opacity="0.72"/>
</g>
<defs>
<clipPath id="clip0_2556_17283">
<rect width="20" height="30" fill="white"/>
</clipPath>
</defs>
</svg>
