<svg width="15" height="30" viewBox="0 0 15 30" fill="none" xmlns="http://www.w3.org/2000/svg">
<g id="label-paired / lg / file-arrow-down-lg / fill" clip-path="url(#clip0_3431_916)">
<path id="icon" d="M2.5 5.5H8.75V10.5C8.75 11.2031 9.29688 11.75 10 11.75H15V23C15 24.4062 13.8672 25.5 12.5 25.5H2.5C1.09375 25.5 0 24.4062 0 23V8C0 6.63281 1.09375 5.5 2.5 5.5ZM10 5.5L15 10.5H10V5.5ZM8.4375 14.5625H8.39844C8.39844 14.0547 8.00781 13.625 7.46094 13.625C6.95312 13.625 6.52344 14.0547 6.52344 14.5625V18.5859L5.3125 17.375C4.96094 16.9844 4.375 16.9844 4.02344 17.375C3.63281 17.7266 3.63281 18.3125 4.02344 18.6641L6.83594 21.4766C7.1875 21.8672 7.77344 21.8672 8.125 21.4766L10.9375 18.6641C11.3281 18.3125 11.3281 17.7266 10.9375 17.375C10.5859 16.9844 10 16.9844 9.64844 17.375L8.4375 18.5859V14.5625Z" fill="black" fill-opacity="0.72"/>
</g>
<defs>
<clipPath id="clip0_3431_916">
<rect width="15" height="30" fill="white"/>
</clipPath>
</defs>
</svg>
