<svg width="18" height="30" viewBox="0 0 18 30" fill="none" xmlns="http://www.w3.org/2000/svg">
<g id="label-paired / lg / bars-lg / bold" clip-path="url(#clip0_2556_17512)">
<path id="icon" d="M0.25 8.9375C0.25 8.42969 0.640625 8 1.1875 8H16.8125C17.3203 8 17.75 8.42969 17.75 8.9375C17.75 9.48438 17.3203 9.875 16.8125 9.875H1.1875C0.640625 9.875 0.25 9.48438 0.25 8.9375ZM0.25 15.1875C0.25 14.6797 0.640625 14.25 1.1875 14.25H16.8125C17.3203 14.25 17.75 14.6797 17.75 15.1875C17.75 15.7344 17.3203 16.125 16.8125 16.125H1.1875C0.640625 16.125 0.25 15.7344 0.25 15.1875ZM17.75 21.4375C17.75 21.9844 17.3203 22.375 16.8125 22.375H1.1875C0.640625 22.375 0.25 21.9844 0.25 21.4375C0.25 20.9297 0.640625 20.5 1.1875 20.5H16.8125C17.3203 20.5 17.75 20.9297 17.75 21.4375Z" fill="black" fill-opacity="0.72"/>
</g>
<defs>
<clipPath id="clip0_2556_17512">
<rect width="18" height="30" fill="white"/>
</clipPath>
</defs>
</svg>
