<svg width="24" height="36" viewBox="0 0 24 36" fill="none" xmlns="http://www.w3.org/2000/svg">
<g id="label-paired / xl / circle-plus-xl / bold" clip-path="url(#clip0_2556_19942)">
<path id="icon" d="M12 8.25C8.48438 8.25 5.29688 10.125 3.51562 13.125C1.78125 16.1719 1.78125 19.875 3.51562 22.875C5.29688 25.9219 8.48438 27.75 12 27.75C15.4688 27.75 18.6562 25.9219 20.4375 22.875C22.1719 19.875 22.1719 16.1719 20.4375 13.125C18.6562 10.125 15.4688 8.25 12 8.25ZM12 30C7.6875 30 3.75 27.75 1.59375 24C-0.5625 20.2969 -0.5625 15.75 1.59375 12C3.75 8.29688 7.6875 6 12 6C16.2656 6 20.2031 8.29688 22.3594 12C24.5156 15.75 24.5156 20.2969 22.3594 24C20.2031 27.75 16.2656 30 12 30ZM10.875 22.125V19.125H7.875C7.21875 19.125 6.75 18.6562 6.75 18C6.75 17.3906 7.21875 16.875 7.875 16.875H10.875V13.875C10.875 13.2656 11.3438 12.75 12 12.75C12.6094 12.75 13.125 13.2656 13.125 13.875V16.875H16.125C16.7344 16.875 17.25 17.3906 17.25 18C17.25 18.6562 16.7344 19.125 16.125 19.125H13.125V22.125C13.125 22.7812 12.6094 23.25 12 23.25C11.3438 23.25 10.875 22.7812 10.875 22.125Z" fill="black" fill-opacity="0.72"/>
</g>
<defs>
<clipPath id="clip0_2556_19942">
<rect width="24" height="36" fill="white"/>
</clipPath>
</defs>
</svg>
