<svg width="23" height="30" viewBox="0 0 23 30" fill="none" xmlns="http://www.w3.org/2000/svg">
<g id="label-paired / lg / map-lg / bold" clip-path="url(#clip0_3431_977)">
<path id="icon" d="M22.3203 6.94531C22.5938 7.10156 22.75 7.41406 22.75 7.6875V20.8125C22.75 21.2031 22.4766 21.5547 22.125 21.7109L15.5625 24.2109C15.3672 24.2891 15.1328 24.2891 14.9375 24.2109L7.75 21.8281L1.5 24.2109C1.22656 24.3281 0.875 24.2891 0.640625 24.0938C0.367188 23.9375 0.25 23.625 0.25 23.3125V10.1875C0.25 9.79688 0.484375 9.48438 0.835938 9.32812L7.39844 6.82812C7.59375 6.75 7.82812 6.75 8.02344 6.82812L15.2109 9.21094L21.4609 6.82812C21.7344 6.71094 22.0859 6.75 22.3203 6.94531ZM2.125 10.8516V21.9844L6.8125 20.1875V9.05469L2.125 10.8516ZM14.3125 22.0234V10.8906L8.6875 9.01562V20.1484L14.3125 22.0234ZM16.1875 21.9844L20.875 20.1875V9.05469L16.1875 10.8516V21.9844Z" fill="black" fill-opacity="0.72"/>
</g>
<defs>
<clipPath id="clip0_3431_977">
<rect width="23" height="30" fill="white"/>
</clipPath>
</defs>
</svg>
