<svg width="9" height="18" viewBox="0 0 9 18" fill="none" xmlns="http://www.w3.org/2000/svg">
<g id="label-paired / caption / file-caption / regular" clip-path="url(#clip0_2556_10373)">
<path id="icon" d="M8.25 14V8H5.625C4.99219 8 4.5 7.50781 4.5 6.875V4.25H1.5C1.07812 4.25 0.75 4.60156 0.75 5V14C0.75 14.4219 1.07812 14.75 1.5 14.75H7.5C7.89844 14.75 8.25 14.4219 8.25 14ZM8.22656 7.25C8.20312 7.20312 8.17969 7.13281 8.13281 7.08594L5.41406 4.36719C5.36719 4.32031 5.29688 4.29688 5.25 4.27344V6.875C5.25 7.08594 5.41406 7.25 5.625 7.25H8.22656ZM0 5C0 4.17969 0.65625 3.5 1.5 3.5H5.15625C5.4375 3.5 5.74219 3.64062 5.95312 3.85156L8.64844 6.54688C8.85938 6.75781 9 7.0625 9 7.34375V14C9 14.8438 8.32031 15.5 7.5 15.5H1.5C0.65625 15.5 0 14.8438 0 14V5Z" fill="black" fill-opacity="0.72"/>
</g>
<defs>
<clipPath id="clip0_2556_10373">
<rect width="9" height="18" fill="white"/>
</clipPath>
</defs>
</svg>
