<svg width="15" height="22" viewBox="0 0 15 22" fill="none" xmlns="http://www.w3.org/2000/svg">
<g id="label-paired / sm / paper-plane-top-sm / regular" clip-path="url(#clip0_2738_4382)">
<path id="icon" d="M0.582031 5.91016C0.417969 5.58203 0.472656 5.17188 0.71875 4.89844C0.964844 4.65234 1.375 4.57031 1.70312 4.70703L13.9531 9.95703C14.2812 10.0938 14.5 10.4219 14.5 10.75C14.5 11.1055 14.2812 11.4336 13.9531 11.5703L1.70312 16.8203C1.375 16.957 0.964844 16.875 0.71875 16.6016C0.472656 16.3281 0.417969 15.9453 0.582031 15.6172L3.01562 10.75L0.582031 5.91016ZM3.78125 11.1875L1.375 16L12.5859 11.1875H3.78125ZM12.5859 10.3125L1.375 5.5L3.78125 10.3125H12.5859Z" fill="black" fill-opacity="0.72"/>
</g>
<defs>
<clipPath id="clip0_2738_4382">
<rect width="15" height="22" fill="white"/>
</clipPath>
</defs>
</svg>
