<svg width="30" height="36" viewBox="0 0 30 36" fill="none" xmlns="http://www.w3.org/2000/svg">
<g id="label-paired / xl / puzzle-piece-two-xl / regular" clip-path="url(#clip0_3546_870)">
<path id="icon" d="M7.5 14.5312C7.5 14.0156 7.64062 13.5469 7.92188 13.2188C8.15625 12.8438 8.53125 12.5625 9 12.5625C9.46875 12.5625 9.84375 12.8438 10.0781 13.2188C10.1719 13.3125 10.2656 13.3594 10.3125 13.3594C10.4062 13.3594 10.5 13.2656 10.5 13.1719V11.8125C10.5 11.1562 11.0156 10.6406 11.625 10.6406H13.6875C13.7812 10.6406 13.875 10.5469 13.875 10.4531C13.875 10.4062 13.8281 10.3125 13.7344 10.2188C13.3594 9.9375 13.125 9.5625 13.125 9.09375C13.125 8.625 13.3594 8.25 13.7344 7.96875C14.0625 7.6875 14.5312 7.54688 15 7.54688C15.4688 7.54688 15.9375 7.6875 16.2656 7.96875C16.6406 8.25 16.875 8.625 16.875 9.09375C16.875 9.5625 16.6406 9.9375 16.2656 10.2188C16.1719 10.3125 16.125 10.4062 16.125 10.4531C16.125 10.5469 16.2188 10.6406 16.3125 10.6406H18.3281C18.9844 10.6406 19.4531 11.1562 19.4531 11.8125V19.7344C19.4531 19.875 19.4531 19.7344 19.5 20.0156V21.75C19.5 21.8438 19.5469 21.8906 19.6406 21.8906C19.6875 21.8906 19.7812 21.8906 19.875 21.75C20.1562 21.4219 20.5312 21.1406 21 21.1406C21.4219 21.1406 21.7969 21.4219 22.0781 21.75C22.3125 22.125 22.5 22.5938 22.5 23.0625C22.5 23.5781 22.3125 24.0938 22.0781 24.4219C21.7969 24.7969 21.4219 25.0312 21 25.0312C20.5312 25.0312 20.1562 24.7969 19.875 24.4219C19.7812 24.2812 19.6875 24.2344 19.6406 24.2344C19.5469 24.2344 19.5 24.3281 19.5 24.4219V27.375C19.5 28.0312 18.9844 28.5 18.375 28.5H16.3125C15.7969 28.5 15.375 28.125 15.375 27.5625C15.375 27.1875 15.6094 26.9062 15.8438 26.7188C16.0312 26.5781 16.125 26.3906 16.125 26.2031C16.125 26.0156 16.0312 25.8281 15.8438 25.6875C15.6562 25.5469 15.3281 25.4062 15 25.4062C14.6719 25.4062 14.3438 25.5469 14.1562 25.6875C13.9688 25.8281 13.875 26.0156 13.875 26.2031C13.875 26.3906 13.9688 26.5781 14.1562 26.7188C14.3906 26.9062 14.625 27.1875 14.625 27.5625C14.625 28.125 14.2031 28.5 13.6875 28.5H11.625C10.9688 28.5 10.5 28.0312 10.5 27.375V20.3438C10.5 20.1562 10.5 19.9688 10.5 19.7344V15.8906C10.5 15.7969 10.4062 15.7031 10.3125 15.7031C10.2656 15.7031 10.1719 15.75 10.0781 15.8438C9.84375 16.2188 9.46875 16.4531 9 16.4531C8.53125 16.4531 8.15625 16.2188 7.92188 15.8438C7.64062 15.5156 7.5 15.0469 7.5 14.5312ZM13.3125 18.3281V18.375C13.1719 18.1406 13.125 17.9062 13.125 17.625C13.125 17.1562 13.3594 16.7812 13.7344 16.5C14.0625 16.2656 14.5312 16.0781 15 16.0781C15.4688 16.0781 15.9375 16.2656 16.2656 16.5C16.4062 16.6406 16.5469 16.7812 16.6406 16.9219C16.7812 17.1562 16.875 17.3906 16.875 17.625C16.875 18.1406 16.6406 18.5156 16.2656 18.7969C16.1719 18.8906 16.125 18.9844 16.125 19.0312C16.125 19.0781 16.125 19.125 16.1719 19.125C16.2188 19.1719 16.2656 19.1719 16.3125 19.1719H18.3281C18.5625 19.1719 18.7031 19.0312 18.7031 18.7969V11.8125C18.7031 11.625 18.5625 11.3906 18.3281 11.3906H16.3125C15.7969 11.3906 15.375 11.0156 15.375 10.4531C15.375 10.0781 15.6094 9.79688 15.8438 9.60938C16.0312 9.46875 16.125 9.28125 16.125 9.09375C16.125 8.90625 16.0312 8.71875 15.8438 8.57812C15.6562 8.4375 15.3281 8.29688 15 8.29688C14.6719 8.29688 14.3438 8.4375 14.1562 8.57812C13.9688 8.71875 13.875 8.90625 13.875 9.09375C13.875 9.28125 13.9688 9.46875 14.1562 9.60938C14.3906 9.79688 14.625 10.0781 14.625 10.4531C14.625 11.0156 14.2031 11.3906 13.6875 11.3906H11.625C11.4375 11.3906 11.25 11.625 11.25 11.8125V13.1719C11.25 13.7344 10.8281 14.1094 10.3125 14.1094C9.9375 14.1094 9.65625 13.9219 9.51562 13.6875C9.32812 13.4531 9.1875 13.3594 9 13.3594C8.8125 13.3594 8.67188 13.4531 8.48438 13.6875C8.34375 13.875 8.25 14.1562 8.25 14.5312C8.25 14.9062 8.34375 15.1875 8.48438 15.375C8.67188 15.6094 8.8125 15.7031 9 15.7031C9.1875 15.7031 9.32812 15.6094 9.51562 15.375C9.65625 15.1406 9.9375 14.9062 10.3125 14.9062C10.8281 14.9062 11.25 15.3281 11.25 15.8906V18.7969C11.25 19.0312 11.4375 19.1719 11.625 19.1719H13.6875C13.7812 19.1719 13.875 19.125 13.875 19.0312C13.875 18.9844 13.8281 18.9375 13.8281 18.8906C13.7812 18.8438 13.7812 18.7969 13.7344 18.7969C13.5469 18.6562 13.4062 18.5156 13.3125 18.3281ZM14.625 19.0312C14.625 19.5469 14.2031 19.9688 13.6875 19.9688H11.5781C11.3906 19.9688 11.2031 20.1562 11.2031 20.3438V27.3281C11.2031 27.5625 11.3906 27.75 11.5781 27.75H13.6875C13.7812 27.75 13.875 27.6562 13.875 27.5625C13.875 27.5156 13.8281 27.4219 13.7344 27.3281C13.3594 27.0469 13.125 26.6719 13.125 26.2031C13.125 25.7344 13.3594 25.3125 13.7344 25.0781C14.0625 24.7969 14.5312 24.6094 15 24.6094C15.4688 24.6094 15.9375 24.7969 16.2656 25.0781C16.6406 25.3125 16.875 25.7344 16.875 26.2031C16.875 26.6719 16.6406 27.0469 16.2656 27.3281C16.1719 27.4219 16.125 27.5156 16.125 27.5625C16.125 27.6562 16.2188 27.75 16.3125 27.75H18.3281C18.5156 27.75 18.7031 27.5625 18.7031 27.3281V24.4219C18.7031 23.9062 19.125 23.4844 19.6406 23.4844C20.0156 23.4844 20.2969 23.7188 20.4375 23.9531C20.625 24.1875 20.7656 24.2344 20.9531 24.2344C21.1406 24.2344 21.2812 24.1875 21.4688 23.9531C21.6094 23.7656 21.7031 23.4375 21.7031 23.0625C21.7031 22.7344 21.6094 22.4062 21.4688 22.2188C21.2812 22.0312 21.1406 21.8906 20.9531 21.8906C20.7656 21.8906 20.625 21.9844 20.4375 22.2188C20.2969 22.4531 20.0156 22.6875 19.6406 22.6875C19.125 22.6875 18.7031 22.2656 18.7031 21.75V20.3438C18.7031 20.1562 18.5156 19.9688 18.3281 19.9688H16.3125C16.0312 19.9688 15.7969 19.875 15.6094 19.6875C15.4688 19.5 15.375 19.2656 15.375 19.0312C15.375 18.6094 15.6094 18.3281 15.8438 18.1406C16.0312 18 16.125 17.8125 16.125 17.625C16.125 17.5312 16.0781 17.4375 16.0312 17.3438C15.9844 17.2969 15.9375 17.2031 15.8438 17.1094C15.6562 16.9688 15.3281 16.875 15 16.875C14.6719 16.875 14.3438 16.9688 14.1562 17.1094C13.9688 17.2969 13.875 17.4844 13.875 17.625C13.875 17.7656 13.875 17.8594 13.9688 17.9531C14.0156 18 14.0625 18.0938 14.1562 18.1406C14.25 18.2344 14.3906 18.3281 14.4375 18.4688C14.5781 18.6094 14.625 18.7969 14.625 19.0312Z" fill="black" fill-opacity="0.72"/>
</g>
<defs>
<clipPath id="clip0_3546_870">
<rect width="30" height="36" fill="white"/>
</clipPath>
</defs>
</svg>
