<svg width="15" height="30" viewBox="0 0 15 30" fill="none" xmlns="http://www.w3.org/2000/svg">
<g id="label-paired / lg / file-lines-lg / fill" clip-path="url(#clip0_3431_923)">
<path id="icon" d="M2.5 5.5H8.75V10.5C8.75 11.2031 9.29688 11.75 10 11.75H15V23C15 24.4062 13.8672 25.5 12.5 25.5H2.5C1.09375 25.5 0 24.4062 0 23V8C0 6.63281 1.09375 5.5 2.5 5.5ZM10 5.5L15 10.5H10V5.5ZM4.375 15.5C4.02344 15.5 3.75 15.8125 3.75 16.125C3.75 16.4766 4.02344 16.75 4.375 16.75H10.625C10.9375 16.75 11.25 16.4766 11.25 16.125C11.25 15.8125 10.9375 15.5 10.625 15.5H4.375ZM4.375 18C4.02344 18 3.75 18.3125 3.75 18.625C3.75 18.9766 4.02344 19.25 4.375 19.25H10.625C10.9375 19.25 11.25 18.9766 11.25 18.625C11.25 18.3125 10.9375 18 10.625 18H4.375ZM4.375 20.5C4.02344 20.5 3.75 20.8125 3.75 21.125C3.75 21.4766 4.02344 21.75 4.375 21.75H10.625C10.9375 21.75 11.25 21.4766 11.25 21.125C11.25 20.8125 10.9375 20.5 10.625 20.5H4.375Z" fill="black" fill-opacity="0.72"/>
</g>
<defs>
<clipPath id="clip0_3431_923">
<rect width="15" height="30" fill="white"/>
</clipPath>
</defs>
</svg>
