<svg width="25" height="30" viewBox="0 0 25 30" fill="none" xmlns="http://www.w3.org/2000/svg">
<g id="label-paired / lg / user-minus-lg / fill" clip-path="url(#clip0_3327_867)">
<path id="icon" d="M3.75 10.5C3.75 8.74219 4.6875 7.10156 6.25 6.20312C7.77344 5.30469 9.6875 5.30469 11.25 6.20312C12.7734 7.10156 13.75 8.74219 13.75 10.5C13.75 12.2969 12.7734 13.9375 11.25 14.8359C9.6875 15.7344 7.77344 15.7344 6.25 14.8359C4.6875 13.9375 3.75 12.2969 3.75 10.5ZM0 24.3672C0 20.5 3.08594 17.375 6.95312 17.375H10.5078C14.375 17.375 17.5 20.5 17.5 24.3672C17.5 24.9922 16.9531 25.5 16.3281 25.5H1.13281C0.507812 25.5 0 24.9922 0 24.3672ZM18.4375 13.3125H24.0625C24.5703 13.3125 25 13.7422 25 14.25C25 14.7969 24.5703 15.1875 24.0625 15.1875H18.4375C17.8906 15.1875 17.5 14.7969 17.5 14.25C17.5 13.7422 17.8906 13.3125 18.4375 13.3125Z" fill="black" fill-opacity="0.72"/>
</g>
<defs>
<clipPath id="clip0_3327_867">
<rect width="25" height="30" fill="white"/>
</clipPath>
</defs>
</svg>
