<svg width="13" height="30" viewBox="0 0 13 30" fill="none" xmlns="http://www.w3.org/2000/svg">
<g id="label-paired / lg / backward-step-lg / bold" clip-path="url(#clip0_2556_16974)">
<path id="icon" d="M3.375 8.9375V13.0781L10.25 8.23438C10.4453 8.07812 10.6797 8 10.9141 8C11.5781 8 12.125 8.54688 12.125 9.21094V21.8281C12.125 22.4922 11.5781 23 10.9531 23C10.6797 23 10.4453 22.9609 10.25 22.8047L3.375 17.9609V22.0625C3.375 22.6094 2.94531 23 2.4375 23C1.89062 23 1.5 22.6094 1.5 22.0625V16.6719V14.3672V8.9375C1.5 8.42969 1.89062 8 2.4375 8C2.94531 8 3.375 8.42969 3.375 8.9375ZM3.375 15.6953L10.25 20.5V10.5391L3.375 15.3438V15.6953Z" fill="black" fill-opacity="0.72"/>
</g>
<defs>
<clipPath id="clip0_2556_16974">
<rect width="13" height="30" fill="white"/>
</clipPath>
</defs>
</svg>
