<svg width="18" height="24" viewBox="0 0 18 24" fill="none" xmlns="http://www.w3.org/2000/svg">
<g id="label-paired / md / mobile-notch-rotate-md / fill" clip-path="url(#clip0_2556_15213)">
<path id="icon" d="M0.5 6.5C0.5 5.125 1.59375 4 3 4H9C10.375 4 11.5 5.125 11.5 6.5V10.375C11.3438 10.4375 11.1875 10.5312 11.0312 10.5938C10.7188 10.25 10.25 10 9.75 10C9.65625 10 9.5625 10.0312 9.5 10.0312V6.5C9.5 6.25 9.25 6 9 6H8V6.5C8 6.78125 7.75 7 7.5 7H4.5C4.21875 7 4 6.78125 4 6.5V6H3C2.71875 6 2.5 6.25 2.5 6.5V17.5C2.5 17.7812 2.71875 18 3 18H8.59375C8.9375 18.6875 9.4375 19.3125 10.0312 19.7812C9.71875 19.9375 9.34375 20 8.96875 20H3C1.59375 20 0.5 18.9062 0.5 17.5V6.5ZM4 16.5C4 16.25 4.21875 16 4.5 16H7.5C7.75 16 8 16.25 8 16.5C8 16.7812 7.75 17 7.5 17H4.5C4.21875 17 4 16.7812 4 16.5ZM9 11.75C9 11.3438 9.3125 11 9.75 11C10.1562 11 10.5 11.3438 10.5 11.75V12.1562C11.2812 11.4375 12.3438 11 13.5 11C15.3438 11 16.9062 12.125 17.625 13.7188C17.7812 14.0938 17.5938 14.5312 17.2188 14.6875C16.8438 14.875 16.4062 14.6875 16.25 14.3125C15.7812 13.25 14.7188 12.5 13.5 12.5C12.5938 12.5 11.8125 12.9062 11.25 13.5H12.25C12.6562 13.5 13 13.8438 13 14.25C13 14.6875 12.6562 15 12.25 15H9.75C9.3125 15 9 14.6875 9 14.25V11.75ZM9.375 17.3125C9.1875 16.9375 9.375 16.5 9.75 16.3125C10.125 16.1562 10.5625 16.3438 10.75 16.7188C11.1875 17.7812 12.25 18.5 13.5 18.5C14.375 18.5 15.1875 18.125 15.7188 17.5H14.75C14.3125 17.5 14 17.1875 14 16.75C14 16.3438 14.3125 16 14.75 16H17.25C17.6562 16 18 16.3438 18 16.75V19.25C18 19.6875 17.6562 20 17.25 20C16.8125 20 16.5 19.6875 16.5 19.25V18.875C15.6875 19.5938 14.625 20 13.5 20C11.625 20 10.0625 18.9062 9.375 17.3125Z" fill="black" fill-opacity="0.72"/>
</g>
<defs>
<clipPath id="clip0_2556_15213">
<rect width="18" height="24" fill="white"/>
</clipPath>
</defs>
</svg>
