<svg width="24" height="36" viewBox="0 0 24 36" fill="none" xmlns="http://www.w3.org/2000/svg">
<g id="label-paired / xl / camera-xl / fill" clip-path="url(#clip0_2556_19809)">
<path id="icon" d="M6.98438 9.04688C7.26562 8.15625 8.10938 7.5 9.09375 7.5H14.8594C15.8438 7.5 16.6875 8.15625 16.9688 9.04688L17.4844 10.5H21C22.6406 10.5 24 11.8594 24 13.5V25.5C24 27.1875 22.6406 28.5 21 28.5H3C1.3125 28.5 0 27.1875 0 25.5V13.5C0 11.8594 1.3125 10.5 3 10.5H6.46875L6.98438 9.04688ZM12 15C10.3594 15 8.90625 15.8906 8.0625 17.25C7.26562 18.6562 7.26562 20.3906 8.0625 21.75C8.90625 23.1562 10.3594 24 12 24C13.5938 24 15.0469 23.1562 15.8906 21.75C16.6875 20.3906 16.6875 18.6562 15.8906 17.25C15.0469 15.8906 13.5938 15 12 15Z" fill="black" fill-opacity="0.72"/>
</g>
<defs>
<clipPath id="clip0_2556_19809">
<rect width="24" height="36" fill="white"/>
</clipPath>
</defs>
</svg>
