<svg width="16" height="24" viewBox="0 0 16 24" fill="none" xmlns="http://www.w3.org/2000/svg">
<g id="label-paired / md / circle-sterling-md / fill" clip-path="url(#clip0_2556_14611)">
<path id="icon" d="M8 20C5.125 20 2.5 18.5 1.0625 16C-0.375 13.5312 -0.375 10.5 1.0625 8C2.5 5.53125 5.125 4 8 4C10.8438 4 13.4688 5.53125 14.9062 8C16.3438 10.5 16.3438 13.5312 14.9062 16C13.4688 18.5 10.8438 20 8 20ZM8.15625 9C8.28125 9 8.40625 9.03125 8.5 9.09375L9.46875 9.46875C9.84375 9.625 10.2812 9.4375 10.4375 9.03125C10.5938 8.65625 10.4062 8.21875 10.0312 8.0625L9.0625 7.6875C8.78125 7.5625 8.46875 7.5 8.15625 7.5C6.8125 7.5 5.71875 8.625 5.71875 9.96875V11H5.5C5.21875 11 5 11.25 5 11.5C5 11.7812 5.21875 12 5.5 12H5.71875V12.3438C5.71875 12.8438 5.625 13.375 5.375 13.8438L5.0625 14.4062C4.9375 14.6562 4.96875 14.9375 5.09375 15.1562C5.21875 15.375 5.46875 15.5 5.75 15.5H10.25C10.6562 15.5 11 15.1875 11 14.75C11 14.3438 10.6562 14 10.25 14H6.9375C7.125 13.4688 7.21875 12.9062 7.21875 12.3125V12H8.5C8.75 12 9 11.7812 9 11.5C9 11.25 8.75 11 8.5 11H7.21875V9.96875C7.21875 9.4375 7.625 9 8.15625 9Z" fill="black" fill-opacity="0.72"/>
</g>
<defs>
<clipPath id="clip0_2556_14611">
<rect width="16" height="24" fill="white"/>
</clipPath>
</defs>
</svg>
