<svg width="20" height="24" viewBox="0 0 20 24" fill="none" xmlns="http://www.w3.org/2000/svg">
<g id="label-paired / md / take-profit-md / fill" clip-path="url(#clip0_2556_15072)">
<path id="icon" d="M7.46875 16.7188V9.96875H9.71875V7.34375H2.375V9.96875H4.625V16.7188H7.46875ZM9.96875 7.34375H14.4375C14.875 7.34375 15.3125 7.4375 15.6875 7.59375C16.0625 7.75 16.375 7.96875 16.6562 8.25C16.9375 8.53125 17.125 8.875 17.2812 9.28125C17.4062 9.65625 17.4688 10.0938 17.4688 10.5312C17.4688 10.9688 17.4062 11.4062 17.2812 11.7812C17.125 12.1875 16.9375 12.5 16.6562 12.8125C16.375 13.0938 16.0625 13.3125 15.6875 13.4688C15.3125 13.625 14.875 13.6875 14.4375 13.6875H12.8125V16.7188H9.96875V7.34375ZM14.5 10C14.4688 9.96875 14.4062 9.9375 14.2188 9.9375H12.8125V11.125H14.2188C14.4062 11.125 14.5 11.0625 14.5312 11.0312C14.5625 11 14.5938 10.9688 14.5938 10.7812V10.25C14.5938 10.0938 14.5625 10.0312 14.5312 10.0312L14.5 10Z" fill="black" fill-opacity="0.72"/>
</g>
<defs>
<clipPath id="clip0_2556_15072">
<rect width="20" height="24" fill="white"/>
</clipPath>
</defs>
</svg>
