<svg width="14" height="22" viewBox="0 0 14 22" fill="none" xmlns="http://www.w3.org/2000/svg">
<g id="label-paired / sm / thumbs-down-sm / fill" clip-path="url(#clip0_2556_12731)">
<path id="icon" d="M8.55859 16.875C7.84766 17.0117 7.16406 16.5469 7 15.8359L6.94531 15.5078C6.78125 14.6055 6.26172 13.7852 5.55078 13.2109L5.35938 13.0469C4.73047 12.5547 4.375 11.8164 4.375 10.9961V10.3125V9V7.96094C4.375 7.08594 4.8125 6.26562 5.52344 5.77344L6.58984 5.08984C7.02734 4.78906 7.51953 4.625 8.03906 4.625H10.7188C11.4297 4.625 12.0312 5.22656 12.0312 5.9375C12.0312 6.04688 12.0039 6.15625 11.9766 6.23828C12.5234 6.40234 12.9062 6.89453 12.9062 7.46875C12.9062 7.74219 12.8242 7.96094 12.7148 8.15234C13.3164 8.28906 13.7812 8.80859 13.7812 9.4375C13.7812 9.875 13.5898 10.2305 13.2891 10.4766C13.6992 10.6953 14 11.1328 14 11.625C14 12.3633 13.3984 12.9375 12.6875 12.9375H8.75C9.10547 13.5938 9.37891 14.2773 9.51562 15.0156L9.59766 15.3164C9.73438 16.0273 9.26953 16.7109 8.55859 16.875ZM0.875 14.25C0.382812 14.25 0 13.8672 0 13.375V7.25C0 6.78516 0.382812 6.375 0.875 6.375H2.625C3.08984 6.375 3.5 6.78516 3.5 7.25V13.375C3.5 13.8672 3.08984 14.25 2.625 14.25H0.875Z" fill="black" fill-opacity="0.72"/>
</g>
<defs>
<clipPath id="clip0_2556_12731">
<rect width="14" height="22" fill="white"/>
</clipPath>
</defs>
</svg>
