<svg width="14" height="22" viewBox="0 0 14 22" fill="none" xmlns="http://www.w3.org/2000/svg">
<g id="label-paired / sm / circle-question-sm / regular" clip-path="url(#clip0_3578_717)">
<path id="icon" d="M13.125 10.75C13.125 8.5625 11.9492 6.56641 10.0625 5.47266C8.14844 4.35156 5.82422 4.35156 3.9375 5.47266C2.02344 6.56641 0.875 8.5625 0.875 10.75C0.875 12.9648 2.02344 14.9609 3.9375 16.0547C5.82422 17.1758 8.14844 17.1758 10.0625 16.0547C11.9492 14.9609 13.125 12.9648 13.125 10.75ZM0 10.75C0 8.26172 1.3125 5.96484 3.5 4.70703C5.66016 3.44922 8.3125 3.44922 10.5 4.70703C12.6602 5.96484 14 8.26172 14 10.75C14 13.2656 12.6602 15.5625 10.5 16.8203C8.3125 18.0781 5.66016 18.0781 3.5 16.8203C1.3125 15.5625 0 13.2656 0 10.75ZM4.59375 8.39844C4.78516 7.74219 5.38672 7.25 6.07031 7.25H7.65625C8.61328 7.25 9.40625 8.04297 9.40625 9.02734C9.40625 9.68359 9.02344 10.2852 8.44922 10.5859L7.4375 11.1055V11.625C7.4375 11.8711 7.21875 12.0625 7 12.0625C6.75391 12.0625 6.5625 11.8711 6.5625 11.625V10.832C6.5625 10.668 6.64453 10.5039 6.78125 10.4492L8.03906 9.79297C8.33984 9.65625 8.53125 9.35547 8.53125 9.02734C8.53125 8.53516 8.12109 8.125 7.65625 8.125H6.07031C5.79688 8.125 5.52344 8.34375 5.44141 8.61719V8.64453C5.38672 8.86328 5.14062 9.02734 4.92188 8.94531C4.67578 8.89062 4.53906 8.64453 4.59375 8.42578V8.39844ZM6.34375 13.375C6.34375 13.0195 6.61719 12.7188 7 12.7188C7.35547 12.7188 7.65625 13.0195 7.65625 13.375C7.65625 13.7578 7.35547 14.0312 7 14.0312C6.61719 14.0312 6.34375 13.7578 6.34375 13.375Z" fill="black" fill-opacity="0.72"/>
</g>
<defs>
<clipPath id="clip0_3578_717">
<rect width="14" height="22" fill="white"/>
</clipPath>
</defs>
</svg>
