<svg width="16" height="24" viewBox="0 0 16 24" fill="none" xmlns="http://www.w3.org/2000/svg">
<g id="label-paired / md / circle-trash-md / bold" clip-path="url(#clip0_2556_15267)">
<path id="icon" d="M14.5 12C14.5 9.6875 13.25 7.5625 11.25 6.375C9.21875 5.21875 6.75 5.21875 4.75 6.375C2.71875 7.5625 1.5 9.6875 1.5 12C1.5 14.3438 2.71875 16.4688 4.75 17.6562C6.75 18.8125 9.21875 18.8125 11.25 17.6562C13.25 16.4688 14.5 14.3438 14.5 12ZM0 12C0 9.15625 1.5 6.53125 4 5.09375C6.46875 3.65625 9.5 3.65625 12 5.09375C14.4688 6.53125 16 9.15625 16 12C16 14.875 14.4688 17.5 12 18.9375C9.5 20.375 6.46875 20.375 4 18.9375C1.5 17.5 0 14.875 0 12ZM5 8H6.28125L6.625 7.65625C6.71875 7.5625 6.84375 7.5 7 7.5H9C9.125 7.5 9.25 7.5625 9.34375 7.65625L9.6875 8H11C11.25 8 11.5 8.25 11.5 8.5C11.5 8.78125 11.25 9 11 9H5C4.71875 9 4.5 8.78125 4.5 8.5C4.5 8.25 4.71875 8 5 8ZM5 10H11L10.5625 15.0938C10.5312 15.625 10.0938 16 9.5625 16H6.40625C5.875 16 5.4375 15.625 5.40625 15.0938L5 10Z" fill="black" fill-opacity="0.72"/>
</g>
<defs>
<clipPath id="clip0_2556_15267">
<rect width="16" height="24" fill="white"/>
</clipPath>
</defs>
</svg>
