<svg width="25" height="30" viewBox="0 0 25 30" fill="none" xmlns="http://www.w3.org/2000/svg">
<g id="label-paired / lg / volume-high-lg / bold" clip-path="url(#clip0_3758_675)">
<path id="icon" d="M20.8203 6.78906C23.3594 8.85938 25 11.9844 25 15.5C25 19.0547 23.3594 22.1797 20.8203 24.25C20.4297 24.5625 19.8438 24.5234 19.4922 24.1328C19.1797 23.7031 19.2578 23.1172 19.6484 22.8047C21.7578 21.0859 23.125 18.4688 23.125 15.5C23.125 12.5703 21.7578 9.95312 19.6484 8.23438C19.2578 7.92188 19.1797 7.33594 19.4922 6.90625C19.8438 6.51562 20.4297 6.47656 20.8203 6.78906ZM18.4766 9.67969V9.71875C20.1562 11.0859 21.25 13.1562 21.25 15.5391C21.25 17.8828 20.1562 19.9531 18.4766 21.3594C18.0469 21.6719 17.4609 21.5938 17.1484 21.2031C16.8359 20.8125 16.875 20.2266 17.2656 19.875C18.5547 18.8594 19.375 17.2969 19.375 15.5C19.375 13.7422 18.5547 12.1797 17.2656 11.1641C16.875 10.8125 16.7969 10.2266 17.1484 9.83594C17.4609 9.44531 18.0469 9.36719 18.4766 9.67969ZM16.0938 12.6094C16.9531 13.3125 17.5 14.3281 17.5 15.5C17.5 16.7109 16.9531 17.7266 16.0938 18.4297C15.7031 18.7422 15.1172 18.7031 14.7656 18.3125C14.4531 17.8828 14.5312 17.2969 14.9219 16.9844C15.3516 16.6328 15.625 16.0859 15.625 15.5C15.625 14.9141 15.3516 14.4062 14.9219 14.0547C14.5312 13.7422 14.4531 13.1562 14.7656 12.7266C15.1172 12.3359 15.7031 12.2969 16.0938 12.6094ZM6.21094 13.3906C6.05469 13.5469 5.82031 13.625 5.625 13.625H2.1875C1.99219 13.625 1.875 13.7812 1.875 13.9375V17.0625C1.875 17.2578 1.99219 17.375 2.1875 17.375H5.625C5.82031 17.375 6.05469 17.4922 6.21094 17.6484L10.625 21.5156V9.52344L6.21094 13.3906ZM11.3281 6.75C11.9531 6.75 12.5 7.29688 12.5 7.92188V23.1172C12.5 23.7422 11.9531 24.25 11.3281 24.25C11.0156 24.25 10.7422 24.1719 10.5469 23.9766L5.23438 19.25H2.1875C0.976562 19.25 0 18.2734 0 17.0625V13.9375C0 12.7656 0.976562 11.75 2.1875 11.75H5.23438L10.5469 7.0625C10.7422 6.86719 11.0156 6.75 11.3281 6.75Z" fill="black" fill-opacity="0.72"/>
</g>
<defs>
<clipPath id="clip0_3758_675">
<rect width="25" height="30" fill="white"/>
</clipPath>
</defs>
</svg>
