<svg width="8" height="18" viewBox="0 0 8 18" fill="none" xmlns="http://www.w3.org/2000/svg">
<g id="label-paired / caption / dollar-sign-caption / bold" clip-path="url(#clip0_2556_9998)">
<path id="icon" d="M4.5625 4.0625V5.23438C5.19531 5.30469 5.78125 5.42188 6.22656 5.51562C6.53125 5.58594 6.71875 5.89062 6.64844 6.19531C6.57812 6.5 6.27344 6.6875 5.96875 6.61719C5.24219 6.45312 4.1875 6.24219 3.29688 6.33594C2.85156 6.35938 2.5 6.45312 2.24219 6.61719C2.00781 6.78125 1.84375 6.99219 1.77344 7.34375C1.70312 7.60156 1.75 7.78906 1.82031 7.90625C1.86719 8.04688 2.00781 8.16406 2.21875 8.30469C2.66406 8.58594 3.34375 8.75 4.11719 8.96094L4.1875 8.98438C4.91406 9.17188 5.73438 9.38281 6.36719 9.75781C6.69531 9.94531 6.97656 10.2266 7.16406 10.6016C7.375 10.9766 7.39844 11.4219 7.32812 11.8906C7.16406 12.7344 6.55469 13.2734 5.80469 13.5547C5.42969 13.6953 5.00781 13.7891 4.5625 13.8125V14.9375C4.5625 15.2656 4.30469 15.5 4 15.5C3.67188 15.5 3.4375 15.2656 3.4375 14.9375V13.7891C3.34375 13.7656 3.27344 13.7656 3.20312 13.7422C2.61719 13.6719 1.58594 13.4375 0.953125 13.1562C0.671875 13.0156 0.53125 12.6875 0.671875 12.4062C0.789062 12.125 1.11719 12.0078 1.39844 12.125C1.91406 12.3359 2.82812 12.5703 3.34375 12.6406C4.1875 12.7578 4.89062 12.6875 5.40625 12.5C5.89844 12.3125 6.15625 12.0312 6.20312 11.6797C6.27344 11.4219 6.22656 11.2344 6.15625 11.1172C6.10938 10.9766 5.96875 10.8359 5.75781 10.7188C5.3125 10.4375 4.65625 10.25 3.85938 10.0625L3.78906 10.0391C3.0625 9.85156 2.24219 9.64062 1.60938 9.26562C1.30469 9.05469 1 8.79688 0.8125 8.42188C0.625 8.02344 0.578125 7.60156 0.671875 7.13281C0.789062 6.45312 1.14062 5.98438 1.63281 5.67969C2.10156 5.375 2.66406 5.25781 3.20312 5.21094C3.27344 5.1875 3.34375 5.1875 3.4375 5.1875V4.0625C3.4375 3.75781 3.67188 3.5 4 3.5C4.30469 3.5 4.5625 3.75781 4.5625 4.0625Z" fill="black" fill-opacity="0.72"/>
</g>
<defs>
<clipPath id="clip0_2556_9998">
<rect width="8" height="18" fill="white"/>
</clipPath>
</defs>
</svg>
