<svg width="18" height="30" viewBox="0 0 18 30" fill="none" xmlns="http://www.w3.org/2000/svg">
<g id="label-paired / lg / arrow-right-to-line-lg / fill" clip-path="url(#clip0_2556_17384)">
<path id="icon" d="M17.75 9.25V21.75C17.75 22.4531 17.1641 23 16.5 23C15.7969 23 15.25 22.4531 15.25 21.75V9.25C15.25 8.58594 15.7969 8 16.5 8C17.1641 8 17.75 8.58594 17.75 9.25ZM12.3594 16.3984L7.35938 21.3984C6.89062 21.9062 6.07031 21.9062 5.60156 21.3984C5.09375 20.9297 5.09375 20.1094 5.60156 19.6406L8.45312 16.75H1.5C0.796875 16.75 0.25 16.2031 0.25 15.5C0.25 14.8359 0.796875 14.25 1.5 14.25H8.45312L5.60156 11.3984C5.09375 10.9297 5.09375 10.1094 5.60156 9.64062C6.07031 9.13281 6.89062 9.13281 7.35938 9.64062L12.3594 14.6406C12.8672 15.1094 12.8672 15.9297 12.3594 16.3984Z" fill="black" fill-opacity="0.72"/>
</g>
<defs>
<clipPath id="clip0_2556_17384">
<rect width="18" height="30" fill="white"/>
</clipPath>
</defs>
</svg>
