<svg width="11" height="18" viewBox="0 0 11 18" fill="none" xmlns="http://www.w3.org/2000/svg">
<g id="label-paired / caption / arrow-right-to-line-caption / bold" clip-path="url(#clip0_2556_10304)">
<path id="icon" d="M10.75 5.5625V13.4375C10.75 13.7656 10.4922 14 10.1875 14C9.85938 14 9.625 13.7656 9.625 13.4375V5.5625C9.625 5.25781 9.85938 5 10.1875 5C10.4922 5 10.75 5.25781 10.75 5.5625ZM7.5625 9.92188L4.375 12.9219C4.14062 13.1328 3.78906 13.1094 3.57812 12.8984C3.36719 12.6641 3.36719 12.3125 3.60156 12.1016L5.75781 10.0625H3.8125H0.8125C0.484375 10.0625 0.25 9.82812 0.25 9.5C0.25 9.19531 0.484375 8.9375 0.8125 8.9375H3.8125H5.75781L3.60156 6.92188C3.36719 6.71094 3.36719 6.35938 3.57812 6.125C3.78906 5.89062 4.14062 5.89062 4.375 6.10156L7.5625 9.10156C7.67969 9.21875 7.75 9.35938 7.75 9.5C7.75 9.66406 7.67969 9.80469 7.5625 9.92188Z" fill="black" fill-opacity="0.72"/>
</g>
<defs>
<clipPath id="clip0_2556_10304">
<rect width="11" height="18" fill="white"/>
</clipPath>
</defs>
</svg>
