<svg width="8" height="18" viewBox="0 0 8 18" fill="none" xmlns="http://www.w3.org/2000/svg">
<g id="label-paired / caption / euro-sign-caption / regular" clip-path="url(#clip0_2556_10067)">
<path id="icon" d="M1.04688 8.75H0.625C0.414062 8.75 0.25 8.58594 0.25 8.375C0.25 8.1875 0.414062 8 0.625 8H1.21094C1.84375 5.84375 3.85938 4.25 6.25 4.25H7.39844C7.58594 4.25 7.77344 4.4375 7.77344 4.625C7.77344 4.83594 7.58594 5 7.39844 5H6.25C4.28125 5 2.61719 6.26562 1.98438 8H6.625C6.8125 8 7 8.1875 7 8.375C7 8.58594 6.8125 8.75 6.625 8.75H1.79688C1.75 9.00781 1.75 9.26562 1.75 9.5C1.75 9.75781 1.77344 10.0156 1.79688 10.25H6.625C6.8125 10.25 7 10.4375 7 10.625C7 10.8359 6.8125 11 6.625 11H1.98438C2.61719 12.7578 4.28125 14 6.25 14H7.39844C7.58594 14 7.77344 14.1875 7.77344 14.375C7.77344 14.5859 7.58594 14.75 7.39844 14.75H6.25C3.85938 14.75 1.84375 13.1797 1.21094 11H0.625C0.414062 11 0.25 10.8359 0.25 10.625C0.25 10.4375 0.414062 10.25 0.625 10.25H1.04688C1 10.0156 1 9.75781 1 9.5C1 9.26562 1 9.00781 1.04688 8.75Z" fill="black" fill-opacity="0.72"/>
</g>
<defs>
<clipPath id="clip0_2556_10067">
<rect width="8" height="18" fill="white"/>
</clipPath>
</defs>
</svg>
