<svg width="6" height="18" viewBox="0 0 6 18" fill="none" xmlns="http://www.w3.org/2000/svg">
<g id="label-paired / caption / one-caption / fill" clip-path="url(#clip0_2556_10531)">
<path id="icon" d="M3.75 5V13.25H5.25C5.64844 13.25 6 13.6016 6 14C6 14.4219 5.64844 14.75 5.25 14.75H3H0.75C0.328125 14.75 0 14.4219 0 14C0 13.6016 0.328125 13.25 0.75 13.25H2.25V6.40625L1.14844 7.13281C0.820312 7.36719 0.351562 7.27344 0.117188 6.92188C-0.117188 6.57031 -0.0234375 6.125 0.328125 5.89062L2.57812 4.39062C2.8125 4.22656 3.09375 4.22656 3.35156 4.34375C3.58594 4.48438 3.75 4.74219 3.75 5Z" fill="black" fill-opacity="0.72"/>
</g>
<defs>
<clipPath id="clip0_2556_10531">
<rect width="6" height="18" fill="white"/>
</clipPath>
</defs>
</svg>
