<svg width="24" height="36" viewBox="0 0 24 36" fill="none" xmlns="http://www.w3.org/2000/svg">
<g id="label-paired / xl / bullhorn-xl / bold" clip-path="url(#clip0_2556_19614)">
<path id="icon" d="M20.25 9.46875L19.7344 9.98438C17.0625 12.6562 13.5 14.1562 9.75 14.25V20.25V20.2969C13.5 20.3438 17.0625 21.8906 19.7344 24.5625L20.25 25.0781V9.46875ZM7.5 12H9.375C12.6562 12 15.7969 10.7344 18.1406 8.39062L19.9219 6.60938C20.8594 5.67188 22.5 6.32812 22.5 7.6875V14.4375C23.3438 14.8594 24 15.9844 24 17.25C24 18.5625 23.3438 19.6875 22.5 20.1094V26.8594C22.5 28.2188 20.8594 28.875 19.9219 27.9375L18.1406 26.1562C15.8906 23.9062 12.8906 22.5938 9.75 22.5469V27.375C9.75 28.8281 8.53125 30 7.125 30H5.625C4.17188 30 3 28.8281 3 27.375V22.5C1.3125 22.5 0 21.1875 0 19.5V15C0 13.3594 1.3125 12 3 12H7.5ZM5.25 22.5V27.375C5.25 27.6094 5.39062 27.75 5.625 27.75H7.125C7.3125 27.75 7.5 27.6094 7.5 27.375V22.5H5.25ZM3 14.25C2.57812 14.25 2.25 14.625 2.25 15V19.5C2.25 19.9219 2.57812 20.25 3 20.25H5.25H7.5V14.25H3Z" fill="black" fill-opacity="0.72"/>
</g>
<defs>
<clipPath id="clip0_2556_19614">
<rect width="24" height="36" fill="white"/>
</clipPath>
</defs>
</svg>
