<svg width="16" height="24" viewBox="0 0 16 24" fill="none" xmlns="http://www.w3.org/2000/svg">
<g id="label-paired / md / arrow-rotate-left-md / regular" clip-path="url(#clip0_3431_891)">
<path id="icon" d="M1.5 10C1.21875 10 1 9.78125 1 9.5V5.5C1 5.25 1.21875 5 1.5 5C1.75 5 2 5.25 2 5.5V8.40625C3.21875 6.375 5.4375 5 8 5C11.8438 5 15 8.15625 15 12C15 15.875 11.8438 19 8 19C5.5 19 3.3125 17.7188 2.0625 15.75C1.84375 15.4062 2.09375 15 2.5 15C2.6875 15 2.84375 15.125 2.9375 15.2812C4 16.9062 5.875 18 8 18C11.3125 18 14 15.3125 14 12C14 8.6875 11.3125 6 8 6C5.75 6 3.8125 7.21875 2.78125 9H5.5C5.75 9 6 9.25 6 9.5C6 9.78125 5.75 10 5.5 10H1.5Z" fill="black" fill-opacity="0.72"/>
</g>
<defs>
<clipPath id="clip0_3431_891">
<rect width="16" height="24" fill="white"/>
</clipPath>
</defs>
</svg>
