<svg width="14" height="18" viewBox="0 0 14 18" fill="none" xmlns="http://www.w3.org/2000/svg">
<g id="label-paired / caption / share-from-square-caption / fill" clip-path="url(#clip0_4038_424)">
<path id="icon" d="M8.5 8.75H7.39844C6.34375 8.75 5.5 9.61719 5.5 10.6719C5.5 11.1875 5.73438 11.4688 5.94531 11.6094C6.10938 11.7266 6.25 11.8906 6.25 12.1016C6.25 12.3359 6.0625 12.5234 5.82812 12.5234H5.75781C5.71094 12.5234 5.64062 12.5 5.59375 12.4766C5.17188 12.2891 3.25 11.3281 3.25 9.125C3.25 7.27344 4.75 5.75 6.625 5.75H8.5V4.32031C8.5 3.875 8.85156 3.5 9.29688 3.5C9.50781 3.5 9.69531 3.59375 9.83594 3.71094L13.0938 6.64062C13.2578 6.80469 13.375 7.01562 13.375 7.25C13.375 7.50781 13.2578 7.71875 13.0938 7.88281L9.83594 10.8125C9.69531 10.9531 9.50781 11 9.32031 11H9.25C8.82812 11 8.5 10.6719 8.5 10.25V8.75ZM2.125 5.75C1.91406 5.75 1.75 5.9375 1.75 6.125V13.625C1.75 13.8359 1.91406 14 2.125 14H9.625C9.8125 14 10 13.8359 10 13.625V12.5C10 12.1016 10.3281 11.75 10.75 11.75C11.1484 11.75 11.5 12.1016 11.5 12.5V13.625C11.5 14.6797 10.6562 15.5 9.625 15.5H2.125C1.07031 15.5 0.25 14.6797 0.25 13.625V6.125C0.25 5.09375 1.07031 4.25 2.125 4.25H3.25C3.64844 4.25 4 4.60156 4 5C4 5.42188 3.64844 5.75 3.25 5.75H2.125Z" fill="black" fill-opacity="0.72"/>
</g>
<defs>
<clipPath id="clip0_4038_424">
<rect width="14" height="18" fill="white"/>
</clipPath>
</defs>
</svg>
