<svg width="18" height="36" viewBox="0 0 18 36" fill="none" xmlns="http://www.w3.org/2000/svg">
<g id="label-paired / xl / lightbulb-xl / bold" clip-path="url(#clip0_2556_19422)">
<path id="icon" d="M13.9219 17.6719C14.5781 16.7344 15 15.5625 15 14.25C15 10.9688 12.2812 8.25 9 8.25C5.67188 8.25 3 10.9688 3 14.25C3 15.5625 3.375 16.7344 4.03125 17.6719C4.21875 17.9531 4.40625 18.2344 4.64062 18.5156C5.25 19.3594 5.95312 20.3438 6.51562 21.3281C6.98438 22.2188 7.26562 23.1562 7.35938 24H5.10938C4.96875 23.4375 4.82812 22.9219 4.54688 22.4062C4.07812 21.5625 3.51562 20.7656 2.90625 19.9688C2.67188 19.6406 2.4375 19.3125 2.20312 18.9844C1.26562 17.625 0.75 16.0312 0.75 14.25C0.75 9.70312 4.40625 6 9 6C13.5469 6 17.25 9.70312 17.25 14.25C17.25 16.0312 16.6875 17.625 15.75 18.9844C15.5156 19.3125 15.2812 19.6406 15.0469 19.9688C14.4375 20.7656 13.875 21.5625 13.4062 22.4062C13.125 22.9219 12.9844 23.4375 12.8438 24H10.5938C10.7344 23.1562 10.9688 22.2188 11.4375 21.3281C12 20.3438 12.7031 19.3594 13.3125 18.5156C13.5469 18.2344 13.7344 17.9531 13.9219 17.6719ZM9 12C7.73438 12 6.75 13.0312 6.75 14.25C6.75 14.6719 6.375 15 6 15C5.57812 15 5.25 14.6719 5.25 14.25C5.25 12.1875 6.89062 10.5 9 10.5C9.375 10.5 9.75 10.875 9.75 11.25C9.75 11.6719 9.375 12 9 12ZM9 30C6.89062 30 5.25 28.3594 5.25 26.25V25.5H12.75V26.25C12.75 28.3594 11.0625 30 9 30Z" fill="black" fill-opacity="0.72"/>
</g>
<defs>
<clipPath id="clip0_2556_19422">
<rect width="18" height="36" fill="white"/>
</clipPath>
</defs>
</svg>
