<svg width="11" height="22" viewBox="0 0 11 22" fill="none" xmlns="http://www.w3.org/2000/svg">
<g id="label-paired / sm / xmark-sm / regular" clip-path="url(#clip0_2556_12949)">
<path id="icon" d="M9.10938 15.0156L5.5 11.3789L1.86328 15.0156C1.69922 15.1797 1.42578 15.1797 1.23438 15.0156C1.07031 14.8242 1.07031 14.5508 1.23438 14.3867L4.87109 10.75L1.23438 7.14062C1.07031 6.97656 1.07031 6.70312 1.23438 6.51172C1.42578 6.34766 1.69922 6.34766 1.86328 6.51172L5.5 10.1484L9.10938 6.51172C9.27344 6.34766 9.54688 6.34766 9.73828 6.51172C9.90234 6.70312 9.90234 6.97656 9.73828 7.14062L6.10156 10.75L9.73828 14.3867C9.90234 14.5508 9.90234 14.8242 9.73828 15.0156C9.54688 15.1797 9.27344 15.1797 9.10938 15.0156Z" fill="black" fill-opacity="0.72"/>
</g>
<defs>
<clipPath id="clip0_2556_12949">
<rect width="11" height="22" fill="white"/>
</clipPath>
</defs>
</svg>
