<svg width="24" height="36" viewBox="0 0 24 36" fill="none" xmlns="http://www.w3.org/2000/svg">
<g id="label-paired / xl / facebook-messenger-xl" clip-path="url(#clip0_2981_881)">
<path id="icon" d="M12 6.375C18.5625 6.375 23.625 11.2031 23.625 17.6719C23.625 25.875 15.7969 30.4688 8.625 28.5C8.20312 28.4062 8.15625 28.5 5.71875 29.5781C5.39062 29.6719 5.0625 29.6719 4.82812 29.4844C4.54688 29.3438 4.40625 29.0625 4.40625 28.7344C4.3125 26.5781 4.40625 26.3906 4.03125 26.0156C1.73438 24 0.375 21.0469 0.375 17.6719C0.375 11.2031 5.4375 6.375 12 6.375ZM18.9844 15.0938C19.3125 14.5781 18.7031 13.9688 18.1875 14.3438L14.5312 17.1094C14.25 17.2969 13.9219 17.2969 13.6875 17.1094L10.9688 15.0938C10.5469 14.8125 10.0781 14.6719 9.60938 14.7656C9.09375 14.8594 8.67188 15.1406 8.4375 15.5625L5.01562 20.9531C4.6875 21.4688 5.29688 22.0781 5.8125 21.7031L9.46875 18.9375C9.75 18.75 10.0781 18.75 10.3125 18.9375L13.0312 20.9531C13.4531 21.2344 13.9219 21.375 14.4375 21.2812C14.9062 21.1875 15.3281 20.9062 15.5625 20.4844L18.9844 15.0938Z" fill="black" fill-opacity="0.72"/>
</g>
<defs>
<clipPath id="clip0_2981_881">
<rect width="24" height="36" fill="white"/>
</clipPath>
</defs>
</svg>
