<svg width="14" height="24" viewBox="0 0 14 24" fill="none" xmlns="http://www.w3.org/2000/svg">
<g id="label-paired / md / tablet-md / regular" clip-path="url(#clip0_2556_14967)">
<path id="icon" d="M2 5C1.4375 5 1 5.46875 1 6V18C1 18.5625 1.4375 19 2 19H12C12.5312 19 13 18.5625 13 18V6C13 5.46875 12.5312 5 12 5H2ZM0 6C0 4.90625 0.875 4 2 4H12C13.0938 4 14 4.90625 14 6V18C14 19.125 13.0938 20 12 20H2C0.875 20 0 19.125 0 18V6ZM6 16.5H8C8.25 16.5 8.5 16.75 8.5 17C8.5 17.2812 8.25 17.5 8 17.5H6C5.71875 17.5 5.5 17.2812 5.5 17C5.5 16.75 5.71875 16.5 6 16.5Z" fill="black" fill-opacity="0.72"/>
</g>
<defs>
<clipPath id="clip0_2556_14967">
<rect width="14" height="24" fill="white"/>
</clipPath>
</defs>
</svg>
