<svg width="18" height="36" viewBox="0 0 18 36" fill="none" xmlns="http://www.w3.org/2000/svg">
<g id="label-paired / xl / lightbulb-xl / bold" clip-path="url(#clip0_2512_1044)">
<path id="icon" d="M13.9219 17.6719C14.6094 16.6719 14.9688 15.5312 15 14.25C14.9688 12.5625 14.3906 11.1406 13.2656 9.98438C12.1094 8.85938 10.6875 8.28125 9 8.25C7.3125 8.28125 5.89062 8.85938 4.73438 9.98438C3.60938 11.1406 3.03125 12.5625 3 14.25C3.03125 15.5312 3.39062 16.6719 4.07812 17.6719C4.23438 17.9219 4.4375 18.2031 4.6875 18.5156C5.34375 19.3594 5.95312 20.2812 6.51562 21.2812C6.98438 22.1875 7.28125 23.0938 7.40625 24H5.10938C5.01562 23.4375 4.82812 22.8906 4.54688 22.3594C4.07812 21.5469 3.54688 20.75 2.95312 19.9688C2.70312 19.625 2.45312 19.2812 2.20312 18.9375C1.26562 17.5938 0.78125 16.0312 0.75 14.25C0.8125 11.9062 1.625 9.96875 3.1875 8.4375C4.71875 6.875 6.65625 6.0625 9 6C11.3438 6.0625 13.2812 6.875 14.8125 8.4375C16.375 9.96875 17.1875 11.9062 17.25 14.25C17.2188 16.0312 16.7344 17.5938 15.7969 18.9375C15.5469 19.2812 15.2969 19.6094 15.0469 19.9219C15.0469 19.9531 15.0469 19.9688 15.0469 19.9688C14.4531 20.75 13.9219 21.5469 13.4531 22.3594C13.1719 22.8906 12.9844 23.4375 12.8906 24H10.5938C10.7188 23.0938 11.0156 22.1875 11.4844 21.2812C12.0781 20.2812 12.7031 19.3594 13.3594 18.5156C13.5781 18.2031 13.7656 17.9219 13.9219 17.6719ZM9 12C8.375 12.0312 7.84375 12.25 7.40625 12.6562C7 13.0938 6.78125 13.625 6.75 14.25C6.71875 14.7188 6.46875 14.9688 6 15C5.53125 14.9688 5.28125 14.7188 5.25 14.25C5.28125 13.1875 5.64062 12.2969 6.32812 11.5781C7.04688 10.8906 7.9375 10.5312 9 10.5C9.46875 10.5312 9.71875 10.7812 9.75 11.25C9.71875 11.7188 9.46875 11.9688 9 12ZM9 30C7.9375 29.9688 7.04688 29.6094 6.32812 28.9219C5.64062 28.2031 5.28125 27.3125 5.25 26.25V25.5H12.75V26.25C12.7188 27.3125 12.3594 28.2031 11.6719 28.9219C10.9531 29.6094 10.0625 29.9688 9 30Z" fill="black" fill-opacity="0.72"/>
</g>
<defs>
<clipPath id="clip0_2512_1044">
<rect width="18" height="36" fill="white"/>
</clipPath>
</defs>
</svg>
