<svg width="20" height="24" viewBox="0 0 20 24" fill="none" xmlns="http://www.w3.org/2000/svg">
<g id="label-paired / md / language-md / regular" clip-path="url(#clip0_2556_14909)">
<path id="icon" d="M9.5 7H2C1.4375 7 1 7.46875 1 8V16C1 16.5625 1.4375 17 2 17H9.5V7ZM10.5 7V17H18C18.5312 17 19 16.5625 19 16V8C19 7.46875 18.5312 7 18 7H10.5ZM20 8V16C20 17.125 19.0938 18 18 18H2C0.875 18 0 17.125 0 16V8C0 6.90625 0.875 6 2 6H18C19.0938 6 20 6.90625 20 8ZM5.4375 9.34375L7.4375 14.3438C7.5625 14.5938 7.4375 14.875 7.15625 14.9688C6.90625 15.0938 6.625 14.9688 6.53125 14.6875L6.25 14.0312H3.71875L3.4375 14.6875C3.34375 14.9688 3.0625 15.0938 2.8125 14.9688C2.53125 14.875 2.40625 14.5938 2.53125 14.3438L4.53125 9.34375C4.59375 9.125 4.78125 9 5 9C5.1875 9 5.375 9.125 5.4375 9.34375ZM5 10.875L4.125 13H5.84375L5 10.875ZM15.5 9.5V10H17H17.5C17.75 10 18 10.25 18 10.5C18 10.7812 17.75 11 17.5 11H17.3438L17.2188 11.375C16.9062 12.1875 16.4375 12.9375 15.8438 13.5312C15.9375 13.5938 16.0312 13.6562 16.1562 13.7188L16.75 14.0938C16.9688 14.2188 17.0625 14.5312 16.9062 14.7812C16.7812 15 16.4688 15.0938 16.2188 14.9375L15.625 14.5938C15.4375 14.4688 15.25 14.3438 15.0625 14.1875C14.8125 14.375 14.5312 14.5312 14.25 14.6875L13.7188 14.9688C13.4688 15.0938 13.1562 14.9688 13.0312 14.7188C12.9062 14.5 13.0312 14.1875 13.25 14.0625L13.8125 13.7812C13.9688 13.7188 14.125 13.625 14.2812 13.5312L13.625 12.875C13.4375 12.6562 13.4375 12.3438 13.625 12.1562C13.8438 11.9688 14.1562 11.9688 14.3438 12.1562L15.0625 12.875C15.5938 12.375 16 11.75 16.2812 11.0312V11H15H12.5C12.2188 11 12 10.7812 12 10.5C12 10.25 12.2188 10 12.5 10H14.5V9.5C14.5 9.25 14.7188 9 15 9C15.25 9 15.5 9.25 15.5 9.5Z" fill="black" fill-opacity="0.72"/>
</g>
<defs>
<clipPath id="clip0_2556_14909">
<rect width="20" height="24" fill="white"/>
</clipPath>
</defs>
</svg>
