<svg width="16" height="24" viewBox="0 0 16 24" fill="none" xmlns="http://www.w3.org/2000/svg">
<g id="label-paired / md / chart-line-md / regular" clip-path="url(#clip0_2556_14784)">
<path id="icon" d="M1 5.5V16.5C1 17.3438 1.65625 18 2.5 18H15.5C15.75 18 16 18.25 16 18.5C16 18.7812 15.75 19 15.5 19H2.5C1.09375 19 0 17.9062 0 16.5V5.5C0 5.25 0.21875 5 0.5 5C0.75 5 1 5.25 1 5.5ZM14.8438 8.875L10.3438 13.375C10.1562 13.5625 9.8125 13.5625 9.625 13.375L7 10.7188L3.84375 13.875C3.65625 14.0625 3.3125 14.0625 3.125 13.875C2.9375 13.6875 2.9375 13.3438 3.125 13.1562L6.625 9.65625C6.8125 9.46875 7.15625 9.46875 7.34375 9.65625L10 12.3125L14.125 8.15625C14.3125 7.96875 14.6562 7.96875 14.8438 8.15625C15.0312 8.34375 15.0312 8.6875 14.8438 8.875Z" fill="black" fill-opacity="0.72"/>
</g>
<defs>
<clipPath id="clip0_2556_14784">
<rect width="16" height="24" fill="white"/>
</clipPath>
</defs>
</svg>
