<svg width="14" height="22" viewBox="0 0 14 22" fill="none" xmlns="http://www.w3.org/2000/svg">
<g id="label-paired / sm / location-crosshairs-sm / bold" clip-path="url(#clip0_2556_12947)">
<path id="icon" d="M7 3.75C7.35547 3.75 7.65625 4.05078 7.65625 4.40625V5.55469C10.0078 5.85547 11.8945 7.74219 12.1953 10.0938H13.3438C13.6992 10.0938 14 10.3945 14 10.75C14 11.1328 13.6992 11.4062 13.3438 11.4062H12.1953C11.8945 13.7852 10.0078 15.6719 7.65625 15.9727V17.0938C7.65625 17.4766 7.35547 17.75 7 17.75C6.61719 17.75 6.34375 17.4766 6.34375 17.0938V15.9727C3.96484 15.6719 2.07812 13.7852 1.77734 11.4062H0.65625C0.273438 11.4062 0 11.1328 0 10.75C0 10.3945 0.273438 10.0938 0.65625 10.0938H1.77734C2.07812 7.74219 3.96484 5.85547 6.34375 5.55469V4.40625C6.34375 4.05078 6.61719 3.75 7 3.75ZM3.0625 10.75C3.0625 12.1719 3.80078 13.457 5.03125 14.168C6.23438 14.8789 7.73828 14.8789 8.96875 14.168C10.1719 13.457 10.9375 12.1719 10.9375 10.75C10.9375 9.35547 10.1719 8.07031 8.96875 7.35938C7.73828 6.64844 6.23438 6.64844 5.03125 7.35938C3.80078 8.07031 3.0625 9.35547 3.0625 10.75ZM8.3125 10.75C8.3125 10.2852 8.03906 9.875 7.65625 9.62891C7.24609 9.38281 6.72656 9.38281 6.34375 9.62891C5.93359 9.875 5.6875 10.2852 5.6875 10.75C5.6875 11.2422 5.93359 11.6523 6.34375 11.8984C6.72656 12.1445 7.24609 12.1445 7.65625 11.8984C8.03906 11.6523 8.3125 11.2422 8.3125 10.75ZM4.375 10.75C4.375 9.82031 4.86719 8.97266 5.6875 8.48047C6.48047 8.01562 7.49219 8.01562 8.3125 8.48047C9.10547 8.97266 9.625 9.82031 9.625 10.75C9.625 11.707 9.10547 12.5547 8.3125 13.0469C7.49219 13.5117 6.48047 13.5117 5.6875 13.0469C4.86719 12.5547 4.375 11.707 4.375 10.75Z" fill="black" fill-opacity="0.72"/>
</g>
<defs>
<clipPath id="clip0_2556_12947">
<rect width="14" height="22" fill="white"/>
</clipPath>
</defs>
</svg>
