<svg width="12" height="18" viewBox="0 0 12 18" fill="none" xmlns="http://www.w3.org/2000/svg">
<g id="label-paired / caption / sun-bright-caption / fill" clip-path="url(#clip0_2556_10277)">
<path id="icon" d="M6 3.5C6.30469 3.5 6.5625 3.75781 6.5625 4.0625V5.5625C6.5625 5.89062 6.30469 6.125 6 6.125C5.67188 6.125 5.4375 5.89062 5.4375 5.5625V4.0625C5.4375 3.75781 5.67188 3.5 6 3.5ZM6 12.875C6.30469 12.875 6.5625 13.1328 6.5625 13.4375V14.9375C6.5625 15.2656 6.30469 15.5 6 15.5C5.67188 15.5 5.4375 15.2656 5.4375 14.9375V13.4375C5.4375 13.1328 5.67188 12.875 6 12.875ZM11.4375 10.0625H9.9375C9.60938 10.0625 9.375 9.82812 9.375 9.5C9.375 9.19531 9.60938 8.9375 9.9375 8.9375H11.4375C11.7422 8.9375 12 9.19531 12 9.5C12 9.82812 11.7422 10.0625 11.4375 10.0625ZM2.625 9.5C2.625 9.82812 2.36719 10.0625 2.0625 10.0625H0.5625C0.234375 10.0625 0 9.82812 0 9.5C0 9.19531 0.234375 8.9375 0.5625 8.9375H2.0625C2.36719 8.9375 2.625 9.19531 2.625 9.5ZM10.2422 6.05469L9.16406 7.13281C8.95312 7.34375 8.60156 7.34375 8.36719 7.13281C8.15625 6.89844 8.15625 6.54688 8.36719 6.33594L9.44531 5.25781C9.65625 5.04688 10.0078 5.04688 10.2422 5.25781C10.4531 5.49219 10.4531 5.84375 10.2422 6.05469ZM3.60938 11.8906C3.82031 12.125 3.82031 12.4766 3.60938 12.6875L2.53125 13.7422C2.32031 13.9766 1.96875 13.9766 1.75781 13.7422C1.52344 13.5312 1.52344 13.1797 1.75781 12.9688L2.8125 11.8906C3.02344 11.6797 3.375 11.6797 3.60938 11.8906ZM9.44531 13.7422L8.36719 12.6875C8.15625 12.4766 8.15625 12.125 8.36719 11.8906C8.60156 11.6797 8.95312 11.6797 9.16406 11.8906L10.2422 12.9688C10.4531 13.1797 10.4531 13.5312 10.2422 13.7422C10.0078 13.9766 9.65625 13.9766 9.44531 13.7422ZM3.60938 7.13281C3.375 7.34375 3.02344 7.34375 2.8125 7.13281L1.75781 6.05469C1.52344 5.84375 1.52344 5.49219 1.75781 5.25781C1.96875 5.04688 2.32031 5.04688 2.53125 5.25781L3.60938 6.33594C3.82031 6.54688 3.82031 6.89844 3.60938 7.13281ZM6 12.125C5.03906 12.125 4.19531 11.6328 3.72656 10.8125C3.23438 10.0156 3.23438 9.00781 3.72656 8.1875C4.19531 7.39062 5.03906 6.875 6 6.875C6.9375 6.875 7.78125 7.39062 8.25 8.1875C8.74219 9.00781 8.74219 10.0156 8.25 10.8125C7.78125 11.6328 6.9375 12.125 6 12.125Z" fill="black" fill-opacity="0.72"/>
</g>
<defs>
<clipPath id="clip0_2556_10277">
<rect width="12" height="18" fill="white"/>
</clipPath>
</defs>
</svg>
