<svg width="16" height="24" viewBox="0 0 16 24" fill="none" xmlns="http://www.w3.org/2000/svg">
<g id="label-paired / md / circle-five-md / bold" clip-path="url(#clip0_2556_14820)">
<path id="icon" d="M8 5.5C5.65625 5.5 3.53125 6.75 2.34375 8.75C1.1875 10.7812 1.1875 13.25 2.34375 15.25C3.53125 17.2812 5.65625 18.5 8 18.5C10.3125 18.5 12.4375 17.2812 13.625 15.25C14.7812 13.25 14.7812 10.7812 13.625 8.75C12.4375 6.75 10.3125 5.5 8 5.5ZM8 20C5.125 20 2.5 18.5 1.0625 16C-0.375 13.5312 -0.375 10.5 1.0625 8C2.5 5.53125 5.125 4 8 4C10.8438 4 13.4688 5.53125 14.9062 8C16.3438 10.5 16.3438 13.5312 14.9062 16C13.4688 18.5 10.8438 20 8 20ZM6.5 8H9.75C10.1562 8 10.5 8.34375 10.5 8.75C10.5 9.1875 10.1562 9.5 9.75 9.5H7.125L6.875 10.8438L8.78125 11.0625C10.0312 11.2188 11 12.2812 11 13.5312C11 14.9062 9.875 16.0312 8.5 16.0312H7.375C6.53125 16.0312 5.71875 15.5938 5.25 14.875L5.125 14.6875C4.875 14.3438 4.96875 13.875 5.3125 13.6562C5.65625 13.4062 6.125 13.5 6.34375 13.8438L6.5 14.0312C6.6875 14.3438 7.03125 14.5 7.375 14.5H8.5C9.0625 14.5 9.5 14.0625 9.5 13.5312C9.5 13.0312 9.125 12.625 8.625 12.5625L5.90625 12.25C5.6875 12.25 5.5 12.125 5.375 11.9688C5.25 11.7812 5.21875 11.5938 5.25 11.375L5.75 8.625C5.8125 8.28125 6.125 8 6.5 8Z" fill="black" fill-opacity="0.72"/>
</g>
<defs>
<clipPath id="clip0_2556_14820">
<rect width="16" height="24" fill="white"/>
</clipPath>
</defs>
</svg>
