<svg width="30" height="36" viewBox="0 0 30 36" fill="none" xmlns="http://www.w3.org/2000/svg">
<g id="label-paired / xl / person-chalkboard-xl / bold" clip-path="url(#clip0_2556_19454)">
<path id="icon" d="M9 10.5C8.15625 10.5 7.45312 10.0781 7.03125 9.375C6.60938 8.71875 6.60938 7.82812 7.03125 7.125C7.45312 6.46875 8.15625 6 9 6C9.79688 6 10.5 6.46875 10.9219 7.125C11.3438 7.82812 11.3438 8.71875 10.9219 9.375C10.5 10.0781 9.79688 10.5 9 10.5ZM8.34375 14.25C8.29688 14.25 8.25 14.2969 8.25 14.2969V20.25H9.75V14.25H8.34375ZM8.25 28.875C8.25 29.5312 7.73438 30 7.125 30C6.46875 30 6 29.5312 6 28.875V16.5L3.9375 20.0625C3.65625 20.625 2.95312 20.8125 2.4375 20.4844C1.875 20.2031 1.6875 19.5 2.01562 18.9844L4.73438 14.1094C5.48438 12.8438 6.84375 12 8.34375 12H11.3906H15V8.25C15 7.03125 15.9844 6 17.25 6H27.75C28.9688 6 30 7.03125 30 8.25V18.75C30 20.0156 28.9688 21 27.75 21H17.25C15.9844 21 15 20.0156 15 18.75V16.5H17.25V18.75H27.75V8.25H17.25V12H18.375C18.9844 12 19.5 12.5156 19.5 13.125C19.5 13.7812 18.9844 14.25 18.375 14.25H12V28.875C12 29.5312 11.4844 30 10.875 30C10.2188 30 9.75 29.5312 9.75 28.875V22.5H8.25V28.875Z" fill="black" fill-opacity="0.72"/>
</g>
<defs>
<clipPath id="clip0_2556_19454">
<rect width="30" height="36" fill="white"/>
</clipPath>
</defs>
</svg>
