<svg width="14" height="22" viewBox="0 0 14 22" fill="none" xmlns="http://www.w3.org/2000/svg">
<g id="label-paired / sm / message-lines-sm / fill" clip-path="url(#clip0_2981_798)">
<path id="icon" d="M0 5.5C0 4.54297 0.765625 3.75 1.75 3.75H12.25C13.207 3.75 14 4.54297 14 5.5V13.375C14 14.3594 13.207 15.125 12.25 15.125H8.44922L5.05859 17.668C4.92188 17.7773 4.75781 17.7773 4.59375 17.7227C4.45703 17.6406 4.375 17.5039 4.375 17.3125V15.125H1.75C0.765625 15.125 0 14.3594 0 13.375V5.5ZM4.15625 7.6875C3.77344 7.6875 3.5 7.98828 3.5 8.34375C3.5 8.72656 3.77344 9 4.15625 9H9.84375C10.1992 9 10.5 8.72656 10.5 8.34375C10.5 7.98828 10.1992 7.6875 9.84375 7.6875H4.15625ZM4.15625 10.3125C3.77344 10.3125 3.5 10.6133 3.5 10.9688C3.5 11.3516 3.77344 11.625 4.15625 11.625H7.21875C7.57422 11.625 7.875 11.3516 7.875 10.9688C7.875 10.6133 7.57422 10.3125 7.21875 10.3125H4.15625Z" fill="black" fill-opacity="0.72"/>
</g>
<defs>
<clipPath id="clip0_2981_798">
<rect width="14" height="22" fill="white"/>
</clipPath>
</defs>
</svg>
