<svg width="20" height="30" viewBox="0 0 20 30" fill="none" xmlns="http://www.w3.org/2000/svg">
<g id="label-paired / lg / circle-info-lg / regular" clip-path="url(#clip0_2556_17232)">
<path id="icon" d="M10 6.75C6.83594 6.75 3.98438 8.42969 2.42188 11.125C0.820312 13.8594 0.820312 17.1797 2.42188 19.875C3.98438 22.6094 6.83594 24.25 10 24.25C13.125 24.25 15.9766 22.6094 17.5391 19.875C19.1406 17.1797 19.1406 13.8594 17.5391 11.125C15.9766 8.42969 13.125 6.75 10 6.75ZM10 25.5C6.40625 25.5 3.125 23.625 1.32812 20.5C-0.46875 17.4141 -0.46875 13.625 1.32812 10.5C3.125 7.41406 6.40625 5.5 10 5.5C13.5547 5.5 16.8359 7.41406 18.6328 10.5C20.4297 13.625 20.4297 17.4141 18.6328 20.5C16.8359 23.625 13.5547 25.5 10 25.5ZM8.125 19.25H9.375V15.5H8.4375C8.08594 15.5 7.8125 15.2266 7.8125 14.875C7.8125 14.5625 8.08594 14.25 8.4375 14.25H10C10.3125 14.25 10.625 14.5625 10.625 14.875V19.25H11.875C12.1875 19.25 12.5 19.5625 12.5 19.875C12.5 20.2266 12.1875 20.5 11.875 20.5H8.125C7.77344 20.5 7.5 20.2266 7.5 19.875C7.5 19.5625 7.77344 19.25 8.125 19.25ZM10 12.6875C9.45312 12.6875 9.0625 12.2969 9.0625 11.75C9.0625 11.2422 9.45312 10.8125 10 10.8125C10.5078 10.8125 10.9375 11.2422 10.9375 11.75C10.9375 12.2969 10.5078 12.6875 10 12.6875Z" fill="black" fill-opacity="0.72"/>
</g>
<defs>
<clipPath id="clip0_2556_17232">
<rect width="20" height="30" fill="white"/>
</clipPath>
</defs>
</svg>
