<svg width="20" height="30" viewBox="0 0 20 30" fill="none" xmlns="http://www.w3.org/2000/svg">
<g id="label-paired / lg / search-lg / bold" clip-path="url(#clip0_2556_17548)">
<path id="icon" d="M14.375 13.625C14.375 11.3984 13.1641 9.36719 11.25 8.23438C9.29688 7.10156 6.91406 7.10156 5 8.23438C3.04688 9.36719 1.875 11.3984 1.875 13.625C1.875 15.8906 3.04688 17.9219 5 19.0547C6.91406 20.1875 9.29688 20.1875 11.25 19.0547C13.1641 17.9219 14.375 15.8906 14.375 13.625ZM13.1641 20.0312C11.7578 21.125 10 21.75 8.125 21.75C3.63281 21.75 0 18.1172 0 13.625C0 9.17188 3.63281 5.5 8.125 5.5C12.5781 5.5 16.25 9.17188 16.25 13.625C16.25 15.5391 15.5859 17.2969 14.4922 18.7031L19.7266 23.8984C20.0781 24.2891 20.0781 24.875 19.7266 25.2266C19.3359 25.6172 18.75 25.6172 18.3984 25.2266L13.1641 20.0312Z" fill="black" fill-opacity="0.72"/>
</g>
<defs>
<clipPath id="clip0_2556_17548">
<rect width="20" height="30" fill="white"/>
</clipPath>
</defs>
</svg>
