<svg width="15" height="30" viewBox="0 0 15 30" fill="none" xmlns="http://www.w3.org/2000/svg">
<g id="label-paired / lg / microphone-lg / fill" clip-path="url(#clip0_2556_16964)">
<path id="icon" d="M7.5 5.5C9.57031 5.5 11.25 7.17969 11.25 9.25V15.5C11.25 17.5703 9.57031 19.25 7.5 19.25C5.42969 19.25 3.75 17.5703 3.75 15.5V9.25C3.75 7.17969 5.42969 5.5 7.5 5.5ZM2.5 13.9375V15.5C2.5 18.2734 4.72656 20.5 7.5 20.5C10.2344 20.5 12.5 18.2734 12.5 15.5V13.9375C12.5 13.4297 12.8906 13 13.4375 13C13.9453 13 14.375 13.4297 14.375 13.9375V15.5C14.375 19.0156 11.7578 21.8672 8.4375 22.3359V23.625H10.3125C10.8203 23.625 11.25 24.0547 11.25 24.5625C11.25 25.1094 10.8203 25.5 10.3125 25.5H7.5H4.6875C4.14062 25.5 3.75 25.1094 3.75 24.5625C3.75 24.0547 4.14062 23.625 4.6875 23.625H6.5625V22.3359C3.20312 21.8672 0.625 19.0156 0.625 15.5V13.9375C0.625 13.4297 1.01562 13 1.5625 13C2.07031 13 2.5 13.4297 2.5 13.9375Z" fill="black" fill-opacity="0.72"/>
</g>
<defs>
<clipPath id="clip0_2556_16964">
<rect width="15" height="30" fill="white"/>
</clipPath>
</defs>
</svg>
