<svg width="21" height="36" viewBox="0 0 21 36" fill="none" xmlns="http://www.w3.org/2000/svg">
<g id="label-paired / xl / bars-filter-xl / regular" clip-path="url(#clip0_2556_19499)">
<path id="icon" d="M0 9.75C0 9.375 0.328125 9 0.75 9H20.25C20.625 9 21 9.375 21 9.75C21 10.1719 20.625 10.5 20.25 10.5H0.75C0.328125 10.5 0 10.1719 0 9.75ZM3 17.25C3 16.875 3.32812 16.5 3.75 16.5H17.25C17.625 16.5 18 16.875 18 17.25C18 17.6719 17.625 18 17.25 18H3.75C3.32812 18 3 17.6719 3 17.25ZM13.5 24.75C13.5 25.1719 13.125 25.5 12.75 25.5H8.25C7.82812 25.5 7.5 25.1719 7.5 24.75C7.5 24.375 7.82812 24 8.25 24H12.75C13.125 24 13.5 24.375 13.5 24.75Z" fill="black" fill-opacity="0.72"/>
</g>
<defs>
<clipPath id="clip0_2556_19499">
<rect width="21" height="36" fill="white"/>
</clipPath>
</defs>
</svg>
