<svg width="20" height="30" viewBox="0 0 20 30" fill="none" xmlns="http://www.w3.org/2000/svg">
<g id="label-paired / lg / arrow-rotate-left-lg / fill" clip-path="url(#clip0_3431_993)">
<path id="icon" d="M4.88281 11.75H6.875C7.53906 11.75 8.125 12.3359 8.125 13C8.125 13.7031 7.53906 14.25 6.875 14.25H1.875C1.17188 14.25 0.625 13.7031 0.625 13V8C0.625 7.33594 1.17188 6.75 1.875 6.75C2.53906 6.75 3.125 7.33594 3.125 8V10.0312L3.78906 9.32812C7.22656 5.92969 12.7344 5.92969 16.1719 9.32812C19.5703 12.7656 19.5703 18.2734 16.1719 21.7109C12.7344 25.1094 7.22656 25.1094 3.78906 21.7109C3.32031 21.2031 3.32031 20.4219 3.78906 19.9531C4.29688 19.4453 5.07812 19.4453 5.54688 19.9531C8.00781 22.375 11.9531 22.375 14.4141 19.9531C16.8359 17.4922 16.8359 13.5469 14.4141 11.0859C11.9531 8.66406 8.00781 8.66406 5.54688 11.0859L4.88281 11.75Z" fill="black" fill-opacity="0.72"/>
</g>
<defs>
<clipPath id="clip0_3431_993">
<rect width="20" height="30" fill="white"/>
</clipPath>
</defs>
</svg>
