<svg width="12" height="18" viewBox="0 0 12 18" fill="none" xmlns="http://www.w3.org/2000/svg">
<g id="label-paired / caption / face-viewfinder-caption / bold" clip-path="url(#clip0_2556_9984)">
<path id="icon" d="M0 4.8125C0 4.10938 0.585938 3.5 1.3125 3.5H3.1875C3.49219 3.5 3.75 3.75781 3.75 4.0625C3.75 4.39062 3.49219 4.625 3.1875 4.625H1.3125C1.19531 4.625 1.125 4.71875 1.125 4.8125V6.6875C1.125 7.01562 0.867188 7.25 0.5625 7.25C0.234375 7.25 0 7.01562 0 6.6875V4.8125ZM8.25 4.0625C8.25 3.75781 8.48438 3.5 8.8125 3.5H10.6875C11.3906 3.5 12 4.10938 12 4.8125V6.6875C12 7.01562 11.7422 7.25 11.4375 7.25C11.1094 7.25 10.875 7.01562 10.875 6.6875V4.8125C10.875 4.71875 10.7812 4.625 10.6875 4.625H8.8125C8.48438 4.625 8.25 4.39062 8.25 4.0625ZM0.5625 11.75C0.867188 11.75 1.125 12.0078 1.125 12.3125V14.1875C1.125 14.3047 1.19531 14.375 1.3125 14.375H3.1875C3.49219 14.375 3.75 14.6328 3.75 14.9375C3.75 15.2656 3.49219 15.5 3.1875 15.5H1.3125C0.585938 15.5 0 14.9141 0 14.1875V12.3125C0 12.0078 0.234375 11.75 0.5625 11.75ZM11.4375 11.75C11.7422 11.75 12 12.0078 12 12.3125V14.1875C12 14.9141 11.3906 15.5 10.6875 15.5H8.8125C8.48438 15.5 8.25 15.2656 8.25 14.9375C8.25 14.6328 8.48438 14.375 8.8125 14.375H10.6875C10.7812 14.375 10.875 14.3047 10.875 14.1875V12.3125C10.875 12.0078 11.1094 11.75 11.4375 11.75ZM5.625 8.5625C5.625 8.89062 5.36719 9.125 5.0625 9.125C4.73438 9.125 4.5 8.89062 4.5 8.5625C4.5 8.25781 4.73438 8 5.0625 8C5.36719 8 5.625 8.25781 5.625 8.5625ZM6.9375 9.125C6.60938 9.125 6.375 8.89062 6.375 8.5625C6.375 8.25781 6.60938 8 6.9375 8C7.24219 8 7.5 8.25781 7.5 8.5625C7.5 8.89062 7.24219 9.125 6.9375 9.125ZM6 6.875C5.03906 6.875 4.19531 7.39062 3.72656 8.1875C3.23438 9.00781 3.23438 10.0156 3.72656 10.8125C4.19531 11.6328 5.03906 12.125 6 12.125C6.9375 12.125 7.78125 11.6328 8.25 10.8125C8.74219 10.0156 8.74219 9.00781 8.25 8.1875C7.78125 7.39062 6.9375 6.875 6 6.875ZM6 13.25C4.64062 13.25 3.42188 12.5469 2.74219 11.375C2.0625 10.2266 2.0625 8.79688 2.74219 7.625C3.42188 6.47656 4.64062 5.75 6 5.75C7.33594 5.75 8.55469 6.47656 9.23438 7.625C9.91406 8.79688 9.91406 10.2266 9.23438 11.375C8.55469 12.5469 7.33594 13.25 6 13.25ZM5.01562 10.0625C5.20312 10.4141 5.57812 10.625 6 10.625C6.39844 10.625 6.77344 10.4141 6.96094 10.0625C7.07812 9.89844 7.28906 9.82812 7.47656 9.94531C7.66406 10.0391 7.71094 10.2734 7.61719 10.4609C7.28906 11 6.67969 11.3984 6 11.3984C5.29688 11.3984 4.6875 11 4.35938 10.4609C4.26562 10.2734 4.3125 10.0391 4.5 9.94531C4.6875 9.82812 4.92188 9.89844 5.01562 10.0625Z" fill="black" fill-opacity="0.72"/>
</g>
<defs>
<clipPath id="clip0_2556_9984">
<rect width="12" height="18" fill="white"/>
</clipPath>
</defs>
</svg>
