<svg width="16" height="24" viewBox="0 0 16 24" fill="none" xmlns="http://www.w3.org/2000/svg">
<g id="label-paired / md / magnifying-glass-minus-md / regular" clip-path="url(#clip0_3431_856)">
<path id="icon" d="M6.5 5C4.53125 5 2.71875 6.0625 1.71875 7.75C0.75 9.46875 0.75 11.5625 1.71875 13.25C2.71875 14.9688 4.53125 16 6.5 16C8.4375 16 10.25 14.9688 11.25 13.25C12.2188 11.5625 12.2188 9.46875 11.25 7.75C10.25 6.0625 8.4375 5 6.5 5ZM6.5 17C2.90625 17 0 14.0938 0 10.5C0 6.9375 2.90625 4 6.5 4C10.0625 4 13 6.9375 13 10.5C13 12.125 12.4062 13.5938 11.4375 14.75L15.8438 19.1562C16.0312 19.3438 16.0312 19.6875 15.8438 19.875C15.6562 20.0625 15.3125 20.0625 15.125 19.875L10.7188 15.4375C9.59375 16.4375 8.09375 17 6.5 17ZM3.5 10H9.5C9.75 10 10 10.25 10 10.5C10 10.7812 9.75 11 9.5 11H3.5C3.21875 11 3 10.7812 3 10.5C3 10.25 3.21875 10 3.5 10Z" fill="black" fill-opacity="0.72"/>
</g>
<defs>
<clipPath id="clip0_3431_856">
<rect width="16" height="24" fill="white"/>
</clipPath>
</defs>
</svg>
