<svg width="12" height="18" viewBox="0 0 12 18" fill="none" xmlns="http://www.w3.org/2000/svg">
<g id="label-paired / caption / chart-area-caption / fill" clip-path="url(#clip0_2556_10178)">
<path id="icon" d="M1.5 5V12.875C1.5 13.0859 1.66406 13.25 1.875 13.25H11.25C11.6484 13.25 12 13.6016 12 14C12 14.4219 11.6484 14.75 11.25 14.75H1.875C0.820312 14.75 0 13.9297 0 12.875V5C0 4.60156 0.328125 4.25 0.75 4.25C1.14844 4.25 1.5 4.60156 1.5 5ZM3.75 11.75V11.7734C3.32812 11.7734 3 11.4219 3 11.0234V9.05469C3 8.86719 3.04688 8.67969 3.16406 8.53906L5.03906 6.42969C5.34375 6.07812 5.88281 6.07812 6.1875 6.42969L7.10156 7.53125C7.3125 7.78906 7.6875 7.8125 7.92188 7.57812L8.41406 7.08594C8.71875 6.78125 9.23438 6.78125 9.51562 7.13281L11.0625 8.91406C11.1797 9.05469 11.25 9.24219 11.25 9.40625V11C11.25 11.4219 10.8984 11.75 10.5 11.75H3.75Z" fill="black" fill-opacity="0.72"/>
</g>
<defs>
<clipPath id="clip0_2556_10178">
<rect width="12" height="18" fill="white"/>
</clipPath>
</defs>
</svg>
