<svg width="14" height="24" viewBox="0 0 14 24" fill="none" xmlns="http://www.w3.org/2000/svg">
<g id="label-paired / md / grid-md / regular" clip-path="url(#clip0_2556_14964)">
<path id="icon" d="M2.75 6H1.25C1.09375 6 1 6.125 1 6.25V7.75C1 7.90625 1.09375 8 1.25 8H2.75C2.875 8 3 7.90625 3 7.75V6.25C3 6.125 2.875 6 2.75 6ZM1.25 5H2.75C3.4375 5 4 5.5625 4 6.25V7.75C4 8.46875 3.4375 9 2.75 9H1.25C0.53125 9 0 8.46875 0 7.75V6.25C0 5.5625 0.53125 5 1.25 5ZM2.75 11H1.25C1.09375 11 1 11.125 1 11.25V12.75C1 12.9062 1.09375 13 1.25 13H2.75C2.875 13 3 12.9062 3 12.75V11.25C3 11.125 2.875 11 2.75 11ZM1.25 10H2.75C3.4375 10 4 10.5625 4 11.25V12.75C4 13.4688 3.4375 14 2.75 14H1.25C0.53125 14 0 13.4688 0 12.75V11.25C0 10.5625 0.53125 10 1.25 10ZM1.25 16C1.09375 16 1 16.125 1 16.25V17.75C1 17.9062 1.09375 18 1.25 18H2.75C2.875 18 3 17.9062 3 17.75V16.25C3 16.125 2.875 16 2.75 16H1.25ZM0 16.25C0 15.5625 0.53125 15 1.25 15H2.75C3.4375 15 4 15.5625 4 16.25V17.75C4 18.4688 3.4375 19 2.75 19H1.25C0.53125 19 0 18.4688 0 17.75V16.25ZM7.75 6H6.25C6.09375 6 6 6.125 6 6.25V7.75C6 7.90625 6.09375 8 6.25 8H7.75C7.875 8 8 7.90625 8 7.75V6.25C8 6.125 7.875 6 7.75 6ZM6.25 5H7.75C8.4375 5 9 5.5625 9 6.25V7.75C9 8.46875 8.4375 9 7.75 9H6.25C5.53125 9 5 8.46875 5 7.75V6.25C5 5.5625 5.53125 5 6.25 5ZM6.25 11C6.09375 11 6 11.125 6 11.25V12.75C6 12.9062 6.09375 13 6.25 13H7.75C7.875 13 8 12.9062 8 12.75V11.25C8 11.125 7.875 11 7.75 11H6.25ZM5 11.25C5 10.5625 5.53125 10 6.25 10H7.75C8.4375 10 9 10.5625 9 11.25V12.75C9 13.4688 8.4375 14 7.75 14H6.25C5.53125 14 5 13.4688 5 12.75V11.25ZM7.75 16H6.25C6.09375 16 6 16.125 6 16.25V17.75C6 17.9062 6.09375 18 6.25 18H7.75C7.875 18 8 17.9062 8 17.75V16.25C8 16.125 7.875 16 7.75 16ZM6.25 15H7.75C8.4375 15 9 15.5625 9 16.25V17.75C9 18.4688 8.4375 19 7.75 19H6.25C5.53125 19 5 18.4688 5 17.75V16.25C5 15.5625 5.53125 15 6.25 15ZM11.25 6C11.0938 6 11 6.125 11 6.25V7.75C11 7.90625 11.0938 8 11.25 8H12.75C12.875 8 13 7.90625 13 7.75V6.25C13 6.125 12.875 6 12.75 6H11.25ZM10 6.25C10 5.5625 10.5312 5 11.25 5H12.75C13.4375 5 14 5.5625 14 6.25V7.75C14 8.46875 13.4375 9 12.75 9H11.25C10.5312 9 10 8.46875 10 7.75V6.25ZM12.75 11H11.25C11.0938 11 11 11.125 11 11.25V12.75C11 12.9062 11.0938 13 11.25 13H12.75C12.875 13 13 12.9062 13 12.75V11.25C13 11.125 12.875 11 12.75 11ZM11.25 10H12.75C13.4375 10 14 10.5625 14 11.25V12.75C14 13.4688 13.4375 14 12.75 14H11.25C10.5312 14 10 13.4688 10 12.75V11.25C10 10.5625 10.5312 10 11.25 10ZM11.25 16C11.0938 16 11 16.125 11 16.25V17.75C11 17.9062 11.0938 18 11.25 18H12.75C12.875 18 13 17.9062 13 17.75V16.25C13 16.125 12.875 16 12.75 16H11.25ZM10 16.25C10 15.5625 10.5312 15 11.25 15H12.75C13.4375 15 14 15.5625 14 16.25V17.75C14 18.4688 13.4375 19 12.75 19H11.25C10.5312 19 10 18.4688 10 17.75V16.25Z" fill="black" fill-opacity="0.72"/>
</g>
<defs>
<clipPath id="clip0_2556_14964">
<rect width="14" height="24" fill="white"/>
</clipPath>
</defs>
</svg>
