<svg width="16" height="24" viewBox="0 0 16 24" fill="none" xmlns="http://www.w3.org/2000/svg">
<g id="label-paired / md / arrow-up-right-from-square-md / regular" clip-path="url(#clip0_2556_15163)">
<path id="icon" d="M10.5 4H15.5C15.75 4 16 4.25 16 4.5V9.5C16 9.78125 15.75 10 15.5 10C15.2188 10 15 9.78125 15 9.5V5.71875L7.34375 13.375C7.15625 13.5625 6.8125 13.5625 6.625 13.375C6.4375 13.1875 6.4375 12.8438 6.625 12.6562L14.2812 5H10.5C10.2188 5 10 4.78125 10 4.5C10 4.25 10.2188 4 10.5 4ZM2 5H6.5C6.75 5 7 5.25 7 5.5C7 5.78125 6.75 6 6.5 6H2C1.4375 6 1 6.46875 1 7V18C1 18.5625 1.4375 19 2 19H13C13.5312 19 14 18.5625 14 18V13.5C14 13.25 14.2188 13 14.5 13C14.75 13 15 13.25 15 13.5V18C15 19.125 14.0938 20 13 20H2C0.875 20 0 19.125 0 18V7C0 5.90625 0.875 5 2 5Z" fill="black" fill-opacity="0.72"/>
</g>
<defs>
<clipPath id="clip0_2556_15163">
<rect width="16" height="24" fill="white"/>
</clipPath>
</defs>
</svg>
