<svg width="24" height="36" viewBox="0 0 24 36" fill="none" xmlns="http://www.w3.org/2000/svg">
<g id="label-paired / xl / message-lines-xl / regular" clip-path="url(#clip0_2981_871)">
<path id="icon" d="M9 25.5V27.75L13.5938 24.3281C13.8281 24.1406 14.1562 24 14.4844 24H21C21.7969 24 22.5 23.3438 22.5 22.5V9C22.5 8.20312 21.7969 7.5 21 7.5H3C2.15625 7.5 1.5 8.20312 1.5 9V22.5C1.5 23.3438 2.15625 24 3 24H7.5C8.29688 24 9 24.7031 9 25.5ZM3 6H21C22.6406 6 24 7.35938 24 9V22.5C24 24.1875 22.6406 25.5 21 25.5H14.4844L8.67188 29.8594C8.4375 30.0469 8.15625 30.0469 7.875 29.9531C7.64062 29.8125 7.5 29.5781 7.5 29.25V27V25.5H6H3C1.3125 25.5 0 24.1875 0 22.5V9C0 7.35938 1.3125 6 3 6ZM6.75 12.75H17.25C17.625 12.75 18 13.125 18 13.5C18 13.9219 17.625 14.25 17.25 14.25H6.75C6.32812 14.25 6 13.9219 6 13.5C6 13.125 6.32812 12.75 6.75 12.75ZM6.75 17.25H12.75C13.125 17.25 13.5 17.625 13.5 18C13.5 18.4219 13.125 18.75 12.75 18.75H6.75C6.32812 18.75 6 18.4219 6 18C6 17.625 6.32812 17.25 6.75 17.25Z" fill="black" fill-opacity="0.72"/>
</g>
<defs>
<clipPath id="clip0_2981_871">
<rect width="24" height="36" fill="white"/>
</clipPath>
</defs>
</svg>
