<svg width="16" height="24" viewBox="0 0 16 24" fill="none" xmlns="http://www.w3.org/2000/svg">
<g id="label-paired / md / circle-two-md / bold" clip-path="url(#clip0_2556_15126)">
<path id="icon" d="M8 5.5C5.65625 5.5 3.53125 6.75 2.34375 8.75C1.1875 10.7812 1.1875 13.25 2.34375 15.25C3.53125 17.2812 5.65625 18.5 8 18.5C10.3125 18.5 12.4375 17.2812 13.625 15.25C14.7812 13.25 14.7812 10.7812 13.625 8.75C12.4375 6.75 10.3125 5.5 8 5.5ZM8 20C5.125 20 2.5 18.5 1.0625 16C-0.375 13.5312 -0.375 10.5 1.0625 8C2.5 5.53125 5.125 4 8 4C10.8438 4 13.4688 5.53125 14.9062 8C16.3438 10.5 16.3438 13.5312 14.9062 16C13.4688 18.5 10.8438 20 8 20ZM6.9375 9.78125L6.1875 10.3438C5.875 10.5938 5.40625 10.5312 5.15625 10.2188C4.875 9.875 4.96875 9.40625 5.28125 9.15625L6.03125 8.59375C6.53125 8.21875 7.125 8 7.75 8.03125H7.875C9.3125 8.0625 10.5 9.21875 10.5 10.6875C10.5 11.4062 10.1875 12.125 9.65625 12.625L7.625 14.5H10.25C10.6562 14.5 11 14.8438 11 15.25C11 15.6875 10.6562 16 10.25 16H5.75C5.4375 16 5.15625 15.8125 5.03125 15.5312C4.9375 15.25 5 14.9375 5.21875 14.7188L8.625 11.5312C8.84375 11.3125 9 11 9 10.6875C9 10.0625 8.46875 9.53125 7.84375 9.53125H7.75C7.4375 9.53125 7.15625 9.625 6.9375 9.78125Z" fill="black" fill-opacity="0.72"/>
</g>
<defs>
<clipPath id="clip0_2556_15126">
<rect width="16" height="24" fill="white"/>
</clipPath>
</defs>
</svg>
