<svg width="24" height="36" viewBox="0 0 24 36" fill="none" xmlns="http://www.w3.org/2000/svg">
<g id="label-paired / xl / thumbs-up-xl / regular" clip-path="url(#clip0_2355_605)">
<path id="icon" d="M13.5469 9.84375L13.3125 10.5938C12.7812 12.5312 11.6562 14.0625 9.9375 15.1875L9.79688 15.2812C9.42188 15.5 9.10938 15.7969 8.85938 16.1719C8.54688 16.5156 8.20312 16.5781 7.82812 16.3594C7.45312 16.0781 7.39062 15.7344 7.64062 15.3281C7.98438 14.7969 8.4375 14.3594 9 14.0156L9.14062 13.9219C10.5156 13.0156 11.4219 11.7812 11.8594 10.2188L12.0938 9.42188C12.3125 8.70312 12.7188 8.17188 13.3125 7.82812C13.9375 7.48438 14.6094 7.40625 15.3281 7.59375C16.0156 7.8125 16.5469 8.21875 16.9219 8.8125C17.2656 9.4375 17.3438 10.1094 17.1562 10.8281L16.9688 11.5781C16.7812 12.2344 16.5312 12.875 16.2188 13.5H21C21.8438 13.5312 22.5469 13.8281 23.1094 14.3906C23.6719 14.9531 23.9688 15.6562 24 16.5C23.9688 17.3438 23.6719 18.0469 23.1094 18.6094C23.2031 18.8906 23.25 19.1875 23.25 19.5C23.2188 20.4062 22.8906 21.1406 22.2656 21.7031C22.4219 22.0781 22.5 22.4688 22.5 22.875C22.4375 24.0312 21.9375 24.8906 21 25.4531V25.5C20.9688 26.3438 20.6719 27.0469 20.1094 27.6094C19.5469 28.1719 18.8438 28.4688 18 28.5H13.7812C12.75 28.5 11.7812 28.2031 10.875 27.6094L9.09375 26.4375C8.5 26.0312 8 25.5312 7.59375 24.9375C7.40625 24.5312 7.48438 24.1875 7.82812 23.9062C8.23438 23.6875 8.57812 23.75 8.85938 24.0938C9.14062 24.5312 9.5 24.8906 9.9375 25.1719L11.7188 26.3906C12.3438 26.7969 13.0469 27 13.8281 27H18C18.4375 27 18.7969 26.8594 19.0781 26.5781C19.3594 26.2969 19.5 25.9375 19.5 25.5C19.5 25.375 19.4844 25.2656 19.4531 25.1719C19.4219 24.7656 19.5938 24.4844 19.9688 24.3281C20.625 24.0781 20.9688 23.5938 21 22.875C21 22.5312 20.8906 22.2344 20.6719 21.9844C20.5469 21.7969 20.5 21.5781 20.5312 21.3281C20.5938 21.1094 20.7344 20.9531 20.9531 20.8594C21.4531 20.5781 21.7188 20.125 21.75 19.5C21.75 19.2188 21.6875 18.9688 21.5625 18.75C21.375 18.375 21.4531 18.0469 21.7969 17.7656C22.2344 17.4844 22.4688 17.0625 22.5 16.5C22.5 16.0625 22.3594 15.7031 22.0781 15.4219C21.7969 15.1406 21.4375 15 21 15H14.9531C14.6719 15 14.4531 14.875 14.2969 14.625C14.1719 14.375 14.1875 14.125 14.3438 13.875C14.8438 13.0312 15.2344 12.1406 15.5156 11.2031L15.7031 10.4062C15.8281 9.75 15.5625 9.29688 14.9062 9.04688C14.25 8.92188 13.7969 9.1875 13.5469 9.84375ZM1.5 16.5V27H4.5V16.5H1.5ZM0 16.5C0 16.0625 0.140625 15.7031 0.421875 15.4219C0.703125 15.1406 1.0625 15 1.5 15H4.5C4.9375 15 5.29688 15.1406 5.57812 15.4219C5.85938 15.7031 6 16.0625 6 16.5V27C6 27.4375 5.85938 27.7969 5.57812 28.0781C5.29688 28.3594 4.9375 28.5 4.5 28.5H1.5C1.0625 28.5 0.703125 28.3594 0.421875 28.0781C0.140625 27.7969 0 27.4375 0 27V16.5Z" fill="black" fill-opacity="0.72"/>
</g>
<defs>
<clipPath id="clip0_2355_605">
<rect width="24" height="36" fill="white"/>
</clipPath>
</defs>
</svg>
