<svg width="25" height="30" viewBox="0 0 25 30" fill="none" xmlns="http://www.w3.org/2000/svg">
<g id="label-paired / lg / bell-slash-lg / bold" clip-path="url(#clip0_2556_17184)">
<path id="icon" d="M1.48438 5.73438L7.26562 10.2266C8.16406 8.85938 9.57031 7.84375 11.25 7.53125V6.75C11.25 6.08594 11.7969 5.5 12.5 5.5C13.1641 5.5 13.75 6.08594 13.75 6.75V7.53125C16.6016 8.07812 18.75 10.6172 18.75 13.625V14.6406C18.75 16.3984 19.3359 18.1172 20.4297 19.5234L21.0156 20.2266C21.2109 20.5 21.2891 20.8516 21.1719 21.125L24.6094 23.8594C25.0391 24.1719 25.1172 24.7578 24.7656 25.1484C24.4531 25.5781 23.8672 25.6562 23.4766 25.3047L0.351562 7.17969C-0.078125 6.86719 -0.15625 6.28125 0.195312 5.89062C0.507812 5.46094 1.09375 5.38281 1.48438 5.73438ZM8.75 11.3984L17.5781 18.3125C17.1094 17.1797 16.875 15.9297 16.875 14.6406V13.625C16.875 11.2422 14.8828 9.25 12.5 9.25C10.8984 9.25 9.49219 10.1094 8.75 11.3984ZM15.8594 21.75H4.6875C4.29688 21.75 3.98438 21.5547 3.82812 21.2422C3.67188 20.9297 3.71094 20.5391 3.94531 20.2266L4.53125 19.5234C5.625 18.1172 6.25 16.3984 6.25 14.6406V14.2109L8.04688 15.6172C7.89062 17.1406 7.38281 18.625 6.5625 19.875H13.4766L15.8594 21.75ZM15 23C15 23.6641 14.7266 24.3281 14.2578 24.7969C13.7891 25.2656 13.1641 25.5 12.5 25.5C11.8359 25.5 11.1719 25.2656 10.7031 24.7969C10.2344 24.3281 10 23.6641 10 23H12.5H15Z" fill="black" fill-opacity="0.72"/>
</g>
<defs>
<clipPath id="clip0_2556_17184">
<rect width="25" height="30" fill="white"/>
</clipPath>
</defs>
</svg>
