<svg width="25" height="30" viewBox="0 0 25 30" fill="none" xmlns="http://www.w3.org/2000/svg">
<g id="label-paired / lg / link-lg / regular" clip-path="url(#clip0_4460_540)">
<path id="icon" d="M23.0859 15.5L18.2031 20.3828C16.25 22.3359 13.0859 22.3359 11.1719 20.3828C9.29688 18.5078 9.17969 15.5391 10.8984 13.5859L11.1328 13.3516C11.3281 13.0781 11.7578 13.0391 11.9922 13.2734C12.2656 13.5078 12.3047 13.8984 12.0703 14.1719L11.875 14.4062C10.5859 15.8906 10.6641 18.1172 12.0312 19.4844C13.5156 20.9688 15.8594 20.9688 17.3438 19.4844L22.1875 14.6406C23.6719 13.1562 23.6719 10.8125 22.1875 9.32812C20.7422 7.88281 18.3594 7.88281 16.9141 9.32812L16.0156 10.2266C15.7812 10.4609 15.3906 10.4609 15.1172 10.2266C14.8828 9.95312 14.8828 9.5625 15.1172 9.32812L16.0156 8.42969C17.9688 6.47656 21.1328 6.47656 23.0859 8.42969C25.0391 10.3828 25.0391 13.5469 23.0859 15.5ZM1.875 15.5L6.75781 10.6562C8.71094 8.70312 11.8359 8.70312 13.8281 10.6562C15.6641 12.4922 15.7812 15.4609 14.0625 17.4531L13.8281 17.6875C13.6328 17.9609 13.2422 18 12.9688 17.7656C12.6953 17.5312 12.6562 17.1406 12.8906 16.8672L13.125 16.6328C14.375 15.1484 14.2969 12.9219 12.9297 11.5547C11.4453 10.0703 9.10156 10.0703 7.61719 11.5547L2.77344 16.3984C1.28906 17.8828 1.28906 20.2266 2.77344 21.7109C4.21875 23.1562 6.60156 23.1562 8.04688 21.7109L8.94531 20.8125C9.17969 20.5781 9.57031 20.5781 9.84375 20.8125C10.0781 21.0469 10.0781 21.4766 9.84375 21.7109L8.94531 22.5703C6.99219 24.5234 3.82812 24.5234 1.875 22.5703C-0.078125 20.6172 -0.078125 17.4531 1.875 15.5Z" fill="black" fill-opacity="0.72"/>
</g>
<defs>
<clipPath id="clip0_4460_540">
<rect width="25" height="30" fill="white"/>
</clipPath>
</defs>
</svg>
