<svg width="14" height="22" viewBox="0 0 14 22" fill="none" xmlns="http://www.w3.org/2000/svg">
<g id="label-paired / sm / options-sm / regular" clip-path="url(#clip0_5129_558)">
<path id="icon" d="M1.99609 17.6133C1.14844 17.6133 0.464844 16.9297 0.464844 16.082V12.1719C0.464844 11.6523 0.875 11.2148 1.39453 11.2148H2.10547C2.65234 11.2148 3.08984 11.6523 3.08984 12.1719V13.2109L3.91016 12.3906C4.40234 11.8984 5.03125 11.625 5.71484 11.625H7.62891C8.14844 11.625 8.58594 12.0625 8.58594 12.582V13.1836C8.58594 13.7305 8.14844 14.1406 7.62891 14.1406H6.15234C5.87891 14.1406 5.57812 14.25 5.38672 14.4688L4.86719 14.9883H5.90625C6.42578 14.9883 6.86328 15.4258 6.86328 15.9453V16.6562C6.86328 17.2031 6.42578 17.6133 5.90625 17.6133H1.99609ZM1.39453 11.9531C1.28516 11.9531 1.17578 12.0625 1.17578 12.1719V16.082C1.17578 16.5195 1.55859 16.9023 1.99609 16.9023H5.87891C6.01562 16.9023 6.125 16.793 6.125 16.6562V15.9453C6.125 15.8359 6.01562 15.7266 5.87891 15.7266H4.56641C4.32031 15.7266 4.10156 15.5625 3.99219 15.3438C3.91016 15.125 3.96484 14.8516 4.12891 14.6875L4.83984 13.9492C5.19531 13.6211 5.66016 13.4297 6.15234 13.4297H7.60156C7.73828 13.4297 7.82031 13.3203 7.82031 13.2109V12.6094C7.82031 12.4727 7.73828 12.3906 7.60156 12.3906H5.6875C5.22266 12.3906 4.75781 12.582 4.40234 12.9102L3.39062 13.9492C3.19922 14.1133 2.92578 14.168 2.70703 14.0586C2.46094 13.9766 2.32422 13.7578 2.32422 13.5117V12.1719C2.32422 12.0625 2.21484 11.9531 2.10547 11.9531H1.39453ZM12.6328 10.8594H11.9219C11.4023 10.8594 10.9648 10.4219 10.9648 9.875V8.83594L10.1445 9.68359C9.65234 10.1484 9.02344 10.4219 8.33984 10.4219H6.42578C5.90625 10.4219 5.46875 10.0117 5.46875 9.46484V8.86328C5.46875 8.34375 5.90625 7.90625 6.42578 7.90625H7.90234C8.17578 7.90625 8.44922 7.79688 8.66797 7.60547L9.1875 7.05859H8.14844C7.62891 7.05859 7.19141 6.64844 7.19141 6.10156V5.39062C7.19141 4.87109 7.62891 4.43359 8.14844 4.43359H12.0312C12.8789 4.43359 13.5898 5.14453 13.5898 5.99219V9.875C13.5898 10.4219 13.1523 10.832 12.6328 10.832V10.8594ZM11.1016 7.96094C11.1836 7.96094 11.2656 7.96094 11.3203 7.98828C11.5664 8.09766 11.7031 8.31641 11.7031 8.5625V9.90234C11.7031 10.0117 11.8125 10.1211 11.9492 10.1211H12.6602C12.7695 10.1211 12.8789 10.0117 12.8789 9.90234V5.99219C12.8789 5.55469 12.5234 5.17188 12.0586 5.17188H8.17578C8.03906 5.17188 7.95703 5.28125 7.95703 5.39062V6.10156C7.95703 6.23828 8.03906 6.34766 8.17578 6.34766H9.48828C9.73438 6.34766 9.95312 6.48438 10.0625 6.73047C10.1445 6.94922 10.1172 7.22266 9.92578 7.38672L9.21484 8.09766C8.85938 8.45312 8.42188 8.64453 7.92969 8.64453H6.45312C6.31641 8.64453 6.23438 8.72656 6.23438 8.86328V9.46484C6.23438 9.60156 6.34375 9.68359 6.45312 9.68359H8.36719C8.85938 9.68359 9.29688 9.49219 9.65234 9.16406L10.6914 8.125C10.8008 8.01562 10.9375 7.96094 11.1016 7.96094Z" fill="black" fill-opacity="0.72"/>
</g>
<defs>
<clipPath id="clip0_5129_558">
<rect width="14" height="22" fill="white"/>
</clipPath>
</defs>
</svg>
