<svg width="12" height="18" viewBox="0 0 12 18" fill="none" xmlns="http://www.w3.org/2000/svg">
<g id="label-paired / caption / circle-ellipsis-caption / fill" clip-path="url(#clip0_2556_10462)">
<path id="icon" d="M6 15.5C3.84375 15.5 1.875 14.375 0.796875 12.5C-0.28125 10.6484 -0.28125 8.375 0.796875 6.5C1.875 4.64844 3.84375 3.5 6 3.5C8.13281 3.5 10.1016 4.64844 11.1797 6.5C12.2578 8.375 12.2578 10.6484 11.1797 12.5C10.1016 14.375 8.13281 15.5 6 15.5ZM3.75 8.75C3.32812 8.75 3 9.10156 3 9.5C3 9.92188 3.32812 10.25 3.75 10.25C4.14844 10.25 4.5 9.92188 4.5 9.5C4.5 9.10156 4.14844 8.75 3.75 8.75ZM5.25 9.5C5.25 9.92188 5.57812 10.25 6 10.25C6.39844 10.25 6.75 9.92188 6.75 9.5C6.75 9.10156 6.39844 8.75 6 8.75C5.57812 8.75 5.25 9.10156 5.25 9.5ZM8.25 8.75C7.82812 8.75 7.5 9.10156 7.5 9.5C7.5 9.92188 7.82812 10.25 8.25 10.25C8.64844 10.25 9 9.92188 9 9.5C9 9.10156 8.64844 8.75 8.25 8.75Z" fill="black" fill-opacity="0.72"/>
</g>
<defs>
<clipPath id="clip0_2556_10462">
<rect width="12" height="18" fill="white"/>
</clipPath>
</defs>
</svg>
