<svg width="24" height="36" viewBox="0 0 24 36" fill="none" xmlns="http://www.w3.org/2000/svg">
<g id="label-paired / xl / fingerprint-xl / regular" clip-path="url(#clip0_2512_1112)">
<path id="icon" d="M1.5 18V20.25C1.46875 20.7188 1.21875 20.9688 0.75 21C0.28125 20.9688 0.03125 20.7188 0 20.25V18C0.03125 15.75 0.578125 13.7344 1.64062 11.9531C2.70312 10.1406 4.14062 8.70312 5.95312 7.64062C7.73438 6.57812 9.75 6.03125 12 6C13.9062 6.03125 15.6562 6.4375 17.25 7.21875C18.8438 8 20.2031 9.07812 21.3281 10.4531C21.5781 10.8281 21.5469 11.1719 21.2344 11.4844C20.8281 11.7656 20.4688 11.7344 20.1562 11.3906C19.1875 10.2031 18 9.26562 16.5938 8.57812C15.1875 7.85938 13.6562 7.5 12 7.5C10.0312 7.53125 8.26562 8.01562 6.70312 8.95312C5.10938 9.85938 3.85938 11.1094 2.95312 12.7031C2.01562 14.2656 1.53125 16.0312 1.5 18ZM23.5781 14.8125C23.8594 15.8125 24 16.875 24 18V20.25C23.9688 20.6875 23.7188 20.9375 23.25 21C22.7812 20.9375 22.5312 20.6875 22.5 20.25V18C22.5 17.0312 22.375 16.0938 22.125 15.1875C22.0312 14.75 22.2031 14.4531 22.6406 14.2969C23.1094 14.2031 23.4219 14.375 23.5781 14.8125ZM12 9.75C14.3438 9.8125 16.2812 10.625 17.8125 12.1875C19.375 13.7188 20.1875 15.6562 20.25 18V19.1719C20.25 20.5781 20.1562 21.9688 19.9688 23.3438C19.875 23.75 19.6406 23.9688 19.2656 24C18.7344 23.9375 18.4844 23.6406 18.5156 23.1094C18.6719 21.7969 18.75 20.4844 18.75 19.1719V18C18.6875 16.0938 18.0312 14.5 16.7812 13.2188C15.5 11.9375 13.9062 11.2812 12 11.25C11.1562 11.25 10.375 11.3906 9.65625 11.6719C9.28125 11.7969 8.96875 11.7188 8.71875 11.4375C8.40625 10.9688 8.48438 10.5938 8.95312 10.3125C9.92188 9.9375 10.9375 9.75 12 9.75ZM6.79688 12.6562C7.04688 13 7.04688 13.3594 6.79688 13.7344C5.79688 14.9219 5.28125 16.3438 5.25 18V19.1719C5.25 20.6406 5.07812 22.0781 4.73438 23.4844C4.60938 23.7969 4.375 23.9688 4.03125 24C3.46875 23.9062 3.21875 23.5781 3.28125 23.0156C3.59375 21.7656 3.75 20.4844 3.75 19.1719V18C3.78125 15.9062 4.4375 14.125 5.71875 12.6562C6.09375 12.3125 6.45312 12.3125 6.79688 12.6562ZM12 13.5C13.2812 13.5312 14.3438 13.9688 15.1875 14.8125C16.0312 15.6562 16.4688 16.7188 16.5 18V19.1719C16.5 21.1094 16.2969 23.0312 15.8906 24.9375C15.7969 25.2812 15.5625 25.4688 15.1875 25.5C14.6562 25.4375 14.4062 25.125 14.4375 24.5625C14.8125 22.7812 15 20.9844 15 19.1719V18C14.9688 17.1562 14.6719 16.4531 14.1094 15.8906C13.5469 15.3281 12.8438 15.0312 12 15C11.1562 15.0312 10.4531 15.3281 9.89062 15.8906C9.32812 16.4531 9.03125 17.1562 9 18V19.1719C9 21.1406 8.73438 23.0781 8.20312 24.9844C8.07812 25.2969 7.84375 25.4688 7.5 25.5C7.21875 25.5 7.01562 25.3906 6.89062 25.1719C6.73438 24.9844 6.6875 24.7656 6.75 24.5156C7.25 22.7656 7.5 20.9844 7.5 19.1719V18C7.53125 16.7188 7.96875 15.6562 8.8125 14.8125C9.65625 13.9688 10.7188 13.5312 12 13.5ZM12.75 18V19.1719C12.75 22.2344 12.2031 25.2031 11.1094 28.0781L10.8281 28.7812C10.6094 29.1875 10.2812 29.3281 9.84375 29.2031C9.4375 28.9844 9.29688 28.6562 9.42188 28.2188L9.70312 27.5156C10.7344 24.8281 11.25 22.0469 11.25 19.1719V18C11.2812 17.5312 11.5312 17.2812 12 17.25C12.4688 17.2812 12.7188 17.5312 12.75 18Z" fill="black" fill-opacity="0.72"/>
</g>
<defs>
<clipPath id="clip0_2512_1112">
<rect width="24" height="36" fill="white"/>
</clipPath>
</defs>
</svg>
