<svg width="21" height="30" viewBox="0 0 21 30" fill="none" xmlns="http://www.w3.org/2000/svg">
<g id="label-paired / lg / paper-plane-top-lg / bold" clip-path="url(#clip0_2738_4398)">
<path id="icon" d="M5.69531 14.5625H15.4609L3.03906 9.25L5.69531 14.5625ZM5.69531 16.4375L3.03906 21.7891L15.4609 16.4375H5.69531ZM2.21875 6.86719L19.7188 14.3672C20.1875 14.5625 20.5 15.0312 20.5 15.5391C20.5 16.0078 20.1875 16.4766 19.7188 16.6719L2.21875 24.1719C1.75 24.3672 1.16406 24.25 0.8125 23.8594C0.460938 23.5078 0.382812 22.9219 0.617188 22.4531L4.09375 15.5L0.617188 8.58594C0.382812 8.11719 0.460938 7.53125 0.8125 7.14062C1.16406 6.78906 1.75 6.67188 2.21875 6.86719Z" fill="black" fill-opacity="0.72"/>
</g>
<defs>
<clipPath id="clip0_2738_4398">
<rect width="21" height="30" fill="white"/>
</clipPath>
</defs>
</svg>
