<svg width="16" height="22" viewBox="0 0 16 22" fill="none" xmlns="http://www.w3.org/2000/svg">
<g id="label-paired / sm / eye-sm / regular" clip-path="url(#clip0_2556_12900)">
<path id="icon" d="M3.32422 7.46875C2.14844 8.5625 1.35547 9.875 1 10.75C1.35547 11.625 2.14844 12.9375 3.32422 14.0312C4.5 15.125 6.05859 16 8 16C9.91406 16 11.4727 15.125 12.6484 14.0312C13.8242 12.9375 14.6172 11.625 15 10.75C14.6172 9.875 13.8242 8.5625 12.6484 7.46875C11.4727 6.375 9.91406 5.5 8 5.5C6.05859 5.5 4.5 6.375 3.32422 7.46875ZM8 4.625C10.1875 4.625 11.9648 5.63672 13.25 6.83984C14.5352 8.01562 15.3828 9.4375 15.793 10.4219C15.875 10.6406 15.875 10.8867 15.793 11.1055C15.3828 12.0625 14.5352 13.4844 13.25 14.6875C11.9648 15.8906 10.1875 16.875 8 16.875C5.78516 16.875 4.00781 15.8906 2.72266 14.6875C1.4375 13.4844 0.589844 12.0625 0.179688 11.1055C0.0976562 10.8867 0.0976562 10.6406 0.179688 10.4219C0.589844 9.4375 1.4375 8.01562 2.72266 6.83984C4.00781 5.63672 5.78516 4.625 8 4.625ZM5.375 10.75C5.375 11.707 5.86719 12.5547 6.6875 13.0469C7.48047 13.5117 8.49219 13.5117 9.3125 13.0469C10.1055 12.5547 10.625 11.707 10.625 10.75C10.625 9.82031 10.1055 8.97266 9.3125 8.48047C8.49219 8.01562 7.48047 8.01562 6.6875 8.48047C5.86719 8.97266 5.375 9.82031 5.375 10.75ZM11.5 10.75C11.5 12.0078 10.8164 13.1562 9.75 13.7852C8.65625 14.4141 7.31641 14.4141 6.25 13.7852C5.15625 13.1562 4.5 12.0078 4.5 10.75C4.5 9.51953 5.15625 8.37109 6.25 7.74219C7.31641 7.11328 8.65625 7.11328 9.75 7.74219C10.8164 8.37109 11.5 9.51953 11.5 10.75Z" fill="black" fill-opacity="0.72"/>
</g>
<defs>
<clipPath id="clip0_2556_12900">
<rect width="16" height="22" fill="white"/>
</clipPath>
</defs>
</svg>
