<svg width="16" height="24" viewBox="0 0 16 24" fill="none" xmlns="http://www.w3.org/2000/svg">
<g id="label-paired / md / app-store-md" clip-path="url(#clip0_2556_14549)">
<path id="icon" d="M7.96875 7.78125L7.71875 7.3125C7.53125 7 7.125 6.90625 6.84375 7.0625C6.53125 7.25 6.4375 7.625 6.59375 7.9375L7.25 9.0625L5.15625 12.6875H3.53125C3.1875 12.6875 2.90625 12.9688 2.90625 13.3125C2.90625 13.6562 3.1875 13.9375 3.53125 13.9375H9.34375C9.625 13.4375 9.25 12.6875 8.625 12.6875H6.625L9.375 7.9375C9.5625 7.625 9.4375 7.25 9.125 7.0625C8.84375 6.90625 8.4375 7 8.28125 7.3125L7.96875 7.78125ZM5.53125 14.5938C5.1875 14.2188 4.78125 14.0938 4.25 14.25L3.8125 15.0312C3.625 15.3438 3.71875 15.7188 4.03125 15.9062C4.34375 16.0625 4.75 15.9688 4.90625 15.6562L5.53125 14.5938ZM10.8125 12.6875C9.96875 11.2188 9.34375 10.1562 8.9375 9.4375C8.53125 9.75 8.15625 10.6562 8.6875 11.5938C9.21875 12.5 10 13.8438 11.0625 15.6562C11.2188 15.9688 11.625 16.0625 11.9375 15.9062C12.2188 15.7188 12.3438 15.3438 12.1562 15.0312L11.5312 13.9375H12.4688C12.8125 13.9375 13.0938 13.6562 13.0938 13.3125C13.0938 12.9688 12.8125 12.6875 12.4688 12.6875H10.8125ZM8 4.25C12.2812 4.25 15.75 7.71875 15.75 12C15.75 16.2812 12.2812 19.75 8 19.75C3.71875 19.75 0.25 16.2812 0.25 12C0.25 7.71875 3.71875 4.25 8 4.25ZM14.75 12C14.75 8.28125 11.6875 5.25 8 5.25C4.25 5.25 1.25 8.3125 1.25 12C1.25 15.75 4.28125 18.75 8 18.75C11.7188 18.75 14.75 15.7188 14.75 12Z" fill="black" fill-opacity="0.72"/>
</g>
<defs>
<clipPath id="clip0_2556_14549">
<rect width="16" height="24" fill="white"/>
</clipPath>
</defs>
</svg>
