<svg width="11" height="22" viewBox="0 0 11 22" fill="none" xmlns="http://www.w3.org/2000/svg">
<g id="label-paired / sm / file-check-sm / fill" clip-path="url(#clip0_2556_12243)">
<path id="icon" d="M2 3.75H6.375V7.25C6.375 7.74219 6.75781 8.125 7.25 8.125H10.75V16C10.75 16.9844 9.95703 17.75 9 17.75H2C1.01562 17.75 0.25 16.9844 0.25 16V5.5C0.25 4.54297 1.01562 3.75 2 3.75ZM7.25 3.75L10.75 7.25H7.25V3.75ZM8.58984 11.4336H8.5625C8.83594 11.1875 8.83594 10.7773 8.5625 10.5039C8.31641 10.2578 7.90625 10.2578 7.66016 10.5039L4.59766 13.5664L3.3125 12.2812C3.06641 12.0078 2.65625 12.0078 2.41016 12.2812C2.13672 12.5273 2.13672 12.9375 2.41016 13.1836L4.16016 14.9336C4.40625 15.207 4.81641 15.207 5.08984 14.9336L8.58984 11.4336Z" fill="black" fill-opacity="0.72"/>
</g>
<defs>
<clipPath id="clip0_2556_12243">
<rect width="11" height="22" fill="white"/>
</clipPath>
</defs>
</svg>
