<svg width="9" height="22" viewBox="0 0 9 22" fill="none" xmlns="http://www.w3.org/2000/svg">
<g id="label-paired / sm / two-sm / bold" clip-path="url(#clip0_2556_12529)">
<path id="icon" d="M4.14453 5.9375C3.40625 5.9375 2.72266 6.23828 2.20312 6.75781L1.24609 7.71484C0.972656 7.98828 0.5625 7.98828 0.316406 7.71484C0.0429688 7.46875 0.0429688 7.05859 0.316406 6.8125L1.27344 5.82812C2.03906 5.0625 3.07812 4.625 4.14453 4.625H4.33594C6.46875 4.625 8.21875 6.375 8.21875 8.50781C8.21875 9.57422 7.75391 10.5859 6.98828 11.3242L2.42188 15.5625H8.21875C8.57422 15.5625 8.875 15.8633 8.875 16.2188C8.875 16.6016 8.57422 16.875 8.21875 16.875H0.78125C0.507812 16.875 0.261719 16.7109 0.152344 16.4648C0.0703125 16.2188 0.125 15.9453 0.316406 15.7539L6.08594 10.3672C6.60547 9.875 6.90625 9.19141 6.90625 8.50781C6.90625 7.08594 5.75781 5.9375 4.33594 5.9375H4.14453Z" fill="black" fill-opacity="0.72"/>
</g>
<defs>
<clipPath id="clip0_2556_12529">
<rect width="9" height="22" fill="white"/>
</clipPath>
</defs>
</svg>
