<svg width="20" height="30" viewBox="0 0 20 30" fill="none" xmlns="http://www.w3.org/2000/svg">
<g id="label-paired / lg / circle-question-lg / regular" clip-path="url(#clip0_3578_731)">
<path id="icon" d="M18.75 15.5C18.75 12.375 17.0703 9.52344 14.375 7.96094C11.6406 6.35938 8.32031 6.35938 5.625 7.96094C2.89062 9.52344 1.25 12.375 1.25 15.5C1.25 18.6641 2.89062 21.5156 5.625 23.0781C8.32031 24.6797 11.6406 24.6797 14.375 23.0781C17.0703 21.5156 18.75 18.6641 18.75 15.5ZM0 15.5C0 11.9453 1.875 8.66406 5 6.86719C8.08594 5.07031 11.875 5.07031 15 6.86719C18.0859 8.66406 20 11.9453 20 15.5C20 19.0938 18.0859 22.375 15 24.1719C11.875 25.9688 8.08594 25.9688 5 24.1719C1.875 22.375 0 19.0938 0 15.5ZM6.5625 12.1406C6.83594 11.2031 7.69531 10.5 8.67188 10.5H10.9375C12.3047 10.5 13.4375 11.6328 13.4375 13.0391C13.4375 13.9766 12.8906 14.8359 12.0703 15.2656L10.625 16.0078V16.75C10.625 17.1016 10.3125 17.375 10 17.375C9.64844 17.375 9.375 17.1016 9.375 16.75V15.6172C9.375 15.3828 9.49219 15.1484 9.6875 15.0703L11.4844 14.1328C11.9141 13.9375 12.1875 13.5078 12.1875 13.0391C12.1875 12.3359 11.6016 11.75 10.9375 11.75H8.67188C8.28125 11.75 7.89062 12.0625 7.77344 12.4531V12.4922C7.69531 12.8047 7.34375 13.0391 7.03125 12.9219C6.67969 12.8438 6.48438 12.4922 6.5625 12.1797V12.1406ZM9.0625 19.25C9.0625 18.7422 9.45312 18.3125 10 18.3125C10.5078 18.3125 10.9375 18.7422 10.9375 19.25C10.9375 19.7969 10.5078 20.1875 10 20.1875C9.45312 20.1875 9.0625 19.7969 9.0625 19.25Z" fill="black" fill-opacity="0.72"/>
</g>
<defs>
<clipPath id="clip0_3578_731">
<rect width="20" height="30" fill="white"/>
</clipPath>
</defs>
</svg>
