<svg width="30" height="36" viewBox="0 0 30 36" fill="none" xmlns="http://www.w3.org/2000/svg">
<g id="label-paired / xl / chart-ohlc-xl / fill" clip-path="url(#clip0_2556_19582)">
<path id="icon" d="M15 6C15.7969 6 16.5 6.70312 16.5 7.5V9H18C18.7969 9 19.5 9.70312 19.5 10.5C19.5 11.3438 18.7969 12 18 12H16.5V25.5C16.5 26.3438 15.7969 27 15 27C14.1562 27 13.5 26.3438 13.5 25.5V24H12C11.1562 24 10.5 23.3438 10.5 22.5C10.5 21.7031 11.1562 21 12 21H13.5V7.5C13.5 6.70312 14.1562 6 15 6ZM5.25 15C6.04688 15 6.75 15.7031 6.75 16.5V24H8.25C9.04688 24 9.75 24.7031 9.75 25.5C9.75 26.3438 9.04688 27 8.25 27H6.75V28.5C6.75 29.3438 6.04688 30 5.25 30C4.40625 30 3.75 29.3438 3.75 28.5V21H2.25C1.40625 21 0.75 20.3438 0.75 19.5C0.75 18.7031 1.40625 18 2.25 18H3.75V16.5C3.75 15.7031 4.40625 15 5.25 15ZM24.75 9C25.5469 9 26.25 9.70312 26.25 10.5V18H27.75C28.5469 18 29.25 18.7031 29.25 19.5C29.25 20.3438 28.5469 21 27.75 21H26.25V22.5C26.25 23.3438 25.5469 24 24.75 24C23.9062 24 23.25 23.3438 23.25 22.5V15H21.75C20.9062 15 20.25 14.3438 20.25 13.5C20.25 12.7031 20.9062 12 21.75 12H23.25V10.5C23.25 9.70312 23.9062 9 24.75 9Z" fill="black" fill-opacity="0.72"/>
</g>
<defs>
<clipPath id="clip0_2556_19582">
<rect width="30" height="36" fill="white"/>
</clipPath>
</defs>
</svg>
