<svg width="14" height="22" viewBox="0 0 14 22" fill="none" xmlns="http://www.w3.org/2000/svg">
<g id="label-paired / sm / phone-sm / fill" clip-path="url(#clip0_2556_12830)">
<path id="icon" d="M4.48438 4.43359L5.57812 7.05859C5.76953 7.49609 5.66016 8.01562 5.27734 8.31641L3.9375 9.4375C4.83984 11.3516 6.39844 12.9102 8.3125 13.8125L9.43359 12.4727C9.73438 12.0898 10.2539 11.9805 10.6914 12.1719L13.3164 13.2656C13.8359 13.457 14.082 14.0312 13.9453 14.5508L13.2891 16.957C13.1523 17.4219 12.7422 17.75 12.25 17.75C5.46875 17.75 0 12.2812 0 5.5C0 5.00781 0.328125 4.59766 0.792969 4.46094L3.19922 3.80469C3.71875 3.66797 4.29297 3.91406 4.48438 4.43359Z" fill="black" fill-opacity="0.72"/>
</g>
<defs>
<clipPath id="clip0_2556_12830">
<rect width="14" height="22" fill="white"/>
</clipPath>
</defs>
</svg>
