<svg width="9" height="18" viewBox="0 0 9 18" fill="none" xmlns="http://www.w3.org/2000/svg">
<g id="label-paired / caption / file-caption / bold" clip-path="url(#clip0_2365_812)">
<path id="icon" d="M7.5 14.375C7.73438 14.3594 7.85938 14.2344 7.875 14V7.25H6C5.78125 7.25 5.60156 7.17969 5.46094 7.03906C5.32031 6.89844 5.25 6.71875 5.25 6.5V4.625H1.5C1.26562 4.64062 1.14062 4.76562 1.125 5V14C1.14062 14.2344 1.26562 14.3594 1.5 14.375H7.5ZM0 5C0.015625 4.57812 0.164062 4.22656 0.445312 3.94531C0.726562 3.66406 1.07812 3.51563 1.5 3.5H5.39062C5.79688 3.5 6.14844 3.64844 6.44531 3.94531L8.55469 6.05469C8.85156 6.35156 9 6.71094 9 7.13281V14C8.98438 14.4219 8.83594 14.7734 8.55469 15.0547C8.27344 15.3359 7.92188 15.4844 7.5 15.5H1.5C1.07812 15.4844 0.726562 15.3359 0.445312 15.0547C0.164062 14.7734 0.015625 14.4219 0 14V5Z" fill="black" fill-opacity="0.72"/>
</g>
<defs>
<clipPath id="clip0_2365_812">
<rect width="9" height="18" fill="white"/>
</clipPath>
</defs>
</svg>
