<svg width="30" height="36" viewBox="0 0 30 36" fill="none" xmlns="http://www.w3.org/2000/svg">
<g id="label-paired / xl / wallet-signal-xl / regular" clip-path="url(#clip0_2556_19300)">
<path id="icon" d="M0 11.25C0 9.1875 1.64062 7.5 3.75 7.5H21.75C22.125 7.5 22.5 7.875 22.5 8.25C22.5 8.67188 22.125 9 21.75 9H3.75C2.48438 9 1.5 10.0312 1.5 11.25V24.75C1.5 26.0156 2.48438 27 3.75 27H16.5V28.5H3.75C1.64062 28.5 0 26.8594 0 24.75V11.25ZM4.5 11.25C4.5 10.875 4.82812 10.5 5.25 10.5H20.25C22.3125 10.5 24 12.1875 24 14.25V17.5312C23.4844 17.2969 23.0156 17.1562 22.5 16.9688V14.2969C22.5 13.0312 21.4688 12.0469 20.25 12.0469H5.25C4.82812 12.0469 4.5 11.6719 4.5 11.2969V11.25ZM18 18.75C18 18.375 18.3281 18 18.75 18C24.9375 18 30 23.0625 30 29.25C30 29.6719 29.625 30 29.25 30C28.8281 30 28.5 29.6719 28.5 29.25C28.5 23.9062 24.0938 19.5 18.75 19.5C18.3281 19.5 18 19.1719 18 18.75ZM18 23.25C18 22.875 18.3281 22.5 18.75 22.5C22.4531 22.5 25.5 25.5469 25.5 29.25C25.5 29.6719 25.125 30 24.75 30C24.3281 30 24 29.6719 24 29.25C24 26.3906 21.6094 24 18.75 24C18.3281 24 18 23.6719 18 23.25ZM18 28.5C18 27.7031 18.6562 27 19.5 27C20.2969 27 21 27.7031 21 28.5C21 29.3438 20.2969 30 19.5 30C18.6562 30 18 29.3438 18 28.5Z" fill="black" fill-opacity="0.72"/>
</g>
<defs>
<clipPath id="clip0_2556_19300">
<rect width="30" height="36" fill="white"/>
</clipPath>
</defs>
</svg>
