<svg width="16" height="24" viewBox="0 0 16 24" fill="none" xmlns="http://www.w3.org/2000/svg">
<g id="label-paired / md / circle-arrow-down-left-md / bold" clip-path="url(#clip0_2556_15221)">
<path id="icon" d="M8 5.5C5.65625 5.5 3.53125 6.75 2.34375 8.75C1.1875 10.7812 1.1875 13.25 2.34375 15.25C3.53125 17.2812 5.65625 18.5 8 18.5C10.3125 18.5 12.4375 17.2812 13.625 15.25C14.7812 13.25 14.7812 10.7812 13.625 8.75C12.4375 6.75 10.3125 5.5 8 5.5ZM8 20C5.125 20 2.5 18.5 1.0625 16C-0.375 13.5312 -0.375 10.5 1.0625 8C2.5 5.53125 5.125 4 8 4C10.8438 4 13.4688 5.53125 14.9062 8C16.3438 10.5 16.3438 13.5312 14.9062 16C13.4688 18.5 10.8438 20 8 20ZM10 15.5H5.25C4.8125 15.5 4.5 15.1875 4.5 14.75V9.75C4.5 9.34375 4.8125 9 5.25 9C5.65625 9 6 9.34375 6 9.75V12.9688L10.2188 8.71875C10.5 8.4375 10.9688 8.4375 11.25 8.71875C11.5625 9.03125 11.5625 9.5 11.25 9.78125L7.03125 14H10C10.4062 14 10.75 14.3438 10.75 14.75C10.75 15.1875 10.4062 15.5 10 15.5Z" fill="black" fill-opacity="0.72"/>
</g>
<defs>
<clipPath id="clip0_2556_15221">
<rect width="16" height="24" fill="white"/>
</clipPath>
</defs>
</svg>
