<svg width="18" height="22" viewBox="0 0 18 22" fill="none" xmlns="http://www.w3.org/2000/svg">
<g id="label-paired / sm / bell-slash-sm / regular" clip-path="url(#clip0_2556_12389)">
<path id="icon" d="M10.5859 14.25V14.2773L11.707 15.1523H4.07812C3.39453 15.1523 2.84766 14.6055 2.84766 13.9219C2.84766 13.6211 2.98438 13.293 3.20312 13.0742L3.28516 12.9922C4.13281 12.1445 4.625 10.9961 4.625 9.82031V9.54688L5.47266 10.2031C5.36328 11.4883 4.81641 12.6914 3.91406 13.6211L3.83203 13.6758C3.77734 13.7578 3.75 13.8398 3.75 13.9219C3.75 14.1133 3.88672 14.25 4.07812 14.25H10.5859ZM8.5625 4.65234V4.1875C8.5625 3.96875 8.75391 3.75 9 3.75C9.21875 3.75 9.4375 3.96875 9.4375 4.1875V4.65234C11.625 4.87109 13.375 6.73047 13.375 9V9.82031C13.375 10.9961 13.8398 12.1445 14.6875 12.9922L14.7695 13.0742C14.7695 13.1016 14.7969 13.1016 14.8242 13.1289L12.7734 11.5156C12.582 10.9688 12.5 10.3945 12.5 9.82031V9C12.5 7.08594 10.9141 5.5 9 5.5C8.01562 5.5 7.11328 5.91016 6.48438 6.56641L5.80078 6.01953C6.51172 5.25391 7.46875 4.76172 8.5625 4.65234ZM8.15234 16.3008C8.28906 16.6562 8.61719 16.875 9 16.875C9.35547 16.875 9.68359 16.6562 9.82031 16.3008C9.90234 16.082 10.1484 15.9453 10.3672 16.0273C10.6133 16.1094 10.7227 16.3555 10.6406 16.6016C10.3945 17.2852 9.73828 17.75 9 17.75C8.23438 17.75 7.57812 17.2852 7.33203 16.6016C7.25 16.3555 7.38672 16.1094 7.60547 16.0273C7.82422 15.9453 8.07031 16.082 8.15234 16.3008ZM0.933594 3.85938L17.5859 16.9844C17.75 17.1211 17.8047 17.4219 17.6406 17.5859C17.5039 17.7773 17.2305 17.832 17.0391 17.668L0.414062 4.54297C0.222656 4.40625 0.167969 4.10547 0.332031 3.94141C0.46875 3.75 0.769531 3.69531 0.933594 3.85938Z" fill="black" fill-opacity="0.72"/>
</g>
<defs>
<clipPath id="clip0_2556_12389">
<rect width="18" height="22" fill="white"/>
</clipPath>
</defs>
</svg>
