<svg width="27" height="36" viewBox="0 0 27 36" fill="none" xmlns="http://www.w3.org/2000/svg">
<g id="label-paired / xl / star-xl / bold" clip-path="url(#clip0_2556_19548)">
<path id="icon" d="M13.4531 6C13.9219 6 14.2969 6.28125 14.4844 6.65625L17.7188 13.2656L24.8906 14.3438C25.3125 14.3906 25.6406 14.6719 25.7812 15.0938C25.9219 15.5156 25.8281 15.9375 25.5 16.2656L20.2969 21.4219L21.5156 28.6875C21.6094 29.1094 21.4219 29.5781 21.0938 29.8125C20.7188 30.0469 20.25 30.0938 19.875 29.9062L13.4531 26.4375L7.07812 29.9062C6.65625 30.0938 6.23438 30.0469 5.85938 29.8125C5.53125 29.5312 5.34375 29.1094 5.4375 28.6875L6.65625 21.4219L1.45312 16.2656C1.125 15.9375 1.03125 15.5156 1.17188 15.0938C1.3125 14.7188 1.64062 14.3906 2.0625 14.3438L9.23438 13.2656L12.4688 6.65625C12.6562 6.28125 13.0312 6 13.4531 6ZM13.4531 9.70312L11.0156 14.8125C10.8281 15.1406 10.5469 15.375 10.1719 15.4219L4.64062 16.2188L8.625 20.2031C8.90625 20.4844 9.04688 20.8594 8.95312 21.1875L8.01562 26.8125L12.9375 24.1875C13.2656 24 13.6875 24 14.0156 24.1875L18.9375 26.8125L18 21.2344C17.9062 20.8594 18.0469 20.4844 18.3281 20.25L22.3125 16.2188L16.7812 15.4219C16.4062 15.375 16.125 15.1406 15.9375 14.8125L13.4531 9.70312Z" fill="black" fill-opacity="0.72"/>
</g>
<defs>
<clipPath id="clip0_2556_19548">
<rect width="27" height="36" fill="white"/>
</clipPath>
</defs>
</svg>
