<svg width="30" height="36" viewBox="0 0 30 36" fill="none" xmlns="http://www.w3.org/2000/svg">
<g id="label-paired / xl / link-xl / fill" clip-path="url(#clip0_4460_551)">
<path id="icon" d="M27.1406 18.5625L21.8906 23.8125C19.2656 26.4844 14.9531 26.4844 12.3281 23.8125C9.98438 21.4688 9.65625 17.8125 11.5781 15.0938L11.625 15.0469C12.1406 14.3438 13.0781 14.2031 13.7344 14.6719C14.3906 15.1406 14.5781 16.0781 14.0625 16.7812L14.0156 16.8281C12.9375 18.3281 13.125 20.3906 14.4375 21.7031C15.8906 23.2031 18.2812 23.2031 19.7812 21.7031L25.0312 16.4531C26.5312 14.9531 26.5312 12.5625 25.0312 11.1094C23.7188 9.79688 21.6562 9.60938 20.1562 10.6875L20.1094 10.7344C19.4062 11.25 18.4688 11.0625 18 10.4062C17.5312 9.75 17.6719 8.8125 18.3281 8.29688L18.4219 8.25C21.1406 6.32812 24.7969 6.65625 27.1406 9C29.8125 11.625 29.8125 15.9375 27.1406 18.5625ZM2.8125 17.4844L8.0625 12.1875C10.7344 9.5625 15 9.5625 17.6719 12.1875C20.0156 14.5312 20.2969 18.2344 18.375 20.9531L18.3281 21C17.8594 21.7031 16.875 21.8438 16.2188 21.375C15.5625 20.9062 15.375 19.9688 15.8906 19.2656L15.9375 19.2188C17.0156 17.6719 16.8281 15.6562 15.5156 14.3438C14.0625 12.8438 11.6719 12.8438 10.1719 14.3438L4.92188 19.5938C3.46875 21.0469 3.46875 23.4375 4.92188 24.9375C6.23438 26.25 8.29688 26.4375 9.79688 25.3594L9.84375 25.3125C10.5469 24.7969 11.4844 24.9844 11.9531 25.6406C12.4219 26.2969 12.2812 27.2344 11.625 27.75L11.5312 27.7969C8.85938 29.7188 5.15625 29.3906 2.8125 27.0469C0.140625 24.4219 0.140625 20.1094 2.8125 17.4844Z" fill="black" fill-opacity="0.72"/>
</g>
<defs>
<clipPath id="clip0_4460_551">
<rect width="30" height="36" fill="white"/>
</clipPath>
</defs>
</svg>
