<svg width="14" height="22" viewBox="0 0 14 22" fill="none" xmlns="http://www.w3.org/2000/svg">
<g id="label-paired / sm / circle-plus-sm / fill" clip-path="url(#clip0_2556_12905)">
<path id="icon" d="M7 17.75C4.48438 17.75 2.1875 16.4375 0.929688 14.25C-0.328125 12.0898 -0.328125 9.4375 0.929688 7.25C2.1875 5.08984 4.48438 3.75 7 3.75C9.48828 3.75 11.7852 5.08984 13.043 7.25C14.3008 9.4375 14.3008 12.0898 13.043 14.25C11.7852 16.4375 9.48828 17.75 7 17.75ZM6.34375 13.1562C6.34375 13.5391 6.61719 13.8125 7 13.8125C7.35547 13.8125 7.65625 13.5391 7.65625 13.1562V11.4062H9.40625C9.76172 11.4062 10.0625 11.1328 10.0625 10.75C10.0625 10.3945 9.76172 10.0938 9.40625 10.0938H7.65625V8.34375C7.65625 7.98828 7.35547 7.6875 7 7.6875C6.61719 7.6875 6.34375 7.98828 6.34375 8.34375V10.0938H4.59375C4.21094 10.0938 3.9375 10.3945 3.9375 10.75C3.9375 11.1328 4.21094 11.4062 4.59375 11.4062H6.34375V13.1562Z" fill="black" fill-opacity="0.72"/>
</g>
<defs>
<clipPath id="clip0_2556_12905">
<rect width="14" height="22" fill="white"/>
</clipPath>
</defs>
</svg>
