<svg width="14" height="22" viewBox="0 0 14 22" fill="none" xmlns="http://www.w3.org/2000/svg">
<g id="label-paired / sm / circle-dot-sm / regular" clip-path="url(#clip0_2556_12967)">
<path id="icon" d="M13.125 10.75C13.125 8.5625 11.9492 6.56641 10.0625 5.47266C8.14844 4.35156 5.82422 4.35156 3.9375 5.47266C2.02344 6.56641 0.875 8.5625 0.875 10.75C0.875 12.9648 2.02344 14.9609 3.9375 16.0547C5.82422 17.1758 8.14844 17.1758 10.0625 16.0547C11.9492 14.9609 13.125 12.9648 13.125 10.75ZM0 10.75C0 8.26172 1.3125 5.96484 3.5 4.70703C5.66016 3.44922 8.3125 3.44922 10.5 4.70703C12.6602 5.96484 14 8.26172 14 10.75C14 13.2656 12.6602 15.5625 10.5 16.8203C8.3125 18.0781 5.66016 18.0781 3.5 16.8203C1.3125 15.5625 0 13.2656 0 10.75ZM8.75 10.75C8.75 10.1484 8.39453 9.57422 7.875 9.24609C7.32812 8.94531 6.64453 8.94531 6.125 9.24609C5.57812 9.57422 5.25 10.1484 5.25 10.75C5.25 11.3789 5.57812 11.9531 6.125 12.2812C6.64453 12.582 7.32812 12.582 7.875 12.2812C8.39453 11.9531 8.75 11.3789 8.75 10.75ZM4.375 10.75C4.375 9.82031 4.86719 8.97266 5.6875 8.48047C6.48047 8.01562 7.49219 8.01562 8.3125 8.48047C9.10547 8.97266 9.625 9.82031 9.625 10.75C9.625 11.707 9.10547 12.5547 8.3125 13.0469C7.49219 13.5117 6.48047 13.5117 5.6875 13.0469C4.86719 12.5547 4.375 11.707 4.375 10.75Z" fill="black" fill-opacity="0.72"/>
</g>
<defs>
<clipPath id="clip0_2556_12967">
<rect width="14" height="22" fill="white"/>
</clipPath>
</defs>
</svg>
