<svg width="13" height="22" viewBox="0 0 13 22" fill="none" xmlns="http://www.w3.org/2000/svg">
<g id="label-paired / sm / arrow-down-to-bracket-sm / bold" clip-path="url(#clip0_2556_12953)">
<path id="icon" d="M10.4648 9.68359L6.96484 13.1836C6.69141 13.457 6.28125 13.457 6.03516 13.1836L2.53516 9.68359C2.26172 9.4375 2.26172 9.02734 2.53516 8.78125C2.78125 8.50781 3.19141 8.50781 3.4375 8.78125L5.81641 11.1602V4.40625C5.81641 4.05078 6.11719 3.75 6.47266 3.75C6.85547 3.75 7.12891 4.05078 7.12891 4.40625V11.1602L9.50781 8.78125C9.78125 8.50781 10.1914 8.50781 10.4375 8.78125C10.7109 9.02734 10.7109 9.4375 10.4375 9.68359H10.4648ZM1.6875 13.1562V15.3438C1.6875 15.9727 2.15234 16.4375 2.78125 16.4375H10.2188C10.8203 16.4375 11.3125 15.9727 11.3125 15.3438V13.1562C11.3125 12.8008 11.5859 12.5 11.9688 12.5C12.3242 12.5 12.625 12.8008 12.625 13.1562V15.3438C12.625 16.6836 11.5312 17.75 10.2188 17.75H2.78125C1.44141 17.75 0.375 16.6836 0.375 15.3438V13.1562C0.375 12.8008 0.648438 12.5 1.03125 12.5C1.38672 12.5 1.6875 12.8008 1.6875 13.1562Z" fill="black" fill-opacity="0.72"/>
</g>
<defs>
<clipPath id="clip0_2556_12953">
<rect width="13" height="22" fill="white"/>
</clipPath>
</defs>
</svg>
