<svg width="25" height="30" viewBox="0 0 25 30" fill="none" xmlns="http://www.w3.org/2000/svg">
<g id="label-paired / lg / chart-ohlc-lg / fill" clip-path="url(#clip0_2556_17204)">
<path id="icon" d="M12.5 5.5C13.1641 5.5 13.75 6.08594 13.75 6.75V8H15C15.6641 8 16.25 8.58594 16.25 9.25C16.25 9.95312 15.6641 10.5 15 10.5H13.75V21.75C13.75 22.4531 13.1641 23 12.5 23C11.7969 23 11.25 22.4531 11.25 21.75V20.5H10C9.29688 20.5 8.75 19.9531 8.75 19.25C8.75 18.5859 9.29688 18 10 18H11.25V6.75C11.25 6.08594 11.7969 5.5 12.5 5.5ZM4.375 13C5.03906 13 5.625 13.5859 5.625 14.25V20.5H6.875C7.53906 20.5 8.125 21.0859 8.125 21.75C8.125 22.4531 7.53906 23 6.875 23H5.625V24.25C5.625 24.9531 5.03906 25.5 4.375 25.5C3.67188 25.5 3.125 24.9531 3.125 24.25V18H1.875C1.17188 18 0.625 17.4531 0.625 16.75C0.625 16.0859 1.17188 15.5 1.875 15.5H3.125V14.25C3.125 13.5859 3.67188 13 4.375 13ZM20.625 8C21.2891 8 21.875 8.58594 21.875 9.25V15.5H23.125C23.7891 15.5 24.375 16.0859 24.375 16.75C24.375 17.4531 23.7891 18 23.125 18H21.875V19.25C21.875 19.9531 21.2891 20.5 20.625 20.5C19.9219 20.5 19.375 19.9531 19.375 19.25V13H18.125C17.4219 13 16.875 12.4531 16.875 11.75C16.875 11.0859 17.4219 10.5 18.125 10.5H19.375V9.25C19.375 8.58594 19.9219 8 20.625 8Z" fill="black" fill-opacity="0.72"/>
</g>
<defs>
<clipPath id="clip0_2556_17204">
<rect width="25" height="30" fill="white"/>
</clipPath>
</defs>
</svg>
