<svg width="30" height="36" viewBox="0 0 30 36" fill="none" xmlns="http://www.w3.org/2000/svg">
<g id="label-paired / xl / hand-gesture-swipe-left-right-xl / fill" clip-path="url(#clip0_3546_643)">
<path id="icon" d="M15 10.8281C15.6562 10.8281 16.1719 11.3438 16.1719 12V16.3594C16.4062 16.125 16.7344 15.9844 17.1094 15.9844C17.8594 15.9844 18.4688 16.5469 18.5156 17.2969C18.75 17.0625 19.0781 16.9219 19.4531 16.9219C20.2031 16.9219 20.8125 17.4844 20.8594 18.2344C21.0938 18 21.4219 17.8594 21.7969 17.8594C22.5469 17.8594 23.2031 18.5156 23.2031 19.2656V22.0781C23.2031 24.1406 21.5156 25.8281 19.4531 25.8281H15.9844C14.9062 25.8281 13.8281 25.4531 12.9844 24.75L12.8438 24.6094C11.9531 23.9062 11.4844 22.8281 11.4844 21.7031V20.625C11.4844 20.0625 11.7188 19.5469 12.1875 19.1719L12.75 18.7031C12.7969 18.6562 12.8438 18.6094 12.9375 18.6094V20.2031C12.9375 20.4844 13.125 20.6719 13.4062 20.6719C13.6406 20.6719 13.875 20.4844 13.875 20.2031V12C13.875 11.3438 14.3438 10.8281 15.0469 10.8281H15ZM22.7812 15.4688L25.3125 12.9375C25.5938 12.6562 25.5938 12.2344 25.3125 12L22.6406 9.28125C22.3594 9.04688 21.9375 9.04688 21.6562 9.28125C21.4219 9.5625 21.4219 9.98438 21.6562 10.2656L23.2031 11.7656H18.6562C18.2812 11.7656 18 12.0938 18 12.4688C18 12.8438 18.2812 13.125 18.6562 13.125H23.2031L21.8438 14.4844C21.5625 14.7656 21.5625 15.1875 21.8438 15.4688C22.125 15.7031 22.5469 15.7031 22.7812 15.4688ZM7.17188 15.4688L4.6875 12.9375C4.40625 12.6562 4.40625 12.2344 4.6875 12L7.35938 9.28125C7.64062 9.04688 8.0625 9.04688 8.29688 9.28125C8.57812 9.5625 8.57812 9.98438 8.29688 10.2656L6.79688 11.7656H11.3438C11.7188 11.7656 12 12.0938 12 12.4688C12 12.8438 11.7188 13.125 11.3438 13.125H6.79688L8.15625 14.4844C8.39062 14.7656 8.39062 15.1875 8.15625 15.4688C7.875 15.7031 7.45312 15.7031 7.17188 15.4688Z" fill="black" fill-opacity="0.72"/>
</g>
<defs>
<clipPath id="clip0_3546_643">
<rect width="30" height="36" fill="white"/>
</clipPath>
</defs>
</svg>
