<svg width="14" height="24" viewBox="0 0 14 24" fill="none" xmlns="http://www.w3.org/2000/svg">
<g id="label-paired / md / bars-filter-md / fill" clip-path="url(#clip0_2556_14828)">
<path id="icon" d="M0 7C0 6.46875 0.4375 6 1 6H13C13.5312 6 14 6.46875 14 7C14 7.5625 13.5312 8 13 8H1C0.4375 8 0 7.5625 0 7ZM2 12C2 11.4688 2.4375 11 3 11H11C11.5312 11 12 11.4688 12 12C12 12.5625 11.5312 13 11 13H3C2.4375 13 2 12.5625 2 12ZM9 17C9 17.5625 8.53125 18 8 18H6C5.4375 18 5 17.5625 5 17C5 16.4688 5.4375 16 6 16H8C8.53125 16 9 16.4688 9 17Z" fill="black" fill-opacity="0.72"/>
</g>
<defs>
<clipPath id="clip0_2556_14828">
<rect width="14" height="24" fill="white"/>
</clipPath>
</defs>
</svg>
