<svg width="18" height="24" viewBox="0 0 18 24" fill="none" xmlns="http://www.w3.org/2000/svg">
<g id="label-paired / md / share-from-square-md / bold" clip-path="url(#clip0_3997_649)">
<path id="icon" d="M12.5 12L15.8125 9L12.5 6.03125V6.5V7.5C12.5 7.78125 12.25 8 12 8H11H10.5H9C7.0625 8 5.5 9.59375 5.5 11.5C5.5 11.875 5.53125 12.2188 5.65625 12.5C6.09375 11.0625 7.4375 10 9.03125 10H10.5H11H12C12.25 10 12.5 10.25 12.5 10.5V11.5V12ZM10.5 11.5H9.5H9.03125C7.90625 11.5 7 12.4375 7 13.5625C7 13.8438 7.03125 14.0625 7.125 14.25C7.1875 14.3438 7.21875 14.4375 7.28125 14.5312C7.3125 14.5625 7.34375 14.5938 7.34375 14.625C7.375 14.6562 7.40625 14.6562 7.4375 14.6875C7.5 14.75 7.53125 14.7812 7.59375 14.8125C7.59375 14.8438 7.625 14.8438 7.625 14.8438C7.8125 15 8 15.2188 8 15.4688C8 15.75 7.75 16 7.4375 16H7.34375C7.28125 16 7.1875 16 7.125 15.9688C7.0625 15.9375 6.96875 15.9062 6.875 15.8438C6.78125 15.7812 6.65625 15.7188 6.5 15.6562C6.34375 15.5312 6.15625 15.4375 5.96875 15.2812C5.0625 14.625 4 13.4062 4 11.5C4 8.75 6.21875 6.5 9 6.5H9.5H10.5H11V5.09375C11 4.5 11.4688 4 12.0625 4C12.3438 4 12.5938 4.125 12.7812 4.28125L17.125 8.1875C17.3438 8.40625 17.5 8.6875 17.5 9C17.5 9.34375 17.3438 9.625 17.125 9.84375L12.7812 13.75C12.5938 13.9375 12.3438 14 12.0938 14H12C11.4375 14 11 13.5625 11 13V11.5H10.5ZM2.25 5H4.25C4.65625 5 5 5.34375 5 5.75C5 6.1875 4.65625 6.5 4.25 6.5H2.25C1.8125 6.5 1.5 6.84375 1.5 7.25V17.75C1.5 18.1875 1.8125 18.5 2.25 18.5H12.75C13.1562 18.5 13.5 18.1875 13.5 17.75V15.75C13.5 15.3438 13.8125 15 14.25 15C14.6562 15 15 15.3438 15 15.75V17.75C15 19 13.9688 20 12.75 20H2.25C1 20 0 19 0 17.75V7.25C0 6.03125 1 5 2.25 5Z" fill="black" fill-opacity="0.72"/>
</g>
<defs>
<clipPath id="clip0_3997_649">
<rect width="18" height="24" fill="white"/>
</clipPath>
</defs>
</svg>
