<svg width="16" height="24" viewBox="0 0 16 24" fill="none" xmlns="http://www.w3.org/2000/svg">
<g id="label-paired / md / chart-mixed-md / regular" clip-path="url(#clip0_2556_14786)">
<path id="icon" d="M15.8438 5.1875C16.0312 5.375 16.0312 5.6875 15.8125 5.875L10.3125 10.875C10.125 11.0625 9.8125 11.0625 9.625 10.875L5.9375 7.15625L0.78125 10.9062C0.5625 11.0938 0.25 11.0312 0.09375 10.8125C-0.09375 10.5938 -0.03125 10.2812 0.1875 10.0938L5.6875 6.09375C5.875 5.96875 6.15625 6 6.34375 6.15625L10 9.8125L15.1562 5.15625C15.3438 4.96875 15.6562 4.96875 15.8438 5.1875ZM2.5 17.5V15.5C2.5 15.25 2.25 15 2 15C1.71875 15 1.5 15.25 1.5 15.5V17.5C1.5 17.7812 1.71875 18 2 18C2.25 18 2.5 17.7812 2.5 17.5ZM2 14C2.8125 14 3.5 14.6875 3.5 15.5V17.5C3.5 18.3438 2.8125 19 2 19C1.15625 19 0.5 18.3438 0.5 17.5V15.5C0.5 14.6875 1.15625 14 2 14ZM6.5 12.5C6.5 12.25 6.25 12 6 12C5.71875 12 5.5 12.25 5.5 12.5V17.5C5.5 17.7812 5.71875 18 6 18C6.25 18 6.5 17.7812 6.5 17.5V12.5ZM4.5 12.5C4.5 11.6875 5.15625 11 6 11C6.8125 11 7.5 11.6875 7.5 12.5V17.5C7.5 18.3438 6.8125 19 6 19C5.15625 19 4.5 18.3438 4.5 17.5V12.5ZM10.5 17.5V14.5C10.5 14.25 10.25 14 10 14C9.71875 14 9.5 14.25 9.5 14.5V17.5C9.5 17.7812 9.71875 18 10 18C10.25 18 10.5 17.7812 10.5 17.5ZM10 13C10.8125 13 11.5 13.6875 11.5 14.5V17.5C11.5 18.3438 10.8125 19 10 19C9.15625 19 8.5 18.3438 8.5 17.5V14.5C8.5 13.6875 9.15625 13 10 13ZM14.5 12.5C14.5 12.25 14.25 12 14 12C13.7188 12 13.5 12.25 13.5 12.5V17.5C13.5 17.7812 13.7188 18 14 18C14.25 18 14.5 17.7812 14.5 17.5V12.5ZM12.5 12.5C12.5 11.6875 13.1562 11 14 11C14.8125 11 15.5 11.6875 15.5 12.5V17.5C15.5 18.3438 14.8125 19 14 19C13.1562 19 12.5 18.3438 12.5 17.5V12.5Z" fill="black" fill-opacity="0.72"/>
</g>
<defs>
<clipPath id="clip0_2556_14786">
<rect width="16" height="24" fill="white"/>
</clipPath>
</defs>
</svg>
