<svg width="9" height="18" viewBox="0 0 9 18" fill="none" xmlns="http://www.w3.org/2000/svg">
<g id="label-paired / caption / percent-caption / bold" clip-path="url(#clip0_2556_10330)">
<path id="icon" d="M8.64844 6.14844L1.125 13.6484C0.914062 13.8828 0.5625 13.8828 0.351562 13.6484C0.117188 13.4375 0.117188 13.0859 0.351562 12.8516L7.85156 5.375C8.0625 5.14062 8.41406 5.14062 8.64844 5.375C8.85938 5.58594 8.85938 5.9375 8.64844 6.14844ZM2.625 6.5C2.625 6.92188 2.39062 7.27344 2.0625 7.48438C1.71094 7.69531 1.26562 7.69531 0.9375 7.48438C0.585938 7.27344 0.375 6.92188 0.375 6.5C0.375 6.10156 0.585938 5.75 0.9375 5.53906C1.26562 5.32812 1.71094 5.32812 2.0625 5.53906C2.39062 5.75 2.625 6.10156 2.625 6.5ZM8.625 12.5C8.625 12.9219 8.39062 13.2734 8.0625 13.4844C7.71094 13.6953 7.26562 13.6953 6.9375 13.4844C6.58594 13.2734 6.375 12.9219 6.375 12.5C6.375 12.1016 6.58594 11.75 6.9375 11.5391C7.26562 11.3281 7.71094 11.3281 8.0625 11.5391C8.39062 11.75 8.625 12.1016 8.625 12.5Z" fill="black" fill-opacity="0.72"/>
</g>
<defs>
<clipPath id="clip0_2556_10330">
<rect width="9" height="18" fill="white"/>
</clipPath>
</defs>
</svg>
