<svg width="18" height="22" viewBox="0 0 18 22" fill="none" xmlns="http://www.w3.org/2000/svg">
<g id="label-paired / sm / wifi-sm / regular" clip-path="url(#clip0_2556_12560)">
<path id="icon" d="M0.988281 8.80859C0.796875 8.97266 0.523438 8.97266 0.359375 8.80859C0.195312 8.61719 0.195312 8.34375 0.359375 8.17969C2.57422 5.99219 5.63672 4.625 9 4.625C12.3359 4.625 15.3984 5.99219 17.6133 8.17969C17.7773 8.34375 17.7773 8.61719 17.6133 8.80859C17.4492 8.97266 17.1758 8.97266 16.9844 8.80859C14.9336 6.75781 12.1172 5.5 9 5.5C5.85547 5.5 3.03906 6.75781 0.988281 8.80859ZM9 9.875C7.05859 9.875 5.30859 10.668 4.05078 11.9258C3.88672 12.0898 3.61328 12.0898 3.42188 11.9258C3.25781 11.7617 3.25781 11.4883 3.42188 11.3242C4.84375 9.90234 6.8125 9.02734 9 9.02734C11.1602 9.02734 13.1289 9.90234 14.5508 11.3242C14.7148 11.4883 14.7148 11.7617 14.5508 11.9258C14.3867 12.0898 14.1133 12.0898 13.9219 11.9258C12.6641 10.668 10.9141 9.875 9 9.875ZM9 14.25C8.50781 14.25 8.125 14.6602 8.125 15.125C8.125 15.6172 8.50781 16 9 16C9.46484 16 9.875 15.6172 9.875 15.125C9.875 14.6602 9.46484 14.25 9 14.25ZM9 16.875C8.37109 16.875 7.79688 16.5469 7.46875 16C7.16797 15.4805 7.16797 14.7969 7.46875 14.25C7.79688 13.7305 8.37109 13.375 9 13.375C9.60156 13.375 10.1758 13.7305 10.5039 14.25C10.8047 14.7969 10.8047 15.4805 10.5039 16C10.1758 16.5469 9.60156 16.875 9 16.875Z" fill="black" fill-opacity="0.72"/>
</g>
<defs>
<clipPath id="clip0_2556_12560">
<rect width="18" height="22" fill="white"/>
</clipPath>
</defs>
</svg>
