<svg width="12" height="18" viewBox="0 0 12 18" fill="none" xmlns="http://www.w3.org/2000/svg">
<g id="label-paired / caption / phone-caption / fill" clip-path="url(#clip0_2556_10139)">
<path id="icon" d="M3.84375 4.08594L4.78125 6.33594C4.94531 6.71094 4.85156 7.15625 4.52344 7.41406L3.375 8.375C4.14844 10.0156 5.48438 11.3516 7.125 12.125L8.08594 10.9766C8.34375 10.6484 8.78906 10.5547 9.16406 10.7188L11.4141 11.6562C11.8594 11.8203 12.0703 12.3125 11.9531 12.7578L11.3906 14.8203C11.2734 15.2188 10.9219 15.5 10.5 15.5C4.6875 15.5 0 10.8125 0 5C0 4.57812 0.28125 4.22656 0.679688 4.10938L2.74219 3.54688C3.1875 3.42969 3.67969 3.64062 3.84375 4.08594Z" fill="black" fill-opacity="0.72"/>
</g>
<defs>
<clipPath id="clip0_2556_10139">
<rect width="12" height="18" fill="white"/>
</clipPath>
</defs>
</svg>
