<svg width="27" height="36" viewBox="0 0 27 36" fill="none" xmlns="http://www.w3.org/2000/svg">
<g id="label-paired / xl / house-user-xl / regular" clip-path="url(#clip0_4670_661)">
<path id="icon" d="M12.9844 6.1875C13.2656 5.95312 13.6875 5.95312 13.9688 6.1875L26.7188 17.4375C27.0469 17.7188 27.0469 18.1875 26.8125 18.5156C26.5312 18.8438 26.0625 18.8438 25.7344 18.5625L24 17.0156V26.25C24 28.3594 22.3125 30 20.25 30H6.75C4.64062 30 3 28.3594 3 26.25V17.0156L1.21875 18.5625C0.9375 18.8438 0.421875 18.8438 0.1875 18.5156C-0.09375 18.1875 -0.09375 17.7188 0.234375 17.4375L12.9844 6.1875ZM4.5 15.7031V26.25C4.5 27.5156 5.48438 28.5 6.75 28.5H20.25C21.4688 28.5 22.5 27.5156 22.5 26.25V15.7031L13.5 7.78125L4.5 15.7031ZM13.5 18C14.2969 18 15 17.3438 15 16.5C15 15.7031 14.2969 15 13.5 15C12.6562 15 12 15.7031 12 16.5C12 17.3438 12.6562 18 13.5 18ZM13.5 13.5C14.5312 13.5 15.5156 14.1094 16.0781 15C16.5938 15.9375 16.5938 17.1094 16.0781 18C15.5156 18.9375 14.5312 19.5 13.5 19.5C12.4219 19.5 11.4375 18.9375 10.875 18C10.3594 17.1094 10.3594 15.9375 10.875 15C11.4375 14.1094 12.4219 13.5 13.5 13.5ZM9.75 24.375V24.75C9.75 25.1719 9.375 25.5 9 25.5C8.57812 25.5 8.25 25.1719 8.25 24.75V24.375C8.25 22.5469 9.75 21 11.625 21H15.375C17.2031 21 18.75 22.5469 18.75 24.375V24.75C18.75 25.1719 18.375 25.5 18 25.5C17.5781 25.5 17.25 25.1719 17.25 24.75V24.375C17.25 23.3438 16.4062 22.5 15.375 22.5H11.625C10.5469 22.5 9.75 23.3438 9.75 24.375Z" fill="black" fill-opacity="0.72"/>
</g>
<defs>
<clipPath id="clip0_4670_661">
<rect width="27" height="36" fill="white"/>
</clipPath>
</defs>
</svg>
