<svg width="16" height="24" viewBox="0 0 16 24" fill="none" xmlns="http://www.w3.org/2000/svg">
<g id="label-paired / md / loader-md / regular" clip-path="url(#clip0_2981_905)">
<path id="icon" d="M8.5 4.5V7.5C8.5 7.78125 8.25 8 8 8C7.71875 8 7.5 7.78125 7.5 7.5V4.5C7.5 4.25 7.71875 4 8 4C8.25 4 8.5 4.25 8.5 4.5ZM8.5 16.5V19.5C8.5 19.7812 8.25 20 8 20C7.71875 20 7.5 19.7812 7.5 19.5V16.5C7.5 16.25 7.71875 16 8 16C8.25 16 8.5 16.25 8.5 16.5ZM0 12C0 11.75 0.21875 11.5 0.5 11.5H3.5C3.75 11.5 4 11.75 4 12C4 12.2812 3.75 12.5 3.5 12.5H0.5C0.21875 12.5 0 12.2812 0 12ZM12.5 11.5H15.5C15.75 11.5 16 11.75 16 12C16 12.2812 15.75 12.5 15.5 12.5H12.5C12.2188 12.5 12 12.2812 12 12C12 11.75 12.2188 11.5 12.5 11.5ZM13.6562 6.34375C13.8438 6.5625 13.8438 6.875 13.6562 7.0625L11.5312 9.1875C11.3125 9.375 11 9.375 10.8125 9.1875C10.625 9 10.625 8.6875 10.8125 8.46875L12.9375 6.34375C13.125 6.15625 13.4375 6.15625 13.6562 6.34375ZM5.15625 15.5625L3.03125 17.6562C2.84375 17.875 2.53125 17.875 2.34375 17.6562C2.125 17.4688 2.125 17.1562 2.34375 16.9688L4.4375 14.8438C4.65625 14.6562 4.96875 14.6562 5.15625 14.8438C5.34375 15.0312 5.34375 15.3438 5.15625 15.5625ZM2.34375 6.34375C2.53125 6.15625 2.84375 6.15625 3.03125 6.34375L5.15625 8.46875C5.34375 8.6875 5.34375 9 5.15625 9.1875C4.96875 9.375 4.65625 9.375 4.4375 9.1875L2.34375 7.0625C2.125 6.875 2.125 6.5625 2.34375 6.34375ZM11.5312 14.8438L13.6562 16.9688C13.8438 17.1562 13.8438 17.4688 13.6562 17.6562C13.4375 17.875 13.125 17.875 12.9375 17.6562L10.8125 15.5625C10.625 15.3438 10.625 15.0312 10.8125 14.8438C11 14.6562 11.3125 14.6562 11.5312 14.8438Z" fill="black" fill-opacity="0.72"/>
</g>
<defs>
<clipPath id="clip0_2981_905">
<rect width="16" height="24" fill="white"/>
</clipPath>
</defs>
</svg>
