<svg width="12" height="24" viewBox="0 0 12 24" fill="none" xmlns="http://www.w3.org/2000/svg">
<g id="label-paired / md / moon-md / bold" clip-path="url(#clip0_2556_14985)">
<path id="icon" d="M4.5 7.09375C2.71875 8 1.5 9.875 1.5 12C1.5 15.0625 3.9375 17.5 6.96875 17.5C7.375 17.5 7.78125 17.4688 8.1875 17.375C5.4375 16.4375 3.46875 13.8125 3.46875 10.75C3.46875 9.40625 3.84375 8.15625 4.5 7.09375ZM6.4375 5.03125C6.53125 5.03125 6.59375 5.03125 6.65625 5.03125C6.78125 5.03125 6.875 5.03125 6.96875 5.03125C7.0625 5.03125 7.15625 5.03125 7.21875 5.03125C7.34375 5.03125 7.4375 5.03125 7.5625 5.03125C7.78125 5.0625 7.96875 5.21875 8 5.4375C8.0625 5.65625 7.96875 5.875 7.78125 5.96875C7.65625 6.03125 7.5625 6.09375 7.46875 6.15625C7.34375 6.25 7.21875 6.34375 7.09375 6.4375C7.03125 6.46875 7 6.5 6.96875 6.53125C5.75 7.53125 4.96875 9.0625 4.96875 10.7812C4.96875 13.8125 7.4375 16.25 10.4375 16.2812C10.4688 16.2812 10.4688 16.2812 10.4688 16.2812C10.5 16.2812 10.5312 16.2812 10.5625 16.2812C10.75 16.25 10.9062 16.25 11.0625 16.25C11.1562 16.2188 11.2812 16.2188 11.4062 16.1875C11.625 16.1562 11.8438 16.25 11.9375 16.4375C12.0312 16.6562 12 16.875 11.8438 17.0312C11.75 17.125 11.6875 17.1875 11.5938 17.25C11.4375 17.375 11.3125 17.5 11.1562 17.625C11.0938 17.6562 11.0312 17.7188 10.9688 17.75C9.84375 18.5312 8.46875 19 6.96875 19C3.125 19 0 15.875 0 12C0 8.3125 2.84375 5.3125 6.4375 5.03125Z" fill="black" fill-opacity="0.72"/>
</g>
<defs>
<clipPath id="clip0_2556_14985">
<rect width="12" height="24" fill="white"/>
</clipPath>
</defs>
</svg>
