<svg width="15" height="36" viewBox="0 0 15 36" fill="none" xmlns="http://www.w3.org/2000/svg">
<g id="label-paired / xl / eight-xl / regular" clip-path="url(#clip0_2556_19704)">
<path id="icon" d="M14.25 13.125C14.25 15.0938 13.2656 16.7812 11.7656 17.8125C13.6406 18.7031 15 20.625 15 22.875C15 26.0156 12.4688 28.5 9.375 28.5H5.625C2.48438 28.5 0 26.0156 0 22.875C0 20.625 1.3125 18.7031 3.1875 17.8125C1.6875 16.7812 0.75 15.0938 0.75 13.125C0.75 10.0312 3.23438 7.5 6.375 7.5H8.625C11.7188 7.5 14.25 10.0312 14.25 13.125ZM8.625 18.75H6.375H6.32812H5.625C3.32812 18.75 1.5 20.625 1.5 22.875C1.5 25.1719 3.32812 27 5.625 27H9.375C11.625 27 13.5 25.1719 13.5 22.875C13.5 20.625 11.625 18.75 9.375 18.75H8.625ZM8.625 17.25C10.875 17.25 12.75 15.4219 12.75 13.125C12.75 10.875 10.875 9 8.625 9H6.375C4.07812 9 2.25 10.875 2.25 13.125C2.25 15.4219 4.07812 17.25 6.32812 17.25C6.375 17.25 6.375 17.25 6.375 17.25H8.625Z" fill="black" fill-opacity="0.72"/>
</g>
<defs>
<clipPath id="clip0_2556_19704">
<rect width="15" height="36" fill="white"/>
</clipPath>
</defs>
</svg>
