<svg width="12" height="18" viewBox="0 0 12 18" fill="none" xmlns="http://www.w3.org/2000/svg">
<g id="label-paired / caption / scissors-caption / bold" clip-path="url(#clip0_2556_10039)">
<path id="icon" d="M11.8594 13.8125C11.6484 14.0469 11.2969 14.0703 11.0625 13.8828L7.3125 10.7422L8.17969 9.99219L11.7891 13.0156C12.0234 13.2266 12.0469 13.5781 11.8594 13.8125ZM2.625 4.625C2.08594 4.625 1.59375 4.92969 1.3125 5.375C1.05469 5.84375 1.05469 6.42969 1.3125 6.875C1.59375 7.34375 2.08594 7.625 2.625 7.625C3.14062 7.625 3.63281 7.34375 3.91406 6.875C4.17188 6.42969 4.17188 5.84375 3.91406 5.375C3.63281 4.92969 3.14062 4.625 2.625 4.625ZM2.625 3.5C4.05469 3.5 5.25 4.69531 5.25 6.125C5.25 6.54688 5.13281 6.94531 4.96875 7.29688L6.72656 8.77344L11.0625 5.14062C11.2969 4.95312 11.6484 4.97656 11.8594 5.21094C12.0469 5.44531 12.0234 5.79688 11.7891 6.00781L4.96875 11.7266C5.13281 12.0781 5.25 12.4766 5.25 12.875C5.25 14.3281 4.05469 15.5 2.625 15.5C1.17188 15.5 0 14.3281 0 12.875C0 11.4453 1.17188 10.25 2.625 10.25C3.23438 10.25 3.82031 10.4844 4.26562 10.8359L5.85938 9.5L4.26562 8.1875C3.82031 8.53906 3.23438 8.75 2.625 8.75C1.17188 8.75 0 7.57812 0 6.125C0 4.69531 1.17188 3.5 2.625 3.5ZM4.125 12.875C4.125 12.3594 3.82031 11.8672 3.375 11.5859C2.90625 11.3281 2.32031 11.3281 1.875 11.5859C1.40625 11.8672 1.125 12.3594 1.125 12.875C1.125 13.4141 1.40625 13.9062 1.875 14.1875C2.32031 14.4453 2.90625 14.4453 3.375 14.1875C3.82031 13.9062 4.125 13.4141 4.125 12.875Z" fill="black" fill-opacity="0.72"/>
</g>
<defs>
<clipPath id="clip0_2556_10039">
<rect width="12" height="18" fill="white"/>
</clipPath>
</defs>
</svg>
