<svg width="24" height="36" viewBox="0 0 24 36" fill="none" xmlns="http://www.w3.org/2000/svg">
<g id="label-paired / xl / right-to-bracket-xl / regular" clip-path="url(#clip0_2556_19974)">
<path id="icon" d="M14.9531 18.0938C14.9531 18.0938 15 18.0469 15 18L14.9531 17.9531L8.76562 12.0938C8.71875 12.0469 8.625 12 8.53125 12C8.39062 12 8.25 12.1406 8.25 12.3281V15C8.25 15.4219 7.875 15.75 7.5 15.75H1.875C1.64062 15.75 1.5 15.9375 1.5 16.125V19.875C1.5 20.1094 1.64062 20.25 1.875 20.25H7.5C7.875 20.25 8.25 20.625 8.25 21V23.7188C8.25 23.8594 8.39062 24 8.53125 24C8.625 24 8.71875 24 8.76562 23.9531L14.9531 18.0938ZM16.5 18C16.5 18.4688 16.3125 18.8906 15.9844 19.2188L9.79688 25.0312C9.46875 25.3594 9 25.5 8.53125 25.5C7.54688 25.5 6.75 24.7031 6.75 23.7188V21.75H1.875C0.796875 21.75 0 20.9531 0 19.875V16.125C0 15.0938 0.796875 14.25 1.875 14.25H6.75V12.3281C6.75 11.3438 7.54688 10.5 8.53125 10.5C9 10.5 9.46875 10.6875 9.79688 11.0156L15.9844 16.8281C16.3125 17.1562 16.5 17.5781 16.5 18ZM15.75 27H20.25C21.4688 27 22.5 26.0156 22.5 24.75V11.25C22.5 10.0312 21.4688 9 20.25 9H15.75C15.3281 9 15 8.67188 15 8.25C15 7.875 15.3281 7.5 15.75 7.5H20.25C22.3125 7.5 24 9.1875 24 11.25V24.75C24 26.8594 22.3125 28.5 20.25 28.5H15.75C15.3281 28.5 15 28.1719 15 27.75C15 27.375 15.3281 27 15.75 27Z" fill="black" fill-opacity="0.72"/>
</g>
<defs>
<clipPath id="clip0_2556_19974">
<rect width="24" height="36" fill="white"/>
</clipPath>
</defs>
</svg>
