<svg width="18" height="36" viewBox="0 0 18 36" fill="none" xmlns="http://www.w3.org/2000/svg">
<g id="label-paired / xl / file-arrow-down-xl / bold" clip-path="url(#clip0_3431_998)">
<path id="icon" d="M2.25 27C2.25 27.4219 2.57812 27.75 3 27.75H15C15.375 27.75 15.75 27.4219 15.75 27V13.5H12C11.1562 13.5 10.5 12.8438 10.5 12V8.25H3C2.57812 8.25 2.25 8.625 2.25 9V27ZM3 6H10.7344C11.5312 6 12.2812 6.32812 12.8438 6.89062L17.1094 11.1562C17.6719 11.7188 18 12.4688 18 13.2656V27C18 28.6875 16.6406 30 15 30H3C1.3125 30 0 28.6875 0 27V9C0 7.35938 1.3125 6 3 6ZM10.125 16.875V21.7031L11.5781 20.25C12 19.7812 12.7031 19.7812 13.1719 20.25C13.5938 20.6719 13.5938 21.375 13.1719 21.7969L9.79688 25.1719C9.32812 25.6406 8.625 25.6406 8.20312 25.1719L4.82812 21.7969C4.35938 21.375 4.35938 20.6719 4.82812 20.25C5.25 19.7812 5.95312 19.7812 6.42188 20.25L7.875 21.7031V16.875C7.875 16.2656 8.34375 15.75 9 15.75C9.60938 15.75 10.125 16.2656 10.125 16.875Z" fill="black" fill-opacity="0.72"/>
</g>
<defs>
<clipPath id="clip0_3431_998">
<rect width="18" height="36" fill="white"/>
</clipPath>
</defs>
</svg>
