<svg width="12" height="18" viewBox="0 0 12 18" fill="none" xmlns="http://www.w3.org/2000/svg">
<g id="label-paired / caption / window-maximize-caption / fill" clip-path="url(#clip0_2556_10642)">
<path id="icon" d="M1.5 4.25H10.5C11.3203 4.25 12 4.92969 12 5.75V13.25C12 14.0938 11.3203 14.75 10.5 14.75H1.5C0.65625 14.75 0 14.0938 0 13.25V5.75C0 4.92969 0.65625 4.25 1.5 4.25ZM2.25 5.75C1.82812 5.75 1.5 6.10156 1.5 6.5C1.5 6.92188 1.82812 7.25 2.25 7.25H9.75C10.1484 7.25 10.5 6.92188 10.5 6.5C10.5 6.10156 10.1484 5.75 9.75 5.75H2.25Z" fill="black" fill-opacity="0.72"/>
</g>
<defs>
<clipPath id="clip0_2556_10642">
<rect width="12" height="18" fill="white"/>
</clipPath>
</defs>
</svg>
