<svg width="12" height="18" viewBox="0 0 12 18" fill="none" xmlns="http://www.w3.org/2000/svg">
<g id="label-paired / caption / arrows-rotate-caption / bold" clip-path="url(#clip0_2556_10359)">
<path id="icon" d="M2.20312 7.90625C2.0625 8.1875 1.73438 8.30469 1.45312 8.1875C1.17188 8.07031 1.03125 7.74219 1.14844 7.46094C1.94531 5.58594 3.82031 4.25 6 4.25C7.21875 4.25 8.39062 4.74219 9.25781 5.60938L10.5 6.85156V5.5625C10.5 5.25781 10.7344 5 11.0625 5C11.3672 5 11.625 5.25781 11.625 5.5625V8.1875C11.625 8.51562 11.3672 8.75 11.0625 8.75H8.4375C8.10938 8.75 7.875 8.51562 7.875 8.1875C7.875 7.88281 8.10938 7.625 8.4375 7.625H9.70312L8.46094 6.40625C7.80469 5.75 6.91406 5.375 6 5.375C4.28906 5.375 2.8125 6.42969 2.20312 7.90625ZM10.8281 11.5859C10.0078 13.4375 8.15625 14.75 6 14.75C4.75781 14.75 3.58594 14.2812 2.71875 13.3906L1.5 12.1719V13.4375C1.5 13.7656 1.24219 14 0.9375 14C0.609375 14 0.375 13.7656 0.375 13.4375V10.8125C0.375 10.5078 0.609375 10.25 0.9375 10.25H3.5625C3.86719 10.25 4.125 10.5078 4.125 10.8125C4.125 11.1406 3.86719 11.375 3.5625 11.375H2.27344L3.51562 12.6172C4.17188 13.2734 5.0625 13.625 6 13.625C7.6875 13.625 9.16406 12.6172 9.77344 11.1406C9.91406 10.8359 10.2422 10.7188 10.5234 10.8359C10.8047 10.9531 10.9453 11.2812 10.8281 11.5859Z" fill="black" fill-opacity="0.72"/>
</g>
<defs>
<clipPath id="clip0_2556_10359">
<rect width="12" height="18" fill="white"/>
</clipPath>
</defs>
</svg>
