<svg width="16" height="24" viewBox="0 0 16 24" fill="none" xmlns="http://www.w3.org/2000/svg">
<g id="label-paired / md / circle-ellipsis-md / fill" clip-path="url(#clip0_2556_15101)">
<path id="icon" d="M8 20C5.125 20 2.5 18.5 1.0625 16C-0.375 13.5312 -0.375 10.5 1.0625 8C2.5 5.53125 5.125 4 8 4C10.8438 4 13.4688 5.53125 14.9062 8C16.3438 10.5 16.3438 13.5312 14.9062 16C13.4688 18.5 10.8438 20 8 20ZM5 11C4.4375 11 4 11.4688 4 12C4 12.5625 4.4375 13 5 13C5.53125 13 6 12.5625 6 12C6 11.4688 5.53125 11 5 11ZM7 12C7 12.5625 7.4375 13 8 13C8.53125 13 9 12.5625 9 12C9 11.4688 8.53125 11 8 11C7.4375 11 7 11.4688 7 12ZM11 11C10.4375 11 10 11.4688 10 12C10 12.5625 10.4375 13 11 13C11.5312 13 12 12.5625 12 12C12 11.4688 11.5312 11 11 11Z" fill="black" fill-opacity="0.72"/>
</g>
<defs>
<clipPath id="clip0_2556_15101">
<rect width="16" height="24" fill="white"/>
</clipPath>
</defs>
</svg>
