<svg width="24" height="36" viewBox="0 0 24 36" fill="none" xmlns="http://www.w3.org/2000/svg">
<g id="label-paired / xl / circle-xmark-xl / regular" clip-path="url(#clip0_2556_19891)">
<path id="icon" d="M12 7.5C8.20312 7.5 4.78125 9.51562 2.90625 12.75C0.984375 16.0312 0.984375 20.0156 2.90625 23.25C4.78125 26.5312 8.20312 28.5 12 28.5C15.75 28.5 19.1719 26.5312 21.0469 23.25C22.9688 20.0156 22.9688 16.0312 21.0469 12.75C19.1719 9.51562 15.75 7.5 12 7.5ZM12 30C7.6875 30 3.75 27.75 1.59375 24C-0.5625 20.2969 -0.5625 15.75 1.59375 12C3.75 8.29688 7.6875 6 12 6C16.2656 6 20.2031 8.29688 22.3594 12C24.5156 15.75 24.5156 20.2969 22.3594 24C20.2031 27.75 16.2656 30 12 30ZM8.4375 14.4844C8.71875 14.2031 9.23438 14.2031 9.51562 14.4844L12 16.9688L14.4375 14.4844C14.7188 14.2031 15.2344 14.2031 15.5156 14.4844C15.7969 14.7656 15.7969 15.2812 15.5156 15.5625L13.0312 18L15.5156 20.4844C15.7969 20.7656 15.7969 21.2812 15.5156 21.5625C15.2344 21.8438 14.7188 21.8438 14.4375 21.5625L12 19.0781L9.51562 21.5625C9.23438 21.8438 8.71875 21.8438 8.4375 21.5625C8.15625 21.2812 8.15625 20.7656 8.4375 20.4844L10.9219 18L8.4375 15.5625C8.15625 15.2812 8.15625 14.7656 8.4375 14.4844Z" fill="black" fill-opacity="0.72"/>
</g>
<defs>
<clipPath id="clip0_2556_19891">
<rect width="24" height="36" fill="white"/>
</clipPath>
</defs>
</svg>
