<svg width="9" height="18" viewBox="0 0 9 18" fill="none" xmlns="http://www.w3.org/2000/svg">
<g id="label-paired / caption / xmark-caption / bold" clip-path="url(#clip0_2556_10376)">
<path id="icon" d="M8.08594 6.71094L5.27344 9.52344L8.0625 12.3125C8.29688 12.5234 8.29688 12.875 8.0625 13.0859C7.85156 13.3203 7.5 13.3203 7.28906 13.0859L4.47656 10.2969L1.6875 13.0859C1.47656 13.3203 1.125 13.3203 0.914062 13.0859C0.679688 12.875 0.679688 12.5234 0.914062 12.2891L3.70312 9.5L0.914062 6.71094C0.679688 6.5 0.679688 6.14844 0.914062 5.91406C1.125 5.70312 1.47656 5.70312 1.71094 5.91406L4.5 8.72656L7.28906 5.9375C7.5 5.70312 7.85156 5.70312 8.08594 5.9375C8.29688 6.14844 8.29688 6.5 8.08594 6.71094Z" fill="black" fill-opacity="0.72"/>
</g>
<defs>
<clipPath id="clip0_2556_10376">
<rect width="9" height="18" fill="white"/>
</clipPath>
</defs>
</svg>
