<svg width="15" height="18" viewBox="0 0 15 18" fill="none" xmlns="http://www.w3.org/2000/svg">
<g id="label-paired / caption / messages-question-caption / fill" clip-path="url(#clip0_2556_10121)">
<path id="icon" d="M0 5C0 4.17969 0.65625 3.5 1.5 3.5H8.25C9.07031 3.5 9.75 4.17969 9.75 5V9.5C9.75 10.3438 9.07031 11 8.25 11H4.73438L2.83594 12.4297C2.71875 12.5234 2.57812 12.5234 2.4375 12.4766C2.32031 12.4062 2.25 12.2891 2.25 12.125V11H1.5C0.65625 11 0 10.3438 0 9.5V5ZM6 11.75H8.25C9.49219 11.75 10.5 10.7422 10.5 9.5V6.5H13.5C14.3203 6.5 15 7.17969 15 8V12.5C15 13.3438 14.3203 14 13.5 14H12.75V15.125C12.75 15.2891 12.6562 15.4062 12.5391 15.4766C12.3984 15.5234 12.2578 15.5234 12.1406 15.4297L10.2422 14H7.5C6.65625 14 6 13.3438 6 12.5V11.75ZM3.1875 5.67969L3.16406 5.70312C3.09375 5.9375 3.21094 6.21875 3.46875 6.28906C3.70312 6.38281 3.96094 6.26562 4.05469 6.00781V5.98438C4.07812 5.91406 4.14844 5.89062 4.21875 5.89062H5.34375C5.50781 5.89062 5.64844 6.00781 5.64844 6.17188C5.64844 6.28906 5.57812 6.38281 5.50781 6.42969L4.64062 6.94531C4.47656 7.01562 4.40625 7.17969 4.40625 7.34375V7.60156C4.40625 7.85938 4.61719 8.07031 4.875 8.07031C5.10938 8.07031 5.32031 7.85938 5.34375 7.60156L5.95312 7.25C6.35156 7.03906 6.58594 6.61719 6.58594 6.17188C6.58594 5.49219 6.02344 4.95312 5.34375 4.95312H4.21875C3.75 4.95312 3.32812 5.23438 3.1875 5.67969ZM5.48438 9.3125C5.50781 9.10156 5.39062 8.86719 5.17969 8.75C4.99219 8.63281 4.73438 8.63281 4.54688 8.75C4.33594 8.86719 4.21875 9.10156 4.24219 9.3125C4.21875 9.54688 4.33594 9.78125 4.54688 9.89844C4.73438 10.0156 4.99219 10.0156 5.17969 9.89844C5.39062 9.78125 5.50781 9.54688 5.48438 9.3125Z" fill="black" fill-opacity="0.72"/>
</g>
<defs>
<clipPath id="clip0_2556_10121">
<rect width="15" height="18" fill="white"/>
</clipPath>
</defs>
</svg>
