<svg width="18" height="30" viewBox="0 0 18 30" fill="none" xmlns="http://www.w3.org/2000/svg">
<g id="label-paired / lg / app-store-ios-lg" clip-path="url(#clip0_2556_17041)">
<path id="icon" d="M15.875 6.75C16.8906 6.75 17.75 7.60938 17.75 8.625V22.375C17.75 23.4297 16.8906 24.25 15.875 24.25H2.125C1.07031 24.25 0.25 23.4297 0.25 22.375V8.625C0.25 7.60938 1.07031 6.75 2.125 6.75H15.875ZM5.21094 20.5391L5.95312 19.25C5.5625 18.7422 5.01562 18.5859 4.39062 18.7812L3.84375 19.7578C3.60938 20.1094 3.76562 20.6172 4.11719 20.8125C4.50781 21.0469 4.97656 20.9297 5.21094 20.5391ZM10.6016 18.4297C10.9531 17.8047 10.5234 16.8672 9.74219 16.8672H7.32031L10.6406 11.0469C10.875 10.6953 10.7578 10.2266 10.3672 9.99219C10.0156 9.79688 9.50781 9.91406 9.3125 10.2656L8.96094 10.8906L8.60938 10.2656C8.41406 9.91406 7.90625 9.79688 7.55469 9.99219C7.16406 10.2266 7.04688 10.6953 7.24219 11.0469L8.0625 12.4531L5.52344 16.8672H3.53125C3.10156 16.8672 2.75 17.2188 2.75 17.6484C2.75 18.0781 3.10156 18.4297 3.53125 18.4297H10.6016ZM14.4688 18.4297C14.8984 18.4297 15.25 18.0781 15.25 17.6484C15.25 17.2188 14.8984 16.8672 14.4688 16.8672H12.4375C11.3828 15.1094 10.6406 13.7812 10.1328 12.8828C9.66406 13.2734 9.19531 14.4062 9.85938 15.5391C10.4844 16.6328 11.4609 18.3125 12.75 20.5391C12.9453 20.8906 13.4141 21.0469 13.8047 20.8125C14.1562 20.6172 14.3125 20.1484 14.0781 19.7578L13.3359 18.4297H14.4688Z" fill="black" fill-opacity="0.72"/>
</g>
<defs>
<clipPath id="clip0_2556_17041">
<rect width="18" height="30" fill="white"/>
</clipPath>
</defs>
</svg>
