<svg width="13" height="22" viewBox="0 0 13 22" fill="none" xmlns="http://www.w3.org/2000/svg">
<g id="label-paired / sm / objects-column-sm / regular" clip-path="url(#clip0_3431_744)">
<path id="icon" d="M1.6875 5.5C1.44141 5.5 1.25 5.71875 1.25 5.9375V10.3125C1.25 10.5586 1.44141 10.75 1.6875 10.75H4.3125C4.53125 10.75 4.75 10.5586 4.75 10.3125V5.9375C4.75 5.71875 4.53125 5.5 4.3125 5.5H1.6875ZM0.375 5.9375C0.375 5.22656 0.949219 4.625 1.6875 4.625H4.3125C5.02344 4.625 5.625 5.22656 5.625 5.9375V10.3125C5.625 11.0508 5.02344 11.625 4.3125 11.625H1.6875C0.949219 11.625 0.375 11.0508 0.375 10.3125V5.9375ZM8.6875 10.75C8.44141 10.75 8.25 10.9688 8.25 11.1875V15.5625C8.25 15.8086 8.44141 16 8.6875 16H11.3125C11.5312 16 11.75 15.8086 11.75 15.5625V11.1875C11.75 10.9688 11.5312 10.75 11.3125 10.75H8.6875ZM7.375 11.1875C7.375 10.4766 7.94922 9.875 8.6875 9.875H11.3125C12.0234 9.875 12.625 10.4766 12.625 11.1875V15.5625C12.625 16.3008 12.0234 16.875 11.3125 16.875H8.6875C7.94922 16.875 7.375 16.3008 7.375 15.5625V11.1875ZM4.3125 13.375H1.6875C1.44141 13.375 1.25 13.5938 1.25 13.8125V15.5625C1.25 15.8086 1.44141 16 1.6875 16H4.3125C4.53125 16 4.75 15.8086 4.75 15.5625V13.8125C4.75 13.5938 4.53125 13.375 4.3125 13.375ZM1.6875 12.5H4.3125C5.02344 12.5 5.625 13.1016 5.625 13.8125V15.5625C5.625 16.3008 5.02344 16.875 4.3125 16.875H1.6875C0.949219 16.875 0.375 16.3008 0.375 15.5625V13.8125C0.375 13.1016 0.949219 12.5 1.6875 12.5ZM8.6875 5.5C8.44141 5.5 8.25 5.71875 8.25 5.9375V7.6875C8.25 7.93359 8.44141 8.125 8.6875 8.125H11.3125C11.5312 8.125 11.75 7.93359 11.75 7.6875V5.9375C11.75 5.71875 11.5312 5.5 11.3125 5.5H8.6875ZM7.375 5.9375C7.375 5.22656 7.94922 4.625 8.6875 4.625H11.3125C12.0234 4.625 12.625 5.22656 12.625 5.9375V7.6875C12.625 8.42578 12.0234 9 11.3125 9H8.6875C7.94922 9 7.375 8.42578 7.375 7.6875V5.9375Z" fill="black" fill-opacity="0.72"/>
</g>
<defs>
<clipPath id="clip0_3431_744">
<rect width="13" height="22" fill="white"/>
</clipPath>
</defs>
</svg>
