<svg width="20" height="30" viewBox="0 0 20 30" fill="none" xmlns="http://www.w3.org/2000/svg">
<g id="label-paired / lg / circle-nine-lg / regular" clip-path="url(#clip0_2556_17274)">
<path id="icon" d="M18.75 15.5C18.75 12.375 17.0703 9.52344 14.375 7.96094C11.6406 6.35938 8.32031 6.35938 5.625 7.96094C2.89062 9.52344 1.25 12.375 1.25 15.5C1.25 18.6641 2.89062 21.5156 5.625 23.0781C8.32031 24.6797 11.6406 24.6797 14.375 23.0781C17.0703 21.5156 18.75 18.6641 18.75 15.5ZM0 15.5C0 11.9453 1.875 8.66406 5 6.86719C8.08594 5.07031 11.875 5.07031 15 6.86719C18.0859 8.66406 20 11.9453 20 15.5C20 19.0938 18.0859 22.375 15 24.1719C11.875 25.9688 8.08594 25.9688 5 24.1719C1.875 22.375 0 19.0938 0 15.5ZM10 11.75C9.10156 11.75 8.28125 12.2578 7.8125 13C7.38281 13.7812 7.38281 14.7578 7.8125 15.5C8.28125 16.2812 9.10156 16.75 10 16.75C10.8594 16.75 11.6797 16.2812 12.1484 15.5C12.5781 14.7578 12.5781 13.7812 12.1484 13C11.6797 12.2578 10.8594 11.75 10 11.75ZM9.84375 18C7.85156 17.9219 6.25 16.2812 6.25 14.25C6.25 12.1797 7.92969 10.5 10 10.5C12.0703 10.5 13.75 12.1797 13.75 14.25C13.75 15.4219 13.2422 16.5547 12.3828 17.3359L9.14062 20.3438C8.90625 20.5781 8.51562 20.5781 8.28125 20.3047C8.04688 20.0703 8.04688 19.6797 8.32031 19.4453L9.84375 18Z" fill="black" fill-opacity="0.72"/>
</g>
<defs>
<clipPath id="clip0_2556_17274">
<rect width="20" height="30" fill="white"/>
</clipPath>
</defs>
</svg>
