<svg width="14" height="24" viewBox="0 0 14 24" fill="none" xmlns="http://www.w3.org/2000/svg">
<g id="label-paired / md / floppy-disk-md / bold" clip-path="url(#clip0_2556_15005)">
<path id="icon" d="M1.5 7V17C1.5 17.2812 1.71875 17.5 2 17.5H12C12.25 17.5 12.5 17.2812 12.5 17V9.34375C12.5 9.21875 12.4375 9.09375 12.3438 9L13.4062 7.9375C13.7812 8.3125 13.9688 8.8125 13.9688 9.34375V17C13.9688 18.125 13.0938 19 11.9688 19H2C0.875 19 0 18.125 0 17V7C0 5.90625 0.875 5 2 5H9.65625C10.1875 5 10.6875 5.21875 11.0625 5.59375L13.4062 7.9375L12.3438 9L10 6.65625C10 6.65625 10 6.65625 10 6.625V9.75C10 10.1875 9.65625 10.5 9.25 10.5H3.25C2.8125 10.5 2.5 10.1875 2.5 9.75V6.5H2C1.71875 6.5 1.5 6.75 1.5 7ZM4 6.5V9H8.5V6.5H4ZM5 14C5 13.3125 5.375 12.6562 6 12.2812C6.59375 11.9375 7.375 11.9375 8 12.2812C8.59375 12.6562 9 13.3125 9 14C9 14.7188 8.59375 15.375 8 15.75C7.375 16.0938 6.59375 16.0938 6 15.75C5.375 15.375 5 14.7188 5 14Z" fill="black" fill-opacity="0.72"/>
</g>
<defs>
<clipPath id="clip0_2556_15005">
<rect width="14" height="24" fill="white"/>
</clipPath>
</defs>
</svg>
