<svg width="20" height="24" viewBox="0 0 20 24" fill="none" xmlns="http://www.w3.org/2000/svg">
<g id="label-paired / md / field-password-md / bold" clip-path="url(#clip0_2512_1275)">
<path id="icon" d="M3 7.75C2.28125 7.75 1.75 8.3125 1.75 9V15C1.75 15.7188 2.28125 16.25 3 16.25H17C17.6875 16.25 18.25 15.7188 18.25 15V9C18.25 8.3125 17.6875 7.75 17 7.75H3ZM0.25 9C0.25 7.5 1.46875 6.25 3 6.25H17C18.5 6.25 19.75 7.5 19.75 9V15C19.75 16.5312 18.5 17.75 17 17.75H3C1.46875 17.75 0.25 16.5312 0.25 15V9ZM13.5 15.25C13.0625 15.25 12.75 14.9375 12.75 14.5V9.5C12.75 9.09375 13.0625 8.75 13.5 8.75C13.9062 8.75 14.25 9.09375 14.25 9.5V14.5C14.25 14.9375 13.9062 15.25 13.5 15.25ZM6.25 12C6.25 12.4688 6 12.875 5.625 13.0938C5.21875 13.3125 4.75 13.3125 4.375 13.0938C3.96875 12.875 3.75 12.4688 3.75 12C3.75 11.5625 3.96875 11.1562 4.375 10.9375C4.75 10.7188 5.21875 10.7188 5.625 10.9375C6 11.1562 6.25 11.5625 6.25 12ZM9.25 12C9.25 12.4688 9 12.875 8.625 13.0938C8.21875 13.3125 7.75 13.3125 7.375 13.0938C6.96875 12.875 6.75 12.4688 6.75 12C6.75 11.5625 6.96875 11.1562 7.375 10.9375C7.75 10.7188 8.21875 10.7188 8.625 10.9375C9 11.1562 9.25 11.5625 9.25 12ZM12.25 12C12.25 12.4688 12 12.875 11.625 13.0938C11.2188 13.3125 10.75 13.3125 10.375 13.0938C9.96875 12.875 9.75 12.4688 9.75 12C9.75 11.5625 9.96875 11.1562 10.375 10.9375C10.75 10.7188 11.2188 10.7188 11.625 10.9375C12 11.1562 12.25 11.5625 12.25 12Z" fill="black" fill-opacity="0.72"/>
</g>
<defs>
<clipPath id="clip0_2512_1275">
<rect width="20" height="24" fill="white"/>
</clipPath>
</defs>
</svg>
