<svg width="25" height="30" viewBox="0 0 25 30" fill="none" xmlns="http://www.w3.org/2000/svg">
<g id="label-paired / lg / deriv-p2p-lg / fill" clip-path="url(#clip0_2556_16903)">
<path id="icon" d="M8.08594 13.8203C7.92969 13.7812 7.77344 13.7812 7.57812 13.7812H7.30469C7.26562 13.7812 7.22656 13.8203 7.1875 13.8203C7.14844 13.8203 7.10938 13.8203 7.07031 13.8203V15.4219H7.5C7.92969 15.4219 8.24219 15.3828 8.47656 15.2656C8.71094 15.1484 8.78906 14.9141 8.78906 14.6016C8.78906 14.4453 8.78906 14.2891 8.71094 14.2109C8.67188 14.0938 8.59375 14.0156 8.47656 13.9375C8.35938 13.8984 8.24219 13.8594 8.08594 13.8203ZM17.1094 13.8203C16.9922 13.7812 16.7969 13.7812 16.6406 13.7812H16.3281C16.25 13.7812 16.2109 13.8203 16.1719 13.8203H16.1328V15.4219H16.5234C16.9531 15.4219 17.3047 15.3828 17.5 15.2656C17.7344 15.1484 17.8516 14.9141 17.8516 14.6016C17.8516 14.4453 17.8125 14.2891 17.7344 14.2109C17.6953 14.0938 17.6172 14.0156 17.5 13.9375C17.4219 13.8984 17.2656 13.8594 17.1094 13.8203ZM6.25 5.5H18.75C20.8203 5.5 22.5 7.17969 22.5 9.25V21.75C22.5 23.8203 20.8203 25.5 18.75 25.5H6.25C4.17969 25.5 2.5 23.8203 2.5 21.75V9.25C2.5 7.17969 4.17969 5.5 6.25 5.5ZM7.14844 12.7266C6.99219 12.7266 6.83594 12.7266 6.67969 12.7266C6.52344 12.7656 6.36719 12.7656 6.25 12.8047C6.09375 12.8047 5.9375 12.8438 5.82031 12.8438V18.3906H7.07031V16.5156H7.5C8.32031 16.5156 8.98438 16.3594 9.41406 16.0469C9.88281 15.7734 10.1172 15.2656 10.1172 14.6016C10.1172 13.9375 9.88281 13.4297 9.45312 13.1562C8.98438 12.8438 8.35938 12.6875 7.5 12.6875C7.38281 12.6875 7.26562 12.7266 7.14844 12.7266ZM13.9062 13.5859C13.8281 13.3906 13.7109 13.2344 13.5547 13.0781C13.3984 12.9609 13.2031 12.8438 12.9688 12.7656C12.7344 12.6875 12.4609 12.6484 12.1094 12.6484C11.7578 12.6484 11.4062 12.7266 11.0938 12.8828C10.7812 13 10.5078 13.1953 10.2734 13.4297L10.8594 14.25C10.8984 14.2109 10.9766 14.1719 11.0547 14.1328C11.1328 14.0547 11.2109 13.9766 11.3281 13.9375C11.4062 13.8594 11.5234 13.8203 11.6797 13.7812C11.7969 13.7031 11.9141 13.7031 12.0703 13.7031C12.2656 13.7031 12.4609 13.7422 12.5781 13.8203C12.7344 13.9375 12.7734 14.0938 12.7734 14.3281C12.7734 14.4453 12.7734 14.5625 12.6953 14.6797C12.6562 14.7578 12.5781 14.875 12.5 14.9922L11.8359 15.6562C11.7578 15.7344 11.6406 15.8125 11.5625 15.8906C11.4844 15.9688 11.4062 16.0469 11.3281 16.125C11.1719 16.2812 11.0156 16.4766 10.8594 16.6719C10.7422 16.8672 10.625 17.0625 10.5469 17.2578C10.4688 17.4922 10.4297 17.7266 10.4297 18V18.3906H14.1797V17.375H11.7578C11.7969 17.3359 11.8359 17.2578 11.875 17.1797C11.9531 17.1016 12.0312 17.0234 12.1094 16.9062C12.1875 16.8672 12.2266 16.7891 12.3047 16.75C12.3047 16.7109 12.3438 16.6719 12.3828 16.6328L13.125 15.8906C13.2812 15.7734 13.3984 15.6172 13.5156 15.4609C13.5547 15.4219 13.5547 15.4219 13.5938 15.3828C13.7109 15.2266 13.8281 15.0312 13.9062 14.8359C13.9844 14.6406 14.0234 14.4453 14.0234 14.25C14.0234 14.0156 13.9844 13.7812 13.9062 13.5859ZM16.5625 12.6875H16.5234C16.4062 12.6875 16.3281 12.7266 16.2109 12.7266C16.0547 12.7266 15.8984 12.7266 15.7422 12.7266C15.4297 12.7656 15.1172 12.8047 14.8438 12.8438V18.3906H16.1328V16.5156H16.5234C17.3438 16.5156 18.0078 16.3594 18.4766 16.0469C18.9062 15.7734 19.1406 15.2656 19.1406 14.6016C19.1406 13.9375 18.9062 13.4297 18.4766 13.1562C18.0078 12.8828 17.3828 12.7266 16.5234 12.6875H16.5625Z" fill="black" fill-opacity="0.72"/>
</g>
<defs>
<clipPath id="clip0_2556_16903">
<rect width="25" height="30" fill="white"/>
</clipPath>
</defs>
</svg>
