<svg width="11" height="22" viewBox="0 0 11 22" fill="none" xmlns="http://www.w3.org/2000/svg">
<g id="label-paired / sm / arrow-up-to-line-sm / bold" clip-path="url(#clip0_2556_12637)">
<path id="icon" d="M0.90625 4.625H10.0938C10.4492 4.625 10.75 4.92578 10.75 5.28125C10.75 5.66406 10.4492 5.9375 10.0938 5.9375H0.90625C0.523438 5.9375 0.25 5.66406 0.25 5.28125C0.25 4.92578 0.523438 4.625 0.90625 4.625ZM5.96484 8.34375L9.46484 12.0625C9.71094 12.3359 9.71094 12.7461 9.4375 12.9922C9.16406 13.2383 8.75391 13.2383 8.50781 12.9648L6.15625 10.4492V12.7188V16.2188C6.15625 16.6016 5.85547 16.875 5.5 16.875C5.11719 16.875 4.84375 16.6016 4.84375 16.2188V12.7188V10.4492L2.46484 12.9648C2.21875 13.2383 1.80859 13.2383 1.53516 12.9922C1.26172 12.7461 1.26172 12.3359 1.50781 12.0625L5.00781 8.34375C5.14453 8.20703 5.30859 8.125 5.5 8.125C5.66406 8.125 5.85547 8.20703 5.96484 8.34375Z" fill="black" fill-opacity="0.72"/>
</g>
<defs>
<clipPath id="clip0_2556_12637">
<rect width="11" height="22" fill="white"/>
</clipPath>
</defs>
</svg>
