<svg width="12" height="18" viewBox="0 0 12 18" fill="none" xmlns="http://www.w3.org/2000/svg">
<g id="label-paired / caption / chart-candlestick-caption / fill" clip-path="url(#clip0_2556_10258)">
<path id="icon" d="M1.5 5V12.875C1.5 13.0859 1.66406 13.25 1.875 13.25H11.25C11.6484 13.25 12 13.6016 12 14C12 14.4219 11.6484 14.75 11.25 14.75H1.875C0.820312 14.75 0 13.9297 0 12.875V5C0 4.60156 0.328125 4.25 0.75 4.25C1.14844 4.25 1.5 4.60156 1.5 5ZM7.5 4.625V5.75C7.89844 5.75 8.25 6.10156 8.25 6.5V8.75C8.25 9.17188 7.89844 9.5 7.5 9.5V10.625C7.5 10.8359 7.3125 11 7.125 11C6.91406 11 6.75 10.8359 6.75 10.625V9.5C6.32812 9.5 6 9.17188 6 8.75V6.5C6 6.10156 6.32812 5.75 6.75 5.75V4.625C6.75 4.4375 6.91406 4.25 7.125 4.25C7.3125 4.25 7.5 4.4375 7.5 4.625ZM9 8.75C9 8.35156 9.32812 8 9.75 8V6.875C9.75 6.6875 9.91406 6.5 10.125 6.5C10.3125 6.5 10.5 6.6875 10.5 6.875V8C10.8984 8 11.25 8.35156 11.25 8.75V10.25C11.25 10.6719 10.8984 11 10.5 11V12.125C10.5 12.3359 10.3125 12.5 10.125 12.5C9.91406 12.5 9.75 12.3359 9.75 12.125V11C9.32812 11 9 10.6719 9 10.25V8.75ZM3.75 6.5V5.375C3.75 5.1875 3.91406 5 4.125 5C4.3125 5 4.5 5.1875 4.5 5.375V6.5C4.89844 6.5 5.25 6.85156 5.25 7.25V10.25C5.25 10.6719 4.89844 11 4.5 11V12.125C4.5 12.3359 4.3125 12.5 4.125 12.5C3.91406 12.5 3.75 12.3359 3.75 12.125V11C3.32812 11 3 10.6719 3 10.25V7.25C3 6.85156 3.32812 6.5 3.75 6.5Z" fill="black" fill-opacity="0.72"/>
</g>
<defs>
<clipPath id="clip0_2556_10258">
<rect width="12" height="18" fill="white"/>
</clipPath>
</defs>
</svg>
