<svg width="18" height="24" viewBox="0 0 18 24" fill="none" xmlns="http://www.w3.org/2000/svg">
<g id="label-paired / md / arrow-up-a-z-md / bold" clip-path="url(#clip0_2556_15109)">
<path id="icon" d="M13 5C13.2812 5 13.5312 5.1875 13.6562 5.4375L16.1562 10.4375C16.3438 10.8125 16.1875 11.25 15.8125 11.4375C15.4688 11.625 15 11.4688 14.8125 11.0938L14.4062 10.25C14.3438 10.25 14.2812 10.2812 14.25 10.2812H11.5625L11.1562 11.0938C10.9688 11.4688 10.5312 11.625 10.1562 11.4375C9.78125 11.25 9.625 10.8125 9.8125 10.4375L12.3125 5.4375C12.4375 5.1875 12.6875 5 13 5ZM12.3125 8.75H13.6562L13 7.4375L12.3125 8.75ZM4.46875 5.21875C4.75 4.9375 5.21875 4.9375 5.5 5.21875L8.5 8.21875C8.8125 8.53125 8.8125 9 8.5 9.28125C8.21875 9.59375 7.75 9.59375 7.46875 9.28125L5.75 7.5625V18.25C5.75 18.6875 5.40625 19 5 19C4.5625 19 4.25 18.6875 4.25 18.25V7.5625L2.53125 9.28125C2.21875 9.59375 1.75 9.59375 1.46875 9.28125C1.15625 9 1.15625 8.53125 1.46875 8.25L4.46875 5.25V5.21875ZM11 13H15C15.2812 13 15.5625 13.1875 15.6562 13.4688C15.7812 13.7188 15.75 14.0312 15.5312 14.25L12.6562 17.5H15C15.4062 17.5 15.75 17.8438 15.75 18.25C15.75 18.6875 15.4062 19 15 19H11C10.6875 19 10.4375 18.8438 10.3125 18.5625C10.1875 18.3125 10.2188 18 10.4375 17.75L13.3125 14.5H11C10.5625 14.5 10.25 14.1875 10.25 13.75C10.25 13.3438 10.5625 13 11 13Z" fill="black" fill-opacity="0.72"/>
</g>
<defs>
<clipPath id="clip0_2556_15109">
<rect width="18" height="24" fill="white"/>
</clipPath>
</defs>
</svg>
