<svg width="7" height="22" viewBox="0 0 7 22" fill="none" xmlns="http://www.w3.org/2000/svg">
<g id="label-paired / sm / grip-dots-vertical-sm / regular" clip-path="url(#clip0_2556_12979)">
<path id="icon" d="M1.75 6.375C1.75 6.15625 1.53125 5.9375 1.3125 5.9375C1.06641 5.9375 0.875 6.15625 0.875 6.375C0.875 6.62109 1.06641 6.8125 1.3125 6.8125C1.53125 6.8125 1.75 6.62109 1.75 6.375ZM0 6.375C0 5.91016 0.246094 5.5 0.65625 5.25391C1.03906 5.00781 1.55859 5.00781 1.96875 5.25391C2.35156 5.5 2.625 5.91016 2.625 6.375C2.625 6.86719 2.35156 7.27734 1.96875 7.52344C1.55859 7.76953 1.03906 7.76953 0.65625 7.52344C0.246094 7.27734 0 6.86719 0 6.375ZM1.75 10.75C1.75 10.5312 1.53125 10.3125 1.3125 10.3125C1.06641 10.3125 0.875 10.5312 0.875 10.75C0.875 10.9961 1.06641 11.1875 1.3125 11.1875C1.53125 11.1875 1.75 10.9961 1.75 10.75ZM0 10.75C0 10.2852 0.246094 9.875 0.65625 9.62891C1.03906 9.38281 1.55859 9.38281 1.96875 9.62891C2.35156 9.875 2.625 10.2852 2.625 10.75C2.625 11.2422 2.35156 11.6523 1.96875 11.8984C1.55859 12.1445 1.03906 12.1445 0.65625 11.8984C0.246094 11.6523 0 11.2422 0 10.75ZM1.3125 15.5625C1.53125 15.5625 1.75 15.3711 1.75 15.125C1.75 14.9062 1.53125 14.6875 1.3125 14.6875C1.06641 14.6875 0.875 14.9062 0.875 15.125C0.875 15.3711 1.06641 15.5625 1.3125 15.5625ZM1.3125 13.8125C1.77734 13.8125 2.1875 14.0859 2.43359 14.4688C2.67969 14.8789 2.67969 15.3984 2.43359 15.7812C2.1875 16.1914 1.77734 16.4375 1.3125 16.4375C0.820312 16.4375 0.410156 16.1914 0.164062 15.7812C-0.0820312 15.3984 -0.0820312 14.8789 0.164062 14.4688C0.410156 14.0859 0.820312 13.8125 1.3125 13.8125ZM6.125 6.375C6.125 6.15625 5.90625 5.9375 5.6875 5.9375C5.44141 5.9375 5.25 6.15625 5.25 6.375C5.25 6.62109 5.44141 6.8125 5.6875 6.8125C5.90625 6.8125 6.125 6.62109 6.125 6.375ZM4.375 6.375C4.375 5.91016 4.62109 5.5 5.03125 5.25391C5.41406 5.00781 5.93359 5.00781 6.34375 5.25391C6.72656 5.5 7 5.91016 7 6.375C7 6.86719 6.72656 7.27734 6.34375 7.52344C5.93359 7.76953 5.41406 7.76953 5.03125 7.52344C4.62109 7.27734 4.375 6.86719 4.375 6.375ZM5.6875 11.1875C5.90625 11.1875 6.125 10.9961 6.125 10.75C6.125 10.5312 5.90625 10.3125 5.6875 10.3125C5.44141 10.3125 5.25 10.5312 5.25 10.75C5.25 10.9961 5.44141 11.1875 5.6875 11.1875ZM5.6875 9.4375C6.15234 9.4375 6.5625 9.71094 6.80859 10.0938C7.05469 10.5039 7.05469 11.0234 6.80859 11.4062C6.5625 11.8164 6.15234 12.0625 5.6875 12.0625C5.19531 12.0625 4.78516 11.8164 4.53906 11.4062C4.29297 11.0234 4.29297 10.5039 4.53906 10.0938C4.78516 9.71094 5.19531 9.4375 5.6875 9.4375ZM6.125 15.125C6.125 14.9062 5.90625 14.6875 5.6875 14.6875C5.44141 14.6875 5.25 14.9062 5.25 15.125C5.25 15.3711 5.44141 15.5625 5.6875 15.5625C5.90625 15.5625 6.125 15.3711 6.125 15.125ZM4.375 15.125C4.375 14.6602 4.62109 14.25 5.03125 14.0039C5.41406 13.7578 5.93359 13.7578 6.34375 14.0039C6.72656 14.25 7 14.6602 7 15.125C7 15.6172 6.72656 16.0273 6.34375 16.2734C5.93359 16.5195 5.41406 16.5195 5.03125 16.2734C4.62109 16.0273 4.375 15.6172 4.375 15.125Z" fill="black" fill-opacity="0.72"/>
</g>
<defs>
<clipPath id="clip0_2556_12979">
<rect width="7" height="22" fill="white"/>
</clipPath>
</defs>
</svg>
