<svg width="20" height="24" viewBox="0 0 20 24" fill="none" xmlns="http://www.w3.org/2000/svg">
<g id="label-paired / md / location-crosshairs-slash-md / fill" clip-path="url(#clip0_2556_15168)">
<path id="icon" d="M1.1875 4.1875L5.75 7.75C6.625 6.90625 7.75 6.3125 9 6.09375V5C9 4.46875 9.4375 4 10 4C10.5312 4 11 4.46875 11 5V6.09375C13.5 6.53125 15.4688 8.5 15.9062 11H17C17.5312 11 18 11.4688 18 12C18 12.5625 17.5312 13 17 13H15.9062C15.7812 13.75 15.5 14.4688 15.125 15.0938L19.6875 18.6875C20.0312 18.9375 20.0938 19.4062 19.8125 19.7188C19.5625 20.0625 19.0938 20.125 18.7812 19.8438L0.28125 5.34375C-0.0625 5.09375 -0.125 4.625 0.15625 4.3125C0.40625 3.96875 0.875 3.90625 1.1875 4.1875ZM7.34375 9L8.5625 9.9375C8.96875 9.6875 9.46875 9.5 10 9.5C11.375 9.5 12.5 10.625 12.5 12C12.5 12.3125 12.4375 12.625 12.3125 12.9062L13.5312 13.8438C13.8125 13.3125 14 12.6875 14 12C14 9.8125 12.1875 8 10 8C8.96875 8 8.0625 8.375 7.34375 9ZM11.1875 15.8438L12.9375 17.2188C12.3438 17.5625 11.6875 17.8125 11 17.9375V19C11 19.5625 10.5312 20 10 20C9.4375 20 9 19.5625 9 19V17.9375C6.46875 17.5 4.5 15.5312 4.0625 13.0312H3C2.4375 13.0312 2 12.5625 2 12.0312C2 11.4688 2.4375 11.0312 3 11.0312H4.0625C4.09375 10.7812 4.15625 10.5625 4.21875 10.3438L6 11.75C6 11.8438 6 11.9375 6 12C6 14.2188 7.78125 16 10 16C10.4062 16 10.8125 15.9375 11.1875 15.8438Z" fill="black" fill-opacity="0.72"/>
</g>
<defs>
<clipPath id="clip0_2556_15168">
<rect width="20" height="24" fill="white"/>
</clipPath>
</defs>
</svg>
