<svg width="20" height="30" viewBox="0 0 20 30" fill="none" xmlns="http://www.w3.org/2000/svg">
<g id="label-paired / lg / sparkles-lg / regular" clip-path="url(#clip0_5090_465)">
<path id="icon" d="M16.875 6.75C17.1875 6.75 17.5 7.0625 17.5 7.375V9.25H19.375C19.6875 9.25 20 9.5625 20 9.875C20 10.2266 19.6875 10.5 19.375 10.5H17.5V12.375C17.5 12.7266 17.1875 13 16.875 13C16.5234 13 16.25 12.7266 16.25 12.375V10.5H14.375C14.0234 10.5 13.75 10.2266 13.75 9.875C13.75 9.5625 14.0234 9.25 14.375 9.25H16.25V7.375C16.25 7.0625 16.5234 6.75 16.875 6.75ZM16.875 18C17.1875 18 17.5 18.3125 17.5 18.625V20.5H19.375C19.6875 20.5 20 20.8125 20 21.125C20 21.4766 19.6875 21.75 19.375 21.75H17.5V23.625C17.5 23.9766 17.1875 24.25 16.875 24.25C16.5234 24.25 16.25 23.9766 16.25 23.625V21.75H14.375C14.0234 21.75 13.75 21.4766 13.75 21.125C13.75 20.8125 14.0234 20.5 14.375 20.5H16.25V18.625C16.25 18.3125 16.5234 18 16.875 18ZM5.3125 13.9766L2.10938 15.4609L5.3125 16.9453C5.58594 17.0625 5.82031 17.2969 5.9375 17.5703L7.42188 20.7734L8.90625 17.5703C9.02344 17.2969 9.25781 17.0625 9.53125 16.9453L12.7344 15.4609L9.53125 13.9766C9.25781 13.8594 9.02344 13.625 8.90625 13.3516L7.42188 10.1484L5.9375 13.3516C5.82031 13.625 5.58594 13.8594 5.3125 13.9766ZM4.80469 18.0781L0.351562 16.0469C0.117188 15.9297 0 15.6953 0 15.4609C0 15.2266 0.117188 14.9922 0.351562 14.9141L4.80469 12.8438L6.875 8.39062C6.95312 8.15625 7.1875 8 7.42188 8C7.65625 8 7.89062 8.15625 8.00781 8.39062L10.0391 12.8438L14.4922 14.875C14.7266 14.9922 14.8828 15.2266 14.8828 15.4609C14.8828 15.6953 14.7266 15.9297 14.4922 16.0078L10.0391 18.0781L8.00781 22.5312C7.89062 22.7656 7.65625 22.9219 7.42188 22.9219C7.1875 22.9219 6.95312 22.7656 6.875 22.5312L4.80469 18.0781Z" fill="black" fill-opacity="0.72"/>
</g>
<defs>
<clipPath id="clip0_5090_465">
<rect width="20" height="30" fill="white"/>
</clipPath>
</defs>
</svg>
