<svg width="20" height="30" viewBox="0 0 20 30" fill="none" xmlns="http://www.w3.org/2000/svg">
<g id="label-paired / lg / scissors-lg / bold" clip-path="url(#clip0_2556_17024)">
<path id="icon" d="M19.7656 22.6875C19.4141 23.0781 18.8281 23.1172 18.4375 22.8047L12.1875 17.5703L13.6328 16.3203L19.6484 21.3594C20.0391 21.7109 20.0781 22.2969 19.7656 22.6875ZM4.375 7.375C3.47656 7.375 2.65625 7.88281 2.1875 8.625C1.75781 9.40625 1.75781 10.3828 2.1875 11.125C2.65625 11.9062 3.47656 12.375 4.375 12.375C5.23438 12.375 6.05469 11.9062 6.52344 11.125C6.95312 10.3828 6.95312 9.40625 6.52344 8.625C6.05469 7.88281 5.23438 7.375 4.375 7.375ZM4.375 5.5C6.75781 5.5 8.75 7.49219 8.75 9.875C8.75 10.5781 8.55469 11.2422 8.28125 11.8281L11.2109 14.2891L18.4375 8.23438C18.8281 7.92188 19.4141 7.96094 19.7656 8.35156C20.0781 8.74219 20.0391 9.32812 19.6484 9.67969L8.28125 19.2109C8.55469 19.7969 8.75 20.4609 8.75 21.125C8.75 23.5469 6.75781 25.5 4.375 25.5C1.95312 25.5 0 23.5469 0 21.125C0 18.7422 1.95312 16.75 4.375 16.75C5.39062 16.75 6.36719 17.1406 7.10938 17.7266L9.76562 15.5L7.10938 13.3125C6.36719 13.8984 5.39062 14.25 4.375 14.25C1.95312 14.25 0 12.2969 0 9.875C0 7.49219 1.95312 5.5 4.375 5.5ZM6.875 21.125C6.875 20.2656 6.36719 19.4453 5.625 18.9766C4.84375 18.5469 3.86719 18.5469 3.125 18.9766C2.34375 19.4453 1.875 20.2656 1.875 21.125C1.875 22.0234 2.34375 22.8438 3.125 23.3125C3.86719 23.7422 4.84375 23.7422 5.625 23.3125C6.36719 22.8438 6.875 22.0234 6.875 21.125Z" fill="black" fill-opacity="0.72"/>
</g>
<defs>
<clipPath id="clip0_2556_17024">
<rect width="20" height="30" fill="white"/>
</clipPath>
</defs>
</svg>
