<svg width="14" height="24" viewBox="0 0 14 24" fill="none" xmlns="http://www.w3.org/2000/svg">
<g id="label-paired / md / square-check-md / regular" clip-path="url(#clip0_2556_15165)">
<path id="icon" d="M2 6C1.4375 6 1 6.46875 1 7V17C1 17.5625 1.4375 18 2 18H12C12.5312 18 13 17.5625 13 17V7C13 6.46875 12.5312 6 12 6H2ZM0 7C0 5.90625 0.875 5 2 5H12C13.0938 5 14 5.90625 14 7V17C14 18.125 13.0938 19 12 19H2C0.875 19 0 18.125 0 17V7ZM10.3438 10.375L6.34375 14.375C6.15625 14.5625 5.8125 14.5625 5.625 14.375L3.625 12.375C3.4375 12.1875 3.4375 11.8438 3.625 11.6562C3.8125 11.4688 4.15625 11.4688 4.34375 11.6562L6 13.3125L9.625 9.65625C9.8125 9.46875 10.1562 9.46875 10.3438 9.65625C10.5312 9.84375 10.5312 10.1875 10.3438 10.375Z" fill="black" fill-opacity="0.72"/>
</g>
<defs>
<clipPath id="clip0_2556_15165">
<rect width="14" height="24" fill="white"/>
</clipPath>
</defs>
</svg>
