<svg width="24" height="36" viewBox="0 0 24 36" fill="none" xmlns="http://www.w3.org/2000/svg">
<g id="label-paired / xl / pen-xl / bold" clip-path="url(#clip0_2556_19361)">
<path id="icon" d="M1.6875 22.9219C1.875 22.2656 2.25 21.6562 2.71875 21.1875L16.9688 6.9375C18.1406 5.76562 20.0625 5.76562 21.2344 6.9375L23.0625 8.76562C23.2031 8.90625 23.3438 9.09375 23.4375 9.23438C24.2344 10.4062 24.0938 12 23.0625 13.0312L8.8125 27.2812C8.76562 27.3281 8.67188 27.375 8.625 27.4688C8.15625 27.8438 7.64062 28.125 7.07812 28.3125L3.42188 29.3906L1.40625 30C1.03125 30.0938 0.609375 30 0.328125 29.6719C0 29.3906 -0.09375 28.9688 0.046875 28.5938L0.609375 26.5781L1.6875 22.9219ZM3.84375 23.5781L3.51562 24.6562L2.76562 27.2344L5.34375 26.4844L6.42188 26.1562C6.75 26.0625 6.98438 25.9219 7.21875 25.6875L17.9531 14.9531L15.0469 12.0469L4.3125 22.7812C4.26562 22.7812 4.26562 22.8281 4.21875 22.875C4.03125 23.0625 3.9375 23.2969 3.84375 23.5781Z" fill="black" fill-opacity="0.72"/>
</g>
<defs>
<clipPath id="clip0_2556_19361">
<rect width="24" height="36" fill="white"/>
</clipPath>
</defs>
</svg>
