<svg width="14" height="22" viewBox="0 0 14 22" fill="none" xmlns="http://www.w3.org/2000/svg">
<g id="label-paired / sm / puzzle-sm / fill" clip-path="url(#clip0_3431_755)">
<path id="icon" d="M8.75 3.75H12.25C13.207 3.75 14 4.54297 14 5.5V9C14 9.24609 13.7812 9.4375 13.5625 9.4375H12.1406C11.9492 9.4375 11.8125 9.60156 11.8125 9.76562V9.875C11.8125 10.3672 11.4023 10.75 10.9375 10.75C10.4453 10.75 10.0625 10.3672 10.0625 9.875V9.76562C10.0625 9.60156 9.89844 9.4375 9.73438 9.4375H8.75C8.50391 9.4375 8.3125 9.24609 8.3125 9V8.125C8.3125 7.90625 8.50391 7.6875 8.75 7.6875H9.1875C9.65234 7.6875 10.0625 7.30469 10.0625 6.8125C10.0625 6.34766 9.65234 5.9375 9.1875 5.9375H8.75C8.50391 5.9375 8.3125 5.74609 8.3125 5.5V4.1875C8.3125 3.96875 8.50391 3.75 8.75 3.75ZM0 10.75V7.25C0 6.29297 0.765625 5.5 1.75 5.5H5.25C5.46875 5.5 5.6875 5.71875 5.6875 5.9375V6.92188C5.6875 7.11328 5.82422 7.25 6.01562 7.25H6.125C6.58984 7.25 7 7.66016 7 8.125C7 8.61719 6.58984 9 6.125 9H6.01562C5.82422 9 5.6875 9.16406 5.6875 9.32812V10.75C5.6875 10.9961 5.46875 11.1875 5.25 11.1875H4.375C4.12891 11.1875 3.9375 10.9961 3.9375 10.75V10.3125C3.9375 9.84766 3.52734 9.4375 3.0625 9.4375C2.57031 9.4375 2.1875 9.84766 2.1875 10.3125V10.75C2.1875 10.9961 1.96875 11.1875 1.75 11.1875H0.4375C0.191406 11.1875 0 10.9961 0 10.75ZM0 16V12.5C0 12.2812 0.191406 12.0625 0.4375 12.0625H5.25C5.46875 12.0625 5.6875 12.2812 5.6875 12.5V13.375C5.6875 13.6211 5.46875 13.8125 5.25 13.8125H4.8125C4.32031 13.8125 3.9375 14.2227 3.9375 14.6875C3.9375 15.1797 4.32031 15.5625 4.8125 15.5625H5.25C5.46875 15.5625 5.6875 15.7812 5.6875 16V17.3125C5.6875 17.5586 5.46875 17.75 5.25 17.75H1.75C0.765625 17.75 0 16.9844 0 16ZM6.5625 12.5C6.5625 12.2812 6.75391 12.0625 7 12.0625H7.875C8.09375 12.0625 8.3125 12.2812 8.3125 12.5V12.9375C8.3125 13.4297 8.69531 13.8125 9.1875 13.8125C9.65234 13.8125 10.0625 13.4297 10.0625 12.9375V12.5C10.0625 12.2812 10.2539 12.0625 10.5 12.0625H11.8125C12.0312 12.0625 12.25 12.2812 12.25 12.5V16C12.25 16.9844 11.457 17.75 10.5 17.75H7C6.75391 17.75 6.5625 17.5586 6.5625 17.3125V12.5Z" fill="black" fill-opacity="0.72"/>
</g>
<defs>
<clipPath id="clip0_3431_755">
<rect width="14" height="22" fill="white"/>
</clipPath>
</defs>
</svg>
