<svg width="20" height="30" viewBox="0 0 20 30" fill="none" xmlns="http://www.w3.org/2000/svg">
<g id="label-paired / lg / circle-trash-lg / fill" clip-path="url(#clip0_2556_17626)">
<path id="icon" d="M10 25.5C6.40625 25.5 3.125 23.625 1.32812 20.5C-0.46875 17.4141 -0.46875 13.625 1.32812 10.5C3.125 7.41406 6.40625 5.5 10 5.5C13.5547 5.5 16.8359 7.41406 18.6328 10.5C20.4297 13.625 20.4297 17.4141 18.6328 20.5C16.8359 23.625 13.5547 25.5 10 25.5ZM6.25 10.5C5.89844 10.5 5.625 10.8125 5.625 11.125C5.625 11.4766 5.89844 11.75 6.25 11.75H13.75C14.0625 11.75 14.375 11.4766 14.375 11.125C14.375 10.8125 14.0625 10.5 13.75 10.5H12.1094L11.6797 10.0703C11.5625 9.95312 11.4062 9.875 11.25 9.875H8.75C8.55469 9.875 8.39844 9.95312 8.28125 10.0703L7.85156 10.5H6.25ZM6.25 13L6.75781 19.3672C6.79688 20.0312 7.34375 20.5 8.00781 20.5H11.9531C12.6172 20.5 13.1641 20.0312 13.2031 19.3672L13.75 13H6.25Z" fill="black" fill-opacity="0.72"/>
</g>
<defs>
<clipPath id="clip0_2556_17626">
<rect width="20" height="30" fill="white"/>
</clipPath>
</defs>
</svg>
