<svg width="24" height="36" viewBox="0 0 24 36" fill="none" xmlns="http://www.w3.org/2000/svg">
<g id="label-paired / xl / circle-euro-xl / fill" clip-path="url(#clip0_2556_19290)">
<path id="icon" d="M12 30C7.6875 30 3.75 27.75 1.59375 24C-0.5625 20.2969 -0.5625 15.75 1.59375 12C3.75 8.29688 7.6875 6 12 6C16.2656 6 20.2031 8.29688 22.3594 12C24.5156 15.75 24.5156 20.2969 22.3594 24C20.2031 27.75 16.2656 30 12 30ZM6 18.75C5.57812 18.75 5.25 19.125 5.25 19.5C5.25 19.9219 5.57812 20.25 6 20.25H7.125C7.96875 22.5 10.1719 24.0938 12.7031 24.0938H14.6719C15.2812 24.0938 15.7969 23.5781 15.7969 22.9688C15.7969 22.3594 15.2812 21.8438 14.6719 21.8438H12.7031C11.4375 21.8438 10.3594 21.2344 9.65625 20.25H13.5C13.875 20.25 14.25 19.9219 14.25 19.5C14.25 19.125 13.875 18.75 13.5 18.75H9C8.95312 18.5625 8.95312 18.2812 8.95312 18.0469C8.95312 17.7656 8.95312 17.5312 9 17.25H13.5C13.875 17.25 14.25 16.9219 14.25 16.5C14.25 16.125 13.875 15.75 13.5 15.75H9.70312C10.4062 14.8594 11.4844 14.25 12.7031 14.25H14.6719C15.2812 14.25 15.7969 13.7812 15.7969 13.125C15.7969 12.5156 15.2812 12 14.6719 12H12.7031C10.2188 12 8.01562 13.5938 7.125 15.75H6C5.57812 15.75 5.25 16.125 5.25 16.5C5.25 16.9219 5.57812 17.25 6 17.25H6.75C6.70312 17.5312 6.70312 17.8125 6.70312 18.0469C6.70312 18.2812 6.70312 18.5156 6.75 18.75H6Z" fill="black" fill-opacity="0.72"/>
</g>
<defs>
<clipPath id="clip0_2556_19290">
<rect width="24" height="36" fill="white"/>
</clipPath>
</defs>
</svg>
