<svg width="11" height="18" viewBox="0 0 11 18" fill="none" xmlns="http://www.w3.org/2000/svg">
<g id="label-paired / caption / bars-filter-caption / fill" clip-path="url(#clip0_2556_10599)">
<path id="icon" d="M0.25 5.75C0.25 5.35156 0.578125 5 1 5H10C10.3984 5 10.75 5.35156 10.75 5.75C10.75 6.17188 10.3984 6.5 10 6.5H1C0.578125 6.5 0.25 6.17188 0.25 5.75ZM1.75 9.5C1.75 9.10156 2.07812 8.75 2.5 8.75H8.5C8.89844 8.75 9.25 9.10156 9.25 9.5C9.25 9.92188 8.89844 10.25 8.5 10.25H2.5C2.07812 10.25 1.75 9.92188 1.75 9.5ZM7 13.25C7 13.6719 6.64844 14 6.25 14H4.75C4.32812 14 4 13.6719 4 13.25C4 12.8516 4.32812 12.5 4.75 12.5H6.25C6.64844 12.5 7 12.8516 7 13.25Z" fill="black" fill-opacity="0.72"/>
</g>
<defs>
<clipPath id="clip0_2556_10599">
<rect width="11" height="18" fill="white"/>
</clipPath>
</defs>
</svg>
