<svg width="16" height="24" viewBox="0 0 16 24" fill="none" xmlns="http://www.w3.org/2000/svg">
<g id="label-paired / md / clapperboard-play-md / fill" clip-path="url(#clip0_3431_846)">
<path id="icon" d="M14.1562 5.03125L10.2188 8.96875L10.1875 9H7.28125L11.2812 5.03125L11.3125 5H14C14.0625 5 14.0938 5.03125 14.1562 5.03125ZM12.2812 9L15.5625 5.75C15.8125 6.09375 16 6.53125 16 7V9H12.2812ZM6.28125 5H9.1875L5.21875 8.96875L5.1875 9H2.28125L6.28125 5.03125L6.3125 5H6.28125ZM4.1875 5L0.21875 8.96875L0.1875 9H0V7C0 5.90625 0.875 5 2 5H4.1875ZM0 10H16V17C16 18.125 15.0938 19 14 19H2C0.875 19 0 18.125 0 17V10ZM6.75 12.0625C6.59375 12.1562 6.5 12.3438 6.5 12.5V16.5C6.5 16.6875 6.59375 16.875 6.75 16.9688C6.90625 17.0312 7.125 17.0312 7.25 16.9375L10.25 14.9375C10.4062 14.8438 10.5 14.6875 10.5 14.5C10.5 14.3438 10.4062 14.1875 10.25 14.0938L7.25 12.0938C7.125 12 6.90625 12 6.75 12.0625Z" fill="black" fill-opacity="0.72"/>
</g>
<defs>
<clipPath id="clip0_3431_846">
<rect width="16" height="24" fill="white"/>
</clipPath>
</defs>
</svg>
