<svg width="20" height="24" viewBox="0 0 20 24" fill="none" xmlns="http://www.w3.org/2000/svg">
<g id="label-paired / md / user-slash-md / bold" clip-path="url(#clip0_2365_757)">
<path id="icon" d="M1.21875 4.15625L6 7.90625C6.04167 6.80208 6.4375 5.88542 7.1875 5.15625C7.9375 4.40625 8.875 4.02083 10 4C11.125 4.02083 12.0729 4.40625 12.8438 5.15625C13.5938 5.92708 13.9792 6.875 14 8C13.9792 8.9375 13.6979 9.76042 13.1562 10.4688C12.6146 11.1562 11.9062 11.625 11.0312 11.875L19.7188 18.6562C20.0521 18.9688 20.0938 19.3229 19.8438 19.7188C19.5312 20.0521 19.1771 20.0938 18.7812 19.8438L0.28125 5.34375C-0.0520833 5.03125 -0.09375 4.67708 0.15625 4.28125C0.46875 3.94792 0.822917 3.90625 1.21875 4.15625ZM9.09375 10.3125C9.36458 10.4375 9.66667 10.5 10 10.5C10.7083 10.4792 11.3021 10.2396 11.7812 9.78125C12.2396 9.30208 12.4792 8.70833 12.5 8C12.4792 7.29167 12.2396 6.69792 11.7812 6.21875C11.3021 5.76042 10.7083 5.52083 10 5.5C9.29167 5.52083 8.69792 5.76042 8.21875 6.21875C7.76042 6.69792 7.52083 7.29167 7.5 8C7.5 8.54167 7.65625 9.03125 7.96875 9.46875L9.09375 10.3125ZM8.25 13.5L10.1562 15H8.5625C7.52083 15.0208 6.63542 15.3542 5.90625 16C5.15625 16.6458 4.69792 17.4792 4.53125 18.5H14.5938L16.4062 19.9375C16.3021 19.9792 16.1875 20 16.0625 20H3.9375C3.66667 20 3.44792 19.9062 3.28125 19.7188C3.09375 19.5521 3 19.3333 3 19.0625C3.04167 17.5417 3.55208 16.2708 4.53125 15.25C5.51042 14.2083 6.75 13.625 8.25 13.5Z" fill="black" fill-opacity="0.72"/>
</g>
<defs>
<clipPath id="clip0_2365_757">
<rect width="20" height="24" fill="white"/>
</clipPath>
</defs>
</svg>
