<svg width="16" height="24" viewBox="0 0 16 24" fill="none" xmlns="http://www.w3.org/2000/svg">
<g id="label-paired / md / chevrons-up-md / regular" clip-path="url(#clip0_2556_14912)">
<path id="icon" d="M8.34375 5.65625L14.3438 11.6562C14.5312 11.8438 14.5312 12.1875 14.3438 12.375C14.1562 12.5625 13.8125 12.5625 13.625 12.375L8 6.71875L2.34375 12.375C2.15625 12.5625 1.8125 12.5625 1.625 12.375C1.4375 12.1875 1.4375 11.8438 1.625 11.6562L7.625 5.65625C7.8125 5.46875 8.15625 5.46875 8.34375 5.65625ZM14.3438 17.6562C14.5312 17.8438 14.5312 18.1875 14.3438 18.375C14.1562 18.5625 13.8125 18.5625 13.625 18.375L8 12.7188L2.34375 18.375C2.15625 18.5625 1.8125 18.5625 1.625 18.375C1.4375 18.1875 1.4375 17.8438 1.625 17.6562L7.625 11.6562C7.8125 11.4688 8.15625 11.4688 8.34375 11.6562L14.3438 17.6562Z" fill="black" fill-opacity="0.72"/>
</g>
<defs>
<clipPath id="clip0_2556_14912">
<rect width="16" height="24" fill="white"/>
</clipPath>
</defs>
</svg>
