<svg width="14" height="22" viewBox="0 0 14 22" fill="none" xmlns="http://www.w3.org/2000/svg">
<g id="label-paired / sm / gauge-max-sm / fill" clip-path="url(#clip0_2556_12946)">
<path id="icon" d="M0 10.75C0 8.26172 1.3125 5.96484 3.5 4.70703C5.66016 3.44922 8.3125 3.44922 10.5 4.70703C12.6602 5.96484 14 8.26172 14 10.75C14 13.2656 12.6602 15.5625 10.5 16.8203C8.3125 18.0781 5.66016 18.0781 3.5 16.8203C1.3125 15.5625 0 13.2656 0 10.75ZM7.875 6.375C7.875 5.91016 7.46484 5.5 7 5.5C6.50781 5.5 6.125 5.91016 6.125 6.375C6.125 6.86719 6.50781 7.25 7 7.25C7.46484 7.25 7.875 6.86719 7.875 6.375ZM7 15.125C7.95703 15.125 8.75 14.3594 8.75 13.375C8.75 13.293 8.72266 13.1836 8.72266 13.1016L11.9219 11.1055C12.2227 10.9141 12.332 10.5039 12.1406 10.2031C11.9492 9.90234 11.5391 9.79297 11.2383 9.98438L8.01172 11.9805C7.73828 11.7617 7.38281 11.625 7 11.625C6.01562 11.625 5.25 12.418 5.25 13.375C5.25 14.3594 6.01562 15.125 7 15.125ZM4.8125 7.6875C4.8125 7.22266 4.40234 6.8125 3.9375 6.8125C3.44531 6.8125 3.0625 7.22266 3.0625 7.6875C3.0625 8.17969 3.44531 8.5625 3.9375 8.5625C4.40234 8.5625 4.8125 8.17969 4.8125 7.6875ZM2.625 11.625C3.08984 11.625 3.5 11.2422 3.5 10.75C3.5 10.2852 3.08984 9.875 2.625 9.875C2.13281 9.875 1.75 10.2852 1.75 10.75C1.75 11.2422 2.13281 11.625 2.625 11.625ZM10.9375 7.6875C10.9375 7.22266 10.5273 6.8125 10.0625 6.8125C9.57031 6.8125 9.1875 7.22266 9.1875 7.6875C9.1875 8.17969 9.57031 8.5625 10.0625 8.5625C10.5273 8.5625 10.9375 8.17969 10.9375 7.6875Z" fill="black" fill-opacity="0.72"/>
</g>
<defs>
<clipPath id="clip0_2556_12946">
<rect width="14" height="22" fill="white"/>
</clipPath>
</defs>
</svg>
