<svg width="12" height="24" viewBox="0 0 12 24" fill="none" xmlns="http://www.w3.org/2000/svg">
<g id="label-paired / md / file-chart-column-md / bold" clip-path="url(#clip0_2556_14959)">
<path id="icon" d="M1.5 18C1.5 18.2812 1.71875 18.5 2 18.5H10C10.25 18.5 10.5 18.2812 10.5 18V9H8C7.4375 9 7 8.5625 7 8V5.5H2C1.71875 5.5 1.5 5.75 1.5 6V18ZM2 4H7.15625C7.6875 4 8.1875 4.21875 8.5625 4.59375L11.4062 7.4375C11.7812 7.8125 12 8.3125 12 8.84375V18C12 19.125 11.0938 20 10 20H2C0.875 20 0 19.125 0 18V6C0 4.90625 0.875 4 2 4ZM6.75 12.75V16.75C6.75 17.1875 6.40625 17.5 6 17.5C5.5625 17.5 5.25 17.1875 5.25 16.75V12.75C5.25 12.3438 5.5625 12 6 12C6.40625 12 6.75 12.3438 6.75 12.75ZM9.5 13.75V16.75C9.5 17.1875 9.15625 17.5 8.75 17.5C8.3125 17.5 8 17.1875 8 16.75V13.75C8 13.3438 8.3125 13 8.75 13C9.15625 13 9.5 13.3438 9.5 13.75ZM4 14.75V16.75C4 17.1875 3.65625 17.5 3.25 17.5C2.8125 17.5 2.5 17.1875 2.5 16.75V14.75C2.5 14.3438 2.8125 14 3.25 14C3.65625 14 4 14.3438 4 14.75Z" fill="black" fill-opacity="0.72"/>
</g>
<defs>
<clipPath id="clip0_2556_14959">
<rect width="12" height="24" fill="white"/>
</clipPath>
</defs>
</svg>
