<svg width="14" height="22" viewBox="0 0 14 22" fill="none" xmlns="http://www.w3.org/2000/svg">
<g id="label-paired / sm / at-sm / bold" clip-path="url(#clip0_2556_12586)">
<path id="icon" d="M7 5.0625C3.85547 5.0625 1.3125 7.63281 1.3125 10.75C1.3125 13.8945 3.85547 16.4375 7 16.4375C7.35547 16.4375 7.65625 16.7383 7.65625 17.0938C7.65625 17.4766 7.35547 17.75 7 17.75C3.11719 17.75 0 14.6328 0 10.75C0 6.89453 3.11719 3.75 7 3.75C10.8555 3.75 14 6.89453 14 10.75V11.5156C14 12.9102 12.8516 14.0312 11.4844 14.0312C10.6094 14.0312 9.87109 13.6211 9.40625 12.9648C8.80469 13.6211 7.95703 14.0312 7 14.0312C5.16797 14.0312 3.71875 12.582 3.71875 10.75C3.71875 8.94531 5.16797 7.46875 7 7.46875C7.76562 7.46875 8.50391 7.76953 9.05078 8.20703C9.1875 8.04297 9.37891 7.90625 9.625 7.90625C9.98047 7.90625 10.2812 8.20703 10.2812 8.5625V10.75V11.5156C10.2812 12.1992 10.8008 12.7188 11.4844 12.7188C12.1406 12.7188 12.6875 12.1992 12.6875 11.5156V10.75C12.6875 7.63281 10.1172 5.0625 7 5.0625ZM8.96875 10.75C8.96875 10.0664 8.58594 9.41016 7.98438 9.05469C7.35547 8.69922 6.61719 8.69922 6.01562 9.05469C5.38672 9.41016 5.03125 10.0664 5.03125 10.75C5.03125 11.4609 5.38672 12.1172 6.01562 12.4727C6.61719 12.8281 7.35547 12.8281 7.98438 12.4727C8.58594 12.1172 8.96875 11.4609 8.96875 10.75Z" fill="black" fill-opacity="0.72"/>
</g>
<defs>
<clipPath id="clip0_2556_12586">
<rect width="14" height="22" fill="white"/>
</clipPath>
</defs>
</svg>
