<svg width="30" height="36" viewBox="0 0 30 36" fill="none" xmlns="http://www.w3.org/2000/svg">
<g id="label-paired / xl / wallet-signal-xl / fill" clip-path="url(#clip0_2556_19272)">
<path id="icon" d="M0 10.5C0 8.85938 1.3125 7.5 3 7.5H21C21.7969 7.5 22.5 8.20312 22.5 9C22.5 9.84375 21.7969 10.5 21 10.5H3.75C3.32812 10.5 3 10.875 3 11.25C3 11.6719 3.32812 12 3.75 12H21C22.6406 12 24 13.3594 24 15V17.5312C22.5 16.875 20.8125 16.5 19.125 16.5C17.6719 16.5 16.5 17.7188 16.5 19.125C16.5 19.2656 16.5 19.4062 16.5 19.5V28.5H3C1.3125 28.5 0 27.1875 0 25.5V10.5ZM18 19.125C18 18.5156 18.4688 18 19.125 18C25.125 18 30 22.875 30 28.875C30 29.5312 29.4844 30 28.875 30C28.2188 30 27.75 29.5312 27.75 28.875C27.75 24.1406 23.8594 20.25 19.125 20.25C18.4688 20.25 18 19.7812 18 19.125ZM18 23.625C18 23.0156 18.4688 22.5 19.125 22.5C22.6406 22.5 25.5 25.3594 25.5 28.875C25.5 29.5312 24.9844 30 24.375 30C23.7188 30 23.25 29.5312 23.25 28.875C23.25 26.625 21.375 24.75 19.125 24.75C18.4688 24.75 18 24.2812 18 23.625ZM18 28.5C18 27.7031 18.6562 27 19.5 27C20.2969 27 21 27.7031 21 28.5C21 29.3438 20.2969 30 19.5 30C18.6562 30 18 29.3438 18 28.5Z" fill="black" fill-opacity="0.72"/>
</g>
<defs>
<clipPath id="clip0_2556_19272">
<rect width="30" height="36" fill="white"/>
</clipPath>
</defs>
</svg>
