<svg width="27" height="36" viewBox="0 0 27 36" fill="none" xmlns="http://www.w3.org/2000/svg">
<g id="label-paired / xl / rectangle-ad-xl / regular" clip-path="url(#clip0_2556_19443)">
<path id="icon" d="M3 9C2.15625 9 1.5 9.70312 1.5 10.5V25.5C1.5 26.3438 2.15625 27 3 27H24C24.7969 27 25.5 26.3438 25.5 25.5V10.5C25.5 9.70312 24.7969 9 24 9H3ZM0 10.5C0 8.85938 1.3125 7.5 3 7.5H24C25.6406 7.5 27 8.85938 27 10.5V25.5C27 27.1875 25.6406 28.5 24 28.5H3C1.3125 28.5 0 27.1875 0 25.5V10.5ZM10.0312 13.9688L13.4062 21.4688C13.5938 21.8438 13.4062 22.2656 13.0312 22.4531C12.6562 22.6406 12.2344 22.4531 12.0469 22.0781L11.5781 21H7.125L6.65625 22.0781C6.46875 22.4531 6.04688 22.6406 5.67188 22.4531C5.29688 22.2656 5.10938 21.8438 5.29688 21.4688L8.67188 13.9688C8.76562 13.6875 9.04688 13.5 9.32812 13.5C9.65625 13.5 9.89062 13.6875 10.0312 13.9688ZM9.375 16.0781L7.82812 19.5H10.875L9.375 16.0781ZM17.625 17.25C16.9219 17.25 16.3125 17.625 15.9844 18.1875C15.6562 18.7969 15.6562 19.5 15.9844 20.0625C16.3125 20.6719 16.9219 21 17.625 21C18.2812 21 18.8906 20.6719 19.2188 20.0625C19.5469 19.5 19.5469 18.7969 19.2188 18.1875C18.8906 17.625 18.2812 17.25 17.625 17.25ZM19.5 16.3594V14.25C19.5 13.875 19.8281 13.5 20.25 13.5C20.625 13.5 21 13.875 21 14.25V19.125V21.75C21 22.1719 20.625 22.5 20.25 22.5C19.875 22.5 19.5938 22.2656 19.5 21.9375C18.9375 22.3125 18.3281 22.5 17.625 22.5C15.75 22.5 14.25 21 14.25 19.125C14.25 17.2969 15.75 15.75 17.625 15.75C18.2812 15.75 18.9375 15.9844 19.5 16.3594Z" fill="black" fill-opacity="0.72"/>
</g>
<defs>
<clipPath id="clip0_2556_19443">
<rect width="27" height="36" fill="white"/>
</clipPath>
</defs>
</svg>
