<svg width="15" height="18" viewBox="0 0 15 18" fill="none" xmlns="http://www.w3.org/2000/svg">
<g id="label-paired / caption / bell-on-caption / regular" clip-path="url(#clip0_2556_10151)">
<path id="icon" d="M14.2031 3.71094C14.2969 3.89844 14.2266 4.13281 14.0391 4.22656L12.5391 4.97656C12.3516 5.07031 12.1172 4.97656 12.0234 4.8125C11.9297 4.625 12 4.39062 12.1875 4.29688L13.6875 3.54688C13.875 3.45312 14.1094 3.52344 14.2031 3.71094ZM7.125 3.875C7.125 3.6875 7.28906 3.5 7.5 3.5C7.6875 3.5 7.875 3.6875 7.875 3.875V4.27344C9.75 4.46094 11.25 6.05469 11.25 8V8.70312C11.25 9.71094 11.6484 10.6953 12.375 11.4219L12.4453 11.4922C12.6328 11.6797 12.75 11.9609 12.75 12.2188C12.75 12.8047 12.2812 13.2734 11.6953 13.2734H3.28125C2.69531 13.25 2.25 12.8047 2.25 12.2188C2.25 11.9375 2.34375 11.6797 2.55469 11.4922L2.60156 11.4219C3.32812 10.6953 3.75 9.71094 3.75 8.67969V8C3.75 6.05469 5.22656 4.46094 7.125 4.27344V3.875ZM7.5 5C5.83594 5 4.5 6.35938 4.5 8V8.70312C4.5 9.92188 4.00781 11.0938 3.14062 11.9609L3.07031 12.0312C3.02344 12.0781 2.97656 12.1484 2.97656 12.2188C2.97656 12.3828 3.11719 12.5234 3.28125 12.5234H11.6953C11.8594 12.5234 12 12.3828 12 12.2188C12 12.1484 11.9531 12.0781 11.9062 12.0312L11.8359 11.9609C10.9688 11.0938 10.4766 9.92188 10.4766 8.70312V8C10.4766 6.35938 9.14062 5 7.47656 5H7.5ZM6.77344 14.2578C6.89062 14.5625 7.17188 14.75 7.5 14.75C7.80469 14.75 8.08594 14.5625 8.20312 14.2578C8.27344 14.0703 8.48438 13.9531 8.67188 14.0234C8.85938 14.0938 8.97656 14.3047 8.90625 14.5156C8.69531 15.1016 8.13281 15.5 7.5 15.5C6.84375 15.5 6.28125 15.1016 6.07031 14.5156C6 14.3047 6.11719 14.0938 6.30469 14.0234C6.49219 13.9531 6.70312 14.0703 6.77344 14.2578ZM0 7.625C0 7.4375 0.164062 7.25 0.375 7.25H2.25C2.4375 7.25 2.625 7.4375 2.625 7.625C2.625 7.83594 2.4375 8 2.25 8H0.375C0.164062 8 0 7.83594 0 7.625ZM12.75 7.25H14.625C14.8125 7.25 15 7.4375 15 7.625C15 7.83594 14.8125 8 14.625 8H12.75C12.5391 8 12.375 7.83594 12.375 7.625C12.375 7.4375 12.5391 7.25 12.75 7.25ZM0.9375 4.22656C0.75 4.13281 0.679688 3.89844 0.773438 3.71094C0.867188 3.52344 1.10156 3.45312 1.28906 3.54688L2.78906 4.29688C2.97656 4.39062 3.04688 4.625 2.95312 4.8125C2.85938 4.97656 2.625 5.07031 2.4375 4.97656L0.9375 4.22656Z" fill="black" fill-opacity="0.72"/>
</g>
<defs>
<clipPath id="clip0_2556_10151">
<rect width="15" height="18" fill="white"/>
</clipPath>
</defs>
</svg>
