<svg width="16" height="24" viewBox="0 0 16 24" fill="none" xmlns="http://www.w3.org/2000/svg">
<g id="label-paired / md / right-from-bracket-md / regular" clip-path="url(#clip0_2556_15142)">
<path id="icon" d="M14.9688 11.9688L10.8438 8.0625C10.8125 8.03125 10.75 8 10.6875 8C10.5938 8 10.5 8.09375 10.5 8.21875V10C10.5 10.2812 10.25 10.5 10 10.5H6.25C6.09375 10.5 6 10.625 6 10.75V13.25C6 13.4062 6.09375 13.5 6.25 13.5H10C10.25 13.5 10.5 13.75 10.5 14V15.8125C10.5 15.9062 10.5938 16 10.6875 16C10.75 16 10.8125 16 10.8438 15.9688L14.9688 12.0625C14.9688 12.0625 15 12.0312 15 12L14.9688 11.9688ZM16 12C16 12.3125 15.875 12.5938 15.6562 12.8125L11.5312 16.6875C11.3125 16.9062 11 17 10.6875 17C10.0312 17 9.5 16.4688 9.5 15.8125V14.5H6.25C5.53125 14.5 5 13.9688 5 13.25V10.75C5 10.0625 5.53125 9.5 6.25 9.5H9.5V8.21875C9.5 7.5625 10.0312 7 10.6875 7C11 7 11.3125 7.125 11.5312 7.34375L15.6562 11.2188C15.875 11.4375 16 11.7188 16 12ZM5.5 6H2.5C1.65625 6 1 6.6875 1 7.5V16.5C1 17.3438 1.65625 18 2.5 18H5.5C5.75 18 6 18.25 6 18.5C6 18.7812 5.75 19 5.5 19H2.5C1.09375 19 0 17.9062 0 16.5V7.5C0 6.125 1.09375 5 2.5 5H5.5C5.75 5 6 5.25 6 5.5C6 5.78125 5.75 6 5.5 6Z" fill="black" fill-opacity="0.72"/>
</g>
<defs>
<clipPath id="clip0_2556_15142">
<rect width="16" height="24" fill="white"/>
</clipPath>
</defs>
</svg>
