<svg width="11" height="18" viewBox="0 0 11 18" fill="none" xmlns="http://www.w3.org/2000/svg">
<g id="label-paired / caption / qrcode-caption / fill" clip-path="url(#clip0_2556_10016)">
<path id="icon" d="M0.25 5.375C0.25 4.76562 0.742188 4.25 1.375 4.25H3.625C4.23438 4.25 4.75 4.76562 4.75 5.375V7.625C4.75 8.25781 4.23438 8.75 3.625 8.75H1.375C0.742188 8.75 0.25 8.25781 0.25 7.625V5.375ZM1.75 5.75V7.25H3.25V5.75H1.75ZM0.25 11.375C0.25 10.7656 0.742188 10.25 1.375 10.25H3.625C4.23438 10.25 4.75 10.7656 4.75 11.375V13.625C4.75 14.2578 4.23438 14.75 3.625 14.75H1.375C0.742188 14.75 0.25 14.2578 0.25 13.625V11.375ZM1.75 11.75V13.25H3.25V11.75H1.75ZM7.375 4.25H9.625C10.2344 4.25 10.75 4.76562 10.75 5.375V7.625C10.75 8.25781 10.2344 8.75 9.625 8.75H7.375C6.74219 8.75 6.25 8.25781 6.25 7.625V5.375C6.25 4.76562 6.74219 4.25 7.375 4.25ZM9.25 5.75H7.75V7.25H9.25V5.75ZM6.25 10.625C6.25 10.4375 6.41406 10.25 6.625 10.25H8.125C8.3125 10.25 8.5 10.4375 8.5 10.625C8.5 10.8359 8.66406 11 8.875 11H9.625C9.8125 11 10 10.8359 10 10.625C10 10.4375 10.1641 10.25 10.375 10.25C10.5625 10.25 10.75 10.4375 10.75 10.625V12.875C10.75 13.0859 10.5625 13.25 10.375 13.25H8.875C8.66406 13.25 8.5 13.0859 8.5 12.875C8.5 12.6875 8.3125 12.5 8.125 12.5C7.91406 12.5 7.75 12.6875 7.75 12.875V14.375C7.75 14.5859 7.5625 14.75 7.375 14.75H6.625C6.41406 14.75 6.25 14.5859 6.25 14.375V10.625ZM8.875 14.75C8.66406 14.75 8.5 14.5859 8.5 14.375C8.5 14.1875 8.66406 14 8.875 14C9.0625 14 9.25 14.1875 9.25 14.375C9.25 14.5859 9.0625 14.75 8.875 14.75ZM10.375 14.75C10.1641 14.75 10 14.5859 10 14.375C10 14.1875 10.1641 14 10.375 14C10.5625 14 10.75 14.1875 10.75 14.375C10.75 14.5859 10.5625 14.75 10.375 14.75Z" fill="black" fill-opacity="0.72"/>
</g>
<defs>
<clipPath id="clip0_2556_10016">
<rect width="11" height="18" fill="white"/>
</clipPath>
</defs>
</svg>
