<svg width="11" height="22" viewBox="0 0 11 22" fill="none" xmlns="http://www.w3.org/2000/svg">
<g id="label-paired / sm / arrow-down-to-line-sm / fill" clip-path="url(#clip0_2556_12623)">
<path id="icon" d="M1.125 16.875C0.632812 16.875 0.25 16.4922 0.25 16C0.25 15.5352 0.632812 15.125 1.125 15.125H9.875C10.3398 15.125 10.75 15.5352 10.75 16C10.75 16.4922 10.3398 16.875 9.875 16.875H1.125ZM6.10156 13.1289C5.77344 13.4844 5.19922 13.4844 4.87109 13.1289L1.37109 9.62891C1.01562 9.30078 1.01562 8.72656 1.37109 8.39844C1.69922 8.04297 2.27344 8.04297 2.60156 8.39844L4.625 10.3945V5.5C4.625 5.03516 5.00781 4.625 5.5 4.625C5.96484 4.625 6.375 5.03516 6.375 5.5V10.3945L8.37109 8.39844C8.69922 8.04297 9.27344 8.04297 9.60156 8.39844C9.95703 8.72656 9.95703 9.30078 9.60156 9.62891L6.10156 13.1289Z" fill="black" fill-opacity="0.72"/>
</g>
<defs>
<clipPath id="clip0_2556_12623">
<rect width="11" height="22" fill="white"/>
</clipPath>
</defs>
</svg>
