<svg width="12" height="18" viewBox="0 0 12 18" fill="none" xmlns="http://www.w3.org/2000/svg">
<g id="label-paired / caption / chevrons-left-caption / regular" clip-path="url(#clip0_2556_10309)">
<path id="icon" d="M1.21875 9.24219L5.71875 4.74219C5.85938 4.60156 6.11719 4.60156 6.25781 4.74219C6.39844 4.88281 6.39844 5.14062 6.25781 5.28125L2.01562 9.5L6.25781 13.7422C6.39844 13.8828 6.39844 14.1406 6.25781 14.2812C6.11719 14.4219 5.85938 14.4219 5.71875 14.2812L1.21875 9.78125C1.07812 9.64062 1.07812 9.38281 1.21875 9.24219ZM10.2188 4.74219C10.3594 4.60156 10.6172 4.60156 10.7578 4.74219C10.8984 4.88281 10.8984 5.14062 10.7578 5.28125L6.51562 9.5L10.7578 13.7422C10.8984 13.8828 10.8984 14.1406 10.7578 14.2812C10.6172 14.4219 10.3594 14.4219 10.2188 14.2812L5.71875 9.78125C5.57812 9.64062 5.57812 9.38281 5.71875 9.24219L10.2188 4.74219Z" fill="black" fill-opacity="0.72"/>
</g>
<defs>
<clipPath id="clip0_2556_10309">
<rect width="12" height="18" fill="white"/>
</clipPath>
</defs>
</svg>
