<svg width="12" height="18" viewBox="0 0 12 18" fill="none" xmlns="http://www.w3.org/2000/svg">
<g id="label-paired / caption / file-pdf-caption / bold" clip-path="url(#clip0_2556_10576)">
<path id="icon" d="M1.5 14.375H2.625V15.5H1.5C0.65625 15.5 0 14.8438 0 14V5C0 4.17969 0.65625 3.5 1.5 3.5H5.36719C5.76562 3.5 6.14062 3.66406 6.42188 3.94531L8.55469 6.07812C8.83594 6.35938 9 6.73438 9 7.13281V10.625H7.875V7.25H6C5.57812 7.25 5.25 6.92188 5.25 6.5V4.625H1.5C1.28906 4.625 1.125 4.8125 1.125 5V14C1.125 14.2109 1.28906 14.375 1.5 14.375ZM4.125 11.75H4.875C5.57812 11.75 6.1875 12.3594 6.1875 13.0625C6.1875 13.7891 5.57812 14.375 4.875 14.375H4.5V15.125C4.5 15.3359 4.3125 15.5 4.125 15.5C3.91406 15.5 3.75 15.3359 3.75 15.125V14V12.125C3.75 11.9375 3.91406 11.75 4.125 11.75ZM4.875 13.625C5.17969 13.625 5.4375 13.3906 5.4375 13.0625C5.4375 12.7578 5.17969 12.5 4.875 12.5H4.5V13.625H4.875ZM7.125 11.75H7.875C8.48438 11.75 9 12.2656 9 12.875V14.375C9 15.0078 8.48438 15.5 7.875 15.5H7.125C6.91406 15.5 6.75 15.3359 6.75 15.125V12.125C6.75 11.9375 6.91406 11.75 7.125 11.75ZM7.875 14.75C8.0625 14.75 8.25 14.5859 8.25 14.375V12.875C8.25 12.6875 8.0625 12.5 7.875 12.5H7.5V14.75H7.875ZM9.75 12.125C9.75 11.9375 9.91406 11.75 10.125 11.75H11.25C11.4375 11.75 11.625 11.9375 11.625 12.125C11.625 12.3359 11.4375 12.5 11.25 12.5H10.5V13.25H11.25C11.4375 13.25 11.625 13.4375 11.625 13.625C11.625 13.8359 11.4375 14 11.25 14H10.5V15.125C10.5 15.3359 10.3125 15.5 10.125 15.5C9.91406 15.5 9.75 15.3359 9.75 15.125V13.625V12.125Z" fill="black" fill-opacity="0.72"/>
</g>
<defs>
<clipPath id="clip0_2556_10576">
<rect width="12" height="18" fill="white"/>
</clipPath>
</defs>
</svg>
