<svg width="13" height="22" viewBox="0 0 13 22" fill="none" xmlns="http://www.w3.org/2000/svg">
<g id="label-paired / sm / square-sm / regular" clip-path="url(#clip0_2556_12767)">
<path id="icon" d="M10.875 5.5H2.125C1.63281 5.5 1.25 5.91016 1.25 6.375V15.125C1.25 15.6172 1.63281 16 2.125 16H10.875C11.3398 16 11.75 15.6172 11.75 15.125V6.375C11.75 5.91016 11.3398 5.5 10.875 5.5ZM2.125 4.625H10.875C11.832 4.625 12.625 5.41797 12.625 6.375V15.125C12.625 16.1094 11.832 16.875 10.875 16.875H2.125C1.14062 16.875 0.375 16.1094 0.375 15.125V6.375C0.375 5.41797 1.14062 4.625 2.125 4.625Z" fill="black" fill-opacity="0.72"/>
</g>
<defs>
<clipPath id="clip0_2556_12767">
<rect width="13" height="22" fill="white"/>
</clipPath>
</defs>
</svg>
