<svg width="16" height="24" viewBox="0 0 16 24" fill="none" xmlns="http://www.w3.org/2000/svg">
<g id="label-paired / md / phone-md / fill" clip-path="url(#clip0_2556_15268)">
<path id="icon" d="M5.125 4.78125L6.375 7.78125C6.59375 8.28125 6.46875 8.875 6.03125 9.21875L4.5 10.5C5.53125 12.6875 7.3125 14.4688 9.5 15.5L10.7812 13.9688C11.125 13.5312 11.7188 13.4062 12.2188 13.625L15.2188 14.875C15.8125 15.0938 16.0938 15.75 15.9375 16.3438L15.1875 19.0938C15.0312 19.625 14.5625 20 14 20C6.25 20 0 13.75 0 6C0 5.4375 0.375 4.96875 0.90625 4.8125L3.65625 4.0625C4.25 3.90625 4.90625 4.1875 5.125 4.78125Z" fill="black" fill-opacity="0.72"/>
</g>
<defs>
<clipPath id="clip0_2556_15268">
<rect width="16" height="24" fill="white"/>
</clipPath>
</defs>
</svg>
