<svg width="15" height="36" viewBox="0 0 15 36" fill="none" xmlns="http://www.w3.org/2000/svg">
<g id="label-paired / xl / question-xl / regular" clip-path="url(#clip0_3578_661)">
<path id="icon" d="M6.75 9C4.26562 9 2.25 11.0156 2.25 13.5C2.25 13.9219 1.875 14.25 1.5 14.25C1.07812 14.25 0.75 13.9219 0.75 13.5C0.75 10.2188 3.42188 7.5 6.75 7.5H8.25C11.5312 7.5 14.25 10.2188 14.25 13.5C14.25 15.1875 13.4531 16.7344 12.1406 17.7188L9.28125 19.875C8.625 20.3438 8.25 21.1406 8.25 21.9375V22.5C8.25 22.9219 7.875 23.25 7.5 23.25C7.07812 23.25 6.75 22.9219 6.75 22.5V21.9375C6.75 20.6719 7.35938 19.4531 8.39062 18.6562L11.25 16.5C12.1875 15.7969 12.75 14.7188 12.75 13.5C12.75 11.0156 10.7344 9 8.25 9H6.75ZM6.375 27C6.375 26.3906 6.84375 25.875 7.5 25.875C8.10938 25.875 8.625 26.3906 8.625 27C8.625 27.6562 8.10938 28.125 7.5 28.125C6.84375 28.125 6.375 27.6562 6.375 27Z" fill="black" fill-opacity="0.72"/>
</g>
<defs>
<clipPath id="clip0_3578_661">
<rect width="15" height="36" fill="white"/>
</clipPath>
</defs>
</svg>
