<svg width="24" height="36" viewBox="0 0 24 36" fill="none" xmlns="http://www.w3.org/2000/svg">
<g id="label-paired / xl / circle-user-xl / regular" clip-path="url(#clip0_2556_19328)">
<path id="icon" d="M19.3125 25.5469C21.2812 23.625 22.5 20.9531 22.5 18C22.5 12.2344 17.7656 7.5 12 7.5C6.1875 7.5 1.5 12.2344 1.5 18C1.5 20.9531 2.71875 23.625 4.64062 25.5469C5.29688 22.9688 7.6875 21 10.5 21H13.5C16.2656 21 18.6562 22.9688 19.3125 25.5469ZM17.9531 26.625V26.6719C17.7656 24.3281 15.8438 22.5 13.5 22.5H10.5C8.10938 22.5 6.1875 24.3281 6 26.6719C7.6875 27.8438 9.75 28.5 12 28.5C14.2031 28.5 16.2656 27.8438 17.9531 26.625ZM12 30C7.6875 30 3.75 27.75 1.59375 24C-0.5625 20.2969 -0.5625 15.75 1.59375 12C3.75 8.29688 7.6875 6 12 6C16.2656 6 20.2031 8.29688 22.3594 12C24.5156 15.75 24.5156 20.2969 22.3594 24C20.2031 27.75 16.2656 30 12 30ZM12 18C12.7969 18 13.5 17.5781 13.9219 16.875C14.3438 16.2188 14.3438 15.3281 13.9219 14.625C13.5 13.9688 12.7969 13.5 12 13.5C11.1562 13.5 10.4531 13.9688 10.0312 14.625C9.60938 15.3281 9.60938 16.2188 10.0312 16.875C10.4531 17.5781 11.1562 18 12 18ZM8.25 15.75C8.25 14.4375 8.95312 13.2188 10.125 12.5156C11.25 11.8594 12.7031 11.8594 13.875 12.5156C15 13.2188 15.75 14.4375 15.75 15.75C15.75 17.1094 15 18.3281 13.875 19.0312C12.7031 19.6875 11.25 19.6875 10.125 19.0312C8.95312 18.3281 8.25 17.1094 8.25 15.75Z" fill="black" fill-opacity="0.72"/>
</g>
<defs>
<clipPath id="clip0_2556_19328">
<rect width="24" height="36" fill="white"/>
</clipPath>
</defs>
</svg>
