<svg width="14" height="22" viewBox="0 0 14 22" fill="none" xmlns="http://www.w3.org/2000/svg">
<g id="label-paired / sm / sun-bright-sm / fill" clip-path="url(#clip0_2556_12797)">
<path id="icon" d="M7 3.75C7.35547 3.75 7.65625 4.05078 7.65625 4.40625V6.15625C7.65625 6.53906 7.35547 6.8125 7 6.8125C6.61719 6.8125 6.34375 6.53906 6.34375 6.15625V4.40625C6.34375 4.05078 6.61719 3.75 7 3.75ZM7 14.6875C7.35547 14.6875 7.65625 14.9883 7.65625 15.3438V17.0938C7.65625 17.4766 7.35547 17.75 7 17.75C6.61719 17.75 6.34375 17.4766 6.34375 17.0938V15.3438C6.34375 14.9883 6.61719 14.6875 7 14.6875ZM13.3438 11.4062H11.5938C11.2109 11.4062 10.9375 11.1328 10.9375 10.75C10.9375 10.3945 11.2109 10.0938 11.5938 10.0938H13.3438C13.6992 10.0938 14 10.3945 14 10.75C14 11.1328 13.6992 11.4062 13.3438 11.4062ZM3.0625 10.75C3.0625 11.1328 2.76172 11.4062 2.40625 11.4062H0.65625C0.273438 11.4062 0 11.1328 0 10.75C0 10.3945 0.273438 10.0938 0.65625 10.0938H2.40625C2.76172 10.0938 3.0625 10.3945 3.0625 10.75ZM11.9492 6.73047L10.6914 7.98828C10.4453 8.23438 10.0352 8.23438 9.76172 7.98828C9.51562 7.71484 9.51562 7.30469 9.76172 7.05859L11.0195 5.80078C11.2656 5.55469 11.6758 5.55469 11.9492 5.80078C12.1953 6.07422 12.1953 6.48438 11.9492 6.73047ZM4.21094 13.5391C4.45703 13.8125 4.45703 14.2227 4.21094 14.4688L2.95312 15.6992C2.70703 15.9727 2.29688 15.9727 2.05078 15.6992C1.77734 15.4531 1.77734 15.043 2.05078 14.7969L3.28125 13.5391C3.52734 13.293 3.9375 13.293 4.21094 13.5391ZM11.0195 15.6992L9.76172 14.4688C9.51562 14.2227 9.51562 13.8125 9.76172 13.5391C10.0352 13.293 10.4453 13.293 10.6914 13.5391L11.9492 14.7969C12.1953 15.043 12.1953 15.4531 11.9492 15.6992C11.6758 15.9727 11.2656 15.9727 11.0195 15.6992ZM4.21094 7.98828C3.9375 8.23438 3.52734 8.23438 3.28125 7.98828L2.05078 6.73047C1.77734 6.48438 1.77734 6.07422 2.05078 5.80078C2.29688 5.55469 2.70703 5.55469 2.95312 5.80078L4.21094 7.05859C4.45703 7.30469 4.45703 7.71484 4.21094 7.98828ZM7 13.8125C5.87891 13.8125 4.89453 13.2383 4.34766 12.2812C3.77344 11.3516 3.77344 10.1758 4.34766 9.21875C4.89453 8.28906 5.87891 7.6875 7 7.6875C8.09375 7.6875 9.07812 8.28906 9.625 9.21875C10.1992 10.1758 10.1992 11.3516 9.625 12.2812C9.07812 13.2383 8.09375 13.8125 7 13.8125Z" fill="black" fill-opacity="0.72"/>
</g>
<defs>
<clipPath id="clip0_2556_12797">
<rect width="14" height="22" fill="white"/>
</clipPath>
</defs>
</svg>
