<svg width="20" height="30" viewBox="0 0 20 30" fill="none" xmlns="http://www.w3.org/2000/svg">
<g id="label-paired / lg / circle-four-lg / fill" clip-path="url(#clip0_2556_17299)">
<path id="icon" d="M0 15.5C0 11.9453 1.875 8.66406 5 6.86719C8.08594 5.07031 11.875 5.07031 15 6.86719C18.0859 8.66406 20 11.9453 20 15.5C20 19.0938 18.0859 22.375 15 24.1719C11.875 25.9688 8.08594 25.9688 5 24.1719C1.875 22.375 0 19.0938 0 15.5ZM8.71094 10.5781C8.24219 10.3828 7.69531 10.6562 7.53906 11.1641L5.66406 16.7891C5.54688 17.0625 5.625 17.375 5.78125 17.6094C5.97656 17.8828 6.25 18 6.5625 18H10.625V19.5625C10.625 20.1094 11.0156 20.5 11.5625 20.5C12.0703 20.5 12.5 20.1094 12.5 19.5625V18H12.8125C13.3203 18 13.75 17.6094 13.75 17.0625C13.75 16.5547 13.3203 16.125 12.8125 16.125H12.5V13.9375C12.5 13.4297 12.0703 13 11.5625 13C11.0156 13 10.625 13.4297 10.625 13.9375V16.125H7.85156L9.29688 11.75C9.49219 11.2422 9.21875 10.7344 8.71094 10.5781Z" fill="black" fill-opacity="0.72"/>
</g>
<defs>
<clipPath id="clip0_2556_17299">
<rect width="20" height="30" fill="white"/>
</clipPath>
</defs>
</svg>
