<svg width="14" height="24" viewBox="0 0 14 24" fill="none" xmlns="http://www.w3.org/2000/svg">
<g id="label-paired / md / lock-md / bold" clip-path="url(#clip0_2556_14682)">
<path id="icon" d="M4.5 8V10H9.5V8C9.5 6.625 8.375 5.5 7 5.5C5.59375 5.5 4.5 6.625 4.5 8ZM3 10V8C3 5.8125 4.78125 4 7 4C9.1875 4 11 5.8125 11 8V10H12C13.0938 10 14 10.9062 14 12V18C14 19.125 13.0938 20 12 20H2C0.875 20 0 19.125 0 18V12C0 10.9062 0.875 10 2 10H3ZM1.5 12V18C1.5 18.2812 1.71875 18.5 2 18.5H12C12.25 18.5 12.5 18.2812 12.5 18V12C12.5 11.75 12.25 11.5 12 11.5H2C1.71875 11.5 1.5 11.75 1.5 12Z" fill="black" fill-opacity="0.72"/>
</g>
<defs>
<clipPath id="clip0_2556_14682">
<rect width="14" height="24" fill="white"/>
</clipPath>
</defs>
</svg>
