<svg width="21" height="36" viewBox="0 0 21 36" fill="none" xmlns="http://www.w3.org/2000/svg">
<g id="label-paired / xl / linkedin-xl" clip-path="url(#clip0_2556_19241)">
<path id="icon" d="M19.5 7.5C20.2969 7.5 21 8.20312 21 9.04688V27C21 27.8438 20.2969 28.5 19.5 28.5H1.45312C0.65625 28.5 0 27.8438 0 27V9.04688C0 8.20312 0.65625 7.5 1.45312 7.5H19.5ZM6.32812 25.5V15.5156H3.23438V25.5H6.32812ZM4.78125 14.1094C5.76562 14.1094 6.5625 13.3125 6.5625 12.3281C6.5625 11.3438 5.76562 10.5 4.78125 10.5C3.75 10.5 2.95312 11.3438 2.95312 12.3281C2.95312 13.3125 3.75 14.1094 4.78125 14.1094ZM18 25.5V20.0156C18 17.3438 17.3906 15.2344 14.25 15.2344C12.75 15.2344 11.7188 16.0781 11.2969 16.875H11.25V15.5156H8.29688V25.5H11.3906V20.5781C11.3906 19.2656 11.625 18 13.2656 18C14.8594 18 14.8594 19.5 14.8594 20.625V25.5H18Z" fill="black" fill-opacity="0.72"/>
</g>
<defs>
<clipPath id="clip0_2556_19241">
<rect width="21" height="36" fill="white"/>
</clipPath>
</defs>
</svg>
