<svg width="20" height="24" viewBox="0 0 20 24" fill="none" xmlns="http://www.w3.org/2000/svg">
<g id="label-paired / md / graduation-cap-md / fill" clip-path="url(#clip0_4124_439)">
<path id="icon" d="M10 5C10.25 5 10.5 5.0625 10.7188 5.15625L19.5 8.3125C19.7812 8.40625 20 8.6875 20 9C20 9.34375 19.7812 9.625 19.5 9.71875L10.7188 12.875C10.5 12.9688 10.25 13 9.96875 13C9.71875 13 9.46875 12.9688 9.25 12.875L4.25 11.0625C4.53125 10.7812 4.875 10.5625 5.25 10.4062L10.1562 8.46875C10.4375 8.375 10.5625 8.09375 10.4375 7.8125C10.3438 7.5625 10.0625 7.4375 9.8125 7.53125L4.90625 9.46875C4.28125 9.71875 3.75 10.0938 3.34375 10.5938C2.8125 11.3125 2.5 12.1875 2.5 13.125V13.9062C2.6875 14.3125 2.8125 14.7812 2.90625 15.2188C3.09375 16.0625 3.25 17.2812 2.96875 18.625C2.9375 18.75 2.875 18.875 2.75 18.9375C2.625 19 2.5 19.0312 2.375 19L0.375 18.5C0.1875 18.4688 0.0625 18.3438 0 18.1875C-0.03125 18.0312 0 17.8438 0.09375 17.7188C0.34375 17.3438 0.59375 16.9375 0.78125 16.5312C1.15625 15.8125 1.5 14.9062 1.5 14V13.125C1.5 12.125 1.78125 11.1875 2.28125 10.375L0.46875 9.71875C0.1875 9.625 0 9.34375 0 9C0 8.6875 0.1875 8.40625 0.46875 8.3125L9.25 5.15625C9.46875 5.0625 9.71875 5 10 5ZM4 16.75L4.46875 12.2188L8.90625 13.8125C9.25 13.9375 9.625 14 10 14C10.3438 14 10.7188 13.9375 11.0625 13.8125L15.5 12.2188L16 16.75C16 17.875 13.3125 19 10 19C6.6875 19 4 17.875 4 16.75Z" fill="black" fill-opacity="0.72"/>
</g>
<defs>
<clipPath id="clip0_4124_439">
<rect width="20" height="24" fill="white"/>
</clipPath>
</defs>
</svg>
