<svg width="16" height="24" viewBox="0 0 16 24" fill="none" xmlns="http://www.w3.org/2000/svg">
<g id="label-paired / md / arrow-rotate-left-md / fill" clip-path="url(#clip0_3431_895)">
<path id="icon" d="M3.90625 9H5.5C6.03125 9 6.5 9.46875 6.5 10C6.5 10.5625 6.03125 11 5.5 11H1.5C0.9375 11 0.5 10.5625 0.5 10V6C0.5 5.46875 0.9375 5 1.5 5C2.03125 5 2.5 5.46875 2.5 6V7.625L3.03125 7.0625C5.78125 4.34375 10.1875 4.34375 12.9375 7.0625C15.6562 9.8125 15.6562 14.2188 12.9375 16.9688C10.1875 19.6875 5.78125 19.6875 3.03125 16.9688C2.65625 16.5625 2.65625 15.9375 3.03125 15.5625C3.4375 15.1562 4.0625 15.1562 4.4375 15.5625C6.40625 17.5 9.5625 17.5 11.5312 15.5625C13.4688 13.5938 13.4688 10.4375 11.5312 8.46875C9.5625 6.53125 6.40625 6.53125 4.4375 8.46875L3.90625 9Z" fill="black" fill-opacity="0.72"/>
</g>
<defs>
<clipPath id="clip0_3431_895">
<rect width="16" height="24" fill="white"/>
</clipPath>
</defs>
</svg>
