<svg width="21" height="36" viewBox="0 0 21 36" fill="none" xmlns="http://www.w3.org/2000/svg">
<g id="label-paired / xl / arrow-up-from-bracket-xl / bold" clip-path="url(#clip0_2556_19997)">
<path id="icon" d="M11.2969 6.32812L17.25 12.3281C17.7188 12.7969 17.7188 13.5 17.25 13.9219C16.8281 14.3906 16.125 14.3906 15.6562 13.9219L11.5781 9.84375V21.375C11.5781 22.0312 11.1094 22.5 10.4531 22.5C9.84375 22.5 9.32812 22.0312 9.32812 21.375V9.84375L5.25 13.9219C4.82812 14.3906 4.125 14.3906 3.70312 13.9219C3.23438 13.5 3.23438 12.7969 3.70312 12.3281L9.70312 6.32812C10.125 5.90625 10.8281 5.90625 11.2969 6.32812ZM2.25 22.125V25.875C2.25 26.9531 3.04688 27.75 4.125 27.75H16.875C17.9062 27.75 18.75 26.9531 18.75 25.875V22.125C18.75 21.5156 19.2188 21 19.875 21C20.4844 21 21 21.5156 21 22.125V25.875C21 28.1719 19.125 30 16.875 30H4.125C1.82812 30 0 28.1719 0 25.875V22.125C0 21.5156 0.46875 21 1.125 21C1.73438 21 2.25 21.5156 2.25 22.125Z" fill="black" fill-opacity="0.72"/>
</g>
<defs>
<clipPath id="clip0_2556_19997">
<rect width="21" height="36" fill="white"/>
</clipPath>
</defs>
</svg>
