<svg width="21" height="36" viewBox="0 0 21 36" fill="none" xmlns="http://www.w3.org/2000/svg">
<g id="label-paired / xl / bars-xl / regular" clip-path="url(#clip0_2556_19952)">
<path id="icon" d="M0 9.75C0 9.375 0.328125 9 0.75 9H20.25C20.625 9 21 9.375 21 9.75C21 10.1719 20.625 10.5 20.25 10.5H0.75C0.328125 10.5 0 10.1719 0 9.75ZM0 17.25C0 16.875 0.328125 16.5 0.75 16.5H20.25C20.625 16.5 21 16.875 21 17.25C21 17.6719 20.625 18 20.25 18H0.75C0.328125 18 0 17.6719 0 17.25ZM21 24.75C21 25.1719 20.625 25.5 20.25 25.5H0.75C0.328125 25.5 0 25.1719 0 24.75C0 24.375 0.328125 24 0.75 24H20.25C20.625 24 21 24.375 21 24.75Z" fill="black" fill-opacity="0.72"/>
</g>
<defs>
<clipPath id="clip0_2556_19952">
<rect width="21" height="36" fill="white"/>
</clipPath>
</defs>
</svg>
