<svg width="30" height="36" viewBox="0 0 30 36" fill="none" xmlns="http://www.w3.org/2000/svg">
<g id="label-paired / xl / bell-on-xl / regular" clip-path="url(#clip0_2556_19474)">
<path id="icon" d="M28.4062 6.42188C28.5938 6.79688 28.4531 7.26562 28.0781 7.45312L25.0781 8.95312C24.7031 9.14062 24.2344 8.95312 24.0469 8.625C23.8594 8.25 24 7.78125 24.375 7.59375L27.375 6.09375C27.75 5.90625 28.2188 6.04688 28.4062 6.42188ZM14.25 6.75C14.25 6.375 14.5781 6 15 6C15.375 6 15.75 6.375 15.75 6.75V7.54688C19.5 7.92188 22.5 11.1094 22.5 15V16.4062C22.5 18.4219 23.2969 20.3906 24.75 21.8438L24.8906 21.9844C25.2656 22.3594 25.5 22.9219 25.5 23.4375C25.5 24.6094 24.5625 25.5469 23.3906 25.5469H6.5625C5.39062 25.5 4.5 24.6094 4.5 23.4375C4.5 22.875 4.6875 22.3594 5.10938 21.9844L5.20312 21.8438C6.65625 20.3906 7.5 18.4219 7.5 16.3594V15C7.5 11.1094 10.4531 7.92188 14.25 7.54688V6.75ZM15 9C11.6719 9 9 11.7188 9 15V16.4062C9 18.8438 8.01562 21.1875 6.28125 22.9219L6.14062 23.0625C6.04688 23.1562 5.95312 23.2969 5.95312 23.4375C5.95312 23.7656 6.23438 24.0469 6.5625 24.0469H23.3906C23.7188 24.0469 24 23.7656 24 23.4375C24 23.2969 23.9062 23.1562 23.8125 23.0625L23.6719 22.9219C21.9375 21.1875 20.9531 18.8438 20.9531 16.4062V15C20.9531 11.7188 18.2812 9 14.9531 9H15ZM13.5469 27.5156C13.7812 28.125 14.3438 28.5 15 28.5C15.6094 28.5 16.1719 28.125 16.4062 27.5156C16.5469 27.1406 16.9688 26.9062 17.3438 27.0469C17.7188 27.1875 17.9531 27.6094 17.8125 28.0312C17.3906 29.2031 16.2656 30 15 30C13.6875 30 12.5625 29.2031 12.1406 28.0312C12 27.6094 12.2344 27.1875 12.6094 27.0469C12.9844 26.9062 13.4062 27.1406 13.5469 27.5156ZM0 14.25C0 13.875 0.328125 13.5 0.75 13.5H4.5C4.875 13.5 5.25 13.875 5.25 14.25C5.25 14.6719 4.875 15 4.5 15H0.75C0.328125 15 0 14.6719 0 14.25ZM25.5 13.5H29.25C29.625 13.5 30 13.875 30 14.25C30 14.6719 29.625 15 29.25 15H25.5C25.0781 15 24.75 14.6719 24.75 14.25C24.75 13.875 25.0781 13.5 25.5 13.5ZM1.875 7.45312C1.5 7.26562 1.35938 6.79688 1.54688 6.42188C1.73438 6.04688 2.20312 5.90625 2.57812 6.09375L5.57812 7.59375C5.95312 7.78125 6.09375 8.25 5.90625 8.625C5.71875 8.95312 5.25 9.14062 4.875 8.95312L1.875 7.45312Z" fill="black" fill-opacity="0.72"/>
</g>
<defs>
<clipPath id="clip0_2556_19474">
<rect width="30" height="36" fill="white"/>
</clipPath>
</defs>
</svg>
