<svg width="18" height="36" viewBox="0 0 18 36" fill="none" xmlns="http://www.w3.org/2000/svg">
<g id="label-paired / xl / file-excel-xl / bold" clip-path="url(#clip0_2556_19255)">
<path id="icon" d="M2.25 27C2.25 27.4219 2.57812 27.75 3 27.75H15C15.375 27.75 15.75 27.4219 15.75 27V13.5H12C11.1562 13.5 10.5 12.8438 10.5 12V8.25H3C2.57812 8.25 2.25 8.625 2.25 9V27ZM3 6H10.7344C11.5312 6 12.2812 6.32812 12.8438 6.89062L17.1094 11.1562C17.6719 11.7188 18 12.4688 18 13.2656V27C18 28.6875 16.6406 30 15 30H3C1.3125 30 0 28.6875 0 27V9C0 7.35938 1.3125 6 3 6ZM7.21875 16.9688L9 19.1719L10.7344 16.9688C11.1094 16.4531 11.8125 16.3594 12.2812 16.7344C12.7969 17.1562 12.8906 17.8594 12.4688 18.3281L10.4062 21L12.5156 23.7188C12.8906 24.1875 12.7969 24.8906 12.2812 25.2656C11.8125 25.6406 11.1094 25.5938 10.7344 25.0781L9 22.875L7.26562 25.0781C6.84375 25.5938 6.14062 25.6875 5.67188 25.2656C5.15625 24.8906 5.10938 24.1875 5.48438 23.7188L7.54688 21L5.48438 18.3281C5.0625 17.8594 5.15625 17.1562 5.67188 16.7812C6.14062 16.3594 6.84375 16.4531 7.21875 16.9688Z" fill="black" fill-opacity="0.72"/>
</g>
<defs>
<clipPath id="clip0_2556_19255">
<rect width="18" height="36" fill="white"/>
</clipPath>
</defs>
</svg>
