<svg width="16" height="24" viewBox="0 0 16 24" fill="none" xmlns="http://www.w3.org/2000/svg">
<g id="label-paired / md / backward-md / regular" clip-path="url(#clip0_2556_14694)">
<path id="icon" d="M1.15625 12L8 16.9688V7.0625L1.15625 12ZM8.0625 6C8.5625 6 9 6.4375 9 6.9375V10.1875L14.5 6.1875C14.6562 6.0625 14.8438 6 15.0625 6C15.5625 6 16 6.4375 16 6.9375V17.0625C16 17.5938 15.5625 18 15.0625 18C14.8438 18 14.6562 17.9375 14.5 17.8438L9 13.8438V17.0625C9 17.5938 8.5625 18 8.0625 18C7.84375 18 7.65625 17.9375 7.5 17.8438L0.28125 12.625C0.09375 12.4688 0 12.25 0 12C0 11.7812 0.09375 11.5625 0.28125 11.4062L7.5 6.1875C7.65625 6.0625 7.84375 6 8.0625 6ZM9 12.625L15 16.9688V7.0625L9 11.4062V12.625Z" fill="black" fill-opacity="0.72"/>
</g>
<defs>
<clipPath id="clip0_2556_14694">
<rect width="16" height="24" fill="white"/>
</clipPath>
</defs>
</svg>
