<svg width="20" height="30" viewBox="0 0 20 30" fill="none" xmlns="http://www.w3.org/2000/svg">
<g id="label-paired / lg / puzzle-piece-two-lg / regular" clip-path="url(#clip0_3909_654)">
<path id="icon" d="M17.2656 18.9375C17.6953 19.2891 17.9297 19.8359 17.9297 20.4609C17.9297 21.0859 17.6953 21.5938 17.2656 21.9453C16.875 22.2969 16.3281 22.4922 15.7812 22.5312C15.6641 22.5703 15.5469 22.5312 15.4297 22.4922V23.0391C15.4297 23.5469 15.1562 23.9766 14.7656 24.2891C14.375 24.5625 13.8672 24.7578 13.3203 24.7578C13.2812 24.7578 13.2422 24.7578 13.2422 24.7188H11.6797C10.9766 24.7188 10.6641 23.8984 11.1328 23.4297C11.0938 23.0781 10.9375 22.7656 10.7812 22.5703C10.5859 22.375 10.3125 22.2188 9.96094 22.2188C9.60938 22.2188 9.33594 22.375 9.17969 22.5703C8.98438 22.7656 8.86719 23.0781 8.82812 23.4297C9.29688 23.8984 8.98438 24.7188 8.28125 24.7188H6.71875C6.67969 24.7578 6.64062 24.7578 6.64062 24.7578C6.09375 24.7578 5.54688 24.5625 5.19531 24.2891C4.80469 23.9766 4.53125 23.5469 4.53125 23V18C4.53125 17.7656 4.49219 17.6094 4.49219 17.4531C4.49219 17.2578 4.49219 17.1016 4.53125 16.75V15.5C4.53125 15.4219 4.53125 15.1875 4.49219 14.9922V14.9531C4.41406 14.9922 4.29688 14.9922 4.17969 14.9922C3.63281 14.9531 3.08594 14.7578 2.69531 14.4453C2.26562 14.0938 1.99219 13.5859 1.99219 12.9609C1.99219 12.3359 2.26562 11.8281 2.69531 11.5156C3.125 11.2031 3.63281 11.0859 4.17969 11.0469C4.29688 11.0469 4.41406 11.0469 4.49219 11.0859V11.0469C4.49219 10.8516 4.49219 10.6172 4.49219 10.5C4.49219 9.99219 4.80469 9.5625 5.19531 9.25C5.58594 8.97656 6.09375 8.78125 6.64062 8.78125H7.92969C7.89062 8.70312 7.89062 8.58594 7.89062 8.46875C7.92969 7.88281 8.125 7.375 8.47656 6.94531C8.82812 6.55469 9.375 6.28125 10 6.28125C10.625 6.28125 11.1328 6.55469 11.4844 6.94531C11.8359 7.375 12.0312 7.88281 12.0703 8.46875C12.1094 8.58594 12.0703 8.70312 12.0312 8.78125H13.3203C13.8672 8.78125 14.4141 8.97656 14.8047 9.25C15.1953 9.5625 15.4688 9.99219 15.4688 10.5V16.7891C15.4688 17.0234 15.4688 17.1406 15.4688 17.2578C15.4297 17.375 15.4297 17.4922 15.4297 17.8828V18.3906C15.5469 18.3516 15.6641 18.3516 15.7812 18.3516C16.3281 18.3906 16.875 18.5859 17.3047 18.9375H17.2656ZM6.5625 23.7812C6.60156 23.7812 6.60156 23.7812 6.64062 23.7812H7.92969C7.89062 23.7031 7.89062 23.5859 7.89062 23.4688C7.92969 22.8828 8.125 22.375 8.47656 21.9453C8.82812 21.5547 9.33594 21.2812 9.96094 21.2812C10.5859 21.2812 11.1328 21.5547 11.4844 21.9453C11.8359 22.375 12.0312 22.8828 12.0703 23.4688C12.0703 23.5859 12.0703 23.7031 12.0312 23.7812H13.3203H13.3594C13.7109 23.7812 14.0234 23.6641 14.2188 23.5469C14.4141 23.3516 14.5312 23.1953 14.5312 23.0391V22.1406C14.5312 21.4375 15.3516 21.125 15.8203 21.5938C16.1719 21.5547 16.4844 21.4375 16.6797 21.2422C16.875 21.0859 17.0312 20.8125 17.0312 20.4609C17.0312 20.0703 16.875 19.8359 16.6797 19.6406C16.4844 19.4844 16.1719 19.3281 15.8203 19.2891C15.3516 19.7578 14.5312 19.4453 14.5312 18.7422V17.8828C14.5312 17.4922 14.5312 17.375 14.5312 17.2188H11.6797C11.0156 17.2188 10.6641 16.3984 11.1328 15.9297C11.0938 15.5781 10.9766 15.2656 10.7812 15.0703C10.5859 14.875 10.3516 14.7188 10 14.7188C9.60938 14.7188 9.375 14.875 9.17969 15.0703C9.02344 15.2656 8.86719 15.5781 8.82812 15.9297C9.29688 16.3984 8.98438 17.2188 8.28125 17.2188H5.46875C5.46875 17.2969 5.46875 17.375 5.46875 17.4141C5.46875 17.5703 5.46875 17.7266 5.46875 18V23C5.46875 23.1562 5.54688 23.3516 5.74219 23.5078C5.9375 23.6641 6.25 23.7812 6.5625 23.7812ZM5.46875 16.2812H7.92969C7.89062 16.2031 7.89062 16.0859 7.89062 15.9688C7.92969 15.3828 8.125 14.875 8.47656 14.4453C8.82812 14.0547 9.33594 13.7812 9.96094 13.7812C10.5859 13.7812 11.1328 14.0547 11.4844 14.4453C11.8359 14.875 12.0312 15.3828 12.0703 15.9688C12.0703 16.0859 12.0703 16.2031 12.0312 16.2812H14.5312V10.5C14.5312 10.3438 14.4531 10.1875 14.2188 9.99219C14.0234 9.83594 13.7109 9.71875 13.3203 9.71875H11.6797C10.9766 9.71875 10.6641 8.89844 11.1328 8.42969C11.0938 8.07812 10.9766 7.76562 10.7812 7.57031C10.625 7.375 10.3516 7.21875 10 7.21875C9.64844 7.21875 9.375 7.375 9.17969 7.57031C9.02344 7.76562 8.86719 8.07812 8.82812 8.42969C9.29688 8.89844 8.98438 9.71875 8.28125 9.71875H6.64062C6.28906 9.71875 5.97656 9.83594 5.74219 9.99219C5.54688 10.1875 5.46875 10.3438 5.46875 10.5V10.5391C5.46875 10.6172 5.46875 10.8906 5.42969 11.125C5.39062 11.2812 5.39062 11.3984 5.35156 11.5547C5.3125 11.6719 5.23438 11.8672 5.03906 11.9844C4.88281 12.1016 4.72656 12.1406 4.60938 12.1016C4.45312 12.1016 4.375 12.0625 4.29688 12.0234C4.29688 12.0234 4.25781 12.0234 4.25781 11.9844C4.21875 11.9844 4.21875 11.9844 4.21875 11.9844C3.78906 12.0234 3.47656 12.1406 3.24219 12.2578C3.08594 12.4141 2.96875 12.6094 2.96875 12.9609C2.96875 13.3125 3.08594 13.5469 3.28125 13.7031C3.47656 13.8984 3.78906 14.0156 4.21875 14.0547C4.21875 14.0547 4.21875 14.0547 4.25781 14.0547C4.25781 14.0156 4.29688 14.0156 4.29688 14.0156C4.375 13.9766 4.45312 13.9375 4.60938 13.9375C4.72656 13.8984 4.88281 13.9375 5.03906 14.0547C5.23438 14.1719 5.3125 14.3672 5.35156 14.4844C5.39062 14.6016 5.39062 14.7578 5.42969 14.9141C5.46875 15.1484 5.46875 15.4219 5.46875 15.5V16.3203V16.2812Z" fill="black" fill-opacity="0.72"/>
</g>
<defs>
<clipPath id="clip0_3909_654">
<rect width="20" height="30" fill="white"/>
</clipPath>
</defs>
</svg>
