<svg width="20" height="24" viewBox="0 0 20 24" fill="none" xmlns="http://www.w3.org/2000/svg">
<g id="label-paired / md / hand-gesture-tap-left-md / bold" clip-path="url(#clip0_3546_704)">
<path id="icon" d="M4.28125 10C4.28125 8.90625 5.1875 8 6.28125 8C7.375 8 8.28125 8.90625 8.28125 10C8.28125 10.3438 8.21875 10.6562 8.0625 10.9375L8.6875 12.2188L8.71875 12.1875C8.75 12.1562 8.78125 12.1562 8.8125 12.125C9.21875 11.9375 9.71875 12 10.0938 12.25C10.1562 12.1875 10.25 12.1562 10.3438 12.0938C10.75 11.9062 11.25 11.9688 11.5938 12.2188C11.625 12.1875 11.6562 12.1875 11.6562 12.1562C11.6875 12.1562 11.7188 12.125 11.75 12.125C12.375 11.8125 13.125 12.0938 13.4062 12.7188L14.2812 14.5625C14.8438 15.7188 14.3438 17.125 13.1562 17.6562L10.9375 18.7188C10.4688 18.9375 9.9375 19.0312 9.4375 19H9.375C8.3125 18.9062 7.40625 18.2812 6.9375 17.3125L6.875 17.125C6.65625 16.6875 6.625 16.1875 6.8125 15.75L7.03125 15.25C7.0625 15.1562 7.125 15.0312 7.1875 14.9062L5.78125 11.9375C4.9375 11.7188 4.28125 10.9375 4.28125 10ZM6.1875 9.90625C6.59375 9.71875 7.03125 9.75 7.375 9.96875C7.375 9.375 6.875 8.90625 6.28125 8.90625C5.6875 8.90625 5.1875 9.40625 5.1875 10C5.1875 10.3125 5.3125 10.5938 5.5 10.7812C5.59375 10.4062 5.8125 10.0938 6.1875 9.90625ZM8.8125 16.125L8.78125 16.0938C8.875 16.25 8.78125 16.4375 8.65625 16.5312C8.46875 16.5938 8.3125 16.5312 8.21875 16.375L7.875 15.625L7.6875 16.0938C7.59375 16.3125 7.59375 16.5 7.6875 16.7188L7.78125 16.9062C8.09375 17.5625 8.71875 18 9.4375 18.0625H9.5C9.875 18.0938 10.2188 18.0312 10.5312 17.875L12.7812 16.8125C13.4688 16.5 13.75 15.6562 13.4375 14.9688L12.5625 13.125C12.5 12.9688 12.2812 12.9062 12.1562 12.9688C12.0938 13 12.0312 13.0625 12 13.125C11.9062 13.25 11.75 13.3438 11.5625 13.3438C11.4062 13.3438 11.25 13.25 11.1562 13.0938C11.0938 12.9375 10.9062 12.875 10.75 12.9375C10.6562 13 10.5938 13.0625 10.5625 13.1562C10.5312 13.3438 10.375 13.5312 10.1562 13.5312C9.96875 13.5625 9.78125 13.4375 9.6875 13.2812L9.625 13.125C9.5625 12.9688 9.34375 12.9375 9.21875 13C9.125 13.0312 9.0625 13.0938 9.03125 13.2188C9 13.4062 8.84375 13.5625 8.625 13.5625C8.4375 13.5938 8.25 13.5 8.15625 13.3125L7.375 11.6875L7 10.8438C6.90625 10.75 6.71875 10.6875 6.59375 10.75C6.46875 10.8125 6.40625 10.9688 6.4375 11.0938L6.8125 11.9375L8.8125 16.125ZM3.4375 5C3.1875 5 3 5.21875 3 5.4375V18.5938C3 18.8125 3.1875 19.0312 3.4375 19.0312C3.6875 19.0312 3.875 18.8125 3.875 18.5938V5.4375C3.875 5.21875 3.6875 5 3.4375 5Z" fill="black" fill-opacity="0.72"/>
</g>
<defs>
<clipPath id="clip0_3546_704">
<rect width="20" height="24" fill="white"/>
</clipPath>
</defs>
</svg>
