<svg width="6" height="24" viewBox="0 0 6 24" fill="none" xmlns="http://www.w3.org/2000/svg">
<g id="label-paired / md / info-md / regular" clip-path="url(#clip0_2556_14993)">
<path id="icon" d="M2 6C2 5.46875 2.4375 5 3 5C3.53125 5 4 5.46875 4 6C4 6.5625 3.53125 7 3 7C2.4375 7 2 6.5625 2 6ZM0.5 9.5C0.5 9.25 0.71875 9 1 9H3C3.25 9 3.5 9.25 3.5 9.5V18H5.5C5.75 18 6 18.25 6 18.5C6 18.7812 5.75 19 5.5 19H0.5C0.21875 19 0 18.7812 0 18.5C0 18.25 0.21875 18 0.5 18H2.5V10H1C0.71875 10 0.5 9.78125 0.5 9.5Z" fill="black" fill-opacity="0.72"/>
</g>
<defs>
<clipPath id="clip0_2556_14993">
<rect width="6" height="24" fill="white"/>
</clipPath>
</defs>
</svg>
