<svg width="24" height="36" viewBox="0 0 24 36" fill="none" xmlns="http://www.w3.org/2000/svg">
<g id="label-paired / xl / circle-question-xl / regular" clip-path="url(#clip0_3578_738)">
<path id="icon" d="M22.5 18C22.5 14.25 20.4844 10.8281 17.25 8.95312C13.9688 7.03125 9.98438 7.03125 6.75 8.95312C3.46875 10.8281 1.5 14.25 1.5 18C1.5 21.7969 3.46875 25.2188 6.75 27.0938C9.98438 29.0156 13.9688 29.0156 17.25 27.0938C20.4844 25.2188 22.5 21.7969 22.5 18ZM0 18C0 13.7344 2.25 9.79688 6 7.64062C9.70312 5.48438 14.25 5.48438 18 7.64062C21.7031 9.79688 24 13.7344 24 18C24 22.3125 21.7031 26.25 18 28.4062C14.25 30.5625 9.70312 30.5625 6 28.4062C2.25 26.25 0 22.3125 0 18ZM7.875 13.9688C8.20312 12.8438 9.23438 12 10.4062 12H13.125C14.7656 12 16.125 13.3594 16.125 15.0469C16.125 16.1719 15.4688 17.2031 14.4844 17.7188L12.75 18.6094V19.5C12.75 19.9219 12.375 20.25 12 20.25C11.5781 20.25 11.25 19.9219 11.25 19.5V18.1406C11.25 17.8594 11.3906 17.5781 11.625 17.4844L13.7812 16.3594C14.2969 16.125 14.625 15.6094 14.625 15.0469C14.625 14.2031 13.9219 13.5 13.125 13.5H10.4062C9.9375 13.5 9.46875 13.875 9.32812 14.3438V14.3906C9.23438 14.7656 8.8125 15.0469 8.4375 14.9062C8.01562 14.8125 7.78125 14.3906 7.875 14.0156V13.9688ZM10.875 22.5C10.875 21.8906 11.3438 21.375 12 21.375C12.6094 21.375 13.125 21.8906 13.125 22.5C13.125 23.1562 12.6094 23.625 12 23.625C11.3438 23.625 10.875 23.1562 10.875 22.5Z" fill="black" fill-opacity="0.72"/>
</g>
<defs>
<clipPath id="clip0_3578_738">
<rect width="24" height="36" fill="white"/>
</clipPath>
</defs>
</svg>
