<svg width="13" height="22" viewBox="0 0 13 22" fill="none" xmlns="http://www.w3.org/2000/svg">
<g id="label-paired / sm / flag-checkered-sm / regular" clip-path="url(#clip0_2556_12940)">
<path id="icon" d="M1.25 4.1875V5.39062L3.92969 4.65234C5.05078 4.35156 6.22656 4.46094 7.26562 4.98047C8.41406 5.55469 9.78125 5.5 10.875 4.87109L11.3125 4.625C11.8867 4.29688 12.625 4.70703 12.625 5.39062V13.1016C12.625 13.457 12.4062 13.7578 12.0781 13.8945L11.2578 14.25C9.89062 14.8516 8.33203 14.7969 6.99219 14.1406C6.0625 13.6758 5.02344 13.5664 4.01172 13.8398L1.25 14.6055V17.3125C1.25 17.5586 1.03125 17.75 0.8125 17.75C0.566406 17.75 0.375 17.5586 0.375 17.3125V14.8242V14.25V5.9375V5.60938V4.1875C0.375 3.96875 0.566406 3.75 0.8125 3.75C1.03125 3.75 1.25 3.96875 1.25 4.1875ZM1.25 6.29297V7.98828L3.875 7.41406V5.55469L1.25 6.29297ZM1.25 8.89062V10.832L3.875 10.2578V8.31641L1.25 8.89062ZM4.75 8.125V10.0664C5.35156 9.95703 5.98047 9.98438 6.60938 10.1484L8.25 10.6406V8.69922C8.19531 8.69922 8.14062 8.67188 8.11328 8.67188L6.33594 8.15234C5.84375 8.01562 5.32422 7.98828 4.83203 8.09766L4.75 8.125ZM9.125 8.86328V10.832C9.53516 10.8594 9.94531 10.832 10.3555 10.7227L11.75 10.4219V8.48047L10.5469 8.75391C10.082 8.86328 9.58984 8.89062 9.125 8.86328ZM8.25 11.543C8.19531 11.543 8.14062 11.5156 8.11328 11.5156L6.33594 10.9961C5.84375 10.8594 5.32422 10.832 4.83203 10.9414L4.75 10.9688V12.8281C5.65234 12.7461 6.55469 12.9375 7.40234 13.3477C7.67578 13.4844 7.94922 13.5938 8.25 13.6758V11.543ZM9.125 13.7852C9.72656 13.8125 10.3281 13.7031 10.9023 13.457L11.75 13.1016V11.3242L10.5469 11.5977C10.082 11.707 9.58984 11.7344 9.125 11.707V13.7852ZM9.125 7.96094V7.98828C9.53516 8.01562 9.94531 7.98828 10.3555 7.87891L11.75 7.57812V5.39062L11.3125 5.63672C10.6289 6.01953 9.86328 6.23828 9.125 6.23828V7.96094ZM8.25 6.18359C7.75781 6.12891 7.32031 5.96484 6.88281 5.74609C6.19922 5.41797 5.46094 5.30859 4.75 5.39062V7.22266C5.35156 7.11328 5.98047 7.14062 6.58203 7.30469L8.25 7.79688V6.18359ZM1.25 11.7344V13.7031L3.79297 12.9922C3.82031 12.9922 3.84766 12.9922 3.875 12.9648V11.1602L1.25 11.7344Z" fill="black" fill-opacity="0.72"/>
</g>
<defs>
<clipPath id="clip0_2556_12940">
<rect width="13" height="22" fill="white"/>
</clipPath>
</defs>
</svg>
