<svg width="30" height="36" viewBox="0 0 30 36" fill="none" xmlns="http://www.w3.org/2000/svg">
<g id="label-paired / xl / passkey-xl / regular" clip-path="url(#clip0_2512_1357)">
<path id="icon" d="M11.8594 18.75C12.5625 18.6562 13.2656 18.6094 13.9688 18.6094C14.3438 18.6094 14.7188 18.6094 15.0469 18.6562C15.4219 18.6562 15.75 18.7031 16.125 18.75C16.125 18.75 16.125 18.75 16.1719 18.75C16.0781 19.8281 16.2656 20.8594 16.7344 21.8438C17.25 22.7812 17.9531 23.5781 18.8438 24.1406V27.2812H5.10938V23.5781C5.10938 22.875 5.29688 22.2188 5.71875 21.6094C6.09375 21 6.5625 20.5312 7.21875 20.2031C8.29688 19.6875 9.375 19.2656 10.5469 19.0312C10.9688 18.8906 11.4375 18.7969 11.8594 18.75ZM6.98438 22.4062L14.6719 20.1094C14.4375 20.1094 14.2031 20.1094 13.9688 20.1094C12.9375 20.1094 11.9062 20.2031 10.875 20.4844C9.84375 20.7188 8.85938 21.0938 7.875 21.5625C7.5 21.75 7.21875 22.0312 6.98438 22.4062ZM14.6719 20.1094L6.98438 22.4062C6.75 22.7812 6.60938 23.1562 6.60938 23.5781V25.7812H17.3438V24.8906C16.5469 24.2812 15.8906 23.4375 15.4219 22.5C15.0469 21.75 14.7656 20.9531 14.6719 20.1094ZM12.0469 17.2031C11.4844 16.9688 11.0156 16.6406 10.5469 16.1719C9.60938 15.2344 9.14062 14.0625 9.14062 12.75C9.14062 11.4375 9.60938 10.2656 10.5469 9.32812C11.4844 8.39062 12.6562 7.92188 13.9688 7.92188C15.3281 7.92188 16.4531 8.39062 17.3906 9.32812C18.375 10.2656 18.8438 11.4375 18.8438 12.75C18.8438 14.0625 18.375 15.2344 17.3906 16.1719C16.9688 16.6406 16.4531 16.9688 15.9375 17.2031C15.6562 17.2969 15.4219 17.3906 15.1406 17.4844C14.7656 17.5312 14.3906 17.5781 13.9688 17.5781C13.2656 17.5781 12.6562 17.4844 12.0469 17.2031ZM11.625 15.0938C12.2812 15.7969 13.0312 16.0781 13.9688 16.0781C14.9062 16.0781 15.6562 15.7969 16.3594 15.0938C17.0156 14.4375 17.3438 13.6875 17.3438 12.75C17.3438 11.8125 17.0156 11.0625 16.3594 10.4062C15.6562 9.75 14.9062 9.42188 13.9688 9.42188C13.0312 9.42188 12.2812 9.75 11.625 10.4062C10.9219 11.0625 10.6406 11.8125 10.6406 12.75C10.6406 13.6875 10.9219 14.4375 11.625 15.0938ZM22.5469 29.6719L24.75 27.4688L23.0625 25.8281L24.75 24.1875L23.3906 22.7812C24.1406 22.5 24.7031 22.0312 25.1719 21.4219C25.5938 20.7656 25.8281 20.0625 25.8281 19.2188C25.8281 18.1875 25.4531 17.25 24.7031 16.5C23.9531 15.75 23.0625 15.375 21.9844 15.375C20.9062 15.375 20.0156 15.75 19.2656 16.5C18.5156 17.25 18.1406 18.1406 18.1406 19.2188C18.1406 20.1094 18.375 20.8594 18.8906 21.5625C19.4062 22.2188 20.0625 22.6875 20.8594 22.9219V28.0312L22.5469 29.6719ZM21.9844 19.7812C21.5625 19.7812 21.1875 19.5938 20.9531 19.2656C20.7656 18.8906 20.7656 18.4688 20.9531 18.0938C21.1875 17.7656 21.5625 17.5312 21.9844 17.5781C22.4062 17.5312 22.7812 17.7656 22.9688 18.0938C23.2031 18.4688 23.2031 18.8906 22.9688 19.2656C22.7812 19.5938 22.4062 19.7812 21.9844 19.7812Z" fill="black" fill-opacity="0.72"/>
</g>
<defs>
<clipPath id="clip0_2512_1357">
<rect width="30" height="36" fill="white"/>
</clipPath>
</defs>
</svg>
