<svg width="27" height="36" viewBox="0 0 27 36" fill="none" xmlns="http://www.w3.org/2000/svg">
<g id="label-paired / xl / file-shield-xl / bold" clip-path="url(#clip0_2556_19297)">
<path id="icon" d="M3 27.75H14.5312C15.0469 28.4531 15.6562 29.1094 16.4062 29.6719C15.9844 29.9062 15.4688 30 15 30H3C1.3125 30 0 28.6875 0 27V9C0 7.35938 1.3125 6 3 6H10.7344C11.5312 6 12.2812 6.32812 12.8438 6.89062L17.1094 11.1562C17.6719 11.7188 18 12.4688 18 13.2656V15.7031L15.75 16.6406V13.5H12C11.1562 13.5 10.5 12.8438 10.5 12V8.25H3C2.57812 8.25 2.25 8.625 2.25 9V27C2.25 27.4219 2.57812 27.75 3 27.75ZM19.8281 16.5938C20.0625 16.5 20.3906 16.5 20.625 16.5938L26.25 18.8438C26.7188 19.0312 27 19.4531 27 19.875C27 22.875 25.7812 27.7969 20.6719 29.9531C20.3906 30.0469 20.0625 30.0469 19.7812 29.9531C14.6719 27.7969 13.5 22.875 13.5 19.875C13.5 19.4531 13.7812 19.0312 14.2031 18.8438L19.8281 16.5938ZM24.7031 20.625L20.25 18.8438V27.6562C23.4375 26.1094 24.5156 23.0156 24.7031 20.625Z" fill="black" fill-opacity="0.72"/>
</g>
<defs>
<clipPath id="clip0_2556_19297">
<rect width="27" height="36" fill="white"/>
</clipPath>
</defs>
</svg>
