<svg width="12" height="18" viewBox="0 0 12 18" fill="none" xmlns="http://www.w3.org/2000/svg">
<g id="label-paired / caption / camera-caption / bold" clip-path="url(#clip0_2556_9954)">
<path id="icon" d="M4.66406 4.25H7.3125C7.89844 4.25 8.39062 4.625 8.57812 5.16406L8.76562 5.75H10.5C11.3203 5.75 12 6.42969 12 7.25V13.25C12 14.0938 11.3203 14.75 10.5 14.75H1.5C0.65625 14.75 0 14.0938 0 13.25V7.25C0 6.42969 0.65625 5.75 1.5 5.75H3.21094L3.42188 5.16406L3.9375 5.32812L3.42188 5.16406C3.58594 4.625 4.10156 4.25 4.66406 4.25ZM4.47656 5.51562L4.14844 6.5C4.07812 6.73438 3.86719 6.875 3.60938 6.875H1.5C1.28906 6.875 1.125 7.0625 1.125 7.25V13.25C1.125 13.4609 1.28906 13.625 1.5 13.625H10.5C10.6875 13.625 10.875 13.4609 10.875 13.25V7.25C10.875 7.0625 10.6875 6.875 10.5 6.875H8.36719C8.10938 6.875 7.89844 6.73438 7.82812 6.5L7.5 5.51562C7.47656 5.44531 7.40625 5.375 7.3125 5.375H4.66406C4.57031 5.375 4.5 5.44531 4.47656 5.51562ZM6 12.875C5.03906 12.875 4.19531 12.3828 3.72656 11.5625C3.23438 10.7656 3.23438 9.75781 3.72656 8.9375C4.19531 8.14062 5.03906 7.625 6 7.625C6.9375 7.625 7.78125 8.14062 8.25 8.9375C8.74219 9.75781 8.74219 10.7656 8.25 11.5625C7.78125 12.3828 6.9375 12.875 6 12.875ZM4.5 10.25C4.5 10.7891 4.78125 11.2812 5.25 11.5625C5.69531 11.8203 6.28125 11.8203 6.75 11.5625C7.19531 11.2812 7.5 10.7891 7.5 10.25C7.5 9.73438 7.19531 9.24219 6.75 8.96094C6.28125 8.70312 5.69531 8.70312 5.25 8.96094C4.78125 9.24219 4.5 9.73438 4.5 10.25Z" fill="black" fill-opacity="0.72"/>
</g>
<defs>
<clipPath id="clip0_2556_9954">
<rect width="12" height="18" fill="white"/>
</clipPath>
</defs>
</svg>
