<svg width="12" height="18" viewBox="0 0 12 18" fill="none" xmlns="http://www.w3.org/2000/svg">
<g id="label-paired / caption / circle-arrow-down-right-caption / fill" clip-path="url(#clip0_2556_10291)">
<path id="icon" d="M6 3.5C8.13281 3.5 10.1016 4.64844 11.1797 6.5C12.2578 8.375 12.2578 10.6484 11.1797 12.5C10.1016 14.375 8.13281 15.5 6 15.5C3.84375 15.5 1.875 14.375 0.796875 12.5C-0.28125 10.6484 -0.28125 8.375 0.796875 6.5C1.875 4.64844 3.84375 3.5 6 3.5ZM4.5 12.125H8.03906C8.36719 12.125 8.60156 11.8906 8.60156 11.5625V7.8125C8.60156 7.50781 8.36719 7.25 8.03906 7.25C7.73438 7.25 7.47656 7.50781 7.47656 7.8125V10.2266L4.3125 7.0625C4.10156 6.82812 3.75 6.82812 3.53906 7.0625C3.30469 7.27344 3.30469 7.625 3.53906 7.83594L6.70312 11H4.5C4.17188 11 3.9375 11.2578 3.9375 11.5625C3.9375 11.8906 4.17188 12.125 4.5 12.125Z" fill="black" fill-opacity="0.72"/>
</g>
<defs>
<clipPath id="clip0_2556_10291">
<rect width="12" height="18" fill="white"/>
</clipPath>
</defs>
</svg>
