<svg width="30" height="36" viewBox="0 0 30 36" fill="none" xmlns="http://www.w3.org/2000/svg">
<g id="label-paired / xl / stop-loss-xl / fill" clip-path="url(#clip0_2556_19608)">
<path id="icon" d="M6.89062 24.7031C6.04688 24.2812 5.34375 23.7188 4.73438 23.0625L4.26562 22.5L7.125 19.6406L7.64062 20.2031C8.34375 21.0469 9.1875 21.4219 10.2188 21.4219C10.8281 21.4219 11.1094 21.2812 11.25 21.1875C11.3906 21.0469 11.4375 20.9062 11.4375 20.6719C11.4375 20.4375 11.3906 20.3438 11.3438 20.25C11.2969 20.25 11.2969 20.2031 11.2031 20.1562C11.0625 20.1094 10.875 20.0625 10.6406 20.0625L9.42188 19.875C7.96875 19.6875 6.79688 19.2656 6.04688 18.4688H6C5.25 17.625 4.92188 16.5938 4.92188 15.375C4.92188 14.7188 5.01562 14.1094 5.29688 13.5469C5.57812 12.9844 5.95312 12.4688 6.42188 12.0469C6.89062 11.6719 7.5 11.3438 8.15625 11.1562C8.8125 10.9219 9.5625 10.8281 10.3594 10.8281C11.3906 10.8281 12.3281 10.9688 13.1719 11.3438C13.9688 11.6719 14.6719 12.1875 15.2812 12.8438L15.75 13.3594L12.8906 16.2656L12.3281 15.6562C12.0938 15.4219 11.8125 15.1875 11.4844 15H11.4375C11.1562 14.8594 10.7812 14.7188 10.2188 14.7188C9.65625 14.7188 9.375 14.8594 9.28125 14.9062C9.1875 15 9.14062 15.0469 9.14062 15.2344C9.14062 15.375 9.1875 15.4688 9.1875 15.5156C9.1875 15.5625 9.23438 15.5625 9.23438 15.5625C9.32812 15.6562 9.5625 15.75 10.0312 15.8438L11.25 16.0312C12.6094 16.2188 13.7812 16.6875 14.5312 17.4375C15.3281 18.1875 15.7031 19.2656 15.7031 20.4844C15.7031 21.1875 15.5625 21.8438 15.3281 22.4531C15.0469 23.0625 14.6719 23.5781 14.1562 24C13.6875 24.4219 13.0781 24.75 12.375 24.9844C11.6719 25.2188 10.875 25.3125 10.0781 25.3125C8.85938 25.3125 7.82812 25.125 6.9375 24.7031H6.89062ZM16.4531 25.125V11.0625H20.7188V21.1875H25.5V25.125H16.4531Z" fill="black" fill-opacity="0.72"/>
</g>
<defs>
<clipPath id="clip0_2556_19608">
<rect width="30" height="36" fill="white"/>
</clipPath>
</defs>
</svg>
