<svg width="24" height="36" viewBox="0 0 24 36" fill="none" xmlns="http://www.w3.org/2000/svg">
<g id="label-paired / xl / circle-euro-xl / bold" clip-path="url(#clip0_2556_19291)">
<path id="icon" d="M21.75 18C21.75 14.5312 19.875 11.3438 16.875 9.5625C13.8281 7.82812 10.125 7.82812 7.125 9.5625C4.07812 11.3438 2.25 14.5312 2.25 18C2.25 21.5156 4.07812 24.7031 7.125 26.4844C10.125 28.2188 13.8281 28.2188 16.875 26.4844C19.875 24.7031 21.75 21.5156 21.75 18ZM0 18C0 13.7344 2.25 9.79688 6 7.64062C9.70312 5.48438 14.25 5.48438 18 7.64062C21.7031 9.79688 24 13.7344 24 18C24 22.3125 21.7031 26.25 18 28.4062C14.25 30.5625 9.70312 30.5625 6 28.4062C2.25 26.25 0 22.3125 0 18ZM6 18.75H6.75C6.70312 18.5156 6.70312 18.2812 6.70312 18.0469C6.70312 17.8125 6.70312 17.5312 6.75 17.25H6C5.57812 17.25 5.25 16.9219 5.25 16.5C5.25 16.125 5.57812 15.75 6 15.75H7.125C8.01562 13.5938 10.2188 12 12.7031 12H14.6719C15.2812 12 15.7969 12.5156 15.7969 13.125C15.7969 13.7812 15.2812 14.25 14.6719 14.25H12.7031C11.4844 14.25 10.4062 14.8594 9.70312 15.75H13.5C13.875 15.75 14.25 16.125 14.25 16.5C14.25 16.9219 13.875 17.25 13.5 17.25H9C8.95312 17.5312 8.95312 17.7656 8.95312 18.0469C8.95312 18.2812 8.95312 18.5625 9 18.75H13.5C13.875 18.75 14.25 19.125 14.25 19.5C14.25 19.9219 13.875 20.25 13.5 20.25H9.65625C10.3594 21.2344 11.4375 21.8438 12.7031 21.8438H14.6719C15.2812 21.8438 15.7969 22.3594 15.7969 22.9688C15.7969 23.5781 15.2812 24.0938 14.6719 24.0938H12.7031C10.1719 24.0938 7.96875 22.5 7.125 20.25H6C5.57812 20.25 5.25 19.9219 5.25 19.5C5.25 19.125 5.57812 18.75 6 18.75Z" fill="black" fill-opacity="0.72"/>
</g>
<defs>
<clipPath id="clip0_2556_19291">
<rect width="24" height="36" fill="white"/>
</clipPath>
</defs>
</svg>
