<svg width="10" height="24" viewBox="0 0 10 24" fill="none" xmlns="http://www.w3.org/2000/svg">
<g id="label-paired / md / three-md / fill" clip-path="url(#clip0_2556_14837)">
<path id="icon" d="M0 6C0 5.46875 0.4375 5 1 5H8.5C8.90625 5 9.28125 5.28125 9.40625 5.65625C9.5625 6.03125 9.46875 6.46875 9.15625 6.75L5.0625 10.5H5.75C8.09375 10.5 10 12.4062 10 14.75C10 17.125 8.09375 19 5.75 19H3.28125C1.96875 19 0.75 18.25 0.15625 17.0938L0.09375 16.9688C-0.15625 16.4688 0.03125 15.875 0.53125 15.625C1.03125 15.375 1.625 15.5625 1.875 16.0625L1.9375 16.1875C2.1875 16.6875 2.71875 17 3.28125 17H5.75C6.96875 17 8 16 8 14.75C8 13.5312 6.96875 12.5 5.75 12.5H2.5C2.0625 12.5 1.71875 12.25 1.5625 11.875C1.40625 11.5 1.5 11.0625 1.8125 10.7812L5.90625 7H1C0.4375 7 0 6.5625 0 6Z" fill="black" fill-opacity="0.72"/>
</g>
<defs>
<clipPath id="clip0_2556_14837">
<rect width="10" height="24" fill="white"/>
</clipPath>
</defs>
</svg>
