<svg width="14" height="18" viewBox="0 0 14 18" fill="none" xmlns="http://www.w3.org/2000/svg">
<g id="label-paired / caption / desktop-caption / fill" clip-path="url(#clip0_2981_652)">
<path id="icon" d="M1.75 3.5H12.25C13.0703 3.5 13.75 4.17969 13.75 5V11.75C13.75 12.5938 13.0703 13.25 12.25 13.25H8.125L8.35938 14H10C10.3984 14 10.75 14.3516 10.75 14.75C10.75 15.1719 10.3984 15.5 10 15.5H4C3.57812 15.5 3.25 15.1719 3.25 14.75C3.25 14.3516 3.57812 14 4 14H5.61719L5.875 13.25H1.75C0.90625 13.25 0.25 12.5938 0.25 11.75V5C0.25 4.17969 0.90625 3.5 1.75 3.5ZM12.25 5H1.75V10.25H12.25V5Z" fill="black" fill-opacity="0.72"/>
</g>
<defs>
<clipPath id="clip0_2981_652">
<rect width="14" height="18" fill="white"/>
</clipPath>
</defs>
</svg>
