<svg width="14" height="24" viewBox="0 0 14 24" fill="none" xmlns="http://www.w3.org/2000/svg">
<g id="label-paired / md / objects-column-md / fill" clip-path="url(#clip0_3431_832)">
<path id="icon" d="M1.5 5H4.5C5.3125 5 6 5.6875 6 6.5V11.5C6 12.3438 5.3125 13 4.5 13H1.5C0.65625 13 0 12.3438 0 11.5V6.5C0 5.6875 0.65625 5 1.5 5ZM9.5 11H12.5C13.3125 11 14 11.6875 14 12.5V17.5C14 18.3438 13.3125 19 12.5 19H9.5C8.65625 19 8 18.3438 8 17.5V12.5C8 11.6875 8.65625 11 9.5 11ZM0 16.5C0 15.6875 0.65625 15 1.5 15H4.5C5.3125 15 6 15.6875 6 16.5V17.5C6 18.3438 5.3125 19 4.5 19H1.5C0.65625 19 0 18.3438 0 17.5V16.5ZM9.5 5H12.5C13.3125 5 14 5.6875 14 6.5V7.5C14 8.34375 13.3125 9 12.5 9H9.5C8.65625 9 8 8.34375 8 7.5V6.5C8 5.6875 8.65625 5 9.5 5Z" fill="black" fill-opacity="0.72"/>
</g>
<defs>
<clipPath id="clip0_3431_832">
<rect width="14" height="24" fill="white"/>
</clipPath>
</defs>
</svg>
