<svg width="20" height="30" viewBox="0 0 20 30" fill="none" xmlns="http://www.w3.org/2000/svg">
<g id="label-paired / lg / circle-chevron-left-lg / fill" clip-path="url(#clip0_2556_17342)">
<path id="icon" d="M20 15.5C20 19.0938 18.0859 22.375 15 24.1719C11.875 25.9688 8.08594 25.9688 5 24.1719C1.875 22.375 0 19.0938 0 15.5C0 11.9453 1.875 8.66406 5 6.86719C8.08594 5.07031 11.875 5.07031 15 6.86719C18.0859 8.66406 20 11.9453 20 15.5ZM10.5859 10.7734L6.52344 14.875C6.13281 15.2266 6.13281 15.8125 6.52344 16.1641L10.5859 20.2266C10.9375 20.6172 11.5234 20.6172 11.875 20.2266C12.2656 19.875 12.2656 19.2891 11.875 18.8984L8.47656 15.5L11.875 12.1016C12.2656 11.75 12.2656 11.1641 11.875 10.7734C11.5234 10.4219 10.9375 10.4219 10.5859 10.7734Z" fill="black" fill-opacity="0.72"/>
</g>
<defs>
<clipPath id="clip0_2556_17342">
<rect width="20" height="30" fill="white"/>
</clipPath>
</defs>
</svg>
