<svg width="16" height="24" viewBox="0 0 16 24" fill="none" xmlns="http://www.w3.org/2000/svg">
<g id="label-paired / md / right-to-bracket-md / fill" clip-path="url(#clip0_2556_15127)">
<path id="icon" d="M6.78125 7.3125L10.625 11.1562C10.8438 11.375 11 11.6875 11 12C11 12.3438 10.8438 12.6562 10.625 12.875L6.78125 16.7188C6.59375 16.9062 6.3125 17 6.03125 17C5.46875 17 5 16.5312 5 15.9688V14H1C0.4375 14 0 13.5625 0 13V11C0 10.4688 0.4375 10 1 10H5V8.0625C5 7.5 5.46875 7 6.03125 7C6.3125 7 6.59375 7.125 6.78125 7.3125ZM11 17H13C13.5312 17 14 16.5625 14 16V8C14 7.46875 13.5312 7 13 7H11C10.4375 7 10 6.5625 10 6C10 5.46875 10.4375 5 11 5H13C14.6562 5 16 6.34375 16 8V16C16 17.6562 14.6562 19 13 19H11C10.4375 19 10 18.5625 10 18C10 17.4688 10.4375 17 11 17Z" fill="black" fill-opacity="0.72"/>
</g>
<defs>
<clipPath id="clip0_2556_15127">
<rect width="16" height="24" fill="white"/>
</clipPath>
</defs>
</svg>
