<svg width="24" height="36" viewBox="0 0 24 36" fill="none" xmlns="http://www.w3.org/2000/svg">
<g id="label-paired / xl / circle-dollar-xl / bold" clip-path="url(#clip0_2556_19677)">
<path id="icon" d="M21.75 18C21.75 14.5312 19.875 11.3438 16.875 9.5625C13.8281 7.82812 10.125 7.82812 7.125 9.5625C4.07812 11.3438 2.25 14.5312 2.25 18C2.25 21.5156 4.07812 24.7031 7.125 26.4844C10.125 28.2188 13.8281 28.2188 16.875 26.4844C19.875 24.7031 21.75 21.5156 21.75 18ZM0 18C0 13.7344 2.25 9.79688 6 7.64062C9.70312 5.48438 14.25 5.48438 18 7.64062C21.7031 9.79688 24 13.7344 24 18C24 22.3125 21.7031 26.25 18 28.4062C14.25 30.5625 9.70312 30.5625 6 28.4062C2.25 26.25 0 22.3125 0 18ZM12.9375 12.2812V12.9375C13.4062 12.9844 13.875 13.125 14.2969 13.2656C14.3906 13.2656 14.4844 13.3125 14.5781 13.3125C15.0938 13.5 15.4219 14.0625 15.2812 14.5781C15.1406 15.1406 14.5781 15.4219 14.0156 15.2812C13.9688 15.2812 13.875 15.2344 13.8281 15.2344C13.5 15.1406 13.1719 15.0469 12.8438 15C12.1875 14.8594 11.4844 14.9062 10.9219 15.1875C10.4062 15.375 9.98438 15.9375 10.5469 16.3125C11.0156 16.5938 11.5781 16.7344 12.0938 16.9219C12.2344 16.9219 12.3281 16.9688 12.4219 16.9688C13.1719 17.2031 14.1094 17.4844 14.8125 17.9531C15.7031 18.5625 16.125 19.5938 15.9375 20.6719C15.75 21.7031 15 22.4062 14.1562 22.7812C13.7812 22.9219 13.3594 23.0156 12.9375 23.0625V23.7656C12.9375 24.3281 12.5156 24.7969 11.9531 24.7969C11.3906 24.7969 10.9219 24.3281 10.9219 23.7656V22.9688C10.2656 22.7812 9.60938 22.5938 8.90625 22.3594C8.39062 22.1719 8.10938 21.6094 8.29688 21.0938C8.48438 20.5312 9.04688 20.25 9.5625 20.4375C9.70312 20.4844 9.79688 20.5312 9.9375 20.5781C10.4531 20.7188 10.9688 20.9062 11.5312 21C12.3281 21.1406 12.9844 21.0469 13.4062 20.9062C13.9688 20.6719 14.2031 19.9688 13.6406 19.5938C13.1719 19.3125 12.6094 19.125 12.0469 18.9844C11.9531 18.9375 11.8125 18.9375 11.7188 18.8906C11.0156 18.7031 10.125 18.4219 9.46875 18C8.53125 17.4375 8.10938 16.4531 8.29688 15.375C8.48438 14.3438 9.28125 13.6875 10.125 13.3125C10.3594 13.1719 10.6406 13.125 10.9219 13.0312V12.2812C10.9219 11.7188 11.3906 11.25 11.9531 11.25C12.5156 11.25 12.9375 11.7188 12.9375 12.2812Z" fill="black" fill-opacity="0.72"/>
</g>
<defs>
<clipPath id="clip0_2556_19677">
<rect width="24" height="36" fill="white"/>
</clipPath>
</defs>
</svg>
