<svg width="14" height="22" viewBox="0 0 14 22" fill="none" xmlns="http://www.w3.org/2000/svg">
<g id="label-paired / sm / arrows-rotate-sm / bold" clip-path="url(#clip0_2556_12855)">
<path id="icon" d="M2.57031 8.89062C2.40625 9.21875 2.02344 9.35547 1.69531 9.21875C1.36719 9.08203 1.20312 8.69922 1.33984 8.37109C2.26953 6.18359 4.45703 4.625 7 4.625C8.42188 4.625 9.78906 5.19922 10.8008 6.21094L12.25 7.66016V6.15625C12.25 5.80078 12.5234 5.5 12.9062 5.5C13.2617 5.5 13.5625 5.80078 13.5625 6.15625V9.21875C13.5625 9.60156 13.2617 9.875 12.9062 9.875H9.84375C9.46094 9.875 9.1875 9.60156 9.1875 9.21875C9.1875 8.86328 9.46094 8.5625 9.84375 8.5625H11.3203L9.87109 7.14062C9.10547 6.375 8.06641 5.9375 7 5.9375C5.00391 5.9375 3.28125 7.16797 2.57031 8.89062ZM12.6328 13.1836C11.6758 15.3438 9.51562 16.875 7 16.875C5.55078 16.875 4.18359 16.3281 3.17188 15.2891L1.75 13.8672V15.3438C1.75 15.7266 1.44922 16 1.09375 16C0.710938 16 0.4375 15.7266 0.4375 15.3438V12.2812C0.4375 11.9258 0.710938 11.625 1.09375 11.625H4.15625C4.51172 11.625 4.8125 11.9258 4.8125 12.2812C4.8125 12.6641 4.51172 12.9375 4.15625 12.9375H2.65234L4.10156 14.3867C4.86719 15.1523 5.90625 15.5625 7 15.5625C8.96875 15.5625 10.6914 14.3867 11.4023 12.6641C11.5664 12.3086 11.9492 12.1719 12.2773 12.3086C12.6055 12.4453 12.7695 12.8281 12.6328 13.1836Z" fill="black" fill-opacity="0.72"/>
</g>
<defs>
<clipPath id="clip0_2556_12855">
<rect width="14" height="22" fill="white"/>
</clipPath>
</defs>
</svg>
