<svg width="15" height="18" viewBox="0 0 15 18" fill="none" xmlns="http://www.w3.org/2000/svg">
<g id="label-paired / caption / field-password-caption / regular" clip-path="url(#clip0_2556_10049)">
<path id="icon" d="M2.25 6.125C1.61719 6.125 1.125 6.64062 1.125 7.25V11.75C1.125 12.3828 1.61719 12.875 2.25 12.875H12.75C13.3594 12.875 13.875 12.3828 13.875 11.75V7.25C13.875 6.64062 13.3594 6.125 12.75 6.125H2.25ZM0.375 7.25C0.375 6.21875 1.19531 5.375 2.25 5.375H12.75C13.7812 5.375 14.625 6.21875 14.625 7.25V11.75C14.625 12.8047 13.7812 13.625 12.75 13.625H2.25C1.19531 13.625 0.375 12.8047 0.375 11.75V7.25ZM10.125 11.75C9.91406 11.75 9.75 11.5859 9.75 11.375V7.625C9.75 7.4375 9.91406 7.25 10.125 7.25C10.3125 7.25 10.5 7.4375 10.5 7.625V11.375C10.5 11.5859 10.3125 11.75 10.125 11.75ZM3 9.5C3 9.10156 3.32812 8.75 3.75 8.75C4.14844 8.75 4.5 9.10156 4.5 9.5C4.5 9.92188 4.14844 10.25 3.75 10.25C3.32812 10.25 3 9.92188 3 9.5ZM5.25 9.5C5.25 9.10156 5.57812 8.75 6 8.75C6.39844 8.75 6.75 9.10156 6.75 9.5C6.75 9.92188 6.39844 10.25 6 10.25C5.57812 10.25 5.25 9.92188 5.25 9.5ZM7.5 9.5C7.5 9.10156 7.82812 8.75 8.25 8.75C8.64844 8.75 9 9.10156 9 9.5C9 9.92188 8.64844 10.25 8.25 10.25C7.82812 10.25 7.5 9.92188 7.5 9.5Z" fill="black" fill-opacity="0.72"/>
</g>
<defs>
<clipPath id="clip0_2556_10049">
<rect width="15" height="18" fill="white"/>
</clipPath>
</defs>
</svg>
