<svg width="18" height="22" viewBox="0 0 18 22" fill="none" xmlns="http://www.w3.org/2000/svg">
<g id="label-paired / sm / take-profit-sm / fill" clip-path="url(#clip0_2556_12768)">
<path id="icon" d="M6.78516 14.8789V8.97266H8.75391V6.67578H2.32812V8.97266H4.29688V14.8789H6.78516ZM8.97266 6.67578H12.8828C13.2656 6.67578 13.6484 6.75781 13.9766 6.89453C14.3047 7.03125 14.5781 7.22266 14.8242 7.46875C15.0703 7.71484 15.2344 8.01562 15.3711 8.37109C15.4805 8.69922 15.5352 9.08203 15.5352 9.46484C15.5352 9.84766 15.4805 10.2305 15.3711 10.5586C15.2344 10.9141 15.0703 11.1875 14.8242 11.4609C14.5781 11.707 14.3047 11.8984 13.9766 12.0352C13.6484 12.1719 13.2656 12.2266 12.8828 12.2266H11.4609V14.8789H8.97266V6.67578ZM12.9375 9C12.9102 8.97266 12.8555 8.94531 12.6914 8.94531H11.4609V9.98438H12.6914C12.8555 9.98438 12.9375 9.92969 12.9648 9.90234C12.9922 9.875 13.0195 9.84766 13.0195 9.68359V9.21875C13.0195 9.08203 12.9922 9.02734 12.9648 9.02734L12.9375 9Z" fill="black" fill-opacity="0.72"/>
</g>
<defs>
<clipPath id="clip0_2556_12768">
<rect width="18" height="22" fill="white"/>
</clipPath>
</defs>
</svg>
