<svg width="20" height="24" viewBox="0 0 20 24" fill="none" xmlns="http://www.w3.org/2000/svg">
<g id="label-paired / md / wifi-md / regular" clip-path="url(#clip0_2556_14915)">
<path id="icon" d="M0.84375 9.78125C0.625 9.96875 0.3125 9.96875 0.125 9.78125C-0.0625 9.5625 -0.0625 9.25 0.125 9.0625C2.65625 6.5625 6.15625 5 10 5C13.8125 5 17.3125 6.5625 19.8438 9.0625C20.0312 9.25 20.0312 9.5625 19.8438 9.78125C19.6562 9.96875 19.3438 9.96875 19.125 9.78125C16.7812 7.4375 13.5625 6 10 6C6.40625 6 3.1875 7.4375 0.84375 9.78125ZM10 11C7.78125 11 5.78125 11.9062 4.34375 13.3438C4.15625 13.5312 3.84375 13.5312 3.625 13.3438C3.4375 13.1562 3.4375 12.8438 3.625 12.6562C5.25 11.0312 7.5 10.0312 10 10.0312C12.4688 10.0312 14.7188 11.0312 16.3438 12.6562C16.5312 12.8438 16.5312 13.1562 16.3438 13.3438C16.1562 13.5312 15.8438 13.5312 15.625 13.3438C14.1875 11.9062 12.1875 11 10 11ZM10 16C9.4375 16 9 16.4688 9 17C9 17.5625 9.4375 18 10 18C10.5312 18 11 17.5625 11 17C11 16.4688 10.5312 16 10 16ZM10 19C9.28125 19 8.625 18.625 8.25 18C7.90625 17.4062 7.90625 16.625 8.25 16C8.625 15.4062 9.28125 15 10 15C10.6875 15 11.3438 15.4062 11.7188 16C12.0625 16.625 12.0625 17.4062 11.7188 18C11.3438 18.625 10.6875 19 10 19Z" fill="black" fill-opacity="0.72"/>
</g>
<defs>
<clipPath id="clip0_2556_14915">
<rect width="20" height="24" fill="white"/>
</clipPath>
</defs>
</svg>
