<svg width="20" height="30" viewBox="0 0 20 30" fill="none" xmlns="http://www.w3.org/2000/svg">
<g id="label-paired / lg / circle-arrow-up-right-lg / fill" clip-path="url(#clip0_2556_17363)">
<path id="icon" d="M0 15.5C0 11.9453 1.875 8.66406 5 6.86719C8.08594 5.07031 11.875 5.07031 15 6.86719C18.0859 8.66406 20 11.9453 20 15.5C20 19.0938 18.0859 22.375 15 24.1719C11.875 25.9688 8.08594 25.9688 5 24.1719C1.875 22.375 0 19.0938 0 15.5ZM14.375 18V12.0625C14.375 11.5547 13.9453 11.125 13.4375 11.125H7.1875C6.64062 11.125 6.25 11.5547 6.25 12.0625C6.25 12.6094 6.64062 13 7.1875 13L11.1719 13.0391L5.89844 18.3125C5.50781 18.6641 5.50781 19.25 5.89844 19.6016C6.25 19.9922 6.83594 19.9922 7.22656 19.6016L12.5 14.3281V18C12.5 18.5469 12.8906 18.9375 13.4375 18.9375C13.9453 18.9375 14.375 18.5469 14.375 18Z" fill="black" fill-opacity="0.72"/>
</g>
<defs>
<clipPath id="clip0_2556_17363">
<rect width="20" height="30" fill="white"/>
</clipPath>
</defs>
</svg>
