<svg width="13" height="30" viewBox="0 0 13 30" fill="none" xmlns="http://www.w3.org/2000/svg">
<g id="label-paired / lg / sort-down-lg / regular" clip-path="url(#clip0_2556_17259)">
<path id="icon" d="M6.26562 22.9219C6.30469 23 6.38281 23 6.5 23C6.57812 23 6.65625 23 6.69531 22.9219L11.3828 18.5078C11.4609 18.4297 11.5 18.3906 11.5 18.3125C11.5 18.1562 11.3438 18 11.1875 18H1.77344C1.61719 18 1.5 18.1562 1.5 18.3125C1.5 18.3906 1.5 18.4297 1.57812 18.5078L6.26562 22.9219ZM5.40625 23.8594L0.71875 19.4062C0.40625 19.1328 0.25 18.7031 0.25 18.3125C0.25 17.4531 0.914062 16.75 1.77344 16.75H11.1875C12.0469 16.75 12.75 17.4531 12.75 18.3125C12.75 18.7031 12.5547 19.1328 12.2422 19.4062L7.55469 23.8594C7.28125 24.1328 6.89062 24.25 6.5 24.25C6.07031 24.25 5.67969 24.1328 5.40625 23.8594Z" fill="black" fill-opacity="0.72"/>
</g>
<defs>
<clipPath id="clip0_2556_17259">
<rect width="13" height="30" fill="white"/>
</clipPath>
</defs>
</svg>
