<svg width="8" height="18" viewBox="0 0 8 18" fill="none" xmlns="http://www.w3.org/2000/svg">
<g id="label-paired / caption / six-caption / fill" clip-path="url(#clip0_2556_10590)">
<path id="icon" d="M5.6875 5.49219L4.1875 7.27344C6.15625 7.36719 7.75 9.00781 7.75 11C7.75 13.0859 6.0625 14.75 4 14.75C1.91406 14.75 0.25 13.0859 0.25 11C0.25 10.9766 0.25 10.9297 0.25 10.9062C0.273438 10.0391 0.578125 9.19531 1.14062 8.53906L4.53906 4.53125C4.79688 4.20312 5.28906 4.17969 5.59375 4.4375C5.92188 4.69531 5.94531 5.1875 5.6875 5.49219ZM6.25 11C6.25 10.2031 5.80469 9.47656 5.125 9.05469C4.42188 8.65625 3.55469 8.65625 2.875 9.05469C2.17188 9.47656 1.75 10.2031 1.75 11C1.75 11.8203 2.17188 12.5469 2.875 12.9688C3.55469 13.3672 4.42188 13.3672 5.125 12.9688C5.80469 12.5469 6.25 11.8203 6.25 11Z" fill="black" fill-opacity="0.72"/>
</g>
<defs>
<clipPath id="clip0_2556_10590">
<rect width="8" height="18" fill="white"/>
</clipPath>
</defs>
</svg>
