<svg width="10" height="24" viewBox="0 0 10 24" fill="none" xmlns="http://www.w3.org/2000/svg">
<g id="label-paired / md / euro-sign-md / regular" clip-path="url(#clip0_2556_14622)">
<path id="icon" d="M1.0625 11H0.5C0.21875 11 0 10.7812 0 10.5C0 10.25 0.21875 10 0.5 10H1.28125C2.125 7.125 4.8125 5 8 5H9.53125C9.78125 5 10.0312 5.25 10.0312 5.5C10.0312 5.78125 9.78125 6 9.53125 6H8C5.375 6 3.15625 7.6875 2.3125 10H8.5C8.75 10 9 10.25 9 10.5C9 10.7812 8.75 11 8.5 11H2.0625C2 11.3438 2 11.6875 2 12C2 12.3438 2.03125 12.6875 2.0625 13H8.5C8.75 13 9 13.25 9 13.5C9 13.7812 8.75 14 8.5 14H2.3125C3.15625 16.3438 5.375 18 8 18H9.53125C9.78125 18 10.0312 18.25 10.0312 18.5C10.0312 18.7812 9.78125 19 9.53125 19H8C4.8125 19 2.125 16.9062 1.28125 14H0.5C0.21875 14 0 13.7812 0 13.5C0 13.25 0.21875 13 0.5 13H1.0625C1 12.6875 1 12.3438 1 12C1 11.6875 1 11.3438 1.0625 11Z" fill="black" fill-opacity="0.72"/>
</g>
<defs>
<clipPath id="clip0_2556_14622">
<rect width="10" height="24" fill="white"/>
</clipPath>
</defs>
</svg>
