<svg width="12" height="18" viewBox="0 0 12 18" fill="none" xmlns="http://www.w3.org/2000/svg">
<g id="label-paired / caption / circle-arrow-up-caption / regular" clip-path="url(#clip0_2556_10370)">
<path id="icon" d="M6 4.25C4.10156 4.25 2.39062 5.25781 1.45312 6.875C0.492188 8.51562 0.492188 10.5078 1.45312 12.125C2.39062 13.7656 4.10156 14.75 6 14.75C7.875 14.75 9.58594 13.7656 10.5234 12.125C11.4844 10.5078 11.4844 8.51562 10.5234 6.875C9.58594 5.25781 7.875 4.25 6 4.25ZM6 15.5C3.84375 15.5 1.875 14.375 0.796875 12.5C-0.28125 10.6484 -0.28125 8.375 0.796875 6.5C1.875 4.64844 3.84375 3.5 6 3.5C8.13281 3.5 10.1016 4.64844 11.1797 6.5C12.2578 8.375 12.2578 10.6484 11.1797 12.5C10.1016 14.375 8.13281 15.5 6 15.5ZM8.50781 8.86719C8.64844 9.00781 8.64844 9.26562 8.50781 9.40625C8.36719 9.54688 8.10938 9.54688 7.96875 9.40625L6.375 7.78906V12.125C6.375 12.3359 6.1875 12.5 6 12.5C5.78906 12.5 5.625 12.3359 5.625 12.125V7.78906L4.00781 9.40625C3.86719 9.54688 3.60938 9.54688 3.46875 9.40625C3.32812 9.26562 3.32812 9.00781 3.46875 8.86719L5.71875 6.61719C5.85938 6.47656 6.11719 6.47656 6.25781 6.61719L8.50781 8.86719Z" fill="black" fill-opacity="0.72"/>
</g>
<defs>
<clipPath id="clip0_2556_10370">
<rect width="12" height="18" fill="white"/>
</clipPath>
</defs>
</svg>
