<svg width="14" height="24" viewBox="0 0 14 24" fill="none" xmlns="http://www.w3.org/2000/svg">
<g id="label-paired / md / bars-md / regular" clip-path="url(#clip0_2556_15204)">
<path id="icon" d="M0 6.5C0 6.25 0.21875 6 0.5 6H13.5C13.75 6 14 6.25 14 6.5C14 6.78125 13.75 7 13.5 7H0.5C0.21875 7 0 6.78125 0 6.5ZM0 11.5C0 11.25 0.21875 11 0.5 11H13.5C13.75 11 14 11.25 14 11.5C14 11.7812 13.75 12 13.5 12H0.5C0.21875 12 0 11.7812 0 11.5ZM14 16.5C14 16.7812 13.75 17 13.5 17H0.5C0.21875 17 0 16.7812 0 16.5C0 16.25 0.21875 16 0.5 16H13.5C13.75 16 14 16.25 14 16.5Z" fill="black" fill-opacity="0.72"/>
</g>
<defs>
<clipPath id="clip0_2556_15204">
<rect width="14" height="24" fill="white"/>
</clipPath>
</defs>
</svg>
