<svg width="21" height="36" viewBox="0 0 21 36" fill="none" xmlns="http://www.w3.org/2000/svg">
<g id="label-paired / xl / paperclip-xl / bold" clip-path="url(#clip0_2981_831)">
<path id="icon" d="M17.5781 9.42188C16.3594 8.20312 14.3438 8.20312 13.125 9.42188L4.17188 18.4219C2.10938 20.4844 2.10938 23.8125 4.17188 25.8281C6.1875 27.8906 9.51562 27.8906 11.5781 25.8281L18.7031 18.7031C19.125 18.2812 19.8281 18.2812 20.25 18.7031C20.7188 19.1719 20.7188 19.875 20.25 20.2969L13.1719 27.4219C10.2188 30.375 5.48438 30.375 2.57812 27.4219C-0.375 24.5156 -0.375 19.7812 2.57812 16.8281L11.5781 7.82812C13.6406 5.76562 17.0625 5.76562 19.1719 7.82812C21.2344 9.9375 21.2344 13.3594 19.1719 15.4219L10.5469 24.0469C9.04688 25.5469 6.60938 25.4062 5.29688 23.7656C4.17188 22.3594 4.3125 20.3438 5.57812 19.0781L12.7031 11.9531C13.125 11.5312 13.8281 11.5312 14.25 11.9531C14.7188 12.4219 14.7188 13.125 14.25 13.5469L7.17188 20.6719C6.70312 21.1406 6.65625 21.8438 7.07812 22.3594C7.54688 22.9219 8.39062 23.0156 8.95312 22.4531L17.5781 13.8281C18.7969 12.6094 18.7969 10.6406 17.5781 9.42188Z" fill="black" fill-opacity="0.72"/>
</g>
<defs>
<clipPath id="clip0_2981_831">
<rect width="21" height="36" fill="white"/>
</clipPath>
</defs>
</svg>
