<svg width="14" height="18" viewBox="0 0 14 18" fill="none" xmlns="http://www.w3.org/2000/svg">
<g id="label-paired / caption / money-bill-caption / bold" clip-path="url(#clip0_2556_9934)">
<path id="icon" d="M2.875 6.125C2.875 6.96875 2.19531 7.625 1.375 7.625V11.375C2.19531 11.375 2.875 12.0547 2.875 12.875H11.125C11.125 12.0547 11.7812 11.375 12.625 11.375V7.625C11.7812 7.625 11.125 6.96875 11.125 6.125H2.875ZM0.25 6.5C0.25 5.67969 0.90625 5 1.75 5H12.25C13.0703 5 13.75 5.67969 13.75 6.5V12.5C13.75 13.3438 13.0703 14 12.25 14H1.75C0.90625 14 0.25 13.3438 0.25 12.5V6.5ZM7 7.25C7.79688 7.25 8.52344 7.69531 8.94531 8.375C9.34375 9.07812 9.34375 9.94531 8.94531 10.625C8.52344 11.3281 7.79688 11.75 7 11.75C6.17969 11.75 5.45312 11.3281 5.03125 10.625C4.63281 9.94531 4.63281 9.07812 5.03125 8.375C5.45312 7.69531 6.17969 7.25 7 7.25Z" fill="black" fill-opacity="0.72"/>
</g>
<defs>
<clipPath id="clip0_2556_9934">
<rect width="14" height="18" fill="white"/>
</clipPath>
</defs>
</svg>
