<svg width="14" height="22" viewBox="0 0 14 22" fill="none" xmlns="http://www.w3.org/2000/svg">
<g id="label-paired / sm / circle-arrow-down-right-sm / fill" clip-path="url(#clip0_2556_12581)">
<path id="icon" d="M7 3.75C9.48828 3.75 11.7852 5.08984 13.043 7.25C14.3008 9.4375 14.3008 12.0898 13.043 14.25C11.7852 16.4375 9.48828 17.75 7 17.75C4.48438 17.75 2.1875 16.4375 0.929688 14.25C-0.328125 12.0898 -0.328125 9.4375 0.929688 7.25C2.1875 5.08984 4.48438 3.75 7 3.75ZM5.25 13.8125H9.37891C9.76172 13.8125 10.0352 13.5391 10.0352 13.1562V8.78125C10.0352 8.42578 9.76172 8.125 9.37891 8.125C9.02344 8.125 8.72266 8.42578 8.72266 8.78125V11.5977L5.03125 7.90625C4.78516 7.63281 4.375 7.63281 4.12891 7.90625C3.85547 8.15234 3.85547 8.5625 4.12891 8.80859L7.82031 12.5H5.25C4.86719 12.5 4.59375 12.8008 4.59375 13.1562C4.59375 13.5391 4.86719 13.8125 5.25 13.8125Z" fill="black" fill-opacity="0.72"/>
</g>
<defs>
<clipPath id="clip0_2556_12581">
<rect width="14" height="22" fill="white"/>
</clipPath>
</defs>
</svg>
