<svg width="13" height="22" viewBox="0 0 13 22" fill="none" xmlns="http://www.w3.org/2000/svg">
<g id="label-paired / sm / compress-sm / fill" clip-path="url(#clip0_2556_12980)">
<path id="icon" d="M4.75 5.5V8.125C4.75 8.61719 4.33984 9 3.875 9H1.25C0.757812 9 0.375 8.61719 0.375 8.125C0.375 7.66016 0.757812 7.25 1.25 7.25H3V5.5C3 5.03516 3.38281 4.625 3.875 4.625C4.33984 4.625 4.75 5.03516 4.75 5.5ZM1.25 12.5H3.875C4.33984 12.5 4.75 12.9102 4.75 13.375V16C4.75 16.4922 4.33984 16.875 3.875 16.875C3.38281 16.875 3 16.4922 3 16V14.25H1.25C0.757812 14.25 0.375 13.8672 0.375 13.375C0.375 12.9102 0.757812 12.5 1.25 12.5ZM10 5.5V7.25H11.75C12.2148 7.25 12.625 7.66016 12.625 8.125C12.625 8.61719 12.2148 9 11.75 9H9.125C8.63281 9 8.25 8.61719 8.25 8.125V5.5C8.25 5.03516 8.63281 4.625 9.125 4.625C9.58984 4.625 10 5.03516 10 5.5ZM9.125 12.5H11.75C12.2148 12.5 12.625 12.9102 12.625 13.375C12.625 13.8672 12.2148 14.25 11.75 14.25H10V16C10 16.4922 9.58984 16.875 9.125 16.875C8.63281 16.875 8.25 16.4922 8.25 16V13.375C8.25 12.9102 8.63281 12.5 9.125 12.5Z" fill="black" fill-opacity="0.72"/>
</g>
<defs>
<clipPath id="clip0_2556_12980">
<rect width="13" height="22" fill="white"/>
</clipPath>
</defs>
</svg>
