<svg width="18" height="30" viewBox="0 0 18 30" fill="none" xmlns="http://www.w3.org/2000/svg">
<g id="label-paired / lg / plus-lg / bold" clip-path="url(#clip0_2556_17660)">
<path id="icon" d="M9.9375 8.3125V14.5625H16.1875C16.6953 14.5625 17.125 14.9922 17.125 15.5C17.125 16.0469 16.6953 16.4375 16.1875 16.4375H9.9375V22.6875C9.9375 23.2344 9.50781 23.625 9 23.625C8.45312 23.625 8.0625 23.2344 8.0625 22.6875V16.4375H1.8125C1.26562 16.4375 0.875 16.0469 0.875 15.5C0.875 14.9922 1.26562 14.5625 1.8125 14.5625H8.0625V8.3125C8.0625 7.80469 8.45312 7.375 9 7.375C9.50781 7.375 9.9375 7.80469 9.9375 8.3125Z" fill="black" fill-opacity="0.72"/>
</g>
<defs>
<clipPath id="clip0_2556_17660">
<rect width="18" height="30" fill="white"/>
</clipPath>
</defs>
</svg>
