<svg width="14" height="22" viewBox="0 0 14 22" fill="none" xmlns="http://www.w3.org/2000/svg">
<g id="label-paired / sm / clone-sm / bold" clip-path="url(#clip0_2556_12606)">
<path id="icon" d="M1.75 16.4375H7.875C8.09375 16.4375 8.3125 16.2461 8.3125 16V14.25H9.625V16C9.625 16.9844 8.83203 17.75 7.875 17.75H1.75C0.765625 17.75 0 16.9844 0 16V9.875C0 8.91797 0.765625 8.125 1.75 8.125H3.5V9.4375H1.75C1.50391 9.4375 1.3125 9.65625 1.3125 9.875V16C1.3125 16.2461 1.50391 16.4375 1.75 16.4375ZM6.125 12.0625H12.25C12.4688 12.0625 12.6875 11.8711 12.6875 11.625V5.5C12.6875 5.28125 12.4688 5.0625 12.25 5.0625H6.125C5.87891 5.0625 5.6875 5.28125 5.6875 5.5V11.625C5.6875 11.8711 5.87891 12.0625 6.125 12.0625ZM4.375 11.625V5.5C4.375 4.54297 5.14062 3.75 6.125 3.75H12.25C13.207 3.75 14 4.54297 14 5.5V11.625C14 12.6094 13.207 13.375 12.25 13.375H6.125C5.14062 13.375 4.375 12.6094 4.375 11.625Z" fill="black" fill-opacity="0.72"/>
</g>
<defs>
<clipPath id="clip0_2556_12606">
<rect width="14" height="22" fill="white"/>
</clipPath>
</defs>
</svg>
