<svg width="20" height="30" viewBox="0 0 20 30" fill="none" xmlns="http://www.w3.org/2000/svg">
<g id="label-paired / lg / clapperboard-play-lg / regular" clip-path="url(#clip0_3431_940)">
<path id="icon" d="M18.75 13H1.25V21.75C1.25 22.4531 1.79688 23 2.5 23H17.5C18.1641 23 18.75 22.4531 18.75 21.75V13ZM18.75 11.75V9.25C18.75 8.89844 18.5938 8.58594 18.3203 8.35156L14.9219 11.75H18.75ZM8.98438 11.75H13.1641L16.9141 8H12.7344L8.98438 11.75ZM7.22656 11.75L10.9766 8H6.79688L3.04688 11.75H7.22656ZM2.5 8C1.79688 8 1.25 8.58594 1.25 9.25V11.75H1.28906L5.03906 8H2.5ZM20 11.75V12.375V13V21.75C20 23.1562 18.8672 24.25 17.5 24.25H2.5C1.09375 24.25 0 23.1562 0 21.75V13V12.375V11.75V9.25C0 7.88281 1.09375 6.75 2.5 6.75H17.5C18.8672 6.75 20 7.88281 20 9.25V11.75ZM8.4375 14.3672L13.75 17.4922C13.9453 17.6094 14.0625 17.8047 14.0625 18C14.0625 18.2344 13.9453 18.4297 13.75 18.5469L8.4375 21.6719C8.24219 21.7891 8.00781 21.7891 7.8125 21.6719C7.61719 21.5547 7.46094 21.3594 7.46094 21.125V14.875C7.46094 14.6797 7.61719 14.4453 7.8125 14.3672C8.00781 14.25 8.24219 14.25 8.4375 14.3672ZM12.1875 18L8.75 15.9688V20.0312L12.1875 18Z" fill="black" fill-opacity="0.72"/>
</g>
<defs>
<clipPath id="clip0_3431_940">
<rect width="20" height="30" fill="white"/>
</clipPath>
</defs>
</svg>
