<svg width="18" height="22" viewBox="0 0 18 22" fill="none" xmlns="http://www.w3.org/2000/svg">
<g id="label-paired / sm / user-slash-sm / bold" clip-path="url(#clip0_2556_12274)">
<path id="icon" d="M1.28906 3.91406L5.5 7.19531C5.52734 5.28125 7.08594 3.75 9 3.75C10.9141 3.75 12.5 5.33594 12.5 7.25C12.5 8.89062 11.3789 10.2305 9.90234 10.6406L17.4766 16.6016C17.7773 16.8203 17.832 17.2305 17.5859 17.5039C17.3672 17.8047 16.957 17.8594 16.6836 17.6133L0.496094 4.92578C0.195312 4.70703 0.140625 4.29688 0.386719 4.02344C0.605469 3.72266 1.01562 3.66797 1.28906 3.91406ZM8.17969 9.30078C8.42578 9.38281 8.69922 9.4375 9 9.4375C10.2031 9.4375 11.1875 8.48047 11.1875 7.25C11.1875 6.04688 10.2031 5.0625 9 5.0625C7.76953 5.0625 6.8125 6.04688 6.8125 7.25C6.8125 7.74219 6.94922 8.17969 7.19531 8.53516L8.17969 9.30078ZM7.46875 12.0898L9.10938 13.375H7.74219C5.9375 13.375 4.46094 14.7148 4.21484 16.4375H13.0195L14.6055 17.6953C14.4961 17.75 14.4141 17.75 14.3047 17.75H3.66797C3.23047 17.75 2.875 17.3945 2.875 16.957C2.875 14.3594 4.89844 12.2266 7.46875 12.0898Z" fill="black" fill-opacity="0.72"/>
</g>
<defs>
<clipPath id="clip0_2556_12274">
<rect width="18" height="22" fill="white"/>
</clipPath>
</defs>
</svg>
