<svg width="11" height="22" viewBox="0 0 11 22" fill="none" xmlns="http://www.w3.org/2000/svg">
<g id="label-paired / sm / location-dot-sm / regular" clip-path="url(#clip0_2556_12759)">
<path id="icon" d="M9.875 9C9.875 6.59375 7.90625 4.625 5.5 4.625C3.06641 4.625 1.125 6.59375 1.125 9C1.125 9.4375 1.26172 10.0117 1.5625 10.75C1.86328 11.4609 2.27344 12.2266 2.76562 12.9922C3.69531 14.4961 4.78906 15.9453 5.5 16.8203C6.18359 15.9453 7.27734 14.4961 8.23438 12.9922C8.69922 12.2266 9.10938 11.4609 9.41016 10.75C9.71094 10.0117 9.875 9.4375 9.875 9ZM10.75 9C10.75 11.4062 7.55078 15.6445 6.12891 17.4219C5.80078 17.832 5.17188 17.832 4.84375 17.4219C3.44922 15.6445 0.25 11.4062 0.25 9C0.25 6.10156 2.60156 3.75 5.5 3.75C8.39844 3.75 10.75 6.10156 10.75 9ZM4.1875 9C4.1875 9.49219 4.43359 9.90234 4.84375 10.1484C5.22656 10.3945 5.74609 10.3945 6.15625 10.1484C6.53906 9.90234 6.8125 9.49219 6.8125 9C6.8125 8.53516 6.53906 8.125 6.15625 7.87891C5.74609 7.63281 5.22656 7.63281 4.84375 7.87891C4.43359 8.125 4.1875 8.53516 4.1875 9ZM5.5 11.1875C4.70703 11.1875 3.99609 10.7773 3.58594 10.0938C3.20312 9.4375 3.20312 8.58984 3.58594 7.90625C3.99609 7.25 4.70703 6.8125 5.5 6.8125C6.26562 6.8125 6.97656 7.25 7.38672 7.90625C7.76953 8.58984 7.76953 9.4375 7.38672 10.0938C6.97656 10.7773 6.26562 11.1875 5.5 11.1875Z" fill="black" fill-opacity="0.72"/>
</g>
<defs>
<clipPath id="clip0_2556_12759">
<rect width="11" height="22" fill="white"/>
</clipPath>
</defs>
</svg>
