<svg width="14" height="22" viewBox="0 0 14 22" fill="none" xmlns="http://www.w3.org/2000/svg">
<g id="label-paired / sm / circle-three-sm / regular" clip-path="url(#clip0_2556_12473)">
<path id="icon" d="M7 4.625C4.78516 4.625 2.78906 5.80078 1.69531 7.6875C0.574219 9.60156 0.574219 11.9258 1.69531 13.8125C2.78906 15.7266 4.78516 16.875 7 16.875C9.1875 16.875 11.1836 15.7266 12.2773 13.8125C13.3984 11.9258 13.3984 9.60156 12.2773 7.6875C11.1836 5.80078 9.1875 4.625 7 4.625ZM7 17.75C4.48438 17.75 2.1875 16.4375 0.929688 14.25C-0.328125 12.0898 -0.328125 9.4375 0.929688 7.25C2.1875 5.08984 4.48438 3.75 7 3.75C9.48828 3.75 11.7852 5.08984 13.043 7.25C14.3008 9.4375 14.3008 12.0898 13.043 14.25C11.7852 16.4375 9.48828 17.75 7 17.75ZM4.8125 7.25V7.27734H8.72266C8.91406 7.27734 9.07812 7.38672 9.13281 7.55078C9.21484 7.71484 9.16016 7.90625 9.02344 8.04297L6.86328 9.875H7.41016C8.61328 9.875 9.59766 10.8594 9.59766 12.0625C9.59766 13.293 8.64062 14.2773 7.41016 14.2773H6.42578C5.6875 14.2773 4.97656 13.9219 4.51172 13.3203L4.45703 13.2109C4.29297 13.0195 4.34766 12.7461 4.53906 12.6094C4.73047 12.4453 5.00391 12.5 5.14062 12.6914L5.22266 12.7734C5.49609 13.1562 5.96094 13.4023 6.42578 13.4023H7.41016C8.14844 13.4023 8.72266 12.8008 8.72266 12.0625C8.72266 11.3516 8.14844 10.75 7.41016 10.75H5.6875C5.49609 10.75 5.33203 10.6406 5.25 10.4766C5.19531 10.3125 5.25 10.1211 5.38672 9.98438L7.54688 8.125H4.8125C4.56641 8.125 4.375 7.93359 4.375 7.6875C4.375 7.46875 4.56641 7.25 4.8125 7.25Z" fill="black" fill-opacity="0.72"/>
</g>
<defs>
<clipPath id="clip0_2556_12473">
<rect width="14" height="22" fill="white"/>
</clipPath>
</defs>
</svg>
