<svg width="12" height="18" viewBox="0 0 12 18" fill="none" xmlns="http://www.w3.org/2000/svg">
<g id="label-paired / caption / loader-caption / bold" clip-path="url(#clip0_2981_657)">
<path id="icon" d="M6.5625 4.0625V5.9375C6.5625 6.26562 6.30469 6.5 6 6.5C5.67188 6.5 5.4375 6.26562 5.4375 5.9375V4.0625C5.4375 3.75781 5.67188 3.5 6 3.5C6.30469 3.5 6.5625 3.75781 6.5625 4.0625ZM6.5625 13.0625V14.9375C6.5625 15.2656 6.30469 15.5 6 15.5C5.67188 15.5 5.4375 15.2656 5.4375 14.9375V13.0625C5.4375 12.7578 5.67188 12.5 6 12.5C6.30469 12.5 6.5625 12.7578 6.5625 13.0625ZM0 9.5C0 9.19531 0.234375 8.9375 0.5625 8.9375H2.4375C2.74219 8.9375 3 9.19531 3 9.5C3 9.82812 2.74219 10.0625 2.4375 10.0625H0.5625C0.234375 10.0625 0 9.82812 0 9.5ZM9.5625 8.9375H11.4375C11.7422 8.9375 12 9.19531 12 9.5C12 9.82812 11.7422 10.0625 11.4375 10.0625H9.5625C9.23438 10.0625 9 9.82812 9 9.5C9 9.19531 9.23438 8.9375 9.5625 8.9375ZM10.2422 5.25781C10.4531 5.49219 10.4531 5.84375 10.2422 6.05469L8.90625 7.39062C8.69531 7.60156 8.32031 7.60156 8.10938 7.39062C7.89844 7.17969 7.89844 6.80469 8.10938 6.59375L9.44531 5.25781C9.65625 5.04688 10.0078 5.04688 10.2422 5.25781ZM3.86719 12.4297L2.53125 13.7422C2.32031 13.9766 1.96875 13.9766 1.75781 13.7422C1.52344 13.5312 1.52344 13.1797 1.75781 12.9688L3.07031 11.6328C3.28125 11.4219 3.65625 11.4219 3.86719 11.6328C4.07812 11.8438 4.07812 12.1953 3.86719 12.4297ZM1.75781 5.25781C1.96875 5.04688 2.32031 5.04688 2.53125 5.25781L3.86719 6.59375C4.07812 6.80469 4.07812 7.17969 3.86719 7.39062C3.65625 7.60156 3.30469 7.60156 3.07031 7.39062L1.75781 6.05469C1.52344 5.84375 1.52344 5.49219 1.75781 5.25781ZM8.90625 11.6328L10.2422 12.9688C10.4531 13.1797 10.4531 13.5312 10.2422 13.7422C10.0078 13.9766 9.65625 13.9766 9.44531 13.7422L8.10938 12.4297C7.89844 12.2188 7.89844 11.8438 8.10938 11.6328C8.32031 11.4219 8.69531 11.4219 8.90625 11.6328Z" fill="black" fill-opacity="0.72"/>
</g>
<defs>
<clipPath id="clip0_2981_657">
<rect width="12" height="18" fill="white"/>
</clipPath>
</defs>
</svg>
