<svg width="18" height="30" viewBox="0 0 18 30" fill="none" xmlns="http://www.w3.org/2000/svg">
<g id="label-paired / lg / trash-lg / regular" clip-path="url(#clip0_2556_17641)">
<path id="icon" d="M7.16406 6.75C6.96875 6.75 6.77344 6.86719 6.65625 7.0625L6.03125 8H11.9297L11.3047 7.0625C11.1875 6.86719 10.9922 6.75 10.7969 6.75H7.16406ZM13.375 8H15.2109H16.5H17.125C17.4375 8 17.75 8.3125 17.75 8.625C17.75 8.97656 17.4375 9.25 17.125 9.25H16.3828L15.4062 23.1953C15.2891 24.5234 14.2344 25.5 12.9062 25.5H5.05469C3.76562 25.5 2.67188 24.5234 2.55469 23.1953L1.57812 9.25H0.875C0.523438 9.25 0.25 8.97656 0.25 8.625C0.25 8.3125 0.523438 8 0.875 8H1.5H2.75H4.58594L5.60156 6.39844C5.91406 5.85156 6.53906 5.5 7.16406 5.5H10.7969C11.4219 5.5 12.0469 5.85156 12.3984 6.39844L13.375 8ZM15.1328 9.25H2.82812L3.80469 23.1172C3.84375 23.7422 4.39062 24.25 5.05469 24.25H12.9062C13.5703 24.25 14.1172 23.7422 14.1562 23.1172L15.1328 9.25Z" fill="black" fill-opacity="0.72"/>
</g>
<defs>
<clipPath id="clip0_2556_17641">
<rect width="18" height="30" fill="white"/>
</clipPath>
</defs>
</svg>
