<svg width="20" height="30" viewBox="0 0 20 30" fill="none" xmlns="http://www.w3.org/2000/svg">
<g id="label-paired / lg / circle-one-lg / regular" clip-path="url(#clip0_2556_17314)">
<path id="icon" d="M18.75 15.5C18.75 12.375 17.0703 9.52344 14.375 7.96094C11.6406 6.35938 8.32031 6.35938 5.625 7.96094C2.89062 9.52344 1.25 12.375 1.25 15.5C1.25 18.6641 2.89062 21.5156 5.625 23.0781C8.32031 24.6797 11.6406 24.6797 14.375 23.0781C17.0703 21.5156 18.75 18.6641 18.75 15.5ZM0 15.5C0 11.9453 1.875 8.66406 5 6.86719C8.08594 5.07031 11.875 5.07031 15 6.86719C18.0859 8.66406 20 11.9453 20 15.5C20 19.0938 18.0859 22.375 15 24.1719C11.875 25.9688 8.08594 25.9688 5 24.1719C1.875 22.375 0 19.0938 0 15.5ZM10.3125 10.6172C10.4688 10.7344 10.625 10.9297 10.625 11.125V19.25H12.5C12.8125 19.25 13.125 19.5625 13.125 19.875C13.125 20.2266 12.8125 20.5 12.5 20.5H10H7.5C7.14844 20.5 6.875 20.2266 6.875 19.875C6.875 19.5625 7.14844 19.25 7.5 19.25H9.375V12.2188L8.08594 12.9219C7.8125 13.1172 7.42188 13 7.26562 12.6875C7.07031 12.4141 7.1875 12.0234 7.5 11.8672L9.6875 10.6172C9.88281 10.5 10.1172 10.5 10.3125 10.6172Z" fill="black" fill-opacity="0.72"/>
</g>
<defs>
<clipPath id="clip0_2556_17314">
<rect width="20" height="30" fill="white"/>
</clipPath>
</defs>
</svg>
