<svg width="16" height="24" viewBox="0 0 16 24" fill="none" xmlns="http://www.w3.org/2000/svg">
<g id="label-paired / md / magnifying-glass-plus-md / bold" clip-path="url(#clip0_3431_872)">
<path id="icon" d="M6.5 5.5C4.6875 5.5 3.0625 6.46875 2.15625 8C1.25 9.5625 1.25 11.4688 2.15625 13C3.0625 14.5625 4.6875 15.5 6.5 15.5C8.28125 15.5 9.90625 14.5625 10.8125 13C11.7188 11.4688 11.7188 9.5625 10.8125 8C9.90625 6.46875 8.28125 5.5 6.5 5.5ZM6.5 17C2.90625 17 0 14.0938 0 10.5C0 6.9375 2.90625 4 6.5 4C10.0625 4 13 6.9375 13 10.5C13 12.0312 12.4688 13.4375 11.5938 14.5625L15.75 18.75C16.0625 19.0312 16.0625 19.5 15.75 19.7812C15.4688 20.0938 15 20.0938 14.7188 19.7812L10.5312 15.625C9.40625 16.5 8 17 6.5 17ZM5.75 13.25V11.25H3.75C3.3125 11.25 3 10.9375 3 10.5C3 10.0938 3.3125 9.75 3.75 9.75H5.75V7.75C5.75 7.34375 6.0625 7 6.5 7C6.90625 7 7.25 7.34375 7.25 7.75V9.75H9.25C9.65625 9.75 10 10.0938 10 10.5C10 10.9375 9.65625 11.25 9.25 11.25H7.25V13.25C7.25 13.6875 6.90625 14 6.5 14C6.0625 14 5.75 13.6875 5.75 13.25Z" fill="black" fill-opacity="0.72"/>
</g>
<defs>
<clipPath id="clip0_3431_872">
<rect width="16" height="24" fill="white"/>
</clipPath>
</defs>
</svg>
