<svg width="16" height="22" viewBox="0 0 16 22" fill="none" xmlns="http://www.w3.org/2000/svg">
<g id="label-paired / sm / rectangle-ad-sm / fill" clip-path="url(#clip0_2556_12930)">
<path id="icon" d="M1.875 4.625H14.125C15.082 4.625 15.875 5.41797 15.875 6.375V15.125C15.875 16.1094 15.082 16.875 14.125 16.875H1.875C0.890625 16.875 0.125 16.1094 0.125 15.125V6.375C0.125 5.41797 0.890625 4.625 1.875 4.625ZM6.38672 8.50781C6.27734 8.26172 6.05859 8.125 5.8125 8.125C5.53906 8.125 5.32031 8.28906 5.21094 8.50781L3.24219 12.4453C3.07812 12.7734 3.21484 13.1562 3.54297 13.3203C3.87109 13.4844 4.25391 13.3477 4.41797 13.0195L4.55469 12.7188H7.04297L7.17969 13.0195C7.34375 13.3477 7.75391 13.4844 8.05469 13.3203C8.38281 13.1562 8.51953 12.7734 8.35547 12.4453L6.38672 8.50781ZM5.8125 10.2578L6.38672 11.4062H5.21094L5.8125 10.2578ZM10.8438 10.75C11.1992 10.75 11.5 11.0508 11.5 11.4062C11.5 11.7891 11.1992 12.0625 10.8438 12.0625C10.4609 12.0625 10.1875 11.7891 10.1875 11.4062C10.1875 11.0508 10.4609 10.75 10.8438 10.75ZM11.5 9.57422C11.2812 9.49219 11.0625 9.4375 10.8438 9.4375C9.75 9.4375 8.875 10.3398 8.875 11.4062C8.875 12.5 9.75 13.375 10.8438 13.375C11.1445 13.375 11.418 13.3203 11.6914 13.1836C11.8008 13.3203 11.9648 13.375 12.1562 13.375C12.5117 13.375 12.8125 13.1016 12.8125 12.7188V11.4062V8.78125C12.8125 8.42578 12.5117 8.125 12.1562 8.125C11.7734 8.125 11.5 8.42578 11.5 8.78125V9.57422Z" fill="black" fill-opacity="0.72"/>
</g>
<defs>
<clipPath id="clip0_2556_12930">
<rect width="16" height="22" fill="white"/>
</clipPath>
</defs>
</svg>
