<svg width="24" height="36" viewBox="0 0 24 36" fill="none" xmlns="http://www.w3.org/2000/svg">
<g id="label-paired / xl / sparkles-xl / fill" clip-path="url(#clip0_5090_478)">
<path id="icon" d="M15.3281 10.0312L18 9L18.9844 6.375C19.0312 6.14062 19.2656 6 19.5 6C19.6875 6 19.9219 6.14062 19.9688 6.375L21 9L23.625 10.0312C23.8594 10.0781 24 10.3125 24 10.5C24 10.7344 23.8594 10.9688 23.625 11.0156L21 12L19.9688 14.6719C19.9219 14.8594 19.6875 15 19.5 15C19.2656 15 19.0312 14.8594 18.9844 14.6719L18 12L15.3281 11.0156C15.1406 10.9688 15 10.7344 15 10.5C15 10.3125 15.1406 10.0781 15.3281 10.0312ZM9.60938 9.46875L12.0469 14.8125L17.3906 17.25C17.6719 17.3906 17.8594 17.6719 17.8594 17.9531C17.8594 18.2344 17.6719 18.5156 17.3906 18.6094L12.0469 21.0938L9.60938 26.4375C9.46875 26.7188 9.1875 26.9062 8.90625 26.9062C8.625 26.9062 8.34375 26.7188 8.25 26.4375L5.76562 21.0938L0.421875 18.6562C0.140625 18.5156 0 18.2344 0 17.9531C0 17.6719 0.140625 17.3906 0.421875 17.25L5.76562 14.8125L8.25 9.46875C8.34375 9.1875 8.625 9 8.90625 9C9.1875 9 9.46875 9.1875 9.60938 9.46875ZM18 24L18.9844 21.375C19.0312 21.1406 19.2656 21 19.5 21C19.6875 21 19.9219 21.1406 19.9688 21.375L21 24L23.625 25.0312C23.8594 25.0781 24 25.3125 24 25.5C24 25.7344 23.8594 25.9688 23.625 26.0156L21 27L19.9688 29.6719C19.9219 29.8594 19.6875 30 19.5 30C19.2656 30 19.0312 29.8594 18.9844 29.6719L18 27L15.3281 26.0156C15.1406 25.9688 15 25.7344 15 25.5C15 25.3125 15.1406 25.0781 15.3281 25.0312L18 24Z" fill="black" fill-opacity="0.72"/>
</g>
<defs>
<clipPath id="clip0_5090_478">
<rect width="24" height="36" fill="white"/>
</clipPath>
</defs>
</svg>
