<svg width="12" height="18" viewBox="0 0 12 18" fill="none" xmlns="http://www.w3.org/2000/svg">
<g id="label-paired / caption / circle-eight-caption / fill" clip-path="url(#clip0_2556_10234)">
<path id="icon" d="M0 9.5C0 7.36719 1.125 5.39844 3 4.32031C4.85156 3.24219 7.125 3.24219 9 4.32031C10.8516 5.39844 12 7.36719 12 9.5C12 11.6562 10.8516 13.625 9 14.7031C7.125 15.7812 4.85156 15.7812 3 14.7031C1.125 13.625 0 11.6562 0 9.5ZM6.1875 6.5H5.8125C4.875 6.5 4.125 7.27344 4.125 8.1875C4.125 8.5625 4.24219 8.91406 4.42969 9.17188C4.00781 9.52344 3.75 10.0391 3.75 10.625C3.75 11.6797 4.57031 12.5 5.625 12.5H6.375C7.40625 12.5 8.25 11.6797 8.25 10.625C8.25 10.0391 7.96875 9.52344 7.54688 9.17188C7.75781 8.91406 7.875 8.5625 7.875 8.1875C7.875 7.27344 7.10156 6.5 6.1875 6.5ZM5.8125 8.75C5.48438 8.75 5.25 8.51562 5.25 8.1875C5.25 7.88281 5.48438 7.625 5.8125 7.625H6.1875C6.49219 7.625 6.75 7.88281 6.75 8.1875C6.75 8.51562 6.49219 8.75 6.1875 8.75H5.8125ZM6.1875 9.875H6.375C6.77344 9.875 7.125 10.2266 7.125 10.625C7.125 11.0469 6.77344 11.375 6.375 11.375H5.625C5.20312 11.375 4.875 11.0469 4.875 10.625C4.875 10.2266 5.20312 9.875 5.625 9.875H5.8125H6.1875Z" fill="black" fill-opacity="0.72"/>
</g>
<defs>
<clipPath id="clip0_2556_10234">
<rect width="12" height="18" fill="white"/>
</clipPath>
</defs>
</svg>
