<svg width="13" height="22" viewBox="0 0 13 22" fill="none" xmlns="http://www.w3.org/2000/svg">
<g id="label-paired / sm / stopwatch-sm / fill" clip-path="url(#clip0_2556_12835)">
<path id="icon" d="M5.1875 3.75H6.5H7.8125C8.27734 3.75 8.6875 4.16016 8.6875 4.625C8.6875 5.11719 8.27734 5.5 7.8125 5.5H7.375V6.45703C8.38672 6.62109 9.31641 7.03125 10.082 7.66016L10.6836 7.08594C11.0117 6.73047 11.5859 6.73047 11.9141 7.08594C12.2695 7.41406 12.2695 7.98828 11.9141 8.31641L11.2578 8.97266C11.832 9.875 12.1875 10.9414 12.1875 12.0625C12.1875 15.207 9.61719 17.75 6.5 17.75C3.35547 17.75 0.8125 15.207 0.8125 12.0625C0.8125 9.21875 2.89062 6.86719 5.625 6.45703V5.5H5.1875C4.69531 5.5 4.3125 5.11719 4.3125 4.625C4.3125 4.16016 4.69531 3.75 5.1875 3.75ZM7.15625 9C7.15625 8.64453 6.85547 8.34375 6.5 8.34375C6.11719 8.34375 5.84375 8.64453 5.84375 9V12.5C5.84375 12.8828 6.11719 13.1562 6.5 13.1562C6.85547 13.1562 7.15625 12.8828 7.15625 12.5V9Z" fill="black" fill-opacity="0.72"/>
</g>
<defs>
<clipPath id="clip0_2556_12835">
<rect width="13" height="22" fill="white"/>
</clipPath>
</defs>
</svg>
