<svg width="16" height="22" viewBox="0 0 16 22" fill="none" xmlns="http://www.w3.org/2000/svg">
<g id="label-paired / sm / folder-open-sm / bold" clip-path="url(#clip0_3431_781)">
<path id="icon" d="M10.625 16.875H2.50391H1.875C0.890625 16.875 0.125 16.1094 0.125 15.125V6.375C0.125 5.41797 0.890625 4.625 1.875 4.625H5.07422C5.53906 4.625 5.97656 4.81641 6.30469 5.14453L7.04297 5.88281C7.37109 6.21094 7.80859 6.375 8.27344 6.375H11.5C12.457 6.375 13.25 7.16797 13.25 8.125V9H11.9375V8.125C11.9375 7.90625 11.7188 7.6875 11.5 7.6875H8.27344C7.45312 7.6875 6.6875 7.38672 6.11328 6.8125L5.375 6.07422C5.29297 5.99219 5.18359 5.9375 5.07422 5.9375H1.875C1.62891 5.9375 1.4375 6.15625 1.4375 6.375V13.5391L3.29688 10.3125C3.46094 10.0391 3.73438 9.875 4.0625 9.875H15C15.3008 9.875 15.6016 10.0391 15.7383 10.3125C15.9023 10.5859 15.9023 10.9414 15.7383 11.2148L12.6758 16.4648C12.5117 16.7109 12.2383 16.875 11.9375 16.875H10.625Z" fill="black" fill-opacity="0.72"/>
</g>
<defs>
<clipPath id="clip0_3431_781">
<rect width="16" height="22" fill="white"/>
</clipPath>
</defs>
</svg>
