<svg width="9" height="18" viewBox="0 0 9 18" fill="none" xmlns="http://www.w3.org/2000/svg">
<g id="label-paired / caption / lightbulb-caption / bold" clip-path="url(#clip0_2512_1016)">
<path id="icon" d="M6.96094 9.33594C7.30469 8.83594 7.48438 8.26562 7.5 7.625C7.48438 6.78125 7.19531 6.07031 6.63281 5.49219C6.05469 4.92969 5.34375 4.64062 4.5 4.625C3.65625 4.64062 2.94531 4.92969 2.36719 5.49219C1.80469 6.07031 1.51562 6.78125 1.5 7.625C1.51562 8.26562 1.69531 8.83594 2.03906 9.33594C2.11719 9.46094 2.21875 9.60156 2.34375 9.75781C2.67188 10.1797 2.97656 10.6406 3.25781 11.1406C3.49219 11.5938 3.64062 12.0469 3.70312 12.5H2.55469C2.50781 12.2188 2.41406 11.9453 2.27344 11.6797C2.03906 11.2734 1.77344 10.875 1.47656 10.4844C1.35156 10.3125 1.22656 10.1406 1.10156 9.96875C0.632812 9.29688 0.390625 8.51562 0.375 7.625C0.40625 6.45312 0.8125 5.48438 1.59375 4.71875C2.35938 3.9375 3.32812 3.53125 4.5 3.5C5.67188 3.53125 6.64062 3.9375 7.40625 4.71875C8.1875 5.48438 8.59375 6.45312 8.625 7.625C8.60938 8.51562 8.36719 9.29688 7.89844 9.96875C7.77344 10.1406 7.64844 10.3047 7.52344 10.4609C7.52344 10.4766 7.52344 10.4844 7.52344 10.4844C7.22656 10.875 6.96094 11.2734 6.72656 11.6797C6.58594 11.9453 6.49219 12.2188 6.44531 12.5H5.29688C5.35938 12.0469 5.50781 11.5938 5.74219 11.1406C6.03906 10.6406 6.35156 10.1797 6.67969 9.75781C6.78906 9.60156 6.88281 9.46094 6.96094 9.33594ZM4.5 6.5C4.1875 6.51562 3.92188 6.625 3.70312 6.82812C3.5 7.04688 3.39062 7.3125 3.375 7.625C3.35938 7.85938 3.23438 7.98438 3 8C2.76562 7.98438 2.64062 7.85938 2.625 7.625C2.64062 7.09375 2.82031 6.64844 3.16406 6.28906C3.52344 5.94531 3.96875 5.76562 4.5 5.75C4.73438 5.76562 4.85938 5.89062 4.875 6.125C4.85938 6.35938 4.73438 6.48438 4.5 6.5ZM4.5 15.5C3.96875 15.4844 3.52344 15.3047 3.16406 14.9609C2.82031 14.6016 2.64062 14.1562 2.625 13.625V13.25H6.375V13.625C6.35938 14.1562 6.17969 14.6016 5.83594 14.9609C5.47656 15.3047 5.03125 15.4844 4.5 15.5Z" fill="black" fill-opacity="0.72"/>
</g>
<defs>
<clipPath id="clip0_2512_1016">
<rect width="9" height="18" fill="white"/>
</clipPath>
</defs>
</svg>
