<svg width="12" height="18" viewBox="0 0 12 18" fill="none" xmlns="http://www.w3.org/2000/svg">
<g id="label-paired / caption / arrow-up-from-square-caption / fill" clip-path="url(#clip0_2556_10477)">
<path id="icon" d="M6.51562 3.73438L8.76562 5.98438C9.07031 6.26562 9.07031 6.75781 8.76562 7.03906C8.48438 7.34375 7.99219 7.34375 7.71094 7.03906L6.75 6.07812V11C6.75 11.4219 6.39844 11.75 6 11.75C5.57812 11.75 5.25 11.4219 5.25 11V6.07812L4.26562 7.03906C3.98438 7.34375 3.49219 7.34375 3.21094 7.03906C2.90625 6.75781 2.90625 6.26562 3.21094 5.98438L5.46094 3.73438C5.74219 3.42969 6.23438 3.42969 6.51562 3.73438ZM1.5 6.125V13.625C1.5 13.8359 1.66406 14 1.875 14H10.125C10.3125 14 10.5 13.8359 10.5 13.625V6.125C10.5 5.9375 10.3125 5.75 10.125 5.75H9.9375C9.51562 5.75 9.1875 5.42188 9.1875 5C9.1875 4.60156 9.51562 4.25 9.9375 4.25H10.125C11.1562 4.25 12 5.09375 12 6.125V13.625C12 14.6797 11.1562 15.5 10.125 15.5H1.875C0.820312 15.5 0 14.6797 0 13.625V6.125C0 5.09375 0.820312 4.25 1.875 4.25H2.0625C2.46094 4.25 2.8125 4.60156 2.8125 5C2.8125 5.42188 2.46094 5.75 2.0625 5.75H1.875C1.66406 5.75 1.5 5.9375 1.5 6.125Z" fill="black" fill-opacity="0.72"/>
</g>
<defs>
<clipPath id="clip0_2556_10477">
<rect width="12" height="18" fill="white"/>
</clipPath>
</defs>
</svg>
