<svg width="25" height="30" viewBox="0 0 25 30" fill="none" xmlns="http://www.w3.org/2000/svg">
<g id="label-paired / lg / hands-holding-diamond-lg / bold" clip-path="url(#clip0_2556_16924)">
<path id="icon" d="M11.6016 5.89062C12.0703 5.38281 12.8906 5.38281 13.3594 5.89062L17.1094 9.64062C17.6172 10.1094 17.6172 10.9297 17.1094 11.3984L13.3594 15.1484C12.8906 15.6562 12.0703 15.6562 11.6016 15.1484L7.85156 11.3984C7.34375 10.9297 7.34375 10.1094 7.85156 9.64062L11.6016 5.89062ZM2.8125 8C4.33594 8 5.625 9.28906 5.625 10.8125V15.8516C6.09375 15.4609 6.71875 15.1875 7.38281 15.1875C8.08594 15.1875 8.78906 15.5 9.29688 16.0078L11.6797 18.3906C11.9922 18.7031 12.2656 19.0156 12.5 19.3672C12.6953 19.0156 12.9688 18.7031 13.2812 18.3906L15.6641 16.0078C16.1719 15.5 16.875 15.1875 17.5781 15.1875C18.2812 15.1875 18.9062 15.4609 19.375 15.8516V10.8125C19.375 9.28906 20.625 8 22.1875 8C23.75 8 25 9.28906 25 10.8125V19.2891C25 20.5 24.4922 21.7109 23.6328 22.6094L20.9766 25.2266C20.5859 25.6172 20 25.6172 19.6484 25.2266C19.2578 24.875 19.2578 24.2891 19.6484 23.9375L22.3047 21.2812C22.8125 20.7344 23.125 20.0312 23.125 19.2891V10.8125C23.125 10.3047 22.6953 9.875 22.1875 9.875C21.6406 9.875 21.25 10.3047 21.25 10.8125V16.5156C21.25 17.5312 20.8203 18.5078 20.1172 19.2109L19.4922 19.8359L18.4766 20.8516L17.8516 21.4766C17.4609 21.8672 16.875 21.8672 16.5234 21.4766C16.1328 21.125 16.1328 20.5391 16.5234 20.1875L17.1484 19.5625L18.1641 18.5078C18.3203 18.3516 18.4375 18.1172 18.4375 17.9219C18.4375 17.4531 18.0469 17.1016 17.5781 17.1016C17.3828 17.1016 17.1484 17.1797 16.9922 17.3359L14.6094 19.7188C13.8281 20.4609 13.4375 21.5156 13.4375 22.5703V24.5625C13.4375 25.1094 13.0078 25.5 12.5 25.5C11.9531 25.5 11.5625 25.1094 11.5625 24.5625V22.5703C11.5625 21.5156 11.1328 20.4609 10.3516 19.7188L7.96875 17.3359C7.8125 17.1797 7.57812 17.0625 7.38281 17.0625C6.91406 17.0625 6.5625 17.4531 6.5625 17.9219C6.5625 18.1172 6.64062 18.3516 6.79688 18.5078L7.85156 19.5234L8.47656 20.1484C8.82812 20.5391 8.82812 21.125 8.47656 21.4766C8.08594 21.8672 7.5 21.8672 7.14844 21.4766L6.52344 20.8516L5.46875 19.8359L4.84375 19.2109C4.14062 18.5078 3.75 17.5312 3.75 16.5156V10.8125C3.75 10.3047 3.32031 9.875 2.8125 9.875C2.26562 9.875 1.875 10.3047 1.875 10.8125V19.2891C1.875 20.0312 2.14844 20.7344 2.69531 21.2812L5.35156 23.8984C5.70312 24.2891 5.70312 24.875 5.35156 25.2266C4.96094 25.6172 4.375 25.6172 4.02344 25.2266L1.36719 22.6094C0.46875 21.7109 0 20.5391 0 19.2891V10.8125C0 9.28906 1.25 8 2.8125 8Z" fill="black" fill-opacity="0.72"/>
</g>
<defs>
<clipPath id="clip0_2556_16924">
<rect width="25" height="30" fill="white"/>
</clipPath>
</defs>
</svg>
