<svg width="27" height="36" viewBox="0 0 27 36" fill="none" xmlns="http://www.w3.org/2000/svg">
<g id="label-paired / xl / keyboard-xl / bold" clip-path="url(#clip0_2556_19612)">
<path id="icon" d="M3 11.25C2.57812 11.25 2.25 11.625 2.25 12V24C2.25 24.4219 2.57812 24.75 3 24.75H24C24.375 24.75 24.75 24.4219 24.75 24V12C24.75 11.625 24.375 11.25 24 11.25H3ZM0 12C0 10.3594 1.3125 9 3 9H24C25.6406 9 27 10.3594 27 12V24C27 25.6875 25.6406 27 24 27H3C1.3125 27 0 25.6875 0 24V12ZM8.25 21H18.75C19.125 21 19.5 21.375 19.5 21.75V22.5C19.5 22.9219 19.125 23.25 18.75 23.25H8.25C7.82812 23.25 7.5 22.9219 7.5 22.5V21.75C7.5 21.375 7.82812 21 8.25 21ZM4.875 17.625C4.875 17.25 5.20312 16.875 5.625 16.875H6.375C6.75 16.875 7.125 17.25 7.125 17.625V18.375C7.125 18.7969 6.75 19.125 6.375 19.125H5.625C5.20312 19.125 4.875 18.7969 4.875 18.375V17.625ZM5.625 13.125H6.375C6.75 13.125 7.125 13.5 7.125 13.875V14.625C7.125 15.0469 6.75 15.375 6.375 15.375H5.625C5.20312 15.375 4.875 15.0469 4.875 14.625V13.875C4.875 13.5 5.20312 13.125 5.625 13.125ZM8.625 17.625C8.625 17.25 8.95312 16.875 9.375 16.875H10.125C10.5 16.875 10.875 17.25 10.875 17.625V18.375C10.875 18.7969 10.5 19.125 10.125 19.125H9.375C8.95312 19.125 8.625 18.7969 8.625 18.375V17.625ZM9.375 13.125H10.125C10.5 13.125 10.875 13.5 10.875 13.875V14.625C10.875 15.0469 10.5 15.375 10.125 15.375H9.375C8.95312 15.375 8.625 15.0469 8.625 14.625V13.875C8.625 13.5 8.95312 13.125 9.375 13.125ZM12.375 17.625C12.375 17.25 12.7031 16.875 13.125 16.875H13.875C14.25 16.875 14.625 17.25 14.625 17.625V18.375C14.625 18.7969 14.25 19.125 13.875 19.125H13.125C12.7031 19.125 12.375 18.7969 12.375 18.375V17.625ZM13.125 13.125H13.875C14.25 13.125 14.625 13.5 14.625 13.875V14.625C14.625 15.0469 14.25 15.375 13.875 15.375H13.125C12.7031 15.375 12.375 15.0469 12.375 14.625V13.875C12.375 13.5 12.7031 13.125 13.125 13.125ZM16.125 17.625C16.125 17.25 16.4531 16.875 16.875 16.875H17.625C18 16.875 18.375 17.25 18.375 17.625V18.375C18.375 18.7969 18 19.125 17.625 19.125H16.875C16.4531 19.125 16.125 18.7969 16.125 18.375V17.625ZM16.875 13.125H17.625C18 13.125 18.375 13.5 18.375 13.875V14.625C18.375 15.0469 18 15.375 17.625 15.375H16.875C16.4531 15.375 16.125 15.0469 16.125 14.625V13.875C16.125 13.5 16.4531 13.125 16.875 13.125ZM19.875 17.625C19.875 17.25 20.2031 16.875 20.625 16.875H21.375C21.75 16.875 22.125 17.25 22.125 17.625V18.375C22.125 18.7969 21.75 19.125 21.375 19.125H20.625C20.2031 19.125 19.875 18.7969 19.875 18.375V17.625ZM20.625 13.125H21.375C21.75 13.125 22.125 13.5 22.125 13.875V14.625C22.125 15.0469 21.75 15.375 21.375 15.375H20.625C20.2031 15.375 19.875 15.0469 19.875 14.625V13.875C19.875 13.5 20.2031 13.125 20.625 13.125Z" fill="black" fill-opacity="0.72"/>
</g>
<defs>
<clipPath id="clip0_2556_19612">
<rect width="27" height="36" fill="white"/>
</clipPath>
</defs>
</svg>
