<svg width="12" height="18" viewBox="0 0 12 18" fill="none" xmlns="http://www.w3.org/2000/svg">
<g id="label-paired / caption / arrow-up-right-from-square-caption / fill" clip-path="url(#clip0_2556_10458)">
<path id="icon" d="M7.5 3.5H11.25C11.6484 3.5 12 3.85156 12 4.25V8C12 8.42188 11.6484 8.75 11.25 8.75C10.8281 8.75 10.5 8.42188 10.5 8V6.07812L5.76562 10.7891C5.48438 11.0938 4.99219 11.0938 4.71094 10.7891C4.40625 10.5078 4.40625 10.0156 4.71094 9.73438L9.42188 5H7.5C7.07812 5 6.75 4.67188 6.75 4.25C6.75 3.85156 7.07812 3.5 7.5 3.5ZM1.875 4.25H4.5C4.89844 4.25 5.25 4.60156 5.25 5C5.25 5.42188 4.89844 5.75 4.5 5.75H1.875C1.66406 5.75 1.5 5.9375 1.5 6.125V13.625C1.5 13.8359 1.66406 14 1.875 14H9.375C9.5625 14 9.75 13.8359 9.75 13.625V11C9.75 10.6016 10.0781 10.25 10.5 10.25C10.8984 10.25 11.25 10.6016 11.25 11V13.625C11.25 14.6797 10.4062 15.5 9.375 15.5H1.875C0.820312 15.5 0 14.6797 0 13.625V6.125C0 5.09375 0.820312 4.25 1.875 4.25Z" fill="black" fill-opacity="0.72"/>
</g>
<defs>
<clipPath id="clip0_2556_10458">
<rect width="12" height="18" fill="white"/>
</clipPath>
</defs>
</svg>
