<svg width="20" height="30" viewBox="0 0 20 30" fill="none" xmlns="http://www.w3.org/2000/svg">
<g id="label-paired / lg / file-certificate-lg / bold" clip-path="url(#clip0_2556_16948)">
<path id="icon" d="M17.5 23.625C17.8125 23.625 18.125 23.3516 18.125 23V11.75H15C14.2969 11.75 13.75 11.2031 13.75 10.5V7.375H7.5C7.14844 7.375 6.875 7.6875 6.875 8V10.6562C6.36719 10.4609 5.78125 10.4609 5.23438 10.6562C5.15625 10.6953 5.03906 10.7734 5 10.7734V10.8125V8C5 6.63281 6.09375 5.5 7.5 5.5H13.9453C14.6094 5.5 15.2344 5.77344 15.7031 6.24219L19.2578 9.79688C19.7266 10.2656 20 10.8906 20 11.5547V23C20 24.4062 18.8672 25.5 17.5 25.5H8.63281C8.71094 25.3047 8.75 25.1094 8.75 24.875V23.625H17.5ZM4.25781 11.8281L4.84375 12.0625C4.92188 12.1016 5.03906 12.1016 5.11719 12.0625L5.74219 11.8281C6.13281 11.6719 6.5625 11.7891 6.83594 12.1406L7.22656 12.6484C7.26562 12.7266 7.34375 12.7656 7.42188 12.7656L8.08594 12.8438C8.51562 12.9219 8.82812 13.2344 8.90625 13.6641L8.98438 14.3281C8.98438 14.4062 9.02344 14.4844 9.10156 14.5234L9.64844 14.9141C9.96094 15.1875 10.0781 15.6562 9.92188 16.0469L9.6875 16.6328C9.64844 16.7109 9.64844 16.8281 9.6875 16.8672L9.92188 17.4922C10.0781 17.8828 9.96094 18.3516 9.60938 18.5859L9.10156 19.0156C9.02344 19.0547 8.98438 19.1328 8.98438 19.2109L8.90625 19.875C8.82812 20.3047 8.51562 20.6172 8.08594 20.6953L7.5 20.7734V24.875C7.5 25.1094 7.34375 25.3438 7.14844 25.4609C6.95312 25.5391 6.71875 25.5391 6.52344 25.4219L5 24.4062L3.4375 25.4219C3.28125 25.5391 3.00781 25.5391 2.8125 25.4609C2.61719 25.3438 2.5 25.1094 2.5 24.875V20.7734L1.875 20.6953C1.44531 20.6172 1.13281 20.3047 1.05469 19.875L0.976562 19.2109C0.976562 19.1328 0.9375 19.0547 0.859375 19.0156L0.351562 18.5859C0 18.3516 -0.117188 17.8828 0.0390625 17.4922L0.3125 16.9062C0.3125 16.8281 0.3125 16.7109 0.3125 16.6328L0.0390625 16.0469C-0.117188 15.6562 0 15.1875 0.351562 14.9531L0.859375 14.5234C0.9375 14.4844 0.976562 14.4062 0.976562 14.3281L1.09375 13.6641C1.13281 13.2344 1.44531 12.9219 1.875 12.8438L2.53906 12.7656C2.61719 12.7656 2.69531 12.7266 2.73438 12.6484L3.16406 12.1406C3.39844 11.7891 3.86719 11.6719 4.25781 11.8281ZM2.5 16.75C2.5 17.6484 2.96875 18.4688 3.75 18.9375C4.49219 19.3672 5.46875 19.3672 6.25 18.9375C6.99219 18.4688 7.5 17.6484 7.5 16.75C7.5 15.8906 6.99219 15.0703 6.25 14.6016C5.46875 14.1719 4.49219 14.1719 3.75 14.6016C2.96875 15.0703 2.5 15.8906 2.5 16.75Z" fill="black" fill-opacity="0.72"/>
</g>
<defs>
<clipPath id="clip0_2556_16948">
<rect width="20" height="30" fill="white"/>
</clipPath>
</defs>
</svg>
