<svg width="12" height="18" viewBox="0 0 12 18" fill="none" xmlns="http://www.w3.org/2000/svg">
<g id="label-paired / caption / circle-arrow-left-caption / fill" clip-path="url(#clip0_2556_10392)">
<path id="icon" d="M12 9.5C12 11.6562 10.8516 13.625 9 14.7031C7.125 15.7812 4.85156 15.7812 3 14.7031C1.125 13.625 0 11.6562 0 9.5C0 7.36719 1.125 5.39844 3 4.32031C4.85156 3.24219 7.125 3.24219 9 4.32031C10.8516 5.39844 12 7.36719 12 9.5ZM5.41406 6.47656L2.78906 9.125C2.55469 9.33594 2.55469 9.6875 2.78906 9.89844L5.41406 12.5234C5.625 12.7578 5.97656 12.7578 6.1875 12.5234C6.42188 12.3125 6.42188 11.9609 6.1875 11.7266L4.52344 10.0625H8.8125C9.11719 10.0625 9.375 9.82812 9.375 9.5C9.375 9.19531 9.11719 8.9375 8.8125 8.9375H4.52344L6.1875 7.27344C6.42188 7.0625 6.42188 6.71094 6.1875 6.47656C5.97656 6.26562 5.625 6.26562 5.41406 6.47656Z" fill="black" fill-opacity="0.72"/>
</g>
<defs>
<clipPath id="clip0_2556_10392">
<rect width="12" height="18" fill="white"/>
</clipPath>
</defs>
</svg>
