<svg width="18" height="30" viewBox="0 0 18 30" fill="none" xmlns="http://www.w3.org/2000/svg">
<g id="label-paired / lg / tiktok-lg" clip-path="url(#clip0_2556_16986)">
<path id="icon" d="M17.75 13.7031C15.9922 13.7422 14.3516 13.1953 12.9453 12.1797V19.1719C12.9453 21.8281 11.3047 24.1719 8.80469 25.1094C6.34375 26.0469 3.53125 25.3438 1.8125 23.3516C0.0546875 21.3203 -0.257812 18.4688 0.992188 16.125C2.24219 13.8203 4.82031 12.5312 7.47656 12.8828V16.3984C6.26562 16.0078 4.9375 16.4375 4.19531 17.4531C3.49219 18.5078 3.49219 19.875 4.23438 20.8906C4.97656 21.9062 6.30469 22.3359 7.47656 21.9453C8.6875 21.5547 9.50781 20.4219 9.50781 19.1719V5.5H12.9453C12.9453 5.8125 12.9453 6.08594 13.0234 6.39844C13.2578 7.6875 14 8.82031 15.1328 9.52344C15.875 10.0312 16.8125 10.3047 17.75 10.3047V13.7031Z" fill="black" fill-opacity="0.72"/>
</g>
<defs>
<clipPath id="clip0_2556_16986">
<rect width="18" height="30" fill="white"/>
</clipPath>
</defs>
</svg>
