<svg width="20" height="30" viewBox="0 0 20 30" fill="none" xmlns="http://www.w3.org/2000/svg">
<g id="label-paired / lg / pen-circle-lg / regular" clip-path="url(#clip0_2556_17016)">
<path id="icon" d="M18.75 15.5C18.75 12.375 17.0703 9.52344 14.375 7.96094C11.6406 6.35938 8.32031 6.35938 5.625 7.96094C2.89062 9.52344 1.25 12.375 1.25 15.5C1.25 18.6641 2.89062 21.5156 5.625 23.0781C8.32031 24.6797 11.6406 24.6797 14.375 23.0781C17.0703 21.5156 18.75 18.6641 18.75 15.5ZM0 15.5C0 11.9453 1.875 8.66406 5 6.86719C8.08594 5.07031 11.875 5.07031 15 6.86719C18.0859 8.66406 20 11.9453 20 15.5C20 19.0938 18.0859 22.375 15 24.1719C11.875 25.9688 8.08594 25.9688 5 24.1719C1.875 22.375 0 19.0938 0 15.5ZM12.9297 11.9062C12.6953 11.6719 12.3047 11.6719 12.0312 11.9062L11.2109 12.7266L12.7734 14.2891L13.5938 13.4688C13.8672 13.2344 13.8672 12.8047 13.5938 12.5703L12.9297 11.9062ZM7.10938 16.8281C7.03125 16.9062 6.99219 17.0234 6.95312 17.1406L6.48438 19.0547L8.39844 18.5469C8.47656 18.5469 8.59375 18.4688 8.67188 18.3906L11.875 15.1875L10.3125 13.625L7.10938 16.8281ZM11.1719 11.0078C11.9141 10.2656 13.0859 10.2656 13.8281 11.0078L14.4922 11.7109C15.2344 12.4141 15.2344 13.625 14.4922 14.3281L9.57031 19.2891C9.29688 19.5234 9.02344 19.6797 8.67188 19.7578L5.74219 20.5C5.54688 20.5391 5.3125 20.5 5.15625 20.3438C5 20.1875 4.96094 19.9531 5 19.7578L5.74219 16.8281C5.82031 16.4766 5.97656 16.2031 6.21094 15.9297L11.1719 11.0078Z" fill="black" fill-opacity="0.72"/>
</g>
<defs>
<clipPath id="clip0_2556_17016">
<rect width="20" height="30" fill="white"/>
</clipPath>
</defs>
</svg>
