<svg width="18" height="24" viewBox="0 0 18 24" fill="none" xmlns="http://www.w3.org/2000/svg">
<g id="label-paired / md / basket-shopping-md / regular" clip-path="url(#clip0_2981_884)">
<path id="icon" d="M10.2188 4.09375C10.4688 3.9375 10.7812 4.03125 10.9062 4.25L14.2812 10H15.9688H17H17.5C17.75 10 18 10.25 18 10.5C18 10.7812 17.75 11 17.5 11H16.75L14.875 18.5C14.6562 19.375 13.8438 20 12.9375 20H5.0625C4.125 20 3.34375 19.375 3.09375 18.5L1.25 11H0.5C0.21875 11 0 10.7812 0 10.5C0 10.25 0.21875 10 0.5 10H1H2.03125H3.6875L7.0625 4.25C7.1875 4.03125 7.5 3.9375 7.75 4.09375C7.96875 4.21875 8.0625 4.53125 7.90625 4.78125L4.84375 10H13.125L10.0625 4.78125C9.90625 4.53125 10 4.21875 10.2188 4.09375ZM2.28125 11L4.09375 18.25C4.1875 18.6875 4.59375 19 5.0625 19H12.9375C13.375 19 13.7812 18.6875 13.9062 18.25L15.7188 11H2.28125ZM7 13.5V16.5C7 16.7812 6.75 17 6.5 17C6.21875 17 6 16.7812 6 16.5V13.5C6 13.25 6.21875 13 6.5 13C6.75 13 7 13.25 7 13.5ZM9 13C9.25 13 9.5 13.25 9.5 13.5V16.5C9.5 16.7812 9.25 17 9 17C8.71875 17 8.5 16.7812 8.5 16.5V13.5C8.5 13.25 8.71875 13 9 13ZM12 13.5V16.5C12 16.7812 11.75 17 11.5 17C11.2188 17 11 16.7812 11 16.5V13.5C11 13.25 11.2188 13 11.5 13C11.75 13 12 13.25 12 13.5Z" fill="black" fill-opacity="0.72"/>
</g>
<defs>
<clipPath id="clip0_2981_884">
<rect width="18" height="24" fill="white"/>
</clipPath>
</defs>
</svg>
