<svg width="18" height="22" viewBox="0 0 18 22" fill="none" xmlns="http://www.w3.org/2000/svg">
<g id="label-paired / sm / light-user-tie-circle-dollar-sm / fill" clip-path="url(#clip0_2556_12276)">
<path id="icon" d="M0.25 16.9297C0.25 14.8516 1.64453 13.1289 3.55859 12.6367C3.80469 12.582 3.99609 12.7461 4.05078 12.9648L5.03516 16.9844L5.96484 13.5938L5.44531 12.7461C5.28125 12.4453 5.47266 12.0625 5.82812 12.0625H6.375H6.89453C7.25 12.0625 7.44141 12.4453 7.27734 12.7461L6.75781 13.5938L7.6875 16.9844L8.67188 12.9648C8.72656 12.7461 8.91797 12.6094 9.13672 12.6367C9.02734 13.0195 9 13.4023 9 13.8125C9 15.4531 9.79297 16.9023 11.0234 17.75H8.04297H7.90625H4.84375H4.67969H1.07031C0.605469 17.75 0.25 17.3945 0.25 16.9297ZM2.875 7.25C2.875 6.01953 3.53125 4.84375 4.625 4.24219C5.69141 3.61328 7.03125 3.61328 8.125 4.24219C9.19141 4.84375 9.875 6.01953 9.875 7.25C9.875 8.50781 9.19141 9.65625 8.125 10.2852C7.03125 10.9141 5.69141 10.9141 4.625 10.2852C3.53125 9.65625 2.875 8.50781 2.875 7.25ZM9.875 13.8125C9.875 11.6523 11.625 9.875 13.8125 9.875C15.9727 9.875 17.75 11.6523 17.75 13.8125C17.75 16 15.9727 17.75 13.8125 17.75C11.625 17.75 9.875 16 9.875 13.8125ZM12.2812 13.0742C12.3086 13.5117 12.582 13.7852 12.8555 13.9219C13.1016 14.0586 13.4023 14.1406 13.6484 14.1953C13.6484 14.2227 13.6758 14.2227 13.7031 14.2227C13.9766 14.3047 14.1953 14.3594 14.332 14.4414C14.4414 14.5234 14.4688 14.5508 14.4688 14.6055C14.4688 14.6602 14.4414 14.7148 14.4414 14.7148C14.4141 14.7422 14.3867 14.7695 14.332 14.8242C14.1953 14.8789 14.0039 14.9062 13.8125 14.9062C13.5664 14.9062 13.3203 14.8242 12.9922 14.7148C12.9375 14.7148 12.8828 14.6875 12.8281 14.6875C12.6094 14.6055 12.3633 14.7422 12.2812 14.9609C12.2266 15.207 12.3359 15.4531 12.582 15.5078C12.6094 15.5352 12.6641 15.5352 12.7188 15.5625C12.9102 15.6172 13.1289 15.6992 13.375 15.7266V16.0547C13.375 16.3008 13.5664 16.4922 13.8125 16.4922C14.0312 16.4922 14.25 16.3008 14.25 16.0547V15.7539C14.4141 15.7266 14.5781 15.6719 14.7422 15.5898C15.0703 15.3984 15.3438 15.0703 15.3438 14.5781C15.3164 14.1406 15.043 13.8672 14.7695 13.7031C14.5234 13.5391 14.1953 13.457 13.9492 13.375H13.9219C13.6484 13.293 13.4297 13.2383 13.2656 13.1562C13.1562 13.0742 13.1562 13.0469 13.1562 13.0195C13.1562 12.9648 13.1562 12.9375 13.1562 12.9375C13.1836 12.9102 13.2109 12.8828 13.293 12.8281C13.4297 12.7734 13.6211 12.7188 13.7852 12.7188C14.0312 12.7188 14.25 12.7734 14.5234 12.8281C14.7422 12.9102 14.9883 12.7461 15.043 12.5273C15.0977 12.2812 14.9609 12.0352 14.7148 11.9805C14.5781 11.9531 14.4141 11.9258 14.25 11.8984V11.625C14.25 11.3789 14.0312 11.1875 13.8125 11.1875C13.5664 11.1875 13.375 11.3789 13.375 11.625V11.8984C13.1836 11.9258 13.0195 11.9805 12.8828 12.0625C12.5547 12.2266 12.2539 12.5547 12.2812 13.0742Z" fill="black" fill-opacity="0.72"/>
</g>
<defs>
<clipPath id="clip0_2556_12276">
<rect width="18" height="22" fill="white"/>
</clipPath>
</defs>
</svg>
