<svg width="20" height="24" viewBox="0 0 20 24" fill="none" xmlns="http://www.w3.org/2000/svg">
<g id="label-paired / md / book-circle-question-md / fill" clip-path="url(#clip0_2981_951)">
<path id="icon" d="M0 7C0 5.34375 1.34375 4 3 4H12H13C13.5312 4 14 4.46875 14 5V10.2188C11.6875 10.875 10 13 10 15.5C10 15.6875 10 15.8438 10 16H3C2.4375 16 2 16.4688 2 17C2 17.5625 2.4375 18 3 18H10.5938C11 18.8125 11.5938 19.5 12.3125 20H12H3C1.34375 20 0 18.6562 0 17V7ZM4 8.5C4 8.78125 4.21875 9 4.5 9H10.5C10.75 9 11 8.78125 11 8.5C11 8.25 10.75 8 10.5 8H4.5C4.21875 8 4 8.25 4 8.5ZM4 10.5C4 10.7812 4.21875 11 4.5 11H10.5C10.75 11 11 10.7812 11 10.5C11 10.25 10.75 10 10.5 10H4.5C4.21875 10 4 10.25 4 10.5ZM11 15.5C11 13.0312 13 11 15.5 11C17.9688 11 20 13.0312 20 15.5C20 18 17.9688 20 15.5 20C13 20 11 18 11 15.5ZM13.5 14.0625V14.25C13.5 14.5312 13.7188 14.75 14 14.75C14.25 14.75 14.5 14.5312 14.5 14.25V14.0625C14.5 13.9062 14.625 13.75 14.7812 13.75H16.0625C16.2812 13.75 16.5 13.9688 16.5 14.1875C16.5 14.375 16.4062 14.5 16.25 14.5938L15.25 15.0938C15.0938 15.1875 15 15.375 15 15.5625V16C15 16.2812 15.2188 16.5 15.5 16.5C15.75 16.5 16 16.2812 16 16V15.8438L16.7188 15.4688C17.1875 15.2188 17.5 14.7188 17.5 14.1875C17.5 13.4062 16.8438 12.7812 16.0625 12.7812H14.7812C14.0625 12.7812 13.5 13.3438 13.5 14.0625ZM14.75 17.75C14.75 18.1875 15.0625 18.5 15.5 18.5C15.9062 18.5 16.25 18.1875 16.25 17.75C16.25 17.3438 15.9062 17 15.5 17C15.0625 17 14.75 17.3438 14.75 17.75Z" fill="black" fill-opacity="0.72"/>
</g>
<defs>
<clipPath id="clip0_2981_951">
<rect width="20" height="24" fill="white"/>
</clipPath>
</defs>
</svg>
