<svg width="12" height="24" viewBox="0 0 12 24" fill="none" xmlns="http://www.w3.org/2000/svg">
<g id="label-paired / md / file-check-md / bold" clip-path="url(#clip0_2556_14558)">
<path id="icon" d="M2 18.5H10C10.25 18.5 10.5 18.2812 10.5 18V9H8C7.4375 9 7 8.5625 7 8V5.5H2C1.71875 5.5 1.5 5.75 1.5 6V18C1.5 18.2812 1.71875 18.5 2 18.5ZM2 4H7.15625C7.6875 4 8.1875 4.21875 8.5625 4.59375L11.4062 7.4375C11.7812 7.8125 12 8.3125 12 8.84375V18C12 19.125 11.0938 20 10 20H2C0.875 20 0 19.125 0 18V6C0 4.90625 0.875 4 2 4ZM9.03125 12.375L5.6875 15.7188C5.40625 16 4.90625 16 4.625 15.7188L2.96875 14.0312C2.65625 13.75 2.65625 13.2812 2.96875 12.9688C3.25 12.6875 3.71875 12.6875 4.03125 12.9688L5.15625 14.125L7.96875 11.3125C8.25 11.0312 8.71875 11.0312 9.03125 11.3125C9.3125 11.5938 9.3125 12.0938 9.03125 12.375Z" fill="black" fill-opacity="0.72"/>
</g>
<defs>
<clipPath id="clip0_2556_14558">
<rect width="12" height="24" fill="white"/>
</clipPath>
</defs>
</svg>
