<svg width="15" height="18" viewBox="0 0 15 18" fill="none" xmlns="http://www.w3.org/2000/svg">
<g id="label-paired / caption / wifi-caption / bold" clip-path="url(#clip0_2556_10116)">
<path id="icon" d="M0.914062 7.85938C0.679688 8.07031 0.328125 8.04688 0.140625 7.8125C-0.0703125 7.57812 -0.046875 7.22656 0.1875 7.01562C2.13281 5.30469 4.6875 4.25 7.5 4.25C10.2891 4.25 12.8438 5.30469 14.7891 7.01562C15.0234 7.22656 15.0469 7.57812 14.8594 7.8125C14.6484 8.04688 14.2969 8.07031 14.0625 7.85938C12.3047 6.3125 10.0078 5.375 7.5 5.375C4.96875 5.375 2.67188 6.3125 0.914062 7.85938ZM7.5 9.5C5.97656 9.5 4.59375 10.0859 3.5625 11.0469C3.32812 11.2578 2.97656 11.2344 2.76562 11C2.55469 10.7656 2.57812 10.4141 2.78906 10.2031C4.03125 9.07812 5.67188 8.375 7.5 8.375C9.30469 8.375 10.9453 9.07812 12.1875 10.2031C12.3984 10.4141 12.4219 10.7656 12.2109 11C12 11.2344 11.6484 11.2578 11.4141 11.0469C10.3828 10.0859 9 9.5 7.5 9.5ZM8.8125 13.4375C8.8125 13.9297 8.55469 14.3516 8.15625 14.5859C7.73438 14.8203 7.24219 14.8203 6.84375 14.5859C6.42188 14.3516 6.1875 13.9297 6.1875 13.4375C6.1875 12.9688 6.42188 12.5469 6.84375 12.3125C7.24219 12.0781 7.73438 12.0781 8.15625 12.3125C8.55469 12.5469 8.8125 12.9688 8.8125 13.4375Z" fill="black" fill-opacity="0.72"/>
</g>
<defs>
<clipPath id="clip0_2556_10116">
<rect width="15" height="18" fill="white"/>
</clipPath>
</defs>
</svg>
