<svg width="12" height="24" viewBox="0 0 12 24" fill="none" xmlns="http://www.w3.org/2000/svg">
<g id="label-paired / md / lightbulb-md / bold" clip-path="url(#clip0_2512_1030)">
<path id="icon" d="M9.28125 11.7812C9.73958 11.1146 9.97917 10.3542 10 9.5C9.97917 8.375 9.59375 7.42708 8.84375 6.65625C8.07292 5.90625 7.125 5.52083 6 5.5C4.875 5.52083 3.92708 5.90625 3.15625 6.65625C2.40625 7.42708 2.02083 8.375 2 9.5C2.02083 10.3542 2.26042 11.1146 2.71875 11.7812C2.82292 11.9479 2.95833 12.1354 3.125 12.3438C3.5625 12.9062 3.96875 13.5208 4.34375 14.1875C4.65625 14.7917 4.85417 15.3958 4.9375 16H3.40625C3.34375 15.625 3.21875 15.2604 3.03125 14.9062C2.71875 14.3646 2.36458 13.8333 1.96875 13.3125C1.80208 13.0833 1.63542 12.8542 1.46875 12.625C0.84375 11.7292 0.520833 10.6875 0.5 9.5C0.541667 7.9375 1.08333 6.64583 2.125 5.625C3.14583 4.58333 4.4375 4.04167 6 4C7.5625 4.04167 8.85417 4.58333 9.875 5.625C10.9167 6.64583 11.4583 7.9375 11.5 9.5C11.4792 10.6875 11.1562 11.7292 10.5312 12.625C10.3646 12.8542 10.1979 13.0729 10.0312 13.2812C10.0312 13.3021 10.0312 13.3125 10.0312 13.3125C9.63542 13.8333 9.28125 14.3646 8.96875 14.9062C8.78125 15.2604 8.65625 15.625 8.59375 16H7.0625C7.14583 15.3958 7.34375 14.7917 7.65625 14.1875C8.05208 13.5208 8.46875 12.9062 8.90625 12.3438C9.05208 12.1354 9.17708 11.9479 9.28125 11.7812ZM6 8C5.58333 8.02083 5.22917 8.16667 4.9375 8.4375C4.66667 8.72917 4.52083 9.08333 4.5 9.5C4.47917 9.8125 4.3125 9.97917 4 10C3.6875 9.97917 3.52083 9.8125 3.5 9.5C3.52083 8.79167 3.76042 8.19792 4.21875 7.71875C4.69792 7.26042 5.29167 7.02083 6 7C6.3125 7.02083 6.47917 7.1875 6.5 7.5C6.47917 7.8125 6.3125 7.97917 6 8ZM6 20C5.29167 19.9792 4.69792 19.7396 4.21875 19.2812C3.76042 18.8021 3.52083 18.2083 3.5 17.5V17H8.5V17.5C8.47917 18.2083 8.23958 18.8021 7.78125 19.2812C7.30208 19.7396 6.70833 19.9792 6 20Z" fill="black" fill-opacity="0.72"/>
</g>
<defs>
<clipPath id="clip0_2512_1030">
<rect width="12" height="24" fill="white"/>
</clipPath>
</defs>
</svg>
