<svg width="18" height="24" viewBox="0 0 18 24" fill="none" xmlns="http://www.w3.org/2000/svg">
<g id="label-paired / md / keyboard-md / fill" clip-path="url(#clip0_2556_15320)">
<path id="icon" d="M2 6H16C17.0938 6 18 6.90625 18 8V16C18 17.125 17.0938 18 16 18H2C0.875 18 0 17.125 0 16V8C0 6.90625 0.875 6 2 6ZM2.5 8C2.21875 8 2 8.25 2 8.5V9.5C2 9.78125 2.21875 10 2.5 10H3.5C3.75 10 4 9.78125 4 9.5V8.5C4 8.25 3.75 8 3.5 8H2.5ZM2 11.5V12.5C2 12.7812 2.21875 13 2.5 13H3.5C3.75 13 4 12.7812 4 12.5V11.5C4 11.25 3.75 11 3.5 11H2.5C2.21875 11 2 11.25 2 11.5ZM2.5 14C2.21875 14 2 14.25 2 14.5V15.5C2 15.7812 2.21875 16 2.5 16H3.5C3.75 16 4 15.7812 4 15.5V14.5C4 14.25 3.75 14 3.5 14H2.5ZM5 8.5V9.5C5 9.78125 5.21875 10 5.5 10H6.5C6.75 10 7 9.78125 7 9.5V8.5C7 8.25 6.75 8 6.5 8H5.5C5.21875 8 5 8.25 5 8.5ZM5.5 11C5.21875 11 5 11.25 5 11.5V12.5C5 12.7812 5.21875 13 5.5 13H6.5C6.75 13 7 12.7812 7 12.5V11.5C7 11.25 6.75 11 6.5 11H5.5ZM5 14.5V15.5C5 15.7812 5.21875 16 5.5 16H12.5C12.75 16 13 15.7812 13 15.5V14.5C13 14.25 12.75 14 12.5 14H5.5C5.21875 14 5 14.25 5 14.5ZM8.5 8C8.21875 8 8 8.25 8 8.5V9.5C8 9.78125 8.21875 10 8.5 10H9.5C9.75 10 10 9.78125 10 9.5V8.5C10 8.25 9.75 8 9.5 8H8.5ZM8 11.5V12.5C8 12.7812 8.21875 13 8.5 13H9.5C9.75 13 10 12.7812 10 12.5V11.5C10 11.25 9.75 11 9.5 11H8.5C8.21875 11 8 11.25 8 11.5ZM11.5 8C11.2188 8 11 8.25 11 8.5V9.5C11 9.78125 11.2188 10 11.5 10H12.5C12.75 10 13 9.78125 13 9.5V8.5C13 8.25 12.75 8 12.5 8H11.5ZM11 11.5V12.5C11 12.7812 11.2188 13 11.5 13H12.5C12.75 13 13 12.7812 13 12.5V11.5C13 11.25 12.75 11 12.5 11H11.5C11.2188 11 11 11.25 11 11.5ZM14.5 8C14.2188 8 14 8.25 14 8.5V9.5C14 9.78125 14.2188 10 14.5 10H15.5C15.75 10 16 9.78125 16 9.5V8.5C16 8.25 15.75 8 15.5 8H14.5ZM14 11.5V12.5C14 12.7812 14.2188 13 14.5 13H15.5C15.75 13 16 12.7812 16 12.5V11.5C16 11.25 15.75 11 15.5 11H14.5C14.2188 11 14 11.25 14 11.5ZM14.5 14C14.2188 14 14 14.25 14 14.5V15.5C14 15.7812 14.2188 16 14.5 16H15.5C15.75 16 16 15.7812 16 15.5V14.5C16 14.25 15.75 14 15.5 14H14.5Z" fill="black" fill-opacity="0.72"/>
</g>
<defs>
<clipPath id="clip0_2556_15320">
<rect width="18" height="24" fill="white"/>
</clipPath>
</defs>
</svg>
