<svg width="23" height="30" viewBox="0 0 23 30" fill="none" xmlns="http://www.w3.org/2000/svg">
<g id="label-paired / lg / ubuntu-lg" clip-path="url(#clip0_2556_16890)">
<path id="icon" d="M18.5703 8.42969C18.5703 9.52344 17.9844 10.4609 17.0859 11.0078C16.1484 11.5156 15.0547 11.5156 14.1172 11.0078C13.2188 10.4609 12.6328 9.52344 12.6328 8.42969C12.6328 7.375 13.2188 6.39844 14.1172 5.89062C15.0547 5.34375 16.1484 5.34375 17.0859 5.89062C17.9844 6.39844 18.5703 7.375 18.5703 8.42969ZM6.26562 14.9141C6.26562 15.9688 5.67969 16.9453 4.78125 17.4922C3.88281 18 2.75 18 1.8125 17.4922C0.914062 16.9453 0.367188 15.9688 0.367188 14.9141C0.367188 13.8594 0.914062 12.8828 1.8125 12.375C2.75 11.8281 3.88281 11.8281 4.78125 12.375C5.67969 12.8828 6.26562 13.8594 6.26562 14.9141ZM2.47656 19.0156H2.4375C3.33594 19.2109 4.27344 19.0938 5.09375 18.7031C5.5625 19.6797 6.26562 20.5 7.08594 21.1641C7.94531 21.7891 8.92188 22.2578 9.97656 22.4922C10.2109 22.5312 10.4844 22.5703 10.7188 22.6094C10.7578 23.5469 11.0703 24.4453 11.6562 25.1484C9.66406 25.1875 7.75 24.6406 6.10938 23.5469C4.46875 22.4141 3.17969 20.8516 2.47656 19.0156ZM17.9062 22.5312C17.9062 23.5859 17.3203 24.5625 16.4219 25.1094C15.4844 25.6172 14.3906 25.6172 13.4531 25.1094C12.5547 24.5625 11.9688 23.5859 11.9688 22.5312C11.9688 21.4766 12.5547 20.5 13.4531 19.9922C14.3906 19.4453 15.4844 19.4453 16.4219 19.9922C17.3203 20.5 17.9062 21.4766 17.9062 22.5312ZM17.5938 19.25H17.5547C18.2578 18.1562 18.6094 16.9453 18.6484 15.6562C18.6875 14.4062 18.4141 13.1562 17.8281 12.0234C18.5703 11.5547 19.1953 10.8516 19.5078 10.0312C20.6797 11.75 21.2656 13.7812 21.1875 15.8516C21.0703 17.9219 20.3281 19.9141 19.0391 21.5156C18.8047 20.6172 18.2969 19.8359 17.5938 19.25ZM4.19531 10.8125C3.88281 10.7344 3.60938 10.7344 3.29688 10.7344C3.21875 10.7344 3.10156 10.7344 2.98438 10.7344C3.92188 9.09375 5.28906 7.76562 6.92969 6.90625C8.57031 6.00781 10.4453 5.61719 12.3203 5.77344C11.8906 6.28125 11.5781 6.90625 11.4609 7.57031C11.4219 7.80469 11.3828 8.03906 11.3828 8.23438C10.2109 8.27344 9.07812 8.54688 8.10156 9.09375C7.08594 9.64062 6.1875 10.4219 5.5625 11.3594C5.13281 11.0859 4.66406 10.9297 4.19531 10.8125Z" fill="black" fill-opacity="0.72"/>
</g>
<defs>
<clipPath id="clip0_2556_16890">
<rect width="23" height="30" fill="white"/>
</clipPath>
</defs>
</svg>
