<svg width="20" height="30" viewBox="0 0 20 30" fill="none" xmlns="http://www.w3.org/2000/svg">
<g id="label-paired / lg / reddit-lg" clip-path="url(#clip0_2556_16892)">
<path id="icon" d="M0 15.5C0 9.99219 4.45312 5.5 10 5.5C15.5078 5.5 20 9.99219 20 15.5C20 21.0469 15.5078 25.5 10 25.5H1.44531C0.898438 25.5 0.625 24.875 1.01562 24.4844L2.92969 22.5703C1.09375 20.7734 0 18.2734 0 15.5ZM13.6328 11.5156C14.5703 11.5156 15.3125 10.7734 15.3125 9.83594C15.3125 8.9375 14.5703 8.19531 13.6328 8.19531C12.8516 8.19531 12.1484 8.74219 11.9922 9.52344C10.6641 9.64062 9.60938 10.8125 9.60938 12.1797C8.125 12.2578 6.79688 12.6875 5.74219 13.3125C5.35156 13.0391 4.84375 12.8438 4.29688 12.8438C3.00781 12.8438 1.99219 13.8984 1.99219 15.1875C1.99219 16.125 2.53906 16.9062 3.32031 17.2969C3.39844 19.9922 6.36719 22.1797 10 22.1797C13.6328 22.1797 16.5625 19.9922 16.6406 17.2969C17.4219 16.9062 17.9688 16.0859 17.9688 15.1875C17.9688 13.8984 16.9531 12.8438 15.6641 12.8438C15.1172 12.8438 14.6094 13 14.2188 13.3125C13.1641 12.6484 11.7969 12.2578 10.3125 12.1797C10.3125 11.2031 11.0547 10.3438 12.0312 10.2266C12.1875 10.9688 12.8516 11.5156 13.6328 11.5156ZM6.91406 15.1484C7.53906 15.1484 8.04688 15.8516 8.00781 16.7109C7.96875 17.5312 7.5 17.8438 6.83594 17.8438C6.17188 17.8438 5.58594 17.4922 5.625 16.6719C5.66406 15.8125 6.25 15.1484 6.91406 15.1484ZM14.3359 16.6719C14.375 17.4922 13.7891 17.8438 13.125 17.8438C12.5 17.8438 11.9922 17.5312 11.9531 16.7109C11.9141 15.8516 12.4219 15.1484 13.0859 15.1484C13.7109 15.1484 14.2969 15.8125 14.3359 16.6719ZM12.4609 18.8594C12.0312 19.8359 11.0938 20.5 10 20.5C8.86719 20.5 7.92969 19.8359 7.53906 18.8594C7.46094 18.7422 7.53906 18.625 7.69531 18.625C8.39844 18.5469 9.17969 18.5078 10 18.5078C10.7812 18.5078 11.5625 18.5469 12.3047 18.625C12.4219 18.625 12.5 18.7422 12.4609 18.8594Z" fill="black" fill-opacity="0.72"/>
</g>
<defs>
<clipPath id="clip0_2556_16892">
<rect width="20" height="30" fill="white"/>
</clipPath>
</defs>
</svg>
