<svg width="27" height="36" viewBox="0 0 27 36" fill="none" xmlns="http://www.w3.org/2000/svg">
<g id="label-paired / xl / arrow-down-a-z-xl / bold" clip-path="url(#clip0_2556_19802)">
<path id="icon" d="M2.20312 23.6719C1.73438 23.25 1.73438 22.5469 2.20312 22.0781C2.625 21.6562 3.32812 21.6562 3.79688 22.0781L6.375 24.7031V8.625C6.375 8.01562 6.84375 7.5 7.5 7.5C8.10938 7.5 8.625 8.01562 8.625 8.625V24.7031L11.2031 22.125C11.625 21.6562 12.3281 21.6562 12.75 22.125C13.2188 22.5469 13.2188 23.25 12.75 23.6719L8.25 28.1719C7.82812 28.6406 7.125 28.6406 6.70312 28.1719L2.20312 23.6719ZM16.5 19.5H22.5C22.9219 19.5 23.3438 19.7812 23.4844 20.2031C23.6719 20.5781 23.625 21.0469 23.2969 21.375L18.9844 26.25H22.5C23.1094 26.25 23.625 26.7656 23.625 27.375C23.625 28.0312 23.1094 28.5 22.5 28.5H16.5C16.0312 28.5 15.6094 28.2656 15.4688 27.8438C15.2812 27.4688 15.3281 27 15.6562 26.6719L19.9688 21.75H16.5C15.8438 21.75 15.375 21.2812 15.375 20.625C15.375 20.0156 15.8438 19.5 16.5 19.5ZM19.5 7.5C19.9219 7.5 20.2969 7.78125 20.4844 8.15625L24.2344 15.6562C24.5156 16.2188 24.2812 16.875 23.7188 17.1562C23.1562 17.4375 22.5 17.2031 22.2188 16.6406L21.5625 15.375C21.5156 15.375 21.4219 15.375 21.375 15.375H17.3438L16.7344 16.6406C16.4531 17.2031 15.7969 17.4375 15.2344 17.1562C14.6719 16.875 14.4375 16.2188 14.7188 15.6562L18.4688 8.15625C18.6562 7.78125 19.0312 7.5 19.5 7.5ZM18.4688 13.125H20.4844L19.5 11.1562L18.4688 13.125Z" fill="black" fill-opacity="0.72"/>
</g>
<defs>
<clipPath id="clip0_2556_19802">
<rect width="27" height="36" fill="white"/>
</clipPath>
</defs>
</svg>
