<svg width="12" height="18" viewBox="0 0 12 18" fill="none" xmlns="http://www.w3.org/2000/svg">
<g id="label-paired / caption / chart-candlestick-caption / regular" clip-path="url(#clip0_2556_10177)">
<path id="icon" d="M0.75 4.625V12.875C0.75 13.5078 1.24219 14 1.875 14H11.625C11.8125 14 12 14.1875 12 14.375C12 14.5859 11.8125 14.75 11.625 14.75H1.875C0.820312 14.75 0 13.9297 0 12.875V4.625C0 4.4375 0.164062 4.25 0.375 4.25C0.5625 4.25 0.75 4.4375 0.75 4.625ZM7.5 4.625V5.75C7.5 5.77344 7.5 5.77344 7.5 5.77344C7.92188 5.86719 8.25 6.24219 8.25 6.6875V8.5625C8.25 9.03125 7.92188 9.40625 7.5 9.5V10.625C7.5 10.8359 7.3125 11 7.125 11C6.91406 11 6.75 10.8359 6.75 10.625V9.5C6.30469 9.40625 6 9.03125 6 8.5625V6.6875C6 6.24219 6.30469 5.86719 6.75 5.77344C6.75 5.77344 6.75 5.77344 6.75 5.75V4.625C6.75 4.4375 6.91406 4.25 7.125 4.25C7.3125 4.25 7.5 4.4375 7.5 4.625ZM4.125 5C4.3125 5 4.5 5.1875 4.5 5.375V6.5C4.5 6.52344 4.5 6.52344 4.5 6.52344C4.92188 6.61719 5.25 6.99219 5.25 7.4375V10.0625C5.25 10.5312 4.92188 10.9062 4.5 11V12.125C4.5 12.3359 4.3125 12.5 4.125 12.5C3.91406 12.5 3.75 12.3359 3.75 12.125V11C3.30469 10.9062 3 10.5312 3 10.0625V7.4375C3 6.99219 3.30469 6.61719 3.75 6.52344C3.75 6.52344 3.75 6.52344 3.75 6.5V5.375C3.75 5.1875 3.91406 5 4.125 5ZM7.5 6.6875C7.5 6.59375 7.40625 6.5 7.3125 6.5H6.9375C6.82031 6.5 6.75 6.59375 6.75 6.6875V8.5625C6.75 8.67969 6.82031 8.75 6.9375 8.75H7.3125C7.40625 8.75 7.5 8.67969 7.5 8.5625V6.6875ZM9.9375 8.75C9.82031 8.75 9.75 8.84375 9.75 8.9375V10.0625C9.75 10.1797 9.82031 10.25 9.9375 10.25H10.3125C10.4062 10.25 10.5 10.1797 10.5 10.0625V8.9375C10.5 8.84375 10.4062 8.75 10.3125 8.75H9.9375ZM9.75 8V6.875C9.75 6.6875 9.91406 6.5 10.125 6.5C10.3125 6.5 10.5 6.6875 10.5 6.875V8C10.5 8.02344 10.5 8.02344 10.5 8.02344C10.9219 8.11719 11.25 8.49219 11.25 8.9375V10.0625C11.25 10.5312 10.9219 10.9062 10.5 11V12.125C10.5 12.3359 10.3125 12.5 10.125 12.5C9.91406 12.5 9.75 12.3359 9.75 12.125V11C9.30469 10.9062 9 10.5312 9 10.0625V8.9375C9 8.49219 9.30469 8.11719 9.75 8.02344C9.75 8.02344 9.75 8.02344 9.75 8ZM4.3125 7.25H3.9375C3.82031 7.25 3.75 7.34375 3.75 7.4375V10.0625C3.75 10.1797 3.82031 10.25 3.9375 10.25H4.3125C4.40625 10.25 4.5 10.1797 4.5 10.0625V7.4375C4.5 7.34375 4.40625 7.25 4.3125 7.25Z" fill="black" fill-opacity="0.72"/>
</g>
<defs>
<clipPath id="clip0_2556_10177">
<rect width="12" height="18" fill="white"/>
</clipPath>
</defs>
</svg>
