<svg width="18" height="36" viewBox="0 0 18 36" fill="none" xmlns="http://www.w3.org/2000/svg">
<g id="label-paired / xl / mobile-screen-button-xl / bold" clip-path="url(#clip0_2556_19604)">
<path id="icon" d="M3 27C3 27.4219 3.32812 27.75 3.75 27.75H14.25C14.625 27.75 15 27.4219 15 27V23.25H3V27ZM3 21H15V9C15 8.625 14.625 8.25 14.25 8.25H3.75C3.32812 8.25 3 8.625 3 9V21ZM0.75 9C0.75 7.35938 2.0625 6 3.75 6H14.25C15.8906 6 17.25 7.35938 17.25 9V27C17.25 28.6875 15.8906 30 14.25 30H3.75C2.0625 30 0.75 28.6875 0.75 27V9ZM7.5 24.75H10.5C10.875 24.75 11.25 25.125 11.25 25.5C11.25 25.9219 10.875 26.25 10.5 26.25H7.5C7.07812 26.25 6.75 25.9219 6.75 25.5C6.75 25.125 7.07812 24.75 7.5 24.75Z" fill="black" fill-opacity="0.72"/>
</g>
<defs>
<clipPath id="clip0_2556_19604">
<rect width="18" height="36" fill="white"/>
</clipPath>
</defs>
</svg>
