<svg width="18" height="22" viewBox="0 0 18 22" fill="none" xmlns="http://www.w3.org/2000/svg">
<g id="label-paired / sm / deriv-p2p-sm / fill" clip-path="url(#clip0_2556_12324)">
<path id="icon" d="M5.91016 9.57422C5.80078 9.54688 5.69141 9.54688 5.55469 9.54688H5.36328C5.33594 9.54688 5.30859 9.57422 5.28125 9.57422C5.25391 9.57422 5.22656 9.57422 5.19922 9.57422V10.6953H5.5C5.80078 10.6953 6.01953 10.668 6.18359 10.5859C6.34766 10.5039 6.40234 10.3398 6.40234 10.1211C6.40234 10.0117 6.40234 9.90234 6.34766 9.84766C6.32031 9.76562 6.26562 9.71094 6.18359 9.65625C6.10156 9.62891 6.01953 9.60156 5.91016 9.57422ZM12.2266 9.57422C12.1445 9.54688 12.0078 9.54688 11.8984 9.54688H11.6797C11.625 9.54688 11.5977 9.57422 11.5703 9.57422H11.543V10.6953H11.8164C12.1172 10.6953 12.3633 10.668 12.5 10.5859C12.6641 10.5039 12.7461 10.3398 12.7461 10.1211C12.7461 10.0117 12.7188 9.90234 12.6641 9.84766C12.6367 9.76562 12.582 9.71094 12.5 9.65625C12.4453 9.62891 12.3359 9.60156 12.2266 9.57422ZM4.625 3.75H13.375C14.8242 3.75 16 4.92578 16 6.375V15.125C16 16.5742 14.8242 17.75 13.375 17.75H4.625C3.17578 17.75 2 16.5742 2 15.125V6.375C2 4.92578 3.17578 3.75 4.625 3.75ZM5.25391 8.80859C5.14453 8.80859 5.03516 8.80859 4.92578 8.80859C4.81641 8.83594 4.70703 8.83594 4.625 8.86328C4.51562 8.86328 4.40625 8.89062 4.32422 8.89062V12.7734H5.19922V11.4609H5.5C6.07422 11.4609 6.53906 11.3516 6.83984 11.1328C7.16797 10.9414 7.33203 10.5859 7.33203 10.1211C7.33203 9.65625 7.16797 9.30078 6.86719 9.10938C6.53906 8.89062 6.10156 8.78125 5.5 8.78125C5.41797 8.78125 5.33594 8.80859 5.25391 8.80859ZM9.98438 9.41016C9.92969 9.27344 9.84766 9.16406 9.73828 9.05469C9.62891 8.97266 9.49219 8.89062 9.32812 8.83594C9.16406 8.78125 8.97266 8.75391 8.72656 8.75391C8.48047 8.75391 8.23438 8.80859 8.01562 8.91797C7.79688 9 7.60547 9.13672 7.44141 9.30078L7.85156 9.875C7.87891 9.84766 7.93359 9.82031 7.98828 9.79297C8.04297 9.73828 8.09766 9.68359 8.17969 9.65625C8.23438 9.60156 8.31641 9.57422 8.42578 9.54688C8.50781 9.49219 8.58984 9.49219 8.69922 9.49219C8.83594 9.49219 8.97266 9.51953 9.05469 9.57422C9.16406 9.65625 9.19141 9.76562 9.19141 9.92969C9.19141 10.0117 9.19141 10.0938 9.13672 10.1758C9.10938 10.2305 9.05469 10.3125 9 10.3945L8.53516 10.8594C8.48047 10.9141 8.39844 10.9688 8.34375 11.0234C8.28906 11.0781 8.23438 11.1328 8.17969 11.1875C8.07031 11.2969 7.96094 11.4336 7.85156 11.5703C7.76953 11.707 7.6875 11.8438 7.63281 11.9805C7.57812 12.1445 7.55078 12.3086 7.55078 12.5V12.7734H10.1758V12.0625H8.48047C8.50781 12.0352 8.53516 11.9805 8.5625 11.9258C8.61719 11.8711 8.67188 11.8164 8.72656 11.7344C8.78125 11.707 8.80859 11.6523 8.86328 11.625C8.86328 11.5977 8.89062 11.5703 8.91797 11.543L9.4375 11.0234C9.54688 10.9414 9.62891 10.832 9.71094 10.7227C9.73828 10.6953 9.73828 10.6953 9.76562 10.668C9.84766 10.5586 9.92969 10.4219 9.98438 10.2852C10.0391 10.1484 10.0664 10.0117 10.0664 9.875C10.0664 9.71094 10.0391 9.54688 9.98438 9.41016ZM11.8438 8.78125H11.8164C11.7344 8.78125 11.6797 8.80859 11.5977 8.80859C11.4883 8.80859 11.3789 8.80859 11.2695 8.80859C11.0508 8.83594 10.832 8.86328 10.6406 8.89062V12.7734H11.543V11.4609H11.8164C12.3906 11.4609 12.8555 11.3516 13.1836 11.1328C13.4844 10.9414 13.6484 10.5859 13.6484 10.1211C13.6484 9.65625 13.4844 9.30078 13.1836 9.10938C12.8555 8.91797 12.418 8.80859 11.8164 8.78125H11.8438Z" fill="black" fill-opacity="0.72"/>
</g>
<defs>
<clipPath id="clip0_2556_12324">
<rect width="18" height="22" fill="white"/>
</clipPath>
</defs>
</svg>
