<svg width="14" height="22" viewBox="0 0 14 22" fill="none" xmlns="http://www.w3.org/2000/svg">
<g id="label-paired / sm / camera-sm / regular" clip-path="url(#clip0_2556_12266)">
<path id="icon" d="M5.22266 4.625H8.75C9.32422 4.625 9.81641 5.00781 10.0078 5.52734L10.2812 6.375H12.25C13.207 6.375 14 7.16797 14 8.125V15.125C14 16.1094 13.207 16.875 12.25 16.875H1.75C0.765625 16.875 0 16.1094 0 15.125V8.125C0 7.16797 0.765625 6.375 1.75 6.375H3.69141L3.96484 5.52734C4.15625 5.00781 4.64844 4.625 5.22266 4.625ZM4.78516 5.80078L4.40234 6.97656C4.34766 7.14062 4.18359 7.25 3.99219 7.25H1.75C1.25781 7.25 0.875 7.66016 0.875 8.125V15.125C0.875 15.6172 1.25781 16 1.75 16H12.25C12.7148 16 13.125 15.6172 13.125 15.125V8.125C13.125 7.66016 12.7148 7.25 12.25 7.25H9.98047C9.78906 7.25 9.625 7.14062 9.57031 6.94922L9.1875 5.80078C9.10547 5.63672 8.94141 5.5 8.75 5.5H5.22266C5.03125 5.5 4.86719 5.63672 4.78516 5.80078ZM7 14.6875C5.87891 14.6875 4.89453 14.1133 4.34766 13.1562C3.77344 12.2266 3.77344 11.0508 4.34766 10.0938C4.89453 9.16406 5.87891 8.5625 7 8.5625C8.09375 8.5625 9.07812 9.16406 9.625 10.0938C10.1992 11.0508 10.1992 12.2266 9.625 13.1562C9.07812 14.1133 8.09375 14.6875 7 14.6875ZM4.8125 11.625C4.8125 12.418 5.22266 13.1289 5.90625 13.5391C6.5625 13.9219 7.41016 13.9219 8.09375 13.5391C8.75 13.1289 9.1875 12.418 9.1875 11.625C9.1875 10.8594 8.75 10.1484 8.09375 9.73828C7.41016 9.35547 6.5625 9.35547 5.90625 9.73828C5.22266 10.1484 4.8125 10.8594 4.8125 11.625Z" fill="black" fill-opacity="0.72"/>
</g>
<defs>
<clipPath id="clip0_2556_12266">
<rect width="14" height="22" fill="white"/>
</clipPath>
</defs>
</svg>
