<svg width="16" height="24" viewBox="0 0 16 24" fill="none" xmlns="http://www.w3.org/2000/svg">
<g id="label-paired / md / circle-envelope-md / fill" clip-path="url(#clip0_2556_15262)">
<path id="icon" d="M8 20C5.125 20 2.5 18.5 1.0625 16C-0.375 13.5312 -0.375 10.5 1.0625 8C2.5 5.53125 5.125 4 8 4C10.8438 4 13.4688 5.53125 14.9062 8C16.3438 10.5 16.3438 13.5312 14.9062 16C13.4688 18.5 10.8438 20 8 20ZM4 10V10.3125L7.71875 12C7.8125 12.0312 7.90625 12.0625 8 12.0625C8.09375 12.0625 8.1875 12.0312 8.25 12L12 10.3125V10C12 9.46875 11.5312 9 11 9H5C4.4375 9 4 9.46875 4 10ZM8.65625 12.9062C8.46875 13 8.21875 13.0625 8 13.0625C7.75 13.0625 7.53125 13 7.3125 12.9062L4 11.4062V14C4 14.5625 4.4375 15 5 15H11C11.5312 15 12 14.5625 12 14V11.4062L8.65625 12.9062Z" fill="black" fill-opacity="0.72"/>
</g>
<defs>
<clipPath id="clip0_2556_15262">
<rect width="16" height="24" fill="white"/>
</clipPath>
</defs>
</svg>
