<svg width="12" height="18" viewBox="0 0 12 18" fill="none" xmlns="http://www.w3.org/2000/svg">
<g id="label-paired / caption / circle-envelope-caption / regular" clip-path="url(#clip0_2556_10144)">
<path id="icon" d="M11.25 9.5C11.25 7.625 10.2422 5.91406 8.625 4.97656C6.98438 4.01562 4.99219 4.01562 3.375 4.97656C1.73438 5.91406 0.75 7.625 0.75 9.5C0.75 11.3984 1.73438 13.1094 3.375 14.0469C4.99219 15.0078 6.98438 15.0078 8.625 14.0469C10.2422 13.1094 11.25 11.3984 11.25 9.5ZM0 9.5C0 7.36719 1.125 5.39844 3 4.32031C4.85156 3.24219 7.125 3.24219 9 4.32031C10.8516 5.39844 12 7.36719 12 9.5C12 11.6562 10.8516 13.625 9 14.7031C7.125 15.7812 4.85156 15.7812 3 14.7031C1.125 13.625 0 11.6562 0 9.5ZM3.75 7.25H8.25C8.64844 7.25 9 7.60156 9 8V11C9 11.4219 8.64844 11.75 8.25 11.75H3.75C3.32812 11.75 3 11.4219 3 11V8C3 7.60156 3.32812 7.25 3.75 7.25ZM8.25 8.39844V8H3.75V8.39844L5.8125 9.5C5.85938 9.52344 5.92969 9.54688 6 9.54688C6.04688 9.54688 6.11719 9.52344 6.16406 9.5L8.25 8.39844ZM8.25 9.24219L6.51562 10.1562C6.35156 10.25 6.16406 10.2969 6 10.2969C5.8125 10.2969 5.625 10.25 5.46094 10.1562L3.75 9.24219V11H8.25V9.24219Z" fill="black" fill-opacity="0.72"/>
</g>
<defs>
<clipPath id="clip0_2556_10144">
<rect width="12" height="18" fill="white"/>
</clipPath>
</defs>
</svg>
