<svg width="20" height="30" viewBox="0 0 20 30" fill="none" xmlns="http://www.w3.org/2000/svg">
<g id="label-paired / lg / circle-seven-lg / fill" clip-path="url(#clip0_2556_17287)">
<path id="icon" d="M10 25.5C6.40625 25.5 3.125 23.625 1.32812 20.5C-0.46875 17.4141 -0.46875 13.625 1.32812 10.5C3.125 7.41406 6.40625 5.5 10 5.5C13.5547 5.5 16.8359 7.41406 18.6328 10.5C20.4297 13.625 20.4297 17.4141 18.6328 20.5C16.8359 23.625 13.5547 25.5 10 25.5ZM7.1875 10.5V10.5391C6.64062 10.5391 6.25 10.9297 6.25 11.4766C6.25 11.9844 6.64062 12.4141 7.1875 12.4141H11.2109L7.57812 19.1328C7.34375 19.6016 7.5 20.1484 7.96875 20.4219C8.4375 20.6562 8.98438 20.5 9.25781 20.0312L13.6328 11.9062C13.7891 11.5938 13.75 11.2422 13.5938 10.9688C13.4375 10.6953 13.125 10.5 12.8125 10.5H7.1875Z" fill="black" fill-opacity="0.72"/>
</g>
<defs>
<clipPath id="clip0_2556_17287">
<rect width="20" height="30" fill="white"/>
</clipPath>
</defs>
</svg>
