<svg width="30" height="36" viewBox="0 0 30 36" fill="none" xmlns="http://www.w3.org/2000/svg">
<g id="label-paired / xl / location-crosshairs-slash-xl / bold" clip-path="url(#clip0_2556_19953)">
<path id="icon" d="M1.78125 6.28125L8.625 11.625C10.0312 10.2656 11.8125 9.32812 13.875 9.09375V7.125C13.875 6.51562 14.3438 6 15 6C15.6094 6 16.125 6.51562 16.125 7.125V9.09375C20.1562 9.60938 23.3906 12.8438 23.9062 16.875H25.875C26.4844 16.875 27 17.3906 27 18C27 18.6562 26.4844 19.125 25.875 19.125H23.9062C23.7656 20.3906 23.3438 21.6094 22.6875 22.6406L29.5312 28.0312C30.0469 28.4062 30.1406 29.1094 29.7188 29.5781C29.3438 30.0938 28.6406 30.1875 28.1719 29.7656L0.421875 8.01562C-0.09375 7.64062 -0.1875 6.9375 0.234375 6.46875C0.609375 5.95312 1.3125 5.85938 1.78125 6.28125ZM10.4531 13.0312L12.2344 14.4375C12.9844 13.875 13.9688 13.5 15 13.5C17.4844 13.5 19.5 15.5156 19.5 18C19.5 18.6562 19.3594 19.2656 19.125 19.8281L20.9062 21.2344C21.4219 20.2969 21.75 19.1719 21.75 18C21.75 14.2969 18.7031 11.25 15 11.25C13.2188 11.25 11.625 11.9531 10.4531 13.0312ZM17.2031 18.3281C17.2031 18.2344 17.2031 18.1406 17.2031 18C17.2031 16.7812 16.2188 15.75 14.9531 15.75C14.6719 15.75 14.3906 15.8438 14.1562 15.9375L17.2031 18.3281ZM17.4844 24.2812L19.4062 25.8281C18.4219 26.4375 17.2969 26.8125 16.125 26.9531V28.875C16.125 29.5312 15.6094 30 15 30C14.3438 30 13.875 29.5312 13.875 28.875V26.9531C9.79688 26.4375 6.5625 23.2031 6.04688 19.1719H4.125C3.46875 19.1719 3 18.6562 3 18.0469C3 17.3906 3.46875 16.9219 4.125 16.9219H6.04688C6.09375 16.4062 6.1875 15.9844 6.32812 15.5156L8.29688 17.0625C8.25 17.3906 8.25 17.7188 8.25 18C8.25 21.75 11.25 24.75 15 24.75C15.8438 24.75 16.6875 24.6094 17.4844 24.2812Z" fill="black" fill-opacity="0.72"/>
</g>
<defs>
<clipPath id="clip0_2556_19953">
<rect width="30" height="36" fill="white"/>
</clipPath>
</defs>
</svg>
