<svg width="20" height="30" viewBox="0 0 20 30" fill="none" xmlns="http://www.w3.org/2000/svg">
<g id="label-paired / lg / circle-arrow-down-left-lg / regular" clip-path="url(#clip0_2556_17359)">
<path id="icon" d="M10 6.75C6.83594 6.75 3.98438 8.42969 2.42188 11.125C0.820312 13.8594 0.820312 17.1797 2.42188 19.875C3.98438 22.6094 6.83594 24.25 10 24.25C13.125 24.25 15.9766 22.6094 17.5391 19.875C19.1406 17.1797 19.1406 13.8594 17.5391 11.125C15.9766 8.42969 13.125 6.75 10 6.75ZM10 25.5C6.40625 25.5 3.125 23.625 1.32812 20.5C-0.46875 17.4141 -0.46875 13.625 1.32812 10.5C3.125 7.41406 6.40625 5.5 10 5.5C13.5547 5.5 16.8359 7.41406 18.6328 10.5C20.4297 13.625 20.4297 17.4141 18.6328 20.5C16.8359 23.625 13.5547 25.5 10 25.5ZM12.1875 19.25H6.875C6.52344 19.25 6.25 18.9766 6.25 18.625V13C6.25 12.6875 6.52344 12.375 6.875 12.375C7.1875 12.375 7.5 12.6875 7.5 13V17.1406L12.6562 11.9453C12.8906 11.7109 13.3203 11.7109 13.5547 11.9453C13.7891 12.1797 13.7891 12.6094 13.5547 12.8438L8.35938 18H12.1875C12.5 18 12.8125 18.3125 12.8125 18.625C12.8125 18.9766 12.5 19.25 12.1875 19.25Z" fill="black" fill-opacity="0.72"/>
</g>
<defs>
<clipPath id="clip0_2556_17359">
<rect width="20" height="30" fill="white"/>
</clipPath>
</defs>
</svg>
