<svg width="23" height="30" viewBox="0 0 23 30" fill="none" xmlns="http://www.w3.org/2000/svg">
<g id="label-paired / lg / memo-circle-check-lg / fill" clip-path="url(#clip0_2556_16931)">
<path id="icon" d="M0.25 8C0.25 6.63281 1.34375 5.5 2.75 5.5H12.75C14.1172 5.5 15.25 6.63281 15.25 8V13.2734C12.3594 14.0938 10.25 16.75 10.25 19.875C10.25 22.2188 11.3828 24.25 13.1016 25.5C12.9844 25.5 12.8672 25.5 12.75 25.5H2.75C1.34375 25.5 0.25 24.4062 0.25 23V8ZM2.75 11.125C2.75 11.4766 3.02344 11.75 3.375 11.75H12.125C12.4375 11.75 12.75 11.4766 12.75 11.125C12.75 10.8125 12.4375 10.5 12.125 10.5H3.375C3.02344 10.5 2.75 10.8125 2.75 11.125ZM3.375 14.25C3.02344 14.25 2.75 14.5625 2.75 14.875C2.75 15.2266 3.02344 15.5 3.375 15.5H9.625C9.9375 15.5 10.25 15.2266 10.25 14.875C10.25 14.5625 9.9375 14.25 9.625 14.25H3.375ZM3.375 18C3.02344 18 2.75 18.3125 2.75 18.625C2.75 18.9766 3.02344 19.25 3.375 19.25H7.125C7.4375 19.25 7.75 18.9766 7.75 18.625C7.75 18.3125 7.4375 18 7.125 18H3.375ZM11.5 19.875C11.5 17.8828 12.5547 16.0469 14.3125 15.0312C16.0312 14.0156 18.1797 14.0156 19.9375 15.0312C21.6562 16.0469 22.75 17.8828 22.75 19.875C22.75 21.9062 21.6562 23.7422 19.9375 24.7578C18.1797 25.7734 16.0312 25.7734 14.3125 24.7578C12.5547 23.7422 11.5 21.9062 11.5 19.875ZM18.8438 18.1953L16.5 20.5781L15.3672 19.4453C15.1328 19.2109 14.7031 19.2109 14.4688 19.4453C14.2344 19.6797 14.2344 20.1094 14.4688 20.3438L16.0312 21.9062C16.2656 22.1406 16.6953 22.1406 16.9297 21.9062L19.7422 19.0938C19.9766 18.8594 19.9766 18.4297 19.7422 18.1953C19.5078 17.9609 19.0781 17.9609 18.8438 18.1953Z" fill="black" fill-opacity="0.72"/>
</g>
<defs>
<clipPath id="clip0_2556_16931">
<rect width="23" height="30" fill="white"/>
</clipPath>
</defs>
</svg>
