<svg width="20" height="30" viewBox="0 0 20 30" fill="none" xmlns="http://www.w3.org/2000/svg">
<g id="label-paired / lg / window-maximize-lg / regular" clip-path="url(#clip0_2556_17497)">
<path id="icon" d="M2.5 8C1.79688 8 1.25 8.58594 1.25 9.25V13H18.75V9.25C18.75 8.58594 18.1641 8 17.5 8H2.5ZM1.25 14.25V21.75C1.25 22.4531 1.79688 23 2.5 23H17.5C18.1641 23 18.75 22.4531 18.75 21.75V14.25H1.25ZM0 9.25C0 7.88281 1.09375 6.75 2.5 6.75H17.5C18.8672 6.75 20 7.88281 20 9.25V21.75C20 23.1562 18.8672 24.25 17.5 24.25H2.5C1.09375 24.25 0 23.1562 0 21.75V9.25Z" fill="black" fill-opacity="0.72"/>
</g>
<defs>
<clipPath id="clip0_2556_17497">
<rect width="20" height="30" fill="white"/>
</clipPath>
</defs>
</svg>
