<svg width="16" height="24" viewBox="0 0 16 24" fill="none" xmlns="http://www.w3.org/2000/svg">
<g id="label-paired / md / circle-seven-md / fill" clip-path="url(#clip0_2556_14813)">
<path id="icon" d="M8 20C5.125 20 2.5 18.5 1.0625 16C-0.375 13.5312 -0.375 10.5 1.0625 8C2.5 5.53125 5.125 4 8 4C10.8438 4 13.4688 5.53125 14.9062 8C16.3438 10.5 16.3438 13.5312 14.9062 16C13.4688 18.5 10.8438 20 8 20ZM5.75 8V8.03125C5.3125 8.03125 5 8.34375 5 8.78125C5 9.1875 5.3125 9.53125 5.75 9.53125H8.96875L6.0625 14.9062C5.875 15.2812 6 15.7188 6.375 15.9375C6.75 16.125 7.1875 16 7.40625 15.625L10.9062 9.125C11.0312 8.875 11 8.59375 10.875 8.375C10.75 8.15625 10.5 8 10.25 8H5.75Z" fill="black" fill-opacity="0.72"/>
</g>
<defs>
<clipPath id="clip0_2556_14813">
<rect width="16" height="24" fill="white"/>
</clipPath>
</defs>
</svg>
