<svg width="20" height="30" viewBox="0 0 20 30" fill="none" xmlns="http://www.w3.org/2000/svg">
<g id="label-paired / lg / deriv-brand-logo-lg / regular" clip-path="url(#clip0_5147_479)">
<path id="icon" d="M15.1562 20.5781C14.7266 23 12.4219 24.9531 10 24.9531H7.38281C5.74219 24.9531 4.33594 24.2891 3.4375 23.1562C2.5 22.0625 2.10938 20.5391 2.38281 18.8984L2.61719 17.6875C3.16406 14.4453 6.21094 11.8672 9.45312 11.8672H12.0703L12.8906 7.25781L12.9688 6.82812L17.6953 6.04688L15.1562 20.5781ZM14.0234 7.92188L13.2031 12.6094L13.125 13.1172H9.45312C6.91406 13.1172 4.45312 15.1094 3.90625 17.6484L3.86719 17.8828L3.63281 19.1328C3.39844 20.4219 3.71094 21.5547 4.375 22.375C5.03906 23.1562 6.09375 23.7031 7.38281 23.7031H10C11.7969 23.7031 13.5938 22.1797 13.9062 20.3438L16.1719 7.57031L14.0234 7.92188ZM12.7734 14.9922L12.6562 15.7344L11.875 20.0703C11.7188 21.0078 10.8984 21.7891 9.92188 21.7891H8.32031C7.5 21.7891 6.75781 21.4375 6.28906 20.8906C5.78125 20.3047 5.58594 19.5234 5.74219 18.6641L5.85938 17.9219L5.9375 17.6094C6.32812 16.125 7.77344 14.9922 9.29688 14.9922H12.7734ZM9.29688 16.2422C8.28125 16.2422 7.30469 17.1016 7.10938 18.1172L6.95312 18.8984C6.875 19.4062 6.99219 19.7969 7.22656 20.0703C7.46094 20.3438 7.85156 20.5391 8.32031 20.5391H9.92188C10.2344 20.5391 10.5859 20.2656 10.6641 19.875L11.2891 16.2422H9.29688Z" fill="black" fill-opacity="0.72"/>
</g>
<defs>
<clipPath id="clip0_5147_479">
<rect width="20" height="30" fill="white"/>
</clipPath>
</defs>
</svg>
