<svg width="16" height="24" viewBox="0 0 16 24" fill="none" xmlns="http://www.w3.org/2000/svg">
<g id="label-paired / md / facebook-messenger-md" clip-path="url(#clip0_2981_877)">
<path id="icon" d="M8 4.25C12.375 4.25 15.75 7.46875 15.75 11.7812C15.75 17.25 10.5312 20.3125 5.75 19C5.46875 18.9375 5.4375 19 3.8125 19.7188C3.59375 19.7812 3.375 19.7812 3.21875 19.6562C3.03125 19.5625 2.9375 19.375 2.9375 19.1562C2.875 17.7188 2.9375 17.5938 2.6875 17.3438C1.15625 16 0.25 14.0312 0.25 11.7812C0.25 7.46875 3.625 4.25 8 4.25ZM12.6562 10.0625C12.875 9.71875 12.4688 9.3125 12.125 9.5625L9.6875 11.4062C9.5 11.5312 9.28125 11.5312 9.125 11.4062L7.3125 10.0625C7.03125 9.875 6.71875 9.78125 6.40625 9.84375C6.0625 9.90625 5.78125 10.0938 5.625 10.375L3.34375 13.9688C3.125 14.3125 3.53125 14.7188 3.875 14.4688L6.3125 12.625C6.5 12.5 6.71875 12.5 6.875 12.625L8.6875 13.9688C8.96875 14.1562 9.28125 14.25 9.625 14.1875C9.9375 14.125 10.2188 13.9375 10.375 13.6562L12.6562 10.0625Z" fill="black" fill-opacity="0.72"/>
</g>
<defs>
<clipPath id="clip0_2981_877">
<rect width="16" height="24" fill="white"/>
</clipPath>
</defs>
</svg>
