<svg width="14" height="24" viewBox="0 0 14 24" fill="none" xmlns="http://www.w3.org/2000/svg">
<g id="label-paired / md / tiktok-md" clip-path="url(#clip0_2556_14702)">
<path id="icon" d="M14 10.5625C12.5938 10.5938 11.2812 10.1562 10.1562 9.34375V14.9375C10.1562 17.0625 8.84375 18.9375 6.84375 19.6875C4.875 20.4375 2.625 19.875 1.25 18.2812C-0.15625 16.6562 -0.40625 14.375 0.59375 12.5C1.59375 10.6562 3.65625 9.625 5.78125 9.90625V12.7188C4.8125 12.4062 3.75 12.75 3.15625 13.5625C2.59375 14.4062 2.59375 15.5 3.1875 16.3125C3.78125 17.125 4.84375 17.4688 5.78125 17.1562C6.75 16.8438 7.40625 15.9375 7.40625 14.9375V4H10.1562C10.1562 4.25 10.1562 4.46875 10.2188 4.71875C10.4062 5.75 11 6.65625 11.9062 7.21875C12.5 7.625 13.25 7.84375 14 7.84375V10.5625Z" fill="black" fill-opacity="0.72"/>
</g>
<defs>
<clipPath id="clip0_2556_14702">
<rect width="14" height="24" fill="white"/>
</clipPath>
</defs>
</svg>
