<svg width="13" height="22" viewBox="0 0 13 22" fill="none" xmlns="http://www.w3.org/2000/svg">
<g id="label-paired / sm / bars-filter-sm / bold" clip-path="url(#clip0_2556_12664)">
<path id="icon" d="M0.375 6.15625C0.375 5.80078 0.648438 5.5 1.03125 5.5H11.9688C12.3242 5.5 12.625 5.80078 12.625 6.15625C12.625 6.53906 12.3242 6.8125 11.9688 6.8125H1.03125C0.648438 6.8125 0.375 6.53906 0.375 6.15625ZM2.125 10.5312C2.125 10.1758 2.39844 9.875 2.78125 9.875H10.2188C10.5742 9.875 10.875 10.1758 10.875 10.5312C10.875 10.9141 10.5742 11.1875 10.2188 11.1875H2.78125C2.39844 11.1875 2.125 10.9141 2.125 10.5312ZM8.25 14.9062C8.25 15.2891 7.94922 15.5625 7.59375 15.5625H5.40625C5.02344 15.5625 4.75 15.2891 4.75 14.9062C4.75 14.5508 5.02344 14.25 5.40625 14.25H7.59375C7.94922 14.25 8.25 14.5508 8.25 14.9062Z" fill="black" fill-opacity="0.72"/>
</g>
<defs>
<clipPath id="clip0_2556_12664">
<rect width="13" height="22" fill="white"/>
</clipPath>
</defs>
</svg>
