<svg width="12" height="18" viewBox="0 0 12 18" fill="none" xmlns="http://www.w3.org/2000/svg">
<g id="label-paired / caption / phone-caption / regular" clip-path="url(#clip0_2556_10141)">
<path id="icon" d="M8.78906 9.96875L11.4141 11.0938C11.8359 11.2578 12.0703 11.7031 11.9766 12.1484L11.4141 14.7734C11.3203 15.1953 10.9453 15.5234 10.5 15.5234C10.3359 15.5234 10.1953 15.5 10.0547 15.5C9.96094 15.5 9.84375 15.5 9.75 15.4766C4.28906 15.1016 0 10.5547 0 5C0 4.57812 0.304688 4.17969 0.726562 4.08594L3.35156 3.52344C3.79688 3.42969 4.24219 3.66406 4.40625 4.08594L5.53125 6.71094C5.69531 7.08594 5.60156 7.53125 5.27344 7.78906L4.3125 8.58594C4.94531 9.66406 5.83594 10.5547 6.91406 11.1875L7.71094 10.2266C7.96875 9.89844 8.41406 9.80469 8.78906 9.96875ZM10.4766 14.75C10.5703 14.75 10.6406 14.7031 10.6641 14.6094L11.2266 11.9844C11.25 11.8906 11.2031 11.8203 11.1328 11.7734L8.50781 10.6484C8.41406 10.625 8.34375 10.6484 8.27344 10.6953L7.5 11.6562C7.26562 11.9375 6.86719 12.0078 6.53906 11.8203C5.34375 11.1406 4.35938 10.1562 3.67969 8.96094C3.49219 8.63281 3.5625 8.23438 3.84375 8L4.80469 7.22656C4.85156 7.15625 4.875 7.08594 4.85156 6.99219L3.72656 4.36719C3.67969 4.29688 3.60938 4.25 3.51562 4.27344L0.890625 4.83594C0.796875 4.83594 0.75 4.92969 0.75 5C0.75 10.3906 5.10938 14.75 10.4766 14.75Z" fill="black" fill-opacity="0.72"/>
</g>
<defs>
<clipPath id="clip0_2556_10141">
<rect width="12" height="18" fill="white"/>
</clipPath>
</defs>
</svg>
