<svg width="14" height="22" viewBox="0 0 14 22" fill="none" xmlns="http://www.w3.org/2000/svg">
<g id="label-paired / sm / briefcase-sm / bold" clip-path="url(#clip0_2362_662)">
<path id="icon" d="M4.8125 5.28125V6.375H9.1875V5.28125C9.16927 5.15365 9.09635 5.08073 8.96875 5.0625H5.03125C4.90365 5.08073 4.83073 5.15365 4.8125 5.28125ZM3.5 6.375V5.28125C3.51823 4.84375 3.66406 4.47917 3.9375 4.1875C4.22917 3.91406 4.59375 3.76823 5.03125 3.75H8.96875C9.40625 3.76823 9.77083 3.91406 10.0625 4.1875C10.3359 4.47917 10.4818 4.84375 10.5 5.28125V6.375H12.25C12.7422 6.39323 13.1523 6.56641 13.4805 6.89453C13.8086 7.22266 13.9818 7.63281 14 8.125V11.4062V15.125C13.9818 15.6172 13.8086 16.0273 13.4805 16.3555C13.1523 16.6836 12.7422 16.8568 12.25 16.875H1.75C1.25781 16.8568 0.847656 16.6836 0.519531 16.3555C0.191406 16.0273 0.0182292 15.6172 0 15.125V11.4062V8.125C0.0182292 7.63281 0.191406 7.22266 0.519531 6.89453C0.847656 6.56641 1.25781 6.39323 1.75 6.375H3.5ZM1.3125 12.0625V15.125C1.33073 15.3984 1.47656 15.5443 1.75 15.5625H12.25C12.5234 15.5443 12.6693 15.3984 12.6875 15.125V12.0625H8.75V12.5C8.75 12.7552 8.66797 12.9648 8.50391 13.1289C8.33984 13.293 8.13021 13.375 7.875 13.375H6.125C5.86979 13.375 5.66016 13.293 5.49609 13.1289C5.33203 12.9648 5.25 12.7552 5.25 12.5V12.0625H1.3125ZM5.25 10.75H8.75H12.6875V8.125C12.6693 7.85156 12.5234 7.70573 12.25 7.6875H9.84375H4.15625H1.75C1.47656 7.70573 1.33073 7.85156 1.3125 8.125V10.75H5.25Z" fill="black" fill-opacity="0.72"/>
</g>
<defs>
<clipPath id="clip0_2362_662">
<rect width="14" height="22" fill="white"/>
</clipPath>
</defs>
</svg>
