<svg width="21" height="36" viewBox="0 0 21 36" fill="none" xmlns="http://www.w3.org/2000/svg">
<g id="label-paired / xl / calendar-range-xl / bold" clip-path="url(#clip0_2556_19875)">
<path id="icon" d="M7.125 7.125V9H13.875V7.125C13.875 6.51562 14.3438 6 15 6C15.6094 6 16.125 6.51562 16.125 7.125V9H18C19.6406 9 21 10.3594 21 12V12.75V15V27C21 28.6875 19.6406 30 18 30H3C1.3125 30 0 28.6875 0 27V15V12.75V12C0 10.3594 1.3125 9 3 9H4.875V7.125C4.875 6.51562 5.34375 6 6 6C6.60938 6 7.125 6.51562 7.125 7.125ZM2.25 15V27C2.25 27.4219 2.57812 27.75 3 27.75H18C18.375 27.75 18.75 27.4219 18.75 27V15H2.25ZM4.5 19.5C4.5 18.7031 5.15625 18 6 18C6.79688 18 7.5 18.7031 7.5 19.5C7.5 20.3438 6.79688 21 6 21C5.15625 21 4.5 20.3438 4.5 19.5ZM15 22.5C15.7969 22.5 16.5 23.2031 16.5 24C16.5 24.8438 15.7969 25.5 15 25.5C14.1562 25.5 13.5 24.8438 13.5 24C13.5 23.2031 14.1562 22.5 15 22.5ZM9 19.5C9 18.8906 9.46875 18.375 10.125 18.375H15.375C15.9844 18.375 16.5 18.8906 16.5 19.5C16.5 20.1562 15.9844 20.625 15.375 20.625H10.125C9.46875 20.625 9 20.1562 9 19.5ZM10.875 22.875C11.4844 22.875 12 23.3906 12 24C12 24.6562 11.4844 25.125 10.875 25.125H5.625C4.96875 25.125 4.5 24.6562 4.5 24C4.5 23.3906 4.96875 22.875 5.625 22.875H10.875Z" fill="black" fill-opacity="0.72"/>
</g>
<defs>
<clipPath id="clip0_2556_19875">
<rect width="21" height="36" fill="white"/>
</clipPath>
</defs>
</svg>
