<svg width="20" height="30" viewBox="0 0 20 30" fill="none" xmlns="http://www.w3.org/2000/svg">
<g id="label-paired / lg / arrows-rotate-lg / fill" clip-path="url(#clip0_2556_17499)">
<path id="icon" d="M4.10156 13.4297C3.86719 14.0938 3.125 14.4453 2.5 14.2109C1.83594 13.9766 1.48438 13.2734 1.71875 12.6094C2.14844 11.3984 2.85156 10.2656 3.78906 9.32812C7.22656 5.92969 12.7344 5.92969 16.1719 9.32812L16.8359 10.0312V8.625C16.8359 7.96094 17.4219 7.375 18.0859 7.375C18.7891 7.375 19.3359 7.96094 19.3359 8.625V13C19.3359 13.7031 18.7891 14.25 18.0859 14.25H13.75C13.0469 14.25 12.5 13.7031 12.5 13C12.5 12.3359 13.0469 11.75 13.75 11.75H15.0781L14.4141 11.0859C11.9531 8.66406 8.00781 8.66406 5.54688 11.0859C4.88281 11.7891 4.375 12.5703 4.10156 13.4297ZM1.52344 16.8281C1.5625 16.7891 1.64062 16.7891 1.67969 16.7891C1.75781 16.7891 1.79688 16.75 1.875 16.75H6.25C6.91406 16.75 7.5 17.3359 7.5 18C7.5 18.7031 6.91406 19.25 6.25 19.25H4.88281L5.54688 19.9531C8.00781 22.375 11.9531 22.375 14.4141 19.9531C15.0781 19.25 15.5859 18.4688 15.8594 17.6094C16.0938 16.9453 16.8359 16.5938 17.4609 16.8281C18.125 17.0625 18.4766 17.7656 18.2422 18.4297C17.8125 19.6406 17.1094 20.7344 16.1719 21.7109C12.7344 25.1094 7.22656 25.1094 3.78906 21.7109L3.125 21.0078V22.375C3.125 23.0781 2.53906 23.625 1.875 23.625C1.17188 23.625 0.625 23.0781 0.625 22.375V18.0391C0.625 17.9609 0.625 17.8828 0.625 17.8438C0.625 17.7656 0.625 17.7266 0.664062 17.6875C0.703125 17.4922 0.820312 17.2969 0.976562 17.1406C1.13281 16.9844 1.32812 16.8672 1.52344 16.8281Z" fill="black" fill-opacity="0.72"/>
</g>
<defs>
<clipPath id="clip0_2556_17499">
<rect width="20" height="30" fill="white"/>
</clipPath>
</defs>
</svg>
