<svg width="14" height="24" viewBox="0 0 14 24" fill="none" xmlns="http://www.w3.org/2000/svg">
<g id="label-paired / md / lock-md / regular" clip-path="url(#clip0_2556_15247)">
<path id="icon" d="M4 8V10H10V8C10 6.34375 8.65625 5 7 5C5.34375 5 4 6.34375 4 8ZM3 10V8C3 5.8125 4.78125 4 7 4C9.1875 4 11 5.8125 11 8V10H11.5C12.875 10 14 11.125 14 12.5V17.5C14 18.9062 12.875 20 11.5 20H2.5C1.09375 20 0 18.9062 0 17.5V12.5C0 11.125 1.09375 10 2.5 10H3ZM1 12.5V17.5C1 18.3438 1.65625 19 2.5 19H11.5C12.3125 19 13 18.3438 13 17.5V12.5C13 11.6875 12.3125 11 11.5 11H2.5C1.65625 11 1 11.6875 1 12.5Z" fill="black" fill-opacity="0.72"/>
</g>
<defs>
<clipPath id="clip0_2556_15247">
<rect width="14" height="24" fill="white"/>
</clipPath>
</defs>
</svg>
