<svg width="8" height="18" viewBox="0 0 8 18" fill="none" xmlns="http://www.w3.org/2000/svg">
<g id="label-paired / caption / zero-caption / regular" clip-path="url(#clip0_2556_10248)">
<path id="icon" d="M0.25 8C0.25 5.9375 1.91406 4.25 4 4.25C6.0625 4.25 7.75 5.9375 7.75 8V11C7.75 13.0859 6.0625 14.75 4 14.75C1.91406 14.75 0.25 13.0859 0.25 11V8ZM4 5C2.33594 5 1 6.35938 1 8V11C1 12.6641 2.33594 14 4 14C5.64062 14 7 12.6641 7 11V8C7 6.35938 5.64062 5 4 5Z" fill="black" fill-opacity="0.72"/>
</g>
<defs>
<clipPath id="clip0_2556_10248">
<rect width="8" height="18" fill="white"/>
</clipPath>
</defs>
</svg>
