<svg width="21" height="36" viewBox="0 0 21 36" fill="none" xmlns="http://www.w3.org/2000/svg">
<g id="label-paired / xl / copy-xl / regular" clip-path="url(#clip0_2556_19811)">
<path id="icon" d="M18 22.5C18.7969 22.5 19.5 21.8438 19.5 21V11.4375C19.5 11.25 19.4062 11.0625 19.2656 10.9219L16.0781 7.73438C15.9375 7.59375 15.75 7.5 15.5625 7.5H10.5C9.65625 7.5 9 8.20312 9 9V21C9 21.8438 9.65625 22.5 10.5 22.5H18ZM20.2969 9.84375C20.7188 10.2656 21 10.875 21 11.4375V21C21 22.6875 19.6406 24 18 24H10.5C8.8125 24 7.5 22.6875 7.5 21V9C7.5 7.35938 8.8125 6 10.5 6H15.5625C16.125 6 16.7344 6.28125 17.1562 6.70312L20.2969 9.84375ZM3 12H6V13.5H3C2.15625 13.5 1.5 14.2031 1.5 15V27C1.5 27.8438 2.15625 28.5 3 28.5H10.5C11.2969 28.5 12 27.8438 12 27V25.5H13.5V27C13.5 28.6875 12.1406 30 10.5 30H3C1.3125 30 0 28.6875 0 27V15C0 13.3594 1.3125 12 3 12Z" fill="black" fill-opacity="0.72"/>
</g>
<defs>
<clipPath id="clip0_2556_19811">
<rect width="21" height="36" fill="white"/>
</clipPath>
</defs>
</svg>
