<svg width="24" height="36" viewBox="0 0 24 36" fill="none" xmlns="http://www.w3.org/2000/svg">
<g id="label-paired / xl / wallet-xl / bold" clip-path="url(#clip0_2556_19424)">
<path id="icon" d="M4.125 7.5H21.375C21.9844 7.5 22.5 8.01562 22.5 8.625C22.5 9.28125 21.9844 9.75 21.375 9.75H4.125C3.04688 9.75 2.25 10.5938 2.25 11.625V24.375C2.25 25.4531 3.04688 26.25 4.125 26.25H19.875C20.9062 26.25 21.75 25.4531 21.75 24.375V16.125C21.75 15.0938 20.9062 14.25 19.875 14.25H5.625C4.96875 14.25 4.5 13.7812 4.5 13.125C4.5 12.5156 4.96875 12 5.625 12H19.875C22.125 12 24 13.875 24 16.125V24.375C24 26.6719 22.125 28.5 19.875 28.5H4.125C1.82812 28.5 0 26.6719 0 24.375V11.625C0 9.375 1.82812 7.5 4.125 7.5ZM18 21.75C17.1562 21.75 16.5 21.0938 16.5 20.25C16.5 19.4531 17.1562 18.75 18 18.75C18.7969 18.75 19.5 19.4531 19.5 20.25C19.5 21.0938 18.7969 21.75 18 21.75Z" fill="black" fill-opacity="0.72"/>
</g>
<defs>
<clipPath id="clip0_2556_19424">
<rect width="24" height="36" fill="white"/>
</clipPath>
</defs>
</svg>
