<svg width="24" height="36" viewBox="0 0 24 36" fill="none" xmlns="http://www.w3.org/2000/svg">
<g id="label-paired / xl / circle-star-xl / bold" clip-path="url(#clip0_2556_19566)">
<path id="icon" d="M12 8.25C8.48438 8.25 5.29688 10.125 3.51562 13.125C1.78125 16.1719 1.78125 19.875 3.51562 22.875C5.29688 25.9219 8.48438 27.75 12 27.75C15.4688 27.75 18.6562 25.9219 20.4375 22.875C22.1719 19.875 22.1719 16.1719 20.4375 13.125C18.6562 10.125 15.4688 8.25 12 8.25ZM12 30C7.6875 30 3.75 27.75 1.59375 24C-0.5625 20.2969 -0.5625 15.75 1.59375 12C3.75 8.29688 7.6875 6 12 6C16.2656 6 20.2031 8.29688 22.3594 12C24.5156 15.75 24.5156 20.2969 22.3594 24C20.2031 27.75 16.2656 30 12 30ZM12 11.6719C12.2812 11.6719 12.5156 11.8594 12.6562 12.0938L14.1094 15.0938L17.3906 15.5625C17.6719 15.6094 17.9062 15.7969 18 16.0781C18.0938 16.3594 18 16.6406 17.8125 16.8281L15.4219 19.125L15.9844 22.4062C16.0312 22.6875 15.9375 22.9688 15.7031 23.1562C15.4688 23.2969 15.1406 23.3438 14.9062 23.2031L12 21.6562L9.04688 23.2031C8.8125 23.3438 8.48438 23.2969 8.25 23.1562C8.01562 22.9688 7.92188 22.6875 7.96875 22.4062L8.53125 19.125L6.14062 16.8281C5.95312 16.6406 5.85938 16.3594 5.95312 16.0781C6.04688 15.7969 6.28125 15.6094 6.5625 15.5625L9.84375 15.0938L11.2969 12.0938C11.4375 11.8594 11.6719 11.6719 12 11.6719Z" fill="black" fill-opacity="0.72"/>
</g>
<defs>
<clipPath id="clip0_2556_19566">
<rect width="24" height="36" fill="white"/>
</clipPath>
</defs>
</svg>
