<svg width="20" height="30" viewBox="0 0 20 30" fill="none" xmlns="http://www.w3.org/2000/svg">
<g id="label-paired / lg / cash-register-lg / bold" clip-path="url(#clip0_2556_17109)">
<path id="icon" d="M2.5 5.5H11.25C11.9141 5.5 12.5 6.08594 12.5 6.75V9.25C12.5 9.95312 11.9141 10.5 11.25 10.5H8.125V11.75H16.5625C17.8125 11.75 18.8672 12.6875 19.0234 13.8984L19.9609 20.3438C19.9609 20.4609 20 20.5781 20 20.6953V23C20 24.4062 18.8672 25.5 17.5 25.5H2.5C1.09375 25.5 0 24.4062 0 23V20.6953C0 20.5781 0 20.4609 0 20.3438L0.9375 13.8984C1.09375 12.6875 2.14844 11.75 3.39844 11.75H5.625V10.5H2.5C1.79688 10.5 1.25 9.95312 1.25 9.25V6.75C1.25 6.08594 1.79688 5.5 2.5 5.5ZM3.75 7.375C3.39844 7.375 3.125 7.6875 3.125 8C3.125 8.35156 3.39844 8.625 3.75 8.625H10C10.3125 8.625 10.625 8.35156 10.625 8C10.625 7.6875 10.3125 7.375 10 7.375H3.75ZM1.875 23C1.875 23.3516 2.14844 23.625 2.5 23.625H17.5C17.8125 23.625 18.125 23.3516 18.125 23V22.375H1.875V23ZM17.1875 14.1719C17.1484 13.8594 16.875 13.625 16.5625 13.625H3.39844C3.08594 13.625 2.8125 13.8594 2.77344 14.1719L1.875 20.5H18.0859L17.1875 14.1719ZM4.375 14.5625C4.88281 14.5625 5.3125 14.9922 5.3125 15.5C5.3125 16.0469 4.88281 16.4375 4.375 16.4375C3.82812 16.4375 3.4375 16.0469 3.4375 15.5C3.4375 14.9922 3.82812 14.5625 4.375 14.5625ZM7.1875 15.5C7.1875 14.9922 7.57812 14.5625 8.125 14.5625C8.63281 14.5625 9.0625 14.9922 9.0625 15.5C9.0625 16.0469 8.63281 16.4375 8.125 16.4375C7.57812 16.4375 7.1875 16.0469 7.1875 15.5ZM6.25 17.6875C6.75781 17.6875 7.1875 18.1172 7.1875 18.625C7.1875 19.1719 6.75781 19.5625 6.25 19.5625C5.70312 19.5625 5.3125 19.1719 5.3125 18.625C5.3125 18.1172 5.70312 17.6875 6.25 17.6875ZM10.9375 15.5C10.9375 14.9922 11.3281 14.5625 11.875 14.5625C12.3828 14.5625 12.8125 14.9922 12.8125 15.5C12.8125 16.0469 12.3828 16.4375 11.875 16.4375C11.3281 16.4375 10.9375 16.0469 10.9375 15.5ZM10 17.6875C10.5078 17.6875 10.9375 18.1172 10.9375 18.625C10.9375 19.1719 10.5078 19.5625 10 19.5625C9.45312 19.5625 9.0625 19.1719 9.0625 18.625C9.0625 18.1172 9.45312 17.6875 10 17.6875ZM14.6875 15.5C14.6875 14.9922 15.0781 14.5625 15.625 14.5625C16.1328 14.5625 16.5625 14.9922 16.5625 15.5C16.5625 16.0469 16.1328 16.4375 15.625 16.4375C15.0781 16.4375 14.6875 16.0469 14.6875 15.5ZM13.75 17.6875C14.2578 17.6875 14.6875 18.1172 14.6875 18.625C14.6875 19.1719 14.2578 19.5625 13.75 19.5625C13.2031 19.5625 12.8125 19.1719 12.8125 18.625C12.8125 18.1172 13.2031 17.6875 13.75 17.6875Z" fill="black" fill-opacity="0.72"/>
</g>
<defs>
<clipPath id="clip0_2556_17109">
<rect width="20" height="30" fill="white"/>
</clipPath>
</defs>
</svg>
