<svg width="14" height="24" viewBox="0 0 14 24" fill="none" xmlns="http://www.w3.org/2000/svg">
<g id="label-paired / md / stopwatch-md / bold" clip-path="url(#clip0_2556_15027)">
<path id="icon" d="M4.5 4.75C4.5 4.34375 4.8125 4 5.25 4H8.75C9.15625 4 9.5 4.34375 9.5 4.75C9.5 5.1875 9.15625 5.5 8.75 5.5H7.75V7.0625C9.09375 7.21875 10.3125 7.78125 11.2812 8.65625L12.2188 7.71875C12.5 7.4375 12.9688 7.4375 13.25 7.71875C13.5625 8.03125 13.5625 8.5 13.25 8.78125L12.2812 9.75C13.0312 10.8125 13.5 12.125 13.5 13.5C13.5 17.0938 10.5625 20 7 20C3.40625 20 0.5 17.0938 0.5 13.5C0.5 10.1875 3 7.4375 6.25 7.0625V5.5H5.25C4.8125 5.5 4.5 5.1875 4.5 4.75ZM7 18.5C8.78125 18.5 10.4062 17.5625 11.3125 16C12.2188 14.4688 12.2188 12.5625 11.3125 11C10.4062 9.46875 8.78125 8.5 7 8.5C5.1875 8.5 3.5625 9.46875 2.65625 11C1.75 12.5625 1.75 14.4688 2.65625 16C3.5625 17.5625 5.1875 18.5 7 18.5ZM7.75 10.75V14C7.75 14.4375 7.40625 14.75 7 14.75C6.5625 14.75 6.25 14.4375 6.25 14V10.75C6.25 10.3438 6.5625 10 7 10C7.40625 10 7.75 10.3438 7.75 10.75Z" fill="black" fill-opacity="0.72"/>
</g>
<defs>
<clipPath id="clip0_2556_15027">
<rect width="14" height="24" fill="white"/>
</clipPath>
</defs>
</svg>
