<svg width="18" height="24" viewBox="0 0 18 24" fill="none" xmlns="http://www.w3.org/2000/svg">
<g id="label-paired / md / floppy-disk-pen-md / fill" clip-path="url(#clip0_2556_14728)">
<path id="icon" d="M2 5H9.5625C10.0938 5 10.625 5.21875 11 5.59375L13.4062 8C13.7812 8.375 14 8.90625 14 9.4375V11.375L9.03125 16.3438C8.78125 16.5938 8.59375 16.9062 8.5 17.2812L8.0625 19H2C0.875 19 0 18.125 0 17V7C0 5.90625 0.875 5 2 5ZM2 8V10C2 10.5625 2.4375 11 3 11H9C9.53125 11 10 10.5625 10 10V8C10 7.46875 9.53125 7 9 7H3C2.4375 7 2 7.46875 2 8ZM7 13C6.28125 13 5.625 13.4062 5.25 14C4.90625 14.625 4.90625 15.4062 5.25 16C5.625 16.625 6.28125 17 7 17C7.6875 17 8.34375 16.625 8.71875 16C9.0625 15.4062 9.0625 14.625 8.71875 14C8.34375 13.4062 7.6875 13 7 13ZM17.1562 11.375L17.625 11.8438C18.0938 12.3125 18.0938 13.125 17.625 13.5938L16.6875 14.5312L14.4688 12.3125L15.4062 11.375C15.875 10.9062 16.6875 10.9062 17.1562 11.375ZM9.71875 17.0625L13.7812 13L16 15.2188L11.9375 19.2812C11.8125 19.4062 11.6562 19.5 11.5 19.5312L9.59375 20C9.4375 20.0312 9.25 20 9.125 19.875C9 19.75 8.96875 19.5625 9 19.4062L9.46875 17.5C9.5 17.3438 9.59375 17.1875 9.71875 17.0625Z" fill="black" fill-opacity="0.72"/>
</g>
<defs>
<clipPath id="clip0_2556_14728">
<rect width="18" height="24" fill="white"/>
</clipPath>
</defs>
</svg>
