<svg width="14" height="24" viewBox="0 0 14 24" fill="none" xmlns="http://www.w3.org/2000/svg">
<g id="label-paired / md / calendar-range-md / bold" clip-path="url(#clip0_2556_15191)">
<path id="icon" d="M4.75 4.75V6H9.25V4.75C9.25 4.34375 9.5625 4 10 4C10.4062 4 10.75 4.34375 10.75 4.75V6H12C13.0938 6 14 6.90625 14 8V8.5V10V18C14 19.125 13.0938 20 12 20H2C0.875 20 0 19.125 0 18V10V8.5V8C0 6.90625 0.875 6 2 6H3.25V4.75C3.25 4.34375 3.5625 4 4 4C4.40625 4 4.75 4.34375 4.75 4.75ZM1.5 10V18C1.5 18.2812 1.71875 18.5 2 18.5H12C12.25 18.5 12.5 18.2812 12.5 18V10H1.5ZM3 13C3 12.4688 3.4375 12 4 12C4.53125 12 5 12.4688 5 13C5 13.5625 4.53125 14 4 14C3.4375 14 3 13.5625 3 13ZM10 15C10.5312 15 11 15.4688 11 16C11 16.5625 10.5312 17 10 17C9.4375 17 9 16.5625 9 16C9 15.4688 9.4375 15 10 15ZM6 13C6 12.5938 6.3125 12.25 6.75 12.25H10.25C10.6562 12.25 11 12.5938 11 13C11 13.4375 10.6562 13.75 10.25 13.75H6.75C6.3125 13.75 6 13.4375 6 13ZM7.25 15.25C7.65625 15.25 8 15.5938 8 16C8 16.4375 7.65625 16.75 7.25 16.75H3.75C3.3125 16.75 3 16.4375 3 16C3 15.5938 3.3125 15.25 3.75 15.25H7.25Z" fill="black" fill-opacity="0.72"/>
</g>
<defs>
<clipPath id="clip0_2556_15191">
<rect width="14" height="24" fill="white"/>
</clipPath>
</defs>
</svg>
