<svg width="12" height="18" viewBox="0 0 12 18" fill="none" xmlns="http://www.w3.org/2000/svg">
<g id="label-paired / caption / bullhorn-caption / regular" clip-path="url(#clip0_2556_9958)">
<path id="icon" d="M9.75 4.55469C9.75 4.36719 9.53906 4.29688 9.42188 4.41406L8.85938 5C7.875 6.03125 6.60938 6.75781 5.25 7.0625V11.2109C6.60938 11.5156 7.875 12.2188 8.85938 13.2734L9.42188 13.8594C9.53906 13.9766 9.75 13.8828 9.75 13.7188V4.55469ZM4.5 11.0938V7.17969C4.35938 7.20312 4.21875 7.20312 4.07812 7.22656L3.375 7.25H1.5C1.07812 7.25 0.75 7.60156 0.75 8V10.25C0.75 10.6719 1.07812 11 1.5 11H3.375L4.07812 11.0469C4.21875 11.0469 4.35938 11.0703 4.5 11.0938ZM8.88281 3.89844C9.44531 3.28906 10.5 3.6875 10.5 4.55469V13.7188C10.5 14.5625 9.44531 14.9844 8.88281 14.375L8.32031 13.7891C7.28906 12.7109 5.95312 12.0312 4.5 11.8438V14.1875C4.5 14.9141 3.91406 15.5 3.1875 15.5H2.8125C2.08594 15.5 1.5 14.9141 1.5 14.1875V11.75C0.65625 11.75 0 11.0938 0 10.25V8C0 7.17969 0.65625 6.5 1.5 6.5H3.35156L4.03125 6.47656C5.67188 6.38281 7.19531 5.67969 8.32031 4.48438L8.88281 3.89844ZM2.25 11.75V14.1875C2.25 14.5156 2.48438 14.75 2.8125 14.75H3.1875C3.49219 14.75 3.75 14.5156 3.75 14.1875V11.7734L3.35156 11.75H2.25ZM11.625 8C11.8125 8 12 8.1875 12 8.375V9.875C12 10.0859 11.8125 10.25 11.625 10.25C11.4141 10.25 11.25 10.0859 11.25 9.875V8.375C11.25 8.1875 11.4141 8 11.625 8Z" fill="black" fill-opacity="0.72"/>
</g>
<defs>
<clipPath id="clip0_2556_9958">
<rect width="12" height="18" fill="white"/>
</clipPath>
</defs>
</svg>
