<svg width="18" height="24" viewBox="0 0 18 24" fill="none" xmlns="http://www.w3.org/2000/svg">
<g id="label-paired / md / credit-card-md / regular" clip-path="url(#clip0_2362_685)">
<path id="icon" d="M2 6C1.70833 6 1.46875 6.09375 1.28125 6.28125C1.09375 6.46875 1 6.70833 1 7V8H17V7C17 6.70833 16.9062 6.46875 16.7188 6.28125C16.5312 6.09375 16.2917 6 16 6H2ZM1 9V11H17V9H1ZM1 12V17C1 17.2917 1.09375 17.5312 1.28125 17.7188C1.46875 17.9062 1.70833 18 2 18H16C16.2917 18 16.5312 17.9062 16.7188 17.7188C16.9062 17.5312 17 17.2917 17 17V12H1ZM0 7C0.0208333 6.4375 0.21875 5.96875 0.59375 5.59375C0.96875 5.21875 1.4375 5.02083 2 5H16C16.5625 5.02083 17.0312 5.21875 17.4062 5.59375C17.7812 5.96875 17.9792 6.4375 18 7V17C17.9792 17.5625 17.7812 18.0312 17.4062 18.4062C17.0312 18.7812 16.5625 18.9792 16 19H2C1.4375 18.9792 0.96875 18.7812 0.59375 18.4062C0.21875 18.0312 0.0208333 17.5625 0 17V7ZM3 15.5C3.02083 15.1875 3.1875 15.0208 3.5 15H5.5C5.8125 15.0208 5.97917 15.1875 6 15.5C5.97917 15.8125 5.8125 15.9792 5.5 16H3.5C3.1875 15.9792 3.02083 15.8125 3 15.5ZM7 15.5C7.02083 15.1875 7.1875 15.0208 7.5 15H11.5C11.8125 15.0208 11.9792 15.1875 12 15.5C11.9792 15.8125 11.8125 15.9792 11.5 16H7.5C7.1875 15.9792 7.02083 15.8125 7 15.5Z" fill="black" fill-opacity="0.72"/>
</g>
<defs>
<clipPath id="clip0_2362_685">
<rect width="18" height="24" fill="white"/>
</clipPath>
</defs>
</svg>
