<svg width="18" height="30" viewBox="0 0 18 30" fill="none" xmlns="http://www.w3.org/2000/svg">
<g id="label-paired / lg / square-minus-lg / regular" clip-path="url(#clip0_2556_17441)">
<path id="icon" d="M2.75 8C2.04688 8 1.5 8.58594 1.5 9.25V21.75C1.5 22.4531 2.04688 23 2.75 23H15.25C15.9141 23 16.5 22.4531 16.5 21.75V9.25C16.5 8.58594 15.9141 8 15.25 8H2.75ZM0.25 9.25C0.25 7.88281 1.34375 6.75 2.75 6.75H15.25C16.6172 6.75 17.75 7.88281 17.75 9.25V21.75C17.75 23.1562 16.6172 24.25 15.25 24.25H2.75C1.34375 24.25 0.25 23.1562 0.25 21.75V9.25ZM5.25 14.875H12.75C13.0625 14.875 13.375 15.1875 13.375 15.5C13.375 15.8516 13.0625 16.125 12.75 16.125H5.25C4.89844 16.125 4.625 15.8516 4.625 15.5C4.625 15.1875 4.89844 14.875 5.25 14.875Z" fill="black" fill-opacity="0.72"/>
</g>
<defs>
<clipPath id="clip0_2556_17441">
<rect width="18" height="30" fill="white"/>
</clipPath>
</defs>
</svg>
