<svg width="30" height="36" viewBox="0 0 30 36" fill="none" xmlns="http://www.w3.org/2000/svg">
<g id="label-paired / xl / eye-slash-xl / regular" clip-path="url(#clip0_2556_19843)">
<path id="icon" d="M1.17188 6.1875L29.7188 28.6875C30 28.9219 30.0938 29.4375 29.8125 29.7188C29.5781 30.0469 29.1094 30.1406 28.7812 29.8594L0.28125 7.35938C-0.046875 7.125 -0.140625 6.60938 0.140625 6.32812C0.375 6 0.890625 5.90625 1.17188 6.1875ZM28.3594 18.6094C27.8906 19.7344 27.0469 21.2812 25.8281 22.7812L24.6562 21.8438C25.7812 20.4375 26.5312 19.0781 27 18C26.3438 16.5 24.9844 14.25 22.9688 12.375C20.9531 10.5 18.2812 9 15 9C13.125 9 11.4375 9.51562 9.98438 10.2656L8.71875 9.23438C10.5 8.20312 12.5625 7.5 15 7.5C18.75 7.5 21.7969 9.23438 24 11.2969C26.2031 13.3125 27.6562 15.75 28.3594 17.4375C28.5 17.8125 28.5 18.2344 28.3594 18.6094ZM4.125 13.2656L5.29688 14.2031C4.17188 15.5625 3.42188 16.9688 3 18C3.60938 19.5 4.96875 21.75 6.98438 23.625C9 25.5 11.6719 27 15 27C16.8281 27 18.5156 26.5312 19.9688 25.7812L21.2344 26.8125C19.5 27.8438 17.3906 28.5 15 28.5C11.2031 28.5 8.15625 26.8125 5.95312 24.75C3.75 22.6875 2.29688 20.25 1.59375 18.6094C1.45312 18.2344 1.45312 17.8125 1.59375 17.4375C2.0625 16.3125 2.90625 14.7656 4.125 13.2656ZM15 24C11.6719 24 9 21.3281 9 18C9 17.7188 9 17.4375 9.04688 17.1562L10.5 18.2812C10.6406 20.6719 12.6094 22.5 15 22.5C15.2344 22.5 15.5156 22.5 15.75 22.4531L17.2031 23.5781C16.5 23.8594 15.75 24 15 24ZM21 18V18.0469C21 18.3281 20.9531 18.6094 20.9062 18.8906L19.4531 17.7656C19.3125 15.375 17.3906 13.5469 15 13.5469C14.7188 13.5469 14.4375 13.5469 14.2031 13.5938L12.75 12.4688C13.4531 12.1875 14.2031 12 15 12C18.2812 12 21 14.7188 21 18Z" fill="black" fill-opacity="0.72"/>
</g>
<defs>
<clipPath id="clip0_2556_19843">
<rect width="30" height="36" fill="white"/>
</clipPath>
</defs>
</svg>
