<svg width="12" height="18" viewBox="0 0 12 18" fill="none" xmlns="http://www.w3.org/2000/svg">
<g id="label-paired / caption / thumbs-down-caption / fill" clip-path="url(#clip0_2556_10528)">
<path id="icon" d="M7.33594 14.75C6.72656 14.8672 6.14062 14.4688 6 13.8594L5.95312 13.5781C5.8125 12.8047 5.36719 12.1016 4.75781 11.6094L4.59375 11.4688C4.05469 11.0469 3.75 10.4141 3.75 9.71094V9.125V8V7.10938C3.75 6.35938 4.125 5.65625 4.73438 5.23438L5.64844 4.64844C6.02344 4.39062 6.44531 4.25 6.89062 4.25H9.1875C9.79688 4.25 10.3125 4.76562 10.3125 5.375C10.3125 5.46875 10.2891 5.5625 10.2656 5.63281C10.7344 5.77344 11.0625 6.19531 11.0625 6.6875C11.0625 6.92188 10.9922 7.10938 10.8984 7.27344C11.4141 7.39062 11.8125 7.83594 11.8125 8.375C11.8125 8.75 11.6484 9.05469 11.3906 9.26562C11.7422 9.45312 12 9.82812 12 10.25C12 10.8828 11.4844 11.375 10.875 11.375H7.5C7.80469 11.9375 8.03906 12.5234 8.15625 13.1562L8.22656 13.4141C8.34375 14.0234 7.94531 14.6094 7.33594 14.75ZM0.75 12.5C0.328125 12.5 0 12.1719 0 11.75V6.5C0 6.10156 0.328125 5.75 0.75 5.75H2.25C2.64844 5.75 3 6.10156 3 6.5V11.75C3 12.1719 2.64844 12.5 2.25 12.5H0.75Z" fill="black" fill-opacity="0.72"/>
</g>
<defs>
<clipPath id="clip0_2556_10528">
<rect width="12" height="18" fill="white"/>
</clipPath>
</defs>
</svg>
