<svg width="13" height="22" viewBox="0 0 13 22" fill="none" xmlns="http://www.w3.org/2000/svg">
<g id="label-paired / sm / arrow-right-to-line-sm / regular" clip-path="url(#clip0_2556_12633)">
<path id="icon" d="M12.625 5.9375V15.5625C12.625 15.8086 12.4062 16 12.1875 16C11.9414 16 11.75 15.8086 11.75 15.5625V5.9375C11.75 5.71875 11.9414 5.5 12.1875 5.5C12.4062 5.5 12.625 5.71875 12.625 5.9375ZM9.86328 11.0781L6.36328 14.5781C6.19922 14.7422 5.89844 14.7422 5.73438 14.5781C5.57031 14.4141 5.57031 14.1133 5.73438 13.9492L8.49609 11.1875H5.625H0.8125C0.566406 11.1875 0.375 10.9961 0.375 10.75C0.375 10.5312 0.566406 10.3125 0.8125 10.3125H5.625H8.49609L5.73438 7.57812C5.57031 7.41406 5.57031 7.11328 5.73438 6.94922C5.89844 6.78516 6.19922 6.78516 6.36328 6.94922L9.86328 10.4492C10.0273 10.6133 10.0273 10.9141 9.86328 11.0781Z" fill="black" fill-opacity="0.72"/>
</g>
<defs>
<clipPath id="clip0_2556_12633">
<rect width="13" height="22" fill="white"/>
</clipPath>
</defs>
</svg>
