<svg width="24" height="36" viewBox="0 0 24 36" fill="none" xmlns="http://www.w3.org/2000/svg">
<g id="label-paired / xl / circle-dollar-xl / regular" clip-path="url(#clip0_2556_19294)">
<path id="icon" d="M22.5 18C22.5 14.25 20.4844 10.8281 17.25 8.95312C13.9688 7.03125 9.98438 7.03125 6.75 8.95312C3.46875 10.8281 1.5 14.25 1.5 18C1.5 21.7969 3.46875 25.2188 6.75 27.0938C9.98438 29.0156 13.9688 29.0156 17.25 27.0938C20.4844 25.2188 22.5 21.7969 22.5 18ZM0 18C0 13.7344 2.25 9.79688 6 7.64062C9.70312 5.48438 14.25 5.48438 18 7.64062C21.7031 9.79688 24 13.7344 24 18C24 22.3125 21.7031 26.25 18 28.4062C14.25 30.5625 9.70312 30.5625 6 28.4062C2.25 26.25 0 22.3125 0 18ZM12.75 11.625V12.7031C13.3594 12.75 13.9688 12.9375 14.5781 13.125C14.6719 13.125 14.7188 13.1719 14.8125 13.1719C15.1875 13.2656 15.4219 13.6875 15.3281 14.1094C15.2344 14.4844 14.8125 14.7188 14.3906 14.625C14.2969 14.5781 14.1562 14.5781 14.0625 14.5312C13.7344 14.4375 13.3594 14.2969 12.9844 14.25C12.0938 14.1562 11.2969 14.25 10.6875 14.4844C10.0781 14.7656 9.79688 15.1406 9.75 15.4219C9.65625 15.8906 9.84375 16.1719 10.2188 16.4531C10.7344 16.7344 11.4844 16.9688 12.375 17.2031V17.25C13.2188 17.4844 14.2031 17.7656 14.9531 18.2344C15.8438 18.8438 16.2188 19.8281 16.0312 20.9062C15.8438 21.8906 15.1406 22.5938 14.25 22.9219C13.8281 23.1094 13.2656 23.25 12.7031 23.25V24.375C12.7031 24.7969 12.375 25.125 11.9531 25.125C11.5781 25.125 11.2031 24.7969 11.2031 24.375V23.2031C10.8281 23.1094 10.2188 22.9219 9.70312 22.7812C9.375 22.6875 9.04688 22.5938 8.71875 22.5C8.34375 22.3594 8.10938 21.9375 8.25 21.5156C8.39062 21.1406 8.8125 20.9531 9.1875 21.0469C9.51562 21.1406 9.79688 21.2812 10.125 21.375C10.6406 21.5156 11.2031 21.6562 11.4375 21.7031C12.375 21.8438 13.1719 21.75 13.6875 21.5625C14.2031 21.3281 14.4844 21 14.5781 20.625C14.625 20.1094 14.4844 19.7344 14.0625 19.4531C13.5 19.0781 12.8438 18.8906 12.1406 18.7031C12.0469 18.7031 11.9531 18.6562 11.8594 18.6094C11.0156 18.4219 10.125 18.1406 9.42188 17.6719C9.04688 17.4375 8.67188 17.1094 8.4375 16.6875C8.20312 16.2188 8.15625 15.7031 8.25 15.1406C8.4375 14.1562 9.1875 13.5 10.0781 13.125C10.4062 12.9844 10.8281 12.8438 11.2031 12.7969V11.625C11.2031 11.25 11.5312 10.875 11.9531 10.875C12.375 10.875 12.7031 11.25 12.7031 11.625H12.75Z" fill="black" fill-opacity="0.72"/>
</g>
<defs>
<clipPath id="clip0_2556_19294">
<rect width="24" height="36" fill="white"/>
</clipPath>
</defs>
</svg>
