<svg width="14" height="22" viewBox="0 0 14 22" fill="none" xmlns="http://www.w3.org/2000/svg">
<g id="label-paired / sm / camera-sm / fill" clip-path="url(#clip0_2556_12264)">
<path id="icon" d="M4.07422 5.52734C4.23828 5.00781 4.73047 4.625 5.30469 4.625H8.66797C9.24219 4.625 9.73438 5.00781 9.89844 5.52734L10.1992 6.375H12.25C13.207 6.375 14 7.16797 14 8.125V15.125C14 16.1094 13.207 16.875 12.25 16.875H1.75C0.765625 16.875 0 16.1094 0 15.125V8.125C0 7.16797 0.765625 6.375 1.75 6.375H3.77344L4.07422 5.52734ZM7 9C6.04297 9 5.19531 9.51953 4.70312 10.3125C4.23828 11.1328 4.23828 12.1445 4.70312 12.9375C5.19531 13.7578 6.04297 14.25 7 14.25C7.92969 14.25 8.77734 13.7578 9.26953 12.9375C9.73438 12.1445 9.73438 11.1328 9.26953 10.3125C8.77734 9.51953 7.92969 9 7 9Z" fill="black" fill-opacity="0.72"/>
</g>
<defs>
<clipPath id="clip0_2556_12264">
<rect width="14" height="22" fill="white"/>
</clipPath>
</defs>
</svg>
