<svg width="12" height="18" viewBox="0 0 12 18" fill="none" xmlns="http://www.w3.org/2000/svg">
<g id="label-paired / caption / circle-caret-up-caption / fill" clip-path="url(#clip0_2556_9933)">
<path id="icon" d="M6 15.5C3.84375 15.5 1.875 14.375 0.796875 12.5C-0.28125 10.6484 -0.28125 8.375 0.796875 6.5C1.875 4.64844 3.84375 3.5 6 3.5C8.13281 3.5 10.1016 4.64844 11.1797 6.5C12.2578 8.375 12.2578 10.6484 11.1797 12.5C10.1016 14.375 8.13281 15.5 6 15.5ZM6 6.875C5.83594 6.875 5.67188 6.94531 5.57812 7.0625L3.14062 9.6875C2.97656 9.85156 2.95312 10.0859 3.04688 10.2969C3.11719 10.5078 3.32812 10.625 3.5625 10.625H8.4375C8.64844 10.625 8.85938 10.5078 8.95312 10.2969C9.02344 10.0859 9 9.85156 8.83594 9.6875L6.39844 7.0625C6.30469 6.94531 6.14062 6.875 6 6.875Z" fill="black" fill-opacity="0.72"/>
</g>
<defs>
<clipPath id="clip0_2556_9933">
<rect width="12" height="18" fill="white"/>
</clipPath>
</defs>
</svg>
