<svg width="16" height="24" viewBox="0 0 16 24" fill="none" xmlns="http://www.w3.org/2000/svg">
<g id="label-paired / md / scissors-md / fill" clip-path="url(#clip0_2556_14734)">
<path id="icon" d="M8 10L12.375 5.625C13.2812 4.71875 14.6875 4.71875 15.5938 5.625C15.8125 5.84375 15.8125 6.1875 15.5938 6.40625L6.75 15.25C6.90625 15.6562 7 16.0625 7 16.5C7 18.4375 5.40625 20 3.5 20C1.5625 20 0 18.4375 0 16.5C0 14.5938 1.5625 13 3.5 13C3.9375 13 4.34375 13.0938 4.75 13.25L6 12L4.75 10.7812C4.34375 10.9375 3.9375 11 3.5 11C1.5625 11 0 9.4375 0 7.5C0 5.59375 1.5625 4 3.5 4C5.40625 4 7 5.59375 7 7.5C7 7.96875 6.90625 8.375 6.75 8.78125L8 10ZM8.6875 14.7188L10.6875 12.7188L15.5938 17.625C15.8125 17.8438 15.8125 18.1875 15.5938 18.4062C14.6875 19.3125 13.2812 19.3125 12.375 18.4062L8.6875 14.7188ZM2 7.5C2 8.0625 2.28125 8.53125 2.75 8.8125C3.1875 9.09375 3.78125 9.09375 4.25 8.8125C4.6875 8.53125 5 8.0625 5 7.5C5 6.96875 4.6875 6.5 4.25 6.21875C3.78125 5.9375 3.1875 5.9375 2.75 6.21875C2.28125 6.5 2 6.96875 2 7.5ZM3.5 15C2.9375 15 2.46875 15.3125 2.1875 15.75C1.90625 16.2188 1.90625 16.8125 2.1875 17.25C2.46875 17.7188 2.9375 18 3.5 18C4.03125 18 4.5 17.7188 4.78125 17.25C5.0625 16.8125 5.0625 16.2188 4.78125 15.75C4.5 15.3125 4.03125 15 3.5 15Z" fill="black" fill-opacity="0.72"/>
</g>
<defs>
<clipPath id="clip0_2556_14734">
<rect width="16" height="24" fill="white"/>
</clipPath>
</defs>
</svg>
