<svg width="14" height="18" viewBox="0 0 14 18" fill="none" xmlns="http://www.w3.org/2000/svg">
<g id="label-paired / caption / money-bill-caption / regular" clip-path="url(#clip0_2556_9956)">
<path id="icon" d="M11.5 5.75C11.5 6.59375 12.1562 7.25 13 7.25V6.5C13 6.10156 12.6484 5.75 12.25 5.75H11.5ZM10.75 5.75H3.25C3.25 6.99219 2.24219 8 1 8V11C2.24219 11 3.25 12.0078 3.25 13.25H10.75C10.75 12.0078 11.7578 11 13 11V8C11.7578 8 10.75 6.99219 10.75 5.75ZM1 12.5C1 12.9219 1.32812 13.25 1.75 13.25H2.5C2.5 12.4297 1.82031 11.75 1 11.75V12.5ZM13 11.75C12.1562 11.75 11.5 12.4297 11.5 13.25H12.25C12.6484 13.25 13 12.9219 13 12.5V11.75ZM1.75 5.75C1.32812 5.75 1 6.10156 1 6.5V7.25C1.82031 7.25 2.5 6.59375 2.5 5.75H1.75ZM0.25 6.5C0.25 5.67969 0.90625 5 1.75 5H12.25C13.0703 5 13.75 5.67969 13.75 6.5V12.5C13.75 13.3438 13.0703 14 12.25 14H1.75C0.90625 14 0.25 13.3438 0.25 12.5V6.5ZM8.5 9.5C8.5 8.98438 8.19531 8.49219 7.75 8.21094C7.28125 7.95312 6.69531 7.95312 6.25 8.21094C5.78125 8.49219 5.5 8.98438 5.5 9.5C5.5 10.0391 5.78125 10.5312 6.25 10.8125C6.69531 11.0703 7.28125 11.0703 7.75 10.8125C8.19531 10.5312 8.5 10.0391 8.5 9.5ZM4.75 9.5C4.75 8.70312 5.17188 7.97656 5.875 7.55469C6.55469 7.15625 7.42188 7.15625 8.125 7.55469C8.80469 7.97656 9.25 8.70312 9.25 9.5C9.25 10.3203 8.80469 11.0469 8.125 11.4688C7.42188 11.8672 6.55469 11.8672 5.875 11.4688C5.17188 11.0469 4.75 10.3203 4.75 9.5Z" fill="black" fill-opacity="0.72"/>
</g>
<defs>
<clipPath id="clip0_2556_9956">
<rect width="14" height="18" fill="white"/>
</clipPath>
</defs>
</svg>
