<svg width="12" height="18" viewBox="0 0 12 18" fill="none" xmlns="http://www.w3.org/2000/svg">
<g id="label-paired / caption / camera-caption / fill" clip-path="url(#clip0_2556_10453)">
<path id="icon" d="M3.49219 5.02344C3.63281 4.57812 4.05469 4.25 4.54688 4.25H7.42969C7.92188 4.25 8.34375 4.57812 8.48438 5.02344L8.74219 5.75H10.5C11.3203 5.75 12 6.42969 12 7.25V13.25C12 14.0938 11.3203 14.75 10.5 14.75H1.5C0.65625 14.75 0 14.0938 0 13.25V7.25C0 6.42969 0.65625 5.75 1.5 5.75H3.23438L3.49219 5.02344ZM6 8C5.17969 8 4.45312 8.44531 4.03125 9.125C3.63281 9.82812 3.63281 10.6953 4.03125 11.375C4.45312 12.0781 5.17969 12.5 6 12.5C6.79688 12.5 7.52344 12.0781 7.94531 11.375C8.34375 10.6953 8.34375 9.82812 7.94531 9.125C7.52344 8.44531 6.79688 8 6 8Z" fill="black" fill-opacity="0.72"/>
</g>
<defs>
<clipPath id="clip0_2556_10453">
<rect width="12" height="18" fill="white"/>
</clipPath>
</defs>
</svg>
