<svg width="18" height="30" viewBox="0 0 18 30" fill="none" xmlns="http://www.w3.org/2000/svg">
<g id="label-paired / lg / floppy-disk-lg / fill" clip-path="url(#clip0_2556_17215)">
<path id="icon" d="M2.75 6.75H12.2031C12.8672 6.75 13.5312 7.02344 14 7.49219L17.0078 10.5C17.4766 10.9688 17.75 11.6328 17.75 12.2969V21.75C17.75 23.1562 16.6172 24.25 15.25 24.25H2.75C1.34375 24.25 0.25 23.1562 0.25 21.75V9.25C0.25 7.88281 1.34375 6.75 2.75 6.75ZM2.75 10.5V13C2.75 13.7031 3.29688 14.25 4 14.25H11.5C12.1641 14.25 12.75 13.7031 12.75 13V10.5C12.75 9.83594 12.1641 9.25 11.5 9.25H4C3.29688 9.25 2.75 9.83594 2.75 10.5ZM9 16.75C8.10156 16.75 7.28125 17.2578 6.8125 18C6.38281 18.7812 6.38281 19.7578 6.8125 20.5C7.28125 21.2812 8.10156 21.75 9 21.75C9.85938 21.75 10.6797 21.2812 11.1484 20.5C11.5781 19.7578 11.5781 18.7812 11.1484 18C10.6797 17.2578 9.85938 16.75 9 16.75Z" fill="black" fill-opacity="0.72"/>
</g>
<defs>
<clipPath id="clip0_2556_17215">
<rect width="18" height="30" fill="white"/>
</clipPath>
</defs>
</svg>
