<svg width="24" height="36" viewBox="0 0 24 36" fill="none" xmlns="http://www.w3.org/2000/svg">
<g id="label-paired / xl / window-maximize-xl / bold" clip-path="url(#clip0_2556_19848)">
<path id="icon" d="M0 10.2188C0.046875 9.79688 0.140625 9.42188 0.328125 9.09375C0.609375 8.625 0.984375 8.20312 1.5 7.92188C1.82812 7.73438 2.25 7.59375 2.67188 7.54688C2.76562 7.54688 2.85938 7.5 3 7.5H21C22.6406 7.5 24 8.85938 24 10.5V16.5V25.5C24 27.1875 22.6406 28.5 21 28.5H3C1.3125 28.5 0 27.1875 0 25.5V16.5V10.5C0 10.4062 0 10.3125 0 10.2188ZM2.25 16.5V25.5C2.25 25.9219 2.57812 26.25 3 26.25H21C21.375 26.25 21.75 25.9219 21.75 25.5V16.5H2.25Z" fill="black" fill-opacity="0.72"/>
</g>
<defs>
<clipPath id="clip0_2556_19848">
<rect width="24" height="36" fill="white"/>
</clipPath>
</defs>
</svg>
