<svg width="24" height="36" viewBox="0 0 24 36" fill="none" xmlns="http://www.w3.org/2000/svg">
<g id="label-paired / xl / circle-arrow-up-left-xl / bold" clip-path="url(#clip0_2556_19632)">
<path id="icon" d="M12 8.25C8.48438 8.25 5.29688 10.125 3.51562 13.125C1.78125 16.1719 1.78125 19.875 3.51562 22.875C5.29688 25.9219 8.48438 27.75 12 27.75C15.4688 27.75 18.6562 25.9219 20.4375 22.875C22.1719 19.875 22.1719 16.1719 20.4375 13.125C18.6562 10.125 15.4688 8.25 12 8.25ZM12 30C7.6875 30 3.75 27.75 1.59375 24C-0.5625 20.2969 -0.5625 15.75 1.59375 12C3.75 8.29688 7.6875 6 12 6C16.2656 6 20.2031 8.29688 22.3594 12C24.5156 15.75 24.5156 20.2969 22.3594 24C20.2031 27.75 16.2656 30 12 30ZM15 12.75V12.7969C15.6094 12.7969 16.125 13.2656 16.125 13.9219C16.125 14.5312 15.6094 15.0469 15 15.0469H10.5469L16.875 21.375C17.3438 21.7969 17.3438 22.5 16.875 22.9219C16.4531 23.3906 15.75 23.3906 15.3281 22.9219L9 16.5938V21.375C9 22.0312 8.48438 22.5 7.875 22.5C7.21875 22.5 6.75 22.0312 6.75 21.375V13.875C6.75 13.2656 7.21875 12.75 7.875 12.75H15Z" fill="black" fill-opacity="0.72"/>
</g>
<defs>
<clipPath id="clip0_2556_19632">
<rect width="24" height="36" fill="white"/>
</clipPath>
</defs>
</svg>
