<svg width="12" height="18" viewBox="0 0 12 18" fill="none" xmlns="http://www.w3.org/2000/svg">
<g id="label-paired / caption / pen-circle-caption / regular" clip-path="url(#clip0_2556_10326)">
<path id="icon" d="M11.25 9.5C11.25 7.625 10.2422 5.91406 8.625 4.97656C6.98438 4.01562 4.99219 4.01562 3.375 4.97656C1.73438 5.91406 0.75 7.625 0.75 9.5C0.75 11.3984 1.73438 13.1094 3.375 14.0469C4.99219 15.0078 6.98438 15.0078 8.625 14.0469C10.2422 13.1094 11.25 11.3984 11.25 9.5ZM0 9.5C0 7.36719 1.125 5.39844 3 4.32031C4.85156 3.24219 7.125 3.24219 9 4.32031C10.8516 5.39844 12 7.36719 12 9.5C12 11.6562 10.8516 13.625 9 14.7031C7.125 15.7812 4.85156 15.7812 3 14.7031C1.125 13.625 0 11.6562 0 9.5ZM7.75781 7.34375C7.61719 7.20312 7.38281 7.20312 7.21875 7.34375L6.72656 7.83594L7.66406 8.77344L8.15625 8.28125C8.32031 8.14062 8.32031 7.88281 8.15625 7.74219L7.75781 7.34375ZM4.26562 10.2969C4.21875 10.3438 4.19531 10.4141 4.17188 10.4844L3.89062 11.6328L5.03906 11.3281C5.08594 11.3281 5.15625 11.2812 5.20312 11.2344L7.125 9.3125L6.1875 8.375L4.26562 10.2969ZM6.70312 6.80469C7.14844 6.35938 7.85156 6.35938 8.29688 6.80469L8.69531 7.22656C9.14062 7.64844 9.14062 8.375 8.69531 8.79688L5.74219 11.7734C5.57812 11.9141 5.41406 12.0078 5.20312 12.0547L3.44531 12.5C3.32812 12.5234 3.1875 12.5 3.09375 12.4062C3 12.3125 2.97656 12.1719 3 12.0547L3.44531 10.2969C3.49219 10.0859 3.58594 9.92188 3.72656 9.75781L6.70312 6.80469Z" fill="black" fill-opacity="0.72"/>
</g>
<defs>
<clipPath id="clip0_2556_10326">
<rect width="12" height="18" fill="white"/>
</clipPath>
</defs>
</svg>
