<svg width="12" height="24" viewBox="0 0 12 24" fill="none" xmlns="http://www.w3.org/2000/svg">
<g id="label-paired / md / arrow-down-to-line-md / regular" clip-path="url(#clip0_2556_15244)">
<path id="icon" d="M0.5 19C0.21875 19 0 18.7812 0 18.5C0 18.25 0.21875 18 0.5 18H11.5C11.75 18 12 18.25 12 18.5C12 18.7812 11.75 19 11.5 19H0.5ZM6.34375 15.875C6.15625 16.0625 5.8125 16.0625 5.625 15.875L1.625 11.875C1.4375 11.6875 1.4375 11.3438 1.625 11.1562C1.8125 10.9688 2.15625 10.9688 2.34375 11.1562L5.5 14.3125V11V5.5C5.5 5.25 5.71875 5 6 5C6.25 5 6.5 5.25 6.5 5.5V11V14.3125L9.625 11.1562C9.8125 10.9688 10.1562 10.9688 10.3438 11.1562C10.5312 11.3438 10.5312 11.6875 10.3438 11.875L6.34375 15.875Z" fill="black" fill-opacity="0.72"/>
</g>
<defs>
<clipPath id="clip0_2556_15244">
<rect width="12" height="24" fill="white"/>
</clipPath>
</defs>
</svg>
