<svg width="9" height="18" viewBox="0 0 9 18" fill="none" xmlns="http://www.w3.org/2000/svg">
<g id="label-paired / caption / file-arrow-down-caption / bold" clip-path="url(#clip0_3431_739)">
<path id="icon" d="M1.125 14C1.125 14.2109 1.28906 14.375 1.5 14.375H7.5C7.6875 14.375 7.875 14.2109 7.875 14V7.25H6C5.57812 7.25 5.25 6.92188 5.25 6.5V4.625H1.5C1.28906 4.625 1.125 4.8125 1.125 5V14ZM1.5 3.5H5.36719C5.76562 3.5 6.14062 3.66406 6.42188 3.94531L8.55469 6.07812C8.83594 6.35938 9 6.73438 9 7.13281V14C9 14.8438 8.32031 15.5 7.5 15.5H1.5C0.65625 15.5 0 14.8438 0 14V5C0 4.17969 0.65625 3.5 1.5 3.5ZM5.0625 8.9375V11.3516L5.78906 10.625C6 10.3906 6.35156 10.3906 6.58594 10.625C6.79688 10.8359 6.79688 11.1875 6.58594 11.3984L4.89844 13.0859C4.66406 13.3203 4.3125 13.3203 4.10156 13.0859L2.41406 11.3984C2.17969 11.1875 2.17969 10.8359 2.41406 10.625C2.625 10.3906 2.97656 10.3906 3.21094 10.625L3.9375 11.3516V8.9375C3.9375 8.63281 4.17188 8.375 4.5 8.375C4.80469 8.375 5.0625 8.63281 5.0625 8.9375Z" fill="black" fill-opacity="0.72"/>
</g>
<defs>
<clipPath id="clip0_3431_739">
<rect width="9" height="18" fill="white"/>
</clipPath>
</defs>
</svg>
