<svg width="8" height="18" viewBox="0 0 8 18" fill="none" xmlns="http://www.w3.org/2000/svg">
<g id="label-paired / caption / sort-up-caption / regular" clip-path="url(#clip0_2556_10218)">
<path id="icon" d="M3.85938 5.07031L1.04688 7.71875C1 7.76562 1 7.78906 1 7.83594C1 7.92969 1.07031 8 1.16406 8H6.8125C6.90625 8 7 7.92969 7 7.83594C7 7.78906 6.97656 7.74219 6.92969 7.71875L4.11719 5.07031C4.09375 5.02344 4.04688 5 4 5C3.92969 5 3.88281 5.02344 3.85938 5.07031ZM3.34375 4.50781C3.50781 4.34375 3.74219 4.25 4 4.25C4.23438 4.25 4.46875 4.34375 4.63281 4.50781L7.44531 7.17969C7.63281 7.34375 7.75 7.60156 7.75 7.83594C7.75 8.35156 7.32812 8.75 6.8125 8.75H1.16406C0.648438 8.75 0.25 8.35156 0.25 7.83594C0.25 7.60156 0.34375 7.34375 0.53125 7.17969L3.34375 4.50781Z" fill="black" fill-opacity="0.72"/>
</g>
<defs>
<clipPath id="clip0_2556_10218">
<rect width="8" height="18" fill="white"/>
</clipPath>
</defs>
</svg>
