<svg width="12" height="18" viewBox="0 0 12 18" fill="none" xmlns="http://www.w3.org/2000/svg">
<g id="label-paired / caption / face-viewfinder-caption / fill" clip-path="url(#clip0_2556_9943)">
<path id="icon" d="M1.3125 3.5H3.1875C3.49219 3.5 3.75 3.75781 3.75 4.0625C3.75 4.39062 3.49219 4.625 3.1875 4.625H1.3125C1.19531 4.625 1.125 4.71875 1.125 4.8125V6.6875C1.125 7.01562 0.867188 7.25 0.5625 7.25C0.234375 7.25 0 7.01562 0 6.6875V4.8125C0 4.10938 0.585938 3.5 1.3125 3.5ZM8.8125 3.5H10.6875C11.3906 3.5 12 4.10938 12 4.8125V6.6875C12 7.01562 11.7422 7.25 11.4375 7.25C11.1094 7.25 10.875 7.01562 10.875 6.6875V4.8125C10.875 4.71875 10.7812 4.625 10.6875 4.625H8.8125C8.48438 4.625 8.25 4.39062 8.25 4.0625C8.25 3.75781 8.48438 3.5 8.8125 3.5ZM1.125 12.3125V14.1875C1.125 14.3047 1.19531 14.375 1.3125 14.375H3.1875C3.49219 14.375 3.75 14.6328 3.75 14.9375C3.75 15.2656 3.49219 15.5 3.1875 15.5H1.3125C0.585938 15.5 0 14.9141 0 14.1875V12.3125C0 12.0078 0.234375 11.75 0.5625 11.75C0.867188 11.75 1.125 12.0078 1.125 12.3125ZM12 12.3125V14.1875C12 14.9141 11.3906 15.5 10.6875 15.5H8.8125C8.48438 15.5 8.25 15.2656 8.25 14.9375C8.25 14.6328 8.48438 14.375 8.8125 14.375H10.6875C10.7812 14.375 10.875 14.3047 10.875 14.1875V12.3125C10.875 12.0078 11.1094 11.75 11.4375 11.75C11.7422 11.75 12 12.0078 12 12.3125ZM2.25 9.5C2.25 8.16406 2.95312 6.94531 4.125 6.26562C5.27344 5.58594 6.70312 5.58594 7.875 6.26562C9.02344 6.94531 9.75 8.16406 9.75 9.5C9.75 10.8594 9.02344 12.0781 7.875 12.7578C6.70312 13.4375 5.27344 13.4375 4.125 12.7578C2.95312 12.0781 2.25 10.8594 2.25 9.5ZM5.25 8.5625C5.25 8.25781 4.99219 8 4.6875 8C4.35938 8 4.125 8.25781 4.125 8.5625C4.125 8.89062 4.35938 9.125 4.6875 9.125C4.99219 9.125 5.25 8.89062 5.25 8.5625ZM7.3125 9.125C7.61719 9.125 7.875 8.89062 7.875 8.5625C7.875 8.25781 7.61719 8 7.3125 8C6.98438 8 6.75 8.25781 6.75 8.5625C6.75 8.89062 6.98438 9.125 7.3125 9.125ZM3.96094 10.3672C3.82031 10.5078 3.82031 10.7422 3.96094 10.9062C4.47656 11.4219 5.20312 11.75 6 11.75C6.79688 11.75 7.5 11.4219 8.01562 10.9062C8.15625 10.7422 8.15625 10.5078 8.01562 10.3672C7.85156 10.2266 7.61719 10.2266 7.47656 10.3672C7.10156 10.7656 6.58594 11 6 11C5.41406 11 4.875 10.7656 4.5 10.3672C4.35938 10.2266 4.125 10.2266 3.96094 10.3672Z" fill="black" fill-opacity="0.72"/>
</g>
<defs>
<clipPath id="clip0_2556_9943">
<rect width="12" height="18" fill="white"/>
</clipPath>
</defs>
</svg>
