<svg width="5" height="30" viewBox="0 0 5 30" fill="none" xmlns="http://www.w3.org/2000/svg">
<g id="label-paired / lg / ellipsis-vertical-lg / fill" clip-path="url(#clip0_2556_17508)">
<path id="icon" d="M2.5 19.5625C3.28125 19.5625 3.98438 19.9922 4.375 20.6562C4.76562 21.3594 4.76562 22.1797 4.375 22.8438C3.98438 23.5469 3.28125 23.9375 2.5 23.9375C1.67969 23.9375 0.976562 23.5469 0.585938 22.8438C0.195312 22.1797 0.195312 21.3594 0.585938 20.6562C0.976562 19.9922 1.67969 19.5625 2.5 19.5625ZM2.5 13.3125C3.28125 13.3125 3.98438 13.7422 4.375 14.4062C4.76562 15.1094 4.76562 15.9297 4.375 16.5938C3.98438 17.2969 3.28125 17.6875 2.5 17.6875C1.67969 17.6875 0.976562 17.2969 0.585938 16.5938C0.195312 15.9297 0.195312 15.1094 0.585938 14.4062C0.976562 13.7422 1.67969 13.3125 2.5 13.3125ZM4.6875 9.25C4.6875 10.0703 4.25781 10.7734 3.59375 11.1641C2.89062 11.5547 2.07031 11.5547 1.40625 11.1641C0.703125 10.7734 0.3125 10.0703 0.3125 9.25C0.3125 8.46875 0.703125 7.76562 1.40625 7.375C2.07031 6.98438 2.89062 6.98438 3.59375 7.375C4.25781 7.76562 4.6875 8.46875 4.6875 9.25Z" fill="black" fill-opacity="0.72"/>
</g>
<defs>
<clipPath id="clip0_2556_17508">
<rect width="5" height="30" fill="white"/>
</clipPath>
</defs>
</svg>
