<svg width="24" height="36" viewBox="0 0 24 36" fill="none" xmlns="http://www.w3.org/2000/svg">
<g id="label-paired / xl / objects-align-left-xl / regular" clip-path="url(#clip0_3431_1045)">
<path id="icon" d="M0 6.75C0 6.375 0.328125 6 0.75 6C1.125 6 1.5 6.375 1.5 6.75V29.25C1.5 29.6719 1.125 30 0.75 30C0.328125 30 0 29.6719 0 29.25V6.75ZM7.5 14.25C7.5 14.6719 7.82812 15 8.25 15H21.75C22.125 15 22.5 14.6719 22.5 14.25V11.25C22.5 10.875 22.125 10.5 21.75 10.5H8.25C7.82812 10.5 7.5 10.875 7.5 11.25V14.25ZM6 11.25C6 10.0312 6.98438 9 8.25 9H21.75C22.9688 9 24 10.0312 24 11.25V14.25C24 15.5156 22.9688 16.5 21.75 16.5H8.25C6.98438 16.5 6 15.5156 6 14.25V11.25ZM7.5 24.75C7.5 25.1719 7.82812 25.5 8.25 25.5H15.75C16.125 25.5 16.5 25.1719 16.5 24.75V21.75C16.5 21.375 16.125 21 15.75 21H8.25C7.82812 21 7.5 21.375 7.5 21.75V24.75ZM6 21.75C6 20.5312 6.98438 19.5 8.25 19.5H15.75C16.9688 19.5 18 20.5312 18 21.75V24.75C18 26.0156 16.9688 27 15.75 27H8.25C6.98438 27 6 26.0156 6 24.75V21.75Z" fill="black" fill-opacity="0.72"/>
</g>
<defs>
<clipPath id="clip0_3431_1045">
<rect width="24" height="36" fill="white"/>
</clipPath>
</defs>
</svg>
