<svg width="27" height="36" viewBox="0 0 27 36" fill="none" xmlns="http://www.w3.org/2000/svg">
<g id="label-paired / xl / eye-xl / bold" clip-path="url(#clip0_2556_19844)">
<path id="icon" d="M13.5 9.75C10.4062 9.75 7.92188 11.1562 6 12.9375C4.17188 14.625 2.95312 16.5938 2.29688 18C2.95312 19.4062 4.17188 21.4219 6 23.1094C7.92188 24.8906 10.4062 26.25 13.5 26.25C16.5469 26.25 19.0312 24.8906 20.9531 23.1094C22.7812 21.4219 24.0469 19.4062 24.6562 18C24.0469 16.5938 22.7812 14.625 21 12.9375C19.0312 11.1562 16.5469 9.75 13.5 9.75ZM4.45312 11.2969C6.65625 9.23438 9.70312 7.5 13.5 7.5C17.25 7.5 20.2969 9.23438 22.5 11.2969C24.7031 13.3594 26.1562 15.75 26.8594 17.4375C27 17.8125 27 18.2344 26.8594 18.6094C26.1562 20.25 24.7031 22.6875 22.5 24.75C20.2969 26.8125 17.25 28.5 13.5 28.5C9.70312 28.5 6.65625 26.8125 4.45312 24.75C2.25 22.6875 0.796875 20.25 0.09375 18.6094C-0.046875 18.2344 -0.046875 17.8125 0.09375 17.4375C0.796875 15.75 2.25 13.3125 4.45312 11.2969ZM13.5 21.75C15.5625 21.75 17.25 20.1094 17.25 18C17.25 15.9375 15.5625 14.25 13.5 14.25C13.4531 14.25 13.4062 14.25 13.4062 14.25C13.4531 14.5312 13.5 14.7656 13.5 15C13.5 16.6875 12.1406 18 10.5 18C10.2188 18 9.98438 18 9.75 17.9062C9.75 17.9531 9.75 18 9.75 18C9.75 20.1094 11.3906 21.75 13.5 21.75ZM13.5 12C15.6094 12 17.5781 13.1719 18.6562 15C19.7344 16.875 19.7344 19.1719 18.6562 21C17.5781 22.875 15.6094 24 13.5 24C11.3438 24 9.375 22.875 8.29688 21C7.21875 19.1719 7.21875 16.875 8.29688 15C9.375 13.1719 11.3438 12 13.5 12Z" fill="black" fill-opacity="0.72"/>
</g>
<defs>
<clipPath id="clip0_2556_19844">
<rect width="27" height="36" fill="white"/>
</clipPath>
</defs>
</svg>
