<svg width="23" height="30" viewBox="0 0 23 30" fill="none" xmlns="http://www.w3.org/2000/svg">
<g id="label-paired / lg / rectangle-ad-lg / regular" clip-path="url(#clip0_2556_17651)">
<path id="icon" d="M2.75 8C2.04688 8 1.5 8.58594 1.5 9.25V21.75C1.5 22.4531 2.04688 23 2.75 23H20.25C20.9141 23 21.5 22.4531 21.5 21.75V9.25C21.5 8.58594 20.9141 8 20.25 8H2.75ZM0.25 9.25C0.25 7.88281 1.34375 6.75 2.75 6.75H20.25C21.6172 6.75 22.75 7.88281 22.75 9.25V21.75C22.75 23.1562 21.6172 24.25 20.25 24.25H2.75C1.34375 24.25 0.25 23.1562 0.25 21.75V9.25ZM8.60938 12.1406L11.4219 18.3906C11.5781 18.7031 11.4219 19.0547 11.1094 19.2109C10.7969 19.3672 10.4453 19.2109 10.2891 18.8984L9.89844 18H6.1875L5.79688 18.8984C5.64062 19.2109 5.28906 19.3672 4.97656 19.2109C4.66406 19.0547 4.50781 18.7031 4.66406 18.3906L7.47656 12.1406C7.55469 11.9062 7.78906 11.75 8.02344 11.75C8.29688 11.75 8.49219 11.9062 8.60938 12.1406ZM8.0625 13.8984L6.77344 16.75H9.3125L8.0625 13.8984ZM14.9375 14.875C14.3516 14.875 13.8438 15.1875 13.5703 15.6562C13.2969 16.1641 13.2969 16.75 13.5703 17.2188C13.8438 17.7266 14.3516 18 14.9375 18C15.4844 18 15.9922 17.7266 16.2656 17.2188C16.5391 16.75 16.5391 16.1641 16.2656 15.6562C15.9922 15.1875 15.4844 14.875 14.9375 14.875ZM16.5 14.1328V12.375C16.5 12.0625 16.7734 11.75 17.125 11.75C17.4375 11.75 17.75 12.0625 17.75 12.375V16.4375V18.625C17.75 18.9766 17.4375 19.25 17.125 19.25C16.8125 19.25 16.5781 19.0547 16.5 18.7812C16.0312 19.0938 15.5234 19.25 14.9375 19.25C13.375 19.25 12.125 18 12.125 16.4375C12.125 14.9141 13.375 13.625 14.9375 13.625C15.4844 13.625 16.0312 13.8203 16.5 14.1328Z" fill="black" fill-opacity="0.72"/>
</g>
<defs>
<clipPath id="clip0_2556_17651">
<rect width="23" height="30" fill="white"/>
</clipPath>
</defs>
</svg>
