<svg width="18" height="30" viewBox="0 0 18 30" fill="none" xmlns="http://www.w3.org/2000/svg">
<g id="label-paired / lg / paperclip-lg / fill" clip-path="url(#clip0_2981_826)">
<path id="icon" d="M14.4688 8.78125C13.4922 7.84375 11.9688 7.84375 10.9922 8.78125L3.80469 15.9688C2.16406 17.6094 2.16406 20.3047 3.80469 21.9453C5.44531 23.5859 8.14062 23.5859 9.78125 21.9453L15.7188 16.0078C16.1484 15.5781 16.8125 15.5781 17.2422 16.0078C17.6719 16.4375 17.6719 17.1016 17.2422 17.5312L11.3047 23.4688C8.80469 25.9688 4.78125 25.9688 2.28125 23.4688C-0.21875 20.9688 -0.21875 16.9453 2.28125 14.4453L9.46875 7.25781C11.2656 5.42188 14.1953 5.42188 15.9922 7.25781C17.8281 9.05469 17.8281 11.9844 15.9922 13.7812L9.11719 20.6562C8.02344 21.7891 6.1875 21.7891 5.09375 20.6562C3.96094 19.5625 3.96094 17.7266 5.09375 16.6328L10.7188 11.0078C11.1484 10.5781 11.8125 10.5781 12.2422 11.0078C12.6719 11.4375 12.6719 12.1016 12.2422 12.5312L6.61719 18.1562C6.38281 18.4297 6.38281 18.8594 6.61719 19.1328C6.89062 19.3672 7.32031 19.3672 7.59375 19.1328L14.4688 12.2578C15.4062 11.2812 15.4062 9.75781 14.4688 8.78125Z" fill="black" fill-opacity="0.72"/>
</g>
<defs>
<clipPath id="clip0_2981_826">
<rect width="18" height="30" fill="white"/>
</clipPath>
</defs>
</svg>
