<svg width="15" height="30" viewBox="0 0 15 30" fill="none" xmlns="http://www.w3.org/2000/svg">
<g id="label-paired / lg / file-arrow-down-lg / regular" clip-path="url(#clip0_3431_912)">
<path id="icon" d="M12.5 24.25C13.1641 24.25 13.75 23.7031 13.75 23V13H9.375C8.32031 13 7.5 12.1797 7.5 11.125V6.75H2.5C1.79688 6.75 1.25 7.33594 1.25 8V23C1.25 23.7031 1.79688 24.25 2.5 24.25H12.5ZM9.375 11.75H13.7109C13.6719 11.6719 13.6328 11.5547 13.5547 11.4766L9.02344 6.94531C8.94531 6.86719 8.82812 6.82812 8.75 6.78906V11.125C8.75 11.4766 9.02344 11.75 9.375 11.75ZM2.5 5.5H8.59375C9.0625 5.5 9.57031 5.73438 9.92188 6.08594L14.4141 10.5781C14.7656 10.9297 15 11.4375 15 11.9062V23C15 24.4062 13.8672 25.5 12.5 25.5H2.5C1.09375 25.5 0 24.4062 0 23V8C0 6.63281 1.09375 5.5 2.5 5.5ZM8.125 14.875V19.6406L10.1562 17.5703C10.3906 17.3359 10.8203 17.3359 11.0547 17.5703C11.2891 17.8047 11.2891 18.2344 11.0547 18.4688L7.92969 21.5938C7.69531 21.8281 7.26562 21.8281 7.03125 21.5938L3.90625 18.4688C3.67188 18.2344 3.67188 17.8047 3.90625 17.5703C4.14062 17.3359 4.57031 17.3359 4.80469 17.5703L6.875 19.6406V14.875C6.875 14.5625 7.14844 14.25 7.5 14.25C7.8125 14.25 8.125 14.5625 8.125 14.875Z" fill="black" fill-opacity="0.72"/>
</g>
<defs>
<clipPath id="clip0_3431_912">
<rect width="15" height="30" fill="white"/>
</clipPath>
</defs>
</svg>
