<svg width="27" height="36" viewBox="0 0 27 36" fill="none" xmlns="http://www.w3.org/2000/svg">
<g id="label-paired / xl / mobile-notch-rotate-xl / bold" clip-path="url(#clip0_2512_1254)">
<path id="icon" d="M0.75 9.75C0.75 7.6875 2.39062 6 4.5 6H13.5C15.5625 6 17.25 7.6875 17.25 9.75V15.5625C17.0156 15.6562 16.7812 15.7969 16.5469 15.8906C16.1719 15.4219 15.6094 15.1406 15 15.0469V9.75C15 8.95312 14.2969 8.25 13.5 8.25H12V9C12 9.42188 11.625 9.75 11.25 9.75H6.75C6.32812 9.75 6 9.42188 6 9V8.25H4.5C3.65625 8.25 3 8.95312 3 9.75V26.25C3 27.0938 3.65625 27.75 4.5 27.75H13.3125C13.7812 28.5 14.3906 29.1562 15.0469 29.6719C14.5781 29.9062 14.0156 30 13.5 30H4.5C2.39062 30 0.75 28.3594 0.75 26.25V9.75ZM13.5 17.625C13.5 17.0156 13.9688 16.5 14.625 16.5C15.2344 16.5 15.75 17.0156 15.75 17.625V18.2344C16.9219 17.1562 18.5156 16.5 20.25 16.5C23.0156 16.5 25.3594 18.1875 26.4375 20.5781C26.6719 21.1406 26.3906 21.7969 25.8281 22.0312C25.2656 22.3125 24.6094 22.0312 24.375 21.4688C23.6719 19.875 22.0781 18.75 20.25 18.75C18.8906 18.75 17.7188 19.3594 16.875 20.25H18.375C18.9844 20.25 19.5 20.7656 19.5 21.375C19.5 22.0312 18.9844 22.5 18.375 22.5H14.625C13.9688 22.5 13.5 22.0312 13.5 21.375V17.625ZM14.0625 25.9688C13.7812 25.4062 14.0625 24.75 14.625 24.4688C15.1875 24.2344 15.8438 24.5156 16.125 25.0781C16.7812 26.6719 18.375 27.75 20.25 27.75C21.5625 27.75 22.7812 27.1875 23.5781 26.25H22.125C21.4688 26.25 21 25.7812 21 25.125C21 24.5156 21.4688 24 22.125 24H25.875C26.4844 24 27 24.5156 27 25.125V28.875C27 29.5312 26.4844 30 25.875 30C25.2188 30 24.75 29.5312 24.75 28.875V28.3125C23.5312 29.3906 21.9375 30 20.25 30C17.4375 30 15.0938 28.3594 14.0625 25.9688Z" fill="black" fill-opacity="0.72"/>
</g>
<defs>
<clipPath id="clip0_2512_1254">
<rect width="27" height="36" fill="white"/>
</clipPath>
</defs>
</svg>
