<svg width="11" height="22" viewBox="0 0 11 22" fill="none" xmlns="http://www.w3.org/2000/svg">
<g id="label-paired / sm / file-arrow-down-sm / bold" clip-path="url(#clip0_3431_816)">
<path id="icon" d="M1.5625 16C1.5625 16.2461 1.75391 16.4375 2 16.4375H9C9.21875 16.4375 9.4375 16.2461 9.4375 16V8.125H7.25C6.75781 8.125 6.375 7.74219 6.375 7.25V5.0625H2C1.75391 5.0625 1.5625 5.28125 1.5625 5.5V16ZM2 3.75H6.51172C6.97656 3.75 7.41406 3.94141 7.74219 4.26953L10.2305 6.75781C10.5586 7.08594 10.75 7.52344 10.75 7.98828V16C10.75 16.9844 9.95703 17.75 9 17.75H2C1.01562 17.75 0.25 16.9844 0.25 16V5.5C0.25 4.54297 1.01562 3.75 2 3.75ZM6.15625 10.0938V12.9102L7.00391 12.0625C7.25 11.7891 7.66016 11.7891 7.93359 12.0625C8.17969 12.3086 8.17969 12.7188 7.93359 12.9648L5.96484 14.9336C5.69141 15.207 5.28125 15.207 5.03516 14.9336L3.06641 12.9648C2.79297 12.7188 2.79297 12.3086 3.06641 12.0625C3.3125 11.7891 3.72266 11.7891 3.99609 12.0625L4.84375 12.9102V10.0938C4.84375 9.73828 5.11719 9.4375 5.5 9.4375C5.85547 9.4375 6.15625 9.73828 6.15625 10.0938Z" fill="black" fill-opacity="0.72"/>
</g>
<defs>
<clipPath id="clip0_3431_816">
<rect width="11" height="22" fill="white"/>
</clipPath>
</defs>
</svg>
