<svg width="15" height="18" viewBox="0 0 15 18" fill="none" xmlns="http://www.w3.org/2000/svg">
<g id="label-paired / caption / laptop-mobile-caption / bold" clip-path="url(#clip0_2556_10091)">
<path id="icon" d="M3 4.625C2.78906 4.625 2.625 4.8125 2.625 5V11H8.25V12.5H1.125C0.492188 12.5 0 12.0078 0 11.375C0 11.1875 0.164062 11 0.375 11H1.5V5C1.5 4.17969 2.15625 3.5 3 3.5H10.5C11.3203 3.5 12 4.17969 12 5V5.75H10.875V5C10.875 4.8125 10.6875 4.625 10.5 4.625H3ZM9 7.625C9 7.01562 9.49219 6.5 10.125 6.5H13.875C14.4844 6.5 15 7.01562 15 7.625V14.375C15 15.0078 14.4844 15.5 13.875 15.5H10.125C9.49219 15.5 9 15.0078 9 14.375V7.625ZM10.125 7.625V14.375H13.875V7.625H10.125Z" fill="black" fill-opacity="0.72"/>
</g>
<defs>
<clipPath id="clip0_2556_10091">
<rect width="15" height="18" fill="white"/>
</clipPath>
</defs>
</svg>
