<svg width="30" height="36" viewBox="0 0 30 36" fill="none" xmlns="http://www.w3.org/2000/svg">
<g id="label-paired / xl / circle-user-slash-xl / fill" clip-path="url(#clip0_2556_19344)">
<path id="icon" d="M0.234375 6.46875C0.609375 5.95312 1.3125 5.85938 1.78125 6.28125L6.28125 9.75C7.03125 8.95312 7.96875 8.20312 9 7.64062C12.7031 5.48438 17.25 5.48438 21 7.64062C24.7031 9.75 27 13.7344 27 18C27 20.3438 26.2969 22.5938 25.0781 24.5156L29.5312 28.0312C30.0469 28.4062 30.1406 29.1094 29.7188 29.5781C29.3438 30.0938 28.6406 30.1875 28.1719 29.7656L0.421875 8.01562C-0.09375 7.64062 -0.1875 6.9375 0.234375 6.46875ZM3 18C3 16.4531 3.28125 14.9531 3.84375 13.5469L13.3125 21.0469C11.1562 21.0938 9.28125 22.2656 8.25 24.0469C9.9375 25.875 12.3281 27 14.9531 27C16.5938 27 18.0938 26.5781 19.4062 25.8281L21.9375 27.7969C21.6094 28.0312 21.2812 28.2188 20.9531 28.4062C17.25 30.5625 12.7031 30.5625 8.95312 28.4062C5.25 26.25 3 22.3125 3 18ZM11.8594 14.1562L16.9688 18.1406C17.3438 17.8594 17.6719 17.4844 17.9062 17.0625C18.5156 16.0312 18.5156 14.7656 17.9062 13.6875C17.2969 12.6562 16.1719 12 14.9531 12C13.7812 12 12.6562 12.6562 12.0469 13.6875C11.9531 13.8281 11.9062 13.9688 11.8594 14.1562Z" fill="black" fill-opacity="0.72"/>
</g>
<defs>
<clipPath id="clip0_2556_19344">
<rect width="30" height="36" fill="white"/>
</clipPath>
</defs>
</svg>
