<svg width="16" height="22" viewBox="0 0 16 22" fill="none" xmlns="http://www.w3.org/2000/svg">
<g id="label-paired / sm / arrow-down-one-nine-sm / bold" clip-path="url(#clip0_2556_12679)">
<path id="icon" d="M12.5938 5.28125V7.25V8.5625H13.25C13.6055 8.5625 13.9062 8.86328 13.9062 9.21875C13.9062 9.60156 13.6055 9.875 13.25 9.875H11.9375H10.625C10.2422 9.875 9.96875 9.60156 9.96875 9.21875C9.96875 8.86328 10.2422 8.5625 10.625 8.5625H11.2812V7.25V6.21094L10.8164 6.34766C10.4883 6.45703 10.1055 6.29297 9.99609 5.9375C9.88672 5.58203 10.0508 5.22656 10.4062 5.11719L11.7188 4.67969C11.9102 4.59766 12.1289 4.625 12.3203 4.76172C12.4844 4.87109 12.5938 5.08984 12.5938 5.28125ZM4.03516 16.6836L1.41016 14.0586C1.13672 13.8125 1.13672 13.4023 1.41016 13.1289C1.65625 12.8828 2.06641 12.8828 2.33984 13.1289L3.84375 14.6602V5.28125C3.84375 4.92578 4.11719 4.625 4.5 4.625C4.85547 4.625 5.15625 4.92578 5.15625 5.28125V14.6602L6.66016 13.1562C6.90625 12.8828 7.31641 12.8828 7.5625 13.1562C7.83594 13.4023 7.83594 13.8125 7.5625 14.0586L4.9375 16.6836C4.69141 16.957 4.28125 16.957 4.03516 16.6836ZM11.7188 14.25C12.1016 14.25 12.457 14.0586 12.6484 13.7031C12.8398 13.375 12.8398 12.9648 12.6484 12.6094C12.457 12.2812 12.1016 12.0625 11.7188 12.0625C11.3086 12.0625 10.9531 12.2812 10.7617 12.6094C10.5703 12.9648 10.5703 13.375 10.7617 13.7031C10.9531 14.0586 11.3086 14.25 11.7188 14.25ZM11.2266 15.5352C10.1328 15.2891 9.3125 14.332 9.3125 13.1562C9.3125 11.8438 10.3789 10.75 11.7188 10.75C13.0312 10.75 14.125 11.8438 14.125 13.1562C14.125 13.7578 13.9062 14.3047 13.5508 14.7422L11.9922 16.6562C11.7734 16.9297 11.3633 16.957 11.0625 16.7383C10.7891 16.5195 10.7617 16.1094 10.9805 15.8086L11.2266 15.5352Z" fill="black" fill-opacity="0.72"/>
</g>
<defs>
<clipPath id="clip0_2556_12679">
<rect width="16" height="22" fill="white"/>
</clipPath>
</defs>
</svg>
