<svg width="20" height="30" viewBox="0 0 20 30" fill="none" xmlns="http://www.w3.org/2000/svg">
<g id="label-paired / lg / file-csv-lg / bold" clip-path="url(#clip0_2556_17039)">
<path id="icon" d="M2.5 23.625H3.75V25.5H2.5C1.09375 25.5 0 24.4062 0 23V8C0 6.63281 1.09375 5.5 2.5 5.5H8.94531C9.60938 5.5 10.2344 5.77344 10.7031 6.24219L14.2578 9.79688C14.7266 10.2656 15 10.8906 15 11.5547V16.75H13.125V11.75H10C9.29688 11.75 8.75 11.2031 8.75 10.5V7.375H2.5C2.14844 7.375 1.875 7.6875 1.875 8V23C1.875 23.3516 2.14844 23.625 2.5 23.625ZM7.8125 19.25H8.4375C9.29688 19.25 10 19.9531 10 20.8125V21.125C10 21.4766 9.6875 21.75 9.375 21.75C9.02344 21.75 8.75 21.4766 8.75 21.125V20.8125C8.75 20.6562 8.59375 20.5 8.4375 20.5H7.8125C7.61719 20.5 7.5 20.6562 7.5 20.8125V23.9375C7.5 24.1328 7.61719 24.25 7.8125 24.25H8.4375C8.59375 24.25 8.75 24.1328 8.75 23.9375V23.625C8.75 23.3125 9.02344 23 9.375 23C9.6875 23 10 23.3125 10 23.625V23.9375C10 24.8359 9.29688 25.5 8.4375 25.5H7.8125C6.91406 25.5 6.25 24.8359 6.25 23.9375V20.8125C6.25 19.9531 6.91406 19.25 7.8125 19.25ZM13.0078 19.25H14.375C14.6875 19.25 15 19.5625 15 19.875C15 20.2266 14.6875 20.5 14.375 20.5H13.0078C12.6953 20.5 12.5 20.7344 12.5 21.0469C12.5 21.2422 12.6172 21.3984 12.7734 21.5156L14.2578 22.1406C14.8828 22.4141 15.3125 23.0781 15.3125 23.7422C15.3125 24.7188 14.4922 25.5 13.5156 25.5H11.875C11.5234 25.5 11.25 25.2266 11.25 24.875C11.25 24.5625 11.5234 24.25 11.875 24.25H13.5156C13.8281 24.25 14.0625 24.0547 14.0625 23.7422C14.0625 23.5469 13.9453 23.3516 13.75 23.2734L12.2656 22.6484C11.6406 22.375 11.25 21.7109 11.25 21.0469C11.25 20.0703 12.0312 19.25 13.0078 19.25ZM16.875 19.25C17.1875 19.25 17.5 19.5625 17.5 19.875V21.125C17.5 22.0234 17.6953 22.9219 18.125 23.7031C18.5156 22.9219 18.75 22.0234 18.75 21.125V19.875C18.75 19.5625 19.0234 19.25 19.375 19.25C19.6875 19.25 20 19.5625 20 19.875V21.125C20 22.4922 19.5703 23.8203 18.8281 24.9531L18.6328 25.2266C18.5156 25.4219 18.3203 25.5 18.125 25.5C17.8906 25.5 17.6953 25.4219 17.5781 25.2266L17.3828 24.9531C16.6406 23.8203 16.25 22.4922 16.25 21.125V19.875C16.25 19.5625 16.5234 19.25 16.875 19.25Z" fill="black" fill-opacity="0.72"/>
</g>
<defs>
<clipPath id="clip0_2556_17039">
<rect width="20" height="30" fill="white"/>
</clipPath>
</defs>
</svg>
