<svg width="6" height="24" viewBox="0 0 6 24" fill="none" xmlns="http://www.w3.org/2000/svg">
<g id="label-paired / md / info-md / fill" clip-path="url(#clip0_2556_14677)">
<path id="icon" d="M1.5 6.5C1.5 5.96875 1.78125 5.5 2.25 5.21875C2.6875 4.9375 3.28125 4.9375 3.75 5.21875C4.1875 5.5 4.5 5.96875 4.5 6.5C4.5 7.0625 4.1875 7.53125 3.75 7.8125C3.28125 8.09375 2.6875 8.09375 2.25 7.8125C1.78125 7.53125 1.5 7.0625 1.5 6.5ZM0 11C0 10.4688 0.4375 10 1 10H3C3.53125 10 4 10.4688 4 11V18H5C5.53125 18 6 18.4688 6 19C6 19.5625 5.53125 20 5 20H1C0.4375 20 0 19.5625 0 19C0 18.4688 0.4375 18 1 18H2V12H1C0.4375 12 0 11.5625 0 11Z" fill="black" fill-opacity="0.72"/>
</g>
<defs>
<clipPath id="clip0_2556_14677">
<rect width="6" height="24" fill="white"/>
</clipPath>
</defs>
</svg>
