<svg width="20" height="24" viewBox="0 0 20 24" fill="none" xmlns="http://www.w3.org/2000/svg">
<g id="label-paired / md / wifi-md / bold" clip-path="url(#clip0_2556_14921)">
<path id="icon" d="M1.21875 9.8125C0.90625 10.0938 0.4375 10.0625 0.1875 9.75C-0.09375 9.4375 -0.0625 8.96875 0.25 8.6875C2.84375 6.40625 6.25 5 10 5C13.7188 5 17.125 6.40625 19.7188 8.6875C20.0312 8.96875 20.0625 9.4375 19.8125 9.75C19.5312 10.0625 19.0625 10.0938 18.75 9.8125C16.4062 7.75 13.3438 6.5 10 6.5C6.625 6.5 3.5625 7.75 1.21875 9.8125ZM10 12C7.96875 12 6.125 12.7812 4.75 14.0625C4.4375 14.3438 3.96875 14.3125 3.6875 14C3.40625 13.6875 3.4375 13.2188 3.71875 12.9375C5.375 11.4375 7.5625 10.5 10 10.5C12.4062 10.5 14.5938 11.4375 16.25 12.9375C16.5312 13.2188 16.5625 13.6875 16.2812 14C16 14.3125 15.5312 14.3438 15.2188 14.0625C13.8438 12.7812 12 12 10 12ZM11.75 17.25C11.75 17.9062 11.4062 18.4688 10.875 18.7812C10.3125 19.0938 9.65625 19.0938 9.125 18.7812C8.5625 18.4688 8.25 17.9062 8.25 17.25C8.25 16.625 8.5625 16.0625 9.125 15.75C9.65625 15.4375 10.3125 15.4375 10.875 15.75C11.4062 16.0625 11.75 16.625 11.75 17.25Z" fill="black" fill-opacity="0.72"/>
</g>
<defs>
<clipPath id="clip0_2556_14921">
<rect width="20" height="24" fill="white"/>
</clipPath>
</defs>
</svg>
