<svg width="23" height="30" viewBox="0 0 23 30" fill="none" xmlns="http://www.w3.org/2000/svg">
<g id="label-paired / lg / volume-xmark-lg / regular" clip-path="url(#clip0_3758_596)">
<path id="icon" d="M6.14844 12.8438C6.03125 12.9609 5.875 13 5.75781 13H2.4375C1.89062 13 1.5 13.4297 1.5 13.9375V17.0625C1.5 17.6094 1.89062 18 2.4375 18H5.75781C5.875 18 6.03125 18.0781 6.14844 18.1562L11.5 22.9219V8.11719L6.14844 12.8438ZM11.5781 6.75C12.2031 6.75 12.75 7.29688 12.75 7.92188V23.1172C12.75 23.7422 12.2031 24.25 11.5781 24.25C11.2656 24.25 10.9922 24.1719 10.7969 23.9766L11.2266 23.5078L10.7969 23.9766L5.48438 19.25H2.4375C1.22656 19.25 0.25 18.2734 0.25 17.0625V13.9375C0.25 12.7656 1.22656 11.75 2.4375 11.75H5.48438L10.7969 7.0625C10.9922 6.86719 11.2656 6.75 11.5781 6.75ZM16.3047 11.9453L19 14.6406L21.6562 11.9453C21.8906 11.7109 22.3203 11.7109 22.5547 11.9453C22.7891 12.1797 22.7891 12.6094 22.5547 12.8438L19.8594 15.5L22.5547 18.1953C22.7891 18.4297 22.7891 18.8594 22.5547 19.0938C22.3203 19.3281 21.8906 19.3281 21.6562 19.0938L19 16.3984L16.3047 19.0938C16.0703 19.3281 15.6406 19.3281 15.4062 19.0938C15.1719 18.8594 15.1719 18.4297 15.4062 18.1953L18.1016 15.5L15.4062 12.8438C15.1719 12.6094 15.1719 12.1797 15.4062 11.9453C15.6406 11.7109 16.0703 11.7109 16.3047 11.9453Z" fill="black" fill-opacity="0.72"/>
</g>
<defs>
<clipPath id="clip0_3758_596">
<rect width="23" height="30" fill="white"/>
</clipPath>
</defs>
</svg>
