<svg width="11" height="18" viewBox="0 0 11 18" fill="none" xmlns="http://www.w3.org/2000/svg">
<g id="label-paired / caption / lock-caption / bold" clip-path="url(#clip0_2556_9969)">
<path id="icon" d="M3.625 6.5V8H7.375V6.5C7.375 5.46875 6.53125 4.625 5.5 4.625C4.44531 4.625 3.625 5.46875 3.625 6.5ZM2.5 8V6.5C2.5 4.85938 3.83594 3.5 5.5 3.5C7.14062 3.5 8.5 4.85938 8.5 6.5V8H9.25C10.0703 8 10.75 8.67969 10.75 9.5V14C10.75 14.8438 10.0703 15.5 9.25 15.5H1.75C0.90625 15.5 0.25 14.8438 0.25 14V9.5C0.25 8.67969 0.90625 8 1.75 8H2.5ZM1.375 9.5V14C1.375 14.2109 1.53906 14.375 1.75 14.375H9.25C9.4375 14.375 9.625 14.2109 9.625 14V9.5C9.625 9.3125 9.4375 9.125 9.25 9.125H1.75C1.53906 9.125 1.375 9.3125 1.375 9.5Z" fill="black" fill-opacity="0.72"/>
</g>
<defs>
<clipPath id="clip0_2556_9969">
<rect width="11" height="18" fill="white"/>
</clipPath>
</defs>
</svg>
