<svg width="20" height="30" viewBox="0 0 20 30" fill="none" xmlns="http://www.w3.org/2000/svg">
<g id="label-paired / lg / filter-lg / bold" clip-path="url(#clip0_3758_444)">
<path id="icon" d="M0 8.39062C0 7.49219 0.703125 6.75 1.60156 6.75H18.3594C19.2578 6.75 20 7.49219 20 8.39062C20 8.78125 19.8438 9.13281 19.6094 9.40625L13.125 17.4141V23C13.125 23.7031 12.5391 24.25 11.8359 24.25C11.5625 24.25 11.2891 24.1719 11.0547 23.9766L7.46094 21.125C7.07031 20.8125 6.875 20.3828 6.875 19.9141V17.4141L0.351562 9.40625C0.117188 9.13281 0 8.78125 0 8.39062ZM2.14844 8.625L8.51562 16.4766C8.67188 16.6719 8.75 16.8672 8.75 17.0625V19.7578L11.25 21.75V17.0625C11.25 16.8672 11.2891 16.6719 11.4453 16.4766L17.8516 8.625H2.14844Z" fill="black" fill-opacity="0.72"/>
</g>
<defs>
<clipPath id="clip0_3758_444">
<rect width="20" height="30" fill="white"/>
</clipPath>
</defs>
</svg>
