<svg width="12" height="24" viewBox="0 0 12 24" fill="none" xmlns="http://www.w3.org/2000/svg">
<g id="label-paired / md / file-lines-md / regular" clip-path="url(#clip0_3431_905)">
<path id="icon" d="M10 19C10.5312 19 11 18.5625 11 18V10H7.5C6.65625 10 6 9.34375 6 8.5V5H2C1.4375 5 1 5.46875 1 6V18C1 18.5625 1.4375 19 2 19H10ZM7.5 9H10.9688C10.9375 8.9375 10.9062 8.84375 10.8438 8.78125L7.21875 5.15625C7.15625 5.09375 7.0625 5.0625 7 5.03125V8.5C7 8.78125 7.21875 9 7.5 9ZM2 4H6.875C7.25 4 7.65625 4.1875 7.9375 4.46875L11.5312 8.0625C11.8125 8.34375 12 8.75 12 9.125V18C12 19.125 11.0938 20 10 20H2C0.875 20 0 19.125 0 18V6C0 4.90625 0.875 4 2 4ZM3.5 12H8.5C8.75 12 9 12.25 9 12.5C9 12.7812 8.75 13 8.5 13H3.5C3.21875 13 3 12.7812 3 12.5C3 12.25 3.21875 12 3.5 12ZM3.5 14H8.5C8.75 14 9 14.25 9 14.5C9 14.7812 8.75 15 8.5 15H3.5C3.21875 15 3 14.7812 3 14.5C3 14.25 3.21875 14 3.5 14ZM3.5 16H8.5C8.75 16 9 16.25 9 16.5C9 16.7812 8.75 17 8.5 17H3.5C3.21875 17 3 16.7812 3 16.5C3 16.25 3.21875 16 3.5 16Z" fill="black" fill-opacity="0.72"/>
</g>
<defs>
<clipPath id="clip0_3431_905">
<rect width="12" height="24" fill="white"/>
</clipPath>
</defs>
</svg>
