<svg width="21" height="36" viewBox="0 0 21 36" fill="none" xmlns="http://www.w3.org/2000/svg">
<g id="label-paired / xl / user-xl / fill" clip-path="url(#clip0_2556_19269)">
<path id="icon" d="M10.5 18C8.34375 18 6.375 16.875 5.29688 15C4.21875 13.1719 4.21875 10.875 5.29688 9C6.375 7.17188 8.34375 6 10.5 6C12.6094 6 14.5781 7.17188 15.6562 9C16.7344 10.875 16.7344 13.1719 15.6562 15C14.5781 16.875 12.6094 18 10.5 18ZM8.34375 20.25H12.6094C17.25 20.25 21 24 21 28.6406C21 29.3906 20.3438 30 19.5938 30H1.35938C0.609375 30 0 29.3906 0 28.6406C0 24 3.70312 20.25 8.34375 20.25Z" fill="black" fill-opacity="0.72"/>
</g>
<defs>
<clipPath id="clip0_2556_19269">
<rect width="21" height="36" fill="white"/>
</clipPath>
</defs>
</svg>
