<svg width="8" height="24" viewBox="0 0 8 24" fill="none" xmlns="http://www.w3.org/2000/svg">
<g id="label-paired / md / grip-dots-vertical-md / regular" clip-path="url(#clip0_2556_15281)">
<path id="icon" d="M2 7C2 6.75 1.75 6.5 1.5 6.5C1.21875 6.5 1 6.75 1 7C1 7.28125 1.21875 7.5 1.5 7.5C1.75 7.5 2 7.28125 2 7ZM0 7C0 6.46875 0.28125 6 0.75 5.71875C1.1875 5.4375 1.78125 5.4375 2.25 5.71875C2.6875 6 3 6.46875 3 7C3 7.5625 2.6875 8.03125 2.25 8.3125C1.78125 8.59375 1.1875 8.59375 0.75 8.3125C0.28125 8.03125 0 7.5625 0 7ZM2 12C2 11.75 1.75 11.5 1.5 11.5C1.21875 11.5 1 11.75 1 12C1 12.2812 1.21875 12.5 1.5 12.5C1.75 12.5 2 12.2812 2 12ZM0 12C0 11.4688 0.28125 11 0.75 10.7188C1.1875 10.4375 1.78125 10.4375 2.25 10.7188C2.6875 11 3 11.4688 3 12C3 12.5625 2.6875 13.0312 2.25 13.3125C1.78125 13.5938 1.1875 13.5938 0.75 13.3125C0.28125 13.0312 0 12.5625 0 12ZM1.5 17.5C1.75 17.5 2 17.2812 2 17C2 16.75 1.75 16.5 1.5 16.5C1.21875 16.5 1 16.75 1 17C1 17.2812 1.21875 17.5 1.5 17.5ZM1.5 15.5C2.03125 15.5 2.5 15.8125 2.78125 16.25C3.0625 16.7188 3.0625 17.3125 2.78125 17.75C2.5 18.2188 2.03125 18.5 1.5 18.5C0.9375 18.5 0.46875 18.2188 0.1875 17.75C-0.09375 17.3125 -0.09375 16.7188 0.1875 16.25C0.46875 15.8125 0.9375 15.5 1.5 15.5ZM7 7C7 6.75 6.75 6.5 6.5 6.5C6.21875 6.5 6 6.75 6 7C6 7.28125 6.21875 7.5 6.5 7.5C6.75 7.5 7 7.28125 7 7ZM5 7C5 6.46875 5.28125 6 5.75 5.71875C6.1875 5.4375 6.78125 5.4375 7.25 5.71875C7.6875 6 8 6.46875 8 7C8 7.5625 7.6875 8.03125 7.25 8.3125C6.78125 8.59375 6.1875 8.59375 5.75 8.3125C5.28125 8.03125 5 7.5625 5 7ZM6.5 12.5C6.75 12.5 7 12.2812 7 12C7 11.75 6.75 11.5 6.5 11.5C6.21875 11.5 6 11.75 6 12C6 12.2812 6.21875 12.5 6.5 12.5ZM6.5 10.5C7.03125 10.5 7.5 10.8125 7.78125 11.25C8.0625 11.7188 8.0625 12.3125 7.78125 12.75C7.5 13.2188 7.03125 13.5 6.5 13.5C5.9375 13.5 5.46875 13.2188 5.1875 12.75C4.90625 12.3125 4.90625 11.7188 5.1875 11.25C5.46875 10.8125 5.9375 10.5 6.5 10.5ZM7 17C7 16.75 6.75 16.5 6.5 16.5C6.21875 16.5 6 16.75 6 17C6 17.2812 6.21875 17.5 6.5 17.5C6.75 17.5 7 17.2812 7 17ZM5 17C5 16.4688 5.28125 16 5.75 15.7188C6.1875 15.4375 6.78125 15.4375 7.25 15.7188C7.6875 16 8 16.4688 8 17C8 17.5625 7.6875 18.0312 7.25 18.3125C6.78125 18.5938 6.1875 18.5938 5.75 18.3125C5.28125 18.0312 5 17.5625 5 17Z" fill="black" fill-opacity="0.72"/>
</g>
<defs>
<clipPath id="clip0_2556_15281">
<rect width="8" height="24" fill="white"/>
</clipPath>
</defs>
</svg>
