<svg width="11" height="22" viewBox="0 0 11 22" fill="none" xmlns="http://www.w3.org/2000/svg">
<g id="label-paired / sm / arrow-down-to-line-sm / regular" clip-path="url(#clip0_2556_12627)">
<path id="icon" d="M0.6875 16.875C0.441406 16.875 0.25 16.6836 0.25 16.4375C0.25 16.2188 0.441406 16 0.6875 16H10.3125C10.5312 16 10.75 16.2188 10.75 16.4375C10.75 16.6836 10.5312 16.875 10.3125 16.875H0.6875ZM5.80078 14.1406C5.63672 14.3047 5.33594 14.3047 5.17188 14.1406L1.67188 10.6406C1.50781 10.4766 1.50781 10.1758 1.67188 10.0117C1.83594 9.84766 2.13672 9.84766 2.30078 10.0117L5.0625 12.7734V9.875V5.0625C5.0625 4.84375 5.25391 4.625 5.5 4.625C5.71875 4.625 5.9375 4.84375 5.9375 5.0625V9.875V12.7734L8.67188 10.0117C8.83594 9.84766 9.13672 9.84766 9.30078 10.0117C9.46484 10.1758 9.46484 10.4766 9.30078 10.6406L5.80078 14.1406Z" fill="black" fill-opacity="0.72"/>
</g>
<defs>
<clipPath id="clip0_2556_12627">
<rect width="11" height="22" fill="white"/>
</clipPath>
</defs>
</svg>
