<svg width="16" height="24" viewBox="0 0 16 24" fill="none" xmlns="http://www.w3.org/2000/svg">
<g id="label-paired / md / triangle-exclamation-md / fill" clip-path="url(#clip0_2556_14654)">
<path id="icon" d="M8 5C8.4375 5 8.84375 5.25 9.0625 5.625L15.8125 17.125C16.0312 17.5312 16.0312 18 15.8125 18.375C15.5938 18.7812 15.1875 19 14.75 19H1.25C0.78125 19 0.375 18.7812 0.15625 18.375C-0.0625 18 -0.0625 17.5312 0.15625 17.125L6.90625 5.625C7.125 5.25 7.53125 5 8 5ZM8 9C7.5625 9 7.25 9.34375 7.25 9.75V13.25C7.25 13.6875 7.5625 14 8 14C8.40625 14 8.75 13.6875 8.75 13.25V9.75C8.75 9.34375 8.40625 9 8 9ZM9 16C9 15.4688 8.53125 15 8 15C7.4375 15 7 15.4688 7 16C7 16.5625 7.4375 17 8 17C8.53125 17 9 16.5625 9 16Z" fill="black" fill-opacity="0.72"/>
</g>
<defs>
<clipPath id="clip0_2556_14654">
<rect width="16" height="24" fill="white"/>
</clipPath>
</defs>
</svg>
