<svg width="20" height="30" viewBox="0 0 20 30" fill="none" xmlns="http://www.w3.org/2000/svg">
<g id="label-paired / lg / circle-dollar-lg / bold" clip-path="url(#clip0_2556_17171)">
<path id="icon" d="M18.125 15.5C18.125 12.6094 16.5625 9.95312 14.0625 8.46875C11.5234 7.02344 8.4375 7.02344 5.9375 8.46875C3.39844 9.95312 1.875 12.6094 1.875 15.5C1.875 18.4297 3.39844 21.0859 5.9375 22.5703C8.4375 24.0156 11.5234 24.0156 14.0625 22.5703C16.5625 21.0859 18.125 18.4297 18.125 15.5ZM0 15.5C0 11.9453 1.875 8.66406 5 6.86719C8.08594 5.07031 11.875 5.07031 15 6.86719C18.0859 8.66406 20 11.9453 20 15.5C20 19.0938 18.0859 22.375 15 24.1719C11.875 25.9688 8.08594 25.9688 5 24.1719C1.875 22.375 0 19.0938 0 15.5ZM10.7812 10.7344V11.2812C11.1719 11.3203 11.5625 11.4375 11.9141 11.5547C11.9922 11.5547 12.0703 11.5938 12.1484 11.5938C12.5781 11.75 12.8516 12.2188 12.7344 12.6484C12.6172 13.1172 12.1484 13.3516 11.6797 13.2344C11.6406 13.2344 11.5625 13.1953 11.5234 13.1953C11.25 13.1172 10.9766 13.0391 10.7031 13C10.1562 12.8828 9.57031 12.9219 9.10156 13.1562C8.67188 13.3125 8.32031 13.7812 8.78906 14.0938C9.17969 14.3281 9.64844 14.4453 10.0781 14.6016C10.1953 14.6016 10.2734 14.6406 10.3516 14.6406C10.9766 14.8359 11.7578 15.0703 12.3438 15.4609C13.0859 15.9688 13.4375 16.8281 13.2812 17.7266C13.125 18.5859 12.5 19.1719 11.7969 19.4844C11.4844 19.6016 11.1328 19.6797 10.7812 19.7188V20.3047C10.7812 20.7734 10.4297 21.1641 9.96094 21.1641C9.49219 21.1641 9.10156 20.7734 9.10156 20.3047V19.6406C8.55469 19.4844 8.00781 19.3281 7.42188 19.1328C6.99219 18.9766 6.75781 18.5078 6.91406 18.0781C7.07031 17.6094 7.53906 17.375 7.96875 17.5312C8.08594 17.5703 8.16406 17.6094 8.28125 17.6484C8.71094 17.7656 9.14062 17.9219 9.60938 18C10.2734 18.1172 10.8203 18.0391 11.1719 17.9219C11.6406 17.7266 11.8359 17.1406 11.3672 16.8281C10.9766 16.5938 10.5078 16.4375 10.0391 16.3203C9.96094 16.2812 9.84375 16.2812 9.76562 16.2422C9.17969 16.0859 8.4375 15.8516 7.89062 15.5C7.10938 15.0312 6.75781 14.2109 6.91406 13.3125C7.07031 12.4531 7.73438 11.9062 8.4375 11.5938C8.63281 11.4766 8.86719 11.4375 9.10156 11.3594V10.7344C9.10156 10.2656 9.49219 9.875 9.96094 9.875C10.4297 9.875 10.7812 10.2656 10.7812 10.7344Z" fill="black" fill-opacity="0.72"/>
</g>
<defs>
<clipPath id="clip0_2556_17171">
<rect width="20" height="30" fill="white"/>
</clipPath>
</defs>
</svg>
