<svg width="24" height="36" viewBox="0 0 24 36" fill="none" xmlns="http://www.w3.org/2000/svg">
<g id="label-paired / xl / image-xl / fill" clip-path="url(#clip0_2556_19354)">
<path id="icon" d="M0 10.5C0 8.85938 1.3125 7.5 3 7.5H21C22.6406 7.5 24 8.85938 24 10.5V25.5C24 27.1875 22.6406 28.5 21 28.5H3C1.3125 28.5 0 27.1875 0 25.5V10.5ZM15.1406 15.5156C14.9531 15.1875 14.5781 15 14.25 15C13.875 15 13.5 15.1875 13.3125 15.5156L9.23438 21.5156L7.96875 19.9219C7.78125 19.6875 7.45312 19.5 7.125 19.5C6.75 19.5 6.42188 19.6875 6.23438 19.9219L3.23438 23.6719C2.95312 24.0469 2.90625 24.5156 3.09375 24.8906C3.28125 25.2656 3.65625 25.5 4.125 25.5H8.625H10.125H19.875C20.25 25.5 20.6719 25.3125 20.8594 24.9375C21.0469 24.5625 21 24.0938 20.7656 23.7656L15.1406 15.5156ZM5.25 15C6.04688 15 6.75 14.5781 7.17188 13.875C7.59375 13.2188 7.59375 12.3281 7.17188 11.625C6.75 10.9688 6.04688 10.5 5.25 10.5C4.40625 10.5 3.70312 10.9688 3.28125 11.625C2.85938 12.3281 2.85938 13.2188 3.28125 13.875C3.70312 14.5781 4.40625 15 5.25 15Z" fill="black" fill-opacity="0.72"/>
</g>
<defs>
<clipPath id="clip0_2556_19354">
<rect width="24" height="36" fill="white"/>
</clipPath>
</defs>
</svg>
