<svg width="20" height="30" viewBox="0 0 20 30" fill="none" xmlns="http://www.w3.org/2000/svg">
<g id="label-paired / lg / face-viewfinder-lg / bold" clip-path="url(#clip0_2512_1072)">
<path id="icon" d="M0 7.6875C0.0260417 7.0625 0.234375 6.54167 0.625 6.125C1.04167 5.73438 1.5625 5.52604 2.1875 5.5H5.3125C5.88542 5.55208 6.19792 5.86458 6.25 6.4375C6.19792 7.01042 5.88542 7.32292 5.3125 7.375H2.1875C2.00521 7.40104 1.90104 7.50521 1.875 7.6875V10.8125C1.82292 11.3854 1.51042 11.6979 0.9375 11.75C0.364583 11.6979 0.0520833 11.3854 0 10.8125V7.6875ZM13.75 6.4375C13.8021 5.86458 14.1146 5.55208 14.6875 5.5H17.8125C18.4375 5.52604 18.9583 5.73438 19.375 6.125C19.7656 6.54167 19.974 7.0625 20 7.6875V10.8125C19.9479 11.3854 19.6354 11.6979 19.0625 11.75C18.4896 11.6979 18.1771 11.3854 18.125 10.8125V7.6875C18.099 7.50521 17.9948 7.40104 17.8125 7.375H14.6875C14.1146 7.32292 13.8021 7.01042 13.75 6.4375ZM0.9375 19.25C1.51042 19.3021 1.82292 19.6146 1.875 20.1875V23.3125C1.90104 23.4948 2.00521 23.599 2.1875 23.625H5.3125C5.88542 23.6771 6.19792 23.9896 6.25 24.5625C6.19792 25.1354 5.88542 25.4479 5.3125 25.5H2.1875C1.5625 25.474 1.04167 25.2656 0.625 24.875C0.234375 24.4583 0.0260417 23.9375 0 23.3125V20.1875C0.0520833 19.6146 0.364583 19.3021 0.9375 19.25ZM19.0625 19.25C19.6354 19.3021 19.9479 19.6146 20 20.1875V23.3125C19.974 23.9375 19.7656 24.4583 19.375 24.875C18.9583 25.2656 18.4375 25.474 17.8125 25.5H14.6875C14.1146 25.4479 13.8021 25.1354 13.75 24.5625C13.8021 23.9896 14.1146 23.6771 14.6875 23.625H17.8125C17.9948 23.599 18.099 23.4948 18.125 23.3125V20.1875C18.1771 19.6146 18.4896 19.3021 19.0625 19.25ZM9.375 13.9375C9.32292 14.5104 9.01042 14.8229 8.4375 14.875C7.86458 14.8229 7.55208 14.5104 7.5 13.9375C7.55208 13.3646 7.86458 13.0521 8.4375 13C9.01042 13.0521 9.32292 13.3646 9.375 13.9375ZM11.5625 14.875C10.9896 14.8229 10.6771 14.5104 10.625 13.9375C10.6771 13.3646 10.9896 13.0521 11.5625 13C12.1354 13.0521 12.4479 13.3646 12.5 13.9375C12.4479 14.5104 12.1354 14.8229 11.5625 14.875ZM10 11.125C9.21875 11.125 8.48958 11.3203 7.8125 11.7109C7.13542 12.1016 6.60156 12.6354 6.21094 13.3125C5.82031 13.9896 5.625 14.7188 5.625 15.5C5.625 16.2812 5.82031 17.0104 6.21094 17.6875C6.60156 18.3646 7.13542 18.8984 7.8125 19.2891C8.48958 19.6797 9.21875 19.875 10 19.875C10.7812 19.875 11.5104 19.6797 12.1875 19.2891C12.8646 18.8984 13.3984 18.3646 13.7891 17.6875C14.1797 17.0104 14.375 16.2812 14.375 15.5C14.375 14.7188 14.1797 13.9896 13.7891 13.3125C13.3984 12.6354 12.8646 12.1016 12.1875 11.7109C11.5104 11.3203 10.7812 11.125 10 11.125ZM10 21.75C8.88021 21.75 7.83854 21.4766 6.875 20.9297C5.91146 20.3568 5.14323 19.5885 4.57031 18.625C4.02344 17.6354 3.75 16.5938 3.75 15.5C3.75 14.4062 4.02344 13.3646 4.57031 12.375C5.14323 11.4115 5.91146 10.6432 6.875 10.0703C7.83854 9.52344 8.88021 9.25 10 9.25C11.1198 9.25 12.1615 9.52344 13.125 10.0703C14.0885 10.6432 14.8568 11.4115 15.4297 12.375C15.9766 13.3646 16.25 14.4062 16.25 15.5C16.25 16.5938 15.9766 17.6354 15.4297 18.625C14.8568 19.5885 14.0885 20.3568 13.125 20.9297C12.1615 21.4766 11.1198 21.75 10 21.75ZM8.35938 16.4375C8.72396 17.0365 9.27083 17.349 10 17.375C10.7292 17.349 11.276 17.0365 11.6406 16.4375C11.849 16.125 12.1354 16.0469 12.5 16.2031C12.7865 16.4375 12.8516 16.724 12.6953 17.0625C12.1224 18.0521 11.224 18.5729 10 18.625C8.77604 18.5729 7.8776 18.0521 7.30469 17.0625C7.1224 16.724 7.20052 16.4375 7.53906 16.2031C7.8776 16.0469 8.15104 16.125 8.35938 16.4375Z" fill="black" fill-opacity="0.72"/>
</g>
<defs>
<clipPath id="clip0_2512_1072">
<rect width="20" height="30" fill="white"/>
</clipPath>
</defs>
</svg>
