<svg width="14" height="22" viewBox="0 0 14 22" fill="none" xmlns="http://www.w3.org/2000/svg">
<g id="label-paired / sm / reddit-sm" clip-path="url(#clip0_2556_12230)">
<path id="icon" d="M0 10.75C0 6.89453 3.11719 3.75 7 3.75C10.8555 3.75 14 6.89453 14 10.75C14 14.6328 10.8555 17.75 7 17.75H1.01172C0.628906 17.75 0.4375 17.3125 0.710938 17.0391L2.05078 15.6992C0.765625 14.4414 0 12.6914 0 10.75ZM9.54297 7.96094C10.1992 7.96094 10.7188 7.44141 10.7188 6.78516C10.7188 6.15625 10.1992 5.63672 9.54297 5.63672C8.99609 5.63672 8.50391 6.01953 8.39453 6.56641C7.46484 6.64844 6.72656 7.46875 6.72656 8.42578C5.6875 8.48047 4.75781 8.78125 4.01953 9.21875C3.74609 9.02734 3.39062 8.89062 3.00781 8.89062C2.10547 8.89062 1.39453 9.62891 1.39453 10.5312C1.39453 11.1875 1.77734 11.7344 2.32422 12.0078C2.37891 13.8945 4.45703 15.4258 7 15.4258C9.54297 15.4258 11.5938 13.8945 11.6484 12.0078C12.1953 11.7344 12.5781 11.1602 12.5781 10.5312C12.5781 9.62891 11.8672 8.89062 10.9648 8.89062C10.582 8.89062 10.2266 9 9.95312 9.21875C9.21484 8.75391 8.25781 8.48047 7.21875 8.42578C7.21875 7.74219 7.73828 7.14062 8.42188 7.05859C8.53125 7.57812 8.99609 7.96094 9.54297 7.96094ZM4.83984 10.5039C5.27734 10.5039 5.63281 10.9961 5.60547 11.5977C5.57812 12.1719 5.25 12.3906 4.78516 12.3906C4.32031 12.3906 3.91016 12.1445 3.9375 11.5703C3.96484 10.9688 4.375 10.5039 4.83984 10.5039ZM10.0352 11.5703C10.0625 12.1445 9.65234 12.3906 9.1875 12.3906C8.75 12.3906 8.39453 12.1719 8.36719 11.5977C8.33984 10.9961 8.69531 10.5039 9.16016 10.5039C9.59766 10.5039 10.0078 10.9688 10.0352 11.5703ZM8.72266 13.1016C8.42188 13.7852 7.76562 14.25 7 14.25C6.20703 14.25 5.55078 13.7852 5.27734 13.1016C5.22266 13.0195 5.27734 12.9375 5.38672 12.9375C5.87891 12.8828 6.42578 12.8555 7 12.8555C7.54688 12.8555 8.09375 12.8828 8.61328 12.9375C8.69531 12.9375 8.75 13.0195 8.72266 13.1016Z" fill="black" fill-opacity="0.72"/>
</g>
<defs>
<clipPath id="clip0_2556_12230">
<rect width="14" height="22" fill="white"/>
</clipPath>
</defs>
</svg>
