<svg width="16" height="24" viewBox="0 0 16 24" fill="none" xmlns="http://www.w3.org/2000/svg">
<g id="label-paired / md / circle-info-md / bold" clip-path="url(#clip0_2556_15075)">
<path id="icon" d="M8 5.5C5.65625 5.5 3.53125 6.75 2.34375 8.75C1.1875 10.7812 1.1875 13.25 2.34375 15.25C3.53125 17.2812 5.65625 18.5 8 18.5C10.3125 18.5 12.4375 17.2812 13.625 15.25C14.7812 13.25 14.7812 10.7812 13.625 8.75C12.4375 6.75 10.3125 5.5 8 5.5ZM8 20C5.125 20 2.5 18.5 1.0625 16C-0.375 13.5312 -0.375 10.5 1.0625 8C2.5 5.53125 5.125 4 8 4C10.8438 4 13.4688 5.53125 14.9062 8C16.3438 10.5 16.3438 13.5312 14.9062 16C13.4688 18.5 10.8438 20 8 20ZM6.75 14.5H7.5V12.5H6.75C6.3125 12.5 6 12.1875 6 11.75C6 11.3438 6.3125 11 6.75 11H8.25C8.65625 11 9 11.3438 9 11.75V14.5H9.25C9.65625 14.5 10 14.8438 10 15.25C10 15.6875 9.65625 16 9.25 16H6.75C6.3125 16 6 15.6875 6 15.25C6 14.8438 6.3125 14.5 6.75 14.5ZM8 10C7.4375 10 7 9.5625 7 9C7 8.46875 7.4375 8 8 8C8.53125 8 9 8.46875 9 9C9 9.5625 8.53125 10 8 10Z" fill="black" fill-opacity="0.72"/>
</g>
<defs>
<clipPath id="clip0_2556_15075">
<rect width="16" height="24" fill="white"/>
</clipPath>
</defs>
</svg>
