<svg width="12" height="18" viewBox="0 0 12 18" fill="none" xmlns="http://www.w3.org/2000/svg">
<g id="label-paired / caption / circle-question-caption / fill" clip-path="url(#clip0_3578_714)">
<path id="icon" d="M6 15.5C3.84375 15.5 1.875 14.375 0.796875 12.5C-0.28125 10.6484 -0.28125 8.375 0.796875 6.5C1.875 4.64844 3.84375 3.5 6 3.5C8.13281 3.5 10.1016 4.64844 11.1797 6.5C12.2578 8.375 12.2578 10.6484 11.1797 12.5C10.1016 14.375 8.13281 15.5 6 15.5ZM3.96094 7.39062V7.41406C3.86719 7.69531 4.00781 8.02344 4.3125 8.14062C4.59375 8.23438 4.92188 8.09375 5.01562 7.78906L5.03906 7.76562C5.0625 7.69531 5.13281 7.64844 5.20312 7.64844H6.5625C6.77344 7.64844 6.9375 7.78906 6.9375 8C6.9375 8.11719 6.86719 8.23438 6.75 8.30469L5.71875 8.89062C5.53125 8.98438 5.4375 9.17188 5.4375 9.38281V9.6875C5.4375 10.0156 5.67188 10.25 6 10.25C6.30469 10.25 6.53906 10.0156 6.5625 9.71094L7.3125 9.26562C7.75781 9.00781 8.0625 8.51562 8.0625 8C8.0625 7.17969 7.38281 6.5 6.5625 6.5H5.20312C4.64062 6.5 4.14844 6.85156 3.96094 7.39062ZM5.25 11.75C5.25 12.1719 5.57812 12.5 6 12.5C6.39844 12.5 6.75 12.1719 6.75 11.75C6.75 11.3516 6.39844 11 6 11C5.57812 11 5.25 11.3516 5.25 11.75Z" fill="black" fill-opacity="0.72"/>
</g>
<defs>
<clipPath id="clip0_3578_714">
<rect width="12" height="18" fill="white"/>
</clipPath>
</defs>
</svg>
