<svg width="8" height="18" viewBox="0 0 8 18" fill="none" xmlns="http://www.w3.org/2000/svg">
<g id="label-paired / caption / question-caption / bold" clip-path="url(#clip0_3578_635)">
<path id="icon" d="M1.75 7.25C1.75 7.57812 1.49219 7.8125 1.1875 7.8125C0.859375 7.8125 0.625 7.57812 0.625 7.25C0.625 5.60938 1.96094 4.25 3.60156 4.27344H4.35156C6.01562 4.27344 7.35156 5.60938 7.35156 7.27344V7.36719C7.35156 8.30469 6.88281 9.19531 6.10938 9.71094L4.89062 10.5312C4.67969 10.6719 4.5625 10.9062 4.5625 11.1406V11.1875C4.5625 11.5156 4.30469 11.75 4 11.75C3.67188 11.75 3.4375 11.5156 3.4375 11.1875V11.1406C3.4375 10.5312 3.74219 9.94531 4.25781 9.59375L5.47656 8.77344C5.96875 8.46875 6.25 7.92969 6.25 7.36719V7.25C6.25 6.21875 5.40625 5.375 4.375 5.375H3.625C2.57031 5.375 1.75 6.21875 1.75 7.25ZM4 14.75C3.57812 14.75 3.25 14.4219 3.25 14C3.25 13.6016 3.57812 13.25 4 13.25C4.39844 13.25 4.75 13.6016 4.75 14C4.75 14.4219 4.39844 14.75 4 14.75Z" fill="black" fill-opacity="0.72"/>
</g>
<defs>
<clipPath id="clip0_3578_635">
<rect width="8" height="18" fill="white"/>
</clipPath>
</defs>
</svg>
