<svg width="27" height="36" viewBox="0 0 27 36" fill="none" xmlns="http://www.w3.org/2000/svg">
<g id="label-paired / xl / eye-xl / fill" clip-path="url(#clip0_2556_19808)">
<path id="icon" d="M13.5 7.5C17.25 7.5 20.2969 9.23438 22.5 11.2969C24.7031 13.3125 26.1562 15.75 26.8594 17.4375C27 17.8125 27 18.2344 26.8594 18.6094C26.1562 20.25 24.7031 22.6875 22.5 24.75C20.2969 26.8125 17.25 28.5 13.5 28.5C9.70312 28.5 6.65625 26.8125 4.45312 24.75C2.25 22.6875 0.796875 20.25 0.09375 18.6094C-0.046875 18.2344 -0.046875 17.8125 0.09375 17.4375C0.796875 15.75 2.25 13.3125 4.45312 11.2969C6.65625 9.23438 9.70312 7.5 13.5 7.5ZM6.75 18C6.75 20.4375 8.01562 22.6406 10.125 23.8594C12.1875 25.0781 14.7656 25.0781 16.875 23.8594C18.9375 22.6406 20.25 20.4375 20.25 18C20.25 15.6094 18.9375 13.4062 16.875 12.1875C14.7656 10.9688 12.1875 10.9688 10.125 12.1875C8.01562 13.4062 6.75 15.6094 6.75 18ZM13.5 15C13.5 14.6719 13.4062 14.3906 13.3125 14.0625C13.2188 13.8281 13.4062 13.5 13.6875 13.5C15.5625 13.5938 17.2969 14.9062 17.8125 16.875C18.4688 19.2656 17.0625 21.7031 14.625 22.3594C12.2344 23.0156 9.75 21.5625 9.14062 19.1719C9.04688 18.8438 9 18.5156 9 18.2344C8.95312 17.9531 9.28125 17.7656 9.51562 17.8594C9.84375 17.9531 10.125 18 10.5 18C12.1406 18 13.5 16.6875 13.5 15Z" fill="black" fill-opacity="0.72"/>
</g>
<defs>
<clipPath id="clip0_2556_19808">
<rect width="27" height="36" fill="white"/>
</clipPath>
</defs>
</svg>
