<svg width="10" height="24" viewBox="0 0 10 24" fill="none" xmlns="http://www.w3.org/2000/svg">
<g id="label-paired / md / euro-sign-md / bold" clip-path="url(#clip0_2556_14621)">
<path id="icon" d="M1.5 11.5H0.75C0.3125 11.5 0 11.1875 0 10.75C0 10.3438 0.3125 10 0.75 10H1.78125C2.625 7.125 5.3125 5 8.5 5H9.25C9.65625 5 10 5.34375 10 5.75C10 6.1875 9.65625 6.5 9.25 6.5H8.5C6.15625 6.5 4.15625 7.96875 3.375 10H8.25C8.65625 10 9 10.3438 9 10.75C9 11.1875 8.65625 11.5 8.25 11.5H3C3 11.6875 3 11.8438 3 12C3 12.1875 3 12.3438 3 12.5H8.25C8.65625 12.5 9 12.8438 9 13.25C9 13.6875 8.65625 14 8.25 14H3.375C4.15625 16.0625 6.15625 17.5 8.5 17.5H9.25C9.65625 17.5 10 17.8438 10 18.25C10 18.6875 9.65625 19 9.25 19H8.5C5.3125 19 2.625 16.9062 1.78125 14H0.75C0.3125 14 0 13.6875 0 13.25C0 12.8438 0.3125 12.5 0.75 12.5H1.5C1.5 12.3438 1.5 12.1875 1.5 12C1.5 11.8438 1.5 11.6875 1.5 11.5Z" fill="black" fill-opacity="0.72"/>
</g>
<defs>
<clipPath id="clip0_2556_14621">
<rect width="10" height="24" fill="white"/>
</clipPath>
</defs>
</svg>
