<svg width="30" height="36" viewBox="0 0 30 36" fill="none" xmlns="http://www.w3.org/2000/svg">
<g id="label-paired / xl / bell-slash-xl / regular" clip-path="url(#clip0_2556_19477)">
<path id="icon" d="M17.7188 24V24.0469L19.6406 25.5469H6.5625C5.39062 25.5469 4.45312 24.6094 4.45312 23.4375C4.45312 22.9219 4.6875 22.3594 5.0625 21.9844L5.20312 21.8438C6.65625 20.3906 7.5 18.4219 7.5 16.4062V15.9375L8.95312 17.0625C8.76562 19.2656 7.82812 21.3281 6.28125 22.9219L6.14062 23.0156C6.04688 23.1562 6 23.2969 6 23.4375C6 23.7656 6.23438 24 6.5625 24H17.7188ZM14.25 7.54688V6.75C14.25 6.375 14.5781 6 15 6C15.375 6 15.75 6.375 15.75 6.75V7.54688C19.5 7.92188 22.5 11.1094 22.5 15V16.4062C22.5 18.4219 23.2969 20.3906 24.75 21.8438L24.8906 21.9844C24.8906 22.0312 24.9375 22.0312 24.9844 22.0781L21.4688 19.3125C21.1406 18.375 21 17.3906 21 16.4062V15C21 11.7188 18.2812 9 15 9C13.3125 9 11.7656 9.70312 10.6875 10.8281L9.51562 9.89062C10.7344 8.57812 12.375 7.73438 14.25 7.54688ZM13.5469 27.5156C13.7812 28.125 14.3438 28.5 15 28.5C15.6094 28.5 16.1719 28.125 16.4062 27.5156C16.5469 27.1406 16.9688 26.9062 17.3438 27.0469C17.7656 27.1875 17.9531 27.6094 17.8125 28.0312C17.3906 29.2031 16.2656 30 15 30C13.6875 30 12.5625 29.2031 12.1406 28.0312C12 27.6094 12.2344 27.1875 12.6094 27.0469C12.9844 26.9062 13.4062 27.1406 13.5469 27.5156ZM1.17188 6.1875L29.7188 28.6875C30 28.9219 30.0938 29.4375 29.8125 29.7188C29.5781 30.0469 29.1094 30.1406 28.7812 29.8594L0.28125 7.35938C-0.046875 7.125 -0.140625 6.60938 0.140625 6.32812C0.375 6 0.890625 5.90625 1.17188 6.1875Z" fill="black" fill-opacity="0.72"/>
</g>
<defs>
<clipPath id="clip0_2556_19477">
<rect width="30" height="36" fill="white"/>
</clipPath>
</defs>
</svg>
