<svg width="25" height="30" viewBox="0 0 25 30" fill="none" xmlns="http://www.w3.org/2000/svg">
<g id="label-paired / lg / wifi-lg / regular" clip-path="url(#clip0_2556_17120)">
<path id="icon" d="M1.05469 12.7266C0.78125 12.9609 0.390625 12.9609 0.15625 12.7266C-0.078125 12.4531 -0.078125 12.0625 0.15625 11.8281C3.32031 8.70312 7.69531 6.75 12.5 6.75C17.2656 6.75 21.6406 8.70312 24.8047 11.8281C25.0391 12.0625 25.0391 12.4531 24.8047 12.7266C24.5703 12.9609 24.1797 12.9609 23.9062 12.7266C20.9766 9.79688 16.9531 8 12.5 8C8.00781 8 3.98438 9.79688 1.05469 12.7266ZM12.5 14.25C9.72656 14.25 7.22656 15.3828 5.42969 17.1797C5.19531 17.4141 4.80469 17.4141 4.53125 17.1797C4.29688 16.9453 4.29688 16.5547 4.53125 16.3203C6.5625 14.2891 9.375 13.0391 12.5 13.0391C15.5859 13.0391 18.3984 14.2891 20.4297 16.3203C20.6641 16.5547 20.6641 16.9453 20.4297 17.1797C20.1953 17.4141 19.8047 17.4141 19.5312 17.1797C17.7344 15.3828 15.2344 14.25 12.5 14.25ZM12.5 20.5C11.7969 20.5 11.25 21.0859 11.25 21.75C11.25 22.4531 11.7969 23 12.5 23C13.1641 23 13.75 22.4531 13.75 21.75C13.75 21.0859 13.1641 20.5 12.5 20.5ZM12.5 24.25C11.6016 24.25 10.7812 23.7812 10.3125 23C9.88281 22.2578 9.88281 21.2812 10.3125 20.5C10.7812 19.7578 11.6016 19.25 12.5 19.25C13.3594 19.25 14.1797 19.7578 14.6484 20.5C15.0781 21.2812 15.0781 22.2578 14.6484 23C14.1797 23.7812 13.3594 24.25 12.5 24.25Z" fill="black" fill-opacity="0.72"/>
</g>
<defs>
<clipPath id="clip0_2556_17120">
<rect width="25" height="30" fill="white"/>
</clipPath>
</defs>
</svg>
