<svg width="20" height="30" viewBox="0 0 20 30" fill="none" xmlns="http://www.w3.org/2000/svg">
<g id="label-paired / lg / magnifying-glass-minus-lg / regular" clip-path="url(#clip0_3431_954)">
<path id="icon" d="M8.125 6.75C5.66406 6.75 3.39844 8.07812 2.14844 10.1875C0.9375 12.3359 0.9375 14.9531 2.14844 17.0625C3.39844 19.2109 5.66406 20.5 8.125 20.5C10.5469 20.5 12.8125 19.2109 14.0625 17.0625C15.2734 14.9531 15.2734 12.3359 14.0625 10.1875C12.8125 8.07812 10.5469 6.75 8.125 6.75ZM8.125 21.75C3.63281 21.75 0 18.1172 0 13.625C0 9.17188 3.63281 5.5 8.125 5.5C12.5781 5.5 16.25 9.17188 16.25 13.625C16.25 15.6562 15.5078 17.4922 14.2969 18.9375L19.8047 24.4453C20.0391 24.6797 20.0391 25.1094 19.8047 25.3438C19.5703 25.5781 19.1406 25.5781 18.9062 25.3438L13.3984 19.7969C11.9922 21.0469 10.1172 21.75 8.125 21.75ZM4.375 13H11.875C12.1875 13 12.5 13.3125 12.5 13.625C12.5 13.9766 12.1875 14.25 11.875 14.25H4.375C4.02344 14.25 3.75 13.9766 3.75 13.625C3.75 13.3125 4.02344 13 4.375 13Z" fill="black" fill-opacity="0.72"/>
</g>
<defs>
<clipPath id="clip0_3431_954">
<rect width="20" height="30" fill="white"/>
</clipPath>
</defs>
</svg>
