<svg width="18" height="30" viewBox="0 0 18 30" fill="none" xmlns="http://www.w3.org/2000/svg">
<g id="label-paired / lg / square-check-lg / regular" clip-path="url(#clip0_2556_17444)">
<path id="icon" d="M2.75 8C2.04688 8 1.5 8.58594 1.5 9.25V21.75C1.5 22.4531 2.04688 23 2.75 23H15.25C15.9141 23 16.5 22.4531 16.5 21.75V9.25C16.5 8.58594 15.9141 8 15.25 8H2.75ZM0.25 9.25C0.25 7.88281 1.34375 6.75 2.75 6.75H15.25C16.6172 6.75 17.75 7.88281 17.75 9.25V21.75C17.75 23.1562 16.6172 24.25 15.25 24.25H2.75C1.34375 24.25 0.25 23.1562 0.25 21.75V9.25ZM13.1797 13.4688L8.17969 18.4688C7.94531 18.7031 7.51562 18.7031 7.28125 18.4688L4.78125 15.9688C4.54688 15.7344 4.54688 15.3047 4.78125 15.0703C5.01562 14.8359 5.44531 14.8359 5.67969 15.0703L7.75 17.1406L12.2812 12.5703C12.5156 12.3359 12.9453 12.3359 13.1797 12.5703C13.4141 12.8047 13.4141 13.2344 13.1797 13.4688Z" fill="black" fill-opacity="0.72"/>
</g>
<defs>
<clipPath id="clip0_2556_17444">
<rect width="18" height="30" fill="white"/>
</clipPath>
</defs>
</svg>
