<svg width="20" height="30" viewBox="0 0 20 30" fill="none" xmlns="http://www.w3.org/2000/svg">
<g id="label-paired / lg / clone-lg / bold" clip-path="url(#clip0_2556_17563)">
<path id="icon" d="M2.5 23.625H11.25C11.5625 23.625 11.875 23.3516 11.875 23V20.5H13.75V23C13.75 24.4062 12.6172 25.5 11.25 25.5H2.5C1.09375 25.5 0 24.4062 0 23V14.25C0 12.8828 1.09375 11.75 2.5 11.75H5V13.625H2.5C2.14844 13.625 1.875 13.9375 1.875 14.25V23C1.875 23.3516 2.14844 23.625 2.5 23.625ZM8.75 17.375H17.5C17.8125 17.375 18.125 17.1016 18.125 16.75V8C18.125 7.6875 17.8125 7.375 17.5 7.375H8.75C8.39844 7.375 8.125 7.6875 8.125 8V16.75C8.125 17.1016 8.39844 17.375 8.75 17.375ZM6.25 16.75V8C6.25 6.63281 7.34375 5.5 8.75 5.5H17.5C18.8672 5.5 20 6.63281 20 8V16.75C20 18.1562 18.8672 19.25 17.5 19.25H8.75C7.34375 19.25 6.25 18.1562 6.25 16.75Z" fill="black" fill-opacity="0.72"/>
</g>
<defs>
<clipPath id="clip0_2556_17563">
<rect width="20" height="30" fill="white"/>
</clipPath>
</defs>
</svg>
