<svg width="8" height="30" viewBox="0 0 8 30" fill="none" xmlns="http://www.w3.org/2000/svg">
<g id="label-paired / lg / info-lg / fill" clip-path="url(#clip0_2556_17219)">
<path id="icon" d="M2.125 8.625C2.125 7.96094 2.47656 7.375 3.0625 7.02344C3.60938 6.67188 4.35156 6.67188 4.9375 7.02344C5.48438 7.375 5.875 7.96094 5.875 8.625C5.875 9.32812 5.48438 9.91406 4.9375 10.2656C4.35156 10.6172 3.60938 10.6172 3.0625 10.2656C2.47656 9.91406 2.125 9.32812 2.125 8.625ZM0.25 14.25C0.25 13.5859 0.796875 13 1.5 13H4C4.66406 13 5.25 13.5859 5.25 14.25V23H6.5C7.16406 23 7.75 23.5859 7.75 24.25C7.75 24.9531 7.16406 25.5 6.5 25.5H1.5C0.796875 25.5 0.25 24.9531 0.25 24.25C0.25 23.5859 0.796875 23 1.5 23H2.75V15.5H1.5C0.796875 15.5 0.25 14.9531 0.25 14.25Z" fill="black" fill-opacity="0.72"/>
</g>
<defs>
<clipPath id="clip0_2556_17219">
<rect width="8" height="30" fill="white"/>
</clipPath>
</defs>
</svg>
