<svg width="27" height="36" viewBox="0 0 27 36" fill="none" xmlns="http://www.w3.org/2000/svg">
<g id="label-paired / xl / page-circle-arrow-right-xl / regular" clip-path="url(#clip0_3558_4015)">
<path id="icon" d="M0 9C0 7.35938 1.3125 6 3 6H11.4844C12.2812 6 13.0312 6.32812 13.5938 6.89062L17.1094 10.4062C17.6719 10.9688 18 11.7188 18 12.5156V15.3281C17.4375 15.4688 16.9688 15.6562 16.5 15.9375V12.5156C16.5 12.0938 16.3125 11.7188 16.0312 11.4375L12.5625 7.96875C12.2812 7.6875 11.9062 7.5 11.4844 7.5H3C2.15625 7.5 1.5 8.20312 1.5 9V27C1.5 27.8438 2.15625 28.5 3 28.5H13.875C14.3438 29.0625 14.8594 29.5781 15.4219 30C15.2812 30 15.1406 30 15 30H3C1.3125 30 0 28.6875 0 27V9ZM13.5 23.25C13.5 19.5469 16.5 16.5 20.25 16.5C23.9531 16.5 27 19.5469 27 23.25C27 27 23.9531 30 20.25 30C16.5 30 13.5 27 13.5 23.25ZM15 23.25C15 26.1562 17.3438 28.5 20.25 28.5C23.1094 28.5 25.5 26.1562 25.5 23.25C25.5 20.3906 23.1094 18 20.25 18C17.3438 18 15 20.3906 15 23.25ZM16.5 23.25C16.5 22.875 16.8281 22.5 17.25 22.5H21.4219L20.0625 21.1875C19.7812 20.9062 19.7812 20.3906 20.0625 20.1094C20.3438 19.8281 20.8594 19.8281 21.1406 20.1094L23.7656 22.7344C24.0469 23.0156 24.0469 23.5312 23.7656 23.8125L21.1406 26.4375C20.8594 26.7188 20.3438 26.7188 20.0625 26.4375C19.7812 26.1562 19.7812 25.6406 20.0625 25.3594L21.4219 24H17.25C16.8281 24 16.5 23.6719 16.5 23.25Z" fill="black" fill-opacity="0.72"/>
</g>
<defs>
<clipPath id="clip0_3558_4015">
<rect width="27" height="36" fill="white"/>
</clipPath>
</defs>
</svg>
