<svg width="8" height="18" viewBox="0 0 8 18" fill="none" xmlns="http://www.w3.org/2000/svg">
<g id="label-paired / caption / sort-caption / regular" clip-path="url(#clip0_2556_10455)">
<path id="icon" d="M1.04688 7.71875C1 7.76562 1 7.78906 1 7.83594C1 7.92969 1.07031 8 1.16406 8H6.8125C6.90625 8 7 7.92969 7 7.83594C7 7.78906 6.97656 7.74219 6.92969 7.71875L4.11719 5.07031C4.09375 5.02344 4.04688 5 4 5C3.92969 5 3.88281 5.02344 3.85938 5.07031L1.04688 7.71875ZM0.53125 7.17969L3.34375 4.50781C3.50781 4.34375 3.74219 4.25 4 4.25C4.23438 4.25 4.46875 4.34375 4.63281 4.50781L7.44531 7.17969C7.63281 7.34375 7.75 7.60156 7.75 7.83594C7.75 8.35156 7.32812 8.75 6.8125 8.75H1.16406C0.648438 8.75 0.25 8.35156 0.25 7.83594C0.25 7.60156 0.34375 7.34375 0.53125 7.17969ZM1.04688 11.3047L3.85938 13.9531C3.88281 14 3.92969 14 4 14C4.04688 14 4.09375 14 4.11719 13.9531L6.92969 11.3047C6.97656 11.2578 7 11.2344 7 11.1875C7 11.0938 6.90625 11 6.8125 11H1.16406C1.07031 11 1 11.0938 1 11.1875C1 11.2344 1 11.2578 1.04688 11.3047ZM0.53125 11.8438C0.34375 11.6797 0.25 11.4219 0.25 11.1875C0.25 10.6719 0.648438 10.25 1.16406 10.25H6.8125C7.32812 10.25 7.75 10.6719 7.75 11.1875C7.75 11.4219 7.63281 11.6797 7.44531 11.8438L4.63281 14.5156C4.46875 14.6797 4.23438 14.75 4 14.75C3.74219 14.75 3.50781 14.6797 3.34375 14.5156L0.53125 11.8438Z" fill="black" fill-opacity="0.72"/>
</g>
<defs>
<clipPath id="clip0_2556_10455">
<rect width="8" height="18" fill="white"/>
</clipPath>
</defs>
</svg>
