<svg width="16" height="24" viewBox="0 0 16 24" fill="none" xmlns="http://www.w3.org/2000/svg">
<g id="label-paired / md / pen-md / bold" clip-path="url(#clip0_2556_14725)">
<path id="icon" d="M1.125 15.2812C1.25 14.8438 1.5 14.4375 1.8125 14.125L11.3125 4.625C12.0938 3.84375 13.375 3.84375 14.1562 4.625L15.375 5.84375C15.4688 5.9375 15.5625 6.0625 15.625 6.15625C16.1562 6.9375 16.0625 8 15.375 8.6875L5.875 18.1875C5.84375 18.2188 5.78125 18.25 5.75 18.3125C5.4375 18.5625 5.09375 18.75 4.71875 18.875L2.28125 19.5938L0.9375 20C0.6875 20.0625 0.40625 20 0.21875 19.7812C0 19.5938 -0.0625 19.3125 0.03125 19.0625L0.40625 17.7188L1.125 15.2812ZM2.5625 15.7188L2.34375 16.4375L1.84375 18.1562L3.5625 17.6562L4.28125 17.4375C4.5 17.375 4.65625 17.2812 4.8125 17.125L11.9688 9.96875L10.0312 8.03125L2.875 15.1875C2.84375 15.1875 2.84375 15.2188 2.8125 15.25C2.6875 15.375 2.625 15.5312 2.5625 15.7188Z" fill="black" fill-opacity="0.72"/>
</g>
<defs>
<clipPath id="clip0_2556_14725">
<rect width="16" height="24" fill="white"/>
</clipPath>
</defs>
</svg>
