<svg width="9" height="22" viewBox="0 0 9 22" fill="none" xmlns="http://www.w3.org/2000/svg">
<g id="label-paired / sm / six-sm / fill" clip-path="url(#clip0_2556_12505)">
<path id="icon" d="M6.46875 6.07422L4.71875 8.15234C7.01562 8.26172 8.875 10.1758 8.875 12.5C8.875 14.9336 6.90625 16.875 4.5 16.875C2.06641 16.875 0.125 14.9336 0.125 12.5C0.125 12.4727 0.125 12.418 0.125 12.3906C0.152344 11.3789 0.507812 10.3945 1.16406 9.62891L5.12891 4.95312C5.42969 4.57031 6.00391 4.54297 6.35938 4.84375C6.74219 5.14453 6.76953 5.71875 6.46875 6.07422ZM7.125 12.5C7.125 11.5703 6.60547 10.7227 5.8125 10.2305C4.99219 9.76562 3.98047 9.76562 3.1875 10.2305C2.36719 10.7227 1.875 11.5703 1.875 12.5C1.875 13.457 2.36719 14.3047 3.1875 14.7969C3.98047 15.2617 4.99219 15.2617 5.8125 14.7969C6.60547 14.3047 7.125 13.457 7.125 12.5Z" fill="black" fill-opacity="0.72"/>
</g>
<defs>
<clipPath id="clip0_2556_12505">
<rect width="9" height="22" fill="white"/>
</clipPath>
</defs>
</svg>
