<svg width="12" height="18" viewBox="0 0 12 18" fill="none" xmlns="http://www.w3.org/2000/svg">
<g id="label-paired / caption / options-caption / regular" clip-path="url(#clip0_5129_528)">
<path id="icon" d="M1.71094 15.3828C0.984375 15.3828 0.398438 14.7969 0.398438 14.0703V10.7188C0.398438 10.2734 0.75 9.89844 1.19531 9.89844H1.80469C2.27344 9.89844 2.64844 10.2734 2.64844 10.7188V11.6094L3.35156 10.9062C3.77344 10.4844 4.3125 10.25 4.89844 10.25H6.53906C6.98438 10.25 7.35938 10.625 7.35938 11.0703V11.5859C7.35938 12.0547 6.98438 12.4062 6.53906 12.4062H5.27344C5.03906 12.4062 4.78125 12.5 4.61719 12.6875L4.17188 13.1328H5.0625C5.50781 13.1328 5.88281 13.5078 5.88281 13.9531V14.5625C5.88281 15.0312 5.50781 15.3828 5.0625 15.3828H1.71094ZM1.19531 10.5312C1.10156 10.5312 1.00781 10.625 1.00781 10.7188V14.0703C1.00781 14.4453 1.33594 14.7734 1.71094 14.7734H5.03906C5.15625 14.7734 5.25 14.6797 5.25 14.5625V13.9531C5.25 13.8594 5.15625 13.7656 5.03906 13.7656H3.91406C3.70312 13.7656 3.51562 13.625 3.42188 13.4375C3.35156 13.25 3.39844 13.0156 3.53906 12.875L4.14844 12.2422C4.45312 11.9609 4.85156 11.7969 5.27344 11.7969H6.51562C6.63281 11.7969 6.70312 11.7031 6.70312 11.6094V11.0938C6.70312 10.9766 6.63281 10.9062 6.51562 10.9062H4.875C4.47656 10.9062 4.07812 11.0703 3.77344 11.3516L2.90625 12.2422C2.74219 12.3828 2.50781 12.4297 2.32031 12.3359C2.10938 12.2656 1.99219 12.0781 1.99219 11.8672V10.7188C1.99219 10.625 1.89844 10.5312 1.80469 10.5312H1.19531ZM10.8281 9.59375H10.2188C9.77344 9.59375 9.39844 9.21875 9.39844 8.75V7.85938L8.69531 8.58594C8.27344 8.98438 7.73438 9.21875 7.14844 9.21875H5.50781C5.0625 9.21875 4.6875 8.86719 4.6875 8.39844V7.88281C4.6875 7.4375 5.0625 7.0625 5.50781 7.0625H6.77344C7.00781 7.0625 7.24219 6.96875 7.42969 6.80469L7.875 6.33594H6.98438C6.53906 6.33594 6.16406 5.98438 6.16406 5.51562V4.90625C6.16406 4.46094 6.53906 4.08594 6.98438 4.08594H10.3125C11.0391 4.08594 11.6484 4.69531 11.6484 5.42188V8.75C11.6484 9.21875 11.2734 9.57031 10.8281 9.57031V9.59375ZM9.51562 7.10938C9.58594 7.10938 9.65625 7.10938 9.70312 7.13281C9.91406 7.22656 10.0312 7.41406 10.0312 7.625V8.77344C10.0312 8.86719 10.125 8.96094 10.2422 8.96094H10.8516C10.9453 8.96094 11.0391 8.86719 11.0391 8.77344V5.42188C11.0391 5.04688 10.7344 4.71875 10.3359 4.71875H7.00781C6.89062 4.71875 6.82031 4.8125 6.82031 4.90625V5.51562C6.82031 5.63281 6.89062 5.72656 7.00781 5.72656H8.13281C8.34375 5.72656 8.53125 5.84375 8.625 6.05469C8.69531 6.24219 8.67188 6.47656 8.50781 6.61719L7.89844 7.22656C7.59375 7.53125 7.21875 7.69531 6.79688 7.69531H5.53125C5.41406 7.69531 5.34375 7.76562 5.34375 7.88281V8.39844C5.34375 8.51562 5.4375 8.58594 5.53125 8.58594H7.17188C7.59375 8.58594 7.96875 8.42188 8.27344 8.14062L9.16406 7.25C9.25781 7.15625 9.375 7.10938 9.51562 7.10938Z" fill="black" fill-opacity="0.72"/>
</g>
<defs>
<clipPath id="clip0_5129_528">
<rect width="12" height="18" fill="white"/>
</clipPath>
</defs>
</svg>
