<svg width="20" height="30" viewBox="0 0 20 30" fill="none" xmlns="http://www.w3.org/2000/svg">
<g id="label-paired / lg / thumbs-down-lg / bold" clip-path="url(#clip0_2556_17425)">
<path id="icon" d="M12.6172 24.1719C11.1328 24.6016 9.57031 23.7031 9.14062 22.2188L8.94531 21.4375C8.78906 20.9297 8.51562 20.4609 8.16406 20.0703L6.17188 17.8828C5.82031 17.4922 5.85938 16.9062 6.21094 16.5547C6.60156 16.2031 7.1875 16.2422 7.53906 16.6328L9.57031 18.8203C10.1172 19.4062 10.5078 20.1484 10.7422 20.9297L10.9375 21.7109C11.0938 22.2188 11.6016 22.4922 12.1094 22.375C12.6172 22.2188 12.8906 21.7109 12.7734 21.2031L12.5391 20.4219C12.3047 19.6406 11.9531 18.8984 11.4844 18.2344C11.2891 17.9609 11.2891 17.5703 11.4453 17.2578C11.6016 16.9453 11.9141 16.75 12.2656 16.75H17.5C17.8125 16.75 18.125 16.4766 18.125 16.125C18.125 15.8906 17.9297 15.6562 17.6953 15.5391C17.4219 15.4609 17.1875 15.1875 17.1094 14.9141C17.0312 14.6016 17.1094 14.2891 17.3438 14.0547C17.4219 13.9375 17.5 13.8203 17.5 13.625C17.5 13.3516 17.2656 13.0781 16.9922 13.0391C16.6406 12.9609 16.3672 12.7266 16.2891 12.4531C16.1719 12.1406 16.2109 11.7891 16.4062 11.5156C16.4844 11.4375 16.5625 11.2812 16.5625 11.125C16.5625 10.8906 16.3672 10.6562 16.1328 10.5391C15.7031 10.3828 15.4688 9.91406 15.5859 9.44531C15.5859 9.36719 15.625 9.32812 15.625 9.25C15.625 8.9375 15.3125 8.625 15 8.625H11.1719C10.6641 8.625 10.1953 8.78125 9.80469 9.05469L7.38281 10.6562C6.95312 10.9688 6.36719 10.8516 6.09375 10.3828C5.78125 9.95312 5.89844 9.40625 6.32812 9.09375L8.75 7.49219C9.45312 7.02344 10.3125 6.75 11.1719 6.75H15C16.3281 6.75 17.4219 7.84375 17.5 9.17188C18.0469 9.64062 18.4375 10.3438 18.4375 11.125C18.4375 11.3203 18.3984 11.4766 18.3594 11.6328C18.9844 12.1016 19.375 12.8047 19.375 13.625C19.375 13.8984 19.3359 14.1328 19.2578 14.3672C19.6875 14.8359 20 15.4609 20 16.125C20 17.5312 18.8672 18.625 17.5 18.625H13.8672C14.0625 19.0547 14.2188 19.4844 14.3359 19.9141L14.5703 20.6953C15 22.1797 14.1406 23.7422 12.6172 24.1719ZM1.25 20.5C0.546875 20.5 0 19.9531 0 19.25V10.5C0 9.83594 0.546875 9.25 1.25 9.25H3.75C4.41406 9.25 5 9.83594 5 10.5V19.25C5 19.9531 4.41406 20.5 3.75 20.5H1.25Z" fill="black" fill-opacity="0.72"/>
</g>
<defs>
<clipPath id="clip0_2556_17425">
<rect width="20" height="30" fill="white"/>
</clipPath>
</defs>
</svg>
