<svg width="20" height="30" viewBox="0 0 20 30" fill="none" xmlns="http://www.w3.org/2000/svg">
<g id="label-paired / lg / circle-zero-lg / bold" clip-path="url(#clip0_2556_17616)">
<path id="icon" d="M10 7.375C7.07031 7.375 4.41406 8.9375 2.92969 11.4375C1.48438 13.9766 1.48438 17.0625 2.92969 19.5625C4.41406 22.1016 7.07031 23.625 10 23.625C12.8906 23.625 15.5469 22.1016 17.0312 19.5625C18.4766 17.0625 18.4766 13.9766 17.0312 11.4375C15.5469 8.9375 12.8906 7.375 10 7.375ZM10 25.5C6.40625 25.5 3.125 23.625 1.32812 20.5C-0.46875 17.4141 -0.46875 13.625 1.32812 10.5C3.125 7.41406 6.40625 5.5 10 5.5C13.5547 5.5 16.8359 7.41406 18.6328 10.5C20.4297 13.625 20.4297 17.4141 18.6328 20.5C16.8359 23.625 13.5547 25.5 10 25.5ZM10 10.5C12.0703 10.5 13.75 12.1797 13.75 14.25V16.75C13.75 18.8203 12.0703 20.5 10 20.5C7.92969 20.5 6.25 18.8203 6.25 16.75V14.25C6.25 12.1797 7.92969 10.5 10 10.5ZM8.125 14.25V16.75C8.125 17.8047 8.94531 18.625 10 18.625C11.0156 18.625 11.875 17.8047 11.875 16.75V14.25C11.875 13.2344 11.0156 12.375 10 12.375C8.94531 12.375 8.125 13.2344 8.125 14.25Z" fill="black" fill-opacity="0.72"/>
</g>
<defs>
<clipPath id="clip0_2556_17616">
<rect width="20" height="30" fill="white"/>
</clipPath>
</defs>
</svg>
