<svg width="24" height="36" viewBox="0 0 24 36" fill="none" xmlns="http://www.w3.org/2000/svg">
<g id="label-paired / xl / bank-xl / bold" clip-path="url(#clip0_2556_19330)">
<path id="icon" d="M12.5156 6.14062L23.1562 12.0469C23.6719 12.3281 24 12.8438 24 13.4062C24 14.2969 23.25 15 22.3594 15H1.59375C0.703125 15 0 14.2969 0 13.4062C0 12.8438 0.28125 12.3281 0.796875 12.0469L11.4375 6.14062C11.7656 5.95312 12.1875 5.95312 12.5156 6.14062ZM10.6875 12.75C10.5469 12.5625 10.5 12.2812 10.5 12C10.5 11.2031 11.1562 10.5 12 10.5C12.7969 10.5 13.5 11.2031 13.5 12C13.5 12.2812 13.4062 12.5625 13.2656 12.75H19.8281L12 8.4375L4.125 12.75H10.6875ZM3 16.5H5.25V24H8.25V16.5H10.5V24H13.5V16.5H15.75V24H18.75V16.5H21V24H21.375C21.9844 24 22.5 24.5156 22.5 25.125C22.5 25.7812 21.9844 26.25 21.375 26.25H3C2.34375 26.25 1.875 25.7812 1.875 25.125C1.875 24.5156 2.34375 24 3 24V16.5ZM1.5 27.75H22.875C23.4844 27.75 24 28.2656 24 28.875C24 29.5312 23.4844 30 22.875 30H1.5C0.84375 30 0.375 29.5312 0.375 28.875C0.375 28.2656 0.84375 27.75 1.5 27.75Z" fill="black" fill-opacity="0.72"/>
</g>
<defs>
<clipPath id="clip0_2556_19330">
<rect width="24" height="36" fill="white"/>
</clipPath>
</defs>
</svg>
