<svg width="9" height="18" viewBox="0 0 9 18" fill="none" xmlns="http://www.w3.org/2000/svg">
<g id="label-paired / caption / file-chart-column-caption / regular" clip-path="url(#clip0_2556_10176)">
<path id="icon" d="M7.5 14.75C7.89844 14.75 8.25 14.4219 8.25 14V8H5.625C4.99219 8 4.5 7.50781 4.5 6.875V4.25H1.5C1.07812 4.25 0.75 4.60156 0.75 5V14C0.75 14.4219 1.07812 14.75 1.5 14.75H7.5ZM5.625 7.25H8.22656C8.20312 7.20312 8.17969 7.13281 8.13281 7.08594L5.41406 4.36719C5.36719 4.32031 5.29688 4.29688 5.25 4.27344V6.875C5.25 7.08594 5.41406 7.25 5.625 7.25ZM1.5 3.5H5.15625C5.4375 3.5 5.74219 3.64062 5.95312 3.85156L8.64844 6.54688C8.85938 6.75781 9 7.0625 9 7.34375V14C9 14.8438 8.32031 15.5 7.5 15.5H1.5C0.65625 15.5 0 14.8438 0 14V5C0 4.17969 0.65625 3.5 1.5 3.5ZM4.875 9.125V13.625C4.875 13.8359 4.6875 14 4.5 14C4.28906 14 4.125 13.8359 4.125 13.625V9.125C4.125 8.9375 4.28906 8.75 4.5 8.75C4.6875 8.75 4.875 8.9375 4.875 9.125ZM7.125 10.625V13.625C7.125 13.8359 6.9375 14 6.75 14C6.53906 14 6.375 13.8359 6.375 13.625V10.625C6.375 10.4375 6.53906 10.25 6.75 10.25C6.9375 10.25 7.125 10.4375 7.125 10.625ZM2.625 12.125V13.625C2.625 13.8359 2.4375 14 2.25 14C2.03906 14 1.875 13.8359 1.875 13.625V12.125C1.875 11.9375 2.03906 11.75 2.25 11.75C2.4375 11.75 2.625 11.9375 2.625 12.125Z" fill="black" fill-opacity="0.72"/>
</g>
<defs>
<clipPath id="clip0_2556_10176">
<rect width="9" height="18" fill="white"/>
</clipPath>
</defs>
</svg>
