<svg width="20" height="30" viewBox="0 0 20 30" fill="none" xmlns="http://www.w3.org/2000/svg">
<g id="label-paired / lg / sun-bright-lg / fill" clip-path="url(#clip0_2556_17469)">
<path id="icon" d="M10 5.5C10.5078 5.5 10.9375 5.92969 10.9375 6.4375V8.9375C10.9375 9.48438 10.5078 9.875 10 9.875C9.45312 9.875 9.0625 9.48438 9.0625 8.9375V6.4375C9.0625 5.92969 9.45312 5.5 10 5.5ZM10 21.125C10.5078 21.125 10.9375 21.5547 10.9375 22.0625V24.5625C10.9375 25.1094 10.5078 25.5 10 25.5C9.45312 25.5 9.0625 25.1094 9.0625 24.5625V22.0625C9.0625 21.5547 9.45312 21.125 10 21.125ZM19.0625 16.4375H16.5625C16.0156 16.4375 15.625 16.0469 15.625 15.5C15.625 14.9922 16.0156 14.5625 16.5625 14.5625H19.0625C19.5703 14.5625 20 14.9922 20 15.5C20 16.0469 19.5703 16.4375 19.0625 16.4375ZM4.375 15.5C4.375 16.0469 3.94531 16.4375 3.4375 16.4375H0.9375C0.390625 16.4375 0 16.0469 0 15.5C0 14.9922 0.390625 14.5625 0.9375 14.5625H3.4375C3.94531 14.5625 4.375 14.9922 4.375 15.5ZM17.0703 9.75781L15.2734 11.5547C14.9219 11.9062 14.3359 11.9062 13.9453 11.5547C13.5938 11.1641 13.5938 10.5781 13.9453 10.2266L15.7422 8.42969C16.0938 8.07812 16.6797 8.07812 17.0703 8.42969C17.4219 8.82031 17.4219 9.40625 17.0703 9.75781ZM6.01562 19.4844C6.36719 19.875 6.36719 20.4609 6.01562 20.8125L4.21875 22.5703C3.86719 22.9609 3.28125 22.9609 2.92969 22.5703C2.53906 22.2188 2.53906 21.6328 2.92969 21.2812L4.6875 19.4844C5.03906 19.1328 5.625 19.1328 6.01562 19.4844ZM15.7422 22.5703L13.9453 20.8125C13.5938 20.4609 13.5938 19.875 13.9453 19.4844C14.3359 19.1328 14.9219 19.1328 15.2734 19.4844L17.0703 21.2812C17.4219 21.6328 17.4219 22.2188 17.0703 22.5703C16.6797 22.9609 16.0938 22.9609 15.7422 22.5703ZM6.01562 11.5547C5.625 11.9062 5.03906 11.9062 4.6875 11.5547L2.92969 9.75781C2.53906 9.40625 2.53906 8.82031 2.92969 8.42969C3.28125 8.07812 3.86719 8.07812 4.21875 8.42969L6.01562 10.2266C6.36719 10.5781 6.36719 11.1641 6.01562 11.5547ZM10 19.875C8.39844 19.875 6.99219 19.0547 6.21094 17.6875C5.39062 16.3594 5.39062 14.6797 6.21094 13.3125C6.99219 11.9844 8.39844 11.125 10 11.125C11.5625 11.125 12.9688 11.9844 13.75 13.3125C14.5703 14.6797 14.5703 16.3594 13.75 17.6875C12.9688 19.0547 11.5625 19.875 10 19.875Z" fill="black" fill-opacity="0.72"/>
</g>
<defs>
<clipPath id="clip0_2556_17469">
<rect width="20" height="30" fill="white"/>
</clipPath>
</defs>
</svg>
