<svg width="16" height="24" viewBox="0 0 16 24" fill="none" xmlns="http://www.w3.org/2000/svg">
<g id="label-paired / md / clapperboard-play-md / bold" clip-path="url(#clip0_3431_844)">
<path id="icon" d="M1.5 17C1.5 17.2812 1.71875 17.5 2 17.5H14C14.25 17.5 14.5 17.2812 14.5 17V10.5H1.5V17ZM10.5 9H12.5L14.5 7C14.5 6.75 14.25 6.5 14 6.5H13L10.5 9ZM7.5 9L10 6.5H8L5.5 9H7.5ZM2.5 9L5 6.5H3L1.5 8V9H2.5ZM16 7V9V9.75V10.5V17C16 18.125 15.0938 19 14 19H2C0.875 19 0 18.125 0 17V10.5V9.75V9V7C0 5.90625 0.875 5 2 5H14C15.0938 5 16 5.90625 16 7ZM6.75 11.5625C6.90625 11.5 7.125 11.5 7.25 11.5938L10.25 13.5938C10.4062 13.6875 10.5 13.8438 10.5 14C10.5 14.1875 10.4062 14.3438 10.25 14.4375L7.25 16.4375C7.125 16.5312 6.90625 16.5312 6.75 16.4688C6.59375 16.375 6.5 16.1875 6.5 16V12C6.5 11.8438 6.59375 11.6562 6.75 11.5625Z" fill="black" fill-opacity="0.72"/>
</g>
<defs>
<clipPath id="clip0_3431_844">
<rect width="16" height="24" fill="white"/>
</clipPath>
</defs>
</svg>
