<svg width="16" height="24" viewBox="0 0 16 24" fill="none" xmlns="http://www.w3.org/2000/svg">
<g id="label-paired / md / circle-caret-down-md / fill" clip-path="url(#clip0_2556_15035)">
<path id="icon" d="M8 4C10.8438 4 13.4688 5.53125 14.9062 8C16.3438 10.5 16.3438 13.5312 14.9062 16C13.4688 18.5 10.8438 20 8 20C5.125 20 2.5 18.5 1.0625 16C-0.375 13.5312 -0.375 10.5 1.0625 8C2.5 5.53125 5.125 4 8 4ZM8 15.5C8.1875 15.5 8.40625 15.4375 8.53125 15.2812L11.7812 11.7812C12 11.5625 12.0312 11.25 11.9375 10.9688C11.8125 10.6875 11.5312 10.5 11.25 10.5H4.75C4.4375 10.5 4.15625 10.6875 4.0625 10.9688C3.9375 11.25 3.96875 11.5625 4.1875 11.7812L7.4375 15.2812C7.59375 15.4375 7.78125 15.5 8 15.5Z" fill="black" fill-opacity="0.72"/>
</g>
<defs>
<clipPath id="clip0_2556_15035">
<rect width="16" height="24" fill="white"/>
</clipPath>
</defs>
</svg>
