<svg width="20" height="24" viewBox="0 0 20 24" fill="none" xmlns="http://www.w3.org/2000/svg">
<g id="label-paired / md / deal-protection-md / fill" clip-path="url(#clip0_2556_15122)">
<path id="icon" d="M10.375 7.375H14.8438C15.2812 7.375 15.7188 7.4375 16.0938 7.59375C16.4688 7.75 16.7812 7.96875 17.0625 8.25C17.3125 8.5625 17.5312 8.90625 17.6875 9.28125C17.8125 9.6875 17.875 10.0938 17.875 10.5312C17.875 11 17.8125 11.4062 17.6875 11.8125C17.5312 12.1875 17.3125 12.5312 17.0625 12.8125C16.7812 13.0938 16.4688 13.3125 16.0938 13.4688C15.7188 13.625 15.2812 13.7188 14.8438 13.7188H13.1875V16.75H10.375V7.375ZM14.9062 10.0312C14.875 10 14.8125 9.9375 14.625 9.9375H13.1875V11.125H14.625C14.8125 11.125 14.875 11.0938 14.9062 11.0625C14.9375 11.0312 15 10.9688 15 10.8125V10.2812C15 10.0938 14.9375 10.0625 14.9375 10.0312H14.9062ZM5.65625 7.375C6.25 7.375 6.84375 7.46875 7.34375 7.65625C7.875 7.875 8.34375 8.15625 8.71875 8.5625C9.09375 8.96875 9.375 9.46875 9.5625 10.0625C9.75 10.6562 9.84375 11.3125 9.84375 12.0625C9.84375 12.7812 9.75 13.4375 9.5625 14.0312C9.375 14.625 9.09375 15.125 8.71875 15.5312C8.34375 15.9375 7.875 16.25 7.34375 16.4375C6.84375 16.625 6.28125 16.75 5.65625 16.75H2V7.375H5.65625ZM6.59375 13.8125C6.78125 13.625 6.90625 13.3125 6.90625 12.6875V11.4062C6.90625 10.7812 6.78125 10.4688 6.59375 10.2812C6.40625 10.0938 6.125 9.96875 5.65625 9.96875H4.84375V14.125H5.65625C6.125 14.125 6.40625 14 6.59375 13.8125Z" fill="black" fill-opacity="0.72"/>
</g>
<defs>
<clipPath id="clip0_2556_15122">
<rect width="20" height="24" fill="white"/>
</clipPath>
</defs>
</svg>
