<svg width="16" height="24" viewBox="0 0 16 24" fill="none" xmlns="http://www.w3.org/2000/svg">
<g id="label-paired / md / circle-trash-md / regular" clip-path="url(#clip0_2556_15242)">
<path id="icon" d="M15 12C15 9.5 13.6562 7.21875 11.5 5.96875C9.3125 4.6875 6.65625 4.6875 4.5 5.96875C2.3125 7.21875 1 9.5 1 12C1 14.5312 2.3125 16.8125 4.5 18.0625C6.65625 19.3438 9.3125 19.3438 11.5 18.0625C13.6562 16.8125 15 14.5312 15 12ZM0 12C0 9.15625 1.5 6.53125 4 5.09375C6.46875 3.65625 9.5 3.65625 12 5.09375C14.4688 6.53125 16 9.15625 16 12C16 14.875 14.4688 17.5 12 18.9375C9.5 20.375 6.46875 20.375 4 18.9375C1.5 17.5 0 14.875 0 12ZM5 8.5H6H6.28125L6.625 8.15625C6.71875 8.0625 6.84375 8 7 8H9C9.125 8 9.25 8.0625 9.34375 8.15625L9.6875 8.5H9.96875H11C11.25 8.5 11.5 8.75 11.5 9C11.5 9.28125 11.25 9.5 11 9.5H10.9062L10.5625 15.0938C10.5 15.5938 10.0625 16 9.5625 16H6.40625C5.90625 16 5.46875 15.5938 5.4375 15.0938L5.0625 9.5H5C4.71875 9.5 4.5 9.28125 4.5 9C4.5 8.75 4.71875 8.5 5 8.5ZM9.90625 9.5H6.0625L6.40625 15H9.5625L9.90625 9.5Z" fill="black" fill-opacity="0.72"/>
</g>
<defs>
<clipPath id="clip0_2556_15242">
<rect width="16" height="24" fill="white"/>
</clipPath>
</defs>
</svg>
