<svg width="15" height="36" viewBox="0 0 15 36" fill="none" xmlns="http://www.w3.org/2000/svg">
<g id="label-paired / xl / six-xl / bold" clip-path="url(#clip0_2556_19692)">
<path id="icon" d="M12.75 21C12.75 18.1406 10.3594 15.75 7.5 15.75C5.95312 15.75 4.59375 16.4062 3.65625 17.4375L3.42188 17.7188C2.625 18.6562 2.25 19.8281 2.25 21C2.25 23.9062 4.59375 26.25 7.5 26.25C10.3594 26.25 12.75 23.9062 12.75 21ZM6.79688 13.5469C7.03125 13.5469 7.26562 13.5 7.5 13.5C11.625 13.5 15 16.875 15 21C15 25.1719 11.625 28.5 7.5 28.5C3.32812 28.5 0 25.1719 0 21C0 19.0781 0.703125 17.2969 1.92188 15.9844L8.48438 7.92188C8.85938 7.45312 9.5625 7.35938 10.0781 7.78125C10.5469 8.15625 10.6406 8.85938 10.2188 9.375L6.79688 13.5469Z" fill="black" fill-opacity="0.72"/>
</g>
<defs>
<clipPath id="clip0_2556_19692">
<rect width="15" height="36" fill="white"/>
</clipPath>
</defs>
</svg>
