<svg width="14" height="24" viewBox="0 0 14 24" fill="none" xmlns="http://www.w3.org/2000/svg">
<g id="label-paired / md / calendar-range-md / fill" clip-path="url(#clip0_2556_15186)">
<path id="icon" d="M3 5C3 4.46875 3.4375 4 4 4C4.53125 4 5 4.46875 5 5V6H9V5C9 4.46875 9.4375 4 10 4C10.5312 4 11 4.46875 11 5V6H12.5C13.3125 6 14 6.6875 14 7.5V9H0V7.5C0 6.6875 0.65625 6 1.5 6H3V5ZM14 10V18.5C14 19.3438 13.3125 20 12.5 20H1.5C0.65625 20 0 19.3438 0 18.5V10H14ZM4 13C4 12.4688 3.53125 12 3 12C2.4375 12 2 12.4688 2 13C2 13.5625 2.4375 14 3 14C3.53125 14 4 13.5625 4 13ZM11 18C11.5312 18 12 17.5625 12 17C12 16.4688 11.5312 16 11 16C10.4375 16 10 16.4688 10 17C10 17.5625 10.4375 18 11 18ZM6 13C6 13.4375 6.3125 13.75 6.75 13.75H11.25C11.6562 13.75 12 13.4375 12 13C12 12.5938 11.6562 12.25 11.25 12.25H6.75C6.3125 12.25 6 12.5938 6 13ZM7.25 16.25H2.75C2.3125 16.25 2 16.5938 2 17C2 17.4375 2.3125 17.75 2.75 17.75H7.25C7.65625 17.75 8 17.4375 8 17C8 16.5938 7.65625 16.25 7.25 16.25Z" fill="black" fill-opacity="0.72"/>
</g>
<defs>
<clipPath id="clip0_2556_15186">
<rect width="14" height="24" fill="white"/>
</clipPath>
</defs>
</svg>
