<svg width="11" height="18" viewBox="0 0 11 18" fill="none" xmlns="http://www.w3.org/2000/svg">
<g id="label-paired / caption / expand-caption / regular" clip-path="url(#clip0_2556_10495)">
<path id="icon" d="M3.625 4.25C3.8125 4.25 4 4.4375 4 4.625C4 4.83594 3.8125 5 3.625 5H1V7.625C1 7.83594 0.8125 8 0.625 8C0.414062 8 0.25 7.83594 0.25 7.625V4.625C0.25 4.4375 0.414062 4.25 0.625 4.25H3.625ZM0.25 11.375C0.25 11.1875 0.414062 11 0.625 11C0.8125 11 1 11.1875 1 11.375V14H3.625C3.8125 14 4 14.1875 4 14.375C4 14.5859 3.8125 14.75 3.625 14.75H0.625C0.414062 14.75 0.25 14.5859 0.25 14.375V11.375ZM10.375 4.25C10.5625 4.25 10.75 4.4375 10.75 4.625V7.625C10.75 7.83594 10.5625 8 10.375 8C10.1641 8 10 7.83594 10 7.625V5H7.375C7.16406 5 7 4.83594 7 4.625C7 4.4375 7.16406 4.25 7.375 4.25H10.375ZM10 11.375C10 11.1875 10.1641 11 10.375 11C10.5625 11 10.75 11.1875 10.75 11.375V14.375C10.75 14.5859 10.5625 14.75 10.375 14.75H7.375C7.16406 14.75 7 14.5859 7 14.375C7 14.1875 7.16406 14 7.375 14H10V11.375Z" fill="black" fill-opacity="0.72"/>
</g>
<defs>
<clipPath id="clip0_2556_10495">
<rect width="11" height="18" fill="white"/>
</clipPath>
</defs>
</svg>
