<svg width="12" height="18" viewBox="0 0 12 18" fill="none" xmlns="http://www.w3.org/2000/svg">
<g id="label-paired / caption / circle-calendar-caption / regular" clip-path="url(#clip0_2556_10595)">
<path id="icon" d="M11.25 9.5C11.25 7.625 10.2422 5.91406 8.625 4.97656C6.98438 4.01562 4.99219 4.01562 3.375 4.97656C1.73438 5.91406 0.75 7.625 0.75 9.5C0.75 11.3984 1.73438 13.1094 3.375 14.0469C4.99219 15.0078 6.98438 15.0078 8.625 14.0469C10.2422 13.1094 11.25 11.3984 11.25 9.5ZM0 9.5C0 7.36719 1.125 5.39844 3 4.32031C4.85156 3.24219 7.125 3.24219 9 4.32031C10.8516 5.39844 12 7.36719 12 9.5C12 11.6562 10.8516 13.625 9 14.7031C7.125 15.7812 4.85156 15.7812 3 14.7031C1.125 13.625 0 11.6562 0 9.5ZM4.875 5.75C5.0625 5.75 5.25 5.9375 5.25 6.125V6.5H6.75V6.125C6.75 5.9375 6.91406 5.75 7.125 5.75C7.3125 5.75 7.5 5.9375 7.5 6.125V6.5H7.875C8.48438 6.5 9 7.01562 9 7.625V8V8.75V11.375C9 12.0078 8.48438 12.5 7.875 12.5H4.125C3.49219 12.5 3 12.0078 3 11.375V8.75V8V7.625C3 7.01562 3.49219 6.5 4.125 6.5H4.5V6.125C4.5 5.9375 4.66406 5.75 4.875 5.75ZM3.75 7.625V8H8.25V7.625C8.25 7.4375 8.0625 7.25 7.875 7.25H7.125H4.875H4.125C3.91406 7.25 3.75 7.4375 3.75 7.625ZM8.25 8.75H3.75V11.375C3.75 11.5859 3.91406 11.75 4.125 11.75H7.875C8.0625 11.75 8.25 11.5859 8.25 11.375V8.75Z" fill="black" fill-opacity="0.72"/>
</g>
<defs>
<clipPath id="clip0_2556_10595">
<rect width="12" height="18" fill="white"/>
</clipPath>
</defs>
</svg>
