<svg width="24" height="36" viewBox="0 0 24 36" fill="none" xmlns="http://www.w3.org/2000/svg">
<g id="label-paired / xl / arrow-rotate-left-xl / bold" clip-path="url(#clip0_3431_1019)">
<path id="icon" d="M1.875 16.5C1.21875 16.5 0.75 16.0312 0.75 15.375V8.625C0.75 8.01562 1.21875 7.5 1.875 7.5C2.48438 7.5 3 8.01562 3 8.625V12.4219L3.9375 11.2969C5.85938 9 8.71875 7.5 12 7.5C17.7656 7.5 22.5 12.2344 22.5 18C22.5 23.8125 17.7656 28.5 12 28.5C9.60938 28.5 7.45312 27.75 5.67188 26.4375C5.20312 26.0625 5.0625 25.3594 5.4375 24.8438C5.8125 24.3281 6.51562 24.2344 7.03125 24.6094C8.39062 25.6406 10.125 26.25 12 26.25C16.5469 26.25 20.25 22.5938 20.25 18C20.25 13.4531 16.5469 9.75 12 9.75C9.42188 9.75 7.17188 10.9219 5.625 12.75L4.35938 14.25H8.625C9.23438 14.25 9.75 14.7656 9.75 15.375C9.75 16.0312 9.23438 16.5 8.625 16.5H1.875Z" fill="black" fill-opacity="0.72"/>
</g>
<defs>
<clipPath id="clip0_3431_1019">
<rect width="24" height="36" fill="white"/>
</clipPath>
</defs>
</svg>
