<svg width="18" height="30" viewBox="0 0 18 30" fill="none" xmlns="http://www.w3.org/2000/svg">
<g id="label-paired / lg / bars-lg / regular" clip-path="url(#clip0_2556_17513)">
<path id="icon" d="M0.25 8.625C0.25 8.3125 0.523438 8 0.875 8H17.125C17.4375 8 17.75 8.3125 17.75 8.625C17.75 8.97656 17.4375 9.25 17.125 9.25H0.875C0.523438 9.25 0.25 8.97656 0.25 8.625ZM0.25 14.875C0.25 14.5625 0.523438 14.25 0.875 14.25H17.125C17.4375 14.25 17.75 14.5625 17.75 14.875C17.75 15.2266 17.4375 15.5 17.125 15.5H0.875C0.523438 15.5 0.25 15.2266 0.25 14.875ZM17.75 21.125C17.75 21.4766 17.4375 21.75 17.125 21.75H0.875C0.523438 21.75 0.25 21.4766 0.25 21.125C0.25 20.8125 0.523438 20.5 0.875 20.5H17.125C17.4375 20.5 17.75 20.8125 17.75 21.125Z" fill="black" fill-opacity="0.72"/>
</g>
<defs>
<clipPath id="clip0_2556_17513">
<rect width="18" height="30" fill="white"/>
</clipPath>
</defs>
</svg>
