<svg width="15" height="30" viewBox="0 0 15 30" fill="none" xmlns="http://www.w3.org/2000/svg">
<g id="label-paired / lg / file-chart-column-lg / bold" clip-path="url(#clip0_2556_17496)">
<path id="icon" d="M1.875 23C1.875 23.3516 2.14844 23.625 2.5 23.625H12.5C12.8125 23.625 13.125 23.3516 13.125 23V11.75H10C9.29688 11.75 8.75 11.2031 8.75 10.5V7.375H2.5C2.14844 7.375 1.875 7.6875 1.875 8V23ZM2.5 5.5H8.94531C9.60938 5.5 10.2344 5.77344 10.7031 6.24219L14.2578 9.79688C14.7266 10.2656 15 10.8906 15 11.5547V23C15 24.4062 13.8672 25.5 12.5 25.5H2.5C1.09375 25.5 0 24.4062 0 23V8C0 6.63281 1.09375 5.5 2.5 5.5ZM8.4375 16.4375V21.4375C8.4375 21.9844 8.00781 22.375 7.5 22.375C6.95312 22.375 6.5625 21.9844 6.5625 21.4375V16.4375C6.5625 15.9297 6.95312 15.5 7.5 15.5C8.00781 15.5 8.4375 15.9297 8.4375 16.4375ZM11.875 17.6875V21.4375C11.875 21.9844 11.4453 22.375 10.9375 22.375C10.3906 22.375 10 21.9844 10 21.4375V17.6875C10 17.1797 10.3906 16.75 10.9375 16.75C11.4453 16.75 11.875 17.1797 11.875 17.6875ZM5 18.9375V21.4375C5 21.9844 4.57031 22.375 4.0625 22.375C3.51562 22.375 3.125 21.9844 3.125 21.4375V18.9375C3.125 18.4297 3.51562 18 4.0625 18C4.57031 18 5 18.4297 5 18.9375Z" fill="black" fill-opacity="0.72"/>
</g>
<defs>
<clipPath id="clip0_2556_17496">
<rect width="15" height="30" fill="white"/>
</clipPath>
</defs>
</svg>
