<svg width="15" height="36" viewBox="0 0 15 36" fill="none" xmlns="http://www.w3.org/2000/svg">
<g id="label-paired / xl / dollar-sign-xl / fill" clip-path="url(#clip0_2556_19904)">
<path id="icon" d="M7.5 6C8.29688 6 9 6.70312 9 7.5V9.1875C9.04688 9.1875 9.14062 9.23438 9.1875 9.23438C9.23438 9.23438 9.23438 9.23438 9.23438 9.23438L11.4844 9.65625C12.3281 9.79688 12.8438 10.5938 12.7031 11.3906C12.5625 12.1875 11.7656 12.75 10.9688 12.6094L8.71875 12.1875C7.26562 11.9531 5.95312 12.1406 5.0625 12.4688C4.17188 12.8438 3.79688 13.3594 3.70312 13.7812C3.60938 14.2969 3.70312 14.5781 3.75 14.7656C3.84375 14.9531 4.03125 15.1406 4.35938 15.375C5.10938 15.8906 6.28125 16.2188 7.82812 16.5938L7.96875 16.6406C9.28125 17.0156 10.9219 17.4375 12.1406 18.2344C12.7969 18.6562 13.4531 19.2656 13.8281 20.0625C14.25 20.9062 14.2969 21.8438 14.1562 22.875C13.8281 24.6562 12.5625 25.8281 11.0625 26.4375C10.4062 26.7188 9.70312 26.8594 9 26.9531V28.5C9 29.3438 8.29688 30 7.5 30C6.65625 30 6 29.3438 6 28.5V26.9062C5.95312 26.8594 5.95312 26.8594 5.90625 26.8594C4.78125 26.7188 2.90625 26.2031 1.64062 25.6406C0.84375 25.3125 0.515625 24.4219 0.84375 23.6719C1.21875 22.9219 2.0625 22.5469 2.85938 22.9219C3.79688 23.3438 5.4375 23.7656 6.375 23.9062C7.875 24.1406 9.09375 24 9.9375 23.6719C10.7344 23.3438 11.0625 22.875 11.2031 22.3125C11.25 21.7969 11.2031 21.5156 11.1094 21.375C11.0156 21.1875 10.875 20.9531 10.5 20.7188C9.75 20.25 8.57812 19.9219 7.03125 19.5L6.89062 19.4531C5.57812 19.125 3.9375 18.6562 2.71875 17.8594C2.0625 17.4375 1.40625 16.8281 1.03125 16.0312C0.65625 15.1875 0.5625 14.25 0.75 13.2656C1.07812 11.4375 2.4375 10.3125 3.9375 9.70312C4.59375 9.42188 5.25 9.28125 6 9.1875V7.5C6 6.70312 6.65625 6 7.5 6Z" fill="black" fill-opacity="0.72"/>
</g>
<defs>
<clipPath id="clip0_2556_19904">
<rect width="15" height="36" fill="white"/>
</clipPath>
</defs>
</svg>
