<svg width="14" height="22" viewBox="0 0 14 22" fill="none" xmlns="http://www.w3.org/2000/svg">
<g id="label-paired / sm / chart-line-up-down-sm / bold" clip-path="url(#clip0_2556_12934)">
<path id="icon" d="M0.65625 4.625C1.01172 4.625 1.3125 4.92578 1.3125 5.28125V14.9062C1.3125 15.2891 1.58594 15.5625 1.96875 15.5625H13.3438C13.6992 15.5625 14 15.8633 14 16.2188C14 16.6016 13.6992 16.875 13.3438 16.875H1.96875C0.875 16.875 0 16 0 14.9062V5.28125C0 4.92578 0.273438 4.625 0.65625 4.625ZM10.2812 6.8125C9.89844 6.8125 9.625 6.53906 9.625 6.15625C9.625 5.80078 9.89844 5.5 10.2812 5.5H12.4688C12.6328 5.5 12.7969 5.58203 12.9336 5.69141C13.043 5.82812 13.125 5.99219 13.125 6.15625V8.34375C13.125 8.72656 12.8242 9 12.4688 9C12.0859 9 11.8125 8.72656 11.8125 8.34375V7.74219L8.33984 11.2148C8.06641 11.4883 7.65625 11.4883 7.41016 11.2148L5.6875 9.49219L3.96484 11.2148C3.69141 11.4883 3.28125 11.4883 3.03516 11.2148C2.76172 10.9688 2.76172 10.5586 3.03516 10.3125L5.22266 8.125C5.46875 7.85156 5.87891 7.85156 6.15234 8.125L7.875 9.84766L10.8828 6.8125H10.2812ZM10.2812 14.25C9.89844 14.25 9.625 13.9766 9.625 13.5938C9.625 13.2383 9.89844 12.9375 10.2812 12.9375H10.8828L9.59766 11.6523L10.5273 10.7227L11.8125 12.0078V11.4062C11.8125 11.0508 12.0859 10.75 12.4688 10.75C12.8242 10.75 13.125 11.0508 13.125 11.4062V13.5938C13.125 13.7852 13.043 13.9492 12.9336 14.0586C12.7969 14.1953 12.6328 14.25 12.4688 14.25H10.2812Z" fill="black" fill-opacity="0.72"/>
</g>
<defs>
<clipPath id="clip0_2556_12934">
<rect width="14" height="22" fill="white"/>
</clipPath>
</defs>
</svg>
