<svg width="15" height="36" viewBox="0 0 15 36" fill="none" xmlns="http://www.w3.org/2000/svg">
<g id="label-paired / xl / forward-step-xl / fill" clip-path="url(#clip0_2556_19888)">
<path id="icon" d="M2.4375 26.6719C2.01562 27.0469 1.35938 27.1406 0.84375 26.8594C0.328125 26.625 0 26.1094 0 25.5V10.5C0 9.9375 0.328125 9.42188 0.84375 9.14062C1.35938 8.90625 1.96875 9 2.4375 9.375L11.4375 16.875L12 17.2969V10.5C12 9.70312 12.6562 9 13.5 9C14.2969 9 15 9.70312 15 10.5V25.5C15 26.3438 14.2969 27 13.5 27C12.6562 27 12 26.3438 12 25.5V18.7031L11.4375 19.1719L2.4375 26.6719Z" fill="black" fill-opacity="0.72"/>
</g>
<defs>
<clipPath id="clip0_2556_19888">
<rect width="15" height="36" fill="white"/>
</clipPath>
</defs>
</svg>
