<svg width="11" height="22" viewBox="0 0 11 22" fill="none" xmlns="http://www.w3.org/2000/svg">
<g id="label-paired / sm / moon-sm / bold" clip-path="url(#clip0_2556_12795)">
<path id="icon" d="M4.1875 6.45703C2.62891 7.25 1.5625 8.89062 1.5625 10.75C1.5625 13.4297 3.69531 15.5625 6.34766 15.5625C6.70312 15.5625 7.05859 15.5352 7.41406 15.4531C5.00781 14.6328 3.28516 12.3359 3.28516 9.65625C3.28516 8.48047 3.61328 7.38672 4.1875 6.45703ZM5.88281 4.65234C5.96484 4.65234 6.01953 4.65234 6.07422 4.65234C6.18359 4.65234 6.26562 4.65234 6.34766 4.65234C6.42969 4.65234 6.51172 4.65234 6.56641 4.65234C6.67578 4.65234 6.75781 4.65234 6.86719 4.65234C7.05859 4.67969 7.22266 4.81641 7.25 5.00781C7.30469 5.19922 7.22266 5.39062 7.05859 5.47266C6.94922 5.52734 6.86719 5.58203 6.78516 5.63672C6.67578 5.71875 6.56641 5.80078 6.45703 5.88281C6.40234 5.91016 6.375 5.9375 6.34766 5.96484C5.28125 6.83984 4.59766 8.17969 4.59766 9.68359C4.59766 12.3359 6.75781 14.4688 9.38281 14.4961C9.41016 14.4961 9.41016 14.4961 9.41016 14.4961C9.4375 14.4961 9.46484 14.4961 9.49219 14.4961C9.65625 14.4688 9.79297 14.4688 9.92969 14.4688C10.0117 14.4414 10.1211 14.4414 10.2305 14.4141C10.4219 14.3867 10.6133 14.4688 10.6953 14.6328C10.7773 14.8242 10.75 15.0156 10.6133 15.1523C10.5312 15.2344 10.4766 15.2891 10.3945 15.3438C10.2578 15.4531 10.1484 15.5625 10.0117 15.6719C9.95703 15.6992 9.90234 15.7539 9.84766 15.7812C8.86328 16.4648 7.66016 16.875 6.34766 16.875C2.98438 16.875 0.25 14.1406 0.25 10.75C0.25 7.52344 2.73828 4.89844 5.88281 4.65234Z" fill="black" fill-opacity="0.72"/>
</g>
<defs>
<clipPath id="clip0_2556_12795">
<rect width="11" height="22" fill="white"/>
</clipPath>
</defs>
</svg>
