<svg width="30" height="36" viewBox="0 0 30 36" fill="none" xmlns="http://www.w3.org/2000/svg">
<g id="label-paired / xl / graduation-cap-xl / regular" clip-path="url(#clip0_4124_449)">
<path id="icon" d="M14.3906 9.14062L2.20312 13.5L5.67188 14.7656C6.14062 14.4375 6.70312 14.2031 7.26562 13.9688L14.7188 11.1562C15.0938 11.0156 15.5156 11.2031 15.7031 11.625C15.8438 12 15.6094 12.4219 15.2344 12.5625L7.78125 15.375C7.6875 15.4219 7.64062 15.4219 7.54688 15.4688L14.3906 17.9062C14.5781 18 14.7656 18 15 18C15.1875 18 15.375 18 15.5625 17.9062L27.75 13.5L15.5625 9.14062C15.375 9.04688 15.1875 9 15 9C14.7656 9 14.5781 9.04688 14.3906 9.14062ZM13.875 19.3125L5.90625 16.4531C4.64062 17.5312 3.84375 19.125 3.75 20.8594C4.03125 21.5156 4.21875 22.1719 4.35938 22.8281C4.6875 24.0938 4.875 25.9219 4.45312 27.9375C4.40625 28.125 4.3125 28.3125 4.125 28.4062C3.9375 28.5 3.75 28.5469 3.5625 28.5L0.5625 27.75C0.328125 27.7031 0.09375 27.5156 0.046875 27.2812C-0.046875 27.0469 0 26.7656 0.140625 26.5781C0.515625 26.0156 0.890625 25.4062 1.17188 24.7969C1.73438 23.7188 2.25 22.3594 2.25 21V20.9531C2.29688 19.0312 3.09375 17.25 4.35938 15.8906L0.703125 14.5781C0.28125 14.4375 0 14.0156 0 13.5C0 13.0312 0.28125 12.6094 0.703125 12.4688L13.875 7.73438C14.2031 7.59375 14.5781 7.5 15 7.5C15.375 7.5 15.75 7.59375 16.0781 7.73438L29.25 12.4688C29.6719 12.6094 30 13.0312 30 13.5C30 14.0156 29.6719 14.4375 29.25 14.5781L16.0781 19.3125C15.75 19.4531 15.375 19.5 15 19.5C14.5781 19.5 14.2031 19.4531 13.875 19.3125ZM8.15625 18.8438L7.5 25.0781C7.54688 25.125 7.59375 25.1719 7.6875 25.2188C7.96875 25.5 8.4375 25.7812 9.1875 26.0625C10.5938 26.625 12.6562 27 15 27C17.2969 27 19.3594 26.625 20.8125 26.0625C21.5156 25.7812 21.9844 25.5 22.3125 25.2188C22.3594 25.1719 22.4531 25.125 22.4531 25.0781L21.7969 18.8438L23.25 18.3281L24 25.125C24 26.8125 19.9688 28.5 15 28.5C10.0312 28.5 6 26.8125 6 25.125L6.70312 18.3281L8.15625 18.8438ZM22.5 24.9844C22.5 24.9844 22.5 24.9844 22.5 25.0312C22.5 24.9844 22.5 24.9844 22.5 24.9844ZM7.45312 24.9844C7.45312 24.9844 7.45312 24.9844 7.45312 25.0312C7.45312 24.9844 7.45312 24.9844 7.45312 24.9844ZM3.14062 26.8594C3.23438 25.875 3.1875 24.9844 3.09375 24.1875C2.90625 24.6562 2.71875 25.0781 2.53125 25.5C2.34375 25.8281 2.15625 26.2031 1.92188 26.5312L3.14062 26.8594Z" fill="black" fill-opacity="0.72"/>
</g>
<defs>
<clipPath id="clip0_4124_449">
<rect width="30" height="36" fill="white"/>
</clipPath>
</defs>
</svg>
