<svg width="24" height="36" viewBox="0 0 24 36" fill="none" xmlns="http://www.w3.org/2000/svg">
<g id="label-paired / xl / circle-caret-down-xl / fill" clip-path="url(#clip0_2556_19426)">
<path id="icon" d="M12 6C16.2656 6 20.2031 8.29688 22.3594 12C24.5156 15.75 24.5156 20.2969 22.3594 24C20.2031 27.75 16.2656 30 12 30C7.6875 30 3.75 27.75 1.59375 24C-0.5625 20.2969 -0.5625 15.75 1.59375 12C3.75 8.29688 7.6875 6 12 6ZM12 23.25C12.2812 23.25 12.6094 23.1562 12.7969 22.9219L17.6719 17.6719C18 17.3438 18.0469 16.875 17.9062 16.4531C17.7188 16.0312 17.2969 15.75 16.875 15.75H7.125C6.65625 15.75 6.23438 16.0312 6.09375 16.4531C5.90625 16.875 5.95312 17.3438 6.28125 17.6719L11.1562 22.9219C11.3906 23.1562 11.6719 23.25 12 23.25Z" fill="black" fill-opacity="0.72"/>
</g>
<defs>
<clipPath id="clip0_2556_19426">
<rect width="24" height="36" fill="white"/>
</clipPath>
</defs>
</svg>
