<svg width="16" height="24" viewBox="0 0 16 24" fill="none" xmlns="http://www.w3.org/2000/svg">
<g id="label-paired / md / thumbs-up-md / bold" clip-path="url(#clip0_2556_14986)">
<path id="icon" d="M10.0938 5.09375C11.3125 5.4375 12 6.6875 11.6562 7.875L11.4688 8.5C11.375 8.84375 11.25 9.1875 11.0938 9.5H14C15.0938 9.5 16 10.4062 16 11.5C16 12.0625 15.75 12.5625 15.4062 12.9375C15.4688 13.125 15.5 13.3125 15.5 13.5312C15.5 14.1562 15.1875 14.75 14.6875 15.125C14.7188 15.25 14.75 15.375 14.75 15.5312C14.75 16.1562 14.4375 16.7188 14 17.0938C13.9375 18.1562 13.0625 19.0312 12 19.0312H8.9375C8.25 19.0312 7.5625 18.8125 7 18.4375L5.0625 17.1562C4.71875 16.9062 4.625 16.4688 4.875 16.0938C5.09375 15.75 5.5625 15.6562 5.90625 15.9062L7.84375 17.1875C8.15625 17.4062 8.53125 17.5312 8.9375 17.5312H12C12.25 17.5312 12.5 17.2812 12.5 17.0312C12.5 16.9688 12.4688 16.9375 12.4688 16.875C12.375 16.5 12.5625 16.125 12.9062 15.9688C13.0938 15.9062 13.25 15.7188 13.25 15.5312C13.25 15.4062 13.1875 15.2812 13.125 15.2188C12.9688 15 12.9375 14.7188 13.0312 14.4688C13.0938 14.2188 13.3125 14.0625 13.5938 14C13.8125 13.9688 14 13.75 14 13.5C14 13.375 13.9375 13.2812 13.875 13.1875C13.6875 13 13.625 12.75 13.6875 12.5C13.75 12.25 13.9375 12.0625 14.1562 11.9688C14.3438 11.9062 14.5 11.7188 14.5 11.5C14.5 11.25 14.25 11 14 11H9.8125C9.53125 11 9.28125 10.8438 9.15625 10.5938C9.03125 10.3438 9.03125 10.0625 9.1875 9.84375C9.5625 9.3125 9.84375 8.71875 10.0312 8.09375L10.2188 7.46875C10.3125 7.0625 10.0938 6.65625 9.6875 6.53125C9.28125 6.4375 8.875 6.65625 8.75 7.0625L8.59375 7.6875C8.40625 8.3125 8.09375 8.875 7.65625 9.375L6.03125 11.125C5.75 11.4375 5.28125 11.4688 4.96875 11.1875C4.6875 10.9062 4.65625 10.4375 4.9375 10.125L6.53125 8.375C6.8125 8.0625 7.03125 7.6875 7.15625 7.28125L7.3125 6.65625C7.65625 5.4375 8.90625 4.75 10.0938 5.09375ZM1 10H3C3.53125 10 4 10.4688 4 11V18C4 18.5625 3.53125 19 3 19H1C0.4375 19 0 18.5625 0 18V11C0 10.4688 0.4375 10 1 10Z" fill="black" fill-opacity="0.72"/>
</g>
<defs>
<clipPath id="clip0_2556_14986">
<rect width="16" height="24" fill="white"/>
</clipPath>
</defs>
</svg>
