<svg width="18" height="24" viewBox="0 0 18 24" fill="none" xmlns="http://www.w3.org/2000/svg">
<g id="label-paired / md / file-shield-md / fill" clip-path="url(#clip0_2556_14666)">
<path id="icon" d="M0 6C0 4.90625 0.875 4 2 4H7V8C7 8.5625 7.4375 9 8 9H12V10.4688L9.09375 11.6562C8.40625 11.9062 8 12.5625 8 13.2812C8 15.0312 8.5625 17.9062 10.9375 19.7812C10.6562 19.9375 10.3125 20 10 20H2C0.875 20 0 19.125 0 18V6ZM12 8H8V4L12 8ZM13.2188 11.0625C13.375 11 13.5938 11 13.75 11.0625L17.5 12.5625C17.8125 12.6875 18 12.9688 18 13.25C18 15.25 17.1875 18.5312 13.7812 19.9688C13.5938 20.0312 13.375 20.0312 13.1875 19.9688C9.78125 18.5312 9 15.25 9 13.25C9 12.9688 9.1875 12.6875 9.46875 12.5625L13.2188 11.0625ZM16.4688 13.75L13.5 12.5625V18.4375C15.625 17.4062 16.3438 15.3438 16.4688 13.75Z" fill="black" fill-opacity="0.72"/>
</g>
<defs>
<clipPath id="clip0_2556_14666">
<rect width="18" height="24" fill="white"/>
</clipPath>
</defs>
</svg>
