<svg width="16" height="22" viewBox="0 0 16 22" fill="none" xmlns="http://www.w3.org/2000/svg">
<g id="label-paired / sm / presentation-screen-sm / regular" clip-path="url(#clip0_2556_12826)">
<path id="icon" d="M0.5625 3.75H15.4375C15.6562 3.75 15.875 3.96875 15.875 4.1875C15.875 4.43359 15.6562 4.625 15.4375 4.625H0.5625C0.316406 4.625 0.125 4.43359 0.125 4.1875C0.125 3.96875 0.316406 3.75 0.5625 3.75ZM1 5.5H1.875V11.625C1.875 12.1172 2.25781 12.5 2.75 12.5H8H13.25C13.7148 12.5 14.125 12.1172 14.125 11.625V5.5H15V11.625C15 12.6094 14.207 13.375 13.25 13.375H8.4375V14.5234L10.9258 17.0117C11.0898 17.1758 11.0898 17.4766 10.9258 17.6406C10.7617 17.8047 10.4609 17.8047 10.2969 17.6406L8 15.3164L5.67578 17.6406C5.51172 17.8047 5.21094 17.8047 5.04688 17.6406C4.88281 17.4766 4.88281 17.1758 5.04688 17.0117L7.5625 14.5234V13.375H2.75C1.76562 13.375 1 12.6094 1 11.625V5.5Z" fill="black" fill-opacity="0.72"/>
</g>
<defs>
<clipPath id="clip0_2556_12826">
<rect width="16" height="22" fill="white"/>
</clipPath>
</defs>
</svg>
