<svg width="21" height="36" viewBox="0 0 21 36" fill="none" xmlns="http://www.w3.org/2000/svg">
<g id="label-paired / xl / lock-xl / fill" clip-path="url(#clip0_2556_19305)">
<path id="icon" d="M6.75 12.75V15H14.25V12.75C14.25 10.6875 12.5625 9 10.5 9C8.39062 9 6.75 10.6875 6.75 12.75ZM3.75 15V12.75C3.75 9.04688 6.75 6 10.5 6C14.2031 6 17.25 9.04688 17.25 12.75V15H18C19.6406 15 21 16.3594 21 18V27C21 28.6875 19.6406 30 18 30H3C1.3125 30 0 28.6875 0 27V18C0 16.3594 1.3125 15 3 15H3.75Z" fill="black" fill-opacity="0.72"/>
</g>
<defs>
<clipPath id="clip0_2556_19305">
<rect width="21" height="36" fill="white"/>
</clipPath>
</defs>
</svg>
