<svg width="14" height="18" viewBox="0 0 14 18" fill="none" xmlns="http://www.w3.org/2000/svg">
<g id="label-paired / caption / credit-card-caption / fill" clip-path="url(#clip0_2556_10018)">
<path id="icon" d="M1.75 4.25H12.25C13.0703 4.25 13.75 4.92969 13.75 5.75V6.5H0.25V5.75C0.25 4.92969 0.90625 4.25 1.75 4.25ZM13.75 8.75V13.25C13.75 14.0938 13.0703 14.75 12.25 14.75H1.75C0.90625 14.75 0.25 14.0938 0.25 13.25V8.75H13.75ZM2.875 11.75C2.66406 11.75 2.5 11.9375 2.5 12.125C2.5 12.3359 2.66406 12.5 2.875 12.5H4.375C4.5625 12.5 4.75 12.3359 4.75 12.125C4.75 11.9375 4.5625 11.75 4.375 11.75H2.875ZM5.5 12.125C5.5 12.3359 5.66406 12.5 5.875 12.5H8.875C9.0625 12.5 9.25 12.3359 9.25 12.125C9.25 11.9375 9.0625 11.75 8.875 11.75H5.875C5.66406 11.75 5.5 11.9375 5.5 12.125Z" fill="black" fill-opacity="0.72"/>
</g>
<defs>
<clipPath id="clip0_2556_10018">
<rect width="14" height="18" fill="white"/>
</clipPath>
</defs>
</svg>
