<svg width="16" height="24" viewBox="0 0 16 24" fill="none" xmlns="http://www.w3.org/2000/svg">
<g id="label-paired / md / camera-md / regular" clip-path="url(#clip0_2556_14572)">
<path id="icon" d="M5.96875 5H10C10.6562 5 11.2188 5.4375 11.4375 6.03125L11.75 7H14C15.0938 7 16 7.90625 16 9V17C16 18.125 15.0938 19 14 19H2C0.875 19 0 18.125 0 17V9C0 7.90625 0.875 7 2 7H4.21875L4.53125 6.03125C4.75 5.4375 5.3125 5 5.96875 5ZM5.46875 6.34375L5.03125 7.6875C4.96875 7.875 4.78125 8 4.5625 8H2C1.4375 8 1 8.46875 1 9V17C1 17.5625 1.4375 18 2 18H14C14.5312 18 15 17.5625 15 17V9C15 8.46875 14.5312 8 14 8H11.4062C11.1875 8 11 7.875 10.9375 7.65625L10.5 6.34375C10.4062 6.15625 10.2188 6 10 6H5.96875C5.75 6 5.5625 6.15625 5.46875 6.34375ZM8 16.5C6.71875 16.5 5.59375 15.8438 4.96875 14.75C4.3125 13.6875 4.3125 12.3438 4.96875 11.25C5.59375 10.1875 6.71875 9.5 8 9.5C9.25 9.5 10.375 10.1875 11 11.25C11.6562 12.3438 11.6562 13.6875 11 14.75C10.375 15.8438 9.25 16.5 8 16.5ZM5.5 13C5.5 13.9062 5.96875 14.7188 6.75 15.1875C7.5 15.625 8.46875 15.625 9.25 15.1875C10 14.7188 10.5 13.9062 10.5 13C10.5 12.125 10 11.3125 9.25 10.8438C8.46875 10.4062 7.5 10.4062 6.75 10.8438C5.96875 11.3125 5.5 12.125 5.5 13Z" fill="black" fill-opacity="0.72"/>
</g>
<defs>
<clipPath id="clip0_2556_14572">
<rect width="16" height="24" fill="white"/>
</clipPath>
</defs>
</svg>
