<svg width="15" height="18" viewBox="0 0 15 18" fill="none" xmlns="http://www.w3.org/2000/svg">
<g id="label-paired / caption / language-caption / regular" clip-path="url(#clip0_2556_10126)">
<path id="icon" d="M7.125 5.75H1.5C1.07812 5.75 0.75 6.10156 0.75 6.5V12.5C0.75 12.9219 1.07812 13.25 1.5 13.25H7.125V5.75ZM7.875 5.75V13.25H13.5C13.8984 13.25 14.25 12.9219 14.25 12.5V6.5C14.25 6.10156 13.8984 5.75 13.5 5.75H7.875ZM15 6.5V12.5C15 13.3438 14.3203 14 13.5 14H1.5C0.65625 14 0 13.3438 0 12.5V6.5C0 5.67969 0.65625 5 1.5 5H13.5C14.3203 5 15 5.67969 15 6.5ZM4.07812 7.50781L5.57812 11.2578C5.67188 11.4453 5.57812 11.6562 5.36719 11.7266C5.17969 11.8203 4.96875 11.7266 4.89844 11.5156L4.6875 11.0234H2.78906L2.57812 11.5156C2.50781 11.7266 2.29688 11.8203 2.10938 11.7266C1.89844 11.6562 1.80469 11.4453 1.89844 11.2578L3.39844 7.50781C3.44531 7.34375 3.58594 7.25 3.75 7.25C3.89062 7.25 4.03125 7.34375 4.07812 7.50781ZM3.75 8.65625L3.09375 10.25H4.38281L3.75 8.65625ZM11.625 7.625V8H12.75H13.125C13.3125 8 13.5 8.1875 13.5 8.375C13.5 8.58594 13.3125 8.75 13.125 8.75H13.0078L12.9141 9.03125C12.6797 9.64062 12.3281 10.2031 11.8828 10.6484C11.9531 10.6953 12.0234 10.7422 12.1172 10.7891L12.5625 11.0703C12.7266 11.1641 12.7969 11.3984 12.6797 11.5859C12.5859 11.75 12.3516 11.8203 12.1641 11.7031L11.7188 11.4453C11.5781 11.3516 11.4375 11.2578 11.2969 11.1406C11.1094 11.2812 10.8984 11.3984 10.6875 11.5156L10.2891 11.7266C10.1016 11.8203 9.86719 11.7266 9.77344 11.5391C9.67969 11.375 9.77344 11.1406 9.9375 11.0469L10.3594 10.8359C10.4766 10.7891 10.5938 10.7188 10.7109 10.6484L10.2188 10.1562C10.0781 9.99219 10.0781 9.75781 10.2188 9.61719C10.3828 9.47656 10.6172 9.47656 10.7578 9.61719L11.2969 10.1562C11.6953 9.78125 12 9.3125 12.2109 8.77344V8.75H11.25H9.375C9.16406 8.75 9 8.58594 9 8.375C9 8.1875 9.16406 8 9.375 8H10.875V7.625C10.875 7.4375 11.0391 7.25 11.25 7.25C11.4375 7.25 11.625 7.4375 11.625 7.625Z" fill="black" fill-opacity="0.72"/>
</g>
<defs>
<clipPath id="clip0_2556_10126">
<rect width="15" height="18" fill="white"/>
</clipPath>
</defs>
</svg>
