<svg width="20" height="24" viewBox="0 0 20 24" fill="none" xmlns="http://www.w3.org/2000/svg">
<g id="label-paired / md / user-plus-md / bold" clip-path="url(#clip0_3327_781)">
<path id="icon" d="M7 5.5C6.09375 5.5 5.28125 6 4.8125 6.75C4.375 7.53125 4.375 8.5 4.8125 9.25C5.28125 10.0312 6.09375 10.5 7 10.5C7.875 10.5 8.6875 10.0312 9.15625 9.25C9.59375 8.5 9.59375 7.53125 9.15625 6.75C8.6875 6 7.875 5.5 7 5.5ZM7 12C5.5625 12 4.25 11.25 3.53125 10C2.8125 8.78125 2.8125 7.25 3.53125 6C4.25 4.78125 5.5625 4 7 4C8.40625 4 9.71875 4.78125 10.4375 6C11.1562 7.25 11.1562 8.78125 10.4375 10C9.71875 11.25 8.40625 12 7 12ZM5.5625 15C3.5 15 1.8125 16.5312 1.53125 18.5H12.4375C12.1562 16.5312 10.4688 15 8.40625 15H5.5625ZM5.5625 13.5H8.40625C11.5 13.5 14 16 14 19.0938C14 19.5938 13.5625 20 13.0625 20H0.90625C0.40625 20 0 19.5938 0 19.0938C0 16 2.46875 13.5 5.5625 13.5ZM15.75 13.75V11.75H13.75C13.3125 11.75 13 11.4375 13 11C13 10.5938 13.3125 10.25 13.75 10.25H15.75V8.25C15.75 7.84375 16.0625 7.5 16.5 7.5C16.9062 7.5 17.25 7.84375 17.25 8.25V10.25H19.25C19.6562 10.25 20 10.5938 20 11C20 11.4375 19.6562 11.75 19.25 11.75H17.25V13.75C17.25 14.1875 16.9062 14.5 16.5 14.5C16.0625 14.5 15.75 14.1875 15.75 13.75Z" fill="black" fill-opacity="0.72"/>
</g>
<defs>
<clipPath id="clip0_3327_781">
<rect width="20" height="24" fill="white"/>
</clipPath>
</defs>
</svg>
