<svg width="18" height="36" viewBox="0 0 18 36" fill="none" xmlns="http://www.w3.org/2000/svg">
<g id="label-paired / xl / file-lines-xl / regular" clip-path="url(#clip0_3431_1003)">
<path id="icon" d="M15 28.5C15.7969 28.5 16.5 27.8438 16.5 27V15H11.25C9.98438 15 9 14.0156 9 12.75V7.5H3C2.15625 7.5 1.5 8.20312 1.5 9V27C1.5 27.8438 2.15625 28.5 3 28.5H15ZM11.25 13.5H16.4531C16.4062 13.4062 16.3594 13.2656 16.2656 13.1719L10.8281 7.73438C10.7344 7.64062 10.5938 7.59375 10.5 7.54688V12.75C10.5 13.1719 10.8281 13.5 11.25 13.5ZM3 6H10.3125C10.875 6 11.4844 6.28125 11.9062 6.70312L17.2969 12.0938C17.7188 12.5156 18 13.125 18 13.6875V27C18 28.6875 16.6406 30 15 30H3C1.3125 30 0 28.6875 0 27V9C0 7.35938 1.3125 6 3 6ZM5.25 18H12.75C13.125 18 13.5 18.375 13.5 18.75C13.5 19.1719 13.125 19.5 12.75 19.5H5.25C4.82812 19.5 4.5 19.1719 4.5 18.75C4.5 18.375 4.82812 18 5.25 18ZM5.25 21H12.75C13.125 21 13.5 21.375 13.5 21.75C13.5 22.1719 13.125 22.5 12.75 22.5H5.25C4.82812 22.5 4.5 22.1719 4.5 21.75C4.5 21.375 4.82812 21 5.25 21ZM5.25 24H12.75C13.125 24 13.5 24.375 13.5 24.75C13.5 25.1719 13.125 25.5 12.75 25.5H5.25C4.82812 25.5 4.5 25.1719 4.5 24.75C4.5 24.375 4.82812 24 5.25 24Z" fill="black" fill-opacity="0.72"/>
</g>
<defs>
<clipPath id="clip0_3431_1003">
<rect width="18" height="36" fill="white"/>
</clipPath>
</defs>
</svg>
