<svg width="30" height="36" viewBox="0 0 30 36" fill="none" xmlns="http://www.w3.org/2000/svg">
<g id="label-paired / xl / wifi-xl / fill" clip-path="url(#clip0_2556_19437)">
<path id="icon" d="M2.53125 15.5156C1.92188 16.125 0.984375 16.0781 0.375 15.4688C-0.1875 14.9062 -0.140625 13.9219 0.421875 13.3594C4.21875 9.75 9.32812 7.5 15 7.5C20.625 7.5 25.7344 9.75 29.5312 13.3594C30.0938 13.9219 30.1406 14.9062 29.5781 15.4688C28.9688 16.0781 28.0312 16.125 27.4219 15.5156C24.1875 12.4219 19.8281 10.5 15 10.5C10.125 10.5 5.76562 12.4219 2.53125 15.5156ZM15 18C12.3281 18 9.89062 19.0312 8.01562 20.625C7.40625 21.1875 6.46875 21.1406 5.90625 20.5312C5.39062 19.875 5.4375 18.9375 6.04688 18.375C8.4375 16.3125 11.5781 15 15 15C18.4219 15 21.5156 16.3125 23.9062 18.375C24.5156 18.9375 24.6094 19.875 24.0469 20.5312C23.4844 21.1406 22.5469 21.1875 21.9375 20.625C20.0625 19.0312 17.625 18 15 18ZM18 25.5C18 26.5781 17.3906 27.5625 16.5 28.125C15.5625 28.6406 14.3906 28.6406 13.5 28.125C12.5625 27.5625 12 26.5781 12 25.5C12 24.4688 12.5625 23.4844 13.5 22.9219C14.3906 22.4062 15.5625 22.4062 16.5 22.9219C17.3906 23.4844 18 24.4688 18 25.5Z" fill="black" fill-opacity="0.72"/>
</g>
<defs>
<clipPath id="clip0_2556_19437">
<rect width="30" height="36" fill="white"/>
</clipPath>
</defs>
</svg>
