<svg width="15" height="18" viewBox="0 0 15 18" fill="none" xmlns="http://www.w3.org/2000/svg">
<g id="label-paired / caption / computer-caption / fill" clip-path="url(#clip0_2556_10086)">
<path id="icon" d="M9 5.75H1.5V11H9V5.75ZM1.5 4.25H9C9.82031 4.25 10.5 4.92969 10.5 5.75V11C10.5 11.8438 9.82031 12.5 9 12.5H6.23438L6.49219 13.25H8.25C8.64844 13.25 9 13.6016 9 14C9 14.4219 8.64844 14.75 8.25 14.75H2.25C1.82812 14.75 1.5 14.4219 1.5 14C1.5 13.6016 1.82812 13.25 2.25 13.25H3.98438L4.24219 12.5H1.5C0.65625 12.5 0 11.8438 0 11V5.75C0 4.92969 0.65625 4.25 1.5 4.25ZM12.375 4.25H13.875C14.4844 4.25 15 4.76562 15 5.375V13.625C15 14.2578 14.4844 14.75 13.875 14.75H12.375C11.7422 14.75 11.25 14.2578 11.25 13.625V5.375C11.25 4.76562 11.7422 4.25 12.375 4.25ZM12.75 5.75C12.5391 5.75 12.375 5.9375 12.375 6.125C12.375 6.33594 12.5391 6.5 12.75 6.5H13.5C13.6875 6.5 13.875 6.33594 13.875 6.125C13.875 5.9375 13.6875 5.75 13.5 5.75H12.75ZM12.375 7.625C12.375 7.83594 12.5391 8 12.75 8H13.5C13.6875 8 13.875 7.83594 13.875 7.625C13.875 7.4375 13.6875 7.25 13.5 7.25H12.75C12.5391 7.25 12.375 7.4375 12.375 7.625ZM13.125 11.375C12.7031 11.375 12.375 11.7266 12.375 12.125C12.375 12.5469 12.7031 12.875 13.125 12.875C13.5234 12.875 13.875 12.5469 13.875 12.125C13.875 11.7266 13.5234 11.375 13.125 11.375Z" fill="black" fill-opacity="0.72"/>
</g>
<defs>
<clipPath id="clip0_2556_10086">
<rect width="15" height="18" fill="white"/>
</clipPath>
</defs>
</svg>
