<svg width="24" height="36" viewBox="0 0 24 36" fill="none" xmlns="http://www.w3.org/2000/svg">
<g id="label-paired / xl / phone-xl / fill" clip-path="url(#clip0_2556_19463)">
<path id="icon" d="M7.6875 7.17188L9.5625 11.6719C9.89062 12.4219 9.70312 13.3125 9.04688 13.8281L6.75 15.75C8.29688 19.0312 10.9688 21.7031 14.25 23.25L16.1719 20.9531C16.6875 20.2969 17.5781 20.1094 18.3281 20.4375L22.8281 22.3125C23.7188 22.6406 24.1406 23.625 23.9062 24.5156L22.7812 28.6406C22.5469 29.4375 21.8438 30 21 30C9.375 30 0 20.625 0 9C0 8.15625 0.5625 7.45312 1.35938 7.21875L5.48438 6.09375C6.375 5.85938 7.35938 6.28125 7.6875 7.17188Z" fill="black" fill-opacity="0.72"/>
</g>
<defs>
<clipPath id="clip0_2556_19463">
<rect width="24" height="36" fill="white"/>
</clipPath>
</defs>
</svg>
