<svg width="12" height="18" viewBox="0 0 12 18" fill="none" xmlns="http://www.w3.org/2000/svg">
<g id="label-paired / caption / life-ring-caption / bold" clip-path="url(#clip0_2556_10404)">
<path id="icon" d="M9.02344 13.3438L7.125 11.4453C6.79688 11.6562 6.39844 11.75 6 11.75C5.57812 11.75 5.17969 11.6562 4.85156 11.4453L2.95312 13.3438C3.79688 14 4.85156 14.375 6 14.375C7.125 14.375 8.17969 14 9.02344 13.3438ZM10.6172 13.3438L10.875 13.625C11.1094 13.8359 11.1094 14.1875 10.875 14.3984C10.6641 14.6328 10.3125 14.6328 10.1016 14.3984L9.82031 14.1406C8.76562 14.9844 7.45312 15.5 6 15.5C4.52344 15.5 3.21094 14.9844 2.15625 14.1406L1.875 14.3984C1.66406 14.6328 1.3125 14.6328 1.10156 14.3984C0.867188 14.1875 0.867188 13.8359 1.10156 13.6016L1.35938 13.3438C0.515625 12.2891 0 10.9766 0 9.5C0 8.04688 0.515625 6.73438 1.35938 5.67969L1.10156 5.39844C0.867188 5.1875 0.867188 4.83594 1.10156 4.60156C1.3125 4.39062 1.66406 4.39062 1.89844 4.60156L2.15625 4.88281C3.21094 4.03906 4.52344 3.5 6 3.5C7.45312 3.5 8.76562 4.03906 9.82031 4.88281L10.1016 4.625C10.3125 4.39062 10.6641 4.39062 10.8984 4.625C11.1094 4.83594 11.1094 5.1875 10.8984 5.39844L10.6172 5.67969C11.4609 6.73438 12 8.04688 12 9.5C12 10.9766 11.4609 12.2891 10.6172 13.3438ZM9.82031 12.5469C10.4766 11.7031 10.875 10.6484 10.875 9.5C10.875 8.375 10.4766 7.32031 9.82031 6.47656L7.92188 8.375C8.13281 8.70312 8.25 9.10156 8.25 9.5C8.25 9.92188 8.13281 10.3203 7.92188 10.6484L9.82031 12.5469ZM9.02344 5.67969C8.17969 5.02344 7.125 4.625 6 4.625C4.85156 4.625 3.79688 5.02344 2.95312 5.67969L4.85156 7.57812C5.17969 7.36719 5.57812 7.25 5.97656 7.25C6.39844 7.25 6.79688 7.36719 7.125 7.57812L9.02344 5.67969ZM4.05469 10.6484C3.84375 10.3203 3.75 9.92188 3.75 9.52344C3.75 9.10156 3.84375 8.70312 4.05469 8.375L2.15625 6.47656C1.5 7.32031 1.125 8.375 1.125 9.5C1.125 10.6484 1.5 11.7031 2.15625 12.5469L4.05469 10.6484ZM4.875 9.5C4.875 9.92188 5.08594 10.2734 5.4375 10.4844C5.76562 10.6953 6.21094 10.6953 6.5625 10.4844C6.89062 10.2734 7.125 9.92188 7.125 9.5C7.125 9.10156 6.89062 8.75 6.5625 8.53906C6.21094 8.32812 5.76562 8.32812 5.4375 8.53906C5.08594 8.75 4.875 9.10156 4.875 9.5Z" fill="black" fill-opacity="0.72"/>
</g>
<defs>
<clipPath id="clip0_2556_10404">
<rect width="12" height="18" fill="white"/>
</clipPath>
</defs>
</svg>
