<svg width="15" height="30" viewBox="0 0 15 30" fill="none" xmlns="http://www.w3.org/2000/svg">
<g id="label-paired / lg / percent-lg / regular" clip-path="url(#clip0_2556_17008)">
<path id="icon" d="M2.5 9.25C1.79688 9.25 1.25 9.83594 1.25 10.5C1.25 11.2031 1.79688 11.75 2.5 11.75C3.16406 11.75 3.75 11.2031 3.75 10.5C3.75 9.83594 3.16406 9.25 2.5 9.25ZM2.5 13C1.60156 13 0.78125 12.5312 0.3125 11.75C-0.117188 11.0078 -0.117188 10.0312 0.3125 9.25C0.78125 8.50781 1.60156 8 2.5 8C3.35938 8 4.17969 8.50781 4.64844 9.25C5.07812 10.0312 5.07812 11.0078 4.64844 11.75C4.17969 12.5312 3.35938 13 2.5 13ZM12.5 19.25C11.7969 19.25 11.25 19.8359 11.25 20.5C11.25 21.2031 11.7969 21.75 12.5 21.75C13.1641 21.75 13.75 21.2031 13.75 20.5C13.75 19.8359 13.1641 19.25 12.5 19.25ZM12.5 23C11.6016 23 10.7812 22.5312 10.3125 21.75C9.88281 21.0078 9.88281 20.0312 10.3125 19.25C10.7812 18.5078 11.6016 18 12.5 18C13.3594 18 14.1797 18.5078 14.6484 19.25C15.0781 20.0312 15.0781 21.0078 14.6484 21.75C14.1797 22.5312 13.3594 23 12.5 23ZM14.8047 9.09375L1.05469 22.8438C0.820312 23.0781 0.390625 23.0781 0.15625 22.8438C-0.078125 22.6094 -0.078125 22.1797 0.15625 21.9453L13.9062 8.19531C14.1406 7.96094 14.5703 7.96094 14.8047 8.19531C15.0391 8.42969 15.0391 8.85938 14.8047 9.09375Z" fill="black" fill-opacity="0.72"/>
</g>
<defs>
<clipPath id="clip0_2556_17008">
<rect width="15" height="30" fill="white"/>
</clipPath>
</defs>
</svg>
