<svg width="14" height="22" viewBox="0 0 14 22" fill="none" xmlns="http://www.w3.org/2000/svg">
<g id="label-paired / sm / circle-xmark-sm / bold" clip-path="url(#clip0_2556_12962)">
<path id="icon" d="M7 5.0625C4.94922 5.0625 3.08984 6.15625 2.05078 7.90625C1.03906 9.68359 1.03906 11.8438 2.05078 13.5938C3.08984 15.3711 4.94922 16.4375 7 16.4375C9.02344 16.4375 10.8828 15.3711 11.9219 13.5938C12.9336 11.8438 12.9336 9.68359 11.9219 7.90625C10.8828 6.15625 9.02344 5.0625 7 5.0625ZM7 17.75C4.48438 17.75 2.1875 16.4375 0.929688 14.25C-0.328125 12.0898 -0.328125 9.4375 0.929688 7.25C2.1875 5.08984 4.48438 3.75 7 3.75C9.48828 3.75 11.7852 5.08984 13.043 7.25C14.3008 9.4375 14.3008 12.0898 13.043 14.25C11.7852 16.4375 9.48828 17.75 7 17.75ZM4.78516 8.53516C5.03125 8.28906 5.44141 8.28906 5.6875 8.53516L6.97266 9.82031L8.25781 8.53516C8.53125 8.28906 8.94141 8.28906 9.1875 8.53516C9.46094 8.80859 9.46094 9.21875 9.1875 9.46484L7.90234 10.75L9.1875 12.0352C9.46094 12.3086 9.46094 12.7188 9.1875 12.9648C8.94141 13.2383 8.53125 13.2383 8.25781 12.9648L6.97266 11.6797L5.6875 12.9648C5.44141 13.2383 5.03125 13.2383 4.78516 12.9648C4.51172 12.7188 4.51172 12.3086 4.78516 12.0352L6.07031 10.75L4.78516 9.46484C4.51172 9.21875 4.51172 8.80859 4.78516 8.53516Z" fill="black" fill-opacity="0.72"/>
</g>
<defs>
<clipPath id="clip0_2556_12962">
<rect width="14" height="22" fill="white"/>
</clipPath>
</defs>
</svg>
