<svg width="11" height="18" viewBox="0 0 11 18" fill="none" xmlns="http://www.w3.org/2000/svg">
<g id="label-paired / caption / calendar-range-caption / fill" clip-path="url(#clip0_2556_10557)">
<path id="icon" d="M2.5 4.25C2.5 3.85156 2.82812 3.5 3.25 3.5C3.64844 3.5 4 3.85156 4 4.25V5H7V4.25C7 3.85156 7.32812 3.5 7.75 3.5C8.14844 3.5 8.5 3.85156 8.5 4.25V5H9.625C10.2344 5 10.75 5.51562 10.75 6.125V7.25H0.25V6.125C0.25 5.51562 0.742188 5 1.375 5H2.5V4.25ZM10.75 8V14.375C10.75 15.0078 10.2344 15.5 9.625 15.5H1.375C0.742188 15.5 0.25 15.0078 0.25 14.375V8H10.75ZM3.25 10.25C3.25 9.85156 2.89844 9.5 2.5 9.5C2.07812 9.5 1.75 9.85156 1.75 10.25C1.75 10.6719 2.07812 11 2.5 11C2.89844 11 3.25 10.6719 3.25 10.25ZM8.5 14C8.89844 14 9.25 13.6719 9.25 13.25C9.25 12.8516 8.89844 12.5 8.5 12.5C8.07812 12.5 7.75 12.8516 7.75 13.25C7.75 13.6719 8.07812 14 8.5 14ZM4.75 10.25C4.75 10.5781 4.98438 10.8125 5.3125 10.8125H8.6875C8.99219 10.8125 9.25 10.5781 9.25 10.25C9.25 9.94531 8.99219 9.6875 8.6875 9.6875H5.3125C4.98438 9.6875 4.75 9.94531 4.75 10.25ZM5.6875 12.6875H2.3125C1.98438 12.6875 1.75 12.9453 1.75 13.25C1.75 13.5781 1.98438 13.8125 2.3125 13.8125H5.6875C5.99219 13.8125 6.25 13.5781 6.25 13.25C6.25 12.9453 5.99219 12.6875 5.6875 12.6875Z" fill="black" fill-opacity="0.72"/>
</g>
<defs>
<clipPath id="clip0_2556_10557">
<rect width="11" height="18" fill="white"/>
</clipPath>
</defs>
</svg>
