<svg width="18" height="22" viewBox="0 0 18 22" fill="none" xmlns="http://www.w3.org/2000/svg">
<g id="label-paired / sm / field-password-sm / bold" clip-path="url(#clip0_2556_12369)">
<path id="icon" d="M2.875 7.03125C2.24609 7.03125 1.78125 7.52344 1.78125 8.125V13.375C1.78125 14.0039 2.24609 14.4688 2.875 14.4688H15.125C15.7266 14.4688 16.2188 14.0039 16.2188 13.375V8.125C16.2188 7.52344 15.7266 7.03125 15.125 7.03125H2.875ZM0.46875 8.125C0.46875 6.8125 1.53516 5.71875 2.875 5.71875H15.125C16.4375 5.71875 17.5312 6.8125 17.5312 8.125V13.375C17.5312 14.7148 16.4375 15.7812 15.125 15.7812H2.875C1.53516 15.7812 0.46875 14.7148 0.46875 13.375V8.125ZM12.0625 13.5938C11.6797 13.5938 11.4062 13.3203 11.4062 12.9375V8.5625C11.4062 8.20703 11.6797 7.90625 12.0625 7.90625C12.418 7.90625 12.7188 8.20703 12.7188 8.5625V12.9375C12.7188 13.3203 12.418 13.5938 12.0625 13.5938ZM5.71875 10.75C5.71875 11.1602 5.5 11.5156 5.17188 11.707C4.81641 11.8984 4.40625 11.8984 4.07812 11.707C3.72266 11.5156 3.53125 11.1602 3.53125 10.75C3.53125 10.3672 3.72266 10.0117 4.07812 9.82031C4.40625 9.62891 4.81641 9.62891 5.17188 9.82031C5.5 10.0117 5.71875 10.3672 5.71875 10.75ZM8.34375 10.75C8.34375 11.1602 8.125 11.5156 7.79688 11.707C7.44141 11.8984 7.03125 11.8984 6.70312 11.707C6.34766 11.5156 6.15625 11.1602 6.15625 10.75C6.15625 10.3672 6.34766 10.0117 6.70312 9.82031C7.03125 9.62891 7.44141 9.62891 7.79688 9.82031C8.125 10.0117 8.34375 10.3672 8.34375 10.75ZM10.9688 10.75C10.9688 11.1602 10.75 11.5156 10.4219 11.707C10.0664 11.8984 9.65625 11.8984 9.32812 11.707C8.97266 11.5156 8.78125 11.1602 8.78125 10.75C8.78125 10.3672 8.97266 10.0117 9.32812 9.82031C9.65625 9.62891 10.0664 9.62891 10.4219 9.82031C10.75 10.0117 10.9688 10.3672 10.9688 10.75Z" fill="black" fill-opacity="0.72"/>
</g>
<defs>
<clipPath id="clip0_2556_12369">
<rect width="18" height="22" fill="white"/>
</clipPath>
</defs>
</svg>
