<svg width="24" height="36" viewBox="0 0 24 36" fill="none" xmlns="http://www.w3.org/2000/svg">
<g id="label-paired / xl / envelope-xl / bold" clip-path="url(#clip0_2556_19470)">
<path id="icon" d="M3 11.25C2.57812 11.25 2.25 11.625 2.25 12V13.0781L10.3125 19.6875C11.2969 20.4844 12.6562 20.4844 13.6406 19.6875L21.75 13.0781V12C21.75 11.625 21.375 11.25 21 11.25H3ZM2.25 15.9844V24C2.25 24.4219 2.57812 24.75 3 24.75H21C21.375 24.75 21.75 24.4219 21.75 24V15.9844L15.0938 21.4219C13.2656 22.9219 10.6875 22.9219 8.90625 21.4219L2.25 15.9844ZM0 12C0 10.3594 1.3125 9 3 9H21C22.6406 9 24 10.3594 24 12V24C24 25.6875 22.6406 27 21 27H3C1.3125 27 0 25.6875 0 24V12Z" fill="black" fill-opacity="0.72"/>
</g>
<defs>
<clipPath id="clip0_2556_19470">
<rect width="24" height="36" fill="white"/>
</clipPath>
</defs>
</svg>
