<svg width="16" height="24" viewBox="0 0 16 24" fill="none" xmlns="http://www.w3.org/2000/svg">
<g id="label-paired / md / circle-one-md / regular" clip-path="url(#clip0_2556_15261)">
<path id="icon" d="M15 12C15 9.5 13.6562 7.21875 11.5 5.96875C9.3125 4.6875 6.65625 4.6875 4.5 5.96875C2.3125 7.21875 1 9.5 1 12C1 14.5312 2.3125 16.8125 4.5 18.0625C6.65625 19.3438 9.3125 19.3438 11.5 18.0625C13.6562 16.8125 15 14.5312 15 12ZM0 12C0 9.15625 1.5 6.53125 4 5.09375C6.46875 3.65625 9.5 3.65625 12 5.09375C14.4688 6.53125 16 9.15625 16 12C16 14.875 14.4688 17.5 12 18.9375C9.5 20.375 6.46875 20.375 4 18.9375C1.5 17.5 0 14.875 0 12ZM8.25 8.09375C8.375 8.1875 8.5 8.34375 8.5 8.5V15H10C10.25 15 10.5 15.25 10.5 15.5C10.5 15.7812 10.25 16 10 16H8H6C5.71875 16 5.5 15.7812 5.5 15.5C5.5 15.25 5.71875 15 6 15H7.5V9.375L6.46875 9.9375C6.25 10.0938 5.9375 10 5.8125 9.75C5.65625 9.53125 5.75 9.21875 6 9.09375L7.75 8.09375C7.90625 8 8.09375 8 8.25 8.09375Z" fill="black" fill-opacity="0.72"/>
</g>
<defs>
<clipPath id="clip0_2556_15261">
<rect width="16" height="24" fill="white"/>
</clipPath>
</defs>
</svg>
