<svg width="30" height="36" viewBox="0 0 30 36" fill="none" xmlns="http://www.w3.org/2000/svg">
<g id="label-paired / xl / puzzle-piece-two-xl / bold" clip-path="url(#clip0_3546_872)">
<path id="icon" d="M10.125 19.0312C10.125 18.6562 10.125 18.2812 10.125 17.9531V16.2188C9.9375 16.2656 9.75 16.3125 9.5625 16.3125C9.04688 16.3125 8.57812 16.0312 8.29688 15.6562C8.01562 15.2812 7.875 14.7656 7.875 14.25C7.875 13.7344 8.01562 13.2188 8.29688 12.8438C8.57812 12.4688 9.04688 12.1875 9.5625 12.1875C9.75 12.1875 9.9375 12.2344 10.125 12.2812V11.3906C10.125 10.6875 10.7344 10.0781 11.4375 10.0781H13.0312C12.9375 9.89062 12.8906 9.70312 12.8906 9.51562C12.8906 9 13.2188 8.53125 13.5938 8.25C13.9688 7.96875 14.4375 7.78125 14.9531 7.78125C15.5156 7.78125 15.9844 7.96875 16.3594 8.25C16.7344 8.53125 17.0156 9 17.0156 9.51562C17.0156 9.70312 17.0156 9.89062 16.9219 10.0781H18.5156C19.2656 10.0781 19.8281 10.6875 19.8281 11.3906V12.7031V13.0781V13.125V17.9531V19.0312C19.8281 19.2656 19.8281 19.5938 19.8281 19.9219V20.8594C20.0156 20.7656 20.2031 20.7188 20.3906 20.7188C20.9062 20.7188 21.375 21.0469 21.6562 21.4219C21.9375 21.7969 22.0781 22.2656 22.0781 22.7812C22.0781 23.3438 21.9375 23.8125 21.6562 24.1875C21.375 24.5625 20.9062 24.8438 20.3906 24.8438C20.2031 24.8438 20.0156 24.8438 19.8281 24.75V26.5312V26.9531C19.8281 27.6562 19.2188 28.2656 18.5156 28.2656H16.0781C15.6562 28.2656 15.3281 27.9375 15.3281 27.5156C15.3281 27.2344 15.4219 27.0469 15.5156 26.9062C15.6562 26.8125 15.7031 26.7188 15.7031 26.5781C15.7031 26.3906 15.4219 26.0156 14.9531 26.0156C14.4375 26.0156 14.2031 26.3906 14.2031 26.5781C14.2031 26.7188 14.2031 26.8125 14.3438 26.9062C14.4375 27.0469 14.5781 27.2344 14.5781 27.5156C14.5781 27.9375 14.2031 28.2656 13.7812 28.2656H11.4375C10.7344 28.2656 10.125 27.4219 10.125 26.7188V21.6562V21.2344V19.9219C10.125 19.5938 10.125 19.3125 10.125 19.0312ZM15.7031 9.1875C15.5156 9.04688 15.2812 8.95312 14.9531 8.95312C14.6719 8.95312 14.4375 9.04688 14.25 9.1875C14.1094 9.28125 14.0156 9.42188 14.0156 9.51562C14.0156 9.60938 14.1094 9.75 14.2969 9.89062C14.4844 9.98438 14.5781 10.2188 14.5781 10.5C14.5781 10.875 14.2969 11.2031 13.875 11.2031H11.4375C11.3438 11.2031 11.25 11.2969 11.25 11.3906V13.1719C11.25 13.5469 10.9219 13.875 10.5469 13.875C10.2656 13.875 10.0312 13.7344 9.9375 13.5469C9.79688 13.3594 9.65625 13.3125 9.5625 13.3125C9.46875 13.3125 9.32812 13.3594 9.23438 13.5469C9.09375 13.6875 9 13.9219 9 14.25C9 14.5312 9.09375 14.8125 9.23438 14.9531C9.32812 15.1406 9.46875 15.1875 9.5625 15.1875C9.65625 15.1875 9.79688 15.1406 9.9375 14.9531C10.0312 14.7656 10.2656 14.625 10.5469 14.625C10.9219 14.625 11.2031 14.9531 11.2031 15.3281V18.4219C11.2031 18.5156 11.3438 18.5625 11.4375 18.6094H13.0312C12.9375 18.4219 12.9375 18.2344 12.9375 18.0469C12.9375 17.5312 13.2188 17.0625 13.5938 16.7812C13.9688 16.5 14.4375 16.3125 15 16.3125C15.5156 16.3125 15.9844 16.5 16.3594 16.7812C16.7344 17.0625 17.0625 17.5312 17.0625 18.0469C17.0625 18.2344 17.0156 18.4219 16.9219 18.6094H18.5156C18.5625 18.6094 18.5625 18.6094 18.6094 18.6094C18.7031 18.6094 18.7031 18.5156 18.7031 18.4219V11.3906C18.7031 11.2969 18.6562 11.2031 18.5156 11.2031H16.0781C15.6562 11.2031 15.3281 10.875 15.3281 10.5C15.3281 10.2188 15.4688 9.98438 15.6562 9.89062C15.8438 9.75 15.8906 9.60938 15.8906 9.51562C15.8906 9.42188 15.8438 9.28125 15.7031 9.1875ZM11.4375 19.7344C11.2969 19.7344 11.2031 19.8281 11.2031 19.9219V26.9531C11.2031 27.0469 11.25 27.1406 11.3906 27.1406H13.1719C13.0781 27 13.0781 26.8125 13.0781 26.5781C13.0781 25.5938 13.9688 24.9844 14.9531 24.9844C15.8906 24.9844 16.8281 25.5938 16.8281 26.5781C16.8281 26.8125 16.7812 27 16.6875 27.1406H18.5156C18.6094 27.1406 18.7031 27.0938 18.7031 26.9531V23.8594C18.7031 23.4844 19.0312 23.1562 19.4062 23.1562C19.6875 23.1562 19.9219 23.2969 20.0156 23.4844C20.1562 23.6719 20.2969 23.7188 20.3906 23.7188C20.4844 23.7188 20.625 23.6719 20.7188 23.4844C20.8594 23.3438 20.9531 23.0625 20.9531 22.7812C20.9531 22.4531 20.8594 22.2188 20.7188 22.0781C20.625 21.8906 20.4844 21.8438 20.3906 21.8438C20.2969 21.8438 20.1562 21.8906 20.0156 22.0781C19.9219 22.2656 19.6875 22.4062 19.4062 22.4062C19.0312 22.4062 18.7031 22.0781 18.7031 21.7031V19.9219C18.7031 19.8281 18.6562 19.7344 18.5625 19.7344H16.1719H16.0781C15.6562 19.7344 15.375 19.4062 15.375 19.0312C15.375 18.75 15.4688 18.5156 15.6562 18.4219C15.8438 18.2812 15.9375 18.1406 15.9375 18.0469C15.9375 17.9531 15.8438 17.8125 15.7031 17.7188C15.5156 17.5781 15.2812 17.4844 15 17.4844C14.6719 17.4844 14.4375 17.5781 14.25 17.7188C14.1094 17.8125 14.0625 17.9531 14.0625 18.0469C14.0625 18.1406 14.1094 18.2812 14.2969 18.4219C14.4844 18.5156 14.625 18.75 14.625 19.0312C14.625 19.4062 14.2969 19.7344 13.875 19.7344H11.4844C11.4375 19.7344 11.4375 19.7344 11.4375 19.7344Z" fill="black" fill-opacity="0.72"/>
</g>
<defs>
<clipPath id="clip0_3546_872">
<rect width="30" height="36" fill="white"/>
</clipPath>
</defs>
</svg>
