<svg width="11" height="22" viewBox="0 0 11 22" fill="none" xmlns="http://www.w3.org/2000/svg">
<g id="label-paired / sm / file-excel-sm / regular" clip-path="url(#clip0_2556_12254)">
<path id="icon" d="M9 16.875C9.46484 16.875 9.875 16.4922 9.875 16V9H6.8125C6.07422 9 5.5 8.42578 5.5 7.6875V4.625H2C1.50781 4.625 1.125 5.03516 1.125 5.5V16C1.125 16.4922 1.50781 16.875 2 16.875H9ZM6.8125 8.125H9.84766C9.82031 8.07031 9.79297 7.98828 9.73828 7.93359L6.56641 4.76172C6.51172 4.70703 6.42969 4.67969 6.375 4.65234V7.6875C6.375 7.93359 6.56641 8.125 6.8125 8.125ZM2 3.75H6.26562C6.59375 3.75 6.94922 3.91406 7.19531 4.16016L10.3398 7.30469C10.5859 7.55078 10.75 7.90625 10.75 8.23438V16C10.75 16.9844 9.95703 17.75 9 17.75H2C1.01562 17.75 0.25 16.9844 0.25 16V5.5C0.25 4.54297 1.01562 3.75 2 3.75ZM4.32422 10.5039L5.5 12.1992L6.64844 10.5039C6.8125 10.3125 7.08594 10.2578 7.27734 10.3945C7.46875 10.5312 7.52344 10.8047 7.38672 11.0234L6.01953 12.9375L7.38672 14.8789C7.52344 15.0977 7.46875 15.3438 7.27734 15.5078C7.05859 15.6445 6.8125 15.5898 6.64844 15.3984L5.5 13.7031L4.32422 15.3984C4.1875 15.5898 3.91406 15.6445 3.69531 15.5078C3.50391 15.3438 3.44922 15.0703 3.58594 14.8789L4.95312 12.9375L3.58594 11.0234C3.44922 10.8047 3.50391 10.5312 3.69531 10.3945C3.91406 10.2578 4.1875 10.3125 4.32422 10.5039Z" fill="black" fill-opacity="0.72"/>
</g>
<defs>
<clipPath id="clip0_2556_12254">
<rect width="11" height="22" fill="white"/>
</clipPath>
</defs>
</svg>
