<svg width="12" height="18" viewBox="0 0 12 18" fill="none" xmlns="http://www.w3.org/2000/svg">
<g id="label-paired / caption / circle-eight-caption / bold" clip-path="url(#clip0_2556_10236)">
<path id="icon" d="M10.875 9.5C10.875 7.76562 9.9375 6.17188 8.4375 5.28125C6.91406 4.41406 5.0625 4.41406 3.5625 5.28125C2.03906 6.17188 1.125 7.76562 1.125 9.5C1.125 11.2578 2.03906 12.8516 3.5625 13.7422C5.0625 14.6094 6.91406 14.6094 8.4375 13.7422C9.9375 12.8516 10.875 11.2578 10.875 9.5ZM0 9.5C0 7.36719 1.125 5.39844 3 4.32031C4.85156 3.24219 7.125 3.24219 9 4.32031C10.8516 5.39844 12 7.36719 12 9.5C12 11.6562 10.8516 13.625 9 14.7031C7.125 15.7812 4.85156 15.7812 3 14.7031C1.125 13.625 0 11.6562 0 9.5ZM6.1875 6.5C7.10156 6.5 7.875 7.27344 7.875 8.1875C7.875 8.5625 7.75781 8.91406 7.54688 9.17188C7.96875 9.52344 8.25 10.0391 8.25 10.625C8.25 11.6797 7.40625 12.5 6.375 12.5H5.625C4.57031 12.5 3.75 11.6797 3.75 10.625C3.75 10.0391 4.00781 9.52344 4.42969 9.17188C4.24219 8.91406 4.125 8.5625 4.125 8.1875C4.125 7.27344 4.875 6.5 5.8125 6.5H6.1875ZM5.8125 8.75H6.1875C6.49219 8.75 6.75 8.51562 6.75 8.1875C6.75 7.88281 6.49219 7.625 6.1875 7.625H5.8125C5.48438 7.625 5.25 7.88281 5.25 8.1875C5.25 8.51562 5.48438 8.75 5.8125 8.75ZM6.1875 9.875H5.8125H5.625C5.20312 9.875 4.875 10.2266 4.875 10.625C4.875 11.0469 5.20312 11.375 5.625 11.375H6.375C6.77344 11.375 7.125 11.0469 7.125 10.625C7.125 10.2266 6.77344 9.875 6.375 9.875H6.1875Z" fill="black" fill-opacity="0.72"/>
</g>
<defs>
<clipPath id="clip0_2556_10236">
<rect width="12" height="18" fill="white"/>
</clipPath>
</defs>
</svg>
