<svg width="18" height="36" viewBox="0 0 18 36" fill="none" xmlns="http://www.w3.org/2000/svg">
<g id="label-paired / xl / mobile-notch-xl / fill" clip-path="url(#clip0_2556_19606)">
<path id="icon" d="M6 9H4.5C4.07812 9 3.75 9.375 3.75 9.75V26.25C3.75 26.6719 4.07812 27 4.5 27H13.5C13.875 27 14.25 26.6719 14.25 26.25V9.75C14.25 9.375 13.875 9 13.5 9H12V9.75C12 10.1719 11.625 10.5 11.25 10.5H6.75C6.32812 10.5 6 10.1719 6 9.75V9ZM4.5 6H13.5C15.5625 6 17.25 7.6875 17.25 9.75V26.25C17.25 28.3594 15.5625 30 13.5 30H4.5C2.39062 30 0.75 28.3594 0.75 26.25V9.75C0.75 7.6875 2.39062 6 4.5 6ZM6 24.75C6 24.375 6.32812 24 6.75 24H11.25C11.625 24 12 24.375 12 24.75C12 25.1719 11.625 25.5 11.25 25.5H6.75C6.32812 25.5 6 25.1719 6 24.75Z" fill="black" fill-opacity="0.72"/>
</g>
<defs>
<clipPath id="clip0_2556_19606">
<rect width="18" height="36" fill="white"/>
</clipPath>
</defs>
</svg>
