<svg width="14" height="18" viewBox="0 0 14 18" fill="none" xmlns="http://www.w3.org/2000/svg">
<g id="label-paired / caption / house-blank-caption / fill" clip-path="url(#clip0_2556_10052)">
<path id="icon" d="M13.7266 9.5C13.7266 9.92188 13.375 10.25 12.9766 10.25H12.2266L12.25 14C12.25 14.8438 11.5938 15.5234 10.75 15.5234H3.25C2.40625 15.5234 1.75 14.8438 1.75 14.0234V10.25H1C0.578125 10.25 0.25 9.92188 0.25 9.5C0.25 9.28906 0.320312 9.10156 0.484375 8.9375L6.48438 3.6875C6.64844 3.52344 6.83594 3.5 7 3.5C7.16406 3.5 7.35156 3.54688 7.49219 3.66406L13.4688 8.9375C13.6562 9.10156 13.75 9.28906 13.7266 9.5Z" fill="black" fill-opacity="0.72"/>
</g>
<defs>
<clipPath id="clip0_2556_10052">
<rect width="14" height="18" fill="white"/>
</clipPath>
</defs>
</svg>
