<svg width="25" height="30" viewBox="0 0 25 30" fill="none" xmlns="http://www.w3.org/2000/svg">
<g id="label-paired / lg / graduation-cap-lg / bold" clip-path="url(#clip0_4124_444)">
<path id="icon" d="M12.5 8.625C12.3828 8.625 12.3047 8.66406 12.1875 8.70312L3.67188 11.75L5.42969 12.4141C5.625 12.2969 5.82031 12.2188 6.01562 12.1406L12.2656 9.79688C12.5781 9.67969 12.9688 9.83594 13.0859 10.1875C13.2031 10.5 13.0469 10.8516 12.6953 10.9688L7.1875 13.0391L12.1875 14.8359C12.3047 14.875 12.3828 14.875 12.5 14.875C12.5781 14.875 12.6953 14.875 12.7734 14.8359L21.2891 11.75L12.7734 8.70312C12.6953 8.66406 12.5781 8.625 12.5 8.625ZM0.585938 12.6484C0.234375 12.5312 0 12.1797 0 11.75C0 11.3594 0.234375 11.0078 0.585938 10.8906L11.5625 6.94531C11.8359 6.82812 12.1484 6.75 12.5 6.75C12.8125 6.75 13.125 6.82812 13.3984 6.94531L24.375 10.8906C24.7266 11.0078 25 11.3594 25 11.75C25 12.1797 24.7266 12.5312 24.375 12.6484L13.3984 16.5938C13.125 16.7109 12.8125 16.7891 12.5 16.7891C12.1484 16.7891 11.8359 16.7109 11.5625 16.5938L4.92188 14.2109C3.86719 15.1484 3.20312 16.4375 3.125 17.8828C3.35938 18.4297 3.51562 18.9766 3.63281 19.5234C3.86719 20.5781 4.0625 22.1016 3.71094 23.7812C3.67188 23.9375 3.59375 24.0938 3.4375 24.1719C3.28125 24.25 3.125 24.2891 2.96875 24.25L0.46875 23.625C0.234375 23.5859 0.078125 23.4297 0 23.2344C-0.0390625 23.0391 0 22.8047 0.117188 22.6484C0.429688 22.1797 0.742188 21.6719 0.976562 21.1641C1.44531 20.2656 1.875 19.1328 1.875 18V17.9609C1.91406 16.3594 2.57812 14.875 3.63281 13.7422L0.585938 12.6484ZM19.375 15.7734L20 21.4375C20 22.8438 16.6406 24.25 12.5 24.25C8.35938 24.25 5 22.8438 5 21.4375L5.58594 15.7734L7.38281 16.4375L6.91406 21.125C7.07031 21.2812 7.38281 21.4375 7.85156 21.6328C8.98438 22.0625 10.625 22.375 12.5 22.375C14.375 22.375 16.0156 22.0625 17.1094 21.6328C17.5781 21.4375 17.8906 21.2812 18.0469 21.125L17.5781 16.4375L19.375 15.7734ZM18.2422 20.9688V21.0078V20.9688ZM6.71875 20.9688V21.0078V20.9688Z" fill="black" fill-opacity="0.72"/>
</g>
<defs>
<clipPath id="clip0_4124_444">
<rect width="25" height="30" fill="white"/>
</clipPath>
</defs>
</svg>
