<svg width="12" height="18" viewBox="0 0 12 18" fill="none" xmlns="http://www.w3.org/2000/svg">
<g id="label-paired / caption / puzzle-caption / fill" clip-path="url(#clip0_3431_671)">
<path id="icon" d="M7.5 3.5H10.5C11.3203 3.5 12 4.17969 12 5V8C12 8.21094 11.8125 8.375 11.625 8.375H10.4062C10.2422 8.375 10.125 8.51562 10.125 8.65625V8.75C10.125 9.17188 9.77344 9.5 9.375 9.5C8.95312 9.5 8.625 9.17188 8.625 8.75V8.65625C8.625 8.51562 8.48438 8.375 8.34375 8.375H7.5C7.28906 8.375 7.125 8.21094 7.125 8V7.25C7.125 7.0625 7.28906 6.875 7.5 6.875H7.875C8.27344 6.875 8.625 6.54688 8.625 6.125C8.625 5.72656 8.27344 5.375 7.875 5.375H7.5C7.28906 5.375 7.125 5.21094 7.125 5V3.875C7.125 3.6875 7.28906 3.5 7.5 3.5ZM0 9.5V6.5C0 5.67969 0.65625 5 1.5 5H4.5C4.6875 5 4.875 5.1875 4.875 5.375V6.21875C4.875 6.38281 4.99219 6.5 5.15625 6.5H5.25C5.64844 6.5 6 6.85156 6 7.25C6 7.67188 5.64844 8 5.25 8H5.15625C4.99219 8 4.875 8.14062 4.875 8.28125V9.5C4.875 9.71094 4.6875 9.875 4.5 9.875H3.75C3.53906 9.875 3.375 9.71094 3.375 9.5V9.125C3.375 8.72656 3.02344 8.375 2.625 8.375C2.20312 8.375 1.875 8.72656 1.875 9.125V9.5C1.875 9.71094 1.6875 9.875 1.5 9.875H0.375C0.164062 9.875 0 9.71094 0 9.5ZM0 14V11C0 10.8125 0.164062 10.625 0.375 10.625H4.5C4.6875 10.625 4.875 10.8125 4.875 11V11.75C4.875 11.9609 4.6875 12.125 4.5 12.125H4.125C3.70312 12.125 3.375 12.4766 3.375 12.875C3.375 13.2969 3.70312 13.625 4.125 13.625H4.5C4.6875 13.625 4.875 13.8125 4.875 14V15.125C4.875 15.3359 4.6875 15.5 4.5 15.5H1.5C0.65625 15.5 0 14.8438 0 14ZM5.625 11C5.625 10.8125 5.78906 10.625 6 10.625H6.75C6.9375 10.625 7.125 10.8125 7.125 11V11.375C7.125 11.7969 7.45312 12.125 7.875 12.125C8.27344 12.125 8.625 11.7969 8.625 11.375V11C8.625 10.8125 8.78906 10.625 9 10.625H10.125C10.3125 10.625 10.5 10.8125 10.5 11V14C10.5 14.8438 9.82031 15.5 9 15.5H6C5.78906 15.5 5.625 15.3359 5.625 15.125V11Z" fill="black" fill-opacity="0.72"/>
</g>
<defs>
<clipPath id="clip0_3431_671">
<rect width="12" height="18" fill="white"/>
</clipPath>
</defs>
</svg>
