<svg width="27" height="36" viewBox="0 0 27 36" fill="none" xmlns="http://www.w3.org/2000/svg">
<g id="label-paired / xl / star-xl / regular" clip-path="url(#clip0_2556_19550)">
<path id="icon" d="M10.5938 13.9219C10.3594 14.3906 9.9375 14.6719 9.46875 14.7656L3.04688 15.7031L7.6875 20.3438C8.0625 20.6719 8.20312 21.1875 8.10938 21.6562L7.03125 28.2188L12.75 25.125C13.2188 24.8906 13.7344 24.8906 14.2031 25.125L19.9219 28.2188L18.8438 21.6562C18.75 21.1875 18.8906 20.6719 19.2656 20.3438L23.9062 15.7031L17.4844 14.7656C16.9688 14.6719 16.5469 14.3906 16.3594 13.9219L13.4531 8.01562L10.5938 13.9219ZM19.875 29.9062H19.9219L13.5 26.4375L7.07812 29.9062C6.70312 30.0938 6.23438 30.0469 5.85938 29.8125C5.53125 29.5312 5.34375 29.1094 5.4375 28.6875L6.65625 21.4219L1.45312 16.2656C1.125 15.9375 1.03125 15.5156 1.17188 15.0938C1.3125 14.7188 1.64062 14.3906 2.0625 14.3438L9.23438 13.2656L12.4688 6.65625C12.6562 6.28125 13.0312 6 13.4531 6C13.9219 6 14.2969 6.28125 14.4844 6.65625L17.7188 13.2656L24.8906 14.3438C25.3125 14.3906 25.6406 14.7188 25.7812 15.0938C25.9219 15.5156 25.8281 15.9375 25.5 16.2656L20.2969 21.4219L21.5156 28.6875C21.6094 29.1094 21.4219 29.5312 21.0938 29.8125C20.7188 30.0469 20.2969 30.0938 19.875 29.9062Z" fill="black" fill-opacity="0.72"/>
</g>
<defs>
<clipPath id="clip0_2556_19550">
<rect width="27" height="36" fill="white"/>
</clipPath>
</defs>
</svg>
