<svg width="18" height="24" viewBox="0 0 18 24" fill="none" xmlns="http://www.w3.org/2000/svg">
<g id="label-paired / md / video-md / fill" clip-path="url(#clip0_2556_15009)">
<path id="icon" d="M0 8C0 6.90625 0.875 6 2 6H10C11.0938 6 12 6.90625 12 8V16C12 17.125 11.0938 18 10 18H2C0.875 18 0 17.125 0 16V8ZM17.4688 7.125C17.7812 7.3125 18 7.65625 18 8V16C18 16.375 17.7812 16.7188 17.4688 16.9062C17.125 17.0625 16.75 17.0625 16.4375 16.8438L13.4375 14.8438L13 14.5625V14V10V9.46875L13.4375 9.1875L16.4375 7.1875C16.75 6.96875 17.125 6.96875 17.4688 7.125Z" fill="black" fill-opacity="0.72"/>
</g>
<defs>
<clipPath id="clip0_2556_15009">
<rect width="18" height="24" fill="white"/>
</clipPath>
</defs>
</svg>
