<svg width="12" height="36" viewBox="0 0 12 36" fill="none" xmlns="http://www.w3.org/2000/svg">
<g id="label-paired / xl / one-xl / regular" clip-path="url(#clip0_2556_19609)">
<path id="icon" d="M6.75 8.25V27H11.25C11.625 27 12 27.375 12 27.75C12 28.1719 11.625 28.5 11.25 28.5H6H0.75C0.328125 28.5 0 28.1719 0 27.75C0 27.375 0.328125 27 0.75 27H5.25V9.65625L1.875 11.9062C1.54688 12.1406 1.07812 12.0469 0.84375 11.6719C0.609375 11.3438 0.703125 10.875 1.07812 10.6406L5.57812 7.64062C5.8125 7.5 6.09375 7.5 6.32812 7.59375C6.5625 7.73438 6.75 8.01562 6.75 8.25Z" fill="black" fill-opacity="0.72"/>
</g>
<defs>
<clipPath id="clip0_2556_19609">
<rect width="12" height="36" fill="white"/>
</clipPath>
</defs>
</svg>
