<svg width="12" height="18" viewBox="0 0 12 18" fill="none" xmlns="http://www.w3.org/2000/svg">
<g id="label-paired / caption / circle-euro-caption / fill" clip-path="url(#clip0_2556_10429)">
<path id="icon" d="M6 15.5C3.84375 15.5 1.875 14.375 0.796875 12.5C-0.28125 10.6484 -0.28125 8.375 0.796875 6.5C1.875 4.64844 3.84375 3.5 6 3.5C8.13281 3.5 10.1016 4.64844 11.1797 6.5C12.2578 8.375 12.2578 10.6484 11.1797 12.5C10.1016 14.375 8.13281 15.5 6 15.5ZM3 9.875C2.78906 9.875 2.625 10.0625 2.625 10.25C2.625 10.4609 2.78906 10.625 3 10.625H3.5625C3.98438 11.75 5.08594 12.5469 6.35156 12.5469H7.33594C7.64062 12.5469 7.89844 12.2891 7.89844 11.9844C7.89844 11.6797 7.64062 11.4219 7.33594 11.4219H6.35156C5.71875 11.4219 5.17969 11.1172 4.82812 10.625H6.75C6.9375 10.625 7.125 10.4609 7.125 10.25C7.125 10.0625 6.9375 9.875 6.75 9.875H4.5C4.47656 9.78125 4.47656 9.64062 4.47656 9.52344C4.47656 9.38281 4.47656 9.26562 4.5 9.125H6.75C6.9375 9.125 7.125 8.96094 7.125 8.75C7.125 8.5625 6.9375 8.375 6.75 8.375H4.85156C5.20312 7.92969 5.74219 7.625 6.35156 7.625H7.33594C7.64062 7.625 7.89844 7.39062 7.89844 7.0625C7.89844 6.75781 7.64062 6.5 7.33594 6.5H6.35156C5.10938 6.5 4.00781 7.29688 3.5625 8.375H3C2.78906 8.375 2.625 8.5625 2.625 8.75C2.625 8.96094 2.78906 9.125 3 9.125H3.375C3.35156 9.26562 3.35156 9.40625 3.35156 9.52344C3.35156 9.64062 3.35156 9.75781 3.375 9.875H3Z" fill="black" fill-opacity="0.72"/>
</g>
<defs>
<clipPath id="clip0_2556_10429">
<rect width="12" height="18" fill="white"/>
</clipPath>
</defs>
</svg>
