<svg width="16" height="24" viewBox="0 0 16 24" fill="none" xmlns="http://www.w3.org/2000/svg">
<g id="label-paired / md / circle-nine-md / fill" clip-path="url(#clip0_2556_14810)">
<path id="icon" d="M0 12C0 9.15625 1.5 6.53125 4 5.09375C6.46875 3.65625 9.5 3.65625 12 5.09375C14.4688 6.53125 16 9.15625 16 12C16 14.875 14.4688 17.5 12 18.9375C9.5 20.375 6.46875 20.375 4 18.9375C1.5 17.5 0 14.875 0 12ZM8 12.5C7.4375 12.5 6.96875 12.2188 6.6875 11.75C6.40625 11.3125 6.40625 10.7188 6.6875 10.25C6.96875 9.8125 7.4375 9.5 8 9.5C8.53125 9.5 9 9.8125 9.28125 10.25C9.5625 10.7188 9.5625 11.3125 9.28125 11.75C9 12.2188 8.53125 12.5 8 12.5ZM7.1875 13.9062L6.25 14.6875C5.9375 14.9688 5.90625 15.4375 6.15625 15.75C6.4375 16.0625 6.90625 16.0938 7.21875 15.8438L9.78125 13.6562C10.5312 13 11 12.0312 11 11C11 9.34375 9.65625 8 8 8C6.34375 8 5 9.34375 5 11C5 12.375 5.90625 13.5625 7.1875 13.9062Z" fill="black" fill-opacity="0.72"/>
</g>
<defs>
<clipPath id="clip0_2556_14810">
<rect width="16" height="24" fill="white"/>
</clipPath>
</defs>
</svg>
