<svg width="20" height="30" viewBox="0 0 20 30" fill="none" xmlns="http://www.w3.org/2000/svg">
<g id="label-paired / lg / circle-dot-lg / regular" clip-path="url(#clip0_2556_17438)">
<path id="icon" d="M18.75 15.5C18.75 12.375 17.0703 9.52344 14.375 7.96094C11.6406 6.35938 8.32031 6.35938 5.625 7.96094C2.89062 9.52344 1.25 12.375 1.25 15.5C1.25 18.6641 2.89062 21.5156 5.625 23.0781C8.32031 24.6797 11.6406 24.6797 14.375 23.0781C17.0703 21.5156 18.75 18.6641 18.75 15.5ZM0 15.5C0 11.9453 1.875 8.66406 5 6.86719C8.08594 5.07031 11.875 5.07031 15 6.86719C18.0859 8.66406 20 11.9453 20 15.5C20 19.0938 18.0859 22.375 15 24.1719C11.875 25.9688 8.08594 25.9688 5 24.1719C1.875 22.375 0 19.0938 0 15.5ZM12.5 15.5C12.5 14.6406 11.9922 13.8203 11.25 13.3516C10.4688 12.9219 9.49219 12.9219 8.75 13.3516C7.96875 13.8203 7.5 14.6406 7.5 15.5C7.5 16.3984 7.96875 17.2188 8.75 17.6875C9.49219 18.1172 10.4688 18.1172 11.25 17.6875C11.9922 17.2188 12.5 16.3984 12.5 15.5ZM6.25 15.5C6.25 14.1719 6.95312 12.9609 8.125 12.2578C9.25781 11.5938 10.7031 11.5938 11.875 12.2578C13.0078 12.9609 13.75 14.1719 13.75 15.5C13.75 16.8672 13.0078 18.0781 11.875 18.7812C10.7031 19.4453 9.25781 19.4453 8.125 18.7812C6.95312 18.0781 6.25 16.8672 6.25 15.5Z" fill="black" fill-opacity="0.72"/>
</g>
<defs>
<clipPath id="clip0_2556_17438">
<rect width="20" height="30" fill="white"/>
</clipPath>
</defs>
</svg>
