<svg width="20" height="30" viewBox="0 0 20 30" fill="none" xmlns="http://www.w3.org/2000/svg">
<g id="label-paired / lg / playback-speed-lg / regular" clip-path="url(#clip0_3758_791)">
<path id="icon" d="M19.375 15.5C19.375 20.2656 15.8203 24.2109 11.25 24.7969V23.5469C15.1172 22.9609 18.125 19.5625 18.125 15.5C18.125 11.4375 15.1172 8.07812 11.25 7.49219V6.24219C15.8203 6.82812 19.375 10.7734 19.375 15.5ZM5.19531 8.9375L4.29688 8.07812C5.54688 7.10156 7.07031 6.4375 8.75 6.24219V7.49219C7.42188 7.6875 6.21094 8.19531 5.19531 8.9375ZM3.4375 10.7344C2.65625 11.75 2.14844 12.9609 1.95312 14.25H0.703125C0.898438 12.6094 1.5625 11.0859 2.53906 9.83594L3.4375 10.7344ZM3.4375 20.3047L2.53906 21.2031C1.5625 19.9531 0.898438 18.4297 0.703125 16.75H1.95312C2.14844 18.0781 2.65625 19.2891 3.4375 20.3047ZM8.75 23.5469V24.7969C7.07031 24.6016 5.54688 23.9375 4.29688 22.9609L5.19531 22.0625C6.21094 22.8438 7.42188 23.3516 8.75 23.5469ZM7.8125 10.5781C8.00781 10.4609 8.28125 10.5 8.47656 10.6172L14.7266 14.9922C14.8828 15.1094 15 15.3047 15 15.5C15 15.7344 14.8828 15.9297 14.7266 16.0469L8.47656 20.4219C8.28125 20.5391 8.00781 20.5391 7.8125 20.4609C7.61719 20.3438 7.5 20.1094 7.5 19.875V11.125C7.5 10.8906 7.61719 10.6953 7.8125 10.5781ZM8.75 12.3359V18.7031L13.2812 15.5L8.75 12.3359Z" fill="black" fill-opacity="0.72"/>
</g>
<defs>
<clipPath id="clip0_3758_791">
<rect width="20" height="30" fill="white"/>
</clipPath>
</defs>
</svg>
