<svg width="14" height="22" viewBox="0 0 14 22" fill="none" xmlns="http://www.w3.org/2000/svg">
<g id="label-paired / sm / sliders-sm / regular" clip-path="url(#clip0_3758_505)">
<path id="icon" d="M0 15.125C0 14.9062 0.191406 14.6875 0.4375 14.6875H2.21484C2.43359 13.7031 3.30859 12.9375 4.375 12.9375C5.41406 12.9375 6.31641 13.7031 6.50781 14.6875H13.5625C13.7812 14.6875 14 14.9062 14 15.125C14 15.3711 13.7812 15.5625 13.5625 15.5625H6.50781C6.31641 16.5742 5.41406 17.3125 4.375 17.3125C3.30859 17.3125 2.43359 16.5742 2.21484 15.5625H0.4375C0.191406 15.5625 0 15.3711 0 15.125ZM3.0625 15.125C3.0625 15.6172 3.30859 16.0273 3.71875 16.2734C4.10156 16.5195 4.62109 16.5195 5.03125 16.2734C5.41406 16.0273 5.6875 15.6172 5.6875 15.125C5.6875 14.6602 5.41406 14.25 5.03125 14.0039C4.62109 13.7578 4.10156 13.7578 3.71875 14.0039C3.30859 14.25 3.0625 14.6602 3.0625 15.125ZM8.3125 10.75C8.3125 11.2422 8.55859 11.6523 8.96875 11.8984C9.35156 12.1445 9.87109 12.1445 10.2812 11.8984C10.6641 11.6523 10.9375 11.2422 10.9375 10.75C10.9375 10.2852 10.6641 9.875 10.2812 9.62891C9.87109 9.38281 9.35156 9.38281 8.96875 9.62891C8.55859 9.875 8.3125 10.2852 8.3125 10.75ZM9.625 8.5625C10.6641 8.5625 11.5664 9.32812 11.7578 10.3125H13.5625C13.7812 10.3125 14 10.5312 14 10.75C14 10.9961 13.7812 11.1875 13.5625 11.1875H11.7578C11.5664 12.1992 10.6641 12.9375 9.625 12.9375C8.55859 12.9375 7.68359 12.1992 7.46484 11.1875H0.4375C0.191406 11.1875 0 10.9961 0 10.75C0 10.5312 0.191406 10.3125 0.4375 10.3125H7.46484C7.68359 9.32812 8.55859 8.5625 9.625 8.5625ZM5.25 7.6875C5.71484 7.6875 6.125 7.44141 6.37109 7.03125C6.61719 6.64844 6.61719 6.12891 6.37109 5.71875C6.125 5.33594 5.71484 5.0625 5.25 5.0625C4.75781 5.0625 4.34766 5.33594 4.10156 5.71875C3.85547 6.12891 3.85547 6.64844 4.10156 7.03125C4.34766 7.44141 4.75781 7.6875 5.25 7.6875ZM7.38281 5.9375H13.5625C13.7812 5.9375 14 6.15625 14 6.375C14 6.62109 13.7812 6.8125 13.5625 6.8125H7.38281C7.19141 7.82422 6.28906 8.5625 5.25 8.5625C4.18359 8.5625 3.30859 7.82422 3.08984 6.8125H0.4375C0.191406 6.8125 0 6.62109 0 6.375C0 6.15625 0.191406 5.9375 0.4375 5.9375H3.08984C3.30859 4.95312 4.18359 4.1875 5.25 4.1875C6.28906 4.1875 7.19141 4.95312 7.38281 5.9375Z" fill="black" fill-opacity="0.72"/>
</g>
<defs>
<clipPath id="clip0_3758_505">
<rect width="14" height="22" fill="white"/>
</clipPath>
</defs>
</svg>
