<svg width="27" height="36" viewBox="0 0 27 36" fill="none" xmlns="http://www.w3.org/2000/svg">
<g id="label-paired / xl / basket-shopping-xl / regular" clip-path="url(#clip0_2981_898)">
<path id="icon" d="M15.3281 6.14062C15.7031 5.90625 16.1719 6.04688 16.3594 6.375L21.4219 15H23.9531H25.5H26.25C26.625 15 27 15.375 27 15.75C27 16.1719 26.625 16.5 26.25 16.5H25.125L22.3125 27.75C21.9844 29.0625 20.7656 30 19.4062 30H7.59375C6.1875 30 5.01562 29.0625 4.64062 27.75L1.875 16.5H0.75C0.328125 16.5 0 16.1719 0 15.75C0 15.375 0.328125 15 0.75 15H1.5H3.04688H5.53125L10.5938 6.375C10.7812 6.04688 11.25 5.90625 11.625 6.14062C11.9531 6.32812 12.0938 6.79688 11.8594 7.17188L7.26562 15H19.6875L15.0938 7.17188C14.8594 6.79688 15 6.32812 15.3281 6.14062ZM3.42188 16.5L6.14062 27.375C6.28125 28.0312 6.89062 28.5 7.59375 28.5H19.4062C20.0625 28.5 20.6719 28.0312 20.8594 27.375L23.5781 16.5H3.42188ZM10.5 20.25V24.75C10.5 25.1719 10.125 25.5 9.75 25.5C9.32812 25.5 9 25.1719 9 24.75V20.25C9 19.875 9.32812 19.5 9.75 19.5C10.125 19.5 10.5 19.875 10.5 20.25ZM13.5 19.5C13.875 19.5 14.25 19.875 14.25 20.25V24.75C14.25 25.1719 13.875 25.5 13.5 25.5C13.0781 25.5 12.75 25.1719 12.75 24.75V20.25C12.75 19.875 13.0781 19.5 13.5 19.5ZM18 20.25V24.75C18 25.1719 17.625 25.5 17.25 25.5C16.8281 25.5 16.5 25.1719 16.5 24.75V20.25C16.5 19.875 16.8281 19.5 17.25 19.5C17.625 19.5 18 19.875 18 20.25Z" fill="black" fill-opacity="0.72"/>
</g>
<defs>
<clipPath id="clip0_2981_898">
<rect width="27" height="36" fill="white"/>
</clipPath>
</defs>
</svg>
