<svg width="27" height="36" viewBox="0 0 27 36" fill="none" xmlns="http://www.w3.org/2000/svg">
<g id="label-paired / xl / credit-card-xl / bold" clip-path="url(#clip0_2556_19274)">
<path id="icon" d="M24 9.75H3C2.57812 9.75 2.25 10.125 2.25 10.5V12H24.75V10.5C24.75 10.125 24.375 9.75 24 9.75ZM24.75 16.5H2.25V25.5C2.25 25.9219 2.57812 26.25 3 26.25H24C24.375 26.25 24.75 25.9219 24.75 25.5V16.5ZM3 7.5H24C25.6406 7.5 27 8.85938 27 10.5V25.5C27 27.1875 25.6406 28.5 24 28.5H3C1.3125 28.5 0 27.1875 0 25.5V10.5C0 8.85938 1.3125 7.5 3 7.5ZM5.625 21.75H7.875C8.48438 21.75 9 22.2656 9 22.875C9 23.5312 8.48438 24 7.875 24H5.625C4.96875 24 4.5 23.5312 4.5 22.875C4.5 22.2656 4.96875 21.75 5.625 21.75ZM11.625 21.75H16.875C17.4844 21.75 18 22.2656 18 22.875C18 23.5312 17.4844 24 16.875 24H11.625C10.9688 24 10.5 23.5312 10.5 22.875C10.5 22.2656 10.9688 21.75 11.625 21.75Z" fill="black" fill-opacity="0.72"/>
</g>
<defs>
<clipPath id="clip0_2556_19274">
<rect width="27" height="36" fill="white"/>
</clipPath>
</defs>
</svg>
