<svg width="16" height="24" viewBox="0 0 16 24" fill="none" xmlns="http://www.w3.org/2000/svg">
<g id="label-paired / md / rotate-device-md / bold" clip-path="url(#clip0_4329_556)">
<path id="icon" d="M13.0625 7.09375C14.1562 8.1875 14.6875 9.59375 14.6875 11.0312H15.0938H15.5C15.5 9.40625 14.875 7.75 13.625 6.5C13.3438 6.25 13.0625 6 12.7812 5.78125L12.4688 5.59375C12.0938 5.375 11.7188 5.1875 11.3438 5.03125L10.9688 4.90625L10.5312 4.8125C10.1875 4.71875 9.8125 4.65625 9.46875 4.65625L9.09375 4.625H8.125L10.5625 7.0625L10.8438 6.78125L11.125 6.5L10.1562 5.53125C10.2188 5.5625 10.2812 5.5625 10.375 5.59375L10.7188 5.6875L11.0625 5.8125C11.4062 5.9375 11.7188 6.09375 12.0312 6.28125L12.3125 6.4375C12.5625 6.625 12.8125 6.84375 13.0625 7.09375ZM3.125 17C2.03125 15.9062 1.46875 14.5 1.46875 13.0625H1.09375H0.6875C0.6875 14.6875 1.3125 16.3438 2.5625 17.5938C2.8125 17.8438 3.125 18.0938 3.40625 18.3125L3.71875 18.5C4.0625 18.7188 4.4375 18.9062 4.84375 19.0625L5.21875 19.1875L5.625 19.2812C6 19.375 6.34375 19.4375 6.71875 19.4375L7.09375 19.4688H8.03125L5.625 17L5.34375 17.2812L5.0625 17.5625L6.03125 18.5625C5.96875 18.5312 5.875 18.5312 5.8125 18.5L5.46875 18.4062L5.125 18.2812C4.78125 18.1562 4.46875 18 4.15625 17.8125L3.875 17.6562C3.625 17.4688 3.34375 17.25 3.125 17ZM13.3125 14.4375L10.5 17.2812C9.9375 17.8125 9.0625 17.8125 8.5 17.2812L2.84375 11.625C2.3125 11.0625 2.3125 10.1875 2.84375 9.65625L5.6875 6.8125C6.21875 6.28125 7.125 6.28125 7.65625 6.8125L13.3125 12.4688C13.875 13.0312 13.875 13.9062 13.3125 14.4375ZM5.96875 8.78125L4.84375 9.9375C4.59375 10.1562 4.21875 10.1562 4 9.9375L3.84375 9.78125L3.4375 10.2188C3.1875 10.4375 3.1875 10.8125 3.4375 11.0625L9.09375 16.7188C9.3125 16.9375 9.6875 16.9375 9.9375 16.7188L12.75 13.875C13 13.6562 13 13.2812 12.75 13.0312L7.09375 7.375C6.875 7.15625 6.5 7.15625 6.25 7.375L5.8125 7.8125L5.96875 7.9375C6.1875 8.1875 6.1875 8.5625 5.96875 8.78125ZM5.46875 8.375L5.25 8.15625L4.1875 9.21875L4.40625 9.4375L5.46875 8.375Z" fill="black" fill-opacity="0.72"/>
</g>
<defs>
<clipPath id="clip0_4329_556">
<rect width="16" height="24" fill="white"/>
</clipPath>
</defs>
</svg>
