<svg width="24" height="36" viewBox="0 0 24 36" fill="none" xmlns="http://www.w3.org/2000/svg">
<g id="label-paired / xl / face-viewfinder-xl / regular" clip-path="url(#clip0_2556_19697)">
<path id="icon" d="M2.25 6H6.75C7.125 6 7.5 6.375 7.5 6.75C7.5 7.17188 7.125 7.5 6.75 7.5H2.25C1.82812 7.5 1.5 7.875 1.5 8.25V12.75C1.5 13.1719 1.125 13.5 0.75 13.5C0.328125 13.5 0 13.1719 0 12.75V8.25C0 7.03125 0.984375 6 2.25 6ZM21.75 6C22.9688 6 24 7.03125 24 8.25V12.75C24 13.1719 23.625 13.5 23.25 13.5C22.8281 13.5 22.5 13.1719 22.5 12.75V8.25C22.5 7.875 22.125 7.5 21.75 7.5H17.25C16.8281 7.5 16.5 7.17188 16.5 6.75C16.5 6.375 16.8281 6 17.25 6H21.75ZM0 27.75V23.25C0 22.875 0.328125 22.5 0.75 22.5C1.125 22.5 1.5 22.875 1.5 23.25V27.75C1.5 28.1719 1.82812 28.5 2.25 28.5H6.75C7.125 28.5 7.5 28.875 7.5 29.25C7.5 29.6719 7.125 30 6.75 30H2.25C0.984375 30 0 29.0156 0 27.75ZM21.75 30H17.25C16.8281 30 16.5 29.6719 16.5 29.25C16.5 28.875 16.8281 28.5 17.25 28.5H21.75C22.125 28.5 22.5 28.1719 22.5 27.75V23.25C22.5 22.875 22.8281 22.5 23.25 22.5C23.625 22.5 24 22.875 24 23.25V27.75C24 29.0156 22.9688 30 21.75 30ZM11.25 16.125C11.25 16.7812 10.7344 17.25 10.125 17.25C9.46875 17.25 9 16.7812 9 16.125C9 15.5156 9.46875 15 10.125 15C10.7344 15 11.25 15.5156 11.25 16.125ZM13.875 17.25C13.2188 17.25 12.75 16.7812 12.75 16.125C12.75 15.5156 13.2188 15 13.875 15C14.4844 15 15 15.5156 15 16.125C15 16.7812 14.4844 17.25 13.875 17.25ZM12 12C9.84375 12 7.875 13.1719 6.79688 15C5.71875 16.875 5.71875 19.1719 6.79688 21C7.875 22.875 9.84375 24 12 24C14.1094 24 16.0781 22.875 17.1562 21C18.2344 19.1719 18.2344 16.875 17.1562 15C16.0781 13.1719 14.1094 12 12 12ZM12 25.5C9.28125 25.5 6.84375 24.0938 5.48438 21.75C4.125 19.4531 4.125 16.5938 5.48438 14.25C6.84375 11.9531 9.28125 10.5 12 10.5C14.6719 10.5 17.1094 11.9531 18.4688 14.25C19.8281 16.5938 19.8281 19.4531 18.4688 21.75C17.1094 24.0938 14.6719 25.5 12 25.5ZM10.0312 19.125C10.4062 19.8281 11.1562 20.25 12 20.25C12.7969 20.25 13.5469 19.8281 13.9219 19.125C14.1562 18.7969 14.5781 18.6562 14.9531 18.8906C15.3281 19.0781 15.4219 19.5469 15.2344 19.9219C14.5781 21 13.3594 21.7969 12 21.7969C10.5938 21.7969 9.375 21 8.71875 19.9219C8.53125 19.5469 8.625 19.0781 9 18.8906C9.375 18.6562 9.84375 18.7969 10.0312 19.125Z" fill="black" fill-opacity="0.72"/>
</g>
<defs>
<clipPath id="clip0_2556_19697">
<rect width="24" height="36" fill="white"/>
</clipPath>
</defs>
</svg>
