<svg width="24" height="36" viewBox="0 0 24 36" fill="none" xmlns="http://www.w3.org/2000/svg">
<g id="label-paired / xl / file-certificate-xl / regular" clip-path="url(#clip0_2556_19301)">
<path id="icon" d="M22.5 27V15H17.25C15.9844 15 15 14.0156 15 12.75V7.5H9C8.15625 7.5 7.5 8.20312 7.5 9V12C7.07812 12 6.65625 12.0469 6.28125 12.1875C6.1875 12.2344 6.04688 12.3281 6 12.3281V12.375V9C6 7.35938 7.3125 6 9 6H16.3125C16.875 6 17.4844 6.28125 17.9062 6.70312L23.2969 12.0938C23.7188 12.5156 24 13.125 24 13.6875V27C24 28.6875 22.6406 30 21 30H10.3594C10.4531 29.7656 10.5 29.5312 10.5 29.25V28.5H21C21.7969 28.5 22.5 27.8438 22.5 27ZM22.4531 13.5C22.4062 13.4062 22.3594 13.2656 22.2656 13.1719L16.8281 7.73438C16.7344 7.64062 16.5938 7.59375 16.5 7.54688V12.75C16.5 13.1719 16.8281 13.5 17.25 13.5H22.4531ZM11.6719 19.5V19.5469C11.6719 19.5469 11.6719 19.6406 11.8594 20.0156C12.1406 20.7188 11.9062 21.5625 11.2969 22.0312C10.9688 22.2656 10.9219 22.3594 10.9219 22.3594C10.9219 22.4062 10.875 22.5 10.8281 22.875C10.7344 23.6719 10.125 24.2812 9.32812 24.375C9.14062 24.375 9.04688 24.4219 9 24.4219V29.25C9 29.5312 8.8125 29.8125 8.57812 29.9531C8.34375 30.0469 8.0625 30.0469 7.82812 29.9062L6 28.6875L4.125 29.9062C3.9375 30.0469 3.60938 30.0469 3.375 29.9531C3.14062 29.8125 3 29.5312 3 29.25V24.4219C2.90625 24.4219 2.8125 24.375 2.625 24.375C1.82812 24.2344 1.26562 23.6719 1.125 22.875C1.07812 22.4531 1.07812 22.4062 1.03125 22.3594C1.03125 22.3594 0.984375 22.2656 0.65625 22.0312C0.046875 21.5625 -0.1875 20.7188 0.09375 20.0156C0.28125 19.6406 0.28125 19.5469 0.28125 19.5C0.28125 19.5 0.28125 19.4062 0.09375 19.0312C-0.1875 18.3281 0.046875 17.4844 0.65625 17.0156C0.984375 16.7812 1.03125 16.6875 1.03125 16.6875C1.03125 16.6406 1.07812 16.5469 1.125 16.1719C1.26562 15.375 1.82812 14.7656 2.625 14.6719C3.04688 14.625 3.09375 14.5781 3.14062 14.5781C3.14062 14.5781 3.23438 14.5312 3.46875 14.2031C3.9375 13.5938 4.78125 13.3594 5.48438 13.6406C5.85938 13.8281 5.95312 13.8281 6 13.8281C6 13.8281 6.09375 13.8281 6.46875 13.6406C7.17188 13.3594 8.01562 13.5938 8.48438 14.2031C8.76562 14.5312 8.8125 14.5781 8.85938 14.5781C8.85938 14.5781 8.95312 14.625 9.32812 14.6719C10.125 14.7656 10.7344 15.375 10.8281 16.1719C10.875 16.5469 10.9219 16.6406 10.9219 16.6875C10.9219 16.6875 10.9688 16.7812 11.2969 17.0156C11.9062 17.4844 12.1406 18.3281 11.8594 19.0312C11.7188 19.4062 11.6719 19.5 11.6719 19.5ZM4.5 27.8906L5.57812 27.1406C5.8125 27 6.14062 27 6.375 27.1406L7.5 27.8906V25.5C7.125 25.5469 6.79688 25.5469 6.46875 25.4062C6.09375 25.2188 6 25.2188 6 25.2188C5.95312 25.2188 5.85938 25.2188 5.48438 25.4062C5.15625 25.5469 4.82812 25.5469 4.5 25.5V27.8906ZM1.78125 19.5C1.78125 19.9219 1.64062 20.25 1.5 20.5781C1.45312 20.6719 1.5 20.7656 1.59375 20.8594C1.875 21.0938 2.15625 21.2812 2.34375 21.6094C2.53125 21.9375 2.57812 22.3125 2.625 22.6875C2.625 22.7812 2.71875 22.875 2.8125 22.875C3.1875 22.9219 3.5625 22.9688 3.89062 23.1562C4.21875 23.3438 4.45312 23.625 4.64062 23.9062C4.73438 24 4.82812 24.0469 4.92188 24C5.25 23.8594 5.57812 23.7188 6 23.7188C6.375 23.7188 6.70312 23.8594 7.03125 24C7.125 24.0469 7.21875 24 7.3125 23.9062C7.54688 23.625 7.73438 23.3438 8.0625 23.1562C8.39062 22.9688 8.76562 22.9219 9.14062 22.875C9.23438 22.875 9.32812 22.7812 9.32812 22.6875C9.375 22.3125 9.42188 21.9375 9.60938 21.6094C9.79688 21.2812 10.0781 21.0469 10.4062 20.8594C10.4531 20.7656 10.5 20.6719 10.4531 20.5781C10.3125 20.25 10.1719 19.9219 10.1719 19.5C10.1719 19.125 10.3125 18.7969 10.4531 18.4688C10.5 18.375 10.4531 18.2812 10.4062 18.1875C10.0781 17.9531 9.79688 17.7656 9.60938 17.4375C9.42188 17.1094 9.375 16.7344 9.32812 16.3594C9.32812 16.2656 9.23438 16.1719 9.14062 16.1719C8.76562 16.125 8.39062 16.0781 8.0625 15.8906C7.73438 15.7031 7.54688 15.4219 7.3125 15.0938C7.21875 15.0469 7.125 15 7.03125 15.0469C6.70312 15.1875 6.375 15.3281 6 15.3281C5.57812 15.3281 5.25 15.1875 4.92188 15.0469C4.82812 15 4.73438 15.0469 4.64062 15.0938C4.40625 15.4219 4.21875 15.7031 3.89062 15.8906C3.5625 16.0781 3.1875 16.125 2.8125 16.1719C2.71875 16.1719 2.625 16.2656 2.625 16.3594C2.57812 16.7344 2.53125 17.1094 2.34375 17.4375C2.15625 17.7656 1.875 17.9531 1.59375 18.1875C1.5 18.2812 1.45312 18.375 1.5 18.4688C1.64062 18.7969 1.78125 19.125 1.78125 19.5Z" fill="black" fill-opacity="0.72"/>
</g>
<defs>
<clipPath id="clip0_2556_19301">
<rect width="24" height="36" fill="white"/>
</clipPath>
</defs>
</svg>
