<svg width="20" height="30" viewBox="0 0 20 30" fill="none" xmlns="http://www.w3.org/2000/svg">
<g id="label-paired / lg / life-ring-lg / bold" clip-path="url(#clip0_2556_17461)">
<path id="icon" d="M15.0391 21.9062L11.875 18.7422C11.3281 19.0938 10.6641 19.25 10 19.25C9.29688 19.25 8.63281 19.0938 8.08594 18.7422L4.92188 21.9062C6.32812 23 8.08594 23.625 10 23.625C11.875 23.625 13.6328 23 15.0391 21.9062ZM17.6953 21.9062L18.125 22.375C18.5156 22.7266 18.5156 23.3125 18.125 23.6641C17.7734 24.0547 17.1875 24.0547 16.8359 23.6641L16.3672 23.2344C14.6094 24.6406 12.4219 25.5 10 25.5C7.53906 25.5 5.35156 24.6406 3.59375 23.2344L3.125 23.6641C2.77344 24.0547 2.1875 24.0547 1.83594 23.6641C1.44531 23.3125 1.44531 22.7266 1.83594 22.3359L2.26562 21.9062C0.859375 20.1484 0 17.9609 0 15.5C0 13.0781 0.859375 10.8906 2.26562 9.13281L1.83594 8.66406C1.44531 8.3125 1.44531 7.72656 1.83594 7.33594C2.1875 6.98438 2.77344 6.98438 3.16406 7.33594L3.59375 7.80469C5.35156 6.39844 7.53906 5.5 10 5.5C12.4219 5.5 14.6094 6.39844 16.3672 7.80469L16.8359 7.375C17.1875 6.98438 17.7734 6.98438 18.1641 7.375C18.5156 7.72656 18.5156 8.3125 18.1641 8.66406L17.6953 9.13281C19.1016 10.8906 20 13.0781 20 15.5C20 17.9609 19.1016 20.1484 17.6953 21.9062ZM16.3672 20.5781C17.4609 19.1719 18.125 17.4141 18.125 15.5C18.125 13.625 17.4609 11.8672 16.3672 10.4609L13.2031 13.625C13.5547 14.1719 13.75 14.8359 13.75 15.5C13.75 16.2031 13.5547 16.8672 13.2031 17.4141L16.3672 20.5781ZM15.0391 9.13281C13.6328 8.03906 11.875 7.375 10 7.375C8.08594 7.375 6.32812 8.03906 4.92188 9.13281L8.08594 12.2969C8.63281 11.9453 9.29688 11.75 9.96094 11.75C10.6641 11.75 11.3281 11.9453 11.875 12.2969L15.0391 9.13281ZM6.75781 17.4141C6.40625 16.8672 6.25 16.2031 6.25 15.5391C6.25 14.8359 6.40625 14.1719 6.75781 13.625L3.59375 10.4609C2.5 11.8672 1.875 13.625 1.875 15.5C1.875 17.4141 2.5 19.1719 3.59375 20.5781L6.75781 17.4141ZM8.125 15.5C8.125 16.2031 8.47656 16.7891 9.0625 17.1406C9.60938 17.4922 10.3516 17.4922 10.9375 17.1406C11.4844 16.7891 11.875 16.2031 11.875 15.5C11.875 14.8359 11.4844 14.25 10.9375 13.8984C10.3516 13.5469 9.60938 13.5469 9.0625 13.8984C8.47656 14.25 8.125 14.8359 8.125 15.5Z" fill="black" fill-opacity="0.72"/>
</g>
<defs>
<clipPath id="clip0_2556_17461">
<rect width="20" height="30" fill="white"/>
</clipPath>
</defs>
</svg>
