<svg width="11" height="18" viewBox="0 0 11 18" fill="none" xmlns="http://www.w3.org/2000/svg">
<g id="label-paired / caption / whatsapp-caption" clip-path="url(#clip0_2556_9970)">
<path id="icon" d="M9.15625 5.79688C10.1406 6.78125 10.75 8.07031 10.75 9.47656C10.75 12.3359 8.35938 14.6797 5.47656 14.6797C4.60938 14.6797 3.76562 14.4453 2.99219 14.0469L0.25 14.75L0.976562 12.0547C0.53125 11.2812 0.273438 10.3906 0.273438 9.45312C0.273438 6.59375 2.61719 4.25 5.47656 4.25C6.88281 4.25 8.19531 4.8125 9.15625 5.79688ZM5.47656 13.7891C7.86719 13.7891 9.85938 11.8438 9.85938 9.47656C9.85938 8.30469 9.36719 7.22656 8.54688 6.40625C7.72656 5.58594 6.64844 5.14062 5.5 5.14062C3.10938 5.14062 1.16406 7.08594 1.16406 9.45312C1.16406 10.2734 1.39844 11.0703 1.82031 11.7734L1.9375 11.9375L1.49219 13.5312L3.13281 13.0859L3.27344 13.1797C3.95312 13.5781 4.70312 13.7891 5.47656 13.7891ZM7.86719 10.5547C7.98438 10.625 8.07812 10.6484 8.10156 10.7188C8.14844 10.7656 8.14844 11.0234 8.03125 11.3281C7.91406 11.6328 7.39844 11.9141 7.16406 11.9375C6.74219 12.0078 6.41406 11.9844 5.59375 11.6094C4.28125 11.0469 3.4375 9.73438 3.36719 9.66406C3.29688 9.57031 2.85156 8.96094 2.85156 8.30469C2.85156 7.67188 3.17969 7.36719 3.29688 7.22656C3.41406 7.08594 3.55469 7.0625 3.64844 7.0625C3.71875 7.0625 3.8125 7.0625 3.88281 7.0625C3.97656 7.0625 4.07031 7.03906 4.1875 7.29688C4.28125 7.55469 4.5625 8.1875 4.58594 8.25781C4.60938 8.32812 4.63281 8.39844 4.58594 8.49219C4.35156 8.98438 4.07031 8.96094 4.21094 9.19531C4.72656 10.0625 5.21875 10.3672 5.99219 10.7422C6.10938 10.8125 6.17969 10.7891 6.27344 10.7188C6.34375 10.625 6.60156 10.3203 6.67188 10.2031C6.76562 10.0625 6.85938 10.0859 6.97656 10.1328C7.09375 10.1797 7.72656 10.4844 7.86719 10.5547Z" fill="black" fill-opacity="0.72"/>
</g>
<defs>
<clipPath id="clip0_2556_9970">
<rect width="11" height="18" fill="white"/>
</clipPath>
</defs>
</svg>
