<svg width="16" height="24" viewBox="0 0 16 24" fill="none" xmlns="http://www.w3.org/2000/svg">
<g id="label-paired / md / circle-check-md / bold" clip-path="url(#clip0_2556_15054)">
<path id="icon" d="M8 5.5C5.65625 5.5 3.53125 6.75 2.34375 8.75C1.1875 10.7812 1.1875 13.25 2.34375 15.25C3.53125 17.2812 5.65625 18.5 8 18.5C10.3125 18.5 12.4375 17.2812 13.625 15.25C14.7812 13.25 14.7812 10.7812 13.625 8.75C12.4375 6.75 10.3125 5.5 8 5.5ZM8 20C5.125 20 2.5 18.5 1.0625 16C-0.375 13.5312 -0.375 10.5 1.0625 8C2.5 5.53125 5.125 4 8 4C10.8438 4 13.4688 5.53125 14.9062 8C16.3438 10.5 16.3438 13.5312 14.9062 16C13.4688 18.5 10.8438 20 8 20ZM11.5312 10.5312L7.53125 14.5312C7.21875 14.8438 6.75 14.8438 6.46875 14.5312L4.46875 12.5312C4.15625 12.25 4.15625 11.7812 4.46875 11.5C4.75 11.1875 5.21875 11.1875 5.53125 11.5L7 12.9688L10.4688 9.5C10.75 9.1875 11.2188 9.1875 11.5312 9.5C11.8125 9.78125 11.8125 10.25 11.5312 10.5312Z" fill="black" fill-opacity="0.72"/>
</g>
<defs>
<clipPath id="clip0_2556_15054">
<rect width="16" height="24" fill="white"/>
</clipPath>
</defs>
</svg>
