<svg width="18" height="24" viewBox="0 0 18 24" fill="none" xmlns="http://www.w3.org/2000/svg">
<g id="label-paired / md / rectangle-ad-md / bold" clip-path="url(#clip0_2556_14903)">
<path id="icon" d="M2 6.5C1.71875 6.5 1.5 6.75 1.5 7V17C1.5 17.2812 1.71875 17.5 2 17.5H16C16.25 17.5 16.5 17.2812 16.5 17V7C16.5 6.75 16.25 6.5 16 6.5H2ZM0 7C0 5.90625 0.875 5 2 5H16C17.0938 5 18 5.90625 18 7V17C18 18.125 17.0938 19 16 19H2C0.875 19 0 18.125 0 17V7ZM7.15625 9.4375L9.40625 13.9375C9.59375 14.3125 9.4375 14.75 9.0625 14.9375C8.71875 15.125 8.25 14.9688 8.0625 14.5938L7.90625 14.25H5.0625L4.90625 14.5938C4.71875 14.9688 4.28125 15.125 3.90625 14.9375C3.53125 14.75 3.375 14.3125 3.5625 13.9375L5.8125 9.4375C5.9375 9.1875 6.1875 9 6.5 9C6.78125 9 7.03125 9.15625 7.15625 9.4375ZM6.5 11.4375L5.8125 12.75H7.15625L6.5 11.4375ZM12.25 12C11.8125 12 11.5 12.3438 11.5 12.75C11.5 13.1875 11.8125 13.5 12.25 13.5C12.6562 13.5 13 13.1875 13 12.75C13 12.3438 12.6562 12 12.25 12ZM13 10.6562V9.75C13 9.34375 13.3125 9 13.75 9C14.1562 9 14.5 9.34375 14.5 9.75V12.75V14.25C14.5 14.6875 14.1562 15 13.75 15C13.5312 15 13.3438 14.9375 13.2188 14.7812C12.9062 14.9375 12.5938 15 12.25 15C11 15 10 14 10 12.75C10 11.5312 11 10.5 12.25 10.5C12.5 10.5 12.75 10.5625 13 10.6562Z" fill="black" fill-opacity="0.72"/>
</g>
<defs>
<clipPath id="clip0_2556_14903">
<rect width="18" height="24" fill="white"/>
</clipPath>
</defs>
</svg>
