<svg width="20" height="30" viewBox="0 0 20 30" fill="none" xmlns="http://www.w3.org/2000/svg">
<g id="label-paired / lg / at-lg / bold" clip-path="url(#clip0_2556_17108)">
<path id="icon" d="M10 7.375C5.50781 7.375 1.875 11.0469 1.875 15.5C1.875 19.9922 5.50781 23.625 10 23.625C10.5078 23.625 10.9375 24.0547 10.9375 24.5625C10.9375 25.1094 10.5078 25.5 10 25.5C4.45312 25.5 0 21.0469 0 15.5C0 9.99219 4.45312 5.5 10 5.5C15.5078 5.5 20 9.99219 20 15.5V16.5938C20 18.5859 18.3594 20.1875 16.4062 20.1875C15.1562 20.1875 14.1016 19.6016 13.4375 18.6641C12.5781 19.6016 11.3672 20.1875 10 20.1875C7.38281 20.1875 5.3125 18.1172 5.3125 15.5C5.3125 12.9219 7.38281 10.8125 10 10.8125C11.0938 10.8125 12.1484 11.2422 12.9297 11.8672C13.125 11.6328 13.3984 11.4375 13.75 11.4375C14.2578 11.4375 14.6875 11.8672 14.6875 12.375V15.5V16.5938C14.6875 17.5703 15.4297 18.3125 16.4062 18.3125C17.3438 18.3125 18.125 17.5703 18.125 16.5938V15.5C18.125 11.0469 14.4531 7.375 10 7.375ZM12.8125 15.5C12.8125 14.5234 12.2656 13.5859 11.4062 13.0781C10.5078 12.5703 9.45312 12.5703 8.59375 13.0781C7.69531 13.5859 7.1875 14.5234 7.1875 15.5C7.1875 16.5156 7.69531 17.4531 8.59375 17.9609C9.45312 18.4688 10.5078 18.4688 11.4062 17.9609C12.2656 17.4531 12.8125 16.5156 12.8125 15.5Z" fill="black" fill-opacity="0.72"/>
</g>
<defs>
<clipPath id="clip0_2556_17108">
<rect width="20" height="30" fill="white"/>
</clipPath>
</defs>
</svg>
