<svg width="16" height="24" viewBox="0 0 16 24" fill="none" xmlns="http://www.w3.org/2000/svg">
<g id="label-paired / md / shield-check-md / regular" clip-path="url(#clip0_2556_14665)">
<path id="icon" d="M7.59375 5.1875L2.0625 7.53125C1.71875 7.65625 1.46875 8 1.5 8.375C1.5 11.3125 2.71875 16.5 7.59375 18.8438C7.84375 18.9688 8.125 18.9688 8.375 18.8438C13.25 16.5 14.4688 11.3125 14.5 8.375C14.5 8 14.25 7.6875 13.9062 7.53125L8.375 5.1875C8.125 5.0625 7.84375 5.0625 7.59375 5.1875ZM8.78125 4.25L14.2812 6.59375C14.9688 6.90625 15.5 7.5625 15.5 8.375C15.4688 11.5 14.1875 17.1562 8.8125 19.75C8.28125 20 7.6875 20 7.15625 19.75C1.78125 17.1562 0.5 11.5 0.5 8.375C0.46875 7.5625 1 6.90625 1.6875 6.59375L7.21875 4.25C7.71875 4.03125 8.28125 4.03125 8.78125 4.25ZM8 9.75C7.5625 9.75 7.25 10.0938 7.25 10.5C7.25 10.9375 7.5625 11.25 8 11.25C8.40625 11.25 8.75 10.9375 8.75 10.5C8.75 10.0938 8.40625 9.75 8 9.75ZM9.75 10.5C9.75 11.3125 9.21875 11.9688 8.5 12.1875V14.5C8.5 14.7812 8.25 15 8 15C7.71875 15 7.5 14.7812 7.5 14.5V12.1875C6.75 11.9688 6.25 11.3125 6.25 10.5C6.25 9.5625 7.03125 8.75 8 8.75C8.9375 8.75 9.75 9.5625 9.75 10.5Z" fill="black" fill-opacity="0.72"/>
</g>
<defs>
<clipPath id="clip0_2556_14665">
<rect width="16" height="24" fill="white"/>
</clipPath>
</defs>
</svg>
