<svg width="12" height="18" viewBox="0 0 12 18" fill="none" xmlns="http://www.w3.org/2000/svg">
<g id="label-paired / caption / image-caption / bold" clip-path="url(#clip0_2556_9962)">
<path id="icon" d="M10.5 5.375H1.5C1.28906 5.375 1.125 5.5625 1.125 5.75V13.25V13.2734L1.21875 13.1328L3.09375 10.5078C3.21094 10.3438 3.375 10.25 3.5625 10.25C3.72656 10.25 3.91406 10.3438 4.00781 10.4844L4.73438 11.4922L6.67969 8.98438C6.77344 8.84375 6.9375 8.75 7.125 8.75C7.28906 8.75 7.45312 8.84375 7.57031 8.98438L10.7578 13.1094L10.875 13.25V5.75C10.875 5.5625 10.6875 5.375 10.5 5.375ZM1.5 4.25H10.5C11.3203 4.25 12 4.92969 12 5.75V13.25C12 14.0938 11.3203 14.75 10.5 14.75H1.5C0.65625 14.75 0 14.0938 0 13.25V5.75C0 4.92969 0.65625 4.25 1.5 4.25ZM3.375 8.75C2.95312 8.75 2.60156 8.53906 2.39062 8.1875C2.17969 7.85938 2.17969 7.41406 2.39062 7.0625C2.60156 6.73438 2.95312 6.5 3.375 6.5C3.77344 6.5 4.125 6.73438 4.33594 7.0625C4.54688 7.41406 4.54688 7.85938 4.33594 8.1875C4.125 8.53906 3.77344 8.75 3.375 8.75Z" fill="black" fill-opacity="0.72"/>
</g>
<defs>
<clipPath id="clip0_2556_9962">
<rect width="12" height="18" fill="white"/>
</clipPath>
</defs>
</svg>
