<svg width="13" height="22" viewBox="0 0 13 22" fill="none" xmlns="http://www.w3.org/2000/svg">
<g id="label-paired / sm / arrow-up-from-bracket-sm / regular" clip-path="url(#clip0_2556_12884)">
<path id="icon" d="M6.80078 3.88672L10.3008 7.38672C10.4648 7.55078 10.4648 7.85156 10.3008 8.01562C10.1367 8.17969 9.83594 8.17969 9.67188 8.01562L6.9375 5.25391V12.9375C6.9375 13.1836 6.71875 13.375 6.5 13.375C6.25391 13.375 6.0625 13.1836 6.0625 12.9375V5.25391L3.30078 8.01562C3.13672 8.17969 2.83594 8.17969 2.67188 8.01562C2.50781 7.85156 2.50781 7.55078 2.67188 7.38672L6.17188 3.88672C6.33594 3.72266 6.63672 3.72266 6.80078 3.88672ZM1.25 12.9375V15.5625C1.25 16.3008 1.82422 16.875 2.5625 16.875H10.4375C11.1484 16.875 11.75 16.3008 11.75 15.5625V12.9375C11.75 12.7188 11.9414 12.5 12.1875 12.5C12.4062 12.5 12.625 12.7188 12.625 12.9375V15.5625C12.625 16.793 11.6406 17.75 10.4375 17.75H2.5625C1.33203 17.75 0.375 16.793 0.375 15.5625V12.9375C0.375 12.7188 0.566406 12.5 0.8125 12.5C1.03125 12.5 1.25 12.7188 1.25 12.9375Z" fill="black" fill-opacity="0.72"/>
</g>
<defs>
<clipPath id="clip0_2556_12884">
<rect width="13" height="22" fill="white"/>
</clipPath>
</defs>
</svg>
