<svg width="20" height="24" viewBox="0 0 20 24" fill="none" xmlns="http://www.w3.org/2000/svg">
<g id="label-paired / md / handshake-md / fill" clip-path="url(#clip0_4513_689)">
<path id="icon" d="M10.0938 6.6875C10.625 6.25 11.2812 6 11.9688 6C12.5312 6 13.0938 6.1875 13.5625 6.46875L15.8438 7.9375L15.9688 8H16V13.9062L11.6562 9.90625L12.2812 9.40625C12.5 9.25 12.5625 8.9375 12.375 8.71875C12.2188 8.5 11.9062 8.4375 11.6875 8.625L8.5625 11.0312C8.03125 11.4375 7.25 11.3438 6.84375 10.7812C6.46875 10.25 6.5625 9.53125 7.0625 9.125L10.0938 6.6875ZM10.8125 10.5625L15 14.4062C15.5938 14.9688 15.6562 15.9062 15.0938 16.5312C14.5938 17.0938 13.75 17.1562 13.1562 16.75C13.0938 16.9375 12.9688 17.125 12.8438 17.2812C12.2812 17.875 11.3438 17.9375 10.7188 17.375L10.1875 16.875C10.125 17.125 10 17.3438 9.84375 17.5312C9.28125 18.125 8.34375 18.1875 7.71875 17.625L4.875 15H4V8L6.25 6.5C6.71875 6.1875 7.3125 6 7.875 6.03125C8.28125 6.03125 8.6875 6.09375 9.03125 6.25L6.4375 8.34375C5.53125 9.09375 5.34375 10.4375 6.03125 11.375C6.78125 12.375 8.21875 12.5938 9.1875 11.8125L10.8125 10.5625ZM0.5 8H3V15C3 15.5625 2.53125 16 2 16H1C0.4375 16 0 15.5625 0 15V8.5C0 8.25 0.21875 8 0.5 8ZM1.5 14C1.21875 14 1 14.25 1 14.5C1 14.7812 1.21875 15 1.5 15C1.75 15 2 14.7812 2 14.5C2 14.25 1.75 14 1.5 14ZM17 8H19.5C19.75 8 20 8.25 20 8.5V15C20 15.5625 19.5312 16 19 16H18C17.4375 16 17 15.5625 17 15V8ZM18 14.5C18 14.7812 18.2188 15 18.5 15C18.75 15 19 14.7812 19 14.5C19 14.25 18.75 14 18.5 14C18.2188 14 18 14.25 18 14.5Z" fill="black" fill-opacity="0.72"/>
</g>
<defs>
<clipPath id="clip0_4513_689">
<rect width="20" height="24" fill="white"/>
</clipPath>
</defs>
</svg>
