<svg width="18" height="22" viewBox="0 0 18 22" fill="none" xmlns="http://www.w3.org/2000/svg">
<g id="label-paired / sm / handshake-sm / regular" clip-path="url(#clip0_4513_678)">
<path id="icon" d="M7.44141 5.5H7.6875L6.73047 6.48438C6.26562 6.59375 5.85547 6.8125 5.47266 7.11328L4.37891 8.04297C4.32422 8.09766 4.24219 8.125 4.1875 8.125V7.05859L4.92578 6.42969C5.63672 5.82812 6.53906 5.5 7.44141 5.5ZM3.3125 13.4023V13.8125C3.3125 14.5508 2.71094 15.125 2 15.125H1.5625C0.824219 15.125 0.25 14.5508 0.25 13.8125V8.125C0.25 7.66016 0.632812 7.25 1.125 7.25H2.4375H3.3125V8.125V12.5273C3.75 12.5547 4.1875 12.7461 4.48828 13.0742L5.33594 13.8945V13.8672L6.42969 14.9609C6.78516 15.3164 7.35938 15.3438 7.74219 14.9883C7.82422 14.9336 7.90625 14.8242 7.96094 14.7422C8.01562 14.6055 8.15234 14.5234 8.28906 14.4961C8.42578 14.4688 8.5625 14.5234 8.64453 14.6328L8.86328 14.8516C9.21875 15.207 9.82031 15.1797 10.1484 14.7969C10.3125 14.6328 10.3945 14.4141 10.3672 14.1953C10.3672 14.0312 10.4492 13.8672 10.5859 13.7852C10.75 13.7031 10.9141 13.7031 11.0508 13.7852C11.3789 14.0039 11.8164 13.9766 12.1172 13.7031C12.4727 13.375 12.5 12.8008 12.1445 12.4453L9.76562 10.0664L8.5625 11.1875C7.87891 11.8438 6.8125 11.8438 6.10156 11.2148C5.30859 10.5039 5.28125 9.24609 6.04688 8.50781L8.23438 6.45703C8.89062 5.85547 9.73828 5.5 10.6406 5.5C11.4609 5.5 12.2539 5.80078 12.8828 6.34766L13.7852 7.08594V8.125C13.7031 8.125 13.6211 8.09766 13.5664 8.04297L12.3359 7.00391C11.8711 6.59375 11.2695 6.375 10.6406 6.375C9.95703 6.375 9.32812 6.64844 8.83594 7.11328L6.64844 9.16406C6.26562 9.54688 6.26562 10.2031 6.67578 10.5586C7.05859 10.8867 7.60547 10.8867 7.96094 10.5586L10.0391 8.64453C10.2305 8.48047 10.5039 8.48047 10.668 8.67188C10.832 8.83594 10.832 9.10938 10.6406 9.27344L10.4219 9.49219L12.7734 11.8164C12.9648 12.0078 13.1016 12.2539 13.1836 12.4727H14.6875V8.15234V7.27734H15.5625H16.875C17.3398 7.27734 17.75 7.66016 17.75 8.15234V13.8398C17.75 14.5508 17.1484 15.1523 16.4375 15.1523H16C15.2617 15.1523 14.6875 14.5508 14.6875 13.8398V13.3477H13.2383C13.1836 13.7305 12.9922 14.0859 12.6914 14.3594C12.2539 14.7422 11.6797 14.8789 11.1602 14.7695C11.0781 14.9883 10.9688 15.207 10.8047 15.3984C10.1758 16.1094 9.10938 16.1641 8.39844 15.5898C8.37109 15.6172 8.34375 15.6445 8.31641 15.6445C7.60547 16.3008 6.51172 16.2734 5.82812 15.5898L5.14453 14.9062L3.88672 13.7031C3.72266 13.5391 3.53125 13.4297 3.3125 13.4023ZM2.4375 8.125H1.125V13.8125C1.125 14.0586 1.31641 14.25 1.5625 14.25H2C2.21875 14.25 2.4375 14.0586 2.4375 13.8125V8.125ZM16.875 8.125H15.5625V13.8125C15.5625 14.0586 15.7539 14.25 16 14.25H16.4375C16.6562 14.25 16.875 14.0586 16.875 13.8125V8.125Z" fill="black" fill-opacity="0.72"/>
</g>
<defs>
<clipPath id="clip0_4513_678">
<rect width="18" height="22" fill="white"/>
</clipPath>
</defs>
</svg>
