<svg width="24" height="36" viewBox="0 0 24 36" fill="none" xmlns="http://www.w3.org/2000/svg">
<g id="label-paired / xl / circle-caret-down-xl / regular" clip-path="url(#clip0_2556_19352)">
<path id="icon" d="M12 28.5C15.75 28.5 19.1719 26.5312 21.0469 23.25C22.9688 20.0156 22.9688 16.0312 21.0469 12.75C19.1719 9.51562 15.75 7.5 12 7.5C8.20312 7.5 4.78125 9.51562 2.90625 12.75C0.984375 16.0312 0.984375 20.0156 2.90625 23.25C4.78125 26.5312 8.20312 28.5 12 28.5ZM12 6C16.2656 6 20.2031 8.29688 22.3594 12C24.5156 15.75 24.5156 20.2969 22.3594 24C20.2031 27.75 16.2656 30 12 30C7.6875 30 3.75 27.75 1.59375 24C-0.5625 20.2969 -0.5625 15.75 1.59375 12C3.75 8.29688 7.6875 6 12 6ZM12 22.5C11.5312 22.5 11.1094 22.3125 10.7812 21.9844L6.32812 17.2031C6.09375 16.9688 6 16.6406 6 16.3125C6 15.6094 6.5625 15 7.26562 15H16.6875C17.3906 15 18 15.6094 18 16.3125C18 16.6406 17.8594 16.9688 17.625 17.2031L13.1719 21.9844C12.8438 22.3125 12.4219 22.5 12 22.5ZM12.0469 21L16.2188 16.5H7.73438L11.9062 21C11.9062 21 11.9531 21 12 21H12.0469Z" fill="black" fill-opacity="0.72"/>
</g>
<defs>
<clipPath id="clip0_2556_19352">
<rect width="24" height="36" fill="white"/>
</clipPath>
</defs>
</svg>
