<svg width="16" height="24" viewBox="0 0 16 24" fill="none" xmlns="http://www.w3.org/2000/svg">
<g id="label-paired / md / circle-eight-md / regular" clip-path="url(#clip0_2556_15294)">
<path id="icon" d="M15 12C15 9.5 13.6562 7.21875 11.5 5.96875C9.3125 4.6875 6.65625 4.6875 4.5 5.96875C2.3125 7.21875 1 9.5 1 12C1 14.5312 2.3125 16.8125 4.5 18.0625C6.65625 19.3438 9.3125 19.3438 11.5 18.0625C13.6562 16.8125 15 14.5312 15 12ZM0 12C0 9.15625 1.5 6.53125 4 5.09375C6.46875 3.65625 9.5 3.65625 12 5.09375C14.4688 6.53125 16 9.15625 16 12C16 14.875 14.4688 17.5 12 18.9375C9.5 20.375 6.46875 20.375 4 18.9375C1.5 17.5 0 14.875 0 12ZM8.375 8C9.53125 8 10.5 8.96875 10.5 10.125C10.5 10.7812 10.2188 11.3438 9.78125 11.7188C10.3438 12.1562 10.75 12.8438 10.75 13.625C10.75 14.9375 9.6875 16 8.375 16H7.625C6.3125 16 5.25 14.9375 5.25 13.625C5.25 12.8438 5.625 12.1562 6.1875 11.7188C5.75 11.3438 5.5 10.7812 5.5 10.125C5.5 8.96875 6.4375 8 7.625 8H8.375ZM7.625 11.25H8.375C8.96875 11.25 9.5 10.75 9.5 10.125C9.5 9.53125 8.96875 9 8.375 9H7.625C7 9 6.5 9.53125 6.5 10.125C6.5 10.75 7 11.25 7.625 11.25ZM8.375 12.25H7.625C6.84375 12.25 6.25 12.875 6.25 13.625C6.25 14.4062 6.84375 15 7.625 15H8.375C9.125 15 9.75 14.4062 9.75 13.625C9.75 12.875 9.125 12.25 8.375 12.25Z" fill="black" fill-opacity="0.72"/>
</g>
<defs>
<clipPath id="clip0_2556_15294">
<rect width="16" height="24" fill="white"/>
</clipPath>
</defs>
</svg>
