<svg width="16" height="22" viewBox="0 0 16 22" fill="none" xmlns="http://www.w3.org/2000/svg">
<g id="label-paired / sm / arrow-up-a-z-sm / fill" clip-path="url(#clip0_2556_12684)">
<path id="icon" d="M5.12891 4.92578L7.53516 7.55078C7.86328 7.90625 7.83594 8.45312 7.48047 8.78125C7.125 9.10938 6.57812 9.08203 6.25 8.72656L5.375 7.76953V16C5.375 16.4922 4.96484 16.875 4.5 16.875C4.00781 16.875 3.625 16.4922 3.625 16V7.76953L2.72266 8.72656C2.39453 9.08203 1.84766 9.10938 1.49219 8.78125C1.13672 8.45312 1.10938 7.90625 1.4375 7.55078L3.84375 4.92578C4.00781 4.73438 4.25391 4.625 4.5 4.625C4.74609 4.625 4.96484 4.73438 5.12891 4.92578ZM8.875 12.5C8.875 12.0352 9.25781 11.625 9.75 11.625H13.25C13.6055 11.625 13.9062 11.8438 14.043 12.1719C14.1797 12.5 14.0977 12.8828 13.8516 13.1289L11.8555 15.1523H13.25C13.7148 15.1523 14.125 15.5352 14.125 16.0273C14.125 16.4922 13.7148 16.9023 13.25 16.9023H9.75C9.39453 16.9023 9.06641 16.6836 8.92969 16.3555C8.79297 16.0273 8.875 15.6445 9.12109 15.3984L11.1172 13.375H9.75C9.25781 13.375 8.875 12.9922 8.875 12.5ZM11.5 4.625C11.8281 4.625 12.1289 4.81641 12.2656 5.11719L14.0156 8.61719L14.4531 9.49219C14.6719 9.92969 14.5078 10.4492 14.0703 10.668C13.6328 10.8867 13.1133 10.7227 12.8945 10.2852L12.7031 9.875H10.2695L10.0781 10.2852C9.85938 10.7227 9.33984 10.8867 8.90234 10.668C8.46484 10.4492 8.30078 9.92969 8.51953 9.49219L8.95703 8.61719L10.707 5.11719C10.8438 4.81641 11.1445 4.625 11.5 4.625ZM10.9258 8.5625H12.0469L11.5 7.46875L10.9258 8.5625Z" fill="black" fill-opacity="0.72"/>
</g>
<defs>
<clipPath id="clip0_2556_12684">
<rect width="16" height="22" fill="white"/>
</clipPath>
</defs>
</svg>
