<svg width="11" height="22" viewBox="0 0 11 22" fill="none" xmlns="http://www.w3.org/2000/svg">
<g id="label-paired / sm / location-dot-sm / fill" clip-path="url(#clip0_2556_12734)">
<path id="icon" d="M6.12891 17.4219C5.80078 17.832 5.17188 17.832 4.84375 17.4219C3.44922 15.6445 0.25 11.4062 0.25 9C0.25 6.10156 2.60156 3.75 5.5 3.75C8.39844 3.75 10.75 6.10156 10.75 9C10.75 11.4062 7.55078 15.6445 6.12891 17.4219ZM5.5 7.25C4.87109 7.25 4.29688 7.60547 3.96875 8.125C3.66797 8.67188 3.66797 9.35547 3.96875 9.875C4.29688 10.4219 4.87109 10.75 5.5 10.75C6.10156 10.75 6.67578 10.4219 7.00391 9.875C7.30469 9.35547 7.30469 8.67188 7.00391 8.125C6.67578 7.60547 6.10156 7.25 5.5 7.25Z" fill="black" fill-opacity="0.72"/>
</g>
<defs>
<clipPath id="clip0_2556_12734">
<rect width="11" height="22" fill="white"/>
</clipPath>
</defs>
</svg>
