<svg width="16" height="22" viewBox="0 0 16 22" fill="none" xmlns="http://www.w3.org/2000/svg">
<g id="label-paired / sm / basket-shopping-sm / fill" clip-path="url(#clip0_2981_782)">
<path id="icon" d="M7.04297 4.73438L4.80078 9H11.1719L8.92969 4.73438C8.76562 4.40625 8.90234 3.99609 9.20312 3.83203C9.53125 3.66797 9.94141 3.80469 10.1055 4.10547L12.6484 9H15C15.4648 9 15.875 9.41016 15.875 9.875C15.875 10.3672 15.4648 10.75 15 10.75L13.5781 16.4375C13.3867 17.2031 12.6758 17.75 11.8828 17.75H4.11719C3.29688 17.75 2.61328 17.2031 2.39453 16.4375L1 10.75C0.507812 10.75 0.125 10.3672 0.125 9.875C0.125 9.41016 0.507812 9 1 9H3.32422L5.86719 4.10547C6.03125 3.80469 6.44141 3.66797 6.76953 3.83203C7.07031 3.99609 7.20703 4.40625 7.04297 4.73438ZM5.375 12.0625C5.375 11.8438 5.15625 11.625 4.9375 11.625C4.69141 11.625 4.5 11.8438 4.5 12.0625V14.6875C4.5 14.9336 4.69141 15.125 4.9375 15.125C5.15625 15.125 5.375 14.9336 5.375 14.6875V12.0625ZM8 11.625C7.75391 11.625 7.5625 11.8438 7.5625 12.0625V14.6875C7.5625 14.9336 7.75391 15.125 8 15.125C8.21875 15.125 8.4375 14.9336 8.4375 14.6875V12.0625C8.4375 11.8438 8.21875 11.625 8 11.625ZM11.5 12.0625C11.5 11.8438 11.2812 11.625 11.0625 11.625C10.8164 11.625 10.625 11.8438 10.625 12.0625V14.6875C10.625 14.9336 10.8164 15.125 11.0625 15.125C11.2812 15.125 11.5 14.9336 11.5 14.6875V12.0625Z" fill="black" fill-opacity="0.72"/>
</g>
<defs>
<clipPath id="clip0_2981_782">
<rect width="16" height="22" fill="white"/>
</clipPath>
</defs>
</svg>
