<svg width="9" height="22" viewBox="0 0 9 22" fill="none" xmlns="http://www.w3.org/2000/svg">
<g id="label-paired / sm / six-sm / bold" clip-path="url(#clip0_2556_12507)">
<path id="icon" d="M7.5625 12.5C7.5625 10.832 6.16797 9.4375 4.5 9.4375C3.59766 9.4375 2.80469 9.82031 2.25781 10.4219L2.12109 10.5859C1.65625 11.1328 1.4375 11.8164 1.4375 12.5C1.4375 14.1953 2.80469 15.5625 4.5 15.5625C6.16797 15.5625 7.5625 14.1953 7.5625 12.5ZM4.08984 8.15234C4.22656 8.15234 4.36328 8.125 4.5 8.125C6.90625 8.125 8.875 10.0938 8.875 12.5C8.875 14.9336 6.90625 16.875 4.5 16.875C2.06641 16.875 0.125 14.9336 0.125 12.5C0.125 11.3789 0.535156 10.3398 1.24609 9.57422L5.07422 4.87109C5.29297 4.59766 5.70312 4.54297 6.00391 4.78906C6.27734 5.00781 6.33203 5.41797 6.08594 5.71875L4.08984 8.15234Z" fill="black" fill-opacity="0.72"/>
</g>
<defs>
<clipPath id="clip0_2556_12507">
<rect width="9" height="22" fill="white"/>
</clipPath>
</defs>
</svg>
