<svg width="14" height="22" viewBox="0 0 14 22" fill="none" xmlns="http://www.w3.org/2000/svg">
<g id="label-paired / sm / magnifying-glass-plus-sm / regular" clip-path="url(#clip0_3431_786)">
<path id="icon" d="M5.6875 4.625C3.96484 4.625 2.37891 5.55469 1.50391 7.03125C0.65625 8.53516 0.65625 10.3672 1.50391 11.8438C2.37891 13.3477 3.96484 14.25 5.6875 14.25C7.38281 14.25 8.96875 13.3477 9.84375 11.8438C10.6914 10.3672 10.6914 8.53516 9.84375 7.03125C8.96875 5.55469 7.38281 4.625 5.6875 4.625ZM5.6875 15.125C2.54297 15.125 0 12.582 0 9.4375C0 6.32031 2.54297 3.75 5.6875 3.75C8.80469 3.75 11.375 6.32031 11.375 9.4375C11.375 10.8594 10.8555 12.1445 10.0078 13.1562L13.8633 17.0117C14.0273 17.1758 14.0273 17.4766 13.8633 17.6406C13.6992 17.8047 13.3984 17.8047 13.2344 17.6406L9.37891 13.7578C8.39453 14.6328 7.08203 15.125 5.6875 15.125ZM5.25 12.0625V9.875H3.0625C2.81641 9.875 2.625 9.68359 2.625 9.4375C2.625 9.21875 2.81641 9 3.0625 9H5.25V6.8125C5.25 6.59375 5.44141 6.375 5.6875 6.375C5.90625 6.375 6.125 6.59375 6.125 6.8125V9H8.3125C8.53125 9 8.75 9.21875 8.75 9.4375C8.75 9.68359 8.53125 9.875 8.3125 9.875H6.125V12.0625C6.125 12.3086 5.90625 12.5 5.6875 12.5C5.44141 12.5 5.25 12.3086 5.25 12.0625Z" fill="black" fill-opacity="0.72"/>
</g>
<defs>
<clipPath id="clip0_3431_786">
<rect width="14" height="22" fill="white"/>
</clipPath>
</defs>
</svg>
