<svg width="23" height="30" viewBox="0 0 23 30" fill="none" xmlns="http://www.w3.org/2000/svg">
<g id="label-paired / lg / keyboard-lg / bold" clip-path="url(#clip0_2556_17064)">
<path id="icon" d="M2.75 9.875C2.39844 9.875 2.125 10.1875 2.125 10.5V20.5C2.125 20.8516 2.39844 21.125 2.75 21.125H20.25C20.5625 21.125 20.875 20.8516 20.875 20.5V10.5C20.875 10.1875 20.5625 9.875 20.25 9.875H2.75ZM0.25 10.5C0.25 9.13281 1.34375 8 2.75 8H20.25C21.6172 8 22.75 9.13281 22.75 10.5V20.5C22.75 21.9062 21.6172 23 20.25 23H2.75C1.34375 23 0.25 21.9062 0.25 20.5V10.5ZM7.125 18H15.875C16.1875 18 16.5 18.3125 16.5 18.625V19.25C16.5 19.6016 16.1875 19.875 15.875 19.875H7.125C6.77344 19.875 6.5 19.6016 6.5 19.25V18.625C6.5 18.3125 6.77344 18 7.125 18ZM4.3125 15.1875C4.3125 14.875 4.58594 14.5625 4.9375 14.5625H5.5625C5.875 14.5625 6.1875 14.875 6.1875 15.1875V15.8125C6.1875 16.1641 5.875 16.4375 5.5625 16.4375H4.9375C4.58594 16.4375 4.3125 16.1641 4.3125 15.8125V15.1875ZM4.9375 11.4375H5.5625C5.875 11.4375 6.1875 11.75 6.1875 12.0625V12.6875C6.1875 13.0391 5.875 13.3125 5.5625 13.3125H4.9375C4.58594 13.3125 4.3125 13.0391 4.3125 12.6875V12.0625C4.3125 11.75 4.58594 11.4375 4.9375 11.4375ZM7.4375 15.1875C7.4375 14.875 7.71094 14.5625 8.0625 14.5625H8.6875C9 14.5625 9.3125 14.875 9.3125 15.1875V15.8125C9.3125 16.1641 9 16.4375 8.6875 16.4375H8.0625C7.71094 16.4375 7.4375 16.1641 7.4375 15.8125V15.1875ZM8.0625 11.4375H8.6875C9 11.4375 9.3125 11.75 9.3125 12.0625V12.6875C9.3125 13.0391 9 13.3125 8.6875 13.3125H8.0625C7.71094 13.3125 7.4375 13.0391 7.4375 12.6875V12.0625C7.4375 11.75 7.71094 11.4375 8.0625 11.4375ZM10.5625 15.1875C10.5625 14.875 10.8359 14.5625 11.1875 14.5625H11.8125C12.125 14.5625 12.4375 14.875 12.4375 15.1875V15.8125C12.4375 16.1641 12.125 16.4375 11.8125 16.4375H11.1875C10.8359 16.4375 10.5625 16.1641 10.5625 15.8125V15.1875ZM11.1875 11.4375H11.8125C12.125 11.4375 12.4375 11.75 12.4375 12.0625V12.6875C12.4375 13.0391 12.125 13.3125 11.8125 13.3125H11.1875C10.8359 13.3125 10.5625 13.0391 10.5625 12.6875V12.0625C10.5625 11.75 10.8359 11.4375 11.1875 11.4375ZM13.6875 15.1875C13.6875 14.875 13.9609 14.5625 14.3125 14.5625H14.9375C15.25 14.5625 15.5625 14.875 15.5625 15.1875V15.8125C15.5625 16.1641 15.25 16.4375 14.9375 16.4375H14.3125C13.9609 16.4375 13.6875 16.1641 13.6875 15.8125V15.1875ZM14.3125 11.4375H14.9375C15.25 11.4375 15.5625 11.75 15.5625 12.0625V12.6875C15.5625 13.0391 15.25 13.3125 14.9375 13.3125H14.3125C13.9609 13.3125 13.6875 13.0391 13.6875 12.6875V12.0625C13.6875 11.75 13.9609 11.4375 14.3125 11.4375ZM16.8125 15.1875C16.8125 14.875 17.0859 14.5625 17.4375 14.5625H18.0625C18.375 14.5625 18.6875 14.875 18.6875 15.1875V15.8125C18.6875 16.1641 18.375 16.4375 18.0625 16.4375H17.4375C17.0859 16.4375 16.8125 16.1641 16.8125 15.8125V15.1875ZM17.4375 11.4375H18.0625C18.375 11.4375 18.6875 11.75 18.6875 12.0625V12.6875C18.6875 13.0391 18.375 13.3125 18.0625 13.3125H17.4375C17.0859 13.3125 16.8125 13.0391 16.8125 12.6875V12.0625C16.8125 11.75 17.0859 11.4375 17.4375 11.4375Z" fill="black" fill-opacity="0.72"/>
</g>
<defs>
<clipPath id="clip0_2556_17064">
<rect width="23" height="30" fill="white"/>
</clipPath>
</defs>
</svg>
