<svg width="12" height="24" viewBox="0 0 12 24" fill="none" xmlns="http://www.w3.org/2000/svg">
<g id="label-paired / md / microphone-md / regular" clip-path="url(#clip0_2556_14843)">
<path id="icon" d="M8 7C8 5.90625 7.09375 5 6 5C4.875 5 4 5.90625 4 7V12C4 13.125 4.875 14 6 14C7.09375 14 8 13.125 8 12V7ZM3 7C3 5.34375 4.34375 4 6 4C7.65625 4 9 5.34375 9 7V12C9 13.6562 7.65625 15 6 15C4.34375 15 3 13.6562 3 12V7ZM2 10.5V12C2 14.2188 3.78125 16 6 16C8.1875 16 10 14.2188 10 12V10.5C10 10.25 10.2188 10 10.5 10C10.75 10 11 10.25 11 10.5V12C11 14.5938 9 16.75 6.5 17V19H8.5C8.75 19 9 19.25 9 19.5C9 19.7812 8.75 20 8.5 20H6H3.5C3.21875 20 3 19.7812 3 19.5C3 19.25 3.21875 19 3.5 19H5.5V17C2.96875 16.75 1 14.5938 1 12V10.5C1 10.25 1.21875 10 1.5 10C1.75 10 2 10.25 2 10.5Z" fill="black" fill-opacity="0.72"/>
</g>
<defs>
<clipPath id="clip0_2556_14843">
<rect width="12" height="24" fill="white"/>
</clipPath>
</defs>
</svg>
