<svg width="20" height="30" viewBox="0 0 20 30" fill="none" xmlns="http://www.w3.org/2000/svg">
<g id="label-paired / lg / sliders-lg / regular" clip-path="url(#clip0_3758_519)">
<path id="icon" d="M0 21.75C0 21.4375 0.273438 21.125 0.625 21.125H3.16406C3.47656 19.7188 4.72656 18.625 6.25 18.625C7.73438 18.625 9.02344 19.7188 9.29688 21.125H19.375C19.6875 21.125 20 21.4375 20 21.75C20 22.1016 19.6875 22.375 19.375 22.375H9.29688C9.02344 23.8203 7.73438 24.875 6.25 24.875C4.72656 24.875 3.47656 23.8203 3.16406 22.375H0.625C0.273438 22.375 0 22.1016 0 21.75ZM4.375 21.75C4.375 22.4531 4.72656 23.0391 5.3125 23.3906C5.85938 23.7422 6.60156 23.7422 7.1875 23.3906C7.73438 23.0391 8.125 22.4531 8.125 21.75C8.125 21.0859 7.73438 20.5 7.1875 20.1484C6.60156 19.7969 5.85938 19.7969 5.3125 20.1484C4.72656 20.5 4.375 21.0859 4.375 21.75ZM11.875 15.5C11.875 16.2031 12.2266 16.7891 12.8125 17.1406C13.3594 17.4922 14.1016 17.4922 14.6875 17.1406C15.2344 16.7891 15.625 16.2031 15.625 15.5C15.625 14.8359 15.2344 14.25 14.6875 13.8984C14.1016 13.5469 13.3594 13.5469 12.8125 13.8984C12.2266 14.25 11.875 14.8359 11.875 15.5ZM13.75 12.375C15.2344 12.375 16.5234 13.4688 16.7969 14.875H19.375C19.6875 14.875 20 15.1875 20 15.5C20 15.8516 19.6875 16.125 19.375 16.125H16.7969C16.5234 17.5703 15.2344 18.625 13.75 18.625C12.2266 18.625 10.9766 17.5703 10.6641 16.125H0.625C0.273438 16.125 0 15.8516 0 15.5C0 15.1875 0.273438 14.875 0.625 14.875H10.6641C10.9766 13.4688 12.2266 12.375 13.75 12.375ZM7.5 11.125C8.16406 11.125 8.75 10.7734 9.10156 10.1875C9.45312 9.64062 9.45312 8.89844 9.10156 8.3125C8.75 7.76562 8.16406 7.375 7.5 7.375C6.79688 7.375 6.21094 7.76562 5.85938 8.3125C5.50781 8.89844 5.50781 9.64062 5.85938 10.1875C6.21094 10.7734 6.79688 11.125 7.5 11.125ZM10.5469 8.625H19.375C19.6875 8.625 20 8.9375 20 9.25C20 9.60156 19.6875 9.875 19.375 9.875H10.5469C10.2734 11.3203 8.98438 12.375 7.5 12.375C5.97656 12.375 4.72656 11.3203 4.41406 9.875H0.625C0.273438 9.875 0 9.60156 0 9.25C0 8.9375 0.273438 8.625 0.625 8.625H4.41406C4.72656 7.21875 5.97656 6.125 7.5 6.125C8.98438 6.125 10.2734 7.21875 10.5469 8.625Z" fill="black" fill-opacity="0.72"/>
</g>
<defs>
<clipPath id="clip0_3758_519">
<rect width="20" height="30" fill="white"/>
</clipPath>
</defs>
</svg>
