<svg width="11" height="22" viewBox="0 0 11 22" fill="none" xmlns="http://www.w3.org/2000/svg">
<g id="label-paired / sm / microphone-sm / fill" clip-path="url(#clip0_2556_12618)">
<path id="icon" d="M5.5 3.75C6.94922 3.75 8.125 4.92578 8.125 6.375V10.75C8.125 12.1992 6.94922 13.375 5.5 13.375C4.05078 13.375 2.875 12.1992 2.875 10.75V6.375C2.875 4.92578 4.05078 3.75 5.5 3.75ZM2 9.65625V10.75C2 12.6914 3.55859 14.25 5.5 14.25C7.41406 14.25 9 12.6914 9 10.75V9.65625C9 9.30078 9.27344 9 9.65625 9C10.0117 9 10.3125 9.30078 10.3125 9.65625V10.75C10.3125 13.2109 8.48047 15.207 6.15625 15.5352V16.4375H7.46875C7.82422 16.4375 8.125 16.7383 8.125 17.0938C8.125 17.4766 7.82422 17.75 7.46875 17.75H5.5H3.53125C3.14844 17.75 2.875 17.4766 2.875 17.0938C2.875 16.7383 3.14844 16.4375 3.53125 16.4375H4.84375V15.5352C2.49219 15.207 0.6875 13.2109 0.6875 10.75V9.65625C0.6875 9.30078 0.960938 9 1.34375 9C1.69922 9 2 9.30078 2 9.65625Z" fill="black" fill-opacity="0.72"/>
</g>
<defs>
<clipPath id="clip0_2556_12618">
<rect width="11" height="22" fill="white"/>
</clipPath>
</defs>
</svg>
