<svg width="27" height="36" viewBox="0 0 27 36" fill="none" xmlns="http://www.w3.org/2000/svg">
<g id="label-paired / xl / house-user-xl / bold" clip-path="url(#clip0_4670_663)">
<path id="icon" d="M12.75 6.28125C13.1719 5.95312 13.7812 5.95312 14.2031 6.28125L26.5781 16.7812C27.0469 17.2031 27.1406 17.9062 26.7188 18.375C26.2969 18.8438 25.5938 18.8906 25.125 18.5156L24 17.5312V26.25C24 28.3594 22.3125 30 20.25 30H6.75C4.64062 30 3 28.3594 3 26.25V17.5312L1.82812 18.5156C1.35938 18.8906 0.65625 18.8438 0.234375 18.375C-0.140625 17.9062 -0.09375 17.2031 0.375 16.7812L12.75 6.28125ZM5.25 15.6094V26.25C5.25 27.0938 5.90625 27.75 6.75 27.75H20.25C21.0469 27.75 21.75 27.0938 21.75 26.25V15.6094L13.5 8.625L5.25 15.6094ZM10.5 16.5C10.5 15.4688 11.0625 14.4844 12 13.9219C12.8906 13.4062 14.0625 13.4062 15 13.9219C15.8906 14.4844 16.5 15.4688 16.5 16.5C16.5 17.5781 15.8906 18.5625 15 19.125C14.0625 19.6406 12.8906 19.6406 12 19.125C11.0625 18.5625 10.5 17.5781 10.5 16.5ZM12 21H15C17.0625 21 18.75 22.6875 18.75 24.75C18.75 25.1719 18.375 25.5 18 25.5H9C8.57812 25.5 8.25 25.1719 8.25 24.75C8.25 22.6875 9.89062 21 12 21Z" fill="black" fill-opacity="0.72"/>
</g>
<defs>
<clipPath id="clip0_4670_663">
<rect width="27" height="36" fill="white"/>
</clipPath>
</defs>
</svg>
