<svg width="14" height="22" viewBox="0 0 14 22" fill="none" xmlns="http://www.w3.org/2000/svg">
<g id="label-paired / sm / loader-sm / bold" clip-path="url(#clip0_2981_810)">
<path id="icon" d="M7.65625 4.40625V6.59375C7.65625 6.97656 7.35547 7.25 7 7.25C6.61719 7.25 6.34375 6.97656 6.34375 6.59375V4.40625C6.34375 4.05078 6.61719 3.75 7 3.75C7.35547 3.75 7.65625 4.05078 7.65625 4.40625ZM7.65625 14.9062V17.0938C7.65625 17.4766 7.35547 17.75 7 17.75C6.61719 17.75 6.34375 17.4766 6.34375 17.0938V14.9062C6.34375 14.5508 6.61719 14.25 7 14.25C7.35547 14.25 7.65625 14.5508 7.65625 14.9062ZM0 10.75C0 10.3945 0.273438 10.0938 0.65625 10.0938H2.84375C3.19922 10.0938 3.5 10.3945 3.5 10.75C3.5 11.1328 3.19922 11.4062 2.84375 11.4062H0.65625C0.273438 11.4062 0 11.1328 0 10.75ZM11.1562 10.0938H13.3438C13.6992 10.0938 14 10.3945 14 10.75C14 11.1328 13.6992 11.4062 13.3438 11.4062H11.1562C10.7734 11.4062 10.5 11.1328 10.5 10.75C10.5 10.3945 10.7734 10.0938 11.1562 10.0938ZM11.9492 5.80078C12.1953 6.07422 12.1953 6.48438 11.9492 6.73047L10.3906 8.28906C10.1445 8.53516 9.70703 8.53516 9.46094 8.28906C9.21484 8.04297 9.21484 7.60547 9.46094 7.35938L11.0195 5.80078C11.2656 5.55469 11.6758 5.55469 11.9492 5.80078ZM4.51172 14.168L2.95312 15.6992C2.70703 15.9727 2.29688 15.9727 2.05078 15.6992C1.77734 15.4531 1.77734 15.043 2.05078 14.7969L3.58203 13.2383C3.82812 12.9922 4.26562 12.9922 4.51172 13.2383C4.75781 13.4844 4.75781 13.8945 4.51172 14.168ZM2.05078 5.80078C2.29688 5.55469 2.70703 5.55469 2.95312 5.80078L4.51172 7.35938C4.75781 7.60547 4.75781 8.04297 4.51172 8.28906C4.26562 8.53516 3.85547 8.53516 3.58203 8.28906L2.05078 6.73047C1.77734 6.48438 1.77734 6.07422 2.05078 5.80078ZM10.3906 13.2383L11.9492 14.7969C12.1953 15.043 12.1953 15.4531 11.9492 15.6992C11.6758 15.9727 11.2656 15.9727 11.0195 15.6992L9.46094 14.168C9.21484 13.9219 9.21484 13.4844 9.46094 13.2383C9.70703 12.9922 10.1445 12.9922 10.3906 13.2383Z" fill="black" fill-opacity="0.72"/>
</g>
<defs>
<clipPath id="clip0_2981_810">
<rect width="14" height="22" fill="white"/>
</clipPath>
</defs>
</svg>
