<svg width="27" height="36" viewBox="0 0 27 36" fill="none" xmlns="http://www.w3.org/2000/svg">
<g id="label-paired / xl / file-circle-info-xl / regular" clip-path="url(#clip0_2556_19456)">
<path id="icon" d="M3 28.5H13.875C14.3438 29.0625 14.8594 29.5781 15.4219 30C15.2812 30 15.1406 30 15 30H3C1.3125 30 0 28.6875 0 27V9C0 7.35938 1.3125 6 3 6H10.3125C10.875 6 11.4844 6.28125 11.9062 6.70312L17.2969 12.0938C17.7188 12.5156 18 13.125 18 13.6875V15.3281C17.4375 15.4688 16.9688 15.6562 16.5 15.9375V15H11.25C9.98438 15 9 14.0156 9 12.75V7.5H3C2.15625 7.5 1.5 8.20312 1.5 9V27C1.5 27.8438 2.15625 28.5 3 28.5ZM16.4531 13.5C16.4062 13.4062 16.3594 13.2656 16.2656 13.1719L10.8281 7.73438C10.7344 7.64062 10.5938 7.59375 10.5 7.54688V12.75C10.5 13.1719 10.8281 13.5 11.25 13.5H16.4531ZM25.5 23.25C25.5 21.375 24.4688 19.6875 22.875 18.75C21.2344 17.7656 19.2188 17.7656 17.625 18.75C15.9844 19.6875 15 21.375 15 23.25C15 25.1719 15.9844 26.8594 17.625 27.7969C19.2188 28.7812 21.2344 28.7812 22.875 27.7969C24.4688 26.8594 25.5 25.1719 25.5 23.25ZM13.5 23.25C13.5 20.8594 14.7656 18.6562 16.875 17.4375C18.9375 16.2188 21.5156 16.2188 23.625 17.4375C25.6875 18.6562 27 20.8594 27 23.25C27 25.6875 25.6875 27.8906 23.625 29.1094C21.5156 30.3281 18.9375 30.3281 16.875 29.1094C14.7656 27.8906 13.5 25.6875 13.5 23.25ZM20.25 21.75C19.5938 21.75 19.125 21.2812 19.125 20.625C19.125 20.0156 19.5938 19.5 20.25 19.5C20.8594 19.5 21.375 20.0156 21.375 20.625C21.375 21.2812 20.8594 21.75 20.25 21.75ZM18.75 26.25C18.75 25.875 19.0781 25.5 19.5 25.5V24C19.0781 24 18.75 23.6719 18.75 23.25C18.75 22.875 19.0781 22.5 19.5 22.5H20.25C20.625 22.5 21 22.875 21 23.25V25.5C21.375 25.5 21.75 25.875 21.75 26.25C21.75 26.6719 21.375 27 21 27H20.25H19.5C19.0781 27 18.75 26.6719 18.75 26.25Z" fill="black" fill-opacity="0.72"/>
</g>
<defs>
<clipPath id="clip0_2556_19456">
<rect width="27" height="36" fill="white"/>
</clipPath>
</defs>
</svg>
