<svg width="21" height="36" viewBox="0 0 21 36" fill="none" xmlns="http://www.w3.org/2000/svg">
<g id="label-paired / xl / arrow-right-to-line-xl / fill" clip-path="url(#clip0_2556_19945)">
<path id="icon" d="M21 10.5V25.5C21 26.3438 20.2969 27 19.5 27C18.6562 27 18 26.3438 18 25.5V10.5C18 9.70312 18.6562 9 19.5 9C20.2969 9 21 9.70312 21 10.5ZM14.5312 19.0781L8.53125 25.0781C7.96875 25.6875 6.98438 25.6875 6.42188 25.0781C5.8125 24.5156 5.8125 23.5312 6.42188 22.9688L9.84375 19.5H1.5C0.65625 19.5 0 18.8438 0 18C0 17.2031 0.65625 16.5 1.5 16.5H9.84375L6.42188 13.0781C5.8125 12.5156 5.8125 11.5312 6.42188 10.9688C6.98438 10.3594 7.96875 10.3594 8.53125 10.9688L14.5312 16.9688C15.1406 17.5312 15.1406 18.5156 14.5312 19.0781Z" fill="black" fill-opacity="0.72"/>
</g>
<defs>
<clipPath id="clip0_2556_19945">
<rect width="21" height="36" fill="white"/>
</clipPath>
</defs>
</svg>
