<svg width="23" height="30" viewBox="0 0 23 30" fill="none" xmlns="http://www.w3.org/2000/svg">
<g id="label-paired / lg / share-from-square-lg / regular" clip-path="url(#clip0_4038_438)">
<path id="icon" d="M15.875 16.4375C15.875 16.6328 15.9922 16.75 16.1875 16.75C16.2656 16.75 16.3438 16.75 16.3828 16.6719L21.4219 11.9062C21.4609 11.8672 21.4609 11.8281 21.4609 11.75C21.4609 11.7109 21.4609 11.6719 21.4219 11.6328L16.3828 6.86719C16.3438 6.78906 16.2656 6.75 16.1875 6.75C15.9922 6.75 15.875 6.90625 15.875 7.0625V8.625V9.25C15.875 9.60156 15.5625 9.875 15.25 9.875H14.625H13.375H11.5C8.72656 9.875 6.5 12.1406 6.5 14.875C6.5 16.2812 7.08594 17.2969 7.78906 18.0391C7.75 17.8438 7.75 17.6484 7.75 17.4531C7.75 15.3438 9.42969 13.625 11.5391 13.625H13.375H14H14.625H15.25C15.5625 13.625 15.875 13.9375 15.875 14.25V14.875V16.4375ZM14.625 14.875H14H13.375H11.5391C10.1328 14.875 9 16.0469 9 17.4531C9 18.0391 9.54688 18.6641 9.89844 19.0156C10.0938 19.1719 10.25 19.4062 10.25 19.6797V19.7188C10.25 20.1484 9.85938 20.5 9.42969 20.5C9.35156 20.5 9.23438 20.5 9.15625 20.4609C8.45312 20.1484 5.25 18.5469 5.25 14.875C5.25 11.4375 8.02344 8.625 11.5 8.625H13.375H14.625V7.375V7.0625C14.625 6.20312 15.3281 5.5 16.1875 5.5C16.5781 5.5 16.9688 5.65625 17.2422 5.92969L22.2812 10.6953C22.5547 10.9688 22.75 11.3594 22.75 11.75C22.75 12.1797 22.5547 12.5312 22.2812 12.8047L17.2422 17.5703C16.9688 17.8828 16.5781 18 16.1875 18C15.3281 18 14.625 17.3359 14.625 16.4375V16.125V14.875ZM2.75 6.75H4.625C4.9375 6.75 5.25 7.0625 5.25 7.375C5.25 7.72656 4.9375 8 4.625 8H2.75C2.04688 8 1.5 8.58594 1.5 9.25V23C1.5 23.7031 2.04688 24.25 2.75 24.25H16.5C17.1641 24.25 17.75 23.7031 17.75 23V21.125C17.75 20.8125 18.0234 20.5 18.375 20.5C18.6875 20.5 19 20.8125 19 21.125V23C19 24.4062 17.8672 25.5 16.5 25.5H2.75C1.34375 25.5 0.25 24.4062 0.25 23V9.25C0.25 7.88281 1.34375 6.75 2.75 6.75Z" fill="black" fill-opacity="0.72"/>
</g>
<defs>
<clipPath id="clip0_4038_438">
<rect width="23" height="30" fill="white"/>
</clipPath>
</defs>
</svg>
