<svg width="8" height="18" viewBox="0 0 8 18" fill="none" xmlns="http://www.w3.org/2000/svg">
<g id="label-paired / caption / forward-step-caption / regular" clip-path="url(#clip0_2556_10548)">
<path id="icon" d="M6.25 5.375C6.25 5.1875 6.41406 5 6.625 5C6.8125 5 7 5.1875 7 5.375V9.17188V9.85156V13.625C7 13.8359 6.8125 14 6.625 14C6.41406 14 6.25 13.8359 6.25 13.625V10.4609L2.05469 13.8594C1.9375 13.9531 1.79688 14 1.63281 14C1.28125 14 1 13.7188 1 13.3672V5.65625C1 5.30469 1.28125 5 1.63281 5C1.79688 5 1.9375 5.07031 2.05469 5.16406L6.25 8.5625V5.375ZM1.75 5.86719V13.1562L6.20312 9.5L1.75 5.86719Z" fill="black" fill-opacity="0.72"/>
</g>
<defs>
<clipPath id="clip0_2556_10548">
<rect width="8" height="18" fill="white"/>
</clipPath>
</defs>
</svg>
