<svg width="23" height="30" viewBox="0 0 23 30" fill="none" xmlns="http://www.w3.org/2000/svg">
<g id="label-paired / lg / rectangle-barcode-lg / bold" clip-path="url(#clip0_2556_17292)">
<path id="icon" d="M2.75 8.625C2.39844 8.625 2.125 8.9375 2.125 9.25V21.75C2.125 22.1016 2.39844 22.375 2.75 22.375H20.25C20.5625 22.375 20.875 22.1016 20.875 21.75V9.25C20.875 8.9375 20.5625 8.625 20.25 8.625H2.75ZM0.25 9.25C0.25 7.88281 1.34375 6.75 2.75 6.75H20.25C21.6172 6.75 22.75 7.88281 22.75 9.25V21.75C22.75 23.1562 21.6172 24.25 20.25 24.25H2.75C1.34375 24.25 0.25 23.1562 0.25 21.75V9.25ZM4.9375 10.5C5.44531 10.5 5.875 10.9297 5.875 11.4375V19.5625C5.875 20.1094 5.44531 20.5 4.9375 20.5C4.39062 20.5 4 20.1094 4 19.5625V11.4375C4 10.9297 4.39062 10.5 4.9375 10.5ZM7.75 10.5C8.0625 10.5 8.375 10.8125 8.375 11.125V19.875C8.375 20.2266 8.0625 20.5 7.75 20.5C7.39844 20.5 7.125 20.2266 7.125 19.875V11.125C7.125 10.8125 7.39844 10.5 7.75 10.5ZM9.625 11.4375C9.625 10.9297 10.0156 10.5 10.5625 10.5C11.0703 10.5 11.5 10.9297 11.5 11.4375V19.5625C11.5 20.1094 11.0703 20.5 10.5625 20.5C10.0156 20.5 9.625 20.1094 9.625 19.5625V11.4375ZM14.9375 10.5C15.4453 10.5 15.875 10.9297 15.875 11.4375V19.5625C15.875 20.1094 15.4453 20.5 14.9375 20.5C14.3906 20.5 14 20.1094 14 19.5625V11.4375C14 10.9297 14.3906 10.5 14.9375 10.5ZM17.75 11.125C17.75 10.8125 18.0234 10.5 18.375 10.5C18.6875 10.5 19 10.8125 19 11.125V19.875C19 20.2266 18.6875 20.5 18.375 20.5C18.0234 20.5 17.75 20.2266 17.75 19.875V11.125Z" fill="black" fill-opacity="0.72"/>
</g>
<defs>
<clipPath id="clip0_2556_17292">
<rect width="23" height="30" fill="white"/>
</clipPath>
</defs>
</svg>
