<svg width="14" height="22" viewBox="0 0 14 22" fill="none" xmlns="http://www.w3.org/2000/svg">
<g id="label-paired / sm / circle-arrow-up-right-sm / bold" clip-path="url(#clip0_2556_12589)">
<path id="icon" d="M7 16.4375C9.02344 16.4375 10.8828 15.3711 11.9219 13.5938C12.9336 11.8438 12.9336 9.68359 11.9219 7.90625C10.8828 6.15625 9.02344 5.0625 7 5.0625C4.94922 5.0625 3.08984 6.15625 2.05078 7.90625C1.03906 9.68359 1.03906 11.8438 2.05078 13.5938C3.08984 15.3711 4.94922 16.4375 7 16.4375ZM7 3.75C9.48828 3.75 11.7852 5.08984 13.043 7.25C14.3008 9.4375 14.3008 12.0898 13.043 14.25C11.7852 16.4375 9.48828 17.75 7 17.75C4.48438 17.75 2.1875 16.4375 0.929688 14.25C-0.328125 12.0898 -0.328125 9.4375 0.929688 7.25C2.1875 5.08984 4.48438 3.75 7 3.75ZM5.25 7.6875H9.40625C9.76172 7.6875 10.0625 7.98828 10.0625 8.34375V12.7188C10.0625 13.1016 9.76172 13.375 9.40625 13.375C9.02344 13.375 8.75 13.1016 8.75 12.7188V9.92969L5.05859 13.6211C4.78516 13.8945 4.375 13.8945 4.12891 13.6211C3.85547 13.375 3.85547 12.9648 4.12891 12.7188L7.82031 9.02734H5.25C4.86719 9.02734 4.59375 8.72656 4.59375 8.37109C4.59375 7.98828 4.86719 7.71484 5.25 7.71484V7.6875Z" fill="black" fill-opacity="0.72"/>
</g>
<defs>
<clipPath id="clip0_2556_12589">
<rect width="14" height="22" fill="white"/>
</clipPath>
</defs>
</svg>
