<svg width="14" height="22" viewBox="0 0 14 22" fill="none" xmlns="http://www.w3.org/2000/svg">
<g id="label-paired / sm / chevrons-up-sm / fill" clip-path="url(#clip0_2556_12658)">
<path id="icon" d="M7.60156 4.89844L12.8516 10.1484C13.207 10.4766 13.207 11.0508 12.8516 11.3789C12.5234 11.7344 11.9492 11.7344 11.6211 11.3789L7 6.75781L2.35156 11.3789C2.02344 11.7344 1.44922 11.7344 1.12109 11.3789C0.765625 11.0508 0.765625 10.4766 1.12109 10.1484L6.37109 4.89844C6.69922 4.54297 7.27344 4.54297 7.60156 4.89844ZM12.8516 15.3984C13.207 15.7266 13.207 16.3008 12.8516 16.6289C12.5234 16.9844 11.9492 16.9844 11.6211 16.6289L7 12.0078L2.35156 16.6289C2.02344 16.9844 1.44922 16.9844 1.12109 16.6289C0.765625 16.3008 0.765625 15.7266 1.12109 15.3984L6.37109 10.1484C6.69922 9.79297 7.27344 9.79297 7.60156 10.1484L12.8516 15.3984Z" fill="black" fill-opacity="0.72"/>
</g>
<defs>
<clipPath id="clip0_2556_12658">
<rect width="14" height="22" fill="white"/>
</clipPath>
</defs>
</svg>
