<svg width="14" height="22" viewBox="0 0 14 22" fill="none" xmlns="http://www.w3.org/2000/svg">
<g id="label-paired / sm / backward-sm / fill" clip-path="url(#clip0_2556_12610)">
<path id="icon" d="M12.5508 15.8086L7.875 11.8984V10.75V9.62891L12.5508 5.71875C12.8242 5.5 13.1797 5.44531 13.4805 5.58203C13.7812 5.74609 14 6.04688 14 6.375V15.125C14 15.4805 13.7812 15.7812 13.4805 15.918C13.1797 16.082 12.8242 16.0273 12.5508 15.8086ZM7 13.375V15.125C7 15.4805 6.78125 15.7812 6.48047 15.918C6.17969 16.082 5.82422 16.0273 5.55078 15.8086L0.300781 11.4336C0.109375 11.2695 0 11.0234 0 10.75C0 10.5039 0.109375 10.2578 0.300781 10.0938L5.55078 5.71875C5.82422 5.5 6.17969 5.44531 6.48047 5.58203C6.78125 5.74609 7 6.04688 7 6.375V7.25V10.75V13.375Z" fill="black" fill-opacity="0.72"/>
</g>
<defs>
<clipPath id="clip0_2556_12610">
<rect width="14" height="22" fill="white"/>
</clipPath>
</defs>
</svg>
