<svg width="16" height="24" viewBox="0 0 16 24" fill="none" xmlns="http://www.w3.org/2000/svg">
<g id="label-paired / md / image-md / fill" clip-path="url(#clip0_2556_14573)">
<path id="icon" d="M0 7C0 5.90625 0.875 5 2 5H14C15.0938 5 16 5.90625 16 7V17C16 18.125 15.0938 19 14 19H2C0.875 19 0 18.125 0 17V7ZM10.0938 10.3438C9.96875 10.125 9.71875 10 9.5 10C9.25 10 9 10.125 8.875 10.3438L6.15625 14.3438L5.3125 13.2812C5.1875 13.125 4.96875 13 4.75 13C4.5 13 4.28125 13.125 4.15625 13.2812L2.15625 15.7812C1.96875 16.0312 1.9375 16.3438 2.0625 16.5938C2.1875 16.8438 2.4375 17 2.75 17H5.75H6.75H13.25C13.5 17 13.7812 16.875 13.9062 16.625C14.0312 16.375 14 16.0625 13.8438 15.8438L10.0938 10.3438ZM3.5 10C4.03125 10 4.5 9.71875 4.78125 9.25C5.0625 8.8125 5.0625 8.21875 4.78125 7.75C4.5 7.3125 4.03125 7 3.5 7C2.9375 7 2.46875 7.3125 2.1875 7.75C1.90625 8.21875 1.90625 8.8125 2.1875 9.25C2.46875 9.71875 2.9375 10 3.5 10Z" fill="black" fill-opacity="0.72"/>
</g>
<defs>
<clipPath id="clip0_2556_14573">
<rect width="16" height="24" fill="white"/>
</clipPath>
</defs>
</svg>
