<svg width="14" height="22" viewBox="0 0 14 22" fill="none" xmlns="http://www.w3.org/2000/svg">
<g id="label-paired / sm / envelope-sm / fill" clip-path="url(#clip0_2556_12895)">
<path id="icon" d="M1.3125 5.5H12.6875C13.3984 5.5 14 6.10156 14 6.8125C14 7.25 13.7812 7.63281 13.4531 7.87891L7.51953 12.3359C7.19141 12.582 6.78125 12.582 6.45312 12.3359L0.519531 7.87891C0.191406 7.63281 0 7.25 0 6.8125C0 6.10156 0.574219 5.5 1.3125 5.5ZM0 8.5625L5.93359 13.0469C6.5625 13.5117 7.41016 13.5117 8.03906 13.0469L14 8.5625V14.25C14 15.2344 13.207 16 12.25 16H1.75C0.765625 16 0 15.2344 0 14.25V8.5625Z" fill="black" fill-opacity="0.72"/>
</g>
<defs>
<clipPath id="clip0_2556_12895">
<rect width="14" height="22" fill="white"/>
</clipPath>
</defs>
</svg>
