<svg width="21" height="36" viewBox="0 0 21 36" fill="none" xmlns="http://www.w3.org/2000/svg">
<g id="label-paired / xl / tablet-screen-xl / bold" clip-path="url(#clip0_2556_19415)">
<path id="icon" d="M2.25 27C2.25 27.4219 2.57812 27.75 3 27.75H18C18.375 27.75 18.75 27.4219 18.75 27V23.25H2.25V27ZM2.25 21H18.75V9C18.75 8.625 18.375 8.25 18 8.25H3C2.57812 8.25 2.25 8.625 2.25 9V21ZM0 9C0 7.35938 1.3125 6 3 6H18C19.6406 6 21 7.35938 21 9V27C21 28.6875 19.6406 30 18 30H3C1.3125 30 0 28.6875 0 27V9ZM9 24.75H12C12.375 24.75 12.75 25.125 12.75 25.5C12.75 25.9219 12.375 26.25 12 26.25H9C8.57812 26.25 8.25 25.9219 8.25 25.5C8.25 25.125 8.57812 24.75 9 24.75Z" fill="black" fill-opacity="0.72"/>
</g>
<defs>
<clipPath id="clip0_2556_19415">
<rect width="21" height="36" fill="white"/>
</clipPath>
</defs>
</svg>
