<svg width="15" height="36" viewBox="0 0 15 36" fill="none" xmlns="http://www.w3.org/2000/svg">
<g id="label-paired / xl / sterling-sign-xl / fill" clip-path="url(#clip0_2556_19288)">
<path id="icon" d="M5.25 13.5469V16.5H10.5C11.2969 16.5 12 17.2031 12 18C12 18.8438 11.2969 19.5 10.5 19.5H5.25V21.6094C5.25 22.9688 4.875 24.2812 4.17188 25.4531L4.125 25.5H13.5C14.2969 25.5 15 26.2031 15 27C15 27.8438 14.2969 28.5 13.5 28.5H1.5C0.9375 28.5 0.421875 28.2188 0.1875 27.75C-0.09375 27.2812 -0.09375 26.7188 0.1875 26.25L1.59375 23.9062C2.01562 23.2031 2.25 22.4062 2.25 21.6094V19.5H1.5C0.65625 19.5 0 18.8438 0 18C0 17.2031 0.65625 16.5 1.5 16.5H2.25V13.5469C2.25 10.2188 4.92188 7.5 8.25 7.5C8.90625 7.5 9.51562 7.64062 10.1719 7.82812L13.9688 9.09375C14.7656 9.375 15.1875 10.2188 14.9062 11.0156C14.625 11.7656 13.7812 12.1875 13.0312 11.9531L9.1875 10.6875C8.90625 10.5938 8.57812 10.5 8.25 10.5C6.5625 10.5 5.25 11.8594 5.25 13.5469Z" fill="black" fill-opacity="0.72"/>
</g>
<defs>
<clipPath id="clip0_2556_19288">
<rect width="15" height="36" fill="white"/>
</clipPath>
</defs>
</svg>
