<svg width="10" height="24" viewBox="0 0 10 24" fill="none" xmlns="http://www.w3.org/2000/svg">
<g id="label-paired / md / backward-step-md / bold" clip-path="url(#clip0_2556_14688)">
<path id="icon" d="M2.5 6.75V10.0625L8 6.1875C8.15625 6.0625 8.34375 6 8.53125 6C9.0625 6 9.5 6.4375 9.5 6.96875V17.0625C9.5 17.5938 9.0625 18 8.5625 18C8.34375 18 8.15625 17.9688 8 17.8438L2.5 13.9688V17.25C2.5 17.6875 2.15625 18 1.75 18C1.3125 18 1 17.6875 1 17.25V12.9375V11.0938V6.75C1 6.34375 1.3125 6 1.75 6C2.15625 6 2.5 6.34375 2.5 6.75ZM2.5 12.1562L8 16V8.03125L2.5 11.875V12.1562Z" fill="black" fill-opacity="0.72"/>
</g>
<defs>
<clipPath id="clip0_2556_14688">
<rect width="10" height="24" fill="white"/>
</clipPath>
</defs>
</svg>
