<svg width="25" height="30" viewBox="0 0 25 30" fill="none" xmlns="http://www.w3.org/2000/svg">
<g id="label-paired / lg / chart-tradingview-lg / bold" clip-path="url(#clip0_3546_942)">
<path id="icon" d="M4.375 5.5C4.88281 5.5 5.3125 5.92969 5.3125 6.4375V23.0391C5.3125 23.3906 5.54688 23.625 5.89844 23.625H20.2734C20.8203 23.625 21.2109 24.0547 21.2109 24.5625C21.2109 25.1094 20.8203 25.5 20.2734 25.5H5.19531C4.21875 25.5 3.4375 24.7188 3.4375 23.7422V6.4375C3.4375 5.92969 3.82812 5.5 4.375 5.5ZM20.9375 13.3125C21.3281 13.6641 21.3281 14.25 20.9375 14.6406L14.8438 20.7344C14.2188 21.3594 13.2422 21.3594 12.6172 20.7344L11.25 19.3281L8.78906 21.7891C8.39844 22.1797 7.8125 22.1797 7.46094 21.7891C7.07031 21.4375 7.07031 20.8516 7.46094 20.4609L10.1172 17.8047C10.7422 17.1797 11.7188 17.1797 12.3438 17.8047L13.75 19.2109L19.6094 13.3125C20 12.9219 20.5859 12.9219 20.9375 13.3125ZM14.1797 8.89844C14.1797 9.36719 13.75 9.75781 13.2812 9.75781C12.7734 9.75781 12.3438 9.36719 12.3438 8.89844C12.3438 8.42969 12.7734 8.03906 13.2812 8.03906C13.75 8.03906 14.1797 8.42969 14.1797 8.89844ZM14.8828 8H16.25L14.4141 13H13.0469L14.8828 8ZM8.75 8H11.9141V13H10.7031V9.13281H8.75V8Z" fill="black" fill-opacity="0.72"/>
</g>
<defs>
<clipPath id="clip0_3546_942">
<rect width="25" height="30" fill="white"/>
</clipPath>
</defs>
</svg>
