<svg width="14" height="24" viewBox="0 0 14 24" fill="none" xmlns="http://www.w3.org/2000/svg">
<g id="label-paired / md / share-nodes-md / fill" clip-path="url(#clip0_3997_728)">
<path id="icon" d="M11 11C10.1875 11 9.4375 10.6875 8.90625 10.1875L5.96875 11.6562C5.96875 11.75 6 11.875 6 12C6 12.1562 5.96875 12.25 5.96875 12.375L8.90625 13.8438C9.4375 13.3438 10.1875 13 11 13C12.6562 13 14 14.3438 14 16C14 17.6562 12.6562 19 11 19C9.34375 19 8 17.6562 8 16C8 15.875 8 15.75 8 15.6562L5.0625 14.1875C4.53125 14.6875 3.78125 15 3 15C1.34375 15 0 13.6562 0 12C0 10.3438 1.34375 9 3 9C3.78125 9 4.53125 9.34375 5.0625 9.84375L8 8.375C8 8.25 8 8.125 8 8C8 6.34375 9.34375 5 11 5C12.6562 5 14 6.34375 14 8C14 9.65625 12.6562 11 11 11Z" fill="black" fill-opacity="0.72"/>
</g>
<defs>
<clipPath id="clip0_3997_728">
<rect width="14" height="24" fill="white"/>
</clipPath>
</defs>
</svg>
