<svg width="11" height="22" viewBox="0 0 11 22" fill="none" xmlns="http://www.w3.org/2000/svg">
<g id="label-paired / sm / file-lines-sm / regular" clip-path="url(#clip0_3431_821)">
<path id="icon" d="M9 16.875C9.46484 16.875 9.875 16.4922 9.875 16V9H6.8125C6.07422 9 5.5 8.42578 5.5 7.6875V4.625H2C1.50781 4.625 1.125 5.03516 1.125 5.5V16C1.125 16.4922 1.50781 16.875 2 16.875H9ZM6.8125 8.125H9.84766C9.82031 8.07031 9.79297 7.98828 9.73828 7.93359L6.56641 4.76172C6.51172 4.70703 6.42969 4.67969 6.375 4.65234V7.6875C6.375 7.93359 6.56641 8.125 6.8125 8.125ZM2 3.75H6.26562C6.59375 3.75 6.94922 3.91406 7.19531 4.16016L10.3398 7.30469C10.5859 7.55078 10.75 7.90625 10.75 8.23438V16C10.75 16.9844 9.95703 17.75 9 17.75H2C1.01562 17.75 0.25 16.9844 0.25 16V5.5C0.25 4.54297 1.01562 3.75 2 3.75ZM3.3125 10.75H7.6875C7.90625 10.75 8.125 10.9688 8.125 11.1875C8.125 11.4336 7.90625 11.625 7.6875 11.625H3.3125C3.06641 11.625 2.875 11.4336 2.875 11.1875C2.875 10.9688 3.06641 10.75 3.3125 10.75ZM3.3125 12.5H7.6875C7.90625 12.5 8.125 12.7188 8.125 12.9375C8.125 13.1836 7.90625 13.375 7.6875 13.375H3.3125C3.06641 13.375 2.875 13.1836 2.875 12.9375C2.875 12.7188 3.06641 12.5 3.3125 12.5ZM3.3125 14.25H7.6875C7.90625 14.25 8.125 14.4688 8.125 14.6875C8.125 14.9336 7.90625 15.125 7.6875 15.125H3.3125C3.06641 15.125 2.875 14.9336 2.875 14.6875C2.875 14.4688 3.06641 14.25 3.3125 14.25Z" fill="black" fill-opacity="0.72"/>
</g>
<defs>
<clipPath id="clip0_3431_821">
<rect width="11" height="22" fill="white"/>
</clipPath>
</defs>
</svg>
