<svg width="24" height="36" viewBox="0 0 24 36" fill="none" xmlns="http://www.w3.org/2000/svg">
<g id="label-paired / xl / camera-xl / regular" clip-path="url(#clip0_2556_19806)">
<path id="icon" d="M8.95312 7.5H15C15.9844 7.5 16.8281 8.15625 17.1562 9.04688L17.625 10.5H21C22.6406 10.5 24 11.8594 24 13.5V25.5C24 27.1875 22.6406 28.5 21 28.5H3C1.3125 28.5 0 27.1875 0 25.5V13.5C0 11.8594 1.3125 10.5 3 10.5H6.32812L6.79688 9.04688C7.125 8.15625 7.96875 7.5 8.95312 7.5ZM8.20312 9.51562L7.54688 11.5312C7.45312 11.8125 7.17188 12 6.84375 12H3C2.15625 12 1.5 12.7031 1.5 13.5V25.5C1.5 26.3438 2.15625 27 3 27H21C21.7969 27 22.5 26.3438 22.5 25.5V13.5C22.5 12.7031 21.7969 12 21 12H17.1094C16.7812 12 16.5 11.8125 16.4062 11.4844L15.75 9.51562C15.6094 9.23438 15.3281 9 15 9H8.95312C8.625 9 8.34375 9.23438 8.20312 9.51562ZM12 24.75C10.0781 24.75 8.39062 23.7656 7.45312 22.125C6.46875 20.5312 6.46875 18.5156 7.45312 16.875C8.39062 15.2812 10.0781 14.25 12 14.25C13.875 14.25 15.5625 15.2812 16.5 16.875C17.4844 18.5156 17.4844 20.5312 16.5 22.125C15.5625 23.7656 13.875 24.75 12 24.75ZM8.25 19.5C8.25 20.8594 8.95312 22.0781 10.125 22.7812C11.25 23.4375 12.7031 23.4375 13.875 22.7812C15 22.0781 15.75 20.8594 15.75 19.5C15.75 18.1875 15 16.9688 13.875 16.2656C12.7031 15.6094 11.25 15.6094 10.125 16.2656C8.95312 16.9688 8.25 18.1875 8.25 19.5Z" fill="black" fill-opacity="0.72"/>
</g>
<defs>
<clipPath id="clip0_2556_19806">
<rect width="24" height="36" fill="white"/>
</clipPath>
</defs>
</svg>
