<svg width="18" height="30" viewBox="0 0 18 30" fill="none" xmlns="http://www.w3.org/2000/svg">
<g id="label-paired / lg / tablet-lg / regular" clip-path="url(#clip0_2556_17659)">
<path id="icon" d="M2.75 6.75C2.04688 6.75 1.5 7.33594 1.5 8V23C1.5 23.7031 2.04688 24.25 2.75 24.25H15.25C15.9141 24.25 16.5 23.7031 16.5 23V8C16.5 7.33594 15.9141 6.75 15.25 6.75H2.75ZM0.25 8C0.25 6.63281 1.34375 5.5 2.75 5.5H15.25C16.6172 5.5 17.75 6.63281 17.75 8V23C17.75 24.4062 16.6172 25.5 15.25 25.5H2.75C1.34375 25.5 0.25 24.4062 0.25 23V8ZM7.75 21.125H10.25C10.5625 21.125 10.875 21.4375 10.875 21.75C10.875 22.1016 10.5625 22.375 10.25 22.375H7.75C7.39844 22.375 7.125 22.1016 7.125 21.75C7.125 21.4375 7.39844 21.125 7.75 21.125Z" fill="black" fill-opacity="0.72"/>
</g>
<defs>
<clipPath id="clip0_2556_17659">
<rect width="18" height="30" fill="white"/>
</clipPath>
</defs>
</svg>
