<svg width="15" height="30" viewBox="0 0 15 30" fill="none" xmlns="http://www.w3.org/2000/svg">
<g id="label-paired / lg / file-chart-column-lg / fill" clip-path="url(#clip0_2556_17536)">
<path id="icon" d="M2.5 5.5H8.75V10.5C8.75 11.2031 9.29688 11.75 10 11.75H15V23C15 24.4062 13.8672 25.5 12.5 25.5H2.5C1.09375 25.5 0 24.4062 0 23V8C0 6.63281 1.09375 5.5 2.5 5.5ZM10 5.5L15 10.5H10V5.5ZM8.4375 15.1875C8.4375 14.6797 8.00781 14.25 7.5 14.25C6.95312 14.25 6.5625 14.6797 6.5625 15.1875V22.0625C6.5625 22.6094 6.95312 23 7.5 23C8.00781 23 8.4375 22.6094 8.4375 22.0625V15.1875ZM11.875 17.6875C11.875 17.1797 11.4453 16.75 10.9375 16.75C10.3906 16.75 10 17.1797 10 17.6875V22.0625C10 22.6094 10.3906 23 10.9375 23C11.4453 23 11.875 22.6094 11.875 22.0625V17.6875ZM5 20.1875C5 19.6797 4.57031 19.25 4.0625 19.25C3.51562 19.25 3.125 19.6797 3.125 20.1875V22.0625C3.125 22.6094 3.51562 23 4.0625 23C4.57031 23 5 22.6094 5 22.0625V20.1875Z" fill="black" fill-opacity="0.72"/>
</g>
<defs>
<clipPath id="clip0_2556_17536">
<rect width="15" height="30" fill="white"/>
</clipPath>
</defs>
</svg>
