<svg width="18" height="24" viewBox="0 0 18 24" fill="none" xmlns="http://www.w3.org/2000/svg">
<g id="label-paired / md / share-from-square-md / regular" clip-path="url(#clip0_4038_432)">
<path id="icon" d="M12.5 12.75C12.5 12.9062 12.5938 13 12.75 13C12.8125 13 12.875 13 12.9062 12.9375L16.9375 9.125C16.9688 9.09375 16.9688 9.0625 16.9688 9C16.9688 8.96875 16.9688 8.9375 16.9375 8.90625L12.9062 5.09375C12.875 5.03125 12.8125 5 12.75 5C12.5938 5 12.5 5.125 12.5 5.25V6.5V7C12.5 7.28125 12.25 7.5 12 7.5H11.5H10.5H9C6.78125 7.5 5 9.3125 5 11.5C5 12.625 5.46875 13.4375 6.03125 14.0312C6 13.875 6 13.7188 6 13.5625C6 11.875 7.34375 10.5 9.03125 10.5H10.5H11H11.5H12C12.25 10.5 12.5 10.75 12.5 11V11.5V12.75ZM11.5 11.5H11H10.5H9.03125C7.90625 11.5 7 12.4375 7 13.5625C7 14.0312 7.4375 14.5312 7.71875 14.8125C7.875 14.9375 8 15.125 8 15.3438V15.375C8 15.7188 7.6875 16 7.34375 16C7.28125 16 7.1875 16 7.125 15.9688C6.5625 15.7188 4 14.4375 4 11.5C4 8.75 6.21875 6.5 9 6.5H10.5H11.5V5.5V5.25C11.5 4.5625 12.0625 4 12.75 4C13.0625 4 13.375 4.125 13.5938 4.34375L17.625 8.15625C17.8438 8.375 18 8.6875 18 9C18 9.34375 17.8438 9.625 17.625 9.84375L13.5938 13.6562C13.375 13.9062 13.0625 14 12.75 14C12.0625 14 11.5 13.4688 11.5 12.75V12.5V11.5ZM2 5H3.5C3.75 5 4 5.25 4 5.5C4 5.78125 3.75 6 3.5 6H2C1.4375 6 1 6.46875 1 7V18C1 18.5625 1.4375 19 2 19H13C13.5312 19 14 18.5625 14 18V16.5C14 16.25 14.2188 16 14.5 16C14.75 16 15 16.25 15 16.5V18C15 19.125 14.0938 20 13 20H2C0.875 20 0 19.125 0 18V7C0 5.90625 0.875 5 2 5Z" fill="black" fill-opacity="0.72"/>
</g>
<defs>
<clipPath id="clip0_4038_432">
<rect width="18" height="24" fill="white"/>
</clipPath>
</defs>
</svg>
