<svg width="16" height="24" viewBox="0 0 16 24" fill="none" xmlns="http://www.w3.org/2000/svg">
<g id="label-paired / md / circle-plus-md / bold" clip-path="url(#clip0_2556_15233)">
<path id="icon" d="M8 5.5C5.65625 5.5 3.53125 6.75 2.34375 8.75C1.1875 10.7812 1.1875 13.25 2.34375 15.25C3.53125 17.2812 5.65625 18.5 8 18.5C10.3125 18.5 12.4375 17.2812 13.625 15.25C14.7812 13.25 14.7812 10.7812 13.625 8.75C12.4375 6.75 10.3125 5.5 8 5.5ZM8 20C5.125 20 2.5 18.5 1.0625 16C-0.375 13.5312 -0.375 10.5 1.0625 8C2.5 5.53125 5.125 4 8 4C10.8438 4 13.4688 5.53125 14.9062 8C16.3438 10.5 16.3438 13.5312 14.9062 16C13.4688 18.5 10.8438 20 8 20ZM7.25 14.75V12.75H5.25C4.8125 12.75 4.5 12.4375 4.5 12C4.5 11.5938 4.8125 11.25 5.25 11.25H7.25V9.25C7.25 8.84375 7.5625 8.5 8 8.5C8.40625 8.5 8.75 8.84375 8.75 9.25V11.25H10.75C11.1562 11.25 11.5 11.5938 11.5 12C11.5 12.4375 11.1562 12.75 10.75 12.75H8.75V14.75C8.75 15.1875 8.40625 15.5 8 15.5C7.5625 15.5 7.25 15.1875 7.25 14.75Z" fill="black" fill-opacity="0.72"/>
</g>
<defs>
<clipPath id="clip0_2556_15233">
<rect width="16" height="24" fill="white"/>
</clipPath>
</defs>
</svg>
