<svg width="10" height="24" viewBox="0 0 10 24" fill="none" xmlns="http://www.w3.org/2000/svg">
<g id="label-paired / md / six-md / regular" clip-path="url(#clip0_2556_14830)">
<path id="icon" d="M9 14C9 11.8125 7.1875 10 5 10C2.8125 10 1.03125 11.75 1 13.9062C1 13.9375 1 13.9688 1 14C1 16.2188 2.78125 18 5 18C7.1875 18 9 16.2188 9 14ZM3.9375 9.125C4.28125 9.0625 4.625 9 5 9C7.75 9 10 11.25 10 14C10 16.7812 7.75 19 5 19C2.21875 19 0 16.7812 0 14C0 13.9375 0 13.9062 0 13.8438C0.03125 12.6562 0.5 11.5 1.28125 10.625L6.125 5.1875C6.28125 4.96875 6.625 4.96875 6.8125 5.15625C7.03125 5.3125 7.03125 5.65625 6.84375 5.84375L3.9375 9.125Z" fill="black" fill-opacity="0.72"/>
</g>
<defs>
<clipPath id="clip0_2556_14830">
<rect width="10" height="24" fill="white"/>
</clipPath>
</defs>
</svg>
