<svg width="21" height="36" viewBox="0 0 21 36" fill="none" xmlns="http://www.w3.org/2000/svg">
<g id="label-paired / xl / ellipsis-xl / fill" clip-path="url(#clip0_2556_19764)">
<path id="icon" d="M0.375 18C0.375 17.0625 0.84375 16.2188 1.6875 15.75C2.48438 15.2812 3.46875 15.2812 4.3125 15.75C5.10938 16.2188 5.625 17.0625 5.625 18C5.625 18.9844 5.10938 19.8281 4.3125 20.2969C3.46875 20.7656 2.48438 20.7656 1.6875 20.2969C0.84375 19.8281 0.375 18.9844 0.375 18ZM7.875 18C7.875 17.0625 8.34375 16.2188 9.1875 15.75C9.98438 15.2812 10.9688 15.2812 11.8125 15.75C12.6094 16.2188 13.125 17.0625 13.125 18C13.125 18.9844 12.6094 19.8281 11.8125 20.2969C10.9688 20.7656 9.98438 20.7656 9.1875 20.2969C8.34375 19.8281 7.875 18.9844 7.875 18ZM18 15.375C18.9375 15.375 19.7812 15.8906 20.25 16.6875C20.7188 17.5312 20.7188 18.5156 20.25 19.3125C19.7812 20.1562 18.9375 20.625 18 20.625C17.0156 20.625 16.1719 20.1562 15.7031 19.3125C15.2344 18.5156 15.2344 17.5312 15.7031 16.6875C16.1719 15.8906 17.0156 15.375 18 15.375Z" fill="black" fill-opacity="0.72"/>
</g>
<defs>
<clipPath id="clip0_2556_19764">
<rect width="21" height="36" fill="white"/>
</clipPath>
</defs>
</svg>
