<svg width="16" height="24" viewBox="0 0 16 24" fill="none" xmlns="http://www.w3.org/2000/svg">
<g id="label-paired / md / sparkles-md / bold" clip-path="url(#clip0_5090_448)">
<path id="icon" d="M10.2188 6.6875L12 6L12.6562 4.25C12.6875 4.09375 12.8438 4 13 4C13.125 4 13.2812 4.09375 13.3125 4.25L14 6L15.75 6.6875C15.9062 6.71875 16 6.875 16 7C16 7.15625 15.9062 7.3125 15.75 7.34375L14 8L13.3125 9.78125C13.2812 9.90625 13.125 10 13 10C12.8438 10 12.6875 9.90625 12.6562 9.78125L12 8L10.2188 7.34375C10.0938 7.3125 10 7.15625 10 7C10 6.875 10.0938 6.71875 10.2188 6.6875ZM0.28125 11.5L0.8125 11.2812L1.0625 11.1562H1.09375L3.84375 9.875L5.125 7.09375L5.25 6.84375L5.5 6.3125C5.5625 6.125 5.75 6 5.9375 6C6.125 6 6.3125 6.125 6.40625 6.3125L6.65625 6.84375L6.75 7.09375L6.78125 7.125L8.03125 9.875L10.8125 11.1562L11.0625 11.2812L11.5938 11.5312C11.7812 11.5938 11.9062 11.7812 11.9062 11.9688C11.9062 12.1562 11.7812 12.3438 11.5938 12.4375L11.0625 12.6562L10.8125 12.7812L8.03125 14.0625L6.75 16.8125V16.8438L6.625 17.0938L6.40625 17.625C6.3125 17.8125 6.125 17.9375 5.9375 17.9375C5.75 17.9375 5.5625 17.8125 5.5 17.625L5.25 17.0938L5.125 16.8438V16.8125L3.84375 14.0625L1.09375 12.7812H1.0625L0.8125 12.6562L0.28125 12.4375C0.09375 12.3438 0 12.1562 0 11.9688C0 11.7812 0.09375 11.5938 0.28125 11.5ZM2.875 11.9688L4.46875 12.7188C4.78125 12.8438 5.0625 13.125 5.21875 13.4375L5.9375 15.0312L6.6875 13.4375C6.84375 13.125 7.09375 12.8438 7.40625 12.7188L9 11.9688L7.40625 11.2188C7.09375 11.0938 6.84375 10.8125 6.6875 10.5L5.9375 8.90625L5.21875 10.5C5.0625 10.8125 4.78125 11.0938 4.46875 11.2188L2.875 11.9688ZM12 16L12.6562 14.25C12.6875 14.0938 12.8438 14 13 14C13.125 14 13.2812 14.0938 13.3125 14.25L14 16L15.75 16.6875C15.9062 16.7188 16 16.875 16 17C16 17.1562 15.9062 17.3125 15.75 17.3438L14 18L13.3125 19.7812C13.2812 19.9062 13.125 20 13 20C12.8438 20 12.6875 19.9062 12.6562 19.7812L12 18L10.2188 17.3438C10.0938 17.3125 10 17.1562 10 17C10 16.875 10.0938 16.7188 10.2188 16.6875L12 16Z" fill="black" fill-opacity="0.72"/>
</g>
<defs>
<clipPath id="clip0_5090_448">
<rect width="16" height="24" fill="white"/>
</clipPath>
</defs>
</svg>
