<svg width="21" height="36" viewBox="0 0 21 36" fill="none" xmlns="http://www.w3.org/2000/svg">
<g id="label-paired / xl / linux-xl" clip-path="url(#clip0_2556_19235)">
<path id="icon" d="M10.3125 11.8125C10.2656 11.7656 10.1719 11.7656 10.1719 11.7188C10.1719 11.7188 10.1719 11.6719 10.2188 11.6719C10.2656 11.625 10.3594 11.625 10.4531 11.6719C10.5 11.7188 10.5938 11.7656 10.5938 11.8125C10.5938 11.8594 10.5 11.8594 10.4531 11.8594C10.4062 11.8594 10.3594 11.8125 10.3125 11.8125ZM9.28125 11.8594C9.23438 11.9062 9.1875 11.8594 9.1875 11.8125C9.14062 11.7656 9.28125 11.7188 9.32812 11.6719C9.42188 11.625 9.51562 11.625 9.5625 11.6719C9.60938 11.6719 9.60938 11.7188 9.60938 11.7188C9.60938 11.7656 9.51562 11.7656 9.42188 11.8125C9.375 11.8125 9.375 11.8594 9.28125 11.8594ZM19.6875 24.9375C20.2031 25.5469 20.3906 25.9688 20.3906 26.3438C20.3906 26.7188 20.1094 27 19.7344 27.1875C19.0312 27.6094 18 27.9375 17.3438 28.6875C16.6875 29.4844 15.8906 29.9531 15.0938 30C14.2969 30.0938 13.5938 29.7188 13.2188 28.9219C13.1719 28.8281 13.125 28.7344 13.0781 28.6406C12.0938 28.6875 11.2031 28.3594 10.5 28.4062C9.46875 28.5 8.8125 28.7344 8.25 28.7344C8.01562 29.25 7.54688 29.5781 7.03125 29.6719C6.28125 29.8594 5.34375 29.6719 4.40625 29.2031C3.51562 28.7344 2.4375 28.7812 1.64062 28.5938C1.21875 28.5469 0.84375 28.3594 0.703125 28.0312C0.515625 27.7031 0.5625 27.2344 0.796875 26.5312C0.84375 26.2969 0.796875 25.9688 0.75 25.5938C0.703125 25.4062 0.703125 25.2188 0.703125 25.0312C0.703125 24.7969 0.703125 24.6094 0.84375 24.4219C1.03125 24.0469 1.35938 23.8594 1.6875 23.7656C2.01562 23.625 2.29688 23.5781 2.48438 23.3906C2.71875 23.1094 2.95312 22.6875 3.28125 22.4062C3.14062 21.6094 3.28125 20.7656 3.5625 19.9219C4.125 18.1406 5.39062 16.4531 6.28125 15.375C7.03125 14.2969 7.26562 13.4531 7.3125 12.375C7.40625 10.875 6.1875 6 10.9688 6C14.7656 6.04688 14.5781 10.0312 14.5312 12.1875C14.5312 13.5938 15.2812 14.5312 16.125 15.5625C16.8281 16.4062 17.7656 17.625 18.2812 19.0312C18.7031 20.2031 18.8906 21.4688 18.4688 22.7344C18.5156 22.7812 18.6094 22.7812 18.6562 22.8281C18.7031 22.875 18.7969 22.9219 18.8438 22.9688C19.125 23.25 19.2656 23.625 19.3125 24.0469C19.4062 24.4219 19.5 24.75 19.6875 24.9375ZM10.4531 10.125C10.3125 10.4531 10.2656 10.8281 10.3125 11.1562C10.5 11.1562 10.7344 11.25 10.9219 11.3438C10.8281 10.7812 11.1562 10.2188 11.4844 10.2656C11.9062 10.2656 12.1406 10.9688 11.9062 11.5312C11.8594 11.625 11.7656 11.7188 11.7188 11.7656C12.0469 11.8594 12.2344 11.9531 12.3281 12C12.7031 11.5312 12.8438 10.7812 12.5156 10.0781C12.0469 9.09375 10.9219 9.09375 10.4531 10.125ZM8.57812 9.5625C7.6875 9.5625 7.45312 11.3438 8.15625 12C8.53125 11.7656 8.48438 11.8125 8.4375 11.7656C8.0625 11.4375 8.10938 10.4531 8.53125 10.4531C8.8125 10.4062 9.04688 10.9219 8.95312 11.3438C9.14062 11.25 9.28125 11.2031 9.46875 11.1562C9.51562 10.2188 9.04688 9.5625 8.57812 9.5625ZM7.92188 12.4219C7.73438 12.5625 7.64062 12.75 7.73438 12.9844C7.78125 13.2188 8.01562 13.5 8.39062 13.7344C8.76562 13.9219 8.95312 14.25 9.32812 14.4375C9.46875 14.4844 9.60938 14.4844 9.79688 14.5312C10.6406 14.5781 11.0625 13.9688 11.5781 13.8281C12.1406 13.6406 12.5156 13.3125 12.6562 12.9844C12.7969 12.5625 12.5625 12.2812 12.1406 12.0938C11.625 11.9062 11.3906 11.8594 11.1094 11.6719C10.6406 11.3906 10.2188 11.25 9.89062 11.25C9.23438 11.25 8.8125 11.7188 8.57812 11.9062C8.57812 11.9531 8.20312 12.1875 7.92188 12.4219ZM8.0625 28.0781C8.15625 27.0938 6.60938 25.7812 6.14062 24.8438L5.25 23.1562C4.92188 22.7344 4.59375 22.5 4.21875 22.4062C3.84375 22.3594 3.60938 22.5 3.375 22.7344C3.14062 22.9688 2.95312 23.3438 2.71875 23.5781C2.34375 23.9062 2.25 23.9062 1.78125 24.0469C1.5 24.1406 1.26562 24.2812 1.07812 24.6094C0.984375 24.8438 0.984375 25.1719 1.03125 25.5469C1.125 25.875 1.17188 26.2969 1.07812 26.625V26.6719C0.84375 27.2812 0.84375 27.6562 0.9375 27.8906C1.3125 28.5938 3.14062 28.1719 4.54688 28.9219C6 29.6719 7.96875 29.7188 8.0625 28.0781ZM8.01562 26.8594C9.75 28.0781 11.8594 27.6094 13.3594 26.5312C13.5 26.0156 13.6406 25.5469 13.6875 25.1719C13.7344 24.4688 13.7812 23.8125 13.875 23.2969C14.0156 22.6875 14.3438 22.2188 14.9062 22.0312C15 21.0469 15.75 21.0469 16.6875 21.4219C17.5781 21.8438 17.9062 22.1719 17.7656 22.6406C17.8125 22.6406 17.8594 22.6406 17.9531 22.6406C18.1875 21.8438 17.2969 21.3281 16.5 21C16.6406 20.4375 16.6406 19.875 16.5 19.3594C16.2188 18.1406 15.4219 17.1094 14.8594 16.5938C14.7188 16.5938 14.7656 16.6875 14.9531 16.875C15.5156 17.3906 16.6875 19.1719 16.0781 20.8594C15.8906 20.8125 15.7031 20.8125 15.5625 20.8125C15.2812 19.4531 14.7188 18.3281 14.4375 17.7656C13.9219 16.7812 13.0781 14.7188 12.7031 13.2656C12.4688 13.5938 12.1406 13.8281 11.6719 13.9688C11.4375 14.0625 11.2031 14.25 10.9219 14.3906C10.2656 14.7656 9.51562 14.8125 8.90625 14.3438C8.71875 14.2031 8.53125 14.0156 8.34375 13.875C8.25 13.8281 8.10938 13.7344 8.0625 13.6875C7.96875 15.4688 6.75 17.6719 6.1875 18.9844C5.8125 19.875 5.57812 20.8594 5.53125 21.8438C4.54688 20.4844 5.29688 18.75 5.67188 18C6.14062 17.1562 6.1875 16.9219 6.09375 17.0156C5.67188 17.6719 5.0625 18.7031 4.82812 19.7812C4.6875 20.3438 4.64062 20.9062 4.82812 21.4219C4.96875 21.9375 5.34375 22.4531 5.95312 22.8281C5.95312 22.8281 7.125 23.4844 7.78125 24.375C8.10938 24.8438 8.20312 25.2188 8.10938 25.5469C8.01562 25.8281 7.6875 25.9219 7.3125 25.9219C7.54688 26.2031 7.82812 26.5312 8.01562 26.8594ZM20.0625 26.3438C20.1094 26.0625 19.9219 25.7344 19.4531 25.1719C18.9844 24.6562 19.0781 23.625 18.6094 23.2031C18.3281 22.9219 18 22.9688 17.5781 22.9688C17.2031 23.3906 16.3594 23.9062 15.75 23.7656C15.2344 23.625 14.9062 22.9688 14.9062 22.3594C14.8594 22.3594 14.8594 22.3594 14.8594 22.4062C14.5312 22.5469 14.3438 22.875 14.2031 23.3906C14.0625 23.8594 14.0625 24.4688 14.0156 25.1719C13.9688 25.7344 13.7344 26.4375 13.5469 27.0938C13.3594 27.7031 13.2656 28.2656 13.5 28.7812C13.8281 29.4844 14.3906 29.7656 15.0469 29.7188C15.75 29.625 16.5 29.25 17.1094 28.5C18.1406 27.2344 20.0156 27.0938 20.0625 26.3438ZM8.10938 12.9844C7.92188 12.8438 7.96875 12.7031 8.01562 12.7031C8.15625 12.7031 8.15625 12.8438 8.20312 12.9375C8.29688 12.9844 8.4375 13.125 8.57812 13.2188C8.85938 13.4531 9.28125 13.6875 9.75 13.6875C10.2188 13.6875 10.8281 13.4062 11.1562 13.2188C11.3438 13.125 11.5781 12.8906 11.8125 12.75C11.9531 12.6562 11.9531 12.5156 12.0938 12.5156C12.2344 12.5156 12.1406 12.6562 11.9531 12.8438C11.7656 12.9844 11.4844 13.1719 11.25 13.3125C10.8281 13.5469 10.3125 13.8281 9.75 13.8281C9.23438 13.8281 8.76562 13.5469 8.48438 13.3125C8.34375 13.2188 8.20312 13.0781 8.10938 12.9844Z" fill="black" fill-opacity="0.72"/>
</g>
<defs>
<clipPath id="clip0_2556_19235">
<rect width="21" height="36" fill="white"/>
</clipPath>
</defs>
</svg>
