<svg width="18" height="30" viewBox="0 0 18 30" fill="none" xmlns="http://www.w3.org/2000/svg">
<g id="label-paired / lg / placeholder-lg / regular" clip-path="url(#clip0_2556_17585)">
<path id="icon" d="M3.6875 6.75H4.625C4.9375 6.75 5.25 7.0625 5.25 7.375C5.25 7.72656 4.9375 8 4.625 8H3.6875C2.47656 8 1.5 9.01562 1.5 10.1875V11.125C1.5 11.4766 1.1875 11.75 0.875 11.75C0.523438 11.75 0.25 11.4766 0.25 11.125V10.1875C0.25 8.3125 1.77344 6.75 3.6875 6.75ZM0.875 13C1.1875 13 1.5 13.3125 1.5 13.625V17.375C1.5 17.7266 1.1875 18 0.875 18C0.523438 18 0.25 17.7266 0.25 17.375V13.625C0.25 13.3125 0.523438 13 0.875 13ZM17.125 13C17.4375 13 17.75 13.3125 17.75 13.625V17.375C17.75 17.7266 17.4375 18 17.125 18C16.7734 18 16.5 17.7266 16.5 17.375V13.625C16.5 13.3125 16.7734 13 17.125 13ZM17.125 11.75C16.7734 11.75 16.5 11.4766 16.5 11.125V10.1875C16.5 9.01562 15.4844 8 14.3125 8H13.375C13.0234 8 12.75 7.72656 12.75 7.375C12.75 7.0625 13.0234 6.75 13.375 6.75H14.3125C16.1875 6.75 17.75 8.3125 17.75 10.1875V11.125C17.75 11.4766 17.4375 11.75 17.125 11.75ZM17.75 19.875V20.8125C17.75 22.7266 16.1875 24.25 14.3125 24.25H13.375C13.0234 24.25 12.75 23.9766 12.75 23.625C12.75 23.3125 13.0234 23 13.375 23H14.3125C15.4844 23 16.5 22.0234 16.5 20.8125V19.875C16.5 19.5625 16.7734 19.25 17.125 19.25C17.4375 19.25 17.75 19.5625 17.75 19.875ZM1.5 19.875V20.8125C1.5 22.0234 2.47656 23 3.6875 23H4.625C4.9375 23 5.25 23.3125 5.25 23.625C5.25 23.9766 4.9375 24.25 4.625 24.25H3.6875C1.77344 24.25 0.25 22.7266 0.25 20.8125V19.875C0.25 19.5625 0.523438 19.25 0.875 19.25C1.1875 19.25 1.5 19.5625 1.5 19.875ZM7.125 24.25C6.77344 24.25 6.5 23.9766 6.5 23.625C6.5 23.3125 6.77344 23 7.125 23H10.875C11.1875 23 11.5 23.3125 11.5 23.625C11.5 23.9766 11.1875 24.25 10.875 24.25H7.125ZM6.5 7.375C6.5 7.0625 6.77344 6.75 7.125 6.75H10.875C11.1875 6.75 11.5 7.0625 11.5 7.375C11.5 7.72656 11.1875 8 10.875 8H7.125C6.77344 8 6.5 7.72656 6.5 7.375Z" fill="black" fill-opacity="0.72"/>
</g>
<defs>
<clipPath id="clip0_2556_17585">
<rect width="18" height="30" fill="white"/>
</clipPath>
</defs>
</svg>
