<svg width="14" height="18" viewBox="0 0 14 18" fill="none" xmlns="http://www.w3.org/2000/svg">
<g id="label-paired / caption / house-user-caption / bold" clip-path="url(#clip0_4670_635)">
<path id="icon" d="M6.625 3.64062C6.83594 3.47656 7.14062 3.47656 7.35156 3.64062L13.5391 8.89062C13.7734 9.10156 13.8203 9.45312 13.6094 9.6875C13.3984 9.92188 13.0469 9.94531 12.8125 9.75781L12.25 9.26562V13.625C12.25 14.6797 11.4062 15.5 10.375 15.5H3.625C2.57031 15.5 1.75 14.6797 1.75 13.625V9.26562L1.16406 9.75781C0.929688 9.94531 0.578125 9.92188 0.367188 9.6875C0.179688 9.45312 0.203125 9.10156 0.4375 8.89062L6.625 3.64062ZM2.875 8.30469V13.625C2.875 14.0469 3.20312 14.375 3.625 14.375H10.375C10.7734 14.375 11.125 14.0469 11.125 13.625V8.30469L7 4.8125L2.875 8.30469ZM5.5 8.75C5.5 8.23438 5.78125 7.74219 6.25 7.46094C6.69531 7.20312 7.28125 7.20312 7.75 7.46094C8.19531 7.74219 8.5 8.23438 8.5 8.75C8.5 9.28906 8.19531 9.78125 7.75 10.0625C7.28125 10.3203 6.69531 10.3203 6.25 10.0625C5.78125 9.78125 5.5 9.28906 5.5 8.75ZM6.25 11H7.75C8.78125 11 9.625 11.8438 9.625 12.875C9.625 13.0859 9.4375 13.25 9.25 13.25H4.75C4.53906 13.25 4.375 13.0859 4.375 12.875C4.375 11.8438 5.19531 11 6.25 11Z" fill="black" fill-opacity="0.72"/>
</g>
<defs>
<clipPath id="clip0_4670_635">
<rect width="14" height="18" fill="white"/>
</clipPath>
</defs>
</svg>
