<svg width="18" height="22" viewBox="0 0 18 22" fill="none" xmlns="http://www.w3.org/2000/svg">
<g id="label-paired / sm / puzzle-piece-two-sm / regular" clip-path="url(#clip0_3546_849)">
<path id="icon" d="M4.625 8.72656C4.625 8.42578 4.70703 8.15234 4.87109 7.96094C5.00781 7.74219 5.22656 7.57812 5.5 7.57812C5.77344 7.57812 5.99219 7.74219 6.12891 7.96094C6.18359 8.01562 6.23828 8.04297 6.26562 8.04297C6.32031 8.04297 6.375 7.98828 6.375 7.93359V7.14062C6.375 6.75781 6.67578 6.45703 7.03125 6.45703H8.23438C8.28906 6.45703 8.34375 6.40234 8.34375 6.34766C8.34375 6.32031 8.31641 6.26562 8.26172 6.21094C8.04297 6.04688 7.90625 5.82812 7.90625 5.55469C7.90625 5.28125 8.04297 5.0625 8.26172 4.89844C8.45312 4.73438 8.72656 4.65234 9 4.65234C9.27344 4.65234 9.54688 4.73438 9.73828 4.89844C9.95703 5.0625 10.0938 5.28125 10.0938 5.55469C10.0938 5.82812 9.95703 6.04688 9.73828 6.21094C9.68359 6.26562 9.65625 6.32031 9.65625 6.34766C9.65625 6.40234 9.71094 6.45703 9.76562 6.45703H10.9414C11.3242 6.45703 11.5977 6.75781 11.5977 7.14062V11.7617C11.5977 11.8438 11.5977 11.7617 11.625 11.9258V12.9375C11.625 12.9922 11.6523 13.0195 11.707 13.0195C11.7344 13.0195 11.7891 13.0195 11.8438 12.9375C12.0078 12.7461 12.2266 12.582 12.5 12.582C12.7461 12.582 12.9648 12.7461 13.1289 12.9375C13.2656 13.1562 13.375 13.4297 13.375 13.7031C13.375 14.0039 13.2656 14.3047 13.1289 14.4961C12.9648 14.7148 12.7461 14.8516 12.5 14.8516C12.2266 14.8516 12.0078 14.7148 11.8438 14.4961C11.7891 14.4141 11.7344 14.3867 11.707 14.3867C11.6523 14.3867 11.625 14.4414 11.625 14.4961V16.2188C11.625 16.6016 11.3242 16.875 10.9688 16.875H9.76562C9.46484 16.875 9.21875 16.6562 9.21875 16.3281C9.21875 16.1094 9.35547 15.9453 9.49219 15.8359C9.60156 15.7539 9.65625 15.6445 9.65625 15.5352C9.65625 15.4258 9.60156 15.3164 9.49219 15.2344C9.38281 15.1523 9.19141 15.0703 9 15.0703C8.80859 15.0703 8.61719 15.1523 8.50781 15.2344C8.39844 15.3164 8.34375 15.4258 8.34375 15.5352C8.34375 15.6445 8.39844 15.7539 8.50781 15.8359C8.64453 15.9453 8.78125 16.1094 8.78125 16.3281C8.78125 16.6562 8.53516 16.875 8.23438 16.875H7.03125C6.64844 16.875 6.375 16.6016 6.375 16.2188V12.1172C6.375 12.0078 6.375 11.8984 6.375 11.7617V9.51953C6.375 9.46484 6.32031 9.41016 6.26562 9.41016C6.23828 9.41016 6.18359 9.4375 6.12891 9.49219C5.99219 9.71094 5.77344 9.84766 5.5 9.84766C5.22656 9.84766 5.00781 9.71094 4.87109 9.49219C4.70703 9.30078 4.625 9.02734 4.625 8.72656ZM8.01562 10.9414V10.9688C7.93359 10.832 7.90625 10.6953 7.90625 10.5312C7.90625 10.2578 8.04297 10.0391 8.26172 9.875C8.45312 9.73828 8.72656 9.62891 9 9.62891C9.27344 9.62891 9.54688 9.73828 9.73828 9.875C9.82031 9.95703 9.90234 10.0391 9.95703 10.1211C10.0391 10.2578 10.0938 10.3945 10.0938 10.5312C10.0938 10.832 9.95703 11.0508 9.73828 11.2148C9.68359 11.2695 9.65625 11.3242 9.65625 11.3516C9.65625 11.3789 9.65625 11.4062 9.68359 11.4062C9.71094 11.4336 9.73828 11.4336 9.76562 11.4336H10.9414C11.0781 11.4336 11.1602 11.3516 11.1602 11.2148V7.14062C11.1602 7.03125 11.0781 6.89453 10.9414 6.89453H9.76562C9.46484 6.89453 9.21875 6.67578 9.21875 6.34766C9.21875 6.12891 9.35547 5.96484 9.49219 5.85547C9.60156 5.77344 9.65625 5.66406 9.65625 5.55469C9.65625 5.44531 9.60156 5.33594 9.49219 5.25391C9.38281 5.17188 9.19141 5.08984 9 5.08984C8.80859 5.08984 8.61719 5.17188 8.50781 5.25391C8.39844 5.33594 8.34375 5.44531 8.34375 5.55469C8.34375 5.66406 8.39844 5.77344 8.50781 5.85547C8.64453 5.96484 8.78125 6.12891 8.78125 6.34766C8.78125 6.67578 8.53516 6.89453 8.23438 6.89453H7.03125C6.92188 6.89453 6.8125 7.03125 6.8125 7.14062V7.93359C6.8125 8.26172 6.56641 8.48047 6.26562 8.48047C6.04688 8.48047 5.88281 8.37109 5.80078 8.23438C5.69141 8.09766 5.60938 8.04297 5.5 8.04297C5.39062 8.04297 5.30859 8.09766 5.19922 8.23438C5.11719 8.34375 5.0625 8.50781 5.0625 8.72656C5.0625 8.94531 5.11719 9.10938 5.19922 9.21875C5.30859 9.35547 5.39062 9.41016 5.5 9.41016C5.60938 9.41016 5.69141 9.35547 5.80078 9.21875C5.88281 9.08203 6.04688 8.94531 6.26562 8.94531C6.56641 8.94531 6.8125 9.19141 6.8125 9.51953V11.2148C6.8125 11.3516 6.92188 11.4336 7.03125 11.4336H8.23438C8.28906 11.4336 8.34375 11.4062 8.34375 11.3516C8.34375 11.3242 8.31641 11.2969 8.31641 11.2695C8.28906 11.2422 8.28906 11.2148 8.26172 11.2148C8.15234 11.1328 8.07031 11.0508 8.01562 10.9414ZM8.78125 11.3516C8.78125 11.6523 8.53516 11.8984 8.23438 11.8984H7.00391C6.89453 11.8984 6.78516 12.0078 6.78516 12.1172V16.1914C6.78516 16.3281 6.89453 16.4375 7.00391 16.4375H8.23438C8.28906 16.4375 8.34375 16.3828 8.34375 16.3281C8.34375 16.3008 8.31641 16.2461 8.26172 16.1914C8.04297 16.0273 7.90625 15.8086 7.90625 15.5352C7.90625 15.2617 8.04297 15.0156 8.26172 14.8789C8.45312 14.7148 8.72656 14.6055 9 14.6055C9.27344 14.6055 9.54688 14.7148 9.73828 14.8789C9.95703 15.0156 10.0938 15.2617 10.0938 15.5352C10.0938 15.8086 9.95703 16.0273 9.73828 16.1914C9.68359 16.2461 9.65625 16.3008 9.65625 16.3281C9.65625 16.3828 9.71094 16.4375 9.76562 16.4375H10.9414C11.0508 16.4375 11.1602 16.3281 11.1602 16.1914V14.4961C11.1602 14.1953 11.4062 13.9492 11.707 13.9492C11.9258 13.9492 12.0898 14.0859 12.1719 14.2227C12.2812 14.3594 12.3633 14.3867 12.4727 14.3867C12.582 14.3867 12.6641 14.3594 12.7734 14.2227C12.8555 14.1133 12.9102 13.9219 12.9102 13.7031C12.9102 13.5117 12.8555 13.3203 12.7734 13.2109C12.6641 13.1016 12.582 13.0195 12.4727 13.0195C12.3633 13.0195 12.2812 13.0742 12.1719 13.2109C12.0898 13.3477 11.9258 13.4844 11.707 13.4844C11.4062 13.4844 11.1602 13.2383 11.1602 12.9375V12.1172C11.1602 12.0078 11.0508 11.8984 10.9414 11.8984H9.76562C9.60156 11.8984 9.46484 11.8438 9.35547 11.7344C9.27344 11.625 9.21875 11.4883 9.21875 11.3516C9.21875 11.1055 9.35547 10.9414 9.49219 10.832C9.60156 10.75 9.65625 10.6406 9.65625 10.5312C9.65625 10.4766 9.62891 10.4219 9.60156 10.3672C9.57422 10.3398 9.54688 10.2852 9.49219 10.2305C9.38281 10.1484 9.19141 10.0938 9 10.0938C8.80859 10.0938 8.61719 10.1484 8.50781 10.2305C8.39844 10.3398 8.34375 10.4492 8.34375 10.5312C8.34375 10.6133 8.34375 10.668 8.39844 10.7227C8.42578 10.75 8.45312 10.8047 8.50781 10.832C8.5625 10.8867 8.64453 10.9414 8.67188 11.0234C8.75391 11.1055 8.78125 11.2148 8.78125 11.3516Z" fill="black" fill-opacity="0.72"/>
</g>
<defs>
<clipPath id="clip0_3546_849">
<rect width="18" height="22" fill="white"/>
</clipPath>
</defs>
</svg>
