<svg width="19" height="30" viewBox="0 0 19 30" fill="none" xmlns="http://www.w3.org/2000/svg">
<g id="label-paired / lg / options-lg / fill" clip-path="url(#clip0_5147_488)">
<path id="icon" d="M2.3125 25.3047C1.10156 25.3047 0.125 24.3281 0.125 23.1172V17.5312C0.125 16.7891 0.710938 16.1641 1.49219 16.1641H2.50781C3.25 16.1641 3.875 16.7891 3.875 17.5312V19.0156L5.04688 17.8438C5.75 17.1406 6.64844 16.75 7.625 16.75H10.3594C11.1016 16.75 11.7266 17.375 11.7266 18.1172V18.9766C11.7266 19.7578 11.1016 20.3438 10.3594 20.3438H8.25C7.85938 20.3438 7.46875 20.5 7.15625 20.8125L6.41406 21.5547H7.89844C8.64062 21.5547 9.26562 22.1797 9.26562 22.9219V23.9375C9.26562 24.6797 8.64062 25.3047 7.89844 25.3047H2.3125ZM17.5469 15.6562H16.5312C15.75 15.6562 15.125 15.0312 15.125 14.25V12.7656L13.9531 13.9766C13.25 14.6406 12.3516 15.0312 11.375 15.0312H8.64062C7.89844 15.0312 7.27344 14.4453 7.27344 13.6641V12.8047C7.27344 12.0625 7.89844 11.4375 8.64062 11.4375H10.75C11.1406 11.4375 11.5703 11.2812 11.8438 11.0078L12.5859 10.2266H11.1016C10.3594 10.2266 9.73438 9.64062 9.73438 8.85938V7.84375C9.73438 7.10156 10.3594 6.47656 11.1016 6.47656H16.6875C17.8984 6.47656 18.875 7.49219 18.875 8.70312V14.25C18.875 15.0312 18.2891 15.6172 17.5078 15.6172H17.5469V15.6562Z" fill="black" fill-opacity="0.72"/>
</g>
<defs>
<clipPath id="clip0_5147_488">
<rect width="19" height="30" fill="white"/>
</clipPath>
</defs>
</svg>
