<svg width="11" height="22" viewBox="0 0 11 22" fill="none" xmlns="http://www.w3.org/2000/svg">
<g id="label-paired / sm / file-lines-sm / bold" clip-path="url(#clip0_3431_823)">
<path id="icon" d="M2 16.4375H9C9.21875 16.4375 9.4375 16.2461 9.4375 16V8.125H7.25C6.75781 8.125 6.375 7.74219 6.375 7.25V5.0625H2C1.75391 5.0625 1.5625 5.28125 1.5625 5.5V16C1.5625 16.2461 1.75391 16.4375 2 16.4375ZM2 3.75H6.51172C6.97656 3.75 7.41406 3.94141 7.74219 4.26953L10.2305 6.75781C10.5586 7.08594 10.75 7.52344 10.75 7.98828V16C10.75 16.9844 9.95703 17.75 9 17.75H2C1.01562 17.75 0.25 16.9844 0.25 16V5.5C0.25 4.54297 1.01562 3.75 2 3.75ZM3.53125 10.75H7.46875C7.82422 10.75 8.125 11.0508 8.125 11.4062C8.125 11.7891 7.82422 12.0625 7.46875 12.0625H3.53125C3.14844 12.0625 2.875 11.7891 2.875 11.4062C2.875 11.0508 3.14844 10.75 3.53125 10.75ZM3.53125 13.375H7.46875C7.82422 13.375 8.125 13.6758 8.125 14.0312C8.125 14.4141 7.82422 14.6875 7.46875 14.6875H3.53125C3.14844 14.6875 2.875 14.4141 2.875 14.0312C2.875 13.6758 3.14844 13.375 3.53125 13.375Z" fill="black" fill-opacity="0.72"/>
</g>
<defs>
<clipPath id="clip0_3431_823">
<rect width="11" height="22" fill="white"/>
</clipPath>
</defs>
</svg>
