<svg width="30" height="36" viewBox="0 0 30 36" fill="none" xmlns="http://www.w3.org/2000/svg">
<g id="label-paired / xl / circle-user-slash-xl / regular" clip-path="url(#clip0_2365_780)">
<path id="icon" d="M0.140625 6.32812C0.375 6 0.890625 5.90625 1.17188 6.1875L29.6719 28.6875C30 28.9219 30.0938 29.3906 29.8125 29.7188C29.5781 30.0469 29.1094 30.0938 28.7812 29.8594L0.28125 7.35938C-0.046875 7.125 -0.09375 6.60938 0.140625 6.32812ZM3.98438 13.1719L5.20312 14.1562C4.73438 15.3281 4.5 16.6406 4.5 18C4.5 20.9531 5.71875 23.625 7.64062 25.5469C8.29688 22.9688 10.6875 21 13.5 21H13.9219L15.8438 22.5H13.5C11.1094 22.5 9.1875 24.3281 9 26.6719C10.6875 27.8438 12.75 28.5 15 28.5C17.2031 28.5 19.2656 27.8438 20.9531 26.625V26.6719C20.9531 26.625 20.9531 26.5781 20.9531 26.5781L22.2188 27.5625C20.2031 29.1562 17.625 30 15 30C10.6875 30 6.75 27.75 4.59375 24C2.67188 20.6719 2.48438 16.6406 3.98438 13.1719ZM7.73438 8.48438C9.75 6.89062 12.3281 6 15 6C19.2656 6 23.25 8.29688 25.3594 12C27.2812 15.375 27.5156 19.4062 25.9688 22.875L24.75 21.8906C25.2188 20.7188 25.5 19.4062 25.5 18C25.5 12.2344 20.7656 7.5 15 7.5C12.75 7.5 10.6406 8.25 8.95312 9.42188L7.73438 8.48438ZM12.9844 12.6094C13.0312 12.5625 13.0781 12.5625 13.125 12.5156C14.25 11.8594 15.7031 11.8594 16.875 12.5156C18 13.1719 18.75 14.4375 18.75 15.75C18.75 16.1719 18.6562 16.5938 18.5156 17.0156L17.2031 15.9844C17.25 15.5156 17.1562 15.0469 16.9219 14.625C16.5469 13.9688 15.7969 13.5 15 13.5C14.7188 13.5 14.4844 13.5469 14.25 13.6406L12.9844 12.6094Z" fill="black" fill-opacity="0.72"/>
</g>
<defs>
<clipPath id="clip0_2365_780">
<rect width="30" height="36" fill="white"/>
</clipPath>
</defs>
</svg>
