<svg width="14" height="22" viewBox="0 0 14 22" fill="none" xmlns="http://www.w3.org/2000/svg">
<g id="label-paired / sm / magnifying-glass-plus-sm / bold" clip-path="url(#clip0_3431_788)">
<path id="icon" d="M5.6875 5.0625C4.10156 5.0625 2.67969 5.91016 1.88672 7.25C1.09375 8.61719 1.09375 10.2852 1.88672 11.625C2.67969 12.9922 4.10156 13.8125 5.6875 13.8125C7.24609 13.8125 8.66797 12.9922 9.46094 11.625C10.2539 10.2852 10.2539 8.61719 9.46094 7.25C8.66797 5.91016 7.24609 5.0625 5.6875 5.0625ZM5.6875 15.125C2.54297 15.125 0 12.582 0 9.4375C0 6.32031 2.54297 3.75 5.6875 3.75C8.80469 3.75 11.375 6.32031 11.375 9.4375C11.375 10.7773 10.9102 12.0078 10.1445 12.9922L13.7812 16.6562C14.0547 16.9023 14.0547 17.3125 13.7812 17.5586C13.5352 17.832 13.125 17.832 12.8789 17.5586L9.21484 13.9219C8.23047 14.6875 7 15.125 5.6875 15.125ZM5.03125 11.8438V10.0938H3.28125C2.89844 10.0938 2.625 9.82031 2.625 9.4375C2.625 9.08203 2.89844 8.78125 3.28125 8.78125H5.03125V7.03125C5.03125 6.67578 5.30469 6.375 5.6875 6.375C6.04297 6.375 6.34375 6.67578 6.34375 7.03125V8.78125H8.09375C8.44922 8.78125 8.75 9.08203 8.75 9.4375C8.75 9.82031 8.44922 10.0938 8.09375 10.0938H6.34375V11.8438C6.34375 12.2266 6.04297 12.5 5.6875 12.5C5.30469 12.5 5.03125 12.2266 5.03125 11.8438Z" fill="black" fill-opacity="0.72"/>
</g>
<defs>
<clipPath id="clip0_3431_788">
<rect width="14" height="22" fill="white"/>
</clipPath>
</defs>
</svg>
