<svg width="24" height="36" viewBox="0 0 24 36" fill="none" xmlns="http://www.w3.org/2000/svg">
<g id="label-paired / xl / circle-arrow-down-xl / fill" clip-path="url(#clip0_2556_19633)">
<path id="icon" d="M12 6C16.2656 6 20.2031 8.29688 22.3594 12C24.5156 15.75 24.5156 20.2969 22.3594 24C20.2031 27.75 16.2656 30 12 30C7.6875 30 3.75 27.75 1.59375 24C-0.5625 20.2969 -0.5625 15.75 1.59375 12C3.75 8.29688 7.6875 6 12 6ZM5.95312 19.1719L11.2031 24.4219C11.625 24.8906 12.3281 24.8906 12.7969 24.4219L18 19.1719C18.4688 18.75 18.4688 18.0469 18 17.625C17.5781 17.1562 16.875 17.1562 16.4531 17.625L13.125 20.9531V12.375C13.125 11.7656 12.6094 11.25 12 11.25C11.3438 11.25 10.875 11.7656 10.875 12.375L10.8281 20.9531L7.5 17.625C7.07812 17.1562 6.375 17.1562 5.95312 17.625C5.48438 18.0469 5.48438 18.75 5.95312 19.1719Z" fill="black" fill-opacity="0.72"/>
</g>
<defs>
<clipPath id="clip0_2556_19633">
<rect width="24" height="36" fill="white"/>
</clipPath>
</defs>
</svg>
