<svg width="27" height="36" viewBox="0 0 27 36" fill="none" xmlns="http://www.w3.org/2000/svg">
<g id="label-paired / xl / folder-open-xl / regular" clip-path="url(#clip0_3431_1059)">
<path id="icon" d="M21 13.5C21 12.7031 20.2969 12 19.5 12H13.9688C12.7969 12 11.625 11.5312 10.7812 10.6875L9.5625 9.46875L10.5938 8.39062L9.5625 9.46875C9.28125 9.1875 8.90625 9 8.48438 9H3C2.15625 9 1.5 9.70312 1.5 10.5V23.9531L3.89062 17.9531C4.21875 17.0625 5.0625 16.5 6 16.5H24.75C25.4531 16.5 26.1562 16.875 26.5781 17.5312C27 18.1406 27.0938 18.8906 26.8125 19.5938L23.8125 27.0938C23.4844 27.9844 22.6406 28.5 21.75 28.5H18H3C1.3125 28.5 0 27.1875 0 25.5V10.5C0 8.85938 1.3125 7.5 3 7.5H8.48438C9.28125 7.5 10.0312 7.82812 10.5938 8.39062L11.8594 9.65625C12.4219 10.2188 13.1719 10.5 13.9688 10.5H19.5C21.1406 10.5 22.5 11.8594 22.5 13.5V15H21V13.5ZM18 27H21.75C22.0312 27 22.3125 26.8125 22.4062 26.5312L25.4062 19.0312C25.5 18.7969 25.5 18.5625 25.3594 18.3281C25.2188 18.1406 24.9844 18 24.75 18H6C5.67188 18 5.39062 18.1875 5.29688 18.5156L2.29688 26.0156C2.20312 26.2031 2.20312 26.4844 2.34375 26.6719C2.48438 26.9062 2.71875 27 3 27H18Z" fill="black" fill-opacity="0.72"/>
</g>
<defs>
<clipPath id="clip0_3431_1059">
<rect width="27" height="36" fill="white"/>
</clipPath>
</defs>
</svg>
