<svg width="16" height="24" viewBox="0 0 16 24" fill="none" xmlns="http://www.w3.org/2000/svg">
<g id="label-paired / md / circle-arrow-up-left-md / fill" clip-path="url(#clip0_2556_15302)">
<path id="icon" d="M8 20C5.125 20 2.5 18.5 1.0625 16C-0.375 13.5312 -0.375 10.5 1.0625 8C2.5 5.53125 5.125 4 8 4C10.8438 4 13.4688 5.53125 14.9062 8C16.3438 10.5 16.3438 13.5312 14.9062 16C13.4688 18.5 10.8438 20 8 20ZM10 8.5H5.25C4.8125 8.5 4.5 8.84375 4.5 9.25V14.25C4.5 14.6875 4.8125 15 5.25 15C5.65625 15 6 14.6875 6 14.25V11.0625L10.2188 15.2812C10.5 15.5938 10.9688 15.5938 11.2812 15.2812C11.5625 15 11.5625 14.5312 11.2812 14.2188L7.03125 10H10C10.4062 10 10.75 9.6875 10.75 9.25C10.75 8.84375 10.4062 8.5 10 8.5Z" fill="black" fill-opacity="0.72"/>
</g>
<defs>
<clipPath id="clip0_2556_15302">
<rect width="16" height="24" fill="white"/>
</clipPath>
</defs>
</svg>
