<svg width="20" height="30" viewBox="0 0 20 30" fill="none" xmlns="http://www.w3.org/2000/svg">
<g id="label-paired / lg / file-certificate-lg / fill" clip-path="url(#clip0_2556_16946)">
<path id="icon" d="M5 8C5 6.63281 6.09375 5.5 7.5 5.5H13.75V10.5C13.75 11.2031 14.2969 11.75 15 11.75H20V23C20 24.4062 18.8672 25.5 17.5 25.5H8.63281C8.71094 25.3047 8.75 25.1094 8.75 24.875V21.75C8.78906 21.75 8.82812 21.7109 8.86719 21.7109C9.14062 21.5938 9.45312 21.3984 9.6875 21.0859C9.92188 20.8125 10.0781 20.4219 10.1172 20.0312C10.1562 19.9141 10.1562 19.8359 10.1562 19.7578C10.2344 19.7188 10.2734 19.6797 10.3906 19.6016C11.1719 18.9766 11.4453 17.9609 11.0938 17.0234C11.0156 16.9062 10.9766 16.8281 10.9766 16.7891C10.9766 16.7109 11.0156 16.6328 11.0938 16.5156C11.4453 15.6172 11.1719 14.5625 10.3906 13.9375C10.2734 13.8594 10.2344 13.8203 10.1562 13.7812C10.1562 13.7031 10.1562 13.625 10.1172 13.5078C10 12.5312 9.21875 11.75 8.24219 11.6328C8.125 11.5938 8.04688 11.5938 7.96875 11.5938C7.92969 11.5547 7.89062 11.4766 7.8125 11.3594C7.1875 10.5781 6.17188 10.3047 5.23438 10.6953C5.15625 10.7344 5.03906 10.7734 5 10.8125V8ZM20 10.5H15V5.5L20 10.5ZM4.25781 11.8281L4.88281 12.0625C4.92188 12.1016 5.03906 12.1016 5.11719 12.0625L5.70312 11.8281C6.09375 11.6719 6.5625 11.7891 6.83594 12.1016L7.22656 12.6484C7.26562 12.7266 7.34375 12.7656 7.42188 12.7656L8.08594 12.8438C8.51562 12.9219 8.82812 13.2344 8.90625 13.6641L8.98438 14.3281C8.98438 14.4062 9.02344 14.4844 9.10156 14.5234L9.60938 14.9141C9.96094 15.1875 10.0781 15.6172 9.92188 16.0078L9.6875 16.6328C9.64844 16.7109 9.64844 16.8281 9.6875 16.9062L9.92188 17.4922C10.0781 17.8828 9.96094 18.3516 9.64844 18.5859L9.10156 19.0156C9.02344 19.0547 8.98438 19.1328 8.98438 19.2109L8.90625 19.875C8.82812 20.3047 8.51562 20.6172 8.08594 20.6953L7.5 20.7734V24.875C7.5 25.1094 7.34375 25.3438 7.14844 25.4609C6.95312 25.5391 6.71875 25.5391 6.52344 25.4219L5 24.4062L3.4375 25.4219C3.28125 25.5391 3.00781 25.5391 2.8125 25.4609C2.61719 25.3438 2.5 25.1094 2.5 24.875V20.7734L1.875 20.6953C1.44531 20.6172 1.13281 20.3047 1.09375 19.875L0.976562 19.2109C0.976562 19.1328 0.9375 19.0547 0.859375 19.0156L0.351562 18.5859C0 18.3516 -0.117188 17.8828 0.0390625 17.4922L0.3125 16.8672C0.3125 16.8281 0.3125 16.7109 0.3125 16.6328L0.0390625 16.0469C-0.117188 15.6562 0 15.1875 0.351562 14.9531L0.859375 14.5234C0.9375 14.4844 0.976562 14.4062 0.976562 14.3281L1.05469 13.6641C1.13281 13.2344 1.44531 12.9219 1.875 12.8438L2.53906 12.7656C2.61719 12.7656 2.69531 12.7266 2.73438 12.6484L3.16406 12.1406C3.39844 11.7891 3.86719 11.6719 4.25781 11.8281ZM7.5 16.75C7.5 15.8906 6.99219 15.0703 6.25 14.6016C5.46875 14.1719 4.49219 14.1719 3.75 14.6016C2.96875 15.0703 2.5 15.8906 2.5 16.75C2.5 17.6484 2.96875 18.4688 3.75 18.9375C4.49219 19.3672 5.46875 19.3672 6.25 18.9375C6.99219 18.4688 7.5 17.6484 7.5 16.75Z" fill="black" fill-opacity="0.72"/>
</g>
<defs>
<clipPath id="clip0_2556_16946">
<rect width="20" height="30" fill="white"/>
</clipPath>
</defs>
</svg>
