<svg width="8" height="18" viewBox="0 0 8 18" fill="none" xmlns="http://www.w3.org/2000/svg">
<g id="label-paired / caption / backward-step-caption / fill" clip-path="url(#clip0_2556_9975)">
<path id="icon" d="M6.50781 13.8359L2.00781 10.0859L1.75 9.85156V13.25C1.75 13.6719 1.39844 14 1 14C0.578125 14 0.25 13.6719 0.25 13.25V5.75C0.25 5.35156 0.578125 5 1 5C1.39844 5 1.75 5.35156 1.75 5.75V9.14844L2.00781 8.9375L6.50781 5.1875C6.74219 5 7.04688 4.95312 7.30469 5.07031C7.5625 5.21094 7.75 5.46875 7.75 5.75V13.25C7.75 13.5547 7.5625 13.8125 7.30469 13.9297C7.04688 14.0703 6.74219 14.0234 6.50781 13.8359Z" fill="black" fill-opacity="0.72"/>
</g>
<defs>
<clipPath id="clip0_2556_9975">
<rect width="8" height="18" fill="white"/>
</clipPath>
</defs>
</svg>
