<svg width="14" height="24" viewBox="0 0 14 24" fill="none" xmlns="http://www.w3.org/2000/svg">
<g id="label-paired / md / unlock-md / regular" clip-path="url(#clip0_2556_14680)">
<path id="icon" d="M4 8V10H11.5C12.875 10 14 11.125 14 12.5V17.5C14 18.9062 12.875 20 11.5 20H2.5C1.09375 20 0 18.9062 0 17.5V12.5C0 11.125 1.09375 10 2.5 10H3V8C3 5.8125 4.78125 4 7 4C8.8125 4 10.3438 5.21875 10.8125 6.875C10.9062 7.125 10.75 7.40625 10.4688 7.5C10.2188 7.5625 9.9375 7.4375 9.875 7.15625C9.5 5.90625 8.34375 5 7 5C5.34375 5 4 6.34375 4 8ZM1 12.5V17.5C1 18.3438 1.65625 19 2.5 19H11.5C12.3125 19 13 18.3438 13 17.5V12.5C13 11.6875 12.3125 11 11.5 11H2.5C1.65625 11 1 11.6875 1 12.5Z" fill="black" fill-opacity="0.72"/>
</g>
<defs>
<clipPath id="clip0_2556_14680">
<rect width="14" height="24" fill="white"/>
</clipPath>
</defs>
</svg>
