<svg width="14" height="22" viewBox="0 0 14 22" fill="none" xmlns="http://www.w3.org/2000/svg">
<g id="label-paired / sm / circle-xmark-sm / regular" clip-path="url(#clip0_2556_12502)">
<path id="icon" d="M7 4.625C4.78516 4.625 2.78906 5.80078 1.69531 7.6875C0.574219 9.60156 0.574219 11.9258 1.69531 13.8125C2.78906 15.7266 4.78516 16.875 7 16.875C9.1875 16.875 11.1836 15.7266 12.2773 13.8125C13.3984 11.9258 13.3984 9.60156 12.2773 7.6875C11.1836 5.80078 9.1875 4.625 7 4.625ZM7 17.75C4.48438 17.75 2.1875 16.4375 0.929688 14.25C-0.328125 12.0898 -0.328125 9.4375 0.929688 7.25C2.1875 5.08984 4.48438 3.75 7 3.75C9.48828 3.75 11.7852 5.08984 13.043 7.25C14.3008 9.4375 14.3008 12.0898 13.043 14.25C11.7852 16.4375 9.48828 17.75 7 17.75ZM4.92188 8.69922C5.08594 8.53516 5.38672 8.53516 5.55078 8.69922L7 10.1484L8.42188 8.69922C8.58594 8.53516 8.88672 8.53516 9.05078 8.69922C9.21484 8.86328 9.21484 9.16406 9.05078 9.32812L7.60156 10.75L9.05078 12.1992C9.21484 12.3633 9.21484 12.6641 9.05078 12.8281C8.88672 12.9922 8.58594 12.9922 8.42188 12.8281L7 11.3789L5.55078 12.8281C5.38672 12.9922 5.08594 12.9922 4.92188 12.8281C4.75781 12.6641 4.75781 12.3633 4.92188 12.1992L6.37109 10.75L4.92188 9.32812C4.75781 9.16406 4.75781 8.86328 4.92188 8.69922Z" fill="black" fill-opacity="0.72"/>
</g>
<defs>
<clipPath id="clip0_2556_12502">
<rect width="14" height="22" fill="white"/>
</clipPath>
</defs>
</svg>
