<svg width="20" height="30" viewBox="0 0 20 30" fill="none" xmlns="http://www.w3.org/2000/svg">
<g id="label-paired / lg / triangle-exclamation-lg / regular" clip-path="url(#clip0_2556_17302)">
<path id="icon" d="M1.32812 21.9453C1.25 22.0625 1.25 22.1797 1.25 22.2969C1.25 22.6875 1.5625 23.0391 1.95312 23.0391H18.0078C18.3984 23.0391 18.75 22.6875 18.75 22.2969C18.75 22.1797 18.7109 22.0625 18.6328 21.9453L10.7812 8.46875C10.625 8.19531 10.3125 8 10 8C9.64844 8 9.33594 8.19531 9.17969 8.46875L1.32812 21.9453ZM0.234375 21.3203L8.08594 7.84375C8.47656 7.17969 9.21875 6.75 10 6.75C10.7422 6.75 11.4844 7.17969 11.875 7.84375L19.7266 21.3203C19.8828 21.5938 20 21.9453 20 22.2969C20 23.3906 19.1016 24.25 18.0078 24.25H1.95312C0.859375 24.25 0 23.3906 0 22.2969C0 21.9453 0.078125 21.5938 0.234375 21.3203ZM10 11.75C10.3125 11.75 10.625 12.0625 10.625 12.375V17.375C10.625 17.7266 10.3125 18 10 18C9.64844 18 9.375 17.7266 9.375 17.375V12.375C9.375 12.0625 9.64844 11.75 10 11.75ZM9.0625 20.5C9.0625 19.9922 9.45312 19.5625 10 19.5625C10.5078 19.5625 10.9375 19.9922 10.9375 20.5C10.9375 21.0469 10.5078 21.4375 10 21.4375C9.45312 21.4375 9.0625 21.0469 9.0625 20.5Z" fill="black" fill-opacity="0.72"/>
</g>
<defs>
<clipPath id="clip0_2556_17302">
<rect width="20" height="30" fill="white"/>
</clipPath>
</defs>
</svg>
