<svg width="12" height="24" viewBox="0 0 12 24" fill="none" xmlns="http://www.w3.org/2000/svg">
<g id="label-paired / md / file-arrow-down-md / bold" clip-path="url(#clip0_3431_900)">
<path id="icon" d="M1.5 18C1.5 18.2812 1.71875 18.5 2 18.5H10C10.25 18.5 10.5 18.2812 10.5 18V9H8C7.4375 9 7 8.5625 7 8V5.5H2C1.71875 5.5 1.5 5.75 1.5 6V18ZM2 4H7.15625C7.6875 4 8.1875 4.21875 8.5625 4.59375L11.4062 7.4375C11.7812 7.8125 12 8.3125 12 8.84375V18C12 19.125 11.0938 20 10 20H2C0.875 20 0 19.125 0 18V6C0 4.90625 0.875 4 2 4ZM6.75 11.25V14.4688L7.71875 13.5C8 13.1875 8.46875 13.1875 8.78125 13.5C9.0625 13.7812 9.0625 14.25 8.78125 14.5312L6.53125 16.7812C6.21875 17.0938 5.75 17.0938 5.46875 16.7812L3.21875 14.5312C2.90625 14.25 2.90625 13.7812 3.21875 13.5C3.5 13.1875 3.96875 13.1875 4.28125 13.5L5.25 14.4688V11.25C5.25 10.8438 5.5625 10.5 6 10.5C6.40625 10.5 6.75 10.8438 6.75 11.25Z" fill="black" fill-opacity="0.72"/>
</g>
<defs>
<clipPath id="clip0_3431_900">
<rect width="12" height="24" fill="white"/>
</clipPath>
</defs>
</svg>
