<svg width="14" height="22" viewBox="0 0 14 22" fill="none" xmlns="http://www.w3.org/2000/svg">
<g id="label-paired / sm / globe-sm / regular" clip-path="url(#clip0_2556_12820)">
<path id="icon" d="M7 16.875C7.4375 16.875 8.09375 16.4922 8.66797 15.3164C8.94141 14.7695 9.1875 14.1133 9.35156 13.375H4.64844C4.78516 14.1133 5.03125 14.7695 5.30469 15.3164C5.87891 16.4922 6.53516 16.875 7 16.875ZM4.48438 12.5H9.48828C9.57031 11.9531 9.625 11.3789 9.625 10.75C9.625 10.1484 9.57031 9.57422 9.48828 9H4.48438C4.40234 9.57422 4.375 10.1484 4.375 10.75C4.375 11.3789 4.40234 11.9531 4.48438 12.5ZM4.64844 8.125H9.35156C9.1875 7.38672 8.94141 6.75781 8.66797 6.21094C8.09375 5.03516 7.4375 4.625 7 4.625C6.53516 4.625 5.87891 5.03516 5.30469 6.21094C5.03125 6.75781 4.78516 7.38672 4.64844 8.125ZM10.3906 9C10.4453 9.57422 10.5 10.1484 10.5 10.75C10.5 11.3789 10.4453 11.9531 10.3906 12.5H12.8516C13.0156 11.9531 13.125 11.3789 13.125 10.75C13.125 10.1484 13.0156 9.57422 12.8516 9H10.3906ZM12.5234 8.125C11.8125 6.64844 10.5273 5.5 8.94141 4.95312C9.51562 5.71875 9.98047 6.83984 10.2266 8.125H12.5234ZM3.74609 8.125C4.01953 6.83984 4.45703 5.71875 5.03125 4.95312C3.44531 5.5 2.16016 6.64844 1.44922 8.125H3.74609ZM1.12109 9C0.957031 9.57422 0.875 10.1484 0.875 10.75C0.875 11.3789 0.957031 11.9531 1.12109 12.5H3.60938C3.52734 11.9531 3.5 11.3789 3.5 10.75C3.5 10.1484 3.52734 9.57422 3.60938 9H1.12109ZM8.94141 16.5742C10.5273 16.0273 11.8125 14.8789 12.5234 13.375H10.2266C9.98047 14.6875 9.51562 15.7812 8.94141 16.5742ZM5.03125 16.5742C4.45703 15.7812 4.01953 14.6875 3.74609 13.375H1.44922C2.16016 14.8789 3.44531 16.0273 5.03125 16.5742ZM7 17.75C4.48438 17.75 2.1875 16.4375 0.929688 14.25C-0.328125 12.0898 -0.328125 9.4375 0.929688 7.25C2.1875 5.08984 4.48438 3.75 7 3.75C9.48828 3.75 11.7852 5.08984 13.043 7.25C14.3008 9.4375 14.3008 12.0898 13.043 14.25C11.7852 16.4375 9.48828 17.75 7 17.75Z" fill="black" fill-opacity="0.72"/>
</g>
<defs>
<clipPath id="clip0_2556_12820">
<rect width="14" height="22" fill="white"/>
</clipPath>
</defs>
</svg>
