<svg width="15" height="30" viewBox="0 0 15 30" fill="none" xmlns="http://www.w3.org/2000/svg">
<g id="label-paired / lg / percent-lg / bold" clip-path="url(#clip0_2556_17598)">
<path id="icon" d="M14.4141 9.91406L1.875 22.4141C1.52344 22.8047 0.9375 22.8047 0.585938 22.4141C0.195312 22.0625 0.195312 21.4766 0.585938 21.0859L13.0859 8.625C13.4375 8.23438 14.0234 8.23438 14.4141 8.625C14.7656 8.97656 14.7656 9.5625 14.4141 9.91406ZM4.375 10.5C4.375 11.2031 3.98438 11.7891 3.4375 12.1406C2.85156 12.4922 2.10938 12.4922 1.5625 12.1406C0.976562 11.7891 0.625 11.2031 0.625 10.5C0.625 9.83594 0.976562 9.25 1.5625 8.89844C2.10938 8.54688 2.85156 8.54688 3.4375 8.89844C3.98438 9.25 4.375 9.83594 4.375 10.5ZM14.375 20.5C14.375 21.2031 13.9844 21.7891 13.4375 22.1406C12.8516 22.4922 12.1094 22.4922 11.5625 22.1406C10.9766 21.7891 10.625 21.2031 10.625 20.5C10.625 19.8359 10.9766 19.25 11.5625 18.8984C12.1094 18.5469 12.8516 18.5469 13.4375 18.8984C13.9844 19.25 14.375 19.8359 14.375 20.5Z" fill="black" fill-opacity="0.72"/>
</g>
<defs>
<clipPath id="clip0_2556_17598">
<rect width="15" height="30" fill="white"/>
</clipPath>
</defs>
</svg>
