<svg width="14" height="22" viewBox="0 0 14 22" fill="none" xmlns="http://www.w3.org/2000/svg">
<g id="label-paired / sm / chart-mixed-sm / fill" clip-path="url(#clip0_2556_12673)">
<path id="icon" d="M13.6719 6.18359L9.29688 9.68359C8.96875 9.95703 8.53125 9.95703 8.20312 9.71094L5.25 7.49609L1.42188 10.5586C1.03906 10.8594 0.492188 10.8047 0.191406 10.4219C-0.109375 10.0664 -0.0546875 9.49219 0.328125 9.19141L4.70312 5.69141C5.00391 5.44531 5.44141 5.44531 5.76953 5.69141L8.72266 7.90625L12.5781 4.81641C12.9336 4.51562 13.5078 4.59766 13.8086 4.95312C14.1094 5.33594 14.0273 5.88281 13.6719 6.18359ZM4.375 10.75C4.375 10.2852 4.75781 9.875 5.25 9.875C5.71484 9.875 6.125 10.2852 6.125 10.75V16C6.125 16.4922 5.71484 16.875 5.25 16.875C4.75781 16.875 4.375 16.4922 4.375 16V10.75ZM0.875 13.375C0.875 12.9102 1.25781 12.5 1.75 12.5C2.21484 12.5 2.625 12.9102 2.625 13.375V16C2.625 16.4922 2.21484 16.875 1.75 16.875C1.25781 16.875 0.875 16.4922 0.875 16V13.375ZM8.75 11.625C9.21484 11.625 9.625 12.0352 9.625 12.5V16C9.625 16.4922 9.21484 16.875 8.75 16.875C8.25781 16.875 7.875 16.4922 7.875 16V12.5C7.875 12.0352 8.25781 11.625 8.75 11.625ZM11.375 10.75C11.375 10.2852 11.7578 9.875 12.25 9.875C12.7148 9.875 13.125 10.2852 13.125 10.75V16C13.125 16.4922 12.7148 16.875 12.25 16.875C11.7578 16.875 11.375 16.4922 11.375 16V10.75Z" fill="black" fill-opacity="0.72"/>
</g>
<defs>
<clipPath id="clip0_2556_12673">
<rect width="14" height="22" fill="white"/>
</clipPath>
</defs>
</svg>
