<svg width="15" height="18" viewBox="0 0 15 18" fill="none" xmlns="http://www.w3.org/2000/svg">
<g id="label-paired / caption / signal-caption / regular" clip-path="url(#clip0_2556_10114)">
<path id="icon" d="M13.875 3.875V15.125C13.875 15.3359 13.6875 15.5 13.5 15.5C13.2891 15.5 13.125 15.3359 13.125 15.125V3.875C13.125 3.6875 13.2891 3.5 13.5 3.5C13.6875 3.5 13.875 3.6875 13.875 3.875ZM10.5 5.75C10.6875 5.75 10.875 5.9375 10.875 6.125V15.125C10.875 15.3359 10.6875 15.5 10.5 15.5C10.2891 15.5 10.125 15.3359 10.125 15.125V6.125C10.125 5.9375 10.2891 5.75 10.5 5.75ZM7.875 8.375V15.125C7.875 15.3359 7.6875 15.5 7.5 15.5C7.28906 15.5 7.125 15.3359 7.125 15.125V8.375C7.125 8.1875 7.28906 8 7.5 8C7.6875 8 7.875 8.1875 7.875 8.375ZM4.5 10.25C4.6875 10.25 4.875 10.4375 4.875 10.625V15.125C4.875 15.3359 4.6875 15.5 4.5 15.5C4.28906 15.5 4.125 15.3359 4.125 15.125V10.625C4.125 10.4375 4.28906 10.25 4.5 10.25ZM1.5 12.5C1.6875 12.5 1.875 12.6875 1.875 12.875V15.125C1.875 15.3359 1.6875 15.5 1.5 15.5C1.28906 15.5 1.125 15.3359 1.125 15.125V12.875C1.125 12.6875 1.28906 12.5 1.5 12.5Z" fill="black" fill-opacity="0.72"/>
</g>
<defs>
<clipPath id="clip0_2556_10114">
<rect width="15" height="18" fill="white"/>
</clipPath>
</defs>
</svg>
