<svg width="15" height="36" viewBox="0 0 15 36" fill="none" xmlns="http://www.w3.org/2000/svg">
<g id="label-paired / xl / three-xl / bold" clip-path="url(#clip0_2556_19976)">
<path id="icon" d="M0 8.625C0 8.01562 0.46875 7.5 1.125 7.5H13.125C13.5469 7.5 13.9688 7.78125 14.1562 8.25C14.3438 8.67188 14.2031 9.14062 13.875 9.46875L6.89062 16.125H8.8125C12.1875 16.125 15 18.9375 15 22.3125C15 25.7344 12.1875 28.5 8.8125 28.5H4.54688C2.71875 28.5 1.03125 27.4688 0.1875 25.8281L0.09375 25.6406C-0.1875 25.0781 0.046875 24.4219 0.609375 24.1406C1.17188 23.8594 1.82812 24.0938 2.10938 24.6562L2.20312 24.7969C2.625 25.6875 3.5625 26.25 4.54688 26.25H8.8125C10.9688 26.25 12.75 24.5156 12.75 22.3125C12.75 20.1562 10.9688 18.375 8.8125 18.375H4.125C3.65625 18.375 3.23438 18.0938 3.04688 17.6719C2.90625 17.25 3 16.7812 3.32812 16.4531L10.3125 9.75H1.125C0.46875 9.75 0 9.28125 0 8.625Z" fill="black" fill-opacity="0.72"/>
</g>
<defs>
<clipPath id="clip0_2556_19976">
<rect width="15" height="36" fill="white"/>
</clipPath>
</defs>
</svg>
