<svg width="12" height="18" viewBox="0 0 12 18" fill="none" xmlns="http://www.w3.org/2000/svg">
<g id="label-paired / caption / circle-chevron-right-caption / fill" clip-path="url(#clip0_2556_10276)">
<path id="icon" d="M0 9.5C0 7.36719 1.125 5.39844 3 4.32031C4.85156 3.24219 7.125 3.24219 9 4.32031C10.8516 5.39844 12 7.36719 12 9.5C12 11.6562 10.8516 13.625 9 14.7031C7.125 15.7812 4.85156 15.7812 3 14.7031C1.125 13.625 0 11.6562 0 9.5ZM5.64844 12.3359L8.08594 9.89844C8.29688 9.6875 8.29688 9.33594 8.08594 9.10156L5.64844 6.6875C5.41406 6.45312 5.0625 6.45312 4.85156 6.6875C4.61719 6.89844 4.61719 7.25 4.85156 7.48438L6.89062 9.52344L4.85156 11.5625C4.61719 11.7734 4.61719 12.125 4.85156 12.3359C5.0625 12.5703 5.41406 12.5703 5.64844 12.3359Z" fill="black" fill-opacity="0.72"/>
</g>
<defs>
<clipPath id="clip0_2556_10276">
<rect width="12" height="18" fill="white"/>
</clipPath>
</defs>
</svg>
