<svg width="16" height="24" viewBox="0 0 16 24" fill="none" xmlns="http://www.w3.org/2000/svg">
<g id="label-paired / md / arrow-up-from-square-md / bold" clip-path="url(#clip0_2556_15154)">
<path id="icon" d="M8.53125 4.21875L12 7.71875C12.3125 8.03125 12.3125 8.5 12 8.78125C11.7188 9.09375 11.25 9.09375 10.9375 8.78125L8.71875 6.5625V14.25C8.71875 14.6875 8.40625 15 7.96875 15C7.5625 15 7.21875 14.6875 7.21875 14.25V6.5625L5 8.78125C4.71875 9.09375 4.25 9.09375 3.96875 8.78125C3.65625 8.5 3.65625 8.03125 3.96875 7.71875L7.46875 4.21875C7.75 3.9375 8.21875 3.9375 8.53125 4.21875ZM2.25 5H2.5C2.90625 5 3.25 5.34375 3.25 5.75C3.25 6.1875 2.90625 6.5 2.5 6.5H2.25C1.8125 6.5 1.5 6.84375 1.5 7.25V17.75C1.5 18.1875 1.8125 18.5 2.25 18.5H13.75C14.1562 18.5 14.5 18.1875 14.5 17.75V7.25C14.5 6.84375 14.1562 6.5 13.75 6.5H13.5C13.0625 6.5 12.75 6.1875 12.75 5.75C12.75 5.34375 13.0625 5 13.5 5H13.75C14.9688 5 16 6.03125 16 7.25V17.75C16 19 14.9688 20 13.75 20H2.25C1 20 0 19 0 17.75V7.25C0 6.03125 1 5 2.25 5Z" fill="black" fill-opacity="0.72"/>
</g>
<defs>
<clipPath id="clip0_2556_15154">
<rect width="16" height="24" fill="white"/>
</clipPath>
</defs>
</svg>
