<svg width="9" height="22" viewBox="0 0 9 22" fill="none" xmlns="http://www.w3.org/2000/svg">
<g id="label-paired / sm / eight-sm / regular" clip-path="url(#clip0_2556_12499)">
<path id="icon" d="M8.4375 7.90625C8.4375 9.05469 7.86328 10.0391 6.98828 10.6406C8.08203 11.1602 8.875 12.2812 8.875 13.5938C8.875 15.4258 7.39844 16.875 5.59375 16.875H3.40625C1.57422 16.875 0.125 15.4258 0.125 13.5938C0.125 12.2812 0.890625 11.1602 1.98438 10.6406C1.10938 10.0391 0.5625 9.05469 0.5625 7.90625C0.5625 6.10156 2.01172 4.625 3.84375 4.625H5.15625C6.96094 4.625 8.4375 6.10156 8.4375 7.90625ZM5.15625 11.1875H3.84375H3.81641H3.40625C2.06641 11.1875 1 12.2812 1 13.5938C1 14.9336 2.06641 16 3.40625 16H5.59375C6.90625 16 8 14.9336 8 13.5938C8 12.2812 6.90625 11.1875 5.59375 11.1875H5.15625ZM5.15625 10.3125C6.46875 10.3125 7.5625 9.24609 7.5625 7.90625C7.5625 6.59375 6.46875 5.5 5.15625 5.5H3.84375C2.50391 5.5 1.4375 6.59375 1.4375 7.90625C1.4375 9.24609 2.50391 10.3125 3.81641 10.3125C3.84375 10.3125 3.84375 10.3125 3.84375 10.3125H5.15625Z" fill="black" fill-opacity="0.72"/>
</g>
<defs>
<clipPath id="clip0_2556_12499">
<rect width="9" height="22" fill="white"/>
</clipPath>
</defs>
</svg>
