<svg width="24" height="36" viewBox="0 0 24 36" fill="none" xmlns="http://www.w3.org/2000/svg">
<g id="label-paired / xl / circle-question-xl / bold" clip-path="url(#clip0_3578_740)">
<path id="icon" d="M21.75 18C21.75 14.5312 19.875 11.3438 16.875 9.5625C13.8281 7.82812 10.125 7.82812 7.125 9.5625C4.07812 11.3438 2.25 14.5312 2.25 18C2.25 21.5156 4.07812 24.7031 7.125 26.4844C10.125 28.2188 13.8281 28.2188 16.875 26.4844C19.875 24.7031 21.75 21.5156 21.75 18ZM0 18C0 13.7344 2.25 9.79688 6 7.64062C9.70312 5.48438 14.25 5.48438 18 7.64062C21.7031 9.79688 24 13.7344 24 18C24 22.3125 21.7031 26.25 18 28.4062C14.25 30.5625 9.70312 30.5625 6 28.4062C2.25 26.25 0 22.3125 0 18ZM7.92188 13.7812C8.29688 12.7031 9.28125 12 10.4062 12H13.125C14.7656 12 16.125 13.3594 16.125 15C16.125 16.0312 15.5156 17.0156 14.625 17.5312L13.125 18.4219C13.0781 19.0312 12.6094 19.5 12 19.5C11.3438 19.5 10.875 19.0312 10.875 18.375V17.7656C10.875 17.3438 11.0625 16.9688 11.4375 16.7812L13.5 15.6094C13.7344 15.4688 13.875 15.2344 13.875 15C13.875 14.5781 13.5469 14.2969 13.125 14.2969H10.4062C10.2656 14.2969 10.125 14.3906 10.0781 14.5312L10.0312 14.5781C9.84375 15.1875 9.1875 15.4688 8.625 15.2812C8.01562 15.0469 7.73438 14.3906 7.92188 13.8281V13.7812ZM10.5 22.5C10.5 21.7031 11.1562 21 12 21C12.7969 21 13.5 21.7031 13.5 22.5C13.5 23.3438 12.7969 24 12 24C11.1562 24 10.5 23.3438 10.5 22.5Z" fill="black" fill-opacity="0.72"/>
</g>
<defs>
<clipPath id="clip0_3578_740">
<rect width="24" height="36" fill="white"/>
</clipPath>
</defs>
</svg>
