<svg width="20" height="24" viewBox="0 0 20 24" fill="none" xmlns="http://www.w3.org/2000/svg">
<g id="label-paired / md / chart-tradingview-md / bold" clip-path="url(#clip0_3546_935)">
<path id="icon" d="M3.5 4C3.90625 4 4.25 4.34375 4.25 4.75V18.0312C4.25 18.3125 4.4375 18.5 4.71875 18.5H16.2188C16.6562 18.5 16.9688 18.8438 16.9688 19.25C16.9688 19.6875 16.6562 20 16.2188 20H4.15625C3.375 20 2.75 19.375 2.75 18.5938V4.75C2.75 4.34375 3.0625 4 3.5 4ZM16.75 10.25C17.0625 10.5312 17.0625 11 16.75 11.3125L11.875 16.1875C11.375 16.6875 10.5938 16.6875 10.0938 16.1875L9 15.0625L7.03125 17.0312C6.71875 17.3438 6.25 17.3438 5.96875 17.0312C5.65625 16.75 5.65625 16.2812 5.96875 15.9688L8.09375 13.8438C8.59375 13.3438 9.375 13.3438 9.875 13.8438L11 14.9688L15.6875 10.25C16 9.9375 16.4688 9.9375 16.75 10.25ZM11.3438 6.71875C11.3438 7.09375 11 7.40625 10.625 7.40625C10.2188 7.40625 9.875 7.09375 9.875 6.71875C9.875 6.34375 10.2188 6.03125 10.625 6.03125C11 6.03125 11.3438 6.34375 11.3438 6.71875ZM11.9062 6H13L11.5312 10H10.4375L11.9062 6ZM7 6H9.53125V10H8.5625V6.90625H7V6Z" fill="black" fill-opacity="0.72"/>
</g>
<defs>
<clipPath id="clip0_3546_935">
<rect width="20" height="24" fill="white"/>
</clipPath>
</defs>
</svg>
