<svg width="24" height="36" viewBox="0 0 24 36" fill="none" xmlns="http://www.w3.org/2000/svg">
<g id="label-paired / xl / chart-area-xl / regular" clip-path="url(#clip0_2556_19593)">
<path id="icon" d="M1.5 8.25V24.75C1.5 26.0156 2.48438 27 3.75 27H23.25C23.625 27 24 27.375 24 27.75C24 28.1719 23.625 28.5 23.25 28.5H3.75C1.64062 28.5 0 26.8594 0 24.75V8.25C0 7.875 0.328125 7.5 0.75 7.5C1.125 7.5 1.5 7.875 1.5 8.25ZM13.9219 16.0781L10.5 12.6562L6.1875 16.9219C6.04688 17.0625 6 17.25 6 17.4375V22.5H21V18.0938C21 17.9062 20.9062 17.7656 20.8125 17.625L17.9062 14.2031L16.0312 16.0781C15.75 16.3594 15.375 16.5 15 16.5C14.5781 16.5 14.2031 16.3594 13.9219 16.0781ZM13.9219 13.9688L15 15L16.0312 13.9688L16.8281 13.1719C17.4375 12.5625 18.4688 12.6094 19.0312 13.2656L21.9375 16.6406C22.2656 17.0625 22.5 17.5781 22.5 18.0938V22.5C22.5 23.3438 21.7969 24 21 24H6C5.15625 24 4.5 23.3438 4.5 22.5V17.4375C4.5 16.875 4.73438 16.2656 5.15625 15.8438L9.42188 11.5781C9.98438 11.0156 10.9688 11.0156 11.5312 11.5781L13.9219 13.9688Z" fill="black" fill-opacity="0.72"/>
</g>
<defs>
<clipPath id="clip0_2556_19593">
<rect width="24" height="36" fill="white"/>
</clipPath>
</defs>
</svg>
