<svg width="20" height="30" viewBox="0 0 20 30" fill="none" xmlns="http://www.w3.org/2000/svg">
<g id="label-paired / lg / paste-lg / bold" clip-path="url(#clip0_2556_17627)">
<path id="icon" d="M4.0625 7.375C4.21875 6.32031 5.11719 5.5 6.25 5.5C7.34375 5.5 8.24219 6.32031 8.39844 7.375H10C11.1328 7.375 12.1094 8.19531 12.4219 9.25H10C8.86719 9.25 7.89062 9.75781 7.1875 10.5H4.375C3.67188 10.5 3.125 9.95312 3.125 9.25H2.5C2.14844 9.25 1.875 9.5625 1.875 9.875V20.5C1.875 20.8516 2.14844 21.125 2.5 21.125H6.25V23H2.5C1.09375 23 0 21.9062 0 20.5V9.875C0 8.50781 1.09375 7.375 2.5 7.375H4.0625ZM5.625 7.6875C5.625 8.03906 5.89844 8.3125 6.25 8.3125C6.5625 8.3125 6.875 8.03906 6.875 7.6875C6.875 7.375 6.5625 7.0625 6.25 7.0625C5.89844 7.0625 5.625 7.375 5.625 7.6875ZM17.5 23.625C17.8125 23.625 18.125 23.3516 18.125 23V15.0312L15.4688 12.375H10C9.64844 12.375 9.375 12.6875 9.375 13V23C9.375 23.3516 9.64844 23.625 10 23.625H17.5ZM10 25.5C8.59375 25.5 7.5 24.4062 7.5 23V13C7.5 11.6328 8.59375 10.5 10 10.5H15.4688C15.9375 10.5 16.4453 10.7344 16.7969 11.0859L19.4141 13.7031C19.7656 14.0547 20 14.5625 20 15.0312V23C20 24.4062 18.8672 25.5 17.5 25.5H10Z" fill="black" fill-opacity="0.72"/>
</g>
<defs>
<clipPath id="clip0_2556_17627">
<rect width="20" height="30" fill="white"/>
</clipPath>
</defs>
</svg>
