<svg width="18" height="24" viewBox="0 0 18 24" fill="none" xmlns="http://www.w3.org/2000/svg">
<g id="label-paired / md / floppy-disk-pen-md / regular" clip-path="url(#clip0_2556_14732)">
<path id="icon" d="M1 7V17C1 17.5625 1.4375 18 2 18H8.3125L8.0625 19H2C0.875 19 0 18.125 0 17V7C0 5.90625 0.875 5 2 5H9.65625C10.1875 5 10.6875 5.21875 11.0625 5.59375L13.4062 7.9375C13.7812 8.3125 14 8.8125 14 9.34375V10.9062L13 11.9062V9.34375C13 9.0625 12.875 8.8125 12.6875 8.625L10.375 6.3125C10.25 6.1875 10.125 6.125 10 6.0625V9C10 9.5625 9.53125 10 9 10H3C2.4375 10 2 9.5625 2 9V6C1.4375 6 1 6.46875 1 7ZM3 6V9H9V6H3ZM5.5 14C5.5 14.5625 5.78125 15.0312 6.25 15.3125C6.6875 15.5938 7.28125 15.5938 7.75 15.3125C8.1875 15.0312 8.5 14.5625 8.5 14C8.5 13.4688 8.1875 13 7.75 12.7188C7.28125 12.4375 6.6875 12.4375 6.25 12.7188C5.78125 13 5.5 13.4688 5.5 14ZM7 16.5C6.09375 16.5 5.28125 16.0312 4.8125 15.25C4.375 14.5 4.375 13.5312 4.8125 12.75C5.28125 12 6.09375 11.5 7 11.5C7.875 11.5 8.6875 12 9.15625 12.75C9.59375 13.5312 9.59375 14.5 9.15625 15.25C8.6875 16.0312 7.875 16.5 7 16.5ZM16.1875 12.2812C16 12.0625 15.6875 12.0625 15.5 12.2812L14.7188 13.0312L15.9688 14.2812L16.75 13.5312C16.9375 13.3125 16.9375 13 16.75 12.8125L16.1875 12.2812ZM10.6875 17.0625C10.625 17.125 10.5938 17.2188 10.5625 17.3125L10.1875 18.8438L11.7188 18.4375C11.7812 18.4375 11.875 18.375 11.9375 18.3125L15.25 15L14 13.75L10.6875 17.0625ZM14.7812 11.5625C15.375 10.9688 16.3125 10.9688 16.9062 11.5625L17.4375 12.0938C18.0312 12.6875 18.0312 13.625 17.4375 14.2188L12.6562 19.0312C12.4375 19.2188 12.2188 19.3438 11.9375 19.4375L9.59375 20C9.4375 20.0625 9.25 20 9.125 19.875C9 19.75 8.96875 19.5625 9 19.4062L9.59375 17.0625C9.65625 16.8125 9.78125 16.5625 9.96875 16.375L14.7812 11.5625Z" fill="black" fill-opacity="0.72"/>
</g>
<defs>
<clipPath id="clip0_2556_14732">
<rect width="18" height="24" fill="white"/>
</clipPath>
</defs>
</svg>
