<svg width="16" height="24" viewBox="0 0 16 24" fill="none" xmlns="http://www.w3.org/2000/svg">
<g id="label-paired / md / briefcase-md / bold" clip-path="url(#clip0_2556_14592)">
<path id="icon" d="M5.5 5.75V7H10.5V5.75C10.5 5.625 10.375 5.5 10.25 5.5H5.75C5.59375 5.5 5.5 5.625 5.5 5.75ZM4 7V5.75C4 4.8125 4.78125 4 5.75 4H10.25C11.1875 4 12 4.8125 12 5.75V7H14C15.0938 7 16 7.90625 16 9V12.75V17C16 18.125 15.0938 19 14 19H2C0.875 19 0 18.125 0 17V12.75V9C0 7.90625 0.875 7 2 7H4ZM1.5 13.5V17C1.5 17.2812 1.71875 17.5 2 17.5H14C14.25 17.5 14.5 17.2812 14.5 17V13.5H10V14C10 14.5625 9.53125 15 9 15H7C6.4375 15 6 14.5625 6 14V13.5H1.5ZM6 12H10H14.5V9C14.5 8.75 14.25 8.5 14 8.5H11.25H4.75H2C1.71875 8.5 1.5 8.75 1.5 9V12H6Z" fill="black" fill-opacity="0.72"/>
</g>
<defs>
<clipPath id="clip0_2556_14592">
<rect width="16" height="24" fill="white"/>
</clipPath>
</defs>
</svg>
