<svg width="30" height="36" viewBox="0 0 30 36" fill="none" xmlns="http://www.w3.org/2000/svg">
<g id="label-paired / xl / handshake-xl / fill" clip-path="url(#clip0_4513_703)">
<path id="icon" d="M15.1406 10.0312C15.9375 9.375 16.9219 9 17.9531 9C18.7969 9 19.6406 9.28125 20.3438 9.70312L23.7656 11.9062L23.9531 12H24V20.8594L17.4844 14.8594L18.4219 14.1094C18.75 13.875 18.8438 13.4062 18.5625 13.0781C18.3281 12.75 17.8594 12.6562 17.5312 12.9375L12.8438 16.5469C12.0469 17.1562 10.875 17.0156 10.2656 16.1719C9.70312 15.375 9.84375 14.2969 10.5938 13.6875L15.1406 10.0312ZM16.2188 15.8438L22.5 21.6094C23.3906 22.4531 23.4844 23.8594 22.6406 24.7969C21.8906 25.6406 20.625 25.7344 19.7344 25.125C19.6406 25.4062 19.4531 25.6875 19.2656 25.9219C18.4219 26.8125 17.0156 26.9062 16.0781 26.0625L15.2812 25.3125C15.1875 25.6875 15 26.0156 14.7656 26.2969C13.9219 27.1875 12.5156 27.2812 11.5781 26.4375L7.3125 22.5H6V12L9.375 9.75C10.0781 9.28125 10.9688 9 11.8125 9.04688C12.4219 9.04688 13.0312 9.14062 13.5469 9.375L9.65625 12.5156C8.29688 13.6406 8.01562 15.6562 9.04688 17.0625C10.1719 18.5625 12.3281 18.8906 13.7812 17.7188L16.2188 15.8438ZM0.75 12H4.5V22.5C4.5 23.3438 3.79688 24 3 24H1.5C0.65625 24 0 23.3438 0 22.5V12.75C0 12.375 0.328125 12 0.75 12ZM2.25 21C1.82812 21 1.5 21.375 1.5 21.75C1.5 22.1719 1.82812 22.5 2.25 22.5C2.625 22.5 3 22.1719 3 21.75C3 21.375 2.625 21 2.25 21ZM25.5 12H29.25C29.625 12 30 12.375 30 12.75V22.5C30 23.3438 29.2969 24 28.5 24H27C26.1562 24 25.5 23.3438 25.5 22.5V12ZM27 21.75C27 22.1719 27.3281 22.5 27.75 22.5C28.125 22.5 28.5 22.1719 28.5 21.75C28.5 21.375 28.125 21 27.75 21C27.3281 21 27 21.375 27 21.75Z" fill="black" fill-opacity="0.72"/>
</g>
<defs>
<clipPath id="clip0_4513_703">
<rect width="30" height="36" fill="white"/>
</clipPath>
</defs>
</svg>
