<svg width="12" height="18" viewBox="0 0 12 18" fill="none" xmlns="http://www.w3.org/2000/svg">
<g id="label-paired / caption / forward-caption / regular" clip-path="url(#clip0_2556_9993)">
<path id="icon" d="M11.1094 9.5L6 5.79688V13.2266L11.1094 9.5ZM5.95312 5C6.09375 5 6.23438 5.04688 6.35156 5.14062L11.7656 9.05469C11.9062 9.17188 12 9.33594 12 9.5C12 9.6875 11.9062 9.85156 11.7656 9.96875L6.35156 13.8828C6.23438 13.9531 6.09375 14 5.95312 14C5.55469 14 5.25 13.6953 5.25 13.2969V10.8828L1.10156 13.8828C0.984375 13.9531 0.84375 14 0.703125 14C0.304688 14 0 13.6953 0 13.2969V5.70312C0 5.32812 0.304688 5 0.703125 5C0.84375 5 0.984375 5.04688 1.10156 5.14062L5.25 8.14062V5.70312C5.25 5.32812 5.55469 5 5.95312 5ZM5.25 9.96875V9.05469L0.75 5.79688V13.2266L5.25 9.96875Z" fill="black" fill-opacity="0.72"/>
</g>
<defs>
<clipPath id="clip0_2556_9993">
<rect width="12" height="18" fill="white"/>
</clipPath>
</defs>
</svg>
