<svg width="20" height="30" viewBox="0 0 20 30" fill="none" xmlns="http://www.w3.org/2000/svg">
<g id="label-paired / lg / bullhorn-lg / regular" clip-path="url(#clip0_2556_17282)">
<path id="icon" d="M16.25 7.25781C16.25 6.94531 15.8984 6.82812 15.7031 7.02344L14.7656 8C13.125 9.71875 11.0156 10.9297 8.75 11.4375V18.3516C11.0156 18.8594 13.125 20.0312 14.7656 21.7891L15.7031 22.7656C15.8984 22.9609 16.25 22.8047 16.25 22.5312V7.25781ZM7.5 18.1562V11.6328C7.26562 11.6719 7.03125 11.6719 6.79688 11.7109L5.625 11.75H2.5C1.79688 11.75 1.25 12.3359 1.25 13V16.75C1.25 17.4531 1.79688 18 2.5 18H5.625L6.79688 18.0781C7.03125 18.0781 7.26562 18.1172 7.5 18.1562ZM14.8047 6.16406C15.7422 5.14844 17.5 5.8125 17.5 7.25781V22.5312C17.5 23.9375 15.7422 24.6406 14.8047 23.625L13.8672 22.6484C12.1484 20.8516 9.92188 19.7188 7.5 19.4062V23.3125C7.5 24.5234 6.52344 25.5 5.3125 25.5H4.6875C3.47656 25.5 2.5 24.5234 2.5 23.3125V19.25C1.09375 19.25 0 18.1562 0 16.75V13C0 11.6328 1.09375 10.5 2.5 10.5H5.58594L6.71875 10.4609C9.45312 10.3047 11.9922 9.13281 13.8672 7.14062L14.8047 6.16406ZM3.75 19.25V23.3125C3.75 23.8594 4.14062 24.25 4.6875 24.25H5.3125C5.82031 24.25 6.25 23.8594 6.25 23.3125V19.2891L5.58594 19.25H3.75ZM19.375 13C19.6875 13 20 13.3125 20 13.625V16.125C20 16.4766 19.6875 16.75 19.375 16.75C19.0234 16.75 18.75 16.4766 18.75 16.125V13.625C18.75 13.3125 19.0234 13 19.375 13Z" fill="black" fill-opacity="0.72"/>
</g>
<defs>
<clipPath id="clip0_2556_17282">
<rect width="20" height="30" fill="white"/>
</clipPath>
</defs>
</svg>
