<svg width="30" height="36" viewBox="0 0 30 36" fill="none" xmlns="http://www.w3.org/2000/svg">
<g id="label-paired / xl / puzzle-piece-two-xl / fill" clip-path="url(#clip0_3546_874)">
<path id="icon" d="M14.625 19.0312C14.625 18.7969 14.5781 18.6094 14.4375 18.4688C14.3906 18.3281 14.25 18.2344 14.1562 18.1406C14.0625 18.0938 14.0156 18 13.9688 17.9531C13.875 17.8594 13.875 17.7656 13.875 17.625C13.875 17.4844 13.9688 17.2969 14.1562 17.1094C14.3438 16.9688 14.6719 16.875 15 16.875C15.3281 16.875 15.6562 16.9688 15.8438 17.1094C15.9375 17.2031 15.9844 17.2969 16.0312 17.3438C16.0781 17.4375 16.125 17.5312 16.125 17.625C16.125 17.8125 16.0312 18 15.8438 18.1406C15.6094 18.3281 15.375 18.6094 15.375 19.0312C15.375 19.2656 15.4688 19.5 15.6094 19.6875C15.7969 19.875 16.0312 19.9688 16.3125 19.9688H18.3281C18.5156 19.9688 18.7031 20.1562 18.7031 20.3438V21.75C18.7031 22.2656 19.125 22.6875 19.6406 22.6875C20.0156 22.6875 20.2969 22.4531 20.4375 22.2188C20.625 21.9844 20.7656 21.8906 20.9531 21.8906C21.1406 21.8906 21.2812 22.0312 21.4688 22.2188C21.6094 22.4062 21.7031 22.7344 21.7031 23.0625C21.7031 23.4375 21.6094 23.7656 21.4688 23.9531C21.2812 24.1875 21.1406 24.2344 20.9531 24.2344C20.7656 24.2344 20.625 24.1875 20.4375 23.9531C20.2969 23.7188 20.0156 23.4844 19.6406 23.4844C19.125 23.4844 18.7031 23.9062 18.7031 24.4219V27.3281C18.7031 27.5625 18.5156 27.75 18.3281 27.75H16.3125C16.2188 27.75 16.125 27.6562 16.125 27.5625C16.125 27.5156 16.1719 27.4219 16.2656 27.3281C16.6406 27.0469 16.875 26.6719 16.875 26.2031C16.875 25.7344 16.6406 25.3125 16.2656 25.0781C15.9375 24.7969 15.4688 24.6094 15 24.6094C14.5312 24.6094 14.0625 24.7969 13.7344 25.0781C13.3594 25.3125 13.125 25.7344 13.125 26.2031C13.125 26.6719 13.3594 27.0469 13.7344 27.3281C13.8281 27.4219 13.875 27.5156 13.875 27.5625C13.875 27.6562 13.7812 27.75 13.6875 27.75H11.5781C11.3906 27.75 11.2031 27.5625 11.2031 27.3281V20.3438C11.2031 20.1562 11.3906 19.9688 11.5781 19.9688H13.6875C14.2031 19.9688 14.625 19.5469 14.625 19.0312ZM13.7344 18.7969C13.5469 18.6562 13.4062 18.5156 13.3125 18.3281C13.1719 18.1406 13.125 17.9062 13.125 17.625C13.125 17.1562 13.3594 16.7812 13.7344 16.5C14.0625 16.2656 14.5312 16.0781 15 16.0781C15.4688 16.0781 15.9375 16.2656 16.2656 16.5C16.4531 16.6406 16.5469 16.7812 16.6406 16.9219C16.7812 17.1562 16.875 17.3906 16.875 17.625C16.875 18.1406 16.6406 18.5156 16.2656 18.7969C16.1719 18.8906 16.125 18.9844 16.125 19.0312C16.125 19.0781 16.125 19.125 16.1719 19.125C16.2188 19.1719 16.2656 19.1719 16.3125 19.1719H18.3281C18.5625 19.1719 18.7031 19.0312 18.7031 18.7969V11.8125C18.7031 11.625 18.5625 11.3906 18.3281 11.3906H16.3125C15.7969 11.3906 15.375 11.0156 15.375 10.4531C15.375 10.0781 15.6094 9.79688 15.8438 9.60938C16.0312 9.42188 16.125 9.28125 16.125 9.09375C16.125 8.90625 16.0312 8.71875 15.8438 8.57812C15.6562 8.4375 15.3281 8.29688 15 8.29688C14.6719 8.29688 14.3438 8.4375 14.1562 8.57812C13.9688 8.71875 13.875 8.90625 13.875 9.09375C13.875 9.28125 13.9688 9.42188 14.1562 9.60938C14.3906 9.79688 14.625 10.0781 14.625 10.4531C14.625 11.0156 14.2031 11.3906 13.6875 11.3906H11.625C11.4375 11.3906 11.25 11.5781 11.25 11.8125V13.1719C11.25 13.7344 10.8281 14.1094 10.3125 14.1094C9.9375 14.1094 9.65625 13.9219 9.51562 13.6875C9.32812 13.4531 9.1875 13.3594 9 13.3594C8.8125 13.3594 8.67188 13.4531 8.48438 13.6875C8.34375 13.875 8.25 14.1562 8.25 14.5312C8.25 14.8594 8.34375 15.1875 8.48438 15.375C8.67188 15.6094 8.8125 15.7031 9 15.7031C9.1875 15.7031 9.32812 15.6094 9.51562 15.375C9.65625 15.1406 9.9375 14.9062 10.3125 14.9062C10.8281 14.9062 11.25 15.3281 11.25 15.8906V18.7969C11.25 19.0312 11.4375 19.1719 11.625 19.1719H13.6875C13.7812 19.1719 13.875 19.125 13.875 19.0312C13.875 18.9844 13.875 18.9375 13.8281 18.8906C13.7812 18.8438 13.7812 18.7969 13.7344 18.75V18.7969Z" fill="black" fill-opacity="0.72"/>
</g>
<defs>
<clipPath id="clip0_3546_874">
<rect width="30" height="36" fill="white"/>
</clipPath>
</defs>
</svg>
