<svg width="20" height="24" viewBox="0 0 20 24" fill="none" xmlns="http://www.w3.org/2000/svg">
<g id="label-paired / md / user-plus-md / regular" clip-path="url(#clip0_3327_779)">
<path id="icon" d="M7 5C5.90625 5 4.9375 5.59375 4.375 6.5C3.84375 7.4375 3.84375 8.59375 4.375 9.5C4.9375 10.4375 5.90625 11 7 11C8.0625 11 9.03125 10.4375 9.59375 9.5C10.125 8.59375 10.125 7.4375 9.59375 6.5C9.03125 5.59375 8.0625 5 7 5ZM7 12C5.5625 12 4.25 11.25 3.53125 10C2.8125 8.78125 2.8125 7.25 3.53125 6C4.25 4.78125 5.5625 4 7 4C8.40625 4 9.71875 4.78125 10.4375 6C11.1562 7.25 11.1562 8.78125 10.4375 10C9.71875 11.25 8.40625 12 7 12ZM5.5625 14.5C3.0625 14.5 1.03125 16.5312 1 19H13C12.9375 16.5312 10.9062 14.5 8.40625 14.5H5.5625ZM5.5625 13.5H8.40625C11.5 13.5 14 16 14 19.0938C14 19.5938 13.5625 20 13.0625 20H0.90625C0.40625 20 0 19.5938 0 19.0938C0 16 2.46875 13.5 5.5625 13.5ZM16 13.5V11H13.5C13.2188 11 13 10.7812 13 10.5C13 10.25 13.2188 10 13.5 10H16V7.5C16 7.25 16.2188 7 16.5 7C16.75 7 17 7.25 17 7.5V10H19.5C19.75 10 20 10.25 20 10.5C20 10.7812 19.75 11 19.5 11H17V13.5C17 13.7812 16.75 14 16.5 14C16.2188 14 16 13.7812 16 13.5Z" fill="black" fill-opacity="0.72"/>
</g>
<defs>
<clipPath id="clip0_3327_779">
<rect width="20" height="24" fill="white"/>
</clipPath>
</defs>
</svg>
