<svg width="25" height="30" viewBox="0 0 25 30" fill="none" xmlns="http://www.w3.org/2000/svg">
<g id="label-paired / lg / link-lg / bold" clip-path="url(#clip0_4460_542)">
<path id="icon" d="M22.6562 15.9688L18.2422 20.3828C16.0156 22.5703 12.4609 22.5703 10.2734 20.3828C8.20312 18.2734 8.08594 14.9531 10 12.7266L10.1953 12.4922C10.5469 12.1016 11.1328 12.0625 11.5234 12.4141C11.9141 12.7656 11.9531 13.3516 11.6016 13.7422L11.4453 13.9375C10.1172 15.4219 10.1953 17.6484 11.6016 19.0547C13.0469 20.5 15.4297 20.5 16.9141 19.0547L21.3281 14.6406C22.7734 13.1562 22.7734 10.8125 21.3281 9.32812C19.9219 7.96094 17.6953 7.88281 16.2109 9.17188L15.9766 9.36719C15.5859 9.71875 15 9.67969 14.6484 9.28906C14.2969 8.89844 14.3359 8.3125 14.7266 7.96094L14.9609 7.76562C17.1875 5.8125 20.5469 5.92969 22.6562 8C24.8438 10.1875 24.8438 13.7422 22.6562 15.9688ZM2.30469 15.0703L6.75781 10.6562C8.94531 8.46875 12.5 8.46875 14.6875 10.6562C16.7969 12.7266 16.9141 16.0859 14.9609 18.3125L14.7266 18.5469C14.4141 18.9375 13.7891 19.0156 13.3984 18.6641C13.0078 18.3125 12.9688 17.7266 13.3203 17.3359L13.5547 17.1016C14.8438 15.6172 14.7656 13.3906 13.3594 11.9844C11.9141 10.5 9.53125 10.5 8.08594 11.9844L3.63281 16.3984C2.1875 17.8438 2.1875 20.2266 3.63281 21.7109C5.03906 23.0781 7.26562 23.1562 8.75 21.8672L8.98438 21.6719C9.375 21.3203 9.96094 21.3594 10.3125 21.75C10.6641 22.1406 10.625 22.7266 10.2344 23.0781L10 23.2734C7.77344 25.2266 4.41406 25.1094 2.30469 23.0391C0.117188 20.8516 0.117188 17.2578 2.30469 15.0703Z" fill="black" fill-opacity="0.72"/>
</g>
<defs>
<clipPath id="clip0_4460_542">
<rect width="25" height="30" fill="white"/>
</clipPath>
</defs>
</svg>
