<svg width="27" height="36" viewBox="0 0 27 36" fill="none" xmlns="http://www.w3.org/2000/svg">
<g id="label-paired / xl / money-bill-xl / bold" clip-path="url(#clip0_2556_19342)">
<path id="icon" d="M5.25 11.25C5.25 12.9375 3.89062 14.25 2.25 14.25V21.75C3.89062 21.75 5.25 23.1094 5.25 24.75H21.75C21.75 23.1094 23.0625 21.75 24.75 21.75V14.25C23.0625 14.25 21.75 12.9375 21.75 11.25H5.25ZM0 12C0 10.3594 1.3125 9 3 9H24C25.6406 9 27 10.3594 27 12V24C27 25.6875 25.6406 27 24 27H3C1.3125 27 0 25.6875 0 24V12ZM13.5 13.5C15.0938 13.5 16.5469 14.3906 17.3906 15.75C18.1875 17.1562 18.1875 18.8906 17.3906 20.25C16.5469 21.6562 15.0938 22.5 13.5 22.5C11.8594 22.5 10.4062 21.6562 9.5625 20.25C8.76562 18.8906 8.76562 17.1562 9.5625 15.75C10.4062 14.3906 11.8594 13.5 13.5 13.5Z" fill="black" fill-opacity="0.72"/>
</g>
<defs>
<clipPath id="clip0_2556_19342">
<rect width="27" height="36" fill="white"/>
</clipPath>
</defs>
</svg>
