<svg width="18" height="24" viewBox="0 0 18 24" fill="none" xmlns="http://www.w3.org/2000/svg">
<g id="label-paired / md / arrow-up-arrow-down-md / fill" clip-path="url(#clip0_2556_14789)">
<path id="icon" d="M5.6875 5.3125L8.6875 8.3125C9.09375 8.6875 9.09375 9.34375 8.6875 9.71875C8.3125 10.125 7.65625 10.125 7.28125 9.71875L6 8.4375V18C6 18.5625 5.53125 19 5 19C4.4375 19 4 18.5625 4 18V8.4375L2.6875 9.71875C2.3125 10.125 1.65625 10.125 1.28125 9.71875C0.875 9.34375 0.875 8.6875 1.28125 8.3125L4.28125 5.3125C4.65625 4.90625 5.3125 4.90625 5.6875 5.3125ZM16.6875 15.7188L13.6875 18.7188C13.3125 19.125 12.6562 19.125 12.2812 18.7188L9.28125 15.7188C8.875 15.3438 8.875 14.6875 9.28125 14.3125C9.65625 13.9062 10.3125 13.9062 10.6875 14.3125L12 15.5938V6C12 5.46875 12.4375 5 13 5C13.5312 5 14 5.46875 14 6V15.5938L15.2812 14.3125C15.6562 13.9062 16.3125 13.9062 16.6875 14.3125C17.0938 14.6875 17.0938 15.3438 16.6875 15.7188Z" fill="black" fill-opacity="0.72"/>
</g>
<defs>
<clipPath id="clip0_2556_14789">
<rect width="18" height="24" fill="white"/>
</clipPath>
</defs>
</svg>
