<svg width="24" height="36" viewBox="0 0 24 36" fill="none" xmlns="http://www.w3.org/2000/svg">
<g id="label-paired / xl / bank-xl / regular" clip-path="url(#clip0_2556_19279)">
<path id="icon" d="M12.3281 6.14062L23.25 12.2812C23.7188 12.5625 24 13.0312 24 13.5469C24 14.3438 23.3438 15 22.5 15H12H1.45312C0.65625 15 0 14.3438 0 13.5469C0 13.0312 0.28125 12.5625 0.703125 12.2812L11.625 6.14062C11.8594 6 12.1406 6 12.3281 6.14062ZM14.3438 13.5H22.3594L12 7.64062L1.59375 13.5H9.60938C9.42188 13.1719 9.375 12.7969 9.375 12.375C9.375 10.9688 10.5469 9.75 12 9.75C13.4062 9.75 14.625 10.9688 14.625 12.375C14.625 12.7969 14.5312 13.1719 14.3438 13.5ZM12 11.25C11.3438 11.25 10.875 11.7656 10.875 12.375C10.875 13.0312 11.3438 13.5 12 13.5C12.6094 13.5 13.125 13.0312 13.125 12.375C13.125 11.7656 12.6094 11.25 12 11.25ZM3 22.5V16.5H4.5V22.5H8.25V16.5H9.75V22.5H14.25V16.5H15.75V22.5H19.5V16.5H21V22.5C21.375 22.5 21.75 22.875 21.75 23.25C21.75 23.6719 21.375 24 21 24H3C2.57812 24 2.25 23.6719 2.25 23.25C2.25 22.875 2.57812 22.5 3 22.5ZM1.875 25.5H22.125C22.5 25.5 22.875 25.875 22.875 26.25C22.875 26.6719 22.5 27 22.125 27H1.875C1.45312 27 1.125 26.6719 1.125 26.25C1.125 25.875 1.45312 25.5 1.875 25.5ZM0.75 28.5H23.25C23.625 28.5 24 28.875 24 29.25C24 29.6719 23.625 30 23.25 30H0.75C0.328125 30 0 29.6719 0 29.25C0 28.875 0.328125 28.5 0.75 28.5Z" fill="black" fill-opacity="0.72"/>
</g>
<defs>
<clipPath id="clip0_2556_19279">
<rect width="24" height="36" fill="white"/>
</clipPath>
</defs>
</svg>
