<svg width="30" height="36" viewBox="0 0 30 36" fill="none" xmlns="http://www.w3.org/2000/svg">
<g id="label-paired / xl / lock-pattern-xl / regular" clip-path="url(#clip0_2556_19482)">
<path id="icon" d="M3.75 9C3.75 7.78125 4.73438 6.75 6 6.75C6.9375 6.75 7.78125 7.40625 8.10938 8.25H12.8438C13.1719 7.40625 14.0156 6.75 15 6.75C15.9375 6.75 16.7812 7.40625 17.1094 8.25H21.8438C22.1719 7.40625 23.0156 6.75 24 6.75C25.2188 6.75 26.25 7.78125 26.25 9C26.25 10.2656 25.2188 11.25 24 11.25C23.625 11.25 23.2969 11.2031 23.0156 11.0625L17.0156 17.0625C17.1562 17.3438 17.25 17.6719 17.25 18C17.25 19.2656 16.2188 20.25 15 20.25C14.625 20.25 14.2969 20.2031 14.0156 20.0625L8.01562 26.0625C8.0625 26.1094 8.0625 26.2031 8.10938 26.25H12.8438C13.1719 25.4062 14.0156 24.75 15 24.75C15.9375 24.75 16.7812 25.4062 17.1094 26.25H21.8438C22.1719 25.4062 23.0156 24.75 24 24.75C25.2188 24.75 26.25 25.7812 26.25 27C26.25 28.2656 25.2188 29.25 24 29.25C23.0156 29.25 22.1719 28.6406 21.8438 27.75H17.1094C16.7812 28.6406 15.9375 29.25 15 29.25C14.0156 29.25 13.1719 28.6406 12.8438 27.75H8.10938C7.78125 28.6406 6.9375 29.25 5.95312 29.25C4.73438 29.25 3.70312 28.2656 3.70312 27C3.70312 25.7812 4.73438 24.75 5.95312 24.75C6.32812 24.75 6.65625 24.8438 6.9375 24.9844L12.9375 18.9844C12.7969 18.7031 12.7031 18.375 12.7031 18C12.7031 16.7812 13.7344 15.75 14.9531 15.75C15.3281 15.75 15.6562 15.8438 15.9375 15.9844L21.9375 9.98438C21.8906 9.9375 21.8906 9.84375 21.8438 9.75H17.1094C16.7812 10.6406 15.9375 11.25 15 11.25C14.0156 11.25 13.1719 10.6406 12.8438 9.75H8.10938C7.78125 10.6406 6.9375 11.25 6 11.25C4.73438 11.25 3.75 10.2656 3.75 9ZM3.75 18C3.75 18.8438 4.17188 19.5469 4.875 19.9688C5.53125 20.3906 6.42188 20.3906 7.125 19.9688C7.78125 19.5469 8.25 18.8438 8.25 18C8.25 17.2031 7.78125 16.5 7.125 16.0781C6.42188 15.6562 5.53125 15.6562 4.875 16.0781C4.17188 16.5 3.75 17.2031 3.75 18ZM21.75 18C21.75 18.8438 22.1719 19.5469 22.875 19.9688C23.5312 20.3906 24.4219 20.3906 25.125 19.9688C25.7812 19.5469 26.25 18.8438 26.25 18C26.25 17.2031 25.7812 16.5 25.125 16.0781C24.4219 15.6562 23.5312 15.6562 22.875 16.0781C22.1719 16.5 21.75 17.2031 21.75 18Z" fill="black" fill-opacity="0.72"/>
</g>
<defs>
<clipPath id="clip0_2556_19482">
<rect width="30" height="36" fill="white"/>
</clipPath>
</defs>
</svg>
