<svg width="16" height="24" viewBox="0 0 16 24" fill="none" xmlns="http://www.w3.org/2000/svg">
<g id="label-paired / md / circle-arrow-down-left-md / regular" clip-path="url(#clip0_2556_15223)">
<path id="icon" d="M8 5C5.46875 5 3.1875 6.34375 1.9375 8.5C0.65625 10.6875 0.65625 13.3438 1.9375 15.5C3.1875 17.6875 5.46875 19 8 19C10.5 19 12.7812 17.6875 14.0312 15.5C15.3125 13.3438 15.3125 10.6875 14.0312 8.5C12.7812 6.34375 10.5 5 8 5ZM8 20C5.125 20 2.5 18.5 1.0625 16C-0.375 13.5312 -0.375 10.5 1.0625 8C2.5 5.53125 5.125 4 8 4C10.8438 4 13.4688 5.53125 14.9062 8C16.3438 10.5 16.3438 13.5312 14.9062 16C13.4688 18.5 10.8438 20 8 20ZM9.75 15H5.5C5.21875 15 5 14.7812 5 14.5V10C5 9.75 5.21875 9.5 5.5 9.5C5.75 9.5 6 9.75 6 10V13.3125L10.125 9.15625C10.3125 8.96875 10.6562 8.96875 10.8438 9.15625C11.0312 9.34375 11.0312 9.6875 10.8438 9.875L6.6875 14H9.75C10 14 10.25 14.25 10.25 14.5C10.25 14.7812 10 15 9.75 15Z" fill="black" fill-opacity="0.72"/>
</g>
<defs>
<clipPath id="clip0_2556_15223">
<rect width="16" height="24" fill="white"/>
</clipPath>
</defs>
</svg>
