<svg width="12" height="18" viewBox="0 0 12 18" fill="none" xmlns="http://www.w3.org/2000/svg">
<g id="label-paired / caption / circle-chevron-left-caption / bold" clip-path="url(#clip0_2556_10268)">
<path id="icon" d="M1.125 9.5C1.125 11.2578 2.03906 12.8516 3.5625 13.7422C5.0625 14.6094 6.91406 14.6094 8.4375 13.7422C9.9375 12.8516 10.875 11.2578 10.875 9.5C10.875 7.76562 9.9375 6.17188 8.4375 5.28125C6.91406 4.41406 5.0625 4.41406 3.5625 5.28125C2.03906 6.17188 1.125 7.76562 1.125 9.5ZM12 9.5C12 11.6562 10.8516 13.625 9 14.7031C7.125 15.7812 4.85156 15.7812 3 14.7031C1.125 13.625 0 11.6562 0 9.5C0 7.36719 1.125 5.39844 3 4.32031C4.85156 3.24219 7.125 3.24219 9 4.32031C10.8516 5.39844 12 7.36719 12 9.5ZM6.35156 6.66406V6.6875C6.5625 6.45312 6.91406 6.45312 7.125 6.6875C7.35938 6.89844 7.35938 7.25 7.125 7.48438L5.08594 9.52344L7.125 11.5625C7.35938 11.7734 7.35938 12.125 7.125 12.3359C6.91406 12.5703 6.5625 12.5703 6.35156 12.3359L3.91406 9.89844C3.67969 9.6875 3.67969 9.33594 3.91406 9.10156L6.35156 6.66406Z" fill="black" fill-opacity="0.72"/>
</g>
<defs>
<clipPath id="clip0_2556_10268">
<rect width="12" height="18" fill="white"/>
</clipPath>
</defs>
</svg>
