<svg width="24" height="36" viewBox="0 0 24 36" fill="none" xmlns="http://www.w3.org/2000/svg">
<g id="label-paired / xl / table-layout-xl / bold" clip-path="url(#clip0_2556_19442)">
<path id="icon" d="M21 9.75H3C2.57812 9.75 2.25 10.125 2.25 10.5V13.5H21.75V10.5C21.75 10.125 21.375 9.75 21 9.75ZM2.25 25.5C2.25 25.9219 2.57812 26.25 3 26.25H6.75V15.75H2.25V25.5ZM9 26.25H21C21.375 26.25 21.75 25.9219 21.75 25.5V15.75H9V26.25ZM3 7.5H21C22.6406 7.5 24 8.85938 24 10.5V25.5C24 27.1875 22.6406 28.5 21 28.5H3C1.3125 28.5 0 27.1875 0 25.5V10.5C0 8.85938 1.3125 7.5 3 7.5Z" fill="black" fill-opacity="0.72"/>
</g>
<defs>
<clipPath id="clip0_2556_19442">
<rect width="24" height="36" fill="white"/>
</clipPath>
</defs>
</svg>
