<svg width="14" height="22" viewBox="0 0 14 22" fill="none" xmlns="http://www.w3.org/2000/svg">
<g id="label-paired / sm / right-from-bracket-sm / fill" clip-path="url(#clip0_2556_12893)">
<path id="icon" d="M10.3086 6.64844L13.6719 10.0117C13.8633 10.2031 14 10.4766 14 10.75C14 11.0508 13.8633 11.3242 13.6719 11.5156L10.3086 14.8789C10.1445 15.043 9.89844 15.125 9.65234 15.125C9.16016 15.125 8.75 14.7148 8.75 14.2227V12.5H5.25C4.75781 12.5 4.375 12.1172 4.375 11.625V9.875C4.375 9.41016 4.75781 9 5.25 9H8.75V7.30469C8.75 6.8125 9.16016 6.375 9.65234 6.375C9.89844 6.375 10.1445 6.48438 10.3086 6.64844ZM4.375 6.375H2.625C2.13281 6.375 1.75 6.78516 1.75 7.25V14.25C1.75 14.7422 2.13281 15.125 2.625 15.125H4.375C4.83984 15.125 5.25 15.5352 5.25 16C5.25 16.4922 4.83984 16.875 4.375 16.875H2.625C1.17578 16.875 0 15.6992 0 14.25V7.25C0 5.80078 1.17578 4.625 2.625 4.625H4.375C4.83984 4.625 5.25 5.03516 5.25 5.5C5.25 5.99219 4.83984 6.375 4.375 6.375Z" fill="black" fill-opacity="0.72"/>
</g>
<defs>
<clipPath id="clip0_2556_12893">
<rect width="14" height="22" fill="white"/>
</clipPath>
</defs>
</svg>
