<svg width="24" height="36" viewBox="0 0 24 36" fill="none" xmlns="http://www.w3.org/2000/svg">
<g id="label-paired / xl / life-ring-xl / fill" clip-path="url(#clip0_2556_19824)">
<path id="icon" d="M17.2031 25.3594L14.4844 22.6406C13.7344 23.0625 12.8906 23.25 12 23.25C11.0625 23.25 10.2188 23.0625 9.46875 22.6406L6.75 25.3594C8.25 26.3906 10.0312 27 12 27C13.9219 27 15.7031 26.3906 17.2031 25.3594ZM21.4219 25.4062H21.4688C21.8906 25.9688 21.7969 26.8125 21.2812 27.3281C20.7656 27.8438 19.9219 27.8906 19.3594 27.4688C17.2969 29.0625 14.7656 30 12 30C9.1875 30 6.65625 29.0625 4.59375 27.4688C4.03125 27.8906 3.1875 27.8438 2.67188 27.3281C2.15625 26.8125 2.10938 25.9688 2.53125 25.4062C0.9375 23.3438 0 20.8125 0 18C0 15.2344 0.9375 12.7031 2.53125 10.6406C2.10938 10.0781 2.15625 9.23438 2.67188 8.71875C3.1875 8.20312 4.03125 8.10938 4.59375 8.53125C6.65625 6.98438 9.1875 6 12 6C14.7656 6 17.2969 6.98438 19.3594 8.53125C19.9219 8.10938 20.7656 8.20312 21.2812 8.71875C21.7969 9.23438 21.8438 10.0781 21.4219 10.6406C23.0156 12.7031 23.9531 15.2344 23.9531 18C23.9531 20.8125 23.0156 23.3438 21.4219 25.4062ZM19.3125 23.25C20.3438 21.75 21 19.9688 21 18C21 16.0781 20.3438 14.2969 19.3125 12.7969L16.5938 15.5156C17.0156 16.2656 17.2031 17.1094 17.2031 18C17.2031 18.9375 17.0156 19.7812 16.5938 20.5312L19.3125 23.25ZM17.2031 10.6875C15.7031 9.65625 13.9219 9 12 9C10.0312 9 8.25 9.65625 6.75 10.6875L9.46875 13.4062C10.2188 12.9844 11.0625 12.75 11.9531 12.75C12.8906 12.75 13.7344 12.9844 14.4844 13.4062L17.2031 10.6875ZM7.35938 20.5312C6.9375 19.7812 6.75 18.9375 6.75 18.0469C6.75 17.1094 6.9375 16.2656 7.35938 15.5156L4.64062 12.7969C3.60938 14.2969 3 16.0781 3 18C3 19.9688 3.60938 21.75 4.64062 23.25L7.35938 20.5312ZM9.75 18C9.75 18.8438 10.1719 19.5469 10.875 19.9688C11.5312 20.3906 12.4219 20.3906 13.125 19.9688C13.7812 19.5469 14.25 18.8438 14.25 18C14.25 17.2031 13.7812 16.5 13.125 16.0781C12.4219 15.6562 11.5312 15.6562 10.875 16.0781C10.1719 16.5 9.75 17.2031 9.75 18Z" fill="black" fill-opacity="0.72"/>
</g>
<defs>
<clipPath id="clip0_2556_19824">
<rect width="24" height="36" fill="white"/>
</clipPath>
</defs>
</svg>
