<svg width="21" height="36" viewBox="0 0 21 36" fill="none" xmlns="http://www.w3.org/2000/svg">
<g id="label-paired / xl / placeholder-xl / regular" clip-path="url(#clip0_2556_19821)">
<path id="icon" d="M4.125 7.5H5.25C5.625 7.5 6 7.875 6 8.25C6 8.67188 5.625 9 5.25 9H4.125C2.67188 9 1.5 10.2188 1.5 11.625V12.75C1.5 13.1719 1.125 13.5 0.75 13.5C0.328125 13.5 0 13.1719 0 12.75V11.625C0 9.375 1.82812 7.5 4.125 7.5ZM0.75 15C1.125 15 1.5 15.375 1.5 15.75V20.25C1.5 20.6719 1.125 21 0.75 21C0.328125 21 0 20.6719 0 20.25V15.75C0 15.375 0.328125 15 0.75 15ZM20.25 15C20.625 15 21 15.375 21 15.75V20.25C21 20.6719 20.625 21 20.25 21C19.8281 21 19.5 20.6719 19.5 20.25V15.75C19.5 15.375 19.8281 15 20.25 15ZM20.25 13.5C19.8281 13.5 19.5 13.1719 19.5 12.75V11.625C19.5 10.2188 18.2812 9 16.875 9H15.75C15.3281 9 15 8.67188 15 8.25C15 7.875 15.3281 7.5 15.75 7.5H16.875C19.125 7.5 21 9.375 21 11.625V12.75C21 13.1719 20.625 13.5 20.25 13.5ZM21 23.25V24.375C21 26.6719 19.125 28.5 16.875 28.5H15.75C15.3281 28.5 15 28.1719 15 27.75C15 27.375 15.3281 27 15.75 27H16.875C18.2812 27 19.5 25.8281 19.5 24.375V23.25C19.5 22.875 19.8281 22.5 20.25 22.5C20.625 22.5 21 22.875 21 23.25ZM1.5 23.25V24.375C1.5 25.8281 2.67188 27 4.125 27H5.25C5.625 27 6 27.375 6 27.75C6 28.1719 5.625 28.5 5.25 28.5H4.125C1.82812 28.5 0 26.6719 0 24.375V23.25C0 22.875 0.328125 22.5 0.75 22.5C1.125 22.5 1.5 22.875 1.5 23.25ZM8.25 28.5C7.82812 28.5 7.5 28.1719 7.5 27.75C7.5 27.375 7.82812 27 8.25 27H12.75C13.125 27 13.5 27.375 13.5 27.75C13.5 28.1719 13.125 28.5 12.75 28.5H8.25ZM7.5 8.25C7.5 7.875 7.82812 7.5 8.25 7.5H12.75C13.125 7.5 13.5 7.875 13.5 8.25C13.5 8.67188 13.125 9 12.75 9H8.25C7.82812 9 7.5 8.67188 7.5 8.25Z" fill="black" fill-opacity="0.72"/>
</g>
<defs>
<clipPath id="clip0_2556_19821">
<rect width="21" height="36" fill="white"/>
</clipPath>
</defs>
</svg>
