<svg width="15" height="18" viewBox="0 0 15 18" fill="none" xmlns="http://www.w3.org/2000/svg">
<g id="label-paired / caption / graduation-cap-caption / fill" clip-path="url(#clip0_4124_425)">
<path id="icon" d="M7.5 4.25C7.6875 4.25 7.875 4.29688 8.03906 4.36719L14.625 6.73438C14.8359 6.80469 15 7.01562 15 7.25C15 7.50781 14.8359 7.71875 14.625 7.78906L8.03906 10.1562C7.875 10.2266 7.6875 10.25 7.47656 10.25C7.28906 10.25 7.10156 10.2266 6.9375 10.1562L3.1875 8.79688C3.39844 8.58594 3.65625 8.42188 3.9375 8.30469L7.61719 6.85156C7.82812 6.78125 7.92188 6.57031 7.82812 6.35938C7.75781 6.17188 7.54688 6.07812 7.35938 6.14844L3.67969 7.60156C3.21094 7.78906 2.8125 8.07031 2.50781 8.44531C2.10938 8.98438 1.875 9.64062 1.875 10.3438V10.9297C2.01562 11.2344 2.10938 11.5859 2.17969 11.9141C2.32031 12.5469 2.4375 13.4609 2.22656 14.4688C2.20312 14.5625 2.15625 14.6562 2.0625 14.7031C1.96875 14.75 1.875 14.7734 1.78125 14.75L0.28125 14.375C0.140625 14.3516 0.046875 14.2578 0 14.1406C-0.0234375 14.0234 0 13.8828 0.0703125 13.7891C0.257812 13.5078 0.445312 13.2031 0.585938 12.8984C0.867188 12.3594 1.125 11.6797 1.125 11V10.3438C1.125 9.59375 1.33594 8.89062 1.71094 8.28125L0.351562 7.78906C0.140625 7.71875 0 7.50781 0 7.25C0 7.01562 0.140625 6.80469 0.351562 6.73438L6.9375 4.36719C7.10156 4.29688 7.28906 4.25 7.5 4.25ZM3 13.0625L3.35156 9.66406L6.67969 10.8594C6.9375 10.9531 7.21875 11 7.5 11C7.75781 11 8.03906 10.9531 8.29688 10.8594L11.625 9.66406L12 13.0625C12 13.9062 9.98438 14.75 7.5 14.75C5.01562 14.75 3 13.9062 3 13.0625Z" fill="black" fill-opacity="0.72"/>
</g>
<defs>
<clipPath id="clip0_4124_425">
<rect width="15" height="18" fill="white"/>
</clipPath>
</defs>
</svg>
