<svg width="24" height="36" viewBox="0 0 24 36" fill="none" xmlns="http://www.w3.org/2000/svg">
<g id="label-paired / xl / window-maximize-xl / fill" clip-path="url(#clip0_2556_19841)">
<path id="icon" d="M3 7.5H21C22.6406 7.5 24 8.85938 24 10.5V25.5C24 27.1875 22.6406 28.5 21 28.5H3C1.3125 28.5 0 27.1875 0 25.5V10.5C0 8.85938 1.3125 7.5 3 7.5ZM4.5 10.5C3.65625 10.5 3 11.2031 3 12C3 12.8438 3.65625 13.5 4.5 13.5H19.5C20.2969 13.5 21 12.8438 21 12C21 11.2031 20.2969 10.5 19.5 10.5H4.5Z" fill="black" fill-opacity="0.72"/>
</g>
<defs>
<clipPath id="clip0_2556_19841">
<rect width="24" height="36" fill="white"/>
</clipPath>
</defs>
</svg>
