<svg width="20" height="30" viewBox="0 0 20 30" fill="none" xmlns="http://www.w3.org/2000/svg">
<g id="label-paired / lg / message-lines-lg / fill" clip-path="url(#clip0_2981_868)">
<path id="icon" d="M0 8C0 6.63281 1.09375 5.5 2.5 5.5H17.5C18.8672 5.5 20 6.63281 20 8V19.25C20 20.6562 18.8672 21.75 17.5 21.75H12.0703L7.22656 25.3828C7.03125 25.5391 6.79688 25.5391 6.5625 25.4609C6.36719 25.3438 6.25 25.1484 6.25 24.875V21.75H2.5C1.09375 21.75 0 20.6562 0 19.25V8ZM5.9375 11.125C5.39062 11.125 5 11.5547 5 12.0625C5 12.6094 5.39062 13 5.9375 13H14.0625C14.5703 13 15 12.6094 15 12.0625C15 11.5547 14.5703 11.125 14.0625 11.125H5.9375ZM5.9375 14.875C5.39062 14.875 5 15.3047 5 15.8125C5 16.3594 5.39062 16.75 5.9375 16.75H10.3125C10.8203 16.75 11.25 16.3594 11.25 15.8125C11.25 15.3047 10.8203 14.875 10.3125 14.875H5.9375Z" fill="black" fill-opacity="0.72"/>
</g>
<defs>
<clipPath id="clip0_2981_868">
<rect width="20" height="30" fill="white"/>
</clipPath>
</defs>
</svg>
