<svg width="18" height="24" viewBox="0 0 18 24" fill="none" xmlns="http://www.w3.org/2000/svg">
<g id="label-paired / md / desktop-md / bold" clip-path="url(#clip0_2981_928)">
<path id="icon" d="M16 5.5H2C1.71875 5.5 1.5 5.75 1.5 6V12H16.5V6C16.5 5.75 16.25 5.5 16 5.5ZM18 12V13.5V15C18 16.125 17.0938 17 16 17H11.375L11.625 18.5H13.25C13.6562 18.5 14 18.8438 14 19.25C14 19.6875 13.6562 20 13.25 20H11H7H4.75C4.3125 20 4 19.6875 4 19.25C4 18.8438 4.3125 18.5 4.75 18.5H6.34375L6.59375 17H2C0.875 17 0 16.125 0 15V13.5V12V6C0 4.90625 0.875 4 2 4H16C17.0938 4 18 4.90625 18 6V12ZM1.5 13.5V15C1.5 15.2812 1.71875 15.5 2 15.5H7.46875H7.5H10.4688H10.5H16C16.25 15.5 16.5 15.2812 16.5 15V13.5H1.5ZM7.875 18.5H10.0938L9.84375 17H8.125L7.875 18.5Z" fill="black" fill-opacity="0.72"/>
</g>
<defs>
<clipPath id="clip0_2981_928">
<rect width="18" height="24" fill="white"/>
</clipPath>
</defs>
</svg>
