<svg width="12" height="18" viewBox="0 0 12 18" fill="none" xmlns="http://www.w3.org/2000/svg">
<g id="label-paired / caption / sparkles-caption / bold" clip-path="url(#clip0_5088_608)">
<path id="icon" d="M7.66406 5.51562L9 5L9.49219 3.6875C9.51562 3.57031 9.63281 3.5 9.75 3.5C9.84375 3.5 9.96094 3.57031 9.98438 3.6875L10.5 5L11.8125 5.51562C11.9297 5.53906 12 5.65625 12 5.75C12 5.86719 11.9297 5.98438 11.8125 6.00781L10.5 6.5L9.98438 7.83594C9.96094 7.92969 9.84375 8 9.75 8C9.63281 8 9.51562 7.92969 9.49219 7.83594L9 6.5L7.66406 6.00781C7.57031 5.98438 7.5 5.86719 7.5 5.75C7.5 5.65625 7.57031 5.53906 7.66406 5.51562ZM0.210938 9.125L0.609375 8.96094L0.796875 8.86719H0.820312L2.88281 7.90625L3.84375 5.82031L3.9375 5.63281L4.125 5.23438C4.17188 5.09375 4.3125 5 4.45312 5C4.59375 5 4.73438 5.09375 4.80469 5.23438L4.99219 5.63281L5.0625 5.82031L5.08594 5.84375L6.02344 7.90625L8.10938 8.86719L8.29688 8.96094L8.69531 9.14844C8.83594 9.19531 8.92969 9.33594 8.92969 9.47656C8.92969 9.61719 8.83594 9.75781 8.69531 9.82812L8.29688 9.99219L8.10938 10.0859L6.02344 11.0469L5.0625 13.1094V13.1328L4.96875 13.3203L4.80469 13.7188C4.73438 13.8594 4.59375 13.9531 4.45312 13.9531C4.3125 13.9531 4.17188 13.8594 4.125 13.7188L3.9375 13.3203L3.84375 13.1328V13.1094L2.88281 11.0469L0.820312 10.0859H0.796875L0.609375 9.99219L0.210938 9.82812C0.0703125 9.75781 0 9.61719 0 9.47656C0 9.33594 0.0703125 9.19531 0.210938 9.125ZM2.15625 9.47656L3.35156 10.0391C3.58594 10.1328 3.79688 10.3438 3.91406 10.5781L4.45312 11.7734L5.01562 10.5781C5.13281 10.3438 5.32031 10.1328 5.55469 10.0391L6.75 9.47656L5.55469 8.91406C5.32031 8.82031 5.13281 8.60938 5.01562 8.375L4.45312 7.17969L3.91406 8.375C3.79688 8.60938 3.58594 8.82031 3.35156 8.91406L2.15625 9.47656ZM9 12.5L9.49219 11.1875C9.51562 11.0703 9.63281 11 9.75 11C9.84375 11 9.96094 11.0703 9.98438 11.1875L10.5 12.5L11.8125 13.0156C11.9297 13.0391 12 13.1562 12 13.25C12 13.3672 11.9297 13.4844 11.8125 13.5078L10.5 14L9.98438 15.3359C9.96094 15.4297 9.84375 15.5 9.75 15.5C9.63281 15.5 9.51562 15.4297 9.49219 15.3359L9 14L7.66406 13.5078C7.57031 13.4844 7.5 13.3672 7.5 13.25C7.5 13.1562 7.57031 13.0391 7.66406 13.0156L9 12.5Z" fill="black" fill-opacity="0.72"/>
</g>
<defs>
<clipPath id="clip0_5088_608">
<rect width="12" height="18" fill="white"/>
</clipPath>
</defs>
</svg>
