<svg width="14" height="24" viewBox="0 0 14 24" fill="none" xmlns="http://www.w3.org/2000/svg">
<g id="label-paired / md / square-check-md / fill" clip-path="url(#clip0_2556_15205)">
<path id="icon" d="M2 5H12C13.0938 5 14 5.90625 14 7V17C14 18.125 13.0938 19 12 19H2C0.875 19 0 18.125 0 17V7C0 5.90625 0.875 5 2 5ZM10.5312 10.5312H10.5C10.8125 10.25 10.8125 9.78125 10.5 9.46875C10.2188 9.1875 9.75 9.1875 9.46875 9.46875L6 12.9688L4.53125 11.5C4.21875 11.1875 3.75 11.1875 3.46875 11.5C3.15625 11.7812 3.15625 12.25 3.46875 12.5312L5.46875 14.5312C5.75 14.8438 6.21875 14.8438 6.53125 14.5312L10.5312 10.5312Z" fill="black" fill-opacity="0.72"/>
</g>
<defs>
<clipPath id="clip0_2556_15205">
<rect width="14" height="24" fill="white"/>
</clipPath>
</defs>
</svg>
