<svg width="14" height="22" viewBox="0 0 14 22" fill="none" xmlns="http://www.w3.org/2000/svg">
<g id="label-paired / sm / circle-eight-sm / regular" clip-path="url(#clip0_2556_12443)">
<path id="icon" d="M13.125 10.75C13.125 8.5625 11.9492 6.56641 10.0625 5.47266C8.14844 4.35156 5.82422 4.35156 3.9375 5.47266C2.02344 6.56641 0.875 8.5625 0.875 10.75C0.875 12.9648 2.02344 14.9609 3.9375 16.0547C5.82422 17.1758 8.14844 17.1758 10.0625 16.0547C11.9492 14.9609 13.125 12.9648 13.125 10.75ZM0 10.75C0 8.26172 1.3125 5.96484 3.5 4.70703C5.66016 3.44922 8.3125 3.44922 10.5 4.70703C12.6602 5.96484 14 8.26172 14 10.75C14 13.2656 12.6602 15.5625 10.5 16.8203C8.3125 18.0781 5.66016 18.0781 3.5 16.8203C1.3125 15.5625 0 13.2656 0 10.75ZM7.32812 7.25C8.33984 7.25 9.1875 8.09766 9.1875 9.10938C9.1875 9.68359 8.94141 10.1758 8.55859 10.5039C9.05078 10.8867 9.40625 11.4883 9.40625 12.1719C9.40625 13.3203 8.47656 14.25 7.32812 14.25H6.67188C5.52344 14.25 4.59375 13.3203 4.59375 12.1719C4.59375 11.4883 4.92188 10.8867 5.41406 10.5039C5.03125 10.1758 4.8125 9.68359 4.8125 9.10938C4.8125 8.09766 5.63281 7.25 6.67188 7.25H7.32812ZM6.67188 10.0938H7.32812C7.84766 10.0938 8.3125 9.65625 8.3125 9.10938C8.3125 8.58984 7.84766 8.125 7.32812 8.125H6.67188C6.125 8.125 5.6875 8.58984 5.6875 9.10938C5.6875 9.65625 6.125 10.0938 6.67188 10.0938ZM7.32812 10.9688H6.67188C5.98828 10.9688 5.46875 11.5156 5.46875 12.1719C5.46875 12.8555 5.98828 13.375 6.67188 13.375H7.32812C7.98438 13.375 8.53125 12.8555 8.53125 12.1719C8.53125 11.5156 7.98438 10.9688 7.32812 10.9688Z" fill="black" fill-opacity="0.72"/>
</g>
<defs>
<clipPath id="clip0_2556_12443">
<rect width="14" height="22" fill="white"/>
</clipPath>
</defs>
</svg>
