<svg width="13" height="22" viewBox="0 0 13 22" fill="none" xmlns="http://www.w3.org/2000/svg">
<g id="label-paired / sm / paperclip-sm / fill" clip-path="url(#clip0_2981_768)">
<path id="icon" d="M10.3281 6.04688C9.64453 5.39062 8.57812 5.39062 7.89453 6.04688L2.86328 11.0781C1.71484 12.2266 1.71484 14.1133 2.86328 15.2617C4.01172 16.4102 5.89844 16.4102 7.04688 15.2617L11.2031 11.1055C11.5039 10.8047 11.9688 10.8047 12.2695 11.1055C12.5703 11.4062 12.5703 11.8711 12.2695 12.1719L8.11328 16.3281C6.36328 18.0781 3.54688 18.0781 1.79688 16.3281C0.046875 14.5781 0.046875 11.7617 1.79688 10.0117L6.82812 4.98047C8.08594 3.69531 10.1367 3.69531 11.3945 4.98047C12.6797 6.23828 12.6797 8.28906 11.3945 9.54688L6.58203 14.3594C5.81641 15.1523 4.53125 15.1523 3.76562 14.3594C2.97266 13.5938 2.97266 12.3086 3.76562 11.543L7.70312 7.60547C8.00391 7.30469 8.46875 7.30469 8.76953 7.60547C9.07031 7.90625 9.07031 8.37109 8.76953 8.67188L4.83203 12.6094C4.66797 12.8008 4.66797 13.1016 4.83203 13.293C5.02344 13.457 5.32422 13.457 5.51562 13.293L10.3281 8.48047C10.9844 7.79688 10.9844 6.73047 10.3281 6.04688Z" fill="black" fill-opacity="0.72"/>
</g>
<defs>
<clipPath id="clip0_2981_768">
<rect width="13" height="22" fill="white"/>
</clipPath>
</defs>
</svg>
