<svg width="24" height="36" viewBox="0 0 24 36" fill="none" xmlns="http://www.w3.org/2000/svg">
<g id="label-paired / xl / magnifying-glass-plus-xl / regular" clip-path="url(#clip0_3431_1066)">
<path id="icon" d="M9.75 7.5C6.79688 7.5 4.07812 9.09375 2.57812 11.625C1.125 14.2031 1.125 17.3438 2.57812 19.875C4.07812 22.4531 6.79688 24 9.75 24C12.6562 24 15.375 22.4531 16.875 19.875C18.3281 17.3438 18.3281 14.2031 16.875 11.625C15.375 9.09375 12.6562 7.5 9.75 7.5ZM9.75 25.5C4.35938 25.5 0 21.1406 0 15.75C0 10.4062 4.35938 6 9.75 6C15.0938 6 19.5 10.4062 19.5 15.75C19.5 18.1875 18.6094 20.3906 17.1562 22.125L23.7656 28.7344C24.0469 29.0156 24.0469 29.5312 23.7656 29.8125C23.4844 30.0938 22.9688 30.0938 22.6875 29.8125L16.0781 23.1562C14.3906 24.6562 12.1406 25.5 9.75 25.5ZM9 20.25V16.5H5.25C4.82812 16.5 4.5 16.1719 4.5 15.75C4.5 15.375 4.82812 15 5.25 15H9V11.25C9 10.875 9.32812 10.5 9.75 10.5C10.125 10.5 10.5 10.875 10.5 11.25V15H14.25C14.625 15 15 15.375 15 15.75C15 16.1719 14.625 16.5 14.25 16.5H10.5V20.25C10.5 20.6719 10.125 21 9.75 21C9.32812 21 9 20.6719 9 20.25Z" fill="black" fill-opacity="0.72"/>
</g>
<defs>
<clipPath id="clip0_3431_1066">
<rect width="24" height="36" fill="white"/>
</clipPath>
</defs>
</svg>
