<svg width="16" height="24" viewBox="0 0 16 24" fill="none" xmlns="http://www.w3.org/2000/svg">
<g id="label-paired / md / playback-speed-md / regular" clip-path="url(#clip0_3758_784)">
<path id="icon" d="M15.5 12C15.5 15.8125 12.6562 18.9688 9 19.4375V18.4375C12.0938 17.9688 14.5 15.25 14.5 12C14.5 8.75 12.0938 6.0625 9 5.59375V4.59375C12.6562 5.0625 15.5 8.21875 15.5 12ZM4.15625 6.75L3.4375 6.0625C4.4375 5.28125 5.65625 4.75 7 4.59375V5.59375C5.9375 5.75 4.96875 6.15625 4.15625 6.75ZM2.75 8.1875C2.125 9 1.71875 9.96875 1.5625 11H0.5625C0.71875 9.6875 1.25 8.46875 2.03125 7.46875L2.75 8.1875ZM2.75 15.8438L2.03125 16.5625C1.25 15.5625 0.71875 14.3438 0.5625 13H1.5625C1.71875 14.0625 2.125 15.0312 2.75 15.8438ZM7 18.4375V19.4375C5.65625 19.2812 4.4375 18.75 3.4375 17.9688L4.15625 17.25C4.96875 17.875 5.9375 18.2812 7 18.4375ZM6.25 8.0625C6.40625 7.96875 6.625 8 6.78125 8.09375L11.7812 11.5938C11.9062 11.6875 12 11.8438 12 12C12 12.1875 11.9062 12.3438 11.7812 12.4375L6.78125 15.9375C6.625 16.0312 6.40625 16.0312 6.25 15.9688C6.09375 15.875 6 15.6875 6 15.5V8.5C6 8.3125 6.09375 8.15625 6.25 8.0625ZM7 9.46875V14.5625L10.625 12L7 9.46875Z" fill="black" fill-opacity="0.72"/>
</g>
<defs>
<clipPath id="clip0_3758_784">
<rect width="16" height="24" fill="white"/>
</clipPath>
</defs>
</svg>
