<svg width="20" height="30" viewBox="0 0 20 30" fill="none" xmlns="http://www.w3.org/2000/svg">
<g id="label-paired / lg / circle-nine-lg / fill" clip-path="url(#clip0_2556_17294)">
<path id="icon" d="M0 15.5C0 11.9453 1.875 8.66406 5 6.86719C8.08594 5.07031 11.875 5.07031 15 6.86719C18.0859 8.66406 20 11.9453 20 15.5C20 19.0938 18.0859 22.375 15 24.1719C11.875 25.9688 8.08594 25.9688 5 24.1719C1.875 22.375 0 19.0938 0 15.5ZM10 16.125C9.29688 16.125 8.71094 15.7734 8.35938 15.1875C8.00781 14.6406 8.00781 13.8984 8.35938 13.3125C8.71094 12.7656 9.29688 12.375 10 12.375C10.6641 12.375 11.25 12.7656 11.6016 13.3125C11.9531 13.8984 11.9531 14.6406 11.6016 15.1875C11.25 15.7734 10.6641 16.125 10 16.125ZM8.98438 17.8828L7.8125 18.8594C7.42188 19.2109 7.38281 19.7969 7.69531 20.1875C8.04688 20.5781 8.63281 20.6172 9.02344 20.3047L12.2266 17.5703C13.1641 16.75 13.75 15.5391 13.75 14.25C13.75 12.1797 12.0703 10.5 10 10.5C7.92969 10.5 6.25 12.1797 6.25 14.25C6.25 15.9688 7.38281 17.4531 8.98438 17.8828Z" fill="black" fill-opacity="0.72"/>
</g>
<defs>
<clipPath id="clip0_2556_17294">
<rect width="20" height="30" fill="white"/>
</clipPath>
</defs>
</svg>
