<svg width="24" height="36" viewBox="0 0 24 36" fill="none" xmlns="http://www.w3.org/2000/svg">
<g id="label-paired / xl / fingerprint-xl / regular" clip-path="url(#clip0_2556_19727)">
<path id="icon" d="M1.5 18V20.25C1.5 20.6719 1.125 21 0.75 21C0.328125 21 0 20.6719 0 20.25V18C0 11.3906 5.34375 6 12 6C15.75 6 19.125 7.73438 21.3281 10.4531C21.5625 10.7812 21.5156 11.25 21.1875 11.5312C20.8594 11.7656 20.3906 11.7188 20.1562 11.3906C18.2344 9.04688 15.2812 7.5 12 7.5C6.1875 7.5 1.5 12.2344 1.5 18ZM23.5312 14.8125C23.8125 15.8438 24 16.9219 24 18V20.25C24 20.6719 23.625 21 23.25 21C22.8281 21 22.5 20.6719 22.5 20.25V18C22.5 17.0625 22.3594 16.125 22.0781 15.2344C21.9844 14.8125 22.2188 14.3906 22.6406 14.2969C23.0156 14.2031 23.4375 14.4375 23.5312 14.8125ZM12 9.75H11.9531C16.5469 9.75 20.2031 13.4531 20.2031 18V19.1719C20.2031 20.5781 20.1562 21.9844 19.9688 23.3906C19.9219 23.7656 19.5938 24 19.2188 24C18.75 24 18.4219 23.625 18.4688 23.1562C18.6562 21.8438 18.75 20.5312 18.75 19.1719V18C18.75 14.2969 15.7031 11.25 12 11.25C11.1562 11.25 10.3594 11.4375 9.60938 11.6719C9.32812 11.8125 8.95312 11.7188 8.71875 11.4844C8.39062 11.1094 8.48438 10.5 8.95312 10.3594C9.89062 9.98438 10.9219 9.75 12 9.75ZM6.79688 12.7031C7.03125 12.9844 7.03125 13.4531 6.75 13.7344C5.8125 14.9062 5.25 16.4062 5.25 18V19.1719C5.25 20.625 5.0625 22.0781 4.6875 23.4844C4.59375 23.8125 4.3125 24 3.98438 24C3.46875 24 3.14062 23.5312 3.23438 23.0625C3.5625 21.7969 3.75 20.4844 3.75 19.1719V18C3.75 15.9844 4.45312 14.1094 5.71875 12.6562C6 12.3281 6.51562 12.375 6.79688 12.7031ZM12 13.5C14.4844 13.5 16.5 15.5156 16.5 18V19.1719C16.5 21.1406 16.2656 23.0625 15.8906 24.9375C15.8438 25.2656 15.5156 25.5 15.1875 25.5C14.6719 25.5 14.3438 25.0781 14.4375 24.6094C14.8125 22.8281 15 21 15 19.1719V18C15 16.3594 13.6406 15 12 15C10.3125 15 9 16.3594 9 18V19.1719C9 21.1406 8.71875 23.1094 8.15625 24.9844C8.0625 25.3125 7.78125 25.5 7.45312 25.5C6.9375 25.5 6.60938 25.0312 6.75 24.5156C7.21875 22.7812 7.5 21 7.5 19.1719V18C7.5 15.5156 9.51562 13.5 12 13.5ZM12.75 18V19.1719C12.75 22.2188 12.1875 25.2188 11.0625 28.0781L10.7812 28.7812C10.6406 29.2031 10.2188 29.3906 9.84375 29.2031C9.42188 29.0625 9.23438 28.6406 9.42188 28.2656L9.65625 27.5156C10.6875 24.8906 11.25 22.0312 11.25 19.1719V18C11.25 17.625 11.5781 17.25 12 17.25C12.375 17.25 12.75 17.625 12.75 18Z" fill="black" fill-opacity="0.72"/>
</g>
<defs>
<clipPath id="clip0_2556_19727">
<rect width="24" height="36" fill="white"/>
</clipPath>
</defs>
</svg>
