<svg width="25" height="30" viewBox="0 0 25 30" fill="none" xmlns="http://www.w3.org/2000/svg">
<g id="label-paired / lg / light-user-tie-circle-dollar-lg / fill" clip-path="url(#clip0_2556_16939)">
<path id="icon" d="M0 24.3281C0 21.3594 1.99219 18.8984 4.72656 18.1953C5.07812 18.1172 5.35156 18.3516 5.42969 18.6641L6.83594 24.4062L8.16406 19.5625L7.42188 18.3516C7.1875 17.9219 7.46094 17.375 7.96875 17.375H8.75H9.49219C10 17.375 10.2734 17.9219 10.0391 18.3516L9.29688 19.5625L10.625 24.4062L12.0312 18.6641C12.1094 18.3516 12.3828 18.1562 12.6953 18.1953C12.5391 18.7422 12.5 19.2891 12.5 19.875C12.5 22.2188 13.6328 24.2891 15.3906 25.5H11.1328H10.9375H6.5625H6.32812H1.17188C0.507812 25.5 0 24.9922 0 24.3281ZM3.75 10.5C3.75 8.74219 4.6875 7.0625 6.25 6.20312C7.77344 5.30469 9.6875 5.30469 11.25 6.20312C12.7734 7.0625 13.75 8.74219 13.75 10.5C13.75 12.2969 12.7734 13.9375 11.25 14.8359C9.6875 15.7344 7.77344 15.7344 6.25 14.8359C4.6875 13.9375 3.75 12.2969 3.75 10.5ZM13.75 19.875C13.75 16.7891 16.25 14.25 19.375 14.25C22.4609 14.25 25 16.7891 25 19.875C25 23 22.4609 25.5 19.375 25.5C16.25 25.5 13.75 23 13.75 19.875ZM17.1875 18.8203C17.2266 19.4453 17.6172 19.8359 18.0078 20.0312C18.3594 20.2266 18.7891 20.3438 19.1406 20.4219C19.1406 20.4609 19.1797 20.4609 19.2188 20.4609C19.6094 20.5781 19.9219 20.6562 20.1172 20.7734C20.2734 20.8906 20.3125 20.9297 20.3125 21.0078C20.3125 21.0859 20.2734 21.1641 20.2734 21.1641C20.2344 21.2031 20.1953 21.2422 20.1172 21.3203C19.9219 21.3984 19.6484 21.4375 19.375 21.4375C19.0234 21.4375 18.6719 21.3203 18.2031 21.1641C18.125 21.1641 18.0469 21.125 17.9688 21.125C17.6562 21.0078 17.3047 21.2031 17.1875 21.5156C17.1094 21.8672 17.2656 22.2188 17.6172 22.2969C17.6562 22.3359 17.7344 22.3359 17.8125 22.375C18.0859 22.4531 18.3984 22.5703 18.75 22.6094V23.0781C18.75 23.4297 19.0234 23.7031 19.375 23.7031C19.6875 23.7031 20 23.4297 20 23.0781V22.6484C20.2344 22.6094 20.4688 22.5312 20.7031 22.4141C21.1719 22.1406 21.5625 21.6719 21.5625 20.9688C21.5234 20.3438 21.1328 19.9531 20.7422 19.7188C20.3906 19.4844 19.9219 19.3672 19.5703 19.25H19.5312C19.1406 19.1328 18.8281 19.0547 18.5938 18.9375C18.4375 18.8203 18.4375 18.7812 18.4375 18.7422C18.4375 18.6641 18.4375 18.625 18.4375 18.625C18.4766 18.5859 18.5156 18.5469 18.6328 18.4688C18.8281 18.3906 19.1016 18.3125 19.3359 18.3125C19.6875 18.3125 20 18.3906 20.3906 18.4688C20.7031 18.5859 21.0547 18.3516 21.1328 18.0391C21.2109 17.6875 21.0156 17.3359 20.6641 17.2578C20.4688 17.2188 20.2344 17.1797 20 17.1406V16.75C20 16.3984 19.6875 16.125 19.375 16.125C19.0234 16.125 18.75 16.3984 18.75 16.75V17.1406C18.4766 17.1797 18.2422 17.2578 18.0469 17.375C17.5781 17.6094 17.1484 18.0781 17.1875 18.8203Z" fill="black" fill-opacity="0.72"/>
</g>
<defs>
<clipPath id="clip0_2556_16939">
<rect width="25" height="30" fill="white"/>
</clipPath>
</defs>
</svg>
