<svg width="24" height="36" viewBox="0 0 24 36" fill="none" xmlns="http://www.w3.org/2000/svg">
<g id="label-paired / xl / grid-2-xl / bold" clip-path="url(#clip0_2556_19839)">
<path id="icon" d="M3.75 9.75V14.25H8.25V9.75H3.75ZM1.5 9.75C1.5 8.53125 2.48438 7.5 3.75 7.5H8.25C9.46875 7.5 10.5 8.53125 10.5 9.75V14.25C10.5 15.5156 9.46875 16.5 8.25 16.5H3.75C2.48438 16.5 1.5 15.5156 1.5 14.25V9.75ZM3.75 21.75V26.25H8.25V21.75H3.75ZM1.5 21.75C1.5 20.5312 2.48438 19.5 3.75 19.5H8.25C9.46875 19.5 10.5 20.5312 10.5 21.75V26.25C10.5 27.5156 9.46875 28.5 8.25 28.5H3.75C2.48438 28.5 1.5 27.5156 1.5 26.25V21.75ZM20.25 9.75H15.75V14.25H20.25V9.75ZM15.75 7.5H20.25C21.4688 7.5 22.5 8.53125 22.5 9.75V14.25C22.5 15.5156 21.4688 16.5 20.25 16.5H15.75C14.4844 16.5 13.5 15.5156 13.5 14.25V9.75C13.5 8.53125 14.4844 7.5 15.75 7.5ZM15.75 21.75V26.25H20.25V21.75H15.75ZM13.5 21.75C13.5 20.5312 14.4844 19.5 15.75 19.5H20.25C21.4688 19.5 22.5 20.5312 22.5 21.75V26.25C22.5 27.5156 21.4688 28.5 20.25 28.5H15.75C14.4844 28.5 13.5 27.5156 13.5 26.25V21.75Z" fill="black" fill-opacity="0.72"/>
</g>
<defs>
<clipPath id="clip0_2556_19839">
<rect width="24" height="36" fill="white"/>
</clipPath>
</defs>
</svg>
