<svg width="20" height="30" viewBox="0 0 20 30" fill="none" xmlns="http://www.w3.org/2000/svg">
<g id="label-paired / lg / chevrons-down-lg / fill" clip-path="url(#clip0_2556_17393)">
<path id="icon" d="M10.8594 23.8984C10.3906 24.4062 9.57031 24.4062 9.10156 23.8984L1.60156 16.3984C1.09375 15.9297 1.09375 15.1094 1.60156 14.6406C2.07031 14.1328 2.89062 14.1328 3.35938 14.6406L10 21.2422L16.6016 14.6406C17.0703 14.1328 17.8906 14.1328 18.3594 14.6406C18.8672 15.1094 18.8672 15.9297 18.3594 16.3984L10.8594 23.8984ZM18.3594 8.89844L10.8594 16.3984C10.3906 16.9062 9.57031 16.9062 9.10156 16.3984L1.60156 8.89844C1.09375 8.42969 1.09375 7.60938 1.60156 7.14062C2.07031 6.63281 2.89062 6.63281 3.35938 7.14062L10 13.7422L16.6016 7.14062C17.0703 6.63281 17.8906 6.63281 18.3594 7.14062C18.8672 7.60938 18.8672 8.42969 18.3594 8.89844Z" fill="black" fill-opacity="0.72"/>
</g>
<defs>
<clipPath id="clip0_2556_17393">
<rect width="20" height="30" fill="white"/>
</clipPath>
</defs>
</svg>
