<svg width="11" height="18" viewBox="0 0 11 18" fill="none" xmlns="http://www.w3.org/2000/svg">
<g id="label-paired / caption / tablet-caption / fill" clip-path="url(#clip0_2556_10099)">
<path id="icon" d="M1.75 3.5H9.25C10.0703 3.5 10.75 4.17969 10.75 5V14C10.75 14.8438 10.0703 15.5 9.25 15.5H1.75C0.90625 15.5 0.25 14.8438 0.25 14V5C0.25 4.17969 0.90625 3.5 1.75 3.5ZM4.375 13.625C4.16406 13.625 4 13.8125 4 14C4 14.2109 4.16406 14.375 4.375 14.375H6.625C6.8125 14.375 7 14.2109 7 14C7 13.8125 6.8125 13.625 6.625 13.625H4.375Z" fill="black" fill-opacity="0.72"/>
</g>
<defs>
<clipPath id="clip0_2556_10099">
<rect width="11" height="18" fill="white"/>
</clipPath>
</defs>
</svg>
