<svg width="24" height="36" viewBox="0 0 24 36" fill="none" xmlns="http://www.w3.org/2000/svg">
<g id="label-paired / xl / thumbs-down-xl / regular" clip-path="url(#clip0_2556_19690)">
<path id="icon" d="M13.5 26.2031C13.6875 26.8125 14.2969 27.1406 14.9062 27C15.5156 26.8125 15.8438 26.2031 15.7031 25.5938L15.4688 24.8438C15.2344 23.8594 14.8125 22.9688 14.2969 22.1719C14.1562 21.9375 14.1562 21.6562 14.2969 21.4219C14.4375 21.1406 14.6719 21 14.9531 21H21C21.7969 21 22.5 20.3438 22.5 19.5C22.5 18.9844 22.2188 18.5156 21.7969 18.2344C21.4688 18.0469 21.3281 17.5781 21.5156 17.25C21.6562 17.0156 21.75 16.7812 21.75 16.5C21.75 15.9375 21.4219 15.4219 20.9062 15.1875C20.7188 15.0938 20.5781 14.9062 20.5312 14.6719C20.4844 14.4375 20.5312 14.25 20.6719 14.0625C20.8594 13.7812 21 13.5 21 13.125C21 12.4688 20.5312 11.9062 19.9688 11.7188C19.5938 11.5781 19.3594 11.2031 19.4531 10.8281C19.4531 10.7344 19.5 10.6406 19.5 10.5C19.5 9.70312 18.7969 9 18 9H13.7812C13.0312 9 12.3281 9.23438 11.7188 9.65625L9.89062 10.875C9.46875 11.1562 9.14062 11.4844 8.85938 11.9062C8.625 12.2812 8.15625 12.375 7.82812 12.1406C7.45312 11.9062 7.35938 11.4375 7.59375 11.1094C7.96875 10.5 8.48438 9.98438 9.04688 9.60938L10.875 8.39062C11.7188 7.82812 12.75 7.5 13.7812 7.5H18C19.6406 7.5 21 8.85938 21 10.5V10.5469C21.8906 11.0625 22.5 12.0469 22.5 13.125C22.5 13.5469 22.4062 13.9688 22.2656 14.2969C22.8281 14.8594 23.25 15.6562 23.25 16.5C23.25 16.8281 23.2031 17.1094 23.1094 17.3906C23.625 17.9531 24 18.7031 24 19.5C24 21.1875 22.6406 22.5 21 22.5H16.2188C16.5 23.1562 16.7344 23.7656 16.9219 24.4219L17.1562 25.2188C17.5312 26.625 16.6875 28.0312 15.2812 28.4531C13.875 28.8281 12.4688 27.9844 12.0469 26.5781L11.8594 25.8281C11.4375 24.2812 10.4531 22.9688 9.14062 22.125L9 22.0312L9.375 21.4219L9 22.0312C8.4375 21.6562 7.96875 21.2344 7.59375 20.7188C7.35938 20.3438 7.45312 19.875 7.78125 19.6406C8.10938 19.4062 8.57812 19.5 8.8125 19.8281C9.09375 20.2031 9.42188 20.5312 9.79688 20.7656L9.9375 20.8594C11.5781 21.8906 12.7969 23.5312 13.3125 25.4062L13.5 26.2031ZM1.5 22.5H4.5V12H1.5V22.5ZM0 22.5V12C0 11.2031 0.65625 10.5 1.5 10.5H4.5C5.29688 10.5 6 11.2031 6 12V22.5C6 23.3438 5.29688 24 4.5 24H1.5C0.65625 24 0 23.3438 0 22.5Z" fill="black" fill-opacity="0.72"/>
</g>
<defs>
<clipPath id="clip0_2556_19690">
<rect width="24" height="36" fill="white"/>
</clipPath>
</defs>
</svg>
