<svg width="27" height="36" viewBox="0 0 27 36" fill="none" xmlns="http://www.w3.org/2000/svg">
<g id="label-paired / xl / folder-open-xl / fill" clip-path="url(#clip0_3431_1063)">
<path id="icon" d="M4.125 16.5L0 23.625V10.5C0 8.85938 1.3125 7.5 3 7.5H8.48438C9.28125 7.5 10.0312 7.82812 10.5938 8.39062L11.8594 9.65625C12.4219 10.2188 13.1719 10.5 13.9688 10.5H19.5C21.1406 10.5 22.5 11.8594 22.5 13.5V15H6.75C5.67188 15 4.6875 15.5625 4.125 16.5ZM5.4375 17.25C5.71875 16.7812 6.1875 16.5 6.75 16.5H25.5C26.0156 16.5 26.5312 16.8281 26.7656 17.2969C27.0469 17.7656 27.0469 18.3281 26.7656 18.7969L21.5156 27.7969C21.2344 28.2188 20.7656 28.5 20.25 28.5H1.5C0.9375 28.5 0.46875 28.2188 0.1875 27.75C-0.09375 27.2812 -0.09375 26.7188 0.1875 26.25L5.4375 17.25Z" fill="black" fill-opacity="0.72"/>
</g>
<defs>
<clipPath id="clip0_3431_1063">
<rect width="27" height="36" fill="white"/>
</clipPath>
</defs>
</svg>
