<svg width="13" height="22" viewBox="0 0 13 22" fill="none" xmlns="http://www.w3.org/2000/svg">
<g id="label-paired / sm / arrow-up-from-bracket-sm / bold" clip-path="url(#clip0_2556_12981)">
<path id="icon" d="M6.96484 3.94141L10.4375 7.44141C10.7109 7.71484 10.7109 8.125 10.4375 8.37109C10.1914 8.64453 9.78125 8.64453 9.50781 8.37109L7.12891 5.99219V12.7188C7.12891 13.1016 6.85547 13.375 6.47266 13.375C6.11719 13.375 5.81641 13.1016 5.81641 12.7188V5.99219L3.4375 8.37109C3.19141 8.64453 2.78125 8.64453 2.53516 8.37109C2.26172 8.125 2.26172 7.71484 2.53516 7.44141L6.03516 3.94141C6.28125 3.69531 6.69141 3.69531 6.96484 3.94141ZM1.6875 13.1562V15.3438C1.6875 15.9727 2.15234 16.4375 2.78125 16.4375H10.2188C10.8203 16.4375 11.3125 15.9727 11.3125 15.3438V13.1562C11.3125 12.8008 11.5859 12.5 11.9688 12.5C12.3242 12.5 12.625 12.8008 12.625 13.1562V15.3438C12.625 16.6836 11.5312 17.75 10.2188 17.75H2.78125C1.44141 17.75 0.375 16.6836 0.375 15.3438V13.1562C0.375 12.8008 0.648438 12.5 1.03125 12.5C1.38672 12.5 1.6875 12.8008 1.6875 13.1562Z" fill="black" fill-opacity="0.72"/>
</g>
<defs>
<clipPath id="clip0_2556_12981">
<rect width="13" height="22" fill="white"/>
</clipPath>
</defs>
</svg>
