<svg width="18" height="24" viewBox="0 0 18 24" fill="none" xmlns="http://www.w3.org/2000/svg">
<g id="label-paired / md / arrow-down-one-nine-md / regular" clip-path="url(#clip0_2556_14787)">
<path id="icon" d="M14 5.5V10H15C15.25 10 15.5 10.25 15.5 10.5C15.5 10.7812 15.25 11 15 11H13.5H12C11.7188 11 11.5 10.7812 11.5 10.5C11.5 10.25 11.7188 10 12 10H13V6.21875L12.1562 6.5C11.875 6.5625 11.5938 6.4375 11.5 6.1875C11.4375 5.90625 11.5625 5.625 11.8438 5.53125L13.3438 5.03125C13.4688 5 13.6562 5.03125 13.7812 5.125C13.9062 5.21875 14 5.34375 14 5.53125V5.5ZM5.34375 18.875C5.15625 19.0625 4.8125 19.0625 4.625 18.875L1.625 15.875C1.4375 15.6875 1.4375 15.3438 1.625 15.1562C1.8125 14.9688 2.15625 14.9688 2.34375 15.1562L4.5 17.3125V5.5C4.5 5.25 4.71875 5 5 5C5.25 5 5.5 5.25 5.5 5.5V17.3125L7.625 15.1562C7.8125 14.9688 8.15625 14.9688 8.34375 15.1562C8.53125 15.3438 8.53125 15.6875 8.34375 15.875L5.34375 18.875ZM13.375 13C12.7812 13 12.25 13.3125 11.9375 13.8125C11.6562 14.3438 11.6562 14.9375 11.9375 15.4375C12.25 15.9688 12.7812 16.25 13.375 16.25C13.9375 16.25 14.4688 15.9688 14.7812 15.4375C15.0625 14.9375 15.0625 14.3438 14.7812 13.8125C14.4688 13.3125 13.9375 13 13.375 13ZM10.75 14.625C10.75 13.1875 11.9062 12 13.375 12C14.8125 12 16 13.1875 16 14.625C16 14.6875 16 14.7188 15.9688 14.75H16C16 15.4375 15.75 16.0625 15.3125 16.5625L13.375 18.8438C13.1875 19.0625 12.875 19.0625 12.6562 18.9062C12.4375 18.7188 12.4375 18.4062 12.5938 18.1875L13.4062 17.25C13.375 17.25 13.375 17.25 13.375 17.25C11.9062 17.25 10.75 16.0938 10.75 14.625Z" fill="black" fill-opacity="0.72"/>
</g>
<defs>
<clipPath id="clip0_2556_14787">
<rect width="18" height="24" fill="white"/>
</clipPath>
</defs>
</svg>
