<svg width="11" height="22" viewBox="0 0 11 22" fill="none" xmlns="http://www.w3.org/2000/svg">
<g id="label-paired / sm / lightbulb-sm / bold" clip-path="url(#clip0_2556_12878)">
<path id="icon" d="M8.37109 10.5586C8.75391 10.0117 9 9.32812 9 8.5625C9 6.64844 7.41406 5.0625 5.5 5.0625C3.55859 5.0625 2 6.64844 2 8.5625C2 9.32812 2.21875 10.0117 2.60156 10.5586C2.71094 10.7227 2.82031 10.8867 2.95703 11.0508C3.3125 11.543 3.72266 12.1172 4.05078 12.6914C4.32422 13.2109 4.48828 13.7578 4.54297 14.25H3.23047C3.14844 13.9219 3.06641 13.6211 2.90234 13.3203C2.62891 12.8281 2.30078 12.3633 1.94531 11.8984C1.80859 11.707 1.67188 11.5156 1.53516 11.3242C0.988281 10.5312 0.6875 9.60156 0.6875 8.5625C0.6875 5.91016 2.82031 3.75 5.5 3.75C8.15234 3.75 10.3125 5.91016 10.3125 8.5625C10.3125 9.60156 9.98438 10.5312 9.4375 11.3242C9.30078 11.5156 9.16406 11.707 9.02734 11.8984C8.67188 12.3633 8.34375 12.8281 8.07031 13.3203C7.90625 13.6211 7.82422 13.9219 7.74219 14.25H6.42969C6.51172 13.7578 6.64844 13.2109 6.92188 12.6914C7.25 12.1172 7.66016 11.543 8.01562 11.0508C8.15234 10.8867 8.26172 10.7227 8.37109 10.5586ZM5.5 7.25C4.76172 7.25 4.1875 7.85156 4.1875 8.5625C4.1875 8.80859 3.96875 9 3.75 9C3.50391 9 3.3125 8.80859 3.3125 8.5625C3.3125 7.35938 4.26953 6.375 5.5 6.375C5.71875 6.375 5.9375 6.59375 5.9375 6.8125C5.9375 7.05859 5.71875 7.25 5.5 7.25ZM5.5 17.75C4.26953 17.75 3.3125 16.793 3.3125 15.5625V15.125H7.6875V15.5625C7.6875 16.793 6.70312 17.75 5.5 17.75Z" fill="black" fill-opacity="0.72"/>
</g>
<defs>
<clipPath id="clip0_2556_12878">
<rect width="11" height="22" fill="white"/>
</clipPath>
</defs>
</svg>
