<svg width="16" height="24" viewBox="0 0 16 24" fill="none" xmlns="http://www.w3.org/2000/svg">
<g id="label-paired / md / circle-euro-md / bold" clip-path="url(#clip0_2556_14618)">
<path id="icon" d="M14.5 12C14.5 9.6875 13.25 7.5625 11.25 6.375C9.21875 5.21875 6.75 5.21875 4.75 6.375C2.71875 7.5625 1.5 9.6875 1.5 12C1.5 14.3438 2.71875 16.4688 4.75 17.6562C6.75 18.8125 9.21875 18.8125 11.25 17.6562C13.25 16.4688 14.5 14.3438 14.5 12ZM0 12C0 9.15625 1.5 6.53125 4 5.09375C6.46875 3.65625 9.5 3.65625 12 5.09375C14.4688 6.53125 16 9.15625 16 12C16 14.875 14.4688 17.5 12 18.9375C9.5 20.375 6.46875 20.375 4 18.9375C1.5 17.5 0 14.875 0 12ZM4 12.5H4.5C4.46875 12.3438 4.46875 12.1875 4.46875 12.0312C4.46875 11.875 4.46875 11.6875 4.5 11.5H4C3.71875 11.5 3.5 11.2812 3.5 11C3.5 10.75 3.71875 10.5 4 10.5H4.75C5.34375 9.0625 6.8125 8 8.46875 8H9.78125C10.1875 8 10.5312 8.34375 10.5312 8.75C10.5312 9.1875 10.1875 9.5 9.78125 9.5H8.46875C7.65625 9.5 6.9375 9.90625 6.46875 10.5H9C9.25 10.5 9.5 10.75 9.5 11C9.5 11.2812 9.25 11.5 9 11.5H6C5.96875 11.6875 5.96875 11.8438 5.96875 12.0312C5.96875 12.1875 5.96875 12.375 6 12.5H9C9.25 12.5 9.5 12.75 9.5 13C9.5 13.2812 9.25 13.5 9 13.5H6.4375C6.90625 14.1562 7.625 14.5625 8.46875 14.5625H9.78125C10.1875 14.5625 10.5312 14.9062 10.5312 15.3125C10.5312 15.7188 10.1875 16.0625 9.78125 16.0625H8.46875C6.78125 16.0625 5.3125 15 4.75 13.5H4C3.71875 13.5 3.5 13.2812 3.5 13C3.5 12.75 3.71875 12.5 4 12.5Z" fill="black" fill-opacity="0.72"/>
</g>
<defs>
<clipPath id="clip0_2556_14618">
<rect width="16" height="24" fill="white"/>
</clipPath>
</defs>
</svg>
