<svg width="24" height="36" viewBox="0 0 24 36" fill="none" xmlns="http://www.w3.org/2000/svg">
<g id="label-paired / xl / cash-register-xl / regular" clip-path="url(#clip0_2556_19285)">
<path id="icon" d="M12.75 7.5H3.75C3.32812 7.5 3 7.875 3 8.25V9.75C3 10.1719 3.32812 10.5 3.75 10.5H12.75C13.125 10.5 13.5 10.1719 13.5 9.75V8.25C13.5 7.875 13.125 7.5 12.75 7.5ZM3.75 6H12.75C13.9688 6 15 7.03125 15 8.25V9.75C15 11.0156 13.9688 12 12.75 12H9V13.5H19.875C21.375 13.5 22.6406 14.625 22.8281 16.0781L23.9531 23.8125C23.9531 23.9531 24 24.0938 24 24.2344V27C24 28.6875 22.6406 30 21 30H3C1.3125 30 0 28.6875 0 27V24.2344C0 24.0938 0 23.9531 0 23.8125L1.125 16.0781C1.3125 14.625 2.57812 13.5 4.07812 13.5H7.5V12H3.75C2.48438 12 1.5 11.0156 1.5 9.75V8.25C1.5 7.03125 2.48438 6 3.75 6ZM1.5 27C1.5 27.8438 2.15625 28.5 3 28.5H21C21.7969 28.5 22.5 27.8438 22.5 27V25.5H1.5V27ZM21.375 16.3125C21.2344 15.5625 20.625 15 19.875 15H4.07812C3.32812 15 2.71875 15.5625 2.57812 16.3125L1.5 24H22.4531L21.375 16.3125ZM5.25 16.875C5.85938 16.875 6.375 17.3906 6.375 18C6.375 18.6562 5.85938 19.125 5.25 19.125C4.59375 19.125 4.125 18.6562 4.125 18C4.125 17.3906 4.59375 16.875 5.25 16.875ZM8.625 18C8.625 17.3906 9.09375 16.875 9.75 16.875C10.3594 16.875 10.875 17.3906 10.875 18C10.875 18.6562 10.3594 19.125 9.75 19.125C9.09375 19.125 8.625 18.6562 8.625 18ZM7.5 20.625C8.10938 20.625 8.625 21.1406 8.625 21.75C8.625 22.4062 8.10938 22.875 7.5 22.875C6.84375 22.875 6.375 22.4062 6.375 21.75C6.375 21.1406 6.84375 20.625 7.5 20.625ZM13.125 18C13.125 17.3906 13.5938 16.875 14.25 16.875C14.8594 16.875 15.375 17.3906 15.375 18C15.375 18.6562 14.8594 19.125 14.25 19.125C13.5938 19.125 13.125 18.6562 13.125 18ZM12 20.625C12.6094 20.625 13.125 21.1406 13.125 21.75C13.125 22.4062 12.6094 22.875 12 22.875C11.3438 22.875 10.875 22.4062 10.875 21.75C10.875 21.1406 11.3438 20.625 12 20.625ZM17.625 18C17.625 17.3906 18.0938 16.875 18.75 16.875C19.3594 16.875 19.875 17.3906 19.875 18C19.875 18.6562 19.3594 19.125 18.75 19.125C18.0938 19.125 17.625 18.6562 17.625 18ZM16.5 20.625C17.1094 20.625 17.625 21.1406 17.625 21.75C17.625 22.4062 17.1094 22.875 16.5 22.875C15.8438 22.875 15.375 22.4062 15.375 21.75C15.375 21.1406 15.8438 20.625 16.5 20.625Z" fill="black" fill-opacity="0.72"/>
</g>
<defs>
<clipPath id="clip0_2556_19285">
<rect width="24" height="36" fill="white"/>
</clipPath>
</defs>
</svg>
