<svg width="24" height="36" viewBox="0 0 24 36" fill="none" xmlns="http://www.w3.org/2000/svg">
<g id="label-paired / xl / face-viewfinder-xl / bold" clip-path="url(#clip0_2556_19701)">
<path id="icon" d="M0 8.625C0 7.21875 1.17188 6 2.625 6H6.375C6.98438 6 7.5 6.51562 7.5 7.125C7.5 7.78125 6.98438 8.25 6.375 8.25H2.625C2.39062 8.25 2.25 8.4375 2.25 8.625V12.375C2.25 13.0312 1.73438 13.5 1.125 13.5C0.46875 13.5 0 13.0312 0 12.375V8.625ZM16.5 7.125C16.5 6.51562 16.9688 6 17.625 6H21.375C22.7812 6 24 7.21875 24 8.625V12.375C24 13.0312 23.4844 13.5 22.875 13.5C22.2188 13.5 21.75 13.0312 21.75 12.375V8.625C21.75 8.4375 21.5625 8.25 21.375 8.25H17.625C16.9688 8.25 16.5 7.78125 16.5 7.125ZM1.125 22.5C1.73438 22.5 2.25 23.0156 2.25 23.625V27.375C2.25 27.6094 2.39062 27.75 2.625 27.75H6.375C6.98438 27.75 7.5 28.2656 7.5 28.875C7.5 29.5312 6.98438 30 6.375 30H2.625C1.17188 30 0 28.8281 0 27.375V23.625C0 23.0156 0.46875 22.5 1.125 22.5ZM22.875 22.5C23.4844 22.5 24 23.0156 24 23.625V27.375C24 28.8281 22.7812 30 21.375 30H17.625C16.9688 30 16.5 29.5312 16.5 28.875C16.5 28.2656 16.9688 27.75 17.625 27.75H21.375C21.5625 27.75 21.75 27.6094 21.75 27.375V23.625C21.75 23.0156 22.2188 22.5 22.875 22.5ZM11.25 16.125C11.25 16.7812 10.7344 17.25 10.125 17.25C9.46875 17.25 9 16.7812 9 16.125C9 15.5156 9.46875 15 10.125 15C10.7344 15 11.25 15.5156 11.25 16.125ZM13.875 17.25C13.2188 17.25 12.75 16.7812 12.75 16.125C12.75 15.5156 13.2188 15 13.875 15C14.4844 15 15 15.5156 15 16.125C15 16.7812 14.4844 17.25 13.875 17.25ZM12 12.75C10.0781 12.75 8.39062 13.7812 7.45312 15.375C6.46875 17.0156 6.46875 19.0312 7.45312 20.625C8.39062 22.2656 10.0781 23.25 12 23.25C13.875 23.25 15.5625 22.2656 16.5 20.625C17.4844 19.0312 17.4844 17.0156 16.5 15.375C15.5625 13.7812 13.875 12.75 12 12.75ZM12 25.5C9.28125 25.5 6.84375 24.0938 5.48438 21.75C4.125 19.4531 4.125 16.5938 5.48438 14.25C6.84375 11.9531 9.28125 10.5 12 10.5C14.6719 10.5 17.1094 11.9531 18.4688 14.25C19.8281 16.5938 19.8281 19.4531 18.4688 21.75C17.1094 24.0938 14.6719 25.5 12 25.5ZM10.0312 19.125C10.4062 19.8281 11.1562 20.25 12 20.25C12.7969 20.25 13.5469 19.8281 13.9219 19.125C14.1562 18.7969 14.5781 18.6562 14.9531 18.8906C15.3281 19.0781 15.4219 19.5469 15.2344 19.9219C14.5781 21 13.3594 21.7969 12 21.7969C10.5938 21.7969 9.375 21 8.71875 19.9219C8.53125 19.5469 8.625 19.0781 9 18.8906C9.375 18.6562 9.84375 18.7969 10.0312 19.125Z" fill="black" fill-opacity="0.72"/>
</g>
<defs>
<clipPath id="clip0_2556_19701">
<rect width="24" height="36" fill="white"/>
</clipPath>
</defs>
</svg>
