<svg width="10" height="24" viewBox="0 0 10 24" fill="none" xmlns="http://www.w3.org/2000/svg">
<g id="label-paired / md / zero-md / fill" clip-path="url(#clip0_2556_15151)">
<path id="icon" d="M0 10C0 7.25 2.21875 5 5 5C7.75 5 10 7.25 10 10V14C10 16.7812 7.75 19 5 19C2.21875 19 0 16.7812 0 14V10ZM5 7C3.34375 7 2 8.34375 2 10V14C2 15.6562 3.34375 17 5 17C6.65625 17 8 15.6562 8 14V10C8 8.34375 6.65625 7 5 7Z" fill="black" fill-opacity="0.72"/>
</g>
<defs>
<clipPath id="clip0_2556_15151">
<rect width="10" height="24" fill="white"/>
</clipPath>
</defs>
</svg>
