<svg width="12" height="18" viewBox="0 0 12 18" fill="none" xmlns="http://www.w3.org/2000/svg">
<g id="label-paired / caption / magnifying-glass-minus-caption / regular" clip-path="url(#clip0_3431_688)">
<path id="icon" d="M4.875 4.25C3.39844 4.25 2.03906 5.04688 1.28906 6.3125C0.5625 7.60156 0.5625 9.17188 1.28906 10.4375C2.03906 11.7266 3.39844 12.5 4.875 12.5C6.32812 12.5 7.6875 11.7266 8.4375 10.4375C9.16406 9.17188 9.16406 7.60156 8.4375 6.3125C7.6875 5.04688 6.32812 4.25 4.875 4.25ZM4.875 13.25C2.17969 13.25 0 11.0703 0 8.375C0 5.70312 2.17969 3.5 4.875 3.5C7.54688 3.5 9.75 5.70312 9.75 8.375C9.75 9.59375 9.30469 10.6953 8.57812 11.5625L11.8828 14.8672C12.0234 15.0078 12.0234 15.2656 11.8828 15.4062C11.7422 15.5469 11.4844 15.5469 11.3438 15.4062L8.03906 12.0781C7.19531 12.8281 6.07031 13.25 4.875 13.25ZM2.625 8H7.125C7.3125 8 7.5 8.1875 7.5 8.375C7.5 8.58594 7.3125 8.75 7.125 8.75H2.625C2.41406 8.75 2.25 8.58594 2.25 8.375C2.25 8.1875 2.41406 8 2.625 8Z" fill="black" fill-opacity="0.72"/>
</g>
<defs>
<clipPath id="clip0_3431_688">
<rect width="12" height="18" fill="white"/>
</clipPath>
</defs>
</svg>
