<svg width="20" height="30" viewBox="0 0 20 30" fill="none" xmlns="http://www.w3.org/2000/svg">
<g id="label-paired / lg / chevrons-left-lg / bold" clip-path="url(#clip0_2556_17391)">
<path id="icon" d="M1.83594 14.8359L9.33594 7.375C9.6875 6.98438 10.2734 6.98438 10.6641 7.375C11.0156 7.72656 11.0156 8.3125 10.6641 8.66406L3.78906 15.5L10.625 22.375C11.0156 22.7266 11.0156 23.3125 10.625 23.6641C10.2734 24.0547 9.6875 24.0547 9.33594 23.6641L1.83594 16.1641C1.44531 15.8125 1.44531 15.2266 1.83594 14.8359ZM16.8359 7.33594V7.375C17.1875 6.98438 17.7734 6.98438 18.1641 7.375C18.5156 7.72656 18.5156 8.3125 18.1641 8.66406L11.2891 15.5391L18.125 22.375C18.5156 22.7266 18.5156 23.3125 18.125 23.6641C17.7734 24.0547 17.1875 24.0547 16.8359 23.6641L9.33594 16.1641C8.94531 15.8125 8.94531 15.2266 9.33594 14.8359L16.8359 7.33594Z" fill="black" fill-opacity="0.72"/>
</g>
<defs>
<clipPath id="clip0_2556_17391">
<rect width="20" height="30" fill="white"/>
</clipPath>
</defs>
</svg>
