<svg width="11" height="18" viewBox="0 0 11 18" fill="none" xmlns="http://www.w3.org/2000/svg">
<g id="label-paired / caption / memo-pad-caption / regular" clip-path="url(#clip0_2981_632)">
<path id="icon" d="M1 6.5V14C1 14.4219 1.32812 14.75 1.75 14.75H9.25C9.64844 14.75 10 14.4219 10 14V6.5H1ZM1 5.75H10V5C10 4.60156 9.64844 4.25 9.25 4.25H1.75C1.32812 4.25 1 4.60156 1 5V5.75ZM10.75 5V5.75V6.125V6.5V14C10.75 14.8438 10.0703 15.5 9.25 15.5H1.75C0.90625 15.5 0.25 14.8438 0.25 14V6.5V6.125V5.75V5C0.25 4.17969 0.90625 3.5 1.75 3.5H9.25C10.0703 3.5 10.75 4.17969 10.75 5ZM2.875 8H8.125C8.3125 8 8.5 8.1875 8.5 8.375C8.5 8.58594 8.3125 8.75 8.125 8.75H2.875C2.66406 8.75 2.5 8.58594 2.5 8.375C2.5 8.1875 2.66406 8 2.875 8ZM2.875 10.25H8.125C8.3125 10.25 8.5 10.4375 8.5 10.625C8.5 10.8359 8.3125 11 8.125 11H2.875C2.66406 11 2.5 10.8359 2.5 10.625C2.5 10.4375 2.66406 10.25 2.875 10.25ZM2.875 12.5H5.875C6.0625 12.5 6.25 12.6875 6.25 12.875C6.25 13.0859 6.0625 13.25 5.875 13.25H2.875C2.66406 13.25 2.5 13.0859 2.5 12.875C2.5 12.6875 2.66406 12.5 2.875 12.5Z" fill="black" fill-opacity="0.72"/>
</g>
<defs>
<clipPath id="clip0_2981_632">
<rect width="11" height="18" fill="white"/>
</clipPath>
</defs>
</svg>
