<svg width="16" height="22" viewBox="0 0 16 22" fill="none" xmlns="http://www.w3.org/2000/svg">
<g id="label-paired / sm / desktop-sm / fill" clip-path="url(#clip0_2981_805)">
<path id="icon" d="M1.875 3.75H14.125C15.082 3.75 15.875 4.54297 15.875 5.5V13.375C15.875 14.3594 15.082 15.125 14.125 15.125H9.3125L9.58594 16H11.5C11.9648 16 12.375 16.4102 12.375 16.875C12.375 17.3672 11.9648 17.75 11.5 17.75H4.5C4.00781 17.75 3.625 17.3672 3.625 16.875C3.625 16.4102 4.00781 16 4.5 16H6.38672L6.6875 15.125H1.875C0.890625 15.125 0.125 14.3594 0.125 13.375V5.5C0.125 4.54297 0.890625 3.75 1.875 3.75ZM14.125 5.5H1.875V11.625H14.125V5.5Z" fill="black" fill-opacity="0.72"/>
</g>
<defs>
<clipPath id="clip0_2981_805">
<rect width="16" height="22" fill="white"/>
</clipPath>
</defs>
</svg>
