<svg width="11" height="18" viewBox="0 0 11 18" fill="none" xmlns="http://www.w3.org/2000/svg">
<g id="label-paired / caption / ellipsis-caption / fill" clip-path="url(#clip0_2556_10600)">
<path id="icon" d="M0.4375 9.5C0.4375 9.03125 0.671875 8.60938 1.09375 8.375C1.49219 8.14062 1.98438 8.14062 2.40625 8.375C2.80469 8.60938 3.0625 9.03125 3.0625 9.5C3.0625 9.99219 2.80469 10.4141 2.40625 10.6484C1.98438 10.8828 1.49219 10.8828 1.09375 10.6484C0.671875 10.4141 0.4375 9.99219 0.4375 9.5ZM4.1875 9.5C4.1875 9.03125 4.42188 8.60938 4.84375 8.375C5.24219 8.14062 5.73438 8.14062 6.15625 8.375C6.55469 8.60938 6.8125 9.03125 6.8125 9.5C6.8125 9.99219 6.55469 10.4141 6.15625 10.6484C5.73438 10.8828 5.24219 10.8828 4.84375 10.6484C4.42188 10.4141 4.1875 9.99219 4.1875 9.5ZM9.25 8.1875C9.71875 8.1875 10.1406 8.44531 10.375 8.84375C10.6094 9.26562 10.6094 9.75781 10.375 10.1562C10.1406 10.5781 9.71875 10.8125 9.25 10.8125C8.75781 10.8125 8.33594 10.5781 8.10156 10.1562C7.86719 9.75781 7.86719 9.26562 8.10156 8.84375C8.33594 8.44531 8.75781 8.1875 9.25 8.1875Z" fill="black" fill-opacity="0.72"/>
</g>
<defs>
<clipPath id="clip0_2556_10600">
<rect width="11" height="18" fill="white"/>
</clipPath>
</defs>
</svg>
