<svg width="11" height="18" viewBox="0 0 11 18" fill="none" xmlns="http://www.w3.org/2000/svg">
<g id="label-paired / caption / placeholder-caption / bold" clip-path="url(#clip0_2556_10354)">
<path id="icon" d="M2.3125 4.25H2.6875C2.99219 4.25 3.25 4.50781 3.25 4.8125C3.25 5.14062 2.99219 5.375 2.6875 5.375H2.3125C1.77344 5.375 1.375 5.79688 1.375 6.3125V6.6875C1.375 7.01562 1.11719 7.25 0.8125 7.25C0.484375 7.25 0.25 7.01562 0.25 6.6875V6.3125C0.25 5.1875 1.16406 4.25 2.3125 4.25ZM0.8125 8C1.11719 8 1.375 8.25781 1.375 8.5625V10.4375C1.375 10.7656 1.11719 11 0.8125 11C0.484375 11 0.25 10.7656 0.25 10.4375V8.5625C0.25 8.25781 0.484375 8 0.8125 8ZM10.1875 8C10.4922 8 10.75 8.25781 10.75 8.5625V10.4375C10.75 10.7656 10.4922 11 10.1875 11C9.85938 11 9.625 10.7656 9.625 10.4375V8.5625C9.625 8.25781 9.85938 8 10.1875 8ZM10.1875 7.25C9.85938 7.25 9.625 7.01562 9.625 6.6875V6.3125C9.625 5.79688 9.20312 5.375 8.6875 5.375H8.3125C7.98438 5.375 7.75 5.14062 7.75 4.8125C7.75 4.50781 7.98438 4.25 8.3125 4.25H8.6875C9.8125 4.25 10.75 5.1875 10.75 6.3125V6.6875C10.75 7.01562 10.4922 7.25 10.1875 7.25ZM10.75 12.3125V12.6875C10.75 13.8359 9.8125 14.75 8.6875 14.75H8.3125C7.98438 14.75 7.75 14.5156 7.75 14.1875C7.75 13.8828 7.98438 13.625 8.3125 13.625H8.6875C9.20312 13.625 9.625 13.2266 9.625 12.6875V12.3125C9.625 12.0078 9.85938 11.75 10.1875 11.75C10.4922 11.75 10.75 12.0078 10.75 12.3125ZM1.375 12.3125V12.6875C1.375 13.2266 1.77344 13.625 2.3125 13.625H2.6875C2.99219 13.625 3.25 13.8828 3.25 14.1875C3.25 14.5156 2.99219 14.75 2.6875 14.75H2.3125C1.16406 14.75 0.25 13.8359 0.25 12.6875V12.3125C0.25 12.0078 0.484375 11.75 0.8125 11.75C1.11719 11.75 1.375 12.0078 1.375 12.3125ZM4.5625 14.75C4.23438 14.75 4 14.5156 4 14.1875C4 13.8828 4.23438 13.625 4.5625 13.625H6.4375C6.74219 13.625 7 13.8828 7 14.1875C7 14.5156 6.74219 14.75 6.4375 14.75H4.5625ZM4 4.8125C4 4.50781 4.23438 4.25 4.5625 4.25H6.4375C6.74219 4.25 7 4.50781 7 4.8125C7 5.14062 6.74219 5.375 6.4375 5.375H4.5625C4.23438 5.375 4 5.14062 4 4.8125Z" fill="black" fill-opacity="0.72"/>
</g>
<defs>
<clipPath id="clip0_2556_10354">
<rect width="11" height="18" fill="white"/>
</clipPath>
</defs>
</svg>
