<svg width="10" height="24" viewBox="0 0 10 24" fill="none" xmlns="http://www.w3.org/2000/svg">
<g id="label-paired / md / forward-step-md / bold" clip-path="url(#clip0_2556_14718)">
<path id="icon" d="M7.5 6.75C7.5 6.34375 7.8125 6 8.25 6C8.65625 6 9 6.34375 9 6.75V11.0938V12.9375V17.25C9 17.6875 8.65625 18 8.25 18C7.8125 18 7.5 17.6875 7.5 17.25V13.9688L1.96875 17.8438C1.8125 17.9688 1.625 18 1.4375 18C0.90625 18 0.5 17.5938 0.5 17.0625V6.96875C0.5 6.4375 0.90625 6 1.4375 6C1.625 6 1.8125 6.0625 1.96875 6.1875L7.5 10.0625V6.75ZM7.5 12.1562V11.875L2 8.03125V16L7.5 12.1562Z" fill="black" fill-opacity="0.72"/>
</g>
<defs>
<clipPath id="clip0_2556_14718">
<rect width="10" height="24" fill="white"/>
</clipPath>
</defs>
</svg>
