<svg width="20" height="24" viewBox="0 0 20 24" fill="none" xmlns="http://www.w3.org/2000/svg">
<g id="label-paired / md / handshake-md / regular" clip-path="url(#clip0_4513_685)">
<path id="icon" d="M8.21875 6H8.5L7.40625 7.125C6.875 7.25 6.40625 7.5 5.96875 7.84375L4.71875 8.90625C4.65625 8.96875 4.5625 9 4.5 9V7.78125L5.34375 7.0625C6.15625 6.375 7.1875 6 8.21875 6ZM3.5 15.0312V15.5C3.5 16.3438 2.8125 17 2 17H1.5C0.65625 17 0 16.3438 0 15.5V9C0 8.46875 0.4375 8 1 8H2.5H3.5V9V14.0312C4 14.0625 4.5 14.2812 4.84375 14.6562L5.8125 15.5938V15.5625L7.0625 16.8125C7.46875 17.2188 8.125 17.25 8.5625 16.8438C8.65625 16.7812 8.75 16.6562 8.8125 16.5625C8.875 16.4062 9.03125 16.3125 9.1875 16.2812C9.34375 16.25 9.5 16.3125 9.59375 16.4375L9.84375 16.6875C10.25 17.0938 10.9375 17.0625 11.3125 16.625C11.5 16.4375 11.5938 16.1875 11.5625 15.9375C11.5625 15.75 11.6562 15.5625 11.8125 15.4688C12 15.375 12.1875 15.375 12.3438 15.4688C12.7188 15.7188 13.2188 15.6875 13.5625 15.375C13.9688 15 14 14.3438 13.5938 13.9375L10.875 11.2188L9.5 12.5C8.71875 13.25 7.5 13.25 6.6875 12.5312C5.78125 11.7188 5.75 10.2812 6.625 9.4375L9.125 7.09375C9.875 6.40625 10.8438 6 11.875 6C12.8125 6 13.7188 6.34375 14.4375 6.96875L15.4688 7.8125V9C15.375 9 15.2812 8.96875 15.2188 8.90625L13.8125 7.71875C13.2812 7.25 12.5938 7 11.875 7C11.0938 7 10.375 7.3125 9.8125 7.84375L7.3125 10.1875C6.875 10.625 6.875 11.375 7.34375 11.7812C7.78125 12.1562 8.40625 12.1562 8.8125 11.7812L11.1875 9.59375C11.4062 9.40625 11.7188 9.40625 11.9062 9.625C12.0938 9.8125 12.0938 10.125 11.875 10.3125L11.625 10.5625L14.3125 13.2188C14.5312 13.4375 14.6875 13.7188 14.7812 13.9688H16.5V9.03125V8.03125H17.5H19C19.5312 8.03125 20 8.46875 20 9.03125V15.5312C20 16.3438 19.3125 17.0312 18.5 17.0312H18C17.1562 17.0312 16.5 16.3438 16.5 15.5312V14.9688H14.8438C14.7812 15.4062 14.5625 15.8125 14.2188 16.125C13.7188 16.5625 13.0625 16.7188 12.4688 16.5938C12.375 16.8438 12.25 17.0938 12.0625 17.3125C11.3438 18.125 10.125 18.1875 9.3125 17.5312C9.28125 17.5625 9.25 17.5938 9.21875 17.5938C8.40625 18.3438 7.15625 18.3125 6.375 17.5312L5.59375 16.75L4.15625 15.375C3.96875 15.1875 3.75 15.0625 3.5 15.0312ZM2.5 9H1V15.5C1 15.7812 1.21875 16 1.5 16H2C2.25 16 2.5 15.7812 2.5 15.5V9ZM19 9H17.5V15.5C17.5 15.7812 17.7188 16 18 16H18.5C18.75 16 19 15.7812 19 15.5V9Z" fill="black" fill-opacity="0.72"/>
</g>
<defs>
<clipPath id="clip0_4513_685">
<rect width="20" height="24" fill="white"/>
</clipPath>
</defs>
</svg>
