<svg width="18" height="24" viewBox="0 0 18 24" fill="none" xmlns="http://www.w3.org/2000/svg">
<g id="label-paired / md / floppy-disk-pen-md / bold" clip-path="url(#clip0_2556_14730)">
<path id="icon" d="M1.5 7V17C1.5 17.2812 1.71875 17.5 2 17.5H8.4375L8.0625 19H2C0.875 19 0 18.125 0 17V7C0 5.90625 0.875 5 2 5H9.65625C10.1875 5 10.6875 5.21875 11.0625 5.59375L13.4062 7.9375L12.3438 9L10 6.65625C10 6.65625 10 6.65625 10 6.625V9.75C10 10.1875 9.65625 10.5 9.25 10.5H3.25C2.8125 10.5 2.5 10.1875 2.5 9.75V6.5H2C1.71875 6.5 1.5 6.75 1.5 7ZM13.4062 7.9375C13.7812 8.3125 14 8.8125 14 9.34375V11.375L12.5 12.875V9.34375C12.5 9.21875 12.4375 9.09375 12.3438 9L13.4062 7.9375ZM4 6.5V9H8.5V6.5H4ZM5 14C5 13.3125 5.375 12.6562 6 12.2812C6.59375 11.9375 7.375 11.9375 8 12.2812C8.59375 12.6562 9 13.3125 9 14C9 14.7188 8.59375 15.375 8 15.75C7.375 16.0938 6.59375 16.0938 6 15.75C5.375 15.375 5 14.7188 5 14ZM17.1562 11.375L17.625 11.8438C18.0938 12.3125 18.0938 13.125 17.625 13.5938L16.6875 14.5312L14.4688 12.3125L15.4062 11.375C15.875 10.9062 16.6875 10.9062 17.1562 11.375ZM9.71875 17.0625L13.7812 13L16 15.2188L11.9375 19.2812C11.8125 19.4062 11.6562 19.5 11.5 19.5312L9.59375 20C9.4375 20.0312 9.25 20 9.125 19.875C9 19.75 8.96875 19.5625 9 19.4062L9.46875 17.5C9.5 17.3438 9.59375 17.1875 9.71875 17.0625Z" fill="black" fill-opacity="0.72"/>
</g>
<defs>
<clipPath id="clip0_2556_14730">
<rect width="18" height="24" fill="white"/>
</clipPath>
</defs>
</svg>
