<svg width="12" height="24" viewBox="0 0 12 24" fill="none" xmlns="http://www.w3.org/2000/svg">
<g id="label-paired / md / four-md / regular" clip-path="url(#clip0_2556_14836)">
<path id="icon" d="M5.4375 5.75L1.28125 14H9V8.5C9 8.25 9.21875 8 9.5 8C9.75 8 10 8.25 10 8.5V14H11.5C11.75 14 12 14.25 12 14.5C12 14.7812 11.75 15 11.5 15H10V18.5C10 18.7812 9.75 19 9.5 19C9.21875 19 9 18.7812 9 18.5V15.0312H0.46875C0.3125 15.0312 0.15625 14.9375 0.0625 14.7812C-0.03125 14.625 -0.03125 14.4375 0.03125 14.2812L4.53125 5.28125C4.65625 5.03125 4.96875 4.9375 5.21875 5.0625C5.46875 5.1875 5.5625 5.5 5.4375 5.75Z" fill="black" fill-opacity="0.72"/>
</g>
<defs>
<clipPath id="clip0_2556_14836">
<rect width="12" height="24" fill="white"/>
</clipPath>
</defs>
</svg>
