<svg width="16" height="24" viewBox="0 0 16 24" fill="none" xmlns="http://www.w3.org/2000/svg">
<g id="label-paired / md / wallet-md / regular" clip-path="url(#clip0_2556_14646)">
<path id="icon" d="M2.5 5H14.5C14.75 5 15 5.25 15 5.5C15 5.78125 14.75 6 14.5 6H2.5C1.65625 6 1 6.6875 1 7.5V16.5C1 17.3438 1.65625 18 2.5 18H13.5C14.3125 18 15 17.3438 15 16.5V9.5C15 8.6875 14.3125 8 13.5 8H3.5C3.21875 8 3 7.78125 3 7.5C3 7.25 3.21875 7 3.5 7H13.5C14.875 7 16 8.125 16 9.5V16.5C16 17.9062 14.875 19 13.5 19H2.5C1.09375 19 0 17.9062 0 16.5V7.5C0 6.125 1.09375 5 2.5 5ZM12 13.75C11.5625 13.75 11.25 13.4375 11.25 13C11.25 12.5938 11.5625 12.25 12 12.25C12.4062 12.25 12.75 12.5938 12.75 13C12.75 13.4375 12.4062 13.75 12 13.75Z" fill="black" fill-opacity="0.72"/>
</g>
<defs>
<clipPath id="clip0_2556_14646">
<rect width="16" height="24" fill="white"/>
</clipPath>
</defs>
</svg>
