<svg width="14" height="22" viewBox="0 0 14 22" fill="none" xmlns="http://www.w3.org/2000/svg">
<g id="label-paired / sm / deriv-brand-logo-sm / regular" clip-path="url(#clip0_5129_548)">
<path id="icon" d="M10.6094 14.3047C10.3086 16 8.69531 17.3672 7 17.3672H5.16797C4.01953 17.3672 3.03516 16.9023 2.40625 16.1094C1.75 15.3438 1.47656 14.2773 1.66797 13.1289L1.83203 12.2812C2.21484 10.0117 4.34766 8.20703 6.61719 8.20703H8.44922L9.02344 4.98047L9.07812 4.67969L12.3867 4.13281L10.6094 14.3047ZM9.81641 5.44531L9.24219 8.72656L9.1875 9.08203H6.61719C4.83984 9.08203 3.11719 10.4766 2.73438 12.2539L2.70703 12.418L2.54297 13.293C2.37891 14.1953 2.59766 14.9883 3.0625 15.5625C3.52734 16.1094 4.26562 16.4922 5.16797 16.4922H7C8.25781 16.4922 9.51562 15.4258 9.73438 14.1406L11.3203 5.19922L9.81641 5.44531ZM8.94141 10.3945L8.85938 10.9141L8.3125 13.9492C8.20312 14.6055 7.62891 15.1523 6.94531 15.1523H5.82422C5.25 15.1523 4.73047 14.9062 4.40234 14.5234C4.04688 14.1133 3.91016 13.5664 4.01953 12.9648L4.10156 12.4453L4.15625 12.2266C4.42969 11.1875 5.44141 10.3945 6.50781 10.3945H8.94141ZM6.50781 11.2695C5.79688 11.2695 5.11328 11.8711 4.97656 12.582L4.86719 13.1289C4.8125 13.4844 4.89453 13.7578 5.05859 13.9492C5.22266 14.1406 5.49609 14.2773 5.82422 14.2773H6.94531C7.16406 14.2773 7.41016 14.0859 7.46484 13.8125L7.90234 11.2695H6.50781Z" fill="black" fill-opacity="0.72"/>
</g>
<defs>
<clipPath id="clip0_5129_548">
<rect width="14" height="22" fill="white"/>
</clipPath>
</defs>
</svg>
