<svg width="16" height="24" viewBox="0 0 16 24" fill="none" xmlns="http://www.w3.org/2000/svg">
<g id="label-paired / md / circle-zero-md / fill" clip-path="url(#clip0_2556_14807)">
<path id="icon" d="M8 20C5.125 20 2.5 18.5 1.0625 16C-0.375 13.5312 -0.375 10.5 1.0625 8C2.5 5.53125 5.125 4 8 4C10.8438 4 13.4688 5.53125 14.9062 8C16.3438 10.5 16.3438 13.5312 14.9062 16C13.4688 18.5 10.8438 20 8 20ZM8 8C6.34375 8 5 9.34375 5 11V13C5 14.6562 6.34375 16 8 16C9.65625 16 11 14.6562 11 13V11C11 9.34375 9.65625 8 8 8ZM6.5 11C6.5 10.1875 7.15625 9.5 8 9.5C8.8125 9.5 9.5 10.1875 9.5 11V13C9.5 13.8438 8.8125 14.5 8 14.5C7.15625 14.5 6.5 13.8438 6.5 13V11Z" fill="black" fill-opacity="0.72"/>
</g>
<defs>
<clipPath id="clip0_2556_14807">
<rect width="16" height="24" fill="white"/>
</clipPath>
</defs>
</svg>
