<svg width="16" height="24" viewBox="0 0 16 24" fill="none" xmlns="http://www.w3.org/2000/svg">
<g id="label-paired / md / circle-six-md / bold" clip-path="url(#clip0_2556_14817)">
<path id="icon" d="M14.5 12C14.5 9.6875 13.25 7.5625 11.25 6.375C9.21875 5.21875 6.75 5.21875 4.75 6.375C2.71875 7.5625 1.5 9.6875 1.5 12C1.5 14.3438 2.71875 16.4688 4.75 17.6562C6.75 18.8125 9.21875 18.8125 11.25 17.6562C13.25 16.4688 14.5 14.3438 14.5 12ZM0 12C0 9.15625 1.5 6.53125 4 5.09375C6.46875 3.65625 9.5 3.65625 12 5.09375C14.4688 6.53125 16 9.15625 16 12C16 14.875 14.4688 17.5 12 18.9375C9.5 20.375 6.46875 20.375 4 18.9375C1.5 17.5 0 14.875 0 12ZM8 14.5C8.53125 14.5 9 14.2188 9.28125 13.75C9.5625 13.3125 9.5625 12.7188 9.28125 12.25C9 11.8125 8.53125 11.5 8 11.5C7.4375 11.5 6.96875 11.8125 6.6875 12.25C6.40625 12.7188 6.40625 13.3125 6.6875 13.75C6.96875 14.2188 7.4375 14.5 8 14.5ZM5 13C5 12 5.4375 11.0312 6.1875 10.375L8.75 8.1875C9.0625 7.9375 9.53125 7.96875 9.8125 8.28125C10.0625 8.59375 10.0312 9.0625 9.71875 9.34375L8.8125 10.125C10.0625 10.4688 11 11.625 11 13C11 14.6562 9.65625 16 8 16C6.34375 16 5 14.6562 5 13Z" fill="black" fill-opacity="0.72"/>
</g>
<defs>
<clipPath id="clip0_2556_14817">
<rect width="16" height="24" fill="white"/>
</clipPath>
</defs>
</svg>
