<svg width="16" height="24" viewBox="0 0 16 24" fill="none" xmlns="http://www.w3.org/2000/svg">
<g id="label-paired / md / telegram-md" clip-path="url(#clip0_2556_14696)">
<path id="icon" d="M8 4.25C12.25 4.25 15.75 7.75 15.75 12C15.75 16.2812 12.25 19.75 8 19.75C3.71875 19.75 0.25 16.2812 0.25 12C0.25 7.75 3.71875 4.25 8 4.25ZM11.5625 9.53125C11.5938 9.4375 11.5938 9.34375 11.5625 9.21875C11.5625 9.15625 11.5 9.0625 11.4688 9.03125C11.375 8.9375 11.2188 8.9375 11.1562 8.9375C10.875 8.9375 10.4062 9.09375 8.25 10C7.5 10.3125 6 10.9375 3.75 11.9375C3.375 12.0938 3.1875 12.2188 3.15625 12.375C3.125 12.625 3.53125 12.7188 4 12.875C4.40625 13 4.9375 13.1562 5.21875 13.1562C5.46875 13.1562 5.75 13.0625 6.0625 12.8438C8.15625 11.4062 9.25 10.6875 9.3125 10.6875C9.375 10.6875 9.4375 10.6562 9.46875 10.6875C9.53125 10.75 9.53125 10.8125 9.5 10.8438C9.46875 11 7.5 12.8125 7.375 12.9375C6.9375 13.375 6.4375 13.6562 7.21875 14.1562C7.875 14.5938 8.25 14.875 8.9375 15.3125C9.375 15.5938 9.71875 15.9375 10.1562 15.9062C10.375 15.875 10.5938 15.6875 10.6875 15.0938C10.9688 13.75 11.4688 10.75 11.5625 9.53125Z" fill="black" fill-opacity="0.72"/>
</g>
<defs>
<clipPath id="clip0_2556_14696">
<rect width="16" height="24" fill="white"/>
</clipPath>
</defs>
</svg>
