<svg width="12" height="24" viewBox="0 0 12 24" fill="none" xmlns="http://www.w3.org/2000/svg">
<g id="label-paired / md / percent-md / bold" clip-path="url(#clip0_2556_14711)">
<path id="icon" d="M11.5312 7.53125L1.5 17.5312C1.21875 17.8438 0.75 17.8438 0.46875 17.5312C0.15625 17.25 0.15625 16.7812 0.46875 16.4688L10.4688 6.5C10.75 6.1875 11.2188 6.1875 11.5312 6.5C11.8125 6.78125 11.8125 7.25 11.5312 7.53125ZM3.5 8C3.5 8.5625 3.1875 9.03125 2.75 9.3125C2.28125 9.59375 1.6875 9.59375 1.25 9.3125C0.78125 9.03125 0.5 8.5625 0.5 8C0.5 7.46875 0.78125 7 1.25 6.71875C1.6875 6.4375 2.28125 6.4375 2.75 6.71875C3.1875 7 3.5 7.46875 3.5 8ZM11.5 16C11.5 16.5625 11.1875 17.0312 10.75 17.3125C10.2812 17.5938 9.6875 17.5938 9.25 17.3125C8.78125 17.0312 8.5 16.5625 8.5 16C8.5 15.4688 8.78125 15 9.25 14.7188C9.6875 14.4375 10.2812 14.4375 10.75 14.7188C11.1875 15 11.5 15.4688 11.5 16Z" fill="black" fill-opacity="0.72"/>
</g>
<defs>
<clipPath id="clip0_2556_14711">
<rect width="12" height="24" fill="white"/>
</clipPath>
</defs>
</svg>
