<svg width="16" height="22" viewBox="0 0 16 22" fill="none" xmlns="http://www.w3.org/2000/svg">
<g id="label-paired / sm / android-sm" clip-path="url(#clip0_2556_12226)">
<path id="icon" d="M11.6094 12.0078C11.9648 12.0078 12.2656 11.7344 12.2656 11.3516C12.2656 10.9961 11.9648 10.6953 11.6094 10.6953C11.2539 10.6953 10.9531 10.9961 10.9531 11.3516C10.9531 11.7344 11.2539 12.0078 11.6094 12.0078ZM4.36328 12.0078C4.71875 12.0078 5.01953 11.7344 5.01953 11.3516C5.01953 10.9961 4.71875 10.6953 4.36328 10.6953C4.00781 10.6953 3.70703 10.9961 3.70703 11.3516C3.70703 11.7344 4.00781 12.0078 4.36328 12.0078ZM11.8555 8.07031C14.0977 9.30078 15.6289 11.5703 15.875 14.25H0.125C0.34375 11.5703 1.875 9.30078 4.11719 8.07031L2.80469 5.80078C2.75 5.71875 2.75 5.60938 2.80469 5.52734C2.85938 5.41797 2.94141 5.36328 3.05078 5.36328C3.16016 5.36328 3.24219 5.44531 3.29688 5.52734L4.60938 7.82422C6.76953 6.86719 9.20312 6.86719 11.3633 7.82422L12.6758 5.52734C12.7305 5.44531 12.8125 5.36328 12.9219 5.36328C13.0312 5.36328 13.1133 5.41797 13.168 5.52734C13.2227 5.60938 13.2227 5.71875 13.168 5.80078L11.8555 8.07031Z" fill="black" fill-opacity="0.72"/>
</g>
<defs>
<clipPath id="clip0_2556_12226">
<rect width="16" height="22" fill="white"/>
</clipPath>
</defs>
</svg>
