<svg width="16" height="22" viewBox="0 0 16 22" fill="none" xmlns="http://www.w3.org/2000/svg">
<g id="label-paired / sm / video-sm / bold" clip-path="url(#clip0_2556_12594)">
<path id="icon" d="M1.875 6.8125C1.62891 6.8125 1.4375 7.03125 1.4375 7.25V14.25C1.4375 14.4961 1.62891 14.6875 1.875 14.6875H8.875C9.09375 14.6875 9.3125 14.4961 9.3125 14.25V7.25C9.3125 7.03125 9.09375 6.8125 8.875 6.8125H1.875ZM0.125 7.25C0.125 6.29297 0.890625 5.5 1.875 5.5H8.875C9.83203 5.5 10.625 6.29297 10.625 7.25V8.15234V13.3477V14.25C10.625 15.2344 9.83203 16 8.875 16H1.875C0.890625 16 0.125 15.2344 0.125 14.25V7.25ZM14.5625 13.7031V7.82422L11.5 9.19141V7.76953L14.3438 6.48438C14.4805 6.42969 14.6172 6.375 14.7812 6.375C15.3828 6.375 15.875 6.86719 15.875 7.46875V14.0586C15.875 14.6602 15.3828 15.125 14.7812 15.125C14.6172 15.125 14.4805 15.0977 14.3438 15.043L11.5 13.7578V12.3086L14.5625 13.7031Z" fill="black" fill-opacity="0.72"/>
</g>
<defs>
<clipPath id="clip0_2556_12594">
<rect width="16" height="22" fill="white"/>
</clipPath>
</defs>
</svg>
