<svg width="11" height="22" viewBox="0 0 11 22" fill="none" xmlns="http://www.w3.org/2000/svg">
<g id="label-paired / sm / file-chart-column-sm / fill" clip-path="url(#clip0_2556_12404)">
<path id="icon" d="M2 3.75H6.375V7.25C6.375 7.74219 6.75781 8.125 7.25 8.125H10.75V16C10.75 16.9844 9.95703 17.75 9 17.75H2C1.01562 17.75 0.25 16.9844 0.25 16V5.5C0.25 4.54297 1.01562 3.75 2 3.75ZM7.25 3.75L10.75 7.25H7.25V3.75ZM6.15625 10.5312C6.15625 10.1758 5.85547 9.875 5.5 9.875C5.11719 9.875 4.84375 10.1758 4.84375 10.5312V15.3438C4.84375 15.7266 5.11719 16 5.5 16C5.85547 16 6.15625 15.7266 6.15625 15.3438V10.5312ZM8.5625 12.2812C8.5625 11.9258 8.26172 11.625 7.90625 11.625C7.52344 11.625 7.25 11.9258 7.25 12.2812V15.3438C7.25 15.7266 7.52344 16 7.90625 16C8.26172 16 8.5625 15.7266 8.5625 15.3438V12.2812ZM3.75 14.0312C3.75 13.6758 3.44922 13.375 3.09375 13.375C2.71094 13.375 2.4375 13.6758 2.4375 14.0312V15.3438C2.4375 15.7266 2.71094 16 3.09375 16C3.44922 16 3.75 15.7266 3.75 15.3438V14.0312Z" fill="black" fill-opacity="0.72"/>
</g>
<defs>
<clipPath id="clip0_2556_12404">
<rect width="11" height="22" fill="white"/>
</clipPath>
</defs>
</svg>
