<svg width="16" height="24" viewBox="0 0 16 24" fill="none" xmlns="http://www.w3.org/2000/svg">
<g id="label-paired / md / circle-five-md / fill" clip-path="url(#clip0_2556_14819)">
<path id="icon" d="M8 20C5.125 20 2.5 18.5 1.0625 16C-0.375 13.5312 -0.375 10.5 1.0625 8C2.5 5.53125 5.125 4 8 4C10.8438 4 13.4688 5.53125 14.9062 8C16.3438 10.5 16.3438 13.5312 14.9062 16C13.4688 18.5 10.8438 20 8 20ZM6.5 8H6.46875C6.125 8 5.8125 8.28125 5.75 8.625L5.25 11.375C5.21875 11.5938 5.25 11.7812 5.375 11.9688C5.5 12.125 5.6875 12.2188 5.90625 12.25L8.625 12.5625C9.125 12.625 9.5 13.0312 9.5 13.5312C9.5 14.0625 9.0625 14.5 8.5 14.5H7.375C7.03125 14.5 6.6875 14.3438 6.46875 14.0312L6.34375 13.8438C6.125 13.5 5.65625 13.4062 5.3125 13.625C4.96875 13.875 4.875 14.3438 5.125 14.6875L5.25 14.875C5.71875 15.5938 6.53125 16 7.375 16H8.5C9.875 16 11 14.9062 11 13.5312C11 12.2812 10.0312 11.2188 8.78125 11.0625L6.875 10.8438L7.125 9.5H9.75C10.1562 9.5 10.5 9.1875 10.5 8.75C10.5 8.34375 10.1562 8 9.75 8H6.5Z" fill="black" fill-opacity="0.72"/>
</g>
<defs>
<clipPath id="clip0_2556_14819">
<rect width="16" height="24" fill="white"/>
</clipPath>
</defs>
</svg>
