<svg width="25" height="30" viewBox="0 0 25 30" fill="none" xmlns="http://www.w3.org/2000/svg">
<g id="label-paired / lg / computer-lg / regular" clip-path="url(#clip0_2556_17074)">
<path id="icon" d="M15 8H2.5C1.79688 8 1.25 8.58594 1.25 9.25V18C1.25 18.7031 1.79688 19.25 2.5 19.25H6.71875H7.1875H10.3125H10.7422H15C15.6641 19.25 16.25 18.7031 16.25 18V9.25C16.25 8.58594 15.6641 8 15 8ZM2.5 20.5C1.09375 20.5 0 19.4062 0 18V9.25C0 7.88281 1.09375 6.75 2.5 6.75H15C16.3672 6.75 17.5 7.88281 17.5 9.25V18C17.5 19.4062 16.3672 20.5 15 20.5H11.1719L11.9922 23H14.375C14.6875 23 15 23.3125 15 23.625C15 23.9766 14.6875 24.25 14.375 24.25H12.4219H11.5625H5.9375H5.03906H3.125C2.77344 24.25 2.5 23.9766 2.5 23.625C2.5 23.3125 2.77344 23 3.125 23H5.46875L6.28906 20.5H2.5ZM6.79688 23H10.6641L9.84375 20.5H7.61719L6.79688 23ZM20.625 8C20.2734 8 20 8.3125 20 8.625V10.5H23.75V8.625C23.75 8.3125 23.4375 8 23.125 8H20.625ZM20 11.75V13H23.75V11.75H20ZM20 22.375C20 22.7266 20.2734 23 20.625 23H23.125C23.4375 23 23.75 22.7266 23.75 22.375V14.25H20V22.375ZM18.75 8.625C18.75 7.60938 19.5703 6.75 20.625 6.75H23.125C24.1406 6.75 25 7.60938 25 8.625V22.375C25 23.4297 24.1406 24.25 23.125 24.25H20.625C19.5703 24.25 18.75 23.4297 18.75 22.375V8.625ZM21.875 19.5625C21.3281 19.5625 20.9375 19.1719 20.9375 18.625C20.9375 18.1172 21.3281 17.6875 21.875 17.6875C22.3828 17.6875 22.8125 18.1172 22.8125 18.625C22.8125 19.1719 22.3828 19.5625 21.875 19.5625Z" fill="black" fill-opacity="0.72"/>
</g>
<defs>
<clipPath id="clip0_2556_17074">
<rect width="25" height="30" fill="white"/>
</clipPath>
</defs>
</svg>
