<svg width="20" height="30" viewBox="0 0 20 30" fill="none" xmlns="http://www.w3.org/2000/svg">
<g id="label-paired / lg / circle-three-lg / bold" clip-path="url(#clip0_2556_17305)">
<path id="icon" d="M10 7.375C7.07031 7.375 4.41406 8.9375 2.92969 11.4375C1.48438 13.9766 1.48438 17.0625 2.92969 19.5625C4.41406 22.1016 7.07031 23.625 10 23.625C12.8906 23.625 15.5469 22.1016 17.0312 19.5625C18.4766 17.0625 18.4766 13.9766 17.0312 11.4375C15.5469 8.9375 12.8906 7.375 10 7.375ZM10 25.5C6.40625 25.5 3.125 23.625 1.32812 20.5C-0.46875 17.4141 -0.46875 13.625 1.32812 10.5C3.125 7.41406 6.40625 5.5 10 5.5C13.5547 5.5 16.8359 7.41406 18.6328 10.5C20.4297 13.625 20.4297 17.4141 18.6328 20.5C16.8359 23.625 13.5547 25.5 10 25.5ZM7.1875 10.5H12.1875C12.5391 10.5 12.8906 10.7734 13.0469 11.125C13.1641 11.4766 13.0859 11.8672 12.8125 12.1406L10.8203 13.9766C12.4609 14.1328 13.75 15.5391 13.75 17.2188C13.75 19.0547 12.2656 20.5 10.4297 20.5H9.375C8.16406 20.5 7.10938 19.9141 6.48438 18.8984L6.36719 18.7422C6.09375 18.3125 6.25 17.7266 6.67969 17.4531C7.10938 17.1797 7.69531 17.3359 7.96875 17.7656L8.08594 17.9219C8.35938 18.3906 8.82812 18.6641 9.375 18.6641H10.4297C11.2109 18.6641 11.875 18 11.875 17.2188C11.875 16.4375 11.2109 15.8125 10.4297 15.8125H8.4375C8.04688 15.8516 7.69531 15.6172 7.53906 15.2266C7.42188 14.875 7.5 14.4453 7.77344 14.2109L9.76562 12.375H7.1875C6.64062 12.375 6.25 11.9844 6.25 11.4375C6.25 10.9297 6.64062 10.5 7.1875 10.5Z" fill="black" fill-opacity="0.72"/>
</g>
<defs>
<clipPath id="clip0_2556_17305">
<rect width="20" height="30" fill="white"/>
</clipPath>
</defs>
</svg>
