<svg width="16" height="22" viewBox="0 0 16 22" fill="none" xmlns="http://www.w3.org/2000/svg">
<g id="label-paired / sm / credit-card-sm / regular" clip-path="url(#clip0_2556_12293)">
<path id="icon" d="M1.875 5.5C1.38281 5.5 1 5.91016 1 6.375V7.25H15V6.375C15 5.91016 14.5898 5.5 14.125 5.5H1.875ZM1 8.125V9.875H15V8.125H1ZM1 10.75V15.125C1 15.6172 1.38281 16 1.875 16H14.125C14.5898 16 15 15.6172 15 15.125V10.75H1ZM0.125 6.375C0.125 5.41797 0.890625 4.625 1.875 4.625H14.125C15.082 4.625 15.875 5.41797 15.875 6.375V15.125C15.875 16.1094 15.082 16.875 14.125 16.875H1.875C0.890625 16.875 0.125 16.1094 0.125 15.125V6.375ZM2.75 13.8125C2.75 13.5938 2.94141 13.375 3.1875 13.375H4.9375C5.15625 13.375 5.375 13.5938 5.375 13.8125C5.375 14.0586 5.15625 14.25 4.9375 14.25H3.1875C2.94141 14.25 2.75 14.0586 2.75 13.8125ZM6.25 13.8125C6.25 13.5938 6.44141 13.375 6.6875 13.375H10.1875C10.4062 13.375 10.625 13.5938 10.625 13.8125C10.625 14.0586 10.4062 14.25 10.1875 14.25H6.6875C6.44141 14.25 6.25 14.0586 6.25 13.8125Z" fill="black" fill-opacity="0.72"/>
</g>
<defs>
<clipPath id="clip0_2556_12293">
<rect width="16" height="22" fill="white"/>
</clipPath>
</defs>
</svg>
