<svg width="24" height="36" viewBox="0 0 24 36" fill="none" xmlns="http://www.w3.org/2000/svg">
<g id="label-paired / xl / circle-chevron-left-xl / fill" clip-path="url(#clip0_2556_19613)">
<path id="icon" d="M24 18C24 22.3125 21.7031 26.25 18 28.4062C14.25 30.5625 9.70312 30.5625 6 28.4062C2.25 26.25 0 22.3125 0 18C0 13.7344 2.25 9.79688 6 7.64062C9.70312 5.48438 14.25 5.48438 18 7.64062C21.7031 9.79688 24 13.7344 24 18ZM12.7031 12.3281L7.82812 17.25C7.35938 17.6719 7.35938 18.375 7.82812 18.7969L12.7031 23.6719C13.125 24.1406 13.8281 24.1406 14.25 23.6719C14.7188 23.25 14.7188 22.5469 14.25 22.0781L10.1719 18L14.25 13.9219C14.7188 13.5 14.7188 12.7969 14.25 12.3281C13.8281 11.9062 13.125 11.9062 12.7031 12.3281Z" fill="black" fill-opacity="0.72"/>
</g>
<defs>
<clipPath id="clip0_2556_19613">
<rect width="24" height="36" fill="white"/>
</clipPath>
</defs>
</svg>
