<svg width="16" height="24" viewBox="0 0 16 24" fill="none" xmlns="http://www.w3.org/2000/svg">
<g id="label-paired / md / reddit-md" clip-path="url(#clip0_2556_15033)">
<path id="icon" d="M0 12C0 7.59375 3.5625 4 8 4C12.4062 4 16 7.59375 16 12C16 16.4375 12.4062 20 8 20H1.15625C0.71875 20 0.5 19.5 0.8125 19.1875L2.34375 17.6562C0.875 16.2188 0 14.2188 0 12ZM10.9062 8.8125C11.6562 8.8125 12.25 8.21875 12.25 7.46875C12.25 6.75 11.6562 6.15625 10.9062 6.15625C10.2812 6.15625 9.71875 6.59375 9.59375 7.21875C8.53125 7.3125 7.6875 8.25 7.6875 9.34375C6.5 9.40625 5.4375 9.75 4.59375 10.25C4.28125 10.0312 3.875 9.875 3.4375 9.875C2.40625 9.875 1.59375 10.7188 1.59375 11.75C1.59375 12.5 2.03125 13.125 2.65625 13.4375C2.71875 15.5938 5.09375 17.3438 8 17.3438C10.9062 17.3438 13.25 15.5938 13.3125 13.4375C13.9375 13.125 14.375 12.4688 14.375 11.75C14.375 10.7188 13.5625 9.875 12.5312 9.875C12.0938 9.875 11.6875 10 11.375 10.25C10.5312 9.71875 9.4375 9.40625 8.25 9.34375C8.25 8.5625 8.84375 7.875 9.625 7.78125C9.75 8.375 10.2812 8.8125 10.9062 8.8125ZM5.53125 11.7188C6.03125 11.7188 6.4375 12.2812 6.40625 12.9688C6.375 13.625 6 13.875 5.46875 13.875C4.9375 13.875 4.46875 13.5938 4.5 12.9375C4.53125 12.25 5 11.7188 5.53125 11.7188ZM11.4688 12.9375C11.5 13.5938 11.0312 13.875 10.5 13.875C10 13.875 9.59375 13.625 9.5625 12.9688C9.53125 12.2812 9.9375 11.7188 10.4688 11.7188C10.9688 11.7188 11.4375 12.25 11.4688 12.9375ZM9.96875 14.6875C9.625 15.4688 8.875 16 8 16C7.09375 16 6.34375 15.4688 6.03125 14.6875C5.96875 14.5938 6.03125 14.5 6.15625 14.5C6.71875 14.4375 7.34375 14.4062 8 14.4062C8.625 14.4062 9.25 14.4375 9.84375 14.5C9.9375 14.5 10 14.5938 9.96875 14.6875Z" fill="black" fill-opacity="0.72"/>
</g>
<defs>
<clipPath id="clip0_2556_15033">
<rect width="16" height="24" fill="white"/>
</clipPath>
</defs>
</svg>
