<svg width="24" height="36" viewBox="0 0 24 36" fill="none" xmlns="http://www.w3.org/2000/svg">
<g id="label-paired / xl / circle-sort-up-xl / regular" clip-path="url(#clip0_2556_19514)">
<path id="icon" d="M22.5 18C22.5 14.25 20.4844 10.8281 17.25 8.95312C13.9688 7.03125 9.98438 7.03125 6.75 8.95312C3.46875 10.8281 1.5 14.25 1.5 18C1.5 21.7969 3.46875 25.2188 6.75 27.0938C9.98438 29.0156 13.9688 29.0156 17.25 27.0938C20.4844 25.2188 22.5 21.7969 22.5 18ZM0 18C0 13.7344 2.25 9.79688 6 7.64062C9.70312 5.48438 14.25 5.48438 18 7.64062C21.7031 9.79688 24 13.7344 24 18C24 22.3125 21.7031 26.25 18 28.4062C14.25 30.5625 9.70312 30.5625 6 28.4062C2.25 26.25 0 22.3125 0 18ZM11.4375 10.7344C11.7188 10.4531 12.2344 10.4531 12.5156 10.7344L17.0156 15.2344C17.2031 15.4688 17.2969 15.7969 17.1562 16.0781C17.0625 16.3125 16.7812 16.5 16.5 16.5H7.5C7.17188 16.5 6.89062 16.3594 6.79688 16.0781C6.65625 15.7969 6.75 15.4688 6.9375 15.2344L11.4375 10.7344ZM9.28125 15H14.6719L12 12.3281L9.28125 15ZM6.9375 20.8125C6.65625 20.5312 6.65625 20.0156 6.9375 19.7344C7.21875 19.4531 7.73438 19.4531 8.01562 19.7344L12 23.7188L15.9375 19.7344C16.2188 19.4531 16.7344 19.4531 17.0156 19.7344C17.2969 20.0156 17.2969 20.5312 17.0156 20.8125L12.5156 25.3125C12.2344 25.5938 11.7188 25.5938 11.4375 25.3125L6.9375 20.8125Z" fill="black" fill-opacity="0.72"/>
</g>
<defs>
<clipPath id="clip0_2556_19514">
<rect width="24" height="36" fill="white"/>
</clipPath>
</defs>
</svg>
