<svg width="14" height="22" viewBox="0 0 14 22" fill="none" xmlns="http://www.w3.org/2000/svg">
<g id="label-paired / sm / chevrons-down-sm / regular" clip-path="url(#clip0_2556_12651)">
<path id="icon" d="M1.42188 5.82812C1.25781 5.66406 1.25781 5.36328 1.42188 5.19922C1.58594 5.03516 1.88672 5.03516 2.05078 5.19922L7 10.1484L11.9219 5.19922C12.0859 5.03516 12.3867 5.03516 12.5508 5.19922C12.7148 5.36328 12.7148 5.66406 12.5508 5.82812L7.30078 11.0781C7.13672 11.2422 6.83594 11.2422 6.67188 11.0781L1.42188 5.82812ZM1.42188 11.0781C1.25781 10.9141 1.25781 10.6133 1.42188 10.4492C1.58594 10.2852 1.88672 10.2852 2.05078 10.4492L7 15.3984L11.9219 10.4492C12.0859 10.2852 12.3867 10.2852 12.5508 10.4492C12.7148 10.6133 12.7148 10.9141 12.5508 11.0781L7.30078 16.3281C7.13672 16.4922 6.83594 16.4922 6.67188 16.3281L1.42188 11.0781Z" fill="black" fill-opacity="0.72"/>
</g>
<defs>
<clipPath id="clip0_2556_12651">
<rect width="14" height="22" fill="white"/>
</clipPath>
</defs>
</svg>
