<svg width="12" height="24" viewBox="0 0 12 24" fill="none" xmlns="http://www.w3.org/2000/svg">
<g id="label-paired / md / arrow-up-to-line-md / bold" clip-path="url(#clip0_2556_14886)">
<path id="icon" d="M0.75 5H11.25C11.6562 5 12 5.34375 12 5.75C12 6.1875 11.6562 6.5 11.25 6.5H0.75C0.3125 6.5 0 6.1875 0 5.75C0 5.34375 0.3125 5 0.75 5ZM6.53125 9.25L10.5312 13.5C10.8125 13.8125 10.8125 14.2812 10.5 14.5625C10.1875 14.8438 9.71875 14.8438 9.4375 14.5312L6.75 11.6562V14.25V18.25C6.75 18.6875 6.40625 19 6 19C5.5625 19 5.25 18.6875 5.25 18.25V14.25V11.6562L2.53125 14.5312C2.25 14.8438 1.78125 14.8438 1.46875 14.5625C1.15625 14.2812 1.15625 13.8125 1.4375 13.5L5.4375 9.25C5.59375 9.09375 5.78125 9 6 9C6.1875 9 6.40625 9.09375 6.53125 9.25Z" fill="black" fill-opacity="0.72"/>
</g>
<defs>
<clipPath id="clip0_2556_14886">
<rect width="12" height="24" fill="white"/>
</clipPath>
</defs>
</svg>
