<svg width="16" height="24" viewBox="0 0 16 24" fill="none" xmlns="http://www.w3.org/2000/svg">
<g id="label-paired / md / circle-exclamation-md / fill" clip-path="url(#clip0_2556_15055)">
<path id="icon" d="M8 20C5.125 20 2.5 18.5 1.0625 16C-0.375 13.5312 -0.375 10.5 1.0625 8C2.5 5.53125 5.125 4 8 4C10.8438 4 13.4688 5.53125 14.9062 8C16.3438 10.5 16.3438 13.5312 14.9062 16C13.4688 18.5 10.8438 20 8 20ZM8 8C7.5625 8 7.25 8.34375 7.25 8.75V12.25C7.25 12.6875 7.5625 13 8 13C8.40625 13 8.75 12.6875 8.75 12.25V8.75C8.75 8.34375 8.40625 8 8 8ZM7 15C7 15.5625 7.4375 16 8 16C8.53125 16 9 15.5625 9 15C9 14.4688 8.53125 14 8 14C7.4375 14 7 14.4688 7 15Z" fill="black" fill-opacity="0.72"/>
</g>
<defs>
<clipPath id="clip0_2556_15055">
<rect width="16" height="24" fill="white"/>
</clipPath>
</defs>
</svg>
