<svg width="24" height="36" viewBox="0 0 24 36" fill="none" xmlns="http://www.w3.org/2000/svg">
<g id="label-paired / xl / paste-xl / fill" clip-path="url(#clip0_2556_19371)">
<path id="icon" d="M7.5 6C8.57812 6 9.5625 6.60938 10.0781 7.5H12.75C13.9688 7.5 15 8.53125 15 9.75V10.5H12.75C10.6406 10.5 9 12.1875 9 14.25V27H2.25C0.984375 27 0 26.0156 0 24.75V9.75C0 8.53125 0.984375 7.5 2.25 7.5H4.875C5.39062 6.60938 6.375 6 7.5 6ZM12.75 12H15H18.5625C19.125 12 19.7344 12.2812 20.1562 12.7031L23.2969 15.8438C23.7188 16.2656 24 16.875 24 17.4375V27.75C24 29.0156 22.9688 30 21.75 30H12.75C11.4844 30 10.5 29.0156 10.5 27.75V27V14.25C10.5 13.0312 11.4844 12 12.75 12ZM7.5 7.875C6.84375 7.875 6.375 8.39062 6.375 9C6.375 9.65625 6.84375 10.125 7.5 10.125C8.10938 10.125 8.625 9.65625 8.625 9C8.625 8.39062 8.10938 7.875 7.5 7.875Z" fill="black" fill-opacity="0.72"/>
</g>
<defs>
<clipPath id="clip0_2556_19371">
<rect width="24" height="36" fill="white"/>
</clipPath>
</defs>
</svg>
