<svg width="23" height="30" viewBox="0 0 23 30" fill="none" xmlns="http://www.w3.org/2000/svg">
<g id="label-paired / lg / volume-xmark-lg / bold" clip-path="url(#clip0_3758_598)">
<path id="icon" d="M6.46094 13.3906C6.30469 13.5469 6.07031 13.625 5.875 13.625H2.4375C2.24219 13.625 2.125 13.7812 2.125 13.9375V17.0625C2.125 17.2578 2.24219 17.375 2.4375 17.375H5.875C6.07031 17.375 6.30469 17.4922 6.46094 17.6484L10.875 21.5156V9.52344L6.46094 13.3906ZM11.5781 6.75C12.2031 6.75 12.75 7.29688 12.75 7.92188V23.1172C12.75 23.7422 12.2031 24.25 11.5781 24.25C11.2656 24.25 10.9922 24.1719 10.7969 23.9766L5.48438 19.25H2.4375C1.22656 19.25 0.25 18.2734 0.25 17.0625V13.9375C0.25 12.7656 1.22656 11.75 2.4375 11.75H5.48438L10.7969 7.0625C10.9922 6.86719 11.2656 6.75 11.5781 6.75ZM16.8516 12.0234L19 14.1719L21.1484 12.0234C21.5 11.6719 22.0859 11.6719 22.4375 12.0234C22.8281 12.4141 22.8281 13 22.4375 13.3516L20.2891 15.5L22.4375 17.6484C22.8281 18.0391 22.8281 18.625 22.4375 18.9766C22.0859 19.3672 21.5 19.3672 21.1484 18.9766L19 16.8281L16.8516 18.9766C16.4609 19.3672 15.875 19.3672 15.5234 18.9766C15.1328 18.625 15.1328 18.0391 15.5234 17.6484L17.6719 15.5L15.5234 13.3516C15.1328 13 15.1328 12.4141 15.5234 12.0234C15.875 11.6719 16.4609 11.6719 16.8516 12.0234Z" fill="black" fill-opacity="0.72"/>
</g>
<defs>
<clipPath id="clip0_3758_598">
<rect width="23" height="30" fill="white"/>
</clipPath>
</defs>
</svg>
