<svg width="14" height="24" viewBox="0 0 14 24" fill="none" xmlns="http://www.w3.org/2000/svg">
<g id="label-paired / md / memo-pad-md / bold" clip-path="url(#clip0_2981_838)">
<path id="icon" d="M12.5 8H1.5V18C1.5 18.2812 1.71875 18.5 2 18.5H12C12.25 18.5 12.5 18.2812 12.5 18V8ZM2 4H12C13.0938 4 14 4.90625 14 6V18C14 19.125 13.0938 20 12 20H2C0.875 20 0 19.125 0 18V6C0 4.90625 0.875 4 2 4ZM3 10.25C3 9.84375 3.3125 9.5 3.75 9.5H10.25C10.6562 9.5 11 9.84375 11 10.25C11 10.6875 10.6562 11 10.25 11H3.75C3.3125 11 3 10.6875 3 10.25ZM3 13.25C3 12.8438 3.3125 12.5 3.75 12.5H10.25C10.6562 12.5 11 12.8438 11 13.25C11 13.6875 10.6562 14 10.25 14H3.75C3.3125 14 3 13.6875 3 13.25ZM3 16.25C3 15.8438 3.3125 15.5 3.75 15.5H7.25C7.65625 15.5 8 15.8438 8 16.25C8 16.6875 7.65625 17 7.25 17H3.75C3.3125 17 3 16.6875 3 16.25Z" fill="black" fill-opacity="0.72"/>
</g>
<defs>
<clipPath id="clip0_2981_838">
<rect width="14" height="24" fill="white"/>
</clipPath>
</defs>
</svg>
