<svg width="24" height="36" viewBox="0 0 24 36" fill="none" xmlns="http://www.w3.org/2000/svg">
<g id="label-paired / xl / clone-xl / fill" clip-path="url(#clip0_2556_19369)">
<path id="icon" d="M13.5 27V24H16.5V27C16.5 28.6875 15.1406 30 13.5 30H3C1.3125 30 0 28.6875 0 27V16.5C0 14.8594 1.3125 13.5 3 13.5H6V16.5H3V27H13.5ZM10.5 22.5C8.8125 22.5 7.5 21.1875 7.5 19.5V9C7.5 7.35938 8.8125 6 10.5 6H21C22.6406 6 24 7.35938 24 9V19.5C24 21.1875 22.6406 22.5 21 22.5H10.5Z" fill="black" fill-opacity="0.72"/>
</g>
<defs>
<clipPath id="clip0_2556_19369">
<rect width="24" height="36" fill="white"/>
</clipPath>
</defs>
</svg>
