<svg width="13" height="22" viewBox="0 0 13 22" fill="none" xmlns="http://www.w3.org/2000/svg">
<g id="label-paired / sm / ellipsis-sm / fill" clip-path="url(#clip0_2556_12800)">
<path id="icon" d="M0.59375 10.75C0.59375 10.2031 0.867188 9.71094 1.35938 9.4375C1.82422 9.16406 2.39844 9.16406 2.89062 9.4375C3.35547 9.71094 3.65625 10.2031 3.65625 10.75C3.65625 11.3242 3.35547 11.8164 2.89062 12.0898C2.39844 12.3633 1.82422 12.3633 1.35938 12.0898C0.867188 11.8164 0.59375 11.3242 0.59375 10.75ZM4.96875 10.75C4.96875 10.2031 5.24219 9.71094 5.73438 9.4375C6.19922 9.16406 6.77344 9.16406 7.26562 9.4375C7.73047 9.71094 8.03125 10.2031 8.03125 10.75C8.03125 11.3242 7.73047 11.8164 7.26562 12.0898C6.77344 12.3633 6.19922 12.3633 5.73438 12.0898C5.24219 11.8164 4.96875 11.3242 4.96875 10.75ZM10.875 9.21875C11.4219 9.21875 11.9141 9.51953 12.1875 9.98438C12.4609 10.4766 12.4609 11.0508 12.1875 11.5156C11.9141 12.0078 11.4219 12.2812 10.875 12.2812C10.3008 12.2812 9.80859 12.0078 9.53516 11.5156C9.26172 11.0508 9.26172 10.4766 9.53516 9.98438C9.80859 9.51953 10.3008 9.21875 10.875 9.21875Z" fill="black" fill-opacity="0.72"/>
</g>
<defs>
<clipPath id="clip0_2556_12800">
<rect width="13" height="22" fill="white"/>
</clipPath>
</defs>
</svg>
