<svg width="24" height="36" viewBox="0 0 24 36" fill="none" xmlns="http://www.w3.org/2000/svg">
<g id="label-paired / xl / circle-four-xl / bold" clip-path="url(#clip0_2556_19962)">
<path id="icon" d="M21.75 18C21.75 14.5312 19.875 11.3438 16.875 9.5625C13.8281 7.82812 10.125 7.82812 7.125 9.5625C4.07812 11.3438 2.25 14.5312 2.25 18C2.25 21.5156 4.07812 24.7031 7.125 26.4844C10.125 28.2188 13.8281 28.2188 16.875 26.4844C19.875 24.7031 21.75 21.5156 21.75 18ZM0 18C0 13.7344 2.25 9.79688 6 7.64062C9.70312 5.48438 14.25 5.48438 18 7.64062C21.7031 9.79688 24 13.7344 24 18C24 22.3125 21.7031 26.25 18 28.4062C14.25 30.5625 9.70312 30.5625 6 28.4062C2.25 26.25 0 22.3125 0 18ZM10.4531 12.0938C11.0625 12.2812 11.3906 12.8906 11.1562 13.5L9.42188 18.75H12.75V16.125C12.75 15.5156 13.2188 15 13.875 15C14.4844 15 15 15.5156 15 16.125V18.75H15.375C15.9844 18.75 16.5 19.2656 16.5 19.875C16.5 20.5312 15.9844 21 15.375 21H15V22.875C15 23.5312 14.4844 24 13.875 24C13.2188 24 12.75 23.5312 12.75 22.875V21H7.875C7.5 21 7.17188 20.8594 6.9375 20.5312C6.75 20.25 6.65625 19.875 6.79688 19.5469L9.04688 12.7969C9.23438 12.1875 9.89062 11.8594 10.4531 12.0938Z" fill="black" fill-opacity="0.72"/>
</g>
<defs>
<clipPath id="clip0_2556_19962">
<rect width="24" height="36" fill="white"/>
</clipPath>
</defs>
</svg>
