<svg width="24" height="36" viewBox="0 0 24 36" fill="none" xmlns="http://www.w3.org/2000/svg">
<g id="label-paired / xl / chart-line-up-down-xl / bold" clip-path="url(#clip0_2556_19502)">
<path id="icon" d="M1.125 7.5C1.73438 7.5 2.25 8.01562 2.25 8.625V25.125C2.25 25.7812 2.71875 26.25 3.375 26.25H22.875C23.4844 26.25 24 26.7656 24 27.375C24 28.0312 23.4844 28.5 22.875 28.5H3.375C1.5 28.5 0 27 0 25.125V8.625C0 8.01562 0.46875 7.5 1.125 7.5ZM17.625 11.25C16.9688 11.25 16.5 10.7812 16.5 10.125C16.5 9.51562 16.9688 9 17.625 9H21.375C21.6562 9 21.9375 9.14062 22.1719 9.32812C22.3594 9.5625 22.5 9.84375 22.5 10.125V13.875C22.5 14.5312 21.9844 15 21.375 15C20.7188 15 20.25 14.5312 20.25 13.875V12.8438L14.2969 18.7969C13.8281 19.2656 13.125 19.2656 12.7031 18.7969L9.75 15.8438L6.79688 18.7969C6.32812 19.2656 5.625 19.2656 5.20312 18.7969C4.73438 18.375 4.73438 17.6719 5.20312 17.25L8.95312 13.5C9.375 13.0312 10.0781 13.0312 10.5469 13.5L13.5 16.4531L18.6562 11.25H17.625ZM17.625 24C16.9688 24 16.5 23.5312 16.5 22.875C16.5 22.2656 16.9688 21.75 17.625 21.75H18.6562L16.4531 19.5469L18.0469 17.9531L20.25 20.1562V19.125C20.25 18.5156 20.7188 18 21.375 18C21.9844 18 22.5 18.5156 22.5 19.125V22.875C22.5 23.2031 22.3594 23.4844 22.1719 23.6719C21.9375 23.9062 21.6562 24 21.375 24H17.625Z" fill="black" fill-opacity="0.72"/>
</g>
<defs>
<clipPath id="clip0_2556_19502">
<rect width="24" height="36" fill="white"/>
</clipPath>
</defs>
</svg>
