<svg width="14" height="24" viewBox="0 0 14 24" fill="none" xmlns="http://www.w3.org/2000/svg">
<g id="label-paired / md / qrcode-md / bold" clip-path="url(#clip0_2556_14599)">
<path id="icon" d="M4.5 6.5H1.5V9.5H4.5V6.5ZM1.5 5H4.5C5.3125 5 6 5.6875 6 6.5V9.5C6 10.3438 5.3125 11 4.5 11H1.5C0.65625 11 0 10.3438 0 9.5V6.5C0 5.6875 0.65625 5 1.5 5ZM4.5 14.5H1.5V17.5H4.5V14.5ZM1.5 13H4.5C5.3125 13 6 13.6875 6 14.5V17.5C6 18.3438 5.3125 19 4.5 19H1.5C0.65625 19 0 18.3438 0 17.5V14.5C0 13.6875 0.65625 13 1.5 13ZM9.5 6.5V9.5H12.5V6.5H9.5ZM8 6.5C8 5.6875 8.65625 5 9.5 5H12.5C13.3125 5 14 5.6875 14 6.5V9.5C14 10.3438 13.3125 11 12.5 11H9.5C8.65625 11 8 10.3438 8 9.5V6.5ZM2.25 7.75C2.25 7.5 2.46875 7.25 2.75 7.25H3.25C3.5 7.25 3.75 7.5 3.75 7.75V8.25C3.75 8.53125 3.5 8.75 3.25 8.75H2.75C2.46875 8.75 2.25 8.53125 2.25 8.25V7.75ZM2.75 15.25H3.25C3.5 15.25 3.75 15.5 3.75 15.75V16.25C3.75 16.5312 3.5 16.75 3.25 16.75H2.75C2.46875 16.75 2.25 16.5312 2.25 16.25V15.75C2.25 15.5 2.46875 15.25 2.75 15.25ZM10.25 7.75C10.25 7.5 10.4688 7.25 10.75 7.25H11.25C11.5 7.25 11.75 7.5 11.75 7.75V8.25C11.75 8.53125 11.5 8.75 11.25 8.75H10.75C10.4688 8.75 10.25 8.53125 10.25 8.25V7.75ZM8 13.5C8 13.25 8.21875 13 8.5 13H10.5C10.75 13 11 13.25 11 13.5C11 13.7812 11.2188 14 11.5 14H12.5C12.75 14 13 13.7812 13 13.5C13 13.25 13.2188 13 13.5 13C13.75 13 14 13.25 14 13.5V16.5C14 16.7812 13.75 17 13.5 17H11.5C11.2188 17 11 16.7812 11 16.5C11 16.25 10.75 16 10.5 16C10.2188 16 10 16.25 10 16.5V18.5C10 18.7812 9.75 19 9.5 19H8.5C8.21875 19 8 18.7812 8 18.5V13.5ZM11.5 18C11.75 18 12 18.25 12 18.5C12 18.7812 11.75 19 11.5 19C11.2188 19 11 18.7812 11 18.5C11 18.25 11.2188 18 11.5 18ZM13.5 18C13.75 18 14 18.25 14 18.5C14 18.7812 13.75 19 13.5 19C13.2188 19 13 18.7812 13 18.5C13 18.25 13.2188 18 13.5 18Z" fill="black" fill-opacity="0.72"/>
</g>
<defs>
<clipPath id="clip0_2556_14599">
<rect width="14" height="24" fill="white"/>
</clipPath>
</defs>
</svg>
