<svg width="27" height="36" viewBox="0 0 27 36" fill="none" xmlns="http://www.w3.org/2000/svg">
<g id="label-paired / xl / house-user-xl / fill" clip-path="url(#clip0_4670_665)">
<path id="icon" d="M26.9531 18C26.9531 18.8438 26.25 19.5 25.4531 19.5H23.9531L24 27C24 28.6875 22.6875 30.0469 21 30.0469H6C4.3125 30.0469 3 28.6875 3 27.0469V19.5H1.5C0.65625 19.5 0 18.8438 0 18C0 17.5781 0.140625 17.2031 0.46875 16.875L12.4688 6.375C12.7969 6.04688 13.1719 6 13.5 6C13.8281 6 14.2031 6.09375 14.4844 6.32812L26.4375 16.875C26.8125 17.2031 27 17.5781 26.9531 18ZM16.5 16.5C16.5 15.4688 15.8906 14.4844 15 13.9219C14.0625 13.4062 12.8906 13.4062 12 13.9219C11.0625 14.4844 10.5 15.4688 10.5 16.5C10.5 17.5781 11.0625 18.5625 12 19.125C12.8906 19.6406 14.0625 19.6406 15 19.125C15.8906 18.5625 16.5 17.5781 16.5 16.5ZM12 21C9.89062 21 8.25 22.6875 8.25 24.75C8.25 25.1719 8.57812 25.5 9 25.5H18C18.375 25.5 18.75 25.1719 18.75 24.75C18.75 22.6875 17.0625 21 15 21H12Z" fill="black" fill-opacity="0.72"/>
</g>
<defs>
<clipPath id="clip0_4670_665">
<rect width="27" height="36" fill="white"/>
</clipPath>
</defs>
</svg>
