<svg width="18" height="24" viewBox="0 0 18 24" fill="none" xmlns="http://www.w3.org/2000/svg">
<g id="label-paired / md / house-user-md / bold" clip-path="url(#clip0_4670_649)">
<path id="icon" d="M8.5 4.1875C8.78125 3.96875 9.1875 3.96875 9.46875 4.1875L17.7188 11.1875C18.0312 11.4688 18.0938 11.9375 17.8125 12.25C17.5312 12.5625 17.0625 12.5938 16.75 12.3438L16 11.6875V17.5C16 18.9062 14.875 20 13.5 20H4.5C3.09375 20 2 18.9062 2 17.5V11.6875L1.21875 12.3438C0.90625 12.5938 0.4375 12.5625 0.15625 12.25C-0.09375 11.9375 -0.0625 11.4688 0.25 11.1875L8.5 4.1875ZM3.5 10.4062V17.5C3.5 18.0625 3.9375 18.5 4.5 18.5H13.5C14.0312 18.5 14.5 18.0625 14.5 17.5V10.4062L9 5.75L3.5 10.4062ZM7 11C7 10.3125 7.375 9.65625 8 9.28125C8.59375 8.9375 9.375 8.9375 10 9.28125C10.5938 9.65625 11 10.3125 11 11C11 11.7188 10.5938 12.375 10 12.75C9.375 13.0938 8.59375 13.0938 8 12.75C7.375 12.375 7 11.7188 7 11ZM8 14H10C11.375 14 12.5 15.125 12.5 16.5C12.5 16.7812 12.25 17 12 17H6C5.71875 17 5.5 16.7812 5.5 16.5C5.5 15.125 6.59375 14 8 14Z" fill="black" fill-opacity="0.72"/>
</g>
<defs>
<clipPath id="clip0_4670_649">
<rect width="18" height="24" fill="white"/>
</clipPath>
</defs>
</svg>
