<svg width="20" height="30" viewBox="0 0 20 30" fill="none" xmlns="http://www.w3.org/2000/svg">
<g id="label-paired / lg / circle-info-lg / fill" clip-path="url(#clip0_2556_17007)">
<path id="icon" d="M10 25.5C6.40625 25.5 3.125 23.625 1.32812 20.5C-0.46875 17.4141 -0.46875 13.625 1.32812 10.5C3.125 7.41406 6.40625 5.5 10 5.5C13.5547 5.5 16.8359 7.41406 18.6328 10.5C20.4297 13.625 20.4297 17.4141 18.6328 20.5C16.8359 23.625 13.5547 25.5 10 25.5ZM8.4375 18.625C7.89062 18.625 7.5 19.0547 7.5 19.5625C7.5 20.1094 7.89062 20.5 8.4375 20.5H11.5625C12.0703 20.5 12.5 20.1094 12.5 19.5625C12.5 19.0547 12.0703 18.625 11.5625 18.625H11.25V15.1875C11.25 14.6797 10.8203 14.25 10.3125 14.25H8.4375C7.89062 14.25 7.5 14.6797 7.5 15.1875C7.5 15.7344 7.89062 16.125 8.4375 16.125H9.375V18.625H8.4375ZM10 10.5C9.29688 10.5 8.75 11.0859 8.75 11.75C8.75 12.4531 9.29688 13 10 13C10.6641 13 11.25 12.4531 11.25 11.75C11.25 11.0859 10.6641 10.5 10 10.5Z" fill="black" fill-opacity="0.72"/>
</g>
<defs>
<clipPath id="clip0_2556_17007">
<rect width="20" height="30" fill="white"/>
</clipPath>
</defs>
</svg>
