<svg width="21" height="36" viewBox="0 0 21 36" fill="none" xmlns="http://www.w3.org/2000/svg">
<g id="label-paired / xl / placeholder-xl / bold" clip-path="url(#clip0_2556_19912)">
<path id="icon" d="M4.125 7.5H4.875C5.48438 7.5 6 8.01562 6 8.625C6 9.28125 5.48438 9.75 4.875 9.75H4.125C3.04688 9.75 2.25 10.5938 2.25 11.625V12.375C2.25 13.0312 1.73438 13.5 1.125 13.5C0.46875 13.5 0 13.0312 0 12.375V11.625C0 9.375 1.82812 7.5 4.125 7.5ZM1.125 15C1.73438 15 2.25 15.5156 2.25 16.125V19.875C2.25 20.5312 1.73438 21 1.125 21C0.46875 21 0 20.5312 0 19.875V16.125C0 15.5156 0.46875 15 1.125 15ZM19.875 15C20.4844 15 21 15.5156 21 16.125V19.875C21 20.5312 20.4844 21 19.875 21C19.2188 21 18.75 20.5312 18.75 19.875V16.125C18.75 15.5156 19.2188 15 19.875 15ZM19.875 13.5C19.2188 13.5 18.75 13.0312 18.75 12.375V11.625C18.75 10.5938 17.9062 9.75 16.875 9.75H16.125C15.4688 9.75 15 9.28125 15 8.625C15 8.01562 15.4688 7.5 16.125 7.5H16.875C19.125 7.5 21 9.375 21 11.625V12.375C21 13.0312 20.4844 13.5 19.875 13.5ZM21 23.625V24.375C21 26.6719 19.125 28.5 16.875 28.5H16.125C15.4688 28.5 15 28.0312 15 27.375C15 26.7656 15.4688 26.25 16.125 26.25H16.875C17.9062 26.25 18.75 25.4531 18.75 24.375V23.625C18.75 23.0156 19.2188 22.5 19.875 22.5C20.4844 22.5 21 23.0156 21 23.625ZM2.25 23.625V24.375C2.25 25.4531 3.04688 26.25 4.125 26.25H4.875C5.48438 26.25 6 26.7656 6 27.375C6 28.0312 5.48438 28.5 4.875 28.5H4.125C1.82812 28.5 0 26.6719 0 24.375V23.625C0 23.0156 0.46875 22.5 1.125 22.5C1.73438 22.5 2.25 23.0156 2.25 23.625ZM8.625 28.5C7.96875 28.5 7.5 28.0312 7.5 27.375C7.5 26.7656 7.96875 26.25 8.625 26.25H12.375C12.9844 26.25 13.5 26.7656 13.5 27.375C13.5 28.0312 12.9844 28.5 12.375 28.5H8.625ZM7.5 8.625C7.5 8.01562 7.96875 7.5 8.625 7.5H12.375C12.9844 7.5 13.5 8.01562 13.5 8.625C13.5 9.28125 12.9844 9.75 12.375 9.75H8.625C7.96875 9.75 7.5 9.28125 7.5 8.625Z" fill="black" fill-opacity="0.72"/>
</g>
<defs>
<clipPath id="clip0_2556_19912">
<rect width="21" height="36" fill="white"/>
</clipPath>
</defs>
</svg>
