<svg width="14" height="22" viewBox="0 0 14 22" fill="none" xmlns="http://www.w3.org/2000/svg">
<g id="label-paired / sm / facebook-sm" clip-path="url(#clip0_2556_12235)">
<path id="icon" d="M14 10.75C14 14.332 11.293 17.2852 7.84766 17.7227V12.9102H9.73438L10.1172 10.75H7.84766V10.0117C7.84766 8.86328 8.28516 8.42578 9.43359 8.42578C9.78906 8.42578 10.0625 8.45312 10.2266 8.45312V6.53906C9.92578 6.42969 9.16016 6.34766 8.72266 6.34766C6.37109 6.34766 5.30469 7.46875 5.30469 9.84766V10.75H3.85547V12.9102H5.30469V17.5586C2.24219 16.793 0 14.0312 0 10.75C0 6.89453 3.11719 3.75 7 3.75C10.8555 3.75 14 6.89453 14 10.75Z" fill="black" fill-opacity="0.72"/>
</g>
<defs>
<clipPath id="clip0_2556_12235">
<rect width="14" height="22" fill="white"/>
</clipPath>
</defs>
</svg>
