<svg width="8" height="18" viewBox="0 0 8 18" fill="none" xmlns="http://www.w3.org/2000/svg">
<g id="label-paired / caption / sterling-sign-caption / bold" clip-path="url(#clip0_2556_10045)">
<path id="icon" d="M2.5 7.25V8.75H5.6875C5.99219 8.75 6.25 9.00781 6.25 9.3125C6.25 9.64062 5.99219 9.875 5.6875 9.875H2.5V11.375C2.5 11.9609 2.33594 12.5469 2.05469 13.0859L1.75 13.625H7.1875C7.49219 13.625 7.75 13.8828 7.75 14.1875C7.75 14.5156 7.49219 14.75 7.1875 14.75H0.8125C0.601562 14.75 0.414062 14.6562 0.320312 14.4922C0.226562 14.3047 0.203125 14.0938 0.296875 13.9297L1.07031 12.5469C1.25781 12.1719 1.375 11.7734 1.375 11.375V9.875H0.8125C0.484375 9.875 0.25 9.64062 0.25 9.3125C0.25 9.00781 0.484375 8.75 0.8125 8.75H1.375V7.25C1.375 5.58594 2.71094 4.25 4.35156 4.25C4.65625 4.25 4.98438 4.32031 5.28906 4.41406L7.16406 5.04688C7.46875 5.14062 7.63281 5.44531 7.51562 5.75C7.42188 6.05469 7.11719 6.19531 6.8125 6.10156L4.9375 5.49219C4.75 5.42188 4.53906 5.375 4.35156 5.375C3.32031 5.375 2.5 6.21875 2.5 7.25Z" fill="black" fill-opacity="0.72"/>
</g>
<defs>
<clipPath id="clip0_2556_10045">
<rect width="8" height="18" fill="white"/>
</clipPath>
</defs>
</svg>
