<svg width="14" height="24" viewBox="0 0 14 24" fill="none" xmlns="http://www.w3.org/2000/svg">
<g id="label-paired / md / user-md / fill" clip-path="url(#clip0_2556_14712)">
<path id="icon" d="M7 12C5.5625 12 4.25 11.25 3.53125 10C2.8125 8.78125 2.8125 7.25 3.53125 6C4.25 4.78125 5.5625 4 7 4C8.40625 4 9.71875 4.78125 10.4375 6C11.1562 7.25 11.1562 8.78125 10.4375 10C9.71875 11.25 8.40625 12 7 12ZM5.5625 13.5H8.40625C11.5 13.5 14 16 14 19.0938C14 19.5938 13.5625 20 13.0625 20H0.90625C0.40625 20 0 19.5938 0 19.0938C0 16 2.46875 13.5 5.5625 13.5Z" fill="black" fill-opacity="0.72"/>
</g>
<defs>
<clipPath id="clip0_2556_14712">
<rect width="14" height="24" fill="white"/>
</clipPath>
</defs>
</svg>
