<svg width="11" height="22" viewBox="0 0 11 22" fill="none" xmlns="http://www.w3.org/2000/svg">
<g id="label-paired / sm / play-sm / regular" clip-path="url(#clip0_2556_12624)">
<path id="icon" d="M1.78125 5.58203C1.64453 5.5 1.48047 5.5 1.34375 5.55469C1.20703 5.63672 1.09766 5.80078 1.09766 5.9375V15.5625C1.09766 15.7266 1.20703 15.8906 1.34375 15.9453C1.48047 16.0273 1.64453 16.0273 1.78125 15.9453L9.65625 11.1328C9.79297 11.0508 9.875 10.9141 9.875 10.75C9.875 10.6133 9.79297 10.4766 9.65625 10.3945L1.78125 5.58203ZM0.90625 4.81641C1.31641 4.57031 1.83594 4.57031 2.24609 4.81641L10.1211 9.62891C10.5039 9.875 10.75 10.3125 10.75 10.75C10.75 11.2148 10.5039 11.6523 10.1211 11.8711L2.24609 16.6836C1.83594 16.957 1.31641 16.957 0.90625 16.7109C0.496094 16.4922 0.25 16.0547 0.25 15.5625V5.9375C0.25 5.47266 0.496094 5.03516 0.90625 4.81641Z" fill="black" fill-opacity="0.72"/>
</g>
<defs>
<clipPath id="clip0_2556_12624">
<rect width="11" height="22" fill="white"/>
</clipPath>
</defs>
</svg>
