<svg width="14" height="24" viewBox="0 0 14 24" fill="none" xmlns="http://www.w3.org/2000/svg">
<g id="label-paired / md / paperclip-md / regular" clip-path="url(#clip0_2981_815)">
<path id="icon" d="M11.875 6.125C10.9688 5.21875 9.5 5.21875 8.59375 6.125L2.59375 12.125C1.125 13.5938 1.125 15.9375 2.59375 17.4062C4.0625 18.875 6.40625 18.875 7.875 17.4062L12.625 12.6562C12.8125 12.4688 13.1562 12.4688 13.3438 12.6562C13.5312 12.8438 13.5312 13.1875 13.3438 13.375L8.59375 18.125C6.75 19.9688 3.71875 19.9688 1.875 18.125C0.03125 16.25 0.03125 13.25 1.875 11.4062L7.875 5.40625C9.1875 4.125 11.2812 4.125 12.5938 5.40625C13.875 6.71875 13.875 8.8125 12.5938 10.125L6.84375 15.875C5.96875 16.75 4.5 16.6562 3.71875 15.6875C3.0625 14.8438 3.125 13.6562 3.875 12.9062L8.625 8.15625C8.8125 7.96875 9.15625 7.96875 9.34375 8.15625C9.53125 8.34375 9.53125 8.6875 9.34375 8.875L4.59375 13.625C4.1875 14 4.15625 14.625 4.5 15.0625C4.90625 15.5625 5.6875 15.625 6.125 15.1562L11.875 9.40625C12.7812 8.5 12.7812 7.03125 11.875 6.125Z" fill="black" fill-opacity="0.72"/>
</g>
<defs>
<clipPath id="clip0_2981_815">
<rect width="14" height="24" fill="white"/>
</clipPath>
</defs>
</svg>
