<svg width="16" height="24" viewBox="0 0 16 24" fill="none" xmlns="http://www.w3.org/2000/svg">
<g id="label-paired / md / grid-2-md / regular" clip-path="url(#clip0_2556_15198)">
<path id="icon" d="M2.5 6C2.21875 6 2 6.25 2 6.5V9.5C2 9.78125 2.21875 10 2.5 10H5.5C5.75 10 6 9.78125 6 9.5V6.5C6 6.25 5.75 6 5.5 6H2.5ZM1 6.5C1 5.6875 1.65625 5 2.5 5H5.5C6.3125 5 7 5.6875 7 6.5V9.5C7 10.3438 6.3125 11 5.5 11H2.5C1.65625 11 1 10.3438 1 9.5V6.5ZM2.5 14C2.21875 14 2 14.25 2 14.5V17.5C2 17.7812 2.21875 18 2.5 18H5.5C5.75 18 6 17.7812 6 17.5V14.5C6 14.25 5.75 14 5.5 14H2.5ZM1 14.5C1 13.6875 1.65625 13 2.5 13H5.5C6.3125 13 7 13.6875 7 14.5V17.5C7 18.3438 6.3125 19 5.5 19H2.5C1.65625 19 1 18.3438 1 17.5V14.5ZM13.5 6H10.5C10.2188 6 10 6.25 10 6.5V9.5C10 9.78125 10.2188 10 10.5 10H13.5C13.75 10 14 9.78125 14 9.5V6.5C14 6.25 13.75 6 13.5 6ZM10.5 5H13.5C14.3125 5 15 5.6875 15 6.5V9.5C15 10.3438 14.3125 11 13.5 11H10.5C9.65625 11 9 10.3438 9 9.5V6.5C9 5.6875 9.65625 5 10.5 5ZM10.5 14C10.2188 14 10 14.25 10 14.5V17.5C10 17.7812 10.2188 18 10.5 18H13.5C13.75 18 14 17.7812 14 17.5V14.5C14 14.25 13.75 14 13.5 14H10.5ZM9 14.5C9 13.6875 9.65625 13 10.5 13H13.5C14.3125 13 15 13.6875 15 14.5V17.5C15 18.3438 14.3125 19 13.5 19H10.5C9.65625 19 9 18.3438 9 17.5V14.5Z" fill="black" fill-opacity="0.72"/>
</g>
<defs>
<clipPath id="clip0_2556_15198">
<rect width="16" height="24" fill="white"/>
</clipPath>
</defs>
</svg>
