<svg width="10" height="24" viewBox="0 0 10 24" fill="none" xmlns="http://www.w3.org/2000/svg">
<g id="label-paired / md / question-md / bold" clip-path="url(#clip0_3578_649)">
<path id="icon" d="M2 9C2 9.4375 1.65625 9.75 1.25 9.75C0.8125 9.75 0.5 9.4375 0.5 9C0.5 6.8125 2.28125 5 4.46875 5.03125H5.46875C7.6875 5.03125 9.46875 6.8125 9.46875 9.03125V9.15625C9.46875 10.4062 8.84375 11.5938 7.8125 12.2812L6.1875 13.375C5.90625 13.5625 5.75 13.875 5.75 14.1875V14.25C5.75 14.6875 5.40625 15 5 15C4.5625 15 4.25 14.6875 4.25 14.25V14.1875C4.25 13.375 4.65625 12.5938 5.34375 12.125L6.96875 11.0312C7.625 10.625 8 9.90625 8 9.15625V9C8 7.625 6.875 6.5 5.5 6.5H4.5C3.09375 6.5 2 7.625 2 9ZM5 19C4.4375 19 4 18.5625 4 18C4 17.4688 4.4375 17 5 17C5.53125 17 6 17.4688 6 18C6 18.5625 5.53125 19 5 19Z" fill="black" fill-opacity="0.72"/>
</g>
<defs>
<clipPath id="clip0_3578_649">
<rect width="10" height="24" fill="white"/>
</clipPath>
</defs>
</svg>
