<svg width="24" height="36" viewBox="0 0 24 36" fill="none" xmlns="http://www.w3.org/2000/svg">
<g id="label-paired / xl / sparkles-xl / regular" clip-path="url(#clip0_5090_480)">
<path id="icon" d="M20.25 7.5C20.625 7.5 21 7.875 21 8.25V10.5H23.25C23.625 10.5 24 10.875 24 11.25C24 11.6719 23.625 12 23.25 12H21V14.25C21 14.6719 20.625 15 20.25 15C19.8281 15 19.5 14.6719 19.5 14.25V12H17.25C16.8281 12 16.5 11.6719 16.5 11.25C16.5 10.875 16.8281 10.5 17.25 10.5H19.5V8.25C19.5 7.875 19.8281 7.5 20.25 7.5ZM20.25 21C20.625 21 21 21.375 21 21.75V24H23.25C23.625 24 24 24.375 24 24.75C24 25.1719 23.625 25.5 23.25 25.5H21V27.75C21 28.1719 20.625 28.5 20.25 28.5C19.8281 28.5 19.5 28.1719 19.5 27.75V25.5H17.25C16.8281 25.5 16.5 25.1719 16.5 24.75C16.5 24.375 16.8281 24 17.25 24H19.5V21.75C19.5 21.375 19.8281 21 20.25 21ZM6.375 16.1719L2.53125 17.9531L6.375 19.7344C6.70312 19.875 6.98438 20.1562 7.125 20.4844L8.90625 24.3281L10.6875 20.4844C10.8281 20.1562 11.1094 19.875 11.4375 19.7344L15.2812 17.9531L11.4375 16.1719C11.1094 16.0312 10.8281 15.75 10.6875 15.4219L8.90625 11.5781L7.125 15.4219C6.98438 15.75 6.70312 16.0312 6.375 16.1719ZM5.76562 21.0938L0.421875 18.6562C0.140625 18.5156 0 18.2344 0 17.9531C0 17.6719 0.140625 17.3906 0.421875 17.2969L5.76562 14.8125L8.25 9.46875C8.34375 9.1875 8.625 9 8.90625 9C9.1875 9 9.46875 9.1875 9.60938 9.46875L12.0469 14.8125L17.3906 17.25C17.6719 17.3906 17.8594 17.6719 17.8594 17.9531C17.8594 18.2344 17.6719 18.5156 17.3906 18.6094L12.0469 21.0938L9.60938 26.4375C9.46875 26.7188 9.1875 26.9062 8.90625 26.9062C8.625 26.9062 8.34375 26.7188 8.25 26.4375L5.76562 21.0938Z" fill="black" fill-opacity="0.72"/>
</g>
<defs>
<clipPath id="clip0_5090_480">
<rect width="24" height="36" fill="white"/>
</clipPath>
</defs>
</svg>
