<svg width="24" height="36" viewBox="0 0 24 36" fill="none" xmlns="http://www.w3.org/2000/svg">
<g id="label-paired / xl / clone-xl / regular" clip-path="url(#clip0_2556_19929)">
<path id="icon" d="M3 28.5H13.5C14.2969 28.5 15 27.8438 15 27V24H16.5V27C16.5 28.6875 15.1406 30 13.5 30H3C1.3125 30 0 28.6875 0 27V16.5C0 14.8594 1.3125 13.5 3 13.5H6V15H3C2.15625 15 1.5 15.7031 1.5 16.5V27C1.5 27.8438 2.15625 28.5 3 28.5ZM10.5 21H21C21.7969 21 22.5 20.3438 22.5 19.5V9C22.5 8.20312 21.7969 7.5 21 7.5H10.5C9.65625 7.5 9 8.20312 9 9V19.5C9 20.3438 9.65625 21 10.5 21ZM7.5 19.5V9C7.5 7.35938 8.8125 6 10.5 6H21C22.6406 6 24 7.35938 24 9V19.5C24 21.1875 22.6406 22.5 21 22.5H10.5C8.8125 22.5 7.5 21.1875 7.5 19.5Z" fill="black" fill-opacity="0.72"/>
</g>
<defs>
<clipPath id="clip0_2556_19929">
<rect width="24" height="36" fill="white"/>
</clipPath>
</defs>
</svg>
