<svg width="12" height="18" viewBox="0 0 12 18" fill="none" xmlns="http://www.w3.org/2000/svg">
<g id="label-paired / caption / circle-two-caption / bold" clip-path="url(#clip0_2556_10367)">
<path id="icon" d="M6 4.625C4.24219 4.625 2.64844 5.5625 1.75781 7.0625C0.890625 8.58594 0.890625 10.4375 1.75781 11.9375C2.64844 13.4609 4.24219 14.375 6 14.375C7.73438 14.375 9.32812 13.4609 10.2188 11.9375C11.0859 10.4375 11.0859 8.58594 10.2188 7.0625C9.32812 5.5625 7.73438 4.625 6 4.625ZM6 15.5C3.84375 15.5 1.875 14.375 0.796875 12.5C-0.28125 10.6484 -0.28125 8.375 0.796875 6.5C1.875 4.64844 3.84375 3.5 6 3.5C8.13281 3.5 10.1016 4.64844 11.1797 6.5C12.2578 8.375 12.2578 10.6484 11.1797 12.5C10.1016 14.375 8.13281 15.5 6 15.5ZM5.20312 7.83594L4.64062 8.25781C4.40625 8.44531 4.05469 8.39844 3.86719 8.16406C3.65625 7.90625 3.72656 7.55469 3.96094 7.36719L4.52344 6.94531C4.89844 6.66406 5.34375 6.5 5.8125 6.52344H5.90625C6.98438 6.54688 7.875 7.41406 7.875 8.51562C7.875 9.05469 7.64062 9.59375 7.24219 9.96875L5.71875 11.375H7.6875C7.99219 11.375 8.25 11.6328 8.25 11.9375C8.25 12.2656 7.99219 12.5 7.6875 12.5H4.3125C4.07812 12.5 3.86719 12.3594 3.77344 12.1484C3.70312 11.9375 3.75 11.7031 3.91406 11.5391L6.46875 9.14844C6.63281 8.98438 6.75 8.75 6.75 8.51562C6.75 8.04688 6.35156 7.64844 5.88281 7.64844H5.8125C5.57812 7.64844 5.36719 7.71875 5.20312 7.83594Z" fill="black" fill-opacity="0.72"/>
</g>
<defs>
<clipPath id="clip0_2556_10367">
<rect width="12" height="18" fill="white"/>
</clipPath>
</defs>
</svg>
