<svg width="20" height="30" viewBox="0 0 20 30" fill="none" xmlns="http://www.w3.org/2000/svg">
<g id="label-paired / lg / circle-five-lg / fill" clip-path="url(#clip0_2556_17639)">
<path id="icon" d="M10 25.5C6.40625 25.5 3.125 23.625 1.32812 20.5C-0.46875 17.4141 -0.46875 13.625 1.32812 10.5C3.125 7.41406 6.40625 5.5 10 5.5C13.5547 5.5 16.8359 7.41406 18.6328 10.5C20.4297 13.625 20.4297 17.4141 18.6328 20.5C16.8359 23.625 13.5547 25.5 10 25.5ZM8.125 10.5H8.08594C7.65625 10.5 7.26562 10.8516 7.1875 11.2812L6.5625 14.7188C6.52344 14.9922 6.5625 15.2266 6.71875 15.4609C6.875 15.6562 7.10938 15.7734 7.38281 15.8125L10.7812 16.2031C11.4062 16.2812 11.875 16.7891 11.875 17.4141C11.875 18.0781 11.3281 18.625 10.625 18.625H9.21875C8.78906 18.625 8.35938 18.4297 8.08594 18.0391L7.92969 17.8047C7.65625 17.375 7.07031 17.2578 6.64062 17.5312C6.21094 17.8438 6.09375 18.4297 6.40625 18.8594L6.5625 19.0938C7.14844 19.9922 8.16406 20.5 9.21875 20.5H10.625C12.3438 20.5 13.75 19.1328 13.75 17.4141C13.75 15.8516 12.5391 14.5234 10.9766 14.3281L8.59375 14.0547L8.90625 12.375H12.1875C12.6953 12.375 13.125 11.9844 13.125 11.4375C13.125 10.9297 12.6953 10.5 12.1875 10.5H8.125Z" fill="black" fill-opacity="0.72"/>
</g>
<defs>
<clipPath id="clip0_2556_17639">
<rect width="20" height="30" fill="white"/>
</clipPath>
</defs>
</svg>
