<svg width="11" height="18" viewBox="0 0 11 18" fill="none" xmlns="http://www.w3.org/2000/svg">
<g id="label-paired / caption / bars-caption / regular" clip-path="url(#clip0_2556_10620)">
<path id="icon" d="M0.25 5.375C0.25 5.1875 0.414062 5 0.625 5H10.375C10.5625 5 10.75 5.1875 10.75 5.375C10.75 5.58594 10.5625 5.75 10.375 5.75H0.625C0.414062 5.75 0.25 5.58594 0.25 5.375ZM0.25 9.125C0.25 8.9375 0.414062 8.75 0.625 8.75H10.375C10.5625 8.75 10.75 8.9375 10.75 9.125C10.75 9.33594 10.5625 9.5 10.375 9.5H0.625C0.414062 9.5 0.25 9.33594 0.25 9.125ZM10.75 12.875C10.75 13.0859 10.5625 13.25 10.375 13.25H0.625C0.414062 13.25 0.25 13.0859 0.25 12.875C0.25 12.6875 0.414062 12.5 0.625 12.5H10.375C10.5625 12.5 10.75 12.6875 10.75 12.875Z" fill="black" fill-opacity="0.72"/>
</g>
<defs>
<clipPath id="clip0_2556_10620">
<rect width="11" height="18" fill="white"/>
</clipPath>
</defs>
</svg>
