<svg width="12" height="24" viewBox="0 0 12 24" fill="none" xmlns="http://www.w3.org/2000/svg">
<g id="label-paired / md / microphone-md / fill" clip-path="url(#clip0_2556_14684)">
<path id="icon" d="M6 4C7.65625 4 9 5.34375 9 7V12C9 13.6562 7.65625 15 6 15C4.34375 15 3 13.6562 3 12V7C3 5.34375 4.34375 4 6 4ZM2 10.75V12C2 14.2188 3.78125 16 6 16C8.1875 16 10 14.2188 10 12V10.75C10 10.3438 10.3125 10 10.75 10C11.1562 10 11.5 10.3438 11.5 10.75V12C11.5 14.8125 9.40625 17.0938 6.75 17.4688V18.5H8.25C8.65625 18.5 9 18.8438 9 19.25C9 19.6875 8.65625 20 8.25 20H6H3.75C3.3125 20 3 19.6875 3 19.25C3 18.8438 3.3125 18.5 3.75 18.5H5.25V17.4688C2.5625 17.0938 0.5 14.8125 0.5 12V10.75C0.5 10.3438 0.8125 10 1.25 10C1.65625 10 2 10.3438 2 10.75Z" fill="black" fill-opacity="0.72"/>
</g>
<defs>
<clipPath id="clip0_2556_14684">
<rect width="12" height="24" fill="white"/>
</clipPath>
</defs>
</svg>
