<svg width="15" height="30" viewBox="0 0 15 30" fill="none" xmlns="http://www.w3.org/2000/svg">
<g id="label-paired / lg / lightbulb-lg / regular" clip-path="url(#clip0_2556_17091)">
<path id="icon" d="M12.1094 15.6172C12.7344 14.6797 13.125 13.5859 13.125 12.375C13.125 9.28906 10.5859 6.75 7.5 6.75C4.375 6.75 1.875 9.28906 1.875 12.375C1.875 13.5859 2.22656 14.6797 2.85156 15.6172C3.00781 15.8125 3.20312 16.0859 3.39844 16.3594C3.90625 17.0234 4.45312 17.8047 4.88281 18.5859C5.23438 19.2109 5.42969 19.875 5.50781 20.5391H4.25781C4.14062 20.0703 4.02344 19.6016 3.78906 19.1719C3.39844 18.4688 2.92969 17.8047 2.42188 17.1406C2.22656 16.8672 2.03125 16.5938 1.83594 16.3203C1.05469 15.1875 0.625 13.8594 0.625 12.375C0.625 8.58594 3.67188 5.5 7.5 5.5C11.2891 5.5 14.375 8.58594 14.375 12.375C14.375 13.8594 13.9062 15.1875 13.125 16.3203C12.9297 16.5938 12.7344 16.8672 12.5391 17.1406C12.0312 17.8047 11.5625 18.4688 11.1719 19.1719C10.9375 19.6016 10.8203 20.0312 10.7031 20.5H9.45312C9.57031 19.875 9.72656 19.2109 10.0781 18.5859C10.5078 17.8047 11.0938 17.0234 11.5625 16.3203C11.7578 16.0859 11.9531 15.8125 12.1094 15.5781V15.6172ZM7.5 9.25C5.74219 9.25 4.375 10.6562 4.375 12.375C4.375 12.7266 4.0625 13 3.75 13C3.39844 13 3.125 12.7266 3.125 12.375C3.125 9.99219 5.07812 8 7.5 8C7.8125 8 8.125 8.3125 8.125 8.625C8.125 8.97656 7.8125 9.25 7.5 9.25ZM5.70312 23C5.97656 23.7422 6.67969 24.25 7.5 24.25C8.28125 24.25 8.98438 23.7422 9.25781 23H5.70312ZM4.375 22.375V22.1797C4.375 21.9453 4.53125 21.75 4.76562 21.75H10.1953C10.4297 21.75 10.625 21.9453 10.625 22.1797V22.375C10.625 24.1328 9.21875 25.5 7.5 25.5C5.74219 25.5 4.375 24.1328 4.375 22.375Z" fill="black" fill-opacity="0.72"/>
</g>
<defs>
<clipPath id="clip0_2556_17091">
<rect width="15" height="30" fill="white"/>
</clipPath>
</defs>
</svg>
