<svg width="24" height="36" viewBox="0 0 24 36" fill="none" xmlns="http://www.w3.org/2000/svg">
<g id="label-paired / xl / circle-six-xl / bold" clip-path="url(#clip0_2556_19889)">
<path id="icon" d="M21.75 18C21.75 14.5312 19.875 11.3438 16.875 9.5625C13.8281 7.82812 10.125 7.82812 7.125 9.5625C4.07812 11.3438 2.25 14.5312 2.25 18C2.25 21.5156 4.07812 24.7031 7.125 26.4844C10.125 28.2188 13.8281 28.2188 16.875 26.4844C19.875 24.7031 21.75 21.5156 21.75 18ZM0 18C0 13.7344 2.25 9.79688 6 7.64062C9.70312 5.48438 14.25 5.48438 18 7.64062C21.7031 9.79688 24 13.7344 24 18C24 22.3125 21.7031 26.25 18 28.4062C14.25 30.5625 9.70312 30.5625 6 28.4062C2.25 26.25 0 22.3125 0 18ZM12 21.75C12.7969 21.75 13.5 21.3281 13.9219 20.625C14.3438 19.9688 14.3438 19.0781 13.9219 18.375C13.5 17.7188 12.7969 17.25 12 17.25C11.1562 17.25 10.4531 17.7188 10.0312 18.375C9.60938 19.0781 9.60938 19.9688 10.0312 20.625C10.4531 21.3281 11.1562 21.75 12 21.75ZM7.5 19.5C7.5 18 8.15625 16.5469 9.28125 15.5625L13.125 12.2812C13.5938 11.9062 14.2969 11.9531 14.7188 12.4219C15.0938 12.8906 15.0469 13.5938 14.5781 14.0156L13.2188 15.1875C15.0938 15.7031 16.5 17.4375 16.5 19.5C16.5 21.9844 14.4844 24 12 24C9.51562 24 7.5 21.9844 7.5 19.5Z" fill="black" fill-opacity="0.72"/>
</g>
<defs>
<clipPath id="clip0_2556_19889">
<rect width="24" height="36" fill="white"/>
</clipPath>
</defs>
</svg>
