<svg width="18" height="24" viewBox="0 0 18 24" fill="none" xmlns="http://www.w3.org/2000/svg">
<g id="label-paired / md / star-md / bold" clip-path="url(#clip0_2556_14990)">
<path id="icon" d="M8.96875 4C9.28125 4 9.53125 4.1875 9.65625 4.4375L11.8125 8.84375L16.5938 9.5625C16.875 9.59375 17.0938 9.78125 17.1875 10.0625C17.2812 10.3438 17.2188 10.625 17 10.8438L13.5312 14.2812L14.3438 19.125C14.4062 19.4062 14.2812 19.7188 14.0625 19.875C13.8125 20.0312 13.5 20.0625 13.25 19.9375L8.96875 17.625L4.71875 19.9375C4.4375 20.0625 4.15625 20.0312 3.90625 19.875C3.6875 19.6875 3.5625 19.4062 3.625 19.125L4.4375 14.2812L0.96875 10.8438C0.75 10.625 0.6875 10.3438 0.78125 10.0625C0.875 9.8125 1.09375 9.59375 1.375 9.5625L6.15625 8.84375L8.3125 4.4375C8.4375 4.1875 8.6875 4 8.96875 4ZM8.96875 6.46875L7.34375 9.875C7.21875 10.0938 7.03125 10.25 6.78125 10.2812L3.09375 10.8125L5.75 13.4688C5.9375 13.6562 6.03125 13.9062 5.96875 14.125L5.34375 17.875L8.625 16.125C8.84375 16 9.125 16 9.34375 16.125L12.625 17.875L12 14.1562C11.9375 13.9062 12.0312 13.6562 12.2188 13.5L14.875 10.8125L11.1875 10.2812C10.9375 10.25 10.75 10.0938 10.625 9.875L8.96875 6.46875Z" fill="black" fill-opacity="0.72"/>
</g>
<defs>
<clipPath id="clip0_2556_14990">
<rect width="18" height="24" fill="white"/>
</clipPath>
</defs>
</svg>
