<svg width="10" height="24" viewBox="0 0 10 24" fill="none" xmlns="http://www.w3.org/2000/svg">
<g id="label-paired / md / eight-md / regular" clip-path="url(#clip0_2556_14824)">
<path id="icon" d="M9.5 8.75C9.5 10.0625 8.84375 11.1875 7.84375 11.875C9.09375 12.4688 10 13.75 10 15.25C10 17.3438 8.3125 19 6.25 19H3.75C1.65625 19 0 17.3438 0 15.25C0 13.75 0.875 12.4688 2.125 11.875C1.125 11.1875 0.5 10.0625 0.5 8.75C0.5 6.6875 2.15625 5 4.25 5H5.75C7.8125 5 9.5 6.6875 9.5 8.75ZM5.75 12.5H4.25H4.21875H3.75C2.21875 12.5 1 13.75 1 15.25C1 16.7812 2.21875 18 3.75 18H6.25C7.75 18 9 16.7812 9 15.25C9 13.75 7.75 12.5 6.25 12.5H5.75ZM5.75 11.5C7.25 11.5 8.5 10.2812 8.5 8.75C8.5 7.25 7.25 6 5.75 6H4.25C2.71875 6 1.5 7.25 1.5 8.75C1.5 10.2812 2.71875 11.5 4.21875 11.5C4.25 11.5 4.25 11.5 4.25 11.5H5.75Z" fill="black" fill-opacity="0.72"/>
</g>
<defs>
<clipPath id="clip0_2556_14824">
<rect width="10" height="24" fill="white"/>
</clipPath>
</defs>
</svg>
