<svg width="14" height="22" viewBox="0 0 14 22" fill="none" xmlns="http://www.w3.org/2000/svg">
<g id="label-paired / sm / circle-plus-sm / regular" clip-path="url(#clip0_2556_12938)">
<path id="icon" d="M7 4.625C4.78516 4.625 2.78906 5.80078 1.69531 7.6875C0.574219 9.60156 0.574219 11.9258 1.69531 13.8125C2.78906 15.7266 4.78516 16.875 7 16.875C9.1875 16.875 11.1836 15.7266 12.2773 13.8125C13.3984 11.9258 13.3984 9.60156 12.2773 7.6875C11.1836 5.80078 9.1875 4.625 7 4.625ZM7 17.75C4.48438 17.75 2.1875 16.4375 0.929688 14.25C-0.328125 12.0898 -0.328125 9.4375 0.929688 7.25C2.1875 5.08984 4.48438 3.75 7 3.75C9.48828 3.75 11.7852 5.08984 13.043 7.25C14.3008 9.4375 14.3008 12.0898 13.043 14.25C11.7852 16.4375 9.48828 17.75 7 17.75ZM6.5625 13.375V11.1875H4.375C4.12891 11.1875 3.9375 10.9961 3.9375 10.75C3.9375 10.5312 4.12891 10.3125 4.375 10.3125H6.5625V8.125C6.5625 7.90625 6.75391 7.6875 7 7.6875C7.21875 7.6875 7.4375 7.90625 7.4375 8.125V10.3125H9.625C9.84375 10.3125 10.0625 10.5312 10.0625 10.75C10.0625 10.9961 9.84375 11.1875 9.625 11.1875H7.4375V13.375C7.4375 13.6211 7.21875 13.8125 7 13.8125C6.75391 13.8125 6.5625 13.6211 6.5625 13.375Z" fill="black" fill-opacity="0.72"/>
</g>
<defs>
<clipPath id="clip0_2556_12938">
<rect width="14" height="22" fill="white"/>
</clipPath>
</defs>
</svg>
