<svg width="14" height="24" viewBox="0 0 14 24" fill="none" xmlns="http://www.w3.org/2000/svg">
<g id="label-paired / md / qrcode-md / regular" clip-path="url(#clip0_2556_14600)">
<path id="icon" d="M4.5 6H1.5C1.21875 6 1 6.25 1 6.5V9.5C1 9.78125 1.21875 10 1.5 10H4.5C4.75 10 5 9.78125 5 9.5V6.5C5 6.25 4.75 6 4.5 6ZM1.5 5H4.5C5.3125 5 6 5.6875 6 6.5V9.5C6 10.3438 5.3125 11 4.5 11H1.5C0.65625 11 0 10.3438 0 9.5V6.5C0 5.6875 0.65625 5 1.5 5ZM4.5 14H1.5C1.21875 14 1 14.25 1 14.5V17.5C1 17.7812 1.21875 18 1.5 18H4.5C4.75 18 5 17.7812 5 17.5V14.5C5 14.25 4.75 14 4.5 14ZM1.5 13H4.5C5.3125 13 6 13.6875 6 14.5V17.5C6 18.3438 5.3125 19 4.5 19H1.5C0.65625 19 0 18.3438 0 17.5V14.5C0 13.6875 0.65625 13 1.5 13ZM9.5 6C9.21875 6 9 6.25 9 6.5V9.5C9 9.78125 9.21875 10 9.5 10H12.5C12.75 10 13 9.78125 13 9.5V6.5C13 6.25 12.75 6 12.5 6H9.5ZM8 6.5C8 5.6875 8.65625 5 9.5 5H12.5C13.3125 5 14 5.6875 14 6.5V9.5C14 10.3438 13.3125 11 12.5 11H9.5C8.65625 11 8 10.3438 8 9.5V6.5ZM8 13.5C8 13.25 8.21875 13 8.5 13H10.5C10.75 13 11 13.25 11 13.5V15.625H13V13.5C13 13.25 13.2188 13 13.5 13C13.75 13 14 13.25 14 13.5V16.125C14 16.4062 13.75 16.625 13.5 16.625H10.5C10.2188 16.625 10 16.4062 10 16.125V14H9V18.75C9 19.0312 8.75 19.25 8.5 19.25C8.21875 19.25 8 19.0312 8 18.75V13.5ZM2.75 7.25H3.25C3.5 7.25 3.75 7.5 3.75 7.75V8.25C3.75 8.53125 3.5 8.75 3.25 8.75H2.75C2.46875 8.75 2.25 8.53125 2.25 8.25V7.75C2.25 7.5 2.46875 7.25 2.75 7.25ZM2.25 15.75C2.25 15.5 2.46875 15.25 2.75 15.25H3.25C3.5 15.25 3.75 15.5 3.75 15.75V16.25C3.75 16.5312 3.5 16.75 3.25 16.75H2.75C2.46875 16.75 2.25 16.5312 2.25 16.25V15.75ZM10.75 7.25H11.25C11.5 7.25 11.75 7.5 11.75 7.75V8.25C11.75 8.53125 11.5 8.75 11.25 8.75H10.75C10.4688 8.75 10.25 8.53125 10.25 8.25V7.75C10.25 7.5 10.4688 7.25 10.75 7.25ZM10 18C10 17.75 10.2188 17.5 10.5 17.5H11C11.25 17.5 11.5 17.75 11.5 18V18.5C11.5 18.7812 11.25 19 11 19H10.5C10.2188 19 10 18.7812 10 18.5V18ZM13 17.5H13.5C13.75 17.5 14 17.75 14 18V18.5C14 18.7812 13.75 19 13.5 19H13C12.7188 19 12.5 18.7812 12.5 18.5V18C12.5 17.75 12.7188 17.5 13 17.5Z" fill="black" fill-opacity="0.72"/>
</g>
<defs>
<clipPath id="clip0_2556_14600">
<rect width="14" height="24" fill="white"/>
</clipPath>
</defs>
</svg>
