<svg width="9" height="22" viewBox="0 0 9 22" fill="none" xmlns="http://www.w3.org/2000/svg">
<g id="label-paired / sm / eight-sm / fill" clip-path="url(#clip0_2556_12985)">
<path id="icon" d="M8.4375 8.125C8.4375 9.08203 8.05469 9.92969 7.45312 10.5586C8.30078 11.2148 8.875 12.2266 8.875 13.375C8.875 15.3164 7.28906 16.875 5.375 16.875H3.625C1.68359 16.875 0.125 15.3164 0.125 13.375C0.125 12.2266 0.671875 11.2148 1.54688 10.5586C0.917969 9.92969 0.5625 9.08203 0.5625 8.125C0.5625 6.21094 2.12109 4.625 4.0625 4.625H4.9375C6.85156 4.625 8.4375 6.21094 8.4375 8.125ZM4.9375 11.625H4.0625H4.03516H3.625C2.64062 11.625 1.875 12.418 1.875 13.375C1.875 14.3594 2.64062 15.125 3.625 15.125H5.375C6.33203 15.125 7.125 14.3594 7.125 13.375C7.125 12.418 6.33203 11.625 5.375 11.625H4.9375ZM4.9375 9.875C5.89453 9.875 6.6875 9.10938 6.6875 8.125C6.6875 7.16797 5.89453 6.375 4.9375 6.375H4.0625C3.07812 6.375 2.3125 7.16797 2.3125 8.125C2.3125 9.10938 3.07812 9.875 4.0625 9.875H4.9375Z" fill="black" fill-opacity="0.72"/>
</g>
<defs>
<clipPath id="clip0_2556_12985">
<rect width="9" height="22" fill="white"/>
</clipPath>
</defs>
</svg>
