<svg width="27" height="36" viewBox="0 0 27 36" fill="none" xmlns="http://www.w3.org/2000/svg">
<g id="label-paired / xl / mobile-notch-rotate-xl / regular" clip-path="url(#clip0_2556_19707)">
<path id="icon" d="M1.5 9C1.5 7.35938 2.8125 6 4.5 6H13.5C15.1406 6 16.5 7.35938 16.5 9V15.9375C16.3594 15.9844 16.2656 16.0312 16.1719 16.0781C15.8906 15.6562 15.4688 15.3281 15 15.1406V9C15 8.20312 14.2969 7.5 13.5 7.5H12V8.25C12 9.09375 11.2969 9.75 10.5 9.75H7.5C6.65625 9.75 6 9.09375 6 8.25V7.5H4.5C3.65625 7.5 3 8.20312 3 9V27C3 27.8438 3.65625 28.5 4.5 28.5H13.5C13.5938 28.5 13.7344 28.5 13.8281 28.5C14.1562 28.875 14.5312 29.2969 14.9531 29.625C14.5312 29.8594 14.0156 30 13.4531 30H4.5C2.8125 30 1.5 28.6875 1.5 27V9ZM7.5 7.5V8.25H10.5V7.5H7.5ZM13.5 17.25C13.5 16.875 13.8281 16.5 14.25 16.5C14.625 16.5 15 16.875 15 17.25V19.0312C16.2188 17.4844 18.0938 16.5 20.25 16.5C23.0625 16.5 25.5 18.2812 26.4844 20.7188C26.625 21.1406 26.4375 21.5625 26.0625 21.7031C25.6875 21.8906 25.2656 21.7031 25.0781 21.2812C24.3281 19.3594 22.4531 18 20.25 18C18.4688 18 16.875 18.8906 15.9375 20.25H18C18.375 20.25 18.75 20.625 18.75 21C18.75 21.4219 18.375 21.75 18 21.75H14.25C13.8281 21.75 13.5 21.4219 13.5 21V17.25ZM13.9688 25.7812C13.8281 25.4062 14.0156 24.9844 14.3906 24.8438C14.7656 24.6562 15.1875 24.8438 15.375 25.2188C16.125 27.1875 18.0469 28.5 20.25 28.5C22.0312 28.5 23.5781 27.6094 24.5156 26.25H22.5C22.0781 26.25 21.75 25.9219 21.75 25.5C21.75 25.125 22.0781 24.75 22.5 24.75H26.25C26.625 24.75 27 25.125 27 25.5V29.25C27 29.6719 26.625 30 26.25 30C25.8281 30 25.5 29.6719 25.5 29.25V27.5156C24.2344 29.0625 22.3594 30 20.25 30C17.3906 30 14.9531 28.2656 13.9688 25.7812Z" fill="black" fill-opacity="0.72"/>
</g>
<defs>
<clipPath id="clip0_2556_19707">
<rect width="27" height="36" fill="white"/>
</clipPath>
</defs>
</svg>
