<svg width="24" height="36" viewBox="0 0 24 36" fill="none" xmlns="http://www.w3.org/2000/svg">
<g id="label-paired / xl / wallet-xl / fill" clip-path="url(#clip0_2556_19414)">
<path id="icon" d="M3 7.5H21C21.7969 7.5 22.5 8.20312 22.5 9C22.5 9.84375 21.7969 10.5 21 10.5H3.75C3.32812 10.5 3 10.875 3 11.25C3 11.6719 3.32812 12 3.75 12H21C22.6406 12 24 13.3594 24 15V25.5C24 27.1875 22.6406 28.5 21 28.5H3C1.3125 28.5 0 27.1875 0 25.5V10.5C0 8.85938 1.3125 7.5 3 7.5ZM19.5 18.75C18.6562 18.75 18 19.4531 18 20.25C18 21.0938 18.6562 21.75 19.5 21.75C20.2969 21.75 21 21.0938 21 20.25C21 19.4531 20.2969 18.75 19.5 18.75Z" fill="black" fill-opacity="0.72"/>
</g>
<defs>
<clipPath id="clip0_2556_19414">
<rect width="24" height="36" fill="white"/>
</clipPath>
</defs>
</svg>
