<svg width="13" height="22" viewBox="0 0 13 22" fill="none" xmlns="http://www.w3.org/2000/svg">
<g id="label-paired / sm / ellipsis-sm / regular" clip-path="url(#clip0_2556_12805)">
<path id="icon" d="M11.75 10.75C11.75 11.2422 11.3398 11.625 10.875 11.625C10.3828 11.625 10 11.2422 10 10.75C10 10.2852 10.3828 9.875 10.875 9.875C11.3398 9.875 11.75 10.2852 11.75 10.75ZM7.375 10.75C7.375 11.2422 6.96484 11.625 6.5 11.625C6.00781 11.625 5.625 11.2422 5.625 10.75C5.625 10.2852 6.00781 9.875 6.5 9.875C6.96484 9.875 7.375 10.2852 7.375 10.75ZM2.125 11.625C1.63281 11.625 1.25 11.2422 1.25 10.75C1.25 10.2852 1.63281 9.875 2.125 9.875C2.58984 9.875 3 10.2852 3 10.75C3 11.2422 2.58984 11.625 2.125 11.625Z" fill="black" fill-opacity="0.72"/>
</g>
<defs>
<clipPath id="clip0_2556_12805">
<rect width="13" height="22" fill="white"/>
</clipPath>
</defs>
</svg>
