<svg width="11" height="18" viewBox="0 0 11 18" fill="none" xmlns="http://www.w3.org/2000/svg">
<g id="label-paired / caption / calendar-caption / bold" clip-path="url(#clip0_2556_10445)">
<path id="icon" d="M3.8125 4.0625V5H7.1875V4.0625C7.1875 3.75781 7.42188 3.5 7.75 3.5C8.05469 3.5 8.3125 3.75781 8.3125 4.0625V5H9.25C10.0703 5 10.75 5.67969 10.75 6.5V6.875V8V14C10.75 14.8438 10.0703 15.5 9.25 15.5H1.75C0.90625 15.5 0.25 14.8438 0.25 14V8V6.875V6.5C0.25 5.67969 0.90625 5 1.75 5H2.6875V4.0625C2.6875 3.75781 2.92188 3.5 3.25 3.5C3.55469 3.5 3.8125 3.75781 3.8125 4.0625ZM1.375 8V14C1.375 14.2109 1.53906 14.375 1.75 14.375H9.25C9.4375 14.375 9.625 14.2109 9.625 14V8H1.375Z" fill="black" fill-opacity="0.72"/>
</g>
<defs>
<clipPath id="clip0_2556_10445">
<rect width="11" height="18" fill="white"/>
</clipPath>
</defs>
</svg>
