<svg width="18" height="30" viewBox="0 0 18 30" fill="none" xmlns="http://www.w3.org/2000/svg">
<g id="label-paired / lg / tablet-screen-lg / bold" clip-path="url(#clip0_2556_17088)">
<path id="icon" d="M2.125 23C2.125 23.3516 2.39844 23.625 2.75 23.625H15.25C15.5625 23.625 15.875 23.3516 15.875 23V19.875H2.125V23ZM2.125 18H15.875V8C15.875 7.6875 15.5625 7.375 15.25 7.375H2.75C2.39844 7.375 2.125 7.6875 2.125 8V18ZM0.25 8C0.25 6.63281 1.34375 5.5 2.75 5.5H15.25C16.6172 5.5 17.75 6.63281 17.75 8V23C17.75 24.4062 16.6172 25.5 15.25 25.5H2.75C1.34375 25.5 0.25 24.4062 0.25 23V8ZM7.75 21.125H10.25C10.5625 21.125 10.875 21.4375 10.875 21.75C10.875 22.1016 10.5625 22.375 10.25 22.375H7.75C7.39844 22.375 7.125 22.1016 7.125 21.75C7.125 21.4375 7.39844 21.125 7.75 21.125Z" fill="black" fill-opacity="0.72"/>
</g>
<defs>
<clipPath id="clip0_2556_17088">
<rect width="18" height="30" fill="white"/>
</clipPath>
</defs>
</svg>
