<svg width="25" height="30" viewBox="0 0 25 30" fill="none" xmlns="http://www.w3.org/2000/svg">
<g id="label-paired / lg / users-lg / fill" clip-path="url(#clip0_2556_16941)">
<path id="icon" d="M5.625 5.5C6.71875 5.5 7.73438 6.125 8.32031 7.0625C8.86719 8.03906 8.86719 9.25 8.32031 10.1875C7.73438 11.1641 6.71875 11.75 5.625 11.75C4.49219 11.75 3.47656 11.1641 2.89062 10.1875C2.34375 9.25 2.34375 8.03906 2.89062 7.0625C3.47656 6.125 4.49219 5.5 5.625 5.5ZM20 5.5C21.0938 5.5 22.1094 6.125 22.6953 7.0625C23.2422 8.03906 23.2422 9.25 22.6953 10.1875C22.1094 11.1641 21.0938 11.75 20 11.75C18.8672 11.75 17.8516 11.1641 17.2656 10.1875C16.7188 9.25 16.7188 8.03906 17.2656 7.0625C17.8516 6.125 18.8672 5.5 20 5.5ZM0 17.1797C0 14.875 1.83594 13 4.14062 13H5.82031C6.44531 13 7.03125 13.1562 7.57812 13.3906C7.5 13.6641 7.5 13.9766 7.5 14.25C7.5 15.7734 8.125 17.1016 9.17969 18C9.17969 18 9.17969 18 9.14062 18H0.820312C0.351562 18 0 17.6484 0 17.1797ZM15.8203 18H15.7812C16.8359 17.1016 17.4609 15.7734 17.4609 14.25C17.4609 13.9766 17.4609 13.6641 17.4219 13.3906C17.9297 13.1562 18.5156 13 19.1406 13H20.8203C23.125 13 25 14.875 25 17.1797C25 17.6484 24.6094 18 24.1406 18H15.8203ZM8.75 14.25C8.75 12.9219 9.45312 11.7109 10.625 11.0078C11.7578 10.3438 13.2031 10.3438 14.375 11.0078C15.5078 11.7109 16.25 12.9219 16.25 14.25C16.25 15.6172 15.5078 16.8281 14.375 17.5312C13.2031 18.1953 11.7578 18.1953 10.625 17.5312C9.45312 16.8281 8.75 15.6172 8.75 14.25ZM5 24.4844C5 21.5938 7.30469 19.25 10.1953 19.25H14.7656C17.6562 19.25 20 21.5938 20 24.4844C20 25.0312 19.5312 25.5 18.9453 25.5H6.01562C5.46875 25.5 5 25.0703 5 24.4844Z" fill="black" fill-opacity="0.72"/>
</g>
<defs>
<clipPath id="clip0_2556_16941">
<rect width="25" height="30" fill="white"/>
</clipPath>
</defs>
</svg>
