<svg width="10" height="30" viewBox="0 0 10 30" fill="none" xmlns="http://www.w3.org/2000/svg">
<g id="label-paired / lg / grip-dots-vertical-lg / regular" clip-path="url(#clip0_2556_17276)">
<path id="icon" d="M2.5 9.25C2.5 8.9375 2.1875 8.625 1.875 8.625C1.52344 8.625 1.25 8.9375 1.25 9.25C1.25 9.60156 1.52344 9.875 1.875 9.875C2.1875 9.875 2.5 9.60156 2.5 9.25ZM0 9.25C0 8.58594 0.351562 8 0.9375 7.64844C1.48438 7.29688 2.22656 7.29688 2.8125 7.64844C3.35938 8 3.75 8.58594 3.75 9.25C3.75 9.95312 3.35938 10.5391 2.8125 10.8906C2.22656 11.2422 1.48438 11.2422 0.9375 10.8906C0.351562 10.5391 0 9.95312 0 9.25ZM2.5 15.5C2.5 15.1875 2.1875 14.875 1.875 14.875C1.52344 14.875 1.25 15.1875 1.25 15.5C1.25 15.8516 1.52344 16.125 1.875 16.125C2.1875 16.125 2.5 15.8516 2.5 15.5ZM0 15.5C0 14.8359 0.351562 14.25 0.9375 13.8984C1.48438 13.5469 2.22656 13.5469 2.8125 13.8984C3.35938 14.25 3.75 14.8359 3.75 15.5C3.75 16.2031 3.35938 16.7891 2.8125 17.1406C2.22656 17.4922 1.48438 17.4922 0.9375 17.1406C0.351562 16.7891 0 16.2031 0 15.5ZM1.875 22.375C2.1875 22.375 2.5 22.1016 2.5 21.75C2.5 21.4375 2.1875 21.125 1.875 21.125C1.52344 21.125 1.25 21.4375 1.25 21.75C1.25 22.1016 1.52344 22.375 1.875 22.375ZM1.875 19.875C2.53906 19.875 3.125 20.2656 3.47656 20.8125C3.82812 21.3984 3.82812 22.1406 3.47656 22.6875C3.125 23.2734 2.53906 23.625 1.875 23.625C1.17188 23.625 0.585938 23.2734 0.234375 22.6875C-0.117188 22.1406 -0.117188 21.3984 0.234375 20.8125C0.585938 20.2656 1.17188 19.875 1.875 19.875ZM8.75 9.25C8.75 8.9375 8.4375 8.625 8.125 8.625C7.77344 8.625 7.5 8.9375 7.5 9.25C7.5 9.60156 7.77344 9.875 8.125 9.875C8.4375 9.875 8.75 9.60156 8.75 9.25ZM6.25 9.25C6.25 8.58594 6.60156 8 7.1875 7.64844C7.73438 7.29688 8.47656 7.29688 9.0625 7.64844C9.60938 8 10 8.58594 10 9.25C10 9.95312 9.60938 10.5391 9.0625 10.8906C8.47656 11.2422 7.73438 11.2422 7.1875 10.8906C6.60156 10.5391 6.25 9.95312 6.25 9.25ZM8.125 16.125C8.4375 16.125 8.75 15.8516 8.75 15.5C8.75 15.1875 8.4375 14.875 8.125 14.875C7.77344 14.875 7.5 15.1875 7.5 15.5C7.5 15.8516 7.77344 16.125 8.125 16.125ZM8.125 13.625C8.78906 13.625 9.375 14.0156 9.72656 14.5625C10.0781 15.1484 10.0781 15.8906 9.72656 16.4375C9.375 17.0234 8.78906 17.375 8.125 17.375C7.42188 17.375 6.83594 17.0234 6.48438 16.4375C6.13281 15.8906 6.13281 15.1484 6.48438 14.5625C6.83594 14.0156 7.42188 13.625 8.125 13.625ZM8.75 21.75C8.75 21.4375 8.4375 21.125 8.125 21.125C7.77344 21.125 7.5 21.4375 7.5 21.75C7.5 22.1016 7.77344 22.375 8.125 22.375C8.4375 22.375 8.75 22.1016 8.75 21.75ZM6.25 21.75C6.25 21.0859 6.60156 20.5 7.1875 20.1484C7.73438 19.7969 8.47656 19.7969 9.0625 20.1484C9.60938 20.5 10 21.0859 10 21.75C10 22.4531 9.60938 23.0391 9.0625 23.3906C8.47656 23.7422 7.73438 23.7422 7.1875 23.3906C6.60156 23.0391 6.25 22.4531 6.25 21.75Z" fill="black" fill-opacity="0.72"/>
</g>
<defs>
<clipPath id="clip0_2556_17276">
<rect width="10" height="30" fill="white"/>
</clipPath>
</defs>
</svg>
