<svg width="11" height="22" viewBox="0 0 11 22" fill="none" xmlns="http://www.w3.org/2000/svg">
<g id="label-paired / sm / file-excel-sm / fill" clip-path="url(#clip0_2556_12252)">
<path id="icon" d="M2 3.75H6.375V7.25C6.375 7.74219 6.75781 8.125 7.25 8.125H10.75V16C10.75 16.9844 9.95703 17.75 9 17.75H2C1.01562 17.75 0.25 16.9844 0.25 16V5.5C0.25 4.54297 1.01562 3.75 2 3.75ZM7.25 3.75L10.75 7.25H7.25V3.75ZM4.48828 10.6133C4.29688 10.3125 3.88672 10.2305 3.58594 10.4492C3.28516 10.6406 3.20312 11.0508 3.42188 11.3516L4.67969 13.1562L3.42188 14.9883C3.20312 15.2617 3.28516 15.6719 3.58594 15.8906C3.88672 16.1094 4.29688 16.0273 4.48828 15.7266L5.5 14.3047L6.48438 15.7266C6.70312 16.0273 7.08594 16.1094 7.38672 15.8906C7.6875 15.6719 7.76953 15.2891 7.55078 14.9883L6.29297 13.1562L7.55078 11.3516C7.76953 11.0508 7.6875 10.6406 7.38672 10.4492C7.08594 10.2305 6.67578 10.3125 6.48438 10.6133L5.5 12.0352L4.48828 10.6133Z" fill="black" fill-opacity="0.72"/>
</g>
<defs>
<clipPath id="clip0_2556_12252">
<rect width="11" height="22" fill="white"/>
</clipPath>
</defs>
</svg>
