<svg width="20" height="24" viewBox="0 0 20 24" fill="none" xmlns="http://www.w3.org/2000/svg">
<g id="label-paired / md / apple-pay-md" clip-path="url(#clip0_2556_15270)">
<path id="icon" d="M3.625 8.96875C3.875 8.6875 4.03125 8.3125 4 7.90625C3.65625 7.9375 3.25 8.125 3 8.40625C2.78125 8.65625 2.59375 9.0625 2.65625 9.4375C3.03125 9.46875 3.40625 9.25 3.625 8.96875ZM3.96875 9.5C4.1875 9.53125 4.8125 9.59375 5.1875 10.1562C5.15625 10.1875 4.46875 10.5938 4.46875 11.4375C4.5 12.4375 5.34375 12.75 5.375 12.75C5.34375 12.7812 5.21875 13.25 4.90625 13.6875C4.625 14.0938 4.34375 14.5 3.90625 14.5C3.46875 14.5312 3.3125 14.25 2.8125 14.25C2.3125 14.25 2.15625 14.5 1.71875 14.5312C1.28125 14.5312 0.96875 14.0938 0.6875 13.6875C0.125 12.8438 -0.3125 11.375 0.25 10.3438C0.5625 9.84375 1.0625 9.53125 1.625 9.53125C2.0625 9.53125 2.4375 9.8125 2.71875 9.8125C2.96875 9.8125 3.4375 9.46875 3.96875 9.5ZM7.125 8.375H9.40625C10.5938 8.375 11.4062 9.1875 11.4062 10.375C11.4062 11.5625 10.5625 12.375 9.375 12.375H8.0625V14.4688H7.125V8.375ZM8.0625 9.15625V11.5938H9.15625C9.96875 11.5938 10.4375 11.1562 10.4375 10.375C10.4375 9.59375 9.96875 9.15625 9.15625 9.15625H8.0625ZM13.125 14.5C12.25 14.5 11.6562 14 11.625 13.1875C11.625 12.4062 12.2188 11.9688 13.3438 11.9062L14.5 11.8438V11.5C14.5 11 14.1875 10.7188 13.5938 10.7188C13.125 10.7188 12.7812 10.9688 12.7188 11.3438H11.875C11.875 10.5625 12.625 10 13.625 10C14.7188 10 15.4062 10.5625 15.4062 11.4375V14.4688H14.5312V13.7188C14.2812 14.2188 13.7188 14.5 13.125 14.5ZM13.375 13.7812C14.0312 13.7812 14.5 13.375 14.5 12.8125V12.4688L13.4688 12.5312C12.875 12.5625 12.5625 12.7812 12.5625 13.1875C12.5625 13.5312 12.875 13.7812 13.375 13.7812ZM16.5938 16.125C16.5312 16.125 16.2812 16.125 16.2188 16.0938V15.375C16.2812 15.375 16.4375 15.375 16.5 15.375C16.9375 15.375 17.1562 15.2188 17.3125 14.75L17.4062 14.4688L15.7812 10.0312H16.7812L17.9062 13.6562L19.0312 10.0312H20L18.3125 14.6875C17.9375 15.7812 17.5 16.125 16.5938 16.125Z" fill="black" fill-opacity="0.72"/>
</g>
<defs>
<clipPath id="clip0_2556_15270">
<rect width="20" height="24" fill="white"/>
</clipPath>
</defs>
</svg>
