<svg width="23" height="30" viewBox="0 0 23 30" fill="none" xmlns="http://www.w3.org/2000/svg">
<g id="label-paired / lg / arrow-down-a-z-lg / fill" clip-path="url(#clip0_2556_17241)">
<path id="icon" d="M7.39844 23.8594C7.16406 24.1328 6.85156 24.25 6.5 24.25C6.14844 24.25 5.79688 24.1328 5.5625 23.8594L2.125 20.1094C1.65625 19.6016 1.69531 18.8203 2.20312 18.3516C2.71094 17.8828 3.49219 17.9219 3.96094 18.4297L5.25 19.7969V8C5.25 7.33594 5.79688 6.75 6.5 6.75C7.16406 6.75 7.75 7.33594 7.75 8V19.7969L9 18.4297C9.46875 17.9219 10.25 17.8828 10.7578 18.3516C11.2656 18.8203 11.3047 19.6016 10.8359 20.1094L7.39844 23.8594ZM12.75 18C12.75 17.3359 13.2969 16.75 14 16.75H19C19.4688 16.75 19.9375 17.0625 20.1328 17.5312C20.3281 18 20.2109 18.5469 19.8594 18.8984L17.0078 21.75H19C19.6641 21.75 20.25 22.3359 20.25 23C20.25 23.7031 19.6641 24.25 19 24.25H14C13.4922 24.25 13.0234 23.9766 12.8281 23.5078C12.6328 23.0391 12.75 22.4922 13.1016 22.1406L15.9531 19.25H14C13.2969 19.25 12.75 18.7031 12.75 18ZM16.5 6.75C16.9688 6.75 17.3984 7.02344 17.5938 7.45312L20.0938 12.4531L20.7188 13.7031C21.0312 14.3281 20.7969 15.0703 20.1719 15.3828C19.5469 15.6953 18.8047 15.4609 18.4922 14.8359L18.2188 14.25H14.7422L14.4688 14.8359C14.1562 15.4609 13.4141 15.6953 12.7891 15.3828C12.1641 15.0703 11.9297 14.3281 12.2422 13.7031L12.8672 12.4531L15.3672 7.45312C15.5625 7.02344 15.9922 6.75 16.5 6.75ZM15.6797 12.375H17.2812L16.5 10.8125L15.6797 12.375Z" fill="black" fill-opacity="0.72"/>
</g>
<defs>
<clipPath id="clip0_2556_17241">
<rect width="23" height="30" fill="white"/>
</clipPath>
</defs>
</svg>
