<svg width="30" height="36" viewBox="0 0 30 36" fill="none" xmlns="http://www.w3.org/2000/svg">
<g id="label-paired / xl / user-slash-xl / fill" clip-path="url(#clip0_2556_19340)">
<path id="icon" d="M1.78125 6.28125L9 11.9062C9.04688 8.625 11.7188 6 15 6C18.2812 6 21 8.71875 21 12C21 14.8125 19.0781 17.1094 16.5469 17.8125L29.5312 28.0312C30.0469 28.4062 30.1406 29.1094 29.7188 29.5781C29.3438 30.0938 28.6406 30.1875 28.1719 29.7656L0.421875 8.01562C-0.09375 7.64062 -0.1875 6.9375 0.234375 6.46875C0.609375 5.95312 1.3125 5.85938 1.78125 6.28125ZM12.375 20.2969L24.6094 29.9062C24.4219 30 24.2812 30 24.0938 30H5.85938C5.10938 30 4.5 29.3906 4.5 28.6406C4.5 24.1875 7.96875 20.5312 12.375 20.2969Z" fill="black" fill-opacity="0.72"/>
</g>
<defs>
<clipPath id="clip0_2556_19340">
<rect width="30" height="36" fill="white"/>
</clipPath>
</defs>
</svg>
