<svg width="16" height="24" viewBox="0 0 16 24" fill="none" xmlns="http://www.w3.org/2000/svg">
<g id="label-paired / md / chart-line-md / fill" clip-path="url(#clip0_2556_14781)">
<path id="icon" d="M2 6V16.5C2 16.7812 2.21875 17 2.5 17H15C15.5312 17 16 17.4688 16 18C16 18.5625 15.5312 19 15 19H2.5C1.09375 19 0 17.9062 0 16.5V6C0 5.46875 0.4375 5 1 5C1.53125 5 2 5.46875 2 6ZM14.6875 8.71875L10.6875 12.7188C10.3125 13.125 9.65625 13.125 9.28125 12.7188L7.5 10.9375L4.6875 13.7188C4.3125 14.125 3.65625 14.125 3.28125 13.7188C2.875 13.3438 2.875 12.6875 3.28125 12.3125L6.78125 8.8125C7.15625 8.40625 7.8125 8.40625 8.1875 8.8125L10 10.5938L13.2812 7.3125C13.6562 6.90625 14.3125 6.90625 14.6875 7.3125C15.0938 7.6875 15.0938 8.34375 14.6875 8.71875Z" fill="black" fill-opacity="0.72"/>
</g>
<defs>
<clipPath id="clip0_2556_14781">
<rect width="16" height="24" fill="white"/>
</clipPath>
</defs>
</svg>
