<svg width="12" height="18" viewBox="0 0 12 18" fill="none" xmlns="http://www.w3.org/2000/svg">
<g id="label-paired / caption / circle-chevron-down-caption / bold" clip-path="url(#clip0_2556_10274)">
<path id="icon" d="M6 14.375C7.73438 14.375 9.32812 13.4609 10.2188 11.9375C11.0859 10.4375 11.0859 8.58594 10.2188 7.0625C9.32812 5.5625 7.73438 4.625 6 4.625C4.24219 4.625 2.64844 5.5625 1.75781 7.0625C0.890625 8.58594 0.890625 10.4375 1.75781 11.9375C2.64844 13.4609 4.24219 14.375 6 14.375ZM6 3.5C8.13281 3.5 10.1016 4.64844 11.1797 6.5C12.2578 8.375 12.2578 10.6484 11.1797 12.5C10.1016 14.375 8.13281 15.5 6 15.5C3.84375 15.5 1.875 14.375 0.796875 12.5C-0.28125 10.6484 -0.28125 8.375 0.796875 6.5C1.875 4.64844 3.84375 3.5 6 3.5ZM3.16406 9.14844C2.92969 8.9375 2.92969 8.58594 3.16406 8.375C3.375 8.14062 3.72656 8.14062 3.96094 8.375L6 10.4141L8.03906 8.375C8.25 8.14062 8.60156 8.14062 8.83594 8.375C9.04688 8.58594 9.04688 8.9375 8.83594 9.14844L6.375 11.5859C6.16406 11.8203 5.8125 11.8203 5.60156 11.5859L3.16406 9.14844Z" fill="black" fill-opacity="0.72"/>
</g>
<defs>
<clipPath id="clip0_2556_10274">
<rect width="12" height="18" fill="white"/>
</clipPath>
</defs>
</svg>
