<svg width="13" height="22" viewBox="0 0 13 22" fill="none" xmlns="http://www.w3.org/2000/svg">
<g id="label-paired / sm / paperclip-sm / bold" clip-path="url(#clip0_2981_766)">
<path id="icon" d="M10.6289 5.74609C9.91797 5.03516 8.74219 5.03516 8.03125 5.74609L2.80859 10.9961C1.60547 12.1992 1.60547 14.1406 2.80859 15.3164C3.98438 16.5195 5.92578 16.5195 7.12891 15.3164L11.2852 11.1602C11.5312 10.9141 11.9414 10.9141 12.1875 11.1602C12.4609 11.4336 12.4609 11.8438 12.1875 12.0898L8.05859 16.2461C6.33594 17.9688 3.57422 17.9688 1.87891 16.2461C0.15625 14.5508 0.15625 11.7891 1.87891 10.0664L7.12891 4.81641C8.33203 3.61328 10.3281 3.61328 11.5586 4.81641C12.7617 6.04688 12.7617 8.04297 11.5586 9.24609L6.52734 14.2773C5.65234 15.1523 4.23047 15.0703 3.46484 14.1133C2.80859 13.293 2.89062 12.1172 3.62891 11.3789L7.78516 7.22266C8.03125 6.97656 8.44141 6.97656 8.6875 7.22266C8.96094 7.49609 8.96094 7.90625 8.6875 8.15234L4.55859 12.3086C4.28516 12.582 4.25781 12.9922 4.50391 13.293C4.77734 13.6211 5.26953 13.6758 5.59766 13.3477L10.6289 8.31641C11.3398 7.60547 11.3398 6.45703 10.6289 5.74609Z" fill="black" fill-opacity="0.72"/>
</g>
<defs>
<clipPath id="clip0_2981_766">
<rect width="13" height="22" fill="white"/>
</clipPath>
</defs>
</svg>
