<svg width="24" height="36" viewBox="0 0 24 36" fill="none" xmlns="http://www.w3.org/2000/svg">
<g id="label-paired / xl / chart-line-up-down-xl / fill" clip-path="url(#clip0_2556_19638)">
<path id="icon" d="M3 9V24.75C3 25.1719 3.32812 25.5 3.75 25.5H22.5C23.2969 25.5 24 26.2031 24 27C24 27.8438 23.2969 28.5 22.5 28.5H3.75C1.64062 28.5 0 26.8594 0 24.75V9C0 8.20312 0.65625 7.5 1.5 7.5C2.29688 7.5 3 8.20312 3 9ZM17.6719 11.7188L16.7812 10.8281C16.5938 10.6406 16.5 10.3594 16.5 10.0781C16.5 9.51562 16.9688 9 17.5312 9H21.75C22.125 9 22.5 9.375 22.5 9.75V10.5V10.5469V13.9688C22.5 14.5312 21.9844 15 21.4219 15C21.1406 15 20.8594 14.9062 20.6719 14.7188L19.7812 13.8281L14.5312 19.0781C13.9688 19.6875 12.9844 19.6875 12.4219 19.0781L9.75 16.4062L7.03125 19.0781C6.46875 19.6875 5.48438 19.6875 4.92188 19.0781C4.3125 18.5156 4.3125 17.5312 4.92188 16.9688L8.67188 13.2188C9.23438 12.6094 10.2188 12.6094 10.7812 13.2188L13.5 15.8906L17.6719 11.7188ZM20.6719 18.3281C20.8594 18.1406 21.1406 18 21.4219 18C22.0312 18 22.5 18.5156 22.5 19.0781V23.25C22.5 23.6719 22.125 24 21.75 24H17.5312C16.9688 24 16.5 23.5312 16.5 22.9688C16.5 22.6875 16.5938 22.4062 16.7812 22.2188L17.6719 21.3281L16.0312 19.6875L18.1875 17.5781L19.7812 19.2188L20.6719 18.3281Z" fill="black" fill-opacity="0.72"/>
</g>
<defs>
<clipPath id="clip0_2556_19638">
<rect width="24" height="36" fill="white"/>
</clipPath>
</defs>
</svg>
