<svg width="16" height="24" viewBox="0 0 16 24" fill="none" xmlns="http://www.w3.org/2000/svg">
<g id="label-paired / md / chart-line-up-down-md / regular" clip-path="url(#clip0_2556_15090)">
<path id="icon" d="M1 5.5V16.5C1 17.3438 1.65625 18 2.5 18H15.5C15.75 18 16 18.25 16 18.5C16 18.7812 15.75 19 15.5 19H2.5C1.09375 19 0 17.9062 0 16.5V5.5C0 5.25 0.21875 5 0.5 5C0.75 5 1 5.25 1 5.5ZM11.5 7C11.2188 7 11 6.78125 11 6.5C11 6.25 11.2188 6 11.5 6H14.5C14.75 6 15 6.25 15 6.5V9.5C15 9.78125 14.75 10 14.5 10C14.2188 10 14 9.78125 14 9.5V7.71875L9.34375 12.375C9.15625 12.5625 8.8125 12.5625 8.625 12.375L6.5 10.2188L3.84375 12.875C3.65625 13.0625 3.3125 13.0625 3.125 12.875C2.9375 12.6875 2.9375 12.3438 3.125 12.1562L6.125 9.15625C6.21875 9.0625 6.34375 9 6.5 9C6.625 9 6.75 9.0625 6.84375 9.15625L9 11.3125L13.2812 7H11.5ZM11.5 16C11.2188 16 11 15.7812 11 15.5C11 15.25 11.2188 15 11.5 15H13.2812L11.125 12.875L11.8438 12.1562L14 14.3125V12.5C14 12.25 14.2188 12 14.5 12C14.75 12 15 12.25 15 12.5V15.5C15 15.7812 14.75 16 14.5 16H11.5Z" fill="black" fill-opacity="0.72"/>
</g>
<defs>
<clipPath id="clip0_2556_15090">
<rect width="16" height="24" fill="white"/>
</clipPath>
</defs>
</svg>
