<svg width="20" height="30" viewBox="0 0 20 30" fill="none" xmlns="http://www.w3.org/2000/svg">
<g id="label-paired / lg / thumbs-up-lg / regular" clip-path="url(#clip0_2355_600)">
<path id="icon" d="M11.2891 8.70312L11.0938 9.32812C10.651 10.9427 9.71354 12.2188 8.28125 13.1562L8.16406 13.2344C7.85156 13.4167 7.59115 13.6641 7.38281 13.9766C7.1224 14.263 6.83594 14.3151 6.52344 14.1328C6.21094 13.8984 6.15885 13.612 6.36719 13.2734C6.65365 12.8307 7.03125 12.4661 7.5 12.1797L7.61719 12.1016C8.76302 11.3464 9.51823 10.3177 9.88281 9.01562L10.0781 8.35156C10.2604 7.7526 10.599 7.3099 11.0938 7.02344C11.6146 6.73698 12.1745 6.67188 12.7734 6.82812C13.3464 7.01042 13.7891 7.34896 14.1016 7.84375C14.388 8.36458 14.4531 8.92448 14.2969 9.52344L14.1406 10.1484C13.9844 10.6953 13.776 11.2292 13.5156 11.75H17.5C18.2031 11.776 18.7891 12.0234 19.2578 12.4922C19.7266 12.9609 19.974 13.5469 20 14.25C19.974 14.9531 19.7266 15.5391 19.2578 16.0078C19.3359 16.2422 19.375 16.4896 19.375 16.75C19.349 17.5052 19.0755 18.1172 18.5547 18.5859C18.6849 18.8984 18.75 19.224 18.75 19.5625C18.6979 20.526 18.2812 21.2422 17.5 21.7109V21.75C17.474 22.4531 17.2266 23.0391 16.7578 23.5078C16.2891 23.9766 15.7031 24.224 15 24.25H11.4844C10.625 24.25 9.81771 24.0026 9.0625 23.5078L7.57812 22.5312C7.08333 22.1927 6.66667 21.776 6.32812 21.2812C6.17188 20.9427 6.23698 20.6562 6.52344 20.4219C6.86198 20.2396 7.14844 20.2917 7.38281 20.5781C7.61719 20.9427 7.91667 21.2422 8.28125 21.4766L9.76562 22.4922C10.2865 22.8307 10.8724 23 11.5234 23H15C15.3646 23 15.6641 22.8828 15.8984 22.6484C16.1328 22.4141 16.25 22.1146 16.25 21.75C16.25 21.6458 16.237 21.5547 16.2109 21.4766C16.1849 21.138 16.3281 20.9036 16.6406 20.7734C17.1875 20.5651 17.474 20.1615 17.5 19.5625C17.5 19.276 17.4089 19.0286 17.2266 18.8203C17.1224 18.6641 17.0833 18.4818 17.1094 18.2734C17.1615 18.0911 17.2786 17.9609 17.4609 17.8828C17.8776 17.6484 18.099 17.2708 18.125 16.75C18.125 16.5156 18.0729 16.3073 17.9688 16.125C17.8125 15.8125 17.8776 15.5391 18.1641 15.3047C18.5286 15.0703 18.724 14.7188 18.75 14.25C18.75 13.8854 18.6328 13.5859 18.3984 13.3516C18.1641 13.1172 17.8646 13 17.5 13H12.4609C12.2266 13 12.0443 12.8958 11.9141 12.6875C11.8099 12.4792 11.8229 12.2708 11.9531 12.0625C12.3698 11.3594 12.6953 10.6172 12.9297 9.83594L13.0859 9.17188C13.1901 8.625 12.9688 8.2474 12.4219 8.03906C11.875 7.9349 11.4974 8.15625 11.2891 8.70312ZM1.25 14.25V23H3.75V14.25H1.25ZM0 14.25C0 13.8854 0.117188 13.5859 0.351562 13.3516C0.585938 13.1172 0.885417 13 1.25 13H3.75C4.11458 13 4.41406 13.1172 4.64844 13.3516C4.88281 13.5859 5 13.8854 5 14.25V23C5 23.3646 4.88281 23.6641 4.64844 23.8984C4.41406 24.1328 4.11458 24.25 3.75 24.25H1.25C0.885417 24.25 0.585938 24.1328 0.351562 23.8984C0.117188 23.6641 0 23.3646 0 23V14.25Z" fill="black" fill-opacity="0.72"/>
</g>
<defs>
<clipPath id="clip0_2355_600">
<rect width="20" height="30" fill="white"/>
</clipPath>
</defs>
</svg>
