<svg width="20" height="30" viewBox="0 0 20 30" fill="none" xmlns="http://www.w3.org/2000/svg">
<g id="label-paired / lg / cash-register-lg / fill" clip-path="url(#clip0_2556_17107)">
<path id="icon" d="M2.5 5.5H11.25C11.9141 5.5 12.5 6.08594 12.5 6.75V9.25C12.5 9.95312 11.9141 10.5 11.25 10.5H8.125V11.75H16.6016C17.8125 11.75 18.8672 12.6875 19.0625 13.8984L19.9219 19.7188C19.9609 19.9141 20 20.1094 20 20.3047V23C20 24.4062 18.8672 25.5 17.5 25.5H2.5C1.09375 25.5 0 24.4062 0 23V20.3047C0 20.1094 0 19.9141 0.0390625 19.7578L0.898438 13.8984C1.09375 12.6875 2.14844 11.75 3.39844 11.75H5.625V10.5H2.5C1.79688 10.5 1.25 9.95312 1.25 9.25V6.75C1.25 6.08594 1.79688 5.5 2.5 5.5ZM3.75 7.375C3.39844 7.375 3.125 7.6875 3.125 8C3.125 8.35156 3.39844 8.625 3.75 8.625H10C10.3125 8.625 10.625 8.35156 10.625 8C10.625 7.6875 10.3125 7.375 10 7.375H3.75ZM2.5 22.375C2.5 22.7266 2.77344 23 3.125 23H16.875C17.1875 23 17.5 22.7266 17.5 22.375C17.5 22.0625 17.1875 21.75 16.875 21.75H3.125C2.77344 21.75 2.5 22.0625 2.5 22.375ZM4.375 15.8125C4.88281 15.8125 5.3125 15.4219 5.3125 14.875C5.3125 14.3672 4.88281 13.9375 4.375 13.9375C3.82812 13.9375 3.4375 14.3672 3.4375 14.875C3.4375 15.4219 3.82812 15.8125 4.375 15.8125ZM9.0625 14.875C9.0625 14.3672 8.63281 13.9375 8.125 13.9375C7.57812 13.9375 7.1875 14.3672 7.1875 14.875C7.1875 15.4219 7.57812 15.8125 8.125 15.8125C8.63281 15.8125 9.0625 15.4219 9.0625 14.875ZM6.25 18.9375C6.75781 18.9375 7.1875 18.5469 7.1875 18C7.1875 17.4922 6.75781 17.0625 6.25 17.0625C5.70312 17.0625 5.3125 17.4922 5.3125 18C5.3125 18.5469 5.70312 18.9375 6.25 18.9375ZM12.8125 14.875C12.8125 14.3672 12.3828 13.9375 11.875 13.9375C11.3281 13.9375 10.9375 14.3672 10.9375 14.875C10.9375 15.4219 11.3281 15.8125 11.875 15.8125C12.3828 15.8125 12.8125 15.4219 12.8125 14.875ZM10 18.9375C10.5078 18.9375 10.9375 18.5469 10.9375 18C10.9375 17.4922 10.5078 17.0625 10 17.0625C9.45312 17.0625 9.0625 17.4922 9.0625 18C9.0625 18.5469 9.45312 18.9375 10 18.9375ZM16.5625 14.875C16.5625 14.3672 16.1328 13.9375 15.625 13.9375C15.0781 13.9375 14.6875 14.3672 14.6875 14.875C14.6875 15.4219 15.0781 15.8125 15.625 15.8125C16.1328 15.8125 16.5625 15.4219 16.5625 14.875ZM13.75 18.9375C14.2578 18.9375 14.6875 18.5469 14.6875 18C14.6875 17.4922 14.2578 17.0625 13.75 17.0625C13.2031 17.0625 12.8125 17.4922 12.8125 18C12.8125 18.5469 13.2031 18.9375 13.75 18.9375Z" fill="black" fill-opacity="0.72"/>
</g>
<defs>
<clipPath id="clip0_2556_17107">
<rect width="20" height="30" fill="white"/>
</clipPath>
</defs>
</svg>
