<svg width="20" height="30" viewBox="0 0 20 30" fill="none" xmlns="http://www.w3.org/2000/svg">
<g id="label-paired / lg / face-viewfinder-lg / fill" clip-path="url(#clip0_2556_17127)">
<path id="icon" d="M2.1875 5.5H5.3125C5.82031 5.5 6.25 5.92969 6.25 6.4375C6.25 6.98438 5.82031 7.375 5.3125 7.375H2.1875C1.99219 7.375 1.875 7.53125 1.875 7.6875V10.8125C1.875 11.3594 1.44531 11.75 0.9375 11.75C0.390625 11.75 0 11.3594 0 10.8125V7.6875C0 6.51562 0.976562 5.5 2.1875 5.5ZM14.6875 5.5H17.8125C18.9844 5.5 20 6.51562 20 7.6875V10.8125C20 11.3594 19.5703 11.75 19.0625 11.75C18.5156 11.75 18.125 11.3594 18.125 10.8125V7.6875C18.125 7.53125 17.9688 7.375 17.8125 7.375H14.6875C14.1406 7.375 13.75 6.98438 13.75 6.4375C13.75 5.92969 14.1406 5.5 14.6875 5.5ZM1.875 20.1875V23.3125C1.875 23.5078 1.99219 23.625 2.1875 23.625H5.3125C5.82031 23.625 6.25 24.0547 6.25 24.5625C6.25 25.1094 5.82031 25.5 5.3125 25.5H2.1875C0.976562 25.5 0 24.5234 0 23.3125V20.1875C0 19.6797 0.390625 19.25 0.9375 19.25C1.44531 19.25 1.875 19.6797 1.875 20.1875ZM20 20.1875V23.3125C20 24.5234 18.9844 25.5 17.8125 25.5H14.6875C14.1406 25.5 13.75 25.1094 13.75 24.5625C13.75 24.0547 14.1406 23.625 14.6875 23.625H17.8125C17.9688 23.625 18.125 23.5078 18.125 23.3125V20.1875C18.125 19.6797 18.5156 19.25 19.0625 19.25C19.5703 19.25 20 19.6797 20 20.1875ZM3.75 15.5C3.75 13.2734 4.92188 11.2422 6.875 10.1094C8.78906 8.97656 11.1719 8.97656 13.125 10.1094C15.0391 11.2422 16.25 13.2734 16.25 15.5C16.25 17.7656 15.0391 19.7969 13.125 20.9297C11.1719 22.0625 8.78906 22.0625 6.875 20.9297C4.92188 19.7969 3.75 17.7656 3.75 15.5ZM8.75 13.9375C8.75 13.4297 8.32031 13 7.8125 13C7.26562 13 6.875 13.4297 6.875 13.9375C6.875 14.4844 7.26562 14.875 7.8125 14.875C8.32031 14.875 8.75 14.4844 8.75 13.9375ZM12.1875 14.875C12.6953 14.875 13.125 14.4844 13.125 13.9375C13.125 13.4297 12.6953 13 12.1875 13C11.6406 13 11.25 13.4297 11.25 13.9375C11.25 14.4844 11.6406 14.875 12.1875 14.875ZM6.60156 16.9453C6.36719 17.1797 6.36719 17.5703 6.60156 17.8438C7.46094 18.7031 8.67188 19.25 10 19.25C11.3281 19.25 12.5 18.7031 13.3594 17.8438C13.5938 17.5703 13.5938 17.1797 13.3594 16.9453C13.0859 16.7109 12.6953 16.7109 12.4609 16.9453C11.8359 17.6094 10.9766 18 10 18C9.02344 18 8.125 17.6094 7.5 16.9453C7.26562 16.7109 6.875 16.7109 6.60156 16.9453Z" fill="black" fill-opacity="0.72"/>
</g>
<defs>
<clipPath id="clip0_2556_17127">
<rect width="20" height="30" fill="white"/>
</clipPath>
</defs>
</svg>
