<svg width="11" height="18" viewBox="0 0 11 18" fill="none" xmlns="http://www.w3.org/2000/svg">
<g id="label-paired / caption / arrow-right-caption / bold" clip-path="url(#clip0_2556_10202)">
<path id="icon" d="M10.5625 9.92188L6.4375 13.8594C6.20312 14.0703 5.85156 14.0703 5.64062 13.8359C5.42969 13.6016 5.42969 13.25 5.66406 13.0391L8.78125 10.0625H0.8125C0.484375 10.0625 0.25 9.82812 0.25 9.5C0.25 9.19531 0.484375 8.9375 0.8125 8.9375H8.78125L5.66406 5.98438C5.42969 5.77344 5.42969 5.39844 5.64062 5.1875C5.85156 4.95312 6.22656 4.95312 6.4375 5.16406L10.5625 9.10156C10.6797 9.21875 10.75 9.35938 10.75 9.5C10.75 9.66406 10.6797 9.80469 10.5625 9.92188Z" fill="black" fill-opacity="0.72"/>
</g>
<defs>
<clipPath id="clip0_2556_10202">
<rect width="11" height="18" fill="white"/>
</clipPath>
</defs>
</svg>
