<svg width="14" height="22" viewBox="0 0 14 22" fill="none" xmlns="http://www.w3.org/2000/svg">
<g id="label-paired / sm / triangle-exclamation-sm / regular" clip-path="url(#clip0_2556_12508)">
<path id="icon" d="M0.929688 15.2617C0.875 15.3438 0.875 15.4258 0.875 15.5078C0.875 15.7812 1.09375 16.0273 1.36719 16.0273H12.6055C12.8789 16.0273 13.125 15.7812 13.125 15.5078C13.125 15.4258 13.0977 15.3438 13.043 15.2617L7.54688 5.82812C7.4375 5.63672 7.21875 5.5 7 5.5C6.75391 5.5 6.53516 5.63672 6.42578 5.82812L0.929688 15.2617ZM0.164062 14.8242L5.66016 5.39062C5.93359 4.92578 6.45312 4.625 7 4.625C7.51953 4.625 8.03906 4.92578 8.3125 5.39062L13.8086 14.8242C13.918 15.0156 14 15.2617 14 15.5078C14 16.2734 13.3711 16.875 12.6055 16.875H1.36719C0.601562 16.875 0 16.2734 0 15.5078C0 15.2617 0.0546875 15.0156 0.164062 14.8242ZM7 8.125C7.21875 8.125 7.4375 8.34375 7.4375 8.5625V12.0625C7.4375 12.3086 7.21875 12.5 7 12.5C6.75391 12.5 6.5625 12.3086 6.5625 12.0625V8.5625C6.5625 8.34375 6.75391 8.125 7 8.125ZM6.34375 14.25C6.34375 13.8945 6.61719 13.5938 7 13.5938C7.35547 13.5938 7.65625 13.8945 7.65625 14.25C7.65625 14.6328 7.35547 14.9062 7 14.9062C6.61719 14.9062 6.34375 14.6328 6.34375 14.25Z" fill="black" fill-opacity="0.72"/>
</g>
<defs>
<clipPath id="clip0_2556_12508">
<rect width="14" height="22" fill="white"/>
</clipPath>
</defs>
</svg>
