<svg width="15" height="30" viewBox="0 0 15 30" fill="none" xmlns="http://www.w3.org/2000/svg">
<g id="label-paired / lg / file-invoice-dollar-lg / bold" clip-path="url(#clip0_2556_17069)">
<path id="icon" d="M13.125 23V11.75H10C9.29688 11.75 8.75 11.2031 8.75 10.5V7.375H2.5C2.14844 7.375 1.875 7.6875 1.875 8V23C1.875 23.3516 2.14844 23.625 2.5 23.625H12.5C12.8125 23.625 13.125 23.3516 13.125 23ZM0 8C0 6.63281 1.09375 5.5 2.5 5.5H8.94531C9.60938 5.5 10.2344 5.77344 10.7031 6.24219L14.2578 9.79688C14.7266 10.2656 15 10.8906 15 11.5547V23C15 24.4062 13.8672 25.5 12.5 25.5H2.5C1.09375 25.5 0 24.4062 0 23V8ZM7.5 13.9375C7.92969 13.9375 8.28125 14.2891 8.28125 14.7188V15.1094C8.55469 15.1484 8.82812 15.2266 9.0625 15.2656C9.49219 15.3828 9.76562 15.8125 9.64844 16.2031C9.57031 16.6328 9.14062 16.9062 8.71094 16.7891C8.28125 16.7109 7.85156 16.6328 7.46094 16.6328C7.14844 16.5938 6.83594 16.6719 6.60156 16.7891C6.40625 16.9062 6.40625 16.9844 6.40625 17.0234C6.40625 17.0625 6.44531 17.1016 6.5625 17.1797C6.79688 17.2969 7.1875 17.4141 7.69531 17.5312C8.125 17.6484 8.71094 17.8047 9.14062 18.0781C9.60938 18.3516 10.1172 18.8203 10.1172 19.6016C10.1562 20.4219 9.6875 20.9688 9.14062 21.2422C8.86719 21.3984 8.55469 21.5156 8.24219 21.5547V21.9453C8.24219 22.375 7.89062 22.7266 7.46094 22.7266C7.03125 22.7266 6.67969 22.375 6.67969 21.9453V21.5156C6.28906 21.4375 5.9375 21.3203 5.625 21.2422C5.54688 21.2031 5.46875 21.2031 5.39062 21.1641C4.96094 21.0469 4.72656 20.6172 4.84375 20.1875C4.96094 19.7578 5.42969 19.5234 5.82031 19.6797C5.9375 19.6797 6.01562 19.7188 6.09375 19.7578C6.64062 19.9141 7.07031 20.0312 7.5 20.0312C7.85156 20.0703 8.16406 19.9922 8.39844 19.875C8.55469 19.7969 8.59375 19.7188 8.59375 19.6016C8.59375 19.6016 8.59375 19.5234 8.39844 19.4062C8.125 19.2891 7.77344 19.1719 7.26562 19.0547L7.22656 19.0156C6.79688 18.8984 6.25 18.7422 5.82031 18.5469C5.35156 18.2734 4.84375 17.8047 4.84375 17.0234C4.80469 16.2031 5.35156 15.6953 5.85938 15.4219C6.13281 15.2656 6.40625 15.1875 6.71875 15.1094V14.7188C6.71875 14.2891 7.07031 13.9375 7.5 13.9375ZM3.75 9.25H6.875C7.1875 9.25 7.5 9.5625 7.5 9.875C7.5 10.2266 7.1875 10.5 6.875 10.5H3.75C3.39844 10.5 3.125 10.2266 3.125 9.875C3.125 9.5625 3.39844 9.25 3.75 9.25ZM3.75 11.75H6.875C7.1875 11.75 7.5 12.0625 7.5 12.375C7.5 12.7266 7.1875 13 6.875 13H3.75C3.39844 13 3.125 12.7266 3.125 12.375C3.125 12.0625 3.39844 11.75 3.75 11.75Z" fill="black" fill-opacity="0.72"/>
</g>
<defs>
<clipPath id="clip0_2556_17069">
<rect width="15" height="30" fill="white"/>
</clipPath>
</defs>
</svg>
