<svg width="30" height="36" viewBox="0 0 30 36" fill="none" xmlns="http://www.w3.org/2000/svg">
<g id="label-paired / xl / user-slash-xl / regular" clip-path="url(#clip0_2365_775)">
<path id="icon" d="M21 12C21 13.0312 20.7656 13.9688 20.2969 14.8125C19.8594 15.6562 19.25 16.3594 18.4688 16.9219L17.2031 15.9375C17.8906 15.5312 18.4531 14.9844 18.8906 14.2969C19.2969 13.6094 19.5 12.8438 19.5 12C19.4688 10.7188 19.0312 9.65625 18.1875 8.8125C17.3438 7.96875 16.2812 7.53125 15 7.5C13.9375 7.53125 13.0312 7.84375 12.2812 8.4375C11.5 9.03125 10.9688 9.8125 10.6875 10.7812L9.42188 9.79688C9.89062 8.67188 10.6094 7.76563 11.5781 7.07812C12.5781 6.39062 13.7188 6.03125 15 6C16.6875 6.03125 18.1094 6.60938 19.2656 7.73438C20.3906 8.89062 20.9688 10.3125 21 12ZM23.4375 28.5L24.9844 29.7188C24.7344 29.9062 24.4375 30 24.0938 30H5.90625C5.5 30 5.17188 29.8594 4.92188 29.5781C4.64062 29.3281 4.5 29 4.5 28.5938C4.5625 26.25 5.375 24.2812 6.9375 22.6875C8.53125 21.125 10.5 20.3125 12.8438 20.25H13.0312L14.9062 21.75H12.8438C10.9375 21.8125 9.34375 22.4688 8.0625 23.7188C6.75 25 6.0625 26.5938 6 28.5H23.4375ZM1.21875 6.14062L29.7188 28.6875C30.0625 29 30.1094 29.3438 29.8594 29.7188C29.5156 30.0625 29.1562 30.1094 28.7812 29.8594L0.28125 7.35938C-0.0625 7.01563 -0.109375 6.65625 0.140625 6.28125C0.484375 5.96875 0.84375 5.92187 1.21875 6.14062Z" fill="black" fill-opacity="0.72"/>
</g>
<defs>
<clipPath id="clip0_2365_775">
<rect width="30" height="36" fill="white"/>
</clipPath>
</defs>
</svg>
