<svg width="30" height="36" viewBox="0 0 30 36" fill="none" xmlns="http://www.w3.org/2000/svg">
<g id="label-paired / xl / user-check-xl / fill" clip-path="url(#clip0_3327_720)">
<path id="icon" d="M4.5 12C4.5 9.89062 5.625 7.92188 7.5 6.84375C9.32812 5.76562 11.625 5.76562 13.5 6.84375C15.3281 7.92188 16.5 9.89062 16.5 12C16.5 14.1562 15.3281 16.125 13.5 17.2031C11.625 18.2812 9.32812 18.2812 7.5 17.2031C5.625 16.125 4.5 14.1562 4.5 12ZM0 28.6406C0 24 3.70312 20.25 8.34375 20.25H12.6094C17.25 20.25 21 24 21 28.6406C21 29.3906 20.3438 30 19.5938 30H1.35938C0.609375 30 0 29.3906 0 28.6406ZM29.2969 14.2969L23.2969 20.2969C22.8281 20.7656 22.125 20.7656 21.7031 20.2969L18.7031 17.2969C18.2344 16.875 18.2344 16.1719 18.7031 15.75C19.125 15.2812 19.8281 15.2812 20.2969 15.75L22.5 17.9531L27.7031 12.7031C28.125 12.2812 28.8281 12.2812 29.25 12.7031C29.7188 13.1719 29.7188 13.875 29.25 14.2969H29.2969Z" fill="black" fill-opacity="0.72"/>
</g>
<defs>
<clipPath id="clip0_3327_720">
<rect width="30" height="36" fill="white"/>
</clipPath>
</defs>
</svg>
