<svg width="24" height="36" viewBox="0 0 24 36" fill="none" xmlns="http://www.w3.org/2000/svg">
<g id="label-paired / xl / face-viewfinder-xl / fill" clip-path="url(#clip0_2512_1081)">
<path id="icon" d="M2.625 6H6.375C7.0625 6.0625 7.4375 6.4375 7.5 7.125C7.4375 7.8125 7.0625 8.1875 6.375 8.25H2.625C2.40625 8.28125 2.28125 8.40625 2.25 8.625V12.375C2.1875 13.0625 1.8125 13.4375 1.125 13.5C0.4375 13.4375 0.0625 13.0625 0 12.375V8.625C0.03125 7.875 0.28125 7.25 0.75 6.75C1.25 6.28125 1.875 6.03125 2.625 6ZM17.625 6H21.375C22.125 6.03125 22.75 6.28125 23.25 6.75C23.7188 7.25 23.9688 7.875 24 8.625V12.375C23.9375 13.0625 23.5625 13.4375 22.875 13.5C22.1875 13.4375 21.8125 13.0625 21.75 12.375V8.625C21.7188 8.40625 21.5938 8.28125 21.375 8.25H17.625C16.9375 8.1875 16.5625 7.8125 16.5 7.125C16.5625 6.4375 16.9375 6.0625 17.625 6ZM2.25 23.625V27.375C2.28125 27.5938 2.40625 27.7188 2.625 27.75H6.375C7.0625 27.8125 7.4375 28.1875 7.5 28.875C7.4375 29.5625 7.0625 29.9375 6.375 30H2.625C1.875 29.9688 1.25 29.7188 0.75 29.25C0.28125 28.75 0.03125 28.125 0 27.375V23.625C0.0625 22.9375 0.4375 22.5625 1.125 22.5C1.8125 22.5625 2.1875 22.9375 2.25 23.625ZM24 23.625V27.375C23.9688 28.125 23.7188 28.75 23.25 29.25C22.75 29.7188 22.125 29.9688 21.375 30H17.625C16.9375 29.9375 16.5625 29.5625 16.5 28.875C16.5625 28.1875 16.9375 27.8125 17.625 27.75H21.375C21.5938 27.7188 21.7188 27.5938 21.75 27.375V23.625C21.8125 22.9375 22.1875 22.5625 22.875 22.5C23.5625 22.5625 23.9375 22.9375 24 23.625ZM4.5 18C4.5 16.6562 4.82812 15.4062 5.48438 14.25C6.17188 13.0938 7.09375 12.1719 8.25 11.4844C9.4375 10.8281 10.6875 10.5 12 10.5C13.3125 10.5 14.5625 10.8281 15.75 11.4844C16.9062 12.1719 17.8281 13.0938 18.5156 14.25C19.1719 15.4062 19.5 16.6562 19.5 18C19.5 19.3438 19.1719 20.5938 18.5156 21.75C17.8281 22.9062 16.9062 23.8281 15.75 24.5156C14.5625 25.1719 13.3125 25.5 12 25.5C10.6875 25.5 9.4375 25.1719 8.25 24.5156C7.09375 23.8281 6.17188 22.9062 5.48438 21.75C4.82812 20.5938 4.5 19.3438 4.5 18ZM10.5 16.125C10.4375 15.4375 10.0625 15.0625 9.375 15C8.6875 15.0625 8.3125 15.4375 8.25 16.125C8.3125 16.8125 8.6875 17.1875 9.375 17.25C10.0625 17.1875 10.4375 16.8125 10.5 16.125ZM14.625 17.25C15.3125 17.1875 15.6875 16.8125 15.75 16.125C15.6875 15.4375 15.3125 15.0625 14.625 15C13.9375 15.0625 13.5625 15.4375 13.5 16.125C13.5625 16.8125 13.9375 17.1875 14.625 17.25ZM7.96875 19.7344C7.65625 20.0781 7.64062 20.4219 7.92188 20.7656C9.01562 21.8906 10.375 22.4688 12 22.5C13.625 22.4688 14.9844 21.8906 16.0781 20.7656C16.3594 20.4219 16.3438 20.0781 16.0312 19.7344C15.6875 19.4219 15.3438 19.4219 15 19.7344C14.2188 20.5469 13.2188 20.9688 12 21C10.8125 20.9688 9.82812 20.5469 9.04688 19.7344C8.67188 19.4219 8.3125 19.4062 7.96875 19.6875V19.7344Z" fill="black" fill-opacity="0.72"/>
</g>
<defs>
<clipPath id="clip0_2512_1081">
<rect width="24" height="36" fill="white"/>
</clipPath>
</defs>
</svg>
