<svg width="13" height="22" viewBox="0 0 13 22" fill="none" xmlns="http://www.w3.org/2000/svg">
<g id="label-paired / sm / share-nodes-sm / bold" clip-path="url(#clip0_3997_719)">
<path id="icon" d="M12.625 7.25C12.625 8.69922 11.4492 9.875 10 9.875C9.20703 9.875 8.49609 9.54688 8.00391 8.97266L5.54297 10.2031C5.59766 10.3945 5.625 10.5859 5.625 10.75C5.625 10.9414 5.59766 11.1328 5.54297 11.3242L8.00391 12.5273C8.49609 11.9805 9.20703 11.625 10 11.625C11.4492 11.625 12.625 12.8008 12.625 14.25C12.625 15.6992 11.4492 16.875 10 16.875C8.55078 16.875 7.375 15.6992 7.375 14.25C7.375 14.0859 7.375 13.8945 7.42969 13.7031L4.96875 12.4727C4.47656 13.0469 3.76562 13.375 3 13.375C1.55078 13.375 0.375 12.1992 0.375 10.75C0.375 9.30078 1.55078 8.125 3 8.125C3.76562 8.125 4.47656 8.48047 4.96875 9.02734L7.42969 7.82422C7.375 7.63281 7.375 7.44141 7.375 7.25C7.375 5.80078 8.55078 4.625 10 4.625C11.4492 4.625 12.625 5.80078 12.625 7.25ZM3 12.0625C3.46484 12.0625 3.875 11.8164 4.12109 11.4062C4.36719 11.0234 4.36719 10.5039 4.12109 10.0938C3.875 9.71094 3.46484 9.4375 3 9.4375C2.50781 9.4375 2.09766 9.71094 1.85156 10.0938C1.60547 10.5039 1.60547 11.0234 1.85156 11.4062C2.09766 11.8164 2.50781 12.0625 3 12.0625ZM11.3125 7.25C11.3125 6.78516 11.0391 6.375 10.6562 6.12891C10.2461 5.88281 9.72656 5.88281 9.34375 6.12891C8.93359 6.375 8.6875 6.78516 8.6875 7.25C8.6875 7.74219 8.93359 8.15234 9.34375 8.39844C9.72656 8.64453 10.2461 8.64453 10.6562 8.39844C11.0391 8.15234 11.3125 7.74219 11.3125 7.25ZM10 15.5625C10.4648 15.5625 10.875 15.3164 11.1211 14.9062C11.3672 14.5234 11.3672 14.0039 11.1211 13.5938C10.875 13.2109 10.4648 12.9375 10 12.9375C9.50781 12.9375 9.09766 13.2109 8.85156 13.5938C8.60547 14.0039 8.60547 14.5234 8.85156 14.9062C9.09766 15.3164 9.50781 15.5625 10 15.5625Z" fill="black" fill-opacity="0.72"/>
</g>
<defs>
<clipPath id="clip0_3997_719">
<rect width="13" height="22" fill="white"/>
</clipPath>
</defs>
</svg>
