<svg width="14" height="22" viewBox="0 0 14 22" fill="none" xmlns="http://www.w3.org/2000/svg">
<g id="label-paired / sm / circle-check-sm / regular" clip-path="url(#clip0_2556_12813)">
<path id="icon" d="M7 4.625C4.78516 4.625 2.78906 5.80078 1.69531 7.6875C0.574219 9.60156 0.574219 11.9258 1.69531 13.8125C2.78906 15.7266 4.78516 16.875 7 16.875C9.1875 16.875 11.1836 15.7266 12.2773 13.8125C13.3984 11.9258 13.3984 9.60156 12.2773 7.6875C11.1836 5.80078 9.1875 4.625 7 4.625ZM7 17.75C4.48438 17.75 2.1875 16.4375 0.929688 14.25C-0.328125 12.0898 -0.328125 9.4375 0.929688 7.25C2.1875 5.08984 4.48438 3.75 7 3.75C9.48828 3.75 11.7852 5.08984 13.043 7.25C14.3008 9.4375 14.3008 12.0898 13.043 14.25C11.7852 16.4375 9.48828 17.75 7 17.75ZM9.92578 9.32812L6.42578 12.8281C6.26172 12.9922 5.96094 12.9922 5.79688 12.8281L4.04688 11.0781C3.88281 10.9141 3.88281 10.6133 4.04688 10.4492C4.21094 10.2852 4.51172 10.2852 4.67578 10.4492L6.125 11.8984L9.29688 8.69922C9.46094 8.53516 9.76172 8.53516 9.92578 8.69922C10.0898 8.86328 10.0898 9.16406 9.92578 9.32812Z" fill="black" fill-opacity="0.72"/>
</g>
<defs>
<clipPath id="clip0_2556_12813">
<rect width="14" height="22" fill="white"/>
</clipPath>
</defs>
</svg>
