<svg width="13" height="30" viewBox="0 0 13 30" fill="none" xmlns="http://www.w3.org/2000/svg">
<g id="label-paired / lg / question-lg / regular" clip-path="url(#clip0_3578_654)">
<path id="icon" d="M5.875 8C3.80469 8 2.125 9.67969 2.125 11.75C2.125 12.1016 1.8125 12.375 1.5 12.375C1.14844 12.375 0.875 12.1016 0.875 11.75C0.875 9.01562 3.10156 6.75 5.875 6.75H7.125C9.85938 6.75 12.125 9.01562 12.125 11.75C12.125 13.1562 11.4609 14.4453 10.3672 15.2656L7.98438 17.0625C7.4375 17.4531 7.125 18.1172 7.125 18.7812V19.25C7.125 19.6016 6.8125 19.875 6.5 19.875C6.14844 19.875 5.875 19.6016 5.875 19.25V18.7812C5.875 17.7266 6.38281 16.7109 7.24219 16.0469L9.625 14.25C10.4062 13.6641 10.875 12.7656 10.875 11.75C10.875 9.67969 9.19531 8 7.125 8H5.875ZM5.5625 23C5.5625 22.4922 5.95312 22.0625 6.5 22.0625C7.00781 22.0625 7.4375 22.4922 7.4375 23C7.4375 23.5469 7.00781 23.9375 6.5 23.9375C5.95312 23.9375 5.5625 23.5469 5.5625 23Z" fill="black" fill-opacity="0.72"/>
</g>
<defs>
<clipPath id="clip0_3578_654">
<rect width="13" height="30" fill="white"/>
</clipPath>
</defs>
</svg>
