<svg width="18" height="22" viewBox="0 0 18 22" fill="none" xmlns="http://www.w3.org/2000/svg">
<g id="label-paired / sm / chart-trend-up-sm / fill" clip-path="url(#clip0_2556_12848)">
<path id="icon" d="M17.2578 3.85938C17.6953 4.07812 17.8594 4.59766 17.6406 5.03516L15.0156 10.2852C14.8789 10.5859 14.5781 10.75 14.25 10.75H10.3945L7.14062 17.2852C6.92188 17.7227 6.40234 17.8867 5.96484 17.668L0.714844 15.043C0.277344 14.8242 0.113281 14.3047 0.332031 13.8672C0.550781 13.4297 1.07031 13.2656 1.50781 13.4844L5.96484 15.7266L9.08203 9.49219C9.21875 9.19141 9.51953 9 9.875 9H13.7031L16.082 4.24219C16.3008 3.80469 16.8203 3.64062 17.2578 3.85938Z" fill="black" fill-opacity="0.72"/>
</g>
<defs>
<clipPath id="clip0_2556_12848">
<rect width="18" height="22" fill="white"/>
</clipPath>
</defs>
</svg>
