<svg width="18" height="36" viewBox="0 0 18 36" fill="none" xmlns="http://www.w3.org/2000/svg">
<g id="label-paired / xl / computer-mouse-scrollwheel-xl / bold" clip-path="url(#clip0_2556_19395)">
<path id="icon" d="M15.75 22.5V13.5C15.75 10.6406 13.3594 8.25 10.5 8.25H7.5C4.59375 8.25 2.25 10.6406 2.25 13.5V22.5C2.25 25.4062 4.59375 27.75 7.5 27.75H10.5C13.3594 27.75 15.75 25.4062 15.75 22.5ZM0 13.5C0 9.375 3.32812 6 7.5 6H10.5C14.625 6 18 9.375 18 13.5V22.5C18 26.6719 14.625 30 10.5 30H7.5C3.32812 30 0 26.6719 0 22.5V13.5ZM9 10.5C9.79688 10.5 10.5 11.2031 10.5 12V13.5C10.5 14.3438 9.79688 15 9 15C8.15625 15 7.5 14.3438 7.5 13.5V12C7.5 11.2031 8.15625 10.5 9 10.5Z" fill="black" fill-opacity="0.72"/>
</g>
<defs>
<clipPath id="clip0_2556_19395">
<rect width="18" height="36" fill="white"/>
</clipPath>
</defs>
</svg>
