<svg width="24" height="36" viewBox="0 0 24 36" fill="none" xmlns="http://www.w3.org/2000/svg">
<g id="label-paired / xl / circle-three-xl / fill" clip-path="url(#clip0_2556_19546)">
<path id="icon" d="M12 30C7.6875 30 3.75 27.75 1.59375 24C-0.5625 20.2969 -0.5625 15.75 1.59375 12C3.75 8.29688 7.6875 6 12 6C16.2656 6 20.2031 8.29688 22.3594 12C24.5156 15.75 24.5156 20.2969 22.3594 24C20.2031 27.75 16.2656 30 12 30ZM8.625 12C7.96875 12 7.5 12.5156 7.5 13.125C7.5 13.7812 7.96875 14.25 8.625 14.25H11.7188L9.32812 16.4531C9 16.7344 8.85938 17.25 9.04688 17.6719C9.23438 18.0938 9.65625 18.375 10.125 18.375H12.5156C13.4531 18.375 14.2031 19.125 14.2031 20.0625C14.2031 21 13.4531 21.75 12.5156 21.75H11.2031C10.5938 21.75 10.0312 21.4688 9.65625 20.9062L9.5625 20.7188C9.23438 20.2031 8.53125 20.0156 8.01562 20.3438C7.5 20.6719 7.3125 21.375 7.64062 21.8906L7.78125 22.0781C8.48438 23.2969 9.79688 24 11.25 24H12.5156C14.7188 24 16.5 22.2656 16.5 20.0625C16.5 18.0469 14.9531 16.3594 12.9844 16.1719L15.375 13.9688C15.7031 13.6406 15.8438 13.1719 15.6562 12.75C15.4688 12.3281 15.0469 12 14.625 12H8.625Z" fill="black" fill-opacity="0.72"/>
</g>
<defs>
<clipPath id="clip0_2556_19546">
<rect width="24" height="36" fill="white"/>
</clipPath>
</defs>
</svg>
