<svg width="16" height="24" viewBox="0 0 16 24" fill="none" xmlns="http://www.w3.org/2000/svg">
<g id="label-paired / md / circle-chevron-right-md / fill" clip-path="url(#clip0_2556_15216)">
<path id="icon" d="M0 12C0 9.15625 1.5 6.53125 4 5.09375C6.46875 3.65625 9.5 3.65625 12 5.09375C14.4688 6.53125 16 9.15625 16 12C16 14.875 14.4688 17.5 12 18.9375C9.5 20.375 6.46875 20.375 4 18.9375C1.5 17.5 0 14.875 0 12ZM7.53125 15.7812L10.7812 12.5312C11.0625 12.25 11.0625 11.7812 10.7812 11.4688L7.53125 8.25C7.21875 7.9375 6.75 7.9375 6.46875 8.25C6.15625 8.53125 6.15625 9 6.46875 9.3125L9.1875 12.0312L6.46875 14.75C6.15625 15.0312 6.15625 15.5 6.46875 15.7812C6.75 16.0938 7.21875 16.0938 7.53125 15.7812Z" fill="black" fill-opacity="0.72"/>
</g>
<defs>
<clipPath id="clip0_2556_15216">
<rect width="16" height="24" fill="white"/>
</clipPath>
</defs>
</svg>
