<svg width="12" height="36" viewBox="0 0 12 36" fill="none" xmlns="http://www.w3.org/2000/svg">
<g id="label-paired / xl / one-xl / bold" clip-path="url(#clip0_2556_19607)">
<path id="icon" d="M7.125 8.625V26.25H10.875C11.4844 26.25 12 26.7656 12 27.375C12 28.0312 11.4844 28.5 10.875 28.5H6H1.125C0.46875 28.5 0 28.0312 0 27.375C0 26.7656 0.46875 26.25 1.125 26.25H4.875V10.6406L1.6875 12.6094C1.17188 12.9375 0.46875 12.75 0.140625 12.2344C-0.1875 11.7188 0 11.0156 0.515625 10.6875L5.39062 7.6875C5.71875 7.45312 6.1875 7.45312 6.51562 7.64062C6.89062 7.875 7.125 8.25 7.125 8.625Z" fill="black" fill-opacity="0.72"/>
</g>
<defs>
<clipPath id="clip0_2556_19607">
<rect width="12" height="36" fill="white"/>
</clipPath>
</defs>
</svg>
