<svg width="10" height="24" viewBox="0 0 10 24" fill="none" xmlns="http://www.w3.org/2000/svg">
<g id="label-paired / md / six-md / fill" clip-path="url(#clip0_2556_14826)">
<path id="icon" d="M7.25 6.65625L5.25 9.03125C7.875 9.15625 10 11.3438 10 14C10 16.7812 7.75 19 5 19C2.21875 19 0 16.7812 0 14C0 13.9688 0 13.9062 0 13.875C0.03125 12.7188 0.4375 11.5938 1.1875 10.7188L5.71875 5.375C6.0625 4.9375 6.71875 4.90625 7.125 5.25C7.5625 5.59375 7.59375 6.25 7.25 6.65625ZM8 14C8 12.9375 7.40625 11.9688 6.5 11.4062C5.5625 10.875 4.40625 10.875 3.5 11.4062C2.5625 11.9688 2 12.9375 2 14C2 15.0938 2.5625 16.0625 3.5 16.625C4.40625 17.1562 5.5625 17.1562 6.5 16.625C7.40625 16.0625 8 15.0938 8 14Z" fill="black" fill-opacity="0.72"/>
</g>
<defs>
<clipPath id="clip0_2556_14826">
<rect width="10" height="24" fill="white"/>
</clipPath>
</defs>
</svg>
