<svg width="12" height="24" viewBox="0 0 12 24" fill="none" xmlns="http://www.w3.org/2000/svg">
<g id="label-paired / md / computer-mouse-scrollwheel-md / regular" clip-path="url(#clip0_2556_15312)">
<path id="icon" d="M11 15V9C11 6.8125 9.1875 5 7 5H5C2.78125 5 1 6.8125 1 9V15C1 17.2188 2.78125 19 5 19H7C9.1875 19 11 17.2188 11 15ZM0 9C0 6.25 2.21875 4 5 4H7C9.75 4 12 6.25 12 9V15C12 17.7812 9.75 20 7 20H5C2.21875 20 0 17.7812 0 15V9ZM6.5 7.5V9.5C6.5 9.78125 6.25 10 6 10C5.71875 10 5.5 9.78125 5.5 9.5V7.5C5.5 7.25 5.71875 7 6 7C6.25 7 6.5 7.25 6.5 7.5Z" fill="black" fill-opacity="0.72"/>
</g>
<defs>
<clipPath id="clip0_2556_15312">
<rect width="12" height="24" fill="white"/>
</clipPath>
</defs>
</svg>
