<svg width="20" height="30" viewBox="0 0 20 30" fill="none" xmlns="http://www.w3.org/2000/svg">
<g id="label-paired / lg / circle-bookmark-lg / regular" clip-path="url(#clip0_2556_17550)">
<path id="icon" d="M10 6.75C6.83594 6.75 3.98438 8.42969 2.42188 11.125C0.820312 13.8594 0.820312 17.1797 2.42188 19.875C3.98438 22.6094 6.83594 24.25 10 24.25C13.125 24.25 15.9766 22.6094 17.5391 19.875C19.1406 17.1797 19.1406 13.8594 17.5391 11.125C15.9766 8.42969 13.125 6.75 10 6.75ZM10 25.5C6.40625 25.5 3.125 23.625 1.32812 20.5C-0.46875 17.4141 -0.46875 13.625 1.32812 10.5C3.125 7.41406 6.40625 5.5 10 5.5C13.5547 5.5 16.8359 7.41406 18.6328 10.5C20.4297 13.625 20.4297 17.4141 18.6328 20.5C16.8359 23.625 13.5547 25.5 10 25.5ZM7.5 12.375V18.5859L9.60938 16.9062C9.80469 16.7109 10.1562 16.7109 10.3906 16.9062L12.5 18.5859V12.375C12.5 12.0625 12.1875 11.75 11.875 11.75H8.125C7.77344 11.75 7.5 12.0625 7.5 12.375ZM8.125 10.5H11.875C12.8906 10.5 13.75 11.3594 13.75 12.375V19.875C13.75 20.1484 13.5938 20.3438 13.3594 20.4609C13.1641 20.5781 12.8906 20.5391 12.7344 20.3828L10 18.1953L7.26562 20.3828C7.07031 20.5391 6.79688 20.5391 6.60156 20.4609C6.36719 20.3438 6.25 20.1484 6.25 19.875V12.375C6.25 11.3594 7.07031 10.5 8.125 10.5Z" fill="black" fill-opacity="0.72"/>
</g>
<defs>
<clipPath id="clip0_2556_17550">
<rect width="20" height="30" fill="white"/>
</clipPath>
</defs>
</svg>
