<svg width="12" height="18" viewBox="0 0 12 18" fill="none" xmlns="http://www.w3.org/2000/svg">
<g id="label-paired / caption / gauge-min-caption / regular" clip-path="url(#clip0_2556_10627)">
<path id="icon" d="M6 4.25C4.10156 4.25 2.39062 5.25781 1.45312 6.875C0.492188 8.51562 0.492188 10.5078 1.45312 12.125C2.39062 13.7656 4.10156 14.75 6 14.75C7.875 14.75 9.58594 13.7656 10.5234 12.125C11.4844 10.5078 11.4844 8.51562 10.5234 6.875C9.58594 5.25781 7.875 4.25 6 4.25ZM6 15.5C3.84375 15.5 1.875 14.375 0.796875 12.5C-0.28125 10.6484 -0.28125 8.375 0.796875 6.5C1.875 4.64844 3.84375 3.5 6 3.5C8.13281 3.5 10.1016 4.64844 11.1797 6.5C12.2578 8.375 12.2578 10.6484 11.1797 12.5C10.1016 14.375 8.13281 15.5 6 15.5ZM6.5625 5.75C6.5625 6.07812 6.30469 6.3125 6 6.3125C5.67188 6.3125 5.4375 6.07812 5.4375 5.75C5.4375 5.44531 5.67188 5.1875 6 5.1875C6.30469 5.1875 6.5625 5.44531 6.5625 5.75ZM5.25 11.75C5.25 12.1719 5.57812 12.5 6 12.5C6.39844 12.5 6.75 12.1719 6.75 11.75C6.75 11.3516 6.39844 11 6 11C5.57812 11 5.25 11.3516 5.25 11.75ZM7.5 11.75L7.47656 11.7734C7.47656 12.5938 6.82031 13.2734 5.97656 13.2734C5.15625 13.2734 4.47656 12.5938 4.47656 11.7734C4.47656 11.6094 4.5 11.4688 4.54688 11.3281L2.03906 9.82812C1.875 9.73438 1.80469 9.5 1.92188 9.3125C2.01562 9.14844 2.25 9.07812 2.4375 9.19531L4.94531 10.6953C5.20312 10.4141 5.57812 10.25 6 10.25C6.82031 10.25 7.5 10.9297 7.5 11.75ZM3.9375 6.875C3.9375 7.20312 3.67969 7.4375 3.375 7.4375C3.04688 7.4375 2.8125 7.20312 2.8125 6.875C2.8125 6.57031 3.04688 6.3125 3.375 6.3125C3.67969 6.3125 3.9375 6.57031 3.9375 6.875ZM9.75 10.0625C9.42188 10.0625 9.1875 9.82812 9.1875 9.5C9.1875 9.19531 9.42188 8.9375 9.75 8.9375C10.0547 8.9375 10.3125 9.19531 10.3125 9.5C10.3125 9.82812 10.0547 10.0625 9.75 10.0625ZM9.1875 6.875C9.1875 7.20312 8.92969 7.4375 8.625 7.4375C8.29688 7.4375 8.0625 7.20312 8.0625 6.875C8.0625 6.57031 8.29688 6.3125 8.625 6.3125C8.92969 6.3125 9.1875 6.57031 9.1875 6.875Z" fill="black" fill-opacity="0.72"/>
</g>
<defs>
<clipPath id="clip0_2556_10627">
<rect width="12" height="18" fill="white"/>
</clipPath>
</defs>
</svg>
