<svg width="16" height="24" viewBox="0 0 16 24" fill="none" xmlns="http://www.w3.org/2000/svg">
<g id="label-paired / md / chevrons-right-md / regular" clip-path="url(#clip0_2556_14906)">
<path id="icon" d="M2.34375 18.375C2.15625 18.5625 1.8125 18.5625 1.625 18.375C1.4375 18.1875 1.4375 17.8438 1.625 17.6562L7.28125 12L1.625 6.375C1.4375 6.1875 1.4375 5.84375 1.625 5.65625C1.8125 5.46875 2.15625 5.46875 2.34375 5.65625L8.34375 11.6562C8.53125 11.8438 8.53125 12.1875 8.34375 12.375L2.34375 18.375ZM8.34375 18.375C8.15625 18.5625 7.8125 18.5625 7.625 18.375C7.4375 18.1875 7.4375 17.8438 7.625 17.6562L13.2812 12L7.625 6.375C7.4375 6.1875 7.4375 5.84375 7.625 5.65625C7.8125 5.46875 8.15625 5.46875 8.34375 5.65625L14.3438 11.6562C14.5312 11.8438 14.5312 12.1875 14.3438 12.375L8.34375 18.375Z" fill="black" fill-opacity="0.72"/>
</g>
<defs>
<clipPath id="clip0_2556_14906">
<rect width="16" height="24" fill="white"/>
</clipPath>
</defs>
</svg>
