<svg width="24" height="36" viewBox="0 0 24 36" fill="none" xmlns="http://www.w3.org/2000/svg">
<g id="label-paired / xl / circle-arrow-down-right-xl / fill" clip-path="url(#clip0_2556_19627)">
<path id="icon" d="M12 6C16.2656 6 20.2031 8.29688 22.3594 12C24.5156 15.75 24.5156 20.2969 22.3594 24C20.2031 27.75 16.2656 30 12 30C7.6875 30 3.75 27.75 1.59375 24C-0.5625 20.2969 -0.5625 15.75 1.59375 12C3.75 8.29688 7.6875 6 12 6ZM9 23.25H16.0781C16.7344 23.25 17.2031 22.7812 17.2031 22.125V14.625C17.2031 14.0156 16.7344 13.5 16.0781 13.5C15.4688 13.5 14.9531 14.0156 14.9531 14.625V19.4531L8.625 13.125C8.20312 12.6562 7.5 12.6562 7.07812 13.125C6.60938 13.5469 6.60938 14.25 7.07812 14.6719L13.4062 21H9C8.34375 21 7.875 21.5156 7.875 22.125C7.875 22.7812 8.34375 23.25 9 23.25Z" fill="black" fill-opacity="0.72"/>
</g>
<defs>
<clipPath id="clip0_2556_19627">
<rect width="24" height="36" fill="white"/>
</clipPath>
</defs>
</svg>
