<svg width="21" height="36" viewBox="0 0 21 36" fill="none" xmlns="http://www.w3.org/2000/svg">
<g id="label-paired / xl / flag-checkered-xl / regular" clip-path="url(#clip0_2556_19816)">
<path id="icon" d="M1.5 6.75V8.8125L6.09375 7.54688C8.01562 7.03125 10.0312 7.21875 11.8125 8.10938C13.7812 9.09375 16.125 9 18 7.92188L18.75 7.5C19.7344 6.9375 21 7.64062 21 8.8125V22.0312C21 22.6406 20.625 23.1562 20.0625 23.3906L18.6562 24C16.3125 25.0312 13.6406 24.9375 11.3438 23.8125C9.75 23.0156 7.96875 22.8281 6.23438 23.2969L1.5 24.6094V29.25C1.5 29.6719 1.125 30 0.75 30C0.328125 30 0 29.6719 0 29.25V24.9844V24V9.75V9.1875V6.75C0 6.375 0.328125 6 0.75 6C1.125 6 1.5 6.375 1.5 6.75ZM1.5 10.3594V13.2656L6 12.2812V9.09375L1.5 10.3594ZM1.5 14.8125V18.1406L6 17.1562V13.8281L1.5 14.8125ZM7.5 13.5V16.8281C8.53125 16.6406 9.60938 16.6875 10.6875 16.9688L13.5 17.8125V14.4844C13.4062 14.4844 13.3125 14.4375 13.2656 14.4375L10.2188 13.5469C9.375 13.3125 8.48438 13.2656 7.64062 13.4531L7.5 13.5ZM15 14.7656V18.1406C15.7031 18.1875 16.4062 18.1406 17.1094 17.9531L19.5 17.4375V14.1094L17.4375 14.5781C16.6406 14.7656 15.7969 14.8125 15 14.7656ZM13.5 19.3594C13.4062 19.3594 13.3125 19.3125 13.2656 19.3125L10.2188 18.4219C9.375 18.1875 8.48438 18.1406 7.64062 18.3281L7.5 18.375V21.5625C9.04688 21.4219 10.5938 21.75 12.0469 22.4531C12.5156 22.6875 12.9844 22.875 13.5 23.0156V19.3594ZM15 23.2031C16.0312 23.25 17.0625 23.0625 18.0469 22.6406L19.5 22.0312V18.9844L17.4375 19.4531C16.6406 19.6406 15.7969 19.6875 15 19.6406V23.2031ZM15 13.2188V13.2656C15.7031 13.3125 16.4062 13.2656 17.1094 13.0781L19.5 12.5625V8.8125L18.75 9.23438C17.5781 9.89062 16.2656 10.2656 15 10.2656V13.2188ZM13.5 10.1719C12.6562 10.0781 11.9062 9.79688 11.1562 9.42188C9.98438 8.85938 8.71875 8.67188 7.5 8.8125V11.9531C8.53125 11.7656 9.60938 11.8125 10.6406 12.0938L13.5 12.9375V10.1719ZM1.5 19.6875V23.0625L5.85938 21.8438C5.90625 21.8438 5.95312 21.8438 6 21.7969V18.7031L1.5 19.6875Z" fill="black" fill-opacity="0.72"/>
</g>
<defs>
<clipPath id="clip0_2556_19816">
<rect width="21" height="36" fill="white"/>
</clipPath>
</defs>
</svg>
