<svg width="30" height="36" viewBox="0 0 30 36" fill="none" xmlns="http://www.w3.org/2000/svg">
<g id="label-paired / xl / messages-question-xl / bold" clip-path="url(#clip0_2556_19445)">
<path id="icon" d="M3.375 8.25C2.71875 8.25 2.25 8.76562 2.25 9.375V17.625C2.25 18.2812 2.71875 18.75 3.375 18.75H5.625C6.23438 18.75 6.75 19.2656 6.75 19.875V20.8125L9.46875 18.9375C9.65625 18.8438 9.89062 18.75 10.125 18.75H16.125C16.7344 18.75 17.25 18.2812 17.25 17.625V9.375C17.25 8.76562 16.7344 8.25 16.125 8.25H3.375ZM0 9.375C0 7.54688 1.5 6 3.375 6H16.125C17.9531 6 19.5 7.54688 19.5 9.375V17.625C19.5 19.5 17.9531 21 16.125 21H10.4531L6.23438 23.8125C5.85938 24.0469 5.4375 24.0938 5.0625 23.9062C4.6875 23.6719 4.5 23.2969 4.5 22.875V21H3.375C1.5 21 0 19.5 0 17.625V9.375ZM12 22.5H14.25V23.625C14.25 24.2812 14.7188 24.75 15.375 24.75H19.875C20.0625 24.75 20.2969 24.8438 20.4844 24.9375L23.25 26.8125V25.875C23.25 25.2656 23.7188 24.75 24.375 24.75H26.625C27.2344 24.75 27.75 24.2812 27.75 23.625V15.375C27.75 14.7656 27.2344 14.25 26.625 14.25H21V12H26.625C28.4531 12 30 13.5469 30 15.375V23.625C30 25.5 28.4531 27 26.625 27H25.5V28.875C25.5 29.2969 25.2656 29.6719 24.8906 29.9062C24.5156 30.0938 24.0938 30.0469 23.7188 29.8125L19.5 27H15.375C13.5 27 12 25.5 12 23.625V22.5ZM6.89062 10.5469C7.17188 9.79688 7.875 9.32812 8.625 9.32812H10.5469C11.6719 9.32812 12.6094 10.2188 12.6094 11.3906C12.6094 12.0938 12.1875 12.7969 11.5781 13.125L10.5 13.7812C10.5 14.2031 10.125 14.5312 9.75 14.5312C9.32812 14.5312 9 14.2031 9 13.7812V13.3594C9 13.0781 9.14062 12.8438 9.375 12.7031L10.8281 11.8594C11.0156 11.7656 11.1094 11.5781 11.1094 11.3906C11.1094 11.0625 10.875 10.8281 10.5469 10.8281H8.625C8.48438 10.8281 8.39062 10.9219 8.34375 11.0156L8.29688 11.0625C8.15625 11.4375 7.73438 11.6719 7.35938 11.5312C6.98438 11.3906 6.75 10.9688 6.89062 10.5469ZM8.67188 16.6875C8.625 16.3125 8.8125 15.9375 9.1875 15.75C9.51562 15.5156 9.9375 15.5156 10.2656 15.75C10.5938 15.9375 10.8281 16.3125 10.7812 16.6875C10.8281 17.1094 10.5938 17.4844 10.2656 17.6719C9.9375 17.9062 9.51562 17.9062 9.1875 17.6719C8.8125 17.4844 8.625 17.1094 8.67188 16.6875Z" fill="black" fill-opacity="0.72"/>
</g>
<defs>
<clipPath id="clip0_2556_19445">
<rect width="30" height="36" fill="white"/>
</clipPath>
</defs>
</svg>
