<svg width="24" height="36" viewBox="0 0 24 36" fill="none" xmlns="http://www.w3.org/2000/svg">
<g id="label-paired / xl / scissors-xl / regular" clip-path="url(#clip0_2556_19367)">
<path id="icon" d="M23.8125 26.7656C23.5312 27.0938 23.0625 27.0938 22.7344 26.8594L15.6094 20.7656C15.2812 20.5312 15.2812 20.0156 15.5156 19.7344C15.7969 19.4062 16.2656 19.3594 16.5938 19.6406L23.7188 25.6875C24.0469 25.9688 24.0469 26.4375 23.8125 26.7656ZM13.4531 17.0625L22.7344 9.1875C23.0625 8.95312 23.5312 8.95312 23.8125 9.28125C24.0469 9.60938 24.0469 10.0781 23.7188 10.3594L9.75 22.125C10.2188 22.875 10.5 23.8125 10.5 24.75C10.5 27.6562 8.10938 30 5.25 30C2.34375 30 0 27.6562 0 24.75C0 21.8906 2.34375 19.5 5.25 19.5C6.60938 19.5 7.875 20.0625 8.8125 20.9531L12.2812 18L8.8125 15.0938C7.875 15.9844 6.60938 16.5 5.25 16.5C2.34375 16.5 0 14.1562 0 11.25C0 8.39062 2.34375 6 5.25 6C8.10938 6 10.5 8.39062 10.5 11.2969C10.5 12.2344 10.2188 13.1719 9.75 13.9219L13.4531 17.0625ZM5.25 15C6.5625 15 7.78125 14.2969 8.48438 13.125C9.14062 12 9.14062 10.5469 8.48438 9.375C7.78125 8.25 6.5625 7.5 5.25 7.5C3.89062 7.5 2.67188 8.25 1.96875 9.375C1.3125 10.5469 1.3125 12 1.96875 13.125C2.67188 14.2969 3.89062 15 5.25 15ZM5.25 21C3.89062 21 2.67188 21.75 1.96875 22.875C1.3125 24.0469 1.3125 25.5 1.96875 26.625C2.67188 27.7969 3.89062 28.5 5.25 28.5C6.5625 28.5 7.78125 27.7969 8.48438 26.625C9.14062 25.5 9.14062 24.0469 8.48438 22.875C7.78125 21.75 6.5625 21 5.25 21Z" fill="black" fill-opacity="0.72"/>
</g>
<defs>
<clipPath id="clip0_2556_19367">
<rect width="24" height="36" fill="white"/>
</clipPath>
</defs>
</svg>
