<svg width="10" height="24" viewBox="0 0 10 24" fill="none" xmlns="http://www.w3.org/2000/svg">
<g id="label-paired / md / three-md / regular" clip-path="url(#clip0_2556_14841)">
<path id="icon" d="M0 5.5C0 5.25 0.21875 5 0.5 5H9C9.1875 5 9.375 5.125 9.4375 5.34375C9.53125 5.53125 9.46875 5.75 9.3125 5.875L3.75 11H6C8.1875 11 10 12.8125 10 15C10 17.2188 8.1875 19 6 19H2.78125C1.65625 19 0.59375 18.375 0.09375 17.3438L0.03125 17.25C-0.09375 17 0 16.6875 0.25 16.5625C0.5 16.4375 0.8125 16.5312 0.9375 16.7812L1 16.9062C1.34375 17.5938 2.03125 18 2.78125 18H6C7.65625 18 9 16.6562 9 15C9 13.3438 7.65625 12 6 12H2.5C2.28125 12 2.09375 11.875 2.03125 11.6875C1.9375 11.5 2 11.2812 2.15625 11.1562L7.71875 6H0.5C0.21875 6 0 5.78125 0 5.5Z" fill="black" fill-opacity="0.72"/>
</g>
<defs>
<clipPath id="clip0_2556_14841">
<rect width="10" height="24" fill="white"/>
</clipPath>
</defs>
</svg>
