<svg width="6" height="36" viewBox="0 0 6 36" fill="none" xmlns="http://www.w3.org/2000/svg">
<g id="label-paired / xl / ellipsis-vertical-xl / bold" clip-path="url(#clip0_2556_19689)">
<path id="icon" d="M3 23.25C3.79688 23.25 4.5 23.7188 4.92188 24.375C5.34375 25.0781 5.34375 25.9688 4.92188 26.625C4.5 27.3281 3.79688 27.75 3 27.75C2.15625 27.75 1.45312 27.3281 1.03125 26.625C0.609375 25.9688 0.609375 25.0781 1.03125 24.375C1.45312 23.7188 2.15625 23.25 3 23.25ZM3 15.75C3.79688 15.75 4.5 16.2188 4.92188 16.875C5.34375 17.5781 5.34375 18.4688 4.92188 19.125C4.5 19.8281 3.79688 20.25 3 20.25C2.15625 20.25 1.45312 19.8281 1.03125 19.125C0.609375 18.4688 0.609375 17.5781 1.03125 16.875C1.45312 16.2188 2.15625 15.75 3 15.75ZM5.25 10.5C5.25 11.3438 4.78125 12.0469 4.125 12.4688C3.42188 12.8906 2.53125 12.8906 1.875 12.4688C1.17188 12.0469 0.75 11.3438 0.75 10.5C0.75 9.70312 1.17188 9 1.875 8.57812C2.53125 8.15625 3.42188 8.15625 4.125 8.57812C4.78125 9 5.25 9.70312 5.25 10.5Z" fill="black" fill-opacity="0.72"/>
</g>
<defs>
<clipPath id="clip0_2556_19689">
<rect width="6" height="36" fill="white"/>
</clipPath>
</defs>
</svg>
