<svg width="18" height="22" viewBox="0 0 18 22" fill="none" xmlns="http://www.w3.org/2000/svg">
<g id="label-paired / sm / bell-slash-sm / fill" clip-path="url(#clip0_2556_12850)">
<path id="icon" d="M1.28906 3.91406L5.33594 7.05859C5.96484 6.10156 6.94922 5.39062 8.125 5.17188V4.625C8.125 4.16016 8.50781 3.75 9 3.75C9.46484 3.75 9.875 4.16016 9.875 4.625V5.17188C11.8711 5.55469 13.375 7.33203 13.375 9.4375V9.95703C13.375 11.2422 13.8398 12.5 14.6875 13.457L14.8789 13.6758C15.125 13.9492 15.1797 14.3047 15.043 14.6328C15.043 14.6328 15.0156 14.6328 15.0156 14.6602L17.4766 16.6016C17.7773 16.8203 17.832 17.2305 17.5859 17.5039C17.3672 17.8047 16.957 17.8594 16.6836 17.6133L0.496094 4.92578C0.195312 4.70703 0.140625 4.29688 0.386719 4.02344C0.605469 3.72266 1.01562 3.66797 1.28906 3.91406ZM11.3516 15.125H3.75C3.39453 15.125 3.06641 14.9336 2.92969 14.6328C2.79297 14.3047 2.84766 13.9492 3.09375 13.6758L3.28516 13.457C4.13281 12.5 4.625 11.2422 4.625 9.95703V9.84766L11.3516 15.125ZM10.2305 17.2578C9.90234 17.5859 9.46484 17.75 9 17.75C8.53516 17.75 8.07031 17.5859 7.74219 17.2578C7.41406 16.9297 7.25 16.4648 7.25 16H9H10.75C10.75 16.4648 10.5586 16.9297 10.2305 17.2578Z" fill="black" fill-opacity="0.72"/>
</g>
<defs>
<clipPath id="clip0_2556_12850">
<rect width="18" height="22" fill="white"/>
</clipPath>
</defs>
</svg>
