<svg width="18" height="30" viewBox="0 0 18 30" fill="none" xmlns="http://www.w3.org/2000/svg">
<g id="label-paired / lg / arrow-down-to-bracket-lg / bold" clip-path="url(#clip0_2556_17525)">
<path id="icon" d="M14.6641 13.9766L9.66406 18.9766C9.27344 19.3672 8.6875 19.3672 8.33594 18.9766L3.33594 13.9766C2.94531 13.625 2.94531 13.0391 3.33594 12.6875C3.6875 12.2969 4.27344 12.2969 4.625 12.6875L8.02344 16.0859V6.4375C8.02344 5.92969 8.45312 5.5 8.96094 5.5C9.50781 5.5 9.89844 5.92969 9.89844 6.4375V16.0859L13.2969 12.6875C13.6875 12.2969 14.2734 12.2969 14.625 12.6875C15.0156 13.0391 15.0156 13.625 14.625 13.9766H14.6641ZM2.125 18.9375V22.0625C2.125 22.9609 2.78906 23.625 3.6875 23.625H14.3125C15.1719 23.625 15.875 22.9609 15.875 22.0625V18.9375C15.875 18.4297 16.2656 18 16.8125 18C17.3203 18 17.75 18.4297 17.75 18.9375V22.0625C17.75 23.9766 16.1875 25.5 14.3125 25.5H3.6875C1.77344 25.5 0.25 23.9766 0.25 22.0625V18.9375C0.25 18.4297 0.640625 18 1.1875 18C1.69531 18 2.125 18.4297 2.125 18.9375Z" fill="black" fill-opacity="0.72"/>
</g>
<defs>
<clipPath id="clip0_2556_17525">
<rect width="18" height="30" fill="white"/>
</clipPath>
</defs>
</svg>
