<svg width="20" height="30" viewBox="0 0 20 30" fill="none" xmlns="http://www.w3.org/2000/svg">
<g id="label-paired / lg / pen-circle-lg / fill" clip-path="url(#clip0_2556_17205)">
<path id="icon" d="M10 25.5C6.40625 25.5 3.125 23.625 1.32812 20.5C-0.46875 17.4141 -0.46875 13.625 1.32812 10.5C3.125 7.41406 6.40625 5.5 10 5.5C13.5547 5.5 16.8359 7.41406 18.6328 10.5C20.4297 13.625 20.4297 17.4141 18.6328 20.5C16.8359 23.625 13.5547 25.5 10 25.5ZM13.9453 10.9688C13.3594 10.3828 12.3438 10.3828 11.7578 10.9688L10.8984 11.8281L13.6719 14.6016L14.5312 13.7422C15.1172 13.1172 15.1172 12.1406 14.5312 11.5547L13.9453 10.9688ZM5.89844 16.7891C5.74219 16.9453 5.625 17.1797 5.58594 17.375L5 19.7188C4.96094 19.9531 5 20.1875 5.15625 20.3438C5.3125 20.5 5.54688 20.5391 5.74219 20.5L8.125 19.9141C8.32031 19.8359 8.51562 19.7188 8.67188 19.5625L12.8125 15.4609L10.0391 12.6875L5.89844 16.7891Z" fill="black" fill-opacity="0.72"/>
</g>
<defs>
<clipPath id="clip0_2556_17205">
<rect width="20" height="30" fill="white"/>
</clipPath>
</defs>
</svg>
