<svg width="20" height="24" viewBox="0 0 20 24" fill="none" xmlns="http://www.w3.org/2000/svg">
<g id="label-paired / md / eye-slash-md / fill" clip-path="url(#clip0_2556_15271)">
<path id="icon" d="M1.1875 4.1875L4.6875 6.90625C6.09375 5.84375 7.84375 5 10 5C12.5 5 14.5312 6.15625 16 7.53125C17.4688 8.875 18.4375 10.5 18.9062 11.625C19 11.875 19 12.1562 18.9062 12.4062C18.5 13.4062 17.6562 14.8438 16.4062 16.0938L19.6875 18.6875C20.0312 18.9375 20.0938 19.4062 19.8125 19.7188C19.5625 20.0625 19.0938 20.125 18.7812 19.8438L0.28125 5.34375C-0.0625 5.09375 -0.125 4.625 0.15625 4.3125C0.40625 3.96875 0.875 3.90625 1.1875 4.1875ZM6.96875 8.6875L9.78125 10.9062C9.90625 10.625 10 10.3438 10 10.0312C10 9.78125 9.9375 9.59375 9.875 9.375C9.84375 9.21875 9.9375 9 10.125 9.03125C11.4062 9.0625 12.5312 9.9375 12.875 11.25C13.0625 11.9375 13 12.625 12.75 13.2188L13.9375 14.1562C14.2812 13.5312 14.5 12.7812 14.5 12C14.5 9.53125 12.4688 7.5 10 7.5C8.8125 7.5 7.75 7.96875 6.96875 8.6875ZM11.6562 16.1875L13.9375 18C12.7812 18.625 11.4688 19 10 19C7.46875 19 5.4375 17.875 3.96875 16.5C2.5 15.125 1.53125 13.5 1.0625 12.4062C0.96875 12.1562 0.96875 11.875 1.0625 11.625C1.375 10.9062 1.875 10 2.59375 9.0625L5.53125 11.375C5.5 11.5938 5.5 11.8125 5.5 12C5.5 14.5 7.5 16.5 10 16.5C10.5625 16.5 11.125 16.4062 11.6562 16.1875Z" fill="black" fill-opacity="0.72"/>
</g>
<defs>
<clipPath id="clip0_2556_15271">
<rect width="20" height="24" fill="white"/>
</clipPath>
</defs>
</svg>
