<svg width="18" height="22" viewBox="0 0 18 22" fill="none" xmlns="http://www.w3.org/2000/svg">
<g id="label-paired / sm / lock-pattern-sm / regular" clip-path="url(#clip0_2556_12367)">
<path id="icon" d="M2.4375 5.5C2.4375 4.78906 3.01172 4.1875 3.75 4.1875C4.29688 4.1875 4.78906 4.57031 4.98047 5.0625H7.74219C7.93359 4.57031 8.42578 4.1875 9 4.1875C9.54688 4.1875 10.0391 4.57031 10.2305 5.0625H12.9922C13.1836 4.57031 13.6758 4.1875 14.25 4.1875C14.9609 4.1875 15.5625 4.78906 15.5625 5.5C15.5625 6.23828 14.9609 6.8125 14.25 6.8125C14.0312 6.8125 13.8398 6.78516 13.6758 6.70312L10.1758 10.2031C10.2578 10.3672 10.3125 10.5586 10.3125 10.75C10.3125 11.4883 9.71094 12.0625 9 12.0625C8.78125 12.0625 8.58984 12.0352 8.42578 11.9531L4.92578 15.4531C4.95312 15.4805 4.95312 15.5352 4.98047 15.5625H7.74219C7.93359 15.0703 8.42578 14.6875 9 14.6875C9.54688 14.6875 10.0391 15.0703 10.2305 15.5625H12.9922C13.1836 15.0703 13.6758 14.6875 14.25 14.6875C14.9609 14.6875 15.5625 15.2891 15.5625 16C15.5625 16.7383 14.9609 17.3125 14.25 17.3125C13.6758 17.3125 13.1836 16.957 12.9922 16.4375H10.2305C10.0391 16.957 9.54688 17.3125 9 17.3125C8.42578 17.3125 7.93359 16.957 7.74219 16.4375H4.98047C4.78906 16.957 4.29688 17.3125 3.72266 17.3125C3.01172 17.3125 2.41016 16.7383 2.41016 16C2.41016 15.2891 3.01172 14.6875 3.72266 14.6875C3.94141 14.6875 4.13281 14.7422 4.29688 14.8242L7.79688 11.3242C7.71484 11.1602 7.66016 10.9688 7.66016 10.75C7.66016 10.0391 8.26172 9.4375 8.97266 9.4375C9.19141 9.4375 9.38281 9.49219 9.54688 9.57422L13.0469 6.07422C13.0195 6.04688 13.0195 5.99219 12.9922 5.9375H10.2305C10.0391 6.45703 9.54688 6.8125 9 6.8125C8.42578 6.8125 7.93359 6.45703 7.74219 5.9375H4.98047C4.78906 6.45703 4.29688 6.8125 3.75 6.8125C3.01172 6.8125 2.4375 6.23828 2.4375 5.5ZM2.4375 10.75C2.4375 11.2422 2.68359 11.6523 3.09375 11.8984C3.47656 12.1445 3.99609 12.1445 4.40625 11.8984C4.78906 11.6523 5.0625 11.2422 5.0625 10.75C5.0625 10.2852 4.78906 9.875 4.40625 9.62891C3.99609 9.38281 3.47656 9.38281 3.09375 9.62891C2.68359 9.875 2.4375 10.2852 2.4375 10.75ZM12.9375 10.75C12.9375 11.2422 13.1836 11.6523 13.5938 11.8984C13.9766 12.1445 14.4961 12.1445 14.9062 11.8984C15.2891 11.6523 15.5625 11.2422 15.5625 10.75C15.5625 10.2852 15.2891 9.875 14.9062 9.62891C14.4961 9.38281 13.9766 9.38281 13.5938 9.62891C13.1836 9.875 12.9375 10.2852 12.9375 10.75Z" fill="black" fill-opacity="0.72"/>
</g>
<defs>
<clipPath id="clip0_2556_12367">
<rect width="18" height="22" fill="white"/>
</clipPath>
</defs>
</svg>
