<svg width="24" height="36" viewBox="0 0 24 36" fill="none" xmlns="http://www.w3.org/2000/svg">
<g id="label-paired / xl / circle-seven-xl / bold" clip-path="url(#clip0_2556_19720)">
<path id="icon" d="M12 8.25C8.48438 8.25 5.29688 10.125 3.51562 13.125C1.78125 16.1719 1.78125 19.875 3.51562 22.875C5.29688 25.9219 8.48438 27.75 12 27.75C15.4688 27.75 18.6562 25.9219 20.4375 22.875C22.1719 19.875 22.1719 16.1719 20.4375 13.125C18.6562 10.125 15.4688 8.25 12 8.25ZM12 30C7.6875 30 3.75 27.75 1.59375 24C-0.5625 20.2969 -0.5625 15.75 1.59375 12C3.75 8.29688 7.6875 6 12 6C16.2656 6 20.2031 8.29688 22.3594 12C24.5156 15.75 24.5156 20.2969 22.3594 24C20.2031 27.75 16.2656 30 12 30ZM8.625 12H15.375C15.75 12 16.125 12.2344 16.3125 12.5625C16.5 12.8906 16.5469 13.3125 16.3594 13.6875L11.1094 23.4375C10.7812 23.9531 10.125 24.1875 9.5625 23.9062C9 23.5781 8.8125 22.9219 9.09375 22.3594L13.4531 14.25H8.625C7.96875 14.25 7.5 13.7812 7.5 13.125C7.5 12.5156 7.96875 12 8.625 12Z" fill="black" fill-opacity="0.72"/>
</g>
<defs>
<clipPath id="clip0_2556_19720">
<rect width="24" height="36" fill="white"/>
</clipPath>
</defs>
</svg>
