<svg width="9" height="18" viewBox="0 0 9 18" fill="none" xmlns="http://www.w3.org/2000/svg">
<g id="label-paired / caption / lightbulb-caption / fill" clip-path="url(#clip0_2556_10100)">
<path id="icon" d="M6.375 12.5H2.625C2.39062 11.7734 1.92188 11.1172 1.45312 10.4844C1.33594 10.3203 1.21875 10.1562 1.10156 9.99219C0.632812 9.3125 0.375 8.51562 0.375 7.625C0.375 5.35156 2.20312 3.5 4.5 3.5C6.77344 3.5 8.625 5.35156 8.625 7.64844C8.625 8.51562 8.34375 9.3125 7.875 9.99219C7.75781 10.1562 7.64062 10.3203 7.52344 10.4844C7.05469 11.1172 6.58594 11.7734 6.375 12.5ZM4.5 15.5C3.44531 15.5 2.625 14.6797 2.625 13.625V13.25H6.375V13.625C6.375 14.6797 5.53125 15.5 4.5 15.5ZM2.625 7.625C2.625 6.59375 3.44531 5.75 4.5 5.75C4.6875 5.75 4.875 5.58594 4.875 5.375C4.875 5.1875 4.6875 5 4.5 5C3.04688 5 1.875 6.19531 1.875 7.625C1.875 7.83594 2.03906 8 2.25 8C2.4375 8 2.625 7.83594 2.625 7.625Z" fill="black" fill-opacity="0.72"/>
</g>
<defs>
<clipPath id="clip0_2556_10100">
<rect width="9" height="18" fill="white"/>
</clipPath>
</defs>
</svg>
