<svg width="18" height="24" viewBox="0 0 18 24" fill="none" xmlns="http://www.w3.org/2000/svg">
<g id="label-paired / md / arrow-down-one-nine-md / fill" clip-path="url(#clip0_2556_15124)">
<path id="icon" d="M14.0625 5.1875C14.3438 5.40625 14.5 5.6875 14.5 6V9H15C15.5312 9 16 9.46875 16 10C16 10.5625 15.5312 11 15 11H13.5H12C11.4375 11 11 10.5625 11 10C11 9.46875 11.4375 9 12 9H12.5V7.40625L12.3125 7.46875C11.7812 7.625 11.2188 7.34375 11.0312 6.84375C10.875 6.3125 11.1562 5.75 11.6562 5.5625L13.1562 5.0625C13.4688 4.96875 13.8125 5 14.0625 5.1875ZM5 19C4.71875 19 4.4375 18.9062 4.25 18.6875L1.5 15.6875C1.125 15.2812 1.15625 14.6562 1.5625 14.2812C1.96875 13.9062 2.59375 13.9375 2.96875 14.3438L4 15.4375V6C4 5.46875 4.4375 5 5 5C5.53125 5 6 5.46875 6 6V15.4375L7 14.3438C7.375 13.9375 8 13.9062 8.40625 14.2812C8.8125 14.6562 8.84375 15.2812 8.46875 15.6875L5.71875 18.6875C5.53125 18.9062 5.28125 19 5 19ZM13.0625 13.5938C12.5625 13.8438 12.3438 14.4375 12.5938 14.9375C12.8125 15.4375 13.4062 15.6562 13.9062 15.4062C14.4062 15.1875 14.625 14.5938 14.375 14.0938C14.1562 13.5938 13.5625 13.375 13.0625 13.5938ZM12.6562 17.125C11.5312 16.7812 10.75 15.75 10.75 14.5312C10.75 13 11.9688 11.7812 13.5 11.7812C15 11.7812 16.25 13 16.25 14.5312C16.25 15.25 16 15.9688 15.5625 16.5625L14.0312 18.625C13.7188 19.0625 13.0938 19.1562 12.6562 18.8125C12.1875 18.5 12.0938 17.875 12.4375 17.4062L12.6562 17.125Z" fill="black" fill-opacity="0.72"/>
</g>
<defs>
<clipPath id="clip0_2556_15124">
<rect width="18" height="24" fill="white"/>
</clipPath>
</defs>
</svg>
