<svg width="27" height="36" viewBox="0 0 27 36" fill="none" xmlns="http://www.w3.org/2000/svg">
<g id="label-paired / xl / file-shield-xl / regular" clip-path="url(#clip0_2556_19299)">
<path id="icon" d="M15 28.5C15.0469 28.5 15.0938 28.5 15.1406 28.5C15.5156 28.9219 15.9375 29.2969 16.4062 29.6719C15.9844 29.9062 15.4688 30.0469 15 30.0469H3C1.3125 30.0469 0 28.6875 0 27.0469V9C0 7.35938 1.3125 6 3 6H10.3125C10.875 6 11.4844 6.28125 11.9062 6.70312L17.2969 12.0938C17.7188 12.5156 18 13.125 18 13.6875V15.7031L16.5 16.3125V15H11.25C9.98438 15 9 14.0156 9 12.75V7.5H3C2.15625 7.5 1.5 8.20312 1.5 9V27C1.5 27.8438 2.15625 28.5 3 28.5H15ZM16.4531 13.5C16.4062 13.4062 16.3594 13.2656 16.2656 13.1719L10.8281 7.73438C10.7344 7.64062 10.5938 7.59375 10.5 7.54688V12.75C10.5 13.1719 10.8281 13.5 11.25 13.5H16.4531ZM15 20.1562C15.0469 22.6406 16.0312 26.2031 19.5 28.125V18.3281L15 20.1562ZM25.5 20.1562L21 18.3281V28.125C24.4219 26.2031 25.4062 22.6406 25.4531 20.1562H25.5ZM20.6719 16.5938L26.2969 18.8438C26.7188 19.0312 27 19.4531 27 19.875C27 22.875 25.7812 27.7969 20.6719 29.9531C20.3906 30.0469 20.0625 30.0469 19.7812 29.9531C14.6719 27.7969 13.5 22.875 13.5 19.875C13.5 19.4531 13.7812 19.0312 14.2031 18.8438L19.8281 16.5938C20.0625 16.5 20.3906 16.5 20.625 16.5938H20.6719Z" fill="black" fill-opacity="0.72"/>
</g>
<defs>
<clipPath id="clip0_2556_19299">
<rect width="27" height="36" fill="white"/>
</clipPath>
</defs>
</svg>
