<svg width="20" height="30" viewBox="0 0 20 30" fill="none" xmlns="http://www.w3.org/2000/svg">
<g id="label-paired / lg / file-xml-lg / bold" clip-path="url(#clip0_3816_34)">
<path id="icon" d="M2.5 23.625H4.375V25.5H2.5C1.09375 25.5 0 24.4062 0 23V8C0 6.63281 1.09375 5.5 2.5 5.5H8.94531C9.60938 5.5 10.2344 5.77344 10.7031 6.24219L14.2578 9.79688C14.7266 10.2656 15 10.8906 15 11.5547V17.375H13.125V11.75H10C9.29688 11.75 8.75 11.2031 8.75 10.5V7.375H2.5C2.14844 7.375 1.875 7.6875 1.875 8V23C1.875 23.3516 2.14844 23.625 2.5 23.625ZM7.5 19.875C7.5 20.1875 7.57812 20.4609 7.73438 20.6953L8.125 21.2812L8.47656 20.6953C8.63281 20.4609 8.75 20.1875 8.75 19.875C8.75 19.5625 9.02344 19.25 9.375 19.25C9.6875 19.25 10 19.5625 10 19.875C10 20.4219 9.84375 20.9297 9.53125 21.3984L8.86719 22.375L9.53125 23.3906C9.84375 23.8594 10 24.3672 10 24.875C10 25.2266 9.6875 25.5 9.375 25.5C9.02344 25.5 8.75 25.2266 8.75 24.875C8.75 24.6016 8.63281 24.3281 8.47656 24.0938L8.125 23.5078L7.73438 24.0938C7.57812 24.3281 7.5 24.6016 7.5 24.875C7.5 25.2266 7.1875 25.5 6.875 25.5C6.52344 25.5 6.25 25.2266 6.25 24.875C6.25 24.3672 6.40625 23.8203 6.67969 23.3906L7.34375 22.375L6.67969 21.3984C6.40625 20.9297 6.25 20.4219 6.25 19.875C6.25 19.5625 6.52344 19.25 6.875 19.25C7.1875 19.25 7.5 19.5625 7.5 19.875ZM17.5 24.875V19.875C17.5 19.5625 17.7734 19.25 18.125 19.25C18.4375 19.25 18.75 19.5625 18.75 19.875V24.25H19.375C19.6875 24.25 20 24.5625 20 24.875C20 25.2266 19.6875 25.5 19.375 25.5H18.125C17.7734 25.5 17.5 25.2266 17.5 24.875ZM11.6797 19.2891C11.9531 19.2109 12.2656 19.3281 12.3828 19.5625L13.75 21.7891L15.0781 19.5625C15.2344 19.3281 15.5078 19.2109 15.7812 19.2891C16.0547 19.3672 16.25 19.6016 16.25 19.875V24.875C16.25 25.2266 15.9375 25.5 15.625 25.5C15.2734 25.5 15 25.2266 15 24.875V22.1406L14.2578 23.3516C14.1406 23.5469 13.9453 23.6641 13.75 23.6641C13.5156 23.6641 13.3203 23.5469 13.2031 23.3516L12.5 22.1406V24.875C12.5 25.2266 12.1875 25.5 11.875 25.5C11.5234 25.5 11.25 25.2266 11.25 24.875V19.875C11.25 19.6016 11.4062 19.3672 11.6797 19.2891Z" fill="black" fill-opacity="0.72"/>
</g>
<defs>
<clipPath id="clip0_3816_34">
<rect width="20" height="30" fill="white"/>
</clipPath>
</defs>
</svg>
