<svg width="23" height="30" viewBox="0 0 23 30" fill="none" xmlns="http://www.w3.org/2000/svg">
<g id="label-paired / lg / memo-circle-check-lg / regular" clip-path="url(#clip0_2556_16911)">
<path id="icon" d="M12.75 6.75H2.75C2.04688 6.75 1.5 7.33594 1.5 8V23C1.5 23.7031 2.04688 24.25 2.75 24.25H11.8125C12.2031 24.7188 12.6328 25.1484 13.1016 25.5C12.9844 25.5 12.8672 25.5 12.75 25.5H2.75C1.34375 25.5 0.25 24.4062 0.25 23V8C0.25 6.63281 1.34375 5.5 2.75 5.5H12.75C14.1172 5.5 15.25 6.63281 15.25 8V13.2734C14.7812 13.3906 14.3906 13.5469 14 13.7812V8C14 7.33594 13.4141 6.75 12.75 6.75ZM2.75 11.125C2.75 10.8125 3.02344 10.5 3.375 10.5H12.125C12.4375 10.5 12.75 10.8125 12.75 11.125C12.75 11.4766 12.4375 11.75 12.125 11.75H3.375C3.02344 11.75 2.75 11.4766 2.75 11.125ZM3.375 14.25H10.875C11.1875 14.25 11.5 14.5625 11.5 14.875C11.5 15.2266 11.1875 15.5 10.875 15.5H3.375C3.02344 15.5 2.75 15.2266 2.75 14.875C2.75 14.5625 3.02344 14.25 3.375 14.25ZM3.375 18H8.375C8.6875 18 9 18.3125 9 18.625C9 18.9766 8.6875 19.25 8.375 19.25H3.375C3.02344 19.25 2.75 18.9766 2.75 18.625C2.75 18.3125 3.02344 18 3.375 18ZM17.125 24.25C18.6875 24.25 20.0938 23.4297 20.875 22.0625C21.6953 20.7344 21.6953 19.0547 20.875 17.6875C20.0938 16.3594 18.6875 15.5 17.125 15.5C15.5234 15.5 14.1172 16.3594 13.3359 17.6875C12.5156 19.0547 12.5156 20.7344 13.3359 22.0625C14.1172 23.4297 15.5234 24.25 17.125 24.25ZM17.125 14.25C19.1172 14.25 20.9531 15.3438 21.9688 17.0625C22.9844 18.8203 22.9844 20.9688 21.9688 22.6875C20.9531 24.4453 19.1172 25.5 17.125 25.5C15.0938 25.5 13.2578 24.4453 12.2422 22.6875C11.2266 20.9688 11.2266 18.8203 12.2422 17.0625C13.2578 15.3438 15.0938 14.25 17.125 14.25ZM18.8438 18.1953C19.0781 17.9609 19.5078 17.9609 19.7422 18.1953C19.9766 18.4297 19.9766 18.8594 19.7422 19.0938L16.9297 21.9062C16.6953 22.1406 16.2656 22.1406 16.0312 21.9062L14.4688 20.3438C14.2344 20.1094 14.2344 19.6797 14.4688 19.4453C14.7031 19.2109 15.1328 19.2109 15.3672 19.4453L16.5 20.5781L18.8438 18.1953Z" fill="black" fill-opacity="0.72"/>
</g>
<defs>
<clipPath id="clip0_2556_16911">
<rect width="23" height="30" fill="white"/>
</clipPath>
</defs>
</svg>
