<svg width="14" height="22" viewBox="0 0 14 22" fill="none" xmlns="http://www.w3.org/2000/svg">
<g id="label-paired / sm / circle-trash-sm / bold" clip-path="url(#clip0_2556_12955)">
<path id="icon" d="M12.6875 10.75C12.6875 8.72656 11.5938 6.86719 9.84375 5.82812C8.06641 4.81641 5.90625 4.81641 4.15625 5.82812C2.37891 6.86719 1.3125 8.72656 1.3125 10.75C1.3125 12.8008 2.37891 14.6602 4.15625 15.6992C5.90625 16.7109 8.06641 16.7109 9.84375 15.6992C11.5938 14.6602 12.6875 12.8008 12.6875 10.75ZM0 10.75C0 8.26172 1.3125 5.96484 3.5 4.70703C5.66016 3.44922 8.3125 3.44922 10.5 4.70703C12.6602 5.96484 14 8.26172 14 10.75C14 13.2656 12.6602 15.5625 10.5 16.8203C8.3125 18.0781 5.66016 18.0781 3.5 16.8203C1.3125 15.5625 0 13.2656 0 10.75ZM4.375 7.25H5.49609L5.79688 6.94922C5.87891 6.86719 5.98828 6.8125 6.125 6.8125H7.875C7.98438 6.8125 8.09375 6.86719 8.17578 6.94922L8.47656 7.25H9.625C9.84375 7.25 10.0625 7.46875 10.0625 7.6875C10.0625 7.93359 9.84375 8.125 9.625 8.125H4.375C4.12891 8.125 3.9375 7.93359 3.9375 7.6875C3.9375 7.46875 4.12891 7.25 4.375 7.25ZM4.375 9H9.625L9.24219 13.457C9.21484 13.9219 8.83203 14.25 8.36719 14.25H5.60547C5.14062 14.25 4.75781 13.9219 4.73047 13.457L4.375 9Z" fill="black" fill-opacity="0.72"/>
</g>
<defs>
<clipPath id="clip0_2556_12955">
<rect width="14" height="22" fill="white"/>
</clipPath>
</defs>
</svg>
