<svg width="16" height="24" viewBox="0 0 16 24" fill="none" xmlns="http://www.w3.org/2000/svg">
<g id="label-paired / md / face-viewfinder-md / bold" clip-path="url(#clip0_2512_1065)">
<path id="icon" d="M0 5.75C0.0208333 5.25 0.1875 4.83333 0.5 4.5C0.833333 4.1875 1.25 4.02083 1.75 4H4.25C4.70833 4.04167 4.95833 4.29167 5 4.75C4.95833 5.20833 4.70833 5.45833 4.25 5.5H1.75C1.60417 5.52083 1.52083 5.60417 1.5 5.75V8.25C1.45833 8.70833 1.20833 8.95833 0.75 9C0.291667 8.95833 0.0416667 8.70833 0 8.25V5.75ZM11 4.75C11.0417 4.29167 11.2917 4.04167 11.75 4H14.25C14.75 4.02083 15.1667 4.1875 15.5 4.5C15.8125 4.83333 15.9792 5.25 16 5.75V8.25C15.9583 8.70833 15.7083 8.95833 15.25 9C14.7917 8.95833 14.5417 8.70833 14.5 8.25V5.75C14.4792 5.60417 14.3958 5.52083 14.25 5.5H11.75C11.2917 5.45833 11.0417 5.20833 11 4.75ZM0.75 15C1.20833 15.0417 1.45833 15.2917 1.5 15.75V18.25C1.52083 18.3958 1.60417 18.4792 1.75 18.5H4.25C4.70833 18.5417 4.95833 18.7917 5 19.25C4.95833 19.7083 4.70833 19.9583 4.25 20H1.75C1.25 19.9792 0.833333 19.8125 0.5 19.5C0.1875 19.1667 0.0208333 18.75 0 18.25V15.75C0.0416667 15.2917 0.291667 15.0417 0.75 15ZM15.25 15C15.7083 15.0417 15.9583 15.2917 16 15.75V18.25C15.9792 18.75 15.8125 19.1667 15.5 19.5C15.1667 19.8125 14.75 19.9792 14.25 20H11.75C11.2917 19.9583 11.0417 19.7083 11 19.25C11.0417 18.7917 11.2917 18.5417 11.75 18.5H14.25C14.3958 18.4792 14.4792 18.3958 14.5 18.25V15.75C14.5417 15.2917 14.7917 15.0417 15.25 15ZM7.5 10.75C7.45833 11.2083 7.20833 11.4583 6.75 11.5C6.29167 11.4583 6.04167 11.2083 6 10.75C6.04167 10.2917 6.29167 10.0417 6.75 10C7.20833 10.0417 7.45833 10.2917 7.5 10.75ZM9.25 11.5C8.79167 11.4583 8.54167 11.2083 8.5 10.75C8.54167 10.2917 8.79167 10.0417 9.25 10C9.70833 10.0417 9.95833 10.2917 10 10.75C9.95833 11.2083 9.70833 11.4583 9.25 11.5ZM8 8.5C7.375 8.5 6.79167 8.65625 6.25 8.96875C5.70833 9.28125 5.28125 9.70833 4.96875 10.25C4.65625 10.7917 4.5 11.375 4.5 12C4.5 12.625 4.65625 13.2083 4.96875 13.75C5.28125 14.2917 5.70833 14.7188 6.25 15.0312C6.79167 15.3438 7.375 15.5 8 15.5C8.625 15.5 9.20833 15.3438 9.75 15.0312C10.2917 14.7188 10.7188 14.2917 11.0312 13.75C11.3438 13.2083 11.5 12.625 11.5 12C11.5 11.375 11.3438 10.7917 11.0312 10.25C10.7188 9.70833 10.2917 9.28125 9.75 8.96875C9.20833 8.65625 8.625 8.5 8 8.5ZM8 17C7.10417 17 6.27083 16.7812 5.5 16.3438C4.72917 15.8854 4.11458 15.2708 3.65625 14.5C3.21875 13.7083 3 12.875 3 12C3 11.125 3.21875 10.2917 3.65625 9.5C4.11458 8.72917 4.72917 8.11458 5.5 7.65625C6.27083 7.21875 7.10417 7 8 7C8.89583 7 9.72917 7.21875 10.5 7.65625C11.2708 8.11458 11.8854 8.72917 12.3438 9.5C12.7812 10.2917 13 11.125 13 12C13 12.875 12.7812 13.7083 12.3438 14.5C11.8854 15.2708 11.2708 15.8854 10.5 16.3438C9.72917 16.7812 8.89583 17 8 17ZM6.6875 12.75C6.97917 13.2292 7.41667 13.4792 8 13.5C8.58333 13.4792 9.02083 13.2292 9.3125 12.75C9.47917 12.5 9.70833 12.4375 10 12.5625C10.2292 12.75 10.2812 12.9792 10.1562 13.25C9.69792 14.0417 8.97917 14.4583 8 14.5C7.02083 14.4583 6.30208 14.0417 5.84375 13.25C5.69792 12.9792 5.76042 12.75 6.03125 12.5625C6.30208 12.4375 6.52083 12.5 6.6875 12.75Z" fill="black" fill-opacity="0.72"/>
</g>
<defs>
<clipPath id="clip0_2512_1065">
<rect width="16" height="24" fill="white"/>
</clipPath>
</defs>
</svg>
