<svg width="24" height="36" viewBox="0 0 24 36" fill="none" xmlns="http://www.w3.org/2000/svg">
<g id="label-paired / xl / chart-candlestick-xl / bold" clip-path="url(#clip0_2556_19497)">
<path id="icon" d="M2.25 8.625V25.125C2.25 25.7812 2.71875 26.25 3.375 26.25H22.875C23.4844 26.25 24 26.7656 24 27.375C24 28.0312 23.4844 28.5 22.875 28.5H3.375C1.5 28.5 0 27 0 25.125V8.625C0 8.01562 0.46875 7.5 1.125 7.5C1.73438 7.5 2.25 8.01562 2.25 8.625ZM15 8.25V10.5C15.7969 10.5 16.5 11.2031 16.5 12V16.5C16.5 17.3438 15.7969 18 15 18V20.25C15 20.6719 14.625 21 14.25 21C13.8281 21 13.5 20.6719 13.5 20.25V18C12.6562 18 12 17.3438 12 16.5V12C12 11.2031 12.6562 10.5 13.5 10.5V8.25C13.5 7.875 13.8281 7.5 14.25 7.5C14.625 7.5 15 7.875 15 8.25ZM18 16.5C18 15.7031 18.6562 15 19.5 15V12.75C19.5 12.375 19.8281 12 20.25 12C20.625 12 21 12.375 21 12.75V15C21.7969 15 22.5 15.7031 22.5 16.5V19.5C22.5 20.3438 21.7969 21 21 21V23.25C21 23.6719 20.625 24 20.25 24C19.8281 24 19.5 23.6719 19.5 23.25V21C18.6562 21 18 20.3438 18 19.5V16.5ZM7.5 12V9.75C7.5 9.375 7.82812 9 8.25 9C8.625 9 9 9.375 9 9.75V12C9.79688 12 10.5 12.7031 10.5 13.5V19.5C10.5 20.3438 9.79688 21 9 21V23.25C9 23.6719 8.625 24 8.25 24C7.82812 24 7.5 23.6719 7.5 23.25V21C6.65625 21 6 20.3438 6 19.5V13.5C6 12.7031 6.65625 12 7.5 12Z" fill="black" fill-opacity="0.72"/>
</g>
<defs>
<clipPath id="clip0_2556_19497">
<rect width="24" height="36" fill="white"/>
</clipPath>
</defs>
</svg>
