<svg width="21" height="36" viewBox="0 0 21 36" fill="none" xmlns="http://www.w3.org/2000/svg">
<g id="label-paired / xl / arrow-right-arrow-left-xl / fill" clip-path="url(#clip0_2556_19611)">
<path id="icon" d="M20.5312 13.0781L16.0312 17.5781C15.4688 18.1875 14.4844 18.1875 13.9219 17.5781C13.3125 17.0156 13.3125 16.0312 13.9219 15.4688L15.8438 13.5H1.5C0.65625 13.5 0 12.8438 0 12C0 11.2031 0.65625 10.5 1.5 10.5H15.8438L13.9219 8.57812C13.3125 8.01562 13.3125 7.03125 13.9219 6.46875C14.4844 5.85938 15.4688 5.85938 16.0312 6.46875L20.5312 10.9688C21.1406 11.5312 21.1406 12.5156 20.5312 13.0781ZM4.92188 29.5781L0.421875 25.0781C-0.1875 24.5156 -0.1875 23.5312 0.421875 22.9688L4.92188 18.4688C5.48438 17.8594 6.46875 17.8594 7.03125 18.4688C7.64062 19.0312 7.64062 20.0156 7.03125 20.5781L5.10938 22.5H19.5C20.2969 22.5 21 23.2031 21 24C21 24.8438 20.2969 25.5 19.5 25.5H5.10938L7.03125 27.4688C7.64062 28.0312 7.64062 29.0156 7.03125 29.5781C6.46875 30.1875 5.48438 30.1875 4.92188 29.5781Z" fill="black" fill-opacity="0.72"/>
</g>
<defs>
<clipPath id="clip0_2556_19611">
<rect width="21" height="36" fill="white"/>
</clipPath>
</defs>
</svg>
