<svg width="30" height="36" viewBox="0 0 30 36" fill="none" xmlns="http://www.w3.org/2000/svg">
<g id="label-paired / xl / hands-holding-diamond-xl / bold" clip-path="url(#clip0_2556_19873)">
<path id="icon" d="M13.9219 6.46875C14.4844 5.85938 15.4688 5.85938 16.0312 6.46875L20.5312 10.9688C21.1406 11.5312 21.1406 12.5156 20.5312 13.0781L16.0312 17.5781C15.4688 18.1875 14.4844 18.1875 13.9219 17.5781L9.42188 13.0781C8.8125 12.5156 8.8125 11.5312 9.42188 10.9688L13.9219 6.46875ZM3.375 9C5.20312 9 6.75 10.5469 6.75 12.375V18.4219C7.3125 17.9531 8.0625 17.625 8.85938 17.625C9.70312 17.625 10.5469 18 11.1562 18.6094L14.0156 21.4688C14.3906 21.8438 14.7188 22.2188 15 22.6406C15.2344 22.2188 15.5625 21.8438 15.9375 21.4688L18.7969 18.6094C19.4062 18 20.25 17.625 21.0938 17.625C21.9375 17.625 22.6875 17.9531 23.25 18.4219V12.375C23.25 10.5469 24.75 9 26.625 9C28.5 9 30 10.5469 30 12.375V22.5469C30 24 29.3906 25.4531 28.3594 26.5312L25.1719 29.6719C24.7031 30.1406 24 30.1406 23.5781 29.6719C23.1094 29.25 23.1094 28.5469 23.5781 28.125L26.7656 24.9375C27.375 24.2812 27.75 23.4375 27.75 22.5469V12.375C27.75 11.7656 27.2344 11.25 26.625 11.25C25.9688 11.25 25.5 11.7656 25.5 12.375V19.2188C25.5 20.4375 24.9844 21.6094 24.1406 22.4531L23.3906 23.2031L22.1719 24.4219L21.4219 25.1719C20.9531 25.6406 20.25 25.6406 19.8281 25.1719C19.3594 24.75 19.3594 24.0469 19.8281 23.625L20.5781 22.875L21.7969 21.6094C21.9844 21.4219 22.125 21.1406 22.125 20.9062C22.125 20.3438 21.6562 19.9219 21.0938 19.9219C20.8594 19.9219 20.5781 20.0156 20.3906 20.2031L17.5312 23.0625C16.5938 23.9531 16.125 25.2188 16.125 26.4844V28.875C16.125 29.5312 15.6094 30 15 30C14.3438 30 13.875 29.5312 13.875 28.875V26.4844C13.875 25.2188 13.3594 23.9531 12.4219 23.0625L9.5625 20.2031C9.375 20.0156 9.09375 19.875 8.85938 19.875C8.29688 19.875 7.875 20.3438 7.875 20.9062C7.875 21.1406 7.96875 21.4219 8.15625 21.6094L9.42188 22.8281L10.1719 23.5781C10.5938 24.0469 10.5938 24.75 10.1719 25.1719C9.70312 25.6406 9 25.6406 8.57812 25.1719L7.82812 24.4219L6.5625 23.2031L5.8125 22.4531C4.96875 21.6094 4.5 20.4375 4.5 19.2188V12.375C4.5 11.7656 3.98438 11.25 3.375 11.25C2.71875 11.25 2.25 11.7656 2.25 12.375V22.5469C2.25 23.4375 2.57812 24.2812 3.23438 24.9375L6.42188 28.0781C6.84375 28.5469 6.84375 29.25 6.42188 29.6719C5.95312 30.1406 5.25 30.1406 4.82812 29.6719L1.64062 26.5312C0.5625 25.4531 0 24.0469 0 22.5469V12.375C0 10.5469 1.5 9 3.375 9Z" fill="black" fill-opacity="0.72"/>
</g>
<defs>
<clipPath id="clip0_2556_19873">
<rect width="30" height="36" fill="white"/>
</clipPath>
</defs>
</svg>
