<svg width="12" height="18" viewBox="0 0 12 18" fill="none" xmlns="http://www.w3.org/2000/svg">
<g id="label-paired / caption / barcode-caption / regular" clip-path="url(#clip0_2556_9942)">
<path id="icon" d="M0 4.625C0 4.4375 0.164062 4.25 0.375 4.25C0.5625 4.25 0.75 4.4375 0.75 4.625V14.375C0.75 14.5859 0.5625 14.75 0.375 14.75C0.164062 14.75 0 14.5859 0 14.375V4.625ZM1.5 4.625C1.5 4.4375 1.66406 4.25 1.875 4.25C2.0625 4.25 2.25 4.4375 2.25 4.625V14.375C2.25 14.5859 2.0625 14.75 1.875 14.75C1.66406 14.75 1.5 14.5859 1.5 14.375V4.625ZM3.375 4.25C3.5625 4.25 3.75 4.4375 3.75 4.625V14.375C3.75 14.5859 3.5625 14.75 3.375 14.75C3.16406 14.75 3 14.5859 3 14.375V4.625C3 4.4375 3.16406 4.25 3.375 4.25ZM5.25 4.625C5.25 4.4375 5.41406 4.25 5.625 4.25C5.8125 4.25 6 4.4375 6 4.625V14.375C6 14.5859 5.8125 14.75 5.625 14.75C5.41406 14.75 5.25 14.5859 5.25 14.375V4.625ZM7.125 4.25C7.3125 4.25 7.5 4.4375 7.5 4.625V14.375C7.5 14.5859 7.3125 14.75 7.125 14.75C6.91406 14.75 6.75 14.5859 6.75 14.375V4.625C6.75 4.4375 6.91406 4.25 7.125 4.25ZM9 4.625C9 4.4375 9.16406 4.25 9.375 4.25C9.5625 4.25 9.75 4.4375 9.75 4.625V14.375C9.75 14.5859 9.5625 14.75 9.375 14.75C9.16406 14.75 9 14.5859 9 14.375V4.625ZM11.625 4.25C11.8125 4.25 12 4.4375 12 4.625V14.375C12 14.5859 11.8125 14.75 11.625 14.75C11.4141 14.75 11.25 14.5859 11.25 14.375V4.625C11.25 4.4375 11.4141 4.25 11.625 4.25Z" fill="black" fill-opacity="0.72"/>
</g>
<defs>
<clipPath id="clip0_2556_9942">
<rect width="12" height="18" fill="white"/>
</clipPath>
</defs>
</svg>
