<svg width="24" height="36" viewBox="0 0 24 36" fill="none" xmlns="http://www.w3.org/2000/svg">
<g id="label-paired / xl / image-xl / bold" clip-path="url(#clip0_2556_19814)">
<path id="icon" d="M21 9.75H3C2.57812 9.75 2.25 10.125 2.25 10.5V25.5V25.5469L2.4375 25.2656L6.1875 20.0156C6.42188 19.6875 6.75 19.5 7.125 19.5C7.45312 19.5 7.82812 19.6875 8.01562 19.9688L9.46875 21.9844L13.3594 16.9688C13.5469 16.6875 13.875 16.5 14.25 16.5C14.5781 16.5 14.9062 16.6875 15.1406 16.9688L21.5156 25.2188L21.75 25.5V10.5C21.75 10.125 21.375 9.75 21 9.75ZM3 7.5H21C22.6406 7.5 24 8.85938 24 10.5V25.5C24 27.1875 22.6406 28.5 21 28.5H3C1.3125 28.5 0 27.1875 0 25.5V10.5C0 8.85938 1.3125 7.5 3 7.5ZM6.75 16.5C5.90625 16.5 5.20312 16.0781 4.78125 15.375C4.35938 14.7188 4.35938 13.8281 4.78125 13.125C5.20312 12.4688 5.90625 12 6.75 12C7.54688 12 8.25 12.4688 8.67188 13.125C9.09375 13.8281 9.09375 14.7188 8.67188 15.375C8.25 16.0781 7.54688 16.5 6.75 16.5Z" fill="black" fill-opacity="0.72"/>
</g>
<defs>
<clipPath id="clip0_2556_19814">
<rect width="24" height="36" fill="white"/>
</clipPath>
</defs>
</svg>
