<svg width="12" height="18" viewBox="0 0 12 18" fill="none" xmlns="http://www.w3.org/2000/svg">
<g id="label-paired / caption / clone-caption / bold" clip-path="url(#clip0_2556_10042)">
<path id="icon" d="M1.5 14.375H6.75C6.9375 14.375 7.125 14.2109 7.125 14V12.5H8.25V14C8.25 14.8438 7.57031 15.5 6.75 15.5H1.5C0.65625 15.5 0 14.8438 0 14V8.75C0 7.92969 0.65625 7.25 1.5 7.25H3V8.375H1.5C1.28906 8.375 1.125 8.5625 1.125 8.75V14C1.125 14.2109 1.28906 14.375 1.5 14.375ZM5.25 10.625H10.5C10.6875 10.625 10.875 10.4609 10.875 10.25V5C10.875 4.8125 10.6875 4.625 10.5 4.625H5.25C5.03906 4.625 4.875 4.8125 4.875 5V10.25C4.875 10.4609 5.03906 10.625 5.25 10.625ZM3.75 10.25V5C3.75 4.17969 4.40625 3.5 5.25 3.5H10.5C11.3203 3.5 12 4.17969 12 5V10.25C12 11.0938 11.3203 11.75 10.5 11.75H5.25C4.40625 11.75 3.75 11.0938 3.75 10.25Z" fill="black" fill-opacity="0.72"/>
</g>
<defs>
<clipPath id="clip0_2556_10042">
<rect width="12" height="18" fill="white"/>
</clipPath>
</defs>
</svg>
