<svg width="24" height="36" viewBox="0 0 24 36" fill="none" xmlns="http://www.w3.org/2000/svg">
<g id="label-paired / xl / sliders-xl / regular" clip-path="url(#clip0_3758_526)">
<path id="icon" d="M0 25.5C0 25.125 0.328125 24.75 0.75 24.75H3.79688C4.17188 23.0625 5.67188 21.75 7.5 21.75C9.28125 21.75 10.8281 23.0625 11.1562 24.75H23.25C23.625 24.75 24 25.125 24 25.5C24 25.9219 23.625 26.25 23.25 26.25H11.1562C10.8281 27.9844 9.28125 29.25 7.5 29.25C5.67188 29.25 4.17188 27.9844 3.79688 26.25H0.75C0.328125 26.25 0 25.9219 0 25.5ZM5.25 25.5C5.25 26.3438 5.67188 27.0469 6.375 27.4688C7.03125 27.8906 7.92188 27.8906 8.625 27.4688C9.28125 27.0469 9.75 26.3438 9.75 25.5C9.75 24.7031 9.28125 24 8.625 23.5781C7.92188 23.1562 7.03125 23.1562 6.375 23.5781C5.67188 24 5.25 24.7031 5.25 25.5ZM14.25 18C14.25 18.8438 14.6719 19.5469 15.375 19.9688C16.0312 20.3906 16.9219 20.3906 17.625 19.9688C18.2812 19.5469 18.75 18.8438 18.75 18C18.75 17.2031 18.2812 16.5 17.625 16.0781C16.9219 15.6562 16.0312 15.6562 15.375 16.0781C14.6719 16.5 14.25 17.2031 14.25 18ZM16.5 14.25C18.2812 14.25 19.8281 15.5625 20.1562 17.25H23.25C23.625 17.25 24 17.625 24 18C24 18.4219 23.625 18.75 23.25 18.75H20.1562C19.8281 20.4844 18.2812 21.75 16.5 21.75C14.6719 21.75 13.1719 20.4844 12.7969 18.75H0.75C0.328125 18.75 0 18.4219 0 18C0 17.625 0.328125 17.25 0.75 17.25H12.7969C13.1719 15.5625 14.6719 14.25 16.5 14.25ZM9 12.75C9.79688 12.75 10.5 12.3281 10.9219 11.625C11.3438 10.9688 11.3438 10.0781 10.9219 9.375C10.5 8.71875 9.79688 8.25 9 8.25C8.15625 8.25 7.45312 8.71875 7.03125 9.375C6.60938 10.0781 6.60938 10.9688 7.03125 11.625C7.45312 12.3281 8.15625 12.75 9 12.75ZM12.6562 9.75H23.25C23.625 9.75 24 10.125 24 10.5C24 10.9219 23.625 11.25 23.25 11.25H12.6562C12.3281 12.9844 10.7812 14.25 9 14.25C7.17188 14.25 5.67188 12.9844 5.29688 11.25H0.75C0.328125 11.25 0 10.9219 0 10.5C0 10.125 0.328125 9.75 0.75 9.75H5.29688C5.67188 8.0625 7.17188 6.75 9 6.75C10.7812 6.75 12.3281 8.0625 12.6562 9.75Z" fill="black" fill-opacity="0.72"/>
</g>
<defs>
<clipPath id="clip0_3758_526">
<rect width="24" height="36" fill="white"/>
</clipPath>
</defs>
</svg>
