<svg width="11" height="18" viewBox="0 0 11 18" fill="none" xmlns="http://www.w3.org/2000/svg">
<g id="label-paired / caption / ellipsis-caption / regular" clip-path="url(#clip0_2556_10499)">
<path id="icon" d="M10 9.5C10 9.92188 9.64844 10.25 9.25 10.25C8.82812 10.25 8.5 9.92188 8.5 9.5C8.5 9.10156 8.82812 8.75 9.25 8.75C9.64844 8.75 10 9.10156 10 9.5ZM6.25 9.5C6.25 9.92188 5.89844 10.25 5.5 10.25C5.07812 10.25 4.75 9.92188 4.75 9.5C4.75 9.10156 5.07812 8.75 5.5 8.75C5.89844 8.75 6.25 9.10156 6.25 9.5ZM1.75 10.25C1.32812 10.25 1 9.92188 1 9.5C1 9.10156 1.32812 8.75 1.75 8.75C2.14844 8.75 2.5 9.10156 2.5 9.5C2.5 9.92188 2.14844 10.25 1.75 10.25Z" fill="black" fill-opacity="0.72"/>
</g>
<defs>
<clipPath id="clip0_2556_10499">
<rect width="11" height="18" fill="white"/>
</clipPath>
</defs>
</svg>
