<svg width="16" height="24" viewBox="0 0 16 24" fill="none" xmlns="http://www.w3.org/2000/svg">
<g id="label-paired / md / filter-md / bold" clip-path="url(#clip0_3758_437)">
<path id="icon" d="M0 6.3125C0 5.59375 0.5625 5 1.28125 5H14.6875C15.4062 5 16 5.59375 16 6.3125C16 6.625 15.875 6.90625 15.6875 7.125L10.5 13.5312V18C10.5 18.5625 10.0312 19 9.46875 19C9.25 19 9.03125 18.9375 8.84375 18.7812L5.96875 16.5C5.65625 16.25 5.5 15.9062 5.5 15.5312V13.5312L0.28125 7.125C0.09375 6.90625 0 6.625 0 6.3125ZM1.71875 6.5L6.8125 12.7812C6.9375 12.9375 7 13.0938 7 13.25V15.4062L9 17V13.25C9 13.0938 9.03125 12.9375 9.15625 12.7812L14.2812 6.5H1.71875Z" fill="black" fill-opacity="0.72"/>
</g>
<defs>
<clipPath id="clip0_3758_437">
<rect width="16" height="24" fill="white"/>
</clipPath>
</defs>
</svg>
