<svg width="18" height="22" viewBox="0 0 18 22" fill="none" xmlns="http://www.w3.org/2000/svg">
<g id="label-paired / sm / light-chart-line-up-down-clock-sm / fill" clip-path="url(#clip0_2556_12870)">
<path id="icon" d="M0.25 5.5C0.25 5.03516 0.632812 4.625 1.125 4.625C1.58984 4.625 2 5.03516 2 5.5V14.6875C2 14.9336 2.19141 15.125 2.4375 15.125H9.16406C9.35547 15.7812 9.65625 16.3828 10.0938 16.875H2.4375C1.20703 16.875 0.25 15.918 0.25 14.6875V5.5ZM3.12109 10.1484L5.30859 7.96094C5.63672 7.60547 6.21094 7.60547 6.53906 7.96094L8.125 9.51953L10.5586 7.08594L10.0391 6.56641C9.92969 6.45703 9.875 6.29297 9.875 6.12891C9.875 5.80078 10.1484 5.5 10.4766 5.5H12.9375C13.1562 5.5 13.375 5.71875 13.375 5.9375V6.375V6.40234V8.39844C13.375 8.72656 13.0742 9 12.7461 9C12.582 9 12.418 8.94531 12.3086 8.83594L11.7891 8.31641L8.72656 11.3789C8.39844 11.7344 7.82422 11.7344 7.49609 11.3789L5.9375 9.82031L4.35156 11.3789C4.02344 11.7344 3.44922 11.7344 3.12109 11.3789C2.76562 11.0508 2.76562 10.4766 3.12109 10.1484ZM9.875 13.8125C9.875 11.6523 11.625 9.875 13.8125 9.875C15.9727 9.875 17.75 11.6523 17.75 13.8125C17.75 16 15.9727 17.75 13.8125 17.75C11.625 17.75 9.875 16 9.875 13.8125ZM13.375 12.0625V13.8125C13.375 14.0586 13.5664 14.25 13.8125 14.25H15.125C15.3438 14.25 15.5625 14.0586 15.5625 13.8125C15.5625 13.5938 15.3438 13.375 15.125 13.375H14.25V12.0625C14.25 11.8438 14.0312 11.625 13.8125 11.625C13.5664 11.625 13.375 11.8438 13.375 12.0625Z" fill="black" fill-opacity="0.72"/>
</g>
<defs>
<clipPath id="clip0_2556_12870">
<rect width="18" height="22" fill="white"/>
</clipPath>
</defs>
</svg>
