<svg width="20" height="30" viewBox="0 0 20 30" fill="none" xmlns="http://www.w3.org/2000/svg">
<g id="label-paired / lg / circle-bookmark-lg / fill" clip-path="url(#clip0_2556_17543)">
<path id="icon" d="M10 25.5C6.40625 25.5 3.125 23.625 1.32812 20.5C-0.46875 17.4141 -0.46875 13.625 1.32812 10.5C3.125 7.41406 6.40625 5.5 10 5.5C13.5547 5.5 16.8359 7.41406 18.6328 10.5C20.4297 13.625 20.4297 17.4141 18.6328 20.5C16.8359 23.625 13.5547 25.5 10 25.5ZM6.25 12.375V19.875C6.25 20.1484 6.36719 20.3438 6.60156 20.4609C6.79688 20.5781 7.07031 20.5391 7.26562 20.3828L10 18.1953L12.7344 20.3828C12.8906 20.5391 13.1641 20.5391 13.3594 20.4609C13.5938 20.3438 13.75 20.1484 13.75 19.875V12.375C13.75 11.3594 12.8906 10.5 11.875 10.5H8.125C7.07031 10.5 6.25 11.3594 6.25 12.375Z" fill="black" fill-opacity="0.72"/>
</g>
<defs>
<clipPath id="clip0_2556_17543">
<rect width="20" height="30" fill="white"/>
</clipPath>
</defs>
</svg>
