<svg width="20" height="30" viewBox="0 0 20 30" fill="none" xmlns="http://www.w3.org/2000/svg">
<g id="label-paired / lg / backward-lg / bold" clip-path="url(#clip0_2556_16980)">
<path id="icon" d="M11.25 9.17188V13.0781L18.125 8.23438C18.3203 8.07812 18.5547 8 18.7891 8C19.4531 8 20 8.54688 20 9.21094V21.8281C20 22.4922 19.4531 23 18.8281 23C18.5547 23 18.3203 22.9609 18.125 22.8047L11.2109 17.9609V21.8281C11.2109 22.4922 10.7031 23 10.0391 23C9.80469 23 9.57031 22.9219 9.375 22.8047L0.351562 16.2812C0.117188 16.0859 0 15.8125 0 15.5C0 15.2266 0.117188 14.9531 0.351562 14.7578L9.375 8.23438C9.57031 8.07812 9.80469 8 10.0781 8C10.7031 8 11.25 8.54688 11.25 9.17188ZM11.25 15.3438V15.6953L18.125 20.5V10.5391L11.25 15.3438ZM2.5 15.5L9.375 20.4609V10.5781L2.5 15.5Z" fill="black" fill-opacity="0.72"/>
</g>
<defs>
<clipPath id="clip0_2556_16980">
<rect width="20" height="30" fill="white"/>
</clipPath>
</defs>
</svg>
