<svg width="18" height="24" viewBox="0 0 18 24" fill="none" xmlns="http://www.w3.org/2000/svg">
<g id="label-paired / md / arrow-up-arrow-down-md / bold" clip-path="url(#clip0_2556_14790)">
<path id="icon" d="M16.5312 15.7812L13.5312 18.7812C13.2188 19.0938 12.75 19.0938 12.4688 18.7812L9.46875 15.7812C9.15625 15.5 9.15625 15.0312 9.46875 14.75C9.75 14.4375 10.2188 14.4375 10.5312 14.75L12.25 16.4688V5.75C12.25 5.34375 12.5625 5 13 5C13.4062 5 13.75 5.34375 13.75 5.75V16.4688L15.4688 14.75C15.75 14.4375 16.2188 14.4375 16.5312 14.75C16.8125 15.0312 16.8125 15.5 16.5312 15.7812ZM5.53125 5.21875L8.5 8.21875C8.8125 8.53125 8.8125 9 8.5 9.28125C8.21875 9.59375 7.75 9.59375 7.4375 9.28125L5.71875 7.5625V18.25C5.71875 18.6875 5.40625 19 4.96875 19C4.5625 19 4.21875 18.6875 4.21875 18.25V7.5625L2.5 9.28125C2.21875 9.59375 1.75 9.59375 1.46875 9.28125C1.15625 9 1.15625 8.53125 1.46875 8.21875L4.46875 5.21875C4.75 4.9375 5.21875 4.9375 5.53125 5.21875Z" fill="black" fill-opacity="0.72"/>
</g>
<defs>
<clipPath id="clip0_2556_14790">
<rect width="18" height="24" fill="white"/>
</clipPath>
</defs>
</svg>
