<svg width="16" height="24" viewBox="0 0 16 24" fill="none" xmlns="http://www.w3.org/2000/svg">
<g id="label-paired / md / circle-arrow-down-right-md / fill" clip-path="url(#clip0_2556_15211)">
<path id="icon" d="M8 4C10.8438 4 13.4688 5.53125 14.9062 8C16.3438 10.5 16.3438 13.5312 14.9062 16C13.4688 18.5 10.8438 20 8 20C5.125 20 2.5 18.5 1.0625 16C-0.375 13.5312 -0.375 10.5 1.0625 8C2.5 5.53125 5.125 4 8 4ZM6 15.5H10.7188C11.1562 15.5 11.4688 15.1875 11.4688 14.75V9.75C11.4688 9.34375 11.1562 9 10.7188 9C10.3125 9 9.96875 9.34375 9.96875 9.75V12.9688L5.75 8.75C5.46875 8.4375 5 8.4375 4.71875 8.75C4.40625 9.03125 4.40625 9.5 4.71875 9.78125L8.9375 14H6C5.5625 14 5.25 14.3438 5.25 14.75C5.25 15.1875 5.5625 15.5 6 15.5Z" fill="black" fill-opacity="0.72"/>
</g>
<defs>
<clipPath id="clip0_2556_15211">
<rect width="16" height="24" fill="white"/>
</clipPath>
</defs>
</svg>
