<svg width="12" height="18" viewBox="0 0 12 18" fill="none" xmlns="http://www.w3.org/2000/svg">
<g id="label-paired / caption / circle-check-caption / bold" clip-path="url(#clip0_2556_10285)">
<path id="icon" d="M6 4.625C4.24219 4.625 2.64844 5.5625 1.75781 7.0625C0.890625 8.58594 0.890625 10.4375 1.75781 11.9375C2.64844 13.4609 4.24219 14.375 6 14.375C7.73438 14.375 9.32812 13.4609 10.2188 11.9375C11.0859 10.4375 11.0859 8.58594 10.2188 7.0625C9.32812 5.5625 7.73438 4.625 6 4.625ZM6 15.5C3.84375 15.5 1.875 14.375 0.796875 12.5C-0.28125 10.6484 -0.28125 8.375 0.796875 6.5C1.875 4.64844 3.84375 3.5 6 3.5C8.13281 3.5 10.1016 4.64844 11.1797 6.5C12.2578 8.375 12.2578 10.6484 11.1797 12.5C10.1016 14.375 8.13281 15.5 6 15.5ZM8.64844 8.39844L5.64844 11.3984C5.41406 11.6328 5.0625 11.6328 4.85156 11.3984L3.35156 9.89844C3.11719 9.6875 3.11719 9.33594 3.35156 9.125C3.5625 8.89062 3.91406 8.89062 4.14844 9.125L5.25 10.2266L7.85156 7.625C8.0625 7.39062 8.41406 7.39062 8.64844 7.625C8.85938 7.83594 8.85938 8.1875 8.64844 8.39844Z" fill="black" fill-opacity="0.72"/>
</g>
<defs>
<clipPath id="clip0_2556_10285">
<rect width="12" height="18" fill="white"/>
</clipPath>
</defs>
</svg>
