<svg width="9" height="18" viewBox="0 0 9 18" fill="none" xmlns="http://www.w3.org/2000/svg">
<g id="label-paired / caption / file-check-caption / fill" clip-path="url(#clip0_2556_9972)">
<path id="icon" d="M1.5 3.5H5.25V6.5C5.25 6.92188 5.57812 7.25 6 7.25H9V14C9 14.8438 8.32031 15.5 7.5 15.5H1.5C0.65625 15.5 0 14.8438 0 14V5C0 4.17969 0.65625 3.5 1.5 3.5ZM6 3.5L9 6.5H6V3.5ZM7.14844 10.0859H7.125C7.35938 9.875 7.35938 9.52344 7.125 9.28906C6.91406 9.07812 6.5625 9.07812 6.35156 9.28906L3.72656 11.9141L2.625 10.8125C2.41406 10.5781 2.0625 10.5781 1.85156 10.8125C1.61719 11.0234 1.61719 11.375 1.85156 11.5859L3.35156 13.0859C3.5625 13.3203 3.91406 13.3203 4.14844 13.0859L7.14844 10.0859Z" fill="black" fill-opacity="0.72"/>
</g>
<defs>
<clipPath id="clip0_2556_9972">
<rect width="9" height="18" fill="white"/>
</clipPath>
</defs>
</svg>
