<svg width="15" height="36" viewBox="0 0 15 36" fill="none" xmlns="http://www.w3.org/2000/svg">
<g id="label-paired / xl / sterling-sign-xl / regular" clip-path="url(#clip0_2556_19289)">
<path id="icon" d="M3.75 13.125V18H11.25C11.625 18 12 18.375 12 18.75C12 19.1719 11.625 19.5 11.25 19.5H3.70312C3.65625 22.125 3.04688 24.6562 1.96875 27H14.25C14.625 27 15 27.375 15 27.75C15 28.1719 14.625 28.5 14.25 28.5H0.75C0.46875 28.5 0.234375 28.3594 0.09375 28.1719C-0.046875 27.9375 -0.046875 27.6562 0.09375 27.4219L0.140625 27.3281C1.45312 24.9375 2.15625 22.2656 2.20312 19.5H0.75C0.328125 19.5 0 19.1719 0 18.75C0 18.375 0.328125 18 0.75 18H2.25V13.125C2.25 10.0312 4.73438 7.5 7.875 7.5H8.20312C8.8125 7.5 9.375 7.64062 9.98438 7.82812L13.7344 9.04688C14.1094 9.1875 14.2969 9.60938 14.2031 10.0312C14.0625 10.4062 13.6406 10.5938 13.2188 10.5L9.46875 9.23438C9.09375 9.09375 8.625 9 8.20312 9H7.875C5.57812 9 3.75 10.875 3.75 13.125Z" fill="black" fill-opacity="0.72"/>
</g>
<defs>
<clipPath id="clip0_2556_19289">
<rect width="15" height="36" fill="white"/>
</clipPath>
</defs>
</svg>
