<svg width="4" height="24" viewBox="0 0 4 24" fill="none" xmlns="http://www.w3.org/2000/svg">
<g id="label-paired / md / ellipsis-vertical-md / regular" clip-path="url(#clip0_2556_15169)">
<path id="icon" d="M2 16C2.53125 16 3 16.4688 3 17C3 17.5625 2.53125 18 2 18C1.4375 18 1 17.5625 1 17C1 16.4688 1.4375 16 2 16ZM2 11C2.53125 11 3 11.4688 3 12C3 12.5625 2.53125 13 2 13C1.4375 13 1 12.5625 1 12C1 11.4688 1.4375 11 2 11ZM3 7C3 7.5625 2.53125 8 2 8C1.4375 8 1 7.5625 1 7C1 6.46875 1.4375 6 2 6C2.53125 6 3 6.46875 3 7Z" fill="black" fill-opacity="0.72"/>
</g>
<defs>
<clipPath id="clip0_2556_15169">
<rect width="4" height="24" fill="white"/>
</clipPath>
</defs>
</svg>
