<svg width="18" height="36" viewBox="0 0 18 36" fill="none" xmlns="http://www.w3.org/2000/svg">
<g id="label-paired / xl / file-check-xl / bold" clip-path="url(#clip0_2556_19326)">
<path id="icon" d="M3 27.75H15C15.375 27.75 15.75 27.4219 15.75 27V13.5H12C11.1562 13.5 10.5 12.8438 10.5 12V8.25H3C2.57812 8.25 2.25 8.625 2.25 9V27C2.25 27.4219 2.57812 27.75 3 27.75ZM3 6H10.7344C11.5312 6 12.2812 6.32812 12.8438 6.89062L17.1094 11.1562C17.6719 11.7188 18 12.4688 18 13.2656V27C18 28.6875 16.6406 30 15 30H3C1.3125 30 0 28.6875 0 27V9C0 7.35938 1.3125 6 3 6ZM13.5469 18.5625L8.53125 23.5781C8.10938 24 7.35938 24 6.9375 23.5781L4.45312 21.0469C3.98438 20.625 3.98438 19.9219 4.45312 19.4531C4.875 19.0312 5.57812 19.0312 6.04688 19.4531L7.73438 21.1875L11.9531 16.9688C12.375 16.5469 13.0781 16.5469 13.5469 16.9688C13.9688 17.3906 13.9688 18.1406 13.5469 18.5625Z" fill="black" fill-opacity="0.72"/>
</g>
<defs>
<clipPath id="clip0_2556_19326">
<rect width="18" height="36" fill="white"/>
</clipPath>
</defs>
</svg>
