<svg width="12" height="18" viewBox="0 0 12 18" fill="none" xmlns="http://www.w3.org/2000/svg">
<g id="label-paired / caption / wallet-caption / bold" clip-path="url(#clip0_2556_9923)">
<path id="icon" d="M2.0625 4.25H10.6875C10.9922 4.25 11.25 4.50781 11.25 4.8125C11.25 5.14062 10.9922 5.375 10.6875 5.375H2.0625C1.52344 5.375 1.125 5.79688 1.125 6.3125V12.6875C1.125 13.2266 1.52344 13.625 2.0625 13.625H9.9375C10.4531 13.625 10.875 13.2266 10.875 12.6875V8.5625C10.875 8.04688 10.4531 7.625 9.9375 7.625H2.8125C2.48438 7.625 2.25 7.39062 2.25 7.0625C2.25 6.75781 2.48438 6.5 2.8125 6.5H9.9375C11.0625 6.5 12 7.4375 12 8.5625V12.6875C12 13.8359 11.0625 14.75 9.9375 14.75H2.0625C0.914062 14.75 0 13.8359 0 12.6875V6.3125C0 5.1875 0.914062 4.25 2.0625 4.25ZM9 11.375C8.57812 11.375 8.25 11.0469 8.25 10.625C8.25 10.2266 8.57812 9.875 9 9.875C9.39844 9.875 9.75 10.2266 9.75 10.625C9.75 11.0469 9.39844 11.375 9 11.375Z" fill="black" fill-opacity="0.72"/>
</g>
<defs>
<clipPath id="clip0_2556_9923">
<rect width="12" height="18" fill="white"/>
</clipPath>
</defs>
</svg>
