<svg width="13" height="22" viewBox="0 0 13 22" fill="none" xmlns="http://www.w3.org/2000/svg">
<g id="label-paired / sm / square-check-sm / fill" clip-path="url(#clip0_2556_12760)">
<path id="icon" d="M2.125 4.625H10.875C11.832 4.625 12.625 5.41797 12.625 6.375V15.125C12.625 16.1094 11.832 16.875 10.875 16.875H2.125C1.14062 16.875 0.375 16.1094 0.375 15.125V6.375C0.375 5.41797 1.14062 4.625 2.125 4.625ZM9.58984 9.46484H9.5625C9.83594 9.21875 9.83594 8.80859 9.5625 8.53516C9.31641 8.28906 8.90625 8.28906 8.66016 8.53516L5.625 11.5977L4.33984 10.3125C4.06641 10.0391 3.65625 10.0391 3.41016 10.3125C3.13672 10.5586 3.13672 10.9688 3.41016 11.2148L5.16016 12.9648C5.40625 13.2383 5.81641 13.2383 6.08984 12.9648L9.58984 9.46484Z" fill="black" fill-opacity="0.72"/>
</g>
<defs>
<clipPath id="clip0_2556_12760">
<rect width="13" height="22" fill="white"/>
</clipPath>
</defs>
</svg>
