<svg width="12" height="24" viewBox="0 0 12 24" fill="none" xmlns="http://www.w3.org/2000/svg">
<g id="label-paired / md / play-md / regular" clip-path="url(#clip0_2556_15024)">
<path id="icon" d="M1.75 6.09375C1.59375 6 1.40625 6 1.25 6.0625C1.09375 6.15625 0.96875 6.34375 0.96875 6.5V17.5C0.96875 17.6875 1.09375 17.875 1.25 17.9375C1.40625 18.0312 1.59375 18.0312 1.75 17.9375L10.75 12.4375C10.9062 12.3438 11 12.1875 11 12C11 11.8438 10.9062 11.6875 10.75 11.5938L1.75 6.09375ZM0.75 5.21875C1.21875 4.9375 1.8125 4.9375 2.28125 5.21875L11.2812 10.7188C11.7188 11 12 11.5 12 12C12 12.5312 11.7188 13.0312 11.2812 13.2812L2.28125 18.7812C1.8125 19.0938 1.21875 19.0938 0.75 18.8125C0.28125 18.5625 0 18.0625 0 17.5V6.5C0 5.96875 0.28125 5.46875 0.75 5.21875Z" fill="black" fill-opacity="0.72"/>
</g>
<defs>
<clipPath id="clip0_2556_15024">
<rect width="12" height="24" fill="white"/>
</clipPath>
</defs>
</svg>
