<svg width="16" height="24" viewBox="0 0 16 24" fill="none" xmlns="http://www.w3.org/2000/svg">
<g id="label-paired / md / chart-candlestick-md / bold" clip-path="url(#clip0_2556_14776)">
<path id="icon" d="M1.5 5.75V16.75C1.5 17.1875 1.8125 17.5 2.25 17.5H15.25C15.6562 17.5 16 17.8438 16 18.25C16 18.6875 15.6562 19 15.25 19H2.25C1 19 0 18 0 16.75V5.75C0 5.34375 0.3125 5 0.75 5C1.15625 5 1.5 5.34375 1.5 5.75ZM10 5.5V7C10.5312 7 11 7.46875 11 8V11C11 11.5625 10.5312 12 10 12V13.5C10 13.7812 9.75 14 9.5 14C9.21875 14 9 13.7812 9 13.5V12C8.4375 12 8 11.5625 8 11V8C8 7.46875 8.4375 7 9 7V5.5C9 5.25 9.21875 5 9.5 5C9.75 5 10 5.25 10 5.5ZM12 11C12 10.4688 12.4375 10 13 10V8.5C13 8.25 13.2188 8 13.5 8C13.75 8 14 8.25 14 8.5V10C14.5312 10 15 10.4688 15 11V13C15 13.5625 14.5312 14 14 14V15.5C14 15.7812 13.75 16 13.5 16C13.2188 16 13 15.7812 13 15.5V14C12.4375 14 12 13.5625 12 13V11ZM5 8V6.5C5 6.25 5.21875 6 5.5 6C5.75 6 6 6.25 6 6.5V8C6.53125 8 7 8.46875 7 9V13C7 13.5625 6.53125 14 6 14V15.5C6 15.7812 5.75 16 5.5 16C5.21875 16 5 15.7812 5 15.5V14C4.4375 14 4 13.5625 4 13V9C4 8.46875 4.4375 8 5 8Z" fill="black" fill-opacity="0.72"/>
</g>
<defs>
<clipPath id="clip0_2556_14776">
<rect width="16" height="24" fill="white"/>
</clipPath>
</defs>
</svg>
