<svg width="14" height="22" viewBox="0 0 14 22" fill="none" xmlns="http://www.w3.org/2000/svg">
<g id="label-paired / sm / bank-sm / regular" clip-path="url(#clip0_2556_12299)">
<path id="icon" d="M7.19141 3.83203L13.5625 7.41406C13.8359 7.57812 14 7.85156 14 8.15234C14 8.61719 13.6172 9 13.125 9H7H0.847656C0.382812 9 0 8.61719 0 8.15234C0 7.85156 0.164062 7.57812 0.410156 7.41406L6.78125 3.83203C6.91797 3.75 7.08203 3.75 7.19141 3.83203ZM8.36719 8.125H13.043L7 4.70703L0.929688 8.125H5.60547C5.49609 7.93359 5.46875 7.71484 5.46875 7.46875C5.46875 6.64844 6.15234 5.9375 7 5.9375C7.82031 5.9375 8.53125 6.64844 8.53125 7.46875C8.53125 7.71484 8.47656 7.93359 8.36719 8.125ZM7 6.8125C6.61719 6.8125 6.34375 7.11328 6.34375 7.46875C6.34375 7.85156 6.61719 8.125 7 8.125C7.35547 8.125 7.65625 7.85156 7.65625 7.46875C7.65625 7.11328 7.35547 6.8125 7 6.8125ZM1.75 13.375V9.875H2.625V13.375H4.8125V9.875H5.6875V13.375H8.3125V9.875H9.1875V13.375H11.375V9.875H12.25V13.375C12.4688 13.375 12.6875 13.5938 12.6875 13.8125C12.6875 14.0586 12.4688 14.25 12.25 14.25H1.75C1.50391 14.25 1.3125 14.0586 1.3125 13.8125C1.3125 13.5938 1.50391 13.375 1.75 13.375ZM1.09375 15.125H12.9062C13.125 15.125 13.3438 15.3438 13.3438 15.5625C13.3438 15.8086 13.125 16 12.9062 16H1.09375C0.847656 16 0.65625 15.8086 0.65625 15.5625C0.65625 15.3438 0.847656 15.125 1.09375 15.125ZM0.4375 16.875H13.5625C13.7812 16.875 14 17.0938 14 17.3125C14 17.5586 13.7812 17.75 13.5625 17.75H0.4375C0.191406 17.75 0 17.5586 0 17.3125C0 17.0938 0.191406 16.875 0.4375 16.875Z" fill="black" fill-opacity="0.72"/>
</g>
<defs>
<clipPath id="clip0_2556_12299">
<rect width="14" height="22" fill="white"/>
</clipPath>
</defs>
</svg>
