<svg width="16" height="24" viewBox="0 0 16 24" fill="none" xmlns="http://www.w3.org/2000/svg">
<g id="label-paired / md / circle-bookmark-md / bold" clip-path="url(#clip0_2556_15232)">
<path id="icon" d="M8 5.5C5.65625 5.5 3.53125 6.75 2.34375 8.75C1.1875 10.7812 1.1875 13.25 2.34375 15.25C3.53125 17.2812 5.65625 18.5 8 18.5C10.3125 18.5 12.4375 17.2812 13.625 15.25C14.7812 13.25 14.7812 10.7812 13.625 8.75C12.4375 6.75 10.3125 5.5 8 5.5ZM8 20C5.125 20 2.5 18.5 1.0625 16C-0.375 13.5312 -0.375 10.5 1.0625 8C2.5 5.53125 5.125 4 8 4C10.8438 4 13.4688 5.53125 14.9062 8C16.3438 10.5 16.3438 13.5312 14.9062 16C13.4688 18.5 10.8438 20 8 20ZM5 9.5C5 8.6875 5.65625 8 6.5 8H9.5C10.3125 8 11 8.6875 11 9.5V15.5C11 15.7188 10.875 15.875 10.6875 15.9688C10.5312 16.0625 10.3125 16.0312 10.1875 15.9062L8 14.1562L5.8125 15.9062C5.65625 16.0312 5.4375 16.0312 5.28125 15.9688C5.09375 15.875 5 15.7188 5 15.5V9.5Z" fill="black" fill-opacity="0.72"/>
</g>
<defs>
<clipPath id="clip0_2556_15232">
<rect width="16" height="24" fill="white"/>
</clipPath>
</defs>
</svg>
