<svg width="18" height="30" viewBox="0 0 18 30" fill="none" xmlns="http://www.w3.org/2000/svg">
<g id="label-paired / lg / arrow-down-to-bracket-lg / fill" clip-path="url(#clip0_2556_17524)">
<path id="icon" d="M14.8594 13.8984L9.85938 18.8984C9.39062 19.4062 8.57031 19.4062 8.10156 18.8984L3.10156 13.8984C2.59375 13.4297 2.59375 12.6094 3.10156 12.1406C3.57031 11.6328 4.39062 11.6328 4.85938 12.1406L7.75 14.9922V6.75C7.75 6.08594 8.29688 5.5 9 5.5C9.66406 5.5 10.25 6.08594 10.25 6.75V14.9922L13.1016 12.1406C13.5703 11.6328 14.3906 11.6328 14.8594 12.1406C15.3672 12.6094 15.3672 13.4297 14.8594 13.8984ZM2.75 19.25V21.75C2.75 22.4531 3.29688 23 4 23H14C14.6641 23 15.25 22.4531 15.25 21.75V19.25C15.25 18.5859 15.7969 18 16.5 18C17.1641 18 17.75 18.5859 17.75 19.25V21.75C17.75 23.8203 16.0703 25.5 14 25.5H4C1.92969 25.5 0.25 23.8203 0.25 21.75V19.25C0.25 18.5859 0.796875 18 1.5 18C2.16406 18 2.75 18.5859 2.75 19.25Z" fill="black" fill-opacity="0.72"/>
</g>
<defs>
<clipPath id="clip0_2556_17524">
<rect width="18" height="30" fill="white"/>
</clipPath>
</defs>
</svg>
