<svg width="16" height="22" viewBox="0 0 16 22" fill="none" xmlns="http://www.w3.org/2000/svg">
<g id="label-paired / sm / pen-line-sm / bold" clip-path="url(#clip0_2556_12450)">
<path id="icon" d="M0.480469 15.7539L1.10938 13.6211C1.21875 13.2383 1.4375 12.8828 1.71094 12.6094L10.0234 4.29688C10.707 3.61328 11.8281 3.61328 12.5117 4.29688L13.5781 5.36328C13.6602 5.44531 13.7422 5.55469 13.7969 5.63672C14.2617 6.32031 14.1797 7.25 13.5781 7.85156L5.26562 16.1641C5.23828 16.1914 5.18359 16.2188 5.15625 16.2734C4.88281 16.4922 4.58203 16.6562 4.25391 16.7656L2.12109 17.3945L0.945312 17.7227C0.726562 17.8047 0.480469 17.75 0.316406 17.5586C0.125 17.3945 0.0703125 17.1484 0.152344 16.9297L0.480469 15.7539ZM2.17578 14.6328L1.73828 16.1367L3.24219 15.6992L3.87109 15.5078C4.0625 15.4531 4.19922 15.3711 4.33594 15.2344L10.5977 8.97266L8.90234 7.27734L2.64062 13.5391C2.61328 13.5391 2.61328 13.5664 2.58594 13.5938C2.47656 13.7031 2.42188 13.8398 2.36719 14.0039L2.17578 14.6328ZM6.90625 16.4375H15.2188C15.5742 16.4375 15.875 16.7383 15.875 17.0938C15.875 17.4766 15.5742 17.75 15.2188 17.75H6.90625C6.52344 17.75 6.25 17.4766 6.25 17.0938C6.25 16.7383 6.52344 16.4375 6.90625 16.4375Z" fill="black" fill-opacity="0.72"/>
</g>
<defs>
<clipPath id="clip0_2556_12450">
<rect width="16" height="22" fill="white"/>
</clipPath>
</defs>
</svg>
