<svg width="24" height="36" viewBox="0 0 24 36" fill="none" xmlns="http://www.w3.org/2000/svg">
<g id="label-paired / xl / chevrons-down-xl / bold" clip-path="url(#clip0_2556_19653)">
<path id="icon" d="M11.2031 27.7969L2.20312 18.7969C1.73438 18.375 1.73438 17.6719 2.20312 17.2031C2.625 16.7812 3.32812 16.7812 3.79688 17.2031L12 25.4531L20.2031 17.25C20.625 16.7812 21.3281 16.7812 21.7969 17.25C22.2188 17.6719 22.2188 18.375 21.7969 18.7969L12.75 27.7969C12.3281 28.2656 11.625 28.2656 11.2031 27.7969ZM2.20312 9.79688C1.73438 9.375 1.73438 8.67188 2.20312 8.20312C2.625 7.78125 3.32812 7.78125 3.79688 8.20312L12 16.4531L20.2031 8.25C20.625 7.78125 21.3281 7.78125 21.7969 8.25C22.2188 8.67188 22.2188 9.375 21.7969 9.79688L12.75 18.7969C12.3281 19.2656 11.625 19.2656 11.2031 18.7969L2.20312 9.79688Z" fill="black" fill-opacity="0.72"/>
</g>
<defs>
<clipPath id="clip0_2556_19653">
<rect width="24" height="36" fill="white"/>
</clipPath>
</defs>
</svg>
