<svg width="11" height="18" viewBox="0 0 11 18" fill="none" xmlns="http://www.w3.org/2000/svg">
<g id="label-paired / caption / lock-caption / fill" clip-path="url(#clip0_2556_9967)">
<path id="icon" d="M3.625 6.875V8H7.375V6.875C7.375 5.84375 6.53125 5 5.5 5C4.44531 5 3.625 5.84375 3.625 6.875ZM2.125 8V6.875C2.125 5.02344 3.625 3.5 5.5 3.5C7.35156 3.5 8.875 5.02344 8.875 6.875V8H9.25C10.0703 8 10.75 8.67969 10.75 9.5V14C10.75 14.8438 10.0703 15.5 9.25 15.5H1.75C0.90625 15.5 0.25 14.8438 0.25 14V9.5C0.25 8.67969 0.90625 8 1.75 8H2.125Z" fill="black" fill-opacity="0.72"/>
</g>
<defs>
<clipPath id="clip0_2556_9967">
<rect width="11" height="18" fill="white"/>
</clipPath>
</defs>
</svg>
