<svg width="20" height="30" viewBox="0 0 20 30" fill="none" xmlns="http://www.w3.org/2000/svg">
<g id="label-paired / lg / thumbs-up-lg / bold" clip-path="url(#clip0_2355_602)">
<path id="icon" d="M12.6562 6.86719C13.4115 7.10156 13.9714 7.54427 14.3359 8.19531C14.7005 8.84635 14.7786 9.5625 14.5703 10.3438L14.375 11.125C14.2448 11.5417 14.0885 11.9583 13.9062 12.375H17.5C18.2031 12.401 18.7891 12.6484 19.2578 13.1172C19.7266 13.5859 19.974 14.1719 20 14.875C19.974 15.5781 19.7266 16.1641 19.2578 16.6328C19.3359 16.8672 19.375 17.1146 19.375 17.375C19.349 18.2083 19.0234 18.8724 18.3984 19.3672C18.4245 19.5234 18.4375 19.6927 18.4375 19.875C18.4115 20.7083 18.099 21.3594 17.5 21.8281C17.474 22.5312 17.2266 23.1042 16.7578 23.5469C16.2891 23.9896 15.7031 24.224 15 24.25H11.2109C10.3255 24.25 9.50521 24.0026 8.75 23.5078L6.36719 21.9062C5.89844 21.5417 5.80729 21.112 6.09375 20.6172C6.45833 20.1745 6.88802 20.0833 7.38281 20.3438L9.80469 21.9453C10.2214 22.2318 10.6901 22.375 11.2109 22.375H15C15.3906 22.349 15.599 22.1406 15.625 21.75C15.625 21.6979 15.612 21.6458 15.5859 21.5938C15.4818 21.0729 15.6771 20.6953 16.1719 20.4609C16.4062 20.3568 16.5365 20.1615 16.5625 19.875C16.5625 19.7188 16.5234 19.5885 16.4453 19.4844C16.237 19.1979 16.1849 18.8984 16.2891 18.5859C16.4193 18.2734 16.6536 18.0781 16.9922 18C17.3047 17.9219 17.474 17.7135 17.5 17.375C17.5 17.2188 17.4479 17.0755 17.3438 16.9453C17.1354 16.7109 17.0703 16.4375 17.1484 16.125C17.2266 15.8125 17.4219 15.5911 17.7344 15.4609C17.9688 15.3568 18.099 15.1615 18.125 14.875C18.099 14.4844 17.8906 14.276 17.5 14.25H12.2656C11.901 14.25 11.6276 14.0807 11.4453 13.7422C11.2891 13.4036 11.3151 13.0781 11.5234 12.7656C11.9922 12.1146 12.3307 11.3984 12.5391 10.6172L12.7734 9.83594C12.8776 9.26302 12.6693 8.8724 12.1484 8.66406C11.5755 8.5599 11.1849 8.76823 10.9766 9.28906L10.7422 10.0703C10.5078 10.8776 10.1172 11.5938 9.57031 12.2188L7.57812 14.4062C7.16146 14.7969 6.71875 14.8229 6.25 14.4844C5.85938 14.0417 5.83333 13.599 6.17188 13.1562L8.20312 10.9297C8.54167 10.5391 8.78906 10.0833 8.94531 9.5625L9.17969 8.78125C9.41406 8.02604 9.85677 7.46615 10.5078 7.10156C11.1589 6.73698 11.875 6.65885 12.6562 6.86719ZM1.25 13H3.75C4.11458 13 4.41406 13.1172 4.64844 13.3516C4.88281 13.5859 5 13.8854 5 14.25V23C5 23.3646 4.88281 23.6641 4.64844 23.8984C4.41406 24.1328 4.11458 24.25 3.75 24.25H1.25C0.885417 24.25 0.585938 24.1328 0.351562 23.8984C0.117188 23.6641 0 23.3646 0 23V14.25C0 13.8854 0.117188 13.5859 0.351562 13.3516C0.585938 13.1172 0.885417 13 1.25 13Z" fill="black" fill-opacity="0.72"/>
</g>
<defs>
<clipPath id="clip0_2355_602">
<rect width="20" height="30" fill="white"/>
</clipPath>
</defs>
</svg>
