<svg width="24" height="36" viewBox="0 0 24 36" fill="none" xmlns="http://www.w3.org/2000/svg">
<g id="label-paired / xl / circle-nine-xl / fill" clip-path="url(#clip0_2556_19880)">
<path id="icon" d="M0 18C0 13.7344 2.25 9.79688 6 7.64062C9.70312 5.48438 14.25 5.48438 18 7.64062C21.7031 9.79688 24 13.7344 24 18C24 22.3125 21.7031 26.25 18 28.4062C14.25 30.5625 9.70312 30.5625 6 28.4062C2.25 26.25 0 22.3125 0 18ZM12 18.75C11.1562 18.75 10.4531 18.3281 10.0312 17.625C9.60938 16.9688 9.60938 16.0781 10.0312 15.375C10.4531 14.7188 11.1562 14.25 12 14.25C12.7969 14.25 13.5 14.7188 13.9219 15.375C14.3438 16.0781 14.3438 16.9688 13.9219 17.625C13.5 18.3281 12.7969 18.75 12 18.75ZM10.7812 20.8594L9.375 22.0312C8.90625 22.4531 8.85938 23.1562 9.23438 23.625C9.65625 24.0938 10.3594 24.1406 10.8281 23.7656L14.6719 20.4844C15.7969 19.5 16.5 18.0469 16.5 16.5C16.5 14.0156 14.4844 12 12 12C9.51562 12 7.5 14.0156 7.5 16.5C7.5 18.5625 8.85938 20.3438 10.7812 20.8594Z" fill="black" fill-opacity="0.72"/>
</g>
<defs>
<clipPath id="clip0_2556_19880">
<rect width="24" height="36" fill="white"/>
</clipPath>
</defs>
</svg>
