<svg width="12" height="18" viewBox="0 0 12 18" fill="none" xmlns="http://www.w3.org/2000/svg">
<g id="label-paired / caption / circle-dot-caption / fill" clip-path="url(#clip0_2556_10506)">
<path id="icon" d="M6 15.5C3.84375 15.5 1.875 14.375 0.796875 12.5C-0.28125 10.6484 -0.28125 8.375 0.796875 6.5C1.875 4.64844 3.84375 3.5 6 3.5C8.13281 3.5 10.1016 4.64844 11.1797 6.5C12.2578 8.375 12.2578 10.6484 11.1797 12.5C10.1016 14.375 8.13281 15.5 6 15.5ZM6 7.25C5.17969 7.25 4.45312 7.69531 4.03125 8.375C3.63281 9.07812 3.63281 9.94531 4.03125 10.625C4.45312 11.3281 5.17969 11.75 6 11.75C6.79688 11.75 7.52344 11.3281 7.94531 10.625C8.34375 9.94531 8.34375 9.07812 7.94531 8.375C7.52344 7.69531 6.79688 7.25 6 7.25Z" fill="black" fill-opacity="0.72"/>
</g>
<defs>
<clipPath id="clip0_2556_10506">
<rect width="12" height="18" fill="white"/>
</clipPath>
</defs>
</svg>
