<svg width="11" height="18" viewBox="0 0 11 18" fill="none" xmlns="http://www.w3.org/2000/svg">
<g id="label-paired / caption / grid-caption / fill" clip-path="url(#clip0_2556_10516)">
<path id="icon" d="M0.25 5.1875C0.25 4.67188 0.648438 4.25 1.1875 4.25H2.3125C2.82812 4.25 3.25 4.67188 3.25 5.1875V6.3125C3.25 6.85156 2.82812 7.25 2.3125 7.25H1.1875C0.648438 7.25 0.25 6.85156 0.25 6.3125V5.1875ZM0.25 8.9375C0.25 8.42188 0.648438 8 1.1875 8H2.3125C2.82812 8 3.25 8.42188 3.25 8.9375V10.0625C3.25 10.6016 2.82812 11 2.3125 11H1.1875C0.648438 11 0.25 10.6016 0.25 10.0625V8.9375ZM3.25 12.6875V13.8125C3.25 14.3516 2.82812 14.75 2.3125 14.75H1.1875C0.648438 14.75 0.25 14.3516 0.25 13.8125V12.6875C0.25 12.1719 0.648438 11.75 1.1875 11.75H2.3125C2.82812 11.75 3.25 12.1719 3.25 12.6875ZM4 5.1875C4 4.67188 4.39844 4.25 4.9375 4.25H6.0625C6.57812 4.25 7 4.67188 7 5.1875V6.3125C7 6.85156 6.57812 7.25 6.0625 7.25H4.9375C4.39844 7.25 4 6.85156 4 6.3125V5.1875ZM7 8.9375V10.0625C7 10.6016 6.57812 11 6.0625 11H4.9375C4.39844 11 4 10.6016 4 10.0625V8.9375C4 8.42188 4.39844 8 4.9375 8H6.0625C6.57812 8 7 8.42188 7 8.9375ZM4 12.6875C4 12.1719 4.39844 11.75 4.9375 11.75H6.0625C6.57812 11.75 7 12.1719 7 12.6875V13.8125C7 14.3516 6.57812 14.75 6.0625 14.75H4.9375C4.39844 14.75 4 14.3516 4 13.8125V12.6875ZM10.75 5.1875V6.3125C10.75 6.85156 10.3281 7.25 9.8125 7.25H8.6875C8.14844 7.25 7.75 6.85156 7.75 6.3125V5.1875C7.75 4.67188 8.14844 4.25 8.6875 4.25H9.8125C10.3281 4.25 10.75 4.67188 10.75 5.1875ZM7.75 8.9375C7.75 8.42188 8.14844 8 8.6875 8H9.8125C10.3281 8 10.75 8.42188 10.75 8.9375V10.0625C10.75 10.6016 10.3281 11 9.8125 11H8.6875C8.14844 11 7.75 10.6016 7.75 10.0625V8.9375ZM10.75 12.6875V13.8125C10.75 14.3516 10.3281 14.75 9.8125 14.75H8.6875C8.14844 14.75 7.75 14.3516 7.75 13.8125V12.6875C7.75 12.1719 8.14844 11.75 8.6875 11.75H9.8125C10.3281 11.75 10.75 12.1719 10.75 12.6875Z" fill="black" fill-opacity="0.72"/>
</g>
<defs>
<clipPath id="clip0_2556_10516">
<rect width="11" height="18" fill="white"/>
</clipPath>
</defs>
</svg>
