<svg width="27" height="36" viewBox="0 0 27 36" fill="none" xmlns="http://www.w3.org/2000/svg">
<g id="label-paired / xl / rectangle-ad-xl / bold" clip-path="url(#clip0_2556_19441)">
<path id="icon" d="M3 9.75C2.57812 9.75 2.25 10.125 2.25 10.5V25.5C2.25 25.9219 2.57812 26.25 3 26.25H24C24.375 26.25 24.75 25.9219 24.75 25.5V10.5C24.75 10.125 24.375 9.75 24 9.75H3ZM0 10.5C0 8.85938 1.3125 7.5 3 7.5H24C25.6406 7.5 27 8.85938 27 10.5V25.5C27 27.1875 25.6406 28.5 24 28.5H3C1.3125 28.5 0 27.1875 0 25.5V10.5ZM10.7344 14.1562L14.1094 20.9062C14.3906 21.4688 14.1562 22.125 13.5938 22.4062C13.0781 22.6875 12.375 22.4531 12.0938 21.8906L11.8594 21.375H7.59375L7.35938 21.8906C7.07812 22.4531 6.42188 22.6875 5.85938 22.4062C5.29688 22.125 5.0625 21.4688 5.34375 20.9062L8.71875 14.1562C8.90625 13.7812 9.28125 13.5 9.75 13.5C10.1719 13.5 10.5469 13.7344 10.7344 14.1562ZM9.75 17.1562L8.71875 19.125H10.7344L9.75 17.1562ZM18.375 18C17.7188 18 17.25 18.5156 17.25 19.125C17.25 19.7812 17.7188 20.25 18.375 20.25C18.9844 20.25 19.5 19.7812 19.5 19.125C19.5 18.5156 18.9844 18 18.375 18ZM19.5 15.9844V14.625C19.5 14.0156 19.9688 13.5 20.625 13.5C21.2344 13.5 21.75 14.0156 21.75 14.625V19.125V21.375C21.75 22.0312 21.2344 22.5 20.625 22.5C20.2969 22.5 20.0156 22.4062 19.8281 22.1719C19.3594 22.4062 18.8906 22.5 18.375 22.5C16.5 22.5 15 21 15 19.125C15 17.2969 16.5 15.75 18.375 15.75C18.75 15.75 19.125 15.8438 19.5 15.9844Z" fill="black" fill-opacity="0.72"/>
</g>
<defs>
<clipPath id="clip0_2556_19441">
<rect width="27" height="36" fill="white"/>
</clipPath>
</defs>
</svg>
