<svg width="18" height="36" viewBox="0 0 18 36" fill="none" xmlns="http://www.w3.org/2000/svg">
<g id="label-paired / xl / percent-xl / fill" clip-path="url(#clip0_2556_19347)">
<path id="icon" d="M17.5312 11.5781L2.53125 26.5781C1.96875 27.1875 0.984375 27.1875 0.421875 26.5781C-0.1875 26.0156 -0.1875 25.0312 0.421875 24.4688L15.4219 9.46875C15.9844 8.85938 16.9688 8.85938 17.5312 9.46875C18.1406 10.0312 18.1406 11.0156 17.5312 11.5781ZM6 12C6 13.0781 5.39062 14.0625 4.5 14.625C3.5625 15.1406 2.39062 15.1406 1.5 14.625C0.5625 14.0625 0 13.0781 0 12C0 10.9688 0.5625 9.98438 1.5 9.42188C2.39062 8.90625 3.5625 8.90625 4.5 9.42188C5.39062 9.98438 6 10.9688 6 12ZM18 24C18 25.0781 17.3906 26.0625 16.5 26.625C15.5625 27.1406 14.3906 27.1406 13.5 26.625C12.5625 26.0625 12 25.0781 12 24C12 22.9688 12.5625 21.9844 13.5 21.4219C14.3906 20.9062 15.5625 20.9062 16.5 21.4219C17.3906 21.9844 18 22.9688 18 24Z" fill="black" fill-opacity="0.72"/>
</g>
<defs>
<clipPath id="clip0_2556_19347">
<rect width="18" height="36" fill="white"/>
</clipPath>
</defs>
</svg>
