<svg width="13" height="22" viewBox="0 0 13 22" fill="none" xmlns="http://www.w3.org/2000/svg">
<g id="label-paired / sm / instagram-sm" clip-path="url(#clip0_2556_12229)">
<path id="icon" d="M6.5 7.60547C8.22266 7.60547 9.64453 9.02734 9.64453 10.75C9.64453 12.5 8.22266 13.8945 6.5 13.8945C4.75 13.8945 3.35547 12.5 3.35547 10.75C3.35547 9.02734 4.75 7.60547 6.5 7.60547ZM6.5 12.8008C7.62109 12.8008 8.52344 11.8984 8.52344 10.75C8.52344 9.62891 7.62109 8.72656 6.5 8.72656C5.35156 8.72656 4.44922 9.62891 4.44922 10.75C4.44922 11.8984 5.37891 12.8008 6.5 12.8008ZM10.4922 7.49609C10.4922 7.08594 10.1641 6.75781 9.75391 6.75781C9.34375 6.75781 9.01562 7.08594 9.01562 7.49609C9.01562 7.90625 9.34375 8.23438 9.75391 8.23438C10.1641 8.23438 10.4922 7.90625 10.4922 7.49609ZM12.5703 8.23438C12.625 9.24609 12.625 12.2812 12.5703 13.293C12.5156 14.2773 12.2969 15.125 11.5859 15.8633C10.875 16.5742 10 16.793 9.01562 16.8477C8.00391 16.9023 4.96875 16.9023 3.95703 16.8477C2.97266 16.793 2.125 16.5742 1.38672 15.8633C0.675781 15.125 0.457031 14.2773 0.402344 13.293C0.347656 12.2812 0.347656 9.24609 0.402344 8.23438C0.457031 7.25 0.675781 6.375 1.38672 5.66406C2.125 4.95312 2.97266 4.73438 3.95703 4.67969C4.96875 4.625 8.00391 4.625 9.01562 4.67969C10 4.73438 10.875 4.95312 11.5859 5.66406C12.2969 6.375 12.5156 7.25 12.5703 8.23438ZM11.2578 14.3594C11.5859 13.5664 11.5039 11.6523 11.5039 10.75C11.5039 9.875 11.5859 7.96094 11.2578 7.14062C11.0391 6.62109 10.6289 6.18359 10.1094 5.99219C9.28906 5.66406 7.375 5.74609 6.5 5.74609C5.59766 5.74609 3.68359 5.66406 2.89062 5.99219C2.34375 6.21094 1.93359 6.62109 1.71484 7.14062C1.38672 7.96094 1.46875 9.875 1.46875 10.75C1.46875 11.6523 1.38672 13.5664 1.71484 14.3594C1.93359 14.9062 2.34375 15.3164 2.89062 15.5352C3.68359 15.8633 5.59766 15.7812 6.5 15.7812C7.375 15.7812 9.28906 15.8633 10.1094 15.5352C10.6289 15.3164 11.0664 14.9062 11.2578 14.3594Z" fill="black" fill-opacity="0.72"/>
</g>
<defs>
<clipPath id="clip0_2556_12229">
<rect width="13" height="22" fill="white"/>
</clipPath>
</defs>
</svg>
