<svg width="24" height="36" viewBox="0 0 24 36" fill="none" xmlns="http://www.w3.org/2000/svg">
<g id="label-paired / xl / thumbs-down-xl / bold" clip-path="url(#clip0_2556_19862)">
<path id="icon" d="M15.1406 28.4062C13.3594 28.9219 11.4844 27.8438 10.9688 26.0625L10.7344 25.125C10.5469 24.5156 10.2188 23.9531 9.79688 23.4844L7.40625 20.8594C6.98438 20.3906 7.03125 19.6875 7.45312 19.2656C7.92188 18.8438 8.625 18.8906 9.04688 19.3594L11.4844 21.9844C12.1406 22.6875 12.6094 23.5781 12.8906 24.5156L13.125 25.4531C13.3125 26.0625 13.9219 26.3906 14.5312 26.25C15.1406 26.0625 15.4688 25.4531 15.3281 24.8438L15.0469 23.9062C14.7656 22.9688 14.3438 22.0781 13.7812 21.2812C13.5469 20.9531 13.5469 20.4844 13.7344 20.1094C13.9219 19.7344 14.2969 19.5 14.7188 19.5H21C21.375 19.5 21.75 19.1719 21.75 18.75C21.75 18.4688 21.5156 18.1875 21.2344 18.0469C20.9062 17.9531 20.625 17.625 20.5312 17.2969C20.4375 16.9219 20.5312 16.5469 20.8125 16.2656C20.9062 16.125 21 15.9844 21 15.75C21 15.4219 20.7188 15.0938 20.3906 15.0469C19.9688 14.9531 19.6406 14.6719 19.5469 14.3438C19.4062 13.9688 19.4531 13.5469 19.6875 13.2188C19.7812 13.125 19.875 12.9375 19.875 12.75C19.875 12.4688 19.6406 12.1875 19.3594 12.0469C18.8438 11.8594 18.5625 11.2969 18.7031 10.7344C18.7031 10.6406 18.75 10.5938 18.75 10.5C18.75 10.125 18.375 9.75 18 9.75H13.4062C12.7969 9.75 12.2344 9.9375 11.7656 10.2656L8.85938 12.1875C8.34375 12.5625 7.64062 12.4219 7.3125 11.8594C6.9375 11.3438 7.07812 10.6875 7.59375 10.3125L10.5 8.39062C11.3438 7.82812 12.375 7.5 13.4062 7.5H18C19.5938 7.5 20.9062 8.8125 21 10.4062C21.6562 10.9688 22.125 11.8125 22.125 12.75C22.125 12.9844 22.0781 13.1719 22.0312 13.3594C22.7812 13.9219 23.25 14.7656 23.25 15.75C23.25 16.0781 23.2031 16.3594 23.1094 16.6406C23.625 17.2031 24 17.9531 24 18.75C24 20.4375 22.6406 21.75 21 21.75H16.6406C16.875 22.2656 17.0625 22.7812 17.2031 23.2969L17.4844 24.2344C18 26.0156 16.9688 27.8906 15.1406 28.4062ZM1.5 24C0.65625 24 0 23.3438 0 22.5V12C0 11.2031 0.65625 10.5 1.5 10.5H4.5C5.29688 10.5 6 11.2031 6 12V22.5C6 23.3438 5.29688 24 4.5 24H1.5Z" fill="black" fill-opacity="0.72"/>
</g>
<defs>
<clipPath id="clip0_2556_19862">
<rect width="24" height="36" fill="white"/>
</clipPath>
</defs>
</svg>
