<svg width="12" height="18" viewBox="0 0 12 18" fill="none" xmlns="http://www.w3.org/2000/svg">
<g id="label-paired / caption / fingerprint-caption / regular" clip-path="url(#clip0_2556_9949)">
<path id="icon" d="M0.75 9.5V10.625C0.75 10.8359 0.5625 11 0.375 11C0.164062 11 0 10.8359 0 10.625V9.5C0 6.19531 2.67188 3.5 6 3.5C7.875 3.5 9.5625 4.36719 10.6641 5.72656C10.7812 5.89062 10.7578 6.125 10.5938 6.26562C10.4297 6.38281 10.1953 6.35938 10.0781 6.19531C9.11719 5.02344 7.64062 4.25 6 4.25C3.09375 4.25 0.75 6.61719 0.75 9.5ZM11.7656 7.90625C11.9062 8.42188 12 8.96094 12 9.5V10.625C12 10.8359 11.8125 11 11.625 11C11.4141 11 11.25 10.8359 11.25 10.625V9.5C11.25 9.03125 11.1797 8.5625 11.0391 8.11719C10.9922 7.90625 11.1094 7.69531 11.3203 7.64844C11.5078 7.60156 11.7188 7.71875 11.7656 7.90625ZM6 5.375H5.97656C8.27344 5.375 10.1016 7.22656 10.1016 9.5V10.0859C10.1016 10.7891 10.0781 11.4922 9.98438 12.1953C9.96094 12.3828 9.79688 12.5 9.60938 12.5C9.375 12.5 9.21094 12.3125 9.23438 12.0781C9.32812 11.4219 9.375 10.7656 9.375 10.0859V9.5C9.375 7.64844 7.85156 6.125 6 6.125C5.57812 6.125 5.17969 6.21875 4.80469 6.33594C4.66406 6.40625 4.47656 6.35938 4.35938 6.24219C4.19531 6.05469 4.24219 5.75 4.47656 5.67969C4.94531 5.49219 5.46094 5.375 6 5.375ZM3.39844 6.85156C3.51562 6.99219 3.51562 7.22656 3.375 7.36719C2.90625 7.95312 2.625 8.70312 2.625 9.5V10.0859C2.625 10.8125 2.53125 11.5391 2.34375 12.2422C2.29688 12.4062 2.15625 12.5 1.99219 12.5C1.73438 12.5 1.57031 12.2656 1.61719 12.0312C1.78125 11.3984 1.875 10.7422 1.875 10.0859V9.5C1.875 8.49219 2.22656 7.55469 2.85938 6.82812C3 6.66406 3.25781 6.6875 3.39844 6.85156ZM6 7.25C7.24219 7.25 8.25 8.25781 8.25 9.5V10.0859C8.25 11.0703 8.13281 12.0312 7.94531 12.9688C7.92188 13.1328 7.75781 13.25 7.59375 13.25C7.33594 13.25 7.17188 13.0391 7.21875 12.8047C7.40625 11.9141 7.5 11 7.5 10.0859V9.5C7.5 8.67969 6.82031 8 6 8C5.15625 8 4.5 8.67969 4.5 9.5V10.0859C4.5 11.0703 4.35938 12.0547 4.07812 12.9922C4.03125 13.1562 3.89062 13.25 3.72656 13.25C3.46875 13.25 3.30469 13.0156 3.375 12.7578C3.60938 11.8906 3.75 11 3.75 10.0859V9.5C3.75 8.25781 4.75781 7.25 6 7.25ZM6.375 9.5V10.0859C6.375 11.6094 6.09375 13.1094 5.53125 14.5391L5.39062 14.8906C5.32031 15.1016 5.10938 15.1953 4.92188 15.1016C4.71094 15.0312 4.61719 14.8203 4.71094 14.6328L4.82812 14.2578C5.34375 12.9453 5.625 11.5156 5.625 10.0859V9.5C5.625 9.3125 5.78906 9.125 6 9.125C6.1875 9.125 6.375 9.3125 6.375 9.5Z" fill="black" fill-opacity="0.72"/>
</g>
<defs>
<clipPath id="clip0_2556_9949">
<rect width="12" height="18" fill="white"/>
</clipPath>
</defs>
</svg>
