<svg width="20" height="30" viewBox="0 0 20 30" fill="none" xmlns="http://www.w3.org/2000/svg">
<g id="label-paired / lg / puzzle-lg / fill" clip-path="url(#clip0_3431_937)">
<path id="icon" d="M12.5 5.5H17.5C18.8672 5.5 20 6.63281 20 8V13C20 13.3516 19.6875 13.625 19.375 13.625H17.3438C17.0703 13.625 16.875 13.8594 16.875 14.0938V14.25C16.875 14.9531 16.2891 15.5 15.625 15.5C14.9219 15.5 14.375 14.9531 14.375 14.25V14.0938C14.375 13.8594 14.1406 13.625 13.9062 13.625H12.5C12.1484 13.625 11.875 13.3516 11.875 13V11.75C11.875 11.4375 12.1484 11.125 12.5 11.125H13.125C13.7891 11.125 14.375 10.5781 14.375 9.875C14.375 9.21094 13.7891 8.625 13.125 8.625H12.5C12.1484 8.625 11.875 8.35156 11.875 8V6.125C11.875 5.8125 12.1484 5.5 12.5 5.5ZM0 15.5V10.5C0 9.13281 1.09375 8 2.5 8H7.5C7.8125 8 8.125 8.3125 8.125 8.625V10.0312C8.125 10.3047 8.32031 10.5 8.59375 10.5H8.75C9.41406 10.5 10 11.0859 10 11.75C10 12.4531 9.41406 13 8.75 13H8.59375C8.32031 13 8.125 13.2344 8.125 13.4688V15.5C8.125 15.8516 7.8125 16.125 7.5 16.125H6.25C5.89844 16.125 5.625 15.8516 5.625 15.5V14.875C5.625 14.2109 5.03906 13.625 4.375 13.625C3.67188 13.625 3.125 14.2109 3.125 14.875V15.5C3.125 15.8516 2.8125 16.125 2.5 16.125H0.625C0.273438 16.125 0 15.8516 0 15.5ZM0 23V18C0 17.6875 0.273438 17.375 0.625 17.375H7.5C7.8125 17.375 8.125 17.6875 8.125 18V19.25C8.125 19.6016 7.8125 19.875 7.5 19.875H6.875C6.17188 19.875 5.625 20.4609 5.625 21.125C5.625 21.8281 6.17188 22.375 6.875 22.375H7.5C7.8125 22.375 8.125 22.6875 8.125 23V24.875C8.125 25.2266 7.8125 25.5 7.5 25.5H2.5C1.09375 25.5 0 24.4062 0 23ZM9.375 18C9.375 17.6875 9.64844 17.375 10 17.375H11.25C11.5625 17.375 11.875 17.6875 11.875 18V18.625C11.875 19.3281 12.4219 19.875 13.125 19.875C13.7891 19.875 14.375 19.3281 14.375 18.625V18C14.375 17.6875 14.6484 17.375 15 17.375H16.875C17.1875 17.375 17.5 17.6875 17.5 18V23C17.5 24.4062 16.3672 25.5 15 25.5H10C9.64844 25.5 9.375 25.2266 9.375 24.875V18Z" fill="black" fill-opacity="0.72"/>
</g>
<defs>
<clipPath id="clip0_3431_937">
<rect width="20" height="30" fill="white"/>
</clipPath>
</defs>
</svg>
