<svg width="16" height="24" viewBox="0 0 16 24" fill="none" xmlns="http://www.w3.org/2000/svg">
<g id="label-paired / md / chart-candlestick-md / regular" clip-path="url(#clip0_2556_14777)">
<path id="icon" d="M1 5.5V16.5C1 17.3438 1.65625 18 2.5 18H15.5C15.75 18 16 18.25 16 18.5C16 18.7812 15.75 19 15.5 19H2.5C1.09375 19 0 17.9062 0 16.5V5.5C0 5.25 0.21875 5 0.5 5C0.75 5 1 5.25 1 5.5ZM10 5.5V7C10 7.03125 10 7.03125 10 7.03125C10.5625 7.15625 11 7.65625 11 8.25V10.75C11 11.375 10.5625 11.875 10 12V13.5C10 13.7812 9.75 14 9.5 14C9.21875 14 9 13.7812 9 13.5V12C8.40625 11.875 8 11.375 8 10.75V8.25C8 7.65625 8.40625 7.15625 9 7.03125C9 7.03125 9 7.03125 9 7V5.5C9 5.25 9.21875 5 9.5 5C9.75 5 10 5.25 10 5.5ZM5.5 6C5.75 6 6 6.25 6 6.5V8C6 8.03125 6 8.03125 6 8.03125C6.5625 8.15625 7 8.65625 7 9.25V12.75C7 13.375 6.5625 13.875 6 14V15.5C6 15.7812 5.75 16 5.5 16C5.21875 16 5 15.7812 5 15.5V14C4.40625 13.875 4 13.375 4 12.75V9.25C4 8.65625 4.40625 8.15625 5 8.03125C5 8.03125 5 8.03125 5 8V6.5C5 6.25 5.21875 6 5.5 6ZM10 8.25C10 8.125 9.875 8 9.75 8H9.25C9.09375 8 9 8.125 9 8.25V10.75C9 10.9062 9.09375 11 9.25 11H9.75C9.875 11 10 10.9062 10 10.75V8.25ZM13.25 11C13.0938 11 13 11.125 13 11.25V12.75C13 12.9062 13.0938 13 13.25 13H13.75C13.875 13 14 12.9062 14 12.75V11.25C14 11.125 13.875 11 13.75 11H13.25ZM13 10V8.5C13 8.25 13.2188 8 13.5 8C13.75 8 14 8.25 14 8.5V10C14 10.0312 14 10.0312 14 10.0312C14.5625 10.1562 15 10.6562 15 11.25V12.75C15 13.375 14.5625 13.875 14 14V15.5C14 15.7812 13.75 16 13.5 16C13.2188 16 13 15.7812 13 15.5V14C12.4062 13.875 12 13.375 12 12.75V11.25C12 10.6562 12.4062 10.1562 13 10.0312C13 10.0312 13 10.0312 13 10ZM5.75 9H5.25C5.09375 9 5 9.125 5 9.25V12.75C5 12.9062 5.09375 13 5.25 13H5.75C5.875 13 6 12.9062 6 12.75V9.25C6 9.125 5.875 9 5.75 9Z" fill="black" fill-opacity="0.72"/>
</g>
<defs>
<clipPath id="clip0_2556_14777">
<rect width="16" height="24" fill="white"/>
</clipPath>
</defs>
</svg>
