<svg width="16" height="24" viewBox="0 0 16 24" fill="none" xmlns="http://www.w3.org/2000/svg">
<g id="label-paired / md / sun-bright-md / fill" clip-path="url(#clip0_2556_15036)">
<path id="icon" d="M8 4C8.40625 4 8.75 4.34375 8.75 4.75V6.75C8.75 7.1875 8.40625 7.5 8 7.5C7.5625 7.5 7.25 7.1875 7.25 6.75V4.75C7.25 4.34375 7.5625 4 8 4ZM8 16.5C8.40625 16.5 8.75 16.8438 8.75 17.25V19.25C8.75 19.6875 8.40625 20 8 20C7.5625 20 7.25 19.6875 7.25 19.25V17.25C7.25 16.8438 7.5625 16.5 8 16.5ZM15.25 12.75H13.25C12.8125 12.75 12.5 12.4375 12.5 12C12.5 11.5938 12.8125 11.25 13.25 11.25H15.25C15.6562 11.25 16 11.5938 16 12C16 12.4375 15.6562 12.75 15.25 12.75ZM3.5 12C3.5 12.4375 3.15625 12.75 2.75 12.75H0.75C0.3125 12.75 0 12.4375 0 12C0 11.5938 0.3125 11.25 0.75 11.25H2.75C3.15625 11.25 3.5 11.5938 3.5 12ZM13.6562 7.40625L12.2188 8.84375C11.9375 9.125 11.4688 9.125 11.1562 8.84375C10.875 8.53125 10.875 8.0625 11.1562 7.78125L12.5938 6.34375C12.875 6.0625 13.3438 6.0625 13.6562 6.34375C13.9375 6.65625 13.9375 7.125 13.6562 7.40625ZM4.8125 15.1875C5.09375 15.5 5.09375 15.9688 4.8125 16.25L3.375 17.6562C3.09375 17.9688 2.625 17.9688 2.34375 17.6562C2.03125 17.375 2.03125 16.9062 2.34375 16.625L3.75 15.1875C4.03125 14.9062 4.5 14.9062 4.8125 15.1875ZM12.5938 17.6562L11.1562 16.25C10.875 15.9688 10.875 15.5 11.1562 15.1875C11.4688 14.9062 11.9375 14.9062 12.2188 15.1875L13.6562 16.625C13.9375 16.9062 13.9375 17.375 13.6562 17.6562C13.3438 17.9688 12.875 17.9688 12.5938 17.6562ZM4.8125 8.84375C4.5 9.125 4.03125 9.125 3.75 8.84375L2.34375 7.40625C2.03125 7.125 2.03125 6.65625 2.34375 6.34375C2.625 6.0625 3.09375 6.0625 3.375 6.34375L4.8125 7.78125C5.09375 8.0625 5.09375 8.53125 4.8125 8.84375ZM8 15.5C6.71875 15.5 5.59375 14.8438 4.96875 13.75C4.3125 12.6875 4.3125 11.3438 4.96875 10.25C5.59375 9.1875 6.71875 8.5 8 8.5C9.25 8.5 10.375 9.1875 11 10.25C11.6562 11.3438 11.6562 12.6875 11 13.75C10.375 14.8438 9.25 15.5 8 15.5Z" fill="black" fill-opacity="0.72"/>
</g>
<defs>
<clipPath id="clip0_2556_15036">
<rect width="16" height="24" fill="white"/>
</clipPath>
</defs>
</svg>
