<svg width="21" height="36" viewBox="0 0 21 36" fill="none" xmlns="http://www.w3.org/2000/svg">
<g id="label-paired / xl / bars-filter-xl / fill" clip-path="url(#clip0_2556_19859)">
<path id="icon" d="M0 10.5C0 9.70312 0.65625 9 1.5 9H19.5C20.2969 9 21 9.70312 21 10.5C21 11.3438 20.2969 12 19.5 12H1.5C0.65625 12 0 11.3438 0 10.5ZM3 18C3 17.2031 3.65625 16.5 4.5 16.5H16.5C17.2969 16.5 18 17.2031 18 18C18 18.8438 17.2969 19.5 16.5 19.5H4.5C3.65625 19.5 3 18.8438 3 18ZM13.5 25.5C13.5 26.3438 12.7969 27 12 27H9C8.15625 27 7.5 26.3438 7.5 25.5C7.5 24.7031 8.15625 24 9 24H12C12.7969 24 13.5 24.7031 13.5 25.5Z" fill="black" fill-opacity="0.72"/>
</g>
<defs>
<clipPath id="clip0_2556_19859">
<rect width="21" height="36" fill="white"/>
</clipPath>
</defs>
</svg>
