<svg width="13" height="22" viewBox="0 0 13 22" fill="none" xmlns="http://www.w3.org/2000/svg">
<g id="label-paired / sm / arrow-left-sm / bold" clip-path="url(#clip0_2556_12720)">
<path id="icon" d="M0.566406 11.2422C0.429688 11.1055 0.375 10.9414 0.375 10.75C0.375 10.5859 0.429688 10.4219 0.566406 10.2852L5.37891 5.69141C5.65234 5.44531 6.0625 5.44531 6.30859 5.71875C6.55469 5.96484 6.55469 6.40234 6.28125 6.64844L2.64453 10.0938H11.9688C12.3242 10.0938 12.625 10.3945 12.625 10.75C12.625 11.1328 12.3242 11.4062 11.9688 11.4062H2.64453L6.28125 14.8789C6.55469 15.125 6.55469 15.5352 6.30859 15.8086C6.0625 16.082 5.65234 16.082 5.37891 15.8359L0.566406 11.2422Z" fill="black" fill-opacity="0.72"/>
</g>
<defs>
<clipPath id="clip0_2556_12720">
<rect width="13" height="22" fill="white"/>
</clipPath>
</defs>
</svg>
