<svg width="18" height="24" viewBox="0 0 18 24" fill="none" xmlns="http://www.w3.org/2000/svg">
<g id="label-paired / md / link-simple-md / fill" clip-path="url(#clip0_2556_15203)">
<path id="icon" d="M0 12C0 9.25 2.21875 7 5 7H7C7.53125 7 8 7.46875 8 8C8 8.5625 7.53125 9 7 9H5C3.34375 9 2 10.3438 2 12C2 13.6562 3.34375 15 5 15H7C7.53125 15 8 15.4688 8 16C8 16.5625 7.53125 17 7 17H5C2.21875 17 0 14.7812 0 12ZM18 12C18 14.7812 15.75 17 13 17H11C10.4375 17 10 16.5625 10 16C10 15.4688 10.4375 15 11 15H13C14.6562 15 16 13.6562 16 12C16 10.3438 14.6562 9 13 9H11C10.4375 9 10 8.5625 10 8C10 7.46875 10.4375 7 11 7H13C15.75 7 18 9.25 18 12ZM6 11H12C12.5312 11 13 11.4688 13 12C13 12.5625 12.5312 13 12 13H6C5.4375 13 5 12.5625 5 12C5 11.4688 5.4375 11 6 11Z" fill="black" fill-opacity="0.72"/>
</g>
<defs>
<clipPath id="clip0_2556_15203">
<rect width="18" height="24" fill="white"/>
</clipPath>
</defs>
</svg>
