<svg width="16" height="24" viewBox="0 0 16 24" fill="none" xmlns="http://www.w3.org/2000/svg">
<g id="label-paired / md / circle-arrow-up-left-md / regular" clip-path="url(#clip0_2556_15241)">
<path id="icon" d="M8 5C5.46875 5 3.1875 6.34375 1.9375 8.5C0.65625 10.6875 0.65625 13.3438 1.9375 15.5C3.1875 17.6875 5.46875 19 8 19C10.5 19 12.7812 17.6875 14.0312 15.5C15.3125 13.3438 15.3125 10.6875 14.0312 8.5C12.7812 6.34375 10.5 5 8 5ZM8 20C5.125 20 2.5 18.5 1.0625 16C-0.375 13.5312 -0.375 10.5 1.0625 8C2.5 5.53125 5.125 4 8 4C10.8438 4 13.4688 5.53125 14.9062 8C16.3438 10.5 16.3438 13.5312 14.9062 16C13.4688 18.5 10.8438 20 8 20ZM9.75 9C10 9 10.25 9.25 10.25 9.5C10.25 9.78125 10 10 9.75 10H6.6875L10.8438 14.1562C11.0312 14.3438 11.0312 14.6875 10.8438 14.875C10.6562 15.0625 10.3125 15.0625 10.125 14.875L6 10.7188V14C6 14.2812 5.75 14.5 5.5 14.5C5.21875 14.5 5 14.2812 5 14V9.5C5 9.25 5.21875 9 5.5 9H9.75Z" fill="black" fill-opacity="0.72"/>
</g>
<defs>
<clipPath id="clip0_2556_15241">
<rect width="16" height="24" fill="white"/>
</clipPath>
</defs>
</svg>
