<svg width="23" height="30" viewBox="0 0 23 30" fill="none" xmlns="http://www.w3.org/2000/svg">
<g id="label-paired / lg / house-user-lg / regular" clip-path="url(#clip0_4670_654)">
<path id="icon" d="M11.0703 5.65625C11.3047 5.46094 11.6562 5.46094 11.8906 5.65625L22.5156 15.0312C22.7891 15.2656 22.7891 15.6562 22.5938 15.9297C22.3594 16.2031 21.9688 16.2031 21.6953 15.9688L20.25 14.6797V22.375C20.25 24.1328 18.8438 25.5 17.125 25.5H5.875C4.11719 25.5 2.75 24.1328 2.75 22.375V14.6797L1.26562 15.9688C1.03125 16.2031 0.601562 16.2031 0.40625 15.9297C0.171875 15.6562 0.171875 15.2656 0.445312 15.0312L11.0703 5.65625ZM4 13.5859V22.375C4 23.4297 4.82031 24.25 5.875 24.25H17.125C18.1406 24.25 19 23.4297 19 22.375V13.5859L11.5 6.98438L4 13.5859ZM11.5 15.5C12.1641 15.5 12.75 14.9531 12.75 14.25C12.75 13.5859 12.1641 13 11.5 13C10.7969 13 10.25 13.5859 10.25 14.25C10.25 14.9531 10.7969 15.5 11.5 15.5ZM11.5 11.75C12.3594 11.75 13.1797 12.2578 13.6484 13C14.0781 13.7812 14.0781 14.7578 13.6484 15.5C13.1797 16.2812 12.3594 16.75 11.5 16.75C10.6016 16.75 9.78125 16.2812 9.3125 15.5C8.88281 14.7578 8.88281 13.7812 9.3125 13C9.78125 12.2578 10.6016 11.75 11.5 11.75ZM8.375 20.8125V21.125C8.375 21.4766 8.0625 21.75 7.75 21.75C7.39844 21.75 7.125 21.4766 7.125 21.125V20.8125C7.125 19.2891 8.375 18 9.9375 18H13.0625C14.5859 18 15.875 19.2891 15.875 20.8125V21.125C15.875 21.4766 15.5625 21.75 15.25 21.75C14.8984 21.75 14.625 21.4766 14.625 21.125V20.8125C14.625 19.9531 13.9219 19.25 13.0625 19.25H9.9375C9.03906 19.25 8.375 19.9531 8.375 20.8125Z" fill="black" fill-opacity="0.72"/>
</g>
<defs>
<clipPath id="clip0_4670_654">
<rect width="23" height="30" fill="white"/>
</clipPath>
</defs>
</svg>
