<svg width="20" height="24" viewBox="0 0 20 24" fill="none" xmlns="http://www.w3.org/2000/svg">
<g id="label-paired / md / circle-user-slash-md / bold" clip-path="url(#clip0_2365_762)">
<path id="icon" d="M0.15625 4.3125C0.40625 3.96875 0.875 3.90625 1.1875 4.1875L4.1875 6.5C5.6875 4.9375 7.75 4 10 4C12.8438 4 15.5 5.53125 16.9062 8C18.3438 10.5 18.3438 13.5312 16.9062 16C16.8438 16.125 16.7812 16.2188 16.7188 16.3438L19.6875 18.6875C20.0312 18.9375 20.0938 19.4062 19.8125 19.7188C19.5625 20.0625 19.0938 20.125 18.7812 19.8438L0.28125 5.34375C-0.0625 5.09375 -0.125 4.625 0.15625 4.3125ZM2.5625 9.03125L3.8125 10.0312C3.59375 10.6562 3.5 11.3125 3.5 12C3.5 13.75 4.15625 15.3438 5.28125 16.5C5.875 15.0625 7.25 14.0625 8.875 14.0312L10.7812 15.5H9C7.78125 15.5 6.75 16.375 6.53125 17.5312C7.53125 18.1562 8.71875 18.5 10 18.5C11.2188 18.5 12.375 18.1562 13.375 17.5625L14.625 18.5312C13.2812 19.4688 11.6875 20 10 20C7.125 20 4.5 18.5 3.0625 16C1.8125 13.875 1.65625 11.3125 2.5625 9.03125ZM5.375 7.4375L7.5 9.09375C7.71875 8.59375 8.125 8.1875 8.625 7.875C9.46875 7.40625 10.5 7.40625 11.375 7.875C12.2188 8.375 12.75 9.28125 12.75 10.25C12.75 11.0938 12.3438 11.9062 11.7188 12.4062L15.5312 15.4062C16.125 14.4062 16.5 13.25 16.5 12C16.5 8.4375 13.5625 5.5 10 5.5C8.1875 5.5 6.53125 6.25 5.375 7.4375ZM8.75 10.0938L10.4375 11.4375C10.7188 11.3125 10.9375 11.125 11.0625 10.9062C11.2812 10.5 11.2812 10.0312 11.0625 9.65625C10.8438 9.25 10.4375 9.03125 10 9.03125C9.53125 9.03125 9.125 9.25 8.90625 9.65625C8.8125 9.78125 8.78125 9.9375 8.75 10.0938Z" fill="black" fill-opacity="0.72"/>
</g>
<defs>
<clipPath id="clip0_2365_762">
<rect width="20" height="24" fill="white"/>
</clipPath>
</defs>
</svg>
