<svg width="20" height="30" viewBox="0 0 20 30" fill="none" xmlns="http://www.w3.org/2000/svg">
<g id="label-paired / lg / search-lg / regular" clip-path="url(#clip0_2556_17553)">
<path id="icon" d="M15 13.625C15 11.2031 13.6719 8.9375 11.5625 7.6875C9.41406 6.47656 6.79688 6.47656 4.6875 7.6875C2.53906 8.9375 1.25 11.2031 1.25 13.625C1.25 16.0859 2.53906 18.3516 4.6875 19.6016C6.79688 20.8125 9.41406 20.8125 11.5625 19.6016C13.6719 18.3516 15 16.0859 15 13.625ZM13.3984 19.7969C11.9922 21.0469 10.1172 21.75 8.125 21.75C3.63281 21.75 0 18.1172 0 13.625C0 9.17188 3.63281 5.5 8.125 5.5C12.5781 5.5 16.25 9.17188 16.25 13.625C16.25 15.6562 15.5078 17.4922 14.2969 18.9375L19.8047 24.4453C20.0391 24.6797 20.0391 25.1094 19.8047 25.3438C19.5703 25.5781 19.1406 25.5781 18.9062 25.3438L13.3984 19.7969Z" fill="black" fill-opacity="0.72"/>
</g>
<defs>
<clipPath id="clip0_2556_17553">
<rect width="20" height="30" fill="white"/>
</clipPath>
</defs>
</svg>
