<svg width="15" height="36" viewBox="0 0 15 36" fill="none" xmlns="http://www.w3.org/2000/svg">
<g id="label-paired / xl / sort-down-xl / regular" clip-path="url(#clip0_2556_19520)">
<path id="icon" d="M7.21875 26.9062C7.26562 27 7.35938 27 7.5 27C7.59375 27 7.6875 27 7.73438 26.9062L13.3594 21.6094C13.4531 21.5156 13.5 21.4688 13.5 21.375C13.5 21.1875 13.3125 21 13.125 21H1.82812C1.64062 21 1.5 21.1875 1.5 21.375C1.5 21.4688 1.5 21.5156 1.59375 21.6094L7.21875 26.9062ZM6.1875 28.0312L0.5625 22.6875C0.1875 22.3594 0 21.8438 0 21.375C0 20.3438 0.796875 19.5 1.82812 19.5H13.125C14.1562 19.5 15 20.3438 15 21.375C15 21.8438 14.7656 22.3594 14.3906 22.6875L8.76562 28.0312C8.4375 28.3594 7.96875 28.5 7.5 28.5C6.98438 28.5 6.51562 28.3594 6.1875 28.0312Z" fill="black" fill-opacity="0.72"/>
</g>
<defs>
<clipPath id="clip0_2556_19520">
<rect width="15" height="36" fill="white"/>
</clipPath>
</defs>
</svg>
