<svg width="11" height="22" viewBox="0 0 11 22" fill="none" xmlns="http://www.w3.org/2000/svg">
<g id="label-paired / sm / mobile-notch-sm / fill" clip-path="url(#clip0_2556_12546)">
<path id="icon" d="M3.75 5.5H2.875C2.62891 5.5 2.4375 5.71875 2.4375 5.9375V15.5625C2.4375 15.8086 2.62891 16 2.875 16H8.125C8.34375 16 8.5625 15.8086 8.5625 15.5625V5.9375C8.5625 5.71875 8.34375 5.5 8.125 5.5H7.25V5.9375C7.25 6.18359 7.03125 6.375 6.8125 6.375H4.1875C3.94141 6.375 3.75 6.18359 3.75 5.9375V5.5ZM2.875 3.75H8.125C9.32812 3.75 10.3125 4.73438 10.3125 5.9375V15.5625C10.3125 16.793 9.32812 17.75 8.125 17.75H2.875C1.64453 17.75 0.6875 16.793 0.6875 15.5625V5.9375C0.6875 4.73438 1.64453 3.75 2.875 3.75ZM3.75 14.6875C3.75 14.4688 3.94141 14.25 4.1875 14.25H6.8125C7.03125 14.25 7.25 14.4688 7.25 14.6875C7.25 14.9336 7.03125 15.125 6.8125 15.125H4.1875C3.94141 15.125 3.75 14.9336 3.75 14.6875Z" fill="black" fill-opacity="0.72"/>
</g>
<defs>
<clipPath id="clip0_2556_12546">
<rect width="11" height="22" fill="white"/>
</clipPath>
</defs>
</svg>
