<svg width="13" height="30" viewBox="0 0 13 30" fill="none" xmlns="http://www.w3.org/2000/svg">
<g id="label-paired / lg / zero-lg / regular" clip-path="url(#clip0_2556_17317)">
<path id="icon" d="M0.25 13C0.25 9.5625 3.02344 6.75 6.5 6.75C9.9375 6.75 12.75 9.5625 12.75 13V18C12.75 21.4766 9.9375 24.25 6.5 24.25C3.02344 24.25 0.25 21.4766 0.25 18V13ZM6.5 8C3.72656 8 1.5 10.2656 1.5 13V18C1.5 20.7734 3.72656 23 6.5 23C9.23438 23 11.5 20.7734 11.5 18V13C11.5 10.2656 9.23438 8 6.5 8Z" fill="black" fill-opacity="0.72"/>
</g>
<defs>
<clipPath id="clip0_2556_17317">
<rect width="13" height="30" fill="white"/>
</clipPath>
</defs>
</svg>
