<svg width="14" height="22" viewBox="0 0 14 22" fill="none" xmlns="http://www.w3.org/2000/svg">
<g id="label-paired / sm / circle-five-sm / regular" clip-path="url(#clip0_2556_12461)">
<path id="icon" d="M7 4.625C4.78516 4.625 2.78906 5.80078 1.69531 7.6875C0.574219 9.60156 0.574219 11.9258 1.69531 13.8125C2.78906 15.7266 4.78516 16.875 7 16.875C9.1875 16.875 11.1836 15.7266 12.2773 13.8125C13.3984 11.9258 13.3984 9.60156 12.2773 7.6875C11.1836 5.80078 9.1875 4.625 7 4.625ZM7 17.75C4.48438 17.75 2.1875 16.4375 0.929688 14.25C-0.328125 12.0898 -0.328125 9.4375 0.929688 7.25C2.1875 5.08984 4.48438 3.75 7 3.75C9.48828 3.75 11.7852 5.08984 13.043 7.25C14.3008 9.4375 14.3008 12.0898 13.043 14.25C11.7852 16.4375 9.48828 17.75 7 17.75ZM5.6875 7.25H8.75C8.96875 7.25 9.1875 7.46875 9.1875 7.6875C9.1875 7.93359 8.96875 8.125 8.75 8.125H6.01562L5.57812 9.92969L7.76562 10.1484C8.80469 10.2578 9.59766 11.1602 9.59766 12.1992C9.59766 13.3477 8.69531 14.25 7.54688 14.25H6.34375C5.60547 14.25 4.89453 13.8945 4.48438 13.2656L4.42969 13.1836C4.29297 12.9922 4.34766 12.7188 4.56641 12.582C4.75781 12.4453 5.03125 12.5 5.16797 12.6914L5.22266 12.7734C5.46875 13.1562 5.90625 13.375 6.34375 13.375H7.54688C8.20312 13.375 8.75 12.8555 8.75 12.1992C8.75 11.5977 8.28516 11.1055 7.68359 11.0234L4.97656 10.75C4.83984 10.75 4.73047 10.668 4.64844 10.5859C4.59375 10.4766 4.56641 10.3398 4.59375 10.2305L5.25 7.60547C5.30469 7.38672 5.46875 7.25 5.6875 7.25Z" fill="black" fill-opacity="0.72"/>
</g>
<defs>
<clipPath id="clip0_2556_12461">
<rect width="14" height="22" fill="white"/>
</clipPath>
</defs>
</svg>
