<svg width="30" height="36" viewBox="0 0 30 36" fill="none" xmlns="http://www.w3.org/2000/svg">
<g id="label-paired / xl / computer-xl / bold" clip-path="url(#clip0_2556_19399)">
<path id="icon" d="M18 9.75H3C2.57812 9.75 2.25 10.125 2.25 10.5V21C2.25 21.4219 2.57812 21.75 3 21.75H7.78125H8.625H12.375H13.1719H18C18.375 21.75 18.75 21.4219 18.75 21V10.5C18.75 10.125 18.375 9.75 18 9.75ZM3 24C1.3125 24 0 22.6875 0 21V10.5C0 8.85938 1.3125 7.5 3 7.5H18C19.6406 7.5 21 8.85938 21 10.5V21C21 22.6875 19.6406 24 18 24H13.9219L14.6719 26.25H16.875C17.4844 26.25 18 26.7656 18 27.375C18 28.0312 17.4844 28.5 16.875 28.5H15.4219H13.875H7.125H5.53125H4.125C3.46875 28.5 3 28.0312 3 27.375C3 26.7656 3.46875 26.25 4.125 26.25H6.28125L7.03125 24H3ZM8.67188 26.25H12.2812L11.5312 24H9.42188L8.67188 26.25ZM24.75 9.75V11.25H27.75V9.75H24.75ZM24.75 13.5V15H27.75V13.5H24.75ZM27.75 17.25H24.75V26.25H27.75V17.25ZM22.5 9.75C22.5 8.53125 23.4844 7.5 24.75 7.5H27.75C28.9688 7.5 30 8.53125 30 9.75V26.25C30 27.5156 28.9688 28.5 27.75 28.5H24.75C23.4844 28.5 22.5 27.5156 22.5 26.25V9.75ZM26.25 22.875C25.5938 22.875 25.125 22.4062 25.125 21.75C25.125 21.1406 25.5938 20.625 26.25 20.625C26.8594 20.625 27.375 21.1406 27.375 21.75C27.375 22.4062 26.8594 22.875 26.25 22.875Z" fill="black" fill-opacity="0.72"/>
</g>
<defs>
<clipPath id="clip0_2556_19399">
<rect width="30" height="36" fill="white"/>
</clipPath>
</defs>
</svg>
