<svg width="16" height="22" viewBox="0 0 16 22" fill="none" xmlns="http://www.w3.org/2000/svg">
<g id="label-paired / sm / money-bill-sm / regular" clip-path="url(#clip0_2556_12498)">
<path id="icon" d="M13.25 6.375C13.25 7.35938 14.0156 8.125 15 8.125V7.25C15 6.78516 14.5898 6.375 14.125 6.375H13.25ZM12.375 6.375H3.625C3.625 7.82422 2.44922 9 1 9V12.5C2.44922 12.5 3.625 13.6758 3.625 15.125H12.375C12.375 13.6758 13.5508 12.5 15 12.5V9C13.5508 9 12.375 7.82422 12.375 6.375ZM1 14.25C1 14.7422 1.38281 15.125 1.875 15.125H2.75C2.75 14.168 1.95703 13.375 1 13.375V14.25ZM15 13.375C14.0156 13.375 13.25 14.168 13.25 15.125H14.125C14.5898 15.125 15 14.7422 15 14.25V13.375ZM1.875 6.375C1.38281 6.375 1 6.78516 1 7.25V8.125C1.95703 8.125 2.75 7.35938 2.75 6.375H1.875ZM0.125 7.25C0.125 6.29297 0.890625 5.5 1.875 5.5H14.125C15.082 5.5 15.875 6.29297 15.875 7.25V14.25C15.875 15.2344 15.082 16 14.125 16H1.875C0.890625 16 0.125 15.2344 0.125 14.25V7.25ZM9.75 10.75C9.75 10.1484 9.39453 9.57422 8.875 9.24609C8.32812 8.94531 7.64453 8.94531 7.125 9.24609C6.57812 9.57422 6.25 10.1484 6.25 10.75C6.25 11.3789 6.57812 11.9531 7.125 12.2812C7.64453 12.582 8.32812 12.582 8.875 12.2812C9.39453 11.9531 9.75 11.3789 9.75 10.75ZM5.375 10.75C5.375 9.82031 5.86719 8.97266 6.6875 8.48047C7.48047 8.01562 8.49219 8.01562 9.3125 8.48047C10.1055 8.97266 10.625 9.82031 10.625 10.75C10.625 11.707 10.1055 12.5547 9.3125 13.0469C8.49219 13.5117 7.48047 13.5117 6.6875 13.0469C5.86719 12.5547 5.375 11.707 5.375 10.75Z" fill="black" fill-opacity="0.72"/>
</g>
<defs>
<clipPath id="clip0_2556_12498">
<rect width="16" height="22" fill="white"/>
</clipPath>
</defs>
</svg>
