<svg width="16" height="24" viewBox="0 0 16 24" fill="none" xmlns="http://www.w3.org/2000/svg">
<g id="label-paired / md / rotate-device-md / fill" clip-path="url(#clip0_4329_558)">
<path id="icon" d="M13.25 12.4375C13.8438 13.0312 13.8438 13.9688 13.25 14.5625L10.4375 17.4062C9.84375 17.9688 8.90625 17.9688 8.3125 17.4062L2.65625 11.75C2.0625 11.1562 2.0625 10.2188 2.65625 9.625L5.46875 6.78125C6.0625 6.21875 7 6.21875 7.59375 6.78125L13.25 12.4375ZM5.90625 7.9375C6.1875 8.1875 6.1875 8.625 5.90625 8.90625L4.78125 10.0312C4.5 10.3125 4.0625 10.3125 3.78125 10.0312L3.71875 9.96875L3.34375 10.3125C3.15625 10.5312 3.15625 10.8438 3.34375 11.0312L9 16.6875C9.21875 16.875 9.53125 16.875 9.71875 16.6875L12.5625 13.875C12.75 13.6562 12.75 13.3438 12.5625 13.1562L6.90625 7.5C6.6875 7.3125 6.375 7.3125 6.1875 7.5L5.84375 7.84375L5.90625 7.9375ZM12.9062 7.3125C12.6562 7.0625 12.4375 6.875 12.1562 6.6875L11.9062 6.5C11.5938 6.3125 11.2812 6.15625 10.9375 6.03125L10.625 5.9375C10.5312 5.90625 10.4688 5.875 10.375 5.875L11.125 6.59375L10.4062 7.3125L7.8125 4.6875H9H9.375C9.75 4.71875 10.125 4.78125 10.4688 4.84375L10.9062 4.96875L11.2812 5.09375C11.6875 5.25 12.0625 5.4375 12.4375 5.65625L12.75 5.875C13.0312 6.0625 13.3438 6.3125 13.5938 6.59375C14.875 7.875 15.5 9.53125 15.5 11.1875H14.5C14.5 9.78125 13.9688 8.375 12.9062 7.3125ZM3.09375 17.0938C3.34375 17.3125 3.59375 17.5312 3.84375 17.7188L4.09375 17.875C4.40625 18.0625 4.71875 18.2188 5.0625 18.3438L5.40625 18.4688C5.46875 18.5 5.5625 18.5 5.625 18.5312L4.90625 17.8125L5.625 17.0938L8.1875 19.7188H7L6.625 19.6875C6.25 19.6875 5.90625 19.625 5.53125 19.5312L5.125 19.4375L4.71875 19.2812C4.3125 19.1562 3.9375 18.9688 3.59375 18.75L3.28125 18.5312C2.96875 18.3125 2.6875 18.0625 2.40625 17.8125C1.125 16.5312 0.5 14.875 0.5 13.2188H1.5C1.5 14.625 2.03125 16.0312 3.125 17.0938H3.09375Z" fill="black" fill-opacity="0.72"/>
</g>
<defs>
<clipPath id="clip0_4329_558">
<rect width="16" height="24" fill="white"/>
</clipPath>
</defs>
</svg>
