<svg width="16" height="24" viewBox="0 0 16 24" fill="none" xmlns="http://www.w3.org/2000/svg">
<g id="label-paired / md / backward-md / fill" clip-path="url(#clip0_2556_14692)">
<path id="icon" d="M14.3438 17.7812L9 13.3125V12V10.7188L14.3438 6.25C14.6562 6 15.0625 5.9375 15.4062 6.09375C15.75 6.28125 16 6.625 16 7V17C16 17.4062 15.75 17.75 15.4062 17.9062C15.0625 18.0938 14.6562 18.0312 14.3438 17.7812ZM8 15V17C8 17.4062 7.75 17.75 7.40625 17.9062C7.0625 18.0938 6.65625 18.0312 6.34375 17.7812L0.34375 12.7812C0.125 12.5938 0 12.3125 0 12C0 11.7188 0.125 11.4375 0.34375 11.25L6.34375 6.25C6.65625 6 7.0625 5.9375 7.40625 6.09375C7.75 6.28125 8 6.625 8 7V8V12V15Z" fill="black" fill-opacity="0.72"/>
</g>
<defs>
<clipPath id="clip0_2556_14692">
<rect width="16" height="24" fill="white"/>
</clipPath>
</defs>
</svg>
