<svg width="14" height="22" viewBox="0 0 14 22" fill="none" xmlns="http://www.w3.org/2000/svg">
<g id="label-paired / sm / image-sm / fill" clip-path="url(#clip0_2556_12267)">
<path id="icon" d="M0 6.375C0 5.41797 0.765625 4.625 1.75 4.625H12.25C13.207 4.625 14 5.41797 14 6.375V15.125C14 16.1094 13.207 16.875 12.25 16.875H1.75C0.765625 16.875 0 16.1094 0 15.125V6.375ZM8.83203 9.30078C8.72266 9.10938 8.50391 9 8.3125 9C8.09375 9 7.875 9.10938 7.76562 9.30078L5.38672 12.8008L4.64844 11.8711C4.53906 11.7344 4.34766 11.625 4.15625 11.625C3.9375 11.625 3.74609 11.7344 3.63672 11.8711L1.88672 14.0586C1.72266 14.2773 1.69531 14.5508 1.80469 14.7695C1.91406 14.9883 2.13281 15.125 2.40625 15.125H5.03125H5.90625H11.5938C11.8125 15.125 12.0586 15.0156 12.168 14.7969C12.2773 14.5781 12.25 14.3047 12.1133 14.1133L8.83203 9.30078ZM3.0625 9C3.52734 9 3.9375 8.75391 4.18359 8.34375C4.42969 7.96094 4.42969 7.44141 4.18359 7.03125C3.9375 6.64844 3.52734 6.375 3.0625 6.375C2.57031 6.375 2.16016 6.64844 1.91406 7.03125C1.66797 7.44141 1.66797 7.96094 1.91406 8.34375C2.16016 8.75391 2.57031 9 3.0625 9Z" fill="black" fill-opacity="0.72"/>
</g>
<defs>
<clipPath id="clip0_2556_12267">
<rect width="14" height="22" fill="white"/>
</clipPath>
</defs>
</svg>
