<svg width="27" height="36" viewBox="0 0 27 36" fill="none" xmlns="http://www.w3.org/2000/svg">
<g id="label-paired / xl / arrow-up-a-z-xl / regular" clip-path="url(#clip0_2556_19505)">
<path id="icon" d="M8.01562 7.73438L12.5156 12.2344C12.7969 12.5156 12.7969 13.0312 12.5156 13.3125C12.2344 13.5938 11.7188 13.5938 11.4375 13.3125L8.25 10.0781V27.75C8.25 28.1719 7.875 28.5 7.5 28.5C7.07812 28.5 6.75 28.1719 6.75 27.75V10.0781L3.51562 13.3125C3.23438 13.5938 2.71875 13.5938 2.4375 13.3125C2.15625 13.0312 2.15625 12.5156 2.4375 12.2344L6.9375 7.73438C7.21875 7.45312 7.73438 7.45312 8.01562 7.73438ZM16.5 19.5H22.5C22.7812 19.5 23.0156 19.6875 23.1562 19.9688C23.2969 20.2031 23.25 20.5312 23.0625 20.7188L18.0469 27H22.5C22.875 27 23.25 27.375 23.25 27.75C23.25 28.1719 22.875 28.5 22.5 28.5H16.5C16.1719 28.5 15.9375 28.3594 15.7969 28.0781C15.6562 27.8438 15.7031 27.5156 15.8906 27.2812L20.9062 21H16.5C16.0781 21 15.75 20.6719 15.75 20.25C15.75 19.875 16.0781 19.5 16.5 19.5ZM19.5 7.5C19.7812 7.5 20.0156 7.6875 20.1562 7.92188L23.1562 13.9219C23.1562 13.9219 23.1562 13.9219 23.1562 13.9688L23.9062 15.4219C24.0938 15.7969 23.9531 16.2656 23.5781 16.4531C23.2031 16.6406 22.7344 16.5 22.5469 16.125L22.0312 15H16.9219L16.4062 16.125C16.2188 16.5 15.75 16.6406 15.375 16.4531C15.0469 16.2656 14.8594 15.7969 15.0469 15.4219L15.7969 13.9688C15.7969 13.9219 15.7969 13.9219 15.7969 13.9219L18.7969 7.92188C18.9375 7.6875 19.1719 7.5 19.5 7.5ZM17.6719 13.5H21.2812L19.5 9.9375L17.6719 13.5Z" fill="black" fill-opacity="0.72"/>
</g>
<defs>
<clipPath id="clip0_2556_19505">
<rect width="27" height="36" fill="white"/>
</clipPath>
</defs>
</svg>
