<svg width="14" height="22" viewBox="0 0 14 22" fill="none" xmlns="http://www.w3.org/2000/svg">
<g id="label-paired / sm / barcode-sm / bold" clip-path="url(#clip0_2556_12307)">
<path id="icon" d="M0.65625 4.625C1.01172 4.625 1.3125 4.92578 1.3125 5.28125V16.2188C1.3125 16.6016 1.01172 16.875 0.65625 16.875C0.273438 16.875 0 16.6016 0 16.2188V5.28125C0 4.92578 0.273438 4.625 0.65625 4.625ZM3.0625 4.625C3.28125 4.625 3.5 4.84375 3.5 5.0625V16.4375C3.5 16.6836 3.28125 16.875 3.0625 16.875C2.81641 16.875 2.625 16.6836 2.625 16.4375V5.0625C2.625 4.84375 2.81641 4.625 3.0625 4.625ZM5.03125 4.625C5.38672 4.625 5.6875 4.92578 5.6875 5.28125V16.2188C5.6875 16.6016 5.38672 16.875 5.03125 16.875C4.64844 16.875 4.375 16.6016 4.375 16.2188V5.28125C4.375 4.92578 4.64844 4.625 5.03125 4.625ZM8.09375 4.625C8.44922 4.625 8.75 4.92578 8.75 5.28125V16.2188C8.75 16.6016 8.44922 16.875 8.09375 16.875C7.71094 16.875 7.4375 16.6016 7.4375 16.2188V5.28125C7.4375 4.92578 7.71094 4.625 8.09375 4.625ZM12.6875 5.28125C12.6875 4.92578 12.9609 4.625 13.3438 4.625C13.6992 4.625 14 4.92578 14 5.28125V16.2188C14 16.6016 13.6992 16.875 13.3438 16.875C12.9609 16.875 12.6875 16.6016 12.6875 16.2188V5.28125ZM10.9375 5.0625C10.9375 4.84375 11.1289 4.625 11.375 4.625C11.5938 4.625 11.8125 4.84375 11.8125 5.0625V16.4375C11.8125 16.6836 11.5938 16.875 11.375 16.875C11.1289 16.875 10.9375 16.6836 10.9375 16.4375V5.0625Z" fill="black" fill-opacity="0.72"/>
</g>
<defs>
<clipPath id="clip0_2556_12307">
<rect width="14" height="22" fill="white"/>
</clipPath>
</defs>
</svg>
