<svg width="12" height="24" viewBox="0 0 12 24" fill="none" xmlns="http://www.w3.org/2000/svg">
<g id="label-paired / md / arrow-up-md / bold" clip-path="url(#clip0_2556_14976)">
<path id="icon" d="M6.53125 5.25L11.7812 10.75C12.0625 11.0625 12.0625 11.5312 11.75 11.8125C11.4375 12.0938 10.9688 12.0938 10.6875 11.7812L6.75 7.625V18.25C6.75 18.6875 6.40625 19 6 19C5.5625 19 5.25 18.6875 5.25 18.25V7.625L1.28125 11.7812C1 12.0938 0.53125 12.0938 0.21875 11.8125C-0.09375 11.5312 -0.09375 11.0312 0.1875 10.75L5.4375 5.25C5.59375 5.09375 5.78125 5 6 5C6.1875 5 6.375 5.09375 6.53125 5.25Z" fill="black" fill-opacity="0.72"/>
</g>
<defs>
<clipPath id="clip0_2556_14976">
<rect width="12" height="24" fill="white"/>
</clipPath>
</defs>
</svg>
