<svg width="16" height="22" viewBox="0 0 16 22" fill="none" xmlns="http://www.w3.org/2000/svg">
<g id="label-paired / sm / rectangle-barcode-sm / fill" clip-path="url(#clip0_2556_12303)">
<path id="icon" d="M1.875 4.625H14.125C15.082 4.625 15.875 5.41797 15.875 6.375V15.125C15.875 16.1094 15.082 16.875 14.125 16.875H1.875C0.890625 16.875 0.125 16.1094 0.125 15.125V6.375C0.125 5.41797 0.890625 4.625 1.875 4.625ZM3.40625 7.25C3.02344 7.25 2.75 7.55078 2.75 7.90625V13.5938C2.75 13.9766 3.02344 14.25 3.40625 14.25C3.76172 14.25 4.0625 13.9766 4.0625 13.5938V7.90625C4.0625 7.55078 3.76172 7.25 3.40625 7.25ZM4.9375 7.6875V13.8125C4.9375 14.0586 5.12891 14.25 5.375 14.25C5.59375 14.25 5.8125 14.0586 5.8125 13.8125V7.6875C5.8125 7.46875 5.59375 7.25 5.375 7.25C5.12891 7.25 4.9375 7.46875 4.9375 7.6875ZM7.34375 7.25C6.96094 7.25 6.6875 7.55078 6.6875 7.90625V13.5938C6.6875 13.9766 6.96094 14.25 7.34375 14.25C7.69922 14.25 8 13.9766 8 13.5938V7.90625C8 7.55078 7.69922 7.25 7.34375 7.25ZM9.75 7.90625V13.5938C9.75 13.9766 10.0234 14.25 10.4062 14.25C10.7617 14.25 11.0625 13.9766 11.0625 13.5938V7.90625C11.0625 7.55078 10.7617 7.25 10.4062 7.25C10.0234 7.25 9.75 7.55078 9.75 7.90625ZM12.8125 7.25C12.5664 7.25 12.375 7.46875 12.375 7.6875V13.8125C12.375 14.0586 12.5664 14.25 12.8125 14.25C13.0312 14.25 13.25 14.0586 13.25 13.8125V7.6875C13.25 7.46875 13.0312 7.25 12.8125 7.25Z" fill="black" fill-opacity="0.72"/>
</g>
<defs>
<clipPath id="clip0_2556_12303">
<rect width="16" height="22" fill="white"/>
</clipPath>
</defs>
</svg>
