<svg width="27" height="36" viewBox="0 0 27 36" fill="none" xmlns="http://www.w3.org/2000/svg">
<g id="label-paired / xl / arrow-up-arrow-down-xl / regular" clip-path="url(#clip0_2556_19508)">
<path id="icon" d="M8.01562 7.73438L12.5156 12.2344C12.7969 12.5156 12.7969 13.0312 12.5156 13.3125C12.2344 13.5938 11.7188 13.5938 11.4375 13.3125L8.25 10.0781V27.75C8.25 28.1719 7.875 28.5 7.5 28.5C7.07812 28.5 6.75 28.1719 6.75 27.75V10.0781L3.51562 13.3125C3.23438 13.5938 2.71875 13.5938 2.4375 13.3125C2.15625 13.0312 2.15625 12.5156 2.4375 12.2344L6.9375 7.73438C7.21875 7.45312 7.73438 7.45312 8.01562 7.73438ZM24.5156 23.8125L20.0156 28.3125C19.7344 28.5938 19.2188 28.5938 18.9375 28.3125L14.4375 23.8125C14.1562 23.5312 14.1562 23.0156 14.4375 22.7344C14.7188 22.4531 15.2344 22.4531 15.5156 22.7344L18.75 25.9688V8.25C18.75 7.875 19.0781 7.5 19.5 7.5C19.875 7.5 20.25 7.875 20.25 8.25V25.9688L23.4375 22.7344C23.7188 22.4531 24.2344 22.4531 24.5156 22.7344C24.7969 23.0156 24.7969 23.5312 24.5156 23.8125Z" fill="black" fill-opacity="0.72"/>
</g>
<defs>
<clipPath id="clip0_2556_19508">
<rect width="27" height="36" fill="white"/>
</clipPath>
</defs>
</svg>
