<svg width="25" height="30" viewBox="0 0 25 30" fill="none" xmlns="http://www.w3.org/2000/svg">
<g id="label-paired / lg / user-minus-lg / bold" clip-path="url(#clip0_3327_865)">
<path id="icon" d="M8.75 7.375C7.61719 7.375 6.60156 8 6.01562 8.9375C5.46875 9.91406 5.46875 11.125 6.01562 12.0625C6.60156 13.0391 7.61719 13.625 8.75 13.625C9.84375 13.625 10.8594 13.0391 11.4453 12.0625C11.9922 11.125 11.9922 9.91406 11.4453 8.9375C10.8594 8 9.84375 7.375 8.75 7.375ZM8.75 15.5C6.95312 15.5 5.3125 14.5625 4.41406 13C3.51562 11.4766 3.51562 9.5625 4.41406 8C5.3125 6.47656 6.95312 5.5 8.75 5.5C10.5078 5.5 12.1484 6.47656 13.0469 8C13.9453 9.5625 13.9453 11.4766 13.0469 13C12.1484 14.5625 10.5078 15.5 8.75 15.5ZM6.95312 19.25C4.375 19.25 2.26562 21.1641 1.91406 23.625H15.5469C15.1953 21.1641 13.0859 19.25 10.5078 19.25H6.95312ZM6.95312 17.375H10.5078C14.375 17.375 17.5 20.5 17.5 24.3672C17.5 24.9922 16.9531 25.5 16.3281 25.5H1.13281C0.507812 25.5 0 24.9922 0 24.3672C0 20.5 3.08594 17.375 6.95312 17.375ZM18.4375 13.3125H24.0625C24.5703 13.3125 25 13.7422 25 14.25C25 14.7969 24.5703 15.1875 24.0625 15.1875H18.4375C17.8906 15.1875 17.5 14.7969 17.5 14.25C17.5 13.7422 17.8906 13.3125 18.4375 13.3125Z" fill="black" fill-opacity="0.72"/>
</g>
<defs>
<clipPath id="clip0_3327_865">
<rect width="25" height="30" fill="white"/>
</clipPath>
</defs>
</svg>
