<svg width="20" height="30" viewBox="0 0 20 30" fill="none" xmlns="http://www.w3.org/2000/svg">
<g id="label-paired / lg / barcode-lg / fill" clip-path="url(#clip0_2556_17290)">
<path id="icon" d="M0.9375 6.75H1.5625C2.07031 6.75 2.5 7.17969 2.5 7.6875V23.3125C2.5 23.8594 2.07031 24.25 1.5625 24.25H0.9375C0.390625 24.25 0 23.8594 0 23.3125V7.6875C0 7.17969 0.390625 6.75 0.9375 6.75ZM4.375 6.75C4.6875 6.75 5 7.0625 5 7.375V23.625C5 23.9766 4.6875 24.25 4.375 24.25C4.02344 24.25 3.75 23.9766 3.75 23.625V7.375C3.75 7.0625 4.02344 6.75 4.375 6.75ZM7.1875 6.75H7.8125C8.32031 6.75 8.75 7.17969 8.75 7.6875V23.3125C8.75 23.8594 8.32031 24.25 7.8125 24.25H7.1875C6.64062 24.25 6.25 23.8594 6.25 23.3125V7.6875C6.25 7.17969 6.64062 6.75 7.1875 6.75ZM10.9375 6.75H11.5625C12.0703 6.75 12.5 7.17969 12.5 7.6875V23.3125C12.5 23.8594 12.0703 24.25 11.5625 24.25H10.9375C10.3906 24.25 10 23.8594 10 23.3125V7.6875C10 7.17969 10.3906 6.75 10.9375 6.75ZM17.5 7.6875C17.5 7.17969 17.8906 6.75 18.4375 6.75H19.0625C19.5703 6.75 20 7.17969 20 7.6875V23.3125C20 23.8594 19.5703 24.25 19.0625 24.25H18.4375C17.8906 24.25 17.5 23.8594 17.5 23.3125V7.6875ZM15 7.375C15 7.0625 15.2734 6.75 15.625 6.75C15.9375 6.75 16.25 7.0625 16.25 7.375V23.625C16.25 23.9766 15.9375 24.25 15.625 24.25C15.2734 24.25 15 23.9766 15 23.625V7.375Z" fill="black" fill-opacity="0.72"/>
</g>
<defs>
<clipPath id="clip0_2556_17290">
<rect width="20" height="30" fill="white"/>
</clipPath>
</defs>
</svg>
