<svg width="13" height="30" viewBox="0 0 13 30" fill="none" xmlns="http://www.w3.org/2000/svg">
<g id="label-paired / lg / eight-lg / fill" clip-path="url(#clip0_2556_17321)">
<path id="icon" d="M12.125 11.75C12.125 13.1172 11.5781 14.3281 10.7188 15.2266C11.9297 16.1641 12.75 17.6094 12.75 19.25C12.75 22.0234 10.4844 24.25 7.75 24.25H5.25C2.47656 24.25 0.25 22.0234 0.25 19.25C0.25 17.6094 1.03125 16.1641 2.28125 15.2266C1.38281 14.3281 0.875 13.1172 0.875 11.75C0.875 9.01562 3.10156 6.75 5.875 6.75H7.125C9.85938 6.75 12.125 9.01562 12.125 11.75ZM7.125 16.75H5.875H5.83594H5.25C3.84375 16.75 2.75 17.8828 2.75 19.25C2.75 20.6562 3.84375 21.75 5.25 21.75H7.75C9.11719 21.75 10.25 20.6562 10.25 19.25C10.25 17.8828 9.11719 16.75 7.75 16.75H7.125ZM7.125 14.25C8.49219 14.25 9.625 13.1562 9.625 11.75C9.625 10.3828 8.49219 9.25 7.125 9.25H5.875C4.46875 9.25 3.375 10.3828 3.375 11.75C3.375 13.1562 4.46875 14.25 5.875 14.25H7.125Z" fill="black" fill-opacity="0.72"/>
</g>
<defs>
<clipPath id="clip0_2556_17321">
<rect width="13" height="30" fill="white"/>
</clipPath>
</defs>
</svg>
