<svg width="12" height="18" viewBox="0 0 12 18" fill="none" xmlns="http://www.w3.org/2000/svg">
<g id="label-paired / caption / arrow-up-from-square-caption / bold" clip-path="url(#clip0_2556_10485)">
<path id="icon" d="M6.39844 3.66406L9 6.28906C9.23438 6.52344 9.23438 6.875 9 7.08594C8.78906 7.32031 8.4375 7.32031 8.20312 7.08594L6.53906 5.42188V11.1875C6.53906 11.5156 6.30469 11.75 5.97656 11.75C5.67188 11.75 5.41406 11.5156 5.41406 11.1875V5.42188L3.75 7.08594C3.53906 7.32031 3.1875 7.32031 2.97656 7.08594C2.74219 6.875 2.74219 6.52344 2.97656 6.28906L5.60156 3.66406C5.8125 3.45312 6.16406 3.45312 6.39844 3.66406ZM1.6875 4.25H1.875C2.17969 4.25 2.4375 4.50781 2.4375 4.8125C2.4375 5.14062 2.17969 5.375 1.875 5.375H1.6875C1.35938 5.375 1.125 5.63281 1.125 5.9375V13.8125C1.125 14.1406 1.35938 14.375 1.6875 14.375H10.3125C10.6172 14.375 10.875 14.1406 10.875 13.8125V5.9375C10.875 5.63281 10.6172 5.375 10.3125 5.375H10.125C9.79688 5.375 9.5625 5.14062 9.5625 4.8125C9.5625 4.50781 9.79688 4.25 10.125 4.25H10.3125C11.2266 4.25 12 5.02344 12 5.9375V13.8125C12 14.75 11.2266 15.5 10.3125 15.5H1.6875C0.75 15.5 0 14.75 0 13.8125V5.9375C0 5.02344 0.75 4.25 1.6875 4.25Z" fill="black" fill-opacity="0.72"/>
</g>
<defs>
<clipPath id="clip0_2556_10485">
<rect width="12" height="18" fill="white"/>
</clipPath>
</defs>
</svg>
