<svg width="14" height="24" viewBox="0 0 14 24" fill="none" xmlns="http://www.w3.org/2000/svg">
<g id="label-paired / md / app-store-ios-md" clip-path="url(#clip0_2556_14601)">
<path id="icon" d="M12.5 5C13.3125 5 14 5.6875 14 6.5V17.5C14 18.3438 13.3125 19 12.5 19H1.5C0.65625 19 0 18.3438 0 17.5V6.5C0 5.6875 0.65625 5 1.5 5H12.5ZM3.96875 16.0312L4.5625 15C4.25 14.5938 3.8125 14.4688 3.3125 14.625L2.875 15.4062C2.6875 15.6875 2.8125 16.0938 3.09375 16.25C3.40625 16.4375 3.78125 16.3438 3.96875 16.0312ZM8.28125 14.3438C8.5625 13.8438 8.21875 13.0938 7.59375 13.0938H5.65625L8.3125 8.4375C8.5 8.15625 8.40625 7.78125 8.09375 7.59375C7.8125 7.4375 7.40625 7.53125 7.25 7.8125L6.96875 8.3125L6.6875 7.8125C6.53125 7.53125 6.125 7.4375 5.84375 7.59375C5.53125 7.78125 5.4375 8.15625 5.59375 8.4375L6.25 9.5625L4.21875 13.0938H2.625C2.28125 13.0938 2 13.375 2 13.7188C2 14.0625 2.28125 14.3438 2.625 14.3438H8.28125ZM11.375 14.3438C11.7188 14.3438 12 14.0625 12 13.7188C12 13.375 11.7188 13.0938 11.375 13.0938H9.75C8.90625 11.6875 8.3125 10.625 7.90625 9.90625C7.53125 10.2188 7.15625 11.125 7.6875 12.0312C8.1875 12.9062 8.96875 14.25 10 16.0312C10.1562 16.3125 10.5312 16.4375 10.8438 16.25C11.125 16.0938 11.25 15.7188 11.0625 15.4062L10.4688 14.3438H11.375Z" fill="black" fill-opacity="0.72"/>
</g>
<defs>
<clipPath id="clip0_2556_14601">
<rect width="14" height="24" fill="white"/>
</clipPath>
</defs>
</svg>
