<svg width="16" height="22" viewBox="0 0 16 22" fill="none" xmlns="http://www.w3.org/2000/svg">
<g id="label-paired / sm / mobile-notch-rotate-sm / regular" clip-path="url(#clip0_2556_12757)">
<path id="icon" d="M1 5.5C1 4.54297 1.76562 3.75 2.75 3.75H8C8.95703 3.75 9.75 4.54297 9.75 5.5V9.54688C9.66797 9.57422 9.61328 9.60156 9.55859 9.62891C9.39453 9.38281 9.14844 9.19141 8.875 9.08203V5.5C8.875 5.03516 8.46484 4.625 8 4.625H7.125V5.0625C7.125 5.55469 6.71484 5.9375 6.25 5.9375H4.5C4.00781 5.9375 3.625 5.55469 3.625 5.0625V4.625H2.75C2.25781 4.625 1.875 5.03516 1.875 5.5V16C1.875 16.4922 2.25781 16.875 2.75 16.875H8C8.05469 16.875 8.13672 16.875 8.19141 16.875C8.38281 17.0938 8.60156 17.3398 8.84766 17.5312C8.60156 17.668 8.30078 17.75 7.97266 17.75H2.75C1.76562 17.75 1 16.9844 1 16V5.5ZM4.5 4.625V5.0625H6.25V4.625H4.5ZM8 10.3125C8 10.0938 8.19141 9.875 8.4375 9.875C8.65625 9.875 8.875 10.0938 8.875 10.3125V11.3516C9.58594 10.4492 10.6797 9.875 11.9375 9.875C13.5781 9.875 15 10.9141 15.5742 12.3359C15.6562 12.582 15.5469 12.8281 15.3281 12.9102C15.1094 13.0195 14.8633 12.9102 14.7539 12.6641C14.3164 11.543 13.2227 10.75 11.9375 10.75C10.8984 10.75 9.96875 11.2695 9.42188 12.0625H10.625C10.8438 12.0625 11.0625 12.2812 11.0625 12.5C11.0625 12.7461 10.8438 12.9375 10.625 12.9375H8.4375C8.19141 12.9375 8 12.7461 8 12.5V10.3125ZM8.27344 15.2891C8.19141 15.0703 8.30078 14.8242 8.51953 14.7422C8.73828 14.6328 8.98438 14.7422 9.09375 14.9609C9.53125 16.1094 10.6523 16.875 11.9375 16.875C12.9766 16.875 13.8789 16.3555 14.4258 15.5625H13.25C13.0039 15.5625 12.8125 15.3711 12.8125 15.125C12.8125 14.9062 13.0039 14.6875 13.25 14.6875H15.4375C15.6562 14.6875 15.875 14.9062 15.875 15.125V17.3125C15.875 17.5586 15.6562 17.75 15.4375 17.75C15.1914 17.75 15 17.5586 15 17.3125V16.3008C14.2617 17.2031 13.168 17.75 11.9375 17.75C10.2695 17.75 8.84766 16.7383 8.27344 15.2891Z" fill="black" fill-opacity="0.72"/>
</g>
<defs>
<clipPath id="clip0_2556_12757">
<rect width="16" height="22" fill="white"/>
</clipPath>
</defs>
</svg>
