<svg width="25" height="30" viewBox="0 0 25 30" fill="none" xmlns="http://www.w3.org/2000/svg">
<g id="label-paired / lg / box-archive-circle-arrow-down-lg / fill" clip-path="url(#clip0_2556_17480)">
<path id="icon" d="M0 8C0 7.33594 0.546875 6.75 1.25 6.75H18.75C19.4141 6.75 20 7.33594 20 8V9.25C20 9.95312 19.4141 10.5 18.75 10.5H1.25C0.546875 10.5 0 9.95312 0 9.25V8ZM1.25 11.75H18.75V13.0391C15.2344 13.3516 12.5 16.3203 12.5 19.875C12.5 21.5547 13.0859 23.0781 14.0625 24.25H3.75C2.34375 24.25 1.25 23.1562 1.25 21.75V11.75ZM6.25 14.875C6.25 15.2266 6.52344 15.5 6.875 15.5H13.125C13.4375 15.5 13.75 15.2266 13.75 14.875C13.75 14.5625 13.4375 14.25 13.125 14.25H6.875C6.52344 14.25 6.25 14.5625 6.25 14.875ZM13.75 19.875C13.75 17.8828 14.8047 16.0078 16.5625 15.0312C18.2812 14.0156 20.4297 14.0156 22.1875 15.0312C23.9062 16.0078 25 17.8828 25 19.875C25 21.9062 23.9062 23.7422 22.1875 24.7578C20.4297 25.7734 18.2812 25.7734 16.5625 24.7578C14.8047 23.7422 13.75 21.9062 13.75 19.875ZM16.7188 19.7578C16.4844 19.9922 16.4844 20.4219 16.7188 20.6562L18.9062 22.8438C19.1406 23.0781 19.5703 23.0781 19.8047 22.8438L21.9922 20.6562C22.2266 20.4219 22.2266 19.9922 21.9922 19.7578C21.7578 19.5234 21.3281 19.5234 21.0938 19.7578L20 20.8906V17.375C20 17.0625 19.6875 16.75 19.375 16.75C19.0234 16.75 18.75 17.0625 18.75 17.375V20.8906L17.6172 19.7578C17.3828 19.5234 16.9531 19.5234 16.7188 19.7578Z" fill="black" fill-opacity="0.72"/>
</g>
<defs>
<clipPath id="clip0_2556_17480">
<rect width="25" height="30" fill="white"/>
</clipPath>
</defs>
</svg>
