<svg width="12" height="18" viewBox="0 0 12 18" fill="none" xmlns="http://www.w3.org/2000/svg">
<g id="label-paired / caption / circle-euro-caption / bold" clip-path="url(#clip0_2556_10051)">
<path id="icon" d="M10.875 9.5C10.875 7.76562 9.9375 6.17188 8.4375 5.28125C6.91406 4.41406 5.0625 4.41406 3.5625 5.28125C2.03906 6.17188 1.125 7.76562 1.125 9.5C1.125 11.2578 2.03906 12.8516 3.5625 13.7422C5.0625 14.6094 6.91406 14.6094 8.4375 13.7422C9.9375 12.8516 10.875 11.2578 10.875 9.5ZM0 9.5C0 7.36719 1.125 5.39844 3 4.32031C4.85156 3.24219 7.125 3.24219 9 4.32031C10.8516 5.39844 12 7.36719 12 9.5C12 11.6562 10.8516 13.625 9 14.7031C7.125 15.7812 4.85156 15.7812 3 14.7031C1.125 13.625 0 11.6562 0 9.5ZM3 9.875H3.375C3.35156 9.75781 3.35156 9.64062 3.35156 9.52344C3.35156 9.40625 3.35156 9.26562 3.375 9.125H3C2.78906 9.125 2.625 8.96094 2.625 8.75C2.625 8.5625 2.78906 8.375 3 8.375H3.5625C4.00781 7.29688 5.10938 6.5 6.35156 6.5H7.33594C7.64062 6.5 7.89844 6.75781 7.89844 7.0625C7.89844 7.39062 7.64062 7.625 7.33594 7.625H6.35156C5.74219 7.625 5.20312 7.92969 4.85156 8.375H6.75C6.9375 8.375 7.125 8.5625 7.125 8.75C7.125 8.96094 6.9375 9.125 6.75 9.125H4.5C4.47656 9.26562 4.47656 9.38281 4.47656 9.52344C4.47656 9.64062 4.47656 9.78125 4.5 9.875H6.75C6.9375 9.875 7.125 10.0625 7.125 10.25C7.125 10.4609 6.9375 10.625 6.75 10.625H4.82812C5.17969 11.1172 5.71875 11.4219 6.35156 11.4219H7.33594C7.64062 11.4219 7.89844 11.6797 7.89844 11.9844C7.89844 12.2891 7.64062 12.5469 7.33594 12.5469H6.35156C5.08594 12.5469 3.98438 11.75 3.5625 10.625H3C2.78906 10.625 2.625 10.4609 2.625 10.25C2.625 10.0625 2.78906 9.875 3 9.875Z" fill="black" fill-opacity="0.72"/>
</g>
<defs>
<clipPath id="clip0_2556_10051">
<rect width="12" height="18" fill="white"/>
</clipPath>
</defs>
</svg>
