<svg width="18" height="36" viewBox="0 0 18 36" fill="none" xmlns="http://www.w3.org/2000/svg">
<g id="label-paired / xl / computer-mouse-scrollwheel-xl / regular" clip-path="url(#clip0_2556_19703)">
<path id="icon" d="M16.5 22.5V13.5C16.5 10.2188 13.7812 7.5 10.5 7.5H7.5C4.17188 7.5 1.5 10.2188 1.5 13.5V22.5C1.5 25.8281 4.17188 28.5 7.5 28.5H10.5C13.7812 28.5 16.5 25.8281 16.5 22.5ZM0 13.5C0 9.375 3.32812 6 7.5 6H10.5C14.625 6 18 9.375 18 13.5V22.5C18 26.6719 14.625 30 10.5 30H7.5C3.32812 30 0 26.6719 0 22.5V13.5ZM9.75 11.25V14.25C9.75 14.6719 9.375 15 9 15C8.57812 15 8.25 14.6719 8.25 14.25V11.25C8.25 10.875 8.57812 10.5 9 10.5C9.375 10.5 9.75 10.875 9.75 11.25Z" fill="black" fill-opacity="0.72"/>
</g>
<defs>
<clipPath id="clip0_2556_19703">
<rect width="18" height="36" fill="white"/>
</clipPath>
</defs>
</svg>
