<svg width="24" height="36" viewBox="0 0 24 36" fill="none" xmlns="http://www.w3.org/2000/svg">
<g id="label-paired / xl / envelope-xl / regular" clip-path="url(#clip0_2556_19471)">
<path id="icon" d="M3 10.5C2.15625 10.5 1.5 11.2031 1.5 12V13.875L10.6406 20.625C11.4375 21.1875 12.5156 21.1875 13.3125 20.625L22.5 13.875V12C22.5 11.2031 21.7969 10.5 21 10.5H3ZM1.5 15.75V24C1.5 24.8438 2.15625 25.5 3 25.5H21C21.7969 25.5 22.5 24.8438 22.5 24V15.75L14.2031 21.8438C12.8906 22.7812 11.0625 22.7812 9.75 21.8438L1.5 15.75ZM0 12C0 10.3594 1.3125 9 3 9H21C22.6406 9 24 10.3594 24 12V24C24 25.6875 22.6406 27 21 27H3C1.3125 27 0 25.6875 0 24V12Z" fill="black" fill-opacity="0.72"/>
</g>
<defs>
<clipPath id="clip0_2556_19471">
<rect width="24" height="36" fill="white"/>
</clipPath>
</defs>
</svg>
