<svg width="20" height="30" viewBox="0 0 20 30" fill="none" xmlns="http://www.w3.org/2000/svg">
<g id="label-paired / lg / circle-four-lg / bold" clip-path="url(#clip0_2556_17649)">
<path id="icon" d="M18.125 15.5C18.125 12.6094 16.5625 9.95312 14.0625 8.46875C11.5234 7.02344 8.4375 7.02344 5.9375 8.46875C3.39844 9.95312 1.875 12.6094 1.875 15.5C1.875 18.4297 3.39844 21.0859 5.9375 22.5703C8.4375 24.0156 11.5234 24.0156 14.0625 22.5703C16.5625 21.0859 18.125 18.4297 18.125 15.5ZM0 15.5C0 11.9453 1.875 8.66406 5 6.86719C8.08594 5.07031 11.875 5.07031 15 6.86719C18.0859 8.66406 20 11.9453 20 15.5C20 19.0938 18.0859 22.375 15 24.1719C11.875 25.9688 8.08594 25.9688 5 24.1719C1.875 22.375 0 19.0938 0 15.5ZM8.71094 10.5781C9.21875 10.7344 9.49219 11.2422 9.29688 11.75L7.85156 16.125H10.625V13.9375C10.625 13.4297 11.0156 13 11.5625 13C12.0703 13 12.5 13.4297 12.5 13.9375V16.125H12.8125C13.3203 16.125 13.75 16.5547 13.75 17.0625C13.75 17.6094 13.3203 18 12.8125 18H12.5V19.5625C12.5 20.1094 12.0703 20.5 11.5625 20.5C11.0156 20.5 10.625 20.1094 10.625 19.5625V18H6.5625C6.25 18 5.97656 17.8828 5.78125 17.6094C5.625 17.375 5.54688 17.0625 5.66406 16.7891L7.53906 11.1641C7.69531 10.6562 8.24219 10.3828 8.71094 10.5781Z" fill="black" fill-opacity="0.72"/>
</g>
<defs>
<clipPath id="clip0_2556_17649">
<rect width="20" height="30" fill="white"/>
</clipPath>
</defs>
</svg>
