<svg width="14" height="22" viewBox="0 0 14 22" fill="none" xmlns="http://www.w3.org/2000/svg">
<g id="label-paired / sm / barcode-sm / fill" clip-path="url(#clip0_2556_12306)">
<path id="icon" d="M0.65625 4.625H1.09375C1.44922 4.625 1.75 4.92578 1.75 5.28125V16.2188C1.75 16.6016 1.44922 16.875 1.09375 16.875H0.65625C0.273438 16.875 0 16.6016 0 16.2188V5.28125C0 4.92578 0.273438 4.625 0.65625 4.625ZM3.0625 4.625C3.28125 4.625 3.5 4.84375 3.5 5.0625V16.4375C3.5 16.6836 3.28125 16.875 3.0625 16.875C2.81641 16.875 2.625 16.6836 2.625 16.4375V5.0625C2.625 4.84375 2.81641 4.625 3.0625 4.625ZM5.03125 4.625H5.46875C5.82422 4.625 6.125 4.92578 6.125 5.28125V16.2188C6.125 16.6016 5.82422 16.875 5.46875 16.875H5.03125C4.64844 16.875 4.375 16.6016 4.375 16.2188V5.28125C4.375 4.92578 4.64844 4.625 5.03125 4.625ZM7.65625 4.625H8.09375C8.44922 4.625 8.75 4.92578 8.75 5.28125V16.2188C8.75 16.6016 8.44922 16.875 8.09375 16.875H7.65625C7.27344 16.875 7 16.6016 7 16.2188V5.28125C7 4.92578 7.27344 4.625 7.65625 4.625ZM12.25 5.28125C12.25 4.92578 12.5234 4.625 12.9062 4.625H13.3438C13.6992 4.625 14 4.92578 14 5.28125V16.2188C14 16.6016 13.6992 16.875 13.3438 16.875H12.9062C12.5234 16.875 12.25 16.6016 12.25 16.2188V5.28125ZM10.5 5.0625C10.5 4.84375 10.6914 4.625 10.9375 4.625C11.1562 4.625 11.375 4.84375 11.375 5.0625V16.4375C11.375 16.6836 11.1562 16.875 10.9375 16.875C10.6914 16.875 10.5 16.6836 10.5 16.4375V5.0625Z" fill="black" fill-opacity="0.72"/>
</g>
<defs>
<clipPath id="clip0_2556_12306">
<rect width="14" height="22" fill="white"/>
</clipPath>
</defs>
</svg>
