<svg width="14" height="22" viewBox="0 0 14 22" fill="none" xmlns="http://www.w3.org/2000/svg">
<g id="label-paired / sm / loader-sm / regular" clip-path="url(#clip0_2981_808)">
<path id="icon" d="M7.4375 4.1875V6.8125C7.4375 7.05859 7.21875 7.25 7 7.25C6.75391 7.25 6.5625 7.05859 6.5625 6.8125V4.1875C6.5625 3.96875 6.75391 3.75 7 3.75C7.21875 3.75 7.4375 3.96875 7.4375 4.1875ZM7.4375 14.6875V17.3125C7.4375 17.5586 7.21875 17.75 7 17.75C6.75391 17.75 6.5625 17.5586 6.5625 17.3125V14.6875C6.5625 14.4688 6.75391 14.25 7 14.25C7.21875 14.25 7.4375 14.4688 7.4375 14.6875ZM0 10.75C0 10.5312 0.191406 10.3125 0.4375 10.3125H3.0625C3.28125 10.3125 3.5 10.5312 3.5 10.75C3.5 10.9961 3.28125 11.1875 3.0625 11.1875H0.4375C0.191406 11.1875 0 10.9961 0 10.75ZM10.9375 10.3125H13.5625C13.7812 10.3125 14 10.5312 14 10.75C14 10.9961 13.7812 11.1875 13.5625 11.1875H10.9375C10.6914 11.1875 10.5 10.9961 10.5 10.75C10.5 10.5312 10.6914 10.3125 10.9375 10.3125ZM11.9492 5.80078C12.1133 5.99219 12.1133 6.26562 11.9492 6.42969L10.0898 8.28906C9.89844 8.45312 9.625 8.45312 9.46094 8.28906C9.29688 8.125 9.29688 7.85156 9.46094 7.66016L11.3203 5.80078C11.4844 5.63672 11.7578 5.63672 11.9492 5.80078ZM4.51172 13.8672L2.65234 15.6992C2.48828 15.8906 2.21484 15.8906 2.05078 15.6992C1.85938 15.5352 1.85938 15.2617 2.05078 15.0977L3.88281 13.2383C4.07422 13.0742 4.34766 13.0742 4.51172 13.2383C4.67578 13.4023 4.67578 13.6758 4.51172 13.8672ZM2.05078 5.80078C2.21484 5.63672 2.48828 5.63672 2.65234 5.80078L4.51172 7.66016C4.67578 7.85156 4.67578 8.125 4.51172 8.28906C4.34766 8.45312 4.07422 8.45312 3.88281 8.28906L2.05078 6.42969C1.85938 6.26562 1.85938 5.99219 2.05078 5.80078ZM10.0898 13.2383L11.9492 15.0977C12.1133 15.2617 12.1133 15.5352 11.9492 15.6992C11.7578 15.8906 11.4844 15.8906 11.3203 15.6992L9.46094 13.8672C9.29688 13.6758 9.29688 13.4023 9.46094 13.2383C9.625 13.0742 9.89844 13.0742 10.0898 13.2383Z" fill="black" fill-opacity="0.72"/>
</g>
<defs>
<clipPath id="clip0_2981_808">
<rect width="14" height="22" fill="white"/>
</clipPath>
</defs>
</svg>
