<svg width="16" height="24" viewBox="0 0 16 24" fill="none" xmlns="http://www.w3.org/2000/svg">
<g id="label-paired / md / circle-dot-md / fill" clip-path="url(#clip0_2556_15210)">
<path id="icon" d="M8 20C5.125 20 2.5 18.5 1.0625 16C-0.375 13.5312 -0.375 10.5 1.0625 8C2.5 5.53125 5.125 4 8 4C10.8438 4 13.4688 5.53125 14.9062 8C16.3438 10.5 16.3438 13.5312 14.9062 16C13.4688 18.5 10.8438 20 8 20ZM8 9C6.90625 9 5.9375 9.59375 5.375 10.5C4.84375 11.4375 4.84375 12.5938 5.375 13.5C5.9375 14.4375 6.90625 15 8 15C9.0625 15 10.0312 14.4375 10.5938 13.5C11.125 12.5938 11.125 11.4375 10.5938 10.5C10.0312 9.59375 9.0625 9 8 9Z" fill="black" fill-opacity="0.72"/>
</g>
<defs>
<clipPath id="clip0_2556_15210">
<rect width="16" height="24" fill="white"/>
</clipPath>
</defs>
</svg>
