<svg width="24" height="36" viewBox="0 0 24 36" fill="none" xmlns="http://www.w3.org/2000/svg">
<g id="label-paired / xl / circle-arrow-down-xl / regular" clip-path="url(#clip0_2556_19637)">
<path id="icon" d="M12 7.5C8.20312 7.5 4.78125 9.51562 2.90625 12.75C0.984375 16.0312 0.984375 20.0156 2.90625 23.25C4.78125 26.5312 8.20312 28.5 12 28.5C15.75 28.5 19.1719 26.5312 21.0469 23.25C22.9688 20.0156 22.9688 16.0312 21.0469 12.75C19.1719 9.51562 15.75 7.5 12 7.5ZM12 30C7.6875 30 3.75 27.75 1.59375 24C-0.5625 20.2969 -0.5625 15.75 1.59375 12C3.75 8.29688 7.6875 6 12 6C16.2656 6 20.2031 8.29688 22.3594 12C24.5156 15.75 24.5156 20.2969 22.3594 24C20.2031 27.75 16.2656 30 12 30ZM17.0156 19.3125L12.5156 23.8125C12.2344 24.0938 11.7188 24.0938 11.4375 23.8125L6.9375 19.3125C6.65625 19.0312 6.65625 18.5156 6.9375 18.2344C7.21875 17.9531 7.73438 17.9531 8.01562 18.2344L11.25 21.4688V12.75C11.25 12.375 11.5781 12 12 12C12.375 12 12.75 12.375 12.75 12.75V21.4688L15.9375 18.2344C16.2188 17.9531 16.7344 17.9531 17.0156 18.2344C17.2969 18.5156 17.2969 19.0312 17.0156 19.3125Z" fill="black" fill-opacity="0.72"/>
</g>
<defs>
<clipPath id="clip0_2556_19637">
<rect width="24" height="36" fill="white"/>
</clipPath>
</defs>
</svg>
