<svg width="14" height="24" viewBox="0 0 14 24" fill="none" xmlns="http://www.w3.org/2000/svg">
<g id="label-paired / md / expand-md / regular" clip-path="url(#clip0_2556_15246)">
<path id="icon" d="M4.5 5C4.75 5 5 5.25 5 5.5C5 5.78125 4.75 6 4.5 6H1V9.5C1 9.78125 0.75 10 0.5 10C0.21875 10 0 9.78125 0 9.5V5.5C0 5.25 0.21875 5 0.5 5H4.5ZM0 14.5C0 14.25 0.21875 14 0.5 14C0.75 14 1 14.25 1 14.5V18H4.5C4.75 18 5 18.25 5 18.5C5 18.7812 4.75 19 4.5 19H0.5C0.21875 19 0 18.7812 0 18.5V14.5ZM13.5 5C13.75 5 14 5.25 14 5.5V9.5C14 9.78125 13.75 10 13.5 10C13.2188 10 13 9.78125 13 9.5V6H9.5C9.21875 6 9 5.78125 9 5.5C9 5.25 9.21875 5 9.5 5H13.5ZM13 14.5C13 14.25 13.2188 14 13.5 14C13.75 14 14 14.25 14 14.5V18.5C14 18.7812 13.75 19 13.5 19H9.5C9.21875 19 9 18.7812 9 18.5C9 18.25 9.21875 18 9.5 18H13V14.5Z" fill="black" fill-opacity="0.72"/>
</g>
<defs>
<clipPath id="clip0_2556_15246">
<rect width="14" height="24" fill="white"/>
</clipPath>
</defs>
</svg>
