<svg width="14" height="22" viewBox="0 0 14 22" fill="none" xmlns="http://www.w3.org/2000/svg">
<g id="label-paired / sm / puzzle-piece-two-sm / regular" clip-path="url(#clip0_3909_640)">
<path id="icon" d="M12.0859 13.1562C12.3867 13.4023 12.5508 13.7852 12.5508 14.2227C12.5508 14.6602 12.3867 15.0156 12.0859 15.2617C11.8125 15.5078 11.4297 15.6445 11.0469 15.6719C10.9648 15.6992 10.8828 15.6719 10.8008 15.6445V16.0273C10.8008 16.3828 10.6094 16.6836 10.3359 16.9023C10.0625 17.0938 9.70703 17.2305 9.32422 17.2305C9.29688 17.2305 9.26953 17.2305 9.26953 17.2031H8.17578C7.68359 17.2031 7.46484 16.6289 7.79297 16.3008C7.76562 16.0547 7.65625 15.8359 7.54688 15.6992C7.41016 15.5625 7.21875 15.4531 6.97266 15.4531C6.72656 15.4531 6.53516 15.5625 6.42578 15.6992C6.28906 15.8359 6.20703 16.0547 6.17969 16.3008C6.50781 16.6289 6.28906 17.2031 5.79688 17.2031H4.70312C4.67578 17.2305 4.64844 17.2305 4.64844 17.2305C4.26562 17.2305 3.88281 17.0938 3.63672 16.9023C3.36328 16.6836 3.17188 16.3828 3.17188 16V12.5C3.17188 12.3359 3.14453 12.2266 3.14453 12.1172C3.14453 11.9805 3.14453 11.8711 3.17188 11.625V10.75C3.17188 10.6953 3.17188 10.5312 3.14453 10.3945V10.3672C3.08984 10.3945 3.00781 10.3945 2.92578 10.3945C2.54297 10.3672 2.16016 10.2305 1.88672 10.0117C1.58594 9.76562 1.39453 9.41016 1.39453 8.97266C1.39453 8.53516 1.58594 8.17969 1.88672 7.96094C2.1875 7.74219 2.54297 7.66016 2.92578 7.63281C3.00781 7.63281 3.08984 7.63281 3.14453 7.66016V7.63281C3.14453 7.49609 3.14453 7.33203 3.14453 7.25C3.14453 6.89453 3.36328 6.59375 3.63672 6.375C3.91016 6.18359 4.26562 6.04688 4.64844 6.04688H5.55078C5.52344 5.99219 5.52344 5.91016 5.52344 5.82812C5.55078 5.41797 5.6875 5.0625 5.93359 4.76172C6.17969 4.48828 6.5625 4.29688 7 4.29688C7.4375 4.29688 7.79297 4.48828 8.03906 4.76172C8.28516 5.0625 8.42188 5.41797 8.44922 5.82812C8.47656 5.91016 8.44922 5.99219 8.42188 6.04688H9.32422C9.70703 6.04688 10.0898 6.18359 10.3633 6.375C10.6367 6.59375 10.8281 6.89453 10.8281 7.25V11.6523C10.8281 11.8164 10.8281 11.8984 10.8281 11.9805C10.8008 12.0625 10.8008 12.1445 10.8008 12.418V12.7734C10.8828 12.7461 10.9648 12.7461 11.0469 12.7461C11.4297 12.7734 11.8125 12.9102 12.1133 13.1562H12.0859ZM4.59375 16.5469C4.62109 16.5469 4.62109 16.5469 4.64844 16.5469H5.55078C5.52344 16.4922 5.52344 16.4102 5.52344 16.3281C5.55078 15.918 5.6875 15.5625 5.93359 15.2617C6.17969 14.9883 6.53516 14.7969 6.97266 14.7969C7.41016 14.7969 7.79297 14.9883 8.03906 15.2617C8.28516 15.5625 8.42188 15.918 8.44922 16.3281C8.44922 16.4102 8.44922 16.4922 8.42188 16.5469H9.32422H9.35156C9.59766 16.5469 9.81641 16.4648 9.95312 16.3828C10.0898 16.2461 10.1719 16.1367 10.1719 16.0273V15.3984C10.1719 14.9062 10.7461 14.6875 11.0742 15.0156C11.3203 14.9883 11.5391 14.9062 11.6758 14.7695C11.8125 14.6602 11.9219 14.4688 11.9219 14.2227C11.9219 13.9492 11.8125 13.7852 11.6758 13.6484C11.5391 13.5391 11.3203 13.4297 11.0742 13.4023C10.7461 13.7305 10.1719 13.5117 10.1719 13.0195V12.418C10.1719 12.1445 10.1719 12.0625 10.1719 11.9531H8.17578C7.71094 11.9531 7.46484 11.3789 7.79297 11.0508C7.76562 10.8047 7.68359 10.5859 7.54688 10.4492C7.41016 10.3125 7.24609 10.2031 7 10.2031C6.72656 10.2031 6.5625 10.3125 6.42578 10.4492C6.31641 10.5859 6.20703 10.8047 6.17969 11.0508C6.50781 11.3789 6.28906 11.9531 5.79688 11.9531H3.82812C3.82812 12.0078 3.82812 12.0625 3.82812 12.0898C3.82812 12.1992 3.82812 12.3086 3.82812 12.5V16C3.82812 16.1094 3.88281 16.2461 4.01953 16.3555C4.15625 16.4648 4.375 16.5469 4.59375 16.5469ZM3.82812 11.2969H5.55078C5.52344 11.2422 5.52344 11.1602 5.52344 11.0781C5.55078 10.668 5.6875 10.3125 5.93359 10.0117C6.17969 9.73828 6.53516 9.54688 6.97266 9.54688C7.41016 9.54688 7.79297 9.73828 8.03906 10.0117C8.28516 10.3125 8.42188 10.668 8.44922 11.0781C8.44922 11.1602 8.44922 11.2422 8.42188 11.2969H10.1719V7.25C10.1719 7.14062 10.1172 7.03125 9.95312 6.89453C9.81641 6.78516 9.59766 6.70312 9.32422 6.70312H8.17578C7.68359 6.70312 7.46484 6.12891 7.79297 5.80078C7.76562 5.55469 7.68359 5.33594 7.54688 5.19922C7.4375 5.0625 7.24609 4.95312 7 4.95312C6.75391 4.95312 6.5625 5.0625 6.42578 5.19922C6.31641 5.33594 6.20703 5.55469 6.17969 5.80078C6.50781 6.12891 6.28906 6.70312 5.79688 6.70312H4.64844C4.40234 6.70312 4.18359 6.78516 4.01953 6.89453C3.88281 7.03125 3.82812 7.14062 3.82812 7.25V7.27734C3.82812 7.33203 3.82812 7.52344 3.80078 7.6875C3.77344 7.79688 3.77344 7.87891 3.74609 7.98828C3.71875 8.07031 3.66406 8.20703 3.52734 8.28906C3.41797 8.37109 3.30859 8.39844 3.22656 8.37109C3.11719 8.37109 3.0625 8.34375 3.00781 8.31641C3.00781 8.31641 2.98047 8.31641 2.98047 8.28906C2.95312 8.28906 2.95312 8.28906 2.95312 8.28906C2.65234 8.31641 2.43359 8.39844 2.26953 8.48047C2.16016 8.58984 2.07812 8.72656 2.07812 8.97266C2.07812 9.21875 2.16016 9.38281 2.29688 9.49219C2.43359 9.62891 2.65234 9.71094 2.95312 9.73828C2.95312 9.73828 2.95312 9.73828 2.98047 9.73828C2.98047 9.71094 3.00781 9.71094 3.00781 9.71094C3.0625 9.68359 3.11719 9.65625 3.22656 9.65625C3.30859 9.62891 3.41797 9.65625 3.52734 9.73828C3.66406 9.82031 3.71875 9.95703 3.74609 10.0391C3.77344 10.1211 3.77344 10.2305 3.80078 10.3398C3.82812 10.5039 3.82812 10.6953 3.82812 10.75V11.3242V11.2969Z" fill="black" fill-opacity="0.72"/>
</g>
<defs>
<clipPath id="clip0_3909_640">
<rect width="14" height="22" fill="white"/>
</clipPath>
</defs>
</svg>
