<svg width="30" height="36" viewBox="0 0 30 36" fill="none" xmlns="http://www.w3.org/2000/svg">
<g id="label-paired / xl / volume-high-xl / fill" clip-path="url(#clip0_3758_684)">
<path id="icon" d="M24.9844 7.54688C28.0312 10.0312 30 13.7812 30 18C30 22.2656 28.0312 26.0156 24.9844 28.5C24.5156 28.875 23.8125 28.8281 23.3906 28.3125C23.0156 27.8438 23.1094 27.1406 23.5781 26.7656C26.1094 24.7031 27.75 21.5625 27.75 18C27.75 14.4844 26.1094 11.3438 23.5781 9.28125C23.1094 8.90625 23.0156 8.20312 23.3906 7.6875C23.8125 7.21875 24.5156 7.17188 24.9844 7.54688ZM22.1719 11.0156C24.1875 12.7031 25.5 15.1875 25.5 18C25.5 20.8594 24.1875 23.3438 22.1719 24.9844C21.6562 25.4062 20.9531 25.3125 20.5781 24.8438C20.1562 24.375 20.25 23.6719 20.7188 23.25C22.2656 22.0312 23.25 20.1562 23.25 18C23.25 15.8906 22.2656 14.0156 20.7188 12.7969C20.25 12.375 20.2031 11.6719 20.5781 11.2031C20.9531 10.7344 21.6562 10.6406 22.1719 11.0156ZM19.3125 14.5312C20.3438 15.375 21 16.5938 21 18C21 19.4531 20.3438 20.6719 19.3125 21.5156C18.8438 21.8906 18.1406 21.8438 17.7188 21.3281C17.3438 20.8594 17.4375 20.1562 17.9062 19.7812C18.4219 19.3594 18.75 18.7031 18.75 18C18.75 17.2969 18.4219 16.6875 17.9062 16.2656C17.4375 15.8906 17.3438 15.1875 17.7188 14.6719C18.1406 14.2031 18.8438 14.1562 19.3125 14.5312ZM14.1094 7.64062C14.625 7.875 15 8.4375 15 9V27C15 27.6094 14.625 28.125 14.1094 28.4062C13.5469 28.6406 12.9375 28.5469 12.4688 28.125L6.14062 22.5H3C1.3125 22.5 0 21.1875 0 19.5V16.5C0 14.8594 1.3125 13.5 3 13.5H6.14062L12.4688 7.92188C12.9375 7.5 13.5469 7.40625 14.1094 7.64062Z" fill="black" fill-opacity="0.72"/>
</g>
<defs>
<clipPath id="clip0_3758_684">
<rect width="30" height="36" fill="white"/>
</clipPath>
</defs>
</svg>
