<svg width="14" height="24" viewBox="0 0 14 24" fill="none" xmlns="http://www.w3.org/2000/svg">
<g id="label-paired / md / paperclip-md / bold" clip-path="url(#clip0_2981_817)">
<path id="icon" d="M11.7188 6.28125C10.9062 5.46875 9.5625 5.46875 8.75 6.28125L2.78125 12.2812C1.40625 13.6562 1.40625 15.875 2.78125 17.2188C4.125 18.5938 6.34375 18.5938 7.71875 17.2188L12.4688 12.4688C12.75 12.1875 13.2188 12.1875 13.5 12.4688C13.8125 12.7812 13.8125 13.25 13.5 13.5312L8.78125 18.2812C6.8125 20.25 3.65625 20.25 1.71875 18.2812C-0.25 16.3438 -0.25 13.1875 1.71875 11.2188L7.71875 5.21875C9.09375 3.84375 11.375 3.84375 12.7812 5.21875C14.1562 6.625 14.1562 8.90625 12.7812 10.2812L7.03125 16.0312C6.03125 17.0312 4.40625 16.9375 3.53125 15.8438C2.78125 14.9062 2.875 13.5625 3.71875 12.7188L8.46875 7.96875C8.75 7.6875 9.21875 7.6875 9.5 7.96875C9.8125 8.28125 9.8125 8.75 9.5 9.03125L4.78125 13.7812C4.46875 14.0938 4.4375 14.5625 4.71875 14.9062C5.03125 15.2812 5.59375 15.3438 5.96875 14.9688L11.7188 9.21875C12.5312 8.40625 12.5312 7.09375 11.7188 6.28125Z" fill="black" fill-opacity="0.72"/>
</g>
<defs>
<clipPath id="clip0_2981_817">
<rect width="14" height="24" fill="white"/>
</clipPath>
</defs>
</svg>
