<svg width="14" height="24" viewBox="0 0 14 24" fill="none" xmlns="http://www.w3.org/2000/svg">
<g id="label-paired / md / arrow-right-arrow-left-md / fill" clip-path="url(#clip0_2556_15004)">
<path id="icon" d="M13.6875 8.71875L10.6875 11.7188C10.3125 12.125 9.65625 12.125 9.28125 11.7188C8.875 11.3438 8.875 10.6875 9.28125 10.3125L10.5625 9H1C0.4375 9 0 8.5625 0 8C0 7.46875 0.4375 7 1 7H10.5625L9.28125 5.71875C8.875 5.34375 8.875 4.6875 9.28125 4.3125C9.65625 3.90625 10.3125 3.90625 10.6875 4.3125L13.6875 7.3125C14.0938 7.6875 14.0938 8.34375 13.6875 8.71875ZM3.28125 19.7188L0.28125 16.7188C-0.125 16.3438 -0.125 15.6875 0.28125 15.3125L3.28125 12.3125C3.65625 11.9062 4.3125 11.9062 4.6875 12.3125C5.09375 12.6875 5.09375 13.3438 4.6875 13.7188L3.40625 15H13C13.5312 15 14 15.4688 14 16C14 16.5625 13.5312 17 13 17H3.40625L4.6875 18.3125C5.09375 18.6875 5.09375 19.3438 4.6875 19.7188C4.3125 20.125 3.65625 20.125 3.28125 19.7188Z" fill="black" fill-opacity="0.72"/>
</g>
<defs>
<clipPath id="clip0_2556_15004">
<rect width="14" height="24" fill="white"/>
</clipPath>
</defs>
</svg>
