<svg width="13" height="30" viewBox="0 0 13 30" fill="none" xmlns="http://www.w3.org/2000/svg">
<g id="label-paired / lg / sterling-sign-lg / regular" clip-path="url(#clip0_2556_16919)">
<path id="icon" d="M3.375 11.4375V15.5H9.625C9.9375 15.5 10.25 15.8125 10.25 16.125C10.25 16.4766 9.9375 16.75 9.625 16.75H3.33594C3.29688 18.9375 2.78906 21.0469 1.89062 23H12.125C12.4375 23 12.75 23.3125 12.75 23.625C12.75 23.9766 12.4375 24.25 12.125 24.25H0.875C0.640625 24.25 0.445312 24.1328 0.328125 23.9766C0.210938 23.7812 0.210938 23.5469 0.328125 23.3516L0.367188 23.2734C1.46094 21.2812 2.04688 19.0547 2.08594 16.75H0.875C0.523438 16.75 0.25 16.4766 0.25 16.125C0.25 15.8125 0.523438 15.5 0.875 15.5H2.125V11.4375C2.125 8.85938 4.19531 6.75 6.8125 6.75H7.08594C7.59375 6.75 8.0625 6.86719 8.57031 7.02344L11.6953 8.03906C12.0078 8.15625 12.1641 8.50781 12.0859 8.85938C11.9688 9.17188 11.6172 9.32812 11.2656 9.25L8.14062 8.19531C7.82812 8.07812 7.4375 8 7.08594 8H6.8125C4.89844 8 3.375 9.5625 3.375 11.4375Z" fill="black" fill-opacity="0.72"/>
</g>
<defs>
<clipPath id="clip0_2556_16919">
<rect width="13" height="30" fill="white"/>
</clipPath>
</defs>
</svg>
