<svg width="12" height="18" viewBox="0 0 12 18" fill="none" xmlns="http://www.w3.org/2000/svg">
<g id="label-paired / caption / envelope-caption / regular" clip-path="url(#clip0_2556_10147)">
<path id="icon" d="M1.5 5.75C1.07812 5.75 0.75 6.10156 0.75 6.5V7.4375L5.32031 10.8125C5.71875 11.0938 6.25781 11.0938 6.65625 10.8125L11.25 7.4375V6.5C11.25 6.10156 10.8984 5.75 10.5 5.75H1.5ZM0.75 8.375V12.5C0.75 12.9219 1.07812 13.25 1.5 13.25H10.5C10.8984 13.25 11.25 12.9219 11.25 12.5V8.375L7.10156 11.4219C6.44531 11.8906 5.53125 11.8906 4.875 11.4219L0.75 8.375ZM0 6.5C0 5.67969 0.65625 5 1.5 5H10.5C11.3203 5 12 5.67969 12 6.5V12.5C12 13.3438 11.3203 14 10.5 14H1.5C0.65625 14 0 13.3438 0 12.5V6.5Z" fill="black" fill-opacity="0.72"/>
</g>
<defs>
<clipPath id="clip0_2556_10147">
<rect width="12" height="18" fill="white"/>
</clipPath>
</defs>
</svg>
