<svg width="20" height="30" viewBox="0 0 20 30" fill="none" xmlns="http://www.w3.org/2000/svg">
<g id="label-paired / lg / circle-zero-lg / regular" clip-path="url(#clip0_2556_17277)">
<path id="icon" d="M10 6.75C6.83594 6.75 3.98438 8.42969 2.42188 11.125C0.820312 13.8594 0.820312 17.1797 2.42188 19.875C3.98438 22.6094 6.83594 24.25 10 24.25C13.125 24.25 15.9766 22.6094 17.5391 19.875C19.1406 17.1797 19.1406 13.8594 17.5391 11.125C15.9766 8.42969 13.125 6.75 10 6.75ZM10 25.5C6.40625 25.5 3.125 23.625 1.32812 20.5C-0.46875 17.4141 -0.46875 13.625 1.32812 10.5C3.125 7.41406 6.40625 5.5 10 5.5C13.5547 5.5 16.8359 7.41406 18.6328 10.5C20.4297 13.625 20.4297 17.4141 18.6328 20.5C16.8359 23.625 13.5547 25.5 10 25.5ZM10 10.5C12.0703 10.5 13.75 12.1797 13.75 14.25V16.75C13.75 18.8203 12.0703 20.5 10 20.5C7.92969 20.5 6.25 18.8203 6.25 16.75V14.25C6.25 12.1797 7.92969 10.5 10 10.5ZM7.5 14.25V16.75C7.5 18.1562 8.59375 19.25 10 19.25C11.3672 19.25 12.5 18.1562 12.5 16.75V14.25C12.5 12.8828 11.3672 11.75 10 11.75C8.59375 11.75 7.5 12.8828 7.5 14.25Z" fill="black" fill-opacity="0.72"/>
</g>
<defs>
<clipPath id="clip0_2556_17277">
<rect width="20" height="30" fill="white"/>
</clipPath>
</defs>
</svg>
