<svg width="14" height="22" viewBox="0 0 14 22" fill="none" xmlns="http://www.w3.org/2000/svg">
<g id="label-paired / sm / circle-nine-sm / regular" clip-path="url(#clip0_2556_12437)">
<path id="icon" d="M13.125 10.75C13.125 8.5625 11.9492 6.56641 10.0625 5.47266C8.14844 4.35156 5.82422 4.35156 3.9375 5.47266C2.02344 6.56641 0.875 8.5625 0.875 10.75C0.875 12.9648 2.02344 14.9609 3.9375 16.0547C5.82422 17.1758 8.14844 17.1758 10.0625 16.0547C11.9492 14.9609 13.125 12.9648 13.125 10.75ZM0 10.75C0 8.26172 1.3125 5.96484 3.5 4.70703C5.66016 3.44922 8.3125 3.44922 10.5 4.70703C12.6602 5.96484 14 8.26172 14 10.75C14 13.2656 12.6602 15.5625 10.5 16.8203C8.3125 18.0781 5.66016 18.0781 3.5 16.8203C1.3125 15.5625 0 13.2656 0 10.75ZM7 8.125C6.37109 8.125 5.79688 8.48047 5.46875 9C5.16797 9.54688 5.16797 10.2305 5.46875 10.75C5.79688 11.2969 6.37109 11.625 7 11.625C7.60156 11.625 8.17578 11.2969 8.50391 10.75C8.80469 10.2305 8.80469 9.54688 8.50391 9C8.17578 8.48047 7.60156 8.125 7 8.125ZM6.89062 12.5C5.49609 12.4453 4.375 11.2969 4.375 9.875C4.375 8.42578 5.55078 7.25 7 7.25C8.44922 7.25 9.625 8.42578 9.625 9.875C9.625 10.6953 9.26953 11.4883 8.66797 12.0352L6.39844 14.1406C6.23438 14.3047 5.96094 14.3047 5.79688 14.1133C5.63281 13.9492 5.63281 13.6758 5.82422 13.5117L6.89062 12.5Z" fill="black" fill-opacity="0.72"/>
</g>
<defs>
<clipPath id="clip0_2556_12437">
<rect width="14" height="22" fill="white"/>
</clipPath>
</defs>
</svg>
