<svg width="11" height="18" viewBox="0 0 11 18" fill="none" xmlns="http://www.w3.org/2000/svg">
<g id="label-paired / caption / expand-caption / fill" clip-path="url(#clip0_2556_10575)">
<path id="icon" d="M1 4.25H3.25C3.64844 4.25 4 4.60156 4 5C4 5.42188 3.64844 5.75 3.25 5.75H1.75V7.25C1.75 7.67188 1.39844 8 1 8C0.578125 8 0.25 7.67188 0.25 7.25V5C0.25 4.60156 0.578125 4.25 1 4.25ZM1.75 11.75V13.25H3.25C3.64844 13.25 4 13.6016 4 14C4 14.4219 3.64844 14.75 3.25 14.75H1C0.578125 14.75 0.25 14.4219 0.25 14V11.75C0.25 11.3516 0.578125 11 1 11C1.39844 11 1.75 11.3516 1.75 11.75ZM7.75 4.25H10C10.3984 4.25 10.75 4.60156 10.75 5V7.25C10.75 7.67188 10.3984 8 10 8C9.57812 8 9.25 7.67188 9.25 7.25V5.75H7.75C7.32812 5.75 7 5.42188 7 5C7 4.60156 7.32812 4.25 7.75 4.25ZM10.75 11.75V14C10.75 14.4219 10.3984 14.75 10 14.75H7.75C7.32812 14.75 7 14.4219 7 14C7 13.6016 7.32812 13.25 7.75 13.25H9.25V11.75C9.25 11.3516 9.57812 11 10 11C10.3984 11 10.75 11.3516 10.75 11.75Z" fill="black" fill-opacity="0.72"/>
</g>
<defs>
<clipPath id="clip0_2556_10575">
<rect width="11" height="18" fill="white"/>
</clipPath>
</defs>
</svg>
