<svg width="24" height="36" viewBox="0 0 24 36" fill="none" xmlns="http://www.w3.org/2000/svg">
<g id="label-paired / xl / app-store-xl" clip-path="url(#clip0_2556_19230)">
<path id="icon" d="M11.9531 11.6719L11.5781 10.9688C11.2969 10.5 10.6875 10.3594 10.2656 10.5938C9.79688 10.875 9.65625 11.4375 9.89062 11.9062L10.875 13.5938L7.73438 19.0312H5.29688C4.78125 19.0312 4.35938 19.4531 4.35938 19.9688C4.35938 20.4844 4.78125 20.9062 5.29688 20.9062H14.0156C14.4375 20.1562 13.875 19.0312 12.9375 19.0312H9.9375L14.0625 11.9062C14.3438 11.4375 14.1562 10.875 13.6875 10.5938C13.2656 10.3594 12.6562 10.5 12.4219 10.9688L11.9531 11.6719ZM8.29688 21.8906C7.78125 21.3281 7.17188 21.1406 6.375 21.375L5.71875 22.5469C5.4375 23.0156 5.57812 23.5781 6.04688 23.8594C6.51562 24.0938 7.125 23.9531 7.35938 23.4844L8.29688 21.8906ZM16.2188 19.0312C14.9531 16.8281 14.0156 15.2344 13.4062 14.1562C12.7969 14.625 12.2344 15.9844 13.0312 17.3906C13.8281 18.75 15 20.7656 16.5938 23.4844C16.8281 23.9531 17.4375 24.0938 17.9062 23.8594C18.3281 23.5781 18.5156 23.0156 18.2344 22.5469L17.2969 20.9062H18.7031C19.2188 20.9062 19.6406 20.4844 19.6406 19.9688C19.6406 19.4531 19.2188 19.0312 18.7031 19.0312H16.2188ZM12 6.375C18.4219 6.375 23.625 11.5781 23.625 18C23.625 24.4219 18.4219 29.625 12 29.625C5.57812 29.625 0.375 24.4219 0.375 18C0.375 11.5781 5.57812 6.375 12 6.375ZM22.125 18C22.125 12.4219 17.5312 7.875 12 7.875C6.375 7.875 1.875 12.4688 1.875 18C1.875 23.625 6.42188 28.125 12 28.125C17.5781 28.125 22.125 23.5781 22.125 18Z" fill="black" fill-opacity="0.72"/>
</g>
<defs>
<clipPath id="clip0_2556_19230">
<rect width="24" height="36" fill="white"/>
</clipPath>
</defs>
</svg>
