<svg width="9" height="18" viewBox="0 0 9 18" fill="none" xmlns="http://www.w3.org/2000/svg">
<g id="label-paired / caption / microphone-caption / regular" clip-path="url(#clip0_2556_10474)">
<path id="icon" d="M6 5.75C6 4.92969 5.32031 4.25 4.5 4.25C3.65625 4.25 3 4.92969 3 5.75V9.5C3 10.3438 3.65625 11 4.5 11C5.32031 11 6 10.3438 6 9.5V5.75ZM2.25 5.75C2.25 4.50781 3.25781 3.5 4.5 3.5C5.74219 3.5 6.75 4.50781 6.75 5.75V9.5C6.75 10.7422 5.74219 11.75 4.5 11.75C3.25781 11.75 2.25 10.7422 2.25 9.5V5.75ZM1.5 8.375V9.5C1.5 11.1641 2.83594 12.5 4.5 12.5C6.14062 12.5 7.5 11.1641 7.5 9.5V8.375C7.5 8.1875 7.66406 8 7.875 8C8.0625 8 8.25 8.1875 8.25 8.375V9.5C8.25 11.4453 6.75 13.0625 4.875 13.25V14.75H6.375C6.5625 14.75 6.75 14.9375 6.75 15.125C6.75 15.3359 6.5625 15.5 6.375 15.5H4.5H2.625C2.41406 15.5 2.25 15.3359 2.25 15.125C2.25 14.9375 2.41406 14.75 2.625 14.75H4.125V13.25C2.22656 13.0625 0.75 11.4453 0.75 9.5V8.375C0.75 8.1875 0.914062 8 1.125 8C1.3125 8 1.5 8.1875 1.5 8.375Z" fill="black" fill-opacity="0.72"/>
</g>
<defs>
<clipPath id="clip0_2556_10474">
<rect width="9" height="18" fill="white"/>
</clipPath>
</defs>
</svg>
