<svg width="20" height="30" viewBox="0 0 20 30" fill="none" xmlns="http://www.w3.org/2000/svg">
<g id="label-paired / lg / circle-arrow-down-lg / fill" clip-path="url(#clip0_2556_17369)">
<path id="icon" d="M10 5.5C13.5547 5.5 16.8359 7.41406 18.6328 10.5C20.4297 13.625 20.4297 17.4141 18.6328 20.5C16.8359 23.625 13.5547 25.5 10 25.5C6.40625 25.5 3.125 23.625 1.32812 20.5C-0.46875 17.4141 -0.46875 13.625 1.32812 10.5C3.125 7.41406 6.40625 5.5 10 5.5ZM4.96094 16.4766L9.33594 20.8516C9.6875 21.2422 10.2734 21.2422 10.6641 20.8516L15 16.4766C15.3906 16.125 15.3906 15.5391 15 15.1875C14.6484 14.7969 14.0625 14.7969 13.7109 15.1875L10.9375 17.9609V10.8125C10.9375 10.3047 10.5078 9.875 10 9.875C9.45312 9.875 9.0625 10.3047 9.0625 10.8125L9.02344 17.9609L6.25 15.1875C5.89844 14.7969 5.3125 14.7969 4.96094 15.1875C4.57031 15.5391 4.57031 16.125 4.96094 16.4766Z" fill="black" fill-opacity="0.72"/>
</g>
<defs>
<clipPath id="clip0_2556_17369">
<rect width="20" height="30" fill="white"/>
</clipPath>
</defs>
</svg>
