<svg width="12" height="24" viewBox="0 0 12 24" fill="none" xmlns="http://www.w3.org/2000/svg">
<g id="label-paired / md / lightbulb-md / regular" clip-path="url(#clip0_2556_14943)">
<path id="icon" d="M9.6875 12.0938C10.1875 11.3438 10.5 10.4688 10.5 9.5C10.5 7.03125 8.46875 5 6 5C3.5 5 1.5 7.03125 1.5 9.5C1.5 10.4688 1.78125 11.3438 2.28125 12.0938C2.40625 12.25 2.5625 12.4688 2.71875 12.6875C3.125 13.2188 3.5625 13.8438 3.90625 14.4688C4.1875 14.9688 4.34375 15.5 4.40625 16.0312H3.40625C3.3125 15.6562 3.21875 15.2812 3.03125 14.9375C2.71875 14.375 2.34375 13.8438 1.9375 13.3125C1.78125 13.0938 1.625 12.875 1.46875 12.6562C0.84375 11.75 0.5 10.6875 0.5 9.5C0.5 6.46875 2.9375 4 6 4C9.03125 4 11.5 6.46875 11.5 9.5C11.5 10.6875 11.125 11.75 10.5 12.6562C10.3438 12.875 10.1875 13.0938 10.0312 13.3125C9.625 13.8438 9.25 14.375 8.9375 14.9375C8.75 15.2812 8.65625 15.625 8.5625 16H7.5625C7.65625 15.5 7.78125 14.9688 8.0625 14.4688C8.40625 13.8438 8.875 13.2188 9.25 12.6562C9.40625 12.4688 9.5625 12.25 9.6875 12.0625V12.0938ZM6 7C4.59375 7 3.5 8.125 3.5 9.5C3.5 9.78125 3.25 10 3 10C2.71875 10 2.5 9.78125 2.5 9.5C2.5 7.59375 4.0625 6 6 6C6.25 6 6.5 6.25 6.5 6.5C6.5 6.78125 6.25 7 6 7ZM4.5625 18C4.78125 18.5938 5.34375 19 6 19C6.625 19 7.1875 18.5938 7.40625 18H4.5625ZM3.5 17.5V17.3438C3.5 17.1562 3.625 17 3.8125 17H8.15625C8.34375 17 8.5 17.1562 8.5 17.3438V17.5C8.5 18.9062 7.375 20 6 20C4.59375 20 3.5 18.9062 3.5 17.5Z" fill="black" fill-opacity="0.72"/>
</g>
<defs>
<clipPath id="clip0_2556_14943">
<rect width="12" height="24" fill="white"/>
</clipPath>
</defs>
</svg>
