<svg width="13" height="30" viewBox="0 0 13 30" fill="none" xmlns="http://www.w3.org/2000/svg">
<g id="label-paired / lg / sort-lg / bold" clip-path="url(#clip0_2556_17269)">
<path id="icon" d="M2.98438 12.375H9.97656L6.5 8.89844L2.98438 12.375ZM7.35938 7.14062L12.3594 12.1406C12.7109 12.4922 12.8281 13.0391 12.6328 13.5078C12.4375 13.9766 11.9688 14.2891 11.4609 14.2891H1.5C0.992188 14.2891 0.523438 13.9766 0.328125 13.5078C0.132812 13.0391 0.25 12.4922 0.601562 12.1406L5.60156 7.14062C6.07031 6.63281 6.89062 6.63281 7.35938 7.14062ZM2.98438 18.625L6.5 22.1406L9.97656 18.625H2.98438ZM7.35938 23.8984C6.89062 24.4062 6.07031 24.4062 5.60156 23.8984L0.601562 18.8984C0.25 18.5469 0.132812 18 0.328125 17.5312C0.523438 17.0625 0.992188 16.75 1.5 16.75H11.5C11.9688 16.75 12.4375 17.0625 12.6328 17.5312C12.8281 18 12.7109 18.5469 12.3594 18.8984L7.35938 23.8984Z" fill="black" fill-opacity="0.72"/>
</g>
<defs>
<clipPath id="clip0_2556_17269">
<rect width="13" height="30" fill="white"/>
</clipPath>
</defs>
</svg>
