<svg width="20" height="24" viewBox="0 0 20 24" fill="none" xmlns="http://www.w3.org/2000/svg">
<g id="label-paired / md / hand-gesture-tap-right-md / bold" clip-path="url(#clip0_3546_781)">
<path id="icon" d="M15.6875 10C15.6875 10.9375 15.0625 11.7188 14.1875 11.9375L12.7812 14.9062C12.8438 15.0312 12.9062 15.1562 12.9375 15.25L13.1562 15.75C13.3438 16.1875 13.3125 16.6875 13.125 17.125L13.0312 17.3125C12.5625 18.2812 11.6562 18.9062 10.5938 19H10.5312C10.0312 19.0312 9.5 18.9375 9.03125 18.7188L6.8125 17.6562C5.625 17.125 5.125 15.7188 5.6875 14.5625L6.5625 12.7188C6.84375 12.0938 7.625 11.8125 8.21875 12.125C8.25 12.125 8.28125 12.1562 8.3125 12.1562C8.34375 12.1875 8.34375 12.1875 8.375 12.2188C8.71875 11.9688 9.21875 11.9062 9.625 12.0938C9.71875 12.1562 9.8125 12.1875 9.90625 12.25C10.25 12 10.75 11.9375 11.1562 12.125C11.1875 12.1562 11.2188 12.1562 11.25 12.1875L11.2812 12.2188L11.9062 10.9375C11.75 10.6562 11.6875 10.3438 11.6875 10C11.6875 8.90625 12.5938 8 13.6875 8C14.7812 8 15.6875 8.90625 15.6875 10ZM13.7812 9.90625C14.1562 10.0938 14.4062 10.4062 14.4688 10.7812C14.6562 10.5938 14.7812 10.3125 14.7812 10C14.7812 9.40625 14.2812 8.90625 13.6875 8.90625C13.0938 8.90625 12.5938 9.375 12.5938 9.96875C12.9375 9.75 13.375 9.71875 13.7812 9.90625ZM11.1875 16.125L13.1562 11.9375L13.5312 11.0938C13.5625 10.9688 13.5 10.8125 13.375 10.75C13.25 10.6875 13.0625 10.75 12.9688 10.8438L12.5938 11.6875L11.8125 13.3125C11.7188 13.5 11.5312 13.5938 11.3438 13.5625C11.125 13.5625 10.9688 13.4062 10.9375 13.2188C10.9062 13.0938 10.8438 13.0312 10.75 13C10.625 12.9375 10.4062 12.9688 10.3438 13.125L10.2812 13.2812C10.1875 13.4375 10 13.5625 9.8125 13.5312C9.59375 13.5312 9.4375 13.3438 9.40625 13.1562C9.375 13.0625 9.3125 13 9.21875 12.9375C9.0625 12.875 8.875 12.9375 8.8125 13.0938C8.71875 13.25 8.5625 13.3438 8.40625 13.3438C8.21875 13.3438 8.0625 13.25 7.96875 13.125C7.9375 13.0625 7.875 13 7.8125 12.9688C7.6875 12.9062 7.46875 12.9688 7.40625 13.125L6.53125 14.9688C6.21875 15.6562 6.5 16.5 7.1875 16.8125L9.4375 17.875C9.75 18.0312 10.0938 18.0938 10.4688 18.0625H10.5312C11.25 18 11.875 17.5625 12.1875 16.9062L12.2812 16.7188C12.375 16.5 12.375 16.3125 12.2812 16.0938L12.0938 15.625L11.75 16.375C11.6562 16.5312 11.4688 16.5938 11.3125 16.5312C11.1875 16.4688 11.0938 16.2812 11.1875 16.125ZM16.5312 5C16.7812 5 17 5.21875 17 5.4375V18.5938C17 18.8125 16.7812 19.0312 16.5312 19.0312C16.2812 19.0312 16.0938 18.8125 16.0938 18.5938V5.4375C16.0938 5.21875 16.2812 5 16.5312 5Z" fill="black" fill-opacity="0.72"/>
</g>
<defs>
<clipPath id="clip0_3546_781">
<rect width="20" height="24" fill="white"/>
</clipPath>
</defs>
</svg>
