<svg width="20" height="30" viewBox="0 0 20 30" fill="none" xmlns="http://www.w3.org/2000/svg">
<g id="label-paired / lg / circle-five-lg / regular" clip-path="url(#clip0_2556_17636)">
<path id="icon" d="M10 6.75C6.83594 6.75 3.98438 8.42969 2.42188 11.125C0.820312 13.8594 0.820312 17.1797 2.42188 19.875C3.98438 22.6094 6.83594 24.25 10 24.25C13.125 24.25 15.9766 22.6094 17.5391 19.875C19.1406 17.1797 19.1406 13.8594 17.5391 11.125C15.9766 8.42969 13.125 6.75 10 6.75ZM10 25.5C6.40625 25.5 3.125 23.625 1.32812 20.5C-0.46875 17.4141 -0.46875 13.625 1.32812 10.5C3.125 7.41406 6.40625 5.5 10 5.5C13.5547 5.5 16.8359 7.41406 18.6328 10.5C20.4297 13.625 20.4297 17.4141 18.6328 20.5C16.8359 23.625 13.5547 25.5 10 25.5ZM8.125 10.5H12.5C12.8125 10.5 13.125 10.8125 13.125 11.125C13.125 11.4766 12.8125 11.75 12.5 11.75H8.59375L7.96875 14.3281L11.0938 14.6406C12.5781 14.7969 13.7109 16.0859 13.7109 17.5703C13.7109 19.2109 12.4219 20.5 10.7812 20.5H9.0625C8.00781 20.5 6.99219 19.9922 6.40625 19.0938L6.32812 18.9766C6.13281 18.7031 6.21094 18.3125 6.52344 18.1172C6.79688 17.9219 7.1875 18 7.38281 18.2734L7.46094 18.3906C7.8125 18.9375 8.4375 19.25 9.0625 19.25H10.7812C11.7188 19.25 12.5 18.5078 12.5 17.5703C12.5 16.7109 11.8359 16.0078 10.9766 15.8906L7.10938 15.5C6.91406 15.5 6.75781 15.3828 6.64062 15.2656C6.5625 15.1094 6.52344 14.9141 6.5625 14.7578L7.5 11.0078C7.57812 10.6953 7.8125 10.5 8.125 10.5Z" fill="black" fill-opacity="0.72"/>
</g>
<defs>
<clipPath id="clip0_2556_17636">
<rect width="20" height="30" fill="white"/>
</clipPath>
</defs>
</svg>
