<svg width="18" height="22" viewBox="0 0 18 22" fill="none" xmlns="http://www.w3.org/2000/svg">
<g id="label-paired / sm / wifi-sm / fill" clip-path="url(#clip0_2556_12572)">
<path id="icon" d="M1.72656 9.30078C1.37109 9.65625 0.824219 9.62891 0.46875 9.27344C0.140625 8.94531 0.167969 8.37109 0.496094 8.04297C2.71094 5.9375 5.69141 4.625 9 4.625C12.2812 4.625 15.2617 5.9375 17.4766 8.04297C17.8047 8.37109 17.832 8.94531 17.5039 9.27344C17.1484 9.62891 16.6016 9.65625 16.2461 9.30078C14.3594 7.49609 11.8164 6.375 9 6.375C6.15625 6.375 3.61328 7.49609 1.72656 9.30078ZM9 10.75C7.44141 10.75 6.01953 11.3516 4.92578 12.2812C4.57031 12.6094 4.02344 12.582 3.69531 12.2266C3.39453 11.8438 3.42188 11.2969 3.77734 10.9688C5.17188 9.76562 7.00391 9 9 9C10.9961 9 12.8008 9.76562 14.1953 10.9688C14.5508 11.2969 14.6055 11.8438 14.2773 12.2266C13.9492 12.582 13.4023 12.6094 13.0469 12.2812C11.9531 11.3516 10.5312 10.75 9 10.75ZM10.75 15.125C10.75 15.7539 10.3945 16.3281 9.875 16.6562C9.32812 16.957 8.64453 16.957 8.125 16.6562C7.57812 16.3281 7.25 15.7539 7.25 15.125C7.25 14.5234 7.57812 13.9492 8.125 13.6211C8.64453 13.3203 9.32812 13.3203 9.875 13.6211C10.3945 13.9492 10.75 14.5234 10.75 15.125Z" fill="black" fill-opacity="0.72"/>
</g>
<defs>
<clipPath id="clip0_2556_12572">
<rect width="18" height="22" fill="white"/>
</clipPath>
</defs>
</svg>
