<svg width="15" height="30" viewBox="0 0 15 30" fill="none" xmlns="http://www.w3.org/2000/svg">
<g id="label-paired / lg / computer-mouse-scrollwheel-lg / fill" clip-path="url(#clip0_2556_17068)">
<path id="icon" d="M6.25 5.5H8.75C12.1875 5.5 15 8.3125 15 11.75V19.25C15 22.7266 12.1875 25.5 8.75 25.5H6.25C2.77344 25.5 0 22.7266 0 19.25V11.75C0 8.3125 2.77344 5.5 6.25 5.5ZM8.75 10.5C8.75 9.83594 8.16406 9.25 7.5 9.25C6.79688 9.25 6.25 9.83594 6.25 10.5V11.75C6.25 12.4531 6.79688 13 7.5 13C8.16406 13 8.75 12.4531 8.75 11.75V10.5Z" fill="black" fill-opacity="0.72"/>
</g>
<defs>
<clipPath id="clip0_2556_17068">
<rect width="15" height="30" fill="white"/>
</clipPath>
</defs>
</svg>
