<svg width="15" height="30" viewBox="0 0 15 30" fill="none" xmlns="http://www.w3.org/2000/svg">
<g id="label-paired / lg / file-excel-lg / bold" clip-path="url(#clip0_2556_17167)">
<path id="icon" d="M1.875 23C1.875 23.3516 2.14844 23.625 2.5 23.625H12.5C12.8125 23.625 13.125 23.3516 13.125 23V11.75H10C9.29688 11.75 8.75 11.2031 8.75 10.5V7.375H2.5C2.14844 7.375 1.875 7.6875 1.875 8V23ZM2.5 5.5H8.94531C9.60938 5.5 10.2344 5.77344 10.7031 6.24219L14.2578 9.79688C14.7266 10.2656 15 10.8906 15 11.5547V23C15 24.4062 13.8672 25.5 12.5 25.5H2.5C1.09375 25.5 0 24.4062 0 23V8C0 6.63281 1.09375 5.5 2.5 5.5ZM6.01562 14.6406L7.5 16.4766L8.94531 14.6406C9.25781 14.2109 9.84375 14.1328 10.2344 14.4453C10.6641 14.7969 10.7422 15.3828 10.3906 15.7734L8.67188 18L10.4297 20.2656C10.7422 20.6562 10.6641 21.2422 10.2344 21.5547C9.84375 21.8672 9.25781 21.8281 8.94531 21.3984L7.5 19.5625L6.05469 21.3984C5.70312 21.8281 5.11719 21.9062 4.72656 21.5547C4.29688 21.2422 4.25781 20.6562 4.57031 20.2656L6.28906 18L4.57031 15.7734C4.21875 15.3828 4.29688 14.7969 4.72656 14.4844C5.11719 14.1328 5.70312 14.2109 6.01562 14.6406Z" fill="black" fill-opacity="0.72"/>
</g>
<defs>
<clipPath id="clip0_2556_17167">
<rect width="15" height="30" fill="white"/>
</clipPath>
</defs>
</svg>
