<svg width="12" height="24" viewBox="0 0 12 24" fill="none" xmlns="http://www.w3.org/2000/svg">
<g id="label-paired / md / percent-md / regular" clip-path="url(#clip0_2556_15013)">
<path id="icon" d="M2 7C1.4375 7 1 7.46875 1 8C1 8.5625 1.4375 9 2 9C2.53125 9 3 8.5625 3 8C3 7.46875 2.53125 7 2 7ZM2 10C1.28125 10 0.625 9.625 0.25 9C-0.09375 8.40625 -0.09375 7.625 0.25 7C0.625 6.40625 1.28125 6 2 6C2.6875 6 3.34375 6.40625 3.71875 7C4.0625 7.625 4.0625 8.40625 3.71875 9C3.34375 9.625 2.6875 10 2 10ZM10 15C9.4375 15 9 15.4688 9 16C9 16.5625 9.4375 17 10 17C10.5312 17 11 16.5625 11 16C11 15.4688 10.5312 15 10 15ZM10 18C9.28125 18 8.625 17.625 8.25 17C7.90625 16.4062 7.90625 15.625 8.25 15C8.625 14.4062 9.28125 14 10 14C10.6875 14 11.3438 14.4062 11.7188 15C12.0625 15.625 12.0625 16.4062 11.7188 17C11.3438 17.625 10.6875 18 10 18ZM11.8438 6.875L0.84375 17.875C0.65625 18.0625 0.3125 18.0625 0.125 17.875C-0.0625 17.6875 -0.0625 17.3438 0.125 17.1562L11.125 6.15625C11.3125 5.96875 11.6562 5.96875 11.8438 6.15625C12.0312 6.34375 12.0312 6.6875 11.8438 6.875Z" fill="black" fill-opacity="0.72"/>
</g>
<defs>
<clipPath id="clip0_2556_15013">
<rect width="12" height="24" fill="white"/>
</clipPath>
</defs>
</svg>
