<svg width="24" height="36" viewBox="0 0 24 36" fill="none" xmlns="http://www.w3.org/2000/svg">
<g id="label-paired / xl / circle-envelope-xl / regular" clip-path="url(#clip0_2556_19468)">
<path id="icon" d="M22.5 18C22.5 14.25 20.4844 10.8281 17.25 8.95312C13.9688 7.03125 9.98438 7.03125 6.75 8.95312C3.46875 10.8281 1.5 14.25 1.5 18C1.5 21.7969 3.46875 25.2188 6.75 27.0938C9.98438 29.0156 13.9688 29.0156 17.25 27.0938C20.4844 25.2188 22.5 21.7969 22.5 18ZM0 18C0 13.7344 2.25 9.79688 6 7.64062C9.70312 5.48438 14.25 5.48438 18 7.64062C21.7031 9.79688 24 13.7344 24 18C24 22.3125 21.7031 26.25 18 28.4062C14.25 30.5625 9.70312 30.5625 6 28.4062C2.25 26.25 0 22.3125 0 18ZM7.5 13.5H16.5C17.2969 13.5 18 14.2031 18 15V21C18 21.8438 17.2969 22.5 16.5 22.5H7.5C6.65625 22.5 6 21.8438 6 21V15C6 14.2031 6.65625 13.5 7.5 13.5ZM16.5 15.7969V15H7.5V15.7969L11.625 18C11.7188 18.0469 11.8594 18.0938 12 18.0938C12.0938 18.0938 12.2344 18.0469 12.3281 18L16.5 15.7969ZM16.5 17.4844L13.0312 19.3125C12.7031 19.5 12.3281 19.5938 12 19.5938C11.625 19.5938 11.25 19.5 10.9219 19.3125L7.5 17.4844V21H16.5V17.4844Z" fill="black" fill-opacity="0.72"/>
</g>
<defs>
<clipPath id="clip0_2556_19468">
<rect width="24" height="36" fill="white"/>
</clipPath>
</defs>
</svg>
