<svg width="12" height="18" viewBox="0 0 12 18" fill="none" xmlns="http://www.w3.org/2000/svg">
<g id="label-paired / caption / right-from-bracket-caption / bold" clip-path="url(#clip0_2556_10481)">
<path id="icon" d="M8.25 6.94531V8.1875C8.25 8.51562 7.99219 8.75 7.6875 8.75H4.875V10.25H7.6875C7.99219 10.25 8.25 10.5078 8.25 10.8125V12.0781L10.8281 9.5L8.25 6.94531ZM12 9.5C12 9.78125 11.8828 10.0391 11.6953 10.2266L8.97656 12.9453C8.76562 13.1562 8.48438 13.25 8.20312 13.25C7.59375 13.25 7.125 12.7812 7.125 12.1719V11.375H4.875C4.24219 11.375 3.75 10.8828 3.75 10.25V8.75C3.75 8.14062 4.24219 7.625 4.875 7.625H7.125V6.85156C7.125 6.24219 7.59375 5.75 8.20312 5.75C8.48438 5.75 8.76562 5.86719 8.97656 6.07812L11.6953 8.79688C11.8828 8.98438 12 9.24219 12 9.5ZM3.9375 5.375H2.0625C1.52344 5.375 1.125 5.79688 1.125 6.3125V12.6875C1.125 13.2266 1.52344 13.625 2.0625 13.625H3.9375C4.24219 13.625 4.5 13.8828 4.5 14.1875C4.5 14.5156 4.24219 14.75 3.9375 14.75H2.0625C0.914062 14.75 0 13.8359 0 12.6875V6.3125C0 5.1875 0.914062 4.25 2.0625 4.25H3.9375C4.24219 4.25 4.5 4.50781 4.5 4.8125C4.5 5.14062 4.24219 5.375 3.9375 5.375Z" fill="black" fill-opacity="0.72"/>
</g>
<defs>
<clipPath id="clip0_2556_10481">
<rect width="12" height="18" fill="white"/>
</clipPath>
</defs>
</svg>
