<svg width="14" height="22" viewBox="0 0 14 22" fill="none" xmlns="http://www.w3.org/2000/svg">
<g id="label-paired / sm / options-sm / fill" clip-path="url(#clip0_5129_557)">
<path id="icon" d="M1.96875 17.6133C1.12109 17.6133 0.4375 16.9297 0.4375 16.082V12.1719C0.4375 11.6523 0.847656 11.2148 1.39453 11.2148H2.10547C2.625 11.2148 3.0625 11.6523 3.0625 12.1719V13.2109L3.88281 12.3906C4.375 11.8984 5.00391 11.625 5.6875 11.625H7.60156C8.12109 11.625 8.55859 12.0625 8.55859 12.582V13.1836C8.55859 13.7305 8.12109 14.1406 7.60156 14.1406H6.125C5.85156 14.1406 5.57812 14.25 5.35938 14.4688L4.83984 14.9883H5.87891C6.39844 14.9883 6.83594 15.4258 6.83594 15.9453V16.6562C6.83594 17.1758 6.39844 17.6133 5.87891 17.6133H1.96875ZM12.6328 10.8594H11.9219C11.375 10.8594 10.9375 10.4219 10.9375 9.875V8.83594L10.1172 9.68359C9.625 10.1484 8.99609 10.4219 8.3125 10.4219H6.39844C5.87891 10.4219 5.44141 10.0117 5.44141 9.46484V8.86328C5.44141 8.34375 5.87891 7.90625 6.39844 7.90625H7.875C8.14844 7.90625 8.44922 7.79688 8.64062 7.60547L9.16016 7.05859H8.12109C7.60156 7.05859 7.16406 6.64844 7.16406 6.10156V5.39062C7.16406 4.87109 7.60156 4.43359 8.12109 4.43359H12.0312C12.8789 4.43359 13.5625 5.14453 13.5625 5.99219V9.875C13.5625 10.4219 13.1523 10.832 12.6055 10.832H12.6328V10.8594Z" fill="black" fill-opacity="0.72"/>
</g>
<defs>
<clipPath id="clip0_5129_557">
<rect width="14" height="22" fill="white"/>
</clipPath>
</defs>
</svg>
