<svg width="14" height="18" viewBox="0 0 14 18" fill="none" xmlns="http://www.w3.org/2000/svg">
<g id="label-paired / caption / share-from-square-caption / regular" clip-path="url(#clip0_4038_420)">
<path id="icon" d="M9.625 10.0625C9.625 10.1797 9.69531 10.25 9.8125 10.25C9.85938 10.25 9.90625 10.25 9.92969 10.2031L12.9531 7.34375C12.9766 7.32031 12.9766 7.29688 12.9766 7.25C12.9766 7.22656 12.9766 7.20312 12.9531 7.17969L9.92969 4.32031C9.90625 4.27344 9.85938 4.25 9.8125 4.25C9.69531 4.25 9.625 4.34375 9.625 4.4375V5.375V5.75C9.625 5.96094 9.4375 6.125 9.25 6.125H8.875H8.125H7C5.33594 6.125 4 7.48438 4 9.125C4 9.96875 4.35156 10.5781 4.77344 11.0234C4.75 10.9062 4.75 10.7891 4.75 10.6719C4.75 9.40625 5.75781 8.375 7.02344 8.375H8.125H8.5H8.875H9.25C9.4375 8.375 9.625 8.5625 9.625 8.75V9.125V10.0625ZM8.875 9.125H8.5H8.125H7.02344C6.17969 9.125 5.5 9.82812 5.5 10.6719C5.5 11.0234 5.82812 11.3984 6.03906 11.6094C6.15625 11.7031 6.25 11.8438 6.25 12.0078V12.0312C6.25 12.2891 6.01562 12.5 5.75781 12.5C5.71094 12.5 5.64062 12.5 5.59375 12.4766C5.17188 12.2891 3.25 11.3281 3.25 9.125C3.25 7.0625 4.91406 5.375 7 5.375H8.125H8.875V4.625V4.4375C8.875 3.92188 9.29688 3.5 9.8125 3.5C10.0469 3.5 10.2812 3.59375 10.4453 3.75781L13.4688 6.61719C13.6328 6.78125 13.75 7.01562 13.75 7.25C13.75 7.50781 13.6328 7.71875 13.4688 7.88281L10.4453 10.7422C10.2812 10.9297 10.0469 11 9.8125 11C9.29688 11 8.875 10.6016 8.875 10.0625V9.875V9.125ZM1.75 4.25H2.875C3.0625 4.25 3.25 4.4375 3.25 4.625C3.25 4.83594 3.0625 5 2.875 5H1.75C1.32812 5 1 5.35156 1 5.75V14C1 14.4219 1.32812 14.75 1.75 14.75H10C10.3984 14.75 10.75 14.4219 10.75 14V12.875C10.75 12.6875 10.9141 12.5 11.125 12.5C11.3125 12.5 11.5 12.6875 11.5 12.875V14C11.5 14.8438 10.8203 15.5 10 15.5H1.75C0.90625 15.5 0.25 14.8438 0.25 14V5.75C0.25 4.92969 0.90625 4.25 1.75 4.25Z" fill="black" fill-opacity="0.72"/>
</g>
<defs>
<clipPath id="clip0_4038_420">
<rect width="14" height="18" fill="white"/>
</clipPath>
</defs>
</svg>
