<svg width="12" height="18" viewBox="0 0 12 18" fill="none" xmlns="http://www.w3.org/2000/svg">
<g id="label-paired / caption / chevrons-right-caption / regular" clip-path="url(#clip0_2556_10315)">
<path id="icon" d="M1.75781 14.2812C1.61719 14.4219 1.35938 14.4219 1.21875 14.2812C1.07812 14.1406 1.07812 13.8828 1.21875 13.7422L5.46094 9.5L1.21875 5.28125C1.07812 5.14062 1.07812 4.88281 1.21875 4.74219C1.35938 4.60156 1.61719 4.60156 1.75781 4.74219L6.25781 9.24219C6.39844 9.38281 6.39844 9.64062 6.25781 9.78125L1.75781 14.2812ZM6.25781 14.2812C6.11719 14.4219 5.85938 14.4219 5.71875 14.2812C5.57812 14.1406 5.57812 13.8828 5.71875 13.7422L9.96094 9.5L5.71875 5.28125C5.57812 5.14062 5.57812 4.88281 5.71875 4.74219C5.85938 4.60156 6.11719 4.60156 6.25781 4.74219L10.7578 9.24219C10.8984 9.38281 10.8984 9.64062 10.7578 9.78125L6.25781 14.2812Z" fill="black" fill-opacity="0.72"/>
</g>
<defs>
<clipPath id="clip0_2556_10315">
<rect width="12" height="18" fill="white"/>
</clipPath>
</defs>
</svg>
