<svg width="14" height="22" viewBox="0 0 14 22" fill="none" xmlns="http://www.w3.org/2000/svg">
<g id="label-paired / sm / circle-caret-up-sm / bold" clip-path="url(#clip0_2556_12342)">
<path id="icon" d="M7 5.0625C4.94922 5.0625 3.08984 6.15625 2.05078 7.90625C1.03906 9.68359 1.03906 11.8438 2.05078 13.5938C3.08984 15.3711 4.94922 16.4375 7 16.4375C9.02344 16.4375 10.8828 15.3711 11.9219 13.5938C12.9336 11.8438 12.9336 9.68359 11.9219 7.90625C10.8828 6.15625 9.02344 5.0625 7 5.0625ZM7 17.75C4.48438 17.75 2.1875 16.4375 0.929688 14.25C-0.328125 12.0898 -0.328125 9.4375 0.929688 7.25C2.1875 5.08984 4.48438 3.75 7 3.75C9.48828 3.75 11.7852 5.08984 13.043 7.25C14.3008 9.4375 14.3008 12.0898 13.043 14.25C11.7852 16.4375 9.48828 17.75 7 17.75ZM7 7.6875C7.16406 7.6875 7.35547 7.76953 7.46484 7.90625L10.3086 10.9688C10.5 11.1602 10.5273 11.4336 10.4453 11.6797C10.3359 11.9258 10.0898 12.0625 9.84375 12.0625H4.15625C3.88281 12.0625 3.63672 11.9258 3.55469 11.6797C3.44531 11.4336 3.47266 11.1602 3.66406 10.9688L6.50781 7.90625C6.64453 7.76953 6.80859 7.6875 7 7.6875Z" fill="black" fill-opacity="0.72"/>
</g>
<defs>
<clipPath id="clip0_2556_12342">
<rect width="14" height="22" fill="white"/>
</clipPath>
</defs>
</svg>
