<svg width="20" height="30" viewBox="0 0 20 30" fill="none" xmlns="http://www.w3.org/2000/svg">
<g id="label-paired / lg / circle-plus-lg / bold" clip-path="url(#clip0_2556_17619)">
<path id="icon" d="M10 7.375C7.07031 7.375 4.41406 8.9375 2.92969 11.4375C1.48438 13.9766 1.48438 17.0625 2.92969 19.5625C4.41406 22.1016 7.07031 23.625 10 23.625C12.8906 23.625 15.5469 22.1016 17.0312 19.5625C18.4766 17.0625 18.4766 13.9766 17.0312 11.4375C15.5469 8.9375 12.8906 7.375 10 7.375ZM10 25.5C6.40625 25.5 3.125 23.625 1.32812 20.5C-0.46875 17.4141 -0.46875 13.625 1.32812 10.5C3.125 7.41406 6.40625 5.5 10 5.5C13.5547 5.5 16.8359 7.41406 18.6328 10.5C20.4297 13.625 20.4297 17.4141 18.6328 20.5C16.8359 23.625 13.5547 25.5 10 25.5ZM9.0625 18.9375V16.4375H6.5625C6.01562 16.4375 5.625 16.0469 5.625 15.5C5.625 14.9922 6.01562 14.5625 6.5625 14.5625H9.0625V12.0625C9.0625 11.5547 9.45312 11.125 10 11.125C10.5078 11.125 10.9375 11.5547 10.9375 12.0625V14.5625H13.4375C13.9453 14.5625 14.375 14.9922 14.375 15.5C14.375 16.0469 13.9453 16.4375 13.4375 16.4375H10.9375V18.9375C10.9375 19.4844 10.5078 19.875 10 19.875C9.45312 19.875 9.0625 19.4844 9.0625 18.9375Z" fill="black" fill-opacity="0.72"/>
</g>
<defs>
<clipPath id="clip0_2556_17619">
<rect width="20" height="30" fill="white"/>
</clipPath>
</defs>
</svg>
