<svg width="14" height="22" viewBox="0 0 14 22" fill="none" xmlns="http://www.w3.org/2000/svg">
<g id="label-paired / sm / location-crosshairs-sm / fill" clip-path="url(#clip0_2556_12748)">
<path id="icon" d="M7 3.75C7.46484 3.75 7.875 4.16016 7.875 4.625V5.58203C10.0625 5.96484 11.7852 7.6875 12.168 9.875H13.125C13.5898 9.875 14 10.2852 14 10.75C14 11.2422 13.5898 11.625 13.125 11.625H12.168C11.7852 13.8398 10.0625 15.5625 7.875 15.9453V16.875C7.875 17.3672 7.46484 17.75 7 17.75C6.50781 17.75 6.125 17.3672 6.125 16.875V15.9453C3.91016 15.5625 2.1875 13.8398 1.80469 11.625H0.875C0.382812 11.625 0 11.2422 0 10.75C0 10.2852 0.382812 9.875 0.875 9.875H1.80469C2.1875 7.6875 3.91016 5.96484 6.125 5.58203V4.625C6.125 4.16016 6.50781 3.75 7 3.75ZM3.5 10.75C3.5 12.0078 4.15625 13.1562 5.25 13.7852C6.31641 14.4141 7.65625 14.4141 8.75 13.7852C9.81641 13.1562 10.5 12.0078 10.5 10.75C10.5 9.51953 9.81641 8.37109 8.75 7.74219C7.65625 7.11328 6.31641 7.11328 5.25 7.74219C4.15625 8.37109 3.5 9.51953 3.5 10.75ZM7 8.5625C7.76562 8.5625 8.47656 9 8.88672 9.65625C9.26953 10.3398 9.26953 11.1875 8.88672 11.8438C8.47656 12.5273 7.76562 12.9375 7 12.9375C6.20703 12.9375 5.49609 12.5273 5.08594 11.8438C4.70312 11.1875 4.70312 10.3398 5.08594 9.65625C5.49609 9 6.20703 8.5625 7 8.5625Z" fill="black" fill-opacity="0.72"/>
</g>
<defs>
<clipPath id="clip0_2556_12748">
<rect width="14" height="22" fill="white"/>
</clipPath>
</defs>
</svg>
