<svg width="16" height="24" viewBox="0 0 16 24" fill="none" xmlns="http://www.w3.org/2000/svg">
<g id="label-paired / md / circle-one-md / fill" clip-path="url(#clip0_2556_15152)">
<path id="icon" d="M0 12C0 9.15625 1.5 6.53125 4 5.09375C6.46875 3.65625 9.5 3.65625 12 5.09375C14.4688 6.53125 16 9.15625 16 12C16 14.875 14.4688 17.5 12 18.9375C9.5 20.375 6.46875 20.375 4 18.9375C1.5 17.5 0 14.875 0 12ZM8.375 8.125C8.125 7.96875 7.84375 7.96875 7.625 8.125L5.875 9.125C5.5 9.3125 5.375 9.78125 5.59375 10.125C5.78125 10.5 6.25 10.625 6.59375 10.4062L7.25 10.0625V14.5H6C5.5625 14.5 5.25 14.8438 5.25 15.25C5.25 15.6875 5.5625 16 6 16H8H10C10.4062 16 10.75 15.6875 10.75 15.25C10.75 14.8438 10.4062 14.5 10 14.5H8.75V8.75C8.75 8.5 8.59375 8.25 8.375 8.125Z" fill="black" fill-opacity="0.72"/>
</g>
<defs>
<clipPath id="clip0_2556_15152">
<rect width="16" height="24" fill="white"/>
</clipPath>
</defs>
</svg>
