<svg width="18" height="36" viewBox="0 0 18 36" fill="none" xmlns="http://www.w3.org/2000/svg">
<g id="label-paired / xl / file-lines-xl / fill" clip-path="url(#clip0_3431_1007)">
<path id="icon" d="M3 6H10.5V12C10.5 12.8438 11.1562 13.5 12 13.5H18V27C18 28.6875 16.6406 30 15 30H3C1.3125 30 0 28.6875 0 27V9C0 7.35938 1.3125 6 3 6ZM12 6L18 12H12V6ZM5.25 18C4.82812 18 4.5 18.375 4.5 18.75C4.5 19.1719 4.82812 19.5 5.25 19.5H12.75C13.125 19.5 13.5 19.1719 13.5 18.75C13.5 18.375 13.125 18 12.75 18H5.25ZM5.25 21C4.82812 21 4.5 21.375 4.5 21.75C4.5 22.1719 4.82812 22.5 5.25 22.5H12.75C13.125 22.5 13.5 22.1719 13.5 21.75C13.5 21.375 13.125 21 12.75 21H5.25ZM5.25 24C4.82812 24 4.5 24.375 4.5 24.75C4.5 25.1719 4.82812 25.5 5.25 25.5H12.75C13.125 25.5 13.5 25.1719 13.5 24.75C13.5 24.375 13.125 24 12.75 24H5.25Z" fill="black" fill-opacity="0.72"/>
</g>
<defs>
<clipPath id="clip0_3431_1007">
<rect width="18" height="36" fill="white"/>
</clipPath>
</defs>
</svg>
