<svg width="15" height="18" viewBox="0 0 15 18" fill="none" xmlns="http://www.w3.org/2000/svg">
<g id="label-paired / caption / link-caption / fill" clip-path="url(#clip0_4460_523)">
<path id="icon" d="M13.5703 9.78125L10.9453 12.4062C9.63281 13.7422 7.47656 13.7422 6.16406 12.4062C4.99219 11.2344 4.82812 9.40625 5.78906 8.04688L5.8125 8.02344C6.07031 7.67188 6.53906 7.60156 6.86719 7.83594C7.19531 8.07031 7.28906 8.53906 7.03125 8.89062L7.00781 8.91406C6.46875 9.66406 6.5625 10.6953 7.21875 11.3516C7.94531 12.1016 9.14062 12.1016 9.89062 11.3516L12.5156 8.72656C13.2656 7.97656 13.2656 6.78125 12.5156 6.05469C11.8594 5.39844 10.8281 5.30469 10.0781 5.84375L10.0547 5.86719C9.70312 6.125 9.23438 6.03125 9 5.70312C8.76562 5.375 8.83594 4.90625 9.16406 4.64844L9.21094 4.625C10.5703 3.66406 12.3984 3.82812 13.5703 5C14.9062 6.3125 14.9062 8.46875 13.5703 9.78125ZM1.40625 9.24219L4.03125 6.59375C5.36719 5.28125 7.5 5.28125 8.83594 6.59375C10.0078 7.76562 10.1484 9.61719 9.1875 10.9766L9.16406 11C8.92969 11.3516 8.4375 11.4219 8.10938 11.1875C7.78125 10.9531 7.6875 10.4844 7.94531 10.1328L7.96875 10.1094C8.50781 9.33594 8.41406 8.32812 7.75781 7.67188C7.03125 6.92188 5.83594 6.92188 5.08594 7.67188L2.46094 10.2969C1.73438 11.0234 1.73438 12.2188 2.46094 12.9688C3.11719 13.625 4.14844 13.7188 4.89844 13.1797L4.92188 13.1562C5.27344 12.8984 5.74219 12.9922 5.97656 13.3203C6.21094 13.6484 6.14062 14.1172 5.8125 14.375L5.76562 14.3984C4.42969 15.3594 2.57812 15.1953 1.40625 14.0234C0.0703125 12.7109 0.0703125 10.5547 1.40625 9.24219Z" fill="black" fill-opacity="0.72"/>
</g>
<defs>
<clipPath id="clip0_4460_523">
<rect width="15" height="18" fill="white"/>
</clipPath>
</defs>
</svg>
