<svg width="21" height="36" viewBox="0 0 21 36" fill="none" xmlns="http://www.w3.org/2000/svg">
<g id="label-paired / xl / stopwatch-xl / regular" clip-path="url(#clip0_2556_19780)">
<path id="icon" d="M6 6.75C6 6.375 6.32812 6 6.75 6H14.25C14.625 6 15 6.375 15 6.75C15 7.17188 14.625 7.5 14.25 7.5H11.25V10.5469C13.5469 10.7344 15.6562 11.7188 17.2031 13.2188L18.9375 11.4844C19.2188 11.2031 19.7344 11.2031 20.0156 11.4844C20.2969 11.7656 20.2969 12.2344 20.0156 12.5625L18.2344 14.3438C19.5 15.9844 20.25 18.0469 20.25 20.25C20.25 25.6406 15.8438 30 10.5 30C5.10938 30 0.75 25.6406 0.75 20.25C0.75 15.1406 4.6875 10.9219 9.75 10.5469V7.5H6.75C6.32812 7.5 6 7.17188 6 6.75ZM2.25 20.25C2.25 23.2031 3.79688 25.9219 6.375 27.4219C8.90625 28.875 12.0469 28.875 14.625 27.4219C17.1562 25.9219 18.75 23.2031 18.75 20.25C18.75 17.3438 17.1562 14.625 14.625 13.125C12.0469 11.6719 8.90625 11.6719 6.375 13.125C3.79688 14.625 2.25 17.3438 2.25 20.25ZM11.25 15.75V21C11.25 21.4219 10.875 21.75 10.5 21.75C10.0781 21.75 9.75 21.4219 9.75 21V15.75C9.75 15.375 10.0781 15 10.5 15C10.875 15 11.25 15.375 11.25 15.75Z" fill="black" fill-opacity="0.72"/>
</g>
<defs>
<clipPath id="clip0_2556_19780">
<rect width="21" height="36" fill="white"/>
</clipPath>
</defs>
</svg>
