<svg width="18" height="30" viewBox="0 0 18 30" fill="none" xmlns="http://www.w3.org/2000/svg">
<g id="label-paired / lg / memo-pad-lg / regular" clip-path="url(#clip0_2981_843)">
<path id="icon" d="M1.5 10.5V23C1.5 23.7031 2.04688 24.25 2.75 24.25H15.25C15.9141 24.25 16.5 23.7031 16.5 23V10.5H1.5ZM1.5 9.25H16.5V8C16.5 7.33594 15.9141 6.75 15.25 6.75H2.75C2.04688 6.75 1.5 7.33594 1.5 8V9.25ZM17.75 8V9.25V9.875V10.5V23C17.75 24.4062 16.6172 25.5 15.25 25.5H2.75C1.34375 25.5 0.25 24.4062 0.25 23V10.5V9.875V9.25V8C0.25 6.63281 1.34375 5.5 2.75 5.5H15.25C16.6172 5.5 17.75 6.63281 17.75 8ZM4.625 13H13.375C13.6875 13 14 13.3125 14 13.625C14 13.9766 13.6875 14.25 13.375 14.25H4.625C4.27344 14.25 4 13.9766 4 13.625C4 13.3125 4.27344 13 4.625 13ZM4.625 16.75H13.375C13.6875 16.75 14 17.0625 14 17.375C14 17.7266 13.6875 18 13.375 18H4.625C4.27344 18 4 17.7266 4 17.375C4 17.0625 4.27344 16.75 4.625 16.75ZM4.625 20.5H9.625C9.9375 20.5 10.25 20.8125 10.25 21.125C10.25 21.4766 9.9375 21.75 9.625 21.75H4.625C4.27344 21.75 4 21.4766 4 21.125C4 20.8125 4.27344 20.5 4.625 20.5Z" fill="black" fill-opacity="0.72"/>
</g>
<defs>
<clipPath id="clip0_2981_843">
<rect width="18" height="30" fill="white"/>
</clipPath>
</defs>
</svg>
