<svg width="20" height="24" viewBox="0 0 20 24" fill="none" xmlns="http://www.w3.org/2000/svg">
<g id="label-paired / md / volume-high-md / fill" clip-path="url(#clip0_3758_670)">
<path id="icon" d="M16.6562 5.03125C18.6875 6.6875 20 9.1875 20 12C20 14.8438 18.6875 17.3438 16.6562 19C16.3438 19.25 15.875 19.2188 15.5938 18.875C15.3438 18.5625 15.4062 18.0938 15.7188 17.8438C17.4062 16.4688 18.5 14.375 18.5 12C18.5 9.65625 17.4062 7.5625 15.7188 6.1875C15.4062 5.9375 15.3438 5.46875 15.5938 5.125C15.875 4.8125 16.3438 4.78125 16.6562 5.03125ZM14.7812 7.34375C16.125 8.46875 17 10.125 17 12C17 13.9062 16.125 15.5625 14.7812 16.6562C14.4375 16.9375 13.9688 16.875 13.7188 16.5625C13.4375 16.25 13.5 15.7812 13.8125 15.5C14.8438 14.6875 15.5 13.4375 15.5 12C15.5 10.5938 14.8438 9.34375 13.8125 8.53125C13.5 8.25 13.4688 7.78125 13.7188 7.46875C13.9688 7.15625 14.4375 7.09375 14.7812 7.34375ZM12.875 9.6875C13.5625 10.25 14 11.0625 14 12C14 12.9688 13.5625 13.7812 12.875 14.3438C12.5625 14.5938 12.0938 14.5625 11.8125 14.2188C11.5625 13.9062 11.625 13.4375 11.9375 13.1875C12.2812 12.9062 12.5 12.4688 12.5 12C12.5 11.5312 12.2812 11.125 11.9375 10.8438C11.625 10.5938 11.5625 10.125 11.8125 9.78125C12.0938 9.46875 12.5625 9.4375 12.875 9.6875ZM9.40625 5.09375C9.75 5.25 10 5.625 10 6V18C10 18.4062 9.75 18.75 9.40625 18.9375C9.03125 19.0938 8.625 19.0312 8.3125 18.75L4.09375 15H2C0.875 15 0 14.125 0 13V11C0 9.90625 0.875 9 2 9H4.09375L8.3125 5.28125C8.625 5 9.03125 4.9375 9.40625 5.09375Z" fill="black" fill-opacity="0.72"/>
</g>
<defs>
<clipPath id="clip0_3758_670">
<rect width="20" height="24" fill="white"/>
</clipPath>
</defs>
</svg>
