<svg width="14" height="18" viewBox="0 0 14 18" fill="none" xmlns="http://www.w3.org/2000/svg">
<g id="label-paired / caption / rectangle-barcode-caption / bold" clip-path="url(#clip0_2556_9913)">
<path id="icon" d="M1.75 5.375C1.53906 5.375 1.375 5.5625 1.375 5.75V13.25C1.375 13.4609 1.53906 13.625 1.75 13.625H12.25C12.4375 13.625 12.625 13.4609 12.625 13.25V5.75C12.625 5.5625 12.4375 5.375 12.25 5.375H1.75ZM0.25 5.75C0.25 4.92969 0.90625 4.25 1.75 4.25H12.25C13.0703 4.25 13.75 4.92969 13.75 5.75V13.25C13.75 14.0938 13.0703 14.75 12.25 14.75H1.75C0.90625 14.75 0.25 14.0938 0.25 13.25V5.75ZM3.0625 6.5C3.36719 6.5 3.625 6.75781 3.625 7.0625V11.9375C3.625 12.2656 3.36719 12.5 3.0625 12.5C2.73438 12.5 2.5 12.2656 2.5 11.9375V7.0625C2.5 6.75781 2.73438 6.5 3.0625 6.5ZM4.75 6.5C4.9375 6.5 5.125 6.6875 5.125 6.875V12.125C5.125 12.3359 4.9375 12.5 4.75 12.5C4.53906 12.5 4.375 12.3359 4.375 12.125V6.875C4.375 6.6875 4.53906 6.5 4.75 6.5ZM5.875 7.0625C5.875 6.75781 6.10938 6.5 6.4375 6.5C6.74219 6.5 7 6.75781 7 7.0625V11.9375C7 12.2656 6.74219 12.5 6.4375 12.5C6.10938 12.5 5.875 12.2656 5.875 11.9375V7.0625ZM9.0625 6.5C9.36719 6.5 9.625 6.75781 9.625 7.0625V11.9375C9.625 12.2656 9.36719 12.5 9.0625 12.5C8.73438 12.5 8.5 12.2656 8.5 11.9375V7.0625C8.5 6.75781 8.73438 6.5 9.0625 6.5ZM10.75 6.875C10.75 6.6875 10.9141 6.5 11.125 6.5C11.3125 6.5 11.5 6.6875 11.5 6.875V12.125C11.5 12.3359 11.3125 12.5 11.125 12.5C10.9141 12.5 10.75 12.3359 10.75 12.125V6.875Z" fill="black" fill-opacity="0.72"/>
</g>
<defs>
<clipPath id="clip0_2556_9913">
<rect width="14" height="18" fill="white"/>
</clipPath>
</defs>
</svg>
