<svg width="20" height="30" viewBox="0 0 20 30" fill="none" xmlns="http://www.w3.org/2000/svg">
<g id="label-paired / lg / file-csv-lg / bold" clip-path="url(#clip0_2365_882)">
<path id="icon" d="M2.5 23.625H3.75V25.5H2.5C1.79688 25.474 1.21094 25.2266 0.742188 24.7578C0.273438 24.2891 0.0260417 23.7031 0 23V8C0.0260417 7.29688 0.273438 6.71094 0.742188 6.24219C1.21094 5.77344 1.79688 5.52604 2.5 5.5H8.98438C9.66146 5.5 10.2474 5.7474 10.7422 6.24219L14.2578 9.75781C14.7526 10.2526 15 10.8516 15 11.5547V16.75H13.125V11.75H10C9.63542 11.75 9.33594 11.6328 9.10156 11.3984C8.86719 11.1641 8.75 10.8646 8.75 10.5V7.375H2.5C2.10938 7.40104 1.90104 7.60938 1.875 8V23C1.90104 23.3906 2.10938 23.599 2.5 23.625ZM7.8125 19.25H8.4375C8.88021 19.25 9.24479 19.4062 9.53125 19.7188C9.84375 20.0052 10 20.3698 10 20.8125V21.125C9.97396 21.5156 9.76562 21.724 9.375 21.75C8.98438 21.724 8.77604 21.5156 8.75 21.125V20.8125C8.72396 20.6302 8.61979 20.526 8.4375 20.5H7.8125C7.63021 20.526 7.52604 20.6302 7.5 20.8125V23.9375C7.52604 24.1198 7.63021 24.224 7.8125 24.25H8.4375C8.61979 24.224 8.72396 24.1198 8.75 23.9375V23.625C8.77604 23.2344 8.98438 23.026 9.375 23C9.76562 23.026 9.97396 23.2344 10 23.625V23.9375C10 24.3802 9.84375 24.7448 9.53125 25.0312C9.24479 25.3438 8.88021 25.5 8.4375 25.5H7.8125C7.36979 25.5 7.00521 25.3438 6.71875 25.0312C6.40625 24.7448 6.25 24.3802 6.25 23.9375V20.8125C6.25 20.3698 6.40625 20.0052 6.71875 19.7188C7.00521 19.4062 7.36979 19.25 7.8125 19.25ZM13.0078 19.25H14.375C14.7656 19.276 14.974 19.4844 15 19.875C14.974 20.2656 14.7656 20.474 14.375 20.5H13.0078C12.6953 20.526 12.526 20.6953 12.5 21.0078C12.5 21.2161 12.6042 21.3724 12.8125 21.4766L14.2578 22.1406C14.9349 22.4531 15.2865 22.987 15.3125 23.7422C15.3125 24.237 15.1432 24.6536 14.8047 24.9922C14.4661 25.3307 14.0495 25.5 13.5547 25.5H11.875C11.4844 25.474 11.276 25.2656 11.25 24.875C11.276 24.4844 11.4844 24.276 11.875 24.25H13.5547C13.8672 24.224 14.0365 24.0547 14.0625 23.7422C14.0625 23.5339 13.9583 23.3776 13.75 23.2734L12.3047 22.6094C11.6276 22.2969 11.276 21.763 11.25 21.0078C11.25 20.513 11.4193 20.0964 11.7578 19.7578C12.0964 19.4193 12.513 19.25 13.0078 19.25ZM16.875 19.25C17.2656 19.276 17.474 19.4844 17.5 19.875V21.125C17.5 22.0365 17.7083 22.8958 18.125 23.7031C18.5417 22.8958 18.75 22.0365 18.75 21.125V19.875C18.776 19.4844 18.9844 19.276 19.375 19.25C19.7656 19.276 19.974 19.4844 20 19.875V21.125C20 22.5052 19.6094 23.7682 18.8281 24.9141L18.6328 25.2266C18.5026 25.4089 18.3333 25.5 18.125 25.5C17.9167 25.5 17.7474 25.4089 17.6172 25.2266L17.4219 24.9141C16.6406 23.7682 16.25 22.5052 16.25 21.125V19.875C16.276 19.4844 16.4844 19.276 16.875 19.25Z" fill="black" fill-opacity="0.72"/>
</g>
<defs>
<clipPath id="clip0_2365_882">
<rect width="20" height="30" fill="white"/>
</clipPath>
</defs>
</svg>
