<svg width="25" height="30" viewBox="0 0 25 30" fill="none" xmlns="http://www.w3.org/2000/svg">
<g id="label-paired / lg / laptop-lg / regular" clip-path="url(#clip0_2556_17084)">
<path id="icon" d="M20 8H5C4.29688 8 3.75 8.58594 3.75 9.25V19.25H2.5V9.25C2.5 7.88281 3.59375 6.75 5 6.75H20C21.3672 6.75 22.5 7.88281 22.5 9.25V19.25H21.25V9.25C21.25 8.58594 20.6641 8 20 8ZM2.96875 23H21.9922C22.7734 23 23.4375 22.4922 23.6719 21.75H1.28906C1.52344 22.4922 2.1875 23 2.96875 23ZM0 21.2812C0 20.8516 0.3125 20.5 0.742188 20.5H24.2188C24.6484 20.5 25 20.8516 25 21.2812C25 22.9219 23.6328 24.25 21.9922 24.25H2.96875C1.32812 24.25 0 22.9219 0 21.2812Z" fill="black" fill-opacity="0.72"/>
</g>
<defs>
<clipPath id="clip0_2556_17084">
<rect width="25" height="30" fill="white"/>
</clipPath>
</defs>
</svg>
