<svg width="11" height="18" viewBox="0 0 11 18" fill="none" xmlns="http://www.w3.org/2000/svg">
<g id="label-paired / caption / plus-caption / bold" clip-path="url(#clip0_2556_10637)">
<path id="icon" d="M6.0625 5.1875V8.9375H9.8125C10.1172 8.9375 10.375 9.19531 10.375 9.5C10.375 9.82812 10.1172 10.0625 9.8125 10.0625H6.0625V13.8125C6.0625 14.1406 5.80469 14.375 5.5 14.375C5.17188 14.375 4.9375 14.1406 4.9375 13.8125V10.0625H1.1875C0.859375 10.0625 0.625 9.82812 0.625 9.5C0.625 9.19531 0.859375 8.9375 1.1875 8.9375H4.9375V5.1875C4.9375 4.88281 5.17188 4.625 5.5 4.625C5.80469 4.625 6.0625 4.88281 6.0625 5.1875Z" fill="black" fill-opacity="0.72"/>
</g>
<defs>
<clipPath id="clip0_2556_10637">
<rect width="11" height="18" fill="white"/>
</clipPath>
</defs>
</svg>
