<svg width="16" height="24" viewBox="0 0 16 24" fill="none" xmlns="http://www.w3.org/2000/svg">
<g id="label-paired / md / circle-question-md / regular" clip-path="url(#clip0_3578_724)">
<path id="icon" d="M15 12C15 9.5 13.6562 7.21875 11.5 5.96875C9.3125 4.6875 6.65625 4.6875 4.5 5.96875C2.3125 7.21875 1 9.5 1 12C1 14.5312 2.3125 16.8125 4.5 18.0625C6.65625 19.3438 9.3125 19.3438 11.5 18.0625C13.6562 16.8125 15 14.5312 15 12ZM0 12C0 9.15625 1.5 6.53125 4 5.09375C6.46875 3.65625 9.5 3.65625 12 5.09375C14.4688 6.53125 16 9.15625 16 12C16 14.875 14.4688 17.5 12 18.9375C9.5 20.375 6.46875 20.375 4 18.9375C1.5 17.5 0 14.875 0 12ZM5.25 9.3125C5.46875 8.5625 6.15625 8 6.9375 8H8.75C9.84375 8 10.75 8.90625 10.75 10.0312C10.75 10.7812 10.3125 11.4688 9.65625 11.8125L8.5 12.4062V13C8.5 13.2812 8.25 13.5 8 13.5C7.71875 13.5 7.5 13.2812 7.5 13V12.0938C7.5 11.9062 7.59375 11.7188 7.75 11.6562L9.1875 10.9062C9.53125 10.75 9.75 10.4062 9.75 10.0312C9.75 9.46875 9.28125 9 8.75 9H6.9375C6.625 9 6.3125 9.25 6.21875 9.5625V9.59375C6.15625 9.84375 5.875 10.0312 5.625 9.9375C5.34375 9.875 5.1875 9.59375 5.25 9.34375V9.3125ZM7.25 15C7.25 14.5938 7.5625 14.25 8 14.25C8.40625 14.25 8.75 14.5938 8.75 15C8.75 15.4375 8.40625 15.75 8 15.75C7.5625 15.75 7.25 15.4375 7.25 15Z" fill="black" fill-opacity="0.72"/>
</g>
<defs>
<clipPath id="clip0_3578_724">
<rect width="16" height="24" fill="white"/>
</clipPath>
</defs>
</svg>
