<svg width="14" height="22" viewBox="0 0 14 22" fill="none" xmlns="http://www.w3.org/2000/svg">
<g id="label-paired / sm / gear-sm / fill" clip-path="url(#clip0_2556_12918)">
<path id="icon" d="M13.5352 8.31641C13.6445 8.5625 13.5625 8.80859 13.3711 9L12.1953 10.0664C12.2227 10.2852 12.2227 10.5312 12.2227 10.75C12.2227 10.9961 12.2227 11.2422 12.1953 11.4609L13.3711 12.5273C13.5625 12.6914 13.6445 12.9648 13.5352 13.2109C13.4258 13.5391 13.2891 13.8398 13.125 14.1406L12.9883 14.3594C12.7969 14.6602 12.6055 14.9609 12.3867 15.207C12.2227 15.4258 11.9492 15.4805 11.7031 15.3984L10.1992 14.9336C9.81641 15.207 9.40625 15.4258 8.99609 15.6172L8.64062 17.1758C8.58594 17.4219 8.39453 17.6133 8.14844 17.668C7.76562 17.7227 7.38281 17.75 6.97266 17.75C6.58984 17.75 6.20703 17.7227 5.82422 17.668C5.57812 17.6133 5.38672 17.4219 5.33203 17.1758L4.97656 15.6172C4.53906 15.4258 4.15625 15.207 3.77344 14.9336L2.26953 15.3984C2.02344 15.4805 1.75 15.4258 1.58594 15.2344C1.36719 14.9609 1.17578 14.6602 0.984375 14.3594L0.847656 14.1406C0.683594 13.8398 0.546875 13.5391 0.4375 13.2109C0.328125 12.9648 0.410156 12.7188 0.601562 12.5273L1.77734 11.4609C1.75 11.2422 1.75 10.9961 1.75 10.75C1.75 10.5312 1.75 10.2852 1.77734 10.0664L0.601562 9C0.410156 8.80859 0.328125 8.5625 0.4375 8.31641C0.546875 7.98828 0.683594 7.6875 0.847656 7.38672L0.984375 7.16797C1.17578 6.86719 1.36719 6.56641 1.58594 6.29297C1.75 6.10156 2.02344 6.04688 2.26953 6.12891L3.77344 6.59375C4.15625 6.32031 4.56641 6.07422 4.97656 5.91016L5.33203 4.35156C5.38672 4.10547 5.57812 3.91406 5.82422 3.85938C6.20703 3.80469 6.58984 3.75 7 3.75C7.38281 3.75 7.76562 3.80469 8.14844 3.85938C8.39453 3.88672 8.58594 4.10547 8.64062 4.35156L8.99609 5.91016C9.43359 6.07422 9.81641 6.32031 10.1992 6.59375L11.7031 6.12891C11.9492 6.04688 12.2227 6.10156 12.3867 6.29297C12.6055 6.56641 12.7969 6.86719 12.9883 7.16797L13.125 7.38672C13.2891 7.6875 13.4258 7.98828 13.5625 8.31641H13.5352ZM7 12.9375C7.76562 12.9375 8.47656 12.5273 8.88672 11.8438C9.26953 11.1875 9.26953 10.3398 8.88672 9.65625C8.47656 9 7.76562 8.5625 7 8.5625C6.20703 8.5625 5.49609 9 5.08594 9.65625C4.70312 10.3398 4.70312 11.1875 5.08594 11.8438C5.49609 12.5273 6.20703 12.9375 7 12.9375Z" fill="black" fill-opacity="0.72"/>
</g>
<defs>
<clipPath id="clip0_2556_12918">
<rect width="14" height="22" fill="white"/>
</clipPath>
</defs>
</svg>
