<svg width="9" height="18" viewBox="0 0 9 18" fill="none" xmlns="http://www.w3.org/2000/svg">
<g id="label-paired / caption / microphone-caption / fill" clip-path="url(#clip0_2556_10478)">
<path id="icon" d="M4.5 3.5C5.74219 3.5 6.75 4.50781 6.75 5.75V9.5C6.75 10.7422 5.74219 11.75 4.5 11.75C3.25781 11.75 2.25 10.7422 2.25 9.5V5.75C2.25 4.50781 3.25781 3.5 4.5 3.5ZM1.5 8.5625V9.5C1.5 11.1641 2.83594 12.5 4.5 12.5C6.14062 12.5 7.5 11.1641 7.5 9.5V8.5625C7.5 8.25781 7.73438 8 8.0625 8C8.36719 8 8.625 8.25781 8.625 8.5625V9.5C8.625 11.6094 7.05469 13.3203 5.0625 13.6016V14.375H6.1875C6.49219 14.375 6.75 14.6328 6.75 14.9375C6.75 15.2656 6.49219 15.5 6.1875 15.5H4.5H2.8125C2.48438 15.5 2.25 15.2656 2.25 14.9375C2.25 14.6328 2.48438 14.375 2.8125 14.375H3.9375V13.6016C1.92188 13.3203 0.375 11.6094 0.375 9.5V8.5625C0.375 8.25781 0.609375 8 0.9375 8C1.24219 8 1.5 8.25781 1.5 8.5625Z" fill="black" fill-opacity="0.72"/>
</g>
<defs>
<clipPath id="clip0_2556_10478">
<rect width="9" height="18" fill="white"/>
</clipPath>
</defs>
</svg>
