<svg width="18" height="30" viewBox="0 0 18 30" fill="none" xmlns="http://www.w3.org/2000/svg">
<g id="label-paired / lg / arrow-up-from-bracket-lg / regular" clip-path="url(#clip0_2556_17523)">
<path id="icon" d="M9.42969 5.69531L14.4297 10.6953C14.6641 10.9297 14.6641 11.3594 14.4297 11.5938C14.1953 11.8281 13.7656 11.8281 13.5312 11.5938L9.625 7.64844V18.625C9.625 18.9766 9.3125 19.25 9 19.25C8.64844 19.25 8.375 18.9766 8.375 18.625V7.64844L4.42969 11.5938C4.19531 11.8281 3.76562 11.8281 3.53125 11.5938C3.29688 11.3594 3.29688 10.9297 3.53125 10.6953L8.53125 5.69531C8.76562 5.46094 9.19531 5.46094 9.42969 5.69531ZM1.5 18.625V22.375C1.5 23.4297 2.32031 24.25 3.375 24.25H14.625C15.6406 24.25 16.5 23.4297 16.5 22.375V18.625C16.5 18.3125 16.7734 18 17.125 18C17.4375 18 17.75 18.3125 17.75 18.625V22.375C17.75 24.1328 16.3438 25.5 14.625 25.5H3.375C1.61719 25.5 0.25 24.1328 0.25 22.375V18.625C0.25 18.3125 0.523438 18 0.875 18C1.1875 18 1.5 18.3125 1.5 18.625Z" fill="black" fill-opacity="0.72"/>
</g>
<defs>
<clipPath id="clip0_2556_17523">
<rect width="18" height="30" fill="white"/>
</clipPath>
</defs>
</svg>
