<svg width="13" height="22" viewBox="0 0 13 22" fill="none" xmlns="http://www.w3.org/2000/svg">
<g id="label-paired / sm / copy-sm / regular" clip-path="url(#clip0_2556_12724)">
<path id="icon" d="M10.875 13.375C11.3398 13.375 11.75 12.9922 11.75 12.5V6.92188C11.75 6.8125 11.6953 6.70312 11.6133 6.62109L9.75391 4.76172C9.67188 4.67969 9.5625 4.625 9.45312 4.625H6.5C6.00781 4.625 5.625 5.03516 5.625 5.5V12.5C5.625 12.9922 6.00781 13.375 6.5 13.375H10.875ZM12.2148 5.99219C12.4609 6.23828 12.625 6.59375 12.625 6.92188V12.5C12.625 13.4844 11.832 14.25 10.875 14.25H6.5C5.51562 14.25 4.75 13.4844 4.75 12.5V5.5C4.75 4.54297 5.51562 3.75 6.5 3.75H9.45312C9.78125 3.75 10.1367 3.91406 10.3828 4.16016L12.2148 5.99219ZM2.125 7.25H3.875V8.125H2.125C1.63281 8.125 1.25 8.53516 1.25 9V16C1.25 16.4922 1.63281 16.875 2.125 16.875H6.5C6.96484 16.875 7.375 16.4922 7.375 16V15.125H8.25V16C8.25 16.9844 7.45703 17.75 6.5 17.75H2.125C1.14062 17.75 0.375 16.9844 0.375 16V9C0.375 8.04297 1.14062 7.25 2.125 7.25Z" fill="black" fill-opacity="0.72"/>
</g>
<defs>
<clipPath id="clip0_2556_12724">
<rect width="13" height="22" fill="white"/>
</clipPath>
</defs>
</svg>
