<svg width="18" height="22" viewBox="0 0 18 22" fill="none" xmlns="http://www.w3.org/2000/svg">
<g id="label-paired / sm / book-circle-question-sm / bold" clip-path="url(#clip0_2981_773)">
<path id="icon" d="M0.25 6.15625C0.25 4.84375 1.31641 3.75 2.65625 3.75H10.9688C11.7891 3.75 12.5 4.46094 12.5 5.28125V9.19141C12.0078 9.32812 11.5703 9.51953 11.1875 9.79297V5.28125C11.1875 5.17188 11.0781 5.0625 10.9688 5.0625H2.65625C2.02734 5.0625 1.5625 5.55469 1.5625 6.15625V13.5664C1.80859 13.457 2.10938 13.375 2.4375 13.375H9C9 13.5391 9 13.6758 9 13.8125C9 14.1133 9.02734 14.4141 9.05469 14.6875H2.4375C1.94531 14.6875 1.5625 15.0977 1.5625 15.5625C1.5625 16.0547 1.94531 16.4375 2.4375 16.4375H9.76562C10.0938 16.957 10.5312 17.4219 11.0234 17.75H2.4375C1.20703 17.75 0.25 16.793 0.25 15.5625C0.25 15.5078 0.25 15.4258 0.25 15.3438V6.15625ZM3.75 7.46875C3.75 7.11328 4.02344 6.8125 4.40625 6.8125H9.21875C9.57422 6.8125 9.875 7.11328 9.875 7.46875C9.875 7.85156 9.57422 8.125 9.21875 8.125H4.40625C4.02344 8.125 3.75 7.85156 3.75 7.46875ZM3.75 9.65625C3.75 9.30078 4.02344 9 4.40625 9H9.21875C9.57422 9 9.875 9.30078 9.875 9.65625C9.875 10.0391 9.57422 10.3125 9.21875 10.3125H4.40625C4.02344 10.3125 3.75 10.0391 3.75 9.65625ZM9.875 13.8125C9.875 11.6523 11.625 9.875 13.8125 9.875C15.9727 9.875 17.75 11.6523 17.75 13.8125C17.75 16 15.9727 17.75 13.8125 17.75C11.625 17.75 9.875 16 9.875 13.8125ZM12.0625 12.5547V12.7188C12.0625 12.9648 12.2539 13.1562 12.5 13.1562C12.7188 13.1562 12.9375 12.9648 12.9375 12.7188V12.5547C12.9375 12.418 13.0469 12.2812 13.1836 12.2812H14.3047C14.4961 12.2812 14.6875 12.4727 14.6875 12.6641C14.6875 12.8281 14.6055 12.9375 14.4688 13.0195L13.5938 13.457C13.457 13.5391 13.375 13.7031 13.375 13.8672V14.25C13.375 14.4961 13.5664 14.6875 13.8125 14.6875C14.0312 14.6875 14.25 14.4961 14.25 14.25V14.1133L14.8789 13.7852C15.2891 13.5664 15.5625 13.1289 15.5625 12.6641C15.5625 11.9805 14.9883 11.4336 14.3047 11.4336H13.1836C12.5547 11.4336 12.0625 11.9258 12.0625 12.5547ZM13.1562 15.7812C13.1562 16.1641 13.4297 16.4375 13.8125 16.4375C14.168 16.4375 14.4688 16.1641 14.4688 15.7812C14.4688 15.4258 14.168 15.125 13.8125 15.125C13.4297 15.125 13.1562 15.4258 13.1562 15.7812Z" fill="black" fill-opacity="0.72"/>
</g>
<defs>
<clipPath id="clip0_2981_773">
<rect width="18" height="22" fill="white"/>
</clipPath>
</defs>
</svg>
