<svg width="8" height="18" viewBox="0 0 8 18" fill="none" xmlns="http://www.w3.org/2000/svg">
<g id="label-paired / caption / caret-down-caption / regular" clip-path="url(#clip0_2556_9931)">
<path id="icon" d="M4.11719 11.7031L6.92969 9.05469C6.97656 9.00781 6.97656 8.98438 6.97656 8.9375C6.97656 8.84375 6.90625 8.75 6.8125 8.75H1.16406C1.07031 8.75 1 8.84375 1 8.9375C1 8.98438 1 9.00781 1.04688 9.05469L3.85938 11.7031C3.88281 11.75 3.92969 11.75 4 11.75C4.04688 11.75 4.09375 11.75 4.11719 11.7031ZM4.63281 12.2656C4.46875 12.4297 4.23438 12.5 4 12.5C3.74219 12.5 3.50781 12.4297 3.34375 12.2656L0.53125 9.59375C0.34375 9.42969 0.25 9.17188 0.25 8.9375C0.25 8.42188 0.648438 8 1.16406 8L6.8125 8.02344C7.32812 8.02344 7.75 8.42188 7.75 8.9375C7.75 9.17188 7.63281 9.42969 7.44531 9.59375L4.63281 12.2656Z" fill="black" fill-opacity="0.72"/>
</g>
<defs>
<clipPath id="clip0_2556_9931">
<rect width="8" height="18" fill="white"/>
</clipPath>
</defs>
</svg>
