<svg width="25" height="30" viewBox="0 0 25 30" fill="none" xmlns="http://www.w3.org/2000/svg">
<g id="label-paired / lg / bell-slash-lg / fill" clip-path="url(#clip0_2556_17182)">
<path id="icon" d="M1.48438 5.73438L7.26562 10.2266C8.16406 8.85938 9.57031 7.84375 11.25 7.53125V6.75C11.25 6.08594 11.7969 5.5 12.5 5.5C13.1641 5.5 13.75 6.08594 13.75 6.75V7.53125C16.6016 8.07812 18.75 10.6172 18.75 13.625V14.3672C18.75 16.2031 19.4141 18 20.625 19.3672L20.8984 19.6797C21.25 20.0703 21.3281 20.5781 21.1328 21.0469C21.1328 21.0469 21.0938 21.0469 21.0938 21.0859L24.6094 23.8594C25.0391 24.1719 25.1172 24.7578 24.7656 25.1484C24.4531 25.5781 23.8672 25.6562 23.4766 25.3047L0.351562 7.17969C-0.078125 6.86719 -0.15625 6.28125 0.195312 5.89062C0.507812 5.46094 1.09375 5.38281 1.48438 5.73438ZM15.8594 21.75H5C4.49219 21.75 4.02344 21.4766 3.82812 21.0469C3.63281 20.5781 3.71094 20.0703 4.0625 19.6797L4.33594 19.3672C5.54688 18 6.25 16.2031 6.25 14.3672V14.2109L15.8594 21.75ZM14.2578 24.7969C13.7891 25.2656 13.1641 25.5 12.5 25.5C11.8359 25.5 11.1719 25.2656 10.7031 24.7969C10.2344 24.3281 10 23.6641 10 23H12.5H15C15 23.6641 14.7266 24.3281 14.2578 24.7969Z" fill="black" fill-opacity="0.72"/>
</g>
<defs>
<clipPath id="clip0_2556_17182">
<rect width="25" height="30" fill="white"/>
</clipPath>
</defs>
</svg>
