<svg width="14" height="22" viewBox="0 0 14 22" fill="none" xmlns="http://www.w3.org/2000/svg">
<g id="label-paired / sm / at-sm / fill" clip-path="url(#clip0_2556_12544)">
<path id="icon" d="M7 5.5C4.10156 5.5 1.75 7.85156 1.75 10.75C1.75 13.6484 4.10156 16 7 16C7.46484 16 7.875 16.4102 7.875 16.875C7.875 17.3672 7.46484 17.75 7 17.75C3.11719 17.75 0 14.6328 0 10.75C0 6.89453 3.11719 3.75 7 3.75C10.8555 3.75 14 6.89453 14 10.75V11.625C14 13.0742 12.8242 14.25 11.375 14.25C10.5547 14.25 9.84375 13.8945 9.35156 13.3477C8.75 13.9219 7.90234 14.25 7 14.25C5.05859 14.25 3.5 12.6914 3.5 10.75C3.5 8.83594 5.05859 7.25 7 7.25C7.73828 7.25 8.44922 7.49609 9.02344 7.93359C9.1875 7.79688 9.37891 7.6875 9.625 7.6875C10.0898 7.6875 10.5 8.09766 10.5 8.5625V10.75V11.625C10.5 12.1172 10.8828 12.5 11.375 12.5C11.8398 12.5 12.25 12.1172 12.25 11.625V10.75C12.25 7.85156 9.89844 5.5 7 5.5ZM8.75 10.75C8.75 10.1484 8.39453 9.57422 7.875 9.24609C7.32812 8.94531 6.64453 8.94531 6.125 9.24609C5.57812 9.57422 5.25 10.1484 5.25 10.75C5.25 11.3789 5.57812 11.9531 6.125 12.2812C6.64453 12.582 7.32812 12.582 7.875 12.2812C8.39453 11.9531 8.75 11.3789 8.75 10.75Z" fill="black" fill-opacity="0.72"/>
</g>
<defs>
<clipPath id="clip0_2556_12544">
<rect width="14" height="22" fill="white"/>
</clipPath>
</defs>
</svg>
