<svg width="23" height="36" viewBox="0 0 23 36" fill="none" xmlns="http://www.w3.org/2000/svg">
<g id="label-paired / xl / options-xl / regular" clip-path="url(#clip0_5147_515)">
<path id="icon" d="M2.92188 29.7656C1.46875 29.7656 0.296875 28.5938 0.296875 27.1406V20.4375C0.296875 19.5469 1 18.7969 1.89062 18.7969H3.10938C4.04688 18.7969 4.79688 19.5469 4.79688 20.4375V22.2188L6.20312 20.8125C7.04688 19.9688 8.125 19.5 9.29688 19.5H12.5781C13.4688 19.5 14.2188 20.25 14.2188 21.1406V22.1719C14.2188 23.1094 13.4688 23.8125 12.5781 23.8125H10.0469C9.57812 23.8125 9.0625 24 8.73438 24.375L7.84375 25.2656H9.625C10.5156 25.2656 11.2656 26.0156 11.2656 26.9062V28.125C11.2656 29.0625 10.5156 29.7656 9.625 29.7656H2.92188ZM1.89062 20.0625C1.70312 20.0625 1.51562 20.25 1.51562 20.4375V27.1406C1.51562 27.8906 2.17188 28.5469 2.92188 28.5469H9.57812C9.8125 28.5469 10 28.3594 10 28.125V26.9062C10 26.7188 9.8125 26.5312 9.57812 26.5312H7.32812C6.90625 26.5312 6.53125 26.25 6.34375 25.875C6.20312 25.5 6.29688 25.0312 6.57812 24.75L7.79688 23.4844C8.40625 22.9219 9.20312 22.5938 10.0469 22.5938H12.5312C12.7656 22.5938 12.9062 22.4062 12.9062 22.2188V21.1875C12.9062 20.9531 12.7656 20.8125 12.5312 20.8125H9.25C8.45312 20.8125 7.65625 21.1406 7.04688 21.7031L5.3125 23.4844C4.98438 23.7656 4.51562 23.8594 4.14062 23.6719C3.71875 23.5312 3.48438 23.1562 3.48438 22.7344V20.4375C3.48438 20.25 3.29688 20.0625 3.10938 20.0625H1.89062ZM21.1562 18.1875H19.9375C19.0469 18.1875 18.2969 17.4375 18.2969 16.5V14.7188L16.8906 16.1719C16.0469 16.9688 14.9688 17.4375 13.7969 17.4375H10.5156C9.625 17.4375 8.875 16.7344 8.875 15.7969V14.7656C8.875 13.875 9.625 13.125 10.5156 13.125H13.0469C13.5156 13.125 13.9844 12.9375 14.3594 12.6094L15.25 11.6719H13.4688C12.5781 11.6719 11.8281 10.9688 11.8281 10.0312V8.8125C11.8281 7.92188 12.5781 7.17188 13.4688 7.17188H20.125C21.5781 7.17188 22.7969 8.39062 22.7969 9.84375V16.5C22.7969 17.4375 22.0469 18.1406 21.1562 18.1406V18.1875ZM18.5312 13.2188C18.6719 13.2188 18.8125 13.2188 18.9062 13.2656C19.3281 13.4531 19.5625 13.8281 19.5625 14.25V16.5469C19.5625 16.7344 19.75 16.9219 19.9844 16.9219H21.2031C21.3906 16.9219 21.5781 16.7344 21.5781 16.5469V9.84375C21.5781 9.09375 20.9688 8.4375 20.1719 8.4375H13.5156C13.2812 8.4375 13.1406 8.625 13.1406 8.8125V10.0312C13.1406 10.2656 13.2812 10.4531 13.5156 10.4531H15.7656C16.1875 10.4531 16.5625 10.6875 16.75 11.1094C16.8906 11.4844 16.8438 11.9531 16.5156 12.2344L15.2969 13.4531C14.6875 14.0625 13.9375 14.3906 13.0938 14.3906H10.5625C10.3281 14.3906 10.1875 14.5312 10.1875 14.7656V15.7969C10.1875 16.0312 10.375 16.1719 10.5625 16.1719H13.8438C14.6875 16.1719 15.4375 15.8438 16.0469 15.2812L17.8281 13.5C18.0156 13.3125 18.25 13.2188 18.5312 13.2188Z" fill="black" fill-opacity="0.72"/>
</g>
<defs>
<clipPath id="clip0_5147_515">
<rect width="23" height="36" fill="white"/>
</clipPath>
</defs>
</svg>
