<svg width="25" height="30" viewBox="0 0 25 30" fill="none" xmlns="http://www.w3.org/2000/svg">
<g id="label-paired / lg / circle-user-slash-lg / bold" clip-path="url(#clip0_2365_772)">
<path id="icon" d="M0.195312 5.89062C0.507812 5.46094 1.09375 5.38281 1.48438 5.73438L5.23438 8.625C7.10938 6.67188 9.6875 5.5 12.5 5.5C16.0547 5.5 19.375 7.41406 21.1328 10.5C22.9297 13.625 22.9297 17.4141 21.1328 20.5C21.0547 20.6562 20.9766 20.7734 20.8984 20.9297L24.6094 23.8594C25.0391 24.1719 25.1172 24.7578 24.7656 25.1484C24.4531 25.5781 23.8672 25.6562 23.4766 25.3047L0.351562 7.17969C-0.078125 6.86719 -0.15625 6.28125 0.195312 5.89062ZM3.20312 11.7891L4.76562 13.0391C4.49219 13.8203 4.375 14.6406 4.375 15.5C4.375 17.6875 5.19531 19.6797 6.60156 21.125C7.34375 19.3281 9.0625 18.0781 11.0938 18.0391L13.4766 19.875H11.25C9.72656 19.875 8.4375 20.9688 8.16406 22.4141C9.41406 23.1953 10.8984 23.625 12.5 23.625C14.0234 23.625 15.4688 23.1953 16.7188 22.4531L18.2812 23.6641C16.6016 24.8359 14.6094 25.5 12.5 25.5C8.90625 25.5 5.625 23.625 3.82812 20.5C2.26562 17.8438 2.07031 14.6406 3.20312 11.7891ZM6.71875 9.79688L9.375 11.8672C9.64844 11.2422 10.1562 10.7344 10.7812 10.3438C11.8359 9.75781 13.125 9.75781 14.2188 10.3438C15.2734 10.9688 15.9375 12.1016 15.9375 13.3125C15.9375 14.3672 15.4297 15.3828 14.6484 16.0078L19.4141 19.7578C20.1562 18.5078 20.625 17.0625 20.625 15.5C20.625 11.0469 16.9531 7.375 12.5 7.375C10.2344 7.375 8.16406 8.3125 6.71875 9.79688ZM10.9375 13.1172L13.0469 14.7969C13.3984 14.6406 13.6719 14.4062 13.8281 14.1328C14.1016 13.625 14.1016 13.0391 13.8281 12.5703C13.5547 12.0625 13.0469 11.7891 12.5 11.7891C11.9141 11.7891 11.4062 12.0625 11.1328 12.5703C11.0156 12.7266 10.9766 12.9219 10.9375 13.1172Z" fill="black" fill-opacity="0.72"/>
</g>
<defs>
<clipPath id="clip0_2365_772">
<rect width="25" height="30" fill="white"/>
</clipPath>
</defs>
</svg>
