<svg width="20" height="30" viewBox="0 0 20 30" fill="none" xmlns="http://www.w3.org/2000/svg">
<g id="label-paired / lg / wallet-lg / regular" clip-path="url(#clip0_2556_16947)">
<path id="icon" d="M3.125 6.75H18.125C18.4375 6.75 18.75 7.0625 18.75 7.375C18.75 7.72656 18.4375 8 18.125 8H3.125C2.07031 8 1.25 8.85938 1.25 9.875V21.125C1.25 22.1797 2.07031 23 3.125 23H16.875C17.8906 23 18.75 22.1797 18.75 21.125V12.375C18.75 11.3594 17.8906 10.5 16.875 10.5H4.375C4.02344 10.5 3.75 10.2266 3.75 9.875C3.75 9.5625 4.02344 9.25 4.375 9.25H16.875C18.5938 9.25 20 10.6562 20 12.375V21.125C20 22.8828 18.5938 24.25 16.875 24.25H3.125C1.36719 24.25 0 22.8828 0 21.125V9.875C0 8.15625 1.36719 6.75 3.125 6.75ZM15 17.6875C14.4531 17.6875 14.0625 17.2969 14.0625 16.75C14.0625 16.2422 14.4531 15.8125 15 15.8125C15.5078 15.8125 15.9375 16.2422 15.9375 16.75C15.9375 17.2969 15.5078 17.6875 15 17.6875Z" fill="black" fill-opacity="0.72"/>
</g>
<defs>
<clipPath id="clip0_2556_16947">
<rect width="20" height="30" fill="white"/>
</clipPath>
</defs>
</svg>
