<svg width="18" height="24" viewBox="0 0 18 24" fill="none" xmlns="http://www.w3.org/2000/svg">
<g id="label-paired / md / folder-open-md / bold" clip-path="url(#clip0_3431_865)">
<path id="icon" d="M12 19H2.71875H2C0.875 19 0 18.125 0 17V7C0 5.90625 0.875 5 2 5H5.65625C6.1875 5 6.6875 5.21875 7.0625 5.59375L7.90625 6.4375C8.28125 6.8125 8.78125 7 9.3125 7H13C14.0938 7 15 7.90625 15 9V10H13.5V9C13.5 8.75 13.25 8.5 13 8.5H9.3125C8.375 8.5 7.5 8.15625 6.84375 7.5L6 6.65625C5.90625 6.5625 5.78125 6.5 5.65625 6.5H2C1.71875 6.5 1.5 6.75 1.5 7V15.1875L3.625 11.5C3.8125 11.1875 4.125 11 4.5 11H17C17.3438 11 17.6875 11.1875 17.8438 11.5C18.0312 11.8125 18.0312 12.2188 17.8438 12.5312L14.3438 18.5312C14.1562 18.8125 13.8438 19 13.5 19H12Z" fill="black" fill-opacity="0.72"/>
</g>
<defs>
<clipPath id="clip0_3431_865">
<rect width="18" height="24" fill="white"/>
</clipPath>
</defs>
</svg>
