<svg width="12" height="18" viewBox="0 0 12 18" fill="none" xmlns="http://www.w3.org/2000/svg">
<g id="label-paired / caption / life-ring-caption / regular" clip-path="url(#clip0_2556_10554)">
<path id="icon" d="M9.42188 13.4844L7.28906 11.3516C6.91406 11.6094 6.46875 11.75 6 11.75C5.50781 11.75 5.0625 11.6094 4.6875 11.3516L2.55469 13.4844C3.46875 14.2812 4.66406 14.75 6 14.75C7.3125 14.75 8.50781 14.2812 9.42188 13.4844ZM9.96094 12.9453C10.7578 12.0312 11.25 10.8359 11.25 9.5C11.25 8.1875 10.7578 6.99219 9.96094 6.07812L7.82812 8.21094C8.08594 8.58594 8.25 9.03125 8.25 9.5C8.25 9.99219 8.08594 10.4375 7.82812 10.8125L9.96094 12.9453ZM10.5 13.4844L10.7578 13.7422C10.8984 13.8828 10.8984 14.1406 10.7578 14.2812C10.6172 14.4219 10.3594 14.4219 10.2188 14.2812L9.96094 14C8.90625 14.9375 7.52344 15.5 6 15.5C4.47656 15.5 3.07031 14.9375 2.01562 14L1.75781 14.2812C1.61719 14.4219 1.35938 14.4219 1.21875 14.2812C1.07812 14.1406 1.07812 13.8828 1.21875 13.7422L1.5 13.4844C0.5625 12.4297 0 11.0234 0 9.5C0 8 0.5625 6.59375 1.5 5.53906L1.21875 5.28125C1.07812 5.14062 1.07812 4.88281 1.21875 4.74219C1.35938 4.60156 1.61719 4.60156 1.75781 4.74219L2.01562 5C3.07031 4.08594 4.47656 3.5 6 3.5C7.5 3.5 8.90625 4.08594 9.96094 5L10.2188 4.74219C10.3594 4.60156 10.6172 4.60156 10.7578 4.74219C10.8984 4.88281 10.8984 5.14062 10.7578 5.28125L10.5 5.53906C11.4141 6.59375 12 7.97656 12 9.5C12 11.0234 11.4141 12.4297 10.5 13.4844ZM9.42188 5.53906C8.50781 4.74219 7.3125 4.25 6 4.25C4.66406 4.25 3.46875 4.74219 2.55469 5.53906L4.6875 7.67188C5.0625 7.41406 5.50781 7.25 6 7.25C6.46875 7.25 6.91406 7.41406 7.28906 7.67188L9.42188 5.53906ZM4.14844 10.8125C3.89062 10.4375 3.75 9.99219 3.75 9.5C3.75 9.03125 3.89062 8.58594 4.14844 8.21094L2.01562 6.07812C1.21875 6.99219 0.75 8.1875 0.75 9.5C0.75 10.8359 1.21875 12.0312 2.01562 12.9453L4.14844 10.8125ZM4.5 9.5C4.5 10.0391 4.78125 10.5312 5.25 10.8125C5.69531 11.0703 6.28125 11.0703 6.75 10.8125C7.19531 10.5312 7.5 10.0391 7.5 9.5C7.5 8.98438 7.19531 8.49219 6.75 8.21094C6.28125 7.95312 5.69531 7.95312 5.25 8.21094C4.78125 8.49219 4.5 8.98438 4.5 9.5Z" fill="black" fill-opacity="0.72"/>
</g>
<defs>
<clipPath id="clip0_2556_10554">
<rect width="12" height="18" fill="white"/>
</clipPath>
</defs>
</svg>
