<svg width="18" height="24" viewBox="0 0 18 24" fill="none" xmlns="http://www.w3.org/2000/svg">
<g id="label-paired / md / desktop-md / regular" clip-path="url(#clip0_2981_926)">
<path id="icon" d="M16 5H2C1.4375 5 1 5.46875 1 6V12H17V6C17 5.46875 16.5312 5 16 5ZM18 12V13V15C18 16.125 17.0938 17 16 17H11.3125L11.6562 19H13.5C13.75 19 14 19.25 14 19.5C14 19.7812 13.75 20 13.5 20H11.25H6.75H4.5C4.21875 20 4 19.7812 4 19.5C4 19.25 4.21875 19 4.5 19H6.3125L6.65625 17H2C0.875 17 0 16.125 0 15V13V12V6C0 4.90625 0.875 4 2 4H16C17.0938 4 18 4.90625 18 6V12ZM1 13V15C1 15.5625 1.4375 16 2 16H7.21875H7.25H10.7188H10.75H16C16.5312 16 17 15.5625 17 15V13H1ZM7.3125 19H10.6562L10.3125 17H7.65625L7.3125 19Z" fill="black" fill-opacity="0.72"/>
</g>
<defs>
<clipPath id="clip0_2981_926">
<rect width="18" height="24" fill="white"/>
</clipPath>
</defs>
</svg>
