<svg width="27" height="36" viewBox="0 0 27 36" fill="none" xmlns="http://www.w3.org/2000/svg">
<g id="label-paired / xl / star-xl / fill" clip-path="url(#clip0_2556_19992)">
<path id="icon" d="M14.8125 6.84375L17.8594 13.0781L24.5625 14.0625C25.125 14.1562 25.5938 14.5312 25.7812 15.0938C25.9688 15.6094 25.8281 16.2188 25.4062 16.5938L20.5312 21.4219L21.7031 28.2656C21.7969 28.8281 21.5625 29.3906 21.0938 29.7188C20.625 30.0938 20.0156 30.0938 19.5 29.8594L13.5 26.625L7.45312 29.8594C6.98438 30.0938 6.375 30.0938 5.90625 29.7188C5.4375 29.3906 5.20312 28.8281 5.29688 28.2656L6.42188 21.4219L1.54688 16.5938C1.17188 16.2188 1.03125 15.6094 1.17188 15.0938C1.35938 14.5312 1.82812 14.1562 2.39062 14.0625L9.14062 13.0781L12.1406 6.84375C12.375 6.32812 12.8906 6 13.5 6C14.0625 6 14.5781 6.32812 14.8125 6.84375Z" fill="black" fill-opacity="0.72"/>
</g>
<defs>
<clipPath id="clip0_2556_19992">
<rect width="27" height="36" fill="white"/>
</clipPath>
</defs>
</svg>
