<svg width="11" height="18" viewBox="0 0 11 18" fill="none" xmlns="http://www.w3.org/2000/svg">
<g id="label-paired / caption / bars-filter-caption / regular" clip-path="url(#clip0_2556_10185)">
<path id="icon" d="M0.25 5.375C0.25 5.1875 0.414062 5 0.625 5H10.375C10.5625 5 10.75 5.1875 10.75 5.375C10.75 5.58594 10.5625 5.75 10.375 5.75H0.625C0.414062 5.75 0.25 5.58594 0.25 5.375ZM1.75 9.125C1.75 8.9375 1.91406 8.75 2.125 8.75H8.875C9.0625 8.75 9.25 8.9375 9.25 9.125C9.25 9.33594 9.0625 9.5 8.875 9.5H2.125C1.91406 9.5 1.75 9.33594 1.75 9.125ZM7 12.875C7 13.0859 6.8125 13.25 6.625 13.25H4.375C4.16406 13.25 4 13.0859 4 12.875C4 12.6875 4.16406 12.5 4.375 12.5H6.625C6.8125 12.5 7 12.6875 7 12.875Z" fill="black" fill-opacity="0.72"/>
</g>
<defs>
<clipPath id="clip0_2556_10185">
<rect width="11" height="18" fill="white"/>
</clipPath>
</defs>
</svg>
