<svg width="14" height="22" viewBox="0 0 14 22" fill="none" xmlns="http://www.w3.org/2000/svg">
<g id="label-paired / sm / circle-zero-sm / fill" clip-path="url(#clip0_2556_12427)">
<path id="icon" d="M7 17.75C4.48438 17.75 2.1875 16.4375 0.929688 14.25C-0.328125 12.0898 -0.328125 9.4375 0.929688 7.25C2.1875 5.08984 4.48438 3.75 7 3.75C9.48828 3.75 11.7852 5.08984 13.043 7.25C14.3008 9.4375 14.3008 12.0898 13.043 14.25C11.7852 16.4375 9.48828 17.75 7 17.75ZM7 7.25C5.55078 7.25 4.375 8.42578 4.375 9.875V11.625C4.375 13.0742 5.55078 14.25 7 14.25C8.44922 14.25 9.625 13.0742 9.625 11.625V9.875C9.625 8.42578 8.44922 7.25 7 7.25ZM5.6875 9.875C5.6875 9.16406 6.26172 8.5625 7 8.5625C7.71094 8.5625 8.3125 9.16406 8.3125 9.875V11.625C8.3125 12.3633 7.71094 12.9375 7 12.9375C6.26172 12.9375 5.6875 12.3633 5.6875 11.625V9.875Z" fill="black" fill-opacity="0.72"/>
</g>
<defs>
<clipPath id="clip0_2556_12427">
<rect width="14" height="22" fill="white"/>
</clipPath>
</defs>
</svg>
