<svg width="20" height="30" viewBox="0 0 20 30" fill="none" xmlns="http://www.w3.org/2000/svg">
<g id="label-paired / lg / table-layout-lg / bold" clip-path="url(#clip0_2556_17004)">
<path id="icon" d="M17.5 8.625H2.5C2.14844 8.625 1.875 8.9375 1.875 9.25V11.75H18.125V9.25C18.125 8.9375 17.8125 8.625 17.5 8.625ZM1.875 21.75C1.875 22.1016 2.14844 22.375 2.5 22.375H5.625V13.625H1.875V21.75ZM7.5 22.375H17.5C17.8125 22.375 18.125 22.1016 18.125 21.75V13.625H7.5V22.375ZM2.5 6.75H17.5C18.8672 6.75 20 7.88281 20 9.25V21.75C20 23.1562 18.8672 24.25 17.5 24.25H2.5C1.09375 24.25 0 23.1562 0 21.75V9.25C0 7.88281 1.09375 6.75 2.5 6.75Z" fill="black" fill-opacity="0.72"/>
</g>
<defs>
<clipPath id="clip0_2556_17004">
<rect width="20" height="30" fill="white"/>
</clipPath>
</defs>
</svg>
