<svg width="16" height="24" viewBox="0 0 16 24" fill="none" xmlns="http://www.w3.org/2000/svg">
<g id="label-paired / md / chart-area-md / regular" clip-path="url(#clip0_2556_14780)">
<path id="icon" d="M1 5.5V16.5C1 17.3438 1.65625 18 2.5 18H15.5C15.75 18 16 18.25 16 18.5C16 18.7812 15.75 19 15.5 19H2.5C1.09375 19 0 17.9062 0 16.5V5.5C0 5.25 0.21875 5 0.5 5C0.75 5 1 5.25 1 5.5ZM9.28125 10.7188L7 8.4375L4.125 11.2812C4.03125 11.375 4 11.5 4 11.625V15H14V12.0625C14 11.9375 13.9375 11.8438 13.875 11.75L11.9375 9.46875L10.6875 10.7188C10.5 10.9062 10.25 11 10 11C9.71875 11 9.46875 10.9062 9.28125 10.7188ZM9.28125 9.3125L10 10L10.6875 9.3125L11.2188 8.78125C11.625 8.375 12.3125 8.40625 12.6875 8.84375L14.625 11.0938C14.8438 11.375 15 11.7188 15 12.0625V15C15 15.5625 14.5312 16 14 16H4C3.4375 16 3 15.5625 3 15V11.625C3 11.25 3.15625 10.8438 3.4375 10.5625L6.28125 7.71875C6.65625 7.34375 7.3125 7.34375 7.6875 7.71875L9.28125 9.3125Z" fill="black" fill-opacity="0.72"/>
</g>
<defs>
<clipPath id="clip0_2556_14780">
<rect width="16" height="24" fill="white"/>
</clipPath>
</defs>
</svg>
