<svg width="13" height="30" viewBox="0 0 13 30" fill="none" xmlns="http://www.w3.org/2000/svg">
<g id="label-paired / lg / question-lg / fill" clip-path="url(#clip0_3578_658)">
<path id="icon" d="M3.375 11.75C3.375 12.4531 2.78906 13 2.125 13C1.42188 13 0.875 12.4531 0.875 11.75C0.875 9.01562 3.10156 6.75 5.875 6.75H7.125C9.85938 6.75 12.125 9.01562 12.125 11.75V11.9062C12.125 13.625 11.2266 15.1875 9.82031 16.125L8.17969 17.1797C7.90625 17.3359 7.75 17.6484 7.75 17.9609V18C7.75 18.7031 7.16406 19.25 6.5 19.25C5.79688 19.25 5.25 18.7031 5.25 18V17.9609C5.25 16.7891 5.83594 15.6953 6.8125 15.0703L8.45312 14.0156C9.15625 13.5469 9.625 12.7656 9.625 11.9062V11.75C9.625 10.3828 8.49219 9.25 7.125 9.25H5.875C4.46875 9.25 3.375 10.3828 3.375 11.75ZM6.5 24.25C5.91406 24.25 5.40625 23.9766 5.13281 23.4688C4.85938 23 4.85938 22.4141 5.13281 21.9062C5.40625 21.4375 5.91406 21.125 6.5 21.125C7.04688 21.125 7.55469 21.4375 7.82812 21.9062C8.10156 22.4141 8.10156 23 7.82812 23.4688C7.55469 23.9766 7.04688 24.25 6.5 24.25Z" fill="black" fill-opacity="0.72"/>
</g>
<defs>
<clipPath id="clip0_3578_658">
<rect width="13" height="30" fill="white"/>
</clipPath>
</defs>
</svg>
