<svg width="20" height="24" viewBox="0 0 20 24" fill="none" xmlns="http://www.w3.org/2000/svg">
<g id="label-paired / md / passkey-md / regular" clip-path="url(#clip0_2556_15039)">
<path id="icon" d="M7.90625 12.5C8.375 12.4375 8.84375 12.4062 9.3125 12.4062C9.5625 12.4062 9.8125 12.4062 10.0312 12.4375C10.2812 12.4375 10.5 12.4688 10.75 12.5C10.75 12.5 10.75 12.5 10.7812 12.5C10.7188 13.2188 10.8438 13.9062 11.1562 14.5625C11.5 15.1875 11.9688 15.7188 12.5625 16.0938V18.1875H3.40625V15.7188C3.40625 15.25 3.53125 14.8125 3.8125 14.4062C4.0625 14 4.375 13.6875 4.8125 13.4688C5.53125 13.125 6.25 12.8438 7.03125 12.6875C7.3125 12.5938 7.625 12.5312 7.90625 12.5ZM4.65625 14.9375L9.78125 13.4062C9.625 13.4062 9.46875 13.4062 9.3125 13.4062C8.625 13.4062 7.9375 13.4688 7.25 13.6562C6.5625 13.8125 5.90625 14.0625 5.25 14.375C5 14.5 4.8125 14.6875 4.65625 14.9375ZM9.78125 13.4062L4.65625 14.9375C4.5 15.1875 4.40625 15.4375 4.40625 15.7188V17.1875H11.5625V16.5938C11.0312 16.1875 10.5938 15.625 10.2812 15C10.0312 14.5 9.84375 13.9688 9.78125 13.4062ZM8.03125 11.4688C7.65625 11.3125 7.34375 11.0938 7.03125 10.7812C6.40625 10.1562 6.09375 9.375 6.09375 8.5C6.09375 7.625 6.40625 6.84375 7.03125 6.21875C7.65625 5.59375 8.4375 5.28125 9.3125 5.28125C10.2188 5.28125 10.9688 5.59375 11.5938 6.21875C12.25 6.84375 12.5625 7.625 12.5625 8.5C12.5625 9.375 12.25 10.1562 11.5938 10.7812C11.3125 11.0938 10.9688 11.3125 10.625 11.4688C10.4375 11.5312 10.2812 11.5938 10.0938 11.6562C9.84375 11.6875 9.59375 11.7188 9.3125 11.7188C8.84375 11.7188 8.4375 11.6562 8.03125 11.4688ZM7.75 10.0625C8.1875 10.5312 8.6875 10.7188 9.3125 10.7188C9.9375 10.7188 10.4375 10.5312 10.9062 10.0625C11.3438 9.625 11.5625 9.125 11.5625 8.5C11.5625 7.875 11.3438 7.375 10.9062 6.9375C10.4375 6.5 9.9375 6.28125 9.3125 6.28125C8.6875 6.28125 8.1875 6.5 7.75 6.9375C7.28125 7.375 7.09375 7.875 7.09375 8.5C7.09375 9.125 7.28125 9.625 7.75 10.0625ZM15.0312 19.7812L16.5 18.3125L15.375 17.2188L16.5 16.125L15.5938 15.1875C16.0938 15 16.4688 14.6875 16.7812 14.2812C17.0625 13.8438 17.2188 13.375 17.2188 12.8125C17.2188 12.125 16.9688 11.5 16.4688 11C15.9688 10.5 15.375 10.25 14.6562 10.25C13.9375 10.25 13.3438 10.5 12.8438 11C12.3438 11.5 12.0938 12.0938 12.0938 12.8125C12.0938 13.4062 12.25 13.9062 12.5938 14.375C12.9375 14.8125 13.375 15.125 13.9062 15.2812V18.6875L15.0312 19.7812ZM14.6562 13.1875C14.375 13.1875 14.125 13.0625 13.9688 12.8438C13.8438 12.5938 13.8438 12.3125 13.9688 12.0625C14.125 11.8438 14.375 11.6875 14.6562 11.7188C14.9375 11.6875 15.1875 11.8438 15.3125 12.0625C15.4688 12.3125 15.4688 12.5938 15.3125 12.8438C15.1875 13.0625 14.9375 13.1875 14.6562 13.1875Z" fill="black" fill-opacity="0.72"/>
</g>
<defs>
<clipPath id="clip0_2556_15039">
<rect width="20" height="24" fill="white"/>
</clipPath>
</defs>
</svg>
