<svg width="21" height="36" viewBox="0 0 21 36" fill="none" xmlns="http://www.w3.org/2000/svg">
<g id="label-paired / xl / square-list-xl / regular" clip-path="url(#clip0_3004_448)">
<path id="icon" d="M3 9C2.15625 9 1.5 9.70312 1.5 10.5V25.5C1.5 26.3438 2.15625 27 3 27H18C18.7969 27 19.5 26.3438 19.5 25.5V10.5C19.5 9.70312 18.7969 9 18 9H3ZM0 10.5C0 8.85938 1.3125 7.5 3 7.5H18C19.6406 7.5 21 8.85938 21 10.5V25.5C21 27.1875 19.6406 28.5 18 28.5H3C1.3125 28.5 0 27.1875 0 25.5V10.5ZM4.875 13.5C4.875 12.8906 5.34375 12.375 6 12.375C6.60938 12.375 7.125 12.8906 7.125 13.5C7.125 14.1562 6.60938 14.625 6 14.625C5.34375 14.625 4.875 14.1562 4.875 13.5ZM9 13.5C9 13.125 9.32812 12.75 9.75 12.75H15.75C16.125 12.75 16.5 13.125 16.5 13.5C16.5 13.9219 16.125 14.25 15.75 14.25H9.75C9.32812 14.25 9 13.9219 9 13.5ZM9 18C9 17.625 9.32812 17.25 9.75 17.25H15.75C16.125 17.25 16.5 17.625 16.5 18C16.5 18.4219 16.125 18.75 15.75 18.75H9.75C9.32812 18.75 9 18.4219 9 18ZM9 22.5C9 22.125 9.32812 21.75 9.75 21.75H15.75C16.125 21.75 16.5 22.125 16.5 22.5C16.5 22.9219 16.125 23.25 15.75 23.25H9.75C9.32812 23.25 9 22.9219 9 22.5ZM6 19.125C5.34375 19.125 4.875 18.6562 4.875 18C4.875 17.3906 5.34375 16.875 6 16.875C6.60938 16.875 7.125 17.3906 7.125 18C7.125 18.6562 6.60938 19.125 6 19.125ZM4.875 22.5C4.875 21.8906 5.34375 21.375 6 21.375C6.60938 21.375 7.125 21.8906 7.125 22.5C7.125 23.1562 6.60938 23.625 6 23.625C5.34375 23.625 4.875 23.1562 4.875 22.5Z" fill="black" fill-opacity="0.72"/>
</g>
<defs>
<clipPath id="clip0_3004_448">
<rect width="21" height="36" fill="white"/>
</clipPath>
</defs>
</svg>
