<svg width="9" height="18" viewBox="0 0 9 18" fill="none" xmlns="http://www.w3.org/2000/svg">
<g id="label-paired / caption / mobile-screen-button-caption / bold" clip-path="url(#clip0_2556_10104)">
<path id="icon" d="M1.5 14C1.5 14.2109 1.66406 14.375 1.875 14.375H7.125C7.3125 14.375 7.5 14.2109 7.5 14V12.125H1.5V14ZM1.5 11H7.5V5C7.5 4.8125 7.3125 4.625 7.125 4.625H1.875C1.66406 4.625 1.5 4.8125 1.5 5V11ZM0.375 5C0.375 4.17969 1.03125 3.5 1.875 3.5H7.125C7.94531 3.5 8.625 4.17969 8.625 5V14C8.625 14.8438 7.94531 15.5 7.125 15.5H1.875C1.03125 15.5 0.375 14.8438 0.375 14V5ZM3.75 12.875H5.25C5.4375 12.875 5.625 13.0625 5.625 13.25C5.625 13.4609 5.4375 13.625 5.25 13.625H3.75C3.53906 13.625 3.375 13.4609 3.375 13.25C3.375 13.0625 3.53906 12.875 3.75 12.875Z" fill="black" fill-opacity="0.72"/>
</g>
<defs>
<clipPath id="clip0_2556_10104">
<rect width="9" height="18" fill="white"/>
</clipPath>
</defs>
</svg>
