<svg width="21" height="36" viewBox="0 0 21 36" fill="none" xmlns="http://www.w3.org/2000/svg">
<g id="label-paired / xl / objects-column-xl / fill" clip-path="url(#clip0_3431_1028)">
<path id="icon" d="M2.25 7.5H6.75C7.96875 7.5 9 8.53125 9 9.75V17.25C9 18.5156 7.96875 19.5 6.75 19.5H2.25C0.984375 19.5 0 18.5156 0 17.25V9.75C0 8.53125 0.984375 7.5 2.25 7.5ZM14.25 16.5H18.75C19.9688 16.5 21 17.5312 21 18.75V26.25C21 27.5156 19.9688 28.5 18.75 28.5H14.25C12.9844 28.5 12 27.5156 12 26.25V18.75C12 17.5312 12.9844 16.5 14.25 16.5ZM0 24.75C0 23.5312 0.984375 22.5 2.25 22.5H6.75C7.96875 22.5 9 23.5312 9 24.75V26.25C9 27.5156 7.96875 28.5 6.75 28.5H2.25C0.984375 28.5 0 27.5156 0 26.25V24.75ZM14.25 7.5H18.75C19.9688 7.5 21 8.53125 21 9.75V11.25C21 12.5156 19.9688 13.5 18.75 13.5H14.25C12.9844 13.5 12 12.5156 12 11.25V9.75C12 8.53125 12.9844 7.5 14.25 7.5Z" fill="black" fill-opacity="0.72"/>
</g>
<defs>
<clipPath id="clip0_3431_1028">
<rect width="21" height="36" fill="white"/>
</clipPath>
</defs>
</svg>
