<svg width="21" height="36" viewBox="0 0 21 36" fill="none" xmlns="http://www.w3.org/2000/svg">
<g id="label-paired / xl / objects-column-xl / bold" clip-path="url(#clip0_3431_1026)">
<path id="icon" d="M2.25 9.75V17.25H6.75V9.75H2.25ZM0 9.75C0 8.53125 0.984375 7.5 2.25 7.5H6.75C7.96875 7.5 9 8.53125 9 9.75V17.25C9 18.5156 7.96875 19.5 6.75 19.5H2.25C0.984375 19.5 0 18.5156 0 17.25V9.75ZM14.25 18.75V26.25H18.75V18.75H14.25ZM12 18.75C12 17.5312 12.9844 16.5 14.25 16.5H18.75C19.9688 16.5 21 17.5312 21 18.75V26.25C21 27.5156 19.9688 28.5 18.75 28.5H14.25C12.9844 28.5 12 27.5156 12 26.25V18.75ZM6.75 23.25H2.25V26.25H6.75V23.25ZM2.25 21H6.75C7.96875 21 9 22.0312 9 23.25V26.25C9 27.5156 7.96875 28.5 6.75 28.5H2.25C0.984375 28.5 0 27.5156 0 26.25V23.25C0 22.0312 0.984375 21 2.25 21ZM14.25 9.75V12.75H18.75V9.75H14.25ZM12 9.75C12 8.53125 12.9844 7.5 14.25 7.5H18.75C19.9688 7.5 21 8.53125 21 9.75V12.75C21 14.0156 19.9688 15 18.75 15H14.25C12.9844 15 12 14.0156 12 12.75V9.75Z" fill="black" fill-opacity="0.72"/>
</g>
<defs>
<clipPath id="clip0_3431_1026">
<rect width="21" height="36" fill="white"/>
</clipPath>
</defs>
</svg>
