<svg width="16" height="24" viewBox="0 0 16 24" fill="none" xmlns="http://www.w3.org/2000/svg">
<g id="label-paired / md / paste-md / bold" clip-path="url(#clip0_2556_14740)">
<path id="icon" d="M3.25 5.5C3.375 4.65625 4.09375 4 5 4C5.875 4 6.59375 4.65625 6.71875 5.5H8C8.90625 5.5 9.6875 6.15625 9.9375 7H8C7.09375 7 6.3125 7.40625 5.75 8H3.5C2.9375 8 2.5 7.5625 2.5 7H2C1.71875 7 1.5 7.25 1.5 7.5V16C1.5 16.2812 1.71875 16.5 2 16.5H5V18H2C0.875 18 0 17.125 0 16V7.5C0 6.40625 0.875 5.5 2 5.5H3.25ZM4.5 5.75C4.5 6.03125 4.71875 6.25 5 6.25C5.25 6.25 5.5 6.03125 5.5 5.75C5.5 5.5 5.25 5.25 5 5.25C4.71875 5.25 4.5 5.5 4.5 5.75ZM14 18.5C14.25 18.5 14.5 18.2812 14.5 18V11.625L12.375 9.5H8C7.71875 9.5 7.5 9.75 7.5 10V18C7.5 18.2812 7.71875 18.5 8 18.5H14ZM8 20C6.875 20 6 19.125 6 18V10C6 8.90625 6.875 8 8 8H12.375C12.75 8 13.1562 8.1875 13.4375 8.46875L15.5312 10.5625C15.8125 10.8438 16 11.25 16 11.625V18C16 19.125 15.0938 20 14 20H8Z" fill="black" fill-opacity="0.72"/>
</g>
<defs>
<clipPath id="clip0_2556_14740">
<rect width="16" height="24" fill="white"/>
</clipPath>
</defs>
</svg>
