<svg width="21" height="36" viewBox="0 0 21 36" fill="none" xmlns="http://www.w3.org/2000/svg">
<g id="label-paired / xl / grid-xl / regular" clip-path="url(#clip0_2556_19590)">
<path id="icon" d="M4.125 9H1.875C1.64062 9 1.5 9.1875 1.5 9.375V11.625C1.5 11.8594 1.64062 12 1.875 12H4.125C4.3125 12 4.5 11.8594 4.5 11.625V9.375C4.5 9.1875 4.3125 9 4.125 9ZM1.875 7.5H4.125C5.15625 7.5 6 8.34375 6 9.375V11.625C6 12.7031 5.15625 13.5 4.125 13.5H1.875C0.796875 13.5 0 12.7031 0 11.625V9.375C0 8.34375 0.796875 7.5 1.875 7.5ZM4.125 16.5H1.875C1.64062 16.5 1.5 16.6875 1.5 16.875V19.125C1.5 19.3594 1.64062 19.5 1.875 19.5H4.125C4.3125 19.5 4.5 19.3594 4.5 19.125V16.875C4.5 16.6875 4.3125 16.5 4.125 16.5ZM1.875 15H4.125C5.15625 15 6 15.8438 6 16.875V19.125C6 20.2031 5.15625 21 4.125 21H1.875C0.796875 21 0 20.2031 0 19.125V16.875C0 15.8438 0.796875 15 1.875 15ZM1.875 24C1.64062 24 1.5 24.1875 1.5 24.375V26.625C1.5 26.8594 1.64062 27 1.875 27H4.125C4.3125 27 4.5 26.8594 4.5 26.625V24.375C4.5 24.1875 4.3125 24 4.125 24H1.875ZM0 24.375C0 23.3438 0.796875 22.5 1.875 22.5H4.125C5.15625 22.5 6 23.3438 6 24.375V26.625C6 27.7031 5.15625 28.5 4.125 28.5H1.875C0.796875 28.5 0 27.7031 0 26.625V24.375ZM11.625 9H9.375C9.14062 9 9 9.1875 9 9.375V11.625C9 11.8594 9.14062 12 9.375 12H11.625C11.8125 12 12 11.8594 12 11.625V9.375C12 9.1875 11.8125 9 11.625 9ZM9.375 7.5H11.625C12.6562 7.5 13.5 8.34375 13.5 9.375V11.625C13.5 12.7031 12.6562 13.5 11.625 13.5H9.375C8.29688 13.5 7.5 12.7031 7.5 11.625V9.375C7.5 8.34375 8.29688 7.5 9.375 7.5ZM9.375 16.5C9.14062 16.5 9 16.6875 9 16.875V19.125C9 19.3594 9.14062 19.5 9.375 19.5H11.625C11.8125 19.5 12 19.3594 12 19.125V16.875C12 16.6875 11.8125 16.5 11.625 16.5H9.375ZM7.5 16.875C7.5 15.8438 8.29688 15 9.375 15H11.625C12.6562 15 13.5 15.8438 13.5 16.875V19.125C13.5 20.2031 12.6562 21 11.625 21H9.375C8.29688 21 7.5 20.2031 7.5 19.125V16.875ZM11.625 24H9.375C9.14062 24 9 24.1875 9 24.375V26.625C9 26.8594 9.14062 27 9.375 27H11.625C11.8125 27 12 26.8594 12 26.625V24.375C12 24.1875 11.8125 24 11.625 24ZM9.375 22.5H11.625C12.6562 22.5 13.5 23.3438 13.5 24.375V26.625C13.5 27.7031 12.6562 28.5 11.625 28.5H9.375C8.29688 28.5 7.5 27.7031 7.5 26.625V24.375C7.5 23.3438 8.29688 22.5 9.375 22.5ZM16.875 9C16.6406 9 16.5 9.1875 16.5 9.375V11.625C16.5 11.8594 16.6406 12 16.875 12H19.125C19.3125 12 19.5 11.8594 19.5 11.625V9.375C19.5 9.1875 19.3125 9 19.125 9H16.875ZM15 9.375C15 8.34375 15.7969 7.5 16.875 7.5H19.125C20.1562 7.5 21 8.34375 21 9.375V11.625C21 12.7031 20.1562 13.5 19.125 13.5H16.875C15.7969 13.5 15 12.7031 15 11.625V9.375ZM19.125 16.5H16.875C16.6406 16.5 16.5 16.6875 16.5 16.875V19.125C16.5 19.3594 16.6406 19.5 16.875 19.5H19.125C19.3125 19.5 19.5 19.3594 19.5 19.125V16.875C19.5 16.6875 19.3125 16.5 19.125 16.5ZM16.875 15H19.125C20.1562 15 21 15.8438 21 16.875V19.125C21 20.2031 20.1562 21 19.125 21H16.875C15.7969 21 15 20.2031 15 19.125V16.875C15 15.8438 15.7969 15 16.875 15ZM16.875 24C16.6406 24 16.5 24.1875 16.5 24.375V26.625C16.5 26.8594 16.6406 27 16.875 27H19.125C19.3125 27 19.5 26.8594 19.5 26.625V24.375C19.5 24.1875 19.3125 24 19.125 24H16.875ZM15 24.375C15 23.3438 15.7969 22.5 16.875 22.5H19.125C20.1562 22.5 21 23.3438 21 24.375V26.625C21 27.7031 20.1562 28.5 19.125 28.5H16.875C15.7969 28.5 15 27.7031 15 26.625V24.375Z" fill="black" fill-opacity="0.72"/>
</g>
<defs>
<clipPath id="clip0_2556_19590">
<rect width="21" height="36" fill="white"/>
</clipPath>
</defs>
</svg>
