<svg width="27" height="36" viewBox="0 0 27 36" fill="none" xmlns="http://www.w3.org/2000/svg">
<g id="label-paired / xl / credit-card-xl / regular" clip-path="url(#clip0_2556_19296)">
<path id="icon" d="M3 9C2.15625 9 1.5 9.70312 1.5 10.5V12H25.5V10.5C25.5 9.70312 24.7969 9 24 9H3ZM1.5 13.5V16.5H25.5V13.5H1.5ZM1.5 18V25.5C1.5 26.3438 2.15625 27 3 27H24C24.7969 27 25.5 26.3438 25.5 25.5V18H1.5ZM0 10.5C0 8.85938 1.3125 7.5 3 7.5H24C25.6406 7.5 27 8.85938 27 10.5V25.5C27 27.1875 25.6406 28.5 24 28.5H3C1.3125 28.5 0 27.1875 0 25.5V10.5ZM4.5 23.25C4.5 22.875 4.82812 22.5 5.25 22.5H8.25C8.625 22.5 9 22.875 9 23.25C9 23.6719 8.625 24 8.25 24H5.25C4.82812 24 4.5 23.6719 4.5 23.25ZM10.5 23.25C10.5 22.875 10.8281 22.5 11.25 22.5H17.25C17.625 22.5 18 22.875 18 23.25C18 23.6719 17.625 24 17.25 24H11.25C10.8281 24 10.5 23.6719 10.5 23.25Z" fill="black" fill-opacity="0.72"/>
</g>
<defs>
<clipPath id="clip0_2556_19296">
<rect width="27" height="36" fill="white"/>
</clipPath>
</defs>
</svg>
