<svg width="14" height="22" viewBox="0 0 14 22" fill="none" xmlns="http://www.w3.org/2000/svg">
<g id="label-paired / sm / circle-arrow-right-sm / regular" clip-path="url(#clip0_2556_12609)">
<path id="icon" d="M13.125 10.75C13.125 8.5625 11.9492 6.56641 10.0625 5.47266C8.14844 4.35156 5.82422 4.35156 3.9375 5.47266C2.02344 6.56641 0.875 8.5625 0.875 10.75C0.875 12.9648 2.02344 14.9609 3.9375 16.0547C5.82422 17.1758 8.14844 17.1758 10.0625 16.0547C11.9492 14.9609 13.125 12.9648 13.125 10.75ZM0 10.75C0 8.26172 1.3125 5.96484 3.5 4.70703C5.66016 3.44922 8.3125 3.44922 10.5 4.70703C12.6602 5.96484 14 8.26172 14 10.75C14 13.2656 12.6602 15.5625 10.5 16.8203C8.3125 18.0781 5.66016 18.0781 3.5 16.8203C1.3125 15.5625 0 13.2656 0 10.75ZM7.73828 13.7031C7.57422 13.8672 7.27344 13.8672 7.10938 13.7031C6.94531 13.5391 6.94531 13.2383 7.10938 13.0742L8.99609 11.1875H3.9375C3.69141 11.1875 3.5 10.9961 3.5 10.75C3.5 10.5312 3.69141 10.3125 3.9375 10.3125H8.99609L7.10938 8.45312C6.94531 8.28906 6.94531 7.98828 7.10938 7.82422C7.27344 7.66016 7.57422 7.66016 7.73828 7.82422L10.3633 10.4492C10.5273 10.6133 10.5273 10.9141 10.3633 11.0781L7.73828 13.7031Z" fill="black" fill-opacity="0.72"/>
</g>
<defs>
<clipPath id="clip0_2556_12609">
<rect width="14" height="22" fill="white"/>
</clipPath>
</defs>
</svg>
