<svg width="10" height="24" viewBox="0 0 10 24" fill="none" xmlns="http://www.w3.org/2000/svg">
<g id="label-paired / md / five-md / bold" clip-path="url(#clip0_2556_14832)">
<path id="icon" d="M1 5.625C1.0625 5.28125 1.375 5 1.75 5H8.25C8.65625 5 9 5.34375 9 5.75C9 6.1875 8.65625 6.5 8.25 6.5H2.375L1.625 10.75H5.875C8.125 10.75 10 12.625 10 14.875C10 17.1562 8.125 19 5.875 19H2.875C1.75 19 0.6875 18.375 0.1875 17.3438L0.0625 17.0938C-0.125 16.7188 0.03125 16.2812 0.40625 16.0938C0.78125 15.9062 1.21875 16.0625 1.40625 16.4375L1.53125 16.6875C1.78125 17.1875 2.3125 17.5 2.875 17.5H5.875C7.3125 17.5 8.5 16.3438 8.5 14.875C8.5 13.4375 7.3125 12.25 5.875 12.25H0.75C0.5 12.25 0.3125 12.1562 0.15625 12C0.03125 11.8125 -0.03125 11.5938 0 11.375L1 5.625Z" fill="black" fill-opacity="0.72"/>
</g>
<defs>
<clipPath id="clip0_2556_14832">
<rect width="10" height="24" fill="white"/>
</clipPath>
</defs>
</svg>
