<svg width="18" height="36" viewBox="0 0 18 36" fill="none" xmlns="http://www.w3.org/2000/svg">
<g id="label-paired / xl / file-invoice-dollar-xl / regular" clip-path="url(#clip0_2556_19348)">
<path id="icon" d="M16.5 27V15H11.25C9.98438 15 9 14.0156 9 12.75V7.5H3C2.15625 7.5 1.5 8.20312 1.5 9V27C1.5 27.8438 2.15625 28.5 3 28.5H15C15.7969 28.5 16.5 27.8438 16.5 27ZM16.4531 13.5C16.4062 13.4062 16.3594 13.2656 16.2656 13.1719L10.8281 7.73438C10.7344 7.64062 10.5938 7.59375 10.5 7.54688V12.75C10.5 13.1719 10.8281 13.5 11.25 13.5H16.4531ZM0 9C0 7.35938 1.3125 6 3 6H10.3125C10.875 6 11.4844 6.28125 11.9062 6.70312L17.2969 12.0938C17.7188 12.5156 18 13.125 18 13.6875V27C18 28.6875 16.6406 30 15 30H3C1.3125 30 0 28.6875 0 27V9ZM3 9.75C3 9.375 3.32812 9 3.75 9H6.75C7.125 9 7.5 9.375 7.5 9.75C7.5 10.1719 7.125 10.5 6.75 10.5H3.75C3.32812 10.5 3 10.1719 3 9.75ZM3 12.75C3 12.375 3.32812 12 3.75 12H6.75C7.125 12 7.5 12.375 7.5 12.75C7.5 13.1719 7.125 13.5 6.75 13.5H3.75C3.32812 13.5 3 13.1719 3 12.75ZM9.75 17.4375V18.0938C10.125 18.1406 10.5 18.1875 10.8281 18.2812C11.25 18.375 11.4844 18.7969 11.3906 19.1719C11.2969 19.5938 10.875 19.8281 10.5 19.7344C9.98438 19.6406 9.46875 19.5469 8.95312 19.5469C8.57812 19.5 8.10938 19.5938 7.82812 19.7812C7.54688 19.9219 7.5 20.0625 7.5 20.2031C7.5 20.2969 7.5 20.3906 7.78125 20.5312C8.10938 20.7188 8.57812 20.8125 9.1875 21C9.70312 21.1406 10.3594 21.3281 10.875 21.6094C11.4375 21.8906 11.9531 22.4531 12 23.2969C12 24.1875 11.4844 24.75 10.875 25.125C10.5469 25.3125 10.125 25.4062 9.75 25.5V26.1094C9.75 26.5312 9.375 26.8594 9 26.8594C8.57812 26.8594 8.25 26.5312 8.25 26.1094V25.4531C7.73438 25.3594 7.21875 25.2188 6.79688 25.0781C6.70312 25.0312 6.60938 25.0312 6.51562 24.9844C6.14062 24.8906 5.90625 24.4688 6 24.0469C6.14062 23.6719 6.5625 23.4375 6.9375 23.5312C7.07812 23.5781 7.17188 23.625 7.26562 23.6719C7.92188 23.8594 8.4375 24 9 24C9.46875 24.0469 9.89062 23.9531 10.1719 23.8125C10.4062 23.6719 10.5 23.4844 10.5 23.2969C10.5 23.2031 10.4531 23.0625 10.1719 22.9219C9.84375 22.7344 9.375 22.5938 8.76562 22.4531L8.71875 22.4062C8.20312 22.2656 7.59375 22.125 7.07812 21.8438C6.5625 21.5625 6 21.0469 6 20.2031C6 19.3125 6.5625 18.75 7.125 18.4219C7.5 18.2344 7.875 18.1406 8.25 18.0938V17.4375C8.25 17.0156 8.57812 16.6875 9 16.6875C9.42188 16.6875 9.75 17.0156 9.75 17.4375Z" fill="black" fill-opacity="0.72"/>
</g>
<defs>
<clipPath id="clip0_2556_19348">
<rect width="18" height="36" fill="white"/>
</clipPath>
</defs>
</svg>
