<svg width="25" height="30" viewBox="0 0 25 30" fill="none" xmlns="http://www.w3.org/2000/svg">
<g id="label-paired / lg / volume-high-lg / regular" clip-path="url(#clip0_3758_673)">
<path id="icon" d="M5.89844 12.8438C5.78125 12.9609 5.625 13 5.50781 13H2.1875C1.64062 13 1.25 13.4297 1.25 13.9375V17.0625C1.25 17.6094 1.64062 18 2.1875 18H5.50781C5.625 18 5.78125 18.0781 5.89844 18.1562L11.25 22.9219V8.11719L5.89844 12.8438ZM11.3281 6.75C11.9531 6.75 12.5 7.29688 12.5 7.92188V23.1172C12.5 23.7422 11.9531 24.25 11.3281 24.25C11.0156 24.25 10.7422 24.1719 10.5469 23.9766L10.9766 23.5078L10.5469 23.9766L5.23438 19.25H2.1875C0.976562 19.25 0 18.2734 0 17.0625V13.9375C0 12.7656 0.976562 11.75 2.1875 11.75H5.23438L10.5469 7.0625C10.7422 6.86719 11.0156 6.75 11.3281 6.75ZM15.9766 12.5312C16.875 13.1953 17.5 14.2891 17.5 15.5C17.5 16.75 16.875 17.8438 15.9766 18.5078C15.7031 18.7422 15.3125 18.6641 15.1172 18.3906C14.8828 18.1172 14.9609 17.7266 15.2344 17.5312C15.8594 17.0625 16.25 16.3203 16.25 15.5C16.25 14.7188 15.8594 13.9766 15.2344 13.5078C14.9609 13.3125 14.8828 12.9219 15.1172 12.6484C15.3125 12.375 15.7031 12.2969 15.9766 12.5312ZM17.6172 9.79688C17.8516 9.5625 18.2422 9.52344 18.5156 9.71875C20.1562 11.125 21.25 13.1953 21.25 15.5C21.25 17.8438 20.1562 19.9141 18.5156 21.2812C18.2422 21.5156 17.8516 21.4766 17.6172 21.2031C17.4219 20.9688 17.4609 20.5391 17.6953 20.3438C19.1016 19.2109 20 17.4531 20 15.5C20 13.5859 19.1016 11.8281 17.6953 10.6953C17.4219 10.4609 17.4219 10.0703 17.6172 9.79688ZM21.0156 6.94531C23.4375 9.01562 25 12.0625 25 15.5C25 18.9375 23.4375 22.0234 21.0156 24.0938C20.7422 24.3281 20.3516 24.2891 20.1172 24.0156C19.8828 23.7422 19.9219 23.3516 20.1953 23.1562C22.3438 21.3203 23.7109 18.5859 23.7109 15.5C23.7109 12.4531 22.3438 9.71875 20.1953 7.88281C19.9219 7.64844 19.8828 7.25781 20.1172 7.02344C20.3516 6.75 20.7422 6.71094 21.0156 6.94531Z" fill="black" fill-opacity="0.72"/>
</g>
<defs>
<clipPath id="clip0_3758_673">
<rect width="25" height="30" fill="white"/>
</clipPath>
</defs>
</svg>
