<svg width="25" height="30" viewBox="0 0 25 30" fill="none" xmlns="http://www.w3.org/2000/svg">
<g id="label-paired / lg / circle-user-slash-lg / regular" clip-path="url(#clip0_2365_770)">
<path id="icon" d="M0.117188 5.77344C0.3125 5.5 0.742188 5.42188 0.976562 5.65625L24.7266 24.4062C25 24.6016 25.0781 24.9922 24.8438 25.2656C24.6484 25.5391 24.2578 25.5781 23.9844 25.3828L0.234375 6.63281C-0.0390625 6.4375 -0.078125 6.00781 0.117188 5.77344ZM3.32031 11.4766L4.33594 12.2969C3.94531 13.2734 3.75 14.3672 3.75 15.5C3.75 17.9609 4.76562 20.1875 6.36719 21.7891C6.91406 19.6406 8.90625 18 11.25 18H11.6016L13.2031 19.25H11.25C9.25781 19.25 7.65625 20.7734 7.5 22.7266C8.90625 23.7031 10.625 24.25 12.5 24.25C14.3359 24.25 16.0547 23.7031 17.4609 22.6875V22.7266C17.4609 22.6875 17.4609 22.6484 17.4609 22.6484L18.5156 23.4688C16.8359 24.7969 14.6875 25.5 12.5 25.5C8.90625 25.5 5.625 23.625 3.82812 20.5C2.22656 17.7266 2.07031 14.3672 3.32031 11.4766ZM6.44531 7.57031C8.125 6.24219 10.2734 5.5 12.5 5.5C16.0547 5.5 19.375 7.41406 21.1328 10.5C22.7344 13.3125 22.9297 16.6719 21.6406 19.5625L20.625 18.7422C21.0156 17.7656 21.25 16.6719 21.25 15.5C21.25 10.6953 17.3047 6.75 12.5 6.75C10.625 6.75 8.86719 7.375 7.46094 8.35156L6.44531 7.57031ZM10.8203 11.0078C10.8594 10.9688 10.8984 10.9688 10.9375 10.9297C11.875 10.3828 13.0859 10.3828 14.0625 10.9297C15 11.4766 15.625 12.5312 15.625 13.625C15.625 13.9766 15.5469 14.3281 15.4297 14.6797L14.3359 13.8203C14.375 13.4297 14.2969 13.0391 14.1016 12.6875C13.7891 12.1406 13.1641 11.75 12.5 11.75C12.2656 11.75 12.0703 11.7891 11.875 11.8672L10.8203 11.0078Z" fill="black" fill-opacity="0.72"/>
</g>
<defs>
<clipPath id="clip0_2365_770">
<rect width="25" height="30" fill="white"/>
</clipPath>
</defs>
</svg>
