<svg width="9" height="18" viewBox="0 0 9 18" fill="none" xmlns="http://www.w3.org/2000/svg">
<g id="label-paired / caption / arrow-down-to-line-caption / fill" clip-path="url(#clip0_2556_10547)">
<path id="icon" d="M0.75 14.75C0.328125 14.75 0 14.4219 0 14C0 13.6016 0.328125 13.25 0.75 13.25H8.25C8.64844 13.25 9 13.6016 9 14C9 14.4219 8.64844 14.75 8.25 14.75H0.75ZM5.01562 11.5391C4.73438 11.8438 4.24219 11.8438 3.96094 11.5391L0.960938 8.53906C0.65625 8.25781 0.65625 7.76562 0.960938 7.48438C1.24219 7.17969 1.73438 7.17969 2.01562 7.48438L3.75 9.19531V5C3.75 4.60156 4.07812 4.25 4.5 4.25C4.89844 4.25 5.25 4.60156 5.25 5V9.19531L6.96094 7.48438C7.24219 7.17969 7.73438 7.17969 8.01562 7.48438C8.32031 7.76562 8.32031 8.25781 8.01562 8.53906L5.01562 11.5391Z" fill="black" fill-opacity="0.72"/>
</g>
<defs>
<clipPath id="clip0_2556_10547">
<rect width="9" height="18" fill="white"/>
</clipPath>
</defs>
</svg>
