<svg width="11" height="22" viewBox="0 0 11 22" fill="none" xmlns="http://www.w3.org/2000/svg">
<g id="label-paired / sm / arrow-down-sm / bold" clip-path="url(#clip0_2556_12941)">
<path id="icon" d="M5.00781 16.6836L0.414062 11.8711C0.167969 11.5977 0.167969 11.1875 0.441406 10.9414C0.714844 10.6953 1.125 10.6953 1.37109 10.9688L4.84375 14.6055V5.28125C4.84375 4.92578 5.11719 4.625 5.5 4.625C5.85547 4.625 6.15625 4.92578 6.15625 5.28125V14.6055L9.60156 10.9688C9.84766 10.6953 10.2852 10.6953 10.5312 10.9414C10.8047 11.1875 10.8047 11.5977 10.5586 11.8711L5.96484 16.6836C5.82812 16.8203 5.66406 16.875 5.5 16.875C5.30859 16.875 5.14453 16.8203 5.00781 16.6836Z" fill="black" fill-opacity="0.72"/>
</g>
<defs>
<clipPath id="clip0_2556_12941">
<rect width="11" height="22" fill="white"/>
</clipPath>
</defs>
</svg>
