<svg width="16" height="24" viewBox="0 0 16 24" fill="none" xmlns="http://www.w3.org/2000/svg">
<g id="label-paired / md / phone-md / bold" clip-path="url(#clip0_2556_15322)">
<path id="icon" d="M11.7188 12.625L15.2188 14.125C15.7812 14.3438 16.0938 14.9375 15.9688 15.5312L15.2188 19.0312C15.0938 19.5938 14.5625 20.0312 14 20.0312C13.7812 20.0312 13.5938 20 13.4062 20C13.0938 20 12.7812 19.9688 12.5 19.9375C5.46875 19.1875 0 13.25 0 6C0 5.4375 0.40625 4.90625 0.96875 4.78125L4.46875 4.03125C5.0625 3.90625 5.65625 4.21875 5.875 4.78125L7.375 8.28125C7.59375 8.78125 7.46875 9.375 7.03125 9.71875L5.75 10.7812C6.59375 12.2188 7.78125 13.4062 9.21875 14.25L10.2812 12.9688C10.625 12.5312 11.2188 12.4062 11.7188 12.625ZM13.7812 18.5L14.4375 15.4062L11.3125 14.0625L10.4062 15.1875C9.9375 15.75 9.125 15.9062 8.46875 15.5312C6.8125 14.5625 5.4375 13.1875 4.46875 11.5312C4.09375 10.875 4.25 10.0625 4.8125 9.59375L5.9375 8.6875L4.59375 5.5625L1.5 6.21875C1.59375 12.9688 7.03125 18.4062 13.7812 18.5Z" fill="black" fill-opacity="0.72"/>
</g>
<defs>
<clipPath id="clip0_2556_15322">
<rect width="16" height="24" fill="white"/>
</clipPath>
</defs>
</svg>
