<svg width="21" height="36" viewBox="0 0 21 36" fill="none" xmlns="http://www.w3.org/2000/svg">
<g id="label-paired / xl / app-store-ios-xl" clip-path="url(#clip0_2556_19233)">
<path id="icon" d="M18.75 7.5C19.9688 7.5 21 8.53125 21 9.75V26.25C21 27.5156 19.9688 28.5 18.75 28.5H2.25C0.984375 28.5 0 27.5156 0 26.25V9.75C0 8.53125 0.984375 7.5 2.25 7.5H18.75ZM5.95312 24.0469L6.84375 22.5C6.375 21.8906 5.71875 21.7031 4.96875 21.9375L4.3125 23.1094C4.03125 23.5312 4.21875 24.1406 4.64062 24.375C5.10938 24.6562 5.67188 24.5156 5.95312 24.0469ZM12.4219 21.5156C12.8438 20.7656 12.3281 19.6406 11.3906 19.6406H8.48438L12.4688 12.6562C12.75 12.2344 12.6094 11.6719 12.1406 11.3906C11.7188 11.1562 11.1094 11.2969 10.875 11.7188L10.4531 12.4688L10.0312 11.7188C9.79688 11.2969 9.1875 11.1562 8.76562 11.3906C8.29688 11.6719 8.15625 12.2344 8.39062 12.6562L9.375 14.3438L6.32812 19.6406H3.9375C3.42188 19.6406 3 20.0625 3 20.5781C3 21.0938 3.42188 21.5156 3.9375 21.5156H12.4219ZM17.0625 21.5156C17.5781 21.5156 18 21.0938 18 20.5781C18 20.0625 17.5781 19.6406 17.0625 19.6406H14.625C13.3594 17.5312 12.4688 15.9375 11.8594 14.8594C11.2969 15.3281 10.7344 16.6875 11.5312 18.0469C12.2812 19.3594 13.4531 21.375 15 24.0469C15.2344 24.4688 15.7969 24.6562 16.2656 24.375C16.6875 24.1406 16.875 23.5781 16.5938 23.1094L15.7031 21.5156H17.0625Z" fill="black" fill-opacity="0.72"/>
</g>
<defs>
<clipPath id="clip0_2556_19233">
<rect width="21" height="36" fill="white"/>
</clipPath>
</defs>
</svg>
