<svg width="16" height="24" viewBox="0 0 16 24" fill="none" xmlns="http://www.w3.org/2000/svg">
<g id="label-paired / md / thumbs-up-md / regular" clip-path="url(#clip0_2355_595)">
<path id="icon" d="M9.03125 6.5625L8.875 7.0625C8.52083 8.35417 7.77083 9.375 6.625 10.125L6.53125 10.1875C6.28125 10.3333 6.07292 10.5312 5.90625 10.7812C5.69792 11.0104 5.46875 11.0521 5.21875 10.9062C4.96875 10.7188 4.92708 10.4896 5.09375 10.2188C5.32292 9.86458 5.625 9.57292 6 9.34375L6.09375 9.28125C7.01042 8.67708 7.61458 7.85417 7.90625 6.8125L8.0625 6.28125C8.20833 5.80208 8.47917 5.44792 8.875 5.21875C9.29167 4.98958 9.73958 4.9375 10.2188 5.0625C10.6771 5.20833 11.0312 5.47917 11.2812 5.875C11.5104 6.29167 11.5625 6.73958 11.4375 7.21875L11.3125 7.71875C11.1875 8.15625 11.0208 8.58333 10.8125 9H14C14.5625 9.02083 15.0312 9.21875 15.4062 9.59375C15.7812 9.96875 15.9792 10.4375 16 11C15.9792 11.5625 15.7812 12.0312 15.4062 12.4062C15.4688 12.5938 15.5 12.7917 15.5 13C15.4792 13.6042 15.2604 14.0938 14.8438 14.4688C14.9479 14.7188 15 14.9792 15 15.25C14.9583 16.0208 14.625 16.5938 14 16.9688V17C13.9792 17.5625 13.7812 18.0312 13.4062 18.4062C13.0312 18.7812 12.5625 18.9792 12 19H9.1875C8.5 19 7.85417 18.8021 7.25 18.4062L6.0625 17.625C5.66667 17.3542 5.33333 17.0208 5.0625 16.625C4.9375 16.3542 4.98958 16.125 5.21875 15.9375C5.48958 15.7917 5.71875 15.8333 5.90625 16.0625C6.09375 16.3542 6.33333 16.5938 6.625 16.7812L7.8125 17.5938C8.22917 17.8646 8.69792 18 9.21875 18H12C12.2917 18 12.5312 17.9062 12.7188 17.7188C12.9062 17.5312 13 17.2917 13 17C13 16.9167 12.9896 16.8438 12.9688 16.7812C12.9479 16.5104 13.0625 16.3229 13.3125 16.2188C13.75 16.0521 13.9792 15.7292 14 15.25C14 15.0208 13.9271 14.8229 13.7812 14.6562C13.6979 14.5312 13.6667 14.3854 13.6875 14.2188C13.7292 14.0729 13.8229 13.9688 13.9688 13.9062C14.3021 13.7188 14.4792 13.4167 14.5 13C14.5 12.8125 14.4583 12.6458 14.375 12.5C14.25 12.25 14.3021 12.0312 14.5312 11.8438C14.8229 11.6562 14.9792 11.375 15 11C15 10.7083 14.9062 10.4688 14.7188 10.2812C14.5312 10.0938 14.2917 10 14 10H9.96875C9.78125 10 9.63542 9.91667 9.53125 9.75C9.44792 9.58333 9.45833 9.41667 9.5625 9.25C9.89583 8.6875 10.1562 8.09375 10.3438 7.46875L10.4688 6.9375C10.5521 6.5 10.375 6.19792 9.9375 6.03125C9.5 5.94792 9.19792 6.125 9.03125 6.5625ZM1 11V18H3V11H1ZM0 11C0 10.7083 0.09375 10.4688 0.28125 10.2812C0.46875 10.0938 0.708333 10 1 10H3C3.29167 10 3.53125 10.0938 3.71875 10.2812C3.90625 10.4688 4 10.7083 4 11V18C4 18.2917 3.90625 18.5312 3.71875 18.7188C3.53125 18.9062 3.29167 19 3 19H1C0.708333 19 0.46875 18.9062 0.28125 18.7188C0.09375 18.5312 0 18.2917 0 18V11Z" fill="black" fill-opacity="0.72"/>
</g>
<defs>
<clipPath id="clip0_2355_595">
<rect width="16" height="24" fill="white"/>
</clipPath>
</defs>
</svg>
