<svg width="27" height="36" viewBox="0 0 27 36" fill="none" xmlns="http://www.w3.org/2000/svg">
<g id="label-paired / xl / pen-line-xl / regular" clip-path="url(#clip0_2556_19353)">
<path id="icon" d="M20.1094 7.875C19.6875 7.45312 18.9844 7.45312 18.5156 7.875L15.9844 10.4531L19.5469 14.0156L22.125 11.4844C22.5469 11.0156 22.5469 10.3125 22.125 9.89062L20.1094 7.875ZM3.89062 22.5469C3.51562 22.875 3.28125 23.3438 3.14062 23.8125L1.82812 28.1719L6.1875 26.9062C6.65625 26.7656 7.125 26.4844 7.45312 26.1094L18.5156 15.0938L14.9062 11.4844L3.89062 22.5469ZM17.4844 6.79688C18.5156 5.8125 20.1562 5.8125 21.1875 6.79688L23.2031 8.8125C24.1875 9.84375 24.1875 11.4844 23.2031 12.5156L8.53125 27.1875C7.96875 27.7031 7.3125 28.125 6.60938 28.3125L0.9375 30C0.65625 30.0938 0.375 30 0.1875 29.8125C0 29.625 -0.046875 29.3438 0 29.0625L1.6875 23.3906C1.875 22.6875 2.29688 22.0312 2.8125 21.4688L17.4844 6.79688ZM11.25 28.5H26.25C26.625 28.5 27 28.875 27 29.25C27 29.6719 26.625 30 26.25 30H11.25C10.8281 30 10.5 29.6719 10.5 29.25C10.5 28.875 10.8281 28.5 11.25 28.5Z" fill="black" fill-opacity="0.72"/>
</g>
<defs>
<clipPath id="clip0_2556_19353">
<rect width="27" height="36" fill="white"/>
</clipPath>
</defs>
</svg>
