<svg width="25" height="30" viewBox="0 0 25 30" fill="none" xmlns="http://www.w3.org/2000/svg">
<g id="label-paired / lg / volume-high-lg / fill" clip-path="url(#clip0_3758_677)">
<path id="icon" d="M20.8203 6.78906C23.3594 8.85938 25 11.9844 25 15.5C25 19.0547 23.3594 22.1797 20.8203 24.25C20.4297 24.5625 19.8438 24.5234 19.4922 24.0938C19.1797 23.7031 19.2578 23.1172 19.6484 22.8047C21.7578 21.0859 23.125 18.4688 23.125 15.5C23.125 12.5703 21.7578 9.95312 19.6484 8.23438C19.2578 7.92188 19.1797 7.33594 19.4922 6.90625C19.8438 6.51562 20.4297 6.47656 20.8203 6.78906ZM18.4766 9.67969C20.1562 11.0859 21.25 13.1562 21.25 15.5C21.25 17.8828 20.1562 19.9531 18.4766 21.3203C18.0469 21.6719 17.4609 21.5938 17.1484 21.2031C16.7969 20.8125 16.875 20.2266 17.2656 19.875C18.5547 18.8594 19.375 17.2969 19.375 15.5C19.375 13.7422 18.5547 12.1797 17.2656 11.1641C16.875 10.8125 16.8359 10.2266 17.1484 9.83594C17.4609 9.44531 18.0469 9.36719 18.4766 9.67969ZM16.0938 12.6094C16.9531 13.3125 17.5 14.3281 17.5 15.5C17.5 16.7109 16.9531 17.7266 16.0938 18.4297C15.7031 18.7422 15.1172 18.7031 14.7656 18.2734C14.4531 17.8828 14.5312 17.2969 14.9219 16.9844C15.3516 16.6328 15.625 16.0859 15.625 15.5C15.625 14.9141 15.3516 14.4062 14.9219 14.0547C14.5312 13.7422 14.4531 13.1562 14.7656 12.7266C15.1172 12.3359 15.7031 12.2969 16.0938 12.6094ZM11.7578 6.86719C12.1875 7.0625 12.5 7.53125 12.5 8V23C12.5 23.5078 12.1875 23.9375 11.7578 24.1719C11.2891 24.3672 10.7812 24.2891 10.3906 23.9375L5.11719 19.25H2.5C1.09375 19.25 0 18.1562 0 16.75V14.25C0 12.8828 1.09375 11.75 2.5 11.75H5.11719L10.3906 7.10156C10.7812 6.75 11.2891 6.67188 11.7578 6.86719Z" fill="black" fill-opacity="0.72"/>
</g>
<defs>
<clipPath id="clip0_3758_677">
<rect width="25" height="30" fill="white"/>
</clipPath>
</defs>
</svg>
