<svg width="6" height="24" viewBox="0 0 6 24" fill="none" xmlns="http://www.w3.org/2000/svg">
<g id="label-paired / md / info-md / bold" clip-path="url(#clip0_2556_14667)">
<path id="icon" d="M1.75 6.25C1.75 5.8125 1.96875 5.40625 2.375 5.1875C2.75 4.96875 3.21875 4.96875 3.625 5.1875C4 5.40625 4.25 5.8125 4.25 6.25C4.25 6.71875 4 7.125 3.625 7.34375C3.21875 7.5625 2.75 7.5625 2.375 7.34375C1.96875 7.125 1.75 6.71875 1.75 6.25ZM0.5 10.25C0.5 9.84375 0.8125 9.5 1.25 9.5H3C3.40625 9.5 3.75 9.84375 3.75 10.25V18.5H5.25C5.65625 18.5 6 18.8438 6 19.25C6 19.6875 5.65625 20 5.25 20H0.75C0.3125 20 0 19.6875 0 19.25C0 18.8438 0.3125 18.5 0.75 18.5H2.25V11H1.25C0.8125 11 0.5 10.6875 0.5 10.25Z" fill="black" fill-opacity="0.72"/>
</g>
<defs>
<clipPath id="clip0_2556_14667">
<rect width="6" height="24" fill="white"/>
</clipPath>
</defs>
</svg>
