<svg width="20" height="30" viewBox="0 0 20 30" fill="none" xmlns="http://www.w3.org/2000/svg">
<g id="label-paired / lg / circle-question-lg / bold" clip-path="url(#clip0_3578_733)">
<path id="icon" d="M18.125 15.5C18.125 12.6094 16.5625 9.95312 14.0625 8.46875C11.5234 7.02344 8.4375 7.02344 5.9375 8.46875C3.39844 9.95312 1.875 12.6094 1.875 15.5C1.875 18.4297 3.39844 21.0859 5.9375 22.5703C8.4375 24.0156 11.5234 24.0156 14.0625 22.5703C16.5625 21.0859 18.125 18.4297 18.125 15.5ZM0 15.5C0 11.9453 1.875 8.66406 5 6.86719C8.08594 5.07031 11.875 5.07031 15 6.86719C18.0859 8.66406 20 11.9453 20 15.5C20 19.0938 18.0859 22.375 15 24.1719C11.875 25.9688 8.08594 25.9688 5 24.1719C1.875 22.375 0 19.0938 0 15.5ZM6.60156 11.9844C6.91406 11.0859 7.73438 10.5 8.67188 10.5H10.9375C12.3047 10.5 13.4375 11.6328 13.4375 13C13.4375 13.8594 12.9297 14.6797 12.1875 15.1094L10.9375 15.8516C10.8984 16.3594 10.5078 16.75 10 16.75C9.45312 16.75 9.0625 16.3594 9.0625 15.8125V15.3047C9.0625 14.9531 9.21875 14.6406 9.53125 14.4844L11.25 13.5078C11.4453 13.3906 11.5625 13.1953 11.5625 13C11.5625 12.6484 11.2891 12.4141 10.9375 12.4141H8.67188C8.55469 12.4141 8.4375 12.4922 8.39844 12.6094L8.35938 12.6484C8.20312 13.1562 7.65625 13.3906 7.1875 13.2344C6.67969 13.0391 6.44531 12.4922 6.60156 12.0234V11.9844ZM8.75 19.25C8.75 18.5859 9.29688 18 10 18C10.6641 18 11.25 18.5859 11.25 19.25C11.25 19.9531 10.6641 20.5 10 20.5C9.29688 20.5 8.75 19.9531 8.75 19.25Z" fill="black" fill-opacity="0.72"/>
</g>
<defs>
<clipPath id="clip0_3578_733">
<rect width="20" height="30" fill="white"/>
</clipPath>
</defs>
</svg>
