<svg width="9" height="22" viewBox="0 0 9 22" fill="none" xmlns="http://www.w3.org/2000/svg">
<g id="label-paired / sm / caret-up-sm / regular" clip-path="url(#clip0_2556_12346)">
<path id="icon" d="M4.33594 8.20703L1.05469 11.2969C1 11.3516 1 11.3789 1 11.4336C1 11.543 1.08203 11.625 1.19141 11.625H7.78125C7.89062 11.625 8 11.543 8 11.4336C8 11.3789 7.97266 11.3242 7.91797 11.2969L4.63672 8.20703C4.60938 8.15234 4.55469 8.125 4.5 8.125C4.41797 8.125 4.36328 8.15234 4.33594 8.20703ZM3.73438 7.55078C3.92578 7.35938 4.19922 7.25 4.5 7.25C4.77344 7.25 5.04688 7.35938 5.23828 7.55078L8.51953 10.668C8.73828 10.8594 8.875 11.1602 8.875 11.4336C8.875 12.0352 8.38281 12.5 7.78125 12.5H1.19141C0.589844 12.5 0.125 12.0352 0.125 11.4336C0.125 11.1602 0.234375 10.8594 0.453125 10.668L3.73438 7.55078Z" fill="black" fill-opacity="0.72"/>
</g>
<defs>
<clipPath id="clip0_2556_12346">
<rect width="9" height="22" fill="white"/>
</clipPath>
</defs>
</svg>
