<svg width="24" height="36" viewBox="0 0 24 36" fill="none" xmlns="http://www.w3.org/2000/svg">
<g id="label-paired / xl / wallet-xl / regular" clip-path="url(#clip0_2556_19418)">
<path id="icon" d="M3.75 7.5H21.75C22.125 7.5 22.5 7.875 22.5 8.25C22.5 8.67188 22.125 9 21.75 9H3.75C2.48438 9 1.5 10.0312 1.5 11.25V24.75C1.5 26.0156 2.48438 27 3.75 27H20.25C21.4688 27 22.5 26.0156 22.5 24.75V14.25C22.5 13.0312 21.4688 12 20.25 12H5.25C4.82812 12 4.5 11.6719 4.5 11.25C4.5 10.875 4.82812 10.5 5.25 10.5H20.25C22.3125 10.5 24 12.1875 24 14.25V24.75C24 26.8594 22.3125 28.5 20.25 28.5H3.75C1.64062 28.5 0 26.8594 0 24.75V11.25C0 9.1875 1.64062 7.5 3.75 7.5ZM18 20.625C17.3438 20.625 16.875 20.1562 16.875 19.5C16.875 18.8906 17.3438 18.375 18 18.375C18.6094 18.375 19.125 18.8906 19.125 19.5C19.125 20.1562 18.6094 20.625 18 20.625Z" fill="black" fill-opacity="0.72"/>
</g>
<defs>
<clipPath id="clip0_2556_19418">
<rect width="24" height="36" fill="white"/>
</clipPath>
</defs>
</svg>
