<svg width="16" height="24" viewBox="0 0 16 24" fill="none" xmlns="http://www.w3.org/2000/svg">
<g id="label-paired / md / paste-md / regular" clip-path="url(#clip0_2556_14951)">
<path id="icon" d="M4.25 5.625C4.21875 5.84375 4 6 3.75 6H3.5C3.21875 6 3 6.25 3 6.5V7H7V6.5C7 6.25 6.75 6 6.5 6H6.21875C5.96875 6 5.78125 5.84375 5.71875 5.625C5.65625 5.28125 5.34375 5 5 5C4.625 5 4.3125 5.28125 4.25 5.625ZM5 4C5.6875 4 6.28125 4.4375 6.5625 5H8C9.09375 5 10 5.90625 10 7H9C9 6.46875 8.53125 6 8 6H7.90625C7.96875 6.15625 8 6.34375 8 6.5V7C8 7.03125 8 7.0625 8 7.0625C7.375 7.1875 6.84375 7.53125 6.5 8H3C2.4375 8 2 7.5625 2 7V6.5C2 6.34375 2.03125 6.15625 2.0625 6H2C1.4375 6 1 6.46875 1 7V16C1 16.5625 1.4375 17 2 17H6V18H2C0.875 18 0 17.125 0 16V7C0 5.90625 0.875 5 2 5H3.40625C3.6875 4.4375 4.28125 4 5 4ZM14 19C14.5312 19 15 18.5625 15 18V11.625C15 11.5 14.9375 11.375 14.8438 11.2812L12.7188 9.15625C12.625 9.0625 12.5 9 12.375 9H9C8.4375 9 8 9.46875 8 10V18C8 18.5625 8.4375 19 9 19H14ZM15.5312 10.5625C15.8125 10.8438 16 11.25 16 11.625V18C16 19.125 15.0938 20 14 20H9C7.875 20 7 19.125 7 18V10C7 8.90625 7.875 8 9 8H12.375C12.75 8 13.1562 8.15625 13.4375 8.4375L15.5312 10.5625Z" fill="black" fill-opacity="0.72"/>
</g>
<defs>
<clipPath id="clip0_2556_14951">
<rect width="16" height="24" fill="white"/>
</clipPath>
</defs>
</svg>
