<svg width="18" height="24" viewBox="0 0 18 24" fill="none" xmlns="http://www.w3.org/2000/svg">
<g id="label-paired / md / house-user-md / fill" clip-path="url(#clip0_4670_651)">
<path id="icon" d="M17.9688 12C17.9688 12.5625 17.5 13 16.9688 13H15.9688L16 18C16 19.125 15.125 20.0312 14 20.0312H4C2.875 20.0312 2 19.125 2 18.0312V13H1C0.4375 13 0 12.5625 0 12C0 11.7188 0.09375 11.4688 0.3125 11.25L8.3125 4.25C8.53125 4.03125 8.78125 4 9 4C9.21875 4 9.46875 4.0625 9.65625 4.21875L17.625 11.25C17.875 11.4688 18 11.7188 17.9688 12ZM11 11C11 10.3125 10.5938 9.65625 10 9.28125C9.375 8.9375 8.59375 8.9375 8 9.28125C7.375 9.65625 7 10.3125 7 11C7 11.7188 7.375 12.375 8 12.75C8.59375 13.0938 9.375 13.0938 10 12.75C10.5938 12.375 11 11.7188 11 11ZM8 14C6.59375 14 5.5 15.125 5.5 16.5C5.5 16.7812 5.71875 17 6 17H12C12.25 17 12.5 16.7812 12.5 16.5C12.5 15.125 11.375 14 10 14H8Z" fill="black" fill-opacity="0.72"/>
</g>
<defs>
<clipPath id="clip0_4670_651">
<rect width="18" height="24" fill="white"/>
</clipPath>
</defs>
</svg>
