<svg width="25" height="30" viewBox="0 0 25 30" fill="none" xmlns="http://www.w3.org/2000/svg">
<g id="label-paired / lg / user-slash-lg / regular" clip-path="url(#clip0_2556_16905)">
<path id="icon" d="M17.5 10.5C17.5 12.2188 16.6406 13.7031 15.3516 14.6016L14.3359 13.7812C15.4688 13.1562 16.25 11.9062 16.25 10.5C16.25 8.42969 14.5703 6.75 12.5 6.75C10.7812 6.75 9.33594 7.92188 8.86719 9.48438L7.85156 8.66406C8.55469 6.82812 10.3906 5.5 12.5 5.5C15.2344 5.5 17.5 7.76562 17.5 10.5ZM19.5312 24.25L20.7812 25.2656C20.5859 25.4219 20.3516 25.5 20.0781 25.5H4.88281C4.25781 25.5 3.75 24.9922 3.75 24.3672C3.75 20.5 6.83594 17.375 10.7031 17.375H10.8203L12.4219 18.625H10.7031C7.57812 18.625 5.03906 21.1641 5 24.25H19.5312ZM0.976562 5.65625L24.7656 24.4062C25 24.6016 25.0781 25.0312 24.8438 25.2656C24.6484 25.5391 24.2578 25.6172 23.9844 25.3828L0.234375 6.63281C-0.0390625 6.4375 -0.117188 6.00781 0.117188 5.77344C0.3125 5.5 0.742188 5.42188 0.976562 5.65625Z" fill="black" fill-opacity="0.72"/>
</g>
<defs>
<clipPath id="clip0_2556_16905">
<rect width="25" height="30" fill="white"/>
</clipPath>
</defs>
</svg>
