<svg width="18" height="30" viewBox="0 0 18 30" fill="none" xmlns="http://www.w3.org/2000/svg">
<g id="label-paired / lg / bars-filter-lg / bold" clip-path="url(#clip0_2556_17228)">
<path id="icon" d="M0.25 8.9375C0.25 8.42969 0.640625 8 1.1875 8H16.8125C17.3203 8 17.75 8.42969 17.75 8.9375C17.75 9.48438 17.3203 9.875 16.8125 9.875H1.1875C0.640625 9.875 0.25 9.48438 0.25 8.9375ZM2.75 15.1875C2.75 14.6797 3.14062 14.25 3.6875 14.25H14.3125C14.8203 14.25 15.25 14.6797 15.25 15.1875C15.25 15.7344 14.8203 16.125 14.3125 16.125H3.6875C3.14062 16.125 2.75 15.7344 2.75 15.1875ZM11.5 21.4375C11.5 21.9844 11.0703 22.375 10.5625 22.375H7.4375C6.89062 22.375 6.5 21.9844 6.5 21.4375C6.5 20.9297 6.89062 20.5 7.4375 20.5H10.5625C11.0703 20.5 11.5 20.9297 11.5 21.4375Z" fill="black" fill-opacity="0.72"/>
</g>
<defs>
<clipPath id="clip0_2556_17228">
<rect width="18" height="30" fill="white"/>
</clipPath>
</defs>
</svg>
