<svg width="25" height="30" viewBox="0 0 25 30" fill="none" xmlns="http://www.w3.org/2000/svg">
<g id="label-paired / lg / lock-pattern-lg / bold" clip-path="url(#clip0_2556_16912)">
<path id="icon" d="M2.8125 8C2.8125 6.82812 3.78906 5.8125 5 5.8125C5.85938 5.8125 6.60156 6.35938 6.95312 7.0625H10.5078C10.8594 6.35938 11.6016 5.8125 12.5 5.8125C13.3594 5.8125 14.1016 6.35938 14.4531 7.0625H18.0078C18.3594 6.35938 19.1016 5.8125 20 5.8125C21.1719 5.8125 22.1875 6.82812 22.1875 8C22.1875 9.21094 21.1719 10.1875 20 10.1875C19.7266 10.1875 19.4922 10.1484 19.2578 10.0703L14.5312 14.7969C14.6094 15.0312 14.6875 15.2656 14.6875 15.5C14.6875 16.7109 13.6719 17.6875 12.5 17.6875C12.2266 17.6875 11.9922 17.6484 11.7578 17.5703L7.22656 22.0625H10.5078C10.8594 21.3594 11.6016 20.8125 12.5 20.8125C13.3594 20.8125 14.1016 21.3594 14.4531 22.0625H18.0078C18.3594 21.3594 19.1016 20.8125 20 20.8125C21.1719 20.8125 22.1875 21.8281 22.1875 23C22.1875 24.2109 21.1719 25.1875 20 25.1875C19.1016 25.1875 18.3594 24.6797 18.0078 23.9375H14.4531C14.1016 24.6797 13.3594 25.1875 12.5 25.1875C11.6016 25.1875 10.8594 24.6797 10.5078 23.9375H6.95312C6.60156 24.6797 5.85938 25.1875 5 25.1875C3.78906 25.1875 2.8125 24.2109 2.8125 23C2.8125 21.8281 3.78906 20.8125 5 20.8125C5.23438 20.8125 5.46875 20.8906 5.70312 20.9688L10.4297 16.2422C10.3516 16.0078 10.3125 15.7734 10.3125 15.5C10.3125 14.3281 11.2891 13.3125 12.5 13.3125C12.7344 13.3125 12.9688 13.3906 13.2031 13.4688L17.7344 8.9375H14.4531C14.1016 9.67969 13.3594 10.1875 12.5 10.1875C11.6016 10.1875 10.8594 9.67969 10.5078 8.9375H6.95312C6.60156 9.67969 5.85938 10.1875 5 10.1875C3.78906 10.1875 2.8125 9.21094 2.8125 8ZM2.8125 15.5C2.8125 16.3203 3.20312 17.0234 3.90625 17.4141C4.57031 17.8047 5.39062 17.8047 6.09375 17.4141C6.75781 17.0234 7.1875 16.3203 7.1875 15.5C7.1875 14.7188 6.75781 14.0156 6.09375 13.625C5.39062 13.2344 4.57031 13.2344 3.90625 13.625C3.20312 14.0156 2.8125 14.7188 2.8125 15.5ZM17.8125 15.5C17.8125 16.3203 18.2031 17.0234 18.9062 17.4141C19.5703 17.8047 20.3906 17.8047 21.0938 17.4141C21.7578 17.0234 22.1875 16.3203 22.1875 15.5C22.1875 14.7188 21.7578 14.0156 21.0938 13.625C20.3906 13.2344 19.5703 13.2344 18.9062 13.625C18.2031 14.0156 17.8125 14.7188 17.8125 15.5Z" fill="black" fill-opacity="0.72"/>
</g>
<defs>
<clipPath id="clip0_2556_16912">
<rect width="25" height="30" fill="white"/>
</clipPath>
</defs>
</svg>
