<svg width="12" height="18" viewBox="0 0 12 18" fill="none" xmlns="http://www.w3.org/2000/svg">
<g id="label-paired / caption / sparkles-caption / regular" clip-path="url(#clip0_5088_609)">
<path id="icon" d="M10.125 4.25C10.3125 4.25 10.5 4.4375 10.5 4.625V5.75H11.625C11.8125 5.75 12 5.9375 12 6.125C12 6.33594 11.8125 6.5 11.625 6.5H10.5V7.625C10.5 7.83594 10.3125 8 10.125 8C9.91406 8 9.75 7.83594 9.75 7.625V6.5H8.625C8.41406 6.5 8.25 6.33594 8.25 6.125C8.25 5.9375 8.41406 5.75 8.625 5.75H9.75V4.625C9.75 4.4375 9.91406 4.25 10.125 4.25ZM10.125 11C10.3125 11 10.5 11.1875 10.5 11.375V12.5H11.625C11.8125 12.5 12 12.6875 12 12.875C12 13.0859 11.8125 13.25 11.625 13.25H10.5V14.375C10.5 14.5859 10.3125 14.75 10.125 14.75C9.91406 14.75 9.75 14.5859 9.75 14.375V13.25H8.625C8.41406 13.25 8.25 13.0859 8.25 12.875C8.25 12.6875 8.41406 12.5 8.625 12.5H9.75V11.375C9.75 11.1875 9.91406 11 10.125 11ZM3.1875 8.58594L1.26562 9.47656L3.1875 10.3672C3.35156 10.4375 3.49219 10.5781 3.5625 10.7422L4.45312 12.6641L5.34375 10.7422C5.41406 10.5781 5.55469 10.4375 5.71875 10.3672L7.64062 9.47656L5.71875 8.58594C5.55469 8.51562 5.41406 8.375 5.34375 8.21094L4.45312 6.28906L3.5625 8.21094C3.49219 8.375 3.35156 8.51562 3.1875 8.58594ZM2.88281 11.0469L0.210938 9.82812C0.0703125 9.75781 0 9.61719 0 9.47656C0 9.33594 0.0703125 9.19531 0.210938 9.14844L2.88281 7.90625L4.125 5.23438C4.17188 5.09375 4.3125 5 4.45312 5C4.59375 5 4.73438 5.09375 4.80469 5.23438L6.02344 7.90625L8.69531 9.125C8.83594 9.19531 8.92969 9.33594 8.92969 9.47656C8.92969 9.61719 8.83594 9.75781 8.69531 9.80469L6.02344 11.0469L4.80469 13.7188C4.73438 13.8594 4.59375 13.9531 4.45312 13.9531C4.3125 13.9531 4.17188 13.8594 4.125 13.7188L2.88281 11.0469Z" fill="black" fill-opacity="0.72"/>
</g>
<defs>
<clipPath id="clip0_5088_609">
<rect width="12" height="18" fill="white"/>
</clipPath>
</defs>
</svg>
