<svg width="13" height="22" viewBox="0 0 13 22" fill="none" xmlns="http://www.w3.org/2000/svg">
<g id="label-paired / sm / user-sm / regular" clip-path="url(#clip0_2556_12284)">
<path id="icon" d="M9.125 7.25C9.125 6.32031 8.60547 5.47266 7.8125 4.98047C6.99219 4.51562 5.98047 4.51562 5.1875 4.98047C4.36719 5.47266 3.875 6.32031 3.875 7.25C3.875 8.20703 4.36719 9.05469 5.1875 9.54688C5.98047 10.0117 6.99219 10.0117 7.8125 9.54688C8.60547 9.05469 9.125 8.20703 9.125 7.25ZM3 7.25C3 6.01953 3.65625 4.87109 4.75 4.24219C5.81641 3.61328 7.15625 3.61328 8.25 4.24219C9.31641 4.87109 10 6.01953 10 7.25C10 8.50781 9.31641 9.65625 8.25 10.2852C7.15625 10.9141 5.81641 10.9141 4.75 10.2852C3.65625 9.65625 3 8.50781 3 7.25ZM1.25 16.875H11.75C11.6953 14.7148 9.91797 12.9375 7.73047 12.9375H5.24219C3.05469 12.9375 1.27734 14.7148 1.25 16.875ZM0.375 16.957C0.375 14.25 2.53516 12.0625 5.24219 12.0625H7.73047C10.4375 12.0625 12.625 14.25 12.625 16.957C12.625 17.3945 12.2422 17.75 11.8047 17.75H1.16797C0.730469 17.75 0.375 17.3945 0.375 16.957Z" fill="black" fill-opacity="0.72"/>
</g>
<defs>
<clipPath id="clip0_2556_12284">
<rect width="13" height="22" fill="white"/>
</clipPath>
</defs>
</svg>
