<svg width="24" height="36" viewBox="0 0 24 36" fill="none" xmlns="http://www.w3.org/2000/svg">
<g id="label-paired / xl / arrow-rotate-right-xl / fill" clip-path="url(#clip0_3431_1014)">
<path id="icon" d="M18.0938 13.5L17.2969 12.7031C14.3438 9.79688 9.60938 9.79688 6.65625 12.7031C3.75 15.6562 3.75 20.3906 6.65625 23.3438C9.60938 26.25 14.3438 26.25 17.2969 23.3438C17.8594 22.7344 18.7969 22.7344 19.4062 23.3438C19.9688 23.9062 19.9688 24.8438 19.4062 25.4531C15.2812 29.5312 8.67188 29.5312 4.54688 25.4531C0.46875 21.3281 0.46875 14.7188 4.54688 10.5938C8.67188 6.51562 15.2812 6.51562 19.4062 10.5938L20.25 11.4375V9C20.25 8.20312 20.9062 7.5 21.75 7.5C22.5469 7.5 23.25 8.20312 23.25 9V15C23.25 15.8438 22.5469 16.5 21.75 16.5H15.75C14.9062 16.5 14.25 15.8438 14.25 15C14.25 14.2031 14.9062 13.5 15.75 13.5H18.0938Z" fill="black" fill-opacity="0.72"/>
</g>
<defs>
<clipPath id="clip0_3431_1014">
<rect width="24" height="36" fill="white"/>
</clipPath>
</defs>
</svg>
