<svg width="20" height="24" viewBox="0 0 20 24" fill="none" xmlns="http://www.w3.org/2000/svg">
<g id="label-paired / md / users-md / bold" clip-path="url(#clip0_2556_14750)">
<path id="icon" d="M4.5 9C3.59375 9 2.78125 8.53125 2.3125 7.75C1.875 7 1.875 6.03125 2.3125 5.25C2.78125 4.5 3.59375 4 4.5 4C5.375 4 6.1875 4.5 6.65625 5.25C7.09375 6.03125 7.09375 7 6.65625 7.75C6.1875 8.53125 5.375 9 4.5 9ZM16 9C15.0938 9 14.2812 8.53125 13.8125 7.75C13.375 7 13.375 6.03125 13.8125 5.25C14.2812 4.5 15.0938 4 16 4C16.875 4 17.6875 4.5 18.1562 5.25C18.5938 6.03125 18.5938 7 18.1562 7.75C17.6875 8.53125 16.875 9 16 9ZM0 13.3438C0 11.5 1.46875 10 3.3125 10H4.65625C5.15625 10 5.625 10.125 6.0625 10.3125C6 10.5312 6 10.7812 6 11C6 12.2188 6.5 13.2812 7.34375 14H7.3125H0.65625C0.28125 14 0 13.7188 0 13.3438ZM12.6562 14H12.625C13.4688 13.2812 14 12.2188 14 11C14 10.7812 13.9688 10.5312 13.9375 10.3125C14.3438 10.125 14.8125 10 15.3125 10H16.6562C18.5 10 20 11.5 20 13.3438C20 13.7188 19.6875 14 19.3125 14H12.6562ZM10 9.5C9.4375 9.5 8.96875 9.8125 8.6875 10.25C8.40625 10.7188 8.40625 11.3125 8.6875 11.75C8.96875 12.2188 9.4375 12.5 10 12.5C10.5312 12.5 11 12.2188 11.2812 11.75C11.5625 11.3125 11.5625 10.7188 11.2812 10.25C11 9.8125 10.5312 9.5 10 9.5ZM10 14C8.90625 14 7.9375 13.4375 7.375 12.5C6.84375 11.5938 6.84375 10.4375 7.375 9.5C7.9375 8.59375 8.90625 8 10 8C11.0625 8 12.0312 8.59375 12.5938 9.5C13.125 10.4375 13.125 11.5938 12.5938 12.5C12.0312 13.4375 11.0625 14 10 14ZM8.15625 16.5C6.90625 16.5 5.875 17.375 5.5625 18.5H14.4062C14.0938 17.375 13.0625 16.5 11.8125 16.5H8.15625ZM8.15625 15H11.8125C14.125 15 16 16.875 16 19.1875C16 19.6562 15.625 20 15.1562 20H4.8125C4.34375 20 4 19.625 4 19.1875C4 16.875 5.84375 15 8.15625 15Z" fill="black" fill-opacity="0.72"/>
</g>
<defs>
<clipPath id="clip0_2556_14750">
<rect width="20" height="24" fill="white"/>
</clipPath>
</defs>
</svg>
