<svg width="18" height="24" viewBox="0 0 18 24" fill="none" xmlns="http://www.w3.org/2000/svg">
<g id="label-paired / md / android-md" clip-path="url(#clip0_2556_14584)">
<path id="icon" d="M13.125 13.4375C13.5312 13.4375 13.875 13.125 13.875 12.6875C13.875 12.2812 13.5312 11.9375 13.125 11.9375C12.7188 11.9375 12.375 12.2812 12.375 12.6875C12.375 13.125 12.7188 13.4375 13.125 13.4375ZM4.84375 13.4375C5.25 13.4375 5.59375 13.125 5.59375 12.6875C5.59375 12.2812 5.25 11.9375 4.84375 11.9375C4.4375 11.9375 4.09375 12.2812 4.09375 12.6875C4.09375 13.125 4.4375 13.4375 4.84375 13.4375ZM13.4062 8.9375C15.9688 10.3438 17.7188 12.9375 18 16H0C0.25 12.9375 2 10.3438 4.5625 8.9375L3.0625 6.34375C3 6.25 3 6.125 3.0625 6.03125C3.125 5.90625 3.21875 5.84375 3.34375 5.84375C3.46875 5.84375 3.5625 5.9375 3.625 6.03125L5.125 8.65625C7.59375 7.5625 10.375 7.5625 12.8438 8.65625L14.3438 6.03125C14.4062 5.9375 14.5 5.84375 14.625 5.84375C14.75 5.84375 14.8438 5.90625 14.9062 6.03125C14.9688 6.125 14.9688 6.25 14.9062 6.34375L13.4062 8.9375Z" fill="black" fill-opacity="0.72"/>
</g>
<defs>
<clipPath id="clip0_2556_14584">
<rect width="18" height="24" fill="white"/>
</clipPath>
</defs>
</svg>
