<svg width="18" height="24" viewBox="0 0 18 24" fill="none" xmlns="http://www.w3.org/2000/svg">
<g id="label-paired / md / eye-md / bold" clip-path="url(#clip0_2556_15279)">
<path id="icon" d="M9 6.5C6.9375 6.5 5.28125 7.4375 4 8.625C2.78125 9.75 1.96875 11.0625 1.53125 12C1.96875 12.9375 2.78125 14.2812 4 15.4062C5.28125 16.5938 6.9375 17.5 9 17.5C11.0312 17.5 12.6875 16.5938 13.9688 15.4062C15.1875 14.2812 16.0312 12.9375 16.4375 12C16.0312 11.0625 15.1875 9.75 14 8.625C12.6875 7.4375 11.0312 6.5 9 6.5ZM2.96875 7.53125C4.4375 6.15625 6.46875 5 9 5C11.5 5 13.5312 6.15625 15 7.53125C16.4688 8.90625 17.4375 10.5 17.9062 11.625C18 11.875 18 12.1562 17.9062 12.4062C17.4375 13.5 16.4688 15.125 15 16.5C13.5312 17.875 11.5 19 9 19C6.46875 19 4.4375 17.875 2.96875 16.5C1.5 15.125 0.53125 13.5 0.0625 12.4062C-0.03125 12.1562 -0.03125 11.875 0.0625 11.625C0.53125 10.5 1.5 8.875 2.96875 7.53125ZM9 14.5C10.375 14.5 11.5 13.4062 11.5 12C11.5 10.625 10.375 9.5 9 9.5C8.96875 9.5 8.9375 9.5 8.9375 9.5C8.96875 9.6875 9 9.84375 9 10C9 11.125 8.09375 12 7 12C6.8125 12 6.65625 12 6.5 11.9375C6.5 11.9688 6.5 12 6.5 12C6.5 13.4062 7.59375 14.5 9 14.5ZM9 8C10.4062 8 11.7188 8.78125 12.4375 10C13.1562 11.25 13.1562 12.7812 12.4375 14C11.7188 15.25 10.4062 16 9 16C7.5625 16 6.25 15.25 5.53125 14C4.8125 12.7812 4.8125 11.25 5.53125 10C6.25 8.78125 7.5625 8 9 8Z" fill="black" fill-opacity="0.72"/>
</g>
<defs>
<clipPath id="clip0_2556_15279">
<rect width="18" height="24" fill="white"/>
</clipPath>
</defs>
</svg>
