<svg width="16" height="24" viewBox="0 0 16 24" fill="none" xmlns="http://www.w3.org/2000/svg">
<g id="label-paired / md / clock-three-md / regular" clip-path="url(#clip0_2556_14960)">
<path id="icon" d="M15 12C15 9.5 13.6562 7.21875 11.5 5.96875C9.3125 4.6875 6.65625 4.6875 4.5 5.96875C2.3125 7.21875 1 9.5 1 12C1 14.5312 2.3125 16.8125 4.5 18.0625C6.65625 19.3438 9.3125 19.3438 11.5 18.0625C13.6562 16.8125 15 14.5312 15 12ZM0 12C0 9.15625 1.5 6.53125 4 5.09375C6.46875 3.65625 9.5 3.65625 12 5.09375C14.4688 6.53125 16 9.15625 16 12C16 14.875 14.4688 17.5 12 18.9375C9.5 20.375 6.46875 20.375 4 18.9375C1.5 17.5 0 14.875 0 12ZM7.5 7.5C7.5 7.25 7.71875 7 8 7C8.25 7 8.5 7.25 8.5 7.5V11.5H11.5C11.75 11.5 12 11.75 12 12C12 12.2812 11.75 12.5 11.5 12.5H8C7.71875 12.5 7.5 12.2812 7.5 12V7.5Z" fill="black" fill-opacity="0.72"/>
</g>
<defs>
<clipPath id="clip0_2556_14960">
<rect width="16" height="24" fill="white"/>
</clipPath>
</defs>
</svg>
