<svg width="9" height="22" viewBox="0 0 9 22" fill="none" xmlns="http://www.w3.org/2000/svg">
<g id="label-paired / sm / five-sm / fill" clip-path="url(#clip0_2556_12509)">
<path id="icon" d="M1 5.36328C1.08203 4.95312 1.4375 4.625 1.875 4.625H7.125C7.58984 4.625 8 5.03516 8 5.5C8 5.99219 7.58984 6.375 7.125 6.375H2.58594L2.03906 9.4375H5.15625C7.20703 9.4375 8.875 11.1055 8.875 13.1562C8.875 15.2344 7.20703 16.875 5.15625 16.875H2.85938C1.79297 16.875 0.808594 16.2734 0.316406 15.3164L0.207031 15.0977C-0.0117188 14.6602 0.152344 14.1406 0.589844 13.9219C1.02734 13.7031 1.54688 13.8672 1.76562 14.3047L1.875 14.5234C2.06641 14.9062 2.44922 15.125 2.85938 15.125H5.15625C6.22266 15.125 7.125 14.25 7.125 13.1562C7.125 12.0898 6.22266 11.1875 5.15625 11.1875H1C0.726562 11.1875 0.480469 11.0781 0.316406 10.8867C0.152344 10.6953 0.0703125 10.4219 0.125 10.1758L1 5.36328Z" fill="black" fill-opacity="0.72"/>
</g>
<defs>
<clipPath id="clip0_2556_12509">
<rect width="9" height="22" fill="white"/>
</clipPath>
</defs>
</svg>
