<svg width="20" height="30" viewBox="0 0 20 30" fill="none" xmlns="http://www.w3.org/2000/svg">
<g id="label-paired / lg / circle-dot-lg / bold" clip-path="url(#clip0_2556_17437)">
<path id="icon" d="M18.125 15.5C18.125 12.6094 16.5625 9.95312 14.0625 8.46875C11.5234 7.02344 8.4375 7.02344 5.9375 8.46875C3.39844 9.95312 1.875 12.6094 1.875 15.5C1.875 18.4297 3.39844 21.0859 5.9375 22.5703C8.4375 24.0156 11.5234 24.0156 14.0625 22.5703C16.5625 21.0859 18.125 18.4297 18.125 15.5ZM0 15.5C0 11.9453 1.875 8.66406 5 6.86719C8.08594 5.07031 11.875 5.07031 15 6.86719C18.0859 8.66406 20 11.9453 20 15.5C20 19.0938 18.0859 22.375 15 24.1719C11.875 25.9688 8.08594 25.9688 5 24.1719C1.875 22.375 0 19.0938 0 15.5ZM10 11.75C11.3281 11.75 12.5391 12.4922 13.2422 13.625C13.9062 14.7969 13.9062 16.2422 13.2422 17.375C12.5391 18.5469 11.3281 19.25 10 19.25C8.63281 19.25 7.42188 18.5469 6.71875 17.375C6.05469 16.2422 6.05469 14.7969 6.71875 13.625C7.42188 12.4922 8.63281 11.75 10 11.75Z" fill="black" fill-opacity="0.72"/>
</g>
<defs>
<clipPath id="clip0_2556_17437">
<rect width="20" height="30" fill="white"/>
</clipPath>
</defs>
</svg>
