<svg width="16" height="24" viewBox="0 0 16 24" fill="none" xmlns="http://www.w3.org/2000/svg">
<g id="label-paired / md / options-md / regular" clip-path="url(#clip0_5147_452)">
<path id="icon" d="M2.28125 19.8438C1.3125 19.8438 0.53125 19.0625 0.53125 18.0938V13.625C0.53125 13.0312 1 12.5312 1.59375 12.5312H2.40625C3.03125 12.5312 3.53125 13.0312 3.53125 13.625V14.8125L4.46875 13.875C5.03125 13.3125 5.75 13 6.53125 13H8.71875C9.3125 13 9.8125 13.5 9.8125 14.0938V14.7812C9.8125 15.4062 9.3125 15.875 8.71875 15.875H7.03125C6.71875 15.875 6.375 16 6.15625 16.25L5.5625 16.8438H6.75C7.34375 16.8438 7.84375 17.3438 7.84375 17.9375V18.75C7.84375 19.375 7.34375 19.8438 6.75 19.8438H2.28125ZM1.59375 13.375C1.46875 13.375 1.34375 13.5 1.34375 13.625V18.0938C1.34375 18.5938 1.78125 19.0312 2.28125 19.0312H6.71875C6.875 19.0312 7 18.9062 7 18.75V17.9375C7 17.8125 6.875 17.6875 6.71875 17.6875H5.21875C4.9375 17.6875 4.6875 17.5 4.5625 17.25C4.46875 17 4.53125 16.6875 4.71875 16.5L5.53125 15.6562C5.9375 15.2812 6.46875 15.0625 7.03125 15.0625H8.6875C8.84375 15.0625 8.9375 14.9375 8.9375 14.8125V14.125C8.9375 13.9688 8.84375 13.875 8.6875 13.875H6.5C5.96875 13.875 5.4375 14.0938 5.03125 14.4688L3.875 15.6562C3.65625 15.8438 3.34375 15.9062 3.09375 15.7812C2.8125 15.6875 2.65625 15.4375 2.65625 15.1562V13.625C2.65625 13.5 2.53125 13.375 2.40625 13.375H1.59375ZM14.4375 12.125H13.625C13.0312 12.125 12.5312 11.625 12.5312 11V9.8125L11.5938 10.7812C11.0312 11.3125 10.3125 11.625 9.53125 11.625H7.34375C6.75 11.625 6.25 11.1562 6.25 10.5312V9.84375C6.25 9.25 6.75 8.75 7.34375 8.75H9.03125C9.34375 8.75 9.65625 8.625 9.90625 8.40625L10.5 7.78125H9.3125C8.71875 7.78125 8.21875 7.3125 8.21875 6.6875V5.875C8.21875 5.28125 8.71875 4.78125 9.3125 4.78125H13.75C14.7188 4.78125 15.5312 5.59375 15.5312 6.5625V11C15.5312 11.625 15.0312 12.0938 14.4375 12.0938V12.125ZM12.6875 8.8125C12.7812 8.8125 12.875 8.8125 12.9375 8.84375C13.2188 8.96875 13.375 9.21875 13.375 9.5V11.0312C13.375 11.1562 13.5 11.2812 13.6562 11.2812H14.4688C14.5938 11.2812 14.7188 11.1562 14.7188 11.0312V6.5625C14.7188 6.0625 14.3125 5.625 13.7812 5.625H9.34375C9.1875 5.625 9.09375 5.75 9.09375 5.875V6.6875C9.09375 6.84375 9.1875 6.96875 9.34375 6.96875H10.8438C11.125 6.96875 11.375 7.125 11.5 7.40625C11.5938 7.65625 11.5625 7.96875 11.3438 8.15625L10.5312 8.96875C10.125 9.375 9.625 9.59375 9.0625 9.59375H7.375C7.21875 9.59375 7.125 9.6875 7.125 9.84375V10.5312C7.125 10.6875 7.25 10.7812 7.375 10.7812H9.5625C10.125 10.7812 10.625 10.5625 11.0312 10.1875L12.2188 9C12.3438 8.875 12.5 8.8125 12.6875 8.8125Z" fill="black" fill-opacity="0.72"/>
</g>
<defs>
<clipPath id="clip0_5147_452">
<rect width="16" height="24" fill="white"/>
</clipPath>
</defs>
</svg>
