<svg width="20" height="24" viewBox="0 0 20 24" fill="none" xmlns="http://www.w3.org/2000/svg">
<g id="label-paired / md / laptop-md / bold" clip-path="url(#clip0_2556_15164)">
<path id="icon" d="M16 6.5H4C3.71875 6.5 3.5 6.75 3.5 7V14H2V7C2 5.90625 2.875 5 4 5H16C17.0938 5 18 5.90625 18 7V14H16.5V7C16.5 6.75 16.25 6.5 16 6.5ZM3 17.5H17C17.625 17.5 18.1875 17.0938 18.4062 16.5H1.5625C1.78125 17.0938 2.34375 17.5 3 17.5ZM0 16C0 15.4688 0.4375 15 1 15H19C19.5312 15 20 15.4688 20 16C20 17.6562 18.6562 19 17 19H3C1.34375 19 0 17.6562 0 16Z" fill="black" fill-opacity="0.72"/>
</g>
<defs>
<clipPath id="clip0_2556_15164">
<rect width="20" height="24" fill="white"/>
</clipPath>
</defs>
</svg>
