<svg width="30" height="36" viewBox="0 0 30 36" fill="none" xmlns="http://www.w3.org/2000/svg">
<g id="label-paired / xl / link-xl / bold" clip-path="url(#clip0_4460_549)">
<path id="icon" d="M27.1875 18.5625L21.8906 23.8594C19.2188 26.4844 14.9531 26.4844 12.3281 23.8594C9.84375 21.3281 9.70312 17.3438 12 14.6719L12.2344 14.3906C12.6562 13.9219 13.3594 13.875 13.8281 14.2969C14.2969 14.7188 14.3438 15.4219 13.9219 15.8906L13.7344 16.125C12.1406 17.9062 12.2344 20.5781 13.9219 22.2656C15.6562 24 18.5156 24 20.2969 22.2656L25.5938 16.9688C27.3281 15.1875 27.3281 12.375 25.5938 10.5938C23.9062 8.95312 21.2344 8.85938 19.4531 10.4062L19.1719 10.6406C18.7031 11.0625 18 11.0156 17.5781 10.5469C17.1562 10.0781 17.2031 9.375 17.6719 8.95312L17.9531 8.71875C20.625 6.375 24.6562 6.51562 27.1875 9C29.8125 11.625 29.8125 15.8906 27.1875 18.5625ZM2.76562 17.4844L8.10938 12.1875C10.7344 9.5625 15 9.5625 17.625 12.1875C20.1562 14.6719 20.2969 18.7031 17.9531 21.375L17.6719 21.6562C17.2969 22.125 16.5469 22.2188 16.0781 21.7969C15.6094 21.375 15.5625 20.6719 15.9844 20.2031L16.2656 19.9219C17.8125 18.1406 17.7188 15.4688 16.0312 13.7812C14.2969 12 11.4375 12 9.70312 13.7812L4.35938 19.0781C2.625 20.8125 2.625 23.6719 4.35938 25.4531C6.04688 27.0938 8.71875 27.1875 10.5 25.6406L10.7812 25.4062C11.25 24.9844 11.9531 25.0312 12.375 25.5C12.7969 25.9688 12.75 26.6719 12.2812 27.0938L12 27.3281C9.32812 29.6719 5.29688 29.5312 2.76562 27.0469C0.140625 24.4219 0.140625 20.1094 2.76562 17.4844Z" fill="black" fill-opacity="0.72"/>
</g>
<defs>
<clipPath id="clip0_4460_549">
<rect width="30" height="36" fill="white"/>
</clipPath>
</defs>
</svg>
