<svg width="14" height="24" viewBox="0 0 14 24" fill="none" xmlns="http://www.w3.org/2000/svg">
<g id="label-paired / md / calendar-range-md / regular" clip-path="url(#clip0_2556_15196)">
<path id="icon" d="M3.5 4C3.75 4 4 4.25 4 4.5V6H10V4.5C10 4.25 10.2188 4 10.5 4C10.75 4 11 4.25 11 4.5V6H12C13.0938 6 14 6.90625 14 8V9V10V18C14 19.125 13.0938 20 12 20H2C0.875 20 0 19.125 0 18V10V9V8C0 6.90625 0.875 6 2 6H3V4.5C3 4.25 3.21875 4 3.5 4ZM13 10H1V18C1 18.5625 1.4375 19 2 19H12C12.5312 19 13 18.5625 13 18V10ZM12 7H2C1.4375 7 1 7.46875 1 8V9H13V8C13 7.46875 12.5312 7 12 7ZM12 12.5C12 12.7812 11.75 13 11.5 13H6.5C6.21875 13 6 12.7812 6 12.5C6 12.25 6.21875 12 6.5 12H11.5C11.75 12 12 12.25 12 12.5ZM7.5 17H2.5C2.21875 17 2 16.7812 2 16.5C2 16.25 2.21875 16 2.5 16H7.5C7.75 16 8 16.25 8 16.5C8 16.7812 7.75 17 7.5 17ZM3 12.5C3 12.7812 3.21875 13 3.5 13C3.75 13 4 12.7812 4 12.5C4 12.25 3.75 12 3.5 12C3.21875 12 3 12.25 3 12.5ZM3.5 14C2.9375 14 2.46875 13.7188 2.1875 13.25C1.90625 12.8125 1.90625 12.2188 2.1875 11.75C2.46875 11.3125 2.9375 11 3.5 11C4.03125 11 4.5 11.3125 4.78125 11.75C5.0625 12.2188 5.0625 12.8125 4.78125 13.25C4.5 13.7188 4.03125 14 3.5 14ZM10.5 17C10.75 17 11 16.7812 11 16.5C11 16.25 10.75 16 10.5 16C10.2188 16 10 16.25 10 16.5C10 16.7812 10.2188 17 10.5 17ZM12 16.5C12 17.0625 11.6875 17.5312 11.25 17.8125C10.7812 18.0938 10.1875 18.0938 9.75 17.8125C9.28125 17.5312 9 17.0625 9 16.5C9 15.9688 9.28125 15.5 9.75 15.2188C10.1875 14.9375 10.7812 14.9375 11.25 15.2188C11.6875 15.5 12 15.9688 12 16.5Z" fill="black" fill-opacity="0.72"/>
</g>
<defs>
<clipPath id="clip0_2556_15196">
<rect width="14" height="24" fill="white"/>
</clipPath>
</defs>
</svg>
