<svg width="24" height="36" viewBox="0 0 24 36" fill="none" xmlns="http://www.w3.org/2000/svg">
<g id="label-paired / xl / file-doc-xl / regular" clip-path="url(#clip0_2365_895)">
<path id="icon" d="M3 28.5H4.5V30H3C2.15625 29.9688 1.45312 29.6719 0.890625 29.1094C0.328125 28.5469 0.03125 27.8438 0 27V9C0.03125 8.15625 0.328125 7.45312 0.890625 6.89062C1.45312 6.32812 2.15625 6.03125 3 6H10.3125C10.9375 6 11.4688 6.21875 11.9062 6.65625L17.3438 12.0938C17.7812 12.5312 18 13.0625 18 13.6875V19.5H16.5V15H11.25C10.625 14.9688 10.0938 14.75 9.65625 14.3438C9.25 13.9062 9.03125 13.375 9 12.75V7.5H3C2.5625 7.5 2.20312 7.64062 1.92188 7.92188C1.64062 8.20312 1.5 8.5625 1.5 9V27C1.5 27.4375 1.64062 27.7969 1.92188 28.0781C2.20312 28.3594 2.5625 28.5 3 28.5ZM16.5 13.5C16.4375 13.375 16.3594 13.2656 16.2656 13.1719L10.8281 7.73438C10.7344 7.64062 10.625 7.57813 10.5 7.54688V12.75C10.5312 13.2188 10.7812 13.4688 11.25 13.5H16.5ZM8.25 22.5H9.75C10.375 22.5312 10.9062 22.75 11.3438 23.1562C11.75 23.5938 11.9688 24.125 12 24.75V27.75C11.9688 28.375 11.75 28.9062 11.3438 29.3438C10.9062 29.75 10.375 29.9688 9.75 30H8.25C7.78125 29.9688 7.53125 29.7188 7.5 29.25V23.25C7.53125 22.7812 7.78125 22.5312 8.25 22.5ZM9 28.5H9.75C10.2188 28.4688 10.4688 28.2188 10.5 27.75V24.75C10.4688 24.2812 10.2188 24.0312 9.75 24H9V28.5ZM21.375 22.5H22.125C22.6562 22.5 23.0938 22.6875 23.4375 23.0625C23.8125 23.4062 24 23.8438 24 24.375V24.75C23.9688 25.2188 23.7188 25.4688 23.25 25.5C22.7812 25.4688 22.5312 25.2188 22.5 24.75V24.375C22.4688 24.1562 22.3438 24.0312 22.125 24H21.375C21.1562 24.0312 21.0312 24.1562 21 24.375V28.125C21.0312 28.3438 21.1562 28.4688 21.375 28.5H22.125C22.3438 28.4688 22.4688 28.3438 22.5 28.125V27.75C22.5312 27.2812 22.7812 27.0312 23.25 27C23.7188 27.0312 23.9688 27.2812 24 27.75V28.125C24 28.6562 23.8125 29.0938 23.4375 29.4375C23.0938 29.8125 22.6562 30 22.125 30H21.375C20.8438 30 20.4062 29.8125 20.0625 29.4375C19.6875 29.0938 19.5 28.6562 19.5 28.125V24.375C19.5 23.8438 19.6875 23.4062 20.0625 23.0625C20.4062 22.6875 20.8438 22.5 21.375 22.5ZM13.5 24.375C13.5 23.8438 13.6875 23.4062 14.0625 23.0625C14.4062 22.6875 14.8438 22.5 15.375 22.5H16.125C16.6562 22.5 17.0938 22.6875 17.4375 23.0625C17.8125 23.4062 18 23.8438 18 24.375V28.125C18 28.6562 17.8125 29.0938 17.4375 29.4375C17.0938 29.8125 16.6562 30 16.125 30H15.375C14.8438 30 14.4062 29.8125 14.0625 29.4375C13.6875 29.0938 13.5 28.6562 13.5 28.125V24.375ZM15.375 24C15.1562 24.0312 15.0312 24.1562 15 24.375V28.125C15.0312 28.3438 15.1562 28.4688 15.375 28.5H16.125C16.3438 28.4688 16.4688 28.3438 16.5 28.125V24.375C16.4688 24.1562 16.3438 24.0312 16.125 24H15.375Z" fill="black" fill-opacity="0.72"/>
</g>
<defs>
<clipPath id="clip0_2365_895">
<rect width="24" height="36" fill="white"/>
</clipPath>
</defs>
</svg>
