<svg width="18" height="30" viewBox="0 0 18 30" fill="none" xmlns="http://www.w3.org/2000/svg">
<g id="label-paired / lg / qrcode-lg / bold" clip-path="url(#clip0_2556_17262)">
<path id="icon" d="M5.875 8.625H2.125V12.375H5.875V8.625ZM2.125 6.75H5.875C6.89062 6.75 7.75 7.60938 7.75 8.625V12.375C7.75 13.4297 6.89062 14.25 5.875 14.25H2.125C1.07031 14.25 0.25 13.4297 0.25 12.375V8.625C0.25 7.60938 1.07031 6.75 2.125 6.75ZM5.875 18.625H2.125V22.375H5.875V18.625ZM2.125 16.75H5.875C6.89062 16.75 7.75 17.6094 7.75 18.625V22.375C7.75 23.4297 6.89062 24.25 5.875 24.25H2.125C1.07031 24.25 0.25 23.4297 0.25 22.375V18.625C0.25 17.6094 1.07031 16.75 2.125 16.75ZM12.125 8.625V12.375H15.875V8.625H12.125ZM10.25 8.625C10.25 7.60938 11.0703 6.75 12.125 6.75H15.875C16.8906 6.75 17.75 7.60938 17.75 8.625V12.375C17.75 13.4297 16.8906 14.25 15.875 14.25H12.125C11.0703 14.25 10.25 13.4297 10.25 12.375V8.625ZM3.0625 10.1875C3.0625 9.875 3.33594 9.5625 3.6875 9.5625H4.3125C4.625 9.5625 4.9375 9.875 4.9375 10.1875V10.8125C4.9375 11.1641 4.625 11.4375 4.3125 11.4375H3.6875C3.33594 11.4375 3.0625 11.1641 3.0625 10.8125V10.1875ZM3.6875 19.5625H4.3125C4.625 19.5625 4.9375 19.875 4.9375 20.1875V20.8125C4.9375 21.1641 4.625 21.4375 4.3125 21.4375H3.6875C3.33594 21.4375 3.0625 21.1641 3.0625 20.8125V20.1875C3.0625 19.875 3.33594 19.5625 3.6875 19.5625ZM13.0625 10.1875C13.0625 9.875 13.3359 9.5625 13.6875 9.5625H14.3125C14.625 9.5625 14.9375 9.875 14.9375 10.1875V10.8125C14.9375 11.1641 14.625 11.4375 14.3125 11.4375H13.6875C13.3359 11.4375 13.0625 11.1641 13.0625 10.8125V10.1875ZM10.25 17.375C10.25 17.0625 10.5234 16.75 10.875 16.75H13.375C13.6875 16.75 14 17.0625 14 17.375C14 17.7266 14.2734 18 14.625 18H15.875C16.1875 18 16.5 17.7266 16.5 17.375C16.5 17.0625 16.7734 16.75 17.125 16.75C17.4375 16.75 17.75 17.0625 17.75 17.375V21.125C17.75 21.4766 17.4375 21.75 17.125 21.75H14.625C14.2734 21.75 14 21.4766 14 21.125C14 20.8125 13.6875 20.5 13.375 20.5C13.0234 20.5 12.75 20.8125 12.75 21.125V23.625C12.75 23.9766 12.4375 24.25 12.125 24.25H10.875C10.5234 24.25 10.25 23.9766 10.25 23.625V17.375ZM14.625 23C14.9375 23 15.25 23.3125 15.25 23.625C15.25 23.9766 14.9375 24.25 14.625 24.25C14.2734 24.25 14 23.9766 14 23.625C14 23.3125 14.2734 23 14.625 23ZM17.125 23C17.4375 23 17.75 23.3125 17.75 23.625C17.75 23.9766 17.4375 24.25 17.125 24.25C16.7734 24.25 16.5 23.9766 16.5 23.625C16.5 23.3125 16.7734 23 17.125 23Z" fill="black" fill-opacity="0.72"/>
</g>
<defs>
<clipPath id="clip0_2556_17262">
<rect width="18" height="30" fill="white"/>
</clipPath>
</defs>
</svg>
