<svg width="11" height="22" viewBox="0 0 11 22" fill="none" xmlns="http://www.w3.org/2000/svg">
<g id="label-paired / sm / arrow-up-sm / bold" clip-path="url(#clip0_2556_12973)">
<path id="icon" d="M5.96484 4.84375L10.5586 9.65625C10.8047 9.92969 10.8047 10.3398 10.5312 10.5859C10.2578 10.832 9.84766 10.832 9.60156 10.5586L6.15625 6.92188V16.2188C6.15625 16.6016 5.85547 16.875 5.5 16.875C5.11719 16.875 4.84375 16.6016 4.84375 16.2188V6.92188L1.37109 10.5586C1.125 10.832 0.714844 10.832 0.441406 10.5859C0.167969 10.3398 0.167969 9.90234 0.414062 9.65625L5.00781 4.84375C5.14453 4.70703 5.30859 4.625 5.5 4.625C5.66406 4.625 5.82812 4.70703 5.96484 4.84375Z" fill="black" fill-opacity="0.72"/>
</g>
<defs>
<clipPath id="clip0_2556_12973">
<rect width="11" height="22" fill="white"/>
</clipPath>
</defs>
</svg>
