<svg width="24" height="36" viewBox="0 0 24 36" fill="none" xmlns="http://www.w3.org/2000/svg">
<g id="label-paired / xl / circle-arrow-up-right-xl / fill" clip-path="url(#clip0_2556_19629)">
<path id="icon" d="M0 18C0 13.7344 2.25 9.79688 6 7.64062C9.70312 5.48438 14.25 5.48438 18 7.64062C21.7031 9.79688 24 13.7344 24 18C24 22.3125 21.7031 26.25 18 28.4062C14.25 30.5625 9.70312 30.5625 6 28.4062C2.25 26.25 0 22.3125 0 18ZM17.25 21V13.875C17.25 13.2656 16.7344 12.75 16.125 12.75H8.625C7.96875 12.75 7.5 13.2656 7.5 13.875C7.5 14.5312 7.96875 15 8.625 15L13.4062 15.0469L7.07812 21.375C6.60938 21.7969 6.60938 22.5 7.07812 22.9219C7.5 23.3906 8.20312 23.3906 8.67188 22.9219L15 16.5938V21C15 21.6562 15.4688 22.125 16.125 22.125C16.7344 22.125 17.25 21.6562 17.25 21Z" fill="black" fill-opacity="0.72"/>
</g>
<defs>
<clipPath id="clip0_2556_19629">
<rect width="24" height="36" fill="white"/>
</clipPath>
</defs>
</svg>
