<svg width="30" height="36" viewBox="0 0 30 36" fill="none" xmlns="http://www.w3.org/2000/svg">
<g id="label-paired / xl / passkey-xl / bold" clip-path="url(#clip0_2556_19675)">
<path id="icon" d="M13.9688 17.5781C12.8906 17.5781 11.9062 17.25 11.0625 16.5938C10.875 16.4531 10.7344 16.3125 10.5469 16.1719C9.60938 15.2344 9.14062 14.0625 9.14062 12.75C9.14062 11.3906 9.60938 10.2656 10.5469 9.32812C11.4844 8.39062 12.6562 7.92188 13.9688 7.92188C15.3281 7.92188 16.4531 8.39062 17.3906 9.32812C18.375 10.2656 18.8438 11.4375 18.8438 12.75C18.8438 14.0625 18.375 15.2344 17.3906 16.1719C17.25 16.3125 17.1094 16.4531 16.9688 16.5938C16.7812 16.7344 16.5938 16.8281 16.4062 16.9688C16.0312 17.2031 15.6094 17.3438 15.1406 17.4844C14.7656 17.5312 14.3906 17.5781 13.9688 17.5781ZM15.7969 14.5781C16.3594 14.0625 16.5938 13.5 16.5938 12.75C16.5938 12.0469 16.3594 11.4844 15.7969 10.9219C15.2812 10.4062 14.7188 10.1719 13.9688 10.1719C13.2188 10.1719 12.6562 10.4062 12.1406 10.9219C11.625 11.4375 11.3906 12 11.3906 12.75C11.3906 13.4531 11.625 14.0625 12.1406 14.5781C12.6562 15.0938 13.2656 15.3281 13.9688 15.3281C14.7188 15.3281 15.2812 15.0938 15.7969 14.5781ZM10.5469 19.0312L10.5938 18.9844C11.6719 18.75 12.7969 18.6094 13.9219 18.6094H13.9688C14.0625 18.6094 14.1094 18.6094 14.2031 18.6094C14.4844 18.6094 14.7656 18.6094 15.0469 18.6562C15.4219 18.6562 15.7969 18.7031 16.1719 18.75C16.125 19.0312 16.125 19.2656 16.125 19.5C16.1719 20.3438 16.4062 21.0938 16.7344 21.8438C17.25 22.7812 17.9531 23.5781 18.8438 24.1406V27.2812H5.10938V23.5781C5.10938 22.875 5.29688 22.2188 5.67188 21.6094C6.09375 21 6.5625 20.5312 7.21875 20.2031C8.29688 19.6875 9.375 19.2656 10.5469 18.9844V19.0312ZM13.9688 20.8594C12.9844 20.8594 12 20.9531 11.0625 21.1875C10.0781 21.4219 9.14062 21.75 8.20312 22.2188C7.96875 22.3594 7.78125 22.5469 7.59375 22.7812C7.45312 23.0625 7.35938 23.2969 7.35938 23.5781V25.0312H16.3594C15.7031 24.4219 15.1875 23.6719 14.7656 22.8281C14.4375 22.2188 14.2031 21.5156 14.0625 20.8594H13.9688ZM22.5469 29.6719L20.8594 28.0312V22.9219C20.0625 22.6875 19.4062 22.2188 18.8906 21.5625C18.375 20.8594 18.1406 20.1094 18.1406 19.2188C18.1406 18.1406 18.5156 17.25 19.2656 16.5C20.0156 15.75 20.9062 15.375 21.9844 15.375C23.0625 15.375 23.9531 15.75 24.7031 16.5C25.4531 17.25 25.8281 18.1875 25.8281 19.2188C25.8281 20.0625 25.5938 20.7656 25.1719 21.4219C24.7031 22.0312 24.1406 22.5 23.3906 22.7812L24.75 24.1875L23.0625 25.8281L24.75 27.4688L22.5469 29.6719ZM21.9844 19.7812C22.4062 19.7812 22.7812 19.5938 22.9688 19.2656C23.2031 18.8906 23.2031 18.4688 22.9688 18.0938C22.7812 17.7656 22.4062 17.5312 21.9844 17.5781C21.5625 17.5312 21.1875 17.7656 20.9531 18.0938C20.7656 18.4688 20.7656 18.8906 20.9531 19.2656C21.1875 19.5938 21.5625 19.7812 21.9844 19.7812Z" fill="black" fill-opacity="0.72"/>
</g>
<defs>
<clipPath id="clip0_2556_19675">
<rect width="30" height="36" fill="white"/>
</clipPath>
</defs>
</svg>
