<svg width="14" height="18" viewBox="0 0 14 18" fill="none" xmlns="http://www.w3.org/2000/svg">
<g id="label-paired / caption / arrow-up-one-nine-caption / bold" clip-path="url(#clip0_2556_10187)">
<path id="icon" d="M10.9375 4.8125V7.625H11.5C11.8047 7.625 12.0625 7.88281 12.0625 8.1875C12.0625 8.51562 11.8047 8.75 11.5 8.75H10.375H9.25C8.92188 8.75 8.6875 8.51562 8.6875 8.1875C8.6875 7.88281 8.92188 7.625 9.25 7.625H9.8125V5.60938L9.41406 5.72656C9.13281 5.82031 8.80469 5.67969 8.71094 5.375C8.61719 5.07031 8.75781 4.76562 9.0625 4.67188L10.1875 4.29688C10.3516 4.22656 10.5391 4.25 10.7031 4.36719C10.8438 4.46094 10.9375 4.64844 10.9375 4.8125ZM3.60156 4.41406C3.8125 4.20312 4.16406 4.20312 4.375 4.41406L6.625 6.66406C6.85938 6.89844 6.85938 7.25 6.625 7.46094C6.41406 7.69531 6.0625 7.69531 5.85156 7.46094L4.5625 6.17188V14.1875C4.5625 14.5156 4.30469 14.75 4 14.75C3.67188 14.75 3.4375 14.5156 3.4375 14.1875V6.17188L2.14844 7.46094C1.91406 7.69531 1.5625 7.69531 1.35156 7.46094C1.11719 7.25 1.11719 6.89844 1.35156 6.6875L3.60156 4.4375V4.41406ZM10.1875 10.625C9.83594 10.625 9.53125 10.8125 9.36719 11.0938C9.20312 11.3984 9.20312 11.75 9.36719 12.0312C9.53125 12.3359 9.83594 12.5 10.1875 12.5C10.5156 12.5 10.8203 12.3359 10.9844 12.0312C11.1484 11.75 11.1484 11.3984 10.9844 11.0938C10.8203 10.8125 10.5156 10.625 10.1875 10.625ZM9.76562 13.6016C8.82812 13.3906 8.125 12.5703 8.125 11.5625C8.125 10.4375 9.03906 9.5 10.1875 9.5C11.3125 9.5 12.25 10.4375 12.25 11.5625C12.25 12.0781 12.0625 12.5469 11.7578 12.9219L10.4219 14.5625C10.2344 14.7969 9.88281 14.8203 9.625 14.6328C9.39062 14.4453 9.36719 14.0938 9.55469 13.8359L9.76562 13.6016Z" fill="black" fill-opacity="0.72"/>
</g>
<defs>
<clipPath id="clip0_2556_10187">
<rect width="14" height="18" fill="white"/>
</clipPath>
</defs>
</svg>
