<svg width="14" height="22" viewBox="0 0 14 22" fill="none" xmlns="http://www.w3.org/2000/svg">
<g id="label-paired / sm / chevrons-right-sm / regular" clip-path="url(#clip0_2556_12657)">
<path id="icon" d="M2.05078 16.3281C1.88672 16.4922 1.58594 16.4922 1.42188 16.3281C1.25781 16.1641 1.25781 15.8633 1.42188 15.6992L6.37109 10.75L1.42188 5.82812C1.25781 5.66406 1.25781 5.36328 1.42188 5.19922C1.58594 5.03516 1.88672 5.03516 2.05078 5.19922L7.30078 10.4492C7.46484 10.6133 7.46484 10.9141 7.30078 11.0781L2.05078 16.3281ZM7.30078 16.3281C7.13672 16.4922 6.83594 16.4922 6.67188 16.3281C6.50781 16.1641 6.50781 15.8633 6.67188 15.6992L11.6211 10.75L6.67188 5.82812C6.50781 5.66406 6.50781 5.36328 6.67188 5.19922C6.83594 5.03516 7.13672 5.03516 7.30078 5.19922L12.5508 10.4492C12.7148 10.6133 12.7148 10.9141 12.5508 11.0781L7.30078 16.3281Z" fill="black" fill-opacity="0.72"/>
</g>
<defs>
<clipPath id="clip0_2556_12657">
<rect width="14" height="22" fill="white"/>
</clipPath>
</defs>
</svg>
