<svg width="27" height="36" viewBox="0 0 27 36" fill="none" xmlns="http://www.w3.org/2000/svg">
<g id="label-paired / xl / presentation-screen-xl / bold" clip-path="url(#clip0_2556_19451)">
<path id="icon" d="M1.125 6H25.875C26.4844 6 27 6.51562 27 7.125C27 7.78125 26.4844 8.25 25.875 8.25H1.125C0.46875 8.25 0 7.78125 0 7.125C0 6.51562 0.46875 6 1.125 6ZM1.5 9.75H3.75V19.875C3.75 20.1094 3.89062 20.25 4.125 20.25H13.5H22.875C23.0625 20.25 23.25 20.1094 23.25 19.875V9.75H25.5V19.875C25.5 21.3281 24.2812 22.5 22.875 22.5H14.5781V24.7031L18 28.125C18.4688 28.5469 18.4688 29.25 18 29.6719C17.5781 30.1406 16.875 30.1406 16.4062 29.6719L13.4531 26.7188L10.5 29.6719C10.0781 30.1406 9.375 30.1406 8.95312 29.6719C8.48438 29.25 8.48438 28.5469 8.95312 28.125L12.375 24.7031V22.5H4.125C2.67188 22.5 1.5 21.3281 1.5 19.875V9.75Z" fill="black" fill-opacity="0.72"/>
</g>
<defs>
<clipPath id="clip0_2556_19451">
<rect width="27" height="36" fill="white"/>
</clipPath>
</defs>
</svg>
