<svg width="30" height="36" viewBox="0 0 30 36" fill="none" xmlns="http://www.w3.org/2000/svg">
<g id="label-paired / xl / light-user-tie-circle-dollar-xl / fill" clip-path="url(#clip0_2556_19263)">
<path id="icon" d="M0 28.5938C0 25.0312 2.39062 22.0781 5.67188 21.2344C6.09375 21.1406 6.42188 21.4219 6.51562 21.7969L8.20312 28.6875L9.79688 22.875L8.90625 21.4219C8.625 20.9062 8.95312 20.25 9.5625 20.25H10.5H11.3906C12 20.25 12.3281 20.9062 12.0469 21.4219L11.1562 22.875L12.75 28.6875L14.4375 21.7969C14.5312 21.4219 14.8594 21.1875 15.2344 21.2344C15.0469 21.8906 15 22.5469 15 23.25C15 26.0625 16.3594 28.5469 18.4688 30H13.3594H13.125H7.875H7.59375H1.40625C0.609375 30 0 29.3906 0 28.5938ZM4.5 12C4.5 9.89062 5.625 7.875 7.5 6.84375C9.32812 5.76562 11.625 5.76562 13.5 6.84375C15.3281 7.875 16.5 9.89062 16.5 12C16.5 14.1562 15.3281 16.125 13.5 17.2031C11.625 18.2812 9.32812 18.2812 7.5 17.2031C5.625 16.125 4.5 14.1562 4.5 12ZM16.5 23.25C16.5 19.5469 19.5 16.5 23.25 16.5C26.9531 16.5 30 19.5469 30 23.25C30 27 26.9531 30 23.25 30C19.5 30 16.5 27 16.5 23.25ZM20.625 21.9844C20.6719 22.7344 21.1406 23.2031 21.6094 23.4375C22.0312 23.6719 22.5469 23.8125 22.9688 23.9062C22.9688 23.9531 23.0156 23.9531 23.0625 23.9531C23.5312 24.0938 23.9062 24.1875 24.1406 24.3281C24.3281 24.4688 24.375 24.5156 24.375 24.6094C24.375 24.7031 24.3281 24.7969 24.3281 24.7969C24.2812 24.8438 24.2344 24.8906 24.1406 24.9844C23.9062 25.0781 23.5781 25.125 23.25 25.125C22.8281 25.125 22.4062 24.9844 21.8438 24.7969C21.75 24.7969 21.6562 24.75 21.5625 24.75C21.1875 24.6094 20.7656 24.8438 20.625 25.2188C20.5312 25.6406 20.7188 26.0625 21.1406 26.1562C21.1875 26.2031 21.2812 26.2031 21.375 26.25C21.7031 26.3438 22.0781 26.4844 22.5 26.5312V27.0938C22.5 27.5156 22.8281 27.8438 23.25 27.8438C23.625 27.8438 24 27.5156 24 27.0938V26.5781C24.2812 26.5312 24.5625 26.4375 24.8438 26.2969C25.4062 25.9688 25.875 25.4062 25.875 24.5625C25.8281 23.8125 25.3594 23.3438 24.8906 23.0625C24.4688 22.7812 23.9062 22.6406 23.4844 22.5H23.4375C22.9688 22.3594 22.5938 22.2656 22.3125 22.125C22.125 21.9844 22.125 21.9375 22.125 21.8906C22.125 21.7969 22.125 21.75 22.125 21.75C22.1719 21.7031 22.2188 21.6562 22.3594 21.5625C22.5938 21.4688 22.9219 21.375 23.2031 21.375C23.625 21.375 24 21.4688 24.4688 21.5625C24.8438 21.7031 25.2656 21.4219 25.3594 21.0469C25.4531 20.625 25.2188 20.2031 24.7969 20.1094C24.5625 20.0625 24.2812 20.0156 24 19.9688V19.5C24 19.0781 23.625 18.75 23.25 18.75C22.8281 18.75 22.5 19.0781 22.5 19.5V19.9688C22.1719 20.0156 21.8906 20.1094 21.6562 20.25C21.0938 20.5312 20.5781 21.0938 20.625 21.9844Z" fill="black" fill-opacity="0.72"/>
</g>
<defs>
<clipPath id="clip0_2556_19263">
<rect width="30" height="36" fill="white"/>
</clipPath>
</defs>
</svg>
