<svg width="24" height="36" viewBox="0 0 24 36" fill="none" xmlns="http://www.w3.org/2000/svg">
<g id="label-paired / xl / circle-four-xl / regular" clip-path="url(#clip0_2556_19545)">
<path id="icon" d="M22.5 18C22.5 14.25 20.4844 10.8281 17.25 8.95312C13.9688 7.03125 9.98438 7.03125 6.75 8.95312C3.46875 10.8281 1.5 14.25 1.5 18C1.5 21.7969 3.46875 25.2188 6.75 27.0938C9.98438 29.0156 13.9688 29.0156 17.25 27.0938C20.4844 25.2188 22.5 21.7969 22.5 18ZM0 18C0 13.7344 2.25 9.79688 6 7.64062C9.70312 5.48438 14.25 5.48438 18 7.64062C21.7031 9.79688 24 13.7344 24 18C24 22.3125 21.7031 26.25 18 28.4062C14.25 30.5625 9.70312 30.5625 6 28.4062C2.25 26.25 0 22.3125 0 18ZM10.7344 12.0938C11.1562 12.2344 11.3438 12.6562 11.1562 13.0312L8.57812 19.5H13.5V15.75C13.5 15.375 13.8281 15 14.25 15C14.625 15 15 15.375 15 15.75V19.5H15.75C16.125 19.5 16.5 19.875 16.5 20.25C16.5 20.6719 16.125 21 15.75 21H15V23.25C15 23.6719 14.625 24 14.25 24C13.8281 24 13.5 23.6719 13.5 23.25V21H7.5C7.21875 21 6.98438 20.9062 6.84375 20.6719C6.70312 20.4844 6.70312 20.2031 6.79688 20.0156L9.79688 12.5156C9.9375 12.0938 10.3594 11.9062 10.7812 12.0938H10.7344Z" fill="black" fill-opacity="0.72"/>
</g>
<defs>
<clipPath id="clip0_2556_19545">
<rect width="24" height="36" fill="white"/>
</clipPath>
</defs>
</svg>
