<svg width="16" height="24" viewBox="0 0 16 24" fill="none" xmlns="http://www.w3.org/2000/svg">
<g id="label-paired / md / deriv-brand-logo-md / fill" clip-path="url(#clip0_5147_440)">
<path id="icon" d="M11.6875 15.9375L11.6562 16.0938C11.2812 17.6562 9.8125 18.9062 8.21875 19H8.0625H5.96875H5.75C3.53125 18.875 2.0625 17.0312 2.46875 14.7812L2.65625 13.7812C3.0625 11.5312 5.15625 9.65625 7.40625 9.5625L7.625 9.53125H10.125L10.875 5.46875L13.5938 5L11.6875 15.9375ZM7.3125 12.0625C6.3125 12.1562 5.4375 13 5.25 13.9688L5.15625 14.5938C4.96875 15.625 5.65625 16.5 6.71875 16.5H8C8.5 16.5 8.96875 16.0625 9.09375 15.5625L9.6875 12.0625H7.5H7.3125Z" fill="black" fill-opacity="0.72"/>
</g>
<defs>
<clipPath id="clip0_5147_440">
<rect width="16" height="24" fill="white"/>
</clipPath>
</defs>
</svg>
