<svg width="13" height="22" viewBox="0 0 13 22" fill="none" xmlns="http://www.w3.org/2000/svg">
<g id="label-paired / sm / flag-checkered-sm / bold" clip-path="url(#clip0_2556_12726)">
<path id="icon" d="M1.03125 3.75C1.38672 3.75 1.6875 4.05078 1.6875 4.40625V5.17188L4.01172 4.59766C5.05078 4.35156 6.14453 4.46094 7.10156 4.95312C8.35938 5.58203 9.86328 5.58203 11.1211 4.95312L11.3945 4.81641C11.9414 4.54297 12.625 4.95312 12.625 5.58203V13.2109C12.625 13.5938 12.3789 13.9219 12.0508 14.0312L11.0938 14.3867C9.83594 14.8789 8.41406 14.7969 7.21094 14.1953C6.17188 13.6758 4.99609 13.5391 3.875 13.8125L1.6875 14.3594V17.0938C1.6875 17.4766 1.38672 17.75 1.03125 17.75C0.648438 17.75 0.375 17.4766 0.375 17.0938V14.6875V13.3477V5.5V4.40625C0.375 4.05078 0.648438 3.75 1.03125 3.75ZM1.6875 7.87891L3.875 7.41406V5.99219L1.6875 6.53906V7.87891ZM1.6875 9.21875V10.5039L3.875 10.0391V8.75391L1.6875 9.21875ZM1.6875 11.8438V13.0195L3.54688 12.5547C3.65625 12.5273 3.76562 12.5 3.875 12.4727V11.3789L1.6875 11.8438ZM5.1875 12.3633C6.08984 12.3906 6.96484 12.6094 7.8125 13.0195V11.6523L6.28125 11.2148C5.92578 11.1055 5.54297 11.0781 5.1875 11.1055V12.3633ZM9.125 13.375C9.61719 13.4297 10.1367 13.3477 10.6289 13.1562L11.3125 12.9102V11.625L10.6016 11.7891C10.1094 11.9258 9.61719 11.9531 9.125 11.9258V13.375ZM11.3125 10.2852V9L10.6016 9.16406C10.1094 9.30078 9.61719 9.32812 9.125 9.30078V10.6133C9.50781 10.6406 9.91797 10.6133 10.3008 10.5312L11.3125 10.2852ZM11.3125 7.66016V6.29297C10.6016 6.59375 9.86328 6.73047 9.125 6.73047V7.96094C9.50781 8.01562 9.91797 7.98828 10.3008 7.90625L11.3125 7.66016ZM7.8125 6.59375C7.34766 6.48438 6.9375 6.32031 6.52734 6.12891C6.08984 5.91016 5.625 5.80078 5.1875 5.77344V7.16797C5.67969 7.14062 6.17188 7.19531 6.66406 7.33203L7.8125 7.66016V6.59375ZM7.8125 9.02734L6.28125 8.58984C5.92578 8.48047 5.54297 8.45312 5.1875 8.48047V9.79297C5.67969 9.76562 6.17188 9.82031 6.66406 9.95703L7.8125 10.2852V9.02734Z" fill="black" fill-opacity="0.72"/>
</g>
<defs>
<clipPath id="clip0_2556_12726">
<rect width="13" height="22" fill="white"/>
</clipPath>
</defs>
</svg>
