<svg width="14" height="22" viewBox="0 0 14 22" fill="none" xmlns="http://www.w3.org/2000/svg">
<g id="label-paired / sm / face-viewfinder-sm / fill" clip-path="url(#clip0_2512_1060)">
<path id="icon" d="M1.53125 3.75H3.71875C4.11979 3.78646 4.33854 4.00521 4.375 4.40625C4.33854 4.80729 4.11979 5.02604 3.71875 5.0625H1.53125C1.40365 5.08073 1.33073 5.15365 1.3125 5.28125V7.46875C1.27604 7.86979 1.05729 8.08854 0.65625 8.125C0.255208 8.08854 0.0364583 7.86979 0 7.46875V5.28125C0.0182292 4.84375 0.164062 4.47917 0.4375 4.1875C0.729167 3.91406 1.09375 3.76823 1.53125 3.75ZM10.2812 3.75H12.4688C12.9062 3.76823 13.2708 3.91406 13.5625 4.1875C13.8359 4.47917 13.9818 4.84375 14 5.28125V7.46875C13.9635 7.86979 13.7448 8.08854 13.3438 8.125C12.9427 8.08854 12.724 7.86979 12.6875 7.46875V5.28125C12.6693 5.15365 12.5964 5.08073 12.4688 5.0625H10.2812C9.88021 5.02604 9.66146 4.80729 9.625 4.40625C9.66146 4.00521 9.88021 3.78646 10.2812 3.75ZM1.3125 14.0312V16.2188C1.33073 16.3464 1.40365 16.4193 1.53125 16.4375H3.71875C4.11979 16.474 4.33854 16.6927 4.375 17.0938C4.33854 17.4948 4.11979 17.7135 3.71875 17.75H1.53125C1.09375 17.7318 0.729167 17.5859 0.4375 17.3125C0.164062 17.0208 0.0182292 16.6562 0 16.2188V14.0312C0.0364583 13.6302 0.255208 13.4115 0.65625 13.375C1.05729 13.4115 1.27604 13.6302 1.3125 14.0312ZM14 14.0312V16.2188C13.9818 16.6562 13.8359 17.0208 13.5625 17.3125C13.2708 17.5859 12.9062 17.7318 12.4688 17.75H10.2812C9.88021 17.7135 9.66146 17.4948 9.625 17.0938C9.66146 16.6927 9.88021 16.474 10.2812 16.4375H12.4688C12.5964 16.4193 12.6693 16.3464 12.6875 16.2188V14.0312C12.724 13.6302 12.9427 13.4115 13.3438 13.375C13.7448 13.4115 13.9635 13.6302 14 14.0312ZM2.625 10.75C2.625 9.96615 2.81641 9.23698 3.19922 8.5625C3.60026 7.88802 4.13802 7.35026 4.8125 6.94922C5.50521 6.56641 6.23438 6.375 7 6.375C7.76562 6.375 8.49479 6.56641 9.1875 6.94922C9.86198 7.35026 10.3997 7.88802 10.8008 8.5625C11.1836 9.23698 11.375 9.96615 11.375 10.75C11.375 11.5339 11.1836 12.263 10.8008 12.9375C10.3997 13.612 9.86198 14.1497 9.1875 14.5508C8.49479 14.9336 7.76562 15.125 7 15.125C6.23438 15.125 5.50521 14.9336 4.8125 14.5508C4.13802 14.1497 3.60026 13.612 3.19922 12.9375C2.81641 12.263 2.625 11.5339 2.625 10.75ZM6.125 9.65625C6.08854 9.25521 5.86979 9.03646 5.46875 9C5.06771 9.03646 4.84896 9.25521 4.8125 9.65625C4.84896 10.0573 5.06771 10.276 5.46875 10.3125C5.86979 10.276 6.08854 10.0573 6.125 9.65625ZM8.53125 10.3125C8.93229 10.276 9.15104 10.0573 9.1875 9.65625C9.15104 9.25521 8.93229 9.03646 8.53125 9C8.13021 9.03646 7.91146 9.25521 7.875 9.65625C7.91146 10.0573 8.13021 10.276 8.53125 10.3125ZM4.64844 11.7617C4.46615 11.9622 4.45703 12.1628 4.62109 12.3633C5.25911 13.0195 6.05208 13.3568 7 13.375C7.94792 13.3568 8.74089 13.0195 9.37891 12.3633C9.54297 12.1628 9.53385 11.9622 9.35156 11.7617C9.15104 11.5794 8.95052 11.5794 8.75 11.7617C8.29427 12.2357 7.71094 12.4818 7 12.5C6.30729 12.4818 5.73307 12.2357 5.27734 11.7617C5.05859 11.5794 4.84896 11.5703 4.64844 11.7344V11.7617Z" fill="black" fill-opacity="0.72"/>
</g>
<defs>
<clipPath id="clip0_2512_1060">
<rect width="14" height="22" fill="white"/>
</clipPath>
</defs>
</svg>
