<svg width="23" height="30" viewBox="0 0 23 30" fill="none" xmlns="http://www.w3.org/2000/svg">
<g id="label-paired / lg / credit-card-lg / regular" clip-path="url(#clip0_2362_705)">
<path id="icon" d="M2.75 8C2.38542 8 2.08594 8.11719 1.85156 8.35156C1.61719 8.58594 1.5 8.88542 1.5 9.25V10.5H21.5V9.25C21.5 8.88542 21.3828 8.58594 21.1484 8.35156C20.9141 8.11719 20.6146 8 20.25 8H2.75ZM1.5 11.75V14.25H21.5V11.75H1.5ZM1.5 15.5V21.75C1.5 22.1146 1.61719 22.4141 1.85156 22.6484C2.08594 22.8828 2.38542 23 2.75 23H20.25C20.6146 23 20.9141 22.8828 21.1484 22.6484C21.3828 22.4141 21.5 22.1146 21.5 21.75V15.5H1.5ZM0.25 9.25C0.276042 8.54688 0.523438 7.96094 0.992188 7.49219C1.46094 7.02344 2.04688 6.77604 2.75 6.75H20.25C20.9531 6.77604 21.5391 7.02344 22.0078 7.49219C22.4766 7.96094 22.724 8.54688 22.75 9.25V21.75C22.724 22.4531 22.4766 23.0391 22.0078 23.5078C21.5391 23.9766 20.9531 24.224 20.25 24.25H2.75C2.04688 24.224 1.46094 23.9766 0.992188 23.5078C0.523438 23.0391 0.276042 22.4531 0.25 21.75V9.25ZM4 19.875C4.02604 19.4844 4.23438 19.276 4.625 19.25H7.125C7.51562 19.276 7.72396 19.4844 7.75 19.875C7.72396 20.2656 7.51562 20.474 7.125 20.5H4.625C4.23438 20.474 4.02604 20.2656 4 19.875ZM9 19.875C9.02604 19.4844 9.23438 19.276 9.625 19.25H14.625C15.0156 19.276 15.224 19.4844 15.25 19.875C15.224 20.2656 15.0156 20.474 14.625 20.5H9.625C9.23438 20.474 9.02604 20.2656 9 19.875Z" fill="black" fill-opacity="0.72"/>
</g>
<defs>
<clipPath id="clip0_2362_705">
<rect width="23" height="30" fill="white"/>
</clipPath>
</defs>
</svg>
