<svg width="12" height="24" viewBox="0 0 12 24" fill="none" xmlns="http://www.w3.org/2000/svg">
<g id="label-paired / md / mobile-notch-md / fill" clip-path="url(#clip0_2556_14905)">
<path id="icon" d="M4 6H3C2.71875 6 2.5 6.25 2.5 6.5V17.5C2.5 17.7812 2.71875 18 3 18H9C9.25 18 9.5 17.7812 9.5 17.5V6.5C9.5 6.25 9.25 6 9 6H8V6.5C8 6.78125 7.75 7 7.5 7H4.5C4.21875 7 4 6.78125 4 6.5V6ZM3 4H9C10.375 4 11.5 5.125 11.5 6.5V17.5C11.5 18.9062 10.375 20 9 20H3C1.59375 20 0.5 18.9062 0.5 17.5V6.5C0.5 5.125 1.59375 4 3 4ZM4 16.5C4 16.25 4.21875 16 4.5 16H7.5C7.75 16 8 16.25 8 16.5C8 16.7812 7.75 17 7.5 17H4.5C4.21875 17 4 16.7812 4 16.5Z" fill="black" fill-opacity="0.72"/>
</g>
<defs>
<clipPath id="clip0_2556_14905">
<rect width="12" height="24" fill="white"/>
</clipPath>
</defs>
</svg>
