<svg width="14" height="22" viewBox="0 0 14 22" fill="none" xmlns="http://www.w3.org/2000/svg">
<g id="label-paired / sm / thumbs-down-sm / regular" clip-path="url(#clip0_2556_12733)">
<path id="icon" d="M7.875 15.5352C7.98438 15.8906 8.33984 16.082 8.69531 16C9.05078 15.8906 9.24219 15.5352 9.16016 15.1797L9.02344 14.7422C8.88672 14.168 8.64062 13.6484 8.33984 13.1836C8.25781 13.0469 8.25781 12.8828 8.33984 12.7461C8.42188 12.582 8.55859 12.5 8.72266 12.5H12.25C12.7148 12.5 13.125 12.1172 13.125 11.625C13.125 11.3242 12.9609 11.0508 12.7148 10.8867C12.5234 10.7773 12.4414 10.5039 12.5508 10.3125C12.6328 10.1758 12.6875 10.0391 12.6875 9.875C12.6875 9.54688 12.4961 9.24609 12.1953 9.10938C12.0859 9.05469 12.0039 8.94531 11.9766 8.80859C11.9492 8.67188 11.9766 8.5625 12.0586 8.45312C12.168 8.28906 12.25 8.125 12.25 7.90625C12.25 7.52344 11.9766 7.19531 11.6484 7.08594C11.4297 7.00391 11.293 6.78516 11.3477 6.56641C11.3477 6.51172 11.375 6.45703 11.375 6.375C11.375 5.91016 10.9648 5.5 10.5 5.5H8.03906C7.60156 5.5 7.19141 5.63672 6.83594 5.88281L5.76953 6.59375C5.52344 6.75781 5.33203 6.94922 5.16797 7.19531C5.03125 7.41406 4.75781 7.46875 4.56641 7.33203C4.34766 7.19531 4.29297 6.92188 4.42969 6.73047C4.64844 6.375 4.94922 6.07422 5.27734 5.85547L6.34375 5.14453C6.83594 4.81641 7.4375 4.625 8.03906 4.625H10.5C11.457 4.625 12.25 5.41797 12.25 6.375V6.40234C12.7695 6.70312 13.125 7.27734 13.125 7.90625C13.125 8.15234 13.0703 8.39844 12.9883 8.58984C13.3164 8.91797 13.5625 9.38281 13.5625 9.875C13.5625 10.0664 13.5352 10.2305 13.4805 10.3945C13.7812 10.7227 14 11.1602 14 11.625C14 12.6094 13.207 13.375 12.25 13.375H9.46094C9.625 13.7578 9.76172 14.1133 9.87109 14.4961L10.0078 14.9609C10.2266 15.7812 9.73438 16.6016 8.91406 16.8477C8.09375 17.0664 7.27344 16.5742 7.02734 15.7539L6.91797 15.3164C6.67188 14.4141 6.09766 13.6484 5.33203 13.1562L5.25 13.1016L5.46875 12.7461L5.25 13.1016C4.92188 12.8828 4.64844 12.6367 4.42969 12.3359C4.29297 12.1172 4.34766 11.8438 4.53906 11.707C4.73047 11.5703 5.00391 11.625 5.14062 11.8164C5.30469 12.0352 5.49609 12.2266 5.71484 12.3633L5.79688 12.418C6.75391 13.0195 7.46484 13.9766 7.76562 15.0703L7.875 15.5352ZM0.875 13.375H2.625V7.25H0.875V13.375ZM0 13.375V7.25C0 6.78516 0.382812 6.375 0.875 6.375H2.625C3.08984 6.375 3.5 6.78516 3.5 7.25V13.375C3.5 13.8672 3.08984 14.25 2.625 14.25H0.875C0.382812 14.25 0 13.8672 0 13.375Z" fill="black" fill-opacity="0.72"/>
</g>
<defs>
<clipPath id="clip0_2556_12733">
<rect width="14" height="22" fill="white"/>
</clipPath>
</defs>
</svg>
