<svg width="16" height="24" viewBox="0 0 16 24" fill="none" xmlns="http://www.w3.org/2000/svg">
<g id="label-paired / md / circle-ellipsis-md / regular" clip-path="url(#clip0_2556_15108)">
<path id="icon" d="M8 19C10.5 19 12.7812 17.6875 14.0312 15.5C15.3125 13.3438 15.3125 10.6875 14.0312 8.5C12.7812 6.34375 10.5 5 8 5C5.46875 5 3.1875 6.34375 1.9375 8.5C0.65625 10.6875 0.65625 13.3438 1.9375 15.5C3.1875 17.6875 5.46875 19 8 19ZM8 4C10.8438 4 13.4688 5.53125 14.9062 8C16.3438 10.5 16.3438 13.5312 14.9062 16C13.4688 18.5 10.8438 20 8 20C5.125 20 2.5 18.5 1.0625 16C-0.375 13.5312 -0.375 10.5 1.0625 8C2.5 5.53125 5.125 4 8 4ZM8.75 12C8.75 12.4375 8.40625 12.75 8 12.75C7.5625 12.75 7.25 12.4375 7.25 12C7.25 11.5938 7.5625 11.25 8 11.25C8.40625 11.25 8.75 11.5938 8.75 12ZM11 11.25C11.4062 11.25 11.75 11.5938 11.75 12C11.75 12.4375 11.4062 12.75 11 12.75C10.5625 12.75 10.25 12.4375 10.25 12C10.25 11.5938 10.5625 11.25 11 11.25ZM5.75 12C5.75 12.4375 5.40625 12.75 5 12.75C4.5625 12.75 4.25 12.4375 4.25 12C4.25 11.5938 4.5625 11.25 5 11.25C5.40625 11.25 5.75 11.5938 5.75 12Z" fill="black" fill-opacity="0.72"/>
</g>
<defs>
<clipPath id="clip0_2556_15108">
<rect width="16" height="24" fill="white"/>
</clipPath>
</defs>
</svg>
