<svg width="12" height="18" viewBox="0 0 12 18" fill="none" xmlns="http://www.w3.org/2000/svg">
<g id="label-paired / caption / window-maximize-caption / regular" clip-path="url(#clip0_2556_10645)">
<path id="icon" d="M1.5 5C1.07812 5 0.75 5.35156 0.75 5.75V8H11.25V5.75C11.25 5.35156 10.8984 5 10.5 5H1.5ZM0.75 8.75V13.25C0.75 13.6719 1.07812 14 1.5 14H10.5C10.8984 14 11.25 13.6719 11.25 13.25V8.75H0.75ZM0 5.75C0 4.92969 0.65625 4.25 1.5 4.25H10.5C11.3203 4.25 12 4.92969 12 5.75V13.25C12 14.0938 11.3203 14.75 10.5 14.75H1.5C0.65625 14.75 0 14.0938 0 13.25V5.75Z" fill="black" fill-opacity="0.72"/>
</g>
<defs>
<clipPath id="clip0_2556_10645">
<rect width="12" height="18" fill="white"/>
</clipPath>
</defs>
</svg>
