<svg width="18" height="36" viewBox="0 0 18 36" fill="none" xmlns="http://www.w3.org/2000/svg">
<g id="label-paired / xl / location-dot-xl / fill" clip-path="url(#clip0_2556_19695)">
<path id="icon" d="M10.0781 29.4375C9.51562 30.1406 8.4375 30.1406 7.875 29.4375C5.48438 26.3906 0 19.125 0 15C0 10.0312 4.03125 6 9 6C13.9688 6 18 10.0312 18 15C18 19.125 12.5156 26.3906 10.0781 29.4375ZM9 12C7.92188 12 6.9375 12.6094 6.375 13.5C5.85938 14.4375 5.85938 15.6094 6.375 16.5C6.9375 17.4375 7.92188 18 9 18C10.0312 18 11.0156 17.4375 11.5781 16.5C12.0938 15.6094 12.0938 14.4375 11.5781 13.5C11.0156 12.6094 10.0312 12 9 12Z" fill="black" fill-opacity="0.72"/>
</g>
<defs>
<clipPath id="clip0_2556_19695">
<rect width="18" height="36" fill="white"/>
</clipPath>
</defs>
</svg>
