<svg width="24" height="36" viewBox="0 0 24 36" fill="none" xmlns="http://www.w3.org/2000/svg">
<g id="label-paired / xl / puzzle-piece-two-xl / regular" clip-path="url(#clip0_3909_661)">
<path id="icon" d="M20.7188 22.125C21.2344 22.5469 21.5156 23.2031 21.5156 23.9531C21.5156 24.7031 21.2344 25.3125 20.7188 25.7344C20.25 26.1562 19.5938 26.3906 18.9375 26.4375C18.7969 26.4844 18.6562 26.4375 18.5156 26.3906V27.0469C18.5156 27.6562 18.1875 28.1719 17.7188 28.5469C17.25 28.875 16.6406 29.1094 15.9844 29.1094C15.9375 29.1094 15.8906 29.1094 15.8906 29.0625H14.0156C13.1719 29.0625 12.7969 28.0781 13.3594 27.5156C13.3125 27.0938 13.125 26.7188 12.9375 26.4844C12.7031 26.25 12.375 26.0625 11.9531 26.0625C11.5312 26.0625 11.2031 26.25 11.0156 26.4844C10.7812 26.7188 10.6406 27.0938 10.5938 27.5156C11.1562 28.0781 10.7812 29.0625 9.9375 29.0625H8.0625C8.01562 29.1094 7.96875 29.1094 7.96875 29.1094C7.3125 29.1094 6.65625 28.875 6.23438 28.5469C5.76562 28.1719 5.4375 27.6562 5.4375 27V21C5.4375 20.7188 5.39062 20.5312 5.39062 20.3438C5.39062 20.1094 5.39062 19.9219 5.4375 19.5V18C5.4375 17.9062 5.4375 17.625 5.39062 17.3906V17.3438C5.29688 17.3906 5.15625 17.3906 5.01562 17.3906C4.35938 17.3438 3.70312 17.1094 3.23438 16.7344C2.71875 16.3125 2.39062 15.7031 2.39062 14.9531C2.39062 14.2031 2.71875 13.5938 3.23438 13.2188C3.75 12.8438 4.35938 12.7031 5.01562 12.6562C5.15625 12.6562 5.29688 12.6562 5.39062 12.7031V12.6562C5.39062 12.4219 5.39062 12.1406 5.39062 12C5.39062 11.3906 5.76562 10.875 6.23438 10.5C6.70312 10.1719 7.3125 9.9375 7.96875 9.9375H9.51562C9.46875 9.84375 9.46875 9.70312 9.46875 9.5625C9.51562 8.85938 9.75 8.25 10.1719 7.73438C10.5938 7.26562 11.25 6.9375 12 6.9375C12.75 6.9375 13.3594 7.26562 13.7812 7.73438C14.2031 8.25 14.4375 8.85938 14.4844 9.5625C14.5312 9.70312 14.4844 9.84375 14.4375 9.9375H15.9844C16.6406 9.9375 17.2969 10.1719 17.7656 10.5C18.2344 10.875 18.5625 11.3906 18.5625 12V19.5469C18.5625 19.8281 18.5625 19.9688 18.5625 20.1094C18.5156 20.25 18.5156 20.3906 18.5156 20.8594V21.4688C18.6562 21.4219 18.7969 21.4219 18.9375 21.4219C19.5938 21.4688 20.25 21.7031 20.7656 22.125H20.7188ZM7.875 27.9375C7.92188 27.9375 7.92188 27.9375 7.96875 27.9375H9.51562C9.46875 27.8438 9.46875 27.7031 9.46875 27.5625C9.51562 26.8594 9.75 26.25 10.1719 25.7344C10.5938 25.2656 11.2031 24.9375 11.9531 24.9375C12.7031 24.9375 13.3594 25.2656 13.7812 25.7344C14.2031 26.25 14.4375 26.8594 14.4844 27.5625C14.4844 27.7031 14.4844 27.8438 14.4375 27.9375H15.9844H16.0312C16.4531 27.9375 16.8281 27.7969 17.0625 27.6562C17.2969 27.4219 17.4375 27.2344 17.4375 27.0469V25.9688C17.4375 25.125 18.4219 24.75 18.9844 25.3125C19.4062 25.2656 19.7812 25.125 20.0156 24.8906C20.25 24.7031 20.4375 24.375 20.4375 23.9531C20.4375 23.4844 20.25 23.2031 20.0156 22.9688C19.7812 22.7812 19.4062 22.5938 18.9844 22.5469C18.4219 23.1094 17.4375 22.7344 17.4375 21.8906V20.8594C17.4375 20.3906 17.4375 20.25 17.4375 20.0625H14.0156C13.2188 20.0625 12.7969 19.0781 13.3594 18.5156C13.3125 18.0938 13.1719 17.7188 12.9375 17.4844C12.7031 17.25 12.4219 17.0625 12 17.0625C11.5312 17.0625 11.25 17.25 11.0156 17.4844C10.8281 17.7188 10.6406 18.0938 10.5938 18.5156C11.1562 19.0781 10.7812 20.0625 9.9375 20.0625H6.5625C6.5625 20.1562 6.5625 20.25 6.5625 20.2969C6.5625 20.4844 6.5625 20.6719 6.5625 21V27C6.5625 27.1875 6.65625 27.4219 6.89062 27.6094C7.125 27.7969 7.5 27.9375 7.875 27.9375ZM6.5625 18.9375H9.51562C9.46875 18.8438 9.46875 18.7031 9.46875 18.5625C9.51562 17.8594 9.75 17.25 10.1719 16.7344C10.5938 16.2656 11.2031 15.9375 11.9531 15.9375C12.7031 15.9375 13.3594 16.2656 13.7812 16.7344C14.2031 17.25 14.4375 17.8594 14.4844 18.5625C14.4844 18.7031 14.4844 18.8438 14.4375 18.9375H17.4375V12C17.4375 11.8125 17.3438 11.625 17.0625 11.3906C16.8281 11.2031 16.4531 11.0625 15.9844 11.0625H14.0156C13.1719 11.0625 12.7969 10.0781 13.3594 9.51562C13.3125 9.09375 13.1719 8.71875 12.9375 8.48438C12.75 8.25 12.4219 8.0625 12 8.0625C11.5781 8.0625 11.25 8.25 11.0156 8.48438C10.8281 8.71875 10.6406 9.09375 10.5938 9.51562C11.1562 10.0781 10.7812 11.0625 9.9375 11.0625H7.96875C7.54688 11.0625 7.17188 11.2031 6.89062 11.3906C6.65625 11.625 6.5625 11.8125 6.5625 12V12.0469C6.5625 12.1406 6.5625 12.4688 6.51562 12.75C6.46875 12.9375 6.46875 13.0781 6.42188 13.2656C6.375 13.4062 6.28125 13.6406 6.04688 13.7812C5.85938 13.9219 5.67188 13.9688 5.53125 13.9219C5.34375 13.9219 5.25 13.875 5.15625 13.8281C5.15625 13.8281 5.10938 13.8281 5.10938 13.7812C5.0625 13.7812 5.0625 13.7812 5.0625 13.7812C4.54688 13.8281 4.17188 13.9688 3.89062 14.1094C3.70312 14.2969 3.5625 14.5312 3.5625 14.9531C3.5625 15.375 3.70312 15.6562 3.9375 15.8438C4.17188 16.0781 4.54688 16.2188 5.0625 16.2656C5.0625 16.2656 5.0625 16.2656 5.10938 16.2656C5.10938 16.2188 5.15625 16.2188 5.15625 16.2188C5.25 16.1719 5.34375 16.125 5.53125 16.125C5.67188 16.0781 5.85938 16.125 6.04688 16.2656C6.28125 16.4062 6.375 16.6406 6.42188 16.7812C6.46875 16.9219 6.46875 17.1094 6.51562 17.2969C6.5625 17.5781 6.5625 17.9062 6.5625 18V18.9844V18.9375Z" fill="black" fill-opacity="0.72"/>
</g>
<defs>
<clipPath id="clip0_3909_661">
<rect width="24" height="36" fill="white"/>
</clipPath>
</defs>
</svg>
