<svg width="12" height="18" viewBox="0 0 12 18" fill="none" xmlns="http://www.w3.org/2000/svg">
<g id="label-paired / caption / right-to-bracket-caption / fill" clip-path="url(#clip0_2556_10515)">
<path id="icon" d="M5.08594 5.98438L7.96875 8.86719C8.13281 9.03125 8.25 9.26562 8.25 9.5C8.25 9.75781 8.13281 9.99219 7.96875 10.1562L5.08594 13.0391C4.94531 13.1797 4.73438 13.25 4.52344 13.25C4.10156 13.25 3.75 12.8984 3.75 12.4766V11H0.75C0.328125 11 0 10.6719 0 10.25V8.75C0 8.35156 0.328125 8 0.75 8H3.75V6.54688C3.75 6.125 4.10156 5.75 4.52344 5.75C4.73438 5.75 4.94531 5.84375 5.08594 5.98438ZM8.25 13.25H9.75C10.1484 13.25 10.5 12.9219 10.5 12.5V6.5C10.5 6.10156 10.1484 5.75 9.75 5.75H8.25C7.82812 5.75 7.5 5.42188 7.5 5C7.5 4.60156 7.82812 4.25 8.25 4.25H9.75C10.9922 4.25 12 5.25781 12 6.5V12.5C12 13.7422 10.9922 14.75 9.75 14.75H8.25C7.82812 14.75 7.5 14.4219 7.5 14C7.5 13.6016 7.82812 13.25 8.25 13.25Z" fill="black" fill-opacity="0.72"/>
</g>
<defs>
<clipPath id="clip0_2556_10515">
<rect width="12" height="18" fill="white"/>
</clipPath>
</defs>
</svg>
