<svg width="16" height="24" viewBox="0 0 16 24" fill="none" xmlns="http://www.w3.org/2000/svg">
<g id="label-paired / md / circle-calendar-md / bold" clip-path="url(#clip0_2556_15175)">
<path id="icon" d="M14.5 12C14.5 9.6875 13.25 7.5625 11.25 6.375C9.21875 5.21875 6.75 5.21875 4.75 6.375C2.71875 7.5625 1.5 9.6875 1.5 12C1.5 14.3438 2.71875 16.4688 4.75 17.6562C6.75 18.8125 9.21875 18.8125 11.25 17.6562C13.25 16.4688 14.5 14.3438 14.5 12ZM0 12C0 9.15625 1.5 6.53125 4 5.09375C6.46875 3.65625 9.5 3.65625 12 5.09375C14.4688 6.53125 16 9.15625 16 12C16 14.875 14.4688 17.5 12 18.9375C9.5 20.375 6.46875 20.375 4 18.9375C1.5 17.5 0 14.875 0 12ZM6.5 7.5C6.75 7.5 7 7.75 7 8V8.5H9V8C9 7.75 9.21875 7.5 9.5 7.5C9.75 7.5 10 7.75 10 8V8.5H10.5C11.3125 8.5 12 9.1875 12 10V11V14C12 14.8438 11.3125 15.5 10.5 15.5H5.5C4.65625 15.5 4 14.8438 4 14V11V10C4 9.1875 4.65625 8.5 5.5 8.5H6V8C6 7.75 6.21875 7.5 6.5 7.5ZM5.5 14H10.5V11H5.5V14Z" fill="black" fill-opacity="0.72"/>
</g>
<defs>
<clipPath id="clip0_2556_15175">
<rect width="16" height="24" fill="white"/>
</clipPath>
</defs>
</svg>
