<svg width="20" height="24" viewBox="0 0 20 24" fill="none" xmlns="http://www.w3.org/2000/svg">
<g id="label-paired / md / wallet-circle-plus-md / fill" clip-path="url(#clip0_2556_14641)">
<path id="icon" d="M0 7C0 5.90625 0.875 5 2 5H14C14.5312 5 15 5.46875 15 6C15 6.5625 14.5312 7 14 7H2.5C2.21875 7 2 7.25 2 7.5C2 7.78125 2.21875 8 2.5 8H14C15.0938 8 16 8.90625 16 10V10.0312C15.8125 10.0312 15.6562 10 15.5 10C12.4375 10 10 12.4688 10 15.5C10 16.8438 10.4688 18.0625 11.25 19H2C0.875 19 0 18.125 0 17V7ZM11 15.5C11 13.0312 13 11 15.5 11C17.9688 11 20 13.0312 20 15.5C20 18 17.9688 20 15.5 20C13 20 11 18 11 15.5ZM13 15.5C13 15.7812 13.2188 16 13.5 16H15V17.5C15 17.7812 15.2188 18 15.5 18C15.75 18 16 17.7812 16 17.5V16H17.5C17.75 16 18 15.7812 18 15.5C18 15.25 17.75 15 17.5 15H16V13.5C16 13.25 15.75 13 15.5 13C15.2188 13 15 13.25 15 13.5V15H13.5C13.2188 15 13 15.25 13 15.5Z" fill="black" fill-opacity="0.72"/>
</g>
<defs>
<clipPath id="clip0_2556_14641">
<rect width="20" height="24" fill="white"/>
</clipPath>
</defs>
</svg>
