<svg width="20" height="30" viewBox="0 0 20 30" fill="none" xmlns="http://www.w3.org/2000/svg">
<g id="label-paired / lg / chevrons-up-lg / regular" clip-path="url(#clip0_2556_17547)">
<path id="icon" d="M10.4297 7.57031L17.9297 15.0703C18.1641 15.3047 18.1641 15.7344 17.9297 15.9688C17.6953 16.2031 17.2656 16.2031 17.0312 15.9688L10 8.89844L2.92969 15.9688C2.69531 16.2031 2.26562 16.2031 2.03125 15.9688C1.79688 15.7344 1.79688 15.3047 2.03125 15.0703L9.53125 7.57031C9.76562 7.33594 10.1953 7.33594 10.4297 7.57031ZM17.9297 22.5703C18.1641 22.8047 18.1641 23.2344 17.9297 23.4688C17.6953 23.7031 17.2656 23.7031 17.0312 23.4688L10 16.3984L2.92969 23.4688C2.69531 23.7031 2.26562 23.7031 2.03125 23.4688C1.79688 23.2344 1.79688 22.8047 2.03125 22.5703L9.53125 15.0703C9.76562 14.8359 10.1953 14.8359 10.4297 15.0703L17.9297 22.5703Z" fill="black" fill-opacity="0.72"/>
</g>
<defs>
<clipPath id="clip0_2556_17547">
<rect width="20" height="30" fill="white"/>
</clipPath>
</defs>
</svg>
