<svg width="12" height="24" viewBox="0 0 12 24" fill="none" xmlns="http://www.w3.org/2000/svg">
<g id="label-paired / md / file-check-md / regular" clip-path="url(#clip0_2556_14559)">
<path id="icon" d="M10 19C10.5312 19 11 18.5625 11 18V10H7.5C6.65625 10 6 9.34375 6 8.5V5H2C1.4375 5 1 5.46875 1 6V18C1 18.5625 1.4375 19 2 19H10ZM7.5 9H10.9688C10.9375 8.9375 10.9062 8.84375 10.8438 8.78125L7.21875 5.15625C7.15625 5.09375 7.0625 5.0625 7 5.03125V8.5C7 8.78125 7.21875 9 7.5 9ZM2 4H6.875C7.25 4 7.65625 4.1875 7.9375 4.46875L11.5312 8.0625C11.8125 8.34375 12 8.75 12 9.125V18C12 19.125 11.0938 20 10 20H2C0.875 20 0 19.125 0 18V6C0 4.90625 0.875 4 2 4ZM8.84375 13.1875L5.5 16.5312C5.3125 16.7188 5 16.7188 4.8125 16.5312L3.125 14.875C2.9375 14.6875 2.9375 14.3438 3.125 14.1562C3.3125 13.9688 3.65625 13.9688 3.84375 14.1562L5.15625 15.4688L8.125 12.5C8.3125 12.3125 8.65625 12.3125 8.84375 12.5C9.03125 12.6875 9.03125 13 8.84375 13.1875Z" fill="black" fill-opacity="0.72"/>
</g>
<defs>
<clipPath id="clip0_2556_14559">
<rect width="12" height="24" fill="white"/>
</clipPath>
</defs>
</svg>
