<svg width="24" height="36" viewBox="0 0 24 36" fill="none" xmlns="http://www.w3.org/2000/svg">
<g id="label-paired / xl / magnifying-glass-minus-xl / bold" clip-path="url(#clip0_3431_1054)">
<path id="icon" d="M9.75 8.25C7.03125 8.25 4.59375 9.70312 3.23438 12C1.875 14.3438 1.875 17.2031 3.23438 19.5C4.59375 21.8438 7.03125 23.25 9.75 23.25C12.4219 23.25 14.8594 21.8438 16.2188 19.5C17.5781 17.2031 17.5781 14.3438 16.2188 12C14.8594 9.70312 12.4219 8.25 9.75 8.25ZM9.75 25.5C4.35938 25.5 0 21.1406 0 15.75C0 10.4062 4.35938 6 9.75 6C15.0938 6 19.5 10.4062 19.5 15.75C19.5 18.0469 18.7031 20.1562 17.3906 21.8438L23.625 28.125C24.0938 28.5469 24.0938 29.25 23.625 29.6719C23.2031 30.1406 22.5 30.1406 22.0781 29.6719L15.7969 23.4375C14.1094 24.75 12 25.5 9.75 25.5ZM6.375 14.625H13.125C13.7344 14.625 14.25 15.1406 14.25 15.75C14.25 16.4062 13.7344 16.875 13.125 16.875H6.375C5.71875 16.875 5.25 16.4062 5.25 15.75C5.25 15.1406 5.71875 14.625 6.375 14.625Z" fill="black" fill-opacity="0.72"/>
</g>
<defs>
<clipPath id="clip0_3431_1054">
<rect width="24" height="36" fill="white"/>
</clipPath>
</defs>
</svg>
