<svg width="15" height="30" viewBox="0 0 15 30" fill="none" xmlns="http://www.w3.org/2000/svg">
<g id="label-paired / lg / file-invoice-dollar-lg / fill" clip-path="url(#clip0_2556_17063)">
<path id="icon" d="M2.5 5.5H8.75V10.5C8.75 11.2031 9.29688 11.75 10 11.75H15V23C15 24.4062 13.8672 25.5 12.5 25.5H2.5C1.09375 25.5 0 24.4062 0 23V8C0 6.63281 1.09375 5.5 2.5 5.5ZM10 5.5L15 10.5H10V5.5ZM2.5 8.625C2.5 8.97656 2.77344 9.25 3.125 9.25H5.625C5.9375 9.25 6.25 8.97656 6.25 8.625C6.25 8.3125 5.9375 8 5.625 8H3.125C2.77344 8 2.5 8.3125 2.5 8.625ZM2.5 11.125C2.5 11.4766 2.77344 11.75 3.125 11.75H5.625C5.9375 11.75 6.25 11.4766 6.25 11.125C6.25 10.8125 5.9375 10.5 5.625 10.5H3.125C2.77344 10.5 2.5 10.8125 2.5 11.125ZM7.5 13.9375C7.14844 13.9375 6.875 14.25 6.875 14.5625V15.2656C6.52344 15.3047 6.21094 15.4219 5.89844 15.5781C5.39062 15.8906 5 16.3984 5 17.1797C5 17.8828 5.39062 18.3516 5.85938 18.625C6.28906 18.8984 6.79688 19.0547 7.22656 19.1719H7.30469C7.77344 19.3281 8.16406 19.4453 8.4375 19.6406C8.67188 19.7578 8.71094 19.9141 8.71094 20.0703C8.75 20.3438 8.63281 20.5 8.4375 20.6172C8.20312 20.7734 7.85156 20.8516 7.5 20.8125C7.03125 20.8125 6.60156 20.6562 6.09375 20.5C5.97656 20.4609 5.89844 20.4219 5.82031 20.3828C5.46875 20.3047 5.11719 20.4609 5 20.7734C4.92188 21.125 5.07812 21.4766 5.39062 21.5938C5.46875 21.5938 5.58594 21.6328 5.66406 21.6719C6.01562 21.7891 6.40625 21.9453 6.875 22.0234V22.6875C6.875 23.0391 7.14844 23.3125 7.5 23.3125C7.8125 23.3125 8.125 23.0391 8.125 22.6875V22.0234C8.4375 21.9844 8.78906 21.8672 9.10156 21.6719C9.60938 21.3594 10 20.8125 10 20.0703C9.96094 19.3281 9.57031 18.8594 9.10156 18.5469C8.67188 18.2734 8.125 18.1172 7.69531 18H7.65625C7.14844 17.8438 6.79688 17.7266 6.52344 17.5703C6.28906 17.4141 6.25 17.2969 6.25 17.1797C6.25 16.9453 6.32812 16.7891 6.5625 16.6719C6.79688 16.5156 7.14844 16.4375 7.46094 16.4375C7.85156 16.4766 8.28125 16.5547 8.71094 16.6719C9.0625 16.75 9.41406 16.5547 9.49219 16.2031C9.57031 15.8906 9.375 15.5391 9.0625 15.4609C8.75 15.3828 8.4375 15.3047 8.125 15.2656V14.5625C8.125 14.25 7.8125 13.9375 7.5 13.9375Z" fill="black" fill-opacity="0.72"/>
</g>
<defs>
<clipPath id="clip0_2556_17063">
<rect width="15" height="30" fill="white"/>
</clipPath>
</defs>
</svg>
