<svg width="30" height="36" viewBox="0 0 30 36" fill="none" xmlns="http://www.w3.org/2000/svg">
<g id="label-paired / xl / take-profit-xl / fill" clip-path="url(#clip0_2556_19905)">
<path id="icon" d="M11.2031 25.0781V14.9531H14.5781V11.0156H3.5625V14.9531H6.9375V25.0781H11.2031ZM14.9531 11.0156H21.6562C22.3125 11.0156 22.9688 11.1562 23.5312 11.3906C24.0938 11.625 24.5625 11.9531 24.9844 12.375C25.4062 12.7969 25.6875 13.3125 25.9219 13.9219C26.1094 14.4844 26.2031 15.1406 26.2031 15.7969C26.2031 16.4531 26.1094 17.1094 25.9219 17.6719C25.6875 18.2812 25.4062 18.75 24.9844 19.2188C24.5625 19.6406 24.0938 19.9688 23.5312 20.2031C22.9688 20.4375 22.3125 20.5312 21.6562 20.5312H19.2188V25.0781H14.9531V11.0156ZM21.75 15C21.7031 14.9531 21.6094 14.9062 21.3281 14.9062H19.2188V16.6875H21.3281C21.6094 16.6875 21.75 16.5938 21.7969 16.5469C21.8438 16.5 21.8906 16.4531 21.8906 16.1719V15.375C21.8906 15.1406 21.8438 15.0469 21.7969 15.0469L21.75 15Z" fill="black" fill-opacity="0.72"/>
</g>
<defs>
<clipPath id="clip0_2556_19905">
<rect width="30" height="36" fill="white"/>
</clipPath>
</defs>
</svg>
