<svg width="20" height="30" viewBox="0 0 20 30" fill="none" xmlns="http://www.w3.org/2000/svg">
<g id="label-paired / lg / file-pdf-lg / bold" clip-path="url(#clip0_2556_17059)">
<path id="icon" d="M2.5 23.625H4.375V25.5H2.5C1.09375 25.5 0 24.4062 0 23V8C0 6.63281 1.09375 5.5 2.5 5.5H8.94531C9.60938 5.5 10.2344 5.77344 10.7031 6.24219L14.2578 9.79688C14.7266 10.2656 15 10.8906 15 11.5547V17.375H13.125V11.75H10C9.29688 11.75 8.75 11.2031 8.75 10.5V7.375H2.5C2.14844 7.375 1.875 7.6875 1.875 8V23C1.875 23.3516 2.14844 23.625 2.5 23.625ZM6.875 19.25H8.125C9.29688 19.25 10.3125 20.2656 10.3125 21.4375C10.3125 22.6484 9.29688 23.625 8.125 23.625H7.5V24.875C7.5 25.2266 7.1875 25.5 6.875 25.5C6.52344 25.5 6.25 25.2266 6.25 24.875V23V19.875C6.25 19.5625 6.52344 19.25 6.875 19.25ZM8.125 22.375C8.63281 22.375 9.0625 21.9844 9.0625 21.4375C9.0625 20.9297 8.63281 20.5 8.125 20.5H7.5V22.375H8.125ZM11.875 19.25H13.125C14.1406 19.25 15 20.1094 15 21.125V23.625C15 24.6797 14.1406 25.5 13.125 25.5H11.875C11.5234 25.5 11.25 25.2266 11.25 24.875V19.875C11.25 19.5625 11.5234 19.25 11.875 19.25ZM13.125 24.25C13.4375 24.25 13.75 23.9766 13.75 23.625V21.125C13.75 20.8125 13.4375 20.5 13.125 20.5H12.5V24.25H13.125ZM16.25 19.875C16.25 19.5625 16.5234 19.25 16.875 19.25H18.75C19.0625 19.25 19.375 19.5625 19.375 19.875C19.375 20.2266 19.0625 20.5 18.75 20.5H17.5V21.75H18.75C19.0625 21.75 19.375 22.0625 19.375 22.375C19.375 22.7266 19.0625 23 18.75 23H17.5V24.875C17.5 25.2266 17.1875 25.5 16.875 25.5C16.5234 25.5 16.25 25.2266 16.25 24.875V22.375V19.875Z" fill="black" fill-opacity="0.72"/>
</g>
<defs>
<clipPath id="clip0_2556_17059">
<rect width="20" height="30" fill="white"/>
</clipPath>
</defs>
</svg>
