<svg width="8" height="18" viewBox="0 0 8 18" fill="none" xmlns="http://www.w3.org/2000/svg">
<g id="label-paired / caption / nine-caption / fill" clip-path="url(#clip0_2556_10323)">
<path id="icon" d="M1.75 8C1.75 8.82031 2.17188 9.54688 2.875 9.96875C3.55469 10.3672 4.42188 10.3672 5.125 9.96875C5.80469 9.54688 6.25 8.82031 6.25 8C6.25 7.20312 5.80469 6.47656 5.125 6.05469C4.42188 5.65625 3.55469 5.65625 2.875 6.05469C2.17188 6.47656 1.75 7.20312 1.75 8ZM3.78906 11.75C1.82031 11.6562 0.25 10.0156 0.25 8C0.25 5.9375 1.91406 4.25 4 4.25C6.0625 4.25 7.75 5.9375 7.75 8C7.75 8.07031 7.72656 8.14062 7.72656 8.1875C7.70312 9.03125 7.375 9.82812 6.83594 10.4844L3.4375 14.4922C3.17969 14.8203 2.6875 14.8438 2.38281 14.5859C2.05469 14.3281 2.03125 13.8359 2.28906 13.5312L3.78906 11.75Z" fill="black" fill-opacity="0.72"/>
</g>
<defs>
<clipPath id="clip0_2556_10323">
<rect width="8" height="18" fill="white"/>
</clipPath>
</defs>
</svg>
