<svg width="15" height="18" viewBox="0 0 15 18" fill="none" xmlns="http://www.w3.org/2000/svg">
<g id="label-paired / caption / chart-trend-down-caption / fill" clip-path="url(#clip0_2556_10162)">
<path id="icon" d="M4.89844 3.59375C5.27344 3.40625 5.71875 3.54688 5.90625 3.92188L8.69531 9.5H12C12.2812 9.5 12.5391 9.66406 12.6562 9.92188L14.9062 14.4219C15.0938 14.7969 14.9531 15.2422 14.5781 15.4297C14.2031 15.6172 13.7578 15.4766 13.5703 15.1016L11.5312 11H8.25C7.94531 11 7.6875 10.8594 7.57031 10.6016L4.89844 5.25781L1.07812 7.17969C0.703125 7.36719 0.257812 7.22656 0.0703125 6.85156C-0.117188 6.47656 0.0234375 6.03125 0.398438 5.84375L4.89844 3.59375Z" fill="black" fill-opacity="0.72"/>
</g>
<defs>
<clipPath id="clip0_2556_10162">
<rect width="15" height="18" fill="white"/>
</clipPath>
</defs>
</svg>
