<svg width="13" height="22" viewBox="0 0 13 22" fill="none" xmlns="http://www.w3.org/2000/svg">
<g id="label-paired / sm / tablet-sm / regular" clip-path="url(#clip0_2556_12570)">
<path id="icon" d="M2.125 4.625C1.63281 4.625 1.25 5.03516 1.25 5.5V16C1.25 16.4922 1.63281 16.875 2.125 16.875H10.875C11.3398 16.875 11.75 16.4922 11.75 16V5.5C11.75 5.03516 11.3398 4.625 10.875 4.625H2.125ZM0.375 5.5C0.375 4.54297 1.14062 3.75 2.125 3.75H10.875C11.832 3.75 12.625 4.54297 12.625 5.5V16C12.625 16.9844 11.832 17.75 10.875 17.75H2.125C1.14062 17.75 0.375 16.9844 0.375 16V5.5ZM5.625 14.6875H7.375C7.59375 14.6875 7.8125 14.9062 7.8125 15.125C7.8125 15.3711 7.59375 15.5625 7.375 15.5625H5.625C5.37891 15.5625 5.1875 15.3711 5.1875 15.125C5.1875 14.9062 5.37891 14.6875 5.625 14.6875Z" fill="black" fill-opacity="0.72"/>
</g>
<defs>
<clipPath id="clip0_2556_12570">
<rect width="13" height="22" fill="white"/>
</clipPath>
</defs>
</svg>
