<svg width="20" height="30" viewBox="0 0 20 30" fill="none" xmlns="http://www.w3.org/2000/svg">
<g id="label-paired / lg / scissors-lg / fill" clip-path="url(#clip0_2556_17592)">
<path id="icon" d="M10 13L15.4688 7.53125C16.6016 6.39844 18.3594 6.39844 19.4922 7.53125C19.7656 7.80469 19.7656 8.23438 19.4922 8.50781L8.4375 19.5625C8.63281 20.0703 8.75 20.5781 8.75 21.125C8.75 23.5469 6.75781 25.5 4.375 25.5C1.95312 25.5 0 23.5469 0 21.125C0 18.7422 1.95312 16.75 4.375 16.75C4.92188 16.75 5.42969 16.8672 5.9375 17.0625L7.5 15.5L5.9375 13.9766C5.42969 14.1719 4.92188 14.25 4.375 14.25C1.95312 14.25 0 12.2969 0 9.875C0 7.49219 1.95312 5.5 4.375 5.5C6.75781 5.5 8.75 7.49219 8.75 9.875C8.75 10.4609 8.63281 10.9688 8.4375 11.4766L10 13ZM10.8594 18.8984L13.3594 16.3984L19.4922 22.5312C19.7656 22.8047 19.7656 23.2344 19.4922 23.5078C18.3594 24.6406 16.6016 24.6406 15.4688 23.5078L10.8594 18.8984ZM2.5 9.875C2.5 10.5781 2.85156 11.1641 3.4375 11.5156C3.98438 11.8672 4.72656 11.8672 5.3125 11.5156C5.85938 11.1641 6.25 10.5781 6.25 9.875C6.25 9.21094 5.85938 8.625 5.3125 8.27344C4.72656 7.92188 3.98438 7.92188 3.4375 8.27344C2.85156 8.625 2.5 9.21094 2.5 9.875ZM4.375 19.25C3.67188 19.25 3.08594 19.6406 2.73438 20.1875C2.38281 20.7734 2.38281 21.5156 2.73438 22.0625C3.08594 22.6484 3.67188 23 4.375 23C5.03906 23 5.625 22.6484 5.97656 22.0625C6.32812 21.5156 6.32812 20.7734 5.97656 20.1875C5.625 19.6406 5.03906 19.25 4.375 19.25Z" fill="black" fill-opacity="0.72"/>
</g>
<defs>
<clipPath id="clip0_2556_17592">
<rect width="20" height="30" fill="white"/>
</clipPath>
</defs>
</svg>
