<svg width="20" height="24" viewBox="0 0 20 24" fill="none" xmlns="http://www.w3.org/2000/svg">
<g id="label-paired / md / hand-gesture-swipe-left-right-md / bold" clip-path="url(#clip0_3546_627)">
<path id="icon" d="M10 7.21875C10.6875 7.21875 11.25 7.78125 11.25 8.46875V10.3438C11.2812 10.3438 11.3438 10.3438 11.4062 10.3438C11.875 10.3438 12.2812 10.625 12.5 11C12.5938 10.9688 12.6875 10.9688 12.8125 10.9688C13.25 10.9688 13.6562 11.25 13.875 11.5938C13.9375 11.5938 14 11.5938 14.0625 11.5938C14.75 11.5938 15.3125 12.1562 15.3125 12.8438V14.875C15.3125 16.1875 14.25 17.2188 12.9688 17.2188H10.5C9.96875 17.2188 9.46875 17.0625 9 16.8125L8.9375 16.7812C8.03125 16.25 7.5 15.2812 7.5 14.2188V14.0312C7.5 13.5312 7.6875 13.0625 8.03125 12.75L8.4375 12.375C8.53125 12.3125 8.625 12.2188 8.75 12.1562V8.46875C8.75 7.78125 9.28125 7.21875 10 7.21875ZM9.6875 8.46875V13.9375C9.6875 14.0938 9.53125 14.25 9.375 14.25C9.1875 14.25 9.0625 14.0938 9.0625 13.9375V13.125L8.6875 13.4375C8.5 13.5938 8.4375 13.7812 8.4375 14.0312V14.2188C8.4375 14.9375 8.8125 15.625 9.4375 15.9688L9.46875 16C9.78125 16.1875 10.1562 16.2812 10.5 16.2812H12.9688C13.7188 16.2812 14.375 15.6562 14.375 14.875V12.8438C14.375 12.6875 14.2188 12.5312 14.0625 12.5312C13.9688 12.5312 13.9062 12.5625 13.8438 12.5938C13.7188 12.6875 13.5312 12.7188 13.375 12.6562C13.2188 12.5625 13.125 12.4062 13.125 12.25C13.125 12.0625 12.9688 11.9375 12.8125 11.9375C12.6875 11.9375 12.625 11.9688 12.5625 12.0312C12.4375 12.1875 12.2188 12.2812 12.0312 12.1875C11.8438 12.125 11.7188 11.9688 11.7188 11.7812V11.625C11.7188 11.4375 11.5625 11.3125 11.4062 11.3125C11.2812 11.3125 11.2188 11.3438 11.1562 11.4062C11.0312 11.5625 10.8125 11.6562 10.625 11.5625C10.4375 11.5 10.3125 11.3438 10.3125 11.125V8.46875C10.3125 8.3125 10.1562 8.15625 10 8.15625C9.8125 8.15625 9.6875 8.3125 9.6875 8.46875ZM15.1875 10.3125L16.875 8.625C17.0625 8.4375 17.0625 8.15625 16.875 8L15.0938 6.1875C14.9062 6.03125 14.625 6.03125 14.4375 6.1875C14.2812 6.375 14.2812 6.65625 14.4375 6.84375L15.4688 7.84375H12.4375C12.1875 7.84375 12 8.0625 12 8.3125C12 8.5625 12.1875 8.75 12.4375 8.75H15.4688L14.5625 9.65625C14.375 9.84375 14.375 10.125 14.5625 10.3125C14.75 10.4688 15.0312 10.4688 15.1875 10.3125ZM4.78125 10.3125L3.125 8.625C2.9375 8.4375 2.9375 8.15625 3.125 8L4.90625 6.1875C5.09375 6.03125 5.375 6.03125 5.53125 6.1875C5.71875 6.375 5.71875 6.65625 5.53125 6.84375L4.53125 7.84375H7.5625C7.8125 7.84375 8 8.0625 8 8.3125C8 8.5625 7.8125 8.75 7.5625 8.75H4.53125L5.4375 9.65625C5.59375 9.84375 5.59375 10.125 5.4375 10.3125C5.25 10.4688 4.96875 10.4688 4.78125 10.3125Z" fill="black" fill-opacity="0.72"/>
</g>
<defs>
<clipPath id="clip0_3546_627">
<rect width="20" height="24" fill="white"/>
</clipPath>
</defs>
</svg>
