<svg width="24" height="36" viewBox="0 0 24 36" fill="none" xmlns="http://www.w3.org/2000/svg">
<g id="label-paired / xl / bank-xl / bold" clip-path="url(#clip0_2362_717)">
<path id="icon" d="M12.5625 6.14062L23.1562 12C23.6875 12.3125 23.9688 12.7812 24 13.4062C24 13.8438 23.8438 14.2188 23.5312 14.5312C23.2188 14.8438 22.8438 15 22.4062 15H1.59375C1.15625 15 0.78125 14.8438 0.46875 14.5312C0.15625 14.2188 0 13.8438 0 13.4062C0.03125 12.7812 0.3125 12.3125 0.84375 12L11.4375 6.14062C11.8125 5.95312 12.1875 5.95312 12.5625 6.14062ZM10.6875 12.75C10.5625 12.5312 10.5 12.2812 10.5 12C10.5 11.5625 10.6406 11.2031 10.9219 10.9219C11.2031 10.6406 11.5625 10.5 12 10.5C12.4375 10.5 12.7969 10.6406 13.0781 10.9219C13.3594 11.2031 13.5 11.5625 13.5 12C13.5 12.2812 13.4375 12.5312 13.3125 12.75H19.875L12 8.39062L4.125 12.75H10.6875ZM3 16.5H5.25V24H8.25V16.5H10.5V24H13.5V16.5H15.75V24H18.75V16.5H21V24H21.375C22.0625 24.0625 22.4375 24.4375 22.5 25.125C22.4375 25.8125 22.0625 26.1875 21.375 26.25H3C2.3125 26.1875 1.9375 25.8125 1.875 25.125C1.9375 24.4375 2.3125 24.0625 3 24V16.5ZM1.5 27.75H22.875C23.5625 27.8125 23.9375 28.1875 24 28.875C23.9375 29.5625 23.5625 29.9375 22.875 30H1.5C0.8125 29.9375 0.4375 29.5625 0.375 28.875C0.4375 28.1875 0.8125 27.8125 1.5 27.75Z" fill="black" fill-opacity="0.72"/>
</g>
<defs>
<clipPath id="clip0_2362_717">
<rect width="24" height="36" fill="white"/>
</clipPath>
</defs>
</svg>
