<svg width="15" height="18" viewBox="0 0 15 18" fill="none" xmlns="http://www.w3.org/2000/svg">
<g id="label-paired / caption / hand-gesture-swipe-left-right-caption / fill" clip-path="url(#clip0_3546_615)">
<path id="icon" d="M7.5 5.91406C7.82812 5.91406 8.08594 6.17188 8.08594 6.5V8.67969C8.20312 8.5625 8.36719 8.49219 8.55469 8.49219C8.92969 8.49219 9.23438 8.77344 9.25781 9.14844C9.375 9.03125 9.53906 8.96094 9.72656 8.96094C10.1016 8.96094 10.4062 9.24219 10.4297 9.61719C10.5469 9.5 10.7109 9.42969 10.8984 9.42969C11.2734 9.42969 11.6016 9.75781 11.6016 10.1328V11.5391C11.6016 12.5703 10.7578 13.4141 9.72656 13.4141H7.99219C7.45312 13.4141 6.91406 13.2266 6.49219 12.875L6.42188 12.8047C5.97656 12.4531 5.74219 11.9141 5.74219 11.3516V10.8125C5.74219 10.5312 5.85938 10.2734 6.09375 10.0859L6.375 9.85156C6.39844 9.82812 6.42188 9.80469 6.46875 9.80469V10.6016C6.46875 10.7422 6.5625 10.8359 6.70312 10.8359C6.82031 10.8359 6.9375 10.7422 6.9375 10.6016V6.5C6.9375 6.17188 7.17188 5.91406 7.52344 5.91406H7.5ZM11.3906 8.23438L12.6562 6.96875C12.7969 6.82812 12.7969 6.61719 12.6562 6.5L11.3203 5.14062C11.1797 5.02344 10.9688 5.02344 10.8281 5.14062C10.7109 5.28125 10.7109 5.49219 10.8281 5.63281L11.6016 6.38281H9.32812C9.14062 6.38281 9 6.54688 9 6.73438C9 6.92188 9.14062 7.0625 9.32812 7.0625H11.6016L10.9219 7.74219C10.7812 7.88281 10.7812 8.09375 10.9219 8.23438C11.0625 8.35156 11.2734 8.35156 11.3906 8.23438ZM3.58594 8.23438L2.34375 6.96875C2.20312 6.82812 2.20312 6.61719 2.34375 6.5L3.67969 5.14062C3.82031 5.02344 4.03125 5.02344 4.14844 5.14062C4.28906 5.28125 4.28906 5.49219 4.14844 5.63281L3.39844 6.38281H5.67188C5.85938 6.38281 6 6.54688 6 6.73438C6 6.92188 5.85938 7.0625 5.67188 7.0625H3.39844L4.07812 7.74219C4.19531 7.88281 4.19531 8.09375 4.07812 8.23438C3.9375 8.35156 3.72656 8.35156 3.58594 8.23438Z" fill="black" fill-opacity="0.72"/>
</g>
<defs>
<clipPath id="clip0_3546_615">
<rect width="15" height="18" fill="white"/>
</clipPath>
</defs>
</svg>
