<svg width="12" height="18" viewBox="0 0 12 18" fill="none" xmlns="http://www.w3.org/2000/svg">
<g id="label-paired / caption / file-pdf-caption / bold" clip-path="url(#clip0_2365_792)">
<path id="icon" d="M1.5 14.375H2.25V15.5H1.5C1.07812 15.4844 0.726562 15.3359 0.445312 15.0547C0.164062 14.7734 0.015625 14.4219 0 14V5C0.015625 4.57812 0.164062 4.22656 0.445312 3.94531C0.726562 3.66406 1.07812 3.51563 1.5 3.5H5.39062C5.79688 3.5 6.14844 3.64844 6.44531 3.94531L8.55469 6.05469C8.85156 6.35156 9 6.71094 9 7.13281V10.25H7.875V7.25H6C5.78125 7.25 5.60156 7.17969 5.46094 7.03906C5.32031 6.89844 5.25 6.71875 5.25 6.5V4.625H1.5C1.26562 4.64062 1.14062 4.76562 1.125 5V14C1.14062 14.2344 1.26562 14.3594 1.5 14.375ZM4.125 11.75H4.875C5.25 11.7656 5.5625 11.8906 5.8125 12.125C6.04688 12.375 6.17188 12.6875 6.1875 13.0625C6.17188 13.4375 6.04688 13.75 5.8125 14C5.5625 14.2344 5.25 14.3594 4.875 14.375H4.5V15.125C4.48438 15.3594 4.35938 15.4844 4.125 15.5C3.89062 15.4844 3.76562 15.3594 3.75 15.125V14V12.125C3.76562 11.8906 3.89062 11.7656 4.125 11.75ZM4.875 13.625C5.21875 13.5938 5.40625 13.4062 5.4375 13.0625C5.40625 12.7188 5.21875 12.5312 4.875 12.5H4.5V13.625H4.875ZM7.125 11.75H7.875C8.1875 11.7656 8.45312 11.875 8.67188 12.0781C8.875 12.2969 8.98438 12.5625 9 12.875V14.375C8.98438 14.6875 8.875 14.9531 8.67188 15.1719C8.45312 15.375 8.1875 15.4844 7.875 15.5H7.125C6.89062 15.4844 6.76562 15.3594 6.75 15.125V12.125C6.76562 11.8906 6.89062 11.7656 7.125 11.75ZM7.875 14.75C8.10938 14.7344 8.23438 14.6094 8.25 14.375V12.875C8.23438 12.6406 8.10938 12.5156 7.875 12.5H7.5V14.75H7.875ZM9.75 12.125C9.76562 11.8906 9.89062 11.7656 10.125 11.75H11.25C11.4844 11.7656 11.6094 11.8906 11.625 12.125C11.6094 12.3594 11.4844 12.4844 11.25 12.5H10.5V13.25H11.25C11.4844 13.2656 11.6094 13.3906 11.625 13.625C11.6094 13.8594 11.4844 13.9844 11.25 14H10.5V15.125C10.4844 15.3594 10.3594 15.4844 10.125 15.5C9.89062 15.4844 9.76562 15.3594 9.75 15.125V13.625V12.125Z" fill="black" fill-opacity="0.72"/>
</g>
<defs>
<clipPath id="clip0_2365_792">
<rect width="12" height="18" fill="white"/>
</clipPath>
</defs>
</svg>
