<svg width="20" height="24" viewBox="0 0 20 24" fill="none" xmlns="http://www.w3.org/2000/svg">
<g id="label-paired / md / hand-gesture-tap-right-md / regular" clip-path="url(#clip0_3546_779)">
<path id="icon" d="M16.6875 5C16.5312 5 16.375 5.15625 16.375 5.3125V18.7188C16.375 18.875 16.5312 19 16.6875 19C16.8438 19 17 18.875 17 18.7188V5.3125C17 5.15625 16.8438 5 16.6875 5ZM16 10.5C16 11.5625 15.1875 12.4062 14.1562 12.5L13 14.9688C13.0312 15.0312 13.0938 15.0938 13.125 15.1875L13.375 15.6562C13.5938 16.0938 13.5938 16.5938 13.4062 17.0312L13.2188 17.4062C12.7812 18.3438 11.8438 18.9688 10.8438 19H10.6562C10.1562 19.0312 9.71875 18.9375 9.3125 18.75L6.90625 17.5938C5.8125 17.0938 5.34375 15.7812 5.875 14.6875L6.65625 13C6.96875 12.375 7.71875 12.0938 8.34375 12.4062C8.34375 12.4062 8.375 12.4375 8.40625 12.4375C8.4375 12.4688 8.46875 12.4688 8.46875 12.5C8.84375 12.25 9.3125 12.1875 9.71875 12.375C9.84375 12.4062 9.90625 12.4688 10 12.5312C10.3438 12.2812 10.8438 12.2188 11.2812 12.4062C11.4375 12.4688 11.5625 12.5938 11.6562 12.6875L12.2188 11.4688C12.0625 11.1875 11.9688 10.875 11.9688 10.5C11.9688 9.40625 12.875 8.5 13.9688 8.5C15.0938 8.5 15.9688 9.40625 15.9688 10.5H16ZM14.6875 11.4375L14.5 11.8125C15.0312 11.625 15.375 11.0938 15.375 10.5C15.375 9.75 14.75 9.125 14 9.125C13.2188 9.125 12.5938 9.75 12.5938 10.5C12.5938 10.5938 12.5938 10.6562 12.5938 10.7188L12.6875 10.5C12.9375 9.96875 13.625 9.71875 14.1562 9.96875C14.6875 10.2188 14.9375 10.9062 14.6875 11.4375ZM11.6875 16.25L14.125 11.1562C14.2188 10.9375 14.125 10.6562 13.875 10.5312C13.6562 10.4375 13.375 10.5312 13.25 10.75L11.9375 13.5625C11.875 13.6875 11.75 13.75 11.625 13.7188C11.4688 13.6875 11.375 13.5938 11.3438 13.4688C11.3125 13.25 11.1875 13.0625 11 12.9688C10.75 12.8438 10.4062 12.9375 10.25 13.1875C10.1875 13.25 10.0938 13.3125 9.96875 13.3125C9.875 13.3125 9.78125 13.25 9.71875 13.1562C9.65625 13.0625 9.5625 13 9.46875 12.9375C9.21875 12.8125 8.90625 12.875 8.71875 13.0938C8.65625 13.1562 8.59375 13.2188 8.5 13.2188C8.40625 13.2188 8.3125 13.1562 8.25 13.125C8.1875 13.0625 8.125 13 8.0625 12.9688C7.75 12.8438 7.375 12.9688 7.21875 13.2812L6.4375 14.9688C6.0625 15.75 6.375 16.6875 7.15625 17.0625L9.5625 18.1875C9.90625 18.3438 10.25 18.4062 10.625 18.375L10.8125 18.4062C11.625 18.3438 12.3125 17.8438 12.6562 17.125L12.8438 16.7812C12.9688 16.5 12.9375 16.2188 12.8125 15.9375L12.6562 15.6562L12.25 16.5C12.1875 16.6875 12 16.75 11.8438 16.6562C11.7188 16.5938 11.625 16.4062 11.6875 16.25Z" fill="black" fill-opacity="0.72"/>
</g>
<defs>
<clipPath id="clip0_3546_779">
<rect width="20" height="24" fill="white"/>
</clipPath>
</defs>
</svg>
