<svg width="13" height="22" viewBox="0 0 13 22" fill="none" xmlns="http://www.w3.org/2000/svg">
<g id="label-paired / sm / unlock-sm / regular" clip-path="url(#clip0_2556_12385)">
<path id="icon" d="M3.875 7.25V9H10.4375C11.6406 9 12.625 9.98438 12.625 11.1875V15.5625C12.625 16.793 11.6406 17.75 10.4375 17.75H2.5625C1.33203 17.75 0.375 16.793 0.375 15.5625V11.1875C0.375 9.98438 1.33203 9 2.5625 9H3V7.25C3 5.33594 4.55859 3.75 6.5 3.75C8.08594 3.75 9.42578 4.81641 9.83594 6.26562C9.91797 6.48438 9.78125 6.73047 9.53516 6.8125C9.31641 6.86719 9.07031 6.75781 9.01562 6.51172C8.6875 5.41797 7.67578 4.625 6.5 4.625C5.05078 4.625 3.875 5.80078 3.875 7.25ZM1.25 11.1875V15.5625C1.25 16.3008 1.82422 16.875 2.5625 16.875H10.4375C11.1484 16.875 11.75 16.3008 11.75 15.5625V11.1875C11.75 10.4766 11.1484 9.875 10.4375 9.875H2.5625C1.82422 9.875 1.25 10.4766 1.25 11.1875Z" fill="black" fill-opacity="0.72"/>
</g>
<defs>
<clipPath id="clip0_2556_12385">
<rect width="13" height="22" fill="white"/>
</clipPath>
</defs>
</svg>
