<svg width="20" height="24" viewBox="0 0 20 24" fill="none" xmlns="http://www.w3.org/2000/svg">
<g id="label-paired / md / chart-tradingview-md / fill" clip-path="url(#clip0_3546_937)">
<path id="icon" d="M16.6875 10.3125C17.0938 10.6875 17.0938 11.3438 16.6875 11.7188L12.0312 16.375C11.4688 16.9375 10.5 16.9375 9.9375 16.375L9 15.4375L7.6875 16.7188C7.3125 17.125 6.65625 17.125 6.28125 16.7188C5.875 16.3438 5.875 15.6875 6.28125 15.3125L7.9375 13.6562C8.5 13.0625 9.46875 13.0625 10.0312 13.6562L11 14.5938L15.2812 10.3125C15.6562 9.90625 16.3125 9.90625 16.6875 10.3125ZM11.5938 6.71875C11.5938 7.09375 11.25 7.40625 10.875 7.40625C10.4688 7.40625 10.125 7.09375 10.125 6.71875C10.125 6.34375 10.4688 6.03125 10.875 6.03125C11.25 6.03125 11.5938 6.34375 11.5938 6.71875ZM12.1562 6H13.25L11.7812 10H10.6875L12.1562 6ZM7.25 6H9.78125V10H8.8125V6.90625H7.25V6ZM4 4C4.53125 4 5 4.46875 5 5V17.7188C5 17.875 5.125 18 5.3125 18H16.5C17.0312 18 17.5 18.4688 17.5 19C17.5 19.5625 17.0312 20 16.5 20H4.5625C3.65625 20 3 19.3438 3 18.4375V5C3 4.46875 3.4375 4 4 4Z" fill="black" fill-opacity="0.72"/>
</g>
<defs>
<clipPath id="clip0_3546_937">
<rect width="20" height="24" fill="white"/>
</clipPath>
</defs>
</svg>
