<svg width="12" height="18" viewBox="0 0 12 18" fill="none" xmlns="http://www.w3.org/2000/svg">
<g id="label-paired / caption / chart-area-caption / regular" clip-path="url(#clip0_2556_10179)">
<path id="icon" d="M0.75 4.625V12.875C0.75 13.5078 1.24219 14 1.875 14H11.625C11.8125 14 12 14.1875 12 14.375C12 14.5859 11.8125 14.75 11.625 14.75H1.875C0.820312 14.75 0 13.9297 0 12.875V4.625C0 4.4375 0.164062 4.25 0.375 4.25C0.5625 4.25 0.75 4.4375 0.75 4.625ZM6.96094 8.53906L5.25 6.82812L3.09375 8.96094C3.02344 9.03125 3 9.125 3 9.21875V11.75H10.5V9.54688C10.5 9.45312 10.4531 9.38281 10.4062 9.3125L8.95312 7.60156L8.01562 8.53906C7.875 8.67969 7.6875 8.75 7.5 8.75C7.28906 8.75 7.10156 8.67969 6.96094 8.53906ZM6.96094 7.48438L7.5 8L8.01562 7.48438L8.41406 7.08594C8.71875 6.78125 9.23438 6.80469 9.51562 7.13281L10.9688 8.82031C11.1328 9.03125 11.25 9.28906 11.25 9.54688V11.75C11.25 12.1719 10.8984 12.5 10.5 12.5H3C2.57812 12.5 2.25 12.1719 2.25 11.75V9.21875C2.25 8.9375 2.36719 8.63281 2.57812 8.42188L4.71094 6.28906C4.99219 6.00781 5.48438 6.00781 5.76562 6.28906L6.96094 7.48438Z" fill="black" fill-opacity="0.72"/>
</g>
<defs>
<clipPath id="clip0_2556_10179">
<rect width="12" height="18" fill="white"/>
</clipPath>
</defs>
</svg>
