<svg width="12" height="24" viewBox="0 0 12 24" fill="none" xmlns="http://www.w3.org/2000/svg">
<g id="label-paired / md / lightbulb-md / fill" clip-path="url(#clip0_2512_1032)">
<path id="icon" d="M8.5 16H3.5C3.14583 15.0208 2.63542 14.125 1.96875 13.3125C1.96875 13.3125 1.96875 13.3021 1.96875 13.2812C1.80208 13.0729 1.63542 12.8542 1.46875 12.625C0.84375 11.7292 0.520833 10.6875 0.5 9.5C0.541667 7.9375 1.08333 6.64583 2.125 5.625C3.14583 4.58333 4.4375 4.04167 6 4C7.5625 4.04167 8.85417 4.58333 9.875 5.625C10.9167 6.64583 11.4583 7.9375 11.5 9.5C11.4792 10.6875 11.1562 11.7292 10.5312 12.625C10.3646 12.8542 10.1979 13.0833 10.0312 13.3125C10.0312 13.3125 10.0312 13.3229 10.0312 13.3438C9.36458 14.1562 8.85417 15.0417 8.5 16ZM6 20C5.29167 19.9792 4.69792 19.7396 4.21875 19.2812C3.76042 18.8021 3.52083 18.2083 3.5 17.5V17H8.5V17.5C8.47917 18.2083 8.23958 18.8021 7.78125 19.2812C7.30208 19.7396 6.70833 19.9792 6 20ZM3.5 9.5C3.52083 8.79167 3.76042 8.19792 4.21875 7.71875C4.69792 7.26042 5.29167 7.02083 6 7C6.3125 6.97917 6.47917 6.8125 6.5 6.5C6.47917 6.1875 6.3125 6.02083 6 6C5 6.02083 4.17708 6.36458 3.53125 7.03125C2.86458 7.67708 2.52083 8.5 2.5 9.5C2.52083 9.8125 2.6875 9.97917 3 10C3.3125 9.97917 3.47917 9.8125 3.5 9.5Z" fill="black" fill-opacity="0.72"/>
</g>
<defs>
<clipPath id="clip0_2512_1032">
<rect width="12" height="24" fill="white"/>
</clipPath>
</defs>
</svg>
