<svg width="16" height="24" viewBox="0 0 16 24" fill="none" xmlns="http://www.w3.org/2000/svg">
<g id="label-paired / md / circle-arrow-up-right-md / regular" clip-path="url(#clip0_2556_15245)">
<path id="icon" d="M8 19C10.5 19 12.7812 17.6875 14.0312 15.5C15.3125 13.3438 15.3125 10.6875 14.0312 8.5C12.7812 6.34375 10.5 5 8 5C5.46875 5 3.1875 6.34375 1.9375 8.5C0.65625 10.6875 0.65625 13.3438 1.9375 15.5C3.1875 17.6875 5.46875 19 8 19ZM8 4C10.8438 4 13.4688 5.53125 14.9062 8C16.3438 10.5 16.3438 13.5312 14.9062 16C13.4688 18.5 10.8438 20 8 20C5.125 20 2.5 18.5 1.0625 16C-0.375 13.5312 -0.375 10.5 1.0625 8C2.5 5.53125 5.125 4 8 4ZM6.25 9H10.5C10.75 9 11 9.25 11 9.5V14C11 14.2812 10.75 14.5 10.5 14.5C10.2188 14.5 10 14.2812 10 14V10.7188L5.84375 14.875C5.65625 15.0625 5.3125 15.0625 5.125 14.875C4.9375 14.6875 4.9375 14.3438 5.125 14.1562L9.28125 10H6.25C5.96875 10 5.75 9.78125 5.75 9.5C5.75 9.25 5.96875 9 6.25 9Z" fill="black" fill-opacity="0.72"/>
</g>
<defs>
<clipPath id="clip0_2556_15245">
<rect width="16" height="24" fill="white"/>
</clipPath>
</defs>
</svg>
