<svg width="13" height="22" viewBox="0 0 13 22" fill="none" xmlns="http://www.w3.org/2000/svg">
<g id="label-paired / sm / share-nodes-sm / regular" clip-path="url(#clip0_4038_493)">
<path id="icon" d="M12.625 6.8125C12.625 8.04297 11.6406 9 10.4375 9C9.80859 9 9.23438 8.75391 8.82422 8.31641L4.69531 10.3945C4.72266 10.5039 4.75 10.6406 4.75 10.75C4.75 10.8867 4.72266 11.0234 4.69531 11.1328L8.82422 13.1836C9.23438 12.7734 9.80859 12.5 10.4375 12.5C11.6406 12.5 12.625 13.4844 12.625 14.6875C12.625 15.918 11.6406 16.875 10.4375 16.875C9.20703 16.875 8.25 15.918 8.25 14.6875C8.25 14.4414 8.27734 14.168 8.35938 13.9492L4.39453 11.9531C3.98438 12.5547 3.32812 12.9375 2.5625 12.9375C1.33203 12.9375 0.375 11.9805 0.375 10.75C0.375 9.54688 1.33203 8.5625 2.5625 8.5625C3.32812 8.5625 3.98438 8.97266 4.39453 9.57422L8.35938 7.57812C8.27734 7.33203 8.25 7.08594 8.25 6.8125C8.25 5.60938 9.20703 4.625 10.4375 4.625C11.6406 4.625 12.625 5.60938 12.625 6.8125ZM2.5625 12.0625C3.02734 12.0625 3.4375 11.8164 3.68359 11.4062C3.92969 11.0234 3.92969 10.5039 3.68359 10.0938C3.4375 9.71094 3.02734 9.4375 2.5625 9.4375C2.07031 9.4375 1.66016 9.71094 1.41406 10.0938C1.16797 10.5039 1.16797 11.0234 1.41406 11.4062C1.66016 11.8164 2.07031 12.0625 2.5625 12.0625ZM11.75 6.8125C11.75 6.34766 11.4766 5.9375 11.0938 5.69141C10.6836 5.44531 10.1641 5.44531 9.78125 5.69141C9.37109 5.9375 9.125 6.34766 9.125 6.8125C9.125 7.30469 9.37109 7.71484 9.78125 7.96094C10.1641 8.20703 10.6836 8.20703 11.0938 7.96094C11.4766 7.71484 11.75 7.30469 11.75 6.8125ZM10.4375 16C10.9023 16 11.3125 15.7539 11.5586 15.3438C11.8047 14.9609 11.8047 14.4414 11.5586 14.0312C11.3125 13.6484 10.9023 13.375 10.4375 13.375C9.94531 13.375 9.53516 13.6484 9.28906 14.0312C9.04297 14.4414 9.04297 14.9609 9.28906 15.3438C9.53516 15.7539 9.94531 16 10.4375 16Z" fill="black" fill-opacity="0.72"/>
</g>
<defs>
<clipPath id="clip0_4038_493">
<rect width="13" height="22" fill="white"/>
</clipPath>
</defs>
</svg>
