<svg width="24" height="36" viewBox="0 0 24 36" fill="none" xmlns="http://www.w3.org/2000/svg">
<g id="label-paired / xl / right-to-bracket-xl / fill" clip-path="url(#clip0_2556_19940)">
<path id="icon" d="M10.1719 10.9688L15.9375 16.7344C16.2656 17.0625 16.5 17.5312 16.5 18C16.5 18.5156 16.2656 18.9844 15.9375 19.3125L10.1719 25.0781C9.89062 25.3594 9.46875 25.5 9.04688 25.5C8.20312 25.5 7.5 24.7969 7.5 23.9531V21H1.5C0.65625 21 0 20.3438 0 19.5V16.5C0 15.7031 0.65625 15 1.5 15H7.5V12.0938C7.5 11.25 8.20312 10.5 9.04688 10.5C9.46875 10.5 9.89062 10.6875 10.1719 10.9688ZM16.5 25.5H19.5C20.2969 25.5 21 24.8438 21 24V12C21 11.2031 20.2969 10.5 19.5 10.5H16.5C15.6562 10.5 15 9.84375 15 9C15 8.20312 15.6562 7.5 16.5 7.5H19.5C21.9844 7.5 24 9.51562 24 12V24C24 26.4844 21.9844 28.5 19.5 28.5H16.5C15.6562 28.5 15 27.8438 15 27C15 26.2031 15.6562 25.5 16.5 25.5Z" fill="black" fill-opacity="0.72"/>
</g>
<defs>
<clipPath id="clip0_2556_19940">
<rect width="24" height="36" fill="white"/>
</clipPath>
</defs>
</svg>
