<svg width="16" height="22" viewBox="0 0 16 22" fill="none" xmlns="http://www.w3.org/2000/svg">
<g id="label-paired / sm / eye-sm / fill" clip-path="url(#clip0_2556_12898)">
<path id="icon" d="M8 4.625C10.1875 4.625 11.9648 5.63672 13.25 6.83984C14.5352 8.01562 15.3828 9.4375 15.793 10.4219C15.875 10.6406 15.875 10.8867 15.793 11.1055C15.3828 12.0625 14.5352 13.4844 13.25 14.6875C11.9648 15.8906 10.1875 16.875 8 16.875C5.78516 16.875 4.00781 15.8906 2.72266 14.6875C1.4375 13.4844 0.589844 12.0625 0.179688 11.1055C0.0976562 10.8867 0.0976562 10.6406 0.179688 10.4219C0.589844 9.4375 1.4375 8.01562 2.72266 6.83984C4.00781 5.63672 5.78516 4.625 8 4.625ZM4.0625 10.75C4.0625 12.1719 4.80078 13.457 6.03125 14.168C7.23438 14.8789 8.73828 14.8789 9.96875 14.168C11.1719 13.457 11.9375 12.1719 11.9375 10.75C11.9375 9.35547 11.1719 8.07031 9.96875 7.35938C8.73828 6.64844 7.23438 6.64844 6.03125 7.35938C4.80078 8.07031 4.0625 9.35547 4.0625 10.75ZM8 9C8 8.80859 7.94531 8.64453 7.89062 8.45312C7.83594 8.31641 7.94531 8.125 8.10938 8.125C9.20312 8.17969 10.2148 8.94531 10.5156 10.0938C10.8984 11.4883 10.0781 12.9102 8.65625 13.293C7.26172 13.6758 5.8125 12.8281 5.45703 11.4336C5.40234 11.2422 5.375 11.0508 5.375 10.8867C5.34766 10.7227 5.53906 10.6133 5.67578 10.668C5.86719 10.7227 6.03125 10.75 6.25 10.75C7.20703 10.75 8 9.98438 8 9Z" fill="black" fill-opacity="0.72"/>
</g>
<defs>
<clipPath id="clip0_2556_12898">
<rect width="16" height="22" fill="white"/>
</clipPath>
</defs>
</svg>
