<svg width="15" height="18" viewBox="0 0 15 18" fill="none" xmlns="http://www.w3.org/2000/svg">
<g id="label-paired / caption / wallet-signal-caption / regular" clip-path="url(#clip0_2362_650)">
<path id="icon" d="M0 6.125C0 5.09375 0.820312 4.25 1.875 4.25H10.875C11.0625 4.25 11.25 4.4375 11.25 4.625C11.25 4.83594 11.0625 5 10.875 5H1.875C1.24219 5 0.75 5.51562 0.75 6.125V12.875C0.75 13.5078 1.24219 14 1.875 14H8.25V14.75H1.875C0.820312 14.75 0 13.9297 0 12.875V6.125ZM2.25 6.125C2.25 5.9375 2.41406 5.75 2.625 5.75H10.125C11.1562 5.75 12 6.59375 12 7.625V9.26562C11.7422 9.14844 11.5078 9.07812 11.25 8.98438V7.64844C11.25 7.01562 10.7344 6.52344 10.125 6.52344H2.625C2.41406 6.52344 2.25 6.33594 2.25 6.14844V6.125ZM9 9.875C9 9.6875 9.16406 9.5 9.375 9.5C12.4688 9.5 15 12.0312 15 15.125C15 15.3359 14.8125 15.5 14.625 15.5C14.4141 15.5 14.25 15.3359 14.25 15.125C14.25 12.4531 12.0469 10.25 9.375 10.25C9.16406 10.25 9 10.0859 9 9.875ZM9 12.125C9 11.9375 9.16406 11.75 9.375 11.75C11.2266 11.75 12.75 13.2734 12.75 15.125C12.75 15.3359 12.5625 15.5 12.375 15.5C12.1641 15.5 12 15.3359 12 15.125C12 13.6953 10.8047 12.5 9.375 12.5C9.16406 12.5 9 12.3359 9 12.125ZM9 14.75C9 14.3516 9.32812 14 9.75 14C10.1484 14 10.5 14.3516 10.5 14.75C10.5 15.1719 10.1484 15.5 9.75 15.5C9.32812 15.5 9 15.1719 9 14.75Z" fill="black" fill-opacity="0.72"/>
</g>
<defs>
<clipPath id="clip0_2362_650">
<rect width="15" height="18" fill="white"/>
</clipPath>
</defs>
</svg>
