<svg width="24" height="36" viewBox="0 0 24 36" fill="none" xmlns="http://www.w3.org/2000/svg">
<g id="label-paired / xl / circle-nine-xl / regular" clip-path="url(#clip0_2556_19529)">
<path id="icon" d="M22.5 18C22.5 14.25 20.4844 10.8281 17.25 8.95312C13.9688 7.03125 9.98438 7.03125 6.75 8.95312C3.46875 10.8281 1.5 14.25 1.5 18C1.5 21.7969 3.46875 25.2188 6.75 27.0938C9.98438 29.0156 13.9688 29.0156 17.25 27.0938C20.4844 25.2188 22.5 21.7969 22.5 18ZM0 18C0 13.7344 2.25 9.79688 6 7.64062C9.70312 5.48438 14.25 5.48438 18 7.64062C21.7031 9.79688 24 13.7344 24 18C24 22.3125 21.7031 26.25 18 28.4062C14.25 30.5625 9.70312 30.5625 6 28.4062C2.25 26.25 0 22.3125 0 18ZM12 13.5C10.9219 13.5 9.9375 14.1094 9.375 15C8.85938 15.9375 8.85938 17.1094 9.375 18C9.9375 18.9375 10.9219 19.5 12 19.5C13.0312 19.5 14.0156 18.9375 14.5781 18C15.0938 17.1094 15.0938 15.9375 14.5781 15C14.0156 14.1094 13.0312 13.5 12 13.5ZM11.8125 21C9.42188 20.9062 7.5 18.9375 7.5 16.5C7.5 14.0156 9.51562 12 12 12C14.4844 12 16.5 14.0156 16.5 16.5C16.5 17.9062 15.8906 19.2656 14.8594 20.2031L10.9688 23.8125C10.6875 24.0938 10.2188 24.0938 9.9375 23.7656C9.65625 23.4844 9.65625 23.0156 9.98438 22.7344L11.8125 21Z" fill="black" fill-opacity="0.72"/>
</g>
<defs>
<clipPath id="clip0_2556_19529">
<rect width="24" height="36" fill="white"/>
</clipPath>
</defs>
</svg>
