<svg width="15" height="30" viewBox="0 0 15 30" fill="none" xmlns="http://www.w3.org/2000/svg">
<g id="label-paired / lg / four-lg / fill" clip-path="url(#clip0_2556_17333)">
<path id="icon" d="M7.38281 8.54688L3.20312 17.375H10V11.75C10 11.0859 10.5469 10.5 11.25 10.5C11.9141 10.5 12.5 11.0859 12.5 11.75V17.375H13.75C14.4141 17.375 15 17.9609 15 18.625C15 19.3281 14.4141 19.875 13.75 19.875H12.5V23C12.5 23.7031 11.9141 24.25 11.25 24.25C10.5469 24.25 10 23.7031 10 23V19.875H1.25C0.820312 19.875 0.390625 19.6797 0.15625 19.3281C-0.0390625 18.9375 -0.078125 18.5078 0.117188 18.1172L5.11719 7.49219C5.39062 6.86719 6.13281 6.59375 6.75781 6.86719C7.38281 7.17969 7.65625 7.92188 7.38281 8.54688Z" fill="black" fill-opacity="0.72"/>
</g>
<defs>
<clipPath id="clip0_2556_17333">
<rect width="15" height="30" fill="white"/>
</clipPath>
</defs>
</svg>
