<svg width="24" height="36" viewBox="0 0 24 36" fill="none" xmlns="http://www.w3.org/2000/svg">
<g id="label-paired / xl / circle-seven-xl / fill" clip-path="url(#clip0_2556_19798)">
<path id="icon" d="M12 30C7.6875 30 3.75 27.75 1.59375 24C-0.5625 20.2969 -0.5625 15.75 1.59375 12C3.75 8.29688 7.6875 6 12 6C16.2656 6 20.2031 8.29688 22.3594 12C24.5156 15.75 24.5156 20.2969 22.3594 24C20.2031 27.75 16.2656 30 12 30ZM8.625 12V12.0469C7.96875 12.0469 7.5 12.5156 7.5 13.1719C7.5 13.7812 7.96875 14.2969 8.625 14.2969H13.4531L9.09375 22.3594C8.8125 22.9219 9 23.5781 9.5625 23.9062C10.125 24.1875 10.7812 24 11.1094 23.4375L16.3594 13.6875C16.5469 13.3125 16.5 12.8906 16.3125 12.5625C16.125 12.2344 15.75 12 15.375 12H8.625Z" fill="black" fill-opacity="0.72"/>
</g>
<defs>
<clipPath id="clip0_2556_19798">
<rect width="24" height="36" fill="white"/>
</clipPath>
</defs>
</svg>
