<svg width="16" height="24" viewBox="0 0 16 24" fill="none" xmlns="http://www.w3.org/2000/svg">
<g id="label-paired / md / circle-check-md / regular" clip-path="url(#clip0_2556_15056)">
<path id="icon" d="M8 5C5.46875 5 3.1875 6.34375 1.9375 8.5C0.65625 10.6875 0.65625 13.3438 1.9375 15.5C3.1875 17.6875 5.46875 19 8 19C10.5 19 12.7812 17.6875 14.0312 15.5C15.3125 13.3438 15.3125 10.6875 14.0312 8.5C12.7812 6.34375 10.5 5 8 5ZM8 20C5.125 20 2.5 18.5 1.0625 16C-0.375 13.5312 -0.375 10.5 1.0625 8C2.5 5.53125 5.125 4 8 4C10.8438 4 13.4688 5.53125 14.9062 8C16.3438 10.5 16.3438 13.5312 14.9062 16C13.4688 18.5 10.8438 20 8 20ZM11.3438 10.375L7.34375 14.375C7.15625 14.5625 6.8125 14.5625 6.625 14.375L4.625 12.375C4.4375 12.1875 4.4375 11.8438 4.625 11.6562C4.8125 11.4688 5.15625 11.4688 5.34375 11.6562L7 13.3125L10.625 9.65625C10.8125 9.46875 11.1562 9.46875 11.3438 9.65625C11.5312 9.84375 11.5312 10.1875 11.3438 10.375Z" fill="black" fill-opacity="0.72"/>
</g>
<defs>
<clipPath id="clip0_2556_15056">
<rect width="16" height="24" fill="white"/>
</clipPath>
</defs>
</svg>
