<svg width="14" height="22" viewBox="0 0 14 22" fill="none" xmlns="http://www.w3.org/2000/svg">
<g id="label-paired / sm / wallet-sm / fill" clip-path="url(#clip0_2556_12334)">
<path id="icon" d="M1.75 4.625H12.25C12.7148 4.625 13.125 5.03516 13.125 5.5C13.125 5.99219 12.7148 6.375 12.25 6.375H2.1875C1.94141 6.375 1.75 6.59375 1.75 6.8125C1.75 7.05859 1.94141 7.25 2.1875 7.25H12.25C13.207 7.25 14 8.04297 14 9V15.125C14 16.1094 13.207 16.875 12.25 16.875H1.75C0.765625 16.875 0 16.1094 0 15.125V6.375C0 5.41797 0.765625 4.625 1.75 4.625ZM11.375 11.1875C10.8828 11.1875 10.5 11.5977 10.5 12.0625C10.5 12.5547 10.8828 12.9375 11.375 12.9375C11.8398 12.9375 12.25 12.5547 12.25 12.0625C12.25 11.5977 11.8398 11.1875 11.375 11.1875Z" fill="black" fill-opacity="0.72"/>
</g>
<defs>
<clipPath id="clip0_2556_12334">
<rect width="14" height="22" fill="white"/>
</clipPath>
</defs>
</svg>
