<svg width="12" height="18" viewBox="0 0 12 18" fill="none" xmlns="http://www.w3.org/2000/svg">
<g id="label-paired / caption / pen-caption / regular" clip-path="url(#clip0_2556_10031)">
<path id="icon" d="M9.25781 4.4375L7.99219 5.72656L9.77344 7.50781L11.0625 6.24219C11.2734 6.00781 11.2734 5.65625 11.0625 5.44531L10.0547 4.4375C9.84375 4.22656 9.49219 4.22656 9.25781 4.4375ZM7.45312 6.24219L1.94531 11.7734C1.75781 11.9375 1.61719 12.1719 1.54688 12.4062L0.914062 14.5859L3.09375 13.9297C3.32812 13.8594 3.5625 13.7422 3.72656 13.5547L9.25781 8.04688L7.45312 6.24219ZM10.5938 3.89844L11.6016 4.90625C12.0938 5.42188 12.0938 6.24219 11.6016 6.75781L4.26562 14.0938C3.98438 14.3516 3.65625 14.5625 3.30469 14.6562L0.46875 15.5C0.328125 15.5234 0.1875 15.5 0.09375 15.4062C0 15.3125 -0.0234375 15.1719 0 15.0312L0.84375 12.1953C0.9375 11.8438 1.14844 11.5156 1.40625 11.2344L8.74219 3.89844C9.25781 3.40625 10.0781 3.40625 10.5938 3.89844Z" fill="black" fill-opacity="0.72"/>
</g>
<defs>
<clipPath id="clip0_2556_10031">
<rect width="12" height="18" fill="white"/>
</clipPath>
</defs>
</svg>
