<svg width="14" height="22" viewBox="0 0 14 22" fill="none" xmlns="http://www.w3.org/2000/svg">
<g id="label-paired / sm / forward-sm / fill" clip-path="url(#clip0_2556_12608)">
<path id="icon" d="M1.42188 15.8086C1.17578 16.0273 0.792969 16.082 0.492188 15.918C0.191406 15.7812 0 15.4805 0 15.125V6.375C0 6.04688 0.191406 5.74609 0.492188 5.58203C0.792969 5.44531 1.14844 5.5 1.42188 5.71875L6.125 9.62891V10.75V11.8984L1.42188 15.8086ZM7 13.375V10.75V7.25V6.375C7 6.04688 7.19141 5.74609 7.49219 5.58203C7.79297 5.44531 8.14844 5.5 8.42188 5.71875L13.6719 10.0938C13.8633 10.2578 14 10.5039 14 10.75C14 11.0234 13.8633 11.2695 13.6719 11.4336L8.42188 15.8086C8.17578 16.0273 7.79297 16.082 7.49219 15.918C7.19141 15.7812 7 15.4805 7 15.125V13.375Z" fill="black" fill-opacity="0.72"/>
</g>
<defs>
<clipPath id="clip0_2556_12608">
<rect width="14" height="22" fill="white"/>
</clipPath>
</defs>
</svg>
