<svg width="8" height="18" viewBox="0 0 8 18" fill="none" xmlns="http://www.w3.org/2000/svg">
<g id="label-paired / caption / six-caption / bold" clip-path="url(#clip0_2556_10251)">
<path id="icon" d="M6.625 11C6.625 9.57031 5.42969 8.375 4 8.375C3.22656 8.375 2.54688 8.70312 2.07812 9.21875L1.96094 9.35938C1.5625 9.82812 1.375 10.4141 1.375 11C1.375 12.4531 2.54688 13.625 4 13.625C5.42969 13.625 6.625 12.4531 6.625 11ZM3.64844 7.27344C3.76562 7.27344 3.88281 7.25 4 7.25C6.0625 7.25 7.75 8.9375 7.75 11C7.75 13.0859 6.0625 14.75 4 14.75C1.91406 14.75 0.25 13.0859 0.25 11C0.25 10.0391 0.601562 9.14844 1.21094 8.49219L4.49219 4.46094C4.67969 4.22656 5.03125 4.17969 5.28906 4.39062C5.52344 4.57812 5.57031 4.92969 5.35938 5.1875L3.64844 7.27344Z" fill="black" fill-opacity="0.72"/>
</g>
<defs>
<clipPath id="clip0_2556_10251">
<rect width="8" height="18" fill="white"/>
</clipPath>
</defs>
</svg>
