<svg width="27" height="36" viewBox="0 0 27 36" fill="none" xmlns="http://www.w3.org/2000/svg">
<g id="label-paired / xl / volume-xmark-xl / bold" clip-path="url(#clip0_3758_605)">
<path id="icon" d="M7.45312 15.4688C7.26562 15.6562 6.98438 15.75 6.75 15.75H2.625C2.39062 15.75 2.25 15.9375 2.25 16.125V19.875C2.25 20.1094 2.39062 20.25 2.625 20.25H6.75C6.98438 20.25 7.26562 20.3906 7.45312 20.5781L12.75 25.2188V10.8281L7.45312 15.4688ZM13.5938 7.5C14.3438 7.5 15 8.15625 15 8.90625V27.1406C15 27.8906 14.3438 28.5 13.5938 28.5C13.2188 28.5 12.8906 28.4062 12.6562 28.1719L6.28125 22.5H2.625C1.17188 22.5 0 21.3281 0 19.875V16.125C0 14.7188 1.17188 13.5 2.625 13.5H6.28125L12.6562 7.875C12.8906 7.64062 13.2188 7.5 13.5938 7.5ZM19.9219 13.8281L22.5 16.4062L25.0781 13.8281C25.5 13.4062 26.2031 13.4062 26.625 13.8281C27.0938 14.2969 27.0938 15 26.625 15.4219L24.0469 18L26.625 20.5781C27.0938 21.0469 27.0938 21.75 26.625 22.1719C26.2031 22.6406 25.5 22.6406 25.0781 22.1719L22.5 19.5938L19.9219 22.1719C19.4531 22.6406 18.75 22.6406 18.3281 22.1719C17.8594 21.75 17.8594 21.0469 18.3281 20.5781L20.9062 18L18.3281 15.4219C17.8594 15 17.8594 14.2969 18.3281 13.8281C18.75 13.4062 19.4531 13.4062 19.9219 13.8281Z" fill="black" fill-opacity="0.72"/>
</g>
<defs>
<clipPath id="clip0_3758_605">
<rect width="27" height="36" fill="white"/>
</clipPath>
</defs>
</svg>
