<svg width="9" height="18" viewBox="0 0 9 18" fill="none" xmlns="http://www.w3.org/2000/svg">
<g id="label-paired / caption / computer-mouse-scrollwheel-caption / fill" clip-path="url(#clip0_2556_10083)">
<path id="icon" d="M3.75 3.5H5.25C7.3125 3.5 9 5.1875 9 7.25V11.75C9 13.8359 7.3125 15.5 5.25 15.5H3.75C1.66406 15.5 0 13.8359 0 11.75V7.25C0 5.1875 1.66406 3.5 3.75 3.5ZM5.25 6.5C5.25 6.10156 4.89844 5.75 4.5 5.75C4.07812 5.75 3.75 6.10156 3.75 6.5V7.25C3.75 7.67188 4.07812 8 4.5 8C4.89844 8 5.25 7.67188 5.25 7.25V6.5Z" fill="black" fill-opacity="0.72"/>
</g>
<defs>
<clipPath id="clip0_2556_10083">
<rect width="9" height="18" fill="white"/>
</clipPath>
</defs>
</svg>
