<svg width="18" height="24" viewBox="0 0 18 24" fill="none" xmlns="http://www.w3.org/2000/svg">
<g id="label-paired / md / credit-card-md / fill" clip-path="url(#clip0_2556_14727)">
<path id="icon" d="M2 5H16C17.0938 5 18 5.90625 18 7V8H0V7C0 5.90625 0.875 5 2 5ZM18 11V17C18 18.125 17.0938 19 16 19H2C0.875 19 0 18.125 0 17V11H18ZM3.5 15C3.21875 15 3 15.25 3 15.5C3 15.7812 3.21875 16 3.5 16H5.5C5.75 16 6 15.7812 6 15.5C6 15.25 5.75 15 5.5 15H3.5ZM7 15.5C7 15.7812 7.21875 16 7.5 16H11.5C11.75 16 12 15.7812 12 15.5C12 15.25 11.75 15 11.5 15H7.5C7.21875 15 7 15.25 7 15.5Z" fill="black" fill-opacity="0.72"/>
</g>
<defs>
<clipPath id="clip0_2556_14727">
<rect width="18" height="24" fill="white"/>
</clipPath>
</defs>
</svg>
