<svg width="15" height="30" viewBox="0 0 15 30" fill="none" xmlns="http://www.w3.org/2000/svg">
<g id="label-paired / lg / lightbulb-lg / bold" clip-path="url(#clip0_2512_1037)">
<path id="icon" d="M11.6016 15.2266C12.1745 14.3932 12.474 13.4427 12.5 12.375C12.474 10.9688 11.9922 9.78385 11.0547 8.82031C10.0911 7.88281 8.90625 7.40104 7.5 7.375C6.09375 7.40104 4.90885 7.88281 3.94531 8.82031C3.00781 9.78385 2.52604 10.9688 2.5 12.375C2.52604 13.4427 2.82552 14.3932 3.39844 15.2266C3.52865 15.4349 3.69792 15.6693 3.90625 15.9297C4.45312 16.6328 4.96094 17.401 5.42969 18.2344C5.82031 18.9896 6.06771 19.7448 6.17188 20.5H4.25781C4.17969 20.0312 4.02344 19.5755 3.78906 19.1328C3.39844 18.4557 2.95573 17.7917 2.46094 17.1406C2.2526 16.8542 2.04427 16.5677 1.83594 16.2812C1.05469 15.1615 0.651042 13.8594 0.625 12.375C0.677083 10.4219 1.35417 8.80729 2.65625 7.53125C3.93229 6.22917 5.54688 5.55208 7.5 5.5C9.45312 5.55208 11.0677 6.22917 12.3438 7.53125C13.6458 8.80729 14.3229 10.4219 14.375 12.375C14.349 13.8594 13.9453 15.1615 13.1641 16.2812C12.9557 16.5677 12.7474 16.8411 12.5391 17.1016C12.5391 17.1276 12.5391 17.1406 12.5391 17.1406C12.0443 17.7917 11.6016 18.4557 11.2109 19.1328C10.9766 19.5755 10.8203 20.0312 10.7422 20.5H8.82812C8.93229 19.7448 9.17969 18.9896 9.57031 18.2344C10.0651 17.401 10.5859 16.6328 11.1328 15.9297C11.3151 15.6693 11.4714 15.4349 11.6016 15.2266ZM7.5 10.5C6.97917 10.526 6.53646 10.7083 6.17188 11.0469C5.83333 11.4115 5.65104 11.8542 5.625 12.375C5.59896 12.7656 5.39062 12.974 5 13C4.60938 12.974 4.40104 12.7656 4.375 12.375C4.40104 11.4896 4.70052 10.7474 5.27344 10.1484C5.8724 9.57552 6.61458 9.27604 7.5 9.25C7.89062 9.27604 8.09896 9.48438 8.125 9.875C8.09896 10.2656 7.89062 10.474 7.5 10.5ZM7.5 25.5C6.61458 25.474 5.8724 25.1745 5.27344 24.6016C4.70052 24.0026 4.40104 23.2604 4.375 22.375V21.75H10.625V22.375C10.599 23.2604 10.2995 24.0026 9.72656 24.6016C9.1276 25.1745 8.38542 25.474 7.5 25.5Z" fill="black" fill-opacity="0.72"/>
</g>
<defs>
<clipPath id="clip0_2512_1037">
<rect width="15" height="30" fill="white"/>
</clipPath>
</defs>
</svg>
