<svg width="21" height="36" viewBox="0 0 21 36" fill="none" xmlns="http://www.w3.org/2000/svg">
<g id="label-paired / xl / arrow-up-from-bracket-xl / fill" clip-path="url(#clip0_2556_19763)">
<path id="icon" d="M11.5312 6.46875L17.5312 12.4688C18.1406 13.0312 18.1406 14.0156 17.5312 14.5781C16.9688 15.1875 15.9844 15.1875 15.4219 14.5781L12 11.1562V21C12 21.8438 11.2969 22.5 10.5 22.5C9.65625 22.5 9 21.8438 9 21V11.1562L5.53125 14.5781C4.96875 15.1875 3.98438 15.1875 3.42188 14.5781C2.8125 14.0156 2.8125 13.0312 3.42188 12.4688L9.42188 6.46875C9.98438 5.85938 10.9688 5.85938 11.5312 6.46875ZM3 22.5V25.5C3 26.3438 3.65625 27 4.5 27H16.5C17.2969 27 18 26.3438 18 25.5V22.5C18 21.7031 18.6562 21 19.5 21C20.2969 21 21 21.7031 21 22.5V25.5C21 27.9844 18.9844 30 16.5 30H4.5C2.01562 30 0 27.9844 0 25.5V22.5C0 21.7031 0.65625 21 1.5 21C2.29688 21 3 21.7031 3 22.5Z" fill="black" fill-opacity="0.72"/>
</g>
<defs>
<clipPath id="clip0_2556_19763">
<rect width="21" height="36" fill="white"/>
</clipPath>
</defs>
</svg>
