<svg width="12" height="18" viewBox="0 0 12 18" fill="none" xmlns="http://www.w3.org/2000/svg">
<g id="label-paired / caption / circle-arrow-up-caption / fill" clip-path="url(#clip0_2556_10353)">
<path id="icon" d="M6 15.5C3.84375 15.5 1.875 14.375 0.796875 12.5C-0.28125 10.6484 -0.28125 8.375 0.796875 6.5C1.875 4.64844 3.84375 3.5 6 3.5C8.13281 3.5 10.1016 4.64844 11.1797 6.5C12.2578 8.375 12.2578 10.6484 11.1797 12.5C10.1016 14.375 8.13281 15.5 6 15.5ZM9.02344 8.91406L6.375 6.28906C6.16406 6.07812 5.8125 6.07812 5.60156 6.28906L2.97656 8.91406C2.74219 9.14844 2.74219 9.5 2.97656 9.71094C3.1875 9.94531 3.53906 9.94531 3.77344 9.71094L5.4375 8.04688V12.3125C5.4375 12.6406 5.67188 12.875 6 12.875C6.30469 12.875 6.5625 12.6406 6.5625 12.3125V8.04688L8.22656 9.71094C8.4375 9.94531 8.78906 9.94531 9.02344 9.71094C9.23438 9.5 9.23438 9.14844 9.02344 8.91406Z" fill="black" fill-opacity="0.72"/>
</g>
<defs>
<clipPath id="clip0_2556_10353">
<rect width="12" height="18" fill="white"/>
</clipPath>
</defs>
</svg>
