<svg width="24" height="36" viewBox="0 0 24 36" fill="none" xmlns="http://www.w3.org/2000/svg">
<g id="label-paired / xl / chart-mixed-xl / regular" clip-path="url(#clip0_2556_19818)">
<path id="icon" d="M23.7656 7.78125C24.0469 8.0625 24.0469 8.53125 23.7188 8.8125L15.4688 16.3125C15.1875 16.5938 14.7188 16.5938 14.4375 16.3125L8.90625 10.7344L1.17188 16.3594C0.84375 16.6406 0.375 16.5469 0.140625 16.2188C-0.140625 15.8906 -0.046875 15.4219 0.28125 15.1406L8.53125 9.14062C8.8125 8.95312 9.23438 9 9.51562 9.23438L15 14.7188L22.7344 7.73438C23.0156 7.45312 23.4844 7.45312 23.7656 7.78125ZM3.75 26.25V23.25C3.75 22.875 3.375 22.5 3 22.5C2.57812 22.5 2.25 22.875 2.25 23.25V26.25C2.25 26.6719 2.57812 27 3 27C3.375 27 3.75 26.6719 3.75 26.25ZM3 21C4.21875 21 5.25 22.0312 5.25 23.25V26.25C5.25 27.5156 4.21875 28.5 3 28.5C1.73438 28.5 0.75 27.5156 0.75 26.25V23.25C0.75 22.0312 1.73438 21 3 21ZM9.75 18.75C9.75 18.375 9.375 18 9 18C8.57812 18 8.25 18.375 8.25 18.75V26.25C8.25 26.6719 8.57812 27 9 27C9.375 27 9.75 26.6719 9.75 26.25V18.75ZM6.75 18.75C6.75 17.5312 7.73438 16.5 9 16.5C10.2188 16.5 11.25 17.5312 11.25 18.75V26.25C11.25 27.5156 10.2188 28.5 9 28.5C7.73438 28.5 6.75 27.5156 6.75 26.25V18.75ZM15.75 26.25V21.75C15.75 21.375 15.375 21 15 21C14.5781 21 14.25 21.375 14.25 21.75V26.25C14.25 26.6719 14.5781 27 15 27C15.375 27 15.75 26.6719 15.75 26.25ZM15 19.5C16.2188 19.5 17.25 20.5312 17.25 21.75V26.25C17.25 27.5156 16.2188 28.5 15 28.5C13.7344 28.5 12.75 27.5156 12.75 26.25V21.75C12.75 20.5312 13.7344 19.5 15 19.5ZM21.75 18.75C21.75 18.375 21.375 18 21 18C20.5781 18 20.25 18.375 20.25 18.75V26.25C20.25 26.6719 20.5781 27 21 27C21.375 27 21.75 26.6719 21.75 26.25V18.75ZM18.75 18.75C18.75 17.5312 19.7344 16.5 21 16.5C22.2188 16.5 23.25 17.5312 23.25 18.75V26.25C23.25 27.5156 22.2188 28.5 21 28.5C19.7344 28.5 18.75 27.5156 18.75 26.25V18.75Z" fill="black" fill-opacity="0.72"/>
</g>
<defs>
<clipPath id="clip0_2556_19818">
<rect width="24" height="36" fill="white"/>
</clipPath>
</defs>
</svg>
