<svg width="14" height="22" viewBox="0 0 14 22" fill="none" xmlns="http://www.w3.org/2000/svg">
<g id="label-paired / sm / grid-2-sm / regular" clip-path="url(#clip0_2556_12873)">
<path id="icon" d="M2.1875 5.5C1.94141 5.5 1.75 5.71875 1.75 5.9375V8.5625C1.75 8.80859 1.94141 9 2.1875 9H4.8125C5.03125 9 5.25 8.80859 5.25 8.5625V5.9375C5.25 5.71875 5.03125 5.5 4.8125 5.5H2.1875ZM0.875 5.9375C0.875 5.22656 1.44922 4.625 2.1875 4.625H4.8125C5.52344 4.625 6.125 5.22656 6.125 5.9375V8.5625C6.125 9.30078 5.52344 9.875 4.8125 9.875H2.1875C1.44922 9.875 0.875 9.30078 0.875 8.5625V5.9375ZM2.1875 12.5C1.94141 12.5 1.75 12.7188 1.75 12.9375V15.5625C1.75 15.8086 1.94141 16 2.1875 16H4.8125C5.03125 16 5.25 15.8086 5.25 15.5625V12.9375C5.25 12.7188 5.03125 12.5 4.8125 12.5H2.1875ZM0.875 12.9375C0.875 12.2266 1.44922 11.625 2.1875 11.625H4.8125C5.52344 11.625 6.125 12.2266 6.125 12.9375V15.5625C6.125 16.3008 5.52344 16.875 4.8125 16.875H2.1875C1.44922 16.875 0.875 16.3008 0.875 15.5625V12.9375ZM11.8125 5.5H9.1875C8.94141 5.5 8.75 5.71875 8.75 5.9375V8.5625C8.75 8.80859 8.94141 9 9.1875 9H11.8125C12.0312 9 12.25 8.80859 12.25 8.5625V5.9375C12.25 5.71875 12.0312 5.5 11.8125 5.5ZM9.1875 4.625H11.8125C12.5234 4.625 13.125 5.22656 13.125 5.9375V8.5625C13.125 9.30078 12.5234 9.875 11.8125 9.875H9.1875C8.44922 9.875 7.875 9.30078 7.875 8.5625V5.9375C7.875 5.22656 8.44922 4.625 9.1875 4.625ZM9.1875 12.5C8.94141 12.5 8.75 12.7188 8.75 12.9375V15.5625C8.75 15.8086 8.94141 16 9.1875 16H11.8125C12.0312 16 12.25 15.8086 12.25 15.5625V12.9375C12.25 12.7188 12.0312 12.5 11.8125 12.5H9.1875ZM7.875 12.9375C7.875 12.2266 8.44922 11.625 9.1875 11.625H11.8125C12.5234 11.625 13.125 12.2266 13.125 12.9375V15.5625C13.125 16.3008 12.5234 16.875 11.8125 16.875H9.1875C8.44922 16.875 7.875 16.3008 7.875 15.5625V12.9375Z" fill="black" fill-opacity="0.72"/>
</g>
<defs>
<clipPath id="clip0_2556_12873">
<rect width="14" height="22" fill="white"/>
</clipPath>
</defs>
</svg>
