<svg width="12" height="18" viewBox="0 0 12 18" fill="none" xmlns="http://www.w3.org/2000/svg">
<g id="label-paired / caption / circle-arrow-up-left-caption / bold" clip-path="url(#clip0_2556_10288)">
<path id="icon" d="M6 4.625C4.24219 4.625 2.64844 5.5625 1.75781 7.0625C0.890625 8.58594 0.890625 10.4375 1.75781 11.9375C2.64844 13.4609 4.24219 14.375 6 14.375C7.73438 14.375 9.32812 13.4609 10.2188 11.9375C11.0859 10.4375 11.0859 8.58594 10.2188 7.0625C9.32812 5.5625 7.73438 4.625 6 4.625ZM6 15.5C3.84375 15.5 1.875 14.375 0.796875 12.5C-0.28125 10.6484 -0.28125 8.375 0.796875 6.5C1.875 4.64844 3.84375 3.5 6 3.5C8.13281 3.5 10.1016 4.64844 11.1797 6.5C12.2578 8.375 12.2578 10.6484 11.1797 12.5C10.1016 14.375 8.13281 15.5 6 15.5ZM7.5 6.875V6.89844C7.80469 6.89844 8.0625 7.13281 8.0625 7.46094C8.0625 7.76562 7.80469 8.02344 7.5 8.02344H5.27344L8.4375 11.1875C8.67188 11.3984 8.67188 11.75 8.4375 11.9609C8.22656 12.1953 7.875 12.1953 7.66406 11.9609L4.5 8.79688V11.1875C4.5 11.5156 4.24219 11.75 3.9375 11.75C3.60938 11.75 3.375 11.5156 3.375 11.1875V7.4375C3.375 7.13281 3.60938 6.875 3.9375 6.875H7.5Z" fill="black" fill-opacity="0.72"/>
</g>
<defs>
<clipPath id="clip0_2556_10288">
<rect width="12" height="18" fill="white"/>
</clipPath>
</defs>
</svg>
