<svg width="10" height="24" viewBox="0 0 10 24" fill="none" xmlns="http://www.w3.org/2000/svg">
<g id="label-paired / md / forward-step-md / fill" clip-path="url(#clip0_2556_14690)">
<path id="icon" d="M1.625 17.7812C1.34375 18.0312 0.90625 18.0938 0.5625 17.9062C0.21875 17.75 0 17.4062 0 17V7C0 6.625 0.21875 6.28125 0.5625 6.09375C0.90625 5.9375 1.3125 6 1.625 6.25L7.625 11.25L8 11.5312V7C8 6.46875 8.4375 6 9 6C9.53125 6 10 6.46875 10 7V17C10 17.5625 9.53125 18 9 18C8.4375 18 8 17.5625 8 17V12.4688L7.625 12.7812L1.625 17.7812Z" fill="black" fill-opacity="0.72"/>
</g>
<defs>
<clipPath id="clip0_2556_14690">
<rect width="10" height="24" fill="white"/>
</clipPath>
</defs>
</svg>
