<svg width="20" height="24" viewBox="0 0 20 24" fill="none" xmlns="http://www.w3.org/2000/svg">
<g id="label-paired / md / handshake-md / bold" clip-path="url(#clip0_4513_687)">
<path id="icon" d="M8.5 6.03125L6.90625 7.625C6.40625 7.75 5.96875 8 5.59375 8.34375L4.78125 9.0625C4.4375 9.34375 4.03125 9.5 3.59375 9.5H3V13.5C3.625 13.5312 4.21875 13.7812 4.6875 14.25L5.78125 15.3438L6 15.5625L6.84375 16.4062C7.0625 16.625 7.375 16.625 7.5625 16.4062C7.625 16.375 7.65625 16.3125 7.6875 16.25C7.78125 16 7.96875 15.8125 8.21875 15.75C8.46875 15.7188 8.71875 15.7812 8.90625 15.9688L9.25 16.2812C9.625 16.6562 10.1875 16.6562 10.5625 16.2812C10.7188 16.125 10.8125 15.9062 10.8438 15.6875C10.8438 15.4062 11 15.1562 11.25 15.0625C11.5 14.9375 11.7812 14.9688 12.0312 15.125C12.3125 15.3125 12.7188 15.3125 12.9688 15.0312C13.2812 14.75 13.2812 14.2812 12.9688 13.9688L10.625 11.5938L9.5 12.625C8.65625 13.4375 7.34375 13.4375 6.46875 12.6562C5.46875 11.7812 5.4375 10.25 6.40625 9.34375L8.59375 7.28125C9.46875 6.46875 10.5938 6 11.7812 6C12.9062 6 14 6.4375 14.8438 7.1875L15.7812 8H17H18.25H19.5C19.75 8 20 8.25 20 8.5V15C20 15.5625 19.5312 16 19 16H18C17.625 16 17.2812 15.8125 17.125 15.5H14.4688C14.375 15.7188 14.2188 15.9375 14.0312 16.0938C13.5 16.625 12.7812 16.8438 12.0625 16.7188C11.9688 16.9688 11.8125 17.1562 11.625 17.3438C10.7812 18.2188 9.4375 18.2812 8.46875 17.625C7.6875 18.25 6.53125 18.2188 5.78125 17.4688L4.96875 16.625L4.75 16.4062L3.625 15.3125C3.4375 15.125 3.21875 15.0312 3 15.0312C3 15.5625 2.53125 16 2 16H1C0.4375 16 0 15.5625 0 15V8.5C0 8.25 0.21875 8 0.5 8H1.75H3H3.59375C3.65625 8 3.71875 8 3.78125 7.9375L4.59375 7.21875C5.46875 6.4375 6.59375 6 7.75 6H8.09375C8.21875 6 8.34375 6.03125 8.5 6.03125ZM17 14V9.5H15.5C15.3125 9.5 15.125 9.4375 15 9.3125L13.8438 8.3125C13.2812 7.78125 12.5312 7.5 11.7812 7.5C10.9688 7.5 10.2188 7.8125 9.625 8.375L7.4375 10.4375C7.125 10.75 7.125 11.25 7.46875 11.5312C7.75 11.8125 8.1875 11.8125 8.46875 11.5312L10.7188 9.46875C11.0312 9.1875 11.5 9.1875 11.7812 9.5C12.0625 9.8125 12.0312 10.2812 11.75 10.5625L11.7188 10.5938L14.0312 12.9062C14.3438 13.2188 14.5625 13.625 14.6562 14H16.9688H17ZM2 14.5C2 14.25 1.75 14 1.5 14C1.21875 14 1 14.25 1 14.5C1 14.7812 1.21875 15 1.5 15C1.75 15 2 14.7812 2 14.5ZM18.5 15C18.75 15 19 14.7812 19 14.5C19 14.25 18.75 14 18.5 14C18.2188 14 18 14.25 18 14.5C18 14.7812 18.2188 15 18.5 15Z" fill="black" fill-opacity="0.72"/>
</g>
<defs>
<clipPath id="clip0_4513_687">
<rect width="20" height="24" fill="white"/>
</clipPath>
</defs>
</svg>
