<svg width="11" height="18" viewBox="0 0 11 18" fill="none" xmlns="http://www.w3.org/2000/svg">
<g id="label-paired / caption / plus-caption / fill" clip-path="url(#clip0_2556_10555)">
<path id="icon" d="M6.25 5.375V8.75H9.625C10.0234 8.75 10.375 9.10156 10.375 9.5C10.375 9.92188 10.0234 10.25 9.625 10.25H6.25V13.625C6.25 14.0469 5.89844 14.375 5.5 14.375C5.07812 14.375 4.75 14.0469 4.75 13.625V10.25H1.375C0.953125 10.25 0.625 9.92188 0.625 9.5C0.625 9.10156 0.953125 8.75 1.375 8.75H4.75V5.375C4.75 4.97656 5.07812 4.625 5.5 4.625C5.89844 4.625 6.25 4.97656 6.25 5.375Z" fill="black" fill-opacity="0.72"/>
</g>
<defs>
<clipPath id="clip0_2556_10555">
<rect width="11" height="18" fill="white"/>
</clipPath>
</defs>
</svg>
