<svg width="23" height="30" viewBox="0 0 23 30" fill="none" xmlns="http://www.w3.org/2000/svg">
<g id="label-paired / lg / arrow-down-a-z-lg / regular" clip-path="url(#clip0_2556_17243)">
<path id="icon" d="M10.6797 20.3438L6.92969 24.0938C6.69531 24.3281 6.26562 24.3281 6.03125 24.0938L2.28125 20.3438C2.04688 20.1094 2.04688 19.6797 2.28125 19.4453C2.51562 19.2109 2.94531 19.2109 3.17969 19.4453L5.875 22.1406V7.375C5.875 7.0625 6.14844 6.75 6.5 6.75C6.8125 6.75 7.125 7.0625 7.125 7.375V22.1406L9.78125 19.4453C10.0156 19.2109 10.4453 19.2109 10.6797 19.4453C10.9141 19.6797 10.9141 20.1094 10.6797 20.3438ZM17.0469 7.10156L19.5469 12.1016C19.5469 12.1016 19.5469 12.1016 19.5469 12.1406L20.1719 13.3516C20.3281 13.6641 20.2109 14.0547 19.8984 14.2109C19.5859 14.3672 19.1953 14.2109 19.0391 13.9375L18.6094 13H14.3516L13.9219 13.9375C13.7656 14.25 13.375 14.3672 13.0625 14.2109C12.75 14.0547 12.6328 13.6641 12.7891 13.3516L13.4141 12.1406C13.4141 12.1016 13.4141 12.1016 13.4141 12.1016L15.9141 7.10156C16.0312 6.90625 16.2266 6.75 16.5 6.75C16.7344 6.75 16.9297 6.90625 17.0469 7.10156ZM16.5 8.78125L14.9766 11.75H17.9844L16.5 8.78125ZM14 16.75H19C19.2344 16.75 19.4297 16.9062 19.5469 17.1406C19.6641 17.3359 19.625 17.6094 19.4688 17.7656L15.2891 23H19C19.3125 23 19.625 23.3125 19.625 23.625C19.625 23.9766 19.3125 24.25 19 24.25H14C13.7266 24.25 13.5312 24.1328 13.4141 23.8984C13.3359 23.7031 13.3359 23.4297 13.4922 23.2344L17.6719 18H14C13.6484 18 13.375 17.7266 13.375 17.375C13.375 17.0625 13.6484 16.75 14 16.75Z" fill="black" fill-opacity="0.72"/>
</g>
<defs>
<clipPath id="clip0_2556_17243">
<rect width="23" height="30" fill="white"/>
</clipPath>
</defs>
</svg>
