<svg width="12" height="18" viewBox="0 0 12 18" fill="none" xmlns="http://www.w3.org/2000/svg">
<g id="label-paired / caption / bank-caption / bold" clip-path="url(#clip0_2362_637)">
<path id="icon" d="M6.28125 3.57031L11.5781 6.5C11.8438 6.65625 11.9844 6.89062 12 7.20312C12 7.42188 11.9219 7.60938 11.7656 7.76562C11.6094 7.92188 11.4219 8 11.2031 8H0.796875C0.578125 8 0.390625 7.92188 0.234375 7.76562C0.078125 7.60938 0 7.42188 0 7.20312C0.015625 6.89062 0.15625 6.65625 0.421875 6.5L5.71875 3.57031C5.90625 3.47656 6.09375 3.47656 6.28125 3.57031ZM5.34375 6.875C5.28125 6.76562 5.25 6.64062 5.25 6.5C5.25 6.28125 5.32031 6.10156 5.46094 5.96094C5.60156 5.82031 5.78125 5.75 6 5.75C6.21875 5.75 6.39844 5.82031 6.53906 5.96094C6.67969 6.10156 6.75 6.28125 6.75 6.5C6.75 6.64062 6.71875 6.76562 6.65625 6.875H9.9375L6 4.69531L2.0625 6.875H5.34375ZM1.5 8.75H2.625V12.5H4.125V8.75H5.25V12.5H6.75V8.75H7.875V12.5H9.375V8.75H10.5V12.5H10.6875C11.0312 12.5312 11.2188 12.7188 11.25 13.0625C11.2188 13.4062 11.0312 13.5938 10.6875 13.625H1.5C1.15625 13.5938 0.96875 13.4062 0.9375 13.0625C0.96875 12.7188 1.15625 12.5312 1.5 12.5V8.75ZM0.75 14.375H11.4375C11.7812 14.4062 11.9688 14.5938 12 14.9375C11.9688 15.2812 11.7812 15.4688 11.4375 15.5H0.75C0.40625 15.4688 0.21875 15.2812 0.1875 14.9375C0.21875 14.5938 0.40625 14.4062 0.75 14.375Z" fill="black" fill-opacity="0.72"/>
</g>
<defs>
<clipPath id="clip0_2362_637">
<rect width="12" height="18" fill="white"/>
</clipPath>
</defs>
</svg>
