<svg width="24" height="36" viewBox="0 0 24 36" fill="none" xmlns="http://www.w3.org/2000/svg">
<g id="label-paired / xl / table-layout-xl / regular" clip-path="url(#clip0_2556_19345)">
<path id="icon" d="M21 9H3C2.15625 9 1.5 9.70312 1.5 10.5V13.5H22.5V10.5C22.5 9.70312 21.7969 9 21 9ZM1.5 25.5C1.5 26.3438 2.15625 27 3 27H7.5V15H1.5V25.5ZM9 27H21C21.7969 27 22.5 26.3438 22.5 25.5V15H9V27ZM3 7.5H21C22.6406 7.5 24 8.85938 24 10.5V25.5C24 27.1875 22.6406 28.5 21 28.5H3C1.3125 28.5 0 27.1875 0 25.5V10.5C0 8.85938 1.3125 7.5 3 7.5Z" fill="black" fill-opacity="0.72"/>
</g>
<defs>
<clipPath id="clip0_2556_19345">
<rect width="24" height="36" fill="white"/>
</clipPath>
</defs>
</svg>
