<svg width="25" height="30" viewBox="0 0 25 30" fill="none" xmlns="http://www.w3.org/2000/svg">
<g id="label-paired / lg / wifi-lg / fill" clip-path="url(#clip0_2556_17116)">
<path id="icon" d="M2.10938 13.4297C1.60156 13.9375 0.820312 13.8984 0.3125 13.3906C-0.15625 12.9219 -0.117188 12.1016 0.351562 11.6328C3.51562 8.625 7.77344 6.75 12.5 6.75C17.1875 6.75 21.4453 8.625 24.6094 11.6328C25.0781 12.1016 25.1172 12.9219 24.6484 13.3906C24.1406 13.8984 23.3594 13.9375 22.8516 13.4297C20.1562 10.8516 16.5234 9.25 12.5 9.25C8.4375 9.25 4.80469 10.8516 2.10938 13.4297ZM12.5 15.5C10.2734 15.5 8.24219 16.3594 6.67969 17.6875C6.17188 18.1562 5.39062 18.1172 4.92188 17.6094C4.49219 17.0625 4.53125 16.2812 5.03906 15.8125C7.03125 14.0938 9.64844 13 12.5 13C15.3516 13 17.9297 14.0938 19.9219 15.8125C20.4297 16.2812 20.5078 17.0625 20.0391 17.6094C19.5703 18.1172 18.7891 18.1562 18.2812 17.6875C16.7188 16.3594 14.6875 15.5 12.5 15.5ZM15 21.75C15 22.6484 14.4922 23.4688 13.75 23.9375C12.9688 24.3672 11.9922 24.3672 11.25 23.9375C10.4688 23.4688 10 22.6484 10 21.75C10 20.8906 10.4688 20.0703 11.25 19.6016C11.9922 19.1719 12.9688 19.1719 13.75 19.6016C14.4922 20.0703 15 20.8906 15 21.75Z" fill="black" fill-opacity="0.72"/>
</g>
<defs>
<clipPath id="clip0_2556_17116">
<rect width="25" height="30" fill="white"/>
</clipPath>
</defs>
</svg>
