<svg width="16" height="24" viewBox="0 0 16 24" fill="none" xmlns="http://www.w3.org/2000/svg">
<g id="label-paired / md / gauge-min-md / fill" clip-path="url(#clip0_2556_15307)">
<path id="icon" d="M0 12C0 9.15625 1.5 6.53125 4 5.09375C6.46875 3.65625 9.5 3.65625 12 5.09375C14.4688 6.53125 16 9.15625 16 12C16 14.875 14.4688 17.5 12 18.9375C9.5 20.375 6.46875 20.375 4 18.9375C1.5 17.5 0 14.875 0 12ZM9 7C9 6.46875 8.53125 6 8 6C7.4375 6 7 6.46875 7 7C7 7.5625 7.4375 8 8 8C8.53125 8 9 7.5625 9 7ZM8 17C9.09375 17 10 16.125 10 15C10 13.9062 9.09375 13 8 13C7.53125 13 7.125 13.1562 6.8125 13.4062L3.125 11.125C2.78125 10.9062 2.3125 11.0312 2.09375 11.375C1.875 11.7188 2 12.1875 2.34375 12.4062L6 14.6875C6 14.7812 6 14.9062 6 15C6 16.125 6.875 17 8 17ZM5.5 8.5C5.5 7.96875 5.03125 7.5 4.5 7.5C3.9375 7.5 3.5 7.96875 3.5 8.5C3.5 9.0625 3.9375 9.5 4.5 9.5C5.03125 9.5 5.5 9.0625 5.5 8.5ZM13 13C13.5312 13 14 12.5625 14 12C14 11.4688 13.5312 11 13 11C12.4375 11 12 11.4688 12 12C12 12.5625 12.4375 13 13 13ZM12.5 8.5C12.5 7.96875 12.0312 7.5 11.5 7.5C10.9375 7.5 10.5 7.96875 10.5 8.5C10.5 9.0625 10.9375 9.5 11.5 9.5C12.0312 9.5 12.5 9.0625 12.5 8.5Z" fill="black" fill-opacity="0.72"/>
</g>
<defs>
<clipPath id="clip0_2556_15307">
<rect width="16" height="24" fill="white"/>
</clipPath>
</defs>
</svg>
