<svg width="8" height="18" viewBox="0 0 8 18" fill="none" xmlns="http://www.w3.org/2000/svg">
<g id="label-paired / caption / sterling-sign-caption / fill" clip-path="url(#clip0_2556_10648)">
<path id="icon" d="M2.875 7.27344V8.75H5.5C5.89844 8.75 6.25 9.10156 6.25 9.5C6.25 9.92188 5.89844 10.25 5.5 10.25H2.875V11.3047C2.875 11.9844 2.6875 12.6406 2.33594 13.2266L2.3125 13.25H7C7.39844 13.25 7.75 13.6016 7.75 14C7.75 14.4219 7.39844 14.75 7 14.75H1C0.71875 14.75 0.460938 14.6094 0.34375 14.375C0.203125 14.1406 0.203125 13.8594 0.34375 13.625L1.04688 12.4531C1.25781 12.1016 1.375 11.7031 1.375 11.3047V10.25H1C0.578125 10.25 0.25 9.92188 0.25 9.5C0.25 9.10156 0.578125 8.75 1 8.75H1.375V7.27344C1.375 5.60938 2.71094 4.25 4.375 4.25C4.70312 4.25 5.00781 4.32031 5.33594 4.41406L7.23438 5.04688C7.63281 5.1875 7.84375 5.60938 7.70312 6.00781C7.5625 6.38281 7.14062 6.59375 6.76562 6.47656L4.84375 5.84375C4.70312 5.79688 4.53906 5.75 4.375 5.75C3.53125 5.75 2.875 6.42969 2.875 7.27344Z" fill="black" fill-opacity="0.72"/>
</g>
<defs>
<clipPath id="clip0_2556_10648">
<rect width="8" height="18" fill="white"/>
</clipPath>
</defs>
</svg>
