<svg width="15" height="18" viewBox="0 0 15 18" fill="none" xmlns="http://www.w3.org/2000/svg">
<g id="label-paired / caption / bell-on-caption / bold" clip-path="url(#clip0_2556_10150)">
<path id="icon" d="M7.5 3.5C7.89844 3.5 8.25 3.85156 8.25 4.25V4.71875C9.96094 5.04688 11.25 6.57031 11.25 8.375V8.98438C11.25 10.0391 11.6016 11.0703 12.2578 11.9141L12.6094 12.3359C12.75 12.5234 12.7734 12.7578 12.6797 12.9453C12.5859 13.1328 12.3984 13.25 12.1875 13.25H2.8125C2.57812 13.25 2.39062 13.1328 2.29688 12.9453C2.20312 12.7578 2.22656 12.5234 2.36719 12.3359L2.71875 11.9141C3.375 11.0703 3.75 10.0391 3.75 8.98438V8.375C3.75 6.57031 5.03906 5.04688 6.75 4.71875V4.25C6.75 3.85156 7.07812 3.5 7.5 3.5ZM7.5 5.75C6.04688 5.75 4.875 6.94531 4.875 8.375V8.98438C4.875 10.1094 4.54688 11.1875 3.9375 12.125H11.0391C10.4297 11.1875 10.125 10.1094 10.125 8.98438V8.375C10.125 6.94531 8.92969 5.75 7.5 5.75ZM9 14C9 14.3984 8.83594 14.7969 8.55469 15.0781C8.27344 15.3594 7.89844 15.5 7.5 15.5C7.10156 15.5 6.70312 15.3594 6.42188 15.0781C6.14062 14.7969 6 14.3984 6 14H7.5H9ZM0 8.1875C0 7.88281 0.234375 7.625 0.5625 7.625H2.4375C2.74219 7.625 3 7.88281 3 8.1875C3 8.51562 2.74219 8.75 2.4375 8.75H0.5625C0.234375 8.75 0 8.51562 0 8.1875ZM12.5625 7.625H14.4375C14.7422 7.625 15 7.88281 15 8.1875C15 8.51562 14.7422 8.75 14.4375 8.75H12.5625C12.2344 8.75 12 8.51562 12 8.1875C12 7.88281 12.2344 7.625 12.5625 7.625ZM13.9922 4.01562C14.1328 4.29688 14.0156 4.625 13.7344 4.76562L12.2344 5.51562C11.9531 5.65625 11.625 5.53906 11.4844 5.25781C11.3438 4.97656 11.4609 4.64844 11.7422 4.50781L13.2422 3.75781C13.5234 3.61719 13.8516 3.73438 13.9922 4.01562ZM1.24219 4.76562C0.960938 4.625 0.84375 4.29688 0.984375 4.01562C1.125 3.73438 1.45312 3.61719 1.73438 3.75781L3.23438 4.50781C3.51562 4.64844 3.63281 4.97656 3.49219 5.25781C3.35156 5.53906 3.02344 5.65625 2.74219 5.51562L1.24219 4.76562Z" fill="black" fill-opacity="0.72"/>
</g>
<defs>
<clipPath id="clip0_2556_10150">
<rect width="15" height="18" fill="white"/>
</clipPath>
</defs>
</svg>
