<svg width="24" height="36" viewBox="0 0 24 36" fill="none" xmlns="http://www.w3.org/2000/svg">
<g id="label-paired / xl / gear-xl / bold" clip-path="url(#clip0_2556_19983)">
<path id="icon" d="M12 6C12.7969 6 13.5469 6.09375 14.2969 6.23438C14.6719 6.32812 15.3281 6.51562 15.7031 7.17188C15.7969 7.35938 15.8438 7.54688 15.8906 7.73438L16.3594 9.5625C16.4062 9.79688 16.875 10.0781 17.1562 9.98438L18.9375 9.46875C19.125 9.42188 19.3125 9.375 19.5 9.375C20.25 9.375 20.7656 9.84375 21 10.125C22.0312 11.2969 22.8281 12.6562 23.3438 14.1562C23.4844 14.5312 23.625 15.1875 23.2031 15.7969C23.1094 15.9844 22.9688 16.125 22.8281 16.2656L21.5156 17.5781C21.2812 17.7656 21.2812 18.2812 21.5156 18.4688L22.8281 19.7812C22.9688 19.9219 23.1094 20.0625 23.2031 20.25C23.5781 20.8594 23.4375 21.5156 23.3438 21.8906C22.8281 23.3906 22.0312 24.75 21 25.9219C20.7656 26.2031 20.25 26.6719 19.5 26.6719C19.3125 26.6719 19.125 26.625 18.9375 26.5781L17.1562 26.0156C16.875 25.9688 16.4062 26.2031 16.3594 26.4844L15.8906 28.3125C15.8438 28.5 15.7969 28.6875 15.7031 28.875C15.3281 29.5312 14.6719 29.7188 14.2969 29.8125C13.5469 29.9531 12.7969 30 12 30C11.2031 30 10.4062 29.9531 9.65625 29.8125C9.28125 29.7188 8.625 29.5312 8.25 28.875C8.15625 28.6875 8.10938 28.5 8.0625 28.3125L7.59375 26.4844C7.54688 26.2031 7.07812 25.9688 6.84375 26.0156L5.0625 26.5781C4.875 26.625 4.64062 26.625 4.45312 26.6719C3.70312 26.6719 3.1875 26.2031 2.95312 25.9219C1.92188 24.75 1.125 23.3906 0.609375 21.8906C0.515625 21.5156 0.375 20.8594 0.75 20.2031C0.84375 20.0625 0.984375 19.875 1.125 19.7344L2.48438 18.4688C2.67188 18.2812 2.67188 17.7656 2.48438 17.5781L1.125 16.2656C0.984375 16.125 0.84375 15.9844 0.75 15.7969C0.375 15.1875 0.515625 14.5312 0.609375 14.1562C1.125 12.6562 1.92188 11.2969 2.95312 10.125C3.1875 9.84375 3.70312 9.375 4.45312 9.375C4.64062 9.375 4.875 9.42188 5.0625 9.46875L6.84375 9.98438C7.07812 10.0781 7.54688 9.79688 7.59375 9.5625L8.0625 7.73438C8.10938 7.54688 8.15625 7.35938 8.25 7.17188C8.625 6.51562 9.28125 6.32812 9.65625 6.23438C10.4062 6.09375 11.2031 6 12 6ZM10.2188 8.4375L9.79688 10.0781C9.42188 11.5781 7.6875 12.6094 6.1875 12.1875L4.54688 11.6719C3.79688 12.6094 3.1875 13.6406 2.76562 14.7656L4.03125 15.9375C5.15625 17.0156 5.15625 19.0312 4.03125 20.1094L2.76562 21.2812C3.1875 22.4062 3.79688 23.4375 4.54688 24.375L6.1875 23.8594C7.6875 23.4375 9.42188 24.4688 9.79688 25.9688L10.2188 27.6094C11.3438 27.8438 12.6094 27.8438 13.7812 27.6094L14.1562 25.9688C14.5312 24.4688 16.2656 23.4375 17.7656 23.8594L19.4062 24.375C20.1562 23.4375 20.7656 22.4062 21.1875 21.2812L19.9688 20.1094C18.8438 19.0312 18.8438 17.0156 19.9688 15.9375L21.1875 14.7656C20.7656 13.6406 20.1562 12.6094 19.4062 11.6719L17.7656 12.1875C16.3125 12.6094 14.5312 11.5781 14.1562 10.0781L13.7812 8.4375C12.6094 8.20312 11.3438 8.20312 10.2188 8.4375ZM9.75 18C9.75 18.8438 10.1719 19.5469 10.875 19.9688C11.5312 20.3906 12.4219 20.3906 13.125 19.9688C13.7812 19.5469 14.25 18.8438 14.25 18C14.25 17.2031 13.7812 16.5 13.125 16.0781C12.4219 15.6562 11.5312 15.6562 10.875 16.0781C10.1719 16.5 9.75 17.2031 9.75 18ZM12 22.5C10.3594 22.5 8.90625 21.6562 8.0625 20.25C7.26562 18.8906 7.26562 17.1562 8.0625 15.75C8.90625 14.3906 10.3594 13.5 12 13.5C13.5938 13.5 15.0469 14.3906 15.8906 15.75C16.6875 17.1562 16.6875 18.8906 15.8906 20.25C15.0469 21.6562 13.5938 22.5 12 22.5Z" fill="black" fill-opacity="0.72"/>
</g>
<defs>
<clipPath id="clip0_2556_19983">
<rect width="24" height="36" fill="white"/>
</clipPath>
</defs>
</svg>
