<svg width="24" height="36" viewBox="0 0 24 36" fill="none" xmlns="http://www.w3.org/2000/svg">
<g id="label-paired / xl / file-csv-xl / bold" clip-path="url(#clip0_2365_907)">
<path id="icon" d="M3 27.75H4.5V30H3C2.15625 29.9688 1.45312 29.6719 0.890625 29.1094C0.328125 28.5469 0.03125 27.8438 0 27V9C0.03125 8.15625 0.328125 7.45312 0.890625 6.89062C1.45312 6.32812 2.15625 6.03125 3 6H10.7812C11.5938 6 12.2969 6.29687 12.8906 6.89062L17.1094 11.1094C17.7031 11.7031 18 12.4219 18 13.2656V19.5H15.75V13.5H12C11.5625 13.5 11.2031 13.3594 10.9219 13.0781C10.6406 12.7969 10.5 12.4375 10.5 12V8.25H3C2.53125 8.28125 2.28125 8.53125 2.25 9V27C2.28125 27.4688 2.53125 27.7188 3 27.75ZM9.375 22.5H10.125C10.6562 22.5 11.0938 22.6875 11.4375 23.0625C11.8125 23.4062 12 23.8438 12 24.375V24.75C11.9688 25.2188 11.7188 25.4688 11.25 25.5C10.7812 25.4688 10.5312 25.2188 10.5 24.75V24.375C10.4688 24.1562 10.3438 24.0312 10.125 24H9.375C9.15625 24.0312 9.03125 24.1562 9 24.375V28.125C9.03125 28.3438 9.15625 28.4688 9.375 28.5H10.125C10.3438 28.4688 10.4688 28.3438 10.5 28.125V27.75C10.5312 27.2812 10.7812 27.0312 11.25 27C11.7188 27.0312 11.9688 27.2812 12 27.75V28.125C12 28.6562 11.8125 29.0938 11.4375 29.4375C11.0938 29.8125 10.6562 30 10.125 30H9.375C8.84375 30 8.40625 29.8125 8.0625 29.4375C7.6875 29.0938 7.5 28.6562 7.5 28.125V24.375C7.5 23.8438 7.6875 23.4062 8.0625 23.0625C8.40625 22.6875 8.84375 22.5 9.375 22.5ZM15.6094 22.5H17.25C17.7188 22.5312 17.9688 22.7812 18 23.25C17.9688 23.7188 17.7188 23.9688 17.25 24H15.6094C15.2344 24.0312 15.0312 24.2344 15 24.6094C15 24.8594 15.125 25.0469 15.375 25.1719L17.1094 25.9688C17.9219 26.3438 18.3438 26.9844 18.375 27.8906C18.375 28.4844 18.1719 28.9844 17.7656 29.3906C17.3594 29.7969 16.8594 30 16.2656 30H14.25C13.7812 29.9688 13.5312 29.7188 13.5 29.25C13.5312 28.7812 13.7812 28.5312 14.25 28.5H16.2656C16.6406 28.4688 16.8438 28.2656 16.875 27.8906C16.875 27.6406 16.75 27.4531 16.5 27.3281L14.7656 26.5312C13.9531 26.1562 13.5312 25.5156 13.5 24.6094C13.5 24.0156 13.7031 23.5156 14.1094 23.1094C14.5156 22.7031 15.0156 22.5 15.6094 22.5ZM20.25 22.5C20.7188 22.5312 20.9688 22.7812 21 23.25V24.75C21 25.8438 21.25 26.875 21.75 27.8438C22.25 26.875 22.5 25.8438 22.5 24.75V23.25C22.5312 22.7812 22.7812 22.5312 23.25 22.5C23.7188 22.5312 23.9688 22.7812 24 23.25V24.75C24 26.4062 23.5312 27.9219 22.5938 29.2969L22.3594 29.6719C22.2031 29.8906 22 30 21.75 30C21.5 30 21.2969 29.8906 21.1406 29.6719L20.9062 29.2969C19.9688 27.9219 19.5 26.4062 19.5 24.75V23.25C19.5312 22.7812 19.7812 22.5312 20.25 22.5Z" fill="black" fill-opacity="0.72"/>
</g>
<defs>
<clipPath id="clip0_2365_907">
<rect width="24" height="36" fill="white"/>
</clipPath>
</defs>
</svg>
