<svg width="5" height="18" viewBox="0 0 5 18" fill="none" xmlns="http://www.w3.org/2000/svg">
<g id="label-paired / caption / info-caption / bold" clip-path="url(#clip0_2556_9941)">
<path id="icon" d="M1.5625 5.1875C1.5625 4.85938 1.72656 4.55469 2.03125 4.39062C2.3125 4.22656 2.66406 4.22656 2.96875 4.39062C3.25 4.55469 3.4375 4.85938 3.4375 5.1875C3.4375 5.53906 3.25 5.84375 2.96875 6.00781C2.66406 6.17188 2.3125 6.17188 2.03125 6.00781C1.72656 5.84375 1.5625 5.53906 1.5625 5.1875ZM0.625 8.1875C0.625 7.88281 0.859375 7.625 1.1875 7.625H2.5C2.80469 7.625 3.0625 7.88281 3.0625 8.1875V14.375H4.1875C4.49219 14.375 4.75 14.6328 4.75 14.9375C4.75 15.2656 4.49219 15.5 4.1875 15.5H0.8125C0.484375 15.5 0.25 15.2656 0.25 14.9375C0.25 14.6328 0.484375 14.375 0.8125 14.375H1.9375V8.75H1.1875C0.859375 8.75 0.625 8.51562 0.625 8.1875Z" fill="black" fill-opacity="0.72"/>
</g>
<defs>
<clipPath id="clip0_2556_9941">
<rect width="5" height="18" fill="white"/>
</clipPath>
</defs>
</svg>
