<svg width="20" height="30" viewBox="0 0 20 30" fill="none" xmlns="http://www.w3.org/2000/svg">
<g id="label-paired / lg / app-store-lg" clip-path="url(#clip0_2556_16996)">
<path id="icon" d="M9.96094 10.2266L9.64844 9.64062C9.41406 9.25 8.90625 9.13281 8.55469 9.32812C8.16406 9.5625 8.04688 10.0312 8.24219 10.4219L9.0625 11.8281L6.44531 16.3594H4.41406C3.98438 16.3594 3.63281 16.7109 3.63281 17.1406C3.63281 17.5703 3.98438 17.9219 4.41406 17.9219H11.6797C12.0312 17.2969 11.5625 16.3594 10.7812 16.3594H8.28125L11.7188 10.4219C11.9531 10.0312 11.7969 9.5625 11.4062 9.32812C11.0547 9.13281 10.5469 9.25 10.3516 9.64062L9.96094 10.2266ZM6.91406 18.7422C6.48438 18.2734 5.97656 18.1172 5.3125 18.3125L4.76562 19.2891C4.53125 19.6797 4.64844 20.1484 5.03906 20.3828C5.42969 20.5781 5.9375 20.4609 6.13281 20.0703L6.91406 18.7422ZM13.5156 16.3594C12.4609 14.5234 11.6797 13.1953 11.1719 12.2969C10.6641 12.6875 10.1953 13.8203 10.8594 14.9922C11.5234 16.125 12.5 17.8047 13.8281 20.0703C14.0234 20.4609 14.5312 20.5781 14.9219 20.3828C15.2734 20.1484 15.4297 19.6797 15.1953 19.2891L14.4141 17.9219H15.5859C16.0156 17.9219 16.3672 17.5703 16.3672 17.1406C16.3672 16.7109 16.0156 16.3594 15.5859 16.3594H13.5156ZM10 5.8125C15.3516 5.8125 19.6875 10.1484 19.6875 15.5C19.6875 20.8516 15.3516 25.1875 10 25.1875C4.64844 25.1875 0.3125 20.8516 0.3125 15.5C0.3125 10.1484 4.64844 5.8125 10 5.8125ZM18.4375 15.5C18.4375 10.8516 14.6094 7.0625 10 7.0625C5.3125 7.0625 1.5625 10.8906 1.5625 15.5C1.5625 20.1875 5.35156 23.9375 10 23.9375C14.6484 23.9375 18.4375 20.1484 18.4375 15.5Z" fill="black" fill-opacity="0.72"/>
</g>
<defs>
<clipPath id="clip0_2556_16996">
<rect width="20" height="30" fill="white"/>
</clipPath>
</defs>
</svg>
