<svg width="16" height="22" viewBox="0 0 16 22" fill="none" xmlns="http://www.w3.org/2000/svg">
<g id="label-paired / sm / arrow-up-a-z-sm / bold" clip-path="url(#clip0_2556_12674)">
<path id="icon" d="M11.5 4.625C11.7461 4.625 11.9648 4.78906 12.0742 5.00781L14.2617 9.38281C14.4258 9.71094 14.2891 10.0938 13.9609 10.2578C13.6602 10.4219 13.25 10.2852 13.0859 9.95703L12.7305 9.21875C12.6758 9.21875 12.6211 9.24609 12.5938 9.24609H10.2422L9.88672 9.95703C9.72266 10.2852 9.33984 10.4219 9.01172 10.2578C8.68359 10.0938 8.54688 9.71094 8.71094 9.38281L10.8984 5.00781C11.0078 4.78906 11.2266 4.625 11.5 4.625ZM10.8984 7.90625H12.0742L11.5 6.75781L10.8984 7.90625ZM4.03516 4.81641C4.28125 4.57031 4.69141 4.57031 4.9375 4.81641L7.5625 7.44141C7.83594 7.71484 7.83594 8.125 7.5625 8.37109C7.31641 8.64453 6.90625 8.64453 6.66016 8.37109L5.15625 6.86719V16.2188C5.15625 16.6016 4.85547 16.875 4.5 16.875C4.11719 16.875 3.84375 16.6016 3.84375 16.2188V6.86719L2.33984 8.37109C2.06641 8.64453 1.65625 8.64453 1.41016 8.37109C1.13672 8.125 1.13672 7.71484 1.41016 7.46875L4.03516 4.84375V4.81641ZM9.75 11.625H13.25C13.4961 11.625 13.7422 11.7891 13.8242 12.0352C13.9336 12.2539 13.9062 12.5273 13.7148 12.7188L11.1992 15.5625H13.25C13.6055 15.5625 13.9062 15.8633 13.9062 16.2188C13.9062 16.6016 13.6055 16.875 13.25 16.875H9.75C9.47656 16.875 9.25781 16.7383 9.14844 16.4922C9.03906 16.2734 9.06641 16 9.25781 15.7812L11.7734 12.9375H9.75C9.36719 12.9375 9.09375 12.6641 9.09375 12.2812C9.09375 11.9258 9.36719 11.625 9.75 11.625Z" fill="black" fill-opacity="0.72"/>
</g>
<defs>
<clipPath id="clip0_2556_12674">
<rect width="16" height="22" fill="white"/>
</clipPath>
</defs>
</svg>
