<svg width="14" height="22" viewBox="0 0 14 22" fill="none" xmlns="http://www.w3.org/2000/svg">
<g id="label-paired / sm / shield-check-sm / fill" clip-path="url(#clip0_2556_12377)">
<path id="icon" d="M7.35547 3.83203L12.4961 6.01953C13.0977 6.29297 13.5625 6.86719 13.5625 7.57812C13.5352 10.3125 12.4141 15.2617 7.71094 17.5312C7.24609 17.75 6.72656 17.75 6.26172 17.5312C1.55859 15.2617 0.4375 10.3125 0.4375 7.57812C0.410156 6.86719 0.875 6.29297 1.47656 6.01953L6.61719 3.83203C6.72656 3.77734 6.86328 3.75 7 3.75C7.10938 3.75 7.24609 3.77734 7.35547 3.83203ZM8.53125 9.4375C8.53125 8.61719 7.82031 7.90625 7 7.90625C6.15234 7.90625 5.46875 8.61719 5.46875 9.4375C5.46875 10.0664 5.82422 10.5859 6.34375 10.832V12.7188C6.34375 13.1016 6.61719 13.375 7 13.375C7.35547 13.375 7.65625 13.1016 7.65625 12.7188V10.832C8.14844 10.5859 8.53125 10.0664 8.53125 9.4375Z" fill="black" fill-opacity="0.72"/>
</g>
<defs>
<clipPath id="clip0_2556_12377">
<rect width="14" height="22" fill="white"/>
</clipPath>
</defs>
</svg>
