<svg width="16" height="24" viewBox="0 0 16 24" fill="none" xmlns="http://www.w3.org/2000/svg">
<g id="label-paired / md / circle-sterling-md / bold" clip-path="url(#clip0_2556_14612)">
<path id="icon" d="M14.5 12C14.5 9.6875 13.25 7.5625 11.25 6.375C9.21875 5.21875 6.75 5.21875 4.75 6.375C2.71875 7.5625 1.5 9.6875 1.5 12C1.5 14.3438 2.71875 16.4688 4.75 17.6562C6.75 18.8125 9.21875 18.8125 11.25 17.6562C13.25 16.4688 14.5 14.3438 14.5 12ZM0 12C0 9.15625 1.5 6.53125 4 5.09375C6.46875 3.65625 9.5 3.65625 12 5.09375C14.4688 6.53125 16 9.15625 16 12C16 14.875 14.4688 17.5 12 18.9375C9.5 20.375 6.46875 20.375 4 18.9375C1.5 17.5 0 14.875 0 12ZM8.15625 9C7.625 9 7.21875 9.4375 7.21875 9.96875V11H8.5C8.75 11 9 11.25 9 11.5C9 11.7812 8.75 12 8.5 12H7.21875V12.3125C7.21875 12.9062 7.125 13.4688 6.9375 14H10.25C10.6562 14 11 14.3438 11 14.75C11 15.1875 10.6562 15.5 10.25 15.5H5.75C5.46875 15.5 5.21875 15.375 5.09375 15.1562C4.96875 14.9375 4.9375 14.6562 5.0625 14.4062L5.375 13.8438C5.625 13.375 5.71875 12.8438 5.71875 12.3438V12H5.5C5.21875 12 5 11.7812 5 11.5C5 11.25 5.21875 11 5.5 11H5.71875V9.96875C5.71875 8.625 6.8125 7.5 8.15625 7.5C8.46875 7.5 8.78125 7.5625 9.0625 7.6875L10.0312 8.0625C10.4062 8.21875 10.5938 8.65625 10.4375 9.03125C10.2812 9.4375 9.84375 9.625 9.46875 9.46875L8.5 9.09375C8.40625 9.03125 8.28125 9 8.15625 9Z" fill="black" fill-opacity="0.72"/>
</g>
<defs>
<clipPath id="clip0_2556_14612">
<rect width="16" height="24" fill="white"/>
</clipPath>
</defs>
</svg>
