<svg width="18" height="36" viewBox="0 0 18 36" fill="none" xmlns="http://www.w3.org/2000/svg">
<g id="label-paired / xl / file-xl / bold" clip-path="url(#clip0_2556_19250)">
<path id="icon" d="M15 27.75C15.375 27.75 15.75 27.4219 15.75 27V13.5H12C11.1562 13.5 10.5 12.8438 10.5 12V8.25H3C2.57812 8.25 2.25 8.625 2.25 9V27C2.25 27.4219 2.57812 27.75 3 27.75H15ZM0 9C0 7.35938 1.3125 6 3 6H10.7344C11.5312 6 12.2812 6.32812 12.8438 6.89062L17.1094 11.1562C17.6719 11.7188 18 12.4688 18 13.2656V27C18 28.6875 16.6406 30 15 30H3C1.3125 30 0 28.6875 0 27V9Z" fill="black" fill-opacity="0.72"/>
</g>
<defs>
<clipPath id="clip0_2556_19250">
<rect width="18" height="36" fill="white"/>
</clipPath>
</defs>
</svg>
