<svg width="18" height="24" viewBox="0 0 18 24" fill="none" xmlns="http://www.w3.org/2000/svg">
<g id="label-paired / md / eye-md / regular" clip-path="url(#clip0_2556_15023)">
<path id="icon" d="M3.65625 8.25C2.3125 9.5 1.40625 11 1 12C1.40625 13 2.3125 14.5 3.65625 15.75C5 17 6.78125 18 9 18C11.1875 18 12.9688 17 14.3125 15.75C15.6562 14.5 16.5625 13 17 12C16.5625 11 15.6562 9.5 14.3125 8.25C12.9688 7 11.1875 6 9 6C6.78125 6 5 7 3.65625 8.25ZM9 5C11.5 5 13.5312 6.15625 15 7.53125C16.4688 8.875 17.4375 10.5 17.9062 11.625C18 11.875 18 12.1562 17.9062 12.4062C17.4375 13.5 16.4688 15.125 15 16.5C13.5312 17.875 11.5 19 9 19C6.46875 19 4.4375 17.875 2.96875 16.5C1.5 15.125 0.53125 13.5 0.0625 12.4062C-0.03125 12.1562 -0.03125 11.875 0.0625 11.625C0.53125 10.5 1.5 8.875 2.96875 7.53125C4.4375 6.15625 6.46875 5 9 5ZM6 12C6 13.0938 6.5625 14.0625 7.5 14.625C8.40625 15.1562 9.5625 15.1562 10.5 14.625C11.4062 14.0625 12 13.0938 12 12C12 10.9375 11.4062 9.96875 10.5 9.40625C9.5625 8.875 8.40625 8.875 7.5 9.40625C6.5625 9.96875 6 10.9375 6 12ZM13 12C13 13.4375 12.2188 14.75 11 15.4688C9.75 16.1875 8.21875 16.1875 7 15.4688C5.75 14.75 5 13.4375 5 12C5 10.5938 5.75 9.28125 7 8.5625C8.21875 7.84375 9.75 7.84375 11 8.5625C12.2188 9.28125 13 10.5938 13 12Z" fill="black" fill-opacity="0.72"/>
</g>
<defs>
<clipPath id="clip0_2556_15023">
<rect width="18" height="24" fill="white"/>
</clipPath>
</defs>
</svg>
