<svg width="13" height="22" viewBox="0 0 13 22" fill="none" xmlns="http://www.w3.org/2000/svg">
<g id="label-paired / sm / bars-sm / regular" clip-path="url(#clip0_2556_12869)">
<path id="icon" d="M0.375 5.9375C0.375 5.71875 0.566406 5.5 0.8125 5.5H12.1875C12.4062 5.5 12.625 5.71875 12.625 5.9375C12.625 6.18359 12.4062 6.375 12.1875 6.375H0.8125C0.566406 6.375 0.375 6.18359 0.375 5.9375ZM0.375 10.3125C0.375 10.0938 0.566406 9.875 0.8125 9.875H12.1875C12.4062 9.875 12.625 10.0938 12.625 10.3125C12.625 10.5586 12.4062 10.75 12.1875 10.75H0.8125C0.566406 10.75 0.375 10.5586 0.375 10.3125ZM12.625 14.6875C12.625 14.9336 12.4062 15.125 12.1875 15.125H0.8125C0.566406 15.125 0.375 14.9336 0.375 14.6875C0.375 14.4688 0.566406 14.25 0.8125 14.25H12.1875C12.4062 14.25 12.625 14.4688 12.625 14.6875Z" fill="black" fill-opacity="0.72"/>
</g>
<defs>
<clipPath id="clip0_2556_12869">
<rect width="13" height="22" fill="white"/>
</clipPath>
</defs>
</svg>
