<svg width="30" height="36" viewBox="0 0 30 36" fill="none" xmlns="http://www.w3.org/2000/svg">
<g id="label-paired / xl / chart-trend-up-xl / fill" clip-path="url(#clip0_2556_19487)">
<path id="icon" d="M29.1562 6.1875C29.9062 6.5625 30.1875 7.45312 29.8125 8.20312L25.3125 17.2031C25.0781 17.7188 24.5625 18 24 18H17.3906L11.8125 29.2031C11.4375 29.9531 10.5469 30.2344 9.79688 29.8594L0.796875 25.3594C0.046875 24.9844 -0.234375 24.0938 0.140625 23.3438C0.515625 22.5938 1.40625 22.3125 2.15625 22.6875L9.79688 26.5312L15.1406 15.8438C15.375 15.3281 15.8906 15 16.5 15H23.0625L27.1406 6.84375C27.5156 6.09375 28.4062 5.8125 29.1562 6.1875Z" fill="black" fill-opacity="0.72"/>
</g>
<defs>
<clipPath id="clip0_2556_19487">
<rect width="30" height="36" fill="white"/>
</clipPath>
</defs>
</svg>
