<svg width="16" height="22" viewBox="0 0 16 22" fill="none" xmlns="http://www.w3.org/2000/svg">
<g id="label-paired / sm / video-sm / fill" clip-path="url(#clip0_2556_12616)">
<path id="icon" d="M0.125 7.25C0.125 6.29297 0.890625 5.5 1.875 5.5H8.875C9.83203 5.5 10.625 6.29297 10.625 7.25V14.25C10.625 15.2344 9.83203 16 8.875 16H1.875C0.890625 16 0.125 15.2344 0.125 14.25V7.25ZM15.4102 6.48438C15.6836 6.64844 15.875 6.94922 15.875 7.25V14.25C15.875 14.5781 15.6836 14.8789 15.4102 15.043C15.1094 15.1797 14.7812 15.1797 14.5078 14.9883L11.8828 13.2383L11.5 12.9922V12.5V9V8.53516L11.8828 8.28906L14.5078 6.53906C14.7812 6.34766 15.1094 6.34766 15.4102 6.48438Z" fill="black" fill-opacity="0.72"/>
</g>
<defs>
<clipPath id="clip0_2556_12616">
<rect width="16" height="22" fill="white"/>
</clipPath>
</defs>
</svg>
