<svg width="25" height="30" viewBox="0 0 25 30" fill="none" xmlns="http://www.w3.org/2000/svg">
<g id="label-paired / lg / hand-gesture-tap-left-lg / fill" clip-path="url(#clip0_3546_713)">
<path id="icon" d="M7.92969 12.9609C8.4375 12.7266 9.02344 12.9609 9.25781 13.4297L10.8203 16.7109C10.8984 16.4375 11.0938 16.2422 11.3672 16.0859C11.9141 15.8516 12.5781 16.0469 12.8906 16.5938C13.0078 16.3203 13.2031 16.0859 13.4766 15.9688C14.0234 15.6953 14.6875 15.9297 14.9609 16.4766C15.0781 16.2031 15.2734 15.9688 15.5859 15.8125C16.1328 15.5391 16.875 15.8125 17.1484 16.3984L18.125 18.5078C18.8672 20.0703 18.2031 21.9453 16.6406 22.6484L14.0234 23.8984C13.2031 24.2891 12.2656 24.4062 11.4062 24.1719L11.25 24.1328C10.3125 23.8984 9.57031 23.2734 9.17969 22.4141L8.78906 21.5938C8.59375 21.1641 8.59375 20.6953 8.78906 20.2656L9.02344 19.7188C9.0625 19.6797 9.10156 19.6016 9.14062 19.5625L9.6875 20.7734C9.80469 20.9688 10.0391 21.0469 10.2344 20.9688C10.3906 20.8906 10.5078 20.6562 10.3906 20.4609L7.46094 14.25C7.22656 13.7812 7.42188 13.1953 7.92969 12.9609ZM10.4297 14.6016C10.625 14.25 10.7422 13.8203 10.7422 13.3906C10.7422 12.0234 9.60938 10.8906 8.24219 10.8906C6.875 10.8906 5.74219 12.0234 5.74219 13.3906C5.74219 14.5234 6.48438 15.5 7.53906 15.8125L6.95312 14.6016C6.60156 13.8203 6.91406 12.8828 7.69531 12.4922C8.47656 12.1406 9.41406 12.4922 9.80469 13.2344L10.4297 14.6016ZM4.49219 6.75C4.88281 6.75 5.23438 7.10156 5.23438 7.53125V23.5078C5.23438 23.9375 4.88281 24.25 4.49219 24.25C4.0625 24.25 3.75 23.9375 3.75 23.5078V7.53125C3.75 7.10156 4.0625 6.75 4.49219 6.75Z" fill="black" fill-opacity="0.72"/>
</g>
<defs>
<clipPath id="clip0_3546_713">
<rect width="25" height="30" fill="white"/>
</clipPath>
</defs>
</svg>
