<svg width="16" height="22" viewBox="0 0 16 22" fill="none" xmlns="http://www.w3.org/2000/svg">
<g id="label-paired / sm / house-user-sm / bold" clip-path="url(#clip0_4670_642)">
<path id="icon" d="M7.5625 3.91406C7.80859 3.72266 8.16406 3.72266 8.41016 3.91406L15.6289 10.0391C15.9023 10.2852 15.957 10.6953 15.7109 10.9688C15.4648 11.2422 15.0547 11.2695 14.7812 11.0508L14.125 10.4766V15.5625C14.125 16.793 13.1406 17.75 11.9375 17.75H4.0625C2.83203 17.75 1.875 16.793 1.875 15.5625V10.4766L1.19141 11.0508C0.917969 11.2695 0.507812 11.2422 0.261719 10.9688C0.0429688 10.6953 0.0703125 10.2852 0.34375 10.0391L7.5625 3.91406ZM3.1875 9.35547V15.5625C3.1875 16.0547 3.57031 16.4375 4.0625 16.4375H11.9375C12.4023 16.4375 12.8125 16.0547 12.8125 15.5625V9.35547L8 5.28125L3.1875 9.35547ZM6.25 9.875C6.25 9.27344 6.57812 8.69922 7.125 8.37109C7.64453 8.07031 8.32812 8.07031 8.875 8.37109C9.39453 8.69922 9.75 9.27344 9.75 9.875C9.75 10.5039 9.39453 11.0781 8.875 11.4062C8.32812 11.707 7.64453 11.707 7.125 11.4062C6.57812 11.0781 6.25 10.5039 6.25 9.875ZM7.125 12.5H8.875C10.0781 12.5 11.0625 13.4844 11.0625 14.6875C11.0625 14.9336 10.8438 15.125 10.625 15.125H5.375C5.12891 15.125 4.9375 14.9336 4.9375 14.6875C4.9375 13.4844 5.89453 12.5 7.125 12.5Z" fill="black" fill-opacity="0.72"/>
</g>
<defs>
<clipPath id="clip0_4670_642">
<rect width="16" height="22" fill="white"/>
</clipPath>
</defs>
</svg>
