<svg width="20" height="24" viewBox="0 0 20 24" fill="none" xmlns="http://www.w3.org/2000/svg">
<g id="label-paired / md / chart-ohlc-md / fill" clip-path="url(#clip0_2556_14774)">
<path id="icon" d="M10 4C10.5312 4 11 4.46875 11 5V6H12C12.5312 6 13 6.46875 13 7C13 7.5625 12.5312 8 12 8H11V17C11 17.5625 10.5312 18 10 18C9.4375 18 9 17.5625 9 17V16H8C7.4375 16 7 15.5625 7 15C7 14.4688 7.4375 14 8 14H9V5C9 4.46875 9.4375 4 10 4ZM3.5 10C4.03125 10 4.5 10.4688 4.5 11V16H5.5C6.03125 16 6.5 16.4688 6.5 17C6.5 17.5625 6.03125 18 5.5 18H4.5V19C4.5 19.5625 4.03125 20 3.5 20C2.9375 20 2.5 19.5625 2.5 19V14H1.5C0.9375 14 0.5 13.5625 0.5 13C0.5 12.4688 0.9375 12 1.5 12H2.5V11C2.5 10.4688 2.9375 10 3.5 10ZM16.5 6C17.0312 6 17.5 6.46875 17.5 7V12H18.5C19.0312 12 19.5 12.4688 19.5 13C19.5 13.5625 19.0312 14 18.5 14H17.5V15C17.5 15.5625 17.0312 16 16.5 16C15.9375 16 15.5 15.5625 15.5 15V10H14.5C13.9375 10 13.5 9.5625 13.5 9C13.5 8.46875 13.9375 8 14.5 8H15.5V7C15.5 6.46875 15.9375 6 16.5 6Z" fill="black" fill-opacity="0.72"/>
</g>
<defs>
<clipPath id="clip0_2556_14774">
<rect width="20" height="24" fill="white"/>
</clipPath>
</defs>
</svg>
