<svg width="24" height="30" viewBox="0 0 24 30" fill="none" xmlns="http://www.w3.org/2000/svg">
<g id="label-paired / lg / chart-tradingview-lg / regular" clip-path="url(#clip0_3546_940)">
<path id="icon" d="M3.73828 23.6641V7.25781C3.73828 6.94531 4.01172 6.67188 4.32422 6.67188C4.67578 6.67188 4.91016 6.94531 4.91016 7.25781V23.2344C4.91016 23.8594 5.41797 24.3281 6.04297 24.3281H15.5742H19.6367C19.9492 24.3281 20.2227 24.6016 20.2227 24.9141C20.2227 25.2656 19.9492 25.5 19.6367 25.5H5.57422C4.55859 25.5 3.73828 24.7188 3.73828 23.6641ZM20.0664 13.8984C19.832 13.7031 19.4414 13.7031 19.207 13.8984L13.1523 19.9922L11.6289 18.4688C11.1602 18 10.418 18 9.98828 18.4688L7.44922 20.9688C7.21484 21.2031 7.21484 21.5938 7.44922 21.8281C7.68359 22.0625 8.03516 22.0625 8.26953 21.8281L10.8086 19.2891L12.332 20.8125C12.8008 21.2812 13.543 21.2812 13.9727 20.8125L20.0664 14.7578C20.3008 14.5234 20.3008 14.1328 20.0664 13.8984ZM13.582 9.875C13.582 9.44531 13.1914 9.05469 12.7227 9.05469C12.2539 9.05469 11.8633 9.44531 11.8633 9.875C11.8633 10.3438 12.2539 10.6953 12.7227 10.6953C13.1914 10.6953 13.582 10.3438 13.582 9.875ZM14.2461 9.05469L12.4883 13.7422H13.7773L15.4961 9.05469H14.2461ZM8.46484 9.05469V10.1094H10.3008V13.7422H11.4336V9.05469H8.46484Z" fill="black" fill-opacity="0.72"/>
</g>
<defs>
<clipPath id="clip0_3546_940">
<rect width="24" height="30" fill="white"/>
</clipPath>
</defs>
</svg>
