<svg width="15" height="18" viewBox="0 0 15 18" fill="none" xmlns="http://www.w3.org/2000/svg">
<g id="label-paired / caption / volume-high-caption / fill" clip-path="url(#clip0_3758_656)">
<path id="icon" d="M12.4922 4.27344C14.0156 5.51562 15 7.39062 15 9.5C15 11.6328 14.0156 13.5078 12.4922 14.75C12.2578 14.9375 11.9062 14.9141 11.6953 14.6562C11.5078 14.4219 11.5547 14.0703 11.7891 13.8828C13.0547 12.8516 13.875 11.2812 13.875 9.5C13.875 7.74219 13.0547 6.17188 11.7891 5.14062C11.5547 4.95312 11.5078 4.60156 11.6953 4.34375C11.9062 4.10938 12.2578 4.08594 12.4922 4.27344ZM11.0859 6.00781C12.0938 6.85156 12.75 8.09375 12.75 9.5C12.75 10.9297 12.0938 12.1719 11.0859 12.9922C10.8281 13.2031 10.4766 13.1562 10.2891 12.9219C10.0781 12.6875 10.125 12.3359 10.3594 12.125C11.1328 11.5156 11.625 10.5781 11.625 9.5C11.625 8.44531 11.1328 7.50781 10.3594 6.89844C10.125 6.6875 10.1016 6.33594 10.2891 6.10156C10.4766 5.86719 10.8281 5.82031 11.0859 6.00781ZM9.65625 7.76562C10.1719 8.1875 10.5 8.79688 10.5 9.5C10.5 10.2266 10.1719 10.8359 9.65625 11.2578C9.42188 11.4453 9.07031 11.4219 8.85938 11.1641C8.67188 10.9297 8.71875 10.5781 8.95312 10.3906C9.21094 10.1797 9.375 9.85156 9.375 9.5C9.375 9.14844 9.21094 8.84375 8.95312 8.63281C8.71875 8.44531 8.67188 8.09375 8.85938 7.83594C9.07031 7.60156 9.42188 7.57812 9.65625 7.76562ZM7.05469 4.32031C7.3125 4.4375 7.5 4.71875 7.5 5V14C7.5 14.3047 7.3125 14.5625 7.05469 14.7031C6.77344 14.8203 6.46875 14.7734 6.23438 14.5625L3.07031 11.75H1.5C0.65625 11.75 0 11.0938 0 10.25V8.75C0 7.92969 0.65625 7.25 1.5 7.25H3.07031L6.23438 4.46094C6.46875 4.25 6.77344 4.20312 7.05469 4.32031Z" fill="black" fill-opacity="0.72"/>
</g>
<defs>
<clipPath id="clip0_3758_656">
<rect width="15" height="18" fill="white"/>
</clipPath>
</defs>
</svg>
