<svg width="16" height="24" viewBox="0 0 16 24" fill="none" xmlns="http://www.w3.org/2000/svg">
<g id="label-paired / md / circle-envelope-md / bold" clip-path="url(#clip0_2556_15305)">
<path id="icon" d="M8 5.5C5.65625 5.5 3.53125 6.75 2.34375 8.75C1.1875 10.7812 1.1875 13.25 2.34375 15.25C3.53125 17.2812 5.65625 18.5 8 18.5C10.3125 18.5 12.4375 17.2812 13.625 15.25C14.7812 13.25 14.7812 10.7812 13.625 8.75C12.4375 6.75 10.3125 5.5 8 5.5ZM8 20C5.125 20 2.5 18.5 1.0625 16C-0.375 13.5312 -0.375 10.5 1.0625 8C2.5 5.53125 5.125 4 8 4C10.8438 4 13.4688 5.53125 14.9062 8C16.3438 10.5 16.3438 13.5312 14.9062 16C13.4688 18.5 10.8438 20 8 20ZM7.75 12L4 9.9375C4.03125 9.40625 4.46875 9 5 9H11C11.5 9 11.9375 9.40625 11.9688 9.9375L8.21875 12C8.15625 12.0312 8.0625 12.0625 8 12.0625C7.90625 12.0625 7.8125 12.0312 7.75 12ZM8.6875 12.875L12 11.0625V14C12 14.5625 11.5312 15 11 15H5C4.4375 15 4 14.5625 4 14V11.0625L7.28125 12.875C7.5 13 7.75 13.0625 8 13.0625C8.21875 13.0625 8.46875 13 8.6875 12.875Z" fill="black" fill-opacity="0.72"/>
</g>
<defs>
<clipPath id="clip0_2556_15305">
<rect width="16" height="24" fill="white"/>
</clipPath>
</defs>
</svg>
