<svg width="20" height="30" viewBox="0 0 20 30" fill="none" xmlns="http://www.w3.org/2000/svg">
<g id="label-paired / lg / chart-line-lg / bold" clip-path="url(#clip0_2556_17209)">
<path id="icon" d="M1.875 7.6875V21.4375C1.875 21.9844 2.26562 22.375 2.8125 22.375H19.0625C19.5703 22.375 20 22.8047 20 23.3125C20 23.8594 19.5703 24.25 19.0625 24.25H2.8125C1.25 24.25 0 23 0 21.4375V7.6875C0 7.17969 0.390625 6.75 0.9375 6.75C1.44531 6.75 1.875 7.17969 1.875 7.6875ZM18.4766 12.1016L13.125 17.4141C12.7734 17.8047 12.1875 17.8047 11.8359 17.4141L8.75 14.3281L5.66406 17.4141C5.27344 17.8047 4.6875 17.8047 4.33594 17.4141C3.94531 17.0625 3.94531 16.4766 4.33594 16.125L8.08594 12.375C8.24219 12.1797 8.47656 12.1016 8.75 12.1016C8.98438 12.1016 9.21875 12.1797 9.41406 12.375L12.5 15.4609L17.1484 10.8125C17.5 10.4219 18.0859 10.4219 18.4766 10.8125C18.8281 11.1641 18.8281 11.75 18.4766 12.1016Z" fill="black" fill-opacity="0.72"/>
</g>
<defs>
<clipPath id="clip0_2556_17209">
<rect width="20" height="30" fill="white"/>
</clipPath>
</defs>
</svg>
