<svg width="15" height="36" viewBox="0 0 15 36" fill="none" xmlns="http://www.w3.org/2000/svg">
<g id="label-paired / xl / nine-xl / bold" clip-path="url(#clip0_2556_19563)">
<path id="icon" d="M2.25 15C2.25 17.9062 4.59375 20.25 7.5 20.25C9 20.25 10.3594 19.6406 11.2969 18.6094L11.5781 18.3281C12.3281 17.3906 12.75 16.2188 12.75 15C12.75 12.1406 10.3594 9.75 7.5 9.75C4.59375 9.75 2.25 12.1406 2.25 15ZM8.15625 22.5C7.92188 22.5 7.6875 22.5 7.5 22.5C3.32812 22.5 0 19.1719 0 15C0 10.875 3.32812 7.5 7.5 7.5C11.625 7.5 15 10.875 15 15C15 16.9688 14.25 18.75 13.0312 20.0625L6.46875 28.125C6.09375 28.5938 5.39062 28.6406 4.875 28.2656C4.40625 27.8906 4.35938 27.1875 4.73438 26.6719L8.15625 22.5Z" fill="black" fill-opacity="0.72"/>
</g>
<defs>
<clipPath id="clip0_2556_19563">
<rect width="15" height="36" fill="white"/>
</clipPath>
</defs>
</svg>
