<svg width="16" height="24" viewBox="0 0 16 24" fill="none" xmlns="http://www.w3.org/2000/svg">
<g id="label-paired / md / file-pdf-md / bold" clip-path="url(#clip0_2556_14669)">
<path id="icon" d="M2 18.5H3.5V20H2C0.875 20 0 19.125 0 18V6C0 4.90625 0.875 4 2 4H7.15625C7.6875 4 8.1875 4.21875 8.5625 4.59375L11.4062 7.4375C11.7812 7.8125 12 8.3125 12 8.84375V13.5H10.5V9H8C7.4375 9 7 8.5625 7 8V5.5H2C1.71875 5.5 1.5 5.75 1.5 6V18C1.5 18.2812 1.71875 18.5 2 18.5ZM5.5 15H6.5C7.4375 15 8.25 15.8125 8.25 16.75C8.25 17.7188 7.4375 18.5 6.5 18.5H6V19.5C6 19.7812 5.75 20 5.5 20C5.21875 20 5 19.7812 5 19.5V18V15.5C5 15.25 5.21875 15 5.5 15ZM6.5 17.5C6.90625 17.5 7.25 17.1875 7.25 16.75C7.25 16.3438 6.90625 16 6.5 16H6V17.5H6.5ZM9.5 15H10.5C11.3125 15 12 15.6875 12 16.5V18.5C12 19.3438 11.3125 20 10.5 20H9.5C9.21875 20 9 19.7812 9 19.5V15.5C9 15.25 9.21875 15 9.5 15ZM10.5 19C10.75 19 11 18.7812 11 18.5V16.5C11 16.25 10.75 16 10.5 16H10V19H10.5ZM13 15.5C13 15.25 13.2188 15 13.5 15H15C15.25 15 15.5 15.25 15.5 15.5C15.5 15.7812 15.25 16 15 16H14V17H15C15.25 17 15.5 17.25 15.5 17.5C15.5 17.7812 15.25 18 15 18H14V19.5C14 19.7812 13.75 20 13.5 20C13.2188 20 13 19.7812 13 19.5V17.5V15.5Z" fill="black" fill-opacity="0.72"/>
</g>
<defs>
<clipPath id="clip0_2556_14669">
<rect width="16" height="24" fill="white"/>
</clipPath>
</defs>
</svg>
