<svg width="21" height="36" viewBox="0 0 21 36" fill="none" xmlns="http://www.w3.org/2000/svg">
<g id="label-paired / xl / lock-xl / regular" clip-path="url(#clip0_2556_19309)">
<path id="icon" d="M6 12V15H15V12C15 9.51562 12.9844 7.5 10.5 7.5C8.01562 7.5 6 9.51562 6 12ZM4.5 15V12C4.5 8.71875 7.17188 6 10.5 6C13.7812 6 16.5 8.71875 16.5 12V15H17.25C19.3125 15 21 16.6875 21 18.75V26.25C21 28.3594 19.3125 30 17.25 30H3.75C1.64062 30 0 28.3594 0 26.25V18.75C0 16.6875 1.64062 15 3.75 15H4.5ZM1.5 18.75V26.25C1.5 27.5156 2.48438 28.5 3.75 28.5H17.25C18.4688 28.5 19.5 27.5156 19.5 26.25V18.75C19.5 17.5312 18.4688 16.5 17.25 16.5H3.75C2.48438 16.5 1.5 17.5312 1.5 18.75Z" fill="black" fill-opacity="0.72"/>
</g>
<defs>
<clipPath id="clip0_2556_19309">
<rect width="21" height="36" fill="white"/>
</clipPath>
</defs>
</svg>
