<svg width="14" height="24" viewBox="0 0 14 24" fill="none" xmlns="http://www.w3.org/2000/svg">
<g id="label-paired / md / qrcode-md / fill" clip-path="url(#clip0_2556_14597)">
<path id="icon" d="M0 6.5C0 5.6875 0.65625 5 1.5 5H4.5C5.3125 5 6 5.6875 6 6.5V9.5C6 10.3438 5.3125 11 4.5 11H1.5C0.65625 11 0 10.3438 0 9.5V6.5ZM2 7V9H4V7H2ZM0 14.5C0 13.6875 0.65625 13 1.5 13H4.5C5.3125 13 6 13.6875 6 14.5V17.5C6 18.3438 5.3125 19 4.5 19H1.5C0.65625 19 0 18.3438 0 17.5V14.5ZM2 15V17H4V15H2ZM9.5 5H12.5C13.3125 5 14 5.6875 14 6.5V9.5C14 10.3438 13.3125 11 12.5 11H9.5C8.65625 11 8 10.3438 8 9.5V6.5C8 5.6875 8.65625 5 9.5 5ZM12 7H10V9H12V7ZM8 13.5C8 13.25 8.21875 13 8.5 13H10.5C10.75 13 11 13.25 11 13.5C11 13.7812 11.2188 14 11.5 14H12.5C12.75 14 13 13.7812 13 13.5C13 13.25 13.2188 13 13.5 13C13.75 13 14 13.25 14 13.5V16.5C14 16.7812 13.75 17 13.5 17H11.5C11.2188 17 11 16.7812 11 16.5C11 16.25 10.75 16 10.5 16C10.2188 16 10 16.25 10 16.5V18.5C10 18.7812 9.75 19 9.5 19H8.5C8.21875 19 8 18.7812 8 18.5V13.5ZM11.5 19C11.2188 19 11 18.7812 11 18.5C11 18.25 11.2188 18 11.5 18C11.75 18 12 18.25 12 18.5C12 18.7812 11.75 19 11.5 19ZM13.5 19C13.2188 19 13 18.7812 13 18.5C13 18.25 13.2188 18 13.5 18C13.75 18 14 18.25 14 18.5C14 18.7812 13.75 19 13.5 19Z" fill="black" fill-opacity="0.72"/>
</g>
<defs>
<clipPath id="clip0_2556_14597">
<rect width="14" height="24" fill="white"/>
</clipPath>
</defs>
</svg>
