<svg width="12" height="18" viewBox="0 0 12 18" fill="none" xmlns="http://www.w3.org/2000/svg">
<g id="label-paired / caption / wallet-caption / regular" clip-path="url(#clip0_2556_9925)">
<path id="icon" d="M1.875 4.25H10.875C11.0625 4.25 11.25 4.4375 11.25 4.625C11.25 4.83594 11.0625 5 10.875 5H1.875C1.24219 5 0.75 5.51562 0.75 6.125V12.875C0.75 13.5078 1.24219 14 1.875 14H10.125C10.7344 14 11.25 13.5078 11.25 12.875V7.625C11.25 7.01562 10.7344 6.5 10.125 6.5H2.625C2.41406 6.5 2.25 6.33594 2.25 6.125C2.25 5.9375 2.41406 5.75 2.625 5.75H10.125C11.1562 5.75 12 6.59375 12 7.625V12.875C12 13.9297 11.1562 14.75 10.125 14.75H1.875C0.820312 14.75 0 13.9297 0 12.875V6.125C0 5.09375 0.820312 4.25 1.875 4.25ZM9 10.8125C8.67188 10.8125 8.4375 10.5781 8.4375 10.25C8.4375 9.94531 8.67188 9.6875 9 9.6875C9.30469 9.6875 9.5625 9.94531 9.5625 10.25C9.5625 10.5781 9.30469 10.8125 9 10.8125Z" fill="black" fill-opacity="0.72"/>
</g>
<defs>
<clipPath id="clip0_2556_9925">
<rect width="12" height="18" fill="white"/>
</clipPath>
</defs>
</svg>
