<svg width="16" height="24" viewBox="0 0 16 24" fill="none" xmlns="http://www.w3.org/2000/svg">
<g id="label-paired / md / scissors-md / regular" clip-path="url(#clip0_2556_14736)">
<path id="icon" d="M15.875 17.8438C15.6875 18.0625 15.375 18.0625 15.1562 17.9062L10.4062 13.8438C10.1875 13.6875 10.1875 13.3438 10.3438 13.1562C10.5312 12.9375 10.8438 12.9062 11.0625 13.0938L15.8125 17.125C16.0312 17.3125 16.0312 17.625 15.875 17.8438ZM8.96875 11.375L15.1562 6.125C15.375 5.96875 15.6875 5.96875 15.875 6.1875C16.0312 6.40625 16.0312 6.71875 15.8125 6.90625L6.5 14.75C6.8125 15.25 7 15.875 7 16.5C7 18.4375 5.40625 20 3.5 20C1.5625 20 0 18.4375 0 16.5C0 14.5938 1.5625 13 3.5 13C4.40625 13 5.25 13.375 5.875 13.9688L8.1875 12L5.875 10.0625C5.25 10.6562 4.40625 11 3.5 11C1.5625 11 0 9.4375 0 7.5C0 5.59375 1.5625 4 3.5 4C5.40625 4 7 5.59375 7 7.53125C7 8.15625 6.8125 8.78125 6.5 9.28125L8.96875 11.375ZM3.5 10C4.375 10 5.1875 9.53125 5.65625 8.75C6.09375 8 6.09375 7.03125 5.65625 6.25C5.1875 5.5 4.375 5 3.5 5C2.59375 5 1.78125 5.5 1.3125 6.25C0.875 7.03125 0.875 8 1.3125 8.75C1.78125 9.53125 2.59375 10 3.5 10ZM3.5 14C2.59375 14 1.78125 14.5 1.3125 15.25C0.875 16.0312 0.875 17 1.3125 17.75C1.78125 18.5312 2.59375 19 3.5 19C4.375 19 5.1875 18.5312 5.65625 17.75C6.09375 17 6.09375 16.0312 5.65625 15.25C5.1875 14.5 4.375 14 3.5 14Z" fill="black" fill-opacity="0.72"/>
</g>
<defs>
<clipPath id="clip0_2556_14736">
<rect width="16" height="24" fill="white"/>
</clipPath>
</defs>
</svg>
