<svg width="18" height="36" viewBox="0 0 18 36" fill="none" xmlns="http://www.w3.org/2000/svg">
<g id="label-paired / xl / file-invoice-dollar-xl / bold" clip-path="url(#clip0_2556_19244)">
<path id="icon" d="M15.75 27V13.5H12C11.1562 13.5 10.5 12.8438 10.5 12V8.25H3C2.57812 8.25 2.25 8.625 2.25 9V27C2.25 27.4219 2.57812 27.75 3 27.75H15C15.375 27.75 15.75 27.4219 15.75 27ZM0 9C0 7.35938 1.3125 6 3 6H10.7344C11.5312 6 12.2812 6.32812 12.8438 6.89062L17.1094 11.1562C17.6719 11.7188 18 12.4688 18 13.2656V27C18 28.6875 16.6406 30 15 30H3C1.3125 30 0 28.6875 0 27V9ZM9 16.125C9.51562 16.125 9.9375 16.5469 9.9375 17.0625V17.5312C10.2656 17.5781 10.5938 17.6719 10.875 17.7188C11.3906 17.8594 11.7188 18.375 11.5781 18.8438C11.4844 19.3594 10.9688 19.6875 10.4531 19.5469C9.9375 19.4531 9.42188 19.3594 8.95312 19.3594C8.57812 19.3125 8.20312 19.4062 7.92188 19.5469C7.6875 19.6875 7.6875 19.7812 7.6875 19.8281C7.6875 19.875 7.73438 19.9219 7.875 20.0156C8.15625 20.1562 8.625 20.2969 9.23438 20.4375C9.75 20.5781 10.4531 20.7656 10.9688 21.0938C11.5312 21.4219 12.1406 21.9844 12.1406 22.9219C12.1875 23.9062 11.625 24.5625 10.9688 24.8906C10.6406 25.0781 10.2656 25.2188 9.89062 25.2656V25.7344C9.89062 26.25 9.46875 26.6719 8.95312 26.6719C8.4375 26.6719 8.01562 26.25 8.01562 25.7344V25.2188C7.54688 25.125 7.125 24.9844 6.75 24.8906C6.65625 24.8438 6.5625 24.8438 6.46875 24.7969C5.95312 24.6562 5.67188 24.1406 5.8125 23.625C5.95312 23.1094 6.51562 22.8281 6.98438 23.0156C7.125 23.0156 7.21875 23.0625 7.3125 23.1094C7.96875 23.2969 8.48438 23.4375 9 23.4375C9.42188 23.4844 9.79688 23.3906 10.0781 23.25C10.2656 23.1562 10.3125 23.0625 10.3125 22.9219C10.3125 22.9219 10.3125 22.8281 10.0781 22.6875C9.75 22.5469 9.32812 22.4062 8.71875 22.2656L8.67188 22.2188C8.15625 22.0781 7.5 21.8906 6.98438 21.6562C6.42188 21.3281 5.8125 20.7656 5.8125 19.8281C5.76562 18.8438 6.42188 18.2344 7.03125 17.9062C7.35938 17.7188 7.6875 17.625 8.0625 17.5312V17.0625C8.0625 16.5469 8.48438 16.125 9 16.125ZM4.5 10.5H8.25C8.625 10.5 9 10.875 9 11.25C9 11.6719 8.625 12 8.25 12H4.5C4.07812 12 3.75 11.6719 3.75 11.25C3.75 10.875 4.07812 10.5 4.5 10.5ZM4.5 13.5H8.25C8.625 13.5 9 13.875 9 14.25C9 14.6719 8.625 15 8.25 15H4.5C4.07812 15 3.75 14.6719 3.75 14.25C3.75 13.875 4.07812 13.5 4.5 13.5Z" fill="black" fill-opacity="0.72"/>
</g>
<defs>
<clipPath id="clip0_2556_19244">
<rect width="18" height="36" fill="white"/>
</clipPath>
</defs>
</svg>
