<svg width="10" height="24" viewBox="0 0 10 24" fill="none" xmlns="http://www.w3.org/2000/svg">
<g id="label-paired / md / nine-md / fill" clip-path="url(#clip0_2556_15146)">
<path id="icon" d="M2 10C2 11.0938 2.5625 12.0625 3.5 12.625C4.40625 13.1562 5.5625 13.1562 6.5 12.625C7.40625 12.0625 8 11.0938 8 10C8 8.9375 7.40625 7.96875 6.5 7.40625C5.5625 6.875 4.40625 6.875 3.5 7.40625C2.5625 7.96875 2 8.9375 2 10ZM4.71875 15C2.09375 14.875 0 12.6875 0 10C0 7.25 2.21875 5 5 5C7.75 5 10 7.25 10 10C10 10.0938 9.96875 10.1875 9.96875 10.25C9.9375 11.375 9.5 12.4375 8.78125 13.3125L4.25 18.6562C3.90625 19.0938 3.25 19.125 2.84375 18.7812C2.40625 18.4375 2.375 17.7812 2.71875 17.375L4.71875 15Z" fill="black" fill-opacity="0.72"/>
</g>
<defs>
<clipPath id="clip0_2556_15146">
<rect width="10" height="24" fill="white"/>
</clipPath>
</defs>
</svg>
