<svg width="11" height="22" viewBox="0 0 11 22" fill="none" xmlns="http://www.w3.org/2000/svg">
<g id="label-paired / sm / four-sm / regular" clip-path="url(#clip0_2556_12519)">
<path id="icon" d="M5.00781 5.28125L1.37109 12.5H8.125V7.6875C8.125 7.46875 8.31641 7.25 8.5625 7.25C8.78125 7.25 9 7.46875 9 7.6875V12.5H10.3125C10.5312 12.5 10.75 12.7188 10.75 12.9375C10.75 13.1836 10.5312 13.375 10.3125 13.375H9V16.4375C9 16.6836 8.78125 16.875 8.5625 16.875C8.31641 16.875 8.125 16.6836 8.125 16.4375V13.4023H0.660156C0.523438 13.4023 0.386719 13.3203 0.304688 13.1836C0.222656 13.0469 0.222656 12.8828 0.277344 12.7461L4.21484 4.87109C4.32422 4.65234 4.59766 4.57031 4.81641 4.67969C5.03516 4.78906 5.11719 5.0625 5.00781 5.28125Z" fill="black" fill-opacity="0.72"/>
</g>
<defs>
<clipPath id="clip0_2556_12519">
<rect width="11" height="22" fill="white"/>
</clipPath>
</defs>
</svg>
