<svg width="16" height="24" viewBox="0 0 16 24" fill="none" xmlns="http://www.w3.org/2000/svg">
<g id="label-paired / md / circle-five-md / regular" clip-path="url(#clip0_2556_15104)">
<path id="icon" d="M8 5C5.46875 5 3.1875 6.34375 1.9375 8.5C0.65625 10.6875 0.65625 13.3438 1.9375 15.5C3.1875 17.6875 5.46875 19 8 19C10.5 19 12.7812 17.6875 14.0312 15.5C15.3125 13.3438 15.3125 10.6875 14.0312 8.5C12.7812 6.34375 10.5 5 8 5ZM8 20C5.125 20 2.5 18.5 1.0625 16C-0.375 13.5312 -0.375 10.5 1.0625 8C2.5 5.53125 5.125 4 8 4C10.8438 4 13.4688 5.53125 14.9062 8C16.3438 10.5 16.3438 13.5312 14.9062 16C13.4688 18.5 10.8438 20 8 20ZM6.5 8H10C10.25 8 10.5 8.25 10.5 8.5C10.5 8.78125 10.25 9 10 9H6.875L6.375 11.0625L8.875 11.3125C10.0625 11.4375 10.9688 12.4688 10.9688 13.6562C10.9688 14.9688 9.9375 16 8.625 16H7.25C6.40625 16 5.59375 15.5938 5.125 14.875L5.0625 14.7812C4.90625 14.5625 4.96875 14.25 5.21875 14.0938C5.4375 13.9375 5.75 14 5.90625 14.2188L5.96875 14.3125C6.25 14.75 6.75 15 7.25 15H8.625C9.375 15 10 14.4062 10 13.6562C10 12.9688 9.46875 12.4062 8.78125 12.3125L5.6875 12C5.53125 12 5.40625 11.9062 5.3125 11.8125C5.25 11.6875 5.21875 11.5312 5.25 11.4062L6 8.40625C6.0625 8.15625 6.25 8 6.5 8Z" fill="black" fill-opacity="0.72"/>
</g>
<defs>
<clipPath id="clip0_2556_15104">
<rect width="16" height="24" fill="white"/>
</clipPath>
</defs>
</svg>
