<svg width="20" height="30" viewBox="0 0 20 30" fill="none" xmlns="http://www.w3.org/2000/svg">
<g id="label-paired / lg / gauge-min-lg / bold" clip-path="url(#clip0_2556_17579)">
<path id="icon" d="M10 7.375C7.07031 7.375 4.41406 8.9375 2.92969 11.4375C1.48438 13.9766 1.48438 17.0625 2.92969 19.5625C4.41406 22.1016 7.07031 23.625 10 23.625C12.8906 23.625 15.5469 22.1016 17.0312 19.5625C18.4766 17.0625 18.4766 13.9766 17.0312 11.4375C15.5469 8.9375 12.8906 7.375 10 7.375ZM10 25.5C6.40625 25.5 3.125 23.625 1.32812 20.5C-0.46875 17.4141 -0.46875 13.625 1.32812 10.5C3.125 7.41406 6.40625 5.5 10 5.5C13.5547 5.5 16.8359 7.41406 18.6328 10.5C20.4297 13.625 20.4297 17.4141 18.6328 20.5C16.8359 23.625 13.5547 25.5 10 25.5ZM11.25 9.875C11.25 10.5781 10.6641 11.125 10 11.125C9.29688 11.125 8.75 10.5781 8.75 9.875C8.75 9.21094 9.29688 8.625 10 8.625C10.6641 8.625 11.25 9.21094 11.25 9.875ZM10 21.4375V21.4766C8.78906 21.4766 7.8125 20.4609 7.8125 19.2891C7.8125 19.1719 7.8125 19.0547 7.8125 18.9375L3.51562 15.9688C3.08594 15.6953 2.96875 15.1094 3.28125 14.6797C3.55469 14.25 4.14062 14.1328 4.57031 14.4453L8.86719 17.375C9.21875 17.1797 9.57031 17.0625 10 17.0625C11.1719 17.0625 12.1875 18.0781 12.1875 19.25C12.1875 20.4609 11.1719 21.4375 10 21.4375ZM7.5 11.75C7.5 12.4531 6.91406 13 6.25 13C5.54688 13 5 12.4531 5 11.75C5 11.0859 5.54688 10.5 6.25 10.5C6.91406 10.5 7.5 11.0859 7.5 11.75ZM15.625 16.75C14.9219 16.75 14.375 16.2031 14.375 15.5C14.375 14.8359 14.9219 14.25 15.625 14.25C16.2891 14.25 16.875 14.8359 16.875 15.5C16.875 16.2031 16.2891 16.75 15.625 16.75ZM15 11.75C15 12.4531 14.4141 13 13.75 13C13.0469 13 12.5 12.4531 12.5 11.75C12.5 11.0859 13.0469 10.5 13.75 10.5C14.4141 10.5 15 11.0859 15 11.75Z" fill="black" fill-opacity="0.72"/>
</g>
<defs>
<clipPath id="clip0_2556_17579">
<rect width="20" height="30" fill="white"/>
</clipPath>
</defs>
</svg>
