<svg width="27" height="36" viewBox="0 0 27 36" fill="none" xmlns="http://www.w3.org/2000/svg">
<g id="label-paired / xl / video-xl / bold" clip-path="url(#clip0_2556_19311)">
<path id="icon" d="M3 11.25C2.57812 11.25 2.25 11.625 2.25 12V24C2.25 24.4219 2.57812 24.75 3 24.75H15C15.375 24.75 15.75 24.4219 15.75 24V12C15.75 11.625 15.375 11.25 15 11.25H3ZM0 12C0 10.3594 1.3125 9 3 9H15C16.6406 9 18 10.3594 18 12V13.5469V22.4531V24C18 25.6875 16.6406 27 15 27H3C1.3125 27 0 25.6875 0 24V12ZM24.75 23.0625V12.9844L19.5 15.3281V12.8906L24.375 10.6875C24.6094 10.5938 24.8438 10.5 25.125 10.5C26.1562 10.5 27 11.3438 27 12.375V23.6719C27 24.7031 26.1562 25.5 25.125 25.5C24.8438 25.5 24.6094 25.4531 24.375 25.3594L19.5 23.1562V20.6719L24.75 23.0625Z" fill="black" fill-opacity="0.72"/>
</g>
<defs>
<clipPath id="clip0_2556_19311">
<rect width="27" height="36" fill="white"/>
</clipPath>
</defs>
</svg>
