<svg width="27" height="36" viewBox="0 0 27 36" fill="none" xmlns="http://www.w3.org/2000/svg">
<g id="label-paired / xl / basket-shopping-xl / fill" clip-path="url(#clip0_2981_902)">
<path id="icon" d="M11.8594 7.6875L8.01562 15H18.9375L15.0938 7.6875C14.8125 7.125 15.0469 6.42188 15.5625 6.14062C16.125 5.85938 16.8281 6.09375 17.1094 6.60938L21.4688 15H25.5C26.2969 15 27 15.7031 27 16.5C27 17.3438 26.2969 18 25.5 18L23.0625 27.75C22.7344 29.0625 21.5156 30 20.1562 30H6.84375C5.4375 30 4.26562 29.0625 3.89062 27.75L1.5 18C0.65625 18 0 17.3438 0 16.5C0 15.7031 0.65625 15 1.5 15H5.48438L9.84375 6.60938C10.125 6.09375 10.8281 5.85938 11.3906 6.14062C11.9062 6.42188 12.1406 7.125 11.8594 7.6875ZM9 20.25C9 19.875 8.625 19.5 8.25 19.5C7.82812 19.5 7.5 19.875 7.5 20.25V24.75C7.5 25.1719 7.82812 25.5 8.25 25.5C8.625 25.5 9 25.1719 9 24.75V20.25ZM13.5 19.5C13.0781 19.5 12.75 19.875 12.75 20.25V24.75C12.75 25.1719 13.0781 25.5 13.5 25.5C13.875 25.5 14.25 25.1719 14.25 24.75V20.25C14.25 19.875 13.875 19.5 13.5 19.5ZM19.5 20.25C19.5 19.875 19.125 19.5 18.75 19.5C18.3281 19.5 18 19.875 18 20.25V24.75C18 25.1719 18.3281 25.5 18.75 25.5C19.125 25.5 19.5 25.1719 19.5 24.75V20.25Z" fill="black" fill-opacity="0.72"/>
</g>
<defs>
<clipPath id="clip0_2981_902">
<rect width="27" height="36" fill="white"/>
</clipPath>
</defs>
</svg>
