<svg width="16" height="22" viewBox="0 0 16 22" fill="none" xmlns="http://www.w3.org/2000/svg">
<g id="label-paired / sm / basket-shopping-sm / regular" clip-path="url(#clip0_2981_778)">
<path id="icon" d="M9.06641 3.83203C9.28516 3.69531 9.55859 3.77734 9.66797 3.96875L12.6211 9H14.0977H15H15.4375C15.6562 9 15.875 9.21875 15.875 9.4375C15.875 9.68359 15.6562 9.875 15.4375 9.875H14.7812L13.1406 16.4375C12.9492 17.2031 12.2383 17.75 11.4453 17.75H4.55469C3.73438 17.75 3.05078 17.2031 2.83203 16.4375L1.21875 9.875H0.5625C0.316406 9.875 0.125 9.68359 0.125 9.4375C0.125 9.21875 0.316406 9 0.5625 9H1H1.90234H3.35156L6.30469 3.96875C6.41406 3.77734 6.6875 3.69531 6.90625 3.83203C7.09766 3.94141 7.17969 4.21484 7.04297 4.43359L4.36328 9H11.6094L8.92969 4.43359C8.79297 4.21484 8.875 3.94141 9.06641 3.83203ZM2.12109 9.875L3.70703 16.2188C3.78906 16.6016 4.14453 16.875 4.55469 16.875H11.4453C11.8281 16.875 12.1836 16.6016 12.293 16.2188L13.8789 9.875H2.12109ZM6.25 12.0625V14.6875C6.25 14.9336 6.03125 15.125 5.8125 15.125C5.56641 15.125 5.375 14.9336 5.375 14.6875V12.0625C5.375 11.8438 5.56641 11.625 5.8125 11.625C6.03125 11.625 6.25 11.8438 6.25 12.0625ZM8 11.625C8.21875 11.625 8.4375 11.8438 8.4375 12.0625V14.6875C8.4375 14.9336 8.21875 15.125 8 15.125C7.75391 15.125 7.5625 14.9336 7.5625 14.6875V12.0625C7.5625 11.8438 7.75391 11.625 8 11.625ZM10.625 12.0625V14.6875C10.625 14.9336 10.4062 15.125 10.1875 15.125C9.94141 15.125 9.75 14.9336 9.75 14.6875V12.0625C9.75 11.8438 9.94141 11.625 10.1875 11.625C10.4062 11.625 10.625 11.8438 10.625 12.0625Z" fill="black" fill-opacity="0.72"/>
</g>
<defs>
<clipPath id="clip0_2981_778">
<rect width="16" height="22" fill="white"/>
</clipPath>
</defs>
</svg>
