<svg width="24" height="36" viewBox="0 0 24 36" fill="none" xmlns="http://www.w3.org/2000/svg">
<g id="label-paired / xl / circle-eight-xl / fill" clip-path="url(#clip0_2556_19850)">
<path id="icon" d="M0 18C0 13.7344 2.25 9.79688 6 7.64062C9.70312 5.48438 14.25 5.48438 18 7.64062C21.7031 9.79688 24 13.7344 24 18C24 22.3125 21.7031 26.25 18 28.4062C14.25 30.5625 9.70312 30.5625 6 28.4062C2.25 26.25 0 22.3125 0 18ZM12.375 12H11.625C9.75 12 8.25 13.5469 8.25 15.375C8.25 16.125 8.48438 16.8281 8.85938 17.3438C8.01562 18.0469 7.5 19.0781 7.5 20.25C7.5 22.3594 9.14062 24 11.25 24H12.75C14.8125 24 16.5 22.3594 16.5 20.25C16.5 19.0781 15.9375 18.0469 15.0938 17.3438C15.5156 16.8281 15.75 16.125 15.75 15.375C15.75 13.5469 14.2031 12 12.375 12ZM11.625 16.5C10.9688 16.5 10.5 16.0312 10.5 15.375C10.5 14.7656 10.9688 14.25 11.625 14.25H12.375C12.9844 14.25 13.5 14.7656 13.5 15.375C13.5 16.0312 12.9844 16.5 12.375 16.5H11.625ZM12.375 18.75H12.75C13.5469 18.75 14.25 19.4531 14.25 20.25C14.25 21.0938 13.5469 21.75 12.75 21.75H11.25C10.4062 21.75 9.75 21.0938 9.75 20.25C9.75 19.4531 10.4062 18.75 11.25 18.75H11.625H12.375Z" fill="black" fill-opacity="0.72"/>
</g>
<defs>
<clipPath id="clip0_2556_19850">
<rect width="24" height="36" fill="white"/>
</clipPath>
</defs>
</svg>
