<svg width="24" height="36" viewBox="0 0 24 36" fill="none" xmlns="http://www.w3.org/2000/svg">
<g id="label-paired / xl / file-pdf-xl / regular" clip-path="url(#clip0_2365_890)">
<path id="icon" d="M3 28.5H4.5V30H3C2.15625 29.9688 1.45312 29.6719 0.890625 29.1094C0.328125 28.5469 0.03125 27.8438 0 27V9C0.03125 8.15625 0.328125 7.45312 0.890625 6.89062C1.45312 6.32812 2.15625 6.03125 3 6H10.3125C10.9375 6 11.4688 6.21875 11.9062 6.65625L17.3438 12.0938C17.7812 12.5312 18 13.0625 18 13.6875V19.5H16.5V15H11.25C10.625 14.9688 10.0938 14.75 9.65625 14.3438C9.25 13.9062 9.03125 13.375 9 12.75V7.5H3C2.5625 7.5 2.20312 7.64062 1.92188 7.92188C1.64062 8.20312 1.5 8.5625 1.5 9V27C1.5 27.4375 1.64062 27.7969 1.92188 28.0781C2.20312 28.3594 2.5625 28.5 3 28.5ZM16.5 13.5C16.4375 13.375 16.3594 13.2656 16.2656 13.1719L10.8281 7.73438C10.7344 7.64062 10.625 7.57813 10.5 7.54688V12.75C10.5312 13.2188 10.7812 13.4688 11.25 13.5H16.5ZM8.25 22.5H9.75C10.5 22.5312 11.125 22.7812 11.625 23.25C12.0938 23.75 12.3438 24.375 12.375 25.125C12.3438 25.875 12.0938 26.5 11.625 27C11.125 27.4688 10.5 27.7188 9.75 27.75H9V29.25C8.96875 29.7188 8.71875 29.9688 8.25 30C7.78125 29.9688 7.53125 29.7188 7.5 29.25V27V23.25C7.53125 22.7812 7.78125 22.5312 8.25 22.5ZM9.75 26.25C10.4375 26.1875 10.8125 25.8125 10.875 25.125C10.8125 24.4375 10.4375 24.0625 9.75 24H9V26.25H9.75ZM14.25 22.5H15.75C16.375 22.5312 16.9062 22.75 17.3438 23.1562C17.75 23.5938 17.9688 24.125 18 24.75V27.75C17.9688 28.375 17.75 28.9062 17.3438 29.3438C16.9062 29.75 16.375 29.9688 15.75 30H14.25C13.7812 29.9688 13.5312 29.7188 13.5 29.25V23.25C13.5312 22.7812 13.7812 22.5312 14.25 22.5ZM15.75 28.5C16.2188 28.4688 16.4688 28.2188 16.5 27.75V24.75C16.4688 24.2812 16.2188 24.0312 15.75 24H15V28.5H15.75ZM19.5 23.25C19.5312 22.7812 19.7812 22.5312 20.25 22.5H22.5C22.9688 22.5312 23.2188 22.7812 23.25 23.25C23.2188 23.7188 22.9688 23.9688 22.5 24H21V25.5H22.5C22.9688 25.5312 23.2188 25.7812 23.25 26.25C23.2188 26.7188 22.9688 26.9688 22.5 27H21V29.25C20.9688 29.7188 20.7188 29.9688 20.25 30C19.7812 29.9688 19.5312 29.7188 19.5 29.25V26.25V23.25Z" fill="black" fill-opacity="0.72"/>
</g>
<defs>
<clipPath id="clip0_2365_890">
<rect width="24" height="36" fill="white"/>
</clipPath>
</defs>
</svg>
