<svg width="15" height="30" viewBox="0 0 15 30" fill="none" xmlns="http://www.w3.org/2000/svg">
<g id="label-paired / lg / file-lines-lg / bold" clip-path="url(#clip0_3431_921)">
<path id="icon" d="M2.5 23.625H12.5C12.8125 23.625 13.125 23.3516 13.125 23V11.75H10C9.29688 11.75 8.75 11.2031 8.75 10.5V7.375H2.5C2.14844 7.375 1.875 7.6875 1.875 8V23C1.875 23.3516 2.14844 23.625 2.5 23.625ZM2.5 5.5H8.94531C9.60938 5.5 10.2344 5.77344 10.7031 6.24219L14.2578 9.79688C14.7266 10.2656 15 10.8906 15 11.5547V23C15 24.4062 13.8672 25.5 12.5 25.5H2.5C1.09375 25.5 0 24.4062 0 23V8C0 6.63281 1.09375 5.5 2.5 5.5ZM4.6875 15.5H10.3125C10.8203 15.5 11.25 15.9297 11.25 16.4375C11.25 16.9844 10.8203 17.375 10.3125 17.375H4.6875C4.14062 17.375 3.75 16.9844 3.75 16.4375C3.75 15.9297 4.14062 15.5 4.6875 15.5ZM4.6875 19.25H10.3125C10.8203 19.25 11.25 19.6797 11.25 20.1875C11.25 20.7344 10.8203 21.125 10.3125 21.125H4.6875C4.14062 21.125 3.75 20.7344 3.75 20.1875C3.75 19.6797 4.14062 19.25 4.6875 19.25Z" fill="black" fill-opacity="0.72"/>
</g>
<defs>
<clipPath id="clip0_3431_921">
<rect width="15" height="30" fill="white"/>
</clipPath>
</defs>
</svg>
