<svg width="11" height="18" viewBox="0 0 11 18" fill="none" xmlns="http://www.w3.org/2000/svg">
<g id="label-paired / caption / objects-column-caption / regular" clip-path="url(#clip0_3436_611)">
<path id="icon" d="M1.375 5C1.16406 5 1 5.1875 1 5.375V9.125C1 9.33594 1.16406 9.5 1.375 9.5H3.625C3.8125 9.5 4 9.33594 4 9.125V5.375C4 5.1875 3.8125 5 3.625 5H1.375ZM0.25 5.375C0.25 4.76562 0.742188 4.25 1.375 4.25H3.625C4.23438 4.25 4.75 4.76562 4.75 5.375V9.125C4.75 9.75781 4.23438 10.25 3.625 10.25H1.375C0.742188 10.25 0.25 9.75781 0.25 9.125V5.375ZM7.375 9.5C7.16406 9.5 7 9.6875 7 9.875V13.625C7 13.8359 7.16406 14 7.375 14H9.625C9.8125 14 10 13.8359 10 13.625V9.875C10 9.6875 9.8125 9.5 9.625 9.5H7.375ZM6.25 9.875C6.25 9.26562 6.74219 8.75 7.375 8.75H9.625C10.2344 8.75 10.75 9.26562 10.75 9.875V13.625C10.75 14.2578 10.2344 14.75 9.625 14.75H7.375C6.74219 14.75 6.25 14.2578 6.25 13.625V9.875ZM3.625 11.75H1.375C1.16406 11.75 1 11.9375 1 12.125V13.625C1 13.8359 1.16406 14 1.375 14H3.625C3.8125 14 4 13.8359 4 13.625V12.125C4 11.9375 3.8125 11.75 3.625 11.75ZM1.375 11H3.625C4.23438 11 4.75 11.5156 4.75 12.125V13.625C4.75 14.2578 4.23438 14.75 3.625 14.75H1.375C0.742188 14.75 0.25 14.2578 0.25 13.625V12.125C0.25 11.5156 0.742188 11 1.375 11ZM7.375 5C7.16406 5 7 5.1875 7 5.375V6.875C7 7.08594 7.16406 7.25 7.375 7.25H9.625C9.8125 7.25 10 7.08594 10 6.875V5.375C10 5.1875 9.8125 5 9.625 5H7.375ZM6.25 5.375C6.25 4.76562 6.74219 4.25 7.375 4.25H9.625C10.2344 4.25 10.75 4.76562 10.75 5.375V6.875C10.75 7.50781 10.2344 8 9.625 8H7.375C6.74219 8 6.25 7.50781 6.25 6.875V5.375Z" fill="black" fill-opacity="0.72"/>
</g>
<defs>
<clipPath id="clip0_3436_611">
<rect width="11" height="18" fill="white"/>
</clipPath>
</defs>
</svg>
