<svg width="23" height="30" viewBox="0 0 23 30" fill="none" xmlns="http://www.w3.org/2000/svg">
<g id="label-paired / lg / video-lg / bold" clip-path="url(#clip0_2556_16970)">
<path id="icon" d="M2.75 9.875C2.39844 9.875 2.125 10.1875 2.125 10.5V20.5C2.125 20.8516 2.39844 21.125 2.75 21.125H12.75C13.0625 21.125 13.375 20.8516 13.375 20.5V10.5C13.375 10.1875 13.0625 9.875 12.75 9.875H2.75ZM0.25 10.5C0.25 9.13281 1.34375 8 2.75 8H12.75C14.1172 8 15.25 9.13281 15.25 10.5V11.7891V19.2109V20.5C15.25 21.9062 14.1172 23 12.75 23H2.75C1.34375 23 0.25 21.9062 0.25 20.5V10.5ZM20.875 19.7188V11.3203L16.5 13.2734V11.2422L20.5625 9.40625C20.7578 9.32812 20.9531 9.25 21.1875 9.25C22.0469 9.25 22.75 9.95312 22.75 10.8125V20.2266C22.75 21.0859 22.0469 21.75 21.1875 21.75C20.9531 21.75 20.7578 21.7109 20.5625 21.6328L16.5 19.7969V17.7266L20.875 19.7188Z" fill="black" fill-opacity="0.72"/>
</g>
<defs>
<clipPath id="clip0_2556_16970">
<rect width="23" height="30" fill="white"/>
</clipPath>
</defs>
</svg>
