<svg width="15" height="22" viewBox="0 0 15 22" fill="none" xmlns="http://www.w3.org/2000/svg">
<g id="label-paired / sm / paper-plane-top-sm / fill" clip-path="url(#clip0_2738_4386)">
<path id="icon" d="M1.83984 4.51562L13.9258 9.76562C14.8008 10.1484 14.8008 11.3789 13.9258 11.7617L1.83984 17.0117C0.910156 17.4219 -0.046875 16.3828 0.445312 15.4805L2.35938 11.9531C2.46875 11.7344 2.6875 11.5703 2.96094 11.543L7.77344 10.9414C7.85547 10.9414 7.9375 10.8594 7.9375 10.75C7.9375 10.668 7.85547 10.5859 7.77344 10.5859L2.96094 9.98438C2.6875 9.92969 2.46875 9.79297 2.35938 9.57422L0.445312 6.04688C-0.046875 5.14453 0.910156 4.10547 1.83984 4.51562Z" fill="black" fill-opacity="0.72"/>
</g>
<defs>
<clipPath id="clip0_2738_4386">
<rect width="15" height="22" fill="white"/>
</clipPath>
</defs>
</svg>
