<svg width="14" height="22" viewBox="0 0 14 22" fill="none" xmlns="http://www.w3.org/2000/svg">
<g id="label-paired / sm / circle-caret-down-sm / fill" clip-path="url(#clip0_2556_12339)">
<path id="icon" d="M7 3.75C9.48828 3.75 11.7852 5.08984 13.043 7.25C14.3008 9.4375 14.3008 12.0898 13.043 14.25C11.7852 16.4375 9.48828 17.75 7 17.75C4.48438 17.75 2.1875 16.4375 0.929688 14.25C-0.328125 12.0898 -0.328125 9.4375 0.929688 7.25C2.1875 5.08984 4.48438 3.75 7 3.75ZM7 13.8125C7.16406 13.8125 7.35547 13.7578 7.46484 13.6211L10.3086 10.5586C10.5 10.3672 10.5273 10.0938 10.4453 9.84766C10.3359 9.60156 10.0898 9.4375 9.84375 9.4375H4.15625C3.88281 9.4375 3.63672 9.60156 3.55469 9.84766C3.44531 10.0938 3.47266 10.3672 3.66406 10.5586L6.50781 13.6211C6.64453 13.7578 6.80859 13.8125 7 13.8125Z" fill="black" fill-opacity="0.72"/>
</g>
<defs>
<clipPath id="clip0_2556_12339">
<rect width="14" height="22" fill="white"/>
</clipPath>
</defs>
</svg>
