<svg width="24" height="36" viewBox="0 0 24 36" fill="none" xmlns="http://www.w3.org/2000/svg">
<g id="label-paired / xl / circle-exclamation-xl / regular" clip-path="url(#clip0_2556_19488)">
<path id="icon" d="M12 7.5C8.20312 7.5 4.78125 9.51562 2.90625 12.75C0.984375 16.0312 0.984375 20.0156 2.90625 23.25C4.78125 26.5312 8.20312 28.5 12 28.5C15.75 28.5 19.1719 26.5312 21.0469 23.25C22.9688 20.0156 22.9688 16.0312 21.0469 12.75C19.1719 9.51562 15.75 7.5 12 7.5ZM12 30C7.6875 30 3.75 27.75 1.59375 24C-0.5625 20.2969 -0.5625 15.75 1.59375 12C3.75 8.29688 7.6875 6 12 6C16.2656 6 20.2031 8.29688 22.3594 12C24.5156 15.75 24.5156 20.2969 22.3594 24C20.2031 27.75 16.2656 30 12 30ZM12 12C12.375 12 12.75 12.375 12.75 12.75V18.75C12.75 19.1719 12.375 19.5 12 19.5C11.5781 19.5 11.25 19.1719 11.25 18.75V12.75C11.25 12.375 11.5781 12 12 12ZM13.125 22.5C13.125 23.1562 12.6094 23.625 12 23.625C11.3438 23.625 10.875 23.1562 10.875 22.5C10.875 21.8906 11.3438 21.375 12 21.375C12.6094 21.375 13.125 21.8906 13.125 22.5Z" fill="black" fill-opacity="0.72"/>
</g>
<defs>
<clipPath id="clip0_2556_19488">
<rect width="24" height="36" fill="white"/>
</clipPath>
</defs>
</svg>
