<svg width="14" height="22" viewBox="0 0 14 22" fill="none" xmlns="http://www.w3.org/2000/svg">
<g id="label-paired / sm / circle-one-sm / bold" clip-path="url(#clip0_2556_12483)">
<path id="icon" d="M12.6875 10.75C12.6875 8.72656 11.5938 6.86719 9.84375 5.82812C8.06641 4.81641 5.90625 4.81641 4.15625 5.82812C2.37891 6.86719 1.3125 8.72656 1.3125 10.75C1.3125 12.8008 2.37891 14.6602 4.15625 15.6992C5.90625 16.7109 8.06641 16.7109 9.84375 15.6992C11.5938 14.6602 12.6875 12.8008 12.6875 10.75ZM0 10.75C0 8.26172 1.3125 5.96484 3.5 4.70703C5.66016 3.44922 8.3125 3.44922 10.5 4.70703C12.6602 5.96484 14 8.26172 14 10.75C14 13.2656 12.6602 15.5625 10.5 16.8203C8.3125 18.0781 5.66016 18.0781 3.5 16.8203C1.3125 15.5625 0 13.2656 0 10.75ZM7.32812 7.35938C7.51953 7.46875 7.65625 7.6875 7.65625 7.90625V12.9375H8.75C9.10547 12.9375 9.40625 13.2383 9.40625 13.5938C9.40625 13.9766 9.10547 14.25 8.75 14.25H7H5.25C4.86719 14.25 4.59375 13.9766 4.59375 13.5938C4.59375 13.2383 4.86719 12.9375 5.25 12.9375H6.34375V9.05469L5.76953 9.35547C5.46875 9.54688 5.05859 9.4375 4.89453 9.10938C4.70312 8.80859 4.8125 8.39844 5.14062 8.23438L6.67188 7.35938C6.86328 7.25 7.10938 7.25 7.32812 7.35938Z" fill="black" fill-opacity="0.72"/>
</g>
<defs>
<clipPath id="clip0_2556_12483">
<rect width="14" height="22" fill="white"/>
</clipPath>
</defs>
</svg>
