<svg width="20" height="30" viewBox="0 0 20 30" fill="none" xmlns="http://www.w3.org/2000/svg">
<g id="label-paired / lg / filter-lg / regular" clip-path="url(#clip0_3758_442)">
<path id="icon" d="M0 8.3125C0 7.45312 0.664062 6.75 1.52344 6.75H18.4375C19.2969 6.75 20 7.45312 20 8.3125C20 8.66406 19.8438 9.01562 19.6094 9.28906L12.5 17.9219V22.9609C12.5 23.6641 11.875 24.2891 11.1719 24.2891C10.8594 24.2891 10.5859 24.1719 10.3516 23.9766L7.96875 22.1406C7.65625 21.9062 7.46094 21.5547 7.46094 21.1641V17.9219L0.351562 9.28906C0.117188 9.01562 0 8.66406 0 8.3125ZM1.52344 8C1.36719 8 1.25 8.15625 1.25 8.3125C1.25 8.39062 1.25 8.42969 1.28906 8.50781L8.59375 17.2969C8.67188 17.4141 8.75 17.5703 8.75 17.6875V21.1641L11.1328 23C11.1328 23 11.1328 23 11.1719 23C11.2109 23 11.25 23 11.25 22.9609V17.6875C11.25 17.5703 11.2891 17.4141 11.3672 17.2969L18.6719 8.50781C18.7109 8.42969 18.75 8.39062 18.75 8.3125C18.75 8.15625 18.5938 8 18.4375 8H1.52344Z" fill="black" fill-opacity="0.72"/>
</g>
<defs>
<clipPath id="clip0_3758_442">
<rect width="20" height="30" fill="white"/>
</clipPath>
</defs>
</svg>
