<svg width="20" height="24" viewBox="0 0 20 24" fill="none" xmlns="http://www.w3.org/2000/svg">
<g id="label-paired / md / hand-gesture-swipe-left-right-md / regular" clip-path="url(#clip0_3546_625)">
<path id="icon" d="M9.96875 7.21875C10.5625 7.21875 11.0625 7.71875 11.0625 8.3125V10.75C11.2188 10.6875 11.375 10.6562 11.5312 10.6562C12 10.6562 12.4062 10.9375 12.625 11.3125C12.7188 11.2812 12.8438 11.2812 12.9375 11.2812C13.4062 11.2812 13.8125 11.5625 14.0312 11.9062C14.0938 11.9062 14.1562 11.9062 14.1875 11.9062C14.875 11.9062 15.4375 12.4688 15.4375 13.1562V15.0312C15.4375 16.25 14.4375 17.2188 13.25 17.2188H10.5938C10.125 17.2188 9.6875 17.125 9.28125 16.875L9.09375 16.8125C8.1875 16.3125 7.625 15.375 7.625 14.3125V13.9375C7.625 13.4375 7.84375 13 8.25 12.6875L8.6875 12.375C8.75 12.3125 8.8125 12.2812 8.875 12.2188V8.3125C8.875 7.71875 9.375 7.21875 9.96875 7.21875ZM9.5 8.3125V13.9375C9.5 14.0938 9.34375 14.25 9.1875 14.25C9.03125 14.25 8.875 14.0938 8.875 13.9375V13L8.625 13.1875C8.40625 13.375 8.25 13.625 8.25 13.9375V14.3125C8.25 15.125 8.6875 15.875 9.40625 16.25L9.5625 16.3438C9.875 16.5 10.2188 16.5938 10.5938 16.5938H13.25C14.125 16.5938 14.8125 15.9062 14.8125 15.0312V13.1562C14.8125 12.8125 14.5312 12.5312 14.1875 12.5312C14.125 12.5312 14.0312 12.5312 13.9688 12.5938C13.875 12.5938 13.7812 12.5938 13.7188 12.5625C13.625 12.5312 13.5625 12.4375 13.5625 12.375C13.4688 12.0938 13.2188 11.9062 12.9375 11.9062C12.8125 11.9062 12.7188 11.9375 12.625 12C12.5312 12.0625 12.4062 12.0625 12.3125 12.0312C12.2188 11.9688 12.1562 11.875 12.1562 11.7812C12.0938 11.5 11.8438 11.2812 11.5312 11.2812C11.3125 11.2812 11.125 11.4062 11 11.5625C10.9375 11.6875 10.7812 11.7188 10.6562 11.6875C10.5312 11.6562 10.4375 11.5312 10.4375 11.4062V8.3125C10.4375 8.0625 10.2188 7.84375 9.96875 7.84375C9.6875 7.84375 9.5 8.0625 9.5 8.3125ZM15.25 10.3438L17.1562 8.4375C17.2812 8.3125 17.2812 8.125 17.1562 8L15.25 6.09375C15.125 6 14.9375 6 14.8125 6.09375C14.6875 6.21875 14.7188 6.40625 14.8125 6.53125L16.2188 7.9375H12.5625C12.4062 7.9375 12.2812 8.0625 12.2812 8.21875C12.2812 8.375 12.4062 8.53125 12.5625 8.53125H16.2188L14.8125 9.90625C14.7188 10.0312 14.7188 10.2188 14.8125 10.3438C14.9375 10.4688 15.125 10.4688 15.25 10.3438ZM5.25 10.3438L3.34375 8.4375C3.25 8.3125 3.25 8.125 3.34375 8L5.25 6.09375C5.375 5.96875 5.5625 5.96875 5.6875 6.09375C5.8125 6.21875 5.8125 6.40625 5.6875 6.53125L4.28125 7.90625H7.9375C8.09375 7.90625 8.25 8.0625 8.25 8.21875C8.25 8.375 8.09375 8.53125 7.9375 8.53125H4.28125L5.6875 9.90625C5.8125 10.0312 5.8125 10.2188 5.6875 10.3438C5.5625 10.4688 5.375 10.4688 5.25 10.3438Z" fill="black" fill-opacity="0.72"/>
</g>
<defs>
<clipPath id="clip0_3546_625">
<rect width="20" height="24" fill="white"/>
</clipPath>
</defs>
</svg>
