<svg width="8" height="24" viewBox="0 0 8 24" fill="none" xmlns="http://www.w3.org/2000/svg">
<g id="label-paired / md / one-md / fill" clip-path="url(#clip0_2556_14847)">
<path id="icon" d="M5 6V17H7C7.53125 17 8 17.4688 8 18C8 18.5625 7.53125 19 7 19H4H1C0.4375 19 0 18.5625 0 18C0 17.4688 0.4375 17 1 17H3V7.875L1.53125 8.84375C1.09375 9.15625 0.46875 9.03125 0.15625 8.5625C-0.15625 8.09375 -0.03125 7.5 0.4375 7.1875L3.4375 5.1875C3.75 4.96875 4.125 4.96875 4.46875 5.125C4.78125 5.3125 5 5.65625 5 6Z" fill="black" fill-opacity="0.72"/>
</g>
<defs>
<clipPath id="clip0_2556_14847">
<rect width="8" height="24" fill="white"/>
</clipPath>
</defs>
</svg>
