<svg width="16" height="22" viewBox="0 0 16 22" fill="none" xmlns="http://www.w3.org/2000/svg">
<g id="label-paired / sm / memo-circle-check-sm / bold" clip-path="url(#clip0_2556_12241)">
<path id="icon" d="M1.875 5.0625C1.62891 5.0625 1.4375 5.28125 1.4375 5.5V16C1.4375 16.2461 1.62891 16.4375 1.875 16.4375H7.89062C8.21875 16.957 8.62891 17.3945 9.12109 17.75C9.03906 17.75 8.95703 17.75 8.875 17.75H1.875C0.890625 17.75 0.125 16.9844 0.125 16V5.5C0.125 4.54297 0.890625 3.75 1.875 3.75H8.875C9.83203 3.75 10.625 4.54297 10.625 5.5V9.19141C10.1328 9.32812 9.69531 9.51953 9.3125 9.79297V5.5C9.3125 5.28125 9.09375 5.0625 8.875 5.0625H1.875ZM3.40625 7.25H7.34375C7.69922 7.25 8 7.55078 8 7.90625C8 8.28906 7.69922 8.5625 7.34375 8.5625H3.40625C3.02344 8.5625 2.75 8.28906 2.75 7.90625C2.75 7.55078 3.02344 7.25 3.40625 7.25ZM3.40625 9.875H7.34375C7.69922 9.875 8 10.1758 8 10.5312C8 10.9141 7.69922 11.1875 7.34375 11.1875H3.40625C3.02344 11.1875 2.75 10.9141 2.75 10.5312C2.75 10.1758 3.02344 9.875 3.40625 9.875ZM3.40625 12.5H4.71875C5.07422 12.5 5.375 12.8008 5.375 13.1562C5.375 13.5391 5.07422 13.8125 4.71875 13.8125H3.40625C3.02344 13.8125 2.75 13.5391 2.75 13.1562C2.75 12.8008 3.02344 12.5 3.40625 12.5ZM15.875 13.8125C15.875 15.2344 15.1094 16.5195 13.9062 17.2305C12.6758 17.9414 11.1719 17.9414 9.96875 17.2305C8.73828 16.5195 8 15.2344 8 13.8125C8 12.418 8.73828 11.1328 9.96875 10.4219C11.1719 9.71094 12.6758 9.71094 13.9062 10.4219C15.1094 11.1328 15.875 12.418 15.875 13.8125ZM13.7695 12.6367C13.6055 12.4727 13.3047 12.4727 13.1406 12.6367L11.5 14.3047L10.707 13.5117C10.543 13.3477 10.2422 13.3477 10.0781 13.5117C9.91406 13.6758 9.91406 13.9766 10.0781 14.1406L11.1719 15.2344C11.3359 15.3984 11.6367 15.3984 11.8008 15.2344L13.7695 13.2656C13.9336 13.1016 13.9336 12.8008 13.7695 12.6367Z" fill="black" fill-opacity="0.72"/>
</g>
<defs>
<clipPath id="clip0_2556_12241">
<rect width="16" height="22" fill="white"/>
</clipPath>
</defs>
</svg>
