<svg width="12" height="18" viewBox="0 0 12 18" fill="none" xmlns="http://www.w3.org/2000/svg">
<g id="label-paired / caption / message-lines-caption / regular" clip-path="url(#clip0_2981_641)">
<path id="icon" d="M4.5 13.25V14.375L6.79688 12.6641C6.91406 12.5703 7.07812 12.5 7.24219 12.5H10.5C10.8984 12.5 11.25 12.1719 11.25 11.75V5C11.25 4.60156 10.8984 4.25 10.5 4.25H1.5C1.07812 4.25 0.75 4.60156 0.75 5V11.75C0.75 12.1719 1.07812 12.5 1.5 12.5H3.75C4.14844 12.5 4.5 12.8516 4.5 13.25ZM1.5 3.5H10.5C11.3203 3.5 12 4.17969 12 5V11.75C12 12.5938 11.3203 13.25 10.5 13.25H7.24219L4.33594 15.4297C4.21875 15.5234 4.07812 15.5234 3.9375 15.4766C3.82031 15.4062 3.75 15.2891 3.75 15.125V14V13.25H3H1.5C0.65625 13.25 0 12.5938 0 11.75V5C0 4.17969 0.65625 3.5 1.5 3.5ZM3.375 6.875H8.625C8.8125 6.875 9 7.0625 9 7.25C9 7.46094 8.8125 7.625 8.625 7.625H3.375C3.16406 7.625 3 7.46094 3 7.25C3 7.0625 3.16406 6.875 3.375 6.875ZM3.375 9.125H6.375C6.5625 9.125 6.75 9.3125 6.75 9.5C6.75 9.71094 6.5625 9.875 6.375 9.875H3.375C3.16406 9.875 3 9.71094 3 9.5C3 9.3125 3.16406 9.125 3.375 9.125Z" fill="black" fill-opacity="0.72"/>
</g>
<defs>
<clipPath id="clip0_2981_641">
<rect width="12" height="18" fill="white"/>
</clipPath>
</defs>
</svg>
