<svg width="30" height="36" viewBox="0 0 30 36" fill="none" xmlns="http://www.w3.org/2000/svg">
<g id="label-paired / xl / graduation-cap-xl / bold" clip-path="url(#clip0_4124_451)">
<path id="icon" d="M15 9.75C14.8594 9.75 14.7656 9.79688 14.625 9.84375L4.40625 13.5L6.51562 14.2969C6.75 14.1562 6.98438 14.0625 7.21875 13.9688L14.7188 11.1562C15.0938 11.0156 15.5625 11.2031 15.7031 11.625C15.8438 12 15.6562 12.4219 15.2344 12.5625L8.625 15.0469L14.625 17.2031C14.7656 17.25 14.8594 17.25 15 17.25C15.0938 17.25 15.2344 17.25 15.3281 17.2031L25.5469 13.5L15.3281 9.84375C15.2344 9.79688 15.0938 9.75 15 9.75ZM0.703125 14.5781C0.28125 14.4375 0 14.0156 0 13.5C0 13.0312 0.28125 12.6094 0.703125 12.4688L13.875 7.73438C14.2031 7.59375 14.5781 7.5 15 7.5C15.375 7.5 15.75 7.59375 16.0781 7.73438L29.25 12.4688C29.6719 12.6094 30 13.0312 30 13.5C30 14.0156 29.6719 14.4375 29.25 14.5781L16.0781 19.3125C15.75 19.4531 15.375 19.5469 15 19.5469C14.5781 19.5469 14.2031 19.4531 13.875 19.3125L5.90625 16.4531C4.64062 17.5781 3.84375 19.125 3.75 20.8594C4.03125 21.5156 4.21875 22.1719 4.35938 22.8281C4.64062 24.0938 4.875 25.9219 4.45312 27.9375C4.40625 28.125 4.3125 28.3125 4.125 28.4062C3.9375 28.5 3.75 28.5469 3.5625 28.5L0.5625 27.75C0.28125 27.7031 0.09375 27.5156 0 27.2812C-0.046875 27.0469 0 26.7656 0.140625 26.5781C0.515625 26.0156 0.890625 25.4062 1.17188 24.7969C1.73438 23.7188 2.25 22.3594 2.25 21V20.9531C2.29688 19.0312 3.09375 17.25 4.35938 15.8906L0.703125 14.5781ZM23.25 18.3281L24 25.125C24 26.8125 19.9688 28.5 15 28.5C10.0312 28.5 6 26.8125 6 25.125L6.70312 18.3281L8.85938 19.125L8.29688 24.75C8.48438 24.9375 8.85938 25.125 9.42188 25.3594C10.7812 25.875 12.75 26.25 15 26.25C17.25 26.25 19.2188 25.875 20.5312 25.3594C21.0938 25.125 21.4688 24.9375 21.6562 24.75L21.0938 19.125L23.25 18.3281ZM21.8906 24.5625V24.6094V24.5625ZM8.0625 24.5625V24.6094V24.5625Z" fill="black" fill-opacity="0.72"/>
</g>
<defs>
<clipPath id="clip0_4124_451">
<rect width="30" height="36" fill="white"/>
</clipPath>
</defs>
</svg>
