<svg width="24" height="36" viewBox="0 0 24 36" fill="none" xmlns="http://www.w3.org/2000/svg">
<g id="label-paired / xl / thumbs-down-xl / bold" clip-path="url(#clip0_2362_632)">
<path id="icon" d="M15.1875 28.3594C14.25 28.6094 13.3906 28.5156 12.6094 28.0781C11.8281 27.6406 11.2969 26.9688 11.0156 26.0625L10.7344 25.125C10.5469 24.5 10.25 23.9531 9.84375 23.4844L7.40625 20.8125C7 20.2812 7.03125 19.7656 7.5 19.2656C8.0625 18.8281 8.59375 18.8438 9.09375 19.3125L11.4844 21.9844C12.1406 22.7031 12.6094 23.5469 12.8906 24.5156L13.1719 25.4531C13.4219 26.0781 13.8906 26.3281 14.5781 26.2031C15.2031 25.9531 15.4531 25.4844 15.3281 24.7969L15.0469 23.8594C14.7969 22.9219 14.3906 22.0625 13.8281 21.2812C13.5781 20.9062 13.5469 20.5156 13.7344 20.1094C13.9531 19.7344 14.2812 19.5312 14.7188 19.5H21C21.4688 19.4688 21.7188 19.2188 21.75 18.75C21.7188 18.4062 21.5625 18.1719 21.2812 18.0469C20.9062 17.8906 20.6719 17.625 20.5781 17.25C20.4844 16.875 20.5625 16.5469 20.8125 16.2656C20.9375 16.1094 21 15.9375 21 15.75C20.9688 15.3438 20.7656 15.0938 20.3906 15C19.9844 14.9062 19.7031 14.6719 19.5469 14.2969C19.4219 13.8906 19.4844 13.5312 19.7344 13.2188C19.8281 13.0938 19.875 12.9375 19.875 12.75C19.8438 12.4062 19.6875 12.1719 19.4062 12.0469C18.8125 11.7656 18.5781 11.3125 18.7031 10.6875C18.7344 10.625 18.75 10.5625 18.75 10.5C18.7188 10.0312 18.4688 9.78125 18 9.75H13.4531C12.8281 9.75 12.2656 9.92188 11.7656 10.2656L8.85938 12.1875C8.26562 12.5 7.75 12.3906 7.3125 11.8594C6.96875 11.2656 7.07812 10.75 7.64062 10.3125L10.5 8.39062C11.4062 7.79687 12.3906 7.5 13.4531 7.5H18C18.8438 7.5 19.5469 7.78125 20.1094 8.34375C20.6719 8.875 20.9688 9.5625 21 10.4062C21.7188 10.9688 22.0938 11.75 22.125 12.75C22.125 12.9688 22.1094 13.1719 22.0781 13.3594C22.8281 13.9219 23.2188 14.7188 23.25 15.75C23.25 16.0625 23.2031 16.3594 23.1094 16.6406C23.6719 17.2031 23.9688 17.9062 24 18.75C23.9688 19.5938 23.6719 20.2969 23.1094 20.8594C22.5469 21.4219 21.8438 21.7188 21 21.75H16.6875C16.9062 22.25 17.0938 22.75 17.25 23.25L17.4844 24.1875C17.7344 25.125 17.6406 25.9844 17.2031 26.7656C16.7656 27.5469 16.0938 28.0781 15.1875 28.3594ZM1.5 24C1.0625 24 0.703125 23.8594 0.421875 23.5781C0.140625 23.2969 0 22.9375 0 22.5V12C0 11.5625 0.140625 11.2031 0.421875 10.9219C0.703125 10.6406 1.0625 10.5 1.5 10.5H4.5C4.9375 10.5 5.29688 10.6406 5.57812 10.9219C5.85938 11.2031 6 11.5625 6 12V22.5C6 22.9375 5.85938 23.2969 5.57812 23.5781C5.29688 23.8594 4.9375 24 4.5 24H1.5Z" fill="black" fill-opacity="0.72"/>
</g>
<defs>
<clipPath id="clip0_2362_632">
<rect width="24" height="36" fill="white"/>
</clipPath>
</defs>
</svg>
