<svg width="20" height="30" viewBox="0 0 20 30" fill="none" xmlns="http://www.w3.org/2000/svg">
<g id="label-paired / lg / rotate-device-lg / bold" clip-path="url(#clip0_4329_563)">
<path id="icon" d="M16.3281 9.36719C17.6953 10.7344 18.3594 12.4922 18.3594 14.2891H18.8672H19.375C19.375 12.2578 18.5938 10.1875 17.0312 8.625C16.6797 8.3125 16.3281 8 15.9766 7.72656L15.5859 7.49219C15.1172 7.21875 14.6484 6.98438 14.1797 6.78906L13.7109 6.63281L13.1641 6.51562C12.7344 6.39844 12.2656 6.32031 11.8359 6.32031L11.3672 6.28125H10.1562L13.2031 9.32812L13.5547 8.97656L13.9062 8.625L12.6953 7.41406C12.7734 7.45312 12.8516 7.45312 12.9688 7.49219L13.3984 7.60938L13.8281 7.76562C14.2578 7.92188 14.6484 8.11719 15.0391 8.35156L15.3906 8.54688C15.7031 8.78125 16.0156 9.05469 16.3281 9.36719ZM3.90625 21.75C2.53906 20.3828 1.83594 18.625 1.83594 16.8281H1.36719H0.859375C0.859375 18.8594 1.64062 20.9297 3.20312 22.4922C3.51562 22.8047 3.90625 23.1172 4.25781 23.3906L4.64844 23.625C5.07812 23.8984 5.54688 24.1328 6.05469 24.3281L6.52344 24.4844L7.03125 24.6016C7.5 24.7188 7.92969 24.7969 8.39844 24.7969L8.86719 24.8359H10.0391L7.03125 21.75L6.67969 22.1016L6.32812 22.4531L7.53906 23.7031C7.46094 23.6641 7.34375 23.6641 7.26562 23.625L6.83594 23.5078L6.40625 23.3516C5.97656 23.1953 5.58594 23 5.19531 22.7656L4.84375 22.5703C4.53125 22.3359 4.17969 22.0625 3.90625 21.75ZM16.6406 18.5469L13.125 22.1016C12.4219 22.7656 11.3281 22.7656 10.625 22.1016L3.55469 15.0312C2.89062 14.3281 2.89062 13.2344 3.55469 12.5703L7.10938 9.01562C7.77344 8.35156 8.90625 8.35156 9.57031 9.01562L16.6406 16.0859C17.3438 16.7891 17.3438 17.8828 16.6406 18.5469ZM7.46094 11.4766L6.05469 12.9219C5.74219 13.1953 5.27344 13.1953 5 12.9219L4.80469 12.7266L4.29688 13.2734C3.98438 13.5469 3.98438 14.0156 4.29688 14.3281L11.3672 21.3984C11.6406 21.6719 12.1094 21.6719 12.4219 21.3984L15.9375 17.8438C16.25 17.5703 16.25 17.1016 15.9375 16.7891L8.86719 9.71875C8.59375 9.44531 8.125 9.44531 7.8125 9.71875L7.26562 10.2656L7.46094 10.4219C7.73438 10.7344 7.73438 11.2031 7.46094 11.4766ZM6.83594 10.9688L6.5625 10.6953L5.23438 12.0234L5.50781 12.2969L6.83594 10.9688Z" fill="black" fill-opacity="0.72"/>
</g>
<defs>
<clipPath id="clip0_4329_563">
<rect width="20" height="30" fill="white"/>
</clipPath>
</defs>
</svg>
