<svg width="16" height="24" viewBox="0 0 16 24" fill="none" xmlns="http://www.w3.org/2000/svg">
<g id="label-paired / md / circle-user-md / fill" clip-path="url(#clip0_2556_14582)">
<path id="icon" d="M12.4688 16.0312C11.75 14.8125 10.4688 14 9 14H7C5.5 14 4.21875 14.8125 3.53125 16.0312C4.625 17.25 6.21875 18 8 18C9.75 18 11.3438 17.25 12.4688 16.0312ZM0 12C0 9.15625 1.5 6.53125 4 5.09375C6.46875 3.65625 9.5 3.65625 12 5.09375C14.4688 6.53125 16 9.15625 16 12C16 14.875 14.4688 17.5 12 18.9375C9.5 20.375 6.46875 20.375 4 18.9375C1.5 17.5 0 14.875 0 12ZM8 12.5C8.78125 12.5 9.53125 12.0938 9.9375 11.375C10.3438 10.6875 10.3438 9.84375 9.9375 9.125C9.53125 8.4375 8.78125 8 8 8C7.1875 8 6.4375 8.4375 6.03125 9.125C5.625 9.84375 5.625 10.6875 6.03125 11.375C6.4375 12.0938 7.1875 12.5 8 12.5Z" fill="black" fill-opacity="0.72"/>
</g>
<defs>
<clipPath id="clip0_2556_14582">
<rect width="16" height="24" fill="white"/>
</clipPath>
</defs>
</svg>
