<svg width="30" height="36" viewBox="0 0 30 36" fill="none" xmlns="http://www.w3.org/2000/svg">
<g id="label-paired / xl / box-archive-circle-arrow-down-xl / fill" clip-path="url(#clip0_2556_19769)">
<path id="icon" d="M0 9C0 8.20312 0.65625 7.5 1.5 7.5H22.5C23.2969 7.5 24 8.20312 24 9V10.5C24 11.3438 23.2969 12 22.5 12H1.5C0.65625 12 0 11.3438 0 10.5V9ZM1.5 13.5H22.5V15.0469C18.2812 15.4219 15 18.9844 15 23.25C15 25.2656 15.7031 27.0938 16.875 28.5H4.5C2.8125 28.5 1.5 27.1875 1.5 25.5V13.5ZM7.5 17.25C7.5 17.6719 7.82812 18 8.25 18H15.75C16.125 18 16.5 17.6719 16.5 17.25C16.5 16.875 16.125 16.5 15.75 16.5H8.25C7.82812 16.5 7.5 16.875 7.5 17.25ZM16.5 23.25C16.5 20.8594 17.7656 18.6094 19.875 17.4375C21.9375 16.2188 24.5156 16.2188 26.625 17.4375C28.6875 18.6094 30 20.8594 30 23.25C30 25.6875 28.6875 27.8906 26.625 29.1094C24.5156 30.3281 21.9375 30.3281 19.875 29.1094C17.7656 27.8906 16.5 25.6875 16.5 23.25ZM20.0625 23.1094C19.7812 23.3906 19.7812 23.9062 20.0625 24.1875L22.6875 26.8125C22.9688 27.0938 23.4844 27.0938 23.7656 26.8125L26.3906 24.1875C26.6719 23.9062 26.6719 23.3906 26.3906 23.1094C26.1094 22.8281 25.5938 22.8281 25.3125 23.1094L24 24.4688V20.25C24 19.875 23.625 19.5 23.25 19.5C22.8281 19.5 22.5 19.875 22.5 20.25V24.4688L21.1406 23.1094C20.8594 22.8281 20.3438 22.8281 20.0625 23.1094Z" fill="black" fill-opacity="0.72"/>
</g>
<defs>
<clipPath id="clip0_2556_19769">
<rect width="30" height="36" fill="white"/>
</clipPath>
</defs>
</svg>
