<svg width="14" height="22" viewBox="0 0 14 22" fill="none" xmlns="http://www.w3.org/2000/svg">
<g id="label-paired / sm / thumbs-up-sm / fill" clip-path="url(#clip0_2556_12735)">
<path id="icon" d="M8.55859 4.65234C9.26953 4.81641 9.73438 5.5 9.59766 6.21094L9.51562 6.51172C9.37891 7.25 9.10547 7.93359 8.75 8.5625H12.6875C13.3984 8.5625 14 9.16406 14 9.875C14 10.3945 13.6992 10.832 13.2891 11.0508C13.5898 11.2969 13.7812 11.6523 13.7812 12.0625C13.7812 12.7188 13.3164 13.2383 12.7148 13.375C12.8242 13.5664 12.9062 13.7852 12.9062 14.0312C12.9062 14.6328 12.5234 15.125 11.9766 15.2891C12.0039 15.3711 12.0312 15.4805 12.0312 15.5625C12.0312 16.3008 11.4297 16.875 10.7188 16.875H8.03906C7.51953 16.875 7.02734 16.7383 6.58984 16.4375L5.52344 15.7539C4.8125 15.2617 4.375 14.4414 4.375 13.5664V12.5V11.1875V10.5312C4.375 9.71094 4.73047 8.97266 5.35938 8.48047L5.55078 8.31641C6.26172 7.71484 6.78125 6.92188 6.94531 5.99219L7 5.69141C7.16406 4.98047 7.84766 4.51562 8.55859 4.65234ZM0.875 9H2.625C3.08984 9 3.5 9.41016 3.5 9.875V16C3.5 16.4922 3.08984 16.875 2.625 16.875H0.875C0.382812 16.875 0 16.4922 0 16V9.875C0 9.41016 0.382812 9 0.875 9Z" fill="black" fill-opacity="0.72"/>
</g>
<defs>
<clipPath id="clip0_2556_12735">
<rect width="14" height="22" fill="white"/>
</clipPath>
</defs>
</svg>
