<svg width="12" height="24" viewBox="0 0 12 24" fill="none" xmlns="http://www.w3.org/2000/svg">
<g id="label-paired / md / file-lines-md / bold" clip-path="url(#clip0_3431_907)">
<path id="icon" d="M2 18.5H10C10.25 18.5 10.5 18.2812 10.5 18V9H8C7.4375 9 7 8.5625 7 8V5.5H2C1.71875 5.5 1.5 5.75 1.5 6V18C1.5 18.2812 1.71875 18.5 2 18.5ZM2 4H7.15625C7.6875 4 8.1875 4.21875 8.5625 4.59375L11.4062 7.4375C11.7812 7.8125 12 8.3125 12 8.84375V18C12 19.125 11.0938 20 10 20H2C0.875 20 0 19.125 0 18V6C0 4.90625 0.875 4 2 4ZM3.75 12H8.25C8.65625 12 9 12.3438 9 12.75C9 13.1875 8.65625 13.5 8.25 13.5H3.75C3.3125 13.5 3 13.1875 3 12.75C3 12.3438 3.3125 12 3.75 12ZM3.75 15H8.25C8.65625 15 9 15.3438 9 15.75C9 16.1875 8.65625 16.5 8.25 16.5H3.75C3.3125 16.5 3 16.1875 3 15.75C3 15.3438 3.3125 15 3.75 15Z" fill="black" fill-opacity="0.72"/>
</g>
<defs>
<clipPath id="clip0_3431_907">
<rect width="12" height="24" fill="white"/>
</clipPath>
</defs>
</svg>
