<svg width="14" height="22" viewBox="0 0 14 22" fill="none" xmlns="http://www.w3.org/2000/svg">
<g id="label-paired / sm / chart-candlestick-sm / fill" clip-path="url(#clip0_2556_12405)">
<path id="icon" d="M1.75 5.5V14.6875C1.75 14.9336 1.94141 15.125 2.1875 15.125H13.125C13.5898 15.125 14 15.5352 14 16C14 16.4922 13.5898 16.875 13.125 16.875H2.1875C0.957031 16.875 0 15.918 0 14.6875V5.5C0 5.03516 0.382812 4.625 0.875 4.625C1.33984 4.625 1.75 5.03516 1.75 5.5ZM8.75 5.0625V6.375C9.21484 6.375 9.625 6.78516 9.625 7.25V9.875C9.625 10.3672 9.21484 10.75 8.75 10.75V12.0625C8.75 12.3086 8.53125 12.5 8.3125 12.5C8.06641 12.5 7.875 12.3086 7.875 12.0625V10.75C7.38281 10.75 7 10.3672 7 9.875V7.25C7 6.78516 7.38281 6.375 7.875 6.375V5.0625C7.875 4.84375 8.06641 4.625 8.3125 4.625C8.53125 4.625 8.75 4.84375 8.75 5.0625ZM10.5 9.875C10.5 9.41016 10.8828 9 11.375 9V7.6875C11.375 7.46875 11.5664 7.25 11.8125 7.25C12.0312 7.25 12.25 7.46875 12.25 7.6875V9C12.7148 9 13.125 9.41016 13.125 9.875V11.625C13.125 12.1172 12.7148 12.5 12.25 12.5V13.8125C12.25 14.0586 12.0312 14.25 11.8125 14.25C11.5664 14.25 11.375 14.0586 11.375 13.8125V12.5C10.8828 12.5 10.5 12.1172 10.5 11.625V9.875ZM4.375 7.25V5.9375C4.375 5.71875 4.56641 5.5 4.8125 5.5C5.03125 5.5 5.25 5.71875 5.25 5.9375V7.25C5.71484 7.25 6.125 7.66016 6.125 8.125V11.625C6.125 12.1172 5.71484 12.5 5.25 12.5V13.8125C5.25 14.0586 5.03125 14.25 4.8125 14.25C4.56641 14.25 4.375 14.0586 4.375 13.8125V12.5C3.88281 12.5 3.5 12.1172 3.5 11.625V8.125C3.5 7.66016 3.88281 7.25 4.375 7.25Z" fill="black" fill-opacity="0.72"/>
</g>
<defs>
<clipPath id="clip0_2556_12405">
<rect width="14" height="22" fill="white"/>
</clipPath>
</defs>
</svg>
