<svg width="7" height="22" viewBox="0 0 7 22" fill="none" xmlns="http://www.w3.org/2000/svg">
<g id="label-paired / sm / one-sm / regular" clip-path="url(#clip0_2556_12537)">
<path id="icon" d="M3.9375 5.0625V16H6.5625C6.78125 16 7 16.2188 7 16.4375C7 16.6836 6.78125 16.875 6.5625 16.875H3.5H0.4375C0.191406 16.875 0 16.6836 0 16.4375C0 16.2188 0.191406 16 0.4375 16H3.0625V5.88281L1.09375 7.19531C0.902344 7.33203 0.628906 7.27734 0.492188 7.05859C0.355469 6.86719 0.410156 6.59375 0.628906 6.45703L3.25391 4.70703C3.39062 4.625 3.55469 4.625 3.69141 4.67969C3.82812 4.76172 3.9375 4.92578 3.9375 5.0625Z" fill="black" fill-opacity="0.72"/>
</g>
<defs>
<clipPath id="clip0_2556_12537">
<rect width="7" height="22" fill="white"/>
</clipPath>
</defs>
</svg>
