<svg width="12" height="18" viewBox="0 0 12 18" fill="none" xmlns="http://www.w3.org/2000/svg">
<g id="label-paired / caption / right-to-bracket-caption / regular" clip-path="url(#clip0_2556_10475)">
<path id="icon" d="M7.47656 9.54688C7.47656 9.54688 7.5 9.52344 7.5 9.5L7.47656 9.47656L4.38281 6.54688C4.35938 6.52344 4.3125 6.5 4.26562 6.5C4.19531 6.5 4.125 6.57031 4.125 6.66406V8C4.125 8.21094 3.9375 8.375 3.75 8.375H0.9375C0.820312 8.375 0.75 8.46875 0.75 8.5625V10.4375C0.75 10.5547 0.820312 10.625 0.9375 10.625H3.75C3.9375 10.625 4.125 10.8125 4.125 11V12.3594C4.125 12.4297 4.19531 12.5 4.26562 12.5C4.3125 12.5 4.35938 12.5 4.38281 12.4766L7.47656 9.54688ZM8.25 9.5C8.25 9.73438 8.15625 9.94531 7.99219 10.1094L4.89844 13.0156C4.73438 13.1797 4.5 13.25 4.26562 13.25C3.77344 13.25 3.375 12.8516 3.375 12.3594V11.375H0.9375C0.398438 11.375 0 10.9766 0 10.4375V8.5625C0 8.04688 0.398438 7.625 0.9375 7.625H3.375V6.66406C3.375 6.17188 3.77344 5.75 4.26562 5.75C4.5 5.75 4.73438 5.84375 4.89844 6.00781L7.99219 8.91406C8.15625 9.07812 8.25 9.28906 8.25 9.5ZM7.875 14H10.125C10.7344 14 11.25 13.5078 11.25 12.875V6.125C11.25 5.51562 10.7344 5 10.125 5H7.875C7.66406 5 7.5 4.83594 7.5 4.625C7.5 4.4375 7.66406 4.25 7.875 4.25H10.125C11.1562 4.25 12 5.09375 12 6.125V12.875C12 13.9297 11.1562 14.75 10.125 14.75H7.875C7.66406 14.75 7.5 14.5859 7.5 14.375C7.5 14.1875 7.66406 14 7.875 14Z" fill="black" fill-opacity="0.72"/>
</g>
<defs>
<clipPath id="clip0_2556_10475">
<rect width="12" height="18" fill="white"/>
</clipPath>
</defs>
</svg>
