<svg width="24" height="36" viewBox="0 0 24 36" fill="none" xmlns="http://www.w3.org/2000/svg">
<g id="label-paired / xl / clapperboard-play-xl / regular" clip-path="url(#clip0_3431_1038)">
<path id="icon" d="M22.5 15H1.5V25.5C1.5 26.3438 2.15625 27 3 27H21C21.7969 27 22.5 26.3438 22.5 25.5V15ZM22.5 13.5V10.5C22.5 10.0781 22.3125 9.70312 21.9844 9.42188L17.9062 13.5H22.5ZM10.7812 13.5H15.7969L20.2969 9H15.2812L10.7812 13.5ZM8.67188 13.5L13.1719 9H8.15625L3.65625 13.5H8.67188ZM3 9C2.15625 9 1.5 9.70312 1.5 10.5V13.5H1.54688L6.04688 9H3ZM24 13.5V14.25V15V25.5C24 27.1875 22.6406 28.5 21 28.5H3C1.3125 28.5 0 27.1875 0 25.5V15V14.25V13.5V10.5C0 8.85938 1.3125 7.5 3 7.5H21C22.6406 7.5 24 8.85938 24 10.5V13.5ZM10.125 16.6406L16.5 20.3906C16.7344 20.5312 16.875 20.7656 16.875 21C16.875 21.2812 16.7344 21.5156 16.5 21.6562L10.125 25.4062C9.89062 25.5469 9.60938 25.5469 9.375 25.4062C9.14062 25.2656 8.95312 25.0312 8.95312 24.75V17.25C8.95312 17.0156 9.14062 16.7344 9.375 16.6406C9.60938 16.5 9.89062 16.5 10.125 16.6406ZM14.625 21L10.5 18.5625V23.4375L14.625 21Z" fill="black" fill-opacity="0.72"/>
</g>
<defs>
<clipPath id="clip0_3431_1038">
<rect width="24" height="36" fill="white"/>
</clipPath>
</defs>
</svg>
