<svg width="21" height="36" viewBox="0 0 21 36" fill="none" xmlns="http://www.w3.org/2000/svg">
<g id="label-paired / xl / memo-pad-xl / bold" clip-path="url(#clip0_2981_852)">
<path id="icon" d="M18.75 12H2.25V27C2.25 27.4219 2.57812 27.75 3 27.75H18C18.375 27.75 18.75 27.4219 18.75 27V12ZM3 6H18C19.6406 6 21 7.35938 21 9V27C21 28.6875 19.6406 30 18 30H3C1.3125 30 0 28.6875 0 27V9C0 7.35938 1.3125 6 3 6ZM4.5 15.375C4.5 14.7656 4.96875 14.25 5.625 14.25H15.375C15.9844 14.25 16.5 14.7656 16.5 15.375C16.5 16.0312 15.9844 16.5 15.375 16.5H5.625C4.96875 16.5 4.5 16.0312 4.5 15.375ZM4.5 19.875C4.5 19.2656 4.96875 18.75 5.625 18.75H15.375C15.9844 18.75 16.5 19.2656 16.5 19.875C16.5 20.5312 15.9844 21 15.375 21H5.625C4.96875 21 4.5 20.5312 4.5 19.875ZM4.5 24.375C4.5 23.7656 4.96875 23.25 5.625 23.25H10.875C11.4844 23.25 12 23.7656 12 24.375C12 25.0312 11.4844 25.5 10.875 25.5H5.625C4.96875 25.5 4.5 25.0312 4.5 24.375Z" fill="black" fill-opacity="0.72"/>
</g>
<defs>
<clipPath id="clip0_2981_852">
<rect width="21" height="36" fill="white"/>
</clipPath>
</defs>
</svg>
