<svg width="20" height="24" viewBox="0 0 20 24" fill="none" xmlns="http://www.w3.org/2000/svg">
<g id="label-paired / md / graduation-cap-md / regular" clip-path="url(#clip0_4124_435)">
<path id="icon" d="M9.59375 6.09375L1.46875 9L3.78125 9.84375C4.09375 9.625 4.46875 9.46875 4.84375 9.3125L9.8125 7.4375C10.0625 7.34375 10.3438 7.46875 10.4688 7.75C10.5625 8 10.4062 8.28125 10.1562 8.375L5.1875 10.25C5.125 10.2812 5.09375 10.2812 5.03125 10.3125L9.59375 11.9375C9.71875 12 9.84375 12 10 12C10.125 12 10.25 12 10.375 11.9375L18.5 9L10.375 6.09375C10.25 6.03125 10.125 6 10 6C9.84375 6 9.71875 6.03125 9.59375 6.09375ZM9.25 12.875L3.9375 10.9688C3.09375 11.6875 2.5625 12.75 2.5 13.9062C2.6875 14.3438 2.8125 14.7812 2.90625 15.2188C3.125 16.0625 3.25 17.2812 2.96875 18.625C2.9375 18.75 2.875 18.875 2.75 18.9375C2.625 19 2.5 19.0312 2.375 19L0.375 18.5C0.21875 18.4688 0.0625 18.3438 0.03125 18.1875C-0.03125 18.0312 0 17.8438 0.09375 17.7188C0.34375 17.3438 0.59375 16.9375 0.78125 16.5312C1.15625 15.8125 1.5 14.9062 1.5 14V13.9688C1.53125 12.6875 2.0625 11.5 2.90625 10.5938L0.46875 9.71875C0.1875 9.625 0 9.34375 0 9C0 8.6875 0.1875 8.40625 0.46875 8.3125L9.25 5.15625C9.46875 5.0625 9.71875 5 10 5C10.25 5 10.5 5.0625 10.7188 5.15625L19.5 8.3125C19.7812 8.40625 20 8.6875 20 9C20 9.34375 19.7812 9.625 19.5 9.71875L10.7188 12.875C10.5 12.9688 10.25 13 10 13C9.71875 13 9.46875 12.9688 9.25 12.875ZM5.4375 12.5625L5 16.7188C5.03125 16.75 5.0625 16.7812 5.125 16.8125C5.3125 17 5.625 17.1875 6.125 17.375C7.0625 17.75 8.4375 18 10 18C11.5312 18 12.9062 17.75 13.875 17.375C14.3438 17.1875 14.6562 17 14.875 16.8125C14.9062 16.7812 14.9688 16.75 14.9688 16.7188L14.5312 12.5625L15.5 12.2188L16 16.75C16 17.875 13.3125 19 10 19C6.6875 19 4 17.875 4 16.75L4.46875 12.2188L5.4375 12.5625ZM15 16.6562C15 16.6562 15 16.6562 15 16.6875C15 16.6562 15 16.6562 15 16.6562ZM4.96875 16.6562C4.96875 16.6562 4.96875 16.6562 4.96875 16.6875C4.96875 16.6562 4.96875 16.6562 4.96875 16.6562ZM2.09375 17.9062C2.15625 17.25 2.125 16.6562 2.0625 16.125C1.9375 16.4375 1.8125 16.7188 1.6875 17C1.5625 17.2188 1.4375 17.4688 1.28125 17.6875L2.09375 17.9062Z" fill="black" fill-opacity="0.72"/>
</g>
<defs>
<clipPath id="clip0_4124_435">
<rect width="20" height="24" fill="white"/>
</clipPath>
</defs>
</svg>
