<svg width="18" height="30" viewBox="0 0 18 30" fill="none" xmlns="http://www.w3.org/2000/svg">
<g id="label-paired / lg / calendar-lg / regular" clip-path="url(#clip0_2556_17400)">
<path id="icon" d="M4.625 5.5C4.9375 5.5 5.25 5.8125 5.25 6.125V8H12.75V6.125C12.75 5.8125 13.0234 5.5 13.375 5.5C13.6875 5.5 14 5.8125 14 6.125V8H15.25C16.6172 8 17.75 9.13281 17.75 10.5V11.75V13V23C17.75 24.4062 16.6172 25.5 15.25 25.5H2.75C1.34375 25.5 0.25 24.4062 0.25 23V13V11.75V10.5C0.25 9.13281 1.34375 8 2.75 8H4V6.125C4 5.8125 4.27344 5.5 4.625 5.5ZM16.5 13H1.5V23C1.5 23.7031 2.04688 24.25 2.75 24.25H15.25C15.9141 24.25 16.5 23.7031 16.5 23V13ZM15.25 9.25H2.75C2.04688 9.25 1.5 9.83594 1.5 10.5V11.75H16.5V10.5C16.5 9.83594 15.9141 9.25 15.25 9.25Z" fill="black" fill-opacity="0.72"/>
</g>
<defs>
<clipPath id="clip0_2556_17400">
<rect width="18" height="30" fill="white"/>
</clipPath>
</defs>
</svg>
