<svg width="16" height="24" viewBox="0 0 16 24" fill="none" xmlns="http://www.w3.org/2000/svg">
<g id="label-paired / md / bullhorn-md / regular" clip-path="url(#clip0_2556_15041)">
<path id="icon" d="M13 5.40625C13 5.15625 12.7188 5.0625 12.5625 5.21875L11.8125 6C10.5 7.375 8.8125 8.34375 7 8.75V14.2812C8.8125 14.6875 10.5 15.625 11.8125 17.0312L12.5625 17.8125C12.7188 17.9688 13 17.8438 13 17.625V5.40625ZM6 14.125V8.90625C5.8125 8.9375 5.625 8.9375 5.4375 8.96875L4.5 9H2C1.4375 9 1 9.46875 1 10V13C1 13.5625 1.4375 14 2 14H4.5L5.4375 14.0625C5.625 14.0625 5.8125 14.0938 6 14.125ZM11.8438 4.53125C12.5938 3.71875 14 4.25 14 5.40625V17.625C14 18.75 12.5938 19.3125 11.8438 18.5L11.0938 17.7188C9.71875 16.2812 7.9375 15.375 6 15.125V18.25C6 19.2188 5.21875 20 4.25 20H3.75C2.78125 20 2 19.2188 2 18.25V15C0.875 15 0 14.125 0 13V10C0 8.90625 0.875 8 2 8H4.46875L5.375 7.96875C7.5625 7.84375 9.59375 6.90625 11.0938 5.3125L11.8438 4.53125ZM3 15V18.25C3 18.6875 3.3125 19 3.75 19H4.25C4.65625 19 5 18.6875 5 18.25V15.0312L4.46875 15H3ZM15.5 10C15.75 10 16 10.25 16 10.5V12.5C16 12.7812 15.75 13 15.5 13C15.2188 13 15 12.7812 15 12.5V10.5C15 10.25 15.2188 10 15.5 10Z" fill="black" fill-opacity="0.72"/>
</g>
<defs>
<clipPath id="clip0_2556_15041">
<rect width="16" height="24" fill="white"/>
</clipPath>
</defs>
</svg>
