<svg width="24" height="36" viewBox="0 0 24 36" fill="none" xmlns="http://www.w3.org/2000/svg">
<g id="label-paired / xl / message-lines-xl / bold" clip-path="url(#clip0_2981_873)">
<path id="icon" d="M9.75 25.5V26.25L13.125 23.7188C13.5 23.4375 13.9688 23.25 14.4844 23.25H21C21.375 23.25 21.75 22.9219 21.75 22.5V9C21.75 8.625 21.375 8.25 21 8.25H3C2.57812 8.25 2.25 8.625 2.25 9V22.5C2.25 22.9219 2.57812 23.25 3 23.25H7.5C8.71875 23.25 9.75 24.2812 9.75 25.5ZM9.70312 29.1094L9.46875 29.25L8.67188 29.8594C8.4375 30.0469 8.15625 30.0469 7.875 29.9531C7.64062 29.8125 7.5 29.5781 7.5 29.25V28.2656V27.9844V27.9375V27.75V25.5H5.25H3C1.3125 25.5 0 24.1875 0 22.5V9C0 7.35938 1.3125 6 3 6H21C22.6406 6 24 7.35938 24 9V22.5C24 24.1875 22.6406 25.5 21 25.5H14.4844L9.75 29.0625L9.70312 29.1094ZM7.125 12.75H16.875C17.4844 12.75 18 13.2656 18 13.875C18 14.5312 17.4844 15 16.875 15H7.125C6.46875 15 6 14.5312 6 13.875C6 13.2656 6.46875 12.75 7.125 12.75ZM7.125 17.25H12.375C12.9844 17.25 13.5 17.7656 13.5 18.375C13.5 19.0312 12.9844 19.5 12.375 19.5H7.125C6.46875 19.5 6 19.0312 6 18.375C6 17.7656 6.46875 17.25 7.125 17.25Z" fill="black" fill-opacity="0.72"/>
</g>
<defs>
<clipPath id="clip0_2981_873">
<rect width="24" height="36" fill="white"/>
</clipPath>
</defs>
</svg>
