<svg width="18" height="36" viewBox="0 0 18 36" fill="none" xmlns="http://www.w3.org/2000/svg">
<g id="label-paired / xl / arrow-down-to-line-xl / fill" clip-path="url(#clip0_2556_19795)">
<path id="icon" d="M1.5 28.5C0.65625 28.5 0 27.8438 0 27C0 26.2031 0.65625 25.5 1.5 25.5H16.5C17.2969 25.5 18 26.2031 18 27C18 27.8438 17.2969 28.5 16.5 28.5H1.5ZM10.0312 22.0781C9.46875 22.6875 8.48438 22.6875 7.92188 22.0781L1.92188 16.0781C1.3125 15.5156 1.3125 14.5312 1.92188 13.9688C2.48438 13.3594 3.46875 13.3594 4.03125 13.9688L7.5 17.3906V9C7.5 8.20312 8.15625 7.5 9 7.5C9.79688 7.5 10.5 8.20312 10.5 9V17.3906L13.9219 13.9688C14.4844 13.3594 15.4688 13.3594 16.0312 13.9688C16.6406 14.5312 16.6406 15.5156 16.0312 16.0781L10.0312 22.0781Z" fill="black" fill-opacity="0.72"/>
</g>
<defs>
<clipPath id="clip0_2556_19795">
<rect width="18" height="36" fill="white"/>
</clipPath>
</defs>
</svg>
