<svg width="20" height="30" viewBox="0 0 20 30" fill="none" xmlns="http://www.w3.org/2000/svg">
<g id="label-paired / lg / circle-three-lg / fill" clip-path="url(#clip0_2556_17303)">
<path id="icon" d="M10 25.5C6.40625 25.5 3.125 23.625 1.32812 20.5C-0.46875 17.4141 -0.46875 13.625 1.32812 10.5C3.125 7.41406 6.40625 5.5 10 5.5C13.5547 5.5 16.8359 7.41406 18.6328 10.5C20.4297 13.625 20.4297 17.4141 18.6328 20.5C16.8359 23.625 13.5547 25.5 10 25.5ZM7.1875 10.5C6.64062 10.5 6.25 10.9297 6.25 11.4375C6.25 11.9844 6.64062 12.375 7.1875 12.375H9.76562L7.77344 14.2109C7.5 14.4453 7.38281 14.875 7.53906 15.2266C7.69531 15.5781 8.04688 15.8125 8.4375 15.8125H10.4297C11.2109 15.8125 11.8359 16.4375 11.8359 17.2188C11.8359 18 11.2109 18.625 10.4297 18.625H9.33594C8.82812 18.625 8.35938 18.3906 8.04688 17.9219L7.96875 17.7656C7.69531 17.3359 7.10938 17.1797 6.67969 17.4531C6.25 17.7266 6.09375 18.3125 6.36719 18.7422L6.48438 18.8984C7.07031 19.9141 8.16406 20.5 9.375 20.5H10.4297C12.2656 20.5 13.75 19.0547 13.75 17.2188C13.75 15.5391 12.4609 14.1328 10.8203 13.9766L12.8125 12.1406C13.0859 11.8672 13.2031 11.4766 13.0469 11.125C12.8906 10.7734 12.5391 10.5 12.1875 10.5H7.1875Z" fill="black" fill-opacity="0.72"/>
</g>
<defs>
<clipPath id="clip0_2556_17303">
<rect width="20" height="30" fill="white"/>
</clipPath>
</defs>
</svg>
