<svg width="30" height="36" viewBox="0 0 30 36" fill="none" xmlns="http://www.w3.org/2000/svg">
<g id="label-paired / xl / person-chalkboard-xl / regular" clip-path="url(#clip0_2556_19455)">
<path id="icon" d="M7.875 8.625C7.875 9.28125 8.34375 9.75 9 9.75C9.60938 9.75 10.125 9.28125 10.125 8.625C10.125 8.01562 9.60938 7.5 9 7.5C8.34375 7.5 7.875 8.01562 7.875 8.625ZM11.625 8.625C11.625 9.60938 11.1094 10.4531 10.3125 10.9219C9.46875 11.3906 8.48438 11.3906 7.6875 10.9219C6.84375 10.4531 6.375 9.60938 6.375 8.625C6.375 7.6875 6.84375 6.84375 7.6875 6.375C8.48438 5.90625 9.46875 5.90625 10.3125 6.375C11.1094 6.84375 11.625 7.6875 11.625 8.625ZM8.39062 13.5C8.0625 13.5 7.78125 13.5938 7.5 13.6875V21H10.5V13.5H8.39062ZM7.5 29.25C7.5 29.6719 7.125 30 6.75 30C6.32812 30 6 29.6719 6 29.25V15.5156L3.65625 19.875C3.46875 20.25 3 20.3906 2.625 20.2031C2.25 19.9688 2.10938 19.5469 2.29688 19.1719L5.0625 14.0156C5.71875 12.7969 6.98438 12 8.39062 12H11.3906H15V8.25C15 7.03125 15.9844 6 17.25 6H27.75C28.9688 6 30 7.03125 30 8.25V18.75C30 20.0156 28.9688 21 27.75 21H17.25C15.9844 21 15 20.0156 15 18.75V15H16.5V18.75C16.5 19.1719 16.8281 19.5 17.25 19.5H27.75C28.125 19.5 28.5 19.1719 28.5 18.75V8.25C28.5 7.875 28.125 7.5 27.75 7.5H17.25C16.8281 7.5 16.5 7.875 16.5 8.25V12H18.75C19.125 12 19.5 12.375 19.5 12.75C19.5 13.1719 19.125 13.5 18.75 13.5H12V29.25C12 29.6719 11.625 30 11.25 30C10.8281 30 10.5 29.6719 10.5 29.25V22.5H7.5V29.25Z" fill="black" fill-opacity="0.72"/>
</g>
<defs>
<clipPath id="clip0_2556_19455">
<rect width="30" height="36" fill="white"/>
</clipPath>
</defs>
</svg>
