<svg width="18" height="22" viewBox="0 0 18 22" fill="none" xmlns="http://www.w3.org/2000/svg">
<g id="label-paired / sm / hand-gesture-swipe-left-right-sm / bold" clip-path="url(#clip0_3546_620)">
<path id="icon" d="M9 6.56641C9.60156 6.56641 10.0938 7.05859 10.0938 7.66016V9.30078C10.1211 9.30078 10.1758 9.30078 10.2305 9.30078C10.6406 9.30078 10.9961 9.54688 11.1875 9.875C11.2695 9.84766 11.3516 9.84766 11.4609 9.84766C11.8438 9.84766 12.1992 10.0938 12.3906 10.3945C12.4453 10.3945 12.5 10.3945 12.5547 10.3945C13.1562 10.3945 13.6484 10.8867 13.6484 11.4883V13.2656C13.6484 14.4141 12.7188 15.3164 11.5977 15.3164H9.4375C8.97266 15.3164 8.53516 15.1797 8.125 14.9609L8.07031 14.9336C7.27734 14.4688 6.8125 13.6211 6.8125 12.6914V12.5273C6.8125 12.0898 6.97656 11.6797 7.27734 11.4062L7.63281 11.0781C7.71484 11.0234 7.79688 10.9414 7.90625 10.8867V7.66016C7.90625 7.05859 8.37109 6.56641 9 6.56641ZM8.72656 7.66016V12.4453C8.72656 12.582 8.58984 12.7188 8.45312 12.7188C8.28906 12.7188 8.17969 12.582 8.17969 12.4453V11.7344L7.85156 12.0078C7.6875 12.1445 7.63281 12.3086 7.63281 12.5273V12.6914C7.63281 13.3203 7.96094 13.9219 8.50781 14.2227L8.53516 14.25C8.80859 14.4141 9.13672 14.4961 9.4375 14.4961H11.5977C12.2539 14.4961 12.8281 13.9492 12.8281 13.2656V11.4883C12.8281 11.3516 12.6914 11.2148 12.5547 11.2148C12.4727 11.2148 12.418 11.2422 12.3633 11.2695C12.2539 11.3516 12.0898 11.3789 11.9531 11.3242C11.8164 11.2422 11.7344 11.1055 11.7344 10.9688C11.7344 10.8047 11.5977 10.6953 11.4609 10.6953C11.3516 10.6953 11.2969 10.7227 11.2422 10.7773C11.1328 10.9141 10.9414 10.9961 10.7773 10.9141C10.6133 10.8594 10.5039 10.7227 10.5039 10.5586V10.4219C10.5039 10.2578 10.3672 10.1484 10.2305 10.1484C10.1211 10.1484 10.0664 10.1758 10.0117 10.2305C9.90234 10.3672 9.71094 10.4492 9.54688 10.3672C9.38281 10.3125 9.27344 10.1758 9.27344 9.98438V7.66016C9.27344 7.52344 9.13672 7.38672 9 7.38672C8.83594 7.38672 8.72656 7.52344 8.72656 7.66016ZM13.5391 9.27344L15.0156 7.79688C15.1797 7.63281 15.1797 7.38672 15.0156 7.25L13.457 5.66406C13.293 5.52734 13.0469 5.52734 12.8828 5.66406C12.7461 5.82812 12.7461 6.07422 12.8828 6.23828L13.7852 7.11328H11.1328C10.9141 7.11328 10.75 7.30469 10.75 7.52344C10.75 7.74219 10.9141 7.90625 11.1328 7.90625H13.7852L12.9922 8.69922C12.8281 8.86328 12.8281 9.10938 12.9922 9.27344C13.1562 9.41016 13.4023 9.41016 13.5391 9.27344ZM4.43359 9.27344L2.98438 7.79688C2.82031 7.63281 2.82031 7.38672 2.98438 7.25L4.54297 5.66406C4.70703 5.52734 4.95312 5.52734 5.08984 5.66406C5.25391 5.82812 5.25391 6.07422 5.08984 6.23828L4.21484 7.11328H6.86719C7.08594 7.11328 7.25 7.30469 7.25 7.52344C7.25 7.74219 7.08594 7.90625 6.86719 7.90625H4.21484L5.00781 8.69922C5.14453 8.86328 5.14453 9.10938 5.00781 9.27344C4.84375 9.41016 4.59766 9.41016 4.43359 9.27344Z" fill="black" fill-opacity="0.72"/>
</g>
<defs>
<clipPath id="clip0_3546_620">
<rect width="18" height="22" fill="white"/>
</clipPath>
</defs>
</svg>
