<svg width="14" height="22" viewBox="0 0 14 22" fill="none" xmlns="http://www.w3.org/2000/svg">
<g id="label-paired / sm / table-layout-sm / bold" clip-path="url(#clip0_2556_12438)">
<path id="icon" d="M12.25 5.9375H1.75C1.50391 5.9375 1.3125 6.15625 1.3125 6.375V8.125H12.6875V6.375C12.6875 6.15625 12.4688 5.9375 12.25 5.9375ZM1.3125 15.125C1.3125 15.3711 1.50391 15.5625 1.75 15.5625H3.9375V9.4375H1.3125V15.125ZM5.25 15.5625H12.25C12.4688 15.5625 12.6875 15.3711 12.6875 15.125V9.4375H5.25V15.5625ZM1.75 4.625H12.25C13.207 4.625 14 5.41797 14 6.375V15.125C14 16.1094 13.207 16.875 12.25 16.875H1.75C0.765625 16.875 0 16.1094 0 15.125V6.375C0 5.41797 0.765625 4.625 1.75 4.625Z" fill="black" fill-opacity="0.72"/>
</g>
<defs>
<clipPath id="clip0_2556_12438">
<rect width="14" height="22" fill="white"/>
</clipPath>
</defs>
</svg>
