<svg width="16" height="22" viewBox="0 0 16 22" fill="none" xmlns="http://www.w3.org/2000/svg">
<g id="label-paired / sm / arrow-down-one-nine-sm / regular" clip-path="url(#clip0_2556_12683)">
<path id="icon" d="M12.375 5.0625V9H13.25C13.4688 9 13.6875 9.21875 13.6875 9.4375C13.6875 9.68359 13.4688 9.875 13.25 9.875H11.9375H10.625C10.3789 9.875 10.1875 9.68359 10.1875 9.4375C10.1875 9.21875 10.3789 9 10.625 9H11.5V5.69141L10.7617 5.9375C10.5156 5.99219 10.2695 5.88281 10.1875 5.66406C10.1328 5.41797 10.2422 5.17188 10.4883 5.08984L11.8008 4.65234C11.9102 4.625 12.0742 4.65234 12.1836 4.73438C12.293 4.81641 12.375 4.92578 12.375 5.08984V5.0625ZM4.80078 16.7656C4.63672 16.9297 4.33594 16.9297 4.17188 16.7656L1.54688 14.1406C1.38281 13.9766 1.38281 13.6758 1.54688 13.5117C1.71094 13.3477 2.01172 13.3477 2.17578 13.5117L4.0625 15.3984V5.0625C4.0625 4.84375 4.25391 4.625 4.5 4.625C4.71875 4.625 4.9375 4.84375 4.9375 5.0625V15.3984L6.79688 13.5117C6.96094 13.3477 7.26172 13.3477 7.42578 13.5117C7.58984 13.6758 7.58984 13.9766 7.42578 14.1406L4.80078 16.7656ZM11.8281 11.625C11.3086 11.625 10.8438 11.8984 10.5703 12.3359C10.3242 12.8008 10.3242 13.3203 10.5703 13.7578C10.8438 14.2227 11.3086 14.4688 11.8281 14.4688C12.3203 14.4688 12.7852 14.2227 13.0586 13.7578C13.3047 13.3203 13.3047 12.8008 13.0586 12.3359C12.7852 11.8984 12.3203 11.625 11.8281 11.625ZM9.53125 13.0469C9.53125 11.7891 10.543 10.75 11.8281 10.75C13.0859 10.75 14.125 11.7891 14.125 13.0469C14.125 13.1016 14.125 13.1289 14.0977 13.1562H14.125C14.125 13.7578 13.9062 14.3047 13.5234 14.7422L11.8281 16.7383C11.6641 16.9297 11.3906 16.9297 11.1992 16.793C11.0078 16.6289 11.0078 16.3555 11.1445 16.1641L11.8555 15.3438C11.8281 15.3438 11.8281 15.3438 11.8281 15.3438C10.543 15.3438 9.53125 14.332 9.53125 13.0469Z" fill="black" fill-opacity="0.72"/>
</g>
<defs>
<clipPath id="clip0_2556_12683">
<rect width="16" height="22" fill="white"/>
</clipPath>
</defs>
</svg>
