<svg width="14" height="22" viewBox="0 0 14 22" fill="none" xmlns="http://www.w3.org/2000/svg">
<g id="label-paired / sm / circle-six-sm / regular" clip-path="url(#clip0_2556_12455)">
<path id="icon" d="M7 4.625C4.78516 4.625 2.78906 5.80078 1.69531 7.6875C0.574219 9.60156 0.574219 11.9258 1.69531 13.8125C2.78906 15.7266 4.78516 16.875 7 16.875C9.1875 16.875 11.1836 15.7266 12.2773 13.8125C13.3984 11.9258 13.3984 9.60156 12.2773 7.6875C11.1836 5.80078 9.1875 4.625 7 4.625ZM7 17.75C4.48438 17.75 2.1875 16.4375 0.929688 14.25C-0.328125 12.0898 -0.328125 9.4375 0.929688 7.25C2.1875 5.08984 4.48438 3.75 7 3.75C9.48828 3.75 11.7852 5.08984 13.043 7.25C14.3008 9.4375 14.3008 12.0898 13.043 14.25C11.7852 16.4375 9.48828 17.75 7 17.75ZM8.17578 7.41406C8.33984 7.57812 8.33984 7.85156 8.14844 8.01562L7.08203 9.02734C8.50391 9.05469 9.625 10.2305 9.625 11.625C9.625 13.0742 8.44922 14.25 7 14.25C5.55078 14.25 4.375 13.0742 4.375 11.625C4.375 10.832 4.70312 10.0391 5.30469 9.49219L7.57422 7.38672C7.73828 7.22266 8.01172 7.22266 8.17578 7.41406ZM7 9.875C6.37109 9.875 5.79688 10.2305 5.46875 10.75C5.16797 11.2969 5.16797 11.9805 5.46875 12.5C5.79688 13.0469 6.37109 13.375 7 13.375C7.60156 13.375 8.17578 13.0469 8.50391 12.5C8.80469 11.9805 8.80469 11.2969 8.50391 10.75C8.17578 10.2305 7.60156 9.875 7 9.875Z" fill="black" fill-opacity="0.72"/>
</g>
<defs>
<clipPath id="clip0_2556_12455">
<rect width="14" height="22" fill="white"/>
</clipPath>
</defs>
</svg>
