<svg width="16" height="24" viewBox="0 0 16 24" fill="none" xmlns="http://www.w3.org/2000/svg">
<g id="label-paired / md / circle-star-md / fill" clip-path="url(#clip0_2556_15174)">
<path id="icon" d="M0 12C0 9.15625 1.5 6.53125 4 5.09375C6.46875 3.65625 9.5 3.65625 12 5.09375C14.4688 6.53125 16 9.15625 16 12C16 14.875 14.4688 17.5 12 18.9375C9.5 20.375 6.46875 20.375 4 18.9375C1.5 17.5 0 14.875 0 12ZM8 7.25C7.78125 7.25 7.625 7.375 7.53125 7.53125L6.40625 9.84375L3.875 10.2188C3.6875 10.2188 3.53125 10.375 3.46875 10.5312C3.40625 10.7188 3.46875 10.9375 3.59375 11.0625L5.4375 12.8438L5 15.375C4.96875 15.5625 5.03125 15.75 5.1875 15.8438C5.34375 15.9688 5.5625 15.9688 5.71875 15.9062L8 14.7188L10.25 15.9062C10.4062 15.9688 10.625 15.9688 10.7812 15.8438C10.9375 15.75 11 15.5625 10.9688 15.375L10.5625 12.8438L12.375 11.0625C12.5312 10.9375 12.5625 10.7188 12.5 10.5625C12.4375 10.375 12.2812 10.25 12.0938 10.2188L9.5625 9.84375L8.4375 7.53125C8.34375 7.375 8.1875 7.28125 8 7.28125V7.25Z" fill="black" fill-opacity="0.72"/>
</g>
<defs>
<clipPath id="clip0_2556_15174">
<rect width="16" height="24" fill="white"/>
</clipPath>
</defs>
</svg>
