<svg width="16" height="24" viewBox="0 0 16 24" fill="none" xmlns="http://www.w3.org/2000/svg">
<g id="label-paired / md / pen-circle-md / regular" clip-path="url(#clip0_2556_14721)">
<path id="icon" d="M15 12C15 9.5 13.6562 7.21875 11.5 5.96875C9.3125 4.6875 6.65625 4.6875 4.5 5.96875C2.3125 7.21875 1 9.5 1 12C1 14.5312 2.3125 16.8125 4.5 18.0625C6.65625 19.3438 9.3125 19.3438 11.5 18.0625C13.6562 16.8125 15 14.5312 15 12ZM0 12C0 9.15625 1.5 6.53125 4 5.09375C6.46875 3.65625 9.5 3.65625 12 5.09375C14.4688 6.53125 16 9.15625 16 12C16 14.875 14.4688 17.5 12 18.9375C9.5 20.375 6.46875 20.375 4 18.9375C1.5 17.5 0 14.875 0 12ZM10.3438 9.125C10.1562 8.9375 9.84375 8.9375 9.625 9.125L8.96875 9.78125L10.2188 11.0312L10.875 10.375C11.0938 10.1875 11.0938 9.84375 10.875 9.65625L10.3438 9.125ZM5.6875 13.0625C5.625 13.125 5.59375 13.2188 5.5625 13.3125L5.1875 14.8438L6.71875 14.4375C6.78125 14.4375 6.875 14.375 6.9375 14.3125L9.5 11.75L8.25 10.5L5.6875 13.0625ZM8.9375 8.40625C9.53125 7.8125 10.4688 7.8125 11.0625 8.40625L11.5938 8.96875C12.1875 9.53125 12.1875 10.5 11.5938 11.0625L7.65625 15.0312C7.4375 15.2188 7.21875 15.3438 6.9375 15.4062L4.59375 16C4.4375 16.0312 4.25 16 4.125 15.875C4 15.75 3.96875 15.5625 4 15.4062L4.59375 13.0625C4.65625 12.7812 4.78125 12.5625 4.96875 12.3438L8.9375 8.40625Z" fill="black" fill-opacity="0.72"/>
</g>
<defs>
<clipPath id="clip0_2556_14721">
<rect width="16" height="24" fill="white"/>
</clipPath>
</defs>
</svg>
