<svg width="14" height="18" viewBox="0 0 14 18" fill="none" xmlns="http://www.w3.org/2000/svg">
<g id="label-paired / caption / arrow-up-arrow-down-caption / bold" clip-path="url(#clip0_2556_10301)">
<path id="icon" d="M12.6484 12.3359L10.3984 14.5859C10.1641 14.8203 9.8125 14.8203 9.60156 14.5859L7.35156 12.3359C7.11719 12.125 7.11719 11.7734 7.35156 11.5625C7.5625 11.3281 7.91406 11.3281 8.14844 11.5625L9.4375 12.8516V4.8125C9.4375 4.50781 9.67188 4.25 10 4.25C10.3047 4.25 10.5625 4.50781 10.5625 4.8125V12.8516L11.8516 11.5625C12.0625 11.3281 12.4141 11.3281 12.6484 11.5625C12.8594 11.7734 12.8594 12.125 12.6484 12.3359ZM4.39844 4.41406L6.625 6.66406C6.85938 6.89844 6.85938 7.25 6.625 7.46094C6.41406 7.69531 6.0625 7.69531 5.82812 7.46094L4.53906 6.17188V14.1875C4.53906 14.5156 4.30469 14.75 3.97656 14.75C3.67188 14.75 3.41406 14.5156 3.41406 14.1875V6.17188L2.125 7.46094C1.91406 7.69531 1.5625 7.69531 1.35156 7.46094C1.11719 7.25 1.11719 6.89844 1.35156 6.66406L3.60156 4.41406C3.8125 4.20312 4.16406 4.20312 4.39844 4.41406Z" fill="black" fill-opacity="0.72"/>
</g>
<defs>
<clipPath id="clip0_2556_10301">
<rect width="14" height="18" fill="white"/>
</clipPath>
</defs>
</svg>
