<svg width="24" height="36" viewBox="0 0 24 36" fill="none" xmlns="http://www.w3.org/2000/svg">
<g id="label-paired / xl / arrow-up-right-from-square-xl / regular" clip-path="url(#clip0_2556_19837)">
<path id="icon" d="M15.75 6H23.25C23.625 6 24 6.375 24 6.75V14.25C24 14.6719 23.625 15 23.25 15C22.8281 15 22.5 14.6719 22.5 14.25V8.57812L11.0156 20.0625C10.7344 20.3438 10.2188 20.3438 9.9375 20.0625C9.65625 19.7812 9.65625 19.2656 9.9375 18.9844L21.4219 7.5H15.75C15.3281 7.5 15 7.17188 15 6.75C15 6.375 15.3281 6 15.75 6ZM3 7.5H9.75C10.125 7.5 10.5 7.875 10.5 8.25C10.5 8.67188 10.125 9 9.75 9H3C2.15625 9 1.5 9.70312 1.5 10.5V27C1.5 27.8438 2.15625 28.5 3 28.5H19.5C20.2969 28.5 21 27.8438 21 27V20.25C21 19.875 21.3281 19.5 21.75 19.5C22.125 19.5 22.5 19.875 22.5 20.25V27C22.5 28.6875 21.1406 30 19.5 30H3C1.3125 30 0 28.6875 0 27V10.5C0 8.85938 1.3125 7.5 3 7.5Z" fill="black" fill-opacity="0.72"/>
</g>
<defs>
<clipPath id="clip0_2556_19837">
<rect width="24" height="36" fill="white"/>
</clipPath>
</defs>
</svg>
