<svg width="16" height="24" viewBox="0 0 16 24" fill="none" xmlns="http://www.w3.org/2000/svg">
<g id="label-paired / md / circle-one-md / bold" clip-path="url(#clip0_2556_15249)">
<path id="icon" d="M14.5 12C14.5 9.6875 13.25 7.5625 11.25 6.375C9.21875 5.21875 6.75 5.21875 4.75 6.375C2.71875 7.5625 1.5 9.6875 1.5 12C1.5 14.3438 2.71875 16.4688 4.75 17.6562C6.75 18.8125 9.21875 18.8125 11.25 17.6562C13.25 16.4688 14.5 14.3438 14.5 12ZM0 12C0 9.15625 1.5 6.53125 4 5.09375C6.46875 3.65625 9.5 3.65625 12 5.09375C14.4688 6.53125 16 9.15625 16 12C16 14.875 14.4688 17.5 12 18.9375C9.5 20.375 6.46875 20.375 4 18.9375C1.5 17.5 0 14.875 0 12ZM8.375 8.125C8.59375 8.25 8.75 8.5 8.75 8.75V14.5H10C10.4062 14.5 10.75 14.8438 10.75 15.25C10.75 15.6875 10.4062 16 10 16H8H6C5.5625 16 5.25 15.6875 5.25 15.25C5.25 14.8438 5.5625 14.5 6 14.5H7.25V10.0625L6.59375 10.4062C6.25 10.625 5.78125 10.5 5.59375 10.125C5.375 9.78125 5.5 9.3125 5.875 9.125L7.625 8.125C7.84375 8 8.125 8 8.375 8.125Z" fill="black" fill-opacity="0.72"/>
</g>
<defs>
<clipPath id="clip0_2556_15249">
<rect width="16" height="24" fill="white"/>
</clipPath>
</defs>
</svg>
