<svg width="9" height="22" viewBox="0 0 9 22" fill="none" xmlns="http://www.w3.org/2000/svg">
<g id="label-paired / sm / eight-sm / bold" clip-path="url(#clip0_2556_12497)">
<path id="icon" d="M8.4375 8.01562C8.4375 9.05469 7.97266 9.98438 7.23438 10.6133C8.21875 11.1875 8.875 12.2812 8.875 13.4844C8.875 15.3711 7.34375 16.875 5.48438 16.875H3.51562C1.62891 16.875 0.125 15.3711 0.125 13.4844C0.125 12.2812 0.753906 11.1875 1.73828 10.6133C1 9.98438 0.5625 9.05469 0.5625 8.01562C0.5625 6.15625 2.06641 4.625 3.95312 4.625H5.04688C6.90625 4.625 8.4375 6.15625 8.4375 8.01562ZM5.04688 11.4062H3.95312C3.92578 11.4062 3.92578 11.4062 3.92578 11.4062H3.51562C2.36719 11.4062 1.4375 12.3359 1.4375 13.4844C1.4375 14.6328 2.36719 15.5625 3.51562 15.5625H5.48438C6.63281 15.5625 7.5625 14.6328 7.5625 13.4844C7.5625 12.3359 6.63281 11.4062 5.48438 11.4062H5.04688ZM5.04688 10.0938C6.19531 10.0938 7.125 9.16406 7.125 8.01562C7.125 6.86719 6.19531 5.9375 5.04688 5.9375H3.95312C2.80469 5.9375 1.875 6.86719 1.875 8.01562C1.875 9.16406 2.80469 10.0938 3.95312 10.0938H5.04688Z" fill="black" fill-opacity="0.72"/>
</g>
<defs>
<clipPath id="clip0_2556_12497">
<rect width="9" height="22" fill="white"/>
</clipPath>
</defs>
</svg>
