<svg width="16" height="24" viewBox="0 0 16 24" fill="none" xmlns="http://www.w3.org/2000/svg">
<g id="label-paired / md / arrow-up-from-square-md / regular" clip-path="url(#clip0_2556_15159)">
<path id="icon" d="M8.34375 4.15625L11.5938 7.40625C11.7812 7.59375 11.7812 7.9375 11.5938 8.125C11.4062 8.3125 11.0625 8.3125 10.875 8.125L8.5 5.71875V14C8.5 14.2812 8.25 14.5 8 14.5C7.71875 14.5 7.5 14.2812 7.5 14V5.71875L5.09375 8.125C4.90625 8.3125 4.5625 8.3125 4.375 8.125C4.1875 7.9375 4.1875 7.59375 4.375 7.40625L7.625 4.15625C7.8125 3.96875 8.15625 3.96875 8.34375 4.15625ZM2 5H3C3.25 5 3.5 5.25 3.5 5.5C3.5 5.78125 3.25 6 3 6H2C1.4375 6 1 6.46875 1 7V18C1 18.5625 1.4375 19 2 19H14C14.5312 19 15 18.5625 15 18V7C15 6.46875 14.5312 6 14 6H13C12.7188 6 12.5 5.78125 12.5 5.5C12.5 5.25 12.7188 5 13 5H14C15.0938 5 16 5.90625 16 7V18C16 19.125 15.0938 20 14 20H2C0.875 20 0 19.125 0 18V7C0 5.90625 0.875 5 2 5Z" fill="black" fill-opacity="0.72"/>
</g>
<defs>
<clipPath id="clip0_2556_15159">
<rect width="16" height="24" fill="white"/>
</clipPath>
</defs>
</svg>
