<svg width="14" height="22" viewBox="0 0 14 22" fill="none" xmlns="http://www.w3.org/2000/svg">
<g id="label-paired / sm / image-sm / regular" clip-path="url(#clip0_2556_12269)">
<path id="icon" d="M1.75 5.5C1.25781 5.5 0.875 5.91016 0.875 6.375V12.7734L2.70703 10.9141C3.14453 10.5039 3.82812 10.5039 4.26562 10.9141L6.125 12.7734L9.70703 9.16406C10.1445 8.75391 10.8281 8.75391 11.2656 9.16406L13.125 11.0234V6.375C13.125 5.91016 12.7148 5.5 12.25 5.5H1.75ZM0.875 14.0039V15.125C0.875 15.6172 1.25781 16 1.75 16H2.87109L5.49609 13.375L3.63672 11.543C3.55469 11.4609 3.41797 11.4609 3.33594 11.543L0.875 14.0039ZM10.6367 9.79297C10.5547 9.71094 10.418 9.71094 10.3359 9.79297L4.10156 16H12.25C12.7148 16 13.125 15.6172 13.125 15.125V12.2539L10.6367 9.79297ZM0 6.375C0 5.41797 0.765625 4.625 1.75 4.625H12.25C13.207 4.625 14 5.41797 14 6.375V15.125C14 16.1094 13.207 16.875 12.25 16.875H1.75C0.765625 16.875 0 16.1094 0 15.125V6.375ZM4.375 7.6875C4.375 7.46875 4.15625 7.25 3.9375 7.25C3.69141 7.25 3.5 7.46875 3.5 7.6875C3.5 7.93359 3.69141 8.125 3.9375 8.125C4.15625 8.125 4.375 7.93359 4.375 7.6875ZM2.625 7.6875C2.625 7.22266 2.87109 6.8125 3.28125 6.56641C3.66406 6.32031 4.18359 6.32031 4.59375 6.56641C4.97656 6.8125 5.25 7.22266 5.25 7.6875C5.25 8.17969 4.97656 8.58984 4.59375 8.83594C4.18359 9.08203 3.66406 9.08203 3.28125 8.83594C2.87109 8.58984 2.625 8.17969 2.625 7.6875Z" fill="black" fill-opacity="0.72"/>
</g>
<defs>
<clipPath id="clip0_2556_12269">
<rect width="14" height="22" fill="white"/>
</clipPath>
</defs>
</svg>
