<svg width="20" height="30" viewBox="0 0 20 30" fill="none" xmlns="http://www.w3.org/2000/svg">
<g id="label-paired / lg / circle-sterling-lg / regular" clip-path="url(#clip0_2556_17099)">
<path id="icon" d="M18.75 15.5C18.75 12.375 17.0703 9.52344 14.375 7.96094C11.6406 6.35938 8.32031 6.35938 5.625 7.96094C2.89062 9.52344 1.25 12.375 1.25 15.5C1.25 18.6641 2.89062 21.5156 5.625 23.0781C8.32031 24.6797 11.6406 24.6797 14.375 23.0781C17.0703 21.5156 18.75 18.6641 18.75 15.5ZM0 15.5C0 11.9453 1.875 8.66406 5 6.86719C8.08594 5.07031 11.875 5.07031 15 6.86719C18.0859 8.66406 20 11.9453 20 15.5C20 19.0938 18.0859 22.375 15 24.1719C11.875 25.9688 8.08594 25.9688 5 24.1719C1.875 22.375 0 19.0938 0 15.5ZM10.1172 11.125C9.33594 11.125 8.71094 11.7891 8.71094 12.5703V14.25H10.625C10.9375 14.25 11.25 14.5625 11.25 14.875C11.25 15.2266 10.9375 15.5 10.625 15.5H8.71094C8.67188 16.3984 8.4375 17.2578 8.00781 18H12.8125C13.125 18 13.4375 18.3125 13.4375 18.625C13.4375 18.9766 13.125 19.25 12.8125 19.25H6.875C6.64062 19.25 6.40625 19.1328 6.28906 18.9375C6.21094 18.7422 6.21094 18.4688 6.32812 18.2734L6.71875 17.7656C7.14844 17.1016 7.42188 16.3203 7.46094 15.5H6.875C6.52344 15.5 6.25 15.2266 6.25 14.875C6.25 14.5625 6.52344 14.25 6.875 14.25H7.46094V12.5703C7.42188 11.0859 8.63281 9.875 10.1172 9.875C10.5469 9.875 10.9375 9.99219 11.3281 10.1875L12.1484 10.5781C12.4609 10.7344 12.5781 11.125 12.4219 11.4375C12.2656 11.75 11.875 11.8672 11.5625 11.7109L10.7422 11.2812C10.5469 11.2031 10.3516 11.1641 10.1172 11.1641V11.125Z" fill="black" fill-opacity="0.72"/>
</g>
<defs>
<clipPath id="clip0_2556_17099">
<rect width="20" height="30" fill="white"/>
</clipPath>
</defs>
</svg>
