<svg width="11" height="18" viewBox="0 0 11 18" fill="none" xmlns="http://www.w3.org/2000/svg">
<g id="label-paired / caption / trash-caption / bold" clip-path="url(#clip0_2556_10314)">
<path id="icon" d="M4.39844 4.625C4.32812 4.625 4.28125 4.67188 4.23438 4.71875L3.78906 5.375H7.1875L6.74219 4.71875C6.71875 4.67188 6.64844 4.625 6.57812 4.625H4.39844ZM8.54688 5.375H8.85156H10H10.1875C10.4922 5.375 10.75 5.63281 10.75 5.9375C10.75 6.26562 10.4922 6.5 10.1875 6.5H9.90625L9.34375 14.1172C9.27344 14.9141 8.64062 15.5 7.84375 15.5H3.13281C2.33594 15.5 1.70312 14.9141 1.63281 14.1172L1.07031 6.5H0.8125C0.484375 6.5 0.25 6.26562 0.25 5.9375C0.25 5.63281 0.484375 5.375 0.8125 5.375H1H2.125H2.42969L3.29688 4.08594C3.53125 3.73438 3.95312 3.5 4.39844 3.5H6.57812C7.02344 3.5 7.44531 3.73438 7.67969 4.08594L8.54688 5.375ZM8.78125 6.5H2.19531L2.75781 14.0469C2.78125 14.2344 2.94531 14.375 3.13281 14.375H7.84375C8.03125 14.375 8.19531 14.2344 8.21875 14.0469L8.78125 6.5Z" fill="black" fill-opacity="0.72"/>
</g>
<defs>
<clipPath id="clip0_2556_10314">
<rect width="11" height="18" fill="white"/>
</clipPath>
</defs>
</svg>
