<svg width="16" height="24" viewBox="0 0 16 24" fill="none" xmlns="http://www.w3.org/2000/svg">
<g id="label-paired / md / magnifying-glass-minus-md / fill" clip-path="url(#clip0_3431_860)">
<path id="icon" d="M13 10.5C13 11.9375 12.5312 13.2812 11.75 14.3438L15.6875 18.3125C16.0938 18.6875 16.0938 19.3438 15.6875 19.7188C15.3125 20.125 14.6562 20.125 14.2812 19.7188L10.3125 15.75C9.25 16.5625 7.90625 17 6.5 17C2.90625 17 0 14.0938 0 10.5C0 6.9375 2.90625 4 6.5 4C10.0625 4 13 6.9375 13 10.5ZM4.25 9.75C3.8125 9.75 3.5 10.0938 3.5 10.5C3.5 10.9375 3.8125 11.25 4.25 11.25H8.75C9.15625 11.25 9.5 10.9375 9.5 10.5C9.5 10.0938 9.15625 9.75 8.75 9.75H4.25Z" fill="black" fill-opacity="0.72"/>
</g>
<defs>
<clipPath id="clip0_3431_860">
<rect width="16" height="24" fill="white"/>
</clipPath>
</defs>
</svg>
