<svg width="14" height="18" viewBox="0 0 14 18" fill="none" xmlns="http://www.w3.org/2000/svg">
<g id="label-paired / caption / presentation-screen-caption / fill" clip-path="url(#clip0_2556_10127)">
<path id="icon" d="M1 3.5H1.75H12.25H13C13.3984 3.5 13.75 3.85156 13.75 4.25C13.75 4.67188 13.3984 5 13 5V10.25C13 11.0938 12.3203 11.75 11.5 11.75H7.75V12.5703L9.39062 14.2344C9.69531 14.5156 9.69531 15.0078 9.39062 15.2891C9.10938 15.5938 8.61719 15.5938 8.33594 15.2891L7 13.9531L5.64062 15.2891C5.35938 15.5938 4.86719 15.5938 4.58594 15.2891C4.28125 15.0078 4.28125 14.5156 4.58594 14.2344L6.25 12.5703V11.75H2.5C1.65625 11.75 1 11.0938 1 10.25V5C0.578125 5 0.25 4.67188 0.25 4.25C0.25 3.85156 0.578125 3.5 1 3.5ZM2.5 5V10.25H7H11.5V5H2.5Z" fill="black" fill-opacity="0.72"/>
</g>
<defs>
<clipPath id="clip0_2556_10127">
<rect width="14" height="18" fill="white"/>
</clipPath>
</defs>
</svg>
