<svg width="14" height="22" viewBox="0 0 14 22" fill="none" xmlns="http://www.w3.org/2000/svg">
<g id="label-paired / sm / fingerprint-sm / fill" clip-path="url(#clip0_2556_12362)">
<path id="icon" d="M1.3125 10.75V11.8438C1.3125 12.2266 1.01172 12.5 0.65625 12.5C0.273438 12.5 0 12.2266 0 11.8438V10.75C0 6.89453 3.11719 3.75 7 3.75C9.10547 3.75 11.0195 4.70703 12.3047 6.21094C12.5234 6.48438 12.4961 6.89453 12.2227 7.14062C11.9492 7.35938 11.5391 7.33203 11.293 7.05859C10.2539 5.85547 8.72266 5.0625 7 5.0625C3.85547 5.0625 1.3125 7.63281 1.3125 10.75ZM13.8359 9.32812C13.9453 9.79297 14 10.2578 14 10.75V11.8711C14 12.2266 13.6992 12.5273 13.3438 12.5273C12.9609 12.5273 12.6875 12.2266 12.6875 11.8711V10.7773C12.6875 10.3672 12.6328 9.95703 12.5508 9.57422C12.4688 9.24609 12.7148 8.89062 13.0703 8.80859C13.4258 8.72656 13.7539 8.97266 13.8359 9.32812ZM7 5.9375C9.65234 5.9375 11.8125 8.09766 11.8125 10.75V11.4336C11.8125 12.1992 11.7578 12.9648 11.6758 13.7031C11.6211 14.0312 11.3477 14.25 11.0195 14.25C10.6367 14.25 10.3086 13.8945 10.3633 13.5117C10.4453 12.8281 10.5 12.1445 10.5 11.4336V10.75C10.5 8.83594 8.91406 7.25 7 7.25C6.67188 7.25 6.37109 7.30469 6.07031 7.38672C5.79688 7.46875 5.46875 7.38672 5.27734 7.16797C4.97656 6.83984 5.08594 6.32031 5.49609 6.18359C5.96094 6.01953 6.48047 5.9375 7 5.9375ZM4.10156 7.82422C4.32031 8.09766 4.32031 8.48047 4.10156 8.75391C3.71875 9.32812 3.5 10.0117 3.5 10.75V11.4336C3.5 12.2266 3.39062 13.0195 3.22656 13.7852C3.17188 14.0586 2.89844 14.25 2.625 14.25C2.1875 14.25 1.85938 13.8398 1.96875 13.4023C2.10547 12.7734 2.1875 12.1172 2.1875 11.4336V10.75C2.1875 9.65625 2.54297 8.61719 3.17188 7.82422C3.41797 7.52344 3.85547 7.55078 4.10156 7.82422ZM7 8.125C8.44922 8.125 9.625 9.30078 9.625 10.75V11.4336C9.625 12.5273 9.51562 13.6211 9.29688 14.6602C9.24219 14.9336 8.99609 15.125 8.72266 15.125C8.33984 15.125 8.03906 14.7695 8.12109 14.3867C8.3125 13.4297 8.42188 12.4453 8.42188 11.4336V10.75C8.42188 9.98438 7.76562 9.32812 7 9.32812C6.20703 9.32812 5.57812 9.98438 5.57812 10.75V11.4336C5.57812 12.5547 5.41406 13.6484 5.14062 14.7148C5.05859 14.9609 4.83984 15.125 4.56641 15.125C4.15625 15.125 3.88281 14.7422 3.99219 14.332C4.23828 13.4023 4.375 12.418 4.375 11.4336V10.75C4.375 9.30078 5.55078 8.125 7 8.125ZM7.65625 10.75V11.4336C7.65625 13.2383 7.30078 15.0156 6.67188 16.7109L6.50781 17.1211C6.37109 17.4492 5.98828 17.6406 5.66016 17.5039C5.33203 17.3672 5.14062 16.9844 5.27734 16.6562L5.44141 16.2461C6.04297 14.7148 6.34375 13.0742 6.34375 11.4336V10.75C6.34375 10.3945 6.61719 10.0938 7 10.0938C7.35547 10.0938 7.65625 10.3945 7.65625 10.75Z" fill="black" fill-opacity="0.72"/>
</g>
<defs>
<clipPath id="clip0_2556_12362">
<rect width="14" height="22" fill="white"/>
</clipPath>
</defs>
</svg>
