<svg width="14" height="22" viewBox="0 0 14 22" fill="none" xmlns="http://www.w3.org/2000/svg">
<g id="label-paired / sm / loader-sm / fill" clip-path="url(#clip0_2981_812)">
<path id="icon" d="M7.875 4.625V6.375C7.875 6.86719 7.46484 7.25 7 7.25C6.50781 7.25 6.125 6.86719 6.125 6.375V4.625C6.125 4.16016 6.50781 3.75 7 3.75C7.46484 3.75 7.875 4.16016 7.875 4.625ZM7.875 15.125V16.875C7.875 17.3672 7.46484 17.75 7 17.75C6.50781 17.75 6.125 17.3672 6.125 16.875V15.125C6.125 14.6602 6.50781 14.25 7 14.25C7.46484 14.25 7.875 14.6602 7.875 15.125ZM0 10.75C0 10.2852 0.382812 9.875 0.875 9.875H2.625C3.08984 9.875 3.5 10.2852 3.5 10.75C3.5 11.2422 3.08984 11.625 2.625 11.625H0.875C0.382812 11.625 0 11.2422 0 10.75ZM11.375 9.875H13.125C13.5898 9.875 14 10.2852 14 10.75C14 11.2422 13.5898 11.625 13.125 11.625H11.375C10.8828 11.625 10.5 11.2422 10.5 10.75C10.5 10.2852 10.8828 9.875 11.375 9.875ZM2.05078 5.80078C2.37891 5.47266 2.92578 5.47266 3.28125 5.80078L4.51172 7.05859C4.86719 7.38672 4.86719 7.96094 4.51172 8.28906C4.18359 8.64453 3.60938 8.64453 3.28125 8.28906L2.05078 7.05859C1.69531 6.70312 1.69531 6.15625 2.05078 5.80078ZM10.6914 13.2383L11.9492 14.4688C12.2773 14.8242 12.2773 15.3711 11.9492 15.6992C11.5938 16.0547 11.0469 16.0547 10.6914 15.6992L9.46094 14.4688C9.13281 14.1406 9.13281 13.5664 9.46094 13.2383C9.81641 12.8828 10.3633 12.8828 10.6914 13.2383ZM2.05078 15.6992V15.7266C1.69531 15.3711 1.69531 14.8242 2.05078 14.4688L3.28125 13.2383C3.60938 12.8828 4.18359 12.8828 4.51172 13.2383C4.86719 13.5664 4.86719 14.1406 4.51172 14.4688L3.28125 15.6992C2.92578 16.0547 2.37891 16.0547 2.05078 15.6992ZM9.46094 7.05859L10.6914 5.80078C11.0469 5.47266 11.5938 5.47266 11.9492 5.80078C12.2773 6.15625 12.2773 6.70312 11.9492 7.05859L10.6914 8.28906C10.3633 8.61719 9.81641 8.61719 9.46094 8.28906C9.13281 7.93359 9.13281 7.38672 9.46094 7.05859Z" fill="black" fill-opacity="0.72"/>
</g>
<defs>
<clipPath id="clip0_2981_812">
<rect width="14" height="22" fill="white"/>
</clipPath>
</defs>
</svg>
