<svg width="21" height="36" viewBox="0 0 21 36" fill="none" xmlns="http://www.w3.org/2000/svg">
<g id="label-paired / xl / floppy-disk-xl / fill" clip-path="url(#clip0_2556_19883)">
<path id="icon" d="M3 7.5H14.3438C15.1406 7.5 15.9375 7.82812 16.5 8.39062L20.1094 12C20.6719 12.5625 21 13.3594 21 14.1562V25.5C21 27.1875 19.6406 28.5 18 28.5H3C1.3125 28.5 0 27.1875 0 25.5V10.5C0 8.85938 1.3125 7.5 3 7.5ZM3 12V15C3 15.8438 3.65625 16.5 4.5 16.5H13.5C14.2969 16.5 15 15.8438 15 15V12C15 11.2031 14.2969 10.5 13.5 10.5H4.5C3.65625 10.5 3 11.2031 3 12ZM10.5 19.5C9.42188 19.5 8.4375 20.1094 7.875 21C7.35938 21.9375 7.35938 23.1094 7.875 24C8.4375 24.9375 9.42188 25.5 10.5 25.5C11.5312 25.5 12.5156 24.9375 13.0781 24C13.5938 23.1094 13.5938 21.9375 13.0781 21C12.5156 20.1094 11.5312 19.5 10.5 19.5Z" fill="black" fill-opacity="0.72"/>
</g>
<defs>
<clipPath id="clip0_2556_19883">
<rect width="21" height="36" fill="white"/>
</clipPath>
</defs>
</svg>
