<svg width="20" height="30" viewBox="0 0 20 30" fill="none" xmlns="http://www.w3.org/2000/svg">
<g id="label-paired / lg / grid-2-lg / regular" clip-path="url(#clip0_2556_17617)">
<path id="icon" d="M3.125 8C2.77344 8 2.5 8.3125 2.5 8.625V12.375C2.5 12.7266 2.77344 13 3.125 13H6.875C7.1875 13 7.5 12.7266 7.5 12.375V8.625C7.5 8.3125 7.1875 8 6.875 8H3.125ZM1.25 8.625C1.25 7.60938 2.07031 6.75 3.125 6.75H6.875C7.89062 6.75 8.75 7.60938 8.75 8.625V12.375C8.75 13.4297 7.89062 14.25 6.875 14.25H3.125C2.07031 14.25 1.25 13.4297 1.25 12.375V8.625ZM3.125 18C2.77344 18 2.5 18.3125 2.5 18.625V22.375C2.5 22.7266 2.77344 23 3.125 23H6.875C7.1875 23 7.5 22.7266 7.5 22.375V18.625C7.5 18.3125 7.1875 18 6.875 18H3.125ZM1.25 18.625C1.25 17.6094 2.07031 16.75 3.125 16.75H6.875C7.89062 16.75 8.75 17.6094 8.75 18.625V22.375C8.75 23.4297 7.89062 24.25 6.875 24.25H3.125C2.07031 24.25 1.25 23.4297 1.25 22.375V18.625ZM16.875 8H13.125C12.7734 8 12.5 8.3125 12.5 8.625V12.375C12.5 12.7266 12.7734 13 13.125 13H16.875C17.1875 13 17.5 12.7266 17.5 12.375V8.625C17.5 8.3125 17.1875 8 16.875 8ZM13.125 6.75H16.875C17.8906 6.75 18.75 7.60938 18.75 8.625V12.375C18.75 13.4297 17.8906 14.25 16.875 14.25H13.125C12.0703 14.25 11.25 13.4297 11.25 12.375V8.625C11.25 7.60938 12.0703 6.75 13.125 6.75ZM13.125 18C12.7734 18 12.5 18.3125 12.5 18.625V22.375C12.5 22.7266 12.7734 23 13.125 23H16.875C17.1875 23 17.5 22.7266 17.5 22.375V18.625C17.5 18.3125 17.1875 18 16.875 18H13.125ZM11.25 18.625C11.25 17.6094 12.0703 16.75 13.125 16.75H16.875C17.8906 16.75 18.75 17.6094 18.75 18.625V22.375C18.75 23.4297 17.8906 24.25 16.875 24.25H13.125C12.0703 24.25 11.25 23.4297 11.25 22.375V18.625Z" fill="black" fill-opacity="0.72"/>
</g>
<defs>
<clipPath id="clip0_2556_17617">
<rect width="20" height="30" fill="white"/>
</clipPath>
</defs>
</svg>
