<svg width="24" height="36" viewBox="0 0 24 36" fill="none" xmlns="http://www.w3.org/2000/svg">
<g id="label-paired / xl / arrow-rotate-left-xl / regular" clip-path="url(#clip0_3431_1017)">
<path id="icon" d="M2.25 15C1.82812 15 1.5 14.6719 1.5 14.25V8.25C1.5 7.875 1.82812 7.5 2.25 7.5C2.625 7.5 3 7.875 3 8.25V12.6094C4.82812 9.5625 8.15625 7.5 12 7.5C17.7656 7.5 22.5 12.2344 22.5 18C22.5 23.8125 17.7656 28.5 12 28.5C8.25 28.5 4.96875 26.5781 3.09375 23.625C2.76562 23.1094 3.14062 22.5 3.75 22.5C4.03125 22.5 4.26562 22.6875 4.40625 22.9219C6 25.3594 8.8125 27 12 27C16.9688 27 21 22.9688 21 18C21 13.0312 16.9688 9 12 9C8.625 9 5.71875 10.8281 4.17188 13.5H8.25C8.625 13.5 9 13.875 9 14.25C9 14.6719 8.625 15 8.25 15H2.25Z" fill="black" fill-opacity="0.72"/>
</g>
<defs>
<clipPath id="clip0_3431_1017">
<rect width="24" height="36" fill="white"/>
</clipPath>
</defs>
</svg>
