<svg width="15" height="36" viewBox="0 0 15 36" fill="none" xmlns="http://www.w3.org/2000/svg">
<g id="label-paired / xl / three-xl / fill" clip-path="url(#clip0_2556_19948)">
<path id="icon" d="M0 9C0 8.20312 0.65625 7.5 1.5 7.5H12.75C13.3594 7.5 13.9219 7.92188 14.1094 8.48438C14.3438 9.04688 14.2031 9.70312 13.7344 10.125L7.59375 15.75H8.625C12.1406 15.75 15 18.6094 15 22.125C15 25.6875 12.1406 28.5 8.625 28.5H4.92188C2.95312 28.5 1.125 27.375 0.234375 25.6406L0.140625 25.4531C-0.234375 24.7031 0.046875 23.8125 0.796875 23.4375C1.54688 23.0625 2.4375 23.3438 2.8125 24.0938L2.90625 24.2812C3.28125 25.0312 4.07812 25.5 4.92188 25.5H8.625C10.4531 25.5 12 24 12 22.125C12 20.2969 10.4531 18.75 8.625 18.75H3.75C3.09375 18.75 2.57812 18.375 2.34375 17.8125C2.10938 17.25 2.25 16.5938 2.71875 16.1719L8.85938 10.5H1.5C0.65625 10.5 0 9.84375 0 9Z" fill="black" fill-opacity="0.72"/>
</g>
<defs>
<clipPath id="clip0_2556_19948">
<rect width="15" height="36" fill="white"/>
</clipPath>
</defs>
</svg>
