<svg width="21" height="36" viewBox="0 0 21 36" fill="none" xmlns="http://www.w3.org/2000/svg">
<g id="label-paired / xl / arrow-left-to-line-xl / fill" clip-path="url(#clip0_2556_19642)">
<path id="icon" d="M0 10.5C0 9.70312 0.65625 9 1.5 9C2.29688 9 3 9.70312 3 10.5V25.5C3 26.3438 2.29688 27 1.5 27C0.65625 27 0 26.3438 0 25.5V10.5ZM6.42188 19.0781C5.8125 18.5156 5.8125 17.5312 6.42188 16.9688L12.4219 10.9688C12.9844 10.3594 13.9688 10.3594 14.5312 10.9688C15.1406 11.5312 15.1406 12.5156 14.5312 13.0781L11.1094 16.5H19.5C20.2969 16.5 21 17.2031 21 18C21 18.8438 20.2969 19.5 19.5 19.5H11.1094L14.5312 22.9688C15.1406 23.5312 15.1406 24.5156 14.5312 25.0781C13.9688 25.6875 12.9844 25.6875 12.4219 25.0781L6.42188 19.0781Z" fill="black" fill-opacity="0.72"/>
</g>
<defs>
<clipPath id="clip0_2556_19642">
<rect width="21" height="36" fill="white"/>
</clipPath>
</defs>
</svg>
