<svg width="15" height="18" viewBox="0 0 15 18" fill="none" xmlns="http://www.w3.org/2000/svg">
<g id="label-paired / caption / language-caption / fill" clip-path="url(#clip0_2556_10124)">
<path id="icon" d="M0 6.5C0 5.67969 0.65625 5 1.5 5H6H7.125H7.5H13.5C14.3203 5 15 5.67969 15 6.5V12.5C15 13.3438 14.3203 14 13.5 14H7.5H7.125H6H1.5C0.65625 14 0 13.3438 0 12.5V6.5ZM7.5 6.5V12.5H13.5V6.5H7.5ZM4.17188 7.625C4.10156 7.46094 3.91406 7.34375 3.75 7.34375C3.5625 7.34375 3.375 7.46094 3.30469 7.625L1.80469 11C1.71094 11.2344 1.80469 11.5156 2.03906 11.6328C2.29688 11.7266 2.55469 11.6328 2.67188 11.3984L2.88281 10.9062H4.59375L4.80469 11.3984C4.92188 11.6328 5.20312 11.7266 5.4375 11.6328C5.67188 11.5156 5.76562 11.2344 5.67188 11L4.17188 7.625ZM3.75 8.98438L4.19531 9.96875H3.30469L3.75 8.98438ZM10.5 7.34375C10.7578 7.34375 10.9688 7.55469 10.9688 7.8125V7.90625H12H12.375C12.6328 7.90625 12.8438 8.11719 12.8438 8.375C12.8438 8.63281 12.6328 8.84375 12.375 8.84375H12.3281L12.2812 8.96094C12.0703 9.52344 11.7656 10.0625 11.3438 10.4844C11.3672 10.5078 11.3906 10.5078 11.4141 10.5312L11.8594 10.7891C12.0703 10.9297 12.1406 11.2109 12.0234 11.4453C11.8828 11.6562 11.6016 11.7266 11.3672 11.6094L10.9453 11.3281C10.8281 11.2812 10.7344 11.2109 10.6172 11.1406C10.3828 11.3047 10.125 11.4688 9.82031 11.5859L9.75 11.6328C9.51562 11.7266 9.23438 11.6328 9.11719 11.3984C9.02344 11.1406 9.14062 10.8828 9.375 10.7656L9.44531 10.7422C9.60938 10.6719 9.75 10.5781 9.89062 10.5078L9.60938 10.2266C9.42188 10.0391 9.42188 9.73438 9.60938 9.54688C9.77344 9.35938 10.0781 9.35938 10.2656 9.54688L10.5938 9.89844H10.6172C10.8984 9.59375 11.1328 9.24219 11.3203 8.84375H10.5H8.8125C8.55469 8.84375 8.34375 8.63281 8.34375 8.375C8.34375 8.11719 8.55469 7.90625 8.8125 7.90625H10.0312V7.8125C10.0312 7.55469 10.2422 7.34375 10.5 7.34375Z" fill="black" fill-opacity="0.72"/>
</g>
<defs>
<clipPath id="clip0_2556_10124">
<rect width="15" height="18" fill="white"/>
</clipPath>
</defs>
</svg>
