<svg width="20" height="30" viewBox="0 0 20 30" fill="none" xmlns="http://www.w3.org/2000/svg">
<g id="label-paired / lg / chart-mixed-lg / regular" clip-path="url(#clip0_2556_17225)">
<path id="icon" d="M19.8047 6.98438C20.0391 7.21875 20.0391 7.60938 19.7656 7.84375L12.8906 14.0938C12.6562 14.3281 12.2656 14.3281 12.0312 14.0938L7.42188 9.44531L0.976562 14.1328C0.703125 14.3672 0.3125 14.2891 0.117188 14.0156C-0.117188 13.7422 -0.0390625 13.3516 0.234375 13.1172L7.10938 8.11719C7.34375 7.96094 7.69531 8 7.92969 8.19531L12.5 12.7656L18.9453 6.94531C19.1797 6.71094 19.5703 6.71094 19.8047 6.98438ZM3.125 22.375V19.875C3.125 19.5625 2.8125 19.25 2.5 19.25C2.14844 19.25 1.875 19.5625 1.875 19.875V22.375C1.875 22.7266 2.14844 23 2.5 23C2.8125 23 3.125 22.7266 3.125 22.375ZM2.5 18C3.51562 18 4.375 18.8594 4.375 19.875V22.375C4.375 23.4297 3.51562 24.25 2.5 24.25C1.44531 24.25 0.625 23.4297 0.625 22.375V19.875C0.625 18.8594 1.44531 18 2.5 18ZM8.125 16.125C8.125 15.8125 7.8125 15.5 7.5 15.5C7.14844 15.5 6.875 15.8125 6.875 16.125V22.375C6.875 22.7266 7.14844 23 7.5 23C7.8125 23 8.125 22.7266 8.125 22.375V16.125ZM5.625 16.125C5.625 15.1094 6.44531 14.25 7.5 14.25C8.51562 14.25 9.375 15.1094 9.375 16.125V22.375C9.375 23.4297 8.51562 24.25 7.5 24.25C6.44531 24.25 5.625 23.4297 5.625 22.375V16.125ZM13.125 22.375V18.625C13.125 18.3125 12.8125 18 12.5 18C12.1484 18 11.875 18.3125 11.875 18.625V22.375C11.875 22.7266 12.1484 23 12.5 23C12.8125 23 13.125 22.7266 13.125 22.375ZM12.5 16.75C13.5156 16.75 14.375 17.6094 14.375 18.625V22.375C14.375 23.4297 13.5156 24.25 12.5 24.25C11.4453 24.25 10.625 23.4297 10.625 22.375V18.625C10.625 17.6094 11.4453 16.75 12.5 16.75ZM18.125 16.125C18.125 15.8125 17.8125 15.5 17.5 15.5C17.1484 15.5 16.875 15.8125 16.875 16.125V22.375C16.875 22.7266 17.1484 23 17.5 23C17.8125 23 18.125 22.7266 18.125 22.375V16.125ZM15.625 16.125C15.625 15.1094 16.4453 14.25 17.5 14.25C18.5156 14.25 19.375 15.1094 19.375 16.125V22.375C19.375 23.4297 18.5156 24.25 17.5 24.25C16.4453 24.25 15.625 23.4297 15.625 22.375V16.125Z" fill="black" fill-opacity="0.72"/>
</g>
<defs>
<clipPath id="clip0_2556_17225">
<rect width="20" height="30" fill="white"/>
</clipPath>
</defs>
</svg>
