<svg width="20" height="24" viewBox="0 0 20 24" fill="none" xmlns="http://www.w3.org/2000/svg">
<g id="label-paired / md / signal-md / fill" clip-path="url(#clip0_2556_14887)">
<path id="icon" d="M18 4C18.5312 4 19 4.46875 19 5V19C19 19.5625 18.5312 20 18 20C17.4375 20 17 19.5625 17 19V5C17 4.46875 17.4375 4 18 4ZM14 7C14.5312 7 15 7.46875 15 8V19C15 19.5625 14.5312 20 14 20C13.4375 20 13 19.5625 13 19V8C13 7.46875 13.4375 7 14 7ZM11 11V19C11 19.5625 10.5312 20 10 20C9.4375 20 9 19.5625 9 19V11C9 10.4688 9.4375 10 10 10C10.5312 10 11 10.4688 11 11ZM6 13C6.53125 13 7 13.4688 7 14V19C7 19.5625 6.53125 20 6 20C5.4375 20 5 19.5625 5 19V14C5 13.4688 5.4375 13 6 13ZM3 17V19C3 19.5625 2.53125 20 2 20C1.4375 20 1 19.5625 1 19V17C1 16.4688 1.4375 16 2 16C2.53125 16 3 16.4688 3 17Z" fill="black" fill-opacity="0.72"/>
</g>
<defs>
<clipPath id="clip0_2556_14887">
<rect width="20" height="24" fill="white"/>
</clipPath>
</defs>
</svg>
