<svg width="15" height="18" viewBox="0 0 15 18" fill="none" xmlns="http://www.w3.org/2000/svg">
<g id="label-paired / caption / eye-slash-caption / bold" clip-path="url(#clip0_2556_10530)">
<path id="icon" d="M0.890625 3.64062L3.51562 5.67969C4.57031 4.88281 5.88281 4.25 7.5 4.25C9.375 4.25 10.8984 5.11719 12 6.14844C13.1016 7.15625 13.8281 8.375 14.1797 9.21875C14.25 9.40625 14.25 9.61719 14.1797 9.80469C13.875 10.5547 13.2422 11.6328 12.3047 12.5703L14.7656 14.5156C15.0234 14.7031 15.0703 15.0547 14.8594 15.2891C14.6719 15.5469 14.3203 15.5938 14.0859 15.3828L0.210938 4.50781C-0.046875 4.32031 -0.09375 3.96875 0.117188 3.73438C0.304688 3.47656 0.65625 3.42969 0.890625 3.64062ZM4.42969 6.40625L5.50781 7.25C6.04688 6.78125 6.72656 6.5 7.5 6.5C9.14062 6.5 10.5 7.85938 10.5 9.5C10.5 10.0156 10.3828 10.4844 10.1484 10.8828L11.4141 11.8672C12.2344 11.0703 12.7969 10.1562 13.0781 9.5C12.7734 8.79688 12.1406 7.8125 11.2266 6.96875C10.2656 6.07812 9.02344 5.375 7.5 5.375C6.30469 5.375 5.29688 5.79688 4.42969 6.40625ZM9.23438 10.1797C9.32812 9.96875 9.375 9.73438 9.375 9.5C9.375 8.46875 8.53125 7.625 7.5 7.625C7.47656 7.625 7.45312 7.625 7.45312 7.625C7.47656 7.76562 7.5 7.88281 7.5 8C7.5 8.25781 7.42969 8.46875 7.33594 8.67969L9.23438 10.1797ZM10.4531 14C9.58594 14.4688 8.60156 14.75 7.5 14.75C5.60156 14.75 4.07812 13.9062 2.97656 12.875C1.875 11.8438 1.14844 10.625 0.796875 9.80469C0.726562 9.61719 0.726562 9.40625 0.796875 9.21875C1.03125 8.67969 1.40625 8 1.94531 7.29688L2.8125 8C2.39062 8.53906 2.08594 9.07812 1.89844 9.5C2.22656 10.2031 2.83594 11.2109 3.75 12.0547C4.71094 12.9453 5.95312 13.625 7.5 13.625C8.20312 13.625 8.85938 13.4844 9.46875 13.2266L10.4531 14ZM8.39062 12.3828C8.10938 12.4531 7.80469 12.5 7.47656 12.5C5.83594 12.5 4.47656 11.1641 4.47656 9.5C4.47656 9.45312 4.5 9.38281 4.5 9.3125L5.8125 10.3438C6.04688 10.8359 6.51562 11.2109 7.07812 11.3281L8.39062 12.3828Z" fill="black" fill-opacity="0.72"/>
</g>
<defs>
<clipPath id="clip0_2556_10530">
<rect width="15" height="18" fill="white"/>
</clipPath>
</defs>
</svg>
