<svg width="24" height="36" viewBox="0 0 24 36" fill="none" xmlns="http://www.w3.org/2000/svg">
<g id="label-paired / xl / circle-chevron-left-xl / regular" clip-path="url(#clip0_2556_19700)">
<path id="icon" d="M1.5 18C1.5 21.7969 3.46875 25.2188 6.75 27.0938C9.98438 29.0156 13.9688 29.0156 17.25 27.0938C20.4844 25.2188 22.5 21.7969 22.5 18C22.5 14.25 20.4844 10.8281 17.25 8.95312C13.9688 7.03125 9.98438 7.03125 6.75 8.95312C3.46875 10.8281 1.5 14.25 1.5 18ZM24 18C24 22.3125 21.7031 26.25 18 28.4062C14.25 30.5625 9.70312 30.5625 6 28.4062C2.25 26.25 0 22.3125 0 18C0 13.7344 2.25 9.79688 6 7.64062C9.70312 5.48438 14.25 5.48438 18 7.64062C21.7031 9.79688 24 13.7344 24 18ZM12.9375 12.2344C13.2188 11.9531 13.7344 11.9531 14.0156 12.2344C14.2969 12.5156 14.2969 13.0312 14.0156 13.3125L9.28125 18L14.0156 22.7344C14.2969 23.0156 14.2969 23.5312 14.0156 23.8125C13.7344 24.0938 13.2188 24.0938 12.9375 23.8125L7.6875 18.5625C7.40625 18.2812 7.40625 17.7656 7.6875 17.4844L12.9375 12.2344Z" fill="black" fill-opacity="0.72"/>
</g>
<defs>
<clipPath id="clip0_2556_19700">
<rect width="24" height="36" fill="white"/>
</clipPath>
</defs>
</svg>
