<svg width="18" height="24" viewBox="0 0 18 24" fill="none" xmlns="http://www.w3.org/2000/svg">
<g id="label-paired / md / arrow-up-one-nine-md / bold" clip-path="url(#clip0_2556_15289)">
<path id="icon" d="M14.25 5.75V9.5H15C15.4062 9.5 15.75 9.84375 15.75 10.25C15.75 10.6875 15.4062 11 15 11H13.5H12C11.5625 11 11.25 10.6875 11.25 10.25C11.25 9.84375 11.5625 9.5 12 9.5H12.75V6.8125L12.2188 6.96875C11.8438 7.09375 11.4062 6.90625 11.2812 6.5C11.1562 6.09375 11.3438 5.6875 11.75 5.5625L13.25 5.0625C13.4688 4.96875 13.7188 5 13.9375 5.15625C14.125 5.28125 14.25 5.53125 14.25 5.75ZM4.46875 5.21875C4.75 4.9375 5.21875 4.9375 5.5 5.21875L8.5 8.21875C8.8125 8.53125 8.8125 9 8.5 9.28125C8.21875 9.59375 7.75 9.59375 7.46875 9.28125L5.75 7.5625V18.25C5.75 18.6875 5.40625 19 5 19C4.5625 19 4.25 18.6875 4.25 18.25V7.5625L2.53125 9.28125C2.21875 9.59375 1.75 9.59375 1.46875 9.28125C1.15625 9 1.15625 8.53125 1.46875 8.25L4.46875 5.25V5.21875ZM13.25 13.5C12.7812 13.5 12.375 13.75 12.1562 14.125C11.9375 14.5312 11.9375 15 12.1562 15.375C12.375 15.7812 12.7812 16 13.25 16C13.6875 16 14.0938 15.7812 14.3125 15.375C14.5312 15 14.5312 14.5312 14.3125 14.125C14.0938 13.75 13.6875 13.5 13.25 13.5ZM12.6875 17.4688C11.4375 17.1875 10.5 16.0938 10.5 14.75C10.5 13.25 11.7188 12 13.25 12C14.75 12 16 13.25 16 14.75C16 15.4375 15.75 16.0625 15.3438 16.5625L13.5625 18.75C13.3125 19.0625 12.8438 19.0938 12.5 18.8438C12.1875 18.5938 12.1562 18.125 12.4062 17.7812L12.6875 17.4688Z" fill="black" fill-opacity="0.72"/>
</g>
<defs>
<clipPath id="clip0_2556_15289">
<rect width="18" height="24" fill="white"/>
</clipPath>
</defs>
</svg>
