<svg width="12" height="18" viewBox="0 0 12 18" fill="none" xmlns="http://www.w3.org/2000/svg">
<g id="label-paired / caption / magnifying-glass-minus-caption / bold" clip-path="url(#clip0_3431_690)">
<path id="icon" d="M4.875 4.625C3.51562 4.625 2.29688 5.35156 1.61719 6.5C0.9375 7.67188 0.9375 9.10156 1.61719 10.25C2.29688 11.4219 3.51562 12.125 4.875 12.125C6.21094 12.125 7.42969 11.4219 8.10938 10.25C8.78906 9.10156 8.78906 7.67188 8.10938 6.5C7.42969 5.35156 6.21094 4.625 4.875 4.625ZM4.875 13.25C2.17969 13.25 0 11.0703 0 8.375C0 5.70312 2.17969 3.5 4.875 3.5C7.54688 3.5 9.75 5.70312 9.75 8.375C9.75 9.52344 9.35156 10.5781 8.69531 11.4219L11.8125 14.5625C12.0469 14.7734 12.0469 15.125 11.8125 15.3359C11.6016 15.5703 11.25 15.5703 11.0391 15.3359L7.89844 12.2188C7.05469 12.875 6 13.25 4.875 13.25ZM3.1875 7.8125H6.5625C6.86719 7.8125 7.125 8.07031 7.125 8.375C7.125 8.70312 6.86719 8.9375 6.5625 8.9375H3.1875C2.85938 8.9375 2.625 8.70312 2.625 8.375C2.625 8.07031 2.85938 7.8125 3.1875 7.8125Z" fill="black" fill-opacity="0.72"/>
</g>
<defs>
<clipPath id="clip0_3431_690">
<rect width="12" height="18" fill="white"/>
</clipPath>
</defs>
</svg>
