<svg width="25" height="30" viewBox="0 0 25 30" fill="none" xmlns="http://www.w3.org/2000/svg">
<g id="label-paired / lg / person-chalkboard-lg / regular" clip-path="url(#clip0_2556_17146)">
<path id="icon" d="M6.5625 7.6875C6.5625 8.23438 6.95312 8.625 7.5 8.625C8.00781 8.625 8.4375 8.23438 8.4375 7.6875C8.4375 7.17969 8.00781 6.75 7.5 6.75C6.95312 6.75 6.5625 7.17969 6.5625 7.6875ZM9.6875 7.6875C9.6875 8.50781 9.25781 9.21094 8.59375 9.60156C7.89062 9.99219 7.07031 9.99219 6.40625 9.60156C5.70312 9.21094 5.3125 8.50781 5.3125 7.6875C5.3125 6.90625 5.70312 6.20312 6.40625 5.8125C7.07031 5.42188 7.89062 5.42188 8.59375 5.8125C9.25781 6.20312 9.6875 6.90625 9.6875 7.6875ZM6.99219 11.75C6.71875 11.75 6.48438 11.8281 6.25 11.9062V18H8.75V11.75H6.99219ZM6.25 24.875C6.25 25.2266 5.9375 25.5 5.625 25.5C5.27344 25.5 5 25.2266 5 24.875V13.4297L3.04688 17.0625C2.89062 17.375 2.5 17.4922 2.1875 17.3359C1.875 17.1406 1.75781 16.7891 1.91406 16.4766L4.21875 12.1797C4.76562 11.1641 5.82031 10.5 6.99219 10.5H9.49219H12.5V7.375C12.5 6.35938 13.3203 5.5 14.375 5.5H23.125C24.1406 5.5 25 6.35938 25 7.375V16.125C25 17.1797 24.1406 18 23.125 18H14.375C13.3203 18 12.5 17.1797 12.5 16.125V13H13.75V16.125C13.75 16.4766 14.0234 16.75 14.375 16.75H23.125C23.4375 16.75 23.75 16.4766 23.75 16.125V7.375C23.75 7.0625 23.4375 6.75 23.125 6.75H14.375C14.0234 6.75 13.75 7.0625 13.75 7.375V10.5H15.625C15.9375 10.5 16.25 10.8125 16.25 11.125C16.25 11.4766 15.9375 11.75 15.625 11.75H10V24.875C10 25.2266 9.6875 25.5 9.375 25.5C9.02344 25.5 8.75 25.2266 8.75 24.875V19.25H6.25V24.875Z" fill="black" fill-opacity="0.72"/>
</g>
<defs>
<clipPath id="clip0_2556_17146">
<rect width="25" height="30" fill="white"/>
</clipPath>
</defs>
</svg>
