<svg width="20" height="30" viewBox="0 0 20 30" fill="none" xmlns="http://www.w3.org/2000/svg">
<g id="label-paired / lg / circle-chevron-right-lg / bold" clip-path="url(#clip0_2556_17349)">
<path id="icon" d="M18.125 15.5C18.125 12.6094 16.5625 9.95312 14.0625 8.46875C11.5234 7.02344 8.4375 7.02344 5.9375 8.46875C3.39844 9.95312 1.875 12.6094 1.875 15.5C1.875 18.4297 3.39844 21.0859 5.9375 22.5703C8.4375 24.0156 11.5234 24.0156 14.0625 22.5703C16.5625 21.0859 18.125 18.4297 18.125 15.5ZM0 15.5C0 11.9453 1.875 8.66406 5 6.86719C8.08594 5.07031 11.875 5.07031 15 6.86719C18.0859 8.66406 20 11.9453 20 15.5C20 19.0938 18.0859 22.375 15 24.1719C11.875 25.9688 8.08594 25.9688 5 24.1719C1.875 22.375 0 19.0938 0 15.5ZM9.41406 20.2266C9.02344 20.6172 8.4375 20.6172 8.08594 20.2266C7.69531 19.875 7.69531 19.2891 8.08594 18.8984L11.4844 15.5L8.08594 12.1016C7.69531 11.75 7.69531 11.1641 8.08594 10.7734C8.4375 10.4219 9.02344 10.4219 9.41406 10.7734L13.4766 14.875C13.8281 15.2266 13.8281 15.8125 13.4766 16.1641L9.41406 20.2266Z" fill="black" fill-opacity="0.72"/>
</g>
<defs>
<clipPath id="clip0_2556_17349">
<rect width="20" height="30" fill="white"/>
</clipPath>
</defs>
</svg>
