<svg width="18" height="22" viewBox="0 0 18 22" fill="none" xmlns="http://www.w3.org/2000/svg">
<g id="label-paired / sm / hand-gesture-tap-left-sm / bold" clip-path="url(#clip0_3546_697)">
<path id="icon" d="M3.99609 9C3.99609 8.04297 4.78906 7.25 5.74609 7.25C6.70312 7.25 7.49609 8.04297 7.49609 9C7.49609 9.30078 7.44141 9.57422 7.30469 9.82031L7.85156 10.9414L7.87891 10.9141C7.90625 10.8867 7.93359 10.8867 7.96094 10.8594C8.31641 10.6953 8.75391 10.75 9.08203 10.9688C9.13672 10.9141 9.21875 10.8867 9.30078 10.832C9.65625 10.668 10.0938 10.7227 10.3945 10.9414C10.4219 10.9141 10.4492 10.9141 10.4492 10.8867C10.4766 10.8867 10.5039 10.8594 10.5312 10.8594C11.0781 10.5859 11.7344 10.832 11.9805 11.3789L12.7461 12.9922C13.2383 14.0039 12.8008 15.2344 11.7617 15.6992L9.82031 16.6289C9.41016 16.8203 8.94531 16.9023 8.50781 16.875H8.45312C7.52344 16.793 6.73047 16.2461 6.32031 15.3984L6.26562 15.2344C6.07422 14.8516 6.04688 14.4141 6.21094 14.0312L6.40234 13.5938C6.42969 13.5117 6.48438 13.4023 6.53906 13.293L5.30859 10.6953C4.57031 10.5039 3.99609 9.82031 3.99609 9ZM5.66406 8.91797C6.01953 8.75391 6.40234 8.78125 6.70312 8.97266C6.70312 8.45312 6.26562 8.04297 5.74609 8.04297C5.22656 8.04297 4.78906 8.48047 4.78906 9C4.78906 9.27344 4.89844 9.51953 5.0625 9.68359C5.14453 9.35547 5.33594 9.08203 5.66406 8.91797ZM7.96094 14.3594L7.93359 14.332C8.01562 14.4688 7.93359 14.6328 7.82422 14.7148C7.66016 14.7695 7.52344 14.7148 7.44141 14.5781L7.14062 13.9219L6.97656 14.332C6.89453 14.5234 6.89453 14.6875 6.97656 14.8789L7.05859 15.043C7.33203 15.6172 7.87891 16 8.50781 16.0547H8.5625C8.89062 16.082 9.19141 16.0273 9.46484 15.8906L11.4336 14.9609C12.0352 14.6875 12.2812 13.9492 12.0078 13.3477L11.2422 11.7344C11.1875 11.5977 10.9961 11.543 10.8867 11.5977C10.832 11.625 10.7773 11.6797 10.75 11.7344C10.668 11.8438 10.5312 11.9258 10.3672 11.9258C10.2305 11.9258 10.0938 11.8438 10.0117 11.707C9.95703 11.5703 9.79297 11.5156 9.65625 11.5703C9.57422 11.625 9.51953 11.6797 9.49219 11.7617C9.46484 11.9258 9.32812 12.0898 9.13672 12.0898C8.97266 12.1172 8.80859 12.0078 8.72656 11.8711L8.67188 11.7344C8.61719 11.5977 8.42578 11.5703 8.31641 11.625C8.23438 11.6523 8.17969 11.707 8.15234 11.8164C8.125 11.9805 7.98828 12.1172 7.79688 12.1172C7.63281 12.1445 7.46875 12.0625 7.38672 11.8984L6.70312 10.4766L6.375 9.73828C6.29297 9.65625 6.12891 9.60156 6.01953 9.65625C5.91016 9.71094 5.85547 9.84766 5.88281 9.95703L6.21094 10.6953L7.96094 14.3594ZM3.25781 4.625C3.03906 4.625 2.875 4.81641 2.875 5.00781V16.5195C2.875 16.7109 3.03906 16.9023 3.25781 16.9023C3.47656 16.9023 3.64062 16.7109 3.64062 16.5195V5.00781C3.64062 4.81641 3.47656 4.625 3.25781 4.625Z" fill="black" fill-opacity="0.72"/>
</g>
<defs>
<clipPath id="clip0_3546_697">
<rect width="18" height="22" fill="white"/>
</clipPath>
</defs>
</svg>
