<svg width="16" height="24" viewBox="0 0 16 24" fill="none" xmlns="http://www.w3.org/2000/svg">
<g id="label-paired / md / cash-register-md / fill" clip-path="url(#clip0_2556_14608)">
<path id="icon" d="M2 4H9C9.53125 4 10 4.46875 10 5V7C10 7.5625 9.53125 8 9 8H6.5V9H13.2812C14.25 9 15.0938 9.75 15.25 10.7188L15.9375 15.375C15.9688 15.5312 16 15.6875 16 15.8438V18C16 19.125 15.0938 20 14 20H2C0.875 20 0 19.125 0 18V15.8438C0 15.6875 0 15.5312 0.03125 15.4062L0.71875 10.7188C0.875 9.75 1.71875 9 2.71875 9H4.5V8H2C1.4375 8 1 7.5625 1 7V5C1 4.46875 1.4375 4 2 4ZM3 5.5C2.71875 5.5 2.5 5.75 2.5 6C2.5 6.28125 2.71875 6.5 3 6.5H8C8.25 6.5 8.5 6.28125 8.5 6C8.5 5.75 8.25 5.5 8 5.5H3ZM2 17.5C2 17.7812 2.21875 18 2.5 18H13.5C13.75 18 14 17.7812 14 17.5C14 17.25 13.75 17 13.5 17H2.5C2.21875 17 2 17.25 2 17.5ZM3.5 12.25C3.90625 12.25 4.25 11.9375 4.25 11.5C4.25 11.0938 3.90625 10.75 3.5 10.75C3.0625 10.75 2.75 11.0938 2.75 11.5C2.75 11.9375 3.0625 12.25 3.5 12.25ZM7.25 11.5C7.25 11.0938 6.90625 10.75 6.5 10.75C6.0625 10.75 5.75 11.0938 5.75 11.5C5.75 11.9375 6.0625 12.25 6.5 12.25C6.90625 12.25 7.25 11.9375 7.25 11.5ZM5 14.75C5.40625 14.75 5.75 14.4375 5.75 14C5.75 13.5938 5.40625 13.25 5 13.25C4.5625 13.25 4.25 13.5938 4.25 14C4.25 14.4375 4.5625 14.75 5 14.75ZM10.25 11.5C10.25 11.0938 9.90625 10.75 9.5 10.75C9.0625 10.75 8.75 11.0938 8.75 11.5C8.75 11.9375 9.0625 12.25 9.5 12.25C9.90625 12.25 10.25 11.9375 10.25 11.5ZM8 14.75C8.40625 14.75 8.75 14.4375 8.75 14C8.75 13.5938 8.40625 13.25 8 13.25C7.5625 13.25 7.25 13.5938 7.25 14C7.25 14.4375 7.5625 14.75 8 14.75ZM13.25 11.5C13.25 11.0938 12.9062 10.75 12.5 10.75C12.0625 10.75 11.75 11.0938 11.75 11.5C11.75 11.9375 12.0625 12.25 12.5 12.25C12.9062 12.25 13.25 11.9375 13.25 11.5ZM11 14.75C11.4062 14.75 11.75 14.4375 11.75 14C11.75 13.5938 11.4062 13.25 11 13.25C10.5625 13.25 10.25 13.5938 10.25 14C10.25 14.4375 10.5625 14.75 11 14.75Z" fill="black" fill-opacity="0.72"/>
</g>
<defs>
<clipPath id="clip0_2556_14608">
<rect width="16" height="24" fill="white"/>
</clipPath>
</defs>
</svg>
