<svg width="20" height="30" viewBox="0 0 20 30" fill="none" xmlns="http://www.w3.org/2000/svg">
<g id="label-paired / lg / barcode-lg / bold" clip-path="url(#clip0_2556_17288)">
<path id="icon" d="M0.9375 6.75C1.44531 6.75 1.875 7.17969 1.875 7.6875V23.3125C1.875 23.8594 1.44531 24.25 0.9375 24.25C0.390625 24.25 0 23.8594 0 23.3125V7.6875C0 7.17969 0.390625 6.75 0.9375 6.75ZM4.375 6.75C4.6875 6.75 5 7.0625 5 7.375V23.625C5 23.9766 4.6875 24.25 4.375 24.25C4.02344 24.25 3.75 23.9766 3.75 23.625V7.375C3.75 7.0625 4.02344 6.75 4.375 6.75ZM7.1875 6.75C7.69531 6.75 8.125 7.17969 8.125 7.6875V23.3125C8.125 23.8594 7.69531 24.25 7.1875 24.25C6.64062 24.25 6.25 23.8594 6.25 23.3125V7.6875C6.25 7.17969 6.64062 6.75 7.1875 6.75ZM11.5625 6.75C12.0703 6.75 12.5 7.17969 12.5 7.6875V23.3125C12.5 23.8594 12.0703 24.25 11.5625 24.25C11.0156 24.25 10.625 23.8594 10.625 23.3125V7.6875C10.625 7.17969 11.0156 6.75 11.5625 6.75ZM18.125 7.6875C18.125 7.17969 18.5156 6.75 19.0625 6.75C19.5703 6.75 20 7.17969 20 7.6875V23.3125C20 23.8594 19.5703 24.25 19.0625 24.25C18.5156 24.25 18.125 23.8594 18.125 23.3125V7.6875ZM15.625 7.375C15.625 7.0625 15.8984 6.75 16.25 6.75C16.5625 6.75 16.875 7.0625 16.875 7.375V23.625C16.875 23.9766 16.5625 24.25 16.25 24.25C15.8984 24.25 15.625 23.9766 15.625 23.625V7.375Z" fill="black" fill-opacity="0.72"/>
</g>
<defs>
<clipPath id="clip0_2556_17288">
<rect width="20" height="30" fill="white"/>
</clipPath>
</defs>
</svg>
