<svg width="20" height="30" viewBox="0 0 20 30" fill="none" xmlns="http://www.w3.org/2000/svg">
<g id="label-paired / lg / thumbs-down-lg / bold" clip-path="url(#clip0_2362_627)">
<path id="icon" d="M12.6562 24.1328C11.875 24.3411 11.1589 24.263 10.5078 23.8984C9.85677 23.5339 9.41406 22.974 9.17969 22.2188L8.94531 21.4375C8.78906 20.9167 8.54167 20.4609 8.20312 20.0703L6.17188 17.8438C5.83333 17.401 5.85938 16.9714 6.25 16.5547C6.71875 16.1901 7.16146 16.2031 7.57812 16.5938L9.57031 18.8203C10.1172 19.4193 10.5078 20.1224 10.7422 20.9297L10.9766 21.7109C11.1849 22.2318 11.5755 22.4401 12.1484 22.3359C12.6693 22.1276 12.8776 21.737 12.7734 21.1641L12.5391 20.3828C12.3307 19.6016 11.9922 18.8854 11.5234 18.2344C11.3151 17.9219 11.2891 17.5964 11.4453 17.2578C11.6276 16.9453 11.901 16.776 12.2656 16.75H17.5C17.8906 16.724 18.099 16.5156 18.125 16.125C18.099 15.8385 17.9688 15.6432 17.7344 15.5391C17.4219 15.4089 17.2266 15.1875 17.1484 14.875C17.0703 14.5625 17.1354 14.2891 17.3438 14.0547C17.4479 13.9245 17.5 13.7812 17.5 13.625C17.474 13.2865 17.3047 13.0781 16.9922 13C16.6536 12.9219 16.4193 12.7266 16.2891 12.4141C16.1849 12.0755 16.237 11.776 16.4453 11.5156C16.5234 11.4115 16.5625 11.2812 16.5625 11.125C16.5365 10.8385 16.4062 10.6432 16.1719 10.5391C15.6771 10.3047 15.4818 9.92708 15.5859 9.40625C15.612 9.35417 15.625 9.30208 15.625 9.25C15.599 8.85938 15.3906 8.65104 15 8.625H11.2109C10.6901 8.625 10.2214 8.76823 9.80469 9.05469L7.38281 10.6562C6.88802 10.9167 6.45833 10.8255 6.09375 10.3828C5.80729 9.88802 5.89844 9.45833 6.36719 9.09375L8.75 7.49219C9.50521 6.9974 10.3255 6.75 11.2109 6.75H15C15.7031 6.75 16.2891 6.98438 16.7578 7.45312C17.2266 7.89583 17.474 8.46875 17.5 9.17188C18.099 9.64062 18.4115 10.2917 18.4375 11.125C18.4375 11.3073 18.4245 11.4766 18.3984 11.6328C19.0234 12.1016 19.349 12.7656 19.375 13.625C19.375 13.8854 19.3359 14.1328 19.2578 14.3672C19.7266 14.8359 19.974 15.4219 20 16.125C19.974 16.8281 19.7266 17.4141 19.2578 17.8828C18.7891 18.3516 18.2031 18.599 17.5 18.625H13.9062C14.0885 19.0417 14.2448 19.4583 14.375 19.875L14.5703 20.6562C14.7786 21.4375 14.7005 22.1536 14.3359 22.8047C13.9714 23.4557 13.4115 23.8984 12.6562 24.1328ZM1.25 20.5C0.885417 20.5 0.585938 20.3828 0.351562 20.1484C0.117188 19.9141 0 19.6146 0 19.25V10.5C0 10.1354 0.117188 9.83594 0.351562 9.60156C0.585938 9.36719 0.885417 9.25 1.25 9.25H3.75C4.11458 9.25 4.41406 9.36719 4.64844 9.60156C4.88281 9.83594 5 10.1354 5 10.5V19.25C5 19.6146 4.88281 19.9141 4.64844 20.1484C4.41406 20.3828 4.11458 20.5 3.75 20.5H1.25Z" fill="black" fill-opacity="0.72"/>
</g>
<defs>
<clipPath id="clip0_2362_627">
<rect width="20" height="30" fill="white"/>
</clipPath>
</defs>
</svg>
