<svg width="30" height="36" viewBox="0 0 30 36" fill="none" xmlns="http://www.w3.org/2000/svg">
<g id="label-paired / xl / hand-gesture-tap-left-xl / fill" clip-path="url(#clip0_3546_720)">
<path id="icon" d="M9.51562 14.9531C10.125 14.6719 10.8281 14.9531 11.1094 15.5156L12.9844 19.4531C13.0781 19.125 13.3125 18.8906 13.6406 18.7031C14.2969 18.4219 15.0938 18.6562 15.4688 19.3125C15.6094 18.9844 15.8438 18.7031 16.1719 18.5625C16.8281 18.2344 17.625 18.5156 17.9531 19.1719C18.0938 18.8438 18.3281 18.5625 18.7031 18.375C19.3594 18.0469 20.25 18.375 20.5781 19.0781L21.75 21.6094C22.6406 23.4844 21.8438 25.7344 19.9688 26.5781L16.8281 28.0781C15.8438 28.5469 14.7188 28.6875 13.6875 28.4062L13.5 28.3594C12.375 28.0781 11.4844 27.3281 11.0156 26.2969L10.5469 25.3125C10.3125 24.7969 10.3125 24.2344 10.5469 23.7188L10.8281 23.0625C10.875 23.0156 10.9219 22.9219 10.9688 22.875L11.625 24.3281C11.7656 24.5625 12.0469 24.6562 12.2812 24.5625C12.4688 24.4688 12.6094 24.1875 12.4688 23.9531L8.95312 16.5C8.67188 15.9375 8.90625 15.2344 9.51562 14.9531ZM12.5156 16.9219C12.75 16.5 12.8906 15.9844 12.8906 15.4688C12.8906 13.8281 11.5312 12.4688 9.89062 12.4688C8.25 12.4688 6.89062 13.8281 6.89062 15.4688C6.89062 16.8281 7.78125 18 9.04688 18.375L8.34375 16.9219C7.92188 15.9844 8.29688 14.8594 9.23438 14.3906C10.1719 13.9688 11.2969 14.3906 11.7656 15.2812L12.5156 16.9219ZM5.39062 7.5C5.85938 7.5 6.28125 7.92188 6.28125 8.4375V27.6094C6.28125 28.125 5.85938 28.5 5.39062 28.5C4.875 28.5 4.5 28.125 4.5 27.6094V8.4375C4.5 7.92188 4.875 7.5 5.39062 7.5Z" fill="black" fill-opacity="0.72"/>
</g>
<defs>
<clipPath id="clip0_3546_720">
<rect width="30" height="36" fill="white"/>
</clipPath>
</defs>
</svg>
