<svg width="15" height="18" viewBox="0 0 15 18" fill="none" xmlns="http://www.w3.org/2000/svg">
<g id="label-paired / caption / user-minus-caption / regular" clip-path="url(#clip0_3327_842)">
<path id="icon" d="M5.25 4.25C4.42969 4.25 3.70312 4.69531 3.28125 5.375C2.88281 6.07812 2.88281 6.94531 3.28125 7.625C3.70312 8.32812 4.42969 8.75 5.25 8.75C6.04688 8.75 6.77344 8.32812 7.19531 7.625C7.59375 6.94531 7.59375 6.07812 7.19531 5.375C6.77344 4.69531 6.04688 4.25 5.25 4.25ZM5.25 9.5C4.17188 9.5 3.1875 8.9375 2.64844 8C2.10938 7.08594 2.10938 5.9375 2.64844 5C3.1875 4.08594 4.17188 3.5 5.25 3.5C6.30469 3.5 7.28906 4.08594 7.82812 5C8.36719 5.9375 8.36719 7.08594 7.82812 8C7.28906 8.9375 6.30469 9.5 5.25 9.5ZM4.17188 11.375C2.29688 11.375 0.773438 12.8984 0.75 14.75H9.75C9.70312 12.8984 8.17969 11.375 6.30469 11.375H4.17188ZM4.17188 10.625H6.30469C8.625 10.625 10.5 12.5 10.5 14.8203C10.5 15.1953 10.1719 15.5 9.79688 15.5H0.679688C0.304688 15.5 0 15.1953 0 14.8203C0 12.5 1.85156 10.625 4.17188 10.625ZM10.125 8.75H14.625C14.8125 8.75 15 8.9375 15 9.125C15 9.33594 14.8125 9.5 14.625 9.5H10.125C9.91406 9.5 9.75 9.33594 9.75 9.125C9.75 8.9375 9.91406 8.75 10.125 8.75Z" fill="black" fill-opacity="0.72"/>
</g>
<defs>
<clipPath id="clip0_3327_842">
<rect width="15" height="18" fill="white"/>
</clipPath>
</defs>
</svg>
