<svg width="23" height="30" viewBox="0 0 23 30" fill="none" xmlns="http://www.w3.org/2000/svg">
<g id="label-paired / lg / android-lg" clip-path="url(#clip0_2556_17061)">
<path id="icon" d="M16.6562 17.2969C17.1641 17.2969 17.5938 16.9062 17.5938 16.3594C17.5938 15.8516 17.1641 15.4219 16.6562 15.4219C16.1484 15.4219 15.7188 15.8516 15.7188 16.3594C15.7188 16.9062 16.1484 17.2969 16.6562 17.2969ZM6.30469 17.2969C6.8125 17.2969 7.24219 16.9062 7.24219 16.3594C7.24219 15.8516 6.8125 15.4219 6.30469 15.4219C5.79688 15.4219 5.36719 15.8516 5.36719 16.3594C5.36719 16.9062 5.79688 17.2969 6.30469 17.2969ZM17.0078 11.6719C20.2109 13.4297 22.3984 16.6719 22.75 20.5H0.25C0.5625 16.6719 2.75 13.4297 5.95312 11.6719L4.07812 8.42969C4 8.3125 4 8.15625 4.07812 8.03906C4.15625 7.88281 4.27344 7.80469 4.42969 7.80469C4.58594 7.80469 4.70312 7.92188 4.78125 8.03906L6.65625 11.3203C9.74219 9.95312 13.2188 9.95312 16.3047 11.3203L18.1797 8.03906C18.2578 7.92188 18.375 7.80469 18.5312 7.80469C18.6875 7.80469 18.8047 7.88281 18.8828 8.03906C18.9609 8.15625 18.9609 8.3125 18.8828 8.42969L17.0078 11.6719Z" fill="black" fill-opacity="0.72"/>
</g>
<defs>
<clipPath id="clip0_2556_17061">
<rect width="23" height="30" fill="white"/>
</clipPath>
</defs>
</svg>
