<svg width="12" height="18" viewBox="0 0 12 18" fill="none" xmlns="http://www.w3.org/2000/svg">
<g id="label-paired / caption / arrow-rotate-left-caption / bold" clip-path="url(#clip0_3431_725)">
<path id="icon" d="M0.9375 8.75C0.609375 8.75 0.375 8.51562 0.375 8.1875V4.8125C0.375 4.50781 0.609375 4.25 0.9375 4.25C1.24219 4.25 1.5 4.50781 1.5 4.8125V6.71094L1.96875 6.14844C2.92969 5 4.35938 4.25 6 4.25C8.88281 4.25 11.25 6.61719 11.25 9.5C11.25 12.4062 8.88281 14.75 6 14.75C4.80469 14.75 3.72656 14.375 2.83594 13.7188C2.60156 13.5312 2.53125 13.1797 2.71875 12.9219C2.90625 12.6641 3.25781 12.6172 3.51562 12.8047C4.19531 13.3203 5.0625 13.625 6 13.625C8.27344 13.625 10.125 11.7969 10.125 9.5C10.125 7.22656 8.27344 5.375 6 5.375C4.71094 5.375 3.58594 5.96094 2.8125 6.875L2.17969 7.625H4.3125C4.61719 7.625 4.875 7.88281 4.875 8.1875C4.875 8.51562 4.61719 8.75 4.3125 8.75H0.9375Z" fill="black" fill-opacity="0.72"/>
</g>
<defs>
<clipPath id="clip0_3431_725">
<rect width="12" height="18" fill="white"/>
</clipPath>
</defs>
</svg>
