<svg width="16" height="24" viewBox="0 0 16 24" fill="none" xmlns="http://www.w3.org/2000/svg">
<g id="label-paired / md / scissors-md / bold" clip-path="url(#clip0_2556_14735)">
<path id="icon" d="M15.8125 17.75C15.5312 18.0625 15.0625 18.0938 14.75 17.8438L9.75 13.6562L10.9062 12.6562L15.7188 16.6875C16.0312 16.9688 16.0625 17.4375 15.8125 17.75ZM3.5 5.5C2.78125 5.5 2.125 5.90625 1.75 6.5C1.40625 7.125 1.40625 7.90625 1.75 8.5C2.125 9.125 2.78125 9.5 3.5 9.5C4.1875 9.5 4.84375 9.125 5.21875 8.5C5.5625 7.90625 5.5625 7.125 5.21875 6.5C4.84375 5.90625 4.1875 5.5 3.5 5.5ZM3.5 4C5.40625 4 7 5.59375 7 7.5C7 8.0625 6.84375 8.59375 6.625 9.0625L8.96875 11.0312L14.75 6.1875C15.0625 5.9375 15.5312 5.96875 15.8125 6.28125C16.0625 6.59375 16.0312 7.0625 15.7188 7.34375L6.625 14.9688C6.84375 15.4375 7 15.9688 7 16.5C7 18.4375 5.40625 20 3.5 20C1.5625 20 0 18.4375 0 16.5C0 14.5938 1.5625 13 3.5 13C4.3125 13 5.09375 13.3125 5.6875 13.7812L7.8125 12L5.6875 10.25C5.09375 10.7188 4.3125 11 3.5 11C1.5625 11 0 9.4375 0 7.5C0 5.59375 1.5625 4 3.5 4ZM5.5 16.5C5.5 15.8125 5.09375 15.1562 4.5 14.7812C3.875 14.4375 3.09375 14.4375 2.5 14.7812C1.875 15.1562 1.5 15.8125 1.5 16.5C1.5 17.2188 1.875 17.875 2.5 18.25C3.09375 18.5938 3.875 18.5938 4.5 18.25C5.09375 17.875 5.5 17.2188 5.5 16.5Z" fill="black" fill-opacity="0.72"/>
</g>
<defs>
<clipPath id="clip0_2556_14735">
<rect width="16" height="24" fill="white"/>
</clipPath>
</defs>
</svg>
