<svg width="30" height="36" viewBox="0 0 30 36" fill="none" xmlns="http://www.w3.org/2000/svg">
<g id="label-paired / xl / fiat-offramp-xl / fill" clip-path="url(#clip0_2556_19866)">
<path id="icon" d="M8.20312 10.5V11.5312H10.2188C10.5 11.5312 10.7344 11.2969 10.7344 11.0156C10.7344 10.7344 10.5 10.5 10.2188 10.5H8.20312ZM8.20312 12.5156V13.5H10.2188C10.5 13.5 10.7344 13.2656 10.7344 12.9844C10.7344 12.75 10.5 12.5156 10.2188 12.5156H8.20312ZM20.7656 17.625C24.1875 17.625 27 20.3906 27 23.8125C27 27.2344 24.1875 30 20.7656 30H6.98438C4.78125 30 3 28.2188 3 26.0156V12.2344C3 8.8125 5.76562 6 9.1875 6C12.6094 6 15.375 8.8125 15.375 12.2344C15.375 12.75 15.3281 13.2656 15.1875 13.7344L19.2656 17.8125C19.7344 17.6719 20.25 17.625 20.7656 17.625ZM5.25 26.0156C5.25 26.9531 6.04688 27.75 6.98438 27.75H15.9844C15.0938 26.7188 14.5781 25.3125 14.5781 23.8125C14.5781 21.7969 15.5625 19.9688 17.1094 18.8438L14.1562 15.8906C13.0312 17.4375 11.25 18.4219 9.1875 18.4219C7.6875 18.4219 6.28125 17.9062 5.25 17.0156V26.0156ZM8.20312 9.51562V8.48438H7.21875V9.51562H6.23438V10.5H7.21875V13.5H6.23438V14.5312H7.21875V15.5156H8.20312V14.5312H9.23438V15.5156H10.2188V14.5312C11.0156 14.5312 11.7188 13.875 11.7188 13.0312C11.7188 12.6562 11.5781 12.2812 11.2969 12C11.8594 11.3906 11.8125 10.4531 11.2031 9.89062C10.9219 9.65625 10.5938 9.51562 10.2188 9.51562V8.48438H9.23438V9.51562H8.20312ZM21.6094 20.8125V20.25H20.3438V20.8125C19.5469 21.0469 19.0312 21.7969 19.0312 22.6406C19.0312 23.7188 19.875 24.6094 20.9531 24.6094C21.375 24.6094 21.7031 24.9375 21.7031 25.3594C21.7031 25.7344 21.375 26.0625 20.9531 26.0625C20.5781 26.0625 20.25 25.7344 20.25 25.3594V25.1719H19.0312V25.3594C19.0312 26.2031 19.5469 26.9531 20.3438 27.1875V27.75H21.6094V27.1875C22.4062 26.9531 22.9219 26.2031 22.9219 25.3594C22.9219 24.2812 22.0312 23.3906 20.9531 23.3906C20.5781 23.3906 20.25 23.0625 20.25 22.6406C20.25 22.2656 20.5781 21.9375 20.9531 21.9375C21.375 21.9375 21.7031 22.2656 21.7031 22.6406V22.8281H22.9219V22.6406C22.9219 21.7969 22.4062 21.0469 21.6094 20.8125ZM22.6406 11.4844V15.8438C22.6406 16.3125 22.3594 16.6875 21.9375 16.875C21.5156 17.0625 21.0469 16.9688 20.7188 16.6406L16.3594 12.2812C15.9375 11.8594 15.9375 11.1562 16.3594 10.6875C16.7812 10.2656 17.5312 10.2656 17.9531 10.6875L20.3906 13.125V11.4844C20.3906 10.875 20.8594 10.3594 21.5156 10.3594C22.125 10.3594 22.6406 10.875 22.6406 11.4844Z" fill="black" fill-opacity="0.72"/>
</g>
<defs>
<clipPath id="clip0_2556_19866">
<rect width="30" height="36" fill="white"/>
</clipPath>
</defs>
</svg>
