<svg width="16" height="24" viewBox="0 0 16 24" fill="none" xmlns="http://www.w3.org/2000/svg">
<g id="label-paired / md / sliders-md / bold" clip-path="url(#clip0_3758_514)">
<path id="icon" d="M0 17C0 16.5938 0.3125 16.25 0.75 16.25H2.59375C2.90625 15.25 3.875 14.5 5 14.5C6.09375 14.5 7.0625 15.25 7.375 16.25H15.25C15.6562 16.25 16 16.5938 16 17C16 17.4375 15.6562 17.75 15.25 17.75H7.375C7.0625 18.7812 6.09375 19.5 5 19.5C3.875 19.5 2.90625 18.7812 2.59375 17.75H0.75C0.3125 17.75 0 17.4375 0 17ZM4 17C4 17.5625 4.4375 18 5 18C5.53125 18 6 17.5625 6 17C6 16.4688 5.53125 16 5 16C4.4375 16 4 16.4688 4 17ZM10 12C10 12.5625 10.4375 13 11 13C11.5312 13 12 12.5625 12 12C12 11.4688 11.5312 11 11 11C10.4375 11 10 11.4688 10 12ZM11 9.5C12.0938 9.5 13.0625 10.25 13.375 11.25H15.25C15.6562 11.25 16 11.5938 16 12C16 12.4375 15.6562 12.75 15.25 12.75H13.375C13.0625 13.7812 12.0938 14.5 11 14.5C9.875 14.5 8.90625 13.7812 8.59375 12.75H0.75C0.3125 12.75 0 12.4375 0 12C0 11.5938 0.3125 11.25 0.75 11.25H8.59375C8.90625 10.25 9.875 9.5 11 9.5ZM6 8C6.53125 8 7 7.5625 7 7C7 6.46875 6.53125 6 6 6C5.4375 6 5 6.46875 5 7C5 7.5625 5.4375 8 6 8ZM8.375 6.25H15.25C15.6562 6.25 16 6.59375 16 7C16 7.4375 15.6562 7.75 15.25 7.75H8.375C8.0625 8.78125 7.09375 9.5 6 9.5C4.875 9.5 3.90625 8.78125 3.59375 7.75H0.75C0.3125 7.75 0 7.4375 0 7C0 6.59375 0.3125 6.25 0.75 6.25H3.59375C3.90625 5.25 4.875 4.5 6 4.5C7.09375 4.5 8.0625 5.25 8.375 6.25Z" fill="black" fill-opacity="0.72"/>
</g>
<defs>
<clipPath id="clip0_3758_514">
<rect width="16" height="24" fill="white"/>
</clipPath>
</defs>
</svg>
