<svg width="16" height="24" viewBox="0 0 16 24" fill="none" xmlns="http://www.w3.org/2000/svg">
<g id="label-paired / md / arrows-rotate-md / bold" clip-path="url(#clip0_2556_15123)">
<path id="icon" d="M2.9375 9.875C2.75 10.25 2.3125 10.4062 1.9375 10.25C1.5625 10.0938 1.375 9.65625 1.53125 9.28125C2.59375 6.78125 5.09375 5 8 5C9.625 5 11.1875 5.65625 12.3438 6.8125L14 8.46875V6.75C14 6.34375 14.3125 6 14.75 6C15.1562 6 15.5 6.34375 15.5 6.75V10.25C15.5 10.6875 15.1562 11 14.75 11H11.25C10.8125 11 10.5 10.6875 10.5 10.25C10.5 9.84375 10.8125 9.5 11.25 9.5H12.9375L11.2812 7.875C10.4062 7 9.21875 6.5 8 6.5C5.71875 6.5 3.75 7.90625 2.9375 9.875ZM14.4375 14.7812C13.3438 17.25 10.875 19 8 19C6.34375 19 4.78125 18.375 3.625 17.1875L2 15.5625V17.25C2 17.6875 1.65625 18 1.25 18C0.8125 18 0.5 17.6875 0.5 17.25V13.75C0.5 13.3438 0.8125 13 1.25 13H4.75C5.15625 13 5.5 13.3438 5.5 13.75C5.5 14.1875 5.15625 14.5 4.75 14.5H3.03125L4.6875 16.1562C5.5625 17.0312 6.75 17.5 8 17.5C10.25 17.5 12.2188 16.1562 13.0312 14.1875C13.2188 13.7812 13.6562 13.625 14.0312 13.7812C14.4062 13.9375 14.5938 14.375 14.4375 14.7812Z" fill="black" fill-opacity="0.72"/>
</g>
<defs>
<clipPath id="clip0_2556_15123">
<rect width="16" height="24" fill="white"/>
</clipPath>
</defs>
</svg>
