<svg width="18" height="30" viewBox="0 0 18 30" fill="none" xmlns="http://www.w3.org/2000/svg">
<g id="label-paired / lg / trash-lg / fill" clip-path="url(#clip0_2556_17284)">
<path id="icon" d="M5.52344 6.20312C5.71875 5.77344 6.14844 5.5 6.61719 5.5H11.3438C11.8125 5.5 12.2422 5.77344 12.4375 6.20312L12.75 6.75H16.5C17.1641 6.75 17.75 7.33594 17.75 8C17.75 8.70312 17.1641 9.25 16.5 9.25H1.5C0.796875 9.25 0.25 8.70312 0.25 8C0.25 7.33594 0.796875 6.75 1.5 6.75H5.25L5.52344 6.20312ZM16.5 10.5L15.6406 23.7422C15.6016 24.7578 14.7812 25.5 13.7656 25.5H4.19531C3.17969 25.5 2.35938 24.7578 2.32031 23.7422L1.5 10.5H16.5Z" fill="black" fill-opacity="0.72"/>
</g>
<defs>
<clipPath id="clip0_2556_17284">
<rect width="18" height="30" fill="white"/>
</clipPath>
</defs>
</svg>
