<svg width="14" height="24" viewBox="0 0 14 24" fill="none" xmlns="http://www.w3.org/2000/svg">
<g id="label-paired / md / arrow-right-arrow-left-md / bold" clip-path="url(#clip0_2556_14852)">
<path id="icon" d="M3.21875 19.5312L0.21875 16.5312C-0.09375 16.25 -0.09375 15.7812 0.21875 15.4688L3.21875 12.5C3.5 12.1875 3.96875 12.1875 4.25 12.5C4.5625 12.7812 4.5625 13.25 4.25 13.5312L2.53125 15.25H13.25C13.6562 15.25 14 15.5938 14 16C14 16.4375 13.6562 16.75 13.25 16.75L2.53125 16.7812L4.25 18.5C4.5625 18.7812 4.5625 19.25 4.25 19.5312C3.96875 19.8438 3.5 19.8438 3.21875 19.5312ZM13.7812 8.53125L10.7812 11.5312C10.4688 11.8438 10 11.8438 9.71875 11.5312C9.40625 11.25 9.40625 10.7812 9.71875 10.4688L11.4375 8.75H0.75C0.3125 8.75 0 8.4375 0 8C0 7.59375 0.3125 7.25 0.75 7.25H11.4375L9.71875 5.53125C9.40625 5.25 9.40625 4.78125 9.71875 4.46875C10 4.1875 10.4688 4.1875 10.7812 4.46875L13.7812 7.5C14.0625 7.78125 14.0625 8.25 13.7812 8.53125Z" fill="black" fill-opacity="0.72"/>
</g>
<defs>
<clipPath id="clip0_2556_14852">
<rect width="14" height="24" fill="white"/>
</clipPath>
</defs>
</svg>
