<svg width="23" height="30" viewBox="0 0 23 30" fill="none" xmlns="http://www.w3.org/2000/svg">
<g id="label-paired / lg / arrow-down-one-nine-lg / fill" clip-path="url(#clip0_2556_17235)">
<path id="icon" d="M17.8281 6.98438C18.1797 7.25781 18.375 7.60938 18.375 8V11.75H19C19.6641 11.75 20.25 12.3359 20.25 13C20.25 13.7031 19.6641 14.25 19 14.25H17.125H15.25C14.5469 14.25 14 13.7031 14 13C14 12.3359 14.5469 11.75 15.25 11.75H15.875V9.75781L15.6406 9.83594C14.9766 10.0312 14.2734 9.67969 14.0391 9.05469C13.8438 8.39062 14.1953 7.6875 14.8203 7.45312L16.6953 6.82812C17.0859 6.71094 17.5156 6.75 17.8281 6.98438ZM6.5 24.25C6.14844 24.25 5.79688 24.1328 5.5625 23.8594L2.125 20.1094C1.65625 19.6016 1.69531 18.8203 2.20312 18.3516C2.71094 17.8828 3.49219 17.9219 3.96094 18.4297L5.25 19.7969V8C5.25 7.33594 5.79688 6.75 6.5 6.75C7.16406 6.75 7.75 7.33594 7.75 8V19.7969L9 18.4297C9.46875 17.9219 10.25 17.8828 10.7578 18.3516C11.2656 18.8203 11.3047 19.6016 10.8359 20.1094L7.39844 23.8594C7.16406 24.1328 6.85156 24.25 6.5 24.25ZM16.5781 17.4922C15.9531 17.8047 15.6797 18.5469 15.9922 19.1719C16.2656 19.7969 17.0078 20.0703 17.6328 19.7578C18.2578 19.4844 18.5312 18.7422 18.2188 18.1172C17.9453 17.4922 17.2031 17.2188 16.5781 17.4922ZM16.0703 21.9062C14.6641 21.4766 13.6875 20.1875 13.6875 18.6641C13.6875 16.75 15.2109 15.2266 17.125 15.2266C19 15.2266 20.5625 16.75 20.5625 18.6641C20.5625 19.5625 20.25 20.4609 19.7031 21.2031L17.7891 23.7812C17.3984 24.3281 16.6172 24.4453 16.0703 24.0156C15.4844 23.625 15.3672 22.8438 15.7969 22.2578L16.0703 21.9062Z" fill="black" fill-opacity="0.72"/>
</g>
<defs>
<clipPath id="clip0_2556_17235">
<rect width="23" height="30" fill="white"/>
</clipPath>
</defs>
</svg>
