<svg width="16" height="24" viewBox="0 0 16 24" fill="none" xmlns="http://www.w3.org/2000/svg">
<g id="label-paired / md / gauge-min-md / bold" clip-path="url(#clip0_2556_15095)">
<path id="icon" d="M8 5.5C5.65625 5.5 3.53125 6.75 2.34375 8.75C1.1875 10.7812 1.1875 13.25 2.34375 15.25C3.53125 17.2812 5.65625 18.5 8 18.5C10.3125 18.5 12.4375 17.2812 13.625 15.25C14.7812 13.25 14.7812 10.7812 13.625 8.75C12.4375 6.75 10.3125 5.5 8 5.5ZM8 20C5.125 20 2.5 18.5 1.0625 16C-0.375 13.5312 -0.375 10.5 1.0625 8C2.5 5.53125 5.125 4 8 4C10.8438 4 13.4688 5.53125 14.9062 8C16.3438 10.5 16.3438 13.5312 14.9062 16C13.4688 18.5 10.8438 20 8 20ZM9 7.5C9 8.0625 8.53125 8.5 8 8.5C7.4375 8.5 7 8.0625 7 7.5C7 6.96875 7.4375 6.5 8 6.5C8.53125 6.5 9 6.96875 9 7.5ZM8 16.75V16.7812C7.03125 16.7812 6.25 15.9688 6.25 15.0312C6.25 14.9375 6.25 14.8438 6.25 14.75L2.8125 12.375C2.46875 12.1562 2.375 11.6875 2.625 11.3438C2.84375 11 3.3125 10.9062 3.65625 11.1562L7.09375 13.5C7.375 13.3438 7.65625 13.25 8 13.25C8.9375 13.25 9.75 14.0625 9.75 15C9.75 15.9688 8.9375 16.75 8 16.75ZM6 9C6 9.5625 5.53125 10 5 10C4.4375 10 4 9.5625 4 9C4 8.46875 4.4375 8 5 8C5.53125 8 6 8.46875 6 9ZM12.5 13C11.9375 13 11.5 12.5625 11.5 12C11.5 11.4688 11.9375 11 12.5 11C13.0312 11 13.5 11.4688 13.5 12C13.5 12.5625 13.0312 13 12.5 13ZM12 9C12 9.5625 11.5312 10 11 10C10.4375 10 10 9.5625 10 9C10 8.46875 10.4375 8 11 8C11.5312 8 12 8.46875 12 9Z" fill="black" fill-opacity="0.72"/>
</g>
<defs>
<clipPath id="clip0_2556_15095">
<rect width="16" height="24" fill="white"/>
</clipPath>
</defs>
</svg>
