<svg width="20" height="30" viewBox="0 0 20 30" fill="none" xmlns="http://www.w3.org/2000/svg">
<g id="label-paired / lg / circle-zero-lg / fill" clip-path="url(#clip0_2556_17273)">
<path id="icon" d="M10 25.5C6.40625 25.5 3.125 23.625 1.32812 20.5C-0.46875 17.4141 -0.46875 13.625 1.32812 10.5C3.125 7.41406 6.40625 5.5 10 5.5C13.5547 5.5 16.8359 7.41406 18.6328 10.5C20.4297 13.625 20.4297 17.4141 18.6328 20.5C16.8359 23.625 13.5547 25.5 10 25.5ZM10 10.5C7.92969 10.5 6.25 12.1797 6.25 14.25V16.75C6.25 18.8203 7.92969 20.5 10 20.5C12.0703 20.5 13.75 18.8203 13.75 16.75V14.25C13.75 12.1797 12.0703 10.5 10 10.5ZM8.125 14.25C8.125 13.2344 8.94531 12.375 10 12.375C11.0156 12.375 11.875 13.2344 11.875 14.25V16.75C11.875 17.8047 11.0156 18.625 10 18.625C8.94531 18.625 8.125 17.8047 8.125 16.75V14.25Z" fill="black" fill-opacity="0.72"/>
</g>
<defs>
<clipPath id="clip0_2556_17273">
<rect width="20" height="30" fill="white"/>
</clipPath>
</defs>
</svg>
