<svg width="14" height="22" viewBox="0 0 14 22" fill="none" xmlns="http://www.w3.org/2000/svg">
<g id="label-paired / sm / sparkles-sm / bold" clip-path="url(#clip0_5090_433)">
<path id="icon" d="M8.94141 6.10156L10.5 5.5L11.0742 3.96875C11.1016 3.83203 11.2383 3.75 11.375 3.75C11.4844 3.75 11.6211 3.83203 11.6484 3.96875L12.25 5.5L13.7812 6.10156C13.918 6.12891 14 6.26562 14 6.375C14 6.51172 13.918 6.64844 13.7812 6.67578L12.25 7.25L11.6484 8.80859C11.6211 8.91797 11.4844 9 11.375 9C11.2383 9 11.1016 8.91797 11.0742 8.80859L10.5 7.25L8.94141 6.67578C8.83203 6.64844 8.75 6.51172 8.75 6.375C8.75 6.26562 8.83203 6.12891 8.94141 6.10156ZM0.246094 10.3125L0.710938 10.1211L0.929688 10.0117H0.957031L3.36328 8.89062L4.48438 6.45703L4.59375 6.23828L4.8125 5.77344C4.86719 5.60938 5.03125 5.5 5.19531 5.5C5.35938 5.5 5.52344 5.60938 5.60547 5.77344L5.82422 6.23828L5.90625 6.45703L5.93359 6.48438L7.02734 8.89062L9.46094 10.0117L9.67969 10.1211L10.1445 10.3398C10.3086 10.3945 10.418 10.5586 10.418 10.7227C10.418 10.8867 10.3086 11.0508 10.1445 11.1328L9.67969 11.3242L9.46094 11.4336L7.02734 12.5547L5.90625 14.9609V14.9883L5.79688 15.207L5.60547 15.6719C5.52344 15.8359 5.35938 15.9453 5.19531 15.9453C5.03125 15.9453 4.86719 15.8359 4.8125 15.6719L4.59375 15.207L4.48438 14.9883V14.9609L3.36328 12.5547L0.957031 11.4336H0.929688L0.710938 11.3242L0.246094 11.1328C0.0820312 11.0508 0 10.8867 0 10.7227C0 10.5586 0.0820312 10.3945 0.246094 10.3125ZM2.51562 10.7227L3.91016 11.3789C4.18359 11.4883 4.42969 11.7344 4.56641 12.0078L5.19531 13.4023L5.85156 12.0078C5.98828 11.7344 6.20703 11.4883 6.48047 11.3789L7.875 10.7227L6.48047 10.0664C6.20703 9.95703 5.98828 9.71094 5.85156 9.4375L5.19531 8.04297L4.56641 9.4375C4.42969 9.71094 4.18359 9.95703 3.91016 10.0664L2.51562 10.7227ZM10.5 14.25L11.0742 12.7188C11.1016 12.582 11.2383 12.5 11.375 12.5C11.4844 12.5 11.6211 12.582 11.6484 12.7188L12.25 14.25L13.7812 14.8516C13.918 14.8789 14 15.0156 14 15.125C14 15.2617 13.918 15.3984 13.7812 15.4258L12.25 16L11.6484 17.5586C11.6211 17.668 11.4844 17.75 11.375 17.75C11.2383 17.75 11.1016 17.668 11.0742 17.5586L10.5 16L8.94141 15.4258C8.83203 15.3984 8.75 15.2617 8.75 15.125C8.75 15.0156 8.83203 14.8789 8.94141 14.8516L10.5 14.25Z" fill="black" fill-opacity="0.72"/>
</g>
<defs>
<clipPath id="clip0_5090_433">
<rect width="14" height="22" fill="white"/>
</clipPath>
</defs>
</svg>
