<svg width="14" height="22" viewBox="0 0 14 22" fill="none" xmlns="http://www.w3.org/2000/svg">
<g id="label-paired / sm / paste-sm / regular" clip-path="url(#clip0_2556_12462)">
<path id="icon" d="M3.71875 5.17188C3.69141 5.36328 3.5 5.5 3.28125 5.5H3.0625C2.81641 5.5 2.625 5.71875 2.625 5.9375V6.375H6.125V5.9375C6.125 5.71875 5.90625 5.5 5.6875 5.5H5.44141C5.22266 5.5 5.05859 5.36328 5.00391 5.17188C4.94922 4.87109 4.67578 4.625 4.375 4.625C4.04688 4.625 3.77344 4.87109 3.71875 5.17188ZM4.375 3.75C4.97656 3.75 5.49609 4.13281 5.74219 4.625H7C7.95703 4.625 8.75 5.41797 8.75 6.375H7.875C7.875 5.91016 7.46484 5.5 7 5.5H6.91797C6.97266 5.63672 7 5.80078 7 5.9375V6.375C7 6.40234 7 6.42969 7 6.42969C6.45312 6.53906 5.98828 6.83984 5.6875 7.25H2.625C2.13281 7.25 1.75 6.86719 1.75 6.375V5.9375C1.75 5.80078 1.77734 5.63672 1.80469 5.5H1.75C1.25781 5.5 0.875 5.91016 0.875 6.375V14.25C0.875 14.7422 1.25781 15.125 1.75 15.125H5.25V16H1.75C0.765625 16 0 15.2344 0 14.25V6.375C0 5.41797 0.765625 4.625 1.75 4.625H2.98047C3.22656 4.13281 3.74609 3.75 4.375 3.75ZM12.25 16.875C12.7148 16.875 13.125 16.4922 13.125 16V10.4219C13.125 10.3125 13.0703 10.2031 12.9883 10.1211L11.1289 8.26172C11.0469 8.17969 10.9375 8.125 10.8281 8.125H7.875C7.38281 8.125 7 8.53516 7 9V16C7 16.4922 7.38281 16.875 7.875 16.875H12.25ZM13.5898 9.49219C13.8359 9.73828 14 10.0938 14 10.4219V16C14 16.9844 13.207 17.75 12.25 17.75H7.875C6.89062 17.75 6.125 16.9844 6.125 16V9C6.125 8.04297 6.89062 7.25 7.875 7.25H10.8281C11.1562 7.25 11.5117 7.38672 11.7578 7.63281L13.5898 9.49219Z" fill="black" fill-opacity="0.72"/>
</g>
<defs>
<clipPath id="clip0_2556_12462">
<rect width="14" height="22" fill="white"/>
</clipPath>
</defs>
</svg>
