<svg width="14" height="22" viewBox="0 0 14 22" fill="none" xmlns="http://www.w3.org/2000/svg">
<g id="label-paired / sm / circle-envelope-sm / regular" clip-path="url(#clip0_2556_12892)">
<path id="icon" d="M13.125 10.75C13.125 8.5625 11.9492 6.56641 10.0625 5.47266C8.14844 4.35156 5.82422 4.35156 3.9375 5.47266C2.02344 6.56641 0.875 8.5625 0.875 10.75C0.875 12.9648 2.02344 14.9609 3.9375 16.0547C5.82422 17.1758 8.14844 17.1758 10.0625 16.0547C11.9492 14.9609 13.125 12.9648 13.125 10.75ZM0 10.75C0 8.26172 1.3125 5.96484 3.5 4.70703C5.66016 3.44922 8.3125 3.44922 10.5 4.70703C12.6602 5.96484 14 8.26172 14 10.75C14 13.2656 12.6602 15.5625 10.5 16.8203C8.3125 18.0781 5.66016 18.0781 3.5 16.8203C1.3125 15.5625 0 13.2656 0 10.75ZM4.375 8.125H9.625C10.0898 8.125 10.5 8.53516 10.5 9V12.5C10.5 12.9922 10.0898 13.375 9.625 13.375H4.375C3.88281 13.375 3.5 12.9922 3.5 12.5V9C3.5 8.53516 3.88281 8.125 4.375 8.125ZM9.625 9.46484V9H4.375V9.46484L6.78125 10.75C6.83594 10.7773 6.91797 10.8047 7 10.8047C7.05469 10.8047 7.13672 10.7773 7.19141 10.75L9.625 9.46484ZM9.625 10.4492L7.60156 11.5156C7.41016 11.625 7.19141 11.6797 7 11.6797C6.78125 11.6797 6.5625 11.625 6.37109 11.5156L4.375 10.4492V12.5H9.625V10.4492Z" fill="black" fill-opacity="0.72"/>
</g>
<defs>
<clipPath id="clip0_2556_12892">
<rect width="14" height="22" fill="white"/>
</clipPath>
</defs>
</svg>
