<svg width="15" height="30" viewBox="0 0 15 30" fill="none" xmlns="http://www.w3.org/2000/svg">
<g id="label-paired / lg / microphone-lg / regular" clip-path="url(#clip0_2556_16968)">
<path id="icon" d="M10 9.25C10 7.88281 8.86719 6.75 7.5 6.75C6.09375 6.75 5 7.88281 5 9.25V15.5C5 16.9062 6.09375 18 7.5 18C8.86719 18 10 16.9062 10 15.5V9.25ZM3.75 9.25C3.75 7.17969 5.42969 5.5 7.5 5.5C9.57031 5.5 11.25 7.17969 11.25 9.25V15.5C11.25 17.5703 9.57031 19.25 7.5 19.25C5.42969 19.25 3.75 17.5703 3.75 15.5V9.25ZM2.5 13.625V15.5C2.5 18.2734 4.72656 20.5 7.5 20.5C10.2344 20.5 12.5 18.2734 12.5 15.5V13.625C12.5 13.3125 12.7734 13 13.125 13C13.4375 13 13.75 13.3125 13.75 13.625V15.5C13.75 18.7422 11.25 21.4375 8.125 21.75V24.25H10.625C10.9375 24.25 11.25 24.5625 11.25 24.875C11.25 25.2266 10.9375 25.5 10.625 25.5H7.5H4.375C4.02344 25.5 3.75 25.2266 3.75 24.875C3.75 24.5625 4.02344 24.25 4.375 24.25H6.875V21.75C3.71094 21.4375 1.25 18.7422 1.25 15.5V13.625C1.25 13.3125 1.52344 13 1.875 13C2.1875 13 2.5 13.3125 2.5 13.625Z" fill="black" fill-opacity="0.72"/>
</g>
<defs>
<clipPath id="clip0_2556_16968">
<rect width="15" height="30" fill="white"/>
</clipPath>
</defs>
</svg>
