<svg width="14" height="24" viewBox="0 0 14 24" fill="none" xmlns="http://www.w3.org/2000/svg">
<g id="label-paired / md / arrow-down-to-bracket-md / fill" clip-path="url(#clip0_2556_15214)">
<path id="icon" d="M11.6875 10.7188L7.6875 14.7188C7.3125 15.125 6.65625 15.125 6.28125 14.7188L2.28125 10.7188C1.875 10.3438 1.875 9.6875 2.28125 9.3125C2.65625 8.90625 3.3125 8.90625 3.6875 9.3125L6 11.5938V5C6 4.46875 6.4375 4 7 4C7.53125 4 8 4.46875 8 5V11.5938L10.2812 9.3125C10.6562 8.90625 11.3125 8.90625 11.6875 9.3125C12.0938 9.6875 12.0938 10.3438 11.6875 10.7188ZM2 15V17C2 17.5625 2.4375 18 3 18H11C11.5312 18 12 17.5625 12 17V15C12 14.4688 12.4375 14 13 14C13.5312 14 14 14.4688 14 15V17C14 18.6562 12.6562 20 11 20H3C1.34375 20 0 18.6562 0 17V15C0 14.4688 0.4375 14 1 14C1.53125 14 2 14.4688 2 15Z" fill="black" fill-opacity="0.72"/>
</g>
<defs>
<clipPath id="clip0_2556_15214">
<rect width="14" height="24" fill="white"/>
</clipPath>
</defs>
</svg>
