<svg width="23" height="30" viewBox="0 0 23 30" fill="none" xmlns="http://www.w3.org/2000/svg">
<g id="label-paired / lg / money-bill-lg / fill" clip-path="url(#clip0_2556_17648)">
<path id="icon" d="M2.75 8H20.25C21.6172 8 22.75 9.13281 22.75 10.5V20.5C22.75 21.9062 21.6172 23 20.25 23H2.75C1.34375 23 0.25 21.9062 0.25 20.5V10.5C0.25 9.13281 1.34375 8 2.75 8ZM5.25 20.5C5.25 19.1328 4.11719 18 2.75 18V20.5H5.25ZM2.75 13C4.11719 13 5.25 11.9062 5.25 10.5H2.75V13ZM17.75 20.5H20.25V18C18.8438 18 17.75 19.1328 17.75 20.5ZM20.25 13V10.5H17.75C17.75 11.9062 18.8438 13 20.25 13ZM11.5 11.75C10.1328 11.75 8.92188 12.4922 8.21875 13.625C7.55469 14.7969 7.55469 16.2422 8.21875 17.375C8.92188 18.5469 10.1328 19.25 11.5 19.25C12.8281 19.25 14.0391 18.5469 14.7422 17.375C15.4062 16.2422 15.4062 14.7969 14.7422 13.625C14.0391 12.4922 12.8281 11.75 11.5 11.75Z" fill="black" fill-opacity="0.72"/>
</g>
<defs>
<clipPath id="clip0_2556_17648">
<rect width="23" height="30" fill="white"/>
</clipPath>
</defs>
</svg>
