<svg width="15" height="36" viewBox="0 0 15 36" fill="none" xmlns="http://www.w3.org/2000/svg">
<g id="label-paired / xl / forward-step-xl / bold" clip-path="url(#clip0_2556_19315)">
<path id="icon" d="M11.25 10.125C11.25 9.51562 11.7188 9 12.375 9C12.9844 9 13.5 9.51562 13.5 10.125V16.6406V19.4062V25.875C13.5 26.5312 12.9844 27 12.375 27C11.7188 27 11.25 26.5312 11.25 25.875V20.9531L2.95312 26.7656C2.71875 26.9531 2.4375 27 2.15625 27C1.35938 27 0.75 26.3906 0.75 25.5938V10.4531C0.75 9.65625 1.35938 9 2.15625 9C2.4375 9 2.71875 9.09375 2.95312 9.28125L11.25 15.0938V10.125ZM11.25 18.2344V17.8125L3 12.0469V24L11.25 18.2344Z" fill="black" fill-opacity="0.72"/>
</g>
<defs>
<clipPath id="clip0_2556_19315">
<rect width="15" height="36" fill="white"/>
</clipPath>
</defs>
</svg>
