<svg width="20" height="30" viewBox="0 0 20 30" fill="none" xmlns="http://www.w3.org/2000/svg">
<g id="label-paired / lg / arrows-rotate-lg / regular" clip-path="url(#clip0_2556_17501)">
<path id="icon" d="M2.69531 13.7422C2.61719 14.0547 2.34375 14.25 2.07031 14.25C1.67969 14.25 1.36719 13.9375 1.44531 13.5469C2.34375 9.67969 5.82031 6.75 10 6.75C13.1641 6.75 15.9375 8.46875 17.5 11.0078V8.625C17.5 8.3125 17.7734 8 18.125 8C18.4375 8 18.75 8.3125 18.75 8.625V12.375C18.75 12.7266 18.4375 13 18.125 13H17.5H14.375C14.0234 13 13.75 12.7266 13.75 12.375C13.75 12.0625 14.0234 11.75 14.375 11.75H16.4844C15.1953 9.52344 12.7734 8 10 8C6.44531 8 3.47656 10.4609 2.69531 13.7422ZM17.2656 17.2969C17.3438 16.9844 17.6172 16.75 17.9297 16.75C18.2812 16.75 18.5938 17.1016 18.5156 17.4922C17.6172 21.3594 14.1406 24.25 10 24.25C6.79688 24.25 4.02344 22.5703 2.5 20.0312V22.375C2.5 22.7266 2.22656 23 1.875 23C1.52344 23 1.25 22.7266 1.25 22.375V18.625C1.25 18.3125 1.52344 18 1.875 18H2.46094H5.625C5.97656 18 6.25 18.3125 6.25 18.625C6.25 18.9766 5.97656 19.25 5.625 19.25H3.47656C4.76562 21.5156 7.1875 23 10 23C13.5156 23 16.4844 20.5781 17.2656 17.2969Z" fill="black" fill-opacity="0.72"/>
</g>
<defs>
<clipPath id="clip0_2556_17501">
<rect width="20" height="30" fill="white"/>
</clipPath>
</defs>
</svg>
