<svg width="20" height="30" viewBox="0 0 20 30" fill="none" xmlns="http://www.w3.org/2000/svg">
<g id="label-paired / lg / clapperboard-play-lg / bold" clip-path="url(#clip0_3431_942)">
<path id="icon" d="M1.875 21.75C1.875 22.1016 2.14844 22.375 2.5 22.375H17.5C17.8125 22.375 18.125 22.1016 18.125 21.75V13.625H1.875V21.75ZM13.125 11.75H15.625L18.125 9.25C18.125 8.9375 17.8125 8.625 17.5 8.625H16.25L13.125 11.75ZM9.375 11.75L12.5 8.625H10L6.875 11.75H9.375ZM3.125 11.75L6.25 8.625H3.75L1.875 10.5V11.75H3.125ZM20 9.25V11.75V12.6875V13.625V21.75C20 23.1562 18.8672 24.25 17.5 24.25H2.5C1.09375 24.25 0 23.1562 0 21.75V13.625V12.6875V11.75V9.25C0 7.88281 1.09375 6.75 2.5 6.75H17.5C18.8672 6.75 20 7.88281 20 9.25ZM8.4375 14.9531C8.63281 14.875 8.90625 14.875 9.0625 14.9922L12.8125 17.4922C13.0078 17.6094 13.125 17.8047 13.125 18C13.125 18.2344 13.0078 18.4297 12.8125 18.5469L9.0625 21.0469C8.90625 21.1641 8.63281 21.1641 8.4375 21.0859C8.24219 20.9688 8.125 20.7344 8.125 20.5V15.5C8.125 15.3047 8.24219 15.0703 8.4375 14.9531Z" fill="black" fill-opacity="0.72"/>
</g>
<defs>
<clipPath id="clip0_3431_942">
<rect width="20" height="30" fill="white"/>
</clipPath>
</defs>
</svg>
