<svg width="12" height="24" viewBox="0 0 12 24" fill="none" xmlns="http://www.w3.org/2000/svg">
<g id="label-paired / md / mobile-notch-md / bold" clip-path="url(#clip0_2556_14756)">
<path id="icon" d="M8 5.5V6C8 6.28125 7.75 6.5 7.5 6.5H4.5C4.21875 6.5 4 6.28125 4 6V5.5H3C2.4375 5.5 2 5.96875 2 6.5V17.5C2 18.0625 2.4375 18.5 3 18.5H9C9.53125 18.5 10 18.0625 10 17.5V6.5C10 5.96875 9.53125 5.5 9 5.5H8ZM0.5 6.5C0.5 5.125 1.59375 4 3 4H9C10.375 4 11.5 5.125 11.5 6.5V17.5C11.5 18.9062 10.375 20 9 20H3C1.59375 20 0.5 18.9062 0.5 17.5V6.5Z" fill="black" fill-opacity="0.72"/>
</g>
<defs>
<clipPath id="clip0_2556_14756">
<rect width="12" height="24" fill="white"/>
</clipPath>
</defs>
</svg>
