<svg width="14" height="22" viewBox="0 0 14 22" fill="none" xmlns="http://www.w3.org/2000/svg">
<g id="label-paired / sm / circle-three-sm / bold" clip-path="url(#clip0_2556_12471)">
<path id="icon" d="M7 5.0625C4.94922 5.0625 3.08984 6.15625 2.05078 7.90625C1.03906 9.68359 1.03906 11.8438 2.05078 13.5938C3.08984 15.3711 4.94922 16.4375 7 16.4375C9.02344 16.4375 10.8828 15.3711 11.9219 13.5938C12.9336 11.8438 12.9336 9.68359 11.9219 7.90625C10.8828 6.15625 9.02344 5.0625 7 5.0625ZM7 17.75C4.48438 17.75 2.1875 16.4375 0.929688 14.25C-0.328125 12.0898 -0.328125 9.4375 0.929688 7.25C2.1875 5.08984 4.48438 3.75 7 3.75C9.48828 3.75 11.7852 5.08984 13.043 7.25C14.3008 9.4375 14.3008 12.0898 13.043 14.25C11.7852 16.4375 9.48828 17.75 7 17.75ZM5.03125 7.25H8.53125C8.77734 7.25 9.02344 7.44141 9.13281 7.6875C9.21484 7.93359 9.16016 8.20703 8.96875 8.39844L7.57422 9.68359C8.72266 9.79297 9.625 10.7773 9.625 11.9531C9.625 13.2383 8.58594 14.25 7.30078 14.25H6.5625C5.71484 14.25 4.97656 13.8398 4.53906 13.1289L4.45703 13.0195C4.26562 12.7188 4.375 12.3086 4.67578 12.1172C4.97656 11.9258 5.38672 12.0352 5.57812 12.3359L5.66016 12.4453C5.85156 12.7734 6.17969 12.9648 6.5625 12.9648H7.30078C7.84766 12.9648 8.3125 12.5 8.3125 11.9531C8.3125 11.4062 7.84766 10.9688 7.30078 10.9688H5.90625C5.63281 10.9961 5.38672 10.832 5.27734 10.5586C5.19531 10.3125 5.25 10.0117 5.44141 9.84766L6.83594 8.5625H5.03125C4.64844 8.5625 4.375 8.28906 4.375 7.90625C4.375 7.55078 4.64844 7.25 5.03125 7.25Z" fill="black" fill-opacity="0.72"/>
</g>
<defs>
<clipPath id="clip0_2556_12471">
<rect width="14" height="22" fill="white"/>
</clipPath>
</defs>
</svg>
