<svg width="10" height="24" viewBox="0 0 10 24" fill="none" xmlns="http://www.w3.org/2000/svg">
<g id="label-paired / md / dollar-sign-md / bold" clip-path="url(#clip0_2556_14627)">
<path id="icon" d="M5.75 4.75V6.3125C6.59375 6.40625 7.375 6.5625 7.96875 6.6875C8.375 6.78125 8.625 7.1875 8.53125 7.59375C8.4375 8 8.03125 8.25 7.625 8.15625C6.65625 7.9375 5.25 7.65625 4.0625 7.78125C3.46875 7.8125 3 7.9375 2.65625 8.15625C2.34375 8.375 2.125 8.65625 2.03125 9.125C1.9375 9.46875 2 9.71875 2.09375 9.875C2.15625 10.0625 2.34375 10.2188 2.625 10.4062C3.21875 10.7812 4.125 11 5.15625 11.2812L5.25 11.3125C6.21875 11.5625 7.3125 11.8438 8.15625 12.3438C8.59375 12.5938 8.96875 12.9688 9.21875 13.4688C9.5 13.9688 9.53125 14.5625 9.4375 15.1875C9.21875 16.3125 8.40625 17.0312 7.40625 17.4062C6.90625 17.5938 6.34375 17.7188 5.75 17.75V19.25C5.75 19.6875 5.40625 20 5 20C4.5625 20 4.25 19.6875 4.25 19.25V17.7188C4.125 17.6875 4.03125 17.6875 3.9375 17.6562C3.15625 17.5625 1.78125 17.25 0.9375 16.875C0.5625 16.6875 0.375 16.25 0.5625 15.875C0.71875 15.5 1.15625 15.3438 1.53125 15.5C2.21875 15.7812 3.4375 16.0938 4.125 16.1875C5.25 16.3438 6.1875 16.25 6.875 16C7.53125 15.75 7.875 15.375 7.9375 14.9062C8.03125 14.5625 7.96875 14.3125 7.875 14.1562C7.8125 13.9688 7.625 13.7812 7.34375 13.625C6.75 13.25 5.875 13 4.8125 12.75L4.71875 12.7188C3.75 12.4688 2.65625 12.1875 1.8125 11.6875C1.40625 11.4062 1 11.0625 0.75 10.5625C0.5 10.0312 0.4375 9.46875 0.5625 8.84375C0.71875 7.9375 1.1875 7.3125 1.84375 6.90625C2.46875 6.5 3.21875 6.34375 3.9375 6.28125C4.03125 6.25 4.125 6.25 4.25 6.25V4.75C4.25 4.34375 4.5625 4 5 4C5.40625 4 5.75 4.34375 5.75 4.75Z" fill="black" fill-opacity="0.72"/>
</g>
<defs>
<clipPath id="clip0_2556_14627">
<rect width="10" height="24" fill="white"/>
</clipPath>
</defs>
</svg>
