<svg width="24" height="36" viewBox="0 0 24 36" fill="none" xmlns="http://www.w3.org/2000/svg">
<g id="label-paired / xl / face-viewfinder-xl / fill" clip-path="url(#clip0_2556_19390)">
<path id="icon" d="M2.625 6H6.375C6.98438 6 7.5 6.51562 7.5 7.125C7.5 7.78125 6.98438 8.25 6.375 8.25H2.625C2.39062 8.25 2.25 8.4375 2.25 8.625V12.375C2.25 13.0312 1.73438 13.5 1.125 13.5C0.46875 13.5 0 13.0312 0 12.375V8.625C0 7.21875 1.17188 6 2.625 6ZM17.625 6H21.375C22.7812 6 24 7.21875 24 8.625V12.375C24 13.0312 23.4844 13.5 22.875 13.5C22.2188 13.5 21.75 13.0312 21.75 12.375V8.625C21.75 8.4375 21.5625 8.25 21.375 8.25H17.625C16.9688 8.25 16.5 7.78125 16.5 7.125C16.5 6.51562 16.9688 6 17.625 6ZM2.25 23.625V27.375C2.25 27.6094 2.39062 27.75 2.625 27.75H6.375C6.98438 27.75 7.5 28.2656 7.5 28.875C7.5 29.5312 6.98438 30 6.375 30H2.625C1.17188 30 0 28.8281 0 27.375V23.625C0 23.0156 0.46875 22.5 1.125 22.5C1.73438 22.5 2.25 23.0156 2.25 23.625ZM24 23.625V27.375C24 28.8281 22.7812 30 21.375 30H17.625C16.9688 30 16.5 29.5312 16.5 28.875C16.5 28.2656 16.9688 27.75 17.625 27.75H21.375C21.5625 27.75 21.75 27.6094 21.75 27.375V23.625C21.75 23.0156 22.2188 22.5 22.875 22.5C23.4844 22.5 24 23.0156 24 23.625ZM4.5 18C4.5 15.3281 5.90625 12.8906 8.25 11.5312C10.5469 10.1719 13.4062 10.1719 15.75 11.5312C18.0469 12.8906 19.5 15.3281 19.5 18C19.5 20.7188 18.0469 23.1562 15.75 24.5156C13.4062 25.875 10.5469 25.875 8.25 24.5156C5.90625 23.1562 4.5 20.7188 4.5 18ZM10.5 16.125C10.5 15.5156 9.98438 15 9.375 15C8.71875 15 8.25 15.5156 8.25 16.125C8.25 16.7812 8.71875 17.25 9.375 17.25C9.98438 17.25 10.5 16.7812 10.5 16.125ZM14.625 17.25C15.2344 17.25 15.75 16.7812 15.75 16.125C15.75 15.5156 15.2344 15 14.625 15C13.9688 15 13.5 15.5156 13.5 16.125C13.5 16.7812 13.9688 17.25 14.625 17.25ZM7.92188 19.7344C7.64062 20.0156 7.64062 20.4844 7.92188 20.8125C8.95312 21.8438 10.4062 22.5 12 22.5C13.5938 22.5 15 21.8438 16.0312 20.8125C16.3125 20.4844 16.3125 20.0156 16.0312 19.7344C15.7031 19.4531 15.2344 19.4531 14.9531 19.7344C14.2031 20.5312 13.1719 21 12 21C10.8281 21 9.75 20.5312 9 19.7344C8.71875 19.4531 8.25 19.4531 7.92188 19.7344Z" fill="black" fill-opacity="0.72"/>
</g>
<defs>
<clipPath id="clip0_2556_19390">
<rect width="24" height="36" fill="white"/>
</clipPath>
</defs>
</svg>
