<svg width="14" height="22" viewBox="0 0 14 22" fill="none" xmlns="http://www.w3.org/2000/svg">
<g id="label-paired / sm / circle-question-sm / fill" clip-path="url(#clip0_3578_721)">
<path id="icon" d="M7 17.75C4.48438 17.75 2.1875 16.4375 0.929688 14.25C-0.328125 12.0898 -0.328125 9.4375 0.929688 7.25C2.1875 5.08984 4.48438 3.75 7 3.75C9.48828 3.75 11.7852 5.08984 13.043 7.25C14.3008 9.4375 14.3008 12.0898 13.043 14.25C11.7852 16.4375 9.48828 17.75 7 17.75ZM4.62109 8.28906V8.31641C4.51172 8.64453 4.67578 9.02734 5.03125 9.16406C5.35938 9.27344 5.74219 9.10938 5.85156 8.75391L5.87891 8.72656C5.90625 8.64453 5.98828 8.58984 6.07031 8.58984H7.65625C7.90234 8.58984 8.09375 8.75391 8.09375 9C8.09375 9.13672 8.01172 9.27344 7.875 9.35547L6.67188 10.0391C6.45312 10.1484 6.34375 10.3672 6.34375 10.6133V10.9688C6.34375 11.3516 6.61719 11.625 7 11.625C7.35547 11.625 7.62891 11.3516 7.65625 10.9961L8.53125 10.4766C9.05078 10.1758 9.40625 9.60156 9.40625 9C9.40625 8.04297 8.61328 7.25 7.65625 7.25H6.07031C5.41406 7.25 4.83984 7.66016 4.62109 8.28906ZM6.125 13.375C6.125 13.8672 6.50781 14.25 7 14.25C7.46484 14.25 7.875 13.8672 7.875 13.375C7.875 12.9102 7.46484 12.5 7 12.5C6.50781 12.5 6.125 12.9102 6.125 13.375Z" fill="black" fill-opacity="0.72"/>
</g>
<defs>
<clipPath id="clip0_3578_721">
<rect width="14" height="22" fill="white"/>
</clipPath>
</defs>
</svg>
