<svg width="14" height="24" viewBox="0 0 14 24" fill="none" xmlns="http://www.w3.org/2000/svg">
<g id="label-paired / md / ellipsis-md / fill" clip-path="url(#clip0_2556_15042)">
<path id="icon" d="M0.25 12C0.25 11.375 0.5625 10.8125 1.125 10.5C1.65625 10.1875 2.3125 10.1875 2.875 10.5C3.40625 10.8125 3.75 11.375 3.75 12C3.75 12.6562 3.40625 13.2188 2.875 13.5312C2.3125 13.8438 1.65625 13.8438 1.125 13.5312C0.5625 13.2188 0.25 12.6562 0.25 12ZM5.25 12C5.25 11.375 5.5625 10.8125 6.125 10.5C6.65625 10.1875 7.3125 10.1875 7.875 10.5C8.40625 10.8125 8.75 11.375 8.75 12C8.75 12.6562 8.40625 13.2188 7.875 13.5312C7.3125 13.8438 6.65625 13.8438 6.125 13.5312C5.5625 13.2188 5.25 12.6562 5.25 12ZM12 10.25C12.625 10.25 13.1875 10.5938 13.5 11.125C13.8125 11.6875 13.8125 12.3438 13.5 12.875C13.1875 13.4375 12.625 13.75 12 13.75C11.3438 13.75 10.7812 13.4375 10.4688 12.875C10.1562 12.3438 10.1562 11.6875 10.4688 11.125C10.7812 10.5938 11.3438 10.25 12 10.25Z" fill="black" fill-opacity="0.72"/>
</g>
<defs>
<clipPath id="clip0_2556_15042">
<rect width="14" height="24" fill="white"/>
</clipPath>
</defs>
</svg>
