<svg width="16" height="24" viewBox="0 0 16 24" fill="none" xmlns="http://www.w3.org/2000/svg">
<g id="label-paired / md / deriv-brand-logo-md / regular" clip-path="url(#clip0_5147_442)">
<path id="icon" d="M12.125 16.0625C11.7812 18 9.9375 19.5625 8 19.5625H5.90625C4.59375 19.5625 3.46875 19.0312 2.75 18.125C2 17.25 1.6875 16.0312 1.90625 14.7188L2.09375 13.75C2.53125 11.1562 4.96875 9.09375 7.5625 9.09375H9.65625L10.3125 5.40625L10.375 5.0625L14.1562 4.4375L12.125 16.0625ZM11.2188 5.9375L10.5625 9.6875L10.5 10.0938H7.5625C5.53125 10.0938 3.5625 11.6875 3.125 13.7188L3.09375 13.9062L2.90625 14.9062C2.71875 15.9375 2.96875 16.8438 3.5 17.5C4.03125 18.125 4.875 18.5625 5.90625 18.5625H8C9.4375 18.5625 10.875 17.3438 11.125 15.875L12.9375 5.65625L11.2188 5.9375ZM10.2188 11.5938L10.125 12.1875L9.5 15.6562C9.375 16.4062 8.71875 17.0312 7.9375 17.0312H6.65625C6 17.0312 5.40625 16.75 5.03125 16.3125C4.625 15.8438 4.46875 15.2188 4.59375 14.5312L4.6875 13.9375L4.75 13.6875C5.0625 12.5 6.21875 11.5938 7.4375 11.5938H10.2188ZM7.4375 12.5938C6.625 12.5938 5.84375 13.2812 5.6875 14.0938L5.5625 14.7188C5.5 15.125 5.59375 15.4375 5.78125 15.6562C5.96875 15.875 6.28125 16.0312 6.65625 16.0312H7.9375C8.1875 16.0312 8.46875 15.8125 8.53125 15.5L9.03125 12.5938H7.4375Z" fill="black" fill-opacity="0.72"/>
</g>
<defs>
<clipPath id="clip0_5147_442">
<rect width="16" height="24" fill="white"/>
</clipPath>
</defs>
</svg>
