<svg width="20" height="30" viewBox="0 0 20 30" fill="none" xmlns="http://www.w3.org/2000/svg">
<g id="label-paired / lg / chevrons-down-lg / regular" clip-path="url(#clip0_2556_17395)">
<path id="icon" d="M2.03125 8.46875C1.79688 8.23438 1.79688 7.80469 2.03125 7.57031C2.26562 7.33594 2.69531 7.33594 2.92969 7.57031L10 14.6406L17.0312 7.57031C17.2656 7.33594 17.6953 7.33594 17.9297 7.57031C18.1641 7.80469 18.1641 8.23438 17.9297 8.46875L10.4297 15.9688C10.1953 16.2031 9.76562 16.2031 9.53125 15.9688L2.03125 8.46875ZM2.03125 15.9688C1.79688 15.7344 1.79688 15.3047 2.03125 15.0703C2.26562 14.8359 2.69531 14.8359 2.92969 15.0703L10 22.1406L17.0312 15.0703C17.2656 14.8359 17.6953 14.8359 17.9297 15.0703C18.1641 15.3047 18.1641 15.7344 17.9297 15.9688L10.4297 23.4688C10.1953 23.7031 9.76562 23.7031 9.53125 23.4688L2.03125 15.9688Z" fill="black" fill-opacity="0.72"/>
</g>
<defs>
<clipPath id="clip0_2556_17395">
<rect width="20" height="30" fill="white"/>
</clipPath>
</defs>
</svg>
