<svg width="23" height="30" viewBox="0 0 23 30" fill="none" xmlns="http://www.w3.org/2000/svg">
<g id="label-paired / lg / file-shield-lg / bold" clip-path="url(#clip0_2556_16942)">
<path id="icon" d="M2.75 23.625H12.3594C12.7891 24.2109 13.2969 24.7578 13.9219 25.2266C13.5703 25.4219 13.1406 25.5 12.75 25.5H2.75C1.34375 25.5 0.25 24.4062 0.25 23V8C0.25 6.63281 1.34375 5.5 2.75 5.5H9.19531C9.85938 5.5 10.4844 5.77344 10.9531 6.24219L14.5078 9.79688C14.9766 10.2656 15.25 10.8906 15.25 11.5547V13.5859L13.375 14.3672V11.75H10.25C9.54688 11.75 9 11.2031 9 10.5V7.375H2.75C2.39844 7.375 2.125 7.6875 2.125 8V23C2.125 23.3516 2.39844 23.625 2.75 23.625ZM16.7734 14.3281C16.9688 14.25 17.2422 14.25 17.4375 14.3281L22.125 16.2031C22.5156 16.3594 22.75 16.7109 22.75 17.0625C22.75 19.5625 21.7344 23.6641 17.4766 25.4609C17.2422 25.5391 16.9688 25.5391 16.7344 25.4609C12.4766 23.6641 11.5 19.5625 11.5 17.0625C11.5 16.7109 11.7344 16.3594 12.0859 16.2031L16.7734 14.3281ZM20.8359 17.6875L17.125 16.2031V23.5469C19.7812 22.2578 20.6797 19.6797 20.8359 17.6875Z" fill="black" fill-opacity="0.72"/>
</g>
<defs>
<clipPath id="clip0_2556_16942">
<rect width="23" height="30" fill="white"/>
</clipPath>
</defs>
</svg>
