<svg width="16" height="22" viewBox="0 0 16 22" fill="none" xmlns="http://www.w3.org/2000/svg">
<g id="label-paired / sm / star-sm / fill" clip-path="url(#clip0_2556_12745)">
<path id="icon" d="M8.76562 4.24219L10.543 7.87891L14.4531 8.45312C14.7812 8.50781 15.0547 8.72656 15.1641 9.05469C15.2734 9.35547 15.1914 9.71094 14.9453 9.92969L12.1016 12.7461L12.7852 16.7383C12.8398 17.0664 12.7031 17.3945 12.4297 17.5859C12.1562 17.8047 11.8008 17.8047 11.5 17.668L8 15.7812L4.47266 17.668C4.19922 17.8047 3.84375 17.8047 3.57031 17.5859C3.29688 17.3945 3.16016 17.0664 3.21484 16.7383L3.87109 12.7461L1.02734 9.92969C0.808594 9.71094 0.726562 9.35547 0.808594 9.05469C0.917969 8.72656 1.19141 8.50781 1.51953 8.45312L5.45703 7.87891L7.20703 4.24219C7.34375 3.94141 7.64453 3.75 8 3.75C8.32812 3.75 8.62891 3.94141 8.76562 4.24219Z" fill="black" fill-opacity="0.72"/>
</g>
<defs>
<clipPath id="clip0_2556_12745">
<rect width="16" height="22" fill="white"/>
</clipPath>
</defs>
</svg>
