<svg width="12" height="18" viewBox="0 0 12 18" fill="none" xmlns="http://www.w3.org/2000/svg">
<g id="label-paired / caption / circle-sort-down-caption / fill" clip-path="url(#clip0_2556_10607)">
<path id="icon" d="M12 9.5C12 11.6562 10.8516 13.625 9 14.7031C7.125 15.7812 4.85156 15.7812 3 14.7031C1.125 13.625 0 11.6562 0 9.5C0 7.36719 1.125 5.39844 3 4.32031C4.85156 3.24219 7.125 3.24219 9 4.32031C10.8516 5.39844 12 7.36719 12 9.5ZM6.25781 13.1562L8.50781 10.9062C8.60156 10.7891 8.64844 10.625 8.57812 10.4844C8.53125 10.3438 8.39062 10.25 8.25 10.25H3.75C3.58594 10.25 3.44531 10.3438 3.39844 10.4844C3.32812 10.625 3.375 10.7891 3.46875 10.9062L5.71875 13.1562C5.85938 13.2969 6.11719 13.2969 6.25781 13.1562ZM6.25781 5.86719C6.11719 5.72656 5.85938 5.72656 5.71875 5.86719L3.46875 8.11719C3.375 8.23438 3.32812 8.39844 3.39844 8.53906C3.44531 8.67969 3.58594 8.75 3.75 8.75H8.25C8.39062 8.75 8.53125 8.65625 8.57812 8.53906C8.64844 8.39844 8.60156 8.23438 8.50781 8.11719L6.25781 5.86719ZM7.33594 8H4.64062L6 6.66406L7.33594 8Z" fill="black" fill-opacity="0.72"/>
</g>
<defs>
<clipPath id="clip0_2556_10607">
<rect width="12" height="18" fill="white"/>
</clipPath>
</defs>
</svg>
