<svg width="20" height="24" viewBox="0 0 20 24" fill="none" xmlns="http://www.w3.org/2000/svg">
<g id="label-paired / md / fiat-offramp-md / fill" clip-path="url(#clip0_2556_14632)">
<path id="icon" d="M5.46875 7V7.6875H6.8125C7 7.6875 7.15625 7.53125 7.15625 7.34375C7.15625 7.15625 7 7 6.8125 7H5.46875ZM5.46875 8.34375V9H6.8125C7 9 7.15625 8.84375 7.15625 8.65625C7.15625 8.5 7 8.34375 6.8125 8.34375H5.46875ZM13.8438 11.75C16.125 11.75 18 13.5938 18 15.875C18 18.1562 16.125 20 13.8438 20H4.65625C3.1875 20 2 18.8125 2 17.3438V8.15625C2 5.875 3.84375 4 6.125 4C8.40625 4 10.25 5.875 10.25 8.15625C10.25 8.5 10.2188 8.84375 10.125 9.15625L12.8438 11.875C13.1562 11.7812 13.5 11.75 13.8438 11.75ZM3.5 17.3438C3.5 17.9688 4.03125 18.5 4.65625 18.5H10.6562C10.0625 17.8125 9.71875 16.875 9.71875 15.875C9.71875 14.5312 10.375 13.3125 11.4062 12.5625L9.4375 10.5938C8.6875 11.625 7.5 12.2812 6.125 12.2812C5.125 12.2812 4.1875 11.9375 3.5 11.3438V17.3438ZM5.46875 6.34375V5.65625H4.8125V6.34375H4.15625V7H4.8125V9H4.15625V9.6875H4.8125V10.3438H5.46875V9.6875H6.15625V10.3438H6.8125V9.6875C7.34375 9.6875 7.8125 9.25 7.8125 8.6875C7.8125 8.4375 7.71875 8.1875 7.53125 8C7.90625 7.59375 7.875 6.96875 7.46875 6.59375C7.28125 6.4375 7.0625 6.34375 6.8125 6.34375V5.65625H6.15625V6.34375H5.46875ZM14.4062 13.875V13.5H13.5625V13.875C13.0312 14.0312 12.6875 14.5312 12.6875 15.0938C12.6875 15.8125 13.25 16.4062 13.9688 16.4062C14.25 16.4062 14.4688 16.625 14.4688 16.9062C14.4688 17.1562 14.25 17.375 13.9688 17.375C13.7188 17.375 13.5 17.1562 13.5 16.9062V16.7812H12.6875V16.9062C12.6875 17.4688 13.0312 17.9688 13.5625 18.125V18.5H14.4062V18.125C14.9375 17.9688 15.2812 17.4688 15.2812 16.9062C15.2812 16.1875 14.6875 15.5938 13.9688 15.5938C13.7188 15.5938 13.5 15.375 13.5 15.0938C13.5 14.8438 13.7188 14.625 13.9688 14.625C14.25 14.625 14.4688 14.8438 14.4688 15.0938V15.2188H15.2812V15.0938C15.2812 14.5312 14.9375 14.0312 14.4062 13.875ZM15.0938 7.65625V10.5625C15.0938 10.875 14.9062 11.125 14.625 11.25C14.3438 11.375 14.0312 11.3125 13.8125 11.0938L10.9062 8.1875C10.625 7.90625 10.625 7.4375 10.9062 7.125C11.1875 6.84375 11.6875 6.84375 11.9688 7.125L13.5938 8.75V7.65625C13.5938 7.25 13.9062 6.90625 14.3438 6.90625C14.75 6.90625 15.0938 7.25 15.0938 7.65625Z" fill="black" fill-opacity="0.72"/>
</g>
<defs>
<clipPath id="clip0_2556_14632">
<rect width="20" height="24" fill="white"/>
</clipPath>
</defs>
</svg>
