<svg width="14" height="24" viewBox="0 0 14 24" fill="none" xmlns="http://www.w3.org/2000/svg">
<g id="label-paired / md / placeholder-md / regular" clip-path="url(#clip0_2556_15323)">
<path id="icon" d="M2.75 5H3.5C3.75 5 4 5.25 4 5.5C4 5.78125 3.75 6 3.5 6H2.75C1.78125 6 1 6.8125 1 7.75V8.5C1 8.78125 0.75 9 0.5 9C0.21875 9 0 8.78125 0 8.5V7.75C0 6.25 1.21875 5 2.75 5ZM0.5 10C0.75 10 1 10.25 1 10.5V13.5C1 13.7812 0.75 14 0.5 14C0.21875 14 0 13.7812 0 13.5V10.5C0 10.25 0.21875 10 0.5 10ZM13.5 10C13.75 10 14 10.25 14 10.5V13.5C14 13.7812 13.75 14 13.5 14C13.2188 14 13 13.7812 13 13.5V10.5C13 10.25 13.2188 10 13.5 10ZM13.5 9C13.2188 9 13 8.78125 13 8.5V7.75C13 6.8125 12.1875 6 11.25 6H10.5C10.2188 6 10 5.78125 10 5.5C10 5.25 10.2188 5 10.5 5H11.25C12.75 5 14 6.25 14 7.75V8.5C14 8.78125 13.75 9 13.5 9ZM14 15.5V16.25C14 17.7812 12.75 19 11.25 19H10.5C10.2188 19 10 18.7812 10 18.5C10 18.25 10.2188 18 10.5 18H11.25C12.1875 18 13 17.2188 13 16.25V15.5C13 15.25 13.2188 15 13.5 15C13.75 15 14 15.25 14 15.5ZM1 15.5V16.25C1 17.2188 1.78125 18 2.75 18H3.5C3.75 18 4 18.25 4 18.5C4 18.7812 3.75 19 3.5 19H2.75C1.21875 19 0 17.7812 0 16.25V15.5C0 15.25 0.21875 15 0.5 15C0.75 15 1 15.25 1 15.5ZM5.5 19C5.21875 19 5 18.7812 5 18.5C5 18.25 5.21875 18 5.5 18H8.5C8.75 18 9 18.25 9 18.5C9 18.7812 8.75 19 8.5 19H5.5ZM5 5.5C5 5.25 5.21875 5 5.5 5H8.5C8.75 5 9 5.25 9 5.5C9 5.78125 8.75 6 8.5 6H5.5C5.21875 6 5 5.78125 5 5.5Z" fill="black" fill-opacity="0.72"/>
</g>
<defs>
<clipPath id="clip0_2556_15323">
<rect width="14" height="24" fill="white"/>
</clipPath>
</defs>
</svg>
