<svg width="18" height="22" viewBox="0 0 18 22" fill="none" xmlns="http://www.w3.org/2000/svg">
<g id="label-paired / sm / messages-question-sm / regular" clip-path="url(#clip0_2556_12588)">
<path id="icon" d="M5.77344 11.625H9.875C10.3398 11.625 10.75 11.2422 10.75 10.75V5.5C10.75 5.03516 10.3398 4.625 9.875 4.625H2C1.50781 4.625 1.125 5.03516 1.125 5.5V10.75C1.125 11.2422 1.50781 11.625 2 11.625H2.875C3.33984 11.625 3.75 12.0352 3.75 12.5V12.9375L5.25391 11.8164C5.41797 11.707 5.58203 11.625 5.77344 11.625ZM9.875 12.5H5.77344L3.55859 14.168C3.42188 14.2773 3.25781 14.2773 3.09375 14.2227C2.95703 14.1406 2.875 14.0039 2.875 13.8125V13.375V12.5H2C1.01562 12.5 0.25 11.7344 0.25 10.75V5.5C0.25 4.54297 1.01562 3.75 2 3.75H9.875C10.832 3.75 11.625 4.54297 11.625 5.5V10.75C11.625 11.7344 10.832 12.5 9.875 12.5ZM9 16C8.01562 16 7.25 15.2344 7.25 14.25V13.375H8.125V14.25C8.125 14.7422 8.50781 15.125 9 15.125H12.1992C12.3906 15.125 12.582 15.207 12.7188 15.3164L14.25 16.4375V16C14.25 15.5352 14.6328 15.125 15.125 15.125H16C16.4648 15.125 16.875 14.7422 16.875 14.25V9C16.875 8.53516 16.4648 8.125 16 8.125H12.5V7.25H16C16.957 7.25 17.75 8.04297 17.75 9V14.25C17.75 15.2344 16.957 16 16 16H15.125V16.875V17.3125C15.125 17.5039 15.0156 17.6406 14.8789 17.7227C14.7148 17.7773 14.5508 17.7773 14.4141 17.668L12.1992 16H9ZM5.28125 5.69141C4.81641 5.69141 4.43359 5.96484 4.26953 6.375V6.40234C4.1875 6.64844 4.32422 6.89453 4.54297 6.97656C4.76172 7.05859 5.00781 6.92188 5.08984 6.70312L5.11719 6.67578C5.11719 6.59375 5.19922 6.56641 5.28125 6.56641H6.40234C6.59375 6.56641 6.73047 6.70312 6.73047 6.86719C6.73047 7.00391 6.67578 7.11328 6.56641 7.16797L5.71875 7.66016C5.58203 7.74219 5.5 7.87891 5.5 8.04297V8.28906C5.5 8.53516 5.69141 8.72656 5.9375 8.72656C6.15625 8.72656 6.375 8.53516 6.375 8.28906L7.00391 7.90625C7.38672 7.71484 7.60547 7.30469 7.60547 6.89453C7.60547 6.21094 7.05859 5.69141 6.40234 5.69141H5.28125ZM5.9375 10.6133C6.15625 10.6406 6.375 10.5312 6.48438 10.3125C6.62109 10.1211 6.62109 9.875 6.48438 9.68359C6.375 9.49219 6.15625 9.35547 5.9375 9.38281C5.69141 9.35547 5.47266 9.49219 5.36328 9.68359C5.22656 9.875 5.22656 10.1211 5.36328 10.3125C5.47266 10.5312 5.69141 10.6406 5.9375 10.6133Z" fill="black" fill-opacity="0.72"/>
</g>
<defs>
<clipPath id="clip0_2556_12588">
<rect width="18" height="22" fill="white"/>
</clipPath>
</defs>
</svg>
