<svg width="11" height="18" viewBox="0 0 11 18" fill="none" xmlns="http://www.w3.org/2000/svg">
<g id="label-paired / caption / lock-caption / regular" clip-path="url(#clip0_2556_9971)">
<path id="icon" d="M3.25 6.5V8H7.75V6.5C7.75 5.25781 6.74219 4.25 5.5 4.25C4.25781 4.25 3.25 5.25781 3.25 6.5ZM2.5 8V6.5C2.5 4.85938 3.83594 3.5 5.5 3.5C7.14062 3.5 8.5 4.85938 8.5 6.5V8H8.875C9.90625 8 10.75 8.84375 10.75 9.875V13.625C10.75 14.6797 9.90625 15.5 8.875 15.5H2.125C1.07031 15.5 0.25 14.6797 0.25 13.625V9.875C0.25 8.84375 1.07031 8 2.125 8H2.5ZM1 9.875V13.625C1 14.2578 1.49219 14.75 2.125 14.75H8.875C9.48438 14.75 10 14.2578 10 13.625V9.875C10 9.26562 9.48438 8.75 8.875 8.75H2.125C1.49219 8.75 1 9.26562 1 9.875Z" fill="black" fill-opacity="0.72"/>
</g>
<defs>
<clipPath id="clip0_2556_9971">
<rect width="11" height="18" fill="white"/>
</clipPath>
</defs>
</svg>
