<svg width="15" height="18" viewBox="0 0 15 18" fill="none" xmlns="http://www.w3.org/2000/svg">
<g id="label-paired / caption / hand-gesture-swipe-left-right-caption / regular" clip-path="url(#clip0_3546_611)">
<path id="icon" d="M7.47656 5.91406C7.92188 5.91406 8.29688 6.28906 8.29688 6.73438V8.5625C8.41406 8.51562 8.53125 8.49219 8.64844 8.49219C9 8.49219 9.30469 8.70312 9.46875 8.98438C9.53906 8.96094 9.63281 8.96094 9.70312 8.96094C10.0547 8.96094 10.3594 9.17188 10.5234 9.42969C10.5703 9.42969 10.6172 9.42969 10.6406 9.42969C11.1562 9.42969 11.5781 9.85156 11.5781 10.3672V11.7734C11.5781 12.6875 10.8281 13.4141 9.9375 13.4141H7.94531C7.59375 13.4141 7.26562 13.3438 6.96094 13.1562L6.82031 13.1094C6.14062 12.7344 5.71875 12.0312 5.71875 11.2344V10.9531C5.71875 10.5781 5.88281 10.25 6.1875 10.0156L6.51562 9.78125C6.5625 9.73438 6.60938 9.71094 6.65625 9.66406V6.73438C6.65625 6.28906 7.03125 5.91406 7.47656 5.91406ZM7.125 6.73438V10.9531C7.125 11.0703 7.00781 11.1875 6.89062 11.1875C6.77344 11.1875 6.65625 11.0703 6.65625 10.9531V10.25L6.46875 10.3906C6.30469 10.5312 6.1875 10.7188 6.1875 10.9531V11.2344C6.1875 11.8438 6.51562 12.4062 7.05469 12.6875L7.17188 12.7578C7.40625 12.875 7.66406 12.9453 7.94531 12.9453H9.9375C10.5938 12.9453 11.1094 12.4297 11.1094 11.7734V10.3672C11.1094 10.1094 10.8984 9.89844 10.6406 9.89844C10.5938 9.89844 10.5234 9.89844 10.4766 9.94531C10.4062 9.94531 10.3359 9.94531 10.2891 9.92188C10.2188 9.89844 10.1719 9.82812 10.1719 9.78125C10.1016 9.57031 9.91406 9.42969 9.70312 9.42969C9.60938 9.42969 9.53906 9.45312 9.46875 9.5C9.39844 9.54688 9.30469 9.54688 9.23438 9.52344C9.16406 9.47656 9.11719 9.40625 9.11719 9.33594C9.07031 9.125 8.88281 8.96094 8.64844 8.96094C8.48438 8.96094 8.34375 9.05469 8.25 9.17188C8.20312 9.26562 8.08594 9.28906 7.99219 9.26562C7.89844 9.24219 7.82812 9.14844 7.82812 9.05469V6.73438C7.82812 6.54688 7.66406 6.38281 7.47656 6.38281C7.26562 6.38281 7.125 6.54688 7.125 6.73438ZM11.4375 8.25781L12.8672 6.82812C12.9609 6.73438 12.9609 6.59375 12.8672 6.5L11.4375 5.07031C11.3438 5 11.2031 5 11.1094 5.07031C11.0156 5.16406 11.0391 5.30469 11.1094 5.39844L12.1641 6.45312H9.42188C9.30469 6.45312 9.21094 6.54688 9.21094 6.66406C9.21094 6.78125 9.30469 6.89844 9.42188 6.89844H12.1641L11.1094 7.92969C11.0391 8.02344 11.0391 8.16406 11.1094 8.25781C11.2031 8.35156 11.3438 8.35156 11.4375 8.25781ZM3.9375 8.25781L2.50781 6.82812C2.4375 6.73438 2.4375 6.59375 2.50781 6.5L3.9375 5.07031C4.03125 4.97656 4.17188 4.97656 4.26562 5.07031C4.35938 5.16406 4.35938 5.30469 4.26562 5.39844L3.21094 6.42969H5.95312C6.07031 6.42969 6.1875 6.54688 6.1875 6.66406C6.1875 6.78125 6.07031 6.89844 5.95312 6.89844H3.21094L4.26562 7.92969C4.35938 8.02344 4.35938 8.16406 4.26562 8.25781C4.17188 8.35156 4.03125 8.35156 3.9375 8.25781Z" fill="black" fill-opacity="0.72"/>
</g>
<defs>
<clipPath id="clip0_3546_611">
<rect width="15" height="18" fill="white"/>
</clipPath>
</defs>
</svg>
