<svg width="20" height="24" viewBox="0 0 20 24" fill="none" xmlns="http://www.w3.org/2000/svg">
<g id="label-paired / md / hands-holding-diamond-md / regular" clip-path="url(#clip0_2556_14659)">
<path id="icon" d="M10.6875 4.3125L13.6875 7.3125C14.0938 7.6875 14.0938 8.34375 13.6875 8.71875L10.6875 11.7188C10.3125 12.125 9.65625 12.125 9.28125 11.7188L6.28125 8.71875C5.875 8.34375 5.875 7.6875 6.28125 7.3125L9.28125 4.3125C9.65625 3.90625 10.3125 3.90625 10.6875 4.3125ZM7 8L10 11L13 8L10 5L7 8ZM2 6C3.09375 6 4 6.90625 4 8V11.9062C4 12.0312 4 12.1875 4.03125 12.3125C4.09375 12.2188 4.15625 12.125 4.25 12.0312C4.9375 11.3438 6.03125 11.3438 6.71875 12.0312L9.5625 14.875C9.71875 15.0625 9.875 15.2188 10 15.4062C10.0938 15.2188 10.25 15.0625 10.4062 14.875L13.25 12.0312C13.9375 11.3438 15.0312 11.3438 15.7188 12.0312C15.8125 12.125 15.875 12.2188 15.9375 12.3125C15.9688 12.1875 16 12.0312 16 11.9062V8C16 6.90625 16.875 6 18 6C19.0938 6 20 6.90625 20 8V14.7812C20 15.6875 19.625 16.5938 18.9688 17.25L16.3438 19.875C16.1562 20.0625 15.8125 20.0625 15.625 19.875C15.4375 19.6875 15.4375 19.3438 15.625 19.1562L18.25 16.5312C18.7188 16.0625 19 15.4375 19 14.7812V8C19 7.46875 18.5312 7 18 7C17.4375 7 17 7.46875 17 8V11.9062C17 12.75 16.6562 13.5625 16.0625 14.1562L15.7188 14.5L14.3438 15.875L13.8438 16.375C13.6562 16.5625 13.3125 16.5625 13.125 16.375C12.9375 16.1875 12.9375 15.8438 13.125 15.6562L13.625 15.1562L15 13.7812C15.2812 13.5 15.2812 13.0312 15 12.75C14.7188 12.4688 14.25 12.4688 13.9688 12.75L11.125 15.5938C10.7188 16 10.5 16.5312 10.5 17.0938V19.5C10.5 19.7812 10.25 20 10 20C9.71875 20 9.5 19.7812 9.5 19.5V17.0938C9.5 16.5312 9.25 16 8.875 15.5938L6 12.75C5.71875 12.4688 5.25 12.4688 4.96875 12.75C4.6875 13.0312 4.6875 13.5 4.96875 13.7812L6.34375 15.1562L6.84375 15.6562C7.03125 15.8438 7.03125 16.1875 6.84375 16.375C6.65625 16.5625 6.3125 16.5625 6.125 16.375L5.625 15.875L4.25 14.5L3.9375 14.1562C3.3125 13.5625 3 12.75 3 11.9062V8C3 7.46875 2.53125 7 2 7C1.4375 7 1 7.46875 1 8V14.7812C1 15.4375 1.25 16.0625 1.71875 16.5312L4.34375 19.1562C4.53125 19.3438 4.53125 19.6875 4.34375 19.875C4.15625 20.0625 3.8125 20.0625 3.625 19.875L1 17.25C0.34375 16.5938 0 15.6875 0 14.7812V8C0 6.90625 0.875 6 2 6Z" fill="black" fill-opacity="0.72"/>
</g>
<defs>
<clipPath id="clip0_2556_14659">
<rect width="20" height="24" fill="white"/>
</clipPath>
</defs>
</svg>
