<svg width="14" height="22" viewBox="0 0 14 22" fill="none" xmlns="http://www.w3.org/2000/svg">
<g id="label-paired / sm / chart-line-sm / fill" clip-path="url(#clip0_2556_12774)">
<path id="icon" d="M1.75 5.5V14.6875C1.75 14.9336 1.94141 15.125 2.1875 15.125H13.125C13.5898 15.125 14 15.5352 14 16C14 16.4922 13.5898 16.875 13.125 16.875H2.1875C0.957031 16.875 0 15.918 0 14.6875V5.5C0 5.03516 0.382812 4.625 0.875 4.625C1.33984 4.625 1.75 5.03516 1.75 5.5ZM12.8516 7.87891L9.35156 11.3789C9.02344 11.7344 8.44922 11.7344 8.12109 11.3789L6.5625 9.82031L4.10156 12.2539C3.77344 12.6094 3.19922 12.6094 2.87109 12.2539C2.51562 11.9258 2.51562 11.3516 2.87109 11.0234L5.93359 7.96094C6.26172 7.60547 6.83594 7.60547 7.16406 7.96094L8.75 9.51953L11.6211 6.64844C11.9492 6.29297 12.5234 6.29297 12.8516 6.64844C13.207 6.97656 13.207 7.55078 12.8516 7.87891Z" fill="black" fill-opacity="0.72"/>
</g>
<defs>
<clipPath id="clip0_2556_12774">
<rect width="14" height="22" fill="white"/>
</clipPath>
</defs>
</svg>
