<svg width="27" height="36" viewBox="0 0 27 36" fill="none" xmlns="http://www.w3.org/2000/svg">
<g id="label-paired / xl / volume-xmark-xl / regular" clip-path="url(#clip0_3758_603)">
<path id="icon" d="M7.07812 14.8125C6.9375 14.9531 6.75 15 6.60938 15H2.625C1.96875 15 1.5 15.5156 1.5 16.125V19.875C1.5 20.5312 1.96875 21 2.625 21H6.60938C6.75 21 6.9375 21.0938 7.07812 21.1875L13.5 26.9062V9.14062L7.07812 14.8125ZM13.5938 7.5C14.3438 7.5 15 8.15625 15 8.90625V27.1406C15 27.8906 14.3438 28.5 13.5938 28.5C13.2188 28.5 12.8906 28.4062 12.6562 28.1719L13.1719 27.6094L12.6562 28.1719L6.28125 22.5H2.625C1.17188 22.5 0 21.3281 0 19.875V16.125C0 14.7188 1.17188 13.5 2.625 13.5H6.28125L12.6562 7.875C12.8906 7.64062 13.2188 7.5 13.5938 7.5ZM19.2656 13.7344L22.5 16.9688L25.6875 13.7344C25.9688 13.4531 26.4844 13.4531 26.7656 13.7344C27.0469 14.0156 27.0469 14.5312 26.7656 14.8125L23.5312 18L26.7656 21.2344C27.0469 21.5156 27.0469 22.0312 26.7656 22.3125C26.4844 22.5938 25.9688 22.5938 25.6875 22.3125L22.5 19.0781L19.2656 22.3125C18.9844 22.5938 18.4688 22.5938 18.1875 22.3125C17.9062 22.0312 17.9062 21.5156 18.1875 21.2344L21.4219 18L18.1875 14.8125C17.9062 14.5312 17.9062 14.0156 18.1875 13.7344C18.4688 13.4531 18.9844 13.4531 19.2656 13.7344Z" fill="black" fill-opacity="0.72"/>
</g>
<defs>
<clipPath id="clip0_3758_603">
<rect width="27" height="36" fill="white"/>
</clipPath>
</defs>
</svg>
