<svg width="15" height="30" viewBox="0 0 15 30" fill="none" xmlns="http://www.w3.org/2000/svg">
<g id="label-paired / lg / location-dot-lg / fill" clip-path="url(#clip0_2556_17527)">
<path id="icon" d="M8.39844 25.0312C7.92969 25.6172 7.03125 25.6172 6.5625 25.0312C4.57031 22.4922 0 16.4375 0 13C0 8.85938 3.35938 5.5 7.5 5.5C11.6406 5.5 15 8.85938 15 13C15 16.4375 10.4297 22.4922 8.39844 25.0312ZM7.5 10.5C6.60156 10.5 5.78125 11.0078 5.3125 11.75C4.88281 12.5312 4.88281 13.5078 5.3125 14.25C5.78125 15.0312 6.60156 15.5 7.5 15.5C8.35938 15.5 9.17969 15.0312 9.64844 14.25C10.0781 13.5078 10.0781 12.5312 9.64844 11.75C9.17969 11.0078 8.35938 10.5 7.5 10.5Z" fill="black" fill-opacity="0.72"/>
</g>
<defs>
<clipPath id="clip0_2556_17527">
<rect width="15" height="30" fill="white"/>
</clipPath>
</defs>
</svg>
