<svg width="18" height="22" viewBox="0 0 18 22" fill="none" xmlns="http://www.w3.org/2000/svg">
<g id="label-paired / sm / deal-cancellation-sm / fill" clip-path="url(#clip0_2556_12780)">
<path id="icon" d="M11.2422 14.7695V14.7422L11.2695 14.7695C11.707 14.9336 12.2266 15.0156 12.7461 15.0156C13.5117 15.0156 14.168 14.8516 14.6875 14.4961C15.207 14.1406 15.6172 13.6484 15.918 13.0195L16.082 12.6641L13.9766 11.4336L13.8125 11.9258C13.7305 12.1445 13.5938 12.3633 13.4023 12.5273C13.2656 12.6367 13.0742 12.7188 12.7461 12.7188C12.3906 12.7188 12.1445 12.6094 11.9531 12.418C11.7617 12.2266 11.6523 11.8984 11.6523 11.3789V10.2031C11.6523 9.68359 11.7617 9.38281 11.9531 9.19141C12.1445 8.97266 12.3906 8.86328 12.7461 8.86328C13.1016 8.86328 13.2656 8.94531 13.375 9.02734C13.5117 9.16406 13.6211 9.32812 13.7031 9.57422L13.8672 10.0664L16.0547 8.91797L15.8906 8.53516C15.6172 7.87891 15.207 7.38672 14.6602 7.05859C14.1406 6.70312 13.4844 6.56641 12.7461 6.56641C12.1992 6.56641 11.707 6.64844 11.2422 6.83984C10.7773 7.05859 10.3945 7.33203 10.0664 7.71484C9.73828 8.09766 9.49219 8.53516 9.32812 9.08203C9.16406 9.60156 9.08203 10.2031 9.08203 10.8594C9.08203 11.5156 9.16406 12.0898 9.32812 12.6094C9.32812 12.6367 9.32812 12.6367 9.32812 12.6367C9.49219 13.1289 9.73828 13.5664 10.0664 13.9492C10.3945 14.3047 10.7773 14.5781 11.2422 14.7695ZM5.22656 6.70312C5.74609 6.70312 6.26562 6.78516 6.70312 6.94922C7.16797 7.14062 7.57812 7.38672 7.90625 7.76953C8.23438 8.125 8.48047 8.5625 8.64453 9.05469C8.80859 9.57422 8.89062 10.1484 8.89062 10.8047C8.89062 11.4336 8.80859 12.0352 8.64453 12.5273C8.64453 12.5547 8.64453 12.5547 8.64453 12.5547C8.48047 13.0469 8.23438 13.4844 7.90625 13.8398C7.57812 14.1953 7.16797 14.4688 6.70312 14.6328C6.26562 14.8242 5.77344 14.9062 5.22656 14.9062H2.02734V6.70312H5.22656ZM6.04688 12.3359C6.21094 12.1719 6.32031 11.8984 6.32031 11.3516V10.2305C6.32031 9.68359 6.21094 9.41016 6.04688 9.27344C5.88281 9.08203 5.63672 8.97266 5.22656 8.97266H4.51562V12.6094H5.22656C5.63672 12.6094 5.88281 12.5 6.04688 12.3359Z" fill="black" fill-opacity="0.72"/>
</g>
<defs>
<clipPath id="clip0_2556_12780">
<rect width="18" height="22" fill="white"/>
</clipPath>
</defs>
</svg>
