<svg width="20" height="24" viewBox="0 0 20 24" fill="none" xmlns="http://www.w3.org/2000/svg">
<g id="label-paired / md / lock-pattern-md / regular" clip-path="url(#clip0_2556_15083)">
<path id="icon" d="M2.5 6C2.5 5.1875 3.15625 4.5 4 4.5C4.625 4.5 5.1875 4.9375 5.40625 5.5H8.5625C8.78125 4.9375 9.34375 4.5 10 4.5C10.625 4.5 11.1875 4.9375 11.4062 5.5H14.5625C14.7812 4.9375 15.3438 4.5 16 4.5C16.8125 4.5 17.5 5.1875 17.5 6C17.5 6.84375 16.8125 7.5 16 7.5C15.75 7.5 15.5312 7.46875 15.3438 7.375L11.3438 11.375C11.4375 11.5625 11.5 11.7812 11.5 12C11.5 12.8438 10.8125 13.5 10 13.5C9.75 13.5 9.53125 13.4688 9.34375 13.375L5.34375 17.375C5.375 17.4062 5.375 17.4688 5.40625 17.5H8.5625C8.78125 16.9375 9.34375 16.5 10 16.5C10.625 16.5 11.1875 16.9375 11.4062 17.5H14.5625C14.7812 16.9375 15.3438 16.5 16 16.5C16.8125 16.5 17.5 17.1875 17.5 18C17.5 18.8438 16.8125 19.5 16 19.5C15.3438 19.5 14.7812 19.0938 14.5625 18.5H11.4062C11.1875 19.0938 10.625 19.5 10 19.5C9.34375 19.5 8.78125 19.0938 8.5625 18.5H5.40625C5.1875 19.0938 4.625 19.5 3.96875 19.5C3.15625 19.5 2.46875 18.8438 2.46875 18C2.46875 17.1875 3.15625 16.5 3.96875 16.5C4.21875 16.5 4.4375 16.5625 4.625 16.6562L8.625 12.6562C8.53125 12.4688 8.46875 12.25 8.46875 12C8.46875 11.1875 9.15625 10.5 9.96875 10.5C10.2188 10.5 10.4375 10.5625 10.625 10.6562L14.625 6.65625C14.5938 6.625 14.5938 6.5625 14.5625 6.5H11.4062C11.1875 7.09375 10.625 7.5 10 7.5C9.34375 7.5 8.78125 7.09375 8.5625 6.5H5.40625C5.1875 7.09375 4.625 7.5 4 7.5C3.15625 7.5 2.5 6.84375 2.5 6ZM2.5 12C2.5 12.5625 2.78125 13.0312 3.25 13.3125C3.6875 13.5938 4.28125 13.5938 4.75 13.3125C5.1875 13.0312 5.5 12.5625 5.5 12C5.5 11.4688 5.1875 11 4.75 10.7188C4.28125 10.4375 3.6875 10.4375 3.25 10.7188C2.78125 11 2.5 11.4688 2.5 12ZM14.5 12C14.5 12.5625 14.7812 13.0312 15.25 13.3125C15.6875 13.5938 16.2812 13.5938 16.75 13.3125C17.1875 13.0312 17.5 12.5625 17.5 12C17.5 11.4688 17.1875 11 16.75 10.7188C16.2812 10.4375 15.6875 10.4375 15.25 10.7188C14.7812 11 14.5 11.4688 14.5 12Z" fill="black" fill-opacity="0.72"/>
</g>
<defs>
<clipPath id="clip0_2556_15083">
<rect width="20" height="24" fill="white"/>
</clipPath>
</defs>
</svg>
