<svg width="23" height="30" viewBox="0 0 23 30" fill="none" xmlns="http://www.w3.org/2000/svg">
<g id="label-paired / lg / mobile-notch-rotate-lg / fill" clip-path="url(#clip0_2512_1249)">
<path id="icon" d="M0.875 8.625C0.875 6.90625 2.24219 5.5 4 5.5H11.5C13.2188 5.5 14.625 6.90625 14.625 8.625V13.4688C14.4297 13.5469 14.2344 13.6641 14.0391 13.7422C13.6484 13.3125 13.0625 13 12.4375 13C12.3203 13 12.2031 13.0391 12.125 13.0391V8.625C12.125 8.3125 11.8125 8 11.5 8H10.25V8.625C10.25 8.97656 9.9375 9.25 9.625 9.25H5.875C5.52344 9.25 5.25 8.97656 5.25 8.625V8H4C3.64844 8 3.375 8.3125 3.375 8.625V22.375C3.375 22.7266 3.64844 23 4 23H10.9922C11.4219 23.8594 12.0469 24.6406 12.7891 25.2266C12.3984 25.4219 11.9297 25.5 11.4609 25.5H4C2.24219 25.5 0.875 24.1328 0.875 22.375V8.625ZM5.25 21.125C5.25 20.8125 5.52344 20.5 5.875 20.5H9.625C9.9375 20.5 10.25 20.8125 10.25 21.125C10.25 21.4766 9.9375 21.75 9.625 21.75H5.875C5.52344 21.75 5.25 21.4766 5.25 21.125ZM11.5 15.1875C11.5 14.6797 11.8906 14.25 12.4375 14.25C12.9453 14.25 13.375 14.6797 13.375 15.1875V15.6953C14.3516 14.7969 15.6797 14.25 17.125 14.25C19.4297 14.25 21.3828 15.6562 22.2812 17.6484C22.4766 18.1172 22.2422 18.6641 21.7734 18.8594C21.3047 19.0938 20.7578 18.8594 20.5625 18.3906C19.9766 17.0625 18.6484 16.125 17.125 16.125C15.9922 16.125 15.0156 16.6328 14.3125 17.375H15.5625C16.0703 17.375 16.5 17.8047 16.5 18.3125C16.5 18.8594 16.0703 19.25 15.5625 19.25H12.4375C11.8906 19.25 11.5 18.8594 11.5 18.3125V15.1875ZM11.9688 22.1406C11.7344 21.6719 11.9688 21.125 12.4375 20.8906C12.9062 20.6953 13.4531 20.9297 13.6875 21.3984C14.2344 22.7266 15.5625 23.625 17.125 23.625C18.2188 23.625 19.2344 23.1562 19.8984 22.375H18.6875C18.1406 22.375 17.75 21.9844 17.75 21.4375C17.75 20.9297 18.1406 20.5 18.6875 20.5H21.8125C22.3203 20.5 22.75 20.9297 22.75 21.4375V24.5625C22.75 25.1094 22.3203 25.5 21.8125 25.5C21.2656 25.5 20.875 25.1094 20.875 24.5625V24.0938C19.8594 24.9922 18.5312 25.5 17.125 25.5C14.7812 25.5 12.8281 24.1328 11.9688 22.1406Z" fill="black" fill-opacity="0.72"/>
</g>
<defs>
<clipPath id="clip0_2512_1249">
<rect width="23" height="30" fill="white"/>
</clipPath>
</defs>
</svg>
