<svg width="15" height="18" viewBox="0 0 15 18" fill="none" xmlns="http://www.w3.org/2000/svg">
<g id="label-paired / caption / language-caption / bold" clip-path="url(#clip0_2556_10125)">
<path id="icon" d="M1.5 5H6.375H7.125H7.5H13.5C14.3203 5 15 5.67969 15 6.5V12.5C15 13.3438 14.3203 14 13.5 14H7.5H7.125H6.375H1.5C0.65625 14 0 13.3438 0 12.5V6.5C0 5.67969 0.65625 5 1.5 5ZM13.5 6.125H7.5V12.875H13.5C13.6875 12.875 13.875 12.7109 13.875 12.5V6.5C13.875 6.3125 13.6875 6.125 13.5 6.125ZM4.17188 7.625C4.10156 7.46094 3.91406 7.34375 3.75 7.34375C3.5625 7.34375 3.375 7.46094 3.30469 7.625L1.80469 11C1.71094 11.2344 1.80469 11.5156 2.03906 11.6328C2.29688 11.7266 2.55469 11.6328 2.67188 11.3984L2.88281 10.9062H4.59375L4.80469 11.3984C4.92188 11.6328 5.20312 11.7266 5.4375 11.6328C5.67188 11.5156 5.76562 11.2344 5.67188 11L4.17188 7.625ZM4.19531 9.96875H3.30469L3.75 8.98438L4.19531 9.96875ZM10.6875 7.34375C10.9453 7.34375 11.1562 7.55469 11.1562 7.8125V7.90625H12.1875H12.5625C12.8203 7.90625 13.0312 8.11719 13.0312 8.375C13.0312 8.63281 12.8203 8.84375 12.5625 8.84375H12.5156L12.4688 8.96094C12.2578 9.52344 11.9297 10.0625 11.5312 10.4844C11.5547 10.5078 11.5781 10.5078 11.6016 10.5312L12.0469 10.7891C12.2578 10.9297 12.3281 11.2109 12.2109 11.4453C12.0703 11.6562 11.7891 11.7266 11.5547 11.6094L11.1094 11.3281C11.0156 11.2812 10.9219 11.2109 10.8047 11.1406C10.5703 11.3047 10.2891 11.4688 10.0078 11.5859L9.9375 11.6328C9.70312 11.7266 9.42188 11.6328 9.30469 11.3984C9.21094 11.1406 9.30469 10.8828 9.53906 10.7656L9.63281 10.7422C9.77344 10.6719 9.9375 10.5781 10.0781 10.5078L9.77344 10.2266C9.60938 10.0391 9.60938 9.73438 9.77344 9.54688C9.96094 9.38281 10.2656 9.38281 10.4531 9.54688L10.7812 9.89844H10.8047C11.0859 9.59375 11.3203 9.24219 11.5078 8.84375H10.6875H9C8.74219 8.84375 8.53125 8.63281 8.53125 8.375C8.53125 8.11719 8.74219 7.90625 9 7.90625H10.2188V7.8125C10.2188 7.55469 10.4297 7.34375 10.6875 7.34375Z" fill="black" fill-opacity="0.72"/>
</g>
<defs>
<clipPath id="clip0_2556_10125">
<rect width="15" height="18" fill="white"/>
</clipPath>
</defs>
</svg>
