<svg width="12" height="24" viewBox="0 0 12 24" fill="none" xmlns="http://www.w3.org/2000/svg">
<g id="label-paired / md / file-chart-column-md / fill" clip-path="url(#clip0_2556_14958)">
<path id="icon" d="M2 4H7V8C7 8.5625 7.4375 9 8 9H12V18C12 19.125 11.0938 20 10 20H2C0.875 20 0 19.125 0 18V6C0 4.90625 0.875 4 2 4ZM8 4L12 8H8V4ZM6.75 11.75C6.75 11.3438 6.40625 11 6 11C5.5625 11 5.25 11.3438 5.25 11.75V17.25C5.25 17.6875 5.5625 18 6 18C6.40625 18 6.75 17.6875 6.75 17.25V11.75ZM9.5 13.75C9.5 13.3438 9.15625 13 8.75 13C8.3125 13 8 13.3438 8 13.75V17.25C8 17.6875 8.3125 18 8.75 18C9.15625 18 9.5 17.6875 9.5 17.25V13.75ZM4 15.75C4 15.3438 3.65625 15 3.25 15C2.8125 15 2.5 15.3438 2.5 15.75V17.25C2.5 17.6875 2.8125 18 3.25 18C3.65625 18 4 17.6875 4 17.25V15.75Z" fill="black" fill-opacity="0.72"/>
</g>
<defs>
<clipPath id="clip0_2556_14958">
<rect width="12" height="24" fill="white"/>
</clipPath>
</defs>
</svg>
