<svg width="21" height="36" viewBox="0 0 21 36" fill="none" xmlns="http://www.w3.org/2000/svg">
<g id="label-paired / xl / floppy-disk-xl / bold" clip-path="url(#clip0_2556_19975)">
<path id="icon" d="M2.25 10.5V25.5C2.25 25.9219 2.57812 26.25 3 26.25H18C18.375 26.25 18.75 25.9219 18.75 25.5V14.0156C18.75 13.8281 18.6562 13.6406 18.5156 13.5L20.1094 11.9062C20.6719 12.4688 20.9531 13.2188 20.9531 14.0156V25.5C20.9531 27.1875 19.6406 28.5 17.9531 28.5H3C1.3125 28.5 0 27.1875 0 25.5V10.5C0 8.85938 1.3125 7.5 3 7.5H14.4844C15.2812 7.5 16.0312 7.82812 16.5938 8.39062L20.1094 11.9062L18.5156 13.5L15 9.98438C15 9.98438 15 9.98438 15 9.9375V14.625C15 15.2812 14.4844 15.75 13.875 15.75H4.875C4.21875 15.75 3.75 15.2812 3.75 14.625V9.75H3C2.57812 9.75 2.25 10.125 2.25 10.5ZM6 9.75V13.5H12.75V9.75H6ZM7.5 21C7.5 19.9688 8.0625 18.9844 9 18.4219C9.89062 17.9062 11.0625 17.9062 12 18.4219C12.8906 18.9844 13.5 19.9688 13.5 21C13.5 22.0781 12.8906 23.0625 12 23.625C11.0625 24.1406 9.89062 24.1406 9 23.625C8.0625 23.0625 7.5 22.0781 7.5 21Z" fill="black" fill-opacity="0.72"/>
</g>
<defs>
<clipPath id="clip0_2556_19975">
<rect width="21" height="36" fill="white"/>
</clipPath>
</defs>
</svg>
