<svg width="14" height="22" viewBox="0 0 14 22" fill="none" xmlns="http://www.w3.org/2000/svg">
<g id="label-paired / sm / circle-ellipsis-sm / bold" clip-path="url(#clip0_2556_12843)">
<path id="icon" d="M7 16.4375C9.02344 16.4375 10.8828 15.3711 11.9219 13.5938C12.9336 11.8438 12.9336 9.68359 11.9219 7.90625C10.8828 6.15625 9.02344 5.0625 7 5.0625C4.94922 5.0625 3.08984 6.15625 2.05078 7.90625C1.03906 9.68359 1.03906 11.8438 2.05078 13.5938C3.08984 15.3711 4.94922 16.4375 7 16.4375ZM7 3.75C9.48828 3.75 11.7852 5.08984 13.043 7.25C14.3008 9.4375 14.3008 12.0898 13.043 14.25C11.7852 16.4375 9.48828 17.75 7 17.75C4.48438 17.75 2.1875 16.4375 0.929688 14.25C-0.328125 12.0898 -0.328125 9.4375 0.929688 7.25C2.1875 5.08984 4.48438 3.75 7 3.75ZM7.875 10.75C7.875 11.2422 7.46484 11.625 7 11.625C6.50781 11.625 6.125 11.2422 6.125 10.75C6.125 10.2852 6.50781 9.875 7 9.875C7.46484 9.875 7.875 10.2852 7.875 10.75ZM9.625 9.875C10.0898 9.875 10.5 10.2852 10.5 10.75C10.5 11.2422 10.0898 11.625 9.625 11.625C9.13281 11.625 8.75 11.2422 8.75 10.75C8.75 10.2852 9.13281 9.875 9.625 9.875ZM5.25 10.75C5.25 11.2422 4.83984 11.625 4.375 11.625C3.88281 11.625 3.5 11.2422 3.5 10.75C3.5 10.2852 3.88281 9.875 4.375 9.875C4.83984 9.875 5.25 10.2852 5.25 10.75Z" fill="black" fill-opacity="0.72"/>
</g>
<defs>
<clipPath id="clip0_2556_12843">
<rect width="14" height="22" fill="white"/>
</clipPath>
</defs>
</svg>
