<svg width="16" height="24" viewBox="0 0 16 24" fill="none" xmlns="http://www.w3.org/2000/svg">
<g id="label-paired / md / chevrons-down-md / bold" clip-path="url(#clip0_2556_14898)">
<path id="icon" d="M7.46875 18.5312L1.46875 12.5312C1.15625 12.25 1.15625 11.7812 1.46875 11.4688C1.75 11.1875 2.21875 11.1875 2.53125 11.4688L8 16.9688L13.4688 11.5C13.75 11.1875 14.2188 11.1875 14.5312 11.5C14.8125 11.7812 14.8125 12.25 14.5312 12.5312L8.5 18.5312C8.21875 18.8438 7.75 18.8438 7.46875 18.5312ZM1.46875 6.53125C1.15625 6.25 1.15625 5.78125 1.46875 5.46875C1.75 5.1875 2.21875 5.1875 2.53125 5.46875L8 10.9688L13.4688 5.5C13.75 5.1875 14.2188 5.1875 14.5312 5.5C14.8125 5.78125 14.8125 6.25 14.5312 6.53125L8.5 12.5312C8.21875 12.8438 7.75 12.8438 7.46875 12.5312L1.46875 6.53125Z" fill="black" fill-opacity="0.72"/>
</g>
<defs>
<clipPath id="clip0_2556_14898">
<rect width="16" height="24" fill="white"/>
</clipPath>
</defs>
</svg>
