<svg width="16" height="24" viewBox="0 0 16 24" fill="none" xmlns="http://www.w3.org/2000/svg">
<g id="label-paired / md / chart-mixed-md / bold" clip-path="url(#clip0_2556_14991)">
<path id="icon" d="M15.7188 6.34375L10.4688 10.8438C10.1875 11.0625 9.78125 11.0625 9.5 10.8438L5.9375 7.71875L1.15625 10.875C0.8125 11.125 0.34375 11.0312 0.125 10.6875C-0.125 10.3438 -0.03125 9.875 0.3125 9.625L5.5625 6.125C5.84375 5.9375 6.21875 5.96875 6.46875 6.1875L10 9.28125L14.75 5.1875C15.0625 4.9375 15.5312 4.96875 15.8125 5.28125C16.0625 5.59375 16.0312 6.0625 15.7188 6.34375ZM6.25 17.5V12.5C6.25 12.375 6.125 12.25 6 12.25C5.84375 12.25 5.75 12.375 5.75 12.5V17.5C5.75 17.6562 5.84375 17.75 6 17.75C6.125 17.75 6.25 17.6562 6.25 17.5ZM6 11C6.8125 11 7.5 11.6875 7.5 12.5V17.5C7.5 18.3438 6.8125 19 6 19C5.15625 19 4.5 18.3438 4.5 17.5V12.5C4.5 11.6875 5.15625 11 6 11ZM2.25 17.5V15.5C2.25 15.375 2.125 15.25 2 15.25C1.84375 15.25 1.75 15.375 1.75 15.5V17.5C1.75 17.6562 1.84375 17.75 2 17.75C2.125 17.75 2.25 17.6562 2.25 17.5ZM2 14C2.8125 14 3.5 14.6875 3.5 15.5V17.5C3.5 18.3438 2.8125 19 2 19C1.15625 19 0.5 18.3438 0.5 17.5V15.5C0.5 14.6875 1.15625 14 2 14ZM10.25 14.5C10.25 14.375 10.125 14.25 10 14.25C9.84375 14.25 9.75 14.375 9.75 14.5V17.5C9.75 17.6562 9.84375 17.75 10 17.75C10.125 17.75 10.25 17.6562 10.25 17.5V14.5ZM8.5 14.5C8.5 13.6875 9.15625 13 10 13C10.8125 13 11.5 13.6875 11.5 14.5V17.5C11.5 18.3438 10.8125 19 10 19C9.15625 19 8.5 18.3438 8.5 17.5V14.5ZM14.25 17.5V12.5C14.25 12.375 14.125 12.25 14 12.25C13.8438 12.25 13.75 12.375 13.75 12.5V17.5C13.75 17.6562 13.8438 17.75 14 17.75C14.125 17.75 14.25 17.6562 14.25 17.5ZM14 11C14.8125 11 15.5 11.6875 15.5 12.5V17.5C15.5 18.3438 14.8125 19 14 19C13.1562 19 12.5 18.3438 12.5 17.5V12.5C12.5 11.6875 13.1562 11 14 11Z" fill="black" fill-opacity="0.72"/>
</g>
<defs>
<clipPath id="clip0_2556_14991">
<rect width="16" height="24" fill="white"/>
</clipPath>
</defs>
</svg>
