<svg width="20" height="30" viewBox="0 0 20 30" fill="none" xmlns="http://www.w3.org/2000/svg">
<g id="label-paired / lg / circle-arrow-left-lg / regular" clip-path="url(#clip0_2556_17368)">
<path id="icon" d="M1.25 15.5C1.25 18.6641 2.89062 21.5156 5.625 23.0781C8.32031 24.6797 11.6406 24.6797 14.375 23.0781C17.0703 21.5156 18.75 18.6641 18.75 15.5C18.75 12.375 17.0703 9.52344 14.375 7.96094C11.6406 6.35938 8.32031 6.35938 5.625 7.96094C2.89062 9.52344 1.25 12.375 1.25 15.5ZM20 15.5C20 19.0938 18.0859 22.375 15 24.1719C11.875 25.9688 8.08594 25.9688 5 24.1719C1.875 22.375 0 19.0938 0 15.5C0 11.9453 1.875 8.66406 5 6.86719C8.08594 5.07031 11.875 5.07031 15 6.86719C18.0859 8.66406 20 11.9453 20 15.5ZM8.90625 11.3203C9.14062 11.0859 9.57031 11.0859 9.80469 11.3203C10.0391 11.5547 10.0391 11.9844 9.80469 12.2188L7.10938 14.875H14.375C14.6875 14.875 15 15.1875 15 15.5C15 15.8516 14.6875 16.125 14.375 16.125H7.10938L9.80469 18.8203C10.0391 19.0547 10.0391 19.4844 9.80469 19.7188C9.57031 19.9531 9.14062 19.9531 8.90625 19.7188L5.15625 15.9688C4.92188 15.7344 4.92188 15.3047 5.15625 15.0703L8.90625 11.3203Z" fill="black" fill-opacity="0.72"/>
</g>
<defs>
<clipPath id="clip0_2556_17368">
<rect width="20" height="30" fill="white"/>
</clipPath>
</defs>
</svg>
