<svg width="14" height="24" viewBox="0 0 14 24" fill="none" xmlns="http://www.w3.org/2000/svg">
<g id="label-paired / md / trash-md / fill" clip-path="url(#clip0_2556_15256)">
<path id="icon" d="M4.21875 4.5625C4.375 4.21875 4.71875 4 5.09375 4H8.875C9.25 4 9.59375 4.21875 9.75 4.5625L10 5H13C13.5312 5 14 5.46875 14 6C14 6.5625 13.5312 7 13 7H1C0.4375 7 0 6.5625 0 6C0 5.46875 0.4375 5 1 5H4L4.21875 4.5625ZM13 8L12.3125 18.5938C12.2812 19.4062 11.625 20 10.8125 20H3.15625C2.34375 20 1.6875 19.4062 1.65625 18.5938L1 8H13Z" fill="black" fill-opacity="0.72"/>
</g>
<defs>
<clipPath id="clip0_2556_15256">
<rect width="14" height="24" fill="white"/>
</clipPath>
</defs>
</svg>
