<svg width="18" height="24" viewBox="0 0 18 24" fill="none" xmlns="http://www.w3.org/2000/svg">
<g id="label-paired / md / share-from-square-md / fill" clip-path="url(#clip0_4038_436)">
<path id="icon" d="M11 11H9.53125C8.125 11 7 12.1562 7 13.5625C7 14.25 7.3125 14.625 7.59375 14.8125C7.8125 14.9688 8 15.1875 8 15.4688C8 15.7812 7.75 16.0312 7.4375 16.0312H7.34375C7.28125 16.0312 7.1875 16 7.125 15.9688C6.5625 15.7188 4 14.4375 4 11.5C4 9.03125 6 7 8.5 7H11V5.09375C11 4.5 11.4688 4 12.0625 4C12.3438 4 12.5938 4.125 12.7812 4.28125L17.125 8.1875C17.3438 8.40625 17.5 8.6875 17.5 9C17.5 9.34375 17.3438 9.625 17.125 9.84375L12.7812 13.75C12.5938 13.9375 12.3438 14 12.0938 14H12C11.4375 14 11 13.5625 11 13V11ZM2.5 7C2.21875 7 2 7.25 2 7.5V17.5C2 17.7812 2.21875 18 2.5 18H12.5C12.75 18 13 17.7812 13 17.5V16C13 15.4688 13.4375 15 14 15C14.5312 15 15 15.4688 15 16V17.5C15 18.9062 13.875 20 12.5 20H2.5C1.09375 20 0 18.9062 0 17.5V7.5C0 6.125 1.09375 5 2.5 5H4C4.53125 5 5 5.46875 5 6C5 6.5625 4.53125 7 4 7H2.5Z" fill="black" fill-opacity="0.72"/>
</g>
<defs>
<clipPath id="clip0_4038_436">
<rect width="18" height="24" fill="white"/>
</clipPath>
</defs>
</svg>
