<svg width="23" height="36" viewBox="0 0 23 36" fill="none" xmlns="http://www.w3.org/2000/svg">
<g id="label-paired / xl / rotate-device-xl / regular" clip-path="url(#clip0_4329_568)">
<path id="icon" d="M5.875 14.3906L7.46875 12.7969L7.14062 12.4688L5.54688 14.0625L5.875 14.3906ZM19.0938 19.0781C19.7969 19.8281 19.7969 21 19.0938 21.75L14.8281 25.9688C14.125 26.7188 12.9062 26.7188 12.2031 25.9688L3.71875 17.4844C2.96875 16.7812 2.96875 15.5625 3.71875 14.8594L7.9375 10.5938C8.6875 9.89062 9.85938 9.89062 10.6094 10.5938L19.0938 19.0781ZM8.03125 12.2812C8.3125 12.5625 8.3125 12.9844 8.03125 13.2656L6.34375 14.9531C6.10938 15.2344 5.64062 15.2344 5.40625 14.9531L5.03125 14.5781L4.23438 15.375C3.76562 15.8438 3.76562 16.5469 4.23438 16.9688L12.7188 25.4531C13.1406 25.875 13.8438 25.875 14.3125 25.4531L18.5312 21.2344C19 20.7656 19 20.0625 18.5312 19.6406L10.0469 11.1562C9.625 10.6875 8.92188 10.6875 8.45312 11.1562L7.65625 11.9531L8.03125 12.3281V12.2812ZM19 10.6875C18.625 10.3125 18.25 9.98438 17.8281 9.70312L17.4531 9.42188C16.9375 9.14062 16.4688 8.90625 15.9062 8.71875L15.3906 8.53125L14.875 8.39062C14.5469 8.29688 14.1719 8.25 13.8438 8.20312L15.7656 10.1719L15.25 10.6875L12.625 8.0625L12.0156 7.40625H12.9062H13.4219C13.9844 7.45312 14.5 7.54688 15.0156 7.64062L15.625 7.82812L16.1875 8.01562C16.75 8.20312 17.3125 8.48438 17.8281 8.8125L18.2969 9.09375C18.7188 9.42188 19.1406 9.75 19.5156 10.1719C21.3438 12 22.2812 14.3906 22.2812 16.7812H21.5312C21.5312 14.5781 20.6875 12.375 19 10.6875ZM3.76562 25.9219C4.14062 26.25 4.51562 26.5781 4.9375 26.8594L5.35938 27.1406C5.82812 27.4688 6.34375 27.7031 6.85938 27.8906L7.375 28.0781L7.9375 28.2188C8.26562 28.3125 8.59375 28.3594 8.92188 28.4062L7 26.4375L7.51562 25.9219L10.1406 28.5469L10.7969 29.2031H9.85938L9.34375 29.1562C8.82812 29.1562 8.26562 29.0625 7.75 28.9219L7.14062 28.7812L6.57812 28.5938C6.01562 28.3594 5.45312 28.125 4.9375 27.7969L4.51562 27.4688C4.04688 27.1875 3.625 26.8125 3.25 26.4375C1.42188 24.6094 0.484375 22.2188 0.484375 19.8281H1.23438C1.23438 22.0312 2.07812 24.2344 3.76562 25.9219Z" fill="black" fill-opacity="0.72"/>
</g>
<defs>
<clipPath id="clip0_4329_568">
<rect width="23" height="36" fill="white"/>
</clipPath>
</defs>
</svg>
