<svg width="12" height="24" viewBox="0 0 12 24" fill="none" xmlns="http://www.w3.org/2000/svg">
<g id="label-paired / md / mobile-screen-button-md / regular" clip-path="url(#clip0_2556_14881)">
<path id="icon" d="M9 5H3C2.4375 5 2 5.46875 2 6V14H10V6C10 5.46875 9.53125 5 9 5ZM10 15H2V18C2 18.5625 2.4375 19 3 19H9C9.53125 19 10 18.5625 10 18V15ZM3 4H9C10.0938 4 11 4.90625 11 6V18C11 19.125 10.0938 20 9 20H3C1.875 20 1 19.125 1 18V6C1 4.90625 1.875 4 3 4ZM4.5 17C4.5 16.75 4.71875 16.5 5 16.5H7C7.25 16.5 7.5 16.75 7.5 17C7.5 17.2812 7.25 17.5 7 17.5H5C4.71875 17.5 4.5 17.2812 4.5 17Z" fill="black" fill-opacity="0.72"/>
</g>
<defs>
<clipPath id="clip0_2556_14881">
<rect width="12" height="24" fill="white"/>
</clipPath>
</defs>
</svg>
