<svg width="14" height="22" viewBox="0 0 14 22" fill="none" xmlns="http://www.w3.org/2000/svg">
<g id="label-paired / sm / bullhorn-sm / fill" clip-path="url(#clip0_2556_12358)">
<path id="icon" d="M13.125 4.625V8.67188C13.6172 8.91797 14 9.57422 14 10.3125C14 11.0781 13.6172 11.7344 13.125 11.9805V16C13.125 16.3555 12.9062 16.6836 12.5781 16.8203C12.25 16.957 11.8672 16.875 11.6211 16.6289L10.418 15.4258C9.10547 14.1133 7.32812 13.375 5.46875 13.375H5.25V16.875C5.25 17.3672 4.83984 17.75 4.375 17.75H2.625C2.13281 17.75 1.75 17.3672 1.75 16.875V13.375C0.765625 13.375 0 12.6094 0 11.625V9C0 8.04297 0.765625 7.25 1.75 7.25H4.375H5.25H5.46875C7.32812 7.25 9.10547 6.51172 10.418 5.19922L11.6211 4.02344C11.8672 3.77734 12.25 3.69531 12.5781 3.83203C12.9062 3.96875 13.125 4.29688 13.125 4.625ZM11.375 6.73047C9.76172 8.20703 7.65625 9 5.46875 9H5.25V11.625H5.46875C7.65625 11.625 9.76172 12.4453 11.375 13.9219V10.3125V6.73047Z" fill="black" fill-opacity="0.72"/>
</g>
<defs>
<clipPath id="clip0_2556_12358">
<rect width="14" height="22" fill="white"/>
</clipPath>
</defs>
</svg>
