<svg width="16" height="24" viewBox="0 0 16 24" fill="none" xmlns="http://www.w3.org/2000/svg">
<g id="label-paired / md / circle-trash-md / fill" clip-path="url(#clip0_2556_15295)">
<path id="icon" d="M8 20C5.125 20 2.5 18.5 1.0625 16C-0.375 13.5312 -0.375 10.5 1.0625 8C2.5 5.53125 5.125 4 8 4C10.8438 4 13.4688 5.53125 14.9062 8C16.3438 10.5 16.3438 13.5312 14.9062 16C13.4688 18.5 10.8438 20 8 20ZM5 8C4.71875 8 4.5 8.25 4.5 8.5C4.5 8.78125 4.71875 9 5 9H11C11.25 9 11.5 8.78125 11.5 8.5C11.5 8.25 11.25 8 11 8H9.6875L9.34375 7.65625C9.25 7.5625 9.125 7.5 9 7.5H7C6.84375 7.5 6.71875 7.5625 6.625 7.65625L6.28125 8H5ZM5 10L5.40625 15.0938C5.4375 15.625 5.875 16 6.40625 16H9.5625C10.0938 16 10.5312 15.625 10.5625 15.0938L11 10H5Z" fill="black" fill-opacity="0.72"/>
</g>
<defs>
<clipPath id="clip0_2556_15295">
<rect width="16" height="24" fill="white"/>
</clipPath>
</defs>
</svg>
