<svg width="13" height="30" viewBox="0 0 13 30" fill="none" xmlns="http://www.w3.org/2000/svg">
<g id="label-paired / lg / three-lg / fill" clip-path="url(#clip0_2556_17539)">
<path id="icon" d="M0.25 8C0.25 7.33594 0.796875 6.75 1.5 6.75H10.875C11.3828 6.75 11.8516 7.10156 12.0078 7.57031C12.2031 8.03906 12.0859 8.58594 11.6953 8.9375L6.57812 13.625H7.4375C10.3672 13.625 12.75 16.0078 12.75 18.9375C12.75 21.9062 10.3672 24.25 7.4375 24.25H4.35156C2.71094 24.25 1.1875 23.3125 0.445312 21.8672L0.367188 21.7109C0.0546875 21.0859 0.289062 20.3438 0.914062 20.0312C1.53906 19.7188 2.28125 19.9531 2.59375 20.5781L2.67188 20.7344C2.98438 21.3594 3.64844 21.75 4.35156 21.75H7.4375C8.96094 21.75 10.25 20.5 10.25 18.9375C10.25 17.4141 8.96094 16.125 7.4375 16.125H3.375C2.82812 16.125 2.39844 15.8125 2.20312 15.3438C2.00781 14.875 2.125 14.3281 2.51562 13.9766L7.63281 9.25H1.5C0.796875 9.25 0.25 8.70312 0.25 8Z" fill="black" fill-opacity="0.72"/>
</g>
<defs>
<clipPath id="clip0_2556_17539">
<rect width="13" height="30" fill="white"/>
</clipPath>
</defs>
</svg>
