<svg width="16" height="24" viewBox="0 0 16 24" fill="none" xmlns="http://www.w3.org/2000/svg">
<g id="label-paired / md / paste-md / fill" clip-path="url(#clip0_2556_14947)">
<path id="icon" d="M5 4C5.71875 4 6.375 4.40625 6.71875 5H8.5C9.3125 5 10 5.6875 10 6.5V7H8.5C7.09375 7 6 8.125 6 9.5V18H1.5C0.65625 18 0 17.3438 0 16.5V6.5C0 5.6875 0.65625 5 1.5 5H3.25C3.59375 4.40625 4.25 4 5 4ZM8.5 8H10H12.375C12.75 8 13.1562 8.1875 13.4375 8.46875L15.5312 10.5625C15.8125 10.8438 16 11.25 16 11.625V18.5C16 19.3438 15.3125 20 14.5 20H8.5C7.65625 20 7 19.3438 7 18.5V18V9.5C7 8.6875 7.65625 8 8.5 8ZM5 5.25C4.5625 5.25 4.25 5.59375 4.25 6C4.25 6.4375 4.5625 6.75 5 6.75C5.40625 6.75 5.75 6.4375 5.75 6C5.75 5.59375 5.40625 5.25 5 5.25Z" fill="black" fill-opacity="0.72"/>
</g>
<defs>
<clipPath id="clip0_2556_14947">
<rect width="16" height="24" fill="white"/>
</clipPath>
</defs>
</svg>
