<svg width="18" height="30" viewBox="0 0 18 30" fill="none" xmlns="http://www.w3.org/2000/svg">
<g id="label-paired / lg / arrow-up-from-bracket-lg / fill" clip-path="url(#clip0_2556_17519)">
<path id="icon" d="M9.85938 5.89062L14.8594 10.8906C15.3672 11.3594 15.3672 12.1797 14.8594 12.6484C14.3906 13.1562 13.5703 13.1562 13.1016 12.6484L10.25 9.79688V18C10.25 18.7031 9.66406 19.25 9 19.25C8.29688 19.25 7.75 18.7031 7.75 18V9.79688L4.85938 12.6484C4.39062 13.1562 3.57031 13.1562 3.10156 12.6484C2.59375 12.1797 2.59375 11.3594 3.10156 10.8906L8.10156 5.89062C8.57031 5.38281 9.39062 5.38281 9.85938 5.89062ZM2.75 19.25V21.75C2.75 22.4531 3.29688 23 4 23H14C14.6641 23 15.25 22.4531 15.25 21.75V19.25C15.25 18.5859 15.7969 18 16.5 18C17.1641 18 17.75 18.5859 17.75 19.25V21.75C17.75 23.8203 16.0703 25.5 14 25.5H4C1.92969 25.5 0.25 23.8203 0.25 21.75V19.25C0.25 18.5859 0.796875 18 1.5 18C2.16406 18 2.75 18.5859 2.75 19.25Z" fill="black" fill-opacity="0.72"/>
</g>
<defs>
<clipPath id="clip0_2556_17519">
<rect width="18" height="30" fill="white"/>
</clipPath>
</defs>
</svg>
