<svg width="20" height="24" viewBox="0 0 20 24" fill="none" xmlns="http://www.w3.org/2000/svg">
<g id="label-paired / md / link-md / regular" clip-path="url(#clip0_4460_533)">
<path id="icon" d="M18.4688 12L14.5625 15.9062C13 17.4688 10.4688 17.4688 8.9375 15.9062C7.4375 14.4062 7.34375 12.0312 8.71875 10.4688L8.90625 10.2812C9.0625 10.0625 9.40625 10.0312 9.59375 10.2188C9.8125 10.4062 9.84375 10.7188 9.65625 10.9375L9.5 11.125C8.46875 12.3125 8.53125 14.0938 9.625 15.1875C10.8125 16.375 12.6875 16.375 13.875 15.1875L17.75 11.3125C18.9375 10.125 18.9375 8.25 17.75 7.0625C16.5938 5.90625 14.6875 5.90625 13.5312 7.0625L12.8125 7.78125C12.625 7.96875 12.3125 7.96875 12.0938 7.78125C11.9062 7.5625 11.9062 7.25 12.0938 7.0625L12.8125 6.34375C14.375 4.78125 16.9062 4.78125 18.4688 6.34375C20.0312 7.90625 20.0312 10.4375 18.4688 12ZM1.5 12L5.40625 8.125C6.96875 6.5625 9.46875 6.5625 11.0625 8.125C12.5312 9.59375 12.625 11.9688 11.25 13.5625L11.0625 13.75C10.9062 13.9688 10.5938 14 10.375 13.8125C10.1562 13.625 10.125 13.3125 10.3125 13.0938L10.5 12.9062C11.5 11.7188 11.4375 9.9375 10.3438 8.84375C9.15625 7.65625 7.28125 7.65625 6.09375 8.84375L2.21875 12.7188C1.03125 13.9062 1.03125 15.7812 2.21875 16.9688C3.375 18.125 5.28125 18.125 6.4375 16.9688L7.15625 16.25C7.34375 16.0625 7.65625 16.0625 7.875 16.25C8.0625 16.4375 8.0625 16.7812 7.875 16.9688L7.15625 17.6562C5.59375 19.2188 3.0625 19.2188 1.5 17.6562C-0.0625 16.0938 -0.0625 13.5625 1.5 12Z" fill="black" fill-opacity="0.72"/>
</g>
<defs>
<clipPath id="clip0_4460_533">
<rect width="20" height="24" fill="white"/>
</clipPath>
</defs>
</svg>
