<svg width="14" height="22" viewBox="0 0 14 22" fill="none" xmlns="http://www.w3.org/2000/svg">
<g id="label-paired / sm / file-certificate-sm / regular" clip-path="url(#clip0_2556_12384)">
<path id="icon" d="M13.125 16V9H10.0625C9.32422 9 8.75 8.42578 8.75 7.6875V4.625H5.25C4.75781 4.625 4.375 5.03516 4.375 5.5V7.25C4.12891 7.25 3.88281 7.27734 3.66406 7.35938C3.60938 7.38672 3.52734 7.44141 3.5 7.44141V7.46875V5.5C3.5 4.54297 4.26562 3.75 5.25 3.75H9.51562C9.84375 3.75 10.1992 3.91406 10.4453 4.16016L13.5898 7.30469C13.8359 7.55078 14 7.90625 14 8.23438V16C14 16.9844 13.207 17.75 12.25 17.75H6.04297C6.09766 17.6133 6.125 17.4766 6.125 17.3125V16.875H12.25C12.7148 16.875 13.125 16.4922 13.125 16ZM13.0977 8.125C13.0703 8.07031 13.043 7.98828 12.9883 7.93359L9.81641 4.76172C9.76172 4.70703 9.67969 4.67969 9.625 4.65234V7.6875C9.625 7.93359 9.81641 8.125 10.0625 8.125H13.0977ZM6.80859 11.625V11.6523C6.80859 11.6523 6.80859 11.707 6.91797 11.9258C7.08203 12.3359 6.94531 12.8281 6.58984 13.1016C6.39844 13.2383 6.37109 13.293 6.37109 13.293C6.37109 13.3203 6.34375 13.375 6.31641 13.5938C6.26172 14.0586 5.90625 14.4141 5.44141 14.4688C5.33203 14.4688 5.27734 14.4961 5.25 14.4961V17.3125C5.25 17.4766 5.14062 17.6406 5.00391 17.7227C4.86719 17.7773 4.70312 17.7773 4.56641 17.6953L3.5 16.9844L2.40625 17.6953C2.29688 17.7773 2.10547 17.7773 1.96875 17.7227C1.83203 17.6406 1.75 17.4766 1.75 17.3125V14.4961C1.69531 14.4961 1.64062 14.4688 1.53125 14.4688C1.06641 14.3867 0.738281 14.0586 0.65625 13.5938C0.628906 13.3477 0.628906 13.3203 0.601562 13.293C0.601562 13.293 0.574219 13.2383 0.382812 13.1016C0.0273438 12.8281 -0.109375 12.3359 0.0546875 11.9258C0.164062 11.707 0.164062 11.6523 0.164062 11.625C0.164062 11.625 0.164062 11.5703 0.0546875 11.3516C-0.109375 10.9414 0.0273438 10.4492 0.382812 10.1758C0.574219 10.0391 0.601562 9.98438 0.601562 9.98438C0.601562 9.95703 0.628906 9.90234 0.65625 9.68359C0.738281 9.21875 1.06641 8.86328 1.53125 8.80859C1.77734 8.78125 1.80469 8.75391 1.83203 8.75391C1.83203 8.75391 1.88672 8.72656 2.02344 8.53516C2.29688 8.17969 2.78906 8.04297 3.19922 8.20703C3.41797 8.31641 3.47266 8.31641 3.5 8.31641C3.5 8.31641 3.55469 8.31641 3.77344 8.20703C4.18359 8.04297 4.67578 8.17969 4.94922 8.53516C5.11328 8.72656 5.14062 8.75391 5.16797 8.75391C5.16797 8.75391 5.22266 8.78125 5.44141 8.80859C5.90625 8.86328 6.26172 9.21875 6.31641 9.68359C6.34375 9.90234 6.37109 9.95703 6.37109 9.98438C6.37109 9.98438 6.39844 10.0391 6.58984 10.1758C6.94531 10.4492 7.08203 10.9414 6.91797 11.3516C6.83594 11.5703 6.80859 11.625 6.80859 11.625ZM2.625 16.5195L3.25391 16.082C3.39062 16 3.58203 16 3.71875 16.082L4.375 16.5195V15.125C4.15625 15.1523 3.96484 15.1523 3.77344 15.0703C3.55469 14.9609 3.5 14.9609 3.5 14.9609C3.47266 14.9609 3.41797 14.9609 3.19922 15.0703C3.00781 15.1523 2.81641 15.1523 2.625 15.125V16.5195ZM1.03906 11.625C1.03906 11.8711 0.957031 12.0625 0.875 12.2539C0.847656 12.3086 0.875 12.3633 0.929688 12.418C1.09375 12.5547 1.25781 12.6641 1.36719 12.8555C1.47656 13.0469 1.50391 13.2656 1.53125 13.4844C1.53125 13.5391 1.58594 13.5938 1.64062 13.5938C1.85938 13.6211 2.07812 13.6484 2.26953 13.7578C2.46094 13.8672 2.59766 14.0312 2.70703 14.1953C2.76172 14.25 2.81641 14.2773 2.87109 14.25C3.0625 14.168 3.25391 14.0859 3.5 14.0859C3.71875 14.0859 3.91016 14.168 4.10156 14.25C4.15625 14.2773 4.21094 14.25 4.26562 14.1953C4.40234 14.0312 4.51172 13.8672 4.70312 13.7578C4.89453 13.6484 5.11328 13.6211 5.33203 13.5938C5.38672 13.5938 5.44141 13.5391 5.44141 13.4844C5.46875 13.2656 5.49609 13.0469 5.60547 12.8555C5.71484 12.6641 5.87891 12.5273 6.07031 12.418C6.09766 12.3633 6.125 12.3086 6.09766 12.2539C6.01562 12.0625 5.93359 11.8711 5.93359 11.625C5.93359 11.4062 6.01562 11.2148 6.09766 11.0234C6.125 10.9688 6.09766 10.9141 6.07031 10.8594C5.87891 10.7227 5.71484 10.6133 5.60547 10.4219C5.49609 10.2305 5.46875 10.0117 5.44141 9.79297C5.44141 9.73828 5.38672 9.68359 5.33203 9.68359C5.11328 9.65625 4.89453 9.62891 4.70312 9.51953C4.51172 9.41016 4.40234 9.24609 4.26562 9.05469C4.21094 9.02734 4.15625 9 4.10156 9.02734C3.91016 9.10938 3.71875 9.19141 3.5 9.19141C3.25391 9.19141 3.0625 9.10938 2.87109 9.02734C2.81641 9 2.76172 9.02734 2.70703 9.05469C2.57031 9.24609 2.46094 9.41016 2.26953 9.51953C2.07812 9.62891 1.85938 9.65625 1.64062 9.68359C1.58594 9.68359 1.53125 9.73828 1.53125 9.79297C1.50391 10.0117 1.47656 10.2305 1.36719 10.4219C1.25781 10.6133 1.09375 10.7227 0.929688 10.8594C0.875 10.9141 0.847656 10.9688 0.875 11.0234C0.957031 11.2148 1.03906 11.4062 1.03906 11.625Z" fill="black" fill-opacity="0.72"/>
</g>
<defs>
<clipPath id="clip0_2556_12384">
<rect width="14" height="22" fill="white"/>
</clipPath>
</defs>
</svg>
