<svg width="9" height="18" viewBox="0 0 9 18" fill="none" xmlns="http://www.w3.org/2000/svg">
<g id="label-paired / caption / four-caption / bold" clip-path="url(#clip0_2556_10256)">
<path id="icon" d="M4.42969 5.09375L1.47656 10.625H6.375V7.0625C6.375 6.75781 6.60938 6.5 6.9375 6.5C7.24219 6.5 7.5 6.75781 7.5 7.0625V10.625H8.4375C8.74219 10.625 9 10.8828 9 11.1875C9 11.5156 8.74219 11.75 8.4375 11.75H7.5V14.1875C7.5 14.5156 7.24219 14.75 6.9375 14.75C6.60938 14.75 6.375 14.5156 6.375 14.1875V11.75H0.5625C0.351562 11.75 0.164062 11.6562 0.0703125 11.4922C-0.0234375 11.3281 -0.046875 11.1172 0.046875 10.9297L3.42188 4.55469C3.58594 4.29688 3.91406 4.17969 4.19531 4.32031C4.45312 4.46094 4.57031 4.8125 4.42969 5.09375Z" fill="black" fill-opacity="0.72"/>
</g>
<defs>
<clipPath id="clip0_2556_10256">
<rect width="9" height="18" fill="white"/>
</clipPath>
</defs>
</svg>
