<svg width="15" height="30" viewBox="0 0 15 30" fill="none" xmlns="http://www.w3.org/2000/svg">
<g id="label-paired / lg / play-lg / regular" clip-path="url(#clip0_2556_16989)">
<path id="icon" d="M2.1875 8.11719C1.99219 8 1.75781 8 1.5625 8.07812C1.36719 8.19531 1.21094 8.42969 1.21094 8.625V22.375C1.21094 22.6094 1.36719 22.8438 1.5625 22.9219C1.75781 23.0391 1.99219 23.0391 2.1875 22.9219L13.4375 16.0469C13.6328 15.9297 13.75 15.7344 13.75 15.5C13.75 15.3047 13.6328 15.1094 13.4375 14.9922L2.1875 8.11719ZM0.9375 7.02344C1.52344 6.67188 2.26562 6.67188 2.85156 7.02344L14.1016 13.8984C14.6484 14.25 15 14.875 15 15.5C15 16.1641 14.6484 16.7891 14.1016 17.1016L2.85156 23.9766C2.26562 24.3672 1.52344 24.3672 0.9375 24.0156C0.351562 23.7031 0 23.0781 0 22.375V8.625C0 7.96094 0.351562 7.33594 0.9375 7.02344Z" fill="black" fill-opacity="0.72"/>
</g>
<defs>
<clipPath id="clip0_2556_16989">
<rect width="15" height="30" fill="white"/>
</clipPath>
</defs>
</svg>
