<svg width="21" height="36" viewBox="0 0 21 36" fill="none" xmlns="http://www.w3.org/2000/svg">
<g id="label-paired / xl / arrow-down-to-bracket-xl / bold" clip-path="url(#clip0_2556_19869)">
<path id="icon" d="M17.2969 16.1719L11.2969 22.1719C10.8281 22.6406 10.125 22.6406 9.70312 22.1719L3.70312 16.1719C3.23438 15.75 3.23438 15.0469 3.70312 14.625C4.125 14.1562 4.82812 14.1562 5.25 14.625L9.32812 18.7031V7.125C9.32812 6.51562 9.84375 6 10.4531 6C11.1094 6 11.5781 6.51562 11.5781 7.125V18.7031L15.6562 14.625C16.125 14.1562 16.8281 14.1562 17.25 14.625C17.7188 15.0469 17.7188 15.75 17.25 16.1719H17.2969ZM2.25 22.125V25.875C2.25 26.9531 3.04688 27.75 4.125 27.75H16.875C17.9062 27.75 18.75 26.9531 18.75 25.875V22.125C18.75 21.5156 19.2188 21 19.875 21C20.4844 21 21 21.5156 21 22.125V25.875C21 28.1719 19.125 30 16.875 30H4.125C1.82812 30 0 28.1719 0 25.875V22.125C0 21.5156 0.46875 21 1.125 21C1.73438 21 2.25 21.5156 2.25 22.125Z" fill="black" fill-opacity="0.72"/>
</g>
<defs>
<clipPath id="clip0_2556_19869">
<rect width="21" height="36" fill="white"/>
</clipPath>
</defs>
</svg>
