<svg width="20" height="30" viewBox="0 0 20 30" fill="none" xmlns="http://www.w3.org/2000/svg">
<g id="label-paired / lg / circle-arrow-down-lg / regular" clip-path="url(#clip0_2556_17371)">
<path id="icon" d="M10 6.75C6.83594 6.75 3.98438 8.42969 2.42188 11.125C0.820312 13.8594 0.820312 17.1797 2.42188 19.875C3.98438 22.6094 6.83594 24.25 10 24.25C13.125 24.25 15.9766 22.6094 17.5391 19.875C19.1406 17.1797 19.1406 13.8594 17.5391 11.125C15.9766 8.42969 13.125 6.75 10 6.75ZM10 25.5C6.40625 25.5 3.125 23.625 1.32812 20.5C-0.46875 17.4141 -0.46875 13.625 1.32812 10.5C3.125 7.41406 6.40625 5.5 10 5.5C13.5547 5.5 16.8359 7.41406 18.6328 10.5C20.4297 13.625 20.4297 17.4141 18.6328 20.5C16.8359 23.625 13.5547 25.5 10 25.5ZM14.1797 16.5938L10.4297 20.3438C10.1953 20.5781 9.76562 20.5781 9.53125 20.3438L5.78125 16.5938C5.54688 16.3594 5.54688 15.9297 5.78125 15.6953C6.01562 15.4609 6.44531 15.4609 6.67969 15.6953L9.375 18.3906V11.125C9.375 10.8125 9.64844 10.5 10 10.5C10.3125 10.5 10.625 10.8125 10.625 11.125V18.3906L13.2812 15.6953C13.5156 15.4609 13.9453 15.4609 14.1797 15.6953C14.4141 15.9297 14.4141 16.3594 14.1797 16.5938Z" fill="black" fill-opacity="0.72"/>
</g>
<defs>
<clipPath id="clip0_2556_17371">
<rect width="20" height="30" fill="white"/>
</clipPath>
</defs>
</svg>
