<svg width="14" height="24" viewBox="0 0 14 24" fill="none" xmlns="http://www.w3.org/2000/svg">
<g id="label-paired / md / copy-md / regular" clip-path="url(#clip0_2556_14742)">
<path id="icon" d="M12 15C12.5312 15 13 14.5625 13 14V7.625C13 7.5 12.9375 7.375 12.8438 7.28125L10.7188 5.15625C10.625 5.0625 10.5 5 10.375 5H7C6.4375 5 6 5.46875 6 6V14C6 14.5625 6.4375 15 7 15H12ZM13.5312 6.5625C13.8125 6.84375 14 7.25 14 7.625V14C14 15.125 13.0938 16 12 16H7C5.875 16 5 15.125 5 14V6C5 4.90625 5.875 4 7 4H10.375C10.75 4 11.1562 4.1875 11.4375 4.46875L13.5312 6.5625ZM2 8H4V9H2C1.4375 9 1 9.46875 1 10V18C1 18.5625 1.4375 19 2 19H7C7.53125 19 8 18.5625 8 18V17H9V18C9 19.125 8.09375 20 7 20H2C0.875 20 0 19.125 0 18V10C0 8.90625 0.875 8 2 8Z" fill="black" fill-opacity="0.72"/>
</g>
<defs>
<clipPath id="clip0_2556_14742">
<rect width="14" height="24" fill="white"/>
</clipPath>
</defs>
</svg>
