<svg width="15" height="18" viewBox="0 0 15 18" fill="none" xmlns="http://www.w3.org/2000/svg">
<g id="label-paired / caption / wallet-signal-caption / fill" clip-path="url(#clip0_2556_9905)">
<path id="icon" d="M0 5.75C0 4.92969 0.65625 4.25 1.5 4.25H10.5C10.8984 4.25 11.25 4.60156 11.25 5C11.25 5.42188 10.8984 5.75 10.5 5.75H1.875C1.66406 5.75 1.5 5.9375 1.5 6.125C1.5 6.33594 1.66406 6.5 1.875 6.5H10.5C11.3203 6.5 12 7.17969 12 8V9.26562C11.25 8.9375 10.4062 8.75 9.5625 8.75C8.83594 8.75 8.25 9.35938 8.25 10.0625C8.25 10.1328 8.25 10.2031 8.25 10.25V14.75H1.5C0.65625 14.75 0 14.0938 0 13.25V5.75ZM9 10.0625C9 9.75781 9.23438 9.5 9.5625 9.5C12.5625 9.5 15 11.9375 15 14.9375C15 15.2656 14.7422 15.5 14.4375 15.5C14.1094 15.5 13.875 15.2656 13.875 14.9375C13.875 12.5703 11.9297 10.625 9.5625 10.625C9.23438 10.625 9 10.3906 9 10.0625ZM9 12.3125C9 12.0078 9.23438 11.75 9.5625 11.75C11.3203 11.75 12.75 13.1797 12.75 14.9375C12.75 15.2656 12.4922 15.5 12.1875 15.5C11.8594 15.5 11.625 15.2656 11.625 14.9375C11.625 13.8125 10.6875 12.875 9.5625 12.875C9.23438 12.875 9 12.6406 9 12.3125ZM9 14.75C9 14.3516 9.32812 14 9.75 14C10.1484 14 10.5 14.3516 10.5 14.75C10.5 15.1719 10.1484 15.5 9.75 15.5C9.32812 15.5 9 15.1719 9 14.75Z" fill="black" fill-opacity="0.72"/>
</g>
<defs>
<clipPath id="clip0_2556_9905">
<rect width="15" height="18" fill="white"/>
</clipPath>
</defs>
</svg>
