<svg width="14" height="22" viewBox="0 0 14 22" fill="none" xmlns="http://www.w3.org/2000/svg">
<g id="label-paired / sm / scissors-sm / fill" clip-path="url(#clip0_2556_12446)">
<path id="icon" d="M7 9L10.8281 5.17188C11.6211 4.37891 12.8516 4.37891 13.6445 5.17188C13.8359 5.36328 13.8359 5.66406 13.6445 5.85547L5.90625 13.5938C6.04297 13.9492 6.125 14.3047 6.125 14.6875C6.125 16.3828 4.73047 17.75 3.0625 17.75C1.36719 17.75 0 16.3828 0 14.6875C0 13.0195 1.36719 11.625 3.0625 11.625C3.44531 11.625 3.80078 11.707 4.15625 11.8438L5.25 10.75L4.15625 9.68359C3.80078 9.82031 3.44531 9.875 3.0625 9.875C1.36719 9.875 0 8.50781 0 6.8125C0 5.14453 1.36719 3.75 3.0625 3.75C4.73047 3.75 6.125 5.14453 6.125 6.8125C6.125 7.22266 6.04297 7.57812 5.90625 7.93359L7 9ZM7.60156 13.1289L9.35156 11.3789L13.6445 15.6719C13.8359 15.8633 13.8359 16.1641 13.6445 16.3555C12.8516 17.1484 11.6211 17.1484 10.8281 16.3555L7.60156 13.1289ZM1.75 6.8125C1.75 7.30469 1.99609 7.71484 2.40625 7.96094C2.78906 8.20703 3.30859 8.20703 3.71875 7.96094C4.10156 7.71484 4.375 7.30469 4.375 6.8125C4.375 6.34766 4.10156 5.9375 3.71875 5.69141C3.30859 5.44531 2.78906 5.44531 2.40625 5.69141C1.99609 5.9375 1.75 6.34766 1.75 6.8125ZM3.0625 13.375C2.57031 13.375 2.16016 13.6484 1.91406 14.0312C1.66797 14.4414 1.66797 14.9609 1.91406 15.3438C2.16016 15.7539 2.57031 16 3.0625 16C3.52734 16 3.9375 15.7539 4.18359 15.3438C4.42969 14.9609 4.42969 14.4414 4.18359 14.0312C3.9375 13.6484 3.52734 13.375 3.0625 13.375Z" fill="black" fill-opacity="0.72"/>
</g>
<defs>
<clipPath id="clip0_2556_12446">
<rect width="14" height="22" fill="white"/>
</clipPath>
</defs>
</svg>
