<svg width="18" height="24" viewBox="0 0 18 24" fill="none" xmlns="http://www.w3.org/2000/svg">
<g id="label-paired / md / folder-open-md / regular" clip-path="url(#clip0_3431_863)">
<path id="icon" d="M14 9C14 8.46875 13.5312 8 13 8H9.3125C8.53125 8 7.75 7.6875 7.1875 7.125L6.375 6.3125L7.0625 5.59375L6.375 6.3125C6.1875 6.125 5.9375 6 5.65625 6H2C1.4375 6 1 6.46875 1 7V15.9688L2.59375 11.9688C2.8125 11.375 3.375 11 4 11H16.5C16.9688 11 17.4375 11.25 17.7188 11.6875C18 12.0938 18.0625 12.5938 17.875 13.0625L15.875 18.0625C15.6562 18.6562 15.0938 19 14.5 19H12H2C0.875 19 0 18.125 0 17V7C0 5.90625 0.875 5 2 5H5.65625C6.1875 5 6.6875 5.21875 7.0625 5.59375L7.90625 6.4375C8.28125 6.8125 8.78125 7 9.3125 7H13C14.0938 7 15 7.90625 15 9V10H14V9ZM12 18H14.5C14.6875 18 14.875 17.875 14.9375 17.6875L16.9375 12.6875C17 12.5312 17 12.375 16.9062 12.2188C16.8125 12.0938 16.6562 12 16.5 12H4C3.78125 12 3.59375 12.125 3.53125 12.3438L1.53125 17.3438C1.46875 17.4688 1.46875 17.6562 1.5625 17.7812C1.65625 17.9375 1.8125 18 2 18H12Z" fill="black" fill-opacity="0.72"/>
</g>
<defs>
<clipPath id="clip0_3431_863">
<rect width="18" height="24" fill="white"/>
</clipPath>
</defs>
</svg>
