<svg width="24" height="36" viewBox="0 0 24 36" fill="none" xmlns="http://www.w3.org/2000/svg">
<g id="label-paired / xl / rotate-device-xl / fill" clip-path="url(#clip0_4329_572)">
<path id="icon" d="M19.875 18.6562C20.7656 19.5469 20.7656 20.9531 19.875 21.8438L15.6562 26.1094C14.7656 26.9531 13.3594 26.9531 12.4688 26.1094L3.98438 17.625C3.09375 16.7344 3.09375 15.3281 3.98438 14.4375L8.20312 10.1719C9.09375 9.32812 10.5 9.32812 11.3906 10.1719L19.875 18.6562ZM8.85938 11.9062C9.28125 12.2812 9.28125 12.9375 8.85938 13.3594L7.17188 15.0469C6.75 15.4688 6.09375 15.4688 5.67188 15.0469L5.57812 14.9531L5.01562 15.4688C4.73438 15.7969 4.73438 16.2656 5.01562 16.5469L13.5 25.0312C13.8281 25.3125 14.2969 25.3125 14.5781 25.0312L18.8438 20.8125C19.125 20.4844 19.125 20.0156 18.8438 19.7344L10.3594 11.25C10.0312 10.9688 9.5625 10.9688 9.28125 11.25L8.76562 11.7656L8.85938 11.9062ZM19.3594 10.9688C18.9844 10.5938 18.6562 10.3125 18.2344 10.0312L17.8594 9.75C17.3906 9.46875 16.9219 9.23438 16.4062 9.04688L15.9375 8.90625C15.7969 8.85938 15.7031 8.8125 15.5625 8.8125L16.6875 9.89062L15.6094 10.9688L11.7188 7.03125H13.5H14.0625C14.625 7.07812 15.1875 7.17188 15.7031 7.26562L16.3594 7.45312L16.9219 7.64062C17.5312 7.875 18.0938 8.15625 18.6562 8.48438L19.125 8.8125C19.5469 9.09375 20.0156 9.46875 20.3906 9.89062C22.3125 11.8125 23.25 14.2969 23.25 16.7812H21.75C21.75 14.6719 20.9531 12.5625 19.3594 10.9688ZM4.64062 25.6406C5.01562 25.9688 5.39062 26.2969 5.76562 26.5781L6.14062 26.8125C6.60938 27.0938 7.07812 27.3281 7.59375 27.5156L8.10938 27.7031C8.20312 27.75 8.34375 27.75 8.4375 27.7969L7.35938 26.7188L8.4375 25.6406L12.2812 29.5781H10.5L9.9375 29.5312C9.375 29.5312 8.85938 29.4375 8.29688 29.2969L7.6875 29.1562L7.07812 28.9219C6.46875 28.7344 5.90625 28.4531 5.39062 28.125L4.92188 27.7969C4.45312 27.4688 4.03125 27.0938 3.60938 26.7188C1.6875 24.7969 0.75 22.3125 0.75 19.8281H2.25C2.25 21.9375 3.04688 24.0469 4.6875 25.6406H4.64062Z" fill="black" fill-opacity="0.72"/>
</g>
<defs>
<clipPath id="clip0_4329_572">
<rect width="24" height="36" fill="white"/>
</clipPath>
</defs>
</svg>
