<svg width="16" height="24" viewBox="0 0 16 24" fill="none" xmlns="http://www.w3.org/2000/svg">
<g id="label-paired / md / circle-chevron-down-md / fill" clip-path="url(#clip0_2556_15227)">
<path id="icon" d="M8 4C10.8438 4 13.4688 5.53125 14.9062 8C16.3438 10.5 16.3438 13.5312 14.9062 16C13.4688 18.5 10.8438 20 8 20C5.125 20 2.5 18.5 1.0625 16C-0.375 13.5312 -0.375 10.5 1.0625 8C2.5 5.53125 5.125 4 8 4ZM4.21875 11.5312L7.46875 14.7812C7.75 15.0938 8.21875 15.0938 8.53125 14.7812L11.75 11.5312C12.0625 11.25 12.0625 10.7812 11.75 10.5C11.4688 10.1875 11 10.1875 10.6875 10.5L7.96875 13.2188L5.25 10.5C4.96875 10.1875 4.5 10.1875 4.21875 10.5C3.90625 10.7812 3.90625 11.25 4.21875 11.5312Z" fill="black" fill-opacity="0.72"/>
</g>
<defs>
<clipPath id="clip0_2556_15227">
<rect width="16" height="24" fill="white"/>
</clipPath>
</defs>
</svg>
