<svg width="15" height="18" viewBox="0 0 15 18" fill="none" xmlns="http://www.w3.org/2000/svg">
<g id="label-paired / caption / laptop-caption / bold" clip-path="url(#clip0_2556_10094)">
<path id="icon" d="M12 5.375H3C2.78906 5.375 2.625 5.5625 2.625 5.75V11H1.5V5.75C1.5 4.92969 2.15625 4.25 3 4.25H12C12.8203 4.25 13.5 4.92969 13.5 5.75V11H12.375V5.75C12.375 5.5625 12.1875 5.375 12 5.375ZM2.25 13.625H12.75C13.2188 13.625 13.6406 13.3203 13.8047 12.875H1.17188C1.33594 13.3203 1.75781 13.625 2.25 13.625ZM0 12.5C0 12.1016 0.328125 11.75 0.75 11.75H14.25C14.6484 11.75 15 12.1016 15 12.5C15 13.7422 13.9922 14.75 12.75 14.75H2.25C1.00781 14.75 0 13.7422 0 12.5Z" fill="black" fill-opacity="0.72"/>
</g>
<defs>
<clipPath id="clip0_2556_10094">
<rect width="15" height="18" fill="white"/>
</clipPath>
</defs>
</svg>
