<svg width="12" height="18" viewBox="0 0 12 18" fill="none" xmlns="http://www.w3.org/2000/svg">
<g id="label-paired / caption / circle-ellipsis-caption / regular" clip-path="url(#clip0_2556_10466)">
<path id="icon" d="M6 14.75C7.875 14.75 9.58594 13.7656 10.5234 12.125C11.4844 10.5078 11.4844 8.51562 10.5234 6.875C9.58594 5.25781 7.875 4.25 6 4.25C4.10156 4.25 2.39062 5.25781 1.45312 6.875C0.492188 8.51562 0.492188 10.5078 1.45312 12.125C2.39062 13.7656 4.10156 14.75 6 14.75ZM6 3.5C8.13281 3.5 10.1016 4.64844 11.1797 6.5C12.2578 8.375 12.2578 10.6484 11.1797 12.5C10.1016 14.375 8.13281 15.5 6 15.5C3.84375 15.5 1.875 14.375 0.796875 12.5C-0.28125 10.6484 -0.28125 8.375 0.796875 6.5C1.875 4.64844 3.84375 3.5 6 3.5ZM6.5625 9.5C6.5625 9.82812 6.30469 10.0625 6 10.0625C5.67188 10.0625 5.4375 9.82812 5.4375 9.5C5.4375 9.19531 5.67188 8.9375 6 8.9375C6.30469 8.9375 6.5625 9.19531 6.5625 9.5ZM8.25 8.9375C8.55469 8.9375 8.8125 9.19531 8.8125 9.5C8.8125 9.82812 8.55469 10.0625 8.25 10.0625C7.92188 10.0625 7.6875 9.82812 7.6875 9.5C7.6875 9.19531 7.92188 8.9375 8.25 8.9375ZM4.3125 9.5C4.3125 9.82812 4.05469 10.0625 3.75 10.0625C3.42188 10.0625 3.1875 9.82812 3.1875 9.5C3.1875 9.19531 3.42188 8.9375 3.75 8.9375C4.05469 8.9375 4.3125 9.19531 4.3125 9.5Z" fill="black" fill-opacity="0.72"/>
</g>
<defs>
<clipPath id="clip0_2556_10466">
<rect width="12" height="18" fill="white"/>
</clipPath>
</defs>
</svg>
