<svg width="16" height="24" viewBox="0 0 16 24" fill="none" xmlns="http://www.w3.org/2000/svg">
<g id="label-paired / md / chevrons-left-md / bold" clip-path="url(#clip0_2556_14892)">
<path id="icon" d="M1.46875 11.4688L7.46875 5.5C7.75 5.1875 8.21875 5.1875 8.53125 5.5C8.8125 5.78125 8.8125 6.25 8.53125 6.53125L3.03125 12L8.5 17.5C8.8125 17.7812 8.8125 18.25 8.5 18.5312C8.21875 18.8438 7.75 18.8438 7.46875 18.5312L1.46875 12.5312C1.15625 12.25 1.15625 11.7812 1.46875 11.4688ZM13.4688 5.46875V5.5C13.75 5.1875 14.2188 5.1875 14.5312 5.5C14.8125 5.78125 14.8125 6.25 14.5312 6.53125L9.03125 12.0312L14.5 17.5C14.8125 17.7812 14.8125 18.25 14.5 18.5312C14.2188 18.8438 13.75 18.8438 13.4688 18.5312L7.46875 12.5312C7.15625 12.25 7.15625 11.7812 7.46875 11.4688L13.4688 5.46875Z" fill="black" fill-opacity="0.72"/>
</g>
<defs>
<clipPath id="clip0_2556_14892">
<rect width="16" height="24" fill="white"/>
</clipPath>
</defs>
</svg>
