<svg width="20" height="30" viewBox="0 0 20 30" fill="none" xmlns="http://www.w3.org/2000/svg">
<g id="label-paired / lg / circle-star-lg / fill" clip-path="url(#clip0_2556_17642)">
<path id="icon" d="M0 15.5C0 11.9453 1.875 8.66406 5 6.86719C8.08594 5.07031 11.875 5.07031 15 6.86719C18.0859 8.66406 20 11.9453 20 15.5C20 19.0938 18.0859 22.375 15 24.1719C11.875 25.9688 8.08594 25.9688 5 24.1719C1.875 22.375 0 19.0938 0 15.5ZM10 9.5625C9.72656 9.5625 9.53125 9.71875 9.41406 9.91406L8.00781 12.8047L4.84375 13.2734C4.60938 13.2734 4.41406 13.4688 4.33594 13.6641C4.25781 13.8984 4.33594 14.1719 4.49219 14.3281L6.79688 16.5547L6.25 19.7188C6.21094 19.9531 6.28906 20.1875 6.48438 20.3047C6.67969 20.4609 6.95312 20.4609 7.14844 20.3828L10 18.8984L12.8125 20.3828C13.0078 20.4609 13.2812 20.4609 13.4766 20.3047C13.6719 20.1875 13.75 19.9531 13.7109 19.7188L13.2031 16.5547L15.4688 14.3281C15.6641 14.1719 15.7031 13.8984 15.625 13.7031C15.5469 13.4688 15.3516 13.3125 15.1172 13.2734L11.9531 12.8047L10.5469 9.91406C10.4297 9.71875 10.2344 9.60156 10 9.60156V9.5625Z" fill="black" fill-opacity="0.72"/>
</g>
<defs>
<clipPath id="clip0_2556_17642">
<rect width="20" height="30" fill="white"/>
</clipPath>
</defs>
</svg>
