<svg width="16" height="24" viewBox="0 0 16 24" fill="none" xmlns="http://www.w3.org/2000/svg">
<g id="label-paired / md / clone-md / bold" clip-path="url(#clip0_2556_14738)">
<path id="icon" d="M2 18.5H9C9.25 18.5 9.5 18.2812 9.5 18V16H11V18C11 19.125 10.0938 20 9 20H2C0.875 20 0 19.125 0 18V11C0 9.90625 0.875 9 2 9H4V10.5H2C1.71875 10.5 1.5 10.75 1.5 11V18C1.5 18.2812 1.71875 18.5 2 18.5ZM7 13.5H14C14.25 13.5 14.5 13.2812 14.5 13V6C14.5 5.75 14.25 5.5 14 5.5H7C6.71875 5.5 6.5 5.75 6.5 6V13C6.5 13.2812 6.71875 13.5 7 13.5ZM5 13V6C5 4.90625 5.875 4 7 4H14C15.0938 4 16 4.90625 16 6V13C16 14.125 15.0938 15 14 15H7C5.875 15 5 14.125 5 13Z" fill="black" fill-opacity="0.72"/>
</g>
<defs>
<clipPath id="clip0_2556_14738">
<rect width="16" height="24" fill="white"/>
</clipPath>
</defs>
</svg>
