<svg width="12" height="24" viewBox="0 0 12 24" fill="none" xmlns="http://www.w3.org/2000/svg">
<g id="label-paired / md / file-invoice-dollar-md / bold" clip-path="url(#clip0_2556_14552)">
<path id="icon" d="M10.5 18V9H8C7.4375 9 7 8.5625 7 8V5.5H2C1.71875 5.5 1.5 5.75 1.5 6V18C1.5 18.2812 1.71875 18.5 2 18.5H10C10.25 18.5 10.5 18.2812 10.5 18ZM0 6C0 4.90625 0.875 4 2 4H7.15625C7.6875 4 8.1875 4.21875 8.5625 4.59375L11.4062 7.4375C11.7812 7.8125 12 8.3125 12 8.84375V18C12 19.125 11.0938 20 10 20H2C0.875 20 0 19.125 0 18V6ZM6 10.75C6.34375 10.75 6.625 11.0312 6.625 11.375V11.6875C6.84375 11.7188 7.0625 11.7812 7.25 11.8125C7.59375 11.9062 7.8125 12.25 7.71875 12.5625C7.65625 12.9062 7.3125 13.125 6.96875 13.0312C6.625 12.9688 6.28125 12.9062 5.96875 12.9062C5.71875 12.875 5.46875 12.9375 5.28125 13.0312C5.125 13.125 5.125 13.1875 5.125 13.2188C5.125 13.25 5.15625 13.2812 5.25 13.3438C5.4375 13.4375 5.75 13.5312 6.15625 13.625C6.5 13.7188 6.96875 13.8438 7.3125 14.0625C7.6875 14.2812 8.09375 14.6562 8.09375 15.2812C8.125 15.9375 7.75 16.375 7.3125 16.5938C7.09375 16.7188 6.84375 16.8125 6.59375 16.8438V17.1562C6.59375 17.5 6.3125 17.7812 5.96875 17.7812C5.625 17.7812 5.34375 17.5 5.34375 17.1562V16.8125C5.03125 16.75 4.75 16.6562 4.5 16.5938C4.4375 16.5625 4.375 16.5625 4.3125 16.5312C3.96875 16.4375 3.78125 16.0938 3.875 15.75C3.96875 15.4062 4.34375 15.2188 4.65625 15.3438C4.75 15.3438 4.8125 15.375 4.875 15.4062C5.3125 15.5312 5.65625 15.625 6 15.625C6.28125 15.6562 6.53125 15.5938 6.71875 15.5C6.84375 15.4375 6.875 15.375 6.875 15.2812C6.875 15.2812 6.875 15.2188 6.71875 15.125C6.5 15.0312 6.21875 14.9375 5.8125 14.8438L5.78125 14.8125C5.4375 14.7188 5 14.5938 4.65625 14.4375C4.28125 14.2188 3.875 13.8438 3.875 13.2188C3.84375 12.5625 4.28125 12.1562 4.6875 11.9375C4.90625 11.8125 5.125 11.75 5.375 11.6875V11.375C5.375 11.0312 5.65625 10.75 6 10.75ZM3 7H5.5C5.75 7 6 7.25 6 7.5C6 7.78125 5.75 8 5.5 8H3C2.71875 8 2.5 7.78125 2.5 7.5C2.5 7.25 2.71875 7 3 7ZM3 9H5.5C5.75 9 6 9.25 6 9.5C6 9.78125 5.75 10 5.5 10H3C2.71875 10 2.5 9.78125 2.5 9.5C2.5 9.25 2.71875 9 3 9Z" fill="black" fill-opacity="0.72"/>
</g>
<defs>
<clipPath id="clip0_2556_14552">
<rect width="12" height="24" fill="white"/>
</clipPath>
</defs>
</svg>
