<svg width="30" height="36" viewBox="0 0 30 36" fill="none" xmlns="http://www.w3.org/2000/svg">
<g id="label-paired / xl / eye-slash-xl / bold" clip-path="url(#clip0_2556_19774)">
<path id="icon" d="M1.78125 6.28125L7.03125 10.3594C9.14062 8.76562 11.7656 7.5 15 7.5C18.75 7.5 21.7969 9.23438 24 11.2969C26.2031 13.3125 27.6562 15.75 28.3594 17.4375C28.5 17.8125 28.5 18.2344 28.3594 18.6094C27.75 20.1094 26.4844 22.2656 24.6094 24.1406L29.5312 28.0312C30.0469 28.4062 30.1406 29.1094 29.7188 29.5781C29.3438 30.0938 28.6406 30.1875 28.1719 29.7656L0.421875 8.01562C-0.09375 7.64062 -0.1875 6.9375 0.234375 6.46875C0.609375 5.95312 1.3125 5.85938 1.78125 6.28125ZM8.85938 11.8125L11.0156 13.5C12.0938 12.5625 13.4531 12 15 12C18.2812 12 21 14.7188 21 18C21 19.0312 20.7656 19.9688 20.2969 20.7656L22.8281 22.7344C24.4688 21.1406 25.5938 19.3125 26.1562 18C25.5469 16.5938 24.2812 14.625 22.4531 12.9375C20.5312 11.1562 18.0469 9.75 15 9.75C12.6094 9.75 10.5938 10.5938 8.85938 11.8125ZM18.4688 19.3594C18.6562 18.9375 18.75 18.4688 18.75 18C18.75 15.9375 17.0625 14.25 15 14.25C14.9531 14.25 14.9062 14.25 14.9062 14.25C14.9531 14.5312 15 14.7656 15 15C15 15.5156 14.8594 15.9375 14.6719 16.3594L18.4688 19.3594ZM20.9062 27C19.1719 27.9375 17.2031 28.5 15 28.5C11.2031 28.5 8.15625 26.8125 5.95312 24.75C3.75 22.6875 2.29688 20.25 1.59375 18.6094C1.45312 18.2344 1.45312 17.8125 1.59375 17.4375C2.0625 16.3594 2.8125 15 3.89062 13.5938L5.625 15C4.78125 16.0781 4.17188 17.1562 3.79688 18C4.45312 19.4062 5.67188 21.4219 7.5 23.1094C9.42188 24.8906 11.9062 26.25 15 26.25C16.4062 26.25 17.7188 25.9688 18.9375 25.4531L20.9062 27ZM16.7812 23.7656C16.2188 23.9062 15.6094 24 14.9531 24C11.6719 24 8.95312 21.3281 8.95312 18C8.95312 17.9062 9 17.7656 9 17.625L11.625 19.6875C12.0938 20.6719 13.0312 21.4219 14.1562 21.6562L16.7812 23.7656Z" fill="black" fill-opacity="0.72"/>
</g>
<defs>
<clipPath id="clip0_2556_19774">
<rect width="30" height="36" fill="white"/>
</clipPath>
</defs>
</svg>
