<svg width="11" height="22" viewBox="0 0 11 22" fill="none" xmlns="http://www.w3.org/2000/svg">
<g id="label-paired / sm / mobile-screen-button-sm / fill" clip-path="url(#clip0_2556_12548)">
<path id="icon" d="M0.6875 5.5C0.6875 4.54297 1.45312 3.75 2.4375 3.75H8.5625C9.51953 3.75 10.3125 4.54297 10.3125 5.5V16C10.3125 16.9844 9.51953 17.75 8.5625 17.75H2.4375C1.45312 17.75 0.6875 16.9844 0.6875 16V5.5ZM4.1875 16C4.1875 16.2461 4.37891 16.4375 4.625 16.4375H6.375C6.59375 16.4375 6.8125 16.2461 6.8125 16C6.8125 15.7812 6.59375 15.5625 6.375 15.5625H4.625C4.37891 15.5625 4.1875 15.7812 4.1875 16ZM8.5625 5.5H2.4375V14.25H8.5625V5.5Z" fill="black" fill-opacity="0.72"/>
</g>
<defs>
<clipPath id="clip0_2556_12548">
<rect width="11" height="22" fill="white"/>
</clipPath>
</defs>
</svg>
