<svg width="20" height="30" viewBox="0 0 20 30" fill="none" xmlns="http://www.w3.org/2000/svg">
<g id="label-paired / lg / gear-lg / regular" clip-path="url(#clip0_2556_17597)">
<path id="icon" d="M8.71094 6.98438L8.16406 8.85938C8.04688 9.32812 7.69531 9.67969 7.30469 9.875C6.99219 10.0312 6.71875 10.1875 6.44531 10.3438C6.09375 10.6172 5.58594 10.7344 5.11719 10.6172L3.24219 10.1484C3.16406 10.1484 3.125 10.1484 3.08594 10.1484C2.85156 10.4219 2.65625 10.6953 2.5 11.0078L2.30469 11.2812C2.14844 11.5938 1.99219 11.9062 1.875 12.2188C1.875 12.2578 1.91406 12.3359 1.95312 12.375L3.32031 13.7422C3.63281 14.0938 3.78906 14.6016 3.75 15.0312C3.75 15.1875 3.75 15.3438 3.75 15.5C3.75 15.6953 3.75 15.8516 3.75 16.0078C3.78906 16.4375 3.63281 16.9062 3.32031 17.2578L1.95312 18.6641C1.91406 18.7031 1.875 18.7812 1.875 18.8203C1.99219 19.1328 2.14844 19.4453 2.30469 19.7578L2.46094 20.0312C2.65625 20.3047 2.85156 20.6172 3.04688 20.8906C3.125 20.8906 3.16406 20.8906 3.24219 20.8906L5.11719 20.4219C5.58594 20.3047 6.09375 20.4219 6.44531 20.6562C6.71875 20.8516 6.99219 21.0078 7.30469 21.1641C7.69531 21.3594 8.04688 21.7109 8.16406 22.1797L8.71094 24.0547C8.71094 24.0938 8.75 24.1328 8.78906 24.1719C9.17969 24.25 9.57031 24.25 10 24.25C10.3906 24.25 10.7812 24.25 11.1719 24.1719C11.2109 24.1328 11.25 24.0938 11.25 24.0547L11.7969 22.1797C11.9141 21.7109 12.2656 21.3594 12.6562 21.1641C12.9688 21.0078 13.2422 20.8516 13.5156 20.6562C13.9062 20.4219 14.375 20.3047 14.8438 20.4219L16.7188 20.8906C16.7969 20.8906 16.8359 20.8906 16.9141 20.8906C17.1094 20.6172 17.3047 20.3047 17.5 20.0312L17.6562 19.7578C17.8125 19.4453 17.9688 19.1328 18.0859 18.8203C18.0859 18.7812 18.0469 18.7031 18.0078 18.6641L16.6406 17.2578C16.3281 16.9062 16.1719 16.4375 16.2109 16.0078C16.2109 15.8516 16.25 15.6953 16.25 15.5C16.25 15.3438 16.2109 15.1875 16.2109 15.0312C16.1719 14.6016 16.3281 14.0938 16.6406 13.7422L18.0078 12.375C18.0469 12.3359 18.0859 12.2578 18.0859 12.2188C17.9688 11.9062 17.8125 11.5938 17.6562 11.2812L17.5 11.0078C17.3047 10.6953 17.1094 10.4219 16.9141 10.1484C16.8359 10.1484 16.7969 10.1484 16.7188 10.1484L14.8438 10.6172C14.375 10.7344 13.9062 10.6172 13.5156 10.3828C13.2422 10.1875 12.9688 10.0312 12.6562 9.875C12.2656 9.67969 11.9141 9.32812 11.7969 8.85938L11.25 6.98438C11.25 6.94531 11.2109 6.86719 11.1719 6.82812C10.7812 6.78906 10.3906 6.75 10 6.75C9.57031 6.75 9.17969 6.78906 8.78906 6.82812C8.75 6.86719 8.71094 6.94531 8.71094 6.98438ZM10 5.5C10.5078 5.5 10.9766 5.53906 11.4844 5.61719C11.5625 5.65625 11.6016 5.65625 11.6797 5.69531C12.0312 5.89062 12.3438 6.24219 12.4609 6.63281L13.0078 8.50781C13.0078 8.58594 13.0859 8.70312 13.2031 8.74219C13.5547 8.89844 13.9062 9.09375 14.2188 9.32812C14.3359 9.40625 14.4531 9.44531 14.5312 9.40625L16.4453 8.9375C16.8359 8.82031 17.3047 8.89844 17.6562 9.13281C17.6953 9.17188 17.7344 9.21094 17.8125 9.28906C18.0859 9.60156 18.3203 9.99219 18.5547 10.3828L18.75 10.6562V10.6953C18.9453 11.0859 19.1406 11.4766 19.2969 11.8672C19.3359 11.9453 19.3359 11.9844 19.3359 12.0625C19.375 12.4922 19.2188 12.9219 18.9062 13.2344L17.5391 14.6406C17.5 14.6797 17.4609 14.7969 17.4609 14.9141C17.4609 15.1094 17.5 15.3047 17.5 15.5C17.5 15.6953 17.4609 15.8906 17.4609 16.0859C17.4609 16.2422 17.5 16.3594 17.5391 16.3984L18.9062 17.8047C19.2188 18.1172 19.375 18.5469 19.3359 18.9766C19.3359 19.0156 19.3359 19.0938 19.2969 19.1719C19.1406 19.5625 18.9453 19.9531 18.75 20.3438L18.5547 20.6562C18.3203 21.0469 18.0859 21.3984 17.7734 21.75C17.7344 21.8281 17.6953 21.8672 17.6562 21.9062C17.3047 22.1406 16.8359 22.2188 16.4062 22.1016L14.5312 21.6328C14.4531 21.5938 14.3359 21.6328 14.2188 21.7109C13.9062 21.9062 13.5547 22.1016 13.2031 22.2969C13.0859 22.3359 13.0078 22.4531 13.0078 22.5312L12.4609 24.3672C12.3438 24.7969 12.0312 25.1484 11.6797 25.3438C11.6016 25.3828 11.5625 25.3828 11.4844 25.4219C10.9766 25.4609 10.5078 25.5 10 25.5C9.49219 25.5 8.98438 25.4609 8.47656 25.4219C8.39844 25.3828 8.35938 25.3828 8.28125 25.3438C7.92969 25.1484 7.61719 24.7969 7.5 24.3672L6.95312 22.5312C6.95312 22.4531 6.875 22.3359 6.75781 22.2969C6.40625 22.1406 6.05469 21.9453 5.74219 21.7109C5.625 21.6328 5.50781 21.6328 5.42969 21.6328L3.55469 22.1016C3.125 22.2188 2.69531 22.1406 2.34375 21.9062C2.26562 21.8672 2.22656 21.8281 2.1875 21.7891C1.875 21.4375 1.64062 21.0469 1.40625 20.6562L1.25 20.3828L1.21094 20.3438C1.01562 19.9531 0.820312 19.5625 0.664062 19.1719C0.664062 19.0938 0.625 19.0547 0.625 18.9766C0.625 18.5469 0.742188 18.1172 1.05469 17.8047L2.42188 16.3984C2.46094 16.3594 2.5 16.2422 2.5 16.0859C2.5 15.9297 2.5 15.6953 2.5 15.5C2.5 15.3047 2.5 15.1094 2.5 14.9141C2.5 14.7969 2.46094 14.6797 2.42188 14.6406L1.05469 13.2344C0.742188 12.9219 0.625 12.4922 0.625 12.0625C0.625 11.9844 0.664062 11.9453 0.664062 11.8672C0.820312 11.4766 1.01562 11.0859 1.21094 10.6953L1.25 10.6562L1.40625 10.3828C1.64062 9.99219 1.91406 9.60156 2.1875 9.28906C2.22656 9.21094 2.26562 9.17188 2.34375 9.13281C2.69531 8.89844 3.125 8.82031 3.55469 8.9375L5.42969 9.40625C5.50781 9.44531 5.625 9.40625 5.74219 9.32812C6.05469 9.13281 6.40625 8.89844 6.75781 8.74219C6.875 8.70312 6.95312 8.58594 6.95312 8.50781L7.5 6.63281C7.61719 6.24219 7.92969 5.89062 8.28125 5.69531C8.35938 5.65625 8.39844 5.65625 8.47656 5.61719C8.98438 5.53906 9.49219 5.5 10 5.5ZM7.8125 15.5C7.8125 16.3203 8.20312 17.0234 8.90625 17.4141C9.57031 17.8047 10.3906 17.8047 11.0938 17.4141C11.7578 17.0234 12.1875 16.3203 12.1875 15.5C12.1875 14.7188 11.7578 14.0156 11.0938 13.625C10.3906 13.2344 9.57031 13.2344 8.90625 13.625C8.20312 14.0156 7.8125 14.7188 7.8125 15.5ZM13.4375 15.5C13.4375 16.75 12.7734 17.8828 11.7188 18.5078C10.625 19.0938 9.33594 19.0938 8.28125 18.5078C7.1875 17.8828 6.5625 16.75 6.5625 15.5C6.5625 14.2891 7.1875 13.1562 8.28125 12.5312C9.33594 11.9453 10.625 11.9453 11.7188 12.5312C12.7734 13.1562 13.4375 14.2891 13.4375 15.5Z" fill="black" fill-opacity="0.72"/>
</g>
<defs>
<clipPath id="clip0_2556_17597">
<rect width="20" height="30" fill="white"/>
</clipPath>
</defs>
</svg>
