<svg width="15" height="18" viewBox="0 0 15 18" fill="none" xmlns="http://www.w3.org/2000/svg">
<g id="label-paired / caption / volume-high-caption / regular" clip-path="url(#clip0_3758_652)">
<path id="icon" d="M3.53906 7.90625C3.46875 7.97656 3.375 8 3.30469 8H1.3125C0.984375 8 0.75 8.25781 0.75 8.5625V10.4375C0.75 10.7656 0.984375 11 1.3125 11H3.30469C3.375 11 3.46875 11.0469 3.53906 11.0938L6.75 13.9531V5.07031L3.53906 7.90625ZM6.79688 4.25C7.17188 4.25 7.5 4.57812 7.5 4.95312V14.0703C7.5 14.4453 7.17188 14.75 6.79688 14.75C6.60938 14.75 6.44531 14.7031 6.32812 14.5859L6.58594 14.3047L6.32812 14.5859L3.14062 11.75H1.3125C0.585938 11.75 0 11.1641 0 10.4375V8.5625C0 7.85938 0.585938 7.25 1.3125 7.25H3.14062L6.32812 4.4375C6.44531 4.32031 6.60938 4.25 6.79688 4.25ZM9.58594 7.71875C10.125 8.11719 10.5 8.77344 10.5 9.5C10.5 10.25 10.125 10.9062 9.58594 11.3047C9.42188 11.4453 9.1875 11.3984 9.07031 11.2344C8.92969 11.0703 8.97656 10.8359 9.14062 10.7188C9.51562 10.4375 9.75 9.99219 9.75 9.5C9.75 9.03125 9.51562 8.58594 9.14062 8.30469C8.97656 8.1875 8.92969 7.95312 9.07031 7.78906C9.1875 7.625 9.42188 7.57812 9.58594 7.71875ZM10.5703 6.07812C10.7109 5.9375 10.9453 5.91406 11.1094 6.03125C12.0938 6.875 12.75 8.11719 12.75 9.5C12.75 10.9062 12.0938 12.1484 11.1094 12.9688C10.9453 13.1094 10.7109 13.0859 10.5703 12.9219C10.4531 12.7812 10.4766 12.5234 10.6172 12.4062C11.4609 11.7266 12 10.6719 12 9.5C12 8.35156 11.4609 7.29688 10.6172 6.61719C10.4531 6.47656 10.4531 6.24219 10.5703 6.07812ZM12.6094 4.36719C14.0625 5.60938 15 7.4375 15 9.5C15 11.5625 14.0625 13.4141 12.6094 14.6562C12.4453 14.7969 12.2109 14.7734 12.0703 14.6094C11.9297 14.4453 11.9531 14.2109 12.1172 14.0938C13.4062 12.9922 14.2266 11.3516 14.2266 9.5C14.2266 7.67188 13.4062 6.03125 12.1172 4.92969C11.9531 4.78906 11.9297 4.55469 12.0703 4.41406C12.2109 4.25 12.4453 4.22656 12.6094 4.36719Z" fill="black" fill-opacity="0.72"/>
</g>
<defs>
<clipPath id="clip0_3758_652">
<rect width="15" height="18" fill="white"/>
</clipPath>
</defs>
</svg>
