<svg width="12" height="18" viewBox="0 0 12 18" fill="none" xmlns="http://www.w3.org/2000/svg">
<g id="label-paired / caption / circle-dollar-caption / fill" clip-path="url(#clip0_2556_10071)">
<path id="icon" d="M6 15.5C3.84375 15.5 1.875 14.375 0.796875 12.5C-0.28125 10.6484 -0.28125 8.375 0.796875 6.5C1.875 4.64844 3.84375 3.5 6 3.5C8.13281 3.5 10.1016 4.64844 11.1797 6.5C12.2578 8.375 12.2578 10.6484 11.1797 12.5C10.1016 14.375 8.13281 15.5 6 15.5ZM6.46875 6.64062C6.46875 6.35938 6.25781 6.125 5.97656 6.125C5.69531 6.125 5.46094 6.35938 5.46094 6.64062V7.01562C5.32031 7.0625 5.17969 7.08594 5.0625 7.15625C4.64062 7.34375 4.24219 7.67188 4.14844 8.1875C4.05469 8.72656 4.26562 9.21875 4.73438 9.5C5.0625 9.71094 5.50781 9.85156 5.85938 9.94531C5.90625 9.96875 5.97656 9.96875 6.02344 9.99219C6.30469 10.0625 6.58594 10.1562 6.82031 10.2969C7.10156 10.4844 6.98438 10.8359 6.70312 10.9531C6.49219 11.0234 6.16406 11.0703 5.76562 11C5.48438 10.9531 5.22656 10.8594 4.96875 10.7891C4.89844 10.7656 4.85156 10.7422 4.78125 10.7188C4.52344 10.625 4.24219 10.7656 4.14844 11.0469C4.05469 11.3047 4.19531 11.5859 4.45312 11.6797C4.80469 11.7969 5.13281 11.8906 5.46094 11.9844V12.3828C5.46094 12.6641 5.69531 12.8984 5.97656 12.8984C6.25781 12.8984 6.46875 12.6641 6.46875 12.3828V12.0312C6.67969 12.0078 6.89062 11.9609 7.07812 11.8906C7.5 11.7031 7.875 11.3516 7.96875 10.8359C8.0625 10.2969 7.85156 9.78125 7.40625 9.47656C7.05469 9.24219 6.58594 9.10156 6.21094 8.98438C6.16406 8.98438 6.11719 8.96094 6.04688 8.96094C5.78906 8.86719 5.50781 8.79688 5.27344 8.65625C4.99219 8.46875 5.20312 8.1875 5.46094 8.09375C5.74219 7.95312 6.09375 7.92969 6.42188 8C6.58594 8.02344 6.75 8.07031 6.91406 8.11719C6.9375 8.11719 6.98438 8.14062 7.00781 8.14062C7.28906 8.21094 7.57031 8.07031 7.64062 7.78906C7.71094 7.53125 7.54688 7.25 7.28906 7.15625C7.24219 7.15625 7.19531 7.13281 7.14844 7.13281C6.9375 7.0625 6.70312 6.99219 6.46875 6.96875V6.64062Z" fill="black" fill-opacity="0.72"/>
</g>
<defs>
<clipPath id="clip0_2556_10071">
<rect width="12" height="18" fill="white"/>
</clipPath>
</defs>
</svg>
