<svg width="20" height="30" viewBox="0 0 20 30" fill="none" xmlns="http://www.w3.org/2000/svg">
<g id="label-paired / lg / circle-five-lg / bold" clip-path="url(#clip0_2556_17297)">
<path id="icon" d="M10 7.375C7.07031 7.375 4.41406 8.9375 2.92969 11.4375C1.48438 13.9766 1.48438 17.0625 2.92969 19.5625C4.41406 22.1016 7.07031 23.625 10 23.625C12.8906 23.625 15.5469 22.1016 17.0312 19.5625C18.4766 17.0625 18.4766 13.9766 17.0312 11.4375C15.5469 8.9375 12.8906 7.375 10 7.375ZM10 25.5C6.40625 25.5 3.125 23.625 1.32812 20.5C-0.46875 17.4141 -0.46875 13.625 1.32812 10.5C3.125 7.41406 6.40625 5.5 10 5.5C13.5547 5.5 16.8359 7.41406 18.6328 10.5C20.4297 13.625 20.4297 17.4141 18.6328 20.5C16.8359 23.625 13.5547 25.5 10 25.5ZM8.125 10.5H12.1875C12.6953 10.5 13.125 10.9297 13.125 11.4375C13.125 11.9844 12.6953 12.375 12.1875 12.375H8.90625L8.59375 14.0547L10.9766 14.3281C12.5391 14.5234 13.75 15.8516 13.75 17.4141C13.75 19.1328 12.3438 20.5391 10.625 20.5391H9.21875C8.16406 20.5391 7.14844 19.9922 6.5625 19.0938L6.40625 18.8594C6.09375 18.4297 6.21094 17.8438 6.64062 17.5703C7.07031 17.2578 7.65625 17.375 7.92969 17.8047L8.125 18.0391C8.35938 18.4297 8.78906 18.625 9.21875 18.625H10.625C11.3281 18.625 11.875 18.0781 11.875 17.4141C11.875 16.7891 11.4062 16.2812 10.7812 16.2031L7.38281 15.8125C7.10938 15.8125 6.875 15.6562 6.71875 15.4609C6.5625 15.2266 6.52344 14.9922 6.5625 14.7188L7.1875 11.2812C7.26562 10.8516 7.65625 10.5 8.125 10.5Z" fill="black" fill-opacity="0.72"/>
</g>
<defs>
<clipPath id="clip0_2556_17297">
<rect width="20" height="30" fill="white"/>
</clipPath>
</defs>
</svg>
