<svg width="16" height="24" viewBox="0 0 16 24" fill="none" xmlns="http://www.w3.org/2000/svg">
<g id="label-paired / md / circle-bookmark-md / regular" clip-path="url(#clip0_2556_15293)">
<path id="icon" d="M8 5C5.46875 5 3.1875 6.34375 1.9375 8.5C0.65625 10.6875 0.65625 13.3438 1.9375 15.5C3.1875 17.6875 5.46875 19 8 19C10.5 19 12.7812 17.6875 14.0312 15.5C15.3125 13.3438 15.3125 10.6875 14.0312 8.5C12.7812 6.34375 10.5 5 8 5ZM8 20C5.125 20 2.5 18.5 1.0625 16C-0.375 13.5312 -0.375 10.5 1.0625 8C2.5 5.53125 5.125 4 8 4C10.8438 4 13.4688 5.53125 14.9062 8C16.3438 10.5 16.3438 13.5312 14.9062 16C13.4688 18.5 10.8438 20 8 20ZM6 9.5V14.4688L7.6875 13.125C7.84375 12.9688 8.125 12.9688 8.3125 13.125L10 14.4688V9.5C10 9.25 9.75 9 9.5 9H6.5C6.21875 9 6 9.25 6 9.5ZM6.5 8H9.5C10.3125 8 11 8.6875 11 9.5V15.5C11 15.7188 10.875 15.875 10.6875 15.9688C10.5312 16.0625 10.3125 16.0312 10.1875 15.9062L8 14.1562L5.8125 15.9062C5.65625 16.0312 5.4375 16.0312 5.28125 15.9688C5.09375 15.875 5 15.7188 5 15.5V9.5C5 8.6875 5.65625 8 6.5 8Z" fill="black" fill-opacity="0.72"/>
</g>
<defs>
<clipPath id="clip0_2556_15293">
<rect width="16" height="24" fill="white"/>
</clipPath>
</defs>
</svg>
