<svg width="18" height="30" viewBox="0 0 18 30" fill="none" xmlns="http://www.w3.org/2000/svg">
<g id="label-paired / lg / expand-lg / bold" clip-path="url(#clip0_2556_17403)">
<path id="icon" d="M5.5625 6.75C6.07031 6.75 6.5 7.17969 6.5 7.6875C6.5 8.23438 6.07031 8.625 5.5625 8.625H2.125V12.0625C2.125 12.6094 1.69531 13 1.1875 13C0.640625 13 0.25 12.6094 0.25 12.0625V7.6875C0.25 7.17969 0.640625 6.75 1.1875 6.75H5.5625ZM0.25 18.9375C0.25 18.4297 0.640625 18 1.1875 18C1.69531 18 2.125 18.4297 2.125 18.9375V22.375H5.5625C6.07031 22.375 6.5 22.8047 6.5 23.3125C6.5 23.8594 6.07031 24.25 5.5625 24.25H1.1875C0.640625 24.25 0.25 23.8594 0.25 23.3125V18.9375ZM16.8125 6.75C17.3203 6.75 17.75 7.17969 17.75 7.6875V12.0625C17.75 12.6094 17.3203 13 16.8125 13C16.2656 13 15.875 12.6094 15.875 12.0625V8.625H12.4375C11.8906 8.625 11.5 8.23438 11.5 7.6875C11.5 7.17969 11.8906 6.75 12.4375 6.75H16.8125ZM15.875 18.9375C15.875 18.4297 16.2656 18 16.8125 18C17.3203 18 17.75 18.4297 17.75 18.9375V23.3125C17.75 23.8594 17.3203 24.25 16.8125 24.25H12.4375C11.8906 24.25 11.5 23.8594 11.5 23.3125C11.5 22.8047 11.8906 22.375 12.4375 22.375H15.875V18.9375Z" fill="black" fill-opacity="0.72"/>
</g>
<defs>
<clipPath id="clip0_2556_17403">
<rect width="18" height="30" fill="white"/>
</clipPath>
</defs>
</svg>
