<svg width="12" height="18" viewBox="0 0 12 18" fill="none" xmlns="http://www.w3.org/2000/svg">
<g id="label-paired / caption / circle-arrow-up-caption / bold" clip-path="url(#clip0_2556_10298)">
<path id="icon" d="M6 4.625C4.24219 4.625 2.64844 5.5625 1.75781 7.0625C0.890625 8.58594 0.890625 10.4375 1.75781 11.9375C2.64844 13.4609 4.24219 14.375 6 14.375C7.73438 14.375 9.32812 13.4609 10.2188 11.9375C11.0859 10.4375 11.0859 8.58594 10.2188 7.0625C9.32812 5.5625 7.73438 4.625 6 4.625ZM6 15.5C3.84375 15.5 1.875 14.375 0.796875 12.5C-0.28125 10.6484 -0.28125 8.375 0.796875 6.5C1.875 4.64844 3.84375 3.5 6 3.5C8.13281 3.5 10.1016 4.64844 11.1797 6.5C12.2578 8.375 12.2578 10.6484 11.1797 12.5C10.1016 14.375 8.13281 15.5 6 15.5ZM8.46094 8.72656H8.4375C8.67188 8.96094 8.67188 9.3125 8.4375 9.52344C8.22656 9.75781 7.875 9.75781 7.66406 9.52344L6.5625 8.42188V11.9375C6.5625 12.2656 6.30469 12.5 6 12.5C5.67188 12.5 5.4375 12.2656 5.4375 11.9375V8.42188L4.33594 9.52344C4.10156 9.75781 3.75 9.75781 3.53906 9.52344C3.30469 9.3125 3.30469 8.96094 3.53906 8.72656L5.60156 6.66406C5.8125 6.45312 6.16406 6.45312 6.39844 6.66406L8.46094 8.72656Z" fill="black" fill-opacity="0.72"/>
</g>
<defs>
<clipPath id="clip0_2556_10298">
<rect width="12" height="18" fill="white"/>
</clipPath>
</defs>
</svg>
