<svg width="20" height="30" viewBox="0 0 20 30" fill="none" xmlns="http://www.w3.org/2000/svg">
<g id="label-paired / lg / arrow-rotate-right-lg / bold" clip-path="url(#clip0_3431_984)">
<path id="icon" d="M18.4375 14.25H12.8125C12.2656 14.25 11.875 13.8594 11.875 13.3125C11.875 12.8047 12.2656 12.375 12.8125 12.375H16.3281L15.2734 11.125C13.9844 9.60156 12.1094 8.625 10 8.625C6.17188 8.625 3.125 11.7109 3.125 15.5C3.125 19.3281 6.17188 22.375 10 22.375C11.5234 22.375 12.9688 21.8672 14.1016 21.0078C14.5312 20.6953 15.1172 20.7734 15.4297 21.2031C15.7422 21.6328 15.6641 22.2188 15.2344 22.5312C13.7891 23.625 11.9531 24.25 10 24.25C5.15625 24.25 1.25 20.3438 1.25 15.5C1.25 10.6953 5.15625 6.75 10 6.75C12.6953 6.75 15.1172 8 16.7188 9.91406L17.5 10.8516V7.6875C17.5 7.17969 17.8906 6.75 18.4375 6.75C18.9453 6.75 19.375 7.17969 19.375 7.6875V13.3125C19.375 13.8594 18.9453 14.25 18.4375 14.25Z" fill="black" fill-opacity="0.72"/>
</g>
<defs>
<clipPath id="clip0_3431_984">
<rect width="20" height="30" fill="white"/>
</clipPath>
</defs>
</svg>
