<svg width="18" height="22" viewBox="0 0 18 22" fill="none" xmlns="http://www.w3.org/2000/svg">
<g id="label-paired / sm / laptop-sm / regular" clip-path="url(#clip0_2556_12558)">
<path id="icon" d="M14.25 5.5H3.75C3.25781 5.5 2.875 5.91016 2.875 6.375V13.375H2V6.375C2 5.41797 2.76562 4.625 3.75 4.625H14.25C15.207 4.625 16 5.41797 16 6.375V13.375H15.125V6.375C15.125 5.91016 14.7148 5.5 14.25 5.5ZM2.32812 16H15.6445C16.1914 16 16.6562 15.6445 16.8203 15.125H1.15234C1.31641 15.6445 1.78125 16 2.32812 16ZM0.25 14.7969C0.25 14.4961 0.46875 14.25 0.769531 14.25H17.2031C17.5039 14.25 17.75 14.4961 17.75 14.7969C17.75 15.9453 16.793 16.875 15.6445 16.875H2.32812C1.17969 16.875 0.25 15.9453 0.25 14.7969Z" fill="black" fill-opacity="0.72"/>
</g>
<defs>
<clipPath id="clip0_2556_12558">
<rect width="18" height="22" fill="white"/>
</clipPath>
</defs>
</svg>
