<svg width="15" height="36" viewBox="0 0 15 36" fill="none" xmlns="http://www.w3.org/2000/svg">
<g id="label-paired / xl / sort-xl / bold" clip-path="url(#clip0_2556_19524)">
<path id="icon" d="M3.28125 14.25H11.6719L7.5 10.0781L3.28125 14.25ZM8.53125 7.96875L14.5312 13.9688C14.9531 14.3906 15.0938 15.0469 14.8594 15.6094C14.625 16.1719 14.0625 16.5469 13.4531 16.5469H1.5C0.890625 16.5469 0.328125 16.1719 0.09375 15.6094C-0.140625 15.0469 0 14.3906 0.421875 13.9688L6.42188 7.96875C6.98438 7.35938 7.96875 7.35938 8.53125 7.96875ZM3.28125 21.75L7.5 25.9688L11.6719 21.75H3.28125ZM8.53125 28.0781C7.96875 28.6875 6.98438 28.6875 6.42188 28.0781L0.421875 22.0781C0 21.6562 -0.140625 21 0.09375 20.4375C0.328125 19.875 0.890625 19.5 1.5 19.5H13.5C14.0625 19.5 14.625 19.875 14.8594 20.4375C15.0938 21 14.9531 21.6562 14.5312 22.0781L8.53125 28.0781Z" fill="black" fill-opacity="0.72"/>
</g>
<defs>
<clipPath id="clip0_2556_19524">
<rect width="15" height="36" fill="white"/>
</clipPath>
</defs>
</svg>
