<svg width="14" height="22" viewBox="0 0 14 22" fill="none" xmlns="http://www.w3.org/2000/svg">
<g id="label-paired / sm / circle-arrow-left-sm / regular" clip-path="url(#clip0_2556_12597)">
<path id="icon" d="M0.875 10.75C0.875 12.9648 2.02344 14.9609 3.9375 16.0547C5.82422 17.1758 8.14844 17.1758 10.0625 16.0547C11.9492 14.9609 13.125 12.9648 13.125 10.75C13.125 8.5625 11.9492 6.56641 10.0625 5.47266C8.14844 4.35156 5.82422 4.35156 3.9375 5.47266C2.02344 6.56641 0.875 8.5625 0.875 10.75ZM14 10.75C14 13.2656 12.6602 15.5625 10.5 16.8203C8.3125 18.0781 5.66016 18.0781 3.5 16.8203C1.3125 15.5625 0 13.2656 0 10.75C0 8.26172 1.3125 5.96484 3.5 4.70703C5.66016 3.44922 8.3125 3.44922 10.5 4.70703C12.6602 5.96484 14 8.26172 14 10.75ZM6.23438 7.82422C6.39844 7.66016 6.69922 7.66016 6.86328 7.82422C7.02734 7.98828 7.02734 8.28906 6.86328 8.45312L4.97656 10.3125H10.0625C10.2812 10.3125 10.5 10.5312 10.5 10.75C10.5 10.9961 10.2812 11.1875 10.0625 11.1875H4.97656L6.86328 13.0742C7.02734 13.2383 7.02734 13.5391 6.86328 13.7031C6.69922 13.8672 6.39844 13.8672 6.23438 13.7031L3.60938 11.0781C3.44531 10.9141 3.44531 10.6133 3.60938 10.4492L6.23438 7.82422Z" fill="black" fill-opacity="0.72"/>
</g>
<defs>
<clipPath id="clip0_2556_12597">
<rect width="14" height="22" fill="white"/>
</clipPath>
</defs>
</svg>
