<svg width="21" height="36" viewBox="0 0 21 36" fill="none" xmlns="http://www.w3.org/2000/svg">
<g id="label-paired / xl / arrow-left-xl / bold" clip-path="url(#clip0_2556_19807)">
<path id="icon" d="M0.328125 18.8438C0.09375 18.6094 0 18.3281 0 18C0 17.7188 0.09375 17.4375 0.328125 17.2031L8.57812 9.32812C9.04688 8.90625 9.75 8.90625 10.1719 9.375C10.5938 9.79688 10.5938 10.5469 10.125 10.9688L3.89062 16.875H19.875C20.4844 16.875 21 17.3906 21 18C21 18.6562 20.4844 19.125 19.875 19.125H3.89062L10.125 25.0781C10.5938 25.5 10.5938 26.2031 10.1719 26.6719C9.75 27.1406 9.04688 27.1406 8.57812 26.7188L0.328125 18.8438Z" fill="black" fill-opacity="0.72"/>
</g>
<defs>
<clipPath id="clip0_2556_19807">
<rect width="21" height="36" fill="white"/>
</clipPath>
</defs>
</svg>
