<svg width="16" height="22" viewBox="0 0 16 22" fill="none" xmlns="http://www.w3.org/2000/svg">
<g id="label-paired / sm / page-circle-arrow-right-sm / bold" clip-path="url(#clip0_3558_3996)">
<path id="icon" d="M0.125 5.5C0.125 4.54297 0.890625 3.75 1.875 3.75H6.82422C7.28906 3.75 7.72656 3.94141 8.05469 4.26953L10.1055 6.32031C10.4336 6.64844 10.625 7.08594 10.625 7.55078V9.19141C10.1328 9.32812 9.69531 9.51953 9.3125 9.79297V7.55078C9.3125 7.44141 9.25781 7.33203 9.17578 7.25L7.125 5.19922C7.04297 5.11719 6.93359 5.0625 6.82422 5.0625H1.875C1.62891 5.0625 1.4375 5.28125 1.4375 5.5V16C1.4375 16.2461 1.62891 16.4375 1.875 16.4375H7.89062C8.21875 16.957 8.62891 17.3945 9.12109 17.75C9.03906 17.75 8.95703 17.75 8.875 17.75H1.875C0.890625 17.75 0.125 16.9844 0.125 16V5.5ZM8 13.8125C8 11.6523 9.75 9.875 11.9375 9.875C14.0977 9.875 15.875 11.6523 15.875 13.8125C15.875 16 14.0977 17.75 11.9375 17.75C9.75 17.75 8 16 8 13.8125ZM9.75 13.8125C9.75 14.0586 9.94141 14.25 10.1875 14.25H12.6211L11.8281 15.043C11.6641 15.207 11.6641 15.5078 11.8281 15.6719C11.9922 15.8359 12.293 15.8359 12.457 15.6719L13.9883 14.1406C14.1523 13.9766 14.1523 13.6758 13.9883 13.5117L12.457 11.9805C12.293 11.8164 11.9922 11.8164 11.8281 11.9805C11.6641 12.1445 11.6641 12.4453 11.8281 12.6094L12.6211 13.375H10.1875C9.94141 13.375 9.75 13.5938 9.75 13.8125Z" fill="black" fill-opacity="0.72"/>
</g>
<defs>
<clipPath id="clip0_3558_3996">
<rect width="16" height="22" fill="white"/>
</clipPath>
</defs>
</svg>
