<svg width="14" height="18" viewBox="0 0 14 18" fill="none" xmlns="http://www.w3.org/2000/svg">
<g id="label-paired / caption / star-caption / bold" clip-path="url(#clip0_2556_10352)">
<path id="icon" d="M6.97656 3.5C7.21094 3.5 7.39844 3.64062 7.49219 3.82812L9.10938 7.13281L12.6953 7.67188C12.9062 7.69531 13.0703 7.83594 13.1406 8.04688C13.2109 8.25781 13.1641 8.46875 13 8.63281L10.3984 11.2109L11.0078 14.8438C11.0547 15.0547 10.9609 15.2891 10.7969 15.4062C10.6094 15.5234 10.375 15.5469 10.1875 15.4531L6.97656 13.7188L3.78906 15.4531C3.57812 15.5469 3.36719 15.5234 3.17969 15.4062C3.01562 15.2656 2.92188 15.0547 2.96875 14.8438L3.57812 11.2109L0.976562 8.63281C0.8125 8.46875 0.765625 8.25781 0.835938 8.04688C0.90625 7.85938 1.07031 7.69531 1.28125 7.67188L4.86719 7.13281L6.48438 3.82812C6.57812 3.64062 6.76562 3.5 6.97656 3.5ZM6.97656 5.35156L5.75781 7.90625C5.66406 8.07031 5.52344 8.1875 5.33594 8.21094L2.57031 8.60938L4.5625 10.6016C4.70312 10.7422 4.77344 10.9297 4.72656 11.0938L4.25781 13.9062L6.71875 12.5938C6.88281 12.5 7.09375 12.5 7.25781 12.5938L9.71875 13.9062L9.25 11.1172C9.20312 10.9297 9.27344 10.7422 9.41406 10.625L11.4062 8.60938L8.64062 8.21094C8.45312 8.1875 8.3125 8.07031 8.21875 7.90625L6.97656 5.35156Z" fill="black" fill-opacity="0.72"/>
</g>
<defs>
<clipPath id="clip0_2556_10352">
<rect width="14" height="18" fill="white"/>
</clipPath>
</defs>
</svg>
