<svg width="10" height="24" viewBox="0 0 10 24" fill="none" xmlns="http://www.w3.org/2000/svg">
<g id="label-paired / md / six-md / bold" clip-path="url(#clip0_2556_14829)">
<path id="icon" d="M8.5 14C8.5 12.0938 6.90625 10.5 5 10.5C3.96875 10.5 3.0625 10.9375 2.4375 11.625L2.28125 11.8125C1.75 12.4375 1.5 13.2188 1.5 14C1.5 15.9375 3.0625 17.5 5 17.5C6.90625 17.5 8.5 15.9375 8.5 14ZM4.53125 9.03125C4.6875 9.03125 4.84375 9 5 9C7.75 9 10 11.25 10 14C10 16.7812 7.75 19 5 19C2.21875 19 0 16.7812 0 14C0 12.7188 0.46875 11.5312 1.28125 10.6562L5.65625 5.28125C5.90625 4.96875 6.375 4.90625 6.71875 5.1875C7.03125 5.4375 7.09375 5.90625 6.8125 6.25L4.53125 9.03125Z" fill="black" fill-opacity="0.72"/>
</g>
<defs>
<clipPath id="clip0_2556_14829">
<rect width="10" height="24" fill="white"/>
</clipPath>
</defs>
</svg>
