<svg width="18" height="24" viewBox="0 0 18 24" fill="none" xmlns="http://www.w3.org/2000/svg">
<g id="label-paired / md / memo-circle-check-md / fill" clip-path="url(#clip0_2556_14554)">
<path id="icon" d="M0 6C0 4.90625 0.875 4 2 4H10C11.0938 4 12 4.90625 12 6V10.2188C9.6875 10.875 8 13 8 15.5C8 17.375 8.90625 19 10.2812 20C10.1875 20 10.0938 20 10 20H2C0.875 20 0 19.125 0 18V6ZM2 8.5C2 8.78125 2.21875 9 2.5 9H9.5C9.75 9 10 8.78125 10 8.5C10 8.25 9.75 8 9.5 8H2.5C2.21875 8 2 8.25 2 8.5ZM2.5 11C2.21875 11 2 11.25 2 11.5C2 11.7812 2.21875 12 2.5 12H7.5C7.75 12 8 11.7812 8 11.5C8 11.25 7.75 11 7.5 11H2.5ZM2.5 14C2.21875 14 2 14.25 2 14.5C2 14.7812 2.21875 15 2.5 15H5.5C5.75 15 6 14.7812 6 14.5C6 14.25 5.75 14 5.5 14H2.5ZM9 15.5C9 13.9062 9.84375 12.4375 11.25 11.625C12.625 10.8125 14.3438 10.8125 15.75 11.625C17.125 12.4375 18 13.9062 18 15.5C18 17.125 17.125 18.5938 15.75 19.4062C14.3438 20.2188 12.625 20.2188 11.25 19.4062C9.84375 18.5938 9 17.125 9 15.5ZM14.875 14.1562L13 16.0625L12.0938 15.1562C11.9062 14.9688 11.5625 14.9688 11.375 15.1562C11.1875 15.3438 11.1875 15.6875 11.375 15.875L12.625 17.125C12.8125 17.3125 13.1562 17.3125 13.3438 17.125L15.5938 14.875C15.7812 14.6875 15.7812 14.3438 15.5938 14.1562C15.4062 13.9688 15.0625 13.9688 14.875 14.1562Z" fill="black" fill-opacity="0.72"/>
</g>
<defs>
<clipPath id="clip0_2556_14554">
<rect width="18" height="24" fill="white"/>
</clipPath>
</defs>
</svg>
