<svg width="16" height="24" viewBox="0 0 16 24" fill="none" xmlns="http://www.w3.org/2000/svg">
<g id="label-paired / md / table-layout-md / regular" clip-path="url(#clip0_2556_14709)">
<path id="icon" d="M14 6H2C1.4375 6 1 6.46875 1 7V9H15V7C15 6.46875 14.5312 6 14 6ZM1 17C1 17.5625 1.4375 18 2 18H5V10H1V17ZM6 18H14C14.5312 18 15 17.5625 15 17V10H6V18ZM2 5H14C15.0938 5 16 5.90625 16 7V17C16 18.125 15.0938 19 14 19H2C0.875 19 0 18.125 0 17V7C0 5.90625 0.875 5 2 5Z" fill="black" fill-opacity="0.72"/>
</g>
<defs>
<clipPath id="clip0_2556_14709">
<rect width="16" height="24" fill="white"/>
</clipPath>
</defs>
</svg>
