<svg width="9" height="18" viewBox="0 0 9 18" fill="none" xmlns="http://www.w3.org/2000/svg">
<g id="label-paired / caption / lightbulb-caption / regular" clip-path="url(#clip0_2556_9927)">
<path id="icon" d="M7.26562 9.57031C7.64062 9.00781 7.875 8.35156 7.875 7.625C7.875 5.77344 6.35156 4.25 4.5 4.25C2.625 4.25 1.125 5.77344 1.125 7.625C1.125 8.35156 1.33594 9.00781 1.71094 9.57031C1.80469 9.6875 1.92188 9.85156 2.03906 10.0156C2.34375 10.4141 2.67188 10.8828 2.92969 11.3516C3.14062 11.7266 3.25781 12.125 3.30469 12.5234H2.55469C2.48438 12.2422 2.41406 11.9609 2.27344 11.7031C2.03906 11.2812 1.75781 10.8828 1.45312 10.4844C1.33594 10.3203 1.21875 10.1562 1.10156 9.99219C0.632812 9.3125 0.375 8.51562 0.375 7.625C0.375 5.35156 2.20312 3.5 4.5 3.5C6.77344 3.5 8.625 5.35156 8.625 7.625C8.625 8.51562 8.34375 9.3125 7.875 9.99219C7.75781 10.1562 7.64062 10.3203 7.52344 10.4844C7.21875 10.8828 6.9375 11.2812 6.70312 11.7031C6.5625 11.9609 6.49219 12.2188 6.42188 12.5H5.67188C5.74219 12.125 5.83594 11.7266 6.04688 11.3516C6.30469 10.8828 6.65625 10.4141 6.9375 9.99219C7.05469 9.85156 7.17188 9.6875 7.26562 9.54688V9.57031ZM4.5 5.75C3.44531 5.75 2.625 6.59375 2.625 7.625C2.625 7.83594 2.4375 8 2.25 8C2.03906 8 1.875 7.83594 1.875 7.625C1.875 6.19531 3.04688 5 4.5 5C4.6875 5 4.875 5.1875 4.875 5.375C4.875 5.58594 4.6875 5.75 4.5 5.75ZM3.42188 14C3.58594 14.4453 4.00781 14.75 4.5 14.75C4.96875 14.75 5.39062 14.4453 5.55469 14H3.42188ZM2.625 13.625V13.5078C2.625 13.3672 2.71875 13.25 2.85938 13.25H6.11719C6.25781 13.25 6.375 13.3672 6.375 13.5078V13.625C6.375 14.6797 5.53125 15.5 4.5 15.5C3.44531 15.5 2.625 14.6797 2.625 13.625Z" fill="black" fill-opacity="0.72"/>
</g>
<defs>
<clipPath id="clip0_2556_9927">
<rect width="9" height="18" fill="white"/>
</clipPath>
</defs>
</svg>
