<svg width="16" height="24" viewBox="0 0 16 24" fill="none" xmlns="http://www.w3.org/2000/svg">
<g id="label-paired / md / sparkles-md / regular" clip-path="url(#clip0_5090_449)">
<path id="icon" d="M13.5 5C13.75 5 14 5.25 14 5.5V7H15.5C15.75 7 16 7.25 16 7.5C16 7.78125 15.75 8 15.5 8H14V9.5C14 9.78125 13.75 10 13.5 10C13.2188 10 13 9.78125 13 9.5V8H11.5C11.2188 8 11 7.78125 11 7.5C11 7.25 11.2188 7 11.5 7H13V5.5C13 5.25 13.2188 5 13.5 5ZM13.5 14C13.75 14 14 14.25 14 14.5V16H15.5C15.75 16 16 16.25 16 16.5C16 16.7812 15.75 17 15.5 17H14V18.5C14 18.7812 13.75 19 13.5 19C13.2188 19 13 18.7812 13 18.5V17H11.5C11.2188 17 11 16.7812 11 16.5C11 16.25 11.2188 16 11.5 16H13V14.5C13 14.25 13.2188 14 13.5 14ZM4.25 10.7812L1.6875 11.9688L4.25 13.1562C4.46875 13.25 4.65625 13.4375 4.75 13.6562L5.9375 16.2188L7.125 13.6562C7.21875 13.4375 7.40625 13.25 7.625 13.1562L10.1875 11.9688L7.625 10.7812C7.40625 10.6875 7.21875 10.5 7.125 10.2812L5.9375 7.71875L4.75 10.2812C4.65625 10.5 4.46875 10.6875 4.25 10.7812ZM3.84375 14.0625L0.28125 12.4375C0.09375 12.3438 0 12.1562 0 11.9688C0 11.7812 0.09375 11.5938 0.28125 11.5312L3.84375 9.875L5.5 6.3125C5.5625 6.125 5.75 6 5.9375 6C6.125 6 6.3125 6.125 6.40625 6.3125L8.03125 9.875L11.5938 11.5C11.7812 11.5938 11.9062 11.7812 11.9062 11.9688C11.9062 12.1562 11.7812 12.3438 11.5938 12.4062L8.03125 14.0625L6.40625 17.625C6.3125 17.8125 6.125 17.9375 5.9375 17.9375C5.75 17.9375 5.5625 17.8125 5.5 17.625L3.84375 14.0625Z" fill="black" fill-opacity="0.72"/>
</g>
<defs>
<clipPath id="clip0_5090_449">
<rect width="16" height="24" fill="white"/>
</clipPath>
</defs>
</svg>
