<svg width="20" height="24" viewBox="0 0 20 24" fill="none" xmlns="http://www.w3.org/2000/svg">
<g id="label-paired / md / graduation-cap-md / bold" clip-path="url(#clip0_4124_437)">
<path id="icon" d="M10 6.5C9.90625 6.5 9.84375 6.53125 9.75 6.5625L2.9375 9L4.34375 9.53125C4.5 9.4375 4.65625 9.375 4.8125 9.3125L9.8125 7.4375C10.0625 7.34375 10.375 7.46875 10.4688 7.75C10.5625 8 10.4375 8.28125 10.1562 8.375L5.75 10.0312L9.75 11.4688C9.84375 11.5 9.90625 11.5 10 11.5C10.0625 11.5 10.1562 11.5 10.2188 11.4688L17.0312 9L10.2188 6.5625C10.1562 6.53125 10.0625 6.5 10 6.5ZM0.46875 9.71875C0.1875 9.625 0 9.34375 0 9C0 8.6875 0.1875 8.40625 0.46875 8.3125L9.25 5.15625C9.46875 5.0625 9.71875 5 10 5C10.25 5 10.5 5.0625 10.7188 5.15625L19.5 8.3125C19.7812 8.40625 20 8.6875 20 9C20 9.34375 19.7812 9.625 19.5 9.71875L10.7188 12.875C10.5 12.9688 10.25 13.0312 10 13.0312C9.71875 13.0312 9.46875 12.9688 9.25 12.875L3.9375 10.9688C3.09375 11.7188 2.5625 12.75 2.5 13.9062C2.6875 14.3438 2.8125 14.7812 2.90625 15.2188C3.09375 16.0625 3.25 17.2812 2.96875 18.625C2.9375 18.75 2.875 18.875 2.75 18.9375C2.625 19 2.5 19.0312 2.375 19L0.375 18.5C0.1875 18.4688 0.0625 18.3438 0 18.1875C-0.03125 18.0312 0 17.8438 0.09375 17.7188C0.34375 17.3438 0.59375 16.9375 0.78125 16.5312C1.15625 15.8125 1.5 14.9062 1.5 14V13.9688C1.53125 12.6875 2.0625 11.5 2.90625 10.5938L0.46875 9.71875ZM15.5 12.2188L16 16.75C16 17.875 13.3125 19 10 19C6.6875 19 4 17.875 4 16.75L4.46875 12.2188L5.90625 12.75L5.53125 16.5C5.65625 16.625 5.90625 16.75 6.28125 16.9062C7.1875 17.25 8.5 17.5 10 17.5C11.5 17.5 12.8125 17.25 13.6875 16.9062C14.0625 16.75 14.3125 16.625 14.4375 16.5L14.0625 12.75L15.5 12.2188ZM14.5938 16.375V16.4062V16.375ZM5.375 16.375V16.4062V16.375Z" fill="black" fill-opacity="0.72"/>
</g>
<defs>
<clipPath id="clip0_4124_437">
<rect width="20" height="24" fill="white"/>
</clipPath>
</defs>
</svg>
