<svg width="16" height="24" viewBox="0 0 16 24" fill="none" xmlns="http://www.w3.org/2000/svg">
<g id="label-paired / md / search-md / fill" clip-path="url(#clip0_2556_15255)">
<path id="icon" d="M13 10.5C13 11.9375 12.5312 13.2812 11.75 14.3438L15.6875 18.3125C16.0938 18.6875 16.0938 19.3438 15.6875 19.7188C15.3125 20.125 14.6562 20.125 14.2812 19.7188L10.3125 15.75C9.25 16.5625 7.90625 17 6.5 17C2.90625 17 0 14.0938 0 10.5C0 6.9375 2.90625 4 6.5 4C10.0625 4 13 6.9375 13 10.5ZM6.5 15C8.09375 15 9.5625 14.1562 10.375 12.75C11.1875 11.375 11.1875 9.65625 10.375 8.25C9.5625 6.875 8.09375 6 6.5 6C4.875 6 3.40625 6.875 2.59375 8.25C1.78125 9.65625 1.78125 11.375 2.59375 12.75C3.40625 14.1562 4.875 15 6.5 15Z" fill="black" fill-opacity="0.72"/>
</g>
<defs>
<clipPath id="clip0_2556_15255">
<rect width="16" height="24" fill="white"/>
</clipPath>
</defs>
</svg>
