<svg width="18" height="22" viewBox="0 0 18 22" fill="none" xmlns="http://www.w3.org/2000/svg">
<g id="label-paired / sm / link-sm / fill" clip-path="url(#clip0_4460_530)">
<path id="icon" d="M16.082 11.0781L13.0195 14.1406C11.4883 15.6992 8.97266 15.6992 7.44141 14.1406C6.07422 12.7734 5.88281 10.6406 7.00391 9.05469L7.03125 9.02734C7.33203 8.61719 7.87891 8.53516 8.26172 8.80859C8.64453 9.08203 8.75391 9.62891 8.45312 10.0391L8.42578 10.0664C7.79688 10.9414 7.90625 12.1445 8.67188 12.9102C9.51953 13.7852 10.9141 13.7852 11.7891 12.9102L14.8516 9.84766C15.7266 8.97266 15.7266 7.57812 14.8516 6.73047C14.0859 5.96484 12.8828 5.85547 12.0078 6.48438L11.9805 6.51172C11.5703 6.8125 11.0234 6.70312 10.75 6.32031C10.4766 5.9375 10.5586 5.39062 10.9414 5.08984L10.9961 5.0625C12.582 3.94141 14.7148 4.13281 16.082 5.5C17.6406 7.03125 17.6406 9.54688 16.082 11.0781ZM1.89062 10.4492L4.95312 7.35938C6.51172 5.82812 9 5.82812 10.5586 7.35938C11.9258 8.72656 12.0898 10.8867 10.9688 12.4727L10.9414 12.5C10.668 12.9102 10.0938 12.9922 9.71094 12.7188C9.32812 12.4453 9.21875 11.8984 9.51953 11.4883L9.54688 11.4609C10.1758 10.5586 10.0664 9.38281 9.30078 8.61719C8.45312 7.74219 7.05859 7.74219 6.18359 8.61719L3.12109 11.6797C2.27344 12.5273 2.27344 13.9219 3.12109 14.7969C3.88672 15.5625 5.08984 15.6719 5.96484 15.043L5.99219 15.0156C6.40234 14.7148 6.94922 14.8242 7.22266 15.207C7.49609 15.5898 7.41406 16.1367 7.03125 16.4375L6.97656 16.4648C5.41797 17.5859 3.25781 17.3945 1.89062 16.0273C0.332031 14.4961 0.332031 11.9805 1.89062 10.4492Z" fill="black" fill-opacity="0.72"/>
</g>
<defs>
<clipPath id="clip0_4460_530">
<rect width="18" height="22" fill="white"/>
</clipPath>
</defs>
</svg>
