<svg width="20" height="30" viewBox="0 0 20 30" fill="none" xmlns="http://www.w3.org/2000/svg">
<g id="label-paired / lg / clock-three-lg / regular" clip-path="url(#clip0_2556_17485)">
<path id="icon" d="M18.75 15.5C18.75 12.375 17.0703 9.52344 14.375 7.96094C11.6406 6.35938 8.32031 6.35938 5.625 7.96094C2.89062 9.52344 1.25 12.375 1.25 15.5C1.25 18.6641 2.89062 21.5156 5.625 23.0781C8.32031 24.6797 11.6406 24.6797 14.375 23.0781C17.0703 21.5156 18.75 18.6641 18.75 15.5ZM0 15.5C0 11.9453 1.875 8.66406 5 6.86719C8.08594 5.07031 11.875 5.07031 15 6.86719C18.0859 8.66406 20 11.9453 20 15.5C20 19.0938 18.0859 22.375 15 24.1719C11.875 25.9688 8.08594 25.9688 5 24.1719C1.875 22.375 0 19.0938 0 15.5ZM9.375 9.875C9.375 9.5625 9.64844 9.25 10 9.25C10.3125 9.25 10.625 9.5625 10.625 9.875V14.875H14.375C14.6875 14.875 15 15.1875 15 15.5C15 15.8516 14.6875 16.125 14.375 16.125H10C9.64844 16.125 9.375 15.8516 9.375 15.5V9.875Z" fill="black" fill-opacity="0.72"/>
</g>
<defs>
<clipPath id="clip0_2556_17485">
<rect width="20" height="30" fill="white"/>
</clipPath>
</defs>
</svg>
