<svg width="10" height="24" viewBox="0 0 10 24" fill="none" xmlns="http://www.w3.org/2000/svg">
<g id="label-paired / md / nine-md / bold" clip-path="url(#clip0_2556_14821)">
<path id="icon" d="M1.5 10C1.5 11.9375 3.0625 13.5 5 13.5C6 13.5 6.90625 13.0938 7.53125 12.4062L7.71875 12.2188C8.21875 11.5938 8.5 10.8125 8.5 10C8.5 8.09375 6.90625 6.5 5 6.5C3.0625 6.5 1.5 8.09375 1.5 10ZM5.4375 15C5.28125 15 5.125 15 5 15C2.21875 15 0 12.7812 0 10C0 7.25 2.21875 5 5 5C7.75 5 10 7.25 10 10C10 11.3125 9.5 12.5 8.6875 13.375L4.3125 18.75C4.0625 19.0625 3.59375 19.0938 3.25 18.8438C2.9375 18.5938 2.90625 18.125 3.15625 17.7812L5.4375 15Z" fill="black" fill-opacity="0.72"/>
</g>
<defs>
<clipPath id="clip0_2556_14821">
<rect width="10" height="24" fill="white"/>
</clipPath>
</defs>
</svg>
