<svg width="27" height="36" viewBox="0 0 27 36" fill="none" xmlns="http://www.w3.org/2000/svg">
<g id="label-paired / xl / arrow-down-one-nine-xl / fill" clip-path="url(#clip0_2556_19855)">
<path id="icon" d="M21.0938 7.78125C21.5156 8.10938 21.75 8.53125 21.75 9V13.5H22.5C23.2969 13.5 24 14.2031 24 15C24 15.8438 23.2969 16.5 22.5 16.5H20.25H18C17.1562 16.5 16.5 15.8438 16.5 15C16.5 14.2031 17.1562 13.5 18 13.5H18.75V11.1094L18.4688 11.2031C17.6719 11.4375 16.8281 11.0156 16.5469 10.2656C16.3125 9.46875 16.7344 8.625 17.4844 8.34375L19.7344 7.59375C20.2031 7.45312 20.7188 7.5 21.0938 7.78125ZM7.5 28.5C7.07812 28.5 6.65625 28.3594 6.375 28.0312L2.25 23.5312C1.6875 22.9219 1.73438 21.9844 2.34375 21.4219C2.95312 20.8594 3.89062 20.9062 4.45312 21.5156L6 23.1562V9C6 8.20312 6.65625 7.5 7.5 7.5C8.29688 7.5 9 8.20312 9 9V23.1562L10.5 21.5156C11.0625 20.9062 12 20.8594 12.6094 21.4219C13.2188 21.9844 13.2656 22.9219 12.7031 23.5312L8.57812 28.0312C8.29688 28.3594 7.92188 28.5 7.5 28.5ZM19.5938 20.3906C18.8438 20.7656 18.5156 21.6562 18.8906 22.4062C19.2188 23.1562 20.1094 23.4844 20.8594 23.1094C21.6094 22.7812 21.9375 21.8906 21.5625 21.1406C21.2344 20.3906 20.3438 20.0625 19.5938 20.3906ZM18.9844 25.6875C17.2969 25.1719 16.125 23.625 16.125 21.7969C16.125 19.5 17.9531 17.6719 20.25 17.6719C22.5 17.6719 24.375 19.5 24.375 21.7969C24.375 22.875 24 23.9531 23.3438 24.8438L21.0469 27.9375C20.5781 28.5938 19.6406 28.7344 18.9844 28.2188C18.2812 27.75 18.1406 26.8125 18.6562 26.1094L18.9844 25.6875Z" fill="black" fill-opacity="0.72"/>
</g>
<defs>
<clipPath id="clip0_2556_19855">
<rect width="27" height="36" fill="white"/>
</clipPath>
</defs>
</svg>
