<svg width="16" height="24" viewBox="0 0 16 24" fill="none" xmlns="http://www.w3.org/2000/svg">
<g id="label-paired / md / chart-line-md / bold" clip-path="url(#clip0_2556_14783)">
<path id="icon" d="M1.5 5.75V16.75C1.5 17.1875 1.8125 17.5 2.25 17.5H15.25C15.6562 17.5 16 17.8438 16 18.25C16 18.6875 15.6562 19 15.25 19H2.25C1 19 0 18 0 16.75V5.75C0 5.34375 0.3125 5 0.75 5C1.15625 5 1.5 5.34375 1.5 5.75ZM14.7812 9.28125L10.5 13.5312C10.2188 13.8438 9.75 13.8438 9.46875 13.5312L7 11.0625L4.53125 13.5312C4.21875 13.8438 3.75 13.8438 3.46875 13.5312C3.15625 13.25 3.15625 12.7812 3.46875 12.5L6.46875 9.5C6.59375 9.34375 6.78125 9.28125 7 9.28125C7.1875 9.28125 7.375 9.34375 7.53125 9.5L10 11.9688L13.7188 8.25C14 7.9375 14.4688 7.9375 14.7812 8.25C15.0625 8.53125 15.0625 9 14.7812 9.28125Z" fill="black" fill-opacity="0.72"/>
</g>
<defs>
<clipPath id="clip0_2556_14783">
<rect width="16" height="24" fill="white"/>
</clipPath>
</defs>
</svg>
