<svg width="12" height="18" viewBox="0 0 12 18" fill="none" xmlns="http://www.w3.org/2000/svg">
<g id="label-paired / caption / clone-caption / regular" clip-path="url(#clip0_2556_10043)">
<path id="icon" d="M1.5 14.75H6.75C7.14844 14.75 7.5 14.4219 7.5 14V12.5H8.25V14C8.25 14.8438 7.57031 15.5 6.75 15.5H1.5C0.65625 15.5 0 14.8438 0 14V8.75C0 7.92969 0.65625 7.25 1.5 7.25H3V8H1.5C1.07812 8 0.75 8.35156 0.75 8.75V14C0.75 14.4219 1.07812 14.75 1.5 14.75ZM5.25 11H10.5C10.8984 11 11.25 10.6719 11.25 10.25V5C11.25 4.60156 10.8984 4.25 10.5 4.25H5.25C4.82812 4.25 4.5 4.60156 4.5 5V10.25C4.5 10.6719 4.82812 11 5.25 11ZM3.75 10.25V5C3.75 4.17969 4.40625 3.5 5.25 3.5H10.5C11.3203 3.5 12 4.17969 12 5V10.25C12 11.0938 11.3203 11.75 10.5 11.75H5.25C4.40625 11.75 3.75 11.0938 3.75 10.25Z" fill="black" fill-opacity="0.72"/>
</g>
<defs>
<clipPath id="clip0_2556_10043">
<rect width="12" height="18" fill="white"/>
</clipPath>
</defs>
</svg>
