<svg width="30" height="36" viewBox="0 0 30 36" fill="none" xmlns="http://www.w3.org/2000/svg">
<g id="label-paired / xl / link-xl / regular" clip-path="url(#clip0_4460_547)">
<path id="icon" d="M27.7031 18L21.8438 23.8594C19.5 26.2031 15.7031 26.2031 13.4062 23.8594C11.1562 21.6094 11.0156 18.0469 13.0781 15.7031L13.3594 15.4219C13.5938 15.0938 14.1094 15.0469 14.3906 15.3281C14.7188 15.6094 14.7656 16.0781 14.4844 16.4062L14.25 16.6875C12.7031 18.4688 12.7969 21.1406 14.4375 22.7812C16.2188 24.5625 19.0312 24.5625 20.8125 22.7812L26.625 16.9688C28.4062 15.1875 28.4062 12.375 26.625 10.5938C24.8906 8.85938 22.0312 8.85938 20.2969 10.5938L19.2188 11.6719C18.9375 11.9531 18.4688 11.9531 18.1406 11.6719C17.8594 11.3438 17.8594 10.875 18.1406 10.5938L19.2188 9.51562C21.5625 7.17188 25.3594 7.17188 27.7031 9.51562C30.0469 11.8594 30.0469 15.6562 27.7031 18ZM2.25 18L8.10938 12.1875C10.4531 9.84375 14.2031 9.84375 16.5938 12.1875C18.7969 14.3906 18.9375 17.9531 16.875 20.3438L16.5938 20.625C16.3594 20.9531 15.8906 21 15.5625 20.7188C15.2344 20.4375 15.1875 19.9688 15.4688 19.6406L15.75 19.3594C17.25 17.5781 17.1562 14.9062 15.5156 13.2656C13.7344 11.4844 10.9219 11.4844 9.14062 13.2656L3.32812 19.0781C1.54688 20.8594 1.54688 23.6719 3.32812 25.4531C5.0625 27.1875 7.92188 27.1875 9.65625 25.4531L10.7344 24.375C11.0156 24.0938 11.4844 24.0938 11.8125 24.375C12.0938 24.6562 12.0938 25.1719 11.8125 25.4531L10.7344 26.4844C8.39062 28.8281 4.59375 28.8281 2.25 26.4844C-0.09375 24.1406 -0.09375 20.3438 2.25 18Z" fill="black" fill-opacity="0.72"/>
</g>
<defs>
<clipPath id="clip0_4460_547">
<rect width="30" height="36" fill="white"/>
</clipPath>
</defs>
</svg>
