<svg width="13" height="22" viewBox="0 0 13 22" fill="none" xmlns="http://www.w3.org/2000/svg">
<g id="label-paired / sm / floppy-disk-sm / bold" clip-path="url(#clip0_2556_12442)">
<path id="icon" d="M1.6875 6.375V15.125C1.6875 15.3711 1.87891 15.5625 2.125 15.5625H10.875C11.0938 15.5625 11.3125 15.3711 11.3125 15.125V8.42578C11.3125 8.31641 11.2578 8.20703 11.1758 8.125L12.1055 7.19531C12.4336 7.52344 12.5977 7.96094 12.5977 8.42578V15.125C12.5977 16.1094 11.832 16.875 10.8477 16.875H2.125C1.14062 16.875 0.375 16.1094 0.375 15.125V6.375C0.375 5.41797 1.14062 4.625 2.125 4.625H8.82422C9.28906 4.625 9.72656 4.81641 10.0547 5.14453L12.1055 7.19531L11.1758 8.125L9.125 6.07422C9.125 6.07422 9.125 6.07422 9.125 6.04688V8.78125C9.125 9.16406 8.82422 9.4375 8.46875 9.4375H3.21875C2.83594 9.4375 2.5625 9.16406 2.5625 8.78125V5.9375H2.125C1.87891 5.9375 1.6875 6.15625 1.6875 6.375ZM3.875 5.9375V8.125H7.8125V5.9375H3.875ZM4.75 12.5C4.75 11.8984 5.07812 11.3242 5.625 10.9961C6.14453 10.6953 6.82812 10.6953 7.375 10.9961C7.89453 11.3242 8.25 11.8984 8.25 12.5C8.25 13.1289 7.89453 13.7031 7.375 14.0312C6.82812 14.332 6.14453 14.332 5.625 14.0312C5.07812 13.7031 4.75 13.1289 4.75 12.5Z" fill="black" fill-opacity="0.72"/>
</g>
<defs>
<clipPath id="clip0_2556_12442">
<rect width="13" height="22" fill="white"/>
</clipPath>
</defs>
</svg>
