<svg width="14" height="22" viewBox="0 0 14 22" fill="none" xmlns="http://www.w3.org/2000/svg">
<g id="label-paired / sm / circle-arrow-down-left-sm / regular" clip-path="url(#clip0_2556_12579)">
<path id="icon" d="M7 4.625C4.78516 4.625 2.78906 5.80078 1.69531 7.6875C0.574219 9.60156 0.574219 11.9258 1.69531 13.8125C2.78906 15.7266 4.78516 16.875 7 16.875C9.1875 16.875 11.1836 15.7266 12.2773 13.8125C13.3984 11.9258 13.3984 9.60156 12.2773 7.6875C11.1836 5.80078 9.1875 4.625 7 4.625ZM7 17.75C4.48438 17.75 2.1875 16.4375 0.929688 14.25C-0.328125 12.0898 -0.328125 9.4375 0.929688 7.25C2.1875 5.08984 4.48438 3.75 7 3.75C9.48828 3.75 11.7852 5.08984 13.043 7.25C14.3008 9.4375 14.3008 12.0898 13.043 14.25C11.7852 16.4375 9.48828 17.75 7 17.75ZM8.53125 13.375H4.8125C4.56641 13.375 4.375 13.1836 4.375 12.9375V9C4.375 8.78125 4.56641 8.5625 4.8125 8.5625C5.03125 8.5625 5.25 8.78125 5.25 9V11.8984L8.85938 8.26172C9.02344 8.09766 9.32422 8.09766 9.48828 8.26172C9.65234 8.42578 9.65234 8.72656 9.48828 8.89062L5.85156 12.5H8.53125C8.75 12.5 8.96875 12.7188 8.96875 12.9375C8.96875 13.1836 8.75 13.375 8.53125 13.375Z" fill="black" fill-opacity="0.72"/>
</g>
<defs>
<clipPath id="clip0_2556_12579">
<rect width="14" height="22" fill="white"/>
</clipPath>
</defs>
</svg>
