<svg width="11" height="18" viewBox="0 0 11 18" fill="none" xmlns="http://www.w3.org/2000/svg">
<g id="label-paired / caption / bars-caption / fill" clip-path="url(#clip0_2556_10500)">
<path id="icon" d="M0.25 5.75C0.25 5.35156 0.578125 5 1 5H10C10.3984 5 10.75 5.35156 10.75 5.75C10.75 6.17188 10.3984 6.5 10 6.5H1C0.578125 6.5 0.25 6.17188 0.25 5.75ZM0.25 9.5C0.25 9.10156 0.578125 8.75 1 8.75H10C10.3984 8.75 10.75 9.10156 10.75 9.5C10.75 9.92188 10.3984 10.25 10 10.25H1C0.578125 10.25 0.25 9.92188 0.25 9.5ZM10.75 13.25C10.75 13.6719 10.3984 14 10 14H1C0.578125 14 0.25 13.6719 0.25 13.25C0.25 12.8516 0.578125 12.5 1 12.5H10C10.3984 12.5 10.75 12.8516 10.75 13.25Z" fill="black" fill-opacity="0.72"/>
</g>
<defs>
<clipPath id="clip0_2556_10500">
<rect width="11" height="18" fill="white"/>
</clipPath>
</defs>
</svg>
