<svg width="16" height="22" viewBox="0 0 16 22" fill="none" xmlns="http://www.w3.org/2000/svg">
<g id="label-paired / sm / arrow-down-a-z-sm / fill" clip-path="url(#clip0_2556_12696)">
<path id="icon" d="M5.12891 16.6016C4.96484 16.793 4.74609 16.875 4.5 16.875C4.25391 16.875 4.00781 16.793 3.84375 16.6016L1.4375 13.9766C1.10938 13.6211 1.13672 13.0742 1.49219 12.7461C1.84766 12.418 2.39453 12.4453 2.72266 12.8008L3.625 13.7578V5.5C3.625 5.03516 4.00781 4.625 4.5 4.625C4.96484 4.625 5.375 5.03516 5.375 5.5V13.7578L6.25 12.8008C6.57812 12.4453 7.125 12.418 7.48047 12.7461C7.83594 13.0742 7.86328 13.6211 7.53516 13.9766L5.12891 16.6016ZM8.875 12.5C8.875 12.0352 9.25781 11.625 9.75 11.625H13.25C13.5781 11.625 13.9062 11.8438 14.043 12.1719C14.1797 12.5 14.0977 12.8828 13.8516 13.1289L11.8555 15.125H13.25C13.7148 15.125 14.125 15.5352 14.125 16C14.125 16.4922 13.7148 16.875 13.25 16.875H9.75C9.39453 16.875 9.06641 16.6836 8.92969 16.3555C8.79297 16.0273 8.875 15.6445 9.12109 15.3984L11.1172 13.375H9.75C9.25781 13.375 8.875 12.9922 8.875 12.5ZM11.5 4.625C11.8281 4.625 12.1289 4.81641 12.2656 5.11719L14.0156 8.61719L14.4531 9.49219C14.6719 9.92969 14.5078 10.4492 14.0703 10.668C13.6328 10.8867 13.1133 10.7227 12.8945 10.2852L12.7031 9.875H10.2695L10.0781 10.2852C9.85938 10.7227 9.33984 10.8867 8.90234 10.668C8.46484 10.4492 8.30078 9.92969 8.51953 9.49219L8.95703 8.61719L10.707 5.11719C10.8438 4.81641 11.1445 4.625 11.5 4.625ZM10.9258 8.5625H12.0469L11.5 7.46875L10.9258 8.5625Z" fill="black" fill-opacity="0.72"/>
</g>
<defs>
<clipPath id="clip0_2556_12696">
<rect width="16" height="22" fill="white"/>
</clipPath>
</defs>
</svg>
