<svg width="20" height="24" viewBox="0 0 20 24" fill="none" xmlns="http://www.w3.org/2000/svg">
<g id="label-paired / md / user-check-md / fill" clip-path="url(#clip0_3327_706)">
<path id="icon" d="M3 8C3 6.59375 3.75 5.28125 5 4.5625C6.21875 3.84375 7.75 3.84375 9 4.5625C10.2188 5.28125 11 6.59375 11 8C11 9.4375 10.2188 10.75 9 11.4688C7.75 12.1875 6.21875 12.1875 5 11.4688C3.75 10.75 3 9.4375 3 8ZM0 19.0938C0 16 2.46875 13.5 5.5625 13.5H8.40625C11.5 13.5 14 16 14 19.0938C14 19.5938 13.5625 20 13.0625 20H0.90625C0.40625 20 0 19.5938 0 19.0938ZM19.5312 9.53125L15.5312 13.5312C15.2188 13.8438 14.75 13.8438 14.4688 13.5312L12.4688 11.5312C12.1562 11.25 12.1562 10.7812 12.4688 10.5C12.75 10.1875 13.2188 10.1875 13.5312 10.5L15 11.9688L18.4688 8.46875C18.75 8.1875 19.2188 8.1875 19.5 8.46875C19.8125 8.78125 19.8125 9.25 19.5 9.53125H19.5312Z" fill="black" fill-opacity="0.72"/>
</g>
<defs>
<clipPath id="clip0_3327_706">
<rect width="20" height="24" fill="white"/>
</clipPath>
</defs>
</svg>
