<svg width="14" height="22" viewBox="0 0 14 22" fill="none" xmlns="http://www.w3.org/2000/svg">
<g id="label-paired / sm / circle-exclamation-sm / regular" clip-path="url(#clip0_2556_12354)">
<path id="icon" d="M7 4.625C4.78516 4.625 2.78906 5.80078 1.69531 7.6875C0.574219 9.60156 0.574219 11.9258 1.69531 13.8125C2.78906 15.7266 4.78516 16.875 7 16.875C9.1875 16.875 11.1836 15.7266 12.2773 13.8125C13.3984 11.9258 13.3984 9.60156 12.2773 7.6875C11.1836 5.80078 9.1875 4.625 7 4.625ZM7 17.75C4.48438 17.75 2.1875 16.4375 0.929688 14.25C-0.328125 12.0898 -0.328125 9.4375 0.929688 7.25C2.1875 5.08984 4.48438 3.75 7 3.75C9.48828 3.75 11.7852 5.08984 13.043 7.25C14.3008 9.4375 14.3008 12.0898 13.043 14.25C11.7852 16.4375 9.48828 17.75 7 17.75ZM7 7.25C7.21875 7.25 7.4375 7.46875 7.4375 7.6875V11.1875C7.4375 11.4336 7.21875 11.625 7 11.625C6.75391 11.625 6.5625 11.4336 6.5625 11.1875V7.6875C6.5625 7.46875 6.75391 7.25 7 7.25ZM7.65625 13.375C7.65625 13.7578 7.35547 14.0312 7 14.0312C6.61719 14.0312 6.34375 13.7578 6.34375 13.375C6.34375 13.0195 6.61719 12.7188 7 12.7188C7.35547 12.7188 7.65625 13.0195 7.65625 13.375Z" fill="black" fill-opacity="0.72"/>
</g>
<defs>
<clipPath id="clip0_2556_12354">
<rect width="14" height="22" fill="white"/>
</clipPath>
</defs>
</svg>
