<svg width="11" height="18" viewBox="0 0 11 18" fill="none" xmlns="http://www.w3.org/2000/svg">
<g id="label-paired / caption / paperclip-caption / regular" clip-path="url(#clip0_2981_611)">
<path id="icon" d="M9.15625 5.09375C8.47656 4.41406 7.375 4.41406 6.69531 5.09375L2.19531 9.59375C1.09375 10.6953 1.09375 12.4531 2.19531 13.5547C3.29688 14.6562 5.05469 14.6562 6.15625 13.5547L9.71875 9.99219C9.85938 9.85156 10.1172 9.85156 10.2578 9.99219C10.3984 10.1328 10.3984 10.3906 10.2578 10.5312L6.69531 14.0938C5.3125 15.4766 3.03906 15.4766 1.65625 14.0938C0.273438 12.6875 0.273438 10.4375 1.65625 9.05469L6.15625 4.55469C7.14062 3.59375 8.71094 3.59375 9.69531 4.55469C10.6562 5.53906 10.6562 7.10938 9.69531 8.09375L5.38281 12.4062C4.72656 13.0625 3.625 12.9922 3.03906 12.2656C2.54688 11.6328 2.59375 10.7422 3.15625 10.1797L6.71875 6.61719C6.85938 6.47656 7.11719 6.47656 7.25781 6.61719C7.39844 6.75781 7.39844 7.01562 7.25781 7.15625L3.69531 10.7188C3.39062 11 3.36719 11.4688 3.625 11.7969C3.92969 12.1719 4.51562 12.2188 4.84375 11.8672L9.15625 7.55469C9.83594 6.875 9.83594 5.77344 9.15625 5.09375Z" fill="black" fill-opacity="0.72"/>
</g>
<defs>
<clipPath id="clip0_2981_611">
<rect width="11" height="18" fill="white"/>
</clipPath>
</defs>
</svg>
