<svg width="10" height="24" viewBox="0 0 10 24" fill="none" xmlns="http://www.w3.org/2000/svg">
<g id="label-paired / md / backward-step-md / fill" clip-path="url(#clip0_2556_14687)">
<path id="icon" d="M8.34375 17.7812L2.34375 12.7812L2 12.4688V17C2 17.5625 1.53125 18 1 18C0.4375 18 0 17.5625 0 17V7C0 6.46875 0.4375 6 1 6C1.53125 6 2 6.46875 2 7V11.5312L2.34375 11.25L8.34375 6.25C8.65625 6 9.0625 5.9375 9.40625 6.09375C9.75 6.28125 10 6.625 10 7V17C10 17.4062 9.75 17.75 9.40625 17.9062C9.0625 18.0938 8.65625 18.0312 8.34375 17.7812Z" fill="black" fill-opacity="0.72"/>
</g>
<defs>
<clipPath id="clip0_2556_14687">
<rect width="10" height="24" fill="white"/>
</clipPath>
</defs>
</svg>
