<svg width="14" height="22" viewBox="0 0 14 22" fill="none" xmlns="http://www.w3.org/2000/svg">
<g id="label-paired / sm / arrow-rotate-left-sm / fill" clip-path="url(#clip0_3431_811)">
<path id="icon" d="M3.41797 8.125H4.8125C5.27734 8.125 5.6875 8.53516 5.6875 9C5.6875 9.49219 5.27734 9.875 4.8125 9.875H1.3125C0.820312 9.875 0.4375 9.49219 0.4375 9V5.5C0.4375 5.03516 0.820312 4.625 1.3125 4.625C1.77734 4.625 2.1875 5.03516 2.1875 5.5V6.92188L2.65234 6.42969C5.05859 4.05078 8.91406 4.05078 11.3203 6.42969C13.6992 8.83594 13.6992 12.6914 11.3203 15.0977C8.91406 17.4766 5.05859 17.4766 2.65234 15.0977C2.32422 14.7422 2.32422 14.1953 2.65234 13.8672C3.00781 13.5117 3.55469 13.5117 3.88281 13.8672C5.60547 15.5625 8.36719 15.5625 10.0898 13.8672C11.7852 12.1445 11.7852 9.38281 10.0898 7.66016C8.36719 5.96484 5.60547 5.96484 3.88281 7.66016L3.41797 8.125Z" fill="black" fill-opacity="0.72"/>
</g>
<defs>
<clipPath id="clip0_3431_811">
<rect width="14" height="22" fill="white"/>
</clipPath>
</defs>
</svg>
