<svg width="14" height="22" viewBox="0 0 14 22" fill="none" xmlns="http://www.w3.org/2000/svg">
<g id="label-paired / sm / sparkles-sm / regular" clip-path="url(#clip0_5090_434)">
<path id="icon" d="M11.8125 4.625C12.0312 4.625 12.25 4.84375 12.25 5.0625V6.375H13.5625C13.7812 6.375 14 6.59375 14 6.8125C14 7.05859 13.7812 7.25 13.5625 7.25H12.25V8.5625C12.25 8.80859 12.0312 9 11.8125 9C11.5664 9 11.375 8.80859 11.375 8.5625V7.25H10.0625C9.81641 7.25 9.625 7.05859 9.625 6.8125C9.625 6.59375 9.81641 6.375 10.0625 6.375H11.375V5.0625C11.375 4.84375 11.5664 4.625 11.8125 4.625ZM11.8125 12.5C12.0312 12.5 12.25 12.7188 12.25 12.9375V14.25H13.5625C13.7812 14.25 14 14.4688 14 14.6875C14 14.9336 13.7812 15.125 13.5625 15.125H12.25V16.4375C12.25 16.6836 12.0312 16.875 11.8125 16.875C11.5664 16.875 11.375 16.6836 11.375 16.4375V15.125H10.0625C9.81641 15.125 9.625 14.9336 9.625 14.6875C9.625 14.4688 9.81641 14.25 10.0625 14.25H11.375V12.9375C11.375 12.7188 11.5664 12.5 11.8125 12.5ZM3.71875 9.68359L1.47656 10.7227L3.71875 11.7617C3.91016 11.8438 4.07422 12.0078 4.15625 12.1992L5.19531 14.4414L6.23438 12.1992C6.31641 12.0078 6.48047 11.8438 6.67188 11.7617L8.91406 10.7227L6.67188 9.68359C6.48047 9.60156 6.31641 9.4375 6.23438 9.24609L5.19531 7.00391L4.15625 9.24609C4.07422 9.4375 3.91016 9.60156 3.71875 9.68359ZM3.36328 12.5547L0.246094 11.1328C0.0820312 11.0508 0 10.8867 0 10.7227C0 10.5586 0.0820312 10.3945 0.246094 10.3398L3.36328 8.89062L4.8125 5.77344C4.86719 5.60938 5.03125 5.5 5.19531 5.5C5.35938 5.5 5.52344 5.60938 5.60547 5.77344L7.02734 8.89062L10.1445 10.3125C10.3086 10.3945 10.418 10.5586 10.418 10.7227C10.418 10.8867 10.3086 11.0508 10.1445 11.1055L7.02734 12.5547L5.60547 15.6719C5.52344 15.8359 5.35938 15.9453 5.19531 15.9453C5.03125 15.9453 4.86719 15.8359 4.8125 15.6719L3.36328 12.5547Z" fill="black" fill-opacity="0.72"/>
</g>
<defs>
<clipPath id="clip0_5090_434">
<rect width="14" height="22" fill="white"/>
</clipPath>
</defs>
</svg>
