<svg width="24" height="36" viewBox="0 0 24 36" fill="none" xmlns="http://www.w3.org/2000/svg">
<g id="label-paired / xl / paste-xl / regular" clip-path="url(#clip0_2556_19375)">
<path id="icon" d="M6.375 8.4375C6.32812 8.76562 6 9 5.625 9H5.25C4.82812 9 4.5 9.375 4.5 9.75V10.5H10.5V9.75C10.5 9.375 10.125 9 9.75 9H9.32812C8.95312 9 8.67188 8.76562 8.57812 8.4375C8.48438 7.92188 8.01562 7.5 7.5 7.5C6.9375 7.5 6.46875 7.92188 6.375 8.4375ZM7.5 6C8.53125 6 9.42188 6.65625 9.84375 7.5H12C13.6406 7.5 15 8.85938 15 10.5H13.5C13.5 9.70312 12.7969 9 12 9H11.8594C11.9531 9.23438 12 9.51562 12 9.75V10.5C12 10.5469 12 10.5938 12 10.5938C11.0625 10.7812 10.2656 11.2969 9.75 12H4.5C3.65625 12 3 11.3438 3 10.5V9.75C3 9.51562 3.04688 9.23438 3.09375 9H3C2.15625 9 1.5 9.70312 1.5 10.5V24C1.5 24.8438 2.15625 25.5 3 25.5H9V27H3C1.3125 27 0 25.6875 0 24V10.5C0 8.85938 1.3125 7.5 3 7.5H5.10938C5.53125 6.65625 6.42188 6 7.5 6ZM21 28.5C21.7969 28.5 22.5 27.8438 22.5 27V17.4375C22.5 17.25 22.4062 17.0625 22.2656 16.9219L19.0781 13.7344C18.9375 13.5938 18.75 13.5 18.5625 13.5H13.5C12.6562 13.5 12 14.2031 12 15V27C12 27.8438 12.6562 28.5 13.5 28.5H21ZM23.2969 15.8438C23.7188 16.2656 24 16.875 24 17.4375V27C24 28.6875 22.6406 30 21 30H13.5C11.8125 30 10.5 28.6875 10.5 27V15C10.5 13.3594 11.8125 12 13.5 12H18.5625C19.125 12 19.7344 12.2344 20.1562 12.6562L23.2969 15.8438Z" fill="black" fill-opacity="0.72"/>
</g>
<defs>
<clipPath id="clip0_2556_19375">
<rect width="24" height="36" fill="white"/>
</clipPath>
</defs>
</svg>
