<svg width="12" height="18" viewBox="0 0 12 18" fill="none" xmlns="http://www.w3.org/2000/svg">
<g id="label-paired / caption / circle-one-caption / bold" clip-path="url(#clip0_2556_10290)">
<path id="icon" d="M10.875 9.5C10.875 7.76562 9.9375 6.17188 8.4375 5.28125C6.91406 4.41406 5.0625 4.41406 3.5625 5.28125C2.03906 6.17188 1.125 7.76562 1.125 9.5C1.125 11.2578 2.03906 12.8516 3.5625 13.7422C5.0625 14.6094 6.91406 14.6094 8.4375 13.7422C9.9375 12.8516 10.875 11.2578 10.875 9.5ZM0 9.5C0 7.36719 1.125 5.39844 3 4.32031C4.85156 3.24219 7.125 3.24219 9 4.32031C10.8516 5.39844 12 7.36719 12 9.5C12 11.6562 10.8516 13.625 9 14.7031C7.125 15.7812 4.85156 15.7812 3 14.7031C1.125 13.625 0 11.6562 0 9.5ZM6.28125 6.59375C6.44531 6.6875 6.5625 6.875 6.5625 7.0625V11.375H7.5C7.80469 11.375 8.0625 11.6328 8.0625 11.9375C8.0625 12.2656 7.80469 12.5 7.5 12.5H6H4.5C4.17188 12.5 3.9375 12.2656 3.9375 11.9375C3.9375 11.6328 4.17188 11.375 4.5 11.375H5.4375V8.04688L4.94531 8.30469C4.6875 8.46875 4.33594 8.375 4.19531 8.09375C4.03125 7.83594 4.125 7.48438 4.40625 7.34375L5.71875 6.59375C5.88281 6.5 6.09375 6.5 6.28125 6.59375Z" fill="black" fill-opacity="0.72"/>
</g>
<defs>
<clipPath id="clip0_2556_10290">
<rect width="12" height="18" fill="white"/>
</clipPath>
</defs>
</svg>
