<svg width="12" height="18" viewBox="0 0 12 18" fill="none" xmlns="http://www.w3.org/2000/svg">
<g id="label-paired / caption / briefcase-caption / fill" clip-path="url(#clip0_2556_10024)">
<path id="icon" d="M4.3125 4.625C4.19531 4.625 4.125 4.71875 4.125 4.8125V5.75H7.875V4.8125C7.875 4.71875 7.78125 4.625 7.6875 4.625H4.3125ZM3 4.8125C3 4.10938 3.58594 3.5 4.3125 3.5H7.6875C8.39062 3.5 9 4.10938 9 4.8125V5.75H10.5C11.3203 5.75 12 6.42969 12 7.25V9.5H7.5H4.5H0V7.25C0 6.42969 0.65625 5.75 1.5 5.75H3V4.8125ZM12 10.25V13.25C12 14.0938 11.3203 14.75 10.5 14.75H1.5C0.65625 14.75 0 14.0938 0 13.25V10.25H4.5V11C4.5 11.4219 4.82812 11.75 5.25 11.75H6.75C7.14844 11.75 7.5 11.4219 7.5 11V10.25H12Z" fill="black" fill-opacity="0.72"/>
</g>
<defs>
<clipPath id="clip0_2556_10024">
<rect width="12" height="18" fill="white"/>
</clipPath>
</defs>
</svg>
