<svg width="12" height="18" viewBox="0 0 12 18" fill="none" xmlns="http://www.w3.org/2000/svg">
<g id="label-paired / caption / table-layout-caption / bold" clip-path="url(#clip0_2556_10019)">
<path id="icon" d="M10.5 5.375H1.5C1.28906 5.375 1.125 5.5625 1.125 5.75V7.25H10.875V5.75C10.875 5.5625 10.6875 5.375 10.5 5.375ZM1.125 13.25C1.125 13.4609 1.28906 13.625 1.5 13.625H3.375V8.375H1.125V13.25ZM4.5 13.625H10.5C10.6875 13.625 10.875 13.4609 10.875 13.25V8.375H4.5V13.625ZM1.5 4.25H10.5C11.3203 4.25 12 4.92969 12 5.75V13.25C12 14.0938 11.3203 14.75 10.5 14.75H1.5C0.65625 14.75 0 14.0938 0 13.25V5.75C0 4.92969 0.65625 4.25 1.5 4.25Z" fill="black" fill-opacity="0.72"/>
</g>
<defs>
<clipPath id="clip0_2556_10019">
<rect width="12" height="18" fill="white"/>
</clipPath>
</defs>
</svg>
