<svg width="20" height="30" viewBox="0 0 20 30" fill="none" xmlns="http://www.w3.org/2000/svg">
<g id="label-paired / lg / circle-two-lg / fill" clip-path="url(#clip0_2556_17309)">
<path id="icon" d="M10 25.5C6.40625 25.5 3.125 23.625 1.32812 20.5C-0.46875 17.4141 -0.46875 13.625 1.32812 10.5C3.125 7.41406 6.40625 5.5 10 5.5C13.5547 5.5 16.8359 7.41406 18.6328 10.5C20.4297 13.625 20.4297 17.4141 18.6328 20.5C16.8359 23.625 13.5547 25.5 10 25.5ZM8.67188 12.7266C8.98438 12.5312 9.29688 12.4141 9.6875 12.4141H9.80469C10.5859 12.4141 11.25 13.0781 11.25 13.8594C11.25 14.25 11.0547 14.6406 10.7812 14.9141L6.52344 18.8984C6.25 19.1719 6.17188 19.5625 6.28906 19.9141C6.44531 20.2656 6.79688 20.5 7.1875 20.5H12.8125C13.3203 20.5 13.75 20.1094 13.75 19.5625C13.75 19.0547 13.3203 18.625 12.8125 18.625H9.53125L12.0703 16.2812C12.7344 15.6562 13.0859 14.7969 13.0859 13.8594C13.0859 12.0625 11.6406 10.5781 9.84375 10.5391H9.6875C8.90625 10.5391 8.16406 10.7734 7.53906 11.2422L6.60156 11.9453C6.17188 12.2578 6.09375 12.8828 6.40625 13.2734C6.71875 13.7031 7.34375 13.7812 7.73438 13.4688L8.67188 12.7266Z" fill="black" fill-opacity="0.72"/>
</g>
<defs>
<clipPath id="clip0_2556_17309">
<rect width="20" height="30" fill="white"/>
</clipPath>
</defs>
</svg>
