<svg width="14" height="18" viewBox="0 0 14 18" fill="none" xmlns="http://www.w3.org/2000/svg">
<g id="label-paired / caption / desktop-caption / bold" clip-path="url(#clip0_2981_650)">
<path id="icon" d="M12.25 4.625H1.75C1.53906 4.625 1.375 4.8125 1.375 5V9.5H12.625V5C12.625 4.8125 12.4375 4.625 12.25 4.625ZM13.75 9.5V10.625V11.75C13.75 12.5938 13.0703 13.25 12.25 13.25H8.78125L8.96875 14.375H10.1875C10.4922 14.375 10.75 14.6328 10.75 14.9375C10.75 15.2656 10.4922 15.5 10.1875 15.5H8.5H5.5H3.8125C3.48438 15.5 3.25 15.2656 3.25 14.9375C3.25 14.6328 3.48438 14.375 3.8125 14.375H5.00781L5.19531 13.25H1.75C0.90625 13.25 0.25 12.5938 0.25 11.75V10.625V9.5V5C0.25 4.17969 0.90625 3.5 1.75 3.5H12.25C13.0703 3.5 13.75 4.17969 13.75 5V9.5ZM1.375 10.625V11.75C1.375 11.9609 1.53906 12.125 1.75 12.125H5.85156H5.875H8.10156H8.125H12.25C12.4375 12.125 12.625 11.9609 12.625 11.75V10.625H1.375ZM6.15625 14.375H7.82031L7.63281 13.25H6.34375L6.15625 14.375Z" fill="black" fill-opacity="0.72"/>
</g>
<defs>
<clipPath id="clip0_2981_650">
<rect width="14" height="18" fill="white"/>
</clipPath>
</defs>
</svg>
