<svg width="16" height="24" viewBox="0 0 16 24" fill="none" xmlns="http://www.w3.org/2000/svg">
<g id="label-paired / md / gear-md / bold" clip-path="url(#clip0_2556_15301)">
<path id="icon" d="M8 4C8.53125 4 9.03125 4.0625 9.53125 4.15625C9.78125 4.21875 10.2188 4.34375 10.4688 4.78125C10.5312 4.90625 10.5625 5.03125 10.5938 5.15625L10.9062 6.375C10.9375 6.53125 11.25 6.71875 11.4375 6.65625L12.625 6.3125C12.75 6.28125 12.875 6.25 13 6.25C13.5 6.25 13.8438 6.5625 14 6.75C14.6875 7.53125 15.2188 8.4375 15.5625 9.4375C15.6562 9.6875 15.75 10.125 15.4688 10.5312C15.4062 10.6562 15.3125 10.75 15.2188 10.8438L14.3438 11.7188C14.1875 11.8438 14.1875 12.1875 14.3438 12.3125L15.2188 13.1875C15.3125 13.2812 15.4062 13.375 15.4688 13.5C15.7188 13.9062 15.625 14.3438 15.5625 14.5938C15.2188 15.5938 14.6875 16.5 14 17.2812C13.8438 17.4688 13.5 17.7812 13 17.7812C12.875 17.7812 12.75 17.75 12.625 17.7188L11.4375 17.3438C11.25 17.3125 10.9375 17.4688 10.9062 17.6562L10.5938 18.875C10.5625 19 10.5312 19.125 10.4688 19.25C10.2188 19.6875 9.78125 19.8125 9.53125 19.875C9.03125 19.9688 8.53125 20 8 20C7.46875 20 6.9375 19.9688 6.4375 19.875C6.1875 19.8125 5.75 19.6875 5.5 19.25C5.4375 19.125 5.40625 19 5.375 18.875L5.0625 17.6562C5.03125 17.4688 4.71875 17.3125 4.5625 17.3438L3.375 17.7188C3.25 17.75 3.09375 17.75 2.96875 17.7812C2.46875 17.7812 2.125 17.4688 1.96875 17.2812C1.28125 16.5 0.75 15.5938 0.40625 14.5938C0.34375 14.3438 0.25 13.9062 0.5 13.4688C0.5625 13.375 0.65625 13.25 0.75 13.1562L1.65625 12.3125C1.78125 12.1875 1.78125 11.8438 1.65625 11.7188L0.75 10.8438C0.65625 10.75 0.5625 10.6562 0.5 10.5312C0.25 10.125 0.34375 9.6875 0.40625 9.4375C0.75 8.4375 1.28125 7.53125 1.96875 6.75C2.125 6.5625 2.46875 6.25 2.96875 6.25C3.09375 6.25 3.25 6.28125 3.375 6.3125L4.5625 6.65625C4.71875 6.71875 5.03125 6.53125 5.0625 6.375L5.375 5.15625C5.40625 5.03125 5.4375 4.90625 5.5 4.78125C5.75 4.34375 6.1875 4.21875 6.4375 4.15625C6.9375 4.0625 7.46875 4 8 4ZM6.8125 5.625L6.53125 6.71875C6.28125 7.71875 5.125 8.40625 4.125 8.125L3.03125 7.78125C2.53125 8.40625 2.125 9.09375 1.84375 9.84375L2.6875 10.625C3.4375 11.3438 3.4375 12.6875 2.6875 13.4062L1.84375 14.1875C2.125 14.9375 2.53125 15.625 3.03125 16.25L4.125 15.9062C5.125 15.625 6.28125 16.3125 6.53125 17.3125L6.8125 18.4062C7.5625 18.5625 8.40625 18.5625 9.1875 18.4062L9.4375 17.3125C9.6875 16.3125 10.8438 15.625 11.8438 15.9062L12.9375 16.25C13.4375 15.625 13.8438 14.9375 14.125 14.1875L13.3125 13.4062C12.5625 12.6875 12.5625 11.3438 13.3125 10.625L14.125 9.84375C13.8438 9.09375 13.4375 8.40625 12.9375 7.78125L11.8438 8.125C10.875 8.40625 9.6875 7.71875 9.4375 6.71875L9.1875 5.625C8.40625 5.46875 7.5625 5.46875 6.8125 5.625ZM6.5 12C6.5 12.5625 6.78125 13.0312 7.25 13.3125C7.6875 13.5938 8.28125 13.5938 8.75 13.3125C9.1875 13.0312 9.5 12.5625 9.5 12C9.5 11.4688 9.1875 11 8.75 10.7188C8.28125 10.4375 7.6875 10.4375 7.25 10.7188C6.78125 11 6.5 11.4688 6.5 12ZM8 15C6.90625 15 5.9375 14.4375 5.375 13.5C4.84375 12.5938 4.84375 11.4375 5.375 10.5C5.9375 9.59375 6.90625 9 8 9C9.0625 9 10.0312 9.59375 10.5938 10.5C11.125 11.4375 11.125 12.5938 10.5938 13.5C10.0312 14.4375 9.0625 15 8 15Z" fill="black" fill-opacity="0.72"/>
</g>
<defs>
<clipPath id="clip0_2556_15301">
<rect width="16" height="24" fill="white"/>
</clipPath>
</defs>
</svg>
