<svg width="14" height="24" viewBox="0 0 14 24" fill="none" xmlns="http://www.w3.org/2000/svg">
<g id="label-paired / md / floppy-disk-md / regular" clip-path="url(#clip0_2556_14733)">
<path id="icon" d="M1 7V17C1 17.5625 1.4375 18 2 18H12C12.5312 18 13 17.5625 13 17V9.34375C13 9.0625 12.875 8.8125 12.6875 8.625L10.375 6.3125C10.25 6.1875 10.125 6.125 10 6.0625V9C10 9.5625 9.53125 10 9 10H3C2.4375 10 2 9.5625 2 9V6C1.4375 6 1 6.46875 1 7ZM3 6V9H9V6H3ZM0 7C0 5.90625 0.875 5 2 5H9.65625C10.1875 5 10.6875 5.21875 11.0625 5.59375L13.4062 7.9375C13.7812 8.3125 14 8.8125 14 9.34375V17C14 18.125 13.0938 19 12 19H2C0.875 19 0 18.125 0 17V7ZM8.5 14C8.5 13.4688 8.1875 13 7.75 12.7188C7.28125 12.4375 6.6875 12.4375 6.25 12.7188C5.78125 13 5.5 13.4688 5.5 14C5.5 14.5625 5.78125 15.0312 6.25 15.3125C6.6875 15.5938 7.28125 15.5938 7.75 15.3125C8.1875 15.0312 8.5 14.5625 8.5 14ZM7 11.5C7.875 11.5 8.6875 12 9.15625 12.75C9.59375 13.5312 9.59375 14.5 9.15625 15.25C8.6875 16.0312 7.875 16.5 7 16.5C6.09375 16.5 5.28125 16.0312 4.8125 15.25C4.375 14.5 4.375 13.5312 4.8125 12.75C5.28125 12 6.09375 11.5 7 11.5Z" fill="black" fill-opacity="0.72"/>
</g>
<defs>
<clipPath id="clip0_2556_14733">
<rect width="14" height="24" fill="white"/>
</clipPath>
</defs>
</svg>
