<svg width="24" height="36" viewBox="0 0 24 36" fill="none" xmlns="http://www.w3.org/2000/svg">
<g id="label-paired / xl / circle-user-xl / fill" clip-path="url(#clip0_2556_19827)">
<path id="icon" d="M18.7031 24.0469C17.625 22.2188 15.7031 21 13.5 21H10.5C8.25 21 6.32812 22.2188 5.29688 24.0469C6.9375 25.875 9.32812 27 12 27C14.625 27 17.0156 25.875 18.7031 24.0469ZM0 18C0 13.7344 2.25 9.79688 6 7.64062C9.70312 5.48438 14.25 5.48438 18 7.64062C21.7031 9.79688 24 13.7344 24 18C24 22.3125 21.7031 26.25 18 28.4062C14.25 30.5625 9.70312 30.5625 6 28.4062C2.25 26.25 0 22.3125 0 18ZM12 18.75C13.1719 18.75 14.2969 18.1406 14.9062 17.0625C15.5156 16.0312 15.5156 14.7656 14.9062 13.6875C14.2969 12.6562 13.1719 12 12 12C10.7812 12 9.65625 12.6562 9.04688 13.6875C8.4375 14.7656 8.4375 16.0312 9.04688 17.0625C9.65625 18.1406 10.7812 18.75 12 18.75Z" fill="black" fill-opacity="0.72"/>
</g>
<defs>
<clipPath id="clip0_2556_19827">
<rect width="24" height="36" fill="white"/>
</clipPath>
</defs>
</svg>
