<svg width="14" height="24" viewBox="0 0 14 24" fill="none" xmlns="http://www.w3.org/2000/svg">
<g id="label-paired / md / copy-md / bold" clip-path="url(#clip0_2556_14741)">
<path id="icon" d="M12 14.5C12.25 14.5 12.5 14.2812 12.5 14V7.625L10.375 5.5H6C5.71875 5.5 5.5 5.75 5.5 6V14C5.5 14.2812 5.71875 14.5 6 14.5H12ZM6 16C4.875 16 4 15.125 4 14V6C4 4.90625 4.875 4 6 4H10.375C10.75 4 11.1562 4.1875 11.4375 4.46875L13.5312 6.5625C13.8125 6.84375 14 7.25 14 7.625V14C14 15.125 13.0938 16 12 16H6ZM2 8H3V9.5H2C1.71875 9.5 1.5 9.75 1.5 10V18C1.5 18.2812 1.71875 18.5 2 18.5H8C8.25 18.5 8.5 18.2812 8.5 18V17H10V18C10 19.125 9.09375 20 8 20H2C0.875 20 0 19.125 0 18V10C0 8.90625 0.875 8 2 8Z" fill="black" fill-opacity="0.72"/>
</g>
<defs>
<clipPath id="clip0_2556_14741">
<rect width="14" height="24" fill="white"/>
</clipPath>
</defs>
</svg>
