<svg width="20" height="24" viewBox="0 0 20 24" fill="none" xmlns="http://www.w3.org/2000/svg">
<g id="label-paired / md / laptop-mobile-md / bold" clip-path="url(#clip0_2556_15314)">
<path id="icon" d="M4 5.5C3.71875 5.5 3.5 5.75 3.5 6V14H11V16H1.5C0.65625 16 0 15.3438 0 14.5C0 14.25 0.21875 14 0.5 14H2V6C2 4.90625 2.875 4 4 4H14C15.0938 4 16 4.90625 16 6V7H14.5V6C14.5 5.75 14.25 5.5 14 5.5H4ZM12 9.5C12 8.6875 12.6562 8 13.5 8H18.5C19.3125 8 20 8.6875 20 9.5V18.5C20 19.3438 19.3125 20 18.5 20H13.5C12.6562 20 12 19.3438 12 18.5V9.5ZM13.5 9.5V18.5H18.5V9.5H13.5Z" fill="black" fill-opacity="0.72"/>
</g>
<defs>
<clipPath id="clip0_2556_15314">
<rect width="20" height="24" fill="white"/>
</clipPath>
</defs>
</svg>
