<svg width="20" height="30" viewBox="0 0 20 30" fill="none" xmlns="http://www.w3.org/2000/svg">
<g id="label-paired / lg / arrow-rotate-left-lg / bold" clip-path="url(#clip0_3431_991)">
<path id="icon" d="M1.5625 14.25C1.01562 14.25 0.625 13.8594 0.625 13.3125V7.6875C0.625 7.17969 1.01562 6.75 1.5625 6.75C2.07031 6.75 2.5 7.17969 2.5 7.6875V10.8516L3.28125 9.91406C4.88281 8 7.26562 6.75 10 6.75C14.8047 6.75 18.75 10.6953 18.75 15.5C18.75 20.3438 14.8047 24.25 10 24.25C8.00781 24.25 6.21094 23.625 4.72656 22.5312C4.33594 22.2188 4.21875 21.6328 4.53125 21.2031C4.84375 20.7734 5.42969 20.6953 5.85938 21.0078C6.99219 21.8672 8.4375 22.375 10 22.375C13.7891 22.375 16.875 19.3281 16.875 15.5C16.875 11.7109 13.7891 8.625 10 8.625C7.85156 8.625 5.97656 9.60156 4.6875 11.125L3.63281 12.375H7.1875C7.69531 12.375 8.125 12.8047 8.125 13.3125C8.125 13.8594 7.69531 14.25 7.1875 14.25H1.5625Z" fill="black" fill-opacity="0.72"/>
</g>
<defs>
<clipPath id="clip0_3431_991">
<rect width="20" height="30" fill="white"/>
</clipPath>
</defs>
</svg>
