<svg width="16" height="24" viewBox="0 0 16 24" fill="none" xmlns="http://www.w3.org/2000/svg">
<g id="label-paired / md / table-layout-md / bold" clip-path="url(#clip0_2556_14975)">
<path id="icon" d="M14 6.5H2C1.71875 6.5 1.5 6.75 1.5 7V9H14.5V7C14.5 6.75 14.25 6.5 14 6.5ZM1.5 17C1.5 17.2812 1.71875 17.5 2 17.5H4.5V10.5H1.5V17ZM6 17.5H14C14.25 17.5 14.5 17.2812 14.5 17V10.5H6V17.5ZM2 5H14C15.0938 5 16 5.90625 16 7V17C16 18.125 15.0938 19 14 19H2C0.875 19 0 18.125 0 17V7C0 5.90625 0.875 5 2 5Z" fill="black" fill-opacity="0.72"/>
</g>
<defs>
<clipPath id="clip0_2556_14975">
<rect width="16" height="24" fill="white"/>
</clipPath>
</defs>
</svg>
