<svg width="24" height="36" viewBox="0 0 24 36" fill="none" xmlns="http://www.w3.org/2000/svg">
<g id="label-paired / xl / image-xl / regular" clip-path="url(#clip0_2556_19259)">
<path id="icon" d="M3 9C2.15625 9 1.5 9.70312 1.5 10.5V21.4688L4.64062 18.2812C5.39062 17.5781 6.5625 17.5781 7.3125 18.2812L10.5 21.4688L16.6406 15.2812C17.3906 14.5781 18.5625 14.5781 19.3125 15.2812L22.5 18.4688V10.5C22.5 9.70312 21.7969 9 21 9H3ZM1.5 23.5781V25.5C1.5 26.3438 2.15625 27 3 27H4.92188L9.42188 22.5L6.23438 19.3594C6.09375 19.2188 5.85938 19.2188 5.71875 19.3594L1.5 23.5781ZM18.2344 16.3594C18.0938 16.2188 17.8594 16.2188 17.7188 16.3594L7.03125 27H21C21.7969 27 22.5 26.3438 22.5 25.5V20.5781L18.2344 16.3594ZM0 10.5C0 8.85938 1.3125 7.5 3 7.5H21C22.6406 7.5 24 8.85938 24 10.5V25.5C24 27.1875 22.6406 28.5 21 28.5H3C1.3125 28.5 0 27.1875 0 25.5V10.5ZM7.5 12.75C7.5 12.375 7.125 12 6.75 12C6.32812 12 6 12.375 6 12.75C6 13.1719 6.32812 13.5 6.75 13.5C7.125 13.5 7.5 13.1719 7.5 12.75ZM4.5 12.75C4.5 11.9531 4.92188 11.25 5.625 10.8281C6.28125 10.4062 7.17188 10.4062 7.875 10.8281C8.53125 11.25 9 11.9531 9 12.75C9 13.5938 8.53125 14.2969 7.875 14.7188C7.17188 15.1406 6.28125 15.1406 5.625 14.7188C4.92188 14.2969 4.5 13.5938 4.5 12.75Z" fill="black" fill-opacity="0.72"/>
</g>
<defs>
<clipPath id="clip0_2556_19259">
<rect width="24" height="36" fill="white"/>
</clipPath>
</defs>
</svg>
