<svg width="14" height="18" viewBox="0 0 14 18" fill="none" xmlns="http://www.w3.org/2000/svg">
<g id="label-paired / caption / arrow-down-a-z-caption / regular" clip-path="url(#clip0_2556_10197)">
<path id="icon" d="M6.50781 12.4062L4.25781 14.6562C4.11719 14.7969 3.85938 14.7969 3.71875 14.6562L1.46875 12.4062C1.32812 12.2656 1.32812 12.0078 1.46875 11.8672C1.60938 11.7266 1.86719 11.7266 2.00781 11.8672L3.625 13.4844V4.625C3.625 4.4375 3.78906 4.25 4 4.25C4.1875 4.25 4.375 4.4375 4.375 4.625V13.4844L5.96875 11.8672C6.10938 11.7266 6.36719 11.7266 6.50781 11.8672C6.64844 12.0078 6.64844 12.2656 6.50781 12.4062ZM10.3281 4.46094L11.8281 7.46094C11.8281 7.46094 11.8281 7.46094 11.8281 7.48438L12.2031 8.21094C12.2969 8.39844 12.2266 8.63281 12.0391 8.72656C11.8516 8.82031 11.6172 8.72656 11.5234 8.5625L11.2656 8H8.71094L8.45312 8.5625C8.35938 8.75 8.125 8.82031 7.9375 8.72656C7.75 8.63281 7.67969 8.39844 7.77344 8.21094L8.14844 7.48438C8.14844 7.46094 8.14844 7.46094 8.14844 7.46094L9.64844 4.46094C9.71875 4.34375 9.83594 4.25 10 4.25C10.1406 4.25 10.2578 4.34375 10.3281 4.46094ZM10 5.46875L9.08594 7.25H10.8906L10 5.46875ZM8.5 10.25H11.5C11.6406 10.25 11.7578 10.3438 11.8281 10.4844C11.8984 10.6016 11.875 10.7656 11.7812 10.8594L9.27344 14H11.5C11.6875 14 11.875 14.1875 11.875 14.375C11.875 14.5859 11.6875 14.75 11.5 14.75H8.5C8.33594 14.75 8.21875 14.6797 8.14844 14.5391C8.10156 14.4219 8.10156 14.2578 8.19531 14.1406L10.7031 11H8.5C8.28906 11 8.125 10.8359 8.125 10.625C8.125 10.4375 8.28906 10.25 8.5 10.25Z" fill="black" fill-opacity="0.72"/>
</g>
<defs>
<clipPath id="clip0_2556_10197">
<rect width="14" height="18" fill="white"/>
</clipPath>
</defs>
</svg>
