<svg width="12" height="18" viewBox="0 0 12 18" fill="none" xmlns="http://www.w3.org/2000/svg">
<g id="label-paired / caption / chevrons-right-caption / fill" clip-path="url(#clip0_2556_10313)">
<path id="icon" d="M11.0156 10.0391L6.51562 14.5391C6.23438 14.8438 5.74219 14.8438 5.46094 14.5391C5.15625 14.2578 5.15625 13.7656 5.46094 13.4844L9.42188 9.5L5.46094 5.53906C5.15625 5.25781 5.15625 4.76562 5.46094 4.48438C5.74219 4.17969 6.23438 4.17969 6.51562 4.48438L11.0156 8.98438C11.3203 9.26562 11.3203 9.75781 11.0156 10.0391ZM2.01562 14.5391C1.73438 14.8438 1.24219 14.8438 0.960938 14.5391C0.65625 14.2578 0.65625 13.7656 0.960938 13.4844L4.92188 9.5L0.960938 5.53906C0.65625 5.25781 0.65625 4.76562 0.960938 4.48438C1.24219 4.17969 1.73438 4.17969 2.01562 4.48438L6.51562 8.98438C6.82031 9.26562 6.82031 9.75781 6.51562 10.0391L2.01562 14.5391Z" fill="black" fill-opacity="0.72"/>
</g>
<defs>
<clipPath id="clip0_2556_10313">
<rect width="12" height="18" fill="white"/>
</clipPath>
</defs>
</svg>
