<svg width="30" height="36" viewBox="0 0 30 36" fill="none" xmlns="http://www.w3.org/2000/svg">
<g id="label-paired / xl / user-plus-xl / fill" clip-path="url(#clip0_3327_797)">
<path id="icon" d="M4.5 12C4.5 9.89062 5.625 7.92188 7.5 6.84375C9.32812 5.76562 11.625 5.76562 13.5 6.84375C15.3281 7.92188 16.5 9.89062 16.5 12C16.5 14.1562 15.3281 16.125 13.5 17.2031C11.625 18.2812 9.32812 18.2812 7.5 17.2031C5.625 16.125 4.5 14.1562 4.5 12ZM0 28.6406C0 24 3.70312 20.25 8.34375 20.25H12.6094C17.25 20.25 21 24 21 28.6406C21 29.3906 20.3438 30 19.5938 30H1.35938C0.609375 30 0 29.3906 0 28.6406ZM23.625 20.625V17.625H20.625C19.9688 17.625 19.5 17.1562 19.5 16.5C19.5 15.8906 19.9688 15.375 20.625 15.375H23.625V12.375C23.625 11.7656 24.0938 11.25 24.75 11.25C25.3594 11.25 25.875 11.7656 25.875 12.375V15.375H28.875C29.4844 15.375 30 15.8906 30 16.5C30 17.1562 29.4844 17.625 28.875 17.625H25.875V20.625C25.875 21.2812 25.3594 21.75 24.75 21.75C24.0938 21.75 23.625 21.2812 23.625 20.625Z" fill="black" fill-opacity="0.72"/>
</g>
<defs>
<clipPath id="clip0_3327_797">
<rect width="30" height="36" fill="white"/>
</clipPath>
</defs>
</svg>
