<svg width="16" height="24" viewBox="0 0 16 24" fill="none" xmlns="http://www.w3.org/2000/svg">
<g id="label-paired / md / image-md / regular" clip-path="url(#clip0_2556_14575)">
<path id="icon" d="M2 6C1.4375 6 1 6.46875 1 7V14.3125L3.09375 12.1875C3.59375 11.7188 4.375 11.7188 4.875 12.1875L7 14.3125L11.0938 10.1875C11.5938 9.71875 12.375 9.71875 12.875 10.1875L15 12.3125V7C15 6.46875 14.5312 6 14 6H2ZM1 15.7188V17C1 17.5625 1.4375 18 2 18H3.28125L6.28125 15L4.15625 12.9062C4.0625 12.8125 3.90625 12.8125 3.8125 12.9062L1 15.7188ZM12.1562 10.9062C12.0625 10.8125 11.9062 10.8125 11.8125 10.9062L4.6875 18H14C14.5312 18 15 17.5625 15 17V13.7188L12.1562 10.9062ZM0 7C0 5.90625 0.875 5 2 5H14C15.0938 5 16 5.90625 16 7V17C16 18.125 15.0938 19 14 19H2C0.875 19 0 18.125 0 17V7ZM5 8.5C5 8.25 4.75 8 4.5 8C4.21875 8 4 8.25 4 8.5C4 8.78125 4.21875 9 4.5 9C4.75 9 5 8.78125 5 8.5ZM3 8.5C3 7.96875 3.28125 7.5 3.75 7.21875C4.1875 6.9375 4.78125 6.9375 5.25 7.21875C5.6875 7.5 6 7.96875 6 8.5C6 9.0625 5.6875 9.53125 5.25 9.8125C4.78125 10.0938 4.1875 10.0938 3.75 9.8125C3.28125 9.53125 3 9.0625 3 8.5Z" fill="black" fill-opacity="0.72"/>
</g>
<defs>
<clipPath id="clip0_2556_14575">
<rect width="16" height="24" fill="white"/>
</clipPath>
</defs>
</svg>
