<svg width="20" height="24" viewBox="0 0 20 24" fill="none" xmlns="http://www.w3.org/2000/svg">
<g id="label-paired / md / computer-md / fill" clip-path="url(#clip0_2556_15292)">
<path id="icon" d="M12 7H2V14H12V7ZM2 5H12C13.0938 5 14 5.90625 14 7V14C14 15.125 13.0938 16 12 16H8.3125L8.65625 17H11C11.5312 17 12 17.4688 12 18C12 18.5625 11.5312 19 11 19H3C2.4375 19 2 18.5625 2 18C2 17.4688 2.4375 17 3 17H5.3125L5.65625 16H2C0.875 16 0 15.125 0 14V7C0 5.90625 0.875 5 2 5ZM16.5 5H18.5C19.3125 5 20 5.6875 20 6.5V17.5C20 18.3438 19.3125 19 18.5 19H16.5C15.6562 19 15 18.3438 15 17.5V6.5C15 5.6875 15.6562 5 16.5 5ZM17 7C16.7188 7 16.5 7.25 16.5 7.5C16.5 7.78125 16.7188 8 17 8H18C18.25 8 18.5 7.78125 18.5 7.5C18.5 7.25 18.25 7 18 7H17ZM16.5 9.5C16.5 9.78125 16.7188 10 17 10H18C18.25 10 18.5 9.78125 18.5 9.5C18.5 9.25 18.25 9 18 9H17C16.7188 9 16.5 9.25 16.5 9.5ZM17.5 14.5C16.9375 14.5 16.5 14.9688 16.5 15.5C16.5 16.0625 16.9375 16.5 17.5 16.5C18.0312 16.5 18.5 16.0625 18.5 15.5C18.5 14.9688 18.0312 14.5 17.5 14.5Z" fill="black" fill-opacity="0.72"/>
</g>
<defs>
<clipPath id="clip0_2556_15292">
<rect width="20" height="24" fill="white"/>
</clipPath>
</defs>
</svg>
