<svg width="24" height="36" viewBox="0 0 24 36" fill="none" xmlns="http://www.w3.org/2000/svg">
<g id="label-paired / xl / circle-dot-xl / regular" clip-path="url(#clip0_2556_19706)">
<path id="icon" d="M22.5 18C22.5 14.25 20.4844 10.8281 17.25 8.95312C13.9688 7.03125 9.98438 7.03125 6.75 8.95312C3.46875 10.8281 1.5 14.25 1.5 18C1.5 21.7969 3.46875 25.2188 6.75 27.0938C9.98438 29.0156 13.9688 29.0156 17.25 27.0938C20.4844 25.2188 22.5 21.7969 22.5 18ZM0 18C0 13.7344 2.25 9.79688 6 7.64062C9.70312 5.48438 14.25 5.48438 18 7.64062C21.7031 9.79688 24 13.7344 24 18C24 22.3125 21.7031 26.25 18 28.4062C14.25 30.5625 9.70312 30.5625 6 28.4062C2.25 26.25 0 22.3125 0 18ZM15 18C15 16.9688 14.3906 15.9844 13.5 15.4219C12.5625 14.9062 11.3906 14.9062 10.5 15.4219C9.5625 15.9844 9 16.9688 9 18C9 19.0781 9.5625 20.0625 10.5 20.625C11.3906 21.1406 12.5625 21.1406 13.5 20.625C14.3906 20.0625 15 19.0781 15 18ZM7.5 18C7.5 16.4062 8.34375 14.9531 9.75 14.1094C11.1094 13.3125 12.8438 13.3125 14.25 14.1094C15.6094 14.9531 16.5 16.4062 16.5 18C16.5 19.6406 15.6094 21.0938 14.25 21.9375C12.8438 22.7344 11.1094 22.7344 9.75 21.9375C8.34375 21.0938 7.5 19.6406 7.5 18Z" fill="black" fill-opacity="0.72"/>
</g>
<defs>
<clipPath id="clip0_2556_19706">
<rect width="24" height="36" fill="white"/>
</clipPath>
</defs>
</svg>
