<svg width="18" height="24" viewBox="0 0 18 24" fill="none" xmlns="http://www.w3.org/2000/svg">
<g id="label-paired / md / arrow-up-one-nine-md / regular" clip-path="url(#clip0_2556_15110)">
<path id="icon" d="M14 5.5V10H15C15.25 10 15.5 10.25 15.5 10.5C15.5 10.7812 15.25 11 15 11H13.5H12C11.7188 11 11.5 10.7812 11.5 10.5C11.5 10.25 11.7188 10 12 10H13V6.21875L12.1562 6.5C11.875 6.5625 11.5938 6.4375 11.5 6.15625C11.4375 5.90625 11.5625 5.625 11.8438 5.53125L13.3438 5.03125C13.4688 5 13.6562 5 13.7812 5.09375C13.9062 5.1875 14 5.34375 14 5.5ZM5.34375 5.15625L8.34375 8.15625C8.53125 8.34375 8.53125 8.6875 8.34375 8.875C8.15625 9.0625 7.8125 9.0625 7.625 8.875L5.5 6.71875V18.5C5.5 18.7812 5.25 19 5 19C4.71875 19 4.5 18.7812 4.5 18.5V6.71875L2.34375 8.875C2.15625 9.0625 1.8125 9.0625 1.625 8.875C1.4375 8.6875 1.4375 8.34375 1.625 8.15625L4.625 5.15625C4.8125 4.96875 5.15625 4.96875 5.34375 5.15625ZM13.375 16.25C13.9375 16.25 14.4688 15.9688 14.7812 15.4375C15.0625 14.9375 15.0625 14.3438 14.7812 13.8125C14.4688 13.3125 13.9375 13 13.375 13C12.7812 13 12.25 13.3125 11.9375 13.8125C11.6562 14.3438 11.6562 14.9375 11.9375 15.4375C12.25 15.9688 12.7812 16.25 13.375 16.25ZM10.75 14.625C10.75 13.1875 11.9062 12 13.375 12C14.8125 12 16 13.1875 16 14.625C16 14.6875 16 14.7188 15.9688 14.75H16C16 15.4375 15.75 16.0625 15.3125 16.5625L13.375 18.8438C13.1875 19.0625 12.875 19.0625 12.6562 18.9062C12.4375 18.7188 12.4375 18.4062 12.5938 18.1875L13.4062 17.25C13.375 17.25 13.375 17.25 13.375 17.25C11.9062 17.25 10.75 16.0938 10.75 14.625Z" fill="black" fill-opacity="0.72"/>
</g>
<defs>
<clipPath id="clip0_2556_15110">
<rect width="18" height="24" fill="white"/>
</clipPath>
</defs>
</svg>
