<svg width="14" height="22" viewBox="0 0 14 22" fill="none" xmlns="http://www.w3.org/2000/svg">
<g id="label-paired / sm / thumbs-up-sm / regular" clip-path="url(#clip0_2355_590)">
<path id="icon" d="M7.90234 5.99219L7.76562 6.42969C7.45573 7.5599 6.79948 8.45312 5.79688 9.10938L5.71484 9.16406C5.49609 9.29167 5.3138 9.46484 5.16797 9.68359C4.98568 9.88411 4.78516 9.92057 4.56641 9.79297C4.34766 9.62891 4.3112 9.42839 4.45703 9.19141C4.65755 8.88151 4.92188 8.6263 5.25 8.42578L5.33203 8.37109C6.13411 7.84245 6.66276 7.1224 6.91797 6.21094L7.05469 5.74609C7.18229 5.32682 7.41927 5.01693 7.76562 4.81641C8.13021 4.61589 8.52214 4.57031 8.94141 4.67969C9.34245 4.80729 9.65234 5.04427 9.87109 5.39062C10.0716 5.75521 10.1172 6.14714 10.0078 6.56641L9.89844 7.00391C9.78906 7.38672 9.64323 7.76042 9.46094 8.125H12.25C12.7422 8.14323 13.1523 8.31641 13.4805 8.64453C13.8086 8.97266 13.9818 9.38281 14 9.875C13.9818 10.3672 13.8086 10.7773 13.4805 11.1055C13.5352 11.2695 13.5625 11.4427 13.5625 11.625C13.5443 12.1536 13.3529 12.582 12.9883 12.9102C13.0794 13.1289 13.125 13.3568 13.125 13.5938C13.0885 14.2682 12.7969 14.7695 12.25 15.0977V15.125C12.2318 15.6172 12.0586 16.0273 11.7305 16.3555C11.4023 16.6836 10.9922 16.8568 10.5 16.875H8.03906C7.4375 16.875 6.8724 16.7018 6.34375 16.3555L5.30469 15.6719C4.95833 15.4349 4.66667 15.1432 4.42969 14.7969C4.32031 14.5599 4.36589 14.3594 4.56641 14.1953C4.80339 14.0677 5.00391 14.1042 5.16797 14.3047C5.33203 14.5599 5.54167 14.7695 5.79688 14.9336L6.83594 15.6445C7.20052 15.8815 7.61068 16 8.06641 16H10.5C10.7552 16 10.9648 15.918 11.1289 15.7539C11.293 15.5898 11.375 15.3802 11.375 15.125C11.375 15.0521 11.3659 14.9883 11.3477 14.9336C11.3294 14.6966 11.4297 14.5326 11.6484 14.4414C12.0312 14.2956 12.2318 14.013 12.25 13.5938C12.25 13.3932 12.1862 13.2201 12.0586 13.0742C11.9857 12.9648 11.9583 12.8372 11.9766 12.6914C12.013 12.5638 12.0951 12.4727 12.2227 12.418C12.5143 12.2539 12.6693 11.9896 12.6875 11.625C12.6875 11.4609 12.651 11.3151 12.5781 11.1875C12.4688 10.9688 12.5143 10.7773 12.7148 10.6133C12.9701 10.4492 13.1068 10.2031 13.125 9.875C13.125 9.61979 13.043 9.41016 12.8789 9.24609C12.7148 9.08203 12.5052 9 12.25 9H8.72266C8.55859 9 8.43099 8.92708 8.33984 8.78125C8.26693 8.63542 8.27604 8.48958 8.36719 8.34375C8.65885 7.85156 8.88672 7.33203 9.05078 6.78516L9.16016 6.32031C9.23307 5.9375 9.07812 5.67318 8.69531 5.52734C8.3125 5.45443 8.04818 5.60938 7.90234 5.99219ZM0.875 9.875V16H2.625V9.875H0.875ZM0 9.875C0 9.61979 0.0820312 9.41016 0.246094 9.24609C0.410156 9.08203 0.619792 9 0.875 9H2.625C2.88021 9 3.08984 9.08203 3.25391 9.24609C3.41797 9.41016 3.5 9.61979 3.5 9.875V16C3.5 16.2552 3.41797 16.4648 3.25391 16.6289C3.08984 16.793 2.88021 16.875 2.625 16.875H0.875C0.619792 16.875 0.410156 16.793 0.246094 16.6289C0.0820312 16.4648 0 16.2552 0 16V9.875Z" fill="black" fill-opacity="0.72"/>
</g>
<defs>
<clipPath id="clip0_2355_590">
<rect width="14" height="22" fill="white"/>
</clipPath>
</defs>
</svg>
