<svg width="18" height="30" viewBox="0 0 18 30" fill="none" xmlns="http://www.w3.org/2000/svg">
<g id="label-paired / lg / expand-lg / regular" clip-path="url(#clip0_2556_17410)">
<path id="icon" d="M5.875 6.75C6.1875 6.75 6.5 7.0625 6.5 7.375C6.5 7.72656 6.1875 8 5.875 8H1.5V12.375C1.5 12.7266 1.1875 13 0.875 13C0.523438 13 0.25 12.7266 0.25 12.375V7.375C0.25 7.0625 0.523438 6.75 0.875 6.75H5.875ZM0.25 18.625C0.25 18.3125 0.523438 18 0.875 18C1.1875 18 1.5 18.3125 1.5 18.625V23H5.875C6.1875 23 6.5 23.3125 6.5 23.625C6.5 23.9766 6.1875 24.25 5.875 24.25H0.875C0.523438 24.25 0.25 23.9766 0.25 23.625V18.625ZM17.125 6.75C17.4375 6.75 17.75 7.0625 17.75 7.375V12.375C17.75 12.7266 17.4375 13 17.125 13C16.7734 13 16.5 12.7266 16.5 12.375V8H12.125C11.7734 8 11.5 7.72656 11.5 7.375C11.5 7.0625 11.7734 6.75 12.125 6.75H17.125ZM16.5 18.625C16.5 18.3125 16.7734 18 17.125 18C17.4375 18 17.75 18.3125 17.75 18.625V23.625C17.75 23.9766 17.4375 24.25 17.125 24.25H12.125C11.7734 24.25 11.5 23.9766 11.5 23.625C11.5 23.3125 11.7734 23 12.125 23H16.5V18.625Z" fill="black" fill-opacity="0.72"/>
</g>
<defs>
<clipPath id="clip0_2556_17410">
<rect width="18" height="30" fill="white"/>
</clipPath>
</defs>
</svg>
