<svg width="25" height="30" viewBox="0 0 25 30" fill="none" xmlns="http://www.w3.org/2000/svg">
<g id="label-paired / lg / handshake-lg / regular" clip-path="url(#clip0_4513_692)">
<path id="icon" d="M10.2734 8H10.625L9.25781 9.40625C8.59375 9.5625 8.00781 9.875 7.46094 10.3047L5.89844 11.6328C5.82031 11.7109 5.70312 11.75 5.625 11.75V10.2266L6.67969 9.32812C7.69531 8.46875 8.98438 8 10.2734 8ZM4.375 19.2891V19.875C4.375 20.9297 3.51562 21.75 2.5 21.75H1.875C0.820312 21.75 0 20.9297 0 19.875V11.75C0 11.0859 0.546875 10.5 1.25 10.5H3.125H4.375V11.75V18.0391C5 18.0781 5.625 18.3516 6.05469 18.8203L7.26562 19.9922V19.9531L8.82812 21.5156C9.33594 22.0234 10.1562 22.0625 10.7031 21.5547C10.8203 21.4766 10.9375 21.3203 11.0156 21.2031C11.0938 21.0078 11.2891 20.8906 11.4844 20.8516C11.6797 20.8125 11.875 20.8906 11.9922 21.0469L12.3047 21.3594C12.8125 21.8672 13.6719 21.8281 14.1406 21.2812C14.375 21.0469 14.4922 20.7344 14.4531 20.4219C14.4531 20.1875 14.5703 19.9531 14.7656 19.8359C15 19.7188 15.2344 19.7188 15.4297 19.8359C15.8984 20.1484 16.5234 20.1094 16.9531 19.7188C17.4609 19.25 17.5 18.4297 16.9922 17.9219L13.5938 14.5234L11.875 16.125C10.8984 17.0625 9.375 17.0625 8.35938 16.1641C7.22656 15.1484 7.1875 13.3516 8.28125 12.2969L11.4062 9.36719C12.3438 8.50781 13.5547 8 14.8438 8C16.0156 8 17.1484 8.42969 18.0469 9.21094L19.3359 10.2656V11.75C19.2188 11.75 19.1016 11.7109 19.0234 11.6328L17.2656 10.1484C16.6016 9.5625 15.7422 9.25 14.8438 9.25C13.8672 9.25 12.9688 9.64062 12.2656 10.3047L9.14062 13.2344C8.59375 13.7812 8.59375 14.7188 9.17969 15.2266C9.72656 15.6953 10.5078 15.6953 11.0156 15.2266L13.9844 12.4922C14.2578 12.2578 14.6484 12.2578 14.8828 12.5312C15.1172 12.7656 15.1172 13.1562 14.8438 13.3906L14.5312 13.7031L17.8906 17.0234C18.1641 17.2969 18.3594 17.6484 18.4766 17.9609H20.625V11.7891V10.5391H21.875H23.75C24.4141 10.5391 25 11.0859 25 11.7891V19.9141C25 20.9297 24.1406 21.7891 23.125 21.7891H22.5C21.4453 21.7891 20.625 20.9297 20.625 19.9141V19.2109H18.5547C18.4766 19.7578 18.2031 20.2656 17.7734 20.6562C17.1484 21.2031 16.3281 21.3984 15.5859 21.2422C15.4688 21.5547 15.3125 21.8672 15.0781 22.1406C14.1797 23.1562 12.6562 23.2344 11.6406 22.4141C11.6016 22.4531 11.5625 22.4922 11.5234 22.4922C10.5078 23.4297 8.94531 23.3906 7.96875 22.4141L6.99219 21.4375L5.19531 19.7188C4.96094 19.4844 4.6875 19.3281 4.375 19.2891ZM3.125 11.75H1.25V19.875C1.25 20.2266 1.52344 20.5 1.875 20.5H2.5C2.8125 20.5 3.125 20.2266 3.125 19.875V11.75ZM23.75 11.75H21.875V19.875C21.875 20.2266 22.1484 20.5 22.5 20.5H23.125C23.4375 20.5 23.75 20.2266 23.75 19.875V11.75Z" fill="black" fill-opacity="0.72"/>
</g>
<defs>
<clipPath id="clip0_4513_692">
<rect width="25" height="30" fill="white"/>
</clipPath>
</defs>
</svg>
