<svg width="10" height="24" viewBox="0 0 10 24" fill="none" xmlns="http://www.w3.org/2000/svg">
<g id="label-paired / md / dollar-sign-md / regular" clip-path="url(#clip0_2556_14628)">
<path id="icon" d="M5.5 4.5V6.03125C6.46875 6.125 7.4375 6.3125 8.09375 6.5C8.375 6.5625 8.53125 6.8125 8.46875 7.09375C8.40625 7.375 8.15625 7.53125 7.875 7.46875C6.84375 7.21875 5.3125 6.90625 4 7.03125C3.34375 7.09375 2.75 7.25 2.34375 7.5C1.9375 7.78125 1.65625 8.15625 1.53125 8.78125C1.4375 9.21875 1.5 9.5625 1.625 9.8125C1.75 10.0938 1.96875 10.3125 2.3125 10.5312C3 10.9688 4 11.2188 5.125 11.5312H5.15625C6.21875 11.8125 7.375 12.125 8.21875 12.6562C8.65625 12.9375 9.03125 13.2812 9.25 13.75C9.5 14.25 9.5625 14.8125 9.4375 15.4375C9.21875 16.5 8.46875 17.2188 7.46875 17.625C6.90625 17.8438 6.21875 17.9688 5.5 18V19.5C5.5 19.7812 5.28125 20 5 20C4.71875 20 4.5 19.7812 4.5 19.5V17.9688C4.3125 17.9375 4.09375 17.9375 3.90625 17.9062C3.09375 17.7812 1.84375 17.5 0.78125 17.0312C0.53125 16.9375 0.4375 16.625 0.53125 16.375C0.65625 16.125 0.9375 16 1.1875 16.125C2.125 16.5312 3.28125 16.7812 4.03125 16.9062C5.25 17.0938 6.3125 17 7.09375 16.6875C7.875 16.375 8.3125 15.9062 8.4375 15.25C8.53125 14.7812 8.46875 14.4688 8.34375 14.1875C8.21875 13.9375 8 13.6875 7.65625 13.5C6.96875 13.0625 5.96875 12.7812 4.875 12.5L4.8125 12.4688C3.75 12.2188 2.59375 11.9062 1.78125 11.375C1.34375 11.0938 0.96875 10.7188 0.71875 10.25C0.5 9.78125 0.4375 9.21875 0.53125 8.5625C0.71875 7.6875 1.15625 7.09375 1.78125 6.65625C2.40625 6.28125 3.15625 6.09375 3.90625 6.03125C4.09375 6 4.28125 6 4.5 6V4.5C4.5 4.25 4.71875 4 5 4C5.25 4 5.5 4.25 5.5 4.5Z" fill="black" fill-opacity="0.72"/>
</g>
<defs>
<clipPath id="clip0_2556_14628">
<rect width="10" height="24" fill="white"/>
</clipPath>
</defs>
</svg>
