<svg width="30" height="36" viewBox="0 0 30 36" fill="none" xmlns="http://www.w3.org/2000/svg">
<g id="label-paired / xl / book-circle-question-xl / regular" clip-path="url(#clip0_2981_961)">
<path id="icon" d="M0 9C0 7.35938 1.3125 6 3 6H18.75C19.9688 6 21 7.03125 21 8.25V15.3281C20.4375 15.4688 19.9688 15.6562 19.5 15.9375V8.25C19.5 7.875 19.125 7.5 18.75 7.5H6V24H15C15.0469 24.5156 15.1406 25.0312 15.2812 25.5H3C2.15625 25.5 1.5 26.2031 1.5 27C1.5 27.8438 2.15625 28.5 3 28.5H16.875C17.3438 29.1094 17.8594 29.5781 18.4688 30H3C1.3125 30 0 28.6875 0 27V9ZM1.5 9V24.4219C1.92188 24.1875 2.4375 24 3 24H4.5V7.5H3C2.15625 7.5 1.5 8.20312 1.5 9ZM8.25 12.75C8.25 12.375 8.57812 12 9 12H16.5C16.875 12 17.25 12.375 17.25 12.75C17.25 13.1719 16.875 13.5 16.5 13.5H9C8.57812 13.5 8.25 13.1719 8.25 12.75ZM8.25 17.25C8.25 16.875 8.57812 16.5 9 16.5H16.5C16.875 16.5 17.25 16.875 17.25 17.25C17.25 17.6719 16.875 18 16.5 18H9C8.57812 18 8.25 17.6719 8.25 17.25ZM16.5 23.25C16.5 19.5469 19.5 16.5 23.25 16.5C26.9531 16.5 30 19.5469 30 23.25C30 27 26.9531 30 23.25 30C19.5 30 16.5 27 16.5 23.25ZM18 23.25C18 26.1562 20.3438 28.5 23.25 28.5C26.1094 28.5 28.5 26.1562 28.5 23.25C28.5 20.3906 26.1094 18 23.25 18C20.3438 18 18 20.3906 18 23.25ZM20.25 21.4688C20.25 20.3906 21.0938 19.5 22.1719 19.5H24.0938C25.2656 19.5 26.25 20.4844 26.25 21.6562C26.25 22.4531 25.7812 23.2031 25.0781 23.5781L23.9531 24.1406C23.9062 24.5156 23.5781 24.75 23.25 24.75C22.8281 24.75 22.5 24.4219 22.5 24V23.7188C22.5 23.4375 22.6406 23.1562 22.875 23.0156L24.375 22.2656C24.6094 22.125 24.75 21.8906 24.75 21.6562C24.75 21.3281 24.4219 21 24.0938 21H22.1719C21.9375 21 21.75 21.2344 21.75 21.4688V21.75C21.75 22.1719 21.375 22.5 21 22.5C20.5781 22.5 20.25 22.1719 20.25 21.75V21.4688ZM22.5 26.25C22.5 25.875 22.8281 25.5 23.25 25.5C23.625 25.5 24 25.875 24 26.25C24 26.6719 23.625 27 23.25 27C22.8281 27 22.5 26.6719 22.5 26.25Z" fill="black" fill-opacity="0.72"/>
</g>
<defs>
<clipPath id="clip0_2981_961">
<rect width="30" height="36" fill="white"/>
</clipPath>
</defs>
</svg>
