<svg width="24" height="36" viewBox="0 0 24 36" fill="none" xmlns="http://www.w3.org/2000/svg">
<g id="label-paired / xl / circle-arrow-right-xl / fill" clip-path="url(#clip0_2556_19772)">
<path id="icon" d="M0 18C0 13.7344 2.25 9.79688 6 7.64062C9.70312 5.48438 14.25 5.48438 18 7.64062C21.7031 9.79688 24 13.7344 24 18C24 22.3125 21.7031 26.25 18 28.4062C14.25 30.5625 9.70312 30.5625 6 28.4062C2.25 26.25 0 22.3125 0 18ZM13.1719 24.0469L18.4219 18.7969C18.8438 18.375 18.8438 17.6719 18.4219 17.2031L13.1719 12C12.7031 11.5312 12 11.5312 11.5781 12C11.1094 12.4219 11.1094 13.125 11.5781 13.5469L14.9062 16.875H6.375C5.71875 16.875 5.25 17.3906 5.25 18C5.25 18.6562 5.71875 19.125 6.375 19.125L14.9062 19.1719L11.5781 22.5C11.1094 22.9219 11.1094 23.625 11.5781 24.0469C12 24.5156 12.7031 24.5156 13.1719 24.0469Z" fill="black" fill-opacity="0.72"/>
</g>
<defs>
<clipPath id="clip0_2556_19772">
<rect width="24" height="36" fill="white"/>
</clipPath>
</defs>
</svg>
