<svg width="16" height="24" viewBox="0 0 16 24" fill="none" xmlns="http://www.w3.org/2000/svg">
<g id="label-paired / md / bank-md / bold" clip-path="url(#clip0_2362_677)">
<path id="icon" d="M8.375 4.09375L15.4375 8C15.7917 8.20833 15.9792 8.52083 16 8.9375C16 9.22917 15.8958 9.47917 15.6875 9.6875C15.4792 9.89583 15.2292 10 14.9375 10H1.0625C0.770833 10 0.520833 9.89583 0.3125 9.6875C0.104167 9.47917 0 9.22917 0 8.9375C0.0208333 8.52083 0.208333 8.20833 0.5625 8L7.625 4.09375C7.875 3.96875 8.125 3.96875 8.375 4.09375ZM7.125 8.5C7.04167 8.35417 7 8.1875 7 8C7 7.70833 7.09375 7.46875 7.28125 7.28125C7.46875 7.09375 7.70833 7 8 7C8.29167 7 8.53125 7.09375 8.71875 7.28125C8.90625 7.46875 9 7.70833 9 8C9 8.1875 8.95833 8.35417 8.875 8.5H13.25L8 5.59375L2.75 8.5H7.125ZM2 11H3.5V16H5.5V11H7V16H9V11H10.5V16H12.5V11H14V16H14.25C14.7083 16.0417 14.9583 16.2917 15 16.75C14.9583 17.2083 14.7083 17.4583 14.25 17.5H2C1.54167 17.4583 1.29167 17.2083 1.25 16.75C1.29167 16.2917 1.54167 16.0417 2 16V11ZM1 18.5H15.25C15.7083 18.5417 15.9583 18.7917 16 19.25C15.9583 19.7083 15.7083 19.9583 15.25 20H1C0.541667 19.9583 0.291667 19.7083 0.25 19.25C0.291667 18.7917 0.541667 18.5417 1 18.5Z" fill="black" fill-opacity="0.72"/>
</g>
<defs>
<clipPath id="clip0_2362_677">
<rect width="16" height="24" fill="white"/>
</clipPath>
</defs>
</svg>
