<svg width="18" height="24" viewBox="0 0 18 24" fill="none" xmlns="http://www.w3.org/2000/svg">
<g id="label-paired / md / star-md / regular" clip-path="url(#clip0_2556_14994)">
<path id="icon" d="M7.0625 9.28125C6.90625 9.59375 6.625 9.78125 6.3125 9.84375L2.03125 10.4688L5.125 13.5625C5.375 13.7812 5.46875 14.125 5.40625 14.4375L4.6875 18.8125L8.5 16.75C8.8125 16.5938 9.15625 16.5938 9.46875 16.75L13.2812 18.8125L12.5625 14.4375C12.5 14.125 12.5938 13.7812 12.8438 13.5625L15.9375 10.4688L11.6562 9.84375C11.3125 9.78125 11.0312 9.59375 10.9062 9.28125L8.96875 5.34375L7.0625 9.28125ZM13.25 19.9375H13.2812L9 17.625L4.71875 19.9375C4.46875 20.0625 4.15625 20.0312 3.90625 19.875C3.6875 19.6875 3.5625 19.4062 3.625 19.125L4.4375 14.2812L0.96875 10.8438C0.75 10.625 0.6875 10.3438 0.78125 10.0625C0.875 9.8125 1.09375 9.59375 1.375 9.5625L6.15625 8.84375L8.3125 4.4375C8.4375 4.1875 8.6875 4 8.96875 4C9.28125 4 9.53125 4.1875 9.65625 4.4375L11.8125 8.84375L16.5938 9.5625C16.875 9.59375 17.0938 9.8125 17.1875 10.0625C17.2812 10.3438 17.2188 10.625 17 10.8438L13.5312 14.2812L14.3438 19.125C14.4062 19.4062 14.2812 19.6875 14.0625 19.875C13.8125 20.0312 13.5312 20.0625 13.25 19.9375Z" fill="black" fill-opacity="0.72"/>
</g>
<defs>
<clipPath id="clip0_2556_14994">
<rect width="18" height="24" fill="white"/>
</clipPath>
</defs>
</svg>
