<svg width="20" height="30" viewBox="0 0 20 30" fill="none" xmlns="http://www.w3.org/2000/svg">
<g id="label-paired / lg / circle-sterling-lg / fill" clip-path="url(#clip0_2556_17085)">
<path id="icon" d="M10 25.5C6.40625 25.5 3.125 23.625 1.32812 20.5C-0.46875 17.4141 -0.46875 13.625 1.32812 10.5C3.125 7.41406 6.40625 5.5 10 5.5C13.5547 5.5 16.8359 7.41406 18.6328 10.5C20.4297 13.625 20.4297 17.4141 18.6328 20.5C16.8359 23.625 13.5547 25.5 10 25.5ZM10.1953 11.75C10.3516 11.75 10.5078 11.7891 10.625 11.8672L11.8359 12.3359C12.3047 12.5312 12.8516 12.2969 13.0469 11.7891C13.2422 11.3203 13.0078 10.7734 12.5391 10.5781L11.3281 10.1094C10.9766 9.95312 10.5859 9.875 10.1953 9.875C8.51562 9.875 7.14844 11.2812 7.14844 12.9609V14.25H6.875C6.52344 14.25 6.25 14.5625 6.25 14.875C6.25 15.2266 6.52344 15.5 6.875 15.5H7.14844V15.9297C7.14844 16.5547 7.03125 17.2188 6.71875 17.8047L6.32812 18.5078C6.17188 18.8203 6.21094 19.1719 6.36719 19.4453C6.52344 19.7188 6.83594 19.875 7.1875 19.875H12.8125C13.3203 19.875 13.75 19.4844 13.75 18.9375C13.75 18.4297 13.3203 18 12.8125 18H8.67188C8.90625 17.3359 9.02344 16.6328 9.02344 15.8906V15.5H10.625C10.9375 15.5 11.25 15.2266 11.25 14.875C11.25 14.5625 10.9375 14.25 10.625 14.25H9.02344V12.9609C9.02344 12.2969 9.53125 11.75 10.1953 11.75Z" fill="black" fill-opacity="0.72"/>
</g>
<defs>
<clipPath id="clip0_2556_17085">
<rect width="20" height="30" fill="white"/>
</clipPath>
</defs>
</svg>
