<svg width="18" height="24" viewBox="0 0 18 24" fill="none" xmlns="http://www.w3.org/2000/svg">
<g id="label-paired / md / credit-card-md / regular" clip-path="url(#clip0_2556_14589)">
<path id="icon" d="M2 6C1.4375 6 1 6.46875 1 7V8H17V7C17 6.46875 16.5312 6 16 6H2ZM1 9V11H17V9H1ZM1 12V17C1 17.5625 1.4375 18 2 18H16C16.5312 18 17 17.5625 17 17V12H1ZM0 7C0 5.90625 0.875 5 2 5H16C17.0938 5 18 5.90625 18 7V17C18 18.125 17.0938 19 16 19H2C0.875 19 0 18.125 0 17V7ZM3 15.5C3 15.25 3.21875 15 3.5 15H5.5C5.75 15 6 15.25 6 15.5C6 15.7812 5.75 16 5.5 16H3.5C3.21875 16 3 15.7812 3 15.5ZM7 15.5C7 15.25 7.21875 15 7.5 15H11.5C11.75 15 12 15.25 12 15.5C12 15.7812 11.75 16 11.5 16H7.5C7.21875 16 7 15.7812 7 15.5Z" fill="black" fill-opacity="0.72"/>
</g>
<defs>
<clipPath id="clip0_2556_14589">
<rect width="18" height="24" fill="white"/>
</clipPath>
</defs>
</svg>
