<svg width="12" height="24" viewBox="0 0 12 24" fill="none" xmlns="http://www.w3.org/2000/svg">
<g id="label-paired / md / lightbulb-md / fill" clip-path="url(#clip0_2556_14647)">
<path id="icon" d="M8.5 16H3.5C3.1875 15.0312 2.5625 14.1562 1.9375 13.3125C1.78125 13.0938 1.625 12.875 1.46875 12.6562C0.84375 11.75 0.5 10.6875 0.5 9.5C0.5 6.46875 2.9375 4 6 4C9.03125 4 11.5 6.46875 11.5 9.53125C11.5 10.6875 11.125 11.75 10.5 12.6562C10.3438 12.875 10.1875 13.0938 10.0312 13.3125C9.40625 14.1562 8.78125 15.0312 8.5 16ZM6 20C4.59375 20 3.5 18.9062 3.5 17.5V17H8.5V17.5C8.5 18.9062 7.375 20 6 20ZM3.5 9.5C3.5 8.125 4.59375 7 6 7C6.25 7 6.5 6.78125 6.5 6.5C6.5 6.25 6.25 6 6 6C4.0625 6 2.5 7.59375 2.5 9.5C2.5 9.78125 2.71875 10 3 10C3.25 10 3.5 9.78125 3.5 9.5Z" fill="black" fill-opacity="0.72"/>
</g>
<defs>
<clipPath id="clip0_2556_14647">
<rect width="12" height="24" fill="white"/>
</clipPath>
</defs>
</svg>
