<svg width="12" height="18" viewBox="0 0 12 18" fill="none" xmlns="http://www.w3.org/2000/svg">
<g id="label-paired / caption / gear-caption / fill" clip-path="url(#clip0_2556_10312)">
<path id="icon" d="M11.6016 7.41406C11.6953 7.625 11.625 7.83594 11.4609 8L10.4531 8.91406C10.4766 9.10156 10.4766 9.3125 10.4766 9.5C10.4766 9.71094 10.4766 9.92188 10.4531 10.1094L11.4609 11.0234C11.625 11.1641 11.6953 11.3984 11.6016 11.6094C11.5078 11.8906 11.3906 12.1484 11.25 12.4062L11.1328 12.5938C10.9688 12.8516 10.8047 13.1094 10.6172 13.3203C10.4766 13.5078 10.2422 13.5547 10.0312 13.4844L8.74219 13.0859C8.41406 13.3203 8.0625 13.5078 7.71094 13.6719L7.40625 15.0078C7.35938 15.2188 7.19531 15.3828 6.98438 15.4297C6.65625 15.4766 6.32812 15.5 5.97656 15.5C5.64844 15.5 5.32031 15.4766 4.99219 15.4297C4.78125 15.3828 4.61719 15.2188 4.57031 15.0078L4.26562 13.6719C3.89062 13.5078 3.5625 13.3203 3.23438 13.0859L1.94531 13.4844C1.73438 13.5547 1.5 13.5078 1.35938 13.3438C1.17188 13.1094 1.00781 12.8516 0.84375 12.5938L0.726562 12.4062C0.585938 12.1484 0.46875 11.8906 0.375 11.6094C0.28125 11.3984 0.351562 11.1875 0.515625 11.0234L1.52344 10.1094C1.5 9.92188 1.5 9.71094 1.5 9.5C1.5 9.3125 1.5 9.10156 1.52344 8.91406L0.515625 8C0.351562 7.83594 0.28125 7.625 0.375 7.41406C0.46875 7.13281 0.585938 6.875 0.726562 6.61719L0.84375 6.42969C1.00781 6.17188 1.17188 5.91406 1.35938 5.67969C1.5 5.51562 1.73438 5.46875 1.94531 5.53906L3.23438 5.9375C3.5625 5.70312 3.91406 5.49219 4.26562 5.35156L4.57031 4.01562C4.61719 3.80469 4.78125 3.64062 4.99219 3.59375C5.32031 3.54688 5.64844 3.5 6 3.5C6.32812 3.5 6.65625 3.54688 6.98438 3.59375C7.19531 3.61719 7.35938 3.80469 7.40625 4.01562L7.71094 5.35156C8.08594 5.49219 8.41406 5.70312 8.74219 5.9375L10.0312 5.53906C10.2422 5.46875 10.4766 5.51562 10.6172 5.67969C10.8047 5.91406 10.9688 6.17188 11.1328 6.42969L11.25 6.61719C11.3906 6.875 11.5078 7.13281 11.625 7.41406H11.6016ZM6 11.375C6.65625 11.375 7.26562 11.0234 7.61719 10.4375C7.94531 9.875 7.94531 9.14844 7.61719 8.5625C7.26562 8 6.65625 7.625 6 7.625C5.32031 7.625 4.71094 8 4.35938 8.5625C4.03125 9.14844 4.03125 9.875 4.35938 10.4375C4.71094 11.0234 5.32031 11.375 6 11.375Z" fill="black" fill-opacity="0.72"/>
</g>
<defs>
<clipPath id="clip0_2556_10312">
<rect width="12" height="18" fill="white"/>
</clipPath>
</defs>
</svg>
