<svg width="30" height="36" viewBox="0 0 30 36" fill="none" xmlns="http://www.w3.org/2000/svg">
<g id="label-paired / xl / user-minus-xl / bold" clip-path="url(#clip0_3327_872)">
<path id="icon" d="M10.5 8.25C9.14062 8.25 7.92188 9 7.21875 10.125C6.5625 11.2969 6.5625 12.75 7.21875 13.875C7.92188 15.0469 9.14062 15.75 10.5 15.75C11.8125 15.75 13.0312 15.0469 13.7344 13.875C14.3906 12.75 14.3906 11.2969 13.7344 10.125C13.0312 9 11.8125 8.25 10.5 8.25ZM10.5 18C8.34375 18 6.375 16.875 5.29688 15C4.21875 13.1719 4.21875 10.875 5.29688 9C6.375 7.17188 8.34375 6 10.5 6C12.6094 6 14.5781 7.17188 15.6562 9C16.7344 10.875 16.7344 13.1719 15.6562 15C14.5781 16.875 12.6094 18 10.5 18ZM8.34375 22.5C5.25 22.5 2.71875 24.7969 2.29688 27.75H18.6562C18.2344 24.7969 15.7031 22.5 12.6094 22.5H8.34375ZM8.34375 20.25H12.6094C17.25 20.25 21 24 21 28.6406C21 29.3906 20.3438 30 19.5938 30H1.35938C0.609375 30 0 29.3906 0 28.6406C0 24 3.70312 20.25 8.34375 20.25ZM22.125 15.375H28.875C29.4844 15.375 30 15.8906 30 16.5C30 17.1562 29.4844 17.625 28.875 17.625H22.125C21.4688 17.625 21 17.1562 21 16.5C21 15.8906 21.4688 15.375 22.125 15.375Z" fill="black" fill-opacity="0.72"/>
</g>
<defs>
<clipPath id="clip0_3327_872">
<rect width="30" height="36" fill="white"/>
</clipPath>
</defs>
</svg>
