<svg width="13" height="22" viewBox="0 0 13 22" fill="none" xmlns="http://www.w3.org/2000/svg">
<g id="label-paired / sm / square-minus-sm / bold" clip-path="url(#clip0_2556_12910)">
<path id="icon" d="M2.125 5.9375C1.87891 5.9375 1.6875 6.15625 1.6875 6.375V15.125C1.6875 15.3711 1.87891 15.5625 2.125 15.5625H10.875C11.0938 15.5625 11.3125 15.3711 11.3125 15.125V6.375C11.3125 6.15625 11.0938 5.9375 10.875 5.9375H2.125ZM0.375 6.375C0.375 5.41797 1.14062 4.625 2.125 4.625H10.875C11.832 4.625 12.625 5.41797 12.625 6.375V15.125C12.625 16.1094 11.832 16.875 10.875 16.875H2.125C1.14062 16.875 0.375 16.1094 0.375 15.125V6.375ZM4.53125 10.0938H8.46875C8.82422 10.0938 9.125 10.3945 9.125 10.75C9.125 11.1328 8.82422 11.4062 8.46875 11.4062H4.53125C4.14844 11.4062 3.875 11.1328 3.875 10.75C3.875 10.3945 4.14844 10.0938 4.53125 10.0938Z" fill="black" fill-opacity="0.72"/>
</g>
<defs>
<clipPath id="clip0_2556_12910">
<rect width="13" height="22" fill="white"/>
</clipPath>
</defs>
</svg>
