<svg width="15" height="18" viewBox="0 0 15 18" fill="none" xmlns="http://www.w3.org/2000/svg">
<g id="label-paired / caption / stop-loss-caption / fill" clip-path="url(#clip0_2556_10388)">
<path id="icon" d="M3.44531 12.8516C3.02344 12.6406 2.67188 12.3594 2.36719 12.0312L2.13281 11.75L3.5625 10.3203L3.82031 10.6016C4.17188 11.0234 4.59375 11.2109 5.10938 11.2109C5.41406 11.2109 5.55469 11.1406 5.625 11.0938C5.69531 11.0234 5.71875 10.9531 5.71875 10.8359C5.71875 10.7188 5.69531 10.6719 5.67188 10.625C5.64844 10.625 5.64844 10.6016 5.60156 10.5781C5.53125 10.5547 5.4375 10.5312 5.32031 10.5312L4.71094 10.4375C3.98438 10.3438 3.39844 10.1328 3.02344 9.73438H3C2.625 9.3125 2.46094 8.79688 2.46094 8.1875C2.46094 7.85938 2.50781 7.55469 2.64844 7.27344C2.78906 6.99219 2.97656 6.73438 3.21094 6.52344C3.44531 6.33594 3.75 6.17188 4.07812 6.07812C4.40625 5.96094 4.78125 5.91406 5.17969 5.91406C5.69531 5.91406 6.16406 5.98438 6.58594 6.17188C6.98438 6.33594 7.33594 6.59375 7.64062 6.92188L7.875 7.17969L6.44531 8.63281L6.16406 8.32812C6.04688 8.21094 5.90625 8.09375 5.74219 8H5.71875C5.57812 7.92969 5.39062 7.85938 5.10938 7.85938C4.82812 7.85938 4.6875 7.92969 4.64062 7.95312C4.59375 8 4.57031 8.02344 4.57031 8.11719C4.57031 8.1875 4.59375 8.23438 4.59375 8.25781C4.59375 8.28125 4.61719 8.28125 4.61719 8.28125C4.66406 8.32812 4.78125 8.375 5.01562 8.42188L5.625 8.51562C6.30469 8.60938 6.89062 8.84375 7.26562 9.21875C7.66406 9.59375 7.85156 10.1328 7.85156 10.7422C7.85156 11.0938 7.78125 11.4219 7.66406 11.7266C7.52344 12.0312 7.33594 12.2891 7.07812 12.5C6.84375 12.7109 6.53906 12.875 6.1875 12.9922C5.83594 13.1094 5.4375 13.1562 5.03906 13.1562C4.42969 13.1562 3.91406 13.0625 3.46875 12.8516H3.44531ZM8.22656 13.0625V6.03125H10.3594V11.0938H12.75V13.0625H8.22656Z" fill="black" fill-opacity="0.72"/>
</g>
<defs>
<clipPath id="clip0_2556_10388">
<rect width="15" height="18" fill="white"/>
</clipPath>
</defs>
</svg>
