<svg width="15" height="18" viewBox="0 0 15 18" fill="none" xmlns="http://www.w3.org/2000/svg">
<g id="label-paired / caption / wallet-signal-caption / bold" clip-path="url(#clip0_2362_652)">
<path id="icon" d="M0 6.3125C0 5.1875 0.914062 4.25 2.0625 4.25H10.6875C10.9922 4.25 11.25 4.50781 11.25 4.8125C11.25 5.14062 10.9922 5.375 10.6875 5.375H2.0625C1.52344 5.375 1.125 5.79688 1.125 6.3125V12.6875C1.125 13.2266 1.52344 13.625 2.0625 13.625H8.25V14.75H2.0625C0.914062 14.75 0 13.8359 0 12.6875V6.3125ZM2.25 7.0625C2.25 6.75781 2.48438 6.5 2.8125 6.5H9.9375C11.0625 6.5 12 7.4375 12 8.5625V9.26562C11.625 9.10156 11.25 8.98438 10.875 8.89062V8.5625C10.875 8.04688 10.4531 7.625 9.9375 7.625H2.8125C2.48438 7.625 2.25 7.39062 2.25 7.0625ZM9 10.0625C9 9.75781 9.23438 9.5 9.5625 9.5C12.5625 9.5 15 11.9375 15 14.9375C15 15.2656 14.7422 15.5 14.4375 15.5C14.1094 15.5 13.875 15.2656 13.875 14.9375C13.875 12.5703 11.9297 10.625 9.5625 10.625C9.23438 10.625 9 10.3906 9 10.0625ZM9 12.3125C9 12.0078 9.23438 11.75 9.5625 11.75C11.3203 11.75 12.75 13.1797 12.75 14.9375C12.75 15.2656 12.4922 15.5 12.1875 15.5C11.8594 15.5 11.625 15.2656 11.625 14.9375C11.625 13.8125 10.6875 12.875 9.5625 12.875C9.23438 12.875 9 12.6406 9 12.3125ZM9 14.75C9 14.3516 9.32812 14 9.75 14C10.1484 14 10.5 14.3516 10.5 14.75C10.5 15.1719 10.1484 15.5 9.75 15.5C9.32812 15.5 9 15.1719 9 14.75Z" fill="black" fill-opacity="0.72"/>
</g>
<defs>
<clipPath id="clip0_2362_652">
<rect width="15" height="18" fill="white"/>
</clipPath>
</defs>
</svg>
