<svg width="13" height="30" viewBox="0 0 13 30" fill="none" xmlns="http://www.w3.org/2000/svg">
<g id="label-paired / lg / three-lg / bold" clip-path="url(#clip0_2556_17544)">
<path id="icon" d="M0.25 7.6875C0.25 7.17969 0.640625 6.75 1.1875 6.75H11.1875C11.5391 6.75 11.8906 6.98438 12.0469 7.375C12.2031 7.72656 12.0859 8.11719 11.8125 8.39062L5.99219 13.9375H7.59375C10.4062 13.9375 12.75 16.2812 12.75 19.0938C12.75 21.9453 10.4062 24.25 7.59375 24.25H4.03906C2.51562 24.25 1.10938 23.3906 0.40625 22.0234L0.328125 21.8672C0.09375 21.3984 0.289062 20.8516 0.757812 20.6172C1.22656 20.3828 1.77344 20.5781 2.00781 21.0469L2.08594 21.1641C2.4375 21.9062 3.21875 22.375 4.03906 22.375H7.59375C9.39062 22.375 10.875 20.9297 10.875 19.0938C10.875 17.2969 9.39062 15.8125 7.59375 15.8125H3.6875C3.29688 15.8125 2.94531 15.5781 2.78906 15.2266C2.67188 14.875 2.75 14.4844 3.02344 14.2109L8.84375 8.625H1.1875C0.640625 8.625 0.25 8.23438 0.25 7.6875Z" fill="black" fill-opacity="0.72"/>
</g>
<defs>
<clipPath id="clip0_2556_17544">
<rect width="13" height="30" fill="white"/>
</clipPath>
</defs>
</svg>
