<svg width="14" height="24" viewBox="0 0 14 24" fill="none" xmlns="http://www.w3.org/2000/svg">
<g id="label-paired / md / plus-md / fill" clip-path="url(#clip0_2556_14860)">
<path id="icon" d="M8 6.5V11H12.5C13.0312 11 13.5 11.4688 13.5 12C13.5 12.5625 13.0312 13 12.5 13H8V17.5C8 18.0625 7.53125 18.5 7 18.5C6.4375 18.5 6 18.0625 6 17.5V13H1.5C0.9375 13 0.5 12.5625 0.5 12C0.5 11.4688 0.9375 11 1.5 11H6V6.5C6 5.96875 6.4375 5.5 7 5.5C7.53125 5.5 8 5.96875 8 6.5Z" fill="black" fill-opacity="0.72"/>
</g>
<defs>
<clipPath id="clip0_2556_14860">
<rect width="14" height="24" fill="white"/>
</clipPath>
</defs>
</svg>
