<svg width="9" height="22" viewBox="0 0 9 22" fill="none" xmlns="http://www.w3.org/2000/svg">
<g id="label-paired / sm / forward-step-sm / regular" clip-path="url(#clip0_2556_12632)">
<path id="icon" d="M7.125 5.9375C7.125 5.71875 7.31641 5.5 7.5625 5.5C7.78125 5.5 8 5.71875 8 5.9375V10.3672V11.1602V15.5625C8 15.8086 7.78125 16 7.5625 16C7.31641 16 7.125 15.8086 7.125 15.5625V11.8711L2.23047 15.8359C2.09375 15.9453 1.92969 16 1.73828 16C1.32812 16 1 15.6719 1 15.2617V6.26562C1 5.85547 1.32812 5.5 1.73828 5.5C1.92969 5.5 2.09375 5.58203 2.23047 5.69141L7.125 9.65625V5.9375ZM1.875 6.51172V15.0156L7.07031 10.75L1.875 6.51172Z" fill="black" fill-opacity="0.72"/>
</g>
<defs>
<clipPath id="clip0_2556_12632">
<rect width="9" height="22" fill="white"/>
</clipPath>
</defs>
</svg>
