<svg width="20" height="24" viewBox="0 0 20 24" fill="none" xmlns="http://www.w3.org/2000/svg">
<g id="label-paired / md / user-slash-md / fill" clip-path="url(#clip0_2556_14579)">
<path id="icon" d="M1.1875 4.1875L6 7.9375C6.03125 5.75 7.8125 4 10 4C12.1875 4 14 5.8125 14 8C14 9.875 12.7188 11.4062 11.0312 11.875L19.6875 18.6875C20.0312 18.9375 20.0938 19.4062 19.8125 19.7188C19.5625 20.0625 19.0938 20.125 18.7812 19.8438L0.28125 5.34375C-0.0625 5.09375 -0.125 4.625 0.15625 4.3125C0.40625 3.96875 0.875 3.90625 1.1875 4.1875ZM8.25 13.5312L16.4062 19.9375C16.2812 20 16.1875 20 16.0625 20H3.90625C3.40625 20 3 19.5938 3 19.0938C3 16.125 5.3125 13.6875 8.25 13.5312Z" fill="black" fill-opacity="0.72"/>
</g>
<defs>
<clipPath id="clip0_2556_14579">
<rect width="20" height="24" fill="white"/>
</clipPath>
</defs>
</svg>
