<svg width="14" height="22" viewBox="0 0 14 22" fill="none" xmlns="http://www.w3.org/2000/svg">
<g id="label-paired / sm / chevrons-left-sm / regular" clip-path="url(#clip0_2556_12645)">
<path id="icon" d="M1.42188 10.4492L6.67188 5.19922C6.83594 5.03516 7.13672 5.03516 7.30078 5.19922C7.46484 5.36328 7.46484 5.66406 7.30078 5.82812L2.35156 10.75L7.30078 15.6992C7.46484 15.8633 7.46484 16.1641 7.30078 16.3281C7.13672 16.4922 6.83594 16.4922 6.67188 16.3281L1.42188 11.0781C1.25781 10.9141 1.25781 10.6133 1.42188 10.4492ZM11.9219 5.19922C12.0859 5.03516 12.3867 5.03516 12.5508 5.19922C12.7148 5.36328 12.7148 5.66406 12.5508 5.82812L7.60156 10.75L12.5508 15.6992C12.7148 15.8633 12.7148 16.1641 12.5508 16.3281C12.3867 16.4922 12.0859 16.4922 11.9219 16.3281L6.67188 11.0781C6.50781 10.9141 6.50781 10.6133 6.67188 10.4492L11.9219 5.19922Z" fill="black" fill-opacity="0.72"/>
</g>
<defs>
<clipPath id="clip0_2556_12645">
<rect width="14" height="22" fill="white"/>
</clipPath>
</defs>
</svg>
