<svg width="18" height="24" viewBox="0 0 18 24" fill="none" xmlns="http://www.w3.org/2000/svg">
<g id="label-paired / md / mobile-notch-rotate-md / regular" clip-path="url(#clip0_2512_1238)">
<path id="icon" d="M1 6C1 4.90625 1.875 4 3 4H9C10.0938 4 11 4.90625 11 6V10.625C10.9062 10.6562 10.8438 10.6875 10.7812 10.7188C10.5938 10.4375 10.3125 10.2188 10 10.0938V6C10 5.46875 9.53125 5 9 5H8V5.5C8 6.0625 7.53125 6.5 7 6.5H5C4.4375 6.5 4 6.0625 4 5.5V5H3C2.4375 5 2 5.46875 2 6V18C2 18.5625 2.4375 19 3 19H9C9.0625 19 9.15625 19 9.21875 19C9.4375 19.25 9.6875 19.5312 9.96875 19.75C9.6875 19.9062 9.34375 20 8.96875 20H3C1.875 20 1 19.125 1 18V6ZM5 5V5.5H7V5H5ZM9 11.5C9 11.25 9.21875 11 9.5 11C9.75 11 10 11.25 10 11.5V12.6875C10.8125 11.6562 12.0625 11 13.5 11C15.375 11 17 12.1875 17.6562 13.8125C17.75 14.0938 17.625 14.375 17.375 14.4688C17.125 14.5938 16.8438 14.4688 16.7188 14.1875C16.2188 12.9062 14.9688 12 13.5 12C12.3125 12 11.25 12.5938 10.625 13.5H12C12.25 13.5 12.5 13.75 12.5 14C12.5 14.2812 12.25 14.5 12 14.5H9.5C9.21875 14.5 9 14.2812 9 14V11.5ZM9.3125 17.1875C9.21875 16.9375 9.34375 16.6562 9.59375 16.5625C9.84375 16.4375 10.125 16.5625 10.25 16.8125C10.75 18.125 12.0312 19 13.5 19C14.6875 19 15.7188 18.4062 16.3438 17.5H15C14.7188 17.5 14.5 17.2812 14.5 17C14.5 16.75 14.7188 16.5 15 16.5H17.5C17.75 16.5 18 16.75 18 17V19.5C18 19.7812 17.75 20 17.5 20C17.2188 20 17 19.7812 17 19.5V18.3438C16.1562 19.375 14.9062 20 13.5 20C11.5938 20 9.96875 18.8438 9.3125 17.1875Z" fill="black" fill-opacity="0.72"/>
</g>
<defs>
<clipPath id="clip0_2512_1238">
<rect width="18" height="24" fill="white"/>
</clipPath>
</defs>
</svg>
