<svg width="24" height="36" viewBox="0 0 24 36" fill="none" xmlns="http://www.w3.org/2000/svg">
<g id="label-paired / xl / circle-arrow-up-xl / fill" clip-path="url(#clip0_2556_19939)">
<path id="icon" d="M12 30C7.6875 30 3.75 27.75 1.59375 24C-0.5625 20.2969 -0.5625 15.75 1.59375 12C3.75 8.29688 7.6875 6 12 6C16.2656 6 20.2031 8.29688 22.3594 12C24.5156 15.75 24.5156 20.2969 22.3594 24C20.2031 27.75 16.2656 30 12 30ZM18.0469 16.8281L12.75 11.5781C12.3281 11.1562 11.625 11.1562 11.2031 11.5781L5.95312 16.8281C5.48438 17.2969 5.48438 18 5.95312 18.4219C6.375 18.8906 7.07812 18.8906 7.54688 18.4219L10.875 15.0938V23.625C10.875 24.2812 11.3438 24.75 12 24.75C12.6094 24.75 13.125 24.2812 13.125 23.625V15.0938L16.4531 18.4219C16.875 18.8906 17.5781 18.8906 18.0469 18.4219C18.4688 18 18.4688 17.2969 18.0469 16.8281Z" fill="black" fill-opacity="0.72"/>
</g>
<defs>
<clipPath id="clip0_2556_19939">
<rect width="24" height="36" fill="white"/>
</clipPath>
</defs>
</svg>
