<svg width="20" height="24" viewBox="0 0 20 24" fill="none" xmlns="http://www.w3.org/2000/svg">
<g id="label-paired / md / signal-md / regular" clip-path="url(#clip0_2556_14917)">
<path id="icon" d="M18.5 4.5V19.5C18.5 19.7812 18.25 20 18 20C17.7188 20 17.5 19.7812 17.5 19.5V4.5C17.5 4.25 17.7188 4 18 4C18.25 4 18.5 4.25 18.5 4.5ZM14 7C14.25 7 14.5 7.25 14.5 7.5V19.5C14.5 19.7812 14.25 20 14 20C13.7188 20 13.5 19.7812 13.5 19.5V7.5C13.5 7.25 13.7188 7 14 7ZM10.5 10.5V19.5C10.5 19.7812 10.25 20 10 20C9.71875 20 9.5 19.7812 9.5 19.5V10.5C9.5 10.25 9.71875 10 10 10C10.25 10 10.5 10.25 10.5 10.5ZM6 13C6.25 13 6.5 13.25 6.5 13.5V19.5C6.5 19.7812 6.25 20 6 20C5.71875 20 5.5 19.7812 5.5 19.5V13.5C5.5 13.25 5.71875 13 6 13ZM2 16C2.25 16 2.5 16.25 2.5 16.5V19.5C2.5 19.7812 2.25 20 2 20C1.71875 20 1.5 19.7812 1.5 19.5V16.5C1.5 16.25 1.71875 16 2 16Z" fill="black" fill-opacity="0.72"/>
</g>
<defs>
<clipPath id="clip0_2556_14917">
<rect width="20" height="24" fill="white"/>
</clipPath>
</defs>
</svg>
