<svg width="18" height="30" viewBox="0 0 18 30" fill="none" xmlns="http://www.w3.org/2000/svg">
<g id="label-paired / lg / arrow-up-from-bracket-lg / bold" clip-path="url(#clip0_2556_17522)">
<path id="icon" d="M9.66406 5.77344L14.625 10.7734C15.0156 11.1641 15.0156 11.75 14.625 12.1016C14.2734 12.4922 13.6875 12.4922 13.2969 12.1016L9.89844 8.70312V18.3125C9.89844 18.8594 9.50781 19.25 8.96094 19.25C8.45312 19.25 8.02344 18.8594 8.02344 18.3125V8.70312L4.625 12.1016C4.27344 12.4922 3.6875 12.4922 3.33594 12.1016C2.94531 11.75 2.94531 11.1641 3.33594 10.7734L8.33594 5.77344C8.6875 5.42188 9.27344 5.42188 9.66406 5.77344ZM2.125 18.9375V22.0625C2.125 22.9609 2.78906 23.625 3.6875 23.625H14.3125C15.1719 23.625 15.875 22.9609 15.875 22.0625V18.9375C15.875 18.4297 16.2656 18 16.8125 18C17.3203 18 17.75 18.4297 17.75 18.9375V22.0625C17.75 23.9766 16.1875 25.5 14.3125 25.5H3.6875C1.77344 25.5 0.25 23.9766 0.25 22.0625V18.9375C0.25 18.4297 0.640625 18 1.1875 18C1.69531 18 2.125 18.4297 2.125 18.9375Z" fill="black" fill-opacity="0.72"/>
</g>
<defs>
<clipPath id="clip0_2556_17522">
<rect width="18" height="30" fill="white"/>
</clipPath>
</defs>
</svg>
