<svg width="16" height="24" viewBox="0 0 16 24" fill="none" xmlns="http://www.w3.org/2000/svg">
<g id="label-paired / md / sliders-md / regular" clip-path="url(#clip0_3758_512)">
<path id="icon" d="M0 17C0 16.75 0.21875 16.5 0.5 16.5H2.53125C2.78125 15.375 3.78125 14.5 5 14.5C6.1875 14.5 7.21875 15.375 7.4375 16.5H15.5C15.75 16.5 16 16.75 16 17C16 17.2812 15.75 17.5 15.5 17.5H7.4375C7.21875 18.6562 6.1875 19.5 5 19.5C3.78125 19.5 2.78125 18.6562 2.53125 17.5H0.5C0.21875 17.5 0 17.2812 0 17ZM3.5 17C3.5 17.5625 3.78125 18.0312 4.25 18.3125C4.6875 18.5938 5.28125 18.5938 5.75 18.3125C6.1875 18.0312 6.5 17.5625 6.5 17C6.5 16.4688 6.1875 16 5.75 15.7188C5.28125 15.4375 4.6875 15.4375 4.25 15.7188C3.78125 16 3.5 16.4688 3.5 17ZM9.5 12C9.5 12.5625 9.78125 13.0312 10.25 13.3125C10.6875 13.5938 11.2812 13.5938 11.75 13.3125C12.1875 13.0312 12.5 12.5625 12.5 12C12.5 11.4688 12.1875 11 11.75 10.7188C11.2812 10.4375 10.6875 10.4375 10.25 10.7188C9.78125 11 9.5 11.4688 9.5 12ZM11 9.5C12.1875 9.5 13.2188 10.375 13.4375 11.5H15.5C15.75 11.5 16 11.75 16 12C16 12.2812 15.75 12.5 15.5 12.5H13.4375C13.2188 13.6562 12.1875 14.5 11 14.5C9.78125 14.5 8.78125 13.6562 8.53125 12.5H0.5C0.21875 12.5 0 12.2812 0 12C0 11.75 0.21875 11.5 0.5 11.5H8.53125C8.78125 10.375 9.78125 9.5 11 9.5ZM6 8.5C6.53125 8.5 7 8.21875 7.28125 7.75C7.5625 7.3125 7.5625 6.71875 7.28125 6.25C7 5.8125 6.53125 5.5 6 5.5C5.4375 5.5 4.96875 5.8125 4.6875 6.25C4.40625 6.71875 4.40625 7.3125 4.6875 7.75C4.96875 8.21875 5.4375 8.5 6 8.5ZM8.4375 6.5H15.5C15.75 6.5 16 6.75 16 7C16 7.28125 15.75 7.5 15.5 7.5H8.4375C8.21875 8.65625 7.1875 9.5 6 9.5C4.78125 9.5 3.78125 8.65625 3.53125 7.5H0.5C0.21875 7.5 0 7.28125 0 7C0 6.75 0.21875 6.5 0.5 6.5H3.53125C3.78125 5.375 4.78125 4.5 6 4.5C7.1875 4.5 8.21875 5.375 8.4375 6.5Z" fill="black" fill-opacity="0.72"/>
</g>
<defs>
<clipPath id="clip0_3758_512">
<rect width="16" height="24" fill="white"/>
</clipPath>
</defs>
</svg>
