<svg width="12" height="24" viewBox="0 0 12 24" fill="none" xmlns="http://www.w3.org/2000/svg">
<g id="label-paired / md / four-md / bold" clip-path="url(#clip0_2556_14835)">
<path id="icon" d="M5.90625 6.125L1.96875 13.5H8.5V8.75C8.5 8.34375 8.8125 8 9.25 8C9.65625 8 10 8.34375 10 8.75V13.5H11.25C11.6562 13.5 12 13.8438 12 14.25C12 14.6875 11.6562 15 11.25 15H10V18.25C10 18.6875 9.65625 19 9.25 19C8.8125 19 8.5 18.6875 8.5 18.25V15H0.75C0.46875 15 0.21875 14.875 0.09375 14.6562C-0.03125 14.4375 -0.0625 14.1562 0.0625 13.9062L4.5625 5.40625C4.78125 5.0625 5.21875 4.90625 5.59375 5.09375C5.9375 5.28125 6.09375 5.75 5.90625 6.125Z" fill="black" fill-opacity="0.72"/>
</g>
<defs>
<clipPath id="clip0_2556_14835">
<rect width="12" height="24" fill="white"/>
</clipPath>
</defs>
</svg>
