<svg width="9" height="18" viewBox="0 0 9 18" fill="none" xmlns="http://www.w3.org/2000/svg">
<g id="label-paired / caption / bookmark-caption / bold" clip-path="url(#clip0_2556_10549)">
<path id="icon" d="M0 4.625C0 4.01562 0.492188 3.5 1.125 3.5V4.625V13.8594L4.17188 11.6797C4.35938 11.5391 4.61719 11.5391 4.82812 11.6797L7.875 13.8594V4.625H1.125V3.5H7.875C8.48438 3.5 9 4.01562 9 4.625V14.9375C9 15.1484 8.88281 15.3594 8.69531 15.4531C8.50781 15.5469 8.27344 15.5234 8.10938 15.4062L4.5 12.8281L0.867188 15.4062C0.703125 15.5234 0.492188 15.5469 0.304688 15.4531C0.117188 15.3594 0 15.1484 0 14.9375V4.625Z" fill="black" fill-opacity="0.72"/>
</g>
<defs>
<clipPath id="clip0_2556_10549">
<rect width="9" height="18" fill="white"/>
</clipPath>
</defs>
</svg>
