<svg width="18" height="30" viewBox="0 0 18 30" fill="none" xmlns="http://www.w3.org/2000/svg">
<g id="label-paired / lg / ellipsis-lg / regular" clip-path="url(#clip0_2556_17646)">
<path id="icon" d="M16.5 15.5C16.5 16.2031 15.9141 16.75 15.25 16.75C14.5469 16.75 14 16.2031 14 15.5C14 14.8359 14.5469 14.25 15.25 14.25C15.9141 14.25 16.5 14.8359 16.5 15.5ZM10.25 15.5C10.25 16.2031 9.66406 16.75 9 16.75C8.29688 16.75 7.75 16.2031 7.75 15.5C7.75 14.8359 8.29688 14.25 9 14.25C9.66406 14.25 10.25 14.8359 10.25 15.5ZM2.75 16.75C2.04688 16.75 1.5 16.2031 1.5 15.5C1.5 14.8359 2.04688 14.25 2.75 14.25C3.41406 14.25 4 14.8359 4 15.5C4 16.2031 3.41406 16.75 2.75 16.75Z" fill="black" fill-opacity="0.72"/>
</g>
<defs>
<clipPath id="clip0_2556_17646">
<rect width="18" height="30" fill="white"/>
</clipPath>
</defs>
</svg>
