<svg width="11" height="22" viewBox="0 0 11 22" fill="none" xmlns="http://www.w3.org/2000/svg">
<g id="label-paired / sm / file-arrow-down-sm / regular" clip-path="url(#clip0_3431_814)">
<path id="icon" d="M9 16.875C9.46484 16.875 9.875 16.4922 9.875 16V9H6.8125C6.07422 9 5.5 8.42578 5.5 7.6875V4.625H2C1.50781 4.625 1.125 5.03516 1.125 5.5V16C1.125 16.4922 1.50781 16.875 2 16.875H9ZM6.8125 8.125H9.84766C9.82031 8.07031 9.79297 7.98828 9.73828 7.93359L6.56641 4.76172C6.51172 4.70703 6.42969 4.67969 6.375 4.65234V7.6875C6.375 7.93359 6.56641 8.125 6.8125 8.125ZM2 3.75H6.26562C6.59375 3.75 6.94922 3.91406 7.19531 4.16016L10.3398 7.30469C10.5859 7.55078 10.75 7.90625 10.75 8.23438V16C10.75 16.9844 9.95703 17.75 9 17.75H2C1.01562 17.75 0.25 16.9844 0.25 16V5.5C0.25 4.54297 1.01562 3.75 2 3.75ZM5.9375 10.3125V13.6484L7.35938 12.1992C7.52344 12.0352 7.82422 12.0352 7.98828 12.1992C8.15234 12.3633 8.15234 12.6641 7.98828 12.8281L5.80078 15.0156C5.63672 15.1797 5.33594 15.1797 5.17188 15.0156L2.98438 12.8281C2.82031 12.6641 2.82031 12.3633 2.98438 12.1992C3.14844 12.0352 3.44922 12.0352 3.61328 12.1992L5.0625 13.6484V10.3125C5.0625 10.0938 5.25391 9.875 5.5 9.875C5.71875 9.875 5.9375 10.0938 5.9375 10.3125Z" fill="black" fill-opacity="0.72"/>
</g>
<defs>
<clipPath id="clip0_3431_814">
<rect width="11" height="22" fill="white"/>
</clipPath>
</defs>
</svg>
