<svg width="20" height="30" viewBox="0 0 20 30" fill="none" xmlns="http://www.w3.org/2000/svg">
<g id="label-paired / lg / circle-xmark-lg / regular" clip-path="url(#clip0_2556_17308)">
<path id="icon" d="M10 6.75C6.83594 6.75 3.98438 8.42969 2.42188 11.125C0.820312 13.8594 0.820312 17.1797 2.42188 19.875C3.98438 22.6094 6.83594 24.25 10 24.25C13.125 24.25 15.9766 22.6094 17.5391 19.875C19.1406 17.1797 19.1406 13.8594 17.5391 11.125C15.9766 8.42969 13.125 6.75 10 6.75ZM10 25.5C6.40625 25.5 3.125 23.625 1.32812 20.5C-0.46875 17.4141 -0.46875 13.625 1.32812 10.5C3.125 7.41406 6.40625 5.5 10 5.5C13.5547 5.5 16.8359 7.41406 18.6328 10.5C20.4297 13.625 20.4297 17.4141 18.6328 20.5C16.8359 23.625 13.5547 25.5 10 25.5ZM7.03125 12.5703C7.26562 12.3359 7.69531 12.3359 7.92969 12.5703L10 14.6406L12.0312 12.5703C12.2656 12.3359 12.6953 12.3359 12.9297 12.5703C13.1641 12.8047 13.1641 13.2344 12.9297 13.4688L10.8594 15.5L12.9297 17.5703C13.1641 17.8047 13.1641 18.2344 12.9297 18.4688C12.6953 18.7031 12.2656 18.7031 12.0312 18.4688L10 16.3984L7.92969 18.4688C7.69531 18.7031 7.26562 18.7031 7.03125 18.4688C6.79688 18.2344 6.79688 17.8047 7.03125 17.5703L9.10156 15.5L7.03125 13.4688C6.79688 13.2344 6.79688 12.8047 7.03125 12.5703Z" fill="black" fill-opacity="0.72"/>
</g>
<defs>
<clipPath id="clip0_2556_17308">
<rect width="20" height="30" fill="white"/>
</clipPath>
</defs>
</svg>
