<svg width="16" height="24" viewBox="0 0 16 24" fill="none" xmlns="http://www.w3.org/2000/svg">
<g id="label-paired / md / thumbs-up-md / bold" clip-path="url(#clip0_2355_597)">
<path id="icon" d="M10.125 5.09375C10.7292 5.28125 11.1771 5.63542 11.4688 6.15625C11.7604 6.67708 11.8229 7.25 11.6562 7.875L11.5 8.5C11.3958 8.83333 11.2708 9.16667 11.125 9.5H14C14.5625 9.52083 15.0312 9.71875 15.4062 10.0938C15.7812 10.4688 15.9792 10.9375 16 11.5C15.9792 12.0625 15.7812 12.5312 15.4062 12.9062C15.4688 13.0938 15.5 13.2917 15.5 13.5C15.4792 14.1667 15.2188 14.6979 14.7188 15.0938C14.7396 15.2188 14.75 15.3542 14.75 15.5C14.7292 16.1667 14.4792 16.6875 14 17.0625C13.9792 17.625 13.7812 18.0833 13.4062 18.4375C13.0312 18.7917 12.5625 18.9792 12 19H8.96875C8.26042 19 7.60417 18.8021 7 18.4062L5.09375 17.125C4.71875 16.8333 4.64583 16.4896 4.875 16.0938C5.16667 15.7396 5.51042 15.6667 5.90625 15.875L7.84375 17.1562C8.17708 17.3854 8.55208 17.5 8.96875 17.5H12C12.3125 17.4792 12.4792 17.3125 12.5 17C12.5 16.9583 12.4896 16.9167 12.4688 16.875C12.3854 16.4583 12.5417 16.1562 12.9375 15.9688C13.125 15.8854 13.2292 15.7292 13.25 15.5C13.25 15.375 13.2188 15.2708 13.1562 15.1875C12.9896 14.9583 12.9479 14.7188 13.0312 14.4688C13.1354 14.2188 13.3229 14.0625 13.5938 14C13.8438 13.9375 13.9792 13.7708 14 13.5C14 13.375 13.9583 13.2604 13.875 13.1562C13.7083 12.9688 13.6562 12.75 13.7188 12.5C13.7812 12.25 13.9375 12.0729 14.1875 11.9688C14.375 11.8854 14.4792 11.7292 14.5 11.5C14.4792 11.1875 14.3125 11.0208 14 11H9.8125C9.52083 11 9.30208 10.8646 9.15625 10.5938C9.03125 10.3229 9.05208 10.0625 9.21875 9.8125C9.59375 9.29167 9.86458 8.71875 10.0312 8.09375L10.2188 7.46875C10.3021 7.01042 10.1354 6.69792 9.71875 6.53125C9.26042 6.44792 8.94792 6.61458 8.78125 7.03125L8.59375 7.65625C8.40625 8.30208 8.09375 8.875 7.65625 9.375L6.0625 11.125C5.72917 11.4375 5.375 11.4583 5 11.1875C4.6875 10.8333 4.66667 10.4792 4.9375 10.125L6.5625 8.34375C6.83333 8.03125 7.03125 7.66667 7.15625 7.25L7.34375 6.625C7.53125 6.02083 7.88542 5.57292 8.40625 5.28125C8.92708 4.98958 9.5 4.92708 10.125 5.09375ZM1 10H3C3.29167 10 3.53125 10.0938 3.71875 10.2812C3.90625 10.4688 4 10.7083 4 11V18C4 18.2917 3.90625 18.5312 3.71875 18.7188C3.53125 18.9062 3.29167 19 3 19H1C0.708333 19 0.46875 18.9062 0.28125 18.7188C0.09375 18.5312 0 18.2917 0 18V11C0 10.7083 0.09375 10.4688 0.28125 10.2812C0.46875 10.0938 0.708333 10 1 10Z" fill="black" fill-opacity="0.72"/>
</g>
<defs>
<clipPath id="clip0_2355_597">
<rect width="16" height="24" fill="white"/>
</clipPath>
</defs>
</svg>
