<svg width="15" height="36" viewBox="0 0 15 36" fill="none" xmlns="http://www.w3.org/2000/svg">
<g id="label-paired / xl / dollar-sign-xl / regular" clip-path="url(#clip0_2556_19295)">
<path id="icon" d="M8.25 6.75V9.04688C9.70312 9.1875 11.1562 9.46875 12.1406 9.75C12.5625 9.84375 12.7969 10.2188 12.7031 10.6406C12.6094 11.0625 12.2344 11.2969 11.8125 11.2031C10.2656 10.8281 7.96875 10.3594 6 10.5469C5.01562 10.6406 4.125 10.875 3.51562 11.25C2.90625 11.6719 2.48438 12.2344 2.29688 13.1719C2.15625 13.8281 2.25 14.3438 2.4375 14.7188C2.625 15.1406 2.95312 15.4688 3.46875 15.7969C4.5 16.4531 6 16.8281 7.6875 17.2969H7.73438C9.32812 17.7188 11.0625 18.1875 12.3281 18.9844C12.9844 19.4062 13.5469 19.9219 13.875 20.625C14.25 21.375 14.3438 22.2188 14.1562 23.1562C13.8281 24.75 12.7031 25.8281 11.2031 26.4375C10.3594 26.7656 9.32812 26.9531 8.25 27V29.25C8.25 29.6719 7.92188 30 7.5 30C7.07812 30 6.75 29.6719 6.75 29.25V26.9531C6.46875 26.9062 6.14062 26.9062 5.85938 26.8594C4.64062 26.6719 2.76562 26.25 1.17188 25.5469C0.796875 25.4062 0.65625 24.9375 0.796875 24.5625C0.984375 24.1875 1.40625 24 1.78125 24.1875C3.1875 24.7969 4.92188 25.1719 6.04688 25.3594C7.875 25.6406 9.46875 25.5 10.6406 25.0312C11.8125 24.5625 12.4688 23.8594 12.6562 22.875C12.7969 22.1719 12.7031 21.7031 12.5156 21.2812C12.3281 20.9062 12 20.5312 11.4844 20.25C10.4531 19.5938 8.95312 19.1719 7.3125 18.75L7.21875 18.7031C5.625 18.3281 3.89062 17.8594 2.67188 17.0625C2.01562 16.6406 1.45312 16.0781 1.07812 15.375C0.75 14.6719 0.65625 13.8281 0.796875 12.8438C1.07812 11.5312 1.73438 10.6406 2.67188 9.98438C3.60938 9.42188 4.73438 9.14062 5.85938 9.04688C6.14062 9 6.42188 9 6.75 9V6.75C6.75 6.375 7.07812 6 7.5 6C7.875 6 8.25 6.375 8.25 6.75Z" fill="black" fill-opacity="0.72"/>
</g>
<defs>
<clipPath id="clip0_2556_19295">
<rect width="15" height="36" fill="white"/>
</clipPath>
</defs>
</svg>
