<svg width="20" height="30" viewBox="0 0 20 30" fill="none" xmlns="http://www.w3.org/2000/svg">
<g id="label-paired / lg / deriv-brand-logo-lg / fill" clip-path="url(#clip0_5147_478)">
<path id="icon" d="M14.6094 20.4219L14.5703 20.6172C14.1016 22.5703 12.2656 24.1328 10.2734 24.25H10.0781H7.46094H7.1875C4.41406 24.0938 2.57812 21.7891 3.08594 18.9766L3.32031 17.7266C3.82812 14.9141 6.44531 12.5703 9.25781 12.4531L9.53125 12.4141H12.6562L13.5938 7.33594L16.9922 6.75L14.6094 20.4219ZM9.14062 15.5781C7.89062 15.6953 6.79688 16.75 6.5625 17.9609L6.44531 18.7422C6.21094 20.0312 7.07031 21.125 8.39844 21.125H10C10.625 21.125 11.2109 20.5781 11.3672 19.9531L12.1094 15.5781H9.375H9.14062Z" fill="black" fill-opacity="0.72"/>
</g>
<defs>
<clipPath id="clip0_5147_478">
<rect width="20" height="30" fill="white"/>
</clipPath>
</defs>
</svg>
