<svg width="16" height="24" viewBox="0 0 16 24" fill="none" xmlns="http://www.w3.org/2000/svg">
<g id="label-paired / md / clock-three-md / fill" clip-path="url(#clip0_2556_15089)">
<path id="icon" d="M8 4C10.8438 4 13.4688 5.53125 14.9062 8C16.3438 10.5 16.3438 13.5312 14.9062 16C13.4688 18.5 10.8438 20 8 20C5.125 20 2.5 18.5 1.0625 16C-0.375 13.5312 -0.375 10.5 1.0625 8C2.5 5.53125 5.125 4 8 4ZM7.25 7.75V12C7.25 12.4375 7.5625 12.75 8 12.75H11.25C11.6562 12.75 12 12.4375 12 12C12 11.5938 11.6562 11.25 11.25 11.25H8.75V7.75C8.75 7.34375 8.40625 7 8 7C7.5625 7 7.25 7.34375 7.25 7.75Z" fill="black" fill-opacity="0.72"/>
</g>
<defs>
<clipPath id="clip0_2556_15089">
<rect width="16" height="24" fill="white"/>
</clipPath>
</defs>
</svg>
