<svg width="24" height="36" viewBox="0 0 24 36" fill="none" xmlns="http://www.w3.org/2000/svg">
<g id="label-paired / xl / circle-chevron-up-xl / fill" clip-path="url(#clip0_2556_19623)">
<path id="icon" d="M12 30C7.6875 30 3.75 27.75 1.59375 24C-0.5625 20.2969 -0.5625 15.75 1.59375 12C3.75 8.29688 7.6875 6 12 6C16.2656 6 20.2031 8.29688 22.3594 12C24.5156 15.75 24.5156 20.2969 22.3594 24C20.2031 27.75 16.2656 30 12 30ZM17.6719 18.7031L12.75 13.8281C12.3281 13.4062 11.625 13.4062 11.2031 13.8281L6.32812 18.7031C5.85938 19.1719 5.85938 19.875 6.32812 20.2969C6.75 20.7656 7.45312 20.7656 7.92188 20.2969L12 16.2188L16.0781 20.2969C16.5 20.7656 17.2031 20.7656 17.6719 20.2969C18.0938 19.875 18.0938 19.1719 17.6719 18.7031Z" fill="black" fill-opacity="0.72"/>
</g>
<defs>
<clipPath id="clip0_2556_19623">
<rect width="24" height="36" fill="white"/>
</clipPath>
</defs>
</svg>
