<svg width="18" height="36" viewBox="0 0 18 36" fill="none" xmlns="http://www.w3.org/2000/svg">
<g id="label-paired / xl / file-excel-xl / fill" clip-path="url(#clip0_2556_19254)">
<path id="icon" d="M3 6H10.5V12C10.5 12.8438 11.1562 13.5 12 13.5H18V27C18 28.6875 16.6406 30 15 30H3C1.3125 30 0 28.6875 0 27V9C0 7.35938 1.3125 6 3 6ZM12 6L18 12H12V6ZM7.26562 17.7656C6.9375 17.25 6.23438 17.1094 5.71875 17.4844C5.20312 17.8125 5.0625 18.5156 5.4375 19.0312L7.59375 22.125L5.4375 25.2656C5.0625 25.7344 5.20312 26.4375 5.71875 26.8125C6.23438 27.1875 6.9375 27.0469 7.26562 26.5312L9 24.0938L10.6875 26.5312C11.0625 27.0469 11.7188 27.1875 12.2344 26.8125C12.75 26.4375 12.8906 25.7812 12.5156 25.2656L10.3594 22.125L12.5156 19.0312C12.8906 18.5156 12.75 17.8125 12.2344 17.4844C11.7188 17.1094 11.0156 17.25 10.6875 17.7656L9 20.2031L7.26562 17.7656Z" fill="black" fill-opacity="0.72"/>
</g>
<defs>
<clipPath id="clip0_2556_19254">
<rect width="18" height="36" fill="white"/>
</clipPath>
</defs>
</svg>
