<svg width="18" height="30" viewBox="0 0 18 30" fill="none" xmlns="http://www.w3.org/2000/svg">
<g id="label-paired / lg / placeholder-lg / bold" clip-path="url(#clip0_2556_17645)">
<path id="icon" d="M3.6875 6.75H4.3125C4.82031 6.75 5.25 7.17969 5.25 7.6875C5.25 8.23438 4.82031 8.625 4.3125 8.625H3.6875C2.78906 8.625 2.125 9.32812 2.125 10.1875V10.8125C2.125 11.3594 1.69531 11.75 1.1875 11.75C0.640625 11.75 0.25 11.3594 0.25 10.8125V10.1875C0.25 8.3125 1.77344 6.75 3.6875 6.75ZM1.1875 13C1.69531 13 2.125 13.4297 2.125 13.9375V17.0625C2.125 17.6094 1.69531 18 1.1875 18C0.640625 18 0.25 17.6094 0.25 17.0625V13.9375C0.25 13.4297 0.640625 13 1.1875 13ZM16.8125 13C17.3203 13 17.75 13.4297 17.75 13.9375V17.0625C17.75 17.6094 17.3203 18 16.8125 18C16.2656 18 15.875 17.6094 15.875 17.0625V13.9375C15.875 13.4297 16.2656 13 16.8125 13ZM16.8125 11.75C16.2656 11.75 15.875 11.3594 15.875 10.8125V10.1875C15.875 9.32812 15.1719 8.625 14.3125 8.625H13.6875C13.1406 8.625 12.75 8.23438 12.75 7.6875C12.75 7.17969 13.1406 6.75 13.6875 6.75H14.3125C16.1875 6.75 17.75 8.3125 17.75 10.1875V10.8125C17.75 11.3594 17.3203 11.75 16.8125 11.75ZM17.75 20.1875V20.8125C17.75 22.7266 16.1875 24.25 14.3125 24.25H13.6875C13.1406 24.25 12.75 23.8594 12.75 23.3125C12.75 22.8047 13.1406 22.375 13.6875 22.375H14.3125C15.1719 22.375 15.875 21.7109 15.875 20.8125V20.1875C15.875 19.6797 16.2656 19.25 16.8125 19.25C17.3203 19.25 17.75 19.6797 17.75 20.1875ZM2.125 20.1875V20.8125C2.125 21.7109 2.78906 22.375 3.6875 22.375H4.3125C4.82031 22.375 5.25 22.8047 5.25 23.3125C5.25 23.8594 4.82031 24.25 4.3125 24.25H3.6875C1.77344 24.25 0.25 22.7266 0.25 20.8125V20.1875C0.25 19.6797 0.640625 19.25 1.1875 19.25C1.69531 19.25 2.125 19.6797 2.125 20.1875ZM7.4375 24.25C6.89062 24.25 6.5 23.8594 6.5 23.3125C6.5 22.8047 6.89062 22.375 7.4375 22.375H10.5625C11.0703 22.375 11.5 22.8047 11.5 23.3125C11.5 23.8594 11.0703 24.25 10.5625 24.25H7.4375ZM6.5 7.6875C6.5 7.17969 6.89062 6.75 7.4375 6.75H10.5625C11.0703 6.75 11.5 7.17969 11.5 7.6875C11.5 8.23438 11.0703 8.625 10.5625 8.625H7.4375C6.89062 8.625 6.5 8.23438 6.5 7.6875Z" fill="black" fill-opacity="0.72"/>
</g>
<defs>
<clipPath id="clip0_2556_17645">
<rect width="18" height="30" fill="white"/>
</clipPath>
</defs>
</svg>
