<svg width="20" height="30" viewBox="0 0 20 30" fill="none" xmlns="http://www.w3.org/2000/svg">
<g id="label-paired / lg / circle-three-lg / regular" clip-path="url(#clip0_2556_17307)">
<path id="icon" d="M10 6.75C6.83594 6.75 3.98438 8.42969 2.42188 11.125C0.820312 13.8594 0.820312 17.1797 2.42188 19.875C3.98438 22.6094 6.83594 24.25 10 24.25C13.125 24.25 15.9766 22.6094 17.5391 19.875C19.1406 17.1797 19.1406 13.8594 17.5391 11.125C15.9766 8.42969 13.125 6.75 10 6.75ZM10 25.5C6.40625 25.5 3.125 23.625 1.32812 20.5C-0.46875 17.4141 -0.46875 13.625 1.32812 10.5C3.125 7.41406 6.40625 5.5 10 5.5C13.5547 5.5 16.8359 7.41406 18.6328 10.5C20.4297 13.625 20.4297 17.4141 18.6328 20.5C16.8359 23.625 13.5547 25.5 10 25.5ZM6.875 10.5V10.5391H12.4609C12.7344 10.5391 12.9688 10.6953 13.0469 10.9297C13.1641 11.1641 13.0859 11.4375 12.8906 11.6328L9.80469 14.25H10.5859C12.3047 14.25 13.7109 15.6562 13.7109 17.375C13.7109 19.1328 12.3438 20.5391 10.5859 20.5391H9.17969C8.125 20.5391 7.10938 20.0312 6.44531 19.1719L6.36719 19.0156C6.13281 18.7422 6.21094 18.3516 6.48438 18.1562C6.75781 17.9219 7.14844 18 7.34375 18.2734L7.46094 18.3906C7.85156 18.9375 8.51562 19.2891 9.17969 19.2891H10.5859C11.6406 19.2891 12.4609 18.4297 12.4609 17.375C12.4609 16.3594 11.6406 15.5 10.5859 15.5H8.125C7.85156 15.5 7.61719 15.3438 7.5 15.1094C7.42188 14.875 7.5 14.6016 7.69531 14.4062L10.7812 11.75H6.875C6.52344 11.75 6.25 11.4766 6.25 11.125C6.25 10.8125 6.52344 10.5 6.875 10.5Z" fill="black" fill-opacity="0.72"/>
</g>
<defs>
<clipPath id="clip0_2556_17307">
<rect width="20" height="30" fill="white"/>
</clipPath>
</defs>
</svg>
