<svg width="16" height="22" viewBox="0 0 16 22" fill="none" xmlns="http://www.w3.org/2000/svg">
<g id="label-paired / sm / arrow-down-a-z-sm / bold" clip-path="url(#clip0_2556_12706)">
<path id="icon" d="M1.41016 14.0586C1.13672 13.8125 1.13672 13.4023 1.41016 13.1289C1.65625 12.8828 2.06641 12.8828 2.33984 13.1289L3.84375 14.6602V5.28125C3.84375 4.92578 4.11719 4.625 4.5 4.625C4.85547 4.625 5.15625 4.92578 5.15625 5.28125V14.6602L6.66016 13.1562C6.90625 12.8828 7.31641 12.8828 7.5625 13.1562C7.83594 13.4023 7.83594 13.8125 7.5625 14.0586L4.9375 16.6836C4.69141 16.957 4.28125 16.957 4.03516 16.6836L1.41016 14.0586ZM9.75 11.625H13.25C13.4961 11.625 13.7422 11.7891 13.8242 12.0352C13.9336 12.2539 13.9062 12.5273 13.7148 12.7188L11.1992 15.5625H13.25C13.6055 15.5625 13.9062 15.8633 13.9062 16.2188C13.9062 16.6016 13.6055 16.875 13.25 16.875H9.75C9.47656 16.875 9.23047 16.7383 9.14844 16.4922C9.03906 16.2734 9.06641 16 9.25781 15.8086L11.7734 12.9375H9.75C9.36719 12.9375 9.09375 12.6641 9.09375 12.2812C9.09375 11.9258 9.36719 11.625 9.75 11.625ZM11.5 4.625C11.7461 4.625 11.9648 4.78906 12.0742 5.00781L14.2617 9.38281C14.4258 9.71094 14.2891 10.0938 13.9609 10.2578C13.6328 10.4219 13.25 10.2852 13.0859 9.95703L12.7031 9.21875C12.6758 9.21875 12.6211 9.21875 12.5938 9.21875H10.2422L9.88672 9.95703C9.72266 10.2852 9.33984 10.4219 9.01172 10.2578C8.68359 10.0938 8.54688 9.71094 8.71094 9.38281L10.8984 5.00781C11.0078 4.78906 11.2266 4.625 11.5 4.625ZM10.8984 7.90625H12.0742L11.5 6.75781L10.8984 7.90625Z" fill="black" fill-opacity="0.72"/>
</g>
<defs>
<clipPath id="clip0_2556_12706">
<rect width="16" height="22" fill="white"/>
</clipPath>
</defs>
</svg>
