<svg width="15" height="18" viewBox="0 0 15 18" fill="none" xmlns="http://www.w3.org/2000/svg">
<g id="label-paired / caption / deal-cancellation-caption / fill" clip-path="url(#clip0_2556_10398)">
<path id="icon" d="M9.42188 12.9453V12.9219L9.44531 12.9453C9.82031 13.0859 10.2656 13.1562 10.7109 13.1562C11.3672 13.1562 11.9297 13.0156 12.375 12.7109C12.8203 12.4062 13.1719 11.9844 13.4297 11.4453L13.5703 11.1406L11.7656 10.0859L11.625 10.5078C11.5547 10.6953 11.4375 10.8828 11.2734 11.0234C11.1562 11.1172 10.9922 11.1875 10.7109 11.1875C10.4062 11.1875 10.1953 11.0938 10.0312 10.9297C9.86719 10.7656 9.77344 10.4844 9.77344 10.0391V9.03125C9.77344 8.58594 9.86719 8.32812 10.0312 8.16406C10.1953 7.97656 10.4062 7.88281 10.7109 7.88281C11.0156 7.88281 11.1562 7.95312 11.25 8.02344C11.3672 8.14062 11.4609 8.28125 11.5312 8.49219L11.6719 8.91406L13.5469 7.92969L13.4062 7.60156C13.1719 7.03906 12.8203 6.61719 12.3516 6.33594C11.9062 6.03125 11.3438 5.91406 10.7109 5.91406C10.2422 5.91406 9.82031 5.98438 9.42188 6.14844C9.02344 6.33594 8.69531 6.57031 8.41406 6.89844C8.13281 7.22656 7.92188 7.60156 7.78125 8.07031C7.64062 8.51562 7.57031 9.03125 7.57031 9.59375C7.57031 10.1562 7.64062 10.6484 7.78125 11.0938C7.78125 11.1172 7.78125 11.1172 7.78125 11.1172C7.92188 11.5391 8.13281 11.9141 8.41406 12.2422C8.69531 12.5469 9.02344 12.7812 9.42188 12.9453ZM4.26562 6.03125C4.71094 6.03125 5.15625 6.10156 5.53125 6.24219C5.92969 6.40625 6.28125 6.61719 6.5625 6.94531C6.84375 7.25 7.05469 7.625 7.19531 8.04688C7.33594 8.49219 7.40625 8.98438 7.40625 9.54688C7.40625 10.0859 7.33594 10.6016 7.19531 11.0234C7.19531 11.0469 7.19531 11.0469 7.19531 11.0469C7.05469 11.4688 6.84375 11.8438 6.5625 12.1484C6.28125 12.4531 5.92969 12.6875 5.53125 12.8281C5.15625 12.9922 4.73438 13.0625 4.26562 13.0625H1.52344V6.03125H4.26562ZM4.96875 10.8594C5.10938 10.7188 5.20312 10.4844 5.20312 10.0156V9.05469C5.20312 8.58594 5.10938 8.35156 4.96875 8.23438C4.82812 8.07031 4.61719 7.97656 4.26562 7.97656H3.65625V11.0938H4.26562C4.61719 11.0938 4.82812 11 4.96875 10.8594Z" fill="black" fill-opacity="0.72"/>
</g>
<defs>
<clipPath id="clip0_2556_10398">
<rect width="15" height="18" fill="white"/>
</clipPath>
</defs>
</svg>
