<svg width="15" height="30" viewBox="0 0 15 30" fill="none" xmlns="http://www.w3.org/2000/svg">
<g id="label-paired / lg / moon-lg / fill" clip-path="url(#clip0_2556_17588)">
<path id="icon" d="M8.71094 6.75V6.78906C8.94531 6.78906 9.21875 6.78906 9.45312 6.78906C9.72656 6.82812 9.96094 7.02344 10 7.29688C10.0781 7.57031 9.96094 7.84375 9.72656 7.96094C7.61719 9.13281 6.21094 11.3984 6.21094 13.9375C6.21094 17.7656 9.29688 20.8125 13.0859 20.8125C13.4766 20.8125 13.8672 20.8125 14.2578 20.7344C14.5312 20.6953 14.8047 20.8125 14.9219 21.0469C15.0391 21.3203 15 21.5938 14.8047 21.7891C13.2422 23.3125 11.0938 24.25 8.71094 24.25C3.90625 24.25 0 20.3438 0 15.5C0 10.6953 3.90625 6.75 8.71094 6.75Z" fill="black" fill-opacity="0.72"/>
</g>
<defs>
<clipPath id="clip0_2556_17588">
<rect width="15" height="30" fill="white"/>
</clipPath>
</defs>
</svg>
