<svg width="16" height="24" viewBox="0 0 16 24" fill="none" xmlns="http://www.w3.org/2000/svg">
<g id="label-paired / md / circle-chevron-left-md / regular" clip-path="url(#clip0_2556_15070)">
<path id="icon" d="M1 12C1 14.5312 2.3125 16.8125 4.5 18.0625C6.65625 19.3438 9.3125 19.3438 11.5 18.0625C13.6562 16.8125 15 14.5312 15 12C15 9.5 13.6562 7.21875 11.5 5.96875C9.3125 4.6875 6.65625 4.6875 4.5 5.96875C2.3125 7.21875 1 9.5 1 12ZM16 12C16 14.875 14.4688 17.5 12 18.9375C9.5 20.375 6.46875 20.375 4 18.9375C1.5 17.5 0 14.875 0 12C0 9.15625 1.5 6.53125 4 5.09375C6.46875 3.65625 9.5 3.65625 12 5.09375C14.4688 6.53125 16 9.15625 16 12ZM8.625 8.15625C8.8125 7.96875 9.15625 7.96875 9.34375 8.15625C9.53125 8.34375 9.53125 8.6875 9.34375 8.875L6.1875 12L9.34375 15.1562C9.53125 15.3438 9.53125 15.6875 9.34375 15.875C9.15625 16.0625 8.8125 16.0625 8.625 15.875L5.125 12.375C4.9375 12.1875 4.9375 11.8438 5.125 11.6562L8.625 8.15625Z" fill="black" fill-opacity="0.72"/>
</g>
<defs>
<clipPath id="clip0_2556_15070">
<rect width="16" height="24" fill="white"/>
</clipPath>
</defs>
</svg>
