<svg width="16" height="24" viewBox="0 0 16 24" fill="none" xmlns="http://www.w3.org/2000/svg">
<g id="label-paired / md / circle-four-md / regular" clip-path="url(#clip0_2556_15145)">
<path id="icon" d="M15 12C15 9.5 13.6562 7.21875 11.5 5.96875C9.3125 4.6875 6.65625 4.6875 4.5 5.96875C2.3125 7.21875 1 9.5 1 12C1 14.5312 2.3125 16.8125 4.5 18.0625C6.65625 19.3438 9.3125 19.3438 11.5 18.0625C13.6562 16.8125 15 14.5312 15 12ZM0 12C0 9.15625 1.5 6.53125 4 5.09375C6.46875 3.65625 9.5 3.65625 12 5.09375C14.4688 6.53125 16 9.15625 16 12C16 14.875 14.4688 17.5 12 18.9375C9.5 20.375 6.46875 20.375 4 18.9375C1.5 17.5 0 14.875 0 12ZM7.15625 8.0625C7.4375 8.15625 7.5625 8.4375 7.4375 8.6875L5.71875 13H9V10.5C9 10.25 9.21875 10 9.5 10C9.75 10 10 10.25 10 10.5V13H10.5C10.75 13 11 13.25 11 13.5C11 13.7812 10.75 14 10.5 14H10V15.5C10 15.7812 9.75 16 9.5 16C9.21875 16 9 15.7812 9 15.5V14H5C4.8125 14 4.65625 13.9375 4.5625 13.7812C4.46875 13.6562 4.46875 13.4688 4.53125 13.3438L6.53125 8.34375C6.625 8.0625 6.90625 7.9375 7.1875 8.0625H7.15625Z" fill="black" fill-opacity="0.72"/>
</g>
<defs>
<clipPath id="clip0_2556_15145">
<rect width="16" height="24" fill="white"/>
</clipPath>
</defs>
</svg>
