<svg width="23" height="30" viewBox="0 0 23 30" fill="none" xmlns="http://www.w3.org/2000/svg">
<g id="label-paired / lg / house-user-lg / bold" clip-path="url(#clip0_4670_656)">
<path id="icon" d="M10.875 5.73438C11.2266 5.46094 11.7344 5.46094 12.0859 5.73438L22.3984 14.4844C22.7891 14.8359 22.8672 15.4219 22.5156 15.8125C22.1641 16.2031 21.5781 16.2422 21.1875 15.9297L20.25 15.1094V22.375C20.25 24.1328 18.8438 25.5 17.125 25.5H5.875C4.11719 25.5 2.75 24.1328 2.75 22.375V15.1094L1.77344 15.9297C1.38281 16.2422 0.796875 16.2031 0.445312 15.8125C0.132812 15.4219 0.171875 14.8359 0.5625 14.4844L10.875 5.73438ZM4.625 13.5078V22.375C4.625 23.0781 5.17188 23.625 5.875 23.625H17.125C17.7891 23.625 18.375 23.0781 18.375 22.375V13.5078L11.5 7.6875L4.625 13.5078ZM9 14.25C9 13.3906 9.46875 12.5703 10.25 12.1016C10.9922 11.6719 11.9688 11.6719 12.75 12.1016C13.4922 12.5703 14 13.3906 14 14.25C14 15.1484 13.4922 15.9688 12.75 16.4375C11.9688 16.8672 10.9922 16.8672 10.25 16.4375C9.46875 15.9688 9 15.1484 9 14.25ZM10.25 18H12.75C14.4688 18 15.875 19.4062 15.875 21.125C15.875 21.4766 15.5625 21.75 15.25 21.75H7.75C7.39844 21.75 7.125 21.4766 7.125 21.125C7.125 19.4062 8.49219 18 10.25 18Z" fill="black" fill-opacity="0.72"/>
</g>
<defs>
<clipPath id="clip0_4670_656">
<rect width="23" height="30" fill="white"/>
</clipPath>
</defs>
</svg>
