<svg width="9" height="22" viewBox="0 0 9 22" fill="none" xmlns="http://www.w3.org/2000/svg">
<g id="label-paired / sm / five-sm / regular" clip-path="url(#clip0_2556_12513)">
<path id="icon" d="M1.4375 4.98047C1.49219 4.76172 1.65625 4.625 1.875 4.625H7.5625C7.78125 4.625 8 4.84375 8 5.0625C8 5.30859 7.78125 5.5 7.5625 5.5H2.20312L1.10938 9.875H5.375C7.28906 9.875 8.875 11.4609 8.875 13.375C8.875 15.3164 7.28906 16.875 5.375 16.875H2.42188C1.51953 16.875 0.671875 16.3828 0.261719 15.5625L0.152344 15.3438C0.0429688 15.125 0.152344 14.8516 0.34375 14.7422C0.5625 14.6328 0.835938 14.7148 0.945312 14.9336L1.05469 15.1797C1.32812 15.6992 1.84766 16.0273 2.42188 16.0273H5.375C6.82422 16.0273 8 14.8516 8 13.4023C8 11.9531 6.82422 10.7773 5.375 10.7773H0.5625C0.425781 10.7773 0.289062 10.6953 0.207031 10.5859C0.125 10.4766 0.0976562 10.3398 0.125 10.2305L1.4375 4.98047Z" fill="black" fill-opacity="0.72"/>
</g>
<defs>
<clipPath id="clip0_2556_12513">
<rect width="9" height="22" fill="white"/>
</clipPath>
</defs>
</svg>
