<svg width="24" height="36" viewBox="0 0 24 36" fill="none" xmlns="http://www.w3.org/2000/svg">
<g id="label-paired / xl / circle-info-xl / regular" clip-path="url(#clip0_2556_19578)">
<path id="icon" d="M12 7.5C8.20312 7.5 4.78125 9.51562 2.90625 12.75C0.984375 16.0312 0.984375 20.0156 2.90625 23.25C4.78125 26.5312 8.20312 28.5 12 28.5C15.75 28.5 19.1719 26.5312 21.0469 23.25C22.9688 20.0156 22.9688 16.0312 21.0469 12.75C19.1719 9.51562 15.75 7.5 12 7.5ZM12 30C7.6875 30 3.75 27.75 1.59375 24C-0.5625 20.2969 -0.5625 15.75 1.59375 12C3.75 8.29688 7.6875 6 12 6C16.2656 6 20.2031 8.29688 22.3594 12C24.5156 15.75 24.5156 20.2969 22.3594 24C20.2031 27.75 16.2656 30 12 30ZM9.75 22.5H11.25V18H10.125C9.70312 18 9.375 17.6719 9.375 17.25C9.375 16.875 9.70312 16.5 10.125 16.5H12C12.375 16.5 12.75 16.875 12.75 17.25V22.5H14.25C14.625 22.5 15 22.875 15 23.25C15 23.6719 14.625 24 14.25 24H9.75C9.32812 24 9 23.6719 9 23.25C9 22.875 9.32812 22.5 9.75 22.5ZM12 14.625C11.3438 14.625 10.875 14.1562 10.875 13.5C10.875 12.8906 11.3438 12.375 12 12.375C12.6094 12.375 13.125 12.8906 13.125 13.5C13.125 14.1562 12.6094 14.625 12 14.625Z" fill="black" fill-opacity="0.72"/>
</g>
<defs>
<clipPath id="clip0_2556_19578">
<rect width="24" height="36" fill="white"/>
</clipPath>
</defs>
</svg>
