<svg width="12" height="24" viewBox="0 0 12 24" fill="none" xmlns="http://www.w3.org/2000/svg">
<g id="label-paired / md / xmark-md / fill" clip-path="url(#clip0_2556_15250)">
<path id="icon" d="M10.6875 8.71875L7.40625 12L10.6875 15.3125C11.0938 15.6875 11.0938 16.3438 10.6875 16.7188C10.3125 17.125 9.65625 17.125 9.28125 16.7188L6 13.4375L2.6875 16.7188C2.3125 17.125 1.65625 17.125 1.28125 16.7188C0.875 16.3438 0.875 15.6875 1.28125 15.3125L4.5625 12L1.28125 8.71875C0.875 8.34375 0.875 7.6875 1.28125 7.3125C1.65625 6.90625 2.3125 6.90625 2.6875 7.3125L6 10.5938L9.28125 7.3125C9.65625 6.90625 10.3125 6.90625 10.6875 7.3125C11.0938 7.6875 11.0938 8.34375 10.6875 8.71875Z" fill="black" fill-opacity="0.72"/>
</g>
<defs>
<clipPath id="clip0_2556_15250">
<rect width="12" height="24" fill="white"/>
</clipPath>
</defs>
</svg>
