<svg width="14" height="22" viewBox="0 0 14 22" fill="none" xmlns="http://www.w3.org/2000/svg">
<g id="label-paired / sm / bank-sm / bold" clip-path="url(#clip0_2362_657)">
<path id="icon" d="M7.32812 3.83203L13.5078 7.25C13.8177 7.43229 13.9818 7.70573 14 8.07031C14 8.32552 13.9089 8.54427 13.7266 8.72656C13.5443 8.90885 13.3255 9 13.0703 9H0.929688C0.674479 9 0.455729 8.90885 0.273438 8.72656C0.0911458 8.54427 0 8.32552 0 8.07031C0.0182292 7.70573 0.182292 7.43229 0.492188 7.25L6.67188 3.83203C6.89062 3.72266 7.10938 3.72266 7.32812 3.83203ZM6.23438 7.6875C6.16146 7.5599 6.125 7.41406 6.125 7.25C6.125 6.99479 6.20703 6.78516 6.37109 6.62109C6.53516 6.45703 6.74479 6.375 7 6.375C7.25521 6.375 7.46484 6.45703 7.62891 6.62109C7.79297 6.78516 7.875 6.99479 7.875 7.25C7.875 7.41406 7.83854 7.5599 7.76562 7.6875H11.5938L7 5.14453L2.40625 7.6875H6.23438ZM1.75 9.875H3.0625V14.25H4.8125V9.875H6.125V14.25H7.875V9.875H9.1875V14.25H10.9375V9.875H12.25V14.25H12.4688C12.8698 14.2865 13.0885 14.5052 13.125 14.9062C13.0885 15.3073 12.8698 15.526 12.4688 15.5625H1.75C1.34896 15.526 1.13021 15.3073 1.09375 14.9062C1.13021 14.5052 1.34896 14.2865 1.75 14.25V9.875ZM0.875 16.4375H13.3438C13.7448 16.474 13.9635 16.6927 14 17.0938C13.9635 17.4948 13.7448 17.7135 13.3438 17.75H0.875C0.473958 17.7135 0.255208 17.4948 0.21875 17.0938C0.255208 16.6927 0.473958 16.474 0.875 16.4375Z" fill="black" fill-opacity="0.72"/>
</g>
<defs>
<clipPath id="clip0_2362_657">
<rect width="14" height="22" fill="white"/>
</clipPath>
</defs>
</svg>
