<svg width="20" height="24" viewBox="0 0 20 24" fill="none" xmlns="http://www.w3.org/2000/svg">
<g id="label-paired / md / field-password-md / fill" clip-path="url(#clip0_2512_1277)">
<path id="icon" d="M3 8C2.4375 8 2 8.46875 2 9V15C2 15.5625 2.4375 16 3 16H17C17.5312 16 18 15.5625 18 15V9C18 8.46875 17.5312 8 17 8H3ZM0 9C0 7.34375 1.34375 6 3 6H17C18.6562 6 20 7.34375 20 9V15C20 16.6562 18.6562 18 17 18H3C1.34375 18 0 16.6562 0 15V9ZM13.5 15.25C13.0625 15.25 12.75 14.9375 12.75 14.5V9.5C12.75 9.09375 13.0625 8.75 13.5 8.75C13.9062 8.75 14.25 9.09375 14.25 9.5V14.5C14.25 14.9375 13.9062 15.25 13.5 15.25ZM6.25 12C6.25 12.4688 6 12.875 5.625 13.0938C5.21875 13.3125 4.75 13.3125 4.375 13.0938C3.96875 12.875 3.75 12.4688 3.75 12C3.75 11.5625 3.96875 11.1562 4.375 10.9375C4.75 10.7188 5.21875 10.7188 5.625 10.9375C6 11.1562 6.25 11.5625 6.25 12ZM9.25 12C9.25 12.4688 9 12.875 8.625 13.0938C8.21875 13.3125 7.75 13.3125 7.375 13.0938C6.96875 12.875 6.75 12.4688 6.75 12C6.75 11.5625 6.96875 11.1562 7.375 10.9375C7.75 10.7188 8.21875 10.7188 8.625 10.9375C9 11.1562 9.25 11.5625 9.25 12ZM12.25 12C12.25 12.4688 12 12.875 11.625 13.0938C11.2188 13.3125 10.75 13.3125 10.375 13.0938C9.96875 12.875 9.75 12.4688 9.75 12C9.75 11.5625 9.96875 11.1562 10.375 10.9375C10.75 10.7188 11.2188 10.7188 11.625 10.9375C12 11.1562 12.25 11.5625 12.25 12Z" fill="black" fill-opacity="0.72"/>
</g>
<defs>
<clipPath id="clip0_2512_1277">
<rect width="20" height="24" fill="white"/>
</clipPath>
</defs>
</svg>
