<svg width="16" height="24" viewBox="0 0 16 24" fill="none" xmlns="http://www.w3.org/2000/svg">
<g id="label-paired / md / circle-sterling-md / regular" clip-path="url(#clip0_2556_14613)">
<path id="icon" d="M15 12C15 9.5 13.6562 7.21875 11.5 5.96875C9.3125 4.6875 6.65625 4.6875 4.5 5.96875C2.3125 7.21875 1 9.5 1 12C1 14.5312 2.3125 16.8125 4.5 18.0625C6.65625 19.3438 9.3125 19.3438 11.5 18.0625C13.6562 16.8125 15 14.5312 15 12ZM0 12C0 9.15625 1.5 6.53125 4 5.09375C6.46875 3.65625 9.5 3.65625 12 5.09375C14.4688 6.53125 16 9.15625 16 12C16 14.875 14.4688 17.5 12 18.9375C9.5 20.375 6.46875 20.375 4 18.9375C1.5 17.5 0 14.875 0 12ZM8.09375 8.5C7.46875 8.5 6.96875 9.03125 6.96875 9.65625V11H8.5C8.75 11 9 11.25 9 11.5C9 11.7812 8.75 12 8.5 12H6.96875C6.9375 12.7188 6.75 13.4062 6.40625 14H10.25C10.5 14 10.75 14.25 10.75 14.5C10.75 14.7812 10.5 15 10.25 15H5.5C5.3125 15 5.125 14.9062 5.03125 14.75C4.96875 14.5938 4.96875 14.375 5.0625 14.2188L5.375 13.8125C5.71875 13.2812 5.9375 12.6562 5.96875 12H5.5C5.21875 12 5 11.7812 5 11.5C5 11.25 5.21875 11 5.5 11H5.96875V9.65625C5.9375 8.46875 6.90625 7.5 8.09375 7.5C8.4375 7.5 8.75 7.59375 9.0625 7.75L9.71875 8.0625C9.96875 8.1875 10.0625 8.5 9.9375 8.75C9.8125 9 9.5 9.09375 9.25 8.96875L8.59375 8.625C8.4375 8.5625 8.28125 8.53125 8.09375 8.53125V8.5Z" fill="black" fill-opacity="0.72"/>
</g>
<defs>
<clipPath id="clip0_2556_14613">
<rect width="16" height="24" fill="white"/>
</clipPath>
</defs>
</svg>
