<svg width="20" height="24" viewBox="0 0 20 24" fill="none" xmlns="http://www.w3.org/2000/svg">
<g id="label-paired / md / computer-md / regular" clip-path="url(#clip0_2556_14752)">
<path id="icon" d="M12 6H2C1.4375 6 1 6.46875 1 7V14C1 14.5625 1.4375 15 2 15H5.375H5.75H8.25H8.59375H12C12.5312 15 13 14.5625 13 14V7C13 6.46875 12.5312 6 12 6ZM2 16C0.875 16 0 15.125 0 14V7C0 5.90625 0.875 5 2 5H12C13.0938 5 14 5.90625 14 7V14C14 15.125 13.0938 16 12 16H8.9375L9.59375 18H11.5C11.75 18 12 18.25 12 18.5C12 18.7812 11.75 19 11.5 19H9.9375H9.25H4.75H4.03125H2.5C2.21875 19 2 18.7812 2 18.5C2 18.25 2.21875 18 2.5 18H4.375L5.03125 16H2ZM5.4375 18H8.53125L7.875 16H6.09375L5.4375 18ZM16.5 6C16.2188 6 16 6.25 16 6.5V8H19V6.5C19 6.25 18.75 6 18.5 6H16.5ZM16 9V10H19V9H16ZM16 17.5C16 17.7812 16.2188 18 16.5 18H18.5C18.75 18 19 17.7812 19 17.5V11H16V17.5ZM15 6.5C15 5.6875 15.6562 5 16.5 5H18.5C19.3125 5 20 5.6875 20 6.5V17.5C20 18.3438 19.3125 19 18.5 19H16.5C15.6562 19 15 18.3438 15 17.5V6.5ZM17.5 15.25C17.0625 15.25 16.75 14.9375 16.75 14.5C16.75 14.0938 17.0625 13.75 17.5 13.75C17.9062 13.75 18.25 14.0938 18.25 14.5C18.25 14.9375 17.9062 15.25 17.5 15.25Z" fill="black" fill-opacity="0.72"/>
</g>
<defs>
<clipPath id="clip0_2556_14752">
<rect width="20" height="24" fill="white"/>
</clipPath>
</defs>
</svg>
