<svg width="10" height="24" viewBox="0 0 10 24" fill="none" xmlns="http://www.w3.org/2000/svg">
<g id="label-paired / md / two-md / bold" clip-path="url(#clip0_2556_14845)">
<path id="icon" d="M4.59375 6.5C3.75 6.5 2.96875 6.84375 2.375 7.4375L1.28125 8.53125C0.96875 8.84375 0.5 8.84375 0.21875 8.53125C-0.09375 8.25 -0.09375 7.78125 0.21875 7.5L1.3125 6.375C2.1875 5.5 3.375 5 4.59375 5H4.8125C7.25 5 9.25 7 9.25 9.4375C9.25 10.6562 8.71875 11.8125 7.84375 12.6562L2.625 17.5H9.25C9.65625 17.5 10 17.8438 10 18.25C10 18.6875 9.65625 19 9.25 19H0.75C0.4375 19 0.15625 18.8125 0.03125 18.5312C-0.0625 18.25 0 17.9375 0.21875 17.7188L6.8125 11.5625C7.40625 11 7.75 10.2188 7.75 9.4375C7.75 7.8125 6.4375 6.5 4.8125 6.5H4.59375Z" fill="black" fill-opacity="0.72"/>
</g>
<defs>
<clipPath id="clip0_2556_14845">
<rect width="10" height="24" fill="white"/>
</clipPath>
</defs>
</svg>
