<svg width="24" height="36" viewBox="0 0 24 36" fill="none" xmlns="http://www.w3.org/2000/svg">
<g id="label-paired / xl / puzzle-xl / regular" clip-path="url(#clip0_3431_1031)">
<path id="icon" d="M15 6H21C22.6406 6 24 7.35938 24 9V14.25C24 15.0938 23.2969 15.75 22.5 15.75H21C21 17.0156 19.9688 18 18.75 18C17.4844 18 16.5 17.0156 16.5 15.75H15C14.1562 15.75 13.5 15.0938 13.5 14.25V13.125C13.5 12.3281 14.1562 11.625 15 11.625H15.75C16.125 11.625 16.5 11.2969 16.5 10.875C16.5 10.5 16.125 10.125 15.75 10.125H15C14.1562 10.125 13.5 9.46875 13.5 8.625V7.5C13.5 6.70312 14.1562 6 15 6ZM15 7.5V8.625H15.75C16.9688 8.625 18 9.65625 18 10.875C18 12.1406 16.9688 13.125 15.75 13.125H15V14.25H17.25C17.625 14.25 18 14.625 18 15V15.75C18 16.1719 18.3281 16.5 18.75 16.5C19.125 16.5 19.5 16.1719 19.5 15.75V15C19.5 14.625 19.8281 14.25 20.25 14.25H22.5V9C22.5 8.20312 21.7969 7.5 21 7.5H15ZM3 9H9.75C10.5469 9 11.25 9.70312 11.25 10.5V18.75H12.75C13.5469 18.75 14.25 19.4531 14.25 20.25V21C14.25 21.4219 14.5781 21.75 15 21.75C15.375 21.75 15.75 21.4219 15.75 21V20.25C15.75 19.4531 16.4062 18.75 17.25 18.75H19.5C20.2969 18.75 21 19.4531 21 20.25V27C21 28.6875 19.6406 30 18 30H10.5H3C1.3125 30 0 28.6875 0 27V19.5V12C0 10.3594 1.3125 9 3 9ZM9.75 10.5H3C2.15625 10.5 1.5 11.2031 1.5 12V18.75H3.75V18C3.75 16.7812 4.73438 15.75 6 15.75C7.21875 15.75 8.25 16.7812 8.25 18V18.75H9.75V10.5ZM3.75 20.25H1.5V27C1.5 27.8438 2.15625 28.5 3 28.5H9.75V26.25H9C7.73438 26.25 6.75 25.2656 6.75 24C6.75 22.7812 7.73438 21.75 9 21.75H9.75V20.25H8.25C7.40625 20.25 6.75 19.5938 6.75 18.75V18C6.75 17.625 6.375 17.25 6 17.25C5.57812 17.25 5.25 17.625 5.25 18V18.75C5.25 19.5938 4.54688 20.25 3.75 20.25ZM11.25 26.25V28.5H18C18.7969 28.5 19.5 27.8438 19.5 27V20.25H17.25V21C17.25 22.2656 16.2188 23.25 15 23.25C13.7344 23.25 12.75 22.2656 12.75 21V20.25H11.25V21.75C11.25 22.5938 10.5469 23.25 9.75 23.25H9C8.57812 23.25 8.25 23.625 8.25 24C8.25 24.4219 8.57812 24.75 9 24.75H9.75C10.5469 24.75 11.25 25.4531 11.25 26.25Z" fill="black" fill-opacity="0.72"/>
</g>
<defs>
<clipPath id="clip0_3431_1031">
<rect width="24" height="36" fill="white"/>
</clipPath>
</defs>
</svg>
