<svg width="21" height="36" viewBox="0 0 21 36" fill="none" xmlns="http://www.w3.org/2000/svg">
<g id="label-paired / xl / square-minus-xl / regular" clip-path="url(#clip0_2556_19879)">
<path id="icon" d="M3 9C2.15625 9 1.5 9.70312 1.5 10.5V25.5C1.5 26.3438 2.15625 27 3 27H18C18.7969 27 19.5 26.3438 19.5 25.5V10.5C19.5 9.70312 18.7969 9 18 9H3ZM0 10.5C0 8.85938 1.3125 7.5 3 7.5H18C19.6406 7.5 21 8.85938 21 10.5V25.5C21 27.1875 19.6406 28.5 18 28.5H3C1.3125 28.5 0 27.1875 0 25.5V10.5ZM6 17.25H15C15.375 17.25 15.75 17.625 15.75 18C15.75 18.4219 15.375 18.75 15 18.75H6C5.57812 18.75 5.25 18.4219 5.25 18C5.25 17.625 5.57812 17.25 6 17.25Z" fill="black" fill-opacity="0.72"/>
</g>
<defs>
<clipPath id="clip0_2556_19879">
<rect width="21" height="36" fill="white"/>
</clipPath>
</defs>
</svg>
