<svg width="12" height="18" viewBox="0 0 12 18" fill="none" xmlns="http://www.w3.org/2000/svg">
<g id="label-paired / caption / file-certificate-caption / fill" clip-path="url(#clip0_2556_9961)">
<path id="icon" d="M3 5C3 4.17969 3.65625 3.5 4.5 3.5H8.25V6.5C8.25 6.92188 8.57812 7.25 9 7.25H12V14C12 14.8438 11.3203 15.5 10.5 15.5H5.17969C5.22656 15.3828 5.25 15.2656 5.25 15.125V13.25C5.27344 13.25 5.29688 13.2266 5.32031 13.2266C5.48438 13.1562 5.67188 13.0391 5.8125 12.8516C5.95312 12.6875 6.04688 12.4531 6.07031 12.2188C6.09375 12.1484 6.09375 12.1016 6.09375 12.0547C6.14062 12.0312 6.16406 12.0078 6.23438 11.9609C6.70312 11.5859 6.86719 10.9766 6.65625 10.4141C6.60938 10.3438 6.58594 10.2969 6.58594 10.2734C6.58594 10.2266 6.60938 10.1797 6.65625 10.1094C6.86719 9.57031 6.70312 8.9375 6.23438 8.5625C6.16406 8.51562 6.14062 8.49219 6.09375 8.46875C6.09375 8.42188 6.09375 8.375 6.07031 8.30469C6 7.71875 5.53125 7.25 4.94531 7.17969C4.875 7.15625 4.82812 7.15625 4.78125 7.15625C4.75781 7.13281 4.73438 7.08594 4.6875 7.01562C4.3125 6.54688 3.70312 6.38281 3.14062 6.61719C3.09375 6.64062 3.02344 6.66406 3 6.6875V5ZM12 6.5H9V3.5L12 6.5ZM2.55469 7.29688L2.92969 7.4375C2.95312 7.46094 3.02344 7.46094 3.07031 7.4375L3.42188 7.29688C3.65625 7.20312 3.9375 7.27344 4.10156 7.46094L4.33594 7.78906C4.35938 7.83594 4.40625 7.85938 4.45312 7.85938L4.85156 7.90625C5.10938 7.95312 5.29688 8.14062 5.34375 8.39844L5.39062 8.79688C5.39062 8.84375 5.41406 8.89062 5.46094 8.91406L5.76562 9.14844C5.97656 9.3125 6.04688 9.57031 5.95312 9.80469L5.8125 10.1797C5.78906 10.2266 5.78906 10.2969 5.8125 10.3438L5.95312 10.6953C6.04688 10.9297 5.97656 11.2109 5.78906 11.3516L5.46094 11.6094C5.41406 11.6328 5.39062 11.6797 5.39062 11.7266L5.34375 12.125C5.29688 12.3828 5.10938 12.5703 4.85156 12.6172L4.5 12.6641V15.125C4.5 15.2656 4.40625 15.4062 4.28906 15.4766C4.17188 15.5234 4.03125 15.5234 3.91406 15.4531L3 14.8438L2.0625 15.4531C1.96875 15.5234 1.80469 15.5234 1.6875 15.4766C1.57031 15.4062 1.5 15.2656 1.5 15.125V12.6641L1.125 12.6172C0.867188 12.5703 0.679688 12.3828 0.65625 12.125L0.585938 11.7266C0.585938 11.6797 0.5625 11.6328 0.515625 11.6094L0.210938 11.3516C0 11.2109 -0.0703125 10.9297 0.0234375 10.6953L0.1875 10.3203C0.1875 10.2969 0.1875 10.2266 0.1875 10.1797L0.0234375 9.82812C-0.0703125 9.59375 0 9.3125 0.210938 9.17188L0.515625 8.91406C0.5625 8.89062 0.585938 8.84375 0.585938 8.79688L0.632812 8.39844C0.679688 8.14062 0.867188 7.95312 1.125 7.90625L1.52344 7.85938C1.57031 7.85938 1.61719 7.83594 1.64062 7.78906L1.89844 7.48438C2.03906 7.27344 2.32031 7.20312 2.55469 7.29688ZM4.5 10.25C4.5 9.73438 4.19531 9.24219 3.75 8.96094C3.28125 8.70312 2.69531 8.70312 2.25 8.96094C1.78125 9.24219 1.5 9.73438 1.5 10.25C1.5 10.7891 1.78125 11.2812 2.25 11.5625C2.69531 11.8203 3.28125 11.8203 3.75 11.5625C4.19531 11.2812 4.5 10.7891 4.5 10.25Z" fill="black" fill-opacity="0.72"/>
</g>
<defs>
<clipPath id="clip0_2556_9961">
<rect width="12" height="18" fill="white"/>
</clipPath>
</defs>
</svg>
