<svg width="12" height="24" viewBox="0 0 12 24" fill="none" xmlns="http://www.w3.org/2000/svg">
<g id="label-paired / md / arrow-up-to-line-md / regular" clip-path="url(#clip0_2556_14888)">
<path id="icon" d="M0.5 5H11.5C11.75 5 12 5.25 12 5.5C12 5.78125 11.75 6 11.5 6H0.5C0.21875 6 0 5.78125 0 5.5C0 5.25 0.21875 5 0.5 5ZM6.34375 8.15625L10.3438 12.1562C10.5312 12.3438 10.5312 12.6875 10.3438 12.875C10.1562 13.0625 9.8125 13.0625 9.625 12.875L6.5 9.71875V13V18.5C6.5 18.7812 6.25 19 6 19C5.71875 19 5.5 18.7812 5.5 18.5V13V9.71875L2.34375 12.875C2.15625 13.0625 1.8125 13.0625 1.625 12.875C1.4375 12.6875 1.4375 12.3438 1.625 12.1562L5.625 8.15625C5.8125 7.96875 6.15625 7.96875 6.34375 8.15625Z" fill="black" fill-opacity="0.72"/>
</g>
<defs>
<clipPath id="clip0_2556_14888">
<rect width="12" height="24" fill="white"/>
</clipPath>
</defs>
</svg>
