<svg width="20" height="24" viewBox="0 0 20 24" fill="none" xmlns="http://www.w3.org/2000/svg">
<g id="label-paired / md / chart-trend-up-md / fill" clip-path="url(#clip0_2556_14773)">
<path id="icon" d="M19.4375 4.125C19.9375 4.375 20.125 4.96875 19.875 5.46875L16.875 11.4688C16.7188 11.8125 16.375 12 16 12H11.5938L7.875 19.4688C7.625 19.9688 7.03125 20.1562 6.53125 19.9062L0.53125 16.9062C0.03125 16.6562 -0.15625 16.0625 0.09375 15.5625C0.34375 15.0625 0.9375 14.875 1.4375 15.125L6.53125 17.6875L10.0938 10.5625C10.25 10.2188 10.5938 10 11 10H15.375L18.0938 4.5625C18.3438 4.0625 18.9375 3.875 19.4375 4.125Z" fill="black" fill-opacity="0.72"/>
</g>
<defs>
<clipPath id="clip0_2556_14773">
<rect width="20" height="24" fill="white"/>
</clipPath>
</defs>
</svg>
