<svg width="20" height="24" viewBox="0 0 20 24" fill="none" xmlns="http://www.w3.org/2000/svg">
<g id="label-paired / md / lock-pattern-md / bold" clip-path="url(#clip0_2512_1310)">
<path id="icon" d="M2.25 6C2.25 5.0625 3.03125 4.25 4 4.25C4.6875 4.25 5.28125 4.6875 5.5625 5.25H8.40625C8.6875 4.6875 9.28125 4.25 10 4.25C10.6875 4.25 11.2812 4.6875 11.5625 5.25H14.4062C14.6875 4.6875 15.2812 4.25 16 4.25C16.9375 4.25 17.75 5.0625 17.75 6C17.75 6.96875 16.9375 7.75 16 7.75C15.7812 7.75 15.5938 7.71875 15.4062 7.65625L11.625 11.4375C11.6875 11.625 11.75 11.8125 11.75 12C11.75 12.9688 10.9375 13.75 10 13.75C9.78125 13.75 9.59375 13.7188 9.40625 13.6562L5.78125 17.25H8.40625C8.6875 16.6875 9.28125 16.25 10 16.25C10.6875 16.25 11.2812 16.6875 11.5625 17.25H14.4062C14.6875 16.6875 15.2812 16.25 16 16.25C16.9375 16.25 17.75 17.0625 17.75 18C17.75 18.9688 16.9375 19.75 16 19.75C15.2812 19.75 14.6875 19.3438 14.4062 18.75H11.5625C11.2812 19.3438 10.6875 19.75 10 19.75C9.28125 19.75 8.6875 19.3438 8.40625 18.75H5.5625C5.28125 19.3438 4.6875 19.75 4 19.75C3.03125 19.75 2.25 18.9688 2.25 18C2.25 17.0625 3.03125 16.25 4 16.25C4.1875 16.25 4.375 16.3125 4.5625 16.375L8.34375 12.5938C8.28125 12.4062 8.25 12.2188 8.25 12C8.25 11.0625 9.03125 10.25 10 10.25C10.1875 10.25 10.375 10.3125 10.5625 10.375L14.1875 6.75H11.5625C11.2812 7.34375 10.6875 7.75 10 7.75C9.28125 7.75 8.6875 7.34375 8.40625 6.75H5.5625C5.28125 7.34375 4.6875 7.75 4 7.75C3.03125 7.75 2.25 6.96875 2.25 6ZM2.25 12C2.25 12.6562 2.5625 13.2188 3.125 13.5312C3.65625 13.8438 4.3125 13.8438 4.875 13.5312C5.40625 13.2188 5.75 12.6562 5.75 12C5.75 11.375 5.40625 10.8125 4.875 10.5C4.3125 10.1875 3.65625 10.1875 3.125 10.5C2.5625 10.8125 2.25 11.375 2.25 12ZM14.25 12C14.25 12.6562 14.5625 13.2188 15.125 13.5312C15.6562 13.8438 16.3125 13.8438 16.875 13.5312C17.4062 13.2188 17.75 12.6562 17.75 12C17.75 11.375 17.4062 10.8125 16.875 10.5C16.3125 10.1875 15.6562 10.1875 15.125 10.5C14.5625 10.8125 14.25 11.375 14.25 12Z" fill="black" fill-opacity="0.72"/>
</g>
<defs>
<clipPath id="clip0_2512_1310">
<rect width="20" height="24" fill="white"/>
</clipPath>
</defs>
</svg>
