<svg width="15" height="18" viewBox="0 0 15 18" fill="none" xmlns="http://www.w3.org/2000/svg">
<g id="label-paired / caption / bell-on-caption / fill" clip-path="url(#clip0_2556_10148)">
<path id="icon" d="M7.5 3.5C7.89844 3.5 8.25 3.85156 8.25 4.25V4.71875C9.96094 5.04688 11.25 6.57031 11.25 8.375V8.82031C11.25 9.92188 11.6484 11 12.375 11.8203L12.5391 12.0078C12.75 12.2422 12.7969 12.5469 12.6797 12.8281C12.5625 13.0859 12.2812 13.25 12 13.25H3C2.69531 13.25 2.41406 13.0859 2.29688 12.8281C2.17969 12.5469 2.22656 12.2422 2.4375 12.0078L2.60156 11.8203C3.32812 11 3.75 9.92188 3.75 8.82031V8.375C3.75 6.57031 5.03906 5.04688 6.75 4.71875V4.25C6.75 3.85156 7.07812 3.5 7.5 3.5ZM8.55469 15.0781C8.27344 15.3594 7.89844 15.5 7.5 15.5C7.10156 15.5 6.70312 15.3594 6.42188 15.0781C6.14062 14.7969 6 14.3984 6 14H7.5H9C9 14.3984 8.83594 14.7969 8.55469 15.0781ZM0 8.1875C0 7.88281 0.234375 7.625 0.5625 7.625H2.4375C2.74219 7.625 3 7.88281 3 8.1875C3 8.51562 2.74219 8.75 2.4375 8.75H0.5625C0.234375 8.75 0 8.51562 0 8.1875ZM12.5625 7.625H14.4375C14.7422 7.625 15 7.88281 15 8.1875C15 8.51562 14.7422 8.75 14.4375 8.75H12.5625C12.2344 8.75 12 8.51562 12 8.1875C12 7.88281 12.2344 7.625 12.5625 7.625ZM13.9922 4.01562C14.1328 4.29688 14.0156 4.625 13.7344 4.76562L12.2344 5.51562C11.9531 5.65625 11.625 5.53906 11.4844 5.25781C11.3438 4.97656 11.4609 4.64844 11.7422 4.50781L13.2422 3.75781C13.5234 3.61719 13.8516 3.73438 13.9922 4.01562ZM1.24219 4.76562C0.960938 4.625 0.84375 4.29688 0.984375 4.01562C1.125 3.73438 1.45312 3.61719 1.73438 3.75781L3.23438 4.50781C3.51562 4.64844 3.63281 4.97656 3.49219 5.25781C3.35156 5.53906 3.02344 5.65625 2.74219 5.51562L1.24219 4.76562Z" fill="black" fill-opacity="0.72"/>
</g>
<defs>
<clipPath id="clip0_2556_10148">
<rect width="15" height="18" fill="white"/>
</clipPath>
</defs>
</svg>
