<svg width="24" height="36" viewBox="0 0 24 36" fill="none" xmlns="http://www.w3.org/2000/svg">
<g id="label-paired / xl / filter-xl / bold" clip-path="url(#clip0_3758_451)">
<path id="icon" d="M0 9.46875C0 8.39062 0.84375 7.5 1.92188 7.5H22.0312C23.1094 7.5 24 8.39062 24 9.46875C24 9.9375 23.8125 10.3594 23.5312 10.6875L15.75 20.2969V27C15.75 27.8438 15.0469 28.5 14.2031 28.5C13.875 28.5 13.5469 28.4062 13.2656 28.1719L8.95312 24.75C8.48438 24.375 8.25 23.8594 8.25 23.2969V20.2969L0.421875 10.6875C0.140625 10.3594 0 9.9375 0 9.46875ZM2.57812 9.75L10.2188 19.1719C10.4062 19.4062 10.5 19.6406 10.5 19.875V23.1094L13.5 25.5V19.875C13.5 19.6406 13.5469 19.4062 13.7344 19.1719L21.4219 9.75H2.57812Z" fill="black" fill-opacity="0.72"/>
</g>
<defs>
<clipPath id="clip0_3758_451">
<rect width="24" height="36" fill="white"/>
</clipPath>
</defs>
</svg>
