<svg width="23" height="30" viewBox="0 0 23 30" fill="none" xmlns="http://www.w3.org/2000/svg">
<g id="label-paired / lg / star-lg / regular" clip-path="url(#clip0_2556_17432)">
<path id="icon" d="M9.07812 12.1016C8.88281 12.4922 8.53125 12.7266 8.14062 12.8047L2.78906 13.5859L6.65625 17.4531C6.96875 17.7266 7.08594 18.1562 7.00781 18.5469L6.10938 24.0156L10.875 21.4375C11.2656 21.2422 11.6953 21.2422 12.0859 21.4375L16.8516 24.0156L15.9531 18.5469C15.875 18.1562 15.9922 17.7266 16.3047 17.4531L20.1719 13.5859L14.8203 12.8047C14.3906 12.7266 14.0391 12.4922 13.8828 12.1016L11.4609 7.17969L9.07812 12.1016ZM16.8125 25.4219H16.8516L11.5 22.5312L6.14844 25.4219C5.83594 25.5781 5.44531 25.5391 5.13281 25.3438C4.85938 25.1094 4.70312 24.7578 4.78125 24.4062L5.79688 18.3516L1.46094 14.0547C1.1875 13.7812 1.10938 13.4297 1.22656 13.0781C1.34375 12.7656 1.61719 12.4922 1.96875 12.4531L7.94531 11.5547L10.6406 6.04688C10.7969 5.73438 11.1094 5.5 11.4609 5.5C11.8516 5.5 12.1641 5.73438 12.3203 6.04688L15.0156 11.5547L20.9922 12.4531C21.3438 12.4922 21.6172 12.7656 21.7344 13.0781C21.8516 13.4297 21.7734 13.7812 21.5 14.0547L17.1641 18.3516L18.1797 24.4062C18.2578 24.7578 18.1016 25.1094 17.8281 25.3438C17.5156 25.5391 17.1641 25.5781 16.8125 25.4219Z" fill="black" fill-opacity="0.72"/>
</g>
<defs>
<clipPath id="clip0_2556_17432">
<rect width="23" height="30" fill="white"/>
</clipPath>
</defs>
</svg>
