<svg width="16" height="24" viewBox="0 0 16 24" fill="none" xmlns="http://www.w3.org/2000/svg">
<g id="label-paired / md / gauge-max-md / regular" clip-path="url(#clip0_2556_15048)">
<path id="icon" d="M8 19C10.5 19 12.7812 17.6875 14.0312 15.5C15.3125 13.3438 15.3125 10.6875 14.0312 8.5C12.7812 6.34375 10.5 5 8 5C5.46875 5 3.1875 6.34375 1.9375 8.5C0.65625 10.6875 0.65625 13.3438 1.9375 15.5C3.1875 17.6875 5.46875 19 8 19ZM8 4C10.8438 4 13.4688 5.53125 14.9062 8C16.3438 10.5 16.3438 13.5312 14.9062 16C13.4688 18.5 10.8438 20 8 20C5.125 20 2.5 18.5 1.0625 16C-0.375 13.5312 -0.375 10.5 1.0625 8C2.5 5.53125 5.125 4 8 4ZM8.75 7C8.75 7.4375 8.40625 7.75 8 7.75C7.5625 7.75 7.25 7.4375 7.25 7C7.25 6.59375 7.5625 6.25 8 6.25C8.40625 6.25 8.75 6.59375 8.75 7ZM7 15C7 15.5625 7.4375 16 8 16C8.53125 16 9 15.5625 9 15C9 14.4688 8.53125 14 8 14C7.4375 14 7 14.4688 7 15ZM6 15C6 13.9062 6.875 13 8 13C8.53125 13 9.03125 13.2188 9.375 13.5938L12.7188 11.5938C12.9688 11.4375 13.2812 11.5312 13.4062 11.75C13.5625 12 13.4688 12.3125 13.25 12.4375L9.90625 14.4375C9.96875 14.625 10 14.8125 10 15C10 16.125 9.09375 17 8 17C6.875 17 6 16.125 6 15ZM12.25 8.5C12.25 8.9375 11.9062 9.25 11.5 9.25C11.0625 9.25 10.75 8.9375 10.75 8.5C10.75 8.09375 11.0625 7.75 11.5 7.75C11.9062 7.75 12.25 8.09375 12.25 8.5ZM3 11.25C3.40625 11.25 3.75 11.5938 3.75 12C3.75 12.4375 3.40625 12.75 3 12.75C2.5625 12.75 2.25 12.4375 2.25 12C2.25 11.5938 2.5625 11.25 3 11.25ZM5.25 8.5C5.25 8.9375 4.90625 9.25 4.5 9.25C4.0625 9.25 3.75 8.9375 3.75 8.5C3.75 8.09375 4.0625 7.75 4.5 7.75C4.90625 7.75 5.25 8.09375 5.25 8.5Z" fill="black" fill-opacity="0.72"/>
</g>
<defs>
<clipPath id="clip0_2556_15048">
<rect width="16" height="24" fill="white"/>
</clipPath>
</defs>
</svg>
