<svg width="20" height="30" viewBox="0 0 20 30" fill="none" xmlns="http://www.w3.org/2000/svg">
<g id="label-paired / lg / circle-arrow-up-left-lg / regular" clip-path="url(#clip0_2556_17356)">
<path id="icon" d="M10 6.75C6.83594 6.75 3.98438 8.42969 2.42188 11.125C0.820312 13.8594 0.820312 17.1797 2.42188 19.875C3.98438 22.6094 6.83594 24.25 10 24.25C13.125 24.25 15.9766 22.6094 17.5391 19.875C19.1406 17.1797 19.1406 13.8594 17.5391 11.125C15.9766 8.42969 13.125 6.75 10 6.75ZM10 25.5C6.40625 25.5 3.125 23.625 1.32812 20.5C-0.46875 17.4141 -0.46875 13.625 1.32812 10.5C3.125 7.41406 6.40625 5.5 10 5.5C13.5547 5.5 16.8359 7.41406 18.6328 10.5C20.4297 13.625 20.4297 17.4141 18.6328 20.5C16.8359 23.625 13.5547 25.5 10 25.5ZM12.1875 11.75C12.5 11.75 12.8125 12.0625 12.8125 12.375C12.8125 12.7266 12.5 13 12.1875 13H8.35938L13.5547 18.1953C13.7891 18.4297 13.7891 18.8594 13.5547 19.0938C13.3203 19.3281 12.8906 19.3281 12.6562 19.0938L7.5 13.8984V18C7.5 18.3516 7.1875 18.625 6.875 18.625C6.52344 18.625 6.25 18.3516 6.25 18V12.375C6.25 12.0625 6.52344 11.75 6.875 11.75H12.1875Z" fill="black" fill-opacity="0.72"/>
</g>
<defs>
<clipPath id="clip0_2556_17356">
<rect width="20" height="30" fill="white"/>
</clipPath>
</defs>
</svg>
