<svg width="24" height="36" viewBox="0 0 24 36" fill="none" xmlns="http://www.w3.org/2000/svg">
<g id="label-paired / xl / circle-arrow-right-xl / bold" clip-path="url(#clip0_2556_19804)">
<path id="icon" d="M21.75 18C21.75 14.5312 19.875 11.3438 16.875 9.5625C13.8281 7.82812 10.125 7.82812 7.125 9.5625C4.07812 11.3438 2.25 14.5312 2.25 18C2.25 21.5156 4.07812 24.7031 7.125 26.4844C10.125 28.2188 13.8281 28.2188 16.875 26.4844C19.875 24.7031 21.75 21.5156 21.75 18ZM0 18C0 13.7344 2.25 9.79688 6 7.64062C9.70312 5.48438 14.25 5.48438 18 7.64062C21.7031 9.79688 24 13.7344 24 18C24 22.3125 21.7031 26.25 18 28.4062C14.25 30.5625 9.70312 30.5625 6 28.4062C2.25 26.25 0 22.3125 0 18ZM13.5469 22.9219C13.0781 23.3906 12.375 23.3906 11.9531 22.9219C11.4844 22.5 11.4844 21.7969 11.9531 21.3281L14.1562 19.125H7.125C6.46875 19.125 6 18.6562 6 18C6 17.3906 6.46875 16.875 7.125 16.875H14.1562L11.9531 14.6719C11.4844 14.25 11.4844 13.5469 11.9531 13.125C12.375 12.6562 13.0781 12.6562 13.5469 13.125L17.6719 17.25C18.0938 17.6719 18.0938 18.375 17.6719 18.7969L13.5469 22.9219Z" fill="black" fill-opacity="0.72"/>
</g>
<defs>
<clipPath id="clip0_2556_19804">
<rect width="24" height="36" fill="white"/>
</clipPath>
</defs>
</svg>
