<svg width="14" height="24" viewBox="0 0 14 24" fill="none" xmlns="http://www.w3.org/2000/svg">
<g id="label-paired / md / square-md / regular" clip-path="url(#clip0_2556_15161)">
<path id="icon" d="M12 6H2C1.4375 6 1 6.46875 1 7V17C1 17.5625 1.4375 18 2 18H12C12.5312 18 13 17.5625 13 17V7C13 6.46875 12.5312 6 12 6ZM2 5H12C13.0938 5 14 5.90625 14 7V17C14 18.125 13.0938 19 12 19H2C0.875 19 0 18.125 0 17V7C0 5.90625 0.875 5 2 5Z" fill="black" fill-opacity="0.72"/>
</g>
<defs>
<clipPath id="clip0_2556_15161">
<rect width="14" height="24" fill="white"/>
</clipPath>
</defs>
</svg>
