<svg width="9" height="22" viewBox="0 0 9 22" fill="none" xmlns="http://www.w3.org/2000/svg">
<g id="label-paired / sm / pause-sm / regular" clip-path="url(#clip0_2556_12626)">
<path id="icon" d="M1.4375 6.375C1.19141 6.375 1 6.59375 1 6.8125V14.6875C1 14.9336 1.19141 15.125 1.4375 15.125H2.75C2.96875 15.125 3.1875 14.9336 3.1875 14.6875V6.8125C3.1875 6.59375 2.96875 6.375 2.75 6.375H1.4375ZM0.125 6.8125C0.125 6.10156 0.699219 5.5 1.4375 5.5H2.75C3.46094 5.5 4.0625 6.10156 4.0625 6.8125V14.6875C4.0625 15.4258 3.46094 16 2.75 16H1.4375C0.699219 16 0.125 15.4258 0.125 14.6875V6.8125ZM6.25 6.375C6.00391 6.375 5.8125 6.59375 5.8125 6.8125V14.6875C5.8125 14.9336 6.00391 15.125 6.25 15.125H7.5625C7.78125 15.125 8 14.9336 8 14.6875V6.8125C8 6.59375 7.78125 6.375 7.5625 6.375H6.25ZM4.9375 6.8125C4.9375 6.10156 5.51172 5.5 6.25 5.5H7.5625C8.27344 5.5 8.875 6.10156 8.875 6.8125V14.6875C8.875 15.4258 8.27344 16 7.5625 16H6.25C5.51172 16 4.9375 15.4258 4.9375 14.6875V6.8125Z" fill="black" fill-opacity="0.72"/>
</g>
<defs>
<clipPath id="clip0_2556_12626">
<rect width="9" height="22" fill="white"/>
</clipPath>
</defs>
</svg>
