<svg width="18" height="36" viewBox="0 0 18 36" fill="none" xmlns="http://www.w3.org/2000/svg">
<g id="label-paired / xl / file-check-xl / regular" clip-path="url(#clip0_2556_19248)">
<path id="icon" d="M15 28.5C15.7969 28.5 16.5 27.8438 16.5 27V15H11.25C9.98438 15 9 14.0156 9 12.75V7.5H3C2.15625 7.5 1.5 8.20312 1.5 9V27C1.5 27.8438 2.15625 28.5 3 28.5H15ZM11.25 13.5H16.4531C16.4062 13.4062 16.3594 13.2656 16.2656 13.1719L10.8281 7.73438C10.7344 7.64062 10.5938 7.59375 10.5 7.54688V12.75C10.5 13.1719 10.8281 13.5 11.25 13.5ZM3 6H10.3125C10.875 6 11.4844 6.28125 11.9062 6.70312L17.2969 12.0938C17.7188 12.5156 18 13.125 18 13.6875V27C18 28.6875 16.6406 30 15 30H3C1.3125 30 0 28.6875 0 27V9C0 7.35938 1.3125 6 3 6ZM13.2656 19.7812L8.25 24.7969C7.96875 25.0781 7.5 25.0781 7.21875 24.7969L4.6875 22.3125C4.40625 22.0312 4.40625 21.5156 4.6875 21.2344C4.96875 20.9531 5.48438 20.9531 5.76562 21.2344L7.73438 23.2031L12.1875 18.75C12.4688 18.4688 12.9844 18.4688 13.2656 18.75C13.5469 19.0312 13.5469 19.5 13.2656 19.7812Z" fill="black" fill-opacity="0.72"/>
</g>
<defs>
<clipPath id="clip0_2556_19248">
<rect width="18" height="36" fill="white"/>
</clipPath>
</defs>
</svg>
