<svg width="20" height="30" viewBox="0 0 20 30" fill="none" xmlns="http://www.w3.org/2000/svg">
<g id="label-paired / lg / clapperboard-play-lg / fill" clip-path="url(#clip0_3431_944)">
<path id="icon" d="M17.6953 6.78906L12.7734 11.7109L12.7344 11.75H9.10156L14.1016 6.78906L14.1406 6.75H17.5C17.5781 6.75 17.6172 6.78906 17.6953 6.78906ZM15.3516 11.75L19.4531 7.6875C19.7656 8.11719 20 8.66406 20 9.25V11.75H15.3516ZM7.85156 6.75H11.4844L6.52344 11.7109L6.48438 11.75H2.85156L7.85156 6.78906L7.89062 6.75H7.85156ZM5.23438 6.75L0.273438 11.7109L0.234375 11.75H0V9.25C0 7.88281 1.09375 6.75 2.5 6.75H5.23438ZM0 13H20V21.75C20 23.1562 18.8672 24.25 17.5 24.25H2.5C1.09375 24.25 0 23.1562 0 21.75V13ZM8.4375 15.5781C8.24219 15.6953 8.125 15.9297 8.125 16.125V21.125C8.125 21.3594 8.24219 21.5938 8.4375 21.7109C8.63281 21.7891 8.90625 21.7891 9.0625 21.6719L12.8125 19.1719C13.0078 19.0547 13.125 18.8594 13.125 18.625C13.125 18.4297 13.0078 18.2344 12.8125 18.1172L9.0625 15.6172C8.90625 15.5 8.63281 15.5 8.4375 15.5781Z" fill="black" fill-opacity="0.72"/>
</g>
<defs>
<clipPath id="clip0_3431_944">
<rect width="20" height="30" fill="white"/>
</clipPath>
</defs>
</svg>
