<svg width="23" height="30" viewBox="0 0 23 30" fill="none" xmlns="http://www.w3.org/2000/svg">
<g id="label-paired / lg / pen-line-lg / bold" clip-path="url(#clip0_2556_17012)">
<path id="icon" d="M0.757812 22.6484L1.65625 19.6016C1.8125 19.0547 2.125 18.5469 2.51562 18.1562L14.3906 6.28125C15.3672 5.30469 16.9688 5.30469 17.9453 6.28125L19.4688 7.80469C19.5859 7.92188 19.7031 8.07812 19.7812 8.19531C20.4453 9.17188 20.3281 10.5 19.4688 11.3594L7.59375 23.2344C7.55469 23.2734 7.47656 23.3125 7.4375 23.3906C7.04688 23.7031 6.61719 23.9375 6.14844 24.0938L3.10156 24.9922L1.42188 25.4609C1.10938 25.5781 0.757812 25.5 0.523438 25.2266C0.25 24.9922 0.171875 24.6406 0.289062 24.3281L0.757812 22.6484ZM3.17969 21.0469L2.55469 23.1953L4.70312 22.5703L5.60156 22.2969C5.875 22.2188 6.07031 22.1016 6.26562 21.9062L15.2109 12.9609L12.7891 10.5391L3.84375 19.4844C3.80469 19.4844 3.80469 19.5234 3.76562 19.5625C3.60938 19.7188 3.53125 19.9141 3.45312 20.1484L3.17969 21.0469ZM9.9375 23.625H21.8125C22.3203 23.625 22.75 24.0547 22.75 24.5625C22.75 25.1094 22.3203 25.5 21.8125 25.5H9.9375C9.39062 25.5 9 25.1094 9 24.5625C9 24.0547 9.39062 23.625 9.9375 23.625Z" fill="black" fill-opacity="0.72"/>
</g>
<defs>
<clipPath id="clip0_2556_17012">
<rect width="23" height="30" fill="white"/>
</clipPath>
</defs>
</svg>
