<svg width="16" height="24" viewBox="0 0 16 24" fill="none" xmlns="http://www.w3.org/2000/svg">
<g id="label-paired / md / circle-eight-md / bold" clip-path="url(#clip0_2556_14858)">
<path id="icon" d="M14.5 12C14.5 9.6875 13.25 7.5625 11.25 6.375C9.21875 5.21875 6.75 5.21875 4.75 6.375C2.71875 7.5625 1.5 9.6875 1.5 12C1.5 14.3438 2.71875 16.4688 4.75 17.6562C6.75 18.8125 9.21875 18.8125 11.25 17.6562C13.25 16.4688 14.5 14.3438 14.5 12ZM0 12C0 9.15625 1.5 6.53125 4 5.09375C6.46875 3.65625 9.5 3.65625 12 5.09375C14.4688 6.53125 16 9.15625 16 12C16 14.875 14.4688 17.5 12 18.9375C9.5 20.375 6.46875 20.375 4 18.9375C1.5 17.5 0 14.875 0 12ZM8.25 8C9.46875 8 10.5 9.03125 10.5 10.25C10.5 10.75 10.3438 11.2188 10.0625 11.5625C10.625 12.0312 11 12.7188 11 13.5C11 14.9062 9.875 16 8.5 16H7.5C6.09375 16 5 14.9062 5 13.5C5 12.7188 5.34375 12.0312 5.90625 11.5625C5.65625 11.2188 5.5 10.75 5.5 10.25C5.5 9.03125 6.5 8 7.75 8H8.25ZM7.75 11H8.25C8.65625 11 9 10.6875 9 10.25C9 9.84375 8.65625 9.5 8.25 9.5H7.75C7.3125 9.5 7 9.84375 7 10.25C7 10.6875 7.3125 11 7.75 11ZM8.25 12.5H7.75H7.5C6.9375 12.5 6.5 12.9688 6.5 13.5C6.5 14.0625 6.9375 14.5 7.5 14.5H8.5C9.03125 14.5 9.5 14.0625 9.5 13.5C9.5 12.9688 9.03125 12.5 8.5 12.5H8.25Z" fill="black" fill-opacity="0.72"/>
</g>
<defs>
<clipPath id="clip0_2556_14858">
<rect width="16" height="24" fill="white"/>
</clipPath>
</defs>
</svg>
