<svg width="14" height="22" viewBox="0 0 14 22" fill="none" xmlns="http://www.w3.org/2000/svg">
<g id="label-paired / sm / circle-calendar-sm / regular" clip-path="url(#clip0_2556_12935)">
<path id="icon" d="M13.125 10.75C13.125 8.5625 11.9492 6.56641 10.0625 5.47266C8.14844 4.35156 5.82422 4.35156 3.9375 5.47266C2.02344 6.56641 0.875 8.5625 0.875 10.75C0.875 12.9648 2.02344 14.9609 3.9375 16.0547C5.82422 17.1758 8.14844 17.1758 10.0625 16.0547C11.9492 14.9609 13.125 12.9648 13.125 10.75ZM0 10.75C0 8.26172 1.3125 5.96484 3.5 4.70703C5.66016 3.44922 8.3125 3.44922 10.5 4.70703C12.6602 5.96484 14 8.26172 14 10.75C14 13.2656 12.6602 15.5625 10.5 16.8203C8.3125 18.0781 5.66016 18.0781 3.5 16.8203C1.3125 15.5625 0 13.2656 0 10.75ZM5.6875 6.375C5.90625 6.375 6.125 6.59375 6.125 6.8125V7.25H7.875V6.8125C7.875 6.59375 8.06641 6.375 8.3125 6.375C8.53125 6.375 8.75 6.59375 8.75 6.8125V7.25H9.1875C9.89844 7.25 10.5 7.85156 10.5 8.5625V9V9.875V12.9375C10.5 13.6758 9.89844 14.25 9.1875 14.25H4.8125C4.07422 14.25 3.5 13.6758 3.5 12.9375V9.875V9V8.5625C3.5 7.85156 4.07422 7.25 4.8125 7.25H5.25V6.8125C5.25 6.59375 5.44141 6.375 5.6875 6.375ZM4.375 8.5625V9H9.625V8.5625C9.625 8.34375 9.40625 8.125 9.1875 8.125H8.3125H5.6875H4.8125C4.56641 8.125 4.375 8.34375 4.375 8.5625ZM9.625 9.875H4.375V12.9375C4.375 13.1836 4.56641 13.375 4.8125 13.375H9.1875C9.40625 13.375 9.625 13.1836 9.625 12.9375V9.875Z" fill="black" fill-opacity="0.72"/>
</g>
<defs>
<clipPath id="clip0_2556_12935">
<rect width="14" height="22" fill="white"/>
</clipPath>
</defs>
</svg>
