<svg width="18" height="24" viewBox="0 0 18 24" fill="none" xmlns="http://www.w3.org/2000/svg">
<g id="label-paired / md / arrow-down-a-z-md / regular" clip-path="url(#clip0_2556_14788)">
<path id="icon" d="M8.34375 15.875L5.34375 18.875C5.15625 19.0625 4.8125 19.0625 4.625 18.875L1.625 15.875C1.4375 15.6875 1.4375 15.3438 1.625 15.1562C1.8125 14.9688 2.15625 14.9688 2.34375 15.1562L4.5 17.3125V5.5C4.5 5.25 4.71875 5 5 5C5.25 5 5.5 5.25 5.5 5.5V17.3125L7.625 15.1562C7.8125 14.9688 8.15625 14.9688 8.34375 15.1562C8.53125 15.3438 8.53125 15.6875 8.34375 15.875ZM13.4375 5.28125L15.4375 9.28125C15.4375 9.28125 15.4375 9.28125 15.4375 9.3125L15.9375 10.2812C16.0625 10.5312 15.9688 10.8438 15.7188 10.9688C15.4688 11.0938 15.1562 10.9688 15.0312 10.75L14.6875 10H11.2812L10.9375 10.75C10.8125 11 10.5 11.0938 10.25 10.9688C10 10.8438 9.90625 10.5312 10.0312 10.2812L10.5312 9.3125C10.5312 9.28125 10.5312 9.28125 10.5312 9.28125L12.5312 5.28125C12.625 5.125 12.7812 5 13 5C13.1875 5 13.3438 5.125 13.4375 5.28125ZM13 6.625L11.7812 9H14.1875L13 6.625ZM11 13H15C15.1875 13 15.3438 13.125 15.4375 13.3125C15.5312 13.4688 15.5 13.6875 15.375 13.8125L12.0312 18H15C15.25 18 15.5 18.25 15.5 18.5C15.5 18.7812 15.25 19 15 19H11C10.7812 19 10.625 18.9062 10.5312 18.7188C10.4688 18.5625 10.4688 18.3438 10.5938 18.1875L13.9375 14H11C10.7188 14 10.5 13.7812 10.5 13.5C10.5 13.25 10.7188 13 11 13Z" fill="black" fill-opacity="0.72"/>
</g>
<defs>
<clipPath id="clip0_2556_14788">
<rect width="18" height="24" fill="white"/>
</clipPath>
</defs>
</svg>
