<svg width="16" height="24" viewBox="0 0 16 24" fill="none" xmlns="http://www.w3.org/2000/svg">
<g id="label-paired / md / file-csv-md / regular" clip-path="url(#clip0_2556_14561)">
<path id="icon" d="M2 19H3V20H2C0.875 20 0 19.125 0 18V6C0 4.90625 0.875 4 2 4H6.875C7.25 4 7.65625 4.1875 7.9375 4.46875L11.5312 8.0625C11.8125 8.34375 12 8.75 12 9.125V13H11V10H7.5C6.65625 10 6 9.34375 6 8.5V5H2C1.4375 5 1 5.46875 1 6V18C1 18.5625 1.4375 19 2 19ZM10.9688 9C10.9375 8.9375 10.9062 8.84375 10.8438 8.78125L7.21875 5.15625C7.15625 5.09375 7.0625 5.0625 7 5.03125V8.5C7 8.78125 7.21875 9 7.5 9H10.9688ZM6.25 15H6.75C7.4375 15 8 15.5625 8 16.25V16.5C8 16.7812 7.75 17 7.5 17C7.21875 17 7 16.7812 7 16.5V16.25C7 16.125 6.875 16 6.75 16H6.25C6.09375 16 6 16.125 6 16.25V18.75C6 18.9062 6.09375 19 6.25 19H6.75C6.875 19 7 18.9062 7 18.75V18.5C7 18.25 7.21875 18 7.5 18C7.75 18 8 18.25 8 18.5V18.75C8 19.4688 7.4375 20 6.75 20H6.25C5.53125 20 5 19.4688 5 18.75V16.25C5 15.5625 5.53125 15 6.25 15ZM10.4062 15H11.5C11.75 15 12 15.25 12 15.5C12 15.7812 11.75 16 11.5 16H10.4062C10.1562 16 10 16.1875 10 16.4375C10 16.5938 10.0938 16.7188 10.2188 16.8125L11.4062 17.3125C11.9062 17.5312 12.25 18.0625 12.25 18.5938C12.25 19.375 11.5938 20 10.8125 20H9.5C9.21875 20 9 19.7812 9 19.5C9 19.25 9.21875 19 9.5 19H10.8125C11.0625 19 11.25 18.8438 11.25 18.5938C11.25 18.4375 11.1562 18.2812 11 18.2188L9.8125 17.7188C9.3125 17.5 9 16.9688 9 16.4375C9 15.6562 9.625 15 10.4062 15ZM13.5 15C13.75 15 14 15.25 14 15.5V16.5C14 17.2188 14.1562 17.9375 14.5 18.5625C14.8125 17.9375 15 17.2188 15 16.5V15.5C15 15.25 15.2188 15 15.5 15C15.75 15 16 15.25 16 15.5V16.5C16 17.5938 15.6562 18.6562 15.0625 19.5625L14.9062 19.7812C14.8125 19.9375 14.6562 20 14.5 20C14.3125 20 14.1562 19.9375 14.0625 19.7812L13.9062 19.5625C13.3125 18.6562 13 17.5938 13 16.5V15.5C13 15.25 13.2188 15 13.5 15Z" fill="black" fill-opacity="0.72"/>
</g>
<defs>
<clipPath id="clip0_2556_14561">
<rect width="16" height="24" fill="white"/>
</clipPath>
</defs>
</svg>
