<svg width="15" height="18" viewBox="0 0 15 18" fill="none" xmlns="http://www.w3.org/2000/svg">
<g id="label-paired / caption / fiat-offramp-caption / fill" clip-path="url(#clip0_2556_10609)">
<path id="icon" d="M4.10156 5.75V6.26562H5.10938C5.25 6.26562 5.36719 6.14844 5.36719 6.00781C5.36719 5.86719 5.25 5.75 5.10938 5.75H4.10156ZM4.10156 6.75781V7.25H5.10938C5.25 7.25 5.36719 7.13281 5.36719 6.99219C5.36719 6.875 5.25 6.75781 5.10938 6.75781H4.10156ZM10.3828 9.3125C12.0938 9.3125 13.5 10.6953 13.5 12.4062C13.5 14.1172 12.0938 15.5 10.3828 15.5H3.49219C2.39062 15.5 1.5 14.6094 1.5 13.5078V6.61719C1.5 4.90625 2.88281 3.5 4.59375 3.5C6.30469 3.5 7.6875 4.90625 7.6875 6.61719C7.6875 6.875 7.66406 7.13281 7.59375 7.36719L9.63281 9.40625C9.86719 9.33594 10.125 9.3125 10.3828 9.3125ZM2.625 13.5078C2.625 13.9766 3.02344 14.375 3.49219 14.375H7.99219C7.54688 13.8594 7.28906 13.1562 7.28906 12.4062C7.28906 11.3984 7.78125 10.4844 8.55469 9.92188L7.07812 8.44531C6.51562 9.21875 5.625 9.71094 4.59375 9.71094C3.84375 9.71094 3.14062 9.45312 2.625 9.00781V13.5078ZM4.10156 5.25781V4.74219H3.60938V5.25781H3.11719V5.75H3.60938V7.25H3.11719V7.76562H3.60938V8.25781H4.10156V7.76562H4.61719V8.25781H5.10938V7.76562C5.50781 7.76562 5.85938 7.4375 5.85938 7.01562C5.85938 6.82812 5.78906 6.64062 5.64844 6.5C5.92969 6.19531 5.90625 5.72656 5.60156 5.44531C5.46094 5.32812 5.29688 5.25781 5.10938 5.25781V4.74219H4.61719V5.25781H4.10156ZM10.8047 10.9062V10.625H10.1719V10.9062C9.77344 11.0234 9.51562 11.3984 9.51562 11.8203C9.51562 12.3594 9.9375 12.8047 10.4766 12.8047C10.6875 12.8047 10.8516 12.9688 10.8516 13.1797C10.8516 13.3672 10.6875 13.5312 10.4766 13.5312C10.2891 13.5312 10.125 13.3672 10.125 13.1797V13.0859H9.51562V13.1797C9.51562 13.6016 9.77344 13.9766 10.1719 14.0938V14.375H10.8047V14.0938C11.2031 13.9766 11.4609 13.6016 11.4609 13.1797C11.4609 12.6406 11.0156 12.1953 10.4766 12.1953C10.2891 12.1953 10.125 12.0312 10.125 11.8203C10.125 11.6328 10.2891 11.4688 10.4766 11.4688C10.6875 11.4688 10.8516 11.6328 10.8516 11.8203V11.9141H11.4609V11.8203C11.4609 11.3984 11.2031 11.0234 10.8047 10.9062ZM11.3203 6.24219V8.42188C11.3203 8.65625 11.1797 8.84375 10.9688 8.9375C10.7578 9.03125 10.5234 8.98438 10.3594 8.82031L8.17969 6.64062C7.96875 6.42969 7.96875 6.07812 8.17969 5.84375C8.39062 5.63281 8.76562 5.63281 8.97656 5.84375L10.1953 7.0625V6.24219C10.1953 5.9375 10.4297 5.67969 10.7578 5.67969C11.0625 5.67969 11.3203 5.9375 11.3203 6.24219Z" fill="black" fill-opacity="0.72"/>
</g>
<defs>
<clipPath id="clip0_2556_10609">
<rect width="15" height="18" fill="white"/>
</clipPath>
</defs>
</svg>
