<svg width="12" height="18" viewBox="0 0 12 18" fill="none" xmlns="http://www.w3.org/2000/svg">
<g id="label-paired / caption / circle-zero-caption / regular" clip-path="url(#clip0_2556_10226)">
<path id="icon" d="M6 4.25C4.10156 4.25 2.39062 5.25781 1.45312 6.875C0.492188 8.51562 0.492188 10.5078 1.45312 12.125C2.39062 13.7656 4.10156 14.75 6 14.75C7.875 14.75 9.58594 13.7656 10.5234 12.125C11.4844 10.5078 11.4844 8.51562 10.5234 6.875C9.58594 5.25781 7.875 4.25 6 4.25ZM6 15.5C3.84375 15.5 1.875 14.375 0.796875 12.5C-0.28125 10.6484 -0.28125 8.375 0.796875 6.5C1.875 4.64844 3.84375 3.5 6 3.5C8.13281 3.5 10.1016 4.64844 11.1797 6.5C12.2578 8.375 12.2578 10.6484 11.1797 12.5C10.1016 14.375 8.13281 15.5 6 15.5ZM6 6.5C7.24219 6.5 8.25 7.50781 8.25 8.75V10.25C8.25 11.4922 7.24219 12.5 6 12.5C4.75781 12.5 3.75 11.4922 3.75 10.25V8.75C3.75 7.50781 4.75781 6.5 6 6.5ZM4.5 8.75V10.25C4.5 11.0938 5.15625 11.75 6 11.75C6.82031 11.75 7.5 11.0938 7.5 10.25V8.75C7.5 7.92969 6.82031 7.25 6 7.25C5.15625 7.25 4.5 7.92969 4.5 8.75Z" fill="black" fill-opacity="0.72"/>
</g>
<defs>
<clipPath id="clip0_2556_10226">
<rect width="12" height="18" fill="white"/>
</clipPath>
</defs>
</svg>
