<svg width="24" height="36" viewBox="0 0 24 36" fill="none" xmlns="http://www.w3.org/2000/svg">
<g id="label-paired / xl / circle-four-xl / fill" clip-path="url(#clip0_2556_19543)">
<path id="icon" d="M0 18C0 13.7344 2.25 9.79688 6 7.64062C9.70312 5.48438 14.25 5.48438 18 7.64062C21.7031 9.79688 24 13.7344 24 18C24 22.3125 21.7031 26.25 18 28.4062C14.25 30.5625 9.70312 30.5625 6 28.4062C2.25 26.25 0 22.3125 0 18ZM10.4531 12.0938C9.89062 11.8594 9.23438 12.1875 9.04688 12.7969L6.79688 19.5469C6.65625 19.875 6.75 20.25 6.9375 20.5312C7.17188 20.8594 7.5 21 7.875 21H12.75V22.875C12.75 23.5312 13.2188 24 13.875 24C14.4844 24 15 23.5312 15 22.875V21H15.375C15.9844 21 16.5 20.5312 16.5 19.875C16.5 19.2656 15.9844 18.75 15.375 18.75H15V16.125C15 15.5156 14.4844 15 13.875 15C13.2188 15 12.75 15.5156 12.75 16.125V18.75H9.42188L11.1562 13.5C11.3906 12.8906 11.0625 12.2812 10.4531 12.0938Z" fill="black" fill-opacity="0.72"/>
</g>
<defs>
<clipPath id="clip0_2556_19543">
<rect width="24" height="36" fill="white"/>
</clipPath>
</defs>
</svg>
