<svg width="18" height="24" viewBox="0 0 18 24" fill="none" xmlns="http://www.w3.org/2000/svg">
<g id="label-paired / md / desktop-md / fill" clip-path="url(#clip0_2981_930)">
<path id="icon" d="M2 4H16C17.0938 4 18 4.90625 18 6V15C18 16.125 17.0938 17 16 17H10.5L10.8125 18H13C13.5312 18 14 18.4688 14 19C14 19.5625 13.5312 20 13 20H5C4.4375 20 4 19.5625 4 19C4 18.4688 4.4375 18 5 18H7.15625L7.5 17H2C0.875 17 0 16.125 0 15V6C0 4.90625 0.875 4 2 4ZM16 6H2V13H16V6Z" fill="black" fill-opacity="0.72"/>
</g>
<defs>
<clipPath id="clip0_2981_930">
<rect width="18" height="24" fill="white"/>
</clipPath>
</defs>
</svg>
