<svg width="14" height="24" viewBox="0 0 14 24" fill="none" xmlns="http://www.w3.org/2000/svg">
<g id="label-paired / md / square-list-md / regular" clip-path="url(#clip0_3004_434)">
<path id="icon" d="M2 6C1.4375 6 1 6.46875 1 7V17C1 17.5625 1.4375 18 2 18H12C12.5312 18 13 17.5625 13 17V7C13 6.46875 12.5312 6 12 6H2ZM0 7C0 5.90625 0.875 5 2 5H12C13.0938 5 14 5.90625 14 7V17C14 18.125 13.0938 19 12 19H2C0.875 19 0 18.125 0 17V7ZM3.25 9C3.25 8.59375 3.5625 8.25 4 8.25C4.40625 8.25 4.75 8.59375 4.75 9C4.75 9.4375 4.40625 9.75 4 9.75C3.5625 9.75 3.25 9.4375 3.25 9ZM6 9C6 8.75 6.21875 8.5 6.5 8.5H10.5C10.75 8.5 11 8.75 11 9C11 9.28125 10.75 9.5 10.5 9.5H6.5C6.21875 9.5 6 9.28125 6 9ZM6 12C6 11.75 6.21875 11.5 6.5 11.5H10.5C10.75 11.5 11 11.75 11 12C11 12.2812 10.75 12.5 10.5 12.5H6.5C6.21875 12.5 6 12.2812 6 12ZM6 15C6 14.75 6.21875 14.5 6.5 14.5H10.5C10.75 14.5 11 14.75 11 15C11 15.2812 10.75 15.5 10.5 15.5H6.5C6.21875 15.5 6 15.2812 6 15ZM4 12.75C3.5625 12.75 3.25 12.4375 3.25 12C3.25 11.5938 3.5625 11.25 4 11.25C4.40625 11.25 4.75 11.5938 4.75 12C4.75 12.4375 4.40625 12.75 4 12.75ZM3.25 15C3.25 14.5938 3.5625 14.25 4 14.25C4.40625 14.25 4.75 14.5938 4.75 15C4.75 15.4375 4.40625 15.75 4 15.75C3.5625 15.75 3.25 15.4375 3.25 15Z" fill="black" fill-opacity="0.72"/>
</g>
<defs>
<clipPath id="clip0_3004_434">
<rect width="14" height="24" fill="white"/>
</clipPath>
</defs>
</svg>
