<svg width="18" height="24" viewBox="0 0 18 24" fill="none" xmlns="http://www.w3.org/2000/svg">
<g id="label-paired / md / rectangle-barcode-md / regular" clip-path="url(#clip0_2556_15156)">
<path id="icon" d="M2 6C1.4375 6 1 6.46875 1 7V17C1 17.5625 1.4375 18 2 18H16C16.5312 18 17 17.5625 17 17V7C17 6.46875 16.5312 6 16 6H2ZM0 7C0 5.90625 0.875 5 2 5H16C17.0938 5 18 5.90625 18 7V17C18 18.125 17.0938 19 16 19H2C0.875 19 0 18.125 0 17V7ZM3 8.5C3 8.25 3.21875 8 3.5 8C3.75 8 4 8.25 4 8.5V15.5C4 15.7812 3.75 16 3.5 16C3.21875 16 3 15.7812 3 15.5V8.5ZM12 8.5C12 8.25 12.2188 8 12.5 8C12.75 8 13 8.25 13 8.5V15.5C13 15.7812 12.75 16 12.5 16C12.2188 16 12 15.7812 12 15.5V8.5ZM14.5 8C14.75 8 15 8.25 15 8.5V15.5C15 15.7812 14.75 16 14.5 16C14.2188 16 14 15.7812 14 15.5V8.5C14 8.25 14.2188 8 14.5 8ZM5 8.5C5 8.25 5.21875 8 5.5 8C5.75 8 6 8.25 6 8.5V15.5C6 15.7812 5.75 16 5.5 16C5.21875 16 5 15.7812 5 15.5V8.5ZM7.5 8C7.75 8 8 8.25 8 8.5V15.5C8 15.7812 7.75 16 7.5 16C7.21875 16 7 15.7812 7 15.5V8.5C7 8.25 7.21875 8 7.5 8ZM9.5 8.5C9.5 8.25 9.71875 8 10 8C10.25 8 10.5 8.25 10.5 8.5V15.5C10.5 15.7812 10.25 16 10 16C9.71875 16 9.5 15.7812 9.5 15.5V8.5Z" fill="black" fill-opacity="0.72"/>
</g>
<defs>
<clipPath id="clip0_2556_15156">
<rect width="18" height="24" fill="white"/>
</clipPath>
</defs>
</svg>
