<svg width="18" height="24" viewBox="0 0 18 24" fill="none" xmlns="http://www.w3.org/2000/svg">
<g id="label-paired / md / house-blank-md / regular" clip-path="url(#clip0_2556_14979)">
<path id="icon" d="M8.65625 4.125C8.84375 3.96875 9.125 3.96875 9.3125 4.125L17.8125 11.625C18.0312 11.8125 18.0312 12.125 17.875 12.3438C17.6875 12.5625 17.375 12.5625 17.1562 12.375L16 11.3438V17.5C16 18.9062 14.875 20 13.5 20H4.5C3.09375 20 2 18.9062 2 17.5V11.3438L0.8125 12.375C0.625 12.5625 0.28125 12.5625 0.125 12.3438C-0.0625 12.125 -0.0625 11.8125 0.15625 11.625L8.65625 4.125ZM3 10.4688V17.5C3 18.3438 3.65625 19 4.5 19H13.5C14.3125 19 15 18.3438 15 17.5V10.4688L9 5.1875L3 10.4688Z" fill="black" fill-opacity="0.72"/>
</g>
<defs>
<clipPath id="clip0_2556_14979">
<rect width="18" height="24" fill="white"/>
</clipPath>
</defs>
</svg>
