<svg width="11" height="22" viewBox="0 0 11 22" fill="none" xmlns="http://www.w3.org/2000/svg">
<g id="label-paired / sm / arrow-up-to-line-sm / fill" clip-path="url(#clip0_2556_12635)">
<path id="icon" d="M1.125 4.625H9.875C10.3398 4.625 10.75 5.03516 10.75 5.5C10.75 5.99219 10.3398 6.375 9.875 6.375H1.125C0.632812 6.375 0.25 5.99219 0.25 5.5C0.25 5.03516 0.632812 4.625 1.125 4.625ZM6.10156 8.39844L9.60156 11.8984C9.95703 12.2266 9.95703 12.8008 9.60156 13.1289C9.27344 13.4844 8.69922 13.4844 8.37109 13.1289L6.375 11.1328V16C6.375 16.4922 5.96484 16.875 5.5 16.875C5.00781 16.875 4.625 16.4922 4.625 16V11.1328L2.60156 13.1289C2.27344 13.4844 1.69922 13.4844 1.37109 13.1289C1.01562 12.8008 1.01562 12.2266 1.37109 11.8984L4.87109 8.39844C5.19922 8.04297 5.77344 8.04297 6.10156 8.39844Z" fill="black" fill-opacity="0.72"/>
</g>
<defs>
<clipPath id="clip0_2556_12635">
<rect width="11" height="22" fill="white"/>
</clipPath>
</defs>
</svg>
