<svg width="24" height="36" viewBox="0 0 24 36" fill="none" xmlns="http://www.w3.org/2000/svg">
<g id="label-paired / xl / thumbs-up-xl / regular" clip-path="url(#clip0_2556_19874)">
<path id="icon" d="M13.5 9.84375L13.3125 10.6406C12.7969 12.5156 11.5781 14.1562 9.9375 15.1875L9.79688 15.2812C9.42188 15.5156 9.09375 15.8438 8.8125 16.2188C8.57812 16.5469 8.10938 16.6406 7.78125 16.4062C7.45312 16.125 7.35938 15.6562 7.59375 15.3281C7.96875 14.8125 8.4375 14.3906 9 14.0156L9.14062 13.9219C10.4531 13.0781 11.4375 11.7656 11.8594 10.2188L12.0469 9.46875C12.4688 8.0625 13.875 7.21875 15.2812 7.59375C16.6875 8.01562 17.5312 9.42188 17.1562 10.8281L16.9219 11.625C16.7344 12.2812 16.5 12.8906 16.2188 13.5H21C22.6406 13.5 24 14.8594 24 16.5C24 17.3438 23.625 18.0938 23.1094 18.6562C23.2031 18.9375 23.25 19.2188 23.25 19.5C23.25 20.3906 22.8281 21.1875 22.2656 21.75C22.4062 22.0781 22.5 22.5 22.5 22.875C22.5 24 21.8906 24.9844 21 25.5C21 27.1875 19.6406 28.5 18 28.5H13.7812C12.75 28.5 11.7188 28.2188 10.875 27.6562L9.04688 26.4375C8.48438 26.0156 7.96875 25.5469 7.59375 24.9375C7.35938 24.6094 7.45312 24.1406 7.82812 23.9062C8.15625 23.6719 8.625 23.7656 8.85938 24.1406C9.14062 24.5625 9.46875 24.8906 9.89062 25.1719L11.7188 26.3906C12.3281 26.8125 13.0312 27 13.7812 27H18C18.7969 27 19.5 26.3438 19.5 25.5C19.5 25.4062 19.4531 25.3125 19.4531 25.2188C19.3594 24.8438 19.5938 24.4219 19.9688 24.3281C20.5312 24.1406 21 23.5781 21 22.9219C21 22.5469 20.8594 22.2188 20.6719 21.9844C20.5312 21.7969 20.4844 21.6094 20.5312 21.375C20.5781 21.1406 20.7188 20.9531 20.9062 20.8594C21.4219 20.625 21.75 20.1094 21.75 19.5469C21.75 19.2656 21.6562 18.9844 21.5156 18.7969C21.3281 18.4219 21.4688 18 21.7969 17.8125C22.2188 17.5312 22.5 17.0625 22.5 16.5469C22.5 15.7031 21.7969 15.0469 21 15.0469H14.9531C14.6719 15.0469 14.4375 14.8594 14.2969 14.625C14.1562 14.3906 14.1562 14.1094 14.2969 13.875C14.8125 13.0781 15.2344 12.1406 15.4688 11.2031L15.7031 10.4531C15.8438 9.84375 15.5156 9.23438 14.9062 9.04688C14.2969 8.90625 13.6875 9.23438 13.5 9.84375ZM1.5 16.5V27H4.5V16.5H1.5ZM0 16.5C0 15.7031 0.65625 15 1.5 15H4.5C5.29688 15 6 15.7031 6 16.5V27C6 27.8438 5.29688 28.5 4.5 28.5H1.5C0.65625 28.5 0 27.8438 0 27V16.5Z" fill="black" fill-opacity="0.72"/>
</g>
<defs>
<clipPath id="clip0_2556_19874">
<rect width="24" height="36" fill="white"/>
</clipPath>
</defs>
</svg>
