<svg width="15" height="30" viewBox="0 0 15 30" fill="none" xmlns="http://www.w3.org/2000/svg">
<g id="label-paired / lg / arrow-up-to-line-lg / fill" clip-path="url(#clip0_2556_17387)">
<path id="icon" d="M1.25 6.75H13.75C14.4141 6.75 15 7.33594 15 8C15 8.70312 14.4141 9.25 13.75 9.25H1.25C0.546875 9.25 0 8.70312 0 8C0 7.33594 0.546875 6.75 1.25 6.75ZM8.35938 12.1406L13.3594 17.1406C13.8672 17.6094 13.8672 18.4297 13.3594 18.8984C12.8906 19.4062 12.0703 19.4062 11.6016 18.8984L8.75 16.0469V23C8.75 23.7031 8.16406 24.25 7.5 24.25C6.79688 24.25 6.25 23.7031 6.25 23V16.0469L3.35938 18.8984C2.89062 19.4062 2.07031 19.4062 1.60156 18.8984C1.09375 18.4297 1.09375 17.6094 1.60156 17.1406L6.60156 12.1406C7.07031 11.6328 7.89062 11.6328 8.35938 12.1406Z" fill="black" fill-opacity="0.72"/>
</g>
<defs>
<clipPath id="clip0_2556_17387">
<rect width="15" height="30" fill="white"/>
</clipPath>
</defs>
</svg>
