<svg width="24" height="36" viewBox="0 0 24 36" fill="none" xmlns="http://www.w3.org/2000/svg">
<g id="label-paired / xl / file-doc-xl / regular" clip-path="url(#clip0_2556_19258)">
<path id="icon" d="M3 28.5H4.5V30H3C1.3125 30 0 28.6875 0 27V9C0 7.35938 1.3125 6 3 6H10.3125C10.875 6 11.4844 6.28125 11.9062 6.70312L17.2969 12.0938C17.7188 12.5156 18 13.125 18 13.6875V19.5H16.5V15H11.25C9.98438 15 9 14.0156 9 12.75V7.5H3C2.15625 7.5 1.5 8.20312 1.5 9V27C1.5 27.8438 2.15625 28.5 3 28.5ZM16.4531 13.5C16.4062 13.4062 16.3594 13.2656 16.2656 13.1719L10.8281 7.73438C10.7344 7.64062 10.5938 7.59375 10.5 7.54688V12.75C10.5 13.1719 10.8281 13.5 11.25 13.5H16.4531ZM8.25 22.5H9.75C10.9688 22.5 12 23.5312 12 24.75V27.75C12 29.0156 10.9688 30 9.75 30H8.25C7.82812 30 7.5 29.6719 7.5 29.25V23.25C7.5 22.875 7.82812 22.5 8.25 22.5ZM9 28.5H9.75C10.125 28.5 10.5 28.1719 10.5 27.75V24.75C10.5 24.375 10.125 24 9.75 24H9V28.5ZM21.375 22.5H22.125C23.1562 22.5 24 23.3438 24 24.375V24.75C24 25.1719 23.625 25.5 23.25 25.5C22.8281 25.5 22.5 25.1719 22.5 24.75V24.375C22.5 24.1875 22.3125 24 22.125 24H21.375C21.1406 24 21 24.1875 21 24.375V28.125C21 28.3594 21.1406 28.5 21.375 28.5H22.125C22.3125 28.5 22.5 28.3594 22.5 28.125V27.75C22.5 27.375 22.8281 27 23.25 27C23.625 27 24 27.375 24 27.75V28.125C24 29.2031 23.1562 30 22.125 30H21.375C20.2969 30 19.5 29.2031 19.5 28.125V24.375C19.5 23.3438 20.2969 22.5 21.375 22.5ZM13.5 24.375C13.5 23.3438 14.2969 22.5 15.375 22.5H16.125C17.1562 22.5 18 23.3438 18 24.375V28.125C18 29.2031 17.1562 30 16.125 30H15.375C14.2969 30 13.5 29.2031 13.5 28.125V24.375ZM15.375 24C15.1406 24 15 24.1875 15 24.375V28.125C15 28.3594 15.1406 28.5 15.375 28.5H16.125C16.3125 28.5 16.5 28.3594 16.5 28.125V24.375C16.5 24.1875 16.3125 24 16.125 24H15.375Z" fill="black" fill-opacity="0.72"/>
</g>
<defs>
<clipPath id="clip0_2556_19258">
<rect width="24" height="36" fill="white"/>
</clipPath>
</defs>
</svg>
