<svg width="15" height="36" viewBox="0 0 15 36" fill="none" xmlns="http://www.w3.org/2000/svg">
<g id="label-paired / xl / euro-sign-xl / bold" clip-path="url(#clip0_2556_19382)">
<path id="icon" d="M2.25 17.25H1.125C0.46875 17.25 0 16.7812 0 16.125C0 15.5156 0.46875 15 1.125 15H2.67188C3.9375 10.6875 7.96875 7.5 12.75 7.5H13.875C14.4844 7.5 15 8.01562 15 8.625C15 9.28125 14.4844 9.75 13.875 9.75H12.75C9.23438 9.75 6.23438 11.9531 5.0625 15H12.375C12.9844 15 13.5 15.5156 13.5 16.125C13.5 16.7812 12.9844 17.25 12.375 17.25H4.5C4.5 17.5312 4.5 17.7656 4.5 18C4.5 18.2812 4.5 18.5156 4.5 18.75H12.375C12.9844 18.75 13.5 19.2656 13.5 19.875C13.5 20.5312 12.9844 21 12.375 21H5.0625C6.23438 24.0938 9.23438 26.25 12.75 26.25H13.875C14.4844 26.25 15 26.7656 15 27.375C15 28.0312 14.4844 28.5 13.875 28.5H12.75C7.96875 28.5 3.9375 25.3594 2.67188 21H1.125C0.46875 21 0 20.5312 0 19.875C0 19.2656 0.46875 18.75 1.125 18.75H2.25C2.25 18.5156 2.25 18.2812 2.25 18C2.25 17.7656 2.25 17.5312 2.25 17.25Z" fill="black" fill-opacity="0.72"/>
</g>
<defs>
<clipPath id="clip0_2556_19382">
<rect width="15" height="36" fill="white"/>
</clipPath>
</defs>
</svg>
