<svg width="16" height="24" viewBox="0 0 16 24" fill="none" xmlns="http://www.w3.org/2000/svg">
<g id="label-paired / md / right-from-bracket-md / bold" clip-path="url(#clip0_2556_15128)">
<path id="icon" d="M11 8.59375V10.25C11 10.6875 10.6562 11 10.25 11H6.5V13H10.25C10.6562 13 11 13.3438 11 13.75V15.4375L14.4375 12L11 8.59375ZM16 12C16 12.375 15.8438 12.7188 15.5938 12.9688L11.9688 16.5938C11.6875 16.875 11.3125 17 10.9375 17C10.125 17 9.5 16.375 9.5 15.5625V14.5H6.5C5.65625 14.5 5 13.8438 5 13V11C5 10.1875 5.65625 9.5 6.5 9.5H9.5V8.46875C9.5 7.65625 10.125 7 10.9375 7C11.3125 7 11.6875 7.15625 11.9688 7.4375L15.5938 11.0625C15.8438 11.3125 16 11.6562 16 12ZM5.25 6.5H2.75C2.03125 6.5 1.5 7.0625 1.5 7.75V16.25C1.5 16.9688 2.03125 17.5 2.75 17.5H5.25C5.65625 17.5 6 17.8438 6 18.25C6 18.6875 5.65625 19 5.25 19H2.75C1.21875 19 0 17.7812 0 16.25V7.75C0 6.25 1.21875 5 2.75 5H5.25C5.65625 5 6 5.34375 6 5.75C6 6.1875 5.65625 6.5 5.25 6.5Z" fill="black" fill-opacity="0.72"/>
</g>
<defs>
<clipPath id="clip0_2556_15128">
<rect width="16" height="24" fill="white"/>
</clipPath>
</defs>
</svg>
