<svg width="14" height="22" viewBox="0 0 14 22" fill="none" xmlns="http://www.w3.org/2000/svg">
<g id="label-paired / sm / circle-bookmark-sm / regular" clip-path="url(#clip0_2556_12970)">
<path id="icon" d="M7 4.625C4.78516 4.625 2.78906 5.80078 1.69531 7.6875C0.574219 9.60156 0.574219 11.9258 1.69531 13.8125C2.78906 15.7266 4.78516 16.875 7 16.875C9.1875 16.875 11.1836 15.7266 12.2773 13.8125C13.3984 11.9258 13.3984 9.60156 12.2773 7.6875C11.1836 5.80078 9.1875 4.625 7 4.625ZM7 17.75C4.48438 17.75 2.1875 16.4375 0.929688 14.25C-0.328125 12.0898 -0.328125 9.4375 0.929688 7.25C2.1875 5.08984 4.48438 3.75 7 3.75C9.48828 3.75 11.7852 5.08984 13.043 7.25C14.3008 9.4375 14.3008 12.0898 13.043 14.25C11.7852 16.4375 9.48828 17.75 7 17.75ZM5.25 8.5625V12.9102L6.72656 11.7344C6.86328 11.5977 7.10938 11.5977 7.27344 11.7344L8.75 12.9102V8.5625C8.75 8.34375 8.53125 8.125 8.3125 8.125H5.6875C5.44141 8.125 5.25 8.34375 5.25 8.5625ZM5.6875 7.25H8.3125C9.02344 7.25 9.625 7.85156 9.625 8.5625V13.8125C9.625 14.0039 9.51562 14.1406 9.35156 14.2227C9.21484 14.3047 9.02344 14.2773 8.91406 14.168L7 12.6367L5.08594 14.168C4.94922 14.2773 4.75781 14.2773 4.62109 14.2227C4.45703 14.1406 4.375 14.0039 4.375 13.8125V8.5625C4.375 7.85156 4.94922 7.25 5.6875 7.25Z" fill="black" fill-opacity="0.72"/>
</g>
<defs>
<clipPath id="clip0_2556_12970">
<rect width="14" height="22" fill="white"/>
</clipPath>
</defs>
</svg>
