<svg width="18" height="36" viewBox="0 0 18 36" fill="none" xmlns="http://www.w3.org/2000/svg">
<g id="label-paired / xl / file-invoice-dollar-xl / fill" clip-path="url(#clip0_2556_19243)">
<path id="icon" d="M3 6H10.5V12C10.5 12.8438 11.1562 13.5 12 13.5H18V27C18 28.6875 16.6406 30 15 30H3C1.3125 30 0 28.6875 0 27V9C0 7.35938 1.3125 6 3 6ZM12 6L18 12H12V6ZM3 9.75C3 10.1719 3.32812 10.5 3.75 10.5H6.75C7.125 10.5 7.5 10.1719 7.5 9.75C7.5 9.375 7.125 9 6.75 9H3.75C3.32812 9 3 9.375 3 9.75ZM3 12.75C3 13.1719 3.32812 13.5 3.75 13.5H6.75C7.125 13.5 7.5 13.1719 7.5 12.75C7.5 12.375 7.125 12 6.75 12H3.75C3.32812 12 3 12.375 3 12.75ZM9 16.125C8.57812 16.125 8.25 16.5 8.25 16.875V17.7188C7.82812 17.7656 7.45312 17.9062 7.07812 18.0938C6.46875 18.4688 6 19.0781 6 20.0156C6 20.8594 6.46875 21.4219 7.03125 21.75C7.54688 22.0781 8.15625 22.2656 8.67188 22.4062H8.76562C9.32812 22.5938 9.79688 22.7344 10.125 22.9688C10.4062 23.1094 10.4531 23.2969 10.4531 23.4844C10.5 23.8125 10.3594 24 10.125 24.1406C9.84375 24.3281 9.42188 24.4219 9 24.375C8.4375 24.375 7.92188 24.1875 7.3125 24C7.17188 23.9531 7.07812 23.9062 6.98438 23.8594C6.5625 23.7656 6.14062 23.9531 6 24.3281C5.90625 24.75 6.09375 25.1719 6.46875 25.3125C6.5625 25.3125 6.70312 25.3594 6.79688 25.4062C7.21875 25.5469 7.6875 25.7344 8.25 25.8281V26.625C8.25 27.0469 8.57812 27.375 9 27.375C9.375 27.375 9.75 27.0469 9.75 26.625V25.8281C10.125 25.7812 10.5469 25.6406 10.9219 25.4062C11.5312 25.0312 12 24.375 12 23.4844C11.9531 22.5938 11.4844 22.0312 10.9219 21.6562C10.4062 21.3281 9.75 21.1406 9.23438 21H9.1875C8.57812 20.8125 8.15625 20.6719 7.82812 20.4844C7.54688 20.2969 7.5 20.1562 7.5 20.0156C7.5 19.7344 7.59375 19.5469 7.875 19.4062C8.15625 19.2188 8.57812 19.125 8.95312 19.125C9.42188 19.1719 9.9375 19.2656 10.4531 19.4062C10.875 19.5 11.2969 19.2656 11.3906 18.8438C11.4844 18.4688 11.25 18.0469 10.875 17.9531C10.5 17.8594 10.125 17.7656 9.75 17.7188V16.875C9.75 16.5 9.375 16.125 9 16.125Z" fill="black" fill-opacity="0.72"/>
</g>
<defs>
<clipPath id="clip0_2556_19243">
<rect width="18" height="36" fill="white"/>
</clipPath>
</defs>
</svg>
