<svg width="14" height="24" viewBox="0 0 14 24" fill="none" xmlns="http://www.w3.org/2000/svg">
<g id="label-paired / md / plus-md / regular" clip-path="url(#clip0_2556_15284)">
<path id="icon" d="M7.5 6V11.5H13C13.25 11.5 13.5 11.75 13.5 12C13.5 12.2812 13.25 12.5 13 12.5H7.5V18C7.5 18.2812 7.25 18.5 7 18.5C6.71875 18.5 6.5 18.2812 6.5 18V12.5H1C0.71875 12.5 0.5 12.2812 0.5 12C0.5 11.75 0.71875 11.5 1 11.5H6.5V6C6.5 5.75 6.71875 5.5 7 5.5C7.25 5.5 7.5 5.75 7.5 6Z" fill="black" fill-opacity="0.72"/>
</g>
<defs>
<clipPath id="clip0_2556_15284">
<rect width="14" height="24" fill="white"/>
</clipPath>
</defs>
</svg>
