<svg width="13" height="22" viewBox="0 0 13 22" fill="none" xmlns="http://www.w3.org/2000/svg">
<g id="label-paired / sm / whatsapp-sm" clip-path="url(#clip0_2556_12233)">
<path id="icon" d="M10.7656 6.42969C11.9141 7.57812 12.625 9.08203 12.625 10.7227C12.625 14.0586 9.83594 16.793 6.47266 16.793C5.46094 16.793 4.47656 16.5195 3.57422 16.0547L0.375 16.875L1.22266 13.7305C0.703125 12.8281 0.402344 11.7891 0.402344 10.6953C0.402344 7.35938 3.13672 4.625 6.47266 4.625C8.11328 4.625 9.64453 5.28125 10.7656 6.42969ZM6.47266 15.7539C9.26172 15.7539 11.5859 13.4844 11.5859 10.7227C11.5859 9.35547 11.0117 8.09766 10.0547 7.14062C9.09766 6.18359 7.83984 5.66406 6.5 5.66406C3.71094 5.66406 1.44141 7.93359 1.44141 10.6953C1.44141 11.6523 1.71484 12.582 2.20703 13.4023L2.34375 13.5938L1.82422 15.4531L3.73828 14.9336L3.90234 15.043C4.69531 15.5078 5.57031 15.7539 6.47266 15.7539ZM9.26172 11.9805C9.39844 12.0625 9.50781 12.0898 9.53516 12.1719C9.58984 12.2266 9.58984 12.5273 9.45312 12.8828C9.31641 13.2383 8.71484 13.5664 8.44141 13.5938C7.94922 13.6758 7.56641 13.6484 6.60938 13.2109C5.07812 12.5547 4.09375 11.0234 4.01172 10.9414C3.92969 10.832 3.41016 10.1211 3.41016 9.35547C3.41016 8.61719 3.79297 8.26172 3.92969 8.09766C4.06641 7.93359 4.23047 7.90625 4.33984 7.90625C4.42188 7.90625 4.53125 7.90625 4.61328 7.90625C4.72266 7.90625 4.83203 7.87891 4.96875 8.17969C5.07812 8.48047 5.40625 9.21875 5.43359 9.30078C5.46094 9.38281 5.48828 9.46484 5.43359 9.57422C5.16016 10.1484 4.83203 10.1211 4.99609 10.3945C5.59766 11.4062 6.17188 11.7617 7.07422 12.1992C7.21094 12.2812 7.29297 12.2539 7.40234 12.1719C7.48438 12.0625 7.78516 11.707 7.86719 11.5703C7.97656 11.4062 8.08594 11.4336 8.22266 11.4883C8.35938 11.543 9.09766 11.8984 9.26172 11.9805Z" fill="black" fill-opacity="0.72"/>
</g>
<defs>
<clipPath id="clip0_2556_12233">
<rect width="13" height="22" fill="white"/>
</clipPath>
</defs>
</svg>
