<svg width="8" height="18" viewBox="0 0 8 18" fill="none" xmlns="http://www.w3.org/2000/svg">
<g id="label-paired / caption / question-caption / fill" clip-path="url(#clip0_3578_637)">
<path id="icon" d="M2.125 7.25C2.125 7.67188 1.77344 8 1.375 8C0.953125 8 0.625 7.67188 0.625 7.25C0.625 5.60938 1.96094 4.25 3.625 4.25H4.375C6.01562 4.25 7.375 5.60938 7.375 7.25V7.34375C7.375 8.375 6.83594 9.3125 5.99219 9.875L5.00781 10.5078C4.84375 10.6016 4.75 10.7891 4.75 10.9766V11C4.75 11.4219 4.39844 11.75 4 11.75C3.57812 11.75 3.25 11.4219 3.25 11V10.9766C3.25 10.2734 3.60156 9.61719 4.1875 9.24219L5.17188 8.60938C5.59375 8.32812 5.875 7.85938 5.875 7.34375V7.25C5.875 6.42969 5.19531 5.75 4.375 5.75H3.625C2.78125 5.75 2.125 6.42969 2.125 7.25ZM4 14.75C3.64844 14.75 3.34375 14.5859 3.17969 14.2812C3.01562 14 3.01562 13.6484 3.17969 13.3438C3.34375 13.0625 3.64844 12.875 4 12.875C4.32812 12.875 4.63281 13.0625 4.79688 13.3438C4.96094 13.6484 4.96094 14 4.79688 14.2812C4.63281 14.5859 4.32812 14.75 4 14.75Z" fill="black" fill-opacity="0.72"/>
</g>
<defs>
<clipPath id="clip0_3578_637">
<rect width="8" height="18" fill="white"/>
</clipPath>
</defs>
</svg>
