<svg width="12" height="18" viewBox="0 0 12 18" fill="none" xmlns="http://www.w3.org/2000/svg">
<g id="label-paired / caption / circle-envelope-caption / fill" clip-path="url(#clip0_2556_10629)">
<path id="icon" d="M6 15.5C3.84375 15.5 1.875 14.375 0.796875 12.5C-0.28125 10.6484 -0.28125 8.375 0.796875 6.5C1.875 4.64844 3.84375 3.5 6 3.5C8.13281 3.5 10.1016 4.64844 11.1797 6.5C12.2578 8.375 12.2578 10.6484 11.1797 12.5C10.1016 14.375 8.13281 15.5 6 15.5ZM3 8V8.23438L5.78906 9.5C5.85938 9.52344 5.92969 9.54688 6 9.54688C6.07031 9.54688 6.14062 9.52344 6.1875 9.5L9 8.23438V8C9 7.60156 8.64844 7.25 8.25 7.25H3.75C3.32812 7.25 3 7.60156 3 8ZM6.49219 10.1797C6.35156 10.25 6.16406 10.2969 6 10.2969C5.8125 10.2969 5.64844 10.25 5.48438 10.1797L3 9.05469V11C3 11.4219 3.32812 11.75 3.75 11.75H8.25C8.64844 11.75 9 11.4219 9 11V9.05469L6.49219 10.1797Z" fill="black" fill-opacity="0.72"/>
</g>
<defs>
<clipPath id="clip0_2556_10629">
<rect width="12" height="18" fill="white"/>
</clipPath>
</defs>
</svg>
