<svg width="15" height="36" viewBox="0 0 15 36" fill="none" xmlns="http://www.w3.org/2000/svg">
<g id="label-paired / xl / question-xl / fill" clip-path="url(#clip0_3578_665)">
<path id="icon" d="M3.75 13.5C3.75 14.3438 3.04688 15 2.25 15C1.40625 15 0.75 14.3438 0.75 13.5C0.75 10.2188 3.42188 7.5 6.75 7.5H8.25C11.5312 7.5 14.25 10.2188 14.25 13.5V13.6875C14.25 15.75 13.1719 17.625 11.4844 18.75L9.51562 20.0156C9.1875 20.2031 9 20.5781 9 20.9531V21C9 21.8438 8.29688 22.5 7.5 22.5C6.65625 22.5 6 21.8438 6 21V20.9531C6 19.5469 6.70312 18.2344 7.875 17.4844L9.84375 16.2188C10.6875 15.6562 11.25 14.7188 11.25 13.6875V13.5C11.25 11.8594 9.89062 10.5 8.25 10.5H6.75C5.0625 10.5 3.75 11.8594 3.75 13.5ZM7.5 28.5C6.79688 28.5 6.1875 28.1719 5.85938 27.5625C5.53125 27 5.53125 26.2969 5.85938 25.6875C6.1875 25.125 6.79688 24.75 7.5 24.75C8.15625 24.75 8.76562 25.125 9.09375 25.6875C9.42188 26.2969 9.42188 27 9.09375 27.5625C8.76562 28.1719 8.15625 28.5 7.5 28.5Z" fill="black" fill-opacity="0.72"/>
</g>
<defs>
<clipPath id="clip0_3578_665">
<rect width="15" height="36" fill="white"/>
</clipPath>
</defs>
</svg>
