<svg width="16" height="24" viewBox="0 0 16 24" fill="none" xmlns="http://www.w3.org/2000/svg">
<g id="label-paired / md / circle-dollar-md / bold" clip-path="url(#clip0_2556_14624)">
<path id="icon" d="M14.5 12C14.5 9.6875 13.25 7.5625 11.25 6.375C9.21875 5.21875 6.75 5.21875 4.75 6.375C2.71875 7.5625 1.5 9.6875 1.5 12C1.5 14.3438 2.71875 16.4688 4.75 17.6562C6.75 18.8125 9.21875 18.8125 11.25 17.6562C13.25 16.4688 14.5 14.3438 14.5 12ZM0 12C0 9.15625 1.5 6.53125 4 5.09375C6.46875 3.65625 9.5 3.65625 12 5.09375C14.4688 6.53125 16 9.15625 16 12C16 14.875 14.4688 17.5 12 18.9375C9.5 20.375 6.46875 20.375 4 18.9375C1.5 17.5 0 14.875 0 12ZM8.625 8.1875V8.625C8.9375 8.65625 9.25 8.75 9.53125 8.84375C9.59375 8.84375 9.65625 8.875 9.71875 8.875C10.0625 9 10.2812 9.375 10.1875 9.71875C10.0938 10.0938 9.71875 10.2812 9.34375 10.1875C9.3125 10.1875 9.25 10.1562 9.21875 10.1562C9 10.0938 8.78125 10.0312 8.5625 10C8.125 9.90625 7.65625 9.9375 7.28125 10.125C6.9375 10.25 6.65625 10.625 7.03125 10.875C7.34375 11.0625 7.71875 11.1562 8.0625 11.2812C8.15625 11.2812 8.21875 11.3125 8.28125 11.3125C8.78125 11.4688 9.40625 11.6562 9.875 11.9688C10.4688 12.375 10.75 13.0625 10.625 13.7812C10.5 14.4688 10 14.9375 9.4375 15.1875C9.1875 15.2812 8.90625 15.3438 8.625 15.375V15.8438C8.625 16.2188 8.34375 16.5312 7.96875 16.5312C7.59375 16.5312 7.28125 16.2188 7.28125 15.8438V15.3125C6.84375 15.1875 6.40625 15.0625 5.9375 14.9062C5.59375 14.7812 5.40625 14.4062 5.53125 14.0625C5.65625 13.6875 6.03125 13.5 6.375 13.625C6.46875 13.6562 6.53125 13.6875 6.625 13.7188C6.96875 13.8125 7.3125 13.9375 7.6875 14C8.21875 14.0938 8.65625 14.0312 8.9375 13.9375C9.3125 13.7812 9.46875 13.3125 9.09375 13.0625C8.78125 12.875 8.40625 12.75 8.03125 12.6562C7.96875 12.625 7.875 12.625 7.8125 12.5938C7.34375 12.4688 6.75 12.2812 6.3125 12C5.6875 11.625 5.40625 10.9688 5.53125 10.25C5.65625 9.5625 6.1875 9.125 6.75 8.875C6.90625 8.78125 7.09375 8.75 7.28125 8.6875V8.1875C7.28125 7.8125 7.59375 7.5 7.96875 7.5C8.34375 7.5 8.625 7.8125 8.625 8.1875Z" fill="black" fill-opacity="0.72"/>
</g>
<defs>
<clipPath id="clip0_2556_14624">
<rect width="16" height="24" fill="white"/>
</clipPath>
</defs>
</svg>
