<svg width="20" height="24" viewBox="0 0 20 24" fill="none" xmlns="http://www.w3.org/2000/svg">
<g id="label-paired / md / user-plus-md / fill" clip-path="url(#clip0_3327_783)">
<path id="icon" d="M3 8C3 6.59375 3.75 5.28125 5 4.5625C6.21875 3.84375 7.75 3.84375 9 4.5625C10.2188 5.28125 11 6.59375 11 8C11 9.4375 10.2188 10.75 9 11.4688C7.75 12.1875 6.21875 12.1875 5 11.4688C3.75 10.75 3 9.4375 3 8ZM0 19.0938C0 16 2.46875 13.5 5.5625 13.5H8.40625C11.5 13.5 14 16 14 19.0938C14 19.5938 13.5625 20 13.0625 20H0.90625C0.40625 20 0 19.5938 0 19.0938ZM15.75 13.75V11.75H13.75C13.3125 11.75 13 11.4375 13 11C13 10.5938 13.3125 10.25 13.75 10.25H15.75V8.25C15.75 7.84375 16.0625 7.5 16.5 7.5C16.9062 7.5 17.25 7.84375 17.25 8.25V10.25H19.25C19.6562 10.25 20 10.5938 20 11C20 11.4375 19.6562 11.75 19.25 11.75H17.25V13.75C17.25 14.1875 16.9062 14.5 16.5 14.5C16.0625 14.5 15.75 14.1875 15.75 13.75Z" fill="black" fill-opacity="0.72"/>
</g>
<defs>
<clipPath id="clip0_3327_783">
<rect width="20" height="24" fill="white"/>
</clipPath>
</defs>
</svg>
