<svg width="30" height="36" viewBox="0 0 30 36" fill="none" xmlns="http://www.w3.org/2000/svg">
<g id="label-paired / xl / user-slash-xl / bold" clip-path="url(#clip0_2365_777)">
<path id="icon" d="M1.82812 6.23438L9 11.8594C9.0625 10.2031 9.65625 8.82812 10.7812 7.73438C11.9062 6.60938 13.3125 6.03125 15 6C16.6875 6.03125 18.1094 6.60938 19.2656 7.73438C20.3906 8.89062 20.9688 10.3125 21 12C20.9688 13.4062 20.5469 14.6406 19.7344 15.7031C18.9219 16.7344 17.8594 17.4375 16.5469 17.8125L29.5781 27.9844C30.0781 28.4531 30.1406 28.9844 29.7656 29.5781C29.2969 30.0781 28.7656 30.1406 28.1719 29.7656L0.421875 8.01562C-0.078125 7.54688 -0.140625 7.01563 0.234375 6.42188C0.703125 5.92187 1.23438 5.85938 1.82812 6.23438ZM13.6406 15.4688C14.0469 15.6562 14.5 15.75 15 15.75C16.0625 15.7188 16.9531 15.3594 17.6719 14.6719C18.3594 13.9531 18.7188 13.0625 18.75 12C18.7188 10.9375 18.3594 10.0469 17.6719 9.32812C16.9531 8.64062 16.0625 8.28125 15 8.25C13.9375 8.28125 13.0469 8.64062 12.3281 9.32812C11.6406 10.0469 11.2812 10.9375 11.25 12C11.25 12.8125 11.4844 13.5469 11.9531 14.2031L13.6406 15.4688ZM12.375 20.25L15.2344 22.5H12.8438C11.2812 22.5312 9.95312 23.0312 8.85938 24C7.73438 24.9688 7.04688 26.2188 6.79688 27.75H21.8906L24.6094 29.9062C24.4531 29.9688 24.2812 30 24.0938 30H5.90625C5.5 30 5.17188 29.8594 4.92188 29.5781C4.64062 29.3281 4.5 29 4.5 28.5938C4.5625 26.3125 5.32812 24.4062 6.79688 22.875C8.26562 21.3125 10.125 20.4375 12.375 20.25Z" fill="black" fill-opacity="0.72"/>
</g>
<defs>
<clipPath id="clip0_2365_777">
<rect width="30" height="36" fill="white"/>
</clipPath>
</defs>
</svg>
