<svg width="16" height="24" viewBox="0 0 16 24" fill="none" xmlns="http://www.w3.org/2000/svg">
<g id="label-paired / md / cash-register-md / regular" clip-path="url(#clip0_2556_14610)">
<path id="icon" d="M8.5 5H2.5C2.21875 5 2 5.25 2 5.5V6.5C2 6.78125 2.21875 7 2.5 7H8.5C8.75 7 9 6.78125 9 6.5V5.5C9 5.25 8.75 5 8.5 5ZM2.5 4H8.5C9.3125 4 10 4.6875 10 5.5V6.5C10 7.34375 9.3125 8 8.5 8H6V9H13.25C14.25 9 15.0938 9.75 15.2188 10.7188L15.9688 15.875C15.9688 15.9688 16 16.0625 16 16.1562V18C16 19.125 15.0938 20 14 20H2C0.875 20 0 19.125 0 18V16.1562C0 16.0625 0 15.9688 0 15.875L0.75 10.7188C0.875 9.75 1.71875 9 2.71875 9H5V8H2.5C1.65625 8 1 7.34375 1 6.5V5.5C1 4.6875 1.65625 4 2.5 4ZM1 18C1 18.5625 1.4375 19 2 19H14C14.5312 19 15 18.5625 15 18V17H1V18ZM14.25 10.875C14.1562 10.375 13.75 10 13.25 10H2.71875C2.21875 10 1.8125 10.375 1.71875 10.875L1 16H14.9688L14.25 10.875ZM3.5 11.25C3.90625 11.25 4.25 11.5938 4.25 12C4.25 12.4375 3.90625 12.75 3.5 12.75C3.0625 12.75 2.75 12.4375 2.75 12C2.75 11.5938 3.0625 11.25 3.5 11.25ZM5.75 12C5.75 11.5938 6.0625 11.25 6.5 11.25C6.90625 11.25 7.25 11.5938 7.25 12C7.25 12.4375 6.90625 12.75 6.5 12.75C6.0625 12.75 5.75 12.4375 5.75 12ZM5 13.75C5.40625 13.75 5.75 14.0938 5.75 14.5C5.75 14.9375 5.40625 15.25 5 15.25C4.5625 15.25 4.25 14.9375 4.25 14.5C4.25 14.0938 4.5625 13.75 5 13.75ZM8.75 12C8.75 11.5938 9.0625 11.25 9.5 11.25C9.90625 11.25 10.25 11.5938 10.25 12C10.25 12.4375 9.90625 12.75 9.5 12.75C9.0625 12.75 8.75 12.4375 8.75 12ZM8 13.75C8.40625 13.75 8.75 14.0938 8.75 14.5C8.75 14.9375 8.40625 15.25 8 15.25C7.5625 15.25 7.25 14.9375 7.25 14.5C7.25 14.0938 7.5625 13.75 8 13.75ZM11.75 12C11.75 11.5938 12.0625 11.25 12.5 11.25C12.9062 11.25 13.25 11.5938 13.25 12C13.25 12.4375 12.9062 12.75 12.5 12.75C12.0625 12.75 11.75 12.4375 11.75 12ZM11 13.75C11.4062 13.75 11.75 14.0938 11.75 14.5C11.75 14.9375 11.4062 15.25 11 15.25C10.5625 15.25 10.25 14.9375 10.25 14.5C10.25 14.0938 10.5625 13.75 11 13.75Z" fill="black" fill-opacity="0.72"/>
</g>
<defs>
<clipPath id="clip0_2556_14610">
<rect width="16" height="24" fill="white"/>
</clipPath>
</defs>
</svg>
