<svg width="30" height="36" viewBox="0 0 30 36" fill="none" xmlns="http://www.w3.org/2000/svg">
<g id="label-paired / xl / circle-user-slash-xl / bold" clip-path="url(#clip0_2556_19260)">
<path id="icon" d="M0.234375 6.46875C0.609375 5.95312 1.3125 5.85938 1.78125 6.28125L6.28125 9.75C8.53125 7.40625 11.625 6 15 6C19.2656 6 23.25 8.29688 25.3594 12C27.5156 15.75 27.5156 20.2969 25.3594 24C25.2656 24.1875 25.1719 24.3281 25.0781 24.5156L29.5312 28.0312C30.0469 28.4062 30.1406 29.1094 29.7188 29.5781C29.3438 30.0938 28.6406 30.1875 28.1719 29.7656L0.421875 8.01562C-0.09375 7.64062 -0.1875 6.9375 0.234375 6.46875ZM3.84375 13.5469L5.71875 15.0469C5.39062 15.9844 5.25 16.9688 5.25 18C5.25 20.625 6.23438 23.0156 7.92188 24.75C8.8125 22.5938 10.875 21.0938 13.3125 21.0469L16.1719 23.25H13.5C11.6719 23.25 10.125 24.5625 9.79688 26.2969C11.2969 27.2344 13.0781 27.75 15 27.75C16.8281 27.75 18.5625 27.2344 20.0625 26.3438L21.9375 27.7969C19.9219 29.2031 17.5312 30 15 30C10.6875 30 6.75 27.75 4.59375 24C2.71875 20.8125 2.48438 16.9688 3.84375 13.5469ZM8.0625 11.1562L11.25 13.6406C11.5781 12.8906 12.1875 12.2812 12.9375 11.8125C14.2031 11.1094 15.75 11.1094 17.0625 11.8125C18.3281 12.5625 19.125 13.9219 19.125 15.375C19.125 16.6406 18.5156 17.8594 17.5781 18.6094L23.2969 23.1094C24.1875 21.6094 24.75 19.875 24.75 18C24.75 12.6562 20.3438 8.25 15 8.25C12.2812 8.25 9.79688 9.375 8.0625 11.1562ZM13.125 15.1406L15.6562 17.1562C16.0781 16.9688 16.4062 16.6875 16.5938 16.3594C16.9219 15.75 16.9219 15.0469 16.5938 14.4844C16.2656 13.875 15.6562 13.5469 15 13.5469C14.2969 13.5469 13.6875 13.875 13.3594 14.4844C13.2188 14.6719 13.1719 14.9062 13.125 15.1406Z" fill="black" fill-opacity="0.72"/>
</g>
<defs>
<clipPath id="clip0_2556_19260">
<rect width="30" height="36" fill="white"/>
</clipPath>
</defs>
</svg>
