<svg width="24" height="36" viewBox="0 0 24 36" fill="none" xmlns="http://www.w3.org/2000/svg">
<g id="label-paired / xl / chevrons-right-xl / fill" clip-path="url(#clip0_2556_19656)">
<path id="icon" d="M22.0312 19.0781L13.0312 28.0781C12.4688 28.6875 11.4844 28.6875 10.9219 28.0781C10.3125 27.5156 10.3125 26.5312 10.9219 25.9688L18.8438 18L10.9219 10.0781C10.3125 9.51562 10.3125 8.53125 10.9219 7.96875C11.4844 7.35938 12.4688 7.35938 13.0312 7.96875L22.0312 16.9688C22.6406 17.5312 22.6406 18.5156 22.0312 19.0781ZM4.03125 28.0781C3.46875 28.6875 2.48438 28.6875 1.92188 28.0781C1.3125 27.5156 1.3125 26.5312 1.92188 25.9688L9.84375 18L1.92188 10.0781C1.3125 9.51562 1.3125 8.53125 1.92188 7.96875C2.48438 7.35938 3.46875 7.35938 4.03125 7.96875L13.0312 16.9688C13.6406 17.5312 13.6406 18.5156 13.0312 19.0781L4.03125 28.0781Z" fill="black" fill-opacity="0.72"/>
</g>
<defs>
<clipPath id="clip0_2556_19656">
<rect width="24" height="36" fill="white"/>
</clipPath>
</defs>
</svg>
