<svg width="30" height="36" viewBox="0 0 30 36" fill="none" xmlns="http://www.w3.org/2000/svg">
<g id="label-paired / xl / hand-gesture-tap-right-xl / regular" clip-path="url(#clip0_3546_793)">
<path id="icon" d="M25.0312 7.5C24.7969 7.5 24.5625 7.73438 24.5625 7.96875V28.0781C24.5625 28.3125 24.7969 28.5 25.0312 28.5C25.2656 28.5 25.5 28.3125 25.5 28.0781V7.96875C25.5 7.73438 25.2656 7.5 25.0312 7.5ZM24 15.75C24 17.3438 22.7812 18.6094 21.2344 18.75L19.5 22.4531C19.5469 22.5469 19.6406 22.6406 19.6875 22.7812L20.0625 23.4844C20.3906 24.1406 20.3906 24.8906 20.1094 25.5469L19.8281 26.1094C19.1719 27.5156 17.7656 28.4531 16.2656 28.5H15.9844C15.2344 28.5469 14.5781 28.4062 13.9688 28.125L10.3594 26.3906C8.71875 25.6406 8.01562 23.6719 8.8125 22.0312L9.98438 19.5C10.4531 18.5625 11.5781 18.1406 12.5156 18.6094C12.5156 18.6094 12.5625 18.6562 12.6094 18.6562C12.6562 18.7031 12.7031 18.7031 12.7031 18.75C13.2656 18.375 13.9688 18.2812 14.5781 18.5625C14.7656 18.6094 14.8594 18.7031 15 18.7969C15.5156 18.4219 16.2656 18.3281 16.9219 18.6094C17.1562 18.7031 17.3438 18.8906 17.4844 19.0312L18.3281 17.2031C18.0938 16.7812 17.9531 16.3125 17.9531 15.75C17.9531 14.1094 19.3125 12.75 20.9531 12.75C22.6406 12.75 23.9531 14.1094 23.9531 15.75H24ZM22.0312 17.1562L21.75 17.7188C22.5469 17.4375 23.0625 16.6406 23.0625 15.75C23.0625 14.625 22.125 13.6875 21 13.6875C19.8281 13.6875 18.8906 14.625 18.8906 15.75C18.8906 15.8906 18.8906 15.9844 18.8906 16.0781L19.0312 15.75C19.4062 14.9531 20.4375 14.5781 21.2344 14.9531C22.0312 15.3281 22.4062 16.3594 22.0312 17.1562ZM17.5312 24.375L21.1875 16.7344C21.3281 16.4062 21.1875 15.9844 20.8125 15.7969C20.4844 15.6562 20.0625 15.7969 19.875 16.125L17.9062 20.3438C17.8125 20.5312 17.625 20.625 17.4375 20.5781C17.2031 20.5312 17.0625 20.3906 17.0156 20.2031C16.9688 19.875 16.7812 19.5938 16.5 19.4531C16.125 19.2656 15.6094 19.4062 15.375 19.7812C15.2812 19.875 15.1406 19.9688 14.9531 19.9688C14.8125 19.9688 14.6719 19.875 14.5781 19.7344C14.4844 19.5938 14.3438 19.5 14.2031 19.4062C13.8281 19.2188 13.3594 19.3125 13.0781 19.6406C12.9844 19.7344 12.8906 19.8281 12.75 19.8281C12.6094 19.8281 12.4688 19.7344 12.375 19.6875C12.2812 19.5938 12.1875 19.5 12.0938 19.4531C11.625 19.2656 11.0625 19.4531 10.8281 19.9219L9.65625 22.4531C9.09375 23.625 9.5625 25.0312 10.7344 25.5938L14.3438 27.2812C14.8594 27.5156 15.375 27.6094 15.9375 27.5625L16.2188 27.6094C17.4375 27.5156 18.4688 26.7656 18.9844 25.6875L19.2656 25.1719C19.4531 24.75 19.4062 24.3281 19.2188 23.9062L18.9844 23.4844L18.375 24.75C18.2812 25.0312 18 25.125 17.7656 24.9844C17.5781 24.8906 17.4375 24.6094 17.5312 24.375Z" fill="black" fill-opacity="0.72"/>
</g>
<defs>
<clipPath id="clip0_3546_793">
<rect width="30" height="36" fill="white"/>
</clipPath>
</defs>
</svg>
