<svg width="18" height="22" viewBox="0 0 18 22" fill="none" xmlns="http://www.w3.org/2000/svg">
<g id="label-paired / sm / chart-ohlc-sm / fill" clip-path="url(#clip0_2556_12399)">
<path id="icon" d="M9 3.75C9.46484 3.75 9.875 4.16016 9.875 4.625V5.5H10.75C11.2148 5.5 11.625 5.91016 11.625 6.375C11.625 6.86719 11.2148 7.25 10.75 7.25H9.875V15.125C9.875 15.6172 9.46484 16 9 16C8.50781 16 8.125 15.6172 8.125 15.125V14.25H7.25C6.75781 14.25 6.375 13.8672 6.375 13.375C6.375 12.9102 6.75781 12.5 7.25 12.5H8.125V4.625C8.125 4.16016 8.50781 3.75 9 3.75ZM3.3125 9C3.77734 9 4.1875 9.41016 4.1875 9.875V14.25H5.0625C5.52734 14.25 5.9375 14.6602 5.9375 15.125C5.9375 15.6172 5.52734 16 5.0625 16H4.1875V16.875C4.1875 17.3672 3.77734 17.75 3.3125 17.75C2.82031 17.75 2.4375 17.3672 2.4375 16.875V12.5H1.5625C1.07031 12.5 0.6875 12.1172 0.6875 11.625C0.6875 11.1602 1.07031 10.75 1.5625 10.75H2.4375V9.875C2.4375 9.41016 2.82031 9 3.3125 9ZM14.6875 5.5C15.1523 5.5 15.5625 5.91016 15.5625 6.375V10.75H16.4375C16.9023 10.75 17.3125 11.1602 17.3125 11.625C17.3125 12.1172 16.9023 12.5 16.4375 12.5H15.5625V13.375C15.5625 13.8672 15.1523 14.25 14.6875 14.25C14.1953 14.25 13.8125 13.8672 13.8125 13.375V9H12.9375C12.4453 9 12.0625 8.61719 12.0625 8.125C12.0625 7.66016 12.4453 7.25 12.9375 7.25H13.8125V6.375C13.8125 5.91016 14.1953 5.5 14.6875 5.5Z" fill="black" fill-opacity="0.72"/>
</g>
<defs>
<clipPath id="clip0_2556_12399">
<rect width="18" height="22" fill="white"/>
</clipPath>
</defs>
</svg>
