<svg width="16" height="24" viewBox="0 0 16 24" fill="none" xmlns="http://www.w3.org/2000/svg">
<g id="label-paired / md / circle-six-md / fill" clip-path="url(#clip0_2556_14816)">
<path id="icon" d="M0 12C0 9.15625 1.5 6.53125 4 5.09375C6.46875 3.65625 9.5 3.65625 12 5.09375C14.4688 6.53125 16 9.15625 16 12C16 14.875 14.4688 17.5 12 18.9375C9.5 20.375 6.46875 20.375 4 18.9375C1.5 17.5 0 14.875 0 12ZM8 11.5C8.53125 11.5 9 11.8125 9.28125 12.25C9.5625 12.7188 9.5625 13.3125 9.28125 13.75C9 14.2188 8.53125 14.5 8 14.5C7.4375 14.5 6.96875 14.2188 6.6875 13.75C6.40625 13.3125 6.40625 12.7188 6.6875 12.25C6.96875 11.8125 7.4375 11.5 8 11.5ZM5 13C5 14.6562 6.34375 16 8 16C9.65625 16 11 14.6562 11 13C11 11.625 10.0625 10.4688 8.8125 10.125L9.71875 9.34375C10.0312 9.0625 10.0625 8.59375 9.8125 8.28125C9.53125 7.96875 9.0625 7.9375 8.75 8.1875L6.1875 10.375C5.4375 11.0312 5 12 5 13Z" fill="black" fill-opacity="0.72"/>
</g>
<defs>
<clipPath id="clip0_2556_14816">
<rect width="16" height="24" fill="white"/>
</clipPath>
</defs>
</svg>
