<svg width="16" height="24" viewBox="0 0 16 24" fill="none" xmlns="http://www.w3.org/2000/svg">
<g id="label-paired / md / life-ring-md / bold" clip-path="url(#clip0_2556_15025)">
<path id="icon" d="M12.0312 17.125L9.5 14.5938C9.0625 14.875 8.53125 15 8 15C7.4375 15 6.90625 14.875 6.46875 14.5938L3.9375 17.125C5.0625 18 6.46875 18.5 8 18.5C9.5 18.5 10.9062 18 12.0312 17.125ZM14.1562 17.125L14.5 17.5C14.8125 17.7812 14.8125 18.25 14.5 18.5312C14.2188 18.8438 13.75 18.8438 13.4688 18.5312L13.0938 18.1875C11.6875 19.3125 9.9375 20 8 20C6.03125 20 4.28125 19.3125 2.875 18.1875L2.5 18.5312C2.21875 18.8438 1.75 18.8438 1.46875 18.5312C1.15625 18.25 1.15625 17.7812 1.46875 17.4688L1.8125 17.125C0.6875 15.7188 0 13.9688 0 12C0 10.0625 0.6875 8.3125 1.8125 6.90625L1.46875 6.53125C1.15625 6.25 1.15625 5.78125 1.46875 5.46875C1.75 5.1875 2.21875 5.1875 2.53125 5.46875L2.875 5.84375C4.28125 4.71875 6.03125 4 8 4C9.9375 4 11.6875 4.71875 13.0938 5.84375L13.4688 5.5C13.75 5.1875 14.2188 5.1875 14.5312 5.5C14.8125 5.78125 14.8125 6.25 14.5312 6.53125L14.1562 6.90625C15.2812 8.3125 16 10.0625 16 12C16 13.9688 15.2812 15.7188 14.1562 17.125ZM13.0938 16.0625C13.9688 14.9375 14.5 13.5312 14.5 12C14.5 10.5 13.9688 9.09375 13.0938 7.96875L10.5625 10.5C10.8438 10.9375 11 11.4688 11 12C11 12.5625 10.8438 13.0938 10.5625 13.5312L13.0938 16.0625ZM12.0312 6.90625C10.9062 6.03125 9.5 5.5 8 5.5C6.46875 5.5 5.0625 6.03125 3.9375 6.90625L6.46875 9.4375C6.90625 9.15625 7.4375 9 7.96875 9C8.53125 9 9.0625 9.15625 9.5 9.4375L12.0312 6.90625ZM5.40625 13.5312C5.125 13.0938 5 12.5625 5 12.0312C5 11.4688 5.125 10.9375 5.40625 10.5L2.875 7.96875C2 9.09375 1.5 10.5 1.5 12C1.5 13.5312 2 14.9375 2.875 16.0625L5.40625 13.5312ZM6.5 12C6.5 12.5625 6.78125 13.0312 7.25 13.3125C7.6875 13.5938 8.28125 13.5938 8.75 13.3125C9.1875 13.0312 9.5 12.5625 9.5 12C9.5 11.4688 9.1875 11 8.75 10.7188C8.28125 10.4375 7.6875 10.4375 7.25 10.7188C6.78125 11 6.5 11.4688 6.5 12Z" fill="black" fill-opacity="0.72"/>
</g>
<defs>
<clipPath id="clip0_2556_15025">
<rect width="16" height="24" fill="white"/>
</clipPath>
</defs>
</svg>
