<svg width="8" height="18" viewBox="0 0 8 18" fill="none" xmlns="http://www.w3.org/2000/svg">
<g id="label-paired / caption / pause-caption / fill" clip-path="url(#clip0_2556_9995)">
<path id="icon" d="M1.375 5H2.125C2.73438 5 3.25 5.51562 3.25 6.125V12.875C3.25 13.5078 2.73438 14 2.125 14H1.375C0.742188 14 0.25 13.5078 0.25 12.875V6.125C0.25 5.51562 0.742188 5 1.375 5ZM5.875 5H6.625C7.23438 5 7.75 5.51562 7.75 6.125V12.875C7.75 13.5078 7.23438 14 6.625 14H5.875C5.24219 14 4.75 13.5078 4.75 12.875V6.125C4.75 5.51562 5.24219 5 5.875 5Z" fill="black" fill-opacity="0.72"/>
</g>
<defs>
<clipPath id="clip0_2556_9995">
<rect width="8" height="18" fill="white"/>
</clipPath>
</defs>
</svg>
