<svg width="16" height="24" viewBox="0 0 16 24" fill="none" xmlns="http://www.w3.org/2000/svg">
<g id="label-paired / md / circle-arrow-down-right-md / bold" clip-path="url(#clip0_2556_15285)">
<path id="icon" d="M8 18.5C10.3125 18.5 12.4375 17.2812 13.625 15.25C14.7812 13.25 14.7812 10.7812 13.625 8.75C12.4375 6.75 10.3125 5.5 8 5.5C5.65625 5.5 3.53125 6.75 2.34375 8.75C1.1875 10.7812 1.1875 13.25 2.34375 15.25C3.53125 17.2812 5.65625 18.5 8 18.5ZM8 4C10.8438 4 13.4688 5.53125 14.9062 8C16.3438 10.5 16.3438 13.5312 14.9062 16C13.4688 18.5 10.8438 20 8 20C5.125 20 2.5 18.5 1.0625 16C-0.375 13.5312 -0.375 10.5 1.0625 8C2.5 5.53125 5.125 4 8 4ZM6 15.5C5.5625 15.5 5.25 15.1875 5.25 14.75C5.25 14.3438 5.5625 14 6 14H8.9375L4.71875 9.78125C4.40625 9.5 4.40625 9.03125 4.71875 8.71875C5 8.4375 5.46875 8.4375 5.78125 8.71875L10 12.9688V9.75C10 9.34375 10.3125 9 10.75 9C11.1562 9 11.5 9.34375 11.5 9.75V14.75C11.5 15.1875 11.1562 15.5 10.75 15.5H6Z" fill="black" fill-opacity="0.72"/>
</g>
<defs>
<clipPath id="clip0_2556_15285">
<rect width="16" height="24" fill="white"/>
</clipPath>
</defs>
</svg>
