<svg width="11" height="18" viewBox="0 0 11 18" fill="none" xmlns="http://www.w3.org/2000/svg">
<g id="label-paired / caption / arrow-down-to-bracket-caption / fill" clip-path="url(#clip0_2556_10644)">
<path id="icon" d="M9.01562 8.53906L6.01562 11.5391C5.73438 11.8438 5.24219 11.8438 4.96094 11.5391L1.96094 8.53906C1.65625 8.25781 1.65625 7.76562 1.96094 7.48438C2.24219 7.17969 2.73438 7.17969 3.01562 7.48438L4.75 9.19531V4.25C4.75 3.85156 5.07812 3.5 5.5 3.5C5.89844 3.5 6.25 3.85156 6.25 4.25V9.19531L7.96094 7.48438C8.24219 7.17969 8.73438 7.17969 9.01562 7.48438C9.32031 7.76562 9.32031 8.25781 9.01562 8.53906ZM1.75 11.75V13.25C1.75 13.6719 2.07812 14 2.5 14H8.5C8.89844 14 9.25 13.6719 9.25 13.25V11.75C9.25 11.3516 9.57812 11 10 11C10.3984 11 10.75 11.3516 10.75 11.75V13.25C10.75 14.4922 9.74219 15.5 8.5 15.5H2.5C1.25781 15.5 0.25 14.4922 0.25 13.25V11.75C0.25 11.3516 0.578125 11 1 11C1.39844 11 1.75 11.3516 1.75 11.75Z" fill="black" fill-opacity="0.72"/>
</g>
<defs>
<clipPath id="clip0_2556_10644">
<rect width="11" height="18" fill="white"/>
</clipPath>
</defs>
</svg>
