<svg width="14" height="18" viewBox="0 0 14 18" fill="none" xmlns="http://www.w3.org/2000/svg">
<g id="label-paired / caption / eye-caption / fill" clip-path="url(#clip0_2556_10540)">
<path id="icon" d="M7 4.25C8.875 4.25 10.3984 5.11719 11.5 6.14844C12.6016 7.15625 13.3281 8.375 13.6797 9.21875C13.75 9.40625 13.75 9.61719 13.6797 9.80469C13.3281 10.625 12.6016 11.8438 11.5 12.875C10.3984 13.9062 8.875 14.75 7 14.75C5.10156 14.75 3.57812 13.9062 2.47656 12.875C1.375 11.8438 0.648438 10.625 0.296875 9.80469C0.226562 9.61719 0.226562 9.40625 0.296875 9.21875C0.648438 8.375 1.375 7.15625 2.47656 6.14844C3.57812 5.11719 5.10156 4.25 7 4.25ZM3.625 9.5C3.625 10.7188 4.25781 11.8203 5.3125 12.4297C6.34375 13.0391 7.63281 13.0391 8.6875 12.4297C9.71875 11.8203 10.375 10.7188 10.375 9.5C10.375 8.30469 9.71875 7.20312 8.6875 6.59375C7.63281 5.98438 6.34375 5.98438 5.3125 6.59375C4.25781 7.20312 3.625 8.30469 3.625 9.5ZM7 8C7 7.83594 6.95312 7.69531 6.90625 7.53125C6.85938 7.41406 6.95312 7.25 7.09375 7.25C8.03125 7.29688 8.89844 7.95312 9.15625 8.9375C9.48438 10.1328 8.78125 11.3516 7.5625 11.6797C6.36719 12.0078 5.125 11.2812 4.82031 10.0859C4.77344 9.92188 4.75 9.75781 4.75 9.61719C4.72656 9.47656 4.89062 9.38281 5.00781 9.42969C5.17188 9.47656 5.3125 9.5 5.5 9.5C6.32031 9.5 7 8.84375 7 8Z" fill="black" fill-opacity="0.72"/>
</g>
<defs>
<clipPath id="clip0_2556_10540">
<rect width="14" height="18" fill="white"/>
</clipPath>
</defs>
</svg>
