<svg width="12" height="18" viewBox="0 0 12 18" fill="none" xmlns="http://www.w3.org/2000/svg">
<g id="label-paired / caption / deriv-brand-logo-caption / regular" clip-path="url(#clip0_5129_518)">
<path id="icon" d="M9.09375 12.5469C8.83594 14 7.45312 15.1719 6 15.1719H4.42969C3.44531 15.1719 2.60156 14.7734 2.0625 14.0938C1.5 13.4375 1.26562 12.5234 1.42969 11.5391L1.57031 10.8125C1.89844 8.86719 3.72656 7.32031 5.67188 7.32031H7.24219L7.73438 4.55469L7.78125 4.29688L10.6172 3.82812L9.09375 12.5469ZM8.41406 4.95312L7.92188 7.76562L7.875 8.07031H5.67188C4.14844 8.07031 2.67188 9.26562 2.34375 10.7891L2.32031 10.9297L2.17969 11.6797C2.03906 12.4531 2.22656 13.1328 2.625 13.625C3.02344 14.0938 3.65625 14.4219 4.42969 14.4219H6C7.07812 14.4219 8.15625 13.5078 8.34375 12.4062L9.70312 4.74219L8.41406 4.95312ZM7.66406 9.19531L7.59375 9.64062L7.125 12.2422C7.03125 12.8047 6.53906 13.2734 5.95312 13.2734H4.99219C4.5 13.2734 4.05469 13.0625 3.77344 12.7344C3.46875 12.3828 3.35156 11.9141 3.44531 11.3984L3.51562 10.9531L3.5625 10.7656C3.79688 9.875 4.66406 9.19531 5.57812 9.19531H7.66406ZM5.57812 9.94531C4.96875 9.94531 4.38281 10.4609 4.26562 11.0703L4.17188 11.5391C4.125 11.8438 4.19531 12.0781 4.33594 12.2422C4.47656 12.4062 4.71094 12.5234 4.99219 12.5234H5.95312C6.14062 12.5234 6.35156 12.3594 6.39844 12.125L6.77344 9.94531H5.57812Z" fill="black" fill-opacity="0.72"/>
</g>
<defs>
<clipPath id="clip0_5129_518">
<rect width="12" height="18" fill="white"/>
</clipPath>
</defs>
</svg>
