<svg width="25" height="30" viewBox="0 0 25 30" fill="none" xmlns="http://www.w3.org/2000/svg">
<g id="label-paired / lg / passkey-lg / bold" clip-path="url(#clip0_2556_17272)">
<path id="icon" d="M11.6406 15.1484C10.7422 15.1484 9.92188 14.875 9.21875 14.3281C9.0625 14.2109 8.94531 14.0938 8.78906 13.9766C8.00781 13.1953 7.61719 12.2188 7.61719 11.125C7.61719 9.99219 8.00781 9.05469 8.78906 8.27344C9.57031 7.49219 10.5469 7.10156 11.6406 7.10156C12.7734 7.10156 13.7109 7.49219 14.4922 8.27344C15.3125 9.05469 15.7031 10.0312 15.7031 11.125C15.7031 12.2188 15.3125 13.1953 14.4922 13.9766C14.375 14.0938 14.2578 14.2109 14.1406 14.3281C13.9844 14.4453 13.8281 14.5234 13.6719 14.6406C13.3594 14.8359 13.0078 14.9531 12.6172 15.0703C12.3047 15.1094 11.9922 15.1484 11.6406 15.1484ZM13.1641 12.6484C13.6328 12.2188 13.8281 11.75 13.8281 11.125C13.8281 10.5391 13.6328 10.0703 13.1641 9.60156C12.7344 9.17188 12.2656 8.97656 11.6406 8.97656C11.0156 8.97656 10.5469 9.17188 10.1172 9.60156C9.6875 10.0312 9.49219 10.5 9.49219 11.125C9.49219 11.7109 9.6875 12.2188 10.1172 12.6484C10.5469 13.0781 11.0547 13.2734 11.6406 13.2734C12.2656 13.2734 12.7344 13.0781 13.1641 12.6484ZM8.78906 16.3594L8.82812 16.3203C9.72656 16.125 10.6641 16.0078 11.6016 16.0078H11.6406C11.7188 16.0078 11.7578 16.0078 11.8359 16.0078C12.0703 16.0078 12.3047 16.0078 12.5391 16.0469C12.8516 16.0469 13.1641 16.0859 13.4766 16.125C13.4375 16.3594 13.4375 16.5547 13.4375 16.75C13.4766 17.4531 13.6719 18.0781 13.9453 18.7031C14.375 19.4844 14.9609 20.1484 15.7031 20.6172V23.2344H4.25781V20.1484C4.25781 19.5625 4.41406 19.0156 4.72656 18.5078C5.07812 18 5.46875 17.6094 6.01562 17.3359C6.91406 16.9062 7.8125 16.5547 8.78906 16.3203V16.3594ZM11.6406 17.8828C10.8203 17.8828 10 17.9609 9.21875 18.1562C8.39844 18.3516 7.61719 18.625 6.83594 19.0156C6.64062 19.1328 6.48438 19.2891 6.32812 19.4844C6.21094 19.7188 6.13281 19.9141 6.13281 20.1484V21.3594H13.6328C13.0859 20.8516 12.6562 20.2266 12.3047 19.5234C12.0312 19.0156 11.8359 18.4297 11.7188 17.8828H11.6406ZM18.7891 25.2266L17.3828 23.8594V19.6016C16.7188 19.4062 16.1719 19.0156 15.7422 18.4688C15.3125 17.8828 15.1172 17.2578 15.1172 16.5156C15.1172 15.6172 15.4297 14.875 16.0547 14.25C16.6797 13.625 17.4219 13.3125 18.3203 13.3125C19.2188 13.3125 19.9609 13.625 20.5859 14.25C21.2109 14.875 21.5234 15.6562 21.5234 16.5156C21.5234 17.2188 21.3281 17.8047 20.9766 18.3516C20.5859 18.8594 20.1172 19.25 19.4922 19.4844L20.625 20.6562L19.2188 22.0234L20.625 23.3906L18.7891 25.2266ZM18.3203 16.9844C18.6719 16.9844 18.9844 16.8281 19.1406 16.5547C19.3359 16.2422 19.3359 15.8906 19.1406 15.5781C18.9844 15.3047 18.6719 15.1094 18.3203 15.1484C17.9688 15.1094 17.6562 15.3047 17.4609 15.5781C17.3047 15.8906 17.3047 16.2422 17.4609 16.5547C17.6562 16.8281 17.9688 16.9844 18.3203 16.9844Z" fill="black" fill-opacity="0.72"/>
</g>
<defs>
<clipPath id="clip0_2556_17272">
<rect width="25" height="30" fill="white"/>
</clipPath>
</defs>
</svg>
