<svg width="21" height="36" viewBox="0 0 21 36" fill="none" xmlns="http://www.w3.org/2000/svg">
<g id="label-paired / xl / expand-xl / regular" clip-path="url(#clip0_2556_19917)">
<path id="icon" d="M6.75 7.5C7.125 7.5 7.5 7.875 7.5 8.25C7.5 8.67188 7.125 9 6.75 9H1.5V14.25C1.5 14.6719 1.125 15 0.75 15C0.328125 15 0 14.6719 0 14.25V8.25C0 7.875 0.328125 7.5 0.75 7.5H6.75ZM0 21.75C0 21.375 0.328125 21 0.75 21C1.125 21 1.5 21.375 1.5 21.75V27H6.75C7.125 27 7.5 27.375 7.5 27.75C7.5 28.1719 7.125 28.5 6.75 28.5H0.75C0.328125 28.5 0 28.1719 0 27.75V21.75ZM20.25 7.5C20.625 7.5 21 7.875 21 8.25V14.25C21 14.6719 20.625 15 20.25 15C19.8281 15 19.5 14.6719 19.5 14.25V9H14.25C13.8281 9 13.5 8.67188 13.5 8.25C13.5 7.875 13.8281 7.5 14.25 7.5H20.25ZM19.5 21.75C19.5 21.375 19.8281 21 20.25 21C20.625 21 21 21.375 21 21.75V27.75C21 28.1719 20.625 28.5 20.25 28.5H14.25C13.8281 28.5 13.5 28.1719 13.5 27.75C13.5 27.375 13.8281 27 14.25 27H19.5V21.75Z" fill="black" fill-opacity="0.72"/>
</g>
<defs>
<clipPath id="clip0_2556_19917">
<rect width="21" height="36" fill="white"/>
</clipPath>
</defs>
</svg>
