<svg width="18" height="22" viewBox="0 0 18 22" fill="none" xmlns="http://www.w3.org/2000/svg">
<g id="label-paired / sm / user-check-sm / bold" clip-path="url(#clip0_3327_697)">
<path id="icon" d="M6.375 5.0625C5.58203 5.0625 4.87109 5.5 4.46094 6.15625C4.07812 6.83984 4.07812 7.6875 4.46094 8.34375C4.87109 9.02734 5.58203 9.4375 6.375 9.4375C7.14062 9.4375 7.85156 9.02734 8.26172 8.34375C8.64453 7.6875 8.64453 6.83984 8.26172 6.15625C7.85156 5.5 7.14062 5.0625 6.375 5.0625ZM6.375 10.75C5.11719 10.75 3.96875 10.0938 3.33984 9C2.71094 7.93359 2.71094 6.59375 3.33984 5.5C3.96875 4.43359 5.11719 3.75 6.375 3.75C7.60547 3.75 8.75391 4.43359 9.38281 5.5C10.0117 6.59375 10.0117 7.93359 9.38281 9C8.75391 10.0938 7.60547 10.75 6.375 10.75ZM5.11719 13.375C3.3125 13.375 1.83594 14.7148 1.58984 16.4375H11.1328C10.8867 14.7148 9.41016 13.375 7.60547 13.375H5.11719ZM5.11719 12.0625H7.60547C10.3125 12.0625 12.5 14.25 12.5 16.957C12.5 17.3945 12.1172 17.75 11.6797 17.75H1.04297C0.605469 17.75 0.25 17.3945 0.25 16.957C0.25 14.25 2.41016 12.0625 5.11719 12.0625ZM17.3398 8.58984L13.8398 12.0898C13.5664 12.3633 13.1562 12.3633 12.9102 12.0898L11.1602 10.3398C10.8867 10.0938 10.8867 9.68359 11.1602 9.4375C11.4062 9.16406 11.8164 9.16406 12.0898 9.4375L13.375 10.7227L16.4102 7.6875C16.6562 7.41406 17.0664 7.41406 17.3398 7.6875C17.5859 7.93359 17.5859 8.34375 17.3398 8.58984Z" fill="black" fill-opacity="0.72"/>
</g>
<defs>
<clipPath id="clip0_3327_697">
<rect width="18" height="22" fill="white"/>
</clipPath>
</defs>
</svg>
