<svg width="12" height="18" viewBox="0 0 12 18" fill="none" xmlns="http://www.w3.org/2000/svg">
<g id="label-paired / caption / circle-exclamation-caption / bold" clip-path="url(#clip0_2556_9950)">
<path id="icon" d="M6 4.625C4.24219 4.625 2.64844 5.5625 1.75781 7.0625C0.890625 8.58594 0.890625 10.4375 1.75781 11.9375C2.64844 13.4609 4.24219 14.375 6 14.375C7.73438 14.375 9.32812 13.4609 10.2188 11.9375C11.0859 10.4375 11.0859 8.58594 10.2188 7.0625C9.32812 5.5625 7.73438 4.625 6 4.625ZM6 15.5C3.84375 15.5 1.875 14.375 0.796875 12.5C-0.28125 10.6484 -0.28125 8.375 0.796875 6.5C1.875 4.64844 3.84375 3.5 6 3.5C8.13281 3.5 10.1016 4.64844 11.1797 6.5C12.2578 8.375 12.2578 10.6484 11.1797 12.5C10.1016 14.375 8.13281 15.5 6 15.5ZM6 6.5C6.30469 6.5 6.5625 6.75781 6.5625 7.0625V9.6875C6.5625 10.0156 6.30469 10.25 6 10.25C5.67188 10.25 5.4375 10.0156 5.4375 9.6875V7.0625C5.4375 6.75781 5.67188 6.5 6 6.5ZM6.75 11.75C6.75 12.1719 6.39844 12.5 6 12.5C5.57812 12.5 5.25 12.1719 5.25 11.75C5.25 11.3516 5.57812 11 6 11C6.39844 11 6.75 11.3516 6.75 11.75Z" fill="black" fill-opacity="0.72"/>
</g>
<defs>
<clipPath id="clip0_2556_9950">
<rect width="12" height="18" fill="white"/>
</clipPath>
</defs>
</svg>
