<svg width="4" height="24" viewBox="0 0 4 24" fill="none" xmlns="http://www.w3.org/2000/svg">
<g id="label-paired / md / ellipsis-vertical-md / bold" clip-path="url(#clip0_2556_15180)">
<path id="icon" d="M2 15.5C2.53125 15.5 3 15.8125 3.28125 16.25C3.5625 16.7188 3.5625 17.3125 3.28125 17.75C3 18.2188 2.53125 18.5 2 18.5C1.4375 18.5 0.96875 18.2188 0.6875 17.75C0.40625 17.3125 0.40625 16.7188 0.6875 16.25C0.96875 15.8125 1.4375 15.5 2 15.5ZM2 10.5C2.53125 10.5 3 10.8125 3.28125 11.25C3.5625 11.7188 3.5625 12.3125 3.28125 12.75C3 13.2188 2.53125 13.5 2 13.5C1.4375 13.5 0.96875 13.2188 0.6875 12.75C0.40625 12.3125 0.40625 11.7188 0.6875 11.25C0.96875 10.8125 1.4375 10.5 2 10.5ZM3.5 7C3.5 7.5625 3.1875 8.03125 2.75 8.3125C2.28125 8.59375 1.6875 8.59375 1.25 8.3125C0.78125 8.03125 0.5 7.5625 0.5 7C0.5 6.46875 0.78125 6 1.25 5.71875C1.6875 5.4375 2.28125 5.4375 2.75 5.71875C3.1875 6 3.5 6.46875 3.5 7Z" fill="black" fill-opacity="0.72"/>
</g>
<defs>
<clipPath id="clip0_2556_15180">
<rect width="4" height="24" fill="white"/>
</clipPath>
</defs>
</svg>
