<svg width="24" height="36" viewBox="0 0 24 36" fill="none" xmlns="http://www.w3.org/2000/svg">
<g id="label-paired / xl / backward-xl / regular" clip-path="url(#clip0_2556_19321)">
<path id="icon" d="M1.73438 18L12 25.4531V10.5938L1.73438 18ZM12.0938 9C12.8438 9 13.5 9.65625 13.5 10.4062V15.2812L21.75 9.28125C21.9844 9.09375 22.2656 9 22.5938 9C23.3438 9 24 9.65625 24 10.4062V25.5938C24 26.3906 23.3438 27 22.5938 27C22.2656 27 21.9844 26.9062 21.75 26.7656L13.5 20.7656V25.5938C13.5 26.3906 12.8438 27 12.0938 27C11.7656 27 11.4844 26.9062 11.25 26.7656L0.421875 18.9375C0.140625 18.7031 0 18.375 0 18C0 17.6719 0.140625 17.3438 0.421875 17.1094L11.25 9.28125C11.4844 9.09375 11.7656 9 12.0938 9ZM13.5 18.9375L22.5 25.4531V10.5938L13.5 17.1094V18.9375Z" fill="black" fill-opacity="0.72"/>
</g>
<defs>
<clipPath id="clip0_2556_19321">
<rect width="24" height="36" fill="white"/>
</clipPath>
</defs>
</svg>
