<svg width="18" height="36" viewBox="0 0 18 36" fill="none" xmlns="http://www.w3.org/2000/svg">
<g id="label-paired / xl / xmark-xl / bold" clip-path="url(#clip0_2556_19736)">
<path id="icon" d="M16.1719 12.4219L10.5469 18.0469L16.125 23.625C16.5938 24.0469 16.5938 24.75 16.125 25.1719C15.7031 25.6406 15 25.6406 14.5781 25.1719L8.95312 19.5938L3.375 25.1719C2.95312 25.6406 2.25 25.6406 1.82812 25.1719C1.35938 24.75 1.35938 24.0469 1.82812 23.5781L7.40625 18L1.82812 12.4219C1.35938 12 1.35938 11.2969 1.82812 10.8281C2.25 10.4062 2.95312 10.4062 3.42188 10.8281L9 16.4531L14.5781 10.875C15 10.4062 15.7031 10.4062 16.1719 10.875C16.5938 11.2969 16.5938 12 16.1719 12.4219Z" fill="black" fill-opacity="0.72"/>
</g>
<defs>
<clipPath id="clip0_2556_19736">
<rect width="18" height="36" fill="white"/>
</clipPath>
</defs>
</svg>
