<svg width="24" height="36" viewBox="0 0 24 36" fill="none" xmlns="http://www.w3.org/2000/svg">
<g id="label-paired / xl / circle-one-xl / fill" clip-path="url(#clip0_2556_19554)">
<path id="icon" d="M0 18C0 13.7344 2.25 9.79688 6 7.64062C9.70312 5.48438 14.25 5.48438 18 7.64062C21.7031 9.79688 24 13.7344 24 18C24 22.3125 21.7031 26.25 18 28.4062C14.25 30.5625 9.70312 30.5625 6 28.4062C2.25 26.25 0 22.3125 0 18ZM12.5625 12.1875C12.1875 11.9531 11.7656 11.9531 11.4375 12.1875L8.8125 13.6875C8.25 13.9688 8.0625 14.6719 8.39062 15.1875C8.67188 15.75 9.375 15.9375 9.89062 15.6094L10.875 15.0938V21.75H9C8.34375 21.75 7.875 22.2656 7.875 22.875C7.875 23.5312 8.34375 24 9 24H12H15C15.6094 24 16.125 23.5312 16.125 22.875C16.125 22.2656 15.6094 21.75 15 21.75H13.125V13.125C13.125 12.75 12.8906 12.375 12.5625 12.1875Z" fill="black" fill-opacity="0.72"/>
</g>
<defs>
<clipPath id="clip0_2556_19554">
<rect width="24" height="36" fill="white"/>
</clipPath>
</defs>
</svg>
