<svg width="15" height="18" viewBox="0 0 15 18" fill="none" xmlns="http://www.w3.org/2000/svg">
<g id="label-paired / caption / link-caption / bold" clip-path="url(#clip0_4460_521)">
<path id="icon" d="M13.5938 9.78125L10.9453 12.4297C9.60938 13.7422 7.47656 13.7422 6.16406 12.4297C4.92188 11.1641 4.85156 9.17188 6 7.83594L6.11719 7.69531C6.32812 7.46094 6.67969 7.4375 6.91406 7.64844C7.14844 7.85938 7.17188 8.21094 6.96094 8.44531L6.86719 8.5625C6.07031 9.45312 6.11719 10.7891 6.96094 11.6328C7.82812 12.5 9.25781 12.5 10.1484 11.6328L12.7969 8.98438C13.6641 8.09375 13.6641 6.6875 12.7969 5.79688C11.9531 4.97656 10.6172 4.92969 9.72656 5.70312L9.58594 5.82031C9.35156 6.03125 9 6.00781 8.78906 5.77344C8.57812 5.53906 8.60156 5.1875 8.83594 4.97656L8.97656 4.85938C10.3125 3.6875 12.3281 3.75781 13.5938 5C14.9062 6.3125 14.9062 8.44531 13.5938 9.78125ZM1.38281 9.24219L4.05469 6.59375C5.36719 5.28125 7.5 5.28125 8.8125 6.59375C10.0781 7.83594 10.1484 9.85156 8.97656 11.1875L8.83594 11.3281C8.64844 11.5625 8.27344 11.6094 8.03906 11.3984C7.80469 11.1875 7.78125 10.8359 7.99219 10.6016L8.13281 10.4609C8.90625 9.57031 8.85938 8.23438 8.01562 7.39062C7.14844 6.5 5.71875 6.5 4.85156 7.39062L2.17969 10.0391C1.3125 10.9062 1.3125 12.3359 2.17969 13.2266C3.02344 14.0469 4.35938 14.0938 5.25 13.3203L5.39062 13.2031C5.625 12.9922 5.97656 13.0156 6.1875 13.25C6.39844 13.4844 6.375 13.8359 6.14062 14.0469L6 14.1641C4.66406 15.3359 2.64844 15.2656 1.38281 14.0234C0.0703125 12.7109 0.0703125 10.5547 1.38281 9.24219Z" fill="black" fill-opacity="0.72"/>
</g>
<defs>
<clipPath id="clip0_4460_521">
<rect width="15" height="18" fill="white"/>
</clipPath>
</defs>
</svg>
