<svg width="12" height="18" viewBox="0 0 12 18" fill="none" xmlns="http://www.w3.org/2000/svg">
<g id="label-paired / caption / puzzle-caption / bold" clip-path="url(#clip0_3431_669)">
<path id="icon" d="M10.5 3.5C11.3203 3.5 12 4.17969 12 5V8C12 8.21094 11.8125 8.375 11.625 8.375H10.4062C10.2422 8.375 10.125 8.51562 10.125 8.65625V8.75C10.125 9.17188 9.77344 9.5 9.375 9.5C8.95312 9.5 8.625 9.17188 8.625 8.75V8.65625C8.625 8.51562 8.48438 8.375 8.34375 8.375H7.5C7.28906 8.375 7.125 8.21094 7.125 8V7.25C7.125 7.0625 7.28906 6.875 7.5 6.875H7.875C8.27344 6.875 8.625 6.54688 8.625 6.125C8.625 5.72656 8.27344 5.375 7.875 5.375H7.5C7.28906 5.375 7.125 5.21094 7.125 5V3.875C7.125 3.6875 7.28906 3.5 7.5 3.5H10.5ZM0 9.125V6.5C0 5.67969 0.65625 5 1.5 5H4.875C5.0625 5 5.25 5.1875 5.25 5.375V6.59375C5.25 6.75781 5.36719 6.875 5.53125 6.875H5.625C6.02344 6.875 6.375 7.22656 6.375 7.625C6.375 8.04688 6.02344 8.375 5.625 8.375H5.53125C5.36719 8.375 5.25 8.51562 5.25 8.65625V9.875C5.25 10.0859 5.0625 10.25 4.875 10.25H4.125C3.91406 10.25 3.75 10.0859 3.75 9.875V9.5C3.75 9.10156 3.39844 8.75 3 8.75C2.57812 8.75 2.25 9.10156 2.25 9.5V9.875C2.25 10.0859 2.0625 10.25 1.875 10.25H1.125V13.8125C1.125 14.1406 1.35938 14.375 1.6875 14.375H5.25V13.5312C5.25 13.3906 5.10938 13.25 4.96875 13.25H4.875C4.45312 13.25 4.125 12.9219 4.125 12.5C4.125 12.1016 4.45312 11.75 4.875 11.75H4.96875C5.10938 11.75 5.25 11.6328 5.25 11.4688V10.625C5.25 10.4375 5.41406 10.25 5.625 10.25H6.75C6.9375 10.25 7.125 10.4375 7.125 10.625V11C7.125 11.4219 7.45312 11.75 7.875 11.75C8.27344 11.75 8.625 11.4219 8.625 11V10.625C8.625 10.4375 8.78906 10.25 9 10.25H10.125C10.3125 10.25 10.5 10.4375 10.5 10.625V14C10.5 14.8438 9.82031 15.5 9 15.5H6H5.625H1.6875C0.75 15.5 0 14.75 0 13.8125V9.875V9.125Z" fill="black" fill-opacity="0.72"/>
</g>
<defs>
<clipPath id="clip0_3431_669">
<rect width="12" height="18" fill="white"/>
</clipPath>
</defs>
</svg>
