<svg width="14" height="24" viewBox="0 0 14 24" fill="none" xmlns="http://www.w3.org/2000/svg">
<g id="label-paired / md / flag-checkered-md / bold" clip-path="url(#clip0_2556_15229)">
<path id="icon" d="M0.75 4C1.15625 4 1.5 4.34375 1.5 4.75V5.625L4.15625 4.96875C5.34375 4.6875 6.59375 4.8125 7.6875 5.375C9.125 6.09375 10.8438 6.09375 12.2812 5.375L12.5938 5.21875C13.2188 4.90625 14 5.375 14 6.09375V14.8125C14 15.25 13.7188 15.625 13.3438 15.75L12.25 16.1562C10.8125 16.7188 9.1875 16.625 7.8125 15.9375C6.625 15.3438 5.28125 15.1875 4 15.5L1.5 16.125V19.25C1.5 19.6875 1.15625 20 0.75 20C0.3125 20 0 19.6875 0 19.25V16.5V14.9688V6V4.75C0 4.34375 0.3125 4 0.75 4ZM1.5 8.71875L4 8.1875V6.5625L1.5 7.1875V8.71875ZM1.5 10.25V11.7188L4 11.1875V9.71875L1.5 10.25ZM1.5 13.25V14.5938L3.625 14.0625C3.75 14.0312 3.875 14 4 13.9688V12.7188L1.5 13.25ZM5.5 13.8438C6.53125 13.875 7.53125 14.125 8.5 14.5938V13.0312L6.75 12.5312C6.34375 12.4062 5.90625 12.375 5.5 12.4062V13.8438ZM10 15C10.5625 15.0625 11.1562 14.9688 11.7188 14.75L12.5 14.4688V13L11.6875 13.1875C11.125 13.3438 10.5625 13.375 10 13.3438V15ZM12.5 11.4688V10L11.6875 10.1875C11.125 10.3438 10.5625 10.375 10 10.3438V11.8438C10.4375 11.875 10.9062 11.8438 11.3438 11.75L12.5 11.4688ZM12.5 8.46875V6.90625C11.6875 7.25 10.8438 7.40625 10 7.40625V8.8125C10.4375 8.875 10.9062 8.84375 11.3438 8.75L12.5 8.46875ZM8.5 7.25C7.96875 7.125 7.5 6.9375 7.03125 6.71875C6.53125 6.46875 6 6.34375 5.5 6.3125V7.90625C6.0625 7.875 6.625 7.9375 7.1875 8.09375L8.5 8.46875V7.25ZM8.5 10.0312L6.75 9.53125C6.34375 9.40625 5.90625 9.375 5.5 9.40625V10.9062C6.0625 10.875 6.625 10.9375 7.1875 11.0938L8.5 11.4688V10.0312Z" fill="black" fill-opacity="0.72"/>
</g>
<defs>
<clipPath id="clip0_2556_15229">
<rect width="14" height="24" fill="white"/>
</clipPath>
</defs>
</svg>
