<svg width="20" height="30" viewBox="0 0 20 30" fill="none" xmlns="http://www.w3.org/2000/svg">
<g id="label-paired / lg / rotate-device-lg / fill" clip-path="url(#clip0_4329_565)">
<path id="icon" d="M16.5625 16.0469C17.3047 16.7891 17.3047 17.9609 16.5625 18.7031L13.0469 22.2578C12.3047 22.9609 11.1328 22.9609 10.3906 22.2578L3.32031 15.1875C2.57812 14.4453 2.57812 13.2734 3.32031 12.5312L6.83594 8.97656C7.57812 8.27344 8.75 8.27344 9.49219 8.97656L16.5625 16.0469ZM7.38281 10.4219C7.73438 10.7344 7.73438 11.2812 7.38281 11.6328L5.97656 13.0391C5.625 13.3906 5.07812 13.3906 4.72656 13.0391L4.64844 12.9609L4.17969 13.3906C3.94531 13.6641 3.94531 14.0547 4.17969 14.2891L11.25 21.3594C11.5234 21.5938 11.9141 21.5938 12.1484 21.3594L15.7031 17.8438C15.9375 17.5703 15.9375 17.1797 15.7031 16.9453L8.63281 9.875C8.35938 9.64062 7.96875 9.64062 7.73438 9.875L7.30469 10.3047L7.38281 10.4219ZM16.1328 9.64062C15.8203 9.32812 15.5469 9.09375 15.1953 8.85938L14.8828 8.625C14.4922 8.39062 14.1016 8.19531 13.6719 8.03906L13.2812 7.92188C13.1641 7.88281 13.0859 7.84375 12.9688 7.84375L13.9062 8.74219L13.0078 9.64062L9.76562 6.35938H11.25H11.7188C12.1875 6.39844 12.6562 6.47656 13.0859 6.55469L13.6328 6.71094L14.1016 6.86719C14.6094 7.0625 15.0781 7.29688 15.5469 7.57031L15.9375 7.84375C16.2891 8.07812 16.6797 8.39062 16.9922 8.74219C18.5938 10.3438 19.375 12.4141 19.375 14.4844H18.125C18.125 12.7266 17.4609 10.9688 16.1328 9.64062ZM3.86719 21.8672C4.17969 22.1406 4.49219 22.4141 4.80469 22.6484L5.11719 22.8438C5.50781 23.0781 5.89844 23.2734 6.32812 23.4297L6.75781 23.5859C6.83594 23.625 6.95312 23.625 7.03125 23.6641L6.13281 22.7656L7.03125 21.8672L10.2344 25.1484H8.75L8.28125 25.1094C7.8125 25.1094 7.38281 25.0312 6.91406 24.9141L6.40625 24.7969L5.89844 24.6016C5.39062 24.4453 4.92188 24.2109 4.49219 23.9375L4.10156 23.6641C3.71094 23.3906 3.35938 23.0781 3.00781 22.7656C1.40625 21.1641 0.625 19.0938 0.625 17.0234H1.875C1.875 18.7812 2.53906 20.5391 3.90625 21.8672H3.86719Z" fill="black" fill-opacity="0.72"/>
</g>
<defs>
<clipPath id="clip0_4329_565">
<rect width="20" height="30" fill="white"/>
</clipPath>
</defs>
</svg>
