<svg width="21" height="36" viewBox="0 0 21 36" fill="none" xmlns="http://www.w3.org/2000/svg">
<g id="label-paired / xl / bell-xl / fill" clip-path="url(#clip0_2556_19570)">
<path id="icon" d="M10.5 6C11.2969 6 12 6.70312 12 7.5V8.4375C15.4219 9.09375 18 12.1406 18 15.75V16.6406C18 18.8438 18.7969 21 20.25 22.6406L20.5781 23.0156C21 23.4844 21.0938 24.0938 20.8594 24.6562C20.625 25.1719 20.0625 25.5 19.5 25.5H1.5C0.890625 25.5 0.328125 25.1719 0.09375 24.6562C-0.140625 24.0938 -0.046875 23.4844 0.375 23.0156L0.703125 22.6406C2.15625 21 3 18.8438 3 16.6406V15.75C3 12.1406 5.57812 9.09375 9 8.4375V7.5C9 6.70312 9.65625 6 10.5 6ZM12.6094 29.1562C12.0469 29.7188 11.2969 30 10.5 30C9.70312 30 8.90625 29.7188 8.34375 29.1562C7.78125 28.5938 7.5 27.7969 7.5 27H10.5H13.5C13.5 27.7969 13.1719 28.5938 12.6094 29.1562Z" fill="black" fill-opacity="0.72"/>
</g>
<defs>
<clipPath id="clip0_2556_19570">
<rect width="21" height="36" fill="white"/>
</clipPath>
</defs>
</svg>
