<svg width="20" height="30" viewBox="0 0 20 30" fill="none" xmlns="http://www.w3.org/2000/svg">
<g id="label-paired / lg / life-ring-lg / regular" clip-path="url(#clip0_2556_17462)">
<path id="icon" d="M15.7031 22.1406L12.1484 18.5859C11.5234 19.0156 10.7812 19.25 10 19.25C9.17969 19.25 8.4375 19.0156 7.8125 18.5859L4.25781 22.1406C5.78125 23.4688 7.77344 24.25 10 24.25C12.1875 24.25 14.1797 23.4688 15.7031 22.1406ZM16.6016 21.2422C17.9297 19.7188 18.75 17.7266 18.75 15.5C18.75 13.3125 17.9297 11.3203 16.6016 9.79688L13.0469 13.3516C13.4766 13.9766 13.75 14.7188 13.75 15.5C13.75 16.3203 13.4766 17.0625 13.0469 17.6875L16.6016 21.2422ZM17.5 22.1406L17.9297 22.5703C18.1641 22.8047 18.1641 23.2344 17.9297 23.4688C17.6953 23.7031 17.2656 23.7031 17.0312 23.4688L16.6016 23C14.8438 24.5625 12.5391 25.5 10 25.5C7.46094 25.5 5.11719 24.5625 3.35938 23L2.92969 23.4688C2.69531 23.7031 2.26562 23.7031 2.03125 23.4688C1.79688 23.2344 1.79688 22.8047 2.03125 22.5703L2.5 22.1406C0.9375 20.3828 0 18.0391 0 15.5C0 13 0.9375 10.6562 2.5 8.89844L2.03125 8.46875C1.79688 8.23438 1.79688 7.80469 2.03125 7.57031C2.26562 7.33594 2.69531 7.33594 2.92969 7.57031L3.35938 8C5.11719 6.47656 7.46094 5.5 10 5.5C12.5 5.5 14.8438 6.47656 16.6016 8L17.0312 7.57031C17.2656 7.33594 17.6953 7.33594 17.9297 7.57031C18.1641 7.80469 18.1641 8.23438 17.9297 8.46875L17.5 8.89844C19.0234 10.6562 20 12.9609 20 15.5C20 18.0391 19.0234 20.3828 17.5 22.1406ZM15.7031 8.89844C14.1797 7.57031 12.1875 6.75 10 6.75C7.77344 6.75 5.78125 7.57031 4.25781 8.89844L7.8125 12.4531C8.4375 12.0234 9.17969 11.75 10 11.75C10.7812 11.75 11.5234 12.0234 12.1484 12.4531L15.7031 8.89844ZM6.91406 17.6875C6.48438 17.0625 6.25 16.3203 6.25 15.5C6.25 14.7188 6.48438 13.9766 6.91406 13.3516L3.35938 9.79688C2.03125 11.3203 1.25 13.3125 1.25 15.5C1.25 17.7266 2.03125 19.7188 3.35938 21.2422L6.91406 17.6875ZM7.5 15.5C7.5 16.3984 7.96875 17.2188 8.75 17.6875C9.49219 18.1172 10.4688 18.1172 11.25 17.6875C11.9922 17.2188 12.5 16.3984 12.5 15.5C12.5 14.6406 11.9922 13.8203 11.25 13.3516C10.4688 12.9219 9.49219 12.9219 8.75 13.3516C7.96875 13.8203 7.5 14.6406 7.5 15.5Z" fill="black" fill-opacity="0.72"/>
</g>
<defs>
<clipPath id="clip0_2556_17462">
<rect width="20" height="30" fill="white"/>
</clipPath>
</defs>
</svg>
