<svg width="18" height="22" viewBox="0 0 18 22" fill="none" xmlns="http://www.w3.org/2000/svg">
<g id="label-paired / sm / wallet-circle-plus-sm / fill" clip-path="url(#clip0_2556_12331)">
<path id="icon" d="M0.25 6.375C0.25 5.41797 1.01562 4.625 2 4.625H12.5C12.9648 4.625 13.375 5.03516 13.375 5.5C13.375 5.99219 12.9648 6.375 12.5 6.375H2.4375C2.19141 6.375 2 6.59375 2 6.8125C2 7.05859 2.19141 7.25 2.4375 7.25H12.5C13.457 7.25 14.25 8.04297 14.25 9V9.02734C14.0859 9.02734 13.9492 9 13.8125 9C11.1328 9 9 11.1602 9 13.8125C9 14.9883 9.41016 16.0547 10.0938 16.875H2C1.01562 16.875 0.25 16.1094 0.25 15.125V6.375ZM9.875 13.8125C9.875 11.6523 11.625 9.875 13.8125 9.875C15.9727 9.875 17.75 11.6523 17.75 13.8125C17.75 16 15.9727 17.75 13.8125 17.75C11.625 17.75 9.875 16 9.875 13.8125ZM11.625 13.8125C11.625 14.0586 11.8164 14.25 12.0625 14.25H13.375V15.5625C13.375 15.8086 13.5664 16 13.8125 16C14.0312 16 14.25 15.8086 14.25 15.5625V14.25H15.5625C15.7812 14.25 16 14.0586 16 13.8125C16 13.5938 15.7812 13.375 15.5625 13.375H14.25V12.0625C14.25 11.8438 14.0312 11.625 13.8125 11.625C13.5664 11.625 13.375 11.8438 13.375 12.0625V13.375H12.0625C11.8164 13.375 11.625 13.5938 11.625 13.8125Z" fill="black" fill-opacity="0.72"/>
</g>
<defs>
<clipPath id="clip0_2556_12331">
<rect width="18" height="22" fill="white"/>
</clipPath>
</defs>
</svg>
