<svg width="19" height="30" viewBox="0 0 19 30" fill="none" xmlns="http://www.w3.org/2000/svg">
<g id="label-paired / lg / options-lg / regular" clip-path="url(#clip0_5147_489)">
<path id="icon" d="M2.35156 25.3047C1.14062 25.3047 0.164062 24.3281 0.164062 23.1172V17.5312C0.164062 16.7891 0.75 16.1641 1.49219 16.1641H2.50781C3.28906 16.1641 3.91406 16.7891 3.91406 17.5312V19.0156L5.08594 17.8438C5.78906 17.1406 6.6875 16.75 7.66406 16.75H10.3984C11.1406 16.75 11.7656 17.375 11.7656 18.1172V18.9766C11.7656 19.7578 11.1406 20.3438 10.3984 20.3438H8.28906C7.89844 20.3438 7.46875 20.5 7.19531 20.8125L6.45312 21.5547H7.9375C8.67969 21.5547 9.30469 22.1797 9.30469 22.9219V23.9375C9.30469 24.7188 8.67969 25.3047 7.9375 25.3047H2.35156ZM1.49219 17.2188C1.33594 17.2188 1.17969 17.375 1.17969 17.5312V23.1172C1.17969 23.7422 1.72656 24.2891 2.35156 24.2891H7.89844C8.09375 24.2891 8.25 24.1328 8.25 23.9375V22.9219C8.25 22.7656 8.09375 22.6094 7.89844 22.6094H6.02344C5.67188 22.6094 5.35938 22.375 5.20312 22.0625C5.08594 21.75 5.16406 21.3594 5.39844 21.125L6.41406 20.0703C6.92188 19.6016 7.58594 19.3281 8.28906 19.3281H10.3594C10.5547 19.3281 10.6719 19.1719 10.6719 19.0156V18.1562C10.6719 17.9609 10.5547 17.8438 10.3594 17.8438H7.625C6.96094 17.8438 6.29688 18.1172 5.78906 18.5859L4.34375 20.0703C4.07031 20.3047 3.67969 20.3828 3.36719 20.2266C3.01562 20.1094 2.82031 19.7969 2.82031 19.4453V17.5312C2.82031 17.375 2.66406 17.2188 2.50781 17.2188H1.49219ZM17.5469 15.6562H16.5312C15.7891 15.6562 15.1641 15.0312 15.1641 14.25V12.7656L13.9922 13.9766C13.2891 14.6406 12.3906 15.0312 11.4141 15.0312H8.67969C7.9375 15.0312 7.3125 14.4453 7.3125 13.6641V12.8047C7.3125 12.0625 7.9375 11.4375 8.67969 11.4375H10.7891C11.1797 11.4375 11.5703 11.2812 11.8828 11.0078L12.625 10.2266H11.1406C10.3984 10.2266 9.77344 9.64062 9.77344 8.85938V7.84375C9.77344 7.10156 10.3984 6.47656 11.1406 6.47656H16.6875C17.8984 6.47656 18.9141 7.49219 18.9141 8.70312V14.25C18.9141 15.0312 18.2891 15.6172 17.5469 15.6172V15.6562ZM15.3594 11.5156C15.4766 11.5156 15.5938 11.5156 15.6719 11.5547C16.0234 11.7109 16.2188 12.0234 16.2188 12.375V14.2891C16.2188 14.4453 16.375 14.6016 16.5703 14.6016H17.5859C17.7422 14.6016 17.8984 14.4453 17.8984 14.2891V8.70312C17.8984 8.07812 17.3906 7.53125 16.7266 7.53125H11.1797C10.9844 7.53125 10.8672 7.6875 10.8672 7.84375V8.85938C10.8672 9.05469 10.9844 9.21094 11.1797 9.21094H13.0547C13.4062 9.21094 13.7188 9.40625 13.875 9.75781C13.9922 10.0703 13.9531 10.4609 13.6797 10.6953L12.6641 11.7109C12.1562 12.2188 11.5312 12.4922 10.8281 12.4922H8.71875C8.52344 12.4922 8.40625 12.6094 8.40625 12.8047V13.6641C8.40625 13.8594 8.5625 13.9766 8.71875 13.9766H11.4531C12.1562 13.9766 12.7812 13.7031 13.2891 13.2344L14.7734 11.75C14.9297 11.5938 15.125 11.5156 15.3594 11.5156Z" fill="black" fill-opacity="0.72"/>
</g>
<defs>
<clipPath id="clip0_5147_489">
<rect width="19" height="30" fill="white"/>
</clipPath>
</defs>
</svg>
