<svg width="18" height="30" viewBox="0 0 18 30" fill="none" xmlns="http://www.w3.org/2000/svg">
<g id="label-paired / lg / square-minus-lg / bold" clip-path="url(#clip0_2556_17440)">
<path id="icon" d="M2.75 8.625C2.39844 8.625 2.125 8.9375 2.125 9.25V21.75C2.125 22.1016 2.39844 22.375 2.75 22.375H15.25C15.5625 22.375 15.875 22.1016 15.875 21.75V9.25C15.875 8.9375 15.5625 8.625 15.25 8.625H2.75ZM0.25 9.25C0.25 7.88281 1.34375 6.75 2.75 6.75H15.25C16.6172 6.75 17.75 7.88281 17.75 9.25V21.75C17.75 23.1562 16.6172 24.25 15.25 24.25H2.75C1.34375 24.25 0.25 23.1562 0.25 21.75V9.25ZM6.1875 14.5625H11.8125C12.3203 14.5625 12.75 14.9922 12.75 15.5C12.75 16.0469 12.3203 16.4375 11.8125 16.4375H6.1875C5.64062 16.4375 5.25 16.0469 5.25 15.5C5.25 14.9922 5.64062 14.5625 6.1875 14.5625Z" fill="black" fill-opacity="0.72"/>
</g>
<defs>
<clipPath id="clip0_2556_17440">
<rect width="18" height="30" fill="white"/>
</clipPath>
</defs>
</svg>
