<svg width="27" height="36" viewBox="0 0 27 36" fill="none" xmlns="http://www.w3.org/2000/svg">
<g id="label-paired / xl / memo-circle-check-xl / fill" clip-path="url(#clip0_2556_19245)">
<path id="icon" d="M0 9C0 7.35938 1.3125 6 3 6H15C16.6406 6 18 7.35938 18 9V15.3281C14.5312 16.3125 12 19.5 12 23.25C12 26.0625 13.3594 28.5 15.4219 30C15.2812 30 15.1406 30 15 30H3C1.3125 30 0 28.6875 0 27V9ZM3 12.75C3 13.1719 3.32812 13.5 3.75 13.5H14.25C14.625 13.5 15 13.1719 15 12.75C15 12.375 14.625 12 14.25 12H3.75C3.32812 12 3 12.375 3 12.75ZM3.75 16.5C3.32812 16.5 3 16.875 3 17.25C3 17.6719 3.32812 18 3.75 18H11.25C11.625 18 12 17.6719 12 17.25C12 16.875 11.625 16.5 11.25 16.5H3.75ZM3.75 21C3.32812 21 3 21.375 3 21.75C3 22.1719 3.32812 22.5 3.75 22.5H8.25C8.625 22.5 9 22.1719 9 21.75C9 21.375 8.625 21 8.25 21H3.75ZM13.5 23.25C13.5 20.8594 14.7656 18.6562 16.875 17.4375C18.9375 16.2188 21.5156 16.2188 23.625 17.4375C25.6875 18.6562 27 20.8594 27 23.25C27 25.6875 25.6875 27.8906 23.625 29.1094C21.5156 30.3281 18.9375 30.3281 16.875 29.1094C14.7656 27.8906 13.5 25.6875 13.5 23.25ZM22.3125 21.2344L19.5 24.0938L18.1406 22.7344C17.8594 22.4531 17.3438 22.4531 17.0625 22.7344C16.7812 23.0156 16.7812 23.5312 17.0625 23.8125L18.9375 25.6875C19.2188 25.9688 19.7344 25.9688 20.0156 25.6875L23.3906 22.3125C23.6719 22.0312 23.6719 21.5156 23.3906 21.2344C23.1094 20.9531 22.5938 20.9531 22.3125 21.2344Z" fill="black" fill-opacity="0.72"/>
</g>
<defs>
<clipPath id="clip0_2556_19245">
<rect width="27" height="36" fill="white"/>
</clipPath>
</defs>
</svg>
