<svg width="11" height="18" viewBox="0 0 11 18" fill="none" xmlns="http://www.w3.org/2000/svg">
<g id="label-paired / caption / placeholder-caption / regular" clip-path="url(#clip0_2556_10630)">
<path id="icon" d="M2.3125 4.25H2.875C3.0625 4.25 3.25 4.4375 3.25 4.625C3.25 4.83594 3.0625 5 2.875 5H2.3125C1.58594 5 1 5.60938 1 6.3125V6.875C1 7.08594 0.8125 7.25 0.625 7.25C0.414062 7.25 0.25 7.08594 0.25 6.875V6.3125C0.25 5.1875 1.16406 4.25 2.3125 4.25ZM0.625 8C0.8125 8 1 8.1875 1 8.375V10.625C1 10.8359 0.8125 11 0.625 11C0.414062 11 0.25 10.8359 0.25 10.625V8.375C0.25 8.1875 0.414062 8 0.625 8ZM10.375 8C10.5625 8 10.75 8.1875 10.75 8.375V10.625C10.75 10.8359 10.5625 11 10.375 11C10.1641 11 10 10.8359 10 10.625V8.375C10 8.1875 10.1641 8 10.375 8ZM10.375 7.25C10.1641 7.25 10 7.08594 10 6.875V6.3125C10 5.60938 9.39062 5 8.6875 5H8.125C7.91406 5 7.75 4.83594 7.75 4.625C7.75 4.4375 7.91406 4.25 8.125 4.25H8.6875C9.8125 4.25 10.75 5.1875 10.75 6.3125V6.875C10.75 7.08594 10.5625 7.25 10.375 7.25ZM10.75 12.125V12.6875C10.75 13.8359 9.8125 14.75 8.6875 14.75H8.125C7.91406 14.75 7.75 14.5859 7.75 14.375C7.75 14.1875 7.91406 14 8.125 14H8.6875C9.39062 14 10 13.4141 10 12.6875V12.125C10 11.9375 10.1641 11.75 10.375 11.75C10.5625 11.75 10.75 11.9375 10.75 12.125ZM1 12.125V12.6875C1 13.4141 1.58594 14 2.3125 14H2.875C3.0625 14 3.25 14.1875 3.25 14.375C3.25 14.5859 3.0625 14.75 2.875 14.75H2.3125C1.16406 14.75 0.25 13.8359 0.25 12.6875V12.125C0.25 11.9375 0.414062 11.75 0.625 11.75C0.8125 11.75 1 11.9375 1 12.125ZM4.375 14.75C4.16406 14.75 4 14.5859 4 14.375C4 14.1875 4.16406 14 4.375 14H6.625C6.8125 14 7 14.1875 7 14.375C7 14.5859 6.8125 14.75 6.625 14.75H4.375ZM4 4.625C4 4.4375 4.16406 4.25 4.375 4.25H6.625C6.8125 4.25 7 4.4375 7 4.625C7 4.83594 6.8125 5 6.625 5H4.375C4.16406 5 4 4.83594 4 4.625Z" fill="black" fill-opacity="0.72"/>
</g>
<defs>
<clipPath id="clip0_2556_10630">
<rect width="11" height="18" fill="white"/>
</clipPath>
</defs>
</svg>
