<svg width="12" height="18" viewBox="0 0 12 18" fill="none" xmlns="http://www.w3.org/2000/svg">
<g id="label-paired / caption / circle-nine-caption / regular" clip-path="url(#clip0_2556_10232)">
<path id="icon" d="M11.25 9.5C11.25 7.625 10.2422 5.91406 8.625 4.97656C6.98438 4.01562 4.99219 4.01562 3.375 4.97656C1.73438 5.91406 0.75 7.625 0.75 9.5C0.75 11.3984 1.73438 13.1094 3.375 14.0469C4.99219 15.0078 6.98438 15.0078 8.625 14.0469C10.2422 13.1094 11.25 11.3984 11.25 9.5ZM0 9.5C0 7.36719 1.125 5.39844 3 4.32031C4.85156 3.24219 7.125 3.24219 9 4.32031C10.8516 5.39844 12 7.36719 12 9.5C12 11.6562 10.8516 13.625 9 14.7031C7.125 15.7812 4.85156 15.7812 3 14.7031C1.125 13.625 0 11.6562 0 9.5ZM6 7.25C5.46094 7.25 4.96875 7.55469 4.6875 8C4.42969 8.46875 4.42969 9.05469 4.6875 9.5C4.96875 9.96875 5.46094 10.25 6 10.25C6.51562 10.25 7.00781 9.96875 7.28906 9.5C7.54688 9.05469 7.54688 8.46875 7.28906 8C7.00781 7.55469 6.51562 7.25 6 7.25ZM5.90625 11C4.71094 10.9531 3.75 9.96875 3.75 8.75C3.75 7.50781 4.75781 6.5 6 6.5C7.24219 6.5 8.25 7.50781 8.25 8.75C8.25 9.45312 7.94531 10.1328 7.42969 10.6016L5.48438 12.4062C5.34375 12.5469 5.10938 12.5469 4.96875 12.3828C4.82812 12.2422 4.82812 12.0078 4.99219 11.8672L5.90625 11Z" fill="black" fill-opacity="0.72"/>
</g>
<defs>
<clipPath id="clip0_2556_10232">
<rect width="12" height="18" fill="white"/>
</clipPath>
</defs>
</svg>
