<svg width="16" height="24" viewBox="0 0 16 24" fill="none" xmlns="http://www.w3.org/2000/svg">
<g id="label-paired / md / chart-area-md / fill" clip-path="url(#clip0_2556_14778)">
<path id="icon" d="M2 6V16.5C2 16.7812 2.21875 17 2.5 17H15C15.5312 17 16 17.4688 16 18C16 18.5625 15.5312 19 15 19H2.5C1.09375 19 0 17.9062 0 16.5V6C0 5.46875 0.4375 5 1 5C1.53125 5 2 5.46875 2 6ZM5 15V15.0312C4.4375 15.0312 4 14.5625 4 14.0312V11.4062C4 11.1562 4.0625 10.9062 4.21875 10.7188L6.71875 7.90625C7.125 7.4375 7.84375 7.4375 8.25 7.90625L9.46875 9.375C9.75 9.71875 10.25 9.75 10.5625 9.4375L11.2188 8.78125C11.625 8.375 12.3125 8.375 12.6875 8.84375L14.75 11.2188C14.9062 11.4062 15 11.6562 15 11.875V14C15 14.5625 14.5312 15 14 15H5Z" fill="black" fill-opacity="0.72"/>
</g>
<defs>
<clipPath id="clip0_2556_14778">
<rect width="16" height="24" fill="white"/>
</clipPath>
</defs>
</svg>
