<svg width="24" height="36" viewBox="0 0 24 36" fill="none" xmlns="http://www.w3.org/2000/svg">
<g id="label-paired / xl / puzzle-xl / fill" clip-path="url(#clip0_3431_1035)">
<path id="icon" d="M15 6H21C22.6406 6 24 7.35938 24 9V15C24 15.4219 23.625 15.75 23.25 15.75H20.8125C20.4844 15.75 20.25 16.0312 20.25 16.3125V16.5C20.25 17.3438 19.5469 18 18.75 18C17.9062 18 17.25 17.3438 17.25 16.5V16.3125C17.25 16.0312 16.9688 15.75 16.6875 15.75H15C14.5781 15.75 14.25 15.4219 14.25 15V13.5C14.25 13.125 14.5781 12.75 15 12.75H15.75C16.5469 12.75 17.25 12.0938 17.25 11.25C17.25 10.4531 16.5469 9.75 15.75 9.75H15C14.5781 9.75 14.25 9.42188 14.25 9V6.75C14.25 6.375 14.5781 6 15 6ZM0 18V12C0 10.3594 1.3125 9 3 9H9C9.375 9 9.75 9.375 9.75 9.75V11.4375C9.75 11.7656 9.98438 12 10.3125 12H10.5C11.2969 12 12 12.7031 12 13.5C12 14.3438 11.2969 15 10.5 15H10.3125C9.98438 15 9.75 15.2812 9.75 15.5625V18C9.75 18.4219 9.375 18.75 9 18.75H7.5C7.07812 18.75 6.75 18.4219 6.75 18V17.25C6.75 16.4531 6.04688 15.75 5.25 15.75C4.40625 15.75 3.75 16.4531 3.75 17.25V18C3.75 18.4219 3.375 18.75 3 18.75H0.75C0.328125 18.75 0 18.4219 0 18ZM0 27V21C0 20.625 0.328125 20.25 0.75 20.25H9C9.375 20.25 9.75 20.625 9.75 21V22.5C9.75 22.9219 9.375 23.25 9 23.25H8.25C7.40625 23.25 6.75 23.9531 6.75 24.75C6.75 25.5938 7.40625 26.25 8.25 26.25H9C9.375 26.25 9.75 26.625 9.75 27V29.25C9.75 29.6719 9.375 30 9 30H3C1.3125 30 0 28.6875 0 27ZM11.25 21C11.25 20.625 11.5781 20.25 12 20.25H13.5C13.875 20.25 14.25 20.625 14.25 21V21.75C14.25 22.5938 14.9062 23.25 15.75 23.25C16.5469 23.25 17.25 22.5938 17.25 21.75V21C17.25 20.625 17.5781 20.25 18 20.25H20.25C20.625 20.25 21 20.625 21 21V27C21 28.6875 19.6406 30 18 30H12C11.5781 30 11.25 29.6719 11.25 29.25V21Z" fill="black" fill-opacity="0.72"/>
</g>
<defs>
<clipPath id="clip0_3431_1035">
<rect width="24" height="36" fill="white"/>
</clipPath>
</defs>
</svg>
