<svg width="24" height="36" viewBox="0 0 24 36" fill="none" xmlns="http://www.w3.org/2000/svg">
<g id="label-paired / xl / circle-calendar-xl / regular" clip-path="url(#clip0_2556_19872)">
<path id="icon" d="M22.5 18C22.5 14.25 20.4844 10.8281 17.25 8.95312C13.9688 7.03125 9.98438 7.03125 6.75 8.95312C3.46875 10.8281 1.5 14.25 1.5 18C1.5 21.7969 3.46875 25.2188 6.75 27.0938C9.98438 29.0156 13.9688 29.0156 17.25 27.0938C20.4844 25.2188 22.5 21.7969 22.5 18ZM0 18C0 13.7344 2.25 9.79688 6 7.64062C9.70312 5.48438 14.25 5.48438 18 7.64062C21.7031 9.79688 24 13.7344 24 18C24 22.3125 21.7031 26.25 18 28.4062C14.25 30.5625 9.70312 30.5625 6 28.4062C2.25 26.25 0 22.3125 0 18ZM9.75 10.5C10.125 10.5 10.5 10.875 10.5 11.25V12H13.5V11.25C13.5 10.875 13.8281 10.5 14.25 10.5C14.625 10.5 15 10.875 15 11.25V12H15.75C16.9688 12 18 13.0312 18 14.25V15V16.5V21.75C18 23.0156 16.9688 24 15.75 24H8.25C6.98438 24 6 23.0156 6 21.75V16.5V15V14.25C6 13.0312 6.98438 12 8.25 12H9V11.25C9 10.875 9.32812 10.5 9.75 10.5ZM7.5 14.25V15H16.5V14.25C16.5 13.875 16.125 13.5 15.75 13.5H14.25H9.75H8.25C7.82812 13.5 7.5 13.875 7.5 14.25ZM16.5 16.5H7.5V21.75C7.5 22.1719 7.82812 22.5 8.25 22.5H15.75C16.125 22.5 16.5 22.1719 16.5 21.75V16.5Z" fill="black" fill-opacity="0.72"/>
</g>
<defs>
<clipPath id="clip0_2556_19872">
<rect width="24" height="36" fill="white"/>
</clipPath>
</defs>
</svg>
