<svg width="14" height="18" viewBox="0 0 14 18" fill="none" xmlns="http://www.w3.org/2000/svg">
<g id="label-paired / caption / money-bill-caption / fill" clip-path="url(#clip0_2556_10243)">
<path id="icon" d="M1.75 5H12.25C13.0703 5 13.75 5.67969 13.75 6.5V12.5C13.75 13.3438 13.0703 14 12.25 14H1.75C0.90625 14 0.25 13.3438 0.25 12.5V6.5C0.25 5.67969 0.90625 5 1.75 5ZM3.25 12.5C3.25 11.6797 2.57031 11 1.75 11V12.5H3.25ZM1.75 8C2.57031 8 3.25 7.34375 3.25 6.5H1.75V8ZM10.75 12.5H12.25V11C11.4062 11 10.75 11.6797 10.75 12.5ZM12.25 8V6.5H10.75C10.75 7.34375 11.4062 8 12.25 8ZM7 7.25C6.17969 7.25 5.45312 7.69531 5.03125 8.375C4.63281 9.07812 4.63281 9.94531 5.03125 10.625C5.45312 11.3281 6.17969 11.75 7 11.75C7.79688 11.75 8.52344 11.3281 8.94531 10.625C9.34375 9.94531 9.34375 9.07812 8.94531 8.375C8.52344 7.69531 7.79688 7.25 7 7.25Z" fill="black" fill-opacity="0.72"/>
</g>
<defs>
<clipPath id="clip0_2556_10243">
<rect width="14" height="18" fill="white"/>
</clipPath>
</defs>
</svg>
