<svg width="20" height="30" viewBox="0 0 20 30" fill="none" xmlns="http://www.w3.org/2000/svg">
<g id="label-paired / lg / circle-calendar-lg / bold" clip-path="url(#clip0_2556_17586)">
<path id="icon" d="M18.125 15.5C18.125 12.6094 16.5625 9.95312 14.0625 8.46875C11.5234 7.02344 8.4375 7.02344 5.9375 8.46875C3.39844 9.95312 1.875 12.6094 1.875 15.5C1.875 18.4297 3.39844 21.0859 5.9375 22.5703C8.4375 24.0156 11.5234 24.0156 14.0625 22.5703C16.5625 21.0859 18.125 18.4297 18.125 15.5ZM0 15.5C0 11.9453 1.875 8.66406 5 6.86719C8.08594 5.07031 11.875 5.07031 15 6.86719C18.0859 8.66406 20 11.9453 20 15.5C20 19.0938 18.0859 22.375 15 24.1719C11.875 25.9688 8.08594 25.9688 5 24.1719C1.875 22.375 0 19.0938 0 15.5ZM8.125 9.875C8.4375 9.875 8.75 10.1875 8.75 10.5V11.125H11.25V10.5C11.25 10.1875 11.5234 9.875 11.875 9.875C12.1875 9.875 12.5 10.1875 12.5 10.5V11.125H13.125C14.1406 11.125 15 11.9844 15 13V14.25V18C15 19.0547 14.1406 19.875 13.125 19.875H6.875C5.82031 19.875 5 19.0547 5 18V14.25V13C5 11.9844 5.82031 11.125 6.875 11.125H7.5V10.5C7.5 10.1875 7.77344 9.875 8.125 9.875ZM6.875 18H13.125V14.25H6.875V18Z" fill="black" fill-opacity="0.72"/>
</g>
<defs>
<clipPath id="clip0_2556_17586">
<rect width="20" height="30" fill="white"/>
</clipPath>
</defs>
</svg>
