<svg width="21" height="36" viewBox="0 0 21 36" fill="none" xmlns="http://www.w3.org/2000/svg">
<g id="label-paired / xl / stopwatch-xl / bold" clip-path="url(#clip0_2556_19817)">
<path id="icon" d="M6.75 7.125C6.75 6.51562 7.21875 6 7.875 6H13.125C13.7344 6 14.25 6.51562 14.25 7.125C14.25 7.78125 13.7344 8.25 13.125 8.25H11.625V10.5938C13.6406 10.8281 15.4688 11.6719 16.9219 12.9844L18.3281 11.5781C18.75 11.1562 19.4531 11.1562 19.875 11.5781C20.3438 12.0469 20.3438 12.75 19.875 13.1719L18.4219 14.625C19.5469 16.2188 20.25 18.1875 20.25 20.25C20.25 25.6406 15.8438 30 10.5 30C5.10938 30 0.75 25.6406 0.75 20.25C0.75 15.2812 4.5 11.1562 9.375 10.5938V8.25H7.875C7.21875 8.25 6.75 7.78125 6.75 7.125ZM10.5 27.75C13.1719 27.75 15.6094 26.3438 16.9688 24C18.3281 21.7031 18.3281 18.8438 16.9688 16.5C15.6094 14.2031 13.1719 12.75 10.5 12.75C7.78125 12.75 5.34375 14.2031 3.98438 16.5C2.625 18.8438 2.625 21.7031 3.98438 24C5.34375 26.3438 7.78125 27.75 10.5 27.75ZM11.625 16.125V21C11.625 21.6562 11.1094 22.125 10.5 22.125C9.84375 22.125 9.375 21.6562 9.375 21V16.125C9.375 15.5156 9.84375 15 10.5 15C11.1094 15 11.625 15.5156 11.625 16.125Z" fill="black" fill-opacity="0.72"/>
</g>
<defs>
<clipPath id="clip0_2556_19817">
<rect width="21" height="36" fill="white"/>
</clipPath>
</defs>
</svg>
