<svg width="14" height="22" viewBox="0 0 14 22" fill="none" xmlns="http://www.w3.org/2000/svg">
<g id="label-paired / sm / objects-align-left-sm / bold" clip-path="url(#clip0_3431_767)">
<path id="icon" d="M0 4.40625C0 4.05078 0.273438 3.75 0.65625 3.75C1.01172 3.75 1.3125 4.05078 1.3125 4.40625V17.0938C1.3125 17.4766 1.01172 17.75 0.65625 17.75C0.273438 17.75 0 17.4766 0 17.0938V4.40625ZM4.8125 8.5625H12.6875V6.8125H4.8125V8.5625ZM3.5 6.8125C3.5 6.10156 4.07422 5.5 4.8125 5.5H12.6875C13.3984 5.5 14 6.10156 14 6.8125V8.5625C14 9.30078 13.3984 9.875 12.6875 9.875H4.8125C4.07422 9.875 3.5 9.30078 3.5 8.5625V6.8125ZM4.8125 14.6875H9.1875V12.9375H4.8125V14.6875ZM3.5 12.9375C3.5 12.2266 4.07422 11.625 4.8125 11.625H9.1875C9.89844 11.625 10.5 12.2266 10.5 12.9375V14.6875C10.5 15.4258 9.89844 16 9.1875 16H4.8125C4.07422 16 3.5 15.4258 3.5 14.6875V12.9375Z" fill="black" fill-opacity="0.72"/>
</g>
<defs>
<clipPath id="clip0_3431_767">
<rect width="14" height="22" fill="white"/>
</clipPath>
</defs>
</svg>
