<svg width="16" height="24" viewBox="0 0 16 24" fill="none" xmlns="http://www.w3.org/2000/svg">
<g id="label-paired / md / circle-nine-md / bold" clip-path="url(#clip0_2556_14811)">
<path id="icon" d="M14.5 12C14.5 9.6875 13.25 7.5625 11.25 6.375C9.21875 5.21875 6.75 5.21875 4.75 6.375C2.71875 7.5625 1.5 9.6875 1.5 12C1.5 14.3438 2.71875 16.4688 4.75 17.6562C6.75 18.8125 9.21875 18.8125 11.25 17.6562C13.25 16.4688 14.5 14.3438 14.5 12ZM0 12C0 9.15625 1.5 6.53125 4 5.09375C6.46875 3.65625 9.5 3.65625 12 5.09375C14.4688 6.53125 16 9.15625 16 12C16 14.875 14.4688 17.5 12 18.9375C9.5 20.375 6.46875 20.375 4 18.9375C1.5 17.5 0 14.875 0 12ZM8 9.5C7.4375 9.5 6.96875 9.8125 6.6875 10.25C6.40625 10.7188 6.40625 11.3125 6.6875 11.75C6.96875 12.2188 7.4375 12.5 8 12.5C8.53125 12.5 9 12.2188 9.28125 11.75C9.5625 11.3125 9.5625 10.7188 9.28125 10.25C9 9.8125 8.53125 9.5 8 9.5ZM7.1875 13.9062C5.90625 13.5312 5 12.375 5 11C5 9.34375 6.34375 8 8 8C9.65625 8 11 9.34375 11 11C11 12.0312 10.5312 13 9.78125 13.6562L7.21875 15.8438C6.90625 16.0938 6.4375 16.0625 6.15625 15.75C5.90625 15.4375 5.9375 14.9688 6.25 14.6875L7.1875 13.9062Z" fill="black" fill-opacity="0.72"/>
</g>
<defs>
<clipPath id="clip0_2556_14811">
<rect width="16" height="24" fill="white"/>
</clipPath>
</defs>
</svg>
