<svg width="13" height="22" viewBox="0 0 13 22" fill="none" xmlns="http://www.w3.org/2000/svg">
<g id="label-paired / sm / user-sm / bold" clip-path="url(#clip0_2556_12283)">
<path id="icon" d="M8.6875 7.25C8.6875 6.48438 8.25 5.77344 7.59375 5.36328C6.91016 4.98047 6.0625 4.98047 5.40625 5.36328C4.72266 5.77344 4.3125 6.48438 4.3125 7.25C4.3125 8.04297 4.72266 8.75391 5.40625 9.16406C6.0625 9.54688 6.91016 9.54688 7.59375 9.16406C8.25 8.75391 8.6875 8.04297 8.6875 7.25ZM3 7.25C3 6.01953 3.65625 4.87109 4.75 4.24219C5.81641 3.61328 7.15625 3.61328 8.25 4.24219C9.31641 4.87109 10 6.01953 10 7.25C10 8.50781 9.31641 9.65625 8.25 10.2852C7.15625 10.9141 5.81641 10.9141 4.75 10.2852C3.65625 9.65625 3 8.50781 3 7.25ZM1.71484 16.4375H11.2578C11.0117 14.7148 9.53516 13.375 7.73047 13.375H5.24219C3.4375 13.375 1.96094 14.7148 1.71484 16.4375ZM0.375 16.957C0.375 14.25 2.53516 12.0625 5.24219 12.0625H7.73047C10.4375 12.0625 12.625 14.25 12.625 16.957C12.625 17.3945 12.2422 17.75 11.8047 17.75H1.16797C0.730469 17.75 0.375 17.3945 0.375 16.957Z" fill="black" fill-opacity="0.72"/>
</g>
<defs>
<clipPath id="clip0_2556_12283">
<rect width="13" height="22" fill="white"/>
</clipPath>
</defs>
</svg>
