<svg width="12" height="24" viewBox="0 0 12 24" fill="none" xmlns="http://www.w3.org/2000/svg">
<g id="label-paired / md / arrow-down-to-line-md / fill" clip-path="url(#clip0_2556_14876)">
<path id="icon" d="M1 19C0.4375 19 0 18.5625 0 18C0 17.4688 0.4375 17 1 17H11C11.5312 17 12 17.4688 12 18C12 18.5625 11.5312 19 11 19H1ZM6.6875 14.7188C6.3125 15.125 5.65625 15.125 5.28125 14.7188L1.28125 10.7188C0.875 10.3438 0.875 9.6875 1.28125 9.3125C1.65625 8.90625 2.3125 8.90625 2.6875 9.3125L5 11.5938V6C5 5.46875 5.4375 5 6 5C6.53125 5 7 5.46875 7 6V11.5938L9.28125 9.3125C9.65625 8.90625 10.3125 8.90625 10.6875 9.3125C11.0938 9.6875 11.0938 10.3438 10.6875 10.7188L6.6875 14.7188Z" fill="black" fill-opacity="0.72"/>
</g>
<defs>
<clipPath id="clip0_2556_14876">
<rect width="12" height="24" fill="white"/>
</clipPath>
</defs>
</svg>
