<svg width="12" height="18" viewBox="0 0 12 18" fill="none" xmlns="http://www.w3.org/2000/svg">
<g id="label-paired / caption / circle-arrow-down-right-caption / regular" clip-path="url(#clip0_2556_10293)">
<path id="icon" d="M6 14.75C7.875 14.75 9.58594 13.7656 10.5234 12.125C11.4844 10.5078 11.4844 8.51562 10.5234 6.875C9.58594 5.25781 7.875 4.25 6 4.25C4.10156 4.25 2.39062 5.25781 1.45312 6.875C0.492188 8.51562 0.492188 10.5078 1.45312 12.125C2.39062 13.7656 4.10156 14.75 6 14.75ZM6 3.5C8.13281 3.5 10.1016 4.64844 11.1797 6.5C12.2578 8.375 12.2578 10.6484 11.1797 12.5C10.1016 14.375 8.13281 15.5 6 15.5C3.84375 15.5 1.875 14.375 0.796875 12.5C-0.28125 10.6484 -0.28125 8.375 0.796875 6.5C1.875 4.64844 3.84375 3.5 6 3.5ZM4.6875 11.75C4.47656 11.75 4.3125 11.5859 4.3125 11.375C4.3125 11.1875 4.47656 11 4.6875 11H6.96094L3.84375 7.90625C3.70312 7.76562 3.70312 7.50781 3.84375 7.36719C3.98438 7.22656 4.24219 7.22656 4.38281 7.36719L7.5 10.4844V8C7.5 7.8125 7.66406 7.625 7.875 7.625C8.0625 7.625 8.25 7.8125 8.25 8V11.375C8.25 11.5859 8.0625 11.75 7.875 11.75H4.6875Z" fill="black" fill-opacity="0.72"/>
</g>
<defs>
<clipPath id="clip0_2556_10293">
<rect width="12" height="18" fill="white"/>
</clipPath>
</defs>
</svg>
