<svg width="20" height="24" viewBox="0 0 20 24" fill="none" xmlns="http://www.w3.org/2000/svg">
<g id="label-paired / md / person-chalkboard-md / bold" clip-path="url(#clip0_2556_14927)">
<path id="icon" d="M6 7C5.4375 7 4.96875 6.71875 4.6875 6.25C4.40625 5.8125 4.40625 5.21875 4.6875 4.75C4.96875 4.3125 5.4375 4 6 4C6.53125 4 7 4.3125 7.28125 4.75C7.5625 5.21875 7.5625 5.8125 7.28125 6.25C7 6.71875 6.53125 7 6 7ZM5.5625 9.5C5.53125 9.5 5.5 9.53125 5.5 9.53125V13.5H6.5V9.5H5.5625ZM5.5 19.25C5.5 19.6875 5.15625 20 4.75 20C4.3125 20 4 19.6875 4 19.25V11L2.625 13.375C2.4375 13.75 1.96875 13.875 1.625 13.6562C1.25 13.4688 1.125 13 1.34375 12.6562L3.15625 9.40625C3.65625 8.5625 4.5625 8 5.5625 8H7.59375H10V5.5C10 4.6875 10.6562 4 11.5 4H18.5C19.3125 4 20 4.6875 20 5.5V12.5C20 13.3438 19.3125 14 18.5 14H11.5C10.6562 14 10 13.3438 10 12.5V11H11.5V12.5H18.5V5.5H11.5V8H12.25C12.6562 8 13 8.34375 13 8.75C13 9.1875 12.6562 9.5 12.25 9.5H8V19.25C8 19.6875 7.65625 20 7.25 20C6.8125 20 6.5 19.6875 6.5 19.25V15H5.5V19.25Z" fill="black" fill-opacity="0.72"/>
</g>
<defs>
<clipPath id="clip0_2556_14927">
<rect width="20" height="24" fill="white"/>
</clipPath>
</defs>
</svg>
