<svg width="30" height="36" viewBox="0 0 30 36" fill="none" xmlns="http://www.w3.org/2000/svg">
<g id="label-paired / xl / volume-high-xl / regular" clip-path="url(#clip0_3758_680)">
<path id="icon" d="M7.07812 14.8125C6.9375 14.9531 6.75 15 6.60938 15H2.625C1.96875 15 1.5 15.5156 1.5 16.125V19.875C1.5 20.5312 1.96875 21 2.625 21H6.60938C6.75 21 6.9375 21.0938 7.07812 21.1875L13.5 26.9062V9.14062L7.07812 14.8125ZM13.5938 7.5C14.3438 7.5 15 8.15625 15 8.90625V27.1406C15 27.8906 14.3438 28.5 13.5938 28.5C13.2188 28.5 12.8906 28.4062 12.6562 28.1719L13.1719 27.6094L12.6562 28.1719L6.28125 22.5H2.625C1.17188 22.5 0 21.3281 0 19.875V16.125C0 14.7188 1.17188 13.5 2.625 13.5H6.28125L12.6562 7.875C12.8906 7.64062 13.2188 7.5 13.5938 7.5ZM19.1719 14.4375C20.25 15.2344 21 16.5469 21 18C21 19.5 20.25 20.8125 19.1719 21.6094C18.8438 21.8906 18.375 21.7969 18.1406 21.4688C17.8594 21.1406 17.9531 20.6719 18.2812 20.4375C19.0312 19.875 19.5 18.9844 19.5 18C19.5 17.0625 19.0312 16.1719 18.2812 15.6094C17.9531 15.375 17.8594 14.9062 18.1406 14.5781C18.375 14.25 18.8438 14.1562 19.1719 14.4375ZM21.1406 11.1562C21.4219 10.875 21.8906 10.8281 22.2188 11.0625C24.1875 12.75 25.5 15.2344 25.5 18C25.5 20.8125 24.1875 23.2969 22.2188 24.9375C21.8906 25.2188 21.4219 25.1719 21.1406 24.8438C20.9062 24.5625 20.9531 24.0469 21.2344 23.8125C22.9219 22.4531 24 20.3438 24 18C24 15.7031 22.9219 13.5938 21.2344 12.2344C20.9062 11.9531 20.9062 11.4844 21.1406 11.1562ZM25.2188 7.73438C28.125 10.2188 30 13.875 30 18C30 22.125 28.125 25.8281 25.2188 28.3125C24.8906 28.5938 24.4219 28.5469 24.1406 28.2188C23.8594 27.8906 23.9062 27.4219 24.2344 27.1875C26.8125 24.9844 28.4531 21.7031 28.4531 18C28.4531 14.3438 26.8125 11.0625 24.2344 8.85938C23.9062 8.57812 23.8594 8.10938 24.1406 7.82812C24.4219 7.5 24.8906 7.45312 25.2188 7.73438Z" fill="black" fill-opacity="0.72"/>
</g>
<defs>
<clipPath id="clip0_3758_680">
<rect width="30" height="36" fill="white"/>
</clipPath>
</defs>
</svg>
