<svg width="18" height="22" viewBox="0 0 18 22" fill="none" xmlns="http://www.w3.org/2000/svg">
<g id="label-paired / sm / book-circle-question-sm / fill" clip-path="url(#clip0_2981_775)">
<path id="icon" d="M0.25 6.375C0.25 4.92578 1.42578 3.75 2.875 3.75H10.75H11.625C12.0898 3.75 12.5 4.16016 12.5 4.625V9.19141C10.4766 9.76562 9 11.625 9 13.8125C9 13.9766 9 14.1133 9 14.25H2.875C2.38281 14.25 2 14.6602 2 15.125C2 15.6172 2.38281 16 2.875 16H9.51953C9.875 16.7109 10.3945 17.3125 11.0234 17.75H10.75H2.875C1.42578 17.75 0.25 16.5742 0.25 15.125V6.375ZM3.75 7.6875C3.75 7.93359 3.94141 8.125 4.1875 8.125H9.4375C9.65625 8.125 9.875 7.93359 9.875 7.6875C9.875 7.46875 9.65625 7.25 9.4375 7.25H4.1875C3.94141 7.25 3.75 7.46875 3.75 7.6875ZM3.75 9.4375C3.75 9.68359 3.94141 9.875 4.1875 9.875H9.4375C9.65625 9.875 9.875 9.68359 9.875 9.4375C9.875 9.21875 9.65625 9 9.4375 9H4.1875C3.94141 9 3.75 9.21875 3.75 9.4375ZM9.875 13.8125C9.875 11.6523 11.625 9.875 13.8125 9.875C15.9727 9.875 17.75 11.6523 17.75 13.8125C17.75 16 15.9727 17.75 13.8125 17.75C11.625 17.75 9.875 16 9.875 13.8125ZM12.0625 12.5547V12.7188C12.0625 12.9648 12.2539 13.1562 12.5 13.1562C12.7188 13.1562 12.9375 12.9648 12.9375 12.7188V12.5547C12.9375 12.418 13.0469 12.2812 13.1836 12.2812H14.3047C14.4961 12.2812 14.6875 12.4727 14.6875 12.6641C14.6875 12.8281 14.6055 12.9375 14.4688 13.0195L13.5938 13.457C13.457 13.5391 13.375 13.7031 13.375 13.8672V14.25C13.375 14.4961 13.5664 14.6875 13.8125 14.6875C14.0312 14.6875 14.25 14.4961 14.25 14.25V14.1133L14.8789 13.7852C15.2891 13.5664 15.5625 13.1289 15.5625 12.6641C15.5625 11.9805 14.9883 11.4336 14.3047 11.4336H13.1836C12.5547 11.4336 12.0625 11.9258 12.0625 12.5547ZM13.1562 15.7812C13.1562 16.1641 13.4297 16.4375 13.8125 16.4375C14.168 16.4375 14.4688 16.1641 14.4688 15.7812C14.4688 15.4258 14.168 15.125 13.8125 15.125C13.4297 15.125 13.1562 15.4258 13.1562 15.7812Z" fill="black" fill-opacity="0.72"/>
</g>
<defs>
<clipPath id="clip0_2981_775">
<rect width="18" height="22" fill="white"/>
</clipPath>
</defs>
</svg>
