<svg width="18" height="24" viewBox="0 0 18 24" fill="none" xmlns="http://www.w3.org/2000/svg">
<g id="label-paired / md / rectangle-barcode-md / fill" clip-path="url(#clip0_2556_15071)">
<path id="icon" d="M2 5H16C17.0938 5 18 5.90625 18 7V17C18 18.125 17.0938 19 16 19H2C0.875 19 0 18.125 0 17V7C0 5.90625 0.875 5 2 5ZM3.75 8C3.3125 8 3 8.34375 3 8.75V15.25C3 15.6875 3.3125 16 3.75 16C4.15625 16 4.5 15.6875 4.5 15.25V8.75C4.5 8.34375 4.15625 8 3.75 8ZM5.5 8.5V15.5C5.5 15.7812 5.71875 16 6 16C6.25 16 6.5 15.7812 6.5 15.5V8.5C6.5 8.25 6.25 8 6 8C5.71875 8 5.5 8.25 5.5 8.5ZM8.25 8C7.8125 8 7.5 8.34375 7.5 8.75V15.25C7.5 15.6875 7.8125 16 8.25 16C8.65625 16 9 15.6875 9 15.25V8.75C9 8.34375 8.65625 8 8.25 8ZM11 8.75V15.25C11 15.6875 11.3125 16 11.75 16C12.1562 16 12.5 15.6875 12.5 15.25V8.75C12.5 8.34375 12.1562 8 11.75 8C11.3125 8 11 8.34375 11 8.75ZM14.5 8C14.2188 8 14 8.25 14 8.5V15.5C14 15.7812 14.2188 16 14.5 16C14.75 16 15 15.7812 15 15.5V8.5C15 8.25 14.75 8 14.5 8Z" fill="black" fill-opacity="0.72"/>
</g>
<defs>
<clipPath id="clip0_2556_15071">
<rect width="18" height="24" fill="white"/>
</clipPath>
</defs>
</svg>
