<svg width="16" height="24" viewBox="0 0 16 24" fill="none" xmlns="http://www.w3.org/2000/svg">
<g id="label-paired / md / bullhorn-md / bold" clip-path="url(#clip0_2556_15081)">
<path id="icon" d="M13.5 6.3125L13.1562 6.65625C11.375 8.4375 9 9.4375 6.5 9.5V13.5V13.5312C9 13.5625 11.375 14.5938 13.1562 16.375L13.5 16.7188V6.3125ZM5 8H6.25C8.4375 8 10.5312 7.15625 12.0938 5.59375L13.2812 4.40625C13.9062 3.78125 15 4.21875 15 5.125V9.625C15.5625 9.90625 16 10.6562 16 11.5C16 12.375 15.5625 13.125 15 13.4062V17.9062C15 18.8125 13.9062 19.25 13.2812 18.625L12.0938 17.4375C10.5938 15.9375 8.59375 15.0625 6.5 15.0312V18.25C6.5 19.2188 5.6875 20 4.75 20H3.75C2.78125 20 2 19.2188 2 18.25V15C0.875 15 0 14.125 0 13V10C0 8.90625 0.875 8 2 8H5ZM3.5 15V18.25C3.5 18.4062 3.59375 18.5 3.75 18.5H4.75C4.875 18.5 5 18.4062 5 18.25V15H3.5ZM2 9.5C1.71875 9.5 1.5 9.75 1.5 10V13C1.5 13.2812 1.71875 13.5 2 13.5H3.5H5V9.5H2Z" fill="black" fill-opacity="0.72"/>
</g>
<defs>
<clipPath id="clip0_2556_15081">
<rect width="16" height="24" fill="white"/>
</clipPath>
</defs>
</svg>
