<svg width="14" height="18" viewBox="0 0 14 18" fill="none" xmlns="http://www.w3.org/2000/svg">
<g id="label-paired / caption / folder-open-caption / regular" clip-path="url(#clip0_3431_702)">
<path id="icon" d="M10.75 7.25C10.75 6.85156 10.3984 6.5 10 6.5H7.23438C6.64844 6.5 6.0625 6.26562 5.64062 5.84375L5.03125 5.23438L5.54688 4.69531L5.03125 5.23438C4.89062 5.09375 4.70312 5 4.49219 5H1.75C1.32812 5 1 5.35156 1 5.75V12.4766L2.19531 9.47656C2.35938 9.03125 2.78125 8.75 3.25 8.75H12.625C12.9766 8.75 13.3281 8.9375 13.5391 9.26562C13.75 9.57031 13.7969 9.94531 13.6562 10.2969L12.1562 14.0469C11.9922 14.4922 11.5703 14.75 11.125 14.75H9.25H1.75C0.90625 14.75 0.25 14.0938 0.25 13.25V5.75C0.25 4.92969 0.90625 4.25 1.75 4.25H4.49219C4.89062 4.25 5.26562 4.41406 5.54688 4.69531L6.17969 5.32812C6.46094 5.60938 6.83594 5.75 7.23438 5.75H10C10.8203 5.75 11.5 6.42969 11.5 7.25V8H10.75V7.25ZM9.25 14H11.125C11.2656 14 11.4062 13.9062 11.4531 13.7656L12.9531 10.0156C13 9.89844 13 9.78125 12.9297 9.66406C12.8594 9.57031 12.7422 9.5 12.625 9.5H3.25C3.08594 9.5 2.94531 9.59375 2.89844 9.75781L1.39844 13.5078C1.35156 13.6016 1.35156 13.7422 1.42188 13.8359C1.49219 13.9531 1.60938 14 1.75 14H9.25Z" fill="black" fill-opacity="0.72"/>
</g>
<defs>
<clipPath id="clip0_3431_702">
<rect width="14" height="18" fill="white"/>
</clipPath>
</defs>
</svg>
