<svg width="14" height="24" viewBox="0 0 14 24" fill="none" xmlns="http://www.w3.org/2000/svg">
<g id="label-paired / md / objects-column-md / bold" clip-path="url(#clip0_3431_830)">
<path id="icon" d="M1.5 6.5V11.5H4.5V6.5H1.5ZM0 6.5C0 5.6875 0.65625 5 1.5 5H4.5C5.3125 5 6 5.6875 6 6.5V11.5C6 12.3438 5.3125 13 4.5 13H1.5C0.65625 13 0 12.3438 0 11.5V6.5ZM9.5 12.5V17.5H12.5V12.5H9.5ZM8 12.5C8 11.6875 8.65625 11 9.5 11H12.5C13.3125 11 14 11.6875 14 12.5V17.5C14 18.3438 13.3125 19 12.5 19H9.5C8.65625 19 8 18.3438 8 17.5V12.5ZM4.5 15.5H1.5V17.5H4.5V15.5ZM1.5 14H4.5C5.3125 14 6 14.6875 6 15.5V17.5C6 18.3438 5.3125 19 4.5 19H1.5C0.65625 19 0 18.3438 0 17.5V15.5C0 14.6875 0.65625 14 1.5 14ZM9.5 6.5V8.5H12.5V6.5H9.5ZM8 6.5C8 5.6875 8.65625 5 9.5 5H12.5C13.3125 5 14 5.6875 14 6.5V8.5C14 9.34375 13.3125 10 12.5 10H9.5C8.65625 10 8 9.34375 8 8.5V6.5Z" fill="black" fill-opacity="0.72"/>
</g>
<defs>
<clipPath id="clip0_3431_830">
<rect width="14" height="24" fill="white"/>
</clipPath>
</defs>
</svg>
