<svg width="16" height="24" viewBox="0 0 16 24" fill="none" xmlns="http://www.w3.org/2000/svg">
<g id="label-paired / md / thumbs-up-md / regular" clip-path="url(#clip0_2556_14987)">
<path id="icon" d="M9 6.5625L8.875 7.09375C8.53125 8.34375 7.71875 9.4375 6.625 10.125L6.53125 10.1875C6.28125 10.3438 6.0625 10.5625 5.875 10.8125C5.71875 11.0312 5.40625 11.0938 5.1875 10.9375C4.96875 10.75 4.90625 10.4375 5.0625 10.2188C5.3125 9.875 5.625 9.59375 6 9.34375L6.09375 9.28125C6.96875 8.71875 7.625 7.84375 7.90625 6.8125L8.03125 6.3125C8.3125 5.375 9.25 4.8125 10.1875 5.0625C11.125 5.34375 11.6875 6.28125 11.4375 7.21875L11.2812 7.75C11.1562 8.1875 11 8.59375 10.8125 9H14C15.0938 9 16 9.90625 16 11C16 11.5625 15.75 12.0625 15.4062 12.4375C15.4688 12.625 15.5 12.8125 15.5 13C15.5 13.5938 15.2188 14.125 14.8438 14.5C14.9375 14.7188 15 15 15 15.25C15 16 14.5938 16.6562 14 17C14 18.125 13.0938 19 12 19H9.1875C8.5 19 7.8125 18.8125 7.25 18.4375L6.03125 17.625C5.65625 17.3438 5.3125 17.0312 5.0625 16.625C4.90625 16.4062 4.96875 16.0938 5.21875 15.9375C5.4375 15.7812 5.75 15.8438 5.90625 16.0938C6.09375 16.375 6.3125 16.5938 6.59375 16.7812L7.8125 17.5938C8.21875 17.875 8.6875 18 9.1875 18H12C12.5312 18 13 17.5625 13 17C13 16.9375 12.9688 16.875 12.9688 16.8125C12.9062 16.5625 13.0625 16.2812 13.3125 16.2188C13.6875 16.0938 14 15.7188 14 15.2812C14 15.0312 13.9062 14.8125 13.7812 14.6562C13.6875 14.5312 13.6562 14.4062 13.6875 14.25C13.7188 14.0938 13.8125 13.9688 13.9375 13.9062C14.2812 13.75 14.5 13.4062 14.5 13.0312C14.5 12.8438 14.4375 12.6562 14.3438 12.5312C14.2188 12.2812 14.3125 12 14.5312 11.875C14.8125 11.6875 15 11.375 15 11.0312C15 10.4688 14.5312 10.0312 14 10.0312H9.96875C9.78125 10.0312 9.625 9.90625 9.53125 9.75C9.4375 9.59375 9.4375 9.40625 9.53125 9.25C9.875 8.71875 10.1562 8.09375 10.3125 7.46875L10.4688 6.96875C10.5625 6.5625 10.3438 6.15625 9.9375 6.03125C9.53125 5.9375 9.125 6.15625 9 6.5625ZM1 11V18H3V11H1ZM0 11C0 10.4688 0.4375 10 1 10H3C3.53125 10 4 10.4688 4 11V18C4 18.5625 3.53125 19 3 19H1C0.4375 19 0 18.5625 0 18V11Z" fill="black" fill-opacity="0.72"/>
</g>
<defs>
<clipPath id="clip0_2556_14987">
<rect width="16" height="24" fill="white"/>
</clipPath>
</defs>
</svg>
