<svg width="20" height="30" viewBox="0 0 20 30" fill="none" xmlns="http://www.w3.org/2000/svg">
<g id="label-paired / lg / pen-lg / regular" clip-path="url(#clip0_2556_17020)">
<path id="icon" d="M15.4297 7.0625L13.3203 9.21094L16.2891 12.1797L18.4375 10.0703C18.7891 9.67969 18.7891 9.09375 18.4375 8.74219L16.7578 7.0625C16.4062 6.71094 15.8203 6.71094 15.4297 7.0625ZM12.4219 10.0703L3.24219 19.2891C2.92969 19.5625 2.69531 19.9531 2.57812 20.3438L1.52344 23.9766L5.15625 22.8828C5.54688 22.7656 5.9375 22.5703 6.21094 22.2578L15.4297 13.0781L12.4219 10.0703ZM17.6562 6.16406L19.3359 7.84375C20.1562 8.70312 20.1562 10.0703 19.3359 10.9297L7.10938 23.1562C6.64062 23.5859 6.09375 23.9375 5.50781 24.0938L0.78125 25.5C0.546875 25.5391 0.3125 25.5 0.15625 25.3438C0 25.1875 -0.0390625 24.9531 0 24.7188L1.40625 19.9922C1.5625 19.4062 1.91406 18.8594 2.34375 18.3906L14.5703 6.16406C15.4297 5.34375 16.7969 5.34375 17.6562 6.16406Z" fill="black" fill-opacity="0.72"/>
</g>
<defs>
<clipPath id="clip0_2556_17020">
<rect width="20" height="30" fill="white"/>
</clipPath>
</defs>
</svg>
