<svg width="16" height="24" viewBox="0 0 16 24" fill="none" xmlns="http://www.w3.org/2000/svg">
<g id="label-paired / md / pen-md / fill" clip-path="url(#clip0_2556_14723)">
<path id="icon" d="M11.3125 4.625C12.0938 3.84375 13.375 3.84375 14.1562 4.625L15.375 5.84375C16.1562 6.625 16.1562 7.90625 15.375 8.6875L13.875 10.1875L9.8125 6.125L11.3125 4.625ZM9.09375 6.84375L13.1562 10.9062L5.875 18.1875C5.5625 18.5 5.15625 18.75 4.71875 18.875L0.9375 20C0.6875 20.0625 0.40625 20 0.21875 19.7812C0 19.5938 -0.0625 19.3125 0.03125 19.0625L1.125 15.2812C1.25 14.8438 1.5 14.4375 1.8125 14.125L9.09375 6.84375Z" fill="black" fill-opacity="0.72"/>
</g>
<defs>
<clipPath id="clip0_2556_14723">
<rect width="16" height="24" fill="white"/>
</clipPath>
</defs>
</svg>
