<svg width="15" height="36" viewBox="0 0 15 36" fill="none" xmlns="http://www.w3.org/2000/svg">
<g id="label-paired / xl / caret-up-xl / regular" clip-path="url(#clip0_2556_19713)">
<path id="icon" d="M7.21875 13.6406L1.59375 18.9375C1.5 19.0312 1.5 19.0781 1.5 19.1719C1.5 19.3594 1.64062 19.5 1.82812 19.5H13.125C13.3125 19.5 13.5 19.3594 13.5 19.1719C13.5 19.0781 13.4531 18.9844 13.3594 18.9375L7.73438 13.6406C7.6875 13.5469 7.59375 13.5 7.5 13.5C7.35938 13.5 7.26562 13.5469 7.21875 13.6406ZM6.1875 12.5156C6.51562 12.1875 6.98438 12 7.5 12C7.96875 12 8.4375 12.1875 8.76562 12.5156L14.3906 17.8594C14.7656 18.1875 15 18.7031 15 19.1719C15 20.2031 14.1562 21 13.125 21H1.82812C0.796875 21 0 20.2031 0 19.1719C0 18.7031 0.1875 18.1875 0.5625 17.8594L6.1875 12.5156Z" fill="black" fill-opacity="0.72"/>
</g>
<defs>
<clipPath id="clip0_2556_19713">
<rect width="15" height="36" fill="white"/>
</clipPath>
</defs>
</svg>
