<svg width="20" height="24" viewBox="0 0 20 24" fill="none" xmlns="http://www.w3.org/2000/svg">
<g id="label-paired / md / computer-md / bold" clip-path="url(#clip0_2556_14751)">
<path id="icon" d="M12 6.5H2C1.71875 6.5 1.5 6.75 1.5 7V14C1.5 14.2812 1.71875 14.5 2 14.5H5.1875H5.75H8.25H8.78125H12C12.25 14.5 12.5 14.2812 12.5 14V7C12.5 6.75 12.25 6.5 12 6.5ZM2 16C0.875 16 0 15.125 0 14V7C0 5.90625 0.875 5 2 5H12C13.0938 5 14 5.90625 14 7V14C14 15.125 13.0938 16 12 16H9.28125L9.78125 17.5H11.25C11.6562 17.5 12 17.8438 12 18.25C12 18.6875 11.6562 19 11.25 19H10.2812H9.25H4.75H3.6875H2.75C2.3125 19 2 18.6875 2 18.25C2 17.8438 2.3125 17.5 2.75 17.5H4.1875L4.6875 16H2ZM5.78125 17.5H8.1875L7.6875 16H6.28125L5.78125 17.5ZM16.5 6.5V7.5H18.5V6.5H16.5ZM16.5 9V10H18.5V9H16.5ZM18.5 11.5H16.5V17.5H18.5V11.5ZM15 6.5C15 5.6875 15.6562 5 16.5 5H18.5C19.3125 5 20 5.6875 20 6.5V17.5C20 18.3438 19.3125 19 18.5 19H16.5C15.6562 19 15 18.3438 15 17.5V6.5ZM17.5 15.25C17.0625 15.25 16.75 14.9375 16.75 14.5C16.75 14.0938 17.0625 13.75 17.5 13.75C17.9062 13.75 18.25 14.0938 18.25 14.5C18.25 14.9375 17.9062 15.25 17.5 15.25Z" fill="black" fill-opacity="0.72"/>
</g>
<defs>
<clipPath id="clip0_2556_14751">
<rect width="20" height="24" fill="white"/>
</clipPath>
</defs>
</svg>
