<svg width="27" height="36" viewBox="0 0 27 36" fill="none" xmlns="http://www.w3.org/2000/svg">
<g id="label-paired / xl / memo-circle-check-xl / regular" clip-path="url(#clip0_2556_19246)">
<path id="icon" d="M15 7.5H3C2.15625 7.5 1.5 8.20312 1.5 9V27C1.5 27.8438 2.15625 28.5 3 28.5H13.875C14.3438 29.0625 14.8594 29.5781 15.4219 30C15.2812 30 15.1406 30 15 30H3C1.3125 30 0 28.6875 0 27V9C0 7.35938 1.3125 6 3 6H15C16.6406 6 18 7.35938 18 9V15.3281C17.4375 15.4688 16.9688 15.6562 16.5 15.9375V9C16.5 8.20312 15.7969 7.5 15 7.5ZM3 12.75C3 12.375 3.32812 12 3.75 12H14.25C14.625 12 15 12.375 15 12.75C15 13.1719 14.625 13.5 14.25 13.5H3.75C3.32812 13.5 3 13.1719 3 12.75ZM3.75 16.5H12.75C13.125 16.5 13.5 16.875 13.5 17.25C13.5 17.6719 13.125 18 12.75 18H3.75C3.32812 18 3 17.6719 3 17.25C3 16.875 3.32812 16.5 3.75 16.5ZM3.75 21H9.75C10.125 21 10.5 21.375 10.5 21.75C10.5 22.1719 10.125 22.5 9.75 22.5H3.75C3.32812 22.5 3 22.1719 3 21.75C3 21.375 3.32812 21 3.75 21ZM20.25 28.5C22.125 28.5 23.8125 27.5156 24.75 25.875C25.7344 24.2812 25.7344 22.2656 24.75 20.625C23.8125 19.0312 22.125 18 20.25 18C18.3281 18 16.6406 19.0312 15.7031 20.625C14.7188 22.2656 14.7188 24.2812 15.7031 25.875C16.6406 27.5156 18.3281 28.5 20.25 28.5ZM20.25 16.5C22.6406 16.5 24.8438 17.8125 26.0625 19.875C27.2812 21.9844 27.2812 24.5625 26.0625 26.625C24.8438 28.7344 22.6406 30 20.25 30C17.8125 30 15.6094 28.7344 14.3906 26.625C13.1719 24.5625 13.1719 21.9844 14.3906 19.875C15.6094 17.8125 17.8125 16.5 20.25 16.5ZM22.3125 21.2344C22.5938 20.9531 23.1094 20.9531 23.3906 21.2344C23.6719 21.5156 23.6719 22.0312 23.3906 22.3125L20.0156 25.6875C19.7344 25.9688 19.2188 25.9688 18.9375 25.6875L17.0625 23.8125C16.7812 23.5312 16.7812 23.0156 17.0625 22.7344C17.3438 22.4531 17.8594 22.4531 18.1406 22.7344L19.5 24.0938L22.3125 21.2344Z" fill="black" fill-opacity="0.72"/>
</g>
<defs>
<clipPath id="clip0_2556_19246">
<rect width="27" height="36" fill="white"/>
</clipPath>
</defs>
</svg>
