<svg width="13" height="22" viewBox="0 0 13 22" fill="none" xmlns="http://www.w3.org/2000/svg">
<g id="label-paired / sm / calendar-range-sm / bold" clip-path="url(#clip0_2556_12963)">
<path id="icon" d="M4.53125 4.40625V5.5H8.46875V4.40625C8.46875 4.05078 8.74219 3.75 9.125 3.75C9.48047 3.75 9.78125 4.05078 9.78125 4.40625V5.5H10.875C11.832 5.5 12.625 6.29297 12.625 7.25V7.6875V9V16C12.625 16.9844 11.832 17.75 10.875 17.75H2.125C1.14062 17.75 0.375 16.9844 0.375 16V9V7.6875V7.25C0.375 6.29297 1.14062 5.5 2.125 5.5H3.21875V4.40625C3.21875 4.05078 3.49219 3.75 3.875 3.75C4.23047 3.75 4.53125 4.05078 4.53125 4.40625ZM1.6875 9V16C1.6875 16.2461 1.87891 16.4375 2.125 16.4375H10.875C11.0938 16.4375 11.3125 16.2461 11.3125 16V9H1.6875ZM3 11.625C3 11.1602 3.38281 10.75 3.875 10.75C4.33984 10.75 4.75 11.1602 4.75 11.625C4.75 12.1172 4.33984 12.5 3.875 12.5C3.38281 12.5 3 12.1172 3 11.625ZM9.125 13.375C9.58984 13.375 10 13.7852 10 14.25C10 14.7422 9.58984 15.125 9.125 15.125C8.63281 15.125 8.25 14.7422 8.25 14.25C8.25 13.7852 8.63281 13.375 9.125 13.375ZM5.625 11.625C5.625 11.2695 5.89844 10.9688 6.28125 10.9688H9.34375C9.69922 10.9688 10 11.2695 10 11.625C10 12.0078 9.69922 12.2812 9.34375 12.2812H6.28125C5.89844 12.2812 5.625 12.0078 5.625 11.625ZM6.71875 13.5938C7.07422 13.5938 7.375 13.8945 7.375 14.25C7.375 14.6328 7.07422 14.9062 6.71875 14.9062H3.65625C3.27344 14.9062 3 14.6328 3 14.25C3 13.8945 3.27344 13.5938 3.65625 13.5938H6.71875Z" fill="black" fill-opacity="0.72"/>
</g>
<defs>
<clipPath id="clip0_2556_12963">
<rect width="13" height="22" fill="white"/>
</clipPath>
</defs>
</svg>
