<svg width="24" height="36" viewBox="0 0 24 36" fill="none" xmlns="http://www.w3.org/2000/svg">
<g id="label-paired / xl / briefcase-xl / bold" clip-path="url(#clip0_2362_722)">
<path id="icon" d="M8.25 8.625V10.5H15.75V8.625C15.7188 8.40625 15.5938 8.28125 15.375 8.25H8.625C8.40625 8.28125 8.28125 8.40625 8.25 8.625ZM6 10.5V8.625C6.03125 7.875 6.28125 7.25 6.75 6.75C7.25 6.28125 7.875 6.03125 8.625 6H15.375C16.125 6.03125 16.75 6.28125 17.25 6.75C17.7188 7.25 17.9688 7.875 18 8.625V10.5H21C21.8438 10.5312 22.5469 10.8281 23.1094 11.3906C23.6719 11.9531 23.9688 12.6562 24 13.5V19.125V25.5C23.9688 26.3438 23.6719 27.0469 23.1094 27.6094C22.5469 28.1719 21.8438 28.4688 21 28.5H3C2.15625 28.4688 1.45312 28.1719 0.890625 27.6094C0.328125 27.0469 0.03125 26.3438 0 25.5V19.125V13.5C0.03125 12.6562 0.328125 11.9531 0.890625 11.3906C1.45312 10.8281 2.15625 10.5312 3 10.5H6ZM2.25 20.25V25.5C2.28125 25.9688 2.53125 26.2188 3 26.25H21C21.4688 26.2188 21.7188 25.9688 21.75 25.5V20.25H15V21C15 21.4375 14.8594 21.7969 14.5781 22.0781C14.2969 22.3594 13.9375 22.5 13.5 22.5H10.5C10.0625 22.5 9.70312 22.3594 9.42188 22.0781C9.14062 21.7969 9 21.4375 9 21V20.25H2.25ZM9 18H15H21.75V13.5C21.7188 13.0312 21.4688 12.7812 21 12.75H16.875H7.125H3C2.53125 12.7812 2.28125 13.0312 2.25 13.5V18H9Z" fill="black" fill-opacity="0.72"/>
</g>
<defs>
<clipPath id="clip0_2362_722">
<rect width="24" height="36" fill="white"/>
</clipPath>
</defs>
</svg>
