<svg width="25" height="30" viewBox="0 0 25 30" fill="none" xmlns="http://www.w3.org/2000/svg">
<g id="label-paired / lg / passkey-lg / fill" clip-path="url(#clip0_2556_17129)">
<path id="icon" d="M4.25781 23.2344V20.1484C4.25781 19.5625 4.41406 19.0156 4.76562 18.5078C5.07812 18 5.46875 17.6094 6.01562 17.3359C6.91406 16.9062 7.8125 16.5547 8.78906 16.3203C9.72656 16.125 10.6641 16.0078 11.6406 16.0078C11.9531 16.0078 12.2656 16.0078 12.5391 16.0078C12.8516 16.0469 13.1641 16.0859 13.4766 16.125C13.3984 17.0234 13.5547 17.8828 13.9453 18.7031C14.375 19.4844 14.9609 20.1484 15.7031 20.6172V23.2344H4.25781ZM18.7891 25.2266L17.3828 23.8594V19.6016C16.7188 19.4062 16.1719 19.0156 15.7422 18.4688C15.3125 17.8828 15.1172 17.2578 15.1172 16.5156C15.1172 15.6172 15.4297 14.875 16.0547 14.25C16.6797 13.625 17.4219 13.3125 18.3203 13.3125C19.2188 13.3125 19.9609 13.625 20.5859 14.25C21.2109 14.875 21.5234 15.6562 21.5234 16.5156C21.5234 17.2188 21.3281 17.8047 20.9766 18.3516C20.5859 18.8594 20.1172 19.25 19.4922 19.4844L20.625 20.6562L19.2188 22.0234L20.625 23.3906L18.7891 25.2266ZM11.6406 15.1484C10.5469 15.1484 9.57031 14.7578 8.78906 13.9766C8.00781 13.1953 7.61719 12.2188 7.61719 11.125C7.61719 9.99219 8.00781 9.05469 8.78906 8.27344C9.57031 7.49219 10.5469 7.10156 11.6406 7.10156C12.7734 7.10156 13.7109 7.49219 14.4922 8.27344C15.3125 9.05469 15.7031 10.0312 15.7031 11.125C15.7031 12.2188 15.3125 13.1953 14.4922 13.9766C13.7109 14.7578 12.7734 15.1484 11.6406 15.1484ZM18.3203 16.9844C18.6719 16.9844 18.9844 16.8281 19.1797 16.5547C19.3359 16.2422 19.3359 15.8906 19.1797 15.5781C18.9844 15.3047 18.6719 15.1094 18.3203 15.1484C17.9688 15.1094 17.6562 15.3047 17.4609 15.5781C17.3047 15.8906 17.3047 16.2422 17.4609 16.5547C17.6562 16.8281 17.9688 16.9844 18.3203 16.9844Z" fill="black" fill-opacity="0.72"/>
</g>
<defs>
<clipPath id="clip0_2556_17129">
<rect width="25" height="30" fill="white"/>
</clipPath>
</defs>
</svg>
