<svg width="24" height="36" viewBox="0 0 24 36" fill="none" xmlns="http://www.w3.org/2000/svg">
<g id="label-paired / xl / chevrons-right-xl / regular" clip-path="url(#clip0_2556_19742)">
<path id="icon" d="M3.51562 27.5625C3.23438 27.8438 2.71875 27.8438 2.4375 27.5625C2.15625 27.2812 2.15625 26.7656 2.4375 26.4844L10.9219 18L2.4375 9.5625C2.15625 9.28125 2.15625 8.76562 2.4375 8.48438C2.71875 8.20312 3.23438 8.20312 3.51562 8.48438L12.5156 17.4844C12.7969 17.7656 12.7969 18.2812 12.5156 18.5625L3.51562 27.5625ZM12.5156 27.5625C12.2344 27.8438 11.7188 27.8438 11.4375 27.5625C11.1562 27.2812 11.1562 26.7656 11.4375 26.4844L19.9219 18L11.4375 9.5625C11.1562 9.28125 11.1562 8.76562 11.4375 8.48438C11.7188 8.20312 12.2344 8.20312 12.5156 8.48438L21.5156 17.4844C21.7969 17.7656 21.7969 18.2812 21.5156 18.5625L12.5156 27.5625Z" fill="black" fill-opacity="0.72"/>
</g>
<defs>
<clipPath id="clip0_2556_19742">
<rect width="24" height="36" fill="white"/>
</clipPath>
</defs>
</svg>
