<svg width="24" height="36" viewBox="0 0 24 36" fill="none" xmlns="http://www.w3.org/2000/svg">
<g id="label-paired / xl / telegram-xl" clip-path="url(#clip0_2556_19320)">
<path id="icon" d="M12 6.375C18.375 6.375 23.625 11.625 23.625 18C23.625 24.4219 18.375 29.625 12 29.625C5.57812 29.625 0.375 24.4219 0.375 18C0.375 11.625 5.57812 6.375 12 6.375ZM17.3438 14.2969C17.3906 14.1562 17.3906 14.0156 17.3438 13.8281C17.3438 13.7344 17.25 13.5938 17.2031 13.5469C17.0625 13.4062 16.8281 13.4062 16.7344 13.4062C16.3125 13.4062 15.6094 13.6406 12.375 15C11.25 15.4688 9 16.4062 5.625 17.9062C5.0625 18.1406 4.78125 18.3281 4.73438 18.5625C4.6875 18.9375 5.29688 19.0781 6 19.3125C6.60938 19.5 7.40625 19.7344 7.82812 19.7344C8.20312 19.7344 8.625 19.5938 9.09375 19.2656C12.2344 17.1094 13.875 16.0312 13.9688 16.0312C14.0625 16.0312 14.1562 15.9844 14.2031 16.0312C14.2969 16.125 14.2969 16.2188 14.25 16.2656C14.2031 16.5 11.25 19.2188 11.0625 19.4062C10.4062 20.0625 9.65625 20.4844 10.8281 21.2344C11.8125 21.8906 12.375 22.3125 13.4062 22.9688C14.0625 23.3906 14.5781 23.9062 15.2344 23.8594C15.5625 23.8125 15.8906 23.5312 16.0312 22.6406C16.4531 20.625 17.2031 16.125 17.3438 14.2969Z" fill="black" fill-opacity="0.72"/>
</g>
<defs>
<clipPath id="clip0_2556_19320">
<rect width="24" height="36" fill="white"/>
</clipPath>
</defs>
</svg>
