<svg width="18" height="24" viewBox="0 0 18 24" fill="none" xmlns="http://www.w3.org/2000/svg">
<g id="label-paired / md / presentation-screen-md / regular" clip-path="url(#clip0_2556_14907)">
<path id="icon" d="M0.5 4H17.5C17.75 4 18 4.25 18 4.5C18 4.78125 17.75 5 17.5 5H0.5C0.21875 5 0 4.78125 0 4.5C0 4.25 0.21875 4 0.5 4ZM1 6H2V13C2 13.5625 2.4375 14 3 14H9H15C15.5312 14 16 13.5625 16 13V6H17V13C17 14.125 16.0938 15 15 15H9.5V16.3125L12.3438 19.1562C12.5312 19.3438 12.5312 19.6875 12.3438 19.875C12.1562 20.0625 11.8125 20.0625 11.625 19.875L9 17.2188L6.34375 19.875C6.15625 20.0625 5.8125 20.0625 5.625 19.875C5.4375 19.6875 5.4375 19.3438 5.625 19.1562L8.5 16.3125V15H3C1.875 15 1 14.125 1 13V6Z" fill="black" fill-opacity="0.72"/>
</g>
<defs>
<clipPath id="clip0_2556_14907">
<rect width="18" height="24" fill="white"/>
</clipPath>
</defs>
</svg>
