<svg width="16" height="24" viewBox="0 0 16 24" fill="none" xmlns="http://www.w3.org/2000/svg">
<g id="label-paired / md / circle-arrow-up-left-md / bold" clip-path="url(#clip0_2556_15273)">
<path id="icon" d="M8 5.5C5.65625 5.5 3.53125 6.75 2.34375 8.75C1.1875 10.7812 1.1875 13.25 2.34375 15.25C3.53125 17.2812 5.65625 18.5 8 18.5C10.3125 18.5 12.4375 17.2812 13.625 15.25C14.7812 13.25 14.7812 10.7812 13.625 8.75C12.4375 6.75 10.3125 5.5 8 5.5ZM8 20C5.125 20 2.5 18.5 1.0625 16C-0.375 13.5312 -0.375 10.5 1.0625 8C2.5 5.53125 5.125 4 8 4C10.8438 4 13.4688 5.53125 14.9062 8C16.3438 10.5 16.3438 13.5312 14.9062 16C13.4688 18.5 10.8438 20 8 20ZM10 8.5V8.53125C10.4062 8.53125 10.75 8.84375 10.75 9.28125C10.75 9.6875 10.4062 10.0312 10 10.0312H7.03125L11.25 14.25C11.5625 14.5312 11.5625 15 11.25 15.2812C10.9688 15.5938 10.5 15.5938 10.2188 15.2812L6 11.0625V14.25C6 14.6875 5.65625 15 5.25 15C4.8125 15 4.5 14.6875 4.5 14.25V9.25C4.5 8.84375 4.8125 8.5 5.25 8.5H10Z" fill="black" fill-opacity="0.72"/>
</g>
<defs>
<clipPath id="clip0_2556_15273">
<rect width="16" height="24" fill="white"/>
</clipPath>
</defs>
</svg>
