<svg width="25" height="30" viewBox="0 0 25 30" fill="none" xmlns="http://www.w3.org/2000/svg">
<g id="label-paired / lg / hand-gesture-tap-right-lg / fill" clip-path="url(#clip0_3546_790)">
<path id="icon" d="M17.0312 12.9609C17.5391 13.1953 17.7344 13.7812 17.5 14.25L14.5703 20.4609C14.4531 20.6562 14.5703 20.8906 14.7266 20.9688C14.9609 21.0469 15.1562 20.9688 15.2734 20.7734L15.8203 19.5625C15.8594 19.6016 15.8984 19.6797 15.9375 19.7188L16.1719 20.2656C16.3672 20.6953 16.3672 21.1641 16.1719 21.5938L15.7812 22.4141C15.3906 23.2734 14.6484 23.8984 13.7109 24.1328L13.5547 24.1719C12.6953 24.4062 11.7578 24.2891 10.9375 23.8984L8.32031 22.6484C6.75781 21.9453 6.09375 20.0703 6.83594 18.5078L7.85156 16.3984C8.125 15.8125 8.82812 15.5391 9.41406 15.8125C9.6875 15.9688 9.88281 16.2031 10 16.4766C10.2734 15.9297 10.9375 15.6953 11.4844 15.9688C11.7969 16.0859 11.9531 16.3203 12.0703 16.5938C12.3828 16.0469 13.0469 15.8516 13.5938 16.0859C13.8672 16.2422 14.0625 16.4375 14.1797 16.7109L15.7422 13.4297C15.9375 12.9609 16.5234 12.7266 17.0312 12.9609ZM14.5312 14.6016L15.1953 13.2344C15.5469 12.4922 16.4844 12.1406 17.2656 12.4922C18.0469 12.8828 18.3594 13.8203 18.0078 14.6016L17.4219 15.8125C18.4766 15.5 19.2188 14.5234 19.2188 13.3906C19.2188 12.0234 18.125 10.8906 16.7188 10.8906C15.3516 10.8906 14.2188 12.0234 14.2188 13.3906C14.2188 13.8203 14.3359 14.25 14.5312 14.6016ZM20.4688 6.75C20.0781 6.75 19.7266 7.10156 19.7266 7.53125V23.5078C19.7266 23.9375 20.0781 24.25 20.4688 24.25C20.8984 24.25 21.25 23.9375 21.25 23.5078V7.53125C21.25 7.10156 20.8984 6.75 20.4688 6.75Z" fill="black" fill-opacity="0.72"/>
</g>
<defs>
<clipPath id="clip0_3546_790">
<rect width="25" height="30" fill="white"/>
</clipPath>
</defs>
</svg>
