<svg width="18" height="24" viewBox="0 0 18 24" fill="none" xmlns="http://www.w3.org/2000/svg">
<g id="label-paired / md / volume-xmark-md / fill" clip-path="url(#clip0_3758_593)">
<path id="icon" d="M9.40625 5.09375C9.75 5.25 10 5.625 10 6V18C10 18.4062 9.75 18.75 9.40625 18.9375C9.03125 19.0938 8.625 19.0312 8.3125 18.75L4.09375 15H2C0.875 15 0 14.125 0 13V11C0 9.90625 0.875 9 2 9H4.09375L8.3125 5.28125C8.625 5 9.03125 4.9375 9.40625 5.09375ZM13.2812 9.21875L15 10.9375L16.7188 9.21875C17 8.9375 17.4688 8.9375 17.75 9.21875C18.0625 9.53125 18.0625 10 17.75 10.2812L16.0312 12L17.75 13.7188C18.0625 14.0312 18.0625 14.5 17.75 14.7812C17.4688 15.0938 17 15.0938 16.7188 14.7812L15 13.0625L13.2812 14.7812C12.9688 15.0938 12.5 15.0938 12.2188 14.7812C11.9062 14.5 11.9062 14.0312 12.2188 13.7188L13.9375 12L12.2188 10.2812C11.9062 10 11.9062 9.53125 12.2188 9.21875C12.5 8.9375 12.9688 8.9375 13.2812 9.21875Z" fill="black" fill-opacity="0.72"/>
</g>
<defs>
<clipPath id="clip0_3758_593">
<rect width="18" height="24" fill="white"/>
</clipPath>
</defs>
</svg>
