<svg width="18" height="36" viewBox="0 0 18 36" fill="none" xmlns="http://www.w3.org/2000/svg">
<g id="label-paired / xl / location-dot-xl / bold" clip-path="url(#clip0_2556_19691)">
<path id="icon" d="M15.75 15C15.75 11.2969 12.7031 8.25 9 8.25C5.25 8.25 2.25 11.2969 2.25 15C2.25 15.6094 2.4375 16.5 2.95312 17.7188C3.42188 18.8438 4.125 20.1562 4.92188 21.4688C6.28125 23.625 7.82812 25.6875 9 27.1875C10.125 25.6875 11.6719 23.625 13.0312 21.4688C13.8281 20.1562 14.5312 18.8438 15 17.7188C15.5156 16.5 15.75 15.6094 15.75 15ZM18 15C18 19.125 12.5156 26.3906 10.0781 29.4375C9.51562 30.1406 8.4375 30.1406 7.875 29.4375C5.48438 26.3906 0 19.125 0 15C0 10.0312 4.03125 6 9 6C13.9688 6 18 10.0312 18 15ZM10.5 15C10.5 14.2031 9.79688 13.5 9 13.5C8.15625 13.5 7.5 14.2031 7.5 15C7.5 15.8438 8.15625 16.5 9 16.5C9.79688 16.5 10.5 15.8438 10.5 15ZM5.25 15C5.25 13.6875 5.95312 12.4688 7.125 11.7656C8.25 11.1094 9.70312 11.1094 10.875 11.7656C12 12.4688 12.75 13.6875 12.75 15C12.75 16.3594 12 17.5781 10.875 18.2812C9.70312 18.9375 8.25 18.9375 7.125 18.2812C5.95312 17.5781 5.25 16.3594 5.25 15Z" fill="black" fill-opacity="0.72"/>
</g>
<defs>
<clipPath id="clip0_2556_19691">
<rect width="18" height="36" fill="white"/>
</clipPath>
</defs>
</svg>
