<svg width="15" height="18" viewBox="0 0 15 18" fill="none" xmlns="http://www.w3.org/2000/svg">
<g id="label-paired / caption / bell-slash-caption / fill" clip-path="url(#clip0_2556_10152)">
<path id="icon" d="M0.890625 3.64062L4.35938 6.33594C4.89844 5.51562 5.74219 4.90625 6.75 4.71875V4.25C6.75 3.85156 7.07812 3.5 7.5 3.5C7.89844 3.5 8.25 3.85156 8.25 4.25V4.71875C9.96094 5.04688 11.25 6.57031 11.25 8.375V8.82031C11.25 9.92188 11.6484 11 12.375 11.8203L12.5391 12.0078C12.75 12.2422 12.7969 12.5469 12.6797 12.8281C12.6797 12.8281 12.6562 12.8281 12.6562 12.8516L14.7656 14.5156C15.0234 14.7031 15.0703 15.0547 14.8594 15.2891C14.6719 15.5469 14.3203 15.5938 14.0859 15.3828L0.210938 4.50781C-0.046875 4.32031 -0.09375 3.96875 0.117188 3.73438C0.304688 3.47656 0.65625 3.42969 0.890625 3.64062ZM9.51562 13.25H3C2.69531 13.25 2.41406 13.0859 2.29688 12.8281C2.17969 12.5469 2.22656 12.2422 2.4375 12.0078L2.60156 11.8203C3.32812 11 3.75 9.92188 3.75 8.82031V8.72656L9.51562 13.25ZM8.55469 15.0781C8.27344 15.3594 7.89844 15.5 7.5 15.5C7.10156 15.5 6.70312 15.3594 6.42188 15.0781C6.14062 14.7969 6 14.3984 6 14H7.5H9C9 14.3984 8.83594 14.7969 8.55469 15.0781Z" fill="black" fill-opacity="0.72"/>
</g>
<defs>
<clipPath id="clip0_2556_10152">
<rect width="15" height="18" fill="white"/>
</clipPath>
</defs>
</svg>
