<svg width="24" height="36" viewBox="0 0 24 36" fill="none" xmlns="http://www.w3.org/2000/svg">
<g id="label-paired / xl / pen-circle-xl / bold" clip-path="url(#clip0_2556_19357)">
<path id="icon" d="M21.75 18C21.75 14.5312 19.875 11.3438 16.875 9.5625C13.8281 7.82812 10.125 7.82812 7.125 9.5625C4.07812 11.3438 2.25 14.5312 2.25 18C2.25 21.5156 4.07812 24.7031 7.125 26.4844C10.125 28.2188 13.8281 28.2188 16.875 26.4844C19.875 24.7031 21.75 21.5156 21.75 18ZM0 18C0 13.7344 2.25 9.79688 6 7.64062C9.70312 5.48438 14.25 5.48438 18 7.64062C21.7031 9.79688 24 13.7344 24 18C24 22.3125 21.7031 26.25 18 28.4062C14.25 30.5625 9.70312 30.5625 6 28.4062C2.25 26.25 0 22.3125 0 18ZM16.7344 12.5625L17.4375 13.2656C18.1406 13.9688 18.1406 15.1406 17.4375 15.8906L16.4062 16.9219L13.0781 13.5938L14.1094 12.5625C14.8125 11.8594 16.0312 11.8594 16.7344 12.5625ZM7.07812 19.5469L12.0469 14.625L15.375 17.9531L10.4062 22.875C10.2188 23.0625 9.98438 23.2031 9.75 23.2969L6.89062 24C6.65625 24.0469 6.375 24 6.1875 23.8125C6 23.625 5.95312 23.3438 6 23.0625L6.70312 20.25C6.75 20.0156 6.89062 19.7344 7.07812 19.5469Z" fill="black" fill-opacity="0.72"/>
</g>
<defs>
<clipPath id="clip0_2556_19357">
<rect width="24" height="36" fill="white"/>
</clipPath>
</defs>
</svg>
