<svg width="20" height="30" viewBox="0 0 20 30" fill="none" xmlns="http://www.w3.org/2000/svg">
<g id="label-paired / lg / circle-eight-lg / regular" clip-path="url(#clip0_2556_17285)">
<path id="icon" d="M18.75 15.5C18.75 12.375 17.0703 9.52344 14.375 7.96094C11.6406 6.35938 8.32031 6.35938 5.625 7.96094C2.89062 9.52344 1.25 12.375 1.25 15.5C1.25 18.6641 2.89062 21.5156 5.625 23.0781C8.32031 24.6797 11.6406 24.6797 14.375 23.0781C17.0703 21.5156 18.75 18.6641 18.75 15.5ZM0 15.5C0 11.9453 1.875 8.66406 5 6.86719C8.08594 5.07031 11.875 5.07031 15 6.86719C18.0859 8.66406 20 11.9453 20 15.5C20 19.0938 18.0859 22.375 15 24.1719C11.875 25.9688 8.08594 25.9688 5 24.1719C1.875 22.375 0 19.0938 0 15.5ZM10.4688 10.5C11.9141 10.5 13.125 11.7109 13.125 13.1562C13.125 13.9766 12.7734 14.6797 12.2266 15.1484C12.9297 15.6953 13.4375 16.5547 13.4375 17.5312C13.4375 19.1719 12.1094 20.5 10.4688 20.5H9.53125C7.89062 20.5 6.5625 19.1719 6.5625 17.5312C6.5625 16.5547 7.03125 15.6953 7.73438 15.1484C7.1875 14.6797 6.875 13.9766 6.875 13.1562C6.875 11.7109 8.04688 10.5 9.53125 10.5H10.4688ZM9.53125 14.5625H10.4688C11.2109 14.5625 11.875 13.9375 11.875 13.1562C11.875 12.4141 11.2109 11.75 10.4688 11.75H9.53125C8.75 11.75 8.125 12.4141 8.125 13.1562C8.125 13.9375 8.75 14.5625 9.53125 14.5625ZM10.4688 15.8125H9.53125C8.55469 15.8125 7.8125 16.5938 7.8125 17.5312C7.8125 18.5078 8.55469 19.25 9.53125 19.25H10.4688C11.4062 19.25 12.1875 18.5078 12.1875 17.5312C12.1875 16.5938 11.4062 15.8125 10.4688 15.8125Z" fill="black" fill-opacity="0.72"/>
</g>
<defs>
<clipPath id="clip0_2556_17285">
<rect width="20" height="30" fill="white"/>
</clipPath>
</defs>
</svg>
