<svg width="21" height="36" viewBox="0 0 21 36" fill="none" xmlns="http://www.w3.org/2000/svg">
<g id="label-paired / xl / flag-checkered-xl / fill" clip-path="url(#clip0_2556_19383)">
<path id="icon" d="M1.5 6C2.29688 6 3 6.70312 3 7.5V8.25L6.23438 7.45312C8.01562 7.03125 9.89062 7.21875 11.5312 8.0625C13.6875 9.14062 16.2656 9.14062 18.4219 8.0625L18.8906 7.82812C19.8281 7.35938 21 8.0625 21 9.14062V22.2188C21 22.875 20.5781 23.4375 20.0156 23.625L18.375 24.2344C16.2188 25.0781 13.7812 24.9375 11.7188 23.9062C9.9375 23.0156 7.92188 22.7812 6 23.25L3 24V28.5C3 29.3438 2.29688 30 1.5 30C0.65625 30 0 29.3438 0 28.5V24.75V21.6562V9V7.5C0 6.70312 0.65625 6 1.5 6ZM3 14.8125L6 14.1562V17.2031L3 17.8594V20.9062L5.25 20.3438C5.48438 20.2969 5.71875 20.25 6 20.2031V17.2031L7.78125 16.8281C8.20312 16.7344 8.57812 16.6875 9 16.7344V13.7344C9.60938 13.7344 10.2656 13.8281 10.875 14.0156L12 14.3438V17.4844L10.0312 16.875C9.70312 16.7812 9.32812 16.7344 9 16.7344V20.0625C9.98438 20.1562 11.0156 20.3906 12 20.7188V17.4844L13.0312 17.7656C13.6875 17.9531 14.3438 18.0938 15 18.1406V15.0938C14.625 15.0938 14.25 15 13.875 14.9062L12 14.3438V11.4375C11.3906 11.25 10.7812 11.0156 10.1719 10.7344C9.79688 10.5469 9.375 10.4062 9 10.3125V13.7344C8.39062 13.6875 7.78125 13.7344 7.17188 13.875L6 14.1562V10.5938L3 11.3438V14.8125ZM15 21.75C15.75 21.8438 16.5469 21.7031 17.3438 21.4219L18 21.1875V17.8125L17.625 17.9062C16.7344 18.0938 15.8438 18.1875 15 18.1406V21.75ZM18 14.7656V11.4375C17.0156 11.7188 15.9844 11.8594 15 11.8594V15.0938C15.6094 15.1875 16.3125 15.1406 16.9219 15L18 14.7656Z" fill="black" fill-opacity="0.72"/>
</g>
<defs>
<clipPath id="clip0_2556_19383">
<rect width="21" height="36" fill="white"/>
</clipPath>
</defs>
</svg>
