<svg width="27" height="36" viewBox="0 0 27 36" fill="none" xmlns="http://www.w3.org/2000/svg">
<g id="label-paired / xl / pen-line-xl / fill" clip-path="url(#clip0_2556_19351)">
<path id="icon" d="M21.2344 6.9375L23.0625 8.76562C24.2344 9.9375 24.2344 11.8594 23.0625 13.0312L20.8125 15.2812L14.7188 9.1875L16.9688 6.9375C18.1406 5.76562 20.0625 5.76562 21.2344 6.9375ZM2.71875 21.1875L13.6406 10.2656L19.7344 16.3594L8.8125 27.2812C8.34375 27.75 7.73438 28.125 7.07812 28.3125L1.40625 29.9531C1.03125 30.0938 0.609375 30 0.328125 29.6719C0 29.3906 -0.09375 28.9688 0.046875 28.5938L1.6875 22.9219C1.875 22.2656 2.25 21.6562 2.71875 21.1875ZM11.625 27.75H25.875C26.4844 27.75 27 28.2656 27 28.875C27 29.5312 26.4844 30 25.875 30H11.625C10.9688 30 10.5 29.5312 10.5 28.875C10.5 28.2656 10.9688 27.75 11.625 27.75Z" fill="black" fill-opacity="0.72"/>
</g>
<defs>
<clipPath id="clip0_2556_19351">
<rect width="27" height="36" fill="white"/>
</clipPath>
</defs>
</svg>
