<svg width="21" height="36" viewBox="0 0 21 36" fill="none" xmlns="http://www.w3.org/2000/svg">
<g id="label-paired / xl / expand-xl / fill" clip-path="url(#clip0_2556_19938)">
<path id="icon" d="M1.5 7.5H6C6.79688 7.5 7.5 8.20312 7.5 9C7.5 9.84375 6.79688 10.5 6 10.5H3V13.5C3 14.3438 2.29688 15 1.5 15C0.65625 15 0 14.3438 0 13.5V9C0 8.20312 0.65625 7.5 1.5 7.5ZM3 22.5V25.5H6C6.79688 25.5 7.5 26.2031 7.5 27C7.5 27.8438 6.79688 28.5 6 28.5H1.5C0.65625 28.5 0 27.8438 0 27V22.5C0 21.7031 0.65625 21 1.5 21C2.29688 21 3 21.7031 3 22.5ZM15 7.5H19.5C20.2969 7.5 21 8.20312 21 9V13.5C21 14.3438 20.2969 15 19.5 15C18.6562 15 18 14.3438 18 13.5V10.5H15C14.1562 10.5 13.5 9.84375 13.5 9C13.5 8.20312 14.1562 7.5 15 7.5ZM21 22.5V27C21 27.8438 20.2969 28.5 19.5 28.5H15C14.1562 28.5 13.5 27.8438 13.5 27C13.5 26.2031 14.1562 25.5 15 25.5H18V22.5C18 21.7031 18.6562 21 19.5 21C20.2969 21 21 21.7031 21 22.5Z" fill="black" fill-opacity="0.72"/>
</g>
<defs>
<clipPath id="clip0_2556_19938">
<rect width="21" height="36" fill="white"/>
</clipPath>
</defs>
</svg>
