<svg width="8" height="18" viewBox="0 0 8 18" fill="none" xmlns="http://www.w3.org/2000/svg">
<g id="label-paired / caption / three-caption / fill" clip-path="url(#clip0_2556_10257)">
<path id="icon" d="M0.25 5C0.25 4.60156 0.578125 4.25 1 4.25H6.625C6.92969 4.25 7.21094 4.46094 7.30469 4.74219C7.42188 5.02344 7.35156 5.35156 7.11719 5.5625L4.04688 8.375H4.5625C6.32031 8.375 7.75 9.80469 7.75 11.5625C7.75 13.3438 6.32031 14.75 4.5625 14.75H2.71094C1.72656 14.75 0.8125 14.1875 0.367188 13.3203L0.320312 13.2266C0.132812 12.8516 0.273438 12.4062 0.648438 12.2188C1.02344 12.0312 1.46875 12.1719 1.65625 12.5469L1.70312 12.6406C1.89062 13.0156 2.28906 13.25 2.71094 13.25H4.5625C5.47656 13.25 6.25 12.5 6.25 11.5625C6.25 10.6484 5.47656 9.875 4.5625 9.875H2.125C1.79688 9.875 1.53906 9.6875 1.42188 9.40625C1.30469 9.125 1.375 8.79688 1.60938 8.58594L4.67969 5.75H1C0.578125 5.75 0.25 5.42188 0.25 5Z" fill="black" fill-opacity="0.72"/>
</g>
<defs>
<clipPath id="clip0_2556_10257">
<rect width="8" height="18" fill="white"/>
</clipPath>
</defs>
</svg>
