<svg width="15" height="30" viewBox="0 0 15 30" fill="none" xmlns="http://www.w3.org/2000/svg">
<g id="label-paired / lg / apple-lg" clip-path="url(#clip0_2556_17077)">
<path id="icon" d="M12.4219 16.0078C12.4219 16.0859 12.3047 18.3906 14.8438 19.6016C14.375 21.0469 12.7344 24.25 10.8203 24.25C9.72656 24.25 9.10156 23.5469 7.85156 23.5469C6.5625 23.5469 5.85938 24.25 4.88281 24.25C3.00781 24.3281 1.21094 20.8125 0.703125 19.3672C0.3125 18.2734 0.15625 17.2188 0.15625 16.2031C0.15625 12.7266 2.46094 11.0469 4.64844 11.0078C5.70312 11.0078 7.03125 11.75 7.61719 11.75C8.16406 11.75 9.6875 10.8516 11.0938 10.9688C12.5391 11.0859 13.6328 11.6328 14.375 12.6875C13.0859 13.5078 12.4219 14.5625 12.4219 16.0078ZM10.2344 9.60156C9.45312 10.5 8.51562 11.0078 7.5 10.9297C7.42188 9.875 7.8125 8.89844 8.51562 8.11719C9.14062 7.41406 10.2344 6.82812 11.1719 6.75C11.1719 7.17969 11.2891 8.35156 10.2344 9.60156Z" fill="black" fill-opacity="0.72"/>
</g>
<defs>
<clipPath id="clip0_2556_17077">
<rect width="15" height="30" fill="white"/>
</clipPath>
</defs>
</svg>
