<svg width="18" height="22" viewBox="0 0 18 22" fill="none" xmlns="http://www.w3.org/2000/svg">
<g id="label-paired / sm / location-crosshairs-slash-sm / bold" clip-path="url(#clip0_2556_12732)">
<path id="icon" d="M1.28906 3.91406L5.28125 7.03125C6.10156 6.23828 7.14062 5.69141 8.34375 5.55469V4.40625C8.34375 4.05078 8.61719 3.75 9 3.75C9.35547 3.75 9.65625 4.05078 9.65625 4.40625V5.55469C12.0078 5.85547 13.8945 7.74219 14.1953 10.0938H15.3438C15.6992 10.0938 16 10.3945 16 10.75C16 11.1328 15.6992 11.4062 15.3438 11.4062H14.1953C14.1133 12.1445 13.8672 12.8555 13.4844 13.457L17.4766 16.6016C17.7773 16.8203 17.832 17.2305 17.5859 17.5039C17.3672 17.8047 16.957 17.8594 16.6836 17.6133L0.496094 4.92578C0.195312 4.70703 0.140625 4.29688 0.386719 4.02344C0.605469 3.72266 1.01562 3.66797 1.28906 3.91406ZM6.34766 7.85156L7.38672 8.67188C7.82422 8.34375 8.39844 8.125 9 8.125C10.4492 8.125 11.625 9.30078 11.625 10.75C11.625 11.1328 11.543 11.4883 11.4062 11.8164L12.4453 12.6367C12.7461 12.0898 12.9375 11.4336 12.9375 10.75C12.9375 8.58984 11.1602 6.8125 9 6.8125C7.96094 6.8125 7.03125 7.22266 6.34766 7.85156ZM10.2852 10.9414C10.2852 10.8867 10.2852 10.832 10.2852 10.75C10.2852 10.0391 9.71094 9.4375 8.97266 9.4375C8.80859 9.4375 8.64453 9.49219 8.50781 9.54688L10.2852 10.9414ZM10.4492 14.4141L11.5703 15.3164C10.9961 15.6719 10.3398 15.8906 9.65625 15.9727V17.0938C9.65625 17.4766 9.35547 17.75 9 17.75C8.61719 17.75 8.34375 17.4766 8.34375 17.0938V15.9727C5.96484 15.6719 4.07812 13.7852 3.77734 11.4336H2.65625C2.27344 11.4336 2 11.1328 2 10.7773C2 10.3945 2.27344 10.1211 2.65625 10.1211H3.77734C3.80469 9.82031 3.85938 9.57422 3.94141 9.30078L5.08984 10.2031C5.0625 10.3945 5.0625 10.5859 5.0625 10.75C5.0625 12.9375 6.8125 14.6875 9 14.6875C9.49219 14.6875 9.98438 14.6055 10.4492 14.4141Z" fill="black" fill-opacity="0.72"/>
</g>
<defs>
<clipPath id="clip0_2556_12732">
<rect width="18" height="22" fill="white"/>
</clipPath>
</defs>
</svg>
