<svg width="5" height="30" viewBox="0 0 5 30" fill="none" xmlns="http://www.w3.org/2000/svg">
<g id="label-paired / lg / ellipsis-vertical-lg / bold" clip-path="url(#clip0_2556_17509)">
<path id="icon" d="M2.5 19.875C3.16406 19.875 3.75 20.2656 4.10156 20.8125C4.45312 21.3984 4.45312 22.1406 4.10156 22.6875C3.75 23.2734 3.16406 23.625 2.5 23.625C1.79688 23.625 1.21094 23.2734 0.859375 22.6875C0.507812 22.1406 0.507812 21.3984 0.859375 20.8125C1.21094 20.2656 1.79688 19.875 2.5 19.875ZM2.5 13.625C3.16406 13.625 3.75 14.0156 4.10156 14.5625C4.45312 15.1484 4.45312 15.8906 4.10156 16.4375C3.75 17.0234 3.16406 17.375 2.5 17.375C1.79688 17.375 1.21094 17.0234 0.859375 16.4375C0.507812 15.8906 0.507812 15.1484 0.859375 14.5625C1.21094 14.0156 1.79688 13.625 2.5 13.625ZM4.375 9.25C4.375 9.95312 3.98438 10.5391 3.4375 10.8906C2.85156 11.2422 2.10938 11.2422 1.5625 10.8906C0.976562 10.5391 0.625 9.95312 0.625 9.25C0.625 8.58594 0.976562 8 1.5625 7.64844C2.10938 7.29688 2.85156 7.29688 3.4375 7.64844C3.98438 8 4.375 8.58594 4.375 9.25Z" fill="black" fill-opacity="0.72"/>
</g>
<defs>
<clipPath id="clip0_2556_17509">
<rect width="5" height="30" fill="white"/>
</clipPath>
</defs>
</svg>
