<svg width="25" height="30" viewBox="0 0 25 30" fill="none" xmlns="http://www.w3.org/2000/svg">
<g id="label-paired / lg / deal-cancellation-lg / fill" clip-path="url(#clip0_2556_17453)">
<path id="icon" d="M15.7031 21.2422V21.2031L15.7422 21.2422C16.3672 21.4766 17.1094 21.5938 17.8516 21.5938C18.9453 21.5938 19.8828 21.3594 20.625 20.8516C21.3672 20.3438 21.9531 19.6406 22.3828 18.7422L22.6172 18.2344L19.6094 16.4766L19.375 17.1797C19.2578 17.4922 19.0625 17.8047 18.7891 18.0391C18.5938 18.1953 18.3203 18.3125 17.8516 18.3125C17.3438 18.3125 16.9922 18.1562 16.7188 17.8828C16.4453 17.6094 16.2891 17.1406 16.2891 16.3984V14.7188C16.2891 13.9766 16.4453 13.5469 16.7188 13.2734C16.9922 12.9609 17.3438 12.8047 17.8516 12.8047C18.3594 12.8047 18.5938 12.9219 18.75 13.0391C18.9453 13.2344 19.1016 13.4688 19.2188 13.8203L19.4531 14.5234L22.5781 12.8828L22.3438 12.3359C21.9531 11.3984 21.3672 10.6953 20.5859 10.2266C19.8438 9.71875 18.9062 9.52344 17.8516 9.52344C17.0703 9.52344 16.3672 9.64062 15.7031 9.91406C15.0391 10.2266 14.4922 10.6172 14.0234 11.1641C13.5547 11.7109 13.2031 12.3359 12.9688 13.1172C12.7344 13.8594 12.6172 14.7188 12.6172 15.6562C12.6172 16.5938 12.7344 17.4141 12.9688 18.1562C12.9688 18.1953 12.9688 18.1953 12.9688 18.1953C13.2031 18.8984 13.5547 19.5234 14.0234 20.0703C14.4922 20.5781 15.0391 20.9688 15.7031 21.2422ZM7.10938 9.71875C7.85156 9.71875 8.59375 9.83594 9.21875 10.0703C9.88281 10.3438 10.4688 10.6953 10.9375 11.2422C11.4062 11.75 11.7578 12.375 11.9922 13.0781C12.2266 13.8203 12.3438 14.6406 12.3438 15.5781C12.3438 16.4766 12.2266 17.3359 11.9922 18.0391C11.9922 18.0781 11.9922 18.0781 11.9922 18.0781C11.7578 18.7812 11.4062 19.4062 10.9375 19.9141C10.4688 20.4219 9.88281 20.8125 9.21875 21.0469C8.59375 21.3203 7.89062 21.4375 7.10938 21.4375H2.53906V9.71875H7.10938ZM8.28125 17.7656C8.51562 17.5312 8.67188 17.1406 8.67188 16.3594V14.7578C8.67188 13.9766 8.51562 13.5859 8.28125 13.3906C8.04688 13.1172 7.69531 12.9609 7.10938 12.9609H6.09375V18.1562H7.10938C7.69531 18.1562 8.04688 18 8.28125 17.7656Z" fill="black" fill-opacity="0.72"/>
</g>
<defs>
<clipPath id="clip0_2556_17453">
<rect width="25" height="30" fill="white"/>
</clipPath>
</defs>
</svg>
