<svg width="21" height="36" viewBox="0 0 21 36" fill="none" xmlns="http://www.w3.org/2000/svg">
<g id="label-paired / xl / expand-xl / bold" clip-path="url(#clip0_2556_19801)">
<path id="icon" d="M6.375 7.5C6.98438 7.5 7.5 8.01562 7.5 8.625C7.5 9.28125 6.98438 9.75 6.375 9.75H2.25V13.875C2.25 14.5312 1.73438 15 1.125 15C0.46875 15 0 14.5312 0 13.875V8.625C0 8.01562 0.46875 7.5 1.125 7.5H6.375ZM0 22.125C0 21.5156 0.46875 21 1.125 21C1.73438 21 2.25 21.5156 2.25 22.125V26.25H6.375C6.98438 26.25 7.5 26.7656 7.5 27.375C7.5 28.0312 6.98438 28.5 6.375 28.5H1.125C0.46875 28.5 0 28.0312 0 27.375V22.125ZM19.875 7.5C20.4844 7.5 21 8.01562 21 8.625V13.875C21 14.5312 20.4844 15 19.875 15C19.2188 15 18.75 14.5312 18.75 13.875V9.75H14.625C13.9688 9.75 13.5 9.28125 13.5 8.625C13.5 8.01562 13.9688 7.5 14.625 7.5H19.875ZM18.75 22.125C18.75 21.5156 19.2188 21 19.875 21C20.4844 21 21 21.5156 21 22.125V27.375C21 28.0312 20.4844 28.5 19.875 28.5H14.625C13.9688 28.5 13.5 28.0312 13.5 27.375C13.5 26.7656 13.9688 26.25 14.625 26.25H18.75V22.125Z" fill="black" fill-opacity="0.72"/>
</g>
<defs>
<clipPath id="clip0_2556_19801">
<rect width="21" height="36" fill="white"/>
</clipPath>
</defs>
</svg>
