<svg width="9" height="18" viewBox="0 0 9 18" fill="none" xmlns="http://www.w3.org/2000/svg">
<g id="label-paired / caption / arrow-down-to-line-caption / regular" clip-path="url(#clip0_2556_10380)">
<path id="icon" d="M0.375 14.75C0.164062 14.75 0 14.5859 0 14.375C0 14.1875 0.164062 14 0.375 14H8.625C8.8125 14 9 14.1875 9 14.375C9 14.5859 8.8125 14.75 8.625 14.75H0.375ZM4.75781 12.4062C4.61719 12.5469 4.35938 12.5469 4.21875 12.4062L1.21875 9.40625C1.07812 9.26562 1.07812 9.00781 1.21875 8.86719C1.35938 8.72656 1.61719 8.72656 1.75781 8.86719L4.125 11.2344V8.75V4.625C4.125 4.4375 4.28906 4.25 4.5 4.25C4.6875 4.25 4.875 4.4375 4.875 4.625V8.75V11.2344L7.21875 8.86719C7.35938 8.72656 7.61719 8.72656 7.75781 8.86719C7.89844 9.00781 7.89844 9.26562 7.75781 9.40625L4.75781 12.4062Z" fill="black" fill-opacity="0.72"/>
</g>
<defs>
<clipPath id="clip0_2556_10380">
<rect width="9" height="18" fill="white"/>
</clipPath>
</defs>
</svg>
