<svg width="18" height="24" viewBox="0 0 18 24" fill="none" xmlns="http://www.w3.org/2000/svg">
<g id="label-paired / md / file-circle-info-md / regular" clip-path="url(#clip0_2556_14983)">
<path id="icon" d="M2 19H9.25C9.5625 19.375 9.90625 19.7188 10.2812 20C10.1875 20 10.0938 20 10 20H2C0.875 20 0 19.125 0 18V6C0 4.90625 0.875 4 2 4H6.875C7.25 4 7.65625 4.1875 7.9375 4.46875L11.5312 8.0625C11.8125 8.34375 12 8.75 12 9.125V10.2188C11.625 10.3125 11.3125 10.4375 11 10.625V10H7.5C6.65625 10 6 9.34375 6 8.5V5H2C1.4375 5 1 5.46875 1 6V18C1 18.5625 1.4375 19 2 19ZM10.9688 9C10.9375 8.9375 10.9062 8.84375 10.8438 8.78125L7.21875 5.15625C7.15625 5.09375 7.0625 5.0625 7 5.03125V8.5C7 8.78125 7.21875 9 7.5 9H10.9688ZM17 15.5C17 14.25 16.3125 13.125 15.25 12.5C14.1562 11.8438 12.8125 11.8438 11.75 12.5C10.6562 13.125 10 14.25 10 15.5C10 16.7812 10.6562 17.9062 11.75 18.5312C12.8125 19.1875 14.1562 19.1875 15.25 18.5312C16.3125 17.9062 17 16.7812 17 15.5ZM9 15.5C9 13.9062 9.84375 12.4375 11.25 11.625C12.625 10.8125 14.3438 10.8125 15.75 11.625C17.125 12.4375 18 13.9062 18 15.5C18 17.125 17.125 18.5938 15.75 19.4062C14.3438 20.2188 12.625 20.2188 11.25 19.4062C9.84375 18.5938 9 17.125 9 15.5ZM13.5 14.5C13.0625 14.5 12.75 14.1875 12.75 13.75C12.75 13.3438 13.0625 13 13.5 13C13.9062 13 14.25 13.3438 14.25 13.75C14.25 14.1875 13.9062 14.5 13.5 14.5ZM12.5 17.5C12.5 17.25 12.7188 17 13 17V16C12.7188 16 12.5 15.7812 12.5 15.5C12.5 15.25 12.7188 15 13 15H13.5C13.75 15 14 15.25 14 15.5V17C14.25 17 14.5 17.25 14.5 17.5C14.5 17.7812 14.25 18 14 18H13.5H13C12.7188 18 12.5 17.7812 12.5 17.5Z" fill="black" fill-opacity="0.72"/>
</g>
<defs>
<clipPath id="clip0_2556_14983">
<rect width="18" height="24" fill="white"/>
</clipPath>
</defs>
</svg>
