<svg width="14" height="22" viewBox="0 0 14 22" fill="none" xmlns="http://www.w3.org/2000/svg">
<g id="label-paired / sm / chart-line-up-down-sm / fill" clip-path="url(#clip0_2556_12888)">
<path id="icon" d="M1.75 5.5V14.6875C1.75 14.9336 1.94141 15.125 2.1875 15.125H13.125C13.5898 15.125 14 15.5352 14 16C14 16.4922 13.5898 16.875 13.125 16.875H2.1875C0.957031 16.875 0 15.918 0 14.6875V5.5C0 5.03516 0.382812 4.625 0.875 4.625C1.33984 4.625 1.75 5.03516 1.75 5.5ZM10.3086 7.08594L9.78906 6.56641C9.67969 6.45703 9.625 6.29297 9.625 6.12891C9.625 5.80078 9.89844 5.5 10.2266 5.5H12.6875C12.9062 5.5 13.125 5.71875 13.125 5.9375V6.375V6.40234V8.39844C13.125 8.72656 12.8242 9 12.4961 9C12.332 9 12.168 8.94531 12.0586 8.83594L11.5391 8.31641L8.47656 11.3789C8.14844 11.7344 7.57422 11.7344 7.24609 11.3789L5.6875 9.82031L4.10156 11.3789C3.77344 11.7344 3.19922 11.7344 2.87109 11.3789C2.51562 11.0508 2.51562 10.4766 2.87109 10.1484L5.05859 7.96094C5.38672 7.60547 5.96094 7.60547 6.28906 7.96094L7.875 9.51953L10.3086 7.08594ZM12.0586 10.9414C12.168 10.832 12.332 10.75 12.4961 10.75C12.8516 10.75 13.125 11.0508 13.125 11.3789V13.8125C13.125 14.0586 12.9062 14.25 12.6875 14.25H10.2266C9.89844 14.25 9.625 13.9766 9.625 13.6484C9.625 13.4844 9.67969 13.3203 9.78906 13.2109L10.3086 12.6914L9.35156 11.7344L10.6094 10.5039L11.5391 11.4609L12.0586 10.9414Z" fill="black" fill-opacity="0.72"/>
</g>
<defs>
<clipPath id="clip0_2556_12888">
<rect width="14" height="22" fill="white"/>
</clipPath>
</defs>
</svg>
