<svg width="14" height="18" viewBox="0 0 14 18" fill="none" xmlns="http://www.w3.org/2000/svg">
<g id="label-paired / caption / arrow-down-one-nine-caption / fill" clip-path="url(#clip0_2556_10513)">
<path id="icon" d="M10.7969 4.39062C11.0078 4.55469 11.125 4.76562 11.125 5V7.25H11.5C11.8984 7.25 12.25 7.60156 12.25 8C12.25 8.42188 11.8984 8.75 11.5 8.75H10.375H9.25C8.82812 8.75 8.5 8.42188 8.5 8C8.5 7.60156 8.82812 7.25 9.25 7.25H9.625V6.05469L9.48438 6.10156C9.08594 6.21875 8.66406 6.00781 8.52344 5.63281C8.40625 5.23438 8.61719 4.8125 8.99219 4.67188L10.1172 4.29688C10.3516 4.22656 10.6094 4.25 10.7969 4.39062ZM4 14.75C3.78906 14.75 3.57812 14.6797 3.4375 14.5156L1.375 12.2656C1.09375 11.9609 1.11719 11.4922 1.42188 11.2109C1.72656 10.9297 2.19531 10.9531 2.47656 11.2578L3.25 12.0781V5C3.25 4.60156 3.57812 4.25 4 4.25C4.39844 4.25 4.75 4.60156 4.75 5V12.0781L5.5 11.2578C5.78125 10.9531 6.25 10.9297 6.55469 11.2109C6.85938 11.4922 6.88281 11.9609 6.60156 12.2656L4.53906 14.5156C4.39844 14.6797 4.21094 14.75 4 14.75ZM10.0469 10.6953C9.67188 10.8828 9.50781 11.3281 9.69531 11.7031C9.85938 12.0781 10.3047 12.2422 10.6797 12.0547C11.0547 11.8906 11.2188 11.4453 11.0312 11.0703C10.8672 10.6953 10.4219 10.5312 10.0469 10.6953ZM9.74219 13.3438C8.89844 13.0859 8.3125 12.3125 8.3125 11.3984C8.3125 10.25 9.22656 9.33594 10.375 9.33594C11.5 9.33594 12.4375 10.25 12.4375 11.3984C12.4375 11.9375 12.25 12.4766 11.9219 12.9219L10.7734 14.4688C10.5391 14.7969 10.0703 14.8672 9.74219 14.6094C9.39062 14.375 9.32031 13.9062 9.57812 13.5547L9.74219 13.3438Z" fill="black" fill-opacity="0.72"/>
</g>
<defs>
<clipPath id="clip0_2556_10513">
<rect width="14" height="18" fill="white"/>
</clipPath>
</defs>
</svg>
