<svg width="18" height="36" viewBox="0 0 18 36" fill="none" xmlns="http://www.w3.org/2000/svg">
<g id="label-paired / xl / moon-xl / fill" clip-path="url(#clip0_2556_19738)">
<path id="icon" d="M10.4531 7.5V7.54688C10.7344 7.54688 11.0625 7.54688 11.3438 7.54688C11.6719 7.59375 11.9531 7.82812 12 8.15625C12.0938 8.48438 11.9531 8.8125 11.6719 8.95312C9.14062 10.3594 7.45312 13.0781 7.45312 16.125C7.45312 20.7188 11.1562 24.375 15.7031 24.375C16.1719 24.375 16.6406 24.375 17.1094 24.2812C17.4375 24.2344 17.7656 24.375 17.9062 24.6562C18.0469 24.9844 18 25.3125 17.7656 25.5469C15.8906 27.375 13.3125 28.5 10.4531 28.5C4.6875 28.5 0 23.8125 0 18C0 12.2344 4.6875 7.5 10.4531 7.5Z" fill="black" fill-opacity="0.72"/>
</g>
<defs>
<clipPath id="clip0_2556_19738">
<rect width="18" height="36" fill="white"/>
</clipPath>
</defs>
</svg>
