<svg width="18" height="22" viewBox="0 0 18 22" fill="none" xmlns="http://www.w3.org/2000/svg">
<g id="label-paired / sm / volume-high-sm / regular" clip-path="url(#clip0_3758_659)">
<path id="icon" d="M4.37891 8.89062C4.29688 8.97266 4.1875 9 4.10547 9H1.78125C1.39844 9 1.125 9.30078 1.125 9.65625V11.8438C1.125 12.2266 1.39844 12.5 1.78125 12.5H4.10547C4.1875 12.5 4.29688 12.5547 4.37891 12.6094L8.125 15.9453V5.58203L4.37891 8.89062ZM8.17969 4.625C8.61719 4.625 9 5.00781 9 5.44531V16.082C9 16.5195 8.61719 16.875 8.17969 16.875C7.96094 16.875 7.76953 16.8203 7.63281 16.6836L7.93359 16.3555L7.63281 16.6836L3.91406 13.375H1.78125C0.933594 13.375 0.25 12.6914 0.25 11.8438V9.65625C0.25 8.83594 0.933594 8.125 1.78125 8.125H3.91406L7.63281 4.84375C7.76953 4.70703 7.96094 4.625 8.17969 4.625ZM11.4336 8.67188C12.0625 9.13672 12.5 9.90234 12.5 10.75C12.5 11.625 12.0625 12.3906 11.4336 12.8555C11.2422 13.0195 10.9688 12.9648 10.832 12.7734C10.668 12.582 10.7227 12.3086 10.9141 12.1719C11.3516 11.8438 11.625 11.3242 11.625 10.75C11.625 10.2031 11.3516 9.68359 10.9141 9.35547C10.7227 9.21875 10.668 8.94531 10.832 8.75391C10.9688 8.5625 11.2422 8.50781 11.4336 8.67188ZM12.582 6.75781C12.7461 6.59375 13.0195 6.56641 13.2109 6.70312C14.3594 7.6875 15.125 9.13672 15.125 10.75C15.125 12.3906 14.3594 13.8398 13.2109 14.7969C13.0195 14.9609 12.7461 14.9336 12.582 14.7422C12.4453 14.5781 12.4727 14.2773 12.6367 14.1406C13.6211 13.3477 14.25 12.1172 14.25 10.75C14.25 9.41016 13.6211 8.17969 12.6367 7.38672C12.4453 7.22266 12.4453 6.94922 12.582 6.75781ZM14.9609 4.76172C16.6562 6.21094 17.75 8.34375 17.75 10.75C17.75 13.1562 16.6562 15.3164 14.9609 16.7656C14.7695 16.9297 14.4961 16.9023 14.332 16.7109C14.168 16.5195 14.1953 16.2461 14.3867 16.1094C15.8906 14.8242 16.8477 12.9102 16.8477 10.75C16.8477 8.61719 15.8906 6.70312 14.3867 5.41797C14.1953 5.25391 14.168 4.98047 14.332 4.81641C14.4961 4.625 14.7695 4.59766 14.9609 4.76172Z" fill="black" fill-opacity="0.72"/>
</g>
<defs>
<clipPath id="clip0_3758_659">
<rect width="18" height="22" fill="white"/>
</clipPath>
</defs>
</svg>
