<svg width="15" height="18" viewBox="0 0 15 18" fill="none" xmlns="http://www.w3.org/2000/svg">
<g id="label-paired / caption / lock-pattern-caption / bold" clip-path="url(#clip0_2556_10008)">
<path id="icon" d="M1.6875 5C1.6875 4.29688 2.27344 3.6875 3 3.6875C3.51562 3.6875 3.96094 4.01562 4.17188 4.4375H6.30469C6.51562 4.01562 6.96094 3.6875 7.5 3.6875C8.01562 3.6875 8.46094 4.01562 8.67188 4.4375H10.8047C11.0156 4.01562 11.4609 3.6875 12 3.6875C12.7031 3.6875 13.3125 4.29688 13.3125 5C13.3125 5.72656 12.7031 6.3125 12 6.3125C11.8359 6.3125 11.6953 6.28906 11.5547 6.24219L8.71875 9.07812C8.76562 9.21875 8.8125 9.35938 8.8125 9.5C8.8125 10.2266 8.20312 10.8125 7.5 10.8125C7.33594 10.8125 7.19531 10.7891 7.05469 10.7422L4.33594 13.4375H6.30469C6.51562 13.0156 6.96094 12.6875 7.5 12.6875C8.01562 12.6875 8.46094 13.0156 8.67188 13.4375H10.8047C11.0156 13.0156 11.4609 12.6875 12 12.6875C12.7031 12.6875 13.3125 13.2969 13.3125 14C13.3125 14.7266 12.7031 15.3125 12 15.3125C11.4609 15.3125 11.0156 15.0078 10.8047 14.5625H8.67188C8.46094 15.0078 8.01562 15.3125 7.5 15.3125C6.96094 15.3125 6.51562 15.0078 6.30469 14.5625H4.17188C3.96094 15.0078 3.51562 15.3125 3 15.3125C2.27344 15.3125 1.6875 14.7266 1.6875 14C1.6875 13.2969 2.27344 12.6875 3 12.6875C3.14062 12.6875 3.28125 12.7344 3.42188 12.7812L6.25781 9.94531C6.21094 9.80469 6.1875 9.66406 6.1875 9.5C6.1875 8.79688 6.77344 8.1875 7.5 8.1875C7.64062 8.1875 7.78125 8.23438 7.92188 8.28125L10.6406 5.5625H8.67188C8.46094 6.00781 8.01562 6.3125 7.5 6.3125C6.96094 6.3125 6.51562 6.00781 6.30469 5.5625H4.17188C3.96094 6.00781 3.51562 6.3125 3 6.3125C2.27344 6.3125 1.6875 5.72656 1.6875 5ZM1.6875 9.5C1.6875 9.99219 1.92188 10.4141 2.34375 10.6484C2.74219 10.8828 3.23438 10.8828 3.65625 10.6484C4.05469 10.4141 4.3125 9.99219 4.3125 9.5C4.3125 9.03125 4.05469 8.60938 3.65625 8.375C3.23438 8.14062 2.74219 8.14062 2.34375 8.375C1.92188 8.60938 1.6875 9.03125 1.6875 9.5ZM10.6875 9.5C10.6875 9.99219 10.9219 10.4141 11.3438 10.6484C11.7422 10.8828 12.2344 10.8828 12.6562 10.6484C13.0547 10.4141 13.3125 9.99219 13.3125 9.5C13.3125 9.03125 13.0547 8.60938 12.6562 8.375C12.2344 8.14062 11.7422 8.14062 11.3438 8.375C10.9219 8.60938 10.6875 9.03125 10.6875 9.5Z" fill="black" fill-opacity="0.72"/>
</g>
<defs>
<clipPath id="clip0_2556_10008">
<rect width="15" height="18" fill="white"/>
</clipPath>
</defs>
</svg>
