<svg width="13" height="22" viewBox="0 0 13 22" fill="none" xmlns="http://www.w3.org/2000/svg">
<g id="label-paired / sm / bars-sm / fill" clip-path="url(#clip0_2556_12866)">
<path id="icon" d="M0.375 6.375C0.375 5.91016 0.757812 5.5 1.25 5.5H11.75C12.2148 5.5 12.625 5.91016 12.625 6.375C12.625 6.86719 12.2148 7.25 11.75 7.25H1.25C0.757812 7.25 0.375 6.86719 0.375 6.375ZM0.375 10.75C0.375 10.2852 0.757812 9.875 1.25 9.875H11.75C12.2148 9.875 12.625 10.2852 12.625 10.75C12.625 11.2422 12.2148 11.625 11.75 11.625H1.25C0.757812 11.625 0.375 11.2422 0.375 10.75ZM12.625 15.125C12.625 15.6172 12.2148 16 11.75 16H1.25C0.757812 16 0.375 15.6172 0.375 15.125C0.375 14.6602 0.757812 14.25 1.25 14.25H11.75C12.2148 14.25 12.625 14.6602 12.625 15.125Z" fill="black" fill-opacity="0.72"/>
</g>
<defs>
<clipPath id="clip0_2556_12866">
<rect width="13" height="22" fill="white"/>
</clipPath>
</defs>
</svg>
