<svg width="15" height="30" viewBox="0 0 15 30" fill="none" xmlns="http://www.w3.org/2000/svg">
<g id="label-paired / lg / file-invoice-dollar-lg / regular" clip-path="url(#clip0_2556_17009)">
<path id="icon" d="M13.75 23V13H9.375C8.32031 13 7.5 12.1797 7.5 11.125V6.75H2.5C1.79688 6.75 1.25 7.33594 1.25 8V23C1.25 23.7031 1.79688 24.25 2.5 24.25H12.5C13.1641 24.25 13.75 23.7031 13.75 23ZM13.7109 11.75C13.6719 11.6719 13.6328 11.5547 13.5547 11.4766L9.02344 6.94531C8.94531 6.86719 8.82812 6.82812 8.75 6.78906V11.125C8.75 11.4766 9.02344 11.75 9.375 11.75H13.7109ZM0 8C0 6.63281 1.09375 5.5 2.5 5.5H8.59375C9.0625 5.5 9.57031 5.73438 9.92188 6.08594L14.4141 10.5781C14.7656 10.9297 15 11.4375 15 11.9062V23C15 24.4062 13.8672 25.5 12.5 25.5H2.5C1.09375 25.5 0 24.4062 0 23V8ZM2.5 8.625C2.5 8.3125 2.77344 8 3.125 8H5.625C5.9375 8 6.25 8.3125 6.25 8.625C6.25 8.97656 5.9375 9.25 5.625 9.25H3.125C2.77344 9.25 2.5 8.97656 2.5 8.625ZM2.5 11.125C2.5 10.8125 2.77344 10.5 3.125 10.5H5.625C5.9375 10.5 6.25 10.8125 6.25 11.125C6.25 11.4766 5.9375 11.75 5.625 11.75H3.125C2.77344 11.75 2.5 11.4766 2.5 11.125ZM8.125 15.0312V15.5781C8.4375 15.6172 8.75 15.6562 9.02344 15.7344C9.375 15.8125 9.57031 16.1641 9.49219 16.4766C9.41406 16.8281 9.0625 17.0234 8.75 16.9453C8.32031 16.8672 7.89062 16.7891 7.46094 16.7891C7.14844 16.75 6.75781 16.8281 6.52344 16.9844C6.28906 17.1016 6.25 17.2188 6.25 17.3359C6.25 17.4141 6.25 17.4922 6.48438 17.6094C6.75781 17.7656 7.14844 17.8438 7.65625 18C8.08594 18.1172 8.63281 18.2734 9.0625 18.5078C9.53125 18.7422 9.96094 19.2109 10 19.9141C10 20.6562 9.57031 21.125 9.0625 21.4375C8.78906 21.5938 8.4375 21.6719 8.125 21.75V22.2578C8.125 22.6094 7.8125 22.8828 7.5 22.8828C7.14844 22.8828 6.875 22.6094 6.875 22.2578V21.7109C6.44531 21.6328 6.01562 21.5156 5.66406 21.3984C5.58594 21.3594 5.50781 21.3594 5.42969 21.3203C5.11719 21.2422 4.92188 20.8906 5 20.5391C5.11719 20.2266 5.46875 20.0312 5.78125 20.1094C5.89844 20.1484 5.97656 20.1875 6.05469 20.2266C6.60156 20.3828 7.03125 20.5 7.5 20.5C7.89062 20.5391 8.24219 20.4609 8.47656 20.3438C8.67188 20.2266 8.75 20.0703 8.75 19.9141C8.75 19.8359 8.71094 19.7188 8.47656 19.6016C8.20312 19.4453 7.8125 19.3281 7.30469 19.2109L7.26562 19.1719C6.83594 19.0547 6.32812 18.9375 5.89844 18.7031C5.46875 18.4688 5 18.0391 5 17.3359C5 16.5938 5.46875 16.125 5.9375 15.8516C6.25 15.6953 6.5625 15.6172 6.875 15.5781V15.0312C6.875 14.6797 7.14844 14.4062 7.5 14.4062C7.85156 14.4062 8.125 14.6797 8.125 15.0312Z" fill="black" fill-opacity="0.72"/>
</g>
<defs>
<clipPath id="clip0_2556_17009">
<rect width="15" height="30" fill="white"/>
</clipPath>
</defs>
</svg>
