<svg width="15" height="36" viewBox="0 0 15 36" fill="none" xmlns="http://www.w3.org/2000/svg">
<g id="label-paired / xl / zero-xl / bold" clip-path="url(#clip0_2556_19712)">
<path id="icon" d="M0 15C0 10.875 3.32812 7.5 7.5 7.5C11.625 7.5 15 10.875 15 15V21C15 25.1719 11.625 28.5 7.5 28.5C3.32812 28.5 0 25.1719 0 21V15ZM7.5 9.75C4.59375 9.75 2.25 12.1406 2.25 15V21C2.25 23.9062 4.59375 26.25 7.5 26.25C10.3594 26.25 12.75 23.9062 12.75 21V15C12.75 12.1406 10.3594 9.75 7.5 9.75Z" fill="black" fill-opacity="0.72"/>
</g>
<defs>
<clipPath id="clip0_2556_19712">
<rect width="15" height="36" fill="white"/>
</clipPath>
</defs>
</svg>
