<svg width="14" height="22" viewBox="0 0 14 22" fill="none" xmlns="http://www.w3.org/2000/svg">
<g id="label-paired / sm / circle-plus-sm / bold" clip-path="url(#clip0_2556_12968)">
<path id="icon" d="M7 5.0625C4.94922 5.0625 3.08984 6.15625 2.05078 7.90625C1.03906 9.68359 1.03906 11.8438 2.05078 13.5938C3.08984 15.3711 4.94922 16.4375 7 16.4375C9.02344 16.4375 10.8828 15.3711 11.9219 13.5938C12.9336 11.8438 12.9336 9.68359 11.9219 7.90625C10.8828 6.15625 9.02344 5.0625 7 5.0625ZM7 17.75C4.48438 17.75 2.1875 16.4375 0.929688 14.25C-0.328125 12.0898 -0.328125 9.4375 0.929688 7.25C2.1875 5.08984 4.48438 3.75 7 3.75C9.48828 3.75 11.7852 5.08984 13.043 7.25C14.3008 9.4375 14.3008 12.0898 13.043 14.25C11.7852 16.4375 9.48828 17.75 7 17.75ZM6.34375 13.1562V11.4062H4.59375C4.21094 11.4062 3.9375 11.1328 3.9375 10.75C3.9375 10.3945 4.21094 10.0938 4.59375 10.0938H6.34375V8.34375C6.34375 7.98828 6.61719 7.6875 7 7.6875C7.35547 7.6875 7.65625 7.98828 7.65625 8.34375V10.0938H9.40625C9.76172 10.0938 10.0625 10.3945 10.0625 10.75C10.0625 11.1328 9.76172 11.4062 9.40625 11.4062H7.65625V13.1562C7.65625 13.5391 7.35547 13.8125 7 13.8125C6.61719 13.8125 6.34375 13.5391 6.34375 13.1562Z" fill="black" fill-opacity="0.72"/>
</g>
<defs>
<clipPath id="clip0_2556_12968">
<rect width="14" height="22" fill="white"/>
</clipPath>
</defs>
</svg>
