<svg width="15" height="30" viewBox="0 0 15 30" fill="none" xmlns="http://www.w3.org/2000/svg">
<g id="label-paired / lg / arrow-up-lg / bold" clip-path="url(#clip0_2556_17653)">
<path id="icon" d="M8.16406 7.0625L14.7266 13.9375C15.0781 14.3281 15.0781 14.9141 14.6875 15.2656C14.2969 15.6172 13.7109 15.6172 13.3594 15.2266L8.4375 10.0312V23.3125C8.4375 23.8594 8.00781 24.25 7.5 24.25C6.95312 24.25 6.5625 23.8594 6.5625 23.3125V10.0312L1.60156 15.2266C1.25 15.6172 0.664062 15.6172 0.273438 15.2656C-0.117188 14.9141 -0.117188 14.2891 0.234375 13.9375L6.79688 7.0625C6.99219 6.86719 7.22656 6.75 7.5 6.75C7.73438 6.75 7.96875 6.86719 8.16406 7.0625Z" fill="black" fill-opacity="0.72"/>
</g>
<defs>
<clipPath id="clip0_2556_17653">
<rect width="15" height="30" fill="white"/>
</clipPath>
</defs>
</svg>
