<svg width="9" height="18" viewBox="0 0 9 18" fill="none" xmlns="http://www.w3.org/2000/svg">
<g id="label-paired / caption / percent-caption / regular" clip-path="url(#clip0_2556_10023)">
<path id="icon" d="M1.5 5.75C1.07812 5.75 0.75 6.10156 0.75 6.5C0.75 6.92188 1.07812 7.25 1.5 7.25C1.89844 7.25 2.25 6.92188 2.25 6.5C2.25 6.10156 1.89844 5.75 1.5 5.75ZM1.5 8C0.960938 8 0.46875 7.71875 0.1875 7.25C-0.0703125 6.80469 -0.0703125 6.21875 0.1875 5.75C0.46875 5.30469 0.960938 5 1.5 5C2.01562 5 2.50781 5.30469 2.78906 5.75C3.04688 6.21875 3.04688 6.80469 2.78906 7.25C2.50781 7.71875 2.01562 8 1.5 8ZM7.5 11.75C7.07812 11.75 6.75 12.1016 6.75 12.5C6.75 12.9219 7.07812 13.25 7.5 13.25C7.89844 13.25 8.25 12.9219 8.25 12.5C8.25 12.1016 7.89844 11.75 7.5 11.75ZM7.5 14C6.96094 14 6.46875 13.7188 6.1875 13.25C5.92969 12.8047 5.92969 12.2188 6.1875 11.75C6.46875 11.3047 6.96094 11 7.5 11C8.01562 11 8.50781 11.3047 8.78906 11.75C9.04688 12.2188 9.04688 12.8047 8.78906 13.25C8.50781 13.7188 8.01562 14 7.5 14ZM8.88281 5.65625L0.632812 13.9062C0.492188 14.0469 0.234375 14.0469 0.09375 13.9062C-0.046875 13.7656 -0.046875 13.5078 0.09375 13.3672L8.34375 5.11719C8.48438 4.97656 8.74219 4.97656 8.88281 5.11719C9.02344 5.25781 9.02344 5.51562 8.88281 5.65625Z" fill="black" fill-opacity="0.72"/>
</g>
<defs>
<clipPath id="clip0_2556_10023">
<rect width="9" height="18" fill="white"/>
</clipPath>
</defs>
</svg>
