<svg width="20" height="24" viewBox="0 0 20 24" fill="none" xmlns="http://www.w3.org/2000/svg">
<g id="label-paired / md / hand-gesture-tap-left-md / regular" clip-path="url(#clip0_3546_702)">
<path id="icon" d="M3.28125 5C3.125 5 3 5.15625 3 5.3125V18.7188C3 18.875 3.125 19 3.28125 19C3.4375 19 3.59375 18.875 3.59375 18.7188V5.3125C3.59375 5.15625 3.4375 5 3.28125 5ZM4 10.5C4 9.40625 4.90625 8.5 6 8.5C7.09375 8.5 8 9.40625 8 10.5C8 10.875 7.90625 11.1875 7.75 11.4688L8.34375 12.6875C8.4375 12.5938 8.5625 12.4688 8.71875 12.4062C9.125 12.2188 9.625 12.2812 9.96875 12.5312C10.0625 12.4688 10.1562 12.4062 10.25 12.375C10.6562 12.1875 11.1562 12.25 11.5 12.5C11.5312 12.4688 11.5312 12.4688 11.5625 12.4375C11.5938 12.4375 11.625 12.4062 11.6562 12.4062C12.25 12.0938 13.0312 12.375 13.3125 13L14.125 14.6875C14.625 15.7812 14.1562 17.0938 13.0625 17.5938L10.6875 18.75C10.25 18.9375 9.8125 19.0312 9.34375 19H9.125C8.125 18.9688 7.1875 18.3438 6.75 17.4062L6.59375 17.0312C6.375 16.5938 6.375 16.0938 6.625 15.6562L6.875 15.1875C6.90625 15.0938 6.9375 15.0312 6.96875 14.9688L5.8125 12.5C4.78125 12.4062 4 11.5625 4 10.5ZM5.28125 11.4375H5.3125C5.03125 10.9062 5.28125 10.2188 5.8125 9.96875C6.34375 9.71875 7.03125 9.96875 7.28125 10.5L7.375 10.7188C7.375 10.6562 7.375 10.5938 7.375 10.5C7.375 9.75 6.75 9.125 6 9.125C5.21875 9.125 4.59375 9.75 4.59375 10.5C4.59375 11.0938 4.96875 11.625 5.46875 11.8125L5.28125 11.4375ZM8.28125 16.25C8.34375 16.4062 8.25 16.5938 8.125 16.6562C7.96875 16.75 7.78125 16.6875 7.71875 16.5L7.3125 15.6562L7.15625 15.9688C7.03125 16.2188 7.03125 16.5312 7.15625 16.7812L7.3125 17.125C7.65625 17.8438 8.34375 18.3438 9.15625 18.4062L9.34375 18.375C9.71875 18.4062 10.0625 18.3438 10.4062 18.1875L12.8125 17.0625C13.5938 16.6875 13.9062 15.75 13.5625 14.9688L12.75 13.2812C12.5938 12.9688 12.2188 12.8438 11.9062 12.9688C11.8438 13 11.7812 13.0625 11.7188 13.125C11.6562 13.1562 11.5625 13.2188 11.4688 13.2188C11.4062 13.2188 11.3125 13.1562 11.25 13.0938C11.0625 12.875 10.75 12.8125 10.5 12.9375C10.4062 13 10.3125 13.0625 10.25 13.1562C10.1875 13.25 10.0938 13.3125 10 13.3125C9.875 13.3125 9.78125 13.25 9.71875 13.1875C9.5625 12.9375 9.21875 12.8438 8.96875 12.9688C8.78125 13.0625 8.65625 13.25 8.625 13.4688C8.59375 13.5938 8.5 13.6875 8.34375 13.7188C8.21875 13.75 8.09375 13.6875 8.03125 13.5625L6.71875 10.75C6.59375 10.5312 6.3125 10.4375 6.09375 10.5312C5.84375 10.6562 5.75 10.9375 5.875 11.1562L8.28125 16.25Z" fill="black" fill-opacity="0.72"/>
</g>
<defs>
<clipPath id="clip0_3546_702">
<rect width="20" height="24" fill="white"/>
</clipPath>
</defs>
</svg>
