<svg width="30" height="36" viewBox="0 0 30 36" fill="none" xmlns="http://www.w3.org/2000/svg">
<g id="label-paired / xl / laptop-mobile-xl / regular" clip-path="url(#clip0_2556_19405)">
<path id="icon" d="M6 7.5C5.15625 7.5 4.5 8.20312 4.5 9V19.5H16.5V21H4.5H3H1.54688C1.82812 21.8906 2.625 22.5 3.5625 22.5H16.5V24H3.5625C1.59375 24 0 22.4062 0 20.4375C0 19.9219 0.375 19.5 0.890625 19.5H3V9C3 7.35938 4.3125 6 6 6H21C22.6406 6 24 7.35938 24 9V10.5H22.5V9C22.5 8.20312 21.7969 7.5 21 7.5H6ZM19.5 14.25V27.75C19.5 28.1719 19.8281 28.5 20.25 28.5H27.75C28.125 28.5 28.5 28.1719 28.5 27.75V14.25C28.5 13.875 28.125 13.5 27.75 13.5H20.25C19.8281 13.5 19.5 13.875 19.5 14.25ZM18 14.25C18 13.0312 18.9844 12 20.25 12H27.75C28.9688 12 30 13.0312 30 14.25V27.75C30 29.0156 28.9688 30 27.75 30H20.25C18.9844 30 18 29.0156 18 27.75V14.25Z" fill="black" fill-opacity="0.72"/>
</g>
<defs>
<clipPath id="clip0_2556_19405">
<rect width="30" height="36" fill="white"/>
</clipPath>
</defs>
</svg>
