<svg width="21" height="36" viewBox="0 0 21 36" fill="none" xmlns="http://www.w3.org/2000/svg">
<g id="label-paired / xl / paperclip-xl / fill" clip-path="url(#clip0_2981_833)">
<path id="icon" d="M17.0625 9.9375C15.8906 8.8125 14.0625 8.8125 12.8906 9.9375L4.26562 18.5625C2.29688 20.5312 2.29688 23.7656 4.26562 25.7344C6.23438 27.7031 9.46875 27.7031 11.4375 25.7344L18.5625 18.6094C19.0781 18.0938 19.875 18.0938 20.3906 18.6094C20.9062 19.125 20.9062 19.9219 20.3906 20.4375L13.2656 27.5625C10.2656 30.5625 5.4375 30.5625 2.4375 27.5625C-0.5625 24.5625 -0.5625 19.7344 2.4375 16.7344L11.0625 8.10938C13.2188 5.90625 16.7344 5.90625 18.8906 8.10938C21.0938 10.2656 21.0938 13.7812 18.8906 15.9375L10.6406 24.1875C9.32812 25.5469 7.125 25.5469 5.8125 24.1875C4.45312 22.875 4.45312 20.6719 5.8125 19.3594L12.5625 12.6094C13.0781 12.0938 13.875 12.0938 14.3906 12.6094C14.9062 13.125 14.9062 13.9219 14.3906 14.4375L7.64062 21.1875C7.35938 21.5156 7.35938 22.0312 7.64062 22.3594C7.96875 22.6406 8.48438 22.6406 8.8125 22.3594L17.0625 14.1094C18.1875 12.9375 18.1875 11.1094 17.0625 9.9375Z" fill="black" fill-opacity="0.72"/>
</g>
<defs>
<clipPath id="clip0_2981_833">
<rect width="21" height="36" fill="white"/>
</clipPath>
</defs>
</svg>
