<svg width="30" height="36" viewBox="0 0 30 36" fill="none" xmlns="http://www.w3.org/2000/svg">
<g id="label-paired / xl / location-crosshairs-slash-xl / fill" clip-path="url(#clip0_2556_19989)">
<path id="icon" d="M1.78125 6.28125L8.625 11.625C9.9375 10.3594 11.625 9.46875 13.5 9.14062V7.5C13.5 6.70312 14.1562 6 15 6C15.7969 6 16.5 6.70312 16.5 7.5V9.14062C20.25 9.79688 23.2031 12.75 23.8594 16.5H25.5C26.2969 16.5 27 17.2031 27 18C27 18.8438 26.2969 19.5 25.5 19.5H23.8594C23.6719 20.625 23.25 21.7031 22.6875 22.6406L29.5312 28.0312C30.0469 28.4062 30.1406 29.1094 29.7188 29.5781C29.3438 30.0938 28.6406 30.1875 28.1719 29.7656L0.421875 8.01562C-0.09375 7.64062 -0.1875 6.9375 0.234375 6.46875C0.609375 5.95312 1.3125 5.85938 1.78125 6.28125ZM11.0156 13.5L12.8438 14.9062C13.4531 14.5312 14.2031 14.25 15 14.25C17.0625 14.25 18.75 15.9375 18.75 18C18.75 18.4688 18.6562 18.9375 18.4688 19.3594L20.2969 20.7656C20.7188 19.9688 21 19.0312 21 18C21 14.7188 18.2812 12 15 12C13.4531 12 12.0938 12.5625 11.0156 13.5ZM16.7812 23.7656L19.4062 25.8281C18.5156 26.3438 17.5312 26.7188 16.5 26.9062V28.5C16.5 29.3438 15.7969 30 15 30C14.1562 30 13.5 29.3438 13.5 28.5V26.9062C9.70312 26.25 6.75 23.2969 6.09375 19.5469H4.5C3.65625 19.5469 3 18.8438 3 18.0469C3 17.2031 3.65625 16.5469 4.5 16.5469H6.09375C6.14062 16.1719 6.23438 15.8438 6.32812 15.5156L9 17.625C9 17.7656 9 17.9062 9 18C9 21.3281 11.6719 24 15 24C15.6094 24 16.2188 23.9062 16.7812 23.7656Z" fill="black" fill-opacity="0.72"/>
</g>
<defs>
<clipPath id="clip0_2556_19989">
<rect width="30" height="36" fill="white"/>
</clipPath>
</defs>
</svg>
