<svg width="16" height="24" viewBox="0 0 16 24" fill="none" xmlns="http://www.w3.org/2000/svg">
<g id="label-paired / md / circle-envelope-md / regular" clip-path="url(#clip0_2556_15276)">
<path id="icon" d="M15 12C15 9.5 13.6562 7.21875 11.5 5.96875C9.3125 4.6875 6.65625 4.6875 4.5 5.96875C2.3125 7.21875 1 9.5 1 12C1 14.5312 2.3125 16.8125 4.5 18.0625C6.65625 19.3438 9.3125 19.3438 11.5 18.0625C13.6562 16.8125 15 14.5312 15 12ZM0 12C0 9.15625 1.5 6.53125 4 5.09375C6.46875 3.65625 9.5 3.65625 12 5.09375C14.4688 6.53125 16 9.15625 16 12C16 14.875 14.4688 17.5 12 18.9375C9.5 20.375 6.46875 20.375 4 18.9375C1.5 17.5 0 14.875 0 12ZM5 9H11C11.5312 9 12 9.46875 12 10V14C12 14.5625 11.5312 15 11 15H5C4.4375 15 4 14.5625 4 14V10C4 9.46875 4.4375 9 5 9ZM11 10.5312V10H5V10.5312L7.75 12C7.8125 12.0312 7.90625 12.0625 8 12.0625C8.0625 12.0625 8.15625 12.0312 8.21875 12L11 10.5312ZM11 11.6562L8.6875 12.875C8.46875 13 8.21875 13.0625 8 13.0625C7.75 13.0625 7.5 13 7.28125 12.875L5 11.6562V14H11V11.6562Z" fill="black" fill-opacity="0.72"/>
</g>
<defs>
<clipPath id="clip0_2556_15276">
<rect width="16" height="24" fill="white"/>
</clipPath>
</defs>
</svg>
