<svg width="15" height="36" viewBox="0 0 15 36" fill="none" xmlns="http://www.w3.org/2000/svg">
<g id="label-paired / xl / two-xl / fill" clip-path="url(#clip0_2556_19603)">
<path id="icon" d="M6.65625 10.5C5.67188 10.5 4.6875 10.9219 3.98438 11.625L2.53125 13.0781C1.96875 13.6875 0.984375 13.6875 0.421875 13.0781C-0.1875 12.5156 -0.1875 11.5312 0.421875 10.9688L1.875 9.51562C3.14062 8.25 4.875 7.5 6.65625 7.5C10.4531 7.5 13.5 10.5469 13.5 14.3438C13.5 16.125 12.75 17.8594 11.4844 19.125L5.10938 25.5H13.5C14.2969 25.5 15 26.2031 15 27C15 27.8438 14.2969 28.5 13.5 28.5H1.5C0.890625 28.5 0.328125 28.1719 0.09375 27.6094C-0.140625 27.0469 0 26.3906 0.421875 25.9688L9.375 17.0156C10.0781 16.3125 10.5 15.3281 10.5 14.3438C10.5 12.2344 8.76562 10.5 6.65625 10.5Z" fill="black" fill-opacity="0.72"/>
</g>
<defs>
<clipPath id="clip0_2556_19603">
<rect width="15" height="36" fill="white"/>
</clipPath>
</defs>
</svg>
