<svg width="12" height="18" viewBox="0 0 12 18" fill="none" xmlns="http://www.w3.org/2000/svg">
<g id="label-paired / caption / arrows-rotate-caption / fill" clip-path="url(#clip0_2556_10501)">
<path id="icon" d="M2.46094 8.25781C2.32031 8.65625 1.875 8.86719 1.5 8.72656C1.10156 8.58594 0.890625 8.16406 1.03125 7.76562C1.28906 7.03906 1.71094 6.35938 2.27344 5.79688C4.33594 3.75781 7.64062 3.75781 9.70312 5.79688L10.1016 6.21875V5.375C10.1016 4.97656 10.4531 4.625 10.8516 4.625C11.2734 4.625 11.6016 4.97656 11.6016 5.375V8C11.6016 8.42188 11.2734 8.75 10.8516 8.75H8.25C7.82812 8.75 7.5 8.42188 7.5 8C7.5 7.60156 7.82812 7.25 8.25 7.25H9.04688L8.64844 6.85156C7.17188 5.39844 4.80469 5.39844 3.32812 6.85156C2.92969 7.27344 2.625 7.74219 2.46094 8.25781ZM0.914062 10.2969C0.9375 10.2734 0.984375 10.2734 1.00781 10.2734C1.05469 10.2734 1.07812 10.25 1.125 10.25H3.75C4.14844 10.25 4.5 10.6016 4.5 11C4.5 11.4219 4.14844 11.75 3.75 11.75H2.92969L3.32812 12.1719C4.80469 13.625 7.17188 13.625 8.64844 12.1719C9.04688 11.75 9.35156 11.2812 9.51562 10.7656C9.65625 10.3672 10.1016 10.1562 10.4766 10.2969C10.875 10.4375 11.0859 10.8594 10.9453 11.2578C10.6875 11.9844 10.2656 12.6406 9.70312 13.2266C7.64062 15.2656 4.33594 15.2656 2.27344 13.2266L1.875 12.8047V13.625C1.875 14.0469 1.52344 14.375 1.125 14.375C0.703125 14.375 0.375 14.0469 0.375 13.625V11.0234C0.375 10.9766 0.375 10.9297 0.375 10.9062C0.375 10.8594 0.375 10.8359 0.398438 10.8125C0.421875 10.6953 0.492188 10.5781 0.585938 10.4844C0.679688 10.3906 0.796875 10.3203 0.914062 10.2969Z" fill="black" fill-opacity="0.72"/>
</g>
<defs>
<clipPath id="clip0_2556_10501">
<rect width="12" height="18" fill="white"/>
</clipPath>
</defs>
</svg>
