<svg width="16" height="24" viewBox="0 0 16 24" fill="none" xmlns="http://www.w3.org/2000/svg">
<g id="label-paired / md / search-md / bold" clip-path="url(#clip0_2556_15236)">
<path id="icon" d="M11.5 10.5C11.5 8.71875 10.5312 7.09375 9 6.1875C7.4375 5.28125 5.53125 5.28125 4 6.1875C2.4375 7.09375 1.5 8.71875 1.5 10.5C1.5 12.3125 2.4375 13.9375 4 14.8438C5.53125 15.75 7.4375 15.75 9 14.8438C10.5312 13.9375 11.5 12.3125 11.5 10.5ZM10.5312 15.625C9.40625 16.5 8 17 6.5 17C2.90625 17 0 14.0938 0 10.5C0 6.9375 2.90625 4 6.5 4C10.0625 4 13 6.9375 13 10.5C13 12.0312 12.4688 13.4375 11.5938 14.5625L15.7812 18.7188C16.0625 19.0312 16.0625 19.5 15.7812 19.7812C15.4688 20.0938 15 20.0938 14.7188 19.7812L10.5312 15.625Z" fill="black" fill-opacity="0.72"/>
</g>
<defs>
<clipPath id="clip0_2556_15236">
<rect width="16" height="24" fill="white"/>
</clipPath>
</defs>
</svg>
