<svg width="20" height="24" viewBox="0 0 20 24" fill="none" xmlns="http://www.w3.org/2000/svg">
<g id="label-paired / md / hand-gesture-tap-left-md / fill" clip-path="url(#clip0_3546_706)">
<path id="icon" d="M6.34375 9.96875C6.75 9.78125 7.21875 9.96875 7.40625 10.3438L8.65625 12.9688C8.71875 12.75 8.875 12.5938 9.09375 12.4688C9.53125 12.2812 10.0625 12.4375 10.3125 12.875C10.4062 12.6562 10.5625 12.4688 10.7812 12.375C11.2188 12.1562 11.75 12.3438 11.9688 12.7812C12.0625 12.5625 12.2188 12.375 12.4688 12.25C12.9062 12.0312 13.5 12.25 13.7188 12.7188L14.5 14.4062C15.0938 15.6562 14.5625 17.1562 13.3125 17.7188L11.2188 18.7188C10.5625 19.0312 9.8125 19.125 9.125 18.9375L9 18.9062C8.25 18.7188 7.65625 18.2188 7.34375 17.5312L7.03125 16.875C6.875 16.5312 6.875 16.1562 7.03125 15.8125L7.21875 15.375C7.25 15.3438 7.28125 15.2812 7.3125 15.25L7.75 16.2188C7.84375 16.375 8.03125 16.4375 8.1875 16.375C8.3125 16.3125 8.40625 16.125 8.3125 15.9688L5.96875 11C5.78125 10.625 5.9375 10.1562 6.34375 9.96875ZM8.34375 11.2812C8.5 11 8.59375 10.6562 8.59375 10.3125C8.59375 9.21875 7.6875 8.3125 6.59375 8.3125C5.5 8.3125 4.59375 9.21875 4.59375 10.3125C4.59375 11.2188 5.1875 12 6.03125 12.25L5.5625 11.2812C5.28125 10.6562 5.53125 9.90625 6.15625 9.59375C6.78125 9.3125 7.53125 9.59375 7.84375 10.1875L8.34375 11.2812ZM3.59375 5C3.90625 5 4.1875 5.28125 4.1875 5.625V18.4062C4.1875 18.75 3.90625 19 3.59375 19C3.25 19 3 18.75 3 18.4062V5.625C3 5.28125 3.25 5 3.59375 5Z" fill="black" fill-opacity="0.72"/>
</g>
<defs>
<clipPath id="clip0_3546_706">
<rect width="20" height="24" fill="white"/>
</clipPath>
</defs>
</svg>
