<svg width="16" height="24" viewBox="0 0 16 24" fill="none" xmlns="http://www.w3.org/2000/svg">
<g id="label-paired / md / circle-dollar-md / fill" clip-path="url(#clip0_2556_14623)">
<path id="icon" d="M8 20C5.125 20 2.5 18.5 1.0625 16C-0.375 13.5312 -0.375 10.5 1.0625 8C2.5 5.53125 5.125 4 8 4C10.8438 4 13.4688 5.53125 14.9062 8C16.3438 10.5 16.3438 13.5312 14.9062 16C13.4688 18.5 10.8438 20 8 20ZM8.625 8.1875C8.625 7.8125 8.34375 7.5 7.96875 7.5C7.59375 7.5 7.28125 7.8125 7.28125 8.1875V8.6875C7.09375 8.75 6.90625 8.78125 6.75 8.875C6.1875 9.125 5.65625 9.5625 5.53125 10.25C5.40625 10.9688 5.6875 11.625 6.3125 12C6.75 12.2812 7.34375 12.4688 7.8125 12.5938C7.875 12.625 7.96875 12.625 8.03125 12.6562C8.40625 12.75 8.78125 12.875 9.09375 13.0625C9.46875 13.3125 9.3125 13.7812 8.9375 13.9375C8.65625 14.0312 8.21875 14.0938 7.6875 14C7.3125 13.9375 6.96875 13.8125 6.625 13.7188C6.53125 13.6875 6.46875 13.6562 6.375 13.625C6.03125 13.5 5.65625 13.6875 5.53125 14.0625C5.40625 14.4062 5.59375 14.7812 5.9375 14.9062C6.40625 15.0625 6.84375 15.1875 7.28125 15.3125V15.8438C7.28125 16.2188 7.59375 16.5312 7.96875 16.5312C8.34375 16.5312 8.625 16.2188 8.625 15.8438V15.375C8.90625 15.3438 9.1875 15.2812 9.4375 15.1875C10 14.9375 10.5 14.4688 10.625 13.7812C10.75 13.0625 10.4688 12.375 9.875 11.9688C9.40625 11.6562 8.78125 11.4688 8.28125 11.3125C8.21875 11.3125 8.15625 11.2812 8.0625 11.2812C7.71875 11.1562 7.34375 11.0625 7.03125 10.875C6.65625 10.625 6.9375 10.25 7.28125 10.125C7.65625 9.9375 8.125 9.90625 8.5625 10C8.78125 10.0312 9 10.0938 9.21875 10.1562C9.25 10.1562 9.3125 10.1875 9.34375 10.1875C9.71875 10.2812 10.0938 10.0938 10.1875 9.71875C10.2812 9.375 10.0625 9 9.71875 8.875C9.65625 8.875 9.59375 8.84375 9.53125 8.84375C9.25 8.75 8.9375 8.65625 8.625 8.625V8.1875Z" fill="black" fill-opacity="0.72"/>
</g>
<defs>
<clipPath id="clip0_2556_14623">
<rect width="16" height="24" fill="white"/>
</clipPath>
</defs>
</svg>
