<svg width="12" height="18" viewBox="0 0 12 18" fill="none" xmlns="http://www.w3.org/2000/svg">
<g id="label-paired / caption / app-store-caption" clip-path="url(#clip0_2556_9876)">
<path id="icon" d="M5.97656 6.33594L5.78906 5.98438C5.64844 5.75 5.34375 5.67969 5.13281 5.79688C4.89844 5.9375 4.82812 6.21875 4.94531 6.45312L5.4375 7.29688L3.86719 10.0156H2.64844C2.39062 10.0156 2.17969 10.2266 2.17969 10.4844C2.17969 10.7422 2.39062 10.9531 2.64844 10.9531H7.00781C7.21875 10.5781 6.9375 10.0156 6.46875 10.0156H4.96875L7.03125 6.45312C7.17188 6.21875 7.07812 5.9375 6.84375 5.79688C6.63281 5.67969 6.32812 5.75 6.21094 5.98438L5.97656 6.33594ZM4.14844 11.4453C3.89062 11.1641 3.58594 11.0703 3.1875 11.1875L2.85938 11.7734C2.71875 12.0078 2.78906 12.2891 3.02344 12.4297C3.25781 12.5469 3.5625 12.4766 3.67969 12.2422L4.14844 11.4453ZM8.10938 10.0156C7.47656 8.91406 7.00781 8.11719 6.70312 7.57812C6.39844 7.8125 6.11719 8.49219 6.51562 9.19531C6.91406 9.875 7.5 10.8828 8.29688 12.2422C8.41406 12.4766 8.71875 12.5469 8.95312 12.4297C9.16406 12.2891 9.25781 12.0078 9.11719 11.7734L8.64844 10.9531H9.35156C9.60938 10.9531 9.82031 10.7422 9.82031 10.4844C9.82031 10.2266 9.60938 10.0156 9.35156 10.0156H8.10938ZM6 3.6875C9.21094 3.6875 11.8125 6.28906 11.8125 9.5C11.8125 12.7109 9.21094 15.3125 6 15.3125C2.78906 15.3125 0.1875 12.7109 0.1875 9.5C0.1875 6.28906 2.78906 3.6875 6 3.6875ZM11.0625 9.5C11.0625 6.71094 8.76562 4.4375 6 4.4375C3.1875 4.4375 0.9375 6.73438 0.9375 9.5C0.9375 12.3125 3.21094 14.5625 6 14.5625C8.78906 14.5625 11.0625 12.2891 11.0625 9.5Z" fill="black" fill-opacity="0.72"/>
</g>
<defs>
<clipPath id="clip0_2556_9876">
<rect width="12" height="18" fill="white"/>
</clipPath>
</defs>
</svg>
