<svg width="16" height="24" viewBox="0 0 16 24" fill="none" xmlns="http://www.w3.org/2000/svg">
<g id="label-paired / md / clone-md / regular" clip-path="url(#clip0_2556_14739)">
<path id="icon" d="M2 19H9C9.53125 19 10 18.5625 10 18V16H11V18C11 19.125 10.0938 20 9 20H2C0.875 20 0 19.125 0 18V11C0 9.90625 0.875 9 2 9H4V10H2C1.4375 10 1 10.4688 1 11V18C1 18.5625 1.4375 19 2 19ZM7 14H14C14.5312 14 15 13.5625 15 13V6C15 5.46875 14.5312 5 14 5H7C6.4375 5 6 5.46875 6 6V13C6 13.5625 6.4375 14 7 14ZM5 13V6C5 4.90625 5.875 4 7 4H14C15.0938 4 16 4.90625 16 6V13C16 14.125 15.0938 15 14 15H7C5.875 15 5 14.125 5 13Z" fill="black" fill-opacity="0.72"/>
</g>
<defs>
<clipPath id="clip0_2556_14739">
<rect width="16" height="24" fill="white"/>
</clipPath>
</defs>
</svg>
