<svg width="16" height="24" viewBox="0 0 16 24" fill="none" xmlns="http://www.w3.org/2000/svg">
<g id="label-paired / md / arrow-rotate-right-md / regular" clip-path="url(#clip0_3431_884)">
<path id="icon" d="M14.5 10H10.5C10.2188 10 10 9.78125 10 9.5C10 9.25 10.2188 9 10.5 9H13.1875C12.1562 7.21875 10.2188 6 8 6C4.6875 6 2 8.6875 2 12C2 15.3125 4.6875 18 8 18C10.0938 18 11.9688 16.9062 13.0312 15.2812C13.125 15.125 13.3125 15 13.5 15C13.875 15 14.125 15.4062 13.9062 15.75C12.6875 17.7188 10.4688 19 8 19C4.125 19 1 15.875 1 12C1 8.15625 4.125 5 8 5C10.5312 5 12.75 6.375 14 8.40625V5.5C14 5.25 14.2188 5 14.5 5C14.75 5 15 5.25 15 5.5V9.5C15 9.78125 14.75 10 14.5 10Z" fill="black" fill-opacity="0.72"/>
</g>
<defs>
<clipPath id="clip0_3431_884">
<rect width="16" height="24" fill="white"/>
</clipPath>
</defs>
</svg>
