<svg width="15" height="18" viewBox="0 0 15 18" fill="none" xmlns="http://www.w3.org/2000/svg">
<g id="label-paired / caption / circle-user-slash-caption / regular" clip-path="url(#clip0_2365_740)">
<path id="icon" d="M0.0703125 3.66406C0.1875 3.5 0.445312 3.45312 0.585938 3.59375L14.8359 14.8438C15 14.9609 15.0469 15.1953 14.9062 15.3594C14.7891 15.5234 14.5547 15.5469 14.3906 15.4297L0.140625 4.17969C-0.0234375 4.0625 -0.046875 3.80469 0.0703125 3.66406ZM1.99219 7.08594L2.60156 7.57812C2.36719 8.16406 2.25 8.82031 2.25 9.5C2.25 10.9766 2.85938 12.3125 3.82031 13.2734C4.14844 11.9844 5.34375 11 6.75 11H6.96094L7.92188 11.75H6.75C5.55469 11.75 4.59375 12.6641 4.5 13.8359C5.34375 14.4219 6.375 14.75 7.5 14.75C8.60156 14.75 9.63281 14.4219 10.4766 13.8125V13.8359C10.4766 13.8125 10.4766 13.7891 10.4766 13.7891L11.1094 14.2812C10.1016 15.0781 8.8125 15.5 7.5 15.5C5.34375 15.5 3.375 14.375 2.29688 12.5C1.33594 10.8359 1.24219 8.82031 1.99219 7.08594ZM3.86719 4.74219C4.875 3.94531 6.16406 3.5 7.5 3.5C9.63281 3.5 11.625 4.64844 12.6797 6.5C13.6406 8.1875 13.7578 10.2031 12.9844 11.9375L12.375 11.4453C12.6094 10.8594 12.75 10.2031 12.75 9.5C12.75 6.61719 10.3828 4.25 7.5 4.25C6.375 4.25 5.32031 4.625 4.47656 5.21094L3.86719 4.74219ZM6.49219 6.80469C6.51562 6.78125 6.53906 6.78125 6.5625 6.75781C7.125 6.42969 7.85156 6.42969 8.4375 6.75781C9 7.08594 9.375 7.71875 9.375 8.375C9.375 8.58594 9.32812 8.79688 9.25781 9.00781L8.60156 8.49219C8.625 8.25781 8.57812 8.02344 8.46094 7.8125C8.27344 7.48438 7.89844 7.25 7.5 7.25C7.35938 7.25 7.24219 7.27344 7.125 7.32031L6.49219 6.80469Z" fill="black" fill-opacity="0.72"/>
</g>
<defs>
<clipPath id="clip0_2365_740">
<rect width="15" height="18" fill="white"/>
</clipPath>
</defs>
</svg>
