<svg width="16" height="24" viewBox="0 0 16 24" fill="none" xmlns="http://www.w3.org/2000/svg">
<g id="label-paired / md / thumbs-down-md / fill" clip-path="url(#clip0_2556_14869)">
<path id="icon" d="M9.78125 19C8.96875 19.1562 8.1875 18.625 8 17.8125L7.9375 17.4375C7.75 16.4062 7.15625 15.4688 6.34375 14.8125L6.125 14.625C5.40625 14.0625 5 13.2188 5 12.2812V11.5V10V8.8125C5 7.8125 5.5 6.875 6.3125 6.3125L7.53125 5.53125C8.03125 5.1875 8.59375 5 9.1875 5H12.25C13.0625 5 13.75 5.6875 13.75 6.5C13.75 6.625 13.7188 6.75 13.6875 6.84375C14.3125 7.03125 14.75 7.59375 14.75 8.25C14.75 8.5625 14.6562 8.8125 14.5312 9.03125C15.2188 9.1875 15.75 9.78125 15.75 10.5C15.75 11 15.5312 11.4062 15.1875 11.6875C15.6562 11.9375 16 12.4375 16 13C16 13.8438 15.3125 14.5 14.5 14.5H10C10.4062 15.25 10.7188 16.0312 10.875 16.875L10.9688 17.2188C11.125 18.0312 10.5938 18.8125 9.78125 19ZM1 16C0.4375 16 0 15.5625 0 15V8C0 7.46875 0.4375 7 1 7H3C3.53125 7 4 7.46875 4 8V15C4 15.5625 3.53125 16 3 16H1Z" fill="black" fill-opacity="0.72"/>
</g>
<defs>
<clipPath id="clip0_2556_14869">
<rect width="16" height="24" fill="white"/>
</clipPath>
</defs>
</svg>
