<svg width="15" height="18" viewBox="0 0 15 18" fill="none" xmlns="http://www.w3.org/2000/svg">
<g id="label-paired / caption / lock-pattern-caption / regular" clip-path="url(#clip0_2512_1294)">
<path id="icon" d="M1.875 5C1.875 4.39062 2.36719 3.875 3 3.875C3.46875 3.875 3.89062 4.20312 4.05469 4.625H6.42188C6.58594 4.20312 7.00781 3.875 7.5 3.875C7.96875 3.875 8.39062 4.20312 8.55469 4.625H10.9219C11.0859 4.20312 11.5078 3.875 12 3.875C12.6094 3.875 13.125 4.39062 13.125 5C13.125 5.63281 12.6094 6.125 12 6.125C11.8125 6.125 11.6484 6.10156 11.5078 6.03125L8.50781 9.03125C8.57812 9.17188 8.625 9.33594 8.625 9.5C8.625 10.1328 8.10938 10.625 7.5 10.625C7.3125 10.625 7.14844 10.6016 7.00781 10.5312L4.00781 13.5312C4.03125 13.5547 4.03125 13.6016 4.05469 13.625H6.42188C6.58594 13.2031 7.00781 12.875 7.5 12.875C7.96875 12.875 8.39062 13.2031 8.55469 13.625H10.9219C11.0859 13.2031 11.5078 12.875 12 12.875C12.6094 12.875 13.125 13.3906 13.125 14C13.125 14.6328 12.6094 15.125 12 15.125C11.5078 15.125 11.0859 14.8203 10.9219 14.375H8.55469C8.39062 14.8203 7.96875 15.125 7.5 15.125C7.00781 15.125 6.58594 14.8203 6.42188 14.375H4.05469C3.89062 14.8203 3.46875 15.125 2.97656 15.125C2.36719 15.125 1.85156 14.6328 1.85156 14C1.85156 13.3906 2.36719 12.875 2.97656 12.875C3.16406 12.875 3.32812 12.9219 3.46875 12.9922L6.46875 9.99219C6.39844 9.85156 6.35156 9.6875 6.35156 9.5C6.35156 8.89062 6.86719 8.375 7.47656 8.375C7.66406 8.375 7.82812 8.42188 7.96875 8.49219L10.9688 5.49219C10.9453 5.46875 10.9453 5.42188 10.9219 5.375H8.55469C8.39062 5.82031 7.96875 6.125 7.5 6.125C7.00781 6.125 6.58594 5.82031 6.42188 5.375H4.05469C3.89062 5.82031 3.46875 6.125 3 6.125C2.36719 6.125 1.875 5.63281 1.875 5ZM1.875 9.5C1.875 9.92188 2.08594 10.2734 2.4375 10.4844C2.76562 10.6953 3.21094 10.6953 3.5625 10.4844C3.89062 10.2734 4.125 9.92188 4.125 9.5C4.125 9.10156 3.89062 8.75 3.5625 8.53906C3.21094 8.32812 2.76562 8.32812 2.4375 8.53906C2.08594 8.75 1.875 9.10156 1.875 9.5ZM10.875 9.5C10.875 9.92188 11.0859 10.2734 11.4375 10.4844C11.7656 10.6953 12.2109 10.6953 12.5625 10.4844C12.8906 10.2734 13.125 9.92188 13.125 9.5C13.125 9.10156 12.8906 8.75 12.5625 8.53906C12.2109 8.32812 11.7656 8.32812 11.4375 8.53906C11.0859 8.75 10.875 9.10156 10.875 9.5Z" fill="black" fill-opacity="0.72"/>
</g>
<defs>
<clipPath id="clip0_2512_1294">
<rect width="15" height="18" fill="white"/>
</clipPath>
</defs>
</svg>
