<svg width="24" height="36" viewBox="0 0 24 36" fill="none" xmlns="http://www.w3.org/2000/svg">
<g id="label-paired / xl / circle-five-xl / regular" clip-path="url(#clip0_2556_19541)">
<path id="icon" d="M12 7.5C8.20312 7.5 4.78125 9.51562 2.90625 12.75C0.984375 16.0312 0.984375 20.0156 2.90625 23.25C4.78125 26.5312 8.20312 28.5 12 28.5C15.75 28.5 19.1719 26.5312 21.0469 23.25C22.9688 20.0156 22.9688 16.0312 21.0469 12.75C19.1719 9.51562 15.75 7.5 12 7.5ZM12 30C7.6875 30 3.75 27.75 1.59375 24C-0.5625 20.2969 -0.5625 15.75 1.59375 12C3.75 8.29688 7.6875 6 12 6C16.2656 6 20.2031 8.29688 22.3594 12C24.5156 15.75 24.5156 20.2969 22.3594 24C20.2031 27.75 16.2656 30 12 30ZM9.75 12H15C15.375 12 15.75 12.375 15.75 12.75C15.75 13.1719 15.375 13.5 15 13.5H10.3125L9.5625 16.5938L13.3125 16.9688C15.0938 17.1562 16.4531 18.7031 16.4531 20.4844C16.4531 22.4531 14.9062 24 12.9375 24H10.875C9.60938 24 8.39062 23.3906 7.6875 22.3125L7.59375 22.1719C7.35938 21.8438 7.45312 21.375 7.82812 21.1406C8.15625 20.9062 8.625 21 8.85938 21.3281L8.95312 21.4688C9.375 22.125 10.125 22.5 10.875 22.5H12.9375C14.0625 22.5 15 21.6094 15 20.4844C15 19.4531 14.2031 18.6094 13.1719 18.4688L8.53125 18C8.29688 18 8.10938 17.8594 7.96875 17.7188C7.875 17.5312 7.82812 17.2969 7.875 17.1094L9 12.6094C9.09375 12.2344 9.375 12 9.75 12Z" fill="black" fill-opacity="0.72"/>
</g>
<defs>
<clipPath id="clip0_2556_19541">
<rect width="24" height="36" fill="white"/>
</clipPath>
</defs>
</svg>
