<svg width="15" height="36" viewBox="0 0 15 36" fill="none" xmlns="http://www.w3.org/2000/svg">
<g id="label-paired / xl / five-xl / fill" clip-path="url(#clip0_2556_19581)">
<path id="icon" d="M1.5 8.76562C1.64062 8.0625 2.25 7.5 3 7.5H12C12.7969 7.5 13.5 8.20312 13.5 9C13.5 9.84375 12.7969 10.5 12 10.5H4.21875L3.28125 15.75H8.625C12.1406 15.75 15 18.6094 15 22.125C15 25.6875 12.1406 28.5 8.625 28.5H4.6875C2.85938 28.5 1.17188 27.4688 0.328125 25.8281L0.140625 25.4531C-0.234375 24.7031 0.046875 23.8125 0.796875 23.4375C1.54688 23.0625 2.4375 23.3438 2.8125 24.0938L3 24.4688C3.32812 25.125 3.98438 25.5 4.6875 25.5H8.625C10.4531 25.5 12 24 12 22.125C12 20.2969 10.4531 18.75 8.625 18.75H1.5C1.03125 18.75 0.609375 18.5625 0.328125 18.2344C0.046875 17.9062 -0.09375 17.4375 0 17.0156L1.5 8.76562Z" fill="black" fill-opacity="0.72"/>
</g>
<defs>
<clipPath id="clip0_2556_19581">
<rect width="15" height="36" fill="white"/>
</clipPath>
</defs>
</svg>
