<svg width="24" height="36" viewBox="0 0 24 36" fill="none" xmlns="http://www.w3.org/2000/svg">
<g id="label-paired / xl / briefcase-xl / regular" clip-path="url(#clip0_2362_720)">
<path id="icon" d="M7.5 8.25V10.5H16.5V8.25C16.4688 7.78125 16.2188 7.53125 15.75 7.5H8.25C7.78125 7.53125 7.53125 7.78125 7.5 8.25ZM6 10.5V8.25C6.03125 7.625 6.25 7.09375 6.65625 6.65625C7.09375 6.25 7.625 6.03125 8.25 6H15.75C16.375 6.03125 16.9062 6.25 17.3438 6.65625C17.75 7.09375 17.9688 7.625 18 8.25V10.5H21C21.8438 10.5312 22.5469 10.8281 23.1094 11.3906C23.6719 11.9531 23.9688 12.6562 24 13.5V25.5C23.9688 26.3438 23.6719 27.0469 23.1094 27.6094C22.5469 28.1719 21.8438 28.4688 21 28.5H3C2.15625 28.4688 1.45312 28.1719 0.890625 27.6094C0.328125 27.0469 0.03125 26.3438 0 25.5V13.5C0.03125 12.6562 0.328125 11.9531 0.890625 11.3906C1.45312 10.8281 2.15625 10.5312 3 10.5H6ZM17.25 12H6.75H3C2.5625 12 2.20312 12.1406 1.92188 12.4219C1.64062 12.7031 1.5 13.0625 1.5 13.5V18H8.25H9.75H14.25H15.75H22.5V13.5C22.5 13.0625 22.3594 12.7031 22.0781 12.4219C21.7969 12.1406 21.4375 12 21 12H17.25ZM22.5 19.5H15.75V21.75C15.75 22.1875 15.6094 22.5469 15.3281 22.8281C15.0469 23.1094 14.6875 23.25 14.25 23.25H9.75C9.3125 23.25 8.95312 23.1094 8.67188 22.8281C8.39062 22.5469 8.25 22.1875 8.25 21.75V19.5H1.5V25.5C1.5 25.9375 1.64062 26.2969 1.92188 26.5781C2.20312 26.8594 2.5625 27 3 27H21C21.4375 27 21.7969 26.8594 22.0781 26.5781C22.3594 26.2969 22.5 25.9375 22.5 25.5V19.5ZM9.75 19.5V21.75H14.25V19.5H9.75Z" fill="black" fill-opacity="0.72"/>
</g>
<defs>
<clipPath id="clip0_2362_720">
<rect width="24" height="36" fill="white"/>
</clipPath>
</defs>
</svg>
