<svg width="18" height="30" viewBox="0 0 18 30" fill="none" xmlns="http://www.w3.org/2000/svg">
<g id="label-paired / lg / whatsapp-lg" clip-path="url(#clip0_2556_16915)">
<path id="icon" d="M15.0938 9.32812C16.7344 10.9688 17.75 13.1172 17.75 15.4609C17.75 20.2266 13.7656 24.1328 8.96094 24.1328C7.51562 24.1328 6.10938 23.7422 4.82031 23.0781L0.25 24.25L1.46094 19.7578C0.71875 18.4688 0.289062 16.9844 0.289062 15.4219C0.289062 10.6562 4.19531 6.75 8.96094 6.75C11.3047 6.75 13.4922 7.6875 15.0938 9.32812ZM8.96094 22.6484C12.9453 22.6484 16.2656 19.4062 16.2656 15.4609C16.2656 13.5078 15.4453 11.7109 14.0781 10.3438C12.7109 8.97656 10.9141 8.23438 9 8.23438C5.01562 8.23438 1.77344 11.4766 1.77344 15.4219C1.77344 16.7891 2.16406 18.1172 2.86719 19.2891L3.0625 19.5625L2.32031 22.2188L5.05469 21.4766L5.28906 21.6328C6.42188 22.2969 7.67188 22.6484 8.96094 22.6484ZM12.9453 17.2578C13.1406 17.375 13.2969 17.4141 13.3359 17.5312C13.4141 17.6094 13.4141 18.0391 13.2188 18.5469C13.0234 19.0547 12.1641 19.5234 11.7734 19.5625C11.0703 19.6797 10.5234 19.6406 9.15625 19.0156C6.96875 18.0781 5.5625 15.8906 5.44531 15.7734C5.32812 15.6172 4.58594 14.6016 4.58594 13.5078C4.58594 12.4531 5.13281 11.9453 5.32812 11.7109C5.52344 11.4766 5.75781 11.4375 5.91406 11.4375C6.03125 11.4375 6.1875 11.4375 6.30469 11.4375C6.46094 11.4375 6.61719 11.3984 6.8125 11.8281C6.96875 12.2578 7.4375 13.3125 7.47656 13.4297C7.51562 13.5469 7.55469 13.6641 7.47656 13.8203C7.08594 14.6406 6.61719 14.6016 6.85156 14.9922C7.71094 16.4375 8.53125 16.9453 9.82031 17.5703C10.0156 17.6875 10.1328 17.6484 10.2891 17.5312C10.4062 17.375 10.8359 16.8672 10.9531 16.6719C11.1094 16.4375 11.2656 16.4766 11.4609 16.5547C11.6562 16.6328 12.7109 17.1406 12.9453 17.2578Z" fill="black" fill-opacity="0.72"/>
</g>
<defs>
<clipPath id="clip0_2556_16915">
<rect width="18" height="30" fill="white"/>
</clipPath>
</defs>
</svg>
