<svg width="30" height="36" viewBox="0 0 30 36" fill="none" xmlns="http://www.w3.org/2000/svg">
<g id="label-paired / xl / bell-slash-xl / bold" clip-path="url(#clip0_2556_19476)">
<path id="icon" d="M1.78125 6.28125L8.71875 11.6719C9.79688 10.0312 11.4844 8.8125 13.5 8.4375V7.5C13.5 6.70312 14.1562 6 15 6C15.7969 6 16.5 6.70312 16.5 7.5V8.4375C19.9219 9.09375 22.5 12.1406 22.5 15.75V16.9688C22.5 19.0781 23.2031 21.1406 24.5156 22.8281L25.2188 23.6719C25.4531 24 25.5469 24.4219 25.4062 24.75L29.5312 28.0312C30.0469 28.4062 30.1406 29.1094 29.7188 29.5781C29.3438 30.0938 28.6406 30.1875 28.1719 29.7656L0.421875 8.01562C-0.09375 7.64062 -0.1875 6.9375 0.234375 6.46875C0.609375 5.95312 1.3125 5.85938 1.78125 6.28125ZM10.5 13.0781L21.0938 21.375C20.5312 20.0156 20.25 18.5156 20.25 16.9688V15.75C20.25 12.8906 17.8594 10.5 15 10.5C13.0781 10.5 11.3906 11.5312 10.5 13.0781ZM19.0312 25.5H5.625C5.15625 25.5 4.78125 25.2656 4.59375 24.8906C4.40625 24.5156 4.45312 24.0469 4.73438 23.6719L5.4375 22.8281C6.75 21.1406 7.5 19.0781 7.5 16.9688V16.4531L9.65625 18.1406C9.46875 19.9688 8.85938 21.75 7.875 23.25H16.1719L19.0312 25.5ZM18 27C18 27.7969 17.6719 28.5938 17.1094 29.1562C16.5469 29.7188 15.7969 30 15 30C14.2031 30 13.4062 29.7188 12.8438 29.1562C12.2812 28.5938 12 27.7969 12 27H15H18Z" fill="black" fill-opacity="0.72"/>
</g>
<defs>
<clipPath id="clip0_2556_19476">
<rect width="30" height="36" fill="white"/>
</clipPath>
</defs>
</svg>
