<svg width="18" height="30" viewBox="0 0 18 30" fill="none" xmlns="http://www.w3.org/2000/svg">
<g id="label-paired / lg / ellipsis-lg / fill" clip-path="url(#clip0_2556_17471)">
<path id="icon" d="M0.5625 15.5C0.5625 14.7188 0.953125 14.0156 1.65625 13.625C2.32031 13.2344 3.14062 13.2344 3.84375 13.625C4.50781 14.0156 4.9375 14.7188 4.9375 15.5C4.9375 16.3203 4.50781 17.0234 3.84375 17.4141C3.14062 17.8047 2.32031 17.8047 1.65625 17.4141C0.953125 17.0234 0.5625 16.3203 0.5625 15.5ZM6.8125 15.5C6.8125 14.7188 7.20312 14.0156 7.90625 13.625C8.57031 13.2344 9.39062 13.2344 10.0938 13.625C10.7578 14.0156 11.1875 14.7188 11.1875 15.5C11.1875 16.3203 10.7578 17.0234 10.0938 17.4141C9.39062 17.8047 8.57031 17.8047 7.90625 17.4141C7.20312 17.0234 6.8125 16.3203 6.8125 15.5ZM15.25 13.3125C16.0312 13.3125 16.7344 13.7422 17.125 14.4062C17.5156 15.1094 17.5156 15.9297 17.125 16.5938C16.7344 17.2969 16.0312 17.6875 15.25 17.6875C14.4297 17.6875 13.7266 17.2969 13.3359 16.5938C12.9453 15.9297 12.9453 15.1094 13.3359 14.4062C13.7266 13.7422 14.4297 13.3125 15.25 13.3125Z" fill="black" fill-opacity="0.72"/>
</g>
<defs>
<clipPath id="clip0_2556_17471">
<rect width="18" height="30" fill="white"/>
</clipPath>
</defs>
</svg>
