<svg width="16" height="24" viewBox="0 0 16 24" fill="none" xmlns="http://www.w3.org/2000/svg">
<g id="label-paired / md / circle-three-md / fill" clip-path="url(#clip0_2556_15149)">
<path id="icon" d="M8 20C5.125 20 2.5 18.5 1.0625 16C-0.375 13.5312 -0.375 10.5 1.0625 8C2.5 5.53125 5.125 4 8 4C10.8438 4 13.4688 5.53125 14.9062 8C16.3438 10.5 16.3438 13.5312 14.9062 16C13.4688 18.5 10.8438 20 8 20ZM5.75 8C5.3125 8 5 8.34375 5 8.75C5 9.1875 5.3125 9.5 5.75 9.5H7.8125L6.21875 10.9688C6 11.1562 5.90625 11.5 6.03125 11.7812C6.15625 12.0625 6.4375 12.25 6.75 12.25H8.34375C8.96875 12.25 9.46875 12.75 9.46875 13.375C9.46875 14 8.96875 14.5 8.34375 14.5H7.46875C7.0625 14.5 6.6875 14.3125 6.4375 13.9375L6.375 13.8125C6.15625 13.4688 5.6875 13.3438 5.34375 13.5625C5 13.7812 4.875 14.25 5.09375 14.5938L5.1875 14.7188C5.65625 15.5312 6.53125 16 7.5 16H8.34375C9.8125 16 11 14.8438 11 13.375C11 12.0312 9.96875 10.9062 8.65625 10.7812L10.25 9.3125C10.4688 9.09375 10.5625 8.78125 10.4375 8.5C10.3125 8.21875 10.0312 8 9.75 8H5.75Z" fill="black" fill-opacity="0.72"/>
</g>
<defs>
<clipPath id="clip0_2556_15149">
<rect width="16" height="24" fill="white"/>
</clipPath>
</defs>
</svg>
