<svg width="24" height="36" viewBox="0 0 24 36" fill="none" xmlns="http://www.w3.org/2000/svg">
<g id="label-paired / xl / circle-arrow-down-left-xl / bold" clip-path="url(#clip0_2556_19626)">
<path id="icon" d="M12 8.25C8.48438 8.25 5.29688 10.125 3.51562 13.125C1.78125 16.1719 1.78125 19.875 3.51562 22.875C5.29688 25.9219 8.48438 27.75 12 27.75C15.4688 27.75 18.6562 25.9219 20.4375 22.875C22.1719 19.875 22.1719 16.1719 20.4375 13.125C18.6562 10.125 15.4688 8.25 12 8.25ZM12 30C7.6875 30 3.75 27.75 1.59375 24C-0.5625 20.2969 -0.5625 15.75 1.59375 12C3.75 8.29688 7.6875 6 12 6C16.2656 6 20.2031 8.29688 22.3594 12C24.5156 15.75 24.5156 20.2969 22.3594 24C20.2031 27.75 16.2656 30 12 30ZM15 23.25H7.875C7.21875 23.25 6.75 22.7812 6.75 22.125V14.625C6.75 14.0156 7.21875 13.5 7.875 13.5C8.48438 13.5 9 14.0156 9 14.625V19.4531L15.3281 13.0781C15.75 12.6562 16.4531 12.6562 16.875 13.0781C17.3438 13.5469 17.3438 14.25 16.875 14.6719L10.5469 21H15C15.6094 21 16.125 21.5156 16.125 22.125C16.125 22.7812 15.6094 23.25 15 23.25Z" fill="black" fill-opacity="0.72"/>
</g>
<defs>
<clipPath id="clip0_2556_19626">
<rect width="24" height="36" fill="white"/>
</clipPath>
</defs>
</svg>
