<svg width="12" height="18" viewBox="0 0 12 18" fill="none" xmlns="http://www.w3.org/2000/svg">
<g id="label-paired / caption / chevrons-down-caption / regular" clip-path="url(#clip0_2556_10231)">
<path id="icon" d="M1.21875 5.28125C1.07812 5.14062 1.07812 4.88281 1.21875 4.74219C1.35938 4.60156 1.61719 4.60156 1.75781 4.74219L6 8.98438L10.2188 4.74219C10.3594 4.60156 10.6172 4.60156 10.7578 4.74219C10.8984 4.88281 10.8984 5.14062 10.7578 5.28125L6.25781 9.78125C6.11719 9.92188 5.85938 9.92188 5.71875 9.78125L1.21875 5.28125ZM1.21875 9.78125C1.07812 9.64062 1.07812 9.38281 1.21875 9.24219C1.35938 9.10156 1.61719 9.10156 1.75781 9.24219L6 13.4844L10.2188 9.24219C10.3594 9.10156 10.6172 9.10156 10.7578 9.24219C10.8984 9.38281 10.8984 9.64062 10.7578 9.78125L6.25781 14.2812C6.11719 14.4219 5.85938 14.4219 5.71875 14.2812L1.21875 9.78125Z" fill="black" fill-opacity="0.72"/>
</g>
<defs>
<clipPath id="clip0_2556_10231">
<rect width="12" height="18" fill="white"/>
</clipPath>
</defs>
</svg>
