<svg width="8" height="18" viewBox="0 0 8 18" fill="none" xmlns="http://www.w3.org/2000/svg">
<g id="label-paired / caption / nine-caption / bold" clip-path="url(#clip0_2556_10514)">
<path id="icon" d="M1.375 8C1.375 9.45312 2.54688 10.625 4 10.625C4.75 10.625 5.42969 10.3203 5.89844 9.80469L6.03906 9.66406C6.41406 9.19531 6.625 8.60938 6.625 8C6.625 6.57031 5.42969 5.375 4 5.375C2.54688 5.375 1.375 6.57031 1.375 8ZM4.32812 11.75C4.21094 11.75 4.09375 11.75 4 11.75C1.91406 11.75 0.25 10.0859 0.25 8C0.25 5.9375 1.91406 4.25 4 4.25C6.0625 4.25 7.75 5.9375 7.75 8C7.75 8.98438 7.375 9.875 6.76562 10.5312L3.48438 14.5625C3.29688 14.7969 2.94531 14.8203 2.6875 14.6328C2.45312 14.4453 2.42969 14.0938 2.61719 13.8359L4.32812 11.75Z" fill="black" fill-opacity="0.72"/>
</g>
<defs>
<clipPath id="clip0_2556_10514">
<rect width="8" height="18" fill="white"/>
</clipPath>
</defs>
</svg>
