<svg width="29" height="36" viewBox="0 0 29 36" fill="none" xmlns="http://www.w3.org/2000/svg">
<g id="label-paired / xl / chart-tradingview-xl / regular" clip-path="url(#clip0_3546_947)">
<path id="icon" d="M4.58594 27.7969V8.10938C4.58594 7.73438 4.91406 7.40625 5.28906 7.40625C5.71094 7.40625 5.99219 7.73438 5.99219 8.10938V27.2812C5.99219 28.0312 6.60156 28.5938 7.35156 28.5938H18.7891H23.6641C24.0391 28.5938 24.3672 28.9219 24.3672 29.2969C24.3672 29.7188 24.0391 30 23.6641 30H6.78906C5.57031 30 4.58594 29.0625 4.58594 27.7969ZM24.1797 16.0781C23.8984 15.8438 23.4297 15.8438 23.1484 16.0781L15.8828 23.3906L14.0547 21.5625C13.4922 21 12.6016 21 12.0859 21.5625L9.03906 24.5625C8.75781 24.8438 8.75781 25.3125 9.03906 25.5938C9.32031 25.875 9.74219 25.875 10.0234 25.5938L13.0703 22.5469L14.8984 24.375C15.4609 24.9375 16.3516 24.9375 16.8672 24.375L24.1797 17.1094C24.4609 16.8281 24.4609 16.3594 24.1797 16.0781ZM16.3984 11.25C16.3984 10.7344 15.9297 10.2656 15.3672 10.2656C14.8047 10.2656 14.3359 10.7344 14.3359 11.25C14.3359 11.8125 14.8047 12.2344 15.3672 12.2344C15.9297 12.2344 16.3984 11.8125 16.3984 11.25ZM17.1953 10.2656L15.0859 15.8906H16.6328L18.6953 10.2656H17.1953ZM10.2578 10.2656V11.5312H12.4609V15.8906H13.8203V10.2656H10.2578Z" fill="black" fill-opacity="0.72"/>
</g>
<defs>
<clipPath id="clip0_3546_947">
<rect width="29" height="36" fill="white"/>
</clipPath>
</defs>
</svg>
