<svg width="18" height="22" viewBox="0 0 18 22" fill="none" xmlns="http://www.w3.org/2000/svg">
<g id="label-paired / sm / wifi-sm / bold" clip-path="url(#clip0_2556_12566)">
<path id="icon" d="M1.31641 8.83594C1.04297 9.08203 0.632812 9.05469 0.414062 8.78125C0.167969 8.50781 0.195312 8.09766 0.46875 7.85156C2.73828 5.85547 5.71875 4.625 9 4.625C12.2539 4.625 15.2344 5.85547 17.5039 7.85156C17.7773 8.09766 17.8047 8.50781 17.5859 8.78125C17.3398 9.05469 16.9297 9.08203 16.6562 8.83594C14.6055 7.03125 11.9258 5.9375 9 5.9375C6.04688 5.9375 3.36719 7.03125 1.31641 8.83594ZM9 10.75C7.22266 10.75 5.60938 11.4336 4.40625 12.5547C4.13281 12.8008 3.72266 12.7734 3.47656 12.5C3.23047 12.2266 3.25781 11.8164 3.50391 11.5703C4.95312 10.2578 6.86719 9.4375 9 9.4375C11.1055 9.4375 13.0195 10.2578 14.4688 11.5703C14.7148 11.8164 14.7422 12.2266 14.4961 12.5C14.25 12.7734 13.8398 12.8008 13.5664 12.5547C12.3633 11.4336 10.75 10.75 9 10.75ZM10.5312 15.3438C10.5312 15.918 10.2305 16.4102 9.76562 16.6836C9.27344 16.957 8.69922 16.957 8.23438 16.6836C7.74219 16.4102 7.46875 15.918 7.46875 15.3438C7.46875 14.7969 7.74219 14.3047 8.23438 14.0312C8.69922 13.7578 9.27344 13.7578 9.76562 14.0312C10.2305 14.3047 10.5312 14.7969 10.5312 15.3438Z" fill="black" fill-opacity="0.72"/>
</g>
<defs>
<clipPath id="clip0_2556_12566">
<rect width="18" height="22" fill="white"/>
</clipPath>
</defs>
</svg>
