<svg width="18" height="30" viewBox="0 0 18 30" fill="none" xmlns="http://www.w3.org/2000/svg">
<g id="label-paired / lg / placeholder-lg / fill" clip-path="url(#clip0_2556_17564)">
<path id="icon" d="M4 6.75H5.25V9.25H4C3.29688 9.25 2.75 9.83594 2.75 10.5V11.75H0.25V10.5C0.25 8.42969 1.92969 6.75 4 6.75ZM0.25 13H2.75V18H0.25V13ZM15.25 13H17.75V18H15.25V13ZM17.75 11.75H15.25V10.5C15.25 9.83594 14.6641 9.25 14 9.25H12.75V6.75H14C16.0703 6.75 17.75 8.42969 17.75 10.5V11.75ZM17.75 19.25V20.5C17.75 22.5703 16.0703 24.25 14 24.25H12.75V21.75H14C14.6641 21.75 15.25 21.2031 15.25 20.5V19.25H17.75ZM2.75 19.25V20.5C2.75 21.2031 3.29688 21.75 4 21.75H5.25V24.25H4C1.92969 24.25 0.25 22.5703 0.25 20.5V19.25H2.75ZM6.5 24.25V21.75H11.5V24.25H6.5ZM6.5 9.25V6.75H11.5V9.25H6.5Z" fill="black" fill-opacity="0.72"/>
</g>
<defs>
<clipPath id="clip0_2556_17564">
<rect width="18" height="30" fill="white"/>
</clipPath>
</defs>
</svg>
