<svg width="11" height="18" viewBox="0 0 11 18" fill="none" xmlns="http://www.w3.org/2000/svg">
<g id="label-paired / caption / floppy-disk-caption / fill" clip-path="url(#clip0_2556_10035)">
<path id="icon" d="M1.75 4.25H7.42188C7.82031 4.25 8.21875 4.41406 8.5 4.69531L10.3047 6.5C10.5859 6.78125 10.75 7.17969 10.75 7.57812V13.25C10.75 14.0938 10.0703 14.75 9.25 14.75H1.75C0.90625 14.75 0.25 14.0938 0.25 13.25V5.75C0.25 4.92969 0.90625 4.25 1.75 4.25ZM1.75 6.5V8C1.75 8.42188 2.07812 8.75 2.5 8.75H7C7.39844 8.75 7.75 8.42188 7.75 8V6.5C7.75 6.10156 7.39844 5.75 7 5.75H2.5C2.07812 5.75 1.75 6.10156 1.75 6.5ZM5.5 10.25C4.96094 10.25 4.46875 10.5547 4.1875 11C3.92969 11.4688 3.92969 12.0547 4.1875 12.5C4.46875 12.9688 4.96094 13.25 5.5 13.25C6.01562 13.25 6.50781 12.9688 6.78906 12.5C7.04688 12.0547 7.04688 11.4688 6.78906 11C6.50781 10.5547 6.01562 10.25 5.5 10.25Z" fill="black" fill-opacity="0.72"/>
</g>
<defs>
<clipPath id="clip0_2556_10035">
<rect width="11" height="18" fill="white"/>
</clipPath>
</defs>
</svg>
