<svg width="15" height="18" viewBox="0 0 15 18" fill="none" xmlns="http://www.w3.org/2000/svg">
<g id="label-paired / caption / handshake-caption / fill" clip-path="url(#clip0_4513_675)">
<path id="icon" d="M7.57031 5.51562C7.96875 5.1875 8.46094 5 8.97656 5C9.39844 5 9.82031 5.14062 10.1719 5.35156L11.8828 6.45312L11.9766 6.5H12V10.9297L8.74219 7.92969L9.21094 7.55469C9.375 7.4375 9.42188 7.20312 9.28125 7.03906C9.16406 6.875 8.92969 6.82812 8.76562 6.96875L6.42188 8.77344C6.02344 9.07812 5.4375 9.00781 5.13281 8.58594C4.85156 8.1875 4.92188 7.64844 5.29688 7.34375L7.57031 5.51562ZM8.10938 8.42188L11.25 11.3047C11.6953 11.7266 11.7422 12.4297 11.3203 12.8984C10.9453 13.3203 10.3125 13.3672 9.86719 13.0625C9.82031 13.2031 9.72656 13.3438 9.63281 13.4609C9.21094 13.9062 8.50781 13.9531 8.03906 13.5312L7.64062 13.1562C7.59375 13.3438 7.5 13.5078 7.38281 13.6484C6.96094 14.0938 6.25781 14.1406 5.78906 13.7188L3.65625 11.75H3V6.5L4.6875 5.375C5.03906 5.14062 5.48438 5 5.90625 5.02344C6.21094 5.02344 6.51562 5.07031 6.77344 5.1875L4.82812 6.75781C4.14844 7.32031 4.00781 8.32812 4.52344 9.03125C5.08594 9.78125 6.16406 9.94531 6.89062 9.35938L8.10938 8.42188ZM0.375 6.5H2.25V11.75C2.25 12.1719 1.89844 12.5 1.5 12.5H0.75C0.328125 12.5 0 12.1719 0 11.75V6.875C0 6.6875 0.164062 6.5 0.375 6.5ZM1.125 11C0.914062 11 0.75 11.1875 0.75 11.375C0.75 11.5859 0.914062 11.75 1.125 11.75C1.3125 11.75 1.5 11.5859 1.5 11.375C1.5 11.1875 1.3125 11 1.125 11ZM12.75 6.5H14.625C14.8125 6.5 15 6.6875 15 6.875V11.75C15 12.1719 14.6484 12.5 14.25 12.5H13.5C13.0781 12.5 12.75 12.1719 12.75 11.75V6.5ZM13.5 11.375C13.5 11.5859 13.6641 11.75 13.875 11.75C14.0625 11.75 14.25 11.5859 14.25 11.375C14.25 11.1875 14.0625 11 13.875 11C13.6641 11 13.5 11.1875 13.5 11.375Z" fill="black" fill-opacity="0.72"/>
</g>
<defs>
<clipPath id="clip0_4513_675">
<rect width="15" height="18" fill="white"/>
</clipPath>
</defs>
</svg>
