<svg width="11" height="22" viewBox="0 0 11 22" fill="none" xmlns="http://www.w3.org/2000/svg">
<g id="label-paired / sm / file-check-sm / bold" clip-path="url(#clip0_2556_12244)">
<path id="icon" d="M2 16.4375H9C9.21875 16.4375 9.4375 16.2461 9.4375 16V8.125H7.25C6.75781 8.125 6.375 7.74219 6.375 7.25V5.0625H2C1.75391 5.0625 1.5625 5.28125 1.5625 5.5V16C1.5625 16.2461 1.75391 16.4375 2 16.4375ZM2 3.75H6.51172C6.97656 3.75 7.41406 3.94141 7.74219 4.26953L10.2305 6.75781C10.5586 7.08594 10.75 7.52344 10.75 7.98828V16C10.75 16.9844 9.95703 17.75 9 17.75H2C1.01562 17.75 0.25 16.9844 0.25 16V5.5C0.25 4.54297 1.01562 3.75 2 3.75ZM8.15234 11.0781L5.22656 14.0039C4.98047 14.25 4.54297 14.25 4.29688 14.0039L2.84766 12.5273C2.57422 12.2812 2.57422 11.8711 2.84766 11.5977C3.09375 11.3516 3.50391 11.3516 3.77734 11.5977L4.76172 12.6094L7.22266 10.1484C7.46875 9.90234 7.87891 9.90234 8.15234 10.1484C8.39844 10.3945 8.39844 10.832 8.15234 11.0781Z" fill="black" fill-opacity="0.72"/>
</g>
<defs>
<clipPath id="clip0_2556_12244">
<rect width="11" height="22" fill="white"/>
</clipPath>
</defs>
</svg>
