<svg width="12" height="18" viewBox="0 0 12 18" fill="none" xmlns="http://www.w3.org/2000/svg">
<g id="label-paired / caption / image-caption / regular" clip-path="url(#clip0_2556_10536)">
<path id="icon" d="M1.5 5C1.07812 5 0.75 5.35156 0.75 5.75V11.2344L2.32031 9.64062C2.69531 9.28906 3.28125 9.28906 3.65625 9.64062L5.25 11.2344L8.32031 8.14062C8.69531 7.78906 9.28125 7.78906 9.65625 8.14062L11.25 9.73438V5.75C11.25 5.35156 10.8984 5 10.5 5H1.5ZM0.75 12.2891V13.25C0.75 13.6719 1.07812 14 1.5 14H2.46094L4.71094 11.75L3.11719 10.1797C3.04688 10.1094 2.92969 10.1094 2.85938 10.1797L0.75 12.2891ZM9.11719 8.67969C9.04688 8.60938 8.92969 8.60938 8.85938 8.67969L3.51562 14H10.5C10.8984 14 11.25 13.6719 11.25 13.25V10.7891L9.11719 8.67969ZM0 5.75C0 4.92969 0.65625 4.25 1.5 4.25H10.5C11.3203 4.25 12 4.92969 12 5.75V13.25C12 14.0938 11.3203 14.75 10.5 14.75H1.5C0.65625 14.75 0 14.0938 0 13.25V5.75ZM3.75 6.875C3.75 6.6875 3.5625 6.5 3.375 6.5C3.16406 6.5 3 6.6875 3 6.875C3 7.08594 3.16406 7.25 3.375 7.25C3.5625 7.25 3.75 7.08594 3.75 6.875ZM2.25 6.875C2.25 6.47656 2.46094 6.125 2.8125 5.91406C3.14062 5.70312 3.58594 5.70312 3.9375 5.91406C4.26562 6.125 4.5 6.47656 4.5 6.875C4.5 7.29688 4.26562 7.64844 3.9375 7.85938C3.58594 8.07031 3.14062 8.07031 2.8125 7.85938C2.46094 7.64844 2.25 7.29688 2.25 6.875Z" fill="black" fill-opacity="0.72"/>
</g>
<defs>
<clipPath id="clip0_2556_10536">
<rect width="12" height="18" fill="white"/>
</clipPath>
</defs>
</svg>
