<svg width="9" height="18" viewBox="0 0 9 18" fill="none" xmlns="http://www.w3.org/2000/svg">
<g id="label-paired / caption / moon-caption / bold" clip-path="url(#clip0_2556_10272)">
<path id="icon" d="M3.375 5.82031C2.03906 6.5 1.125 7.90625 1.125 9.5C1.125 11.7969 2.95312 13.625 5.22656 13.625C5.53125 13.625 5.83594 13.6016 6.14062 13.5312C4.07812 12.8281 2.60156 10.8594 2.60156 8.5625C2.60156 7.55469 2.88281 6.61719 3.375 5.82031ZM4.82812 4.27344C4.89844 4.27344 4.94531 4.27344 4.99219 4.27344C5.08594 4.27344 5.15625 4.27344 5.22656 4.27344C5.29688 4.27344 5.36719 4.27344 5.41406 4.27344C5.50781 4.27344 5.57812 4.27344 5.67188 4.27344C5.83594 4.29688 5.97656 4.41406 6 4.57812C6.04688 4.74219 5.97656 4.90625 5.83594 4.97656C5.74219 5.02344 5.67188 5.07031 5.60156 5.11719C5.50781 5.1875 5.41406 5.25781 5.32031 5.32812C5.27344 5.35156 5.25 5.375 5.22656 5.39844C4.3125 6.14844 3.72656 7.29688 3.72656 8.58594C3.72656 10.8594 5.57812 12.6875 7.82812 12.7109C7.85156 12.7109 7.85156 12.7109 7.85156 12.7109C7.875 12.7109 7.89844 12.7109 7.92188 12.7109C8.0625 12.6875 8.17969 12.6875 8.29688 12.6875C8.36719 12.6641 8.46094 12.6641 8.55469 12.6406C8.71875 12.6172 8.88281 12.6875 8.95312 12.8281C9.02344 12.9922 9 13.1562 8.88281 13.2734C8.8125 13.3438 8.76562 13.3906 8.69531 13.4375C8.57812 13.5312 8.48438 13.625 8.36719 13.7188C8.32031 13.7422 8.27344 13.7891 8.22656 13.8125C7.38281 14.3984 6.35156 14.75 5.22656 14.75C2.34375 14.75 0 12.4062 0 9.5C0 6.73438 2.13281 4.48438 4.82812 4.27344Z" fill="black" fill-opacity="0.72"/>
</g>
<defs>
<clipPath id="clip0_2556_10272">
<rect width="9" height="18" fill="white"/>
</clipPath>
</defs>
</svg>
