<svg width="18" height="30" viewBox="0 0 18 30" fill="none" xmlns="http://www.w3.org/2000/svg">
<g id="label-paired / lg / objects-column-lg / fill" clip-path="url(#clip0_3431_930)">
<path id="icon" d="M2.125 6.75H5.875C6.89062 6.75 7.75 7.60938 7.75 8.625V14.875C7.75 15.9297 6.89062 16.75 5.875 16.75H2.125C1.07031 16.75 0.25 15.9297 0.25 14.875V8.625C0.25 7.60938 1.07031 6.75 2.125 6.75ZM12.125 14.25H15.875C16.8906 14.25 17.75 15.1094 17.75 16.125V22.375C17.75 23.4297 16.8906 24.25 15.875 24.25H12.125C11.0703 24.25 10.25 23.4297 10.25 22.375V16.125C10.25 15.1094 11.0703 14.25 12.125 14.25ZM0.25 21.125C0.25 20.1094 1.07031 19.25 2.125 19.25H5.875C6.89062 19.25 7.75 20.1094 7.75 21.125V22.375C7.75 23.4297 6.89062 24.25 5.875 24.25H2.125C1.07031 24.25 0.25 23.4297 0.25 22.375V21.125ZM12.125 6.75H15.875C16.8906 6.75 17.75 7.60938 17.75 8.625V9.875C17.75 10.9297 16.8906 11.75 15.875 11.75H12.125C11.0703 11.75 10.25 10.9297 10.25 9.875V8.625C10.25 7.60938 11.0703 6.75 12.125 6.75Z" fill="black" fill-opacity="0.72"/>
</g>
<defs>
<clipPath id="clip0_3431_930">
<rect width="18" height="30" fill="white"/>
</clipPath>
</defs>
</svg>
