<svg width="18" height="30" viewBox="0 0 18 30" fill="none" xmlns="http://www.w3.org/2000/svg">
<g id="label-paired / lg / calendar-range-lg / fill" clip-path="url(#clip0_2556_17573)">
<path id="icon" d="M4 6.75C4 6.08594 4.54688 5.5 5.25 5.5C5.91406 5.5 6.5 6.08594 6.5 6.75V8H11.5V6.75C11.5 6.08594 12.0469 5.5 12.75 5.5C13.4141 5.5 14 6.08594 14 6.75V8H15.875C16.8906 8 17.75 8.85938 17.75 9.875V11.75H0.25V9.875C0.25 8.85938 1.07031 8 2.125 8H4V6.75ZM17.75 13V23.625C17.75 24.6797 16.8906 25.5 15.875 25.5H2.125C1.07031 25.5 0.25 24.6797 0.25 23.625V13H17.75ZM5.25 16.75C5.25 16.0859 4.66406 15.5 4 15.5C3.29688 15.5 2.75 16.0859 2.75 16.75C2.75 17.4531 3.29688 18 4 18C4.66406 18 5.25 17.4531 5.25 16.75ZM14 23C14.6641 23 15.25 22.4531 15.25 21.75C15.25 21.0859 14.6641 20.5 14 20.5C13.2969 20.5 12.75 21.0859 12.75 21.75C12.75 22.4531 13.2969 23 14 23ZM7.75 16.75C7.75 17.2969 8.14062 17.6875 8.6875 17.6875H14.3125C14.8203 17.6875 15.25 17.2969 15.25 16.75C15.25 16.2422 14.8203 15.8125 14.3125 15.8125H8.6875C8.14062 15.8125 7.75 16.2422 7.75 16.75ZM9.3125 20.8125H3.6875C3.14062 20.8125 2.75 21.2422 2.75 21.75C2.75 22.2969 3.14062 22.6875 3.6875 22.6875H9.3125C9.82031 22.6875 10.25 22.2969 10.25 21.75C10.25 21.2422 9.82031 20.8125 9.3125 20.8125Z" fill="black" fill-opacity="0.72"/>
</g>
<defs>
<clipPath id="clip0_2556_17573">
<rect width="18" height="30" fill="white"/>
</clipPath>
</defs>
</svg>
