<svg width="23" height="30" viewBox="0 0 23 30" fill="none" xmlns="http://www.w3.org/2000/svg">
<g id="label-paired / lg / folder-open-lg / regular" clip-path="url(#clip0_3431_961)">
<path id="icon" d="M17.75 11.75C17.75 11.0859 17.1641 10.5 16.5 10.5H11.8906C10.9141 10.5 9.9375 10.1094 9.23438 9.40625L8.21875 8.39062L9.07812 7.49219L8.21875 8.39062C7.98438 8.15625 7.67188 8 7.32031 8H2.75C2.04688 8 1.5 8.58594 1.5 9.25V20.4609L3.49219 15.4609C3.76562 14.7188 4.46875 14.25 5.25 14.25H20.875C21.4609 14.25 22.0469 14.5625 22.3984 15.1094C22.75 15.6172 22.8281 16.2422 22.5938 16.8281L20.0938 23.0781C19.8203 23.8203 19.1172 24.25 18.375 24.25H15.25H2.75C1.34375 24.25 0.25 23.1562 0.25 21.75V9.25C0.25 7.88281 1.34375 6.75 2.75 6.75H7.32031C7.98438 6.75 8.60938 7.02344 9.07812 7.49219L10.1328 8.54688C10.6016 9.01562 11.2266 9.25 11.8906 9.25H16.5C17.8672 9.25 19 10.3828 19 11.75V13H17.75V11.75ZM15.25 23H18.375C18.6094 23 18.8438 22.8438 18.9219 22.6094L21.4219 16.3594C21.5 16.1641 21.5 15.9688 21.3828 15.7734C21.2656 15.6172 21.0703 15.5 20.875 15.5H5.25C4.97656 15.5 4.74219 15.6562 4.66406 15.9297L2.16406 22.1797C2.08594 22.3359 2.08594 22.5703 2.20312 22.7266C2.32031 22.9219 2.51562 23 2.75 23H15.25Z" fill="black" fill-opacity="0.72"/>
</g>
<defs>
<clipPath id="clip0_3431_961">
<rect width="23" height="30" fill="white"/>
</clipPath>
</defs>
</svg>
