<svg width="14" height="18" viewBox="0 0 14 18" fill="none" xmlns="http://www.w3.org/2000/svg">
<g id="label-paired / caption / video-caption / fill" clip-path="url(#clip0_2556_10357)">
<path id="icon" d="M0.25 6.5C0.25 5.67969 0.90625 5 1.75 5H7.75C8.57031 5 9.25 5.67969 9.25 6.5V12.5C9.25 13.3438 8.57031 14 7.75 14H1.75C0.90625 14 0.25 13.3438 0.25 12.5V6.5ZM13.3516 5.84375C13.5859 5.98438 13.75 6.24219 13.75 6.5V12.5C13.75 12.7812 13.5859 13.0391 13.3516 13.1797C13.0938 13.2969 12.8125 13.2969 12.5781 13.1328L10.3281 11.6328L10 11.4219V11V8V7.60156L10.3281 7.39062L12.5781 5.89062C12.8125 5.72656 13.0938 5.72656 13.3516 5.84375Z" fill="black" fill-opacity="0.72"/>
</g>
<defs>
<clipPath id="clip0_2556_10357">
<rect width="14" height="18" fill="white"/>
</clipPath>
</defs>
</svg>
