<svg width="12" height="18" viewBox="0 0 12 18" fill="none" xmlns="http://www.w3.org/2000/svg">
<g id="label-paired / caption / shield-check-caption / fill" clip-path="url(#clip0_2556_9957)">
<path id="icon" d="M6.30469 3.57031L10.7109 5.44531C11.2266 5.67969 11.625 6.17188 11.625 6.78125C11.6016 9.125 10.6406 13.3672 6.60938 15.3125C6.21094 15.5 5.76562 15.5 5.36719 15.3125C1.33594 13.3672 0.375 9.125 0.375 6.78125C0.351562 6.17188 0.75 5.67969 1.26562 5.44531L5.67188 3.57031C5.76562 3.52344 5.88281 3.5 6 3.5C6.09375 3.5 6.21094 3.52344 6.30469 3.57031ZM7.3125 8.375C7.3125 7.67188 6.70312 7.0625 6 7.0625C5.27344 7.0625 4.6875 7.67188 4.6875 8.375C4.6875 8.91406 4.99219 9.35938 5.4375 9.57031V11.1875C5.4375 11.5156 5.67188 11.75 6 11.75C6.30469 11.75 6.5625 11.5156 6.5625 11.1875V9.57031C6.98438 9.35938 7.3125 8.91406 7.3125 8.375Z" fill="black" fill-opacity="0.72"/>
</g>
<defs>
<clipPath id="clip0_2556_9957">
<rect width="12" height="18" fill="white"/>
</clipPath>
</defs>
</svg>
