<svg width="24" height="36" viewBox="0 0 24 36" fill="none" xmlns="http://www.w3.org/2000/svg">
<g id="label-paired / xl / chart-area-xl / fill" clip-path="url(#clip0_2556_19758)">
<path id="icon" d="M3 9V24.75C3 25.1719 3.32812 25.5 3.75 25.5H22.5C23.2969 25.5 24 26.2031 24 27C24 27.8438 23.2969 28.5 22.5 28.5H3.75C1.64062 28.5 0 26.8594 0 24.75V9C0 8.20312 0.65625 7.5 1.5 7.5C2.29688 7.5 3 8.20312 3 9ZM7.5 22.5V22.5469C6.65625 22.5469 6 21.8438 6 21.0469V17.1094C6 16.7344 6.09375 16.3594 6.32812 16.0781L10.0781 11.8594C10.6875 11.1562 11.7656 11.1562 12.375 11.8594L14.2031 14.0625C14.625 14.5781 15.375 14.625 15.8438 14.1562L16.8281 13.1719C17.4375 12.5625 18.4688 12.5625 19.0312 13.2656L22.125 16.8281C22.3594 17.1094 22.5 17.4844 22.5 17.8125V21C22.5 21.8438 21.7969 22.5 21 22.5H7.5Z" fill="black" fill-opacity="0.72"/>
</g>
<defs>
<clipPath id="clip0_2556_19758">
<rect width="24" height="36" fill="white"/>
</clipPath>
</defs>
</svg>
