<svg width="14" height="22" viewBox="0 0 14 22" fill="none" xmlns="http://www.w3.org/2000/svg">
<g id="label-paired / sm / cash-register-sm / regular" clip-path="url(#clip0_2556_12890)">
<path id="icon" d="M7.4375 4.625H2.1875C1.94141 4.625 1.75 4.84375 1.75 5.0625V5.9375C1.75 6.18359 1.94141 6.375 2.1875 6.375H7.4375C7.65625 6.375 7.875 6.18359 7.875 5.9375V5.0625C7.875 4.84375 7.65625 4.625 7.4375 4.625ZM2.1875 3.75H7.4375C8.14844 3.75 8.75 4.35156 8.75 5.0625V5.9375C8.75 6.67578 8.14844 7.25 7.4375 7.25H5.25V8.125H11.5938C12.4688 8.125 13.207 8.78125 13.3164 9.62891L13.9727 14.1406C13.9727 14.2227 14 14.3047 14 14.3867V16C14 16.9844 13.207 17.75 12.25 17.75H1.75C0.765625 17.75 0 16.9844 0 16V14.3867C0 14.3047 0 14.2227 0 14.1406L0.65625 9.62891C0.765625 8.78125 1.50391 8.125 2.37891 8.125H4.375V7.25H2.1875C1.44922 7.25 0.875 6.67578 0.875 5.9375V5.0625C0.875 4.35156 1.44922 3.75 2.1875 3.75ZM0.875 16C0.875 16.4922 1.25781 16.875 1.75 16.875H12.25C12.7148 16.875 13.125 16.4922 13.125 16V15.125H0.875V16ZM12.4688 9.76562C12.3867 9.32812 12.0312 9 11.5938 9H2.37891C1.94141 9 1.58594 9.32812 1.50391 9.76562L0.875 14.25H13.0977L12.4688 9.76562ZM3.0625 10.0938C3.41797 10.0938 3.71875 10.3945 3.71875 10.75C3.71875 11.1328 3.41797 11.4062 3.0625 11.4062C2.67969 11.4062 2.40625 11.1328 2.40625 10.75C2.40625 10.3945 2.67969 10.0938 3.0625 10.0938ZM5.03125 10.75C5.03125 10.3945 5.30469 10.0938 5.6875 10.0938C6.04297 10.0938 6.34375 10.3945 6.34375 10.75C6.34375 11.1328 6.04297 11.4062 5.6875 11.4062C5.30469 11.4062 5.03125 11.1328 5.03125 10.75ZM4.375 12.2812C4.73047 12.2812 5.03125 12.582 5.03125 12.9375C5.03125 13.3203 4.73047 13.5938 4.375 13.5938C3.99219 13.5938 3.71875 13.3203 3.71875 12.9375C3.71875 12.582 3.99219 12.2812 4.375 12.2812ZM7.65625 10.75C7.65625 10.3945 7.92969 10.0938 8.3125 10.0938C8.66797 10.0938 8.96875 10.3945 8.96875 10.75C8.96875 11.1328 8.66797 11.4062 8.3125 11.4062C7.92969 11.4062 7.65625 11.1328 7.65625 10.75ZM7 12.2812C7.35547 12.2812 7.65625 12.582 7.65625 12.9375C7.65625 13.3203 7.35547 13.5938 7 13.5938C6.61719 13.5938 6.34375 13.3203 6.34375 12.9375C6.34375 12.582 6.61719 12.2812 7 12.2812ZM10.2812 10.75C10.2812 10.3945 10.5547 10.0938 10.9375 10.0938C11.293 10.0938 11.5938 10.3945 11.5938 10.75C11.5938 11.1328 11.293 11.4062 10.9375 11.4062C10.5547 11.4062 10.2812 11.1328 10.2812 10.75ZM9.625 12.2812C9.98047 12.2812 10.2812 12.582 10.2812 12.9375C10.2812 13.3203 9.98047 13.5938 9.625 13.5938C9.24219 13.5938 8.96875 13.3203 8.96875 12.9375C8.96875 12.582 9.24219 12.2812 9.625 12.2812Z" fill="black" fill-opacity="0.72"/>
</g>
<defs>
<clipPath id="clip0_2556_12890">
<rect width="14" height="22" fill="white"/>
</clipPath>
</defs>
</svg>
