<svg width="12" height="18" viewBox="0 0 12 18" fill="none" xmlns="http://www.w3.org/2000/svg">
<g id="label-paired / caption / circle-sort-caption / bold" clip-path="url(#clip0_2556_10211)">
<path id="icon" d="M10.875 9.5C10.875 7.76562 9.9375 6.17188 8.4375 5.28125C6.91406 4.41406 5.0625 4.41406 3.5625 5.28125C2.03906 6.17188 1.125 7.76562 1.125 9.5C1.125 11.2578 2.03906 12.8516 3.5625 13.7422C5.0625 14.6094 6.91406 14.6094 8.4375 13.7422C9.9375 12.8516 10.875 11.2578 10.875 9.5ZM0 9.5C0 7.36719 1.125 5.39844 3 4.32031C4.85156 3.24219 7.125 3.24219 9 4.32031C10.8516 5.39844 12 7.36719 12 9.5C12 11.6562 10.8516 13.625 9 14.7031C7.125 15.7812 4.85156 15.7812 3 14.7031C1.125 13.625 0 11.6562 0 9.5ZM6.25781 5.86719L8.50781 8.11719C8.60156 8.23438 8.64844 8.39844 8.57812 8.53906C8.53125 8.65625 8.39062 8.75 8.25 8.75H3.75C3.58594 8.75 3.44531 8.67969 3.39844 8.53906C3.32812 8.39844 3.375 8.23438 3.46875 8.11719L5.71875 5.86719C5.85938 5.72656 6.11719 5.72656 6.25781 5.86719ZM5.71875 13.1562L3.46875 10.9062C3.375 10.7891 3.32812 10.625 3.39844 10.4844C3.44531 10.3438 3.58594 10.25 3.75 10.25H8.25C8.39062 10.25 8.53125 10.3438 8.57812 10.4844C8.64844 10.625 8.60156 10.7891 8.50781 10.9062L6.25781 13.1562C6.11719 13.2969 5.85938 13.2969 5.71875 13.1562Z" fill="black" fill-opacity="0.72"/>
</g>
<defs>
<clipPath id="clip0_2556_10211">
<rect width="12" height="18" fill="white"/>
</clipPath>
</defs>
</svg>
