<svg width="12" height="24" viewBox="0 0 12 24" fill="none" xmlns="http://www.w3.org/2000/svg">
<g id="label-paired / md / bookmark-md / bold" clip-path="url(#clip0_2556_14968)">
<path id="icon" d="M0 5.5C0 4.6875 0.65625 4 1.5 4V5.5V17.8125L5.5625 14.9062C5.8125 14.7188 6.15625 14.7188 6.4375 14.9062L10.5 17.8125V5.5H1.5V4H10.5C11.3125 4 12 4.6875 12 5.5V19.25C12 19.5312 11.8438 19.8125 11.5938 19.9375C11.3438 20.0625 11.0312 20.0312 10.8125 19.875L6 16.4375L1.15625 19.875C0.9375 20.0312 0.65625 20.0625 0.40625 19.9375C0.15625 19.8125 0 19.5312 0 19.25V5.5Z" fill="black" fill-opacity="0.72"/>
</g>
<defs>
<clipPath id="clip0_2556_14968">
<rect width="12" height="24" fill="white"/>
</clipPath>
</defs>
</svg>
