<svg width="20" height="30" viewBox="0 0 20 30" fill="none" xmlns="http://www.w3.org/2000/svg">
<g id="label-paired / lg / gauge-max-lg / bold" clip-path="url(#clip0_2556_17466)">
<path id="icon" d="M10 23.625C12.8906 23.625 15.5469 22.1016 17.0312 19.5625C18.4766 17.0625 18.4766 13.9766 17.0312 11.4375C15.5469 8.9375 12.8906 7.375 10 7.375C7.07031 7.375 4.41406 8.9375 2.92969 11.4375C1.48438 13.9766 1.48438 17.0625 2.92969 19.5625C4.41406 22.1016 7.07031 23.625 10 23.625ZM10 5.5C13.5547 5.5 16.8359 7.41406 18.6328 10.5C20.4297 13.625 20.4297 17.4141 18.6328 20.5C16.8359 23.625 13.5547 25.5 10 25.5C6.40625 25.5 3.125 23.625 1.32812 20.5C-0.46875 17.4141 -0.46875 13.625 1.32812 10.5C3.125 7.41406 6.40625 5.5 10 5.5ZM11.25 9.875C11.25 10.5781 10.6641 11.125 10 11.125C9.29688 11.125 8.75 10.5781 8.75 9.875C8.75 9.21094 9.29688 8.625 10 8.625C10.6641 8.625 11.25 9.21094 11.25 9.875ZM10 21.4375C8.78906 21.4375 7.8125 20.4609 7.8125 19.25C7.8125 18.0781 8.78906 17.0625 10 17.0625C10.3906 17.0625 10.7422 17.1797 11.0938 17.375L15.3906 14.4453C15.8203 14.1328 16.4062 14.25 16.6797 14.6797C16.9922 15.1094 16.875 15.6953 16.4453 15.9688L12.1484 18.9375C12.1484 19.0547 12.1875 19.1328 12.1875 19.25C12.1875 20.4609 11.1719 21.4375 10 21.4375ZM15 11.75C15 12.4531 14.4141 13 13.75 13C13.0469 13 12.5 12.4531 12.5 11.75C12.5 11.0859 13.0469 10.5 13.75 10.5C14.4141 10.5 15 11.0859 15 11.75ZM4.375 14.25C5.03906 14.25 5.625 14.8359 5.625 15.5C5.625 16.2031 5.03906 16.75 4.375 16.75C3.67188 16.75 3.125 16.2031 3.125 15.5C3.125 14.8359 3.67188 14.25 4.375 14.25ZM7.5 11.75C7.5 12.4531 6.91406 13 6.25 13C5.54688 13 5 12.4531 5 11.75C5 11.0859 5.54688 10.5 6.25 10.5C6.91406 10.5 7.5 11.0859 7.5 11.75Z" fill="black" fill-opacity="0.72"/>
</g>
<defs>
<clipPath id="clip0_2556_17466">
<rect width="20" height="30" fill="white"/>
</clipPath>
</defs>
</svg>
