<svg width="25" height="30" viewBox="0 0 25 30" fill="none" xmlns="http://www.w3.org/2000/svg">
<g id="label-paired / lg / computer-lg / bold" clip-path="url(#clip0_2556_17190)">
<path id="icon" d="M15 8.625H2.5C2.14844 8.625 1.875 8.9375 1.875 9.25V18C1.875 18.3516 2.14844 18.625 2.5 18.625H6.48438H7.1875H10.3125H10.9766H15C15.3125 18.625 15.625 18.3516 15.625 18V9.25C15.625 8.9375 15.3125 8.625 15 8.625ZM2.5 20.5C1.09375 20.5 0 19.4062 0 18V9.25C0 7.88281 1.09375 6.75 2.5 6.75H15C16.3672 6.75 17.5 7.88281 17.5 9.25V18C17.5 19.4062 16.3672 20.5 15 20.5H11.6016L12.2266 22.375H14.0625C14.5703 22.375 15 22.8047 15 23.3125C15 23.8594 14.5703 24.25 14.0625 24.25H12.8516H11.5625H5.9375H4.60938H3.4375C2.89062 24.25 2.5 23.8594 2.5 23.3125C2.5 22.8047 2.89062 22.375 3.4375 22.375H5.23438L5.85938 20.5H2.5ZM7.22656 22.375H10.2344L9.60938 20.5H7.85156L7.22656 22.375ZM20.625 8.625V9.875H23.125V8.625H20.625ZM20.625 11.75V13H23.125V11.75H20.625ZM23.125 14.875H20.625V22.375H23.125V14.875ZM18.75 8.625C18.75 7.60938 19.5703 6.75 20.625 6.75H23.125C24.1406 6.75 25 7.60938 25 8.625V22.375C25 23.4297 24.1406 24.25 23.125 24.25H20.625C19.5703 24.25 18.75 23.4297 18.75 22.375V8.625ZM21.875 19.5625C21.3281 19.5625 20.9375 19.1719 20.9375 18.625C20.9375 18.1172 21.3281 17.6875 21.875 17.6875C22.3828 17.6875 22.8125 18.1172 22.8125 18.625C22.8125 19.1719 22.3828 19.5625 21.875 19.5625Z" fill="black" fill-opacity="0.72"/>
</g>
<defs>
<clipPath id="clip0_2556_17190">
<rect width="25" height="30" fill="white"/>
</clipPath>
</defs>
</svg>
