<svg width="14" height="22" viewBox="0 0 14 22" fill="none" xmlns="http://www.w3.org/2000/svg">
<g id="label-paired / sm / fingerprint-sm / regular" clip-path="url(#clip0_2512_1091)">
<path id="icon" d="M0.875 10.75V12.0625C0.856771 12.3359 0.710938 12.4818 0.4375 12.5C0.164062 12.4818 0.0182292 12.3359 0 12.0625V10.75C0.0182292 9.4375 0.33724 8.26172 0.957031 7.22266C1.57682 6.16536 2.41536 5.32682 3.47266 4.70703C4.51172 4.08724 5.6875 3.76823 7 3.75C8.11198 3.76823 9.13281 4.00521 10.0625 4.46094C10.9922 4.91667 11.7852 5.54557 12.4414 6.34766C12.5872 6.56641 12.569 6.76693 12.3867 6.94922C12.1497 7.11328 11.9401 7.09505 11.7578 6.89453C11.1927 6.20182 10.5 5.65495 9.67969 5.25391C8.85938 4.83464 7.96615 4.625 7 4.625C5.85156 4.64323 4.82161 4.92578 3.91016 5.47266C2.98047 6.0013 2.2513 6.73047 1.72266 7.66016C1.17578 8.57161 0.893229 9.60156 0.875 10.75ZM13.7539 8.89062C13.918 9.47396 14 10.0938 14 10.75V12.0625C13.9818 12.3177 13.8359 12.4635 13.5625 12.5C13.2891 12.4635 13.1432 12.3177 13.125 12.0625V10.75C13.125 10.1849 13.0521 9.63802 12.9062 9.10938C12.8516 8.85417 12.9518 8.68099 13.207 8.58984C13.4805 8.53516 13.6628 8.63542 13.7539 8.89062ZM7 5.9375C8.36719 5.97396 9.4974 6.44792 10.3906 7.35938C11.3021 8.2526 11.776 9.38281 11.8125 10.75V11.4336C11.8125 12.2539 11.7578 13.0651 11.6484 13.8672C11.5938 14.1042 11.457 14.2318 11.2383 14.25C10.9284 14.2135 10.7826 14.0404 10.8008 13.7305C10.8919 12.9648 10.9375 12.1992 10.9375 11.4336V10.75C10.901 9.63802 10.5182 8.70833 9.78906 7.96094C9.04167 7.21354 8.11198 6.83073 7 6.8125C6.50781 6.8125 6.05208 6.89453 5.63281 7.05859C5.41406 7.13151 5.23177 7.08594 5.08594 6.92188C4.90365 6.64844 4.94922 6.42969 5.22266 6.26562C5.78776 6.04688 6.38021 5.9375 7 5.9375ZM3.96484 7.63281C4.11068 7.83333 4.11068 8.04297 3.96484 8.26172C3.38151 8.95443 3.08073 9.78385 3.0625 10.75V11.4336C3.0625 12.2904 2.96224 13.1289 2.76172 13.9492C2.6888 14.1315 2.55208 14.2318 2.35156 14.25C2.02344 14.1953 1.8776 14.0039 1.91406 13.6758C2.09635 12.9466 2.1875 12.1992 2.1875 11.4336V10.75C2.20573 9.52865 2.58854 8.48958 3.33594 7.63281C3.55469 7.43229 3.76432 7.43229 3.96484 7.63281ZM7 8.125C7.7474 8.14323 8.36719 8.39844 8.85938 8.89062C9.35156 9.38281 9.60677 10.0026 9.625 10.75V11.4336C9.625 12.5638 9.50651 13.6849 9.26953 14.7969C9.21484 14.9974 9.07812 15.1068 8.85938 15.125C8.54948 15.0885 8.40365 14.9062 8.42188 14.5781C8.64062 13.5391 8.75 12.4909 8.75 11.4336V10.75C8.73177 10.2578 8.55859 9.84766 8.23047 9.51953C7.90234 9.19141 7.49219 9.01823 7 9C6.50781 9.01823 6.09766 9.19141 5.76953 9.51953C5.44141 9.84766 5.26823 10.2578 5.25 10.75V11.4336C5.25 12.582 5.09505 13.7122 4.78516 14.8242C4.71224 15.0065 4.57552 15.1068 4.375 15.125C4.21094 15.125 4.09245 15.0612 4.01953 14.9336C3.92839 14.8242 3.90104 14.6966 3.9375 14.5508C4.22917 13.5299 4.375 12.4909 4.375 11.4336V10.75C4.39323 10.0026 4.64844 9.38281 5.14062 8.89062C5.63281 8.39844 6.2526 8.14323 7 8.125ZM7.4375 10.75V11.4336C7.4375 13.2201 7.11849 14.9518 6.48047 16.6289L6.31641 17.0391C6.1888 17.276 5.9974 17.3581 5.74219 17.2852C5.50521 17.1576 5.42318 16.9661 5.49609 16.7109L5.66016 16.3008C6.26172 14.7331 6.5625 13.1107 6.5625 11.4336V10.75C6.58073 10.4766 6.72656 10.3307 7 10.3125C7.27344 10.3307 7.41927 10.4766 7.4375 10.75Z" fill="black" fill-opacity="0.72"/>
</g>
<defs>
<clipPath id="clip0_2512_1091">
<rect width="14" height="22" fill="white"/>
</clipPath>
</defs>
</svg>
