<svg width="6" height="18" viewBox="0 0 6 18" fill="none" xmlns="http://www.w3.org/2000/svg">
<g id="label-paired / caption / one-caption / regular" clip-path="url(#clip0_2556_10280)">
<path id="icon" d="M3.375 4.625V14H5.625C5.8125 14 6 14.1875 6 14.375C6 14.5859 5.8125 14.75 5.625 14.75H3H0.375C0.164062 14.75 0 14.5859 0 14.375C0 14.1875 0.164062 14 0.375 14H2.625V5.32812L0.9375 6.45312C0.773438 6.57031 0.539062 6.52344 0.421875 6.33594C0.304688 6.17188 0.351562 5.9375 0.539062 5.82031L2.78906 4.32031C2.90625 4.25 3.04688 4.25 3.16406 4.29688C3.28125 4.36719 3.375 4.50781 3.375 4.625Z" fill="black" fill-opacity="0.72"/>
</g>
<defs>
<clipPath id="clip0_2556_10280">
<rect width="6" height="18" fill="white"/>
</clipPath>
</defs>
</svg>
