<svg width="25" height="30" viewBox="0 0 25 30" fill="none" xmlns="http://www.w3.org/2000/svg">
<g id="label-paired / lg / user-check-lg / fill" clip-path="url(#clip0_3327_713)">
<path id="icon" d="M3.75 10.5C3.75 8.74219 4.6875 7.10156 6.25 6.20312C7.77344 5.30469 9.6875 5.30469 11.25 6.20312C12.7734 7.10156 13.75 8.74219 13.75 10.5C13.75 12.2969 12.7734 13.9375 11.25 14.8359C9.6875 15.7344 7.77344 15.7344 6.25 14.8359C4.6875 13.9375 3.75 12.2969 3.75 10.5ZM0 24.3672C0 20.5 3.08594 17.375 6.95312 17.375H10.5078C14.375 17.375 17.5 20.5 17.5 24.3672C17.5 24.9922 16.9531 25.5 16.3281 25.5H1.13281C0.507812 25.5 0 24.9922 0 24.3672ZM24.4141 12.4141L19.4141 17.4141C19.0234 17.8047 18.4375 17.8047 18.0859 17.4141L15.5859 14.9141C15.1953 14.5625 15.1953 13.9766 15.5859 13.625C15.9375 13.2344 16.5234 13.2344 16.9141 13.625L18.75 15.4609L23.0859 11.0859C23.4375 10.7344 24.0234 10.7344 24.375 11.0859C24.7656 11.4766 24.7656 12.0625 24.375 12.4141H24.4141Z" fill="black" fill-opacity="0.72"/>
</g>
<defs>
<clipPath id="clip0_3327_713">
<rect width="25" height="30" fill="white"/>
</clipPath>
</defs>
</svg>
