<svg width="14" height="22" viewBox="0 0 14 22" fill="none" xmlns="http://www.w3.org/2000/svg">
<g id="label-paired / sm / circle-six-sm / bold" clip-path="url(#clip0_2556_12453)">
<path id="icon" d="M12.6875 10.75C12.6875 8.72656 11.5938 6.86719 9.84375 5.82812C8.06641 4.81641 5.90625 4.81641 4.15625 5.82812C2.37891 6.86719 1.3125 8.72656 1.3125 10.75C1.3125 12.8008 2.37891 14.6602 4.15625 15.6992C5.90625 16.7109 8.06641 16.7109 9.84375 15.6992C11.5938 14.6602 12.6875 12.8008 12.6875 10.75ZM0 10.75C0 8.26172 1.3125 5.96484 3.5 4.70703C5.66016 3.44922 8.3125 3.44922 10.5 4.70703C12.6602 5.96484 14 8.26172 14 10.75C14 13.2656 12.6602 15.5625 10.5 16.8203C8.3125 18.0781 5.66016 18.0781 3.5 16.8203C1.3125 15.5625 0 13.2656 0 10.75ZM7 12.9375C7.46484 12.9375 7.875 12.6914 8.12109 12.2812C8.36719 11.8984 8.36719 11.3789 8.12109 10.9688C7.875 10.5859 7.46484 10.3125 7 10.3125C6.50781 10.3125 6.09766 10.5859 5.85156 10.9688C5.60547 11.3789 5.60547 11.8984 5.85156 12.2812C6.09766 12.6914 6.50781 12.9375 7 12.9375ZM4.375 11.625C4.375 10.75 4.75781 9.90234 5.41406 9.32812L7.65625 7.41406C7.92969 7.19531 8.33984 7.22266 8.58594 7.49609C8.80469 7.76953 8.77734 8.17969 8.50391 8.42578L7.71094 9.10938C8.80469 9.41016 9.625 10.4219 9.625 11.625C9.625 13.0742 8.44922 14.25 7 14.25C5.55078 14.25 4.375 13.0742 4.375 11.625Z" fill="black" fill-opacity="0.72"/>
</g>
<defs>
<clipPath id="clip0_2556_12453">
<rect width="14" height="22" fill="white"/>
</clipPath>
</defs>
</svg>
