<svg width="25" height="30" viewBox="0 0 25 30" fill="none" xmlns="http://www.w3.org/2000/svg">
<g id="label-paired / lg / puzzle-piece-two-lg / fill" clip-path="url(#clip0_3546_867)">
<path id="icon" d="M12.1875 16.3594C12.1875 16.1641 12.1484 16.0078 12.0312 15.8906C11.9922 15.7734 11.875 15.6953 11.7969 15.6172C11.7188 15.5781 11.6797 15.5 11.6406 15.4609C11.5625 15.3828 11.5625 15.3047 11.5625 15.1875C11.5625 15.0703 11.6406 14.9141 11.7969 14.7578C11.9531 14.6406 12.2266 14.5625 12.5 14.5625C12.7734 14.5625 13.0469 14.6406 13.2031 14.7578C13.2812 14.8359 13.3203 14.9141 13.3594 14.9531C13.3984 15.0312 13.4375 15.1094 13.4375 15.1875C13.4375 15.3438 13.3594 15.5 13.2031 15.6172C13.0078 15.7734 12.8125 16.0078 12.8125 16.3594C12.8125 16.5547 12.8906 16.75 13.0078 16.9062C13.1641 17.0625 13.3594 17.1406 13.5938 17.1406H15.2734C15.4297 17.1406 15.5859 17.2969 15.5859 17.4531V18.625C15.5859 19.0547 15.9375 19.4062 16.3672 19.4062C16.6797 19.4062 16.9141 19.2109 17.0312 19.0156C17.1875 18.8203 17.3047 18.7422 17.4609 18.7422C17.6172 18.7422 17.7344 18.8594 17.8906 19.0156C18.0078 19.1719 18.0859 19.4453 18.0859 19.7188C18.0859 20.0312 18.0078 20.3047 17.8906 20.4609C17.7344 20.6562 17.6172 20.6953 17.4609 20.6953C17.3047 20.6953 17.1875 20.6562 17.0312 20.4609C16.9141 20.2656 16.6797 20.0703 16.3672 20.0703C15.9375 20.0703 15.5859 20.4219 15.5859 20.8516V23.2734C15.5859 23.4688 15.4297 23.625 15.2734 23.625H13.5938C13.5156 23.625 13.4375 23.5469 13.4375 23.4688C13.4375 23.4297 13.4766 23.3516 13.5547 23.2734C13.8672 23.0391 14.0625 22.7266 14.0625 22.3359C14.0625 21.9453 13.8672 21.5938 13.5547 21.3984C13.2812 21.1641 12.8906 21.0078 12.5 21.0078C12.1094 21.0078 11.7188 21.1641 11.4453 21.3984C11.1328 21.5938 10.9375 21.9453 10.9375 22.3359C10.9375 22.7266 11.1328 23.0391 11.4453 23.2734C11.5234 23.3516 11.5625 23.4297 11.5625 23.4688C11.5625 23.5469 11.4844 23.625 11.4062 23.625H9.64844C9.49219 23.625 9.33594 23.4688 9.33594 23.2734V17.4531C9.33594 17.2969 9.49219 17.1406 9.64844 17.1406H11.4062C11.8359 17.1406 12.1875 16.7891 12.1875 16.3594ZM11.4453 16.1641C11.2891 16.0469 11.1719 15.9297 11.0938 15.7734C10.9766 15.6172 10.9375 15.4219 10.9375 15.1875C10.9375 14.7969 11.1328 14.4844 11.4453 14.25C11.7188 14.0547 12.1094 13.8984 12.5 13.8984C12.8906 13.8984 13.2812 14.0547 13.5547 14.25C13.7109 14.3672 13.7891 14.4844 13.8672 14.6016C13.9844 14.7969 14.0625 14.9922 14.0625 15.1875C14.0625 15.6172 13.8672 15.9297 13.5547 16.1641C13.4766 16.2422 13.4375 16.3203 13.4375 16.3594C13.4375 16.3984 13.4375 16.4375 13.4766 16.4375C13.5156 16.4766 13.5547 16.4766 13.5938 16.4766H15.2734C15.4688 16.4766 15.5859 16.3594 15.5859 16.1641V10.3438C15.5859 10.1875 15.4688 9.99219 15.2734 9.99219H13.5938C13.1641 9.99219 12.8125 9.67969 12.8125 9.21094C12.8125 8.89844 13.0078 8.66406 13.2031 8.50781C13.3594 8.35156 13.4375 8.23438 13.4375 8.07812C13.4375 7.92188 13.3594 7.76562 13.2031 7.64844C13.0469 7.53125 12.7734 7.41406 12.5 7.41406C12.2266 7.41406 11.9531 7.53125 11.7969 7.64844C11.6406 7.76562 11.5625 7.92188 11.5625 8.07812C11.5625 8.23438 11.6406 8.35156 11.7969 8.50781C11.9922 8.66406 12.1875 8.89844 12.1875 9.21094C12.1875 9.67969 11.8359 9.99219 11.4062 9.99219H9.6875C9.53125 9.99219 9.375 10.1484 9.375 10.3438V11.4766C9.375 11.9453 9.02344 12.2578 8.59375 12.2578C8.28125 12.2578 8.04688 12.1016 7.92969 11.9062C7.77344 11.7109 7.65625 11.6328 7.5 11.6328C7.34375 11.6328 7.22656 11.7109 7.07031 11.9062C6.95312 12.0625 6.875 12.2969 6.875 12.6094C6.875 12.8828 6.95312 13.1562 7.07031 13.3125C7.22656 13.5078 7.34375 13.5859 7.5 13.5859C7.65625 13.5859 7.77344 13.5078 7.92969 13.3125C8.04688 13.1172 8.28125 12.9219 8.59375 12.9219C9.02344 12.9219 9.375 13.2734 9.375 13.7422V16.1641C9.375 16.3594 9.53125 16.4766 9.6875 16.4766H11.4062C11.4844 16.4766 11.5625 16.4375 11.5625 16.3594C11.5625 16.3203 11.5625 16.2812 11.5234 16.2422C11.4844 16.2031 11.4844 16.1641 11.4453 16.125V16.1641Z" fill="black" fill-opacity="0.72"/>
</g>
<defs>
<clipPath id="clip0_3546_867">
<rect width="25" height="30" fill="white"/>
</clipPath>
</defs>
</svg>
