<svg width="14" height="24" viewBox="0 0 14 24" fill="none" xmlns="http://www.w3.org/2000/svg">
<g id="label-paired / md / memo-pad-md / fill" clip-path="url(#clip0_2981_840)">
<path id="icon" d="M0 6C0 4.90625 0.875 4 2 4H12C13.0938 4 14 4.90625 14 6V7H0V6ZM0 8H14V18C14 19.125 13.0938 20 12 20H2C0.875 20 0 19.125 0 18V8ZM3 11C3 11.2812 3.21875 11.5 3.5 11.5H10.5C10.75 11.5 11 11.2812 11 11C11 10.75 10.75 10.5 10.5 10.5H3.5C3.21875 10.5 3 10.75 3 11ZM3 14C3 14.2812 3.21875 14.5 3.5 14.5H10.5C10.75 14.5 11 14.2812 11 14C11 13.75 10.75 13.5 10.5 13.5H3.5C3.21875 13.5 3 13.75 3 14ZM3 17C3 17.2812 3.21875 17.5 3.5 17.5H6.5C6.75 17.5 7 17.2812 7 17C7 16.75 6.75 16.5 6.5 16.5H3.5C3.21875 16.5 3 16.75 3 17Z" fill="black" fill-opacity="0.72"/>
</g>
<defs>
<clipPath id="clip0_2981_840">
<rect width="14" height="24" fill="white"/>
</clipPath>
</defs>
</svg>
