<svg width="30" height="36" viewBox="0 0 30 36" fill="none" xmlns="http://www.w3.org/2000/svg">
<g id="label-paired / xl / hands-holding-diamond-xl / regular" clip-path="url(#clip0_2556_19358)">
<path id="icon" d="M16.0312 6.46875L20.5312 10.9688C21.1406 11.5312 21.1406 12.5156 20.5312 13.0781L16.0312 17.5781C15.4688 18.1875 14.4844 18.1875 13.9219 17.5781L9.42188 13.0781C8.8125 12.5156 8.8125 11.5312 9.42188 10.9688L13.9219 6.46875C14.4844 5.85938 15.4688 5.85938 16.0312 6.46875ZM10.5 12L15 16.5L19.5 12L15 7.5L10.5 12ZM3 9C4.64062 9 6 10.3594 6 12V17.8594C6 18.0469 6 18.2812 6.04688 18.4688C6.14062 18.3281 6.23438 18.1875 6.375 18.0469C7.40625 17.0156 9.04688 17.0156 10.0781 18.0469L14.3438 22.3125C14.5781 22.5938 14.8125 22.8281 15 23.1094C15.1406 22.8281 15.375 22.5938 15.6094 22.3125L19.875 18.0469C20.9062 17.0156 22.5469 17.0156 23.5781 18.0469C23.7188 18.1875 23.8125 18.3281 23.9062 18.4688C23.9531 18.2812 24 18.0469 24 17.8594V12C24 10.3594 25.3125 9 27 9C28.6406 9 30 10.3594 30 12V22.1719C30 23.5312 29.4375 24.8906 28.4531 25.875L24.5156 29.8125C24.2344 30.0938 23.7188 30.0938 23.4375 29.8125C23.1562 29.5312 23.1562 29.0156 23.4375 28.7344L27.375 24.7969C28.0781 24.0938 28.5 23.1562 28.5 22.1719V12C28.5 11.2031 27.7969 10.5 27 10.5C26.1562 10.5 25.5 11.2031 25.5 12V17.8594C25.5 19.125 24.9844 20.3438 24.0938 21.2344L23.5781 21.75L21.5156 23.8125L20.7656 24.5625C20.4844 24.8438 19.9688 24.8438 19.6875 24.5625C19.4062 24.2812 19.4062 23.7656 19.6875 23.4844L20.4375 22.7344L22.5 20.6719C22.9219 20.25 22.9219 19.5469 22.5 19.125C22.0781 18.7031 21.375 18.7031 20.9531 19.125L16.6875 23.3906C16.0781 24 15.75 24.7969 15.75 25.6406V29.25C15.75 29.6719 15.375 30 15 30C14.5781 30 14.25 29.6719 14.25 29.25V25.6406C14.25 24.7969 13.875 24 13.3125 23.3906L9 19.125C8.57812 18.7031 7.875 18.7031 7.45312 19.125C7.03125 19.5469 7.03125 20.25 7.45312 20.6719L9.51562 22.7344L10.2656 23.4844C10.5469 23.7656 10.5469 24.2812 10.2656 24.5625C9.98438 24.8438 9.46875 24.8438 9.1875 24.5625L8.4375 23.8125L6.375 21.75L5.90625 21.2344C4.96875 20.3438 4.5 19.125 4.5 17.8594V12C4.5 11.2031 3.79688 10.5 3 10.5C2.15625 10.5 1.5 11.2031 1.5 12V22.1719C1.5 23.1562 1.875 24.0938 2.57812 24.7969L6.51562 28.7344C6.79688 29.0156 6.79688 29.5312 6.51562 29.8125C6.23438 30.0938 5.71875 30.0938 5.4375 29.8125L1.5 25.875C0.515625 24.8906 0 23.5312 0 22.1719V12C0 10.3594 1.3125 9 3 9Z" fill="black" fill-opacity="0.72"/>
</g>
<defs>
<clipPath id="clip0_2556_19358">
<rect width="30" height="36" fill="white"/>
</clipPath>
</defs>
</svg>
