<svg width="30" height="36" viewBox="0 0 30 36" fill="none" xmlns="http://www.w3.org/2000/svg">
<g id="label-paired / xl / chart-trend-down-xl / fill" clip-path="url(#clip0_2556_19568)">
<path id="icon" d="M9.79688 6.1875C10.5469 5.8125 11.4375 6.09375 11.8125 6.84375L17.3906 18H24C24.5625 18 25.0781 18.3281 25.3125 18.8438L29.8125 27.8438C30.1875 28.5938 29.9062 29.4844 29.1562 29.8594C28.4062 30.2344 27.5156 29.9531 27.1406 29.2031L23.0625 21H16.5C15.8906 21 15.375 20.7188 15.1406 20.2031L9.79688 9.51562L2.15625 13.3594C1.40625 13.7344 0.515625 13.4531 0.140625 12.7031C-0.234375 11.9531 0.046875 11.0625 0.796875 10.6875L9.79688 6.1875Z" fill="black" fill-opacity="0.72"/>
</g>
<defs>
<clipPath id="clip0_2556_19568">
<rect width="30" height="36" fill="white"/>
</clipPath>
</defs>
</svg>
