<svg width="21" height="36" viewBox="0 0 21 36" fill="none" xmlns="http://www.w3.org/2000/svg">
<g id="label-paired / xl / square-check-xl / regular" clip-path="url(#clip0_2556_19714)">
<path id="icon" d="M3 9C2.15625 9 1.5 9.70312 1.5 10.5V25.5C1.5 26.3438 2.15625 27 3 27H18C18.7969 27 19.5 26.3438 19.5 25.5V10.5C19.5 9.70312 18.7969 9 18 9H3ZM0 10.5C0 8.85938 1.3125 7.5 3 7.5H18C19.6406 7.5 21 8.85938 21 10.5V25.5C21 27.1875 19.6406 28.5 18 28.5H3C1.3125 28.5 0 27.1875 0 25.5V10.5ZM15.5156 15.5625L9.51562 21.5625C9.23438 21.8438 8.71875 21.8438 8.4375 21.5625L5.4375 18.5625C5.15625 18.2812 5.15625 17.7656 5.4375 17.4844C5.71875 17.2031 6.23438 17.2031 6.51562 17.4844L9 19.9688L14.4375 14.4844C14.7188 14.2031 15.2344 14.2031 15.5156 14.4844C15.7969 14.7656 15.7969 15.2812 15.5156 15.5625Z" fill="black" fill-opacity="0.72"/>
</g>
<defs>
<clipPath id="clip0_2556_19714">
<rect width="21" height="36" fill="white"/>
</clipPath>
</defs>
</svg>
