<svg width="12" height="24" viewBox="0 0 12 24" fill="none" xmlns="http://www.w3.org/2000/svg">
<g id="label-paired / md / lightbulb-md / bold" clip-path="url(#clip0_2556_15020)">
<path id="icon" d="M9.28125 11.7812C9.71875 11.1562 10 10.375 10 9.5C10 7.3125 8.1875 5.5 6 5.5C3.78125 5.5 2 7.3125 2 9.5C2 10.375 2.25 11.1562 2.6875 11.7812C2.8125 11.9688 2.9375 12.1562 3.09375 12.3438C3.5 12.9062 3.96875 13.5625 4.34375 14.2188C4.65625 14.8125 4.84375 15.4375 4.90625 16H3.40625C3.3125 15.625 3.21875 15.2812 3.03125 14.9375C2.71875 14.375 2.34375 13.8438 1.9375 13.3125C1.78125 13.0938 1.625 12.875 1.46875 12.6562C0.84375 11.75 0.5 10.6875 0.5 9.5C0.5 6.46875 2.9375 4 6 4C9.03125 4 11.5 6.46875 11.5 9.5C11.5 10.6875 11.125 11.75 10.5 12.6562C10.3438 12.875 10.1875 13.0938 10.0312 13.3125C9.625 13.8438 9.25 14.375 8.9375 14.9375C8.75 15.2812 8.65625 15.625 8.5625 16H7.0625C7.15625 15.4375 7.3125 14.8125 7.625 14.2188C8 13.5625 8.46875 12.9062 8.875 12.3438C9.03125 12.1562 9.15625 11.9688 9.28125 11.7812ZM6 8C5.15625 8 4.5 8.6875 4.5 9.5C4.5 9.78125 4.25 10 4 10C3.71875 10 3.5 9.78125 3.5 9.5C3.5 8.125 4.59375 7 6 7C6.25 7 6.5 7.25 6.5 7.5C6.5 7.78125 6.25 8 6 8ZM6 20C4.59375 20 3.5 18.9062 3.5 17.5V17H8.5V17.5C8.5 18.9062 7.375 20 6 20Z" fill="black" fill-opacity="0.72"/>
</g>
<defs>
<clipPath id="clip0_2556_15020">
<rect width="12" height="24" fill="white"/>
</clipPath>
</defs>
</svg>
