<svg width="20" height="30" viewBox="0 0 20 30" fill="none" xmlns="http://www.w3.org/2000/svg">
<g id="label-paired / lg / circle-one-lg / bold" clip-path="url(#clip0_2556_17313)">
<path id="icon" d="M18.125 15.5C18.125 12.6094 16.5625 9.95312 14.0625 8.46875C11.5234 7.02344 8.4375 7.02344 5.9375 8.46875C3.39844 9.95312 1.875 12.6094 1.875 15.5C1.875 18.4297 3.39844 21.0859 5.9375 22.5703C8.4375 24.0156 11.5234 24.0156 14.0625 22.5703C16.5625 21.0859 18.125 18.4297 18.125 15.5ZM0 15.5C0 11.9453 1.875 8.66406 5 6.86719C8.08594 5.07031 11.875 5.07031 15 6.86719C18.0859 8.66406 20 11.9453 20 15.5C20 19.0938 18.0859 22.375 15 24.1719C11.875 25.9688 8.08594 25.9688 5 24.1719C1.875 22.375 0 19.0938 0 15.5ZM10.4688 10.6562C10.7422 10.8125 10.9375 11.125 10.9375 11.4375V18.625H12.5C13.0078 18.625 13.4375 19.0547 13.4375 19.5625C13.4375 20.1094 13.0078 20.5 12.5 20.5H10H7.5C6.95312 20.5 6.5625 20.1094 6.5625 19.5625C6.5625 19.0547 6.95312 18.625 7.5 18.625H9.0625V13.0781L8.24219 13.5078C7.8125 13.7812 7.22656 13.625 6.99219 13.1562C6.71875 12.7266 6.875 12.1406 7.34375 11.9062L9.53125 10.6562C9.80469 10.5 10.1562 10.5 10.4688 10.6562Z" fill="black" fill-opacity="0.72"/>
</g>
<defs>
<clipPath id="clip0_2556_17313">
<rect width="20" height="30" fill="white"/>
</clipPath>
</defs>
</svg>
