<svg width="24" height="36" viewBox="0 0 24 36" fill="none" xmlns="http://www.w3.org/2000/svg">
<g id="label-paired / xl / circle-xmark-xl / bold" clip-path="url(#clip0_2556_19716)">
<path id="icon" d="M12 8.25C8.48438 8.25 5.29688 10.125 3.51562 13.125C1.78125 16.1719 1.78125 19.875 3.51562 22.875C5.29688 25.9219 8.48438 27.75 12 27.75C15.4688 27.75 18.6562 25.9219 20.4375 22.875C22.1719 19.875 22.1719 16.1719 20.4375 13.125C18.6562 10.125 15.4688 8.25 12 8.25ZM12 30C7.6875 30 3.75 27.75 1.59375 24C-0.5625 20.2969 -0.5625 15.75 1.59375 12C3.75 8.29688 7.6875 6 12 6C16.2656 6 20.2031 8.29688 22.3594 12C24.5156 15.75 24.5156 20.2969 22.3594 24C20.2031 27.75 16.2656 30 12 30ZM8.20312 14.2031C8.625 13.7812 9.32812 13.7812 9.75 14.2031L11.9531 16.4062L14.1562 14.2031C14.625 13.7812 15.3281 13.7812 15.75 14.2031C16.2188 14.6719 16.2188 15.375 15.75 15.7969L13.5469 18L15.75 20.2031C16.2188 20.6719 16.2188 21.375 15.75 21.7969C15.3281 22.2656 14.625 22.2656 14.1562 21.7969L11.9531 19.5938L9.75 21.7969C9.32812 22.2656 8.625 22.2656 8.20312 21.7969C7.73438 21.375 7.73438 20.6719 8.20312 20.2031L10.4062 18L8.20312 15.7969C7.73438 15.375 7.73438 14.6719 8.20312 14.2031Z" fill="black" fill-opacity="0.72"/>
</g>
<defs>
<clipPath id="clip0_2556_19716">
<rect width="24" height="36" fill="white"/>
</clipPath>
</defs>
</svg>
