<svg width="27" height="36" viewBox="0 0 27 36" fill="none" xmlns="http://www.w3.org/2000/svg">
<g id="label-paired / xl / memo-circle-check-xl / bold" clip-path="url(#clip0_2556_19332)">
<path id="icon" d="M3 8.25C2.57812 8.25 2.25 8.625 2.25 9V27C2.25 27.4219 2.57812 27.75 3 27.75H13.3125C13.875 28.6406 14.5781 29.3906 15.4219 30C15.2812 30 15.1406 30 15 30H3C1.3125 30 0 28.6875 0 27V9C0 7.35938 1.3125 6 3 6H15C16.6406 6 18 7.35938 18 9V15.3281C17.1562 15.5625 16.4062 15.8906 15.75 16.3594V9C15.75 8.625 15.375 8.25 15 8.25H3ZM5.625 12H12.375C12.9844 12 13.5 12.5156 13.5 13.125C13.5 13.7812 12.9844 14.25 12.375 14.25H5.625C4.96875 14.25 4.5 13.7812 4.5 13.125C4.5 12.5156 4.96875 12 5.625 12ZM5.625 16.5H12.375C12.9844 16.5 13.5 17.0156 13.5 17.625C13.5 18.2812 12.9844 18.75 12.375 18.75H5.625C4.96875 18.75 4.5 18.2812 4.5 17.625C4.5 17.0156 4.96875 16.5 5.625 16.5ZM5.625 21H7.875C8.48438 21 9 21.5156 9 22.125C9 22.7812 8.48438 23.25 7.875 23.25H5.625C4.96875 23.25 4.5 22.7812 4.5 22.125C4.5 21.5156 4.96875 21 5.625 21ZM27 23.25C27 25.6875 25.6875 27.8906 23.625 29.1094C21.5156 30.3281 18.9375 30.3281 16.875 29.1094C14.7656 27.8906 13.5 25.6875 13.5 23.25C13.5 20.8594 14.7656 18.6562 16.875 17.4375C18.9375 16.2188 21.5156 16.2188 23.625 17.4375C25.6875 18.6562 27 20.8594 27 23.25ZM23.3906 21.2344C23.1094 20.9531 22.5938 20.9531 22.3125 21.2344L19.5 24.0938L18.1406 22.7344C17.8594 22.4531 17.3438 22.4531 17.0625 22.7344C16.7812 23.0156 16.7812 23.5312 17.0625 23.8125L18.9375 25.6875C19.2188 25.9688 19.7344 25.9688 20.0156 25.6875L23.3906 22.3125C23.6719 22.0312 23.6719 21.5156 23.3906 21.2344Z" fill="black" fill-opacity="0.72"/>
</g>
<defs>
<clipPath id="clip0_2556_19332">
<rect width="27" height="36" fill="white"/>
</clipPath>
</defs>
</svg>
