<svg width="15" height="30" viewBox="0 0 15 30" fill="none" xmlns="http://www.w3.org/2000/svg">
<g id="label-paired / lg / lightbulb-lg / fill" clip-path="url(#clip0_2556_16945)">
<path id="icon" d="M10.625 20.5H4.375C3.98438 19.2891 3.20312 18.1953 2.42188 17.1406C2.22656 16.8672 2.03125 16.5938 1.83594 16.3203C1.05469 15.1875 0.625 13.8594 0.625 12.375C0.625 8.58594 3.67188 5.5 7.5 5.5C11.2891 5.5 14.375 8.58594 14.375 12.4141C14.375 13.8594 13.9062 15.1875 13.125 16.3203C12.9297 16.5938 12.7344 16.8672 12.5391 17.1406C11.7578 18.1953 10.9766 19.2891 10.625 20.5ZM7.5 25.5C5.74219 25.5 4.375 24.1328 4.375 22.375V21.75H10.625V22.375C10.625 24.1328 9.21875 25.5 7.5 25.5ZM4.375 12.375C4.375 10.6562 5.74219 9.25 7.5 9.25C7.8125 9.25 8.125 8.97656 8.125 8.625C8.125 8.3125 7.8125 8 7.5 8C5.07812 8 3.125 9.99219 3.125 12.375C3.125 12.7266 3.39844 13 3.75 13C4.0625 13 4.375 12.7266 4.375 12.375Z" fill="black" fill-opacity="0.72"/>
</g>
<defs>
<clipPath id="clip0_2556_16945">
<rect width="15" height="30" fill="white"/>
</clipPath>
</defs>
</svg>
