<svg width="21" height="36" viewBox="0 0 21 36" fill="none" xmlns="http://www.w3.org/2000/svg">
<g id="label-paired / xl / copy-xl / bold" clip-path="url(#clip0_2556_19863)">
<path id="icon" d="M18 21.75C18.375 21.75 18.75 21.4219 18.75 21V11.4375L15.5625 8.25H9C8.57812 8.25 8.25 8.625 8.25 9V21C8.25 21.4219 8.57812 21.75 9 21.75H18ZM9 24C7.3125 24 6 22.6875 6 21V9C6 7.35938 7.3125 6 9 6H15.5625C16.125 6 16.7344 6.28125 17.1562 6.70312L20.2969 9.84375C20.7188 10.2656 21 10.875 21 11.4375V21C21 22.6875 19.6406 24 18 24H9ZM3 12H4.5V14.25H3C2.57812 14.25 2.25 14.625 2.25 15V27C2.25 27.4219 2.57812 27.75 3 27.75H12C12.375 27.75 12.75 27.4219 12.75 27V25.5H15V27C15 28.6875 13.6406 30 12 30H3C1.3125 30 0 28.6875 0 27V15C0 13.3594 1.3125 12 3 12Z" fill="black" fill-opacity="0.72"/>
</g>
<defs>
<clipPath id="clip0_2556_19863">
<rect width="21" height="36" fill="white"/>
</clipPath>
</defs>
</svg>
