<svg width="20" height="24" viewBox="0 0 20 24" fill="none" xmlns="http://www.w3.org/2000/svg">
<g id="label-paired / md / link-md / bold" clip-path="url(#clip0_4460_535)">
<path id="icon" d="M18.125 12.375L14.5938 15.9062C12.8125 17.6562 9.96875 17.6562 8.21875 15.9062C6.5625 14.2188 6.46875 11.5625 8 9.78125L8.15625 9.59375C8.4375 9.28125 8.90625 9.25 9.21875 9.53125C9.53125 9.8125 9.5625 10.2812 9.28125 10.5938L9.15625 10.75C8.09375 11.9375 8.15625 13.7188 9.28125 14.8438C10.4375 16 12.3438 16 13.5312 14.8438L17.0625 11.3125C18.2188 10.125 18.2188 8.25 17.0625 7.0625C15.9375 5.96875 14.1562 5.90625 12.9688 6.9375L12.7812 7.09375C12.4688 7.375 12 7.34375 11.7188 7.03125C11.4375 6.71875 11.4688 6.25 11.7812 5.96875L11.9688 5.8125C13.75 4.25 16.4375 4.34375 18.125 6C19.875 7.75 19.875 10.5938 18.125 12.375ZM1.84375 11.6562L5.40625 8.125C7.15625 6.375 10 6.375 11.75 8.125C13.4375 9.78125 13.5312 12.4688 11.9688 14.25L11.7812 14.4375C11.5312 14.75 11.0312 14.8125 10.7188 14.5312C10.4062 14.25 10.375 13.7812 10.6562 13.4688L10.8438 13.2812C11.875 12.0938 11.8125 10.3125 10.6875 9.1875C9.53125 8 7.625 8 6.46875 9.1875L2.90625 12.7188C1.75 13.875 1.75 15.7812 2.90625 16.9688C4.03125 18.0625 5.8125 18.125 7 17.0938L7.1875 16.9375C7.5 16.6562 7.96875 16.6875 8.25 17C8.53125 17.3125 8.5 17.7812 8.1875 18.0625L8 18.2188C6.21875 19.7812 3.53125 19.6875 1.84375 18.0312C0.09375 16.2812 0.09375 13.4062 1.84375 11.6562Z" fill="black" fill-opacity="0.72"/>
</g>
<defs>
<clipPath id="clip0_4460_535">
<rect width="20" height="24" fill="white"/>
</clipPath>
</defs>
</svg>
