<svg width="12" height="18" viewBox="0 0 12 18" fill="none" xmlns="http://www.w3.org/2000/svg">
<g id="label-paired / caption / circle-arrow-down-right-caption / bold" clip-path="url(#clip0_2556_10292)">
<path id="icon" d="M6 14.375C7.73438 14.375 9.32812 13.4609 10.2188 11.9375C11.0859 10.4375 11.0859 8.58594 10.2188 7.0625C9.32812 5.5625 7.73438 4.625 6 4.625C4.24219 4.625 2.64844 5.5625 1.75781 7.0625C0.890625 8.58594 0.890625 10.4375 1.75781 11.9375C2.64844 13.4609 4.24219 14.375 6 14.375ZM6 3.5C8.13281 3.5 10.1016 4.64844 11.1797 6.5C12.2578 8.375 12.2578 10.6484 11.1797 12.5C10.1016 14.375 8.13281 15.5 6 15.5C3.84375 15.5 1.875 14.375 0.796875 12.5C-0.28125 10.6484 -0.28125 8.375 0.796875 6.5C1.875 4.64844 3.84375 3.5 6 3.5ZM4.5 12.125C4.17188 12.125 3.9375 11.8906 3.9375 11.5625C3.9375 11.2578 4.17188 11 4.5 11H6.70312L3.53906 7.83594C3.30469 7.625 3.30469 7.27344 3.53906 7.03906C3.75 6.82812 4.10156 6.82812 4.33594 7.03906L7.5 10.2266V7.8125C7.5 7.50781 7.73438 7.25 8.0625 7.25C8.36719 7.25 8.625 7.50781 8.625 7.8125V11.5625C8.625 11.8906 8.36719 12.125 8.0625 12.125H4.5Z" fill="black" fill-opacity="0.72"/>
</g>
<defs>
<clipPath id="clip0_2556_10292">
<rect width="12" height="18" fill="white"/>
</clipPath>
</defs>
</svg>
