<svg width="14" height="22" viewBox="0 0 14 22" fill="none" xmlns="http://www.w3.org/2000/svg">
<g id="label-paired / sm / circle-arrow-up-sm / bold" clip-path="url(#clip0_2556_12613)">
<path id="icon" d="M7 5.0625C4.94922 5.0625 3.08984 6.15625 2.05078 7.90625C1.03906 9.68359 1.03906 11.8438 2.05078 13.5938C3.08984 15.3711 4.94922 16.4375 7 16.4375C9.02344 16.4375 10.8828 15.3711 11.9219 13.5938C12.9336 11.8438 12.9336 9.68359 11.9219 7.90625C10.8828 6.15625 9.02344 5.0625 7 5.0625ZM7 17.75C4.48438 17.75 2.1875 16.4375 0.929688 14.25C-0.328125 12.0898 -0.328125 9.4375 0.929688 7.25C2.1875 5.08984 4.48438 3.75 7 3.75C9.48828 3.75 11.7852 5.08984 13.043 7.25C14.3008 9.4375 14.3008 12.0898 13.043 14.25C11.7852 16.4375 9.48828 17.75 7 17.75ZM9.87109 9.84766H9.84375C10.1172 10.1211 10.1172 10.5312 9.84375 10.7773C9.59766 11.0508 9.1875 11.0508 8.94141 10.7773L7.65625 9.49219V13.5938C7.65625 13.9766 7.35547 14.25 7 14.25C6.61719 14.25 6.34375 13.9766 6.34375 13.5938V9.49219L5.05859 10.7773C4.78516 11.0508 4.375 11.0508 4.12891 10.7773C3.85547 10.5312 3.85547 10.1211 4.12891 9.84766L6.53516 7.44141C6.78125 7.19531 7.19141 7.19531 7.46484 7.44141L9.87109 9.84766Z" fill="black" fill-opacity="0.72"/>
</g>
<defs>
<clipPath id="clip0_2556_12613">
<rect width="14" height="22" fill="white"/>
</clipPath>
</defs>
</svg>
