<svg width="27" height="36" viewBox="0 0 27 36" fill="none" xmlns="http://www.w3.org/2000/svg">
<g id="label-paired / xl / map-xl / bold" clip-path="url(#clip0_3431_1075)">
<path id="icon" d="M26.4844 7.73438C26.8125 7.92188 27 8.29688 27 8.625V24.375C27 24.8438 26.6719 25.2656 26.25 25.4531L18.375 28.4531C18.1406 28.5469 17.8594 28.5469 17.625 28.4531L9 25.5938L1.5 28.4531C1.17188 28.5938 0.75 28.5469 0.46875 28.3125C0.140625 28.125 0 27.75 0 27.375V11.625C0 11.1562 0.28125 10.7812 0.703125 10.5938L8.57812 7.59375C8.8125 7.5 9.09375 7.5 9.32812 7.59375L17.9531 10.4531L25.4531 7.59375C25.7812 7.45312 26.2031 7.5 26.4844 7.73438ZM2.25 12.4219V25.7812L7.875 23.625V10.2656L2.25 12.4219ZM16.875 25.8281V12.4688L10.125 10.2188V23.5781L16.875 25.8281ZM19.125 25.7812L24.75 23.625V10.2656L19.125 12.4219V25.7812Z" fill="black" fill-opacity="0.72"/>
</g>
<defs>
<clipPath id="clip0_3431_1075">
<rect width="27" height="36" fill="white"/>
</clipPath>
</defs>
</svg>
