<svg width="14" height="22" viewBox="0 0 14 22" fill="none" xmlns="http://www.w3.org/2000/svg">
<g id="label-paired / sm / globe-sm / fill" clip-path="url(#clip0_2556_12846)">
<path id="icon" d="M9.625 10.75C9.625 11.3789 9.57031 11.9531 9.51562 12.5H4.45703C4.40234 11.9531 4.375 11.3789 4.375 10.75C4.375 10.1484 4.40234 9.57422 4.45703 9H9.51562C9.57031 9.57422 9.625 10.1484 9.625 10.75ZM10.3906 9H13.7539C13.918 9.57422 14 10.1484 14 10.75C14 11.3789 13.918 11.9531 13.7539 12.5H10.3906C10.4453 11.9531 10.5 11.3516 10.5 10.75C10.5 10.1484 10.4453 9.57422 10.3906 9ZM13.4805 8.125H10.2812C10.0078 6.40234 9.46094 4.92578 8.77734 3.99609C10.9102 4.57031 12.6602 6.10156 13.4805 8.125ZM9.40625 8.125H4.56641C4.73047 7.14062 5.00391 6.26562 5.30469 5.55469C5.60547 4.89844 5.90625 4.43359 6.23438 4.13281C6.53516 3.85938 6.78125 3.75 7 3.75C7.19141 3.75 7.4375 3.85938 7.73828 4.13281C8.06641 4.43359 8.36719 4.89844 8.66797 5.55469C8.96875 6.26562 9.24219 7.14062 9.40625 8.125ZM3.69141 8.125H0.492188C1.3125 6.10156 3.0625 4.57031 5.19531 3.99609C4.51172 4.92578 3.96484 6.40234 3.69141 8.125ZM0.21875 9H3.58203C3.52734 9.57422 3.5 10.1484 3.5 10.75C3.5 11.3516 3.52734 11.9531 3.58203 12.5H0.21875C0.0546875 11.9531 0 11.3789 0 10.75C0 10.1484 0.0546875 9.57422 0.21875 9ZM5.30469 15.9727C5.00391 15.2617 4.73047 14.3867 4.56641 13.375H9.40625C9.24219 14.3867 8.96875 15.2617 8.66797 15.9727C8.36719 16.6289 8.06641 17.0938 7.73828 17.3945C7.4375 17.668 7.19141 17.75 7 17.75C6.78125 17.75 6.53516 17.668 6.23438 17.3945C5.90625 17.0938 5.60547 16.6289 5.30469 15.9727ZM3.69141 13.375C3.96484 15.125 4.51172 16.6016 5.19531 17.5312C3.0625 16.957 1.3125 15.4258 0.492188 13.375H3.69141ZM13.4805 13.375C12.6602 15.4258 10.9102 16.957 8.77734 17.5312C9.48828 16.6016 10.0078 15.125 10.2812 13.375H13.4805Z" fill="black" fill-opacity="0.72"/>
</g>
<defs>
<clipPath id="clip0_2556_12846">
<rect width="14" height="22" fill="white"/>
</clipPath>
</defs>
</svg>
