<svg width="16" height="24" viewBox="0 0 16 24" fill="none" xmlns="http://www.w3.org/2000/svg">
<g id="label-paired / md / circle-arrow-up-right-md / fill" clip-path="url(#clip0_2556_15297)">
<path id="icon" d="M0 12C0 9.15625 1.5 6.53125 4 5.09375C6.46875 3.65625 9.5 3.65625 12 5.09375C14.4688 6.53125 16 9.15625 16 12C16 14.875 14.4688 17.5 12 18.9375C9.5 20.375 6.46875 20.375 4 18.9375C1.5 17.5 0 14.875 0 12ZM11.5 14V9.25C11.5 8.84375 11.1562 8.5 10.75 8.5H5.75C5.3125 8.5 5 8.84375 5 9.25C5 9.6875 5.3125 10 5.75 10L8.9375 10.0312L4.71875 14.25C4.40625 14.5312 4.40625 15 4.71875 15.2812C5 15.5938 5.46875 15.5938 5.78125 15.2812L10 11.0625V14C10 14.4375 10.3125 14.75 10.75 14.75C11.1562 14.75 11.5 14.4375 11.5 14Z" fill="black" fill-opacity="0.72"/>
</g>
<defs>
<clipPath id="clip0_2556_15297">
<rect width="16" height="24" fill="white"/>
</clipPath>
</defs>
</svg>
