<svg width="12" height="24" viewBox="0 0 12 24" fill="none" xmlns="http://www.w3.org/2000/svg">
<g id="label-paired / md / file-excel-md / bold" clip-path="url(#clip0_2365_852)">
<path id="icon" d="M1.5 18C1.52083 18.3125 1.6875 18.4792 2 18.5H10C10.3125 18.4792 10.4792 18.3125 10.5 18V9H8C7.70833 9 7.46875 8.90625 7.28125 8.71875C7.09375 8.53125 7 8.29167 7 8V5.5H2C1.6875 5.52083 1.52083 5.6875 1.5 6V18ZM2 4H7.1875C7.72917 4 8.19792 4.19792 8.59375 4.59375L11.4062 7.40625C11.8021 7.80208 12 8.28125 12 8.84375V18C11.9792 18.5625 11.7812 19.0312 11.4062 19.4062C11.0312 19.7812 10.5625 19.9792 10 20H2C1.4375 19.9792 0.96875 19.7812 0.59375 19.4062C0.21875 19.0312 0.0208333 18.5625 0 18V6C0.0208333 5.4375 0.21875 4.96875 0.59375 4.59375C0.96875 4.21875 1.4375 4.02083 2 4ZM4.84375 11.2812L6 12.7812L7.15625 11.2812C7.46875 10.9479 7.82292 10.9062 8.21875 11.1562C8.55208 11.4688 8.59375 11.8229 8.34375 12.2188L6.9375 14L8.34375 15.7812C8.59375 16.1771 8.55208 16.5312 8.21875 16.8438C7.82292 17.0938 7.46875 17.0521 7.15625 16.7188L6 15.2188L4.84375 16.7188C4.53125 17.0521 4.17708 17.0938 3.78125 16.8438C3.44792 16.5312 3.40625 16.1771 3.65625 15.7812L5.0625 14L3.65625 12.2188C3.40625 11.8229 3.44792 11.4688 3.78125 11.1562C4.17708 10.9062 4.53125 10.9479 4.84375 11.2812Z" fill="black" fill-opacity="0.72"/>
</g>
<defs>
<clipPath id="clip0_2365_852">
<rect width="12" height="24" fill="white"/>
</clipPath>
</defs>
</svg>
