<svg width="30" height="36" viewBox="0 0 30 36" fill="none" xmlns="http://www.w3.org/2000/svg">
<g id="label-paired / xl / chart-tradingview-xl / bold" clip-path="url(#clip0_3546_949)">
<path id="icon" d="M5.25 6C5.85938 6 6.375 6.51562 6.375 7.125V27.0469C6.375 27.4688 6.65625 27.75 7.07812 27.75H24.3281C24.9844 27.75 25.4531 28.2656 25.4531 28.875C25.4531 29.5312 24.9844 30 24.3281 30H6.23438C5.0625 30 4.125 29.0625 4.125 27.8906V7.125C4.125 6.51562 4.59375 6 5.25 6ZM25.125 15.375C25.5938 15.7969 25.5938 16.5 25.125 16.9688L17.8125 24.2812C17.0625 25.0312 15.8906 25.0312 15.1406 24.2812L13.5 22.5938L10.5469 25.5469C10.0781 26.0156 9.375 26.0156 8.95312 25.5469C8.48438 25.125 8.48438 24.4219 8.95312 23.9531L12.1406 20.7656C12.8906 20.0156 14.0625 20.0156 14.8125 20.7656L16.5 22.4531L23.5312 15.375C24 14.9062 24.7031 14.9062 25.125 15.375ZM17.0156 10.0781C17.0156 10.6406 16.5 11.1094 15.9375 11.1094C15.3281 11.1094 14.8125 10.6406 14.8125 10.0781C14.8125 9.51562 15.3281 9.04688 15.9375 9.04688C16.5 9.04688 17.0156 9.51562 17.0156 10.0781ZM17.8594 9H19.5L17.2969 15H15.6562L17.8594 9ZM10.5 9H14.2969V15H12.8438V10.3594H10.5V9Z" fill="black" fill-opacity="0.72"/>
</g>
<defs>
<clipPath id="clip0_3546_949">
<rect width="30" height="36" fill="white"/>
</clipPath>
</defs>
</svg>
