<svg width="23" height="30" viewBox="0 0 23 30" fill="none" xmlns="http://www.w3.org/2000/svg">
<g id="label-paired / lg / star-lg / bold" clip-path="url(#clip0_2556_17431)">
<path id="icon" d="M11.4609 5.5C11.8516 5.5 12.1641 5.73438 12.3203 6.04688L15.0156 11.5547L20.9922 12.4531C21.3438 12.4922 21.6172 12.7266 21.7344 13.0781C21.8516 13.4297 21.7734 13.7812 21.5 14.0547L17.1641 18.3516L18.1797 24.4062C18.2578 24.7578 18.1016 25.1484 17.8281 25.3438C17.5156 25.5391 17.125 25.5781 16.8125 25.4219L11.4609 22.5312L6.14844 25.4219C5.79688 25.5781 5.44531 25.5391 5.13281 25.3438C4.85938 25.1094 4.70312 24.7578 4.78125 24.4062L5.79688 18.3516L1.46094 14.0547C1.1875 13.7812 1.10938 13.4297 1.22656 13.0781C1.34375 12.7656 1.61719 12.4922 1.96875 12.4531L7.94531 11.5547L10.6406 6.04688C10.7969 5.73438 11.1094 5.5 11.4609 5.5ZM11.4609 8.58594L9.42969 12.8438C9.27344 13.1172 9.03906 13.3125 8.72656 13.3516L4.11719 14.0156L7.4375 17.3359C7.67188 17.5703 7.78906 17.8828 7.71094 18.1562L6.92969 22.8438L11.0312 20.6562C11.3047 20.5 11.6562 20.5 11.9297 20.6562L16.0312 22.8438L15.25 18.1953C15.1719 17.8828 15.2891 17.5703 15.5234 17.375L18.8438 14.0156L14.2344 13.3516C13.9219 13.3125 13.6875 13.1172 13.5312 12.8438L11.4609 8.58594Z" fill="black" fill-opacity="0.72"/>
</g>
<defs>
<clipPath id="clip0_2556_17431">
<rect width="23" height="30" fill="white"/>
</clipPath>
</defs>
</svg>
