<svg width="23" height="30" viewBox="0 0 23 30" fill="none" xmlns="http://www.w3.org/2000/svg">
<g id="label-paired / lg / map-lg / regular" clip-path="url(#clip0_3431_975)">
<path id="icon" d="M6.89062 6.82812C7.00781 6.75 7.16406 6.75 7.28125 6.78906L15.8359 9.25L21.4609 6.98438C22.0469 6.75 22.75 7.17969 22.75 7.84375V20.9297C22.75 21.3203 22.5156 21.6719 22.125 21.7891L16.0703 24.2109C15.9531 24.2891 15.8359 24.2891 15.6797 24.25L7.125 21.7891L1.5 24.0547C0.914062 24.2891 0.25 23.8594 0.25 23.1953V10.1094C0.25 9.71875 0.484375 9.36719 0.835938 9.25L6.89062 6.82812ZM1.5 10.3047V22.7266L6.5 20.7344V8.3125L1.5 10.3047ZM15.25 22.8047V10.3828L7.75 8.23438V20.6562L15.25 22.8047ZM16.5 22.7266L21.5 20.7344V8.3125L16.5 10.3047V22.7266Z" fill="black" fill-opacity="0.72"/>
</g>
<defs>
<clipPath id="clip0_3431_975">
<rect width="23" height="30" fill="white"/>
</clipPath>
</defs>
</svg>
