<svg width="11" height="22" viewBox="0 0 11 22" fill="none" xmlns="http://www.w3.org/2000/svg">
<g id="label-paired / sm / lightbulb-sm / regular" clip-path="url(#clip0_2512_1021)">
<path id="icon" d="M8.72656 10.8047C9.18229 10.1667 9.41927 9.41927 9.4375 8.5625C9.40104 7.45052 9.01823 6.52083 8.28906 5.77344C7.54167 5.04427 6.61198 4.66146 5.5 4.625C4.38802 4.66146 3.45833 5.04427 2.71094 5.77344C1.98177 6.52083 1.59896 7.45052 1.5625 8.5625C1.58073 9.41927 1.81771 10.1667 2.27344 10.8047C2.34635 10.9141 2.42839 11.0326 2.51953 11.1602C2.55599 11.2148 2.59245 11.2695 2.62891 11.3242C2.64714 11.3424 2.65625 11.3607 2.65625 11.3789C3.02083 11.8529 3.35807 12.3542 3.66797 12.8828C3.90495 13.3385 4.0599 13.7943 4.13281 14.25H3.23047C3.17578 13.9219 3.06641 13.612 2.90234 13.3203C2.62891 12.8281 2.31901 12.3542 1.97266 11.8984C1.82682 11.6979 1.68099 11.4974 1.53516 11.2969C0.988281 10.513 0.705729 9.60156 0.6875 8.5625C0.723958 7.19531 1.19792 6.0651 2.10938 5.17188C3.0026 4.26042 4.13281 3.78646 5.5 3.75C6.86719 3.78646 7.9974 4.26042 8.89062 5.17188C9.80208 6.0651 10.276 7.19531 10.3125 8.5625C10.2943 9.60156 10.0117 10.513 9.46484 11.2969C9.31901 11.4974 9.17318 11.6888 9.02734 11.8711C9.02734 11.8893 9.02734 11.8984 9.02734 11.8984C8.68099 12.3542 8.37109 12.819 8.09766 13.293C7.93359 13.6029 7.82422 13.9219 7.76953 14.25H6.89453C6.94922 13.7943 7.09505 13.3385 7.33203 12.8828C7.64193 12.3359 7.97917 11.8164 8.34375 11.3242C8.36198 11.3242 8.37109 11.3242 8.37109 11.3242C8.4987 11.1419 8.61719 10.9688 8.72656 10.8047ZM5.5 6.375C4.88021 6.39323 4.36068 6.60286 3.94141 7.00391C3.54036 7.42318 3.33073 7.94271 3.3125 8.5625C3.29427 8.83594 3.14844 8.98177 2.875 9C2.60156 8.98177 2.45573 8.83594 2.4375 8.5625C2.45573 7.6875 2.75651 6.96745 3.33984 6.40234C3.90495 5.81901 4.625 5.51823 5.5 5.5C5.77344 5.51823 5.91927 5.66406 5.9375 5.9375C5.91927 6.21094 5.77344 6.35677 5.5 6.375ZM4.26953 16C4.48828 16.5469 4.89844 16.8385 5.5 16.875C6.10156 16.8385 6.51172 16.5469 6.73047 16H4.26953ZM3.3125 15.5625V15.4258C3.33073 15.2435 3.43099 15.1432 3.61328 15.125H7.38672C7.56901 15.1432 7.66927 15.2435 7.6875 15.4258V15.5625C7.66927 16.1823 7.45964 16.7018 7.05859 17.1211C6.63932 17.5221 6.11979 17.7318 5.5 17.75C4.88021 17.7318 4.36068 17.5221 3.94141 17.1211C3.54036 16.7018 3.33073 16.1823 3.3125 15.5625Z" fill="black" fill-opacity="0.72"/>
</g>
<defs>
<clipPath id="clip0_2512_1021">
<rect width="11" height="22" fill="white"/>
</clipPath>
</defs>
</svg>
