<svg width="20" height="30" viewBox="0 0 20 30" fill="none" xmlns="http://www.w3.org/2000/svg">
<g id="label-paired / lg / sparkles-lg / bold" clip-path="url(#clip0_5090_464)">
<path id="icon" d="M12.7734 8.85938L15 8L15.8203 5.8125C15.8594 5.61719 16.0547 5.5 16.25 5.5C16.4062 5.5 16.6016 5.61719 16.6406 5.8125L17.5 8L19.6875 8.85938C19.8828 8.89844 20 9.09375 20 9.25C20 9.44531 19.8828 9.64062 19.6875 9.67969L17.5 10.5L16.6406 12.7266C16.6016 12.8828 16.4062 13 16.25 13C16.0547 13 15.8594 12.8828 15.8203 12.7266L15 10.5L12.7734 9.67969C12.6172 9.64062 12.5 9.44531 12.5 9.25C12.5 9.09375 12.6172 8.89844 12.7734 8.85938ZM0.351562 14.875L1.01562 14.6016L1.32812 14.4453H1.36719L4.80469 12.8438L6.40625 9.36719L6.5625 9.05469L6.875 8.39062C6.95312 8.15625 7.1875 8 7.42188 8C7.65625 8 7.89062 8.15625 8.00781 8.39062L8.32031 9.05469L8.4375 9.36719L8.47656 9.40625L10.0391 12.8438L13.5156 14.4453L13.8281 14.6016L14.4922 14.9141C14.7266 14.9922 14.8828 15.2266 14.8828 15.4609C14.8828 15.6953 14.7266 15.9297 14.4922 16.0469L13.8281 16.3203L13.5156 16.4766L10.0391 18.0781L8.4375 21.5156V21.5547L8.28125 21.8672L8.00781 22.5312C7.89062 22.7656 7.65625 22.9219 7.42188 22.9219C7.1875 22.9219 6.95312 22.7656 6.875 22.5312L6.5625 21.8672L6.40625 21.5547V21.5156L4.80469 18.0781L1.36719 16.4766H1.32812L1.01562 16.3203L0.351562 16.0469C0.117188 15.9297 0 15.6953 0 15.4609C0 15.2266 0.117188 14.9922 0.351562 14.875ZM3.59375 15.4609L5.58594 16.3984C5.97656 16.5547 6.32812 16.9062 6.52344 17.2969L7.42188 19.2891L8.35938 17.2969C8.55469 16.9062 8.86719 16.5547 9.25781 16.3984L11.25 15.4609L9.25781 14.5234C8.86719 14.3672 8.55469 14.0156 8.35938 13.625L7.42188 11.6328L6.52344 13.625C6.32812 14.0156 5.97656 14.3672 5.58594 14.5234L3.59375 15.4609ZM15 20.5L15.8203 18.3125C15.8594 18.1172 16.0547 18 16.25 18C16.4062 18 16.6016 18.1172 16.6406 18.3125L17.5 20.5L19.6875 21.3594C19.8828 21.3984 20 21.5938 20 21.75C20 21.9453 19.8828 22.1406 19.6875 22.1797L17.5 23L16.6406 25.2266C16.6016 25.3828 16.4062 25.5 16.25 25.5C16.0547 25.5 15.8594 25.3828 15.8203 25.2266L15 23L12.7734 22.1797C12.6172 22.1406 12.5 21.9453 12.5 21.75C12.5 21.5938 12.6172 21.3984 12.7734 21.3594L15 20.5Z" fill="black" fill-opacity="0.72"/>
</g>
<defs>
<clipPath id="clip0_5090_464">
<rect width="20" height="30" fill="white"/>
</clipPath>
</defs>
</svg>
