<svg width="12" height="18" viewBox="0 0 12 18" fill="none" xmlns="http://www.w3.org/2000/svg">
<g id="label-paired / caption / circle-five-caption / fill" clip-path="url(#clip0_2556_10244)">
<path id="icon" d="M6 15.5C3.84375 15.5 1.875 14.375 0.796875 12.5C-0.28125 10.6484 -0.28125 8.375 0.796875 6.5C1.875 4.64844 3.84375 3.5 6 3.5C8.13281 3.5 10.1016 4.64844 11.1797 6.5C12.2578 8.375 12.2578 10.6484 11.1797 12.5C10.1016 14.375 8.13281 15.5 6 15.5ZM4.875 6.5H4.85156C4.59375 6.5 4.35938 6.71094 4.3125 6.96875L3.9375 9.03125C3.91406 9.19531 3.9375 9.33594 4.03125 9.47656C4.125 9.59375 4.26562 9.66406 4.42969 9.6875L6.46875 9.92188C6.84375 9.96875 7.125 10.2734 7.125 10.6484C7.125 11.0469 6.79688 11.375 6.375 11.375H5.53125C5.27344 11.375 5.01562 11.2578 4.85156 11.0234L4.75781 10.8828C4.59375 10.625 4.24219 10.5547 3.98438 10.7188C3.72656 10.9062 3.65625 11.2578 3.84375 11.5156L3.9375 11.6562C4.28906 12.1953 4.89844 12.5 5.53125 12.5H6.375C7.40625 12.5 8.25 11.6797 8.25 10.6484C8.25 9.71094 7.52344 8.91406 6.58594 8.79688L5.15625 8.63281L5.34375 7.625H7.3125C7.61719 7.625 7.875 7.39062 7.875 7.0625C7.875 6.75781 7.61719 6.5 7.3125 6.5H4.875Z" fill="black" fill-opacity="0.72"/>
</g>
<defs>
<clipPath id="clip0_2556_10244">
<rect width="12" height="18" fill="white"/>
</clipPath>
</defs>
</svg>
