<svg width="14" height="24" viewBox="0 0 14 24" fill="none" xmlns="http://www.w3.org/2000/svg">
<g id="label-paired / md / expand-md / bold" clip-path="url(#clip0_2556_15275)">
<path id="icon" d="M4.25 5C4.65625 5 5 5.34375 5 5.75C5 6.1875 4.65625 6.5 4.25 6.5H1.5V9.25C1.5 9.6875 1.15625 10 0.75 10C0.3125 10 0 9.6875 0 9.25V5.75C0 5.34375 0.3125 5 0.75 5H4.25ZM0 14.75C0 14.3438 0.3125 14 0.75 14C1.15625 14 1.5 14.3438 1.5 14.75V17.5H4.25C4.65625 17.5 5 17.8438 5 18.25C5 18.6875 4.65625 19 4.25 19H0.75C0.3125 19 0 18.6875 0 18.25V14.75ZM13.25 5C13.6562 5 14 5.34375 14 5.75V9.25C14 9.6875 13.6562 10 13.25 10C12.8125 10 12.5 9.6875 12.5 9.25V6.5H9.75C9.3125 6.5 9 6.1875 9 5.75C9 5.34375 9.3125 5 9.75 5H13.25ZM12.5 14.75C12.5 14.3438 12.8125 14 13.25 14C13.6562 14 14 14.3438 14 14.75V18.25C14 18.6875 13.6562 19 13.25 19H9.75C9.3125 19 9 18.6875 9 18.25C9 17.8438 9.3125 17.5 9.75 17.5H12.5V14.75Z" fill="black" fill-opacity="0.72"/>
</g>
<defs>
<clipPath id="clip0_2556_15275">
<rect width="14" height="24" fill="white"/>
</clipPath>
</defs>
</svg>
