<svg width="16" height="24" viewBox="0 0 16 24" fill="none" xmlns="http://www.w3.org/2000/svg">
<g id="label-paired / md / pen-circle-md / fill" clip-path="url(#clip0_2556_14717)">
<path id="icon" d="M8 20C5.125 20 2.5 18.5 1.0625 16C-0.375 13.5312 -0.375 10.5 1.0625 8C2.5 5.53125 5.125 4 8 4C10.8438 4 13.4688 5.53125 14.9062 8C16.3438 10.5 16.3438 13.5312 14.9062 16C13.4688 18.5 10.8438 20 8 20ZM11.1562 8.375C10.6875 7.90625 9.875 7.90625 9.40625 8.375L8.71875 9.0625L10.9375 11.2812L11.625 10.5938C12.0938 10.0938 12.0938 9.3125 11.625 8.84375L11.1562 8.375ZM4.71875 13.0312C4.59375 13.1562 4.5 13.3438 4.46875 13.5L4 15.375C3.96875 15.5625 4 15.75 4.125 15.875C4.25 16 4.4375 16.0312 4.59375 16L6.5 15.5312C6.65625 15.4688 6.8125 15.375 6.9375 15.25L10.25 11.9688L8.03125 9.75L4.71875 13.0312Z" fill="black" fill-opacity="0.72"/>
</g>
<defs>
<clipPath id="clip0_2556_14717">
<rect width="16" height="24" fill="white"/>
</clipPath>
</defs>
</svg>
