<svg width="14" height="18" viewBox="0 0 14 18" fill="none" xmlns="http://www.w3.org/2000/svg">
<g id="label-paired / caption / file-shield-caption / regular" clip-path="url(#clip0_2556_10646)">
<path id="icon" d="M7.75 14.75C7.77344 14.75 7.79688 14.75 7.82031 14.75C8.00781 14.9609 8.21875 15.1484 8.45312 15.3359C8.24219 15.4531 7.98438 15.5234 7.75 15.5234H1.75C0.90625 15.5234 0.25 14.8438 0.25 14.0234V5C0.25 4.17969 0.90625 3.5 1.75 3.5H5.40625C5.6875 3.5 5.99219 3.64062 6.20312 3.85156L8.89844 6.54688C9.10938 6.75781 9.25 7.0625 9.25 7.34375V8.35156L8.5 8.65625V8H5.875C5.24219 8 4.75 7.50781 4.75 6.875V4.25H1.75C1.32812 4.25 1 4.60156 1 5V14C1 14.4219 1.32812 14.75 1.75 14.75H7.75ZM8.47656 7.25C8.45312 7.20312 8.42969 7.13281 8.38281 7.08594L5.66406 4.36719C5.61719 4.32031 5.54688 4.29688 5.5 4.27344V6.875C5.5 7.08594 5.66406 7.25 5.875 7.25H8.47656ZM7.75 10.5781C7.77344 11.8203 8.26562 13.6016 10 14.5625V9.66406L7.75 10.5781ZM13 10.5781L10.75 9.66406V14.5625C12.4609 13.6016 12.9531 11.8203 12.9766 10.5781H13ZM10.5859 8.79688L13.3984 9.92188C13.6094 10.0156 13.75 10.2266 13.75 10.4375C13.75 11.9375 13.1406 14.3984 10.5859 15.4766C10.4453 15.5234 10.2812 15.5234 10.1406 15.4766C7.58594 14.3984 7 11.9375 7 10.4375C7 10.2266 7.14062 10.0156 7.35156 9.92188L10.1641 8.79688C10.2812 8.75 10.4453 8.75 10.5625 8.79688H10.5859Z" fill="black" fill-opacity="0.72"/>
</g>
<defs>
<clipPath id="clip0_2556_10646">
<rect width="14" height="18" fill="white"/>
</clipPath>
</defs>
</svg>
