<svg width="12" height="18" viewBox="0 0 12 18" fill="none" xmlns="http://www.w3.org/2000/svg">
<g id="label-paired / caption / life-ring-caption / fill" clip-path="url(#clip0_2556_10402)">
<path id="icon" d="M8.60156 13.1797L7.24219 11.8203C6.86719 12.0312 6.44531 12.125 6 12.125C5.53125 12.125 5.10938 12.0312 4.73438 11.8203L3.375 13.1797C4.125 13.6953 5.01562 14 6 14C6.96094 14 7.85156 13.6953 8.60156 13.1797ZM10.7109 13.2031H10.7344C10.9453 13.4844 10.8984 13.9062 10.6406 14.1641C10.3828 14.4219 9.96094 14.4453 9.67969 14.2344C8.64844 15.0312 7.38281 15.5 6 15.5C4.59375 15.5 3.32812 15.0312 2.29688 14.2344C2.01562 14.4453 1.59375 14.4219 1.33594 14.1641C1.07812 13.9062 1.05469 13.4844 1.26562 13.2031C0.46875 12.1719 0 10.9062 0 9.5C0 8.11719 0.46875 6.85156 1.26562 5.82031C1.05469 5.53906 1.07812 5.11719 1.33594 4.85938C1.59375 4.60156 2.01562 4.55469 2.29688 4.76562C3.32812 3.99219 4.59375 3.5 6 3.5C7.38281 3.5 8.64844 3.99219 9.67969 4.76562C9.96094 4.55469 10.3828 4.60156 10.6406 4.85938C10.8984 5.11719 10.9219 5.53906 10.7109 5.82031C11.5078 6.85156 11.9766 8.11719 11.9766 9.5C11.9766 10.9062 11.5078 12.1719 10.7109 13.2031ZM9.65625 12.125C10.1719 11.375 10.5 10.4844 10.5 9.5C10.5 8.53906 10.1719 7.64844 9.65625 6.89844L8.29688 8.25781C8.50781 8.63281 8.60156 9.05469 8.60156 9.5C8.60156 9.96875 8.50781 10.3906 8.29688 10.7656L9.65625 12.125ZM8.60156 5.84375C7.85156 5.32812 6.96094 5 6 5C5.01562 5 4.125 5.32812 3.375 5.84375L4.73438 7.20312C5.10938 6.99219 5.53125 6.875 5.97656 6.875C6.44531 6.875 6.86719 6.99219 7.24219 7.20312L8.60156 5.84375ZM3.67969 10.7656C3.46875 10.3906 3.375 9.96875 3.375 9.52344C3.375 9.05469 3.46875 8.63281 3.67969 8.25781L2.32031 6.89844C1.80469 7.64844 1.5 8.53906 1.5 9.5C1.5 10.4844 1.80469 11.375 2.32031 12.125L3.67969 10.7656ZM4.875 9.5C4.875 9.92188 5.08594 10.2734 5.4375 10.4844C5.76562 10.6953 6.21094 10.6953 6.5625 10.4844C6.89062 10.2734 7.125 9.92188 7.125 9.5C7.125 9.10156 6.89062 8.75 6.5625 8.53906C6.21094 8.32812 5.76562 8.32812 5.4375 8.53906C5.08594 8.75 4.875 9.10156 4.875 9.5Z" fill="black" fill-opacity="0.72"/>
</g>
<defs>
<clipPath id="clip0_2556_10402">
<rect width="12" height="18" fill="white"/>
</clipPath>
</defs>
</svg>
