<svg width="14" height="24" viewBox="0 0 14 24" fill="none" xmlns="http://www.w3.org/2000/svg">
<g id="label-paired / md / bars-filter-md / bold" clip-path="url(#clip0_2556_14844)">
<path id="icon" d="M0 6.75C0 6.34375 0.3125 6 0.75 6H13.25C13.6562 6 14 6.34375 14 6.75C14 7.1875 13.6562 7.5 13.25 7.5H0.75C0.3125 7.5 0 7.1875 0 6.75ZM2 11.75C2 11.3438 2.3125 11 2.75 11H11.25C11.6562 11 12 11.3438 12 11.75C12 12.1875 11.6562 12.5 11.25 12.5H2.75C2.3125 12.5 2 12.1875 2 11.75ZM9 16.75C9 17.1875 8.65625 17.5 8.25 17.5H5.75C5.3125 17.5 5 17.1875 5 16.75C5 16.3438 5.3125 16 5.75 16H8.25C8.65625 16 9 16.3438 9 16.75Z" fill="black" fill-opacity="0.72"/>
</g>
<defs>
<clipPath id="clip0_2556_14844">
<rect width="14" height="24" fill="white"/>
</clipPath>
</defs>
</svg>
