<svg width="6" height="18" viewBox="0 0 6 18" fill="none" xmlns="http://www.w3.org/2000/svg">
<g id="label-paired / caption / one-caption / bold" clip-path="url(#clip0_2556_10283)">
<path id="icon" d="M3.5625 4.8125V13.625H5.4375C5.74219 13.625 6 13.8828 6 14.1875C6 14.5156 5.74219 14.75 5.4375 14.75H3H0.5625C0.234375 14.75 0 14.5156 0 14.1875C0 13.8828 0.234375 13.625 0.5625 13.625H2.4375V5.82031L0.84375 6.80469C0.585938 6.96875 0.234375 6.875 0.0703125 6.61719C-0.09375 6.35938 0 6.00781 0.257812 5.84375L2.69531 4.34375C2.85938 4.22656 3.09375 4.22656 3.25781 4.32031C3.44531 4.4375 3.5625 4.625 3.5625 4.8125Z" fill="black" fill-opacity="0.72"/>
</g>
<defs>
<clipPath id="clip0_2556_10283">
<rect width="6" height="18" fill="white"/>
</clipPath>
</defs>
</svg>
