<svg width="24" height="36" viewBox="0 0 24 36" fill="none" xmlns="http://www.w3.org/2000/svg">
<g id="label-paired / xl / circle-two-xl / fill" clip-path="url(#clip0_2556_19551)">
<path id="icon" d="M12 30C7.6875 30 3.75 27.75 1.59375 24C-0.5625 20.2969 -0.5625 15.75 1.59375 12C3.75 8.29688 7.6875 6 12 6C16.2656 6 20.2031 8.29688 22.3594 12C24.5156 15.75 24.5156 20.2969 22.3594 24C20.2031 27.75 16.2656 30 12 30ZM10.4062 14.6719C10.7812 14.4375 11.1562 14.2969 11.625 14.2969H11.7656C12.7031 14.2969 13.5 15.0938 13.5 16.0312C13.5 16.5 13.2656 16.9688 12.9375 17.2969L7.82812 22.0781C7.5 22.4062 7.40625 22.875 7.54688 23.2969C7.73438 23.7188 8.15625 24 8.625 24H15.375C15.9844 24 16.5 23.5312 16.5 22.875C16.5 22.2656 15.9844 21.75 15.375 21.75H11.4375L14.4844 18.9375C15.2812 18.1875 15.7031 17.1562 15.7031 16.0312C15.7031 13.875 13.9688 12.0938 11.8125 12.0469H11.625C10.6875 12.0469 9.79688 12.3281 9.04688 12.8906L7.92188 13.7344C7.40625 14.1094 7.3125 14.8594 7.6875 15.3281C8.0625 15.8438 8.8125 15.9375 9.28125 15.5625L10.4062 14.6719Z" fill="black" fill-opacity="0.72"/>
</g>
<defs>
<clipPath id="clip0_2556_19551">
<rect width="24" height="36" fill="white"/>
</clipPath>
</defs>
</svg>
