<svg width="13" height="22" viewBox="0 0 13 22" fill="none" xmlns="http://www.w3.org/2000/svg">
<g id="label-paired / sm / flag-checkered-sm / fill" clip-path="url(#clip0_2556_12972)">
<path id="icon" d="M1.25 3.75C1.71484 3.75 2.125 4.16016 2.125 4.625V5.0625L4.01172 4.59766C5.05078 4.35156 6.14453 4.46094 7.10156 4.95312C8.35938 5.58203 9.86328 5.58203 11.1211 4.95312L11.3945 4.81641C11.9414 4.54297 12.625 4.95312 12.625 5.58203V13.2109C12.625 13.5938 12.3789 13.9219 12.0508 14.0312L11.0938 14.3867C9.83594 14.8789 8.41406 14.7969 7.21094 14.1953C6.17188 13.6758 4.99609 13.5391 3.875 13.8125L2.125 14.25V16.875C2.125 17.3672 1.71484 17.75 1.25 17.75C0.757812 17.75 0.375 17.3672 0.375 16.875V14.6875V12.8828V5.5V4.625C0.375 4.16016 0.757812 3.75 1.25 3.75ZM2.125 8.89062L3.875 8.50781V10.2852L2.125 10.668V12.4453L3.4375 12.1172C3.57422 12.0898 3.71094 12.0625 3.875 12.0352V10.2852L4.91406 10.0664C5.16016 10.0117 5.37891 9.98438 5.625 10.0117V8.26172C5.98047 8.26172 6.36328 8.31641 6.71875 8.42578L7.375 8.61719V10.4492L6.22656 10.0938C6.03516 10.0391 5.81641 10.0117 5.625 10.0117V11.9531C6.19922 12.0078 6.80078 12.1445 7.375 12.3359V10.4492L7.97656 10.6133C8.35938 10.7227 8.74219 10.8047 9.125 10.832V9.05469C8.90625 9.05469 8.6875 9 8.46875 8.94531L7.375 8.61719V6.92188C7.01953 6.8125 6.66406 6.67578 6.30859 6.51172C6.08984 6.40234 5.84375 6.32031 5.625 6.26562V8.26172C5.26953 8.23438 4.91406 8.26172 4.55859 8.34375L3.875 8.50781V6.42969L2.125 6.86719V8.89062ZM9.125 12.9375C9.5625 12.9922 10.0273 12.9102 10.4922 12.7461L10.875 12.6094V10.6406L10.6562 10.6953C10.1367 10.8047 9.61719 10.8594 9.125 10.832V12.9375ZM10.875 8.86328V6.92188C10.3008 7.08594 9.69922 7.16797 9.125 7.16797V9.05469C9.48047 9.10938 9.89062 9.08203 10.2461 9L10.875 8.86328Z" fill="black" fill-opacity="0.72"/>
</g>
<defs>
<clipPath id="clip0_2556_12972">
<rect width="13" height="22" fill="white"/>
</clipPath>
</defs>
</svg>
