<svg width="15" height="18" viewBox="0 0 15 18" fill="none" xmlns="http://www.w3.org/2000/svg">
<g id="label-paired / caption / user-minus-caption / fill" clip-path="url(#clip0_3327_846)">
<path id="icon" d="M2.25 6.5C2.25 5.44531 2.8125 4.46094 3.75 3.92188C4.66406 3.38281 5.8125 3.38281 6.75 3.92188C7.66406 4.46094 8.25 5.44531 8.25 6.5C8.25 7.57812 7.66406 8.5625 6.75 9.10156C5.8125 9.64062 4.66406 9.64062 3.75 9.10156C2.8125 8.5625 2.25 7.57812 2.25 6.5ZM0 14.8203C0 12.5 1.85156 10.625 4.17188 10.625H6.30469C8.625 10.625 10.5 12.5 10.5 14.8203C10.5 15.1953 10.1719 15.5 9.79688 15.5H0.679688C0.304688 15.5 0 15.1953 0 14.8203ZM11.0625 8.1875H14.4375C14.7422 8.1875 15 8.44531 15 8.75C15 9.07812 14.7422 9.3125 14.4375 9.3125H11.0625C10.7344 9.3125 10.5 9.07812 10.5 8.75C10.5 8.44531 10.7344 8.1875 11.0625 8.1875Z" fill="black" fill-opacity="0.72"/>
</g>
<defs>
<clipPath id="clip0_3327_846">
<rect width="15" height="18" fill="white"/>
</clipPath>
</defs>
</svg>
