<svg width="12" height="18" viewBox="0 0 12 18" fill="none" xmlns="http://www.w3.org/2000/svg">
<g id="label-paired / caption / paste-caption / bold" clip-path="url(#clip0_2556_10408)">
<path id="icon" d="M2.4375 4.625C2.53125 3.99219 3.07031 3.5 3.75 3.5C4.40625 3.5 4.94531 3.99219 5.03906 4.625H6C6.67969 4.625 7.26562 5.11719 7.45312 5.75H6C5.32031 5.75 4.73438 6.05469 4.3125 6.5H2.625C2.20312 6.5 1.875 6.17188 1.875 5.75H1.5C1.28906 5.75 1.125 5.9375 1.125 6.125V12.5C1.125 12.7109 1.28906 12.875 1.5 12.875H3.75V14H1.5C0.65625 14 0 13.3438 0 12.5V6.125C0 5.30469 0.65625 4.625 1.5 4.625H2.4375ZM3.375 4.8125C3.375 5.02344 3.53906 5.1875 3.75 5.1875C3.9375 5.1875 4.125 5.02344 4.125 4.8125C4.125 4.625 3.9375 4.4375 3.75 4.4375C3.53906 4.4375 3.375 4.625 3.375 4.8125ZM10.5 14.375C10.6875 14.375 10.875 14.2109 10.875 14V9.21875L9.28125 7.625H6C5.78906 7.625 5.625 7.8125 5.625 8V14C5.625 14.2109 5.78906 14.375 6 14.375H10.5ZM6 15.5C5.15625 15.5 4.5 14.8438 4.5 14V8C4.5 7.17969 5.15625 6.5 6 6.5H9.28125C9.5625 6.5 9.86719 6.64062 10.0781 6.85156L11.6484 8.42188C11.8594 8.63281 12 8.9375 12 9.21875V14C12 14.8438 11.3203 15.5 10.5 15.5H6Z" fill="black" fill-opacity="0.72"/>
</g>
<defs>
<clipPath id="clip0_2556_10408">
<rect width="12" height="18" fill="white"/>
</clipPath>
</defs>
</svg>
