<svg width="16" height="24" viewBox="0 0 16 24" fill="none" xmlns="http://www.w3.org/2000/svg">
<g id="label-paired / md / circle-euro-md / regular" clip-path="url(#clip0_2556_14619)">
<path id="icon" d="M15 12C15 9.5 13.6562 7.21875 11.5 5.96875C9.3125 4.6875 6.65625 4.6875 4.5 5.96875C2.3125 7.21875 1 9.5 1 12C1 14.5312 2.3125 16.8125 4.5 18.0625C6.65625 19.3438 9.3125 19.3438 11.5 18.0625C13.6562 16.8125 15 14.5312 15 12ZM0 12C0 9.15625 1.5 6.53125 4 5.09375C6.46875 3.65625 9.5 3.65625 12 5.09375C14.4688 6.53125 16 9.15625 16 12C16 14.875 14.4688 17.5 12 18.9375C9.5 20.375 6.46875 20.375 4 18.9375C1.5 17.5 0 14.875 0 12ZM4 12.5H4.75C4.71875 12.3438 4.71875 12.1875 4.71875 12.0312C4.71875 11.875 4.71875 11.6875 4.75 11.5H4C3.71875 11.5 3.5 11.2812 3.5 11C3.5 10.75 3.71875 10.5 4 10.5H5.0625C5.625 9.34375 6.84375 8.5 8.21875 8.5H9.53125C9.78125 8.5 10.0312 8.75 10.0312 9C10.0312 9.28125 9.78125 9.5 9.53125 9.5H8.21875C7.40625 9.5 6.6875 9.90625 6.21875 10.5H9C9.25 10.5 9.5 10.75 9.5 11C9.5 11.2812 9.25 11.5 9 11.5H5.75C5.71875 11.6875 5.71875 11.8438 5.71875 12.0312C5.71875 12.1875 5.71875 12.375 5.75 12.5H9C9.25 12.5 9.5 12.75 9.5 13C9.5 13.2812 9.25 13.5 9 13.5H6.1875C6.65625 14.1562 7.375 14.5625 8.21875 14.5625H9.53125C9.78125 14.5625 10.0312 14.7812 10.0312 15.0625C10.0312 15.3438 9.78125 15.5625 9.53125 15.5625H8.21875C6.8125 15.5625 5.59375 14.7188 5.03125 13.5H4C3.71875 13.5 3.5 13.2812 3.5 13C3.5 12.75 3.71875 12.5 4 12.5Z" fill="black" fill-opacity="0.72"/>
</g>
<defs>
<clipPath id="clip0_2556_14619">
<rect width="16" height="24" fill="white"/>
</clipPath>
</defs>
</svg>
