<svg width="18" height="22" viewBox="0 0 18 22" fill="none" xmlns="http://www.w3.org/2000/svg">
<g id="label-paired / sm / hand-gesture-tap-right-sm / fill" clip-path="url(#clip0_3546_776)">
<path id="icon" d="M12.1719 8.97266C12.5273 9.13672 12.6641 9.54688 12.5 9.875L10.4492 14.2227C10.3672 14.3594 10.4492 14.5234 10.5586 14.5781C10.7227 14.6328 10.8594 14.5781 10.9414 14.4414L11.3242 13.5938C11.3516 13.6211 11.3789 13.6758 11.4062 13.7031L11.5703 14.0859C11.707 14.3867 11.707 14.7148 11.5703 15.0156L11.2969 15.5898C11.0234 16.1914 10.5039 16.6289 9.84766 16.793L9.73828 16.8203C9.13672 16.9844 8.48047 16.9023 7.90625 16.6289L6.07422 15.7539C4.98047 15.2617 4.51562 13.9492 5.03516 12.8555L5.74609 11.3789C5.9375 10.9688 6.42969 10.7773 6.83984 10.9688C7.03125 11.0781 7.16797 11.2422 7.25 11.4336C7.44141 11.0508 7.90625 10.8867 8.28906 11.0781C8.50781 11.1602 8.61719 11.3242 8.69922 11.5156C8.91797 11.1328 9.38281 10.9961 9.76562 11.1602C9.95703 11.2695 10.0938 11.4062 10.1758 11.5977L11.2695 9.30078C11.4062 8.97266 11.8164 8.80859 12.1719 8.97266ZM10.4219 10.1211L10.8867 9.16406C11.1328 8.64453 11.7891 8.39844 12.3359 8.64453C12.8828 8.91797 13.1016 9.57422 12.8555 10.1211L12.4453 10.9688C13.1836 10.75 13.7031 10.0664 13.7031 9.27344C13.7031 8.31641 12.9375 7.52344 11.9531 7.52344C10.9961 7.52344 10.2031 8.31641 10.2031 9.27344C10.2031 9.57422 10.2852 9.875 10.4219 10.1211ZM14.5781 4.625C14.3047 4.625 14.0586 4.87109 14.0586 5.17188V16.3555C14.0586 16.6562 14.3047 16.875 14.5781 16.875C14.8789 16.875 15.125 16.6562 15.125 16.3555V5.17188C15.125 4.87109 14.8789 4.625 14.5781 4.625Z" fill="black" fill-opacity="0.72"/>
</g>
<defs>
<clipPath id="clip0_3546_776">
<rect width="18" height="22" fill="white"/>
</clipPath>
</defs>
</svg>
