<svg width="24" height="36" viewBox="0 0 24 36" fill="none" xmlns="http://www.w3.org/2000/svg">
<g id="label-paired / xl / puzzle-piece-two-xl / bold" clip-path="url(#clip0_3909_663)">
<path id="icon" d="M20.8594 22.0312C21.375 22.5 21.7031 23.1562 21.7031 23.9531C21.7031 24.75 21.375 25.4062 20.8594 25.875C20.3438 26.2969 19.6406 26.5312 18.9375 26.625C18.8438 26.625 18.75 26.625 18.7031 26.5781V27.0469C18.7031 27.7031 18.3281 28.2656 17.8125 28.6406C17.2969 29.0156 16.6406 29.25 15.9844 29.25C15.9375 29.25 15.8906 29.25 15.8906 29.25H14.0156C13.0781 29.25 12.6094 28.125 13.2188 27.4688C13.125 27.0938 12.9844 26.8125 12.8438 26.5781C12.6562 26.3906 12.375 26.25 11.9531 26.25C11.5781 26.25 11.2969 26.3906 11.1094 26.5781C10.9688 26.8125 10.8281 27.0938 10.7344 27.4688C11.3438 28.125 10.875 29.25 9.9375 29.25H8.0625C8.01562 29.25 8.01562 29.25 7.96875 29.25C7.26562 29.25 6.60938 29.0156 6.14062 28.6406C5.625 28.2656 5.29688 27.7031 5.29688 27V21C5.29688 20.7188 5.29688 20.5312 5.25 20.3438C5.25 20.1094 5.25 19.9688 5.29688 19.5469V18.0469C5.29688 17.9062 5.29688 17.7188 5.25 17.5312C5.20312 17.5312 5.10938 17.5781 5.01562 17.5312C4.3125 17.4844 3.65625 17.2969 3.14062 16.875C2.57812 16.4062 2.29688 15.75 2.29688 14.9531C2.29688 14.1562 2.625 13.5 3.1875 13.0781C3.70312 12.7031 4.35938 12.5625 5.01562 12.5156C5.10938 12.5156 5.20312 12.5156 5.25 12.5156C5.29688 12.3281 5.29688 12.1406 5.29688 12C5.29688 11.3438 5.67188 10.7812 6.14062 10.4062C6.65625 10.0312 7.3125 9.79688 8.01562 9.79688H9.32812C9.32812 9.70312 9.32812 9.65625 9.32812 9.5625C9.375 8.85938 9.60938 8.15625 10.0781 7.64062C10.5469 7.125 11.2031 6.79688 12 6.79688C12.7969 6.79688 13.4531 7.125 13.9219 7.64062C14.3906 8.15625 14.625 8.85938 14.6719 9.5625C14.6719 9.65625 14.6719 9.70312 14.625 9.79688H15.9844C16.6875 9.79688 17.3438 10.0312 17.8594 10.4062C18.3281 10.7812 18.7031 11.3438 18.7031 12V19.5469C18.7031 19.8281 18.7031 19.9688 18.7031 20.1094C18.7031 20.25 18.7031 20.3906 18.7031 20.8594V21.2812C18.7969 21.2812 18.8438 21.2812 18.9375 21.2812C19.6406 21.3281 20.3438 21.5625 20.8594 22.0312ZM7.875 27.7969C7.92188 27.7969 7.92188 27.7969 7.96875 27.7969H9.32812C9.32812 27.7031 9.32812 27.6094 9.32812 27.5156C9.375 26.8594 9.60938 26.1562 10.0312 25.6406C10.5 25.125 11.1562 24.7969 11.9531 24.7969C12.75 24.7969 13.4062 25.125 13.875 25.6406C14.3438 26.1562 14.5781 26.8594 14.625 27.5625C14.6719 27.6562 14.625 27.7031 14.625 27.7969H15.9844H16.0312C16.4062 27.7969 16.7344 27.6562 16.9688 27.5156C17.1562 27.3281 17.25 27.1875 17.25 27.0469V25.9688C17.25 25.0312 18.375 24.6094 19.0312 25.1719C19.4062 25.125 19.6875 24.9844 19.875 24.7969C20.1094 24.6094 20.25 24.3281 20.25 23.9531C20.25 23.5312 20.1094 23.2969 19.875 23.1094C19.6875 22.9219 19.4062 22.7812 19.0312 22.7344C18.375 23.2969 17.25 22.8281 17.25 21.8906V20.8594C17.25 20.5312 17.25 20.3906 17.25 20.25H14.0156C13.0781 20.25 12.6094 19.125 13.2188 18.4688C13.125 18.0938 12.9844 17.8125 12.8438 17.625C12.6094 17.3906 12.375 17.25 11.9531 17.25C11.5781 17.25 11.2969 17.3906 11.1094 17.625C10.9219 17.8125 10.8281 18.0938 10.7344 18.4688C11.3438 19.125 10.875 20.25 9.9375 20.25H6.70312C6.70312 20.25 6.70312 20.2969 6.70312 20.3438C6.70312 20.4844 6.70312 20.6719 6.70312 21V27C6.70312 27.1875 6.75 27.3281 6.98438 27.5156C7.21875 27.7031 7.5 27.7969 7.875 27.7969ZM6.70312 18.7969H9.32812C9.32812 18.7031 9.32812 18.6562 9.32812 18.5625C9.375 17.8594 9.60938 17.1562 10.0312 16.6406C10.5 16.125 11.1562 15.7969 11.9531 15.7969C12.75 15.7969 13.4062 16.125 13.875 16.6406C14.3438 17.1562 14.5781 17.8594 14.625 18.5625C14.6719 18.6562 14.625 18.7031 14.625 18.7969H17.2969V12C17.2969 11.8594 17.2031 11.7188 16.9688 11.5312C16.7344 11.3438 16.4062 11.25 15.9844 11.25H14.0156C13.0781 11.25 12.6562 10.125 13.2188 9.46875C13.1719 9.09375 13.0312 8.8125 12.8438 8.57812C12.6562 8.39062 12.375 8.25 12 8.25C11.625 8.25 11.3438 8.39062 11.1562 8.57812C10.9688 8.8125 10.8281 9.09375 10.7812 9.46875C11.3438 10.125 10.875 11.25 9.9375 11.25H8.01562C7.59375 11.25 7.21875 11.3438 6.98438 11.5312C6.79688 11.7188 6.70312 11.8594 6.70312 12V12.0469C6.70312 12.1406 6.70312 12.4688 6.65625 12.7969C6.65625 12.9375 6.60938 13.125 6.5625 13.3125C6.51562 13.4531 6.42188 13.7344 6.1875 13.9219C5.95312 14.0625 5.71875 14.1094 5.48438 14.1094C5.34375 14.0625 5.20312 14.0156 5.10938 13.9688C5.0625 13.9688 5.0625 13.9219 5.0625 13.9219C4.54688 13.9688 4.21875 14.1094 4.03125 14.25C3.84375 14.3906 3.70312 14.5781 3.70312 14.9531C3.70312 15.3281 3.84375 15.5625 4.03125 15.75C4.26562 15.9375 4.59375 16.0781 5.0625 16.125C5.0625 16.0781 5.0625 16.0781 5.10938 16.0781C5.20312 16.0312 5.34375 15.9844 5.48438 15.9375C5.71875 15.9375 5.95312 15.9844 6.1875 16.125C6.42188 16.3125 6.51562 16.5938 6.5625 16.7344C6.60938 16.9219 6.65625 17.1094 6.65625 17.25C6.70312 17.5781 6.70312 17.8594 6.70312 18V18.7969Z" fill="black" fill-opacity="0.72"/>
</g>
<defs>
<clipPath id="clip0_3909_663">
<rect width="24" height="36" fill="white"/>
</clipPath>
</defs>
</svg>
