<svg width="12" height="18" viewBox="0 0 12 18" fill="none" xmlns="http://www.w3.org/2000/svg">
<g id="label-paired / caption / clapperboard-play-caption / fill" clip-path="url(#clip0_3431_678)">
<path id="icon" d="M10.6172 4.27344L7.66406 7.22656L7.64062 7.25H5.46094L8.46094 4.27344L8.48438 4.25H10.5C10.5469 4.25 10.5703 4.27344 10.6172 4.27344ZM9.21094 7.25L11.6719 4.8125C11.8594 5.07031 12 5.39844 12 5.75V7.25H9.21094ZM4.71094 4.25H6.89062L3.91406 7.22656L3.89062 7.25H1.71094L4.71094 4.27344L4.73438 4.25H4.71094ZM3.14062 4.25L0.164062 7.22656L0.140625 7.25H0V5.75C0 4.92969 0.65625 4.25 1.5 4.25H3.14062ZM0 8H12V13.25C12 14.0938 11.3203 14.75 10.5 14.75H1.5C0.65625 14.75 0 14.0938 0 13.25V8ZM5.0625 9.54688C4.94531 9.61719 4.875 9.75781 4.875 9.875V12.875C4.875 13.0156 4.94531 13.1562 5.0625 13.2266C5.17969 13.2734 5.34375 13.2734 5.4375 13.2031L7.6875 11.7031C7.80469 11.6328 7.875 11.5156 7.875 11.375C7.875 11.2578 7.80469 11.1406 7.6875 11.0703L5.4375 9.57031C5.34375 9.5 5.17969 9.5 5.0625 9.54688Z" fill="black" fill-opacity="0.72"/>
</g>
<defs>
<clipPath id="clip0_3431_678">
<rect width="12" height="18" fill="white"/>
</clipPath>
</defs>
</svg>
