<svg width="9" height="18" viewBox="0 0 9 18" fill="none" xmlns="http://www.w3.org/2000/svg">
<g id="label-paired / caption / file-lines-caption / bold" clip-path="url(#clip0_3431_732)">
<path id="icon" d="M1.5 14.375H7.5C7.6875 14.375 7.875 14.2109 7.875 14V7.25H6C5.57812 7.25 5.25 6.92188 5.25 6.5V4.625H1.5C1.28906 4.625 1.125 4.8125 1.125 5V14C1.125 14.2109 1.28906 14.375 1.5 14.375ZM1.5 3.5H5.36719C5.76562 3.5 6.14062 3.66406 6.42188 3.94531L8.55469 6.07812C8.83594 6.35938 9 6.73438 9 7.13281V14C9 14.8438 8.32031 15.5 7.5 15.5H1.5C0.65625 15.5 0 14.8438 0 14V5C0 4.17969 0.65625 3.5 1.5 3.5ZM2.8125 9.5H6.1875C6.49219 9.5 6.75 9.75781 6.75 10.0625C6.75 10.3906 6.49219 10.625 6.1875 10.625H2.8125C2.48438 10.625 2.25 10.3906 2.25 10.0625C2.25 9.75781 2.48438 9.5 2.8125 9.5ZM2.8125 11.75H6.1875C6.49219 11.75 6.75 12.0078 6.75 12.3125C6.75 12.6406 6.49219 12.875 6.1875 12.875H2.8125C2.48438 12.875 2.25 12.6406 2.25 12.3125C2.25 12.0078 2.48438 11.75 2.8125 11.75Z" fill="black" fill-opacity="0.72"/>
</g>
<defs>
<clipPath id="clip0_3431_732">
<rect width="9" height="18" fill="white"/>
</clipPath>
</defs>
</svg>
