<svg width="25" height="30" viewBox="0 0 25 30" fill="none" xmlns="http://www.w3.org/2000/svg">
<g id="label-paired / lg / hands-holding-diamond-lg / fill" clip-path="url(#clip0_2556_16922)">
<path id="icon" d="M11.6016 5.89062C12.0703 5.38281 12.8906 5.38281 13.3594 5.89062L17.1094 9.64062C17.6172 10.1094 17.6172 10.9297 17.1094 11.3984L13.3594 15.1484C12.8906 15.6562 12.0703 15.6562 11.6016 15.1484L7.85156 11.3984C7.34375 10.9297 7.34375 10.1094 7.85156 9.64062L11.6016 5.89062ZM3.125 9.5625V11.125V14.25V15.8516C3.125 16.5156 3.35938 17.1406 3.82812 17.6094L5.82031 19.6016C6.17188 19.9141 6.67969 19.9922 7.03125 19.7188C7.53906 19.4062 7.61719 18.6641 7.1875 18.2344L6.60156 17.6484L5.35156 16.3984C4.84375 15.9297 4.84375 15.1094 5.35156 14.6406C5.82031 14.1328 6.64062 14.1328 7.10938 14.6406L8.35938 15.8906L8.94531 16.4766L9.96094 17.4531C10.7812 18.2734 11.25 19.4062 11.25 20.5781V23.625C11.25 24.6797 10.3906 25.5 9.375 25.5H6.75781C6.09375 25.5 5.46875 25.2656 5 24.7969L1.09375 20.8906C0.390625 20.1875 0 19.2109 0 18.2344V14.25V11.75V9.5625C0 8.70312 0.664062 8 1.5625 8C2.42188 8 3.125 8.70312 3.125 9.5625ZM21.875 9.5625C21.875 8.70312 22.5781 8 23.4375 8C24.2969 8 25 8.70312 25 9.5625V11.75V14.25V18.2344C25 19.2109 24.6094 20.1875 23.9062 20.8906L20 24.7969C19.5312 25.2656 18.8672 25.5 18.2031 25.5H15.625C14.5703 25.5 13.75 24.6797 13.75 23.625V20.5781C13.75 19.4062 14.1797 18.2734 15 17.4531L16.0156 16.4766L16.6016 15.8906L17.8516 14.6406C18.3203 14.1328 19.1406 14.1328 19.6094 14.6406C20.1172 15.1094 20.1172 15.9297 19.6094 16.3984L18.3594 17.6484L17.7734 18.2344C17.3438 18.6641 17.4219 19.4062 17.9297 19.7188C18.2812 19.9922 18.7891 19.9141 19.1406 19.6016L21.1328 17.6094C21.6016 17.1406 21.875 16.5156 21.875 15.8516V14.25V11.125V9.5625Z" fill="black" fill-opacity="0.72"/>
</g>
<defs>
<clipPath id="clip0_2556_16922">
<rect width="25" height="30" fill="white"/>
</clipPath>
</defs>
</svg>
