<svg width="12" height="18" viewBox="0 0 12 18" fill="none" xmlns="http://www.w3.org/2000/svg">
<g id="label-paired / caption / circle-chevron-up-caption / bold" clip-path="url(#clip0_2556_10281)">
<path id="icon" d="M6 4.625C4.24219 4.625 2.64844 5.5625 1.75781 7.0625C0.890625 8.58594 0.890625 10.4375 1.75781 11.9375C2.64844 13.4609 4.24219 14.375 6 14.375C7.73438 14.375 9.32812 13.4609 10.2188 11.9375C11.0859 10.4375 11.0859 8.58594 10.2188 7.0625C9.32812 5.5625 7.73438 4.625 6 4.625ZM6 15.5C3.84375 15.5 1.875 14.375 0.796875 12.5C-0.28125 10.6484 -0.28125 8.375 0.796875 6.5C1.875 4.64844 3.84375 3.5 6 3.5C8.13281 3.5 10.1016 4.64844 11.1797 6.5C12.2578 8.375 12.2578 10.6484 11.1797 12.5C10.1016 14.375 8.13281 15.5 6 15.5ZM8.83594 9.85156H8.8125C9.04688 10.0859 9.04688 10.4375 8.8125 10.6484C8.60156 10.8828 8.25 10.8828 8.01562 10.6484L5.97656 8.60938L3.9375 10.6484C3.72656 10.8828 3.375 10.8828 3.16406 10.6484C2.92969 10.4375 2.92969 10.0859 3.16406 9.85156L5.60156 7.41406C5.8125 7.20312 6.16406 7.20312 6.39844 7.41406L8.83594 9.85156Z" fill="black" fill-opacity="0.72"/>
</g>
<defs>
<clipPath id="clip0_2556_10281">
<rect width="12" height="18" fill="white"/>
</clipPath>
</defs>
</svg>
