<svg width="13" height="30" viewBox="0 0 13 30" fill="none" xmlns="http://www.w3.org/2000/svg">
<g id="label-paired / lg / forward-step-lg / regular" clip-path="url(#clip0_2556_16978)">
<path id="icon" d="M10.25 8.625C10.25 8.3125 10.5234 8 10.875 8C11.1875 8 11.5 8.3125 11.5 8.625V14.9531V16.0859V22.375C11.5 22.7266 11.1875 23 10.875 23C10.5234 23 10.25 22.7266 10.25 22.375V17.1016L3.25781 22.7656C3.0625 22.9219 2.82812 23 2.55469 23C1.96875 23 1.5 22.5312 1.5 21.9453V9.09375C1.5 8.50781 1.96875 8 2.55469 8C2.82812 8 3.0625 8.11719 3.25781 8.27344L10.25 13.9375V8.625ZM2.75 9.44531V21.5938L10.1719 15.5L2.75 9.44531Z" fill="black" fill-opacity="0.72"/>
</g>
<defs>
<clipPath id="clip0_2556_16978">
<rect width="13" height="30" fill="white"/>
</clipPath>
</defs>
</svg>
