<svg width="20" height="30" viewBox="0 0 20 30" fill="none" xmlns="http://www.w3.org/2000/svg">
<g id="label-paired / lg / chart-mixed-lg / fill" clip-path="url(#clip0_2556_17223)">
<path id="icon" d="M19.5312 8.97656L13.2812 13.9766C12.8125 14.3672 12.1875 14.3672 11.7188 14.0156L7.5 10.8516L2.03125 15.2266C1.48438 15.6562 0.703125 15.5781 0.273438 15.0312C-0.15625 14.5234 -0.078125 13.7031 0.46875 13.2734L6.71875 8.27344C7.14844 7.92188 7.77344 7.92188 8.24219 8.27344L12.4609 11.4375L17.9688 7.02344C18.4766 6.59375 19.2969 6.71094 19.7266 7.21875C20.1562 7.76562 20.0391 8.54688 19.5312 8.97656ZM6.25 15.5C6.25 14.8359 6.79688 14.25 7.5 14.25C8.16406 14.25 8.75 14.8359 8.75 15.5V23C8.75 23.7031 8.16406 24.25 7.5 24.25C6.79688 24.25 6.25 23.7031 6.25 23V15.5ZM1.25 19.25C1.25 18.5859 1.79688 18 2.5 18C3.16406 18 3.75 18.5859 3.75 19.25V23C3.75 23.7031 3.16406 24.25 2.5 24.25C1.79688 24.25 1.25 23.7031 1.25 23V19.25ZM12.5 16.75C13.1641 16.75 13.75 17.3359 13.75 18V23C13.75 23.7031 13.1641 24.25 12.5 24.25C11.7969 24.25 11.25 23.7031 11.25 23V18C11.25 17.3359 11.7969 16.75 12.5 16.75ZM16.25 15.5C16.25 14.8359 16.7969 14.25 17.5 14.25C18.1641 14.25 18.75 14.8359 18.75 15.5V23C18.75 23.7031 18.1641 24.25 17.5 24.25C16.7969 24.25 16.25 23.7031 16.25 23V15.5Z" fill="black" fill-opacity="0.72"/>
</g>
<defs>
<clipPath id="clip0_2556_17223">
<rect width="20" height="30" fill="white"/>
</clipPath>
</defs>
</svg>
