<svg width="9" height="18" viewBox="0 0 9 18" fill="none" xmlns="http://www.w3.org/2000/svg">
<g id="label-paired / caption / lightbulb-caption / fill" clip-path="url(#clip0_2512_1018)">
<path id="icon" d="M6.375 12.5H2.625C2.35938 11.7656 1.97656 11.0938 1.47656 10.4844C1.47656 10.4844 1.47656 10.4766 1.47656 10.4609C1.35156 10.3047 1.22656 10.1406 1.10156 9.96875C0.632812 9.29688 0.390625 8.51562 0.375 7.625C0.40625 6.45312 0.8125 5.48438 1.59375 4.71875C2.35938 3.9375 3.32812 3.53125 4.5 3.5C5.67188 3.53125 6.64062 3.9375 7.40625 4.71875C8.1875 5.48438 8.59375 6.45312 8.625 7.625C8.60938 8.51562 8.36719 9.29688 7.89844 9.96875C7.77344 10.1406 7.64844 10.3125 7.52344 10.4844C7.52344 10.4844 7.52344 10.4922 7.52344 10.5078C7.02344 11.1172 6.64062 11.7812 6.375 12.5ZM4.5 15.5C3.96875 15.4844 3.52344 15.3047 3.16406 14.9609C2.82031 14.6016 2.64062 14.1562 2.625 13.625V13.25H6.375V13.625C6.35938 14.1562 6.17969 14.6016 5.83594 14.9609C5.47656 15.3047 5.03125 15.4844 4.5 15.5ZM2.625 7.625C2.64062 7.09375 2.82031 6.64844 3.16406 6.28906C3.52344 5.94531 3.96875 5.76562 4.5 5.75C4.73438 5.73438 4.85938 5.60938 4.875 5.375C4.85938 5.14062 4.73438 5.01562 4.5 5C3.75 5.01562 3.13281 5.27344 2.64844 5.77344C2.14844 6.25781 1.89062 6.875 1.875 7.625C1.89062 7.85938 2.01562 7.98438 2.25 8C2.48438 7.98438 2.60938 7.85938 2.625 7.625Z" fill="black" fill-opacity="0.72"/>
</g>
<defs>
<clipPath id="clip0_2512_1018">
<rect width="9" height="18" fill="white"/>
</clipPath>
</defs>
</svg>
