<svg width="12" height="18" viewBox="0 0 12 18" fill="none" xmlns="http://www.w3.org/2000/svg">
<g id="label-paired / caption / fingerprint-caption / bold" clip-path="url(#clip0_2556_9947)">
<path id="icon" d="M1.125 9.5V10.4375C1.125 10.7656 0.867188 11 0.5625 11C0.234375 11 0 10.7656 0 10.4375V9.5C0 6.19531 2.67188 3.5 6 3.5C7.80469 3.5 9.44531 4.32031 10.5469 5.60938C10.7344 5.84375 10.7109 6.19531 10.4766 6.40625C10.2422 6.59375 9.89062 6.57031 9.67969 6.33594C8.78906 5.30469 7.47656 4.625 6 4.625C3.30469 4.625 1.125 6.82812 1.125 9.5ZM11.8594 8.28125C11.9531 8.67969 12 9.07812 12 9.5V10.4609C12 10.7656 11.7422 11.0234 11.4375 11.0234C11.1094 11.0234 10.875 10.7656 10.875 10.4609V9.52344C10.875 9.17188 10.8281 8.82031 10.7578 8.49219C10.6875 8.21094 10.8984 7.90625 11.2031 7.83594C11.5078 7.76562 11.7891 7.97656 11.8594 8.28125ZM6 5.375C8.27344 5.375 10.125 7.22656 10.125 9.5V10.0859C10.125 10.7422 10.0781 11.3984 10.0078 12.0312C9.96094 12.3125 9.72656 12.5 9.44531 12.5C9.11719 12.5 8.83594 12.1953 8.88281 11.8672C8.95312 11.2812 9 10.6953 9 10.0859V9.5C9 7.85938 7.64062 6.5 6 6.5C5.71875 6.5 5.46094 6.54688 5.20312 6.61719C4.96875 6.6875 4.6875 6.61719 4.52344 6.42969C4.26562 6.14844 4.35938 5.70312 4.71094 5.58594C5.10938 5.44531 5.55469 5.375 6 5.375ZM3.51562 6.99219C3.70312 7.22656 3.70312 7.55469 3.51562 7.78906C3.1875 8.28125 3 8.86719 3 9.5V10.0859C3 10.7656 2.90625 11.4453 2.76562 12.1016C2.71875 12.3359 2.48438 12.5 2.25 12.5C1.875 12.5 1.59375 12.1484 1.6875 11.7734C1.80469 11.2344 1.875 10.6719 1.875 10.0859V9.5C1.875 8.5625 2.17969 7.67188 2.71875 6.99219C2.92969 6.73438 3.30469 6.75781 3.51562 6.99219ZM8.25 9.5V10.0859C8.25 11.0234 8.15625 11.9609 7.96875 12.8516C7.92188 13.0859 7.71094 13.25 7.47656 13.25C7.14844 13.25 6.89062 12.9453 6.96094 12.6172C7.125 11.7969 7.21875 10.9531 7.21875 10.0859V9.5C7.21875 8.84375 6.65625 8.28125 6 8.28125C5.32031 8.28125 4.78125 8.84375 4.78125 9.5V10.0859C4.78125 11.0469 4.64062 11.9844 4.40625 12.8984C4.33594 13.1094 4.14844 13.25 3.91406 13.25C3.5625 13.25 3.32812 12.9219 3.42188 12.5703C3.63281 11.7734 3.75 10.9297 3.75 10.0859V9.5C3.75 8.25781 4.75781 7.25 6 7.25C7.24219 7.25 8.25 8.25781 8.25 9.5ZM6 8.9375C6.30469 8.9375 6.5625 9.19531 6.5625 9.5V10.0859C6.5625 11.6328 6.25781 13.1562 5.71875 14.6094L5.57812 14.9609C5.46094 15.2422 5.13281 15.4062 4.85156 15.2891C4.57031 15.1719 4.40625 14.8438 4.52344 14.5625L4.66406 14.2109C5.17969 12.8984 5.4375 11.4922 5.4375 10.0859V9.5C5.4375 9.19531 5.67188 8.9375 6 8.9375Z" fill="black" fill-opacity="0.72"/>
</g>
<defs>
<clipPath id="clip0_2556_9947">
<rect width="12" height="18" fill="white"/>
</clipPath>
</defs>
</svg>
