<svg width="14" height="24" viewBox="0 0 14 24" fill="none" xmlns="http://www.w3.org/2000/svg">
<g id="label-paired / md / whatsapp-md" clip-path="url(#clip0_2556_14648)">
<path id="icon" d="M11.875 7.0625C13.1875 8.375 14 10.0938 14 11.9688C14 15.7812 10.8125 18.9062 6.96875 18.9062C5.8125 18.9062 4.6875 18.5938 3.65625 18.0625L0 19L0.96875 15.4062C0.375 14.375 0.03125 13.1875 0.03125 11.9375C0.03125 8.125 3.15625 5 6.96875 5C8.84375 5 10.5938 5.75 11.875 7.0625ZM6.96875 17.7188C10.1562 17.7188 12.8125 15.125 12.8125 11.9688C12.8125 10.4062 12.1562 8.96875 11.0625 7.875C9.96875 6.78125 8.53125 6.1875 7 6.1875C3.8125 6.1875 1.21875 8.78125 1.21875 11.9375C1.21875 13.0312 1.53125 14.0938 2.09375 15.0312L2.25 15.25L1.65625 17.375L3.84375 16.7812L4.03125 16.9062C4.9375 17.4375 5.9375 17.7188 6.96875 17.7188ZM10.1562 13.4062C10.3125 13.5 10.4375 13.5312 10.4688 13.625C10.5312 13.6875 10.5312 14.0312 10.375 14.4375C10.2188 14.8438 9.53125 15.2188 9.21875 15.25C8.65625 15.3438 8.21875 15.3125 7.125 14.8125C5.375 14.0625 4.25 12.3125 4.15625 12.2188C4.0625 12.0938 3.46875 11.2812 3.46875 10.4062C3.46875 9.5625 3.90625 9.15625 4.0625 8.96875C4.21875 8.78125 4.40625 8.75 4.53125 8.75C4.625 8.75 4.75 8.75 4.84375 8.75C4.96875 8.75 5.09375 8.71875 5.25 9.0625C5.375 9.40625 5.75 10.25 5.78125 10.3438C5.8125 10.4375 5.84375 10.5312 5.78125 10.6562C5.46875 11.3125 5.09375 11.2812 5.28125 11.5938C5.96875 12.75 6.625 13.1562 7.65625 13.6562C7.8125 13.75 7.90625 13.7188 8.03125 13.625C8.125 13.5 8.46875 13.0938 8.5625 12.9375C8.6875 12.75 8.8125 12.7812 8.96875 12.8438C9.125 12.9062 9.96875 13.3125 10.1562 13.4062Z" fill="black" fill-opacity="0.72"/>
</g>
<defs>
<clipPath id="clip0_2556_14648">
<rect width="14" height="24" fill="white"/>
</clipPath>
</defs>
</svg>
