<svg width="14" height="22" viewBox="0 0 14 22" fill="none" xmlns="http://www.w3.org/2000/svg">
<g id="label-paired / sm / circle-user-sm / regular" clip-path="url(#clip0_2556_12287)">
<path id="icon" d="M11.2656 15.1523C12.4141 14.0312 13.125 12.4727 13.125 10.75C13.125 7.38672 10.3633 4.625 7 4.625C3.60938 4.625 0.875 7.38672 0.875 10.75C0.875 12.4727 1.58594 14.0312 2.70703 15.1523C3.08984 13.6484 4.48438 12.5 6.125 12.5H7.875C9.48828 12.5 10.8828 13.6484 11.2656 15.1523ZM10.4727 15.7812V15.8086C10.3633 14.4414 9.24219 13.375 7.875 13.375H6.125C4.73047 13.375 3.60938 14.4414 3.5 15.8086C4.48438 16.4922 5.6875 16.875 7 16.875C8.28516 16.875 9.48828 16.4922 10.4727 15.7812ZM7 17.75C4.48438 17.75 2.1875 16.4375 0.929688 14.25C-0.328125 12.0898 -0.328125 9.4375 0.929688 7.25C2.1875 5.08984 4.48438 3.75 7 3.75C9.48828 3.75 11.7852 5.08984 13.043 7.25C14.3008 9.4375 14.3008 12.0898 13.043 14.25C11.7852 16.4375 9.48828 17.75 7 17.75ZM7 10.75C7.46484 10.75 7.875 10.5039 8.12109 10.0938C8.36719 9.71094 8.36719 9.19141 8.12109 8.78125C7.875 8.39844 7.46484 8.125 7 8.125C6.50781 8.125 6.09766 8.39844 5.85156 8.78125C5.60547 9.19141 5.60547 9.71094 5.85156 10.0938C6.09766 10.5039 6.50781 10.75 7 10.75ZM4.8125 9.4375C4.8125 8.67188 5.22266 7.96094 5.90625 7.55078C6.5625 7.16797 7.41016 7.16797 8.09375 7.55078C8.75 7.96094 9.1875 8.67188 9.1875 9.4375C9.1875 10.2305 8.75 10.9414 8.09375 11.3516C7.41016 11.7344 6.5625 11.7344 5.90625 11.3516C5.22266 10.9414 4.8125 10.2305 4.8125 9.4375Z" fill="black" fill-opacity="0.72"/>
</g>
<defs>
<clipPath id="clip0_2556_12287">
<rect width="14" height="22" fill="white"/>
</clipPath>
</defs>
</svg>
