<svg width="18" height="30" viewBox="0 0 18 30" fill="none" xmlns="http://www.w3.org/2000/svg">
<g id="label-paired / lg / user-lg / regular" clip-path="url(#clip0_2556_17157)">
<path id="icon" d="M12.75 10.5C12.75 9.17188 12.0078 7.96094 10.875 7.25781C9.70312 6.59375 8.25781 6.59375 7.125 7.25781C5.95312 7.96094 5.25 9.17188 5.25 10.5C5.25 11.8672 5.95312 13.0781 7.125 13.7812C8.25781 14.4453 9.70312 14.4453 10.875 13.7812C12.0078 13.0781 12.75 11.8672 12.75 10.5ZM4 10.5C4 8.74219 4.9375 7.10156 6.5 6.20312C8.02344 5.30469 9.9375 5.30469 11.5 6.20312C13.0234 7.10156 14 8.74219 14 10.5C14 12.2969 13.0234 13.9375 11.5 14.8359C9.9375 15.7344 8.02344 15.7344 6.5 14.8359C4.9375 13.9375 4 12.2969 4 10.5ZM1.5 24.25H16.5C16.4219 21.1641 13.8828 18.625 10.7578 18.625H7.20312C4.07812 18.625 1.53906 21.1641 1.5 24.25ZM0.25 24.3672C0.25 20.5 3.33594 17.375 7.20312 17.375H10.7578C14.625 17.375 17.75 20.5 17.75 24.3672C17.75 24.9922 17.2031 25.5 16.5781 25.5H1.38281C0.757812 25.5 0.25 24.9922 0.25 24.3672Z" fill="black" fill-opacity="0.72"/>
</g>
<defs>
<clipPath id="clip0_2556_17157">
<rect width="18" height="30" fill="white"/>
</clipPath>
</defs>
</svg>
