<svg width="14" height="24" viewBox="0 0 14 24" fill="none" xmlns="http://www.w3.org/2000/svg">
<g id="label-paired / md / arrow-left-to-line-md / regular" clip-path="url(#clip0_2556_14875)">
<path id="icon" d="M0 17.5V6.5C0 6.25 0.21875 6 0.5 6C0.75 6 1 6.25 1 6.5V17.5C1 17.7812 0.75 18 0.5 18C0.21875 18 0 17.7812 0 17.5ZM3.125 11.6562L7.125 7.65625C7.3125 7.46875 7.65625 7.46875 7.84375 7.65625C8.03125 7.84375 8.03125 8.1875 7.84375 8.375L4.6875 11.5H8H13.5C13.75 11.5 14 11.75 14 12C14 12.2812 13.75 12.5 13.5 12.5H8H4.6875L7.84375 15.6562C8.03125 15.8438 8.03125 16.1875 7.84375 16.375C7.65625 16.5625 7.3125 16.5625 7.125 16.375L3.125 12.375C2.9375 12.1875 2.9375 11.8438 3.125 11.6562Z" fill="black" fill-opacity="0.72"/>
</g>
<defs>
<clipPath id="clip0_2556_14875">
<rect width="14" height="24" fill="white"/>
</clipPath>
</defs>
</svg>
