<svg width="24" height="36" viewBox="0 0 24 36" fill="none" xmlns="http://www.w3.org/2000/svg">
<g id="label-paired / xl / at-xl / fill" clip-path="url(#clip0_2556_19430)">
<path id="icon" d="M12 9C7.03125 9 3 13.0312 3 18C3 22.9688 7.03125 27 12 27C12.7969 27 13.5 27.7031 13.5 28.5C13.5 29.3438 12.7969 30 12 30C5.34375 30 0 24.6562 0 18C0 11.3906 5.34375 6 12 6C18.6094 6 24 11.3906 24 18V19.5C24 21.9844 21.9844 24 19.5 24C18.0938 24 16.875 23.3906 16.0312 22.4531C15 23.4375 13.5469 24 12 24C8.67188 24 6 21.3281 6 18C6 14.7188 8.67188 12 12 12C13.2656 12 14.4844 12.4219 15.4688 13.1719C15.75 12.9375 16.0781 12.75 16.5 12.75C17.2969 12.75 18 13.4531 18 14.25V18V19.5C18 20.3438 18.6562 21 19.5 21C20.2969 21 21 20.3438 21 19.5V18C21 13.0312 16.9688 9 12 9ZM15 18C15 16.9688 14.3906 15.9844 13.5 15.4219C12.5625 14.9062 11.3906 14.9062 10.5 15.4219C9.5625 15.9844 9 16.9688 9 18C9 19.0781 9.5625 20.0625 10.5 20.625C11.3906 21.1406 12.5625 21.1406 13.5 20.625C14.3906 20.0625 15 19.0781 15 18Z" fill="black" fill-opacity="0.72"/>
</g>
<defs>
<clipPath id="clip0_2556_19430">
<rect width="24" height="36" fill="white"/>
</clipPath>
</defs>
</svg>
