<svg width="18" height="36" viewBox="0 0 18 36" fill="none" xmlns="http://www.w3.org/2000/svg">
<g id="label-paired / xl / apple-xl" clip-path="url(#clip0_2556_19238)">
<path id="icon" d="M14.9062 18.6094C14.9062 18.7031 14.7656 21.4688 17.8125 22.9219C17.25 24.6562 15.2812 28.5 12.9844 28.5C11.6719 28.5 10.9219 27.6562 9.42188 27.6562C7.875 27.6562 7.03125 28.5 5.85938 28.5C3.60938 28.5938 1.45312 24.375 0.84375 22.6406C0.375 21.3281 0.1875 20.0625 0.1875 18.8438C0.1875 14.6719 2.95312 12.6562 5.57812 12.6094C6.84375 12.6094 8.4375 13.5 9.14062 13.5C9.79688 13.5 11.625 12.4219 13.3125 12.5625C15.0469 12.7031 16.3594 13.3594 17.25 14.625C15.7031 15.6094 14.9062 16.875 14.9062 18.6094ZM12.2812 10.9219C11.3438 12 10.2188 12.6094 9 12.5156C8.90625 11.25 9.375 10.0781 10.2188 9.14062C10.9688 8.29688 12.2812 7.59375 13.4062 7.5C13.4062 8.01562 13.5469 9.42188 12.2812 10.9219Z" fill="black" fill-opacity="0.72"/>
</g>
<defs>
<clipPath id="clip0_2556_19238">
<rect width="18" height="36" fill="white"/>
</clipPath>
</defs>
</svg>
