<svg width="16" height="24" viewBox="0 0 16 24" fill="none" xmlns="http://www.w3.org/2000/svg">
<g id="label-paired / md / circle-user-md / regular" clip-path="url(#clip0_2556_14969)">
<path id="icon" d="M12.875 17.0312C14.1875 15.75 15 13.9688 15 12C15 8.15625 11.8438 5 8 5C4.125 5 1 8.15625 1 12C1 13.9688 1.8125 15.75 3.09375 17.0312C3.53125 15.3125 5.125 14 7 14H9C10.8438 14 12.4375 15.3125 12.875 17.0312ZM11.9688 17.75V17.7812C11.8438 16.2188 10.5625 15 9 15H7C5.40625 15 4.125 16.2188 4 17.7812C5.125 18.5625 6.5 19 8 19C9.46875 19 10.8438 18.5625 11.9688 17.75ZM8 20C5.125 20 2.5 18.5 1.0625 16C-0.375 13.5312 -0.375 10.5 1.0625 8C2.5 5.53125 5.125 4 8 4C10.8438 4 13.4688 5.53125 14.9062 8C16.3438 10.5 16.3438 13.5312 14.9062 16C13.4688 18.5 10.8438 20 8 20ZM8 12C8.53125 12 9 11.7188 9.28125 11.25C9.5625 10.8125 9.5625 10.2188 9.28125 9.75C9 9.3125 8.53125 9 8 9C7.4375 9 6.96875 9.3125 6.6875 9.75C6.40625 10.2188 6.40625 10.8125 6.6875 11.25C6.96875 11.7188 7.4375 12 8 12ZM5.5 10.5C5.5 9.625 5.96875 8.8125 6.75 8.34375C7.5 7.90625 8.46875 7.90625 9.25 8.34375C10 8.8125 10.5 9.625 10.5 10.5C10.5 11.4062 10 12.2188 9.25 12.6875C8.46875 13.125 7.5 13.125 6.75 12.6875C5.96875 12.2188 5.5 11.4062 5.5 10.5Z" fill="black" fill-opacity="0.72"/>
</g>
<defs>
<clipPath id="clip0_2556_14969">
<rect width="16" height="24" fill="white"/>
</clipPath>
</defs>
</svg>
