<svg width="12" height="18" viewBox="0 0 12 18" fill="none" xmlns="http://www.w3.org/2000/svg">
<g id="label-paired / caption / image-caption / fill" clip-path="url(#clip0_2556_9891)">
<path id="icon" d="M0 5.75C0 4.92969 0.65625 4.25 1.5 4.25H10.5C11.3203 4.25 12 4.92969 12 5.75V13.25C12 14.0938 11.3203 14.75 10.5 14.75H1.5C0.65625 14.75 0 14.0938 0 13.25V5.75ZM7.57031 8.25781C7.47656 8.09375 7.28906 8 7.125 8C6.9375 8 6.75 8.09375 6.65625 8.25781L4.61719 11.2578L3.98438 10.4609C3.89062 10.3438 3.72656 10.25 3.5625 10.25C3.375 10.25 3.21094 10.3438 3.11719 10.4609L1.61719 12.3359C1.47656 12.5234 1.45312 12.7578 1.54688 12.9453C1.64062 13.1328 1.82812 13.25 2.0625 13.25H4.3125H5.0625H9.9375C10.125 13.25 10.3359 13.1562 10.4297 12.9688C10.5234 12.7812 10.5 12.5469 10.3828 12.3828L7.57031 8.25781ZM2.625 8C3.02344 8 3.375 7.78906 3.58594 7.4375C3.79688 7.10938 3.79688 6.66406 3.58594 6.3125C3.375 5.98438 3.02344 5.75 2.625 5.75C2.20312 5.75 1.85156 5.98438 1.64062 6.3125C1.42969 6.66406 1.42969 7.10938 1.64062 7.4375C1.85156 7.78906 2.20312 8 2.625 8Z" fill="black" fill-opacity="0.72"/>
</g>
<defs>
<clipPath id="clip0_2556_9891">
<rect width="12" height="18" fill="white"/>
</clipPath>
</defs>
</svg>
