<svg width="16" height="24" viewBox="0 0 16 24" fill="none" xmlns="http://www.w3.org/2000/svg">
<g id="label-paired / md / gauge-min-md / regular" clip-path="url(#clip0_2556_15202)">
<path id="icon" d="M8 5C5.46875 5 3.1875 6.34375 1.9375 8.5C0.65625 10.6875 0.65625 13.3438 1.9375 15.5C3.1875 17.6875 5.46875 19 8 19C10.5 19 12.7812 17.6875 14.0312 15.5C15.3125 13.3438 15.3125 10.6875 14.0312 8.5C12.7812 6.34375 10.5 5 8 5ZM8 20C5.125 20 2.5 18.5 1.0625 16C-0.375 13.5312 -0.375 10.5 1.0625 8C2.5 5.53125 5.125 4 8 4C10.8438 4 13.4688 5.53125 14.9062 8C16.3438 10.5 16.3438 13.5312 14.9062 16C13.4688 18.5 10.8438 20 8 20ZM8.75 7C8.75 7.4375 8.40625 7.75 8 7.75C7.5625 7.75 7.25 7.4375 7.25 7C7.25 6.59375 7.5625 6.25 8 6.25C8.40625 6.25 8.75 6.59375 8.75 7ZM7 15C7 15.5625 7.4375 16 8 16C8.53125 16 9 15.5625 9 15C9 14.4688 8.53125 14 8 14C7.4375 14 7 14.4688 7 15ZM10 15L9.96875 15.0312C9.96875 16.125 9.09375 17.0312 7.96875 17.0312C6.875 17.0312 5.96875 16.125 5.96875 15.0312C5.96875 14.8125 6 14.625 6.0625 14.4375L2.71875 12.4375C2.5 12.3125 2.40625 12 2.5625 11.75C2.6875 11.5312 3 11.4375 3.25 11.5938L6.59375 13.5938C6.9375 13.2188 7.4375 13 8 13C9.09375 13 10 13.9062 10 15ZM5.25 8.5C5.25 8.9375 4.90625 9.25 4.5 9.25C4.0625 9.25 3.75 8.9375 3.75 8.5C3.75 8.09375 4.0625 7.75 4.5 7.75C4.90625 7.75 5.25 8.09375 5.25 8.5ZM13 12.75C12.5625 12.75 12.25 12.4375 12.25 12C12.25 11.5938 12.5625 11.25 13 11.25C13.4062 11.25 13.75 11.5938 13.75 12C13.75 12.4375 13.4062 12.75 13 12.75ZM12.25 8.5C12.25 8.9375 11.9062 9.25 11.5 9.25C11.0625 9.25 10.75 8.9375 10.75 8.5C10.75 8.09375 11.0625 7.75 11.5 7.75C11.9062 7.75 12.25 8.09375 12.25 8.5Z" fill="black" fill-opacity="0.72"/>
</g>
<defs>
<clipPath id="clip0_2556_15202">
<rect width="16" height="24" fill="white"/>
</clipPath>
</defs>
</svg>
