<svg width="12" height="18" viewBox="0 0 12 18" fill="none" xmlns="http://www.w3.org/2000/svg">
<g id="label-paired / caption / scissors-caption / regular" clip-path="url(#clip0_2556_10040)">
<path id="icon" d="M11.9062 13.8828C11.7656 14.0469 11.5312 14.0469 11.3672 13.9297L7.80469 10.8828C7.64062 10.7656 7.64062 10.5078 7.75781 10.3672C7.89844 10.2031 8.13281 10.1797 8.29688 10.3203L11.8594 13.3438C12.0234 13.4844 12.0234 13.7188 11.9062 13.8828ZM6.72656 9.03125L11.3672 5.09375C11.5312 4.97656 11.7656 4.97656 11.9062 5.14062C12.0234 5.30469 12.0234 5.53906 11.8594 5.67969L4.875 11.5625C5.10938 11.9375 5.25 12.4062 5.25 12.875C5.25 14.3281 4.05469 15.5 2.625 15.5C1.17188 15.5 0 14.3281 0 12.875C0 11.4453 1.17188 10.25 2.625 10.25C3.30469 10.25 3.9375 10.5312 4.40625 10.9766L6.14062 9.5L4.40625 8.04688C3.9375 8.49219 3.30469 8.75 2.625 8.75C1.17188 8.75 0 7.57812 0 6.125C0 4.69531 1.17188 3.5 2.625 3.5C4.05469 3.5 5.25 4.69531 5.25 6.14844C5.25 6.61719 5.10938 7.08594 4.875 7.46094L6.72656 9.03125ZM2.625 8C3.28125 8 3.89062 7.64844 4.24219 7.0625C4.57031 6.5 4.57031 5.77344 4.24219 5.1875C3.89062 4.625 3.28125 4.25 2.625 4.25C1.94531 4.25 1.33594 4.625 0.984375 5.1875C0.65625 5.77344 0.65625 6.5 0.984375 7.0625C1.33594 7.64844 1.94531 8 2.625 8ZM2.625 11C1.94531 11 1.33594 11.375 0.984375 11.9375C0.65625 12.5234 0.65625 13.25 0.984375 13.8125C1.33594 14.3984 1.94531 14.75 2.625 14.75C3.28125 14.75 3.89062 14.3984 4.24219 13.8125C4.57031 13.25 4.57031 12.5234 4.24219 11.9375C3.89062 11.375 3.28125 11 2.625 11Z" fill="black" fill-opacity="0.72"/>
</g>
<defs>
<clipPath id="clip0_2556_10040">
<rect width="12" height="18" fill="white"/>
</clipPath>
</defs>
</svg>
