<svg width="20" height="24" viewBox="0 0 20 24" fill="none" xmlns="http://www.w3.org/2000/svg">
<g id="label-paired / md / hand-gesture-tap-right-md / fill" clip-path="url(#clip0_3546_783)">
<path id="icon" d="M13.625 9.96875C14.0312 10.1562 14.1875 10.625 14 11L11.6562 15.9688C11.5625 16.125 11.6562 16.3125 11.7812 16.375C11.9688 16.4375 12.125 16.375 12.2188 16.2188L12.6562 15.25C12.6875 15.2812 12.7188 15.3438 12.75 15.375L12.9375 15.8125C13.0938 16.1562 13.0938 16.5312 12.9375 16.875L12.625 17.5312C12.3125 18.2188 11.7188 18.7188 10.9688 18.9062L10.8438 18.9375C10.1562 19.125 9.40625 19.0312 8.75 18.7188L6.65625 17.7188C5.40625 17.1562 4.875 15.6562 5.46875 14.4062L6.28125 12.7188C6.5 12.25 7.0625 12.0312 7.53125 12.25C7.75 12.375 7.90625 12.5625 8 12.7812C8.21875 12.3438 8.75 12.1562 9.1875 12.375C9.4375 12.4688 9.5625 12.6562 9.65625 12.875C9.90625 12.4375 10.4375 12.2812 10.875 12.4688C11.0938 12.5938 11.25 12.75 11.3438 12.9688L12.5938 10.3438C12.75 9.96875 13.2188 9.78125 13.625 9.96875ZM11.625 11.2812L12.1562 10.1875C12.4375 9.59375 13.1875 9.3125 13.8125 9.59375C14.4375 9.90625 14.6875 10.6562 14.4062 11.2812L13.9375 12.25C14.7812 12 15.375 11.2188 15.375 10.3125C15.375 9.21875 14.5 8.3125 13.375 8.3125C12.2812 8.3125 11.375 9.21875 11.375 10.3125C11.375 10.6562 11.4688 11 11.625 11.2812ZM16.375 5C16.0625 5 15.7812 5.28125 15.7812 5.625V18.4062C15.7812 18.75 16.0625 19 16.375 19C16.7188 19 17 18.75 17 18.4062V5.625C17 5.28125 16.7188 5 16.375 5Z" fill="black" fill-opacity="0.72"/>
</g>
<defs>
<clipPath id="clip0_3546_783">
<rect width="20" height="24" fill="white"/>
</clipPath>
</defs>
</svg>
