<svg width="18" height="24" viewBox="0 0 18 24" fill="none" xmlns="http://www.w3.org/2000/svg">
<g id="label-paired / md / keyboard-md / bold" clip-path="url(#clip0_2556_14746)">
<path id="icon" d="M2 7.5C1.71875 7.5 1.5 7.75 1.5 8V16C1.5 16.2812 1.71875 16.5 2 16.5H16C16.25 16.5 16.5 16.2812 16.5 16V8C16.5 7.75 16.25 7.5 16 7.5H2ZM0 8C0 6.90625 0.875 6 2 6H16C17.0938 6 18 6.90625 18 8V16C18 17.125 17.0938 18 16 18H2C0.875 18 0 17.125 0 16V8ZM5.5 14H12.5C12.75 14 13 14.25 13 14.5V15C13 15.2812 12.75 15.5 12.5 15.5H5.5C5.21875 15.5 5 15.2812 5 15V14.5C5 14.25 5.21875 14 5.5 14ZM3.25 11.75C3.25 11.5 3.46875 11.25 3.75 11.25H4.25C4.5 11.25 4.75 11.5 4.75 11.75V12.25C4.75 12.5312 4.5 12.75 4.25 12.75H3.75C3.46875 12.75 3.25 12.5312 3.25 12.25V11.75ZM3.75 8.75H4.25C4.5 8.75 4.75 9 4.75 9.25V9.75C4.75 10.0312 4.5 10.25 4.25 10.25H3.75C3.46875 10.25 3.25 10.0312 3.25 9.75V9.25C3.25 9 3.46875 8.75 3.75 8.75ZM5.75 11.75C5.75 11.5 5.96875 11.25 6.25 11.25H6.75C7 11.25 7.25 11.5 7.25 11.75V12.25C7.25 12.5312 7 12.75 6.75 12.75H6.25C5.96875 12.75 5.75 12.5312 5.75 12.25V11.75ZM6.25 8.75H6.75C7 8.75 7.25 9 7.25 9.25V9.75C7.25 10.0312 7 10.25 6.75 10.25H6.25C5.96875 10.25 5.75 10.0312 5.75 9.75V9.25C5.75 9 5.96875 8.75 6.25 8.75ZM8.25 11.75C8.25 11.5 8.46875 11.25 8.75 11.25H9.25C9.5 11.25 9.75 11.5 9.75 11.75V12.25C9.75 12.5312 9.5 12.75 9.25 12.75H8.75C8.46875 12.75 8.25 12.5312 8.25 12.25V11.75ZM8.75 8.75H9.25C9.5 8.75 9.75 9 9.75 9.25V9.75C9.75 10.0312 9.5 10.25 9.25 10.25H8.75C8.46875 10.25 8.25 10.0312 8.25 9.75V9.25C8.25 9 8.46875 8.75 8.75 8.75ZM10.75 11.75C10.75 11.5 10.9688 11.25 11.25 11.25H11.75C12 11.25 12.25 11.5 12.25 11.75V12.25C12.25 12.5312 12 12.75 11.75 12.75H11.25C10.9688 12.75 10.75 12.5312 10.75 12.25V11.75ZM11.25 8.75H11.75C12 8.75 12.25 9 12.25 9.25V9.75C12.25 10.0312 12 10.25 11.75 10.25H11.25C10.9688 10.25 10.75 10.0312 10.75 9.75V9.25C10.75 9 10.9688 8.75 11.25 8.75ZM13.25 11.75C13.25 11.5 13.4688 11.25 13.75 11.25H14.25C14.5 11.25 14.75 11.5 14.75 11.75V12.25C14.75 12.5312 14.5 12.75 14.25 12.75H13.75C13.4688 12.75 13.25 12.5312 13.25 12.25V11.75ZM13.75 8.75H14.25C14.5 8.75 14.75 9 14.75 9.25V9.75C14.75 10.0312 14.5 10.25 14.25 10.25H13.75C13.4688 10.25 13.25 10.0312 13.25 9.75V9.25C13.25 9 13.4688 8.75 13.75 8.75Z" fill="black" fill-opacity="0.72"/>
</g>
<defs>
<clipPath id="clip0_2556_14746">
<rect width="18" height="24" fill="white"/>
</clipPath>
</defs>
</svg>
