<svg width="14" height="22" viewBox="0 0 14 22" fill="none" xmlns="http://www.w3.org/2000/svg">
<g id="label-paired / sm / chevrons-down-sm / fill" clip-path="url(#clip0_2556_12647)">
<path id="icon" d="M7.60156 16.6289C7.27344 16.9844 6.69922 16.9844 6.37109 16.6289L1.12109 11.3789C0.765625 11.0508 0.765625 10.4766 1.12109 10.1484C1.44922 9.79297 2.02344 9.79297 2.35156 10.1484L7 14.7695L11.6211 10.1484C11.9492 9.79297 12.5234 9.79297 12.8516 10.1484C13.207 10.4766 13.207 11.0508 12.8516 11.3789L7.60156 16.6289ZM12.8516 6.12891L7.60156 11.3789C7.27344 11.7344 6.69922 11.7344 6.37109 11.3789L1.12109 6.12891C0.765625 5.80078 0.765625 5.22656 1.12109 4.89844C1.44922 4.54297 2.02344 4.54297 2.35156 4.89844L7 9.51953L11.6211 4.89844C11.9492 4.54297 12.5234 4.54297 12.8516 4.89844C13.207 5.22656 13.207 5.80078 12.8516 6.12891Z" fill="black" fill-opacity="0.72"/>
</g>
<defs>
<clipPath id="clip0_2556_12647">
<rect width="14" height="22" fill="white"/>
</clipPath>
</defs>
</svg>
