<svg width="16" height="24" viewBox="0 0 16 24" fill="none" xmlns="http://www.w3.org/2000/svg">
<g id="label-paired / md / triangle-exclamation-md / bold" clip-path="url(#clip0_2556_14655)">
<path id="icon" d="M7.75 6.65625L1.5625 16.8125C1.5 16.9062 1.5 16.9688 1.5 17.0625C1.5 17.3125 1.6875 17.5 1.9375 17.5H14.0312C14.2812 17.5 14.5 17.3125 14.5 17.0625C14.5 16.9688 14.4688 16.9062 14.4062 16.8125L8.21875 6.65625C8.1875 6.5625 8.09375 6.5 8 6.5C7.875 6.5 7.8125 6.5625 7.75 6.65625ZM6.46875 5.875C6.78125 5.34375 7.375 5 8 5C8.59375 5 9.1875 5.34375 9.5 5.875L15.6875 16.0312C15.875 16.3438 16 16.6875 16 17.0625C16 18.125 15.125 19 14.0312 19H1.9375C0.875 19 0 18.125 0 17.0625C0 16.6875 0.09375 16.3438 0.28125 16.0312L6.46875 5.875ZM9 15.5C9 16.0625 8.53125 16.5 8 16.5C7.4375 16.5 7 16.0625 7 15.5C7 14.9688 7.4375 14.5 8 14.5C8.53125 14.5 9 14.9688 9 15.5ZM8.75 9.75V12.75C8.75 13.1875 8.40625 13.5 8 13.5C7.5625 13.5 7.25 13.1875 7.25 12.75V9.75C7.25 9.34375 7.5625 9 8 9C8.40625 9 8.75 9.34375 8.75 9.75Z" fill="black" fill-opacity="0.72"/>
</g>
<defs>
<clipPath id="clip0_2556_14655">
<rect width="16" height="24" fill="white"/>
</clipPath>
</defs>
</svg>
