<svg width="11" height="18" viewBox="0 0 11 18" fill="none" xmlns="http://www.w3.org/2000/svg">
<g id="label-paired / caption / arrow-right-arrow-left-caption / fill" clip-path="url(#clip0_2556_10263)">
<path id="icon" d="M10.5156 7.03906L8.26562 9.28906C7.98438 9.59375 7.49219 9.59375 7.21094 9.28906C6.90625 9.00781 6.90625 8.51562 7.21094 8.23438L8.17188 7.25H1C0.578125 7.25 0.25 6.92188 0.25 6.5C0.25 6.10156 0.578125 5.75 1 5.75H8.17188L7.21094 4.78906C6.90625 4.50781 6.90625 4.01562 7.21094 3.73438C7.49219 3.42969 7.98438 3.42969 8.26562 3.73438L10.5156 5.98438C10.8203 6.26562 10.8203 6.75781 10.5156 7.03906ZM2.71094 15.2891L0.460938 13.0391C0.15625 12.7578 0.15625 12.2656 0.460938 11.9844L2.71094 9.73438C2.99219 9.42969 3.48438 9.42969 3.76562 9.73438C4.07031 10.0156 4.07031 10.5078 3.76562 10.7891L2.80469 11.75H10C10.3984 11.75 10.75 12.1016 10.75 12.5C10.75 12.9219 10.3984 13.25 10 13.25H2.80469L3.76562 14.2344C4.07031 14.5156 4.07031 15.0078 3.76562 15.2891C3.48438 15.5938 2.99219 15.5938 2.71094 15.2891Z" fill="black" fill-opacity="0.72"/>
</g>
<defs>
<clipPath id="clip0_2556_10263">
<rect width="11" height="18" fill="white"/>
</clipPath>
</defs>
</svg>
