<svg width="15" height="18" viewBox="0 0 15 18" fill="none" xmlns="http://www.w3.org/2000/svg">
<g id="label-paired / caption / book-circle-question-caption / fill" clip-path="url(#clip0_2981_622)">
<path id="icon" d="M0 5.75C0 4.50781 1.00781 3.5 2.25 3.5H9H9.75C10.1484 3.5 10.5 3.85156 10.5 4.25V8.16406C8.76562 8.65625 7.5 10.25 7.5 12.125C7.5 12.2656 7.5 12.3828 7.5 12.5H2.25C1.82812 12.5 1.5 12.8516 1.5 13.25C1.5 13.6719 1.82812 14 2.25 14H7.94531C8.25 14.6094 8.69531 15.125 9.23438 15.5H9H2.25C1.00781 15.5 0 14.4922 0 13.25V5.75ZM3 6.875C3 7.08594 3.16406 7.25 3.375 7.25H7.875C8.0625 7.25 8.25 7.08594 8.25 6.875C8.25 6.6875 8.0625 6.5 7.875 6.5H3.375C3.16406 6.5 3 6.6875 3 6.875ZM3 8.375C3 8.58594 3.16406 8.75 3.375 8.75H7.875C8.0625 8.75 8.25 8.58594 8.25 8.375C8.25 8.1875 8.0625 8 7.875 8H3.375C3.16406 8 3 8.1875 3 8.375ZM8.25 12.125C8.25 10.2734 9.75 8.75 11.625 8.75C13.4766 8.75 15 10.2734 15 12.125C15 14 13.4766 15.5 11.625 15.5C9.75 15.5 8.25 14 8.25 12.125ZM10.125 11.0469V11.1875C10.125 11.3984 10.2891 11.5625 10.5 11.5625C10.6875 11.5625 10.875 11.3984 10.875 11.1875V11.0469C10.875 10.9297 10.9688 10.8125 11.0859 10.8125H12.0469C12.2109 10.8125 12.375 10.9766 12.375 11.1406C12.375 11.2812 12.3047 11.375 12.1875 11.4453L11.4375 11.8203C11.3203 11.8906 11.25 12.0312 11.25 12.1719V12.5C11.25 12.7109 11.4141 12.875 11.625 12.875C11.8125 12.875 12 12.7109 12 12.5V12.3828L12.5391 12.1016C12.8906 11.9141 13.125 11.5391 13.125 11.1406C13.125 10.5547 12.6328 10.0859 12.0469 10.0859H11.0859C10.5469 10.0859 10.125 10.5078 10.125 11.0469ZM11.0625 13.8125C11.0625 14.1406 11.2969 14.375 11.625 14.375C11.9297 14.375 12.1875 14.1406 12.1875 13.8125C12.1875 13.5078 11.9297 13.25 11.625 13.25C11.2969 13.25 11.0625 13.5078 11.0625 13.8125Z" fill="black" fill-opacity="0.72"/>
</g>
<defs>
<clipPath id="clip0_2981_622">
<rect width="15" height="18" fill="white"/>
</clipPath>
</defs>
</svg>
