<svg width="12" height="18" viewBox="0 0 12 18" fill="none" xmlns="http://www.w3.org/2000/svg">
<g id="label-paired / caption / search-caption / regular" clip-path="url(#clip0_2556_10543)">
<path id="icon" d="M9 8.375C9 6.92188 8.20312 5.5625 6.9375 4.8125C5.64844 4.08594 4.07812 4.08594 2.8125 4.8125C1.52344 5.5625 0.75 6.92188 0.75 8.375C0.75 9.85156 1.52344 11.2109 2.8125 11.9609C4.07812 12.6875 5.64844 12.6875 6.9375 11.9609C8.20312 11.2109 9 9.85156 9 8.375ZM8.03906 12.0781C7.19531 12.8281 6.07031 13.25 4.875 13.25C2.17969 13.25 0 11.0703 0 8.375C0 5.70312 2.17969 3.5 4.875 3.5C7.54688 3.5 9.75 5.70312 9.75 8.375C9.75 9.59375 9.30469 10.6953 8.57812 11.5625L11.8828 14.8672C12.0234 15.0078 12.0234 15.2656 11.8828 15.4062C11.7422 15.5469 11.4844 15.5469 11.3438 15.4062L8.03906 12.0781Z" fill="black" fill-opacity="0.72"/>
</g>
<defs>
<clipPath id="clip0_2556_10543">
<rect width="12" height="18" fill="white"/>
</clipPath>
</defs>
</svg>
