<svg width="14" height="24" viewBox="0 0 14 24" fill="none" xmlns="http://www.w3.org/2000/svg">
<g id="label-paired / md / arrow-right-to-line-md / regular" clip-path="url(#clip0_2556_14884)">
<path id="icon" d="M14 6.5V17.5C14 17.7812 13.75 18 13.5 18C13.2188 18 13 17.7812 13 17.5V6.5C13 6.25 13.2188 6 13.5 6C13.75 6 14 6.25 14 6.5ZM10.8438 12.375L6.84375 16.375C6.65625 16.5625 6.3125 16.5625 6.125 16.375C5.9375 16.1875 5.9375 15.8438 6.125 15.6562L9.28125 12.5H6H0.5C0.21875 12.5 0 12.2812 0 12C0 11.75 0.21875 11.5 0.5 11.5H6H9.28125L6.125 8.375C5.9375 8.1875 5.9375 7.84375 6.125 7.65625C6.3125 7.46875 6.65625 7.46875 6.84375 7.65625L10.8438 11.6562C11.0312 11.8438 11.0312 12.1875 10.8438 12.375Z" fill="black" fill-opacity="0.72"/>
</g>
<defs>
<clipPath id="clip0_2556_14884">
<rect width="14" height="24" fill="white"/>
</clipPath>
</defs>
</svg>
