<svg width="11" height="18" viewBox="0 0 11 18" fill="none" xmlns="http://www.w3.org/2000/svg">
<g id="label-paired / caption / memo-pad-caption / fill" clip-path="url(#clip0_2981_636)">
<path id="icon" d="M0.25 5C0.25 4.17969 0.90625 3.5 1.75 3.5H9.25C10.0703 3.5 10.75 4.17969 10.75 5V5.75H0.25V5ZM0.25 6.5H10.75V14C10.75 14.8438 10.0703 15.5 9.25 15.5H1.75C0.90625 15.5 0.25 14.8438 0.25 14V6.5ZM2.5 8.75C2.5 8.96094 2.66406 9.125 2.875 9.125H8.125C8.3125 9.125 8.5 8.96094 8.5 8.75C8.5 8.5625 8.3125 8.375 8.125 8.375H2.875C2.66406 8.375 2.5 8.5625 2.5 8.75ZM2.5 11C2.5 11.2109 2.66406 11.375 2.875 11.375H8.125C8.3125 11.375 8.5 11.2109 8.5 11C8.5 10.8125 8.3125 10.625 8.125 10.625H2.875C2.66406 10.625 2.5 10.8125 2.5 11ZM2.5 13.25C2.5 13.4609 2.66406 13.625 2.875 13.625H5.125C5.3125 13.625 5.5 13.4609 5.5 13.25C5.5 13.0625 5.3125 12.875 5.125 12.875H2.875C2.66406 12.875 2.5 13.0625 2.5 13.25Z" fill="black" fill-opacity="0.72"/>
</g>
<defs>
<clipPath id="clip0_2981_636">
<rect width="11" height="18" fill="white"/>
</clipPath>
</defs>
</svg>
