<svg width="16" height="24" viewBox="0 0 16 24" fill="none" xmlns="http://www.w3.org/2000/svg">
<g id="label-paired / md / file-doc-md / regular" clip-path="url(#clip0_2365_845)">
<path id="icon" d="M2 19H3V20H2C1.4375 19.9792 0.96875 19.7812 0.59375 19.4062C0.21875 19.0312 0.0208333 18.5625 0 18V6C0.0208333 5.4375 0.21875 4.96875 0.59375 4.59375C0.96875 4.21875 1.4375 4.02083 2 4H6.875C7.29167 4 7.64583 4.14583 7.9375 4.4375L11.5625 8.0625C11.8542 8.35417 12 8.70833 12 9.125V13H11V10H7.5C7.08333 9.97917 6.72917 9.83333 6.4375 9.5625C6.16667 9.27083 6.02083 8.91667 6 8.5V5H2C1.70833 5 1.46875 5.09375 1.28125 5.28125C1.09375 5.46875 1 5.70833 1 6V18C1 18.2917 1.09375 18.5312 1.28125 18.7188C1.46875 18.9062 1.70833 19 2 19ZM11 9C10.9583 8.91667 10.9062 8.84375 10.8438 8.78125L7.21875 5.15625C7.15625 5.09375 7.08333 5.05208 7 5.03125V8.5C7.02083 8.8125 7.1875 8.97917 7.5 9H11ZM5.5 15H6.5C6.91667 15.0208 7.27083 15.1667 7.5625 15.4375C7.83333 15.7292 7.97917 16.0833 8 16.5V18.5C7.97917 18.9167 7.83333 19.2708 7.5625 19.5625C7.27083 19.8333 6.91667 19.9792 6.5 20H5.5C5.1875 19.9792 5.02083 19.8125 5 19.5V15.5C5.02083 15.1875 5.1875 15.0208 5.5 15ZM6 19H6.5C6.8125 18.9792 6.97917 18.8125 7 18.5V16.5C6.97917 16.1875 6.8125 16.0208 6.5 16H6V19ZM14.25 15H14.75C15.1042 15 15.3958 15.125 15.625 15.375C15.875 15.6042 16 15.8958 16 16.25V16.5C15.9792 16.8125 15.8125 16.9792 15.5 17C15.1875 16.9792 15.0208 16.8125 15 16.5V16.25C14.9792 16.1042 14.8958 16.0208 14.75 16H14.25C14.1042 16.0208 14.0208 16.1042 14 16.25V18.75C14.0208 18.8958 14.1042 18.9792 14.25 19H14.75C14.8958 18.9792 14.9792 18.8958 15 18.75V18.5C15.0208 18.1875 15.1875 18.0208 15.5 18C15.8125 18.0208 15.9792 18.1875 16 18.5V18.75C16 19.1042 15.875 19.3958 15.625 19.625C15.3958 19.875 15.1042 20 14.75 20H14.25C13.8958 20 13.6042 19.875 13.375 19.625C13.125 19.3958 13 19.1042 13 18.75V16.25C13 15.8958 13.125 15.6042 13.375 15.375C13.6042 15.125 13.8958 15 14.25 15ZM9 16.25C9 15.8958 9.125 15.6042 9.375 15.375C9.60417 15.125 9.89583 15 10.25 15H10.75C11.1042 15 11.3958 15.125 11.625 15.375C11.875 15.6042 12 15.8958 12 16.25V18.75C12 19.1042 11.875 19.3958 11.625 19.625C11.3958 19.875 11.1042 20 10.75 20H10.25C9.89583 20 9.60417 19.875 9.375 19.625C9.125 19.3958 9 19.1042 9 18.75V16.25ZM10.25 16C10.1042 16.0208 10.0208 16.1042 10 16.25V18.75C10.0208 18.8958 10.1042 18.9792 10.25 19H10.75C10.8958 18.9792 10.9792 18.8958 11 18.75V16.25C10.9792 16.1042 10.8958 16.0208 10.75 16H10.25Z" fill="black" fill-opacity="0.72"/>
</g>
<defs>
<clipPath id="clip0_2365_845">
<rect width="16" height="24" fill="white"/>
</clipPath>
</defs>
</svg>
