<svg width="14" height="22" viewBox="0 0 14 22" fill="none" xmlns="http://www.w3.org/2000/svg">
<g id="label-paired / sm / app-store-sm" clip-path="url(#clip0_2556_12219)">
<path id="icon" d="M6.97266 7.05859L6.75391 6.64844C6.58984 6.375 6.23438 6.29297 5.98828 6.42969C5.71484 6.59375 5.63281 6.92188 5.76953 7.19531L6.34375 8.17969L4.51172 11.3516H3.08984C2.78906 11.3516 2.54297 11.5977 2.54297 11.8984C2.54297 12.1992 2.78906 12.4453 3.08984 12.4453H8.17578C8.42188 12.0078 8.09375 11.3516 7.54688 11.3516H5.79688L8.20312 7.19531C8.36719 6.92188 8.25781 6.59375 7.98438 6.42969C7.73828 6.29297 7.38281 6.375 7.24609 6.64844L6.97266 7.05859ZM4.83984 13.0195C4.53906 12.6914 4.18359 12.582 3.71875 12.7188L3.33594 13.4023C3.17188 13.6758 3.25391 14.0039 3.52734 14.168C3.80078 14.3047 4.15625 14.2227 4.29297 13.9492L4.83984 13.0195ZM9.46094 11.3516C8.72266 10.0664 8.17578 9.13672 7.82031 8.50781C7.46484 8.78125 7.13672 9.57422 7.60156 10.3945C8.06641 11.1875 8.75 12.3633 9.67969 13.9492C9.81641 14.2227 10.1719 14.3047 10.4453 14.168C10.6914 14.0039 10.8008 13.6758 10.6367 13.4023L10.0898 12.4453H10.9102C11.2109 12.4453 11.457 12.1992 11.457 11.8984C11.457 11.5977 11.2109 11.3516 10.9102 11.3516H9.46094ZM7 3.96875C10.7461 3.96875 13.7812 7.00391 13.7812 10.75C13.7812 14.4961 10.7461 17.5312 7 17.5312C3.25391 17.5312 0.21875 14.4961 0.21875 10.75C0.21875 7.00391 3.25391 3.96875 7 3.96875ZM12.9062 10.75C12.9062 7.49609 10.2266 4.84375 7 4.84375C3.71875 4.84375 1.09375 7.52344 1.09375 10.75C1.09375 14.0312 3.74609 16.6562 7 16.6562C10.2539 16.6562 12.9062 14.0039 12.9062 10.75Z" fill="black" fill-opacity="0.72"/>
</g>
<defs>
<clipPath id="clip0_2556_12219">
<rect width="14" height="22" fill="white"/>
</clipPath>
</defs>
</svg>
