<svg width="18" height="22" viewBox="0 0 18 22" fill="none" xmlns="http://www.w3.org/2000/svg">
<g id="label-paired / sm / link-sm / regular" clip-path="url(#clip0_4460_526)">
<path id="icon" d="M16.4102 10.75L12.9922 14.168C11.625 15.5352 9.41016 15.5352 8.07031 14.168C6.75781 12.8555 6.67578 10.7773 7.87891 9.41016L8.04297 9.24609C8.17969 9.05469 8.48047 9.02734 8.64453 9.19141C8.83594 9.35547 8.86328 9.62891 8.69922 9.82031L8.5625 9.98438C7.66016 11.0234 7.71484 12.582 8.67188 13.5391C9.71094 14.5781 11.3516 14.5781 12.3906 13.5391L15.7812 10.1484C16.8203 9.10938 16.8203 7.46875 15.7812 6.42969C14.7695 5.41797 13.1016 5.41797 12.0898 6.42969L11.4609 7.05859C11.2969 7.22266 11.0234 7.22266 10.832 7.05859C10.668 6.86719 10.668 6.59375 10.832 6.42969L11.4609 5.80078C12.8281 4.43359 15.043 4.43359 16.4102 5.80078C17.7773 7.16797 17.7773 9.38281 16.4102 10.75ZM1.5625 10.75L4.98047 7.35938C6.34766 5.99219 8.53516 5.99219 9.92969 7.35938C11.2148 8.64453 11.2969 10.7227 10.0938 12.1172L9.92969 12.2812C9.79297 12.4727 9.51953 12.5 9.32812 12.3359C9.13672 12.1719 9.10938 11.8984 9.27344 11.707L9.4375 11.543C10.3125 10.5039 10.2578 8.94531 9.30078 7.98828C8.26172 6.94922 6.62109 6.94922 5.58203 7.98828L2.19141 11.3789C1.15234 12.418 1.15234 14.0586 2.19141 15.0977C3.20312 16.1094 4.87109 16.1094 5.88281 15.0977L6.51172 14.4688C6.67578 14.3047 6.94922 14.3047 7.14062 14.4688C7.30469 14.6328 7.30469 14.9336 7.14062 15.0977L6.51172 15.6992C5.14453 17.0664 2.92969 17.0664 1.5625 15.6992C0.195312 14.332 0.195312 12.1172 1.5625 10.75Z" fill="black" fill-opacity="0.72"/>
</g>
<defs>
<clipPath id="clip0_4460_526">
<rect width="18" height="22" fill="white"/>
</clipPath>
</defs>
</svg>
