<svg width="12" height="24" viewBox="0 0 12 24" fill="none" xmlns="http://www.w3.org/2000/svg">
<g id="label-paired / md / four-md / fill" clip-path="url(#clip0_2556_14834)">
<path id="icon" d="M5.90625 6.4375L2.5625 13.5H8V9C8 8.46875 8.4375 8 9 8C9.53125 8 10 8.46875 10 9V13.5H11C11.5312 13.5 12 13.9688 12 14.5C12 15.0625 11.5312 15.5 11 15.5H10V18C10 18.5625 9.53125 19 9 19C8.4375 19 8 18.5625 8 18V15.5H1C0.65625 15.5 0.3125 15.3438 0.125 15.0625C-0.03125 14.75 -0.0625 14.4062 0.09375 14.0938L4.09375 5.59375C4.3125 5.09375 4.90625 4.875 5.40625 5.09375C5.90625 5.34375 6.125 5.9375 5.90625 6.4375Z" fill="black" fill-opacity="0.72"/>
</g>
<defs>
<clipPath id="clip0_2556_14834">
<rect width="12" height="24" fill="white"/>
</clipPath>
</defs>
</svg>
