<svg width="16" height="22" viewBox="0 0 16 22" fill="none" xmlns="http://www.w3.org/2000/svg">
<g id="label-paired / sm / desktop-sm / regular" clip-path="url(#clip0_2981_801)">
<path id="icon" d="M14.125 4.625H1.875C1.38281 4.625 1 5.03516 1 5.5V10.75H15V5.5C15 5.03516 14.5898 4.625 14.125 4.625ZM15.875 10.75V11.625V13.375C15.875 14.3594 15.082 15.125 14.125 15.125H10.0234L10.3242 16.875H11.9375C12.1562 16.875 12.375 17.0938 12.375 17.3125C12.375 17.5586 12.1562 17.75 11.9375 17.75H9.96875H6.03125H4.0625C3.81641 17.75 3.625 17.5586 3.625 17.3125C3.625 17.0938 3.81641 16.875 4.0625 16.875H5.64844L5.94922 15.125H1.875C0.890625 15.125 0.125 14.3594 0.125 13.375V11.625V10.75V5.5C0.125 4.54297 0.890625 3.75 1.875 3.75H14.125C15.082 3.75 15.875 4.54297 15.875 5.5V10.75ZM1 11.625V13.375C1 13.8672 1.38281 14.25 1.875 14.25H6.44141H6.46875H9.50391H9.53125H14.125C14.5898 14.25 15 13.8672 15 13.375V11.625H1ZM6.52344 16.875H9.44922L9.14844 15.125H6.82422L6.52344 16.875Z" fill="black" fill-opacity="0.72"/>
</g>
<defs>
<clipPath id="clip0_2981_801">
<rect width="16" height="22" fill="white"/>
</clipPath>
</defs>
</svg>
