<svg width="20" height="30" viewBox="0 0 20 30" fill="none" xmlns="http://www.w3.org/2000/svg">
<g id="label-paired / lg / circle-seven-lg / bold" clip-path="url(#clip0_2556_17289)">
<path id="icon" d="M10 7.375C7.07031 7.375 4.41406 8.9375 2.92969 11.4375C1.48438 13.9766 1.48438 17.0625 2.92969 19.5625C4.41406 22.1016 7.07031 23.625 10 23.625C12.8906 23.625 15.5469 22.1016 17.0312 19.5625C18.4766 17.0625 18.4766 13.9766 17.0312 11.4375C15.5469 8.9375 12.8906 7.375 10 7.375ZM10 25.5C6.40625 25.5 3.125 23.625 1.32812 20.5C-0.46875 17.4141 -0.46875 13.625 1.32812 10.5C3.125 7.41406 6.40625 5.5 10 5.5C13.5547 5.5 16.8359 7.41406 18.6328 10.5C20.4297 13.625 20.4297 17.4141 18.6328 20.5C16.8359 23.625 13.5547 25.5 10 25.5ZM7.1875 10.5H12.8125C13.125 10.5 13.4375 10.6953 13.5938 10.9688C13.75 11.2422 13.7891 11.5938 13.6328 11.9062L9.25781 20.0312C8.98438 20.4609 8.4375 20.6562 7.96875 20.4219C7.5 20.1484 7.34375 19.6016 7.57812 19.1328L11.2109 12.375H7.1875C6.64062 12.375 6.25 11.9844 6.25 11.4375C6.25 10.9297 6.64062 10.5 7.1875 10.5Z" fill="black" fill-opacity="0.72"/>
</g>
<defs>
<clipPath id="clip0_2556_17289">
<rect width="20" height="30" fill="white"/>
</clipPath>
</defs>
</svg>
