<svg width="14" height="24" viewBox="0 0 14 24" fill="none" xmlns="http://www.w3.org/2000/svg">
<g id="label-paired / md / instagram-md" clip-path="url(#clip0_2556_14590)">
<path id="icon" d="M7 8.40625C8.96875 8.40625 10.5938 10.0312 10.5938 12C10.5938 14 8.96875 15.5938 7 15.5938C5 15.5938 3.40625 14 3.40625 12C3.40625 10.0312 5 8.40625 7 8.40625ZM7 14.3438C8.28125 14.3438 9.3125 13.3125 9.3125 12C9.3125 10.7188 8.28125 9.6875 7 9.6875C5.6875 9.6875 4.65625 10.7188 4.65625 12C4.65625 13.3125 5.71875 14.3438 7 14.3438ZM11.5625 8.28125C11.5625 7.8125 11.1875 7.4375 10.7188 7.4375C10.25 7.4375 9.875 7.8125 9.875 8.28125C9.875 8.75 10.25 9.125 10.7188 9.125C11.1875 9.125 11.5625 8.75 11.5625 8.28125ZM13.9375 9.125C14 10.2812 14 13.75 13.9375 14.9062C13.875 16.0312 13.625 17 12.8125 17.8438C12 18.6562 11 18.9062 9.875 18.9688C8.71875 19.0312 5.25 19.0312 4.09375 18.9688C2.96875 18.9062 2 18.6562 1.15625 17.8438C0.34375 17 0.09375 16.0312 0.03125 14.9062C-0.03125 13.75 -0.03125 10.2812 0.03125 9.125C0.09375 8 0.34375 7 1.15625 6.1875C2 5.375 2.96875 5.125 4.09375 5.0625C5.25 5 8.71875 5 9.875 5.0625C11 5.125 12 5.375 12.8125 6.1875C13.625 7 13.875 8 13.9375 9.125ZM12.4375 16.125C12.8125 15.2188 12.7188 13.0312 12.7188 12C12.7188 11 12.8125 8.8125 12.4375 7.875C12.1875 7.28125 11.7188 6.78125 11.125 6.5625C10.1875 6.1875 8 6.28125 7 6.28125C5.96875 6.28125 3.78125 6.1875 2.875 6.5625C2.25 6.8125 1.78125 7.28125 1.53125 7.875C1.15625 8.8125 1.25 11 1.25 12C1.25 13.0312 1.15625 15.2188 1.53125 16.125C1.78125 16.75 2.25 17.2188 2.875 17.4688C3.78125 17.8438 5.96875 17.75 7 17.75C8 17.75 10.1875 17.8438 11.125 17.4688C11.7188 17.2188 12.2188 16.75 12.4375 16.125Z" fill="black" fill-opacity="0.72"/>
</g>
<defs>
<clipPath id="clip0_2556_14590">
<rect width="14" height="24" fill="white"/>
</clipPath>
</defs>
</svg>
