<svg width="16" height="24" viewBox="0 0 16 24" fill="none" xmlns="http://www.w3.org/2000/svg">
<g id="label-paired / md / circle-caret-up-md / bold" clip-path="url(#clip0_2556_14731)">
<path id="icon" d="M8 5.5C5.65625 5.5 3.53125 6.75 2.34375 8.75C1.1875 10.7812 1.1875 13.25 2.34375 15.25C3.53125 17.2812 5.65625 18.5 8 18.5C10.3125 18.5 12.4375 17.2812 13.625 15.25C14.7812 13.25 14.7812 10.7812 13.625 8.75C12.4375 6.75 10.3125 5.5 8 5.5ZM8 20C5.125 20 2.5 18.5 1.0625 16C-0.375 13.5312 -0.375 10.5 1.0625 8C2.5 5.53125 5.125 4 8 4C10.8438 4 13.4688 5.53125 14.9062 8C16.3438 10.5 16.3438 13.5312 14.9062 16C13.4688 18.5 10.8438 20 8 20ZM8 8.5C8.1875 8.5 8.40625 8.59375 8.53125 8.75L11.7812 12.25C12 12.4688 12.0312 12.7812 11.9375 13.0625C11.8125 13.3438 11.5312 13.5 11.25 13.5H4.75C4.4375 13.5 4.15625 13.3438 4.0625 13.0625C3.9375 12.7812 3.96875 12.4688 4.1875 12.25L7.4375 8.75C7.59375 8.59375 7.78125 8.5 8 8.5Z" fill="black" fill-opacity="0.72"/>
</g>
<defs>
<clipPath id="clip0_2556_14731">
<rect width="16" height="24" fill="white"/>
</clipPath>
</defs>
</svg>
