<svg width="20" height="24" viewBox="0 0 20 24" fill="none" xmlns="http://www.w3.org/2000/svg">
<g id="label-paired / md / person-chalkboard-md / regular" clip-path="url(#clip0_2556_15197)">
<path id="icon" d="M5.25 5.75C5.25 6.1875 5.5625 6.5 6 6.5C6.40625 6.5 6.75 6.1875 6.75 5.75C6.75 5.34375 6.40625 5 6 5C5.5625 5 5.25 5.34375 5.25 5.75ZM7.75 5.75C7.75 6.40625 7.40625 6.96875 6.875 7.28125C6.3125 7.59375 5.65625 7.59375 5.125 7.28125C4.5625 6.96875 4.25 6.40625 4.25 5.75C4.25 5.125 4.5625 4.5625 5.125 4.25C5.65625 3.9375 6.3125 3.9375 6.875 4.25C7.40625 4.5625 7.75 5.125 7.75 5.75ZM5.59375 9C5.375 9 5.1875 9.0625 5 9.125V14H7V9H5.59375ZM5 19.5C5 19.7812 4.75 20 4.5 20C4.21875 20 4 19.7812 4 19.5V10.3438L2.4375 13.25C2.3125 13.5 2 13.5938 1.75 13.4688C1.5 13.3125 1.40625 13.0312 1.53125 12.7812L3.375 9.34375C3.8125 8.53125 4.65625 8 5.59375 8H7.59375H10V5.5C10 4.6875 10.6562 4 11.5 4H18.5C19.3125 4 20 4.6875 20 5.5V12.5C20 13.3438 19.3125 14 18.5 14H11.5C10.6562 14 10 13.3438 10 12.5V10H11V12.5C11 12.7812 11.2188 13 11.5 13H18.5C18.75 13 19 12.7812 19 12.5V5.5C19 5.25 18.75 5 18.5 5H11.5C11.2188 5 11 5.25 11 5.5V8H12.5C12.75 8 13 8.25 13 8.5C13 8.78125 12.75 9 12.5 9H8V19.5C8 19.7812 7.75 20 7.5 20C7.21875 20 7 19.7812 7 19.5V15H5V19.5Z" fill="black" fill-opacity="0.72"/>
</g>
<defs>
<clipPath id="clip0_2556_15197">
<rect width="20" height="24" fill="white"/>
</clipPath>
</defs>
</svg>
