<svg width="16" height="24" viewBox="0 0 16 24" fill="none" xmlns="http://www.w3.org/2000/svg">
<g id="label-paired / md / circle-three-md / regular" clip-path="url(#clip0_2556_15137)">
<path id="icon" d="M8 5C5.46875 5 3.1875 6.34375 1.9375 8.5C0.65625 10.6875 0.65625 13.3438 1.9375 15.5C3.1875 17.6875 5.46875 19 8 19C10.5 19 12.7812 17.6875 14.0312 15.5C15.3125 13.3438 15.3125 10.6875 14.0312 8.5C12.7812 6.34375 10.5 5 8 5ZM8 20C5.125 20 2.5 18.5 1.0625 16C-0.375 13.5312 -0.375 10.5 1.0625 8C2.5 5.53125 5.125 4 8 4C10.8438 4 13.4688 5.53125 14.9062 8C16.3438 10.5 16.3438 13.5312 14.9062 16C13.4688 18.5 10.8438 20 8 20ZM5.5 8V8.03125H9.96875C10.1875 8.03125 10.375 8.15625 10.4375 8.34375C10.5312 8.53125 10.4688 8.75 10.3125 8.90625L7.84375 11H8.46875C9.84375 11 10.9688 12.125 10.9688 13.5C10.9688 14.9062 9.875 16.0312 8.46875 16.0312H7.34375C6.5 16.0312 5.6875 15.625 5.15625 14.9375L5.09375 14.8125C4.90625 14.5938 4.96875 14.2812 5.1875 14.125C5.40625 13.9375 5.71875 14 5.875 14.2188L5.96875 14.3125C6.28125 14.75 6.8125 15.0312 7.34375 15.0312H8.46875C9.3125 15.0312 9.96875 14.3438 9.96875 13.5C9.96875 12.6875 9.3125 12 8.46875 12H6.5C6.28125 12 6.09375 11.875 6 11.6875C5.9375 11.5 6 11.2812 6.15625 11.125L8.625 9H5.5C5.21875 9 5 8.78125 5 8.5C5 8.25 5.21875 8 5.5 8Z" fill="black" fill-opacity="0.72"/>
</g>
<defs>
<clipPath id="clip0_2556_15137">
<rect width="16" height="24" fill="white"/>
</clipPath>
</defs>
</svg>
