<svg width="13" height="30" viewBox="0 0 13 30" fill="none" xmlns="http://www.w3.org/2000/svg">
<g id="label-paired / lg / dollar-sign-lg / fill" clip-path="url(#clip0_2556_17071)">
<path id="icon" d="M6.5 5.5C7.16406 5.5 7.75 6.08594 7.75 6.75V8.15625C7.78906 8.15625 7.86719 8.19531 7.90625 8.19531C7.94531 8.19531 7.94531 8.19531 7.94531 8.19531L9.82031 8.54688C10.5234 8.66406 10.9531 9.32812 10.8359 9.99219C10.7188 10.6562 10.0547 11.125 9.39062 11.0078L7.51562 10.6562C6.30469 10.4609 5.21094 10.6172 4.46875 10.8906C3.72656 11.2031 3.41406 11.6328 3.33594 11.9844C3.25781 12.4141 3.33594 12.6484 3.375 12.8047C3.45312 12.9609 3.60938 13.1172 3.88281 13.3125C4.50781 13.7422 5.48438 14.0156 6.77344 14.3281L6.89062 14.3672C7.98438 14.6797 9.35156 15.0312 10.3672 15.6953C10.9141 16.0469 11.4609 16.5547 11.7734 17.2188C12.125 17.9219 12.1641 18.7031 12.0469 19.5625C11.7734 21.0469 10.7188 22.0234 9.46875 22.5312C8.92188 22.7656 8.33594 22.8828 7.75 22.9609V24.25C7.75 24.9531 7.16406 25.5 6.5 25.5C5.79688 25.5 5.25 24.9531 5.25 24.25V22.9219C5.21094 22.8828 5.21094 22.8828 5.17188 22.8828C4.23438 22.7656 2.67188 22.3359 1.61719 21.8672C0.953125 21.5938 0.679688 20.8516 0.953125 20.2266C1.26562 19.6016 1.96875 19.2891 2.63281 19.6016C3.41406 19.9531 4.78125 20.3047 5.5625 20.4219C6.8125 20.6172 7.82812 20.5 8.53125 20.2266C9.19531 19.9531 9.46875 19.5625 9.58594 19.0938C9.625 18.6641 9.58594 18.4297 9.50781 18.3125C9.42969 18.1562 9.3125 17.9609 9 17.7656C8.375 17.375 7.39844 17.1016 6.10938 16.75L5.99219 16.7109C4.89844 16.4375 3.53125 16.0469 2.51562 15.3828C1.96875 15.0312 1.42188 14.5234 1.10938 13.8594C0.796875 13.1562 0.71875 12.375 0.875 11.5547C1.14844 10.0312 2.28125 9.09375 3.53125 8.58594C4.07812 8.35156 4.625 8.23438 5.25 8.15625V6.75C5.25 6.08594 5.79688 5.5 6.5 5.5Z" fill="black" fill-opacity="0.72"/>
</g>
<defs>
<clipPath id="clip0_2556_17071">
<rect width="13" height="30" fill="white"/>
</clipPath>
</defs>
</svg>
