<svg width="9" height="18" viewBox="0 0 9 18" fill="none" xmlns="http://www.w3.org/2000/svg">
<g id="label-paired / caption / location-dot-caption / bold" clip-path="url(#clip0_2556_10075)">
<path id="icon" d="M7.875 8C7.875 6.14844 6.35156 4.625 4.5 4.625C2.625 4.625 1.125 6.14844 1.125 8C1.125 8.30469 1.21875 8.75 1.47656 9.35938C1.71094 9.92188 2.0625 10.5781 2.46094 11.2344C3.14062 12.3125 3.91406 13.3438 4.5 14.0938C5.0625 13.3438 5.83594 12.3125 6.51562 11.2344C6.91406 10.5781 7.26562 9.92188 7.5 9.35938C7.75781 8.75 7.875 8.30469 7.875 8ZM9 8C9 10.0625 6.25781 13.6953 5.03906 15.2188C4.75781 15.5703 4.21875 15.5703 3.9375 15.2188C2.74219 13.6953 0 10.0625 0 8C0 5.51562 2.01562 3.5 4.5 3.5C6.98438 3.5 9 5.51562 9 8ZM5.25 8C5.25 7.60156 4.89844 7.25 4.5 7.25C4.07812 7.25 3.75 7.60156 3.75 8C3.75 8.42188 4.07812 8.75 4.5 8.75C4.89844 8.75 5.25 8.42188 5.25 8ZM2.625 8C2.625 7.34375 2.97656 6.73438 3.5625 6.38281C4.125 6.05469 4.85156 6.05469 5.4375 6.38281C6 6.73438 6.375 7.34375 6.375 8C6.375 8.67969 6 9.28906 5.4375 9.64062C4.85156 9.96875 4.125 9.96875 3.5625 9.64062C2.97656 9.28906 2.625 8.67969 2.625 8Z" fill="black" fill-opacity="0.72"/>
</g>
<defs>
<clipPath id="clip0_2556_10075">
<rect width="9" height="18" fill="white"/>
</clipPath>
</defs>
</svg>
