<svg width="14" height="24" viewBox="0 0 14 24" fill="none" xmlns="http://www.w3.org/2000/svg">
<g id="label-paired / md / arrow-left-md / bold" clip-path="url(#clip0_2556_14962)">
<path id="icon" d="M0.21875 12.5625C0.0625 12.4062 0 12.2188 0 12C0 11.8125 0.0625 11.625 0.21875 11.4688L5.71875 6.21875C6.03125 5.9375 6.5 5.9375 6.78125 6.25C7.0625 6.53125 7.0625 7.03125 6.75 7.3125L2.59375 11.25H13.25C13.6562 11.25 14 11.5938 14 12C14 12.4375 13.6562 12.75 13.25 12.75H2.59375L6.75 16.7188C7.0625 17 7.0625 17.4688 6.78125 17.7812C6.5 18.0938 6.03125 18.0938 5.71875 17.8125L0.21875 12.5625Z" fill="black" fill-opacity="0.72"/>
</g>
<defs>
<clipPath id="clip0_2556_14962">
<rect width="14" height="24" fill="white"/>
</clipPath>
</defs>
</svg>
