<svg width="16" height="24" viewBox="0 0 16 24" fill="none" xmlns="http://www.w3.org/2000/svg">
<g id="label-paired / md / circle-sort-down-md / fill" clip-path="url(#clip0_2556_15097)">
<path id="icon" d="M16 12C16 14.875 14.4688 17.5 12 18.9375C9.5 20.375 6.46875 20.375 4 18.9375C1.5 17.5 0 14.875 0 12C0 9.15625 1.5 6.53125 4 5.09375C6.46875 3.65625 9.5 3.65625 12 5.09375C14.4688 6.53125 16 9.15625 16 12ZM8.34375 16.875L11.3438 13.875C11.4688 13.7188 11.5312 13.5 11.4375 13.3125C11.375 13.125 11.1875 13 11 13H5C4.78125 13 4.59375 13.125 4.53125 13.3125C4.4375 13.5 4.5 13.7188 4.625 13.875L7.625 16.875C7.8125 17.0625 8.15625 17.0625 8.34375 16.875ZM8.34375 7.15625C8.15625 6.96875 7.8125 6.96875 7.625 7.15625L4.625 10.1562C4.5 10.3125 4.4375 10.5312 4.53125 10.7188C4.59375 10.9062 4.78125 11 5 11H11C11.1875 11 11.375 10.875 11.4375 10.7188C11.5312 10.5312 11.4688 10.3125 11.3438 10.1562L8.34375 7.15625ZM9.78125 10H6.1875L8 8.21875L9.78125 10Z" fill="black" fill-opacity="0.72"/>
</g>
<defs>
<clipPath id="clip0_2556_15097">
<rect width="16" height="24" fill="white"/>
</clipPath>
</defs>
</svg>
