<svg width="24" height="36" viewBox="0 0 24 36" fill="none" xmlns="http://www.w3.org/2000/svg">
<g id="label-paired / xl / deriv-brand-logo-xl / regular" clip-path="url(#clip0_5147_505)">
<path id="icon" d="M18.1875 24.0938C17.6719 27 14.9062 29.3438 12 29.3438H8.85938C6.89062 29.3438 5.20312 28.5469 4.125 27.1875C3 25.875 2.53125 24.0469 2.85938 22.0781L3.14062 20.625C3.79688 16.7344 7.45312 13.6406 11.3438 13.6406H14.4844L15.4688 8.10938L15.5625 7.59375L21.2344 6.65625L18.1875 24.0938ZM16.8281 8.90625L15.8438 14.5312L15.75 15.1406H11.3438C8.29688 15.1406 5.34375 17.5312 4.6875 20.5781L4.64062 20.8594L4.35938 22.3594C4.07812 23.9062 4.45312 25.2656 5.25 26.25C6.04688 27.1875 7.3125 27.8438 8.85938 27.8438H12C14.1562 27.8438 16.3125 26.0156 16.6875 23.8125L19.4062 8.48438L16.8281 8.90625ZM15.3281 17.3906L15.1875 18.2812L14.25 23.4844C14.0625 24.6094 13.0781 25.5469 11.9062 25.5469H9.98438C9 25.5469 8.10938 25.125 7.54688 24.4688C6.9375 23.7656 6.70312 22.8281 6.89062 21.7969L7.03125 20.9062L7.125 20.5312C7.59375 18.75 9.32812 17.3906 11.1562 17.3906H15.3281ZM11.1562 18.8906C9.9375 18.8906 8.76562 19.9219 8.53125 21.1406L8.34375 22.0781C8.25 22.6875 8.39062 23.1562 8.67188 23.4844C8.95312 23.8125 9.42188 24.0469 9.98438 24.0469H11.9062C12.2812 24.0469 12.7031 23.7188 12.7969 23.25L13.5469 18.8906H11.1562Z" fill="black" fill-opacity="0.72"/>
</g>
<defs>
<clipPath id="clip0_5147_505">
<rect width="24" height="36" fill="white"/>
</clipPath>
</defs>
</svg>
