<svg width="11" height="18" viewBox="0 0 11 18" fill="none" xmlns="http://www.w3.org/2000/svg">
<g id="label-paired / caption / arrow-right-arrow-left-caption / bold" clip-path="url(#clip0_2556_10423)">
<path id="icon" d="M2.66406 15.1484L0.414062 12.8984C0.179688 12.6875 0.179688 12.3359 0.414062 12.1016L2.66406 9.875C2.875 9.64062 3.22656 9.64062 3.4375 9.875C3.67188 10.0859 3.67188 10.4375 3.4375 10.6484L2.14844 11.9375H10.1875C10.4922 11.9375 10.75 12.1953 10.75 12.5C10.75 12.8281 10.4922 13.0625 10.1875 13.0625L2.14844 13.0859L3.4375 14.375C3.67188 14.5859 3.67188 14.9375 3.4375 15.1484C3.22656 15.3828 2.875 15.3828 2.66406 15.1484ZM10.5859 6.89844L8.33594 9.14844C8.10156 9.38281 7.75 9.38281 7.53906 9.14844C7.30469 8.9375 7.30469 8.58594 7.53906 8.35156L8.82812 7.0625H0.8125C0.484375 7.0625 0.25 6.82812 0.25 6.5C0.25 6.19531 0.484375 5.9375 0.8125 5.9375H8.82812L7.53906 4.64844C7.30469 4.4375 7.30469 4.08594 7.53906 3.85156C7.75 3.64062 8.10156 3.64062 8.33594 3.85156L10.5859 6.125C10.7969 6.33594 10.7969 6.6875 10.5859 6.89844Z" fill="black" fill-opacity="0.72"/>
</g>
<defs>
<clipPath id="clip0_2556_10423">
<rect width="11" height="18" fill="white"/>
</clipPath>
</defs>
</svg>
