<svg width="13" height="22" viewBox="0 0 13 22" fill="none" xmlns="http://www.w3.org/2000/svg">
<g id="label-paired / sm / arrow-right-arrow-left-sm / bold" clip-path="url(#clip0_2556_12541)">
<path id="icon" d="M3.19141 17.3398L0.566406 14.7148C0.292969 14.4688 0.292969 14.0586 0.566406 13.7852L3.19141 11.1875C3.4375 10.9141 3.84766 10.9141 4.09375 11.1875C4.36719 11.4336 4.36719 11.8438 4.09375 12.0898L2.58984 13.5938H11.9688C12.3242 13.5938 12.625 13.8945 12.625 14.25C12.625 14.6328 12.3242 14.9062 11.9688 14.9062L2.58984 14.9336L4.09375 16.4375C4.36719 16.6836 4.36719 17.0938 4.09375 17.3398C3.84766 17.6133 3.4375 17.6133 3.19141 17.3398ZM12.4336 7.71484L9.80859 10.3398C9.53516 10.6133 9.125 10.6133 8.87891 10.3398C8.60547 10.0938 8.60547 9.68359 8.87891 9.41016L10.3828 7.90625H1.03125C0.648438 7.90625 0.375 7.63281 0.375 7.25C0.375 6.89453 0.648438 6.59375 1.03125 6.59375H10.3828L8.87891 5.08984C8.60547 4.84375 8.60547 4.43359 8.87891 4.16016C9.125 3.91406 9.53516 3.91406 9.80859 4.16016L12.4336 6.8125C12.6797 7.05859 12.6797 7.46875 12.4336 7.71484Z" fill="black" fill-opacity="0.72"/>
</g>
<defs>
<clipPath id="clip0_2556_12541">
<rect width="13" height="22" fill="white"/>
</clipPath>
</defs>
</svg>
