<svg width="12" height="18" viewBox="0 0 12 18" fill="none" xmlns="http://www.w3.org/2000/svg">
<g id="label-paired / caption / magnifying-glass-minus-caption / fill" clip-path="url(#clip0_3431_692)">
<path id="icon" d="M9.75 8.375C9.75 9.45312 9.39844 10.4609 8.8125 11.2578L11.7656 14.2344C12.0703 14.5156 12.0703 15.0078 11.7656 15.2891C11.4844 15.5938 10.9922 15.5938 10.7109 15.2891L7.73438 12.3125C6.9375 12.9219 5.92969 13.25 4.875 13.25C2.17969 13.25 0 11.0703 0 8.375C0 5.70312 2.17969 3.5 4.875 3.5C7.54688 3.5 9.75 5.70312 9.75 8.375ZM3.1875 7.8125C2.85938 7.8125 2.625 8.07031 2.625 8.375C2.625 8.70312 2.85938 8.9375 3.1875 8.9375H6.5625C6.86719 8.9375 7.125 8.70312 7.125 8.375C7.125 8.07031 6.86719 7.8125 6.5625 7.8125H3.1875Z" fill="black" fill-opacity="0.72"/>
</g>
<defs>
<clipPath id="clip0_3431_692">
<rect width="12" height="18" fill="white"/>
</clipPath>
</defs>
</svg>
