<svg width="11" height="18" viewBox="0 0 11 18" fill="none" xmlns="http://www.w3.org/2000/svg">
<g id="label-paired / caption / arrow-right-to-line-caption / fill" clip-path="url(#clip0_2556_10302)">
<path id="icon" d="M10.75 5.75V13.25C10.75 13.6719 10.3984 14 10 14C9.57812 14 9.25 13.6719 9.25 13.25V5.75C9.25 5.35156 9.57812 5 10 5C10.3984 5 10.75 5.35156 10.75 5.75ZM7.51562 10.0391L4.51562 13.0391C4.23438 13.3438 3.74219 13.3438 3.46094 13.0391C3.15625 12.7578 3.15625 12.2656 3.46094 11.9844L5.17188 10.25H1C0.578125 10.25 0.25 9.92188 0.25 9.5C0.25 9.10156 0.578125 8.75 1 8.75H5.17188L3.46094 7.03906C3.15625 6.75781 3.15625 6.26562 3.46094 5.98438C3.74219 5.67969 4.23438 5.67969 4.51562 5.98438L7.51562 8.98438C7.82031 9.26562 7.82031 9.75781 7.51562 10.0391Z" fill="black" fill-opacity="0.72"/>
</g>
<defs>
<clipPath id="clip0_2556_10302">
<rect width="11" height="18" fill="white"/>
</clipPath>
</defs>
</svg>
