<svg width="15" height="18" viewBox="0 0 15 18" fill="none" xmlns="http://www.w3.org/2000/svg">
<g id="label-paired / caption / horizontal-rule-dashed-caption / fill" clip-path="url(#clip0_2556_10007)">
<path id="icon" d="M0 9.5C0 9.10156 0.328125 8.75 0.75 8.75H2.25C2.64844 8.75 3 9.10156 3 9.5C3 9.92188 2.64844 10.25 2.25 10.25H0.75C0.328125 10.25 0 9.92188 0 9.5ZM3.98438 9.5C3.98438 9.10156 4.33594 8.75 4.73438 8.75H6.23438C6.65625 8.75 6.98438 9.10156 6.98438 9.5C6.98438 9.92188 6.65625 10.25 6.23438 10.25H4.73438C4.33594 10.25 3.98438 9.92188 3.98438 9.5ZM7.99219 9.5C7.99219 9.10156 8.32031 8.75 8.74219 8.75H10.2422C10.6641 8.75 10.9922 9.10156 10.9922 9.5C10.9922 9.92188 10.6641 10.25 10.2422 10.25H8.74219C8.32031 10.25 7.99219 9.92188 7.99219 9.5ZM12 9.5C12 9.10156 12.3281 8.75 12.75 8.75H14.25C14.6484 8.75 15 9.10156 15 9.5C15 9.92188 14.6484 10.25 14.25 10.25H12.75C12.3281 10.25 12 9.92188 12 9.5Z" fill="black" fill-opacity="0.72"/>
</g>
<defs>
<clipPath id="clip0_2556_10007">
<rect width="15" height="18" fill="white"/>
</clipPath>
</defs>
</svg>
