<svg width="12" height="18" viewBox="0 0 12 18" fill="none" xmlns="http://www.w3.org/2000/svg">
<g id="label-paired / caption / face-viewfinder-caption / bold" clip-path="url(#clip0_2512_1051)">
<path id="icon" d="M0 4.8125C0.015625 4.4375 0.140625 4.125 0.375 3.875C0.625 3.64062 0.9375 3.51563 1.3125 3.5H3.1875C3.53125 3.53125 3.71875 3.71875 3.75 4.0625C3.71875 4.40625 3.53125 4.59375 3.1875 4.625H1.3125C1.20312 4.64062 1.14062 4.70312 1.125 4.8125V6.6875C1.09375 7.03125 0.90625 7.21875 0.5625 7.25C0.21875 7.21875 0.03125 7.03125 0 6.6875V4.8125ZM8.25 4.0625C8.28125 3.71875 8.46875 3.53125 8.8125 3.5H10.6875C11.0625 3.51563 11.375 3.64062 11.625 3.875C11.8594 4.125 11.9844 4.4375 12 4.8125V6.6875C11.9688 7.03125 11.7812 7.21875 11.4375 7.25C11.0938 7.21875 10.9062 7.03125 10.875 6.6875V4.8125C10.8594 4.70312 10.7969 4.64062 10.6875 4.625H8.8125C8.46875 4.59375 8.28125 4.40625 8.25 4.0625ZM0.5625 11.75C0.90625 11.7812 1.09375 11.9688 1.125 12.3125V14.1875C1.14062 14.2969 1.20312 14.3594 1.3125 14.375H3.1875C3.53125 14.4062 3.71875 14.5938 3.75 14.9375C3.71875 15.2812 3.53125 15.4688 3.1875 15.5H1.3125C0.9375 15.4844 0.625 15.3594 0.375 15.125C0.140625 14.875 0.015625 14.5625 0 14.1875V12.3125C0.03125 11.9688 0.21875 11.7812 0.5625 11.75ZM11.4375 11.75C11.7812 11.7812 11.9688 11.9688 12 12.3125V14.1875C11.9844 14.5625 11.8594 14.875 11.625 15.125C11.375 15.3594 11.0625 15.4844 10.6875 15.5H8.8125C8.46875 15.4688 8.28125 15.2812 8.25 14.9375C8.28125 14.5938 8.46875 14.4062 8.8125 14.375H10.6875C10.7969 14.3594 10.8594 14.2969 10.875 14.1875V12.3125C10.9062 11.9688 11.0938 11.7812 11.4375 11.75ZM5.625 8.5625C5.59375 8.90625 5.40625 9.09375 5.0625 9.125C4.71875 9.09375 4.53125 8.90625 4.5 8.5625C4.53125 8.21875 4.71875 8.03125 5.0625 8C5.40625 8.03125 5.59375 8.21875 5.625 8.5625ZM6.9375 9.125C6.59375 9.09375 6.40625 8.90625 6.375 8.5625C6.40625 8.21875 6.59375 8.03125 6.9375 8C7.28125 8.03125 7.46875 8.21875 7.5 8.5625C7.46875 8.90625 7.28125 9.09375 6.9375 9.125ZM6 6.875C5.53125 6.875 5.09375 6.99219 4.6875 7.22656C4.28125 7.46094 3.96094 7.78125 3.72656 8.1875C3.49219 8.59375 3.375 9.03125 3.375 9.5C3.375 9.96875 3.49219 10.4062 3.72656 10.8125C3.96094 11.2188 4.28125 11.5391 4.6875 11.7734C5.09375 12.0078 5.53125 12.125 6 12.125C6.46875 12.125 6.90625 12.0078 7.3125 11.7734C7.71875 11.5391 8.03906 11.2188 8.27344 10.8125C8.50781 10.4062 8.625 9.96875 8.625 9.5C8.625 9.03125 8.50781 8.59375 8.27344 8.1875C8.03906 7.78125 7.71875 7.46094 7.3125 7.22656C6.90625 6.99219 6.46875 6.875 6 6.875ZM6 13.25C5.32812 13.25 4.70312 13.0859 4.125 12.7578C3.54688 12.4141 3.08594 11.9531 2.74219 11.375C2.41406 10.7812 2.25 10.1562 2.25 9.5C2.25 8.84375 2.41406 8.21875 2.74219 7.625C3.08594 7.04688 3.54688 6.58594 4.125 6.24219C4.70312 5.91406 5.32812 5.75 6 5.75C6.67188 5.75 7.29688 5.91406 7.875 6.24219C8.45312 6.58594 8.91406 7.04688 9.25781 7.625C9.58594 8.21875 9.75 8.84375 9.75 9.5C9.75 10.1562 9.58594 10.7812 9.25781 11.375C8.91406 11.9531 8.45312 12.4141 7.875 12.7578C7.29688 13.0859 6.67188 13.25 6 13.25ZM5.01562 10.0625C5.23438 10.4219 5.5625 10.6094 6 10.625C6.4375 10.6094 6.76562 10.4219 6.98438 10.0625C7.10938 9.875 7.28125 9.82812 7.5 9.92188C7.67188 10.0625 7.71094 10.2344 7.61719 10.4375C7.27344 11.0312 6.73438 11.3438 6 11.375C5.26562 11.3438 4.72656 11.0312 4.38281 10.4375C4.27344 10.2344 4.32031 10.0625 4.52344 9.92188C4.72656 9.82812 4.89062 9.875 5.01562 10.0625Z" fill="black" fill-opacity="0.72"/>
</g>
<defs>
<clipPath id="clip0_2512_1051">
<rect width="12" height="18" fill="white"/>
</clipPath>
</defs>
</svg>
