<svg width="11" height="18" viewBox="0 0 11 18" fill="none" xmlns="http://www.w3.org/2000/svg">
<g id="label-paired / caption / expand-caption / bold" clip-path="url(#clip0_2556_10241)">
<path id="icon" d="M3.4375 4.25C3.74219 4.25 4 4.50781 4 4.8125C4 5.14062 3.74219 5.375 3.4375 5.375H1.375V7.4375C1.375 7.76562 1.11719 8 0.8125 8C0.484375 8 0.25 7.76562 0.25 7.4375V4.8125C0.25 4.50781 0.484375 4.25 0.8125 4.25H3.4375ZM0.25 11.5625C0.25 11.2578 0.484375 11 0.8125 11C1.11719 11 1.375 11.2578 1.375 11.5625V13.625H3.4375C3.74219 13.625 4 13.8828 4 14.1875C4 14.5156 3.74219 14.75 3.4375 14.75H0.8125C0.484375 14.75 0.25 14.5156 0.25 14.1875V11.5625ZM10.1875 4.25C10.4922 4.25 10.75 4.50781 10.75 4.8125V7.4375C10.75 7.76562 10.4922 8 10.1875 8C9.85938 8 9.625 7.76562 9.625 7.4375V5.375H7.5625C7.23438 5.375 7 5.14062 7 4.8125C7 4.50781 7.23438 4.25 7.5625 4.25H10.1875ZM9.625 11.5625C9.625 11.2578 9.85938 11 10.1875 11C10.4922 11 10.75 11.2578 10.75 11.5625V14.1875C10.75 14.5156 10.4922 14.75 10.1875 14.75H7.5625C7.23438 14.75 7 14.5156 7 14.1875C7 13.8828 7.23438 13.625 7.5625 13.625H9.625V11.5625Z" fill="black" fill-opacity="0.72"/>
</g>
<defs>
<clipPath id="clip0_2556_10241">
<rect width="11" height="18" fill="white"/>
</clipPath>
</defs>
</svg>
