<svg width="25" height="30" viewBox="0 0 25 30" fill="none" xmlns="http://www.w3.org/2000/svg">
<g id="label-paired / lg / link-lg / fill" clip-path="url(#clip0_4460_544)">
<path id="icon" d="M22.6172 15.9688L18.2422 20.3438C16.0547 22.5703 12.4609 22.5703 10.2734 20.3438C8.32031 18.3906 8.04688 15.3438 9.64844 13.0781L9.6875 13.0391C10.1172 12.4531 10.8984 12.3359 11.4453 12.7266C11.9922 13.1172 12.1484 13.8984 11.7188 14.4844L11.6797 14.5234C10.7812 15.7734 10.9375 17.4922 12.0312 18.5859C13.2422 19.8359 15.2344 19.8359 16.4844 18.5859L20.8594 14.2109C22.1094 12.9609 22.1094 10.9688 20.8594 9.75781C19.7656 8.66406 18.0469 8.50781 16.7969 9.40625L16.7578 9.44531C16.1719 9.875 15.3906 9.71875 15 9.17188C14.6094 8.625 14.7266 7.84375 15.2734 7.41406L15.3516 7.375C17.6172 5.77344 20.6641 6.04688 22.6172 8C24.8438 10.1875 24.8438 13.7812 22.6172 15.9688ZM2.34375 15.0703L6.71875 10.6562C8.94531 8.46875 12.5 8.46875 14.7266 10.6562C16.6797 12.6094 16.9141 15.6953 15.3125 17.9609L15.2734 18C14.8828 18.5859 14.0625 18.7031 13.5156 18.3125C12.9688 17.9219 12.8125 17.1406 13.2422 16.5547L13.2812 16.5156C14.1797 15.2266 14.0234 13.5469 12.9297 12.4531C11.7188 11.2031 9.72656 11.2031 8.47656 12.4531L4.10156 16.8281C2.89062 18.0391 2.89062 20.0312 4.10156 21.2812C5.19531 22.375 6.91406 22.5312 8.16406 21.6328L8.20312 21.5938C8.78906 21.1641 9.57031 21.3203 9.96094 21.8672C10.3516 22.4141 10.2344 23.1953 9.6875 23.625L9.60938 23.6641C7.38281 25.2656 4.29688 24.9922 2.34375 23.0391C0.117188 20.8516 0.117188 17.2578 2.34375 15.0703Z" fill="black" fill-opacity="0.72"/>
</g>
<defs>
<clipPath id="clip0_4460_544">
<rect width="25" height="30" fill="white"/>
</clipPath>
</defs>
</svg>
