<svg width="15" height="30" viewBox="0 0 15 30" fill="none" xmlns="http://www.w3.org/2000/svg">
<g id="label-paired / lg / file-check-lg / bold" clip-path="url(#clip0_2556_16923)">
<path id="icon" d="M2.5 23.625H12.5C12.8125 23.625 13.125 23.3516 13.125 23V11.75H10C9.29688 11.75 8.75 11.2031 8.75 10.5V7.375H2.5C2.14844 7.375 1.875 7.6875 1.875 8V23C1.875 23.3516 2.14844 23.625 2.5 23.625ZM2.5 5.5H8.94531C9.60938 5.5 10.2344 5.77344 10.7031 6.24219L14.2578 9.79688C14.7266 10.2656 15 10.8906 15 11.5547V23C15 24.4062 13.8672 25.5 12.5 25.5H2.5C1.09375 25.5 0 24.4062 0 23V8C0 6.63281 1.09375 5.5 2.5 5.5ZM11.2891 15.9688L7.10938 20.1484C6.75781 20.5 6.13281 20.5 5.78125 20.1484L3.71094 18.0391C3.32031 17.6875 3.32031 17.1016 3.71094 16.7109C4.0625 16.3594 4.64844 16.3594 5.03906 16.7109L6.44531 18.1562L9.96094 14.6406C10.3125 14.2891 10.8984 14.2891 11.2891 14.6406C11.6406 14.9922 11.6406 15.6172 11.2891 15.9688Z" fill="black" fill-opacity="0.72"/>
</g>
<defs>
<clipPath id="clip0_2556_16923">
<rect width="15" height="30" fill="white"/>
</clipPath>
</defs>
</svg>
