<svg width="20" height="30" viewBox="0 0 20 30" fill="none" xmlns="http://www.w3.org/2000/svg">
<g id="label-paired / lg / image-lg / regular" clip-path="url(#clip0_2556_17217)">
<path id="icon" d="M2.5 8C1.79688 8 1.25 8.58594 1.25 9.25V18.3906L3.86719 15.7344C4.49219 15.1484 5.46875 15.1484 6.09375 15.7344L8.75 18.3906L13.8672 13.2344C14.4922 12.6484 15.4688 12.6484 16.0938 13.2344L18.75 15.8906V9.25C18.75 8.58594 18.1641 8 17.5 8H2.5ZM1.25 20.1484V21.75C1.25 22.4531 1.79688 23 2.5 23H4.10156L7.85156 19.25L5.19531 16.6328C5.07812 16.5156 4.88281 16.5156 4.76562 16.6328L1.25 20.1484ZM15.1953 14.1328C15.0781 14.0156 14.8828 14.0156 14.7656 14.1328L5.85938 23H17.5C18.1641 23 18.75 22.4531 18.75 21.75V17.6484L15.1953 14.1328ZM0 9.25C0 7.88281 1.09375 6.75 2.5 6.75H17.5C18.8672 6.75 20 7.88281 20 9.25V21.75C20 23.1562 18.8672 24.25 17.5 24.25H2.5C1.09375 24.25 0 23.1562 0 21.75V9.25ZM6.25 11.125C6.25 10.8125 5.9375 10.5 5.625 10.5C5.27344 10.5 5 10.8125 5 11.125C5 11.4766 5.27344 11.75 5.625 11.75C5.9375 11.75 6.25 11.4766 6.25 11.125ZM3.75 11.125C3.75 10.4609 4.10156 9.875 4.6875 9.52344C5.23438 9.17188 5.97656 9.17188 6.5625 9.52344C7.10938 9.875 7.5 10.4609 7.5 11.125C7.5 11.8281 7.10938 12.4141 6.5625 12.7656C5.97656 13.1172 5.23438 13.1172 4.6875 12.7656C4.10156 12.4141 3.75 11.8281 3.75 11.125Z" fill="black" fill-opacity="0.72"/>
</g>
<defs>
<clipPath id="clip0_2556_17217">
<rect width="20" height="30" fill="white"/>
</clipPath>
</defs>
</svg>
