<svg width="20" height="24" viewBox="0 0 20 24" fill="none" xmlns="http://www.w3.org/2000/svg">
<g id="label-paired / md / user-check-md / bold" clip-path="url(#clip0_3327_704)">
<path id="icon" d="M7 5.5C6.09375 5.5 5.28125 6 4.8125 6.75C4.375 7.53125 4.375 8.5 4.8125 9.25C5.28125 10.0312 6.09375 10.5 7 10.5C7.875 10.5 8.6875 10.0312 9.15625 9.25C9.59375 8.5 9.59375 7.53125 9.15625 6.75C8.6875 6 7.875 5.5 7 5.5ZM7 12C5.5625 12 4.25 11.25 3.53125 10C2.8125 8.78125 2.8125 7.25 3.53125 6C4.25 4.78125 5.5625 4 7 4C8.40625 4 9.71875 4.78125 10.4375 6C11.1562 7.25 11.1562 8.78125 10.4375 10C9.71875 11.25 8.40625 12 7 12ZM5.5625 15C3.5 15 1.8125 16.5312 1.53125 18.5H12.4375C12.1562 16.5312 10.4688 15 8.40625 15H5.5625ZM5.5625 13.5H8.40625C11.5 13.5 14 16 14 19.0938C14 19.5938 13.5625 20 13.0625 20H0.90625C0.40625 20 0 19.5938 0 19.0938C0 16 2.46875 13.5 5.5625 13.5ZM19.5312 9.53125L15.5312 13.5312C15.2188 13.8438 14.75 13.8438 14.4688 13.5312L12.4688 11.5312C12.1562 11.25 12.1562 10.7812 12.4688 10.5C12.75 10.1875 13.2188 10.1875 13.5312 10.5L15 11.9688L18.4688 8.5C18.75 8.1875 19.2188 8.1875 19.5312 8.5C19.8125 8.78125 19.8125 9.25 19.5312 9.53125Z" fill="black" fill-opacity="0.72"/>
</g>
<defs>
<clipPath id="clip0_3327_704">
<rect width="20" height="24" fill="white"/>
</clipPath>
</defs>
</svg>
