<svg width="27" height="36" viewBox="0 0 27 36" fill="none" xmlns="http://www.w3.org/2000/svg">
<g id="label-paired / xl / credit-card-xl / bold" clip-path="url(#clip0_2362_727)">
<path id="icon" d="M24 9.75H3C2.53125 9.78125 2.28125 10.0312 2.25 10.5V12H24.75V10.5C24.7188 10.0312 24.4688 9.78125 24 9.75ZM24.75 16.5H2.25V25.5C2.28125 25.9688 2.53125 26.2188 3 26.25H24C24.4688 26.2188 24.7188 25.9688 24.75 25.5V16.5ZM3 7.5H24C24.8438 7.53125 25.5469 7.82812 26.1094 8.39062C26.6719 8.95312 26.9688 9.65625 27 10.5V25.5C26.9688 26.3438 26.6719 27.0469 26.1094 27.6094C25.5469 28.1719 24.8438 28.4688 24 28.5H3C2.15625 28.4688 1.45312 28.1719 0.890625 27.6094C0.328125 27.0469 0.03125 26.3438 0 25.5V10.5C0.03125 9.65625 0.328125 8.95312 0.890625 8.39062C1.45312 7.82812 2.15625 7.53125 3 7.5ZM5.625 21.75H7.875C8.5625 21.8125 8.9375 22.1875 9 22.875C8.9375 23.5625 8.5625 23.9375 7.875 24H5.625C4.9375 23.9375 4.5625 23.5625 4.5 22.875C4.5625 22.1875 4.9375 21.8125 5.625 21.75ZM11.625 21.75H16.875C17.5625 21.8125 17.9375 22.1875 18 22.875C17.9375 23.5625 17.5625 23.9375 16.875 24H11.625C10.9375 23.9375 10.5625 23.5625 10.5 22.875C10.5625 22.1875 10.9375 21.8125 11.625 21.75Z" fill="black" fill-opacity="0.72"/>
</g>
<defs>
<clipPath id="clip0_2362_727">
<rect width="27" height="36" fill="white"/>
</clipPath>
</defs>
</svg>
