<svg width="20" height="30" viewBox="0 0 20 30" fill="none" xmlns="http://www.w3.org/2000/svg">
<g id="label-paired / lg / circle-four-lg / regular" clip-path="url(#clip0_2556_17301)">
<path id="icon" d="M18.75 15.5C18.75 12.375 17.0703 9.52344 14.375 7.96094C11.6406 6.35938 8.32031 6.35938 5.625 7.96094C2.89062 9.52344 1.25 12.375 1.25 15.5C1.25 18.6641 2.89062 21.5156 5.625 23.0781C8.32031 24.6797 11.6406 24.6797 14.375 23.0781C17.0703 21.5156 18.75 18.6641 18.75 15.5ZM0 15.5C0 11.9453 1.875 8.66406 5 6.86719C8.08594 5.07031 11.875 5.07031 15 6.86719C18.0859 8.66406 20 11.9453 20 15.5C20 19.0938 18.0859 22.375 15 24.1719C11.875 25.9688 8.08594 25.9688 5 24.1719C1.875 22.375 0 19.0938 0 15.5ZM8.94531 10.5781C9.29688 10.6953 9.45312 11.0469 9.29688 11.3594L7.14844 16.75H11.25V13.625C11.25 13.3125 11.5234 13 11.875 13C12.1875 13 12.5 13.3125 12.5 13.625V16.75H13.125C13.4375 16.75 13.75 17.0625 13.75 17.375C13.75 17.7266 13.4375 18 13.125 18H12.5V19.875C12.5 20.2266 12.1875 20.5 11.875 20.5C11.5234 20.5 11.25 20.2266 11.25 19.875V18H6.25C6.01562 18 5.82031 17.9219 5.70312 17.7266C5.58594 17.5703 5.58594 17.3359 5.66406 17.1797L8.16406 10.9297C8.28125 10.5781 8.63281 10.4219 8.98438 10.5781H8.94531Z" fill="black" fill-opacity="0.72"/>
</g>
<defs>
<clipPath id="clip0_2556_17301">
<rect width="20" height="30" fill="white"/>
</clipPath>
</defs>
</svg>
