<svg width="12" height="18" viewBox="0 0 12 18" fill="none" xmlns="http://www.w3.org/2000/svg">
<g id="label-paired / caption / circle-euro-caption / regular" clip-path="url(#clip0_2556_10055)">
<path id="icon" d="M11.25 9.5C11.25 7.625 10.2422 5.91406 8.625 4.97656C6.98438 4.01562 4.99219 4.01562 3.375 4.97656C1.73438 5.91406 0.75 7.625 0.75 9.5C0.75 11.3984 1.73438 13.1094 3.375 14.0469C4.99219 15.0078 6.98438 15.0078 8.625 14.0469C10.2422 13.1094 11.25 11.3984 11.25 9.5ZM0 9.5C0 7.36719 1.125 5.39844 3 4.32031C4.85156 3.24219 7.125 3.24219 9 4.32031C10.8516 5.39844 12 7.36719 12 9.5C12 11.6562 10.8516 13.625 9 14.7031C7.125 15.7812 4.85156 15.7812 3 14.7031C1.125 13.625 0 11.6562 0 9.5ZM3 9.875H3.5625C3.53906 9.75781 3.53906 9.64062 3.53906 9.52344C3.53906 9.40625 3.53906 9.26562 3.5625 9.125H3C2.78906 9.125 2.625 8.96094 2.625 8.75C2.625 8.5625 2.78906 8.375 3 8.375H3.79688C4.21875 7.50781 5.13281 6.875 6.16406 6.875H7.14844C7.33594 6.875 7.52344 7.0625 7.52344 7.25C7.52344 7.46094 7.33594 7.625 7.14844 7.625H6.16406C5.55469 7.625 5.01562 7.92969 4.66406 8.375H6.75C6.9375 8.375 7.125 8.5625 7.125 8.75C7.125 8.96094 6.9375 9.125 6.75 9.125H4.3125C4.28906 9.26562 4.28906 9.38281 4.28906 9.52344C4.28906 9.64062 4.28906 9.78125 4.3125 9.875H6.75C6.9375 9.875 7.125 10.0625 7.125 10.25C7.125 10.4609 6.9375 10.625 6.75 10.625H4.64062C4.99219 11.1172 5.53125 11.4219 6.16406 11.4219H7.14844C7.33594 11.4219 7.52344 11.5859 7.52344 11.7969C7.52344 12.0078 7.33594 12.1719 7.14844 12.1719H6.16406C5.10938 12.1719 4.19531 11.5391 3.77344 10.625H3C2.78906 10.625 2.625 10.4609 2.625 10.25C2.625 10.0625 2.78906 9.875 3 9.875Z" fill="black" fill-opacity="0.72"/>
</g>
<defs>
<clipPath id="clip0_2556_10055">
<rect width="12" height="18" fill="white"/>
</clipPath>
</defs>
</svg>
