<svg width="9" height="18" viewBox="0 0 9 18" fill="none" xmlns="http://www.w3.org/2000/svg">
<g id="label-paired / caption / arrow-up-to-line-caption / regular" clip-path="url(#clip0_2556_10174)">
<path id="icon" d="M0.375 4.25H8.625C8.8125 4.25 9 4.4375 9 4.625C9 4.83594 8.8125 5 8.625 5H0.375C0.164062 5 0 4.83594 0 4.625C0 4.4375 0.164062 4.25 0.375 4.25ZM4.75781 6.61719L7.75781 9.61719C7.89844 9.75781 7.89844 10.0156 7.75781 10.1562C7.61719 10.2969 7.35938 10.2969 7.21875 10.1562L4.875 7.78906V10.25V14.375C4.875 14.5859 4.6875 14.75 4.5 14.75C4.28906 14.75 4.125 14.5859 4.125 14.375V10.25V7.78906L1.75781 10.1562C1.61719 10.2969 1.35938 10.2969 1.21875 10.1562C1.07812 10.0156 1.07812 9.75781 1.21875 9.61719L4.21875 6.61719C4.35938 6.47656 4.61719 6.47656 4.75781 6.61719Z" fill="black" fill-opacity="0.72"/>
</g>
<defs>
<clipPath id="clip0_2556_10174">
<rect width="9" height="18" fill="white"/>
</clipPath>
</defs>
</svg>
