<svg width="24" height="36" viewBox="0 0 24 36" fill="none" xmlns="http://www.w3.org/2000/svg">
<g id="label-paired / xl / thumbs-up-xl / bold" clip-path="url(#clip0_2355_607)">
<path id="icon" d="M15.1875 7.64062C16.0938 7.92188 16.7656 8.45312 17.2031 9.23438C17.6406 10.0156 17.7344 10.875 17.4844 11.8125L17.25 12.75C17.0938 13.25 16.9062 13.75 16.6875 14.25H21C21.8438 14.2812 22.5469 14.5781 23.1094 15.1406C23.6719 15.7031 23.9688 16.4062 24 17.25C23.9688 18.0938 23.6719 18.7969 23.1094 19.3594C23.2031 19.6406 23.25 19.9375 23.25 20.25C23.2188 21.25 22.8281 22.0469 22.0781 22.6406C22.1094 22.8281 22.125 23.0312 22.125 23.25C22.0938 24.25 21.7188 25.0312 21 25.5938C20.9688 26.4375 20.6719 27.125 20.1094 27.6562C19.5469 28.1875 18.8438 28.4688 18 28.5H13.4531C12.3906 28.5 11.4062 28.2031 10.5 27.6094L7.64062 25.6875C7.07812 25.25 6.96875 24.7344 7.3125 24.1406C7.75 23.6094 8.26562 23.5 8.85938 23.8125L11.7656 25.7344C12.2656 26.0781 12.8281 26.25 13.4531 26.25H18C18.4688 26.2188 18.7188 25.9688 18.75 25.5C18.75 25.4375 18.7344 25.375 18.7031 25.3125C18.5781 24.6875 18.8125 24.2344 19.4062 23.9531C19.6875 23.8281 19.8438 23.5938 19.875 23.25C19.875 23.0625 19.8281 22.9062 19.7344 22.7812C19.4844 22.4375 19.4219 22.0781 19.5469 21.7031C19.7031 21.3281 19.9844 21.0938 20.3906 21C20.7656 20.9062 20.9688 20.6562 21 20.25C21 20.0625 20.9375 19.8906 20.8125 19.7344C20.5625 19.4531 20.4844 19.125 20.5781 18.75C20.6719 18.375 20.9062 18.1094 21.2812 17.9531C21.5625 17.8281 21.7188 17.5938 21.75 17.25C21.7188 16.7812 21.4688 16.5312 21 16.5H14.7188C14.2812 16.5 13.9531 16.2969 13.7344 15.8906C13.5469 15.4844 13.5781 15.0938 13.8281 14.7188C14.3906 13.9375 14.7969 13.0781 15.0469 12.1406L15.3281 11.2031C15.4531 10.5156 15.2031 10.0469 14.5781 9.79688C13.8906 9.67188 13.4219 9.92188 13.1719 10.5469L12.8906 11.4844C12.6094 12.4531 12.1406 13.3125 11.4844 14.0625L9.09375 16.6875C8.59375 17.1562 8.0625 17.1875 7.5 16.7812C7.03125 16.25 7 15.7188 7.40625 15.1875L9.84375 12.5156C10.25 12.0469 10.5469 11.5 10.7344 10.875L11.0156 9.9375C11.2969 9.03125 11.8281 8.35938 12.6094 7.92188C13.3906 7.48438 14.25 7.39063 15.1875 7.64062ZM1.5 15H4.5C4.9375 15 5.29688 15.1406 5.57812 15.4219C5.85938 15.7031 6 16.0625 6 16.5V27C6 27.4375 5.85938 27.7969 5.57812 28.0781C5.29688 28.3594 4.9375 28.5 4.5 28.5H1.5C1.0625 28.5 0.703125 28.3594 0.421875 28.0781C0.140625 27.7969 0 27.4375 0 27V16.5C0 16.0625 0.140625 15.7031 0.421875 15.4219C0.703125 15.1406 1.0625 15 1.5 15Z" fill="black" fill-opacity="0.72"/>
</g>
<defs>
<clipPath id="clip0_2355_607">
<rect width="24" height="36" fill="white"/>
</clipPath>
</defs>
</svg>
