<svg width="10" height="30" viewBox="0 0 10 30" fill="none" xmlns="http://www.w3.org/2000/svg">
<g id="label-paired / lg / one-lg / bold" clip-path="url(#clip0_2556_17337)">
<path id="icon" d="M5.9375 7.6875V22.375H9.0625C9.57031 22.375 10 22.8047 10 23.3125C10 23.8594 9.57031 24.25 9.0625 24.25H5H0.9375C0.390625 24.25 0 23.8594 0 23.3125C0 22.8047 0.390625 22.375 0.9375 22.375H4.0625V9.36719L1.40625 11.0078C0.976562 11.2812 0.390625 11.125 0.117188 10.6953C-0.15625 10.2656 0 9.67969 0.429688 9.40625L4.49219 6.90625C4.76562 6.71094 5.15625 6.71094 5.42969 6.86719C5.74219 7.0625 5.9375 7.375 5.9375 7.6875Z" fill="black" fill-opacity="0.72"/>
</g>
<defs>
<clipPath id="clip0_2556_17337">
<rect width="10" height="30" fill="white"/>
</clipPath>
</defs>
</svg>
