<svg width="10" height="24" viewBox="0 0 10 24" fill="none" xmlns="http://www.w3.org/2000/svg">
<g id="label-paired / md / eight-md / bold" clip-path="url(#clip0_2556_15032)">
<path id="icon" d="M9.5 8.875C9.5 10.0625 8.96875 11.125 8.125 11.8438C9.25 12.5 10 13.75 10 15.125C10 17.2812 8.25 19 6.125 19H3.875C1.71875 19 0 17.2812 0 15.125C0 13.75 0.71875 12.5 1.84375 11.8438C1 11.125 0.5 10.0625 0.5 8.875C0.5 6.75 2.21875 5 4.375 5H5.625C7.75 5 9.5 6.75 9.5 8.875ZM5.625 12.75H4.375C4.34375 12.75 4.34375 12.75 4.34375 12.75H3.875C2.5625 12.75 1.5 13.8125 1.5 15.125C1.5 16.4375 2.5625 17.5 3.875 17.5H6.125C7.4375 17.5 8.5 16.4375 8.5 15.125C8.5 13.8125 7.4375 12.75 6.125 12.75H5.625ZM5.625 11.25C6.9375 11.25 8 10.1875 8 8.875C8 7.5625 6.9375 6.5 5.625 6.5H4.375C3.0625 6.5 2 7.5625 2 8.875C2 10.1875 3.0625 11.25 4.375 11.25H5.625Z" fill="black" fill-opacity="0.72"/>
</g>
<defs>
<clipPath id="clip0_2556_15032">
<rect width="10" height="24" fill="white"/>
</clipPath>
</defs>
</svg>
