<svg width="16" height="24" viewBox="0 0 16 24" fill="none" xmlns="http://www.w3.org/2000/svg">
<g id="label-paired / md / chevrons-down-md / fill" clip-path="url(#clip0_2556_14896)">
<path id="icon" d="M8.6875 18.7188C8.3125 19.125 7.65625 19.125 7.28125 18.7188L1.28125 12.7188C0.875 12.3438 0.875 11.6875 1.28125 11.3125C1.65625 10.9062 2.3125 10.9062 2.6875 11.3125L8 16.5938L13.2812 11.3125C13.6562 10.9062 14.3125 10.9062 14.6875 11.3125C15.0938 11.6875 15.0938 12.3438 14.6875 12.7188L8.6875 18.7188ZM14.6875 6.71875L8.6875 12.7188C8.3125 13.125 7.65625 13.125 7.28125 12.7188L1.28125 6.71875C0.875 6.34375 0.875 5.6875 1.28125 5.3125C1.65625 4.90625 2.3125 4.90625 2.6875 5.3125L8 10.5938L13.2812 5.3125C13.6562 4.90625 14.3125 4.90625 14.6875 5.3125C15.0938 5.6875 15.0938 6.34375 14.6875 6.71875Z" fill="black" fill-opacity="0.72"/>
</g>
<defs>
<clipPath id="clip0_2556_14896">
<rect width="16" height="24" fill="white"/>
</clipPath>
</defs>
</svg>
