<svg width="5" height="18" viewBox="0 0 5 18" fill="none" xmlns="http://www.w3.org/2000/svg">
<g id="label-paired / caption / info-caption / regular" clip-path="url(#clip0_2556_10012)">
<path id="icon" d="M1.75 5C1.75 4.60156 2.07812 4.25 2.5 4.25C2.89844 4.25 3.25 4.60156 3.25 5C3.25 5.42188 2.89844 5.75 2.5 5.75C2.07812 5.75 1.75 5.42188 1.75 5ZM0.625 7.625C0.625 7.4375 0.789062 7.25 1 7.25H2.5C2.6875 7.25 2.875 7.4375 2.875 7.625V14H4.375C4.5625 14 4.75 14.1875 4.75 14.375C4.75 14.5859 4.5625 14.75 4.375 14.75H0.625C0.414062 14.75 0.25 14.5859 0.25 14.375C0.25 14.1875 0.414062 14 0.625 14H2.125V8H1C0.789062 8 0.625 7.83594 0.625 7.625Z" fill="black" fill-opacity="0.72"/>
</g>
<defs>
<clipPath id="clip0_2556_10012">
<rect width="5" height="18" fill="white"/>
</clipPath>
</defs>
</svg>
