<svg width="15" height="18" viewBox="0 0 15 18" fill="none" xmlns="http://www.w3.org/2000/svg">
<g id="label-paired / caption / laptop-mobile-caption / regular" clip-path="url(#clip0_2556_10092)">
<path id="icon" d="M3 4.25C2.57812 4.25 2.25 4.60156 2.25 5V10.25H8.25V11H2.25H1.5H0.773438C0.914062 11.4453 1.3125 11.75 1.78125 11.75H8.25V12.5H1.78125C0.796875 12.5 0 11.7031 0 10.7188C0 10.4609 0.1875 10.25 0.445312 10.25H1.5V5C1.5 4.17969 2.15625 3.5 3 3.5H10.5C11.3203 3.5 12 4.17969 12 5V5.75H11.25V5C11.25 4.60156 10.8984 4.25 10.5 4.25H3ZM9.75 7.625V14.375C9.75 14.5859 9.91406 14.75 10.125 14.75H13.875C14.0625 14.75 14.25 14.5859 14.25 14.375V7.625C14.25 7.4375 14.0625 7.25 13.875 7.25H10.125C9.91406 7.25 9.75 7.4375 9.75 7.625ZM9 7.625C9 7.01562 9.49219 6.5 10.125 6.5H13.875C14.4844 6.5 15 7.01562 15 7.625V14.375C15 15.0078 14.4844 15.5 13.875 15.5H10.125C9.49219 15.5 9 15.0078 9 14.375V7.625Z" fill="black" fill-opacity="0.72"/>
</g>
<defs>
<clipPath id="clip0_2556_10092">
<rect width="15" height="18" fill="white"/>
</clipPath>
</defs>
</svg>
