<svg width="30" height="36" viewBox="0 0 30 36" fill="none" xmlns="http://www.w3.org/2000/svg">
<g id="label-paired / xl / deal-cancellation-xl / fill" clip-path="url(#clip0_2556_19602)">
<path id="icon" d="M18.8438 24.8906V24.8438L18.8906 24.8906C19.6406 25.1719 20.5312 25.3125 21.4219 25.3125C22.7344 25.3125 23.8594 25.0312 24.75 24.4219C25.6406 23.8125 26.3438 22.9688 26.8594 21.8906L27.1406 21.2812L23.5312 19.1719L23.25 20.0156C23.1094 20.3906 22.875 20.7656 22.5469 21.0469C22.3125 21.2344 21.9844 21.375 21.4219 21.375C20.8125 21.375 20.3906 21.1875 20.0625 20.8594C19.7344 20.5312 19.5469 19.9688 19.5469 19.0781V17.0625C19.5469 16.1719 19.7344 15.6562 20.0625 15.3281C20.3906 14.9531 20.8125 14.7656 21.4219 14.7656C22.0312 14.7656 22.3125 14.9062 22.5 15.0469C22.7344 15.2812 22.9219 15.5625 23.0625 15.9844L23.3438 16.8281L27.0938 14.8594L26.8125 14.2031C26.3438 13.0781 25.6406 12.2344 24.7031 11.6719C23.8125 11.0625 22.6875 10.8281 21.4219 10.8281C20.4844 10.8281 19.6406 10.9688 18.8438 11.2969C18.0469 11.6719 17.3906 12.1406 16.8281 12.7969C16.2656 13.4531 15.8438 14.2031 15.5625 15.1406C15.2812 16.0312 15.1406 17.0625 15.1406 18.1875C15.1406 19.3125 15.2812 20.2969 15.5625 21.1875C15.5625 21.2344 15.5625 21.2344 15.5625 21.2344C15.8438 22.0781 16.2656 22.8281 16.8281 23.4844C17.3906 24.0938 18.0469 24.5625 18.8438 24.8906ZM8.53125 11.0625C9.42188 11.0625 10.3125 11.2031 11.0625 11.4844C11.8594 11.8125 12.5625 12.2344 13.125 12.8906C13.6875 13.5 14.1094 14.25 14.3906 15.0938C14.6719 15.9844 14.8125 16.9688 14.8125 18.0938C14.8125 19.1719 14.6719 20.2031 14.3906 21.0469C14.3906 21.0938 14.3906 21.0938 14.3906 21.0938C14.1094 21.9375 13.6875 22.6875 13.125 23.2969C12.5625 23.9062 11.8594 24.375 11.0625 24.6562C10.3125 24.9844 9.46875 25.125 8.53125 25.125H3.04688V11.0625H8.53125ZM9.9375 20.7188C10.2188 20.4375 10.4062 19.9688 10.4062 19.0312V17.1094C10.4062 16.1719 10.2188 15.7031 9.9375 15.4688C9.65625 15.1406 9.23438 14.9531 8.53125 14.9531H7.3125V21.1875H8.53125C9.23438 21.1875 9.65625 21 9.9375 20.7188Z" fill="black" fill-opacity="0.72"/>
</g>
<defs>
<clipPath id="clip0_2556_19602">
<rect width="30" height="36" fill="white"/>
</clipPath>
</defs>
</svg>
