<svg width="14" height="18" viewBox="0 0 14 18" fill="none" xmlns="http://www.w3.org/2000/svg">
<g id="label-paired / caption / house-blank-caption / regular" clip-path="url(#clip0_2556_10056)">
<path id="icon" d="M6.74219 3.59375C6.88281 3.47656 7.09375 3.47656 7.23438 3.59375L13.6094 9.21875C13.7734 9.35938 13.7734 9.59375 13.6562 9.75781C13.5156 9.92188 13.2812 9.92188 13.1172 9.78125L12.25 9.00781V13.625C12.25 14.6797 11.4062 15.5 10.375 15.5H3.625C2.57031 15.5 1.75 14.6797 1.75 13.625V9.00781L0.859375 9.78125C0.71875 9.92188 0.460938 9.92188 0.34375 9.75781C0.203125 9.59375 0.203125 9.35938 0.367188 9.21875L6.74219 3.59375ZM2.5 8.35156V13.625C2.5 14.2578 2.99219 14.75 3.625 14.75H10.375C10.9844 14.75 11.5 14.2578 11.5 13.625V8.35156L7 4.39062L2.5 8.35156Z" fill="black" fill-opacity="0.72"/>
</g>
<defs>
<clipPath id="clip0_2556_10056">
<rect width="14" height="18" fill="white"/>
</clipPath>
</defs>
</svg>
