<svg width="12" height="18" viewBox="0 0 12 18" fill="none" xmlns="http://www.w3.org/2000/svg">
<g id="label-paired / caption / globe-caption / fill" clip-path="url(#clip0_2556_10136)">
<path id="icon" d="M8.25 9.5C8.25 10.0391 8.20312 10.5312 8.15625 11H3.82031C3.77344 10.5312 3.75 10.0391 3.75 9.5C3.75 8.98438 3.77344 8.49219 3.82031 8H8.15625C8.20312 8.49219 8.25 8.98438 8.25 9.5ZM8.90625 8H11.7891C11.9297 8.49219 12 8.98438 12 9.5C12 10.0391 11.9297 10.5312 11.7891 11H8.90625C8.95312 10.5312 9 10.0156 9 9.5C9 8.98438 8.95312 8.49219 8.90625 8ZM11.5547 7.25H8.8125C8.57812 5.77344 8.10938 4.50781 7.52344 3.71094C9.35156 4.20312 10.8516 5.51562 11.5547 7.25ZM8.0625 7.25H3.91406C4.05469 6.40625 4.28906 5.65625 4.54688 5.04688C4.80469 4.48438 5.0625 4.08594 5.34375 3.82812C5.60156 3.59375 5.8125 3.5 6 3.5C6.16406 3.5 6.375 3.59375 6.63281 3.82812C6.91406 4.08594 7.17188 4.48438 7.42969 5.04688C7.6875 5.65625 7.92188 6.40625 8.0625 7.25ZM3.16406 7.25H0.421875C1.125 5.51562 2.625 4.20312 4.45312 3.71094C3.86719 4.50781 3.39844 5.77344 3.16406 7.25ZM0.1875 8H3.07031C3.02344 8.49219 3 8.98438 3 9.5C3 10.0156 3.02344 10.5312 3.07031 11H0.1875C0.046875 10.5312 0 10.0391 0 9.5C0 8.98438 0.046875 8.49219 0.1875 8ZM4.54688 13.9766C4.28906 13.3672 4.05469 12.6172 3.91406 11.75H8.0625C7.92188 12.6172 7.6875 13.3672 7.42969 13.9766C7.17188 14.5391 6.91406 14.9375 6.63281 15.1953C6.375 15.4297 6.16406 15.5 6 15.5C5.8125 15.5 5.60156 15.4297 5.34375 15.1953C5.0625 14.9375 4.80469 14.5391 4.54688 13.9766ZM3.16406 11.75C3.39844 13.25 3.86719 14.5156 4.45312 15.3125C2.625 14.8203 1.125 13.5078 0.421875 11.75H3.16406ZM11.5547 11.75C10.8516 13.5078 9.35156 14.8203 7.52344 15.3125C8.13281 14.5156 8.57812 13.25 8.8125 11.75H11.5547Z" fill="black" fill-opacity="0.72"/>
</g>
<defs>
<clipPath id="clip0_2556_10136">
<rect width="12" height="18" fill="white"/>
</clipPath>
</defs>
</svg>
