<svg width="12" height="18" viewBox="0 0 12 18" fill="none" xmlns="http://www.w3.org/2000/svg">
<g id="label-paired / caption / circle-seven-caption / bold" clip-path="url(#clip0_2556_10208)">
<path id="icon" d="M6 4.625C4.24219 4.625 2.64844 5.5625 1.75781 7.0625C0.890625 8.58594 0.890625 10.4375 1.75781 11.9375C2.64844 13.4609 4.24219 14.375 6 14.375C7.73438 14.375 9.32812 13.4609 10.2188 11.9375C11.0859 10.4375 11.0859 8.58594 10.2188 7.0625C9.32812 5.5625 7.73438 4.625 6 4.625ZM6 15.5C3.84375 15.5 1.875 14.375 0.796875 12.5C-0.28125 10.6484 -0.28125 8.375 0.796875 6.5C1.875 4.64844 3.84375 3.5 6 3.5C8.13281 3.5 10.1016 4.64844 11.1797 6.5C12.2578 8.375 12.2578 10.6484 11.1797 12.5C10.1016 14.375 8.13281 15.5 6 15.5ZM4.3125 6.5H7.6875C7.875 6.5 8.0625 6.61719 8.15625 6.78125C8.25 6.94531 8.27344 7.15625 8.17969 7.34375L5.55469 12.2188C5.39062 12.4766 5.0625 12.5938 4.78125 12.4531C4.5 12.2891 4.40625 11.9609 4.54688 11.6797L6.72656 7.625H4.3125C3.98438 7.625 3.75 7.39062 3.75 7.0625C3.75 6.75781 3.98438 6.5 4.3125 6.5Z" fill="black" fill-opacity="0.72"/>
</g>
<defs>
<clipPath id="clip0_2556_10208">
<rect width="12" height="18" fill="white"/>
</clipPath>
</defs>
</svg>
