<svg width="11" height="18" viewBox="0 0 11 18" fill="none" xmlns="http://www.w3.org/2000/svg">
<g id="label-paired / caption / square-check-caption / fill" clip-path="url(#clip0_2556_10610)">
<path id="icon" d="M1.75 4.25H9.25C10.0703 4.25 10.75 4.92969 10.75 5.75V13.25C10.75 14.0938 10.0703 14.75 9.25 14.75H1.75C0.90625 14.75 0.25 14.0938 0.25 13.25V5.75C0.25 4.92969 0.90625 4.25 1.75 4.25ZM8.14844 8.39844H8.125C8.35938 8.1875 8.35938 7.83594 8.125 7.60156C7.91406 7.39062 7.5625 7.39062 7.35156 7.60156L4.75 10.2266L3.64844 9.125C3.41406 8.89062 3.0625 8.89062 2.85156 9.125C2.61719 9.33594 2.61719 9.6875 2.85156 9.89844L4.35156 11.3984C4.5625 11.6328 4.91406 11.6328 5.14844 11.3984L8.14844 8.39844Z" fill="black" fill-opacity="0.72"/>
</g>
<defs>
<clipPath id="clip0_2556_10610">
<rect width="11" height="18" fill="white"/>
</clipPath>
</defs>
</svg>
