<svg width="24" height="36" viewBox="0 0 24 36" fill="none" xmlns="http://www.w3.org/2000/svg">
<g id="label-paired / xl / circle-bookmark-xl / fill" clip-path="url(#clip0_2556_19747)">
<path id="icon" d="M12 30C7.6875 30 3.75 27.75 1.59375 24C-0.5625 20.2969 -0.5625 15.75 1.59375 12C3.75 8.29688 7.6875 6 12 6C16.2656 6 20.2031 8.29688 22.3594 12C24.5156 15.75 24.5156 20.2969 22.3594 24C20.2031 27.75 16.2656 30 12 30ZM7.5 14.25V23.25C7.5 23.5781 7.64062 23.8125 7.92188 23.9531C8.15625 24.0938 8.48438 24.0469 8.71875 23.8594L12 21.2344L15.2812 23.8594C15.4688 24.0469 15.7969 24.0469 16.0312 23.9531C16.3125 23.8125 16.5 23.5781 16.5 23.25V14.25C16.5 13.0312 15.4688 12 14.25 12H9.75C8.48438 12 7.5 13.0312 7.5 14.25Z" fill="black" fill-opacity="0.72"/>
</g>
<defs>
<clipPath id="clip0_2556_19747">
<rect width="24" height="36" fill="white"/>
</clipPath>
</defs>
</svg>
