<svg width="25" height="30" viewBox="0 0 25 30" fill="none" xmlns="http://www.w3.org/2000/svg">
<g id="label-paired / lg / laptop-lg / bold" clip-path="url(#clip0_2556_17082)">
<path id="icon" d="M20 8.625H5C4.64844 8.625 4.375 8.9375 4.375 9.25V18H2.5V9.25C2.5 7.88281 3.59375 6.75 5 6.75H20C21.3672 6.75 22.5 7.88281 22.5 9.25V18H20.625V9.25C20.625 8.9375 20.3125 8.625 20 8.625ZM3.75 22.375H21.25C22.0312 22.375 22.7344 21.8672 23.0078 21.125H1.95312C2.22656 21.8672 2.92969 22.375 3.75 22.375ZM0 20.5C0 19.8359 0.546875 19.25 1.25 19.25H23.75C24.4141 19.25 25 19.8359 25 20.5C25 22.5703 23.3203 24.25 21.25 24.25H3.75C1.67969 24.25 0 22.5703 0 20.5Z" fill="black" fill-opacity="0.72"/>
</g>
<defs>
<clipPath id="clip0_2556_17082">
<rect width="25" height="30" fill="white"/>
</clipPath>
</defs>
</svg>
