<svg width="16" height="24" viewBox="0 0 16 24" fill="none" xmlns="http://www.w3.org/2000/svg">
<g id="label-paired / md / filter-md / regular" clip-path="url(#clip0_3758_435)">
<path id="icon" d="M0 6.25C0 5.5625 0.53125 5 1.21875 5H14.75C15.4375 5 16 5.5625 16 6.25C16 6.53125 15.875 6.8125 15.6875 7.03125L10 13.9375V17.9688C10 18.5312 9.5 19.0312 8.9375 19.0312C8.6875 19.0312 8.46875 18.9375 8.28125 18.7812L6.375 17.3125C6.125 17.125 5.96875 16.8438 5.96875 16.5312V13.9375L0.28125 7.03125C0.09375 6.8125 0 6.53125 0 6.25ZM1.21875 6C1.09375 6 1 6.125 1 6.25C1 6.3125 1 6.34375 1.03125 6.40625L6.875 13.4375C6.9375 13.5312 7 13.6562 7 13.75V16.5312L8.90625 18C8.90625 18 8.90625 18 8.9375 18C8.96875 18 9 18 9 17.9688V13.75C9 13.6562 9.03125 13.5312 9.09375 13.4375L14.9375 6.40625C14.9688 6.34375 15 6.3125 15 6.25C15 6.125 14.875 6 14.75 6H1.21875Z" fill="black" fill-opacity="0.72"/>
</g>
<defs>
<clipPath id="clip0_3758_435">
<rect width="16" height="24" fill="white"/>
</clipPath>
</defs>
</svg>
