<svg width="20" height="24" viewBox="0 0 20 24" fill="none" xmlns="http://www.w3.org/2000/svg">
<g id="label-paired / md / hands-holding-diamond-md / fill" clip-path="url(#clip0_2556_14657)">
<path id="icon" d="M9.28125 4.3125C9.65625 3.90625 10.3125 3.90625 10.6875 4.3125L13.6875 7.3125C14.0938 7.6875 14.0938 8.34375 13.6875 8.71875L10.6875 11.7188C10.3125 12.125 9.65625 12.125 9.28125 11.7188L6.28125 8.71875C5.875 8.34375 5.875 7.6875 6.28125 7.3125L9.28125 4.3125ZM2.5 7.25V8.5V11V12.2812C2.5 12.8125 2.6875 13.3125 3.0625 13.6875L4.65625 15.2812C4.9375 15.5312 5.34375 15.5938 5.625 15.375C6.03125 15.125 6.09375 14.5312 5.75 14.1875L5.28125 13.7188L4.28125 12.7188C3.875 12.3438 3.875 11.6875 4.28125 11.3125C4.65625 10.9062 5.3125 10.9062 5.6875 11.3125L6.6875 12.3125L7.15625 12.7812L7.96875 13.5625C8.625 14.2188 9 15.125 9 16.0625V18.5C9 19.3438 8.3125 20 7.5 20H5.40625C4.875 20 4.375 19.8125 4 19.4375L0.875 16.3125C0.3125 15.75 0 14.9688 0 14.1875V11V9V7.25C0 6.5625 0.53125 6 1.25 6C1.9375 6 2.5 6.5625 2.5 7.25ZM17.5 7.25C17.5 6.5625 18.0625 6 18.75 6C19.4375 6 20 6.5625 20 7.25V9V11V14.1875C20 14.9688 19.6875 15.75 19.125 16.3125L16 19.4375C15.625 19.8125 15.0938 20 14.5625 20H12.5C11.6562 20 11 19.3438 11 18.5V16.0625C11 15.125 11.3438 14.2188 12 13.5625L12.8125 12.7812L13.2812 12.3125L14.2812 11.3125C14.6562 10.9062 15.3125 10.9062 15.6875 11.3125C16.0938 11.6875 16.0938 12.3438 15.6875 12.7188L14.6875 13.7188L14.2188 14.1875C13.875 14.5312 13.9375 15.125 14.3438 15.375C14.625 15.5938 15.0312 15.5312 15.3125 15.2812L16.9062 13.6875C17.2812 13.3125 17.5 12.8125 17.5 12.2812V11V8.5V7.25Z" fill="black" fill-opacity="0.72"/>
</g>
<defs>
<clipPath id="clip0_2556_14657">
<rect width="20" height="24" fill="white"/>
</clipPath>
</defs>
</svg>
