<svg width="13" height="30" viewBox="0 0 13 30" fill="none" xmlns="http://www.w3.org/2000/svg">
<g id="label-paired / lg / dollar-sign-lg / bold" clip-path="url(#clip0_2556_17081)">
<path id="icon" d="M7.4375 6.4375V8.39062C8.49219 8.50781 9.46875 8.70312 10.2109 8.85938C10.7188 8.97656 11.0312 9.48438 10.9141 9.99219C10.7969 10.5 10.2891 10.8125 9.78125 10.6953C8.57031 10.4219 6.8125 10.0703 5.32812 10.2266C4.58594 10.2656 4 10.4219 3.57031 10.6953C3.17969 10.9688 2.90625 11.3203 2.78906 11.9062C2.67188 12.3359 2.75 12.6484 2.86719 12.8438C2.94531 13.0781 3.17969 13.2734 3.53125 13.5078C4.27344 13.9766 5.40625 14.25 6.69531 14.6016L6.8125 14.6406C8.02344 14.9531 9.39062 15.3047 10.4453 15.9297C10.9922 16.2422 11.4609 16.7109 11.7734 17.3359C12.125 17.9609 12.1641 18.7031 12.0469 19.4844C11.7734 20.8906 10.7578 21.7891 9.50781 22.2578C8.88281 22.4922 8.17969 22.6484 7.4375 22.6875V24.5625C7.4375 25.1094 7.00781 25.5 6.5 25.5C5.95312 25.5 5.5625 25.1094 5.5625 24.5625V22.6484C5.40625 22.6094 5.28906 22.6094 5.17188 22.5703C4.19531 22.4531 2.47656 22.0625 1.42188 21.5938C0.953125 21.3594 0.71875 20.8125 0.953125 20.3438C1.14844 19.875 1.69531 19.6797 2.16406 19.875C3.02344 20.2266 4.54688 20.6172 5.40625 20.7344C6.8125 20.9297 7.98438 20.8125 8.84375 20.5C9.66406 20.1875 10.0938 19.7188 10.1719 19.1328C10.2891 18.7031 10.2109 18.3906 10.0938 18.1953C10.0156 17.9609 9.78125 17.7266 9.42969 17.5312C8.6875 17.0625 7.59375 16.75 6.26562 16.4375L6.14844 16.3984C4.9375 16.0859 3.57031 15.7344 2.51562 15.1094C2.00781 14.7578 1.5 14.3281 1.1875 13.7031C0.875 13.0391 0.796875 12.3359 0.953125 11.5547C1.14844 10.4219 1.73438 9.64062 2.55469 9.13281C3.33594 8.625 4.27344 8.42969 5.17188 8.35156C5.28906 8.3125 5.40625 8.3125 5.5625 8.3125V6.4375C5.5625 5.92969 5.95312 5.5 6.5 5.5C7.00781 5.5 7.4375 5.92969 7.4375 6.4375Z" fill="black" fill-opacity="0.72"/>
</g>
<defs>
<clipPath id="clip0_2556_17081">
<rect width="13" height="30" fill="white"/>
</clipPath>
</defs>
</svg>
