<svg width="24" height="36" viewBox="0 0 24 36" fill="none" xmlns="http://www.w3.org/2000/svg">
<g id="label-paired / xl / circle-arrow-right-xl / regular" clip-path="url(#clip0_2556_19639)">
<path id="icon" d="M22.5 18C22.5 14.25 20.4844 10.8281 17.25 8.95312C13.9688 7.03125 9.98438 7.03125 6.75 8.95312C3.46875 10.8281 1.5 14.25 1.5 18C1.5 21.7969 3.46875 25.2188 6.75 27.0938C9.98438 29.0156 13.9688 29.0156 17.25 27.0938C20.4844 25.2188 22.5 21.7969 22.5 18ZM0 18C0 13.7344 2.25 9.79688 6 7.64062C9.70312 5.48438 14.25 5.48438 18 7.64062C21.7031 9.79688 24 13.7344 24 18C24 22.3125 21.7031 26.25 18 28.4062C14.25 30.5625 9.70312 30.5625 6 28.4062C2.25 26.25 0 22.3125 0 18ZM13.2656 23.0625C12.9844 23.3438 12.4688 23.3438 12.1875 23.0625C11.9062 22.7812 11.9062 22.2656 12.1875 21.9844L15.4219 18.75H6.75C6.32812 18.75 6 18.4219 6 18C6 17.625 6.32812 17.25 6.75 17.25H15.4219L12.1875 14.0625C11.9062 13.7812 11.9062 13.2656 12.1875 12.9844C12.4688 12.7031 12.9844 12.7031 13.2656 12.9844L17.7656 17.4844C18.0469 17.7656 18.0469 18.2812 17.7656 18.5625L13.2656 23.0625Z" fill="black" fill-opacity="0.72"/>
</g>
<defs>
<clipPath id="clip0_2556_19639">
<rect width="24" height="36" fill="white"/>
</clipPath>
</defs>
</svg>
