<svg width="11" height="18" viewBox="0 0 11 18" fill="none" xmlns="http://www.w3.org/2000/svg">
<g id="label-paired / caption / compress-caption / regular" clip-path="url(#clip0_2556_10349)">
<path id="icon" d="M4 4.625V7.625C4 7.83594 3.8125 8 3.625 8H0.625C0.414062 8 0.25 7.83594 0.25 7.625C0.25 7.4375 0.414062 7.25 0.625 7.25H3.25V4.625C3.25 4.4375 3.41406 4.25 3.625 4.25C3.8125 4.25 4 4.4375 4 4.625ZM0.625 11H3.625C3.8125 11 4 11.1875 4 11.375V14.375C4 14.5859 3.8125 14.75 3.625 14.75C3.41406 14.75 3.25 14.5859 3.25 14.375V11.75H0.625C0.414062 11.75 0.25 11.5859 0.25 11.375C0.25 11.1875 0.414062 11 0.625 11ZM7.75 4.625V7.25H10.375C10.5625 7.25 10.75 7.4375 10.75 7.625C10.75 7.83594 10.5625 8 10.375 8H7.375C7.16406 8 7 7.83594 7 7.625V4.625C7 4.4375 7.16406 4.25 7.375 4.25C7.5625 4.25 7.75 4.4375 7.75 4.625ZM7.375 11H10.375C10.5625 11 10.75 11.1875 10.75 11.375C10.75 11.5859 10.5625 11.75 10.375 11.75H7.75V14.375C7.75 14.5859 7.5625 14.75 7.375 14.75C7.16406 14.75 7 14.5859 7 14.375V11.375C7 11.1875 7.16406 11 7.375 11Z" fill="black" fill-opacity="0.72"/>
</g>
<defs>
<clipPath id="clip0_2556_10349">
<rect width="11" height="18" fill="white"/>
</clipPath>
</defs>
</svg>
