<svg width="14" height="22" viewBox="0 0 14 22" fill="none" xmlns="http://www.w3.org/2000/svg">
<g id="label-paired / sm / chevrons-down-sm / bold" clip-path="url(#clip0_2556_12649)">
<path id="icon" d="M6.53516 16.4648L1.28516 11.2148C1.01172 10.9688 1.01172 10.5586 1.28516 10.2852C1.53125 10.0391 1.94141 10.0391 2.21484 10.2852L7 15.0977L11.7852 10.3125C12.0312 10.0391 12.4414 10.0391 12.7148 10.3125C12.9609 10.5586 12.9609 10.9688 12.7148 11.2148L7.4375 16.4648C7.19141 16.7383 6.78125 16.7383 6.53516 16.4648ZM1.28516 5.96484C1.01172 5.71875 1.01172 5.30859 1.28516 5.03516C1.53125 4.78906 1.94141 4.78906 2.21484 5.03516L7 9.84766L11.7852 5.0625C12.0312 4.78906 12.4414 4.78906 12.7148 5.0625C12.9609 5.30859 12.9609 5.71875 12.7148 5.96484L7.4375 11.2148C7.19141 11.4883 6.78125 11.4883 6.53516 11.2148L1.28516 5.96484Z" fill="black" fill-opacity="0.72"/>
</g>
<defs>
<clipPath id="clip0_2556_12649">
<rect width="14" height="22" fill="white"/>
</clipPath>
</defs>
</svg>
