<svg width="8" height="18" viewBox="0 0 8 18" fill="none" xmlns="http://www.w3.org/2000/svg">
<g id="label-paired / caption / dollar-sign-caption / fill" clip-path="url(#clip0_2556_9994)">
<path id="icon" d="M4 3.5C4.39844 3.5 4.75 3.85156 4.75 4.25V5.09375C4.77344 5.09375 4.82031 5.11719 4.84375 5.11719C4.86719 5.11719 4.86719 5.11719 4.86719 5.11719L5.99219 5.32812C6.41406 5.39844 6.67188 5.79688 6.60156 6.19531C6.53125 6.59375 6.13281 6.875 5.73438 6.80469L4.60938 6.59375C3.88281 6.47656 3.22656 6.57031 2.78125 6.73438C2.33594 6.92188 2.14844 7.17969 2.10156 7.39062C2.05469 7.64844 2.10156 7.78906 2.125 7.88281C2.17188 7.97656 2.26562 8.07031 2.42969 8.1875C2.80469 8.44531 3.39062 8.60938 4.16406 8.79688L4.23438 8.82031C4.89062 9.00781 5.71094 9.21875 6.32031 9.61719C6.64844 9.82812 6.97656 10.1328 7.16406 10.5312C7.375 10.9531 7.39844 11.4219 7.32812 11.9375C7.16406 12.8281 6.53125 13.4141 5.78125 13.7188C5.45312 13.8594 5.10156 13.9297 4.75 13.9766V14.75C4.75 15.1719 4.39844 15.5 4 15.5C3.57812 15.5 3.25 15.1719 3.25 14.75V13.9531C3.22656 13.9297 3.22656 13.9297 3.20312 13.9297C2.64062 13.8594 1.70312 13.6016 1.07031 13.3203C0.671875 13.1562 0.507812 12.7109 0.671875 12.3359C0.859375 11.9609 1.28125 11.7734 1.67969 11.9609C2.14844 12.1719 2.96875 12.3828 3.4375 12.4531C4.1875 12.5703 4.79688 12.5 5.21875 12.3359C5.61719 12.1719 5.78125 11.9375 5.85156 11.6562C5.875 11.3984 5.85156 11.2578 5.80469 11.1875C5.75781 11.0938 5.6875 10.9766 5.5 10.8594C5.125 10.625 4.53906 10.4609 3.76562 10.25L3.69531 10.2266C3.03906 10.0625 2.21875 9.82812 1.60938 9.42969C1.28125 9.21875 0.953125 8.91406 0.765625 8.51562C0.578125 8.09375 0.53125 7.625 0.625 7.13281C0.789062 6.21875 1.46875 5.65625 2.21875 5.35156C2.54688 5.21094 2.875 5.14062 3.25 5.09375V4.25C3.25 3.85156 3.57812 3.5 4 3.5Z" fill="black" fill-opacity="0.72"/>
</g>
<defs>
<clipPath id="clip0_2556_9994">
<rect width="8" height="18" fill="white"/>
</clipPath>
</defs>
</svg>
