<svg width="21" height="36" viewBox="0 0 21 36" fill="none" xmlns="http://www.w3.org/2000/svg">
<g id="label-paired / xl / trash-xl / fill" clip-path="url(#clip0_2556_19931)">
<path id="icon" d="M6.32812 6.84375C6.5625 6.32812 7.07812 6 7.64062 6H13.3125C13.875 6 14.3906 6.32812 14.625 6.84375L15 7.5H19.5C20.2969 7.5 21 8.20312 21 9C21 9.84375 20.2969 10.5 19.5 10.5H1.5C0.65625 10.5 0 9.84375 0 9C0 8.20312 0.65625 7.5 1.5 7.5H6L6.32812 6.84375ZM19.5 12L18.4688 27.8906C18.4219 29.1094 17.4375 30 16.2188 30H4.73438C3.51562 30 2.53125 29.1094 2.48438 27.8906L1.5 12H19.5Z" fill="black" fill-opacity="0.72"/>
</g>
<defs>
<clipPath id="clip0_2556_19931">
<rect width="21" height="36" fill="white"/>
</clipPath>
</defs>
</svg>
