<svg width="27" height="36" viewBox="0 0 27 36" fill="none" xmlns="http://www.w3.org/2000/svg">
<g id="label-paired / xl / page-circle-arrow-right-xl / bold" clip-path="url(#clip0_3558_4017)">
<path id="icon" d="M0 9C0 7.35938 1.3125 6 3 6H11.4844C12.2812 6 13.0312 6.32812 13.5938 6.89062L17.1094 10.4062C17.6719 10.9688 18 11.7188 18 12.5156V15.3281C17.1562 15.5625 16.4062 15.8906 15.75 16.3594V12.5156C15.75 12.3281 15.6562 12.1406 15.5156 12L12 8.48438C11.8594 8.34375 11.6719 8.25 11.4844 8.25H3C2.57812 8.25 2.25 8.625 2.25 9V27C2.25 27.4219 2.57812 27.75 3 27.75H13.3125C13.875 28.6406 14.5781 29.3906 15.4219 30C15.2812 30 15.1406 30 15 30H3C1.3125 30 0 28.6875 0 27V9ZM13.5 23.25C13.5 19.5469 16.5 16.5 20.25 16.5C23.9531 16.5 27 19.5469 27 23.25C27 27 23.9531 30 20.25 30C16.5 30 13.5 27 13.5 23.25ZM16.5 23.25C16.5 23.6719 16.8281 24 17.25 24H21.4219L20.0625 25.3594C19.7812 25.6406 19.7812 26.1562 20.0625 26.4375C20.3438 26.7188 20.8594 26.7188 21.1406 26.4375L23.7656 23.8125C24.0469 23.5312 24.0469 23.0156 23.7656 22.7344L21.1406 20.1094C20.8594 19.8281 20.3438 19.8281 20.0625 20.1094C19.7812 20.3906 19.7812 20.9062 20.0625 21.1875L21.4219 22.5H17.25C16.8281 22.5 16.5 22.875 16.5 23.25Z" fill="black" fill-opacity="0.72"/>
</g>
<defs>
<clipPath id="clip0_3558_4017">
<rect width="27" height="36" fill="white"/>
</clipPath>
</defs>
</svg>
