<svg width="9" height="22" viewBox="0 0 9 22" fill="none" xmlns="http://www.w3.org/2000/svg">
<g id="label-paired / sm / euro-sign-sm / regular" clip-path="url(#clip0_2556_12317)">
<path id="icon" d="M1.05469 9.875H0.5625C0.316406 9.875 0.125 9.68359 0.125 9.4375C0.125 9.21875 0.316406 9 0.5625 9H1.24609C1.98438 6.48438 4.33594 4.625 7.125 4.625H8.46484C8.68359 4.625 8.90234 4.84375 8.90234 5.0625C8.90234 5.30859 8.68359 5.5 8.46484 5.5H7.125C4.82812 5.5 2.88672 6.97656 2.14844 9H7.5625C7.78125 9 8 9.21875 8 9.4375C8 9.68359 7.78125 9.875 7.5625 9.875H1.92969C1.875 10.1758 1.875 10.4766 1.875 10.75C1.875 11.0508 1.90234 11.3516 1.92969 11.625H7.5625C7.78125 11.625 8 11.8438 8 12.0625C8 12.3086 7.78125 12.5 7.5625 12.5H2.14844C2.88672 14.5508 4.82812 16 7.125 16H8.46484C8.68359 16 8.90234 16.2188 8.90234 16.4375C8.90234 16.6836 8.68359 16.875 8.46484 16.875H7.125C4.33594 16.875 1.98438 15.043 1.24609 12.5H0.5625C0.316406 12.5 0.125 12.3086 0.125 12.0625C0.125 11.8438 0.316406 11.625 0.5625 11.625H1.05469C1 11.3516 1 11.0508 1 10.75C1 10.4766 1 10.1758 1.05469 9.875Z" fill="black" fill-opacity="0.72"/>
</g>
<defs>
<clipPath id="clip0_2556_12317">
<rect width="9" height="22" fill="white"/>
</clipPath>
</defs>
</svg>
