<svg width="20" height="30" viewBox="0 0 20 30" fill="none" xmlns="http://www.w3.org/2000/svg">
<g id="label-paired / lg / circle-envelope-lg / bold" clip-path="url(#clip0_2556_17166)">
<path id="icon" d="M10 7.375C7.07031 7.375 4.41406 8.9375 2.92969 11.4375C1.48438 13.9766 1.48438 17.0625 2.92969 19.5625C4.41406 22.1016 7.07031 23.625 10 23.625C12.8906 23.625 15.5469 22.1016 17.0312 19.5625C18.4766 17.0625 18.4766 13.9766 17.0312 11.4375C15.5469 8.9375 12.8906 7.375 10 7.375ZM10 25.5C6.40625 25.5 3.125 23.625 1.32812 20.5C-0.46875 17.4141 -0.46875 13.625 1.32812 10.5C3.125 7.41406 6.40625 5.5 10 5.5C13.5547 5.5 16.8359 7.41406 18.6328 10.5C20.4297 13.625 20.4297 17.4141 18.6328 20.5C16.8359 23.625 13.5547 25.5 10 25.5ZM9.6875 15.5L5 12.9219C5.03906 12.2578 5.58594 11.75 6.25 11.75H13.75C14.375 11.75 14.9219 12.2578 14.9609 12.9219L10.2734 15.5C10.1953 15.5391 10.0781 15.5781 10 15.5781C9.88281 15.5781 9.76562 15.5391 9.6875 15.5ZM10.8594 16.5938L15 14.3281V18C15 18.7031 14.4141 19.25 13.75 19.25H6.25C5.54688 19.25 5 18.7031 5 18V14.3281L9.10156 16.5938C9.375 16.75 9.6875 16.8281 10 16.8281C10.2734 16.8281 10.5859 16.75 10.8594 16.5938Z" fill="black" fill-opacity="0.72"/>
</g>
<defs>
<clipPath id="clip0_2556_17166">
<rect width="20" height="30" fill="white"/>
</clipPath>
</defs>
</svg>
