<svg width="10" height="24" viewBox="0 0 10 24" fill="none" xmlns="http://www.w3.org/2000/svg">
<g id="label-paired / md / dollar-sign-md / fill" clip-path="url(#clip0_2556_14626)">
<path id="icon" d="M5 4C5.53125 4 6 4.46875 6 5V6.125C6.03125 6.125 6.09375 6.15625 6.125 6.15625C6.15625 6.15625 6.15625 6.15625 6.15625 6.15625L7.65625 6.4375C8.21875 6.53125 8.5625 7.0625 8.46875 7.59375C8.375 8.125 7.84375 8.5 7.3125 8.40625L5.8125 8.125C4.84375 7.96875 3.96875 8.09375 3.375 8.3125C2.78125 8.5625 2.53125 8.90625 2.46875 9.1875C2.40625 9.53125 2.46875 9.71875 2.5 9.84375C2.5625 9.96875 2.6875 10.0938 2.90625 10.25C3.40625 10.5938 4.1875 10.8125 5.21875 11.0625L5.3125 11.0938C6.1875 11.3438 7.28125 11.625 8.09375 12.1562C8.53125 12.4375 8.96875 12.8438 9.21875 13.375C9.5 13.9375 9.53125 14.5625 9.4375 15.25C9.21875 16.4375 8.375 17.2188 7.375 17.625C6.9375 17.8125 6.46875 17.9062 6 17.9688V19C6 19.5625 5.53125 20 5 20C4.4375 20 4 19.5625 4 19V17.9375C3.96875 17.9062 3.96875 17.9062 3.9375 17.9062C3.1875 17.8125 1.9375 17.4688 1.09375 17.0938C0.5625 16.875 0.34375 16.2812 0.5625 15.7812C0.8125 15.2812 1.375 15.0312 1.90625 15.2812C2.53125 15.5625 3.625 15.8438 4.25 15.9375C5.25 16.0938 6.0625 16 6.625 15.7812C7.15625 15.5625 7.375 15.25 7.46875 14.875C7.5 14.5312 7.46875 14.3438 7.40625 14.25C7.34375 14.125 7.25 13.9688 7 13.8125C6.5 13.5 5.71875 13.2812 4.6875 13L4.59375 12.9688C3.71875 12.75 2.625 12.4375 1.8125 11.9062C1.375 11.625 0.9375 11.2188 0.6875 10.6875C0.4375 10.125 0.375 9.5 0.5 8.84375C0.71875 7.625 1.625 6.875 2.625 6.46875C3.0625 6.28125 3.5 6.1875 4 6.125V5C4 4.46875 4.4375 4 5 4Z" fill="black" fill-opacity="0.72"/>
</g>
<defs>
<clipPath id="clip0_2556_14626">
<rect width="10" height="24" fill="white"/>
</clipPath>
</defs>
</svg>
