<svg width="11" height="18" viewBox="0 0 11 18" fill="none" xmlns="http://www.w3.org/2000/svg">
<g id="label-paired / caption / square-list-caption / bold" clip-path="url(#clip0_3004_422)">
<path id="icon" d="M1.75 5.375C1.53906 5.375 1.375 5.5625 1.375 5.75V13.25C1.375 13.4609 1.53906 13.625 1.75 13.625H9.25C9.4375 13.625 9.625 13.4609 9.625 13.25V5.75C9.625 5.5625 9.4375 5.375 9.25 5.375H1.75ZM0.25 5.75C0.25 4.92969 0.90625 4.25 1.75 4.25H9.25C10.0703 4.25 10.75 4.92969 10.75 5.75V13.25C10.75 14.0938 10.0703 14.75 9.25 14.75H1.75C0.90625 14.75 0.25 14.0938 0.25 13.25V5.75ZM2.5 7.25C2.5 6.85156 2.82812 6.5 3.25 6.5C3.64844 6.5 4 6.85156 4 7.25C4 7.67188 3.64844 8 3.25 8C2.82812 8 2.5 7.67188 2.5 7.25ZM4.9375 7.25C4.9375 6.94531 5.17188 6.6875 5.5 6.6875H7.75C8.05469 6.6875 8.3125 6.94531 8.3125 7.25C8.3125 7.57812 8.05469 7.8125 7.75 7.8125H5.5C5.17188 7.8125 4.9375 7.57812 4.9375 7.25ZM4.9375 9.5C4.9375 9.19531 5.17188 8.9375 5.5 8.9375H7.75C8.05469 8.9375 8.3125 9.19531 8.3125 9.5C8.3125 9.82812 8.05469 10.0625 7.75 10.0625H5.5C5.17188 10.0625 4.9375 9.82812 4.9375 9.5ZM4.9375 11.75C4.9375 11.4453 5.17188 11.1875 5.5 11.1875H7.75C8.05469 11.1875 8.3125 11.4453 8.3125 11.75C8.3125 12.0781 8.05469 12.3125 7.75 12.3125H5.5C5.17188 12.3125 4.9375 12.0781 4.9375 11.75ZM3.25 10.25C2.82812 10.25 2.5 9.92188 2.5 9.5C2.5 9.10156 2.82812 8.75 3.25 8.75C3.64844 8.75 4 9.10156 4 9.5C4 9.92188 3.64844 10.25 3.25 10.25ZM2.5 11.75C2.5 11.3516 2.82812 11 3.25 11C3.64844 11 4 11.3516 4 11.75C4 12.1719 3.64844 12.5 3.25 12.5C2.82812 12.5 2.5 12.1719 2.5 11.75Z" fill="black" fill-opacity="0.72"/>
</g>
<defs>
<clipPath id="clip0_3004_422">
<rect width="11" height="18" fill="white"/>
</clipPath>
</defs>
</svg>
