<svg width="14" height="22" viewBox="0 0 14 22" fill="none" xmlns="http://www.w3.org/2000/svg">
<g id="label-paired / sm / magnifying-glass-plus-sm / fill" clip-path="url(#clip0_3431_790)">
<path id="icon" d="M11.375 9.4375C11.375 10.6953 10.9648 11.8711 10.2812 12.8008L13.7266 16.2734C14.082 16.6016 14.082 17.1758 13.7266 17.5039C13.3984 17.8594 12.8242 17.8594 12.4961 17.5039L9.02344 14.0312C8.09375 14.7422 6.91797 15.125 5.6875 15.125C2.54297 15.125 0 12.582 0 9.4375C0 6.32031 2.54297 3.75 5.6875 3.75C8.80469 3.75 11.375 6.32031 11.375 9.4375ZM5.03125 11.8438C5.03125 12.2266 5.30469 12.5 5.6875 12.5C6.04297 12.5 6.34375 12.2266 6.34375 11.8438V10.0938H8.09375C8.44922 10.0938 8.75 9.82031 8.75 9.4375C8.75 9.08203 8.44922 8.78125 8.09375 8.78125H6.34375V7.03125C6.34375 6.67578 6.04297 6.375 5.6875 6.375C5.30469 6.375 5.03125 6.67578 5.03125 7.03125V8.78125H3.28125C2.89844 8.78125 2.625 9.08203 2.625 9.4375C2.625 9.82031 2.89844 10.0938 3.28125 10.0938H5.03125V11.8438Z" fill="black" fill-opacity="0.72"/>
</g>
<defs>
<clipPath id="clip0_3431_790">
<rect width="14" height="22" fill="white"/>
</clipPath>
</defs>
</svg>
