<svg width="11" height="18" viewBox="0 0 11 18" fill="none" xmlns="http://www.w3.org/2000/svg">
<g id="label-paired / caption / app-store-ios-caption" clip-path="url(#clip0_2556_9879)">
<path id="icon" d="M9.625 4.25C10.2344 4.25 10.75 4.76562 10.75 5.375V13.625C10.75 14.2578 10.2344 14.75 9.625 14.75H1.375C0.742188 14.75 0.25 14.2578 0.25 13.625V5.375C0.25 4.76562 0.742188 4.25 1.375 4.25H9.625ZM3.22656 12.5234L3.67188 11.75C3.4375 11.4453 3.10938 11.3516 2.73438 11.4688L2.40625 12.0547C2.26562 12.2656 2.35938 12.5703 2.57031 12.6875C2.80469 12.8281 3.08594 12.7578 3.22656 12.5234ZM6.46094 11.2578C6.67188 10.8828 6.41406 10.3203 5.94531 10.3203H4.49219L6.48438 6.82812C6.625 6.61719 6.55469 6.33594 6.32031 6.19531C6.10938 6.07812 5.80469 6.14844 5.6875 6.35938L5.47656 6.73438L5.26562 6.35938C5.14844 6.14844 4.84375 6.07812 4.63281 6.19531C4.39844 6.33594 4.32812 6.61719 4.44531 6.82812L4.9375 7.67188L3.41406 10.3203H2.21875C1.96094 10.3203 1.75 10.5312 1.75 10.7891C1.75 11.0469 1.96094 11.2578 2.21875 11.2578H6.46094ZM8.78125 11.2578C9.03906 11.2578 9.25 11.0469 9.25 10.7891C9.25 10.5312 9.03906 10.3203 8.78125 10.3203H7.5625C6.92969 9.26562 6.48438 8.46875 6.17969 7.92969C5.89844 8.16406 5.61719 8.84375 6.01562 9.52344C6.39062 10.1797 6.97656 11.1875 7.75 12.5234C7.86719 12.7344 8.14844 12.8281 8.38281 12.6875C8.59375 12.5703 8.6875 12.2891 8.54688 12.0547L8.10156 11.2578H8.78125Z" fill="black" fill-opacity="0.72"/>
</g>
<defs>
<clipPath id="clip0_2556_9879">
<rect width="11" height="18" fill="white"/>
</clipPath>
</defs>
</svg>
