<svg width="16" height="24" viewBox="0 0 16 24" fill="none" xmlns="http://www.w3.org/2000/svg">
<g id="label-paired / md / circle-question-md / bold" clip-path="url(#clip0_3578_726)">
<path id="icon" d="M14.5 12C14.5 9.6875 13.25 7.5625 11.25 6.375C9.21875 5.21875 6.75 5.21875 4.75 6.375C2.71875 7.5625 1.5 9.6875 1.5 12C1.5 14.3438 2.71875 16.4688 4.75 17.6562C6.75 18.8125 9.21875 18.8125 11.25 17.6562C13.25 16.4688 14.5 14.3438 14.5 12ZM0 12C0 9.15625 1.5 6.53125 4 5.09375C6.46875 3.65625 9.5 3.65625 12 5.09375C14.4688 6.53125 16 9.15625 16 12C16 14.875 14.4688 17.5 12 18.9375C9.5 20.375 6.46875 20.375 4 18.9375C1.5 17.5 0 14.875 0 12ZM5.28125 9.1875C5.53125 8.46875 6.1875 8 6.9375 8H8.75C9.84375 8 10.75 8.90625 10.75 10C10.75 10.6875 10.3438 11.3438 9.75 11.6875L8.75 12.2812C8.71875 12.6875 8.40625 13 8 13C7.5625 13 7.25 12.6875 7.25 12.25V11.8438C7.25 11.5625 7.375 11.3125 7.625 11.1875L9 10.4062C9.15625 10.3125 9.25 10.1562 9.25 10C9.25 9.71875 9.03125 9.53125 8.75 9.53125H6.9375C6.84375 9.53125 6.75 9.59375 6.71875 9.6875L6.6875 9.71875C6.5625 10.125 6.125 10.3125 5.75 10.1875C5.34375 10.0312 5.15625 9.59375 5.28125 9.21875V9.1875ZM7 15C7 14.4688 7.4375 14 8 14C8.53125 14 9 14.4688 9 15C9 15.5625 8.53125 16 8 16C7.4375 16 7 15.5625 7 15Z" fill="black" fill-opacity="0.72"/>
</g>
<defs>
<clipPath id="clip0_3578_726">
<rect width="16" height="24" fill="white"/>
</clipPath>
</defs>
</svg>
