<svg width="18" height="30" viewBox="0 0 18 30" fill="none" xmlns="http://www.w3.org/2000/svg">
<g id="label-paired / lg / arrow-right-lg / bold" clip-path="url(#clip0_2556_17418)">
<path id="icon" d="M17.4375 16.2031L10.5625 22.7656C10.1719 23.1172 9.58594 23.1172 9.23438 22.7266C8.88281 22.3359 8.88281 21.75 9.27344 21.3984L14.4688 16.4375H1.1875C0.640625 16.4375 0.25 16.0469 0.25 15.5C0.25 14.9922 0.640625 14.5625 1.1875 14.5625H14.4688L9.27344 9.64062C8.88281 9.28906 8.88281 8.66406 9.23438 8.3125C9.58594 7.92188 10.2109 7.92188 10.5625 8.27344L17.4375 14.8359C17.6328 15.0312 17.75 15.2656 17.75 15.5C17.75 15.7734 17.6328 16.0078 17.4375 16.2031Z" fill="black" fill-opacity="0.72"/>
</g>
<defs>
<clipPath id="clip0_2556_17418">
<rect width="18" height="30" fill="white"/>
</clipPath>
</defs>
</svg>
