<svg width="25" height="30" viewBox="0 0 25 30" fill="none" xmlns="http://www.w3.org/2000/svg">
<g id="label-paired / lg / hand-gesture-swipe-left-right-lg / regular" clip-path="url(#clip0_3546_632)">
<path id="icon" d="M12.4609 9.52344C13.2031 9.52344 13.8281 10.1484 13.8281 10.8906V13.9375C14.0234 13.8594 14.2188 13.8203 14.4141 13.8203C15 13.8203 15.5078 14.1719 15.7812 14.6406C15.8984 14.6016 16.0547 14.6016 16.1719 14.6016C16.7578 14.6016 17.2656 14.9531 17.5391 15.3828C17.6172 15.3828 17.6953 15.3828 17.7344 15.3828C18.5938 15.3828 19.2969 16.0859 19.2969 16.9453V19.2891C19.2969 20.8125 18.0469 22.0234 16.5625 22.0234H13.2422C12.6562 22.0234 12.1094 21.9062 11.6016 21.5938L11.3672 21.5156C10.2344 20.8906 9.53125 19.7188 9.53125 18.3906V17.9219C9.53125 17.2969 9.80469 16.75 10.3125 16.3594L10.8594 15.9688C10.9375 15.8906 11.0156 15.8516 11.0938 15.7734V10.8906C11.0938 10.1484 11.7188 9.52344 12.4609 9.52344ZM11.875 10.8906V17.9219C11.875 18.1172 11.6797 18.3125 11.4844 18.3125C11.2891 18.3125 11.0938 18.1172 11.0938 17.9219V16.75L10.7812 16.9844C10.5078 17.2188 10.3125 17.5312 10.3125 17.9219V18.3906C10.3125 19.4062 10.8594 20.3438 11.7578 20.8125L11.9531 20.9297C12.3438 21.125 12.7734 21.2422 13.2422 21.2422H16.5625C17.6562 21.2422 18.5156 20.3828 18.5156 19.2891V16.9453C18.5156 16.5156 18.1641 16.1641 17.7344 16.1641C17.6562 16.1641 17.5391 16.1641 17.4609 16.2422C17.3438 16.2422 17.2266 16.2422 17.1484 16.2031C17.0312 16.1641 16.9531 16.0469 16.9531 15.9688C16.8359 15.6172 16.5234 15.3828 16.1719 15.3828C16.0156 15.3828 15.8984 15.4219 15.7812 15.5C15.6641 15.5781 15.5078 15.5781 15.3906 15.5391C15.2734 15.4609 15.1953 15.3438 15.1953 15.2266C15.1172 14.875 14.8047 14.6016 14.4141 14.6016C14.1406 14.6016 13.9062 14.7578 13.75 14.9531C13.6719 15.1094 13.4766 15.1484 13.3203 15.1094C13.1641 15.0703 13.0469 14.9141 13.0469 14.7578V10.8906C13.0469 10.5781 12.7734 10.3047 12.4609 10.3047C12.1094 10.3047 11.875 10.5781 11.875 10.8906ZM19.0625 13.4297L21.4453 11.0469C21.6016 10.8906 21.6016 10.6562 21.4453 10.5L19.0625 8.11719C18.9062 8 18.6719 8 18.5156 8.11719C18.3594 8.27344 18.3984 8.50781 18.5156 8.66406L20.2734 10.4219H15.7031C15.5078 10.4219 15.3516 10.5781 15.3516 10.7734C15.3516 10.9688 15.5078 11.1641 15.7031 11.1641H20.2734L18.5156 12.8828C18.3984 13.0391 18.3984 13.2734 18.5156 13.4297C18.6719 13.5859 18.9062 13.5859 19.0625 13.4297ZM6.5625 13.4297L4.17969 11.0469C4.0625 10.8906 4.0625 10.6562 4.17969 10.5L6.5625 8.11719C6.71875 7.96094 6.95312 7.96094 7.10938 8.11719C7.26562 8.27344 7.26562 8.50781 7.10938 8.66406L5.35156 10.3828H9.92188C10.1172 10.3828 10.3125 10.5781 10.3125 10.7734C10.3125 10.9688 10.1172 11.1641 9.92188 11.1641H5.35156L7.10938 12.8828C7.26562 13.0391 7.26562 13.2734 7.10938 13.4297C6.95312 13.5859 6.71875 13.5859 6.5625 13.4297Z" fill="black" fill-opacity="0.72"/>
</g>
<defs>
<clipPath id="clip0_3546_632">
<rect width="25" height="30" fill="white"/>
</clipPath>
</defs>
</svg>
