<svg width="12" height="18" viewBox="0 0 12 18" fill="none" xmlns="http://www.w3.org/2000/svg">
<g id="label-paired / caption / face-viewfinder-caption / fill" clip-path="url(#clip0_2512_1053)">
<path id="icon" d="M1.3125 3.5H3.1875C3.53125 3.53125 3.71875 3.71875 3.75 4.0625C3.71875 4.40625 3.53125 4.59375 3.1875 4.625H1.3125C1.20312 4.64062 1.14062 4.70312 1.125 4.8125V6.6875C1.09375 7.03125 0.90625 7.21875 0.5625 7.25C0.21875 7.21875 0.03125 7.03125 0 6.6875V4.8125C0.015625 4.4375 0.140625 4.125 0.375 3.875C0.625 3.64062 0.9375 3.51563 1.3125 3.5ZM8.8125 3.5H10.6875C11.0625 3.51563 11.375 3.64062 11.625 3.875C11.8594 4.125 11.9844 4.4375 12 4.8125V6.6875C11.9688 7.03125 11.7812 7.21875 11.4375 7.25C11.0938 7.21875 10.9062 7.03125 10.875 6.6875V4.8125C10.8594 4.70312 10.7969 4.64062 10.6875 4.625H8.8125C8.46875 4.59375 8.28125 4.40625 8.25 4.0625C8.28125 3.71875 8.46875 3.53125 8.8125 3.5ZM1.125 12.3125V14.1875C1.14062 14.2969 1.20312 14.3594 1.3125 14.375H3.1875C3.53125 14.4062 3.71875 14.5938 3.75 14.9375C3.71875 15.2812 3.53125 15.4688 3.1875 15.5H1.3125C0.9375 15.4844 0.625 15.3594 0.375 15.125C0.140625 14.875 0.015625 14.5625 0 14.1875V12.3125C0.03125 11.9688 0.21875 11.7812 0.5625 11.75C0.90625 11.7812 1.09375 11.9688 1.125 12.3125ZM12 12.3125V14.1875C11.9844 14.5625 11.8594 14.875 11.625 15.125C11.375 15.3594 11.0625 15.4844 10.6875 15.5H8.8125C8.46875 15.4688 8.28125 15.2812 8.25 14.9375C8.28125 14.5938 8.46875 14.4062 8.8125 14.375H10.6875C10.7969 14.3594 10.8594 14.2969 10.875 14.1875V12.3125C10.9062 11.9688 11.0938 11.7812 11.4375 11.75C11.7812 11.7812 11.9688 11.9688 12 12.3125ZM2.25 9.5C2.25 8.82812 2.41406 8.20312 2.74219 7.625C3.08594 7.04688 3.54688 6.58594 4.125 6.24219C4.71875 5.91406 5.34375 5.75 6 5.75C6.65625 5.75 7.28125 5.91406 7.875 6.24219C8.45312 6.58594 8.91406 7.04688 9.25781 7.625C9.58594 8.20312 9.75 8.82812 9.75 9.5C9.75 10.1719 9.58594 10.7969 9.25781 11.375C8.91406 11.9531 8.45312 12.4141 7.875 12.7578C7.28125 13.0859 6.65625 13.25 6 13.25C5.34375 13.25 4.71875 13.0859 4.125 12.7578C3.54688 12.4141 3.08594 11.9531 2.74219 11.375C2.41406 10.7969 2.25 10.1719 2.25 9.5ZM5.25 8.5625C5.21875 8.21875 5.03125 8.03125 4.6875 8C4.34375 8.03125 4.15625 8.21875 4.125 8.5625C4.15625 8.90625 4.34375 9.09375 4.6875 9.125C5.03125 9.09375 5.21875 8.90625 5.25 8.5625ZM7.3125 9.125C7.65625 9.09375 7.84375 8.90625 7.875 8.5625C7.84375 8.21875 7.65625 8.03125 7.3125 8C6.96875 8.03125 6.78125 8.21875 6.75 8.5625C6.78125 8.90625 6.96875 9.09375 7.3125 9.125ZM3.98438 10.3672C3.82812 10.5391 3.82031 10.7109 3.96094 10.8828C4.50781 11.4453 5.1875 11.7344 6 11.75C6.8125 11.7344 7.49219 11.4453 8.03906 10.8828C8.17969 10.7109 8.17188 10.5391 8.01562 10.3672C7.84375 10.2109 7.67188 10.2109 7.5 10.3672C7.10938 10.7734 6.60938 10.9844 6 11C5.40625 10.9844 4.91406 10.7734 4.52344 10.3672C4.33594 10.2109 4.15625 10.2031 3.98438 10.3438V10.3672Z" fill="black" fill-opacity="0.72"/>
</g>
<defs>
<clipPath id="clip0_2512_1053">
<rect width="12" height="18" fill="white"/>
</clipPath>
</defs>
</svg>
