<svg width="14" height="22" viewBox="0 0 14 22" fill="none" xmlns="http://www.w3.org/2000/svg">
<g id="label-paired / sm / wallet-sm / regular" clip-path="url(#clip0_2556_12336)">
<path id="icon" d="M2.1875 4.625H12.6875C12.9062 4.625 13.125 4.84375 13.125 5.0625C13.125 5.30859 12.9062 5.5 12.6875 5.5H2.1875C1.44922 5.5 0.875 6.10156 0.875 6.8125V14.6875C0.875 15.4258 1.44922 16 2.1875 16H11.8125C12.5234 16 13.125 15.4258 13.125 14.6875V8.5625C13.125 7.85156 12.5234 7.25 11.8125 7.25H3.0625C2.81641 7.25 2.625 7.05859 2.625 6.8125C2.625 6.59375 2.81641 6.375 3.0625 6.375H11.8125C13.0156 6.375 14 7.35938 14 8.5625V14.6875C14 15.918 13.0156 16.875 11.8125 16.875H2.1875C0.957031 16.875 0 15.918 0 14.6875V6.8125C0 5.60938 0.957031 4.625 2.1875 4.625ZM10.5 12.2812C10.1172 12.2812 9.84375 12.0078 9.84375 11.625C9.84375 11.2695 10.1172 10.9688 10.5 10.9688C10.8555 10.9688 11.1562 11.2695 11.1562 11.625C11.1562 12.0078 10.8555 12.2812 10.5 12.2812Z" fill="black" fill-opacity="0.72"/>
</g>
<defs>
<clipPath id="clip0_2556_12336">
<rect width="14" height="22" fill="white"/>
</clipPath>
</defs>
</svg>
