<svg width="16" height="24" viewBox="0 0 16 24" fill="none" xmlns="http://www.w3.org/2000/svg">
<g id="label-paired / md / barcode-md / regular" clip-path="url(#clip0_2556_14604)">
<path id="icon" d="M0 5.5C0 5.25 0.21875 5 0.5 5C0.75 5 1 5.25 1 5.5V18.5C1 18.7812 0.75 19 0.5 19C0.21875 19 0 18.7812 0 18.5V5.5ZM2 5.5C2 5.25 2.21875 5 2.5 5C2.75 5 3 5.25 3 5.5V18.5C3 18.7812 2.75 19 2.5 19C2.21875 19 2 18.7812 2 18.5V5.5ZM4.5 5C4.75 5 5 5.25 5 5.5V18.5C5 18.7812 4.75 19 4.5 19C4.21875 19 4 18.7812 4 18.5V5.5C4 5.25 4.21875 5 4.5 5ZM7 5.5C7 5.25 7.21875 5 7.5 5C7.75 5 8 5.25 8 5.5V18.5C8 18.7812 7.75 19 7.5 19C7.21875 19 7 18.7812 7 18.5V5.5ZM9.5 5C9.75 5 10 5.25 10 5.5V18.5C10 18.7812 9.75 19 9.5 19C9.21875 19 9 18.7812 9 18.5V5.5C9 5.25 9.21875 5 9.5 5ZM12 5.5C12 5.25 12.2188 5 12.5 5C12.75 5 13 5.25 13 5.5V18.5C13 18.7812 12.75 19 12.5 19C12.2188 19 12 18.7812 12 18.5V5.5ZM15.5 5C15.75 5 16 5.25 16 5.5V18.5C16 18.7812 15.75 19 15.5 19C15.2188 19 15 18.7812 15 18.5V5.5C15 5.25 15.2188 5 15.5 5Z" fill="black" fill-opacity="0.72"/>
</g>
<defs>
<clipPath id="clip0_2556_14604">
<rect width="16" height="24" fill="white"/>
</clipPath>
</defs>
</svg>
