<svg width="18" height="30" viewBox="0 0 18 30" fill="none" xmlns="http://www.w3.org/2000/svg">
<g id="label-paired / lg / calendar-lg / bold" clip-path="url(#clip0_2556_17583)">
<path id="icon" d="M6.1875 6.4375V8H11.8125V6.4375C11.8125 5.92969 12.2031 5.5 12.75 5.5C13.2578 5.5 13.6875 5.92969 13.6875 6.4375V8H15.25C16.6172 8 17.75 9.13281 17.75 10.5V11.125V13V23C17.75 24.4062 16.6172 25.5 15.25 25.5H2.75C1.34375 25.5 0.25 24.4062 0.25 23V13V11.125V10.5C0.25 9.13281 1.34375 8 2.75 8H4.3125V6.4375C4.3125 5.92969 4.70312 5.5 5.25 5.5C5.75781 5.5 6.1875 5.92969 6.1875 6.4375ZM2.125 13V23C2.125 23.3516 2.39844 23.625 2.75 23.625H15.25C15.5625 23.625 15.875 23.3516 15.875 23V13H2.125Z" fill="black" fill-opacity="0.72"/>
</g>
<defs>
<clipPath id="clip0_2556_17583">
<rect width="18" height="30" fill="white"/>
</clipPath>
</defs>
</svg>
