<svg width="16" height="22" viewBox="0 0 16 22" fill="none" xmlns="http://www.w3.org/2000/svg">
<g id="label-paired / sm / money-bill-sm / bold" clip-path="url(#clip0_2556_12984)">
<path id="icon" d="M3.1875 6.8125C3.1875 7.79688 2.39453 8.5625 1.4375 8.5625V12.9375C2.39453 12.9375 3.1875 13.7305 3.1875 14.6875H12.8125C12.8125 13.7305 13.5781 12.9375 14.5625 12.9375V8.5625C13.5781 8.5625 12.8125 7.79688 12.8125 6.8125H3.1875ZM0.125 7.25C0.125 6.29297 0.890625 5.5 1.875 5.5H14.125C15.082 5.5 15.875 6.29297 15.875 7.25V14.25C15.875 15.2344 15.082 16 14.125 16H1.875C0.890625 16 0.125 15.2344 0.125 14.25V7.25ZM8 8.125C8.92969 8.125 9.77734 8.64453 10.2695 9.4375C10.7344 10.2578 10.7344 11.2695 10.2695 12.0625C9.77734 12.8828 8.92969 13.375 8 13.375C7.04297 13.375 6.19531 12.8828 5.70312 12.0625C5.23828 11.2695 5.23828 10.2578 5.70312 9.4375C6.19531 8.64453 7.04297 8.125 8 8.125Z" fill="black" fill-opacity="0.72"/>
</g>
<defs>
<clipPath id="clip0_2556_12984">
<rect width="16" height="22" fill="white"/>
</clipPath>
</defs>
</svg>
