<svg width="14" height="24" viewBox="0 0 14 24" fill="none" xmlns="http://www.w3.org/2000/svg">
<g id="label-paired / md / arrow-up-from-bracket-md / bold" clip-path="url(#clip0_2556_14982)">
<path id="icon" d="M7.53125 4.21875L11.5 8.21875C11.8125 8.53125 11.8125 9 11.5 9.28125C11.2188 9.59375 10.75 9.59375 10.4375 9.28125L7.71875 6.5625V14.25C7.71875 14.6875 7.40625 15 6.96875 15C6.5625 15 6.21875 14.6875 6.21875 14.25V6.5625L3.5 9.28125C3.21875 9.59375 2.75 9.59375 2.46875 9.28125C2.15625 9 2.15625 8.53125 2.46875 8.21875L6.46875 4.21875C6.75 3.9375 7.21875 3.9375 7.53125 4.21875ZM1.5 14.75V17.25C1.5 17.9688 2.03125 18.5 2.75 18.5H11.25C11.9375 18.5 12.5 17.9688 12.5 17.25V14.75C12.5 14.3438 12.8125 14 13.25 14C13.6562 14 14 14.3438 14 14.75V17.25C14 18.7812 12.75 20 11.25 20H2.75C1.21875 20 0 18.7812 0 17.25V14.75C0 14.3438 0.3125 14 0.75 14C1.15625 14 1.5 14.3438 1.5 14.75Z" fill="black" fill-opacity="0.72"/>
</g>
<defs>
<clipPath id="clip0_2556_14982">
<rect width="14" height="24" fill="white"/>
</clipPath>
</defs>
</svg>
