<svg width="14" height="24" viewBox="0 0 14 24" fill="none" xmlns="http://www.w3.org/2000/svg">
<g id="label-paired / md / flag-checkered-md / regular" clip-path="url(#clip0_2556_14981)">
<path id="icon" d="M1 4.5V5.875L4.0625 5.03125C5.34375 4.6875 6.6875 4.8125 7.875 5.40625C9.1875 6.0625 10.75 6 12 5.28125L12.5 5C13.1562 4.625 14 5.09375 14 5.875V14.6875C14 15.0938 13.75 15.4375 13.375 15.5938L12.4375 16C10.875 16.6875 9.09375 16.625 7.5625 15.875C6.5 15.3438 5.3125 15.2188 4.15625 15.5312L1 16.4062V19.5C1 19.7812 0.75 20 0.5 20C0.21875 20 0 19.7812 0 19.5V16.6562V16V6.5V6.125V4.5C0 4.25 0.21875 4 0.5 4C0.75 4 1 4.25 1 4.5ZM1 6.90625V8.84375L4 8.1875V6.0625L1 6.90625ZM1 9.875V12.0938L4 11.4375V9.21875L1 9.875ZM5 9V11.2188C5.6875 11.0938 6.40625 11.125 7.125 11.3125L9 11.875V9.65625C8.9375 9.65625 8.875 9.625 8.84375 9.625L6.8125 9.03125C6.25 8.875 5.65625 8.84375 5.09375 8.96875L5 9ZM10 9.84375V12.0938C10.4688 12.125 10.9375 12.0938 11.4062 11.9688L13 11.625V9.40625L11.625 9.71875C11.0938 9.84375 10.5312 9.875 10 9.84375ZM9 12.9062C8.9375 12.9062 8.875 12.875 8.84375 12.875L6.8125 12.2812C6.25 12.125 5.65625 12.0938 5.09375 12.2188L5 12.25V14.375C6.03125 14.2812 7.0625 14.5 8.03125 14.9688C8.34375 15.125 8.65625 15.25 9 15.3438V12.9062ZM10 15.4688C10.6875 15.5 11.375 15.375 12.0312 15.0938L13 14.6875V12.6562L11.625 12.9688C11.0938 13.0938 10.5312 13.125 10 13.0938V15.4688ZM10 8.8125V8.84375C10.4688 8.875 10.9375 8.84375 11.4062 8.71875L13 8.375V5.875L12.5 6.15625C11.7188 6.59375 10.8438 6.84375 10 6.84375V8.8125ZM9 6.78125C8.4375 6.71875 7.9375 6.53125 7.4375 6.28125C6.65625 5.90625 5.8125 5.78125 5 5.875V7.96875C5.6875 7.84375 6.40625 7.875 7.09375 8.0625L9 8.625V6.78125ZM1 13.125V15.375L3.90625 14.5625C3.9375 14.5625 3.96875 14.5625 4 14.5312V12.4688L1 13.125Z" fill="black" fill-opacity="0.72"/>
</g>
<defs>
<clipPath id="clip0_2556_14981">
<rect width="14" height="24" fill="white"/>
</clipPath>
</defs>
</svg>
