<svg width="15" height="30" viewBox="0 0 15 30" fill="none" xmlns="http://www.w3.org/2000/svg">
<g id="label-paired / lg / moon-lg / bold" clip-path="url(#clip0_2556_17467)">
<path id="icon" d="M5.625 9.36719C3.39844 10.5 1.875 12.8438 1.875 15.5C1.875 19.3281 4.92188 22.375 8.71094 22.375C9.21875 22.375 9.72656 22.3359 10.2344 22.2188C6.79688 21.0469 4.33594 17.7656 4.33594 13.9375C4.33594 12.2578 4.80469 10.6953 5.625 9.36719ZM8.04688 6.78906C8.16406 6.78906 8.24219 6.78906 8.32031 6.78906C8.47656 6.78906 8.59375 6.78906 8.71094 6.78906C8.82812 6.78906 8.94531 6.78906 9.02344 6.78906C9.17969 6.78906 9.29688 6.78906 9.45312 6.78906C9.72656 6.82812 9.96094 7.02344 10 7.29688C10.0781 7.57031 9.96094 7.84375 9.72656 7.96094C9.57031 8.03906 9.45312 8.11719 9.33594 8.19531C9.17969 8.3125 9.02344 8.42969 8.86719 8.54688C8.78906 8.58594 8.75 8.625 8.71094 8.66406C7.1875 9.91406 6.21094 11.8281 6.21094 13.9766C6.21094 17.7656 9.29688 20.8125 13.0469 20.8516C13.0859 20.8516 13.0859 20.8516 13.0859 20.8516C13.125 20.8516 13.1641 20.8516 13.2031 20.8516C13.4375 20.8125 13.6328 20.8125 13.8281 20.8125C13.9453 20.7734 14.1016 20.7734 14.2578 20.7344C14.5312 20.6953 14.8047 20.8125 14.9219 21.0469C15.0391 21.3203 15 21.5938 14.8047 21.7891C14.6875 21.9062 14.6094 21.9844 14.4922 22.0625C14.2969 22.2188 14.1406 22.375 13.9453 22.5312C13.8672 22.5703 13.7891 22.6484 13.7109 22.6875C12.3047 23.6641 10.5859 24.25 8.71094 24.25C3.90625 24.25 0 20.3438 0 15.5C0 10.8906 3.55469 7.14062 8.04688 6.78906Z" fill="black" fill-opacity="0.72"/>
</g>
<defs>
<clipPath id="clip0_2556_17467">
<rect width="15" height="30" fill="white"/>
</clipPath>
</defs>
</svg>
