<svg width="15" height="18" viewBox="0 0 15 18" fill="none" xmlns="http://www.w3.org/2000/svg">
<g id="label-paired / caption / book-circle-question-caption / regular" clip-path="url(#clip0_2981_618)">
<path id="icon" d="M0 5C0 4.17969 0.65625 3.5 1.5 3.5H9.375C9.98438 3.5 10.5 4.01562 10.5 4.625V8.16406C10.2188 8.23438 9.98438 8.32812 9.75 8.46875V4.625C9.75 4.4375 9.5625 4.25 9.375 4.25H3V12.5H7.5C7.52344 12.7578 7.57031 13.0156 7.64062 13.25H1.5C1.07812 13.25 0.75 13.6016 0.75 14C0.75 14.4219 1.07812 14.75 1.5 14.75H8.4375C8.67188 15.0547 8.92969 15.2891 9.23438 15.5H1.5C0.65625 15.5 0 14.8438 0 14V5ZM0.75 5V12.7109C0.960938 12.5938 1.21875 12.5 1.5 12.5H2.25V4.25H1.5C1.07812 4.25 0.75 4.60156 0.75 5ZM4.125 6.875C4.125 6.6875 4.28906 6.5 4.5 6.5H8.25C8.4375 6.5 8.625 6.6875 8.625 6.875C8.625 7.08594 8.4375 7.25 8.25 7.25H4.5C4.28906 7.25 4.125 7.08594 4.125 6.875ZM4.125 9.125C4.125 8.9375 4.28906 8.75 4.5 8.75H8.25C8.4375 8.75 8.625 8.9375 8.625 9.125C8.625 9.33594 8.4375 9.5 8.25 9.5H4.5C4.28906 9.5 4.125 9.33594 4.125 9.125ZM8.25 12.125C8.25 10.2734 9.75 8.75 11.625 8.75C13.4766 8.75 15 10.2734 15 12.125C15 14 13.4766 15.5 11.625 15.5C9.75 15.5 8.25 14 8.25 12.125ZM9 12.125C9 13.5781 10.1719 14.75 11.625 14.75C13.0547 14.75 14.25 13.5781 14.25 12.125C14.25 10.6953 13.0547 9.5 11.625 9.5C10.1719 9.5 9 10.6953 9 12.125ZM10.125 11.2344C10.125 10.6953 10.5469 10.25 11.0859 10.25H12.0469C12.6328 10.25 13.125 10.7422 13.125 11.3281C13.125 11.7266 12.8906 12.1016 12.5391 12.2891L11.9766 12.5703C11.9531 12.7578 11.7891 12.875 11.625 12.875C11.4141 12.875 11.25 12.7109 11.25 12.5V12.3594C11.25 12.2188 11.3203 12.0781 11.4375 12.0078L12.1875 11.6328C12.3047 11.5625 12.375 11.4453 12.375 11.3281C12.375 11.1641 12.2109 11 12.0469 11H11.0859C10.9688 11 10.875 11.1172 10.875 11.2344V11.375C10.875 11.5859 10.6875 11.75 10.5 11.75C10.2891 11.75 10.125 11.5859 10.125 11.375V11.2344ZM11.25 13.625C11.25 13.4375 11.4141 13.25 11.625 13.25C11.8125 13.25 12 13.4375 12 13.625C12 13.8359 11.8125 14 11.625 14C11.4141 14 11.25 13.8359 11.25 13.625Z" fill="black" fill-opacity="0.72"/>
</g>
<defs>
<clipPath id="clip0_2981_618">
<rect width="15" height="18" fill="white"/>
</clipPath>
</defs>
</svg>
