<svg width="30" height="36" viewBox="0 0 30 36" fill="none" xmlns="http://www.w3.org/2000/svg">
<g id="label-paired / xl / handshake-xl / bold" clip-path="url(#clip0_4513_701)">
<path id="icon" d="M12.75 9.04688L10.3594 11.4375C9.60938 11.625 8.95312 12 8.39062 12.5156L7.17188 13.5938C6.65625 14.0156 6.04688 14.25 5.39062 14.25H4.5V20.25C5.4375 20.2969 6.32812 20.6719 7.03125 21.375L8.67188 23.0156L9 23.3438L10.2656 24.6094C10.5938 24.9375 11.0625 24.9375 11.3438 24.6094C11.4375 24.5625 11.4844 24.4688 11.5312 24.375C11.6719 24 11.9531 23.7188 12.3281 23.625C12.7031 23.5781 13.0781 23.6719 13.3594 23.9531L13.875 24.4219C14.4375 24.9844 15.2812 24.9844 15.8438 24.4219C16.0781 24.1875 16.2188 23.8594 16.2656 23.5312C16.2656 23.1094 16.5 22.7344 16.875 22.5938C17.25 22.4062 17.6719 22.4531 18.0469 22.6875C18.4688 22.9688 19.0781 22.9688 19.4531 22.5469C19.9219 22.125 19.9219 21.4219 19.4531 20.9531L15.9375 17.3906L14.25 18.9375C12.9844 20.1562 11.0156 20.1562 9.70312 18.9844C8.20312 17.6719 8.15625 15.375 9.60938 14.0156L12.8906 10.9219C14.2031 9.70312 15.8906 9 17.6719 9C19.3594 9 21 9.65625 22.2656 10.7812L23.6719 12H25.5H27.375H29.25C29.625 12 30 12.375 30 12.75V22.5C30 23.3438 29.2969 24 28.5 24H27C26.4375 24 25.9219 23.7188 25.6875 23.25H21.7031C21.5625 23.5781 21.3281 23.9062 21.0469 24.1406C20.25 24.9375 19.1719 25.2656 18.0938 25.0781C17.9531 25.4531 17.7188 25.7344 17.4375 26.0156C16.1719 27.3281 14.1562 27.4219 12.7031 26.4375C11.5312 27.375 9.79688 27.3281 8.67188 26.2031L7.45312 24.9375L7.125 24.6094L5.4375 22.9688C5.15625 22.6875 4.82812 22.5469 4.5 22.5469C4.5 23.3438 3.79688 24 3 24H1.5C0.65625 24 0 23.3438 0 22.5V12.75C0 12.375 0.328125 12 0.75 12H2.625H4.5H5.39062C5.48438 12 5.57812 12 5.67188 11.9062L6.89062 10.8281C8.20312 9.65625 9.89062 9 11.625 9H12.1406C12.3281 9 12.5156 9.04688 12.75 9.04688ZM25.5 21V14.25H23.25C22.9688 14.25 22.6875 14.1562 22.5 13.9688L20.7656 12.4688C19.9219 11.6719 18.7969 11.25 17.6719 11.25C16.4531 11.25 15.3281 11.7188 14.4375 12.5625L11.1562 15.6562C10.6875 16.125 10.6875 16.875 11.2031 17.2969C11.625 17.7188 12.2812 17.7188 12.7031 17.2969L16.0781 14.2031C16.5469 13.7812 17.25 13.7812 17.6719 14.25C18.0938 14.7188 18.0469 15.4219 17.625 15.8438L17.5781 15.8906L21.0469 19.3594C21.5156 19.8281 21.8438 20.4375 21.9844 21H25.4531H25.5ZM3 21.75C3 21.375 2.625 21 2.25 21C1.82812 21 1.5 21.375 1.5 21.75C1.5 22.1719 1.82812 22.5 2.25 22.5C2.625 22.5 3 22.1719 3 21.75ZM27.75 22.5C28.125 22.5 28.5 22.1719 28.5 21.75C28.5 21.375 28.125 21 27.75 21C27.3281 21 27 21.375 27 21.75C27 22.1719 27.3281 22.5 27.75 22.5Z" fill="black" fill-opacity="0.72"/>
</g>
<defs>
<clipPath id="clip0_4513_701">
<rect width="30" height="36" fill="white"/>
</clipPath>
</defs>
</svg>
