<svg width="24" height="36" viewBox="0 0 24 36" fill="none" xmlns="http://www.w3.org/2000/svg">
<g id="label-paired / xl / phone-xl / regular" clip-path="url(#clip0_2556_19465)">
<path id="icon" d="M17.5781 18.9375L22.8281 21.1875C23.6719 21.5156 24.1406 22.4062 23.9531 23.2969L22.8281 28.5469C22.6406 29.3906 21.8906 30.0469 21 30.0469C20.6719 30.0469 20.3906 30 20.1094 30C19.9219 30 19.6875 30 19.5 29.9531C8.57812 29.2031 0 20.1094 0 9C0 8.15625 0.609375 7.35938 1.45312 7.17188L6.70312 6.04688C7.59375 5.85938 8.48438 6.32812 8.8125 7.17188L11.0625 12.4219C11.3906 13.1719 11.2031 14.0625 10.5469 14.5781L8.625 16.1719C9.89062 18.3281 11.6719 20.1094 13.8281 21.375L15.4219 19.4531C15.9375 18.7969 16.8281 18.6094 17.5781 18.9375ZM20.9531 28.5C21.1406 28.5 21.2812 28.4062 21.3281 28.2188L22.4531 22.9688C22.5 22.7812 22.4062 22.6406 22.2656 22.5469L17.0156 20.2969C16.8281 20.25 16.6875 20.2969 16.5469 20.3906L15 22.3125C14.5312 22.875 13.7344 23.0156 13.0781 22.6406C10.6875 21.2812 8.71875 19.3125 7.35938 16.9219C6.98438 16.2656 7.125 15.4688 7.6875 15L9.60938 13.4531C9.70312 13.3125 9.75 13.1719 9.70312 12.9844L7.45312 7.73438C7.35938 7.59375 7.21875 7.5 7.03125 7.54688L1.78125 8.67188C1.59375 8.67188 1.5 8.85938 1.5 9C1.5 19.7812 10.2188 28.5 20.9531 28.5Z" fill="black" fill-opacity="0.72"/>
</g>
<defs>
<clipPath id="clip0_2556_19465">
<rect width="24" height="36" fill="white"/>
</clipPath>
</defs>
</svg>
