<svg width="12" height="18" viewBox="0 0 12 18" fill="none" xmlns="http://www.w3.org/2000/svg">
<g id="label-paired / caption / options-caption / fill" clip-path="url(#clip0_5129_527)">
<path id="icon" d="M1.6875 15.3828C0.960938 15.3828 0.375 14.7969 0.375 14.0703V10.7188C0.375 10.2734 0.726562 9.89844 1.19531 9.89844H1.80469C2.25 9.89844 2.625 10.2734 2.625 10.7188V11.6094L3.32812 10.9062C3.75 10.4844 4.28906 10.25 4.875 10.25H6.51562C6.96094 10.25 7.33594 10.625 7.33594 11.0703V11.5859C7.33594 12.0547 6.96094 12.4062 6.51562 12.4062H5.25C5.01562 12.4062 4.78125 12.5 4.59375 12.6875L4.14844 13.1328H5.03906C5.48438 13.1328 5.85938 13.5078 5.85938 13.9531V14.5625C5.85938 15.0078 5.48438 15.3828 5.03906 15.3828H1.6875ZM10.8281 9.59375H10.2188C9.75 9.59375 9.375 9.21875 9.375 8.75V7.85938L8.67188 8.58594C8.25 8.98438 7.71094 9.21875 7.125 9.21875H5.48438C5.03906 9.21875 4.66406 8.86719 4.66406 8.39844V7.88281C4.66406 7.4375 5.03906 7.0625 5.48438 7.0625H6.75C6.98438 7.0625 7.24219 6.96875 7.40625 6.80469L7.85156 6.33594H6.96094C6.51562 6.33594 6.14062 5.98438 6.14062 5.51562V4.90625C6.14062 4.46094 6.51562 4.08594 6.96094 4.08594H10.3125C11.0391 4.08594 11.625 4.69531 11.625 5.42188V8.75C11.625 9.21875 11.2734 9.57031 10.8047 9.57031H10.8281V9.59375Z" fill="black" fill-opacity="0.72"/>
</g>
<defs>
<clipPath id="clip0_5129_527">
<rect width="12" height="18" fill="white"/>
</clipPath>
</defs>
</svg>
