<svg width="32" height="32" viewBox="0 0 32 32" fill="none" xmlns="http://www.w3.org/2000/svg">
<g id="illustrative / md / stock-indices-md">
<g id="icon">
<path d="M24.6653 14H23.332C22.2253 14 21.332 14.8933 21.332 16V25.3333C21.332 26.44 22.2253 27.3333 23.332 27.3333H24.6653C25.772 27.3333 26.6653 26.44 26.6653 25.3333V16C26.6653 14.8933 25.772 14 24.6653 14ZM25.332 25.3333C25.332 25.7066 25.0387 26 24.6653 26H23.332C22.9587 26 22.6653 25.7066 22.6653 25.3333V16C22.6653 15.6266 22.9587 15.3333 23.332 15.3333H24.6653C25.0387 15.3333 25.332 15.6266 25.332 16V25.3333Z" fill="black" fill-opacity="0.72"/>
<path d="M16.6653 18H15.332C14.2253 18 13.332 18.8933 13.332 20V25.3333C13.332 26.44 14.2253 27.3333 15.332 27.3333H16.6653C17.772 27.3333 18.6653 26.44 18.6653 25.3333V20C18.6653 18.8933 17.772 18 16.6653 18ZM17.332 25.3333C17.332 25.7066 17.0387 26 16.6653 26H15.332C14.9587 26 14.6653 25.7066 14.6653 25.3333V20C14.6653 19.6266 14.9587 19.3333 15.332 19.3333H16.6653C17.0387 19.3333 17.332 19.6266 17.332 20V25.3333Z" fill="black" fill-opacity="0.72"/>
<path d="M8.66535 20.6666H7.33201C6.22535 20.6666 5.33201 21.56 5.33201 22.6666V25.3333C5.33201 26.44 6.22535 27.3333 7.33201 27.3333H8.66535C9.77201 27.3333 10.6653 26.44 10.6653 25.3333V22.6666C10.6653 21.56 9.77201 20.6666 8.66535 20.6666ZM9.33201 25.3333C9.33201 25.7066 9.03868 26 8.66535 26H7.33201C6.95868 26 6.66535 25.7066 6.66535 25.3333V22.6666C6.66535 22.2933 6.95868 22 7.33201 22H8.66535C9.03868 22 9.33201 22.2933 9.33201 22.6666V25.3333Z" fill="black" fill-opacity="0.72"/>
<path d="M27.9587 5.13329C27.9587 5.13329 27.9587 5.09329 27.9453 5.06663C27.9453 5.03996 27.9187 5.02663 27.9053 4.99996C27.8787 4.94663 27.8387 4.89329 27.7987 4.85329C27.772 4.83996 27.7453 4.82663 27.732 4.81329C27.692 4.77329 27.6387 4.74663 27.5853 4.71996C27.5453 4.70663 27.492 4.69329 27.4387 4.69329C27.3987 4.69329 27.372 4.66663 27.332 4.66663H23.332C22.9587 4.66663 22.6653 4.95996 22.6653 5.33329C22.6653 5.70663 22.9587 5.99996 23.332 5.99996H25.6787C22.9053 8.67996 19.7853 10.96 16.3587 12.7466C12.652 14.6666 8.67868 15.9866 4.55868 16.68C4.19868 16.7466 3.94535 17.08 4.01201 17.4533C4.06535 17.7733 4.34535 18.0133 4.66535 18.0133C4.70535 18.0133 4.74535 18.0133 4.77201 18.0133C9.03868 17.3066 13.1453 15.9333 16.972 13.9466C20.5453 12.0933 23.7853 9.71996 26.6653 6.91996V9.34663C26.6653 9.71996 26.9587 10.0133 27.332 10.0133C27.7053 10.0133 27.9987 9.71996 27.9987 9.34663V5.34663C27.9987 5.27996 27.9853 5.21329 27.9587 5.15996V5.13329Z" fill="black" fill-opacity="0.72"/>
</g>
</g>
</svg>
