<svg width="32" height="32" viewBox="0 0 32 32" fill="none" xmlns="http://www.w3.org/2000/svg">
<g id="illustrative / md / synthetic-indices-md">
<g id="icon">
<path d="M21.1159 16.6722H27.2801C27.2801 17.0385 27.2667 18.0014 27.9969 18.0014C28.6543 18.0014 28.6543 16.6722 28.6543 16.6722C28.6473 15.5703 28.6543 17.3744 28.6543 15.9922C28.6543 13.1922 27.7337 10.6189 26.186 8.51223C26.1142 8.41451 26.0751 8.35304 26.0125 8.27223C23.691 5.27223 20.0619 3.32556 15.9792 3.32556C11.9098 3.32556 8.28067 5.27223 5.97246 8.27223C5.91873 8.34205 5.87688 8.40691 5.79901 8.51223C4.2513 10.6056 3.33069 13.1922 3.33069 15.9922C3.33069 18.7922 4.2513 21.3656 5.79901 23.4722C5.81235 23.4989 5.86572 23.5656 5.86572 23.5656C8.17393 26.6456 11.8431 28.6456 15.9792 28.6589C16.4595 28.6589 16.7819 28.462 16.7819 28.0072C16.7819 27.4394 16.2727 27.3389 15.9792 27.3389C14.805 27.3389 13.5509 25.3789 12.8037 22.1922C12.7134 21.8073 12.7424 21.8067 12.6684 21.4694C12.5944 21.1322 12.6051 21.1981 12.5502 20.8722C12.3367 19.6056 12.2033 18.2056 12.1633 16.6722H19.8217C20.2272 16.6722 20.1019 16.6589 20.4622 16.6722C20.8891 16.6722 20.735 16.6722 21.1159 16.6722ZM4.66491 15.3389C4.785 13.2322 5.47879 11.2856 6.5862 9.64556C7.86706 10.2322 9.44145 10.6722 11.1893 10.9656C10.9491 12.3656 10.8157 13.8589 10.789 15.3522H4.66491V15.3389ZM12.5102 11.1389C13.6176 11.2589 14.7784 11.3389 15.9658 11.3389C17.1533 11.3389 18.3007 11.2722 19.3948 11.1389C19.6082 12.4056 19.7417 13.8056 19.7817 15.3389H12.1232C12.1499 13.8189 12.2833 12.4056 12.5102 11.1389ZM15.9525 4.67223C17.1266 4.67223 18.3941 6.63223 19.1279 9.83223C18.1006 9.9389 17.0465 10.0056 15.9525 10.0056C14.8584 10.0056 13.791 9.9389 12.7503 9.8189C13.4975 6.63223 14.7517 4.67223 15.9258 4.67223H15.9525ZM20.7157 10.9656C22.4768 10.6722 24.0646 10.2322 25.3454 9.64556C26.4662 11.2856 27.1466 13.2456 27.2667 15.3389H21.1159C21.0892 13.8589 20.9425 12.3656 20.7157 10.9656ZM24.5049 8.56556C23.3708 9.03223 21.9832 9.40556 20.4622 9.64556C20.0352 7.76556 19.4215 6.12556 18.6209 4.99223C20.9425 5.55223 22.9838 6.8189 24.5049 8.56556ZM13.284 5.00556C12.4835 6.1389 11.8697 7.77889 11.4428 9.64556C9.92177 9.40556 8.54751 9.03223 7.42676 8.56556C8.94778 6.83223 10.9758 5.56556 13.284 5.00556ZM13.284 27.0056C10.9758 26.4456 8.94778 25.1789 7.42676 23.4456C8.54751 22.9789 9.92177 22.6056 11.4428 22.3656C11.8697 24.2322 12.4835 25.8722 13.284 27.0056ZM11.1893 21.0589C9.44145 21.3522 7.86706 21.7922 6.5862 22.3789C5.46545 20.7389 4.785 18.7789 4.65157 16.6856H10.7757C10.8024 18.1656 10.9491 19.6589 11.1759 21.0722L11.1893 21.0589Z" fill="#414652"/>
<path d="M28.6544 23.3649C28.6544 23.2582 28.6277 23.1516 28.5744 23.0716V23.0449L25.9077 18.4182C25.9077 18.4182 25.8944 18.4049 25.8811 18.3916C25.8277 18.3116 25.7611 18.2316 25.6677 18.1782C25.5744 18.1249 25.4811 18.0982 25.3744 18.0982C25.3744 18.0982 25.3477 18.0982 25.3344 18.0982H20.0011C20.0011 18.0982 19.9744 18.0982 19.9611 18.0982C19.8677 18.0982 19.7611 18.1249 19.6677 18.1782C19.5744 18.2316 19.5077 18.3116 19.4544 18.3916C19.4544 18.3916 19.4411 18.3916 19.4277 18.4182L16.7611 23.0449V23.0716C16.7077 23.1649 16.6811 23.2582 16.6811 23.3782C16.6811 23.4849 16.7077 23.5916 16.7611 23.6716V23.6982L19.4277 28.3116C19.4277 28.3116 19.4411 28.3116 19.4544 28.3382C19.5077 28.4316 19.5744 28.4982 19.6677 28.5649C19.7744 28.6182 19.8811 28.6582 20.0011 28.6582H25.3344C25.4544 28.6582 25.5744 28.6316 25.6677 28.5649C25.7611 28.5116 25.8277 28.4316 25.8811 28.3382C25.8811 28.3382 25.8944 28.3382 25.9077 28.3116L28.5744 23.6982V23.6716C28.6277 23.5782 28.6544 23.4849 28.6544 23.3782V23.3649ZM25.3211 26.6449L25.2277 26.4849C25.1077 26.2716 24.8811 26.1649 24.6544 26.1649C24.7077 26.0716 24.7344 25.9649 24.7344 25.8449C24.7344 25.7249 24.7077 25.6049 24.6411 25.4982C24.3611 25.0182 24.0811 24.5249 23.8011 24.0316H25.4944C25.7477 24.0316 25.9611 23.8849 26.0677 23.6849C26.1877 23.8849 26.3877 24.0316 26.6411 24.0316H26.8144L25.3077 26.6449H25.3211ZM18.4811 24.0316H18.6544C18.9077 24.0316 19.1077 23.8849 19.2277 23.6849C19.3477 23.8849 19.5477 24.0316 19.8011 24.0316H21.4944C21.3744 24.2449 21.2544 24.4582 21.1344 24.6582L20.6544 25.4849C20.5611 25.6449 20.5344 25.8182 20.5744 25.9916C20.5877 26.0582 20.6277 26.1116 20.6677 26.1649C20.4411 26.1649 20.2144 26.2716 20.0811 26.4849L19.9877 26.6449L18.4811 24.0316ZM19.9877 20.0716L20.0811 20.2316C20.2011 20.4449 20.4277 20.5649 20.6544 20.5649C20.5344 20.7649 20.5211 21.0182 20.6411 21.2316C20.9077 21.6849 21.1744 22.1382 21.4411 22.6049L21.4944 22.6982H19.8011C19.5477 22.6982 19.3477 22.8449 19.2277 23.0449C19.1077 22.8449 18.9077 22.6982 18.6544 22.6982H18.4811L19.9877 20.0716ZM24.0811 19.5649C23.9611 19.7782 23.9744 20.0316 24.0811 20.2316C23.8544 20.2316 23.6144 20.3382 23.4944 20.5516C23.2277 21.0182 22.9477 21.4849 22.6811 21.9516L22.6411 22.0316C22.5077 21.7916 22.3611 21.5516 22.2277 21.3116L21.7877 20.5516C21.6677 20.3516 21.4411 20.2449 21.2011 20.2449C21.3211 20.0449 21.3477 19.7782 21.2144 19.5649L21.1211 19.4049H24.1477L24.0544 19.5649H24.0811ZM21.2277 26.4982C21.4677 26.4982 21.6811 26.3649 21.8011 26.1649C22.0811 25.6716 22.3744 25.1782 22.6544 24.6849C22.8144 24.9649 22.9877 25.2449 23.1477 25.5382L23.5077 26.1649C23.6277 26.3649 23.8411 26.4982 24.0811 26.4982C23.9744 26.6982 23.9477 26.9516 24.0811 27.1516L24.1744 27.3116H21.1477L21.2411 27.1516C21.3611 26.9382 21.3477 26.6982 21.2411 26.4982H21.2277ZM26.6544 22.6982C26.4011 22.6982 26.1877 22.8449 26.0811 23.0449C25.9744 22.8449 25.7611 22.6982 25.5077 22.6982H23.8011C23.9077 22.5116 24.0144 22.3249 24.1211 22.1382C24.3077 21.8316 24.4811 21.5249 24.6544 21.2182C24.7211 21.1116 24.7477 20.9916 24.7477 20.8716C24.7477 20.7516 24.7211 20.6582 24.6677 20.5649C24.8944 20.5649 25.1077 20.4449 25.2277 20.2316L25.3211 20.0716L26.8277 22.6982H26.6544Z" fill="#414652"/>
</g>
</g>
</svg>
