<svg width="32" height="32" viewBox="0 0 32 32" fill="none" xmlns="http://www.w3.org/2000/svg">
<g id="illustrative / md / accumulator-options-md">
<path id="icon" d="M8.26665 28.6931C6.98665 28.6931 5.94666 27.6531 5.94666 26.3731V24.8264C5.94666 22.9864 7.43999 21.4931 9.27999 21.4931H11.28V19.3864C11.28 17.5464 12.7733 16.0531 14.6133 16.0531H16.8267V11.3998L16.2667 11.9598C15.4533 12.7731 14.1467 12.7731 13.3333 11.9598L12.8533 11.4798C12.4667 11.0931 12.24 10.5731 12.24 10.0131C12.24 9.45311 12.4533 8.94644 12.8533 8.54644L17.3467 4.05311C18.3333 3.06644 19.9467 3.06644 20.9467 4.05311L25.44 8.54644C26.2533 9.35978 26.2533 10.6664 25.44 11.4798L24.96 11.9598C24.1733 12.7464 22.8133 12.7464 22.0267 11.9598L21.4667 11.3998V17.3464C21.4667 19.1864 19.9733 20.6798 18.1333 20.6798H15.92V22.7864C15.92 24.6264 14.4267 26.1198 12.5867 26.1198H10.5867V26.3598C10.5867 27.6398 9.54665 28.6798 8.26665 28.6798V28.6931ZM9.27999 22.8398C8.17332 22.8398 7.27999 23.7331 7.27999 24.8398V26.3864C7.27999 26.9331 7.71999 27.3731 8.26665 27.3731C8.81332 27.3731 9.25332 26.9331 9.25332 26.3864V25.4798C9.25332 25.1064 9.54666 24.8131 9.91999 24.8131H12.5867C13.6933 24.8131 14.5867 23.9198 14.5867 22.8131V20.0398C14.5867 19.6664 14.88 19.3731 15.2533 19.3731H18.1333C19.24 19.3731 20.1333 18.4798 20.1333 17.3731V10.9464C20.1333 10.4798 20.4133 10.0664 20.84 9.89311C21.2667 9.71978 21.7467 9.81311 22.08 10.1331L22.9733 11.0264C23.2667 11.3198 23.7333 11.3198 24.0267 11.0264L24.5067 10.5464C24.8 10.2531 24.8 9.78644 24.5067 9.49311L20.0133 4.99978C19.7867 4.77311 19.48 4.65311 19.16 4.65311C18.84 4.65311 18.5333 4.77311 18.3067 5.01311L13.8133 9.50644C13.68 9.63978 13.6 9.82644 13.6 10.0264C13.6 10.2264 13.68 10.4131 13.8133 10.5464L14.2933 11.0264C14.5867 11.3198 15.0533 11.3198 15.3467 11.0264L16.2533 10.1198C16.5733 9.79978 17.0667 9.69311 17.4933 9.87978C17.92 10.0531 18.2 10.4664 18.2 10.9331V16.7331C18.2 17.1064 17.9067 17.3998 17.5333 17.3998H14.6533C13.5467 17.3998 12.6533 18.2931 12.6533 19.3998V22.1731C12.6533 22.5464 12.36 22.8398 11.9867 22.8398H9.31999H9.27999Z" fill="black" fill-opacity="0.72"/>
</g>
</svg>
