<svg width="32" height="32" viewBox="0 0 32 32" fill="none" xmlns="http://www.w3.org/2000/svg">
<g id="illustrative / md / derived-fx-md">
<g id="icon">
<path d="M21.1159 16.6722H27.2801C27.2801 17.0385 27.2667 18.0014 27.9969 18.0014C28.6543 18.0014 28.6543 16.6722 28.6543 16.6722C28.6473 15.5703 28.6543 17.3744 28.6543 15.9922C28.6543 13.1922 27.7337 10.6189 26.186 8.51223C26.1142 8.41451 26.0751 8.35304 26.0125 8.27223C23.691 5.27223 20.0619 3.32556 15.9792 3.32556C11.9098 3.32556 8.28067 5.27223 5.97246 8.27223C5.91873 8.34205 5.87688 8.40691 5.79901 8.51223C4.2513 10.6056 3.33069 13.1922 3.33069 15.9922C3.33069 18.7922 4.2513 21.3656 5.79901 23.4722C5.81235 23.4989 5.86572 23.5656 5.86572 23.5656C8.17393 26.6456 11.8431 28.6456 15.9792 28.6589C16.4595 28.6589 16.7819 28.462 16.7819 28.0072C16.7819 27.4394 16.2727 27.3389 15.9792 27.3389C14.805 27.3389 13.5509 25.3789 12.8037 22.1922C12.7134 21.8073 12.7424 21.8067 12.6684 21.4694C12.5944 21.1322 12.6051 21.1981 12.5502 20.8722C12.3367 19.6056 12.2033 18.2056 12.1633 16.6722H19.8217C20.2272 16.6722 20.1019 16.6589 20.4622 16.6722C20.8891 16.6722 20.735 16.6722 21.1159 16.6722ZM4.66491 15.3389C4.785 13.2322 5.47879 11.2856 6.5862 9.64556C7.86706 10.2322 9.44145 10.6722 11.1893 10.9656C10.9491 12.3656 10.8157 13.8589 10.789 15.3522H4.66491V15.3389ZM12.5102 11.1389C13.6176 11.2589 14.7784 11.3389 15.9658 11.3389C17.1533 11.3389 18.3007 11.2722 19.3948 11.1389C19.6082 12.4056 19.7417 13.8056 19.7817 15.3389H12.1232C12.1499 13.8189 12.2833 12.4056 12.5102 11.1389ZM15.9525 4.67223C17.1266 4.67223 18.3941 6.63223 19.1279 9.83223C18.1006 9.9389 17.0465 10.0056 15.9525 10.0056C14.8584 10.0056 13.791 9.9389 12.7503 9.8189C13.4975 6.63223 14.7517 4.67223 15.9258 4.67223H15.9525ZM20.7157 10.9656C22.4768 10.6722 24.0646 10.2322 25.3454 9.64556C26.4662 11.2856 27.1466 13.2456 27.2667 15.3389H21.1159C21.0892 13.8589 20.9425 12.3656 20.7157 10.9656ZM24.5049 8.56556C23.3708 9.03223 21.9832 9.40556 20.4622 9.64556C20.0352 7.76556 19.4215 6.12556 18.6209 4.99223C20.9425 5.55223 22.9838 6.8189 24.5049 8.56556ZM13.284 5.00556C12.4835 6.1389 11.8697 7.77889 11.4428 9.64556C9.92177 9.40556 8.54751 9.03223 7.42676 8.56556C8.94778 6.83223 10.9758 5.56556 13.284 5.00556ZM13.284 27.0056C10.9758 26.4456 8.94778 25.1789 7.42676 23.4456C8.54751 22.9789 9.92177 22.6056 11.4428 22.3656C11.8697 24.2322 12.4835 25.8722 13.284 27.0056ZM11.1893 21.0589C9.44145 21.3522 7.86706 21.7922 6.5862 22.3789C5.46545 20.7389 4.785 18.7789 4.65157 16.6856H10.7757C10.8024 18.1656 10.9491 19.6589 11.1759 21.0722L11.1893 21.0589Z" fill="#414652"/>
<path d="M23.4965 20.6416C23.9458 20.6416 24.2987 20.2888 24.2987 19.8399C24.2987 19.391 23.9458 19.0382 23.4965 19.0382H18.6833C18.2341 19.0382 17.8811 19.391 17.8811 19.8399V27.8566C17.8811 28.3055 18.2341 28.6582 18.6833 28.6582C19.1325 28.6582 19.4855 28.3055 19.4855 27.8566V25.4516H21.8921C22.3414 25.4516 22.6943 25.0988 22.6943 24.6499C22.6943 24.201 22.3414 23.8482 21.8921 23.8482H19.4855V20.6416H23.4965Z" fill="#414652"/>
<path d="M28.2657 22.3083C27.8967 22.0678 27.3993 22.164 27.1586 22.5327L26.2281 23.9437L25.2975 22.5327C25.0569 22.164 24.5595 22.0678 24.1905 22.3083C23.8215 22.5488 23.7252 23.0458 23.9659 23.4146L25.2654 25.3706L23.9659 27.3267C23.7252 27.6955 23.8215 28.1925 24.1905 28.433C24.3349 28.5292 24.4793 28.5613 24.6397 28.5613C24.8964 28.5613 25.1531 28.433 25.3136 28.2085L26.2441 26.7976L27.1747 28.2085C27.3351 28.433 27.5758 28.5613 27.8485 28.5613C28.009 28.5613 28.1534 28.5132 28.2978 28.433C28.6668 28.1925 28.763 27.6955 28.5224 27.3267L27.2228 25.3706L28.5224 23.4146C28.763 23.0458 28.6668 22.5488 28.2978 22.3083H28.2657Z" fill="#414652"/>
</g>
</g>
</svg>
