<svg width="32" height="32" viewBox="0 0 32 32" fill="none" xmlns="http://www.w3.org/2000/svg">
<g id="standalone / md / user-check-md / bold">
<path id="icon" d="M12.25 8.375C11.1172 8.375 10.1016 9 9.51562 9.9375C8.96875 10.9141 8.96875 12.125 9.51562 13.0625C10.1016 14.0391 11.1172 14.625 12.25 14.625C13.3438 14.625 14.3594 14.0391 14.9453 13.0625C15.4922 12.125 15.4922 10.9141 14.9453 9.9375C14.3594 9 13.3438 8.375 12.25 8.375ZM12.25 16.5C10.4531 16.5 8.8125 15.5625 7.91406 14C7.01562 12.4766 7.01562 10.5625 7.91406 9C8.8125 7.47656 10.4531 6.5 12.25 6.5C14.0078 6.5 15.6484 7.47656 16.5469 9C17.4453 10.5625 17.4453 12.4766 16.5469 14C15.6484 15.5625 14.0078 16.5 12.25 16.5ZM10.4531 20.25C7.875 20.25 5.76562 22.1641 5.41406 24.625H19.0469C18.6953 22.1641 16.5859 20.25 14.0078 20.25H10.4531ZM10.4531 18.375H14.0078C17.875 18.375 21 21.5 21 25.3672C21 25.9922 20.4531 26.5 19.8281 26.5H4.63281C4.00781 26.5 3.5 25.9922 3.5 25.3672C3.5 21.5 6.58594 18.375 10.4531 18.375ZM27.9141 13.4141L22.9141 18.4141C22.5234 18.8047 21.9375 18.8047 21.5859 18.4141L19.0859 15.9141C18.6953 15.5625 18.6953 14.9766 19.0859 14.625C19.4375 14.2344 20.0234 14.2344 20.4141 14.625L22.25 16.4609L26.5859 12.125C26.9375 11.7344 27.5234 11.7344 27.9141 12.125C28.2656 12.4766 28.2656 13.0625 27.9141 13.4141Z" fill="black" fill-opacity="0.72"/>
</g>
</svg>
