<svg width="32" height="32" viewBox="0 0 32 32" fill="none" xmlns="http://www.w3.org/2000/svg">
<g id="standalone / md / presentation-screen-md / bold">
<path id="icon" d="M5.6875 6.5H26.3125C26.8203 6.5 27.25 6.92969 27.25 7.4375C27.25 7.98438 26.8203 8.375 26.3125 8.375H5.6875C5.14062 8.375 4.75 7.98438 4.75 7.4375C4.75 6.92969 5.14062 6.5 5.6875 6.5ZM6 9.625H7.875V18.0625C7.875 18.2578 7.99219 18.375 8.1875 18.375H16H23.8125C23.9688 18.375 24.125 18.2578 24.125 18.0625V9.625H26V18.0625C26 19.2734 24.9844 20.25 23.8125 20.25H16.8984V22.0859L19.75 24.9375C20.1406 25.2891 20.1406 25.875 19.75 26.2266C19.3984 26.6172 18.8125 26.6172 18.4219 26.2266L15.9609 23.7656L13.5 26.2266C13.1484 26.6172 12.5625 26.6172 12.2109 26.2266C11.8203 25.875 11.8203 25.2891 12.2109 24.9375L15.0625 22.0859V20.25H8.1875C6.97656 20.25 6 19.2734 6 18.0625V9.625Z" fill="black" fill-opacity="0.72"/>
</g>
</svg>
