<svg width="32" height="32" viewBox="0 0 32 32" fill="none" xmlns="http://www.w3.org/2000/svg">
<g id="standalone / md / chart-candlestick-md / bold">
<path id="icon" d="M7.875 8.6875V22.4375C7.875 22.9844 8.26562 23.375 8.8125 23.375H25.0625C25.5703 23.375 26 23.8047 26 24.3125C26 24.8594 25.5703 25.25 25.0625 25.25H8.8125C7.25 25.25 6 24 6 22.4375V8.6875C6 8.17969 6.39062 7.75 6.9375 7.75C7.44531 7.75 7.875 8.17969 7.875 8.6875ZM18.5 8.375V10.25C19.1641 10.25 19.75 10.8359 19.75 11.5V15.25C19.75 15.9531 19.1641 16.5 18.5 16.5V18.375C18.5 18.7266 18.1875 19 17.875 19C17.5234 19 17.25 18.7266 17.25 18.375V16.5C16.5469 16.5 16 15.9531 16 15.25V11.5C16 10.8359 16.5469 10.25 17.25 10.25V8.375C17.25 8.0625 17.5234 7.75 17.875 7.75C18.1875 7.75 18.5 8.0625 18.5 8.375ZM21 15.25C21 14.5859 21.5469 14 22.25 14V12.125C22.25 11.8125 22.5234 11.5 22.875 11.5C23.1875 11.5 23.5 11.8125 23.5 12.125V14C24.1641 14 24.75 14.5859 24.75 15.25V17.75C24.75 18.4531 24.1641 19 23.5 19V20.875C23.5 21.2266 23.1875 21.5 22.875 21.5C22.5234 21.5 22.25 21.2266 22.25 20.875V19C21.5469 19 21 18.4531 21 17.75V15.25ZM12.25 11.5V9.625C12.25 9.3125 12.5234 9 12.875 9C13.1875 9 13.5 9.3125 13.5 9.625V11.5C14.1641 11.5 14.75 12.0859 14.75 12.75V17.75C14.75 18.4531 14.1641 19 13.5 19V20.875C13.5 21.2266 13.1875 21.5 12.875 21.5C12.5234 21.5 12.25 21.2266 12.25 20.875V19C11.5469 19 11 18.4531 11 17.75V12.75C11 12.0859 11.5469 11.5 12.25 11.5Z" fill="black" fill-opacity="0.72"/>
</g>
</svg>
