<svg width="32" height="32" viewBox="0 0 32 32" fill="none" xmlns="http://www.w3.org/2000/svg">
<g id="standalone / md / ellipsis-md / fill">
<path id="icon" d="M7.5625 16.5C7.5625 15.7188 7.95312 15.0156 8.65625 14.625C9.32031 14.2344 10.1406 14.2344 10.8438 14.625C11.5078 15.0156 11.9375 15.7188 11.9375 16.5C11.9375 17.3203 11.5078 18.0234 10.8438 18.4141C10.1406 18.8047 9.32031 18.8047 8.65625 18.4141C7.95312 18.0234 7.5625 17.3203 7.5625 16.5ZM13.8125 16.5C13.8125 15.7188 14.2031 15.0156 14.9062 14.625C15.5703 14.2344 16.3906 14.2344 17.0938 14.625C17.7578 15.0156 18.1875 15.7188 18.1875 16.5C18.1875 17.3203 17.7578 18.0234 17.0938 18.4141C16.3906 18.8047 15.5703 18.8047 14.9062 18.4141C14.2031 18.0234 13.8125 17.3203 13.8125 16.5ZM22.25 14.3125C23.0312 14.3125 23.7344 14.7422 24.125 15.4062C24.5156 16.1094 24.5156 16.9297 24.125 17.5938C23.7344 18.2969 23.0312 18.6875 22.25 18.6875C21.4297 18.6875 20.7266 18.2969 20.3359 17.5938C19.9453 16.9297 19.9453 16.1094 20.3359 15.4062C20.7266 14.7422 21.4297 14.3125 22.25 14.3125Z" fill="black" fill-opacity="0.72"/>
</g>
</svg>
