<svg width="32" height="32" viewBox="0 0 32 32" fill="none" xmlns="http://www.w3.org/2000/svg">
<g id="standalone / md / eight-md / fill">
<path id="icon" d="M21.625 12.75C21.625 14.1172 21.0781 15.3281 20.2188 16.2266C21.4297 17.1641 22.25 18.6094 22.25 20.25C22.25 23.0234 19.9844 25.25 17.25 25.25H14.75C11.9766 25.25 9.75 23.0234 9.75 20.25C9.75 18.6094 10.5312 17.1641 11.7812 16.2266C10.8828 15.3281 10.375 14.1172 10.375 12.75C10.375 10.0156 12.6016 7.75 15.375 7.75H16.625C19.3594 7.75 21.625 10.0156 21.625 12.75ZM16.625 17.75H15.375H15.3359H14.75C13.3438 17.75 12.25 18.8828 12.25 20.25C12.25 21.6562 13.3438 22.75 14.75 22.75H17.25C18.6172 22.75 19.75 21.6562 19.75 20.25C19.75 18.8828 18.6172 17.75 17.25 17.75H16.625ZM16.625 15.25C17.9922 15.25 19.125 14.1562 19.125 12.75C19.125 11.3828 17.9922 10.25 16.625 10.25H15.375C13.9688 10.25 12.875 11.3828 12.875 12.75C12.875 14.1562 13.9688 15.25 15.375 15.25H16.625Z" fill="black" fill-opacity="0.72"/>
</g>
</svg>
