<svg width="32" height="32" viewBox="0 0 32 32" fill="none" xmlns="http://www.w3.org/2000/svg">
<g id="standalone / md / file-arrow-down-md / fill">
<path id="icon" d="M11 6.5H17.25V11.5C17.25 12.2031 17.7969 12.75 18.5 12.75H23.5V24C23.5 25.4062 22.3672 26.5 21 26.5H11C9.59375 26.5 8.5 25.4062 8.5 24V9C8.5 7.63281 9.59375 6.5 11 6.5ZM18.5 6.5L23.5 11.5H18.5V6.5ZM16.9375 15.5625H16.8984C16.8984 15.0547 16.5078 14.625 15.9609 14.625C15.4531 14.625 15.0234 15.0547 15.0234 15.5625V19.5859L13.8125 18.375C13.4609 17.9844 12.875 17.9844 12.5234 18.375C12.1328 18.7266 12.1328 19.3125 12.5234 19.6641L15.3359 22.4766C15.6875 22.8672 16.2734 22.8672 16.625 22.4766L19.4375 19.6641C19.8281 19.3125 19.8281 18.7266 19.4375 18.375C19.0859 17.9844 18.5 17.9844 18.1484 18.375L16.9375 19.5859V15.5625Z" fill="black" fill-opacity="0.72"/>
</g>
</svg>
