<svg width="32" height="32" viewBox="0 0 32 32" fill="none" xmlns="http://www.w3.org/2000/svg">
<g id="standalone / md / file-circle-info-md / fill">
<path id="icon" d="M4.75 9C4.75 7.63281 5.84375 6.5 7.25 6.5H13.5V11.5C13.5 12.2031 14.0469 12.75 14.75 12.75H19.75V14.2734C16.8594 15.0938 14.75 17.75 14.75 20.875C14.75 23.2188 15.8828 25.25 17.6016 26.5C17.4844 26.5 17.3672 26.5 17.25 26.5H7.25C5.84375 26.5 4.75 25.4062 4.75 24V9ZM19.75 11.5H14.75V6.5L19.75 11.5ZM21.625 15.25C23.6172 15.25 25.4531 16.3438 26.4688 18.0625C27.4844 19.8203 27.4844 21.9688 26.4688 23.6875C25.4531 25.4453 23.6172 26.5 21.625 26.5C19.5938 26.5 17.7578 25.4453 16.7422 23.6875C15.7266 21.9688 15.7266 19.8203 16.7422 18.0625C17.7578 16.3438 19.5938 15.25 21.625 15.25ZM21.625 19C22.1328 19 22.5625 18.6094 22.5625 18.0625C22.5625 17.5547 22.1328 17.125 21.625 17.125C21.0781 17.125 20.6875 17.5547 20.6875 18.0625C20.6875 18.6094 21.0781 19 21.625 19ZM20.375 20.875C20.375 21.2266 20.6484 21.5 21 21.5V23.375C20.6484 23.375 20.375 23.6875 20.375 24C20.375 24.3516 20.6484 24.625 21 24.625H21.625H22.25C22.5625 24.625 22.875 24.3516 22.875 24C22.875 23.6875 22.5625 23.375 22.25 23.375V20.875C22.25 20.5625 21.9375 20.25 21.625 20.25H21C20.6484 20.25 20.375 20.5625 20.375 20.875Z" fill="black" fill-opacity="0.72"/>
</g>
</svg>
