<svg width="32" height="32" viewBox="0 0 32 32" fill="none" xmlns="http://www.w3.org/2000/svg">
<g id="standalone / md / sparkles-md / bold">
<path id="icon" d="M18.7734 9.85938L21 9L21.8203 6.8125C21.8594 6.61719 22.0547 6.5 22.25 6.5C22.4062 6.5 22.6016 6.61719 22.6406 6.8125L23.5 9L25.6875 9.85938C25.8828 9.89844 26 10.0938 26 10.25C26 10.4453 25.8828 10.6406 25.6875 10.6797L23.5 11.5L22.6406 13.7266C22.6016 13.8828 22.4062 14 22.25 14C22.0547 14 21.8594 13.8828 21.8203 13.7266L21 11.5L18.7734 10.6797C18.6172 10.6406 18.5 10.4453 18.5 10.25C18.5 10.0938 18.6172 9.89844 18.7734 9.85938ZM6.35156 15.875L7.01562 15.6016L7.32812 15.4453H7.36719L10.8047 13.8438L12.4062 10.3672L12.5625 10.0547L12.875 9.39062C12.9531 9.15625 13.1875 9 13.4219 9C13.6562 9 13.8906 9.15625 14.0078 9.39062L14.3203 10.0547L14.4375 10.3672L14.4766 10.4062L16.0391 13.8438L19.5156 15.4453L19.8281 15.6016L20.4922 15.9141C20.7266 15.9922 20.8828 16.2266 20.8828 16.4609C20.8828 16.6953 20.7266 16.9297 20.4922 17.0469L19.8281 17.3203L19.5156 17.4766L16.0391 19.0781L14.4375 22.5156V22.5547L14.2812 22.8672L14.0078 23.5312C13.8906 23.7656 13.6562 23.9219 13.4219 23.9219C13.1875 23.9219 12.9531 23.7656 12.875 23.5312L12.5625 22.8672L12.4062 22.5547V22.5156L10.8047 19.0781L7.36719 17.4766H7.32812L7.01562 17.3203L6.35156 17.0469C6.11719 16.9297 6 16.6953 6 16.4609C6 16.2266 6.11719 15.9922 6.35156 15.875ZM9.59375 16.4609L11.5859 17.3984C11.9766 17.5547 12.3281 17.9062 12.5234 18.2969L13.4219 20.2891L14.3594 18.2969C14.5547 17.9062 14.8672 17.5547 15.2578 17.3984L17.25 16.4609L15.2578 15.5234C14.8672 15.3672 14.5547 15.0156 14.3594 14.625L13.4219 12.6328L12.5234 14.625C12.3281 15.0156 11.9766 15.3672 11.5859 15.5234L9.59375 16.4609ZM21 21.5L21.8203 19.3125C21.8594 19.1172 22.0547 19 22.25 19C22.4062 19 22.6016 19.1172 22.6406 19.3125L23.5 21.5L25.6875 22.3594C25.8828 22.3984 26 22.5938 26 22.75C26 22.9453 25.8828 23.1406 25.6875 23.1797L23.5 24L22.6406 26.2266C22.6016 26.3828 22.4062 26.5 22.25 26.5C22.0547 26.5 21.8594 26.3828 21.8203 26.2266L21 24L18.7734 23.1797C18.6172 23.1406 18.5 22.9453 18.5 22.75C18.5 22.5938 18.6172 22.3984 18.7734 22.3594L21 21.5Z" fill="black" fill-opacity="0.72"/>
</g>
</svg>
