<svg width="32" height="32" viewBox="0 0 32 32" fill="none" xmlns="http://www.w3.org/2000/svg">
<g id="standalone / md / circle-arrow-right-md / regular">
<path id="icon" d="M24.75 16.5C24.75 13.375 23.0703 10.5234 20.375 8.96094C17.6406 7.35938 14.3203 7.35938 11.625 8.96094C8.89062 10.5234 7.25 13.375 7.25 16.5C7.25 19.6641 8.89062 22.5156 11.625 24.0781C14.3203 25.6797 17.6406 25.6797 20.375 24.0781C23.0703 22.5156 24.75 19.6641 24.75 16.5ZM6 16.5C6 12.9453 7.875 9.66406 11 7.86719C14.0859 6.07031 17.875 6.07031 21 7.86719C24.0859 9.66406 26 12.9453 26 16.5C26 20.0938 24.0859 23.375 21 25.1719C17.875 26.9688 14.0859 26.9688 11 25.1719C7.875 23.375 6 20.0938 6 16.5ZM17.0547 20.7188C16.8203 20.9531 16.3906 20.9531 16.1562 20.7188C15.9219 20.4844 15.9219 20.0547 16.1562 19.8203L18.8516 17.125H11.625C11.2734 17.125 11 16.8516 11 16.5C11 16.1875 11.2734 15.875 11.625 15.875H18.8516L16.1562 13.2188C15.9219 12.9844 15.9219 12.5547 16.1562 12.3203C16.3906 12.0859 16.8203 12.0859 17.0547 12.3203L20.8047 16.0703C21.0391 16.3047 21.0391 16.7344 20.8047 16.9688L17.0547 20.7188Z" fill="black" fill-opacity="0.72"/>
</g>
</svg>
