<svg width="32" height="32" viewBox="0 0 32 32" fill="none" xmlns="http://www.w3.org/2000/svg">
<g id="standalone / md / lock-md / regular">
<path id="icon" d="M12.25 11.5V14H19.75V11.5C19.75 9.42969 18.0703 7.75 16 7.75C13.9297 7.75 12.25 9.42969 12.25 11.5ZM11 14V11.5C11 8.76562 13.2266 6.5 16 6.5C18.7344 6.5 21 8.76562 21 11.5V14H21.625C23.3438 14 24.75 15.4062 24.75 17.125V23.375C24.75 25.1328 23.3438 26.5 21.625 26.5H10.375C8.61719 26.5 7.25 25.1328 7.25 23.375V17.125C7.25 15.4062 8.61719 14 10.375 14H11ZM8.5 17.125V23.375C8.5 24.4297 9.32031 25.25 10.375 25.25H21.625C22.6406 25.25 23.5 24.4297 23.5 23.375V17.125C23.5 16.1094 22.6406 15.25 21.625 15.25H10.375C9.32031 15.25 8.5 16.1094 8.5 17.125Z" fill="black" fill-opacity="0.72"/>
</g>
</svg>
