<svg width="32" height="32" viewBox="0 0 32 32" fill="none" xmlns="http://www.w3.org/2000/svg">
<g id="standalone / md / ellipsis-vertical-md / fill">
<path id="icon" d="M16 20.5625C16.7812 20.5625 17.4844 20.9922 17.875 21.6562C18.2656 22.3594 18.2656 23.1797 17.875 23.8438C17.4844 24.5469 16.7812 24.9375 16 24.9375C15.1797 24.9375 14.4766 24.5469 14.0859 23.8438C13.6953 23.1797 13.6953 22.3594 14.0859 21.6562C14.4766 20.9922 15.1797 20.5625 16 20.5625ZM16 14.3125C16.7812 14.3125 17.4844 14.7422 17.875 15.4062C18.2656 16.1094 18.2656 16.9297 17.875 17.5938C17.4844 18.2969 16.7812 18.6875 16 18.6875C15.1797 18.6875 14.4766 18.2969 14.0859 17.5938C13.6953 16.9297 13.6953 16.1094 14.0859 15.4062C14.4766 14.7422 15.1797 14.3125 16 14.3125ZM18.1875 10.25C18.1875 11.0703 17.7578 11.7734 17.0938 12.1641C16.3906 12.5547 15.5703 12.5547 14.9062 12.1641C14.2031 11.7734 13.8125 11.0703 13.8125 10.25C13.8125 9.46875 14.2031 8.76562 14.9062 8.375C15.5703 7.98438 16.3906 7.98438 17.0938 8.375C17.7578 8.76562 18.1875 9.46875 18.1875 10.25Z" fill="black" fill-opacity="0.72"/>
</g>
</svg>
