<svg width="32" height="32" viewBox="0 0 32 32" fill="none" xmlns="http://www.w3.org/2000/svg">
<g id="standalone / md / rectangle-ad-md / bold">
<path id="icon" d="M7.25 9.625C6.89844 9.625 6.625 9.9375 6.625 10.25V22.75C6.625 23.1016 6.89844 23.375 7.25 23.375H24.75C25.0625 23.375 25.375 23.1016 25.375 22.75V10.25C25.375 9.9375 25.0625 9.625 24.75 9.625H7.25ZM4.75 10.25C4.75 8.88281 5.84375 7.75 7.25 7.75H24.75C26.1172 7.75 27.25 8.88281 27.25 10.25V22.75C27.25 24.1562 26.1172 25.25 24.75 25.25H7.25C5.84375 25.25 4.75 24.1562 4.75 22.75V10.25ZM13.6953 13.2969L16.5078 18.9219C16.7422 19.3906 16.5469 19.9375 16.0781 20.1719C15.6484 20.4062 15.0625 20.2109 14.8281 19.7422L14.6328 19.3125H11.0781L10.8828 19.7422C10.6484 20.2109 10.1016 20.4062 9.63281 20.1719C9.16406 19.9375 8.96875 19.3906 9.20312 18.9219L12.0156 13.2969C12.1719 12.9844 12.4844 12.75 12.875 12.75C13.2266 12.75 13.5391 12.9453 13.6953 13.2969ZM12.875 15.7969L12.0156 17.4375H13.6953L12.875 15.7969ZM20.0625 16.5C19.5156 16.5 19.125 16.9297 19.125 17.4375C19.125 17.9844 19.5156 18.375 20.0625 18.375C20.5703 18.375 21 17.9844 21 17.4375C21 16.9297 20.5703 16.5 20.0625 16.5ZM21 14.8203V13.6875C21 13.1797 21.3906 12.75 21.9375 12.75C22.4453 12.75 22.875 13.1797 22.875 13.6875V17.4375V19.3125C22.875 19.8594 22.4453 20.25 21.9375 20.25C21.6641 20.25 21.4297 20.1719 21.2734 19.9766C20.8828 20.1719 20.4922 20.25 20.0625 20.25C18.5 20.25 17.25 19 17.25 17.4375C17.25 15.9141 18.5 14.625 20.0625 14.625C20.375 14.625 20.6875 14.7031 21 14.8203Z" fill="black" fill-opacity="0.72"/>
</g>
</svg>
