<svg width="32" height="32" viewBox="0 0 32 32" fill="none" xmlns="http://www.w3.org/2000/svg">
<g id="standalone / md / link-simple-md / fill">
<path id="icon" d="M4.75 16.5C4.75 13.0625 7.52344 10.25 11 10.25H13.5C14.1641 10.25 14.75 10.8359 14.75 11.5C14.75 12.2031 14.1641 12.75 13.5 12.75H11C8.92969 12.75 7.25 14.4297 7.25 16.5C7.25 18.5703 8.92969 20.25 11 20.25H13.5C14.1641 20.25 14.75 20.8359 14.75 21.5C14.75 22.2031 14.1641 22.75 13.5 22.75H11C7.52344 22.75 4.75 19.9766 4.75 16.5ZM27.25 16.5C27.25 19.9766 24.4375 22.75 21 22.75H18.5C17.7969 22.75 17.25 22.2031 17.25 21.5C17.25 20.8359 17.7969 20.25 18.5 20.25H21C23.0703 20.25 24.75 18.5703 24.75 16.5C24.75 14.4297 23.0703 12.75 21 12.75H18.5C17.7969 12.75 17.25 12.2031 17.25 11.5C17.25 10.8359 17.7969 10.25 18.5 10.25H21C24.4375 10.25 27.25 13.0625 27.25 16.5ZM12.25 15.25H19.75C20.4141 15.25 21 15.8359 21 16.5C21 17.2031 20.4141 17.75 19.75 17.75H12.25C11.5469 17.75 11 17.2031 11 16.5C11 15.8359 11.5469 15.25 12.25 15.25Z" fill="black" fill-opacity="0.72"/>
</g>
</svg>
