<svg width="32" height="32" viewBox="0 0 32 32" fill="none" xmlns="http://www.w3.org/2000/svg">
<g id="standalone / md / mobile-notch-md / bold">
<path id="icon" d="M18.5 8.375V9C18.5 9.35156 18.1875 9.625 17.875 9.625H14.125C13.7734 9.625 13.5 9.35156 13.5 9V8.375H12.25C11.5469 8.375 11 8.96094 11 9.625V23.375C11 24.0781 11.5469 24.625 12.25 24.625H19.75C20.4141 24.625 21 24.0781 21 23.375V9.625C21 8.96094 20.4141 8.375 19.75 8.375H18.5ZM9.125 9.625C9.125 7.90625 10.4922 6.5 12.25 6.5H19.75C21.4688 6.5 22.875 7.90625 22.875 9.625V23.375C22.875 25.1328 21.4688 26.5 19.75 26.5H12.25C10.4922 26.5 9.125 25.1328 9.125 23.375V9.625Z" fill="black" fill-opacity="0.72"/>
</g>
</svg>
