<svg width="32" height="32" viewBox="0 0 32 32" fill="none" xmlns="http://www.w3.org/2000/svg">
<g id="standalone / md / floppy-disk-md / bold">
<path id="icon" d="M9.125 10.25V22.75C9.125 23.1016 9.39844 23.375 9.75 23.375H22.25C22.5625 23.375 22.875 23.1016 22.875 22.75V13.1797C22.875 13.0234 22.7969 12.8672 22.6797 12.75L24.0078 11.4219C24.4766 11.8906 24.7109 12.5156 24.7109 13.1797V22.75C24.7109 24.1562 23.6172 25.25 22.2109 25.25H9.75C8.34375 25.25 7.25 24.1562 7.25 22.75V10.25C7.25 8.88281 8.34375 7.75 9.75 7.75H19.3203C19.9844 7.75 20.6094 8.02344 21.0781 8.49219L24.0078 11.4219L22.6797 12.75L19.75 9.82031C19.75 9.82031 19.75 9.82031 19.75 9.78125V13.6875C19.75 14.2344 19.3203 14.625 18.8125 14.625H11.3125C10.7656 14.625 10.375 14.2344 10.375 13.6875V9.625H9.75C9.39844 9.625 9.125 9.9375 9.125 10.25ZM12.25 9.625V12.75H17.875V9.625H12.25ZM13.5 19C13.5 18.1406 13.9688 17.3203 14.75 16.8516C15.4922 16.4219 16.4688 16.4219 17.25 16.8516C17.9922 17.3203 18.5 18.1406 18.5 19C18.5 19.8984 17.9922 20.7188 17.25 21.1875C16.4688 21.6172 15.4922 21.6172 14.75 21.1875C13.9688 20.7188 13.5 19.8984 13.5 19Z" fill="black" fill-opacity="0.72"/>
</g>
</svg>
