<svg width="32" height="32" viewBox="0 0 32 32" fill="none" xmlns="http://www.w3.org/2000/svg">
<g id="standalone / md / five-md / regular">
<path id="icon" d="M11.625 8.25781C11.7031 7.94531 11.9375 7.75 12.25 7.75H20.375C20.6875 7.75 21 8.0625 21 8.375C21 8.72656 20.6875 9 20.375 9H12.7188L11.1562 15.25H17.25C19.9844 15.25 22.25 17.5156 22.25 20.25C22.25 23.0234 19.9844 25.25 17.25 25.25H13.0312C11.7422 25.25 10.5312 24.5469 9.94531 23.375L9.78906 23.0625C9.63281 22.75 9.78906 22.3594 10.0625 22.2031C10.375 22.0469 10.7656 22.1641 10.9219 22.4766L11.0781 22.8281C11.4688 23.5703 12.2109 24.0391 13.0312 24.0391H17.25C19.3203 24.0391 21 22.3594 21 20.2891C21 18.2188 19.3203 16.5391 17.25 16.5391H10.375C10.1797 16.5391 9.98438 16.4219 9.86719 16.2656C9.75 16.1094 9.71094 15.9141 9.75 15.7578L11.625 8.25781Z" fill="black" fill-opacity="0.72"/>
</g>
</svg>
