<svg width="32" height="32" viewBox="0 0 32 32" fill="none" xmlns="http://www.w3.org/2000/svg">
<g id="standalone / md / rotate-device-md / bold">
<path id="icon" d="M21.8281 10.3672C23.1953 11.7344 23.8594 13.4922 23.8594 15.2891H24.3672H24.875C24.875 13.2578 24.0938 11.1875 22.5312 9.625C22.1797 9.3125 21.8281 9 21.4766 8.72656L21.0859 8.49219C20.6172 8.21875 20.1484 7.98438 19.6797 7.78906L19.2109 7.63281L18.6641 7.51562C18.2344 7.39844 17.7656 7.32031 17.3359 7.32031L16.8672 7.28125H15.6562L18.7031 10.3281L19.0547 9.97656L19.4062 9.625L18.1953 8.41406C18.2734 8.45312 18.3516 8.45312 18.4688 8.49219L18.8984 8.60938L19.3281 8.76562C19.7578 8.92188 20.1484 9.11719 20.5391 9.35156L20.8906 9.54688C21.2031 9.78125 21.5156 10.0547 21.8281 10.3672ZM9.40625 22.75C8.03906 21.3828 7.33594 19.625 7.33594 17.8281H6.86719H6.35938C6.35938 19.8594 7.14062 21.9297 8.70312 23.4922C9.01562 23.8047 9.40625 24.1172 9.75781 24.3906L10.1484 24.625C10.5781 24.8984 11.0469 25.1328 11.5547 25.3281L12.0234 25.4844L12.5312 25.6016C13 25.7188 13.4297 25.7969 13.8984 25.7969L14.3672 25.8359H15.5391L12.5312 22.75L12.1797 23.1016L11.8281 23.4531L13.0391 24.7031C12.9609 24.6641 12.8438 24.6641 12.7656 24.625L12.3359 24.5078L11.9062 24.3516C11.4766 24.1953 11.0859 24 10.6953 23.7656L10.3438 23.5703C10.0312 23.3359 9.67969 23.0625 9.40625 22.75ZM22.1406 19.5469L18.625 23.1016C17.9219 23.7656 16.8281 23.7656 16.125 23.1016L9.05469 16.0312C8.39062 15.3281 8.39062 14.2344 9.05469 13.5703L12.6094 10.0156C13.2734 9.35156 14.4062 9.35156 15.0703 10.0156L22.1406 17.0859C22.8438 17.7891 22.8438 18.8828 22.1406 19.5469ZM12.9609 12.4766L11.5547 13.9219C11.2422 14.1953 10.7734 14.1953 10.5 13.9219L10.3047 13.7266L9.79688 14.2734C9.48438 14.5469 9.48438 15.0156 9.79688 15.3281L16.8672 22.3984C17.1406 22.6719 17.6094 22.6719 17.9219 22.3984L21.4375 18.8438C21.75 18.5703 21.75 18.1016 21.4375 17.7891L14.3672 10.7188C14.0938 10.4453 13.625 10.4453 13.3125 10.7188L12.7656 11.2656L12.9609 11.4219C13.2344 11.7344 13.2344 12.2031 12.9609 12.4766ZM12.3359 11.9688L12.0625 11.6953L10.7344 13.0234L11.0078 13.2969L12.3359 11.9688Z" fill="black" fill-opacity="0.72"/>
</g>
</svg>
