<svg width="32" height="32" viewBox="0 0 32 32" fill="none" xmlns="http://www.w3.org/2000/svg">
<g id="standalone / md / arrow-up-a-z-md / regular">
<path id="icon" d="M11.4297 7.94531L15.1797 11.6953C15.4141 11.9297 15.4141 12.3594 15.1797 12.5938C14.9453 12.8281 14.5156 12.8281 14.2812 12.5938L11.625 9.89844V24.625C11.625 24.9766 11.3125 25.25 11 25.25C10.6484 25.25 10.375 24.9766 10.375 24.625V9.89844L7.67969 12.5938C7.44531 12.8281 7.01562 12.8281 6.78125 12.5938C6.54688 12.3594 6.54688 11.9297 6.78125 11.6953L10.5312 7.94531C10.7656 7.71094 11.1953 7.71094 11.4297 7.94531ZM18.5 17.75H23.5C23.7344 17.75 23.9297 17.9062 24.0469 18.1406C24.1641 18.3359 24.125 18.6094 23.9688 18.7656L19.7891 24H23.5C23.8125 24 24.125 24.3125 24.125 24.625C24.125 24.9766 23.8125 25.25 23.5 25.25H18.5C18.2266 25.25 18.0312 25.1328 17.9141 24.8984C17.7969 24.7031 17.8359 24.4297 17.9922 24.2344L22.1719 19H18.5C18.1484 19 17.875 18.7266 17.875 18.375C17.875 18.0625 18.1484 17.75 18.5 17.75ZM21 7.75C21.2344 7.75 21.4297 7.90625 21.5469 8.10156L24.0469 13.1016C24.0469 13.1016 24.0469 13.1016 24.0469 13.1406L24.6719 14.3516C24.8281 14.6641 24.7109 15.0547 24.3984 15.2109C24.0859 15.3672 23.6953 15.25 23.5391 14.9375L23.1094 14H18.8516L18.4219 14.9375C18.2656 15.25 17.875 15.3672 17.5625 15.2109C17.2891 15.0547 17.1328 14.6641 17.2891 14.3516L17.9141 13.1406C17.9141 13.1016 17.9141 13.1016 17.9141 13.1016L20.4141 8.10156C20.5312 7.90625 20.7266 7.75 21 7.75ZM19.4766 12.75H22.4844L21 9.78125L19.4766 12.75Z" fill="black" fill-opacity="0.72"/>
</g>
</svg>
