<svg width="32" height="32" viewBox="0 0 32 32" fill="none" xmlns="http://www.w3.org/2000/svg">
<g id="standalone / md / laptop-mobile-md / bold">
<path id="icon" d="M8.5 8.375C8.14844 8.375 7.875 8.6875 7.875 9V19H17.25V21.5H5.375C4.32031 21.5 3.5 20.6797 3.5 19.625C3.5 19.3125 3.77344 19 4.125 19H6V9C6 7.63281 7.09375 6.5 8.5 6.5H21C22.3672 6.5 23.5 7.63281 23.5 9V10.25H21.625V9C21.625 8.6875 21.3125 8.375 21 8.375H8.5ZM18.5 13.375C18.5 12.3594 19.3203 11.5 20.375 11.5H26.625C27.6406 11.5 28.5 12.3594 28.5 13.375V24.625C28.5 25.6797 27.6406 26.5 26.625 26.5H20.375C19.3203 26.5 18.5 25.6797 18.5 24.625V13.375ZM20.375 13.375V24.625H26.625V13.375H20.375Z" fill="black" fill-opacity="0.72"/>
</g>
</svg>
