<svg width="32" height="32" viewBox="0 0 32 32" fill="none" xmlns="http://www.w3.org/2000/svg">
<g id="standalone / md / computer-mouse-scrollwheel-md / bold">
<path id="icon" d="M21.625 20.25V12.75C21.625 10.3672 19.6328 8.375 17.25 8.375H14.75C12.3281 8.375 10.375 10.3672 10.375 12.75V20.25C10.375 22.6719 12.3281 24.625 14.75 24.625H17.25C19.6328 24.625 21.625 22.6719 21.625 20.25ZM8.5 12.75C8.5 9.3125 11.2734 6.5 14.75 6.5H17.25C20.6875 6.5 23.5 9.3125 23.5 12.75V20.25C23.5 23.7266 20.6875 26.5 17.25 26.5H14.75C11.2734 26.5 8.5 23.7266 8.5 20.25V12.75ZM16 10.25C16.6641 10.25 17.25 10.8359 17.25 11.5V12.75C17.25 13.4531 16.6641 14 16 14C15.2969 14 14.75 13.4531 14.75 12.75V11.5C14.75 10.8359 15.2969 10.25 16 10.25Z" fill="black" fill-opacity="0.72"/>
</g>
</svg>
