<svg width="32" height="32" viewBox="0 0 32 32" fill="none" xmlns="http://www.w3.org/2000/svg">
<g id="standalone / md / user-md / regular">
<path id="icon" d="M19.75 11.5C19.75 10.1719 19.0078 8.96094 17.875 8.25781C16.7031 7.59375 15.2578 7.59375 14.125 8.25781C12.9531 8.96094 12.25 10.1719 12.25 11.5C12.25 12.8672 12.9531 14.0781 14.125 14.7812C15.2578 15.4453 16.7031 15.4453 17.875 14.7812C19.0078 14.0781 19.75 12.8672 19.75 11.5ZM11 11.5C11 9.74219 11.9375 8.10156 13.5 7.20312C15.0234 6.30469 16.9375 6.30469 18.5 7.20312C20.0234 8.10156 21 9.74219 21 11.5C21 13.2969 20.0234 14.9375 18.5 15.8359C16.9375 16.7344 15.0234 16.7344 13.5 15.8359C11.9375 14.9375 11 13.2969 11 11.5ZM8.5 25.25H23.5C23.4219 22.1641 20.8828 19.625 17.7578 19.625H14.2031C11.0781 19.625 8.53906 22.1641 8.5 25.25ZM7.25 25.3672C7.25 21.5 10.3359 18.375 14.2031 18.375H17.7578C21.625 18.375 24.75 21.5 24.75 25.3672C24.75 25.9922 24.2031 26.5 23.5781 26.5H8.38281C7.75781 26.5 7.25 25.9922 7.25 25.3672Z" fill="black" fill-opacity="0.72"/>
</g>
</svg>
