<svg width="32" height="32" viewBox="0 0 32 32" fill="none" xmlns="http://www.w3.org/2000/svg">
<g id="standalone / md / arrow-up-arrow-down-md / fill">
<path id="icon" d="M11.8594 8.14062L15.6094 11.8906C16.1172 12.3594 16.1172 13.1797 15.6094 13.6484C15.1406 14.1562 14.3203 14.1562 13.8516 13.6484L12.25 12.0469V24C12.25 24.7031 11.6641 25.25 11 25.25C10.2969 25.25 9.75 24.7031 9.75 24V12.0469L8.10938 13.6484C7.64062 14.1562 6.82031 14.1562 6.35156 13.6484C5.84375 13.1797 5.84375 12.3594 6.35156 11.8906L10.1016 8.14062C10.5703 7.63281 11.3906 7.63281 11.8594 8.14062ZM25.6094 21.1484L21.8594 24.8984C21.3906 25.4062 20.5703 25.4062 20.1016 24.8984L16.3516 21.1484C15.8438 20.6797 15.8438 19.8594 16.3516 19.3906C16.8203 18.8828 17.6406 18.8828 18.1094 19.3906L19.75 20.9922V9C19.75 8.33594 20.2969 7.75 21 7.75C21.6641 7.75 22.25 8.33594 22.25 9V20.9922L23.8516 19.3906C24.3203 18.8828 25.1406 18.8828 25.6094 19.3906C26.1172 19.8594 26.1172 20.6797 25.6094 21.1484Z" fill="black" fill-opacity="0.72"/>
</g>
</svg>
