<svg width="32" height="32" viewBox="0 0 32 32" fill="none" xmlns="http://www.w3.org/2000/svg">
<g id="standalone / md / circle-nine-md / fill">
<path id="icon" d="M6 16.5C6 12.9453 7.875 9.66406 11 7.86719C14.0859 6.07031 17.875 6.07031 21 7.86719C24.0859 9.66406 26 12.9453 26 16.5C26 20.0938 24.0859 23.375 21 25.1719C17.875 26.9688 14.0859 26.9688 11 25.1719C7.875 23.375 6 20.0938 6 16.5ZM16 17.125C15.2969 17.125 14.7109 16.7734 14.3594 16.1875C14.0078 15.6406 14.0078 14.8984 14.3594 14.3125C14.7109 13.7656 15.2969 13.375 16 13.375C16.6641 13.375 17.25 13.7656 17.6016 14.3125C17.9531 14.8984 17.9531 15.6406 17.6016 16.1875C17.25 16.7734 16.6641 17.125 16 17.125ZM14.9844 18.8828L13.8125 19.8594C13.4219 20.2109 13.3828 20.7969 13.6953 21.1875C14.0469 21.5781 14.6328 21.6172 15.0234 21.3047L18.2266 18.5703C19.1641 17.75 19.75 16.5391 19.75 15.25C19.75 13.1797 18.0703 11.5 16 11.5C13.9297 11.5 12.25 13.1797 12.25 15.25C12.25 16.9688 13.3828 18.4531 14.9844 18.8828Z" fill="black" fill-opacity="0.72"/>
</g>
</svg>
