<svg width="32" height="32" viewBox="0 0 32 32" fill="none" xmlns="http://www.w3.org/2000/svg">
<g id="standalone / md / square-md / bold">
<path id="icon" d="M22.25 9.625H9.75C9.39844 9.625 9.125 9.9375 9.125 10.25V22.75C9.125 23.1016 9.39844 23.375 9.75 23.375H22.25C22.5625 23.375 22.875 23.1016 22.875 22.75V10.25C22.875 9.9375 22.5625 9.625 22.25 9.625ZM9.75 7.75H22.25C23.6172 7.75 24.75 8.88281 24.75 10.25V22.75C24.75 24.1562 23.6172 25.25 22.25 25.25H9.75C8.34375 25.25 7.25 24.1562 7.25 22.75V10.25C7.25 8.88281 8.34375 7.75 9.75 7.75Z" fill="black" fill-opacity="0.72"/>
</g>
</svg>
