<svg width="32" height="32" viewBox="0 0 32 32" fill="none" xmlns="http://www.w3.org/2000/svg">
<g id="standalone / md / pen-md / bold">
<path id="icon" d="M7.40625 20.6016C7.5625 20.0547 7.875 19.5469 8.26562 19.1562L20.1406 7.28125C21.1172 6.30469 22.7188 6.30469 23.6953 7.28125L25.2188 8.80469C25.3359 8.92188 25.4531 9.07812 25.5312 9.19531C26.1953 10.1719 26.0781 11.5 25.2188 12.3594L13.3438 24.2344C13.3047 24.2734 13.2266 24.3125 13.1875 24.3906C12.7969 24.7031 12.3672 24.9375 11.8984 25.0938L8.85156 25.9922L7.17188 26.5C6.85938 26.5781 6.50781 26.5 6.27344 26.2266C6 25.9922 5.92188 25.6406 6.03906 25.3281L6.50781 23.6484L7.40625 20.6016ZM9.20312 21.1484L8.92969 22.0469L8.30469 24.1953L10.4531 23.5703L11.3516 23.2969C11.625 23.2188 11.8203 23.1016 12.0156 22.9062L20.9609 13.9609L18.5391 11.5391L9.59375 20.4844C9.55469 20.4844 9.55469 20.5234 9.51562 20.5625C9.35938 20.7188 9.28125 20.9141 9.20312 21.1484Z" fill="black" fill-opacity="0.72"/>
</g>
</svg>
