<svg width="32" height="32" viewBox="0 0 32 32" fill="none" xmlns="http://www.w3.org/2000/svg">
<g id="standalone / md / question-md / bold">
<path id="icon" d="M12.25 12.75C12.25 13.2969 11.8203 13.6875 11.3125 13.6875C10.7656 13.6875 10.375 13.2969 10.375 12.75C10.375 10.0156 12.6016 7.75 15.3359 7.78906H16.5859C19.3594 7.78906 21.5859 10.0156 21.5859 12.7891V12.9453C21.5859 14.5078 20.8047 15.9922 19.5156 16.8516L17.4844 18.2188C17.1328 18.4531 16.9375 18.8438 16.9375 19.2344V19.3125C16.9375 19.8594 16.5078 20.25 16 20.25C15.4531 20.25 15.0625 19.8594 15.0625 19.3125V19.2344C15.0625 18.2188 15.5703 17.2422 16.4297 16.6562L18.4609 15.2891C19.2812 14.7812 19.75 13.8828 19.75 12.9453V12.75C19.75 11.0312 18.3438 9.625 16.625 9.625H15.375C13.6172 9.625 12.25 11.0312 12.25 12.75ZM16 25.25C15.2969 25.25 14.75 24.7031 14.75 24C14.75 23.3359 15.2969 22.75 16 22.75C16.6641 22.75 17.25 23.3359 17.25 24C17.25 24.7031 16.6641 25.25 16 25.25Z" fill="black" fill-opacity="0.72"/>
</g>
</svg>
