<svg width="32" height="32" viewBox="0 0 32 32" fill="none" xmlns="http://www.w3.org/2000/svg">
<g id="standalone / md / five-md / fill">
<path id="icon" d="M11 8.80469C11.1172 8.21875 11.625 7.75 12.25 7.75H19.75C20.4141 7.75 21 8.33594 21 9C21 9.70312 20.4141 10.25 19.75 10.25H13.2656L12.4844 14.625H16.9375C19.8672 14.625 22.25 17.0078 22.25 19.9375C22.25 22.9062 19.8672 25.25 16.9375 25.25H13.6562C12.1328 25.25 10.7266 24.3906 10.0234 23.0234L9.86719 22.7109C9.55469 22.0859 9.78906 21.3438 10.4141 21.0312C11.0391 20.7188 11.7812 20.9531 12.0938 21.5781L12.25 21.8906C12.5234 22.4375 13.0703 22.75 13.6562 22.75H16.9375C18.4609 22.75 19.75 21.5 19.75 19.9375C19.75 18.4141 18.4609 17.125 16.9375 17.125H11C10.6094 17.125 10.2578 16.9688 10.0234 16.6953C9.78906 16.4219 9.67188 16.0312 9.75 15.6797L11 8.80469Z" fill="black" fill-opacity="0.72"/>
</g>
</svg>
