<svg width="32" height="32" viewBox="0 0 32 32" fill="none" xmlns="http://www.w3.org/2000/svg">
<g id="standalone / md / barcode-md / fill">
<path id="icon" d="M6.9375 7.75H7.5625C8.07031 7.75 8.5 8.17969 8.5 8.6875V24.3125C8.5 24.8594 8.07031 25.25 7.5625 25.25H6.9375C6.39062 25.25 6 24.8594 6 24.3125V8.6875C6 8.17969 6.39062 7.75 6.9375 7.75ZM10.375 7.75C10.6875 7.75 11 8.0625 11 8.375V24.625C11 24.9766 10.6875 25.25 10.375 25.25C10.0234 25.25 9.75 24.9766 9.75 24.625V8.375C9.75 8.0625 10.0234 7.75 10.375 7.75ZM13.1875 7.75H13.8125C14.3203 7.75 14.75 8.17969 14.75 8.6875V24.3125C14.75 24.8594 14.3203 25.25 13.8125 25.25H13.1875C12.6406 25.25 12.25 24.8594 12.25 24.3125V8.6875C12.25 8.17969 12.6406 7.75 13.1875 7.75ZM16.9375 7.75H17.5625C18.0703 7.75 18.5 8.17969 18.5 8.6875V24.3125C18.5 24.8594 18.0703 25.25 17.5625 25.25H16.9375C16.3906 25.25 16 24.8594 16 24.3125V8.6875C16 8.17969 16.3906 7.75 16.9375 7.75ZM23.5 8.6875C23.5 8.17969 23.8906 7.75 24.4375 7.75H25.0625C25.5703 7.75 26 8.17969 26 8.6875V24.3125C26 24.8594 25.5703 25.25 25.0625 25.25H24.4375C23.8906 25.25 23.5 24.8594 23.5 24.3125V8.6875ZM21 8.375C21 8.0625 21.2734 7.75 21.625 7.75C21.9375 7.75 22.25 8.0625 22.25 8.375V24.625C22.25 24.9766 21.9375 25.25 21.625 25.25C21.2734 25.25 21 24.9766 21 24.625V8.375Z" fill="black" fill-opacity="0.72"/>
</g>
</svg>
