<svg width="32" height="32" viewBox="0 0 32 32" fill="none" xmlns="http://www.w3.org/2000/svg">
<g id="standalone / md / expand-md / fill">
<path id="icon" d="M8.5 7.75H12.25C12.9141 7.75 13.5 8.33594 13.5 9C13.5 9.70312 12.9141 10.25 12.25 10.25H9.75V12.75C9.75 13.4531 9.16406 14 8.5 14C7.79688 14 7.25 13.4531 7.25 12.75V9C7.25 8.33594 7.79688 7.75 8.5 7.75ZM9.75 20.25V22.75H12.25C12.9141 22.75 13.5 23.3359 13.5 24C13.5 24.7031 12.9141 25.25 12.25 25.25H8.5C7.79688 25.25 7.25 24.7031 7.25 24V20.25C7.25 19.5859 7.79688 19 8.5 19C9.16406 19 9.75 19.5859 9.75 20.25ZM19.75 7.75H23.5C24.1641 7.75 24.75 8.33594 24.75 9V12.75C24.75 13.4531 24.1641 14 23.5 14C22.7969 14 22.25 13.4531 22.25 12.75V10.25H19.75C19.0469 10.25 18.5 9.70312 18.5 9C18.5 8.33594 19.0469 7.75 19.75 7.75ZM24.75 20.25V24C24.75 24.7031 24.1641 25.25 23.5 25.25H19.75C19.0469 25.25 18.5 24.7031 18.5 24C18.5 23.3359 19.0469 22.75 19.75 22.75H22.25V20.25C22.25 19.5859 22.7969 19 23.5 19C24.1641 19 24.75 19.5859 24.75 20.25Z" fill="black" fill-opacity="0.72"/>
</g>
</svg>
