<svg width="32" height="32" viewBox="0 0 32 32" fill="none" xmlns="http://www.w3.org/2000/svg">
<g id="standalone / md / signal-md / bold">
<path id="icon" d="M26 6.5C26.5078 6.5 26.9375 6.92969 26.9375 7.4375V25.5625C26.9375 26.1094 26.5078 26.5 26 26.5C25.4531 26.5 25.0625 26.1094 25.0625 25.5625V7.4375C25.0625 6.92969 25.4531 6.5 26 6.5ZM21 10.25C21.5078 10.25 21.9375 10.6797 21.9375 11.1875V25.5625C21.9375 26.1094 21.5078 26.5 21 26.5C20.4531 26.5 20.0625 26.1094 20.0625 25.5625V11.1875C20.0625 10.6797 20.4531 10.25 21 10.25ZM16 14C16.5078 14 16.9375 14.4297 16.9375 14.9375V25.5625C16.9375 26.1094 16.5078 26.5 16 26.5C15.4531 26.5 15.0625 26.1094 15.0625 25.5625V14.9375C15.0625 14.4297 15.4531 14 16 14ZM11 17.75C11.5078 17.75 11.9375 18.1797 11.9375 18.6875V25.5625C11.9375 26.1094 11.5078 26.5 11 26.5C10.4531 26.5 10.0625 26.1094 10.0625 25.5625V18.6875C10.0625 18.1797 10.4531 17.75 11 17.75ZM6 21.5C6.50781 21.5 6.9375 21.9297 6.9375 22.4375V25.5625C6.9375 26.1094 6.50781 26.5 6 26.5C5.45312 26.5 5.0625 26.1094 5.0625 25.5625V22.4375C5.0625 21.9297 5.45312 21.5 6 21.5Z" fill="black" fill-opacity="0.72"/>
</g>
</svg>
