<svg width="32" height="32" viewBox="0 0 32 32" fill="none" xmlns="http://www.w3.org/2000/svg">
<g id="standalone / md / camera-md / regular">
<path id="icon" d="M13.4609 7.75H18.5C19.3203 7.75 20.0234 8.29688 20.2969 9.03906L20.6875 10.25H23.5C24.8672 10.25 26 11.3828 26 12.75V22.75C26 24.1562 24.8672 25.25 23.5 25.25H8.5C7.09375 25.25 6 24.1562 6 22.75V12.75C6 11.3828 7.09375 10.25 8.5 10.25H11.2734L11.6641 9.03906C11.9375 8.29688 12.6406 7.75 13.4609 7.75ZM12.8359 9.42969L12.2891 11.1094C12.2109 11.3438 11.9766 11.5 11.7031 11.5H8.5C7.79688 11.5 7.25 12.0859 7.25 12.75V22.75C7.25 23.4531 7.79688 24 8.5 24H23.5C24.1641 24 24.75 23.4531 24.75 22.75V12.75C24.75 12.0859 24.1641 11.5 23.5 11.5H20.2578C19.9844 11.5 19.75 11.3438 19.6719 11.0703L19.125 9.42969C19.0078 9.19531 18.7734 9 18.5 9H13.4609C13.1875 9 12.9531 9.19531 12.8359 9.42969ZM16 22.125C14.3984 22.125 12.9922 21.3047 12.2109 19.9375C11.3906 18.6094 11.3906 16.9297 12.2109 15.5625C12.9922 14.2344 14.3984 13.375 16 13.375C17.5625 13.375 18.9688 14.2344 19.75 15.5625C20.5703 16.9297 20.5703 18.6094 19.75 19.9375C18.9688 21.3047 17.5625 22.125 16 22.125ZM12.875 17.75C12.875 18.8828 13.4609 19.8984 14.4375 20.4844C15.375 21.0312 16.5859 21.0312 17.5625 20.4844C18.5 19.8984 19.125 18.8828 19.125 17.75C19.125 16.6562 18.5 15.6406 17.5625 15.0547C16.5859 14.5078 15.375 14.5078 14.4375 15.0547C13.4609 15.6406 12.875 16.6562 12.875 17.75Z" fill="black" fill-opacity="0.72"/>
</g>
</svg>
