<svg width="32" height="32" viewBox="0 0 32 32" fill="none" xmlns="http://www.w3.org/2000/svg">
<g id="standalone / md / circle-euro-md / fill">
<path id="icon" d="M16 26.5C12.4062 26.5 9.125 24.625 7.32812 21.5C5.53125 18.4141 5.53125 14.625 7.32812 11.5C9.125 8.41406 12.4062 6.5 16 6.5C19.5547 6.5 22.8359 8.41406 24.6328 11.5C26.4297 14.625 26.4297 18.4141 24.6328 21.5C22.8359 24.625 19.5547 26.5 16 26.5ZM11 17.125C10.6484 17.125 10.375 17.4375 10.375 17.75C10.375 18.1016 10.6484 18.375 11 18.375H11.9375C12.6406 20.25 14.4766 21.5781 16.5859 21.5781H18.2266C18.7344 21.5781 19.1641 21.1484 19.1641 20.6406C19.1641 20.1328 18.7344 19.7031 18.2266 19.7031H16.5859C15.5312 19.7031 14.6328 19.1953 14.0469 18.375H17.25C17.5625 18.375 17.875 18.1016 17.875 17.75C17.875 17.4375 17.5625 17.125 17.25 17.125H13.5C13.4609 16.9688 13.4609 16.7344 13.4609 16.5391C13.4609 16.3047 13.4609 16.1094 13.5 15.875H17.25C17.5625 15.875 17.875 15.6016 17.875 15.25C17.875 14.9375 17.5625 14.625 17.25 14.625H14.0859C14.6719 13.8828 15.5703 13.375 16.5859 13.375H18.2266C18.7344 13.375 19.1641 12.9844 19.1641 12.4375C19.1641 11.9297 18.7344 11.5 18.2266 11.5H16.5859C14.5156 11.5 12.6797 12.8281 11.9375 14.625H11C10.6484 14.625 10.375 14.9375 10.375 15.25C10.375 15.6016 10.6484 15.875 11 15.875H11.625C11.5859 16.1094 11.5859 16.3438 11.5859 16.5391C11.5859 16.7344 11.5859 16.9297 11.625 17.125H11Z" fill="black" fill-opacity="0.72"/>
</g>
</svg>
