<svg width="32" height="32" viewBox="0 0 32 32" fill="none" xmlns="http://www.w3.org/2000/svg">
<g id="standalone / md / file-certificate-md / regular">
<path id="icon" d="M24.75 24V14H20.375C19.3203 14 18.5 13.1797 18.5 12.125V7.75H13.5C12.7969 7.75 12.25 8.33594 12.25 9V11.5C11.8984 11.5 11.5469 11.5391 11.2344 11.6562C11.1562 11.6953 11.0391 11.7734 11 11.7734V11.8125V9C11 7.63281 12.0938 6.5 13.5 6.5H19.5938C20.0625 6.5 20.5703 6.73438 20.9219 7.08594L25.4141 11.5781C25.7656 11.9297 26 12.4375 26 12.9062V24C26 25.4062 24.8672 26.5 23.5 26.5H14.6328C14.7109 26.3047 14.75 26.1094 14.75 25.875V25.25H23.5C24.1641 25.25 24.75 24.7031 24.75 24ZM24.7109 12.75C24.6719 12.6719 24.6328 12.5547 24.5547 12.4766L20.0234 7.94531C19.9453 7.86719 19.8281 7.82812 19.75 7.78906V12.125C19.75 12.4766 20.0234 12.75 20.375 12.75H24.7109ZM15.7266 17.75V17.7891C15.7266 17.7891 15.7266 17.8672 15.8828 18.1797C16.1172 18.7656 15.9219 19.4688 15.4141 19.8594C15.1406 20.0547 15.1016 20.1328 15.1016 20.1328C15.1016 20.1719 15.0625 20.25 15.0234 20.5625C14.9453 21.2266 14.4375 21.7344 13.7734 21.8125C13.6172 21.8125 13.5391 21.8516 13.5 21.8516V25.875C13.5 26.1094 13.3438 26.3438 13.1484 26.4609C12.9531 26.5391 12.7188 26.5391 12.5234 26.4219L11 25.4062L9.4375 26.4219C9.28125 26.5391 9.00781 26.5391 8.8125 26.4609C8.61719 26.3438 8.5 26.1094 8.5 25.875V21.8516C8.42188 21.8516 8.34375 21.8125 8.1875 21.8125C7.52344 21.6953 7.05469 21.2266 6.9375 20.5625C6.89844 20.2109 6.89844 20.1719 6.85938 20.1328C6.85938 20.1328 6.82031 20.0547 6.54688 19.8594C6.03906 19.4688 5.84375 18.7656 6.07812 18.1797C6.23438 17.8672 6.23438 17.7891 6.23438 17.75C6.23438 17.75 6.23438 17.6719 6.07812 17.3594C5.84375 16.7734 6.03906 16.0703 6.54688 15.6797C6.82031 15.4844 6.85938 15.4062 6.85938 15.4062C6.85938 15.3672 6.89844 15.2891 6.9375 14.9766C7.05469 14.3125 7.52344 13.8047 8.1875 13.7266C8.53906 13.6875 8.57812 13.6484 8.61719 13.6484C8.61719 13.6484 8.69531 13.6094 8.89062 13.3359C9.28125 12.8281 9.98438 12.6328 10.5703 12.8672C10.8828 13.0234 10.9609 13.0234 11 13.0234C11 13.0234 11.0781 13.0234 11.3906 12.8672C11.9766 12.6328 12.6797 12.8281 13.0703 13.3359C13.3047 13.6094 13.3438 13.6484 13.3828 13.6484C13.3828 13.6484 13.4609 13.6875 13.7734 13.7266C14.4375 13.8047 14.9453 14.3125 15.0234 14.9766C15.0625 15.2891 15.1016 15.3672 15.1016 15.4062C15.1016 15.4062 15.1406 15.4844 15.4141 15.6797C15.9219 16.0703 16.1172 16.7734 15.8828 17.3594C15.7656 17.6719 15.7266 17.75 15.7266 17.75ZM9.75 24.7422L10.6484 24.1172C10.8438 24 11.1172 24 11.3125 24.1172L12.25 24.7422V22.75C11.9375 22.7891 11.6641 22.7891 11.3906 22.6719C11.0781 22.5156 11 22.5156 11 22.5156C10.9609 22.5156 10.8828 22.5156 10.5703 22.6719C10.2969 22.7891 10.0234 22.7891 9.75 22.75V24.7422ZM7.48438 17.75C7.48438 18.1016 7.36719 18.375 7.25 18.6484C7.21094 18.7266 7.25 18.8047 7.32812 18.8828C7.5625 19.0781 7.79688 19.2344 7.95312 19.5078C8.10938 19.7812 8.14844 20.0938 8.1875 20.4062C8.1875 20.4844 8.26562 20.5625 8.34375 20.5625C8.65625 20.6016 8.96875 20.6406 9.24219 20.7969C9.51562 20.9531 9.71094 21.1875 9.86719 21.4219C9.94531 21.5 10.0234 21.5391 10.1016 21.5C10.375 21.3828 10.6484 21.2656 11 21.2656C11.3125 21.2656 11.5859 21.3828 11.8594 21.5C11.9375 21.5391 12.0156 21.5 12.0938 21.4219C12.2891 21.1875 12.4453 20.9531 12.7188 20.7969C12.9922 20.6406 13.3047 20.6016 13.6172 20.5625C13.6953 20.5625 13.7734 20.4844 13.7734 20.4062C13.8125 20.0938 13.8516 19.7812 14.0078 19.5078C14.1641 19.2344 14.3984 19.0391 14.6719 18.8828C14.7109 18.8047 14.75 18.7266 14.7109 18.6484C14.5938 18.375 14.4766 18.1016 14.4766 17.75C14.4766 17.4375 14.5938 17.1641 14.7109 16.8906C14.75 16.8125 14.7109 16.7344 14.6719 16.6562C14.3984 16.4609 14.1641 16.3047 14.0078 16.0312C13.8516 15.7578 13.8125 15.4453 13.7734 15.1328C13.7734 15.0547 13.6953 14.9766 13.6172 14.9766C13.3047 14.9375 12.9922 14.8984 12.7188 14.7422C12.4453 14.5859 12.2891 14.3516 12.0938 14.0781C12.0156 14.0391 11.9375 14 11.8594 14.0391C11.5859 14.1562 11.3125 14.2734 11 14.2734C10.6484 14.2734 10.375 14.1562 10.1016 14.0391C10.0234 14 9.94531 14.0391 9.86719 14.0781C9.67188 14.3516 9.51562 14.5859 9.24219 14.7422C8.96875 14.8984 8.65625 14.9375 8.34375 14.9766C8.26562 14.9766 8.1875 15.0547 8.1875 15.1328C8.14844 15.4453 8.10938 15.7578 7.95312 16.0312C7.79688 16.3047 7.5625 16.4609 7.32812 16.6562C7.25 16.7344 7.21094 16.8125 7.25 16.8906C7.36719 17.1641 7.48438 17.4375 7.48438 17.75Z" fill="black" fill-opacity="0.72"/>
</g>
</svg>
