<svg width="32" height="32" viewBox="0 0 32 32" fill="none" xmlns="http://www.w3.org/2000/svg">
<g id="standalone / md / basket-shopping-md / bold">
<path id="icon" d="M14.2422 6.61719C14.6719 6.85156 14.8672 7.4375 14.6328 7.90625L11.4297 14H20.5312L17.3281 7.90625C17.0938 7.4375 17.2891 6.85156 17.7188 6.61719C18.1875 6.38281 18.7734 6.57812 19.0078 7.00781L22.6406 14H24.0469H26H26.3125C26.8203 14 27.25 14.4297 27.25 14.9375C27.25 15.4844 26.8203 15.875 26.3125 15.875H25.5312L23.3438 24.625C23.0703 25.7188 22.0547 26.5 20.9219 26.5H11.0781C9.90625 26.5 8.92969 25.7188 8.61719 24.625L6.46875 15.875H5.6875C5.14062 15.875 4.75 15.4844 4.75 14.9375C4.75 14.4297 5.14062 14 5.6875 14H6H7.91406H9.32031L12.9531 7.00781C13.1875 6.57812 13.7734 6.38281 14.2422 6.61719ZM8.38281 15.875L10.4531 24.1562C10.5312 24.4297 10.7656 24.625 11.0781 24.625H20.9219C21.1953 24.625 21.4297 24.4297 21.5078 24.1562L23.5781 15.875H8.38281ZM13.5 18.6875V21.8125C13.5 22.3594 13.0703 22.75 12.5625 22.75C12.0156 22.75 11.625 22.3594 11.625 21.8125V18.6875C11.625 18.1797 12.0156 17.75 12.5625 17.75C13.0703 17.75 13.5 18.1797 13.5 18.6875ZM16 17.75C16.5078 17.75 16.9375 18.1797 16.9375 18.6875V21.8125C16.9375 22.3594 16.5078 22.75 16 22.75C15.4531 22.75 15.0625 22.3594 15.0625 21.8125V18.6875C15.0625 18.1797 15.4531 17.75 16 17.75ZM20.375 18.6875V21.8125C20.375 22.3594 19.9453 22.75 19.4375 22.75C18.8906 22.75 18.5 22.3594 18.5 21.8125V18.6875C18.5 18.1797 18.8906 17.75 19.4375 17.75C19.9453 17.75 20.375 18.1797 20.375 18.6875Z" fill="black" fill-opacity="0.72"/>
</g>
</svg>
