<svg width="32" height="32" viewBox="0 0 32 32" fill="none" xmlns="http://www.w3.org/2000/svg">
<g id="standalone / md / chart-tradingview-md / fill">
<path id="icon" d="M24.3594 14.3906C24.8672 14.8594 24.8672 15.6797 24.3594 16.1484L18.5391 21.9688C17.8359 22.6719 16.625 22.6719 15.9219 21.9688L14.75 20.7969L13.1094 22.3984C12.6406 22.9062 11.8203 22.9062 11.3516 22.3984C10.8438 21.9297 10.8438 21.1094 11.3516 20.6406L13.4219 18.5703C14.125 17.8281 15.3359 17.8281 16.0391 18.5703L17.25 19.7422L22.6016 14.3906C23.0703 13.8828 23.8906 13.8828 24.3594 14.3906ZM17.9922 9.89844C17.9922 10.3672 17.5625 10.7578 17.0938 10.7578C16.5859 10.7578 16.1562 10.3672 16.1562 9.89844C16.1562 9.42969 16.5859 9.03906 17.0938 9.03906C17.5625 9.03906 17.9922 9.42969 17.9922 9.89844ZM18.6953 9H20.0625L18.2266 14H16.8594L18.6953 9ZM12.5625 9H15.7266V14H14.5156V10.1328H12.5625V9ZM8.5 6.5C9.16406 6.5 9.75 7.08594 9.75 7.75V23.6484C9.75 23.8438 9.90625 24 10.1406 24H24.125C24.7891 24 25.375 24.5859 25.375 25.25C25.375 25.9531 24.7891 26.5 24.125 26.5H9.20312C8.07031 26.5 7.25 25.6797 7.25 24.5469V7.75C7.25 7.08594 7.79688 6.5 8.5 6.5Z" fill="black" fill-opacity="0.72"/>
</g>
</svg>
