<svg width="32" height="32" viewBox="0 0 32 32" fill="none" xmlns="http://www.w3.org/2000/svg">
<g id="standalone / md / rectangle-barcode-md / bold">
<path id="icon" d="M7.25 9.625C6.89844 9.625 6.625 9.9375 6.625 10.25V22.75C6.625 23.1016 6.89844 23.375 7.25 23.375H24.75C25.0625 23.375 25.375 23.1016 25.375 22.75V10.25C25.375 9.9375 25.0625 9.625 24.75 9.625H7.25ZM4.75 10.25C4.75 8.88281 5.84375 7.75 7.25 7.75H24.75C26.1172 7.75 27.25 8.88281 27.25 10.25V22.75C27.25 24.1562 26.1172 25.25 24.75 25.25H7.25C5.84375 25.25 4.75 24.1562 4.75 22.75V10.25ZM9.4375 11.5C9.94531 11.5 10.375 11.9297 10.375 12.4375V20.5625C10.375 21.1094 9.94531 21.5 9.4375 21.5C8.89062 21.5 8.5 21.1094 8.5 20.5625V12.4375C8.5 11.9297 8.89062 11.5 9.4375 11.5ZM12.25 11.5C12.5625 11.5 12.875 11.8125 12.875 12.125V20.875C12.875 21.2266 12.5625 21.5 12.25 21.5C11.8984 21.5 11.625 21.2266 11.625 20.875V12.125C11.625 11.8125 11.8984 11.5 12.25 11.5ZM14.125 12.4375C14.125 11.9297 14.5156 11.5 15.0625 11.5C15.5703 11.5 16 11.9297 16 12.4375V20.5625C16 21.1094 15.5703 21.5 15.0625 21.5C14.5156 21.5 14.125 21.1094 14.125 20.5625V12.4375ZM19.4375 11.5C19.9453 11.5 20.375 11.9297 20.375 12.4375V20.5625C20.375 21.1094 19.9453 21.5 19.4375 21.5C18.8906 21.5 18.5 21.1094 18.5 20.5625V12.4375C18.5 11.9297 18.8906 11.5 19.4375 11.5ZM22.25 12.125C22.25 11.8125 22.5234 11.5 22.875 11.5C23.1875 11.5 23.5 11.8125 23.5 12.125V20.875C23.5 21.2266 23.1875 21.5 22.875 21.5C22.5234 21.5 22.25 21.2266 22.25 20.875V12.125Z" fill="black" fill-opacity="0.72"/>
</g>
</svg>
