<svg width="32" height="32" viewBox="0 0 32 32" fill="none" xmlns="http://www.w3.org/2000/svg">
<g id="standalone / md / arrow-right-arrow-left-md / bold">
<path id="icon" d="M11.2734 25.9141L7.52344 22.1641C7.13281 21.8125 7.13281 21.2266 7.52344 20.8359L11.2734 17.125C11.625 16.7344 12.2109 16.7344 12.5625 17.125C12.9531 17.4766 12.9531 18.0625 12.5625 18.4141L10.4141 20.5625H23.8125C24.3203 20.5625 24.75 20.9922 24.75 21.5C24.75 22.0469 24.3203 22.4375 23.8125 22.4375L10.4141 22.4766L12.5625 24.625C12.9531 24.9766 12.9531 25.5625 12.5625 25.9141C12.2109 26.3047 11.625 26.3047 11.2734 25.9141ZM24.4766 12.1641L20.7266 15.9141C20.3359 16.3047 19.75 16.3047 19.3984 15.9141C19.0078 15.5625 19.0078 14.9766 19.3984 14.5859L21.5469 12.4375H8.1875C7.64062 12.4375 7.25 12.0469 7.25 11.5C7.25 10.9922 7.64062 10.5625 8.1875 10.5625H21.5469L19.3984 8.41406C19.0078 8.0625 19.0078 7.47656 19.3984 7.08594C19.75 6.73438 20.3359 6.73438 20.7266 7.08594L24.4766 10.875C24.8281 11.2266 24.8281 11.8125 24.4766 12.1641Z" fill="black" fill-opacity="0.72"/>
</g>
</svg>
