<svg width="32" height="32" viewBox="0 0 32 32" fill="none" xmlns="http://www.w3.org/2000/svg">
<g id="standalone / md / graduation-cap-md / regular">
<path id="icon" d="M15.4922 9.11719L5.33594 12.75L8.22656 13.8047C8.61719 13.5312 9.08594 13.3359 9.55469 13.1406L15.7656 10.7969C16.0781 10.6797 16.4297 10.8359 16.5859 11.1875C16.7031 11.5 16.5078 11.8516 16.1953 11.9688L9.98438 14.3125C9.90625 14.3516 9.86719 14.3516 9.78906 14.3906L15.4922 16.4219C15.6484 16.5 15.8047 16.5 16 16.5C16.1562 16.5 16.3125 16.5 16.4688 16.4219L26.625 12.75L16.4688 9.11719C16.3125 9.03906 16.1562 9 16 9C15.8047 9 15.6484 9.03906 15.4922 9.11719ZM15.0625 17.5938L8.42188 15.2109C7.36719 16.1094 6.70312 17.4375 6.625 18.8828C6.85938 19.4297 7.01562 19.9766 7.13281 20.5234C7.40625 21.5781 7.5625 23.1016 7.21094 24.7812C7.17188 24.9375 7.09375 25.0938 6.9375 25.1719C6.78125 25.25 6.625 25.2891 6.46875 25.25L3.96875 24.625C3.77344 24.5859 3.57812 24.4297 3.53906 24.2344C3.46094 24.0391 3.5 23.8047 3.61719 23.6484C3.92969 23.1797 4.24219 22.6719 4.47656 22.1641C4.94531 21.2656 5.375 20.1328 5.375 19V18.9609C5.41406 17.3594 6.07812 15.875 7.13281 14.7422L4.08594 13.6484C3.73438 13.5312 3.5 13.1797 3.5 12.75C3.5 12.3594 3.73438 12.0078 4.08594 11.8906L15.0625 7.94531C15.3359 7.82812 15.6484 7.75 16 7.75C16.3125 7.75 16.625 7.82812 16.8984 7.94531L27.875 11.8906C28.2266 12.0078 28.5 12.3594 28.5 12.75C28.5 13.1797 28.2266 13.5312 27.875 13.6484L16.8984 17.5938C16.625 17.7109 16.3125 17.75 16 17.75C15.6484 17.75 15.3359 17.7109 15.0625 17.5938ZM10.2969 17.2031L9.75 22.3984C9.78906 22.4375 9.82812 22.4766 9.90625 22.5156C10.1406 22.75 10.5312 22.9844 11.1562 23.2188C12.3281 23.6875 14.0469 24 16 24C17.9141 24 19.6328 23.6875 20.8438 23.2188C21.4297 22.9844 21.8203 22.75 22.0938 22.5156C22.1328 22.4766 22.2109 22.4375 22.2109 22.3984L21.6641 17.2031L22.875 16.7734L23.5 22.4375C23.5 23.8438 20.1406 25.25 16 25.25C11.8594 25.25 8.5 23.8438 8.5 22.4375L9.08594 16.7734L10.2969 17.2031ZM22.25 22.3203C22.25 22.3203 22.25 22.3203 22.25 22.3594C22.25 22.3203 22.25 22.3203 22.25 22.3203ZM9.71094 22.3203C9.71094 22.3203 9.71094 22.3203 9.71094 22.3594C9.71094 22.3203 9.71094 22.3203 9.71094 22.3203ZM6.11719 23.8828C6.19531 23.0625 6.15625 22.3203 6.07812 21.6562C5.92188 22.0469 5.76562 22.3984 5.60938 22.75C5.45312 23.0234 5.29688 23.3359 5.10156 23.6094L6.11719 23.8828Z" fill="black" fill-opacity="0.72"/>
</g>
</svg>
