<svg width="32" height="32" viewBox="0 0 32 32" fill="none" xmlns="http://www.w3.org/2000/svg">
<g id="standalone / md / plus-md / fill">
<path id="icon" d="M17.25 9.625V15.25H22.875C23.5391 15.25 24.125 15.8359 24.125 16.5C24.125 17.2031 23.5391 17.75 22.875 17.75H17.25V23.375C17.25 24.0781 16.6641 24.625 16 24.625C15.2969 24.625 14.75 24.0781 14.75 23.375V17.75H9.125C8.42188 17.75 7.875 17.2031 7.875 16.5C7.875 15.8359 8.42188 15.25 9.125 15.25H14.75V9.625C14.75 8.96094 15.2969 8.375 16 8.375C16.6641 8.375 17.25 8.96094 17.25 9.625Z" fill="black" fill-opacity="0.72"/>
</g>
</svg>
