<svg width="32" height="32" viewBox="0 0 32 32" fill="none" xmlns="http://www.w3.org/2000/svg">
<g id="standalone / md / clone-md / bold">
<path id="icon" d="M8.5 24.625H17.25C17.5625 24.625 17.875 24.3516 17.875 24V21.5H19.75V24C19.75 25.4062 18.6172 26.5 17.25 26.5H8.5C7.09375 26.5 6 25.4062 6 24V15.25C6 13.8828 7.09375 12.75 8.5 12.75H11V14.625H8.5C8.14844 14.625 7.875 14.9375 7.875 15.25V24C7.875 24.3516 8.14844 24.625 8.5 24.625ZM14.75 18.375H23.5C23.8125 18.375 24.125 18.1016 24.125 17.75V9C24.125 8.6875 23.8125 8.375 23.5 8.375H14.75C14.3984 8.375 14.125 8.6875 14.125 9V17.75C14.125 18.1016 14.3984 18.375 14.75 18.375ZM12.25 17.75V9C12.25 7.63281 13.3438 6.5 14.75 6.5H23.5C24.8672 6.5 26 7.63281 26 9V17.75C26 19.1562 24.8672 20.25 23.5 20.25H14.75C13.3438 20.25 12.25 19.1562 12.25 17.75Z" fill="black" fill-opacity="0.72"/>
</g>
</svg>
