<svg width="32" height="32" viewBox="0 0 32 32" fill="none" xmlns="http://www.w3.org/2000/svg">
<g id="standalone / md / arrow-up-from-square-md / regular">
<path id="icon" d="M16.4297 6.69531L20.4922 10.7578C20.7266 10.9922 20.7266 11.4219 20.4922 11.6562C20.2578 11.8906 19.8281 11.8906 19.5938 11.6562L16.625 8.64844V19C16.625 19.3516 16.3125 19.625 16 19.625C15.6484 19.625 15.375 19.3516 15.375 19V8.64844L12.3672 11.6562C12.1328 11.8906 11.7031 11.8906 11.4688 11.6562C11.2344 11.4219 11.2344 10.9922 11.4688 10.7578L15.5312 6.69531C15.7656 6.46094 16.1953 6.46094 16.4297 6.69531ZM8.5 7.75H9.75C10.0625 7.75 10.375 8.0625 10.375 8.375C10.375 8.72656 10.0625 9 9.75 9H8.5C7.79688 9 7.25 9.58594 7.25 10.25V24C7.25 24.7031 7.79688 25.25 8.5 25.25H23.5C24.1641 25.25 24.75 24.7031 24.75 24V10.25C24.75 9.58594 24.1641 9 23.5 9H22.25C21.8984 9 21.625 8.72656 21.625 8.375C21.625 8.0625 21.8984 7.75 22.25 7.75H23.5C24.8672 7.75 26 8.88281 26 10.25V24C26 25.4062 24.8672 26.5 23.5 26.5H8.5C7.09375 26.5 6 25.4062 6 24V10.25C6 8.88281 7.09375 7.75 8.5 7.75Z" fill="black" fill-opacity="0.72"/>
</g>
</svg>
