<svg width="32" height="32" viewBox="0 0 32 32" fill="none" xmlns="http://www.w3.org/2000/svg">
<g id="standalone / md / credit-card-md / bold">
<path id="icon" d="M25.25 9.625H7.75C7.35938 9.65104 7.15104 9.85938 7.125 10.25V11.5H25.875V10.25C25.849 9.85938 25.6406 9.65104 25.25 9.625ZM25.875 15.25H7.125V22.75C7.15104 23.1406 7.35938 23.349 7.75 23.375H25.25C25.6406 23.349 25.849 23.1406 25.875 22.75V15.25ZM7.75 7.75H25.25C25.9531 7.77604 26.5391 8.02344 27.0078 8.49219C27.4766 8.96094 27.724 9.54688 27.75 10.25V22.75C27.724 23.4531 27.4766 24.0391 27.0078 24.5078C26.5391 24.9766 25.9531 25.224 25.25 25.25H7.75C7.04688 25.224 6.46094 24.9766 5.99219 24.5078C5.52344 24.0391 5.27604 23.4531 5.25 22.75V10.25C5.27604 9.54688 5.52344 8.96094 5.99219 8.49219C6.46094 8.02344 7.04688 7.77604 7.75 7.75ZM9.9375 19.625H11.8125C12.3854 19.6771 12.6979 19.9896 12.75 20.5625C12.6979 21.1354 12.3854 21.4479 11.8125 21.5H9.9375C9.36458 21.4479 9.05208 21.1354 9 20.5625C9.05208 19.9896 9.36458 19.6771 9.9375 19.625ZM14.9375 19.625H19.3125C19.8854 19.6771 20.1979 19.9896 20.25 20.5625C20.1979 21.1354 19.8854 21.4479 19.3125 21.5H14.9375C14.3646 21.4479 14.0521 21.1354 14 20.5625C14.0521 19.9896 14.3646 19.6771 14.9375 19.625Z" fill="black" fill-opacity="0.72"/>
</g>
</svg>
