<svg width="32" height="32" viewBox="0 0 32 32" fill="none" xmlns="http://www.w3.org/2000/svg">
<g id="standalone / md / circle-user-slash-md / regular">
<path id="icon" d="M3.61719 6.77344C3.8125 6.5 4.24219 6.42188 4.47656 6.65625L28.2266 25.4062C28.5 25.6016 28.5781 25.9922 28.3438 26.2656C28.1484 26.5391 27.7578 26.5781 27.4844 26.3828L3.73438 7.63281C3.46094 7.4375 3.42188 7.00781 3.61719 6.77344ZM6.82031 12.4766L7.83594 13.2969C7.44531 14.2734 7.25 15.3672 7.25 16.5C7.25 18.9609 8.26562 21.1875 9.86719 22.7891C10.4141 20.6406 12.4062 19 14.75 19H15.1016L16.7031 20.25H14.75C12.7578 20.25 11.1562 21.7734 11 23.7266C12.4062 24.7031 14.125 25.25 16 25.25C17.8359 25.25 19.5547 24.7031 20.9609 23.6875V23.7266C20.9609 23.6875 20.9609 23.6484 20.9609 23.6484L22.0156 24.4688C20.3359 25.7969 18.1875 26.5 16 26.5C12.4062 26.5 9.125 24.625 7.32812 21.5C5.72656 18.7266 5.57031 15.3672 6.82031 12.4766ZM9.94531 8.57031C11.625 7.24219 13.7734 6.5 16 6.5C19.5547 6.5 22.875 8.41406 24.6328 11.5C26.2344 14.3125 26.4297 17.6719 25.1406 20.5625L24.125 19.7422C24.5156 18.7656 24.75 17.6719 24.75 16.5C24.75 11.6953 20.8047 7.75 16 7.75C14.125 7.75 12.3672 8.375 10.9609 9.35156L9.94531 8.57031ZM14.3203 12.0078C14.3594 11.9688 14.3984 11.9688 14.4375 11.9297C15.375 11.3828 16.5859 11.3828 17.5625 11.9297C18.5 12.4766 19.125 13.5312 19.125 14.625C19.125 14.9766 19.0469 15.3281 18.9297 15.6797L17.8359 14.8203C17.875 14.4297 17.7969 14.0391 17.6016 13.6875C17.2891 13.1406 16.6641 12.75 16 12.75C15.7656 12.75 15.5703 12.7891 15.375 12.8672L14.3203 12.0078Z" fill="black" fill-opacity="0.72"/>
</g>
</svg>
