<svg width="32" height="32" viewBox="0 0 32 32" fill="none" xmlns="http://www.w3.org/2000/svg">
<g id="standalone / md / copy-md / fill">
<path id="icon" d="M15.375 6.5H20.2188C20.6875 6.5 21.1953 6.73438 21.5469 7.08594L24.1641 9.70312C24.5156 10.0547 24.75 10.5625 24.75 11.0312V19.625C24.75 20.6797 23.8906 21.5 22.875 21.5H15.375C14.3203 21.5 13.5 20.6797 13.5 19.625V8.375C13.5 7.35938 14.3203 6.5 15.375 6.5ZM9.125 11.5H12.25V14H9.75V24H17.25V22.75H19.75V24.625C19.75 25.6797 18.8906 26.5 17.875 26.5H9.125C8.07031 26.5 7.25 25.6797 7.25 24.625V13.375C7.25 12.3594 8.07031 11.5 9.125 11.5Z" fill="black" fill-opacity="0.72"/>
</g>
</svg>
