<svg width="32" height="32" viewBox="0 0 32 32" fill="none" xmlns="http://www.w3.org/2000/svg">
<g id="standalone / md / image-polaroid-user-md / fill">
<path id="icon" d="M7.25 10.25C7.25 8.88281 8.34375 7.75 9.75 7.75H22.25C23.6172 7.75 24.75 8.88281 24.75 10.25V22.75C24.75 24.1562 23.6172 25.25 22.25 25.25H9.75C8.34375 25.25 7.25 24.1562 7.25 22.75V10.25ZM9.75 11.5V19C9.75 19.7031 10.2969 20.25 11 20.25H11.625C11.625 18.8828 12.7188 17.75 14.125 17.75H17.875C19.2422 17.75 20.375 18.8828 20.375 20.25H21C21.6641 20.25 22.25 19.7031 22.25 19V11.5C22.25 10.8359 21.6641 10.25 21 10.25H11C10.2969 10.25 9.75 10.8359 9.75 11.5ZM13.5 14C13.5 13.1406 13.9688 12.3203 14.75 11.8516C15.4922 11.4219 16.4688 11.4219 17.25 11.8516C17.9922 12.3203 18.5 13.1406 18.5 14C18.5 14.8984 17.9922 15.7188 17.25 16.1875C16.4688 16.6172 15.4922 16.6172 14.75 16.1875C13.9688 15.7188 13.5 14.8984 13.5 14Z" fill="black" fill-opacity="0.72"/>
</g>
</svg>
