<svg width="32" height="32" viewBox="0 0 32 32" fill="none" xmlns="http://www.w3.org/2000/svg">
<g id="standalone / md / lightbulb-md / fill">
<path id="icon" d="M19.625 21.5H13.375C12.9323 20.276 12.2943 19.1562 11.4609 18.1406C11.4609 18.1406 11.4609 18.1276 11.4609 18.1016C11.2526 17.8411 11.0443 17.5677 10.8359 17.2812C10.0547 16.1615 9.65104 14.8594 9.625 13.375C9.67708 11.4219 10.3542 9.80729 11.6562 8.53125C12.9323 7.22917 14.5469 6.55208 16.5 6.5C18.4531 6.55208 20.0677 7.22917 21.3438 8.53125C22.6458 9.80729 23.3229 11.4219 23.375 13.375C23.349 14.8594 22.9453 16.1615 22.1641 17.2812C21.9557 17.5677 21.7474 17.8542 21.5391 18.1406C21.5391 18.1406 21.5391 18.1536 21.5391 18.1797C20.7057 19.1953 20.0677 20.3021 19.625 21.5ZM16.5 26.5C15.6146 26.474 14.8724 26.1745 14.2734 25.6016C13.7005 25.0026 13.401 24.2604 13.375 23.375V22.75H19.625V23.375C19.599 24.2604 19.2995 25.0026 18.7266 25.6016C18.1276 26.1745 17.3854 26.474 16.5 26.5ZM13.375 13.375C13.401 12.4896 13.7005 11.7474 14.2734 11.1484C14.8724 10.5755 15.6146 10.276 16.5 10.25C16.8906 10.224 17.099 10.0156 17.125 9.625C17.099 9.23438 16.8906 9.02604 16.5 9C15.25 9.02604 14.2214 9.45573 13.4141 10.2891C12.5807 11.0964 12.151 12.125 12.125 13.375C12.151 13.7656 12.3594 13.974 12.75 14C13.1406 13.974 13.349 13.7656 13.375 13.375Z" fill="black" fill-opacity="0.72"/>
</g>
</svg>
