<svg width="32" height="32" viewBox="0 0 32 32" fill="none" xmlns="http://www.w3.org/2000/svg">
<g id="standalone / md / circle-arrow-left-md / fill">
<path id="icon" d="M26 16.5C26 20.0938 24.0859 23.375 21 25.1719C17.875 26.9688 14.0859 26.9688 11 25.1719C7.875 23.375 6 20.0938 6 16.5C6 12.9453 7.875 9.66406 11 7.86719C14.0859 6.07031 17.875 6.07031 21 7.86719C24.0859 9.66406 26 12.9453 26 16.5ZM15.0234 11.4609L10.6484 15.875C10.2578 16.2266 10.2578 16.8125 10.6484 17.1641L15.0234 21.5391C15.375 21.9297 15.9609 21.9297 16.3125 21.5391C16.7031 21.1875 16.7031 20.6016 16.3125 20.2109L13.5391 17.4375H20.6875C21.1953 17.4375 21.625 17.0469 21.625 16.5C21.625 15.9922 21.1953 15.5625 20.6875 15.5625H13.5391L16.3125 12.7891C16.7031 12.4375 16.7031 11.8516 16.3125 11.4609C15.9609 11.1094 15.375 11.1094 15.0234 11.4609Z" fill="black" fill-opacity="0.72"/>
</g>
</svg>
