<svg width="32" height="32" viewBox="0 0 32 32" fill="none" xmlns="http://www.w3.org/2000/svg">
<g id="standalone / md / circle-seven-md / regular">
<path id="icon" d="M16 7.75C12.8359 7.75 9.98438 9.42969 8.42188 12.125C6.82031 14.8594 6.82031 18.1797 8.42188 20.875C9.98438 23.6094 12.8359 25.25 16 25.25C19.125 25.25 21.9766 23.6094 23.5391 20.875C25.1406 18.1797 25.1406 14.8594 23.5391 12.125C21.9766 9.42969 19.125 7.75 16 7.75ZM16 26.5C12.4062 26.5 9.125 24.625 7.32812 21.5C5.53125 18.4141 5.53125 14.625 7.32812 11.5C9.125 8.41406 12.4062 6.5 16 6.5C19.5547 6.5 22.8359 8.41406 24.6328 11.5C26.4297 14.625 26.4297 18.4141 24.6328 21.5C22.8359 24.625 19.5547 26.5 16 26.5ZM12.875 11.5H19.125C19.3203 11.5 19.5156 11.6172 19.6328 11.8125C19.75 12.0078 19.75 12.2422 19.6328 12.4375L14.6328 21.1875C14.4766 21.5 14.0859 21.6172 13.8125 21.4219C13.5 21.2656 13.3828 20.875 13.5781 20.6016L18.0312 12.75H12.875C12.5234 12.75 12.25 12.4766 12.25 12.125C12.25 11.8125 12.5234 11.5 12.875 11.5Z" fill="black" fill-opacity="0.72"/>
</g>
</svg>
