<svg width="32" height="32" viewBox="0 0 32 32" fill="none" xmlns="http://www.w3.org/2000/svg">
<g id="standalone / md / life-ring-md / fill">
<path id="icon" d="M20.3359 22.6328L18.0703 20.3672C17.4453 20.7188 16.7422 20.875 16 20.875C15.2188 20.875 14.5156 20.7188 13.8906 20.3672L11.625 22.6328C12.875 23.4922 14.3594 24 16 24C17.6016 24 19.0859 23.4922 20.3359 22.6328ZM23.8516 22.6719H23.8906C24.2422 23.1406 24.1641 23.8438 23.7344 24.2734C23.3047 24.7031 22.6016 24.7422 22.1328 24.3906C20.4141 25.7188 18.3047 26.5 16 26.5C13.6562 26.5 11.5469 25.7188 9.82812 24.3906C9.35938 24.7422 8.65625 24.7031 8.22656 24.2734C7.79688 23.8438 7.75781 23.1406 8.10938 22.6719C6.78125 20.9531 6 18.8438 6 16.5C6 14.1953 6.78125 12.0859 8.10938 10.3672C7.75781 9.89844 7.79688 9.19531 8.22656 8.76562C8.65625 8.33594 9.35938 8.25781 9.82812 8.60938C11.5469 7.32031 13.6562 6.5 16 6.5C18.3047 6.5 20.4141 7.32031 22.1328 8.60938C22.6016 8.25781 23.3047 8.33594 23.7344 8.76562C24.1641 9.19531 24.2031 9.89844 23.8516 10.3672C25.1797 12.0859 25.9609 14.1953 25.9609 16.5C25.9609 18.8438 25.1797 20.9531 23.8516 22.6719ZM22.0938 20.875C22.9531 19.625 23.5 18.1406 23.5 16.5C23.5 14.8984 22.9531 13.4141 22.0938 12.1641L19.8281 14.4297C20.1797 15.0547 20.3359 15.7578 20.3359 16.5C20.3359 17.2812 20.1797 17.9844 19.8281 18.6094L22.0938 20.875ZM20.3359 10.4062C19.0859 9.54688 17.6016 9 16 9C14.3594 9 12.875 9.54688 11.625 10.4062L13.8906 12.6719C14.5156 12.3203 15.2188 12.125 15.9609 12.125C16.7422 12.125 17.4453 12.3203 18.0703 12.6719L20.3359 10.4062ZM12.1328 18.6094C11.7812 17.9844 11.625 17.2812 11.625 16.5391C11.625 15.7578 11.7812 15.0547 12.1328 14.4297L9.86719 12.1641C9.00781 13.4141 8.5 14.8984 8.5 16.5C8.5 18.1406 9.00781 19.625 9.86719 20.875L12.1328 18.6094ZM14.125 16.5C14.125 17.2031 14.4766 17.7891 15.0625 18.1406C15.6094 18.4922 16.3516 18.4922 16.9375 18.1406C17.4844 17.7891 17.875 17.2031 17.875 16.5C17.875 15.8359 17.4844 15.25 16.9375 14.8984C16.3516 14.5469 15.6094 14.5469 15.0625 14.8984C14.4766 15.25 14.125 15.8359 14.125 16.5Z" fill="black" fill-opacity="0.72"/>
</g>
</svg>
