<svg width="32" height="32" viewBox="0 0 32 32" fill="none" xmlns="http://www.w3.org/2000/svg">
<g id="standalone / md / plus-md / regular">
<path id="icon" d="M16.625 9V15.875H23.5C23.8125 15.875 24.125 16.1875 24.125 16.5C24.125 16.8516 23.8125 17.125 23.5 17.125H16.625V24C16.625 24.3516 16.3125 24.625 16 24.625C15.6484 24.625 15.375 24.3516 15.375 24V17.125H8.5C8.14844 17.125 7.875 16.8516 7.875 16.5C7.875 16.1875 8.14844 15.875 8.5 15.875H15.375V9C15.375 8.6875 15.6484 8.375 16 8.375C16.3125 8.375 16.625 8.6875 16.625 9Z" fill="black" fill-opacity="0.72"/>
</g>
</svg>
