<svg width="32" height="32" viewBox="0 0 32 32" fill="none" xmlns="http://www.w3.org/2000/svg">
<g id="standalone / md / memo-pad-md / fill">
<path id="icon" d="M7.25 9C7.25 7.63281 8.34375 6.5 9.75 6.5H22.25C23.6172 6.5 24.75 7.63281 24.75 9V10.25H7.25V9ZM7.25 11.5H24.75V24C24.75 25.4062 23.6172 26.5 22.25 26.5H9.75C8.34375 26.5 7.25 25.4062 7.25 24V11.5ZM11 15.25C11 15.6016 11.2734 15.875 11.625 15.875H20.375C20.6875 15.875 21 15.6016 21 15.25C21 14.9375 20.6875 14.625 20.375 14.625H11.625C11.2734 14.625 11 14.9375 11 15.25ZM11 19C11 19.3516 11.2734 19.625 11.625 19.625H20.375C20.6875 19.625 21 19.3516 21 19C21 18.6875 20.6875 18.375 20.375 18.375H11.625C11.2734 18.375 11 18.6875 11 19ZM11 22.75C11 23.1016 11.2734 23.375 11.625 23.375H15.375C15.6875 23.375 16 23.1016 16 22.75C16 22.4375 15.6875 22.125 15.375 22.125H11.625C11.2734 22.125 11 22.4375 11 22.75Z" fill="black" fill-opacity="0.72"/>
</g>
</svg>
