<svg width="32" height="32" viewBox="0 0 32 32" fill="none" xmlns="http://www.w3.org/2000/svg">
<g id="standalone / md / circle-four-md / regular">
<path id="icon" d="M24.75 16.5C24.75 13.375 23.0703 10.5234 20.375 8.96094C17.6406 7.35938 14.3203 7.35938 11.625 8.96094C8.89062 10.5234 7.25 13.375 7.25 16.5C7.25 19.6641 8.89062 22.5156 11.625 24.0781C14.3203 25.6797 17.6406 25.6797 20.375 24.0781C23.0703 22.5156 24.75 19.6641 24.75 16.5ZM6 16.5C6 12.9453 7.875 9.66406 11 7.86719C14.0859 6.07031 17.875 6.07031 21 7.86719C24.0859 9.66406 26 12.9453 26 16.5C26 20.0938 24.0859 23.375 21 25.1719C17.875 26.9688 14.0859 26.9688 11 25.1719C7.875 23.375 6 20.0938 6 16.5ZM14.9453 11.5781C15.2969 11.6953 15.4531 12.0469 15.2969 12.3594L13.1484 17.75H17.25V14.625C17.25 14.3125 17.5234 14 17.875 14C18.1875 14 18.5 14.3125 18.5 14.625V17.75H19.125C19.4375 17.75 19.75 18.0625 19.75 18.375C19.75 18.7266 19.4375 19 19.125 19H18.5V20.875C18.5 21.2266 18.1875 21.5 17.875 21.5C17.5234 21.5 17.25 21.2266 17.25 20.875V19H12.25C12.0156 19 11.8203 18.9219 11.7031 18.7266C11.5859 18.5703 11.5859 18.3359 11.6641 18.1797L14.1641 11.9297C14.2812 11.5781 14.6328 11.4219 14.9844 11.5781H14.9453Z" fill="black" fill-opacity="0.72"/>
</g>
</svg>
