<svg width="32" height="32" viewBox="0 0 32 32" fill="none" xmlns="http://www.w3.org/2000/svg">
<g id="standalone / md / loader-md / bold">
<path id="icon" d="M16.9375 7.4375V10.5625C16.9375 11.1094 16.5078 11.5 16 11.5C15.4531 11.5 15.0625 11.1094 15.0625 10.5625V7.4375C15.0625 6.92969 15.4531 6.5 16 6.5C16.5078 6.5 16.9375 6.92969 16.9375 7.4375ZM16.9375 22.4375V25.5625C16.9375 26.1094 16.5078 26.5 16 26.5C15.4531 26.5 15.0625 26.1094 15.0625 25.5625V22.4375C15.0625 21.9297 15.4531 21.5 16 21.5C16.5078 21.5 16.9375 21.9297 16.9375 22.4375ZM6 16.5C6 15.9922 6.39062 15.5625 6.9375 15.5625H10.0625C10.5703 15.5625 11 15.9922 11 16.5C11 17.0469 10.5703 17.4375 10.0625 17.4375H6.9375C6.39062 17.4375 6 17.0469 6 16.5ZM21.9375 15.5625H25.0625C25.5703 15.5625 26 15.9922 26 16.5C26 17.0469 25.5703 17.4375 25.0625 17.4375H21.9375C21.3906 17.4375 21 17.0469 21 16.5C21 15.9922 21.3906 15.5625 21.9375 15.5625ZM23.0703 9.42969C23.4219 9.82031 23.4219 10.4062 23.0703 10.7578L20.8438 12.9844C20.4922 13.3359 19.8672 13.3359 19.5156 12.9844C19.1641 12.6328 19.1641 12.0078 19.5156 11.6562L21.7422 9.42969C22.0938 9.07812 22.6797 9.07812 23.0703 9.42969ZM12.4453 21.3828L10.2188 23.5703C9.86719 23.9609 9.28125 23.9609 8.92969 23.5703C8.53906 23.2188 8.53906 22.6328 8.92969 22.2812L11.1172 20.0547C11.4688 19.7031 12.0938 19.7031 12.4453 20.0547C12.7969 20.4062 12.7969 20.9922 12.4453 21.3828ZM8.92969 9.42969C9.28125 9.07812 9.86719 9.07812 10.2188 9.42969L12.4453 11.6562C12.7969 12.0078 12.7969 12.6328 12.4453 12.9844C12.0938 13.3359 11.5078 13.3359 11.1172 12.9844L8.92969 10.7578C8.53906 10.4062 8.53906 9.82031 8.92969 9.42969ZM20.8438 20.0547L23.0703 22.2812C23.4219 22.6328 23.4219 23.2188 23.0703 23.5703C22.6797 23.9609 22.0938 23.9609 21.7422 23.5703L19.5156 21.3828C19.1641 21.0312 19.1641 20.4062 19.5156 20.0547C19.8672 19.7031 20.4922 19.7031 20.8438 20.0547Z" fill="black" fill-opacity="0.72"/>
</g>
</svg>
