<svg width="32" height="32" viewBox="0 0 32 32" fill="none" xmlns="http://www.w3.org/2000/svg">
<g id="standalone / md / lock-md / fill">
<path id="icon" d="M12.875 12.125V14H19.125V12.125C19.125 10.4062 17.7188 9 16 9C14.2422 9 12.875 10.4062 12.875 12.125ZM10.375 14V12.125C10.375 9.03906 12.875 6.5 16 6.5C19.0859 6.5 21.625 9.03906 21.625 12.125V14H22.25C23.6172 14 24.75 15.1328 24.75 16.5V24C24.75 25.4062 23.6172 26.5 22.25 26.5H9.75C8.34375 26.5 7.25 25.4062 7.25 24V16.5C7.25 15.1328 8.34375 14 9.75 14H10.375Z" fill="black" fill-opacity="0.72"/>
</g>
</svg>
