<svg width="32" height="32" viewBox="0 0 32 32" fill="none" xmlns="http://www.w3.org/2000/svg">
<g id="standalone / md / chart-line-md / bold">
<path id="icon" d="M7.875 8.6875V22.4375C7.875 22.9844 8.26562 23.375 8.8125 23.375H25.0625C25.5703 23.375 26 23.8047 26 24.3125C26 24.8594 25.5703 25.25 25.0625 25.25H8.8125C7.25 25.25 6 24 6 22.4375V8.6875C6 8.17969 6.39062 7.75 6.9375 7.75C7.44531 7.75 7.875 8.17969 7.875 8.6875ZM24.4766 13.1016L19.125 18.4141C18.7734 18.8047 18.1875 18.8047 17.8359 18.4141L14.75 15.3281L11.6641 18.4141C11.2734 18.8047 10.6875 18.8047 10.3359 18.4141C9.94531 18.0625 9.94531 17.4766 10.3359 17.125L14.0859 13.375C14.2422 13.1797 14.4766 13.1016 14.75 13.1016C14.9844 13.1016 15.2188 13.1797 15.4141 13.375L18.5 16.4609L23.1484 11.8125C23.5 11.4219 24.0859 11.4219 24.4766 11.8125C24.8281 12.1641 24.8281 12.75 24.4766 13.1016Z" fill="black" fill-opacity="0.72"/>
</g>
</svg>
