<svg width="32" height="32" viewBox="0 0 32 32" fill="none" xmlns="http://www.w3.org/2000/svg">
<g id="standalone / md / location-crosshairs-slash-md / fill">
<path id="icon" d="M4.98438 6.73438L10.6875 11.1875C11.7812 10.1328 13.1875 9.39062 14.75 9.11719V7.75C14.75 7.08594 15.2969 6.5 16 6.5C16.6641 6.5 17.25 7.08594 17.25 7.75V9.11719C20.375 9.66406 22.8359 12.125 23.3828 15.25H24.75C25.4141 15.25 26 15.8359 26 16.5C26 17.2031 25.4141 17.75 24.75 17.75H23.3828C23.2266 18.6875 22.875 19.5859 22.4062 20.3672L28.1094 24.8594C28.5391 25.1719 28.6172 25.7578 28.2656 26.1484C27.9531 26.5781 27.3672 26.6562 26.9766 26.3047L3.85156 8.17969C3.42188 7.86719 3.34375 7.28125 3.69531 6.89062C4.00781 6.46094 4.59375 6.38281 4.98438 6.73438ZM12.6797 12.75L14.2031 13.9219C14.7109 13.6094 15.3359 13.375 16 13.375C17.7188 13.375 19.125 14.7812 19.125 16.5C19.125 16.8906 19.0469 17.2812 18.8906 17.6328L20.4141 18.8047C20.7656 18.1406 21 17.3594 21 16.5C21 13.7656 18.7344 11.5 16 11.5C14.7109 11.5 13.5781 11.9688 12.6797 12.75ZM17.4844 21.3047L19.6719 23.0234C18.9297 23.4531 18.1094 23.7656 17.25 23.9219V25.25C17.25 25.9531 16.6641 26.5 16 26.5C15.2969 26.5 14.75 25.9531 14.75 25.25V23.9219C11.5859 23.375 9.125 20.9141 8.57812 17.7891H7.25C6.54688 17.7891 6 17.2031 6 16.5391C6 15.8359 6.54688 15.2891 7.25 15.2891H8.57812C8.61719 14.9766 8.69531 14.7031 8.77344 14.4297L11 16.1875C11 16.3047 11 16.4219 11 16.5C11 19.2734 13.2266 21.5 16 21.5C16.5078 21.5 17.0156 21.4219 17.4844 21.3047Z" fill="black" fill-opacity="0.72"/>
</g>
</svg>
