<svg width="32" height="32" viewBox="0 0 32 32" fill="none" xmlns="http://www.w3.org/2000/svg">
<g id="standalone / md / bell-on-md / bold">
<path id="icon" d="M16 6.5C16.6641 6.5 17.25 7.08594 17.25 7.75V8.53125C20.1016 9.07812 22.25 11.6172 22.25 14.625V15.6406C22.25 17.3984 22.8359 19.1172 23.9297 20.5234L24.5156 21.2266C24.75 21.5391 24.7891 21.9297 24.6328 22.2422C24.4766 22.5547 24.1641 22.75 23.8125 22.75H8.1875C7.79688 22.75 7.48438 22.5547 7.32812 22.2422C7.17188 21.9297 7.21094 21.5391 7.44531 21.2266L8.03125 20.5234C9.125 19.1172 9.75 17.3984 9.75 15.6406V14.625C9.75 11.6172 11.8984 9.07812 14.75 8.53125V7.75C14.75 7.08594 15.2969 6.5 16 6.5ZM16 10.25C13.5781 10.25 11.625 12.2422 11.625 14.625V15.6406C11.625 17.5156 11.0781 19.3125 10.0625 20.875H21.8984C20.8828 19.3125 20.375 17.5156 20.375 15.6406V14.625C20.375 12.2422 18.3828 10.25 16 10.25ZM18.5 24C18.5 24.6641 18.2266 25.3281 17.7578 25.7969C17.2891 26.2656 16.6641 26.5 16 26.5C15.3359 26.5 14.6719 26.2656 14.2031 25.7969C13.7344 25.3281 13.5 24.6641 13.5 24H16H18.5ZM3.5 14.3125C3.5 13.8047 3.89062 13.375 4.4375 13.375H7.5625C8.07031 13.375 8.5 13.8047 8.5 14.3125C8.5 14.8594 8.07031 15.25 7.5625 15.25H4.4375C3.89062 15.25 3.5 14.8594 3.5 14.3125ZM24.4375 13.375H27.5625C28.0703 13.375 28.5 13.8047 28.5 14.3125C28.5 14.8594 28.0703 15.25 27.5625 15.25H24.4375C23.8906 15.25 23.5 14.8594 23.5 14.3125C23.5 13.8047 23.8906 13.375 24.4375 13.375ZM26.8203 7.35938C27.0547 7.82812 26.8594 8.375 26.3906 8.60938L23.8906 9.85938C23.4219 10.0938 22.875 9.89844 22.6406 9.42969C22.4062 8.96094 22.6016 8.41406 23.0703 8.17969L25.5703 6.92969C26.0391 6.69531 26.5859 6.89062 26.8203 7.35938ZM5.57031 8.60938C5.10156 8.375 4.90625 7.82812 5.14062 7.35938C5.375 6.89062 5.92188 6.69531 6.39062 6.92969L8.89062 8.17969C9.35938 8.41406 9.55469 8.96094 9.32031 9.42969C9.08594 9.89844 8.53906 10.0938 8.07031 9.85938L5.57031 8.60938Z" fill="black" fill-opacity="0.72"/>
</g>
</svg>
