<svg width="32" height="32" viewBox="0 0 32 32" fill="none" xmlns="http://www.w3.org/2000/svg">
<g id="standalone / md / circle-question-md / regular">
<path id="icon" d="M24.75 16.5C24.75 13.375 23.0703 10.5234 20.375 8.96094C17.6406 7.35938 14.3203 7.35938 11.625 8.96094C8.89062 10.5234 7.25 13.375 7.25 16.5C7.25 19.6641 8.89062 22.5156 11.625 24.0781C14.3203 25.6797 17.6406 25.6797 20.375 24.0781C23.0703 22.5156 24.75 19.6641 24.75 16.5ZM6 16.5C6 12.9453 7.875 9.66406 11 7.86719C14.0859 6.07031 17.875 6.07031 21 7.86719C24.0859 9.66406 26 12.9453 26 16.5C26 20.0938 24.0859 23.375 21 25.1719C17.875 26.9688 14.0859 26.9688 11 25.1719C7.875 23.375 6 20.0938 6 16.5ZM12.5625 13.1406C12.8359 12.2031 13.6953 11.5 14.6719 11.5H16.9375C18.3047 11.5 19.4375 12.6328 19.4375 14.0391C19.4375 14.9766 18.8906 15.8359 18.0703 16.2656L16.625 17.0078V17.75C16.625 18.1016 16.3125 18.375 16 18.375C15.6484 18.375 15.375 18.1016 15.375 17.75V16.6172C15.375 16.3828 15.4922 16.1484 15.6875 16.0703L17.4844 15.1328C17.9141 14.9375 18.1875 14.5078 18.1875 14.0391C18.1875 13.3359 17.6016 12.75 16.9375 12.75H14.6719C14.2812 12.75 13.8906 13.0625 13.7734 13.4531V13.4922C13.6953 13.8047 13.3438 14.0391 13.0312 13.9219C12.6797 13.8438 12.4844 13.4922 12.5625 13.1797V13.1406ZM15.0625 20.25C15.0625 19.7422 15.4531 19.3125 16 19.3125C16.5078 19.3125 16.9375 19.7422 16.9375 20.25C16.9375 20.7969 16.5078 21.1875 16 21.1875C15.4531 21.1875 15.0625 20.7969 15.0625 20.25Z" fill="black" fill-opacity="0.72"/>
</g>
</svg>
