<svg width="32" height="32" viewBox="0 0 32 32" fill="none" xmlns="http://www.w3.org/2000/svg">
<g id="standalone / md / chevrons-down-md / fill">
<path id="icon" d="M16.8594 24.8984C16.3906 25.4062 15.5703 25.4062 15.1016 24.8984L7.60156 17.3984C7.09375 16.9297 7.09375 16.1094 7.60156 15.6406C8.07031 15.1328 8.89062 15.1328 9.35938 15.6406L16 22.2422L22.6016 15.6406C23.0703 15.1328 23.8906 15.1328 24.3594 15.6406C24.8672 16.1094 24.8672 16.9297 24.3594 17.3984L16.8594 24.8984ZM24.3594 9.89844L16.8594 17.3984C16.3906 17.9062 15.5703 17.9062 15.1016 17.3984L7.60156 9.89844C7.09375 9.42969 7.09375 8.60938 7.60156 8.14062C8.07031 7.63281 8.89062 7.63281 9.35938 8.14062L16 14.7422L22.6016 8.14062C23.0703 7.63281 23.8906 7.63281 24.3594 8.14062C24.8672 8.60938 24.8672 9.42969 24.3594 9.89844Z" fill="black" fill-opacity="0.72"/>
</g>
</svg>
