<svg width="32" height="32" viewBox="0 0 32 32" fill="none" xmlns="http://www.w3.org/2000/svg">
<g id="standalone / md / pen-circle-md / fill">
<path id="icon" d="M16 26.5C12.4062 26.5 9.125 24.625 7.32812 21.5C5.53125 18.4141 5.53125 14.625 7.32812 11.5C9.125 8.41406 12.4062 6.5 16 6.5C19.5547 6.5 22.8359 8.41406 24.6328 11.5C26.4297 14.625 26.4297 18.4141 24.6328 21.5C22.8359 24.625 19.5547 26.5 16 26.5ZM19.9453 11.9688C19.3594 11.3828 18.3438 11.3828 17.7578 11.9688L16.8984 12.8281L19.6719 15.6016L20.5312 14.7422C21.1172 14.1172 21.1172 13.1406 20.5312 12.5547L19.9453 11.9688ZM11.8984 17.7891C11.7422 17.9453 11.625 18.1797 11.5859 18.375L11 20.7188C10.9609 20.9531 11 21.1875 11.1562 21.3438C11.3125 21.5 11.5469 21.5391 11.7422 21.5L14.125 20.9141C14.3203 20.8359 14.5156 20.7188 14.6719 20.5625L18.8125 16.4609L16.0391 13.6875L11.8984 17.7891Z" fill="black" fill-opacity="0.72"/>
</g>
</svg>
