<svg width="32" height="32" viewBox="0 0 32 32" fill="none" xmlns="http://www.w3.org/2000/svg">
<g id="standalone / md / circle-question-md / fill">
<path id="icon" d="M16 26.5C12.4062 26.5 9.125 24.625 7.32812 21.5C5.53125 18.4141 5.53125 14.625 7.32812 11.5C9.125 8.41406 12.4062 6.5 16 6.5C19.5547 6.5 22.8359 8.41406 24.6328 11.5C26.4297 14.625 26.4297 18.4141 24.6328 21.5C22.8359 24.625 19.5547 26.5 16 26.5ZM12.6016 12.9844V13.0234C12.4453 13.4922 12.6797 14.0391 13.1875 14.2344C13.6562 14.3906 14.2031 14.1562 14.3594 13.6484L14.3984 13.6094C14.4375 13.4922 14.5547 13.4141 14.6719 13.4141H16.9375C17.2891 13.4141 17.5625 13.6484 17.5625 14C17.5625 14.1953 17.4453 14.3906 17.25 14.5078L15.5312 15.4844C15.2188 15.6406 15.0625 15.9531 15.0625 16.3047V16.8125C15.0625 17.3594 15.4531 17.75 16 17.75C16.5078 17.75 16.8984 17.3594 16.9375 16.8516L18.1875 16.1094C18.9297 15.6797 19.4375 14.8594 19.4375 14C19.4375 12.6328 18.3047 11.5 16.9375 11.5H14.6719C13.7344 11.5 12.9141 12.0859 12.6016 12.9844ZM14.75 20.25C14.75 20.9531 15.2969 21.5 16 21.5C16.6641 21.5 17.25 20.9531 17.25 20.25C17.25 19.5859 16.6641 19 16 19C15.2969 19 14.75 19.5859 14.75 20.25Z" fill="black" fill-opacity="0.72"/>
</g>
</svg>
