<svg width="32" height="32" viewBox="0 0 32 32" fill="none" xmlns="http://www.w3.org/2000/svg">
<g id="standalone / md / circle-arrow-down-left-md / regular">
<path id="icon" d="M16 7.75C12.8359 7.75 9.98438 9.42969 8.42188 12.125C6.82031 14.8594 6.82031 18.1797 8.42188 20.875C9.98438 23.6094 12.8359 25.25 16 25.25C19.125 25.25 21.9766 23.6094 23.5391 20.875C25.1406 18.1797 25.1406 14.8594 23.5391 12.125C21.9766 9.42969 19.125 7.75 16 7.75ZM16 26.5C12.4062 26.5 9.125 24.625 7.32812 21.5C5.53125 18.4141 5.53125 14.625 7.32812 11.5C9.125 8.41406 12.4062 6.5 16 6.5C19.5547 6.5 22.8359 8.41406 24.6328 11.5C26.4297 14.625 26.4297 18.4141 24.6328 21.5C22.8359 24.625 19.5547 26.5 16 26.5ZM18.1875 20.25H12.875C12.5234 20.25 12.25 19.9766 12.25 19.625V14C12.25 13.6875 12.5234 13.375 12.875 13.375C13.1875 13.375 13.5 13.6875 13.5 14V18.1406L18.6562 12.9453C18.8906 12.7109 19.3203 12.7109 19.5547 12.9453C19.7891 13.1797 19.7891 13.6094 19.5547 13.8438L14.3594 19H18.1875C18.5 19 18.8125 19.3125 18.8125 19.625C18.8125 19.9766 18.5 20.25 18.1875 20.25Z" fill="black" fill-opacity="0.72"/>
</g>
</svg>
