<svg width="32" height="32" viewBox="0 0 32 32" fill="none" xmlns="http://www.w3.org/2000/svg">
<g id="standalone / md / eye-slash-md / fill">
<path id="icon" d="M4.98438 6.73438L9.35938 10.1328C11.1172 8.80469 13.3047 7.75 16 7.75C19.125 7.75 21.6641 9.19531 23.5 10.9141C25.3359 12.5938 26.5469 14.625 27.1328 16.0312C27.25 16.3438 27.25 16.6953 27.1328 17.0078C26.625 18.2578 25.5703 20.0547 24.0078 21.6172L28.1094 24.8594C28.5391 25.1719 28.6172 25.7578 28.2656 26.1484C27.9531 26.5781 27.3672 26.6562 26.9766 26.3047L3.85156 8.17969C3.42188 7.86719 3.34375 7.28125 3.69531 6.89062C4.00781 6.46094 4.59375 6.38281 4.98438 6.73438ZM12.2109 12.3594L15.7266 15.1328C15.8828 14.7812 16 14.4297 16 14.0391C16 13.7266 15.9219 13.4922 15.8438 13.2188C15.8047 13.0234 15.9219 12.75 16.1562 12.7891C17.7578 12.8281 19.1641 13.9219 19.5938 15.5625C19.8281 16.4219 19.75 17.2812 19.4375 18.0234L20.9219 19.1953C21.3516 18.4141 21.625 17.4766 21.625 16.5C21.625 13.4141 19.0859 10.875 16 10.875C14.5156 10.875 13.1875 11.4609 12.2109 12.3594ZM18.0703 21.7344L20.9219 24C19.4766 24.7812 17.8359 25.25 16 25.25C12.8359 25.25 10.2969 23.8438 8.46094 22.125C6.625 20.4062 5.41406 18.375 4.82812 17.0078C4.71094 16.6953 4.71094 16.3438 4.82812 16.0312C5.21875 15.1328 5.84375 14 6.74219 12.8281L10.4141 15.7188C10.375 15.9922 10.375 16.2656 10.375 16.5C10.375 19.625 12.875 22.125 16 22.125C16.7031 22.125 17.4062 22.0078 18.0703 21.7344Z" fill="black" fill-opacity="0.72"/>
</g>
</svg>
