<svg width="32" height="32" viewBox="0 0 32 32" fill="none" xmlns="http://www.w3.org/2000/svg">
<g id="standalone / md / chart-area-md / regular">
<path id="icon" d="M7.25 8.375V22.125C7.25 23.1797 8.07031 24 9.125 24H25.375C25.6875 24 26 24.3125 26 24.625C26 24.9766 25.6875 25.25 25.375 25.25H9.125C7.36719 25.25 6 23.8828 6 22.125V8.375C6 8.0625 6.27344 7.75 6.625 7.75C6.9375 7.75 7.25 8.0625 7.25 8.375ZM17.6016 14.8984L14.75 12.0469L11.1562 15.6016C11.0391 15.7188 11 15.875 11 16.0312V20.25H23.5V16.5781C23.5 16.4219 23.4219 16.3047 23.3438 16.1875L20.9219 13.3359L19.3594 14.8984C19.125 15.1328 18.8125 15.25 18.5 15.25C18.1484 15.25 17.8359 15.1328 17.6016 14.8984ZM17.6016 13.1406L18.5 14L19.3594 13.1406L20.0234 12.4766C20.5312 11.9688 21.3906 12.0078 21.8594 12.5547L24.2812 15.3672C24.5547 15.7188 24.75 16.1484 24.75 16.5781V20.25C24.75 20.9531 24.1641 21.5 23.5 21.5H11C10.2969 21.5 9.75 20.9531 9.75 20.25V16.0312C9.75 15.5625 9.94531 15.0547 10.2969 14.7031L13.8516 11.1484C14.3203 10.6797 15.1406 10.6797 15.6094 11.1484L17.6016 13.1406Z" fill="black" fill-opacity="0.72"/>
</g>
</svg>
