<svg width="32" height="32" viewBox="0 0 32 32" fill="none" xmlns="http://www.w3.org/2000/svg">
<g id="standalone / md / six-md / bold">
<path id="icon" d="M20.375 19C20.375 16.6172 18.3828 14.625 16 14.625C14.7109 14.625 13.5781 15.1719 12.7969 16.0312L12.6016 16.2656C11.9375 17.0469 11.625 18.0234 11.625 19C11.625 21.4219 13.5781 23.375 16 23.375C18.3828 23.375 20.375 21.4219 20.375 19ZM15.4141 12.7891C15.6094 12.7891 15.8047 12.75 16 12.75C19.4375 12.75 22.25 15.5625 22.25 19C22.25 22.4766 19.4375 25.25 16 25.25C12.5234 25.25 9.75 22.4766 9.75 19C9.75 17.3984 10.3359 15.9141 11.3516 14.8203L16.8203 8.10156C17.1328 7.71094 17.7188 7.63281 18.1484 7.98438C18.5391 8.29688 18.6172 8.88281 18.2656 9.3125L15.4141 12.7891Z" fill="black" fill-opacity="0.72"/>
</g>
</svg>
