<svg width="32" height="32" viewBox="0 0 32 32" fill="none" xmlns="http://www.w3.org/2000/svg">
<g id="standalone / md / cash-register-md / fill">
<path id="icon" d="M8.5 6.5H17.25C17.9141 6.5 18.5 7.08594 18.5 7.75V10.25C18.5 10.9531 17.9141 11.5 17.25 11.5H14.125V12.75H22.6016C23.8125 12.75 24.8672 13.6875 25.0625 14.8984L25.9219 20.7188C25.9609 20.9141 26 21.1094 26 21.3047V24C26 25.4062 24.8672 26.5 23.5 26.5H8.5C7.09375 26.5 6 25.4062 6 24V21.3047C6 21.1094 6 20.9141 6.03906 20.7578L6.89844 14.8984C7.09375 13.6875 8.14844 12.75 9.39844 12.75H11.625V11.5H8.5C7.79688 11.5 7.25 10.9531 7.25 10.25V7.75C7.25 7.08594 7.79688 6.5 8.5 6.5ZM9.75 8.375C9.39844 8.375 9.125 8.6875 9.125 9C9.125 9.35156 9.39844 9.625 9.75 9.625H16C16.3125 9.625 16.625 9.35156 16.625 9C16.625 8.6875 16.3125 8.375 16 8.375H9.75ZM8.5 23.375C8.5 23.7266 8.77344 24 9.125 24H22.875C23.1875 24 23.5 23.7266 23.5 23.375C23.5 23.0625 23.1875 22.75 22.875 22.75H9.125C8.77344 22.75 8.5 23.0625 8.5 23.375ZM10.375 16.8125C10.8828 16.8125 11.3125 16.4219 11.3125 15.875C11.3125 15.3672 10.8828 14.9375 10.375 14.9375C9.82812 14.9375 9.4375 15.3672 9.4375 15.875C9.4375 16.4219 9.82812 16.8125 10.375 16.8125ZM15.0625 15.875C15.0625 15.3672 14.6328 14.9375 14.125 14.9375C13.5781 14.9375 13.1875 15.3672 13.1875 15.875C13.1875 16.4219 13.5781 16.8125 14.125 16.8125C14.6328 16.8125 15.0625 16.4219 15.0625 15.875ZM12.25 19.9375C12.7578 19.9375 13.1875 19.5469 13.1875 19C13.1875 18.4922 12.7578 18.0625 12.25 18.0625C11.7031 18.0625 11.3125 18.4922 11.3125 19C11.3125 19.5469 11.7031 19.9375 12.25 19.9375ZM18.8125 15.875C18.8125 15.3672 18.3828 14.9375 17.875 14.9375C17.3281 14.9375 16.9375 15.3672 16.9375 15.875C16.9375 16.4219 17.3281 16.8125 17.875 16.8125C18.3828 16.8125 18.8125 16.4219 18.8125 15.875ZM16 19.9375C16.5078 19.9375 16.9375 19.5469 16.9375 19C16.9375 18.4922 16.5078 18.0625 16 18.0625C15.4531 18.0625 15.0625 18.4922 15.0625 19C15.0625 19.5469 15.4531 19.9375 16 19.9375ZM22.5625 15.875C22.5625 15.3672 22.1328 14.9375 21.625 14.9375C21.0781 14.9375 20.6875 15.3672 20.6875 15.875C20.6875 16.4219 21.0781 16.8125 21.625 16.8125C22.1328 16.8125 22.5625 16.4219 22.5625 15.875ZM19.75 19.9375C20.2578 19.9375 20.6875 19.5469 20.6875 19C20.6875 18.4922 20.2578 18.0625 19.75 18.0625C19.2031 18.0625 18.8125 18.4922 18.8125 19C18.8125 19.5469 19.2031 19.9375 19.75 19.9375Z" fill="black" fill-opacity="0.72"/>
</g>
</svg>
