<svg width="32" height="32" viewBox="0 0 32 32" fill="none" xmlns="http://www.w3.org/2000/svg">
<g id="standalone / md / share-nodes-md / regular">
<path id="icon" d="M24.75 10.875C24.75 12.6328 23.3438 14 21.625 14C20.7266 14 19.9062 13.6484 19.3203 13.0234L13.4219 15.9922C13.4609 16.1484 13.5 16.3438 13.5 16.5C13.5 16.6953 13.4609 16.8906 13.4219 17.0469L19.3203 19.9766C19.9062 19.3906 20.7266 19 21.625 19C23.3438 19 24.75 20.4062 24.75 22.125C24.75 23.8828 23.3438 25.25 21.625 25.25C19.8672 25.25 18.5 23.8828 18.5 22.125C18.5 21.7734 18.5391 21.3828 18.6562 21.0703L12.9922 18.2188C12.4062 19.0781 11.4688 19.625 10.375 19.625C8.61719 19.625 7.25 18.2578 7.25 16.5C7.25 14.7812 8.61719 13.375 10.375 13.375C11.4688 13.375 12.4062 13.9609 12.9922 14.8203L18.6562 11.9688C18.5391 11.6172 18.5 11.2656 18.5 10.875C18.5 9.15625 19.8672 7.75 21.625 7.75C23.3438 7.75 24.75 9.15625 24.75 10.875ZM10.375 18.375C11.0391 18.375 11.625 18.0234 11.9766 17.4375C12.3281 16.8906 12.3281 16.1484 11.9766 15.5625C11.625 15.0156 11.0391 14.625 10.375 14.625C9.67188 14.625 9.08594 15.0156 8.73438 15.5625C8.38281 16.1484 8.38281 16.8906 8.73438 17.4375C9.08594 18.0234 9.67188 18.375 10.375 18.375ZM23.5 10.875C23.5 10.2109 23.1094 9.625 22.5625 9.27344C21.9766 8.92188 21.2344 8.92188 20.6875 9.27344C20.1016 9.625 19.75 10.2109 19.75 10.875C19.75 11.5781 20.1016 12.1641 20.6875 12.5156C21.2344 12.8672 21.9766 12.8672 22.5625 12.5156C23.1094 12.1641 23.5 11.5781 23.5 10.875ZM21.625 24C22.2891 24 22.875 23.6484 23.2266 23.0625C23.5781 22.5156 23.5781 21.7734 23.2266 21.1875C22.875 20.6406 22.2891 20.25 21.625 20.25C20.9219 20.25 20.3359 20.6406 19.9844 21.1875C19.6328 21.7734 19.6328 22.5156 19.9844 23.0625C20.3359 23.6484 20.9219 24 21.625 24Z" fill="black" fill-opacity="0.72"/>
</g>
</svg>
