<svg width="32" height="32" viewBox="0 0 32 32" fill="none" xmlns="http://www.w3.org/2000/svg">
<g id="standalone / md / shield-check-md / regular">
<path id="icon" d="M15.4922 7.98438L8.57812 10.9141C8.14844 11.0703 7.83594 11.5 7.875 11.9688C7.875 15.6406 9.39844 22.125 15.4922 25.0547C15.8047 25.2109 16.1562 25.2109 16.4688 25.0547C22.5625 22.125 24.0859 15.6406 24.125 11.9688C24.125 11.5 23.8125 11.1094 23.3828 10.9141L16.4688 7.98438C16.1562 7.82812 15.8047 7.82812 15.4922 7.98438ZM16.9766 6.8125L23.8516 9.74219C24.7109 10.1328 25.375 10.9531 25.375 11.9688C25.3359 15.875 23.7344 22.9453 17.0156 26.1875C16.3516 26.5 15.6094 26.5 14.9453 26.1875C8.22656 22.9453 6.625 15.875 6.625 11.9688C6.58594 10.9531 7.25 10.1328 8.10938 9.74219L15.0234 6.8125C15.6484 6.53906 16.3516 6.53906 16.9766 6.8125ZM16 13.6875C15.4531 13.6875 15.0625 14.1172 15.0625 14.625C15.0625 15.1719 15.4531 15.5625 16 15.5625C16.5078 15.5625 16.9375 15.1719 16.9375 14.625C16.9375 14.1172 16.5078 13.6875 16 13.6875ZM18.1875 14.625C18.1875 15.6406 17.5234 16.4609 16.625 16.7344V19.625C16.625 19.9766 16.3125 20.25 16 20.25C15.6484 20.25 15.375 19.9766 15.375 19.625V16.7344C14.4375 16.4609 13.8125 15.6406 13.8125 14.625C13.8125 13.4531 14.7891 12.4375 16 12.4375C17.1719 12.4375 18.1875 13.4531 18.1875 14.625Z" fill="black" fill-opacity="0.72"/>
</g>
</svg>
