<svg width="32" height="32" viewBox="0 0 32 32" fill="none" xmlns="http://www.w3.org/2000/svg">
<g id="standalone / md / circle-check-md / regular">
<path id="icon" d="M16 7.75C12.8359 7.75 9.98438 9.42969 8.42188 12.125C6.82031 14.8594 6.82031 18.1797 8.42188 20.875C9.98438 23.6094 12.8359 25.25 16 25.25C19.125 25.25 21.9766 23.6094 23.5391 20.875C25.1406 18.1797 25.1406 14.8594 23.5391 12.125C21.9766 9.42969 19.125 7.75 16 7.75ZM16 26.5C12.4062 26.5 9.125 24.625 7.32812 21.5C5.53125 18.4141 5.53125 14.625 7.32812 11.5C9.125 8.41406 12.4062 6.5 16 6.5C19.5547 6.5 22.8359 8.41406 24.6328 11.5C26.4297 14.625 26.4297 18.4141 24.6328 21.5C22.8359 24.625 19.5547 26.5 16 26.5ZM20.1797 14.4688L15.1797 19.4688C14.9453 19.7031 14.5156 19.7031 14.2812 19.4688L11.7812 16.9688C11.5469 16.7344 11.5469 16.3047 11.7812 16.0703C12.0156 15.8359 12.4453 15.8359 12.6797 16.0703L14.75 18.1406L19.2812 13.5703C19.5156 13.3359 19.9453 13.3359 20.1797 13.5703C20.4141 13.8047 20.4141 14.2344 20.1797 14.4688Z" fill="black" fill-opacity="0.72"/>
</g>
</svg>
