<svg width="32" height="32" viewBox="0 0 32 32" fill="none" xmlns="http://www.w3.org/2000/svg">
<g id="standalone / md / thumbs-down-md / bold">
<path id="icon" d="M18.6562 25.1328C17.875 25.3411 17.1589 25.263 16.5078 24.8984C15.8568 24.5339 15.4141 23.974 15.1797 23.2188L14.9453 22.4375C14.7891 21.9167 14.5417 21.4609 14.2031 21.0703L12.1719 18.8438C11.8333 18.401 11.8594 17.9714 12.25 17.5547C12.7188 17.1901 13.1615 17.2031 13.5781 17.5938L15.5703 19.8203C16.1172 20.4193 16.5078 21.1224 16.7422 21.9297L16.9766 22.7109C17.1849 23.2318 17.5755 23.4401 18.1484 23.3359C18.6693 23.1276 18.8776 22.737 18.7734 22.1641L18.5391 21.3828C18.3307 20.6016 17.9922 19.8854 17.5234 19.2344C17.3151 18.9219 17.2891 18.5964 17.4453 18.2578C17.6276 17.9453 17.901 17.776 18.2656 17.75H23.5C23.8906 17.724 24.099 17.5156 24.125 17.125C24.099 16.8385 23.9688 16.6432 23.7344 16.5391C23.4219 16.4089 23.2266 16.1875 23.1484 15.875C23.0703 15.5625 23.1354 15.2891 23.3438 15.0547C23.4479 14.9245 23.5 14.7812 23.5 14.625C23.474 14.2865 23.3047 14.0781 22.9922 14C22.6536 13.9219 22.4193 13.7266 22.2891 13.4141C22.1849 13.0755 22.237 12.776 22.4453 12.5156C22.5234 12.4115 22.5625 12.2812 22.5625 12.125C22.5365 11.8385 22.4062 11.6432 22.1719 11.5391C21.6771 11.3047 21.4818 10.9271 21.5859 10.4062C21.612 10.3542 21.625 10.3021 21.625 10.25C21.599 9.85938 21.3906 9.65104 21 9.625H17.2109C16.6901 9.625 16.2214 9.76823 15.8047 10.0547L13.3828 11.6562C12.888 11.9167 12.4583 11.8255 12.0938 11.3828C11.8073 10.888 11.8984 10.4583 12.3672 10.0938L14.75 8.49219C15.5052 7.9974 16.3255 7.75 17.2109 7.75H21C21.7031 7.75 22.2891 7.98438 22.7578 8.45312C23.2266 8.89583 23.474 9.46875 23.5 10.1719C24.099 10.6406 24.4115 11.2917 24.4375 12.125C24.4375 12.3073 24.4245 12.4766 24.3984 12.6328C25.0234 13.1016 25.349 13.7656 25.375 14.625C25.375 14.8854 25.3359 15.1328 25.2578 15.3672C25.7266 15.8359 25.974 16.4219 26 17.125C25.974 17.8281 25.7266 18.4141 25.2578 18.8828C24.7891 19.3516 24.2031 19.599 23.5 19.625H19.9062C20.0885 20.0417 20.2448 20.4583 20.375 20.875L20.5703 21.6562C20.7786 22.4375 20.7005 23.1536 20.3359 23.8047C19.9714 24.4557 19.4115 24.8984 18.6562 25.1328ZM7.25 21.5C6.88542 21.5 6.58594 21.3828 6.35156 21.1484C6.11719 20.9141 6 20.6146 6 20.25V11.5C6 11.1354 6.11719 10.8359 6.35156 10.6016C6.58594 10.3672 6.88542 10.25 7.25 10.25H9.75C10.1146 10.25 10.4141 10.3672 10.6484 10.6016C10.8828 10.8359 11 11.1354 11 11.5V20.25C11 20.6146 10.8828 20.9141 10.6484 21.1484C10.4141 21.3828 10.1146 21.5 9.75 21.5H7.25Z" fill="black" fill-opacity="0.72"/>
</g>
</svg>
