<svg width="32" height="32" viewBox="0 0 32 32" fill="none" xmlns="http://www.w3.org/2000/svg">
<g id="standalone / md / nine-md / bold">
<path id="icon" d="M11.625 14C11.625 16.4219 13.5781 18.375 16 18.375C17.25 18.375 18.3828 17.8672 19.1641 17.0078L19.3984 16.7734C20.0234 15.9922 20.375 15.0156 20.375 14C20.375 11.6172 18.3828 9.625 16 9.625C13.5781 9.625 11.625 11.6172 11.625 14ZM16.5469 20.25C16.3516 20.25 16.1562 20.25 16 20.25C12.5234 20.25 9.75 17.4766 9.75 14C9.75 10.5625 12.5234 7.75 16 7.75C19.4375 7.75 22.25 10.5625 22.25 14C22.25 15.6406 21.625 17.125 20.6094 18.2188L15.1406 24.9375C14.8281 25.3281 14.2422 25.3672 13.8125 25.0547C13.4219 24.7422 13.3828 24.1562 13.6953 23.7266L16.5469 20.25Z" fill="black" fill-opacity="0.72"/>
</g>
</svg>
