<svg width="32" height="32" viewBox="0 0 32 32" fill="none" xmlns="http://www.w3.org/2000/svg">
<g id="standalone / md / signal-md / fill">
<path id="icon" d="M26 6.5C26.6641 6.5 27.25 7.08594 27.25 7.75V25.25C27.25 25.9531 26.6641 26.5 26 26.5C25.2969 26.5 24.75 25.9531 24.75 25.25V7.75C24.75 7.08594 25.2969 6.5 26 6.5ZM21 10.25C21.6641 10.25 22.25 10.8359 22.25 11.5V25.25C22.25 25.9531 21.6641 26.5 21 26.5C20.2969 26.5 19.75 25.9531 19.75 25.25V11.5C19.75 10.8359 20.2969 10.25 21 10.25ZM17.25 15.25V25.25C17.25 25.9531 16.6641 26.5 16 26.5C15.2969 26.5 14.75 25.9531 14.75 25.25V15.25C14.75 14.5859 15.2969 14 16 14C16.6641 14 17.25 14.5859 17.25 15.25ZM11 17.75C11.6641 17.75 12.25 18.3359 12.25 19V25.25C12.25 25.9531 11.6641 26.5 11 26.5C10.2969 26.5 9.75 25.9531 9.75 25.25V19C9.75 18.3359 10.2969 17.75 11 17.75ZM7.25 22.75V25.25C7.25 25.9531 6.66406 26.5 6 26.5C5.29688 26.5 4.75 25.9531 4.75 25.25V22.75C4.75 22.0859 5.29688 21.5 6 21.5C6.66406 21.5 7.25 22.0859 7.25 22.75Z" fill="black" fill-opacity="0.72"/>
</g>
</svg>
