<svg width="32" height="32" viewBox="0 0 32 32" fill="none" xmlns="http://www.w3.org/2000/svg">
<g id="standalone / md / person-chalkboard-md / regular">
<path id="icon" d="M10.0625 8.6875C10.0625 9.23438 10.4531 9.625 11 9.625C11.5078 9.625 11.9375 9.23438 11.9375 8.6875C11.9375 8.17969 11.5078 7.75 11 7.75C10.4531 7.75 10.0625 8.17969 10.0625 8.6875ZM13.1875 8.6875C13.1875 9.50781 12.7578 10.2109 12.0938 10.6016C11.3906 10.9922 10.5703 10.9922 9.90625 10.6016C9.20312 10.2109 8.8125 9.50781 8.8125 8.6875C8.8125 7.90625 9.20312 7.20312 9.90625 6.8125C10.5703 6.42188 11.3906 6.42188 12.0938 6.8125C12.7578 7.20312 13.1875 7.90625 13.1875 8.6875ZM10.4922 12.75C10.2188 12.75 9.98438 12.8281 9.75 12.9062V19H12.25V12.75H10.4922ZM9.75 25.875C9.75 26.2266 9.4375 26.5 9.125 26.5C8.77344 26.5 8.5 26.2266 8.5 25.875V14.4297L6.54688 18.0625C6.39062 18.375 6 18.4922 5.6875 18.3359C5.375 18.1406 5.25781 17.7891 5.41406 17.4766L7.71875 13.1797C8.26562 12.1641 9.32031 11.5 10.4922 11.5H12.9922H16V8.375C16 7.35938 16.8203 6.5 17.875 6.5H26.625C27.6406 6.5 28.5 7.35938 28.5 8.375V17.125C28.5 18.1797 27.6406 19 26.625 19H17.875C16.8203 19 16 18.1797 16 17.125V14H17.25V17.125C17.25 17.4766 17.5234 17.75 17.875 17.75H26.625C26.9375 17.75 27.25 17.4766 27.25 17.125V8.375C27.25 8.0625 26.9375 7.75 26.625 7.75H17.875C17.5234 7.75 17.25 8.0625 17.25 8.375V11.5H19.125C19.4375 11.5 19.75 11.8125 19.75 12.125C19.75 12.4766 19.4375 12.75 19.125 12.75H13.5V25.875C13.5 26.2266 13.1875 26.5 12.875 26.5C12.5234 26.5 12.25 26.2266 12.25 25.875V20.25H9.75V25.875Z" fill="black" fill-opacity="0.72"/>
</g>
</svg>
