<svg width="32" height="32" viewBox="0 0 32 32" fill="none" xmlns="http://www.w3.org/2000/svg">
<g id="standalone / md / hand-gesture-tap-right-md / fill">
<path id="icon" d="M20.5312 13.9609C21.0391 14.1953 21.2344 14.7812 21 15.25L18.0703 21.4609C17.9531 21.6562 18.0703 21.8906 18.2266 21.9688C18.4609 22.0469 18.6562 21.9688 18.7734 21.7734L19.3203 20.5625C19.3594 20.6016 19.3984 20.6797 19.4375 20.7188L19.6719 21.2656C19.8672 21.6953 19.8672 22.1641 19.6719 22.5938L19.2812 23.4141C18.8906 24.2734 18.1484 24.8984 17.2109 25.1328L17.0547 25.1719C16.1953 25.4062 15.2578 25.2891 14.4375 24.8984L11.8203 23.6484C10.2578 22.9453 9.59375 21.0703 10.3359 19.5078L11.3516 17.3984C11.625 16.8125 12.3281 16.5391 12.9141 16.8125C13.1875 16.9688 13.3828 17.2031 13.5 17.4766C13.7734 16.9297 14.4375 16.6953 14.9844 16.9688C15.2969 17.0859 15.4531 17.3203 15.5703 17.5938C15.8828 17.0469 16.5469 16.8516 17.0938 17.0859C17.3672 17.2422 17.5625 17.4375 17.6797 17.7109L19.2422 14.4297C19.4375 13.9609 20.0234 13.7266 20.5312 13.9609ZM18.0312 15.6016L18.6953 14.2344C19.0469 13.4922 19.9844 13.1406 20.7656 13.4922C21.5469 13.8828 21.8594 14.8203 21.5078 15.6016L20.9219 16.8125C21.9766 16.5 22.7188 15.5234 22.7188 14.3906C22.7188 13.0234 21.625 11.8906 20.2188 11.8906C18.8516 11.8906 17.7188 13.0234 17.7188 14.3906C17.7188 14.8203 17.8359 15.25 18.0312 15.6016ZM23.9688 7.75C23.5781 7.75 23.2266 8.10156 23.2266 8.53125V24.5078C23.2266 24.9375 23.5781 25.25 23.9688 25.25C24.3984 25.25 24.75 24.9375 24.75 24.5078V8.53125C24.75 8.10156 24.3984 7.75 23.9688 7.75Z" fill="black" fill-opacity="0.72"/>
</g>
</svg>
