<svg width="32" height="32" viewBox="0 0 32 32" fill="none" xmlns="http://www.w3.org/2000/svg">
<g id="standalone / md / folder-open-md / fill">
<path id="icon" d="M8.1875 15.25L4.75 21.1875V10.25C4.75 8.88281 5.84375 7.75 7.25 7.75H11.8203C12.4844 7.75 13.1094 8.02344 13.5781 8.49219L14.6328 9.54688C15.1016 10.0156 15.7266 10.25 16.3906 10.25H21C22.3672 10.25 23.5 11.3828 23.5 12.75V14H10.375C9.47656 14 8.65625 14.4688 8.1875 15.25ZM9.28125 15.875C9.51562 15.4844 9.90625 15.25 10.375 15.25H26C26.4297 15.25 26.8594 15.5234 27.0547 15.9141C27.2891 16.3047 27.2891 16.7734 27.0547 17.1641L22.6797 24.6641C22.4453 25.0156 22.0547 25.25 21.625 25.25H6C5.53125 25.25 5.14062 25.0156 4.90625 24.625C4.67188 24.2344 4.67188 23.7656 4.90625 23.375L9.28125 15.875Z" fill="black" fill-opacity="0.72"/>
</g>
</svg>
