<svg width="32" height="32" viewBox="0 0 32 32" fill="none" xmlns="http://www.w3.org/2000/svg">
<g id="standalone / md / arrow-up-a-z-md / fill">
<path id="icon" d="M11.8984 8.17969L15.3359 11.9297C15.8047 12.4375 15.7656 13.2188 15.2578 13.6875C14.75 14.1562 13.9688 14.1172 13.5 13.6094L12.25 12.2422V24C12.25 24.7031 11.6641 25.25 11 25.25C10.2969 25.25 9.75 24.7031 9.75 24V12.2422L8.46094 13.6094C7.99219 14.1172 7.21094 14.1562 6.70312 13.6875C6.19531 13.2188 6.15625 12.4375 6.625 11.9297L10.0625 8.17969C10.2969 7.90625 10.6484 7.75 11 7.75C11.3516 7.75 11.6641 7.90625 11.8984 8.17969ZM17.25 19C17.25 18.3359 17.7969 17.75 18.5 17.75H23.5C24.0078 17.75 24.4375 18.0625 24.6328 18.5312C24.8281 19 24.7109 19.5469 24.3594 19.8984L21.5078 22.7891H23.5C24.1641 22.7891 24.75 23.3359 24.75 24.0391C24.75 24.7031 24.1641 25.2891 23.5 25.2891H18.5C17.9922 25.2891 17.5234 24.9766 17.3281 24.5078C17.1328 24.0391 17.25 23.4922 17.6016 23.1406L20.4531 20.25H18.5C17.7969 20.25 17.25 19.7031 17.25 19ZM21 7.75C21.4688 7.75 21.8984 8.02344 22.0938 8.45312L24.5938 13.4531L25.2188 14.7031C25.5312 15.3281 25.2969 16.0703 24.6719 16.3828C24.0469 16.6953 23.3047 16.4609 22.9922 15.8359L22.7188 15.25H19.2422L18.9688 15.8359C18.6562 16.4609 17.9141 16.6953 17.2891 16.3828C16.6641 16.0703 16.4297 15.3281 16.7422 14.7031L17.3672 13.4531L19.8672 8.45312C20.0625 8.02344 20.4922 7.75 21 7.75ZM20.1797 13.375H21.7812L21 11.8125L20.1797 13.375Z" fill="black" fill-opacity="0.72"/>
</g>
</svg>
