<svg width="32" height="32" viewBox="0 0 32 32" fill="none" xmlns="http://www.w3.org/2000/svg">
<g id="standalone / md / circle-user-md / regular">
<path id="icon" d="M22.0938 22.7891C23.7344 21.1875 24.75 18.9609 24.75 16.5C24.75 11.6953 20.8047 7.75 16 7.75C11.1562 7.75 7.25 11.6953 7.25 16.5C7.25 18.9609 8.26562 21.1875 9.86719 22.7891C10.4141 20.6406 12.4062 19 14.75 19H17.25C19.5547 19 21.5469 20.6406 22.0938 22.7891ZM20.9609 23.6875V23.7266C20.8047 21.7734 19.2031 20.25 17.25 20.25H14.75C12.7578 20.25 11.1562 21.7734 11 23.7266C12.4062 24.7031 14.125 25.25 16 25.25C17.8359 25.25 19.5547 24.7031 20.9609 23.6875ZM16 26.5C12.4062 26.5 9.125 24.625 7.32812 21.5C5.53125 18.4141 5.53125 14.625 7.32812 11.5C9.125 8.41406 12.4062 6.5 16 6.5C19.5547 6.5 22.8359 8.41406 24.6328 11.5C26.4297 14.625 26.4297 18.4141 24.6328 21.5C22.8359 24.625 19.5547 26.5 16 26.5ZM16 16.5C16.6641 16.5 17.25 16.1484 17.6016 15.5625C17.9531 15.0156 17.9531 14.2734 17.6016 13.6875C17.25 13.1406 16.6641 12.75 16 12.75C15.2969 12.75 14.7109 13.1406 14.3594 13.6875C14.0078 14.2734 14.0078 15.0156 14.3594 15.5625C14.7109 16.1484 15.2969 16.5 16 16.5ZM12.875 14.625C12.875 13.5312 13.4609 12.5156 14.4375 11.9297C15.375 11.3828 16.5859 11.3828 17.5625 11.9297C18.5 12.5156 19.125 13.5312 19.125 14.625C19.125 15.7578 18.5 16.7734 17.5625 17.3594C16.5859 17.9062 15.375 17.9062 14.4375 17.3594C13.4609 16.7734 12.875 15.7578 12.875 14.625Z" fill="black" fill-opacity="0.72"/>
</g>
</svg>
