<svg width="32" height="32" viewBox="0 0 32 32" fill="none" xmlns="http://www.w3.org/2000/svg">
<g id="standalone / md / file-chart-column-md / regular">
<path id="icon" d="M21 25.25C21.6641 25.25 22.25 24.7031 22.25 24V14H17.875C16.8203 14 16 13.1797 16 12.125V7.75H11C10.2969 7.75 9.75 8.33594 9.75 9V24C9.75 24.7031 10.2969 25.25 11 25.25H21ZM17.875 12.75H22.2109C22.1719 12.6719 22.1328 12.5547 22.0547 12.4766L17.5234 7.94531C17.4453 7.86719 17.3281 7.82812 17.25 7.78906V12.125C17.25 12.4766 17.5234 12.75 17.875 12.75ZM11 6.5H17.0938C17.5625 6.5 18.0703 6.73438 18.4219 7.08594L22.9141 11.5781C23.2656 11.9297 23.5 12.4375 23.5 12.9062V24C23.5 25.4062 22.3672 26.5 21 26.5H11C9.59375 26.5 8.5 25.4062 8.5 24V9C8.5 7.63281 9.59375 6.5 11 6.5ZM16.625 15.875V23.375C16.625 23.7266 16.3125 24 16 24C15.6484 24 15.375 23.7266 15.375 23.375V15.875C15.375 15.5625 15.6484 15.25 16 15.25C16.3125 15.25 16.625 15.5625 16.625 15.875ZM20.375 18.375V23.375C20.375 23.7266 20.0625 24 19.75 24C19.3984 24 19.125 23.7266 19.125 23.375V18.375C19.125 18.0625 19.3984 17.75 19.75 17.75C20.0625 17.75 20.375 18.0625 20.375 18.375ZM12.875 20.875V23.375C12.875 23.7266 12.5625 24 12.25 24C11.8984 24 11.625 23.7266 11.625 23.375V20.875C11.625 20.5625 11.8984 20.25 12.25 20.25C12.5625 20.25 12.875 20.5625 12.875 20.875Z" fill="black" fill-opacity="0.72"/>
</g>
</svg>
