<svg width="32" height="32" viewBox="0 0 32 32" fill="none" xmlns="http://www.w3.org/2000/svg">
<g id="standalone / md / six-md / fill">
<path id="icon" d="M18.8125 9.82031L16.3125 12.7891C19.5938 12.9453 22.25 15.6797 22.25 19C22.25 22.4766 19.4375 25.25 16 25.25C12.5234 25.25 9.75 22.4766 9.75 19C9.75 18.9609 9.75 18.8828 9.75 18.8438C9.78906 17.3984 10.2969 15.9922 11.2344 14.8984L16.8984 8.21875C17.3281 7.67188 18.1484 7.63281 18.6562 8.0625C19.2031 8.49219 19.2422 9.3125 18.8125 9.82031ZM19.75 19C19.75 17.6719 19.0078 16.4609 17.875 15.7578C16.7031 15.0938 15.2578 15.0938 14.125 15.7578C12.9531 16.4609 12.25 17.6719 12.25 19C12.25 20.3672 12.9531 21.5781 14.125 22.2812C15.2578 22.9453 16.7031 22.9453 17.875 22.2812C19.0078 21.5781 19.75 20.3672 19.75 19Z" fill="black" fill-opacity="0.72"/>
</g>
</svg>
