<svg width="32" height="32" viewBox="0 0 32 32" fill="none" xmlns="http://www.w3.org/2000/svg">
<g id="standalone / md / calendar-range-md / bold">
<path id="icon" d="M13.1875 7.4375V9H18.8125V7.4375C18.8125 6.92969 19.2031 6.5 19.75 6.5C20.2578 6.5 20.6875 6.92969 20.6875 7.4375V9H22.25C23.6172 9 24.75 10.1328 24.75 11.5V12.125V14V24C24.75 25.4062 23.6172 26.5 22.25 26.5H9.75C8.34375 26.5 7.25 25.4062 7.25 24V14V12.125V11.5C7.25 10.1328 8.34375 9 9.75 9H11.3125V7.4375C11.3125 6.92969 11.7031 6.5 12.25 6.5C12.7578 6.5 13.1875 6.92969 13.1875 7.4375ZM9.125 14V24C9.125 24.3516 9.39844 24.625 9.75 24.625H22.25C22.5625 24.625 22.875 24.3516 22.875 24V14H9.125ZM11 17.75C11 17.0859 11.5469 16.5 12.25 16.5C12.9141 16.5 13.5 17.0859 13.5 17.75C13.5 18.4531 12.9141 19 12.25 19C11.5469 19 11 18.4531 11 17.75ZM19.75 20.25C20.4141 20.25 21 20.8359 21 21.5C21 22.2031 20.4141 22.75 19.75 22.75C19.0469 22.75 18.5 22.2031 18.5 21.5C18.5 20.8359 19.0469 20.25 19.75 20.25ZM14.75 17.75C14.75 17.2422 15.1406 16.8125 15.6875 16.8125H20.0625C20.5703 16.8125 21 17.2422 21 17.75C21 18.2969 20.5703 18.6875 20.0625 18.6875H15.6875C15.1406 18.6875 14.75 18.2969 14.75 17.75ZM16.3125 20.5625C16.8203 20.5625 17.25 20.9922 17.25 21.5C17.25 22.0469 16.8203 22.4375 16.3125 22.4375H11.9375C11.3906 22.4375 11 22.0469 11 21.5C11 20.9922 11.3906 20.5625 11.9375 20.5625H16.3125Z" fill="black" fill-opacity="0.72"/>
</g>
</svg>
