<svg width="32" height="32" viewBox="0 0 32 32" fill="none" xmlns="http://www.w3.org/2000/svg">
<g id="standalone / md / linux-md">
<path id="icon" d="M15.8438 11.3438C15.8047 11.3047 15.7266 11.3047 15.7266 11.2656C15.7266 11.2656 15.7266 11.2266 15.7656 11.2266C15.8047 11.1875 15.8828 11.1875 15.9609 11.2266C16 11.2656 16.0781 11.3047 16.0781 11.3438C16.0781 11.3828 16 11.3828 15.9609 11.3828C15.9219 11.3828 15.8828 11.3438 15.8438 11.3438ZM14.9844 11.3828C14.9453 11.4219 14.9062 11.3828 14.9062 11.3438C14.8672 11.3047 14.9844 11.2656 15.0234 11.2266C15.1016 11.1875 15.1797 11.1875 15.2188 11.2266C15.2578 11.2266 15.2578 11.2656 15.2578 11.2656C15.2578 11.3047 15.1797 11.3047 15.1016 11.3438C15.0625 11.3438 15.0625 11.3828 14.9844 11.3828ZM23.6562 22.2812C24.0859 22.7891 24.2422 23.1406 24.2422 23.4531C24.2422 23.7656 24.0078 24 23.6953 24.1562C23.1094 24.5078 22.25 24.7812 21.7031 25.4062C21.1562 26.0703 20.4922 26.4609 19.8281 26.5C19.1641 26.5781 18.5781 26.2656 18.2656 25.6016C18.2266 25.5234 18.1875 25.4453 18.1484 25.3672C17.3281 25.4062 16.5859 25.1328 16 25.1719C15.1406 25.25 14.5938 25.4453 14.125 25.4453C13.9297 25.875 13.5391 26.1484 13.1094 26.2266C12.4844 26.3828 11.7031 26.2266 10.9219 25.8359C10.1797 25.4453 9.28125 25.4844 8.61719 25.3281C8.26562 25.2891 7.95312 25.1328 7.83594 24.8594C7.67969 24.5859 7.71875 24.1953 7.91406 23.6094C7.95312 23.4141 7.91406 23.1406 7.875 22.8281C7.83594 22.6719 7.83594 22.5156 7.83594 22.3594C7.83594 22.1641 7.83594 22.0078 7.95312 21.8516C8.10938 21.5391 8.38281 21.3828 8.65625 21.3047C8.92969 21.1875 9.16406 21.1484 9.32031 20.9922C9.51562 20.7578 9.71094 20.4062 9.98438 20.1719C9.86719 19.5078 9.98438 18.8047 10.2188 18.1016C10.6875 16.6172 11.7422 15.2109 12.4844 14.3125C13.1094 13.4141 13.3047 12.7109 13.3438 11.8125C13.4219 10.5625 12.4062 6.5 16.3906 6.5C19.5547 6.53906 19.3984 9.85938 19.3594 11.6562C19.3594 12.8281 19.9844 13.6094 20.6875 14.4688C21.2734 15.1719 22.0547 16.1875 22.4844 17.3594C22.8359 18.3359 22.9922 19.3906 22.6406 20.4453C22.6797 20.4844 22.7578 20.4844 22.7969 20.5234C22.8359 20.5625 22.9141 20.6016 22.9531 20.6406C23.1875 20.875 23.3047 21.1875 23.3438 21.5391C23.4219 21.8516 23.5 22.125 23.6562 22.2812ZM15.9609 9.9375C15.8438 10.2109 15.8047 10.5234 15.8438 10.7969C16 10.7969 16.1953 10.875 16.3516 10.9531C16.2734 10.4844 16.5469 10.0156 16.8203 10.0547C17.1719 10.0547 17.3672 10.6406 17.1719 11.1094C17.1328 11.1875 17.0547 11.2656 17.0156 11.3047C17.2891 11.3828 17.4453 11.4609 17.5234 11.5C17.8359 11.1094 17.9531 10.4844 17.6797 9.89844C17.2891 9.07812 16.3516 9.07812 15.9609 9.9375ZM14.3984 9.46875C13.6562 9.46875 13.4609 10.9531 14.0469 11.5C14.3594 11.3047 14.3203 11.3438 14.2812 11.3047C13.9688 11.0312 14.0078 10.2109 14.3594 10.2109C14.5938 10.1719 14.7891 10.6016 14.7109 10.9531C14.8672 10.875 14.9844 10.8359 15.1406 10.7969C15.1797 10.0156 14.7891 9.46875 14.3984 9.46875ZM13.8516 11.8516C13.6953 11.9688 13.6172 12.125 13.6953 12.3203C13.7344 12.5156 13.9297 12.75 14.2422 12.9453C14.5547 13.1016 14.7109 13.375 15.0234 13.5312C15.1406 13.5703 15.2578 13.5703 15.4141 13.6094C16.1172 13.6484 16.4688 13.1406 16.8984 13.0234C17.3672 12.8672 17.6797 12.5938 17.7969 12.3203C17.9141 11.9688 17.7188 11.7344 17.3672 11.5781C16.9375 11.4219 16.7422 11.3828 16.5078 11.2266C16.1172 10.9922 15.7656 10.875 15.4922 10.875C14.9453 10.875 14.5938 11.2656 14.3984 11.4219C14.3984 11.4609 14.0859 11.6562 13.8516 11.8516ZM13.9688 24.8984C14.0469 24.0781 12.7578 22.9844 12.3672 22.2031L11.625 20.7969C11.3516 20.4453 11.0781 20.25 10.7656 20.1719C10.4531 20.1328 10.2578 20.25 10.0625 20.4453C9.86719 20.6406 9.71094 20.9531 9.51562 21.1484C9.20312 21.4219 9.125 21.4219 8.73438 21.5391C8.5 21.6172 8.30469 21.7344 8.14844 22.0078C8.07031 22.2031 8.07031 22.4766 8.10938 22.7891C8.1875 23.0625 8.22656 23.4141 8.14844 23.6875V23.7266C7.95312 24.2344 7.95312 24.5469 8.03125 24.7422C8.34375 25.3281 9.86719 24.9766 11.0391 25.6016C12.25 26.2266 13.8906 26.2656 13.9688 24.8984ZM13.9297 23.8828C15.375 24.8984 17.1328 24.5078 18.3828 23.6094C18.5 23.1797 18.6172 22.7891 18.6562 22.4766C18.6953 21.8906 18.7344 21.3438 18.8125 20.9141C18.9297 20.4062 19.2031 20.0156 19.6719 19.8594C19.75 19.0391 20.375 19.0391 21.1562 19.3516C21.8984 19.7031 22.1719 19.9766 22.0547 20.3672C22.0938 20.3672 22.1328 20.3672 22.2109 20.3672C22.4062 19.7031 21.6641 19.2734 21 19C21.1172 18.5312 21.1172 18.0625 21 17.6328C20.7656 16.6172 20.1016 15.7578 19.6328 15.3281C19.5156 15.3281 19.5547 15.4062 19.7109 15.5625C20.1797 15.9922 21.1562 17.4766 20.6484 18.8828C20.4922 18.8438 20.3359 18.8438 20.2188 18.8438C19.9844 17.7109 19.5156 16.7734 19.2812 16.3047C18.8516 15.4844 18.1484 13.7656 17.8359 12.5547C17.6406 12.8281 17.3672 13.0234 16.9766 13.1406C16.7812 13.2188 16.5859 13.375 16.3516 13.4922C15.8047 13.8047 15.1797 13.8438 14.6719 13.4531C14.5156 13.3359 14.3594 13.1797 14.2031 13.0625C14.125 13.0234 14.0078 12.9453 13.9688 12.9062C13.8906 14.3906 12.875 16.2266 12.4062 17.3203C12.0938 18.0625 11.8984 18.8828 11.8594 19.7031C11.0391 18.5703 11.6641 17.125 11.9766 16.5C12.3672 15.7969 12.4062 15.6016 12.3281 15.6797C11.9766 16.2266 11.4688 17.0859 11.2734 17.9844C11.1562 18.4531 11.1172 18.9219 11.2734 19.3516C11.3906 19.7812 11.7031 20.2109 12.2109 20.5234C12.2109 20.5234 13.1875 21.0703 13.7344 21.8125C14.0078 22.2031 14.0859 22.5156 14.0078 22.7891C13.9297 23.0234 13.6562 23.1016 13.3438 23.1016C13.5391 23.3359 13.7734 23.6094 13.9297 23.8828ZM23.9688 23.4531C24.0078 23.2188 23.8516 22.9453 23.4609 22.4766C23.0703 22.0469 23.1484 21.1875 22.7578 20.8359C22.5234 20.6016 22.25 20.6406 21.8984 20.6406C21.5859 20.9922 20.8828 21.4219 20.375 21.3047C19.9453 21.1875 19.6719 20.6406 19.6719 20.1328C19.6328 20.1328 19.6328 20.1328 19.6328 20.1719C19.3594 20.2891 19.2031 20.5625 19.0859 20.9922C18.9688 21.3828 18.9688 21.8906 18.9297 22.4766C18.8906 22.9453 18.6953 23.5312 18.5391 24.0781C18.3828 24.5859 18.3047 25.0547 18.5 25.4844C18.7734 26.0703 19.2422 26.3047 19.7891 26.2656C20.375 26.1875 21 25.875 21.5078 25.25C22.3672 24.1953 23.9297 24.0781 23.9688 23.4531ZM14.0078 12.3203C13.8516 12.2031 13.8906 12.0859 13.9297 12.0859C14.0469 12.0859 14.0469 12.2031 14.0859 12.2812C14.1641 12.3203 14.2812 12.4375 14.3984 12.5156C14.6328 12.7109 14.9844 12.9062 15.375 12.9062C15.7656 12.9062 16.2734 12.6719 16.5469 12.5156C16.7031 12.4375 16.8984 12.2422 17.0938 12.125C17.2109 12.0469 17.2109 11.9297 17.3281 11.9297C17.4453 11.9297 17.3672 12.0469 17.2109 12.2031C17.0547 12.3203 16.8203 12.4766 16.625 12.5938C16.2734 12.7891 15.8438 13.0234 15.375 13.0234C14.9453 13.0234 14.5547 12.7891 14.3203 12.5938C14.2031 12.5156 14.0859 12.3984 14.0078 12.3203Z" fill="black" fill-opacity="0.72"/>
</g>
</svg>
