<svg width="32" height="32" viewBox="0 0 32 32" fill="none" xmlns="http://www.w3.org/2000/svg">
<g id="standalone / md / mobile-notch-rotate-md / bold">
<path id="icon" d="M5.375 9.625C5.375 7.90625 6.74219 6.5 8.5 6.5H16C17.7188 6.5 19.125 7.90625 19.125 9.625V14.4688C18.9297 14.5469 18.7344 14.6641 18.5391 14.7422C18.2266 14.3516 17.7578 14.1172 17.25 14.0391V9.625C17.25 8.96094 16.6641 8.375 16 8.375H14.75V9C14.75 9.35156 14.4375 9.625 14.125 9.625H10.375C10.0234 9.625 9.75 9.35156 9.75 9V8.375H8.5C7.79688 8.375 7.25 8.96094 7.25 9.625V23.375C7.25 24.0781 7.79688 24.625 8.5 24.625H15.8438C16.2344 25.25 16.7422 25.7969 17.2891 26.2266C16.8984 26.4219 16.4297 26.5 16 26.5H8.5C6.74219 26.5 5.375 25.1328 5.375 23.375V9.625ZM16 16.1875C16 15.6797 16.3906 15.25 16.9375 15.25C17.4453 15.25 17.875 15.6797 17.875 16.1875V16.6953C18.8516 15.7969 20.1797 15.25 21.625 15.25C23.9297 15.25 25.8828 16.6562 26.7812 18.6484C26.9766 19.1172 26.7422 19.6641 26.2734 19.8594C25.8047 20.0938 25.2578 19.8594 25.0625 19.3906C24.4766 18.0625 23.1484 17.125 21.625 17.125C20.4922 17.125 19.5156 17.6328 18.8125 18.375H20.0625C20.5703 18.375 21 18.8047 21 19.3125C21 19.8594 20.5703 20.25 20.0625 20.25H16.9375C16.3906 20.25 16 19.8594 16 19.3125V16.1875ZM16.4688 23.1406C16.2344 22.6719 16.4688 22.125 16.9375 21.8906C17.4062 21.6953 17.9531 21.9297 18.1875 22.3984C18.7344 23.7266 20.0625 24.625 21.625 24.625C22.7188 24.625 23.7344 24.1562 24.3984 23.375H23.1875C22.6406 23.375 22.25 22.9844 22.25 22.4375C22.25 21.9297 22.6406 21.5 23.1875 21.5H26.3125C26.8203 21.5 27.25 21.9297 27.25 22.4375V25.5625C27.25 26.1094 26.8203 26.5 26.3125 26.5C25.7656 26.5 25.375 26.1094 25.375 25.5625V25.0938C24.3594 25.9922 23.0312 26.5 21.625 26.5C19.2812 26.5 17.3281 25.1328 16.4688 23.1406Z" fill="black" fill-opacity="0.72"/>
</g>
</svg>
