<svg width="32" height="32" viewBox="0 0 32 32" fill="none" xmlns="http://www.w3.org/2000/svg">
<g id="standalone / md / video-md / regular">
<path id="icon" d="M7.25 10.25C6.54688 10.25 6 10.8359 6 11.5V21.5C6 22.2031 6.54688 22.75 7.25 22.75H17.25C17.9141 22.75 18.5 22.2031 18.5 21.5V11.5C18.5 10.8359 17.9141 10.25 17.25 10.25H7.25ZM4.75 11.5C4.75 10.1328 5.84375 9 7.25 9H17.25C18.6172 9 19.75 10.1328 19.75 11.5V13.375V19.6641V21.5C19.75 22.9062 18.6172 24 17.25 24H7.25C5.84375 24 4.75 22.9062 4.75 21.5V11.5ZM25.0234 22.5938L21 20.3672V18.9219L25.6094 21.5C25.6484 21.5 25.6875 21.5391 25.7266 21.5391C25.8828 21.5391 26 21.4219 26 21.2656V11.7734C26 11.6172 25.8828 11.5 25.7266 11.5C25.6875 11.5 25.6484 11.5391 25.6094 11.5391L21 14.1172V12.6719L25.0234 10.4453C25.2578 10.3281 25.4922 10.25 25.7266 10.25C26.5469 10.25 27.25 10.9531 27.25 11.7734V21.2656C27.25 22.0859 26.5469 22.75 25.7266 22.75C25.4922 22.75 25.2578 22.7109 25.0234 22.5938Z" fill="black" fill-opacity="0.72"/>
</g>
</svg>
