<svg width="32" height="32" viewBox="0 0 32 32" fill="none" xmlns="http://www.w3.org/2000/svg">
<g id="standalone / md / circle-arrow-right-md / bold">
<path id="icon" d="M24.125 16.5C24.125 13.6094 22.5625 10.9531 20.0625 9.46875C17.5234 8.02344 14.4375 8.02344 11.9375 9.46875C9.39844 10.9531 7.875 13.6094 7.875 16.5C7.875 19.4297 9.39844 22.0859 11.9375 23.5703C14.4375 25.0156 17.5234 25.0156 20.0625 23.5703C22.5625 22.0859 24.125 19.4297 24.125 16.5ZM6 16.5C6 12.9453 7.875 9.66406 11 7.86719C14.0859 6.07031 17.875 6.07031 21 7.86719C24.0859 9.66406 26 12.9453 26 16.5C26 20.0938 24.0859 23.375 21 25.1719C17.875 26.9688 14.0859 26.9688 11 25.1719C7.875 23.375 6 20.0938 6 16.5ZM17.2891 20.6016C16.8984 20.9922 16.3125 20.9922 15.9609 20.6016C15.5703 20.25 15.5703 19.6641 15.9609 19.2734L17.7969 17.4375H11.9375C11.3906 17.4375 11 17.0469 11 16.5C11 15.9922 11.3906 15.5625 11.9375 15.5625H17.7969L15.9609 13.7266C15.5703 13.375 15.5703 12.7891 15.9609 12.4375C16.3125 12.0469 16.8984 12.0469 17.2891 12.4375L20.7266 15.875C21.0781 16.2266 21.0781 16.8125 20.7266 17.1641L17.2891 20.6016Z" fill="black" fill-opacity="0.72"/>
</g>
</svg>
