<svg width="32" height="32" viewBox="0 0 32 32" fill="none" xmlns="http://www.w3.org/2000/svg">
<g id="standalone / md / arrow-down-a-z-md / regular">
<path id="icon" d="M15.1797 21.3438L11.4297 25.0938C11.1953 25.3281 10.7656 25.3281 10.5312 25.0938L6.78125 21.3438C6.54688 21.1094 6.54688 20.6797 6.78125 20.4453C7.01562 20.2109 7.44531 20.2109 7.67969 20.4453L10.375 23.1406V8.375C10.375 8.0625 10.6484 7.75 11 7.75C11.3125 7.75 11.625 8.0625 11.625 8.375V23.1406L14.2812 20.4453C14.5156 20.2109 14.9453 20.2109 15.1797 20.4453C15.4141 20.6797 15.4141 21.1094 15.1797 21.3438ZM21.5469 8.10156L24.0469 13.1016C24.0469 13.1016 24.0469 13.1016 24.0469 13.1406L24.6719 14.3516C24.8281 14.6641 24.7109 15.0547 24.3984 15.2109C24.0859 15.3672 23.6953 15.2109 23.5391 14.9375L23.1094 14H18.8516L18.4219 14.9375C18.2656 15.25 17.875 15.3672 17.5625 15.2109C17.25 15.0547 17.1328 14.6641 17.2891 14.3516L17.9141 13.1406C17.9141 13.1016 17.9141 13.1016 17.9141 13.1016L20.4141 8.10156C20.5312 7.90625 20.7266 7.75 21 7.75C21.2344 7.75 21.4297 7.90625 21.5469 8.10156ZM21 9.78125L19.4766 12.75H22.4844L21 9.78125ZM18.5 17.75H23.5C23.7344 17.75 23.9297 17.9062 24.0469 18.1406C24.1641 18.3359 24.125 18.6094 23.9688 18.7656L19.7891 24H23.5C23.8125 24 24.125 24.3125 24.125 24.625C24.125 24.9766 23.8125 25.25 23.5 25.25H18.5C18.2266 25.25 18.0312 25.1328 17.9141 24.8984C17.8359 24.7031 17.8359 24.4297 17.9922 24.2344L22.1719 19H18.5C18.1484 19 17.875 18.7266 17.875 18.375C17.875 18.0625 18.1484 17.75 18.5 17.75Z" fill="black" fill-opacity="0.72"/>
</g>
</svg>
