<svg width="32" height="32" viewBox="0 0 32 32" fill="none" xmlns="http://www.w3.org/2000/svg">
<g id="standalone / md / floppy-disk-md / fill">
<path id="icon" d="M9.75 7.75H19.2031C19.8672 7.75 20.5312 8.02344 21 8.49219L24.0078 11.5C24.4766 11.9688 24.75 12.6328 24.75 13.2969V22.75C24.75 24.1562 23.6172 25.25 22.25 25.25H9.75C8.34375 25.25 7.25 24.1562 7.25 22.75V10.25C7.25 8.88281 8.34375 7.75 9.75 7.75ZM9.75 11.5V14C9.75 14.7031 10.2969 15.25 11 15.25H18.5C19.1641 15.25 19.75 14.7031 19.75 14V11.5C19.75 10.8359 19.1641 10.25 18.5 10.25H11C10.2969 10.25 9.75 10.8359 9.75 11.5ZM16 17.75C15.1016 17.75 14.2812 18.2578 13.8125 19C13.3828 19.7812 13.3828 20.7578 13.8125 21.5C14.2812 22.2812 15.1016 22.75 16 22.75C16.8594 22.75 17.6797 22.2812 18.1484 21.5C18.5781 20.7578 18.5781 19.7812 18.1484 19C17.6797 18.2578 16.8594 17.75 16 17.75Z" fill="black" fill-opacity="0.72"/>
</g>
</svg>
