<svg width="32" height="32" viewBox="0 0 32 32" fill="none" xmlns="http://www.w3.org/2000/svg">
<g id="standalone / md / wallet-signal-md / bold">
<path id="icon" d="M3.5 11.1875C3.5 9.3125 5.02344 7.75 6.9375 7.75H21.3125C21.8203 7.75 22.25 8.17969 22.25 8.6875C22.25 9.23438 21.8203 9.625 21.3125 9.625H6.9375C6.03906 9.625 5.375 10.3281 5.375 11.1875V21.8125C5.375 22.7109 6.03906 23.375 6.9375 23.375H17.25V25.25H6.9375C5.02344 25.25 3.5 23.7266 3.5 21.8125V11.1875ZM7.25 12.4375C7.25 11.9297 7.64062 11.5 8.1875 11.5H20.0625C21.9375 11.5 23.5 13.0625 23.5 14.9375V16.1094C22.875 15.8359 22.25 15.6406 21.625 15.4844V14.9375C21.625 14.0781 20.9219 13.375 20.0625 13.375H8.1875C7.64062 13.375 7.25 12.9844 7.25 12.4375ZM18.5 17.4375C18.5 16.9297 18.8906 16.5 19.4375 16.5C24.4375 16.5 28.5 20.5625 28.5 25.5625C28.5 26.1094 28.0703 26.5 27.5625 26.5C27.0156 26.5 26.625 26.1094 26.625 25.5625C26.625 21.6172 23.3828 18.375 19.4375 18.375C18.8906 18.375 18.5 17.9844 18.5 17.4375ZM18.5 21.1875C18.5 20.6797 18.8906 20.25 19.4375 20.25C22.3672 20.25 24.75 22.6328 24.75 25.5625C24.75 26.1094 24.3203 26.5 23.8125 26.5C23.2656 26.5 22.875 26.1094 22.875 25.5625C22.875 23.6875 21.3125 22.125 19.4375 22.125C18.8906 22.125 18.5 21.7344 18.5 21.1875ZM18.5 25.25C18.5 24.5859 19.0469 24 19.75 24C20.4141 24 21 24.5859 21 25.25C21 25.9531 20.4141 26.5 19.75 26.5C19.0469 26.5 18.5 25.9531 18.5 25.25Z" fill="black" fill-opacity="0.72"/>
</g>
</svg>
