<svg width="32" height="32" viewBox="0 0 32 32" fill="none" xmlns="http://www.w3.org/2000/svg">
<g id="standalone / md / phone-md / fill">
<path id="icon" d="M12.4062 7.47656L13.9688 11.2266C14.2422 11.8516 14.0859 12.5938 13.5391 13.0234L11.625 14.625C12.9141 17.3594 15.1406 19.5859 17.875 20.875L19.4766 18.9609C19.9062 18.4141 20.6484 18.2578 21.2734 18.5312L25.0234 20.0938C25.7656 20.3672 26.1172 21.1875 25.9219 21.9297L24.9844 25.3672C24.7891 26.0312 24.2031 26.5 23.5 26.5C13.8125 26.5 6 18.6875 6 9C6 8.29688 6.46875 7.71094 7.13281 7.51562L10.5703 6.57812C11.3125 6.38281 12.1328 6.73438 12.4062 7.47656Z" fill="black" fill-opacity="0.72"/>
</g>
</svg>
