<svg width="32" height="32" viewBox="0 0 32 32" fill="none" xmlns="http://www.w3.org/2000/svg">
<g id="standalone / md / filter-md / bold">
<path id="icon" d="M6 9.39062C6 8.49219 6.70312 7.75 7.60156 7.75H24.3594C25.2578 7.75 26 8.49219 26 9.39062C26 9.78125 25.8438 10.1328 25.6094 10.4062L19.125 18.4141V24C19.125 24.7031 18.5391 25.25 17.8359 25.25C17.5625 25.25 17.2891 25.1719 17.0547 24.9766L13.4609 22.125C13.0703 21.8125 12.875 21.3828 12.875 20.9141V18.4141L6.35156 10.4062C6.11719 10.1328 6 9.78125 6 9.39062ZM8.14844 9.625L14.5156 17.4766C14.6719 17.6719 14.75 17.8672 14.75 18.0625V20.7578L17.25 22.75V18.0625C17.25 17.8672 17.2891 17.6719 17.4453 17.4766L23.8516 9.625H8.14844Z" fill="black" fill-opacity="0.72"/>
</g>
</svg>
