<svg width="32" height="32" viewBox="0 0 32 32" fill="none" xmlns="http://www.w3.org/2000/svg">
<g id="standalone / md / graduation-cap-md / bold">
<path id="icon" d="M16 9.625C15.8828 9.625 15.8047 9.66406 15.6875 9.70312L7.17188 12.75L8.92969 13.4141C9.125 13.2969 9.32031 13.2188 9.51562 13.1406L15.7656 10.7969C16.0781 10.6797 16.4688 10.8359 16.5859 11.1875C16.7031 11.5 16.5469 11.8516 16.1953 11.9688L10.6875 14.0391L15.6875 15.8359C15.8047 15.875 15.8828 15.875 16 15.875C16.0781 15.875 16.1953 15.875 16.2734 15.8359L24.7891 12.75L16.2734 9.70312C16.1953 9.66406 16.0781 9.625 16 9.625ZM4.08594 13.6484C3.73438 13.5312 3.5 13.1797 3.5 12.75C3.5 12.3594 3.73438 12.0078 4.08594 11.8906L15.0625 7.94531C15.3359 7.82812 15.6484 7.75 16 7.75C16.3125 7.75 16.625 7.82812 16.8984 7.94531L27.875 11.8906C28.2266 12.0078 28.5 12.3594 28.5 12.75C28.5 13.1797 28.2266 13.5312 27.875 13.6484L16.8984 17.5938C16.625 17.7109 16.3125 17.7891 16 17.7891C15.6484 17.7891 15.3359 17.7109 15.0625 17.5938L8.42188 15.2109C7.36719 16.1484 6.70312 17.4375 6.625 18.8828C6.85938 19.4297 7.01562 19.9766 7.13281 20.5234C7.36719 21.5781 7.5625 23.1016 7.21094 24.7812C7.17188 24.9375 7.09375 25.0938 6.9375 25.1719C6.78125 25.25 6.625 25.2891 6.46875 25.25L3.96875 24.625C3.73438 24.5859 3.57812 24.4297 3.5 24.2344C3.46094 24.0391 3.5 23.8047 3.61719 23.6484C3.92969 23.1797 4.24219 22.6719 4.47656 22.1641C4.94531 21.2656 5.375 20.1328 5.375 19V18.9609C5.41406 17.3594 6.07812 15.875 7.13281 14.7422L4.08594 13.6484ZM22.875 16.7734L23.5 22.4375C23.5 23.8438 20.1406 25.25 16 25.25C11.8594 25.25 8.5 23.8438 8.5 22.4375L9.08594 16.7734L10.8828 17.4375L10.4141 22.125C10.5703 22.2812 10.8828 22.4375 11.3516 22.6328C12.4844 23.0625 14.125 23.375 16 23.375C17.875 23.375 19.5156 23.0625 20.6094 22.6328C21.0781 22.4375 21.3906 22.2812 21.5469 22.125L21.0781 17.4375L22.875 16.7734ZM21.7422 21.9688V22.0078V21.9688ZM10.2188 21.9688V22.0078V21.9688Z" fill="black" fill-opacity="0.72"/>
</g>
</svg>
