<svg width="32" height="32" viewBox="0 0 32 32" fill="none" xmlns="http://www.w3.org/2000/svg">
<g id="standalone / md / user-plus-md / regular">
<path id="icon" d="M12.25 7.75C10.8828 7.75 9.67188 8.49219 8.96875 9.625C8.30469 10.7969 8.30469 12.2422 8.96875 13.375C9.67188 14.5469 10.8828 15.25 12.25 15.25C13.5781 15.25 14.7891 14.5469 15.4922 13.375C16.1562 12.2422 16.1562 10.7969 15.4922 9.625C14.7891 8.49219 13.5781 7.75 12.25 7.75ZM12.25 16.5C10.4531 16.5 8.8125 15.5625 7.91406 14C7.01562 12.4766 7.01562 10.5625 7.91406 9C8.8125 7.47656 10.4531 6.5 12.25 6.5C14.0078 6.5 15.6484 7.47656 16.5469 9C17.4453 10.5625 17.4453 12.4766 16.5469 14C15.6484 15.5625 14.0078 16.5 12.25 16.5ZM10.4531 19.625C7.32812 19.625 4.78906 22.1641 4.75 25.25H19.75C19.6719 22.1641 17.1328 19.625 14.0078 19.625H10.4531ZM10.4531 18.375H14.0078C17.875 18.375 21 21.5 21 25.3672C21 25.9922 20.4531 26.5 19.8281 26.5H4.63281C4.00781 26.5 3.5 25.9922 3.5 25.3672C3.5 21.5 6.58594 18.375 10.4531 18.375ZM23.5 18.375V15.25H20.375C20.0234 15.25 19.75 14.9766 19.75 14.625C19.75 14.3125 20.0234 14 20.375 14H23.5V10.875C23.5 10.5625 23.7734 10.25 24.125 10.25C24.4375 10.25 24.75 10.5625 24.75 10.875V14H27.875C28.1875 14 28.5 14.3125 28.5 14.625C28.5 14.9766 28.1875 15.25 27.875 15.25H24.75V18.375C24.75 18.7266 24.4375 19 24.125 19C23.7734 19 23.5 18.7266 23.5 18.375Z" fill="black" fill-opacity="0.72"/>
</g>
</svg>
