<svg width="32" height="32" viewBox="0 0 32 32" fill="none" xmlns="http://www.w3.org/2000/svg">
<g id="standalone / md / chevrons-up-md / regular">
<path id="icon" d="M16.4297 8.57031L23.9297 16.0703C24.1641 16.3047 24.1641 16.7344 23.9297 16.9688C23.6953 17.2031 23.2656 17.2031 23.0312 16.9688L16 9.89844L8.92969 16.9688C8.69531 17.2031 8.26562 17.2031 8.03125 16.9688C7.79688 16.7344 7.79688 16.3047 8.03125 16.0703L15.5312 8.57031C15.7656 8.33594 16.1953 8.33594 16.4297 8.57031ZM23.9297 23.5703C24.1641 23.8047 24.1641 24.2344 23.9297 24.4688C23.6953 24.7031 23.2656 24.7031 23.0312 24.4688L16 17.3984L8.92969 24.4688C8.69531 24.7031 8.26562 24.7031 8.03125 24.4688C7.79688 24.2344 7.79688 23.8047 8.03125 23.5703L15.5312 16.0703C15.7656 15.8359 16.1953 15.8359 16.4297 16.0703L23.9297 23.5703Z" fill="black" fill-opacity="0.72"/>
</g>
</svg>
