<svg width="32" height="32" viewBox="0 0 32 32" fill="none" xmlns="http://www.w3.org/2000/svg">
<g id="standalone / md / info-md / regular">
<path id="icon" d="M14.75 9C14.75 8.33594 15.2969 7.75 16 7.75C16.6641 7.75 17.25 8.33594 17.25 9C17.25 9.70312 16.6641 10.25 16 10.25C15.2969 10.25 14.75 9.70312 14.75 9ZM12.875 13.375C12.875 13.0625 13.1484 12.75 13.5 12.75H16C16.3125 12.75 16.625 13.0625 16.625 13.375V24H19.125C19.4375 24 19.75 24.3125 19.75 24.625C19.75 24.9766 19.4375 25.25 19.125 25.25H12.875C12.5234 25.25 12.25 24.9766 12.25 24.625C12.25 24.3125 12.5234 24 12.875 24H15.375V14H13.5C13.1484 14 12.875 13.7266 12.875 13.375Z" fill="black" fill-opacity="0.72"/>
</g>
</svg>
