<svg width="32" height="32" viewBox="0 0 32 32" fill="none" xmlns="http://www.w3.org/2000/svg">
<g id="standalone / md / eye-slash-md / bold">
<path id="icon" d="M4.98438 6.73438L9.35938 10.1328C11.1172 8.80469 13.3047 7.75 16 7.75C19.125 7.75 21.6641 9.19531 23.5 10.9141C25.3359 12.5938 26.5469 14.625 27.1328 16.0312C27.25 16.3438 27.25 16.6953 27.1328 17.0078C26.625 18.2578 25.5703 20.0547 24.0078 21.6172L28.1094 24.8594C28.5391 25.1719 28.6172 25.7578 28.2656 26.1484C27.9531 26.5781 27.3672 26.6562 26.9766 26.3047L3.85156 8.17969C3.42188 7.86719 3.34375 7.28125 3.69531 6.89062C4.00781 6.46094 4.59375 6.38281 4.98438 6.73438ZM10.8828 11.3438L12.6797 12.75C13.5781 11.9688 14.7109 11.5 16 11.5C18.7344 11.5 21 13.7656 21 16.5C21 17.3594 20.8047 18.1406 20.4141 18.8047L22.5234 20.4453C23.8906 19.1172 24.8281 17.5938 25.2969 16.5C24.7891 15.3281 23.7344 13.6875 22.2109 12.2812C20.6094 10.7969 18.5391 9.625 16 9.625C14.0078 9.625 12.3281 10.3281 10.8828 11.3438ZM18.8906 17.6328C19.0469 17.2812 19.125 16.8906 19.125 16.5C19.125 14.7812 17.7188 13.375 16 13.375C15.9609 13.375 15.9219 13.375 15.9219 13.375C15.9609 13.6094 16 13.8047 16 14C16 14.4297 15.8828 14.7812 15.7266 15.1328L18.8906 17.6328ZM20.9219 24C19.4766 24.7812 17.8359 25.25 16 25.25C12.8359 25.25 10.2969 23.8438 8.46094 22.125C6.625 20.4062 5.41406 18.375 4.82812 17.0078C4.71094 16.6953 4.71094 16.3438 4.82812 16.0312C5.21875 15.1328 5.84375 14 6.74219 12.8281L8.1875 14C7.48438 14.8984 6.97656 15.7969 6.66406 16.5C7.21094 17.6719 8.22656 19.3516 9.75 20.7578C11.3516 22.2422 13.4219 23.375 16 23.375C17.1719 23.375 18.2656 23.1406 19.2812 22.7109L20.9219 24ZM17.4844 21.3047C17.0156 21.4219 16.5078 21.5 15.9609 21.5C13.2266 21.5 10.9609 19.2734 10.9609 16.5C10.9609 16.4219 11 16.3047 11 16.1875L13.1875 17.9062C13.5781 18.7266 14.3594 19.3516 15.2969 19.5469L17.4844 21.3047Z" fill="black" fill-opacity="0.72"/>
</g>
</svg>
