<svg width="32" height="32" viewBox="0 0 32 32" fill="none" xmlns="http://www.w3.org/2000/svg">
<g id="standalone / md / mobile-screen-button-md / regular">
<path id="icon" d="M19.75 7.75H12.25C11.5469 7.75 11 8.33594 11 9V19H21V9C21 8.33594 20.4141 7.75 19.75 7.75ZM21 20.25H11V24C11 24.7031 11.5469 25.25 12.25 25.25H19.75C20.4141 25.25 21 24.7031 21 24V20.25ZM12.25 6.5H19.75C21.1172 6.5 22.25 7.63281 22.25 9V24C22.25 25.4062 21.1172 26.5 19.75 26.5H12.25C10.8438 26.5 9.75 25.4062 9.75 24V9C9.75 7.63281 10.8438 6.5 12.25 6.5ZM14.125 22.75C14.125 22.4375 14.3984 22.125 14.75 22.125H17.25C17.5625 22.125 17.875 22.4375 17.875 22.75C17.875 23.1016 17.5625 23.375 17.25 23.375H14.75C14.3984 23.375 14.125 23.1016 14.125 22.75Z" fill="black" fill-opacity="0.72"/>
</g>
</svg>
