<svg width="32" height="32" viewBox="0 0 32 32" fill="none" xmlns="http://www.w3.org/2000/svg">
<g id="standalone / md / two-md / fill">
<path id="icon" d="M15.2969 10.25C14.4766 10.25 13.6562 10.6016 13.0703 11.1875L11.8594 12.3984C11.3906 12.9062 10.5703 12.9062 10.1016 12.3984C9.59375 11.9297 9.59375 11.1094 10.1016 10.6406L11.3125 9.42969C12.3672 8.375 13.8125 7.75 15.2969 7.75C18.4609 7.75 21 10.2891 21 13.4531C21 14.9375 20.375 16.3828 19.3203 17.4375L14.0078 22.75H21C21.6641 22.75 22.25 23.3359 22.25 24C22.25 24.7031 21.6641 25.25 21 25.25H11C10.4922 25.25 10.0234 24.9766 9.82812 24.5078C9.63281 24.0391 9.75 23.4922 10.1016 23.1406L17.5625 15.6797C18.1484 15.0938 18.5 14.2734 18.5 13.4531C18.5 11.6953 17.0547 10.25 15.2969 10.25Z" fill="black" fill-opacity="0.72"/>
</g>
</svg>
