<svg width="32" height="32" viewBox="0 0 32 32" fill="none" xmlns="http://www.w3.org/2000/svg">
<g id="standalone / md / take-profit-md / fill">
<path id="icon" d="M12.8359 22.3984V13.9609H15.6484V10.6797H6.46875V13.9609H9.28125V22.3984H12.8359ZM15.9609 10.6797H21.5469C22.0938 10.6797 22.6406 10.7969 23.1094 10.9922C23.5781 11.1875 23.9688 11.4609 24.3203 11.8125C24.6719 12.1641 24.9062 12.5938 25.1016 13.1016C25.2578 13.5703 25.3359 14.1172 25.3359 14.6641C25.3359 15.2109 25.2578 15.7578 25.1016 16.2266C24.9062 16.7344 24.6719 17.125 24.3203 17.5156C23.9688 17.8672 23.5781 18.1406 23.1094 18.3359C22.6406 18.5312 22.0938 18.6094 21.5469 18.6094H19.5156V22.3984H15.9609V10.6797ZM21.625 14C21.5859 13.9609 21.5078 13.9219 21.2734 13.9219H19.5156V15.4062H21.2734C21.5078 15.4062 21.625 15.3281 21.6641 15.2891C21.7031 15.25 21.7422 15.2109 21.7422 14.9766V14.3125C21.7422 14.1172 21.7031 14.0391 21.6641 14.0391L21.625 14Z" fill="black" fill-opacity="0.72"/>
</g>
</svg>
