<svg width="32" height="32" viewBox="0 0 32 32" fill="none" xmlns="http://www.w3.org/2000/svg">
<g id="standalone / md / handshake-md / bold">
<path id="icon" d="M14.125 9.03906L12.1328 11.0312C11.5078 11.1875 10.9609 11.5 10.4922 11.9297L9.47656 12.8281C9.04688 13.1797 8.53906 13.375 7.99219 13.375H7.25V18.375C8.03125 18.4141 8.77344 18.7266 9.35938 19.3125L10.7266 20.6797L11 20.9531L12.0547 22.0078C12.3281 22.2812 12.7188 22.2812 12.9531 22.0078C13.0312 21.9688 13.0703 21.8906 13.1094 21.8125C13.2266 21.5 13.4609 21.2656 13.7734 21.1875C14.0859 21.1484 14.3984 21.2266 14.6328 21.4609L15.0625 21.8516C15.5312 22.3203 16.2344 22.3203 16.7031 21.8516C16.8984 21.6562 17.0156 21.3828 17.0547 21.1094C17.0547 20.7578 17.25 20.4453 17.5625 20.3281C17.875 20.1719 18.2266 20.2109 18.5391 20.4062C18.8906 20.6406 19.3984 20.6406 19.7109 20.2891C20.1016 19.9375 20.1016 19.3516 19.7109 18.9609L16.7812 15.9922L15.375 17.2812C14.3203 18.2969 12.6797 18.2969 11.5859 17.3203C10.3359 16.2266 10.2969 14.3125 11.5078 13.1797L14.2422 10.6016C15.3359 9.58594 16.7422 9 18.2266 9C19.6328 9 21 9.54688 22.0547 10.4844L23.2266 11.5H24.75H26.3125H27.875C28.1875 11.5 28.5 11.8125 28.5 12.125V20.25C28.5 20.9531 27.9141 21.5 27.25 21.5H26C25.5312 21.5 25.1016 21.2656 24.9062 20.875H21.5859C21.4688 21.1484 21.2734 21.4219 21.0391 21.6172C20.375 22.2812 19.4766 22.5547 18.5781 22.3984C18.4609 22.7109 18.2656 22.9453 18.0312 23.1797C16.9766 24.2734 15.2969 24.3516 14.0859 23.5312C13.1094 24.3125 11.6641 24.2734 10.7266 23.3359L9.71094 22.2812L9.4375 22.0078L8.03125 20.6406C7.79688 20.4062 7.52344 20.2891 7.25 20.2891C7.25 20.9531 6.66406 21.5 6 21.5H4.75C4.04688 21.5 3.5 20.9531 3.5 20.25V12.125C3.5 11.8125 3.77344 11.5 4.125 11.5H5.6875H7.25H7.99219C8.07031 11.5 8.14844 11.5 8.22656 11.4219L9.24219 10.5234C10.3359 9.54688 11.7422 9 13.1875 9H13.6172C13.7734 9 13.9297 9.03906 14.125 9.03906ZM24.75 19V13.375H22.875C22.6406 13.375 22.4062 13.2969 22.25 13.1406L20.8047 11.8906C20.1016 11.2266 19.1641 10.875 18.2266 10.875C17.2109 10.875 16.2734 11.2656 15.5312 11.9688L12.7969 14.5469C12.4062 14.9375 12.4062 15.5625 12.8359 15.9141C13.1875 16.2656 13.7344 16.2656 14.0859 15.9141L16.8984 13.3359C17.2891 12.9844 17.875 12.9844 18.2266 13.375C18.5781 13.7656 18.5391 14.3516 18.1875 14.7031L18.1484 14.7422L21.0391 17.6328C21.4297 18.0234 21.7031 18.5312 21.8203 19H24.7109H24.75ZM6 19.625C6 19.3125 5.6875 19 5.375 19C5.02344 19 4.75 19.3125 4.75 19.625C4.75 19.9766 5.02344 20.25 5.375 20.25C5.6875 20.25 6 19.9766 6 19.625ZM26.625 20.25C26.9375 20.25 27.25 19.9766 27.25 19.625C27.25 19.3125 26.9375 19 26.625 19C26.2734 19 26 19.3125 26 19.625C26 19.9766 26.2734 20.25 26.625 20.25Z" fill="black" fill-opacity="0.72"/>
</g>
</svg>
