<svg width="32" height="32" viewBox="0 0 32 32" fill="none" xmlns="http://www.w3.org/2000/svg">
<g id="standalone / md / circle-trash-md / regular">
<path id="icon" d="M24.75 16.5C24.75 13.375 23.0703 10.5234 20.375 8.96094C17.6406 7.35938 14.3203 7.35938 11.625 8.96094C8.89062 10.5234 7.25 13.375 7.25 16.5C7.25 19.6641 8.89062 22.5156 11.625 24.0781C14.3203 25.6797 17.6406 25.6797 20.375 24.0781C23.0703 22.5156 24.75 19.6641 24.75 16.5ZM6 16.5C6 12.9453 7.875 9.66406 11 7.86719C14.0859 6.07031 17.875 6.07031 21 7.86719C24.0859 9.66406 26 12.9453 26 16.5C26 20.0938 24.0859 23.375 21 25.1719C17.875 26.9688 14.0859 26.9688 11 25.1719C7.875 23.375 6 20.0938 6 16.5ZM12.25 12.125H13.5H13.8516L14.2812 11.6953C14.3984 11.5781 14.5547 11.5 14.75 11.5H17.25C17.4062 11.5 17.5625 11.5781 17.6797 11.6953L18.1094 12.125H18.4609H19.75C20.0625 12.125 20.375 12.4375 20.375 12.75C20.375 13.1016 20.0625 13.375 19.75 13.375H19.6328L19.2031 20.3672C19.125 20.9922 18.5781 21.5 17.9531 21.5H14.0078C13.3828 21.5 12.8359 20.9922 12.7969 20.3672L12.3281 13.375H12.25C11.8984 13.375 11.625 13.1016 11.625 12.75C11.625 12.4375 11.8984 12.125 12.25 12.125ZM18.3828 13.375H13.5781L14.0078 20.25H17.9531L18.3828 13.375Z" fill="black" fill-opacity="0.72"/>
</g>
</svg>
