<svg width="32" height="32" viewBox="0 0 32 32" fill="none" xmlns="http://www.w3.org/2000/svg">
<g id="standalone / md / expand-md / bold">
<path id="icon" d="M12.5625 7.75C13.0703 7.75 13.5 8.17969 13.5 8.6875C13.5 9.23438 13.0703 9.625 12.5625 9.625H9.125V13.0625C9.125 13.6094 8.69531 14 8.1875 14C7.64062 14 7.25 13.6094 7.25 13.0625V8.6875C7.25 8.17969 7.64062 7.75 8.1875 7.75H12.5625ZM7.25 19.9375C7.25 19.4297 7.64062 19 8.1875 19C8.69531 19 9.125 19.4297 9.125 19.9375V23.375H12.5625C13.0703 23.375 13.5 23.8047 13.5 24.3125C13.5 24.8594 13.0703 25.25 12.5625 25.25H8.1875C7.64062 25.25 7.25 24.8594 7.25 24.3125V19.9375ZM23.8125 7.75C24.3203 7.75 24.75 8.17969 24.75 8.6875V13.0625C24.75 13.6094 24.3203 14 23.8125 14C23.2656 14 22.875 13.6094 22.875 13.0625V9.625H19.4375C18.8906 9.625 18.5 9.23438 18.5 8.6875C18.5 8.17969 18.8906 7.75 19.4375 7.75H23.8125ZM22.875 19.9375C22.875 19.4297 23.2656 19 23.8125 19C24.3203 19 24.75 19.4297 24.75 19.9375V24.3125C24.75 24.8594 24.3203 25.25 23.8125 25.25H19.4375C18.8906 25.25 18.5 24.8594 18.5 24.3125C18.5 23.8047 18.8906 23.375 19.4375 23.375H22.875V19.9375Z" fill="black" fill-opacity="0.72"/>
</g>
</svg>
