<svg width="32" height="32" viewBox="0 0 32 32" fill="none" xmlns="http://www.w3.org/2000/svg">
<g id="standalone / md / arrow-right-to-line-md / bold">
<path id="icon" d="M24.75 9.9375V23.0625C24.75 23.6094 24.3203 24 23.8125 24C23.2656 24 22.875 23.6094 22.875 23.0625V9.9375C22.875 9.42969 23.2656 9 23.8125 9C24.3203 9 24.75 9.42969 24.75 9.9375ZM19.4375 17.2031L14.125 22.2031C13.7344 22.5547 13.1484 22.5156 12.7969 22.1641C12.4453 21.7734 12.4453 21.1875 12.8359 20.8359L16.4297 17.4375H13.1875H8.1875C7.64062 17.4375 7.25 17.0469 7.25 16.5C7.25 15.9922 7.64062 15.5625 8.1875 15.5625H13.1875H16.4297L12.8359 12.2031C12.4453 11.8516 12.4453 11.2656 12.7969 10.875C13.1484 10.4844 13.7344 10.4844 14.125 10.8359L19.4375 15.8359C19.6328 16.0312 19.75 16.2656 19.75 16.5C19.75 16.7734 19.6328 17.0078 19.4375 17.2031Z" fill="black" fill-opacity="0.72"/>
</g>
</svg>
