<svg width="32" height="32" viewBox="0 0 32 32" fill="none" xmlns="http://www.w3.org/2000/svg">
<g id="standalone / md / placeholder-md / fill">
<path id="icon" d="M11 7.75H12.25V10.25H11C10.2969 10.25 9.75 10.8359 9.75 11.5V12.75H7.25V11.5C7.25 9.42969 8.92969 7.75 11 7.75ZM7.25 14H9.75V19H7.25V14ZM22.25 14H24.75V19H22.25V14ZM24.75 12.75H22.25V11.5C22.25 10.8359 21.6641 10.25 21 10.25H19.75V7.75H21C23.0703 7.75 24.75 9.42969 24.75 11.5V12.75ZM24.75 20.25V21.5C24.75 23.5703 23.0703 25.25 21 25.25H19.75V22.75H21C21.6641 22.75 22.25 22.2031 22.25 21.5V20.25H24.75ZM9.75 20.25V21.5C9.75 22.2031 10.2969 22.75 11 22.75H12.25V25.25H11C8.92969 25.25 7.25 23.5703 7.25 21.5V20.25H9.75ZM13.5 25.25V22.75H18.5V25.25H13.5ZM13.5 10.25V7.75H18.5V10.25H13.5Z" fill="black" fill-opacity="0.72"/>
</g>
</svg>
