<svg width="32" height="32" viewBox="0 0 32 32" fill="none" xmlns="http://www.w3.org/2000/svg">
<g id="standalone / md / playback-speed-md / regular">
<path id="icon" d="M24.875 16.5C24.875 21.2656 21.3203 25.2109 16.75 25.7969V24.5469C20.6172 23.9609 23.625 20.5625 23.625 16.5C23.625 12.4375 20.6172 9.07812 16.75 8.49219V7.24219C21.3203 7.82812 24.875 11.7734 24.875 16.5ZM10.6953 9.9375L9.79688 9.07812C11.0469 8.10156 12.5703 7.4375 14.25 7.24219V8.49219C12.9219 8.6875 11.7109 9.19531 10.6953 9.9375ZM8.9375 11.7344C8.15625 12.75 7.64844 13.9609 7.45312 15.25H6.20312C6.39844 13.6094 7.0625 12.0859 8.03906 10.8359L8.9375 11.7344ZM8.9375 21.3047L8.03906 22.2031C7.0625 20.9531 6.39844 19.4297 6.20312 17.75H7.45312C7.64844 19.0781 8.15625 20.2891 8.9375 21.3047ZM14.25 24.5469V25.7969C12.5703 25.6016 11.0469 24.9375 9.79688 23.9609L10.6953 23.0625C11.7109 23.8438 12.9219 24.3516 14.25 24.5469ZM13.3125 11.5781C13.5078 11.4609 13.7812 11.5 13.9766 11.6172L20.2266 15.9922C20.3828 16.1094 20.5 16.3047 20.5 16.5C20.5 16.7344 20.3828 16.9297 20.2266 17.0469L13.9766 21.4219C13.7812 21.5391 13.5078 21.5391 13.3125 21.4609C13.1172 21.3438 13 21.1094 13 20.875V12.125C13 11.8906 13.1172 11.6953 13.3125 11.5781ZM14.25 13.3359V19.7031L18.7812 16.5L14.25 13.3359Z" fill="black" fill-opacity="0.72"/>
</g>
</svg>
