<svg width="32" height="32" viewBox="0 0 32 32" fill="none" xmlns="http://www.w3.org/2000/svg">
<g id="standalone / md / message-lines-md / regular">
<path id="icon" d="M13.5 22.75V24.625L17.3281 21.7734C17.5234 21.6172 17.7969 21.5 18.0703 21.5H23.5C24.1641 21.5 24.75 20.9531 24.75 20.25V9C24.75 8.33594 24.1641 7.75 23.5 7.75H8.5C7.79688 7.75 7.25 8.33594 7.25 9V20.25C7.25 20.9531 7.79688 21.5 8.5 21.5H12.25C12.9141 21.5 13.5 22.0859 13.5 22.75ZM8.5 6.5H23.5C24.8672 6.5 26 7.63281 26 9V20.25C26 21.6562 24.8672 22.75 23.5 22.75H18.0703L13.2266 26.3828C13.0312 26.5391 12.7969 26.5391 12.5625 26.4609C12.3672 26.3438 12.25 26.1484 12.25 25.875V24V22.75H11H8.5C7.09375 22.75 6 21.6562 6 20.25V9C6 7.63281 7.09375 6.5 8.5 6.5ZM11.625 12.125H20.375C20.6875 12.125 21 12.4375 21 12.75C21 13.1016 20.6875 13.375 20.375 13.375H11.625C11.2734 13.375 11 13.1016 11 12.75C11 12.4375 11.2734 12.125 11.625 12.125ZM11.625 15.875H16.625C16.9375 15.875 17.25 16.1875 17.25 16.5C17.25 16.8516 16.9375 17.125 16.625 17.125H11.625C11.2734 17.125 11 16.8516 11 16.5C11 16.1875 11.2734 15.875 11.625 15.875Z" fill="black" fill-opacity="0.72"/>
</g>
</svg>
