<svg width="32" height="32" viewBox="0 0 32 32" fill="none" xmlns="http://www.w3.org/2000/svg">
<g id="standalone / md / eight-md / regular">
<path id="icon" d="M21.625 12.4375C21.625 14.0781 20.8047 15.4844 19.5547 16.3438C21.1172 17.0859 22.25 18.6875 22.25 20.5625C22.25 23.1797 20.1406 25.25 17.5625 25.25H14.4375C11.8203 25.25 9.75 23.1797 9.75 20.5625C9.75 18.6875 10.8438 17.0859 12.4062 16.3438C11.1562 15.4844 10.375 14.0781 10.375 12.4375C10.375 9.85938 12.4453 7.75 15.0625 7.75H16.9375C19.5156 7.75 21.625 9.85938 21.625 12.4375ZM16.9375 17.125H15.0625H15.0234H14.4375C12.5234 17.125 11 18.6875 11 20.5625C11 22.4766 12.5234 24 14.4375 24H17.5625C19.4375 24 21 22.4766 21 20.5625C21 18.6875 19.4375 17.125 17.5625 17.125H16.9375ZM16.9375 15.875C18.8125 15.875 20.375 14.3516 20.375 12.4375C20.375 10.5625 18.8125 9 16.9375 9H15.0625C13.1484 9 11.625 10.5625 11.625 12.4375C11.625 14.3516 13.1484 15.875 15.0234 15.875C15.0625 15.875 15.0625 15.875 15.0625 15.875H16.9375Z" fill="black" fill-opacity="0.72"/>
</g>
</svg>
