<svg width="32" height="32" viewBox="0 0 32 32" fill="none" xmlns="http://www.w3.org/2000/svg">
<g id="standalone / md / arrow-down-a-z-md / fill">
<path id="icon" d="M11.8984 24.8594C11.6641 25.1328 11.3516 25.25 11 25.25C10.6484 25.25 10.2969 25.1328 10.0625 24.8594L6.625 21.1094C6.15625 20.6016 6.19531 19.8203 6.70312 19.3516C7.21094 18.8828 7.99219 18.9219 8.46094 19.4297L9.75 20.7969V9C9.75 8.33594 10.2969 7.75 11 7.75C11.6641 7.75 12.25 8.33594 12.25 9V20.7969L13.5 19.4297C13.9688 18.9219 14.75 18.8828 15.2578 19.3516C15.7656 19.8203 15.8047 20.6016 15.3359 21.1094L11.8984 24.8594ZM17.25 19C17.25 18.3359 17.7969 17.75 18.5 17.75H23.5C23.9688 17.75 24.4375 18.0625 24.6328 18.5312C24.8281 19 24.7109 19.5469 24.3594 19.8984L21.5078 22.75H23.5C24.1641 22.75 24.75 23.3359 24.75 24C24.75 24.7031 24.1641 25.25 23.5 25.25H18.5C17.9922 25.25 17.5234 24.9766 17.3281 24.5078C17.1328 24.0391 17.25 23.4922 17.6016 23.1406L20.4531 20.25H18.5C17.7969 20.25 17.25 19.7031 17.25 19ZM21 7.75C21.4688 7.75 21.8984 8.02344 22.0938 8.45312L24.5938 13.4531L25.2188 14.7031C25.5312 15.3281 25.2969 16.0703 24.6719 16.3828C24.0469 16.6953 23.3047 16.4609 22.9922 15.8359L22.7188 15.25H19.2422L18.9688 15.8359C18.6562 16.4609 17.9141 16.6953 17.2891 16.3828C16.6641 16.0703 16.4297 15.3281 16.7422 14.7031L17.3672 13.4531L19.8672 8.45312C20.0625 8.02344 20.4922 7.75 21 7.75ZM20.1797 13.375H21.7812L21 11.8125L20.1797 13.375Z" fill="black" fill-opacity="0.72"/>
</g>
</svg>
