<svg width="32" height="32" viewBox="0 0 32 32" fill="none" xmlns="http://www.w3.org/2000/svg">
<g id="standalone / md / link-simple-md / regular">
<path id="icon" d="M4.75 16.5C4.75 13.0625 7.52344 10.25 11 10.25H14.125C14.4375 10.25 14.75 10.5625 14.75 10.875C14.75 11.2266 14.4375 11.5 14.125 11.5H11C8.22656 11.5 6 13.7656 6 16.5C6 19.2734 8.22656 21.5 11 21.5H14.125C14.4375 21.5 14.75 21.8125 14.75 22.125C14.75 22.4766 14.4375 22.75 14.125 22.75H11C7.52344 22.75 4.75 19.9766 4.75 16.5ZM27.25 16.5C27.25 19.9766 24.4375 22.75 21 22.75H17.875C17.5234 22.75 17.25 22.4766 17.25 22.125C17.25 21.8125 17.5234 21.5 17.875 21.5H21C23.7344 21.5 26 19.2734 26 16.5C26 13.7656 23.7344 11.5 21 11.5H17.875C17.5234 11.5 17.25 11.2266 17.25 10.875C17.25 10.5625 17.5234 10.25 17.875 10.25H21C24.4375 10.25 27.25 13.0625 27.25 16.5ZM10.6875 15.875H21.3125C21.625 15.875 21.9375 16.1875 21.9375 16.5C21.9375 16.8516 21.625 17.125 21.3125 17.125H10.6875C10.3359 17.125 10.0625 16.8516 10.0625 16.5C10.0625 16.1875 10.3359 15.875 10.6875 15.875Z" fill="black" fill-opacity="0.72"/>
</g>
</svg>
