<svg width="32" height="32" viewBox="0 0 32 32" fill="none" xmlns="http://www.w3.org/2000/svg">
<g id="standalone / md / user-slash-md / bold">
<path id="icon" d="M5.52344 6.69531L11.5 11.3828C11.5521 10.0026 12.0469 8.85677 12.9844 7.94531C13.9219 7.00781 15.0938 6.52604 16.5 6.5C17.9062 6.52604 19.0911 7.00781 20.0547 7.94531C20.9922 8.90885 21.474 10.0938 21.5 11.5C21.474 12.6719 21.1224 13.7005 20.4453 14.5859C19.7682 15.4453 18.8828 16.0312 17.7891 16.3438L28.6484 24.8203C29.0651 25.2109 29.1172 25.6536 28.8047 26.1484C28.4141 26.5651 27.9714 26.6172 27.4766 26.3047L4.35156 8.17969C3.9349 7.78906 3.88281 7.34635 4.19531 6.85156C4.58594 6.4349 5.02865 6.38281 5.52344 6.69531ZM15.3672 14.3906C15.7057 14.5469 16.0833 14.625 16.5 14.625C17.3854 14.599 18.1276 14.2995 18.7266 13.7266C19.2995 13.1276 19.599 12.3854 19.625 11.5C19.599 10.6146 19.2995 9.8724 18.7266 9.27344C18.1276 8.70052 17.3854 8.40104 16.5 8.375C15.6146 8.40104 14.8724 8.70052 14.2734 9.27344C13.7005 9.8724 13.401 10.6146 13.375 11.5C13.375 12.1771 13.5703 12.7891 13.9609 13.3359L15.3672 14.3906ZM14.3125 18.375L16.6953 20.25H14.7031C13.401 20.276 12.2943 20.6927 11.3828 21.5C10.4453 22.3073 9.8724 23.349 9.66406 24.625H22.2422L24.5078 26.4219C24.3776 26.474 24.2344 26.5 24.0781 26.5H8.92188C8.58333 26.5 8.3099 26.3828 8.10156 26.1484C7.86719 25.9401 7.75 25.6667 7.75 25.3281C7.80208 23.4271 8.4401 21.8385 9.66406 20.5625C10.888 19.2604 12.4375 18.5312 14.3125 18.375Z" fill="black" fill-opacity="0.72"/>
</g>
</svg>
