<svg width="32" height="32" viewBox="0 0 32 32" fill="none" xmlns="http://www.w3.org/2000/svg">
<g id="standalone / md / arrow-left-md / bold">
<path id="icon" d="M7.52344 17.2031C7.32812 17.0078 7.25 16.7734 7.25 16.5C7.25 16.2656 7.32812 16.0312 7.52344 15.8359L14.3984 9.27344C14.7891 8.92188 15.375 8.92188 15.7266 9.3125C16.0781 9.66406 16.0781 10.2891 15.6875 10.6406L10.4922 15.5625H23.8125C24.3203 15.5625 24.75 15.9922 24.75 16.5C24.75 17.0469 24.3203 17.4375 23.8125 17.4375H10.4922L15.6875 22.3984C16.0781 22.75 16.0781 23.3359 15.7266 23.7266C15.375 24.1172 14.7891 24.1172 14.3984 23.7656L7.52344 17.2031Z" fill="black" fill-opacity="0.72"/>
</g>
</svg>
