<svg width="32" height="32" viewBox="0 0 32 32" fill="none" xmlns="http://www.w3.org/2000/svg">
<g id="standalone / md / chart-mixed-md / bold">
<path id="icon" d="M25.6484 9.42969L19.0859 15.0547C18.7344 15.3281 18.2266 15.3281 17.875 15.0547L13.4219 11.1484L7.44531 15.0938C7.01562 15.4062 6.42969 15.2891 6.15625 14.8594C5.84375 14.4297 5.96094 13.8438 6.39062 13.5312L12.9531 9.15625C13.3047 8.92188 13.7734 8.96094 14.0859 9.23438L18.5 13.1016L24.4375 7.98438C24.8281 7.67188 25.4141 7.71094 25.7656 8.10156C26.0781 8.49219 26.0391 9.07812 25.6484 9.42969ZM13.8125 23.375V17.125C13.8125 16.9688 13.6562 16.8125 13.5 16.8125C13.3047 16.8125 13.1875 16.9688 13.1875 17.125V23.375C13.1875 23.5703 13.3047 23.6875 13.5 23.6875C13.6562 23.6875 13.8125 23.5703 13.8125 23.375ZM13.5 15.25C14.5156 15.25 15.375 16.1094 15.375 17.125V23.375C15.375 24.4297 14.5156 25.25 13.5 25.25C12.4453 25.25 11.625 24.4297 11.625 23.375V17.125C11.625 16.1094 12.4453 15.25 13.5 15.25ZM8.8125 23.375V20.875C8.8125 20.7188 8.65625 20.5625 8.5 20.5625C8.30469 20.5625 8.1875 20.7188 8.1875 20.875V23.375C8.1875 23.5703 8.30469 23.6875 8.5 23.6875C8.65625 23.6875 8.8125 23.5703 8.8125 23.375ZM8.5 19C9.51562 19 10.375 19.8594 10.375 20.875V23.375C10.375 24.4297 9.51562 25.25 8.5 25.25C7.44531 25.25 6.625 24.4297 6.625 23.375V20.875C6.625 19.8594 7.44531 19 8.5 19ZM18.8125 19.625C18.8125 19.4688 18.6562 19.3125 18.5 19.3125C18.3047 19.3125 18.1875 19.4688 18.1875 19.625V23.375C18.1875 23.5703 18.3047 23.6875 18.5 23.6875C18.6562 23.6875 18.8125 23.5703 18.8125 23.375V19.625ZM16.625 19.625C16.625 18.6094 17.4453 17.75 18.5 17.75C19.5156 17.75 20.375 18.6094 20.375 19.625V23.375C20.375 24.4297 19.5156 25.25 18.5 25.25C17.4453 25.25 16.625 24.4297 16.625 23.375V19.625ZM23.8125 23.375V17.125C23.8125 16.9688 23.6562 16.8125 23.5 16.8125C23.3047 16.8125 23.1875 16.9688 23.1875 17.125V23.375C23.1875 23.5703 23.3047 23.6875 23.5 23.6875C23.6562 23.6875 23.8125 23.5703 23.8125 23.375ZM23.5 15.25C24.5156 15.25 25.375 16.1094 25.375 17.125V23.375C25.375 24.4297 24.5156 25.25 23.5 25.25C22.4453 25.25 21.625 24.4297 21.625 23.375V17.125C21.625 16.1094 22.4453 15.25 23.5 15.25Z" fill="black" fill-opacity="0.72"/>
</g>
</svg>
