<svg width="32" height="32" viewBox="0 0 32 32" fill="none" xmlns="http://www.w3.org/2000/svg">
<g id="standalone / md / fiat-onramp-md / fill">
<path id="icon" d="M22.4453 10.6797C22.4453 10.4453 22.25 10.25 22.0156 10.25H20.375V11.1094H22.0156C22.25 11.1094 22.4453 10.9141 22.4453 10.6797ZM22.4453 12.3203C22.4453 12.125 22.25 11.9297 22.0156 11.9297H20.375V12.75H22.0156C22.25 12.75 22.4453 12.5547 22.4453 12.3203ZM12.4062 16.3438L15.8047 12.9453C15.6875 12.5547 15.6484 12.125 15.6484 11.6953C15.6484 8.84375 17.9531 6.5 20.8047 6.5C23.6562 6.5 26 8.84375 26 11.6953V23.1797C26 25.0156 24.4766 26.5 22.6406 26.5H11.1562C8.30469 26.5 6 24.1953 6 21.3438C6 18.4922 8.30469 16.1875 11.1562 16.1875C11.5859 16.1875 12.0156 16.2266 12.4062 16.3438ZM24.125 15.6797C23.2266 16.4219 22.0547 16.8516 20.8047 16.8516C19.125 16.8516 17.6016 16.0312 16.6641 14.7422L14.2031 17.2031C15.4922 18.1406 16.3125 19.6641 16.3125 21.3438C16.3125 22.5938 15.8828 23.7656 15.1406 24.625H22.6406C23.4609 24.625 24.125 23.9609 24.125 23.1797V15.6797ZM20.375 8.57031H19.5156V9.42969H18.6953V10.25H19.5156V12.75H18.6953V13.6094H19.5156V14.4297H20.375V13.6094H21.1953V14.4297H22.0156V13.6094C22.6797 13.6094 23.2656 13.0625 23.2656 12.3594C23.2656 12.0469 23.1484 11.7344 22.9141 11.5C23.3828 10.9922 23.3438 10.2109 22.8359 9.74219C22.6406 9.54688 22.3281 9.42969 22.0156 9.42969V8.57031H21.1953V9.42969H20.375V8.57031ZM11.5078 18.375H10.4531V18.8438C9.78906 19.0391 9.35938 19.6641 9.35938 20.3672C9.35938 21.2656 10.0625 22.0078 10.9609 22.0078C11.3125 22.0078 11.5859 22.2812 11.5859 22.6328C11.5859 22.9453 11.3125 23.2188 10.9609 23.2188C10.6484 23.2188 10.375 22.9453 10.375 22.6328V22.4766H9.35938V22.6328C9.35938 23.3359 9.78906 23.9609 10.4531 24.1562V24.625H11.5078V24.1562C12.1719 23.9609 12.6016 23.3359 12.6016 22.6328C12.6016 21.7344 11.8594 20.9922 10.9609 20.9922C10.6484 20.9922 10.375 20.7188 10.375 20.3672C10.375 20.0547 10.6484 19.7812 10.9609 19.7812C11.3125 19.7812 11.5859 20.0547 11.5859 20.3672V20.5234H12.6016V20.3672C12.6016 19.6641 12.1719 19.0391 11.5078 18.8438V18.375ZM9.55469 11.0703C9.55469 10.5625 9.98438 10.1328 10.4922 10.1328H14.1641C14.5547 10.1328 14.9062 10.3672 15.0234 10.7188C15.1797 11.0703 15.1016 11.4609 14.8281 11.7344L11.1953 15.3672C10.8438 15.7188 10.2578 15.7188 9.86719 15.3672C9.51562 15.0156 9.51562 14.3906 9.86719 14.0391L11.8984 12.0078H10.4922C9.98438 12.0078 9.55469 11.6172 9.55469 11.0703Z" fill="black" fill-opacity="0.72"/>
</g>
</svg>
