<svg width="32" height="32" viewBox="0 0 32 32" fill="none" xmlns="http://www.w3.org/2000/svg">
<g id="standalone / md / trash-md / fill">
<path id="icon" d="M12.5234 7.20312C12.7188 6.77344 13.1484 6.5 13.6172 6.5H18.3438C18.8125 6.5 19.2422 6.77344 19.4375 7.20312L19.75 7.75H23.5C24.1641 7.75 24.75 8.33594 24.75 9C24.75 9.70312 24.1641 10.25 23.5 10.25H8.5C7.79688 10.25 7.25 9.70312 7.25 9C7.25 8.33594 7.79688 7.75 8.5 7.75H12.25L12.5234 7.20312ZM23.5 11.5L22.6406 24.7422C22.6016 25.7578 21.7812 26.5 20.7656 26.5H11.1953C10.1797 26.5 9.35938 25.7578 9.32031 24.7422L8.5 11.5H23.5Z" fill="black" fill-opacity="0.72"/>
</g>
</svg>
