<svg width="32" height="32" viewBox="0 0 32 32" fill="none" xmlns="http://www.w3.org/2000/svg">
<g id="standalone / md / arrow-up-arrow-down-md / bold">
<path id="icon" d="M25.4141 21.2266L21.6641 24.9766C21.2734 25.3672 20.6875 25.3672 20.3359 24.9766L16.5859 21.2266C16.1953 20.875 16.1953 20.2891 16.5859 19.9375C16.9375 19.5469 17.5234 19.5469 17.9141 19.9375L20.0625 22.0859V8.6875C20.0625 8.17969 20.4531 7.75 21 7.75C21.5078 7.75 21.9375 8.17969 21.9375 8.6875V22.0859L24.0859 19.9375C24.4375 19.5469 25.0234 19.5469 25.4141 19.9375C25.7656 20.2891 25.7656 20.875 25.4141 21.2266ZM11.6641 8.02344L15.375 11.7734C15.7656 12.1641 15.7656 12.75 15.375 13.1016C15.0234 13.4922 14.4375 13.4922 14.0469 13.1016L11.8984 10.9531V24.3125C11.8984 24.8594 11.5078 25.25 10.9609 25.25C10.4531 25.25 10.0234 24.8594 10.0234 24.3125V10.9531L7.875 13.1016C7.52344 13.4922 6.9375 13.4922 6.58594 13.1016C6.19531 12.75 6.19531 12.1641 6.58594 11.7734L10.3359 8.02344C10.6875 7.67188 11.2734 7.67188 11.6641 8.02344Z" fill="black" fill-opacity="0.72"/>
</g>
</svg>
