<svg width="32" height="32" viewBox="0 0 32 32" fill="none" xmlns="http://www.w3.org/2000/svg">
<g id="standalone / md / microphone-md / fill">
<path id="icon" d="M16 6.5C18.0703 6.5 19.75 8.17969 19.75 10.25V16.5C19.75 18.5703 18.0703 20.25 16 20.25C13.9297 20.25 12.25 18.5703 12.25 16.5V10.25C12.25 8.17969 13.9297 6.5 16 6.5ZM11 14.9375V16.5C11 19.2734 13.2266 21.5 16 21.5C18.7344 21.5 21 19.2734 21 16.5V14.9375C21 14.4297 21.3906 14 21.9375 14C22.4453 14 22.875 14.4297 22.875 14.9375V16.5C22.875 20.0156 20.2578 22.8672 16.9375 23.3359V24.625H18.8125C19.3203 24.625 19.75 25.0547 19.75 25.5625C19.75 26.1094 19.3203 26.5 18.8125 26.5H16H13.1875C12.6406 26.5 12.25 26.1094 12.25 25.5625C12.25 25.0547 12.6406 24.625 13.1875 24.625H15.0625V23.3359C11.7031 22.8672 9.125 20.0156 9.125 16.5V14.9375C9.125 14.4297 9.51562 14 10.0625 14C10.5703 14 11 14.4297 11 14.9375Z" fill="black" fill-opacity="0.72"/>
</g>
</svg>
