<svg width="32" height="32" viewBox="0 0 32 32" fill="none" xmlns="http://www.w3.org/2000/svg">
<g id="standalone / md / circle-one-md / fill">
<path id="icon" d="M6 16.5C6 12.9453 7.875 9.66406 11 7.86719C14.0859 6.07031 17.875 6.07031 21 7.86719C24.0859 9.66406 26 12.9453 26 16.5C26 20.0938 24.0859 23.375 21 25.1719C17.875 26.9688 14.0859 26.9688 11 25.1719C7.875 23.375 6 20.0938 6 16.5ZM16.4688 11.6562C16.1562 11.4609 15.8047 11.4609 15.5312 11.6562L13.3438 12.9062C12.875 13.1406 12.7188 13.7266 12.9922 14.1562C13.2266 14.625 13.8125 14.7812 14.2422 14.5078L15.0625 14.0781V19.625H13.5C12.9531 19.625 12.5625 20.0547 12.5625 20.5625C12.5625 21.1094 12.9531 21.5 13.5 21.5H16H18.5C19.0078 21.5 19.4375 21.1094 19.4375 20.5625C19.4375 20.0547 19.0078 19.625 18.5 19.625H16.9375V12.4375C16.9375 12.125 16.7422 11.8125 16.4688 11.6562Z" fill="black" fill-opacity="0.72"/>
</g>
</svg>
