<svg width="32" height="32" viewBox="0 0 32 32" fill="none" xmlns="http://www.w3.org/2000/svg">
<g id="standalone / md / puzzle-piece-two-md / bold">
<path id="icon" d="M11.9375 17.3594C11.9375 17.0469 11.9375 16.7344 11.9375 16.4609V15.0156C11.7812 15.0547 11.625 15.0938 11.4688 15.0938C11.0391 15.0938 10.6484 14.8594 10.4141 14.5469C10.1797 14.2344 10.0625 13.8047 10.0625 13.375C10.0625 12.9453 10.1797 12.5156 10.4141 12.2031C10.6484 11.8906 11.0391 11.6562 11.4688 11.6562C11.625 11.6562 11.7812 11.6953 11.9375 11.7344V10.9922C11.9375 10.4062 12.4453 9.89844 13.0312 9.89844H14.3594C14.2812 9.74219 14.2422 9.58594 14.2422 9.42969C14.2422 9 14.5156 8.60938 14.8281 8.375C15.1406 8.14062 15.5312 7.98438 15.9609 7.98438C16.4297 7.98438 16.8203 8.14062 17.1328 8.375C17.4453 8.60938 17.6797 9 17.6797 9.42969C17.6797 9.58594 17.6797 9.74219 17.6016 9.89844H18.9297C19.5547 9.89844 20.0234 10.4062 20.0234 10.9922V12.0859V12.3984V12.4375V16.4609V17.3594C20.0234 17.5547 20.0234 17.8281 20.0234 18.1016V18.8828C20.1797 18.8047 20.3359 18.7656 20.4922 18.7656C20.9219 18.7656 21.3125 19.0391 21.5469 19.3516C21.7812 19.6641 21.8984 20.0547 21.8984 20.4844C21.8984 20.9531 21.7812 21.3438 21.5469 21.6562C21.3125 21.9688 20.9219 22.2031 20.4922 22.2031C20.3359 22.2031 20.1797 22.2031 20.0234 22.125V23.6094V23.9609C20.0234 24.5469 19.5156 25.0547 18.9297 25.0547H16.8984C16.5469 25.0547 16.2734 24.7812 16.2734 24.4297C16.2734 24.1953 16.3516 24.0391 16.4297 23.9219C16.5469 23.8438 16.5859 23.7656 16.5859 23.6484C16.5859 23.4922 16.3516 23.1797 15.9609 23.1797C15.5312 23.1797 15.3359 23.4922 15.3359 23.6484C15.3359 23.7656 15.3359 23.8438 15.4531 23.9219C15.5312 24.0391 15.6484 24.1953 15.6484 24.4297C15.6484 24.7812 15.3359 25.0547 14.9844 25.0547H13.0312C12.4453 25.0547 11.9375 24.3516 11.9375 23.7656V19.5469V19.1953V18.1016C11.9375 17.8281 11.9375 17.5938 11.9375 17.3594ZM16.5859 9.15625C16.4297 9.03906 16.2344 8.96094 15.9609 8.96094C15.7266 8.96094 15.5312 9.03906 15.375 9.15625C15.2578 9.23438 15.1797 9.35156 15.1797 9.42969C15.1797 9.50781 15.2578 9.625 15.4141 9.74219C15.5703 9.82031 15.6484 10.0156 15.6484 10.25C15.6484 10.5625 15.4141 10.8359 15.0625 10.8359H13.0312C12.9531 10.8359 12.875 10.9141 12.875 10.9922V12.4766C12.875 12.7891 12.6016 13.0625 12.2891 13.0625C12.0547 13.0625 11.8594 12.9453 11.7812 12.7891C11.6641 12.6328 11.5469 12.5938 11.4688 12.5938C11.3906 12.5938 11.2734 12.6328 11.1953 12.7891C11.0781 12.9062 11 13.1016 11 13.375C11 13.6094 11.0781 13.8438 11.1953 13.9609C11.2734 14.1172 11.3906 14.1562 11.4688 14.1562C11.5469 14.1562 11.6641 14.1172 11.7812 13.9609C11.8594 13.8047 12.0547 13.6875 12.2891 13.6875C12.6016 13.6875 12.8359 13.9609 12.8359 14.2734V16.8516C12.8359 16.9297 12.9531 16.9688 13.0312 17.0078H14.3594C14.2812 16.8516 14.2812 16.6953 14.2812 16.5391C14.2812 16.1094 14.5156 15.7188 14.8281 15.4844C15.1406 15.25 15.5312 15.0938 16 15.0938C16.4297 15.0938 16.8203 15.25 17.1328 15.4844C17.4453 15.7188 17.7188 16.1094 17.7188 16.5391C17.7188 16.6953 17.6797 16.8516 17.6016 17.0078H18.9297C18.9688 17.0078 18.9688 17.0078 19.0078 17.0078C19.0859 17.0078 19.0859 16.9297 19.0859 16.8516V10.9922C19.0859 10.9141 19.0469 10.8359 18.9297 10.8359H16.8984C16.5469 10.8359 16.2734 10.5625 16.2734 10.25C16.2734 10.0156 16.3906 9.82031 16.5469 9.74219C16.7031 9.625 16.7422 9.50781 16.7422 9.42969C16.7422 9.35156 16.7031 9.23438 16.5859 9.15625ZM13.0312 17.9453C12.9141 17.9453 12.8359 18.0234 12.8359 18.1016V23.9609C12.8359 24.0391 12.875 24.1172 12.9922 24.1172H14.4766C14.3984 24 14.3984 23.8438 14.3984 23.6484C14.3984 22.8281 15.1406 22.3203 15.9609 22.3203C16.7422 22.3203 17.5234 22.8281 17.5234 23.6484C17.5234 23.8438 17.4844 24 17.4062 24.1172H18.9297C19.0078 24.1172 19.0859 24.0781 19.0859 23.9609V21.3828C19.0859 21.0703 19.3594 20.7969 19.6719 20.7969C19.9062 20.7969 20.1016 20.9141 20.1797 21.0703C20.2969 21.2266 20.4141 21.2656 20.4922 21.2656C20.5703 21.2656 20.6875 21.2266 20.7656 21.0703C20.8828 20.9531 20.9609 20.7188 20.9609 20.4844C20.9609 20.2109 20.8828 20.0156 20.7656 19.8984C20.6875 19.7422 20.5703 19.7031 20.4922 19.7031C20.4141 19.7031 20.2969 19.7422 20.1797 19.8984C20.1016 20.0547 19.9062 20.1719 19.6719 20.1719C19.3594 20.1719 19.0859 19.8984 19.0859 19.5859V18.1016C19.0859 18.0234 19.0469 17.9453 18.9688 17.9453H16.9766H16.8984C16.5469 17.9453 16.3125 17.6719 16.3125 17.3594C16.3125 17.125 16.3906 16.9297 16.5469 16.8516C16.7031 16.7344 16.7812 16.6172 16.7812 16.5391C16.7812 16.4609 16.7031 16.3438 16.5859 16.2656C16.4297 16.1484 16.2344 16.0703 16 16.0703C15.7266 16.0703 15.5312 16.1484 15.375 16.2656C15.2578 16.3438 15.2188 16.4609 15.2188 16.5391C15.2188 16.6172 15.2578 16.7344 15.4141 16.8516C15.5703 16.9297 15.6875 17.125 15.6875 17.3594C15.6875 17.6719 15.4141 17.9453 15.0625 17.9453H13.0703C13.0312 17.9453 13.0312 17.9453 13.0312 17.9453Z" fill="black" fill-opacity="0.72"/>
</g>
</svg>
