<svg width="32" height="32" viewBox="0 0 32 32" fill="none" xmlns="http://www.w3.org/2000/svg">
<g id="standalone / md / five-md / bold">
<path id="icon" d="M11 8.53125C11.0781 8.10156 11.4688 7.75 11.9375 7.75H20.0625C20.5703 7.75 21 8.17969 21 8.6875C21 9.23438 20.5703 9.625 20.0625 9.625H12.7188L11.7812 14.9375H17.0938C19.9062 14.9375 22.25 17.2812 22.25 20.0938C22.25 22.9453 19.9062 25.25 17.0938 25.25H13.3438C11.9375 25.25 10.6094 24.4688 9.98438 23.1797L9.82812 22.8672C9.59375 22.3984 9.78906 21.8516 10.2578 21.6172C10.7266 21.3828 11.2734 21.5781 11.5078 22.0469L11.6641 22.3594C11.9766 22.9844 12.6406 23.375 13.3438 23.375H17.0938C18.8906 23.375 20.375 21.9297 20.375 20.0938C20.375 18.2969 18.8906 16.8125 17.0938 16.8125H10.6875C10.375 16.8125 10.1406 16.6953 9.94531 16.5C9.78906 16.2656 9.71094 15.9922 9.75 15.7188L11 8.53125Z" fill="black" fill-opacity="0.72"/>
</g>
</svg>
