<svg width="32" height="32" viewBox="0 0 32 32" fill="none" xmlns="http://www.w3.org/2000/svg">
<g id="standalone / md / memo-circle-check-md / bold">
<path id="icon" d="M7.25 8.375C6.89844 8.375 6.625 8.6875 6.625 9V24C6.625 24.3516 6.89844 24.625 7.25 24.625H15.8438C16.3125 25.3672 16.8984 25.9922 17.6016 26.5C17.4844 26.5 17.3672 26.5 17.25 26.5H7.25C5.84375 26.5 4.75 25.4062 4.75 24V9C4.75 7.63281 5.84375 6.5 7.25 6.5H17.25C18.6172 6.5 19.75 7.63281 19.75 9V14.2734C19.0469 14.4688 18.4219 14.7422 17.875 15.1328V9C17.875 8.6875 17.5625 8.375 17.25 8.375H7.25ZM9.4375 11.5H15.0625C15.5703 11.5 16 11.9297 16 12.4375C16 12.9844 15.5703 13.375 15.0625 13.375H9.4375C8.89062 13.375 8.5 12.9844 8.5 12.4375C8.5 11.9297 8.89062 11.5 9.4375 11.5ZM9.4375 15.25H15.0625C15.5703 15.25 16 15.6797 16 16.1875C16 16.7344 15.5703 17.125 15.0625 17.125H9.4375C8.89062 17.125 8.5 16.7344 8.5 16.1875C8.5 15.6797 8.89062 15.25 9.4375 15.25ZM9.4375 19H11.3125C11.8203 19 12.25 19.4297 12.25 19.9375C12.25 20.4844 11.8203 20.875 11.3125 20.875H9.4375C8.89062 20.875 8.5 20.4844 8.5 19.9375C8.5 19.4297 8.89062 19 9.4375 19ZM27.25 20.875C27.25 22.9062 26.1562 24.7422 24.4375 25.7578C22.6797 26.7734 20.5312 26.7734 18.8125 25.7578C17.0547 24.7422 16 22.9062 16 20.875C16 18.8828 17.0547 17.0469 18.8125 16.0312C20.5312 15.0156 22.6797 15.0156 24.4375 16.0312C26.1562 17.0469 27.25 18.8828 27.25 20.875ZM24.2422 19.1953C24.0078 18.9609 23.5781 18.9609 23.3438 19.1953L21 21.5781L19.8672 20.4453C19.6328 20.2109 19.2031 20.2109 18.9688 20.4453C18.7344 20.6797 18.7344 21.1094 18.9688 21.3438L20.5312 22.9062C20.7656 23.1406 21.1953 23.1406 21.4297 22.9062L24.2422 20.0938C24.4766 19.8594 24.4766 19.4297 24.2422 19.1953Z" fill="black" fill-opacity="0.72"/>
</g>
</svg>
