<svg width="32" height="32" viewBox="0 0 32 32" fill="none" xmlns="http://www.w3.org/2000/svg">
<g id="standalone / md / percent-md / fill">
<path id="icon" d="M23.1094 11.1484L10.6094 23.6484C10.1406 24.1562 9.32031 24.1562 8.85156 23.6484C8.34375 23.1797 8.34375 22.3594 8.85156 21.8906L21.3516 9.39062C21.8203 8.88281 22.6406 8.88281 23.1094 9.39062C23.6172 9.85938 23.6172 10.6797 23.1094 11.1484ZM13.5 11.5C13.5 12.3984 12.9922 13.2188 12.25 13.6875C11.4688 14.1172 10.4922 14.1172 9.75 13.6875C8.96875 13.2188 8.5 12.3984 8.5 11.5C8.5 10.6406 8.96875 9.82031 9.75 9.35156C10.4922 8.92188 11.4688 8.92188 12.25 9.35156C12.9922 9.82031 13.5 10.6406 13.5 11.5ZM23.5 21.5C23.5 22.3984 22.9922 23.2188 22.25 23.6875C21.4688 24.1172 20.4922 24.1172 19.75 23.6875C18.9688 23.2188 18.5 22.3984 18.5 21.5C18.5 20.6406 18.9688 19.8203 19.75 19.3516C20.4922 18.9219 21.4688 18.9219 22.25 19.3516C22.9922 19.8203 23.5 20.6406 23.5 21.5Z" fill="black" fill-opacity="0.72"/>
</g>
</svg>
