<svg width="32" height="32" viewBox="0 0 32 32" fill="none" xmlns="http://www.w3.org/2000/svg">
<g id="standalone / md / file-md / bold">
<path id="icon" d="M21.5 24.625C21.8125 24.625 22.125 24.3516 22.125 24V12.75H19C18.2969 12.75 17.75 12.2031 17.75 11.5V8.375H11.5C11.1484 8.375 10.875 8.6875 10.875 9V24C10.875 24.3516 11.1484 24.625 11.5 24.625H21.5ZM9 9C9 7.63281 10.0938 6.5 11.5 6.5H17.9453C18.6094 6.5 19.2344 6.77344 19.7031 7.24219L23.2578 10.7969C23.7266 11.2656 24 11.8906 24 12.5547V24C24 25.4062 22.8672 26.5 21.5 26.5H11.5C10.0938 26.5 9 25.4062 9 24V9Z" fill="black" fill-opacity="0.72"/>
</g>
</svg>
