<svg width="32" height="32" viewBox="0 0 32 32" fill="none" xmlns="http://www.w3.org/2000/svg">
<g id="standalone / md / memo-circle-check-md / regular">
<path id="icon" d="M17.25 7.75H7.25C6.54688 7.75 6 8.33594 6 9V24C6 24.7031 6.54688 25.25 7.25 25.25H16.3125C16.7031 25.7188 17.1328 26.1484 17.6016 26.5C17.4844 26.5 17.3672 26.5 17.25 26.5H7.25C5.84375 26.5 4.75 25.4062 4.75 24V9C4.75 7.63281 5.84375 6.5 7.25 6.5H17.25C18.6172 6.5 19.75 7.63281 19.75 9V14.2734C19.2812 14.3906 18.8906 14.5469 18.5 14.7812V9C18.5 8.33594 17.9141 7.75 17.25 7.75ZM7.25 12.125C7.25 11.8125 7.52344 11.5 7.875 11.5H16.625C16.9375 11.5 17.25 11.8125 17.25 12.125C17.25 12.4766 16.9375 12.75 16.625 12.75H7.875C7.52344 12.75 7.25 12.4766 7.25 12.125ZM7.875 15.25H15.375C15.6875 15.25 16 15.5625 16 15.875C16 16.2266 15.6875 16.5 15.375 16.5H7.875C7.52344 16.5 7.25 16.2266 7.25 15.875C7.25 15.5625 7.52344 15.25 7.875 15.25ZM7.875 19H12.875C13.1875 19 13.5 19.3125 13.5 19.625C13.5 19.9766 13.1875 20.25 12.875 20.25H7.875C7.52344 20.25 7.25 19.9766 7.25 19.625C7.25 19.3125 7.52344 19 7.875 19ZM21.625 25.25C23.1875 25.25 24.5938 24.4297 25.375 23.0625C26.1953 21.7344 26.1953 20.0547 25.375 18.6875C24.5938 17.3594 23.1875 16.5 21.625 16.5C20.0234 16.5 18.6172 17.3594 17.8359 18.6875C17.0156 20.0547 17.0156 21.7344 17.8359 23.0625C18.6172 24.4297 20.0234 25.25 21.625 25.25ZM21.625 15.25C23.6172 15.25 25.4531 16.3438 26.4688 18.0625C27.4844 19.8203 27.4844 21.9688 26.4688 23.6875C25.4531 25.4453 23.6172 26.5 21.625 26.5C19.5938 26.5 17.7578 25.4453 16.7422 23.6875C15.7266 21.9688 15.7266 19.8203 16.7422 18.0625C17.7578 16.3438 19.5938 15.25 21.625 15.25ZM23.3438 19.1953C23.5781 18.9609 24.0078 18.9609 24.2422 19.1953C24.4766 19.4297 24.4766 19.8594 24.2422 20.0938L21.4297 22.9062C21.1953 23.1406 20.7656 23.1406 20.5312 22.9062L18.9688 21.3438C18.7344 21.1094 18.7344 20.6797 18.9688 20.4453C19.2031 20.2109 19.6328 20.2109 19.8672 20.4453L21 21.5781L23.3438 19.1953Z" fill="black" fill-opacity="0.72"/>
</g>
</svg>
