<svg width="32" height="32" viewBox="0 0 32 32" fill="none" xmlns="http://www.w3.org/2000/svg">
<g id="standalone / md / ellipsis-vertical-md / bold">
<path id="icon" d="M16 20.875C16.6641 20.875 17.25 21.2656 17.6016 21.8125C17.9531 22.3984 17.9531 23.1406 17.6016 23.6875C17.25 24.2734 16.6641 24.625 16 24.625C15.2969 24.625 14.7109 24.2734 14.3594 23.6875C14.0078 23.1406 14.0078 22.3984 14.3594 21.8125C14.7109 21.2656 15.2969 20.875 16 20.875ZM16 14.625C16.6641 14.625 17.25 15.0156 17.6016 15.5625C17.9531 16.1484 17.9531 16.8906 17.6016 17.4375C17.25 18.0234 16.6641 18.375 16 18.375C15.2969 18.375 14.7109 18.0234 14.3594 17.4375C14.0078 16.8906 14.0078 16.1484 14.3594 15.5625C14.7109 15.0156 15.2969 14.625 16 14.625ZM17.875 10.25C17.875 10.9531 17.4844 11.5391 16.9375 11.8906C16.3516 12.2422 15.6094 12.2422 15.0625 11.8906C14.4766 11.5391 14.125 10.9531 14.125 10.25C14.125 9.58594 14.4766 9 15.0625 8.64844C15.6094 8.29688 16.3516 8.29688 16.9375 8.64844C17.4844 9 17.875 9.58594 17.875 10.25Z" fill="black" fill-opacity="0.72"/>
</g>
</svg>
