<svg width="32" height="32" viewBox="0 0 32 32" fill="none" xmlns="http://www.w3.org/2000/svg">
<g id="standalone / md / three-md / regular">
<path id="icon" d="M9.75 8.375C9.75 8.0625 10.0234 7.75 10.375 7.75H21C21.2344 7.75 21.4688 7.90625 21.5469 8.17969C21.6641 8.41406 21.5859 8.6875 21.3906 8.84375L14.4375 15.25H17.25C19.9844 15.25 22.25 17.5156 22.25 20.25C22.25 23.0234 19.9844 25.25 17.25 25.25H13.2266C11.8203 25.25 10.4922 24.4688 9.86719 23.1797L9.78906 23.0625C9.63281 22.75 9.75 22.3594 10.0625 22.2031C10.375 22.0469 10.7656 22.1641 10.9219 22.4766L11 22.6328C11.4297 23.4922 12.2891 24 13.2266 24H17.25C19.3203 24 21 22.3203 21 20.25C21 18.1797 19.3203 16.5 17.25 16.5H12.875C12.6016 16.5 12.3672 16.3438 12.2891 16.1094C12.1719 15.875 12.25 15.6016 12.4453 15.4453L19.3984 9H10.375C10.0234 9 9.75 8.72656 9.75 8.375Z" fill="black" fill-opacity="0.72"/>
</g>
</svg>
