<svg width="32" height="32" viewBox="0 0 32 32" fill="none" xmlns="http://www.w3.org/2000/svg">
<g id="standalone / md / user-check-md / fill">
<path id="icon" d="M7.25 11.5C7.25 9.74219 8.1875 8.10156 9.75 7.20312C11.2734 6.30469 13.1875 6.30469 14.75 7.20312C16.2734 8.10156 17.25 9.74219 17.25 11.5C17.25 13.2969 16.2734 14.9375 14.75 15.8359C13.1875 16.7344 11.2734 16.7344 9.75 15.8359C8.1875 14.9375 7.25 13.2969 7.25 11.5ZM3.5 25.3672C3.5 21.5 6.58594 18.375 10.4531 18.375H14.0078C17.875 18.375 21 21.5 21 25.3672C21 25.9922 20.4531 26.5 19.8281 26.5H4.63281C4.00781 26.5 3.5 25.9922 3.5 25.3672ZM27.9141 13.4141L22.9141 18.4141C22.5234 18.8047 21.9375 18.8047 21.5859 18.4141L19.0859 15.9141C18.6953 15.5625 18.6953 14.9766 19.0859 14.625C19.4375 14.2344 20.0234 14.2344 20.4141 14.625L22.25 16.4609L26.5859 12.0859C26.9375 11.7344 27.5234 11.7344 27.875 12.0859C28.2656 12.4766 28.2656 13.0625 27.875 13.4141H27.9141Z" fill="black" fill-opacity="0.72"/>
</g>
</svg>
