<svg width="32" height="32" viewBox="0 0 32 32" fill="none" xmlns="http://www.w3.org/2000/svg">
<g id="standalone / md / circle-chevron-left-md / bold">
<path id="icon" d="M7.875 16.5C7.875 19.4297 9.39844 22.0859 11.9375 23.5703C14.4375 25.0156 17.5234 25.0156 20.0625 23.5703C22.5625 22.0859 24.125 19.4297 24.125 16.5C24.125 13.6094 22.5625 10.9531 20.0625 9.46875C17.5234 8.02344 14.4375 8.02344 11.9375 9.46875C9.39844 10.9531 7.875 13.6094 7.875 16.5ZM26 16.5C26 20.0938 24.0859 23.375 21 25.1719C17.875 26.9688 14.0859 26.9688 11 25.1719C7.875 23.375 6 20.0938 6 16.5C6 12.9453 7.875 9.66406 11 7.86719C14.0859 6.07031 17.875 6.07031 21 7.86719C24.0859 9.66406 26 12.9453 26 16.5ZM16.5859 11.7734V11.8125C16.9375 11.4219 17.5234 11.4219 17.875 11.8125C18.2656 12.1641 18.2656 12.75 17.875 13.1406L14.4766 16.5391L17.875 19.9375C18.2656 20.2891 18.2656 20.875 17.875 21.2266C17.5234 21.6172 16.9375 21.6172 16.5859 21.2266L12.5234 17.1641C12.1328 16.8125 12.1328 16.2266 12.5234 15.8359L16.5859 11.7734Z" fill="black" fill-opacity="0.72"/>
</g>
</svg>
