<svg width="32" height="32" viewBox="0 0 32 32" fill="none" xmlns="http://www.w3.org/2000/svg">
<g id="standalone / md / user-md / bold">
<path id="icon" d="M19.125 11.5C19.125 10.4062 18.5 9.39062 17.5625 8.80469C16.5859 8.25781 15.375 8.25781 14.4375 8.80469C13.4609 9.39062 12.875 10.4062 12.875 11.5C12.875 12.6328 13.4609 13.6484 14.4375 14.2344C15.375 14.7812 16.5859 14.7812 17.5625 14.2344C18.5 13.6484 19.125 12.6328 19.125 11.5ZM11 11.5C11 9.74219 11.9375 8.10156 13.5 7.20312C15.0234 6.30469 16.9375 6.30469 18.5 7.20312C20.0234 8.10156 21 9.74219 21 11.5C21 13.2969 20.0234 14.9375 18.5 15.8359C16.9375 16.7344 15.0234 16.7344 13.5 15.8359C11.9375 14.9375 11 13.2969 11 11.5ZM9.16406 24.625H22.7969C22.4453 22.1641 20.3359 20.25 17.7578 20.25H14.2031C11.625 20.25 9.51562 22.1641 9.16406 24.625ZM7.25 25.3672C7.25 21.5 10.3359 18.375 14.2031 18.375H17.7578C21.625 18.375 24.75 21.5 24.75 25.3672C24.75 25.9922 24.2031 26.5 23.5781 26.5H8.38281C7.75781 26.5 7.25 25.9922 7.25 25.3672Z" fill="black" fill-opacity="0.72"/>
</g>
</svg>
