<svg width="32" height="32" viewBox="0 0 32 32" fill="none" xmlns="http://www.w3.org/2000/svg">
<g id="standalone / md / share-from-square-md / regular">
<path id="icon" d="M20.375 17.4375C20.375 17.6328 20.4922 17.75 20.6875 17.75C20.7656 17.75 20.8438 17.75 20.8828 17.6719L25.9219 12.9062C25.9609 12.8672 25.9609 12.8281 25.9609 12.75C25.9609 12.7109 25.9609 12.6719 25.9219 12.6328L20.8828 7.86719C20.8438 7.78906 20.7656 7.75 20.6875 7.75C20.4922 7.75 20.375 7.90625 20.375 8.0625V9.625V10.25C20.375 10.6016 20.0625 10.875 19.75 10.875H19.125H17.875H16C13.2266 10.875 11 13.1406 11 15.875C11 17.2812 11.5859 18.2969 12.2891 19.0391C12.25 18.8438 12.25 18.6484 12.25 18.4531C12.25 16.3438 13.9297 14.625 16.0391 14.625H17.875H18.5H19.125H19.75C20.0625 14.625 20.375 14.9375 20.375 15.25V15.875V17.4375ZM19.125 15.875H18.5H17.875H16.0391C14.6328 15.875 13.5 17.0469 13.5 18.4531C13.5 19.0391 14.0469 19.6641 14.3984 20.0156C14.5938 20.1719 14.75 20.4062 14.75 20.6797V20.7188C14.75 21.1484 14.3594 21.5 13.9297 21.5C13.8516 21.5 13.7344 21.5 13.6562 21.4609C12.9531 21.1484 9.75 19.5469 9.75 15.875C9.75 12.4375 12.5234 9.625 16 9.625H17.875H19.125V8.375V8.0625C19.125 7.20312 19.8281 6.5 20.6875 6.5C21.0781 6.5 21.4688 6.65625 21.7422 6.92969L26.7812 11.6953C27.0547 11.9688 27.25 12.3594 27.25 12.75C27.25 13.1797 27.0547 13.5312 26.7812 13.8047L21.7422 18.5703C21.4688 18.8828 21.0781 19 20.6875 19C19.8281 19 19.125 18.3359 19.125 17.4375V17.125V15.875ZM7.25 7.75H9.125C9.4375 7.75 9.75 8.0625 9.75 8.375C9.75 8.72656 9.4375 9 9.125 9H7.25C6.54688 9 6 9.58594 6 10.25V24C6 24.7031 6.54688 25.25 7.25 25.25H21C21.6641 25.25 22.25 24.7031 22.25 24V22.125C22.25 21.8125 22.5234 21.5 22.875 21.5C23.1875 21.5 23.5 21.8125 23.5 22.125V24C23.5 25.4062 22.3672 26.5 21 26.5H7.25C5.84375 26.5 4.75 25.4062 4.75 24V10.25C4.75 8.88281 5.84375 7.75 7.25 7.75Z" fill="black" fill-opacity="0.72"/>
</g>
</svg>
