<svg width="32" height="32" viewBox="0 0 32 32" fill="none" xmlns="http://www.w3.org/2000/svg">
<g id="standalone / md / square-list-md / regular">
<path id="icon" d="M9.75 9C9.04688 9 8.5 9.58594 8.5 10.25V22.75C8.5 23.4531 9.04688 24 9.75 24H22.25C22.9141 24 23.5 23.4531 23.5 22.75V10.25C23.5 9.58594 22.9141 9 22.25 9H9.75ZM7.25 10.25C7.25 8.88281 8.34375 7.75 9.75 7.75H22.25C23.6172 7.75 24.75 8.88281 24.75 10.25V22.75C24.75 24.1562 23.6172 25.25 22.25 25.25H9.75C8.34375 25.25 7.25 24.1562 7.25 22.75V10.25ZM11.3125 12.75C11.3125 12.2422 11.7031 11.8125 12.25 11.8125C12.7578 11.8125 13.1875 12.2422 13.1875 12.75C13.1875 13.2969 12.7578 13.6875 12.25 13.6875C11.7031 13.6875 11.3125 13.2969 11.3125 12.75ZM14.75 12.75C14.75 12.4375 15.0234 12.125 15.375 12.125H20.375C20.6875 12.125 21 12.4375 21 12.75C21 13.1016 20.6875 13.375 20.375 13.375H15.375C15.0234 13.375 14.75 13.1016 14.75 12.75ZM14.75 16.5C14.75 16.1875 15.0234 15.875 15.375 15.875H20.375C20.6875 15.875 21 16.1875 21 16.5C21 16.8516 20.6875 17.125 20.375 17.125H15.375C15.0234 17.125 14.75 16.8516 14.75 16.5ZM14.75 20.25C14.75 19.9375 15.0234 19.625 15.375 19.625H20.375C20.6875 19.625 21 19.9375 21 20.25C21 20.6016 20.6875 20.875 20.375 20.875H15.375C15.0234 20.875 14.75 20.6016 14.75 20.25ZM12.25 17.4375C11.7031 17.4375 11.3125 17.0469 11.3125 16.5C11.3125 15.9922 11.7031 15.5625 12.25 15.5625C12.7578 15.5625 13.1875 15.9922 13.1875 16.5C13.1875 17.0469 12.7578 17.4375 12.25 17.4375ZM11.3125 20.25C11.3125 19.7422 11.7031 19.3125 12.25 19.3125C12.7578 19.3125 13.1875 19.7422 13.1875 20.25C13.1875 20.7969 12.7578 21.1875 12.25 21.1875C11.7031 21.1875 11.3125 20.7969 11.3125 20.25Z" fill="black" fill-opacity="0.72"/>
</g>
</svg>
