<svg width="32" height="32" viewBox="0 0 32 32" fill="none" xmlns="http://www.w3.org/2000/svg">
<g id="standalone / md / circle-chevron-right-md / regular">
<path id="icon" d="M24.75 16.5C24.75 13.375 23.0703 10.5234 20.375 8.96094C17.6406 7.35938 14.3203 7.35938 11.625 8.96094C8.89062 10.5234 7.25 13.375 7.25 16.5C7.25 19.6641 8.89062 22.5156 11.625 24.0781C14.3203 25.6797 17.6406 25.6797 20.375 24.0781C23.0703 22.5156 24.75 19.6641 24.75 16.5ZM6 16.5C6 12.9453 7.875 9.66406 11 7.86719C14.0859 6.07031 17.875 6.07031 21 7.86719C24.0859 9.66406 26 12.9453 26 16.5C26 20.0938 24.0859 23.375 21 25.1719C17.875 26.9688 14.0859 26.9688 11 25.1719C7.875 23.375 6 20.0938 6 16.5ZM15.1797 21.3438C14.9453 21.5781 14.5156 21.5781 14.2812 21.3438C14.0469 21.1094 14.0469 20.6797 14.2812 20.4453L18.2266 16.5L14.2812 12.5938C14.0469 12.3594 14.0469 11.9297 14.2812 11.6953C14.5156 11.4609 14.9453 11.4609 15.1797 11.6953L19.5547 16.0703C19.7891 16.3047 19.7891 16.7344 19.5547 16.9688L15.1797 21.3438Z" fill="black" fill-opacity="0.72"/>
</g>
</svg>
