<svg width="32" height="32" viewBox="0 0 32 32" fill="none" xmlns="http://www.w3.org/2000/svg">
<g id="standalone / md / circle-arrow-up-right-md / bold">
<path id="icon" d="M16 24.625C18.8906 24.625 21.5469 23.1016 23.0312 20.5625C24.4766 18.0625 24.4766 14.9766 23.0312 12.4375C21.5469 9.9375 18.8906 8.375 16 8.375C13.0703 8.375 10.4141 9.9375 8.92969 12.4375C7.48438 14.9766 7.48438 18.0625 8.92969 20.5625C10.4141 23.1016 13.0703 24.625 16 24.625ZM16 6.5C19.5547 6.5 22.8359 8.41406 24.6328 11.5C26.4297 14.625 26.4297 18.4141 24.6328 21.5C22.8359 24.625 19.5547 26.5 16 26.5C12.4062 26.5 9.125 24.625 7.32812 21.5C5.53125 18.4141 5.53125 14.625 7.32812 11.5C9.125 8.41406 12.4062 6.5 16 6.5ZM13.5 12.125H19.4375C19.9453 12.125 20.375 12.5547 20.375 13.0625V19.3125C20.375 19.8594 19.9453 20.25 19.4375 20.25C18.8906 20.25 18.5 19.8594 18.5 19.3125V15.3281L13.2266 20.6016C12.8359 20.9922 12.25 20.9922 11.8984 20.6016C11.5078 20.25 11.5078 19.6641 11.8984 19.3125L17.1719 14.0391H13.5C12.9531 14.0391 12.5625 13.6094 12.5625 13.1016C12.5625 12.5547 12.9531 12.1641 13.5 12.1641V12.125Z" fill="black" fill-opacity="0.72"/>
</g>
</svg>
