<svg width="32" height="32" viewBox="0 0 32 32" fill="none" xmlns="http://www.w3.org/2000/svg">
<g id="standalone / md / eye-md / bold">
<path id="icon" d="M16 9.625C13.4219 9.625 11.3516 10.7969 9.75 12.2812C8.22656 13.6875 7.21094 15.3281 6.66406 16.5C7.21094 17.6719 8.22656 19.3516 9.75 20.7578C11.3516 22.2422 13.4219 23.375 16 23.375C18.5391 23.375 20.6094 22.2422 22.2109 20.7578C23.7344 19.3516 24.7891 17.6719 25.2969 16.5C24.7891 15.3281 23.7344 13.6875 22.25 12.2812C20.6094 10.7969 18.5391 9.625 16 9.625ZM8.46094 10.9141C10.2969 9.19531 12.8359 7.75 16 7.75C19.125 7.75 21.6641 9.19531 23.5 10.9141C25.3359 12.6328 26.5469 14.625 27.1328 16.0312C27.25 16.3438 27.25 16.6953 27.1328 17.0078C26.5469 18.375 25.3359 20.4062 23.5 22.125C21.6641 23.8438 19.125 25.25 16 25.25C12.8359 25.25 10.2969 23.8438 8.46094 22.125C6.625 20.4062 5.41406 18.375 4.82812 17.0078C4.71094 16.6953 4.71094 16.3438 4.82812 16.0312C5.41406 14.625 6.625 12.5938 8.46094 10.9141ZM16 19.625C17.7188 19.625 19.125 18.2578 19.125 16.5C19.125 14.7812 17.7188 13.375 16 13.375C15.9609 13.375 15.9219 13.375 15.9219 13.375C15.9609 13.6094 16 13.8047 16 14C16 15.4062 14.8672 16.5 13.5 16.5C13.2656 16.5 13.0703 16.5 12.875 16.4219C12.875 16.4609 12.875 16.5 12.875 16.5C12.875 18.2578 14.2422 19.625 16 19.625ZM16 11.5C17.7578 11.5 19.3984 12.4766 20.2969 14C21.1953 15.5625 21.1953 17.4766 20.2969 19C19.3984 20.5625 17.7578 21.5 16 21.5C14.2031 21.5 12.5625 20.5625 11.6641 19C10.7656 17.4766 10.7656 15.5625 11.6641 14C12.5625 12.4766 14.2031 11.5 16 11.5Z" fill="black" fill-opacity="0.72"/>
</g>
</svg>
