<svg width="32" height="32" viewBox="0 0 32 32" fill="none" xmlns="http://www.w3.org/2000/svg">
<g id="standalone / md / briefcase-md / fill">
<path id="icon" d="M13.1875 8.375C12.9922 8.375 12.875 8.53125 12.875 8.6875V10.25H19.125V8.6875C19.125 8.53125 18.9688 8.375 18.8125 8.375H13.1875ZM11 8.6875C11 7.51562 11.9766 6.5 13.1875 6.5H18.8125C19.9844 6.5 21 7.51562 21 8.6875V10.25H23.5C24.8672 10.25 26 11.3828 26 12.75V16.5H18.5H13.5H6V12.75C6 11.3828 7.09375 10.25 8.5 10.25H11V8.6875ZM26 17.75V22.75C26 24.1562 24.8672 25.25 23.5 25.25H8.5C7.09375 25.25 6 24.1562 6 22.75V17.75H13.5V19C13.5 19.7031 14.0469 20.25 14.75 20.25H17.25C17.9141 20.25 18.5 19.7031 18.5 19V17.75H26Z" fill="black" fill-opacity="0.72"/>
</g>
</svg>
