<svg width="32" height="32" viewBox="0 0 32 32" fill="none" xmlns="http://www.w3.org/2000/svg">
<g id="standalone / md / face-viewfinder-md / regular">
<path id="icon" d="M7.875 6.5H11.625C11.9375 6.5 12.25 6.8125 12.25 7.125C12.25 7.47656 11.9375 7.75 11.625 7.75H7.875C7.52344 7.75 7.25 8.0625 7.25 8.375V12.125C7.25 12.4766 6.9375 12.75 6.625 12.75C6.27344 12.75 6 12.4766 6 12.125V8.375C6 7.35938 6.82031 6.5 7.875 6.5ZM24.125 6.5C25.1406 6.5 26 7.35938 26 8.375V12.125C26 12.4766 25.6875 12.75 25.375 12.75C25.0234 12.75 24.75 12.4766 24.75 12.125V8.375C24.75 8.0625 24.4375 7.75 24.125 7.75H20.375C20.0234 7.75 19.75 7.47656 19.75 7.125C19.75 6.8125 20.0234 6.5 20.375 6.5H24.125ZM6 24.625V20.875C6 20.5625 6.27344 20.25 6.625 20.25C6.9375 20.25 7.25 20.5625 7.25 20.875V24.625C7.25 24.9766 7.52344 25.25 7.875 25.25H11.625C11.9375 25.25 12.25 25.5625 12.25 25.875C12.25 26.2266 11.9375 26.5 11.625 26.5H7.875C6.82031 26.5 6 25.6797 6 24.625ZM24.125 26.5H20.375C20.0234 26.5 19.75 26.2266 19.75 25.875C19.75 25.5625 20.0234 25.25 20.375 25.25H24.125C24.4375 25.25 24.75 24.9766 24.75 24.625V20.875C24.75 20.5625 25.0234 20.25 25.375 20.25C25.6875 20.25 26 20.5625 26 20.875V24.625C26 25.6797 25.1406 26.5 24.125 26.5ZM15.375 14.9375C15.375 15.4844 14.9453 15.875 14.4375 15.875C13.8906 15.875 13.5 15.4844 13.5 14.9375C13.5 14.4297 13.8906 14 14.4375 14C14.9453 14 15.375 14.4297 15.375 14.9375ZM17.5625 15.875C17.0156 15.875 16.625 15.4844 16.625 14.9375C16.625 14.4297 17.0156 14 17.5625 14C18.0703 14 18.5 14.4297 18.5 14.9375C18.5 15.4844 18.0703 15.875 17.5625 15.875ZM16 11.5C14.2031 11.5 12.5625 12.4766 11.6641 14C10.7656 15.5625 10.7656 17.4766 11.6641 19C12.5625 20.5625 14.2031 21.5 16 21.5C17.7578 21.5 19.3984 20.5625 20.2969 19C21.1953 17.4766 21.1953 15.5625 20.2969 14C19.3984 12.4766 17.7578 11.5 16 11.5ZM16 22.75C13.7344 22.75 11.7031 21.5781 10.5703 19.625C9.4375 17.7109 9.4375 15.3281 10.5703 13.375C11.7031 11.4609 13.7344 10.25 16 10.25C18.2266 10.25 20.2578 11.4609 21.3906 13.375C22.5234 15.3281 22.5234 17.7109 21.3906 19.625C20.2578 21.5781 18.2266 22.75 16 22.75ZM14.3594 17.4375C14.6719 18.0234 15.2969 18.375 16 18.375C16.6641 18.375 17.2891 18.0234 17.6016 17.4375C17.7969 17.1641 18.1484 17.0469 18.4609 17.2422C18.7734 17.3984 18.8516 17.7891 18.6953 18.1016C18.1484 19 17.1328 19.6641 16 19.6641C14.8281 19.6641 13.8125 19 13.2656 18.1016C13.1094 17.7891 13.1875 17.3984 13.5 17.2422C13.8125 17.0469 14.2031 17.1641 14.3594 17.4375Z" fill="black" fill-opacity="0.72"/>
</g>
</svg>
