<svg width="32" height="32" viewBox="0 0 32 32" fill="none" xmlns="http://www.w3.org/2000/svg">
<g id="standalone / md / circle-arrow-down-right-md / fill">
<path id="icon" d="M16 6.5C19.5547 6.5 22.8359 8.41406 24.6328 11.5C26.4297 14.625 26.4297 18.4141 24.6328 21.5C22.8359 24.625 19.5547 26.5 16 26.5C12.4062 26.5 9.125 24.625 7.32812 21.5C5.53125 18.4141 5.53125 14.625 7.32812 11.5C9.125 8.41406 12.4062 6.5 16 6.5ZM13.5 20.875H19.3984C19.9453 20.875 20.3359 20.4844 20.3359 19.9375V13.6875C20.3359 13.1797 19.9453 12.75 19.3984 12.75C18.8906 12.75 18.4609 13.1797 18.4609 13.6875V17.7109L13.1875 12.4375C12.8359 12.0469 12.25 12.0469 11.8984 12.4375C11.5078 12.7891 11.5078 13.375 11.8984 13.7266L17.1719 19H13.5C12.9531 19 12.5625 19.4297 12.5625 19.9375C12.5625 20.4844 12.9531 20.875 13.5 20.875Z" fill="black" fill-opacity="0.72"/>
</g>
</svg>
