<svg width="32" height="32" viewBox="0 0 32 32" fill="none" xmlns="http://www.w3.org/2000/svg">
<g id="standalone / md / thumbs-down-md / regular">
<path id="icon" d="M17.25 23.3359C17.4062 23.8438 17.9141 24.1172 18.4219 24C18.9297 23.8438 19.2031 23.3359 19.0859 22.8281L18.8906 22.2031C18.6953 21.3828 18.3438 20.6406 17.9141 19.9766C17.7969 19.7812 17.7969 19.5469 17.9141 19.3516C18.0312 19.1172 18.2266 19 18.4609 19H23.5C24.1641 19 24.75 18.4531 24.75 17.75C24.75 17.3203 24.5156 16.9297 24.1641 16.6953C23.8906 16.5391 23.7734 16.1484 23.9297 15.875C24.0469 15.6797 24.125 15.4844 24.125 15.25C24.125 14.7812 23.8516 14.3516 23.4219 14.1562C23.2656 14.0781 23.1484 13.9219 23.1094 13.7266C23.0703 13.5312 23.1094 13.375 23.2266 13.2188C23.3828 12.9844 23.5 12.75 23.5 12.4375C23.5 11.8906 23.1094 11.4219 22.6406 11.2656C22.3281 11.1484 22.1328 10.8359 22.2109 10.5234C22.2109 10.4453 22.25 10.3672 22.25 10.25C22.25 9.58594 21.6641 9 21 9H17.4844C16.8594 9 16.2734 9.19531 15.7656 9.54688L14.2422 10.5625C13.8906 10.7969 13.6172 11.0703 13.3828 11.4219C13.1875 11.7344 12.7969 11.8125 12.5234 11.6172C12.2109 11.4219 12.1328 11.0312 12.3281 10.7578C12.6406 10.25 13.0703 9.82031 13.5391 9.50781L15.0625 8.49219C15.7656 8.02344 16.625 7.75 17.4844 7.75H21C22.3672 7.75 23.5 8.88281 23.5 10.25V10.2891C24.2422 10.7188 24.75 11.5391 24.75 12.4375C24.75 12.7891 24.6719 13.1406 24.5547 13.4141C25.0234 13.8828 25.375 14.5469 25.375 15.25C25.375 15.5234 25.3359 15.7578 25.2578 15.9922C25.6875 16.4609 26 17.0859 26 17.75C26 19.1562 24.8672 20.25 23.5 20.25H19.5156C19.75 20.7969 19.9453 21.3047 20.1016 21.8516L20.2969 22.5156C20.6094 23.6875 19.9062 24.8594 18.7344 25.2109C17.5625 25.5234 16.3906 24.8203 16.0391 23.6484L15.8828 23.0234C15.5312 21.7344 14.7109 20.6406 13.6172 19.9375L13.5 19.8594L13.8125 19.3516L13.5 19.8594C13.0312 19.5469 12.6406 19.1953 12.3281 18.7656C12.1328 18.4531 12.2109 18.0625 12.4844 17.8672C12.7578 17.6719 13.1484 17.75 13.3438 18.0234C13.5781 18.3359 13.8516 18.6094 14.1641 18.8047L14.2812 18.8828C15.6484 19.7422 16.6641 21.1094 17.0938 22.6719L17.25 23.3359ZM7.25 20.25H9.75V11.5H7.25V20.25ZM6 20.25V11.5C6 10.8359 6.54688 10.25 7.25 10.25H9.75C10.4141 10.25 11 10.8359 11 11.5V20.25C11 20.9531 10.4141 21.5 9.75 21.5H7.25C6.54688 21.5 6 20.9531 6 20.25Z" fill="black" fill-opacity="0.72"/>
</g>
</svg>
