<svg width="32" height="32" viewBox="0 0 32 32" fill="none" xmlns="http://www.w3.org/2000/svg">
<g id="standalone / md / deriv-brand-logo-md / fill">
<path id="icon" d="M20.1094 21.4219L20.0703 21.6172C19.6016 23.5703 17.7656 25.1328 15.7734 25.25H15.5781H12.9609H12.6875C9.91406 25.0938 8.07812 22.7891 8.58594 19.9766L8.82031 18.7266C9.32812 15.9141 11.9453 13.5703 14.7578 13.4531L15.0312 13.4141H18.1562L19.0938 8.33594L22.4922 7.75L20.1094 21.4219ZM14.6406 16.5781C13.3906 16.6953 12.2969 17.75 12.0625 18.9609L11.9453 19.7422C11.7109 21.0312 12.5703 22.125 13.8984 22.125H15.5C16.125 22.125 16.7109 21.5781 16.8672 20.9531L17.6094 16.5781H14.875H14.6406Z" fill="black" fill-opacity="0.72"/>
</g>
</svg>
