<svg width="32" height="32" viewBox="0 0 32 32" fill="none" xmlns="http://www.w3.org/2000/svg">
<g id="standalone / md / app-store-ios-md">
<path id="icon" d="M22.875 7.75C23.8906 7.75 24.75 8.60938 24.75 9.625V23.375C24.75 24.4297 23.8906 25.25 22.875 25.25H9.125C8.07031 25.25 7.25 24.4297 7.25 23.375V9.625C7.25 8.60938 8.07031 7.75 9.125 7.75H22.875ZM12.2109 21.5391L12.9531 20.25C12.5625 19.7422 12.0156 19.5859 11.3906 19.7812L10.8438 20.7578C10.6094 21.1094 10.7656 21.6172 11.1172 21.8125C11.5078 22.0469 11.9766 21.9297 12.2109 21.5391ZM17.6016 19.4297C17.9531 18.8047 17.5234 17.8672 16.7422 17.8672H14.3203L17.6406 12.0469C17.875 11.6953 17.7578 11.2266 17.3672 10.9922C17.0156 10.7969 16.5078 10.9141 16.3125 11.2656L15.9609 11.8906L15.6094 11.2656C15.4141 10.9141 14.9062 10.7969 14.5547 10.9922C14.1641 11.2266 14.0469 11.6953 14.2422 12.0469L15.0625 13.4531L12.5234 17.8672H10.5312C10.1016 17.8672 9.75 18.2188 9.75 18.6484C9.75 19.0781 10.1016 19.4297 10.5312 19.4297H17.6016ZM21.4688 19.4297C21.8984 19.4297 22.25 19.0781 22.25 18.6484C22.25 18.2188 21.8984 17.8672 21.4688 17.8672H19.4375C18.3828 16.1094 17.6406 14.7812 17.1328 13.8828C16.6641 14.2734 16.1953 15.4062 16.8594 16.5391C17.4844 17.6328 18.4609 19.3125 19.75 21.5391C19.9453 21.8906 20.4141 22.0469 20.8047 21.8125C21.1562 21.6172 21.3125 21.1484 21.0781 20.7578L20.3359 19.4297H21.4688Z" fill="black" fill-opacity="0.72"/>
</g>
</svg>
