<svg width="32" height="32" viewBox="0 0 32 32" fill="none" xmlns="http://www.w3.org/2000/svg">
<g id="standalone / md / search-md / fill">
<path id="icon" d="M22.25 14.625C22.25 16.4219 21.6641 18.1016 20.6875 19.4297L25.6094 24.3906C26.1172 24.8594 26.1172 25.6797 25.6094 26.1484C25.1406 26.6562 24.3203 26.6562 23.8516 26.1484L18.8906 21.1875C17.5625 22.2031 15.8828 22.75 14.125 22.75C9.63281 22.75 6 19.1172 6 14.625C6 10.1719 9.63281 6.5 14.125 6.5C18.5781 6.5 22.25 10.1719 22.25 14.625ZM14.125 20.25C16.1172 20.25 17.9531 19.1953 18.9688 17.4375C19.9844 15.7188 19.9844 13.5703 18.9688 11.8125C17.9531 10.0938 16.1172 9 14.125 9C12.0938 9 10.2578 10.0938 9.24219 11.8125C8.22656 13.5703 8.22656 15.7188 9.24219 17.4375C10.2578 19.1953 12.0938 20.25 14.125 20.25Z" fill="black" fill-opacity="0.72"/>
</g>
</svg>
