<svg width="32" height="32" viewBox="0 0 32 32" fill="none" xmlns="http://www.w3.org/2000/svg">
<g id="standalone / md / two-md / bold">
<path id="icon" d="M15.4922 9.625C14.4375 9.625 13.4609 10.0547 12.7188 10.7969L11.3516 12.1641C10.9609 12.5547 10.375 12.5547 10.0234 12.1641C9.63281 11.8125 9.63281 11.2266 10.0234 10.875L11.3906 9.46875C12.4844 8.375 13.9688 7.75 15.4922 7.75H15.7656C18.8125 7.75 21.3125 10.25 21.3125 13.2969C21.3125 14.8203 20.6484 16.2656 19.5547 17.3203L13.0312 23.375H21.3125C21.8203 23.375 22.25 23.8047 22.25 24.3125C22.25 24.8594 21.8203 25.25 21.3125 25.25H10.6875C10.2969 25.25 9.94531 25.0156 9.78906 24.6641C9.67188 24.3125 9.75 23.9219 10.0234 23.6484L18.2656 15.9531C19.0078 15.25 19.4375 14.2734 19.4375 13.2969C19.4375 11.2656 17.7969 9.625 15.7656 9.625H15.4922Z" fill="black" fill-opacity="0.72"/>
</g>
</svg>
