<svg width="32" height="32" viewBox="0 0 32 32" fill="none" xmlns="http://www.w3.org/2000/svg">
<g id="standalone / md / face-viewfinder-md / bold">
<path id="icon" d="M6 8.6875C6 7.51562 6.97656 6.5 8.1875 6.5H11.3125C11.8203 6.5 12.25 6.92969 12.25 7.4375C12.25 7.98438 11.8203 8.375 11.3125 8.375H8.1875C7.99219 8.375 7.875 8.53125 7.875 8.6875V11.8125C7.875 12.3594 7.44531 12.75 6.9375 12.75C6.39062 12.75 6 12.3594 6 11.8125V8.6875ZM19.75 7.4375C19.75 6.92969 20.1406 6.5 20.6875 6.5H23.8125C24.9844 6.5 26 7.51562 26 8.6875V11.8125C26 12.3594 25.5703 12.75 25.0625 12.75C24.5156 12.75 24.125 12.3594 24.125 11.8125V8.6875C24.125 8.53125 23.9688 8.375 23.8125 8.375H20.6875C20.1406 8.375 19.75 7.98438 19.75 7.4375ZM6.9375 20.25C7.44531 20.25 7.875 20.6797 7.875 21.1875V24.3125C7.875 24.5078 7.99219 24.625 8.1875 24.625H11.3125C11.8203 24.625 12.25 25.0547 12.25 25.5625C12.25 26.1094 11.8203 26.5 11.3125 26.5H8.1875C6.97656 26.5 6 25.5234 6 24.3125V21.1875C6 20.6797 6.39062 20.25 6.9375 20.25ZM25.0625 20.25C25.5703 20.25 26 20.6797 26 21.1875V24.3125C26 25.5234 24.9844 26.5 23.8125 26.5H20.6875C20.1406 26.5 19.75 26.1094 19.75 25.5625C19.75 25.0547 20.1406 24.625 20.6875 24.625H23.8125C23.9688 24.625 24.125 24.5078 24.125 24.3125V21.1875C24.125 20.6797 24.5156 20.25 25.0625 20.25ZM15.375 14.9375C15.375 15.4844 14.9453 15.875 14.4375 15.875C13.8906 15.875 13.5 15.4844 13.5 14.9375C13.5 14.4297 13.8906 14 14.4375 14C14.9453 14 15.375 14.4297 15.375 14.9375ZM17.5625 15.875C17.0156 15.875 16.625 15.4844 16.625 14.9375C16.625 14.4297 17.0156 14 17.5625 14C18.0703 14 18.5 14.4297 18.5 14.9375C18.5 15.4844 18.0703 15.875 17.5625 15.875ZM16 12.125C14.3984 12.125 12.9922 12.9844 12.2109 14.3125C11.3906 15.6797 11.3906 17.3594 12.2109 18.6875C12.9922 20.0547 14.3984 20.875 16 20.875C17.5625 20.875 18.9688 20.0547 19.75 18.6875C20.5703 17.3594 20.5703 15.6797 19.75 14.3125C18.9688 12.9844 17.5625 12.125 16 12.125ZM16 22.75C13.7344 22.75 11.7031 21.5781 10.5703 19.625C9.4375 17.7109 9.4375 15.3281 10.5703 13.375C11.7031 11.4609 13.7344 10.25 16 10.25C18.2266 10.25 20.2578 11.4609 21.3906 13.375C22.5234 15.3281 22.5234 17.7109 21.3906 19.625C20.2578 21.5781 18.2266 22.75 16 22.75ZM14.3594 17.4375C14.6719 18.0234 15.2969 18.375 16 18.375C16.6641 18.375 17.2891 18.0234 17.6016 17.4375C17.7969 17.1641 18.1484 17.0469 18.4609 17.2422C18.7734 17.3984 18.8516 17.7891 18.6953 18.1016C18.1484 19 17.1328 19.6641 16 19.6641C14.8281 19.6641 13.8125 19 13.2656 18.1016C13.1094 17.7891 13.1875 17.3984 13.5 17.2422C13.8125 17.0469 14.2031 17.1641 14.3594 17.4375Z" fill="black" fill-opacity="0.72"/>
</g>
</svg>
