<svg width="32" height="32" viewBox="0 0 32 32" fill="none" xmlns="http://www.w3.org/2000/svg">
<g id="standalone / md / file-md / bold">
<path id="icon" d="M21.5 24.625C21.8906 24.599 22.099 24.3906 22.125 24V12.75H19C18.6354 12.75 18.3359 12.6328 18.1016 12.3984C17.8672 12.1641 17.75 11.8646 17.75 11.5V8.375H11.5C11.1094 8.40104 10.901 8.60938 10.875 9V24C10.901 24.3906 11.1094 24.599 11.5 24.625H21.5ZM9 9C9.02604 8.29688 9.27344 7.71094 9.74219 7.24219C10.2109 6.77344 10.7969 6.52604 11.5 6.5H17.9844C18.6615 6.5 19.2474 6.7474 19.7422 7.24219L23.2578 10.7578C23.7526 11.2526 24 11.8516 24 12.5547V24C23.974 24.7031 23.7266 25.2891 23.2578 25.7578C22.7891 26.2266 22.2031 26.474 21.5 26.5H11.5C10.7969 26.474 10.2109 26.2266 9.74219 25.7578C9.27344 25.2891 9.02604 24.7031 9 24V9Z" fill="black" fill-opacity="0.72"/>
</g>
</svg>
