<svg width="32" height="32" viewBox="0 0 32 32" fill="none" xmlns="http://www.w3.org/2000/svg">
<g id="standalone / md / arrow-down-a-z-md / bold">
<path id="icon" d="M6.58594 21.2266C6.19531 20.875 6.19531 20.2891 6.58594 19.8984C6.9375 19.5469 7.52344 19.5469 7.91406 19.8984L10.0625 22.0859V8.6875C10.0625 8.17969 10.4531 7.75 11 7.75C11.5078 7.75 11.9375 8.17969 11.9375 8.6875V22.0859L14.0859 19.9375C14.4375 19.5469 15.0234 19.5469 15.375 19.9375C15.7656 20.2891 15.7656 20.875 15.375 21.2266L11.625 24.9766C11.2734 25.3672 10.6875 25.3672 10.3359 24.9766L6.58594 21.2266ZM18.5 17.75H23.5C23.8516 17.75 24.2031 17.9844 24.3203 18.3359C24.4766 18.6484 24.4375 19.0391 24.1641 19.3125L20.5703 23.375H23.5C24.0078 23.375 24.4375 23.8047 24.4375 24.3125C24.4375 24.8594 24.0078 25.25 23.5 25.25H18.5C18.1094 25.25 17.7578 25.0547 17.6406 24.7031C17.4844 24.3906 17.5234 24 17.7969 23.7266L21.3906 19.625H18.5C17.9531 19.625 17.5625 19.2344 17.5625 18.6875C17.5625 18.1797 17.9531 17.75 18.5 17.75ZM21 7.75C21.3516 7.75 21.6641 7.98438 21.8203 8.29688L24.9453 14.5469C25.1797 15.0156 24.9844 15.5625 24.5156 15.7969C24.0469 16.0312 23.5 15.8359 23.2656 15.3672L22.7188 14.3125C22.6797 14.3125 22.6016 14.3125 22.5625 14.3125H19.2031L18.6953 15.3672C18.4609 15.8359 17.9141 16.0312 17.4453 15.7969C16.9766 15.5625 16.7812 15.0156 17.0156 14.5469L20.1406 8.29688C20.2969 7.98438 20.6094 7.75 21 7.75ZM20.1406 12.4375H21.8203L21 10.7969L20.1406 12.4375Z" fill="black" fill-opacity="0.72"/>
</g>
</svg>
