<svg width="32" height="32" viewBox="0 0 32 32" fill="none" xmlns="http://www.w3.org/2000/svg">
<g id="standalone / md / grip-dots-vertical-md / bold">
<path id="icon" d="M13.5 11.5C12.7969 11.5 12.25 10.9531 12.25 10.25C12.25 9.58594 12.7969 9 13.5 9C14.1641 9 14.75 9.58594 14.75 10.25C14.75 10.9531 14.1641 11.5 13.5 11.5ZM13.5 17.75C12.7969 17.75 12.25 17.2031 12.25 16.5C12.25 15.8359 12.7969 15.25 13.5 15.25C14.1641 15.25 14.75 15.8359 14.75 16.5C14.75 17.2031 14.1641 17.75 13.5 17.75ZM14.75 22.75C14.75 23.4531 14.1641 24 13.5 24C12.7969 24 12.25 23.4531 12.25 22.75C12.25 22.0859 12.7969 21.5 13.5 21.5C14.1641 21.5 14.75 22.0859 14.75 22.75ZM18.5 11.5C17.7969 11.5 17.25 10.9531 17.25 10.25C17.25 9.58594 17.7969 9 18.5 9C19.1641 9 19.75 9.58594 19.75 10.25C19.75 10.9531 19.1641 11.5 18.5 11.5ZM19.75 16.5C19.75 17.2031 19.1641 17.75 18.5 17.75C17.7969 17.75 17.25 17.2031 17.25 16.5C17.25 15.8359 17.7969 15.25 18.5 15.25C19.1641 15.25 19.75 15.8359 19.75 16.5ZM18.5 24C17.7969 24 17.25 23.4531 17.25 22.75C17.25 22.0859 17.7969 21.5 18.5 21.5C19.1641 21.5 19.75 22.0859 19.75 22.75C19.75 23.4531 19.1641 24 18.5 24Z" fill="black" fill-opacity="0.72"/>
</g>
</svg>
