<svg width="32" height="32" viewBox="0 0 32 32" fill="none" xmlns="http://www.w3.org/2000/svg">
<g id="standalone / md / language-md / fill">
<path id="icon" d="M3.5 11.5C3.5 10.1328 4.59375 9 6 9H13.5H15.375H16H26C27.3672 9 28.5 10.1328 28.5 11.5V21.5C28.5 22.9062 27.3672 24 26 24H16H15.375H13.5H6C4.59375 24 3.5 22.9062 3.5 21.5V11.5ZM16 11.5V21.5H26V11.5H16ZM10.4531 13.375C10.3359 13.1016 10.0234 12.9062 9.75 12.9062C9.4375 12.9062 9.125 13.1016 9.00781 13.375L6.50781 19C6.35156 19.3906 6.50781 19.8594 6.89844 20.0547C7.32812 20.2109 7.75781 20.0547 7.95312 19.6641L8.30469 18.8438H11.1562L11.5078 19.6641C11.7031 20.0547 12.1719 20.2109 12.5625 20.0547C12.9531 19.8594 13.1094 19.3906 12.9531 19L10.4531 13.375ZM9.75 15.6406L10.4922 17.2812H9.00781L9.75 15.6406ZM21 12.9062C21.4297 12.9062 21.7812 13.2578 21.7812 13.6875V13.8438H23.5H24.125C24.5547 13.8438 24.9062 14.1953 24.9062 14.625C24.9062 15.0547 24.5547 15.4062 24.125 15.4062H24.0469L23.9688 15.6016C23.6172 16.5391 23.1094 17.4375 22.4062 18.1406C22.4453 18.1797 22.4844 18.1797 22.5234 18.2188L23.2656 18.6484C23.6172 18.8828 23.7344 19.3516 23.5391 19.7422C23.3047 20.0938 22.8359 20.2109 22.4453 20.0156L21.7422 19.5469C21.5469 19.4688 21.3906 19.3516 21.1953 19.2344C20.8047 19.5078 20.375 19.7812 19.8672 19.9766L19.75 20.0547C19.3594 20.2109 18.8906 20.0547 18.6953 19.6641C18.5391 19.2344 18.7344 18.8047 19.125 18.6094L19.2422 18.5703C19.5156 18.4531 19.75 18.2969 19.9844 18.1797L19.5156 17.7109C19.2031 17.3984 19.2031 16.8906 19.5156 16.5781C19.7891 16.2656 20.2969 16.2656 20.6094 16.5781L21.1562 17.1641H21.1953C21.6641 16.6562 22.0547 16.0703 22.3672 15.4062H21H18.1875C17.7578 15.4062 17.4062 15.0547 17.4062 14.625C17.4062 14.1953 17.7578 13.8438 18.1875 13.8438H20.2188V13.6875C20.2188 13.2578 20.5703 12.9062 21 12.9062Z" fill="black" fill-opacity="0.72"/>
</g>
</svg>
