<svg width="32" height="32" viewBox="0 0 32 32" fill="none" xmlns="http://www.w3.org/2000/svg">
<g id="standalone / md / file-lines-md / fill">
<path id="icon" d="M11 6.5H17.25V11.5C17.25 12.2031 17.7969 12.75 18.5 12.75H23.5V24C23.5 25.4062 22.3672 26.5 21 26.5H11C9.59375 26.5 8.5 25.4062 8.5 24V9C8.5 7.63281 9.59375 6.5 11 6.5ZM18.5 6.5L23.5 11.5H18.5V6.5ZM12.875 16.5C12.5234 16.5 12.25 16.8125 12.25 17.125C12.25 17.4766 12.5234 17.75 12.875 17.75H19.125C19.4375 17.75 19.75 17.4766 19.75 17.125C19.75 16.8125 19.4375 16.5 19.125 16.5H12.875ZM12.875 19C12.5234 19 12.25 19.3125 12.25 19.625C12.25 19.9766 12.5234 20.25 12.875 20.25H19.125C19.4375 20.25 19.75 19.9766 19.75 19.625C19.75 19.3125 19.4375 19 19.125 19H12.875ZM12.875 21.5C12.5234 21.5 12.25 21.8125 12.25 22.125C12.25 22.4766 12.5234 22.75 12.875 22.75H19.125C19.4375 22.75 19.75 22.4766 19.75 22.125C19.75 21.8125 19.4375 21.5 19.125 21.5H12.875Z" fill="black" fill-opacity="0.72"/>
</g>
</svg>
