<svg width="32" height="32" viewBox="0 0 32 32" fill="none" xmlns="http://www.w3.org/2000/svg">
<g id="standalone / md / file-excel-md / bold">
<path id="icon" d="M10.875 24C10.901 24.3906 11.1094 24.599 11.5 24.625H21.5C21.8906 24.599 22.099 24.3906 22.125 24V12.75H19C18.6354 12.75 18.3359 12.6328 18.1016 12.3984C17.8672 12.1641 17.75 11.8646 17.75 11.5V8.375H11.5C11.1094 8.40104 10.901 8.60938 10.875 9V24ZM11.5 6.5H17.9844C18.6615 6.5 19.2474 6.7474 19.7422 7.24219L23.2578 10.7578C23.7526 11.2526 24 11.8516 24 12.5547V24C23.974 24.7031 23.7266 25.2891 23.2578 25.7578C22.7891 26.2266 22.2031 26.474 21.5 26.5H11.5C10.7969 26.474 10.2109 26.2266 9.74219 25.7578C9.27344 25.2891 9.02604 24.7031 9 24V9C9.02604 8.29688 9.27344 7.71094 9.74219 7.24219C10.2109 6.77344 10.7969 6.52604 11.5 6.5ZM15.0547 15.6016L16.5 17.4766L17.9453 15.6016C18.3359 15.1849 18.7786 15.1328 19.2734 15.4453C19.6901 15.8359 19.7422 16.2786 19.4297 16.7734L17.6719 19L19.4297 21.2266C19.7422 21.7214 19.6901 22.1641 19.2734 22.5547C18.7786 22.8672 18.3359 22.8151 17.9453 22.3984L16.5 20.5234L15.0547 22.3984C14.6641 22.8151 14.2214 22.8672 13.7266 22.5547C13.3099 22.1641 13.2578 21.7214 13.5703 21.2266L15.3281 19L13.5703 16.7734C13.2578 16.2786 13.3099 15.8359 13.7266 15.4453C14.2214 15.1328 14.6641 15.1849 15.0547 15.6016Z" fill="black" fill-opacity="0.72"/>
</g>
</svg>
