<svg width="32" height="32" viewBox="0 0 32 32" fill="none" xmlns="http://www.w3.org/2000/svg">
<g id="standalone / md / chevrons-right-md / fill">
<path id="icon" d="M24.3594 17.3984L16.8594 24.8984C16.3906 25.4062 15.5703 25.4062 15.1016 24.8984C14.5938 24.4297 14.5938 23.6094 15.1016 23.1406L21.7031 16.5L15.1016 9.89844C14.5938 9.42969 14.5938 8.60938 15.1016 8.14062C15.5703 7.63281 16.3906 7.63281 16.8594 8.14062L24.3594 15.6406C24.8672 16.1094 24.8672 16.9297 24.3594 17.3984ZM9.35938 24.8984C8.89062 25.4062 8.07031 25.4062 7.60156 24.8984C7.09375 24.4297 7.09375 23.6094 7.60156 23.1406L14.2031 16.5L7.60156 9.89844C7.09375 9.42969 7.09375 8.60938 7.60156 8.14062C8.07031 7.63281 8.89062 7.63281 9.35938 8.14062L16.8594 15.6406C17.3672 16.1094 17.3672 16.9297 16.8594 17.3984L9.35938 24.8984Z" fill="black" fill-opacity="0.72"/>
</g>
</svg>
