<svg width="32" height="32" viewBox="0 0 32 32" fill="none" xmlns="http://www.w3.org/2000/svg">
<g id="standalone / md / circle-arrow-down-left-md / fill">
<path id="icon" d="M16 26.5C12.4062 26.5 9.125 24.625 7.32812 21.5C5.53125 18.4141 5.53125 14.625 7.32812 11.5C9.125 8.41406 12.4062 6.5 16 6.5C19.5547 6.5 22.8359 8.41406 24.6328 11.5C26.4297 14.625 26.4297 18.4141 24.6328 21.5C22.8359 24.625 19.5547 26.5 16 26.5ZM18.5 20.875C19.0078 20.875 19.4375 20.4844 19.4375 19.9375C19.4375 19.4297 19.0078 19 18.5 19H14.7891L20.1016 13.7266C20.4531 13.375 20.4531 12.7891 20.1016 12.4375C19.7109 12.0469 19.125 12.0469 18.7734 12.4375L13.5 17.7109V13.6875C13.5 13.1797 13.0703 12.75 12.5625 12.75C12.0156 12.75 11.625 13.1797 11.625 13.6875V19.9375C11.625 20.4844 12.0156 20.875 12.5625 20.875H18.5Z" fill="black" fill-opacity="0.72"/>
</g>
</svg>
