<svg width="32" height="32" viewBox="0 0 32 32" fill="none" xmlns="http://www.w3.org/2000/svg">
<g id="standalone / md / horizontal-rule-dashed-md / fill">
<path id="icon" d="M3.5 16.5C3.5 15.8359 4.04688 15.25 4.75 15.25H7.25C7.91406 15.25 8.5 15.8359 8.5 16.5C8.5 17.2031 7.91406 17.75 7.25 17.75H4.75C4.04688 17.75 3.5 17.2031 3.5 16.5ZM10.1406 16.5C10.1406 15.8359 10.7266 15.25 11.3906 15.25H13.8906C14.5938 15.25 15.1406 15.8359 15.1406 16.5C15.1406 17.2031 14.5938 17.75 13.8906 17.75H11.3906C10.7266 17.75 10.1406 17.2031 10.1406 16.5ZM16.8203 16.5C16.8203 15.8359 17.3672 15.25 18.0703 15.25H20.5703C21.2734 15.25 21.8203 15.8359 21.8203 16.5C21.8203 17.2031 21.2734 17.75 20.5703 17.75H18.0703C17.3672 17.75 16.8203 17.2031 16.8203 16.5ZM23.5 16.5C23.5 15.8359 24.0469 15.25 24.75 15.25H27.25C27.9141 15.25 28.5 15.8359 28.5 16.5C28.5 17.2031 27.9141 17.75 27.25 17.75H24.75C24.0469 17.75 23.5 17.2031 23.5 16.5Z" fill="black" fill-opacity="0.72"/>
</g>
</svg>
