<svg width="32" height="32" viewBox="0 0 32 32" fill="none" xmlns="http://www.w3.org/2000/svg">
<g id="standalone / md / user-slash-md / fill">
<path id="icon" d="M5.48438 6.73438L11.5 11.4219C11.5391 8.6875 13.7656 6.5 16.5 6.5C19.2344 6.5 21.5 8.76562 21.5 11.5C21.5 13.8438 19.8984 15.7578 17.7891 16.3438L28.6094 24.8594C29.0391 25.1719 29.1172 25.7578 28.7656 26.1484C28.4531 26.5781 27.8672 26.6562 27.4766 26.3047L4.35156 8.17969C3.92188 7.86719 3.84375 7.28125 4.19531 6.89062C4.50781 6.46094 5.09375 6.38281 5.48438 6.73438ZM14.3125 18.4141L24.5078 26.4219C24.3516 26.5 24.2344 26.5 24.0781 26.5H8.88281C8.25781 26.5 7.75 25.9922 7.75 25.3672C7.75 21.6562 10.6406 18.6094 14.3125 18.4141Z" fill="black" fill-opacity="0.72"/>
</g>
</svg>
