<svg width="32" height="32" viewBox="0 0 32 32" fill="none" xmlns="http://www.w3.org/2000/svg">
<g id="standalone / md / sterling-sign-md / regular">
<path id="icon" d="M12.875 12.4375V16.5H19.125C19.4375 16.5 19.75 16.8125 19.75 17.125C19.75 17.4766 19.4375 17.75 19.125 17.75H12.8359C12.7969 19.9375 12.2891 22.0469 11.3906 24H21.625C21.9375 24 22.25 24.3125 22.25 24.625C22.25 24.9766 21.9375 25.25 21.625 25.25H10.375C10.1406 25.25 9.94531 25.1328 9.82812 24.9766C9.71094 24.7812 9.71094 24.5469 9.82812 24.3516L9.86719 24.2734C10.9609 22.2812 11.5469 20.0547 11.5859 17.75H10.375C10.0234 17.75 9.75 17.4766 9.75 17.125C9.75 16.8125 10.0234 16.5 10.375 16.5H11.625V12.4375C11.625 9.85938 13.6953 7.75 16.3125 7.75H16.5859C17.0938 7.75 17.5625 7.86719 18.0703 8.02344L21.1953 9.03906C21.5078 9.15625 21.6641 9.50781 21.5859 9.85938C21.4688 10.1719 21.1172 10.3281 20.7656 10.25L17.6406 9.19531C17.3281 9.07812 16.9375 9 16.5859 9H16.3125C14.3984 9 12.875 10.5625 12.875 12.4375Z" fill="black" fill-opacity="0.72"/>
</g>
</svg>
