<svg width="32" height="32" viewBox="0 0 32 32" fill="none" xmlns="http://www.w3.org/2000/svg">
<g id="standalone / md / desktop-md / bold">
<path id="icon" d="M24.75 8.375H7.25C6.89844 8.375 6.625 8.6875 6.625 9V16.5H25.375V9C25.375 8.6875 25.0625 8.375 24.75 8.375ZM27.25 16.5V18.375V20.25C27.25 21.6562 26.1172 22.75 24.75 22.75H18.9688L19.2812 24.625H21.3125C21.8203 24.625 22.25 25.0547 22.25 25.5625C22.25 26.1094 21.8203 26.5 21.3125 26.5H18.5H13.5H10.6875C10.1406 26.5 9.75 26.1094 9.75 25.5625C9.75 25.0547 10.1406 24.625 10.6875 24.625H12.6797L12.9922 22.75H7.25C5.84375 22.75 4.75 21.6562 4.75 20.25V18.375V16.5V9C4.75 7.63281 5.84375 6.5 7.25 6.5H24.75C26.1172 6.5 27.25 7.63281 27.25 9V16.5ZM6.625 18.375V20.25C6.625 20.6016 6.89844 20.875 7.25 20.875H14.0859H14.125H17.8359H17.875H24.75C25.0625 20.875 25.375 20.6016 25.375 20.25V18.375H6.625ZM14.5938 24.625H17.3672L17.0547 22.75H14.9062L14.5938 24.625Z" fill="black" fill-opacity="0.72"/>
</g>
</svg>
