<svg width="32" height="32" viewBox="0 0 32 32" fill="none" xmlns="http://www.w3.org/2000/svg">
<g id="standalone / md / circle-caret-up-md / fill">
<path id="icon" d="M16 26.5C12.4062 26.5 9.125 24.625 7.32812 21.5C5.53125 18.4141 5.53125 14.625 7.32812 11.5C9.125 8.41406 12.4062 6.5 16 6.5C19.5547 6.5 22.8359 8.41406 24.6328 11.5C26.4297 14.625 26.4297 18.4141 24.6328 21.5C22.8359 24.625 19.5547 26.5 16 26.5ZM16 12.125C15.7266 12.125 15.4531 12.2422 15.2969 12.4375L11.2344 16.8125C10.9609 17.0859 10.9219 17.4766 11.0781 17.8281C11.1953 18.1797 11.5469 18.375 11.9375 18.375H20.0625C20.4141 18.375 20.7656 18.1797 20.9219 17.8281C21.0391 17.4766 21 17.0859 20.7266 16.8125L16.6641 12.4375C16.5078 12.2422 16.2344 12.125 16 12.125Z" fill="black" fill-opacity="0.72"/>
</g>
</svg>
