<svg width="32" height="32" viewBox="0 0 32 32" fill="none" xmlns="http://www.w3.org/2000/svg">
<g id="standalone / md / eye-md / fill">
<path id="icon" d="M16 7.75C19.125 7.75 21.6641 9.19531 23.5 10.9141C25.3359 12.5938 26.5469 14.625 27.1328 16.0312C27.25 16.3438 27.25 16.6953 27.1328 17.0078C26.5469 18.375 25.3359 20.4062 23.5 22.125C21.6641 23.8438 19.125 25.25 16 25.25C12.8359 25.25 10.2969 23.8438 8.46094 22.125C6.625 20.4062 5.41406 18.375 4.82812 17.0078C4.71094 16.6953 4.71094 16.3438 4.82812 16.0312C5.41406 14.625 6.625 12.5938 8.46094 10.9141C10.2969 9.19531 12.8359 7.75 16 7.75ZM10.375 16.5C10.375 18.5312 11.4297 20.3672 13.1875 21.3828C14.9062 22.3984 17.0547 22.3984 18.8125 21.3828C20.5312 20.3672 21.625 18.5312 21.625 16.5C21.625 14.5078 20.5312 12.6719 18.8125 11.6562C17.0547 10.6406 14.9062 10.6406 13.1875 11.6562C11.4297 12.6719 10.375 14.5078 10.375 16.5ZM16 14C16 13.7266 15.9219 13.4922 15.8438 13.2188C15.7656 13.0234 15.9219 12.75 16.1562 12.75C17.7188 12.8281 19.1641 13.9219 19.5938 15.5625C20.1406 17.5547 18.9688 19.5859 16.9375 20.1328C14.9453 20.6797 12.875 19.4688 12.3672 17.4766C12.2891 17.2031 12.25 16.9297 12.25 16.6953C12.2109 16.4609 12.4844 16.3047 12.6797 16.3828C12.9531 16.4609 13.1875 16.5 13.5 16.5C14.8672 16.5 16 15.4062 16 14Z" fill="black" fill-opacity="0.72"/>
</g>
</svg>
