<svg width="32" height="32" viewBox="0 0 32 32" fill="none" xmlns="http://www.w3.org/2000/svg">
<g id="standalone / md / circle-arrow-down-md / fill">
<path id="icon" d="M16 6.5C19.5547 6.5 22.8359 8.41406 24.6328 11.5C26.4297 14.625 26.4297 18.4141 24.6328 21.5C22.8359 24.625 19.5547 26.5 16 26.5C12.4062 26.5 9.125 24.625 7.32812 21.5C5.53125 18.4141 5.53125 14.625 7.32812 11.5C9.125 8.41406 12.4062 6.5 16 6.5ZM10.9609 17.4766L15.3359 21.8516C15.6875 22.2422 16.2734 22.2422 16.6641 21.8516L21 17.4766C21.3906 17.125 21.3906 16.5391 21 16.1875C20.6484 15.7969 20.0625 15.7969 19.7109 16.1875L16.9375 18.9609V11.8125C16.9375 11.3047 16.5078 10.875 16 10.875C15.4531 10.875 15.0625 11.3047 15.0625 11.8125L15.0234 18.9609L12.25 16.1875C11.8984 15.7969 11.3125 15.7969 10.9609 16.1875C10.5703 16.5391 10.5703 17.125 10.9609 17.4766Z" fill="black" fill-opacity="0.72"/>
</g>
</svg>
