<svg width="32" height="32" viewBox="0 0 32 32" fill="none" xmlns="http://www.w3.org/2000/svg">
<g id="standalone / md / arrow-up-md / bold">
<path id="icon" d="M16.6641 8.0625L23.2266 14.9375C23.5781 15.3281 23.5781 15.9141 23.1875 16.2656C22.7969 16.6172 22.2109 16.6172 21.8594 16.2266L16.9375 11.0312V24.3125C16.9375 24.8594 16.5078 25.25 16 25.25C15.4531 25.25 15.0625 24.8594 15.0625 24.3125V11.0312L10.1016 16.2266C9.75 16.6172 9.16406 16.6172 8.77344 16.2656C8.38281 15.9141 8.38281 15.2891 8.73438 14.9375L15.2969 8.0625C15.4922 7.86719 15.7266 7.75 16 7.75C16.2344 7.75 16.4688 7.86719 16.6641 8.0625Z" fill="black" fill-opacity="0.72"/>
</g>
</svg>
