<svg width="32" height="32" viewBox="0 0 32 32" fill="none" xmlns="http://www.w3.org/2000/svg">
<g id="standalone / md / xmark-md / fill">
<path id="icon" d="M21.8594 12.3984L17.7578 16.5L21.8594 20.6406C22.3672 21.1094 22.3672 21.9297 21.8594 22.3984C21.3906 22.9062 20.5703 22.9062 20.1016 22.3984L16 18.2969L11.8594 22.3984C11.3906 22.9062 10.5703 22.9062 10.1016 22.3984C9.59375 21.9297 9.59375 21.1094 10.1016 20.6406L14.2031 16.5L10.1016 12.3984C9.59375 11.9297 9.59375 11.1094 10.1016 10.6406C10.5703 10.1328 11.3906 10.1328 11.8594 10.6406L16 14.7422L20.1016 10.6406C20.5703 10.1328 21.3906 10.1328 21.8594 10.6406C22.3672 11.1094 22.3672 11.9297 21.8594 12.3984Z" fill="black" fill-opacity="0.72"/>
</g>
</svg>
