<svg width="32" height="32" viewBox="0 0 32 32" fill="none" xmlns="http://www.w3.org/2000/svg">
<g id="standalone / md / dollar-sign-md / regular">
<path id="icon" d="M16.625 7.125V9.03906C17.8359 9.15625 19.0469 9.39062 19.8672 9.625C20.2188 9.70312 20.4141 10.0156 20.3359 10.3672C20.2578 10.7188 19.9453 10.9141 19.5938 10.8359C18.3047 10.5234 16.3906 10.1328 14.75 10.2891C13.9297 10.3672 13.1875 10.5625 12.6797 10.875C12.1719 11.2266 11.8203 11.6953 11.6641 12.4766C11.5469 13.0234 11.625 13.4531 11.7812 13.7656C11.9375 14.1172 12.2109 14.3906 12.6406 14.6641C13.5 15.2109 14.75 15.5234 16.1562 15.9141H16.1953C17.5234 16.2656 18.9688 16.6562 20.0234 17.3203C20.5703 17.6719 21.0391 18.1016 21.3125 18.6875C21.625 19.3125 21.7031 20.0156 21.5469 20.7969C21.2734 22.125 20.3359 23.0234 19.0859 23.5312C18.3828 23.8047 17.5234 23.9609 16.625 24V25.875C16.625 26.2266 16.3516 26.5 16 26.5C15.6484 26.5 15.375 26.2266 15.375 25.875V23.9609C15.1406 23.9219 14.8672 23.9219 14.6328 23.8828C13.6172 23.7266 12.0547 23.375 10.7266 22.7891C10.4141 22.6719 10.2969 22.2812 10.4141 21.9688C10.5703 21.6562 10.9219 21.5 11.2344 21.6562C12.4062 22.1641 13.8516 22.4766 14.7891 22.6328C16.3125 22.8672 17.6406 22.75 18.6172 22.3594C19.5938 21.9688 20.1406 21.3828 20.2969 20.5625C20.4141 19.9766 20.3359 19.5859 20.1797 19.2344C20.0234 18.9219 19.75 18.6094 19.3203 18.375C18.4609 17.8281 17.2109 17.4766 15.8438 17.125L15.7656 17.0859C14.4375 16.7734 12.9922 16.3828 11.9766 15.7188C11.4297 15.3672 10.9609 14.8984 10.6484 14.3125C10.375 13.7266 10.2969 13.0234 10.4141 12.2031C10.6484 11.1094 11.1953 10.3672 11.9766 9.82031C12.7578 9.35156 13.6953 9.11719 14.6328 9.03906C14.8672 9 15.1016 9 15.375 9V7.125C15.375 6.8125 15.6484 6.5 16 6.5C16.3125 6.5 16.625 6.8125 16.625 7.125Z" fill="black" fill-opacity="0.72"/>
</g>
</svg>
