<svg width="32" height="32" viewBox="0 0 32 32" fill="none" xmlns="http://www.w3.org/2000/svg">
<g id="standalone / md / puzzle-md / bold">
<path id="icon" d="M23.5 6.5C24.8672 6.5 26 7.63281 26 9V14C26 14.3516 25.6875 14.625 25.375 14.625H23.3438C23.0703 14.625 22.875 14.8594 22.875 15.0938V15.25C22.875 15.9531 22.2891 16.5 21.625 16.5C20.9219 16.5 20.375 15.9531 20.375 15.25V15.0938C20.375 14.8594 20.1406 14.625 19.9062 14.625H18.5C18.1484 14.625 17.875 14.3516 17.875 14V12.75C17.875 12.4375 18.1484 12.125 18.5 12.125H19.125C19.7891 12.125 20.375 11.5781 20.375 10.875C20.375 10.2109 19.7891 9.625 19.125 9.625H18.5C18.1484 9.625 17.875 9.35156 17.875 9V7.125C17.875 6.8125 18.1484 6.5 18.5 6.5H23.5ZM6 15.875V11.5C6 10.1328 7.09375 9 8.5 9H14.125C14.4375 9 14.75 9.3125 14.75 9.625V11.6562C14.75 11.9297 14.9453 12.125 15.2188 12.125H15.375C16.0391 12.125 16.625 12.7109 16.625 13.375C16.625 14.0781 16.0391 14.625 15.375 14.625H15.2188C14.9453 14.625 14.75 14.8594 14.75 15.0938V17.125C14.75 17.4766 14.4375 17.75 14.125 17.75H12.875C12.5234 17.75 12.25 17.4766 12.25 17.125V16.5C12.25 15.8359 11.6641 15.25 11 15.25C10.2969 15.25 9.75 15.8359 9.75 16.5V17.125C9.75 17.4766 9.4375 17.75 9.125 17.75H7.875V23.6875C7.875 24.2344 8.26562 24.625 8.8125 24.625H14.75V23.2188C14.75 22.9844 14.5156 22.75 14.2812 22.75H14.125C13.4219 22.75 12.875 22.2031 12.875 21.5C12.875 20.8359 13.4219 20.25 14.125 20.25H14.2812C14.5156 20.25 14.75 20.0547 14.75 19.7812V18.375C14.75 18.0625 15.0234 17.75 15.375 17.75H17.25C17.5625 17.75 17.875 18.0625 17.875 18.375V19C17.875 19.7031 18.4219 20.25 19.125 20.25C19.7891 20.25 20.375 19.7031 20.375 19V18.375C20.375 18.0625 20.6484 17.75 21 17.75H22.875C23.1875 17.75 23.5 18.0625 23.5 18.375V24C23.5 25.4062 22.3672 26.5 21 26.5H16H15.375H8.8125C7.25 26.5 6 25.25 6 23.6875V17.125V15.875Z" fill="black" fill-opacity="0.72"/>
</g>
</svg>
