<svg width="32" height="32" viewBox="0 0 32 32" fill="none" xmlns="http://www.w3.org/2000/svg">
<g id="standalone / md / paste-md / regular">
<path id="icon" d="M11.3125 8.53125C11.2734 8.80469 11 9 10.6875 9H10.375C10.0234 9 9.75 9.3125 9.75 9.625V10.25H14.75V9.625C14.75 9.3125 14.4375 9 14.125 9H13.7734C13.4609 9 13.2266 8.80469 13.1484 8.53125C13.0703 8.10156 12.6797 7.75 12.25 7.75C11.7812 7.75 11.3906 8.10156 11.3125 8.53125ZM12.25 6.5C13.1094 6.5 13.8516 7.04688 14.2031 7.75H16C17.3672 7.75 18.5 8.88281 18.5 10.25H17.25C17.25 9.58594 16.6641 9 16 9H15.8828C15.9609 9.19531 16 9.42969 16 9.625V10.25C16 10.2891 16 10.3281 16 10.3281C15.2188 10.4844 14.5547 10.9141 14.125 11.5H9.75C9.04688 11.5 8.5 10.9531 8.5 10.25V9.625C8.5 9.42969 8.53906 9.19531 8.57812 9H8.5C7.79688 9 7.25 9.58594 7.25 10.25V21.5C7.25 22.2031 7.79688 22.75 8.5 22.75H13.5V24H8.5C7.09375 24 6 22.9062 6 21.5V10.25C6 8.88281 7.09375 7.75 8.5 7.75H10.2578C10.6094 7.04688 11.3516 6.5 12.25 6.5ZM23.5 25.25C24.1641 25.25 24.75 24.7031 24.75 24V16.0312C24.75 15.875 24.6719 15.7188 24.5547 15.6016L21.8984 12.9453C21.7812 12.8281 21.625 12.75 21.4688 12.75H17.25C16.5469 12.75 16 13.3359 16 14V24C16 24.7031 16.5469 25.25 17.25 25.25H23.5ZM25.4141 14.7031C25.7656 15.0547 26 15.5625 26 16.0312V24C26 25.4062 24.8672 26.5 23.5 26.5H17.25C15.8438 26.5 14.75 25.4062 14.75 24V14C14.75 12.6328 15.8438 11.5 17.25 11.5H21.4688C21.9375 11.5 22.4453 11.6953 22.7969 12.0469L25.4141 14.7031Z" fill="black" fill-opacity="0.72"/>
</g>
</svg>
