<svg width="32" height="32" viewBox="0 0 32 32" fill="none" xmlns="http://www.w3.org/2000/svg">
<g id="standalone / md / forward-step-md / bold">
<path id="icon" d="M19.125 9.9375C19.125 9.42969 19.5156 9 20.0625 9C20.5703 9 21 9.42969 21 9.9375V15.3672V17.6719V23.0625C21 23.6094 20.5703 24 20.0625 24C19.5156 24 19.125 23.6094 19.125 23.0625V18.9609L12.2109 23.8047C12.0156 23.9609 11.7812 24 11.5469 24C10.8828 24 10.375 23.4922 10.375 22.8281V10.2109C10.375 9.54688 10.8828 9 11.5469 9C11.7812 9 12.0156 9.07812 12.2109 9.23438L19.125 14.0781V9.9375ZM19.125 16.6953V16.3438L12.25 11.5391V21.5L19.125 16.6953Z" fill="black" fill-opacity="0.72"/>
</g>
</svg>
