<svg width="32" height="32" viewBox="0 0 32 32" fill="none" xmlns="http://www.w3.org/2000/svg">
<g id="standalone / md / chart-tradingview-md / regular">
<path id="icon" d="M7.23828 24.6641V8.25781C7.23828 7.94531 7.51172 7.67188 7.82422 7.67188C8.17578 7.67188 8.41016 7.94531 8.41016 8.25781V24.2344C8.41016 24.8594 8.91797 25.3281 9.54297 25.3281H19.0742H23.1367C23.4492 25.3281 23.7227 25.6016 23.7227 25.9141C23.7227 26.2656 23.4492 26.5 23.1367 26.5H9.07422C8.05859 26.5 7.23828 25.7188 7.23828 24.6641ZM23.5664 14.8984C23.332 14.7031 22.9414 14.7031 22.707 14.8984L16.6523 20.9922L15.1289 19.4688C14.6602 19 13.918 19 13.4883 19.4688L10.9492 21.9688C10.7148 22.2031 10.7148 22.5938 10.9492 22.8281C11.1836 23.0625 11.5352 23.0625 11.7695 22.8281L14.3086 20.2891L15.832 21.8125C16.3008 22.2812 17.043 22.2812 17.4727 21.8125L23.5664 15.7578C23.8008 15.5234 23.8008 15.1328 23.5664 14.8984ZM17.082 10.875C17.082 10.4453 16.6914 10.0547 16.2227 10.0547C15.7539 10.0547 15.3633 10.4453 15.3633 10.875C15.3633 11.3438 15.7539 11.6953 16.2227 11.6953C16.6914 11.6953 17.082 11.3438 17.082 10.875ZM17.7461 10.0547L15.9883 14.7422H17.2773L18.9961 10.0547H17.7461ZM11.9648 10.0547V11.1094H13.8008V14.7422H14.9336V10.0547H11.9648Z" fill="black" fill-opacity="0.72"/>
</g>
</svg>
