<svg width="32" height="32" viewBox="0 0 32 32" fill="none" xmlns="http://www.w3.org/2000/svg">
<g id="standalone / md / square-check-md / fill">
<path id="icon" d="M9.75 7.75H22.25C23.6172 7.75 24.75 8.88281 24.75 10.25V22.75C24.75 24.1562 23.6172 25.25 22.25 25.25H9.75C8.34375 25.25 7.25 24.1562 7.25 22.75V10.25C7.25 8.88281 8.34375 7.75 9.75 7.75ZM20.4141 14.6641H20.375C20.7656 14.3125 20.7656 13.7266 20.375 13.3359C20.0234 12.9844 19.4375 12.9844 19.0859 13.3359L14.75 17.7109L12.9141 15.875C12.5234 15.4844 11.9375 15.4844 11.5859 15.875C11.1953 16.2266 11.1953 16.8125 11.5859 17.1641L14.0859 19.6641C14.4375 20.0547 15.0234 20.0547 15.4141 19.6641L20.4141 14.6641Z" fill="black" fill-opacity="0.72"/>
</g>
</svg>
