<svg width="32" height="32" viewBox="0 0 32 32" fill="none" xmlns="http://www.w3.org/2000/svg">
<g id="standalone / md / floppy-disk-pen-md / bold">
<path id="icon" d="M6.625 10.25V22.75C6.625 23.1016 6.89844 23.375 7.25 23.375H15.2969L14.8281 25.25H7.25C5.84375 25.25 4.75 24.1562 4.75 22.75V10.25C4.75 8.88281 5.84375 7.75 7.25 7.75H16.8203C17.4844 7.75 18.1094 8.02344 18.5781 8.49219L21.5078 11.4219L20.1797 12.75L17.25 9.82031C17.25 9.82031 17.25 9.82031 17.25 9.78125V13.6875C17.25 14.2344 16.8203 14.625 16.3125 14.625H8.8125C8.26562 14.625 7.875 14.2344 7.875 13.6875V9.625H7.25C6.89844 9.625 6.625 9.9375 6.625 10.25ZM21.5078 11.4219C21.9766 11.8906 22.25 12.5156 22.25 13.1797V15.7188L20.375 17.5938V13.1797C20.375 13.0234 20.2969 12.8672 20.1797 12.75L21.5078 11.4219ZM9.75 9.625V12.75H15.375V9.625H9.75ZM11 19C11 18.1406 11.4688 17.3203 12.25 16.8516C12.9922 16.4219 13.9688 16.4219 14.75 16.8516C15.4922 17.3203 16 18.1406 16 19C16 19.8984 15.4922 20.7188 14.75 21.1875C13.9688 21.6172 12.9922 21.6172 12.25 21.1875C11.4688 20.7188 11 19.8984 11 19ZM26.1953 15.7188L26.7812 16.3047C27.3672 16.8906 27.3672 17.9062 26.7812 18.4922L25.6094 19.6641L22.8359 16.8906L24.0078 15.7188C24.5938 15.1328 25.6094 15.1328 26.1953 15.7188ZM16.8984 22.8281L21.9766 17.75L24.75 20.5234L19.6719 25.6016C19.5156 25.7578 19.3203 25.875 19.125 25.9141L16.7422 26.5C16.5469 26.5391 16.3125 26.5 16.1562 26.3438C16 26.1875 15.9609 25.9531 16 25.7578L16.5859 23.375C16.625 23.1797 16.7422 22.9844 16.8984 22.8281Z" fill="black" fill-opacity="0.72"/>
</g>
</svg>
