<svg width="32" height="32" viewBox="0 0 32 32" fill="none" xmlns="http://www.w3.org/2000/svg">
<g id="standalone / md / arrow-up-to-line-md / fill">
<path id="icon" d="M9.75 7.75H22.25C22.9141 7.75 23.5 8.33594 23.5 9C23.5 9.70312 22.9141 10.25 22.25 10.25H9.75C9.04688 10.25 8.5 9.70312 8.5 9C8.5 8.33594 9.04688 7.75 9.75 7.75ZM16.8594 13.1406L21.8594 18.1406C22.3672 18.6094 22.3672 19.4297 21.8594 19.8984C21.3906 20.4062 20.5703 20.4062 20.1016 19.8984L17.25 17.0469V24C17.25 24.7031 16.6641 25.25 16 25.25C15.2969 25.25 14.75 24.7031 14.75 24V17.0469L11.8594 19.8984C11.3906 20.4062 10.5703 20.4062 10.1016 19.8984C9.59375 19.4297 9.59375 18.6094 10.1016 18.1406L15.1016 13.1406C15.5703 12.6328 16.3906 12.6328 16.8594 13.1406Z" fill="black" fill-opacity="0.72"/>
</g>
</svg>
