<svg width="32" height="32" viewBox="0 0 32 32" fill="none" xmlns="http://www.w3.org/2000/svg">
<g id="standalone / md / nine-md / regular">
<path id="icon" d="M11 14C11 16.7734 13.2266 19 16 19C18.6953 19 20.9219 16.8516 21 14.1562C21 14.1172 21 14.0781 21 14C21 11.2656 18.7344 9 16 9C13.2266 9 11 11.2656 11 14ZM17.2891 20.1328C16.8594 20.2109 16.4297 20.25 16 20.25C12.5234 20.25 9.75 17.4766 9.75 14C9.75 10.5625 12.5234 7.75 16 7.75C19.4375 7.75 22.25 10.5625 22.25 14C22.25 14.0781 22.25 14.1562 22.2109 14.2344C22.1719 15.7188 21.625 17.1641 20.6094 18.2578L14.5938 25.0547C14.3594 25.3281 13.9688 25.3281 13.6953 25.0938C13.4219 24.8594 13.4219 24.4688 13.6562 24.2344L17.2891 20.1328Z" fill="black" fill-opacity="0.72"/>
</g>
</svg>
