<svg width="32" height="32" viewBox="0 0 32 32" fill="none" xmlns="http://www.w3.org/2000/svg">
<g id="standalone / md / circle-envelope-md / bold">
<path id="icon" d="M16 8.375C13.0703 8.375 10.4141 9.9375 8.92969 12.4375C7.48438 14.9766 7.48438 18.0625 8.92969 20.5625C10.4141 23.1016 13.0703 24.625 16 24.625C18.8906 24.625 21.5469 23.1016 23.0312 20.5625C24.4766 18.0625 24.4766 14.9766 23.0312 12.4375C21.5469 9.9375 18.8906 8.375 16 8.375ZM16 26.5C12.4062 26.5 9.125 24.625 7.32812 21.5C5.53125 18.4141 5.53125 14.625 7.32812 11.5C9.125 8.41406 12.4062 6.5 16 6.5C19.5547 6.5 22.8359 8.41406 24.6328 11.5C26.4297 14.625 26.4297 18.4141 24.6328 21.5C22.8359 24.625 19.5547 26.5 16 26.5ZM15.6875 16.5L11 13.9219C11.0391 13.2578 11.5859 12.75 12.25 12.75H19.75C20.375 12.75 20.9219 13.2578 20.9609 13.9219L16.2734 16.5C16.1953 16.5391 16.0781 16.5781 16 16.5781C15.8828 16.5781 15.7656 16.5391 15.6875 16.5ZM16.8594 17.5938L21 15.3281V19C21 19.7031 20.4141 20.25 19.75 20.25H12.25C11.5469 20.25 11 19.7031 11 19V15.3281L15.1016 17.5938C15.375 17.75 15.6875 17.8281 16 17.8281C16.2734 17.8281 16.5859 17.75 16.8594 17.5938Z" fill="black" fill-opacity="0.72"/>
</g>
</svg>
