<svg width="32" height="32" viewBox="0 0 32 32" fill="none" xmlns="http://www.w3.org/2000/svg">
<g id="standalone / md / ellipsis-md / regular">
<path id="icon" d="M23.5 16.5C23.5 17.2031 22.9141 17.75 22.25 17.75C21.5469 17.75 21 17.2031 21 16.5C21 15.8359 21.5469 15.25 22.25 15.25C22.9141 15.25 23.5 15.8359 23.5 16.5ZM17.25 16.5C17.25 17.2031 16.6641 17.75 16 17.75C15.2969 17.75 14.75 17.2031 14.75 16.5C14.75 15.8359 15.2969 15.25 16 15.25C16.6641 15.25 17.25 15.8359 17.25 16.5ZM9.75 17.75C9.04688 17.75 8.5 17.2031 8.5 16.5C8.5 15.8359 9.04688 15.25 9.75 15.25C10.4141 15.25 11 15.8359 11 16.5C11 17.2031 10.4141 17.75 9.75 17.75Z" fill="black" fill-opacity="0.72"/>
</g>
</svg>
