<svg width="32" height="32" viewBox="0 0 32 32" fill="none" xmlns="http://www.w3.org/2000/svg">
<g id="standalone / md / deal-protection-md / fill">
<path id="icon" d="M16.4688 10.7188H22.0547C22.6016 10.7188 23.1484 10.7969 23.6172 10.9922C24.0859 11.1875 24.4766 11.4609 24.8281 11.8125C25.1406 12.2031 25.4141 12.6328 25.6094 13.1016C25.7656 13.6094 25.8438 14.1172 25.8438 14.6641C25.8438 15.25 25.7656 15.7578 25.6094 16.2656C25.4141 16.7344 25.1406 17.1641 24.8281 17.5156C24.4766 17.8672 24.0859 18.1406 23.6172 18.3359C23.1484 18.5312 22.6016 18.6484 22.0547 18.6484H19.9844V22.4375H16.4688V10.7188ZM22.1328 14.0391C22.0938 14 22.0156 13.9219 21.7812 13.9219H19.9844V15.4062H21.7812C22.0156 15.4062 22.0938 15.3672 22.1328 15.3281C22.1719 15.2891 22.25 15.2109 22.25 15.0156V14.3516C22.25 14.1172 22.1719 14.0781 22.1719 14.0391H22.1328ZM10.5703 10.7188C11.3125 10.7188 12.0547 10.8359 12.6797 11.0703C13.3438 11.3438 13.9297 11.6953 14.3984 12.2031C14.8672 12.7109 15.2188 13.3359 15.4531 14.0781C15.6875 14.8203 15.8047 15.6406 15.8047 16.5781C15.8047 17.4766 15.6875 18.2969 15.4531 19.0391C15.2188 19.7812 14.8672 20.4062 14.3984 20.9141C13.9297 21.4219 13.3438 21.8125 12.6797 22.0469C12.0547 22.2812 11.3516 22.4375 10.5703 22.4375H6V10.7188H10.5703ZM11.7422 18.7656C11.9766 18.5312 12.1328 18.1406 12.1328 17.3594V15.7578C12.1328 14.9766 11.9766 14.5859 11.7422 14.3516C11.5078 14.1172 11.1562 13.9609 10.5703 13.9609H9.55469V19.1562H10.5703C11.1562 19.1562 11.5078 19 11.7422 18.7656Z" fill="black" fill-opacity="0.72"/>
</g>
</svg>
