<svg width="32" height="32" viewBox="0 0 32 32" fill="none" xmlns="http://www.w3.org/2000/svg">
<g id="standalone / md / arrow-up-from-square-md / bold">
<path id="icon" d="M16.6641 6.77344L21 11.1484C21.3906 11.5391 21.3906 12.125 21 12.4766C20.6484 12.8672 20.0625 12.8672 19.6719 12.4766L16.8984 9.70312V19.3125C16.8984 19.8594 16.5078 20.25 15.9609 20.25C15.4531 20.25 15.0234 19.8594 15.0234 19.3125V9.70312L12.25 12.4766C11.8984 12.8672 11.3125 12.8672 10.9609 12.4766C10.5703 12.125 10.5703 11.5391 10.9609 11.1484L15.3359 6.77344C15.6875 6.42188 16.2734 6.42188 16.6641 6.77344ZM8.8125 7.75H9.125C9.63281 7.75 10.0625 8.17969 10.0625 8.6875C10.0625 9.23438 9.63281 9.625 9.125 9.625H8.8125C8.26562 9.625 7.875 10.0547 7.875 10.5625V23.6875C7.875 24.2344 8.26562 24.625 8.8125 24.625H23.1875C23.6953 24.625 24.125 24.2344 24.125 23.6875V10.5625C24.125 10.0547 23.6953 9.625 23.1875 9.625H22.875C22.3281 9.625 21.9375 9.23438 21.9375 8.6875C21.9375 8.17969 22.3281 7.75 22.875 7.75H23.1875C24.7109 7.75 26 9.03906 26 10.5625V23.6875C26 25.25 24.7109 26.5 23.1875 26.5H8.8125C7.25 26.5 6 25.25 6 23.6875V10.5625C6 9.03906 7.25 7.75 8.8125 7.75Z" fill="black" fill-opacity="0.72"/>
</g>
</svg>
