<svg width="32" height="32" viewBox="0 0 32 32" fill="none" xmlns="http://www.w3.org/2000/svg">
<g id="standalone / md / clapperboard-play-md / regular">
<path id="icon" d="M24.75 14H7.25V22.75C7.25 23.4531 7.79688 24 8.5 24H23.5C24.1641 24 24.75 23.4531 24.75 22.75V14ZM24.75 12.75V10.25C24.75 9.89844 24.5938 9.58594 24.3203 9.35156L20.9219 12.75H24.75ZM14.9844 12.75H19.1641L22.9141 9H18.7344L14.9844 12.75ZM13.2266 12.75L16.9766 9H12.7969L9.04688 12.75H13.2266ZM8.5 9C7.79688 9 7.25 9.58594 7.25 10.25V12.75H7.28906L11.0391 9H8.5ZM26 12.75V13.375V14V22.75C26 24.1562 24.8672 25.25 23.5 25.25H8.5C7.09375 25.25 6 24.1562 6 22.75V14V13.375V12.75V10.25C6 8.88281 7.09375 7.75 8.5 7.75H23.5C24.8672 7.75 26 8.88281 26 10.25V12.75ZM14.4375 15.3672L19.75 18.4922C19.9453 18.6094 20.0625 18.8047 20.0625 19C20.0625 19.2344 19.9453 19.4297 19.75 19.5469L14.4375 22.6719C14.2422 22.7891 14.0078 22.7891 13.8125 22.6719C13.6172 22.5547 13.4609 22.3594 13.4609 22.125V15.875C13.4609 15.6797 13.6172 15.4453 13.8125 15.3672C14.0078 15.25 14.2422 15.25 14.4375 15.3672ZM18.1875 19L14.75 16.9688V21.0312L18.1875 19Z" fill="black" fill-opacity="0.72"/>
</g>
</svg>
