<svg width="32" height="32" viewBox="0 0 32 32" fill="none" xmlns="http://www.w3.org/2000/svg">
<g id="standalone / md / fingerprint-md / regular">
<path id="icon" d="M7.25 16.5V18.375C7.25 18.7266 6.9375 19 6.625 19C6.27344 19 6 18.7266 6 18.375V16.5C6 10.9922 10.4531 6.5 16 6.5C19.125 6.5 21.9375 7.94531 23.7734 10.2109C23.9688 10.4844 23.9297 10.875 23.6562 11.1094C23.3828 11.3047 22.9922 11.2656 22.7969 10.9922C21.1953 9.03906 18.7344 7.75 16 7.75C11.1562 7.75 7.25 11.6953 7.25 16.5ZM25.6094 13.8438C25.8438 14.7031 26 15.6016 26 16.5V18.375C26 18.7266 25.6875 19 25.375 19C25.0234 19 24.75 18.7266 24.75 18.375V16.5C24.75 15.7188 24.6328 14.9375 24.3984 14.1953C24.3203 13.8438 24.5156 13.4922 24.8672 13.4141C25.1797 13.3359 25.5312 13.5312 25.6094 13.8438ZM16 9.625H15.9609C19.7891 9.625 22.8359 12.7109 22.8359 16.5V17.4766C22.8359 18.6484 22.7969 19.8203 22.6406 20.9922C22.6016 21.3047 22.3281 21.5 22.0156 21.5C21.625 21.5 21.3516 21.1875 21.3906 20.7969C21.5469 19.7031 21.625 18.6094 21.625 17.4766V16.5C21.625 13.4141 19.0859 10.875 16 10.875C15.2969 10.875 14.6328 11.0312 14.0078 11.2266C13.7734 11.3438 13.4609 11.2656 13.2656 11.0703C12.9922 10.7578 13.0703 10.25 13.4609 10.1328C14.2422 9.82031 15.1016 9.625 16 9.625ZM11.6641 12.0859C11.8594 12.3203 11.8594 12.7109 11.625 12.9453C10.8438 13.9219 10.375 15.1719 10.375 16.5V17.4766C10.375 18.6875 10.2188 19.8984 9.90625 21.0703C9.82812 21.3438 9.59375 21.5 9.32031 21.5C8.89062 21.5 8.61719 21.1094 8.69531 20.7188C8.96875 19.6641 9.125 18.5703 9.125 17.4766V16.5C9.125 14.8203 9.71094 13.2578 10.7656 12.0469C11 11.7734 11.4297 11.8125 11.6641 12.0859ZM16 12.75C18.0703 12.75 19.75 14.4297 19.75 16.5V17.4766C19.75 19.1172 19.5547 20.7188 19.2422 22.2812C19.2031 22.5547 18.9297 22.75 18.6562 22.75C18.2266 22.75 17.9531 22.3984 18.0312 22.0078C18.3438 20.5234 18.5 19 18.5 17.4766V16.5C18.5 15.1328 17.3672 14 16 14C14.5938 14 13.5 15.1328 13.5 16.5V17.4766C13.5 19.1172 13.2656 20.7578 12.7969 22.3203C12.7188 22.5938 12.4844 22.75 12.2109 22.75C11.7812 22.75 11.5078 22.3594 11.625 21.9297C12.0156 20.4844 12.25 19 12.25 17.4766V16.5C12.25 14.4297 13.9297 12.75 16 12.75ZM16.625 16.5V17.4766C16.625 20.0156 16.1562 22.5156 15.2188 24.8984L14.9844 25.4844C14.8672 25.8359 14.5156 25.9922 14.2031 25.8359C13.8516 25.7188 13.6953 25.3672 13.8516 25.0547L14.0469 24.4297C14.9062 22.2422 15.375 19.8594 15.375 17.4766V16.5C15.375 16.1875 15.6484 15.875 16 15.875C16.3125 15.875 16.625 16.1875 16.625 16.5Z" fill="black" fill-opacity="0.72"/>
</g>
</svg>
