<svg width="32" height="32" viewBox="0 0 32 32" fill="none" xmlns="http://www.w3.org/2000/svg">
<g id="standalone / md / bell-slash-md / bold">
<path id="icon" d="M4.98438 6.73438L10.7656 11.2266C11.6641 9.85938 13.0703 8.84375 14.75 8.53125V7.75C14.75 7.08594 15.2969 6.5 16 6.5C16.6641 6.5 17.25 7.08594 17.25 7.75V8.53125C20.1016 9.07812 22.25 11.6172 22.25 14.625V15.6406C22.25 17.3984 22.8359 19.1172 23.9297 20.5234L24.5156 21.2266C24.7109 21.5 24.7891 21.8516 24.6719 22.125L28.1094 24.8594C28.5391 25.1719 28.6172 25.7578 28.2656 26.1484C27.9531 26.5781 27.3672 26.6562 26.9766 26.3047L3.85156 8.17969C3.42188 7.86719 3.34375 7.28125 3.69531 6.89062C4.00781 6.46094 4.59375 6.38281 4.98438 6.73438ZM12.25 12.3984L21.0781 19.3125C20.6094 18.1797 20.375 16.9297 20.375 15.6406V14.625C20.375 12.2422 18.3828 10.25 16 10.25C14.3984 10.25 12.9922 11.1094 12.25 12.3984ZM19.3594 22.75H8.1875C7.79688 22.75 7.48438 22.5547 7.32812 22.2422C7.17188 21.9297 7.21094 21.5391 7.44531 21.2266L8.03125 20.5234C9.125 19.1172 9.75 17.3984 9.75 15.6406V15.2109L11.5469 16.6172C11.3906 18.1406 10.8828 19.625 10.0625 20.875H16.9766L19.3594 22.75ZM18.5 24C18.5 24.6641 18.2266 25.3281 17.7578 25.7969C17.2891 26.2656 16.6641 26.5 16 26.5C15.3359 26.5 14.6719 26.2656 14.2031 25.7969C13.7344 25.3281 13.5 24.6641 13.5 24H16H18.5Z" fill="black" fill-opacity="0.72"/>
</g>
</svg>
