<svg width="32" height="32" viewBox="0 0 32 32" fill="none" xmlns="http://www.w3.org/2000/svg">
<g id="standalone / md / six-md / regular">
<path id="icon" d="M21 19C21 16.2656 18.7344 14 16 14C13.2656 14 11.0391 16.1875 11 18.8828C11 18.9219 11 18.9609 11 19C11 21.7734 13.2266 24 16 24C18.7344 24 21 21.7734 21 19ZM14.6719 12.9062C15.1016 12.8281 15.5312 12.75 16 12.75C19.4375 12.75 22.25 15.5625 22.25 19C22.25 22.4766 19.4375 25.25 16 25.25C12.5234 25.25 9.75 22.4766 9.75 19C9.75 18.9219 9.75 18.8828 9.75 18.8047C9.78906 17.3203 10.375 15.875 11.3516 14.7812L17.4062 7.98438C17.6016 7.71094 18.0312 7.71094 18.2656 7.94531C18.5391 8.14062 18.5391 8.57031 18.3047 8.80469L14.6719 12.9062Z" fill="black" fill-opacity="0.72"/>
</g>
</svg>
