<svg width="32" height="32" viewBox="0 0 32 32" fill="none" xmlns="http://www.w3.org/2000/svg">
<g id="standalone / md / fingerprint-md / bold">
<path id="icon" d="M7.875 16.5V18.0625C7.875 18.6094 7.44531 19 6.9375 19C6.39062 19 6 18.6094 6 18.0625V16.5C6 10.9922 10.4531 6.5 16 6.5C19.0078 6.5 21.7422 7.86719 23.5781 10.0156C23.8906 10.4062 23.8516 10.9922 23.4609 11.3438C23.0703 11.6562 22.4844 11.6172 22.1328 11.2266C20.6484 9.50781 18.4609 8.375 16 8.375C11.5078 8.375 7.875 12.0469 7.875 16.5ZM25.7656 14.4688C25.9219 15.1328 26 15.7969 26 16.5V18.1016C26 18.6094 25.5703 19.0391 25.0625 19.0391C24.5156 19.0391 24.125 18.6094 24.125 18.1016V16.5391C24.125 15.9531 24.0469 15.3672 23.9297 14.8203C23.8125 14.3516 24.1641 13.8438 24.6719 13.7266C25.1797 13.6094 25.6484 13.9609 25.7656 14.4688ZM16 9.625C19.7891 9.625 22.875 12.7109 22.875 16.5V17.4766C22.875 18.5703 22.7969 19.6641 22.6797 20.7188C22.6016 21.1875 22.2109 21.5 21.7422 21.5C21.1953 21.5 20.7266 20.9922 20.8047 20.4453C20.9219 19.4688 21 18.4922 21 17.4766V16.5C21 13.7656 18.7344 11.5 16 11.5C15.5312 11.5 15.1016 11.5781 14.6719 11.6953C14.2812 11.8125 13.8125 11.6953 13.5391 11.3828C13.1094 10.9141 13.2656 10.1719 13.8516 9.97656C14.5156 9.74219 15.2578 9.625 16 9.625ZM11.8594 12.3203C12.1719 12.7109 12.1719 13.2578 11.8594 13.6484C11.3125 14.4688 11 15.4453 11 16.5V17.4766C11 18.6094 10.8438 19.7422 10.6094 20.8359C10.5312 21.2266 10.1406 21.5 9.75 21.5C9.125 21.5 8.65625 20.9141 8.8125 20.2891C9.00781 19.3906 9.125 18.4531 9.125 17.4766V16.5C9.125 14.9375 9.63281 13.4531 10.5312 12.3203C10.8828 11.8906 11.5078 11.9297 11.8594 12.3203ZM19.75 16.5V17.4766C19.75 19.0391 19.5938 20.6016 19.2812 22.0859C19.2031 22.4766 18.8516 22.75 18.4609 22.75C17.9141 22.75 17.4844 22.2422 17.6016 21.6953C17.875 20.3281 18.0312 18.9219 18.0312 17.4766V16.5C18.0312 15.4062 17.0938 14.4688 16 14.4688C14.8672 14.4688 13.9688 15.4062 13.9688 16.5V17.4766C13.9688 19.0781 13.7344 20.6406 13.3438 22.1641C13.2266 22.5156 12.9141 22.75 12.5234 22.75C11.9375 22.75 11.5469 22.2031 11.7031 21.6172C12.0547 20.2891 12.25 18.8828 12.25 17.4766V16.5C12.25 14.4297 13.9297 12.75 16 12.75C18.0703 12.75 19.75 14.4297 19.75 16.5ZM16 15.5625C16.5078 15.5625 16.9375 15.9922 16.9375 16.5V17.4766C16.9375 20.0547 16.4297 22.5938 15.5312 25.0156L15.2969 25.6016C15.1016 26.0703 14.5547 26.3438 14.0859 26.1484C13.6172 25.9531 13.3438 25.4062 13.5391 24.9375L13.7734 24.3516C14.6328 22.1641 15.0625 19.8203 15.0625 17.4766V16.5C15.0625 15.9922 15.4531 15.5625 16 15.5625Z" fill="black" fill-opacity="0.72"/>
</g>
</svg>
