<svg width="32" height="32" viewBox="0 0 32 32" fill="none" xmlns="http://www.w3.org/2000/svg">
<g id="standalone / md / memo-pad-md / bold">
<path id="icon" d="M22.875 11.5H9.125V24C9.125 24.3516 9.39844 24.625 9.75 24.625H22.25C22.5625 24.625 22.875 24.3516 22.875 24V11.5ZM9.75 6.5H22.25C23.6172 6.5 24.75 7.63281 24.75 9V24C24.75 25.4062 23.6172 26.5 22.25 26.5H9.75C8.34375 26.5 7.25 25.4062 7.25 24V9C7.25 7.63281 8.34375 6.5 9.75 6.5ZM11 14.3125C11 13.8047 11.3906 13.375 11.9375 13.375H20.0625C20.5703 13.375 21 13.8047 21 14.3125C21 14.8594 20.5703 15.25 20.0625 15.25H11.9375C11.3906 15.25 11 14.8594 11 14.3125ZM11 18.0625C11 17.5547 11.3906 17.125 11.9375 17.125H20.0625C20.5703 17.125 21 17.5547 21 18.0625C21 18.6094 20.5703 19 20.0625 19H11.9375C11.3906 19 11 18.6094 11 18.0625ZM11 21.8125C11 21.3047 11.3906 20.875 11.9375 20.875H16.3125C16.8203 20.875 17.25 21.3047 17.25 21.8125C17.25 22.3594 16.8203 22.75 16.3125 22.75H11.9375C11.3906 22.75 11 22.3594 11 21.8125Z" fill="black" fill-opacity="0.72"/>
</g>
</svg>
