<svg width="32" height="32" viewBox="0 0 32 32" fill="none" xmlns="http://www.w3.org/2000/svg">
<g id="standalone / md / arrow-right-md / bold">
<path id="icon" d="M24.4375 17.2031L17.5625 23.7656C17.1719 24.1172 16.5859 24.1172 16.2344 23.7266C15.8828 23.3359 15.8828 22.75 16.2734 22.3984L21.4688 17.4375H8.1875C7.64062 17.4375 7.25 17.0469 7.25 16.5C7.25 15.9922 7.64062 15.5625 8.1875 15.5625H21.4688L16.2734 10.6406C15.8828 10.2891 15.8828 9.66406 16.2344 9.3125C16.5859 8.92188 17.2109 8.92188 17.5625 9.27344L24.4375 15.8359C24.6328 16.0312 24.75 16.2656 24.75 16.5C24.75 16.7734 24.6328 17.0078 24.4375 17.2031Z" fill="black" fill-opacity="0.72"/>
</g>
</svg>
