<svg width="32" height="32" viewBox="0 0 32 32" fill="none" xmlns="http://www.w3.org/2000/svg">
<g id="standalone / md / location-crosshairs-slash-md / bold">
<path id="icon" d="M4.98438 6.73438L10.6875 11.1875C11.8594 10.0547 13.3438 9.27344 15.0625 9.07812V7.4375C15.0625 6.92969 15.4531 6.5 16 6.5C16.5078 6.5 16.9375 6.92969 16.9375 7.4375V9.07812C20.2969 9.50781 22.9922 12.2031 23.4219 15.5625H25.0625C25.5703 15.5625 26 15.9922 26 16.5C26 17.0469 25.5703 17.4375 25.0625 17.4375H23.4219C23.3047 18.4922 22.9531 19.5078 22.4062 20.3672L28.1094 24.8594C28.5391 25.1719 28.6172 25.7578 28.2656 26.1484C27.9531 26.5781 27.3672 26.6562 26.9766 26.3047L3.85156 8.17969C3.42188 7.86719 3.34375 7.28125 3.69531 6.89062C4.00781 6.46094 4.59375 6.38281 4.98438 6.73438ZM12.2109 12.3594L13.6953 13.5312C14.3203 13.0625 15.1406 12.75 16 12.75C18.0703 12.75 19.75 14.4297 19.75 16.5C19.75 17.0469 19.6328 17.5547 19.4375 18.0234L20.9219 19.1953C21.3516 18.4141 21.625 17.4766 21.625 16.5C21.625 13.4141 19.0859 10.875 16 10.875C14.5156 10.875 13.1875 11.4609 12.2109 12.3594ZM17.8359 16.7734C17.8359 16.6953 17.8359 16.6172 17.8359 16.5C17.8359 15.4844 17.0156 14.625 15.9609 14.625C15.7266 14.625 15.4922 14.7031 15.2969 14.7812L17.8359 16.7734ZM18.0703 21.7344L19.6719 23.0234C18.8516 23.5312 17.9141 23.8438 16.9375 23.9609V25.5625C16.9375 26.1094 16.5078 26.5 16 26.5C15.4531 26.5 15.0625 26.1094 15.0625 25.5625V23.9609C11.6641 23.5312 8.96875 20.8359 8.53906 17.4766H6.9375C6.39062 17.4766 6 17.0469 6 16.5391C6 15.9922 6.39062 15.6016 6.9375 15.6016H8.53906C8.57812 15.1719 8.65625 14.8203 8.77344 14.4297L10.4141 15.7188C10.375 15.9922 10.375 16.2656 10.375 16.5C10.375 19.625 12.875 22.125 16 22.125C16.7031 22.125 17.4062 22.0078 18.0703 21.7344Z" fill="black" fill-opacity="0.72"/>
</g>
</svg>
