<svg width="32" height="32" viewBox="0 0 32 32" fill="none" xmlns="http://www.w3.org/2000/svg">
<g id="standalone / md / circle-star-md / regular">
<path id="icon" d="M16 7.75C12.8359 7.75 9.98438 9.42969 8.42188 12.125C6.82031 14.8594 6.82031 18.1797 8.42188 20.875C9.98438 23.6094 12.8359 25.25 16 25.25C19.125 25.25 21.9766 23.6094 23.5391 20.875C25.1406 18.1797 25.1406 14.8594 23.5391 12.125C21.9766 9.42969 19.125 7.75 16 7.75ZM16 26.5C12.4062 26.5 9.125 24.625 7.32812 21.5C5.53125 18.4141 5.53125 14.625 7.32812 11.5C9.125 8.41406 12.4062 6.5 16 6.5C19.5547 6.5 22.8359 8.41406 24.6328 11.5C26.4297 14.625 26.4297 18.4141 24.6328 21.5C22.8359 24.625 19.5547 26.5 16 26.5ZM16.5469 10.9141L17.9531 13.8047L21.1172 14.2734C21.3516 14.3125 21.5469 14.4688 21.625 14.7031C21.7031 14.8984 21.6641 15.1719 21.4688 15.3281L19.2031 17.5547L19.7109 20.7188C19.75 20.9531 19.6719 21.1875 19.4766 21.3047C19.2812 21.4609 19.0078 21.4609 18.8125 21.3828L16 19.8984L13.1484 21.3828C12.9531 21.4609 12.6797 21.4609 12.4844 21.3047C12.2891 21.1875 12.2109 20.9531 12.25 20.7188L12.7969 17.5547L10.4922 15.3281C10.3359 15.1719 10.2578 14.8984 10.3359 14.6641C10.4141 14.4688 10.6094 14.2734 10.8438 14.2734L14.0078 13.8047L15.4141 10.9141C15.5312 10.7188 15.7656 10.5625 16 10.5625C16.2344 10.5625 16.4297 10.7188 16.5469 10.9141ZM14.9844 14.625C14.9062 14.8203 14.7109 14.9375 14.5156 14.9766L12.2891 15.3281L13.8906 16.8906C14.0469 17.0469 14.125 17.2422 14.0859 17.4375L13.6953 19.6641L15.6875 18.6094C15.8828 18.5312 16.0781 18.5312 16.2734 18.6094L18.2656 19.6641L17.875 17.4375C17.8359 17.2422 17.9141 17.0469 18.0703 16.8906L19.6719 15.3281L17.4453 14.9766C17.25 14.9766 17.0547 14.8203 16.9766 14.6641L16 12.6328L14.9844 14.625Z" fill="black" fill-opacity="0.72"/>
</g>
</svg>
