<svg width="32" height="32" viewBox="0 0 32 32" fill="none" xmlns="http://www.w3.org/2000/svg">
<g id="standalone / md / lock-pattern-md / regular">
<path id="icon" d="M6.625 9C6.625 7.98438 7.44531 7.125 8.5 7.125C9.28125 7.125 9.98438 7.67188 10.2578 8.375H14.2031C14.4766 7.67188 15.1797 7.125 16 7.125C16.7812 7.125 17.4844 7.67188 17.7578 8.375H21.7031C21.9766 7.67188 22.6797 7.125 23.5 7.125C24.5156 7.125 25.375 7.98438 25.375 9C25.375 10.0547 24.5156 10.875 23.5 10.875C23.1875 10.875 22.9141 10.8359 22.6797 10.7188L17.6797 15.7188C17.7969 15.9531 17.875 16.2266 17.875 16.5C17.875 17.5547 17.0156 18.375 16 18.375C15.6875 18.375 15.4141 18.3359 15.1797 18.2188L10.1797 23.2188C10.2188 23.2578 10.2188 23.3359 10.2578 23.375H14.2031C14.4766 22.6719 15.1797 22.125 16 22.125C16.7812 22.125 17.4844 22.6719 17.7578 23.375H21.7031C21.9766 22.6719 22.6797 22.125 23.5 22.125C24.5156 22.125 25.375 22.9844 25.375 24C25.375 25.0547 24.5156 25.875 23.5 25.875C22.6797 25.875 21.9766 25.3672 21.7031 24.625H17.7578C17.4844 25.3672 16.7812 25.875 16 25.875C15.1797 25.875 14.4766 25.3672 14.2031 24.625H10.2578C9.98438 25.3672 9.28125 25.875 8.46094 25.875C7.44531 25.875 6.58594 25.0547 6.58594 24C6.58594 22.9844 7.44531 22.125 8.46094 22.125C8.77344 22.125 9.04688 22.2031 9.28125 22.3203L14.2812 17.3203C14.1641 17.0859 14.0859 16.8125 14.0859 16.5C14.0859 15.4844 14.9453 14.625 15.9609 14.625C16.2734 14.625 16.5469 14.7031 16.7812 14.8203L21.7812 9.82031C21.7422 9.78125 21.7422 9.70312 21.7031 9.625H17.7578C17.4844 10.3672 16.7812 10.875 16 10.875C15.1797 10.875 14.4766 10.3672 14.2031 9.625H10.2578C9.98438 10.3672 9.28125 10.875 8.5 10.875C7.44531 10.875 6.625 10.0547 6.625 9ZM6.625 16.5C6.625 17.2031 6.97656 17.7891 7.5625 18.1406C8.10938 18.4922 8.85156 18.4922 9.4375 18.1406C9.98438 17.7891 10.375 17.2031 10.375 16.5C10.375 15.8359 9.98438 15.25 9.4375 14.8984C8.85156 14.5469 8.10938 14.5469 7.5625 14.8984C6.97656 15.25 6.625 15.8359 6.625 16.5ZM21.625 16.5C21.625 17.2031 21.9766 17.7891 22.5625 18.1406C23.1094 18.4922 23.8516 18.4922 24.4375 18.1406C24.9844 17.7891 25.375 17.2031 25.375 16.5C25.375 15.8359 24.9844 15.25 24.4375 14.8984C23.8516 14.5469 23.1094 14.5469 22.5625 14.8984C21.9766 15.25 21.625 15.8359 21.625 16.5Z" fill="black" fill-opacity="0.72"/>
</g>
</svg>
