<svg width="32" height="32" viewBox="0 0 32 32" fill="none" xmlns="http://www.w3.org/2000/svg">
<g id="standalone / md / apple-md">
<path id="icon" d="M20.9219 17.0078C20.9219 17.0859 20.8047 19.3906 23.3438 20.6016C22.875 22.0469 21.2344 25.25 19.3203 25.25C18.2266 25.25 17.6016 24.5469 16.3516 24.5469C15.0625 24.5469 14.3594 25.25 13.3828 25.25C11.5078 25.3281 9.71094 21.8125 9.20312 20.3672C8.8125 19.2734 8.65625 18.2188 8.65625 17.2031C8.65625 13.7266 10.9609 12.0469 13.1484 12.0078C14.2031 12.0078 15.5312 12.75 16.1172 12.75C16.6641 12.75 18.1875 11.8516 19.5938 11.9688C21.0391 12.0859 22.1328 12.6328 22.875 13.6875C21.5859 14.5078 20.9219 15.5625 20.9219 17.0078ZM18.7344 10.6016C17.9531 11.5 17.0156 12.0078 16 11.9297C15.9219 10.875 16.3125 9.89844 17.0156 9.11719C17.6406 8.41406 18.7344 7.82812 19.6719 7.75C19.6719 8.17969 19.7891 9.35156 18.7344 10.6016Z" fill="black" fill-opacity="0.72"/>
</g>
</svg>
