<svg width="32" height="32" viewBox="0 0 32 32" fill="none" xmlns="http://www.w3.org/2000/svg">
<g id="standalone / md / circle-sterling-md / fill">
<path id="icon" d="M16 26.5C12.4062 26.5 9.125 24.625 7.32812 21.5C5.53125 18.4141 5.53125 14.625 7.32812 11.5C9.125 8.41406 12.4062 6.5 16 6.5C19.5547 6.5 22.8359 8.41406 24.6328 11.5C26.4297 14.625 26.4297 18.4141 24.6328 21.5C22.8359 24.625 19.5547 26.5 16 26.5ZM16.1953 12.75C16.3516 12.75 16.5078 12.7891 16.625 12.8672L17.8359 13.3359C18.3047 13.5312 18.8516 13.2969 19.0469 12.7891C19.2422 12.3203 19.0078 11.7734 18.5391 11.5781L17.3281 11.1094C16.9766 10.9531 16.5859 10.875 16.1953 10.875C14.5156 10.875 13.1484 12.2812 13.1484 13.9609V15.25H12.875C12.5234 15.25 12.25 15.5625 12.25 15.875C12.25 16.2266 12.5234 16.5 12.875 16.5H13.1484V16.9297C13.1484 17.5547 13.0312 18.2188 12.7188 18.8047L12.3281 19.5078C12.1719 19.8203 12.2109 20.1719 12.3672 20.4453C12.5234 20.7188 12.8359 20.875 13.1875 20.875H18.8125C19.3203 20.875 19.75 20.4844 19.75 19.9375C19.75 19.4297 19.3203 19 18.8125 19H14.6719C14.9062 18.3359 15.0234 17.6328 15.0234 16.8906V16.5H16.625C16.9375 16.5 17.25 16.2266 17.25 15.875C17.25 15.5625 16.9375 15.25 16.625 15.25H15.0234V13.9609C15.0234 13.2969 15.5312 12.75 16.1953 12.75Z" fill="black" fill-opacity="0.72"/>
</g>
</svg>
