<svg width="32" height="32" viewBox="0 0 32 32" fill="none" xmlns="http://www.w3.org/2000/svg">
<g id="standalone / md / thumbs-up-md / bold">
<path id="icon" d="M18.6172 7.86719C20.1406 8.29688 21 9.85938 20.5703 11.3438L20.3359 12.125C20.2188 12.5547 20.0625 12.9844 19.8672 13.375H23.5C24.8672 13.375 26 14.5078 26 15.875C26 16.5781 25.6875 17.2031 25.2578 17.6719C25.3359 17.9062 25.375 18.1406 25.375 18.4141C25.375 19.1953 24.9844 19.9375 24.3594 20.4062C24.3984 20.5625 24.4375 20.7188 24.4375 20.9141C24.4375 21.6953 24.0469 22.3984 23.5 22.8672C23.4219 24.1953 22.3281 25.2891 21 25.2891H17.1719C16.3125 25.2891 15.4531 25.0156 14.75 24.5469L12.3281 22.9453C11.8984 22.6328 11.7812 22.0859 12.0938 21.6172C12.3672 21.1875 12.9531 21.0703 13.3828 21.3828L15.8047 22.9844C16.1953 23.2578 16.6641 23.4141 17.1719 23.4141H21C21.3125 23.4141 21.625 23.1016 21.625 22.7891C21.625 22.7109 21.5859 22.6719 21.5859 22.5938C21.4688 22.125 21.7031 21.6562 22.1328 21.4609C22.3672 21.3828 22.5625 21.1484 22.5625 20.9141C22.5625 20.7578 22.4844 20.6016 22.4062 20.5234C22.2109 20.25 22.1719 19.8984 22.2891 19.5859C22.3672 19.2734 22.6406 19.0781 22.9922 19C23.2656 18.9609 23.5 18.6875 23.5 18.375C23.5 18.2188 23.4219 18.1016 23.3438 17.9844C23.1094 17.75 23.0312 17.4375 23.1094 17.125C23.1875 16.8125 23.4219 16.5781 23.6953 16.4609C23.9297 16.3828 24.125 16.1484 24.125 15.875C24.125 15.5625 23.8125 15.25 23.5 15.25H18.2656C17.9141 15.25 17.6016 15.0547 17.4453 14.7422C17.2891 14.4297 17.2891 14.0781 17.4844 13.8047C17.9531 13.1406 18.3047 12.3984 18.5391 11.6172L18.7734 10.8359C18.8906 10.3281 18.6172 9.82031 18.1094 9.66406C17.6016 9.54688 17.0938 9.82031 16.9375 10.3281L16.7422 11.1094C16.5078 11.8906 16.1172 12.5938 15.5703 13.2188L13.5391 15.4062C13.1875 15.7969 12.6016 15.8359 12.2109 15.4844C11.8594 15.1328 11.8203 14.5469 12.1719 14.1562L14.1641 11.9688C14.5156 11.5781 14.7891 11.1094 14.9453 10.6016L15.1406 9.82031C15.5703 8.29688 17.1328 7.4375 18.6172 7.86719ZM7.25 14H9.75C10.4141 14 11 14.5859 11 15.25V24C11 24.7031 10.4141 25.25 9.75 25.25H7.25C6.54688 25.25 6 24.7031 6 24V15.25C6 14.5859 6.54688 14 7.25 14Z" fill="black" fill-opacity="0.72"/>
</g>
</svg>
