<svg width="32" height="32" viewBox="0 0 32 32" fill="none" xmlns="http://www.w3.org/2000/svg">
<g id="standalone / md / search-md / regular">
<path id="icon" d="M21 14.625C21 12.2031 19.6719 9.9375 17.5625 8.6875C15.4141 7.47656 12.7969 7.47656 10.6875 8.6875C8.53906 9.9375 7.25 12.2031 7.25 14.625C7.25 17.0859 8.53906 19.3516 10.6875 20.6016C12.7969 21.8125 15.4141 21.8125 17.5625 20.6016C19.6719 19.3516 21 17.0859 21 14.625ZM19.3984 20.7969C17.9922 22.0469 16.1172 22.75 14.125 22.75C9.63281 22.75 6 19.1172 6 14.625C6 10.1719 9.63281 6.5 14.125 6.5C18.5781 6.5 22.25 10.1719 22.25 14.625C22.25 16.6562 21.5078 18.4922 20.2969 19.9375L25.8047 25.4453C26.0391 25.6797 26.0391 26.1094 25.8047 26.3438C25.5703 26.5781 25.1406 26.5781 24.9062 26.3438L19.3984 20.7969Z" fill="black" fill-opacity="0.72"/>
</g>
</svg>
