<svg width="32" height="32" viewBox="0 0 32 32" fill="none" xmlns="http://www.w3.org/2000/svg">
<g id="standalone / md / phone-md / bold">
<path id="icon" d="M20.6484 17.2812L25.0234 19.1562C25.7266 19.4297 26.1172 20.1719 25.9609 20.9141L25.0234 25.2891C24.8672 25.9922 24.2031 26.5391 23.5 26.5391C23.2266 26.5391 22.9922 26.5 22.7578 26.5C22.3672 26.5 21.9766 26.4609 21.625 26.4219C12.8359 25.4844 6 18.0625 6 9C6 8.29688 6.50781 7.63281 7.21094 7.47656L11.5859 6.53906C12.3281 6.38281 13.0703 6.77344 13.3438 7.47656L15.2188 11.8516C15.4922 12.4766 15.3359 13.2188 14.7891 13.6484L13.1875 14.9766C14.2422 16.7734 15.7266 18.2578 17.5234 19.3125L18.8516 17.7109C19.2812 17.1641 20.0234 17.0078 20.6484 17.2812ZM23.2266 24.625L24.0469 20.7578L20.1406 19.0781L19.0078 20.4844C18.4219 21.1875 17.4062 21.3828 16.5859 20.9141C14.5156 19.7031 12.7969 17.9844 11.5859 15.9141C11.1172 15.0938 11.3125 14.0781 12.0156 13.4922L13.4219 12.3594L11.7422 8.45312L7.875 9.27344C7.99219 17.7109 14.7891 24.5078 23.2266 24.625Z" fill="black" fill-opacity="0.72"/>
</g>
</svg>
