<svg width="32" height="32" viewBox="0 0 32 32" fill="none" xmlns="http://www.w3.org/2000/svg">
<g id="standalone / md / presentation-screen-md / regular">
<path id="icon" d="M5.375 6.5H26.625C26.9375 6.5 27.25 6.8125 27.25 7.125C27.25 7.47656 26.9375 7.75 26.625 7.75H5.375C5.02344 7.75 4.75 7.47656 4.75 7.125C4.75 6.8125 5.02344 6.5 5.375 6.5ZM6 9H7.25V17.75C7.25 18.4531 7.79688 19 8.5 19H16H23.5C24.1641 19 24.75 18.4531 24.75 17.75V9H26V17.75C26 19.1562 24.8672 20.25 23.5 20.25H16.625V21.8906L20.1797 25.4453C20.4141 25.6797 20.4141 26.1094 20.1797 26.3438C19.9453 26.5781 19.5156 26.5781 19.2812 26.3438L16 23.0234L12.6797 26.3438C12.4453 26.5781 12.0156 26.5781 11.7812 26.3438C11.5469 26.1094 11.5469 25.6797 11.7812 25.4453L15.375 21.8906V20.25H8.5C7.09375 20.25 6 19.1562 6 17.75V9Z" fill="black" fill-opacity="0.72"/>
</g>
</svg>
