<svg width="32" height="32" viewBox="0 0 32 32" fill="none" xmlns="http://www.w3.org/2000/svg">
<g id="standalone / md / sliders-md / bold">
<path id="icon" d="M6 22.75C6 22.2422 6.39062 21.8125 6.9375 21.8125H9.24219C9.63281 20.5625 10.8438 19.625 12.25 19.625C13.6172 19.625 14.8281 20.5625 15.2188 21.8125H25.0625C25.5703 21.8125 26 22.2422 26 22.75C26 23.2969 25.5703 23.6875 25.0625 23.6875H15.2188C14.8281 24.9766 13.6172 25.875 12.25 25.875C10.8438 25.875 9.63281 24.9766 9.24219 23.6875H6.9375C6.39062 23.6875 6 23.2969 6 22.75ZM11 22.75C11 23.4531 11.5469 24 12.25 24C12.9141 24 13.5 23.4531 13.5 22.75C13.5 22.0859 12.9141 21.5 12.25 21.5C11.5469 21.5 11 22.0859 11 22.75ZM18.5 16.5C18.5 17.2031 19.0469 17.75 19.75 17.75C20.4141 17.75 21 17.2031 21 16.5C21 15.8359 20.4141 15.25 19.75 15.25C19.0469 15.25 18.5 15.8359 18.5 16.5ZM19.75 13.375C21.1172 13.375 22.3281 14.3125 22.7188 15.5625H25.0625C25.5703 15.5625 26 15.9922 26 16.5C26 17.0469 25.5703 17.4375 25.0625 17.4375H22.7188C22.3281 18.7266 21.1172 19.625 19.75 19.625C18.3438 19.625 17.1328 18.7266 16.7422 17.4375H6.9375C6.39062 17.4375 6 17.0469 6 16.5C6 15.9922 6.39062 15.5625 6.9375 15.5625H16.7422C17.1328 14.3125 18.3438 13.375 19.75 13.375ZM13.5 11.5C14.1641 11.5 14.75 10.9531 14.75 10.25C14.75 9.58594 14.1641 9 13.5 9C12.7969 9 12.25 9.58594 12.25 10.25C12.25 10.9531 12.7969 11.5 13.5 11.5ZM16.4688 9.3125H25.0625C25.5703 9.3125 26 9.74219 26 10.25C26 10.7969 25.5703 11.1875 25.0625 11.1875H16.4688C16.0781 12.4766 14.8672 13.375 13.5 13.375C12.0938 13.375 10.8828 12.4766 10.4922 11.1875H6.9375C6.39062 11.1875 6 10.7969 6 10.25C6 9.74219 6.39062 9.3125 6.9375 9.3125H10.4922C10.8828 8.0625 12.0938 7.125 13.5 7.125C14.8672 7.125 16.0781 8.0625 16.4688 9.3125Z" fill="black" fill-opacity="0.72"/>
</g>
</svg>
