<svg width="32" height="32" viewBox="0 0 32 32" fill="none" xmlns="http://www.w3.org/2000/svg">
<g id="standalone / md / hand-gesture-tap-right-md / regular">
<path id="icon" d="M24.3594 7.75C24.1641 7.75 23.9688 7.94531 23.9688 8.14062V24.8984C23.9688 25.0938 24.1641 25.25 24.3594 25.25C24.5547 25.25 24.75 25.0938 24.75 24.8984V8.14062C24.75 7.94531 24.5547 7.75 24.3594 7.75ZM23.5 14.625C23.5 15.9531 22.4844 17.0078 21.1953 17.125L19.75 20.2109C19.7891 20.2891 19.8672 20.3672 19.9062 20.4844L20.2188 21.0703C20.4922 21.6172 20.4922 22.2422 20.2578 22.7891L20.0234 23.2578C19.4766 24.4297 18.3047 25.2109 17.0547 25.25H16.8203C16.1953 25.2891 15.6484 25.1719 15.1406 24.9375L12.1328 23.4922C10.7656 22.8672 10.1797 21.2266 10.8438 19.8594L11.8203 17.75C12.2109 16.9688 13.1484 16.6172 13.9297 17.0078C13.9297 17.0078 13.9688 17.0469 14.0078 17.0469C14.0469 17.0859 14.0859 17.0859 14.0859 17.125C14.5547 16.8125 15.1406 16.7344 15.6484 16.9688C15.8047 17.0078 15.8828 17.0859 16 17.1641C16.4297 16.8516 17.0547 16.7734 17.6016 17.0078C17.7969 17.0859 17.9531 17.2422 18.0703 17.3594L18.7734 15.8359C18.5781 15.4844 18.4609 15.0938 18.4609 14.625C18.4609 13.2578 19.5938 12.125 20.9609 12.125C22.3672 12.125 23.4609 13.2578 23.4609 14.625H23.5ZM21.8594 15.7969L21.625 16.2656C22.2891 16.0312 22.7188 15.3672 22.7188 14.625C22.7188 13.6875 21.9375 12.9062 21 12.9062C20.0234 12.9062 19.2422 13.6875 19.2422 14.625C19.2422 14.7422 19.2422 14.8203 19.2422 14.8984L19.3594 14.625C19.6719 13.9609 20.5312 13.6484 21.1953 13.9609C21.8594 14.2734 22.1719 15.1328 21.8594 15.7969ZM18.1094 21.8125L21.1562 15.4453C21.2734 15.1719 21.1562 14.8203 20.8438 14.6641C20.5703 14.5469 20.2188 14.6641 20.0625 14.9375L18.4219 18.4531C18.3438 18.6094 18.1875 18.6875 18.0312 18.6484C17.8359 18.6094 17.7188 18.4922 17.6797 18.3359C17.6406 18.0625 17.4844 17.8281 17.25 17.7109C16.9375 17.5547 16.5078 17.6719 16.3125 17.9844C16.2344 18.0625 16.1172 18.1406 15.9609 18.1406C15.8438 18.1406 15.7266 18.0625 15.6484 17.9453C15.5703 17.8281 15.4531 17.75 15.3359 17.6719C15.0234 17.5156 14.6328 17.5938 14.3984 17.8672C14.3203 17.9453 14.2422 18.0234 14.125 18.0234C14.0078 18.0234 13.8906 17.9453 13.8125 17.9062C13.7344 17.8281 13.6562 17.75 13.5781 17.7109C13.1875 17.5547 12.7188 17.7109 12.5234 18.1016L11.5469 20.2109C11.0781 21.1875 11.4688 22.3594 12.4453 22.8281L15.4531 24.2344C15.8828 24.4297 16.3125 24.5078 16.7812 24.4688L17.0156 24.5078C18.0312 24.4297 18.8906 23.8047 19.3203 22.9062L19.5547 22.4766C19.7109 22.125 19.6719 21.7734 19.5156 21.4219L19.3203 21.0703L18.8125 22.125C18.7344 22.3594 18.5 22.4375 18.3047 22.3203C18.1484 22.2422 18.0312 22.0078 18.1094 21.8125Z" fill="black" fill-opacity="0.72"/>
</g>
</svg>
