<svg width="32" height="32" viewBox="0 0 32 32" fill="none" xmlns="http://www.w3.org/2000/svg">
<g id="standalone / md / sparkles-md / regular">
<path id="icon" d="M22.875 7.75C23.1875 7.75 23.5 8.0625 23.5 8.375V10.25H25.375C25.6875 10.25 26 10.5625 26 10.875C26 11.2266 25.6875 11.5 25.375 11.5H23.5V13.375C23.5 13.7266 23.1875 14 22.875 14C22.5234 14 22.25 13.7266 22.25 13.375V11.5H20.375C20.0234 11.5 19.75 11.2266 19.75 10.875C19.75 10.5625 20.0234 10.25 20.375 10.25H22.25V8.375C22.25 8.0625 22.5234 7.75 22.875 7.75ZM22.875 19C23.1875 19 23.5 19.3125 23.5 19.625V21.5H25.375C25.6875 21.5 26 21.8125 26 22.125C26 22.4766 25.6875 22.75 25.375 22.75H23.5V24.625C23.5 24.9766 23.1875 25.25 22.875 25.25C22.5234 25.25 22.25 24.9766 22.25 24.625V22.75H20.375C20.0234 22.75 19.75 22.4766 19.75 22.125C19.75 21.8125 20.0234 21.5 20.375 21.5H22.25V19.625C22.25 19.3125 22.5234 19 22.875 19ZM11.3125 14.9766L8.10938 16.4609L11.3125 17.9453C11.5859 18.0625 11.8203 18.2969 11.9375 18.5703L13.4219 21.7734L14.9062 18.5703C15.0234 18.2969 15.2578 18.0625 15.5312 17.9453L18.7344 16.4609L15.5312 14.9766C15.2578 14.8594 15.0234 14.625 14.9062 14.3516L13.4219 11.1484L11.9375 14.3516C11.8203 14.625 11.5859 14.8594 11.3125 14.9766ZM10.8047 19.0781L6.35156 17.0469C6.11719 16.9297 6 16.6953 6 16.4609C6 16.2266 6.11719 15.9922 6.35156 15.9141L10.8047 13.8438L12.875 9.39062C12.9531 9.15625 13.1875 9 13.4219 9C13.6562 9 13.8906 9.15625 14.0078 9.39062L16.0391 13.8438L20.4922 15.875C20.7266 15.9922 20.8828 16.2266 20.8828 16.4609C20.8828 16.6953 20.7266 16.9297 20.4922 17.0078L16.0391 19.0781L14.0078 23.5312C13.8906 23.7656 13.6562 23.9219 13.4219 23.9219C13.1875 23.9219 12.9531 23.7656 12.875 23.5312L10.8047 19.0781Z" fill="black" fill-opacity="0.72"/>
</g>
</svg>
