<svg width="32" height="32" viewBox="0 0 32 32" fill="none" xmlns="http://www.w3.org/2000/svg">
<g id="standalone / md / puzzle-piece-two-md / fill">
<path id="icon" d="M15.5 8.0625C15.8906 8.0625 16.2031 8.21875 16.4375 8.45312C16.6328 8.6875 16.75 9 16.8281 9.35156V9.46875L16.75 9.58594C16.4375 9.9375 16.6719 10.5625 17.1797 10.5625H18.8203C19.2109 10.5625 19.5625 10.6797 19.8359 10.875C20.0703 11.0312 20.1875 11.2656 20.1875 11.5V17.4766H17.2969L17.375 17.125C17.375 17.0859 17.4141 17.0078 17.375 16.9688C17.3359 16.4609 17.1797 15.9531 16.8281 15.6016C16.5156 15.2109 16.0469 14.9766 15.4609 14.9766C14.9141 14.9766 14.4453 15.2109 14.0938 15.6016C13.7812 15.9531 13.625 16.4609 13.5859 16.9688C13.5859 17.0078 13.5859 17.0859 13.5859 17.125L13.6641 17.4766H10.7734V16.5C10.7734 16.4219 10.7734 16.1484 10.7344 15.9141C10.7344 15.7969 10.6953 15.6406 10.6562 15.5234C10.6172 15.4453 10.5781 15.2891 10.4609 15.2109C10.3438 15.1328 10.2266 15.0938 10.1094 15.0938C10.0312 15.1328 9.95312 15.1328 9.91406 15.1719C9.875 15.1719 9.83594 15.2109 9.83594 15.2109L9.75781 15.25H9.67969C9.25 15.2109 8.89844 15.0547 8.66406 14.8594C8.42969 14.6641 8.27344 14.3516 8.27344 13.9609C8.27344 13.7656 8.3125 13.6094 8.39062 13.4531C8.46875 13.2969 8.54688 13.1797 8.66406 13.1016C8.89844 12.9453 9.25 12.8281 9.67969 12.7891H9.75781L9.83594 12.8281C9.83594 12.8281 9.875 12.8281 9.91406 12.8672C9.95312 12.8672 10.0312 12.9062 10.1094 12.9453C10.2266 12.9453 10.3438 12.9062 10.4609 12.8281C10.5781 12.75 10.6172 12.5938 10.6562 12.4766C10.6953 12.3594 10.7344 12.2422 10.7344 12.125C10.7734 11.8906 10.7734 11.6172 10.7734 11.5391V11.5C10.7734 11.2656 10.8906 11.0312 11.1641 10.875C11.3984 10.6797 11.75 10.5625 12.1406 10.5625H13.7812C14.2891 10.5625 14.5625 9.9375 14.25 9.58594L14.1328 9.46875L14.1719 9.35156C14.2109 9 14.3672 8.6875 14.5625 8.45312C14.7578 8.21875 15.0703 8.0625 15.5 8.0625ZM15.4609 15.5625C15.8906 15.5625 16.2031 15.7188 16.4375 15.9531C16.6328 16.1875 16.75 16.5 16.8281 16.8516V16.9688L16.75 17.0859C16.4375 17.4375 16.6719 18.0625 17.1797 18.0625H20.1875V18.375C20.1875 18.4531 20.1875 18.6094 20.1875 18.8828V19.7422C20.1875 20.25 20.7734 20.4844 21.1641 20.1719L21.2422 20.0938L21.3984 20.1328C21.75 20.1719 22.0625 20.2891 22.2969 20.4844C22.5312 20.7188 22.6875 21.0312 22.6875 21.4609C22.6875 21.8516 22.5312 22.1641 22.2969 22.3984C22.0625 22.5938 21.75 22.7109 21.3984 22.7891H21.2422L21.1641 22.7109C20.7734 22.3984 20.1875 22.6328 20.1875 23.1406V24.0391C20.1875 24.2734 20.0703 24.5078 19.8359 24.6641C19.5625 24.8594 19.2109 24.9766 18.8203 24.9766H17.2969L17.375 24.625C17.375 24.5859 17.4141 24.5078 17.375 24.4688C17.3359 23.9609 17.1797 23.4531 16.8281 23.1016C16.5156 22.7109 16.0469 22.4766 15.4609 22.4766C14.9141 22.4766 14.4453 22.7109 14.0938 23.1016C13.7812 23.4531 13.625 23.9609 13.5859 24.4688C13.5859 24.5078 13.5859 24.5859 13.5859 24.625L13.6641 24.9766H12.1406C11.75 24.9766 11.3984 24.8594 11.125 24.6641C10.8906 24.4688 10.7734 24.2344 10.7734 24V19C10.7734 18.7266 10.7734 18.5703 10.7734 18.4141V18.0625H13.7812C14.2891 18.0625 14.5625 17.4375 14.25 17.0859L14.1328 17.0078L14.1719 16.8516C14.2109 16.5 14.3281 16.1875 14.5234 15.9531C14.7578 15.7188 15.0703 15.5625 15.4609 15.5625Z" fill="black" fill-opacity="0.72"/>
</g>
</svg>
