<svg width="32" height="32" viewBox="0 0 32 32" fill="none" xmlns="http://www.w3.org/2000/svg">
<g id="standalone / md / sort-md / fill">
<path id="icon" d="M15.1016 8.14062C15.5703 7.63281 16.3906 7.63281 16.8594 8.14062L21.8594 13.1406C22.2109 13.4922 22.3281 14.0391 22.1328 14.5078C21.9375 14.9766 21.5078 15.2891 21 15.2891H11C10.4922 15.2891 10.0234 14.9766 9.82812 14.5078C9.63281 14.0391 9.75 13.4922 10.1016 13.1406L15.1016 8.14062ZM15.1016 24.8984L10.1016 19.8984C9.75 19.5469 9.63281 19 9.82812 18.5312C10.0234 18.0625 10.4922 17.75 11 17.75H21C21.4688 17.75 21.9375 18.0625 22.1328 18.5312C22.3281 19 22.2109 19.5469 21.8594 19.8984L16.8594 24.8984C16.3906 25.4062 15.5703 25.4062 15.1016 24.8984Z" fill="black" fill-opacity="0.72"/>
</g>
</svg>
