<svg width="32" height="32" viewBox="0 0 32 32" fill="none" xmlns="http://www.w3.org/2000/svg">
<g id="standalone / md / circle-five-md / bold">
<path id="icon" d="M16 8.375C13.0703 8.375 10.4141 9.9375 8.92969 12.4375C7.48438 14.9766 7.48438 18.0625 8.92969 20.5625C10.4141 23.1016 13.0703 24.625 16 24.625C18.8906 24.625 21.5469 23.1016 23.0312 20.5625C24.4766 18.0625 24.4766 14.9766 23.0312 12.4375C21.5469 9.9375 18.8906 8.375 16 8.375ZM16 26.5C12.4062 26.5 9.125 24.625 7.32812 21.5C5.53125 18.4141 5.53125 14.625 7.32812 11.5C9.125 8.41406 12.4062 6.5 16 6.5C19.5547 6.5 22.8359 8.41406 24.6328 11.5C26.4297 14.625 26.4297 18.4141 24.6328 21.5C22.8359 24.625 19.5547 26.5 16 26.5ZM14.125 11.5H18.1875C18.6953 11.5 19.125 11.9297 19.125 12.4375C19.125 12.9844 18.6953 13.375 18.1875 13.375H14.9062L14.5938 15.0547L16.9766 15.3281C18.5391 15.5234 19.75 16.8516 19.75 18.4141C19.75 20.1328 18.3438 21.5391 16.625 21.5391H15.2188C14.1641 21.5391 13.1484 20.9922 12.5625 20.0938L12.4062 19.8594C12.0938 19.4297 12.2109 18.8438 12.6406 18.5703C13.0703 18.2578 13.6562 18.375 13.9297 18.8047L14.125 19.0391C14.3594 19.4297 14.7891 19.625 15.2188 19.625H16.625C17.3281 19.625 17.875 19.0781 17.875 18.4141C17.875 17.7891 17.4062 17.2812 16.7812 17.2031L13.3828 16.8125C13.1094 16.8125 12.875 16.6562 12.7188 16.4609C12.5625 16.2266 12.5234 15.9922 12.5625 15.7188L13.1875 12.2812C13.2656 11.8516 13.6562 11.5 14.125 11.5Z" fill="black" fill-opacity="0.72"/>
</g>
</svg>
