<svg width="32" height="32" viewBox="0 0 32 32" fill="none" xmlns="http://www.w3.org/2000/svg">
<g id="standalone / md / volume-xmark-md / bold">
<path id="icon" d="M10.9609 14.3906C10.8047 14.5469 10.5703 14.625 10.375 14.625H6.9375C6.74219 14.625 6.625 14.7812 6.625 14.9375V18.0625C6.625 18.2578 6.74219 18.375 6.9375 18.375H10.375C10.5703 18.375 10.8047 18.4922 10.9609 18.6484L15.375 22.5156V10.5234L10.9609 14.3906ZM16.0781 7.75C16.7031 7.75 17.25 8.29688 17.25 8.92188V24.1172C17.25 24.7422 16.7031 25.25 16.0781 25.25C15.7656 25.25 15.4922 25.1719 15.2969 24.9766L9.98438 20.25H6.9375C5.72656 20.25 4.75 19.2734 4.75 18.0625V14.9375C4.75 13.7656 5.72656 12.75 6.9375 12.75H9.98438L15.2969 8.0625C15.4922 7.86719 15.7656 7.75 16.0781 7.75ZM21.3516 13.0234L23.5 15.1719L25.6484 13.0234C26 12.6719 26.5859 12.6719 26.9375 13.0234C27.3281 13.4141 27.3281 14 26.9375 14.3516L24.7891 16.5L26.9375 18.6484C27.3281 19.0391 27.3281 19.625 26.9375 19.9766C26.5859 20.3672 26 20.3672 25.6484 19.9766L23.5 17.8281L21.3516 19.9766C20.9609 20.3672 20.375 20.3672 20.0234 19.9766C19.6328 19.625 19.6328 19.0391 20.0234 18.6484L22.1719 16.5L20.0234 14.3516C19.6328 14 19.6328 13.4141 20.0234 13.0234C20.375 12.6719 20.9609 12.6719 21.3516 13.0234Z" fill="black" fill-opacity="0.72"/>
</g>
</svg>
