<svg width="32" height="32" viewBox="0 0 32 32" fill="none" xmlns="http://www.w3.org/2000/svg">
<g id="standalone / md / deal-cancellation-md / fill">
<path id="icon" d="M19.2031 22.2422V22.2031L19.2422 22.2422C19.8672 22.4766 20.6094 22.5938 21.3516 22.5938C22.4453 22.5938 23.3828 22.3594 24.125 21.8516C24.8672 21.3438 25.4531 20.6406 25.8828 19.7422L26.1172 19.2344L23.1094 17.4766L22.875 18.1797C22.7578 18.4922 22.5625 18.8047 22.2891 19.0391C22.0938 19.1953 21.8203 19.3125 21.3516 19.3125C20.8438 19.3125 20.4922 19.1562 20.2188 18.8828C19.9453 18.6094 19.7891 18.1406 19.7891 17.3984V15.7188C19.7891 14.9766 19.9453 14.5469 20.2188 14.2734C20.4922 13.9609 20.8438 13.8047 21.3516 13.8047C21.8594 13.8047 22.0938 13.9219 22.25 14.0391C22.4453 14.2344 22.6016 14.4688 22.7188 14.8203L22.9531 15.5234L26.0781 13.8828L25.8438 13.3359C25.4531 12.3984 24.8672 11.6953 24.0859 11.2266C23.3438 10.7188 22.4062 10.5234 21.3516 10.5234C20.5703 10.5234 19.8672 10.6406 19.2031 10.9141C18.5391 11.2266 17.9922 11.6172 17.5234 12.1641C17.0547 12.7109 16.7031 13.3359 16.4688 14.1172C16.2344 14.8594 16.1172 15.7188 16.1172 16.6562C16.1172 17.5938 16.2344 18.4141 16.4688 19.1562C16.4688 19.1953 16.4688 19.1953 16.4688 19.1953C16.7031 19.8984 17.0547 20.5234 17.5234 21.0703C17.9922 21.5781 18.5391 21.9688 19.2031 22.2422ZM10.6094 10.7188C11.3516 10.7188 12.0938 10.8359 12.7188 11.0703C13.3828 11.3438 13.9688 11.6953 14.4375 12.2422C14.9062 12.75 15.2578 13.375 15.4922 14.0781C15.7266 14.8203 15.8438 15.6406 15.8438 16.5781C15.8438 17.4766 15.7266 18.3359 15.4922 19.0391C15.4922 19.0781 15.4922 19.0781 15.4922 19.0781C15.2578 19.7812 14.9062 20.4062 14.4375 20.9141C13.9688 21.4219 13.3828 21.8125 12.7188 22.0469C12.0938 22.3203 11.3906 22.4375 10.6094 22.4375H6.03906V10.7188H10.6094ZM11.7812 18.7656C12.0156 18.5312 12.1719 18.1406 12.1719 17.3594V15.7578C12.1719 14.9766 12.0156 14.5859 11.7812 14.3906C11.5469 14.1172 11.1953 13.9609 10.6094 13.9609H9.59375V19.1562H10.6094C11.1953 19.1562 11.5469 19 11.7812 18.7656Z" fill="black" fill-opacity="0.72"/>
</g>
</svg>
