<svg width="32" height="32" viewBox="0 0 32 32" fill="none" xmlns="http://www.w3.org/2000/svg">
<g id="standalone / md / file-pdf-md / regular">
<path id="icon" d="M8.5 25.25H9.75V26.5H8.5C7.79688 26.474 7.21094 26.2266 6.74219 25.7578C6.27344 25.2891 6.02604 24.7031 6 24V9C6.02604 8.29688 6.27344 7.71094 6.74219 7.24219C7.21094 6.77344 7.79688 6.52604 8.5 6.5H14.5938C15.1146 6.5 15.5573 6.68229 15.9219 7.04688L20.4531 11.5781C20.8177 11.9427 21 12.3854 21 12.9062V17.75H19.75V14H15.375C14.8542 13.974 14.4115 13.7917 14.0469 13.4531C13.7083 13.0885 13.526 12.6458 13.5 12.125V7.75H8.5C8.13542 7.75 7.83594 7.86719 7.60156 8.10156C7.36719 8.33594 7.25 8.63542 7.25 9V24C7.25 24.3646 7.36719 24.6641 7.60156 24.8984C7.83594 25.1328 8.13542 25.25 8.5 25.25ZM19.75 12.75C19.6979 12.6458 19.6328 12.5547 19.5547 12.4766L15.0234 7.94531C14.9453 7.86719 14.8542 7.8151 14.75 7.78906V12.125C14.776 12.5156 14.9844 12.724 15.375 12.75H19.75ZM12.875 20.25H14.125C14.75 20.276 15.2708 20.4844 15.6875 20.875C16.0781 21.2917 16.2865 21.8125 16.3125 22.4375C16.2865 23.0625 16.0781 23.5833 15.6875 24C15.2708 24.3906 14.75 24.599 14.125 24.625H13.5V25.875C13.474 26.2656 13.2656 26.474 12.875 26.5C12.4844 26.474 12.276 26.2656 12.25 25.875V24V20.875C12.276 20.4844 12.4844 20.276 12.875 20.25ZM14.125 23.375C14.6979 23.3229 15.0104 23.0104 15.0625 22.4375C15.0104 21.8646 14.6979 21.5521 14.125 21.5H13.5V23.375H14.125ZM17.875 20.25H19.125C19.6458 20.276 20.0885 20.4583 20.4531 20.7969C20.7917 21.1615 20.974 21.6042 21 22.125V24.625C20.974 25.1458 20.7917 25.5885 20.4531 25.9531C20.0885 26.2917 19.6458 26.474 19.125 26.5H17.875C17.4844 26.474 17.276 26.2656 17.25 25.875V20.875C17.276 20.4844 17.4844 20.276 17.875 20.25ZM19.125 25.25C19.5156 25.224 19.724 25.0156 19.75 24.625V22.125C19.724 21.7344 19.5156 21.526 19.125 21.5H18.5V25.25H19.125ZM22.25 20.875C22.276 20.4844 22.4844 20.276 22.875 20.25H24.75C25.1406 20.276 25.349 20.4844 25.375 20.875C25.349 21.2656 25.1406 21.474 24.75 21.5H23.5V22.75H24.75C25.1406 22.776 25.349 22.9844 25.375 23.375C25.349 23.7656 25.1406 23.974 24.75 24H23.5V25.875C23.474 26.2656 23.2656 26.474 22.875 26.5C22.4844 26.474 22.276 26.2656 22.25 25.875V23.375V20.875Z" fill="black" fill-opacity="0.72"/>
</g>
</svg>
