<svg width="32" height="32" viewBox="0 0 32 32" fill="none" xmlns="http://www.w3.org/2000/svg">
<g id="standalone / md / message-lines-md / bold">
<path id="icon" d="M14.125 22.75V23.375L16.9375 21.2656C17.25 21.0312 17.6406 20.875 18.0703 20.875H23.5C23.8125 20.875 24.125 20.6016 24.125 20.25V9C24.125 8.6875 23.8125 8.375 23.5 8.375H8.5C8.14844 8.375 7.875 8.6875 7.875 9V20.25C7.875 20.6016 8.14844 20.875 8.5 20.875H12.25C13.2656 20.875 14.125 21.7344 14.125 22.75ZM14.0859 25.7578L13.8906 25.875L13.2266 26.3828C13.0312 26.5391 12.7969 26.5391 12.5625 26.4609C12.3672 26.3438 12.25 26.1484 12.25 25.875V25.0547V24.8203V24.7812V24.625V22.75H10.375H8.5C7.09375 22.75 6 21.6562 6 20.25V9C6 7.63281 7.09375 6.5 8.5 6.5H23.5C24.8672 6.5 26 7.63281 26 9V20.25C26 21.6562 24.8672 22.75 23.5 22.75H18.0703L14.125 25.7188L14.0859 25.7578ZM11.9375 12.125H20.0625C20.5703 12.125 21 12.5547 21 13.0625C21 13.6094 20.5703 14 20.0625 14H11.9375C11.3906 14 11 13.6094 11 13.0625C11 12.5547 11.3906 12.125 11.9375 12.125ZM11.9375 15.875H16.3125C16.8203 15.875 17.25 16.3047 17.25 16.8125C17.25 17.3594 16.8203 17.75 16.3125 17.75H11.9375C11.3906 17.75 11 17.3594 11 16.8125C11 16.3047 11.3906 15.875 11.9375 15.875Z" fill="black" fill-opacity="0.72"/>
</g>
</svg>
