<svg width="32" height="32" viewBox="0 0 32 32" fill="none" xmlns="http://www.w3.org/2000/svg">
<g id="standalone / md / puzzle-piece-two-md / bold">
<path id="icon" d="M22.8828 19.8594C23.3125 20.25 23.5859 20.7969 23.5859 21.4609C23.5859 22.125 23.3125 22.6719 22.8828 23.0625C22.4531 23.4141 21.8672 23.6094 21.2812 23.6875C21.2031 23.6875 21.125 23.6875 21.0859 23.6484V24.0391C21.0859 24.5859 20.7734 25.0547 20.3438 25.3672C19.9141 25.6797 19.3672 25.875 18.8203 25.875C18.7812 25.875 18.7422 25.875 18.7422 25.875H17.1797C16.3984 25.875 16.0078 24.9375 16.5156 24.3906C16.4375 24.0781 16.3203 23.8438 16.2031 23.6484C16.0469 23.4922 15.8125 23.375 15.4609 23.375C15.1484 23.375 14.9141 23.4922 14.7578 23.6484C14.6406 23.8438 14.5234 24.0781 14.4453 24.3906C14.9531 24.9375 14.5625 25.875 13.7812 25.875H12.2188C12.1797 25.875 12.1797 25.875 12.1406 25.875C11.5547 25.875 11.0078 25.6797 10.6172 25.3672C10.1875 25.0547 9.91406 24.5859 9.91406 24V19C9.91406 18.7656 9.91406 18.6094 9.875 18.4531C9.875 18.2578 9.875 18.1406 9.91406 17.7891V16.5391C9.91406 16.4219 9.91406 16.2656 9.875 16.1094C9.83594 16.1094 9.75781 16.1484 9.67969 16.1094C9.09375 16.0703 8.54688 15.9141 8.11719 15.5625C7.64844 15.1719 7.41406 14.625 7.41406 13.9609C7.41406 13.2969 7.6875 12.75 8.15625 12.3984C8.58594 12.0859 9.13281 11.9688 9.67969 11.9297C9.75781 11.9297 9.83594 11.9297 9.875 11.9297C9.91406 11.7734 9.91406 11.6172 9.91406 11.5C9.91406 10.9531 10.2266 10.4844 10.6172 10.1719C11.0469 9.85938 11.5938 9.66406 12.1797 9.66406H13.2734C13.2734 9.58594 13.2734 9.54688 13.2734 9.46875C13.3125 8.88281 13.5078 8.29688 13.8984 7.86719C14.2891 7.4375 14.8359 7.16406 15.5 7.16406C16.1641 7.16406 16.7109 7.4375 17.1016 7.86719C17.4922 8.29688 17.6875 8.88281 17.7266 9.46875C17.7266 9.54688 17.7266 9.58594 17.6875 9.66406H18.8203C19.4062 9.66406 19.9531 9.85938 20.3828 10.1719C20.7734 10.4844 21.0859 10.9531 21.0859 11.5V17.7891C21.0859 18.0234 21.0859 18.1406 21.0859 18.2578C21.0859 18.375 21.0859 18.4922 21.0859 18.8828V19.2344C21.1641 19.2344 21.2031 19.2344 21.2812 19.2344C21.8672 19.2734 22.4531 19.4688 22.8828 19.8594ZM12.0625 24.6641C12.1016 24.6641 12.1016 24.6641 12.1406 24.6641H13.2734C13.2734 24.5859 13.2734 24.5078 13.2734 24.4297C13.3125 23.8828 13.5078 23.2969 13.8594 22.8672C14.25 22.4375 14.7969 22.1641 15.4609 22.1641C16.125 22.1641 16.6719 22.4375 17.0625 22.8672C17.4531 23.2969 17.6484 23.8828 17.6875 24.4688C17.7266 24.5469 17.6875 24.5859 17.6875 24.6641H18.8203H18.8594C19.1719 24.6641 19.4453 24.5469 19.6406 24.4297C19.7969 24.2734 19.875 24.1562 19.875 24.0391V23.1406C19.875 22.3594 20.8125 22.0078 21.3594 22.4766C21.6719 22.4375 21.9062 22.3203 22.0625 22.1641C22.2578 22.0078 22.375 21.7734 22.375 21.4609C22.375 21.1094 22.2578 20.9141 22.0625 20.7578C21.9062 20.6016 21.6719 20.4844 21.3594 20.4453C20.8125 20.9141 19.875 20.5234 19.875 19.7422V18.8828C19.875 18.6094 19.875 18.4922 19.875 18.375H17.1797C16.3984 18.375 16.0078 17.4375 16.5156 16.8906C16.4375 16.5781 16.3203 16.3438 16.2031 16.1875C16.0078 15.9922 15.8125 15.875 15.4609 15.875C15.1484 15.875 14.9141 15.9922 14.7578 16.1875C14.6016 16.3438 14.5234 16.5781 14.4453 16.8906C14.9531 17.4375 14.5625 18.375 13.7812 18.375H11.0859C11.0859 18.375 11.0859 18.4141 11.0859 18.4531C11.0859 18.5703 11.0859 18.7266 11.0859 19V24C11.0859 24.1562 11.125 24.2734 11.3203 24.4297C11.5156 24.5859 11.75 24.6641 12.0625 24.6641ZM11.0859 17.1641H13.2734C13.2734 17.0859 13.2734 17.0469 13.2734 16.9688C13.3125 16.3828 13.5078 15.7969 13.8594 15.3672C14.25 14.9375 14.7969 14.6641 15.4609 14.6641C16.125 14.6641 16.6719 14.9375 17.0625 15.3672C17.4531 15.7969 17.6484 16.3828 17.6875 16.9688C17.7266 17.0469 17.6875 17.0859 17.6875 17.1641H19.9141V11.5C19.9141 11.3828 19.8359 11.2656 19.6406 11.1094C19.4453 10.9531 19.1719 10.875 18.8203 10.875H17.1797C16.3984 10.875 16.0469 9.9375 16.5156 9.39062C16.4766 9.07812 16.3594 8.84375 16.2031 8.64844C16.0469 8.49219 15.8125 8.375 15.5 8.375C15.1875 8.375 14.9531 8.49219 14.7969 8.64844C14.6406 8.84375 14.5234 9.07812 14.4844 9.39062C14.9531 9.9375 14.5625 10.875 13.7812 10.875H12.1797C11.8281 10.875 11.5156 10.9531 11.3203 11.1094C11.1641 11.2656 11.0859 11.3828 11.0859 11.5V11.5391C11.0859 11.6172 11.0859 11.8906 11.0469 12.1641C11.0469 12.2812 11.0078 12.4375 10.9688 12.5938C10.9297 12.7109 10.8516 12.9453 10.6562 13.1016C10.4609 13.2188 10.2656 13.2578 10.0703 13.2578C9.95312 13.2188 9.83594 13.1797 9.75781 13.1406C9.71875 13.1406 9.71875 13.1016 9.71875 13.1016C9.28906 13.1406 9.01562 13.2578 8.85938 13.375C8.70312 13.4922 8.58594 13.6484 8.58594 13.9609C8.58594 14.2734 8.70312 14.4688 8.85938 14.625C9.05469 14.7812 9.32812 14.8984 9.71875 14.9375C9.71875 14.8984 9.71875 14.8984 9.75781 14.8984C9.83594 14.8594 9.95312 14.8203 10.0703 14.7812C10.2656 14.7812 10.4609 14.8203 10.6562 14.9375C10.8516 15.0938 10.9297 15.3281 10.9688 15.4453C11.0078 15.6016 11.0469 15.7578 11.0469 15.875C11.0859 16.1484 11.0859 16.3828 11.0859 16.5V17.1641Z" fill="black" fill-opacity="0.72"/>
</g>
</svg>
