<svg width="32" height="32" viewBox="0 0 32 32" fill="none" xmlns="http://www.w3.org/2000/svg">
<g id="standalone / md / paste-md / fill">
<path id="icon" d="M12.25 6.5C13.1484 6.5 13.9688 7.00781 14.3984 7.75H16.625C17.6406 7.75 18.5 8.60938 18.5 9.625V10.25H16.625C14.8672 10.25 13.5 11.6562 13.5 13.375V24H7.875C6.82031 24 6 23.1797 6 22.125V9.625C6 8.60938 6.82031 7.75 7.875 7.75H10.0625C10.4922 7.00781 11.3125 6.5 12.25 6.5ZM16.625 11.5H18.5H21.4688C21.9375 11.5 22.4453 11.7344 22.7969 12.0859L25.4141 14.7031C25.7656 15.0547 26 15.5625 26 16.0312V24.625C26 25.6797 25.1406 26.5 24.125 26.5H16.625C15.5703 26.5 14.75 25.6797 14.75 24.625V24V13.375C14.75 12.3594 15.5703 11.5 16.625 11.5ZM12.25 8.0625C11.7031 8.0625 11.3125 8.49219 11.3125 9C11.3125 9.54688 11.7031 9.9375 12.25 9.9375C12.7578 9.9375 13.1875 9.54688 13.1875 9C13.1875 8.49219 12.7578 8.0625 12.25 8.0625Z" fill="black" fill-opacity="0.72"/>
</g>
</svg>
