<svg width="32" height="32" viewBox="0 0 32 32" fill="none" xmlns="http://www.w3.org/2000/svg">
<g id="standalone / md / shield-check-md / fill">
<path id="icon" d="M16.5078 6.61719L23.8516 9.74219C24.7109 10.1328 25.375 10.9531 25.375 11.9688C25.3359 15.875 23.7344 22.9453 17.0156 26.1875C16.3516 26.5 15.6094 26.5 14.9453 26.1875C8.22656 22.9453 6.625 15.875 6.625 11.9688C6.58594 10.9531 7.25 10.1328 8.10938 9.74219L15.4531 6.61719C15.6094 6.53906 15.8047 6.5 16 6.5C16.1562 6.5 16.3516 6.53906 16.5078 6.61719ZM18.1875 14.625C18.1875 13.4531 17.1719 12.4375 16 12.4375C14.7891 12.4375 13.8125 13.4531 13.8125 14.625C13.8125 15.5234 14.3203 16.2656 15.0625 16.6172V19.3125C15.0625 19.8594 15.4531 20.25 16 20.25C16.5078 20.25 16.9375 19.8594 16.9375 19.3125V16.6172C17.6406 16.2656 18.1875 15.5234 18.1875 14.625Z" fill="black" fill-opacity="0.72"/>
</g>
</svg>
