<svg width="32" height="32" viewBox="0 0 32 32" fill="none" xmlns="http://www.w3.org/2000/svg">
<g id="standalone / md / wallet-md / bold">
<path id="icon" d="M9.4375 7.75H23.8125C24.3203 7.75 24.75 8.17969 24.75 8.6875C24.75 9.23438 24.3203 9.625 23.8125 9.625H9.4375C8.53906 9.625 7.875 10.3281 7.875 11.1875V21.8125C7.875 22.7109 8.53906 23.375 9.4375 23.375H22.5625C23.4219 23.375 24.125 22.7109 24.125 21.8125V14.9375C24.125 14.0781 23.4219 13.375 22.5625 13.375H10.6875C10.1406 13.375 9.75 12.9844 9.75 12.4375C9.75 11.9297 10.1406 11.5 10.6875 11.5H22.5625C24.4375 11.5 26 13.0625 26 14.9375V21.8125C26 23.7266 24.4375 25.25 22.5625 25.25H9.4375C7.52344 25.25 6 23.7266 6 21.8125V11.1875C6 9.3125 7.52344 7.75 9.4375 7.75ZM21 19.625C20.2969 19.625 19.75 19.0781 19.75 18.375C19.75 17.7109 20.2969 17.125 21 17.125C21.6641 17.125 22.25 17.7109 22.25 18.375C22.25 19.0781 21.6641 19.625 21 19.625Z" fill="black" fill-opacity="0.72"/>
</g>
</svg>
