<svg width="32" height="32" viewBox="0 0 32 32" fill="none" xmlns="http://www.w3.org/2000/svg">
<g id="standalone / md / circle-ellipsis-md / regular">
<path id="icon" d="M16 25.25C19.125 25.25 21.9766 23.6094 23.5391 20.875C25.1406 18.1797 25.1406 14.8594 23.5391 12.125C21.9766 9.42969 19.125 7.75 16 7.75C12.8359 7.75 9.98438 9.42969 8.42188 12.125C6.82031 14.8594 6.82031 18.1797 8.42188 20.875C9.98438 23.6094 12.8359 25.25 16 25.25ZM16 6.5C19.5547 6.5 22.8359 8.41406 24.6328 11.5C26.4297 14.625 26.4297 18.4141 24.6328 21.5C22.8359 24.625 19.5547 26.5 16 26.5C12.4062 26.5 9.125 24.625 7.32812 21.5C5.53125 18.4141 5.53125 14.625 7.32812 11.5C9.125 8.41406 12.4062 6.5 16 6.5ZM16.9375 16.5C16.9375 17.0469 16.5078 17.4375 16 17.4375C15.4531 17.4375 15.0625 17.0469 15.0625 16.5C15.0625 15.9922 15.4531 15.5625 16 15.5625C16.5078 15.5625 16.9375 15.9922 16.9375 16.5ZM19.75 15.5625C20.2578 15.5625 20.6875 15.9922 20.6875 16.5C20.6875 17.0469 20.2578 17.4375 19.75 17.4375C19.2031 17.4375 18.8125 17.0469 18.8125 16.5C18.8125 15.9922 19.2031 15.5625 19.75 15.5625ZM13.1875 16.5C13.1875 17.0469 12.7578 17.4375 12.25 17.4375C11.7031 17.4375 11.3125 17.0469 11.3125 16.5C11.3125 15.9922 11.7031 15.5625 12.25 15.5625C12.7578 15.5625 13.1875 15.9922 13.1875 16.5Z" fill="black" fill-opacity="0.72"/>
</g>
</svg>
