<svg width="32" height="32" viewBox="0 0 32 32" fill="none" xmlns="http://www.w3.org/2000/svg">
<g id="standalone / md / circle-info-md / bold">
<path id="icon" d="M16 8.375C13.0703 8.375 10.4141 9.9375 8.92969 12.4375C7.48438 14.9766 7.48438 18.0625 8.92969 20.5625C10.4141 23.1016 13.0703 24.625 16 24.625C18.8906 24.625 21.5469 23.1016 23.0312 20.5625C24.4766 18.0625 24.4766 14.9766 23.0312 12.4375C21.5469 9.9375 18.8906 8.375 16 8.375ZM16 26.5C12.4062 26.5 9.125 24.625 7.32812 21.5C5.53125 18.4141 5.53125 14.625 7.32812 11.5C9.125 8.41406 12.4062 6.5 16 6.5C19.5547 6.5 22.8359 8.41406 24.6328 11.5C26.4297 14.625 26.4297 18.4141 24.6328 21.5C22.8359 24.625 19.5547 26.5 16 26.5ZM14.4375 19.625H15.375V17.125H14.4375C13.8906 17.125 13.5 16.7344 13.5 16.1875C13.5 15.6797 13.8906 15.25 14.4375 15.25H16.3125C16.8203 15.25 17.25 15.6797 17.25 16.1875V19.625H17.5625C18.0703 19.625 18.5 20.0547 18.5 20.5625C18.5 21.1094 18.0703 21.5 17.5625 21.5H14.4375C13.8906 21.5 13.5 21.1094 13.5 20.5625C13.5 20.0547 13.8906 19.625 14.4375 19.625ZM16 14C15.2969 14 14.75 13.4531 14.75 12.75C14.75 12.0859 15.2969 11.5 16 11.5C16.6641 11.5 17.25 12.0859 17.25 12.75C17.25 13.4531 16.6641 14 16 14Z" fill="black" fill-opacity="0.72"/>
</g>
</svg>
