<svg width="32" height="32" viewBox="0 0 32 32" fill="none" xmlns="http://www.w3.org/2000/svg">
<g id="standalone / md / location-crosshairs-md / regular">
<path id="icon" d="M16 6.5C16.3125 6.5 16.625 6.8125 16.625 7.125V9.03906C20.2578 9.35156 23.1484 12.2422 23.4609 15.875H25.375C25.6875 15.875 26 16.1875 26 16.5C26 16.8516 25.6875 17.125 25.375 17.125H23.4609C23.1484 20.7969 20.2578 23.6875 16.625 24V25.875C16.625 26.2266 16.3125 26.5 16 26.5C15.6484 26.5 15.375 26.2266 15.375 25.875V24C11.7031 23.6875 8.8125 20.7969 8.5 17.125H6.625C6.27344 17.125 6 16.8516 6 16.5C6 16.1875 6.27344 15.875 6.625 15.875H8.5C8.8125 12.2422 11.7031 9.35156 15.375 9.03906V7.125C15.375 6.8125 15.6484 6.5 16 6.5ZM9.75 16.5C9.75 18.7656 10.9219 20.7969 12.875 21.9297C14.7891 23.0625 17.1719 23.0625 19.125 21.9297C21.0391 20.7969 22.25 18.7656 22.25 16.5C22.25 14.2734 21.0391 12.2422 19.125 11.1094C17.1719 9.97656 14.7891 9.97656 12.875 11.1094C10.9219 12.2422 9.75 14.2734 9.75 16.5ZM18.5 16.5C18.5 15.6406 17.9922 14.8203 17.25 14.3516C16.4688 13.9219 15.4922 13.9219 14.75 14.3516C13.9688 14.8203 13.5 15.6406 13.5 16.5C13.5 17.3984 13.9688 18.2188 14.75 18.6875C15.4922 19.1172 16.4688 19.1172 17.25 18.6875C17.9922 18.2188 18.5 17.3984 18.5 16.5ZM12.25 16.5C12.25 15.1719 12.9531 13.9609 14.125 13.2578C15.2578 12.5938 16.7031 12.5938 17.875 13.2578C19.0078 13.9609 19.75 15.1719 19.75 16.5C19.75 17.8672 19.0078 19.0781 17.875 19.7812C16.7031 20.4453 15.2578 20.4453 14.125 19.7812C12.9531 19.0781 12.25 17.8672 12.25 16.5Z" fill="black" fill-opacity="0.72"/>
</g>
</svg>
