<svg width="32" height="32" viewBox="0 0 32 32" fill="none" xmlns="http://www.w3.org/2000/svg">
<g id="standalone / md / sterling-sign-md / bold">
<path id="icon" d="M13.5 12.75V15.25H18.8125C19.3203 15.25 19.75 15.6797 19.75 16.1875C19.75 16.7344 19.3203 17.125 18.8125 17.125H13.5V19.625C13.5 20.6016 13.2266 21.5781 12.7578 22.4766L12.25 23.375H21.3125C21.8203 23.375 22.25 23.8047 22.25 24.3125C22.25 24.8594 21.8203 25.25 21.3125 25.25H10.6875C10.3359 25.25 10.0234 25.0938 9.86719 24.8203C9.71094 24.5078 9.67188 24.1562 9.82812 23.8828L11.1172 21.5781C11.4297 20.9531 11.625 20.2891 11.625 19.625V17.125H10.6875C10.1406 17.125 9.75 16.7344 9.75 16.1875C9.75 15.6797 10.1406 15.25 10.6875 15.25H11.625V12.75C11.625 9.97656 13.8516 7.75 16.5859 7.75C17.0938 7.75 17.6406 7.86719 18.1484 8.02344L21.2734 9.07812C21.7812 9.23438 22.0547 9.74219 21.8594 10.25C21.7031 10.7578 21.1953 10.9922 20.6875 10.8359L17.5625 9.82031C17.25 9.70312 16.8984 9.625 16.5859 9.625C14.8672 9.625 13.5 11.0312 13.5 12.75Z" fill="black" fill-opacity="0.72"/>
</g>
</svg>
