<svg width="32" height="32" viewBox="0 0 32 32" fill="none" xmlns="http://www.w3.org/2000/svg">
<g id="standalone / md / users-md / bold">
<path id="icon" d="M9.125 12.75C7.99219 12.75 6.97656 12.1641 6.39062 11.1875C5.84375 10.25 5.84375 9.03906 6.39062 8.0625C6.97656 7.125 7.99219 6.5 9.125 6.5C10.2188 6.5 11.2344 7.125 11.8203 8.0625C12.3672 9.03906 12.3672 10.25 11.8203 11.1875C11.2344 12.1641 10.2188 12.75 9.125 12.75ZM23.5 12.75C22.3672 12.75 21.3516 12.1641 20.7656 11.1875C20.2188 10.25 20.2188 9.03906 20.7656 8.0625C21.3516 7.125 22.3672 6.5 23.5 6.5C24.5938 6.5 25.6094 7.125 26.1953 8.0625C26.7422 9.03906 26.7422 10.25 26.1953 11.1875C25.6094 12.1641 24.5938 12.75 23.5 12.75ZM3.5 18.1797C3.5 15.875 5.33594 14 7.64062 14H9.32031C9.94531 14 10.5312 14.1562 11.0781 14.3906C11 14.6641 11 14.9766 11 15.25C11 16.7734 11.625 18.1016 12.6797 19H12.6406H4.32031C3.85156 19 3.5 18.6484 3.5 18.1797ZM19.3203 19H19.2812C20.3359 18.1016 21 16.7734 21 15.25C21 14.9766 20.9609 14.6641 20.9219 14.3906C21.4297 14.1562 22.0156 14 22.6406 14H24.3203C26.625 14 28.5 15.875 28.5 18.1797C28.5 18.6484 28.1094 19 27.6406 19H19.3203ZM16 13.375C15.2969 13.375 14.7109 13.7656 14.3594 14.3125C14.0078 14.8984 14.0078 15.6406 14.3594 16.1875C14.7109 16.7734 15.2969 17.125 16 17.125C16.6641 17.125 17.25 16.7734 17.6016 16.1875C17.9531 15.6406 17.9531 14.8984 17.6016 14.3125C17.25 13.7656 16.6641 13.375 16 13.375ZM16 19C14.6328 19 13.4219 18.2969 12.7188 17.125C12.0547 15.9922 12.0547 14.5469 12.7188 13.375C13.4219 12.2422 14.6328 11.5 16 11.5C17.3281 11.5 18.5391 12.2422 19.2422 13.375C19.9062 14.5469 19.9062 15.9922 19.2422 17.125C18.5391 18.2969 17.3281 19 16 19ZM13.6953 22.125C12.1328 22.125 10.8438 23.2188 10.4531 24.625H21.5078C21.1172 23.2188 19.8281 22.125 18.2656 22.125H13.6953ZM13.6953 20.25H18.2656C21.1562 20.25 23.5 22.5938 23.5 25.4844C23.5 26.0703 23.0312 26.5 22.4453 26.5H9.51562C8.92969 26.5 8.5 26.0312 8.5 25.4844C8.5 22.5938 10.8047 20.25 13.6953 20.25Z" fill="black" fill-opacity="0.72"/>
</g>
</svg>
