<svg width="32" height="32" viewBox="0 0 32 32" fill="none" xmlns="http://www.w3.org/2000/svg">
<g id="standalone / md / barcode-md / bold">
<path id="icon" d="M6.9375 7.75C7.44531 7.75 7.875 8.17969 7.875 8.6875V24.3125C7.875 24.8594 7.44531 25.25 6.9375 25.25C6.39062 25.25 6 24.8594 6 24.3125V8.6875C6 8.17969 6.39062 7.75 6.9375 7.75ZM10.375 7.75C10.6875 7.75 11 8.0625 11 8.375V24.625C11 24.9766 10.6875 25.25 10.375 25.25C10.0234 25.25 9.75 24.9766 9.75 24.625V8.375C9.75 8.0625 10.0234 7.75 10.375 7.75ZM13.1875 7.75C13.6953 7.75 14.125 8.17969 14.125 8.6875V24.3125C14.125 24.8594 13.6953 25.25 13.1875 25.25C12.6406 25.25 12.25 24.8594 12.25 24.3125V8.6875C12.25 8.17969 12.6406 7.75 13.1875 7.75ZM17.5625 7.75C18.0703 7.75 18.5 8.17969 18.5 8.6875V24.3125C18.5 24.8594 18.0703 25.25 17.5625 25.25C17.0156 25.25 16.625 24.8594 16.625 24.3125V8.6875C16.625 8.17969 17.0156 7.75 17.5625 7.75ZM24.125 8.6875C24.125 8.17969 24.5156 7.75 25.0625 7.75C25.5703 7.75 26 8.17969 26 8.6875V24.3125C26 24.8594 25.5703 25.25 25.0625 25.25C24.5156 25.25 24.125 24.8594 24.125 24.3125V8.6875ZM21.625 8.375C21.625 8.0625 21.8984 7.75 22.25 7.75C22.5625 7.75 22.875 8.0625 22.875 8.375V24.625C22.875 24.9766 22.5625 25.25 22.25 25.25C21.8984 25.25 21.625 24.9766 21.625 24.625V8.375Z" fill="black" fill-opacity="0.72"/>
</g>
</svg>
