<svg width="32" height="32" viewBox="0 0 32 32" fill="none" xmlns="http://www.w3.org/2000/svg">
<g id="standalone / md / file-doc-md / regular">
<path id="icon" d="M8.5 25.25H9.75V26.5H8.5C7.09375 26.5 6 25.4062 6 24V9C6 7.63281 7.09375 6.5 8.5 6.5H14.5938C15.0625 6.5 15.5703 6.73438 15.9219 7.08594L20.4141 11.5781C20.7656 11.9297 21 12.4375 21 12.9062V17.75H19.75V14H15.375C14.3203 14 13.5 13.1797 13.5 12.125V7.75H8.5C7.79688 7.75 7.25 8.33594 7.25 9V24C7.25 24.7031 7.79688 25.25 8.5 25.25ZM19.7109 12.75C19.6719 12.6719 19.6328 12.5547 19.5547 12.4766L15.0234 7.94531C14.9453 7.86719 14.8281 7.82812 14.75 7.78906V12.125C14.75 12.4766 15.0234 12.75 15.375 12.75H19.7109ZM12.875 20.25H14.125C15.1406 20.25 16 21.1094 16 22.125V24.625C16 25.6797 15.1406 26.5 14.125 26.5H12.875C12.5234 26.5 12.25 26.2266 12.25 25.875V20.875C12.25 20.5625 12.5234 20.25 12.875 20.25ZM13.5 25.25H14.125C14.4375 25.25 14.75 24.9766 14.75 24.625V22.125C14.75 21.8125 14.4375 21.5 14.125 21.5H13.5V25.25ZM23.8125 20.25H24.4375C25.2969 20.25 26 20.9531 26 21.8125V22.125C26 22.4766 25.6875 22.75 25.375 22.75C25.0234 22.75 24.75 22.4766 24.75 22.125V21.8125C24.75 21.6562 24.5938 21.5 24.4375 21.5H23.8125C23.6172 21.5 23.5 21.6562 23.5 21.8125V24.9375C23.5 25.1328 23.6172 25.25 23.8125 25.25H24.4375C24.5938 25.25 24.75 25.1328 24.75 24.9375V24.625C24.75 24.3125 25.0234 24 25.375 24C25.6875 24 26 24.3125 26 24.625V24.9375C26 25.8359 25.2969 26.5 24.4375 26.5H23.8125C22.9141 26.5 22.25 25.8359 22.25 24.9375V21.8125C22.25 20.9531 22.9141 20.25 23.8125 20.25ZM17.25 21.8125C17.25 20.9531 17.9141 20.25 18.8125 20.25H19.4375C20.2969 20.25 21 20.9531 21 21.8125V24.9375C21 25.8359 20.2969 26.5 19.4375 26.5H18.8125C17.9141 26.5 17.25 25.8359 17.25 24.9375V21.8125ZM18.8125 21.5C18.6172 21.5 18.5 21.6562 18.5 21.8125V24.9375C18.5 25.1328 18.6172 25.25 18.8125 25.25H19.4375C19.5938 25.25 19.75 25.1328 19.75 24.9375V21.8125C19.75 21.6562 19.5938 21.5 19.4375 21.5H18.8125Z" fill="black" fill-opacity="0.72"/>
</g>
</svg>
