<svg width="32" height="32" viewBox="0 0 32 32" fill="none" xmlns="http://www.w3.org/2000/svg">
<g id="standalone / md / hand-gesture-swipe-left-right-md / regular">
<path id="icon" d="M15.9609 10.5234C16.7031 10.5234 17.3281 11.1484 17.3281 11.8906V14.9375C17.5234 14.8594 17.7188 14.8203 17.9141 14.8203C18.5 14.8203 19.0078 15.1719 19.2812 15.6406C19.3984 15.6016 19.5547 15.6016 19.6719 15.6016C20.2578 15.6016 20.7656 15.9531 21.0391 16.3828C21.1172 16.3828 21.1953 16.3828 21.2344 16.3828C22.0938 16.3828 22.7969 17.0859 22.7969 17.9453V20.2891C22.7969 21.8125 21.5469 23.0234 20.0625 23.0234H16.7422C16.1562 23.0234 15.6094 22.9062 15.1016 22.5938L14.8672 22.5156C13.7344 21.8906 13.0312 20.7188 13.0312 19.3906V18.9219C13.0312 18.2969 13.3047 17.75 13.8125 17.3594L14.3594 16.9688C14.4375 16.8906 14.5156 16.8516 14.5938 16.7734V11.8906C14.5938 11.1484 15.2188 10.5234 15.9609 10.5234ZM15.375 11.8906V18.9219C15.375 19.1172 15.1797 19.3125 14.9844 19.3125C14.7891 19.3125 14.5938 19.1172 14.5938 18.9219V17.75L14.2812 17.9844C14.0078 18.2188 13.8125 18.5312 13.8125 18.9219V19.3906C13.8125 20.4062 14.3594 21.3438 15.2578 21.8125L15.4531 21.9297C15.8438 22.125 16.2734 22.2422 16.7422 22.2422H20.0625C21.1562 22.2422 22.0156 21.3828 22.0156 20.2891V17.9453C22.0156 17.5156 21.6641 17.1641 21.2344 17.1641C21.1562 17.1641 21.0391 17.1641 20.9609 17.2422C20.8438 17.2422 20.7266 17.2422 20.6484 17.2031C20.5312 17.1641 20.4531 17.0469 20.4531 16.9688C20.3359 16.6172 20.0234 16.3828 19.6719 16.3828C19.5156 16.3828 19.3984 16.4219 19.2812 16.5C19.1641 16.5781 19.0078 16.5781 18.8906 16.5391C18.7734 16.4609 18.6953 16.3438 18.6953 16.2266C18.6172 15.875 18.3047 15.6016 17.9141 15.6016C17.6406 15.6016 17.4062 15.7578 17.25 15.9531C17.1719 16.1094 16.9766 16.1484 16.8203 16.1094C16.6641 16.0703 16.5469 15.9141 16.5469 15.7578V11.8906C16.5469 11.5781 16.2734 11.3047 15.9609 11.3047C15.6094 11.3047 15.375 11.5781 15.375 11.8906ZM22.5625 14.4297L24.9453 12.0469C25.1016 11.8906 25.1016 11.6562 24.9453 11.5L22.5625 9.11719C22.4062 9 22.1719 9 22.0156 9.11719C21.8594 9.27344 21.8984 9.50781 22.0156 9.66406L23.7734 11.4219H19.2031C19.0078 11.4219 18.8516 11.5781 18.8516 11.7734C18.8516 11.9688 19.0078 12.1641 19.2031 12.1641H23.7734L22.0156 13.8828C21.8984 14.0391 21.8984 14.2734 22.0156 14.4297C22.1719 14.5859 22.4062 14.5859 22.5625 14.4297ZM10.0625 14.4297L7.67969 12.0469C7.5625 11.8906 7.5625 11.6562 7.67969 11.5L10.0625 9.11719C10.2188 8.96094 10.4531 8.96094 10.6094 9.11719C10.7656 9.27344 10.7656 9.50781 10.6094 9.66406L8.85156 11.3828H13.4219C13.6172 11.3828 13.8125 11.5781 13.8125 11.7734C13.8125 11.9688 13.6172 12.1641 13.4219 12.1641H8.85156L10.6094 13.8828C10.7656 14.0391 10.7656 14.2734 10.6094 14.4297C10.4531 14.5859 10.2188 14.5859 10.0625 14.4297Z" fill="black" fill-opacity="0.72"/>
</g>
</svg>
