<svg width="32" height="32" viewBox="0 0 32 32" fill="none" xmlns="http://www.w3.org/2000/svg">
<g id="standalone / md / wallet-signal-md / fill">
<path id="icon" d="M3.5 10.25C3.5 8.88281 4.59375 7.75 6 7.75H21C21.6641 7.75 22.25 8.33594 22.25 9C22.25 9.70312 21.6641 10.25 21 10.25H6.625C6.27344 10.25 6 10.5625 6 10.875C6 11.2266 6.27344 11.5 6.625 11.5H21C22.3672 11.5 23.5 12.6328 23.5 14V16.1094C22.25 15.5625 20.8438 15.25 19.4375 15.25C18.2266 15.25 17.25 16.2656 17.25 17.4375C17.25 17.5547 17.25 17.6719 17.25 17.75V25.25H6C4.59375 25.25 3.5 24.1562 3.5 22.75V10.25ZM18.5 17.4375C18.5 16.9297 18.8906 16.5 19.4375 16.5C24.4375 16.5 28.5 20.5625 28.5 25.5625C28.5 26.1094 28.0703 26.5 27.5625 26.5C27.0156 26.5 26.625 26.1094 26.625 25.5625C26.625 21.6172 23.3828 18.375 19.4375 18.375C18.8906 18.375 18.5 17.9844 18.5 17.4375ZM18.5 21.1875C18.5 20.6797 18.8906 20.25 19.4375 20.25C22.3672 20.25 24.75 22.6328 24.75 25.5625C24.75 26.1094 24.3203 26.5 23.8125 26.5C23.2656 26.5 22.875 26.1094 22.875 25.5625C22.875 23.6875 21.3125 22.125 19.4375 22.125C18.8906 22.125 18.5 21.7344 18.5 21.1875ZM18.5 25.25C18.5 24.5859 19.0469 24 19.75 24C20.4141 24 21 24.5859 21 25.25C21 25.9531 20.4141 26.5 19.75 26.5C19.0469 26.5 18.5 25.9531 18.5 25.25Z" fill="black" fill-opacity="0.72"/>
</g>
</svg>
