<svg width="32" height="32" viewBox="0 0 32 32" fill="none" xmlns="http://www.w3.org/2000/svg">
<g id="standalone / md / chart-mixed-md / fill">
<path id="icon" d="M25.5312 9.97656L19.2812 14.9766C18.8125 15.3672 18.1875 15.3672 17.7188 15.0156L13.5 11.8516L8.03125 16.2266C7.48438 16.6562 6.70312 16.5781 6.27344 16.0312C5.84375 15.5234 5.92188 14.7031 6.46875 14.2734L12.7188 9.27344C13.1484 8.92188 13.7734 8.92188 14.2422 9.27344L18.4609 12.4375L23.9688 8.02344C24.4766 7.59375 25.2969 7.71094 25.7266 8.21875C26.1562 8.76562 26.0391 9.54688 25.5312 9.97656ZM12.25 16.5C12.25 15.8359 12.7969 15.25 13.5 15.25C14.1641 15.25 14.75 15.8359 14.75 16.5V24C14.75 24.7031 14.1641 25.25 13.5 25.25C12.7969 25.25 12.25 24.7031 12.25 24V16.5ZM7.25 20.25C7.25 19.5859 7.79688 19 8.5 19C9.16406 19 9.75 19.5859 9.75 20.25V24C9.75 24.7031 9.16406 25.25 8.5 25.25C7.79688 25.25 7.25 24.7031 7.25 24V20.25ZM18.5 17.75C19.1641 17.75 19.75 18.3359 19.75 19V24C19.75 24.7031 19.1641 25.25 18.5 25.25C17.7969 25.25 17.25 24.7031 17.25 24V19C17.25 18.3359 17.7969 17.75 18.5 17.75ZM22.25 16.5C22.25 15.8359 22.7969 15.25 23.5 15.25C24.1641 15.25 24.75 15.8359 24.75 16.5V24C24.75 24.7031 24.1641 25.25 23.5 25.25C22.7969 25.25 22.25 24.7031 22.25 24V16.5Z" fill="black" fill-opacity="0.72"/>
</g>
</svg>
