<svg width="32" height="32" viewBox="0 0 32 32" fill="none" xmlns="http://www.w3.org/2000/svg">
<g id="standalone / md / plus-md / bold">
<path id="icon" d="M16.9375 9.3125V15.5625H23.1875C23.6953 15.5625 24.125 15.9922 24.125 16.5C24.125 17.0469 23.6953 17.4375 23.1875 17.4375H16.9375V23.6875C16.9375 24.2344 16.5078 24.625 16 24.625C15.4531 24.625 15.0625 24.2344 15.0625 23.6875V17.4375H8.8125C8.26562 17.4375 7.875 17.0469 7.875 16.5C7.875 15.9922 8.26562 15.5625 8.8125 15.5625H15.0625V9.3125C15.0625 8.80469 15.4531 8.375 16 8.375C16.5078 8.375 16.9375 8.80469 16.9375 9.3125Z" fill="black" fill-opacity="0.72"/>
</g>
</svg>
