<svg width="32" height="32" viewBox="0 0 32 32" fill="none" xmlns="http://www.w3.org/2000/svg">
<g id="standalone / md / circle-chevron-right-md / fill">
<path id="icon" d="M6 16.5C6 12.9453 7.875 9.66406 11 7.86719C14.0859 6.07031 17.875 6.07031 21 7.86719C24.0859 9.66406 26 12.9453 26 16.5C26 20.0938 24.0859 23.375 21 25.1719C17.875 26.9688 14.0859 26.9688 11 25.1719C7.875 23.375 6 20.0938 6 16.5ZM15.4141 21.2266L19.4766 17.1641C19.8281 16.8125 19.8281 16.2266 19.4766 15.8359L15.4141 11.8125C15.0234 11.4219 14.4375 11.4219 14.0859 11.8125C13.6953 12.1641 13.6953 12.75 14.0859 13.1406L17.4844 16.5391L14.0859 19.9375C13.6953 20.2891 13.6953 20.875 14.0859 21.2266C14.4375 21.6172 15.0234 21.6172 15.4141 21.2266Z" fill="black" fill-opacity="0.72"/>
</g>
</svg>
