<svg width="32" height="32" viewBox="0 0 32 32" fill="none" xmlns="http://www.w3.org/2000/svg">
<g id="standalone / md / file-arrow-down-md / bold">
<path id="icon" d="M10.375 24C10.375 24.3516 10.6484 24.625 11 24.625H21C21.3125 24.625 21.625 24.3516 21.625 24V12.75H18.5C17.7969 12.75 17.25 12.2031 17.25 11.5V8.375H11C10.6484 8.375 10.375 8.6875 10.375 9V24ZM11 6.5H17.4453C18.1094 6.5 18.7344 6.77344 19.2031 7.24219L22.7578 10.7969C23.2266 11.2656 23.5 11.8906 23.5 12.5547V24C23.5 25.4062 22.3672 26.5 21 26.5H11C9.59375 26.5 8.5 25.4062 8.5 24V9C8.5 7.63281 9.59375 6.5 11 6.5ZM16.9375 15.5625V19.5859L18.1484 18.375C18.5 17.9844 19.0859 17.9844 19.4766 18.375C19.8281 18.7266 19.8281 19.3125 19.4766 19.6641L16.6641 22.4766C16.2734 22.8672 15.6875 22.8672 15.3359 22.4766L12.5234 19.6641C12.1328 19.3125 12.1328 18.7266 12.5234 18.375C12.875 17.9844 13.4609 17.9844 13.8516 18.375L15.0625 19.5859V15.5625C15.0625 15.0547 15.4531 14.625 16 14.625C16.5078 14.625 16.9375 15.0547 16.9375 15.5625Z" fill="black" fill-opacity="0.72"/>
</g>
</svg>
