<svg width="32" height="32" viewBox="0 0 32 32" fill="none" xmlns="http://www.w3.org/2000/svg">
<g id="standalone / md / placeholder-md / bold">
<path id="icon" d="M10.6875 7.75H11.3125C11.8203 7.75 12.25 8.17969 12.25 8.6875C12.25 9.23438 11.8203 9.625 11.3125 9.625H10.6875C9.78906 9.625 9.125 10.3281 9.125 11.1875V11.8125C9.125 12.3594 8.69531 12.75 8.1875 12.75C7.64062 12.75 7.25 12.3594 7.25 11.8125V11.1875C7.25 9.3125 8.77344 7.75 10.6875 7.75ZM8.1875 14C8.69531 14 9.125 14.4297 9.125 14.9375V18.0625C9.125 18.6094 8.69531 19 8.1875 19C7.64062 19 7.25 18.6094 7.25 18.0625V14.9375C7.25 14.4297 7.64062 14 8.1875 14ZM23.8125 14C24.3203 14 24.75 14.4297 24.75 14.9375V18.0625C24.75 18.6094 24.3203 19 23.8125 19C23.2656 19 22.875 18.6094 22.875 18.0625V14.9375C22.875 14.4297 23.2656 14 23.8125 14ZM23.8125 12.75C23.2656 12.75 22.875 12.3594 22.875 11.8125V11.1875C22.875 10.3281 22.1719 9.625 21.3125 9.625H20.6875C20.1406 9.625 19.75 9.23438 19.75 8.6875C19.75 8.17969 20.1406 7.75 20.6875 7.75H21.3125C23.1875 7.75 24.75 9.3125 24.75 11.1875V11.8125C24.75 12.3594 24.3203 12.75 23.8125 12.75ZM24.75 21.1875V21.8125C24.75 23.7266 23.1875 25.25 21.3125 25.25H20.6875C20.1406 25.25 19.75 24.8594 19.75 24.3125C19.75 23.8047 20.1406 23.375 20.6875 23.375H21.3125C22.1719 23.375 22.875 22.7109 22.875 21.8125V21.1875C22.875 20.6797 23.2656 20.25 23.8125 20.25C24.3203 20.25 24.75 20.6797 24.75 21.1875ZM9.125 21.1875V21.8125C9.125 22.7109 9.78906 23.375 10.6875 23.375H11.3125C11.8203 23.375 12.25 23.8047 12.25 24.3125C12.25 24.8594 11.8203 25.25 11.3125 25.25H10.6875C8.77344 25.25 7.25 23.7266 7.25 21.8125V21.1875C7.25 20.6797 7.64062 20.25 8.1875 20.25C8.69531 20.25 9.125 20.6797 9.125 21.1875ZM14.4375 25.25C13.8906 25.25 13.5 24.8594 13.5 24.3125C13.5 23.8047 13.8906 23.375 14.4375 23.375H17.5625C18.0703 23.375 18.5 23.8047 18.5 24.3125C18.5 24.8594 18.0703 25.25 17.5625 25.25H14.4375ZM13.5 8.6875C13.5 8.17969 13.8906 7.75 14.4375 7.75H17.5625C18.0703 7.75 18.5 8.17969 18.5 8.6875C18.5 9.23438 18.0703 9.625 17.5625 9.625H14.4375C13.8906 9.625 13.5 9.23438 13.5 8.6875Z" fill="black" fill-opacity="0.72"/>
</g>
</svg>
