<svg width="32" height="32" viewBox="0 0 32 32" fill="none" xmlns="http://www.w3.org/2000/svg">
<g id="standalone / md / app-store-md">
<path id="icon" d="M15.9609 11.2266L15.6484 10.6406C15.4141 10.25 14.9062 10.1328 14.5547 10.3281C14.1641 10.5625 14.0469 11.0312 14.2422 11.4219L15.0625 12.8281L12.4453 17.3594H10.4141C9.98438 17.3594 9.63281 17.7109 9.63281 18.1406C9.63281 18.5703 9.98438 18.9219 10.4141 18.9219H17.6797C18.0312 18.2969 17.5625 17.3594 16.7812 17.3594H14.2812L17.7188 11.4219C17.9531 11.0312 17.7969 10.5625 17.4062 10.3281C17.0547 10.1328 16.5469 10.25 16.3516 10.6406L15.9609 11.2266ZM12.9141 19.7422C12.4844 19.2734 11.9766 19.1172 11.3125 19.3125L10.7656 20.2891C10.5312 20.6797 10.6484 21.1484 11.0391 21.3828C11.4297 21.5781 11.9375 21.4609 12.1328 21.0703L12.9141 19.7422ZM19.5156 17.3594C18.4609 15.5234 17.6797 14.1953 17.1719 13.2969C16.6641 13.6875 16.1953 14.8203 16.8594 15.9922C17.5234 17.125 18.5 18.8047 19.8281 21.0703C20.0234 21.4609 20.5312 21.5781 20.9219 21.3828C21.2734 21.1484 21.4297 20.6797 21.1953 20.2891L20.4141 18.9219H21.5859C22.0156 18.9219 22.3672 18.5703 22.3672 18.1406C22.3672 17.7109 22.0156 17.3594 21.5859 17.3594H19.5156ZM16 6.8125C21.3516 6.8125 25.6875 11.1484 25.6875 16.5C25.6875 21.8516 21.3516 26.1875 16 26.1875C10.6484 26.1875 6.3125 21.8516 6.3125 16.5C6.3125 11.1484 10.6484 6.8125 16 6.8125ZM24.4375 16.5C24.4375 11.8516 20.6094 8.0625 16 8.0625C11.3125 8.0625 7.5625 11.8906 7.5625 16.5C7.5625 21.1875 11.3516 24.9375 16 24.9375C20.6484 24.9375 24.4375 21.1484 24.4375 16.5Z" fill="black" fill-opacity="0.72"/>
</g>
</svg>
