<svg width="32" height="32" viewBox="0 0 32 32" fill="none" xmlns="http://www.w3.org/2000/svg">
<g id="standalone / md / circle-six-md / regular">
<path id="icon" d="M16 7.75C12.8359 7.75 9.98438 9.42969 8.42188 12.125C6.82031 14.8594 6.82031 18.1797 8.42188 20.875C9.98438 23.6094 12.8359 25.25 16 25.25C19.125 25.25 21.9766 23.6094 23.5391 20.875C25.1406 18.1797 25.1406 14.8594 23.5391 12.125C21.9766 9.42969 19.125 7.75 16 7.75ZM16 26.5C12.4062 26.5 9.125 24.625 7.32812 21.5C5.53125 18.4141 5.53125 14.625 7.32812 11.5C9.125 8.41406 12.4062 6.5 16 6.5C19.5547 6.5 22.8359 8.41406 24.6328 11.5C26.4297 14.625 26.4297 18.4141 24.6328 21.5C22.8359 24.625 19.5547 26.5 16 26.5ZM17.6797 11.7344C17.9141 11.9688 17.9141 12.3594 17.6406 12.5938L16.1172 14.0391C18.1484 14.0781 19.75 15.7578 19.75 17.75C19.75 19.8203 18.0703 21.5 16 21.5C13.9297 21.5 12.25 19.8203 12.25 17.75C12.25 16.6172 12.7188 15.4844 13.5781 14.7031L16.8203 11.6953C17.0547 11.4609 17.4453 11.4609 17.6797 11.7344ZM16 15.25C15.1016 15.25 14.2812 15.7578 13.8125 16.5C13.3828 17.2812 13.3828 18.2578 13.8125 19C14.2812 19.7812 15.1016 20.25 16 20.25C16.8594 20.25 17.6797 19.7812 18.1484 19C18.5781 18.2578 18.5781 17.2812 18.1484 16.5C17.6797 15.7578 16.8594 15.25 16 15.25Z" fill="black" fill-opacity="0.72"/>
</g>
</svg>
