<svg width="32" height="32" viewBox="0 0 32 32" fill="none" xmlns="http://www.w3.org/2000/svg">
<g id="standalone / md / file-xml-md / bold">
<path id="icon" d="M8.5 24.625H10.375V26.5H8.5C7.09375 26.5 6 25.4062 6 24V9C6 7.63281 7.09375 6.5 8.5 6.5H14.9453C15.6094 6.5 16.2344 6.77344 16.7031 7.24219L20.2578 10.7969C20.7266 11.2656 21 11.8906 21 12.5547V18.375H19.125V12.75H16C15.2969 12.75 14.75 12.2031 14.75 11.5V8.375H8.5C8.14844 8.375 7.875 8.6875 7.875 9V24C7.875 24.3516 8.14844 24.625 8.5 24.625ZM13.5 20.875C13.5 21.1875 13.5781 21.4609 13.7344 21.6953L14.125 22.2812L14.4766 21.6953C14.6328 21.4609 14.75 21.1875 14.75 20.875C14.75 20.5625 15.0234 20.25 15.375 20.25C15.6875 20.25 16 20.5625 16 20.875C16 21.4219 15.8438 21.9297 15.5312 22.3984L14.8672 23.375L15.5312 24.3906C15.8438 24.8594 16 25.3672 16 25.875C16 26.2266 15.6875 26.5 15.375 26.5C15.0234 26.5 14.75 26.2266 14.75 25.875C14.75 25.6016 14.6328 25.3281 14.4766 25.0938L14.125 24.5078L13.7344 25.0938C13.5781 25.3281 13.5 25.6016 13.5 25.875C13.5 26.2266 13.1875 26.5 12.875 26.5C12.5234 26.5 12.25 26.2266 12.25 25.875C12.25 25.3672 12.4062 24.8203 12.6797 24.3906L13.3438 23.375L12.6797 22.3984C12.4062 21.9297 12.25 21.4219 12.25 20.875C12.25 20.5625 12.5234 20.25 12.875 20.25C13.1875 20.25 13.5 20.5625 13.5 20.875ZM23.5 25.875V20.875C23.5 20.5625 23.7734 20.25 24.125 20.25C24.4375 20.25 24.75 20.5625 24.75 20.875V25.25H25.375C25.6875 25.25 26 25.5625 26 25.875C26 26.2266 25.6875 26.5 25.375 26.5H24.125C23.7734 26.5 23.5 26.2266 23.5 25.875ZM17.6797 20.2891C17.9531 20.2109 18.2656 20.3281 18.3828 20.5625L19.75 22.7891L21.0781 20.5625C21.2344 20.3281 21.5078 20.2109 21.7812 20.2891C22.0547 20.3672 22.25 20.6016 22.25 20.875V25.875C22.25 26.2266 21.9375 26.5 21.625 26.5C21.2734 26.5 21 26.2266 21 25.875V23.1406L20.2578 24.3516C20.1406 24.5469 19.9453 24.6641 19.75 24.6641C19.5156 24.6641 19.3203 24.5469 19.2031 24.3516L18.5 23.1406V25.875C18.5 26.2266 18.1875 26.5 17.875 26.5C17.5234 26.5 17.25 26.2266 17.25 25.875V20.875C17.25 20.6016 17.4062 20.3672 17.6797 20.2891Z" fill="black" fill-opacity="0.72"/>
</g>
</svg>
