<svg width="32" height="32" viewBox="0 0 32 32" fill="none" xmlns="http://www.w3.org/2000/svg">
<g id="standalone / md / handshake-md / fill">
<path id="icon" d="M16.1172 9.85938C16.7812 9.3125 17.6016 9 18.4609 9C19.1641 9 19.8672 9.23438 20.4531 9.58594L23.3047 11.4219L23.4609 11.5H23.5V18.8828L18.0703 13.8828L18.8516 13.2578C19.125 13.0625 19.2031 12.6719 18.9688 12.3984C18.7734 12.125 18.3828 12.0469 18.1094 12.2812L14.2031 15.2891C13.5391 15.7969 12.5625 15.6797 12.0547 14.9766C11.5859 14.3125 11.7031 13.4141 12.3281 12.9062L16.1172 9.85938ZM17.0156 14.7031L22.25 19.5078C22.9922 20.2109 23.0703 21.3828 22.3672 22.1641C21.7422 22.8672 20.6875 22.9453 19.9453 22.4375C19.8672 22.6719 19.7109 22.9062 19.5547 23.1016C18.8516 23.8438 17.6797 23.9219 16.8984 23.2188L16.2344 22.5938C16.1562 22.9062 16 23.1797 15.8047 23.4141C15.1016 24.1562 13.9297 24.2344 13.1484 23.5312L9.59375 20.25H8.5V11.5L11.3125 9.625C11.8984 9.23438 12.6406 9 13.3438 9.03906C13.8516 9.03906 14.3594 9.11719 14.7891 9.3125L11.5469 11.9297C10.4141 12.8672 10.1797 14.5469 11.0391 15.7188C11.9766 16.9688 13.7734 17.2422 14.9844 16.2656L17.0156 14.7031ZM4.125 11.5H7.25V20.25C7.25 20.9531 6.66406 21.5 6 21.5H4.75C4.04688 21.5 3.5 20.9531 3.5 20.25V12.125C3.5 11.8125 3.77344 11.5 4.125 11.5ZM5.375 19C5.02344 19 4.75 19.3125 4.75 19.625C4.75 19.9766 5.02344 20.25 5.375 20.25C5.6875 20.25 6 19.9766 6 19.625C6 19.3125 5.6875 19 5.375 19ZM24.75 11.5H27.875C28.1875 11.5 28.5 11.8125 28.5 12.125V20.25C28.5 20.9531 27.9141 21.5 27.25 21.5H26C25.2969 21.5 24.75 20.9531 24.75 20.25V11.5ZM26 19.625C26 19.9766 26.2734 20.25 26.625 20.25C26.9375 20.25 27.25 19.9766 27.25 19.625C27.25 19.3125 26.9375 19 26.625 19C26.2734 19 26 19.3125 26 19.625Z" fill="black" fill-opacity="0.72"/>
</g>
</svg>
