<svg width="32" height="32" viewBox="0 0 32 32" fill="none" xmlns="http://www.w3.org/2000/svg">
<g id="standalone / md / file-csv-md / bold">
<path id="icon" d="M8.5 24.625H9.75V26.5H8.5C7.79688 26.474 7.21094 26.2266 6.74219 25.7578C6.27344 25.2891 6.02604 24.7031 6 24V9C6.02604 8.29688 6.27344 7.71094 6.74219 7.24219C7.21094 6.77344 7.79688 6.52604 8.5 6.5H14.9844C15.6615 6.5 16.2474 6.7474 16.7422 7.24219L20.2578 10.7578C20.7526 11.2526 21 11.8516 21 12.5547V17.75H19.125V12.75H16C15.6354 12.75 15.3359 12.6328 15.1016 12.3984C14.8672 12.1641 14.75 11.8646 14.75 11.5V8.375H8.5C8.10938 8.40104 7.90104 8.60938 7.875 9V24C7.90104 24.3906 8.10938 24.599 8.5 24.625ZM13.8125 20.25H14.4375C14.8802 20.25 15.2448 20.4062 15.5312 20.7188C15.8438 21.0052 16 21.3698 16 21.8125V22.125C15.974 22.5156 15.7656 22.724 15.375 22.75C14.9844 22.724 14.776 22.5156 14.75 22.125V21.8125C14.724 21.6302 14.6198 21.526 14.4375 21.5H13.8125C13.6302 21.526 13.526 21.6302 13.5 21.8125V24.9375C13.526 25.1198 13.6302 25.224 13.8125 25.25H14.4375C14.6198 25.224 14.724 25.1198 14.75 24.9375V24.625C14.776 24.2344 14.9844 24.026 15.375 24C15.7656 24.026 15.974 24.2344 16 24.625V24.9375C16 25.3802 15.8438 25.7448 15.5312 26.0312C15.2448 26.3438 14.8802 26.5 14.4375 26.5H13.8125C13.3698 26.5 13.0052 26.3438 12.7188 26.0312C12.4062 25.7448 12.25 25.3802 12.25 24.9375V21.8125C12.25 21.3698 12.4062 21.0052 12.7188 20.7188C13.0052 20.4062 13.3698 20.25 13.8125 20.25ZM19.0078 20.25H20.375C20.7656 20.276 20.974 20.4844 21 20.875C20.974 21.2656 20.7656 21.474 20.375 21.5H19.0078C18.6953 21.526 18.526 21.6953 18.5 22.0078C18.5 22.2161 18.6042 22.3724 18.8125 22.4766L20.2578 23.1406C20.9349 23.4531 21.2865 23.987 21.3125 24.7422C21.3125 25.237 21.1432 25.6536 20.8047 25.9922C20.4661 26.3307 20.0495 26.5 19.5547 26.5H17.875C17.4844 26.474 17.276 26.2656 17.25 25.875C17.276 25.4844 17.4844 25.276 17.875 25.25H19.5547C19.8672 25.224 20.0365 25.0547 20.0625 24.7422C20.0625 24.5339 19.9583 24.3776 19.75 24.2734L18.3047 23.6094C17.6276 23.2969 17.276 22.763 17.25 22.0078C17.25 21.513 17.4193 21.0964 17.7578 20.7578C18.0964 20.4193 18.513 20.25 19.0078 20.25ZM22.875 20.25C23.2656 20.276 23.474 20.4844 23.5 20.875V22.125C23.5 23.0365 23.7083 23.8958 24.125 24.7031C24.5417 23.8958 24.75 23.0365 24.75 22.125V20.875C24.776 20.4844 24.9844 20.276 25.375 20.25C25.7656 20.276 25.974 20.4844 26 20.875V22.125C26 23.5052 25.6094 24.7682 24.8281 25.9141L24.6328 26.2266C24.5026 26.4089 24.3333 26.5 24.125 26.5C23.9167 26.5 23.7474 26.4089 23.6172 26.2266L23.4219 25.9141C22.6406 24.7682 22.25 23.5052 22.25 22.125V20.875C22.276 20.4844 22.4844 20.276 22.875 20.25Z" fill="black" fill-opacity="0.72"/>
</g>
</svg>
