<svg width="32" height="32" viewBox="0 0 32 32" fill="none" xmlns="http://www.w3.org/2000/svg">
<g id="standalone / md / circle-caret-down-md / fill">
<path id="icon" d="M16 6.5C19.5547 6.5 22.8359 8.41406 24.6328 11.5C26.4297 14.625 26.4297 18.4141 24.6328 21.5C22.8359 24.625 19.5547 26.5 16 26.5C12.4062 26.5 9.125 24.625 7.32812 21.5C5.53125 18.4141 5.53125 14.625 7.32812 11.5C9.125 8.41406 12.4062 6.5 16 6.5ZM16 20.875C16.2344 20.875 16.5078 20.7969 16.6641 20.6016L20.7266 16.2266C21 15.9531 21.0391 15.5625 20.9219 15.2109C20.7656 14.8594 20.4141 14.625 20.0625 14.625H11.9375C11.5469 14.625 11.1953 14.8594 11.0781 15.2109C10.9219 15.5625 10.9609 15.9531 11.2344 16.2266L15.2969 20.6016C15.4922 20.7969 15.7266 20.875 16 20.875Z" fill="black" fill-opacity="0.72"/>
</g>
</svg>
