<svg width="32" height="32" viewBox="0 0 32 32" fill="none" xmlns="http://www.w3.org/2000/svg">
<g id="standalone / md / circle-info-md / regular">
<path id="icon" d="M16 7.75C12.8359 7.75 9.98438 9.42969 8.42188 12.125C6.82031 14.8594 6.82031 18.1797 8.42188 20.875C9.98438 23.6094 12.8359 25.25 16 25.25C19.125 25.25 21.9766 23.6094 23.5391 20.875C25.1406 18.1797 25.1406 14.8594 23.5391 12.125C21.9766 9.42969 19.125 7.75 16 7.75ZM16 26.5C12.4062 26.5 9.125 24.625 7.32812 21.5C5.53125 18.4141 5.53125 14.625 7.32812 11.5C9.125 8.41406 12.4062 6.5 16 6.5C19.5547 6.5 22.8359 8.41406 24.6328 11.5C26.4297 14.625 26.4297 18.4141 24.6328 21.5C22.8359 24.625 19.5547 26.5 16 26.5ZM14.125 20.25H15.375V16.5H14.4375C14.0859 16.5 13.8125 16.2266 13.8125 15.875C13.8125 15.5625 14.0859 15.25 14.4375 15.25H16C16.3125 15.25 16.625 15.5625 16.625 15.875V20.25H17.875C18.1875 20.25 18.5 20.5625 18.5 20.875C18.5 21.2266 18.1875 21.5 17.875 21.5H14.125C13.7734 21.5 13.5 21.2266 13.5 20.875C13.5 20.5625 13.7734 20.25 14.125 20.25ZM16 13.6875C15.4531 13.6875 15.0625 13.2969 15.0625 12.75C15.0625 12.2422 15.4531 11.8125 16 11.8125C16.5078 11.8125 16.9375 12.2422 16.9375 12.75C16.9375 13.2969 16.5078 13.6875 16 13.6875Z" fill="black" fill-opacity="0.72"/>
</g>
</svg>
