<svg width="32" height="32" viewBox="0 0 32 32" fill="none" xmlns="http://www.w3.org/2000/svg">
<g id="standalone / md / sun-bright-md / fill">
<path id="icon" d="M16 6.5C16.5078 6.5 16.9375 6.92969 16.9375 7.4375V9.9375C16.9375 10.4844 16.5078 10.875 16 10.875C15.4531 10.875 15.0625 10.4844 15.0625 9.9375V7.4375C15.0625 6.92969 15.4531 6.5 16 6.5ZM16 22.125C16.5078 22.125 16.9375 22.5547 16.9375 23.0625V25.5625C16.9375 26.1094 16.5078 26.5 16 26.5C15.4531 26.5 15.0625 26.1094 15.0625 25.5625V23.0625C15.0625 22.5547 15.4531 22.125 16 22.125ZM25.0625 17.4375H22.5625C22.0156 17.4375 21.625 17.0469 21.625 16.5C21.625 15.9922 22.0156 15.5625 22.5625 15.5625H25.0625C25.5703 15.5625 26 15.9922 26 16.5C26 17.0469 25.5703 17.4375 25.0625 17.4375ZM10.375 16.5C10.375 17.0469 9.94531 17.4375 9.4375 17.4375H6.9375C6.39062 17.4375 6 17.0469 6 16.5C6 15.9922 6.39062 15.5625 6.9375 15.5625H9.4375C9.94531 15.5625 10.375 15.9922 10.375 16.5ZM23.0703 10.7578L21.2734 12.5547C20.9219 12.9062 20.3359 12.9062 19.9453 12.5547C19.5938 12.1641 19.5938 11.5781 19.9453 11.2266L21.7422 9.42969C22.0938 9.07812 22.6797 9.07812 23.0703 9.42969C23.4219 9.82031 23.4219 10.4062 23.0703 10.7578ZM12.0156 20.4844C12.3672 20.875 12.3672 21.4609 12.0156 21.8125L10.2188 23.5703C9.86719 23.9609 9.28125 23.9609 8.92969 23.5703C8.53906 23.2188 8.53906 22.6328 8.92969 22.2812L10.6875 20.4844C11.0391 20.1328 11.625 20.1328 12.0156 20.4844ZM21.7422 23.5703L19.9453 21.8125C19.5938 21.4609 19.5938 20.875 19.9453 20.4844C20.3359 20.1328 20.9219 20.1328 21.2734 20.4844L23.0703 22.2812C23.4219 22.6328 23.4219 23.2188 23.0703 23.5703C22.6797 23.9609 22.0938 23.9609 21.7422 23.5703ZM12.0156 12.5547C11.625 12.9062 11.0391 12.9062 10.6875 12.5547L8.92969 10.7578C8.53906 10.4062 8.53906 9.82031 8.92969 9.42969C9.28125 9.07812 9.86719 9.07812 10.2188 9.42969L12.0156 11.2266C12.3672 11.5781 12.3672 12.1641 12.0156 12.5547ZM16 20.875C14.3984 20.875 12.9922 20.0547 12.2109 18.6875C11.3906 17.3594 11.3906 15.6797 12.2109 14.3125C12.9922 12.9844 14.3984 12.125 16 12.125C17.5625 12.125 18.9688 12.9844 19.75 14.3125C20.5703 15.6797 20.5703 17.3594 19.75 18.6875C18.9688 20.0547 17.5625 20.875 16 20.875Z" fill="black" fill-opacity="0.72"/>
</g>
</svg>
