<svg width="32" height="32" viewBox="0 0 32 32" fill="none" xmlns="http://www.w3.org/2000/svg">
<g id="standalone / md / clock-three-md / regular">
<path id="icon" d="M24.75 16.5C24.75 13.375 23.0703 10.5234 20.375 8.96094C17.6406 7.35938 14.3203 7.35938 11.625 8.96094C8.89062 10.5234 7.25 13.375 7.25 16.5C7.25 19.6641 8.89062 22.5156 11.625 24.0781C14.3203 25.6797 17.6406 25.6797 20.375 24.0781C23.0703 22.5156 24.75 19.6641 24.75 16.5ZM6 16.5C6 12.9453 7.875 9.66406 11 7.86719C14.0859 6.07031 17.875 6.07031 21 7.86719C24.0859 9.66406 26 12.9453 26 16.5C26 20.0938 24.0859 23.375 21 25.1719C17.875 26.9688 14.0859 26.9688 11 25.1719C7.875 23.375 6 20.0938 6 16.5ZM15.375 10.875C15.375 10.5625 15.6484 10.25 16 10.25C16.3125 10.25 16.625 10.5625 16.625 10.875V15.875H20.375C20.6875 15.875 21 16.1875 21 16.5C21 16.8516 20.6875 17.125 20.375 17.125H16C15.6484 17.125 15.375 16.8516 15.375 16.5V10.875Z" fill="black" fill-opacity="0.72"/>
</g>
</svg>
