<svg width="32" height="32" viewBox="0 0 32 32" fill="none" xmlns="http://www.w3.org/2000/svg">
<g id="standalone / md / file-lines-md / regular">
<path id="icon" d="M21 25.25C21.6641 25.25 22.25 24.7031 22.25 24V14H17.875C16.8203 14 16 13.1797 16 12.125V7.75H11C10.2969 7.75 9.75 8.33594 9.75 9V24C9.75 24.7031 10.2969 25.25 11 25.25H21ZM17.875 12.75H22.2109C22.1719 12.6719 22.1328 12.5547 22.0547 12.4766L17.5234 7.94531C17.4453 7.86719 17.3281 7.82812 17.25 7.78906V12.125C17.25 12.4766 17.5234 12.75 17.875 12.75ZM11 6.5H17.0938C17.5625 6.5 18.0703 6.73438 18.4219 7.08594L22.9141 11.5781C23.2656 11.9297 23.5 12.4375 23.5 12.9062V24C23.5 25.4062 22.3672 26.5 21 26.5H11C9.59375 26.5 8.5 25.4062 8.5 24V9C8.5 7.63281 9.59375 6.5 11 6.5ZM12.875 16.5H19.125C19.4375 16.5 19.75 16.8125 19.75 17.125C19.75 17.4766 19.4375 17.75 19.125 17.75H12.875C12.5234 17.75 12.25 17.4766 12.25 17.125C12.25 16.8125 12.5234 16.5 12.875 16.5ZM12.875 19H19.125C19.4375 19 19.75 19.3125 19.75 19.625C19.75 19.9766 19.4375 20.25 19.125 20.25H12.875C12.5234 20.25 12.25 19.9766 12.25 19.625C12.25 19.3125 12.5234 19 12.875 19ZM12.875 21.5H19.125C19.4375 21.5 19.75 21.8125 19.75 22.125C19.75 22.4766 19.4375 22.75 19.125 22.75H12.875C12.5234 22.75 12.25 22.4766 12.25 22.125C12.25 21.8125 12.5234 21.5 12.875 21.5Z" fill="black" fill-opacity="0.72"/>
</g>
</svg>
