<svg width="32" height="32" viewBox="0 0 32 32" fill="none" xmlns="http://www.w3.org/2000/svg">
<g id="standalone / md / link-md / regular">
<path id="icon" d="M26.5859 16.5L21.7031 21.3828C19.75 23.3359 16.5859 23.3359 14.6719 21.3828C12.7969 19.5078 12.6797 16.5391 14.3984 14.5859L14.6328 14.3516C14.8281 14.0781 15.2578 14.0391 15.4922 14.2734C15.7656 14.5078 15.8047 14.8984 15.5703 15.1719L15.375 15.4062C14.0859 16.8906 14.1641 19.1172 15.5312 20.4844C17.0156 21.9688 19.3594 21.9688 20.8438 20.4844L25.6875 15.6406C27.1719 14.1562 27.1719 11.8125 25.6875 10.3281C24.2422 8.88281 21.8594 8.88281 20.4141 10.3281L19.5156 11.2266C19.2812 11.4609 18.8906 11.4609 18.6172 11.2266C18.3828 10.9531 18.3828 10.5625 18.6172 10.3281L19.5156 9.42969C21.4688 7.47656 24.6328 7.47656 26.5859 9.42969C28.5391 11.3828 28.5391 14.5469 26.5859 16.5ZM5.375 16.5L10.2578 11.6562C12.2109 9.70312 15.3359 9.70312 17.3281 11.6562C19.1641 13.4922 19.2812 16.4609 17.5625 18.4531L17.3281 18.6875C17.1328 18.9609 16.7422 19 16.4688 18.7656C16.1953 18.5312 16.1562 18.1406 16.3906 17.8672L16.625 17.6328C17.875 16.1484 17.7969 13.9219 16.4297 12.5547C14.9453 11.0703 12.6016 11.0703 11.1172 12.5547L6.27344 17.3984C4.78906 18.8828 4.78906 21.2266 6.27344 22.7109C7.71875 24.1562 10.1016 24.1562 11.5469 22.7109L12.4453 21.8125C12.6797 21.5781 13.0703 21.5781 13.3438 21.8125C13.5781 22.0469 13.5781 22.4766 13.3438 22.7109L12.4453 23.5703C10.4922 25.5234 7.32812 25.5234 5.375 23.5703C3.42188 21.6172 3.42188 18.4531 5.375 16.5Z" fill="black" fill-opacity="0.72"/>
</g>
</svg>
