<svg width="32" height="32" viewBox="0 0 32 32" fill="none" xmlns="http://www.w3.org/2000/svg">
<g id="standalone / md / mobile-notch-md / regular">
<path id="icon" d="M18.5 7.75V8.375C18.5 9.07812 17.9141 9.625 17.25 9.625H14.75C14.0469 9.625 13.5 9.07812 13.5 8.375V7.75H12.25C11.5469 7.75 11 8.33594 11 9V24C11 24.7031 11.5469 25.25 12.25 25.25H19.75C20.4141 25.25 21 24.7031 21 24V9C21 8.33594 20.4141 7.75 19.75 7.75H18.5ZM17.25 7.75H14.75V8.375H17.25V7.75ZM9.75 9C9.75 7.63281 10.8438 6.5 12.25 6.5H19.75C21.1172 6.5 22.25 7.63281 22.25 9V24C22.25 25.4062 21.1172 26.5 19.75 26.5H12.25C10.8438 26.5 9.75 25.4062 9.75 24V9Z" fill="black" fill-opacity="0.72"/>
</g>
</svg>
