<svg width="32" height="32" viewBox="0 0 32 32" fill="none" xmlns="http://www.w3.org/2000/svg">
<g id="standalone / md / barcode-md / regular">
<path id="icon" d="M6 8.375C6 8.0625 6.27344 7.75 6.625 7.75C6.9375 7.75 7.25 8.0625 7.25 8.375V24.625C7.25 24.9766 6.9375 25.25 6.625 25.25C6.27344 25.25 6 24.9766 6 24.625V8.375ZM8.5 8.375C8.5 8.0625 8.77344 7.75 9.125 7.75C9.4375 7.75 9.75 8.0625 9.75 8.375V24.625C9.75 24.9766 9.4375 25.25 9.125 25.25C8.77344 25.25 8.5 24.9766 8.5 24.625V8.375ZM11.625 7.75C11.9375 7.75 12.25 8.0625 12.25 8.375V24.625C12.25 24.9766 11.9375 25.25 11.625 25.25C11.2734 25.25 11 24.9766 11 24.625V8.375C11 8.0625 11.2734 7.75 11.625 7.75ZM14.75 8.375C14.75 8.0625 15.0234 7.75 15.375 7.75C15.6875 7.75 16 8.0625 16 8.375V24.625C16 24.9766 15.6875 25.25 15.375 25.25C15.0234 25.25 14.75 24.9766 14.75 24.625V8.375ZM17.875 7.75C18.1875 7.75 18.5 8.0625 18.5 8.375V24.625C18.5 24.9766 18.1875 25.25 17.875 25.25C17.5234 25.25 17.25 24.9766 17.25 24.625V8.375C17.25 8.0625 17.5234 7.75 17.875 7.75ZM21 8.375C21 8.0625 21.2734 7.75 21.625 7.75C21.9375 7.75 22.25 8.0625 22.25 8.375V24.625C22.25 24.9766 21.9375 25.25 21.625 25.25C21.2734 25.25 21 24.9766 21 24.625V8.375ZM25.375 7.75C25.6875 7.75 26 8.0625 26 8.375V24.625C26 24.9766 25.6875 25.25 25.375 25.25C25.0234 25.25 24.75 24.9766 24.75 24.625V8.375C24.75 8.0625 25.0234 7.75 25.375 7.75Z" fill="black" fill-opacity="0.72"/>
</g>
</svg>
