<svg width="32" height="32" viewBox="0 0 32 32" fill="none" xmlns="http://www.w3.org/2000/svg">
<g id="standalone / md / life-ring-md / bold">
<path id="icon" d="M21.0391 22.9062L17.875 19.7422C17.3281 20.0938 16.6641 20.25 16 20.25C15.2969 20.25 14.6328 20.0938 14.0859 19.7422L10.9219 22.9062C12.3281 24 14.0859 24.625 16 24.625C17.875 24.625 19.6328 24 21.0391 22.9062ZM23.6953 22.9062L24.125 23.375C24.5156 23.7266 24.5156 24.3125 24.125 24.6641C23.7734 25.0547 23.1875 25.0547 22.8359 24.6641L22.3672 24.2344C20.6094 25.6406 18.4219 26.5 16 26.5C13.5391 26.5 11.3516 25.6406 9.59375 24.2344L9.125 24.6641C8.77344 25.0547 8.1875 25.0547 7.83594 24.6641C7.44531 24.3125 7.44531 23.7266 7.83594 23.3359L8.26562 22.9062C6.85938 21.1484 6 18.9609 6 16.5C6 14.0781 6.85938 11.8906 8.26562 10.1328L7.83594 9.66406C7.44531 9.3125 7.44531 8.72656 7.83594 8.33594C8.1875 7.98438 8.77344 7.98438 9.16406 8.33594L9.59375 8.80469C11.3516 7.39844 13.5391 6.5 16 6.5C18.4219 6.5 20.6094 7.39844 22.3672 8.80469L22.8359 8.375C23.1875 7.98438 23.7734 7.98438 24.1641 8.375C24.5156 8.72656 24.5156 9.3125 24.1641 9.66406L23.6953 10.1328C25.1016 11.8906 26 14.0781 26 16.5C26 18.9609 25.1016 21.1484 23.6953 22.9062ZM22.3672 21.5781C23.4609 20.1719 24.125 18.4141 24.125 16.5C24.125 14.625 23.4609 12.8672 22.3672 11.4609L19.2031 14.625C19.5547 15.1719 19.75 15.8359 19.75 16.5C19.75 17.2031 19.5547 17.8672 19.2031 18.4141L22.3672 21.5781ZM21.0391 10.1328C19.6328 9.03906 17.875 8.375 16 8.375C14.0859 8.375 12.3281 9.03906 10.9219 10.1328L14.0859 13.2969C14.6328 12.9453 15.2969 12.75 15.9609 12.75C16.6641 12.75 17.3281 12.9453 17.875 13.2969L21.0391 10.1328ZM12.7578 18.4141C12.4062 17.8672 12.25 17.2031 12.25 16.5391C12.25 15.8359 12.4062 15.1719 12.7578 14.625L9.59375 11.4609C8.5 12.8672 7.875 14.625 7.875 16.5C7.875 18.4141 8.5 20.1719 9.59375 21.5781L12.7578 18.4141ZM14.125 16.5C14.125 17.2031 14.4766 17.7891 15.0625 18.1406C15.6094 18.4922 16.3516 18.4922 16.9375 18.1406C17.4844 17.7891 17.875 17.2031 17.875 16.5C17.875 15.8359 17.4844 15.25 16.9375 14.8984C16.3516 14.5469 15.6094 14.5469 15.0625 14.8984C14.4766 15.25 14.125 15.8359 14.125 16.5Z" fill="black" fill-opacity="0.72"/>
</g>
</svg>
