<svg width="32" height="32" viewBox="0 0 32 32" fill="none" xmlns="http://www.w3.org/2000/svg">
<g id="standalone / md / paperclip-md / bold">
<path id="icon" d="M21.8984 9.35156C20.8828 8.33594 19.2031 8.33594 18.1875 9.35156L10.7266 16.8516C9.00781 18.5703 9.00781 21.3438 10.7266 23.0234C12.4062 24.7422 15.1797 24.7422 16.8984 23.0234L22.8359 17.0859C23.1875 16.7344 23.7734 16.7344 24.125 17.0859C24.5156 17.4766 24.5156 18.0625 24.125 18.4141L18.2266 24.3516C15.7656 26.8125 11.8203 26.8125 9.39844 24.3516C6.9375 21.9297 6.9375 17.9844 9.39844 15.5234L16.8984 8.02344C18.6172 6.30469 21.4688 6.30469 23.2266 8.02344C24.9453 9.78125 24.9453 12.6328 23.2266 14.3516L16.0391 21.5391C14.7891 22.7891 12.7578 22.6719 11.6641 21.3047C10.7266 20.1328 10.8438 18.4531 11.8984 17.3984L17.8359 11.4609C18.1875 11.1094 18.7734 11.1094 19.125 11.4609C19.5156 11.8516 19.5156 12.4375 19.125 12.7891L13.2266 18.7266C12.8359 19.1172 12.7969 19.7031 13.1484 20.1328C13.5391 20.6016 14.2422 20.6797 14.7109 20.2109L21.8984 13.0234C22.9141 12.0078 22.9141 10.3672 21.8984 9.35156Z" fill="black" fill-opacity="0.72"/>
</g>
</svg>
