<svg width="32" height="32" viewBox="0 0 32 32" fill="none" xmlns="http://www.w3.org/2000/svg">
<g id="standalone / md / circle-arrow-up-left-md / bold">
<path id="icon" d="M16 8.375C13.0703 8.375 10.4141 9.9375 8.92969 12.4375C7.48438 14.9766 7.48438 18.0625 8.92969 20.5625C10.4141 23.1016 13.0703 24.625 16 24.625C18.8906 24.625 21.5469 23.1016 23.0312 20.5625C24.4766 18.0625 24.4766 14.9766 23.0312 12.4375C21.5469 9.9375 18.8906 8.375 16 8.375ZM16 26.5C12.4062 26.5 9.125 24.625 7.32812 21.5C5.53125 18.4141 5.53125 14.625 7.32812 11.5C9.125 8.41406 12.4062 6.5 16 6.5C19.5547 6.5 22.8359 8.41406 24.6328 11.5C26.4297 14.625 26.4297 18.4141 24.6328 21.5C22.8359 24.625 19.5547 26.5 16 26.5ZM18.5 12.125V12.1641C19.0078 12.1641 19.4375 12.5547 19.4375 13.1016C19.4375 13.6094 19.0078 14.0391 18.5 14.0391H14.7891L20.0625 19.3125C20.4531 19.6641 20.4531 20.25 20.0625 20.6016C19.7109 20.9922 19.125 20.9922 18.7734 20.6016L13.5 15.3281V19.3125C13.5 19.8594 13.0703 20.25 12.5625 20.25C12.0156 20.25 11.625 19.8594 11.625 19.3125V13.0625C11.625 12.5547 12.0156 12.125 12.5625 12.125H18.5Z" fill="black" fill-opacity="0.72"/>
</g>
</svg>
