<svg width="32" height="32" viewBox="0 0 32 32" fill="none" xmlns="http://www.w3.org/2000/svg">
<g id="standalone / md / mobile-notch-md / fill">
<path id="icon" d="M13.5 9H12.25C11.8984 9 11.625 9.3125 11.625 9.625V23.375C11.625 23.7266 11.8984 24 12.25 24H19.75C20.0625 24 20.375 23.7266 20.375 23.375V9.625C20.375 9.3125 20.0625 9 19.75 9H18.5V9.625C18.5 9.97656 18.1875 10.25 17.875 10.25H14.125C13.7734 10.25 13.5 9.97656 13.5 9.625V9ZM12.25 6.5H19.75C21.4688 6.5 22.875 7.90625 22.875 9.625V23.375C22.875 25.1328 21.4688 26.5 19.75 26.5H12.25C10.4922 26.5 9.125 25.1328 9.125 23.375V9.625C9.125 7.90625 10.4922 6.5 12.25 6.5ZM13.5 22.125C13.5 21.8125 13.7734 21.5 14.125 21.5H17.875C18.1875 21.5 18.5 21.8125 18.5 22.125C18.5 22.4766 18.1875 22.75 17.875 22.75H14.125C13.7734 22.75 13.5 22.4766 13.5 22.125Z" fill="black" fill-opacity="0.72"/>
</g>
</svg>
