<svg width="32" height="32" viewBox="0 0 32 32" fill="none" xmlns="http://www.w3.org/2000/svg">
<g id="standalone / md / chevrons-left-md / fill">
<path id="icon" d="M7.60156 15.6406L15.1016 8.14062C15.5703 7.63281 16.3906 7.63281 16.8594 8.14062C17.3672 8.60938 17.3672 9.42969 16.8594 9.89844L10.2578 16.5L16.8594 23.1406C17.3672 23.6094 17.3672 24.4297 16.8594 24.8984C16.3906 25.4062 15.5703 25.4062 15.1016 24.8984L7.60156 17.3984C7.09375 16.9297 7.09375 16.1094 7.60156 15.6406ZM22.6016 8.14062C23.0703 7.63281 23.8906 7.63281 24.3594 8.14062C24.8672 8.60938 24.8672 9.42969 24.3594 9.89844L17.7578 16.5L24.3594 23.1406C24.8672 23.6094 24.8672 24.4297 24.3594 24.8984C23.8906 25.4062 23.0703 25.4062 22.6016 24.8984L15.1016 17.3984C14.5938 16.9297 14.5938 16.1094 15.1016 15.6406L22.6016 8.14062Z" fill="black" fill-opacity="0.72"/>
</g>
</svg>
