<svg width="32" height="32" viewBox="0 0 32 32" fill="none" xmlns="http://www.w3.org/2000/svg">
<g id="standalone / md / options-md / fill">
<path id="icon" d="M8.8125 26.3047C7.60156 26.3047 6.625 25.3281 6.625 24.1172V18.5312C6.625 17.7891 7.21094 17.1641 7.99219 17.1641H9.00781C9.75 17.1641 10.375 17.7891 10.375 18.5312V20.0156L11.5469 18.8438C12.25 18.1406 13.1484 17.75 14.125 17.75H16.8594C17.6016 17.75 18.2266 18.375 18.2266 19.1172V19.9766C18.2266 20.7578 17.6016 21.3438 16.8594 21.3438H14.75C14.3594 21.3438 13.9688 21.5 13.6562 21.8125L12.9141 22.5547H14.3984C15.1406 22.5547 15.7656 23.1797 15.7656 23.9219V24.9375C15.7656 25.6797 15.1406 26.3047 14.3984 26.3047H8.8125ZM24.0469 16.6562H23.0312C22.25 16.6562 21.625 16.0312 21.625 15.25V13.7656L20.4531 14.9766C19.75 15.6406 18.8516 16.0312 17.875 16.0312H15.1406C14.3984 16.0312 13.7734 15.4453 13.7734 14.6641V13.8047C13.7734 13.0625 14.3984 12.4375 15.1406 12.4375H17.25C17.6406 12.4375 18.0703 12.2812 18.3438 12.0078L19.0859 11.2266H17.6016C16.8594 11.2266 16.2344 10.6406 16.2344 9.85938V8.84375C16.2344 8.10156 16.8594 7.47656 17.6016 7.47656H23.1875C24.3984 7.47656 25.375 8.49219 25.375 9.70312V15.25C25.375 16.0312 24.7891 16.6172 24.0078 16.6172H24.0469V16.6562Z" fill="black" fill-opacity="0.72"/>
</g>
</svg>
