<svg width="32" height="32" viewBox="0 0 32 32" fill="none" xmlns="http://www.w3.org/2000/svg">
<g id="standalone / md / share-from-square-md / fill">
<path id="icon" d="M18.5 15.25H16.6641C14.9062 15.25 13.5 16.6953 13.5 18.4531C13.5 19.3125 13.8906 19.7812 14.2422 20.0156C14.5156 20.2109 14.75 20.4844 14.75 20.8359C14.75 21.2266 14.4375 21.5391 14.0469 21.5391H13.9297C13.8516 21.5391 13.7344 21.5 13.6562 21.4609C12.9531 21.1484 9.75 19.5469 9.75 15.875C9.75 12.7891 12.25 10.25 15.375 10.25H18.5V7.86719C18.5 7.125 19.0859 6.5 19.8281 6.5C20.1797 6.5 20.4922 6.65625 20.7266 6.85156L26.1562 11.7344C26.4297 12.0078 26.625 12.3594 26.625 12.75C26.625 13.1797 26.4297 13.5312 26.1562 13.8047L20.7266 18.6875C20.4922 18.9219 20.1797 19 19.8672 19H19.75C19.0469 19 18.5 18.4531 18.5 17.75V15.25ZM7.875 10.25C7.52344 10.25 7.25 10.5625 7.25 10.875V23.375C7.25 23.7266 7.52344 24 7.875 24H20.375C20.6875 24 21 23.7266 21 23.375V21.5C21 20.8359 21.5469 20.25 22.25 20.25C22.9141 20.25 23.5 20.8359 23.5 21.5V23.375C23.5 25.1328 22.0938 26.5 20.375 26.5H7.875C6.11719 26.5 4.75 25.1328 4.75 23.375V10.875C4.75 9.15625 6.11719 7.75 7.875 7.75H9.75C10.4141 7.75 11 8.33594 11 9C11 9.70312 10.4141 10.25 9.75 10.25H7.875Z" fill="black" fill-opacity="0.72"/>
</g>
</svg>
