<svg width="32" height="32" viewBox="0 0 32 32" fill="none" xmlns="http://www.w3.org/2000/svg">
<g id="standalone / md / grip-dots-vertical-md / regular">
<path id="icon" d="M13.5 10.25C13.5 9.9375 13.1875 9.625 12.875 9.625C12.5234 9.625 12.25 9.9375 12.25 10.25C12.25 10.6016 12.5234 10.875 12.875 10.875C13.1875 10.875 13.5 10.6016 13.5 10.25ZM11 10.25C11 9.58594 11.3516 9 11.9375 8.64844C12.4844 8.29688 13.2266 8.29688 13.8125 8.64844C14.3594 9 14.75 9.58594 14.75 10.25C14.75 10.9531 14.3594 11.5391 13.8125 11.8906C13.2266 12.2422 12.4844 12.2422 11.9375 11.8906C11.3516 11.5391 11 10.9531 11 10.25ZM13.5 16.5C13.5 16.1875 13.1875 15.875 12.875 15.875C12.5234 15.875 12.25 16.1875 12.25 16.5C12.25 16.8516 12.5234 17.125 12.875 17.125C13.1875 17.125 13.5 16.8516 13.5 16.5ZM11 16.5C11 15.8359 11.3516 15.25 11.9375 14.8984C12.4844 14.5469 13.2266 14.5469 13.8125 14.8984C14.3594 15.25 14.75 15.8359 14.75 16.5C14.75 17.2031 14.3594 17.7891 13.8125 18.1406C13.2266 18.4922 12.4844 18.4922 11.9375 18.1406C11.3516 17.7891 11 17.2031 11 16.5ZM12.875 23.375C13.1875 23.375 13.5 23.1016 13.5 22.75C13.5 22.4375 13.1875 22.125 12.875 22.125C12.5234 22.125 12.25 22.4375 12.25 22.75C12.25 23.1016 12.5234 23.375 12.875 23.375ZM12.875 20.875C13.5391 20.875 14.125 21.2656 14.4766 21.8125C14.8281 22.3984 14.8281 23.1406 14.4766 23.6875C14.125 24.2734 13.5391 24.625 12.875 24.625C12.1719 24.625 11.5859 24.2734 11.2344 23.6875C10.8828 23.1406 10.8828 22.3984 11.2344 21.8125C11.5859 21.2656 12.1719 20.875 12.875 20.875ZM19.75 10.25C19.75 9.9375 19.4375 9.625 19.125 9.625C18.7734 9.625 18.5 9.9375 18.5 10.25C18.5 10.6016 18.7734 10.875 19.125 10.875C19.4375 10.875 19.75 10.6016 19.75 10.25ZM17.25 10.25C17.25 9.58594 17.6016 9 18.1875 8.64844C18.7344 8.29688 19.4766 8.29688 20.0625 8.64844C20.6094 9 21 9.58594 21 10.25C21 10.9531 20.6094 11.5391 20.0625 11.8906C19.4766 12.2422 18.7344 12.2422 18.1875 11.8906C17.6016 11.5391 17.25 10.9531 17.25 10.25ZM19.125 17.125C19.4375 17.125 19.75 16.8516 19.75 16.5C19.75 16.1875 19.4375 15.875 19.125 15.875C18.7734 15.875 18.5 16.1875 18.5 16.5C18.5 16.8516 18.7734 17.125 19.125 17.125ZM19.125 14.625C19.7891 14.625 20.375 15.0156 20.7266 15.5625C21.0781 16.1484 21.0781 16.8906 20.7266 17.4375C20.375 18.0234 19.7891 18.375 19.125 18.375C18.4219 18.375 17.8359 18.0234 17.4844 17.4375C17.1328 16.8906 17.1328 16.1484 17.4844 15.5625C17.8359 15.0156 18.4219 14.625 19.125 14.625ZM19.75 22.75C19.75 22.4375 19.4375 22.125 19.125 22.125C18.7734 22.125 18.5 22.4375 18.5 22.75C18.5 23.1016 18.7734 23.375 19.125 23.375C19.4375 23.375 19.75 23.1016 19.75 22.75ZM17.25 22.75C17.25 22.0859 17.6016 21.5 18.1875 21.1484C18.7344 20.7969 19.4766 20.7969 20.0625 21.1484C20.6094 21.5 21 22.0859 21 22.75C21 23.4531 20.6094 24.0391 20.0625 24.3906C19.4766 24.7422 18.7344 24.7422 18.1875 24.3906C17.6016 24.0391 17.25 23.4531 17.25 22.75Z" fill="black" fill-opacity="0.72"/>
</g>
</svg>
