<svg width="32" height="32" viewBox="0 0 32 32" fill="none" xmlns="http://www.w3.org/2000/svg">
<g id="standalone / md / file-csv-md / fill">
<path id="icon" d="M6 9C6 7.63281 7.09375 6.5 8.5 6.5H14.75V11.5C14.75 12.2031 15.2969 12.75 16 12.75H21V18.375H12.875C11.4688 18.375 10.375 19.5078 10.375 20.875V26.5H8.5C7.09375 26.5 6 25.4062 6 24V9ZM21 11.5H16V6.5L21 11.5ZM13.8125 20.25H14.4375C15.2969 20.25 16 20.9531 16 21.8125V22.125C16 22.4766 15.6875 22.75 15.375 22.75C15.0234 22.75 14.75 22.4766 14.75 22.125V21.8125C14.75 21.6562 14.5938 21.5 14.4375 21.5H13.8125C13.6172 21.5 13.5 21.6562 13.5 21.8125V24.9375C13.5 25.1328 13.6172 25.25 13.8125 25.25H14.4375C14.5938 25.25 14.75 25.1328 14.75 24.9375V24.625C14.75 24.3125 15.0234 24 15.375 24C15.6875 24 16 24.3125 16 24.625V24.9375C16 25.8359 15.2969 26.5 14.4375 26.5H13.8125C12.9141 26.5 12.25 25.8359 12.25 24.9375V21.8125C12.25 20.9531 12.9141 20.25 13.8125 20.25ZM19.0078 20.25H20.375C20.6875 20.25 21 20.5625 21 20.875C21 21.2266 20.6875 21.5 20.375 21.5H19.0078C18.6953 21.5 18.5 21.7344 18.5 22.0469C18.5 22.2422 18.6172 22.3984 18.7734 22.5156L20.2578 23.1406C20.8828 23.4141 21.3125 24.0781 21.3125 24.7422C21.3125 25.7188 20.4922 26.5 19.5156 26.5H17.875C17.5234 26.5 17.25 26.2266 17.25 25.875C17.25 25.5625 17.5234 25.25 17.875 25.25H19.5156C19.8281 25.25 20.0625 25.0547 20.0625 24.7422C20.0625 24.5469 19.9453 24.3516 19.75 24.2734L18.2656 23.6484C17.6406 23.375 17.25 22.7109 17.25 22.0469C17.25 21.0703 18.0312 20.25 19.0078 20.25ZM22.875 20.25C23.1875 20.25 23.5 20.5625 23.5 20.875V22.125C23.5 23.0234 23.6953 23.9219 24.125 24.7031C24.5156 23.9219 24.75 23.0234 24.75 22.125V20.875C24.75 20.5625 25.0234 20.25 25.375 20.25C25.6875 20.25 26 20.5625 26 20.875V22.125C26 23.4922 25.5703 24.8203 24.8281 25.9531L24.6328 26.2266C24.5156 26.4219 24.3203 26.5 24.125 26.5C23.8906 26.5 23.6953 26.4219 23.5781 26.2266L23.3828 25.9531C22.6406 24.8203 22.25 23.4922 22.25 22.125V20.875C22.25 20.5625 22.5234 20.25 22.875 20.25Z" fill="black" fill-opacity="0.72"/>
</g>
</svg>
