<svg width="32" height="32" viewBox="0 0 32 32" fill="none" xmlns="http://www.w3.org/2000/svg">
<g id="standalone / md / file-doc-md / bold">
<path id="icon" d="M8.5 24.625H9.75V26.5H8.5C7.79688 26.474 7.21094 26.2266 6.74219 25.7578C6.27344 25.2891 6.02604 24.7031 6 24V9C6.02604 8.29688 6.27344 7.71094 6.74219 7.24219C7.21094 6.77344 7.79688 6.52604 8.5 6.5H14.9844C15.6615 6.5 16.2474 6.7474 16.7422 7.24219L20.2578 10.7578C20.7526 11.2526 21 11.8516 21 12.5547V17.75H19.125V12.75H16C15.6354 12.75 15.3359 12.6328 15.1016 12.3984C14.8672 12.1641 14.75 11.8646 14.75 11.5V8.375H8.5C8.10938 8.40104 7.90104 8.60938 7.875 9V24C7.90104 24.3906 8.10938 24.599 8.5 24.625ZM12.875 20.25H14.125C14.6458 20.276 15.0885 20.4583 15.4531 20.7969C15.7917 21.1615 15.974 21.6042 16 22.125V24.625C15.974 25.1458 15.7917 25.5885 15.4531 25.9531C15.0885 26.2917 14.6458 26.474 14.125 26.5H12.875C12.4844 26.474 12.276 26.2656 12.25 25.875V20.875C12.276 20.4844 12.4844 20.276 12.875 20.25ZM13.5 25.25H14.125C14.5156 25.224 14.724 25.0156 14.75 24.625V22.125C14.724 21.7344 14.5156 21.526 14.125 21.5H13.5V25.25ZM23.8125 20.25H24.4375C24.8802 20.25 25.2448 20.4062 25.5312 20.7188C25.8438 21.0052 26 21.3698 26 21.8125V22.125C25.974 22.5156 25.7656 22.724 25.375 22.75C24.9844 22.724 24.776 22.5156 24.75 22.125V21.8125C24.724 21.6302 24.6198 21.526 24.4375 21.5H23.8125C23.6302 21.526 23.526 21.6302 23.5 21.8125V24.9375C23.526 25.1198 23.6302 25.224 23.8125 25.25H24.4375C24.6198 25.224 24.724 25.1198 24.75 24.9375V24.625C24.776 24.2344 24.9844 24.026 25.375 24C25.7656 24.026 25.974 24.2344 26 24.625V24.9375C26 25.3802 25.8438 25.7448 25.5312 26.0312C25.2448 26.3438 24.8802 26.5 24.4375 26.5H23.8125C23.3698 26.5 23.0052 26.3438 22.7188 26.0312C22.4062 25.7448 22.25 25.3802 22.25 24.9375V21.8125C22.25 21.3698 22.4062 21.0052 22.7188 20.7188C23.0052 20.4062 23.3698 20.25 23.8125 20.25ZM17.25 21.8125C17.25 21.3698 17.4062 21.0052 17.7188 20.7188C18.0052 20.4062 18.3698 20.25 18.8125 20.25H19.4375C19.8802 20.25 20.2448 20.4062 20.5312 20.7188C20.8438 21.0052 21 21.3698 21 21.8125V24.9375C21 25.3802 20.8438 25.7448 20.5312 26.0312C20.2448 26.3438 19.8802 26.5 19.4375 26.5H18.8125C18.3698 26.5 18.0052 26.3438 17.7188 26.0312C17.4062 25.7448 17.25 25.3802 17.25 24.9375V21.8125ZM18.8125 21.5C18.6302 21.526 18.526 21.6302 18.5 21.8125V24.9375C18.526 25.1198 18.6302 25.224 18.8125 25.25H19.4375C19.6198 25.224 19.724 25.1198 19.75 24.9375V21.8125C19.724 21.6302 19.6198 21.526 19.4375 21.5H18.8125Z" fill="black" fill-opacity="0.72"/>
</g>
</svg>
