<svg width="32" height="32" viewBox="0 0 32 32" fill="none" xmlns="http://www.w3.org/2000/svg">
<g id="standalone / md / compress-md / bold">
<path id="icon" d="M13.5 8.6875V13.0625C13.5 13.6094 13.0703 14 12.5625 14H8.1875C7.64062 14 7.25 13.6094 7.25 13.0625C7.25 12.5547 7.64062 12.125 8.1875 12.125H11.625V8.6875C11.625 8.17969 12.0156 7.75 12.5625 7.75C13.0703 7.75 13.5 8.17969 13.5 8.6875ZM8.1875 19H12.5625C13.0703 19 13.5 19.4297 13.5 19.9375V24.3125C13.5 24.8594 13.0703 25.25 12.5625 25.25C12.0156 25.25 11.625 24.8594 11.625 24.3125V20.875H8.1875C7.64062 20.875 7.25 20.4844 7.25 19.9375C7.25 19.4297 7.64062 19 8.1875 19ZM20.375 8.6875V12.125H23.8125C24.3203 12.125 24.75 12.5547 24.75 13.0625C24.75 13.6094 24.3203 14 23.8125 14H19.4375C18.8906 14 18.5 13.6094 18.5 13.0625V8.6875C18.5 8.17969 18.8906 7.75 19.4375 7.75C19.9453 7.75 20.375 8.17969 20.375 8.6875ZM19.4375 19H23.8125C24.3203 19 24.75 19.4297 24.75 19.9375C24.75 20.4844 24.3203 20.875 23.8125 20.875H20.375V24.3125C20.375 24.8594 19.9453 25.25 19.4375 25.25C18.8906 25.25 18.5 24.8594 18.5 24.3125V19.9375C18.5 19.4297 18.8906 19 19.4375 19Z" fill="black" fill-opacity="0.72"/>
</g>
</svg>
