<svg width="32" height="32" viewBox="0 0 32 32" fill="none" xmlns="http://www.w3.org/2000/svg">
<g id="standalone / md / exclamation-md / fill">
<path id="icon" d="M17.25 9V19C17.25 19.7031 16.6641 20.25 16 20.25C15.2969 20.25 14.75 19.7031 14.75 19V9C14.75 8.33594 15.2969 7.75 16 7.75C16.6641 7.75 17.25 8.33594 17.25 9ZM16 25.25C15.4141 25.25 14.9062 24.9766 14.6328 24.4688C14.3594 24 14.3594 23.4141 14.6328 22.9062C14.9062 22.4375 15.4141 22.125 16 22.125C16.5469 22.125 17.0547 22.4375 17.3281 22.9062C17.6016 23.4141 17.6016 24 17.3281 24.4688C17.0547 24.9766 16.5469 25.25 16 25.25Z" fill="black" fill-opacity="0.72"/>
</g>
</svg>
