<svg width="32" height="32" viewBox="0 0 32 32" fill="none" xmlns="http://www.w3.org/2000/svg">
<g id="standalone / md / circle-dot-md / regular">
<path id="icon" d="M24.75 16.5C24.75 13.375 23.0703 10.5234 20.375 8.96094C17.6406 7.35938 14.3203 7.35938 11.625 8.96094C8.89062 10.5234 7.25 13.375 7.25 16.5C7.25 19.6641 8.89062 22.5156 11.625 24.0781C14.3203 25.6797 17.6406 25.6797 20.375 24.0781C23.0703 22.5156 24.75 19.6641 24.75 16.5ZM6 16.5C6 12.9453 7.875 9.66406 11 7.86719C14.0859 6.07031 17.875 6.07031 21 7.86719C24.0859 9.66406 26 12.9453 26 16.5C26 20.0938 24.0859 23.375 21 25.1719C17.875 26.9688 14.0859 26.9688 11 25.1719C7.875 23.375 6 20.0938 6 16.5ZM18.5 16.5C18.5 15.6406 17.9922 14.8203 17.25 14.3516C16.4688 13.9219 15.4922 13.9219 14.75 14.3516C13.9688 14.8203 13.5 15.6406 13.5 16.5C13.5 17.3984 13.9688 18.2188 14.75 18.6875C15.4922 19.1172 16.4688 19.1172 17.25 18.6875C17.9922 18.2188 18.5 17.3984 18.5 16.5ZM12.25 16.5C12.25 15.1719 12.9531 13.9609 14.125 13.2578C15.2578 12.5938 16.7031 12.5938 17.875 13.2578C19.0078 13.9609 19.75 15.1719 19.75 16.5C19.75 17.8672 19.0078 19.0781 17.875 19.7812C16.7031 20.4453 15.2578 20.4453 14.125 19.7812C12.9531 19.0781 12.25 17.8672 12.25 16.5Z" fill="black" fill-opacity="0.72"/>
</g>
</svg>
