<svg width="32" height="32" viewBox="0 0 32 32" fill="none" xmlns="http://www.w3.org/2000/svg">
<g id="standalone / md / lock-md / bold">
<path id="icon" d="M12.875 11.5V14H19.125V11.5C19.125 9.78125 17.7188 8.375 16 8.375C14.2422 8.375 12.875 9.78125 12.875 11.5ZM11 14V11.5C11 8.76562 13.2266 6.5 16 6.5C18.7344 6.5 21 8.76562 21 11.5V14H22.25C23.6172 14 24.75 15.1328 24.75 16.5V24C24.75 25.4062 23.6172 26.5 22.25 26.5H9.75C8.34375 26.5 7.25 25.4062 7.25 24V16.5C7.25 15.1328 8.34375 14 9.75 14H11ZM9.125 16.5V24C9.125 24.3516 9.39844 24.625 9.75 24.625H22.25C22.5625 24.625 22.875 24.3516 22.875 24V16.5C22.875 16.1875 22.5625 15.875 22.25 15.875H9.75C9.39844 15.875 9.125 16.1875 9.125 16.5Z" fill="black" fill-opacity="0.72"/>
</g>
</svg>
