<svg width="32" height="32" viewBox="0 0 32 32" fill="none" xmlns="http://www.w3.org/2000/svg">
<g id="standalone / md / search-md / bold">
<path id="icon" d="M20.375 14.625C20.375 12.3984 19.1641 10.3672 17.25 9.23438C15.2969 8.10156 12.9141 8.10156 11 9.23438C9.04688 10.3672 7.875 12.3984 7.875 14.625C7.875 16.8906 9.04688 18.9219 11 20.0547C12.9141 21.1875 15.2969 21.1875 17.25 20.0547C19.1641 18.9219 20.375 16.8906 20.375 14.625ZM19.1641 21.0312C17.7578 22.125 16 22.75 14.125 22.75C9.63281 22.75 6 19.1172 6 14.625C6 10.1719 9.63281 6.5 14.125 6.5C18.5781 6.5 22.25 10.1719 22.25 14.625C22.25 16.5391 21.5859 18.2969 20.4922 19.7031L25.7266 24.8984C26.0781 25.2891 26.0781 25.875 25.7266 26.2266C25.3359 26.6172 24.75 26.6172 24.3984 26.2266L19.1641 21.0312Z" fill="black" fill-opacity="0.72"/>
</g>
</svg>
