<svg width="32" height="32" viewBox="0 0 32 32" fill="none" xmlns="http://www.w3.org/2000/svg">
<g id="standalone / md / options-md / regular">
<path id="icon" d="M8.85156 26.3047C7.64062 26.3047 6.66406 25.3281 6.66406 24.1172V18.5312C6.66406 17.7891 7.25 17.1641 7.99219 17.1641H9.00781C9.78906 17.1641 10.4141 17.7891 10.4141 18.5312V20.0156L11.5859 18.8438C12.2891 18.1406 13.1875 17.75 14.1641 17.75H16.8984C17.6406 17.75 18.2656 18.375 18.2656 19.1172V19.9766C18.2656 20.7578 17.6406 21.3438 16.8984 21.3438H14.7891C14.3984 21.3438 13.9688 21.5 13.6953 21.8125L12.9531 22.5547H14.4375C15.1797 22.5547 15.8047 23.1797 15.8047 23.9219V24.9375C15.8047 25.7188 15.1797 26.3047 14.4375 26.3047H8.85156ZM7.99219 18.2188C7.83594 18.2188 7.67969 18.375 7.67969 18.5312V24.1172C7.67969 24.7422 8.22656 25.2891 8.85156 25.2891H14.3984C14.5938 25.2891 14.75 25.1328 14.75 24.9375V23.9219C14.75 23.7656 14.5938 23.6094 14.3984 23.6094H12.5234C12.1719 23.6094 11.8594 23.375 11.7031 23.0625C11.5859 22.75 11.6641 22.3594 11.8984 22.125L12.9141 21.0703C13.4219 20.6016 14.0859 20.3281 14.7891 20.3281H16.8594C17.0547 20.3281 17.1719 20.1719 17.1719 20.0156V19.1562C17.1719 18.9609 17.0547 18.8438 16.8594 18.8438H14.125C13.4609 18.8438 12.7969 19.1172 12.2891 19.5859L10.8438 21.0703C10.5703 21.3047 10.1797 21.3828 9.86719 21.2266C9.51562 21.1094 9.32031 20.7969 9.32031 20.4453V18.5312C9.32031 18.375 9.16406 18.2188 9.00781 18.2188H7.99219ZM24.0469 16.6562H23.0312C22.2891 16.6562 21.6641 16.0312 21.6641 15.25V13.7656L20.4922 14.9766C19.7891 15.6406 18.8906 16.0312 17.9141 16.0312H15.1797C14.4375 16.0312 13.8125 15.4453 13.8125 14.6641V13.8047C13.8125 13.0625 14.4375 12.4375 15.1797 12.4375H17.2891C17.6797 12.4375 18.0703 12.2812 18.3828 12.0078L19.125 11.2266H17.6406C16.8984 11.2266 16.2734 10.6406 16.2734 9.85938V8.84375C16.2734 8.10156 16.8984 7.47656 17.6406 7.47656H23.1875C24.3984 7.47656 25.4141 8.49219 25.4141 9.70312V15.25C25.4141 16.0312 24.7891 16.6172 24.0469 16.6172V16.6562ZM21.8594 12.5156C21.9766 12.5156 22.0938 12.5156 22.1719 12.5547C22.5234 12.7109 22.7188 13.0234 22.7188 13.375V15.2891C22.7188 15.4453 22.875 15.6016 23.0703 15.6016H24.0859C24.2422 15.6016 24.3984 15.4453 24.3984 15.2891V9.70312C24.3984 9.07812 23.8906 8.53125 23.2266 8.53125H17.6797C17.4844 8.53125 17.3672 8.6875 17.3672 8.84375V9.85938C17.3672 10.0547 17.4844 10.2109 17.6797 10.2109H19.5547C19.9062 10.2109 20.2188 10.4062 20.375 10.7578C20.4922 11.0703 20.4531 11.4609 20.1797 11.6953L19.1641 12.7109C18.6562 13.2188 18.0312 13.4922 17.3281 13.4922H15.2188C15.0234 13.4922 14.9062 13.6094 14.9062 13.8047V14.6641C14.9062 14.8594 15.0625 14.9766 15.2188 14.9766H17.9531C18.6562 14.9766 19.2812 14.7031 19.7891 14.2344L21.2734 12.75C21.4297 12.5938 21.625 12.5156 21.8594 12.5156Z" fill="black" fill-opacity="0.72"/>
</g>
</svg>
