<svg width="32" height="32" viewBox="0 0 32 32" fill="none" xmlns="http://www.w3.org/2000/svg">
<g id="standalone / md / placeholder-md / regular">
<path id="icon" d="M10.6875 7.75H11.625C11.9375 7.75 12.25 8.0625 12.25 8.375C12.25 8.72656 11.9375 9 11.625 9H10.6875C9.47656 9 8.5 10.0156 8.5 11.1875V12.125C8.5 12.4766 8.1875 12.75 7.875 12.75C7.52344 12.75 7.25 12.4766 7.25 12.125V11.1875C7.25 9.3125 8.77344 7.75 10.6875 7.75ZM7.875 14C8.1875 14 8.5 14.3125 8.5 14.625V18.375C8.5 18.7266 8.1875 19 7.875 19C7.52344 19 7.25 18.7266 7.25 18.375V14.625C7.25 14.3125 7.52344 14 7.875 14ZM24.125 14C24.4375 14 24.75 14.3125 24.75 14.625V18.375C24.75 18.7266 24.4375 19 24.125 19C23.7734 19 23.5 18.7266 23.5 18.375V14.625C23.5 14.3125 23.7734 14 24.125 14ZM24.125 12.75C23.7734 12.75 23.5 12.4766 23.5 12.125V11.1875C23.5 10.0156 22.4844 9 21.3125 9H20.375C20.0234 9 19.75 8.72656 19.75 8.375C19.75 8.0625 20.0234 7.75 20.375 7.75H21.3125C23.1875 7.75 24.75 9.3125 24.75 11.1875V12.125C24.75 12.4766 24.4375 12.75 24.125 12.75ZM24.75 20.875V21.8125C24.75 23.7266 23.1875 25.25 21.3125 25.25H20.375C20.0234 25.25 19.75 24.9766 19.75 24.625C19.75 24.3125 20.0234 24 20.375 24H21.3125C22.4844 24 23.5 23.0234 23.5 21.8125V20.875C23.5 20.5625 23.7734 20.25 24.125 20.25C24.4375 20.25 24.75 20.5625 24.75 20.875ZM8.5 20.875V21.8125C8.5 23.0234 9.47656 24 10.6875 24H11.625C11.9375 24 12.25 24.3125 12.25 24.625C12.25 24.9766 11.9375 25.25 11.625 25.25H10.6875C8.77344 25.25 7.25 23.7266 7.25 21.8125V20.875C7.25 20.5625 7.52344 20.25 7.875 20.25C8.1875 20.25 8.5 20.5625 8.5 20.875ZM14.125 25.25C13.7734 25.25 13.5 24.9766 13.5 24.625C13.5 24.3125 13.7734 24 14.125 24H17.875C18.1875 24 18.5 24.3125 18.5 24.625C18.5 24.9766 18.1875 25.25 17.875 25.25H14.125ZM13.5 8.375C13.5 8.0625 13.7734 7.75 14.125 7.75H17.875C18.1875 7.75 18.5 8.0625 18.5 8.375C18.5 8.72656 18.1875 9 17.875 9H14.125C13.7734 9 13.5 8.72656 13.5 8.375Z" fill="black" fill-opacity="0.72"/>
</g>
</svg>
