<svg width="32" height="32" viewBox="0 0 32 32" fill="none" xmlns="http://www.w3.org/2000/svg">
<g id="standalone / md / credit-card-md / bold">
<path id="icon" d="M25.25 9.625H7.75C7.39844 9.625 7.125 9.9375 7.125 10.25V11.5H25.875V10.25C25.875 9.9375 25.5625 9.625 25.25 9.625ZM25.875 15.25H7.125V22.75C7.125 23.1016 7.39844 23.375 7.75 23.375H25.25C25.5625 23.375 25.875 23.1016 25.875 22.75V15.25ZM7.75 7.75H25.25C26.6172 7.75 27.75 8.88281 27.75 10.25V22.75C27.75 24.1562 26.6172 25.25 25.25 25.25H7.75C6.34375 25.25 5.25 24.1562 5.25 22.75V10.25C5.25 8.88281 6.34375 7.75 7.75 7.75ZM9.9375 19.625H11.8125C12.3203 19.625 12.75 20.0547 12.75 20.5625C12.75 21.1094 12.3203 21.5 11.8125 21.5H9.9375C9.39062 21.5 9 21.1094 9 20.5625C9 20.0547 9.39062 19.625 9.9375 19.625ZM14.9375 19.625H19.3125C19.8203 19.625 20.25 20.0547 20.25 20.5625C20.25 21.1094 19.8203 21.5 19.3125 21.5H14.9375C14.3906 21.5 14 21.1094 14 20.5625C14 20.0547 14.3906 19.625 14.9375 19.625Z" fill="black" fill-opacity="0.72"/>
</g>
</svg>
