<svg width="32" height="32" viewBox="0 0 32 32" fill="none" xmlns="http://www.w3.org/2000/svg">
<g id="standalone / md / laptop-md / bold">
<path id="icon" d="M23.5 9.625H8.5C8.14844 9.625 7.875 9.9375 7.875 10.25V19H6V10.25C6 8.88281 7.09375 7.75 8.5 7.75H23.5C24.8672 7.75 26 8.88281 26 10.25V19H24.125V10.25C24.125 9.9375 23.8125 9.625 23.5 9.625ZM7.25 23.375H24.75C25.5312 23.375 26.2344 22.8672 26.5078 22.125H5.45312C5.72656 22.8672 6.42969 23.375 7.25 23.375ZM3.5 21.5C3.5 20.8359 4.04688 20.25 4.75 20.25H27.25C27.9141 20.25 28.5 20.8359 28.5 21.5C28.5 23.5703 26.8203 25.25 24.75 25.25H7.25C5.17969 25.25 3.5 23.5703 3.5 21.5Z" fill="black" fill-opacity="0.72"/>
</g>
</svg>
