<svg width="32" height="32" viewBox="0 0 32 32" fill="none" xmlns="http://www.w3.org/2000/svg">
<g id="standalone / md / loader-md / fill">
<path id="icon" d="M17.25 7.75V10.25C17.25 10.9531 16.6641 11.5 16 11.5C15.2969 11.5 14.75 10.9531 14.75 10.25V7.75C14.75 7.08594 15.2969 6.5 16 6.5C16.6641 6.5 17.25 7.08594 17.25 7.75ZM17.25 22.75V25.25C17.25 25.9531 16.6641 26.5 16 26.5C15.2969 26.5 14.75 25.9531 14.75 25.25V22.75C14.75 22.0859 15.2969 21.5 16 21.5C16.6641 21.5 17.25 22.0859 17.25 22.75ZM6 16.5C6 15.8359 6.54688 15.25 7.25 15.25H9.75C10.4141 15.25 11 15.8359 11 16.5C11 17.2031 10.4141 17.75 9.75 17.75H7.25C6.54688 17.75 6 17.2031 6 16.5ZM22.25 15.25H24.75C25.4141 15.25 26 15.8359 26 16.5C26 17.2031 25.4141 17.75 24.75 17.75H22.25C21.5469 17.75 21 17.2031 21 16.5C21 15.8359 21.5469 15.25 22.25 15.25ZM8.92969 9.42969C9.39844 8.96094 10.1797 8.96094 10.6875 9.42969L12.4453 11.2266C12.9531 11.6953 12.9531 12.5156 12.4453 12.9844C11.9766 13.4922 11.1562 13.4922 10.6875 12.9844L8.92969 11.2266C8.42188 10.7188 8.42188 9.9375 8.92969 9.42969ZM21.2734 20.0547L23.0703 21.8125C23.5391 22.3203 23.5391 23.1016 23.0703 23.5703C22.5625 24.0781 21.7812 24.0781 21.2734 23.5703L19.5156 21.8125C19.0469 21.3438 19.0469 20.5234 19.5156 20.0547C20.0234 19.5469 20.8047 19.5469 21.2734 20.0547ZM8.92969 23.5703V23.6094C8.42188 23.1016 8.42188 22.3203 8.92969 21.8125L10.6875 20.0547C11.1562 19.5469 11.9766 19.5469 12.4453 20.0547C12.9531 20.5234 12.9531 21.3438 12.4453 21.8125L10.6875 23.5703C10.1797 24.0781 9.39844 24.0781 8.92969 23.5703ZM19.5156 11.2266L21.2734 9.42969C21.7812 8.96094 22.5625 8.96094 23.0703 9.42969C23.5391 9.9375 23.5391 10.7188 23.0703 11.2266L21.2734 12.9844C20.8047 13.4531 20.0234 13.4531 19.5156 12.9844C19.0469 12.4766 19.0469 11.6953 19.5156 11.2266Z" fill="black" fill-opacity="0.72"/>
</g>
</svg>
