<svg width="32" height="32" viewBox="0 0 32 32" fill="none" xmlns="http://www.w3.org/2000/svg">
<g id="standalone / md / image-md / fill">
<path id="icon" d="M6 10.25C6 8.88281 7.09375 7.75 8.5 7.75H23.5C24.8672 7.75 26 8.88281 26 10.25V22.75C26 24.1562 24.8672 25.25 23.5 25.25H8.5C7.09375 25.25 6 24.1562 6 22.75V10.25ZM18.6172 14.4297C18.4609 14.1562 18.1484 14 17.875 14C17.5625 14 17.25 14.1562 17.0938 14.4297L13.6953 19.4297L12.6406 18.1016C12.4844 17.9062 12.2109 17.75 11.9375 17.75C11.625 17.75 11.3516 17.9062 11.1953 18.1016L8.69531 21.2266C8.46094 21.5391 8.42188 21.9297 8.57812 22.2422C8.73438 22.5547 9.04688 22.75 9.4375 22.75H13.1875H14.4375H22.5625C22.875 22.75 23.2266 22.5938 23.3828 22.2812C23.5391 21.9688 23.5 21.5781 23.3047 21.3047L18.6172 14.4297ZM10.375 14C11.0391 14 11.625 13.6484 11.9766 13.0625C12.3281 12.5156 12.3281 11.7734 11.9766 11.1875C11.625 10.6406 11.0391 10.25 10.375 10.25C9.67188 10.25 9.08594 10.6406 8.73438 11.1875C8.38281 11.7734 8.38281 12.5156 8.73438 13.0625C9.08594 13.6484 9.67188 14 10.375 14Z" fill="black" fill-opacity="0.72"/>
</g>
</svg>
