<svg width="32" height="32" viewBox="0 0 32 32" fill="none" xmlns="http://www.w3.org/2000/svg">
<g id="standalone / md / phone-md / regular">
<path id="icon" d="M20.6484 17.2812L25.0234 19.1562C25.7266 19.4297 26.1172 20.1719 25.9609 20.9141L25.0234 25.2891C24.8672 25.9922 24.2422 26.5391 23.5 26.5391C23.2266 26.5391 22.9922 26.5 22.7578 26.5C22.6016 26.5 22.4062 26.5 22.25 26.4609C13.1484 25.8359 6 18.2578 6 9C6 8.29688 6.50781 7.63281 7.21094 7.47656L11.5859 6.53906C12.3281 6.38281 13.0703 6.77344 13.3438 7.47656L15.2188 11.8516C15.4922 12.4766 15.3359 13.2188 14.7891 13.6484L13.1875 14.9766C14.2422 16.7734 15.7266 18.2578 17.5234 19.3125L18.8516 17.7109C19.2812 17.1641 20.0234 17.0078 20.6484 17.2812ZM23.4609 25.25C23.6172 25.25 23.7344 25.1719 23.7734 25.0156L24.7109 20.6406C24.75 20.4844 24.6719 20.3672 24.5547 20.2891L20.1797 18.4141C20.0234 18.375 19.9062 18.4141 19.7891 18.4922L18.5 20.0938C18.1094 20.5625 17.4453 20.6797 16.8984 20.3672C14.9062 19.2344 13.2656 17.5938 12.1328 15.6016C11.8203 15.0547 11.9375 14.3906 12.4062 14L14.0078 12.7109C14.0859 12.5938 14.125 12.4766 14.0859 12.3203L12.2109 7.94531C12.1328 7.82812 12.0156 7.75 11.8594 7.78906L7.48438 8.72656C7.32812 8.72656 7.25 8.88281 7.25 9C7.25 17.9844 14.5156 25.25 23.4609 25.25Z" fill="black" fill-opacity="0.72"/>
</g>
</svg>
