<svg width="32" height="32" viewBox="0 0 32 32" fill="none" xmlns="http://www.w3.org/2000/svg">
<g id="standalone / md / right-from-bracket-md / bold">
<path id="icon" d="M19.75 12.2422V14.3125C19.75 14.8594 19.3203 15.25 18.8125 15.25H14.125V17.75H18.8125C19.3203 17.75 19.75 18.1797 19.75 18.6875V20.7969L24.0469 16.5L19.75 12.2422ZM26 16.5C26 16.9688 25.8047 17.3984 25.4922 17.7109L20.9609 22.2422C20.6094 22.5938 20.1406 22.75 19.6719 22.75C18.6562 22.75 17.875 21.9688 17.875 20.9531V19.625H14.125C13.0703 19.625 12.25 18.8047 12.25 17.75V15.25C12.25 14.2344 13.0703 13.375 14.125 13.375H17.875V12.0859C17.875 11.0703 18.6562 10.25 19.6719 10.25C20.1406 10.25 20.6094 10.4453 20.9609 10.7969L25.4922 15.3281C25.8047 15.6406 26 16.0703 26 16.5ZM12.5625 9.625H9.4375C8.53906 9.625 7.875 10.3281 7.875 11.1875V21.8125C7.875 22.7109 8.53906 23.375 9.4375 23.375H12.5625C13.0703 23.375 13.5 23.8047 13.5 24.3125C13.5 24.8594 13.0703 25.25 12.5625 25.25H9.4375C7.52344 25.25 6 23.7266 6 21.8125V11.1875C6 9.3125 7.52344 7.75 9.4375 7.75H12.5625C13.0703 7.75 13.5 8.17969 13.5 8.6875C13.5 9.23438 13.0703 9.625 12.5625 9.625Z" fill="black" fill-opacity="0.72"/>
</g>
</svg>
