<svg width="32" height="32" viewBox="0 0 32 32" fill="none" xmlns="http://www.w3.org/2000/svg">
<g id="standalone / md / xmark-md / regular">
<path id="icon" d="M21.1562 22.5938L16 17.3984L10.8047 22.5938C10.5703 22.8281 10.1797 22.8281 9.90625 22.5938C9.67188 22.3203 9.67188 21.9297 9.90625 21.6953L15.1016 16.5L9.90625 11.3438C9.67188 11.1094 9.67188 10.7188 9.90625 10.4453C10.1797 10.2109 10.5703 10.2109 10.8047 10.4453L16 15.6406L21.1562 10.4453C21.3906 10.2109 21.7812 10.2109 22.0547 10.4453C22.2891 10.7188 22.2891 11.1094 22.0547 11.3438L16.8594 16.5L22.0547 21.6953C22.2891 21.9297 22.2891 22.3203 22.0547 22.5938C21.7812 22.8281 21.3906 22.8281 21.1562 22.5938Z" fill="black" fill-opacity="0.72"/>
</g>
</svg>
