<svg width="32" height="32" viewBox="0 0 32 32" fill="none" xmlns="http://www.w3.org/2000/svg">
<g id="standalone / md / square-minus-md / regular">
<path id="icon" d="M9.75 9C9.04688 9 8.5 9.58594 8.5 10.25V22.75C8.5 23.4531 9.04688 24 9.75 24H22.25C22.9141 24 23.5 23.4531 23.5 22.75V10.25C23.5 9.58594 22.9141 9 22.25 9H9.75ZM7.25 10.25C7.25 8.88281 8.34375 7.75 9.75 7.75H22.25C23.6172 7.75 24.75 8.88281 24.75 10.25V22.75C24.75 24.1562 23.6172 25.25 22.25 25.25H9.75C8.34375 25.25 7.25 24.1562 7.25 22.75V10.25ZM12.25 15.875H19.75C20.0625 15.875 20.375 16.1875 20.375 16.5C20.375 16.8516 20.0625 17.125 19.75 17.125H12.25C11.8984 17.125 11.625 16.8516 11.625 16.5C11.625 16.1875 11.8984 15.875 12.25 15.875Z" fill="black" fill-opacity="0.72"/>
</g>
</svg>
