<svg width="32" height="32" viewBox="0 0 32 32" fill="none" xmlns="http://www.w3.org/2000/svg">
<g id="standalone / md / house-user-md / bold">
<path id="icon" d="M15.375 6.73438C15.7266 6.46094 16.2344 6.46094 16.5859 6.73438L26.8984 15.4844C27.2891 15.8359 27.3672 16.4219 27.0156 16.8125C26.6641 17.2031 26.0781 17.2422 25.6875 16.9297L24.75 16.1094V23.375C24.75 25.1328 23.3438 26.5 21.625 26.5H10.375C8.61719 26.5 7.25 25.1328 7.25 23.375V16.1094L6.27344 16.9297C5.88281 17.2422 5.29688 17.2031 4.94531 16.8125C4.63281 16.4219 4.67188 15.8359 5.0625 15.4844L15.375 6.73438ZM9.125 14.5078V23.375C9.125 24.0781 9.67188 24.625 10.375 24.625H21.625C22.2891 24.625 22.875 24.0781 22.875 23.375V14.5078L16 8.6875L9.125 14.5078ZM13.5 15.25C13.5 14.3906 13.9688 13.5703 14.75 13.1016C15.4922 12.6719 16.4688 12.6719 17.25 13.1016C17.9922 13.5703 18.5 14.3906 18.5 15.25C18.5 16.1484 17.9922 16.9688 17.25 17.4375C16.4688 17.8672 15.4922 17.8672 14.75 17.4375C13.9688 16.9688 13.5 16.1484 13.5 15.25ZM14.75 19H17.25C18.9688 19 20.375 20.4062 20.375 22.125C20.375 22.4766 20.0625 22.75 19.75 22.75H12.25C11.8984 22.75 11.625 22.4766 11.625 22.125C11.625 20.4062 12.9922 19 14.75 19Z" fill="black" fill-opacity="0.72"/>
</g>
</svg>
