<svg width="32" height="32" viewBox="0 0 32 32" fill="none" xmlns="http://www.w3.org/2000/svg">
<g id="standalone / md / circle-two-md / fill">
<path id="icon" d="M16 26.5C12.4062 26.5 9.125 24.625 7.32812 21.5C5.53125 18.4141 5.53125 14.625 7.32812 11.5C9.125 8.41406 12.4062 6.5 16 6.5C19.5547 6.5 22.8359 8.41406 24.6328 11.5C26.4297 14.625 26.4297 18.4141 24.6328 21.5C22.8359 24.625 19.5547 26.5 16 26.5ZM14.6719 13.7266C14.9844 13.5312 15.2969 13.4141 15.6875 13.4141H15.8047C16.5859 13.4141 17.25 14.0781 17.25 14.8594C17.25 15.25 17.0547 15.6406 16.7812 15.9141L12.5234 19.8984C12.25 20.1719 12.1719 20.5625 12.2891 20.9141C12.4453 21.2656 12.7969 21.5 13.1875 21.5H18.8125C19.3203 21.5 19.75 21.1094 19.75 20.5625C19.75 20.0547 19.3203 19.625 18.8125 19.625H15.5312L18.0703 17.2812C18.7344 16.6562 19.0859 15.7969 19.0859 14.8594C19.0859 13.0625 17.6406 11.5781 15.8438 11.5391H15.6875C14.9062 11.5391 14.1641 11.7734 13.5391 12.2422L12.6016 12.9453C12.1719 13.2578 12.0938 13.8828 12.4062 14.2734C12.7188 14.7031 13.3438 14.7812 13.7344 14.4688L14.6719 13.7266Z" fill="black" fill-opacity="0.72"/>
</g>
</svg>
