<svg width="32" height="32" viewBox="0 0 32 32" fill="none" xmlns="http://www.w3.org/2000/svg">
<g id="standalone / md / circle-sterling-md / regular">
<path id="icon" d="M24.75 16.5C24.75 13.375 23.0703 10.5234 20.375 8.96094C17.6406 7.35938 14.3203 7.35938 11.625 8.96094C8.89062 10.5234 7.25 13.375 7.25 16.5C7.25 19.6641 8.89062 22.5156 11.625 24.0781C14.3203 25.6797 17.6406 25.6797 20.375 24.0781C23.0703 22.5156 24.75 19.6641 24.75 16.5ZM6 16.5C6 12.9453 7.875 9.66406 11 7.86719C14.0859 6.07031 17.875 6.07031 21 7.86719C24.0859 9.66406 26 12.9453 26 16.5C26 20.0938 24.0859 23.375 21 25.1719C17.875 26.9688 14.0859 26.9688 11 25.1719C7.875 23.375 6 20.0938 6 16.5ZM16.1172 12.125C15.3359 12.125 14.7109 12.7891 14.7109 13.5703V15.25H16.625C16.9375 15.25 17.25 15.5625 17.25 15.875C17.25 16.2266 16.9375 16.5 16.625 16.5H14.7109C14.6719 17.3984 14.4375 18.2578 14.0078 19H18.8125C19.125 19 19.4375 19.3125 19.4375 19.625C19.4375 19.9766 19.125 20.25 18.8125 20.25H12.875C12.6406 20.25 12.4062 20.1328 12.2891 19.9375C12.2109 19.7422 12.2109 19.4688 12.3281 19.2734L12.7188 18.7656C13.1484 18.1016 13.4219 17.3203 13.4609 16.5H12.875C12.5234 16.5 12.25 16.2266 12.25 15.875C12.25 15.5625 12.5234 15.25 12.875 15.25H13.4609V13.5703C13.4219 12.0859 14.6328 10.875 16.1172 10.875C16.5469 10.875 16.9375 10.9922 17.3281 11.1875L18.1484 11.5781C18.4609 11.7344 18.5781 12.125 18.4219 12.4375C18.2656 12.75 17.875 12.8672 17.5625 12.7109L16.7422 12.2812C16.5469 12.2031 16.3516 12.1641 16.1172 12.1641V12.125Z" fill="black" fill-opacity="0.72"/>
</g>
</svg>
