<svg width="32" height="32" viewBox="0 0 32 32" fill="none" xmlns="http://www.w3.org/2000/svg">
<g id="standalone / md / question-md / fill">
<path id="icon" d="M12.875 12.75C12.875 13.4531 12.2891 14 11.625 14C10.9219 14 10.375 13.4531 10.375 12.75C10.375 10.0156 12.6016 7.75 15.375 7.75H16.625C19.3594 7.75 21.625 10.0156 21.625 12.75V12.9062C21.625 14.625 20.7266 16.1875 19.3203 17.125L17.6797 18.1797C17.4062 18.3359 17.25 18.6484 17.25 18.9609V19C17.25 19.7031 16.6641 20.25 16 20.25C15.2969 20.25 14.75 19.7031 14.75 19V18.9609C14.75 17.7891 15.3359 16.6953 16.3125 16.0703L17.9531 15.0156C18.6562 14.5469 19.125 13.7656 19.125 12.9062V12.75C19.125 11.3828 17.9922 10.25 16.625 10.25H15.375C13.9688 10.25 12.875 11.3828 12.875 12.75ZM16 25.25C15.4141 25.25 14.9062 24.9766 14.6328 24.4688C14.3594 24 14.3594 23.4141 14.6328 22.9062C14.9062 22.4375 15.4141 22.125 16 22.125C16.5469 22.125 17.0547 22.4375 17.3281 22.9062C17.6016 23.4141 17.6016 24 17.3281 24.4688C17.0547 24.9766 16.5469 25.25 16 25.25Z" fill="black" fill-opacity="0.72"/>
</g>
</svg>
