<svg width="32" height="32" viewBox="0 0 32 32" fill="none" xmlns="http://www.w3.org/2000/svg">
<g id="standalone / md / grid-2-md / regular">
<path id="icon" d="M9.125 9C8.77344 9 8.5 9.3125 8.5 9.625V13.375C8.5 13.7266 8.77344 14 9.125 14H12.875C13.1875 14 13.5 13.7266 13.5 13.375V9.625C13.5 9.3125 13.1875 9 12.875 9H9.125ZM7.25 9.625C7.25 8.60938 8.07031 7.75 9.125 7.75H12.875C13.8906 7.75 14.75 8.60938 14.75 9.625V13.375C14.75 14.4297 13.8906 15.25 12.875 15.25H9.125C8.07031 15.25 7.25 14.4297 7.25 13.375V9.625ZM9.125 19C8.77344 19 8.5 19.3125 8.5 19.625V23.375C8.5 23.7266 8.77344 24 9.125 24H12.875C13.1875 24 13.5 23.7266 13.5 23.375V19.625C13.5 19.3125 13.1875 19 12.875 19H9.125ZM7.25 19.625C7.25 18.6094 8.07031 17.75 9.125 17.75H12.875C13.8906 17.75 14.75 18.6094 14.75 19.625V23.375C14.75 24.4297 13.8906 25.25 12.875 25.25H9.125C8.07031 25.25 7.25 24.4297 7.25 23.375V19.625ZM22.875 9H19.125C18.7734 9 18.5 9.3125 18.5 9.625V13.375C18.5 13.7266 18.7734 14 19.125 14H22.875C23.1875 14 23.5 13.7266 23.5 13.375V9.625C23.5 9.3125 23.1875 9 22.875 9ZM19.125 7.75H22.875C23.8906 7.75 24.75 8.60938 24.75 9.625V13.375C24.75 14.4297 23.8906 15.25 22.875 15.25H19.125C18.0703 15.25 17.25 14.4297 17.25 13.375V9.625C17.25 8.60938 18.0703 7.75 19.125 7.75ZM19.125 19C18.7734 19 18.5 19.3125 18.5 19.625V23.375C18.5 23.7266 18.7734 24 19.125 24H22.875C23.1875 24 23.5 23.7266 23.5 23.375V19.625C23.5 19.3125 23.1875 19 22.875 19H19.125ZM17.25 19.625C17.25 18.6094 18.0703 17.75 19.125 17.75H22.875C23.8906 17.75 24.75 18.6094 24.75 19.625V23.375C24.75 24.4297 23.8906 25.25 22.875 25.25H19.125C18.0703 25.25 17.25 24.4297 17.25 23.375V19.625Z" fill="black" fill-opacity="0.72"/>
</g>
</svg>
