<svg width="32" height="32" viewBox="0 0 32 32" fill="none" xmlns="http://www.w3.org/2000/svg">
<g id="standalone / md / bars-md / fill">
<path id="icon" d="M7.25 10.25C7.25 9.58594 7.79688 9 8.5 9H23.5C24.1641 9 24.75 9.58594 24.75 10.25C24.75 10.9531 24.1641 11.5 23.5 11.5H8.5C7.79688 11.5 7.25 10.9531 7.25 10.25ZM7.25 16.5C7.25 15.8359 7.79688 15.25 8.5 15.25H23.5C24.1641 15.25 24.75 15.8359 24.75 16.5C24.75 17.2031 24.1641 17.75 23.5 17.75H8.5C7.79688 17.75 7.25 17.2031 7.25 16.5ZM24.75 22.75C24.75 23.4531 24.1641 24 23.5 24H8.5C7.79688 24 7.25 23.4531 7.25 22.75C7.25 22.0859 7.79688 21.5 8.5 21.5H23.5C24.1641 21.5 24.75 22.0859 24.75 22.75Z" fill="black" fill-opacity="0.72"/>
</g>
</svg>
