<svg width="32" height="32" viewBox="0 0 32 32" fill="none" xmlns="http://www.w3.org/2000/svg">
<g id="standalone / md / calendar-md / bold">
<path id="icon" d="M13.1875 7.4375V9H18.8125V7.4375C18.8125 6.92969 19.2031 6.5 19.75 6.5C20.2578 6.5 20.6875 6.92969 20.6875 7.4375V9H22.25C23.6172 9 24.75 10.1328 24.75 11.5V12.125V14V24C24.75 25.4062 23.6172 26.5 22.25 26.5H9.75C8.34375 26.5 7.25 25.4062 7.25 24V14V12.125V11.5C7.25 10.1328 8.34375 9 9.75 9H11.3125V7.4375C11.3125 6.92969 11.7031 6.5 12.25 6.5C12.7578 6.5 13.1875 6.92969 13.1875 7.4375ZM9.125 14V24C9.125 24.3516 9.39844 24.625 9.75 24.625H22.25C22.5625 24.625 22.875 24.3516 22.875 24V14H9.125Z" fill="black" fill-opacity="0.72"/>
</g>
</svg>
