<svg width="32" height="32" viewBox="0 0 32 32" fill="none" xmlns="http://www.w3.org/2000/svg">
<g id="standalone / md / stopwatch-md / fill">
<path id="icon" d="M14.125 6.5H16H17.875C18.5391 6.5 19.125 7.08594 19.125 7.75C19.125 8.45312 18.5391 9 17.875 9H17.25V10.3672C18.6953 10.6016 20.0234 11.1875 21.1172 12.0859L21.9766 11.2656C22.4453 10.7578 23.2656 10.7578 23.7344 11.2656C24.2422 11.7344 24.2422 12.5547 23.7344 13.0234L22.7969 13.9609C23.6172 15.25 24.125 16.7734 24.125 18.375C24.125 22.8672 20.4531 26.5 16 26.5C11.5078 26.5 7.875 22.8672 7.875 18.375C7.875 14.3125 10.8438 10.9531 14.75 10.3672V9H14.125C13.4219 9 12.875 8.45312 12.875 7.75C12.875 7.08594 13.4219 6.5 14.125 6.5ZM16.9375 14C16.9375 13.4922 16.5078 13.0625 16 13.0625C15.4531 13.0625 15.0625 13.4922 15.0625 14V19C15.0625 19.5469 15.4531 19.9375 16 19.9375C16.5078 19.9375 16.9375 19.5469 16.9375 19V14Z" fill="black" fill-opacity="0.72"/>
</g>
</svg>
