<svg width="32" height="32" viewBox="0 0 32 32" fill="none" xmlns="http://www.w3.org/2000/svg">
<g id="standalone / md / circle-user-slash-md / fill">
<path id="icon" d="M3.69531 6.89062C4.00781 6.46094 4.59375 6.38281 4.98438 6.73438L8.73438 9.625C9.35938 8.96094 10.1406 8.33594 11 7.86719C14.0859 6.07031 17.875 6.07031 21 7.86719C24.0859 9.625 26 12.9453 26 16.5C26 18.4531 25.4141 20.3281 24.3984 21.9297L28.1094 24.8594C28.5391 25.1719 28.6172 25.7578 28.2656 26.1484C27.9531 26.5781 27.3672 26.6562 26.9766 26.3047L3.85156 8.17969C3.42188 7.86719 3.34375 7.28125 3.69531 6.89062ZM6 16.5C6 15.2109 6.23438 13.9609 6.70312 12.7891L14.5938 19.0391C12.7969 19.0781 11.2344 20.0547 10.375 21.5391C11.7812 23.0625 13.7734 24 15.9609 24C17.3281 24 18.5781 23.6484 19.6719 23.0234L21.7812 24.6641C21.5078 24.8594 21.2344 25.0156 20.9609 25.1719C17.875 26.9688 14.0859 26.9688 10.9609 25.1719C7.875 23.375 6 20.0938 6 16.5ZM13.3828 13.2969L17.6406 16.6172C17.9531 16.3828 18.2266 16.0703 18.4219 15.7188C18.9297 14.8594 18.9297 13.8047 18.4219 12.9062C17.9141 12.0469 16.9766 11.5 15.9609 11.5C14.9844 11.5 14.0469 12.0469 13.5391 12.9062C13.4609 13.0234 13.4219 13.1406 13.3828 13.2969Z" fill="black" fill-opacity="0.72"/>
</g>
</svg>
