<svg width="32" height="32" viewBox="0 0 32 32" fill="none" xmlns="http://www.w3.org/2000/svg">
<g id="standalone / md / puzzle-piece-two-md / fill">
<path id="icon" d="M15.6875 17.3594C15.6875 17.1641 15.6484 17.0078 15.5312 16.8906C15.4922 16.7734 15.375 16.6953 15.2969 16.6172C15.2188 16.5781 15.1797 16.5 15.1406 16.4609C15.0625 16.3828 15.0625 16.3047 15.0625 16.1875C15.0625 16.0703 15.1406 15.9141 15.2969 15.7578C15.4531 15.6406 15.7266 15.5625 16 15.5625C16.2734 15.5625 16.5469 15.6406 16.7031 15.7578C16.7812 15.8359 16.8203 15.9141 16.8594 15.9531C16.8984 16.0312 16.9375 16.1094 16.9375 16.1875C16.9375 16.3438 16.8594 16.5 16.7031 16.6172C16.5078 16.7734 16.3125 17.0078 16.3125 17.3594C16.3125 17.5547 16.3906 17.75 16.5078 17.9062C16.6641 18.0625 16.8594 18.1406 17.0938 18.1406H18.7734C18.9297 18.1406 19.0859 18.2969 19.0859 18.4531V19.625C19.0859 20.0547 19.4375 20.4062 19.8672 20.4062C20.1797 20.4062 20.4141 20.2109 20.5312 20.0156C20.6875 19.8203 20.8047 19.7422 20.9609 19.7422C21.1172 19.7422 21.2344 19.8594 21.3906 20.0156C21.5078 20.1719 21.5859 20.4453 21.5859 20.7188C21.5859 21.0312 21.5078 21.3047 21.3906 21.4609C21.2344 21.6562 21.1172 21.6953 20.9609 21.6953C20.8047 21.6953 20.6875 21.6562 20.5312 21.4609C20.4141 21.2656 20.1797 21.0703 19.8672 21.0703C19.4375 21.0703 19.0859 21.4219 19.0859 21.8516V24.2734C19.0859 24.4688 18.9297 24.625 18.7734 24.625H17.0938C17.0156 24.625 16.9375 24.5469 16.9375 24.4688C16.9375 24.4297 16.9766 24.3516 17.0547 24.2734C17.3672 24.0391 17.5625 23.7266 17.5625 23.3359C17.5625 22.9453 17.3672 22.5938 17.0547 22.3984C16.7812 22.1641 16.3906 22.0078 16 22.0078C15.6094 22.0078 15.2188 22.1641 14.9453 22.3984C14.6328 22.5938 14.4375 22.9453 14.4375 23.3359C14.4375 23.7266 14.6328 24.0391 14.9453 24.2734C15.0234 24.3516 15.0625 24.4297 15.0625 24.4688C15.0625 24.5469 14.9844 24.625 14.9062 24.625H13.1484C12.9922 24.625 12.8359 24.4688 12.8359 24.2734V18.4531C12.8359 18.2969 12.9922 18.1406 13.1484 18.1406H14.9062C15.3359 18.1406 15.6875 17.7891 15.6875 17.3594ZM14.9453 17.1641C14.7891 17.0469 14.6719 16.9297 14.5938 16.7734C14.4766 16.6172 14.4375 16.4219 14.4375 16.1875C14.4375 15.7969 14.6328 15.4844 14.9453 15.25C15.2188 15.0547 15.6094 14.8984 16 14.8984C16.3906 14.8984 16.7812 15.0547 17.0547 15.25C17.2109 15.3672 17.2891 15.4844 17.3672 15.6016C17.4844 15.7969 17.5625 15.9922 17.5625 16.1875C17.5625 16.6172 17.3672 16.9297 17.0547 17.1641C16.9766 17.2422 16.9375 17.3203 16.9375 17.3594C16.9375 17.3984 16.9375 17.4375 16.9766 17.4375C17.0156 17.4766 17.0547 17.4766 17.0938 17.4766H18.7734C18.9688 17.4766 19.0859 17.3594 19.0859 17.1641V11.3438C19.0859 11.1875 18.9688 10.9922 18.7734 10.9922H17.0938C16.6641 10.9922 16.3125 10.6797 16.3125 10.2109C16.3125 9.89844 16.5078 9.66406 16.7031 9.50781C16.8594 9.35156 16.9375 9.23438 16.9375 9.07812C16.9375 8.92188 16.8594 8.76562 16.7031 8.64844C16.5469 8.53125 16.2734 8.41406 16 8.41406C15.7266 8.41406 15.4531 8.53125 15.2969 8.64844C15.1406 8.76562 15.0625 8.92188 15.0625 9.07812C15.0625 9.23438 15.1406 9.35156 15.2969 9.50781C15.4922 9.66406 15.6875 9.89844 15.6875 10.2109C15.6875 10.6797 15.3359 10.9922 14.9062 10.9922H13.1875C13.0312 10.9922 12.875 11.1484 12.875 11.3438V12.4766C12.875 12.9453 12.5234 13.2578 12.0938 13.2578C11.7812 13.2578 11.5469 13.1016 11.4297 12.9062C11.2734 12.7109 11.1562 12.6328 11 12.6328C10.8438 12.6328 10.7266 12.7109 10.5703 12.9062C10.4531 13.0625 10.375 13.2969 10.375 13.6094C10.375 13.8828 10.4531 14.1562 10.5703 14.3125C10.7266 14.5078 10.8438 14.5859 11 14.5859C11.1562 14.5859 11.2734 14.5078 11.4297 14.3125C11.5469 14.1172 11.7812 13.9219 12.0938 13.9219C12.5234 13.9219 12.875 14.2734 12.875 14.7422V17.1641C12.875 17.3594 13.0312 17.4766 13.1875 17.4766H14.9062C14.9844 17.4766 15.0625 17.4375 15.0625 17.3594C15.0625 17.3203 15.0625 17.2812 15.0234 17.2422C14.9844 17.2031 14.9844 17.1641 14.9453 17.125V17.1641Z" fill="black" fill-opacity="0.72"/>
</g>
</svg>
