<svg width="32" height="32" viewBox="0 0 32 32" fill="none" xmlns="http://www.w3.org/2000/svg">
<g id="standalone / md / sterling-sign-md / fill">
<path id="icon" d="M14.125 12.7891V15.25H18.5C19.1641 15.25 19.75 15.8359 19.75 16.5C19.75 17.2031 19.1641 17.75 18.5 17.75H14.125V19.5078C14.125 20.6406 13.8125 21.7344 13.2266 22.7109L13.1875 22.75H21C21.6641 22.75 22.25 23.3359 22.25 24C22.25 24.7031 21.6641 25.25 21 25.25H11C10.5312 25.25 10.1016 25.0156 9.90625 24.625C9.67188 24.2344 9.67188 23.7656 9.90625 23.375L11.0781 21.4219C11.4297 20.8359 11.625 20.1719 11.625 19.5078V17.75H11C10.2969 17.75 9.75 17.2031 9.75 16.5C9.75 15.8359 10.2969 15.25 11 15.25H11.625V12.7891C11.625 10.0156 13.8516 7.75 16.625 7.75C17.1719 7.75 17.6797 7.86719 18.2266 8.02344L21.3906 9.07812C22.0547 9.3125 22.4062 10.0156 22.1719 10.6797C21.9375 11.3047 21.2344 11.6562 20.6094 11.4609L17.4062 10.4062C17.1719 10.3281 16.8984 10.25 16.625 10.25C15.2188 10.25 14.125 11.3828 14.125 12.7891Z" fill="black" fill-opacity="0.72"/>
</g>
</svg>
