<svg width="32" height="32" viewBox="0 0 32 32" fill="none" xmlns="http://www.w3.org/2000/svg">
<g id="standalone / md / bell-on-md / regular">
<path id="icon" d="M27.1719 6.85156C27.3281 7.16406 27.2109 7.55469 26.8984 7.71094L24.3984 8.96094C24.0859 9.11719 23.6953 8.96094 23.5391 8.6875C23.3828 8.375 23.5 7.98438 23.8125 7.82812L26.3125 6.57812C26.625 6.42188 27.0156 6.53906 27.1719 6.85156ZM15.375 7.125C15.375 6.8125 15.6484 6.5 16 6.5C16.3125 6.5 16.625 6.8125 16.625 7.125V7.78906C19.75 8.10156 22.25 10.7578 22.25 14V15.1719C22.25 16.8516 22.9141 18.4922 24.125 19.7031L24.2422 19.8203C24.5547 20.1328 24.75 20.6016 24.75 21.0312C24.75 22.0078 23.9688 22.7891 22.9922 22.7891H8.96875C7.99219 22.75 7.25 22.0078 7.25 21.0312C7.25 20.5625 7.40625 20.1328 7.75781 19.8203L7.83594 19.7031C9.04688 18.4922 9.75 16.8516 9.75 15.1328V14C9.75 10.7578 12.2109 8.10156 15.375 7.78906V7.125ZM16 9C13.2266 9 11 11.2656 11 14V15.1719C11 17.2031 10.1797 19.1562 8.73438 20.6016L8.61719 20.7188C8.53906 20.7969 8.46094 20.9141 8.46094 21.0312C8.46094 21.3047 8.69531 21.5391 8.96875 21.5391H22.9922C23.2656 21.5391 23.5 21.3047 23.5 21.0312C23.5 20.9141 23.4219 20.7969 23.3438 20.7188L23.2266 20.6016C21.7812 19.1562 20.9609 17.2031 20.9609 15.1719V14C20.9609 11.2656 18.7344 9 15.9609 9H16ZM14.7891 24.4297C14.9844 24.9375 15.4531 25.25 16 25.25C16.5078 25.25 16.9766 24.9375 17.1719 24.4297C17.2891 24.1172 17.6406 23.9219 17.9531 24.0391C18.2656 24.1562 18.4609 24.5078 18.3438 24.8594C17.9922 25.8359 17.0547 26.5 16 26.5C14.9062 26.5 13.9688 25.8359 13.6172 24.8594C13.5 24.5078 13.6953 24.1562 14.0078 24.0391C14.3203 23.9219 14.6719 24.1172 14.7891 24.4297ZM3.5 13.375C3.5 13.0625 3.77344 12.75 4.125 12.75H7.25C7.5625 12.75 7.875 13.0625 7.875 13.375C7.875 13.7266 7.5625 14 7.25 14H4.125C3.77344 14 3.5 13.7266 3.5 13.375ZM24.75 12.75H27.875C28.1875 12.75 28.5 13.0625 28.5 13.375C28.5 13.7266 28.1875 14 27.875 14H24.75C24.3984 14 24.125 13.7266 24.125 13.375C24.125 13.0625 24.3984 12.75 24.75 12.75ZM5.0625 7.71094C4.75 7.55469 4.63281 7.16406 4.78906 6.85156C4.94531 6.53906 5.33594 6.42188 5.64844 6.57812L8.14844 7.82812C8.46094 7.98438 8.57812 8.375 8.42188 8.6875C8.26562 8.96094 7.875 9.11719 7.5625 8.96094L5.0625 7.71094Z" fill="black" fill-opacity="0.72"/>
</g>
</svg>
