<svg width="32" height="32" viewBox="0 0 32 32" fill="none" xmlns="http://www.w3.org/2000/svg">
<g id="standalone / md / cash-register-md / regular">
<path id="icon" d="M16.625 7.75H9.125C8.77344 7.75 8.5 8.0625 8.5 8.375V9.625C8.5 9.97656 8.77344 10.25 9.125 10.25H16.625C16.9375 10.25 17.25 9.97656 17.25 9.625V8.375C17.25 8.0625 16.9375 7.75 16.625 7.75ZM9.125 6.5H16.625C17.6406 6.5 18.5 7.35938 18.5 8.375V9.625C18.5 10.6797 17.6406 11.5 16.625 11.5H13.5V12.75H22.5625C23.8125 12.75 24.8672 13.6875 25.0234 14.8984L25.9609 21.3438C25.9609 21.4609 26 21.5781 26 21.6953V24C26 25.4062 24.8672 26.5 23.5 26.5H8.5C7.09375 26.5 6 25.4062 6 24V21.6953C6 21.5781 6 21.4609 6 21.3438L6.9375 14.8984C7.09375 13.6875 8.14844 12.75 9.39844 12.75H12.25V11.5H9.125C8.07031 11.5 7.25 10.6797 7.25 9.625V8.375C7.25 7.35938 8.07031 6.5 9.125 6.5ZM7.25 24C7.25 24.7031 7.79688 25.25 8.5 25.25H23.5C24.1641 25.25 24.75 24.7031 24.75 24V22.75H7.25V24ZM23.8125 15.0938C23.6953 14.4688 23.1875 14 22.5625 14H9.39844C8.77344 14 8.26562 14.4688 8.14844 15.0938L7.25 21.5H24.7109L23.8125 15.0938ZM10.375 15.5625C10.8828 15.5625 11.3125 15.9922 11.3125 16.5C11.3125 17.0469 10.8828 17.4375 10.375 17.4375C9.82812 17.4375 9.4375 17.0469 9.4375 16.5C9.4375 15.9922 9.82812 15.5625 10.375 15.5625ZM13.1875 16.5C13.1875 15.9922 13.5781 15.5625 14.125 15.5625C14.6328 15.5625 15.0625 15.9922 15.0625 16.5C15.0625 17.0469 14.6328 17.4375 14.125 17.4375C13.5781 17.4375 13.1875 17.0469 13.1875 16.5ZM12.25 18.6875C12.7578 18.6875 13.1875 19.1172 13.1875 19.625C13.1875 20.1719 12.7578 20.5625 12.25 20.5625C11.7031 20.5625 11.3125 20.1719 11.3125 19.625C11.3125 19.1172 11.7031 18.6875 12.25 18.6875ZM16.9375 16.5C16.9375 15.9922 17.3281 15.5625 17.875 15.5625C18.3828 15.5625 18.8125 15.9922 18.8125 16.5C18.8125 17.0469 18.3828 17.4375 17.875 17.4375C17.3281 17.4375 16.9375 17.0469 16.9375 16.5ZM16 18.6875C16.5078 18.6875 16.9375 19.1172 16.9375 19.625C16.9375 20.1719 16.5078 20.5625 16 20.5625C15.4531 20.5625 15.0625 20.1719 15.0625 19.625C15.0625 19.1172 15.4531 18.6875 16 18.6875ZM20.6875 16.5C20.6875 15.9922 21.0781 15.5625 21.625 15.5625C22.1328 15.5625 22.5625 15.9922 22.5625 16.5C22.5625 17.0469 22.1328 17.4375 21.625 17.4375C21.0781 17.4375 20.6875 17.0469 20.6875 16.5ZM19.75 18.6875C20.2578 18.6875 20.6875 19.1172 20.6875 19.625C20.6875 20.1719 20.2578 20.5625 19.75 20.5625C19.2031 20.5625 18.8125 20.1719 18.8125 19.625C18.8125 19.1172 19.2031 18.6875 19.75 18.6875Z" fill="black" fill-opacity="0.72"/>
</g>
</svg>
