<svg width="32" height="32" viewBox="0 0 32 32" fill="none" xmlns="http://www.w3.org/2000/svg">
<g id="standalone / md / bell-slash-md / fill">
<path id="icon" d="M4.98438 6.73438L10.7656 11.2266C11.6641 9.85938 13.0703 8.84375 14.75 8.53125V7.75C14.75 7.08594 15.2969 6.5 16 6.5C16.6641 6.5 17.25 7.08594 17.25 7.75V8.53125C20.1016 9.07812 22.25 11.6172 22.25 14.625V15.3672C22.25 17.2031 22.9141 19 24.125 20.3672L24.3984 20.6797C24.75 21.0703 24.8281 21.5781 24.6328 22.0469C24.6328 22.0469 24.5938 22.0469 24.5938 22.0859L28.1094 24.8594C28.5391 25.1719 28.6172 25.7578 28.2656 26.1484C27.9531 26.5781 27.3672 26.6562 26.9766 26.3047L3.85156 8.17969C3.42188 7.86719 3.34375 7.28125 3.69531 6.89062C4.00781 6.46094 4.59375 6.38281 4.98438 6.73438ZM19.3594 22.75H8.5C7.99219 22.75 7.52344 22.4766 7.32812 22.0469C7.13281 21.5781 7.21094 21.0703 7.5625 20.6797L7.83594 20.3672C9.04688 19 9.75 17.2031 9.75 15.3672V15.2109L19.3594 22.75ZM17.7578 25.7969C17.2891 26.2656 16.6641 26.5 16 26.5C15.3359 26.5 14.6719 26.2656 14.2031 25.7969C13.7344 25.3281 13.5 24.6641 13.5 24H16H18.5C18.5 24.6641 18.2266 25.3281 17.7578 25.7969Z" fill="black" fill-opacity="0.72"/>
</g>
</svg>
