<svg width="32" height="32" viewBox="0 0 32 32" fill="none" xmlns="http://www.w3.org/2000/svg">
<g id="standalone / md / gear-md / fill">
<path id="icon" d="M25.3359 13.0234C25.4922 13.375 25.375 13.7266 25.1016 14L23.4219 15.5234C23.4609 15.8359 23.4609 16.1875 23.4609 16.5C23.4609 16.8516 23.4609 17.2031 23.4219 17.5156L25.1016 19.0391C25.375 19.2734 25.4922 19.6641 25.3359 20.0156C25.1797 20.4844 24.9844 20.9141 24.75 21.3438L24.5547 21.6562C24.2812 22.0859 24.0078 22.5156 23.6953 22.8672C23.4609 23.1797 23.0703 23.2578 22.7188 23.1406L20.5703 22.4766C20.0234 22.8672 19.4375 23.1797 18.8516 23.4531L18.3438 25.6797C18.2656 26.0312 17.9922 26.3047 17.6406 26.3828C17.0938 26.4609 16.5469 26.5 15.9609 26.5C15.4141 26.5 14.8672 26.4609 14.3203 26.3828C13.9688 26.3047 13.6953 26.0312 13.6172 25.6797L13.1094 23.4531C12.4844 23.1797 11.9375 22.8672 11.3906 22.4766L9.24219 23.1406C8.89062 23.2578 8.5 23.1797 8.26562 22.9062C7.95312 22.5156 7.67969 22.0859 7.40625 21.6562L7.21094 21.3438C6.97656 20.9141 6.78125 20.4844 6.625 20.0156C6.46875 19.6641 6.58594 19.3125 6.85938 19.0391L8.53906 17.5156C8.5 17.2031 8.5 16.8516 8.5 16.5C8.5 16.1875 8.5 15.8359 8.53906 15.5234L6.85938 14C6.58594 13.7266 6.46875 13.375 6.625 13.0234C6.78125 12.5547 6.97656 12.125 7.21094 11.6953L7.40625 11.3828C7.67969 10.9531 7.95312 10.5234 8.26562 10.1328C8.5 9.85938 8.89062 9.78125 9.24219 9.89844L11.3906 10.5625C11.9375 10.1719 12.5234 9.82031 13.1094 9.58594L13.6172 7.35938C13.6953 7.00781 13.9688 6.73438 14.3203 6.65625C14.8672 6.57812 15.4141 6.5 16 6.5C16.5469 6.5 17.0938 6.57812 17.6406 6.65625C17.9922 6.69531 18.2656 7.00781 18.3438 7.35938L18.8516 9.58594C19.4766 9.82031 20.0234 10.1719 20.5703 10.5625L22.7188 9.89844C23.0703 9.78125 23.4609 9.85938 23.6953 10.1328C24.0078 10.5234 24.2812 10.9531 24.5547 11.3828L24.75 11.6953C24.9844 12.125 25.1797 12.5547 25.375 13.0234H25.3359ZM16 19.625C17.0938 19.625 18.1094 19.0391 18.6953 18.0625C19.2422 17.125 19.2422 15.9141 18.6953 14.9375C18.1094 14 17.0938 13.375 16 13.375C14.8672 13.375 13.8516 14 13.2656 14.9375C12.7188 15.9141 12.7188 17.125 13.2656 18.0625C13.8516 19.0391 14.8672 19.625 16 19.625Z" fill="black" fill-opacity="0.72"/>
</g>
</svg>
