<svg width="32" height="32" viewBox="0 0 32 32" fill="none" xmlns="http://www.w3.org/2000/svg">
<g id="standalone / md / hand-gesture-swipe-left-right-md / fill">
<path id="icon" d="M16 10.5234C16.5469 10.5234 16.9766 10.9531 16.9766 11.5V15.1328C17.1719 14.9375 17.4453 14.8203 17.7578 14.8203C18.3828 14.8203 18.8906 15.2891 18.9297 15.9141C19.125 15.7188 19.3984 15.6016 19.7109 15.6016C20.3359 15.6016 20.8438 16.0703 20.8828 16.6953C21.0781 16.5 21.3516 16.3828 21.6641 16.3828C22.2891 16.3828 22.8359 16.9297 22.8359 17.5547V19.8984C22.8359 21.6172 21.4297 23.0234 19.7109 23.0234H16.8203C15.9219 23.0234 15.0234 22.7109 14.3203 22.125L14.2031 22.0078C13.4609 21.4219 13.0703 20.5234 13.0703 19.5859V18.6875C13.0703 18.2188 13.2656 17.7891 13.6562 17.4766L14.125 17.0859C14.1641 17.0469 14.2031 17.0078 14.2812 17.0078V18.3359C14.2812 18.5703 14.4375 18.7266 14.6719 18.7266C14.8672 18.7266 15.0625 18.5703 15.0625 18.3359V11.5C15.0625 10.9531 15.4531 10.5234 16.0391 10.5234H16ZM22.4844 14.3906L24.5938 12.2812C24.8281 12.0469 24.8281 11.6953 24.5938 11.5L22.3672 9.23438C22.1328 9.03906 21.7812 9.03906 21.5469 9.23438C21.3516 9.46875 21.3516 9.82031 21.5469 10.0547L22.8359 11.3047H19.0469C18.7344 11.3047 18.5 11.5781 18.5 11.8906C18.5 12.2031 18.7344 12.4375 19.0469 12.4375H22.8359L21.7031 13.5703C21.4688 13.8047 21.4688 14.1562 21.7031 14.3906C21.9375 14.5859 22.2891 14.5859 22.4844 14.3906ZM9.47656 14.3906L7.40625 12.2812C7.17188 12.0469 7.17188 11.6953 7.40625 11.5L9.63281 9.23438C9.86719 9.03906 10.2188 9.03906 10.4141 9.23438C10.6484 9.46875 10.6484 9.82031 10.4141 10.0547L9.16406 11.3047H12.9531C13.2656 11.3047 13.5 11.5781 13.5 11.8906C13.5 12.2031 13.2656 12.4375 12.9531 12.4375H9.16406L10.2969 13.5703C10.4922 13.8047 10.4922 14.1562 10.2969 14.3906C10.0625 14.5859 9.71094 14.5859 9.47656 14.3906Z" fill="black" fill-opacity="0.72"/>
</g>
</svg>
