<svg width="32" height="32" viewBox="0 0 32 32" fill="none" xmlns="http://www.w3.org/2000/svg">
<g id="standalone / md / money-bill-md / bold">
<path id="icon" d="M9.125 10.875C9.125 12.2812 7.99219 13.375 6.625 13.375V19.625C7.99219 19.625 9.125 20.7578 9.125 22.125H22.875C22.875 20.7578 23.9688 19.625 25.375 19.625V13.375C23.9688 13.375 22.875 12.2812 22.875 10.875H9.125ZM4.75 11.5C4.75 10.1328 5.84375 9 7.25 9H24.75C26.1172 9 27.25 10.1328 27.25 11.5V21.5C27.25 22.9062 26.1172 24 24.75 24H7.25C5.84375 24 4.75 22.9062 4.75 21.5V11.5ZM16 12.75C17.3281 12.75 18.5391 13.4922 19.2422 14.625C19.9062 15.7969 19.9062 17.2422 19.2422 18.375C18.5391 19.5469 17.3281 20.25 16 20.25C14.6328 20.25 13.4219 19.5469 12.7188 18.375C12.0547 17.2422 12.0547 15.7969 12.7188 14.625C13.4219 13.4922 14.6328 12.75 16 12.75Z" fill="black" fill-opacity="0.72"/>
</g>
</svg>
