<svg width="32" height="32" viewBox="0 0 32 32" fill="none" xmlns="http://www.w3.org/2000/svg">
<g id="standalone / md / face-viewfinder-md / bold">
<path id="icon" d="M6 8.6875C6.02604 8.0625 6.23438 7.54167 6.625 7.125C7.04167 6.73438 7.5625 6.52604 8.1875 6.5H11.3125C11.8854 6.55208 12.1979 6.86458 12.25 7.4375C12.1979 8.01042 11.8854 8.32292 11.3125 8.375H8.1875C8.00521 8.40104 7.90104 8.50521 7.875 8.6875V11.8125C7.82292 12.3854 7.51042 12.6979 6.9375 12.75C6.36458 12.6979 6.05208 12.3854 6 11.8125V8.6875ZM19.75 7.4375C19.8021 6.86458 20.1146 6.55208 20.6875 6.5H23.8125C24.4375 6.52604 24.9583 6.73438 25.375 7.125C25.7656 7.54167 25.974 8.0625 26 8.6875V11.8125C25.9479 12.3854 25.6354 12.6979 25.0625 12.75C24.4896 12.6979 24.1771 12.3854 24.125 11.8125V8.6875C24.099 8.50521 23.9948 8.40104 23.8125 8.375H20.6875C20.1146 8.32292 19.8021 8.01042 19.75 7.4375ZM6.9375 20.25C7.51042 20.3021 7.82292 20.6146 7.875 21.1875V24.3125C7.90104 24.4948 8.00521 24.599 8.1875 24.625H11.3125C11.8854 24.6771 12.1979 24.9896 12.25 25.5625C12.1979 26.1354 11.8854 26.4479 11.3125 26.5H8.1875C7.5625 26.474 7.04167 26.2656 6.625 25.875C6.23438 25.4583 6.02604 24.9375 6 24.3125V21.1875C6.05208 20.6146 6.36458 20.3021 6.9375 20.25ZM25.0625 20.25C25.6354 20.3021 25.9479 20.6146 26 21.1875V24.3125C25.974 24.9375 25.7656 25.4583 25.375 25.875C24.9583 26.2656 24.4375 26.474 23.8125 26.5H20.6875C20.1146 26.4479 19.8021 26.1354 19.75 25.5625C19.8021 24.9896 20.1146 24.6771 20.6875 24.625H23.8125C23.9948 24.599 24.099 24.4948 24.125 24.3125V21.1875C24.1771 20.6146 24.4896 20.3021 25.0625 20.25ZM15.375 14.9375C15.3229 15.5104 15.0104 15.8229 14.4375 15.875C13.8646 15.8229 13.5521 15.5104 13.5 14.9375C13.5521 14.3646 13.8646 14.0521 14.4375 14C15.0104 14.0521 15.3229 14.3646 15.375 14.9375ZM17.5625 15.875C16.9896 15.8229 16.6771 15.5104 16.625 14.9375C16.6771 14.3646 16.9896 14.0521 17.5625 14C18.1354 14.0521 18.4479 14.3646 18.5 14.9375C18.4479 15.5104 18.1354 15.8229 17.5625 15.875ZM16 12.125C15.2188 12.125 14.4896 12.3203 13.8125 12.7109C13.1354 13.1016 12.6016 13.6354 12.2109 14.3125C11.8203 14.9896 11.625 15.7188 11.625 16.5C11.625 17.2812 11.8203 18.0104 12.2109 18.6875C12.6016 19.3646 13.1354 19.8984 13.8125 20.2891C14.4896 20.6797 15.2188 20.875 16 20.875C16.7812 20.875 17.5104 20.6797 18.1875 20.2891C18.8646 19.8984 19.3984 19.3646 19.7891 18.6875C20.1797 18.0104 20.375 17.2812 20.375 16.5C20.375 15.7188 20.1797 14.9896 19.7891 14.3125C19.3984 13.6354 18.8646 13.1016 18.1875 12.7109C17.5104 12.3203 16.7812 12.125 16 12.125ZM16 22.75C14.8802 22.75 13.8385 22.4766 12.875 21.9297C11.9115 21.3568 11.1432 20.5885 10.5703 19.625C10.0234 18.6354 9.75 17.5938 9.75 16.5C9.75 15.4062 10.0234 14.3646 10.5703 13.375C11.1432 12.4115 11.9115 11.6432 12.875 11.0703C13.8385 10.5234 14.8802 10.25 16 10.25C17.1198 10.25 18.1615 10.5234 19.125 11.0703C20.0885 11.6432 20.8568 12.4115 21.4297 13.375C21.9766 14.3646 22.25 15.4062 22.25 16.5C22.25 17.5938 21.9766 18.6354 21.4297 19.625C20.8568 20.5885 20.0885 21.3568 19.125 21.9297C18.1615 22.4766 17.1198 22.75 16 22.75ZM14.3594 17.4375C14.724 18.0365 15.2708 18.349 16 18.375C16.7292 18.349 17.276 18.0365 17.6406 17.4375C17.849 17.125 18.1354 17.0469 18.5 17.2031C18.7865 17.4375 18.8516 17.724 18.6953 18.0625C18.1224 19.0521 17.224 19.5729 16 19.625C14.776 19.5729 13.8776 19.0521 13.3047 18.0625C13.1224 17.724 13.2005 17.4375 13.5391 17.2031C13.8776 17.0469 14.151 17.125 14.3594 17.4375Z" fill="black" fill-opacity="0.72"/>
</g>
</svg>
