<svg width="32" height="32" viewBox="0 0 32 32" fill="none" xmlns="http://www.w3.org/2000/svg">
<g id="standalone / md / arrow-up-right-from-square-md / bold">
<path id="icon" d="M17.875 7.4375C17.875 6.92969 18.2656 6.5 18.8125 6.5H25.0234C25.5703 6.5 25.9609 6.92969 25.9609 7.4375V13.6875C25.9609 14.2344 25.5703 14.625 25.0234 14.625C24.5156 14.625 24.0859 14.2344 24.0859 13.6875V9.70312L15.375 18.4141C15.0234 18.8047 14.4375 18.8047 14.0859 18.4141C13.6953 18.0625 13.6953 17.4766 14.0859 17.0859L22.7969 8.375H18.8125C18.2656 8.375 17.875 7.98438 17.875 7.4375ZM8.8125 7.75H13.8125C14.3203 7.75 14.75 8.17969 14.75 8.6875C14.75 9.23438 14.3203 9.625 13.8125 9.625H8.8125C8.26562 9.625 7.875 10.0547 7.875 10.5625V23.6875C7.875 24.2344 8.26562 24.625 8.8125 24.625H21.9375C22.4453 24.625 22.875 24.2344 22.875 23.6875V18.6875C22.875 18.1797 23.2656 17.75 23.8125 17.75C24.3203 17.75 24.75 18.1797 24.75 18.6875V23.6875C24.75 25.25 23.4609 26.5 21.9375 26.5H8.8125C7.25 26.5 6 25.25 6 23.6875V10.5625C6 9.03906 7.25 7.75 8.8125 7.75Z" fill="black" fill-opacity="0.72"/>
</g>
</svg>
