<svg width="32" height="32" viewBox="0 0 32 32" fill="none" xmlns="http://www.w3.org/2000/svg">
<g id="standalone / md / magnifying-glass-plus-md / fill">
<path id="icon" d="M22.25 14.625C22.25 16.4219 21.6641 18.1016 20.6875 19.4297L25.6094 24.3906C26.1172 24.8594 26.1172 25.6797 25.6094 26.1484C25.1406 26.6562 24.3203 26.6562 23.8516 26.1484L18.8906 21.1875C17.5625 22.2031 15.8828 22.75 14.125 22.75C9.63281 22.75 6 19.1172 6 14.625C6 10.1719 9.63281 6.5 14.125 6.5C18.5781 6.5 22.25 10.1719 22.25 14.625ZM13.1875 18.0625C13.1875 18.6094 13.5781 19 14.125 19C14.6328 19 15.0625 18.6094 15.0625 18.0625V15.5625H17.5625C18.0703 15.5625 18.5 15.1719 18.5 14.625C18.5 14.1172 18.0703 13.6875 17.5625 13.6875H15.0625V11.1875C15.0625 10.6797 14.6328 10.25 14.125 10.25C13.5781 10.25 13.1875 10.6797 13.1875 11.1875V13.6875H10.6875C10.1406 13.6875 9.75 14.1172 9.75 14.625C9.75 15.1719 10.1406 15.5625 10.6875 15.5625H13.1875V18.0625Z" fill="black" fill-opacity="0.72"/>
</g>
</svg>
