<svg width="32" height="32" viewBox="0 0 32 32" fill="none" xmlns="http://www.w3.org/2000/svg">
<g id="standalone / md / arrow-down-one-nine-md / fill">
<path id="icon" d="M22.3281 7.98438C22.6797 8.25781 22.875 8.60938 22.875 9V12.75H23.5C24.1641 12.75 24.75 13.3359 24.75 14C24.75 14.7031 24.1641 15.25 23.5 15.25H21.625H19.75C19.0469 15.25 18.5 14.7031 18.5 14C18.5 13.3359 19.0469 12.75 19.75 12.75H20.375V10.7578L20.1406 10.8359C19.4766 11.0312 18.7734 10.6797 18.5391 10.0547C18.3438 9.39062 18.6953 8.6875 19.3203 8.45312L21.1953 7.82812C21.5859 7.71094 22.0156 7.75 22.3281 7.98438ZM11 25.25C10.6484 25.25 10.2969 25.1328 10.0625 24.8594L6.625 21.1094C6.15625 20.6016 6.19531 19.8203 6.70312 19.3516C7.21094 18.8828 7.99219 18.9219 8.46094 19.4297L9.75 20.7969V9C9.75 8.33594 10.2969 7.75 11 7.75C11.6641 7.75 12.25 8.33594 12.25 9V20.7969L13.5 19.4297C13.9688 18.9219 14.75 18.8828 15.2578 19.3516C15.7656 19.8203 15.8047 20.6016 15.3359 21.1094L11.8984 24.8594C11.6641 25.1328 11.3516 25.25 11 25.25ZM21.0781 18.4922C20.4531 18.8047 20.1797 19.5469 20.4922 20.1719C20.7656 20.7969 21.5078 21.0703 22.1328 20.7578C22.7578 20.4844 23.0312 19.7422 22.7188 19.1172C22.4453 18.4922 21.7031 18.2188 21.0781 18.4922ZM20.5703 22.9062C19.1641 22.4766 18.1875 21.1875 18.1875 19.6641C18.1875 17.75 19.7109 16.2266 21.625 16.2266C23.5 16.2266 25.0625 17.75 25.0625 19.6641C25.0625 20.5625 24.75 21.4609 24.2031 22.2031L22.2891 24.7812C21.8984 25.3281 21.1172 25.4453 20.5703 25.0156C19.9844 24.625 19.8672 23.8438 20.2969 23.2578L20.5703 22.9062Z" fill="black" fill-opacity="0.72"/>
</g>
</svg>
