<svg width="32" height="32" viewBox="0 0 32 32" fill="none" xmlns="http://www.w3.org/2000/svg">
<g id="standalone / md / rotate-device-md / fill">
<path id="icon" d="M22.0625 17.0469C22.8047 17.7891 22.8047 18.9609 22.0625 19.7031L18.5469 23.2578C17.8047 23.9609 16.6328 23.9609 15.8906 23.2578L8.82031 16.1875C8.07812 15.4453 8.07812 14.2734 8.82031 13.5312L12.3359 9.97656C13.0781 9.27344 14.25 9.27344 14.9922 9.97656L22.0625 17.0469ZM12.8828 11.4219C13.2344 11.7344 13.2344 12.2812 12.8828 12.6328L11.4766 14.0391C11.125 14.3906 10.5781 14.3906 10.2266 14.0391L10.1484 13.9609L9.67969 14.3906C9.44531 14.6641 9.44531 15.0547 9.67969 15.2891L16.75 22.3594C17.0234 22.5938 17.4141 22.5938 17.6484 22.3594L21.2031 18.8438C21.4375 18.5703 21.4375 18.1797 21.2031 17.9453L14.1328 10.875C13.8594 10.6406 13.4688 10.6406 13.2344 10.875L12.8047 11.3047L12.8828 11.4219ZM21.6328 10.6406C21.3203 10.3281 21.0469 10.0938 20.6953 9.85938L20.3828 9.625C19.9922 9.39062 19.6016 9.19531 19.1719 9.03906L18.7812 8.92188C18.6641 8.88281 18.5859 8.84375 18.4688 8.84375L19.4062 9.74219L18.5078 10.6406L15.2656 7.35938H16.75H17.2188C17.6875 7.39844 18.1562 7.47656 18.5859 7.55469L19.1328 7.71094L19.6016 7.86719C20.1094 8.0625 20.5781 8.29688 21.0469 8.57031L21.4375 8.84375C21.7891 9.07812 22.1797 9.39062 22.4922 9.74219C24.0938 11.3438 24.875 13.4141 24.875 15.4844H23.625C23.625 13.7266 22.9609 11.9688 21.6328 10.6406ZM9.36719 22.8672C9.67969 23.1406 9.99219 23.4141 10.3047 23.6484L10.6172 23.8438C11.0078 24.0781 11.3984 24.2734 11.8281 24.4297L12.2578 24.5859C12.3359 24.625 12.4531 24.625 12.5312 24.6641L11.6328 23.7656L12.5312 22.8672L15.7344 26.1484H14.25L13.7812 26.1094C13.3125 26.1094 12.8828 26.0312 12.4141 25.9141L11.9062 25.7969L11.3984 25.6016C10.8906 25.4453 10.4219 25.2109 9.99219 24.9375L9.60156 24.6641C9.21094 24.3906 8.85938 24.0781 8.50781 23.7656C6.90625 22.1641 6.125 20.0938 6.125 18.0234H7.375C7.375 19.7812 8.03906 21.5391 9.40625 22.8672H9.36719Z" fill="black" fill-opacity="0.72"/>
</g>
</svg>
