<svg width="32" height="32" viewBox="0 0 32 32" fill="none" xmlns="http://www.w3.org/2000/svg">
<g id="standalone / md / light-user-tie-circle-dollar-md / fill">
<path id="icon" d="M3.5 25.3281C3.5 22.3594 5.49219 19.8984 8.22656 19.1953C8.57812 19.1172 8.85156 19.3516 8.92969 19.6641L10.3359 25.4062L11.6641 20.5625L10.9219 19.3516C10.6875 18.9219 10.9609 18.375 11.4688 18.375H12.25H12.9922C13.5 18.375 13.7734 18.9219 13.5391 19.3516L12.7969 20.5625L14.125 25.4062L15.5312 19.6641C15.6094 19.3516 15.8828 19.1562 16.1953 19.1953C16.0391 19.7422 16 20.2891 16 20.875C16 23.2188 17.1328 25.2891 18.8906 26.5H14.6328H14.4375H10.0625H9.82812H4.67188C4.00781 26.5 3.5 25.9922 3.5 25.3281ZM7.25 11.5C7.25 9.74219 8.1875 8.0625 9.75 7.20312C11.2734 6.30469 13.1875 6.30469 14.75 7.20312C16.2734 8.0625 17.25 9.74219 17.25 11.5C17.25 13.2969 16.2734 14.9375 14.75 15.8359C13.1875 16.7344 11.2734 16.7344 9.75 15.8359C8.1875 14.9375 7.25 13.2969 7.25 11.5ZM17.25 20.875C17.25 17.7891 19.75 15.25 22.875 15.25C25.9609 15.25 28.5 17.7891 28.5 20.875C28.5 24 25.9609 26.5 22.875 26.5C19.75 26.5 17.25 24 17.25 20.875ZM20.6875 19.8203C20.7266 20.4453 21.1172 20.8359 21.5078 21.0312C21.8594 21.2266 22.2891 21.3438 22.6406 21.4219C22.6406 21.4609 22.6797 21.4609 22.7188 21.4609C23.1094 21.5781 23.4219 21.6562 23.6172 21.7734C23.7734 21.8906 23.8125 21.9297 23.8125 22.0078C23.8125 22.0859 23.7734 22.1641 23.7734 22.1641C23.7344 22.2031 23.6953 22.2422 23.6172 22.3203C23.4219 22.3984 23.1484 22.4375 22.875 22.4375C22.5234 22.4375 22.1719 22.3203 21.7031 22.1641C21.625 22.1641 21.5469 22.125 21.4688 22.125C21.1562 22.0078 20.8047 22.2031 20.6875 22.5156C20.6094 22.8672 20.7656 23.2188 21.1172 23.2969C21.1562 23.3359 21.2344 23.3359 21.3125 23.375C21.5859 23.4531 21.8984 23.5703 22.25 23.6094V24.0781C22.25 24.4297 22.5234 24.7031 22.875 24.7031C23.1875 24.7031 23.5 24.4297 23.5 24.0781V23.6484C23.7344 23.6094 23.9688 23.5312 24.2031 23.4141C24.6719 23.1406 25.0625 22.6719 25.0625 21.9688C25.0234 21.3438 24.6328 20.9531 24.2422 20.7188C23.8906 20.4844 23.4219 20.3672 23.0703 20.25H23.0312C22.6406 20.1328 22.3281 20.0547 22.0938 19.9375C21.9375 19.8203 21.9375 19.7812 21.9375 19.7422C21.9375 19.6641 21.9375 19.625 21.9375 19.625C21.9766 19.5859 22.0156 19.5469 22.1328 19.4688C22.3281 19.3906 22.6016 19.3125 22.8359 19.3125C23.1875 19.3125 23.5 19.3906 23.8906 19.4688C24.2031 19.5859 24.5547 19.3516 24.6328 19.0391C24.7109 18.6875 24.5156 18.3359 24.1641 18.2578C23.9688 18.2188 23.7344 18.1797 23.5 18.1406V17.75C23.5 17.3984 23.1875 17.125 22.875 17.125C22.5234 17.125 22.25 17.3984 22.25 17.75V18.1406C21.9766 18.1797 21.7422 18.2578 21.5469 18.375C21.0781 18.6094 20.6484 19.0781 20.6875 19.8203Z" fill="black" fill-opacity="0.72"/>
</g>
</svg>
