<svg width="32" height="32" viewBox="0 0 32 32" fill="none" xmlns="http://www.w3.org/2000/svg">
<g id="standalone / md / circle-arrow-down-right-md / regular">
<path id="icon" d="M16 25.25C19.125 25.25 21.9766 23.6094 23.5391 20.875C25.1406 18.1797 25.1406 14.8594 23.5391 12.125C21.9766 9.42969 19.125 7.75 16 7.75C12.8359 7.75 9.98438 9.42969 8.42188 12.125C6.82031 14.8594 6.82031 18.1797 8.42188 20.875C9.98438 23.6094 12.8359 25.25 16 25.25ZM16 6.5C19.5547 6.5 22.8359 8.41406 24.6328 11.5C26.4297 14.625 26.4297 18.4141 24.6328 21.5C22.8359 24.625 19.5547 26.5 16 26.5C12.4062 26.5 9.125 24.625 7.32812 21.5C5.53125 18.4141 5.53125 14.625 7.32812 11.5C9.125 8.41406 12.4062 6.5 16 6.5ZM13.8125 20.25C13.4609 20.25 13.1875 19.9766 13.1875 19.625C13.1875 19.3125 13.4609 19 13.8125 19H17.6016L12.4062 13.8438C12.1719 13.6094 12.1719 13.1797 12.4062 12.9453C12.6406 12.7109 13.0703 12.7109 13.3047 12.9453L18.5 18.1406V14C18.5 13.6875 18.7734 13.375 19.125 13.375C19.4375 13.375 19.75 13.6875 19.75 14V19.625C19.75 19.9766 19.4375 20.25 19.125 20.25H13.8125Z" fill="black" fill-opacity="0.72"/>
</g>
</svg>
