<svg width="32" height="32" viewBox="0 0 32 32" fill="none" xmlns="http://www.w3.org/2000/svg">
<g id="standalone / md / light-chart-line-up-down-clock-md / fill">
<path id="icon" d="M3.5 9C3.5 8.33594 4.04688 7.75 4.75 7.75C5.41406 7.75 6 8.33594 6 9V22.125C6 22.4766 6.27344 22.75 6.625 22.75H16.2344C16.5078 23.6875 16.9375 24.5469 17.5625 25.25H6.625C4.86719 25.25 3.5 23.8828 3.5 22.125V9ZM7.60156 15.6406L10.7266 12.5156C11.1953 12.0078 12.0156 12.0078 12.4844 12.5156L14.75 14.7422L18.2266 11.2656L17.4844 10.5234C17.3281 10.3672 17.25 10.1328 17.25 9.89844C17.25 9.42969 17.6406 9 18.1094 9H21.625C21.9375 9 22.25 9.3125 22.25 9.625V10.25V10.2891V13.1406C22.25 13.6094 21.8203 14 21.3516 14C21.1172 14 20.8828 13.9219 20.7266 13.7656L19.9844 13.0234L15.6094 17.3984C15.1406 17.9062 14.3203 17.9062 13.8516 17.3984L11.625 15.1719L9.35938 17.3984C8.89062 17.9062 8.07031 17.9062 7.60156 17.3984C7.09375 16.9297 7.09375 16.1094 7.60156 15.6406ZM17.25 20.875C17.25 17.7891 19.75 15.25 22.875 15.25C25.9609 15.25 28.5 17.7891 28.5 20.875C28.5 24 25.9609 26.5 22.875 26.5C19.75 26.5 17.25 24 17.25 20.875ZM22.25 18.375V20.875C22.25 21.2266 22.5234 21.5 22.875 21.5H24.75C25.0625 21.5 25.375 21.2266 25.375 20.875C25.375 20.5625 25.0625 20.25 24.75 20.25H23.5V18.375C23.5 18.0625 23.1875 17.75 22.875 17.75C22.5234 17.75 22.25 18.0625 22.25 18.375Z" fill="black" fill-opacity="0.72"/>
</g>
</svg>
