<svg width="32" height="32" viewBox="0 0 32 32" fill="none" xmlns="http://www.w3.org/2000/svg">
<g id="standalone / md / circle-chevron-left-md / fill">
<path id="icon" d="M26 16.5C26 20.0938 24.0859 23.375 21 25.1719C17.875 26.9688 14.0859 26.9688 11 25.1719C7.875 23.375 6 20.0938 6 16.5C6 12.9453 7.875 9.66406 11 7.86719C14.0859 6.07031 17.875 6.07031 21 7.86719C24.0859 9.66406 26 12.9453 26 16.5ZM16.5859 11.7734L12.5234 15.875C12.1328 16.2266 12.1328 16.8125 12.5234 17.1641L16.5859 21.2266C16.9375 21.6172 17.5234 21.6172 17.875 21.2266C18.2656 20.875 18.2656 20.2891 17.875 19.8984L14.4766 16.5L17.875 13.1016C18.2656 12.75 18.2656 12.1641 17.875 11.7734C17.5234 11.4219 16.9375 11.4219 16.5859 11.7734Z" fill="black" fill-opacity="0.72"/>
</g>
</svg>
