<svg width="32" height="32" viewBox="0 0 32 32" fill="none" xmlns="http://www.w3.org/2000/svg">
<g id="standalone / md / arrows-rotate-md / regular">
<path id="icon" d="M8.69531 14.7422C8.61719 15.0547 8.34375 15.25 8.07031 15.25C7.67969 15.25 7.36719 14.9375 7.44531 14.5469C8.34375 10.6797 11.8203 7.75 16 7.75C19.1641 7.75 21.9375 9.46875 23.5 12.0078V9.625C23.5 9.3125 23.7734 9 24.125 9C24.4375 9 24.75 9.3125 24.75 9.625V13.375C24.75 13.7266 24.4375 14 24.125 14H23.5H20.375C20.0234 14 19.75 13.7266 19.75 13.375C19.75 13.0625 20.0234 12.75 20.375 12.75H22.4844C21.1953 10.5234 18.7734 9 16 9C12.4453 9 9.47656 11.4609 8.69531 14.7422ZM23.2656 18.2969C23.3438 17.9844 23.6172 17.75 23.9297 17.75C24.2812 17.75 24.5938 18.1016 24.5156 18.4922C23.6172 22.3594 20.1406 25.25 16 25.25C12.7969 25.25 10.0234 23.5703 8.5 21.0312V23.375C8.5 23.7266 8.22656 24 7.875 24C7.52344 24 7.25 23.7266 7.25 23.375V19.625C7.25 19.3125 7.52344 19 7.875 19H8.46094H11.625C11.9766 19 12.25 19.3125 12.25 19.625C12.25 19.9766 11.9766 20.25 11.625 20.25H9.47656C10.7656 22.5156 13.1875 24 16 24C19.5156 24 22.4844 21.5781 23.2656 18.2969Z" fill="black" fill-opacity="0.72"/>
</g>
</svg>
