<svg width="32" height="32" viewBox="0 0 32 32" fill="none" xmlns="http://www.w3.org/2000/svg">
<g id="standalone / md / rectangle-ad-md / fill">
<path id="icon" d="M7.25 7.75H24.75C26.1172 7.75 27.25 8.88281 27.25 10.25V22.75C27.25 24.1562 26.1172 25.25 24.75 25.25H7.25C5.84375 25.25 4.75 24.1562 4.75 22.75V10.25C4.75 8.88281 5.84375 7.75 7.25 7.75ZM13.6953 13.2969C13.5391 12.9453 13.2266 12.75 12.875 12.75C12.4844 12.75 12.1719 12.9844 12.0156 13.2969L9.20312 18.9219C8.96875 19.3906 9.16406 19.9375 9.63281 20.1719C10.1016 20.4062 10.6484 20.2109 10.8828 19.7422L11.0781 19.3125H14.6328L14.8281 19.7422C15.0625 20.2109 15.6484 20.4062 16.0781 20.1719C16.5469 19.9375 16.7422 19.3906 16.5078 18.9219L13.6953 13.2969ZM12.875 15.7969L13.6953 17.4375H12.0156L12.875 15.7969ZM20.0625 16.5C20.5703 16.5 21 16.9297 21 17.4375C21 17.9844 20.5703 18.375 20.0625 18.375C19.5156 18.375 19.125 17.9844 19.125 17.4375C19.125 16.9297 19.5156 16.5 20.0625 16.5ZM21 14.8203C20.6875 14.7031 20.375 14.625 20.0625 14.625C18.5 14.625 17.25 15.9141 17.25 17.4375C17.25 19 18.5 20.25 20.0625 20.25C20.4922 20.25 20.8828 20.1719 21.2734 19.9766C21.4297 20.1719 21.6641 20.25 21.9375 20.25C22.4453 20.25 22.875 19.8594 22.875 19.3125V17.4375V13.6875C22.875 13.1797 22.4453 12.75 21.9375 12.75C21.3906 12.75 21 13.1797 21 13.6875V14.8203Z" fill="black" fill-opacity="0.72"/>
</g>
</svg>
