<svg width="32" height="32" viewBox="0 0 32 32" fill="none" xmlns="http://www.w3.org/2000/svg">
<g id="standalone / md / chart-trend-up-md / fill">
<path id="icon" d="M27.7969 6.65625C28.4219 6.96875 28.6562 7.71094 28.3438 8.33594L24.5938 15.8359C24.3984 16.2656 23.9688 16.5 23.5 16.5H17.9922L13.3438 25.8359C13.0312 26.4609 12.2891 26.6953 11.6641 26.3828L4.16406 22.6328C3.53906 22.3203 3.30469 21.5781 3.61719 20.9531C3.92969 20.3281 4.67188 20.0938 5.29688 20.4062L11.6641 23.6094L16.1172 14.7031C16.3125 14.2734 16.7422 14 17.25 14H22.7188L26.1172 7.20312C26.4297 6.57812 27.1719 6.34375 27.7969 6.65625Z" fill="black" fill-opacity="0.72"/>
</g>
</svg>
