<svg width="32" height="32" viewBox="0 0 32 32" fill="none" xmlns="http://www.w3.org/2000/svg">
<g id="standalone / md / facebook-md">
<path id="icon" d="M26 16.5C26 21.6172 22.1328 25.8359 17.2109 26.4609V19.5859H19.9062L20.4531 16.5H17.2109V15.4453C17.2109 13.8047 17.8359 13.1797 19.4766 13.1797C19.9844 13.1797 20.375 13.2188 20.6094 13.2188V10.4844C20.1797 10.3281 19.0859 10.2109 18.4609 10.2109C15.1016 10.2109 13.5781 11.8125 13.5781 15.2109V16.5H11.5078V19.5859H13.5781V26.2266C9.20312 25.1328 6 21.1875 6 16.5C6 10.9922 10.4531 6.5 16 6.5C21.5078 6.5 26 10.9922 26 16.5Z" fill="black" fill-opacity="0.72"/>
</g>
</svg>
