<svg width="32" height="32" viewBox="0 0 32 32" fill="none" xmlns="http://www.w3.org/2000/svg">
<g id="standalone / md / gauge-min-md / regular">
<path id="icon" d="M16 7.75C12.8359 7.75 9.98438 9.42969 8.42188 12.125C6.82031 14.8594 6.82031 18.1797 8.42188 20.875C9.98438 23.6094 12.8359 25.25 16 25.25C19.125 25.25 21.9766 23.6094 23.5391 20.875C25.1406 18.1797 25.1406 14.8594 23.5391 12.125C21.9766 9.42969 19.125 7.75 16 7.75ZM16 26.5C12.4062 26.5 9.125 24.625 7.32812 21.5C5.53125 18.4141 5.53125 14.625 7.32812 11.5C9.125 8.41406 12.4062 6.5 16 6.5C19.5547 6.5 22.8359 8.41406 24.6328 11.5C26.4297 14.625 26.4297 18.4141 24.6328 21.5C22.8359 24.625 19.5547 26.5 16 26.5ZM16.9375 10.25C16.9375 10.7969 16.5078 11.1875 16 11.1875C15.4531 11.1875 15.0625 10.7969 15.0625 10.25C15.0625 9.74219 15.4531 9.3125 16 9.3125C16.5078 9.3125 16.9375 9.74219 16.9375 10.25ZM14.75 20.25C14.75 20.9531 15.2969 21.5 16 21.5C16.6641 21.5 17.25 20.9531 17.25 20.25C17.25 19.5859 16.6641 19 16 19C15.2969 19 14.75 19.5859 14.75 20.25ZM18.5 20.25L18.4609 20.2891C18.4609 21.6562 17.3672 22.7891 15.9609 22.7891C14.5938 22.7891 13.4609 21.6562 13.4609 20.2891C13.4609 20.0156 13.5 19.7812 13.5781 19.5469L9.39844 17.0469C9.125 16.8906 9.00781 16.5 9.20312 16.1875C9.35938 15.9141 9.75 15.7969 10.0625 15.9922L14.2422 18.4922C14.6719 18.0234 15.2969 17.75 16 17.75C17.3672 17.75 18.5 18.8828 18.5 20.25ZM12.5625 12.125C12.5625 12.6719 12.1328 13.0625 11.625 13.0625C11.0781 13.0625 10.6875 12.6719 10.6875 12.125C10.6875 11.6172 11.0781 11.1875 11.625 11.1875C12.1328 11.1875 12.5625 11.6172 12.5625 12.125ZM22.25 17.4375C21.7031 17.4375 21.3125 17.0469 21.3125 16.5C21.3125 15.9922 21.7031 15.5625 22.25 15.5625C22.7578 15.5625 23.1875 15.9922 23.1875 16.5C23.1875 17.0469 22.7578 17.4375 22.25 17.4375ZM21.3125 12.125C21.3125 12.6719 20.8828 13.0625 20.375 13.0625C19.8281 13.0625 19.4375 12.6719 19.4375 12.125C19.4375 11.6172 19.8281 11.1875 20.375 11.1875C20.8828 11.1875 21.3125 11.6172 21.3125 12.125Z" fill="black" fill-opacity="0.72"/>
</g>
</svg>
