<svg width="32" height="32" viewBox="0 0 32 32" fill="none" xmlns="http://www.w3.org/2000/svg">
<g id="standalone / md / video-md / fill">
<path id="icon" d="M4.75 11.5C4.75 10.1328 5.84375 9 7.25 9H17.25C18.6172 9 19.75 10.1328 19.75 11.5V21.5C19.75 22.9062 18.6172 24 17.25 24H7.25C5.84375 24 4.75 22.9062 4.75 21.5V11.5ZM26.5859 10.4062C26.9766 10.6406 27.25 11.0703 27.25 11.5V21.5C27.25 21.9688 26.9766 22.3984 26.5859 22.6328C26.1562 22.8281 25.6875 22.8281 25.2969 22.5547L21.5469 20.0547L21 19.7031V19V14V13.3359L21.5469 12.9844L25.2969 10.4844C25.6875 10.2109 26.1562 10.2109 26.5859 10.4062Z" fill="black" fill-opacity="0.72"/>
</g>
</svg>
