<svg width="32" height="32" viewBox="0 0 32 32" fill="none" xmlns="http://www.w3.org/2000/svg">
<g id="standalone / md / file-check-md / bold">
<path id="icon" d="M11 24.625H21C21.3125 24.625 21.625 24.3516 21.625 24V12.75H18.5C17.7969 12.75 17.25 12.2031 17.25 11.5V8.375H11C10.6484 8.375 10.375 8.6875 10.375 9V24C10.375 24.3516 10.6484 24.625 11 24.625ZM11 6.5H17.4453C18.1094 6.5 18.7344 6.77344 19.2031 7.24219L22.7578 10.7969C23.2266 11.2656 23.5 11.8906 23.5 12.5547V24C23.5 25.4062 22.3672 26.5 21 26.5H11C9.59375 26.5 8.5 25.4062 8.5 24V9C8.5 7.63281 9.59375 6.5 11 6.5ZM19.7891 16.9688L15.6094 21.1484C15.2578 21.5 14.6328 21.5 14.2812 21.1484L12.2109 19.0391C11.8203 18.6875 11.8203 18.1016 12.2109 17.7109C12.5625 17.3594 13.1484 17.3594 13.5391 17.7109L14.9453 19.1562L18.4609 15.6406C18.8125 15.2891 19.3984 15.2891 19.7891 15.6406C20.1406 15.9922 20.1406 16.6172 19.7891 16.9688Z" fill="black" fill-opacity="0.72"/>
</g>
</svg>
