<svg width="32" height="32" viewBox="0 0 32 32" fill="none" xmlns="http://www.w3.org/2000/svg">
<g id="standalone / md / location-dot-md / fill">
<path id="icon" d="M16.8984 26.0312C16.4297 26.6172 15.5312 26.6172 15.0625 26.0312C13.0703 23.4922 8.5 17.4375 8.5 14C8.5 9.85938 11.8594 6.5 16 6.5C20.1406 6.5 23.5 9.85938 23.5 14C23.5 17.4375 18.9297 23.4922 16.8984 26.0312ZM16 11.5C15.1016 11.5 14.2812 12.0078 13.8125 12.75C13.3828 13.5312 13.3828 14.5078 13.8125 15.25C14.2812 16.0312 15.1016 16.5 16 16.5C16.8594 16.5 17.6797 16.0312 18.1484 15.25C18.5781 14.5078 18.5781 13.5312 18.1484 12.75C17.6797 12.0078 16.8594 11.5 16 11.5Z" fill="black" fill-opacity="0.72"/>
</g>
</svg>
