<svg width="32" height="32" viewBox="0 0 32 32" fill="none" xmlns="http://www.w3.org/2000/svg">
<g id="standalone / md / thumbs-down-md / bold">
<path id="icon" d="M18.6172 25.1719C17.1328 25.6016 15.5703 24.7031 15.1406 23.2188L14.9453 22.4375C14.7891 21.9297 14.5156 21.4609 14.1641 21.0703L12.1719 18.8828C11.8203 18.4922 11.8594 17.9062 12.2109 17.5547C12.6016 17.2031 13.1875 17.2422 13.5391 17.6328L15.5703 19.8203C16.1172 20.4062 16.5078 21.1484 16.7422 21.9297L16.9375 22.7109C17.0938 23.2188 17.6016 23.4922 18.1094 23.375C18.6172 23.2188 18.8906 22.7109 18.7734 22.2031L18.5391 21.4219C18.3047 20.6406 17.9531 19.8984 17.4844 19.2344C17.2891 18.9609 17.2891 18.5703 17.4453 18.2578C17.6016 17.9453 17.9141 17.75 18.2656 17.75H23.5C23.8125 17.75 24.125 17.4766 24.125 17.125C24.125 16.8906 23.9297 16.6562 23.6953 16.5391C23.4219 16.4609 23.1875 16.1875 23.1094 15.9141C23.0312 15.6016 23.1094 15.2891 23.3438 15.0547C23.4219 14.9375 23.5 14.8203 23.5 14.625C23.5 14.3516 23.2656 14.0781 22.9922 14.0391C22.6406 13.9609 22.3672 13.7266 22.2891 13.4531C22.1719 13.1406 22.2109 12.7891 22.4062 12.5156C22.4844 12.4375 22.5625 12.2812 22.5625 12.125C22.5625 11.8906 22.3672 11.6562 22.1328 11.5391C21.7031 11.3828 21.4688 10.9141 21.5859 10.4453C21.5859 10.3672 21.625 10.3281 21.625 10.25C21.625 9.9375 21.3125 9.625 21 9.625H17.1719C16.6641 9.625 16.1953 9.78125 15.8047 10.0547L13.3828 11.6562C12.9531 11.9688 12.3672 11.8516 12.0938 11.3828C11.7812 10.9531 11.8984 10.4062 12.3281 10.0938L14.75 8.49219C15.4531 8.02344 16.3125 7.75 17.1719 7.75H21C22.3281 7.75 23.4219 8.84375 23.5 10.1719C24.0469 10.6406 24.4375 11.3438 24.4375 12.125C24.4375 12.3203 24.3984 12.4766 24.3594 12.6328C24.9844 13.1016 25.375 13.8047 25.375 14.625C25.375 14.8984 25.3359 15.1328 25.2578 15.3672C25.6875 15.8359 26 16.4609 26 17.125C26 18.5312 24.8672 19.625 23.5 19.625H19.8672C20.0625 20.0547 20.2188 20.4844 20.3359 20.9141L20.5703 21.6953C21 23.1797 20.1406 24.7422 18.6172 25.1719ZM7.25 21.5C6.54688 21.5 6 20.9531 6 20.25V11.5C6 10.8359 6.54688 10.25 7.25 10.25H9.75C10.4141 10.25 11 10.8359 11 11.5V20.25C11 20.9531 10.4141 21.5 9.75 21.5H7.25Z" fill="black" fill-opacity="0.72"/>
</g>
</svg>
