<svg width="32" height="32" viewBox="0 0 32 32" fill="none" xmlns="http://www.w3.org/2000/svg">
<g id="standalone / md / gauge-max-md / fill">
<path id="icon" d="M6 16.5C6 12.9453 7.875 9.66406 11 7.86719C14.0859 6.07031 17.875 6.07031 21 7.86719C24.0859 9.66406 26 12.9453 26 16.5C26 20.0938 24.0859 23.375 21 25.1719C17.875 26.9688 14.0859 26.9688 11 25.1719C7.875 23.375 6 20.0938 6 16.5ZM17.25 10.25C17.25 9.58594 16.6641 9 16 9C15.2969 9 14.75 9.58594 14.75 10.25C14.75 10.9531 15.2969 11.5 16 11.5C16.6641 11.5 17.25 10.9531 17.25 10.25ZM16 22.75C17.3672 22.75 18.5 21.6562 18.5 20.25C18.5 20.1328 18.4609 19.9766 18.4609 19.8594L23.0312 17.0078C23.4609 16.7344 23.6172 16.1484 23.3438 15.7188C23.0703 15.2891 22.4844 15.1328 22.0547 15.4062L17.4453 18.2578C17.0547 17.9453 16.5469 17.75 16 17.75C14.5938 17.75 13.5 18.8828 13.5 20.25C13.5 21.6562 14.5938 22.75 16 22.75ZM12.875 12.125C12.875 11.4609 12.2891 10.875 11.625 10.875C10.9219 10.875 10.375 11.4609 10.375 12.125C10.375 12.8281 10.9219 13.375 11.625 13.375C12.2891 13.375 12.875 12.8281 12.875 12.125ZM9.75 17.75C10.4141 17.75 11 17.2031 11 16.5C11 15.8359 10.4141 15.25 9.75 15.25C9.04688 15.25 8.5 15.8359 8.5 16.5C8.5 17.2031 9.04688 17.75 9.75 17.75ZM21.625 12.125C21.625 11.4609 21.0391 10.875 20.375 10.875C19.6719 10.875 19.125 11.4609 19.125 12.125C19.125 12.8281 19.6719 13.375 20.375 13.375C21.0391 13.375 21.625 12.8281 21.625 12.125Z" fill="black" fill-opacity="0.72"/>
</g>
</svg>
