<svg width="32" height="32" viewBox="0 0 32 32" fill="none" xmlns="http://www.w3.org/2000/svg">
<g id="standalone / md / arrow-rotate-right-md / fill">
<path id="icon" d="M21.0781 12.75L20.4141 12.0859C17.9531 9.66406 14.0078 9.66406 11.5469 12.0859C9.125 14.5469 9.125 18.4922 11.5469 20.9531C14.0078 23.375 17.9531 23.375 20.4141 20.9531C20.8828 20.4453 21.6641 20.4453 22.1719 20.9531C22.6406 21.4219 22.6406 22.2031 22.1719 22.7109C18.7344 26.1094 13.2266 26.1094 9.78906 22.7109C6.39062 19.2734 6.39062 13.7656 9.78906 10.3281C13.2266 6.92969 18.7344 6.92969 22.1719 10.3281L22.875 11.0312V9C22.875 8.33594 23.4219 7.75 24.125 7.75C24.7891 7.75 25.375 8.33594 25.375 9V14C25.375 14.7031 24.7891 15.25 24.125 15.25H19.125C18.4219 15.25 17.875 14.7031 17.875 14C17.875 13.3359 18.4219 12.75 19.125 12.75H21.0781Z" fill="black" fill-opacity="0.72"/>
</g>
</svg>
