<svg width="32" height="32" viewBox="0 0 32 32" fill="none" xmlns="http://www.w3.org/2000/svg">
<g id="standalone / md / flag-checkered-md / regular">
<path id="icon" d="M8.5 7.125V8.84375L12.3281 7.78906C13.9297 7.35938 15.6094 7.51562 17.0938 8.25781C18.7344 9.07812 20.6875 9 22.25 8.10156L22.875 7.75C23.6953 7.28125 24.75 7.86719 24.75 8.84375V19.8594C24.75 20.3672 24.4375 20.7969 23.9688 20.9922L22.7969 21.5C20.8438 22.3594 18.6172 22.2812 16.7031 21.3438C15.375 20.6797 13.8906 20.5234 12.4453 20.9141L8.5 22.0078V25.875C8.5 26.2266 8.1875 26.5 7.875 26.5C7.52344 26.5 7.25 26.2266 7.25 25.875V22.3203V21.5V9.625V9.15625V7.125C7.25 6.8125 7.52344 6.5 7.875 6.5C8.1875 6.5 8.5 6.8125 8.5 7.125ZM8.5 10.1328V12.5547L12.25 11.7344V9.07812L8.5 10.1328ZM8.5 13.8438V16.6172L12.25 15.7969V13.0234L8.5 13.8438ZM13.5 12.75V15.5234C14.3594 15.3672 15.2578 15.4062 16.1562 15.6406L18.5 16.3438V13.5703C18.4219 13.5703 18.3438 13.5312 18.3047 13.5312L15.7656 12.7891C15.0625 12.5938 14.3203 12.5547 13.6172 12.7109L13.5 12.75ZM19.75 13.8047V16.6172C20.3359 16.6562 20.9219 16.6172 21.5078 16.4609L23.5 16.0312V13.2578L21.7812 13.6484C21.1172 13.8047 20.4141 13.8438 19.75 13.8047ZM18.5 17.6328C18.4219 17.6328 18.3438 17.5938 18.3047 17.5938L15.7656 16.8516C15.0625 16.6562 14.3203 16.6172 13.6172 16.7734L13.5 16.8125V19.4688C14.7891 19.3516 16.0781 19.625 17.2891 20.2109C17.6797 20.4062 18.0703 20.5625 18.5 20.6797V17.6328ZM19.75 20.8359C20.6094 20.875 21.4688 20.7188 22.2891 20.3672L23.5 19.8594V17.3203L21.7812 17.7109C21.1172 17.8672 20.4141 17.9062 19.75 17.8672V20.8359ZM19.75 12.5156V12.5547C20.3359 12.5938 20.9219 12.5547 21.5078 12.3984L23.5 11.9688V8.84375L22.875 9.19531C21.8984 9.74219 20.8047 10.0547 19.75 10.0547V12.5156ZM18.5 9.97656C17.7969 9.89844 17.1719 9.66406 16.5469 9.35156C15.5703 8.88281 14.5156 8.72656 13.5 8.84375V11.4609C14.3594 11.3047 15.2578 11.3438 16.1172 11.5781L18.5 12.2812V9.97656ZM8.5 17.9062V20.7188L12.1328 19.7031C12.1719 19.7031 12.2109 19.7031 12.25 19.6641V17.0859L8.5 17.9062Z" fill="black" fill-opacity="0.72"/>
</g>
</svg>
