<svg width="32" height="32" viewBox="0 0 32 32" fill="none" xmlns="http://www.w3.org/2000/svg">
<g id="standalone / md / circle-arrow-down-left-md / bold">
<path id="icon" d="M16 8.375C13.0703 8.375 10.4141 9.9375 8.92969 12.4375C7.48438 14.9766 7.48438 18.0625 8.92969 20.5625C10.4141 23.1016 13.0703 24.625 16 24.625C18.8906 24.625 21.5469 23.1016 23.0312 20.5625C24.4766 18.0625 24.4766 14.9766 23.0312 12.4375C21.5469 9.9375 18.8906 8.375 16 8.375ZM16 26.5C12.4062 26.5 9.125 24.625 7.32812 21.5C5.53125 18.4141 5.53125 14.625 7.32812 11.5C9.125 8.41406 12.4062 6.5 16 6.5C19.5547 6.5 22.8359 8.41406 24.6328 11.5C26.4297 14.625 26.4297 18.4141 24.6328 21.5C22.8359 24.625 19.5547 26.5 16 26.5ZM18.5 20.875H12.5625C12.0156 20.875 11.625 20.4844 11.625 19.9375V13.6875C11.625 13.1797 12.0156 12.75 12.5625 12.75C13.0703 12.75 13.5 13.1797 13.5 13.6875V17.7109L18.7734 12.3984C19.125 12.0469 19.7109 12.0469 20.0625 12.3984C20.4531 12.7891 20.4531 13.375 20.0625 13.7266L14.7891 19H18.5C19.0078 19 19.4375 19.4297 19.4375 19.9375C19.4375 20.4844 19.0078 20.875 18.5 20.875Z" fill="black" fill-opacity="0.72"/>
</g>
</svg>
