<svg width="32" height="32" viewBox="0 0 32 32" fill="none" xmlns="http://www.w3.org/2000/svg">
<g id="standalone / md / pause-md / fill">
<path id="icon" d="M11.625 9H12.875C13.8906 9 14.75 9.85938 14.75 10.875V22.125C14.75 23.1797 13.8906 24 12.875 24H11.625C10.5703 24 9.75 23.1797 9.75 22.125V10.875C9.75 9.85938 10.5703 9 11.625 9ZM19.125 9H20.375C21.3906 9 22.25 9.85938 22.25 10.875V22.125C22.25 23.1797 21.3906 24 20.375 24H19.125C18.0703 24 17.25 23.1797 17.25 22.125V10.875C17.25 9.85938 18.0703 9 19.125 9Z" fill="black" fill-opacity="0.72"/>
</g>
</svg>
