<svg width="32" height="32" viewBox="0 0 32 32" fill="none" xmlns="http://www.w3.org/2000/svg">
<g id="standalone / md / bullhorn-md / regular">
<path id="icon" d="M22.25 8.25781C22.25 7.94531 21.8984 7.82812 21.7031 8.02344L20.7656 9C19.125 10.7188 17.0156 11.9297 14.75 12.4375V19.3516C17.0156 19.8594 19.125 21.0312 20.7656 22.7891L21.7031 23.7656C21.8984 23.9609 22.25 23.8047 22.25 23.5312V8.25781ZM13.5 19.1562V12.6328C13.2656 12.6719 13.0312 12.6719 12.7969 12.7109L11.625 12.75H8.5C7.79688 12.75 7.25 13.3359 7.25 14V17.75C7.25 18.4531 7.79688 19 8.5 19H11.625L12.7969 19.0781C13.0312 19.0781 13.2656 19.1172 13.5 19.1562ZM20.8047 7.16406C21.7422 6.14844 23.5 6.8125 23.5 8.25781V23.5312C23.5 24.9375 21.7422 25.6406 20.8047 24.625L19.8672 23.6484C18.1484 21.8516 15.9219 20.7188 13.5 20.4062V24.3125C13.5 25.5234 12.5234 26.5 11.3125 26.5H10.6875C9.47656 26.5 8.5 25.5234 8.5 24.3125V20.25C7.09375 20.25 6 19.1562 6 17.75V14C6 12.6328 7.09375 11.5 8.5 11.5H11.5859L12.7188 11.4609C15.4531 11.3047 17.9922 10.1328 19.8672 8.14062L20.8047 7.16406ZM9.75 20.25V24.3125C9.75 24.8594 10.1406 25.25 10.6875 25.25H11.3125C11.8203 25.25 12.25 24.8594 12.25 24.3125V20.2891L11.5859 20.25H9.75ZM25.375 14C25.6875 14 26 14.3125 26 14.625V17.125C26 17.4766 25.6875 17.75 25.375 17.75C25.0234 17.75 24.75 17.4766 24.75 17.125V14.625C24.75 14.3125 25.0234 14 25.375 14Z" fill="black" fill-opacity="0.72"/>
</g>
</svg>
