<svg width="32" height="32" viewBox="0 0 32 32" fill="none" xmlns="http://www.w3.org/2000/svg">
<g id="standalone / md / basket-shopping-md / regular">
<path id="icon" d="M17.5234 6.61719C17.8359 6.42188 18.2266 6.53906 18.3828 6.8125L22.6016 14H24.7109H26H26.625C26.9375 14 27.25 14.3125 27.25 14.625C27.25 14.9766 26.9375 15.25 26.625 15.25H25.6875L23.3438 24.625C23.0703 25.7188 22.0547 26.5 20.9219 26.5H11.0781C9.90625 26.5 8.92969 25.7188 8.61719 24.625L6.3125 15.25H5.375C5.02344 15.25 4.75 14.9766 4.75 14.625C4.75 14.3125 5.02344 14 5.375 14H6H7.28906H9.35938L13.5781 6.8125C13.7344 6.53906 14.125 6.42188 14.4375 6.61719C14.7109 6.77344 14.8281 7.16406 14.6328 7.47656L10.8047 14H21.1562L17.3281 7.47656C17.1328 7.16406 17.25 6.77344 17.5234 6.61719ZM7.60156 15.25L9.86719 24.3125C9.98438 24.8594 10.4922 25.25 11.0781 25.25H20.9219C21.4688 25.25 21.9766 24.8594 22.1328 24.3125L24.3984 15.25H7.60156ZM13.5 18.375V22.125C13.5 22.4766 13.1875 22.75 12.875 22.75C12.5234 22.75 12.25 22.4766 12.25 22.125V18.375C12.25 18.0625 12.5234 17.75 12.875 17.75C13.1875 17.75 13.5 18.0625 13.5 18.375ZM16 17.75C16.3125 17.75 16.625 18.0625 16.625 18.375V22.125C16.625 22.4766 16.3125 22.75 16 22.75C15.6484 22.75 15.375 22.4766 15.375 22.125V18.375C15.375 18.0625 15.6484 17.75 16 17.75ZM19.75 18.375V22.125C19.75 22.4766 19.4375 22.75 19.125 22.75C18.7734 22.75 18.5 22.4766 18.5 22.125V18.375C18.5 18.0625 18.7734 17.75 19.125 17.75C19.4375 17.75 19.75 18.0625 19.75 18.375Z" fill="black" fill-opacity="0.72"/>
</g>
</svg>
