<svg width="32" height="32" viewBox="0 0 32 32" fill="none" xmlns="http://www.w3.org/2000/svg">
<g id="standalone / md / dollar-sign-md / bold">
<path id="icon" d="M16.9375 7.4375V9.39062C17.9922 9.50781 18.9688 9.70312 19.7109 9.85938C20.2188 9.97656 20.5312 10.4844 20.4141 10.9922C20.2969 11.5 19.7891 11.8125 19.2812 11.6953C18.0703 11.4219 16.3125 11.0703 14.8281 11.2266C14.0859 11.2656 13.5 11.4219 13.0703 11.6953C12.6797 11.9688 12.4062 12.3203 12.2891 12.9062C12.1719 13.3359 12.25 13.6484 12.3672 13.8438C12.4453 14.0781 12.6797 14.2734 13.0312 14.5078C13.7734 14.9766 14.9062 15.25 16.1953 15.6016L16.3125 15.6406C17.5234 15.9531 18.8906 16.3047 19.9453 16.9297C20.4922 17.2422 20.9609 17.7109 21.2734 18.3359C21.625 18.9609 21.6641 19.7031 21.5469 20.4844C21.2734 21.8906 20.2578 22.7891 19.0078 23.2578C18.3828 23.4922 17.6797 23.6484 16.9375 23.6875V25.5625C16.9375 26.1094 16.5078 26.5 16 26.5C15.4531 26.5 15.0625 26.1094 15.0625 25.5625V23.6484C14.9062 23.6094 14.7891 23.6094 14.6719 23.5703C13.6953 23.4531 11.9766 23.0625 10.9219 22.5938C10.4531 22.3594 10.2188 21.8125 10.4531 21.3438C10.6484 20.875 11.1953 20.6797 11.6641 20.875C12.5234 21.2266 14.0469 21.6172 14.9062 21.7344C16.3125 21.9297 17.4844 21.8125 18.3438 21.5C19.1641 21.1875 19.5938 20.7188 19.6719 20.1328C19.7891 19.7031 19.7109 19.3906 19.5938 19.1953C19.5156 18.9609 19.2812 18.7266 18.9297 18.5312C18.1875 18.0625 17.0938 17.75 15.7656 17.4375L15.6484 17.3984C14.4375 17.0859 13.0703 16.7344 12.0156 16.1094C11.5078 15.7578 11 15.3281 10.6875 14.7031C10.375 14.0391 10.2969 13.3359 10.4531 12.5547C10.6484 11.4219 11.2344 10.6406 12.0547 10.1328C12.8359 9.625 13.7734 9.42969 14.6719 9.35156C14.7891 9.3125 14.9062 9.3125 15.0625 9.3125V7.4375C15.0625 6.92969 15.4531 6.5 16 6.5C16.5078 6.5 16.9375 6.92969 16.9375 7.4375Z" fill="black" fill-opacity="0.72"/>
</g>
</svg>
