<svg width="32" height="32" viewBox="0 0 32 32" fill="none" xmlns="http://www.w3.org/2000/svg">
<g id="standalone / md / floppy-disk-pen-md / fill">
<path id="icon" d="M7.25 7.75H16.7031C17.3672 7.75 18.0312 8.02344 18.5 8.49219L21.5078 11.5C21.9766 11.9688 22.25 12.6328 22.25 13.2969V15.7188L16.0391 21.9297C15.7266 22.2422 15.4922 22.6328 15.375 23.1016L14.8281 25.25H7.25C5.84375 25.25 4.75 24.1562 4.75 22.75V10.25C4.75 8.88281 5.84375 7.75 7.25 7.75ZM7.25 11.5V14C7.25 14.7031 7.79688 15.25 8.5 15.25H16C16.6641 15.25 17.25 14.7031 17.25 14V11.5C17.25 10.8359 16.6641 10.25 16 10.25H8.5C7.79688 10.25 7.25 10.8359 7.25 11.5ZM13.5 17.75C12.6016 17.75 11.7812 18.2578 11.3125 19C10.8828 19.7812 10.8828 20.7578 11.3125 21.5C11.7812 22.2812 12.6016 22.75 13.5 22.75C14.3594 22.75 15.1797 22.2812 15.6484 21.5C16.0781 20.7578 16.0781 19.7812 15.6484 19C15.1797 18.2578 14.3594 17.75 13.5 17.75ZM26.1953 15.7188L26.7812 16.3047C27.3672 16.8906 27.3672 17.9062 26.7812 18.4922L25.6094 19.6641L22.8359 16.8906L24.0078 15.7188C24.5938 15.1328 25.6094 15.1328 26.1953 15.7188ZM16.8984 22.8281L21.9766 17.75L24.75 20.5234L19.6719 25.6016C19.5156 25.7578 19.3203 25.875 19.125 25.9141L16.7422 26.5C16.5469 26.5391 16.3125 26.5 16.1562 26.3438C16 26.1875 15.9609 25.9531 16 25.7578L16.5859 23.375C16.625 23.1797 16.7422 22.9844 16.8984 22.8281Z" fill="black" fill-opacity="0.72"/>
</g>
</svg>
