<svg width="32" height="32" viewBox="0 0 32 32" fill="none" xmlns="http://www.w3.org/2000/svg">
<g id="standalone / md / circle-minus-md / bold">
<path id="icon" d="M16 8.375C13.0703 8.375 10.4141 9.9375 8.92969 12.4375C7.48438 14.9766 7.48438 18.0625 8.92969 20.5625C10.4141 23.1016 13.0703 24.625 16 24.625C18.8906 24.625 21.5469 23.1016 23.0312 20.5625C24.4766 18.0625 24.4766 14.9766 23.0312 12.4375C21.5469 9.9375 18.8906 8.375 16 8.375ZM16 26.5C12.4062 26.5 9.125 24.625 7.32812 21.5C5.53125 18.4141 5.53125 14.625 7.32812 11.5C9.125 8.41406 12.4062 6.5 16 6.5C19.5547 6.5 22.8359 8.41406 24.6328 11.5C26.4297 14.625 26.4297 18.4141 24.6328 21.5C22.8359 24.625 19.5547 26.5 16 26.5ZM13.1875 15.5625H18.8125C19.3203 15.5625 19.75 15.9922 19.75 16.5C19.75 17.0469 19.3203 17.4375 18.8125 17.4375H13.1875C12.6406 17.4375 12.25 17.0469 12.25 16.5C12.25 15.9922 12.6406 15.5625 13.1875 15.5625Z" fill="black" fill-opacity="0.72"/>
</g>
</svg>
