<svg width="32" height="32" viewBox="0 0 32 32" fill="none" xmlns="http://www.w3.org/2000/svg">
<g id="standalone / md / field-password-md / fill">
<path id="icon" d="M7.25 11.5C6.54688 11.5 6 12.0859 6 12.75V20.25C6 20.9531 6.54688 21.5 7.25 21.5H24.75C25.4141 21.5 26 20.9531 26 20.25V12.75C26 12.0859 25.4141 11.5 24.75 11.5H7.25ZM3.5 12.75C3.5 10.6797 5.17969 9 7.25 9H24.75C26.8203 9 28.5 10.6797 28.5 12.75V20.25C28.5 22.3203 26.8203 24 24.75 24H7.25C5.17969 24 3.5 22.3203 3.5 20.25V12.75ZM20.375 20.5625C19.8281 20.5625 19.4375 20.1719 19.4375 19.625V13.375C19.4375 12.8672 19.8281 12.4375 20.375 12.4375C20.8828 12.4375 21.3125 12.8672 21.3125 13.375V19.625C21.3125 20.1719 20.8828 20.5625 20.375 20.5625ZM11.3125 16.5C11.3125 17.0859 11 17.5938 10.5312 17.8672C10.0234 18.1406 9.4375 18.1406 8.96875 17.8672C8.46094 17.5938 8.1875 17.0859 8.1875 16.5C8.1875 15.9531 8.46094 15.4453 8.96875 15.1719C9.4375 14.8984 10.0234 14.8984 10.5312 15.1719C11 15.4453 11.3125 15.9531 11.3125 16.5ZM15.0625 16.5C15.0625 17.0859 14.75 17.5938 14.2812 17.8672C13.7734 18.1406 13.1875 18.1406 12.7188 17.8672C12.2109 17.5938 11.9375 17.0859 11.9375 16.5C11.9375 15.9531 12.2109 15.4453 12.7188 15.1719C13.1875 14.8984 13.7734 14.8984 14.2812 15.1719C14.75 15.4453 15.0625 15.9531 15.0625 16.5ZM18.8125 16.5C18.8125 17.0859 18.5 17.5938 18.0312 17.8672C17.5234 18.1406 16.9375 18.1406 16.4688 17.8672C15.9609 17.5938 15.6875 17.0859 15.6875 16.5C15.6875 15.9531 15.9609 15.4453 16.4688 15.1719C16.9375 14.8984 17.5234 14.8984 18.0312 15.1719C18.5 15.4453 18.8125 15.9531 18.8125 16.5Z" fill="black" fill-opacity="0.72"/>
</g>
</svg>
