<svg width="32" height="32" viewBox="0 0 32 32" fill="none" xmlns="http://www.w3.org/2000/svg">
<g id="standalone / md / calendar-md / fill">
<path id="icon" d="M11 7.75C11 7.08594 11.5469 6.5 12.25 6.5C12.9141 6.5 13.5 7.08594 13.5 7.75V9H18.5V7.75C18.5 7.08594 19.0469 6.5 19.75 6.5C20.4141 6.5 21 7.08594 21 7.75V9H22.875C23.8906 9 24.75 9.85938 24.75 10.875V12.75H7.25V10.875C7.25 9.85938 8.07031 9 9.125 9H11V7.75ZM24.75 14V24.625C24.75 25.6797 23.8906 26.5 22.875 26.5H9.125C8.07031 26.5 7.25 25.6797 7.25 24.625V14H24.75Z" fill="black" fill-opacity="0.72"/>
</g>
</svg>
