<svg width="32" height="32" viewBox="0 0 32 32" fill="none" xmlns="http://www.w3.org/2000/svg">
<g id="standalone / md / folder-open-md / regular">
<path id="icon" d="M22.25 12.75C22.25 12.0859 21.6641 11.5 21 11.5H16.3906C15.4141 11.5 14.4375 11.1094 13.7344 10.4062L12.7188 9.39062L13.5781 8.49219L12.7188 9.39062C12.4844 9.15625 12.1719 9 11.8203 9H7.25C6.54688 9 6 9.58594 6 10.25V21.4609L7.99219 16.4609C8.26562 15.7188 8.96875 15.25 9.75 15.25H25.375C25.9609 15.25 26.5469 15.5625 26.8984 16.1094C27.25 16.6172 27.3281 17.2422 27.0938 17.8281L24.5938 24.0781C24.3203 24.8203 23.6172 25.25 22.875 25.25H19.75H7.25C5.84375 25.25 4.75 24.1562 4.75 22.75V10.25C4.75 8.88281 5.84375 7.75 7.25 7.75H11.8203C12.4844 7.75 13.1094 8.02344 13.5781 8.49219L14.6328 9.54688C15.1016 10.0156 15.7266 10.25 16.3906 10.25H21C22.3672 10.25 23.5 11.3828 23.5 12.75V14H22.25V12.75ZM19.75 24H22.875C23.1094 24 23.3438 23.8438 23.4219 23.6094L25.9219 17.3594C26 17.1641 26 16.9688 25.8828 16.7734C25.7656 16.6172 25.5703 16.5 25.375 16.5H9.75C9.47656 16.5 9.24219 16.6562 9.16406 16.9297L6.66406 23.1797C6.58594 23.3359 6.58594 23.5703 6.70312 23.7266C6.82031 23.9219 7.01562 24 7.25 24H19.75Z" fill="black" fill-opacity="0.72"/>
</g>
</svg>
