<svg width="32" height="32" viewBox="0 0 32 32" fill="none" xmlns="http://www.w3.org/2000/svg">
<g id="standalone / md / wifi-md / bold">
<path id="icon" d="M5.02344 13.7656C4.63281 14.1172 4.04688 14.0781 3.73438 13.6875C3.38281 13.2969 3.42188 12.7109 3.8125 12.3594C7.05469 9.50781 11.3125 7.75 16 7.75C20.6484 7.75 24.9062 9.50781 28.1484 12.3594C28.5391 12.7109 28.5781 13.2969 28.2656 13.6875C27.9141 14.0781 27.3281 14.1172 26.9375 13.7656C24.0078 11.1875 20.1797 9.625 16 9.625C11.7812 9.625 7.95312 11.1875 5.02344 13.7656ZM16 16.5C13.4609 16.5 11.1562 17.4766 9.4375 19.0781C9.04688 19.4297 8.46094 19.3906 8.10938 19C7.75781 18.6094 7.79688 18.0234 8.14844 17.6719C10.2188 15.7969 12.9531 14.625 16 14.625C19.0078 14.625 21.7422 15.7969 23.8125 17.6719C24.1641 18.0234 24.2031 18.6094 23.8516 19C23.5 19.3906 22.9141 19.4297 22.5234 19.0781C20.8047 17.4766 18.5 16.5 16 16.5ZM18.1875 23.0625C18.1875 23.8828 17.7578 24.5859 17.0938 24.9766C16.3906 25.3672 15.5703 25.3672 14.9062 24.9766C14.2031 24.5859 13.8125 23.8828 13.8125 23.0625C13.8125 22.2812 14.2031 21.5781 14.9062 21.1875C15.5703 20.7969 16.3906 20.7969 17.0938 21.1875C17.7578 21.5781 18.1875 22.2812 18.1875 23.0625Z" fill="black" fill-opacity="0.72"/>
</g>
</svg>
