<svg width="32" height="32" viewBox="0 0 32 32" fill="none" xmlns="http://www.w3.org/2000/svg">
<g id="standalone / md / circle-arrow-up-md / bold">
<path id="icon" d="M16 8.375C13.0703 8.375 10.4141 9.9375 8.92969 12.4375C7.48438 14.9766 7.48438 18.0625 8.92969 20.5625C10.4141 23.1016 13.0703 24.625 16 24.625C18.8906 24.625 21.5469 23.1016 23.0312 20.5625C24.4766 18.0625 24.4766 14.9766 23.0312 12.4375C21.5469 9.9375 18.8906 8.375 16 8.375ZM16 26.5C12.4062 26.5 9.125 24.625 7.32812 21.5C5.53125 18.4141 5.53125 14.625 7.32812 11.5C9.125 8.41406 12.4062 6.5 16 6.5C19.5547 6.5 22.8359 8.41406 24.6328 11.5C26.4297 14.625 26.4297 18.4141 24.6328 21.5C22.8359 24.625 19.5547 26.5 16 26.5ZM20.1016 15.2109H20.0625C20.4531 15.6016 20.4531 16.1875 20.0625 16.5391C19.7109 16.9297 19.125 16.9297 18.7734 16.5391L16.9375 14.7031V20.5625C16.9375 21.1094 16.5078 21.5 16 21.5C15.4531 21.5 15.0625 21.1094 15.0625 20.5625V14.7031L13.2266 16.5391C12.8359 16.9297 12.25 16.9297 11.8984 16.5391C11.5078 16.1875 11.5078 15.6016 11.8984 15.2109L15.3359 11.7734C15.6875 11.4219 16.2734 11.4219 16.6641 11.7734L20.1016 15.2109Z" fill="black" fill-opacity="0.72"/>
</g>
</svg>
