<svg width="32" height="32" viewBox="0 0 32 32" fill="none" xmlns="http://www.w3.org/2000/svg">
<g id="standalone / md / circle-dollar-md / bold">
<path id="icon" d="M24.125 16.5C24.125 13.6094 22.5625 10.9531 20.0625 9.46875C17.5234 8.02344 14.4375 8.02344 11.9375 9.46875C9.39844 10.9531 7.875 13.6094 7.875 16.5C7.875 19.4297 9.39844 22.0859 11.9375 23.5703C14.4375 25.0156 17.5234 25.0156 20.0625 23.5703C22.5625 22.0859 24.125 19.4297 24.125 16.5ZM6 16.5C6 12.9453 7.875 9.66406 11 7.86719C14.0859 6.07031 17.875 6.07031 21 7.86719C24.0859 9.66406 26 12.9453 26 16.5C26 20.0938 24.0859 23.375 21 25.1719C17.875 26.9688 14.0859 26.9688 11 25.1719C7.875 23.375 6 20.0938 6 16.5ZM16.7812 11.7344V12.2812C17.1719 12.3203 17.5625 12.4375 17.9141 12.5547C17.9922 12.5547 18.0703 12.5938 18.1484 12.5938C18.5781 12.75 18.8516 13.2188 18.7344 13.6484C18.6172 14.1172 18.1484 14.3516 17.6797 14.2344C17.6406 14.2344 17.5625 14.1953 17.5234 14.1953C17.25 14.1172 16.9766 14.0391 16.7031 14C16.1562 13.8828 15.5703 13.9219 15.1016 14.1562C14.6719 14.3125 14.3203 14.7812 14.7891 15.0938C15.1797 15.3281 15.6484 15.4453 16.0781 15.6016C16.1953 15.6016 16.2734 15.6406 16.3516 15.6406C16.9766 15.8359 17.7578 16.0703 18.3438 16.4609C19.0859 16.9688 19.4375 17.8281 19.2812 18.7266C19.125 19.5859 18.5 20.1719 17.7969 20.4844C17.4844 20.6016 17.1328 20.6797 16.7812 20.7188V21.3047C16.7812 21.7734 16.4297 22.1641 15.9609 22.1641C15.4922 22.1641 15.1016 21.7734 15.1016 21.3047V20.6406C14.5547 20.4844 14.0078 20.3281 13.4219 20.1328C12.9922 19.9766 12.7578 19.5078 12.9141 19.0781C13.0703 18.6094 13.5391 18.375 13.9688 18.5312C14.0859 18.5703 14.1641 18.6094 14.2812 18.6484C14.7109 18.7656 15.1406 18.9219 15.6094 19C16.2734 19.1172 16.8203 19.0391 17.1719 18.9219C17.6406 18.7266 17.8359 18.1406 17.3672 17.8281C16.9766 17.5938 16.5078 17.4375 16.0391 17.3203C15.9609 17.2812 15.8438 17.2812 15.7656 17.2422C15.1797 17.0859 14.4375 16.8516 13.8906 16.5C13.1094 16.0312 12.7578 15.2109 12.9141 14.3125C13.0703 13.4531 13.7344 12.9062 14.4375 12.5938C14.6328 12.4766 14.8672 12.4375 15.1016 12.3594V11.7344C15.1016 11.2656 15.4922 10.875 15.9609 10.875C16.4297 10.875 16.7812 11.2656 16.7812 11.7344Z" fill="black" fill-opacity="0.72"/>
</g>
</svg>
