<svg width="32" height="32" viewBox="0 0 32 32" fill="none" xmlns="http://www.w3.org/2000/svg">
<g id="standalone / md / circle-dot-md / fill">
<path id="icon" d="M16 26.5C12.4062 26.5 9.125 24.625 7.32812 21.5C5.53125 18.4141 5.53125 14.625 7.32812 11.5C9.125 8.41406 12.4062 6.5 16 6.5C19.5547 6.5 22.8359 8.41406 24.6328 11.5C26.4297 14.625 26.4297 18.4141 24.6328 21.5C22.8359 24.625 19.5547 26.5 16 26.5ZM16 12.75C14.6328 12.75 13.4219 13.4922 12.7188 14.625C12.0547 15.7969 12.0547 17.2422 12.7188 18.375C13.4219 19.5469 14.6328 20.25 16 20.25C17.3281 20.25 18.5391 19.5469 19.2422 18.375C19.9062 17.2422 19.9062 15.7969 19.2422 14.625C18.5391 13.4922 17.3281 12.75 16 12.75Z" fill="black" fill-opacity="0.72"/>
</g>
</svg>
