<svg width="32" height="32" viewBox="0 0 32 32" fill="none" xmlns="http://www.w3.org/2000/svg">
<g id="standalone / md / gauge-min-md / bold">
<path id="icon" d="M16 8.375C13.0703 8.375 10.4141 9.9375 8.92969 12.4375C7.48438 14.9766 7.48438 18.0625 8.92969 20.5625C10.4141 23.1016 13.0703 24.625 16 24.625C18.8906 24.625 21.5469 23.1016 23.0312 20.5625C24.4766 18.0625 24.4766 14.9766 23.0312 12.4375C21.5469 9.9375 18.8906 8.375 16 8.375ZM16 26.5C12.4062 26.5 9.125 24.625 7.32812 21.5C5.53125 18.4141 5.53125 14.625 7.32812 11.5C9.125 8.41406 12.4062 6.5 16 6.5C19.5547 6.5 22.8359 8.41406 24.6328 11.5C26.4297 14.625 26.4297 18.4141 24.6328 21.5C22.8359 24.625 19.5547 26.5 16 26.5ZM17.25 10.875C17.25 11.5781 16.6641 12.125 16 12.125C15.2969 12.125 14.75 11.5781 14.75 10.875C14.75 10.2109 15.2969 9.625 16 9.625C16.6641 9.625 17.25 10.2109 17.25 10.875ZM16 22.4375V22.4766C14.7891 22.4766 13.8125 21.4609 13.8125 20.2891C13.8125 20.1719 13.8125 20.0547 13.8125 19.9375L9.51562 16.9688C9.08594 16.6953 8.96875 16.1094 9.28125 15.6797C9.55469 15.25 10.1406 15.1328 10.5703 15.4453L14.8672 18.375C15.2188 18.1797 15.5703 18.0625 16 18.0625C17.1719 18.0625 18.1875 19.0781 18.1875 20.25C18.1875 21.4609 17.1719 22.4375 16 22.4375ZM13.5 12.75C13.5 13.4531 12.9141 14 12.25 14C11.5469 14 11 13.4531 11 12.75C11 12.0859 11.5469 11.5 12.25 11.5C12.9141 11.5 13.5 12.0859 13.5 12.75ZM21.625 17.75C20.9219 17.75 20.375 17.2031 20.375 16.5C20.375 15.8359 20.9219 15.25 21.625 15.25C22.2891 15.25 22.875 15.8359 22.875 16.5C22.875 17.2031 22.2891 17.75 21.625 17.75ZM21 12.75C21 13.4531 20.4141 14 19.75 14C19.0469 14 18.5 13.4531 18.5 12.75C18.5 12.0859 19.0469 11.5 19.75 11.5C20.4141 11.5 21 12.0859 21 12.75Z" fill="black" fill-opacity="0.72"/>
</g>
</svg>
