<svg width="32" height="32" viewBox="0 0 32 32" fill="none" xmlns="http://www.w3.org/2000/svg">
<g id="standalone / md / house-user-md / regular">
<path id="icon" d="M15.5703 6.65625C15.8047 6.46094 16.1562 6.46094 16.3906 6.65625L27.0156 16.0312C27.2891 16.2656 27.2891 16.6562 27.0938 16.9297C26.8594 17.2031 26.4688 17.2031 26.1953 16.9688L24.75 15.6797V23.375C24.75 25.1328 23.3438 26.5 21.625 26.5H10.375C8.61719 26.5 7.25 25.1328 7.25 23.375V15.6797L5.76562 16.9688C5.53125 17.2031 5.10156 17.2031 4.90625 16.9297C4.67188 16.6562 4.67188 16.2656 4.94531 16.0312L15.5703 6.65625ZM8.5 14.5859V23.375C8.5 24.4297 9.32031 25.25 10.375 25.25H21.625C22.6406 25.25 23.5 24.4297 23.5 23.375V14.5859L16 7.98438L8.5 14.5859ZM16 16.5C16.6641 16.5 17.25 15.9531 17.25 15.25C17.25 14.5859 16.6641 14 16 14C15.2969 14 14.75 14.5859 14.75 15.25C14.75 15.9531 15.2969 16.5 16 16.5ZM16 12.75C16.8594 12.75 17.6797 13.2578 18.1484 14C18.5781 14.7812 18.5781 15.7578 18.1484 16.5C17.6797 17.2812 16.8594 17.75 16 17.75C15.1016 17.75 14.2812 17.2812 13.8125 16.5C13.3828 15.7578 13.3828 14.7812 13.8125 14C14.2812 13.2578 15.1016 12.75 16 12.75ZM12.875 21.8125V22.125C12.875 22.4766 12.5625 22.75 12.25 22.75C11.8984 22.75 11.625 22.4766 11.625 22.125V21.8125C11.625 20.2891 12.875 19 14.4375 19H17.5625C19.0859 19 20.375 20.2891 20.375 21.8125V22.125C20.375 22.4766 20.0625 22.75 19.75 22.75C19.3984 22.75 19.125 22.4766 19.125 22.125V21.8125C19.125 20.9531 18.4219 20.25 17.5625 20.25H14.4375C13.5391 20.25 12.875 20.9531 12.875 21.8125Z" fill="black" fill-opacity="0.72"/>
</g>
</svg>
