<svg width="32" height="32" viewBox="0 0 32 32" fill="none" xmlns="http://www.w3.org/2000/svg">
<g id="standalone / md / bullhorn-md / bold">
<path id="icon" d="M22.875 9.39062L22.4453 9.82031C20.2188 12.0469 17.25 13.2969 14.125 13.375V18.375V18.4141C17.25 18.4531 20.2188 19.7422 22.4453 21.9688L22.875 22.3984V9.39062ZM12.25 11.5H13.8125C16.5469 11.5 19.1641 10.4453 21.1172 8.49219L22.6016 7.00781C23.3828 6.22656 24.75 6.77344 24.75 7.90625V13.5312C25.4531 13.8828 26 14.8203 26 15.875C26 16.9688 25.4531 17.9062 24.75 18.2578V23.8828C24.75 25.0156 23.3828 25.5625 22.6016 24.7812L21.1172 23.2969C19.2422 21.4219 16.7422 20.3281 14.125 20.2891V24.3125C14.125 25.5234 13.1094 26.5 11.9375 26.5H10.6875C9.47656 26.5 8.5 25.5234 8.5 24.3125V20.25C7.09375 20.25 6 19.1562 6 17.75V14C6 12.6328 7.09375 11.5 8.5 11.5H12.25ZM10.375 20.25V24.3125C10.375 24.5078 10.4922 24.625 10.6875 24.625H11.9375C12.0938 24.625 12.25 24.5078 12.25 24.3125V20.25H10.375ZM8.5 13.375C8.14844 13.375 7.875 13.6875 7.875 14V17.75C7.875 18.1016 8.14844 18.375 8.5 18.375H10.375H12.25V13.375H8.5Z" fill="black" fill-opacity="0.72"/>
</g>
</svg>
