<svg width="32" height="32" viewBox="0 0 32 32" fill="none" xmlns="http://www.w3.org/2000/svg">
<g id="standalone / md / microphone-md / regular">
<path id="icon" d="M18.5 10.25C18.5 8.88281 17.3672 7.75 16 7.75C14.5938 7.75 13.5 8.88281 13.5 10.25V16.5C13.5 17.9062 14.5938 19 16 19C17.3672 19 18.5 17.9062 18.5 16.5V10.25ZM12.25 10.25C12.25 8.17969 13.9297 6.5 16 6.5C18.0703 6.5 19.75 8.17969 19.75 10.25V16.5C19.75 18.5703 18.0703 20.25 16 20.25C13.9297 20.25 12.25 18.5703 12.25 16.5V10.25ZM11 14.625V16.5C11 19.2734 13.2266 21.5 16 21.5C18.7344 21.5 21 19.2734 21 16.5V14.625C21 14.3125 21.2734 14 21.625 14C21.9375 14 22.25 14.3125 22.25 14.625V16.5C22.25 19.7422 19.75 22.4375 16.625 22.75V25.25H19.125C19.4375 25.25 19.75 25.5625 19.75 25.875C19.75 26.2266 19.4375 26.5 19.125 26.5H16H12.875C12.5234 26.5 12.25 26.2266 12.25 25.875C12.25 25.5625 12.5234 25.25 12.875 25.25H15.375V22.75C12.2109 22.4375 9.75 19.7422 9.75 16.5V14.625C9.75 14.3125 10.0234 14 10.375 14C10.6875 14 11 14.3125 11 14.625Z" fill="black" fill-opacity="0.72"/>
</g>
</svg>
