<svg width="32" height="32" viewBox="0 0 32 32" fill="none" xmlns="http://www.w3.org/2000/svg">
<g id="standalone / md / link-md / fill">
<path id="icon" d="M26.1172 16.9688L21.7422 21.3438C19.5547 23.5703 15.9609 23.5703 13.7734 21.3438C11.8203 19.3906 11.5469 16.3438 13.1484 14.0781L13.1875 14.0391C13.6172 13.4531 14.3984 13.3359 14.9453 13.7266C15.4922 14.1172 15.6484 14.8984 15.2188 15.4844L15.1797 15.5234C14.2812 16.7734 14.4375 18.4922 15.5312 19.5859C16.7422 20.8359 18.7344 20.8359 19.9844 19.5859L24.3594 15.2109C25.6094 13.9609 25.6094 11.9688 24.3594 10.7578C23.2656 9.66406 21.5469 9.50781 20.2969 10.4062L20.2578 10.4453C19.6719 10.875 18.8906 10.7188 18.5 10.1719C18.1094 9.625 18.2266 8.84375 18.7734 8.41406L18.8516 8.375C21.1172 6.77344 24.1641 7.04688 26.1172 9C28.3438 11.1875 28.3438 14.7812 26.1172 16.9688ZM5.84375 16.0703L10.2188 11.6562C12.4453 9.46875 16 9.46875 18.2266 11.6562C20.1797 13.6094 20.4141 16.6953 18.8125 18.9609L18.7734 19C18.3828 19.5859 17.5625 19.7031 17.0156 19.3125C16.4688 18.9219 16.3125 18.1406 16.7422 17.5547L16.7812 17.5156C17.6797 16.2266 17.5234 14.5469 16.4297 13.4531C15.2188 12.2031 13.2266 12.2031 11.9766 13.4531L7.60156 17.8281C6.39062 19.0391 6.39062 21.0312 7.60156 22.2812C8.69531 23.375 10.4141 23.5312 11.6641 22.6328L11.7031 22.5938C12.2891 22.1641 13.0703 22.3203 13.4609 22.8672C13.8516 23.4141 13.7344 24.1953 13.1875 24.625L13.1094 24.6641C10.8828 26.2656 7.79688 25.9922 5.84375 24.0391C3.61719 21.8516 3.61719 18.2578 5.84375 16.0703Z" fill="black" fill-opacity="0.72"/>
</g>
</svg>
