<svg width="32" height="32" viewBox="0 0 32 32" fill="none" xmlns="http://www.w3.org/2000/svg">
<g id="standalone / md / paste-md / bold">
<path id="icon" d="M10.0625 8.375C10.2188 7.32031 11.1172 6.5 12.25 6.5C13.3438 6.5 14.2422 7.32031 14.3984 8.375H16C17.1328 8.375 18.1094 9.19531 18.4219 10.25H16C14.8672 10.25 13.8906 10.7578 13.1875 11.5H10.375C9.67188 11.5 9.125 10.9531 9.125 10.25H8.5C8.14844 10.25 7.875 10.5625 7.875 10.875V21.5C7.875 21.8516 8.14844 22.125 8.5 22.125H12.25V24H8.5C7.09375 24 6 22.9062 6 21.5V10.875C6 9.50781 7.09375 8.375 8.5 8.375H10.0625ZM11.625 8.6875C11.625 9.03906 11.8984 9.3125 12.25 9.3125C12.5625 9.3125 12.875 9.03906 12.875 8.6875C12.875 8.375 12.5625 8.0625 12.25 8.0625C11.8984 8.0625 11.625 8.375 11.625 8.6875ZM23.5 24.625C23.8125 24.625 24.125 24.3516 24.125 24V16.0312L21.4688 13.375H16C15.6484 13.375 15.375 13.6875 15.375 14V24C15.375 24.3516 15.6484 24.625 16 24.625H23.5ZM16 26.5C14.5938 26.5 13.5 25.4062 13.5 24V14C13.5 12.6328 14.5938 11.5 16 11.5H21.4688C21.9375 11.5 22.4453 11.7344 22.7969 12.0859L25.4141 14.7031C25.7656 15.0547 26 15.5625 26 16.0312V24C26 25.4062 24.8672 26.5 23.5 26.5H16Z" fill="black" fill-opacity="0.72"/>
</g>
</svg>
