<svg width="32" height="32" viewBox="0 0 32 32" fill="none" xmlns="http://www.w3.org/2000/svg">
<g id="standalone / md / tablet-md / regular">
<path id="icon" d="M9.75 7.75C9.04688 7.75 8.5 8.33594 8.5 9V24C8.5 24.7031 9.04688 25.25 9.75 25.25H22.25C22.9141 25.25 23.5 24.7031 23.5 24V9C23.5 8.33594 22.9141 7.75 22.25 7.75H9.75ZM7.25 9C7.25 7.63281 8.34375 6.5 9.75 6.5H22.25C23.6172 6.5 24.75 7.63281 24.75 9V24C24.75 25.4062 23.6172 26.5 22.25 26.5H9.75C8.34375 26.5 7.25 25.4062 7.25 24V9ZM14.75 22.125H17.25C17.5625 22.125 17.875 22.4375 17.875 22.75C17.875 23.1016 17.5625 23.375 17.25 23.375H14.75C14.3984 23.375 14.125 23.1016 14.125 22.75C14.125 22.4375 14.3984 22.125 14.75 22.125Z" fill="black" fill-opacity="0.72"/>
</g>
</svg>
