<svg width="32" height="32" viewBox="0 0 32 32" fill="none" xmlns="http://www.w3.org/2000/svg">
<g id="standalone / md / window-maximize-md / bold">
<path id="icon" d="M6 10.0156C6.03906 9.66406 6.11719 9.35156 6.27344 9.07812C6.50781 8.6875 6.82031 8.33594 7.25 8.10156C7.52344 7.94531 7.875 7.82812 8.22656 7.78906C8.30469 7.78906 8.38281 7.75 8.5 7.75H23.5C24.8672 7.75 26 8.88281 26 10.25V15.25V22.75C26 24.1562 24.8672 25.25 23.5 25.25H8.5C7.09375 25.25 6 24.1562 6 22.75V15.25V10.25C6 10.1719 6 10.0938 6 10.0156ZM7.875 15.25V22.75C7.875 23.1016 8.14844 23.375 8.5 23.375H23.5C23.8125 23.375 24.125 23.1016 24.125 22.75V15.25H7.875Z" fill="black" fill-opacity="0.72"/>
</g>
</svg>
