<svg width="32" height="32" viewBox="0 0 32 32" fill="none" xmlns="http://www.w3.org/2000/svg">
<g id="standalone / md / handshake-md / regular">
<path id="icon" d="M13.7734 9H14.125L12.7578 10.4062C12.0938 10.5625 11.5078 10.875 10.9609 11.3047L9.39844 12.6328C9.32031 12.7109 9.20312 12.75 9.125 12.75V11.2266L10.1797 10.3281C11.1953 9.46875 12.4844 9 13.7734 9ZM7.875 20.2891V20.875C7.875 21.9297 7.01562 22.75 6 22.75H5.375C4.32031 22.75 3.5 21.9297 3.5 20.875V12.75C3.5 12.0859 4.04688 11.5 4.75 11.5H6.625H7.875V12.75V19.0391C8.5 19.0781 9.125 19.3516 9.55469 19.8203L10.7656 20.9922V20.9531L12.3281 22.5156C12.8359 23.0234 13.6562 23.0625 14.2031 22.5547C14.3203 22.4766 14.4375 22.3203 14.5156 22.2031C14.5938 22.0078 14.7891 21.8906 14.9844 21.8516C15.1797 21.8125 15.375 21.8906 15.4922 22.0469L15.8047 22.3594C16.3125 22.8672 17.1719 22.8281 17.6406 22.2812C17.875 22.0469 17.9922 21.7344 17.9531 21.4219C17.9531 21.1875 18.0703 20.9531 18.2656 20.8359C18.5 20.7188 18.7344 20.7188 18.9297 20.8359C19.3984 21.1484 20.0234 21.1094 20.4531 20.7188C20.9609 20.25 21 19.4297 20.4922 18.9219L17.0938 15.5234L15.375 17.125C14.3984 18.0625 12.875 18.0625 11.8594 17.1641C10.7266 16.1484 10.6875 14.3516 11.7812 13.2969L14.9062 10.3672C15.8438 9.50781 17.0547 9 18.3438 9C19.5156 9 20.6484 9.42969 21.5469 10.2109L22.8359 11.2656V12.75C22.7188 12.75 22.6016 12.7109 22.5234 12.6328L20.7656 11.1484C20.1016 10.5625 19.2422 10.25 18.3438 10.25C17.3672 10.25 16.4688 10.6406 15.7656 11.3047L12.6406 14.2344C12.0938 14.7812 12.0938 15.7188 12.6797 16.2266C13.2266 16.6953 14.0078 16.6953 14.5156 16.2266L17.4844 13.4922C17.7578 13.2578 18.1484 13.2578 18.3828 13.5312C18.6172 13.7656 18.6172 14.1562 18.3438 14.3906L18.0312 14.7031L21.3906 18.0234C21.6641 18.2969 21.8594 18.6484 21.9766 18.9609H24.125V12.7891V11.5391H25.375H27.25C27.9141 11.5391 28.5 12.0859 28.5 12.7891V20.9141C28.5 21.9297 27.6406 22.7891 26.625 22.7891H26C24.9453 22.7891 24.125 21.9297 24.125 20.9141V20.2109H22.0547C21.9766 20.7578 21.7031 21.2656 21.2734 21.6562C20.6484 22.2031 19.8281 22.3984 19.0859 22.2422C18.9688 22.5547 18.8125 22.8672 18.5781 23.1406C17.6797 24.1562 16.1562 24.2344 15.1406 23.4141C15.1016 23.4531 15.0625 23.4922 15.0234 23.4922C14.0078 24.4297 12.4453 24.3906 11.4688 23.4141L10.4922 22.4375L8.69531 20.7188C8.46094 20.4844 8.1875 20.3281 7.875 20.2891ZM6.625 12.75H4.75V20.875C4.75 21.2266 5.02344 21.5 5.375 21.5H6C6.3125 21.5 6.625 21.2266 6.625 20.875V12.75ZM27.25 12.75H25.375V20.875C25.375 21.2266 25.6484 21.5 26 21.5H26.625C26.9375 21.5 27.25 21.2266 27.25 20.875V12.75Z" fill="black" fill-opacity="0.72"/>
</g>
</svg>
