<svg width="32" height="32" viewBox="0 0 32 32" fill="none" xmlns="http://www.w3.org/2000/svg">
<g id="standalone / md / thumbs-up-md / regular">
<path id="icon" d="M17.2891 9.70312L17.0938 10.3281C16.651 11.9427 15.7135 13.2188 14.2812 14.1562L14.1641 14.2344C13.8516 14.4167 13.5911 14.6641 13.3828 14.9766C13.1224 15.263 12.8359 15.3151 12.5234 15.1328C12.2109 14.8984 12.1589 14.612 12.3672 14.2734C12.6536 13.8307 13.0312 13.4661 13.5 13.1797L13.6172 13.1016C14.763 12.3464 15.5182 11.3177 15.8828 10.0156L16.0781 9.35156C16.2604 8.7526 16.599 8.3099 17.0938 8.02344C17.6146 7.73698 18.1745 7.67188 18.7734 7.82812C19.3464 8.01042 19.7891 8.34896 20.1016 8.84375C20.388 9.36458 20.4531 9.92448 20.2969 10.5234L20.1406 11.1484C19.9844 11.6953 19.776 12.2292 19.5156 12.75H23.5C24.2031 12.776 24.7891 13.0234 25.2578 13.4922C25.7266 13.9609 25.974 14.5469 26 15.25C25.974 15.9531 25.7266 16.5391 25.2578 17.0078C25.3359 17.2422 25.375 17.4896 25.375 17.75C25.349 18.5052 25.0755 19.1172 24.5547 19.5859C24.6849 19.8984 24.75 20.224 24.75 20.5625C24.6979 21.526 24.2812 22.2422 23.5 22.7109V22.75C23.474 23.4531 23.2266 24.0391 22.7578 24.5078C22.2891 24.9766 21.7031 25.224 21 25.25H17.4844C16.625 25.25 15.8177 25.0026 15.0625 24.5078L13.5781 23.5312C13.0833 23.1927 12.6667 22.776 12.3281 22.2812C12.1719 21.9427 12.237 21.6562 12.5234 21.4219C12.862 21.2396 13.1484 21.2917 13.3828 21.5781C13.6172 21.9427 13.9167 22.2422 14.2812 22.4766L15.7656 23.4922C16.2865 23.8307 16.8724 24 17.5234 24H21C21.3646 24 21.6641 23.8828 21.8984 23.6484C22.1328 23.4141 22.25 23.1146 22.25 22.75C22.25 22.6458 22.237 22.5547 22.2109 22.4766C22.1849 22.138 22.3281 21.9036 22.6406 21.7734C23.1875 21.5651 23.474 21.1615 23.5 20.5625C23.5 20.276 23.4089 20.0286 23.2266 19.8203C23.1224 19.6641 23.0833 19.4818 23.1094 19.2734C23.1615 19.0911 23.2786 18.9609 23.4609 18.8828C23.8776 18.6484 24.099 18.2708 24.125 17.75C24.125 17.5156 24.0729 17.3073 23.9688 17.125C23.8125 16.8125 23.8776 16.5391 24.1641 16.3047C24.5286 16.0703 24.724 15.7188 24.75 15.25C24.75 14.8854 24.6328 14.5859 24.3984 14.3516C24.1641 14.1172 23.8646 14 23.5 14H18.4609C18.2266 14 18.0443 13.8958 17.9141 13.6875C17.8099 13.4792 17.8229 13.2708 17.9531 13.0625C18.3698 12.3594 18.6953 11.6172 18.9297 10.8359L19.0859 10.1719C19.1901 9.625 18.9688 9.2474 18.4219 9.03906C17.875 8.9349 17.4974 9.15625 17.2891 9.70312ZM7.25 15.25V24H9.75V15.25H7.25ZM6 15.25C6 14.8854 6.11719 14.5859 6.35156 14.3516C6.58594 14.1172 6.88542 14 7.25 14H9.75C10.1146 14 10.4141 14.1172 10.6484 14.3516C10.8828 14.5859 11 14.8854 11 15.25V24C11 24.3646 10.8828 24.6641 10.6484 24.8984C10.4141 25.1328 10.1146 25.25 9.75 25.25H7.25C6.88542 25.25 6.58594 25.1328 6.35156 24.8984C6.11719 24.6641 6 24.3646 6 24V15.25Z" fill="black" fill-opacity="0.72"/>
</g>
</svg>
