<svg width="32" height="32" viewBox="0 0 32 32" fill="none" xmlns="http://www.w3.org/2000/svg">
<g id="standalone / md / qrcode-md / regular">
<path id="icon" d="M12.875 9H9.125C8.77344 9 8.5 9.3125 8.5 9.625V13.375C8.5 13.7266 8.77344 14 9.125 14H12.875C13.1875 14 13.5 13.7266 13.5 13.375V9.625C13.5 9.3125 13.1875 9 12.875 9ZM9.125 7.75H12.875C13.8906 7.75 14.75 8.60938 14.75 9.625V13.375C14.75 14.4297 13.8906 15.25 12.875 15.25H9.125C8.07031 15.25 7.25 14.4297 7.25 13.375V9.625C7.25 8.60938 8.07031 7.75 9.125 7.75ZM12.875 19H9.125C8.77344 19 8.5 19.3125 8.5 19.625V23.375C8.5 23.7266 8.77344 24 9.125 24H12.875C13.1875 24 13.5 23.7266 13.5 23.375V19.625C13.5 19.3125 13.1875 19 12.875 19ZM9.125 17.75H12.875C13.8906 17.75 14.75 18.6094 14.75 19.625V23.375C14.75 24.4297 13.8906 25.25 12.875 25.25H9.125C8.07031 25.25 7.25 24.4297 7.25 23.375V19.625C7.25 18.6094 8.07031 17.75 9.125 17.75ZM19.125 9C18.7734 9 18.5 9.3125 18.5 9.625V13.375C18.5 13.7266 18.7734 14 19.125 14H22.875C23.1875 14 23.5 13.7266 23.5 13.375V9.625C23.5 9.3125 23.1875 9 22.875 9H19.125ZM17.25 9.625C17.25 8.60938 18.0703 7.75 19.125 7.75H22.875C23.8906 7.75 24.75 8.60938 24.75 9.625V13.375C24.75 14.4297 23.8906 15.25 22.875 15.25H19.125C18.0703 15.25 17.25 14.4297 17.25 13.375V9.625ZM17.25 18.375C17.25 18.0625 17.5234 17.75 17.875 17.75H20.375C20.6875 17.75 21 18.0625 21 18.375V21.0312H23.5V18.375C23.5 18.0625 23.7734 17.75 24.125 17.75C24.4375 17.75 24.75 18.0625 24.75 18.375V21.6562C24.75 22.0078 24.4375 22.2812 24.125 22.2812H20.375C20.0234 22.2812 19.75 22.0078 19.75 21.6562V19H18.5V24.9375C18.5 25.2891 18.1875 25.5625 17.875 25.5625C17.5234 25.5625 17.25 25.2891 17.25 24.9375V18.375ZM10.6875 10.5625H11.3125C11.625 10.5625 11.9375 10.875 11.9375 11.1875V11.8125C11.9375 12.1641 11.625 12.4375 11.3125 12.4375H10.6875C10.3359 12.4375 10.0625 12.1641 10.0625 11.8125V11.1875C10.0625 10.875 10.3359 10.5625 10.6875 10.5625ZM10.0625 21.1875C10.0625 20.875 10.3359 20.5625 10.6875 20.5625H11.3125C11.625 20.5625 11.9375 20.875 11.9375 21.1875V21.8125C11.9375 22.1641 11.625 22.4375 11.3125 22.4375H10.6875C10.3359 22.4375 10.0625 22.1641 10.0625 21.8125V21.1875ZM20.6875 10.5625H21.3125C21.625 10.5625 21.9375 10.875 21.9375 11.1875V11.8125C21.9375 12.1641 21.625 12.4375 21.3125 12.4375H20.6875C20.3359 12.4375 20.0625 12.1641 20.0625 11.8125V11.1875C20.0625 10.875 20.3359 10.5625 20.6875 10.5625ZM19.75 24C19.75 23.6875 20.0234 23.375 20.375 23.375H21C21.3125 23.375 21.625 23.6875 21.625 24V24.625C21.625 24.9766 21.3125 25.25 21 25.25H20.375C20.0234 25.25 19.75 24.9766 19.75 24.625V24ZM23.5 23.375H24.125C24.4375 23.375 24.75 23.6875 24.75 24V24.625C24.75 24.9766 24.4375 25.25 24.125 25.25H23.5C23.1484 25.25 22.875 24.9766 22.875 24.625V24C22.875 23.6875 23.1484 23.375 23.5 23.375Z" fill="black" fill-opacity="0.72"/>
</g>
</svg>
