<svg width="32" height="32" viewBox="0 0 32 32" fill="none" xmlns="http://www.w3.org/2000/svg">
<g id="standalone / md / objects-column-md / fill">
<path id="icon" d="M9.125 7.75H12.875C13.8906 7.75 14.75 8.60938 14.75 9.625V15.875C14.75 16.9297 13.8906 17.75 12.875 17.75H9.125C8.07031 17.75 7.25 16.9297 7.25 15.875V9.625C7.25 8.60938 8.07031 7.75 9.125 7.75ZM19.125 15.25H22.875C23.8906 15.25 24.75 16.1094 24.75 17.125V23.375C24.75 24.4297 23.8906 25.25 22.875 25.25H19.125C18.0703 25.25 17.25 24.4297 17.25 23.375V17.125C17.25 16.1094 18.0703 15.25 19.125 15.25ZM7.25 22.125C7.25 21.1094 8.07031 20.25 9.125 20.25H12.875C13.8906 20.25 14.75 21.1094 14.75 22.125V23.375C14.75 24.4297 13.8906 25.25 12.875 25.25H9.125C8.07031 25.25 7.25 24.4297 7.25 23.375V22.125ZM19.125 7.75H22.875C23.8906 7.75 24.75 8.60938 24.75 9.625V10.875C24.75 11.9297 23.8906 12.75 22.875 12.75H19.125C18.0703 12.75 17.25 11.9297 17.25 10.875V9.625C17.25 8.60938 18.0703 7.75 19.125 7.75Z" fill="black" fill-opacity="0.72"/>
</g>
</svg>
