<svg width="32" height="32" viewBox="0 0 32 32" fill="none" xmlns="http://www.w3.org/2000/svg">
<g id="standalone / md / hands-holding-diamond-md / regular">
<path id="icon" d="M16.8594 6.89062L20.6094 10.6406C21.1172 11.1094 21.1172 11.9297 20.6094 12.3984L16.8594 16.1484C16.3906 16.6562 15.5703 16.6562 15.1016 16.1484L11.3516 12.3984C10.8438 11.9297 10.8438 11.1094 11.3516 10.6406L15.1016 6.89062C15.5703 6.38281 16.3906 6.38281 16.8594 6.89062ZM12.25 11.5L16 15.25L19.75 11.5L16 7.75L12.25 11.5ZM6 9C7.36719 9 8.5 10.1328 8.5 11.5V16.3828C8.5 16.5391 8.5 16.7344 8.53906 16.8906C8.61719 16.7734 8.69531 16.6562 8.8125 16.5391C9.67188 15.6797 11.0391 15.6797 11.8984 16.5391L15.4531 20.0938C15.6484 20.3281 15.8438 20.5234 16 20.7578C16.1172 20.5234 16.3125 20.3281 16.5078 20.0938L20.0625 16.5391C20.9219 15.6797 22.2891 15.6797 23.1484 16.5391C23.2656 16.6562 23.3438 16.7734 23.4219 16.8906C23.4609 16.7344 23.5 16.5391 23.5 16.3828V11.5C23.5 10.1328 24.5938 9 26 9C27.3672 9 28.5 10.1328 28.5 11.5V19.9766C28.5 21.1094 28.0312 22.2422 27.2109 23.0625L23.9297 26.3438C23.6953 26.5781 23.2656 26.5781 23.0312 26.3438C22.7969 26.1094 22.7969 25.6797 23.0312 25.4453L26.3125 22.1641C26.8984 21.5781 27.25 20.7969 27.25 19.9766V11.5C27.25 10.8359 26.6641 10.25 26 10.25C25.2969 10.25 24.75 10.8359 24.75 11.5V16.3828C24.75 17.4375 24.3203 18.4531 23.5781 19.1953L23.1484 19.625L21.4297 21.3438L20.8047 21.9688C20.5703 22.2031 20.1406 22.2031 19.9062 21.9688C19.6719 21.7344 19.6719 21.3047 19.9062 21.0703L20.5312 20.4453L22.25 18.7266C22.6016 18.375 22.6016 17.7891 22.25 17.4375C21.8984 17.0859 21.3125 17.0859 20.9609 17.4375L17.4062 20.9922C16.8984 21.5 16.625 22.1641 16.625 22.8672V25.875C16.625 26.2266 16.3125 26.5 16 26.5C15.6484 26.5 15.375 26.2266 15.375 25.875V22.8672C15.375 22.1641 15.0625 21.5 14.5938 20.9922L11 17.4375C10.6484 17.0859 10.0625 17.0859 9.71094 17.4375C9.35938 17.7891 9.35938 18.375 9.71094 18.7266L11.4297 20.4453L12.0547 21.0703C12.2891 21.3047 12.2891 21.7344 12.0547 21.9688C11.8203 22.2031 11.3906 22.2031 11.1562 21.9688L10.5312 21.3438L8.8125 19.625L8.42188 19.1953C7.64062 18.4531 7.25 17.4375 7.25 16.3828V11.5C7.25 10.8359 6.66406 10.25 6 10.25C5.29688 10.25 4.75 10.8359 4.75 11.5V19.9766C4.75 20.7969 5.0625 21.5781 5.64844 22.1641L8.92969 25.4453C9.16406 25.6797 9.16406 26.1094 8.92969 26.3438C8.69531 26.5781 8.26562 26.5781 8.03125 26.3438L4.75 23.0625C3.92969 22.2422 3.5 21.1094 3.5 19.9766V11.5C3.5 10.1328 4.59375 9 6 9Z" fill="black" fill-opacity="0.72"/>
</g>
</svg>
