<svg width="32" height="32" viewBox="0 0 32 32" fill="none" xmlns="http://www.w3.org/2000/svg">
<g id="standalone / md / file-check-md / regular">
<path id="icon" d="M21 25.25C21.6641 25.25 22.25 24.7031 22.25 24V14H17.875C16.8203 14 16 13.1797 16 12.125V7.75H11C10.2969 7.75 9.75 8.33594 9.75 9V24C9.75 24.7031 10.2969 25.25 11 25.25H21ZM17.875 12.75H22.2109C22.1719 12.6719 22.1328 12.5547 22.0547 12.4766L17.5234 7.94531C17.4453 7.86719 17.3281 7.82812 17.25 7.78906V12.125C17.25 12.4766 17.5234 12.75 17.875 12.75ZM11 6.5H17.0938C17.5625 6.5 18.0703 6.73438 18.4219 7.08594L22.9141 11.5781C23.2656 11.9297 23.5 12.4375 23.5 12.9062V24C23.5 25.4062 22.3672 26.5 21 26.5H11C9.59375 26.5 8.5 25.4062 8.5 24V9C8.5 7.63281 9.59375 6.5 11 6.5ZM19.5547 17.9844L15.375 22.1641C15.1406 22.3984 14.75 22.3984 14.5156 22.1641L12.4062 20.0938C12.1719 19.8594 12.1719 19.4297 12.4062 19.1953C12.6406 18.9609 13.0703 18.9609 13.3047 19.1953L14.9453 20.8359L18.6562 17.125C18.8906 16.8906 19.3203 16.8906 19.5547 17.125C19.7891 17.3594 19.7891 17.75 19.5547 17.9844Z" fill="black" fill-opacity="0.72"/>
</g>
</svg>
