<svg width="32" height="32" viewBox="0 0 32 32" fill="none" xmlns="http://www.w3.org/2000/svg">
<g id="standalone / md / two-md / regular">
<path id="icon" d="M15.5312 9C14.3984 9 13.3047 9.46875 12.4844 10.25L11.4297 11.3438C11.1953 11.5781 10.7656 11.5781 10.5312 11.3438C10.2969 11.1094 10.2969 10.6797 10.5312 10.4453L11.625 9.39062C12.6406 8.33594 14.0469 7.75 15.5312 7.75C18.5 7.75 21 10.1719 21 13.1797C21 14.7031 20.375 16.1094 19.2812 17.1641L11.9375 24H21.625C21.9375 24 22.25 24.3125 22.25 24.625C22.25 24.9766 21.9375 25.25 21.625 25.25H10.375C10.1016 25.25 9.86719 25.0938 9.78906 24.8594C9.67188 24.625 9.75 24.3516 9.94531 24.1953L18.4219 16.2266C19.2422 15.4453 19.75 14.3516 19.75 13.1797C19.75 10.875 17.8359 9 15.5312 9Z" fill="black" fill-opacity="0.72"/>
</g>
</svg>
