<svg width="32" height="32" viewBox="0 0 32 32" fill="none" xmlns="http://www.w3.org/2000/svg">
<g id="standalone / md / arrow-down-one-nine-md / regular">
<path id="icon" d="M22.25 8.375V14H23.5C23.8125 14 24.125 14.3125 24.125 14.625C24.125 14.9766 23.8125 15.25 23.5 15.25H21.625H19.75C19.3984 15.25 19.125 14.9766 19.125 14.625C19.125 14.3125 19.3984 14 19.75 14H21V9.27344L19.9453 9.625C19.5938 9.70312 19.2422 9.54688 19.125 9.23438C19.0469 8.88281 19.2031 8.53125 19.5547 8.41406L21.4297 7.78906C21.5859 7.75 21.8203 7.78906 21.9766 7.90625C22.1328 8.02344 22.25 8.17969 22.25 8.41406V8.375ZM11.4297 25.0938C11.1953 25.3281 10.7656 25.3281 10.5312 25.0938L6.78125 21.3438C6.54688 21.1094 6.54688 20.6797 6.78125 20.4453C7.01562 20.2109 7.44531 20.2109 7.67969 20.4453L10.375 23.1406V8.375C10.375 8.0625 10.6484 7.75 11 7.75C11.3125 7.75 11.625 8.0625 11.625 8.375V23.1406L14.2812 20.4453C14.5156 20.2109 14.9453 20.2109 15.1797 20.4453C15.4141 20.6797 15.4141 21.1094 15.1797 21.3438L11.4297 25.0938ZM21.4688 17.75C20.7266 17.75 20.0625 18.1406 19.6719 18.7656C19.3203 19.4297 19.3203 20.1719 19.6719 20.7969C20.0625 21.4609 20.7266 21.8125 21.4688 21.8125C22.1719 21.8125 22.8359 21.4609 23.2266 20.7969C23.5781 20.1719 23.5781 19.4297 23.2266 18.7656C22.8359 18.1406 22.1719 17.75 21.4688 17.75ZM18.1875 19.7812C18.1875 17.9844 19.6328 16.5 21.4688 16.5C23.2656 16.5 24.75 17.9844 24.75 19.7812C24.75 19.8594 24.75 19.8984 24.7109 19.9375H24.75C24.75 20.7969 24.4375 21.5781 23.8906 22.2031L21.4688 25.0547C21.2344 25.3281 20.8438 25.3281 20.5703 25.1328C20.2969 24.8984 20.2969 24.5078 20.4922 24.2344L21.5078 23.0625C21.4688 23.0625 21.4688 23.0625 21.4688 23.0625C19.6328 23.0625 18.1875 21.6172 18.1875 19.7812Z" fill="black" fill-opacity="0.72"/>
</g>
</svg>
