<svg width="32" height="32" viewBox="0 0 32 32" fill="none" xmlns="http://www.w3.org/2000/svg">
<g id="standalone / md / one-md / regular">
<path id="icon" d="M16.625 8.375V24H20.375C20.6875 24 21 24.3125 21 24.625C21 24.9766 20.6875 25.25 20.375 25.25H16H11.625C11.2734 25.25 11 24.9766 11 24.625C11 24.3125 11.2734 24 11.625 24H15.375V9.54688L12.5625 11.4219C12.2891 11.6172 11.8984 11.5391 11.7031 11.2266C11.5078 10.9531 11.5859 10.5625 11.8984 10.3672L15.6484 7.86719C15.8438 7.75 16.0781 7.75 16.2734 7.82812C16.4688 7.94531 16.625 8.17969 16.625 8.375Z" fill="black" fill-opacity="0.72"/>
</g>
</svg>
