<svg width="32" height="32" viewBox="0 0 32 32" fill="none" xmlns="http://www.w3.org/2000/svg">
<g id="standalone / md / circle-exclamation-md / fill">
<path id="icon" d="M16 26.5C12.4062 26.5 9.125 24.625 7.32812 21.5C5.53125 18.4141 5.53125 14.625 7.32812 11.5C9.125 8.41406 12.4062 6.5 16 6.5C19.5547 6.5 22.8359 8.41406 24.6328 11.5C26.4297 14.625 26.4297 18.4141 24.6328 21.5C22.8359 24.625 19.5547 26.5 16 26.5ZM16 11.5C15.4531 11.5 15.0625 11.9297 15.0625 12.4375V16.8125C15.0625 17.3594 15.4531 17.75 16 17.75C16.5078 17.75 16.9375 17.3594 16.9375 16.8125V12.4375C16.9375 11.9297 16.5078 11.5 16 11.5ZM14.75 20.25C14.75 20.9531 15.2969 21.5 16 21.5C16.6641 21.5 17.25 20.9531 17.25 20.25C17.25 19.5859 16.6641 19 16 19C15.2969 19 14.75 19.5859 14.75 20.25Z" fill="black" fill-opacity="0.72"/>
</g>
</svg>
