<svg width="32" height="32" viewBox="0 0 32 32" fill="none" xmlns="http://www.w3.org/2000/svg">
<g id="standalone / md / ellipsis-vertical-md / regular">
<path id="icon" d="M16 21.5C16.6641 21.5 17.25 22.0859 17.25 22.75C17.25 23.4531 16.6641 24 16 24C15.2969 24 14.75 23.4531 14.75 22.75C14.75 22.0859 15.2969 21.5 16 21.5ZM16 15.25C16.6641 15.25 17.25 15.8359 17.25 16.5C17.25 17.2031 16.6641 17.75 16 17.75C15.2969 17.75 14.75 17.2031 14.75 16.5C14.75 15.8359 15.2969 15.25 16 15.25ZM17.25 10.25C17.25 10.9531 16.6641 11.5 16 11.5C15.2969 11.5 14.75 10.9531 14.75 10.25C14.75 9.58594 15.2969 9 16 9C16.6641 9 17.25 9.58594 17.25 10.25Z" fill="black" fill-opacity="0.72"/>
</g>
</svg>
