<svg width="32" height="32" viewBox="0 0 32 32" fill="none" xmlns="http://www.w3.org/2000/svg">
<g id="standalone / md / four-md / regular">
<path id="icon" d="M15.2969 8.6875L10.1016 19H19.75V12.125C19.75 11.8125 20.0234 11.5 20.375 11.5C20.6875 11.5 21 11.8125 21 12.125V19H22.875C23.1875 19 23.5 19.3125 23.5 19.625C23.5 19.9766 23.1875 20.25 22.875 20.25H21V24.625C21 24.9766 20.6875 25.25 20.375 25.25C20.0234 25.25 19.75 24.9766 19.75 24.625V20.2891H9.08594C8.89062 20.2891 8.69531 20.1719 8.57812 19.9766C8.46094 19.7812 8.46094 19.5469 8.53906 19.3516L14.1641 8.10156C14.3203 7.78906 14.7109 7.67188 15.0234 7.82812C15.3359 7.98438 15.4531 8.375 15.2969 8.6875Z" fill="black" fill-opacity="0.72"/>
</g>
</svg>
