<svg width="32" height="32" viewBox="0 0 32 32" fill="none" xmlns="http://www.w3.org/2000/svg">
<g id="standalone / md / circle-user-md / bold">
<path id="icon" d="M21.8594 22.125C23.2656 20.6797 24.125 18.6875 24.125 16.5C24.125 12.0469 20.4531 8.375 16 8.375C11.5078 8.375 7.875 12.0469 7.875 16.5C7.875 18.6875 8.69531 20.6797 10.1016 22.125C10.8438 20.2891 12.6406 19 14.75 19H17.25C19.3203 19 21.1172 20.2891 21.8594 22.125ZM20.2969 23.4141C20.0234 21.9688 18.7344 20.875 17.25 20.875H14.75C13.2266 20.875 11.9375 21.9688 11.6641 23.4141C12.9141 24.1953 14.3984 24.625 16 24.625C17.5625 24.625 19.0469 24.1953 20.2969 23.4141ZM16 26.5C12.4062 26.5 9.125 24.625 7.32812 21.5C5.53125 18.4141 5.53125 14.625 7.32812 11.5C9.125 8.41406 12.4062 6.5 16 6.5C19.5547 6.5 22.8359 8.41406 24.6328 11.5C26.4297 14.625 26.4297 18.4141 24.6328 21.5C22.8359 24.625 19.5547 26.5 16 26.5ZM16 15.875C16.5469 15.875 17.0547 15.6016 17.3281 15.0938C17.6016 14.625 17.6016 14.0391 17.3281 13.5312C17.0547 13.0625 16.5469 12.75 16 12.75C15.4141 12.75 14.9062 13.0625 14.6328 13.5312C14.3594 14.0391 14.3594 14.625 14.6328 15.0938C14.9062 15.6016 15.4141 15.875 16 15.875ZM12.5625 14.3125C12.5625 13.1016 13.1875 11.9688 14.2812 11.3438C15.3359 10.7578 16.625 10.7578 17.7188 11.3438C18.7734 11.9688 19.4375 13.1016 19.4375 14.3125C19.4375 15.5625 18.7734 16.6953 17.7188 17.3203C16.625 17.9062 15.3359 17.9062 14.2812 17.3203C13.1875 16.6953 12.5625 15.5625 12.5625 14.3125Z" fill="black" fill-opacity="0.72"/>
</g>
</svg>
