<svg width="32" height="32" viewBox="0 0 32 32" fill="none" xmlns="http://www.w3.org/2000/svg">
<g id="standalone / md / arrow-down-to-bracket-md / regular">
<path id="icon" d="M21.4297 15.0938L16.4297 20.0938C16.1953 20.3281 15.7656 20.3281 15.5312 20.0938L10.5312 15.0938C10.2969 14.8594 10.2969 14.4297 10.5312 14.1953C10.7656 13.9609 11.1953 13.9609 11.4297 14.1953L15.375 18.1406V7.125C15.375 6.8125 15.6484 6.5 16 6.5C16.3125 6.5 16.625 6.8125 16.625 7.125V18.1406L20.5312 14.1953C20.7656 13.9609 21.1953 13.9609 21.4297 14.1953C21.6641 14.4297 21.6641 14.8594 21.4297 15.0938ZM8.5 19.625V23.375C8.5 24.4297 9.32031 25.25 10.375 25.25H21.625C22.6406 25.25 23.5 24.4297 23.5 23.375V19.625C23.5 19.3125 23.7734 19 24.125 19C24.4375 19 24.75 19.3125 24.75 19.625V23.375C24.75 25.1328 23.3438 26.5 21.625 26.5H10.375C8.61719 26.5 7.25 25.1328 7.25 23.375V19.625C7.25 19.3125 7.52344 19 7.875 19C8.1875 19 8.5 19.3125 8.5 19.625Z" fill="black" fill-opacity="0.72"/>
</g>
</svg>
