<svg width="32" height="32" viewBox="0 0 32 32" fill="none" xmlns="http://www.w3.org/2000/svg">
<g id="standalone / md / square-check-md / bold">
<path id="icon" d="M9.75 9.625C9.39844 9.625 9.125 9.9375 9.125 10.25V22.75C9.125 23.1016 9.39844 23.375 9.75 23.375H22.25C22.5625 23.375 22.875 23.1016 22.875 22.75V10.25C22.875 9.9375 22.5625 9.625 22.25 9.625H9.75ZM7.25 10.25C7.25 8.88281 8.34375 7.75 9.75 7.75H22.25C23.6172 7.75 24.75 8.88281 24.75 10.25V22.75C24.75 24.1562 23.6172 25.25 22.25 25.25H9.75C8.34375 25.25 7.25 24.1562 7.25 22.75V10.25ZM20.4141 14.6641L15.4141 19.6641C15.0234 20.0547 14.4375 20.0547 14.0859 19.6641L11.5859 17.1641C11.1953 16.8125 11.1953 16.2266 11.5859 15.875C11.9375 15.4844 12.5234 15.4844 12.9141 15.875L14.75 17.7109L19.0859 13.3359C19.4375 12.9844 20.0234 12.9844 20.375 13.3359C20.7656 13.7266 20.7656 14.3125 20.375 14.6641H20.4141Z" fill="black" fill-opacity="0.72"/>
</g>
</svg>
