<svg width="32" height="32" viewBox="0 0 32 32" fill="none" xmlns="http://www.w3.org/2000/svg">
<g id="standalone / md / language-md / regular">
<path id="icon" d="M15.375 10.25H6C5.29688 10.25 4.75 10.8359 4.75 11.5V21.5C4.75 22.2031 5.29688 22.75 6 22.75H15.375V10.25ZM16.625 10.25V22.75H26C26.6641 22.75 27.25 22.2031 27.25 21.5V11.5C27.25 10.8359 26.6641 10.25 26 10.25H16.625ZM28.5 11.5V21.5C28.5 22.9062 27.3672 24 26 24H6C4.59375 24 3.5 22.9062 3.5 21.5V11.5C3.5 10.1328 4.59375 9 6 9H26C27.3672 9 28.5 10.1328 28.5 11.5ZM10.2969 13.1797L12.7969 19.4297C12.9531 19.7422 12.7969 20.0938 12.4453 20.2109C12.1328 20.3672 11.7812 20.2109 11.6641 19.8594L11.3125 19.0391H8.14844L7.79688 19.8594C7.67969 20.2109 7.32812 20.3672 7.01562 20.2109C6.66406 20.0938 6.50781 19.7422 6.66406 19.4297L9.16406 13.1797C9.24219 12.9062 9.47656 12.75 9.75 12.75C9.98438 12.75 10.2188 12.9062 10.2969 13.1797ZM9.75 15.0938L8.65625 17.75H10.8047L9.75 15.0938ZM22.875 13.375V14H24.75H25.375C25.6875 14 26 14.3125 26 14.625C26 14.9766 25.6875 15.25 25.375 15.25H25.1797L25.0234 15.7188C24.6328 16.7344 24.0469 17.6719 23.3047 18.4141C23.4219 18.4922 23.5391 18.5703 23.6953 18.6484L24.4375 19.1172C24.7109 19.2734 24.8281 19.6641 24.6328 19.9766C24.4766 20.25 24.0859 20.3672 23.7734 20.1719L23.0312 19.7422C22.7969 19.5859 22.5625 19.4297 22.3281 19.2344C22.0156 19.4688 21.6641 19.6641 21.3125 19.8594L20.6484 20.2109C20.3359 20.3672 19.9453 20.2109 19.7891 19.8984C19.6328 19.625 19.7891 19.2344 20.0625 19.0781L20.7656 18.7266C20.9609 18.6484 21.1562 18.5312 21.3516 18.4141L20.5312 17.5938C20.2969 17.3203 20.2969 16.9297 20.5312 16.6953C20.8047 16.4609 21.1953 16.4609 21.4297 16.6953L22.3281 17.5938C22.9922 16.9688 23.5 16.1875 23.8516 15.2891V15.25H22.25H19.125C18.7734 15.25 18.5 14.9766 18.5 14.625C18.5 14.3125 18.7734 14 19.125 14H21.625V13.375C21.625 13.0625 21.8984 12.75 22.25 12.75C22.5625 12.75 22.875 13.0625 22.875 13.375Z" fill="black" fill-opacity="0.72"/>
</g>
</svg>
