<svg width="32" height="32" viewBox="0 0 32 32" fill="none" xmlns="http://www.w3.org/2000/svg">
<g id="standalone / md / chevrons-down-md / bold">
<path id="icon" d="M15.3359 24.6641L7.83594 17.1641C7.44531 16.8125 7.44531 16.2266 7.83594 15.8359C8.1875 15.4844 8.77344 15.4844 9.16406 15.8359L16 22.7109L22.8359 15.875C23.1875 15.4844 23.7734 15.4844 24.1641 15.875C24.5156 16.2266 24.5156 16.8125 24.1641 17.1641L16.625 24.6641C16.2734 25.0547 15.6875 25.0547 15.3359 24.6641ZM7.83594 9.66406C7.44531 9.3125 7.44531 8.72656 7.83594 8.33594C8.1875 7.98438 8.77344 7.98438 9.16406 8.33594L16 15.2109L22.8359 8.375C23.1875 7.98438 23.7734 7.98438 24.1641 8.375C24.5156 8.72656 24.5156 9.3125 24.1641 9.66406L16.625 17.1641C16.2734 17.5547 15.6875 17.5547 15.3359 17.1641L7.83594 9.66406Z" fill="black" fill-opacity="0.72"/>
</g>
</svg>
