<svg width="32" height="32" viewBox="0 0 32 32" fill="none" xmlns="http://www.w3.org/2000/svg">
<g id="standalone / md / user-slash-md / regular">
<path id="icon" d="M21.5 11.5C21.5 13.2188 20.6406 14.7031 19.3516 15.6016L18.3359 14.7812C19.4688 14.1562 20.25 12.9062 20.25 11.5C20.25 9.42969 18.5703 7.75 16.5 7.75C14.7812 7.75 13.3359 8.92188 12.8672 10.4844L11.8516 9.66406C12.5547 7.82812 14.3906 6.5 16.5 6.5C19.2344 6.5 21.5 8.76562 21.5 11.5ZM23.5312 25.25L24.7812 26.2656C24.5859 26.4219 24.3516 26.5 24.0781 26.5H8.88281C8.25781 26.5 7.75 25.9922 7.75 25.3672C7.75 21.5 10.8359 18.375 14.7031 18.375H14.8203L16.4219 19.625H14.7031C11.5781 19.625 9.03906 22.1641 9 25.25H23.5312ZM4.97656 6.65625L28.7656 25.4062C29 25.6016 29.0781 26.0312 28.8438 26.2656C28.6484 26.5391 28.2578 26.6172 27.9844 26.3828L4.23438 7.63281C3.96094 7.4375 3.88281 7.00781 4.11719 6.77344C4.3125 6.5 4.74219 6.42188 4.97656 6.65625Z" fill="black" fill-opacity="0.72"/>
</g>
</svg>
