<svg width="32" height="32" viewBox="0 0 32 32" fill="none" xmlns="http://www.w3.org/2000/svg">
<g id="standalone / md / square-minus-md / fill">
<path id="icon" d="M9.75 7.75H22.25C23.6172 7.75 24.75 8.88281 24.75 10.25V22.75C24.75 24.1562 23.6172 25.25 22.25 25.25H9.75C8.34375 25.25 7.25 24.1562 7.25 22.75V10.25C7.25 8.88281 8.34375 7.75 9.75 7.75ZM13.1875 15.5625C12.6406 15.5625 12.25 15.9922 12.25 16.5C12.25 17.0469 12.6406 17.4375 13.1875 17.4375H18.8125C19.3203 17.4375 19.75 17.0469 19.75 16.5C19.75 15.9922 19.3203 15.5625 18.8125 15.5625H13.1875Z" fill="black" fill-opacity="0.72"/>
</g>
</svg>
