<svg width="32" height="32" viewBox="0 0 32 32" fill="none" xmlns="http://www.w3.org/2000/svg">
<g id="standalone / md / circle-one-md / regular">
<path id="icon" d="M24.75 16.5C24.75 13.375 23.0703 10.5234 20.375 8.96094C17.6406 7.35938 14.3203 7.35938 11.625 8.96094C8.89062 10.5234 7.25 13.375 7.25 16.5C7.25 19.6641 8.89062 22.5156 11.625 24.0781C14.3203 25.6797 17.6406 25.6797 20.375 24.0781C23.0703 22.5156 24.75 19.6641 24.75 16.5ZM6 16.5C6 12.9453 7.875 9.66406 11 7.86719C14.0859 6.07031 17.875 6.07031 21 7.86719C24.0859 9.66406 26 12.9453 26 16.5C26 20.0938 24.0859 23.375 21 25.1719C17.875 26.9688 14.0859 26.9688 11 25.1719C7.875 23.375 6 20.0938 6 16.5ZM16.3125 11.6172C16.4688 11.7344 16.625 11.9297 16.625 12.125V20.25H18.5C18.8125 20.25 19.125 20.5625 19.125 20.875C19.125 21.2266 18.8125 21.5 18.5 21.5H16H13.5C13.1484 21.5 12.875 21.2266 12.875 20.875C12.875 20.5625 13.1484 20.25 13.5 20.25H15.375V13.2188L14.0859 13.9219C13.8125 14.1172 13.4219 14 13.2656 13.6875C13.0703 13.4141 13.1875 13.0234 13.5 12.8672L15.6875 11.6172C15.8828 11.5 16.1172 11.5 16.3125 11.6172Z" fill="black" fill-opacity="0.72"/>
</g>
</svg>
