<svg width="32" height="32" viewBox="0 0 32 32" fill="none" xmlns="http://www.w3.org/2000/svg">
<g id="standalone / md / user-plus-md / fill">
<path id="icon" d="M7.25 11.5C7.25 9.74219 8.1875 8.10156 9.75 7.20312C11.2734 6.30469 13.1875 6.30469 14.75 7.20312C16.2734 8.10156 17.25 9.74219 17.25 11.5C17.25 13.2969 16.2734 14.9375 14.75 15.8359C13.1875 16.7344 11.2734 16.7344 9.75 15.8359C8.1875 14.9375 7.25 13.2969 7.25 11.5ZM3.5 25.3672C3.5 21.5 6.58594 18.375 10.4531 18.375H14.0078C17.875 18.375 21 21.5 21 25.3672C21 25.9922 20.4531 26.5 19.8281 26.5H4.63281C4.00781 26.5 3.5 25.9922 3.5 25.3672ZM23.1875 18.6875V16.1875H20.6875C20.1406 16.1875 19.75 15.7969 19.75 15.25C19.75 14.7422 20.1406 14.3125 20.6875 14.3125H23.1875V11.8125C23.1875 11.3047 23.5781 10.875 24.125 10.875C24.6328 10.875 25.0625 11.3047 25.0625 11.8125V14.3125H27.5625C28.0703 14.3125 28.5 14.7422 28.5 15.25C28.5 15.7969 28.0703 16.1875 27.5625 16.1875H25.0625V18.6875C25.0625 19.2344 24.6328 19.625 24.125 19.625C23.5781 19.625 23.1875 19.2344 23.1875 18.6875Z" fill="black" fill-opacity="0.72"/>
</g>
</svg>
