<svg width="32" height="32" viewBox="0 0 32 32" fill="none" xmlns="http://www.w3.org/2000/svg">
<g id="standalone / md / memo-pad-md / regular">
<path id="icon" d="M8.5 11.5V24C8.5 24.7031 9.04688 25.25 9.75 25.25H22.25C22.9141 25.25 23.5 24.7031 23.5 24V11.5H8.5ZM8.5 10.25H23.5V9C23.5 8.33594 22.9141 7.75 22.25 7.75H9.75C9.04688 7.75 8.5 8.33594 8.5 9V10.25ZM24.75 9V10.25V10.875V11.5V24C24.75 25.4062 23.6172 26.5 22.25 26.5H9.75C8.34375 26.5 7.25 25.4062 7.25 24V11.5V10.875V10.25V9C7.25 7.63281 8.34375 6.5 9.75 6.5H22.25C23.6172 6.5 24.75 7.63281 24.75 9ZM11.625 14H20.375C20.6875 14 21 14.3125 21 14.625C21 14.9766 20.6875 15.25 20.375 15.25H11.625C11.2734 15.25 11 14.9766 11 14.625C11 14.3125 11.2734 14 11.625 14ZM11.625 17.75H20.375C20.6875 17.75 21 18.0625 21 18.375C21 18.7266 20.6875 19 20.375 19H11.625C11.2734 19 11 18.7266 11 18.375C11 18.0625 11.2734 17.75 11.625 17.75ZM11.625 21.5H16.625C16.9375 21.5 17.25 21.8125 17.25 22.125C17.25 22.4766 16.9375 22.75 16.625 22.75H11.625C11.2734 22.75 11 22.4766 11 22.125C11 21.8125 11.2734 21.5 11.625 21.5Z" fill="black" fill-opacity="0.72"/>
</g>
</svg>
