<svg width="32" height="32" viewBox="0 0 32 32" fill="none" xmlns="http://www.w3.org/2000/svg">
<g id="standalone / md / deriv-brand-logo-md / regular">
<path id="icon" d="M20.6562 21.5781C20.2266 24 17.9219 25.9531 15.5 25.9531H12.8828C11.2422 25.9531 9.83594 25.2891 8.9375 24.1562C8 23.0625 7.60938 21.5391 7.88281 19.8984L8.11719 18.6875C8.66406 15.4453 11.7109 12.8672 14.9531 12.8672H17.5703L18.3906 8.25781L18.4688 7.82812L23.1953 7.04688L20.6562 21.5781ZM19.5234 8.92188L18.7031 13.6094L18.625 14.1172H14.9531C12.4141 14.1172 9.95312 16.1094 9.40625 18.6484L9.36719 18.8828L9.13281 20.1328C8.89844 21.4219 9.21094 22.5547 9.875 23.375C10.5391 24.1562 11.5938 24.7031 12.8828 24.7031H15.5C17.2969 24.7031 19.0938 23.1797 19.4062 21.3438L21.6719 8.57031L19.5234 8.92188ZM18.2734 15.9922L18.1562 16.7344L17.375 21.0703C17.2188 22.0078 16.3984 22.7891 15.4219 22.7891H13.8203C13 22.7891 12.2578 22.4375 11.7891 21.8906C11.2812 21.3047 11.0859 20.5234 11.2422 19.6641L11.3594 18.9219L11.4375 18.6094C11.8281 17.125 13.2734 15.9922 14.7969 15.9922H18.2734ZM14.7969 17.2422C13.7812 17.2422 12.8047 18.1016 12.6094 19.1172L12.4531 19.8984C12.375 20.4062 12.4922 20.7969 12.7266 21.0703C12.9609 21.3438 13.3516 21.5391 13.8203 21.5391H15.4219C15.7344 21.5391 16.0859 21.2656 16.1641 20.875L16.7891 17.2422H14.7969Z" fill="black" fill-opacity="0.72"/>
</g>
</svg>
