<svg width="32" height="32" viewBox="0 0 32 32" fill="none" xmlns="http://www.w3.org/2000/svg">
<g id="standalone / md / passkey-md / regular">
<path id="icon" d="M13.3828 17.125C13.9688 17.0469 14.5547 17.0078 15.1406 17.0078C15.4531 17.0078 15.7656 17.0078 16.0391 17.0469C16.3516 17.0469 16.625 17.0859 16.9375 17.125C16.9375 17.125 16.9375 17.125 16.9766 17.125C16.8984 18.0234 17.0547 18.8828 17.4453 19.7031C17.875 20.4844 18.4609 21.1484 19.2031 21.6172V24.2344H7.75781V21.1484C7.75781 20.5625 7.91406 20.0156 8.26562 19.5078C8.57812 19 8.96875 18.6094 9.51562 18.3359C10.4141 17.9062 11.3125 17.5547 12.2891 17.3594C12.6406 17.2422 13.0312 17.1641 13.3828 17.125ZM9.32031 20.1719L15.7266 18.2578C15.5312 18.2578 15.3359 18.2578 15.1406 18.2578C14.2812 18.2578 13.4219 18.3359 12.5625 18.5703C11.7031 18.7656 10.8828 19.0781 10.0625 19.4688C9.75 19.625 9.51562 19.8594 9.32031 20.1719ZM15.7266 18.2578L9.32031 20.1719C9.125 20.4844 9.00781 20.7969 9.00781 21.1484V22.9844H17.9531V22.2422C17.2891 21.7344 16.7422 21.0312 16.3516 20.25C16.0391 19.625 15.8047 18.9609 15.7266 18.2578ZM13.5391 15.8359C13.0703 15.6406 12.6797 15.3672 12.2891 14.9766C11.5078 14.1953 11.1172 13.2188 11.1172 12.125C11.1172 11.0312 11.5078 10.0547 12.2891 9.27344C13.0703 8.49219 14.0469 8.10156 15.1406 8.10156C16.2734 8.10156 17.2109 8.49219 17.9922 9.27344C18.8125 10.0547 19.2031 11.0312 19.2031 12.125C19.2031 13.2188 18.8125 14.1953 17.9922 14.9766C17.6406 15.3672 17.2109 15.6406 16.7812 15.8359C16.5469 15.9141 16.3516 15.9922 16.1172 16.0703C15.8047 16.1094 15.4922 16.1484 15.1406 16.1484C14.5547 16.1484 14.0469 16.0703 13.5391 15.8359ZM13.1875 14.0781C13.7344 14.6641 14.3594 14.8984 15.1406 14.8984C15.9219 14.8984 16.5469 14.6641 17.1328 14.0781C17.6797 13.5312 17.9531 12.9062 17.9531 12.125C17.9531 11.3438 17.6797 10.7188 17.1328 10.1719C16.5469 9.625 15.9219 9.35156 15.1406 9.35156C14.3594 9.35156 13.7344 9.625 13.1875 10.1719C12.6016 10.7188 12.3672 11.3438 12.3672 12.125C12.3672 12.9062 12.6016 13.5312 13.1875 14.0781ZM22.2891 26.2266L24.125 24.3906L22.7188 23.0234L24.125 21.6562L22.9922 20.4844C23.6172 20.25 24.0859 19.8594 24.4766 19.3516C24.8281 18.8047 25.0234 18.2188 25.0234 17.5156C25.0234 16.6562 24.7109 15.875 24.0859 15.25C23.4609 14.625 22.7188 14.3125 21.8203 14.3125C20.9219 14.3125 20.1797 14.625 19.5547 15.25C18.9297 15.875 18.6172 16.6172 18.6172 17.5156C18.6172 18.2578 18.8125 18.8828 19.2422 19.4688C19.6719 20.0156 20.2188 20.4062 20.8828 20.6016V24.8594L22.2891 26.2266ZM21.8203 17.9844C21.4688 17.9844 21.1562 17.8281 20.9609 17.5547C20.8047 17.2422 20.8047 16.8906 20.9609 16.5781C21.1562 16.3047 21.4688 16.1094 21.8203 16.1484C22.1719 16.1094 22.4844 16.3047 22.6406 16.5781C22.8359 16.8906 22.8359 17.2422 22.6406 17.5547C22.4844 17.8281 22.1719 17.9844 21.8203 17.9844Z" fill="black" fill-opacity="0.72"/>
</g>
</svg>
