<svg width="32" height="32" viewBox="0 0 32 32" fill="none" xmlns="http://www.w3.org/2000/svg">
<g id="standalone / md / house-blank-md / fill">
<path id="icon" d="M27.2109 16.5C27.2109 17.2031 26.625 17.75 25.9609 17.75H24.7109L24.75 24C24.75 25.4062 23.6562 26.5391 22.25 26.5391H9.75C8.34375 26.5391 7.25 25.4062 7.25 24.0391V17.75H6C5.29688 17.75 4.75 17.2031 4.75 16.5C4.75 16.1484 4.86719 15.8359 5.14062 15.5625L15.1406 6.8125C15.4141 6.53906 15.7266 6.5 16 6.5C16.2734 6.5 16.5859 6.57812 16.8203 6.77344L26.7812 15.5625C27.0938 15.8359 27.25 16.1484 27.2109 16.5Z" fill="black" fill-opacity="0.72"/>
</g>
</svg>
