<svg width="32" height="32" viewBox="0 0 32 32" fill="none" xmlns="http://www.w3.org/2000/svg">
<g id="standalone / md / circle-sort-down-md / fill">
<path id="icon" d="M26 16.5C26 20.0938 24.0859 23.375 21 25.1719C17.875 26.9688 14.0859 26.9688 11 25.1719C7.875 23.375 6 20.0938 6 16.5C6 12.9453 7.875 9.66406 11 7.86719C14.0859 6.07031 17.875 6.07031 21 7.86719C24.0859 9.66406 26 12.9453 26 16.5ZM16.4297 22.5938L20.1797 18.8438C20.3359 18.6484 20.4141 18.375 20.2969 18.1406C20.2188 17.9062 19.9844 17.75 19.75 17.75H12.25C11.9766 17.75 11.7422 17.9062 11.6641 18.1406C11.5469 18.375 11.625 18.6484 11.7812 18.8438L15.5312 22.5938C15.7656 22.8281 16.1953 22.8281 16.4297 22.5938ZM16.4297 10.4453C16.1953 10.2109 15.7656 10.2109 15.5312 10.4453L11.7812 14.1953C11.625 14.3906 11.5469 14.6641 11.6641 14.8984C11.7422 15.1328 11.9766 15.25 12.25 15.25H19.75C19.9844 15.25 20.2188 15.0938 20.2969 14.8984C20.4141 14.6641 20.3359 14.3906 20.1797 14.1953L16.4297 10.4453ZM18.2266 14H13.7344L16 11.7734L18.2266 14Z" fill="black" fill-opacity="0.72"/>
</g>
</svg>
