<svg width="32" height="32" viewBox="0 0 32 32" fill="none" xmlns="http://www.w3.org/2000/svg">
<g id="standalone / md / folder-open-md / bold">
<path id="icon" d="M19.75 25.25H8.14844H7.25C5.84375 25.25 4.75 24.1562 4.75 22.75V10.25C4.75 8.88281 5.84375 7.75 7.25 7.75H11.8203C12.4844 7.75 13.1094 8.02344 13.5781 8.49219L14.6328 9.54688C15.1016 10.0156 15.7266 10.25 16.3906 10.25H21C22.3672 10.25 23.5 11.3828 23.5 12.75V14H21.625V12.75C21.625 12.4375 21.3125 12.125 21 12.125H16.3906C15.2188 12.125 14.125 11.6953 13.3047 10.875L12.25 9.82031C12.1328 9.70312 11.9766 9.625 11.8203 9.625H7.25C6.89844 9.625 6.625 9.9375 6.625 10.25V20.4844L9.28125 15.875C9.51562 15.4844 9.90625 15.25 10.375 15.25H26C26.4297 15.25 26.8594 15.4844 27.0547 15.875C27.2891 16.2656 27.2891 16.7734 27.0547 17.1641L22.6797 24.6641C22.4453 25.0156 22.0547 25.25 21.625 25.25H19.75Z" fill="black" fill-opacity="0.72"/>
</g>
</svg>
