<svg width="32" height="32" viewBox="0 0 32 32" fill="none" xmlns="http://www.w3.org/2000/svg">
<g id="standalone / md / pen-circle-md / bold">
<path id="icon" d="M24.125 16.5C24.125 13.6094 22.5625 10.9531 20.0625 9.46875C17.5234 8.02344 14.4375 8.02344 11.9375 9.46875C9.39844 10.9531 7.875 13.6094 7.875 16.5C7.875 19.4297 9.39844 22.0859 11.9375 23.5703C14.4375 25.0156 17.5234 25.0156 20.0625 23.5703C22.5625 22.0859 24.125 19.4297 24.125 16.5ZM6 16.5C6 12.9453 7.875 9.66406 11 7.86719C14.0859 6.07031 17.875 6.07031 21 7.86719C24.0859 9.66406 26 12.9453 26 16.5C26 20.0938 24.0859 23.375 21 25.1719C17.875 26.9688 14.0859 26.9688 11 25.1719C7.875 23.375 6 20.0938 6 16.5ZM19.9453 11.9688L20.5312 12.5547C21.1172 13.1406 21.1172 14.1172 20.5312 14.7422L19.6719 15.6016L16.8984 12.8281L17.7578 11.9688C18.3438 11.3828 19.3594 11.3828 19.9453 11.9688ZM11.8984 17.7891L16.0391 13.6875L18.8125 16.4609L14.6719 20.5625C14.5156 20.7188 14.3203 20.8359 14.125 20.9141L11.7422 21.5C11.5469 21.5391 11.3125 21.5 11.1562 21.3438C11 21.1875 10.9609 20.9531 11 20.7188L11.5859 18.375C11.625 18.1797 11.7422 17.9453 11.8984 17.7891Z" fill="black" fill-opacity="0.72"/>
</g>
</svg>
