<svg width="32" height="32" viewBox="0 0 32 32" fill="none" xmlns="http://www.w3.org/2000/svg">
<g id="standalone / md / grid-2-md / fill">
<path id="icon" d="M14.75 9.625V13.375C14.75 14.4297 13.8906 15.25 12.875 15.25H9.125C8.07031 15.25 7.25 14.4297 7.25 13.375V9.625C7.25 8.60938 8.07031 7.75 9.125 7.75H12.875C13.8906 7.75 14.75 8.60938 14.75 9.625ZM14.75 19.625V23.375C14.75 24.4297 13.8906 25.25 12.875 25.25H9.125C8.07031 25.25 7.25 24.4297 7.25 23.375V19.625C7.25 18.6094 8.07031 17.75 9.125 17.75H12.875C13.8906 17.75 14.75 18.6094 14.75 19.625ZM17.25 9.625C17.25 8.60938 18.0703 7.75 19.125 7.75H22.875C23.8906 7.75 24.75 8.60938 24.75 9.625V13.375C24.75 14.4297 23.8906 15.25 22.875 15.25H19.125C18.0703 15.25 17.25 14.4297 17.25 13.375V9.625ZM24.75 19.625V23.375C24.75 24.4297 23.8906 25.25 22.875 25.25H19.125C18.0703 25.25 17.25 24.4297 17.25 23.375V19.625C17.25 18.6094 18.0703 17.75 19.125 17.75H22.875C23.8906 17.75 24.75 18.6094 24.75 19.625Z" fill="black" fill-opacity="0.72"/>
</g>
</svg>
