<svg width="32" height="32" viewBox="0 0 32 32" fill="none" xmlns="http://www.w3.org/2000/svg">
<g id="standalone / md / caret-down-md / regular">
<path id="icon" d="M16.1953 20.1719L20.8828 15.7578C20.9609 15.6797 20.9609 15.6406 20.9609 15.5625C20.9609 15.4062 20.8438 15.25 20.6875 15.25H11.2734C11.1172 15.25 11 15.4062 11 15.5625C11 15.6406 11 15.6797 11.0781 15.7578L15.7656 20.1719C15.8047 20.25 15.8828 20.25 16 20.25C16.0781 20.25 16.1562 20.25 16.1953 20.1719ZM17.0547 21.1094C16.7812 21.3828 16.3906 21.5 16 21.5C15.5703 21.5 15.1797 21.3828 14.9062 21.1094L10.2188 16.6562C9.90625 16.3828 9.75 15.9531 9.75 15.5625C9.75 14.7031 10.4141 14 11.2734 14L20.6875 14.0391C21.5469 14.0391 22.25 14.7031 22.25 15.5625C22.25 15.9531 22.0547 16.3828 21.7422 16.6562L17.0547 21.1094Z" fill="black" fill-opacity="0.72"/>
</g>
</svg>
