<svg width="32" height="32" viewBox="0 0 32 32" fill="none" xmlns="http://www.w3.org/2000/svg">
<g id="standalone / md / clapperboard-play-md / fill">
<path id="icon" d="M23.6953 7.78906L18.7734 12.7109L18.7344 12.75H15.1016L20.1016 7.78906L20.1406 7.75H23.5C23.5781 7.75 23.6172 7.78906 23.6953 7.78906ZM21.3516 12.75L25.4531 8.6875C25.7656 9.11719 26 9.66406 26 10.25V12.75H21.3516ZM13.8516 7.75H17.4844L12.5234 12.7109L12.4844 12.75H8.85156L13.8516 7.78906L13.8906 7.75H13.8516ZM11.2344 7.75L6.27344 12.7109L6.23438 12.75H6V10.25C6 8.88281 7.09375 7.75 8.5 7.75H11.2344ZM6 14H26V22.75C26 24.1562 24.8672 25.25 23.5 25.25H8.5C7.09375 25.25 6 24.1562 6 22.75V14ZM14.4375 16.5781C14.2422 16.6953 14.125 16.9297 14.125 17.125V22.125C14.125 22.3594 14.2422 22.5938 14.4375 22.7109C14.6328 22.7891 14.9062 22.7891 15.0625 22.6719L18.8125 20.1719C19.0078 20.0547 19.125 19.8594 19.125 19.625C19.125 19.4297 19.0078 19.2344 18.8125 19.1172L15.0625 16.6172C14.9062 16.5 14.6328 16.5 14.4375 16.5781Z" fill="black" fill-opacity="0.72"/>
</g>
</svg>
