<svg width="32" height="32" viewBox="0 0 32 32" fill="none" xmlns="http://www.w3.org/2000/svg">
<g id="standalone / md / hands-holding-diamond-md / fill">
<path id="icon" d="M15.1016 6.89062C15.5703 6.38281 16.3906 6.38281 16.8594 6.89062L20.6094 10.6406C21.1172 11.1094 21.1172 11.9297 20.6094 12.3984L16.8594 16.1484C16.3906 16.6562 15.5703 16.6562 15.1016 16.1484L11.3516 12.3984C10.8438 11.9297 10.8438 11.1094 11.3516 10.6406L15.1016 6.89062ZM6.625 10.5625V12.125V15.25V16.8516C6.625 17.5156 6.85938 18.1406 7.32812 18.6094L9.32031 20.6016C9.67188 20.9141 10.1797 20.9922 10.5312 20.7188C11.0391 20.4062 11.1172 19.6641 10.6875 19.2344L10.1016 18.6484L8.85156 17.3984C8.34375 16.9297 8.34375 16.1094 8.85156 15.6406C9.32031 15.1328 10.1406 15.1328 10.6094 15.6406L11.8594 16.8906L12.4453 17.4766L13.4609 18.4531C14.2812 19.2734 14.75 20.4062 14.75 21.5781V24.625C14.75 25.6797 13.8906 26.5 12.875 26.5H10.2578C9.59375 26.5 8.96875 26.2656 8.5 25.7969L4.59375 21.8906C3.89062 21.1875 3.5 20.2109 3.5 19.2344V15.25V12.75V10.5625C3.5 9.70312 4.16406 9 5.0625 9C5.92188 9 6.625 9.70312 6.625 10.5625ZM25.375 10.5625C25.375 9.70312 26.0781 9 26.9375 9C27.7969 9 28.5 9.70312 28.5 10.5625V12.75V15.25V19.2344C28.5 20.2109 28.1094 21.1875 27.4062 21.8906L23.5 25.7969C23.0312 26.2656 22.3672 26.5 21.7031 26.5H19.125C18.0703 26.5 17.25 25.6797 17.25 24.625V21.5781C17.25 20.4062 17.6797 19.2734 18.5 18.4531L19.5156 17.4766L20.1016 16.8906L21.3516 15.6406C21.8203 15.1328 22.6406 15.1328 23.1094 15.6406C23.6172 16.1094 23.6172 16.9297 23.1094 17.3984L21.8594 18.6484L21.2734 19.2344C20.8438 19.6641 20.9219 20.4062 21.4297 20.7188C21.7812 20.9922 22.2891 20.9141 22.6406 20.6016L24.6328 18.6094C25.1016 18.1406 25.375 17.5156 25.375 16.8516V15.25V12.125V10.5625Z" fill="black" fill-opacity="0.72"/>
</g>
</svg>
