<svg width="32" height="32" viewBox="0 0 32 32" fill="none" xmlns="http://www.w3.org/2000/svg">
<g id="standalone / md / envelope-md / bold">
<path id="icon" d="M8.5 10.875C8.14844 10.875 7.875 11.1875 7.875 11.5V12.3984L14.5938 17.9062C15.4141 18.5703 16.5469 18.5703 17.3672 17.9062L24.125 12.3984V11.5C24.125 11.1875 23.8125 10.875 23.5 10.875H8.5ZM7.875 14.8203V21.5C7.875 21.8516 8.14844 22.125 8.5 22.125H23.5C23.8125 22.125 24.125 21.8516 24.125 21.5V14.8203L18.5781 19.3516C17.0547 20.6016 14.9062 20.6016 13.4219 19.3516L7.875 14.8203ZM6 11.5C6 10.1328 7.09375 9 8.5 9H23.5C24.8672 9 26 10.1328 26 11.5V21.5C26 22.9062 24.8672 24 23.5 24H8.5C7.09375 24 6 22.9062 6 21.5V11.5Z" fill="black" fill-opacity="0.72"/>
</g>
</svg>
