<svg width="32" height="32" viewBox="0 0 32 32" fill="none" xmlns="http://www.w3.org/2000/svg">
<g id="standalone / md / trash-md / regular">
<path id="icon" d="M14.1641 7.75C13.9688 7.75 13.7734 7.86719 13.6562 8.0625L13.0312 9H18.9297L18.3047 8.0625C18.1875 7.86719 17.9922 7.75 17.7969 7.75H14.1641ZM20.375 9H22.2109H23.5H24.125C24.4375 9 24.75 9.3125 24.75 9.625C24.75 9.97656 24.4375 10.25 24.125 10.25H23.3828L22.4062 24.1953C22.2891 25.5234 21.2344 26.5 19.9062 26.5H12.0547C10.7656 26.5 9.67188 25.5234 9.55469 24.1953L8.57812 10.25H7.875C7.52344 10.25 7.25 9.97656 7.25 9.625C7.25 9.3125 7.52344 9 7.875 9H8.5H9.75H11.5859L12.6016 7.39844C12.9141 6.85156 13.5391 6.5 14.1641 6.5H17.7969C18.4219 6.5 19.0469 6.85156 19.3984 7.39844L20.375 9ZM22.1328 10.25H9.82812L10.8047 24.1172C10.8438 24.7422 11.3906 25.25 12.0547 25.25H19.9062C20.5703 25.25 21.1172 24.7422 21.1562 24.1172L22.1328 10.25Z" fill="black" fill-opacity="0.72"/>
</g>
</svg>
