<svg width="32" height="32" viewBox="0 0 32 32" fill="none" xmlns="http://www.w3.org/2000/svg">
<g id="standalone / md / laptop-md / regular">
<path id="icon" d="M23.5 9H8.5C7.79688 9 7.25 9.58594 7.25 10.25V20.25H6V10.25C6 8.88281 7.09375 7.75 8.5 7.75H23.5C24.8672 7.75 26 8.88281 26 10.25V20.25H24.75V10.25C24.75 9.58594 24.1641 9 23.5 9ZM6.46875 24H25.4922C26.2734 24 26.9375 23.4922 27.1719 22.75H4.78906C5.02344 23.4922 5.6875 24 6.46875 24ZM3.5 22.2812C3.5 21.8516 3.8125 21.5 4.24219 21.5H27.7188C28.1484 21.5 28.5 21.8516 28.5 22.2812C28.5 23.9219 27.1328 25.25 25.4922 25.25H6.46875C4.82812 25.25 3.5 23.9219 3.5 22.2812Z" fill="black" fill-opacity="0.72"/>
</g>
</svg>
