<svg width="32" height="32" viewBox="0 0 32 32" fill="none" xmlns="http://www.w3.org/2000/svg">
<g id="standalone / md / forward-step-md / regular">
<path id="icon" d="M19.75 9.625C19.75 9.3125 20.0234 9 20.375 9C20.6875 9 21 9.3125 21 9.625V15.9531V17.0859V23.375C21 23.7266 20.6875 24 20.375 24C20.0234 24 19.75 23.7266 19.75 23.375V18.1016L12.7578 23.7656C12.5625 23.9219 12.3281 24 12.0547 24C11.4688 24 11 23.5312 11 22.9453V10.0938C11 9.50781 11.4688 9 12.0547 9C12.3281 9 12.5625 9.11719 12.7578 9.27344L19.75 14.9375V9.625ZM12.25 10.4453V22.5938L19.6719 16.5L12.25 10.4453Z" fill="black" fill-opacity="0.72"/>
</g>
</svg>
