<svg width="32" height="32" viewBox="0 0 32 32" fill="none" xmlns="http://www.w3.org/2000/svg">
<g id="standalone / md / bell-md / bold">
<path id="icon" d="M16 6.5C16.6641 6.5 17.25 7.08594 17.25 7.75V8.53125C20.1016 9.07812 22.25 11.6172 22.25 14.625V15.6406C22.25 17.3984 22.8359 19.1172 23.9297 20.5234L24.5156 21.2266C24.75 21.5391 24.7891 21.9297 24.6328 22.2422C24.4766 22.5547 24.1641 22.75 23.8125 22.75H8.1875C7.79688 22.75 7.48438 22.5547 7.32812 22.2422C7.17188 21.9297 7.21094 21.5391 7.44531 21.2266L8.03125 20.5234C9.125 19.1172 9.75 17.3984 9.75 15.6406V14.625C9.75 11.6172 11.8984 9.07812 14.75 8.53125V7.75C14.75 7.08594 15.2969 6.5 16 6.5ZM16 10.25C13.5781 10.25 11.625 12.2422 11.625 14.625V15.6406C11.625 17.5156 11.0781 19.3125 10.0625 20.875H21.8984C20.8828 19.3125 20.375 17.5156 20.375 15.6406V14.625C20.375 12.2422 18.3828 10.25 16 10.25ZM18.5 24C18.5 24.6641 18.2266 25.3281 17.7578 25.7969C17.2891 26.2656 16.6641 26.5 16 26.5C15.3359 26.5 14.6719 26.2656 14.2031 25.7969C13.7344 25.3281 13.5 24.6641 13.5 24H16H18.5Z" fill="black" fill-opacity="0.72"/>
</g>
</svg>
