<svg width="32" height="32" viewBox="0 0 32 32" fill="none" xmlns="http://www.w3.org/2000/svg">
<g id="standalone / md / bank-md / fill">
<path id="icon" d="M15.4922 6.61719C15.8047 6.5 16.1562 6.5 16.4688 6.61719L25.2188 10.3672C25.7656 10.6016 26.0781 11.1875 25.9609 11.7734C25.8438 12.3594 25.3359 12.75 24.75 12.75V13.0625C24.75 13.6094 24.3203 14 23.8125 14H8.1875C7.64062 14 7.25 13.6094 7.25 13.0625V12.75C6.625 12.75 6.11719 12.3594 6 11.7734C5.88281 11.1875 6.19531 10.6016 6.74219 10.3672L15.4922 6.61719ZM11 15.25V22.75H12.5625V15.25H15.0625V22.75H16.9375V15.25H19.4375V22.75H21V15.25H23.4609V22.9453C23.5 22.9453 23.5391 22.9453 23.5391 22.9844L25.4141 24.2344C25.8828 24.5469 26.0781 25.0938 25.9219 25.6406C25.7656 26.1484 25.2969 26.5 24.75 26.5H7.25C6.66406 26.5 6.19531 26.1484 6.03906 25.6406C5.88281 25.0938 6.07812 24.5469 6.54688 24.2344L8.42188 22.9844C8.42188 22.9453 8.46094 22.9453 8.5 22.9453V15.25H11ZM16 9C15.2969 9 14.75 9.58594 14.75 10.25C14.75 10.9531 15.2969 11.5 16 11.5C16.6641 11.5 17.25 10.9531 17.25 10.25C17.25 9.58594 16.6641 9 16 9Z" fill="black" fill-opacity="0.72"/>
</g>
</svg>
