<svg width="32" height="32" viewBox="0 0 32 32" fill="none" xmlns="http://www.w3.org/2000/svg">
<g id="standalone / md / bank-md / regular">
<path id="icon" d="M16.3125 6.57812L25.375 11.7344C25.7656 11.9688 25.974 12.3203 26 12.7891C26 13.1276 25.8828 13.4141 25.6484 13.6484C25.4141 13.8828 25.1276 14 24.7891 14H16H7.21094C6.8724 14 6.58594 13.8828 6.35156 13.6484C6.11719 13.4141 6 13.1276 6 12.7891C6.02604 12.3203 6.23438 11.9688 6.625 11.7344L15.6875 6.57812C15.8958 6.47396 16.1042 6.47396 16.3125 6.57812ZM17.9922 12.75H24.6719L16 7.82812L7.32812 12.75H14.0078C13.8776 12.4635 13.8125 12.151 13.8125 11.8125C13.8385 11.1875 14.0469 10.6667 14.4375 10.25C14.8542 9.85938 15.375 9.65104 16 9.625C16.625 9.65104 17.1458 9.85938 17.5625 10.25C17.9531 10.6667 18.1615 11.1875 18.1875 11.8125C18.1875 12.151 18.1224 12.4635 17.9922 12.75ZM16 10.875C15.4271 10.9271 15.1146 11.2396 15.0625 11.8125C15.1146 12.3854 15.4271 12.6979 16 12.75C16.5729 12.6979 16.8854 12.3854 16.9375 11.8125C16.8854 11.2396 16.5729 10.9271 16 10.875ZM8.5 20.25V15.25H9.75V20.25H12.875V15.25H14.125V20.25H17.875V15.25H19.125V20.25H22.25V15.25H23.5V20.25C23.8906 20.276 24.099 20.4844 24.125 20.875C24.099 21.2656 23.8906 21.474 23.5 21.5H8.5C8.10938 21.474 7.90104 21.2656 7.875 20.875C7.90104 20.4844 8.10938 20.276 8.5 20.25ZM7.5625 22.75H24.4375C24.8281 22.776 25.0365 22.9844 25.0625 23.375C25.0365 23.7656 24.8281 23.974 24.4375 24H7.5625C7.17188 23.974 6.96354 23.7656 6.9375 23.375C6.96354 22.9844 7.17188 22.776 7.5625 22.75ZM6.625 25.25H25.375C25.7656 25.276 25.974 25.4844 26 25.875C25.974 26.2656 25.7656 26.474 25.375 26.5H6.625C6.23438 26.474 6.02604 26.2656 6 25.875C6.02604 25.4844 6.23438 25.276 6.625 25.25Z" fill="black" fill-opacity="0.72"/>
</g>
</svg>
