<svg width="32" height="32" viewBox="0 0 32 32" fill="none" xmlns="http://www.w3.org/2000/svg">
<g id="standalone / md / eye-md / regular">
<path id="icon" d="M9.32031 11.8125C7.64062 13.375 6.50781 15.25 6 16.5C6.50781 17.75 7.64062 19.625 9.32031 21.1875C11 22.75 13.2266 24 16 24C18.7344 24 20.9609 22.75 22.6406 21.1875C24.3203 19.625 25.4531 17.75 26 16.5C25.4531 15.25 24.3203 13.375 22.6406 11.8125C20.9609 10.25 18.7344 9 16 9C13.2266 9 11 10.25 9.32031 11.8125ZM16 7.75C19.125 7.75 21.6641 9.19531 23.5 10.9141C25.3359 12.5938 26.5469 14.625 27.1328 16.0312C27.25 16.3438 27.25 16.6953 27.1328 17.0078C26.5469 18.375 25.3359 20.4062 23.5 22.125C21.6641 23.8438 19.125 25.25 16 25.25C12.8359 25.25 10.2969 23.8438 8.46094 22.125C6.625 20.4062 5.41406 18.375 4.82812 17.0078C4.71094 16.6953 4.71094 16.3438 4.82812 16.0312C5.41406 14.625 6.625 12.5938 8.46094 10.9141C10.2969 9.19531 12.8359 7.75 16 7.75ZM12.25 16.5C12.25 17.8672 12.9531 19.0781 14.125 19.7812C15.2578 20.4453 16.7031 20.4453 17.875 19.7812C19.0078 19.0781 19.75 17.8672 19.75 16.5C19.75 15.1719 19.0078 13.9609 17.875 13.2578C16.7031 12.5938 15.2578 12.5938 14.125 13.2578C12.9531 13.9609 12.25 15.1719 12.25 16.5ZM21 16.5C21 18.2969 20.0234 19.9375 18.5 20.8359C16.9375 21.7344 15.0234 21.7344 13.5 20.8359C11.9375 19.9375 11 18.2969 11 16.5C11 14.7422 11.9375 13.1016 13.5 12.2031C15.0234 11.3047 16.9375 11.3047 18.5 12.2031C20.0234 13.1016 21 14.7422 21 16.5Z" fill="black" fill-opacity="0.72"/>
</g>
</svg>
