<svg width="32" height="32" viewBox="0 0 32 32" fill="none" xmlns="http://www.w3.org/2000/svg">
<g id="standalone / md / square-list-md / fill">
<path id="icon" d="M7.25 10.25C7.25 8.88281 8.34375 7.75 9.75 7.75H22.25C23.6172 7.75 24.75 8.88281 24.75 10.25V22.75C24.75 24.1562 23.6172 25.25 22.25 25.25H9.75C8.34375 25.25 7.25 24.1562 7.25 22.75V10.25ZM11 17.75C11.6641 17.75 12.25 17.2031 12.25 16.5C12.25 15.8359 11.6641 15.25 11 15.25C10.2969 15.25 9.75 15.8359 9.75 16.5C9.75 17.2031 10.2969 17.75 11 17.75ZM12.25 12.75C12.25 12.0859 11.6641 11.5 11 11.5C10.2969 11.5 9.75 12.0859 9.75 12.75C9.75 13.4531 10.2969 14 11 14C11.6641 14 12.25 13.4531 12.25 12.75ZM11 21.5C11.6641 21.5 12.25 20.9531 12.25 20.25C12.25 19.5859 11.6641 19 11 19C10.2969 19 9.75 19.5859 9.75 20.25C9.75 20.9531 10.2969 21.5 11 21.5ZM14.75 11.8125C14.2031 11.8125 13.8125 12.2422 13.8125 12.75C13.8125 13.2969 14.2031 13.6875 14.75 13.6875H21C21.5078 13.6875 21.9375 13.2969 21.9375 12.75C21.9375 12.2422 21.5078 11.8125 21 11.8125H14.75ZM14.75 15.5625C14.2031 15.5625 13.8125 15.9922 13.8125 16.5C13.8125 17.0469 14.2031 17.4375 14.75 17.4375H21C21.5078 17.4375 21.9375 17.0469 21.9375 16.5C21.9375 15.9922 21.5078 15.5625 21 15.5625H14.75ZM14.75 19.3125C14.2031 19.3125 13.8125 19.7422 13.8125 20.25C13.8125 20.7969 14.2031 21.1875 14.75 21.1875H21C21.5078 21.1875 21.9375 20.7969 21.9375 20.25C21.9375 19.7422 21.5078 19.3125 21 19.3125H14.75Z" fill="black" fill-opacity="0.72"/>
</g>
</svg>
