<svg width="32" height="32" viewBox="0 0 32 32" fill="none" xmlns="http://www.w3.org/2000/svg">
<g id="standalone / md / map-md / regular">
<path id="icon" d="M11.3906 7.82812C11.5078 7.75 11.6641 7.75 11.7812 7.78906L20.3359 10.25L25.9609 7.98438C26.5469 7.75 27.25 8.17969 27.25 8.84375V21.9297C27.25 22.3203 27.0156 22.6719 26.625 22.7891L20.5703 25.2109C20.4531 25.2891 20.3359 25.2891 20.1797 25.25L11.625 22.7891L6 25.0547C5.41406 25.2891 4.75 24.8594 4.75 24.1953V11.1094C4.75 10.7188 4.98438 10.3672 5.33594 10.25L11.3906 7.82812ZM6 11.3047V23.7266L11 21.7344V9.3125L6 11.3047ZM19.75 23.8047V11.3828L12.25 9.23438V21.6562L19.75 23.8047ZM21 23.7266L26 21.7344V9.3125L21 11.3047V23.7266Z" fill="black" fill-opacity="0.72"/>
</g>
</svg>
