<svg width="32" height="32" viewBox="0 0 32 32" fill="none" xmlns="http://www.w3.org/2000/svg">
<g id="standalone / md / file-excel-md / bold">
<path id="icon" d="M10.875 24C10.875 24.3516 11.1484 24.625 11.5 24.625H21.5C21.8125 24.625 22.125 24.3516 22.125 24V12.75H19C18.2969 12.75 17.75 12.2031 17.75 11.5V8.375H11.5C11.1484 8.375 10.875 8.6875 10.875 9V24ZM11.5 6.5H17.9453C18.6094 6.5 19.2344 6.77344 19.7031 7.24219L23.2578 10.7969C23.7266 11.2656 24 11.8906 24 12.5547V24C24 25.4062 22.8672 26.5 21.5 26.5H11.5C10.0938 26.5 9 25.4062 9 24V9C9 7.63281 10.0938 6.5 11.5 6.5ZM15.0156 15.6406L16.5 17.4766L17.9453 15.6406C18.2578 15.2109 18.8438 15.1328 19.2344 15.4453C19.6641 15.7969 19.7422 16.3828 19.3906 16.7734L17.6719 19L19.4297 21.2656C19.7422 21.6562 19.6641 22.2422 19.2344 22.5547C18.8438 22.8672 18.2578 22.8281 17.9453 22.3984L16.5 20.5625L15.0547 22.3984C14.7031 22.8281 14.1172 22.9062 13.7266 22.5547C13.2969 22.2422 13.2578 21.6562 13.5703 21.2656L15.2891 19L13.5703 16.7734C13.2188 16.3828 13.2969 15.7969 13.7266 15.4844C14.1172 15.1328 14.7031 15.2109 15.0156 15.6406Z" fill="black" fill-opacity="0.72"/>
</g>
</svg>
