<svg width="32" height="32" viewBox="0 0 32 32" fill="none" xmlns="http://www.w3.org/2000/svg">
<g id="standalone / md / thumbs-down-md / fill">
<path id="icon" d="M18.2266 25.25C17.2109 25.4453 16.2344 24.7812 16 23.7656L15.9219 23.2969C15.6875 22.0078 14.9453 20.8359 13.9297 20.0156L13.6562 19.7812C12.7578 19.0781 12.25 18.0234 12.25 16.8516V15.875V14V12.5156C12.25 11.2656 12.875 10.0938 13.8906 9.39062L15.4141 8.41406C16.0391 7.98438 16.7422 7.75 17.4844 7.75H21.3125C22.3281 7.75 23.1875 8.60938 23.1875 9.625C23.1875 9.78125 23.1484 9.9375 23.1094 10.0547C23.8906 10.2891 24.4375 10.9922 24.4375 11.8125C24.4375 12.2031 24.3203 12.5156 24.1641 12.7891C25.0234 12.9844 25.6875 13.7266 25.6875 14.625C25.6875 15.25 25.4141 15.7578 24.9844 16.1094C25.5703 16.4219 26 17.0469 26 17.75C26 18.8047 25.1406 19.625 24.125 19.625H18.5C19.0078 20.5625 19.3984 21.5391 19.5938 22.5938L19.7109 23.0234C19.9062 24.0391 19.2422 25.0156 18.2266 25.25ZM7.25 21.5C6.54688 21.5 6 20.9531 6 20.25V11.5C6 10.8359 6.54688 10.25 7.25 10.25H9.75C10.4141 10.25 11 10.8359 11 11.5V20.25C11 20.9531 10.4141 21.5 9.75 21.5H7.25Z" fill="black" fill-opacity="0.72"/>
</g>
</svg>
