<svg width="32" height="32" viewBox="0 0 32 32" fill="none" xmlns="http://www.w3.org/2000/svg">
<g id="standalone / md / computer-md / regular">
<path id="icon" d="M18.5 9H6C5.29688 9 4.75 9.58594 4.75 10.25V19C4.75 19.7031 5.29688 20.25 6 20.25H10.2188H10.6875H13.8125H14.2422H18.5C19.1641 20.25 19.75 19.7031 19.75 19V10.25C19.75 9.58594 19.1641 9 18.5 9ZM6 21.5C4.59375 21.5 3.5 20.4062 3.5 19V10.25C3.5 8.88281 4.59375 7.75 6 7.75H18.5C19.8672 7.75 21 8.88281 21 10.25V19C21 20.4062 19.8672 21.5 18.5 21.5H14.6719L15.4922 24H17.875C18.1875 24 18.5 24.3125 18.5 24.625C18.5 24.9766 18.1875 25.25 17.875 25.25H15.9219H15.0625H9.4375H8.53906H6.625C6.27344 25.25 6 24.9766 6 24.625C6 24.3125 6.27344 24 6.625 24H8.96875L9.78906 21.5H6ZM10.2969 24H14.1641L13.3438 21.5H11.1172L10.2969 24ZM24.125 9C23.7734 9 23.5 9.3125 23.5 9.625V11.5H27.25V9.625C27.25 9.3125 26.9375 9 26.625 9H24.125ZM23.5 12.75V14H27.25V12.75H23.5ZM23.5 23.375C23.5 23.7266 23.7734 24 24.125 24H26.625C26.9375 24 27.25 23.7266 27.25 23.375V15.25H23.5V23.375ZM22.25 9.625C22.25 8.60938 23.0703 7.75 24.125 7.75H26.625C27.6406 7.75 28.5 8.60938 28.5 9.625V23.375C28.5 24.4297 27.6406 25.25 26.625 25.25H24.125C23.0703 25.25 22.25 24.4297 22.25 23.375V9.625ZM25.375 20.5625C24.8281 20.5625 24.4375 20.1719 24.4375 19.625C24.4375 19.1172 24.8281 18.6875 25.375 18.6875C25.8828 18.6875 26.3125 19.1172 26.3125 19.625C26.3125 20.1719 25.8828 20.5625 25.375 20.5625Z" fill="black" fill-opacity="0.72"/>
</g>
</svg>
