<svg width="32" height="32" viewBox="0 0 32 32" fill="none" xmlns="http://www.w3.org/2000/svg">
<g id="standalone / md / floppy-disk-md / regular">
<path id="icon" d="M8.5 10.25V22.75C8.5 23.4531 9.04688 24 9.75 24H22.25C22.9141 24 23.5 23.4531 23.5 22.75V13.1797C23.5 12.8281 23.3438 12.5156 23.1094 12.2812L20.2188 9.39062C20.0625 9.23438 19.9062 9.15625 19.75 9.07812V12.75C19.75 13.4531 19.1641 14 18.5 14H11C10.2969 14 9.75 13.4531 9.75 12.75V9C9.04688 9 8.5 9.58594 8.5 10.25ZM11 9V12.75H18.5V9H11ZM7.25 10.25C7.25 8.88281 8.34375 7.75 9.75 7.75H19.3203C19.9844 7.75 20.6094 8.02344 21.0781 8.49219L24.0078 11.4219C24.4766 11.8906 24.75 12.5156 24.75 13.1797V22.75C24.75 24.1562 23.6172 25.25 22.25 25.25H9.75C8.34375 25.25 7.25 24.1562 7.25 22.75V10.25ZM17.875 19C17.875 18.3359 17.4844 17.75 16.9375 17.3984C16.3516 17.0469 15.6094 17.0469 15.0625 17.3984C14.4766 17.75 14.125 18.3359 14.125 19C14.125 19.7031 14.4766 20.2891 15.0625 20.6406C15.6094 20.9922 16.3516 20.9922 16.9375 20.6406C17.4844 20.2891 17.875 19.7031 17.875 19ZM16 15.875C17.0938 15.875 18.1094 16.5 18.6953 17.4375C19.2422 18.4141 19.2422 19.625 18.6953 20.5625C18.1094 21.5391 17.0938 22.125 16 22.125C14.8672 22.125 13.8516 21.5391 13.2656 20.5625C12.7188 19.625 12.7188 18.4141 13.2656 17.4375C13.8516 16.5 14.8672 15.875 16 15.875Z" fill="black" fill-opacity="0.72"/>
</g>
</svg>
