<svg width="32" height="32" viewBox="0 0 32 32" fill="none" xmlns="http://www.w3.org/2000/svg">
<g id="standalone / md / messages-question-md / regular">
<path id="icon" d="M11.3906 17.75H17.25C17.9141 17.75 18.5 17.2031 18.5 16.5V9C18.5 8.33594 17.9141 7.75 17.25 7.75H6C5.29688 7.75 4.75 8.33594 4.75 9V16.5C4.75 17.2031 5.29688 17.75 6 17.75H7.25C7.91406 17.75 8.5 18.3359 8.5 19V19.625L10.6484 18.0234C10.8828 17.8672 11.1172 17.75 11.3906 17.75ZM17.25 19H11.3906L8.22656 21.3828C8.03125 21.5391 7.79688 21.5391 7.5625 21.4609C7.36719 21.3438 7.25 21.1484 7.25 20.875V20.25V19H6C4.59375 19 3.5 17.9062 3.5 16.5V9C3.5 7.63281 4.59375 6.5 6 6.5H17.25C18.6172 6.5 19.75 7.63281 19.75 9V16.5C19.75 17.9062 18.6172 19 17.25 19ZM16 24C14.5938 24 13.5 22.9062 13.5 21.5V20.25H14.75V21.5C14.75 22.2031 15.2969 22.75 16 22.75H20.5703C20.8438 22.75 21.1172 22.8672 21.3125 23.0234L23.5 24.625V24C23.5 23.3359 24.0469 22.75 24.75 22.75H26C26.6641 22.75 27.25 22.2031 27.25 21.5V14C27.25 13.3359 26.6641 12.75 26 12.75H21V11.5H26C27.3672 11.5 28.5 12.6328 28.5 14V21.5C28.5 22.9062 27.3672 24 26 24H24.75V25.25V25.875C24.75 26.1484 24.5938 26.3438 24.3984 26.4609C24.1641 26.5391 23.9297 26.5391 23.7344 26.3828L20.5703 24H16ZM10.6875 9.27344C10.0234 9.27344 9.47656 9.66406 9.24219 10.25V10.2891C9.125 10.6406 9.32031 10.9922 9.63281 11.1094C9.94531 11.2266 10.2969 11.0312 10.4141 10.7188L10.4531 10.6797C10.4531 10.5625 10.5703 10.5234 10.6875 10.5234H12.2891C12.5625 10.5234 12.7578 10.7188 12.7578 10.9531C12.7578 11.1484 12.6797 11.3047 12.5234 11.3828L11.3125 12.0859C11.1172 12.2031 11 12.3984 11 12.6328V12.9844C11 13.3359 11.2734 13.6094 11.625 13.6094C11.9375 13.6094 12.25 13.3359 12.25 12.9844L13.1484 12.4375C13.6953 12.1641 14.0078 11.5781 14.0078 10.9922C14.0078 10.0156 13.2266 9.27344 12.2891 9.27344H10.6875ZM11.625 16.3047C11.9375 16.3438 12.25 16.1875 12.4062 15.875C12.6016 15.6016 12.6016 15.25 12.4062 14.9766C12.25 14.7031 11.9375 14.5078 11.625 14.5469C11.2734 14.5078 10.9609 14.7031 10.8047 14.9766C10.6094 15.25 10.6094 15.6016 10.8047 15.875C10.9609 16.1875 11.2734 16.3438 11.625 16.3047Z" fill="black" fill-opacity="0.72"/>
</g>
</svg>
