<svg width="32" height="32" viewBox="0 0 32 32" fill="none" xmlns="http://www.w3.org/2000/svg">
<g id="standalone / md / clone-md / regular">
<path id="icon" d="M8.5 25.25H17.25C17.9141 25.25 18.5 24.7031 18.5 24V21.5H19.75V24C19.75 25.4062 18.6172 26.5 17.25 26.5H8.5C7.09375 26.5 6 25.4062 6 24V15.25C6 13.8828 7.09375 12.75 8.5 12.75H11V14H8.5C7.79688 14 7.25 14.5859 7.25 15.25V24C7.25 24.7031 7.79688 25.25 8.5 25.25ZM14.75 19H23.5C24.1641 19 24.75 18.4531 24.75 17.75V9C24.75 8.33594 24.1641 7.75 23.5 7.75H14.75C14.0469 7.75 13.5 8.33594 13.5 9V17.75C13.5 18.4531 14.0469 19 14.75 19ZM12.25 17.75V9C12.25 7.63281 13.3438 6.5 14.75 6.5H23.5C24.8672 6.5 26 7.63281 26 9V17.75C26 19.1562 24.8672 20.25 23.5 20.25H14.75C13.3438 20.25 12.25 19.1562 12.25 17.75Z" fill="black" fill-opacity="0.72"/>
</g>
</svg>
