<svg width="32" height="32" viewBox="0 0 32 32" fill="none" xmlns="http://www.w3.org/2000/svg">
<g id="standalone / md / magnifying-glass-minus-md / regular">
<path id="icon" d="M14.125 7.75C11.6641 7.75 9.39844 9.07812 8.14844 11.1875C6.9375 13.3359 6.9375 15.9531 8.14844 18.0625C9.39844 20.2109 11.6641 21.5 14.125 21.5C16.5469 21.5 18.8125 20.2109 20.0625 18.0625C21.2734 15.9531 21.2734 13.3359 20.0625 11.1875C18.8125 9.07812 16.5469 7.75 14.125 7.75ZM14.125 22.75C9.63281 22.75 6 19.1172 6 14.625C6 10.1719 9.63281 6.5 14.125 6.5C18.5781 6.5 22.25 10.1719 22.25 14.625C22.25 16.6562 21.5078 18.4922 20.2969 19.9375L25.8047 25.4453C26.0391 25.6797 26.0391 26.1094 25.8047 26.3438C25.5703 26.5781 25.1406 26.5781 24.9062 26.3438L19.3984 20.7969C17.9922 22.0469 16.1172 22.75 14.125 22.75ZM10.375 14H17.875C18.1875 14 18.5 14.3125 18.5 14.625C18.5 14.9766 18.1875 15.25 17.875 15.25H10.375C10.0234 15.25 9.75 14.9766 9.75 14.625C9.75 14.3125 10.0234 14 10.375 14Z" fill="black" fill-opacity="0.72"/>
</g>
</svg>
