<svg width="32" height="32" viewBox="0 0 32 32" fill="none" xmlns="http://www.w3.org/2000/svg">
<g id="standalone / md / lock-pattern-md / fill">
<path id="icon" d="M6 9C6 7.63281 7.09375 6.5 8.5 6.5C9.39844 6.5 10.2188 7.00781 10.6484 7.75H13.8125C14.2422 7.00781 15.0625 6.5 16 6.5C16.8984 6.5 17.7188 7.00781 18.1484 7.75H21.3125C21.7422 7.00781 22.5625 6.5 23.5 6.5C24.8672 6.5 26 7.63281 26 9C26 10.4062 24.8672 11.5 23.5 11.5C23.2656 11.5 23.0312 11.5 22.8359 11.4219L18.3828 15.875C18.4609 16.0703 18.5 16.3047 18.5 16.5C18.5 17.9062 17.3672 19 16 19C15.7656 19 15.5312 19 15.3359 18.9219L11.5078 22.75H13.8125C14.2422 22.0078 15.0625 21.5 16 21.5C16.8984 21.5 17.7188 22.0078 18.1484 22.75H21.3125C21.7422 22.0078 22.5625 21.5 23.4609 21.5C24.8672 21.5 25.9609 22.6328 25.9609 24C25.9609 25.4062 24.8672 26.5 23.4609 26.5C22.5625 26.5 21.7422 26.0312 21.3125 25.25H18.1484C17.7188 26.0312 16.8984 26.5 15.9609 26.5C15.0625 26.5 14.2422 26.0312 13.8125 25.25H10.6484C10.2188 26.0312 9.39844 26.5 8.5 26.5C7.09375 26.5 6 25.4062 6 24C6 22.6328 7.09375 21.5 8.5 21.5C8.69531 21.5 8.92969 21.5391 9.125 21.6172L13.5781 17.1641C13.5 16.9688 13.4609 16.7344 13.4609 16.5C13.4609 15.1328 14.5938 14 15.9609 14C16.1953 14 16.4297 14.0391 16.625 14.1172L20.4531 10.25H18.1484C17.7188 11.0312 16.8984 11.5 15.9609 11.5C15.0625 11.5 14.2422 11.0312 13.8125 10.25H10.6484C10.2188 11.0312 9.39844 11.5 8.5 11.5C7.09375 11.5 6 10.4062 6 9ZM6 16.5C6 17.3984 6.46875 18.2188 7.25 18.6875C7.99219 19.1172 8.96875 19.1172 9.75 18.6875C10.4922 18.2188 11 17.3984 11 16.5C11 15.6406 10.4922 14.8203 9.75 14.3516C8.96875 13.9219 7.99219 13.9219 7.25 14.3516C6.46875 14.8203 6 15.6406 6 16.5ZM21 16.5C21 17.3984 21.4688 18.2188 22.25 18.6875C22.9922 19.1172 23.9688 19.1172 24.75 18.6875C25.4922 18.2188 26 17.3984 26 16.5C26 15.6406 25.4922 14.8203 24.75 14.3516C23.9688 13.9219 22.9922 13.9219 22.25 14.3516C21.4688 14.8203 21 15.6406 21 16.5Z" fill="black" fill-opacity="0.72"/>
</g>
</svg>
