<svg width="32" height="32" viewBox="0 0 32 32" fill="none" xmlns="http://www.w3.org/2000/svg">
<g id="standalone / md / fingerprint-md / bold">
<path id="icon" d="M7.875 16.5V18.0625C7.82292 18.6354 7.51042 18.9479 6.9375 19C6.36458 18.9479 6.05208 18.6354 6 18.0625V16.5C6.02604 14.625 6.48177 12.9453 7.36719 11.4609C8.2526 9.95052 9.45052 8.7526 10.9609 7.86719C12.4453 6.98177 14.125 6.52604 16 6.5C17.5365 6.5 18.9557 6.8125 20.2578 7.4375C21.5599 8.0625 22.6667 8.90885 23.5781 9.97656C23.9167 10.4453 23.8906 10.888 23.5 11.3047C23.0312 11.6432 22.5885 11.6172 22.1719 11.2266C21.4167 10.3411 20.5052 9.65104 19.4375 9.15625C18.3958 8.63542 17.25 8.375 16 8.375C13.7083 8.42708 11.7943 9.22135 10.2578 10.7578C8.72135 12.2943 7.92708 14.2083 7.875 16.5ZM25.8047 14.4297C25.9349 15.1068 26 15.7969 26 16.5V18.0625C25.9479 18.6354 25.6354 18.9479 25.0625 19C24.4896 18.9479 24.1771 18.6354 24.125 18.0625V16.5C24.125 15.9271 24.0729 15.3672 23.9688 14.8203C23.8906 14.2474 24.125 13.8828 24.6719 13.7266C25.2448 13.6484 25.6224 13.8828 25.8047 14.4297ZM16 9.625C17.9531 9.67708 19.5807 10.3542 20.8828 11.6562C22.1589 12.9323 22.8229 14.5469 22.875 16.5V17.4766C22.875 18.5703 22.8099 19.651 22.6797 20.7188C22.5755 21.2135 22.276 21.474 21.7812 21.5C21.4688 21.5 21.2344 21.3958 21.0781 21.1875C20.8958 20.9792 20.8177 20.7188 20.8438 20.4062C20.9479 19.4427 21 18.4661 21 17.4766V16.5C20.974 15.0938 20.4922 13.9089 19.5547 12.9453C18.5911 12.0078 17.4062 11.526 16 11.5C15.5573 11.5 15.1276 11.5521 14.7109 11.6562C14.2422 11.7865 13.8516 11.6953 13.5391 11.3828C13.3307 11.1224 13.2656 10.849 13.3438 10.5625C13.3958 10.276 13.5781 10.0807 13.8906 9.97656C14.5417 9.74219 15.2448 9.625 16 9.625ZM11.8984 12.3203C12.1849 12.737 12.1849 13.1797 11.8984 13.6484C11.3255 14.4818 11.026 15.4323 11 16.5V17.4766C11 18.5964 10.8698 19.7161 10.6094 20.8359C10.4792 21.2526 10.1927 21.474 9.75 21.5C9.4375 21.5 9.1901 21.3698 9.00781 21.1094C8.82552 20.875 8.76042 20.6016 8.8125 20.2891C9.02083 19.3516 9.125 18.4141 9.125 17.4766V16.5C9.15104 14.8854 9.63281 13.4792 10.5703 12.2812C10.7526 12.0729 10.974 11.9688 11.2344 11.9688C11.4688 11.9948 11.6901 12.112 11.8984 12.3203ZM19.75 16.5V17.4766C19.75 19.0391 19.5938 20.5755 19.2812 22.0859C19.1771 22.5026 18.9036 22.724 18.4609 22.75C18.2005 22.75 17.9792 22.6458 17.7969 22.4375C17.6406 22.2292 17.5885 21.9818 17.6406 21.6953C17.901 20.2891 18.0312 18.8828 18.0312 17.4766V16.5C18.0052 15.9271 17.8099 15.4453 17.4453 15.0547C17.0547 14.6901 16.5729 14.4948 16 14.4688C15.4271 14.4948 14.9453 14.6901 14.5547 15.0547C14.1901 15.4453 13.9948 15.9271 13.9688 16.5V17.4766C13.9688 19.0651 13.7604 20.6276 13.3438 22.1641C13.2135 22.5286 12.9531 22.724 12.5625 22.75C12.25 22.75 12.0156 22.6328 11.8594 22.3984C11.7031 22.1641 11.651 21.9036 11.7031 21.6172C12.0677 20.263 12.25 18.8828 12.25 17.4766V16.5C12.276 15.4323 12.6406 14.5469 13.3438 13.8438C14.0469 13.1406 14.9323 12.776 16 12.75C17.0677 12.776 17.9531 13.1406 18.6562 13.8438C19.3594 14.5469 19.724 15.4323 19.75 16.5ZM16 15.5625C16.5729 15.6146 16.8854 15.9271 16.9375 16.5V17.4766C16.9375 20.0547 16.4688 22.5547 15.5312 24.9766L15.2969 25.6016C15.0625 26.0964 14.6589 26.2656 14.0859 26.1094C13.5911 25.875 13.4219 25.4714 13.5781 24.8984L13.8125 24.3125C14.6458 22.125 15.0625 19.8464 15.0625 17.4766V16.5C15.1146 15.9271 15.4271 15.6146 16 15.5625Z" fill="black" fill-opacity="0.72"/>
</g>
</svg>
