<svg width="32" height="32" viewBox="0 0 32 32" fill="none" xmlns="http://www.w3.org/2000/svg">
<g id="standalone / md / objects-column-md / bold">
<path id="icon" d="M9.125 9.625V15.875H12.875V9.625H9.125ZM7.25 9.625C7.25 8.60938 8.07031 7.75 9.125 7.75H12.875C13.8906 7.75 14.75 8.60938 14.75 9.625V15.875C14.75 16.9297 13.8906 17.75 12.875 17.75H9.125C8.07031 17.75 7.25 16.9297 7.25 15.875V9.625ZM19.125 17.125V23.375H22.875V17.125H19.125ZM17.25 17.125C17.25 16.1094 18.0703 15.25 19.125 15.25H22.875C23.8906 15.25 24.75 16.1094 24.75 17.125V23.375C24.75 24.4297 23.8906 25.25 22.875 25.25H19.125C18.0703 25.25 17.25 24.4297 17.25 23.375V17.125ZM12.875 20.875H9.125V23.375H12.875V20.875ZM9.125 19H12.875C13.8906 19 14.75 19.8594 14.75 20.875V23.375C14.75 24.4297 13.8906 25.25 12.875 25.25H9.125C8.07031 25.25 7.25 24.4297 7.25 23.375V20.875C7.25 19.8594 8.07031 19 9.125 19ZM19.125 9.625V12.125H22.875V9.625H19.125ZM17.25 9.625C17.25 8.60938 18.0703 7.75 19.125 7.75H22.875C23.8906 7.75 24.75 8.60938 24.75 9.625V12.125C24.75 13.1797 23.8906 14 22.875 14H19.125C18.0703 14 17.25 13.1797 17.25 12.125V9.625Z" fill="black" fill-opacity="0.72"/>
</g>
</svg>
