<svg width="32" height="32" viewBox="0 0 32 32" fill="none" xmlns="http://www.w3.org/2000/svg">
<g id="standalone / md / info-md / bold">
<path id="icon" d="M14.4375 9.3125C14.4375 8.76562 14.7109 8.25781 15.2188 7.98438C15.6875 7.71094 16.2734 7.71094 16.7812 7.98438C17.25 8.25781 17.5625 8.76562 17.5625 9.3125C17.5625 9.89844 17.25 10.4062 16.7812 10.6797C16.2734 10.9531 15.6875 10.9531 15.2188 10.6797C14.7109 10.4062 14.4375 9.89844 14.4375 9.3125ZM12.875 14.3125C12.875 13.8047 13.2656 13.375 13.8125 13.375H16C16.5078 13.375 16.9375 13.8047 16.9375 14.3125V24.625H18.8125C19.3203 24.625 19.75 25.0547 19.75 25.5625C19.75 26.1094 19.3203 26.5 18.8125 26.5H13.1875C12.6406 26.5 12.25 26.1094 12.25 25.5625C12.25 25.0547 12.6406 24.625 13.1875 24.625H15.0625V15.25H13.8125C13.2656 15.25 12.875 14.8594 12.875 14.3125Z" fill="black" fill-opacity="0.72"/>
</g>
</svg>
