<svg width="32" height="32" viewBox="0 0 32 32" fill="none" xmlns="http://www.w3.org/2000/svg">
<g id="standalone / md / facebook-messenger-md">
<path id="icon" d="M16 6.8125C21.4688 6.8125 25.6875 10.8359 25.6875 16.2266C25.6875 23.0625 19.1641 26.8906 13.1875 25.25C12.8359 25.1719 12.7969 25.25 10.7656 26.1484C10.4922 26.2266 10.2188 26.2266 10.0234 26.0703C9.78906 25.9531 9.67188 25.7188 9.67188 25.4453C9.59375 23.6484 9.67188 23.4922 9.35938 23.1797C7.44531 21.5 6.3125 19.0391 6.3125 16.2266C6.3125 10.8359 10.5312 6.8125 16 6.8125ZM21.8203 14.0781C22.0938 13.6484 21.5859 13.1406 21.1562 13.4531L18.1094 15.7578C17.875 15.9141 17.6016 15.9141 17.4062 15.7578L15.1406 14.0781C14.7891 13.8438 14.3984 13.7266 14.0078 13.8047C13.5781 13.8828 13.2266 14.1172 13.0312 14.4688L10.1797 18.9609C9.90625 19.3906 10.4141 19.8984 10.8438 19.5859L13.8906 17.2812C14.125 17.125 14.3984 17.125 14.5938 17.2812L16.8594 18.9609C17.2109 19.1953 17.6016 19.3125 18.0312 19.2344C18.4219 19.1562 18.7734 18.9219 18.9688 18.5703L21.8203 14.0781Z" fill="black" fill-opacity="0.72"/>
</g>
</svg>
