<svg width="32" height="32" viewBox="0 0 32 32" fill="none" xmlns="http://www.w3.org/2000/svg">
<g id="standalone / md / scissors-md / fill">
<path id="icon" d="M16 14L21.4688 8.53125C22.6016 7.39844 24.3594 7.39844 25.4922 8.53125C25.7656 8.80469 25.7656 9.23438 25.4922 9.50781L14.4375 20.5625C14.6328 21.0703 14.75 21.5781 14.75 22.125C14.75 24.5469 12.7578 26.5 10.375 26.5C7.95312 26.5 6 24.5469 6 22.125C6 19.7422 7.95312 17.75 10.375 17.75C10.9219 17.75 11.4297 17.8672 11.9375 18.0625L13.5 16.5L11.9375 14.9766C11.4297 15.1719 10.9219 15.25 10.375 15.25C7.95312 15.25 6 13.2969 6 10.875C6 8.49219 7.95312 6.5 10.375 6.5C12.7578 6.5 14.75 8.49219 14.75 10.875C14.75 11.4609 14.6328 11.9688 14.4375 12.4766L16 14ZM16.8594 19.8984L19.3594 17.3984L25.4922 23.5312C25.7656 23.8047 25.7656 24.2344 25.4922 24.5078C24.3594 25.6406 22.6016 25.6406 21.4688 24.5078L16.8594 19.8984ZM8.5 10.875C8.5 11.5781 8.85156 12.1641 9.4375 12.5156C9.98438 12.8672 10.7266 12.8672 11.3125 12.5156C11.8594 12.1641 12.25 11.5781 12.25 10.875C12.25 10.2109 11.8594 9.625 11.3125 9.27344C10.7266 8.92188 9.98438 8.92188 9.4375 9.27344C8.85156 9.625 8.5 10.2109 8.5 10.875ZM10.375 20.25C9.67188 20.25 9.08594 20.6406 8.73438 21.1875C8.38281 21.7734 8.38281 22.5156 8.73438 23.0625C9.08594 23.6484 9.67188 24 10.375 24C11.0391 24 11.625 23.6484 11.9766 23.0625C12.3281 22.5156 12.3281 21.7734 11.9766 21.1875C11.625 20.6406 11.0391 20.25 10.375 20.25Z" fill="black" fill-opacity="0.72"/>
</g>
</svg>
