<svg width="32" height="32" viewBox="0 0 32 32" fill="none" xmlns="http://www.w3.org/2000/svg">
<g id="standalone / md / eye-slash-md / regular">
<path id="icon" d="M4.47656 6.65625L28.2656 25.4062C28.5 25.6016 28.5781 26.0312 28.3438 26.2656C28.1484 26.5391 27.7578 26.6172 27.4844 26.3828L3.73438 7.63281C3.46094 7.4375 3.38281 7.00781 3.61719 6.77344C3.8125 6.5 4.24219 6.42188 4.47656 6.65625ZM27.1328 17.0078C26.7422 17.9453 26.0391 19.2344 25.0234 20.4844L24.0469 19.7031C24.9844 18.5312 25.6094 17.3984 26 16.5C25.4531 15.25 24.3203 13.375 22.6406 11.8125C20.9609 10.25 18.7344 9 16 9C14.4375 9 13.0312 9.42969 11.8203 10.0547L10.7656 9.19531C12.25 8.33594 13.9688 7.75 16 7.75C19.125 7.75 21.6641 9.19531 23.5 10.9141C25.3359 12.5938 26.5469 14.625 27.1328 16.0312C27.25 16.3438 27.25 16.6953 27.1328 17.0078ZM6.9375 12.5547L7.91406 13.3359C6.97656 14.4688 6.35156 15.6406 6 16.5C6.50781 17.75 7.64062 19.625 9.32031 21.1875C11 22.75 13.2266 24 16 24C17.5234 24 18.9297 23.6094 20.1406 22.9844L21.1953 23.8438C19.75 24.7031 17.9922 25.25 16 25.25C12.8359 25.25 10.2969 23.8438 8.46094 22.125C6.625 20.4062 5.41406 18.375 4.82812 17.0078C4.71094 16.6953 4.71094 16.3438 4.82812 16.0312C5.21875 15.0938 5.92188 13.8047 6.9375 12.5547ZM16 21.5C13.2266 21.5 11 19.2734 11 16.5C11 16.2656 11 16.0312 11.0391 15.7969L12.25 16.7344C12.3672 18.7266 14.0078 20.25 16 20.25C16.1953 20.25 16.4297 20.25 16.625 20.2109L17.8359 21.1484C17.25 21.3828 16.625 21.5 16 21.5ZM21 16.5V16.5391C21 16.7734 20.9609 17.0078 20.9219 17.2422L19.7109 16.3047C19.5938 14.3125 17.9922 12.7891 16 12.7891C15.7656 12.7891 15.5312 12.7891 15.3359 12.8281L14.125 11.8906C14.7109 11.6562 15.3359 11.5 16 11.5C18.7344 11.5 21 13.7656 21 16.5Z" fill="black" fill-opacity="0.72"/>
</g>
</svg>
