<svg width="32" height="32" viewBox="0 0 32 32" fill="none" xmlns="http://www.w3.org/2000/svg">
<g id="standalone / md / book-circle-question-md / bold">
<path id="icon" d="M3.5 9.9375C3.5 8.0625 5.02344 6.5 6.9375 6.5H18.8125C19.9844 6.5 21 7.51562 21 8.6875V14.2734C20.2969 14.4688 19.6719 14.7422 19.125 15.1328V8.6875C19.125 8.53125 18.9688 8.375 18.8125 8.375H6.9375C6.03906 8.375 5.375 9.07812 5.375 9.9375V20.5234C5.72656 20.3672 6.15625 20.25 6.625 20.25H16C16 20.4844 16 20.6797 16 20.875C16 21.3047 16.0391 21.7344 16.0781 22.125H6.625C5.92188 22.125 5.375 22.7109 5.375 23.375C5.375 24.0781 5.92188 24.625 6.625 24.625H17.0938C17.5625 25.3672 18.1875 26.0312 18.8906 26.5H6.625C4.86719 26.5 3.5 25.1328 3.5 23.375C3.5 23.2969 3.5 23.1797 3.5 23.0625V9.9375ZM8.5 11.8125C8.5 11.3047 8.89062 10.875 9.4375 10.875H16.3125C16.8203 10.875 17.25 11.3047 17.25 11.8125C17.25 12.3594 16.8203 12.75 16.3125 12.75H9.4375C8.89062 12.75 8.5 12.3594 8.5 11.8125ZM8.5 14.9375C8.5 14.4297 8.89062 14 9.4375 14H16.3125C16.8203 14 17.25 14.4297 17.25 14.9375C17.25 15.4844 16.8203 15.875 16.3125 15.875H9.4375C8.89062 15.875 8.5 15.4844 8.5 14.9375ZM17.25 20.875C17.25 17.7891 19.75 15.25 22.875 15.25C25.9609 15.25 28.5 17.7891 28.5 20.875C28.5 24 25.9609 26.5 22.875 26.5C19.75 26.5 17.25 24 17.25 20.875ZM20.375 19.0781V19.3125C20.375 19.6641 20.6484 19.9375 21 19.9375C21.3125 19.9375 21.625 19.6641 21.625 19.3125V19.0781C21.625 18.8828 21.7812 18.6875 21.9766 18.6875H23.5781C23.8516 18.6875 24.125 18.9609 24.125 19.2344C24.125 19.4688 24.0078 19.625 23.8125 19.7422L22.5625 20.3672C22.3672 20.4844 22.25 20.7188 22.25 20.9531V21.5C22.25 21.8516 22.5234 22.125 22.875 22.125C23.1875 22.125 23.5 21.8516 23.5 21.5V21.3047L24.3984 20.8359C24.9844 20.5234 25.375 19.8984 25.375 19.2344C25.375 18.2578 24.5547 17.4766 23.5781 17.4766H21.9766C21.0781 17.4766 20.375 18.1797 20.375 19.0781ZM21.9375 23.6875C21.9375 24.2344 22.3281 24.625 22.875 24.625C23.3828 24.625 23.8125 24.2344 23.8125 23.6875C23.8125 23.1797 23.3828 22.75 22.875 22.75C22.3281 22.75 21.9375 23.1797 21.9375 23.6875Z" fill="black" fill-opacity="0.72"/>
</g>
</svg>
