<svg width="32" height="32" viewBox="0 0 32 32" fill="none" xmlns="http://www.w3.org/2000/svg">
<g id="standalone / md / deriv-p2p-md / fill">
<path id="icon" d="M11.5859 14.8203C11.4297 14.7812 11.2734 14.7812 11.0781 14.7812H10.8047C10.7656 14.7812 10.7266 14.8203 10.6875 14.8203C10.6484 14.8203 10.6094 14.8203 10.5703 14.8203V16.4219H11C11.4297 16.4219 11.7422 16.3828 11.9766 16.2656C12.2109 16.1484 12.2891 15.9141 12.2891 15.6016C12.2891 15.4453 12.2891 15.2891 12.2109 15.2109C12.1719 15.0938 12.0938 15.0156 11.9766 14.9375C11.8594 14.8984 11.7422 14.8594 11.5859 14.8203ZM20.6094 14.8203C20.4922 14.7812 20.2969 14.7812 20.1406 14.7812H19.8281C19.75 14.7812 19.7109 14.8203 19.6719 14.8203H19.6328V16.4219H20.0234C20.4531 16.4219 20.8047 16.3828 21 16.2656C21.2344 16.1484 21.3516 15.9141 21.3516 15.6016C21.3516 15.4453 21.3125 15.2891 21.2344 15.2109C21.1953 15.0938 21.1172 15.0156 21 14.9375C20.9219 14.8984 20.7656 14.8594 20.6094 14.8203ZM9.75 6.5H22.25C24.3203 6.5 26 8.17969 26 10.25V22.75C26 24.8203 24.3203 26.5 22.25 26.5H9.75C7.67969 26.5 6 24.8203 6 22.75V10.25C6 8.17969 7.67969 6.5 9.75 6.5ZM10.6484 13.7266C10.4922 13.7266 10.3359 13.7266 10.1797 13.7266C10.0234 13.7656 9.86719 13.7656 9.75 13.8047C9.59375 13.8047 9.4375 13.8438 9.32031 13.8438V19.3906H10.5703V17.5156H11C11.8203 17.5156 12.4844 17.3594 12.9141 17.0469C13.3828 16.7734 13.6172 16.2656 13.6172 15.6016C13.6172 14.9375 13.3828 14.4297 12.9531 14.1562C12.4844 13.8438 11.8594 13.6875 11 13.6875C10.8828 13.6875 10.7656 13.7266 10.6484 13.7266ZM17.4062 14.5859C17.3281 14.3906 17.2109 14.2344 17.0547 14.0781C16.8984 13.9609 16.7031 13.8438 16.4688 13.7656C16.2344 13.6875 15.9609 13.6484 15.6094 13.6484C15.2578 13.6484 14.9062 13.7266 14.5938 13.8828C14.2812 14 14.0078 14.1953 13.7734 14.4297L14.3594 15.25C14.3984 15.2109 14.4766 15.1719 14.5547 15.1328C14.6328 15.0547 14.7109 14.9766 14.8281 14.9375C14.9062 14.8594 15.0234 14.8203 15.1797 14.7812C15.2969 14.7031 15.4141 14.7031 15.5703 14.7031C15.7656 14.7031 15.9609 14.7422 16.0781 14.8203C16.2344 14.9375 16.2734 15.0938 16.2734 15.3281C16.2734 15.4453 16.2734 15.5625 16.1953 15.6797C16.1562 15.7578 16.0781 15.875 16 15.9922L15.3359 16.6562C15.2578 16.7344 15.1406 16.8125 15.0625 16.8906C14.9844 16.9688 14.9062 17.0469 14.8281 17.125C14.6719 17.2812 14.5156 17.4766 14.3594 17.6719C14.2422 17.8672 14.125 18.0625 14.0469 18.2578C13.9688 18.4922 13.9297 18.7266 13.9297 19V19.3906H17.6797V18.375H15.2578C15.2969 18.3359 15.3359 18.2578 15.375 18.1797C15.4531 18.1016 15.5312 18.0234 15.6094 17.9062C15.6875 17.8672 15.7266 17.7891 15.8047 17.75C15.8047 17.7109 15.8438 17.6719 15.8828 17.6328L16.625 16.8906C16.7812 16.7734 16.8984 16.6172 17.0156 16.4609C17.0547 16.4219 17.0547 16.4219 17.0938 16.3828C17.2109 16.2266 17.3281 16.0312 17.4062 15.8359C17.4844 15.6406 17.5234 15.4453 17.5234 15.25C17.5234 15.0156 17.4844 14.7812 17.4062 14.5859ZM20.0625 13.6875H20.0234C19.9062 13.6875 19.8281 13.7266 19.7109 13.7266C19.5547 13.7266 19.3984 13.7266 19.2422 13.7266C18.9297 13.7656 18.6172 13.8047 18.3438 13.8438V19.3906H19.6328V17.5156H20.0234C20.8438 17.5156 21.5078 17.3594 21.9766 17.0469C22.4062 16.7734 22.6406 16.2656 22.6406 15.6016C22.6406 14.9375 22.4062 14.4297 21.9766 14.1562C21.5078 13.8828 20.8828 13.7266 20.0234 13.6875H20.0625Z" fill="black" fill-opacity="0.72"/>
</g>
</svg>
