<svg width="32" height="32" viewBox="0 0 32 32" fill="none" xmlns="http://www.w3.org/2000/svg">
<g id="standalone / md / qrcode-md / fill">
<path id="icon" d="M7.25 9.625C7.25 8.60938 8.07031 7.75 9.125 7.75H12.875C13.8906 7.75 14.75 8.60938 14.75 9.625V13.375C14.75 14.4297 13.8906 15.25 12.875 15.25H9.125C8.07031 15.25 7.25 14.4297 7.25 13.375V9.625ZM9.75 10.25V12.75H12.25V10.25H9.75ZM7.25 19.625C7.25 18.6094 8.07031 17.75 9.125 17.75H12.875C13.8906 17.75 14.75 18.6094 14.75 19.625V23.375C14.75 24.4297 13.8906 25.25 12.875 25.25H9.125C8.07031 25.25 7.25 24.4297 7.25 23.375V19.625ZM9.75 20.25V22.75H12.25V20.25H9.75ZM19.125 7.75H22.875C23.8906 7.75 24.75 8.60938 24.75 9.625V13.375C24.75 14.4297 23.8906 15.25 22.875 15.25H19.125C18.0703 15.25 17.25 14.4297 17.25 13.375V9.625C17.25 8.60938 18.0703 7.75 19.125 7.75ZM22.25 10.25H19.75V12.75H22.25V10.25ZM17.25 18.375C17.25 18.0625 17.5234 17.75 17.875 17.75H20.375C20.6875 17.75 21 18.0625 21 18.375C21 18.7266 21.2734 19 21.625 19H22.875C23.1875 19 23.5 18.7266 23.5 18.375C23.5 18.0625 23.7734 17.75 24.125 17.75C24.4375 17.75 24.75 18.0625 24.75 18.375V22.125C24.75 22.4766 24.4375 22.75 24.125 22.75H21.625C21.2734 22.75 21 22.4766 21 22.125C21 21.8125 20.6875 21.5 20.375 21.5C20.0234 21.5 19.75 21.8125 19.75 22.125V24.625C19.75 24.9766 19.4375 25.25 19.125 25.25H17.875C17.5234 25.25 17.25 24.9766 17.25 24.625V18.375ZM21.625 25.25C21.2734 25.25 21 24.9766 21 24.625C21 24.3125 21.2734 24 21.625 24C21.9375 24 22.25 24.3125 22.25 24.625C22.25 24.9766 21.9375 25.25 21.625 25.25ZM24.125 25.25C23.7734 25.25 23.5 24.9766 23.5 24.625C23.5 24.3125 23.7734 24 24.125 24C24.4375 24 24.75 24.3125 24.75 24.625C24.75 24.9766 24.4375 25.25 24.125 25.25Z" fill="black" fill-opacity="0.72"/>
</g>
</svg>
