<svg width="24" height="16" viewBox="0 0 24 16" fill="none" xmlns="http://www.w3.org/2000/svg">
<g id="flags / flag-guadeloupe-1">
<g id="flag">
<path fill-rule="evenodd" clip-rule="evenodd" d="M22 0H2C0.89543 0 0 0.89543 0 2V5H24V2C24 0.89543 23.1046 0 22 0ZM12 1.5C11.7239 1.5 11.5 1.72386 11.5 2V4C11.5 4.27614 11.7239 4.5 12 4.5C12.2761 4.5 12.5 4.27614 12.5 4V2C12.5 1.72386 12.2761 1.5 12 1.5ZM6.5 2C6.5 1.72386 6.72386 1.5 7 1.5C7.27614 1.5 7.5 1.72386 7.5 2V4C7.5 4.27614 7.27614 4.5 7 4.5C6.72386 4.5 6.5 4.27614 6.5 4V2ZM17 1.5C16.7239 1.5 16.5 1.72386 16.5 2V4C16.5 4.27614 16.7239 4.5 17 4.5C17.2761 4.5 17.5 4.27614 17.5 4V2C17.5 1.72386 17.2761 1.5 17 1.5Z" fill="#002488"/>
<path d="M11.5 2C11.5 1.72386 11.7239 1.5 12 1.5C12.2761 1.5 12.5 1.72386 12.5 2V4C12.5 4.27614 12.2761 4.5 12 4.5C11.7239 4.5 11.5 4.27614 11.5 4V2Z" fill="#FCDD09"/>
<path d="M6.5 2C6.5 1.72386 6.72386 1.5 7 1.5C7.27614 1.5 7.5 1.72386 7.5 2V4C7.5 4.27614 7.27614 4.5 7 4.5C6.72386 4.5 6.5 4.27614 6.5 4V2Z" fill="#FCDD09"/>
<path d="M16.5 2C16.5 1.72386 16.7239 1.5 17 1.5C17.2761 1.5 17.5 1.72386 17.5 2V4C17.5 4.27614 17.2761 4.5 17 4.5C16.7239 4.5 16.5 4.27614 16.5 4V2Z" fill="#FCDD09"/>
<path fill-rule="evenodd" clip-rule="evenodd" d="M24 5H0V14C0 15.1046 0.89543 16 2 16H22C23.1046 16 24 15.1046 24 14V5ZM8.5 6C8.5 5.72386 8.27614 5.5 8 5.5C7.72386 5.5 7.5 5.72386 7.5 6V6.54371L6.76844 6.07817C6.53547 5.92992 6.22642 5.99859 6.07817 6.23156C5.92991 6.46453 5.99859 6.77358 6.23156 6.92183L6.87531 7.33149L6.32913 7.5301C6.06961 7.62447 5.93573 7.91136 6.0301 8.17087C6.12447 8.43039 6.41135 8.56427 6.67087 8.4699L7.93938 8.00862L8.38258 8.29066C8.13723 8.80898 8 9.38846 8 10C8 12.2091 9.79086 14 12 14C13.2388 14 14.3461 13.4368 15.0798 12.5525L17.2316 13.9218C17.4645 14.0701 17.7736 14.0014 17.9218 13.7684C18.0701 13.5355 18.0014 13.2264 17.7684 13.0782L15.6174 11.7093C15.8628 11.191 16 10.6115 16 10C16 7.79086 14.2091 6 12 6C10.7612 6 9.65388 6.56317 8.92017 7.44745L8.5 7.18007V6Z" fill="#DA121A"/>
<path d="M16 10C16 12.2091 14.2091 14 12 14C9.79086 14 8 12.2091 8 10C8 7.79086 9.79086 6 12 6C14.2091 6 16 7.79086 16 10Z" fill="#FCDD09"/>
<path d="M8.5 6C8.5 5.72386 8.27614 5.5 8 5.5C7.72386 5.5 7.5 5.72386 7.5 6V6.54371L6.76844 6.07817C6.53547 5.92992 6.22642 5.99859 6.07817 6.23156C5.92991 6.46453 5.99859 6.77358 6.23156 6.92183L6.87531 7.33149L6.32913 7.5301C6.06961 7.62447 5.93573 7.91136 6.0301 8.17087C6.12447 8.43039 6.41135 8.56427 6.67087 8.4699L7.93938 8.00862L8.38258 8.29066C8.52653 7.98658 8.70768 7.70355 8.92017 7.44745L8.5 7.18007V6Z" fill="#018000"/>
<path d="M15.6174 11.7093C15.4735 12.0134 15.2923 12.2964 15.0798 12.5525L17.2316 13.9218C17.4645 14.0701 17.7736 14.0014 17.9218 13.7684C18.0701 13.5355 18.0014 13.2264 17.7684 13.0782L15.6174 11.7093Z" fill="#018000"/>
<path fill-rule="evenodd" clip-rule="evenodd" d="M22 1H2C1.44772 1 1 1.44772 1 2V14C1 14.5523 1.44772 15 2 15H22C22.5523 15 23 14.5523 23 14V2C23 1.44771 22.5523 1 22 1ZM2 0C0.89543 0 0 0.89543 0 2V14C0 15.1046 0.89543 16 2 16H22C23.1046 16 24 15.1046 24 14V2C24 0.89543 23.1046 0 22 0H2Z" fill="black" fill-opacity="0.08"/>
</g>
</g>
</svg>
