<svg width="24" height="16" viewBox="0 0 24 16" fill="none" xmlns="http://www.w3.org/2000/svg">
<g id="flags / flag-american samoa">
<g id="flag">
<path d="M2 0H18L0 8V2C0 0.89543 0.89543 0 2 0Z" fill="#000066"/>
<path d="M18 16L0 8V14C0 15.1046 0.89543 16 2 16H18Z" fill="#000066"/>
<path d="M22 16L4 8L22 0H18L0 8L18 16H22Z" fill="#BD1021"/>
<path fill-rule="evenodd" clip-rule="evenodd" d="M22 0C23.1046 0 24 0.89543 24 2V14C24 15.1046 23.1046 16 22 16L4 8L22 0ZM15.3284 8.84829H13.8226C13.5861 8.84829 13.3945 8.65664 13.3945 8.42025C13.3945 8.18378 13.5861 7.99221 13.8226 7.99221H14.2522C14.1122 7.74845 14.0316 7.46644 14.0316 7.16568C14.0316 6.2472 14.7788 5.5 15.6972 5.5L20.9664 3.5C21.1379 3.5 21.2928 3.60231 21.3601 3.76002C21.4274 3.91776 21.3941 4.10041 21.2755 4.22418L18.5815 7.99224H20.9665C21.2029 7.99224 21.3945 8.18385 21.3945 8.42028C21.3945 8.65674 21.2029 8.84832 20.9665 8.84832H19.0067V9.65782C19.0067 9.89429 18.8151 10.0859 18.5787 10.0859H16.9347C16.1688 10.0859 15.522 9.56079 15.3284 8.84829ZM15.2594 10.5034H19.5297C19.7661 10.5034 19.9577 10.695 19.9577 10.9315C19.9577 11.1679 19.7661 11.3595 19.5297 11.3595H15.2594C15.0229 11.3595 14.8313 11.1679 14.8313 10.9315C14.8313 10.695 15.0229 10.5034 15.2594 10.5034Z" fill="white"/>
<path d="M13.8226 8.84829H15.3284C15.522 9.56079 16.1688 10.0859 16.9347 10.0859H18.5787C18.8151 10.0859 19.0067 9.89429 19.0067 9.65782V8.84832H20.9665C21.2029 8.84832 21.3945 8.65674 21.3945 8.42028C21.3945 8.18385 21.2029 7.99224 20.9665 7.99224H18.5815L21.2755 4.22418C21.3941 4.10041 21.4274 3.91776 21.3601 3.76002C21.2928 3.60231 21.1379 3.5 20.9664 3.5L15.6972 5.5C14.7788 5.5 14.0316 6.2472 14.0316 7.16568C14.0316 7.46644 14.1122 7.74845 14.2522 7.99221H13.8226C13.5861 7.99221 13.3945 8.18378 13.3945 8.42025C13.3945 8.65664 13.5861 8.84829 13.8226 8.84829Z" fill="#9C3900"/>
<path d="M19.5297 10.5034H15.2594C15.0229 10.5034 14.8313 10.695 14.8313 10.9315C14.8313 11.1679 15.0229 11.3595 15.2594 11.3595H19.5297C19.7661 11.3595 19.9577 11.1679 19.9577 10.9315C19.9577 10.695 19.7661 10.5034 19.5297 10.5034Z" fill="#FFE000"/>
<path fill-rule="evenodd" clip-rule="evenodd" d="M22 1H2C1.44772 1 1 1.44772 1 2V14C1 14.5523 1.44772 15 2 15H22C22.5523 15 23 14.5523 23 14V2C23 1.44771 22.5523 1 22 1ZM2 0C0.89543 0 0 0.89543 0 2V14C0 15.1046 0.89543 16 2 16H22C23.1046 16 24 15.1046 24 14V2C24 0.89543 23.1046 0 22 0H2Z" fill="black" fill-opacity="0.08"/>
</g>
</g>
</svg>
