<svg width="24" height="16" viewBox="0 0 24 16" fill="none" xmlns="http://www.w3.org/2000/svg">
<g id="flags / flag-cook islands">
<g id="flag">
<path d="M22 0H2C0.89543 0 4.99999e-08 0.89543 4.99999e-08 2V14C4.99999e-08 15.1046 0.89543 16 2 16H22C23.1046 16 24 15.1046 24 14V2C24 0.89543 23.1046 0 22 0Z" fill="#000089"/>
<path d="M5 0V2.13149L1.81538 0.00840766C1.04206 0.0791862 0.396074 0.590195 0.130201 1.28865L2.69722 3H2.563e-06L0 5H2.69722L2.563e-06 6.79815V8H1.80278L5 5.86852V8H7V5.86852L10.1972 8H12V6.79815L9.30277 5H12V3H9.30277L12 1.20185V0H10.1972L7 2.13149V0H5Z" fill="white"/>
<path d="M5.5 0V3.5H0V4.5H5.5V8H6.5V4.5H12V3.5H6.5V0H5.5Z" fill="#F44336"/>
<path d="M11.5493 0L7.04932 3H7.9507L12 0.300469V0H11.5493Z" fill="#F44336"/>
<path d="M2.563e-06 8L0.450704 8L4.9507 5H4.04932L0 7.69954L2.563e-06 8Z" fill="#F44336"/>
<path d="M0.524331 0.650019L4.0493 3H4.95069L0.92268 0.31466C0.775637 0.40885 0.641733 0.521757 0.524331 0.650019Z" fill="#F44336"/>
<path d="M7.95069 5L12 7.69954V8L11.5493 8L7.0493 5H7.95069Z" fill="#F44336"/>
<path d="M17.3902 3.23899L18.0097 3.05755L18.6292 3.23899L18.4478 2.6195L18.6292 2L18.0097 2.18145L17.3902 2L17.5717 2.6195L17.3902 3.23899Z" fill="white"/>
<path d="M17.3902 12L18.0097 11.8186L18.6292 12L18.4478 11.3805L18.6292 10.761L18.0097 10.9425L17.3902 10.761L17.5717 11.3805L17.3902 12Z" fill="white"/>
<path d="M22.3902 7.43805L21.7707 7.6195L21.9522 7L21.7707 6.3805L22.3902 6.56195L23.0097 6.3805L22.8283 7L23.0097 7.6195L22.3902 7.43805Z" fill="white"/>
<path d="M13.0097 7.6195L13.6292 7.43805L14.2487 7.6195L14.0673 7L14.2487 6.3805L13.6292 6.56195L13.0097 6.3805L13.1912 7L13.0097 7.6195Z" fill="white"/>
<path d="M21.8034 5.2478L21.1839 5.42924L21.3653 4.80975L21.1839 4.19025L21.8034 4.3717L22.4229 4.19025L22.2414 4.80975L22.4229 5.42924L21.8034 5.2478Z" fill="white"/>
<path d="M13.5966 9.80975L14.2161 9.6283L14.8356 9.80975L14.6542 9.19025L14.8356 8.57076L14.2161 8.7522L13.5966 8.57076L13.7781 9.19025L13.5966 9.80975Z" fill="white"/>
<path d="M20.2 3.64442L19.5805 3.82587L19.7619 3.20637L19.5805 2.58688L20.2 2.76832L20.8195 2.58688L20.638 3.20637L20.8195 3.82587L20.2 3.64442Z" fill="white"/>
<path d="M15.2 11.4131L15.8195 11.2317L16.439 11.4131L16.2575 10.7936L16.439 10.1741L15.8195 10.3556L15.2 10.1741L15.3814 10.7936L15.2 11.4131Z" fill="white"/>
<path d="M21.8034 9.6283L21.1839 9.80975L21.3653 9.19025L21.1839 8.57076L21.8034 8.7522L22.4229 8.57076L22.2414 9.19025L22.4229 9.80975L21.8034 9.6283Z" fill="white"/>
<path d="M13.5966 5.42924L14.2161 5.2478L14.8356 5.42924L14.6542 4.80975L14.8356 4.19025L14.2161 4.3717L13.5966 4.19025L13.7781 4.80975L13.5966 5.42924Z" fill="white"/>
<path d="M20.2 11.2317L19.5805 11.4131L19.7619 10.7936L19.5805 10.1741L20.2 10.3556L20.8195 10.1741L20.638 10.7936L20.8195 11.4131L20.2 11.2317Z" fill="white"/>
<path d="M15.2 3.82587L15.8195 3.64442L16.439 3.82587L16.2575 3.20637L16.439 2.58688L15.8195 2.76832L15.2 2.58688L15.3814 3.20637L15.2 3.82587Z" fill="white"/>
<path fill-rule="evenodd" clip-rule="evenodd" d="M22 1H2C1.44772 1 1 1.44772 1 2V14C1 14.5523 1.44772 15 2 15H22C22.5523 15 23 14.5523 23 14V2C23 1.44771 22.5523 1 22 1ZM2 0C0.89543 0 4.99999e-08 0.89543 4.99999e-08 2V14C4.99999e-08 15.1046 0.89543 16 2 16H22C23.1046 16 24 15.1046 24 14V2C24 0.89543 23.1046 0 22 0H2Z" fill="black" fill-opacity="0.08"/>
</g>
</g>
</svg>
