<svg width="24" height="16" viewBox="0 0 24 16" fill="none" xmlns="http://www.w3.org/2000/svg">
<g id="flags / flag-liechtenstein">
<g id="flag">
<path d="M0 8H24V14C24 15.1046 23.1046 16 22 16H2C0.89543 16 0 15.1046 0 14V8Z" fill="#CE1126"/>
<path d="M2 0H22C23.1046 0 24 0.89543 24 2V8H0V2C0 0.89543 0.89543 0 2 0Z" fill="#002B7F"/>
<path d="M7.34737 4.54248C7.3464 4.33245 7.28485 4.12716 7.17011 3.95124C7.05538 3.77532 6.89232 3.63624 6.70051 3.55068C6.50869 3.46512 6.29626 3.43672 6.08871 3.46889C5.88116 3.50106 5.68729 3.59242 5.53037 3.73203V3.0915H5.89312V2.36275H5.53037V2H4.80161V2.36275H4.43887V3.0915H4.80161V3.73203C4.58477 3.54626 4.30377 3.45287 4.01887 3.47187C3.73397 3.49087 3.46786 3.62076 3.2776 3.83367C3.08735 4.04659 2.9881 4.32558 3.00114 4.61081C3.01418 4.89605 3.13848 5.16481 3.34737 5.35948V6H6.98135V5.35948C7.20357 5.16013 7.3441 4.86928 7.3441 4.54248H7.34737Z" fill="#FFDA44"/>
<path fill-rule="evenodd" clip-rule="evenodd" d="M22 1H2C1.44772 1 1 1.44772 1 2V14C1 14.5523 1.44772 15 2 15H22C22.5523 15 23 14.5523 23 14V2C23 1.44771 22.5523 1 22 1ZM2 0C0.89543 0 0 0.89543 0 2V14C0 15.1046 0.89543 16 2 16H22C23.1046 16 24 15.1046 24 14V2C24 0.89543 23.1046 0 22 0H2Z" fill="black" fill-opacity="0.08"/>
</g>
</g>
</svg>
