<svg width="24" height="16" viewBox="0 0 24 16" fill="none" xmlns="http://www.w3.org/2000/svg">
<g id="flags / flag-cameroon">
<g id="flag">
<path d="M16 0H22C23.1046 0 24 0.89543 24 2V14C24 15.1046 23.1046 16 22 16H16V0Z" fill="#FCD116"/>
<path d="M16 0H8V16H16V0Z" fill="#CE1126"/>
<path d="M2 0H8V16H2C0.89543 16 0 15.1046 0 14V2C0 0.89543 0.89543 0 2 0Z" fill="#007A5E"/>
<path fill-rule="evenodd" clip-rule="evenodd" d="M22 1H2C1.44772 1 1 1.44772 1 2V14C1 14.5523 1.44772 15 2 15H22C22.5523 15 23 14.5523 23 14V2C23 1.44771 22.5523 1 22 1ZM2 0C0.89543 0 0 0.89543 0 2V14C0 15.1046 0.89543 16 2 16H22C23.1046 16 24 15.1046 24 14V2C24 0.89543 23.1046 0 22 0H2Z" fill="black" fill-opacity="0.08"/>
<path fill-rule="evenodd" clip-rule="evenodd" d="M12 9.48849L10.53 10.2615L10.81 8.62449L9.62201 7.46449L11.265 7.22749L12 5.73849L12.735 7.22849L14.378 7.4655L13.188 8.62549L13.468 10.2615" fill="#FCD116"/>
</g>
</g>
</svg>
