<svg width="24" height="16" viewBox="0 0 24 16" fill="none" xmlns="http://www.w3.org/2000/svg">
<g id="flags / flag-northern mariana islands">
<g id="flag">
<path d="M22 0H2C0.89543 0 0 0.89543 0 2V14C0 15.1046 0.89543 16 2 16H22C23.1046 16 24 15.1046 24 14V2C24 0.89543 23.1046 0 22 0Z" fill="#0071BC"/>
<path fill-rule="evenodd" clip-rule="evenodd" d="M11.9748 4.13321C12.4821 4.12989 12.9851 4.22667 13.455 4.41801C13.9248 4.60935 14.3524 4.89149 14.713 5.24828C15.0737 5.60507 15.3605 6.0295 15.5569 6.49727C15.6529 6.7258 15.7264 6.96269 15.7767 7.20439C15.7745 7.22388 15.7753 7.24403 15.7794 7.26428C15.8308 7.51733 15.8569 7.77422 15.8578 8.03121C15.855 8.51951 15.7595 9.00302 15.5762 9.45599C15.3859 9.92629 15.1047 10.3544 14.7488 10.7159C14.3928 11.0774 13.969 11.3651 13.5016 11.5626C13.0343 11.7601 12.5326 11.8634 12.0253 11.8667C11.518 11.8701 11.015 11.7733 10.5451 11.5819C10.0752 11.3906 9.64768 11.1085 9.28699 10.7517C8.92631 10.3949 8.63954 9.97045 8.4431 9.50268C8.34678 9.27332 8.27311 9.03575 8.22278 8.79335C8.2222 8.78911 8.22149 8.78487 8.22062 8.78061C8.11899 8.27984 8.11609 7.76404 8.2121 7.26215C8.21288 7.25807 8.21353 7.25399 8.21404 7.24992C8.26121 7.00896 8.33135 6.77247 8.42381 6.54396C8.61411 6.07366 8.8953 5.64551 9.25129 5.28403C9.60727 4.92255 10.0311 4.63484 10.4984 4.43736C10.9657 4.23989 11.4674 4.13653 11.9748 4.13321ZM8.52924 7.99998C8.52924 6.07415 10.0849 4.51615 12 4.51615C13.9151 4.51615 15.4707 6.07415 15.4707 7.99998C15.4707 9.92582 13.9151 11.4838 12 11.4838C10.0849 11.4838 8.52924 9.92582 8.52924 7.99998Z" fill="white"/>
<path fill-rule="evenodd" clip-rule="evenodd" d="M12 3.35486C9.44002 3.35486 7.36795 5.43632 7.36795 7.99998C7.36795 10.5636 9.44002 12.6451 12 12.6451C14.56 12.6451 16.632 10.5636 16.632 7.99998C16.632 5.43632 14.56 3.35486 12 3.35486ZM16.1478 8.91193C16.0967 9.14675 16.0256 9.37736 15.9351 9.60119C15.7257 10.1187 15.4163 10.5898 15.0246 10.9875C14.6329 11.3853 14.1665 11.7019 13.6523 11.9192C13.1381 12.1364 12.5861 12.2502 12.0278 12.2538C11.4696 12.2575 10.9161 12.151 10.3991 11.9405C9.88207 11.7299 9.41165 11.4195 9.01477 11.0269C8.61789 10.6343 8.30234 10.1673 8.0862 9.65256C7.87005 9.13785 7.75755 8.58557 7.75514 8.02733C7.75024 7.4691 7.85559 6.91625 8.06498 6.39876C8.27437 5.88127 8.58377 5.41017 8.97548 5.01242C9.36719 4.61466 9.8335 4.29808 10.3477 4.08079C10.8619 3.8635 11.414 3.74978 11.9722 3.74612C12.5305 3.74247 13.0839 3.84896 13.6009 4.0595C14.118 4.27004 14.5884 4.58049 14.9853 4.97308C15.3822 5.36567 15.6977 5.83269 15.9138 6.34739C16.13 6.8621 16.2424 7.41352 16.2448 7.97176C16.245 7.99174 16.245 8.01171 16.2449 8.03168C16.2458 8.30742 16.2202 8.58326 16.1681 8.85537C16.1642 8.87571 16.1573 8.89469 16.1478 8.91193Z" fill="white"/>
<path fill-rule="evenodd" clip-rule="evenodd" d="M16.0496 7.77992C16.1565 7.77898 16.2439 7.86487 16.2448 7.97176C16.2497 8.52999 16.1445 9.0837 15.9351 9.60119C15.7257 10.1187 15.4163 10.5898 15.0246 10.9875C14.6329 11.3853 14.1665 11.7019 13.6523 11.9192C13.1381 12.1364 12.5861 12.2502 12.0278 12.2538C11.4696 12.2575 10.9161 12.151 10.3991 11.9405C9.88207 11.7299 9.41165 11.4195 9.01477 11.0269C8.61789 10.6343 8.30234 10.1673 8.0862 9.65256C7.87005 9.13785 7.75755 8.58557 7.75514 8.02733C7.75468 7.92044 7.84094 7.83341 7.94784 7.83295C8.05473 7.83248 8.14176 7.91876 8.14222 8.02566C8.14441 8.53299 8.24667 9.03491 8.4431 9.50268C8.63954 9.97045 8.92631 10.3949 9.28699 10.7517C9.64768 11.1085 10.0752 11.3906 10.5451 11.5819C11.015 11.7733 11.518 11.8701 12.0253 11.8667C12.5326 11.8634 13.0343 11.7601 13.5016 11.5626C13.969 11.3651 14.3928 11.0774 14.7488 10.7159C15.1047 10.3544 15.3859 9.92629 15.5762 9.45599C15.7665 8.98569 15.8622 8.48248 15.8577 7.97516C15.8568 7.86827 15.9427 7.78086 16.0496 7.77992Z" fill="#FCEA2B"/>
<path fill-rule="evenodd" clip-rule="evenodd" d="M13.455 4.41801C12.9851 4.22667 12.4821 4.12989 11.9748 4.13321C11.4674 4.13653 10.9657 4.23989 10.4984 4.43736C10.0311 4.63484 9.60727 4.92255 9.25129 5.28403C8.8953 5.64551 8.61411 6.07366 8.42381 6.54396C8.23352 7.01426 8.13777 7.51834 8.14222 8.02566C8.14316 8.13255 8.05734 8.2191 7.95045 8.22003C7.84356 8.22097 7.75607 8.13422 7.75514 8.02733C7.75024 7.4691 7.85559 6.91625 8.06498 6.39876C8.27437 5.88127 8.58377 5.41017 8.97548 5.01242C9.36719 4.61466 9.8335 4.29808 10.3477 4.08079C10.8619 3.8635 11.414 3.74978 11.9722 3.74612C12.5305 3.74247 13.0839 3.84896 13.6009 4.0595C14.118 4.27004 14.5884 4.58049 14.9853 4.97308C15.3822 5.36567 15.6977 5.83269 15.9138 6.34739C16.13 6.8621 16.2424 7.41352 16.2448 7.97176C16.2453 8.07866 16.1591 8.16655 16.0522 8.16701C15.9453 8.16747 15.8582 8.08205 15.8577 7.97516C15.8555 7.46782 15.7534 6.96504 15.5569 6.49727C15.3605 6.0295 15.0737 5.60507 14.713 5.24828C14.3524 4.89149 13.9248 4.60935 13.455 4.41801Z" fill="#D22F27"/>
<path fill-rule="evenodd" clip-rule="evenodd" d="M8.05835 7.03568C8.16334 7.05577 8.23219 7.15716 8.2121 7.26215C8.11609 7.76404 8.11899 8.27984 8.22062 8.78061C8.24188 8.88537 8.17419 8.98753 8.06943 9.00879C7.96467 9.03006 7.86251 8.96237 7.84125 8.85761C7.72959 8.30746 7.72641 7.74079 7.83189 7.18942C7.85197 7.08443 7.95336 7.0156 8.05835 7.03568Z" fill="#5C9E31"/>
<path fill-rule="evenodd" clip-rule="evenodd" d="M15.9306 7.0361C16.0353 7.01484 16.1375 7.08253 16.1588 7.18728C16.2704 7.73741 16.2736 8.30404 16.1681 8.85537C16.148 8.96036 16.0466 9.02919 15.9416 9.0091C15.8366 8.98901 15.7678 8.88761 15.7879 8.78262C15.8839 8.28078 15.8811 7.76502 15.7794 7.26428C15.7582 7.15953 15.8258 7.05737 15.9306 7.0361Z" fill="#5C9E31"/>
<path d="M11.8098 5.58539C11.8696 5.40113 12.1303 5.40113 12.1902 5.58539L12.6286 6.93473C12.6554 7.01714 12.7322 7.07293 12.8188 7.07293H14.2376C14.4314 7.07293 14.5119 7.32085 14.3552 7.43473L13.2074 8.26867C13.1373 8.3196 13.1079 8.40988 13.1347 8.49228L13.5731 9.84162C13.633 10.0259 13.4221 10.1791 13.2654 10.0652L12.1175 9.23129C12.0474 9.18036 11.9525 9.18036 11.8824 9.23129L10.7346 10.0652C10.5779 10.1791 10.367 10.0259 10.4268 9.84162L10.8653 8.49228C10.892 8.40988 10.8627 8.3196 10.7926 8.26867L9.6448 7.43473C9.48806 7.32085 9.56861 7.07293 9.76236 7.07293H11.1811C11.2678 7.07293 11.3446 7.01714 11.3714 6.93473L11.8098 5.58539Z" fill="white"/>
<path d="M13.4098 14.6666H10.5902C10.2813 14.6666 10.0462 14.3892 10.097 14.0844L10.7713 10.0385L11.8824 9.23129C11.9525 9.18036 12.0474 9.18036 12.1175 9.23129L13.2287 10.0385L13.903 14.0844C13.9538 14.3892 13.7187 14.6666 13.4098 14.6666Z" fill="#9B9B9A"/>
<path d="M12.731 7.0526C12.6834 7.02931 12.6458 6.98748 12.6286 6.93473L12.1902 5.58539C12.1303 5.40113 11.8696 5.40113 11.8098 5.58539L11.3714 6.93473C11.3542 6.98748 11.3166 7.02931 11.269 7.0526L11.2718 7.03585C11.2831 6.96819 11.2803 6.89893 11.2637 6.83238L11.0442 5.95456C10.9653 5.63899 11.204 5.33329 11.5293 5.33329H12.4707C12.796 5.33329 13.0347 5.63899 12.9558 5.95456L12.7363 6.83242C12.7197 6.89897 12.7169 6.96823 12.7282 7.03589L12.731 7.0526Z" fill="#9B9B9A"/>
<path fill-rule="evenodd" clip-rule="evenodd" d="M22 1H2C1.44772 1 1 1.44772 1 2V14C1 14.5523 1.44772 15 2 15H22C22.5523 15 23 14.5523 23 14V2C23 1.44771 22.5523 1 22 1ZM2 0C0.89543 0 0 0.89543 0 2V14C0 15.1046 0.89543 16 2 16H22C23.1046 16 24 15.1046 24 14V2C24 0.89543 23.1046 0 22 0H2Z" fill="black" fill-opacity="0.08"/>
</g>
</g>
</svg>
