<svg width="24" height="16" viewBox="0 0 24 16" fill="none" xmlns="http://www.w3.org/2000/svg">
<g id="flags / flag-saint barthelemy">
<g id="flag">
<path d="M9.15211 8.20842V9.1524C9.03346 9.12273 8.86717 9.30732 8.7488 9.43871C8.71966 9.47105 8.69343 9.50018 8.67152 9.52209H8.56061C8.39351 9.39355 8.22195 9.33652 8.06922 9.31681C7.84966 9.57069 7.6478 9.77494 7.53797 9.88258C7.66108 9.83047 7.80908 9.77536 7.98595 9.7164C7.98595 9.7164 7.81458 10.2326 7.85027 10.7576L7.88887 10.7685C8.35709 10.8758 8.87988 10.945 9.14504 10.9652C9.68634 11.0069 9.7697 11.1435 9.7697 11.2775C9.7697 11.2975 9.75692 11.3164 9.73415 11.3341C9.72238 11.3564 9.7049 11.3822 9.68106 11.412C9.53954 11.5888 9.36926 11.8512 9.32803 12.1534C9.74821 12.3917 10.215 12.6303 10.6618 12.7494C11.3313 12.9283 12.0003 12.8834 12.0003 12.8834C12.0003 12.8834 12.6693 12.9283 13.3377 12.7494C13.7853 12.6306 14.2525 12.3914 14.673 12.1528C14.6317 11.8509 14.4617 11.5887 14.319 11.412C14.2954 11.3824 14.2781 11.3567 14.2664 11.3345C14.2433 11.3167 14.2304 11.2976 14.2304 11.2775C14.2304 11.1435 14.3137 11.0069 14.8545 10.9652C15.1203 10.945 15.6429 10.8758 16.1111 10.7686L16.1503 10.7575C16.1865 10.2325 16.0141 9.7164 16.0141 9.7164C16.1909 9.7753 16.3388 9.83037 16.4619 9.88243C16.3521 9.77476 16.1503 9.57057 15.9308 9.31681C15.7781 9.33652 15.6065 9.39355 15.4394 9.52209H15.3285C15.3066 9.50018 15.2804 9.47107 15.2513 9.43874C15.1329 9.30735 14.9666 9.12273 14.8479 9.1524V8.20444C14.8377 8.37784 14.8159 8.53961 14.7843 8.69075C14.5552 9.78501 13.8226 10.3215 13.3552 10.6639C13.3178 10.6913 13.2821 10.7174 13.2485 10.7425C12.7141 11.144 12.0003 11.4125 12.0003 11.4125C12.0003 11.4125 11.2865 11.144 10.751 10.7425C10.7163 10.7165 10.6794 10.6894 10.6407 10.6609C10.1742 10.318 9.44422 9.78144 9.21624 8.69075C9.17747 8.57172 9.15999 8.36794 9.15211 8.20842Z" fill="white"/>
<path d="M16.703 6.76445C16.6995 6.84594 16.6964 6.91784 16.6964 6.97123C16.5618 6.94431 16.4468 6.95659 16.3657 6.96526C16.3354 6.9685 16.3098 6.97123 16.2897 6.97123C16.2897 6.82335 16.2897 6.63851 16.3267 6.5276C16.3267 6.50912 16.3729 6.46291 16.4422 6.39359C16.5116 6.32427 16.604 6.23185 16.6964 6.12094C16.7227 6.30496 16.7116 6.56381 16.703 6.76445Z" fill="white"/>
<path d="M17.3618 8.22817L17.14 8.04333V7.82151C17.1928 7.84792 17.2456 7.96862 17.2985 8.08933C17.3196 8.13762 17.3407 8.18592 17.3618 8.22817Z" fill="white"/>
<path d="M7.30366 6.12094C7.27737 6.30498 7.28847 6.5638 7.29708 6.76445C7.30057 6.84594 7.30366 6.91784 7.30366 6.97123C7.43826 6.94431 7.55327 6.95659 7.63439 6.96526C7.66466 6.9685 7.69022 6.97123 7.71032 6.97123C7.71032 6.82335 7.71031 6.63851 7.67335 6.5276C7.67335 6.50912 7.62714 6.46291 7.55782 6.39359C7.4885 6.32427 7.39608 6.23185 7.30366 6.12094Z" fill="white"/>
<path d="M6.63822 8.22817L6.86003 8.04333V7.82151C6.80722 7.84792 6.7544 7.96863 6.70159 8.08935C6.68047 8.13763 6.65934 8.18593 6.63822 8.22817Z" fill="white"/>
<path fill-rule="evenodd" clip-rule="evenodd" d="M2 0H22C23.1046 0 24 0.89543 24 2V14C24 15.1046 23.1046 16 22 16H2C0.89543 16 0 15.1046 0 14V2C0 0.89543 0.89543 0 2 0ZM15.3451 2.71381L15.4348 2.44633L15.8801 2.57981L15.6575 3.15962L15.5235 3.1153L14.8545 4.58724C14.8545 4.58724 14.7728 4.5632 14.6379 4.52776C14.7613 4.56018 14.8401 4.58306 14.8527 4.58674L14.8545 4.58724L14.8545 7.82192C14.9219 7.83045 14.9219 7.96939 14.9219 7.96939C14.8864 8.25331 15.0553 9.9682 15.6903 9.02558C15.322 8.55662 14.9784 7.99814 14.9958 7.56273C14.9702 6.89622 15.4423 6.51412 15.9437 6.10829C16.1654 5.92886 16.3928 5.74478 16.5855 5.52944C16.5855 5.52944 16.6963 5.2191 16.5919 5.18203C16.0688 5.4335 15.0294 6.20168 14.9958 6.26882L15.0328 6.37973C14.9589 6.4167 14.9219 6.26882 14.9219 6.26882C14.9816 5.97028 15.7645 5.18958 16.0637 4.90013C16.0218 4.43175 16.4327 4.48084 16.5302 4.49248C16.5391 4.49355 16.5455 4.49431 16.5485 4.49431C16.4708 4.28699 16.2659 4.116 16.1503 4.01955C16.101 3.97841 16.0679 3.95083 16.0679 3.93978C16.1049 3.71796 16.5855 4.12462 16.8073 4.34643C16.7334 4.08765 16.6225 3.90281 16.6225 3.90281C16.7703 3.82887 16.9552 4.08765 17.0661 4.30946V4.08765C17.2509 4.08765 17.3618 4.60522 17.3618 4.864C17.3803 4.75309 17.3988 4.66066 17.4127 4.59134C17.4265 4.52203 17.4358 4.47582 17.4358 4.45734C17.6576 4.49431 17.6206 4.97491 17.5837 5.15975L17.6946 5.04884V5.27066C17.9864 4.9523 18.1069 4.63394 18.1653 4.47953C18.1883 4.41882 18.2017 4.3834 18.2121 4.3834C18.397 4.34643 18.2491 4.93794 18.1752 5.15975C18.3032 4.98907 18.3696 4.83071 18.41 4.73439C18.4396 4.66381 18.4553 4.62655 18.4709 4.64219C18.8036 4.864 18.1012 5.67732 17.9533 5.82519C18.4703 5.51505 18.6439 5.18683 18.7268 5.03003C18.7625 4.96255 18.7814 4.92681 18.8036 4.93794C18.897 5.18062 18.6604 5.50815 18.5413 5.67299C18.4246 5.83458 18.4208 5.83982 18.9515 5.4555C19.1364 5.30763 18.7297 6.08397 18.7297 6.08397L18.6983 6.10887C18.7597 6.06219 19.0183 5.87212 19.0994 5.89913C19.3212 6.047 18.6558 6.56457 18.6558 6.56457C18.6391 6.59785 18.7124 6.55623 18.8047 6.50376C18.9175 6.43967 19.0587 6.3594 19.0994 6.37973C19.2473 6.56457 18.5818 6.97123 18.5818 6.97123C18.4253 7.06903 18.5483 7.01159 18.6988 6.94128C18.8327 6.87871 18.9885 6.80594 18.9885 6.82335C19.2103 7.04517 18.0643 7.45182 18.0643 7.45182C18.397 7.78454 18.5448 8.0803 18.4709 8.11727C18.4252 8.1401 18.2949 8.03598 18.1584 7.9269C18.0739 7.85939 17.987 7.78997 17.9164 7.74758C18.1752 8.00636 18.2861 8.41302 18.1382 8.44999C18.1126 8.44999 18.0694 8.3793 18.01 8.28222C17.8976 8.09847 17.7274 7.82014 17.5097 7.74758C17.6206 8.00636 17.7315 8.30211 17.6576 8.48695C17.6576 8.48695 18.1012 9.00452 18.1752 9.1524C18.2861 9.30027 18.0643 9.2633 18.0643 9.2633C18.0643 9.2633 18.397 9.63299 18.5818 9.7439C18.7144 9.84332 18.3716 9.76449 18.2459 9.72046C18.3569 9.7713 18.5079 9.89533 18.5079 9.92874C18.397 10.0027 18.1012 9.78087 18.1012 9.78087C18.1012 9.78087 18.1752 9.89177 18.1012 9.92874C17.9903 9.92874 17.7685 9.7439 17.7685 9.7439C17.7685 9.7439 17.8055 9.8548 17.7685 9.8548C17.7252 9.81153 17.5173 9.6416 17.3449 9.5007C17.2229 9.40105 17.1184 9.31558 17.1031 9.30027C16.9182 9.48512 16.8443 9.96571 16.8443 9.96571H16.643L16.7703 9.96571V10.0365C16.957 10.1521 17.0169 10.2547 17.0095 10.3571C17.0315 10.3211 17.0402 10.2962 17.0402 10.2962C17.0402 10.2962 17.0402 10.3859 16.9959 10.6528C16.9735 10.7861 16.9069 10.8972 16.8402 11.0085C16.7732 11.1202 16.7061 11.2321 16.6836 11.3667C16.6797 11.3902 16.6762 11.4128 16.6728 11.4343C16.6381 11.6567 16.62 11.7721 16.4156 11.8125C16.193 11.8573 15.7023 11.9022 15.7023 11.9022C15.7023 11.9022 15.7023 12.3026 15.7915 12.5263C15.8801 12.7489 15.5688 13.1509 14.3638 13.5967C13.2609 14.0061 12.7194 14.0028 12.156 13.9994C12.1044 13.9991 12.0527 13.9987 12.0003 13.9987C11.948 13.9987 11.8962 13.9991 11.8447 13.9994C11.2816 14.0028 10.7397 14.0061 9.63622 13.5967C8.43229 13.1515 8.11943 12.7494 8.20912 12.5263C8.29828 12.3026 8.29828 11.9022 8.29828 11.9022C8.29828 11.9022 7.80763 11.8573 7.58447 11.8125C7.3813 11.7721 7.3631 11.657 7.32803 11.4353L7.32313 11.4044L7.31699 11.3667C7.29458 11.2327 7.22762 11.1212 7.16072 11.0097C7.09375 10.8981 7.02683 10.7867 7.00466 10.6528C6.95982 10.3859 6.95982 10.2962 6.95982 10.2962C6.95982 10.2962 6.96871 10.3216 6.99127 10.3581C6.98334 10.2554 7.04279 10.1526 7.22973 10.0367V9.96571L7.35734 9.96571H7.15578C7.15578 9.96571 7.08184 9.48512 6.897 9.30027C6.88169 9.31558 6.77757 9.40067 6.65559 9.50035C6.48309 9.64133 6.27487 9.81149 6.23156 9.8548C6.19459 9.8548 6.23156 9.7439 6.23156 9.7439C6.23156 9.7439 6.00974 9.92874 5.89884 9.92874C5.8249 9.89177 5.89884 9.78087 5.89884 9.78087C5.89884 9.78087 5.60309 10.0027 5.49218 9.92874C5.49218 9.89533 5.6432 9.7713 5.75413 9.72046C5.62846 9.76449 5.28568 9.84332 5.41824 9.7439C5.60309 9.63299 5.93581 9.2633 5.93581 9.2633C5.93581 9.2633 5.71399 9.30027 5.8249 9.1524C5.89884 9.00452 6.34246 8.48695 6.34246 8.48695C6.26853 8.30211 6.37943 8.00636 6.49034 7.74758C6.27264 7.82014 6.10242 8.09847 5.99003 8.28222C5.93066 8.3793 5.88743 8.44999 5.86187 8.44999C5.71399 8.41302 5.8249 8.00636 6.08368 7.74758C6.01302 7.78997 5.92614 7.85939 5.84165 7.9269C5.70513 8.03598 5.57482 8.1401 5.52915 8.11727C5.45521 8.0803 5.60309 7.78454 5.93581 7.45182C5.93581 7.45182 4.78977 7.04517 5.01158 6.82335C5.01158 6.80594 5.16733 6.87871 5.30127 6.94128C5.45177 7.01159 5.57473 7.06903 5.41824 6.97123C5.41824 6.97123 4.7528 6.56457 4.90068 6.37973C4.94133 6.3594 5.08259 6.43967 5.19537 6.50376C5.2877 6.55623 5.36094 6.59785 5.3443 6.56457C5.3443 6.56457 4.67886 6.047 4.90068 5.89913C4.9817 5.87212 5.2403 6.06215 5.3017 6.10886L5.27037 6.08397C5.27037 6.08397 4.86371 5.30763 5.04855 5.4555C5.57927 5.83982 5.57549 5.83458 5.45876 5.67299C5.33968 5.50815 5.10309 5.18062 5.19643 4.93794C5.21867 4.92681 5.23757 4.96255 5.27327 5.03003C5.3562 5.18683 5.5298 5.51505 6.04671 5.82519C5.89884 5.67732 5.19643 4.864 5.52915 4.64219C5.54478 4.62655 5.56042 4.66381 5.59003 4.7344C5.63045 4.83071 5.69689 4.98908 5.8249 5.15975C5.75096 4.93794 5.60309 4.34643 5.78793 4.3834C5.79837 4.3834 5.81176 4.41878 5.83475 4.47953C5.89319 4.63394 6.01367 4.9523 6.3055 5.27066V5.04884L6.4164 5.15975C6.37943 4.97491 6.34246 4.49431 6.56428 4.45734C6.56428 4.47582 6.57352 4.52203 6.58738 4.59135C6.60125 4.66066 6.61973 4.75309 6.63822 4.864C6.63822 4.60522 6.74912 4.08765 6.93397 4.08765V4.30946C7.04487 4.08765 7.22972 3.82887 7.37759 3.90281C7.37759 3.90281 7.26669 4.08765 7.19275 4.34643C7.41456 4.12462 7.89516 3.71796 7.93213 3.93978C7.93213 3.95083 7.89908 3.97841 7.84978 4.01954C7.73419 4.11599 7.52928 4.28699 7.45153 4.49431C7.45458 4.49431 7.46091 4.49355 7.4699 4.49248C7.56735 4.48084 7.97827 4.43176 7.93636 4.90014C8.23553 5.18959 9.01847 5.97028 9.07817 6.26882C9.07817 6.26882 9.0412 6.4167 8.96727 6.37973L9.00424 6.26882C8.97067 6.20168 7.93125 5.4335 7.40819 5.18203C7.30373 5.21911 7.41456 5.52944 7.41456 5.52944C7.60724 5.74478 7.83467 5.92886 8.05636 6.10829C8.55778 6.51412 9.02986 6.89622 9.00423 7.56273C9.02164 7.99814 8.67804 8.55662 8.30971 9.02558C8.94473 9.9682 9.11366 8.25331 9.07817 7.96939C9.07817 7.96939 9.07817 7.83029 9.14563 7.82191L9.14557 4.58724L9.14733 4.58674C9.15703 4.58391 9.206 4.56974 9.28432 4.54861C9.19648 4.57231 9.14557 4.58724 9.14557 4.58724L8.47661 3.1153L8.34313 3.15962L8.11996 2.57981L8.56577 2.44633L8.6544 2.71381L8.83272 2.66897L8.7884 2.40149L9.23473 2.31233L9.28327 2.59458L9.4579 2.54604V2.22264L9.90476 2.17885L9.94222 2.45741L10.2619 2.40149V2.57981H10.3506V2.35664H10.5737V2.53549H10.7072V2.31233H10.9298V2.49012L11.1087 2.4458V2.04432L11.5534 2V2.26748H11.7766V2H12.2229V2.26748H12.4461V2L12.8924 2.04432V2.44633L13.0708 2.49065V2.31233H13.2934V2.53549H13.4279V2.35664H13.6506V2.57981H13.7397V2.40149L14.0589 2.45741L14.0964 2.17885L14.5427 2.22317L14.5422 2.54657L14.7168 2.59511L14.7659 2.31233L15.2117 2.40149L15.1673 2.66897L15.3451 2.71381Z" fill="white"/>
<path d="M12.3569 10.2518C12.3569 10.1178 12.4909 10.1178 12.4909 10.1178C12.4909 9.93951 12.6693 10.0281 12.6693 10.0281L12.5358 10.9651H11.4653L11.3319 10.0281C11.3319 10.0281 11.5102 9.93951 11.5102 10.1178C11.5102 10.1178 11.6437 10.1178 11.6437 10.2518C11.6437 10.3864 11.5102 10.4302 11.5102 10.4302C11.5102 10.4302 11.5993 10.5636 11.7328 10.5636C11.8663 10.5636 11.9111 10.4302 11.9111 10.4302C11.9111 10.4302 11.7328 10.3864 11.7328 10.2967C11.7328 10.207 11.8668 10.1627 11.8668 10.1627C11.8668 10.1627 11.8668 9.93951 12.0003 9.93951C12.1338 9.93951 12.1338 10.1627 12.1338 10.1627C12.1338 10.1627 12.2678 10.207 12.2678 10.2967C12.2678 10.3864 12.0895 10.4302 12.0895 10.4302C12.0895 10.4302 12.1338 10.5636 12.2678 10.5636C12.4013 10.5636 12.4909 10.4302 12.4909 10.4302C12.4909 10.4302 12.3569 10.3864 12.3569 10.2518Z" fill="#EACE23"/>
<path d="M11.3313 9.09222C11.3313 8.95716 11.4648 8.95717 11.4648 8.95717C11.4648 8.7799 11.6442 8.86853 11.6442 8.86853L11.5107 9.80551H10.4397L10.3062 8.86853C10.3062 8.86853 10.484 8.7799 10.484 8.95717C10.484 8.95717 10.618 8.95716 10.618 9.09222C10.618 9.2257 10.484 9.27055 10.484 9.27055C10.484 9.27055 10.5737 9.40402 10.7072 9.40402C10.8412 9.40402 10.8855 9.27055 10.8855 9.27055C10.8855 9.27055 10.7072 9.2257 10.7072 9.13707C10.7072 9.04685 10.8412 9.00201 10.8412 9.00201C10.8412 9.00201 10.8412 8.7799 10.9747 8.7799C11.1087 8.7799 11.1087 9.00201 11.1087 9.00201C11.1087 9.00201 11.2422 9.04685 11.2422 9.13707C11.2422 9.2257 11.0638 9.27055 11.0638 9.27055C11.0638 9.27055 11.1087 9.40402 11.2422 9.40402C11.3762 9.40402 11.4648 9.27055 11.4648 9.27055C11.4648 9.27055 11.3313 9.2257 11.3313 9.09222Z" fill="#EACE23"/>
<path d="M13.3831 9.09222C13.3831 8.95716 13.5166 8.95717 13.5166 8.95717C13.5166 8.7799 13.6954 8.86853 13.6954 8.86853L13.5614 9.80551H12.4909L12.3569 8.86853C12.3569 8.86853 12.5353 8.7799 12.5353 8.95717C12.5353 8.95717 12.6687 8.95716 12.6687 9.09222C12.6687 9.2257 12.5353 9.27055 12.5353 9.27055C12.5353 9.27055 12.6244 9.40402 12.7579 9.40402C12.8924 9.40402 12.9367 9.27055 12.9367 9.27055C12.9367 9.27055 12.7579 9.2257 12.7579 9.13707C12.7579 9.04685 12.8924 9.00201 12.8924 9.00201C12.8924 9.00201 12.8924 8.7799 13.0259 8.7799C13.1599 8.7799 13.1599 9.00201 13.1599 9.00201C13.1599 9.00201 13.2934 9.04685 13.2934 9.13707C13.2934 9.2257 13.1151 9.27055 13.1151 9.27055C13.1151 9.27055 13.1599 9.40402 13.2934 9.40402C13.4279 9.40402 13.5166 9.27055 13.5166 9.27055C13.5166 9.27055 13.3831 9.2257 13.3831 9.09222Z" fill="#EACE23"/>
<path fill-rule="evenodd" clip-rule="evenodd" d="M15.3451 2.71381L15.4348 2.44633L15.8801 2.57981L15.6575 3.15962L15.5235 3.1153L14.8545 4.58724C14.8545 4.58724 14.0964 4.36407 13.3831 4.27491C12.6693 4.18575 12.0003 4.18575 12.0003 4.18575C12.0003 4.18575 11.3313 4.18575 10.6175 4.27491C9.90423 4.3646 9.14557 4.58724 9.14557 4.58724L8.47661 3.1153L8.34313 3.15962L8.11996 2.57981L8.56577 2.44633L8.6544 2.71381L8.83272 2.66897L8.7884 2.40149L9.23473 2.31233L9.28327 2.59458L9.4579 2.54604V2.22264L9.90476 2.17885L9.94222 2.45741L10.2619 2.40149V2.57981H10.3506V2.35664H10.5737V2.53549H10.7072V2.31233H10.9298V2.49012L11.1087 2.4458V2.04432L11.5534 2V2.26748H11.7766V2H12.2229V2.26748H12.4461V2L12.8924 2.04432V2.44633L13.0708 2.49065V2.31233H13.2934V2.53549H13.4279V2.35664H13.6506V2.57981H13.7397V2.40149L14.0589 2.45741L14.0964 2.17885L14.5427 2.22317L14.5422 2.54657L14.7168 2.59511L14.7659 2.31233L15.2117 2.40149L15.1673 2.66897L15.3451 2.71381ZM11.822 2.89164C11.822 2.79351 11.9016 2.71384 12.0003 2.71384C12.0989 2.71384 12.1786 2.79351 12.1791 2.89164V3.33797H11.822V2.89164ZM9.17036 3.20924C9.14503 3.11322 9.20254 3.01614 9.29803 2.99135C9.39352 2.96655 9.49113 3.02353 9.51539 3.11955L9.62777 3.55111L9.28273 3.6408L9.17036 3.20924ZM14.8302 3.20924C14.8545 3.11322 14.798 3.01614 14.702 2.99135C14.6065 2.96655 14.5094 3.02353 14.4846 3.11902L14.3723 3.55058L14.7173 3.64027L14.8302 3.20924Z" fill="#EACE23"/>
<path d="M10.3057 5.1222C10.35 5.25621 10.3057 5.34537 10.3057 5.34537C10.5284 5.25568 10.6175 5.47937 10.6181 5.61285C10.6181 5.74685 10.4397 5.83549 10.4397 5.83549C10.4397 5.83549 10.4397 5.65717 10.3506 5.65717C10.2619 5.65717 10.2619 5.83549 10.2619 5.83549C10.4403 5.83549 10.2619 5.96949 10.2619 5.96949L10.3954 6.19213L10.2166 6.14728C10.2619 6.28129 10.0831 6.41477 10.0831 6.41477C10.0831 6.41477 9.90477 6.28129 9.94909 6.14728L9.77077 6.19213L9.90424 5.96949C9.90424 5.96949 9.72592 5.83549 9.90424 5.83549C9.90424 5.83549 9.90424 5.65717 9.81508 5.65717C9.72645 5.65717 9.72645 5.83549 9.72645 5.83549C9.72645 5.83549 9.5476 5.74685 9.5476 5.61285C9.5476 5.47937 9.63676 5.25621 9.85993 5.34537C9.85993 5.34537 9.81508 5.25568 9.85993 5.1222C9.8995 5.00244 10.0826 4.89904 10.0826 4.89904C10.0826 4.89904 10.2656 5.00244 10.3057 5.1222Z" fill="#EACE23"/>
<path d="M14.1417 5.1222C14.1861 5.25621 14.1417 5.34537 14.1417 5.34537C14.3639 5.25568 14.4535 5.47937 14.4541 5.61285C14.4541 5.74685 14.2752 5.83549 14.2752 5.83549C14.2752 5.83549 14.2752 5.65717 14.1861 5.65717C14.0969 5.65717 14.0969 5.83549 14.0969 5.83549C14.2752 5.83549 14.0969 5.96949 14.0969 5.96949L14.2309 6.19213L14.0521 6.14728C14.0969 6.28129 13.9186 6.41477 13.9186 6.41477C13.9186 6.41477 13.7397 6.28129 13.784 6.14728L13.6063 6.19213L13.7397 5.96949C13.7397 5.96949 13.5614 5.83549 13.7397 5.83549C13.7397 5.83549 13.7397 5.65717 13.6506 5.65717C13.5614 5.65717 13.5614 5.83549 13.5614 5.83549C13.5614 5.83549 13.3831 5.74685 13.3831 5.61285C13.3831 5.47937 13.4722 5.25621 13.6954 5.34537C13.6954 5.34537 13.6506 5.25568 13.6954 5.1222C13.7355 5.00244 13.9186 4.89904 13.9186 4.89904C13.9186 4.89904 14.1022 5.00244 14.1417 5.1222Z" fill="#EACE23"/>
<path d="M12.2235 5.1222C12.2678 5.25621 12.2235 5.34537 12.2235 5.34537C12.4466 5.25568 12.5358 5.47937 12.5353 5.6139C12.5353 5.74791 12.357 5.83654 12.357 5.83654C12.357 5.83654 12.357 5.65822 12.2678 5.65822C12.1786 5.65822 12.1786 5.83654 12.1786 5.83654C12.3569 5.83654 12.1786 5.97055 12.1786 5.97055L12.3121 6.19318L12.1338 6.14834C12.1786 6.28234 12.0003 6.41582 12.0003 6.41582C12.0003 6.41582 11.822 6.28182 11.8663 6.14728L11.688 6.19213L11.8215 5.96949C11.8215 5.96949 11.6431 5.83549 11.8215 5.83549C11.8215 5.83549 11.8215 5.65717 11.7323 5.65717C11.6431 5.65717 11.6431 5.83549 11.6431 5.83549C11.6431 5.83549 11.4648 5.74685 11.4648 5.61285C11.4648 5.47937 11.554 5.25621 11.7771 5.34537C11.7771 5.34537 11.7328 5.25568 11.7771 5.1222C11.8172 5.00244 12.0003 4.89904 12.0003 4.89904C12.0003 4.89904 12.1834 5.00244 12.2235 5.1222Z" fill="#EACE23"/>
<path d="M12.0003 2.71384C11.9016 2.71384 11.822 2.79351 11.822 2.89164V3.33797H12.1791V2.89164C12.1786 2.79351 12.0989 2.71384 12.0003 2.71384ZM9.29803 2.99135C9.20254 3.01614 9.14503 3.11322 9.17036 3.20924L9.28273 3.6408L9.62777 3.55111L9.51539 3.11955C9.49113 3.02353 9.39352 2.96655 9.29803 2.99135ZM14.702 2.99135C14.798 3.01614 14.8545 3.11322 14.8302 3.20924L14.7173 3.64027L14.3723 3.55058L14.4846 3.11902C14.5094 3.02353 14.6065 2.96655 14.702 2.99135Z" fill="#5E520D"/>
<path d="M9.14733 4.58674H14.8527C14.8119 4.57484 14.0763 4.36157 13.3831 4.27491C12.6693 4.18575 12.0003 4.18575 12.0003 4.18575C12.0003 4.18575 11.3313 4.18575 10.6175 4.27491C9.92428 4.36208 9.18816 4.57485 9.14733 4.58674Z" fill="#666666"/>
<path fill-rule="evenodd" clip-rule="evenodd" d="M14.8527 4.58674L14.8545 4.58724L14.8545 6.68332H9.14554L9.14557 4.58724L9.14733 4.58674H14.8527ZM10.3057 5.34537C10.3057 5.34537 10.35 5.25621 10.3057 5.1222C10.2656 5.00244 10.0826 4.89904 10.0826 4.89904C10.0826 4.89904 9.8995 5.00244 9.85993 5.1222C9.81508 5.25568 9.85993 5.34537 9.85993 5.34537C9.63676 5.25621 9.5476 5.47937 9.5476 5.61285C9.5476 5.74685 9.72645 5.83549 9.72645 5.83549C9.72645 5.83549 9.72645 5.65717 9.81508 5.65717C9.90424 5.65717 9.90424 5.83549 9.90424 5.83549C9.72592 5.83549 9.90424 5.96949 9.90424 5.96949L9.77077 6.19213L9.94909 6.14728C9.90477 6.28129 10.0831 6.41477 10.0831 6.41477C10.0831 6.41477 10.2619 6.28129 10.2166 6.14728L10.3954 6.19213L10.2619 5.96949C10.2619 5.96949 10.4403 5.83549 10.2619 5.83549C10.2619 5.83549 10.2619 5.65717 10.3506 5.65717C10.4397 5.65717 10.4397 5.83549 10.4397 5.83549C10.4397 5.83549 10.6181 5.74685 10.6181 5.61285C10.6175 5.47937 10.5284 5.25568 10.3057 5.34537ZM14.1417 5.1222C14.1861 5.25621 14.1417 5.34537 14.1417 5.34537C14.3639 5.25568 14.4535 5.47937 14.4541 5.61285C14.4541 5.74685 14.2752 5.83549 14.2752 5.83549C14.2752 5.83549 14.2752 5.65717 14.1861 5.65717C14.0969 5.65717 14.0969 5.83549 14.0969 5.83549C14.2752 5.83549 14.0969 5.96949 14.0969 5.96949L14.2309 6.19213L14.0521 6.14728C14.0969 6.28129 13.9186 6.41477 13.9186 6.41477C13.9186 6.41477 13.7397 6.28129 13.784 6.14728L13.6063 6.19213L13.7397 5.96949C13.7397 5.96949 13.5614 5.83549 13.7397 5.83549C13.7397 5.83549 13.7397 5.65717 13.6506 5.65717C13.5614 5.65717 13.5614 5.83549 13.5614 5.83549C13.5614 5.83549 13.3831 5.74685 13.3831 5.61285C13.3831 5.47937 13.4722 5.25621 13.6954 5.34537C13.6954 5.34537 13.6506 5.25568 13.6954 5.1222C13.7355 5.00244 13.9186 4.89904 13.9186 4.89904C13.9186 4.89904 14.1022 5.00244 14.1417 5.1222ZM12.2235 5.34537C12.2235 5.34537 12.2678 5.25621 12.2235 5.1222C12.1834 5.00244 12.0003 4.89904 12.0003 4.89904C12.0003 4.89904 11.8172 5.00244 11.7771 5.1222C11.7328 5.25568 11.7771 5.34537 11.7771 5.34537C11.554 5.25621 11.4648 5.47937 11.4648 5.61285C11.4648 5.74685 11.6431 5.83549 11.6431 5.83549C11.6431 5.83549 11.6431 5.65717 11.7323 5.65717C11.8215 5.65717 11.8215 5.83549 11.8215 5.83549C11.6431 5.83549 11.8215 5.96949 11.8215 5.96949L11.688 6.19213L11.8663 6.14728C11.822 6.28182 12.0003 6.41582 12.0003 6.41582C12.0003 6.41582 12.1786 6.28234 12.1338 6.14834L12.3121 6.19318L12.1786 5.97055C12.1786 5.97055 12.3569 5.83654 12.1786 5.83654C12.1786 5.83654 12.1786 5.65822 12.2678 5.65822C12.357 5.65822 12.357 5.83654 12.357 5.83654C12.357 5.83654 12.5353 5.74791 12.5353 5.6139C12.5358 5.47937 12.4466 5.25568 12.2235 5.34537Z" fill="#1353B4"/>
<path fill-rule="evenodd" clip-rule="evenodd" d="M10.6407 10.6609C10.1742 10.318 9.44422 9.78144 9.21624 8.69075H14.7843C14.5552 9.78501 13.8226 10.3215 13.3552 10.6639C13.3178 10.6913 13.2821 10.7174 13.2485 10.7425C12.7141 11.144 12.0003 11.4125 12.0003 11.4125C12.0003 11.4125 11.2865 11.144 10.751 10.7425C10.7163 10.7165 10.6794 10.6894 10.6407 10.6609ZM11.3313 9.09222C11.3313 8.95716 11.4648 8.95717 11.4648 8.95717C11.4648 8.7799 11.6442 8.86853 11.6442 8.86853L11.5107 9.80551H10.4397L10.3062 8.86853C10.3062 8.86853 10.484 8.7799 10.484 8.95717C10.484 8.95717 10.618 8.95716 10.618 9.09222C10.618 9.2257 10.484 9.27055 10.484 9.27055C10.484 9.27055 10.5737 9.40402 10.7072 9.40402C10.8412 9.40402 10.8855 9.27055 10.8855 9.27055C10.8855 9.27055 10.7072 9.2257 10.7072 9.13707C10.7072 9.04685 10.8412 9.00201 10.8412 9.00201C10.8412 9.00201 10.8412 8.7799 10.9747 8.7799C11.1087 8.7799 11.1087 9.00201 11.1087 9.00201C11.1087 9.00201 11.2422 9.04685 11.2422 9.13707C11.2422 9.2257 11.0638 9.27055 11.0638 9.27055C11.0638 9.27055 11.1087 9.40402 11.2422 9.40402C11.3762 9.40402 11.4648 9.27055 11.4648 9.27055C11.4648 9.27055 11.3313 9.2257 11.3313 9.09222ZM12.3569 10.2518C12.3569 10.1178 12.4909 10.1178 12.4909 10.1178C12.4909 9.93951 12.6693 10.0281 12.6693 10.0281L12.5358 10.9651H11.4653L11.3319 10.0281C11.3319 10.0281 11.5102 9.93951 11.5102 10.1178C11.5102 10.1178 11.6437 10.1178 11.6437 10.2518C11.6437 10.3864 11.5102 10.4302 11.5102 10.4302C11.5102 10.4302 11.5993 10.5636 11.7328 10.5636C11.8663 10.5636 11.9111 10.4302 11.9111 10.4302C11.9111 10.4302 11.7328 10.3864 11.7328 10.2967C11.7328 10.207 11.8668 10.1627 11.8668 10.1627C11.8668 10.1627 11.8668 9.93951 12.0003 9.93951C12.1338 9.93951 12.1338 10.1627 12.1338 10.1627C12.1338 10.1627 12.2678 10.207 12.2678 10.2967C12.2678 10.3864 12.0895 10.4302 12.0895 10.4302C12.0895 10.4302 12.1338 10.5636 12.2678 10.5636C12.4013 10.5636 12.4909 10.4302 12.4909 10.4302C12.4909 10.4302 12.3569 10.3864 12.3569 10.2518ZM13.5166 8.95717C13.5166 8.95717 13.3831 8.95716 13.3831 9.09222C13.3831 9.2257 13.5166 9.27055 13.5166 9.27055C13.5166 9.27055 13.4279 9.40402 13.2934 9.40402C13.1599 9.40402 13.1151 9.27055 13.1151 9.27055C13.1151 9.27055 13.2934 9.2257 13.2934 9.13707C13.2934 9.04685 13.1599 9.00201 13.1599 9.00201C13.1599 9.00201 13.1599 8.7799 13.0259 8.7799C12.8924 8.7799 12.8924 9.00201 12.8924 9.00201C12.8924 9.00201 12.7579 9.04685 12.7579 9.13707C12.7579 9.2257 12.9367 9.27055 12.9367 9.27055C12.9367 9.27055 12.8924 9.40402 12.7579 9.40402C12.6244 9.40402 12.5353 9.27055 12.5353 9.27055C12.5353 9.27055 12.6687 9.2257 12.6687 9.09222C12.6687 8.95716 12.5353 8.95717 12.5353 8.95717C12.5353 8.7799 12.3569 8.86853 12.3569 8.86853L12.4909 9.80551H13.5614L13.6954 8.86853C13.6954 8.86853 13.5166 8.7799 13.5166 8.95717Z" fill="#1353B4"/>
<path fill-rule="evenodd" clip-rule="evenodd" d="M9.14554 6.68332L9.14564 7.97642C9.14564 7.97642 9.14566 8.47404 9.21624 8.69075H14.7843C14.8293 8.47523 14.8546 8.23806 14.8546 7.97642L14.8545 6.68332H9.14554ZM12.7141 7.3966L12.4909 7.70946L12.7141 7.97641L12.0894 7.75377L12.3126 8.37789L12.0003 8.19957L11.6879 8.37789L11.9111 7.75377L11.2864 7.97641L11.5096 7.70946L11.2864 7.3966L11.9111 7.57545L11.7328 6.99512L12.0003 7.17396L12.2677 6.99512L12.0894 7.57545L12.7141 7.3966Z" fill="#CE1A24"/>
<path d="M12.4909 7.70946L12.7141 7.3966L12.0894 7.57545L12.2677 6.99512L12.0003 7.17396L11.7328 6.99512L11.9111 7.57545L11.2864 7.3966L11.5096 7.70946L11.2864 7.97641L11.9111 7.75377L11.6879 8.37789L12.0003 8.19957L12.3126 8.37789L12.0894 7.75377L12.7141 7.97641L12.4909 7.70946Z" fill="#E5E5E5"/>
<path d="M7.85041 10.7596C7.81414 10.2339 7.98595 9.7164 7.98595 9.7164C7.18666 9.98283 6.9768 10.1707 6.99127 10.3581C7.02767 10.4171 7.09965 10.5052 7.2273 10.5632C7.39041 10.6376 7.61211 10.7036 7.85041 10.7596Z" fill="#CE1A24"/>
<path d="M9.73415 11.3341C9.60348 11.4354 9.14353 11.494 8.87756 11.4558C8.56524 11.412 8.20859 11.5007 8.74409 11.813C8.80181 11.8466 8.86161 11.8818 8.92321 11.9181C9.05119 11.9935 9.18703 12.0734 9.32803 12.1534C9.36926 11.8512 9.53954 11.5888 9.68106 11.412C9.7049 11.3822 9.72238 11.3564 9.73415 11.3341Z" fill="#CE1A24"/>
<path d="M17.0095 10.3571C17.023 10.1701 16.8123 9.98236 16.0141 9.7164C16.0141 9.7164 16.1869 10.2338 16.1502 10.7595C16.3883 10.7035 16.61 10.6375 16.7733 10.5632C16.9014 10.5051 16.9734 10.4162 17.0095 10.3571Z" fill="#CE1A24"/>
<path d="M14.2664 11.3345C14.3978 11.4356 14.8568 11.494 15.122 11.4558C15.4343 11.412 15.7915 11.5007 15.256 11.813C15.1965 11.8476 15.1348 11.884 15.0712 11.9214C14.9451 11.9956 14.8116 12.0742 14.673 12.1528C14.6317 11.8509 14.4617 11.5887 14.319 11.412C14.2954 11.3824 14.2781 11.3567 14.2664 11.3345Z" fill="#CE1A24"/>
<path fill-rule="evenodd" clip-rule="evenodd" d="M14.8545 10.9652C15.2639 10.934 16.2821 10.7869 16.7733 10.5632C16.9796 10.4698 17.0402 10.2962 17.0402 10.2962C17.0402 10.2962 17.0402 10.3859 16.9959 10.6528C16.9735 10.7861 16.9069 10.8972 16.8402 11.0085C16.7732 11.1202 16.7061 11.2321 16.6836 11.3667C16.6797 11.3902 16.6762 11.4128 16.6728 11.4343C16.6381 11.6567 16.62 11.7721 16.4156 11.8125C16.193 11.8573 15.7023 11.9022 15.7023 11.9022C15.7023 11.9022 15.7023 12.3026 15.7915 12.5263C15.8801 12.7489 15.5688 13.1509 14.3638 13.5967C13.2609 14.0061 12.7194 14.0028 12.156 13.9994C12.1044 13.9991 12.0527 13.9987 12.0003 13.9987C11.948 13.9987 11.8962 13.9991 11.8447 13.9994C11.2816 14.0028 10.7397 14.0061 9.63622 13.5967C8.43229 13.1515 8.11943 12.7494 8.20912 12.5263C8.29828 12.3026 8.29828 11.9022 8.29828 11.9022C8.29828 11.9022 7.80763 11.8573 7.58447 11.8125C7.3813 11.7721 7.3631 11.657 7.32803 11.4353C7.32457 11.4134 7.32096 11.3906 7.31699 11.3667C7.29458 11.2327 7.22762 11.1212 7.16072 11.0097C7.09375 10.8981 7.02683 10.7867 7.00466 10.6528C6.95982 10.3859 6.95982 10.2962 6.95982 10.2962C6.95982 10.2962 7.02049 10.4693 7.2273 10.5632C7.71742 10.7869 8.7367 10.934 9.14504 10.9652C9.68634 11.0069 9.7697 11.1435 9.7697 11.2775C9.7697 11.412 9.18989 11.5007 8.87756 11.4558C8.56524 11.412 8.20859 11.5007 8.74409 11.813C8.80181 11.8466 8.86161 11.8818 8.92321 11.9181C9.43255 12.218 10.0651 12.5904 10.6618 12.7494C11.3313 12.9283 12.0003 12.8834 12.0003 12.8834C12.0003 12.8834 12.6693 12.9283 13.3377 12.7494C13.9328 12.5914 14.5625 12.2208 15.0712 11.9214C15.1348 11.884 15.1965 11.8476 15.256 11.813C15.7915 11.5007 15.4343 11.412 15.122 11.4558C14.8102 11.5007 14.2304 11.412 14.2304 11.2775C14.2304 11.1435 14.3137 11.0069 14.8545 10.9652ZM13.8283 12.9731C12.5875 13.5244 10.5326 13.0934 10.0377 12.9282C9.7702 12.838 9.68052 13.3287 9.90368 13.4189C10.2967 13.5751 11.6431 13.7307 12.1338 13.7307C12.6244 13.7307 13.727 13.5682 14.0072 13.4637C14.3638 13.3287 14.2303 12.7932 13.8283 12.9731Z" fill="#F6E4BE"/>
<path d="M10.0377 12.9282C10.5326 13.0934 12.5875 13.5244 13.8283 12.9731C14.2303 12.7932 14.3638 13.3287 14.0072 13.4637C13.727 13.5682 12.6244 13.7307 12.1338 13.7307C11.6431 13.7307 10.2967 13.5751 9.90368 13.4189C9.68052 13.3287 9.7702 12.838 10.0377 12.9282Z" fill="#BCAD96"/>
<path d="M14.9958 7.56273C14.9589 8.48695 16.5485 9.96571 16.5485 9.96571H16.8443C16.8443 9.96571 16.9182 9.48512 17.1031 9.30027C17.14 9.33724 17.6946 9.78087 17.7685 9.8548C17.8055 9.8548 17.7685 9.7439 17.7685 9.7439C17.7685 9.7439 17.9903 9.92874 18.1012 9.92874C18.1752 9.89177 18.1012 9.78087 18.1012 9.78087C18.1012 9.78087 18.397 10.0027 18.5079 9.92874C18.5079 9.89177 18.323 9.7439 18.2121 9.70693C18.2861 9.7439 18.7297 9.8548 18.5818 9.7439C18.397 9.63299 18.0643 9.2633 18.0643 9.2633C18.0643 9.2633 18.2861 9.30027 18.1752 9.1524C18.1012 9.00452 17.6576 8.48695 17.6576 8.48695C17.7315 8.30211 17.6206 8.00636 17.5097 7.74758C17.8424 7.85848 18.0642 8.44999 18.1382 8.44999C18.2861 8.41302 18.1752 8.00636 17.9164 7.74758C18.1012 7.85848 18.397 8.15423 18.4709 8.11727C18.5448 8.0803 18.397 7.78454 18.0643 7.45182C18.0643 7.45182 19.2103 7.04517 18.9885 6.82335C18.9885 6.78638 18.2861 7.15607 18.5818 6.97123C18.5818 6.97123 19.2473 6.56457 19.0994 6.37973C19.0254 6.34276 18.6188 6.63851 18.6558 6.56457C18.6558 6.56457 19.3212 6.047 19.0994 5.89913C18.9885 5.86216 18.5448 6.23185 18.7297 6.08397C18.7297 6.08397 19.1364 5.30763 18.9515 5.4555C17.8794 6.23185 18.9885 5.41853 18.8036 4.93794C18.7297 4.90097 18.6927 5.38156 17.9533 5.82519C18.1012 5.67732 18.8036 4.864 18.4709 4.64219C18.4339 4.60522 18.397 4.864 18.1752 5.15975C18.2491 4.93794 18.397 4.34643 18.2121 4.3834C18.1752 4.3834 18.1012 4.82703 17.6946 5.27066V5.04884L17.5837 5.15975C17.6206 4.97491 17.6576 4.49431 17.4358 4.45734C17.4358 4.49431 17.3988 4.64219 17.3618 4.864C17.3618 4.60522 17.2509 4.08765 17.0661 4.08765V4.30946C16.9552 4.08765 16.7703 3.82887 16.6225 3.90281C16.6225 3.90281 16.7334 4.08765 16.8073 4.34643C16.5855 4.12462 16.1049 3.71796 16.0679 3.93978C16.0679 3.97674 16.4376 4.19856 16.5485 4.49431C16.5116 4.49431 15.994 4.3834 16.0679 4.93794H16.2158C16.2158 4.93794 16.1788 5.19672 16.4376 5.23369C16.7703 5.01187 16.5855 5.52944 16.5855 5.52944C15.957 6.23185 14.9589 6.60154 14.9958 7.56273ZM16.6964 6.12094C16.7334 6.37972 16.6964 6.78638 16.6964 6.97123C16.5116 6.93426 16.3637 6.97123 16.2897 6.97123C16.2897 6.82335 16.2897 6.63851 16.3267 6.5276C16.3267 6.49063 16.5116 6.34276 16.6964 6.12094ZM17.3618 8.22817L17.14 8.04333V7.82151C17.214 7.85848 17.2879 8.0803 17.3618 8.22817Z" fill="#E5E5E5"/>
<path d="M16.0637 4.90013C16.0648 4.91237 16.0662 4.92497 16.0679 4.93794H16.2158C16.2158 4.93794 16.1788 5.19672 16.4376 5.23369C16.5127 5.18364 16.5614 5.17124 16.5919 5.18203C16.0688 5.4335 15.0294 6.20168 14.9958 6.26882L15.0328 6.37973C14.9589 6.4167 14.9219 6.26882 14.9219 6.26882C14.9816 5.97028 15.7645 5.18958 16.0637 4.90013Z" fill="#FFCE31"/>
<path d="M16.5551 9.96571H16.7703V10.779C16.5032 11.0462 16.3956 11.2016 16.3217 11.3083C16.2832 11.364 16.2538 11.4064 16.2158 11.4445C16.0679 11.2227 15.8091 11.2966 15.8091 11.2966C15.7722 11.0748 15.5134 10.8899 15.5134 10.8899C15.8831 10.853 16.5115 10.6681 16.5485 10.5942C16.6301 10.4718 16.5992 10.1921 16.5551 9.96571Z" fill="#FFCE31"/>
<path d="M15.9308 9.31681C15.7781 9.33652 15.6065 9.39355 15.4394 9.52209H15.3285C15.3066 9.50018 15.2804 9.47107 15.2513 9.43874C15.1329 9.30735 14.9666 9.12273 14.8479 9.1524V7.82151C14.9219 7.82151 14.9219 7.96939 14.9219 7.96939C14.8864 8.25331 15.0553 9.9682 15.6903 9.02558C15.7705 9.12762 15.8518 9.22543 15.9308 9.31681Z" fill="#FFCE31"/>
<path d="M9.00423 7.56273C9.0412 8.48695 7.45153 9.96571 7.45153 9.96571H7.15578C7.15578 9.96571 7.08184 9.48512 6.897 9.30027C6.86003 9.33724 6.3055 9.78087 6.23156 9.8548C6.19459 9.8548 6.23156 9.7439 6.23156 9.7439C6.23156 9.7439 6.00974 9.92874 5.89884 9.92874C5.8249 9.89177 5.89884 9.78087 5.89884 9.78087C5.89884 9.78087 5.60309 10.0027 5.49218 9.92874C5.49218 9.89177 5.67702 9.7439 5.78793 9.70693C5.71399 9.7439 5.27037 9.8548 5.41824 9.7439C5.60309 9.63299 5.93581 9.2633 5.93581 9.2633C5.93581 9.2633 5.71399 9.30027 5.8249 9.1524C5.89884 9.00452 6.34246 8.48695 6.34246 8.48695C6.26853 8.30211 6.37943 8.00636 6.49034 7.74758C6.15762 7.85848 5.93581 8.44999 5.86187 8.44999C5.71399 8.41302 5.8249 8.00636 6.08368 7.74758C5.89884 7.85848 5.60309 8.15423 5.52915 8.11727C5.45521 8.0803 5.60309 7.78454 5.93581 7.45182C5.93581 7.45182 4.78977 7.04517 5.01158 6.82335C5.01158 6.78638 5.71399 7.15607 5.41824 6.97123C5.41824 6.97123 4.7528 6.56457 4.90068 6.37973C4.97461 6.34276 5.38127 6.63851 5.3443 6.56457C5.3443 6.56457 4.67886 6.047 4.90068 5.89913C5.01158 5.86216 5.45521 6.23185 5.27037 6.08397C5.27037 6.08397 4.86371 5.30763 5.04855 5.4555C6.12065 6.23185 5.01158 5.41853 5.19643 4.93794C5.27036 4.90097 5.30734 5.38156 6.04671 5.82519C5.89884 5.67732 5.19643 4.864 5.52915 4.64219C5.56612 4.60522 5.60309 4.864 5.8249 5.15975C5.75096 4.93794 5.60309 4.34643 5.78793 4.3834C5.8249 4.3834 5.89884 4.82703 6.3055 5.27066V5.04884L6.4164 5.15975C6.37943 4.97491 6.34246 4.49431 6.56428 4.45734C6.56428 4.49431 6.60125 4.64219 6.63822 4.864C6.63822 4.60522 6.74912 4.08765 6.93397 4.08765V4.30946C7.04487 4.08765 7.22972 3.82887 7.37759 3.90281C7.37759 3.90281 7.26669 4.08765 7.19275 4.34643C7.41456 4.12462 7.89516 3.71796 7.93213 3.93978C7.93213 3.97674 7.56244 4.19856 7.45153 4.49431C7.4885 4.49431 8.00607 4.3834 7.93213 4.93794H7.78425C7.78425 4.93794 7.82122 5.19672 7.56244 5.23369C7.22972 5.01187 7.41456 5.52944 7.41456 5.52944C8.04304 6.23185 9.0412 6.60154 9.00423 7.56273ZM7.30366 6.12094C7.26669 6.37972 7.30366 6.78638 7.30366 6.97123C7.4885 6.93426 7.63638 6.97123 7.71032 6.97123C7.71032 6.82335 7.71031 6.63851 7.67335 6.5276C7.67335 6.49063 7.4885 6.34276 7.30366 6.12094ZM6.63822 8.22817L6.86003 8.04333V7.82151C6.78609 7.85848 6.71215 8.0803 6.63822 8.22817Z" fill="#E5E5E5"/>
<path d="M7.93636 4.90014C7.93526 4.91238 7.93386 4.92497 7.93213 4.93794H7.78425C7.78425 4.93794 7.82122 5.19672 7.56244 5.23369C7.48736 5.18364 7.43863 5.17124 7.40819 5.18203C7.93125 5.4335 8.97067 6.20168 9.00424 6.26882L8.96727 6.37973C9.0412 6.4167 9.07817 6.26882 9.07817 6.26882C9.01847 5.97028 8.23553 5.18959 7.93636 4.90014Z" fill="#FFCE31"/>
<path d="M7.445 9.96571H7.22973V10.779C7.49687 11.0462 7.60448 11.2016 7.67831 11.3083C7.71687 11.364 7.74621 11.4064 7.78426 11.4445C7.93214 11.2227 8.19092 11.2966 8.19092 11.2966C8.22789 11.0748 8.48667 10.8899 8.48667 10.8899C8.11698 10.853 7.48851 10.6681 7.45154 10.5942C7.36998 10.4718 7.40088 10.1921 7.445 9.96571Z" fill="#FFCE31"/>
<path d="M8.06922 9.31681C8.22195 9.33652 8.39351 9.39355 8.56061 9.52209H8.67152C8.69343 9.50018 8.71966 9.47105 8.7488 9.43871C8.86717 9.30732 9.03346 9.12273 9.15211 9.1524V7.82151C9.07817 7.82151 9.07817 7.96939 9.07817 7.96939C9.11366 8.25331 8.94473 9.9682 8.30971 9.02558C8.22956 9.12762 8.14824 9.22543 8.06922 9.31681Z" fill="#FFCE31"/>
<path fill-rule="evenodd" clip-rule="evenodd" d="M22 1H2C1.44772 1 1 1.44772 1 2V14C1 14.5523 1.44772 15 2 15H22C22.5523 15 23 14.5523 23 14V2C23 1.44771 22.5523 1 22 1ZM2 0C0.89543 0 0 0.89543 0 2V14C0 15.1046 0.89543 16 2 16H22C23.1046 16 24 15.1046 24 14V2C24 0.89543 23.1046 0 22 0H2Z" fill="black" fill-opacity="0.08"/>
</g>
</g>
</svg>
