<svg width="24" height="16" viewBox="0 0 24 16" fill="none" xmlns="http://www.w3.org/2000/svg">
<g id="flags / flag-british indian ocean territory">
<g id="flag">
<path d="M22 0H12V2.30768C13.0197 1.92966 14.211 2.15032 15.0303 2.96965C15.5659 3.50519 16.4341 3.50519 16.9697 2.96965C18.091 1.84833 19.909 1.84833 21.0303 2.96965C21.5659 3.50519 22.4341 3.50519 22.9697 2.96965C23.2717 2.66767 23.6242 2.44701 24 2.30768V2C24 0.89543 23.1046 0 22 0Z" fill="white"/>
<path d="M12 4.0602V5.30768C13.0197 4.92966 14.211 5.15032 15.0303 5.96965C15.5659 6.50519 16.4341 6.50519 16.9697 5.96965C17.0879 5.85139 17.2139 5.74561 17.3461 5.65229L17.5744 5.88068V7.40183C16.4605 8.13371 14.9492 8.00987 13.9697 7.03031C13.4341 6.49478 12.5659 6.49478 12.0303 7.03031L12.0141 7.04643L12 7.0602V8H0V8.30768C1.01969 7.92966 2.21099 8.15032 3.03033 8.96965C3.56586 9.50519 4.43413 9.50519 4.96967 8.96965C6.09099 7.84833 7.90901 7.84833 9.03032 8.96965C9.56586 9.50519 10.4341 9.50519 10.9697 8.96965C12.091 7.84833 13.909 7.84833 15.0303 8.96965C15.5659 9.50519 16.4341 9.50519 16.9697 8.96965C17.0276 8.9117 17.0874 8.85674 17.1489 8.80478V9.07215H17.5744V9.82302C17.3485 9.62081 17.0504 9.49771 16.7234 9.49771C16.0183 9.49771 15.4468 10.0693 15.4468 10.7743C15.4468 10.7889 15.447 10.8035 15.4475 10.8179C14.906 10.7123 14.3891 10.4498 13.9697 10.0303C13.4341 9.49478 12.5659 9.49478 12.0303 10.0303C10.909 11.1516 9.09099 11.1516 7.96967 10.0303C7.43413 9.49478 6.56586 9.49478 6.03032 10.0303C4.90901 11.1516 3.09099 11.1516 1.96967 10.0303C1.43413 9.49478 0.565859 9.49478 0.0303249 10.0303L0 10.0606V11.3077C1.01969 10.9297 2.21099 11.1503 3.03033 11.9697C3.56586 12.5052 4.43413 12.5052 4.96967 11.9697C6.09099 10.8483 7.90901 10.8483 9.03032 11.9697C9.56586 12.5052 10.4341 12.5052 10.9697 11.9697C12.091 10.8483 13.909 10.8483 15.0303 11.9697C15.2656 12.2049 15.565 12.3368 15.8723 12.3654V12.4764L17.5744 12.4764V13.4018C16.4605 14.1337 14.9492 14.0099 13.9697 13.0303C13.4341 12.4948 12.5659 12.4948 12.0303 13.0303C10.909 14.1516 9.09099 14.1516 7.96967 13.0303C7.43413 12.4948 6.56586 12.4948 6.03032 13.0303C4.90901 14.1516 3.09099 14.1516 1.96967 13.0303C1.43413 12.4948 0.565859 12.4948 0.0303249 13.0303L0 13.0606V14C0 15.1046 0.89543 16 2 16H22C23.1046 16 24 15.1046 24 14V13.0602C22.8765 14.1515 21.0809 14.1416 19.9697 13.0303C19.5521 12.6127 18.9322 12.5208 18.4255 12.7544V12.4764L20.1276 12.4764V11.7256C20.2129 11.6492 20.2878 11.5616 20.3501 11.465C20.5946 11.5954 20.8242 11.7636 21.0303 11.9697C21.5659 12.5052 22.4341 12.5052 22.9697 11.9697C23.2717 11.6677 23.6242 11.447 24 11.3077V10.0602C23.0456 10.9872 21.6064 11.1196 20.5135 10.4574C20.3726 9.90564 19.8722 9.49771 19.2766 9.49771C19.0329 9.49771 18.8053 9.56605 18.6116 9.68454C18.5483 9.70316 18.4861 9.72645 18.4255 9.75439V9.07215H18.851V8.22108H18.4255L18.4255 8.1864C19.3378 8.001 20.3228 8.26209 21.0303 8.96965C21.5659 9.50519 22.4341 9.50519 22.9697 8.96965C23.2717 8.66767 23.6242 8.44701 24 8.30768V7.0602C22.8765 8.15154 21.0809 8.14158 19.9697 7.03031C19.5521 6.61273 18.9322 6.52076 18.4255 6.75439L18.4255 5.88068L19.1724 5.13381C19.8487 5.17423 20.5135 5.45285 21.0303 5.96965C21.5659 6.50519 22.4341 6.50519 22.9697 5.96965C23.2717 5.66767 23.6242 5.44701 24 5.30768V4.0602C22.8765 5.15154 21.0809 5.14158 19.9697 4.03031C19.4341 3.49478 18.5659 3.49478 18.0303 4.03031C17.8932 4.1674 17.7457 4.28773 17.5904 4.3913H16.0851L16.5182 4.82442C15.6219 4.98805 14.6627 4.72334 13.9697 4.03031C13.4341 3.49478 12.5659 3.49478 12.0303 4.03031C12.0203 4.04037 12.0102 4.05033 12 4.0602Z" fill="white"/>
<path d="M0 3.5V2C0 1.74945 0.0460702 1.50967 0.130201 1.28865L2.69722 3H2.563e-06L0 3.5Z" fill="#0A1F63"/>
<path d="M0 5V7.69954V8H0.450704H5V5.86852L1.80278 8L0.450704 8H0V7.69954L2.563e-06 6.79815L2.69722 5H0Z" fill="#0A1F63"/>
<path d="M7 8H11.5493L10.1972 8L7 5.86852V8Z" fill="#0A1F63"/>
<path d="M12 6.79815V4.5L12 5H9.30277L12 6.79815Z" fill="#0A1F63"/>
<path d="M12 3.5V1.20185L9.30277 3H12L12 3.5Z" fill="#0A1F63"/>
<path d="M10.1972 0H7V2.13149L10.1972 0Z" fill="#0A1F63"/>
<path d="M5 0H2C1.93776 0 1.87617 0.0028435 1.81538 0.00840766L5 2.13149V0Z" fill="#0A1F63"/>
<path d="M0.962927 0.289547C0.689139 0.455904 0.458461 0.686146 0.291583 0.959583C0.359161 0.848853 0.437202 0.745208 0.524331 0.650019C0.634239 0.529944 0.758609 0.423327 0.894683 0.332925L0.92268 0.31466C0.935989 0.306135 0.949405 0.297763 0.962927 0.289547Z" fill="#0A1F63"/>
<path d="M5 0V2.13149L1.81538 0.00840766C1.04206 0.0791862 0.396074 0.590195 0.130201 1.28865L2.69722 3H2.563e-06L0 5H2.69722L2.563e-06 6.79815L0 8L1.80278 8L5 5.86852V8H7V5.86852L10.1972 8L12 8V6.79815L9.30277 5H12V3H9.30277L12 1.20185V0H10.1972L7 2.13149V0H5Z" fill="white"/>
<path d="M5.5 0V3.5H0V4.5H5.5V8H6.5V4.5H12V3.5H6.5V0H5.5Z" fill="#F44336"/>
<path d="M11.5493 0L7.04932 3H7.9507L12 0.300469V0H11.5493Z" fill="#F44336"/>
<path d="M0 8H0.450704L4.9507 5H4.04932L0 7.69954V8Z" fill="#F44336"/>
<path d="M0.524331 0.650019L4.0493 3H4.95069L0.92268 0.31466C0.775637 0.40885 0.641733 0.521757 0.524331 0.650019Z" fill="#F44336"/>
<path d="M7.95069 5L12 7.69954V8H11.5493L7.0493 5H7.95069Z" fill="#F44336"/>
<path d="M12 7.0602C12.0102 7.05033 12.0203 7.04037 12.0303 7.03031C12.5659 6.49478 13.4341 6.49478 13.9697 7.03031C14.9492 8.00987 16.4605 8.13371 17.5744 7.40183V5.88068L17.3461 5.65229C17.2139 5.74561 17.0879 5.85139 16.9697 5.96965C16.4341 6.50519 15.5659 6.50519 15.0303 5.96965C14.211 5.15032 13.0197 4.92966 12 5.30768V7.0602Z" fill="#0A1F63"/>
<path d="M12 4.0602C12.0102 4.05033 12.0203 4.04037 12.0303 4.03031C12.5659 3.49478 13.4341 3.49478 13.9697 4.03031C14.6627 4.72334 15.6219 4.98805 16.5182 4.82442L16.0851 4.3913H17.5904C17.7457 4.28773 17.8932 4.1674 18.0303 4.03031C18.5659 3.49478 19.4341 3.49478 19.9697 4.03031C21.0809 5.14158 22.8765 5.15154 24 4.0602V2.30768C23.6242 2.44701 23.2717 2.66767 22.9697 2.96965C22.4341 3.50519 21.5659 3.50519 21.0303 2.96965C19.909 1.84833 18.091 1.84833 16.9697 2.96965C16.4341 3.50519 15.5659 3.50519 15.0303 2.96965C14.211 2.15032 13.0197 1.92966 12 2.30768V4.0602Z" fill="#0A1F63"/>
<path d="M16.9697 8.96965C17.0276 8.9117 17.0874 8.85674 17.1489 8.80478V9.07215H17.5744V9.82302C17.3485 9.62081 17.0504 9.49771 16.7234 9.49771C16.0183 9.49771 15.4468 10.0693 15.4468 10.7743C15.4468 10.7889 15.447 10.8035 15.4475 10.8179C14.906 10.7123 14.3891 10.4498 13.9697 10.0303C13.4341 9.49478 12.5659 9.49478 12.0303 10.0303C10.909 11.1516 9.09099 11.1516 7.96967 10.0303C7.43413 9.49478 6.56586 9.49478 6.03032 10.0303C4.90901 11.1516 3.09099 11.1516 1.96967 10.0303C1.43413 9.49478 0.565859 9.49478 0.0303249 10.0303L0 10.0606V8.30768C1.01969 7.92966 2.21099 8.15032 3.03033 8.96965C3.56586 9.50519 4.43413 9.50519 4.96967 8.96965C6.09099 7.84833 7.90901 7.84833 9.03032 8.96965C9.56586 9.50519 10.4341 9.50519 10.9697 8.96965C12.091 7.84833 13.909 7.84833 15.0303 8.96965C15.5659 9.50519 16.4341 9.50519 16.9697 8.96965Z" fill="#0A1F63"/>
<path d="M18.4255 9.75439V9.07215H18.851V8.22108H18.4255L18.4255 8.1864C19.3378 8.001 20.3228 8.26209 21.0303 8.96965C21.5659 9.50519 22.4341 9.50519 22.9697 8.96965C23.2717 8.66767 23.6242 8.44701 24 8.30768V10.0602C23.0456 10.9872 21.6064 11.1196 20.5135 10.4574C20.3726 9.90564 19.8722 9.49771 19.2766 9.49771C19.0329 9.49771 18.8053 9.56605 18.6116 9.68454C18.5483 9.70316 18.4861 9.72645 18.4255 9.75439Z" fill="#0A1F63"/>
<path d="M15.0303 11.9697C15.2656 12.2049 15.565 12.3368 15.8723 12.3654V12.4764L17.5744 12.4764V13.4018C16.4605 14.1337 14.9492 14.0099 13.9697 13.0303C13.4341 12.4948 12.5659 12.4948 12.0303 13.0303C10.909 14.1516 9.09099 14.1516 7.96967 13.0303C7.43413 12.4948 6.56586 12.4948 6.03032 13.0303C4.90901 14.1516 3.09099 14.1516 1.96967 13.0303C1.43413 12.4948 0.565859 12.4948 0.0303249 13.0303L0 13.0606V11.3077C1.01969 10.9297 2.21099 11.1503 3.03033 11.9697C3.56586 12.5052 4.43413 12.5052 4.96967 11.9697C6.09099 10.8483 7.90901 10.8483 9.03032 11.9697C9.56586 12.5052 10.4341 12.5052 10.9697 11.9697C12.091 10.8483 13.909 10.8483 15.0303 11.9697Z" fill="#0A1F63"/>
<path d="M18.4255 12.7544V12.4764L20.1276 12.4764V11.7256C20.2129 11.6492 20.2878 11.5616 20.3501 11.465C20.5946 11.5954 20.8242 11.7636 21.0303 11.9697C21.5659 12.5052 22.4341 12.5052 22.9697 11.9697C23.2717 11.6677 23.6242 11.447 24 11.3077V13.0602C22.8765 14.1515 21.0809 14.1416 19.9697 13.0303C19.5521 12.6127 18.9322 12.5208 18.4255 12.7544Z" fill="#0A1F63"/>
<path d="M18.4255 5.88068L18.4255 6.75439C18.9322 6.52076 19.5521 6.61273 19.9697 7.03031C21.0809 8.14158 22.8765 8.15154 24 7.0602V5.30768C23.6242 5.44701 23.2717 5.66767 22.9697 5.96965C22.4341 6.50519 21.5659 6.50519 21.0303 5.96965C20.5135 5.45285 19.8487 5.17423 19.1724 5.13381L18.4255 5.88068Z" fill="#0A1F63"/>
<path fill-rule="evenodd" clip-rule="evenodd" d="M22 1H2C1.44772 1 1 1.44772 1 2V14C1 14.5523 1.44772 15 2 15H22C22.5523 15 23 14.5523 23 14V2C23 1.44771 22.5523 1 22 1ZM2 0C0.895431 0 0 0.895431 0 2V14C0 15.1046 0.89543 16 2 16H22C23.1046 16 24 15.1046 24 14V2C24 0.89543 23.1046 0 22 0H2Z" fill="black" fill-opacity="0.08"/>
<path d="M18.4255 5.88068L19.9149 4.3913H16.0851L17.5744 5.88068H18.4255Z" fill="#6DA544"/>
<path d="M18.4255 5.88068H17.5744V7.79556H18.4255L18.4255 5.88068Z" fill="#A2001D"/>
<path d="M18.4255 12.4764H17.5744V14.3913H18.4255V12.4764Z" fill="#A2001D"/>
<path fill-rule="evenodd" clip-rule="evenodd" d="M19.2766 9.49771C19.9816 9.49771 20.5532 10.0693 20.5532 10.7743C20.5532 11.1523 20.3887 11.4918 20.1276 11.7256V12.4764H15.8723V11.7256C15.6112 11.4918 15.4468 11.1523 15.4468 10.7743C15.4468 10.0693 16.0183 9.49771 16.7234 9.49771C17.0504 9.49771 17.3485 9.62081 17.5744 9.82302V9.07215H17.1489V8.22108H17.5744L17.5744 7.79556H18.4255L18.4255 8.22108H18.851V9.07215H18.4255V9.82302C18.6514 9.62081 18.9495 9.49771 19.2766 9.49771ZM18.9931 10.4571C19.0484 10.4077 19.1423 10.3488 19.2766 10.3488C19.5112 10.3488 19.7021 10.5396 19.7022 10.7743C19.7022 10.9395 19.6131 11.044 19.56 11.0916L19.2766 11.3453V11.6253H16.7234V11.3453L16.4401 11.0916C16.387 11.044 16.2979 10.9395 16.2979 10.7743C16.2979 10.5396 16.4888 10.3488 16.7234 10.3488C16.8576 10.3488 16.9516 10.4077 17.0068 10.4571L17.5745 10.9652H18.4255L18.9931 10.4571Z" fill="#FFDA44"/>
<path d="M19.2766 10.3488C19.1423 10.3488 19.0484 10.4077 18.9931 10.4571L18.4255 10.9652H17.5745L17.0068 10.4571C16.9516 10.4077 16.8576 10.3488 16.7234 10.3488C16.4888 10.3488 16.2979 10.5396 16.2979 10.7743C16.2979 10.9395 16.387 11.044 16.4401 11.0916L16.7234 11.3453V11.6253H19.2766V11.3453L19.56 11.0916C19.6131 11.044 19.7022 10.9395 19.7022 10.7743C19.7021 10.5396 19.5112 10.3488 19.2766 10.3488Z" fill="#D80027"/>
</g>
</g>
</svg>
