<svg width="24" height="16" viewBox="0 0 24 16" fill="none" xmlns="http://www.w3.org/2000/svg">
<g id="flags / flag-kiribati">
<g id="flag">
<path d="M2 0H22C23.1046 0 24 0.89543 24 2L23.9999 10.0396C23.5999 10.0396 23.1999 10.1673 22.7999 10.295C22.3999 10.4227 21.9999 10.5505 21.5999 10.5505C21.1999 10.5505 20.7999 10.4227 20.3999 10.295C19.9999 10.1673 19.5999 10.0396 19.1999 10.0396C18.7999 10.0396 18.3999 10.1673 17.9999 10.295C17.5999 10.4227 17.1999 10.5505 16.7999 10.5505C16.3999 10.5505 15.9999 10.4227 15.5999 10.295C15.1999 10.1673 14.7999 10.0396 14.3999 10.0396C13.9999 10.0396 13.5999 10.1673 13.1999 10.295C12.7999 10.4227 12.3999 10.5505 11.9999 10.5505C11.5999 10.5505 11.1999 10.4227 10.8 10.295C10.4 10.1673 10 10.0396 9.6 10.0396C9.2 10.0396 8.8 10.1673 8.4 10.295C8 10.4227 7.6 10.5505 7.2 10.5505C6.8 10.5505 6.4 10.4227 6 10.295C5.6 10.1673 5.2 10.0396 4.8 10.0396C4.4 10.0396 4 10.1673 3.6 10.295C3.2 10.4227 2.8 10.5505 2.4 10.5505C2 10.5505 1.6 10.4227 1.2 10.295C0.8 10.1673 0.4 10.0396 0 10.0396V2C0 0.89543 0.89543 0 2 0Z" fill="#E73E2D"/>
<path d="M9 2.43627C9 2.85048 9.33579 3.18627 9.75 3.18627C9.75 3.60048 10.0858 3.93627 10.5 3.93627C10.5 4.35048 10.8358 4.68627 11.25 4.68627H12.75C13.1642 4.68627 13.5 4.35048 13.5 3.93627C13.9142 3.93627 14.25 3.60048 14.25 3.18627C14.6642 3.18627 15 2.85048 15 2.43627H12.75C12.75 2.02205 12.4142 1.68627 12 1.68627C11.5858 1.68627 11.25 2.02205 11.25 2.43627H9Z" fill="#FCD116"/>
<path fill-rule="evenodd" clip-rule="evenodd" d="M13.2786 6.62506C13.2656 6.64282 13.2524 6.6609 13.2381 6.67979L13.2786 6.62506Z" fill="#BD9C08"/>
<path fill-rule="evenodd" clip-rule="evenodd" d="M15.1628 9.62654C15.2795 9.55765 15.4138 9.47843 15.5318 9.43128C15.6158 9.39773 15.7011 9.37521 15.7854 9.37471C15.6447 9.26059 15.4492 9.1993 15.2342 9.15691C15.1449 9.13931 15.0535 9.12517 14.9625 9.11167L14.1948 9.42551L14.963 9.73953C15.0282 9.70563 15.0949 9.66661 15.1628 9.62654ZM15.0601 8.51515C15.1441 8.41207 15.2303 8.30623 15.3226 8.22288C15.3893 8.1627 15.461 8.11244 15.5397 8.08314C15.3665 8.02284 15.1613 8.03214 14.945 8.06614C14.8561 8.0801 14.7666 8.09799 14.6776 8.11638L14.0624 8.67483L14.8966 8.70737C14.9525 8.64647 15.0082 8.57872 15.0601 8.51515ZM14.5566 7.531C14.6019 7.40305 14.6486 7.27128 14.7089 7.15923C14.752 7.07935 14.8032 7.00716 14.8679 6.95257C14.6851 6.95394 14.4954 7.03286 14.3033 7.13936C14.2244 7.18307 14.1462 7.23075 14.0687 7.27873L13.6812 8.01469L14.4699 7.76202C14.5007 7.68797 14.5293 7.60799 14.5566 7.531ZM13.7546 6.76984C13.7534 6.63435 13.7521 6.49487 13.7705 6.3692C13.7835 6.27951 13.8069 6.19427 13.849 6.12087C13.681 6.18407 13.5301 6.32267 13.3855 6.48836C13.3429 6.53715 13.3115 6.58007 13.2786 6.62506C13.2656 6.64282 13.2524 6.6609 13.2381 6.67979C13.2284 6.69272 13.2181 6.70603 13.2072 6.71987L13.0974 7.5247L13.7522 7.01743C13.7559 6.93698 13.7554 6.85168 13.7546 6.76984ZM12.745 6.31765C12.6975 6.1948 12.6487 6.06859 12.6219 5.94833C12.6024 5.8609 12.594 5.77397 12.607 5.69148C12.478 5.8086 12.3845 5.9889 12.3041 6.19198C12.2695 6.27944 12.2378 6.3698 12.2068 6.45976L12.3812 7.264L12.83 6.55218C12.8048 6.47391 12.7739 6.39231 12.745 6.31765ZM11.6507 6.27415C11.5631 6.17255 11.4597 6.05251 11.393 5.94601C11.3441 5.86776 11.3062 5.78613 11.2916 5.70131C11.1973 5.85818 11.1706 6.06281 11.1678 6.28479C11.1667 6.37448 11.1694 6.46561 11.1727 6.55637L11.619 7.26401L11.7956 6.4492C11.7512 6.39144 11.7016 6.33329 11.6507 6.27415ZM10.5921 6.5845C10.4747 6.51846 10.3381 6.44164 10.2388 6.36371C10.168 6.30818 10.1061 6.24602 10.0636 6.17363C10.0365 6.35055 10.0811 6.54998 10.1514 6.75734C10.1808 6.84424 10.2143 6.93128 10.2481 7.01766L10.9027 7.52471L10.7929 6.70275L10.5921 6.5845ZM9.70895 7.23755C9.57564 7.21566 9.41967 7.19004 9.2992 7.15083C9.21106 7.12213 9.12929 7.08372 9.06339 7.02803C9.09212 7.20528 9.20284 7.37872 9.34317 7.55112C9.40074 7.62186 9.46233 7.69131 9.52408 7.76007L10.3188 8.01469L9.93103 7.27831C9.8604 7.26277 9.7855 7.25015 9.70895 7.23755ZM9.09905 8.15456C8.96552 8.17948 8.81148 8.20822 8.68409 8.2123C8.59223 8.21524 8.50302 8.2071 8.42262 8.17788C8.51219 8.33271 8.67508 8.45742 8.86447 8.57139C8.94292 8.61861 9.02467 8.66329 9.10631 8.70725L9.93766 8.67483L9.32257 8.11704L9.09905 8.15456ZM8.83718 9.22488C8.72045 9.29377 8.58622 9.373 8.4682 9.42015C8.38422 9.4537 8.29895 9.47621 8.2146 9.47672C8.3553 9.59082 8.55082 9.65209 8.76583 9.69447C8.85492 9.71203 8.94606 9.72614 9.03685 9.73961L9.80526 9.42551L9.0341 9.11342L8.83718 9.22488Z" fill="#BD9C08"/>
<path d="M14.0373 10.0374H15.4923L14.1259 9.4789C14.1222 9.63273 14.1021 9.7825 14.0673 9.92655C14.0611 9.95226 14.0544 9.9778 14.0472 10.0031L14.0373 10.0374Z" fill="#FCD116"/>
<path d="M14.0165 8.74856C14.0825 8.94516 14.1206 9.15459 14.1259 9.37213L15.5089 8.80678L14.0165 8.74856Z" fill="#FCD116"/>
<path d="M13.6627 8.09987C13.7941 8.26436 13.9015 8.44877 13.9798 8.64785L15.0857 7.64396L13.6627 8.09987Z" fill="#FCD116"/>
<path d="M14.7089 7.15923C14.6486 7.27128 14.6019 7.40305 14.5566 7.531C14.5293 7.60799 14.5007 7.68797 14.4699 7.76202L13.6812 8.01469L14.0687 7.27873C14.1462 7.23075 14.2244 7.18307 14.3033 7.13936C14.4954 7.03286 14.6851 6.95394 14.8679 6.95257C14.8032 7.00716 14.752 7.07935 14.7089 7.15923Z" fill="#FCD116"/>
<path d="M15.3226 8.22288C15.2303 8.30623 15.1441 8.41207 15.0601 8.51515C15.0082 8.57872 14.9525 8.64647 14.8966 8.70737L14.0624 8.67483L14.6776 8.11638C14.7666 8.09799 14.8561 8.0801 14.945 8.06614C15.1613 8.03214 15.3665 8.02284 15.5397 8.08314C15.461 8.11244 15.3893 8.1627 15.3226 8.22288Z" fill="#FCD116"/>
<path d="M15.5318 9.43128C15.4138 9.47843 15.2795 9.55765 15.1628 9.62654C15.0949 9.66661 15.0282 9.70563 14.963 9.73953L14.1948 9.42551L14.9625 9.11167C15.0535 9.12517 15.1449 9.13931 15.2342 9.15691C15.4492 9.1993 15.6447 9.26059 15.7854 9.37471C15.7011 9.37521 15.6158 9.39773 15.5318 9.43128Z" fill="#FCD116"/>
<path d="M13.1091 7.61109C13.2905 7.72215 13.4539 7.85963 13.5941 8.01819L14.2902 6.69603L13.1091 7.61109Z" fill="#FCD116"/>
<path d="M13.7705 6.3692C13.7521 6.49487 13.7534 6.63435 13.7546 6.76984C13.7554 6.85168 13.7559 6.93698 13.7522 7.01743L13.0974 7.5247L13.2072 6.71987C13.2181 6.70603 13.2284 6.69272 13.2381 6.67979C13.2524 6.6609 13.2656 6.64282 13.2786 6.62506C13.3115 6.58007 13.3429 6.53715 13.3855 6.48836C13.5301 6.32267 13.681 6.18407 13.849 6.12087C13.8069 6.19427 13.7835 6.27951 13.7705 6.3692Z" fill="#FCD116"/>
<path d="M12.4217 7.34122C12.6331 7.38371 12.8331 7.45754 13.0167 7.55766L13.2187 6.0773L12.4217 7.34122Z" fill="#FCD116"/>
<path d="M12.6219 5.94833C12.6487 6.06859 12.6975 6.1948 12.745 6.31765C12.7739 6.39231 12.8048 6.47391 12.83 6.55218L12.3812 7.264L12.2068 6.45976C12.2378 6.3698 12.2695 6.27944 12.3041 6.19198C12.3845 5.9889 12.478 5.8086 12.607 5.69148C12.594 5.77397 12.6024 5.8609 12.6219 5.94833Z" fill="#FCD116"/>
<path d="M11.6834 7.32295C11.7868 7.30749 11.8927 7.29948 12.0004 7.29948C12.1079 7.29948 12.2135 7.30746 12.3167 7.32285L12.0001 5.86234L11.6834 7.32295Z" fill="#FCD116"/>
<path d="M11.393 5.94601C11.4597 6.05251 11.5631 6.17255 11.6507 6.27415C11.7016 6.33329 11.7512 6.39144 11.7956 6.4492L11.619 7.26401L11.1727 6.55637C11.1694 6.46561 11.1667 6.37448 11.1678 6.28479C11.1706 6.06281 11.1973 5.85818 11.2916 5.70131C11.3062 5.78613 11.3441 5.86776 11.393 5.94601Z" fill="#FCD116"/>
<path d="M10.9834 7.55806C11.167 7.45783 11.3671 7.3839 11.5785 7.34134L10.7814 6.07728L10.9834 7.55806Z" fill="#FCD116"/>
<path d="M10.2388 6.36371C10.3381 6.44164 10.4747 6.51846 10.5921 6.5845L10.7929 6.70275L10.9027 7.52471L10.2481 7.01766C10.2143 6.93128 10.1808 6.84424 10.1514 6.75734C10.0811 6.54998 10.0365 6.35055 10.0636 6.17363C10.1061 6.24602 10.168 6.30818 10.2388 6.36371Z" fill="#FCD116"/>
<path d="M10.4062 8.01885C10.5464 7.86014 10.7099 7.72252 10.8913 7.61136L9.70973 6.69602L10.4062 8.01885Z" fill="#FCD116"/>
<path d="M9.2992 7.15083C9.41967 7.19004 9.57564 7.21566 9.70895 7.23755C9.7855 7.25015 9.8604 7.26277 9.93103 7.27831L10.3188 8.01469L9.52408 7.76007C9.46233 7.69131 9.40074 7.62186 9.34317 7.55112C9.20284 7.37872 9.09212 7.20528 9.06339 7.02803C9.12929 7.08372 9.21106 7.12213 9.2992 7.15083Z" fill="#FCD116"/>
<path d="M10.0209 8.64842C10.0991 8.44922 10.2066 8.26469 10.338 8.10011L8.91437 7.64397L10.0209 8.64842Z" fill="#FCD116"/>
<path d="M8.68409 8.2123C8.81148 8.20822 8.96552 8.17948 9.09905 8.15456L9.32257 8.11704L9.93766 8.67483L9.10631 8.70725C9.02467 8.66329 8.94292 8.61861 8.86447 8.57139C8.67508 8.45742 8.51219 8.33271 8.42262 8.17788C8.50302 8.2071 8.59223 8.21524 8.68409 8.2123Z" fill="#FCD116"/>
<path d="M9.87498 9.37248C9.88033 9.1548 9.91838 8.94524 9.98442 8.74853L8.49113 8.80678L9.87498 9.37248Z" fill="#FCD116"/>
<path d="M8.4682 9.42015C8.58622 9.373 8.72045 9.29377 8.83718 9.22488L9.0341 9.11342L9.80526 9.42551L9.03685 9.73961C8.94606 9.72614 8.85492 9.71203 8.76583 9.69447C8.55082 9.65209 8.3553 9.59082 8.2146 9.47672C8.29895 9.47621 8.38422 9.4537 8.4682 9.42015Z" fill="#FCD116"/>
<path d="M8.50771 10.0374H9.96364C9.95291 10.0016 9.94309 9.96545 9.93422 9.92889C9.92809 9.90361 9.92241 9.87816 9.91718 9.85254C9.89248 9.73131 9.87809 9.60633 9.87497 9.47855L8.50771 10.0374Z" fill="#FCD116"/>
<path d="M23.9999 14.0183V13.4456C23.5999 13.4456 23.1999 13.5733 22.7999 13.701C22.3999 13.8287 21.9999 13.9564 21.5999 13.9564C21.1999 13.9564 20.7999 13.8287 20.3999 13.701C19.9999 13.5733 19.5999 13.4456 19.1999 13.4456C18.7999 13.4456 18.3999 13.5733 17.9999 13.701C17.5999 13.8287 17.1999 13.9564 16.7999 13.9564C16.3999 13.9564 15.9999 13.8287 15.5999 13.701C15.1999 13.5733 14.7999 13.4456 14.3999 13.4456C13.9999 13.4456 13.5999 13.5733 13.1999 13.701C12.7999 13.8287 12.3999 13.9564 11.9999 13.9564C11.5999 13.9564 11.1999 13.8287 10.8 13.701C10.4 13.5733 10 13.4456 9.6 13.4456C9.2 13.4456 8.8 13.5733 8.4 13.701C8 13.8287 7.6 13.9564 7.2 13.9564C6.8 13.9564 6.4 13.8287 6 13.701C5.6 13.5733 5.2 13.4456 4.8 13.4456C4.4 13.4456 4 13.5733 3.6 13.701C3.2 13.8287 2.8 13.9564 2.4 13.9564C2 13.9564 1.6 13.8287 1.2 13.701C0.800002 13.5733 0.4 13.4456 0 13.4456V14C0 14.101 0.00748139 14.2002 0.0219201 14.2971C0.414613 14.3017 0.807307 14.4271 1.2 14.5525C1.6 14.6802 2 14.8079 2.4 14.8079C2.8 14.8079 3.2 14.6802 3.6 14.5525C4 14.4247 4.4 14.297 4.8 14.297C5.2 14.297 5.6 14.4247 6 14.5525C6.4 14.6802 6.8 14.8079 7.2 14.8079C7.6 14.8079 8 14.6802 8.4 14.5525C8.8 14.4247 9.2 14.297 9.6 14.297C10 14.297 10.4 14.4247 10.8 14.5525C11.2 14.6802 11.6 14.8079 11.9999 14.8079C12.3999 14.8079 12.7999 14.6802 13.1999 14.5525C13.5999 14.4247 13.9999 14.297 14.3999 14.297C14.7999 14.297 15.1999 14.4247 15.5999 14.5525C15.9999 14.6802 16.3999 14.8079 16.7999 14.8079C17.1999 14.8079 17.5999 14.6802 17.9999 14.5525C18.3999 14.4247 18.7999 14.297 19.1999 14.297C19.5999 14.297 19.9999 14.4247 20.3999 14.5525C20.7999 14.6802 21.1999 14.8079 21.5999 14.8079C21.9999 14.8079 22.3999 14.6802 22.7999 14.5525C23.1926 14.4271 23.5854 14.3017 23.9781 14.2971C23.9916 14.206 23.9991 14.113 23.9999 14.0183Z" fill="white"/>
<path d="M0 12.594C0.4 12.594 0.8 12.7217 1.2 12.8494C1.6 12.9771 2 13.1049 2.4 13.1049C2.8 13.1049 3.2 12.9771 3.6 12.8494C4 12.7217 4.4 12.594 4.8 12.594C5.2 12.594 5.6 12.7217 6 12.8494C6.4 12.9771 6.8 13.1049 7.2 13.1049C7.6 13.1049 8 12.9771 8.4 12.8494C8.8 12.7217 9.2 12.594 9.6 12.594C10 12.594 10.4 12.7217 10.8 12.8494C11.2 12.9772 11.6 13.1049 11.9999 13.1049C12.3999 13.1049 12.7999 12.9771 13.1999 12.8494C13.5999 12.7217 13.9999 12.594 14.3999 12.594C14.7999 12.594 15.1999 12.7217 15.5999 12.8494C15.9999 12.9771 16.3999 13.1049 16.7999 13.1049C17.1999 13.1049 17.5999 12.9771 17.9999 12.8494C18.3999 12.7217 18.7999 12.594 19.1999 12.594C19.5999 12.594 19.9999 12.7217 20.3999 12.8494C20.7999 12.9771 21.1999 13.1049 21.5999 13.1049C21.9999 13.1049 22.3999 12.9771 22.7999 12.8494C23.1999 12.7217 23.5999 12.594 23.9999 12.594V11.7425C23.5999 11.7425 23.1999 11.8702 22.7999 11.998C22.3999 12.1257 21.9999 12.2534 21.5999 12.2534C21.1999 12.2534 20.7999 12.1257 20.3999 11.998C19.9999 11.8702 19.5999 11.7425 19.1999 11.7425C18.7999 11.7425 18.3999 11.8702 17.9999 11.998C17.5999 12.1257 17.1999 12.2534 16.7999 12.2534C16.3999 12.2534 15.9999 12.1257 15.5999 11.998C15.1999 11.8702 14.7999 11.7425 14.3999 11.7425C13.9999 11.7425 13.5999 11.8702 13.1999 11.998C12.7999 12.1257 12.3999 12.2534 11.9999 12.2534C11.5999 12.2534 11.1999 12.1257 10.8 11.998C10.4 11.8702 10 11.7425 9.6 11.7425C9.2 11.7425 8.8 11.8702 8.4 11.998C8 12.1257 7.6 12.2534 7.2 12.2534C6.8 12.2534 6.4 12.1257 6 11.998C5.6 11.8702 5.2 11.7425 4.8 11.7425C4.4 11.7425 4 11.8702 3.6 11.998C3.2 12.1257 2.8 12.2534 2.4 12.2534C2 12.2534 1.6 12.1257 1.2 11.998C0.8 11.8702 0.4 11.7425 0 11.7425V12.594Z" fill="white"/>
<path d="M0 10.891C0.4 10.891 0.8 11.0187 1.2 11.1465C1.6 11.2742 2 11.4019 2.4 11.4019C2.8 11.4019 3.2 11.2742 3.6 11.1465C4 11.0187 4.4 10.891 4.8 10.891C5.2 10.891 5.6 11.0187 6 11.1465C6.4 11.2742 6.8 11.4019 7.2 11.4019C7.6 11.4019 8 11.2742 8.4 11.1465C8.8 11.0187 9.2 10.891 9.6 10.891C10 10.891 10.4 11.0187 10.8 11.1465C11.2 11.2742 11.6 11.4019 11.9999 11.4019C12.3999 11.4019 12.7999 11.2742 13.1999 11.1465C13.5999 11.0187 13.9999 10.891 14.3999 10.891C14.7999 10.891 15.1999 11.0187 15.5999 11.1465C15.9999 11.2742 16.3999 11.4019 16.7999 11.4019C17.1999 11.4019 17.5999 11.2742 17.9999 11.1465C18.3999 11.0187 18.7999 10.891 19.1999 10.891C19.5999 10.891 19.9999 11.0187 20.3999 11.1465C20.7999 11.2742 21.1999 11.4019 21.5999 11.4019C21.9999 11.4019 22.3999 11.2742 22.7999 11.1465C23.1999 11.0187 23.5999 10.891 23.9999 10.891V10.0396C23.5999 10.0396 23.1999 10.1673 22.7999 10.295C22.3999 10.4227 21.9999 10.5505 21.5999 10.5505C21.1999 10.5505 20.7999 10.4227 20.3999 10.295C19.9999 10.1673 19.5999 10.0396 19.1999 10.0396C18.7999 10.0396 18.3999 10.1673 17.9999 10.295C17.5999 10.4227 17.1999 10.5505 16.7999 10.5505C16.3999 10.5505 15.9999 10.4227 15.5999 10.295C15.3908 10.2282 15.1816 10.1614 14.9725 10.1129C14.7816 10.0686 14.5908 10.0396 14.3999 10.0396C14.2752 10.0396 14.1506 10.052 14.0259 10.0729C13.9921 10.0786 13.9584 10.0849 13.9246 10.0917C13.683 10.1407 13.4415 10.2179 13.1999 10.295C12.7999 10.4227 12.3999 10.5505 11.9999 10.5505C11.5999 10.5505 11.1999 10.4227 10.8 10.295C10.5588 10.218 10.3176 10.141 10.0764 10.092C10.0426 10.0851 10.0089 10.0788 9.97507 10.0731C9.85005 10.052 9.72502 10.0396 9.6 10.0396C9.58287 10.0396 9.56575 10.0398 9.54862 10.0402C9.3749 10.0449 9.20117 10.0726 9.02745 10.1129C8.8183 10.1614 8.60915 10.2282 8.4 10.295C8 10.4227 7.6 10.5505 7.2 10.5505C6.8 10.5505 6.4 10.4227 6 10.295C5.6 10.1673 5.2 10.0396 4.8 10.0396C4.4 10.0396 4 10.1673 3.6 10.295C3.2 10.4227 2.8 10.5505 2.4 10.5505C2 10.5505 1.6 10.4227 1.2 10.295C0.8 10.1673 0.4 10.0396 0 10.0396V10.891Z" fill="white"/>
<path d="M23.9781 14.2971C23.5854 14.3017 23.1926 14.4271 22.7999 14.5525C22.3999 14.6802 21.9999 14.8079 21.5999 14.8079C21.1999 14.8079 20.7999 14.6802 20.3999 14.5525C19.9999 14.4247 19.5999 14.297 19.1999 14.297C18.7999 14.297 18.3999 14.4247 17.9999 14.5525C17.5999 14.6802 17.1999 14.8079 16.7999 14.8079C16.3999 14.8079 15.9999 14.6802 15.5999 14.5525C15.1999 14.4247 14.7999 14.297 14.3999 14.297C13.9999 14.297 13.5999 14.4247 13.1999 14.5525C12.7999 14.6802 12.3999 14.8079 11.9999 14.8079C11.6 14.8079 11.2 14.6802 10.8 14.5525C10.4 14.4247 10 14.297 9.6 14.297C9.2 14.297 8.8 14.4247 8.4 14.5525C8 14.6802 7.6 14.8079 7.2 14.8079C6.8 14.8079 6.4 14.6802 6 14.5525C5.6 14.4247 5.2 14.297 4.8 14.297C4.4 14.297 4 14.4247 3.6 14.5525C3.2 14.6802 2.8 14.8079 2.4 14.8079C2 14.8079 1.6 14.6802 1.2 14.5525C0.807307 14.4271 0.414613 14.3017 0.0219201 14.2971C0.165022 15.258 0.991525 15.9957 1.99117 16H22.0088C23.0085 15.9957 23.835 15.258 23.9781 14.2971Z" fill="#003F87"/>
<path d="M1.2 11.1465C0.8 11.0187 0.4 10.891 0 10.891V11.7425C0.4 11.7425 0.8 11.8702 1.2 11.998C1.6 12.1257 2 12.2534 2.4 12.2534C2.8 12.2534 3.2 12.1257 3.6 11.998C4 11.8702 4.4 11.7425 4.8 11.7425C5.2 11.7425 5.6 11.8702 6 11.998C6.4 12.1257 6.8 12.2534 7.2 12.2534C7.6 12.2534 8 12.1257 8.4 11.998C8.8 11.8702 9.2 11.7425 9.6 11.7425C10 11.7425 10.4 11.8702 10.8 11.998C11.1999 12.1257 11.5999 12.2534 11.9999 12.2534C12.3999 12.2534 12.7999 12.1257 13.1999 11.998C13.5999 11.8702 13.9999 11.7425 14.3999 11.7425C14.7999 11.7425 15.1999 11.8702 15.5999 11.998C15.9999 12.1257 16.3999 12.2534 16.7999 12.2534C17.1999 12.2534 17.5999 12.1257 17.9999 11.998C18.3999 11.8702 18.7999 11.7425 19.1999 11.7425C19.5999 11.7425 19.9999 11.8702 20.3999 11.998C20.7999 12.1257 21.1999 12.2534 21.5999 12.2534C21.9999 12.2534 22.3999 12.1257 22.7999 11.998C23.1999 11.8702 23.5999 11.7425 23.9999 11.7425V12.594C23.5999 12.594 23.1999 12.7217 22.7999 12.8494C22.3999 12.9771 21.9999 13.1049 21.5999 13.1049C21.1999 13.1049 20.7999 12.9771 20.3999 12.8494C19.9999 12.7217 19.5999 12.594 19.1999 12.594C18.7999 12.594 18.3999 12.7217 17.9999 12.8494C17.5999 12.9771 17.1999 13.1049 16.7999 13.1049C16.3999 13.1049 15.9999 12.9771 15.5999 12.8494C15.1999 12.7217 14.7999 12.594 14.3999 12.594C13.9999 12.594 13.5999 12.7217 13.1999 12.8494C12.7999 12.9771 12.3999 13.1049 11.9999 13.1049C11.6 13.1049 11.2 12.9772 10.8 12.8494C10.4 12.7217 10 12.594 9.6 12.594C9.2 12.594 8.8 12.7217 8.4 12.8494C8 12.9771 7.6 13.1049 7.2 13.1049C6.8 13.1049 6.4 12.9771 6 12.8494C5.6 12.7217 5.2 12.594 4.8 12.594C4.4 12.594 4 12.7217 3.6 12.8494C3.2 12.9771 2.8 13.1049 2.4 13.1049C2 13.1049 1.6 12.9771 1.2 12.8494C0.8 12.7217 0.4 12.594 0 12.594V13.4456C0.4 13.4456 0.800002 13.5733 1.2 13.701C1.6 13.8287 2 13.9564 2.4 13.9564C2.8 13.9564 3.2 13.8287 3.6 13.701C4 13.5733 4.4 13.4456 4.8 13.4456C5.2 13.4456 5.6 13.5733 6 13.701C6.4 13.8287 6.8 13.9564 7.2 13.9564C7.6 13.9564 8 13.8287 8.4 13.701C8.8 13.5733 9.2 13.4456 9.6 13.4456C10 13.4456 10.4 13.5733 10.8 13.701C11.1999 13.8287 11.5999 13.9564 11.9999 13.9564C12.3999 13.9564 12.7999 13.8287 13.1999 13.701C13.5999 13.5733 13.9999 13.4456 14.3999 13.4456C14.7999 13.4456 15.1999 13.5733 15.5999 13.701C15.9999 13.8287 16.3999 13.9564 16.7999 13.9564C17.1999 13.9564 17.5999 13.8287 17.9999 13.701C18.3999 13.5733 18.7999 13.4456 19.1999 13.4456C19.5999 13.4456 19.9999 13.5733 20.3999 13.701C20.7999 13.8287 21.1999 13.9564 21.5999 13.9564C21.9999 13.9564 22.3999 13.8287 22.7999 13.701C23.1999 13.5733 23.5999 13.4456 23.9999 13.4456V14.0183L24 14V10.6357L23.9999 10.891C23.5999 10.891 23.1999 11.0187 22.7999 11.1465C22.3999 11.2742 21.9999 11.4019 21.5999 11.4019C21.1999 11.4019 20.7999 11.2742 20.3999 11.1465C19.9999 11.0187 19.5999 10.891 19.1999 10.891C18.7999 10.891 18.3999 11.0187 17.9999 11.1465C17.5999 11.2742 17.1999 11.4019 16.7999 11.4019C16.3999 11.4019 15.9999 11.2742 15.5999 11.1465C15.1999 11.0187 14.7999 10.891 14.3999 10.891C13.9999 10.891 13.5999 11.0187 13.1999 11.1465C12.7999 11.2742 12.3999 11.4019 11.9999 11.4019C11.6 11.4019 11.2 11.2742 10.8 11.1465C10.4 11.0187 10 10.891 9.6 10.891C9.2 10.891 8.8 11.0187 8.4 11.1465C8 11.2742 7.6 11.4019 7.2 11.4019C6.8 11.4019 6.4 11.2742 6 11.1465C5.6 11.0187 5.2 10.891 4.8 10.891C4.4 10.891 4 11.0187 3.6 11.1465C3.2 11.2742 2.8 11.4019 2.4 11.4019C2 11.4019 1.6 11.2742 1.2 11.1465Z" fill="#003F87"/>
<path d="M12.0004 7.39005C10.8762 7.39005 9.96489 8.30139 9.96489 9.42567C9.96489 9.65902 10.0042 9.8832 10.0764 10.092C10.3176 10.141 10.5588 10.218 10.8 10.295C11.1999 10.4227 11.5999 10.5505 11.9999 10.5505C12.3999 10.5505 12.7999 10.4227 13.1999 10.295C13.4415 10.2179 13.683 10.1407 13.9246 10.0917C13.9968 9.88304 14.036 9.65894 14.036 9.42567C14.036 8.3014 13.1246 7.39005 12.0004 7.39005Z" fill="#FCD116"/>
<path fill-rule="evenodd" clip-rule="evenodd" d="M11.3618 5.59615L11.3718 5.48172L11.2959 5.56792C11.1323 5.75366 11.0957 6.01788 11.0923 6.28384C11.0917 6.33241 11.0922 6.38145 11.0933 6.43044L10.7524 5.88982C10.7429 5.87479 10.7243 5.86841 10.7076 5.87448C10.6909 5.88056 10.6807 5.89745 10.6831 5.91504L10.7771 6.60413C10.7286 6.57488 10.6786 6.54662 10.6291 6.51873C10.5099 6.45167 10.38 6.37859 10.2854 6.30434C10.1873 6.22736 10.117 6.14421 10.0905 6.04538L10.0588 5.92708L10.0184 6.04271C9.93902 6.27 9.99466 6.53005 10.0799 6.78156C10.0965 6.83051 10.1143 6.87952 10.1327 6.92826L9.61836 6.52977C9.60432 6.5189 9.5846 6.51928 9.571 6.5307C9.55739 6.54211 9.55359 6.56147 9.56186 6.57718L9.88551 7.19186C9.83127 7.18131 9.77602 7.1721 9.7212 7.16308C9.58592 7.14085 9.4374 7.11645 9.32257 7.07906C9.20324 7.04021 9.10814 6.98609 9.04948 6.90233L8.98394 6.80875L8.98085 6.92295C8.97426 7.16588 9.11626 7.39191 9.28464 7.59877C9.31644 7.63784 9.34947 7.67656 9.38296 7.71486L8.77165 7.51899C8.75474 7.51357 8.73633 7.52068 8.72746 7.53606C8.71858 7.55144 8.72162 7.57093 8.73477 7.58286L9.25072 8.05124C9.19575 8.05987 9.14025 8.07011 9.08523 8.08036C8.94965 8.10565 8.80315 8.13298 8.68167 8.13687C8.55617 8.14089 8.44818 8.12234 8.36439 8.06368L8.2684 7.99648L8.30713 8.10707C8.38696 8.335 8.59733 8.49871 8.82555 8.63606C8.86931 8.66239 8.91412 8.68797 8.95918 8.71299L8.31429 8.73815C8.29654 8.73884 8.28168 8.75181 8.2786 8.7693C8.27551 8.78679 8.28504 8.80406 8.30148 8.81078L8.94685 9.0746C8.89729 9.10191 8.84781 9.13098 8.79883 9.15988C8.68029 9.22983 8.55271 9.30511 8.4402 9.35006C8.3241 9.39644 8.21659 9.41574 8.11774 9.38926L8 9.35772L8.07933 9.45027C8.23802 9.6354 8.49104 9.71724 8.75123 9.76852C8.80074 9.77828 8.8509 9.78699 8.9011 9.7951L8.30138 10.0402C8.28469 10.0471 8.27515 10.0648 8.27863 10.0824C8.28211 10.1001 8.29762 10.1129 8.31566 10.1129H9.02745C9.20117 10.0726 9.3749 10.0449 9.54862 10.0402C9.56575 10.0398 9.58287 10.0396 9.6 10.0396C9.72502 10.0396 9.85005 10.052 9.97507 10.0731C9.97124 10.0612 9.96723 10.0494 9.96364 10.0374H8.50771L9.87497 9.47855L9.87498 9.37248L8.49113 8.80678L9.98442 8.74853C9.99575 8.71478 10.0079 8.6814 10.0209 8.64842L8.91437 7.64397L10.338 8.10011C10.3601 8.07245 10.3828 8.04535 10.4062 8.01885L9.70973 6.69602L10.8913 7.61136C10.9215 7.59285 10.9522 7.57508 10.9834 7.55806L10.7814 6.07728L11.5785 7.34134C11.6132 7.33436 11.6482 7.32822 11.6834 7.32295L12.0001 5.86234L12.3167 7.32285C12.352 7.32811 12.387 7.33424 12.4217 7.34122L13.2187 6.0773L13.0167 7.55766C13.048 7.57472 13.0788 7.59254 13.1091 7.61109L14.2902 6.69603L13.5941 8.01819C13.6176 8.04483 13.6405 8.07207 13.6627 8.09987L15.0857 7.64396L13.9798 8.64785C13.9929 8.68102 14.0051 8.7146 14.0165 8.74856L15.5089 8.80678L14.1259 9.37213L14.1259 9.4789C14.1264 9.46121 14.1259 9.38992 14.1259 9.37213C14.1206 9.15459 14.0825 8.94516 14.0165 8.74856L13.9798 8.64785C13.9015 8.44877 13.7941 8.26436 13.6627 8.09987L13.5941 8.01819C13.4539 7.85963 13.2905 7.72215 13.1091 7.61109L13.0167 7.55766C12.8331 7.45754 12.6331 7.38371 12.4217 7.34122L12.3167 7.32285C12.2135 7.30746 12.1079 7.29948 12.0004 7.29948C11.8927 7.29948 11.7868 7.30749 11.6834 7.32295L11.5785 7.34134C11.3671 7.3839 11.167 7.45783 10.9834 7.55806L10.8913 7.61136C10.7099 7.72252 10.5464 7.86014 10.4062 8.01885L10.338 8.10011C10.2066 8.26469 10.0991 8.44922 10.0209 8.64842L9.98442 8.74853C9.91838 8.94524 9.88033 9.1548 9.87498 9.37248L9.87497 9.47855C9.87809 9.60633 9.89248 9.73131 9.91718 9.85254L9.93422 9.92889C9.94309 9.96545 9.95291 10.0016 9.96364 10.0374L9.97507 10.0731C10.0089 10.0788 10.0426 10.0851 10.0764 10.092C10.0042 9.8832 9.96489 9.65902 9.96489 9.42567C9.96489 8.30139 10.8762 7.39005 12.0004 7.39005C13.1246 7.39005 14.036 8.3014 14.036 9.42567C14.036 9.65894 13.9968 9.88304 13.9246 10.0917C13.9584 10.0849 13.9921 10.0786 14.0259 10.0729L14.0373 10.0374L14.0472 10.0031C14.0544 9.9778 14.0611 9.95226 14.0673 9.92655C14.1021 9.7825 14.1222 9.63273 14.1259 9.4789L14.1259 9.37213C14.1259 9.38992 14.1264 9.46121 14.1259 9.4789L15.4923 10.0374H14.0373C14.0337 10.0493 14.0297 10.0611 14.0259 10.0729C14.1506 10.052 14.2752 10.0396 14.3999 10.0396C14.5908 10.0396 14.7816 10.0686 14.9725 10.1129H15.6843C15.7023 10.1129 15.7179 10.1001 15.7213 10.0824C15.7248 10.0648 15.7153 10.0471 15.6986 10.0402L15.0533 9.77645C15.1077 9.74657 15.1617 9.71485 15.213 9.68457C15.3315 9.61462 15.4473 9.54631 15.5598 9.50136C15.6759 9.45498 15.7834 9.43568 15.8823 9.46216L16 9.4937L15.9207 9.40115C15.762 9.21602 15.509 9.13416 15.2488 9.08286C15.1991 9.07306 15.1487 9.06432 15.0983 9.05618L15.6986 8.81078C15.715 8.80406 15.7246 8.78679 15.7215 8.7693C15.7184 8.75181 15.7035 8.73884 15.6858 8.73815L14.9945 8.71118C15.0373 8.66228 15.0787 8.61172 15.1173 8.56446C15.2025 8.45991 15.2853 8.35824 15.3732 8.2789C15.4652 8.19582 15.5587 8.1411 15.6605 8.13218L15.7824 8.12152L15.6757 8.06168C15.4604 7.94094 15.1947 7.95049 14.9332 7.99158C14.8844 7.99925 14.8354 8.00809 14.7865 8.01752L15.2653 7.58286C15.2784 7.57093 15.2815 7.55144 15.2726 7.53606C15.2637 7.52068 15.2453 7.51357 15.2284 7.51899L14.5633 7.73209C14.5858 7.67421 14.6069 7.61513 14.6269 7.55869C14.6729 7.42871 14.7179 7.30183 14.7754 7.19502C14.8346 7.08515 14.9046 7.00145 14.9974 6.95818L15.1065 6.9073L14.9879 6.88679C14.7451 6.84483 14.4986 6.94483 14.2667 7.07335C14.2233 7.09736 14.1802 7.12257 14.1374 7.14827L14.4381 6.57718C14.4464 6.56147 14.4426 6.54211 14.429 6.5307C14.4154 6.51928 14.3956 6.5189 14.3816 6.52977L13.8297 6.95733C13.8311 6.89491 13.8307 6.83187 13.8301 6.77178C13.8289 6.63415 13.8277 6.49987 13.8451 6.38008C13.8631 6.25674 13.9002 6.15424 13.9726 6.08183L14.0573 5.9972L13.9394 6.01799C13.701 6.06003 13.5034 6.23847 13.3286 6.43872C13.295 6.47722 13.262 6.51687 13.2294 6.55685L13.317 5.91504C13.3194 5.89745 13.3092 5.88056 13.2925 5.87448C13.2758 5.86841 13.2571 5.87479 13.2477 5.88982L12.882 6.46971C12.8607 6.40841 12.8375 6.3476 12.816 6.29189C12.7679 6.1675 12.7211 6.04639 12.6956 5.93192C12.6684 5.80994 12.6669 5.70129 12.71 5.60881L12.7625 5.49619L12.6563 5.56059C12.4564 5.68169 12.3319 5.91659 12.234 6.16421C12.2139 6.21498 12.1947 6.26673 12.1762 6.31861L12.037 5.67624C12.0332 5.65888 12.0178 5.6465 12.0001 5.6465C11.9823 5.6465 11.967 5.65888 11.9632 5.67624L11.8163 6.35368C11.7812 6.31032 11.7444 6.26737 11.7079 6.2249C11.619 6.12182 11.5205 6.00744 11.457 5.90598C11.3908 5.80012 11.3529 5.698 11.3618 5.59615ZM15.1628 9.62654C15.2795 9.55765 15.4138 9.47843 15.5318 9.43128C15.6158 9.39773 15.7011 9.37521 15.7854 9.37471C15.6447 9.26059 15.4492 9.1993 15.2342 9.15691C15.1449 9.13931 15.0535 9.12517 14.9625 9.11167L14.1948 9.42551L14.963 9.73953C15.0282 9.70563 15.0949 9.66661 15.1628 9.62654ZM15.0601 8.51515C15.1441 8.41207 15.2303 8.30623 15.3226 8.22288C15.3893 8.1627 15.461 8.11244 15.5397 8.08314C15.3665 8.02284 15.1613 8.03214 14.945 8.06614C14.8561 8.0801 14.7666 8.09799 14.6776 8.11638L14.0624 8.67483L14.8966 8.70737C14.9525 8.64647 15.0082 8.57872 15.0601 8.51515ZM14.5566 7.531C14.6019 7.40305 14.6486 7.27128 14.7089 7.15923C14.752 7.07935 14.8032 7.00716 14.8679 6.95257C14.6851 6.95394 14.4954 7.03286 14.3033 7.13936C14.2244 7.18307 14.1462 7.23075 14.0687 7.27873L13.6812 8.01469L14.4699 7.76202C14.5007 7.68797 14.5293 7.60799 14.5566 7.531ZM13.7546 6.76984C13.7534 6.63435 13.7521 6.49487 13.7705 6.3692C13.7835 6.27951 13.8069 6.19427 13.849 6.12087C13.681 6.18407 13.5301 6.32267 13.3855 6.48836C13.3429 6.53715 13.3115 6.58007 13.2786 6.62506C13.2656 6.64282 13.2524 6.6609 13.2381 6.67979C13.2284 6.69272 13.2181 6.70603 13.2072 6.71987L13.0974 7.5247L13.7522 7.01743C13.7559 6.93698 13.7554 6.85168 13.7546 6.76984ZM12.745 6.31765C12.6975 6.1948 12.6487 6.06859 12.6219 5.94833C12.6024 5.8609 12.594 5.77397 12.607 5.69148C12.478 5.8086 12.3845 5.9889 12.3041 6.19198C12.2695 6.27944 12.2378 6.3698 12.2068 6.45976L12.3812 7.264L12.83 6.55218C12.8048 6.47391 12.7739 6.39231 12.745 6.31765ZM11.6507 6.27415C11.5631 6.17255 11.4597 6.05251 11.393 5.94601C11.3441 5.86776 11.3062 5.78613 11.2916 5.70131C11.1973 5.85818 11.1706 6.06281 11.1678 6.28479C11.1667 6.37448 11.1694 6.46561 11.1727 6.55637L11.619 7.26401L11.7956 6.4492C11.7512 6.39144 11.7016 6.33329 11.6507 6.27415ZM10.5921 6.5845C10.4747 6.51846 10.3381 6.44164 10.2388 6.36371C10.168 6.30818 10.1061 6.24602 10.0636 6.17363C10.0365 6.35055 10.0811 6.54998 10.1514 6.75734C10.1808 6.84424 10.2143 6.93128 10.2481 7.01766L10.9027 7.52471L10.7929 6.70275L10.5921 6.5845ZM9.70895 7.23755C9.57564 7.21566 9.41967 7.19004 9.2992 7.15083C9.21106 7.12213 9.12929 7.08372 9.06339 7.02803C9.09212 7.20528 9.20284 7.37872 9.34317 7.55112C9.40074 7.62186 9.46233 7.69131 9.52408 7.76007L10.3188 8.01469L9.93103 7.27831C9.8604 7.26277 9.7855 7.25015 9.70895 7.23755ZM9.09905 8.15456C8.96552 8.17948 8.81148 8.20822 8.68409 8.2123C8.59223 8.21524 8.50302 8.2071 8.42262 8.17788C8.51219 8.33271 8.67508 8.45742 8.86447 8.57139C8.94292 8.61861 9.02467 8.66329 9.10631 8.70725L9.93766 8.67483L9.32257 8.11704L9.09905 8.15456ZM8.83718 9.22488C8.72045 9.29377 8.58622 9.373 8.4682 9.42015C8.38422 9.4537 8.29895 9.47621 8.2146 9.47672C8.3553 9.59082 8.55082 9.65209 8.76583 9.69447C8.85492 9.71203 8.94606 9.72614 9.03685 9.73961L9.80526 9.42551L9.0341 9.11342L8.83718 9.22488Z" fill="#BD9C08"/>
<path fill-rule="evenodd" clip-rule="evenodd" d="M22 1H2C1.44772 1 1 1.44772 1 2V14C1 14.5523 1.44772 15 2 15H22C22.5523 15 23 14.5523 23 14V2C23 1.44771 22.5523 1 22 1ZM2 0C0.89543 0 0 0.89543 0 2V14C0 15.1046 0.89543 16 2 16H22C23.1046 16 24 15.1046 24 14V2C24 0.89543 23.1046 0 22 0H2Z" fill="black" fill-opacity="0.08"/>
</g>
</g>
</svg>
