<svg width="24" height="16" viewBox="0 0 24 16" fill="none" xmlns="http://www.w3.org/2000/svg">
<g id="flags / flag-puerto rico">
<g id="flag">
<path d="M22 0H2C0.89543 0 0 0.89543 0 2C0 1.3877 0.275391 0.839844 0.708984 0.472656L4.83575 3H24V2C24 0.89543 23.1046 0 22 0Z" fill="#ED0000"/>
<path d="M9.7343 6H24V3H4.83575L9.7343 6Z" fill="white"/>
<path d="M9.7343 10H24V6H9.7343L13 8L9.7343 10Z" fill="#ED0000"/>
<path d="M4.83575 13H24V10H9.7343L4.83575 13Z" fill="white"/>
<path d="M5.03697e-05 14.0143C0.00775974 15.1123 0.900214 16 2 16H22C23.1046 16 24 15.1046 24 14V13H4.83575L0.708984 15.5273C0.278778 15.163 0.00431263 14.6209 5.03697e-05 14.0143Z" fill="#ED0000"/>
<path d="M0 2V14C0 14.6123 0.275391 15.1602 0.708984 15.5273L13 8L0.708984 0.472656C0.275391 0.839844 0 1.3877 0 2Z" fill="#004EF1"/>
<path fill-rule="evenodd" clip-rule="evenodd" d="M4.45486 9.20699L2.94686 9.99999L3.23486 8.31999L2.01486 7.13299L3.70086 6.88799L4.45486 5.35999L5.20886 6.88699L6.89486 7.13199L5.67486 8.32199L5.96286 9.99999" fill="white"/>
<path fill-rule="evenodd" clip-rule="evenodd" d="M22 1H2C1.44772 1 1 1.44772 1 2V14C1 14.5523 1.44772 15 2 15H22C22.5523 15 23 14.5523 23 14V2C23 1.44771 22.5523 1 22 1ZM2 0C0.89543 0 0 0.89543 0 2V14C0 15.1046 0.895431 16 2 16H22C23.1046 16 24 15.1046 24 14V2C24 0.89543 23.1046 0 22 0H2Z" fill="black" fill-opacity="0.08"/>
</g>
</g>
</svg>
