<svg width="24" height="16" viewBox="0 0 24 16" fill="none" xmlns="http://www.w3.org/2000/svg">
<g id="flags / flag-grenada">
<g id="flag">
<path d="M22 0H2C0.89543 0 0 0.89543 0 2V14C0 15.1046 0.89543 16 2 16H22C23.1046 16 24 15.1046 24 14V2C24 0.89543 23.1046 0 22 0Z" fill="#CE1126"/>
<path fill-rule="evenodd" clip-rule="evenodd" d="M22 1H2C1.44772 1 1 1.44772 1 2V14C1 14.5523 1.44772 15 2 15H22C22.5523 15 23 14.5523 23 14V2C23 1.44771 22.5523 1 22 1ZM2 0C0.89543 0 0 0.89543 0 2V14C0 15.1046 0.89543 16 2 16H22C23.1046 16 24 15.1046 24 14V2C24 0.89543 23.1046 0 22 0H2Z" fill="black" fill-opacity="0.08"/>
<path fill-rule="evenodd" clip-rule="evenodd" d="M12.0001 1.4229L11.5126 1.67925L11.6054 1.13636L11.2114 0.75166L11.7563 0.673061L12.0001 0.179252L12.2438 0.673393L12.7887 0.751991L12.3941 1.13669L12.4869 1.67925" fill="#FCD116"/>
<path fill-rule="evenodd" clip-rule="evenodd" d="M6.00034 1.42284L5.51284 1.6792L5.60569 1.13631L5.21171 0.751607L5.75659 0.673009L6.00034 0.179199L6.2441 0.67334L6.78898 0.751939L6.39433 1.13664L6.48719 1.6792" fill="#FCD116"/>
<path fill-rule="evenodd" clip-rule="evenodd" d="M6.00031 15.4625L5.5128 15.7188L5.60566 15.1759L5.21167 14.7912L5.75655 14.7127L6.00031 14.2188L6.24406 14.713L6.78894 14.7916L6.39429 15.1763L6.48715 15.7188" fill="#FCD116"/>
<path fill-rule="evenodd" clip-rule="evenodd" d="M12 15.4624L11.5125 15.7188L11.6054 15.1759L11.2114 14.7912L11.7562 14.7126L12 14.2188L12.2438 14.7129L12.7886 14.7915L12.394 15.1762L12.4868 15.7188" fill="#FCD116"/>
<path fill-rule="evenodd" clip-rule="evenodd" d="M17.9996 1.42284L17.5121 1.6792L17.6049 1.13631L17.2109 0.751607L17.7558 0.673009L17.9996 0.179199L18.2433 0.67334L18.7882 0.751939L18.3936 1.13664L18.4864 1.6792" fill="#FCD116"/>
<path fill-rule="evenodd" clip-rule="evenodd" d="M17.9996 15.4624L17.5121 15.7188L17.6049 15.1759L17.2109 14.7912L17.7558 14.7126L17.9996 14.2188L18.2433 14.7129L18.7882 14.7915L18.3936 15.1762L18.4864 15.7188" fill="#FCD116"/>
<path d="M2 2H2.01099L2 14V2Z" fill="#FCD116"/>
<path d="M9.23853 9.17432L2 14H22V2H21.989H2.01099L9.23901 6.82471C9.69629 5.75195 10.7605 5 12 5C13.2395 5 14.3037 5.75195 14.761 6.82471L21.989 2L22 14L14.7615 9.17432C14.3044 10.2476 13.24 11 12 11C10.76 11 9.69556 10.2476 9.23853 9.17432Z" fill="#FCD116"/>
<path d="M9.23853 9.17432C9.08496 8.81348 9 8.4165 9 8C9 7.58301 9.08521 7.18555 9.23901 6.82471L2.01099 2L2 14L9.23853 9.17432Z" fill="#007A5E"/>
<path d="M14.7615 9.17432L22 14L21.989 2L14.761 6.82471C14.9148 7.18555 15 7.58301 15 8C15 8.4165 14.915 8.81348 14.7615 9.17432Z" fill="#007A5E"/>
<path fill-rule="evenodd" clip-rule="evenodd" d="M15 8C15 9.65685 13.6569 11 12 11C10.3431 11 9 9.65685 9 8C9 6.34315 10.3431 5 12 5C13.6569 5 15 6.34315 15 8ZM10.5301 10.2618L12.0001 9.48877L13.4681 10.2618L13.1881 8.62577L14.3781 7.46577L12.7351 7.22877L12.0001 5.73877L11.2651 7.22777L9.62207 7.46477L10.8101 8.62477L10.5301 10.2618Z" fill="#CE1126"/>
<path fill-rule="evenodd" clip-rule="evenodd" d="M12.0001 9.48877L10.5301 10.2618L10.8101 8.62477L9.62207 7.46477L11.2651 7.22777L12.0001 5.73877L12.7351 7.22877L14.3781 7.46577L13.1881 8.62577L13.4681 10.2618" fill="#FCD116"/>
<path fill-rule="evenodd" clip-rule="evenodd" d="M3.05267 8.40265C3.43018 9.00679 4.1732 9.06461 4.78648 9.41227C4.419 8.92446 4.5271 9.13037 4.42163 8.75146C4.37399 8.49162 4.37942 8.20638 4.46777 8.15118C4.54127 8.10525 4.78003 8.30861 4.98022 8.47412C5.22805 8.76434 4.92381 8.40266 5.42295 8.97556C5.42295 8.19971 5.83626 7.65336 5.26538 7.0249C4.57595 6.26593 4.70595 6.67107 3.12356 6C3.28901 6.95968 2.85511 7.25042 3.05267 8.40265Z" fill="#FFD938"/>
<path d="M4.46777 8.15118C4.37942 8.20638 4.37399 8.49162 4.42163 8.75146L5.08727 9.13877L4.98022 8.47412C4.78003 8.30861 4.54127 8.10525 4.46777 8.15118Z" fill="#CE1126"/>
</g>
</g>
</svg>
