<svg width="24" height="16" viewBox="0 0 24 16" fill="none" xmlns="http://www.w3.org/2000/svg">
<g id="flags / flag-cocos (keeling) islands">
<g id="flag">
<path d="M22 0H2C0.89543 0 0 0.89543 0 2V14C0 15.1046 0.89543 16 2 16H22C23.1046 16 24 15.1046 24 14V2C24 0.89543 23.1046 0 22 0Z" fill="#008000"/>
<path d="M12.3837 11C10.7268 11 9.38366 9.65685 9.38366 8C9.38366 6.34315 10.7268 5 12.3837 5C13.1605 5 13.8684 5.29527 14.4012 5.7797C14.0744 5.62014 13.7072 5.53059 13.3191 5.53059C11.9554 5.53059 10.8498 6.63612 10.8498 7.99986C10.8498 9.3636 11.9554 10.4691 13.3191 10.4691C13.7075 10.4691 14.0749 10.3795 14.4019 10.2197C13.869 10.7045 13.1608 11 12.3837 11Z" fill="#FFE000"/>
<path d="M19.1916 11.5485L19.3757 12.1209L19.9381 11.9079L19.6054 12.409L20.1227 12.7159L19.5232 12.7682L19.6057 13.364L19.1916 12.9279L18.7773 13.3637L18.8598 12.7682L18.2606 12.7157L18.7778 12.4088L18.4449 11.9077L19.0073 12.1207L19.1916 11.5485Z" fill="#FFE000"/>
<path d="M15.849 6.25681L16.0331 6.82924L16.5955 6.61623L16.2628 7.11731L16.7801 7.42421L16.1806 7.47647L16.2631 8.07224L15.849 7.63616L15.4347 8.07198L15.5172 7.47647L14.918 7.42395L15.4352 7.11704L15.1023 6.61597L15.6647 6.82897L15.849 6.25681Z" fill="#FFE000"/>
<path d="M19.1916 2.6359L19.3757 3.20833L19.9381 2.99533L19.6054 3.4964L20.1227 3.80331L19.5232 3.85556L19.6057 4.45134L19.1916 4.01525L18.7773 4.45107L18.8598 3.85556L18.2606 3.80304L18.7778 3.49614L18.4449 2.99506L19.0073 3.20807L19.1916 2.6359Z" fill="#FFE000"/>
<path d="M22.1623 5.3654L22.3464 5.93783L22.9088 5.72482L22.5761 6.2259L23.0934 6.5328L22.4939 6.58506L22.5764 7.18083L22.1623 6.74475L21.748 7.18057L21.8305 6.58506L21.2313 6.53254L21.7485 6.22563L21.4156 5.72456L21.978 5.93756L22.1623 5.3654Z" fill="#FFE000"/>
<path fill-rule="evenodd" clip-rule="evenodd" d="M20.5284 8.87621L20.2034 9.04712L20.2655 8.68505L20.0025 8.42923L20.3659 8.37643L20.5284 8.04712L20.6909 8.37621L21.0543 8.42902L20.7913 8.68548L20.8534 9.04712" fill="#FFE000"/>
<path d="M4.1737 6.48535H4.92585C4.92585 6.48535 4.95593 6.41658 4.91725 6.3822C4.90568 6.37294 4.88569 6.36555 4.8635 6.35735C4.80328 6.33508 4.72682 6.30682 4.75822 6.21887C4.77635 6.16632 4.79141 6.12828 4.80443 6.09542C4.85315 5.97241 4.87316 5.92191 4.91725 5.45383C4.95814 4.946 4.9868 4.56761 5.00321 4.0584C5.0013 4.0569 4.99937 4.05544 4.99742 4.05404C4.9645 4.03033 4.92605 4.02098 4.89146 4.04215C4.89146 4.04215 4.91295 4.21601 4.84848 4.59423C4.80511 4.86684 4.78184 4.95859 4.74647 5.09801C4.73277 5.15203 4.71725 5.21319 4.69805 5.29481C4.66566 5.45928 4.61818 5.62042 4.55622 5.77618C4.50344 5.92698 4.49034 5.94881 4.42411 6.05922L4.39289 6.11142C4.36064 6.16191 4.34257 6.18952 4.33107 6.20709C4.32187 6.22114 4.31683 6.22884 4.31213 6.23664C4.30658 6.24585 4.30144 6.25531 4.29023 6.27594C4.28652 6.28278 4.28213 6.29084 4.27685 6.30054C4.26064 6.326 4.24443 6.33401 4.22957 6.34135C4.21684 6.34764 4.2051 6.35344 4.19519 6.3693C4.17799 6.40369 4.1737 6.48535 4.1737 6.48535Z" fill="#915E2B"/>
<path fill-rule="evenodd" clip-rule="evenodd" d="M4.74486 2.03676C4.75471 2.1707 4.73716 2.30524 4.69328 2.43217C4.63372 2.56497 4.60017 2.70795 4.59443 2.85338C4.56244 2.86404 4.52972 2.83723 4.49687 2.81031C4.45027 2.77213 4.40342 2.73374 4.35804 2.8018C4.39334 2.90226 4.45951 2.989 4.52513 3.07502C4.56339 3.12516 4.60145 3.17507 4.63311 3.2273C4.63807 3.2397 4.65232 3.25816 4.66823 3.27879C4.70751 3.3297 4.75694 3.39376 4.70188 3.41212C4.57873 3.36916 4.51665 3.24987 4.45587 3.13309C4.42544 3.0746 4.39533 3.01675 4.35804 2.96942C4.29264 2.8471 4.19716 2.74345 4.0806 2.66825C3.96405 2.59306 3.83026 2.54879 3.69185 2.53962C3.67797 2.54018 3.66023 2.54023 3.64003 2.54029C3.5038 2.5407 3.25596 2.54144 3.33082 2.69865C3.38699 2.7361 3.44969 2.76865 3.51323 2.80164C3.59554 2.84438 3.67925 2.88785 3.75202 2.94363C3.85088 2.95223 4.0228 3.11555 4.0142 3.17573C3.92878 3.14156 3.8667 3.1042 3.80371 3.0663C3.73993 3.02793 3.67522 2.98899 3.5844 2.95223C3.33512 2.85767 2.99558 2.91355 2.85374 3.15853C2.83225 3.223 2.79357 3.40782 2.87523 3.42931C2.96979 3.28318 3.10303 3.11555 3.30073 3.16283C3.39147 3.17039 3.31667 3.26811 3.26441 3.33638C3.22755 3.38453 3.20191 3.41803 3.25346 3.39492C3.26707 3.38948 3.28501 3.37971 3.30535 3.36864C3.34919 3.34478 3.40419 3.31484 3.45116 3.30896C3.48913 3.30896 3.51667 3.32387 3.54255 3.33788C3.56061 3.34766 3.57786 3.35701 3.59729 3.36054C3.69615 3.37343 3.72623 3.41212 3.71334 3.4379C3.70921 3.4503 3.69912 3.45078 3.67879 3.45175C3.65681 3.4528 3.62286 3.45443 3.57151 3.47229C3.54857 3.48063 3.53069 3.49504 3.51198 3.51012C3.49212 3.52613 3.47133 3.54289 3.44257 3.55395C3.3824 3.57114 3.26205 3.57544 3.21907 3.55395C3.06005 3.48948 2.80217 3.49808 2.75489 3.69578C2.75489 3.7443 2.73025 3.73531 2.7026 3.72523C2.68125 3.71745 2.65812 3.70902 2.64314 3.72587C2.63901 3.73884 2.63537 3.75181 2.6318 3.76452C2.60937 3.84443 2.58989 3.9138 2.47122 3.90638L2.43696 3.94095C2.36201 4.0169 2.28448 4.09545 2.18755 4.15137C2.2234 4.23263 2.3164 4.17833 2.38969 4.13554C2.4482 4.10138 2.49414 4.07455 2.48841 4.12988C2.38096 4.28031 2.54858 4.3104 2.61735 4.19435C2.74199 4.06541 2.89672 3.90639 3.07724 4.03962C3.1317 4.09136 3.17236 4.06028 3.21125 4.03056C3.23373 4.01338 3.25562 3.99664 3.27924 3.99664C3.31131 4.0768 3.34576 4.04215 3.38083 4.00688C3.39276 3.99487 3.40477 3.98279 3.41678 3.97515C3.44835 3.97144 3.46227 3.98859 3.47483 4.00406C3.49133 4.0244 3.5055 4.04185 3.55431 4.00524C3.64327 3.94666 3.74209 3.94284 3.84026 3.93905C3.93655 3.93533 4.03222 3.93163 4.11735 3.8763C4.26684 3.80677 4.19137 3.8919 4.13204 3.95882C4.11802 3.97464 4.1049 3.98944 4.09586 4.00094C4.06476 4.05986 4.05548 4.12627 4.04641 4.19113C4.03167 4.29659 4.0175 4.39798 3.91105 4.45653C3.87989 4.53533 3.89015 4.62508 3.90018 4.71277C3.91367 4.83073 3.92673 4.94497 3.83798 5.02386C3.82382 5.08051 3.91419 5.0961 3.99468 5.10998C4.03633 5.11716 4.07534 5.12389 4.09586 5.13561C4.15225 5.13561 4.15173 5.07214 4.15118 5.00484C4.15065 4.93876 4.15008 4.86898 4.20331 4.85194C4.34944 4.9379 4.34085 4.68862 4.31076 4.61126C4.31282 4.59072 4.31475 4.56982 4.3167 4.54866C4.33111 4.39266 4.34682 4.22264 4.42251 4.0826C4.51707 3.88919 4.60303 4.16426 4.49987 4.24163L4.49271 4.26254C4.43331 4.43558 4.35895 4.6522 4.48698 4.81326C4.50963 4.81779 4.5287 4.8462 4.5486 4.87583C4.56645 4.90243 4.58496 4.93001 4.60732 4.9422C4.6589 4.97229 4.72767 4.9379 4.73626 4.85194C4.76683 4.73733 4.77701 4.61932 4.7872 4.50131C4.79994 4.3538 4.81267 4.20629 4.8652 4.06541C4.87358 4.05536 4.88239 4.04771 4.89146 4.04215C4.92605 4.02098 4.9645 4.03033 4.99742 4.05404C4.99937 4.05544 5.0013 4.0569 5.00321 4.0584C5.02571 4.0761 5.04524 4.10033 5.05861 4.12558C5.10639 4.18132 5.14886 4.24179 5.19126 4.30216C5.2633 4.40472 5.33515 4.50701 5.43254 4.58547C5.57901 4.64537 5.69833 4.75704 5.76778 4.89922C5.76778 5.01097 6.08583 5.02816 5.99128 4.89922C5.90102 4.78318 5.96119 4.65853 6.05145 4.57687C6.10303 4.58977 6.09013 4.49951 6.05145 4.53389C5.98698 4.521 5.98268 4.40495 6.06864 4.46083C6.21907 4.5081 6.06005 4.35338 6.00417 4.34908L5.99673 4.34446C5.87394 4.26828 5.7365 4.18302 5.67752 4.04822C5.7409 4.04822 5.80491 4.06181 5.86908 4.07543C5.97028 4.09691 6.07184 4.11846 6.17179 4.0869C6.30503 4.01813 6.43827 4.0869 6.48555 4.20724C6.5887 4.19005 6.54572 4.0869 6.48555 4.05252C6.55861 4.02243 6.61449 3.95796 6.51993 3.90209C6.50327 3.87876 6.50922 3.84767 6.51473 3.81885C6.52345 3.77335 6.53107 3.7335 6.44687 3.73876C6.45116 3.63131 6.41248 3.53676 6.29643 3.49808C6.24672 3.45757 6.15599 3.47859 6.06953 3.49861C5.95416 3.52534 5.84637 3.55031 5.85374 3.42501C5.83401 3.35596 5.88221 3.36049 5.9358 3.36553C5.97561 3.36927 6.01841 3.37329 6.03856 3.34765C6.06235 3.28276 6.00234 3.25488 5.94889 3.23005C5.89612 3.20553 5.84975 3.18399 5.89672 3.13275C5.9122 3.1239 5.94275 3.11363 5.97579 3.10253C6.0712 3.07047 6.18737 3.03143 6.02136 2.99951C5.97083 3.01432 5.91765 3.01776 5.86563 3.00959C5.81362 3.00141 5.76406 2.98183 5.7205 2.95223C5.68477 3.01053 5.62107 3.003 5.56395 2.99625C5.49052 2.98757 5.42797 2.98018 5.44973 3.11555C5.41964 3.20581 5.21334 3.4422 5.15747 3.26169C5.17425 3.2063 5.22249 3.16599 5.27046 3.12591C5.34532 3.06335 5.41952 3.00135 5.37237 2.88346C5.36407 2.80877 5.32016 2.83913 5.27846 2.86796C5.25537 2.88392 5.23296 2.89942 5.21764 2.89636C5.19185 2.82329 5.28641 2.73303 5.35517 2.71584C5.42527 2.77192 5.45726 2.72892 5.49258 2.68144C5.52222 2.64159 5.55421 2.59858 5.61305 2.60839C5.68352 2.59161 5.62563 2.56436 5.58458 2.54503C5.57304 2.5396 5.56284 2.5348 5.55718 2.53103C5.56564 2.50987 5.58661 2.49195 5.6061 2.47529C5.64598 2.44121 5.67966 2.41242 5.58727 2.372C5.50958 2.31843 5.44525 2.36669 5.38388 2.41275C5.34678 2.44059 5.31075 2.46762 5.27351 2.47086C5.20466 2.39262 5.28165 2.344 5.34851 2.30178C5.37347 2.28602 5.39703 2.27115 5.41105 2.25596C5.41321 2.23431 5.38704 2.2312 5.36436 2.2285C5.342 2.22584 5.32305 2.22358 5.33798 2.20438C5.34898 2.1871 5.38179 2.17556 5.41439 2.1641C5.47098 2.1442 5.52692 2.12453 5.46692 2.07544C5.32241 2.03134 5.16687 2.04049 5.02853 2.10123C4.98622 2.11392 4.95952 2.16619 4.93461 2.21497C4.90891 2.26529 4.88511 2.3119 4.84801 2.30753C4.83848 2.28029 4.83628 2.24527 4.83403 2.20946C4.8292 2.13229 4.82413 2.05144 4.74486 2.03676ZM5.34658 4.00954C5.38956 4.01383 5.49271 3.83762 5.38956 3.85481C5.35437 3.86333 5.32093 3.87787 5.2907 3.89779C5.23461 3.9295 5.26017 3.94183 5.29278 3.95755C5.31763 3.96954 5.34658 3.98351 5.34658 4.00954Z" fill="#008000"/>
<path fill-rule="evenodd" clip-rule="evenodd" d="M5.34658 4.00954C5.38956 4.01383 5.49271 3.83762 5.38956 3.85481C5.35437 3.86333 5.32093 3.87787 5.2907 3.89779C5.23461 3.9295 5.26017 3.94183 5.29278 3.95755C5.31763 3.96954 5.34658 3.98351 5.34658 4.00954Z" fill="#008000"/>
<path fill-rule="evenodd" clip-rule="evenodd" d="M7.38 4.21997C7.38 5.87683 6.03685 7.21997 4.38 7.21997C2.72315 7.21997 1.38 5.87683 1.38 4.21997C1.38 2.56312 2.72315 1.21997 4.38 1.21997C6.03685 1.21997 7.38 2.56312 7.38 4.21997ZM4.92585 6.48535H4.1737C4.1737 6.48535 4.17799 6.40369 4.19519 6.3693C4.2051 6.35344 4.21684 6.34764 4.22957 6.34135C4.24443 6.33401 4.26064 6.326 4.27685 6.30054L4.29023 6.27594C4.30144 6.25531 4.30658 6.24585 4.31213 6.23664C4.31683 6.22884 4.32187 6.22114 4.33107 6.20709C4.34257 6.18952 4.36064 6.16191 4.39289 6.11142L4.42411 6.05922C4.49034 5.94881 4.50344 5.92698 4.55622 5.77618C4.61818 5.62042 4.66566 5.45928 4.69805 5.29481C4.71725 5.21319 4.73277 5.15203 4.74647 5.09801C4.78184 4.95859 4.80511 4.86684 4.84848 4.59423C4.91295 4.21601 4.89146 4.04215 4.89146 4.04215C4.88239 4.04771 4.87358 4.05536 4.8652 4.06541C4.81267 4.20629 4.79994 4.3538 4.7872 4.50131C4.77701 4.61932 4.76683 4.73733 4.73626 4.85194C4.72767 4.9379 4.6589 4.97229 4.60732 4.9422C4.58496 4.93001 4.56645 4.90243 4.5486 4.87583C4.5287 4.8462 4.50963 4.81779 4.48698 4.81326C4.35895 4.6522 4.43331 4.43558 4.49271 4.26254L4.49987 4.24163C4.60303 4.16426 4.51707 3.88919 4.42251 4.0826C4.34682 4.22264 4.33111 4.39266 4.3167 4.54866C4.31475 4.56982 4.31282 4.59072 4.31076 4.61126C4.34085 4.68862 4.34944 4.9379 4.20331 4.85194C4.15008 4.86898 4.15065 4.93876 4.15118 5.00484C4.15173 5.07214 4.15225 5.13561 4.09586 5.13561C4.07534 5.12389 4.03633 5.11716 3.99468 5.10998C3.91419 5.0961 3.82382 5.08051 3.83798 5.02386C3.92673 4.94497 3.91367 4.83073 3.90018 4.71277C3.89015 4.62508 3.87989 4.53533 3.91105 4.45653C4.0175 4.39798 4.03167 4.29659 4.04641 4.19113C4.05548 4.12627 4.06476 4.05986 4.09586 4.00094C4.1049 3.98944 4.11802 3.97464 4.13204 3.95882C4.19137 3.8919 4.26684 3.80677 4.11735 3.8763C4.03222 3.93163 3.93655 3.93533 3.84026 3.93905C3.74209 3.94284 3.64327 3.94666 3.55431 4.00524C3.5055 4.04185 3.49133 4.0244 3.47483 4.00406C3.46227 3.98859 3.44835 3.97144 3.41678 3.97515C3.40477 3.98279 3.39276 3.99487 3.38083 4.00688C3.34576 4.04215 3.31131 4.0768 3.27924 3.99664C3.25562 3.99664 3.23373 4.01338 3.21125 4.03056C3.17236 4.06028 3.1317 4.09136 3.07724 4.03962C2.89672 3.90639 2.74199 4.06541 2.61735 4.19435C2.54858 4.3104 2.38096 4.28031 2.48841 4.12988C2.49414 4.07455 2.4482 4.10138 2.38969 4.13554C2.3164 4.17833 2.2234 4.23263 2.18755 4.15137C2.28448 4.09545 2.36201 4.0169 2.43696 3.94095L2.47122 3.90638C2.58989 3.9138 2.60937 3.84443 2.6318 3.76452C2.63537 3.75181 2.63901 3.73884 2.64314 3.72587C2.65812 3.70902 2.68125 3.71745 2.7026 3.72523C2.73025 3.73531 2.75489 3.7443 2.75489 3.69578C2.80217 3.49808 3.06005 3.48948 3.21907 3.55395C3.26205 3.57544 3.3824 3.57114 3.44257 3.55395C3.47133 3.54289 3.49212 3.52613 3.51198 3.51012C3.53069 3.49504 3.54857 3.48063 3.57151 3.47229C3.62286 3.45443 3.65681 3.4528 3.67879 3.45175C3.69912 3.45078 3.70921 3.4503 3.71334 3.4379C3.72623 3.41212 3.69615 3.37343 3.59729 3.36054C3.57786 3.35701 3.56061 3.34766 3.54255 3.33788C3.51667 3.32387 3.48913 3.30896 3.45116 3.30896C3.40419 3.31484 3.34919 3.34478 3.30535 3.36864C3.28501 3.37971 3.26707 3.38948 3.25346 3.39492C3.20191 3.41803 3.22755 3.38453 3.26441 3.33638C3.31667 3.26811 3.39147 3.17039 3.30073 3.16283C3.10303 3.11555 2.96979 3.28318 2.87523 3.42931C2.79357 3.40782 2.83225 3.223 2.85374 3.15853C2.99558 2.91355 3.33512 2.85767 3.5844 2.95223C3.67522 2.98899 3.73993 3.02793 3.80371 3.0663C3.8667 3.1042 3.92878 3.14156 4.0142 3.17573C4.0228 3.11555 3.85088 2.95223 3.75202 2.94363C3.67925 2.88785 3.59554 2.84438 3.51323 2.80164C3.44969 2.76865 3.38699 2.7361 3.33082 2.69865C3.25596 2.54144 3.5038 2.5407 3.64003 2.54029C3.66023 2.54023 3.67797 2.54018 3.69185 2.53962C3.83026 2.54879 3.96405 2.59306 4.0806 2.66825C4.19716 2.74345 4.29264 2.8471 4.35804 2.96942C4.39533 3.01675 4.42544 3.0746 4.45587 3.13309C4.51665 3.24987 4.57873 3.36916 4.70188 3.41212C4.75694 3.39376 4.70751 3.3297 4.66823 3.27879C4.65232 3.25816 4.63807 3.2397 4.63311 3.2273C4.60145 3.17507 4.56339 3.12516 4.52513 3.07502C4.45951 2.989 4.39334 2.90226 4.35804 2.8018C4.40342 2.73374 4.45027 2.77213 4.49687 2.81031C4.52972 2.83723 4.56244 2.86404 4.59443 2.85338C4.60017 2.70795 4.63372 2.56497 4.69328 2.43217C4.73716 2.30524 4.75471 2.1707 4.74486 2.03676C4.82413 2.05144 4.8292 2.13229 4.83403 2.20946C4.83628 2.24527 4.83848 2.28029 4.84801 2.30753C4.88511 2.3119 4.90891 2.26529 4.93461 2.21497C4.95952 2.16619 4.98622 2.11392 5.02853 2.10123C5.16687 2.04049 5.32241 2.03134 5.46692 2.07544C5.52692 2.12453 5.47098 2.1442 5.41439 2.1641C5.38179 2.17556 5.34898 2.1871 5.33798 2.20438C5.32305 2.22358 5.342 2.22584 5.36436 2.2285C5.38704 2.2312 5.41321 2.23431 5.41105 2.25596C5.39703 2.27115 5.37347 2.28602 5.34851 2.30178C5.28165 2.344 5.20466 2.39262 5.27351 2.47086C5.31075 2.46762 5.34678 2.44059 5.38388 2.41275C5.44525 2.36669 5.50958 2.31843 5.58727 2.372C5.67966 2.41242 5.64598 2.44121 5.6061 2.47529C5.58661 2.49195 5.56564 2.50987 5.55718 2.53103C5.56284 2.5348 5.57304 2.5396 5.58458 2.54503C5.62563 2.56436 5.68352 2.59161 5.61305 2.60839C5.55421 2.59858 5.52222 2.64159 5.49258 2.68144C5.45726 2.72892 5.42527 2.77192 5.35517 2.71584C5.28641 2.73303 5.19185 2.82329 5.21764 2.89636C5.23296 2.89942 5.25537 2.88392 5.27846 2.86796C5.32016 2.83913 5.36407 2.80877 5.37237 2.88346C5.41952 3.00135 5.34532 3.06335 5.27046 3.12591C5.22249 3.16599 5.17425 3.2063 5.15747 3.26169C5.21334 3.4422 5.41964 3.20581 5.44973 3.11555C5.42797 2.98018 5.49052 2.98757 5.56395 2.99625C5.62107 3.003 5.68477 3.01053 5.7205 2.95223C5.76406 2.98183 5.81362 3.00141 5.86563 3.00959C5.91765 3.01776 5.97083 3.01432 6.02136 2.99951C6.18737 3.03143 6.0712 3.07047 5.97579 3.10253C5.94275 3.11363 5.9122 3.1239 5.89672 3.13275C5.84975 3.18399 5.89612 3.20553 5.94889 3.23005C6.00234 3.25488 6.06235 3.28276 6.03856 3.34765C6.01841 3.37329 5.97561 3.36927 5.9358 3.36553C5.88221 3.36049 5.83401 3.35596 5.85374 3.42501C5.84637 3.55031 5.95416 3.52534 6.06953 3.49861C6.15599 3.47859 6.24672 3.45757 6.29643 3.49808C6.41248 3.53676 6.45116 3.63131 6.44687 3.73876C6.53107 3.7335 6.52345 3.77335 6.51473 3.81885C6.50922 3.84767 6.50327 3.87876 6.51993 3.90209C6.61449 3.95796 6.55861 4.02243 6.48555 4.05252C6.54572 4.0869 6.5887 4.19005 6.48555 4.20724C6.43827 4.0869 6.30503 4.01813 6.17179 4.0869C6.07184 4.11846 5.97028 4.09691 5.86908 4.07543C5.80491 4.06181 5.7409 4.04822 5.67752 4.04822C5.7365 4.18302 5.87394 4.26828 5.99673 4.34446L6.00417 4.34908C6.06005 4.35338 6.21907 4.5081 6.06864 4.46083C5.98268 4.40495 5.98698 4.521 6.05145 4.53389C6.09013 4.49951 6.10303 4.58977 6.05145 4.57687C5.96119 4.65853 5.90102 4.78318 5.99128 4.89922C6.08583 5.02816 5.76778 5.01097 5.76778 4.89922C5.69833 4.75704 5.57901 4.64537 5.43254 4.58547C5.33515 4.50701 5.2633 4.40472 5.19126 4.30216C5.14886 4.24179 5.10639 4.18132 5.05861 4.12558C5.04524 4.10033 5.02571 4.0761 5.00321 4.0584C4.9868 4.56761 4.95814 4.946 4.91725 5.45383C4.87316 5.92191 4.85315 5.97241 4.80443 6.09542C4.79141 6.12828 4.77635 6.16632 4.75822 6.21887C4.72682 6.30682 4.80328 6.33508 4.8635 6.35735C4.88569 6.36555 4.90568 6.37294 4.91725 6.3822C4.95593 6.41658 4.92585 6.48535 4.92585 6.48535Z" fill="#FFE000"/>
<path fill-rule="evenodd" clip-rule="evenodd" d="M22 1H2C1.44772 1 1 1.44772 1 2V14C1 14.5523 1.44772 15 2 15H22C22.5523 15 23 14.5523 23 14V2C23 1.44771 22.5523 1 22 1ZM2 0C0.89543 0 0 0.89543 0 2V14C0 15.1046 0.89543 16 2 16H22C23.1046 16 24 15.1046 24 14V2C24 0.89543 23.1046 0 22 0H2Z" fill="black" fill-opacity="0.08"/>
</g>
</g>
</svg>
