<svg width="24" height="16" viewBox="0 0 24 16" fill="none" xmlns="http://www.w3.org/2000/svg">
<g id="flags / flag-mayotte">
<g id="flag">
<path fill-rule="evenodd" clip-rule="evenodd" d="M2 0H22C23.1046 0 24 0.89543 24 2V14C24 15.1046 23.1046 16 22 16H2C0.89543 16 0 15.1046 0 14V2C0 0.89543 0.89543 0 2 0ZM19.4207 3.21848C19.6406 3.33043 19.8441 3.47217 20.0253 3.63971L20.0269 3.64125C20.6643 4.2465 20.8834 5.01429 20.8979 5.68114C20.9051 6.01447 20.8615 6.32563 20.7918 6.5841C20.7233 6.8383 20.626 7.05501 20.5161 7.19073C20.5016 7.20899 20.4806 7.23713 20.4538 7.27291C20.3635 7.39372 20.2081 7.60172 20.019 7.81086C19.7776 8.07778 19.4597 8.37305 19.1017 8.53511C19.0915 8.54169 19.0805 8.54722 19.0688 8.55154C18.2218 8.86476 17.6465 9.65708 17.611 10.5592C17.6123 11.5169 18.2023 12.2548 18.8985 12.3388C18.9126 12.3403 18.9264 12.3408 18.9463 12.3417L18.958 12.3421L18.9608 12.3423C18.9813 12.3435 18.9938 12.3446 19.0035 12.3455C19.0152 12.3465 19.0228 12.3472 19.0358 12.3472C19.7653 12.3472 20.4112 11.6333 20.4559 10.6604C20.4601 10.5706 20.5338 10.4997 20.6237 10.4992C20.7137 10.4987 20.7882 10.5686 20.7934 10.6584L20.7945 10.6743C20.796 10.6966 20.7983 10.7287 20.7979 10.7579L20.7979 10.7589C20.7753 12.0466 19.916 13.1361 18.7926 13.1375C17.7603 13.1634 16.8018 12.6053 16.3144 11.6952C16.246 11.583 16.1803 11.4693 16.1174 11.354C16.0098 11.1565 15.9366 10.9422 15.9009 10.7203C15.8314 10.2919 15.7685 9.51633 16.0158 8.7043C16.265 7.88578 16.8279 7.0372 17.9938 6.47599C18.7013 6.13557 19.1381 5.82916 19.3907 5.57558C19.2553 5.67009 19.0971 5.72961 18.9304 5.74688C18.9238 5.74757 18.9172 5.74786 18.9105 5.74777C18.7623 5.74558 18.6186 5.70295 18.4943 5.62587L18.465 5.6515C18.3838 5.72186 18.2713 5.81387 18.1492 5.8969C18.0298 5.97809 17.8891 6.05911 17.7532 6.09677C17.6197 6.13376 17.4358 6.14078 17.3109 5.98714C17.2451 5.90614 17.1906 5.82094 17.1756 5.72852C17.1579 5.61965 17.1988 5.53465 17.2495 5.47225C17.2851 5.42844 17.335 5.38511 17.3767 5.34895L17.3993 5.32928C17.4503 5.28441 17.5033 5.23506 17.5558 5.17042C17.591 5.12704 17.6148 5.06521 17.6319 4.97267C17.643 4.91283 17.649 4.85677 17.6559 4.79369C17.6606 4.75056 17.6656 4.70382 17.6729 4.65067C17.7055 4.41039 17.7772 4.1181 18.089 3.92617C18.2074 3.8533 18.3122 3.79729 18.3964 3.75228L18.4157 3.74194C18.5034 3.69504 18.5548 3.66608 18.5858 3.64202C18.5778 3.62801 18.5632 3.6056 18.5366 3.5729C18.5336 3.56918 18.5308 3.56533 18.5281 3.56137C18.4425 3.43538 18.3071 3.35205 18.156 3.33263C18.0718 3.32178 18.0086 3.25002 18.0086 3.16502L18.0086 3.16305L18.0087 3.16088L18.0088 3.15798L18.0088 3.15595C18.009 3.15241 18.0093 3.14835 18.0097 3.14382C18.0106 3.13481 18.0122 3.12374 18.0151 3.11118C18.0208 3.08619 18.0317 3.05396 18.0528 3.02038C18.0987 2.94762 18.1783 2.89057 18.2937 2.87006C18.4023 2.85075 18.5399 2.86378 18.7166 2.91539C18.8948 2.96744 19.1239 3.0621 19.4207 3.21848ZM20.1968 7.9855C20.4003 7.69201 21.1014 6.64475 21.1224 6.11995C21.1191 6.06384 21.1592 6.01448 21.2147 6.00622C21.3285 6.00588 21.4408 5.98161 21.5445 5.93499C21.6482 5.88838 21.741 5.82046 21.8167 5.73565C21.8743 5.66084 21.9764 5.7006 21.9852 5.80304C22.0442 6.49447 21.9936 7.99881 20.5408 8.51266C20.5219 8.51862 20.5016 8.51825 20.4829 8.51159C20.4642 8.50493 20.4483 8.49235 20.4374 8.47577L20.1987 8.14235C20.1661 8.09534 20.1656 8.03335 20.1968 7.9855ZM2.87758 6.11995C2.89864 6.64475 3.59967 7.69201 3.80319 7.9855C3.83436 8.03335 3.83386 8.09535 3.80134 8.14235L3.56261 8.47577C3.55174 8.49235 3.53575 8.50493 3.51708 8.51159C3.49841 8.51825 3.47807 8.51863 3.45916 8.51266C2.00638 7.99881 1.95584 6.49447 2.0148 5.80304C2.02356 5.70061 2.12566 5.66084 2.18328 5.73565C2.25902 5.82046 2.35176 5.88838 2.45547 5.93499C2.55918 5.98161 2.67154 6.00588 2.78525 6.00622C2.84085 6.01448 2.88095 6.06384 2.87758 6.11995ZM4.57933 3.21848C4.35939 3.33043 4.15594 3.47218 3.97472 3.63971L3.97306 3.64125C3.3357 4.2465 3.11661 5.01429 3.10211 5.68114C3.09487 6.01448 3.13851 6.32563 3.20816 6.5841C3.27667 6.8383 3.37399 7.05501 3.48386 7.19073C3.4984 7.20902 3.51947 7.23722 3.54628 7.27308C3.63659 7.39389 3.79195 7.60172 3.98104 7.81086C4.22238 8.07779 4.5403 8.37305 4.89826 8.53511C4.90848 8.54169 4.91949 8.54722 4.93117 8.55155C5.7782 8.86476 6.35346 9.65709 6.38898 10.5592C6.38766 11.5169 5.7977 12.2548 5.10151 12.3388C5.08736 12.3403 5.07361 12.3408 5.05373 12.3417L5.04195 12.3421L5.03922 12.3423C5.01865 12.3435 5.00619 12.3446 4.99654 12.3455C4.98481 12.3465 4.97717 12.3472 4.96417 12.3472C4.23466 12.3472 3.58877 11.6333 3.54407 10.6604C3.53994 10.5706 3.46618 10.4997 3.37626 10.4992C3.28634 10.4987 3.21175 10.5686 3.20656 10.6584L3.20551 10.6743C3.20397 10.6966 3.20174 10.7287 3.20208 10.7579L3.20209 10.7589C3.22467 12.0466 4.08398 13.1361 5.20742 13.1375C6.2397 13.1634 7.19821 12.6053 7.68561 11.6952C7.754 11.583 7.81968 11.4693 7.88261 11.354C7.99018 11.1565 8.06335 10.9422 8.09908 10.7203C8.16859 10.2919 8.23152 9.51633 7.98424 8.7043C7.73498 7.88578 7.17207 7.0372 6.00621 6.47599C5.29869 6.13557 4.86187 5.82916 4.60926 5.57558C4.74469 5.67009 4.90287 5.72961 5.06957 5.74688C5.07619 5.74757 5.08284 5.74786 5.08949 5.74777C5.23768 5.74558 5.3814 5.70295 5.5057 5.62587L5.535 5.65151C5.61617 5.72186 5.72867 5.81387 5.85079 5.8969C5.97021 5.97809 6.11087 6.05911 6.24681 6.09677C6.38031 6.13376 6.56419 6.14078 6.68909 5.98714C6.75494 5.90614 6.80938 5.82094 6.82442 5.72852C6.84213 5.61965 6.80119 5.53465 6.75051 5.47225C6.71494 5.42845 6.66501 5.38512 6.62334 5.34897L6.60074 5.32928C6.54975 5.28441 6.49667 5.23506 6.44422 5.17042C6.40902 5.12704 6.38522 5.06521 6.36811 4.97267C6.35704 4.9128 6.35095 4.8567 6.3441 4.79358C6.33942 4.75046 6.33435 4.7038 6.32713 4.65067C6.29448 4.41039 6.2228 4.1181 5.91097 3.92617C5.79256 3.8533 5.68779 3.79729 5.60359 3.75228L5.58426 3.74194C5.49664 3.69504 5.44522 3.66608 5.41418 3.64202C5.42219 3.62801 5.43681 3.60561 5.46335 3.5729C5.46637 3.56918 5.46922 3.56534 5.47192 3.56137C5.55749 3.43538 5.69289 3.35205 5.84395 3.33263C5.92825 3.32179 5.99138 3.25002 5.99138 3.16502L5.99137 3.16305L5.99133 3.16088L5.99124 3.15798L5.99116 3.15595C5.99099 3.15241 5.99071 3.14835 5.99026 3.14382C5.98937 3.13481 5.98776 3.12374 5.98491 3.11118C5.97924 3.08619 5.96832 3.05396 5.94717 3.02038C5.90134 2.94762 5.82167 2.89057 5.70631 2.87006C5.59773 2.85075 5.46005 2.86378 5.28337 2.9154C5.10521 2.96744 4.87613 3.0621 4.57933 3.21848Z" fill="white"/>
<path d="M20.1968 7.9855C20.4003 7.69201 21.1014 6.64475 21.1224 6.11995C21.1191 6.06384 21.1592 6.01448 21.2147 6.00622C21.3285 6.00588 21.4408 5.98161 21.5445 5.93499C21.6482 5.88838 21.741 5.82046 21.8167 5.73565C21.8743 5.66084 21.9764 5.7006 21.9852 5.80304C22.0442 6.49447 21.9936 7.99881 20.5408 8.51266C20.5219 8.51862 20.5016 8.51825 20.4829 8.51159C20.4642 8.50493 20.4483 8.49235 20.4374 8.47577L20.1987 8.14235C20.1661 8.09534 20.1656 8.03335 20.1968 7.9855Z" fill="#9B9B9A"/>
<path fill-rule="evenodd" clip-rule="evenodd" d="M19.4207 3.21848C19.6406 3.33043 19.8441 3.47217 20.0253 3.63971L20.0269 3.64125C20.6643 4.2465 20.8834 5.01429 20.8979 5.68114C20.9051 6.01447 20.8615 6.32563 20.7918 6.5841C20.7233 6.8383 20.626 7.05501 20.5161 7.19073C20.5016 7.20899 20.4806 7.23713 20.4538 7.27291C20.3635 7.39372 20.2081 7.60172 20.019 7.81086C19.7776 8.07778 19.4597 8.37305 19.1017 8.53511C19.0915 8.54169 19.0805 8.54722 19.0688 8.55154C18.2218 8.86476 17.6465 9.65708 17.611 10.5592C17.6123 11.5169 18.2023 12.2548 18.8985 12.3388C18.9126 12.3403 18.9264 12.3408 18.9463 12.3417C18.95 12.3418 18.9539 12.342 18.958 12.3421L18.9608 12.3423C18.9813 12.3435 18.9938 12.3446 19.0035 12.3455C19.0152 12.3465 19.0228 12.3472 19.0358 12.3472C19.7653 12.3472 20.4112 11.6333 20.4559 10.6604C20.4601 10.5706 20.5338 10.4997 20.6237 10.4992C20.7137 10.4987 20.7882 10.5686 20.7934 10.6584C20.7937 10.6628 20.7941 10.6682 20.7945 10.6743C20.796 10.6966 20.7983 10.7287 20.7979 10.7579L20.7979 10.7589C20.7753 12.0466 19.916 13.1361 18.7926 13.1375C17.7603 13.1634 16.8018 12.6053 16.3144 11.6952C16.246 11.583 16.1803 11.4693 16.1174 11.354C16.0098 11.1565 15.9366 10.9422 15.9009 10.7203C15.8314 10.2919 15.7685 9.51633 16.0158 8.7043C16.265 7.88578 16.8279 7.0372 17.9938 6.47599C18.7013 6.13557 19.1381 5.82916 19.3907 5.57558C19.2553 5.67009 19.0971 5.72961 18.9304 5.74688C18.9238 5.74757 18.9172 5.74786 18.9105 5.74777C18.7623 5.74558 18.6186 5.70295 18.4943 5.62587C18.485 5.63406 18.4752 5.64262 18.465 5.6515C18.3838 5.72186 18.2713 5.81387 18.1492 5.8969C18.0298 5.97809 17.8891 6.05911 17.7532 6.09677C17.6197 6.13376 17.4358 6.14078 17.3109 5.98714C17.2451 5.90614 17.1906 5.82094 17.1756 5.72852C17.1579 5.61965 17.1988 5.53465 17.2495 5.47225C17.2851 5.42844 17.335 5.38511 17.3767 5.34895C17.3845 5.34213 17.3921 5.33555 17.3993 5.32928C17.4503 5.28441 17.5033 5.23506 17.5558 5.17042C17.591 5.12704 17.6148 5.06521 17.6319 4.97267C17.643 4.91283 17.649 4.85677 17.6559 4.79369C17.6606 4.75056 17.6656 4.70382 17.6729 4.65067C17.7055 4.41039 17.7772 4.1181 18.089 3.92617C18.2074 3.8533 18.3122 3.79729 18.3964 3.75228C18.403 3.74877 18.4094 3.74532 18.4157 3.74194C18.5034 3.69504 18.5548 3.66608 18.5858 3.64202C18.5778 3.62801 18.5632 3.6056 18.5366 3.5729C18.5336 3.56918 18.5308 3.56533 18.5281 3.56137C18.4425 3.43538 18.3071 3.35205 18.156 3.33263C18.0718 3.32178 18.0086 3.25002 18.0086 3.16502H18.1776C18.0086 3.16502 18.0086 3.16502 18.0086 3.16502L18.0086 3.16305L18.0087 3.16088L18.0088 3.15798L18.0088 3.15595C18.009 3.15241 18.0093 3.14835 18.0097 3.14382C18.0106 3.13481 18.0122 3.12374 18.0151 3.11118C18.0208 3.08619 18.0317 3.05396 18.0528 3.02038C18.0987 2.94762 18.1783 2.89057 18.2937 2.87006C18.4023 2.85075 18.5399 2.86378 18.7166 2.91539C18.8948 2.96744 19.1239 3.0621 19.4207 3.21848Z" fill="#9B9B9A"/>
<path d="M3.80319 7.9855C3.59967 7.69201 2.89864 6.64475 2.87758 6.11995C2.88095 6.06384 2.84085 6.01448 2.78525 6.00622C2.67154 6.00588 2.55918 5.98161 2.45547 5.93499C2.35176 5.88838 2.25902 5.82046 2.18328 5.73565C2.12566 5.66084 2.02356 5.70061 2.0148 5.80304C1.95584 6.49447 2.00638 7.99881 3.45916 8.51266C3.47807 8.51863 3.49841 8.51825 3.51708 8.51159C3.53575 8.50493 3.55174 8.49235 3.56261 8.47577L3.80134 8.14235C3.83386 8.09535 3.83436 8.03335 3.80319 7.9855Z" fill="#9B9B9A"/>
<path fill-rule="evenodd" clip-rule="evenodd" d="M4.57933 3.21848C4.35939 3.33043 4.15594 3.47218 3.97472 3.63971L3.97306 3.64125C3.3357 4.2465 3.11661 5.01429 3.10211 5.68114C3.09487 6.01448 3.13851 6.32563 3.20816 6.5841C3.27667 6.8383 3.37399 7.05501 3.48386 7.19073C3.4984 7.20902 3.51947 7.23722 3.54628 7.27308C3.63659 7.39389 3.79195 7.60172 3.98104 7.81086C4.22238 8.07779 4.5403 8.37305 4.89826 8.53511C4.90848 8.54169 4.91949 8.54722 4.93117 8.55155C5.7782 8.86476 6.35346 9.65709 6.38898 10.5592C6.38766 11.5169 5.7977 12.2548 5.10151 12.3388C5.08736 12.3403 5.07361 12.3408 5.05373 12.3417C5.05003 12.3418 5.04612 12.342 5.04195 12.3421L5.03922 12.3423C5.01865 12.3435 5.00619 12.3446 4.99654 12.3455C4.98481 12.3465 4.97717 12.3472 4.96417 12.3472C4.23466 12.3472 3.58877 11.6333 3.54407 10.6604C3.53994 10.5706 3.46618 10.4997 3.37626 10.4992C3.28634 10.4987 3.21175 10.5686 3.20656 10.6584C3.20631 10.6628 3.20593 10.6682 3.20551 10.6743C3.20397 10.6966 3.20174 10.7287 3.20208 10.7579L3.20209 10.7589C3.22467 12.0466 4.08398 13.1361 5.20742 13.1375C6.2397 13.1634 7.19821 12.6053 7.68561 11.6952C7.754 11.583 7.81968 11.4693 7.88261 11.354C7.99018 11.1565 8.06335 10.9422 8.09908 10.7203C8.16859 10.2919 8.23152 9.51633 7.98424 8.7043C7.73498 7.88578 7.17207 7.0372 6.00621 6.47599C5.29869 6.13557 4.86187 5.82916 4.60926 5.57558C4.74469 5.67009 4.90287 5.72961 5.06957 5.74688C5.07619 5.74757 5.08284 5.74786 5.08949 5.74777C5.23768 5.74558 5.3814 5.70295 5.5057 5.62587C5.51498 5.63406 5.52476 5.64263 5.535 5.65151C5.61617 5.72186 5.72867 5.81387 5.85079 5.8969C5.97021 5.97809 6.11087 6.05911 6.24681 6.09677C6.38031 6.13376 6.56419 6.14078 6.68909 5.98714C6.75494 5.90614 6.80938 5.82094 6.82442 5.72852C6.84213 5.61965 6.80119 5.53465 6.75051 5.47225C6.71494 5.42845 6.66501 5.38512 6.62334 5.34897C6.61547 5.34215 6.60787 5.33555 6.60074 5.32928C6.54975 5.28441 6.49667 5.23506 6.44422 5.17042C6.40902 5.12704 6.38522 5.06521 6.36811 4.97267C6.35704 4.9128 6.35095 4.8567 6.3441 4.79358C6.33942 4.75046 6.33435 4.7038 6.32713 4.65067C6.29448 4.41039 6.2228 4.1181 5.91097 3.92617C5.79256 3.8533 5.68779 3.79729 5.60359 3.75228C5.59702 3.74877 5.59057 3.74532 5.58426 3.74194C5.49664 3.69504 5.44522 3.66608 5.41418 3.64202C5.42219 3.62801 5.43681 3.60561 5.46335 3.5729C5.46637 3.56918 5.46922 3.56534 5.47192 3.56137C5.55749 3.43538 5.69289 3.35205 5.84395 3.33263C5.92825 3.32179 5.99138 3.25002 5.99138 3.16502H5.8224C5.99138 3.16502 5.99138 3.16502 5.99138 3.16502L5.99137 3.16305L5.99133 3.16088L5.99124 3.15798L5.99116 3.15595C5.99099 3.15241 5.99071 3.14835 5.99026 3.14382C5.98937 3.13481 5.98776 3.12374 5.98491 3.11118C5.97924 3.08619 5.96832 3.05396 5.94717 3.02038C5.90134 2.94762 5.82167 2.89057 5.70631 2.87006C5.59773 2.85075 5.46005 2.86378 5.28337 2.9154C5.10521 2.96744 4.87613 3.0621 4.57933 3.21848Z" fill="#9B9B9A"/>
<path fill-rule="evenodd" clip-rule="evenodd" d="M22 1H2C1.44772 1 1 1.44772 1 2V14C1 14.5523 1.44772 15 2 15H22C22.5523 15 23 14.5523 23 14V2C23 1.44771 22.5523 1 22 1ZM2 0C0.89543 0 0 0.89543 0 2V14C0 15.1046 0.89543 16 2 16H22C23.1046 16 24 15.1046 24 14V2C24 0.89543 23.1046 0 22 0H2Z" fill="black" fill-opacity="0.08"/>
<path d="M11.9936 4.00045L12 4.00048L12.0064 4.00045C12.3454 4.00045 12.6297 4.25598 12.6659 4.59295H12.8291C12.866 4.25671 13.15 4.00208 13.4884 4.00208C13.8268 4.00208 14.1107 4.25671 14.1477 4.59295H14.3109C14.3487 4.24639 14.6477 3.98778 14.996 4.00045C15.3444 4.01312 15.624 4.29254 15.6365 4.6409C15.649 4.98927 15.3906 5.28823 15.044 5.32624V5.34126C15.3802 5.37817 15.6349 5.6623 15.6349 6.00053C15.6349 6.33876 15.3802 6.62288 15.044 6.6598V6.67482C15.3806 6.71156 15.6352 6.9946 15.6361 7.33319C15.6354 7.67197 15.3802 8 15.0435 8H8.95654C8.61976 7.96326 8.36458 7.67196 8.36386 7.33319C8.36477 6.99459 8.61939 6.71155 8.95599 6.67482V6.6598C8.61975 6.62288 8.36513 6.33876 8.36513 6.00052C8.36513 5.66229 8.61975 5.37817 8.95599 5.34125V5.32623C8.60944 5.28823 8.35101 4.98926 8.3635 4.6409C8.37599 4.29253 8.65559 4.01311 9.00395 4.00045C9.35232 3.98778 9.65128 4.24638 9.6891 4.59294H9.85234C9.88926 4.2567 10.1732 4.00207 10.5116 4.00207C10.85 4.00207 11.134 4.2567 11.1709 4.59294H11.3341C11.3703 4.25598 11.6546 4.00045 11.9936 4.00045Z" fill="#1E50A0"/>
<path d="M11.9936 11.9996L12 11.9995L12.0064 11.9995C12.3454 11.9995 12.6297 11.744 12.6659 11.4071H12.8291C12.866 11.7433 13.15 11.9979 13.4884 11.9979C13.8268 11.9979 14.1107 11.7433 14.1477 11.4071H14.3109C14.3487 11.7536 14.6477 12.0122 14.996 11.9995C15.3444 11.9869 15.624 11.7075 15.6365 11.3591C15.649 11.0107 15.3906 10.7118 15.044 10.6738V10.6587C15.3802 10.6218 15.6349 10.3377 15.6349 9.99947C15.6349 9.66124 15.3802 9.37712 15.044 9.3402V9.32518C15.3806 9.28844 15.6352 9.0054 15.6361 8.66681C15.6354 8.32803 15.3802 8 15.0435 8H8.95654C8.61976 8.03674 8.36459 8.32804 8.36386 8.66681C8.36477 9.00541 8.61939 9.28845 8.956 9.32518V9.3402C8.61975 9.37712 8.36513 9.66124 8.36513 9.99948C8.36513 10.3377 8.61975 10.6218 8.956 10.6587V10.6738C8.60944 10.7118 8.35101 11.0107 8.3635 11.3591C8.37599 11.7075 8.65559 11.9869 9.00395 11.9996C9.35232 12.0122 9.65128 11.7536 9.68911 11.4071H9.85234C9.88926 11.7433 10.1732 11.9979 10.5116 11.9979C10.85 11.9979 11.134 11.7433 11.1709 11.4071H11.3341C11.3703 11.744 11.6546 11.9996 11.9936 11.9996Z" fill="#D22F27"/>
<path d="M10.9992 8.96106C10.9992 8.87211 10.9271 8.8 10.8381 8.8C10.7492 8.8 10.6767 8.87245 10.6767 8.9614V9.32726L10.36 9.14437C10.3229 9.12308 10.2789 9.11734 10.2376 9.12838C10.1964 9.13943 10.1611 9.16638 10.1396 9.20333C10.1183 9.2404 10.1126 9.28439 10.1236 9.32569C10.1347 9.36698 10.1616 9.40222 10.1986 9.4237L10.515 9.60642L10.1986 9.78913C10.1616 9.81062 10.1347 9.84586 10.1236 9.88715C10.1126 9.92844 10.1183 9.97243 10.1396 10.0095L10.1403 10.006C10.1618 10.0429 10.197 10.0699 10.2383 10.0809C10.2796 10.092 10.3236 10.0862 10.3607 10.0649L10.6767 9.88331V10.2513C10.6769 10.294 10.6939 10.3349 10.7241 10.3651C10.7543 10.3953 10.7952 10.4124 10.838 10.4125C10.8807 10.4124 10.9216 10.3953 10.9518 10.3651C10.982 10.3349 10.9991 10.294 10.9992 10.2513V9.88601L11.3158 10.0688C11.3528 10.0901 11.3968 10.0958 11.4381 10.0848C11.4794 10.0737 11.5147 10.0468 11.5361 10.0098C11.5574 9.97277 11.5632 9.92878 11.5521 9.88749C11.5411 9.84619 11.5141 9.81095 11.4772 9.78947L11.1594 9.60597L11.4772 9.42337C11.5142 9.40195 11.5412 9.36676 11.5523 9.32548C11.5604 9.29469 11.5592 9.26221 11.5488 9.2321C11.5385 9.20199 11.5195 9.1756 11.4943 9.15623C11.469 9.13686 11.4386 9.12537 11.4069 9.1232C11.3751 9.12103 11.3434 9.12828 11.3158 9.14403L10.9992 9.32683V8.96106Z" fill="#F1B31C"/>
<path d="M13.3116 8.96106C13.3116 8.87211 13.2394 8.8 13.1505 8.8C13.0615 8.8 12.9889 8.87245 12.9889 8.9614V9.32644L12.673 9.14403C12.636 9.12274 12.592 9.117 12.5507 9.12805C12.5094 9.1391 12.4741 9.16604 12.4527 9.203C12.4314 9.24007 12.4256 9.28406 12.4367 9.32535C12.4477 9.36664 12.4747 9.40188 12.5116 9.42337L12.8285 9.60633L12.5116 9.7893C12.4747 9.81079 12.4477 9.84603 12.4367 9.88732C12.4256 9.92861 12.4314 9.9726 12.4527 10.0097L12.452 10.0061C12.4735 10.0431 12.5087 10.07 12.55 10.0811C12.5913 10.0921 12.6353 10.0864 12.6724 10.0651L12.9889 9.88341V10.2513C12.9889 10.3089 13.0198 10.3621 13.0696 10.3909C13.1195 10.4197 13.181 10.4197 13.2309 10.3909C13.2807 10.3621 13.3116 10.3089 13.3116 10.2513V9.88528L13.6288 10.0685C13.6659 10.0898 13.7099 10.0955 13.7512 10.0845C13.7924 10.0734 13.8277 10.0465 13.8492 10.0095C13.8705 9.97243 13.8762 9.92844 13.8652 9.88715C13.8541 9.84586 13.8272 9.81062 13.7902 9.78913L13.4727 9.60578L13.7902 9.42354C13.8272 9.40205 13.8541 9.36681 13.8652 9.32552C13.8762 9.28422 13.8705 9.24024 13.8492 9.20317C13.8277 9.16621 13.7924 9.13927 13.7512 9.12822C13.7099 9.11717 13.6659 9.12291 13.6288 9.1442L13.3116 9.32739V8.96106Z" fill="#F1B31C"/>
<path d="M12 6.31949L11.9944 6.31963C11.5595 6.31021 11.1818 5.98384 11.1094 5.55494C11.0957 5.47421 11.0262 5.41487 10.9443 5.4141C10.8624 5.41333 10.7918 5.47136 10.7767 5.55182C10.7615 5.63214 10.7536 5.71392 10.7534 5.79607C10.7426 6.01961 10.7925 6.24193 10.8977 6.43951C11.0036 6.63837 11.1616 6.80468 11.3548 6.92064C11.548 7.0366 11.769 7.09783 11.9943 7.0978L12 7.09778L12.0057 7.0978C12.231 7.09783 12.452 7.0366 12.6452 6.92064C12.8384 6.80468 12.9964 6.63837 13.1023 6.43951C13.2075 6.24193 13.2574 6.01961 13.2466 5.79607C13.2464 5.71392 13.2385 5.63214 13.2233 5.55182C13.2082 5.47136 13.1376 5.41333 13.0557 5.4141C12.9738 5.41487 12.9043 5.47421 12.8906 5.55494C12.8182 5.98384 12.4405 6.31021 12.0056 6.31963L12 6.31949Z" fill="white"/>
</g>
</g>
</svg>
