<svg width="24" height="16" viewBox="0 0 24 16" fill="none" xmlns="http://www.w3.org/2000/svg">
<g id="flags / flag-jersey">
<g id="flag">
<path d="M22 0H2C0.89543 0 0 0.89543 0 2V14C0 15.1046 0.89543 16 2 16H22C23.1046 16 24 15.1046 24 14V2C24 0.89543 23.1046 0 22 0Z" fill="white"/>
<path d="M1.71894 0.0195312C1.06531 0.111421 0.513096 0.519254 0.22168 1.08364L10.5411 7.99899L0.2222 14.9173C0.512808 15.4793 1.06213 15.8859 1.71259 15.9795L12.0199 8.98923L22.3099 15.9761C22.9609 15.8748 23.508 15.4595 23.7914 14.89L13.4987 7.99896L23.7871 1.10118C23.5035 0.538377 22.9618 0.127869 22.3176 0.0250426L12.0199 7.00218L1.71894 0.0195312Z" fill="#CF142B"/>
<path fill-rule="evenodd" clip-rule="evenodd" d="M10.6533 2.98969C10.6533 2.98969 10.8941 2.88336 11.0133 2.98969C11.1326 3.09602 11.2305 2.98057 11.2305 2.91602C11.2305 2.85222 11.4204 2.6312 11.4204 2.80968C11.4204 2.98969 11.3612 3.0907 11.5267 3.0907C11.6938 3.0907 12.4427 2.8431 12.6227 2.91602C12.802 2.98969 12.9394 2.97146 12.8939 2.86589C12.8483 2.76108 12.7313 2.69576 12.505 2.75272C12.2787 2.80968 12.3326 2.86665 12.1366 2.86665C11.9414 2.86665 11.7242 2.81044 11.7242 2.81044C11.7242 2.81044 11.785 2.71627 12.0083 2.7831C12.2316 2.84994 12.5392 2.69956 12.6227 2.69956C12.7063 2.69956 12.9364 2.69576 12.9592 2.75272C12.982 2.80968 13.121 2.86285 13.0154 2.91602C12.909 2.96918 12.7344 3.00336 12.8544 3.07172C12.9751 3.14007 13.2516 3.1264 13.2645 3.19779C13.2774 3.26919 13.4088 3.37552 13.3564 3.37552C13.3032 3.37552 13.2091 3.47577 13.121 3.44539C13.0321 3.41501 13.0215 3.38767 13.1058 3.36337C13.1908 3.3383 13.1901 3.23425 13.121 3.23425C13.0503 3.23425 13.0845 3.27071 12.925 3.23425C12.7655 3.19779 12.5551 3.15754 12.568 3.23425C12.5802 3.31096 12.6842 3.42944 12.4921 3.44539C12.3007 3.46058 12.2111 3.52438 12.1746 3.4735C12.1366 3.42261 12.0037 3.35425 12.1085 3.33299C12.2133 3.31096 12.3136 3.40666 12.3516 3.39071C12.3888 3.37552 12.4746 3.36641 12.4025 3.30033C12.3311 3.23425 12.2126 3.19552 12.3227 3.14615C12.4321 3.09602 12.3455 3.09526 12.1366 3.19779C11.9285 3.30033 11.8123 3.38767 11.6293 3.37552C11.4462 3.36337 11.3779 3.37932 11.3186 3.36337C11.2594 3.34742 10.9731 3.54717 10.891 3.49628C10.8082 3.44539 10.5417 3.42565 10.5895 3.36337C10.6381 3.30033 10.7019 3.26843 10.7741 3.30033C10.8455 3.33299 10.9169 3.36489 10.9655 3.33299C11.0133 3.30033 11.1531 3.1902 11.1181 3.16817C11.0832 3.14539 11.1166 3.07172 10.9184 3.07172C10.7194 3.07172 10.6495 3.1545 10.6024 3.1021C10.5546 3.04969 10.6533 2.98969 10.6533 2.98969ZM10.8523 3.93756C10.8523 3.93756 11.0642 3.84338 11.169 3.93756C11.2738 4.03098 11.3589 3.92996 11.3589 3.873C11.3589 3.81679 11.526 3.62236 11.526 3.77958C11.526 3.9368 11.4743 4.02642 11.6202 4.02642C11.7667 4.02642 12.4252 3.80844 12.5832 3.873C12.7412 3.93756 12.862 3.92161 12.8217 3.82895C12.7822 3.73705 12.6789 3.67932 12.4799 3.72945C12.2809 3.77958 12.328 3.82895 12.1564 3.82895C11.9847 3.82895 11.7933 3.77958 11.7933 3.77958C11.7933 3.77958 11.8473 3.69679 12.044 3.75603C12.2392 3.81452 12.5095 3.68312 12.5832 3.68312C12.6569 3.68312 12.8597 3.67932 12.8794 3.72945C12.8992 3.77958 13.0215 3.82591 12.9288 3.873C12.8354 3.92009 12.682 3.94895 12.7875 4.00971C12.8931 4.07047 13.1369 4.05832 13.1475 4.1206C13.1597 4.18288 13.2751 4.2763 13.2288 4.2763C13.1825 4.2763 13.0989 4.36516 13.0207 4.33782C12.9432 4.31124 12.9341 4.28769 13.0085 4.26566C13.083 4.24364 13.0822 4.1525 13.0207 4.1525C12.9599 4.1525 12.9896 4.1844 12.849 4.1525C12.7093 4.1206 12.524 4.0849 12.5346 4.1525C12.546 4.22085 12.6371 4.32415 12.4693 4.33782C12.3007 4.35149 12.2217 4.40769 12.189 4.36288C12.1564 4.31731 12.0394 4.25807 12.1313 4.23908C12.2232 4.22009 12.3113 4.3044 12.344 4.29073C12.3782 4.2763 12.4533 4.2687 12.3895 4.21098C12.3273 4.1525 12.2232 4.11832 12.3197 4.07427C12.4154 4.03098 12.3394 4.03022 12.1564 4.1206C11.9733 4.21098 11.8708 4.28769 11.7098 4.2763C11.5495 4.26566 11.4895 4.28009 11.4371 4.26566C11.3855 4.25047 11.1333 4.42744 11.0612 4.38263C10.9882 4.33782 10.7543 4.32111 10.7961 4.26566C10.8386 4.21098 10.8948 4.18212 10.9579 4.21098C11.0209 4.23908 11.0839 4.26718 11.1265 4.23908C11.169 4.21098 11.2913 4.11376 11.2609 4.09477C11.2305 4.07503 11.2594 4.00971 11.0847 4.00971C10.91 4.00971 10.8485 4.08262 10.8067 4.03629C10.7657 3.99072 10.8523 3.93756 10.8523 3.93756ZM11.1333 4.8991C11.1333 4.8991 11.2943 4.82846 11.3733 4.8991C11.4531 4.97049 11.5176 4.89378 11.5176 4.85049C11.5176 4.80795 11.6445 4.66061 11.6445 4.77985C11.6445 4.8991 11.605 4.96669 11.7159 4.96669C11.8267 4.96669 12.3265 4.80188 12.4465 4.85049C12.5665 4.8991 12.6577 4.8877 12.6273 4.81707C12.5969 4.74719 12.5187 4.70314 12.3675 4.74188C12.2171 4.77985 12.2528 4.81783 12.1222 4.81783C11.9923 4.81783 11.8473 4.77985 11.8473 4.77985C11.8473 4.77985 11.8875 4.71757 12.0371 4.76162C12.1852 4.80719 12.3903 4.70694 12.4465 4.70694C12.502 4.70694 12.6554 4.7039 12.6706 4.74188C12.6858 4.77985 12.7784 4.81479 12.7085 4.85049C12.6371 4.88618 12.5209 4.90897 12.6007 4.95454C12.6804 5.00011 12.8658 4.991 12.8741 5.03809C12.8832 5.08594 12.9706 5.15657 12.9349 5.15657C12.9007 5.15657 12.8369 5.22341 12.7777 5.20366C12.7192 5.18315 12.7123 5.16568 12.7685 5.14897C12.8255 5.13226 12.8247 5.06315 12.7777 5.06315C12.7313 5.06315 12.7541 5.08745 12.6485 5.06315C12.5422 5.03885 12.4009 5.0115 12.4093 5.06315C12.4176 5.11404 12.4868 5.19227 12.3592 5.20366C12.2316 5.21353 12.1723 5.25606 12.1465 5.22189C12.1222 5.18771 12.0333 5.1429 12.1032 5.12847C12.1731 5.11404 12.2399 5.17783 12.265 5.1672C12.29 5.15657 12.347 5.15125 12.2992 5.10644C12.2521 5.06315 12.1731 5.03657 12.246 5.00391C12.3189 4.97125 12.2612 4.97049 12.1222 5.03884C11.9832 5.1072 11.9057 5.16492 11.7842 5.15657C11.6619 5.14897 11.6164 5.15961 11.5769 5.14897C11.5374 5.13834 11.3467 5.2705 11.2913 5.23708C11.2366 5.20366 11.0589 5.18999 11.0908 5.14821C11.1227 5.1072 11.166 5.08518 11.2138 5.1072C11.2617 5.12847 11.3088 5.14973 11.3414 5.12847C11.3733 5.1072 11.4667 5.03353 11.4432 5.01834C11.4204 5.00315 11.4424 4.95454 11.3095 4.95454C11.1774 4.95454 11.1303 5.00922 11.0991 4.97505C11.0672 4.94011 11.1333 4.8991 11.1333 4.8991Z" fill="#FFD100"/>
<path d="M14.2273 0.806063V0.79467L14.2576 0.733909C14.2111 0.727898 14.1638 0.731539 14.1187 0.744606C14.0736 0.757674 14.0317 0.779886 13.9956 0.80986C13.9541 0.851769 13.9183 0.899021 13.8893 0.950369C13.8734 0.989223 13.8632 1.03014 13.8589 1.07189C13.8363 1.05 13.8122 1.0297 13.7867 1.01113C13.7719 1.00194 13.7549 0.996708 13.7374 0.99594C13.6911 0.998782 13.6476 1.01915 13.6159 1.0529C13.5864 1.08469 13.5667 1.12421 13.5589 1.16683C13.5437 1.22759 13.5589 1.28835 13.5209 1.34152L13.4602 1.40987C13.4928 1.42336 13.5274 1.43107 13.5627 1.43266C13.6042 1.42832 13.6424 1.40787 13.669 1.37569C13.6918 1.34531 13.7032 1.30354 13.7374 1.28076C13.7439 1.27614 13.7514 1.27306 13.7593 1.27175C13.7672 1.27043 13.7753 1.27092 13.7829 1.27316C13.8019 1.28076 13.8057 1.31873 13.7981 1.33392L13.7602 1.46304L13.6918 1.44785L13.6386 1.47823L13.6159 1.48962L13.6614 1.55798L13.6804 1.56557C13.6754 1.56819 13.6703 1.57072 13.6652 1.57317L13.5399 1.63393L13.5247 1.64152L13.4336 1.64532C13.4132 1.64428 13.3929 1.64174 13.3728 1.63773L13.2817 1.60735C13.2725 1.6028 13.2637 1.59772 13.2551 1.59215L13.2057 1.53899C13.1684 1.49046 13.1413 1.43493 13.126 1.37569C13.1783 1.3684 13.2263 1.34253 13.2612 1.30279C13.296 1.26305 13.3154 1.2121 13.3159 1.15923V1.12885C13.3148 1.12373 13.3136 1.11866 13.3121 1.11366C13.3098 1.10058 13.306 1.08782 13.3007 1.07569C13.2973 1.06789 13.2935 1.06028 13.2893 1.0529C13.2828 1.03961 13.2752 1.0269 13.2665 1.01493C13.2616 1.00966 13.2566 1.00459 13.2513 0.999738C13.2165 0.962449 13.1692 0.939434 13.1184 0.935179H13.069C13.0231 0.942121 12.9806 0.963387 12.9475 0.99594C12.9234 1.01922 12.9052 1.04784 12.8943 1.07949L12.8867 1.10987C12.884 1.12618 12.8827 1.1427 12.8829 1.15923C12.8828 1.20019 12.8941 1.24037 12.9156 1.27526C12.9371 1.31014 12.9678 1.33835 13.0045 1.35671C12.9726 1.39195 12.9383 1.42495 12.9019 1.45544C12.811 1.54035 12.6951 1.59363 12.5715 1.60735C12.4276 1.62423 12.2828 1.58325 12.169 1.49342C12.1347 1.46252 12.1053 1.42668 12.0816 1.38709H12.131L12.1918 1.32633H12.1956L12.1766 1.31114L12.131 1.27316H12.112L12.1272 1.12885C12.1272 1.10607 12.1424 1.06809 12.1652 1.06809C12.176 1.068 12.1865 1.07076 12.1959 1.0761C12.2052 1.08143 12.213 1.08916 12.2184 1.09847C12.2487 1.13645 12.2335 1.17822 12.2487 1.22C12.2567 1.24165 12.2688 1.26153 12.2844 1.27848C12.3001 1.29542 12.3189 1.3091 12.3399 1.31873C12.3855 1.33012 12.4234 1.33772 12.4652 1.33392L12.431 1.24278C12.4082 1.17442 12.45 1.12126 12.4614 1.0529C12.4735 1.00768 12.4708 0.959798 12.4538 0.916192C12.4307 0.867609 12.3899 0.829612 12.3399 0.80986C12.3199 0.805302 12.2991 0.805302 12.2791 0.80986L12.1728 0.840241C12.1728 0.840241 12.2032 0.749099 12.1918 0.703529C12.182 0.639766 12.1614 0.578128 12.131 0.521247C12.0921 0.469552 12.0476 0.422416 11.9981 0.380737C11.9486 0.422416 11.9041 0.469552 11.8652 0.521247C11.8348 0.578128 11.8142 0.639766 11.8044 0.703529C11.7968 0.749099 11.8234 0.840241 11.8234 0.840241C11.7886 0.827878 11.7531 0.817731 11.7171 0.80986C11.6971 0.805302 11.6763 0.805302 11.6563 0.80986C11.6063 0.829612 11.5655 0.867609 11.5424 0.916192C11.5254 0.959798 11.5227 1.00768 11.5348 1.0529C11.5462 1.12126 11.588 1.17442 11.5652 1.24278L11.5272 1.33392C11.5728 1.33392 11.6108 1.33392 11.6525 1.31873C11.6735 1.3091 11.6923 1.29542 11.708 1.27848C11.7236 1.26153 11.7357 1.24165 11.7437 1.22C11.7627 1.18202 11.7513 1.13265 11.7816 1.09847C11.7892 1.07949 11.8082 1.06809 11.8272 1.06809C11.8538 1.06809 11.869 1.10607 11.869 1.12885L11.8842 1.26936H11.8652L11.8044 1.33012L11.8652 1.38709H11.9146C11.8897 1.42694 11.859 1.4628 11.8234 1.49342C11.7096 1.58325 11.5648 1.62423 11.4209 1.60735C11.2986 1.59284 11.1842 1.53962 11.0943 1.45544C11.0592 1.42481 11.0262 1.39182 10.9955 1.35671C11.0336 1.33942 11.0659 1.31168 11.0888 1.27672C11.1116 1.24175 11.1241 1.20101 11.1247 1.15923C11.1238 1.09913 11.0992 1.04181 11.0563 0.999738C11.0222 0.966463 10.9782 0.945143 10.931 0.938977L10.9196 0.931382H10.8816C10.8317 0.937544 10.7857 0.961874 10.7525 0.999738C10.7316 1.02185 10.7148 1.04758 10.7031 1.07569L10.6917 1.11366C10.6915 1.11872 10.6915 1.12379 10.6917 1.12885C10.6911 1.13897 10.6911 1.14912 10.6917 1.15923C10.6917 1.21044 10.7095 1.26005 10.7421 1.29956C10.7746 1.33906 10.82 1.36598 10.8702 1.37569C10.8549 1.43493 10.8278 1.49046 10.7905 1.53899L10.7373 1.59215C10.7275 1.59786 10.7174 1.60293 10.7069 1.60735L10.6196 1.63773C10.5996 1.64174 10.5792 1.64428 10.5588 1.64532L10.4715 1.64152L10.4563 1.63773L10.3272 1.57317L10.3158 1.56557L10.3348 1.55798L10.3803 1.48962L10.3576 1.47823L10.3044 1.44785L10.2398 1.46304L10.1981 1.33772C10.1905 1.31873 10.1943 1.28076 10.2133 1.27316C10.2209 1.27092 10.229 1.27043 10.2369 1.27175C10.2448 1.27306 10.2523 1.27614 10.2588 1.28076C10.2892 1.30354 10.3044 1.34911 10.3272 1.37569C10.3538 1.40787 10.392 1.42832 10.4335 1.43266C10.4688 1.43107 10.5034 1.42336 10.536 1.40987L10.4753 1.34152C10.4335 1.28835 10.4525 1.22759 10.4373 1.16303C10.4295 1.12041 10.4098 1.08089 10.3803 1.04911C10.348 1.01675 10.3046 0.997772 10.2588 0.99594C10.2413 0.996708 10.2243 1.00194 10.2095 1.01113C10.1827 1.02955 10.1573 1.04986 10.1335 1.07189C10.1304 1.03033 10.1215 0.989415 10.1069 0.950369C10.0779 0.899021 10.0421 0.851769 10.0006 0.80986C9.96542 0.779578 9.92419 0.75714 9.87966 0.744044C9.83514 0.730947 9.78833 0.727492 9.74236 0.733909L9.76894 0.79467V0.806063H9.77274L10.0841 1.50481L10.0424 1.51241L9.99679 1.58836L10.0689 1.62633L10.1601 1.60355C10.1905 1.6795 10.2133 1.75165 10.236 1.82381L10.1601 1.8314C10.1449 1.85039 10.1373 1.85039 10.1373 1.86938C10.1373 1.88077 10.1411 1.89976 10.1525 1.90735L10.1639 1.91495L10.1829 1.92634H10.2208L10.2284 1.97571L10.2246 1.97191V2.04786L10.1791 2.1466L10.2512 2.23774L10.2816 2.31749L10.3044 2.3023L10.3082 2.32888H10.2968L10.3158 2.36685L10.2892 2.37445C10.274 2.38964 10.2702 2.39344 10.2702 2.41243C10.2702 2.42002 10.2702 2.43901 10.2816 2.4504L10.312 2.46939C10.3182 2.46858 10.3244 2.46776 10.3306 2.46695C10.47 2.44879 10.6226 2.43092 10.7753 2.42002L10.9272 2.40863C11.193 2.38964 11.4664 2.38964 11.7361 2.38584H12.2525C12.4158 2.38584 12.7576 2.38584 13.0652 2.40863C13.0931 2.411 13.1209 2.41353 13.1488 2.41622L13.2361 2.42002C13.3033 2.42571 13.3703 2.43204 13.4374 2.43901L13.6353 2.46375L13.6804 2.46939L13.6918 2.46179L13.7184 2.43521C13.7207 2.42779 13.7207 2.41984 13.7184 2.41243C13.7184 2.39344 13.7108 2.38964 13.6994 2.37445L13.6728 2.37065L13.688 2.3023L13.707 2.31749L13.7374 2.24154L13.8133 2.15039L13.7678 2.04406V1.97191H13.7602L13.7716 1.92254L13.8057 1.92634C13.8133 1.92634 13.8171 1.92634 13.8209 1.91874C13.8437 1.90355 13.8513 1.88836 13.8513 1.86938C13.8513 1.85419 13.8437 1.84659 13.8285 1.8314L13.7412 1.82381C13.7682 1.74882 13.7961 1.67413 13.8247 1.59975L13.9197 1.62633L13.9956 1.58836L13.95 1.51241L13.9045 1.50481L14.2197 0.80986H14.2235L14.2273 0.806063Z" fill="#FFD700"/>
<path fill-rule="evenodd" clip-rule="evenodd" d="M10.9272 2.40863L10.7753 2.42002C10.6226 2.43092 10.47 2.44879 10.3306 2.46695C10.2452 2.94424 9.98153 5.38343 12.0083 6.38074C12.0083 6.38074 14.1187 5.20366 13.6353 2.46375L13.4374 2.43901C13.3703 2.43204 13.3033 2.42571 13.2361 2.42002L13.1488 2.41622C13.1209 2.41353 13.0931 2.411 13.0652 2.40863C12.7576 2.38584 12.4158 2.38584 12.2525 2.38584H11.7361C11.4664 2.38964 11.193 2.38964 10.9272 2.40863ZM11.0133 2.98969C10.8941 2.88336 10.6533 2.98969 10.6533 2.98969C10.6533 2.98969 10.5546 3.04969 10.6024 3.1021C10.6495 3.1545 10.7194 3.07172 10.9184 3.07172C11.1166 3.07172 11.0832 3.14539 11.1181 3.16817C11.1531 3.1902 11.0133 3.30033 10.9655 3.33299C10.9169 3.36489 10.8455 3.33299 10.7741 3.30033C10.7019 3.26843 10.6381 3.30033 10.5895 3.36337C10.5417 3.42565 10.8082 3.44539 10.891 3.49628C10.9731 3.54717 11.2594 3.34742 11.3186 3.36337C11.3779 3.37932 11.4462 3.36337 11.6293 3.37552C11.8123 3.38767 11.9285 3.30033 12.1366 3.19779C12.3455 3.09526 12.4321 3.09602 12.3227 3.14615C12.2126 3.19552 12.3311 3.23425 12.4025 3.30033C12.4746 3.36641 12.3888 3.37552 12.3516 3.39071C12.3136 3.40666 12.2133 3.31096 12.1085 3.33299C12.0037 3.35425 12.1366 3.42261 12.1746 3.4735C12.2111 3.52438 12.3007 3.46058 12.4921 3.44539C12.6842 3.42944 12.5802 3.31096 12.568 3.23425C12.5551 3.15754 12.7655 3.19779 12.925 3.23425C13.0845 3.27071 13.0503 3.23425 13.121 3.23425C13.1901 3.23425 13.1908 3.3383 13.1058 3.36337C13.0215 3.38767 13.0321 3.41501 13.121 3.44539C13.2091 3.47577 13.3032 3.37552 13.3564 3.37552C13.4088 3.37552 13.2774 3.26919 13.2645 3.19779C13.2516 3.1264 12.9751 3.14007 12.8544 3.07172C12.7344 3.00336 12.909 2.96918 13.0154 2.91602C13.121 2.86285 12.982 2.80968 12.9592 2.75272C12.9364 2.69576 12.7063 2.69956 12.6227 2.69956C12.5392 2.69956 12.2316 2.84994 12.0083 2.7831C11.785 2.71627 11.7242 2.81044 11.7242 2.81044C11.7242 2.81044 11.9414 2.86665 12.1366 2.86665C12.3326 2.86665 12.2787 2.80968 12.505 2.75272C12.7313 2.69576 12.8483 2.76108 12.8939 2.86589C12.9394 2.97146 12.802 2.98969 12.6227 2.91602C12.4427 2.8431 11.6938 3.0907 11.5267 3.0907C11.3612 3.0907 11.4204 2.98969 11.4204 2.80968C11.4204 2.6312 11.2305 2.85222 11.2305 2.91602C11.2305 2.98057 11.1326 3.09602 11.0133 2.98969ZM11.169 3.93756C11.0642 3.84338 10.8523 3.93756 10.8523 3.93756C10.8523 3.93756 10.7657 3.99072 10.8067 4.03629C10.8485 4.08262 10.91 4.00971 11.0847 4.00971C11.2594 4.00971 11.2305 4.07503 11.2609 4.09477C11.2913 4.11376 11.169 4.21098 11.1265 4.23908C11.0839 4.26718 11.0209 4.23908 10.9579 4.21098C10.8948 4.18212 10.8386 4.21098 10.7961 4.26566C10.7543 4.32111 10.9882 4.33782 11.0612 4.38263C11.1333 4.42744 11.3855 4.25047 11.4371 4.26566C11.4895 4.28009 11.5495 4.26566 11.7098 4.2763C11.8708 4.28769 11.9733 4.21098 12.1564 4.1206C12.3394 4.03022 12.4154 4.03098 12.3197 4.07427C12.2232 4.11832 12.3273 4.1525 12.3895 4.21098C12.4533 4.2687 12.3782 4.2763 12.344 4.29073C12.3113 4.3044 12.2232 4.22009 12.1313 4.23908C12.0394 4.25807 12.1564 4.31731 12.189 4.36288C12.2217 4.40769 12.3007 4.35149 12.4693 4.33782C12.6371 4.32415 12.546 4.22085 12.5346 4.1525C12.524 4.0849 12.7093 4.1206 12.849 4.1525C12.9896 4.1844 12.9599 4.1525 13.0207 4.1525C13.0822 4.1525 13.083 4.24364 13.0085 4.26566C12.9341 4.28769 12.9432 4.31124 13.0207 4.33782C13.0989 4.36516 13.1825 4.2763 13.2288 4.2763C13.2751 4.2763 13.1597 4.18288 13.1475 4.1206C13.1369 4.05832 12.8931 4.07047 12.7875 4.00971C12.682 3.94895 12.8354 3.92009 12.9288 3.873C13.0215 3.82591 12.8992 3.77958 12.8794 3.72945C12.8597 3.67932 12.6569 3.68312 12.5832 3.68312C12.5095 3.68312 12.2392 3.81452 12.044 3.75603C11.8473 3.69679 11.7933 3.77958 11.7933 3.77958C11.7933 3.77958 11.9847 3.82895 12.1564 3.82895C12.328 3.82895 12.2809 3.77958 12.4799 3.72945C12.6789 3.67932 12.7822 3.73705 12.8217 3.82895C12.862 3.92161 12.7412 3.93756 12.5832 3.873C12.4252 3.80844 11.7667 4.02642 11.6202 4.02642C11.4743 4.02642 11.526 3.9368 11.526 3.77958C11.526 3.62236 11.3589 3.81679 11.3589 3.873C11.3589 3.92996 11.2738 4.03098 11.169 3.93756ZM11.3733 4.8991C11.2943 4.82846 11.1333 4.8991 11.1333 4.8991C11.1333 4.8991 11.0672 4.94011 11.0991 4.97505C11.1303 5.00922 11.1774 4.95454 11.3095 4.95454C11.4424 4.95454 11.4204 5.00315 11.4432 5.01834C11.4667 5.03353 11.3733 5.1072 11.3414 5.12847C11.3088 5.14973 11.2617 5.12847 11.2138 5.1072C11.166 5.08518 11.1227 5.1072 11.0908 5.14821C11.0589 5.18999 11.2366 5.20366 11.2913 5.23708C11.3467 5.2705 11.5374 5.13834 11.5769 5.14897C11.6164 5.15961 11.6619 5.14897 11.7842 5.15657C11.9057 5.16492 11.9832 5.1072 12.1222 5.03884C12.2612 4.97049 12.3189 4.97125 12.246 5.00391C12.1731 5.03657 12.2521 5.06315 12.2992 5.10644C12.347 5.15125 12.29 5.15657 12.265 5.1672C12.2399 5.17783 12.1731 5.11404 12.1032 5.12847C12.0333 5.1429 12.1222 5.18771 12.1465 5.22189C12.1723 5.25606 12.2316 5.21353 12.3592 5.20366C12.4868 5.19227 12.4176 5.11404 12.4093 5.06315C12.4009 5.0115 12.5422 5.03885 12.6485 5.06315C12.7541 5.08745 12.7313 5.06315 12.7777 5.06315C12.8247 5.06315 12.8255 5.13226 12.7685 5.14897C12.7123 5.16568 12.7192 5.18315 12.7777 5.20366C12.8369 5.22341 12.9007 5.15657 12.9349 5.15657C12.9706 5.15657 12.8832 5.08594 12.8741 5.03809C12.8658 4.991 12.6804 5.00011 12.6007 4.95454C12.5209 4.90897 12.6371 4.88618 12.7085 4.85049C12.7784 4.81479 12.6858 4.77985 12.6706 4.74188C12.6554 4.7039 12.502 4.70694 12.4465 4.70694C12.3903 4.70694 12.1852 4.80719 12.0371 4.76162C11.8875 4.71757 11.8473 4.77985 11.8473 4.77985C11.8473 4.77985 11.9923 4.81783 12.1222 4.81783C12.2528 4.81783 12.2171 4.77985 12.3675 4.74188C12.5187 4.70314 12.5969 4.74719 12.6273 4.81707C12.6577 4.8877 12.5665 4.8991 12.4465 4.85049C12.3265 4.80188 11.8267 4.96669 11.7159 4.96669C11.605 4.96669 11.6445 4.8991 11.6445 4.77985C11.6445 4.66061 11.5176 4.80795 11.5176 4.85049C11.5176 4.89378 11.4531 4.97049 11.3733 4.8991Z" fill="#CF142B"/>
<path fill-rule="evenodd" clip-rule="evenodd" d="M22 1H2C1.44772 1 1 1.44772 1 2V14C1 14.5523 1.44772 15 2 15H22C22.5523 15 23 14.5523 23 14V2C23 1.44771 22.5523 1 22 1ZM2 0C0.89543 0 0 0.89543 0 2V14C0 15.1046 0.89543 16 2 16H22C23.1046 16 24 15.1046 24 14V2C24 0.89543 23.1046 0 22 0H2Z" fill="black" fill-opacity="0.08"/>
</g>
</g>
</svg>
