<svg width="24" height="16" viewBox="0 0 24 16" fill="none" xmlns="http://www.w3.org/2000/svg">
<g id="flags / flag-western sahara">
<g id="flag">
<path d="M22 0H2C0.89543 0 0 0.89543 0 2C0 1.3877 0.275391 0.839844 0.708984 0.472656L6.29709 5H24V2C24 0.89543 23.1046 0 22 0Z" fill="black"/>
<path d="M6.29709 11H24V5H6.29709L10 8L6.29709 11Z" fill="white"/>
<path d="M5.03697e-05 14.0143C0.00775974 15.1123 0.900214 16 2 16H22C23.1046 16 24 15.1046 24 14V11H6.29709L0.708984 15.5273C0.278778 15.163 0.00431263 14.6209 5.03697e-05 14.0143Z" fill="#007A3D"/>
<path d="M0 2V14C0 14.6123 0.275391 15.1602 0.708984 15.5273L10 8L0.708984 0.472656C0.275391 0.839844 0 1.3877 0 2Z" fill="#C4111B"/>
<path fill-rule="evenodd" clip-rule="evenodd" d="M13.8278 9.51201L14.8961 8.75209L15.9533 9.52302L15.5569 8.27485L16.6215 7.5076L15.3109 7.50026L14.9071 6.25209L14.4959 7.49659L13.1853 7.48924L14.2389 8.26751L13.8315 9.51568L13.8278 9.51201Z" fill="#C4111B"/>
<path d="M14.5 10.5C13.1193 10.5 12 9.38071 12 8C12 6.61929 13.1193 5.5 14.5 5.5C14.6606 5.5 14.8177 5.51515 14.9699 5.54409C13.8138 5.76394 12.9397 6.7799 12.9397 8C12.9397 9.2201 13.8138 10.2361 14.9699 10.4559C14.8177 10.4849 14.6606 10.5 14.5 10.5Z" fill="#C4111B"/>
<path fill-rule="evenodd" clip-rule="evenodd" d="M22 1H2C1.44772 1 1 1.44772 1 2V14C1 14.5523 1.44772 15 2 15H22C22.5523 15 23 14.5523 23 14V2C23 1.44771 22.5523 1 22 1ZM2 0C0.89543 0 0 0.89543 0 2V14C0 15.1046 0.895431 16 2 16H22C23.1046 16 24 15.1046 24 14V2C24 0.89543 23.1046 0 22 0H2Z" fill="black" fill-opacity="0.08"/>
</g>
</g>
</svg>
