<svg width="24" height="16" viewBox="0 0 24 16" fill="none" xmlns="http://www.w3.org/2000/svg">
<g id="flags / flag-british virgin islands">
<g id="flag">
<path d="M0 2C0 0.895431 0.895431 0 2 0H22C23.1046 0 24 0.895431 24 2V14C24 15.1046 23.1046 16 22 16H2C0.89543 16 0 15.1046 0 14V2Z" fill="#012169"/>
<path d="M5 0V2.13149L1.81538 0.00840766C1.04206 0.0791862 0.396074 0.590195 0.130201 1.28865L2.69722 3H2.563e-06L0 5H2.69722L2.563e-06 6.79815V8H1.80278L5 5.86852V8H7V5.86852L10.1972 8H12V6.79815L9.30277 5H12V3H9.30277L12 1.20185V0H10.1972L7 2.13149V0H5Z" fill="white"/>
<path d="M5.5 0V3.5H0V4.5H5.5V8H6.5V4.5H12V3.5H6.5V0H5.5Z" fill="#F44336"/>
<path d="M11.5493 0L7.04932 3H7.9507L12 0.300469V0H11.5493Z" fill="#F44336"/>
<path d="M2.563e-06 8L0.450704 8L4.9507 5H4.04932L0 7.69954L2.563e-06 8Z" fill="#F44336"/>
<path d="M0.524331 0.650019L4.0493 3H4.95069L0.92268 0.31466C0.775637 0.40885 0.641733 0.521757 0.524331 0.650019Z" fill="#F44336"/>
<path d="M7.95069 5L12 7.69954V8L11.5493 8L7.0493 5H7.95069Z" fill="#F44336"/>
<path fill-rule="evenodd" clip-rule="evenodd" d="M22 1H2C1.44772 1 1 1.44772 1 2V14C1 14.5523 1.44772 15 2 15H22C22.5523 15 23 14.5523 23 14V2C23 1.44771 22.5523 1 22 1ZM2 0C0.895431 0 0 0.895431 0 2V14C0 15.1046 0.89543 16 2 16H22C23.1046 16 24 15.1046 24 14V2C24 0.895431 23.1046 0 22 0H2Z" fill="black" fill-opacity="0.08"/>
<path fill-rule="evenodd" clip-rule="evenodd" d="M18 11.9786C16.5473 11.5338 15.8137 10.8232 15.4352 10.2308L14.5925 10.7692C15.1227 11.5989 16.0996 12.477 17.8626 12.9808L18 13.02L18.1374 12.9808C19.9004 12.477 20.8773 11.5989 21.4075 10.7692L20.5648 10.2308C20.1863 10.8232 19.4527 11.5338 18 11.9786Z" fill="#FFDA44"/>
<path d="M19.25 5H20.25V6H19.25V5Z" fill="#FFDA44"/>
<path d="M15.75 5H16.75V6H15.75V5Z" fill="#FFDA44"/>
<path d="M19.25 9H20.25V10H19.25V9Z" fill="#FFDA44"/>
<path d="M15.75 9H16.75V10H15.75V9Z" fill="#FFDA44"/>
<path d="M19.25 7H20.25V8H19.25V7Z" fill="#FFDA44"/>
<path d="M15.75 7H16.75V8H15.75V7Z" fill="#FFDA44"/>
<path d="M18.75 5.75C18.75 6.16421 18.4142 6.5 18 6.5C17.5858 6.5 17.25 6.16421 17.25 5.75C17.25 5.33579 17.5858 5 18 5C18.4142 5 18.75 5.33579 18.75 5.75Z" fill="#A2001D"/>
<path d="M18 6.5C18.4142 6.5 18.75 6.16421 18.75 5.75V10H17.25V5.75C17.25 6.16421 17.5858 6.5 18 6.5Z" fill="white"/>
<path fill-rule="evenodd" clip-rule="evenodd" d="M15 4H21V9C21 9 21 11 18 12C15 11 15 9 15 9V4ZM20.25 5H19.25V6H20.25V5ZM15.75 5H16.75V6H15.75V5ZM20.25 9H19.25V10H20.25V9ZM15.75 9H16.75V10H15.75V9ZM20.25 7H19.25V8H20.25V7ZM15.75 7H16.75V8H15.75V7ZM18.75 5.75C18.75 5.33579 18.4142 5 18 5C17.5858 5 17.25 5.33579 17.25 5.75V10H18.75V5.75Z" fill="#6DA544"/>
</g>
</g>
</svg>
