<svg width="24" height="16" viewBox="0 0 24 16" fill="none" xmlns="http://www.w3.org/2000/svg">
<g id="flags / flag-french southern and antarctic lands">
<g id="flag">
<path d="M13 0H22C23.1046 0 24 0.89543 24 2V14C24 15.1046 23.1046 16 22 16H2C0.89543 16 0 15.1046 0 14V9H13V0Z" fill="#000089"/>
<path d="M4 0V8H0V9H13V0H4Z" fill="white"/>
<path d="M8 0H12V8H8V0Z" fill="#FF002D"/>
<path d="M0 8H4V0H2C0.89543 0 0 0.89543 0 2V8Z" fill="#001F9B"/>
<path fill-rule="evenodd" clip-rule="evenodd" d="M16.5582 8H20.5822L20.1902 8.752H18.9692V9.156H19.9052L19.5242 9.856H18.9692V11.2545L19.8837 9.815L21.0657 11.8625H20.5827L20.4142 11.638H19.3442L18.5912 13.0285V13.1055L18.5707 13.067L18.5497 13.1055V13.0285L17.7977 11.6385H16.7277L16.5587 11.8625H16.0757L17.2577 9.815L18.1717 11.255V8.7515H16.9507L16.5582 8ZM19.9067 10.655L19.6437 11.0585H20.1412L19.9067 10.655ZM17.2337 10.655L17.4967 11.0585H16.9992L17.2337 10.655Z" fill="#F7FCFF"/>
<path fill-rule="evenodd" clip-rule="evenodd" d="M21.3929 10.0116L20.9379 10.2508L21.0248 9.74393L20.6567 9.38579L21.1654 9.31186L21.3929 8.85083L21.6204 9.31156L22.1292 9.38548L21.761 9.74454L21.8479 10.2508" fill="#F7FCFF"/>
<path fill-rule="evenodd" clip-rule="evenodd" d="M15.7362 10.0116L15.2812 10.2508L15.3681 9.74393L15 9.38579L15.5087 9.31186L15.7362 8.85083L15.9637 9.31156L16.4724 9.38548L16.1043 9.74454L16.1912 10.2508" fill="#F7FCFF"/>
<path fill-rule="evenodd" clip-rule="evenodd" d="M17.0092 13.6087L16.5542 13.848L16.6411 13.3411L16.2729 12.983L16.7817 12.909L17.0092 12.448L17.2367 12.9087L17.7454 12.9827L17.3773 13.3417L17.4642 13.848" fill="#F7FCFF"/>
<path fill-rule="evenodd" clip-rule="evenodd" d="M20.1195 13.6087L19.6645 13.848L19.7514 13.3411L19.3833 12.983L19.892 12.909L20.1195 12.448L20.347 12.9087L20.8557 12.9827L20.4876 13.3417L20.5745 13.848" fill="#F7FCFF"/>
<path fill-rule="evenodd" clip-rule="evenodd" d="M18.5634 14.804L18.1084 15.0433L18.1953 14.5364L17.8271 14.1783L18.3359 14.1043L18.5634 13.6433L18.7909 14.104L19.2996 14.178L18.9315 14.537L19.0184 15.0433" fill="#F7FCFF"/>
<path fill-rule="evenodd" clip-rule="evenodd" d="M22 1H2C1.44772 1 1 1.44772 1 2V14C1 14.5523 1.44772 15 2 15H22C22.5523 15 23 14.5523 23 14V2C23 1.44771 22.5523 1 22 1ZM2 0C0.89543 0 0 0.89543 0 2V14C0 15.1046 0.89543 16 2 16H22C23.1046 16 24 15.1046 24 14V2C24 0.89543 23.1046 0 22 0H2Z" fill="black" fill-opacity="0.08"/>
</g>
</g>
</svg>
