<svg width="24" height="16" viewBox="0 0 24 16" fill="none" xmlns="http://www.w3.org/2000/svg">
<g id="flags / flag-swaziland">
<g id="flag">
<path d="M0 13H24V14C24 15.1046 23.1046 16 22 16H2C0.89543 16 0 15.1046 0 14V13Z" fill="#3E5EB9"/>
<path d="M24 4H0V12H24V4Z" fill="#B10C0C"/>
<path d="M24 3H0V4H24V3Z" fill="#FFD900"/>
<path d="M24 12H0V13H24V12Z" fill="#FFD900"/>
<path d="M2 0H22C23.1046 0 24 0.89543 24 2V3H0V2C0 0.89543 0.89543 0 2 0Z" fill="#3E5EB9"/>
<path fill-rule="evenodd" clip-rule="evenodd" d="M9.03661 6.93909V7.73561H8.79661V6.93909H9.03661ZM9.27661 7.73561V6.93909H9.51661V7.73561H9.27661Z" fill="white"/>
<path fill-rule="evenodd" clip-rule="evenodd" d="M12.6819 6.93909V7.73561H12.4419V6.93909H12.6819ZM12.9219 7.73561V6.93909H13.1619V7.73561H12.9219ZM13.4019 7.73561V6.93909H13.6419V7.73561H13.4019Z" fill="black"/>
<path fill-rule="evenodd" clip-rule="evenodd" d="M14.1288 6.93909V7.73561H13.8888V6.93909H14.1288ZM14.3688 7.73561V6.93909H14.6088V7.73561H14.3688ZM14.8488 7.73561V6.93909H15.0888V7.73561H14.8488Z" fill="black"/>
<path fill-rule="evenodd" clip-rule="evenodd" d="M14.1288 8.2643V9.06082H13.8888V8.2643H14.1288ZM14.3688 9.06082V8.2643H14.6088V9.06082H14.3688ZM14.8488 9.06082V8.2643H15.0888V9.06082H14.8488Z" fill="black"/>
<path d="M5.85219 6.62585C5.80084 6.62585 5.76175 6.66379 5.76175 6.70759C5.76175 6.75139 5.80084 6.78933 5.85219 6.78933H8.12297C8.18178 6.73479 8.24172 6.68023 8.30278 6.62585H5.85219Z" fill="#FFD900"/>
<path d="M5.04175 7.22063C4.9904 7.22063 4.95132 7.25858 4.95132 7.30237C4.95132 7.34617 4.9904 7.38411 5.04175 7.38411H7.51559C7.56667 7.33207 7.62119 7.27707 7.67774 7.22063H5.04175Z" fill="#FFD900"/>
<path d="M16.8603 7.38412C16.8819 7.38345 16.9025 7.37476 16.918 7.35976C16.9304 7.34779 16.9389 7.33247 16.9426 7.31581C16.9434 7.31188 16.944 7.30787 16.9443 7.30382C16.9442 7.29993 16.9437 7.29607 16.9431 7.29228C16.94 7.27486 16.9316 7.2587 16.9189 7.24605C16.9033 7.23044 16.8824 7.22135 16.8603 7.22062L16.1754 7.22063C16.2263 7.27584 16.2762 7.33041 16.3252 7.38411L16.8603 7.38412Z" fill="#FFD900"/>
<path d="M17.247 7.38411C17.2983 7.38411 17.3374 7.34617 17.3374 7.30237C17.3374 7.25858 17.2983 7.22063 17.247 7.22063H17.1135C17.1192 7.22444 17.1246 7.22882 17.1295 7.23375C17.1482 7.25248 17.1591 7.27764 17.16 7.30411C17.1583 7.32997 17.147 7.35427 17.1284 7.37227C17.1238 7.37669 17.1189 7.38064 17.1137 7.38411L17.1405 7.38479L17.247 7.38411Z" fill="#FFD900"/>
<path d="M17.8035 7.58134L18.5964 7.30398L17.807 7.02343L17.3073 7.20027C17.3456 7.21989 17.3722 7.25769 17.3722 7.30237C17.3722 7.34823 17.3442 7.38684 17.3042 7.40598L17.8035 7.58134Z" fill="white"/>
<path d="M3.69914 7.86933C3.62945 7.86933 3.57219 7.9273 3.57219 7.99976C3.57219 8.07223 3.62945 8.1302 3.69914 8.1302H4.35463L4.4101 8.05562C4.41541 8.05305 4.42192 8.04991 4.42694 8.04639C4.43475 8.04093 4.44163 8.03302 4.44407 8.02085C4.44622 8.01011 4.44444 7.99803 4.4407 7.98467C4.43886 7.97809 4.43639 7.97069 4.43326 7.96234C4.45035 7.96549 4.47091 7.97014 4.49385 7.97587C4.53282 7.98562 4.57729 7.99813 4.62075 8.01062L4.65953 8.02182C4.68894 8.03033 4.71688 8.03842 4.74086 8.04505C4.75806 8.0498 4.77346 8.05387 4.7861 8.05686C4.79833 8.05975 4.80948 8.06195 4.81707 8.06242C4.84974 8.06401 4.88806 8.05629 4.92717 8.04744L4.94794 8.04268C4.98161 8.03492 5.01645 8.02689 5.05204 8.02205C5.13736 8.01047 5.22228 8.01837 5.29162 8.09171C5.30439 8.10448 5.31554 8.11729 5.32525 8.1302H7.04416C7.00435 8.08959 6.95324 8.03799 6.91538 8.00013C6.95335 7.96205 7.00458 7.9102 7.04453 7.86933H3.69914Z" fill="#FFD900"/>
<path fill-rule="evenodd" clip-rule="evenodd" d="M3.95219 8.28408C3.85391 8.40548 3.76979 8.58876 3.73013 8.80108L3.73464 8.79492L3.73558 8.79358C3.74345 8.78248 3.75111 8.77383 3.78639 8.74737L3.82148 8.72106L3.81641 8.76462C3.80952 8.82387 3.81629 8.86419 3.82865 8.91328L3.8371 8.94561C3.84626 8.98003 3.85699 9.02037 3.86685 9.0728C3.88497 9.04974 3.89628 9.03779 3.9055 9.02804C3.91732 9.01555 3.92574 9.00659 3.94379 8.97605L3.96361 8.94251L3.9776 8.97887C4.00894 9.06036 4.02419 9.13524 4.04269 9.22607C4.04848 9.20443 4.07309 9.2072 4.09099 9.17141L4.10182 9.14974L4.12016 9.16558C4.16758 9.20653 4.19873 9.25226 4.22182 9.29897C4.23482 9.2238 4.25292 9.17613 4.26936 9.1328C4.28243 9.09839 4.29445 9.06672 4.30204 9.02621C4.31141 8.97565 4.31623 8.92931 4.32033 8.88996C4.32893 8.80748 4.33433 8.75562 4.37161 8.75955C4.42958 8.76534 4.44117 8.82621 4.40349 8.97983C4.36626 9.13735 4.33987 9.17504 4.22182 9.29897C4.24203 9.34008 4.25653 9.38291 4.26993 9.42295L4.28036 9.45375C4.3113 9.54318 4.34686 9.62199 4.45058 9.67405C4.45967 9.65794 4.4691 9.64293 4.47916 9.62991C4.4924 9.61278 4.50751 9.59807 4.5255 9.58907L4.53885 9.5824L4.5484 9.59386C4.57452 9.6252 4.60166 9.63971 4.64135 9.65672L4.66223 9.6655C4.68478 9.67491 4.71077 9.68575 4.74109 9.70064C4.73827 9.68165 4.74302 9.66359 4.75212 9.64709C4.77155 9.61188 4.81323 9.57956 4.85745 9.54972C4.87732 9.53632 4.89849 9.52292 4.91947 9.50964L4.928 9.50424C4.95187 9.48912 4.97528 9.47414 4.99675 9.45907C5.04066 9.42824 5.07269 9.3995 5.08483 9.37218L5.09901 9.34027L5.11789 9.36965C5.12619 9.32558 5.14025 9.29204 5.15603 9.25873C5.1643 9.24127 5.17298 9.22475 5.18185 9.20785C5.20226 9.169 5.22372 9.12815 5.24362 9.06944L5.25812 9.02667L5.27832 9.06706C5.28204 9.07451 5.28501 9.08007 5.28748 9.08438C5.2892 9.03965 5.29232 8.99047 5.29555 8.93961C5.29842 8.89435 5.30138 8.84776 5.30351 8.80179C5.30932 8.67664 5.30909 8.55537 5.2867 8.4686L5.31932 8.45172C5.3485 8.4862 5.35948 8.50795 5.36706 8.52295L5.37018 8.52906C5.37337 8.53515 5.37583 8.53904 5.37933 8.54264C5.38017 8.51079 5.38201 8.48019 5.38376 8.45092L5.38478 8.43394C5.3874 8.38912 5.38932 8.34767 5.38686 8.30818C5.3838 8.25898 5.37398 8.21296 5.3499 8.16846C5.34294 8.15559 5.33478 8.14285 5.32525 8.1302C5.31554 8.11729 5.30439 8.10448 5.29162 8.09171C5.22228 8.01837 5.13736 8.01047 5.05204 8.02205C5.01645 8.02689 4.98161 8.03492 4.94794 8.04268L4.92717 8.04744C4.88806 8.05629 4.84974 8.06401 4.81707 8.06242C4.80948 8.06195 4.79833 8.05975 4.7861 8.05686C4.77346 8.05387 4.75806 8.0498 4.74086 8.04505C4.71688 8.03842 4.68894 8.03033 4.65953 8.02182L4.62075 8.01062C4.57729 7.99813 4.53282 7.98562 4.49385 7.97587C4.47091 7.97014 4.45035 7.96549 4.43326 7.96234C4.43639 7.97069 4.43886 7.97809 4.4407 7.98467C4.44444 7.99803 4.44622 8.01011 4.44407 8.02085C4.44163 8.03302 4.43475 8.04093 4.42694 8.04639C4.42192 8.04991 4.41541 8.05305 4.4101 8.05562L4.35463 8.1302L4.31203 8.18748C4.30044 8.18177 4.28604 8.17503 4.27012 8.16846C4.22144 8.14837 4.1585 8.12988 4.11792 8.14736C4.10464 8.15309 4.09127 8.16014 4.07787 8.16846C4.03548 8.19479 3.99285 8.23387 3.95219 8.28408ZM4.14262 8.61752C4.09914 8.71607 4.04407 8.76244 3.9832 8.91897C4.14842 8.79433 4.1832 8.75954 4.26436 8.58563C4.34552 8.41172 4.34552 8.34215 4.28755 8.31896C4.22668 8.29868 4.21509 8.4407 4.14262 8.61752ZM4.55132 9.30157C4.54874 9.34033 4.54097 9.37276 4.53238 9.4086C4.52171 9.45318 4.50976 9.50303 4.50494 9.57694C4.60349 9.43781 4.62088 9.39723 4.63828 9.2465C4.65567 9.09578 4.63828 9.0407 4.5803 9.0407C4.54617 9.0407 4.54802 9.08784 4.55094 9.16263C4.55248 9.20218 4.55433 9.24945 4.55132 9.30157ZM4.60929 8.26969C4.6433 8.23968 4.6856 8.28838 4.75238 8.36527C4.78235 8.39979 4.81726 8.43998 4.85857 8.48128C4.8922 8.51492 4.92469 8.53817 4.96066 8.5639C5.00507 8.59568 5.05479 8.63126 5.11856 8.6949L5.12233 8.69578H5.11943L5.11856 8.6949C4.92171 8.64918 4.87218 8.63118 4.73393 8.50157C4.5919 8.37694 4.56291 8.31317 4.60929 8.26969ZM4.86726 8.92186C4.88991 8.95783 4.91439 8.984 4.94155 9.01304C4.97349 9.04718 5.00914 9.08529 5.04987 9.14795C4.88755 9.07259 4.85277 9.0494 4.75712 8.92186C4.66436 8.79143 4.65277 8.73346 4.70204 8.70447C4.73472 8.68717 4.75847 8.73106 4.79613 8.80063C4.81526 8.83596 4.83797 8.87793 4.86726 8.92186Z" fill="#333333"/>
<path fill-rule="evenodd" clip-rule="evenodd" d="M4.22088 9.30447L4.22182 9.29897C4.33987 9.17504 4.36626 9.13735 4.40349 8.97983C4.44117 8.82621 4.42958 8.76534 4.37161 8.75955C4.33433 8.75562 4.32893 8.80748 4.32033 8.88996C4.31623 8.92931 4.31141 8.97565 4.30204 9.02621C4.29445 9.06672 4.28243 9.09839 4.26936 9.1328C4.25292 9.17613 4.23482 9.2238 4.22182 9.29897L4.21799 9.30447H4.22088ZM4.50494 9.57694C4.50976 9.50303 4.52171 9.45318 4.53238 9.4086C4.54097 9.37276 4.54874 9.34033 4.55132 9.30157C4.55433 9.24945 4.55248 9.20218 4.55094 9.16263C4.54802 9.08784 4.54617 9.0407 4.5803 9.0407C4.63828 9.0407 4.65567 9.09578 4.63828 9.2465C4.62088 9.39723 4.60349 9.43781 4.50494 9.57694ZM5.11943 8.69578L5.11856 8.6949L5.12233 8.69578H5.11943ZM5.11856 8.6949C5.05479 8.63126 5.00507 8.59568 4.96066 8.5639C4.92469 8.53817 4.8922 8.51492 4.85857 8.48128C4.81726 8.43998 4.78235 8.39979 4.75238 8.36527C4.6856 8.28838 4.6433 8.23968 4.60929 8.26969C4.56291 8.31317 4.5919 8.37694 4.73393 8.50157C4.87218 8.63118 4.92171 8.64918 5.11856 8.6949ZM5.04987 9.14795C5.00914 9.08529 4.97349 9.04718 4.94155 9.01304C4.91439 8.984 4.88991 8.95783 4.86726 8.92186C4.83797 8.87793 4.81526 8.83596 4.79613 8.80063C4.75847 8.73106 4.73472 8.68717 4.70204 8.70447C4.65277 8.73346 4.66436 8.79143 4.75712 8.92186C4.85277 9.0494 4.88755 9.07259 5.04987 9.14795Z" fill="#B3B3B3"/>
<path d="M3.9832 8.91897C4.04407 8.76244 4.09914 8.71607 4.14262 8.61752C4.21509 8.4407 4.22668 8.29868 4.28755 8.31896C4.34552 8.34215 4.34552 8.41172 4.26436 8.58563C4.1832 8.75954 4.14842 8.79433 3.9832 8.91897Z" fill="#B3B3B3"/>
<path fill-rule="evenodd" clip-rule="evenodd" d="M11.2389 6.82467C11.2336 6.82231 11.2287 6.82007 11.224 6.81791L11.2389 6.82467Z" fill="#B3B3B3"/>
<path d="M10.7236 7.73561H10.9636V7.47271C10.8747 7.4558 10.8017 7.42551 10.7243 7.37844L10.7236 7.73561Z" fill="#FFF2F2"/>
<path d="M11.2036 7.73561H11.4436V6.93909H11.3236L11.1883 6.93812C11.2004 6.96817 11.2103 7.00157 11.2138 7.0418L11.2036 7.03408V7.73561Z" fill="#FFF2F2"/>
<path d="M10.2436 7.73561H10.4836V7.16234L10.4799 7.16465C10.4359 7.19213 10.4243 7.23566 10.42 7.28047L10.3948 7.25949C10.3651 7.23458 10.3251 7.2002 10.286 7.16283C10.2715 7.14901 10.2572 7.13484 10.2436 7.12065V7.73561Z" fill="#FFF2F2"/>
<path d="M9.75661 7.73561H9.99661V7.03793C9.96791 7.00684 9.94147 6.9738 9.91745 6.93909H9.75661V7.73561Z" fill="#FFF2F2"/>
<path d="M11.2036 8.2643V9.06082H11.4436V8.2643H11.2036Z" fill="white"/>
<path d="M10.7236 8.2643V9.06082H10.9636V8.2643H10.7236Z" fill="white"/>
<path d="M10.4836 9.06082V8.2643H10.2436V9.06082H10.4836Z" fill="white"/>
<path d="M9.75661 8.2643V9.06082H9.99661V8.2643H9.75661Z" fill="white"/>
<path d="M9.27661 8.2643V9.06082H9.51661V8.2643H9.27661Z" fill="white"/>
<path d="M9.03661 9.06082V8.2643H8.79661V9.06082H9.03661Z" fill="white"/>
<path fill-rule="evenodd" clip-rule="evenodd" d="M10.42 7.28047C10.4243 7.23566 10.4359 7.19213 10.4799 7.16465L10.4836 7.16234L10.4915 7.15739L10.4994 7.16857C10.5592 7.25319 10.6357 7.32463 10.7243 7.37844C10.8017 7.42551 10.8747 7.4558 10.9636 7.47271C10.9503 7.44817 10.9599 7.42125 10.9628 7.39049C10.9672 7.34497 10.9843 7.29263 11.0017 7.24045L11.0049 7.23098C11.0216 7.1812 11.0382 7.1314 11.0464 7.08485C11.0551 7.03527 11.0536 6.99205 11.0344 6.95799L11.0094 6.91389L11.0539 6.93812C11.106 6.9665 11.156 6.99858 11.2036 7.03408L11.2138 7.0418C11.2103 7.00157 11.2004 6.96817 11.1883 6.93812C11.1834 6.92593 11.1782 6.91429 11.173 6.90298L11.1656 6.88746C11.1467 6.84759 11.1281 6.80833 11.1281 6.76244L11.1556 6.75596C11.1712 6.78726 11.1888 6.8005 11.2143 6.81325L11.224 6.81791L11.2389 6.82467C11.2565 6.8326 11.2774 6.84202 11.3014 6.85547C11.2946 6.71824 11.2346 6.58914 11.1738 6.49186C11.1416 6.44034 11.1094 6.39809 11.0852 6.36876C11.0732 6.35409 11.0631 6.34267 11.0561 6.33494L11.0481 6.32618L11.046 6.32398L11.0557 6.31317H11.0412V6.2881L11.0629 6.30061C11.1654 6.35962 11.2735 6.40823 11.3857 6.44571C11.3536 6.24833 11.2637 6.0647 11.1271 5.91819C10.8336 5.69808 10.5938 5.67548 10.4444 5.67476C10.4256 5.67467 10.4081 5.67493 10.3921 5.67519L10.388 5.67526C10.3736 5.6755 10.3603 5.67572 10.3483 5.67566C10.3228 5.67551 10.3002 5.67416 10.2843 5.66707C10.2758 5.66327 10.2684 5.65746 10.2637 5.6487C10.2591 5.64011 10.2581 5.63032 10.2592 5.62012C10.2603 5.60936 10.264 5.59679 10.2699 5.58218C10.0985 5.6799 9.94905 5.81199 9.83089 5.97031C9.71222 6.1293 9.62792 6.31104 9.58312 6.504C9.62542 6.46943 9.66912 6.4366 9.71411 6.40558L9.75231 6.37924L9.73589 6.42264L9.73092 6.43577C9.69341 6.53484 9.67547 6.5822 9.67083 6.63367C9.66641 6.68252 9.67395 6.73526 9.69061 6.83924C9.70632 6.81844 9.71734 6.80485 9.72816 6.79166L9.73171 6.78733C9.74536 6.7707 9.75939 6.75362 9.7832 6.72186L9.79945 6.7002L9.80846 6.72573C9.83529 6.80171 9.87202 6.87341 9.91745 6.93909C9.94147 6.9738 9.96791 7.00684 9.99661 7.03793C10.0171 7.0601 10.0387 7.08129 10.0613 7.10139C10.0691 7.04739 10.0912 6.99626 10.1255 6.95339L10.1506 6.96703C10.1481 6.97445 10.1487 6.98515 10.1543 6.99982C10.1598 7.0143 10.1695 7.03094 10.1825 7.04908C10.199 7.07195 10.2203 7.09634 10.2436 7.12065C10.2572 7.13484 10.2715 7.14901 10.286 7.16283C10.3251 7.2002 10.3651 7.23458 10.3948 7.25949L10.42 7.28047ZM10.1745 6.41172C10.2093 6.20302 10.1861 6.12766 10.1165 6.12186C10.0649 6.11789 10.0622 6.19024 10.0582 6.30154C10.0564 6.35254 10.0543 6.41173 10.047 6.47549C10.0394 6.52883 10.0262 6.5716 10.0118 6.61818C9.99339 6.67791 9.97304 6.74391 9.96002 6.8465L9.96291 6.8494C10.1049 6.66679 10.1368 6.61752 10.1745 6.41172ZM10.447 6.78563C10.4412 6.60592 10.4064 6.54795 10.3426 6.55954C10.3003 6.56531 10.3103 6.62083 10.3261 6.70832C10.3341 6.75272 10.3435 6.80535 10.3484 6.86389C10.3538 6.90933 10.3505 6.94861 10.3468 6.99253C10.3425 7.04385 10.3377 7.10151 10.3455 7.18273C10.4383 7.00882 10.4528 6.95954 10.447 6.78563ZM10.6644 7.18273C10.5803 7.03201 10.5774 6.96824 10.6354 6.94505C10.6725 6.93139 10.6925 6.98214 10.7246 7.06367C10.7402 7.1032 10.7586 7.14996 10.7832 7.20012C10.8007 7.23772 10.8019 7.24267 10.803 7.2472C10.8045 7.25313 10.8057 7.25832 10.8436 7.33565L10.8848 7.41889C10.7452 7.33166 10.7427 7.32699 10.6931 7.23525C10.6851 7.2203 10.6757 7.20304 10.6644 7.18273ZM10.6644 6.17694C10.4702 6.08708 10.418 6.02621 10.4586 5.96824C10.4843 5.92665 10.5439 5.96354 10.6391 6.02251C10.6833 6.04985 10.7351 6.08195 10.7948 6.11317C10.8439 6.13973 10.8882 6.15412 10.9379 6.17028C10.9967 6.1894 11.0631 6.21098 11.1542 6.25809H11.1513C10.9194 6.26969 10.8586 6.26679 10.6644 6.17694ZM10.8209 6.61172C10.676 6.50447 10.647 6.4465 10.6933 6.40012C10.7226 6.37088 10.7623 6.40982 10.8275 6.47372C10.8593 6.50484 10.8971 6.54187 10.9426 6.57983C10.9724 6.60409 11.0017 6.62163 11.0331 6.63949C11.0375 6.64204 11.042 6.64459 11.0466 6.64718C11.0939 6.67398 11.1469 6.70416 11.2122 6.75954C11.0453 6.73531 10.9838 6.72256 10.8813 6.65447C10.878 6.65227 10.8746 6.65 10.8712 6.64767C10.8556 6.63704 10.839 6.62512 10.8209 6.61172Z" fill="#333333"/>
<path fill-rule="evenodd" clip-rule="evenodd" d="M10.3468 6.99253C10.3425 7.04385 10.3377 7.10151 10.3455 7.18273C10.4383 7.00882 10.4528 6.95954 10.447 6.78563C10.4412 6.60592 10.4064 6.54795 10.3426 6.55954C10.3003 6.56531 10.3103 6.62083 10.3261 6.70832C10.3341 6.75272 10.3435 6.80535 10.3484 6.86389C10.3538 6.90933 10.3505 6.94861 10.3468 6.99253ZM10.803 7.2472C10.8045 7.25313 10.8057 7.25832 10.8436 7.33565L10.8848 7.41889C10.7452 7.33166 10.7427 7.32699 10.6931 7.23525C10.6851 7.2203 10.6757 7.20304 10.6644 7.18273C10.5803 7.03201 10.5774 6.96824 10.6354 6.94505C10.6725 6.93139 10.6925 6.98214 10.7246 7.06367C10.7402 7.1032 10.7586 7.14996 10.7832 7.20012C10.8007 7.23772 10.8019 7.24267 10.803 7.2472ZM10.9379 6.17028C10.9967 6.1894 11.0631 6.21098 11.1542 6.25809H11.1513C10.9194 6.26969 10.8586 6.26679 10.6644 6.17694C10.4702 6.08708 10.418 6.02621 10.4586 5.96824C10.4843 5.92665 10.5439 5.96354 10.6391 6.02251C10.6833 6.04985 10.7351 6.08195 10.7948 6.11317C10.8439 6.13973 10.8882 6.15412 10.9379 6.17028ZM11.2122 6.75954C11.1469 6.70416 11.0939 6.67398 11.0466 6.64718L11.0331 6.63949C11.0017 6.62163 10.9724 6.60409 10.9426 6.57983C10.8971 6.54187 10.8593 6.50484 10.8275 6.47372C10.7623 6.40982 10.7226 6.37088 10.6933 6.40012C10.647 6.4465 10.676 6.50447 10.8209 6.61172C10.839 6.62512 10.8556 6.63704 10.8712 6.64767L10.8813 6.65447C10.9838 6.72256 11.0453 6.73531 11.2122 6.75954Z" fill="#B3B3B3"/>
<path d="M10.1165 6.12186C10.1861 6.12766 10.2093 6.20302 10.1745 6.41172C10.1368 6.61752 10.1049 6.66679 9.96291 6.8494L9.96002 6.8465C9.97304 6.74391 9.99339 6.67791 10.0118 6.61818C10.0262 6.5716 10.0394 6.52883 10.047 6.47549C10.0543 6.41173 10.0564 6.35254 10.0582 6.30154C10.0622 6.19024 10.0649 6.11789 10.1165 6.12186Z" fill="#B3B3B3"/>
<path fill-rule="evenodd" clip-rule="evenodd" d="M16.9008 8.00011L16.8885 7.98782C16.8387 7.93798 16.788 7.88561 16.7363 7.83107C16.629 7.71786 16.5175 7.59534 16.4006 7.46691L16.3569 7.41889L16.3252 7.38411C16.2762 7.33041 16.2263 7.27584 16.1754 7.22063L16.1433 7.18585C16.0334 7.06718 15.9187 6.94583 15.7986 6.82411L15.7641 6.78933C15.7098 6.7348 15.6544 6.68023 15.5978 6.62585L15.5614 6.59107C14.6979 5.77009 13.5589 5.00011 11.9081 5.00011C11.8009 5.10455 11.2543 5.6867 11.56 6.05506V6.05796C11.6848 6.1963 11.7023 6.29592 11.7144 6.36486C11.7282 6.44325 11.735 6.48195 11.8847 6.49274C11.9886 6.49987 12.0352 6.54066 12.0628 6.59107C12.1137 6.68408 12.1248 6.81659 12.2865 6.82411C12.346 6.85749 12.3436 7.01006 12.339 7.18585C12.337 7.26178 12.3345 7.34204 12.3365 7.41889C12.3398 7.55046 12.3561 7.67207 12.4093 7.74492C12.4362 7.78279 12.4624 7.81053 12.4875 7.83107C12.6216 7.94097 12.7232 7.8443 12.7281 7.98839C12.7281 8.06482 12.6443 8.10508 12.5472 8.16846C12.416 8.25412 12.2607 8.38202 12.2557 8.69854C12.2476 8.87505 12.1255 8.95928 12.0163 9.03463C11.93 9.09415 11.8517 9.14813 11.8441 9.23767C11.8321 9.33647 12.032 9.41285 12.2265 9.48718C12.4085 9.55676 12.5859 9.62455 12.5803 9.70724C12.576 9.79238 12.3766 9.82889 12.1696 9.86677C11.9539 9.90626 11.73 9.94724 11.7107 10.0464C11.7041 10.1128 11.8676 10.1751 12.0774 10.2549C12.4118 10.3821 12.8637 10.5541 12.9313 10.8593L12.9339 10.8942C14.5693 10.5453 15.6083 9.40379 16.4006 8.53331C16.5177 8.40463 16.6295 8.28186 16.7369 8.16846C16.7884 8.11417 16.8389 8.06203 16.8885 8.01241L16.9008 8.00011ZM12.4419 7.73561V6.93909H12.6819V7.73561H12.4419ZM13.1619 6.93909V7.73561H12.9219V6.93909H13.1619ZM13.6419 6.93909V7.73561H13.4019V6.93909H13.6419ZM12.6819 8.2643V9.06082H12.4419V8.2643H12.6819ZM12.9219 9.06082V8.2643H13.1619V9.06082H12.9219ZM13.4019 9.06082V8.2643H13.6419V9.06082H13.4019ZM13.8888 7.73561V6.93909H14.1288V7.73561H13.8888ZM14.6088 6.93909V7.73561H14.3688V6.93909H14.6088ZM15.0888 6.93909V7.73561H14.8488V6.93909H15.0888ZM14.1288 8.2643V9.06082H13.8888V8.2643H14.1288ZM14.3688 9.06082V8.2643H14.6088V9.06082H14.3688ZM14.8488 9.06082V8.2643H15.0888V9.06082H14.8488Z" fill="white"/>
<path fill-rule="evenodd" clip-rule="evenodd" d="M13.4019 9.06082V8.2643H13.6419V9.06082H13.4019ZM14.1288 8.2643V9.06082H13.8888V8.2643H14.1288ZM14.3688 9.06082V8.2643H14.6088V9.06082H14.3688ZM14.8488 9.06082V8.2643H15.0888V9.06082H14.8488Z" fill="black"/>
<path d="M17.0036 7.38411C17.0215 7.36619 17.0395 7.33056 17.0411 7.30527C17.0403 7.27936 17.0216 7.23928 17.0036 7.22063H16.9426C16.9644 7.24249 16.9781 7.27265 16.9791 7.30354L16.9792 7.30527C16.9772 7.33544 16.9643 7.36311 16.9426 7.38411H17.0036Z" fill="#FFD900"/>
<path fill-rule="evenodd" clip-rule="evenodd" d="M17.0774 7.38411H17.0411C17.062 7.3632 17.0747 7.33475 17.0766 7.30524L17.0765 7.30357C17.0756 7.27335 17.0621 7.24239 17.0411 7.22063H17.0773C17.0773 7.22063 17.1295 7.26862 17.1284 7.30527C17.1272 7.34192 17.0774 7.38411 17.0774 7.38411Z" fill="#FFD900"/>
<path d="M17.6708 6.78934C17.6924 6.78866 17.7129 6.77998 17.7285 6.76498C17.7409 6.753 17.7494 6.73768 17.753 6.72103C17.7539 6.7171 17.7545 6.71309 17.7548 6.70904C17.7546 6.70515 17.7542 6.70129 17.7535 6.69749C17.7504 6.68008 17.742 6.66391 17.7294 6.65126C17.7138 6.63565 17.6928 6.62657 17.6707 6.62584L15.5978 6.62585C15.6544 6.68023 15.7098 6.7348 15.7641 6.78933L17.6708 6.78934Z" fill="#FFD900"/>
<path d="M17.7526 6.62585C17.7745 6.6477 17.7886 6.67787 17.7896 6.70876L17.7896 6.71049C17.7876 6.74066 17.7744 6.769 17.7526 6.79L17.7711 6.78937C17.7921 6.788 17.812 6.77901 17.8269 6.76408C17.8417 6.74934 17.8506 6.7298 17.8522 6.70904C17.8513 6.68775 17.8426 6.66752 17.8278 6.65218C17.8128 6.63664 17.8251 6.62728 17.8035 6.62585H17.7526Z" fill="#FFD900"/>
<path d="M17.869 6.78934C17.8906 6.78866 17.9112 6.77998 17.9267 6.76498C17.9421 6.75018 17.9514 6.73027 17.953 6.70904C17.9521 6.68729 17.9431 6.66667 17.9276 6.65126C17.912 6.63565 17.8911 6.62657 17.869 6.62584L17.8515 6.62585C17.8725 6.6476 17.886 6.67856 17.887 6.70879L17.887 6.71046C17.8851 6.73996 17.8724 6.76842 17.8515 6.78933L17.869 6.78934Z" fill="#FFD900"/>
<path d="M18.0574 6.78933C18.1088 6.78933 18.1478 6.75139 18.1478 6.70759C18.1478 6.66379 18.1088 6.62585 18.0574 6.62585H17.953C17.9749 6.64771 17.9868 6.67787 17.9878 6.70876L17.9879 6.71049C17.9859 6.74066 17.9748 6.76833 17.953 6.78933H18.0574Z" fill="#FFD900"/>
<path d="M18.6139 6.98655L19.4068 6.7092L18.6174 6.42865L18.0574 6.62585C18.1088 6.62585 18.1478 6.66379 18.1478 6.70759C18.1478 6.75139 18.1088 6.78933 18.0574 6.78933L18.6139 6.98655Z" fill="white"/>
<path fill-rule="evenodd" clip-rule="evenodd" d="M18.7537 8.28323C18.6231 8.43984 18.5279 8.62253 18.4742 8.81885C18.5212 8.78437 18.5695 8.75177 18.6191 8.72113L18.6578 8.69716L18.64 8.73912C18.5972 8.83986 18.616 8.95647 18.6532 9.08112C18.6663 9.12499 18.6815 9.1692 18.6968 9.21374L18.7158 9.26975C18.7348 9.32619 18.7524 9.38283 18.7644 9.43837L18.7666 9.43709C18.8646 9.38058 18.9138 9.35221 18.9498 9.27516L18.9659 9.24051L18.9768 9.27717C18.9876 9.31345 19.0163 9.35909 19.057 9.4098C19.0975 9.46016 19.1488 9.51423 19.2031 9.56729C19.3045 9.66636 19.4158 9.76109 19.4856 9.82046C19.5467 9.69669 19.6225 9.58067 19.7112 9.47487L19.7312 9.45109L19.7366 9.48165C19.7394 9.49739 19.7454 9.51238 19.7543 9.52568C19.759 9.53276 19.7645 9.53927 19.7706 9.54512C19.7734 9.53502 19.7773 9.52413 19.7817 9.51302C19.7903 9.49132 19.8014 9.46686 19.8124 9.44267C19.8235 9.41839 19.8345 9.39412 19.8431 9.37258C19.8518 9.35064 19.8574 9.33272 19.8586 9.32042L19.8614 9.29278L19.8825 9.31086C19.8874 9.31511 19.8948 9.32095 19.9039 9.32811C19.9227 9.343 19.9487 9.36359 19.975 9.38731C19.9744 9.3453 19.9808 9.30473 19.9868 9.26645L19.9888 9.25335C19.9972 9.19916 20.0031 9.14995 19.9896 9.10266L19.9818 9.07554L20.0084 9.08503C20.0221 9.08993 20.0314 9.09894 20.0388 9.10856C20.0432 9.1143 20.0477 9.1214 20.0519 9.12811L20.0583 9.1381C20.067 9.1511 20.0774 9.16412 20.095 9.17434C20.0898 9.15504 20.0862 9.13331 20.0839 9.1105C20.08 9.0737 20.079 9.03288 20.0792 8.99281C20.0794 8.96006 20.0803 8.92753 20.0812 8.89792L20.0817 8.87853C20.0827 8.84374 20.0832 8.81479 20.0818 8.79536L20.1094 8.78829C20.1155 8.80162 20.1203 8.81347 20.1244 8.82381L20.1283 8.83359C20.1335 8.84623 20.1381 8.85637 20.1445 8.866C20.1546 8.88116 20.17 8.89631 20.2014 8.91641C20.1976 8.89828 20.1924 8.87784 20.1864 8.85599L20.1745 8.81357C20.1683 8.79139 20.1618 8.7687 20.1561 8.7469C20.1467 8.71073 20.1388 8.67539 20.1363 8.64585C20.1351 8.63107 20.1352 8.61711 20.1373 8.6049C20.1395 8.59275 20.144 8.58113 20.1527 8.57248L20.1619 8.56321L20.1721 8.57152C20.1886 8.58502 20.2034 8.60329 20.2167 8.61969L20.2187 8.62214L20.2318 8.63789C20.2229 8.56791 20.202 8.4999 20.1699 8.43689C20.132 8.3626 20.0793 8.29683 20.0151 8.24364C19.9729 8.21537 19.9323 8.19044 19.8933 8.16846C19.6358 8.02305 19.4509 8.00659 19.3411 8.00628C19.3252 8.00624 19.3108 8.00654 19.2978 8.00684L19.2927 8.00697C19.2818 8.00723 19.2719 8.00747 19.2632 8.00746C19.2532 8.00744 19.2441 8.0071 19.2363 8.00592C19.2288 8.00478 19.2208 8.00262 19.2144 7.99771C19.2072 7.99218 19.2036 7.9844 19.2031 7.97564C19.2027 7.9677 19.2047 7.95914 19.2079 7.9504C19.2115 7.94051 19.2172 7.92858 19.2249 7.9143C19.0907 7.97953 18.9678 8.06535 18.8605 8.16846C18.8229 8.20464 18.7872 8.24294 18.7537 8.28323ZM18.9832 8.90447C19.0615 8.76534 19.0615 8.70737 19.0035 8.68998C18.9602 8.67816 18.9409 8.72788 18.9112 8.80459C18.8972 8.84081 18.8809 8.88304 18.8586 8.92766C18.8402 8.96434 18.8183 8.99274 18.7939 9.02435C18.7644 9.06268 18.7312 9.10574 18.6962 9.17404C18.8673 9.07259 18.9049 9.0436 18.9832 8.90447ZM19.2238 9.22621C19.2238 9.11896 19.1977 9.08418 19.1397 9.08708C19.1001 9.09104 19.1079 9.12612 19.1204 9.18308C19.1263 9.20949 19.1332 9.2406 19.1368 9.27549C19.1381 9.30227 19.1338 9.32513 19.129 9.35023C19.1229 9.38217 19.1162 9.41775 19.1194 9.46969C19.2064 9.36534 19.2238 9.33636 19.2238 9.22621ZM19.4962 9.30447C19.476 9.15085 19.4412 9.10157 19.389 9.11607C19.3515 9.12594 19.3651 9.17482 19.3867 9.25263C19.3969 9.28904 19.4087 9.33179 19.418 9.37983C19.4258 9.41892 19.426 9.45215 19.4262 9.48874C19.4265 9.53355 19.4268 9.58339 19.4412 9.6552V9.6581C19.5049 9.49868 19.5136 9.4552 19.4962 9.30447ZM19.5252 8.6581C19.4296 8.59723 19.4093 8.55665 19.4383 8.52186C19.4586 8.49751 19.4874 8.52432 19.5327 8.56647C19.5521 8.58451 19.5745 8.60536 19.6006 8.62621C19.6229 8.6433 19.6447 8.65383 19.6691 8.66564C19.6985 8.67988 19.7317 8.69598 19.7745 8.72766C19.647 8.72476 19.6209 8.71896 19.5252 8.6581ZM19.5078 9.00592C19.4528 8.91027 19.4586 8.86679 19.5078 8.8436C19.5456 8.8297 19.5575 8.86481 19.5761 8.92001C19.5847 8.94535 19.5947 8.97492 19.6093 9.00592C19.6199 9.03107 19.6353 9.04897 19.6528 9.06927C19.6736 9.09343 19.6974 9.12099 19.7194 9.16824H19.7165C19.5948 9.11607 19.5658 9.09867 19.5078 9.00592Z" fill="#333333"/>
<path fill-rule="evenodd" clip-rule="evenodd" d="M18.7939 9.02435C18.7644 9.06268 18.7312 9.10574 18.6962 9.17404C18.8673 9.07259 18.9049 9.0436 18.9832 8.90447C19.0615 8.76534 19.0615 8.70737 19.0035 8.68998C18.9602 8.67816 18.9409 8.72788 18.9112 8.80459C18.8972 8.84081 18.8809 8.88304 18.8586 8.92766C18.8402 8.96434 18.8183 8.99274 18.7939 9.02435ZM19.129 9.35023C19.1229 9.38217 19.1162 9.41775 19.1194 9.46969C19.2064 9.36534 19.2238 9.33636 19.2238 9.22621C19.2238 9.11896 19.1977 9.08418 19.1397 9.08708C19.1001 9.09104 19.1079 9.12612 19.1204 9.18308C19.1263 9.20949 19.1332 9.2406 19.1368 9.27549C19.1381 9.30227 19.1338 9.32513 19.129 9.35023ZM19.4262 9.48874C19.4265 9.53355 19.4268 9.58339 19.4412 9.6552V9.6581C19.5049 9.49868 19.5136 9.4552 19.4962 9.30447C19.476 9.15085 19.4412 9.10157 19.389 9.11607C19.3515 9.12594 19.3651 9.17482 19.3867 9.25263C19.3969 9.28904 19.4087 9.33179 19.418 9.37983C19.4258 9.41892 19.426 9.45215 19.4262 9.48874ZM19.6528 9.06927C19.6736 9.09343 19.6974 9.12099 19.7194 9.16824H19.7165C19.5948 9.11607 19.5658 9.09867 19.5078 9.00592C19.4528 8.91027 19.4586 8.86679 19.5078 8.8436C19.5456 8.8297 19.5575 8.86481 19.5761 8.92001C19.5847 8.94535 19.5947 8.97492 19.6093 9.00592C19.6199 9.03107 19.6353 9.04897 19.6528 9.06927Z" fill="#B3B3B3"/>
<path d="M19.4383 8.52186C19.4093 8.55665 19.4296 8.59723 19.5252 8.6581C19.6209 8.71896 19.647 8.72476 19.7745 8.72766C19.7317 8.69598 19.6985 8.67988 19.6691 8.66564C19.6447 8.65383 19.6229 8.6433 19.6006 8.62621C19.5745 8.60536 19.5521 8.58451 19.5327 8.56647C19.4874 8.52432 19.4586 8.49751 19.4383 8.52186Z" fill="#B3B3B3"/>
<path d="M20.4661 7.99976C20.4661 7.90702 20.3926 7.83107 20.3009 7.83107H16.7363C16.788 7.88561 16.8387 7.93798 16.8885 7.98782L16.9008 8.00011L16.8885 8.01241C16.8389 8.06203 16.7884 8.11417 16.7369 8.16846H18.8605C18.9678 8.06535 19.0907 7.97953 19.2249 7.9143C19.2172 7.92858 19.2115 7.94051 19.2079 7.9504C19.2047 7.95914 19.2027 7.9677 19.2031 7.97564C19.2036 7.9844 19.2072 7.99218 19.2144 7.99771C19.2208 8.00262 19.2288 8.00478 19.2363 8.00592C19.2441 8.0071 19.2532 8.00744 19.2632 8.00746C19.2719 8.00747 19.2818 8.00723 19.2927 8.00697L19.2978 8.00684C19.3108 8.00654 19.3252 8.00624 19.3411 8.00628C19.4509 8.00659 19.6358 8.02305 19.8933 8.16846H20.3009C20.3926 8.16846 20.4661 8.0925 20.4661 7.99976Z" fill="#FFD900"/>
<path fill-rule="evenodd" clip-rule="evenodd" d="M11.9081 5.00011C10.7435 5.00011 9.74565 5.49947 8.91575 6.12207C8.71476 6.27286 8.48426 6.46575 8.30278 6.62585C8.24172 6.68023 8.18178 6.73479 8.12297 6.78933C7.98863 6.91489 7.84594 7.05342 7.71267 7.18585L7.67774 7.22063L7.51559 7.38411L7.48154 7.41889C7.40236 7.49997 7.32575 7.57922 7.25228 7.65521C7.19365 7.71586 7.13685 7.77462 7.08187 7.83107L7.04453 7.86933C7.00458 7.9102 6.95335 7.96205 6.91538 8.00013C6.95324 8.03799 7.00435 8.08959 7.04416 8.1302L7.08158 8.16846C7.13908 8.22736 7.19854 8.28878 7.25998 8.35223C7.70793 8.81485 8.26058 9.3856 8.91684 9.87815C9.74637 10.5008 10.7435 11.0001 11.9081 11.0001C12.2744 11.0001 12.6155 10.9622 12.9339 10.8942L12.9313 10.8593C12.8637 10.5541 12.4118 10.3821 12.0774 10.2549C11.8676 10.1751 11.7041 10.1128 11.7107 10.0464C11.73 9.94724 11.9539 9.90626 12.1696 9.86677C12.3766 9.82889 12.576 9.79238 12.5803 9.70724C12.5859 9.62455 12.4085 9.55676 12.2265 9.48718C12.032 9.41285 11.8321 9.33647 11.8441 9.23767C11.8517 9.14813 11.93 9.09415 12.0163 9.03463C12.1255 8.95928 12.2476 8.87505 12.2557 8.69854C12.2607 8.38202 12.416 8.25412 12.5472 8.16846C12.6443 8.10508 12.7281 8.06482 12.7281 7.98839C12.7232 7.8443 12.6216 7.94097 12.4875 7.83107C12.4624 7.81053 12.4362 7.78279 12.4093 7.74492C12.3561 7.67207 12.3398 7.55046 12.3365 7.41889C12.3345 7.34204 12.337 7.26178 12.339 7.18585C12.3436 7.01006 12.346 6.85749 12.2865 6.82411C12.1248 6.81659 12.1137 6.68408 12.0628 6.59107C12.0352 6.54066 11.9886 6.49987 11.8847 6.49274C11.735 6.48195 11.7282 6.44325 11.7144 6.36486C11.7023 6.29592 11.6848 6.1963 11.56 6.05796V6.05506C11.2543 5.6867 11.8009 5.10455 11.9081 5.00011ZM8.79661 7.73561V6.93909H9.03661V7.73561H8.79661ZM9.51661 6.93909V7.73561H9.27661V6.93909H9.51661ZM9.75661 7.73561V6.93909H9.91745C9.87202 6.87341 9.83529 6.80171 9.80846 6.72573L9.79945 6.7002L9.7832 6.72186C9.75939 6.75362 9.74536 6.7707 9.73171 6.78733L9.72816 6.79166C9.71734 6.80485 9.70632 6.81844 9.69061 6.83924C9.67395 6.73526 9.66641 6.68252 9.67083 6.63367C9.67547 6.5822 9.69341 6.53484 9.73092 6.43577L9.73589 6.42264L9.75231 6.37924L9.71411 6.40558C9.66912 6.4366 9.62542 6.46943 9.58312 6.504C9.62792 6.31104 9.71222 6.1293 9.83089 5.97031C9.94905 5.81199 10.0985 5.6799 10.2699 5.58218C10.264 5.59679 10.2603 5.60936 10.2592 5.62012C10.2581 5.63032 10.2591 5.64011 10.2637 5.6487C10.2684 5.65746 10.2758 5.66327 10.2843 5.66707C10.3002 5.67416 10.3228 5.67551 10.3483 5.67566C10.3603 5.67572 10.3736 5.6755 10.388 5.67526L10.3921 5.67519C10.4081 5.67493 10.4256 5.67467 10.4444 5.67476C10.5938 5.67548 10.8336 5.69808 11.1271 5.91819C11.2637 6.0647 11.3536 6.24833 11.3857 6.44571C11.2735 6.40823 11.1654 6.35962 11.0629 6.30061L11.0412 6.2881V6.31317H11.0557L11.046 6.32398L11.0481 6.32618L11.0561 6.33494C11.0631 6.34267 11.0732 6.35409 11.0852 6.36876C11.1094 6.39809 11.1416 6.44034 11.1738 6.49186C11.2346 6.58914 11.2946 6.71824 11.3014 6.85547C11.2774 6.84202 11.2565 6.8326 11.2389 6.82467L11.224 6.81791L11.2143 6.81325C11.1888 6.8005 11.1712 6.78726 11.1556 6.75596L11.1281 6.76244C11.1281 6.80833 11.1467 6.84759 11.1656 6.88746L11.173 6.90298C11.1782 6.91429 11.1834 6.92593 11.1883 6.93812L11.3236 6.93909H11.4436V7.73561H11.2036V7.03408C11.156 6.99858 11.106 6.9665 11.0539 6.93812L11.0094 6.91389L11.0344 6.95799C11.0536 6.99205 11.0551 7.03527 11.0464 7.08485C11.0382 7.1314 11.0216 7.1812 11.0049 7.23098L11.0017 7.24045C10.9843 7.29263 10.9672 7.34497 10.9628 7.39049C10.9599 7.42125 10.9503 7.44817 10.9636 7.47271V7.73561H10.7236L10.7243 7.37844C10.6357 7.32463 10.5592 7.25319 10.4994 7.16857L10.4915 7.15739L10.4836 7.16234V7.73561H10.2436V7.12065C10.2203 7.09634 10.199 7.07195 10.1825 7.04908C10.1695 7.03094 10.1598 7.0143 10.1543 6.99982C10.1487 6.98515 10.1481 6.97445 10.1506 6.96703L10.1255 6.95339C10.0912 6.99626 10.0691 7.04739 10.0613 7.10139C10.0387 7.08129 10.0171 7.0601 9.99661 7.03793V7.73561H9.75661ZM9.03661 8.2643V9.06082H8.79661V8.2643H9.03661ZM9.27661 9.06082V8.2643H9.51661V9.06082H9.27661ZM9.99661 8.2643V9.06082H9.75661V8.2643H9.99661ZM10.4836 8.2643V9.06082H10.2436V8.2643H10.4836ZM10.7236 9.06082V8.2643H10.9636V9.06082H10.7236ZM11.2036 9.06082V8.2643H11.4436V9.06082H11.2036Z" fill="black"/>
<path d="M12.6819 9.06082V8.2643H12.4419V9.06082H12.6819Z" fill="black"/>
<path d="M12.9219 8.2643V9.06082H13.1619V8.2643H12.9219Z" fill="black"/>
<path fill-rule="evenodd" clip-rule="evenodd" d="M22 1H2C1.44772 1 1 1.44772 1 2V14C1 14.5523 1.44772 15 2 15H22C22.5523 15 23 14.5523 23 14V2C23 1.44771 22.5523 1 22 1ZM2 0C0.89543 0 0 0.89543 0 2V14C0 15.1046 0.89543 16 2 16H22C23.1046 16 24 15.1046 24 14V2C24 0.89543 23.1046 0 22 0H2Z" fill="black" fill-opacity="0.08"/>
</g>
</g>
</svg>
