<svg width="24" height="16" viewBox="0 0 24 16" fill="none" xmlns="http://www.w3.org/2000/svg">
<g id="flags / flag-iran">
<g id="flag">
<path d="M0 11H24V14C24 15.1046 23.1046 16 22 16H2C0.89543 16 0 15.1046 0 14V11Z" fill="#DA0000"/>
<path d="M24 5H0V11H24V5Z" fill="white"/>
<path d="M2 0H22C23.1046 0 24 0.89543 24 2V5H0V2C0 0.89543 0.89543 0 2 0Z" fill="#239F40"/>
<path d="M14.5 7.87744C14.5 7.04944 13.38 6.37744 12 6.37744C12.828 6.37744 13.5 6.88244 13.5 7.50244C13.5 8.00087 13.0671 8.42392 12.4681 8.57151C12.4887 8.39375 12.5 8.20115 12.5 8C12.5 7.10389 12.2761 6.37744 12 6.37744C11.7239 6.37744 11.5 7.10389 11.5 8C11.5 8.20111 11.5113 8.39368 11.5319 8.57141C10.9329 8.4236 10.5 8.00006 10.5 7.50244C10.5 6.88144 11.172 6.37744 12 6.37744C10.62 6.37744 9.5 7.04944 9.5 7.87744C9.5 8.65101 10.4776 9.28841 11.7314 9.36887C11.809 9.52949 11.9012 9.62256 12 9.62256C12.0988 9.62256 12.191 9.52949 12.2686 9.36887C13.5224 9.28841 14.5 8.65101 14.5 7.87744Z" fill="#DA0505"/>
<path d="M1.5 3.87439C1.5 3.76394 1.58954 3.67439 1.7 3.67439H2.3C2.41046 3.67439 2.5 3.76394 2.5 3.87439V4.47439C2.5 4.58485 2.41046 4.67439 2.3 4.67439H1.7C1.58954 4.67439 1.5 4.58485 1.5 4.47439V3.87439Z" fill="white" fill-opacity="0.5"/>
<path d="M3.5 3.87439C3.5 3.76394 3.58954 3.67439 3.7 3.67439H4.3C4.41046 3.67439 4.5 3.76394 4.5 3.87439V4.47439C4.5 4.58485 4.41046 4.67439 4.3 4.67439H3.7C3.58954 4.67439 3.5 4.58485 3.5 4.47439V3.87439Z" fill="white" fill-opacity="0.5"/>
<path d="M5.5 3.87439C5.5 3.76394 5.58954 3.67439 5.7 3.67439H6.3C6.41046 3.67439 6.5 3.76394 6.5 3.87439V4.47439C6.5 4.58485 6.41046 4.67439 6.3 4.67439H5.7C5.58954 4.67439 5.5 4.58485 5.5 4.47439V3.87439Z" fill="white" fill-opacity="0.5"/>
<path d="M7.5 3.87439C7.5 3.76394 7.58954 3.67439 7.7 3.67439H8.3C8.41046 3.67439 8.5 3.76394 8.5 3.87439V4.47439C8.5 4.58485 8.41046 4.67439 8.3 4.67439H7.7C7.58954 4.67439 7.5 4.58485 7.5 4.47439V3.87439Z" fill="white" fill-opacity="0.5"/>
<path d="M9.5 3.87439C9.5 3.76394 9.58954 3.67439 9.7 3.67439H10.3C10.4105 3.67439 10.5 3.76394 10.5 3.87439V4.47439C10.5 4.58485 10.4105 4.67439 10.3 4.67439H9.7C9.58954 4.67439 9.5 4.58485 9.5 4.47439V3.87439Z" fill="white" fill-opacity="0.5"/>
<path d="M11.5 3.87439C11.5 3.76394 11.5895 3.67439 11.7 3.67439H12.3C12.4105 3.67439 12.5 3.76394 12.5 3.87439V4.47439C12.5 4.58485 12.4105 4.67439 12.3 4.67439H11.7C11.5895 4.67439 11.5 4.58485 11.5 4.47439V3.87439Z" fill="white" fill-opacity="0.5"/>
<path d="M13.5 3.87439C13.5 3.76394 13.5895 3.67439 13.7 3.67439H14.3C14.4105 3.67439 14.5 3.76394 14.5 3.87439V4.47439C14.5 4.58485 14.4105 4.67439 14.3 4.67439H13.7C13.5895 4.67439 13.5 4.58485 13.5 4.47439V3.87439Z" fill="white" fill-opacity="0.5"/>
<path d="M15.5 3.87439C15.5 3.76394 15.5895 3.67439 15.7 3.67439H16.3C16.4105 3.67439 16.5 3.76394 16.5 3.87439V4.47439C16.5 4.58485 16.4105 4.67439 16.3 4.67439H15.7C15.5895 4.67439 15.5 4.58485 15.5 4.47439V3.87439Z" fill="white" fill-opacity="0.5"/>
<path d="M17.5 3.87439C17.5 3.76394 17.5895 3.67439 17.7 3.67439H18.3C18.4105 3.67439 18.5 3.76394 18.5 3.87439V4.47439C18.5 4.58485 18.4105 4.67439 18.3 4.67439H17.7C17.5895 4.67439 17.5 4.58485 17.5 4.47439V3.87439Z" fill="white" fill-opacity="0.5"/>
<path d="M19.5 3.87439C19.5 3.76394 19.5895 3.67439 19.7 3.67439H20.3C20.4105 3.67439 20.5 3.76394 20.5 3.87439V4.47439C20.5 4.58485 20.4105 4.67439 20.3 4.67439H19.7C19.5895 4.67439 19.5 4.58485 19.5 4.47439V3.87439Z" fill="white" fill-opacity="0.5"/>
<path d="M21.5 3.87439C21.5 3.76394 21.5895 3.67439 21.7 3.67439H22.3C22.4105 3.67439 22.5 3.76394 22.5 3.87439V4.47439C22.5 4.58485 22.4105 4.67439 22.3 4.67439H21.7C21.5895 4.67439 21.5 4.58485 21.5 4.47439V3.87439Z" fill="white" fill-opacity="0.5"/>
<path d="M1.5 11.5302C1.5 11.4198 1.58954 11.3302 1.7 11.3302H2.3C2.41046 11.3302 2.5 11.4198 2.5 11.5302V12.1302C2.5 12.2407 2.41046 12.3302 2.3 12.3302H1.7C1.58954 12.3302 1.5 12.2407 1.5 12.1302V11.5302Z" fill="white" fill-opacity="0.5"/>
<path d="M3.5 11.5302C3.5 11.4198 3.58954 11.3302 3.7 11.3302H4.3C4.41046 11.3302 4.5 11.4198 4.5 11.5302V12.1302C4.5 12.2407 4.41046 12.3302 4.3 12.3302H3.7C3.58954 12.3302 3.5 12.2407 3.5 12.1302V11.5302Z" fill="white" fill-opacity="0.5"/>
<path d="M5.5 11.5302C5.5 11.4198 5.58954 11.3302 5.7 11.3302H6.3C6.41046 11.3302 6.5 11.4198 6.5 11.5302V12.1302C6.5 12.2407 6.41046 12.3302 6.3 12.3302H5.7C5.58954 12.3302 5.5 12.2407 5.5 12.1302V11.5302Z" fill="white" fill-opacity="0.5"/>
<path d="M7.5 11.5302C7.5 11.4198 7.58954 11.3302 7.7 11.3302H8.3C8.41046 11.3302 8.5 11.4198 8.5 11.5302V12.1302C8.5 12.2407 8.41046 12.3302 8.3 12.3302H7.7C7.58954 12.3302 7.5 12.2407 7.5 12.1302V11.5302Z" fill="white" fill-opacity="0.5"/>
<path d="M9.5 11.5302C9.5 11.4198 9.58954 11.3302 9.7 11.3302H10.3C10.4105 11.3302 10.5 11.4198 10.5 11.5302V12.1302C10.5 12.2407 10.4105 12.3302 10.3 12.3302H9.7C9.58954 12.3302 9.5 12.2407 9.5 12.1302V11.5302Z" fill="white" fill-opacity="0.5"/>
<path d="M11.5 11.5302C11.5 11.4198 11.5895 11.3302 11.7 11.3302H12.3C12.4105 11.3302 12.5 11.4198 12.5 11.5302V12.1302C12.5 12.2407 12.4105 12.3302 12.3 12.3302H11.7C11.5895 12.3302 11.5 12.2407 11.5 12.1302V11.5302Z" fill="white" fill-opacity="0.5"/>
<path d="M13.5 11.5302C13.5 11.4198 13.5895 11.3302 13.7 11.3302H14.3C14.4105 11.3302 14.5 11.4198 14.5 11.5302V12.1302C14.5 12.2407 14.4105 12.3302 14.3 12.3302H13.7C13.5895 12.3302 13.5 12.2407 13.5 12.1302V11.5302Z" fill="white" fill-opacity="0.5"/>
<path d="M15.5 11.5302C15.5 11.4198 15.5895 11.3302 15.7 11.3302H16.3C16.4105 11.3302 16.5 11.4198 16.5 11.5302V12.1302C16.5 12.2407 16.4105 12.3302 16.3 12.3302H15.7C15.5895 12.3302 15.5 12.2407 15.5 12.1302V11.5302Z" fill="white" fill-opacity="0.5"/>
<path d="M17.5 11.5302C17.5 11.4198 17.5895 11.3302 17.7 11.3302H18.3C18.4105 11.3302 18.5 11.4198 18.5 11.5302V12.1302C18.5 12.2407 18.4105 12.3302 18.3 12.3302H17.7C17.5895 12.3302 17.5 12.2407 17.5 12.1302V11.5302Z" fill="white" fill-opacity="0.5"/>
<path d="M19.5 11.5302C19.5 11.4198 19.5895 11.3302 19.7 11.3302H20.3C20.4105 11.3302 20.5 11.4198 20.5 11.5302V12.1302C20.5 12.2407 20.4105 12.3302 20.3 12.3302H19.7C19.5895 12.3302 19.5 12.2407 19.5 12.1302V11.5302Z" fill="white" fill-opacity="0.5"/>
<path d="M21.5 11.5302C21.5 11.4198 21.5895 11.3302 21.7 11.3302H22.3C22.4105 11.3302 22.5 11.4198 22.5 11.5302V12.1302C22.5 12.2407 22.4105 12.3302 22.3 12.3302H21.7C21.5895 12.3302 21.5 12.2407 21.5 12.1302V11.5302Z" fill="white" fill-opacity="0.5"/>
<path fill-rule="evenodd" clip-rule="evenodd" d="M22 1H2C1.44772 1 1 1.44772 1 2V14C1 14.5523 1.44772 15 2 15H22C22.5523 15 23 14.5523 23 14V2C23 1.44771 22.5523 1 22 1ZM2 0C0.89543 0 0 0.89543 0 2V14C0 15.1046 0.89543 16 2 16H22C23.1046 16 24 15.1046 24 14V2C24 0.89543 23.1046 0 22 0H2Z" fill="black" fill-opacity="0.08"/>
</g>
</g>
</svg>
