<svg width="24" height="16" viewBox="0 0 24 16" fill="none" xmlns="http://www.w3.org/2000/svg">
<g id="flags / flag-senegal">
<g id="flag">
<path d="M16 0H22C23.1046 0 24 0.89543 24 2V14C24 15.1046 23.1046 16 22 16H16V0Z" fill="#E31B23"/>
<path d="M16 0H8V16H16V0Z" fill="#FDEF42"/>
<path d="M2 0H8V16H2C0.89543 16 0 15.1046 0 14V2C0 0.89543 0.89543 0 2 0Z" fill="#00853F"/>
<path fill-rule="evenodd" clip-rule="evenodd" d="M22 1H2C1.44772 1 1 1.44772 1 2V14C1 14.5523 1.44772 15 2 15H22C22.5523 15 23 14.5523 23 14V2C23 1.44771 22.5523 1 22 1ZM2 0C0.89543 0 0 0.89543 0 2V14C0 15.1046 0.89543 16 2 16H22C23.1046 16 24 15.1046 24 14V2C24 0.89543 23.1046 0 22 0H2Z" fill="black" fill-opacity="0.08"/>
<path fill-rule="evenodd" clip-rule="evenodd" d="M11.878 9.25L10.408 10.023L10.688 8.386L9.5 7.226L11.143 6.989L11.878 5.5L12.613 6.99L14.256 7.227L13.066 8.387L13.346 10.023" fill="#00853F"/>
</g>
</g>
</svg>
