<svg width="24" height="16" viewBox="0 0 24 16" fill="none" xmlns="http://www.w3.org/2000/svg">
<g id="flags / flag-solomon islands">
<g id="flag">
<path d="M2.00016 0C0.895596 0 0.000169139 0.895426 0.000169139 1.99999L0 12.9999L24.0001 1.99999C24.0001 0.895426 23.1046 0 22.0001 0H2.00016Z" fill="#0051BA"/>
<path d="M0 13.9999C0 15.1045 0.895426 15.9999 1.99999 15.9999H21.9999C23.1045 15.9999 23.9999 15.1045 23.9999 13.9999L24.0001 1.99999L23.9997 3.99995L0.214312 14.9016C0.0772367 14.6307 5.01946e-06 14.3243 0 13.9999Z" fill="#215B33"/>
<path d="M0.214312 14.9016L23.9997 3.99995L24.0001 1.99999L0 12.9999V13.9999C5.01946e-06 14.3243 0.0772367 14.6307 0.214312 14.9016Z" fill="#FCD116"/>
<path fill-rule="evenodd" clip-rule="evenodd" d="M3.05172 3.6582L2.40172 4.00001L2.52586 3.27587L1.99999 2.76422L2.72672 2.65862L3.05172 1.99999L3.37673 2.65819L4.10346 2.76379L3.57759 3.27673L3.70173 4.00001" fill="white"/>
<path fill-rule="evenodd" clip-rule="evenodd" d="M7.25856 3.6582L6.60856 4.00001L6.7327 3.27587L6.20683 2.76422L6.93356 2.65862L7.25856 1.99999L7.58357 2.65819L8.3103 2.76379L7.78443 3.27673L7.90857 4.00001" fill="white"/>
<path fill-rule="evenodd" clip-rule="evenodd" d="M3.05172 7.65815L2.40172 7.99996L2.52586 7.27581L1.99999 6.76417L2.72672 6.65857L3.05172 5.99994L3.37673 6.65813L4.10346 6.76374L3.57759 7.27668L3.70173 7.99996" fill="white"/>
<path fill-rule="evenodd" clip-rule="evenodd" d="M7.25856 7.65815L6.60856 7.99996L6.7327 7.27581L6.20683 6.76417L6.93356 6.65857L7.25856 5.99994L7.58357 6.65813L8.3103 6.76374L7.78443 7.27668L7.90857 7.99996" fill="white"/>
<path fill-rule="evenodd" clip-rule="evenodd" d="M5.15514 5.65817L4.50514 5.99998L4.62928 5.27584L4.10341 4.7642L4.83014 4.65859L5.15514 3.99996L5.48015 4.65816L6.20688 4.76377L5.68101 5.2767L5.80515 5.99998" fill="white"/>
<path fill-rule="evenodd" clip-rule="evenodd" d="M21.9999 0.999995H1.99999C1.44771 0.999995 0.999995 1.44771 0.999995 1.99999V13.9999C0.999995 14.5522 1.44771 14.9999 1.99999 14.9999H21.9999C22.5522 14.9999 22.9999 14.5522 22.9999 13.9999V1.99999C22.9999 1.44771 22.5522 0.999995 21.9999 0.999995ZM2.00016 0C0.895596 0 0.000169139 0.895426 0.000169139 1.99999L0 13.9999C0 15.1045 0.895426 15.9999 1.99999 15.9999H21.9999C23.1045 15.9999 23.9999 15.1045 23.9999 13.9999L24.0001 1.99999C24.0001 0.895426 23.1046 0 22.0001 0H2.00016Z" fill="black" fill-opacity="0.08"/>
</g>
</g>
</svg>
