<svg width="24" height="17" viewBox="0 0 24 17" fill="none" xmlns="http://www.w3.org/2000/svg">
<g id="flags / flag-saint kitts and nevis">
<g id="flag">
<path d="M22.2361 0.0137916L21.0001 0L0.00234333 13L0.00687127 14.167C0.0910408 15.1853 0.938125 15.9872 1.97519 15.9998H3L24 3.00006V2.98812L23.9903 1.80159C23.8983 0.868035 23.1645 0.122982 22.2361 0.0137916Z" fill="black"/>
<path d="M24 4L5 16L22.1325 15.9957C23.1744 15.9275 23.9986 15.0616 24 14.0028V4Z" fill="#C8102E"/>
<path fill-rule="evenodd" clip-rule="evenodd" d="M0 12L19 0L1.86622 0.00440321C0.824028 0.0732317 0 0.940385 0 2V12Z" fill="#009739"/>
<path fill-rule="evenodd" clip-rule="evenodd" d="M15.3963 6.95387L14.8645 7.86532L14.4644 6.88839L13.434 6.66534L14.2391 5.9833L14.1337 4.93327L15.0309 5.48784L15.9968 5.06317L15.7466 6.08862L16.4486 6.87545" fill="white"/>
<path fill-rule="evenodd" clip-rule="evenodd" d="M8.43486 11.3856L7.90307 12.297L7.50295 11.3201L6.47257 11.0971L7.27772 10.415L7.17225 9.36499L8.06945 9.91956L9.03542 9.49489L8.78519 10.5203L9.48719 11.3072" fill="white"/>
<path d="M19 0.0386791H21.0002L0.00244141 13.0387L0 12.0387L19 0.0386791Z" fill="#FFCD00"/>
<path d="M3.0001 16.0385L24 3.0388V4.03868L5 16.0387L3.0001 16.0385Z" fill="#FFCD00"/>
<path fill-rule="evenodd" clip-rule="evenodd" d="M22 1H2C1.44772 1 1 1.44772 1 2V14C1 14.5523 1.44772 15 2 15H22C22.5523 15 23 14.5523 23 14V2C23 1.44771 22.5523 1 22 1ZM2 0C0.895431 0 0 0.895431 0 2V14C0 15.1046 0.89543 16 2 16H22C23.1046 16 24 15.1046 24 14V2C24 0.895431 23.1046 0 22 0H2Z" fill="black" fill-opacity="0.08"/>
</g>
</g>
</svg>
