<svg width="24" height="16" viewBox="0 0 24 16" fill="none" xmlns="http://www.w3.org/2000/svg">
<g id="flags / flag-south georgia and the south sandwich islands">
<g id="flag">
<path d="M22 0H2C0.89543 0 4.99999e-08 0.89543 4.99999e-08 2V14C4.99999e-08 15.1046 0.89543 16 2 16H22C23.1046 16 24 15.1046 24 14V2C24 0.89543 23.1046 0 22 0Z" fill="#000089"/>
<path d="M5 0V2.13149L1.81538 0.00840766C1.04206 0.0791862 0.396074 0.590195 0.130201 1.28865L2.69722 3H2.563e-06L0 5H2.69722L2.563e-06 6.79815V8H1.80278L5 5.86852V8H7V5.86852L10.1972 8H12V6.79815L9.30277 5H12V3H9.30277L12 1.20185V0H10.1972L7 2.13149V0H5Z" fill="white"/>
<path d="M5.5 0V3.5H0V4.5H5.5V8H6.5V4.5H12V3.5H6.5V0H5.5Z" fill="#F44336"/>
<path d="M11.5493 0L7.04932 3H7.9507L12 0.300469V0H11.5493Z" fill="#F44336"/>
<path d="M2.563e-06 8L0.450704 8L4.9507 5H4.04932L0 7.69954L2.563e-06 8Z" fill="#F44336"/>
<path d="M0.524331 0.650019L4.0493 3H4.95069L0.92268 0.31466C0.775637 0.40885 0.641733 0.521757 0.524331 0.650019Z" fill="#F44336"/>
<path d="M7.95069 5L12 7.69954V8L11.5493 8L7.0493 5H7.95069Z" fill="#F44336"/>
<path d="M20.4282 4.17421C20.468 4.42717 20.4266 4.48593 20.4083 4.59199C20.39 4.69876 21.1279 4.73746 21.3181 4.5275C21.2982 4.62209 21.077 5.00618 20.0724 5.00188C20.4529 5.31934 19.9514 5.5723 19.7365 5.4949C20.1313 5.22976 19.625 5.07068 19.3416 5.24194C19.395 5.09647 19.789 4.36339 20.4282 4.17421Z" fill="#F7FCFF"/>
<path d="M18.75 5.21596C18.7529 5.21596 18.9695 5.22162 19.09 5.29835C19.1356 5.32738 19.1674 5.36657 19.1687 5.41947C19.1706 5.51038 19.1427 5.54742 19.1122 5.56118C19.0829 5.57441 19.0481 5.5654 19.0382 5.56279L18.7388 5.51003L18.75 5.21596Z" fill="#0000FF"/>
<path d="M18.0642 5.14073L18.3603 5.16223C18.3789 5.16497 18.5382 5.19262 18.5307 5.33421C18.5263 5.41564 18.4726 5.45386 18.4244 5.47178C18.384 5.48682 18.3476 5.48756 18.3476 5.48756L18.0594 5.47323L18.0642 5.14073Z" fill="#0000FF"/>
<path d="M18.0642 5.14073L17.7597 5.16223L17.758 5.16246C17.7398 5.16513 17.5819 5.19239 17.5894 5.33421C17.5937 5.4154 17.6471 5.45363 17.6952 5.47162C17.7357 5.48681 17.7725 5.48756 17.7725 5.48756L18.0594 5.47323L18.0642 5.14073Z" fill="#F7FCFF"/>
<path d="M18.9685 5.82431C19.1293 5.72256 19.1572 5.67813 19.1572 5.6552C19.1415 5.59214 19.092 5.6107 19.0583 5.62332L19.0516 5.6258C19.019 5.63726 18.0852 6.21914 18.0852 6.21914L17.0918 5.66665C17.0918 5.66665 17.0203 5.64213 17.0068 5.68298C17.0043 5.69292 17.0031 5.70167 17.0035 5.70853C17.0078 5.72322 17.0198 5.74283 17.029 5.75325C17.0349 5.75994 17.0403 5.76606 17.0433 5.77199L18.0685 6.36175L18.94 5.84136C18.9494 5.83325 18.9589 5.82747 18.9685 5.82431Z" fill="#B4B6B9"/>
<path d="M17.4431 5.51284L17.7725 5.48756C17.7725 5.48756 17.7357 5.48681 17.6952 5.47162C17.6471 5.45363 17.5937 5.4154 17.5894 5.33421C17.5819 5.19239 17.7398 5.16513 17.758 5.16246C17.7111 5.16291 17.4942 5.16837 17.3702 5.23001C17.3484 5.24089 17.3294 5.25354 17.3147 5.26821C17.2912 5.2918 17.2789 5.32064 17.2839 5.35591C17.2965 5.44142 17.3285 5.48216 17.3605 5.50093C17.3676 5.50509 17.3747 5.50817 17.3816 5.51042C17.3965 5.51527 17.4103 5.51626 17.4212 5.51588C17.4345 5.5154 17.4431 5.51284 17.4431 5.51284Z" fill="#0000FF"/>
<path d="M17.0815 5.56279L17.4212 5.51588C17.4103 5.51626 17.3965 5.51527 17.3816 5.51042C17.3747 5.50817 17.3676 5.50509 17.3605 5.50093C17.3285 5.48216 17.2965 5.44142 17.2839 5.35591C17.2789 5.32064 17.2912 5.2918 17.3147 5.26821C17.3294 5.25354 17.3484 5.24089 17.3702 5.23001C17.3679 5.23001 17.1741 5.23942 17.0548 5.28415C16.9753 5.31397 16.9534 5.34236 16.9518 5.41947C16.9489 5.55887 17.0159 5.5716 17.0548 5.56797C17.0659 5.56693 17.0773 5.56392 17.0815 5.56279Z" fill="white"/>
<path d="M18.3476 5.48756L18.7388 5.51003L18.75 5.21596C18.6273 5.15462 18.4099 5.16276 18.3603 5.16223C18.3789 5.16497 18.5382 5.19262 18.5307 5.33421C18.5263 5.41564 18.4726 5.45386 18.4244 5.47178C18.384 5.48682 18.3476 5.48756 18.3476 5.48756Z" fill="#F7FCFF"/>
<path d="M18.1024 4.78883C18.1024 4.78883 18.0049 4.68299 17.8749 4.65916C17.8006 4.64554 17.7157 4.65874 17.6324 4.7339C17.6114 4.75286 17.5905 4.77576 17.5699 4.80316C17.5361 4.718 17.3878 4.71049 17.3141 4.70687C17.3037 4.70636 17.3223 4.70751 17.3141 4.70687C17.2969 4.70553 17.2867 4.70149 17.2846 4.6966C17.2743 4.67296 17.0548 5.28415 17.0548 5.28415C17.1741 5.23942 17.3679 5.23001 17.3702 5.23001C17.4942 5.16837 17.7111 5.16291 17.758 5.16246L17.7597 5.16223L18.0642 5.14073L18.3603 5.16223C18.4099 5.16276 18.6273 5.15462 18.75 5.21596C18.7529 5.21596 18.9695 5.22162 19.09 5.29835C19.1101 5.31116 19.1275 5.32594 19.1408 5.34301L18.8682 4.74583L18.8544 4.74661L18.6227 4.75964L18.399 4.57731L18.3444 4.53085L18.1753 4.71117L18.1024 4.78883Z" fill="#656263"/>
<path d="M19.0382 5.56279L18.7388 5.51003L18.3476 5.48756L18.0594 5.47323L17.7725 5.48756L17.4431 5.51284C17.4431 5.51284 17.4345 5.5154 17.4212 5.51588L17.0815 5.56279C17.0773 5.56392 17.0659 5.56693 17.0548 5.56797C17.0379 5.60096 17.0152 5.64891 17.0068 5.68298C17.0203 5.64213 17.0918 5.66665 17.0918 5.66665L18.0852 6.21914C18.0852 6.21914 19.019 5.63726 19.0516 5.6258L19.0583 5.62332C19.092 5.6107 19.1415 5.59214 19.1572 5.6552C19.1572 5.63922 19.1299 5.59087 19.1122 5.56118C19.0829 5.57441 19.0481 5.5654 19.0382 5.56279Z" fill="#656263"/>
<path d="M17.4904 3.11779C17.4904 3.11779 17.7834 3.19877 17.8654 2.98522C17.7254 2.89489 17.5941 2.95294 17.5427 2.98315C17.5308 2.99013 17.5224 2.99628 17.5199 2.99812C17.5206 2.99992 17.5211 2.99961 17.5199 2.99812C17.5168 2.98968 17.4916 2.94879 17.4182 2.92007C17.3985 2.91235 17.3753 2.90546 17.3483 2.90024C17.3228 2.89532 17.2924 2.89168 17.2597 2.89042C17.2209 2.88894 17.1873 2.8913 17.1585 2.89621C17.1281 2.9014 17.1028 2.90943 17.0819 2.91881C17.0573 2.92985 17.0388 2.94276 17.025 2.95505C16.9975 2.9796 16.9889 3.0017 16.9889 3.0017C16.9889 3.0017 16.9569 2.98524 16.907 2.9752C16.8363 2.96101 16.73 2.95969 16.6283 3.0361C16.8178 3.25538 16.9786 3.15219 16.9786 3.15219C16.9786 3.15219 16.9786 3.18659 16.9937 3.21668C16.9993 3.22887 17.1139 3.29623 17.1887 3.44385C17.3002 3.66456 17.3854 3.99348 17.3877 4.00136C17.3925 4.01426 17.383 4.2278 17.383 4.37829C17.383 4.52877 17.2763 4.58825 17.2763 4.58825L17.2846 4.6966C17.2867 4.70149 17.2969 4.70553 17.3141 4.70687C17.3806 4.69214 17.5421 4.65347 17.5541 4.62337C17.5684 4.58467 17.5199 4.45138 17.5103 4.40409C17.5056 4.38259 17.5056 4.23139 17.5541 4.15113C17.6114 4.05582 17.7197 4.03146 17.7197 4.03146C17.7197 4.03146 17.7077 4.19269 17.7077 4.34246C17.7077 4.49223 17.6098 4.66995 17.6122 4.73444L17.6324 4.7339C17.7157 4.65874 17.8006 4.64554 17.8749 4.65916C17.8796 4.65063 17.8792 4.64268 17.8709 4.63627C17.8319 4.60617 17.8582 4.12676 17.9147 4.04005C18.0182 4.05869 18.1893 4.03074 18.2825 4.06944C18.3565 4.10025 18.3645 4.19269 18.3732 4.24572C18.3923 4.36611 18.1678 4.53307 18.1535 4.57607C18.1423 4.60752 18.1636 4.67742 18.1753 4.71117L18.3444 4.53085L18.399 4.57731C18.4005 4.52569 18.4313 4.39549 18.4313 4.39549C18.4313 4.39549 18.495 4.15113 18.5826 4.15113C18.6701 4.15113 18.7816 4.28871 18.772 4.36611C18.7625 4.4435 18.6227 4.75964 18.6227 4.75964L18.8544 4.74661C18.8544 4.74661 18.862 4.66421 18.9432 4.65705C18.8914 4.54956 19.0347 4.26435 19.0013 4.10527C18.9917 4.0551 18.8747 4.01927 18.8325 3.97126C18.7672 3.89674 19.0013 3.87237 19.0013 3.87237C19.0013 3.87237 19.0108 3.7269 18.8301 3.54632C18.6502 3.36645 18.1137 3.48827 17.851 3.44385C17.6687 3.41231 17.4952 3.29264 17.4713 3.27616C17.5 3.22528 17.4904 3.11779 17.4904 3.11779Z" fill="#923F00"/>
<path d="M17.5615 2.95374C17.5655 2.93439 18.1171 2.76384 18.1537 2.48221C18.1605 2.4312 18.1646 2.3956 18.1667 2.37151C18.2063 2.33376 18.2865 2.24626 18.2437 2.19343C18.188 2.12463 18.2063 2.28157 18.1163 2.2787C18.0272 2.27512 18.0765 2.10815 18.0765 2.10815C18.0765 2.10815 18.0686 2.0888 18.0423 2.07877C18.0049 2.08164 17.9197 2.00998 17.9197 2.00998C17.9197 2.00998 17.864 1.94405 17.8146 2.15115C17.8409 2.37043 18.0017 2.32815 18.0017 2.47218C18.0017 2.61622 17.86 2.72801 17.8186 2.73087C17.778 2.73446 17.7924 2.60905 17.7924 2.60905C17.7924 2.60905 17.7701 2.55101 17.7557 2.55101C17.7406 2.55101 17.8377 2.53739 17.8226 2.37401C17.7892 2.17694 17.7629 2.41987 17.7032 2.40984C17.6435 2.39981 17.6881 2.22926 17.7112 2.20919C17.7327 2.18984 17.6841 2.10815 17.5543 2.31811C17.5432 2.41987 17.5281 2.2916 17.5018 2.29805C17.4572 2.38046 17.4644 2.43922 17.5281 2.51446C17.6212 2.5897 17.6809 2.66495 17.6769 2.70508C17.6737 2.74377 17.6244 2.83263 17.5575 2.83263C17.4907 2.83263 17.5615 2.72443 17.5575 2.6886C17.5543 2.65277 17.4421 2.52091 17.4421 2.52091C17.4421 2.52091 17.3714 2.41848 17.3713 2.40626C17.3592 2.42085 17.1994 2.57169 17.3044 2.65205C17.2184 2.64273 17.2113 2.67211 17.2113 2.67211C17.2113 2.71153 17.3267 2.72801 17.3418 2.7968C17.3569 2.8656 17.2597 2.89042 17.2597 2.89042C17.2924 2.89168 17.3228 2.89532 17.3483 2.90024C17.3729 2.88752 17.4016 2.86825 17.4349 2.8398C17.4351 2.8675 17.4293 2.89473 17.4182 2.92007C17.4916 2.94879 17.5168 2.98968 17.5199 2.99812C17.5224 2.99628 17.5308 2.99013 17.5427 2.98315C17.553 2.9705 17.5606 2.95954 17.5615 2.95374Z" fill="#CDAD56"/>
<path d="M16.3882 2.60547C16.5498 2.9695 16.8881 2.92866 16.8921 2.94657C16.8927 2.95159 16.8987 2.96233 16.907 2.9752C16.9569 2.98524 16.9889 3.0017 16.9889 3.0017C16.9889 3.0017 16.9975 2.9796 17.025 2.95505C17.0078 2.92547 16.9989 2.89227 16.9995 2.85843C17.0319 2.88842 17.0592 2.90734 17.0819 2.91881C17.1028 2.90943 17.1281 2.9014 17.1585 2.89621C17.1535 2.88913 17.1495 2.88153 17.1465 2.87354C17.1399 2.85624 17.1384 2.83772 17.142 2.81973C17.1547 2.75667 17.1898 2.74234 17.1898 2.70651C17.1898 2.70651 17.1826 2.68 17.1102 2.6886C17.2049 2.6112 17.1603 2.48293 17.1603 2.48293C17.1603 2.48293 17.1229 2.65563 17.0911 2.55172C17.0592 2.4471 17.0473 2.48436 17.0154 2.48436C16.9963 2.5073 17.0115 2.55602 16.9932 2.58254C16.9932 2.58254 16.8976 2.6886 16.8944 2.72156C16.8921 2.75452 16.9295 2.81687 16.873 2.81687C16.8156 2.81687 16.7965 2.77244 16.7941 2.73661C16.7902 2.70078 16.826 2.62553 16.9056 2.55746C16.9597 2.48795 17.0138 2.38834 16.9756 2.31381C16.9541 2.30808 16.896 2.48078 16.8873 2.38762C16.8578 2.18698 16.7838 2.27727 16.7798 2.29877C16.7655 2.32026 16.822 2.45928 16.7711 2.46788C16.7209 2.4772 16.658 2.32815 16.6294 2.46788C16.6179 2.59448 16.7049 2.59871 16.7244 2.59698C16.7254 2.59645 16.7263 2.59615 16.7273 2.59615C16.7293 2.59615 16.7279 2.59667 16.7244 2.59698C16.7118 2.60377 16.6954 2.6499 16.6954 2.6499C16.6954 2.6499 16.7082 2.76312 16.6732 2.76026C16.6381 2.75739 16.5187 2.65563 16.5187 2.52449C16.5187 2.39336 16.7066 2.43277 16.7289 2.23212C16.6875 2.04437 16.6883 2.13323 16.662 2.1361C16.6437 2.15975 16.5848 2.27153 16.5561 2.26509C16.5283 2.25935 16.5155 2.16978 16.4837 2.16691C16.4614 2.17551 16.455 2.19343 16.455 2.19343C16.455 2.19343 16.4956 2.34534 16.42 2.34893C16.3595 2.34821 16.3786 2.20489 16.3309 2.26795C16.2831 2.3303 16.3945 2.44997 16.3945 2.44997L16.3882 2.53381C16.3882 2.53381 16.2847 2.43205 16.3882 2.60547Z" fill="#CDAD56"/>
<path fill-rule="evenodd" clip-rule="evenodd" d="M16.7683 6.4837C16.5971 6.57399 16.4267 6.3989 16.4267 6.3989C16.4267 6.3989 15.7294 6.12387 15.7398 5.52766C16.2355 5.62697 16.4394 5.94602 16.4421 5.94464C16.4421 5.94464 16.4373 5.93503 16.4267 5.9139C16.3839 5.8284 16.4211 5.52297 16.4594 5.28415C16.4843 5.13153 16.5084 5.0124 16.5084 5.0124C16.5084 5.0124 16.968 5.2446 16.8168 5.95618C17.3533 5.86661 17.2021 6.41122 17.0508 6.38543C16.9378 6.23494 16.8025 6.32461 16.7683 6.4837Z" fill="#0000FF"/>
<path d="M16.4594 5.28415C16.4843 5.13153 16.5084 5.0124 16.5084 5.0124C16.377 4.4384 15.6471 4.20434 15.6471 4.20434C15.6471 4.20434 15.2928 4.37561 15.5555 4.58987C15.3414 4.4487 15.1352 4.71528 14.8479 4.58987C14.5605 4.46447 15.0302 5.12087 15.893 5.13807C15.6296 5.42972 16.0443 5.65545 16.2154 5.60816C15.9903 5.26984 16.4463 5.27968 16.4594 5.28415Z" fill="white"/>
<path d="M17.3955 6.27935C17.3955 6.27935 16.9975 6.58259 16.7683 6.4837C16.5971 6.57399 16.4267 6.3989 16.4267 6.3989C16.4267 6.3989 16.6486 7.16669 17.4876 6.61777C17.4857 6.60929 17.4837 6.60062 17.4817 6.59177C17.4599 6.49863 17.4307 6.38632 17.3955 6.27935Z" fill="#F7FCFF"/>
<path d="M19.4789 6.57037C19.2258 6.57442 18.8288 6.2057 18.7845 6.16377C18.751 6.27006 18.7214 6.38587 18.6979 6.48722C19.0147 6.83047 19.1326 6.78821 19.2687 6.82691C19.322 6.78821 19.5067 6.65421 19.4789 6.57037Z" fill="#F7FCFF"/>
<path d="M20.2823 6.37471C20.3913 6.37471 20.4804 6.45797 20.5059 6.53106C20.5115 6.56331 20.4956 6.58624 20.5011 6.64571C20.5061 6.69872 19.8738 6.66806 19.7327 6.65721C19.7155 6.65589 19.7056 6.65486 19.7051 6.65431C19.7051 6.65431 19.7313 6.63163 19.7737 6.59913C19.8894 6.51041 20.1261 6.34849 20.2823 6.37471Z" fill="#FF7000"/>
<path d="M17.4984 8.69611L17.1671 8.37932L16.8425 8.74126L17.1822 9.07363L17.4984 8.69611Z" fill="#1E5AA6"/>
<path d="M17.3481 8.17753L17.1325 7.68464L16.809 8.03684L17.1671 8.37932L17.3481 8.17753Z" fill="#1E5AA6"/>
<path d="M16.9971 7.373H16.8258L17.1325 7.68464L16.9971 7.373Z" fill="#1E5AA6"/>
<path d="M17.5336 9.43027L17.7702 9.14165L17.3481 8.17753L17.1671 8.37932L17.4984 8.69611L17.1822 9.07363L17.5336 9.43027Z" fill="#F7FCFF"/>
<path d="M16.7322 7.37451L16.7426 7.57534L16.7761 8.2246L16.7917 8.527L16.7978 8.64396L16.8062 8.80727L16.8182 9.03846C16.8459 9.15253 16.8842 9.26406 16.9328 9.37141L17.1822 9.07363L16.8425 8.74126L17.1671 8.37932L16.809 8.03684L17.1325 7.68464L16.8258 7.373L16.7322 7.37451Z" fill="#F7FCFF"/>
<path d="M18.784 8.69181L19.0911 8.38395L18.9012 8.16494L18.5864 9.00028L18.538 9.12891L18.7951 9.40698L19.1211 9.08208L18.784 8.69181Z" fill="#F7FCFF"/>
<path d="M19.1071 7.65106L19.4144 7.36852L19.1954 7.36853L19.1071 7.65106Z" fill="#1E5AA6"/>
<path d="M19.4431 7.99368L19.1071 7.65106L18.9012 8.16494L19.0911 8.38395L19.4431 7.99368Z" fill="#1E5AA6"/>
<path d="M19.0911 8.38395L18.784 8.69181L19.1211 9.08208L19.4431 8.72891L19.0911 8.38395Z" fill="#1E5AA6"/>
<path d="M19.5063 9.08415V7.36851L19.4144 7.36852L19.1071 7.65106L19.4431 7.99368L19.0911 8.38395L19.4431 8.72891L19.1211 9.08208L19.4052 9.3832C19.4062 9.38083 19.4073 9.37846 19.4083 9.37609C19.4492 9.28345 19.4822 9.18605 19.5063 9.08415Z" fill="#F7FCFF"/>
<path d="M18.5864 9.00028C18.5764 8.92201 18.5388 8.89659 18.5388 8.89659C18.5043 8.86928 18.4889 8.95686 18.4831 9.27557L18.538 9.12891L18.5864 9.00028Z" fill="#FFD100"/>
<path d="M14.5768 11.0396L14.6564 10.9607L14.6803 10.9787L14.6763 10.9858L14.6683 10.9966V11.0037L14.6763 11.0109L14.7798 11.0933L14.7877 11.1005H14.7957L14.7997 11.0933C14.8103 11.0838 14.8169 11.0742 14.8196 11.0647C14.8249 11.0551 14.8262 11.0455 14.8236 11.036C14.8236 11.024 14.8183 11.0121 14.8076 11.0002L14.8395 10.9858L14.8873 11.0575L14.7599 11.1865L14.736 11.1686L14.744 11.1578L14.7479 11.1506V11.1435L14.74 11.1363L14.6365 11.0539L14.6246 11.0467H14.6206L14.6086 11.0539L14.6007 11.0611L14.5768 11.0396ZM14.7519 10.864L14.8992 10.735L14.9708 10.7673L14.9589 10.7923L14.9191 10.7852L14.8952 10.7923C14.8873 10.7947 14.8793 10.8007 14.8713 10.8103L14.8435 10.8318L14.8833 10.8712L14.8952 10.864C14.9032 10.8592 14.9072 10.8545 14.9072 10.8497V10.8425L14.8992 10.8318L14.8912 10.8246L14.9151 10.8031L14.9868 10.8712L14.9629 10.8891L14.9549 10.8855L14.943 10.8748H14.935L14.9191 10.8855L14.9111 10.8927L14.9589 10.9357H14.9629L14.9708 10.9285L14.9868 10.9178L15.0106 10.8891C15.0159 10.8795 15.0173 10.8676 15.0146 10.8533C15.0146 10.8437 15.0106 10.833 15.0027 10.821L15.0345 10.8067L15.0743 10.8891L14.9231 11.0217L14.8992 11.0002H14.9072L14.9151 10.9858V10.9787L14.9072 10.9679L14.8116 10.8819L14.7997 10.8748H14.7917L14.7838 10.8783L14.7758 10.8855L14.7519 10.864ZM15.0584 10.5989C15.0902 10.575 15.1221 10.5642 15.1539 10.5666C15.1884 10.569 15.2176 10.5833 15.2415 10.6096C15.2574 10.6263 15.268 10.6443 15.2733 10.6634C15.2786 10.6849 15.2773 10.704 15.2693 10.7207C15.2614 10.7398 15.2468 10.7577 15.2256 10.7744C15.199 10.7959 15.1698 10.8067 15.138 10.8067C15.1009 10.8067 15.069 10.7923 15.0425 10.7637C15.0159 10.7398 15.0053 10.7123 15.0106 10.6813C15.0133 10.6502 15.0292 10.6228 15.0584 10.5989ZM15.0863 10.6239C15.073 10.6359 15.0664 10.6502 15.0664 10.6669C15.0664 10.6861 15.0756 10.7052 15.0942 10.7243C15.1128 10.7434 15.1327 10.7553 15.1539 10.7601C15.1698 10.7601 15.1844 10.7553 15.1977 10.7458C15.2136 10.7362 15.2216 10.7243 15.2216 10.7099C15.2216 10.6884 15.211 10.6681 15.1897 10.649C15.1791 10.6371 15.1659 10.6275 15.1499 10.6204C15.1393 10.6156 15.1274 10.6132 15.1141 10.6132C15.1035 10.6132 15.0942 10.6168 15.0863 10.6239ZM15.329 10.4018L15.3489 10.3911L15.3529 10.3946L15.4683 10.323V10.3158L15.4843 10.3051L15.5599 10.3516L15.54 10.3767L15.5121 10.366C15.5015 10.3612 15.4909 10.36 15.4803 10.3624L15.4644 10.366L15.4604 10.3696V10.3767L15.544 10.4842L15.5519 10.495H15.5639L15.5838 10.4842L15.5997 10.5093L15.5042 10.5738L15.4843 10.5487L15.5002 10.5344V10.5272L15.4962 10.5165L15.4126 10.409L15.4047 10.4018L15.4007 10.4054C15.3954 10.4078 15.3914 10.4126 15.3887 10.4197C15.3834 10.4269 15.3808 10.4352 15.3808 10.4448L15.3848 10.4735L15.3529 10.4806L15.329 10.4018ZM15.5519 10.2764L15.7271 10.1761L15.7947 10.2227L15.7708 10.2477L15.739 10.2334H15.7111C15.7032 10.2334 15.6939 10.237 15.6833 10.2442L15.6514 10.2621L15.6833 10.3086L15.6912 10.3015L15.7072 10.2943V10.2836L15.7032 10.2692L15.6992 10.2621L15.7271 10.2477L15.7788 10.3301L15.7509 10.3445L15.747 10.3337L15.735 10.323H15.7271L15.7111 10.3301L15.6992 10.3337L15.731 10.3803L15.735 10.3875H15.739L15.7509 10.3839L15.7987 10.3516L15.8106 10.3194V10.2836L15.8425 10.2764L15.8624 10.3624L15.6793 10.4627L15.6634 10.4376L15.6793 10.4233C15.6793 10.4233 15.6819 10.4209 15.6793 10.4161V10.4054L15.6076 10.3015L15.5957 10.2907H15.5917L15.5798 10.2943L15.5718 10.2979L15.5519 10.2764ZM15.7987 10.1402L15.938 10.0758L15.9659 10.065C15.9765 10.0602 15.9884 10.059 16.0017 10.0614C16.0123 10.0614 16.0216 10.0638 16.0295 10.0686L16.0494 10.0901C16.0601 10.1068 16.0614 10.1223 16.0534 10.1367C16.0481 10.151 16.0375 10.1629 16.0216 10.1725L16.0932 10.2012H16.0972L16.1091 10.2047H16.1211L16.129 10.2012L16.141 10.1976L16.1529 10.2227L16.0853 10.2585L15.9659 10.2047L15.946 10.2119L15.9698 10.2513L15.9778 10.2656H15.9977L16.0057 10.2585L16.0216 10.2871L15.9141 10.3373L15.8982 10.3086L15.9101 10.3051L15.9181 10.2979L15.9221 10.2907L15.9181 10.28L15.8544 10.1689L15.8465 10.1617C15.8465 10.1617 15.8438 10.1594 15.8385 10.1617H15.8266L15.8186 10.1653L15.8027 10.1402H15.7987ZM15.9022 10.1331L15.93 10.1832L15.9619 10.1689C15.9751 10.1641 15.9844 10.1582 15.9897 10.151L15.9977 10.1367V10.1187L15.9818 10.108H15.9659L15.938 10.1152L15.9022 10.1331ZM16.0773 10.0113L16.2206 9.95393L16.2484 9.94676H16.2843C16.2949 9.94676 16.3042 9.94915 16.3121 9.95393L16.332 9.97901C16.34 9.99334 16.34 10.0077 16.332 10.022C16.3241 10.0363 16.3121 10.0483 16.2962 10.0578L16.3678 10.0901L16.3838 10.0937H16.4037L16.4116 10.0865L16.4275 10.1152L16.3559 10.1438L16.2365 10.0865L16.2206 10.0937L16.2405 10.1331L16.2484 10.1474H16.2644L16.2763 10.1438L16.2882 10.1689L16.1808 10.2155L16.1649 10.1868L16.1768 10.1832L16.1848 10.1761L16.1887 10.1689L16.1848 10.1582L16.129 10.0435C16.129 10.0387 16.1264 10.0351 16.1211 10.0328H16.1012L16.0932 10.0399L16.0813 10.0113H16.0773ZM16.1808 10.0113L16.2047 10.065L16.2405 10.0507L16.2683 10.0363C16.2737 10.0316 16.2763 10.0256 16.2763 10.0184V10.0041L16.2644 9.98976H16.2445L16.2166 9.99692L16.1768 10.0113H16.1808ZM16.4514 9.87152L16.5032 9.8536L16.6385 9.99334L16.6544 10.0041H16.6743L16.6823 10.0328L16.5748 10.0686L16.5629 10.0399L16.5708 10.0363C16.5761 10.0363 16.5801 10.0339 16.5828 10.0292V10.022L16.5748 10.0148L16.5589 9.99692L16.4912 10.0184V10.0543L16.5032 10.0578L16.5191 10.0543L16.531 10.0829L16.4395 10.1116L16.4275 10.0829C16.4329 10.0829 16.4368 10.0805 16.4395 10.0758L16.4435 10.0722V10.0578L16.4514 9.87152ZM16.4912 9.98617L16.535 9.97184L16.4912 9.92168V9.98617ZM16.6425 9.81061L16.7499 9.78195L16.8335 9.90018V9.75686L16.945 9.73178L16.9529 9.76045L16.941 9.76403C16.9357 9.76403 16.9317 9.76642 16.929 9.7712V9.78553L16.9688 9.90735L16.9728 9.91451L16.9808 9.9181H17.0047L17.0126 9.94318L16.8972 9.97543L16.8892 9.94318H16.8972C16.9052 9.94318 16.9091 9.94079 16.9091 9.93601L16.9131 9.93243V9.92168L16.8733 9.78911L16.8693 9.98259L16.8375 9.98976L16.7261 9.83211L16.7659 9.96468L16.7698 9.96826L16.7778 9.97184H16.7897L16.8017 9.96826L16.8096 9.99692L16.7141 10.022L16.7022 9.99334H16.7141L16.7261 9.98617V9.96826L16.6863 9.85002V9.83927L16.6783 9.83569H16.6544L16.6425 9.81061ZM17.136 9.69237L17.2634 9.67087H17.3032C17.3164 9.67087 17.3271 9.67326 17.335 9.67804C17.3456 9.68281 17.3536 9.68879 17.3589 9.69595L17.3708 9.72103C17.3735 9.74014 17.3682 9.75686 17.3549 9.7712C17.3416 9.78792 17.3217 9.79866 17.2952 9.80344L17.2554 9.81061L17.2634 9.85002V9.86077H17.2952L17.2992 9.88943L17.1798 9.91093V9.88227H17.1838L17.1997 9.8751V9.85719L17.1758 9.73895V9.72462L17.1678 9.72103H17.144L17.136 9.69237ZM17.2315 9.71387L17.2475 9.77478H17.2674L17.2952 9.76403L17.3072 9.7497V9.73178C17.3072 9.72223 17.3018 9.71506 17.2912 9.71029C17.2833 9.7079 17.2727 9.7079 17.2594 9.71029L17.2315 9.71387ZM17.3987 9.64937L17.5499 9.63146H17.5818L17.6136 9.63863C17.6242 9.6434 17.6322 9.64937 17.6375 9.65654C17.6455 9.66371 17.6494 9.67207 17.6494 9.68162C17.6521 9.69834 17.6481 9.71267 17.6375 9.72462C17.6242 9.73656 17.6096 9.74611 17.5937 9.75328L17.6494 9.79986L17.6614 9.80702L17.6693 9.81061H17.6932V9.83927L17.6176 9.85002L17.5261 9.76403H17.5062L17.5141 9.80702V9.82136L17.5221 9.82852H17.546V9.85719L17.4266 9.87152V9.83927H17.4345L17.4465 9.83569L17.4544 9.82852V9.81777L17.4345 9.69237V9.68162H17.4027L17.3987 9.64937ZM17.4942 9.67445L17.5022 9.73178H17.542L17.5698 9.72103L17.5858 9.71029V9.69237L17.5818 9.67804L17.5659 9.67087H17.534L17.4942 9.67445ZM17.8445 9.60638C17.8816 9.60399 17.9135 9.61235 17.94 9.63146C17.9665 9.65296 17.9798 9.68043 17.9798 9.71387C17.9798 9.73775 17.9758 9.75806 17.9678 9.77478C17.9572 9.7915 17.944 9.80583 17.928 9.81777C17.9068 9.82733 17.8829 9.8333 17.8564 9.83569C17.8193 9.83569 17.7887 9.82852 17.7649 9.81419C17.7357 9.79269 17.7198 9.76403 17.7171 9.7282C17.7171 9.69476 17.7277 9.66609 17.7489 9.64221C17.7728 9.61832 17.8047 9.60638 17.8445 9.60638ZM17.8445 9.64221C17.8259 9.64221 17.8126 9.64937 17.8047 9.66371C17.7887 9.67804 17.7821 9.69834 17.7848 9.72462C17.7848 9.7485 17.7927 9.76761 17.8086 9.78195C17.8193 9.79389 17.8339 9.79986 17.8524 9.79986C17.871 9.79986 17.8856 9.79269 17.8962 9.77836C17.9095 9.76403 17.9148 9.74373 17.9121 9.71745C17.9121 9.70073 17.9081 9.6864 17.9002 9.67445C17.8949 9.66251 17.8869 9.65415 17.8763 9.64937C17.8657 9.64221 17.8551 9.63982 17.8445 9.64221ZM18.0275 9.6028H18.1629L18.2027 9.60638L18.2305 9.62071L18.2465 9.64221L18.2544 9.67087C18.2544 9.68998 18.2465 9.70551 18.2305 9.71745C18.2146 9.72939 18.1921 9.73537 18.1629 9.73537H18.1231V9.78911L18.139 9.79269H18.1509V9.82494H18.0315V9.79269H18.0514L18.0554 9.78911V9.77478L18.0594 9.65296V9.63863L18.0554 9.63504H18.0315L18.0275 9.6028ZM18.1191 9.63863V9.70312H18.143L18.1708 9.69954L18.1828 9.68879C18.1881 9.68401 18.1907 9.67804 18.1907 9.67087C18.1907 9.65893 18.1868 9.65057 18.1788 9.64579C18.1708 9.64101 18.1602 9.63863 18.147 9.63863H18.1191ZM18.2982 9.6028L18.4494 9.61354L18.4813 9.61713L18.5131 9.63146C18.5211 9.63624 18.5277 9.6434 18.533 9.65296L18.537 9.68162C18.537 9.69834 18.529 9.71028 18.5131 9.71745C18.4999 9.72939 18.4839 9.73656 18.4654 9.73895L18.5131 9.79269V9.79628L18.5211 9.80702H18.529L18.541 9.81061H18.5529V9.84286L18.4733 9.83927L18.3977 9.73895H18.3778V9.79628H18.4017V9.83211L18.2823 9.82136V9.79269H18.3062L18.3141 9.78553V9.77478L18.3221 9.64937V9.63863L18.3101 9.63146H18.2942L18.2982 9.6028ZM18.3858 9.64579L18.3818 9.70312H18.4176C18.4309 9.70551 18.4415 9.70551 18.4494 9.70312C18.4574 9.70312 18.4627 9.70073 18.4654 9.69595C18.4707 9.69117 18.4733 9.6852 18.4733 9.67804V9.66371L18.4574 9.65296L18.4256 9.64937H18.3858V9.64579ZM18.6007 9.62429L18.7201 9.63863V9.67087H18.7081C18.7002 9.66848 18.6949 9.66848 18.6922 9.67087L18.6843 9.6852L18.6683 9.80702V9.82136H18.6723L18.6843 9.82852H18.6962L18.6922 9.86077L18.5728 9.84644L18.5768 9.81419H18.5848C18.5927 9.81658 18.598 9.81658 18.6007 9.81419H18.6047L18.6086 9.80344L18.6246 9.67804V9.66012H18.6086L18.5967 9.65654L18.6007 9.62429ZM18.8594 9.65654L18.9151 9.66729L18.9549 9.84644C18.9549 9.85599 18.9576 9.86196 18.9629 9.86435L18.9788 9.87152L18.9708 9.90018L18.8554 9.88227L18.8634 9.8536H18.8833L18.8873 9.85002V9.81419L18.8076 9.80344L18.7957 9.82494V9.83211C18.7931 9.8345 18.7931 9.83688 18.7957 9.83927H18.7997L18.8156 9.84644L18.8116 9.8751L18.7161 9.86077L18.7201 9.83211H18.736L18.744 9.82852L18.7519 9.81777L18.8594 9.65654ZM18.8276 9.77478L18.8793 9.78195L18.8674 9.71745L18.8276 9.77478ZM19.0624 9.68879L19.1698 9.71387L19.1778 9.85719L19.2574 9.73537L19.3649 9.76045L19.3569 9.78911H19.345C19.3397 9.78433 19.3357 9.78433 19.333 9.78911C19.3277 9.78911 19.3251 9.79269 19.3251 9.79986L19.2892 9.92168V9.93601L19.3131 9.94318L19.3052 9.97543L19.1897 9.94676L19.1977 9.9181H19.2096L19.2216 9.92168H19.2295V9.90735L19.2693 9.77478L19.1619 9.94318L19.13 9.93243L19.1181 9.7497L19.0823 9.87868V9.88585L19.0863 9.89302H19.0982L19.1101 9.8966L19.1022 9.92885L19.0027 9.90735L19.0106 9.8751H19.0226L19.0345 9.87868H19.0385L19.0465 9.86435L19.0783 9.74253V9.7282L19.0544 9.72103L19.0624 9.68879ZM19.5599 9.81419L19.6793 9.8536L19.7191 9.87152L19.739 9.89302L19.747 9.9181L19.743 9.94676C19.735 9.96348 19.7217 9.97542 19.7032 9.98259C19.6819 9.98976 19.6581 9.98976 19.6315 9.98259L19.5917 9.96826L19.5758 10.0041V10.022L19.5877 10.0292H19.5997L19.5877 10.0614L19.4723 10.0256L19.4843 9.99334H19.4922L19.5081 10.0005H19.5121L19.5201 9.98617L19.5679 9.87152V9.8536L19.5559 9.84644H19.5479L19.5599 9.81419ZM19.6276 9.8751L19.6037 9.93601L19.6236 9.94318L19.6514 9.94676L19.6713 9.94318L19.6833 9.92526C19.6859 9.91571 19.6846 9.90735 19.6793 9.90018C19.674 9.89302 19.666 9.88824 19.6554 9.88585L19.6276 9.8751ZM19.8106 9.8966L19.9499 9.95393L19.9778 9.96826C19.9884 9.97304 19.9964 9.9802 20.0017 9.98976L20.0136 10.0148L20.0057 10.0435C19.9977 10.0602 19.9858 10.071 19.9698 10.0758H19.9181L19.938 10.1438L19.946 10.1546L19.9499 10.1617L19.9619 10.1689H19.9698L19.9579 10.2012L19.8863 10.1725L19.8544 10.0543L19.8345 10.0471L19.8146 10.0865V10.108L19.8226 10.1116L19.8345 10.1187L19.8186 10.1438L19.7111 10.1008L19.7231 10.0722L19.747 10.0793H19.7549L19.7589 10.0686L19.8146 9.95393L19.8186 9.94318V9.93601L19.8106 9.93243H19.8027L19.7947 9.92885L19.8106 9.8966ZM19.8783 9.96468L19.8777 9.96588L19.8504 10.0184L19.8863 10.0292C19.8969 10.0363 19.9062 10.0399 19.9141 10.0399L19.934 10.0363C19.9393 10.0339 19.9433 10.0292 19.946 10.022C19.9486 10.0172 19.9486 10.0125 19.946 10.0077L19.942 9.99334L19.9141 9.97901L19.8777 9.96588L19.8743 9.96468H19.8783ZM20.2166 10.0686C20.2511 10.0853 20.2737 10.108 20.2843 10.1367C20.2949 10.1653 20.2909 10.1952 20.2723 10.2262C20.2617 10.2453 20.2471 10.2597 20.2285 10.2692C20.21 10.2812 20.1887 10.2871 20.1649 10.2871C20.1436 10.2871 20.1211 10.2812 20.0972 10.2692C20.0654 10.2549 20.0428 10.2346 20.0295 10.2083C20.0163 10.1773 20.0203 10.1462 20.0415 10.1152C20.0574 10.0841 20.0826 10.0638 20.1171 10.0543C20.1489 10.0471 20.1821 10.0519 20.2166 10.0686ZM20.2007 10.1008C20.1848 10.0913 20.1675 10.0901 20.1489 10.0972C20.1304 10.1044 20.1144 10.1199 20.1012 10.1438C20.0879 10.1653 20.0826 10.1856 20.0853 10.2047C20.0879 10.2191 20.0985 10.231 20.1171 10.2406C20.133 10.2477 20.1489 10.2477 20.1649 10.2406C20.1834 10.2334 20.1994 10.2191 20.2126 10.1976C20.2232 10.1809 20.2285 10.1665 20.2285 10.1546C20.2285 10.1402 20.2259 10.1283 20.2206 10.1187L20.2007 10.1008ZM20.3997 10.1546L20.4196 10.1653V10.1725L20.539 10.2406L20.543 10.237L20.5629 10.2477L20.543 10.3266L20.5111 10.3194V10.2907C20.5111 10.2812 20.5085 10.2728 20.5032 10.2656L20.4912 10.2513H20.4833L20.4793 10.2585L20.4037 10.366L20.3957 10.3803V10.3839L20.3997 10.3875L20.4156 10.3982L20.3997 10.4233L20.2962 10.366L20.3161 10.3409L20.3201 10.3445L20.336 10.3516H20.34L20.3519 10.3373L20.4315 10.2298V10.2191H20.4276C20.4222 10.2143 20.4143 10.2119 20.4037 10.2119L20.3798 10.2155L20.3519 10.2298L20.328 10.2083L20.3997 10.1546ZM20.6226 10.2907L20.7897 10.3982L20.7659 10.4699L20.734 10.4627V10.4269L20.7261 10.4054C20.7208 10.3982 20.7128 10.3922 20.7022 10.3875L20.6743 10.366L20.6345 10.4126L20.6465 10.4197L20.6624 10.4269H20.6743L20.6823 10.4126L20.6902 10.4054L20.7141 10.4233L20.6544 10.4985L20.6305 10.4842L20.6425 10.4627V10.4555L20.6266 10.4412L20.6146 10.4376L20.5828 10.477L20.5788 10.4878L20.5868 10.4985L20.6027 10.5093L20.6425 10.5236C20.6531 10.526 20.6637 10.526 20.6743 10.5236C20.6876 10.5212 20.7008 10.5153 20.7141 10.5057L20.73 10.5308L20.6504 10.581L20.4793 10.4735L20.4992 10.4448L20.5032 10.4484L20.5191 10.4555H20.5271L20.535 10.4448L20.6146 10.3445L20.6226 10.3337V10.3301L20.6106 10.3194L20.6027 10.3158L20.6226 10.2907ZM20.8972 10.606L20.9887 10.6777L20.9688 10.6992L20.9609 10.6956L20.9529 10.6884H20.945L20.933 10.6992L20.8853 10.7529L20.8574 10.7314L20.8614 10.7135L20.8216 10.7064L20.7937 10.6884C20.7751 10.6741 20.7619 10.6586 20.7539 10.6419C20.7486 10.6228 20.7486 10.6036 20.7539 10.5845C20.7539 10.5654 20.7619 10.5463 20.7778 10.5272C20.7937 10.5105 20.8123 10.4985 20.8335 10.4914C20.8547 10.4842 20.876 10.483 20.8972 10.4878C20.9184 10.4902 20.9383 10.4973 20.9569 10.5093L20.9768 10.5308L20.9927 10.5559L21.0047 10.5523L21.0246 10.5666L20.9887 10.6383L20.9569 10.6239V10.5845L20.9529 10.5595L20.937 10.5415L20.9052 10.5308L20.8693 10.538C20.8587 10.5427 20.8468 10.5523 20.8335 10.5666L20.8096 10.6024V10.6419C20.8123 10.6514 20.8189 10.6598 20.8295 10.6669L20.8494 10.6777H20.8693L20.8853 10.6705L20.8892 10.6634L20.8972 10.6526V10.649L20.8773 10.6311L20.8972 10.606ZM21.1639 10.6777L21.2037 10.7135L21.128 10.8855C21.1227 10.8927 21.1214 10.8986 21.1241 10.9034L21.132 10.9142L21.1081 10.9393L21.0285 10.8676L21.0484 10.8425L21.0524 10.8497L21.0644 10.8533H21.0723L21.0803 10.8425L21.0882 10.8246L21.0325 10.778L21.0007 10.7923V10.8031L21.0126 10.8138L20.9887 10.8353L20.9211 10.778L20.945 10.7565L20.9529 10.7637H20.9609L20.9768 10.7601L21.1639 10.6777ZM21.0683 10.7601L21.1042 10.7923L21.132 10.7314L21.0683 10.7601ZM21.343 10.8246L21.339 10.8318L21.4345 10.9213H21.4425L21.4584 10.9321L21.4186 11.0037L21.3868 10.993L21.3947 10.9643V10.9393C21.3947 10.9321 21.3921 10.9261 21.3868 10.9213H21.3788L21.3708 10.9249L21.2594 11.0252V11.0324L21.2713 11.0467L21.2475 11.0682L21.1678 10.9894L21.1917 10.9679V10.9751L21.2077 10.9822H21.2156L21.2276 10.9751L21.331 10.8855L21.335 10.8783V10.8748L21.3151 10.864H21.2873L21.2554 10.8712L21.2435 10.8425L21.3231 10.8067L21.343 10.8246Z" fill="black"/>
<path d="M14.7564 11.5557C14.8997 11.5198 15.6919 11.7134 15.9864 12C15.9315 11.6422 15.8476 11.3469 15.75 11.104C15.7247 11.0975 15.3293 10.9974 15.2437 11.037C15.0607 11.1947 14.8968 11.3682 14.7564 11.5557Z" fill="#C01500"/>
<path d="M15.1506 9.62448C14.7972 9.78356 14.328 9.38554 14.5352 9.21309C14.4835 9.22025 14.4219 9.25191 14.3701 9.33432C14.3254 9.42997 14.2905 9.62991 14.242 9.769C14.2214 9.82792 14.1984 9.87591 14.1711 9.90044C14.0836 9.97926 14 9.98643 14 10.0617C14 10.1333 14.0119 10.3017 14.2507 10.3662C14.3557 10.3709 14.4875 10.3099 14.6034 10.2391C14.7554 10.1462 14.8799 10.0365 14.8799 10.0365C14.9925 9.91212 15.0838 9.77323 15.1506 9.62448Z" fill="#C01500"/>
<path d="M20.055 11.9119C20.0558 11.9133 20.0564 11.9146 20.0569 11.9155C20.3989 11.6607 20.829 11.4598 21.2718 11.4338C21.1192 11.2601 20.9573 11.1039 20.788 10.9643C20.7156 10.9257 20.3548 11.0078 20.292 11.0212C20.1944 11.2625 20.1103 11.556 20.055 11.9119Z" fill="#C01500"/>
<path d="M21.5006 9.14912C21.6888 9.32153 21.2204 9.70326 20.8736 9.54572C20.9069 9.62115 20.9496 9.69592 20.9982 9.76757C21.0453 9.83702 21.0978 9.90353 21.1526 9.96486C21.1526 9.96486 21.5025 10.2265 21.7413 10.2193C21.9801 10.1548 22 10.0545 22 9.98284C22 9.91118 21.9204 9.79295 21.8289 9.71054C21.7601 9.65132 21.7093 9.52536 21.6629 9.40711C21.6476 9.36796 21.6328 9.32966 21.6179 9.29491C21.5702 9.21608 21.5523 9.15629 21.5006 9.14912Z" fill="#C01500"/>
<path fill-rule="evenodd" clip-rule="evenodd" d="M21.5006 9.14912C21.4577 9.10978 21.3806 9.08135 21.26 9.07269C21.1266 9.08523 21.0004 9.12074 20.8817 9.17422C20.6182 9.29294 20.3917 9.50021 20.2051 9.74124C20.1817 9.77147 20.1589 9.80222 20.1368 9.8334C19.8704 9.71815 19.5944 9.62703 19.313 9.5592C19.1637 9.52321 19.0129 9.49378 18.8612 9.47079C18.8246 9.46524 18.788 9.46006 18.7513 9.45526C18.6438 9.44119 18.5359 9.43031 18.428 9.4226C18.4209 9.42209 18.4138 9.4216 18.4067 9.42112C18.3358 9.41633 18.2649 9.4129 18.194 9.41082C18.1321 9.409 18.0702 9.40821 18.0083 9.40843C17.9682 9.40858 17.9281 9.40916 17.8881 9.41017C17.7734 9.41304 17.6474 9.42044 17.5336 9.43027C17.5298 9.4306 17.5375 9.42992 17.5336 9.43027C17.3537 9.44619 17.1752 9.47076 16.9994 9.50374C16.8502 9.53175 16.7029 9.56582 16.5582 9.60584C16.3927 9.6516 16.2307 9.70513 16.073 9.76623C16.0019 9.79382 15.9316 9.82295 15.8624 9.8536C15.8242 9.79817 15.7841 9.74418 15.7421 9.69234C15.489 9.38002 15.1662 9.14542 14.7725 9.14077C14.6705 9.14805 14.5991 9.16959 14.5529 9.20001C14.5465 9.2042 14.5406 9.20857 14.5352 9.21309C14.328 9.38554 14.7972 9.78356 15.1506 9.62448C15.071 9.83229 14.8799 10.0365 14.8799 10.0365C14.8799 10.0365 15.007 10.0855 15.1775 10.2391C15.0884 10.3001 15.002 10.3643 14.9187 10.4317C14.7672 10.5539 14.6258 10.6865 14.496 10.829C14.4119 10.9214 14.3327 11.0179 14.2589 11.1185H14.2628C14.2628 11.1185 14.7444 11.4195 14.7564 11.5557C14.8968 11.3682 15.0607 11.1947 15.2437 11.037C15.3293 10.9974 15.7247 11.0975 15.75 11.104C15.8476 11.3469 15.9315 11.6422 15.9864 12C15.9864 12 16.2372 11.3443 16.3884 11.3371C16.4387 11.3348 16.4141 11.1049 16.3166 10.7946C16.2955 10.7274 16.2709 10.6563 16.243 10.583C16.225 10.5359 16.2056 10.4877 16.1848 10.4391C16.3167 10.3785 16.4528 10.3241 16.5923 10.2761C17.5812 9.93566 18.7377 9.91933 19.7737 10.3527C19.7914 10.3601 19.8089 10.3676 19.8265 10.3752C19.789 10.4569 19.7557 10.5375 19.7266 10.6153C19.5975 10.961 19.5528 11.2506 19.6003 11.3336C19.7427 11.3437 20.0225 11.8521 20.055 11.9119C20.1103 11.556 20.1944 11.2625 20.292 11.0212C20.3389 10.905 20.389 10.8008 20.4405 10.7076C20.5593 10.7859 20.6753 10.8714 20.788 10.9643C20.9573 11.1039 21.1192 11.2601 21.2718 11.4338C21.5225 11.1365 21.7812 11.0397 21.7812 11.0397C21.659 10.8957 21.529 10.7618 21.3923 10.6377C21.2822 10.5377 21.1677 10.444 21.0494 10.3567C21.0046 10.3236 20.9593 10.2914 20.9135 10.2602C20.8834 10.2396 20.853 10.2194 20.8224 10.1996C20.8261 10.1961 20.8297 10.1927 20.8333 10.1893C20.9533 10.0762 21.0545 10.0144 21.1091 9.98563C21.1369 9.97097 21.1526 9.96486 21.1526 9.96486C21.0978 9.90353 21.0453 9.83702 20.9982 9.76757C20.9511 9.70281 20.9038 9.62581 20.8736 9.54572C21.2204 9.70326 21.6888 9.32153 21.5006 9.14912ZM14.6564 10.9607L14.5768 11.0396L14.6007 11.0611L14.6086 11.0539L14.6206 11.0467H14.6246L14.6365 11.0539L14.74 11.1363L14.7479 11.1435V11.1506L14.744 11.1578L14.736 11.1686L14.7599 11.1865L14.8873 11.0575L14.8395 10.9858L14.8076 11.0002C14.8183 11.0121 14.8236 11.024 14.8236 11.036C14.8262 11.0455 14.8249 11.0551 14.8196 11.0647C14.8169 11.0742 14.8103 11.0838 14.7997 11.0933L14.7957 11.1005H14.7877L14.7798 11.0933L14.6763 11.0109L14.6683 11.0037V10.9966L14.6763 10.9858L14.6803 10.9787L14.6564 10.9607ZM14.8992 10.735L14.7519 10.864L14.7758 10.8855L14.7838 10.8783L14.7917 10.8748H14.7997L14.8116 10.8819L14.9072 10.9679L14.9151 10.9787V10.9858L14.9072 11.0002H14.8992L14.9231 11.0217L15.0743 10.8891L15.0345 10.8067L15.0027 10.821C15.0106 10.833 15.0146 10.8437 15.0146 10.8533C15.0173 10.8676 15.0159 10.8795 15.0106 10.8891L14.9868 10.9178L14.9708 10.9285L14.9629 10.9357H14.9589L14.9111 10.8927L14.9191 10.8855L14.935 10.8748H14.943L14.9549 10.8855L14.9629 10.8891L14.9868 10.8712L14.9151 10.8031L14.8912 10.8246L14.8992 10.8318L14.9072 10.8425V10.8497C14.9072 10.8545 14.9032 10.8592 14.8952 10.864L14.8833 10.8712L14.8435 10.8318L14.8713 10.8103C14.8793 10.8007 14.8873 10.7947 14.8952 10.7923L14.9191 10.7852L14.9589 10.7923L14.9708 10.7673L14.8992 10.735ZM15.1539 10.5666C15.1221 10.5642 15.0902 10.575 15.0584 10.5989C15.0292 10.6228 15.0133 10.6502 15.0106 10.6813C15.0053 10.7123 15.0159 10.7398 15.0425 10.7637C15.069 10.7923 15.1009 10.8067 15.138 10.8067C15.1698 10.8067 15.199 10.7959 15.2256 10.7744C15.2468 10.7577 15.2614 10.7398 15.2693 10.7207C15.2773 10.704 15.2786 10.6849 15.2733 10.6634C15.268 10.6443 15.2574 10.6263 15.2415 10.6096C15.2176 10.5833 15.1884 10.569 15.1539 10.5666ZM15.3489 10.3911L15.329 10.4018L15.3529 10.4806L15.3848 10.4735L15.3808 10.4448C15.3808 10.4352 15.3834 10.4269 15.3887 10.4197C15.3914 10.4126 15.3954 10.4078 15.4007 10.4054L15.4047 10.4018L15.4126 10.409L15.4962 10.5165L15.5002 10.5272V10.5344L15.4843 10.5487L15.5042 10.5738L15.5997 10.5093L15.5838 10.4842L15.5639 10.495H15.5519L15.544 10.4842L15.4604 10.3767V10.3696L15.4644 10.366L15.4803 10.3624C15.4909 10.36 15.5015 10.3612 15.5121 10.366L15.54 10.3767L15.5599 10.3516L15.4843 10.3051L15.4683 10.3158V10.323L15.3529 10.3946L15.3489 10.3911ZM15.7271 10.1761L15.5519 10.2764L15.5718 10.2979L15.5798 10.2943L15.5917 10.2907H15.5957L15.6076 10.3015L15.6793 10.4054V10.4161C15.6819 10.4209 15.6793 10.4233 15.6793 10.4233L15.6634 10.4376L15.6793 10.4627L15.8624 10.3624L15.8425 10.2764L15.8106 10.2836V10.3194L15.7987 10.3516L15.7509 10.3839L15.739 10.3875H15.735L15.731 10.3803L15.6992 10.3337L15.7111 10.3301L15.7271 10.323H15.735L15.747 10.3337L15.7509 10.3445L15.7788 10.3301L15.7271 10.2477L15.6992 10.2621L15.7032 10.2692L15.7072 10.2836V10.2943L15.6912 10.3015L15.6833 10.3086L15.6514 10.2621L15.6833 10.2442C15.6939 10.237 15.7032 10.2334 15.7111 10.2334H15.739L15.7708 10.2477L15.7947 10.2227L15.7271 10.1761ZM15.938 10.0758L15.7987 10.1402H15.8027L15.8186 10.1653L15.8266 10.1617H15.8385C15.8438 10.1594 15.8465 10.1617 15.8465 10.1617L15.8544 10.1689L15.9181 10.28L15.9221 10.2907L15.9181 10.2979L15.9101 10.3051L15.8982 10.3086L15.9141 10.3373L16.0216 10.2871L16.0057 10.2585L15.9977 10.2656H15.9778L15.9698 10.2513L15.946 10.2119L15.9659 10.2047L16.0853 10.2585L16.1529 10.2227L16.141 10.1976L16.129 10.2012L16.1211 10.2047H16.1091L16.0972 10.2012H16.0932L16.0216 10.1725C16.0375 10.1629 16.0481 10.151 16.0534 10.1367C16.0614 10.1223 16.0601 10.1068 16.0494 10.0901L16.0295 10.0686C16.0216 10.0638 16.0123 10.0614 16.0017 10.0614C15.9884 10.059 15.9765 10.0602 15.9659 10.065L15.938 10.0758ZM16.2206 9.95393L16.0773 10.0113H16.0813L16.0932 10.0399L16.1012 10.0328H16.1211C16.1264 10.0351 16.129 10.0387 16.129 10.0435L16.1848 10.1582L16.1887 10.1689L16.1848 10.1761L16.1768 10.1832L16.1649 10.1868L16.1808 10.2155L16.2882 10.1689L16.2763 10.1438L16.2644 10.1474H16.2484L16.2405 10.1331L16.2206 10.0937L16.2365 10.0865L16.3559 10.1438L16.4275 10.1152L16.4116 10.0865L16.4037 10.0937H16.3838L16.3678 10.0901L16.2962 10.0578C16.3121 10.0483 16.3241 10.0363 16.332 10.022C16.34 10.0077 16.34 9.99334 16.332 9.97901L16.3121 9.95393C16.3042 9.94915 16.2949 9.94676 16.2843 9.94676H16.2484L16.2206 9.95393ZM16.5032 9.8536L16.4514 9.87152L16.4435 10.0578V10.0722L16.4395 10.0758C16.4368 10.0805 16.4329 10.0829 16.4275 10.0829L16.4395 10.1116L16.531 10.0829L16.5191 10.0543L16.5032 10.0578L16.4912 10.0543V10.0184L16.5589 9.99692L16.5748 10.0148L16.5828 10.022V10.0292C16.5801 10.0339 16.5761 10.0363 16.5708 10.0363L16.5629 10.0399L16.5748 10.0686L16.6823 10.0328L16.6743 10.0041H16.6544L16.6385 9.99334L16.5032 9.8536ZM16.7499 9.78195L16.6425 9.81061L16.6544 9.83569H16.6783L16.6863 9.83927V9.85002L16.7261 9.96826V9.98617L16.7141 9.99334H16.7022L16.7141 10.022L16.8096 9.99692L16.8017 9.96826L16.7897 9.97184H16.7778L16.7698 9.96826L16.7659 9.96468L16.7261 9.83211L16.8375 9.98976L16.8693 9.98259L16.8733 9.78911L16.9131 9.92168V9.93243L16.9091 9.93601C16.9091 9.94079 16.9052 9.94318 16.8972 9.94318H16.8892L16.8972 9.97543L17.0126 9.94318L17.0047 9.9181H16.9808L16.9728 9.91451L16.9688 9.90735L16.929 9.78553V9.7712C16.9317 9.76642 16.9357 9.76403 16.941 9.76403L16.9529 9.76045L16.945 9.73178L16.8335 9.75686V9.90018L16.7499 9.78195ZM17.2634 9.67087L17.136 9.69237L17.144 9.72103H17.1678L17.1758 9.72462V9.73895L17.1997 9.85719V9.8751L17.1838 9.88227H17.1798V9.91093L17.2992 9.88943L17.2952 9.86077H17.2634V9.85002L17.2554 9.81061L17.2952 9.80344C17.3217 9.79866 17.3416 9.78792 17.3549 9.7712C17.3682 9.75686 17.3735 9.74014 17.3708 9.72103L17.3589 9.69595C17.3536 9.68879 17.3456 9.68281 17.335 9.67804C17.3271 9.67326 17.3164 9.67087 17.3032 9.67087H17.2634ZM17.5499 9.63146L17.3987 9.64937L17.4027 9.68162H17.4345V9.69237L17.4544 9.81777V9.82852L17.4465 9.83569L17.4345 9.83927H17.4266V9.87152L17.546 9.85719V9.82852H17.5221L17.5141 9.82136V9.80702L17.5062 9.76403H17.5261L17.6176 9.85002L17.6932 9.83927V9.81061H17.6693L17.6614 9.80702L17.6494 9.79986L17.5937 9.75328C17.6096 9.74611 17.6242 9.73656 17.6375 9.72462C17.6481 9.71267 17.6521 9.69834 17.6494 9.68162C17.6494 9.67207 17.6455 9.66371 17.6375 9.65654C17.6322 9.64937 17.6242 9.6434 17.6136 9.63863L17.5818 9.63146H17.5499ZM17.94 9.63146C17.9135 9.61235 17.8816 9.60399 17.8445 9.60638C17.8047 9.60638 17.7728 9.61832 17.7489 9.64221C17.7277 9.66609 17.7171 9.69476 17.7171 9.7282C17.7198 9.76403 17.7357 9.79269 17.7649 9.81419C17.7887 9.82852 17.8193 9.83569 17.8564 9.83569C17.8829 9.8333 17.9068 9.82733 17.928 9.81777C17.944 9.80583 17.9572 9.7915 17.9678 9.77478C17.9758 9.75806 17.9798 9.73775 17.9798 9.71387C17.9798 9.68043 17.9665 9.65296 17.94 9.63146ZM18.1629 9.6028H18.0275L18.0315 9.63504H18.0554L18.0594 9.63863V9.65296L18.0554 9.77478V9.78911L18.0514 9.79269H18.0315V9.82494H18.1509V9.79269H18.139L18.1231 9.78911V9.73537H18.1629C18.1921 9.73537 18.2146 9.72939 18.2305 9.71745C18.2465 9.70551 18.2544 9.68998 18.2544 9.67087L18.2465 9.64221L18.2305 9.62071L18.2027 9.60638L18.1629 9.6028ZM18.4494 9.61354L18.2982 9.6028L18.2942 9.63146H18.3101L18.3221 9.63863V9.64937L18.3141 9.77478V9.78553L18.3062 9.79269H18.2823V9.82136L18.4017 9.83211V9.79628H18.3778V9.73895H18.3977L18.4733 9.83927L18.5529 9.84286V9.81061H18.541L18.529 9.80702H18.5211L18.5131 9.79628V9.79269L18.4654 9.73895C18.4839 9.73656 18.4999 9.72939 18.5131 9.71745C18.529 9.71028 18.537 9.69834 18.537 9.68162L18.533 9.65296C18.5277 9.6434 18.5211 9.63624 18.5131 9.63146L18.4813 9.61713L18.4494 9.61354ZM18.7201 9.63863L18.6007 9.62429L18.5967 9.65654L18.6086 9.66012H18.6246V9.67804L18.6086 9.80344L18.6047 9.81419H18.6007C18.598 9.81658 18.5927 9.81658 18.5848 9.81419H18.5768L18.5728 9.84644L18.6922 9.86077L18.6962 9.82852H18.6843L18.6723 9.82136H18.6683V9.80702L18.6843 9.6852L18.6922 9.67087C18.6949 9.66848 18.7002 9.66848 18.7081 9.67087H18.7201V9.63863ZM18.9151 9.66729L18.8594 9.65654L18.7519 9.81777L18.744 9.82852L18.736 9.83211H18.7201L18.7161 9.86077L18.8116 9.8751L18.8156 9.84644L18.7997 9.83927H18.7957C18.7931 9.83688 18.7931 9.8345 18.7957 9.83211V9.82494L18.8076 9.80344L18.8873 9.81419V9.85002L18.8833 9.8536H18.8634L18.8554 9.88227L18.9708 9.90018L18.9788 9.87152L18.9629 9.86435C18.9576 9.86196 18.9549 9.85599 18.9549 9.84644L18.9151 9.66729ZM19.1698 9.71387L19.0624 9.68879L19.0544 9.72103L19.0783 9.7282V9.74253L19.0465 9.86435L19.0385 9.87868H19.0345L19.0226 9.8751H19.0106L19.0027 9.90735L19.1022 9.92885L19.1101 9.8966L19.0982 9.89302H19.0863L19.0823 9.88585V9.87868L19.1181 9.7497L19.13 9.93243L19.1619 9.94318L19.2693 9.77478L19.2295 9.90735V9.92168H19.2216L19.2096 9.9181H19.1977L19.1897 9.94676L19.3052 9.97543L19.3131 9.94318L19.2892 9.93601V9.92168L19.3251 9.79986C19.3251 9.79269 19.3277 9.78911 19.333 9.78911C19.3357 9.78433 19.3397 9.78433 19.345 9.78911H19.3569L19.3649 9.76045L19.2574 9.73537L19.1778 9.85719L19.1698 9.71387ZM19.6793 9.8536L19.5599 9.81419L19.5479 9.84644H19.5559L19.5679 9.8536V9.87152L19.5201 9.98617L19.5121 10.0005H19.5081L19.4922 9.99334H19.4843L19.4723 10.0256L19.5877 10.0614L19.5997 10.0292H19.5877L19.5758 10.022V10.0041L19.5917 9.96826L19.6315 9.98259C19.6581 9.98976 19.6819 9.98976 19.7032 9.98259C19.7217 9.97542 19.735 9.96348 19.743 9.94676L19.747 9.9181L19.739 9.89302L19.7191 9.87152L19.6793 9.8536ZM19.9499 9.95393L19.8106 9.8966L19.7947 9.92885L19.8027 9.93243H19.8106L19.8186 9.93601V9.94318L19.8146 9.95393L19.7589 10.0686L19.7549 10.0793H19.747L19.7231 10.0722L19.7111 10.1008L19.8186 10.1438L19.8345 10.1187L19.8226 10.1116L19.8146 10.108V10.0865L19.8345 10.0471L19.8544 10.0543L19.8863 10.1725L19.9579 10.2012L19.9698 10.1689H19.9619L19.9499 10.1617L19.946 10.1546L19.938 10.1438L19.9181 10.0758H19.9698C19.9858 10.071 19.9977 10.0602 20.0057 10.0435L20.0136 10.0148L20.0017 9.98976C19.9964 9.9802 19.9884 9.97304 19.9778 9.96826L19.9499 9.95393ZM20.2843 10.1367C20.2737 10.108 20.2511 10.0853 20.2166 10.0686C20.1821 10.0519 20.1489 10.0471 20.1171 10.0543C20.0826 10.0638 20.0574 10.0841 20.0415 10.1152C20.0203 10.1462 20.0163 10.1773 20.0295 10.2083C20.0428 10.2346 20.0654 10.2549 20.0972 10.2692C20.1211 10.2812 20.1436 10.2871 20.1649 10.2871C20.1887 10.2871 20.21 10.2812 20.2285 10.2692C20.2471 10.2597 20.2617 10.2453 20.2723 10.2262C20.2909 10.1952 20.2949 10.1653 20.2843 10.1367ZM20.4196 10.1653L20.3997 10.1546L20.328 10.2083L20.3519 10.2298L20.3798 10.2155L20.4037 10.2119C20.4143 10.2119 20.4222 10.2143 20.4276 10.2191H20.4315V10.2298L20.3519 10.3373L20.34 10.3516H20.336L20.3201 10.3445L20.3161 10.3409L20.2962 10.366L20.3997 10.4233L20.4156 10.3982L20.3997 10.3875L20.3957 10.3839V10.3803L20.4037 10.366L20.4793 10.2585L20.4833 10.2513H20.4912L20.5032 10.2656C20.5085 10.2728 20.5111 10.2812 20.5111 10.2907V10.3194L20.543 10.3266L20.5629 10.2477L20.543 10.237L20.539 10.2406L20.4196 10.1725V10.1653ZM20.7897 10.3982L20.6226 10.2907L20.6027 10.3158L20.6106 10.3194L20.6226 10.3301V10.3337L20.6146 10.3445L20.535 10.4448L20.5271 10.4555H20.5191L20.5032 10.4484L20.4992 10.4448L20.4793 10.4735L20.6504 10.581L20.73 10.5308L20.7141 10.5057C20.7008 10.5153 20.6876 10.5212 20.6743 10.5236C20.6637 10.526 20.6531 10.526 20.6425 10.5236L20.6027 10.5093L20.5868 10.4985L20.5788 10.4878L20.5828 10.477L20.6146 10.4376L20.6266 10.4412L20.6425 10.4555V10.4627L20.6305 10.4842L20.6544 10.4985L20.7141 10.4233L20.6902 10.4054L20.6823 10.4126L20.6743 10.4269H20.6624L20.6465 10.4197L20.6345 10.4126L20.6743 10.366L20.7022 10.3875C20.7128 10.3922 20.7208 10.3982 20.7261 10.4054L20.734 10.4269V10.4627L20.7659 10.4699L20.7897 10.3982ZM20.9887 10.6777L20.8972 10.606L20.8773 10.6311L20.8972 10.649V10.6526L20.8892 10.6634L20.8853 10.6705L20.8693 10.6777H20.8494L20.8295 10.6669C20.8189 10.6598 20.8123 10.6514 20.8096 10.6419V10.6024L20.8335 10.5666C20.8468 10.5523 20.8587 10.5427 20.8693 10.538L20.9052 10.5308L20.937 10.5415L20.9529 10.5595L20.9569 10.5845V10.6239L20.9887 10.6383L21.0246 10.5666L21.0047 10.5523L20.9927 10.5559L20.9768 10.5308L20.9569 10.5093C20.9383 10.4973 20.9184 10.4902 20.8972 10.4878C20.876 10.483 20.8547 10.4842 20.8335 10.4914C20.8123 10.4985 20.7937 10.5105 20.7778 10.5272C20.7619 10.5463 20.7539 10.5654 20.7539 10.5845C20.7486 10.6036 20.7486 10.6228 20.7539 10.6419C20.7619 10.6586 20.7751 10.6741 20.7937 10.6884L20.8216 10.7064L20.8614 10.7135L20.8574 10.7314L20.8853 10.7529L20.933 10.6992L20.945 10.6884H20.9529L20.9609 10.6956L20.9688 10.6992L20.9887 10.6777ZM21.2037 10.7135L21.1639 10.6777L20.9768 10.7601L20.9609 10.7637H20.9529L20.945 10.7565L20.9211 10.778L20.9887 10.8353L21.0126 10.8138L21.0007 10.8031V10.7923L21.0325 10.778L21.0882 10.8246L21.0803 10.8425L21.0723 10.8533H21.0644L21.0524 10.8497L21.0484 10.8425L21.0285 10.8676L21.1081 10.9393L21.132 10.9142L21.1241 10.9034C21.1214 10.8986 21.1227 10.8927 21.128 10.8855L21.2037 10.7135ZM21.339 10.8318L21.343 10.8246L21.3231 10.8067L21.2435 10.8425L21.2554 10.8712L21.2873 10.864H21.3151L21.335 10.8748V10.8783L21.331 10.8855L21.2276 10.9751L21.2156 10.9822H21.2077L21.1917 10.9751V10.9679L21.1678 10.9894L21.2475 11.0682L21.2713 11.0467L21.2594 11.0324V11.0252L21.3708 10.9249L21.3788 10.9213H21.3868C21.3921 10.9261 21.3947 10.9321 21.3947 10.9393V10.9643L21.3868 10.993L21.4186 11.0037L21.4584 10.9321L21.4425 10.9213H21.4345L21.339 10.8318Z" fill="#FFBB00"/>
<path d="M15.0863 10.6239C15.073 10.6359 15.0664 10.6502 15.0664 10.6669C15.0664 10.6861 15.0756 10.7052 15.0942 10.7243C15.1128 10.7434 15.1327 10.7553 15.1539 10.7601C15.1698 10.7601 15.1844 10.7553 15.1977 10.7458C15.2136 10.7362 15.2216 10.7243 15.2216 10.7099C15.2216 10.6884 15.211 10.6681 15.1897 10.649C15.1791 10.6371 15.1659 10.6275 15.1499 10.6204C15.1393 10.6156 15.1274 10.6132 15.1141 10.6132C15.1035 10.6132 15.0942 10.6168 15.0863 10.6239Z" fill="#FFBB00"/>
<path d="M15.9022 10.1331L15.93 10.1832L15.9619 10.1689C15.9751 10.1641 15.9844 10.1582 15.9897 10.151L15.9977 10.1367V10.1187L15.9818 10.108H15.9659L15.938 10.1152L15.9022 10.1331Z" fill="#FFBB00"/>
<path d="M16.1808 10.0113L16.2047 10.065L16.2405 10.0507L16.2683 10.0363C16.2737 10.0316 16.2763 10.0256 16.2763 10.0184V10.0041L16.2644 9.98976H16.2445L16.2166 9.99692L16.1768 10.0113H16.1808Z" fill="#FFBB00"/>
<path d="M16.4912 9.98617L16.535 9.97184L16.4912 9.92168V9.98617Z" fill="#FFBB00"/>
<path d="M17.2315 9.71387L17.2475 9.77478H17.2674L17.2952 9.76403L17.3072 9.7497V9.73178C17.3072 9.72223 17.3018 9.71506 17.2912 9.71029C17.2833 9.7079 17.2727 9.7079 17.2594 9.71029L17.2315 9.71387Z" fill="#FFBB00"/>
<path d="M17.4942 9.67445L17.5022 9.73178H17.542L17.5698 9.72103L17.5858 9.71029V9.69237L17.5818 9.67804L17.5659 9.67087H17.534L17.4942 9.67445Z" fill="#FFBB00"/>
<path d="M17.8445 9.64221C17.8259 9.64221 17.8126 9.64937 17.8047 9.66371C17.7887 9.67804 17.7821 9.69834 17.7848 9.72462C17.7848 9.7485 17.7927 9.76761 17.8086 9.78195C17.8193 9.79389 17.8339 9.79986 17.8524 9.79986C17.871 9.79986 17.8856 9.79269 17.8962 9.77836C17.9095 9.76403 17.9148 9.74373 17.9121 9.71745C17.9121 9.70073 17.9081 9.6864 17.9002 9.67445C17.8949 9.66251 17.8869 9.65415 17.8763 9.64937C17.8657 9.64221 17.8551 9.63982 17.8445 9.64221Z" fill="#FFBB00"/>
<path d="M18.1191 9.63863V9.70312H18.143L18.1708 9.69954L18.1828 9.68879C18.1881 9.68401 18.1907 9.67804 18.1907 9.67087C18.1907 9.65893 18.1868 9.65057 18.1788 9.64579C18.1708 9.64101 18.1602 9.63863 18.147 9.63863H18.1191Z" fill="#FFBB00"/>
<path d="M18.3858 9.64579L18.3818 9.70312H18.4176C18.4309 9.70551 18.4415 9.70551 18.4494 9.70312C18.4574 9.70312 18.4627 9.70073 18.4654 9.69595C18.4707 9.69117 18.4733 9.6852 18.4733 9.67804V9.66371L18.4574 9.65296L18.4256 9.64937H18.3858V9.64579Z" fill="#FFBB00"/>
<path d="M18.8276 9.77478L18.8793 9.78195L18.8674 9.71745L18.8276 9.77478Z" fill="#FFBB00"/>
<path d="M19.6276 9.8751L19.6037 9.93601L19.6236 9.94318L19.6514 9.94676L19.6713 9.94318L19.6833 9.92526C19.6859 9.91571 19.6846 9.90735 19.6793 9.90018C19.674 9.89302 19.666 9.88824 19.6554 9.88585L19.6276 9.8751Z" fill="#FFBB00"/>
<path d="M19.8777 9.96588L19.8504 10.0184L19.8863 10.0292C19.8969 10.0363 19.9062 10.0399 19.9141 10.0399L19.934 10.0363C19.9393 10.0339 19.9433 10.0292 19.946 10.022C19.9486 10.0172 19.9486 10.0125 19.946 10.0077L19.942 9.99334L19.9141 9.97901L19.8777 9.96588Z" fill="#FFBB00"/>
<path d="M20.2007 10.1008C20.1848 10.0913 20.1675 10.0901 20.1489 10.0972C20.1304 10.1044 20.1144 10.1199 20.1012 10.1438C20.0879 10.1653 20.0826 10.1856 20.0853 10.2047C20.0879 10.2191 20.0985 10.231 20.1171 10.2406C20.133 10.2477 20.1489 10.2477 20.1649 10.2406C20.1834 10.2334 20.1994 10.2191 20.2126 10.1976C20.2232 10.1809 20.2285 10.1665 20.2285 10.1546C20.2285 10.1402 20.2259 10.1283 20.2206 10.1187L20.2007 10.1008Z" fill="#FFBB00"/>
<path d="M21.0683 10.7601L21.1042 10.7923L21.132 10.7314L21.0683 10.7601Z" fill="#FFBB00"/>
<path d="M16.8024 10.6048C17.6697 10.966 17.7626 10.7231 18.3614 10.3791C18.4021 10.3556 18.5973 10.9233 19.4215 10.6112C19.427 10.6091 19.4326 10.607 19.4381 10.6048C19.6365 10.5277 19.7401 10.4419 19.7737 10.3527C18.7377 9.91933 17.5812 9.93566 16.5923 10.2761C16.5423 10.4013 16.5919 10.517 16.8024 10.6048Z" fill="#00713D"/>
<path d="M14.8799 10.0365C14.8799 10.0365 14.7554 10.1462 14.6034 10.2391C14.6353 10.2635 14.6691 10.2874 14.7048 10.3108C14.7697 10.3531 14.841 10.3935 14.9187 10.4317C15.002 10.3643 15.0884 10.3001 15.1775 10.2391C15.007 10.0855 14.8799 10.0365 14.8799 10.0365Z" fill="#8A9396"/>
<path d="M16.7317 10.7532C16.7317 10.7532 16.4491 10.7081 16.3266 10.6321C16.3078 10.6205 16.2789 10.6035 16.243 10.583C16.2709 10.6563 16.2955 10.7274 16.3166 10.7946C16.5669 10.792 16.7317 10.7532 16.7317 10.7532Z" fill="#2B2B2B"/>
<path d="M19.1211 9.08208L18.7951 9.40698L18.8612 9.47079C19.0129 9.49378 19.1637 9.52321 19.313 9.5592C19.3469 9.50319 19.3778 9.44456 19.4052 9.3832L19.1211 9.08208Z" fill="#1E5AA6"/>
<path d="M18.3613 8.16494C18.4663 8.0424 18.3605 7.79446 18.3605 7.79446C18.3605 7.79446 18.3008 7.6927 18.249 7.74143C18.2224 7.76653 18.2312 7.79772 18.246 7.85008C18.26 7.89936 18.2793 7.9674 18.2793 8.06677C18.2793 8.21842 18.2392 8.23863 18.2093 8.25369C18.1988 8.25899 18.1895 8.26364 18.1838 8.27315C18.1623 8.30898 18.0532 8.16566 18.0214 8.11549C17.9897 8.06562 18.021 7.99307 18.0527 7.91969L18.0532 7.91843C18.085 7.84462 18.0532 7.77869 17.9911 7.72853C17.9532 7.69837 17.9314 7.78871 17.9085 7.88313C17.8939 7.94351 17.8788 8.00556 17.859 8.03882C17.8295 8.08856 17.8859 8.21122 17.9342 8.31604C17.9679 8.3894 17.9977 8.45403 17.9911 8.47881C17.9825 8.51024 17.983 8.54397 17.9837 8.59524C17.9844 8.64333 17.9853 8.70686 17.9792 8.79841C17.969 8.9496 18.0224 9.05593 18.0958 9.20227C18.1143 9.23904 18.134 9.27836 18.1543 9.32153C18.1699 9.35432 18.1831 9.38417 18.194 9.41082C18.2649 9.4129 18.3358 9.41633 18.4067 9.42112C18.3855 9.30977 18.3585 9.19014 18.3335 9.07948C18.2948 8.90796 18.261 8.75795 18.261 8.69379C18.261 8.56244 18.3195 8.56765 18.4269 8.57722C18.4595 8.58012 18.4966 8.58343 18.538 8.58343C18.7155 8.58343 18.4966 8.38852 18.4329 8.38852C18.3692 8.38852 18.2554 8.28748 18.3613 8.16494Z" fill="#FFD100"/>
<path d="M18.0214 9.29215C18.006 9.215 17.9617 9.26848 17.9193 9.31956C17.9022 9.34013 17.8855 9.36031 17.8711 9.37141L17.8881 9.41017C17.9281 9.40916 17.9682 9.40858 18.0083 9.40843C18.0211 9.37242 18.0294 9.33259 18.0214 9.29215Z" fill="#FFD100"/>
<path d="M17.5336 9.43027L17.1822 9.07363L16.9328 9.37141C16.9382 9.38351 16.9441 9.39532 16.9498 9.40731C16.9653 9.43924 16.9819 9.47155 16.9994 9.50374C17.1752 9.47076 17.3537 9.44619 17.5336 9.43027Z" fill="#1E5AA6"/>
<path d="M17.7702 9.14165L17.5336 9.43027C17.6474 9.42044 17.7734 9.41304 17.8881 9.41017L17.8711 9.37141L17.7702 9.14165Z" fill="#1E5AA6"/>
<path fill-rule="evenodd" clip-rule="evenodd" d="M18.538 9.12891L18.7951 9.40698L18.7513 9.45526C18.6438 9.44119 18.5359 9.43031 18.428 9.4226L18.4831 9.27557L18.538 9.12891Z" fill="#1E5AA6"/>
<path d="M18.8612 9.47079L18.7951 9.40698L18.7513 9.45526C18.788 9.46006 18.8246 9.46524 18.8612 9.47079Z" fill="#F7FCFF"/>
<path d="M14.3701 9.33432C14.4219 9.25191 14.4835 9.22025 14.5352 9.21309C14.5406 9.20857 14.5465 9.2042 14.5529 9.20001C14.5991 9.16959 14.6705 9.14805 14.7725 9.14077C15.1662 9.14542 15.489 9.38002 15.7421 9.69234C15.9417 9.37699 16.1867 9.0283 16.1916 9.07985C16.1987 9.16441 16.0618 9.46753 16.0618 9.65886C16.0618 9.69419 16.0658 9.73055 16.073 9.76623C16.2307 9.70513 16.3927 9.6516 16.5582 9.60584C16.6703 9.32015 16.778 8.97277 16.8062 8.80727L16.7978 8.64396C16.7884 8.61341 16.7754 8.58303 16.7606 8.55361C16.6857 8.40479 16.5636 8.28061 16.6206 8.28514C16.6673 8.28881 16.7304 8.2547 16.7761 8.2246L16.7426 7.57534C16.6441 7.63416 16.4877 7.80359 16.4877 7.80359C16.4877 7.80359 16.1621 7.22386 16.1096 7.1522C16.0587 7.08054 16.1096 6.93722 16.1096 6.93722C16.3317 6.77455 16.2807 6.59827 16.2807 6.59827C16.2807 6.59827 16.3771 6.55312 16.3548 6.42915C16.3325 6.30518 15.9695 6.30518 15.9695 6.30518C15.9695 6.30518 15.8875 6.24713 15.792 6.23997C15.6957 6.23352 15.3104 6.37684 15.2364 6.4356C15.1623 6.49436 15.1926 6.82686 15.1846 6.89136C15.1775 6.95657 15.1257 7.00888 15.1178 7.1264C15.1138 7.19806 14.4706 7.94906 14.2071 8.60689C14.0431 9.01536 14.2103 9.38512 14.2071 9.54277C14.2058 9.61877 14.2174 9.69452 14.242 9.769C14.2905 9.62991 14.3254 9.42997 14.3701 9.33432Z" fill="#8A9396"/>
<path d="M15.8624 9.8536C15.9316 9.82295 16.0019 9.79382 16.073 9.76623C16.0658 9.73055 16.0618 9.69419 16.0618 9.65886C16.0618 9.46753 16.1987 9.16441 16.1916 9.07985C16.1867 9.0283 15.9417 9.37699 15.7421 9.69234C15.7841 9.74418 15.8242 9.79817 15.8624 9.8536Z" fill="#6A4C2D"/>
<path d="M16.9328 9.37141C16.8842 9.26406 16.8459 9.15253 16.8182 9.03846L16.8062 8.80727C16.778 8.97277 16.6703 9.32015 16.5582 9.60584C16.7029 9.56582 16.8502 9.53175 16.9994 9.50374C16.9819 9.47155 16.9653 9.43924 16.9498 9.40731C16.9441 9.39532 16.9382 9.38351 16.9328 9.37141Z" fill="#6A4C2D"/>
<path d="M16.7978 8.64396L16.7917 8.527L16.7606 8.55361C16.7754 8.58303 16.7884 8.61341 16.7978 8.64396Z" fill="#6A4C2D"/>
<path d="M14.5168 10.5569L14.4061 10.8364L14.496 10.829C14.6258 10.6865 14.7672 10.5539 14.9187 10.4317C14.841 10.3935 14.7697 10.3531 14.7048 10.3108L14.6943 10.3197L14.5168 10.5569Z" fill="#6A4C2D"/>
<path d="M17.4183 10.8364C17.4183 10.8364 17.5958 10.9224 17.6444 10.9224C17.6937 10.9224 17.786 10.7191 17.786 10.7191C17.5523 10.8206 17.31 10.8162 16.8024 10.6048C16.5919 10.517 16.5423 10.4013 16.5923 10.2761C16.4528 10.3241 16.3167 10.3785 16.1848 10.4391C16.2056 10.4877 16.225 10.5359 16.243 10.583C16.2789 10.6035 16.3078 10.6205 16.3266 10.6321C16.4491 10.7081 16.7317 10.7532 16.7317 10.7532C16.7317 10.7532 16.5669 10.792 16.3166 10.7946C16.3469 10.8912 16.3702 10.98 16.3864 11.0565L16.506 11.0786C16.561 11.0894 16.8061 10.9174 16.8061 10.9174C16.8061 10.9174 17.1548 11.0413 17.2225 11.0299C17.2893 11.0199 17.4183 10.8364 17.4183 10.8364Z" fill="#6A4C2D"/>
<path d="M21.7291 10.6422L21.4242 10.5398L21.1894 10.2604L21.0886 10.2974L21.0552 10.3079C21.0685 10.323 21.0665 10.3396 21.0494 10.3567C21.1677 10.444 21.2822 10.5377 21.3923 10.6377L21.7291 10.6422Z" fill="#F7FCFF"/>
<path d="M19.8265 10.3752C19.8089 10.3676 19.7914 10.3601 19.7737 10.3527C19.7401 10.4419 19.6365 10.5277 19.4381 10.6048L19.4215 10.6112L19.7266 10.6153C19.7557 10.5375 19.789 10.4569 19.8265 10.3752Z" fill="#F7FCFF"/>
<path d="M20.0953 8.88301C20.0746 9.00769 20.1367 9.57954 20.1892 9.70709C20.1934 9.7175 20.1988 9.72896 20.2051 9.74124C20.3917 9.50021 20.6182 9.29294 20.8817 9.17422C20.8401 8.43259 20.8085 6.8726 20.8085 6.83783C20.8085 6.79197 20.2823 6.77389 20.2823 6.77389C20.2871 6.77389 20.1216 7.17678 20.0953 7.26779C20.069 7.35952 20.1112 7.96361 20.1216 8.00016C20.1319 8.03742 20.116 8.76047 20.0953 8.88301Z" fill="#D5DFFF"/>
<path d="M20.9052 10.2023L21.0314 10.1378C21.074 10.1184 21.0971 10.0581 21.1091 9.98563C21.0545 10.0144 20.9533 10.0762 20.8333 10.1893L20.9052 10.2023Z" fill="#D5DFFF"/>
<path d="M21.0735 6.22927C20.9485 6.16048 20.4279 6.18341 20.3499 6.22927C20.2719 6.27442 20.2823 6.37471 20.2823 6.37471C20.3913 6.37471 20.4804 6.45797 20.5059 6.53106C20.5115 6.56331 20.4956 6.58624 20.5011 6.64571C20.5029 6.66462 20.4236 6.67288 20.3145 6.6752L20.2823 6.77389C20.2823 6.77389 20.8085 6.79197 20.8085 6.83783C20.8085 6.8726 20.8401 8.43259 20.8817 9.17422C21.0004 9.12074 21.1266 9.08523 21.26 9.07269C21.3806 9.08135 21.4577 9.10978 21.5006 9.14912C21.5523 9.15629 21.5702 9.21608 21.6179 9.29491C21.6328 9.32966 21.6476 9.36796 21.6629 9.40711C21.6687 9.36094 21.6715 9.31438 21.6713 9.26765C21.8019 8.97026 21.8122 8.18845 21.7653 7.89465C21.7597 7.46469 21.3442 6.98887 21.3442 6.98887C21.3442 6.98887 21.333 6.92939 21.3282 6.84196C21.3227 6.75526 21.2447 6.6363 21.2447 6.6363C21.2447 6.6363 21.1977 6.29735 21.0735 6.22927Z" fill="black"/>
<path d="M21.0314 10.1378L20.9052 10.2023L20.8333 10.1893L20.8224 10.1996C20.853 10.2194 20.8834 10.2396 20.9135 10.2602C20.9451 10.264 20.9742 10.2694 20.9973 10.2768C21.0257 10.2859 21.0449 10.2964 21.0552 10.3079L21.0886 10.2974L21.1894 10.2604L21.478 10.1546C21.3054 10.0791 21.1526 9.96486 21.1526 9.96486C21.1526 9.96486 21.1369 9.97097 21.1091 9.98563C21.0971 10.0581 21.074 10.1184 21.0314 10.1378Z" fill="black"/>
<path fill-rule="evenodd" clip-rule="evenodd" d="M17.1347 7.11198C17.0558 7.13492 17.1247 7.35626 17.1621 7.37633L17.1898 7.376C17.2118 7.37568 17.2342 7.37519 17.2564 7.37454C17.2826 7.37454 17.3095 7.37435 17.337 7.37411L17.3959 7.37357C17.3816 7.3536 17.3579 7.31615 17.3401 7.28759C17.2778 7.18768 17.2015 7.06515 17.1347 7.11198Z" fill="#5E0043"/>
<path d="M19.0968 7.37014C19.1342 7.35008 19.1852 7.13492 19.1071 7.11198C19.018 7.08189 18.8169 7.37014 18.8169 7.37014H19.0968Z" fill="#5E0043"/>
<path fill-rule="evenodd" clip-rule="evenodd" d="M17.1898 7.376L17.337 7.37411C17.3095 7.37435 17.2826 7.37454 17.2564 7.37454C17.2342 7.37519 17.2118 7.37568 17.1898 7.376Z" fill="#5E0043"/>
<path d="M19.0968 7.37014H18.8169C18.803 7.37017 18.7885 7.37016 18.7736 7.37015C18.541 7.36998 18.1935 7.36972 18.1152 7.52443C18.0286 7.3741 17.6884 7.37105 17.3959 7.37357L17.337 7.37411L17.1898 7.376C17.1805 7.37614 17.1712 7.37625 17.1621 7.37633C17.1148 7.37673 17.0705 7.37631 17.0352 7.37501C17.0209 7.37449 17.0081 7.37382 16.9971 7.373L17.3481 8.17753L17.8711 9.37141C17.8855 9.36031 17.9022 9.34013 17.9193 9.31956C17.9617 9.26848 18.006 9.215 18.0214 9.29215C18.0294 9.33259 18.0211 9.37242 18.0083 9.40843C18.0702 9.40821 18.1321 9.409 18.194 9.41082C18.1831 9.38417 18.1699 9.35432 18.1543 9.32153C18.134 9.27836 18.1143 9.23904 18.0958 9.20227C18.0224 9.05593 17.969 8.9496 17.9792 8.79841C17.9853 8.70686 17.9844 8.64333 17.9837 8.59524C17.983 8.54397 17.9825 8.51024 17.9911 8.47881C17.9977 8.45403 17.9679 8.3894 17.9342 8.31604C17.8859 8.21122 17.8295 8.08856 17.859 8.03882C17.8788 8.00556 17.8939 7.94351 17.9085 7.88313C17.9314 7.78871 17.9532 7.69837 17.9911 7.72853C18.0532 7.77869 18.085 7.84462 18.0532 7.91843L18.0527 7.91969C18.021 7.99307 17.9897 8.06562 18.0214 8.11549C18.0532 8.16566 18.1623 8.30898 18.1838 8.27315C18.1895 8.26364 18.1988 8.25899 18.2093 8.25369C18.2392 8.23863 18.2793 8.21842 18.2793 8.06677C18.2793 7.9674 18.26 7.89936 18.246 7.85008C18.2312 7.79772 18.2224 7.76653 18.249 7.74143C18.3008 7.6927 18.3605 7.79446 18.3605 7.79446C18.3605 7.79446 18.4663 8.0424 18.3613 8.16494C18.2554 8.28748 18.3692 8.38852 18.4329 8.38852C18.4966 8.38852 18.7155 8.58343 18.538 8.58343C18.4966 8.58343 18.4595 8.58012 18.4269 8.57722C18.3195 8.56765 18.261 8.56244 18.261 8.69379C18.261 8.75795 18.2948 8.90796 18.3335 9.07948C18.3585 9.19014 18.3855 9.30977 18.4067 9.42112L18.428 9.4226L18.4831 9.27557C18.4889 8.95686 18.5043 8.86928 18.5388 8.89659C18.5388 8.89659 18.5764 8.92201 18.5864 9.00028L18.9012 8.16494L19.1071 7.65106L19.1954 7.36853L19.1704 7.36883L19.0968 7.37014Z" fill="#006B00"/>
<path d="M19.427 7.05471C19.4103 6.87915 19.2376 6.85908 19.1404 6.86482C19.0724 6.87438 19.009 6.9018 18.9582 6.94364L18.6397 6.76521C18.6397 6.76521 18.6617 6.64335 18.6979 6.48722C18.7214 6.38587 18.751 6.27006 18.7845 6.16377C18.8306 6.01741 18.8843 5.88909 18.94 5.84136L18.0685 6.36175L17.0433 5.77199C17.0403 5.76606 17.0349 5.75994 17.029 5.75325C17.021 5.74415 17.012 5.734 17.007 5.72187C17.018 5.75991 17.044 5.81037 17.1974 5.91532C17.2745 5.96745 17.342 6.11726 17.3955 6.27935C17.4307 6.38632 17.4599 6.49863 17.4817 6.59177C17.4837 6.60062 17.4857 6.60929 17.4876 6.61777C17.5125 6.72692 17.5261 6.8039 17.5261 6.8039C17.5261 6.8039 17.2507 6.92286 17.234 6.90853C17.2181 6.8942 17.1345 6.87986 17.0907 6.8856C17.035 6.90095 16.9866 6.9325 16.9531 6.9753C16.9195 7.0181 16.9027 7.06973 16.9052 7.12207C16.9052 7.25711 16.9997 7.34628 17.0352 7.37501C17.0705 7.37631 17.1148 7.37673 17.1621 7.37633C17.1247 7.35626 17.0558 7.13492 17.1347 7.11198C17.2015 7.06515 17.2778 7.18768 17.3401 7.28759C17.3579 7.31615 17.3816 7.3536 17.3959 7.37357C17.6917 7.37087 18.0273 7.37178 18.1152 7.52443C18.1935 7.36972 18.541 7.36998 18.7736 7.37015L18.8169 7.37014C18.8169 7.37014 19.018 7.08189 19.1071 7.11198C19.1852 7.13492 19.1342 7.35008 19.0968 7.37014L19.1704 7.36883C19.2547 7.32158 19.4411 7.20277 19.427 7.05471Z" fill="#656263"/>
<path d="M19.8265 5.22321C19.7238 5.15356 19.4985 5.14712 19.3416 5.24194C19.2907 5.30501 19.1222 5.52843 19.3563 5.90966C18.733 5.76419 18.9933 6.27369 19.0395 6.31239C19.0633 6.2307 19.3953 6.15402 19.4789 6.57037C19.5067 6.65421 19.322 6.78821 19.2687 6.82691C19.2687 6.82691 19.5542 6.87923 19.7327 6.65721C19.7155 6.65589 19.7056 6.65486 19.7051 6.65431C19.7051 6.65431 19.7313 6.63163 19.7737 6.59913C19.8146 6.5258 19.8522 6.41803 19.8657 6.29591C19.9557 6.24718 20.3935 5.98419 20.38 5.44244C19.978 5.44961 19.7997 5.84875 19.7599 5.95337C19.685 5.6739 19.6602 5.34575 19.8265 5.22321Z" fill="#0000FF"/>
<path fill-rule="evenodd" clip-rule="evenodd" d="M22 1H2C1.44772 1 1 1.44772 1 2V14C1 14.5523 1.44772 15 2 15H22C22.5523 15 23 14.5523 23 14V2C23 1.44771 22.5523 1 22 1ZM2 0C0.89543 0 4.99999e-08 0.89543 4.99999e-08 2V14C4.99999e-08 15.1046 0.89543 16 2 16H22C23.1046 16 24 15.1046 24 14V2C24 0.89543 23.1046 0 22 0H2Z" fill="black" fill-opacity="0.08"/>
</g>
</g>
</svg>
