<svg width="24" height="16" viewBox="0 0 24 16" fill="none" xmlns="http://www.w3.org/2000/svg">
<g id="flags / flag-tokelau">
<g id="flag">
<path d="M22 0H2C0.89543 0 0 0.89543 0 2V14C0 15.1046 0.89543 16 2 16H22C23.1046 16 24 15.1046 24 14V2C24 0.89543 23.1046 0 22 0Z" fill="#012169"/>
<path d="M4.35016 13.6378C4.11687 13.6343 6.53688 12.3494 8.55995 10.699C11.2133 8.5366 16.9273 5.07894 18.6091 4.51485C18.7832 4.45565 18.2505 4.8143 18.1808 4.92921C16.3876 7.05326 17.8187 11.0576 20.0611 13.0737C20.7366 13.589 20.7018 13.6169 21.9519 13.6656V13.784L4.35016 13.6378ZM4.20392 13.8711C4.20392 13.8711 4.0333 13.993 4.0333 14.0835C4.0333 14.1845 4.22481 14.3168 4.22481 14.3168L21.5828 14.5083L21.9031 14.2959L21.4574 14.0208L4.20392 13.8711Z" fill="#FED100"/>
<path fill-rule="evenodd" clip-rule="evenodd" d="M4.95634 2.71715L4.41011 3.00438L4.51443 2.39587L4.07252 1.96593L4.68323 1.87718L4.95634 1.32373L5.22946 1.87682L5.84016 1.96556L5.39825 2.39659L5.50257 3.00438" fill="white"/>
<path fill-rule="evenodd" clip-rule="evenodd" d="M4.9562 11.9262L4.40997 12.2134L4.51429 11.6049L4.07238 11.175L4.68309 11.0863L4.9562 10.5328L5.22932 11.0859L5.84002 11.1746L5.39811 11.6057L5.50243 12.2134" fill="white"/>
<path fill-rule="evenodd" clip-rule="evenodd" d="M2.15977 6.78167L1.61356 7.0689L1.71787 6.46039L1.27598 6.03045L1.88666 5.94171L2.15977 5.38826L2.43287 5.94135L3.04356 6.03009L2.60166 6.46112L2.70598 7.0689" fill="white"/>
<path fill-rule="evenodd" clip-rule="evenodd" d="M7.78623 5.62867L7.37657 5.84409L7.45481 5.38771L7.12339 5.06526L7.5814 4.9987L7.78623 4.58361L7.99106 4.99843L8.44907 5.06498L8.11765 5.38826L8.19589 5.84409" fill="white"/>
<path fill-rule="evenodd" clip-rule="evenodd" d="M22 1H2C1.44772 1 1 1.44772 1 2V14C1 14.5523 1.44772 15 2 15H22C22.5523 15 23 14.5523 23 14V2C23 1.44771 22.5523 1 22 1ZM2 0C0.89543 0 0 0.89543 0 2V14C0 15.1046 0.89543 16 2 16H22C23.1046 16 24 15.1046 24 14V2C24 0.89543 23.1046 0 22 0H2Z" fill="black" fill-opacity="0.08"/>
</g>
</g>
</svg>
