<svg width="24" height="16" viewBox="0 0 24 16" fill="none" xmlns="http://www.w3.org/2000/svg">
<g id="flags / flag-timor-leste">
<g id="flag">
<path d="M22 0H2C0.89543 0 0 0.89543 0 2V14C0 15.1046 0.89543 16 2 16H22C23.1046 16 24 15.1046 24 14V2C24 0.89543 23.1046 0 22 0Z" fill="#DA291C"/>
<path d="M0 2V14C0 14.6123 0.275391 15.1602 0.708984 15.5273L15 8L0.708984 0.472656C0.275391 0.839844 0 1.3877 0 2Z" fill="#FFC72C"/>
<path d="M0 2V14C0 14.6123 0.275391 15.1602 0.708984 15.5273L11 8L0.708984 0.472656C0.275391 0.839844 0 1.3877 0 2Z" fill="black"/>
<path fill-rule="evenodd" clip-rule="evenodd" d="M4.81076 9.14495L3.7483 10.4769L3.33722 8.82271L1.74317 8.22573L3.18877 7.32413L3.2655 5.62195L4.56936 6.71748L6.21178 6.26461L5.57253 7.84444L6.51029 9.26543" fill="white"/>
<path fill-rule="evenodd" clip-rule="evenodd" d="M22 1H2C1.44772 1 1 1.44772 1 2V14C1 14.5523 1.44772 15 2 15H22C22.5523 15 23 14.5523 23 14V2C23 1.44771 22.5523 1 22 1ZM2 0C0.89543 0 0 0.89543 0 2V14C0 15.1046 0.89543 16 2 16H22C23.1046 16 24 15.1046 24 14V2C24 0.89543 23.1046 0 22 0H2Z" fill="black" fill-opacity="0.08"/>
</g>
</g>
</svg>
