<svg width="24" height="16" viewBox="0 0 24 16" fill="none" xmlns="http://www.w3.org/2000/svg">
<g id="flags / flag-montserrat">
<g id="flag">
<path d="M12 0H22C23.1046 0 24 0.89543 24 2V14C24 15.1046 23.1046 16 22 16H2C0.89543 16 0 15.1046 0 14V8H12V0Z" fill="#012169"/>
<path d="M0 8H12V0H2C0.89543 0 0 0.89543 0 2V8Z" fill="#042C90"/>
<path d="M5 0V2.13149L1.81538 0.00840766C1.04206 0.0791862 0.396074 0.590195 0.130201 1.28865L2.69722 3H2.563e-06L0 5H2.69722L2.563e-06 6.79815L0 8L1.80278 8L5 5.86852V8H7V5.86852L10.1972 8L12 8V6.79815L9.30277 5H12V3H9.30277L12 1.20185V0H10.1972L7 2.13149V0H5Z" fill="white"/>
<path d="M5.5 0V3.5H0V4.5H5.5V8H6.5V4.5H12V3.5H6.5V0H5.5Z" fill="#F44336"/>
<path d="M11.5493 0L7.04932 3H7.9507L12 0.300469V0H11.5493Z" fill="#F44336"/>
<path d="M0 8H0.450704L4.9507 5H4.04932L0 7.69954V8Z" fill="#F44336"/>
<path d="M0.524331 0.650019L4.0493 3H4.95069L0.92268 0.31466C0.775637 0.40885 0.641733 0.521757 0.524331 0.650019Z" fill="#F44336"/>
<path d="M7.95069 5L12 7.69954V8H11.5493L7.0493 5H7.95069Z" fill="#F44336"/>
<path d="M15.1537 4V9.13051H21.1499V4H15.1499H15.1537Z" fill="#00A2BD"/>
<path d="M15.1537 9.13051C15.1537 11.6287 18.1499 12.4 18.1499 12.4C18.1499 12.4 21.1499 11.6287 21.1499 9.13051L15.1499 9.13056L15.1537 9.13051Z" fill="#A53D08"/>
<path d="M18.0033 4.92657L17.9943 4.34952L18.4138 4.3528L18.4168 4.92657H19.5615L19.5645 5.37575L18.4168 5.3823L18.4078 10.6741L18.0003 10.6774L17.9943 5.37575L16.8556 5.3823V4.92329L18.0033 4.92657Z" fill="black"/>
<path fill-rule="evenodd" clip-rule="evenodd" d="M17.0749 9.42815L18.1236 10.6183C18.4862 10.1822 18.2345 8.55274 17.7581 8.25438C17.7011 8.44782 17.6053 8.68061 17.5004 8.75274C17.2756 8.92323 16.7183 9.11996 16.9041 9.24454C16.946 9.18225 17.0569 9.12323 17.1108 9.26422C17.1708 9.49045 16.8771 9.50356 16.8771 9.50356C16.8771 9.50356 16.6913 9.47733 16.6584 9.27405C16.6284 9.06422 16.937 8.87405 16.964 8.86094C16.988 8.8511 17.3925 8.72979 17.4614 8.33963C17.5483 7.95274 17.6352 8.01176 17.6502 8.0052C18.1806 8.06094 18.5252 9.097 18.5462 9.82487C18.5641 10.5527 18.2765 11.038 18.2225 11.0708C18.1716 11.1003 16.964 9.50028 16.964 9.50028L17.0749 9.42815Z" fill="#FF9A08"/>
<path fill-rule="evenodd" clip-rule="evenodd" d="M17.836 10.4676L17.83 8.32002L17.854 8.31994L17.86 10.4675L17.836 10.4676ZM17.7192 10.3102L17.7102 8.36267L17.7341 8.36254L17.7431 10.3101L17.7192 10.3102ZM17.5903 10.1922L17.5843 8.64463L17.6083 8.64452L17.6143 10.1921L17.5903 10.1922ZM17.4854 10.0348L17.4794 8.75284L17.5034 8.7527L17.5094 10.0347L17.4854 10.0348ZM17.3686 9.89375V8.81178H17.3925V9.89375H17.3686ZM17.2487 9.75277V8.89703H17.2727V9.75277H17.2487ZM17.1438 9.62162V8.96588H17.1678V9.62162H17.1438Z" fill="black"/>
<path fill-rule="evenodd" clip-rule="evenodd" d="M17.0516 9.55609C17.0566 9.55133 17.0641 9.55189 17.0685 9.55734L18.1472 10.9082C18.1516 10.9136 18.1511 10.9219 18.1461 10.9267C18.1411 10.9314 18.1335 10.9309 18.1292 10.9254L17.0504 9.5746C17.0461 9.56915 17.0466 9.56086 17.0516 9.55609Z" fill="#FFDF00"/>
<path fill-rule="evenodd" clip-rule="evenodd" d="M18.1834 8.69266C18.1939 8.68737 18.2064 8.69241 18.2112 8.70393L18.2168 8.71777C18.2203 8.72673 18.2255 8.73994 18.2318 8.75706C18.2445 8.7913 18.262 8.84117 18.2817 8.90399C18.3209 9.02959 18.3684 9.2071 18.4016 9.41489C18.4679 9.82999 18.4774 10.3686 18.2467 10.8552C18.2414 10.8665 18.2287 10.8709 18.2184 10.865C18.2082 10.8592 18.2041 10.8453 18.2095 10.8341C18.4342 10.3601 18.4258 9.8331 18.3603 9.42279C18.3275 9.21787 18.2806 9.04272 18.242 8.91883C18.2226 8.8569 18.2053 8.80783 18.1929 8.7743C18.1867 8.75754 18.1817 8.74467 18.1783 8.73602L18.1734 8.72383C18.1686 8.71232 18.1729 8.69795 18.1834 8.69266ZM16.8634 9.03579L16.8615 9.03762L16.8558 9.04341C16.8508 9.04851 16.8438 9.05599 16.8357 9.06536C16.8194 9.08419 16.799 9.11024 16.782 9.1397C16.7649 9.16939 16.7521 9.20097 16.7492 9.23108C16.7464 9.26016 16.7527 9.28834 16.775 9.31412C16.783 9.32332 16.7826 9.33785 16.7742 9.34657C16.7658 9.35528 16.7526 9.35489 16.7446 9.34569C16.713 9.30917 16.7035 9.26727 16.7075 9.22627C16.7113 9.18629 16.7278 9.14779 16.7466 9.11519C16.7655 9.08235 16.7879 9.0539 16.8053 9.03379C16.814 9.02369 16.8216 9.0156 16.827 9.00999L16.8335 9.00349L16.8353 9.00175C16.8441 8.99346 16.858 8.99383 16.8656 9.00343C16.8732 9.01302 16.8722 9.02751 16.8634 9.03579ZM16.9532 9.32507L16.9545 9.32165L16.9587 9.31189C16.9624 9.30376 16.9676 9.29392 16.9736 9.28559C16.98 9.27681 16.9856 9.27223 16.9895 9.27079C16.9895 9.27079 16.9945 9.26918 17.0008 9.27512C17.0095 9.28342 17.0228 9.28238 17.0304 9.2728C17.038 9.26323 17.037 9.24873 17.0283 9.24043C17.012 9.22505 16.9937 9.22087 16.9763 9.22724C16.9609 9.23287 16.949 9.24571 16.9408 9.257C16.9322 9.26876 16.9256 9.28166 16.9212 9.29126C16.919 9.29614 16.9172 9.30034 16.916 9.30336L16.9146 9.30697C16.9104 9.31879 16.9152 9.33362 16.926 9.33819C16.9368 9.34276 16.949 9.33688 16.9532 9.32507Z" fill="#FFDF00"/>
<path d="M18.4235 6.03807C18.4924 5.9725 18.5313 5.92988 18.5763 5.93971C18.6212 5.94627 18.6812 5.93971 18.7261 5.9266C18.844 5.89663 18.9662 5.89217 19.0857 5.91348C19.1157 5.92004 19.1606 5.93643 19.2235 5.99545C19.2865 6.05447 19.3793 6.15938 19.3494 6.44135C19.3194 6.72332 19.3284 6.84463 19.3134 7.00529C19.2895 7.28397 19.2325 7.51348 19.1336 7.49709C19.2685 7.75938 19.2835 7.98889 19.3734 8.16922C19.4632 8.34955 19.5172 8.72004 19.4842 9.12004C19.4483 9.52332 19.3524 10.4217 19.643 11.0282C19.5951 11.0643 19.4782 11.0282 19.3734 10.9069C19.2685 10.7856 19.2235 10.7889 19.1396 10.861C18.8759 11.0807 18.6302 11.3463 18.2676 11.0807C18.1837 11.0217 18.1598 10.9495 18.2197 10.7627C18.3695 10.3036 18.4444 9.66758 18.4205 9.3725L18.4235 6.03807Z" fill="#008021"/>
<path d="M18.6714 5.75603C18.6953 5.82826 18.6943 5.90756 18.6684 5.97898C18.6502 6.02275 18.6421 6.07072 18.6447 6.11872C18.6473 6.16672 18.6606 6.21329 18.6834 6.25439C18.7643 6.12324 18.8812 6.14947 18.9531 6.07734C19.019 6.00193 19.0347 5.92988 19.0857 5.91348C19.0347 5.8643 18.9561 5.80849 18.9711 5.66751C18.9891 5.52324 19.1719 5.40521 19.007 5.18882C18.9824 5.15418 18.9502 5.12685 18.9134 5.10935C18.8766 5.09185 18.8364 5.08473 18.7965 5.08865C18.7565 5.09256 18.7181 5.10739 18.6847 5.13176C18.6514 5.15614 18.6241 5.18928 18.6055 5.22816C18.5965 5.25439 18.6115 5.30685 18.5845 5.33964C18.5674 5.36551 18.5461 5.38773 18.5216 5.40521C18.5066 5.41833 18.4976 5.43472 18.5156 5.45767C18.5216 5.46751 18.5336 5.46751 18.5456 5.47079L18.5216 5.51997C18.5126 5.5298 18.5156 5.53964 18.5276 5.55275C18.5126 5.59538 18.5396 5.60193 18.5216 5.63472C18.5036 5.66423 18.4857 5.70029 18.5396 5.73308C18.5576 5.74292 18.6295 5.75931 18.6714 5.75603ZM17.9972 6.51013C17.9013 6.53636 17.7455 6.49046 17.6287 6.50357C17.5747 6.51013 17.5328 6.48062 17.5388 6.42488C17.5477 6.36915 17.5567 6.28062 17.5448 6.20193C17.5459 6.03243 17.585 5.86581 17.6586 5.71669C17.7179 5.59876 17.7565 5.46978 17.7725 5.33636C17.7725 5.27406 17.7785 5.20849 17.8264 5.17242C17.8624 5.14947 17.8684 5.12652 17.8804 5.10685C17.9103 5.05767 17.9403 5.04783 17.9403 5.07406C17.9433 5.09046 17.9403 5.10685 17.9253 5.12652C17.9553 5.10029 18.0092 5.06751 18.0212 5.06095C18.0332 5.04783 18.0931 5.00193 18.0961 5.04783C18.1201 5.03472 18.1381 5.03472 18.1441 5.04783C18.15 5.06423 18.1441 5.07079 18.1351 5.08062C18.153 5.08062 18.171 5.11013 18.1351 5.13964C18.156 5.13308 18.174 5.16587 18.1411 5.19538C18.1111 5.22816 18.0691 5.24784 18.0602 5.27406C18.0482 5.30029 17.9643 5.36915 17.9313 5.38226C17.8983 5.39865 17.8953 5.41833 17.8953 5.47079C17.8953 6.05439 17.8354 6.00521 17.8354 6.14947C17.8354 6.18226 17.8264 6.21833 17.8594 6.20849C17.9036 6.19081 17.9501 6.18085 17.9972 6.17898V6.51013ZM18.0182 7.76259C18.174 7.67734 18.3538 7.64455 18.4467 7.61832C18.5543 7.58064 18.6587 7.53236 18.7583 7.47406C18.8332 7.43144 18.8932 7.3757 18.9351 7.35931C18.9843 7.34221 19.0252 7.30448 19.049 7.25439C19.1671 7.03662 19.2378 6.79207 19.2558 6.53964C19.2558 6.40849 19.2258 6.25767 19.1059 6.36259C18.9837 6.47791 18.8925 6.62755 18.8422 6.79537C18.7943 7.00521 18.7523 7.05439 18.7434 7.09373C18.7314 7.13636 18.6954 7.13636 18.6475 7.14619C18.4961 7.172 18.3546 7.24483 18.2399 7.35603C18.104 7.46614 17.9619 7.56688 17.8144 7.65767C17.7036 7.72652 17.6826 7.73308 17.6586 7.78882C17.6346 7.84127 17.6107 7.88718 17.5927 7.90685C17.5687 7.93308 17.5627 7.95931 17.5687 7.99209C17.5717 8.01832 17.5627 8.1298 17.5597 8.16914C17.5597 8.20849 17.5687 8.21504 17.5807 8.21832C17.5927 8.21832 17.6107 8.21177 17.6197 8.16586C17.6137 8.21177 17.6706 8.19865 17.6736 8.16259C17.6736 8.21177 17.7335 8.18226 17.7335 8.13636C17.7335 8.16914 17.7845 8.14619 17.7845 8.13636C17.7965 8.09373 17.8054 8.05439 17.8204 8.02488C17.8384 7.97898 17.8594 7.91996 17.9013 7.89373C17.9463 7.85439 17.9253 7.81505 18.0182 7.76259ZM19.1396 10.861C19.1486 10.9036 19.1689 10.9495 19.1748 10.979C19.1808 11.0052 19.1689 11.015 19.1629 11.0314C19.1226 11.1228 19.0944 11.2199 19.079 11.32C19.079 11.3593 19.049 11.3986 19.04 11.4249C19.025 11.4511 19.031 11.4741 19.064 11.5003C19.076 11.5101 19.1239 11.4937 19.1269 11.4675C19.1479 11.4872 19.1748 11.4806 19.1898 11.4511C19.2078 11.4675 19.2348 11.4577 19.2498 11.4282C19.2647 11.438 19.2887 11.4183 19.2977 11.4019C19.3217 11.415 19.3456 11.4019 19.3456 11.3495C19.3456 11.3364 19.3546 11.3167 19.3606 11.3068C19.3666 11.2937 19.3696 11.2708 19.3696 11.2511C19.3696 11.2282 19.3786 11.1855 19.3966 11.1593C19.4146 11.1265 19.4415 11.0773 19.4296 11.0282C19.4176 10.9823 19.4021 10.9858 19.3871 10.9235C19.3481 10.8776 19.2979 10.8167 19.2439 10.8101C19.19 10.8101 19.1576 10.8479 19.1396 10.861ZM18.153 11.1855C18.204 11.238 18.3172 11.2394 18.3921 11.1541C18.3652 11.141 18.2979 11.105 18.2739 11.0853C18.2405 11.1267 18.1987 11.162 18.153 11.1855Z" fill="#FFE1CF"/>
<path d="M18.6448 5.17255C18.6628 5.04141 18.7497 5.04141 18.8037 5.0578C18.8276 5.06108 18.8816 5.06764 18.9355 5.05124C19.0374 5.02173 19.1153 5.06108 19.1033 5.16927C19.1333 5.19222 19.1632 5.24468 19.1543 5.29059C19.1513 5.33649 19.1602 5.35616 19.1962 5.35944C19.2352 5.366 19.3161 5.41845 19.2621 5.49059C19.3131 5.52337 19.352 5.6119 19.3251 5.66763C19.2981 5.72665 19.2172 5.73649 19.1812 5.68403C19.1423 5.7037 19.0823 5.70698 19.0434 5.66436C19.0164 5.69714 18.9535 5.69386 18.9385 5.66436C18.9265 5.63157 18.9085 5.61845 18.8816 5.60862C18.8546 5.59878 18.8516 5.51681 18.8936 5.50698C18.8906 5.48075 18.8936 5.45452 18.9025 5.4414C18.9115 5.42829 18.9025 5.40206 18.8786 5.38239C18.8546 5.35944 18.8336 5.28403 18.8576 5.23813C18.8156 5.25452 18.7258 5.20862 18.7078 5.17911C18.6868 5.14632 18.6598 5.14632 18.6448 5.17255Z" fill="#870F00"/>
<path fill-rule="evenodd" clip-rule="evenodd" d="M19.0526 7.49631C19.0454 7.4913 19.0376 7.48863 19.0293 7.48783C19.0421 7.48817 19.054 7.48862 19.0652 7.493C19.0562 7.48946 19.0464 7.48874 19.0362 7.48812C19.0421 7.48949 19.0473 7.49263 19.0526 7.49631Z" fill="black"/>
<path fill-rule="evenodd" clip-rule="evenodd" d="M18.5054 9.08278C18.506 9.09087 18.5075 9.09891 18.5081 9.10702C18.5141 9.18078 18.5194 9.25458 18.5164 9.32019C18.5117 9.42003 18.5399 9.4778 18.5782 9.55625C18.5889 9.57816 18.6004 9.60168 18.6122 9.62818C18.816 10.0675 18.9479 10.3791 18.9329 10.7923C18.9315 10.8108 18.9317 10.8337 18.932 10.8584M18.9329 10.7923C18.9479 10.3791 18.816 10.0675 18.6122 9.62818C18.6004 9.60168 18.5889 9.57816 18.5782 9.55625C18.5399 9.4778 18.5117 9.42003 18.5164 9.32019C18.5194 9.25458 18.5141 9.18078 18.5081 9.10702C18.5075 9.09891 18.506 9.09087 18.5054 9.08278" fill="black"/>
<path d="M18.6176 5.29386C18.6416 5.32665 18.6686 5.32665 18.6716 5.34632C18.6776 5.37255 18.6805 5.37255 18.6835 5.37911C18.6895 5.38567 18.6716 5.38567 18.6656 5.37911H18.6236C18.6116 5.37911 18.5996 5.36272 18.6056 5.36272C18.6146 5.35944 18.6146 5.35616 18.6116 5.3496C18.6116 5.33977 18.6176 5.32993 18.6236 5.32665L18.6206 5.31682C18.6146 5.30698 18.6116 5.28403 18.6176 5.29059V5.29386ZM18.6326 5.2578C18.6706 5.26374 18.7061 5.28201 18.7345 5.31026C18.7555 5.33649 18.7375 5.32993 18.7285 5.32993C18.7195 5.32993 18.6985 5.32337 18.6865 5.31026C18.6708 5.2922 18.6513 5.27868 18.6296 5.27091C18.6206 5.27091 18.6116 5.2578 18.6296 5.2578H18.6326Z" fill="black"/>
<path fill-rule="evenodd" clip-rule="evenodd" d="M22 1H2C1.44772 1 1 1.44772 1 2V14C1 14.5523 1.44772 15 2 15H22C22.5523 15 23 14.5523 23 14V2C23 1.44771 22.5523 1 22 1ZM2 0C0.89543 0 0 0.89543 0 2V14C0 15.1046 0.89543 16 2 16H22C23.1046 16 24 15.1046 24 14V2C24 0.89543 23.1046 0 22 0H2Z" fill="black" fill-opacity="0.08"/>
</g>
</g>
</svg>
