<svg width="24" height="16" viewBox="0 0 24 16" fill="none" xmlns="http://www.w3.org/2000/svg">
<g id="flags / flag-arabic">
<g id="flag">
<path d="M22 0H2C0.89543 0 0 0.89543 0 2V14C0 15.1046 0.89543 16 2 16H22C23.1046 16 24 15.1046 24 14V2C24 0.89543 23.1046 0 22 0Z" fill="#007A3D"/>
<path fill-rule="evenodd" clip-rule="evenodd" d="M7.78123 8.13602L7.91297 8.18259C7.91297 8.18259 7.68696 8.55723 7.59464 8.81954C7.57686 8.87005 7.5591 8.91705 7.54217 8.96187C7.4641 9.16849 7.40355 9.32873 7.43934 9.57299C7.46972 9.78036 7.51706 9.90147 7.64147 10.0701C7.77668 10.2534 7.90304 10.3212 8.09999 10.427C8.10505 10.4297 8.11015 10.4324 8.1153 10.4352C8.44718 10.6135 8.67918 10.629 9.05518 10.6527C9.34336 10.6708 9.50756 10.649 9.7931 10.6061C9.80763 10.6039 9.82184 10.6018 9.83577 10.5997C10.094 10.5611 10.2552 10.537 10.5077 10.4352C10.5393 10.4225 10.5697 10.4105 10.5992 10.3988C10.8471 10.3009 11.0266 10.23 11.2068 10.008C11.3827 9.79121 11.418 9.61356 11.4707 9.34874C11.4733 9.33567 11.476 9.3224 11.4787 9.3089C11.5352 9.02654 11.5342 8.85756 11.4987 8.57181C11.462 8.27711 11.4192 8.10773 11.289 7.84083C11.2215 7.70253 11.085 7.50368 11.085 7.50368L11.425 6.79537L11.7622 7.40735L12.7736 7.53201C12.7736 7.53201 13.1371 6.96109 13.413 6.62815C13.6805 6.30525 13.8384 6.12652 14.1572 5.85416C14.1957 5.82134 14.2315 5.79025 14.2656 5.76061C14.4618 5.59032 14.6026 5.46812 14.864 5.34174C14.8994 5.32463 14.933 5.30792 14.9654 5.29185C15.1774 5.18639 15.3347 5.10819 15.5925 5.11962C15.8985 5.13318 16.0823 5.22411 16.3165 5.42167C16.4482 5.53281 16.5448 5.61495 16.6008 5.7868C16.6516 5.94316 16.6008 6.20787 16.6008 6.20787C16.5644 6.42212 16.5329 6.54401 16.4409 6.74088C16.3445 6.94702 16.2689 7.05596 16.1166 7.22503C15.9415 7.41947 15.8157 7.50593 15.5925 7.64256C15.3551 7.7879 15.1922 7.8428 14.9485 7.92492C14.9214 7.93405 14.8933 7.94352 14.864 7.95349C14.5938 8.0454 14.4368 8.08224 14.1572 8.14004C13.8695 8.19954 13.7053 8.22058 13.413 8.25109C13.1341 8.28019 12.6964 8.2955 12.6964 8.2955L12.4299 9.16165L12.2967 8.95733L12.4299 8.2955L11.8614 8.21555C11.8614 8.21555 11.8648 8.57463 11.8347 8.80187C11.8082 9.00246 11.7795 9.11319 11.7281 9.3089C11.6518 9.5995 11.6038 9.76353 11.4787 10.0367C11.4757 10.0432 11.4728 10.0496 11.4699 10.0559C11.3906 10.229 11.3428 10.3334 11.2306 10.4942C11.1069 10.6715 11.0322 10.774 10.862 10.9073C10.7408 11.0022 10.659 11.0421 10.5253 11.1074C10.5196 11.1103 10.5137 11.1131 10.5077 11.116C10.2442 11.2449 10.0796 11.2842 9.7931 11.347C9.50957 11.4091 9.34537 11.4296 9.05518 11.4358C9.02198 11.4366 8.99038 11.4374 8.96002 11.4382C8.73244 11.4443 8.57466 11.4485 8.33461 11.3825C8.04054 11.3017 7.87845 11.2147 7.64147 11.0228C7.48677 10.8974 7.39443 10.8227 7.29079 10.6527C7.15483 10.4297 7.13094 10.2685 7.11296 10.008C7.10124 9.83819 7.11282 9.74107 7.13956 9.57299C7.1732 9.3616 7.21485 9.24629 7.29079 9.04617C7.37005 8.8373 7.43128 8.72645 7.53932 8.53092C7.62679 8.37262 7.78123 8.13602 7.78123 8.13602ZM13.413 7.53201H13.1024C13.1024 7.53201 13.2823 7.28619 13.413 7.14176C13.5221 7.02116 13.5885 6.95807 13.7083 6.84811C13.8753 6.69483 13.9738 6.61327 14.1572 6.48012C14.1908 6.45579 14.2224 6.43258 14.2526 6.41035C14.4581 6.25948 14.6018 6.15397 14.864 6.05266C14.9047 6.03695 14.9414 6.02092 14.9761 6.00576C15.0899 5.95598 15.192 5.92621 15.3347 5.93696C15.442 5.94503 15.6605 6.03045 15.6605 6.03045C15.6605 6.03045 15.8103 6.11227 15.9269 6.23161C16.0254 6.33251 16.1507 6.53477 16.1507 6.53477C16.1507 6.53477 15.8477 6.81158 15.5925 6.95219C15.3479 7.08693 15.1859 7.13886 14.9383 7.21826C14.9144 7.22592 14.8897 7.23384 14.864 7.24212C14.582 7.33309 14.4191 7.37064 14.1283 7.42797C13.8514 7.48258 13.413 7.53201 13.413 7.53201Z" fill="white"/>
<path d="M13.7977 4.57318L13.2023 4.06576L13.6415 3.44141L14.2171 3.91944L13.7977 4.57318Z" fill="white"/>
<path fill-rule="evenodd" clip-rule="evenodd" d="M22 1H2C1.44772 1 1 1.44772 1 2V14C1 14.5523 1.44772 15 2 15H22C22.5523 15 23 14.5523 23 14V2C23 1.44771 22.5523 1 22 1ZM2 0C0.89543 0 0 0.89543 0 2V14C0 15.1046 0.89543 16 2 16H22C23.1046 16 24 15.1046 24 14V2C24 0.89543 23.1046 0 22 0H2Z" fill="black" fill-opacity="0.08"/>
</g>
</g>
</svg>
