<svg width="24" height="16" viewBox="0 0 24 16" fill="none" xmlns="http://www.w3.org/2000/svg">
<g id="flags / flag-tanzania">
<g id="flag">
<path d="M0.000106811 10.9748L22.0308 0.000231254L22.0001 0L2.0001 0C0.895535 0 0.000106811 0.895429 0.000106811 2L0.000106811 10.9748Z" fill="#20BD42"/>
<path d="M2.03177 16L23.9999 5.00465V14C23.9999 15.1045 23.1045 16 21.9999 16L2.03177 16Z" fill="#03ACE1"/>
<path d="M0 14L0 12.043L23.1979 0.3983C23.6578 0.742798 23.9644 1.28072 23.9971 1.89138V3.9792L0.799296 15.5996C0.313919 15.2347 0 14.654 0 14Z" fill="black"/>
<path d="M0.000106811 10.9748L0.000135422 12.048L23.1979 0.3983C22.8716 0.153679 22.4685 0.00682925 22.0308 0.000231254L0.000106811 10.9748Z" fill="#FCD715"/>
<path d="M23.9999 5.00465L24 3.98443L0.802518 15.602C1.13538 15.8512 1.54847 15.9991 1.99608 16L2.03177 16L23.9999 5.00465Z" fill="#FCD715"/>
<path fill-rule="evenodd" clip-rule="evenodd" d="M22 0.999999L2.00003 0.999999C1.44774 0.999999 1.00003 1.44771 1.00003 2L1.00003 14C1.00003 14.5523 1.44774 15 2.00003 15L22 15C22.5523 15 23 14.5523 23 14V2C23 1.44771 22.5523 0.999999 22 0.999999ZM2.0001 0C0.895535 0 0.000106811 0.895429 0.000106811 2L0 14C0 15.1045 0.895459 16 2.00003 16L21.9999 16C23.1045 16 23.9999 15.1045 23.9999 14L24 2C24 0.895429 23.1046 0 22.0001 0L2.0001 0Z" fill="black" fill-opacity="0.08"/>
</g>
</g>
</svg>
