<svg width="24" height="16" viewBox="0 0 24 16" fill="none" xmlns="http://www.w3.org/2000/svg">
<g id="flags / flag-nepal">
<g id="flag">
<path d="M11.6536 8.46289L1.00008 1.8042L1 15H11.6099L4.03286 8.46289H11.6536Z" fill="#DB133C"/>
<path fill-rule="evenodd" clip-rule="evenodd" d="M14.0369 15.9999L6.45987 9.46288H15.1403L0.729096 0.455566C0.288039 0.818946 0.00533778 1.3676 7.47779e-05 1.98244L0 13.9999C0 14.0021 3.54649e-06 14.0043 1.06341e-05 14.0065C0.00356489 15.108 0.897629 15.9999 2 15.9999H14.0369ZM11.6536 8.46289H4.03286L11.6099 15H1L1.00008 1.8042L11.6536 8.46289Z" fill="#003D93"/>
<path d="M4.64953 6.34676L4.99151 6.09254L4.57689 5.97148L4.77966 5.57199L4.34991 5.62344L4.39531 5.19066L4.03819 5.43883L3.89897 5.01513L3.64173 5.32685L3.36935 5L3.24829 5.40857L2.86696 5.18461L2.92144 5.62042L2.48563 5.59015L2.70959 5.96543L2.29497 6.07438L2.61577 6.34373L2.47353 6.47689C1.99535 6.18938 1.80771 5.92306 1.50507 5.37225C1.50625 5.65438 1.56329 5.93349 1.6729 6.19346C1.78251 6.45343 1.94252 6.68912 2.1437 6.88692C2.34488 7.08472 2.58325 7.24072 2.84504 7.34592C3.10682 7.45112 3.38685 7.50343 3.66897 7.49983C5.21244 7.48469 5.80259 6.04109 5.74812 5.39646C5.5366 5.83306 5.21672 6.20816 4.81901 6.48597L4.64953 6.34676Z" fill="white"/>
<path d="M5.31092 12.5774L6.11877 12.3081L5.30195 11.9939L5.94523 11.4464L5.06558 11.4644L5.44557 10.7164L4.63772 11.0574L4.69457 10.2287L4.08419 10.845L3.81192 10.0581L3.49178 10.854L2.92927 10.2287L2.94423 11.0844L2.17828 10.7164L2.52535 11.5003L1.67562 11.4464L2.31292 12.0388L1.50507 12.3081L2.32189 12.6223L1.67861 13.1698L2.55527 13.1519L2.17828 13.8999L2.98313 13.5588L2.92927 14.3876L3.53666 13.7712L3.81192 14.5581L4.13207 13.7622L4.69457 14.3876L4.67961 13.5318L5.44257 13.8999L5.09251 13.116L5.94523 13.1698L5.31092 12.5774Z" fill="white"/>
<path fill-rule="evenodd" clip-rule="evenodd" d="M22 1H2C1.44772 1 1 1.44772 1 2V14C1 14.5523 1.44772 15 2 15H22C22.5523 15 23 14.5523 23 14V2C23 1.44771 22.5523 1 22 1ZM2 0C0.895431 0 0 0.895431 0 2V13.9999C0 15.1045 0.895431 15.9999 2 15.9999L22 16C23.1046 16 24 15.1046 24 14V2C24 0.895431 23.1046 0 22 0H2Z" fill="black" fill-opacity="0.08"/>
</g>
</g>
</svg>
