<svg width="24" height="16" viewBox="0 0 24 16" fill="none" xmlns="http://www.w3.org/2000/svg">
<g id="flags / flag-saint pierre and miquelon">
<g id="flag">
<path fill-rule="evenodd" clip-rule="evenodd" d="M2 16C0.89543 16 0 15.1046 0 14V10H8V16H2ZM5.76757 11.833C5.58014 11.905 5.40702 11.8833 5.17619 11.6197C5.12957 11.5666 5.07832 11.5315 5.02569 11.5047C5.06239 11.5134 5.10245 11.525 5.14398 11.537C5.22836 11.5614 5.3189 11.5876 5.39963 11.5948C5.63784 11.6165 5.87559 11.4433 5.87559 11.4433C5.87559 11.4433 5.76757 11.3565 5.47904 11.2776C5.24313 11.2125 4.8475 11.261 4.70993 11.4475C4.63652 11.4517 4.5651 11.463 4.50013 11.4732C4.46623 11.4785 4.43406 11.4835 4.40431 11.4872C4.25381 11.5052 4.07977 11.4369 4.07977 11.4369C4.07977 11.4369 4.05115 11.0832 3.64674 11.0832C3.29312 11.0832 3.28619 11.4078 3.28619 11.4078C3.28619 11.4078 3.10569 11.4946 3.10569 11.2402C3.10569 10.9986 2.92334 10.9994 2.75395 11.0001L2.72713 11.0001L2.70486 11.0001C2.54705 10.9997 2.50693 10.9996 2.50693 11.2204C2.50693 11.3834 2.57166 11.4096 2.63767 11.4364C2.6651 11.4475 2.69274 11.4587 2.71606 11.4798C2.71606 11.4798 2.79546 11.8837 3.27142 11.826C3.29266 11.8653 3.30004 11.9632 3.30004 11.9632C3.30004 11.9632 3.21372 11.9872 3.0766 11.9558C2.87209 11.9091 2.72298 11.8837 2.72298 12.1649C2.72298 12.3916 2.91543 12.3842 3.20928 12.3728C3.27982 12.3701 3.35619 12.3671 3.43715 12.3671C3.85541 12.3671 3.87711 12.1076 3.87711 12.1076C3.87711 12.1076 4.07192 12.0499 4.30275 12.0643C4.24504 12.1146 4.27782 12.2369 4.33137 12.2951C4.419 12.3896 4.56353 12.3804 4.69806 12.3718C4.73576 12.3694 4.77268 12.3671 4.80733 12.3671C4.96568 12.3671 5.03816 12.2443 5.00215 12.0786C5.08807 12.1399 5.25991 12.1014 5.38331 12.0738C5.47737 12.0528 5.54327 12.038 5.52151 12.0786C5.47119 12.1723 5.59352 12.4031 5.91114 12.2734C6.22922 12.1427 5.955 11.7605 5.76757 11.833ZM5.17619 13.2424C5.40702 13.506 5.58014 13.5277 5.76757 13.4557C5.955 13.3836 6.22922 13.7659 5.91114 13.8961C5.59352 14.0258 5.47119 13.795 5.52151 13.7013C5.54327 13.6607 5.47737 13.6755 5.38331 13.6965C5.25992 13.7241 5.08807 13.7626 5.00215 13.7013C5.03816 13.867 4.96568 13.9898 4.80733 13.9898C4.77269 13.9898 4.7358 13.9921 4.69812 13.9945C4.56358 14.0031 4.419 14.0123 4.33137 13.9178C4.27782 13.8596 4.24504 13.7373 4.30275 13.6869C4.07192 13.6726 3.87711 13.7303 3.87711 13.7303C3.87711 13.7303 3.85541 13.9898 3.43715 13.9898C3.35619 13.9898 3.27982 13.9927 3.20928 13.9955C2.91543 14.0069 2.72298 14.0143 2.72298 13.7876C2.72298 13.5064 2.87209 13.5318 3.0766 13.5785C3.21372 13.6099 3.30004 13.5858 3.30004 13.5858C3.30004 13.5858 3.29266 13.488 3.27142 13.4487C2.79546 13.5064 2.71606 13.1025 2.71606 13.1025C2.69274 13.0814 2.6651 13.0702 2.63767 13.0591C2.57166 13.0323 2.50693 13.0061 2.50693 12.8431C2.50693 12.6223 2.54705 12.6224 2.70486 12.6228L2.72713 12.6228L2.75395 12.6228C2.92334 12.6221 3.10569 12.6213 3.10569 12.8629C3.10569 13.1173 3.28619 13.0305 3.28619 13.0305C3.28619 13.0305 3.29312 12.7059 3.64674 12.7059C4.05115 12.7059 4.07977 13.0596 4.07977 13.0596C4.07977 13.0596 4.25381 13.1279 4.40431 13.1099C4.43406 13.1062 4.46619 13.1012 4.50008 13.0959C4.56505 13.0857 4.63652 13.0744 4.70993 13.0702C4.84796 12.8841 5.24313 12.8352 5.47904 12.9003C5.76757 12.9792 5.87559 13.066 5.87559 13.066C5.87559 13.066 5.63784 13.2391 5.39963 13.2174C5.31784 13.2102 5.22606 13.1837 5.14073 13.159C5.10037 13.1473 5.06142 13.136 5.02569 13.1274C5.07832 13.1542 5.12957 13.1893 5.17619 13.2424Z" fill="#D22F27"/>
<path fill-rule="evenodd" clip-rule="evenodd" d="M5.17619 11.6197C5.40702 11.8833 5.58014 11.905 5.76757 11.833C5.955 11.7605 6.22922 12.1427 5.91114 12.2734C5.59352 12.4031 5.47119 12.1723 5.52151 12.0786C5.54327 12.038 5.47737 12.0528 5.38331 12.0738C5.25991 12.1014 5.08807 12.1399 5.00215 12.0786C5.03816 12.2443 4.96568 12.3671 4.80733 12.3671C4.77268 12.3671 4.73576 12.3694 4.69806 12.3718C4.56353 12.3804 4.419 12.3896 4.33137 12.2951C4.27782 12.2369 4.24504 12.1146 4.30275 12.0643C4.07192 12.0499 3.87711 12.1076 3.87711 12.1076C3.87711 12.1076 3.85541 12.3671 3.43715 12.3671C3.35619 12.3671 3.27982 12.3701 3.20928 12.3728C2.91543 12.3842 2.72298 12.3916 2.72298 12.1649C2.72298 11.8837 2.87209 11.9091 3.0766 11.9558C3.21372 11.9872 3.30004 11.9632 3.30004 11.9632C3.30004 11.9632 3.29266 11.8653 3.27142 11.826C2.79546 11.8837 2.71606 11.4798 2.71606 11.4798C2.69274 11.4587 2.6651 11.4475 2.63767 11.4364C2.57166 11.4096 2.50693 11.3834 2.50693 11.2204C2.50693 10.9996 2.54705 10.9997 2.70486 11.0001L2.72713 11.0001L2.75395 11.0001C2.92334 10.9994 3.10569 10.9986 3.10569 11.2402C3.10569 11.4946 3.28619 11.4078 3.28619 11.4078C3.28619 11.4078 3.29312 11.0832 3.64674 11.0832C4.05115 11.0832 4.07977 11.4369 4.07977 11.4369C4.07977 11.4369 4.25381 11.5052 4.40431 11.4872C4.43406 11.4835 4.46623 11.4785 4.50013 11.4732C4.5651 11.463 4.63652 11.4517 4.70993 11.4475C4.8475 11.261 5.24313 11.2125 5.47904 11.2776C5.76757 11.3565 5.87559 11.4433 5.87559 11.4433C5.87559 11.4433 5.63784 11.6165 5.39963 11.5948C5.3189 11.5876 5.22836 11.5614 5.14398 11.537C5.10245 11.525 5.06239 11.5134 5.02569 11.5047C5.07832 11.5315 5.12957 11.5666 5.17619 11.6197ZM3.69707 11.6525C3.69707 11.7282 3.63734 11.7896 3.56365 11.7896C3.48997 11.7896 3.43024 11.7282 3.43024 11.6525C3.43024 11.5767 3.48997 11.5153 3.56365 11.5153C3.63734 11.5153 3.69707 11.5767 3.69707 11.6525ZM3.56367 11.3963C3.56367 11.43 3.5175 11.4577 3.46072 11.4577C3.40394 11.4577 3.35777 11.4304 3.35777 11.3963C3.35777 11.3626 3.40394 11.3349 3.46072 11.3349C3.51797 11.3353 3.56367 11.3626 3.56367 11.3963ZM3.80002 11.3963C3.80002 11.4302 3.75393 11.4577 3.69707 11.4577C3.64021 11.4577 3.59412 11.4302 3.59412 11.3963C3.59412 11.3624 3.64021 11.3349 3.69707 11.3349C3.75393 11.3349 3.80002 11.3624 3.80002 11.3963Z" fill="#FFCC4D"/>
<path d="M3.56365 11.7896C3.63734 11.7896 3.69707 11.7282 3.69707 11.6525C3.69707 11.5767 3.63734 11.5153 3.56365 11.5153C3.48997 11.5153 3.43024 11.5767 3.43024 11.6525C3.43024 11.7282 3.48997 11.7896 3.56365 11.7896Z" fill="black"/>
<path d="M3.56367 11.3963C3.56367 11.43 3.5175 11.4577 3.46072 11.4577C3.40394 11.4577 3.35777 11.4304 3.35777 11.3963C3.35777 11.3626 3.40394 11.3349 3.46072 11.3349C3.51797 11.3353 3.56367 11.3626 3.56367 11.3963Z" fill="black"/>
<path d="M3.69707 11.4577C3.75393 11.4577 3.80002 11.4302 3.80002 11.3963C3.80002 11.3624 3.75393 11.3349 3.69707 11.3349C3.64021 11.3349 3.59412 11.3624 3.59412 11.3963C3.59412 11.4302 3.64021 11.4577 3.69707 11.4577Z" fill="black"/>
<path fill-rule="evenodd" clip-rule="evenodd" d="M5.17619 13.2424C5.40702 13.506 5.58014 13.5277 5.76757 13.4557C5.955 13.3836 6.22922 13.7659 5.91114 13.8961C5.59352 14.0258 5.47119 13.795 5.52151 13.7013C5.54327 13.6607 5.47737 13.6755 5.38331 13.6965C5.25992 13.7241 5.08807 13.7626 5.00215 13.7013C5.03816 13.867 4.96568 13.9898 4.80733 13.9898C4.77269 13.9898 4.7358 13.9921 4.69812 13.9945C4.56358 14.0031 4.419 14.0123 4.33137 13.9178C4.27782 13.8596 4.24504 13.7373 4.30275 13.6869C4.07192 13.6726 3.87711 13.7303 3.87711 13.7303C3.87711 13.7303 3.85541 13.9898 3.43715 13.9898C3.35619 13.9898 3.27982 13.9927 3.20928 13.9955C2.91543 14.0069 2.72298 14.0143 2.72298 13.7876C2.72298 13.5064 2.87209 13.5318 3.0766 13.5785C3.21372 13.6099 3.30004 13.5858 3.30004 13.5858C3.30004 13.5858 3.29266 13.488 3.27142 13.4487C2.79546 13.5064 2.71606 13.1025 2.71606 13.1025C2.69274 13.0814 2.6651 13.0702 2.63767 13.0591C2.57166 13.0323 2.50693 13.0061 2.50693 12.8431C2.50693 12.6223 2.54705 12.6224 2.70486 12.6228C2.71204 12.6228 2.71946 12.6228 2.72713 12.6228C2.73602 12.6228 2.74496 12.6228 2.75395 12.6228C2.92334 12.6221 3.10569 12.6213 3.10569 12.8629C3.10569 13.1173 3.28619 13.0305 3.28619 13.0305C3.28619 13.0305 3.29312 12.7059 3.64674 12.7059C4.05115 12.7059 4.07977 13.0596 4.07977 13.0596C4.07977 13.0596 4.25381 13.1279 4.40431 13.1099C4.43406 13.1062 4.46619 13.1012 4.50008 13.0959C4.56505 13.0857 4.63652 13.0744 4.70993 13.0702C4.84796 12.8841 5.24313 12.8352 5.47904 12.9003C5.76757 12.9792 5.87559 13.066 5.87559 13.066C5.87559 13.066 5.63784 13.2391 5.39963 13.2174C5.31784 13.2102 5.22606 13.1837 5.14073 13.159C5.10037 13.1473 5.06142 13.136 5.02569 13.1274C5.07832 13.1542 5.12957 13.1893 5.17619 13.2424ZM3.56367 13.4128C3.63753 13.4128 3.69709 13.3514 3.69709 13.2756C3.69709 13.1999 3.63753 13.1385 3.56367 13.1385C3.4898 13.1385 3.43025 13.1999 3.43025 13.2756C3.43025 13.3514 3.4898 13.4128 3.56367 13.4128ZM3.46072 13.0808C3.5175 13.0808 3.56367 13.0531 3.56367 13.0194C3.56367 12.9857 3.51797 12.958 3.46072 12.958C3.40394 12.958 3.35777 12.9857 3.35777 13.0194C3.35777 13.0531 3.40394 13.0808 3.46072 13.0808ZM3.69709 13.0808C3.75387 13.0808 3.80003 13.0531 3.80003 13.0194C3.80003 12.9857 3.75387 12.958 3.69709 12.958C3.6403 12.958 3.59414 12.9857 3.59414 13.0194C3.59414 13.0531 3.6403 13.0808 3.69709 13.0808Z" fill="#FFCC4D"/>
<path d="M3.69709 13.2756C3.69709 13.3514 3.63753 13.4128 3.56367 13.4128C3.4898 13.4128 3.43025 13.3514 3.43025 13.2756C3.43025 13.1999 3.4898 13.1385 3.56367 13.1385C3.63753 13.1385 3.69709 13.1999 3.69709 13.2756ZM3.56367 13.0194C3.56367 13.0531 3.5175 13.0808 3.46072 13.0808C3.40394 13.0808 3.35777 13.0531 3.35777 13.0194C3.35777 12.9857 3.40394 12.958 3.46072 12.958C3.51797 12.958 3.56367 12.9857 3.56367 13.0194ZM3.80003 13.0194C3.80003 13.0531 3.75387 13.0808 3.69709 13.0808C3.6403 13.0808 3.59414 13.0531 3.59414 13.0194C3.59414 12.9857 3.6403 12.958 3.69709 12.958C3.75387 12.958 3.80003 12.9857 3.80003 13.0194Z" fill="black"/>
<path fill-rule="evenodd" clip-rule="evenodd" d="M0 6H8V10H7.53682L7.52667 9.98465C7.52067 9.75265 7.48533 9.57265 7.442 9.57265C7.398 9.57265 7.36333 9.75198 7.356 9.98398L7.34542 10H5.37747L5.36733 9.98465C5.36067 9.75265 5.32533 9.57331 5.28133 9.57331C5.23733 9.57331 5.20267 9.75265 5.19533 9.98465L5.18519 10H3.27281L3.26267 9.98465C3.256 9.75265 3.22067 9.57331 3.17667 9.57331C3.13267 9.57331 3.098 9.75265 3.09067 9.98465L3.0806 10H1.24258L1.232 9.98398C1.22533 9.75198 1.19 9.57265 1.146 9.57265C1.102 9.57265 1.06733 9.75198 1.06 9.98398L1.04955 10H0V6ZM2.386 8.54598L2.20067 8.26531C2.19333 8.03398 2.15867 7.85398 2.11467 7.85398C2.07067 7.85398 2.036 8.03331 2.02867 8.26531L1.84333 8.54598C1.802 8.60931 1.836 8.66131 1.92067 8.66131H2.048C2.064 8.76465 2.08733 8.83265 2.114 8.83265C2.14067 8.83265 2.164 8.76398 2.18 8.66131H2.30733C2.39333 8.66198 2.42733 8.60998 2.386 8.54598ZM2.20333 7.56665C2.20333 7.71156 2.16969 7.71066 2.12657 7.70952L2.11467 7.70931L2.10277 7.70952C2.05965 7.71066 2.026 7.71156 2.026 7.56665C2.026 7.40931 2.066 7.28131 2.11467 7.28131C2.164 7.28131 2.20333 7.40931 2.20333 7.56665ZM2.33267 7.88665C2.18776 7.88665 2.18865 7.853 2.18979 7.80988L2.19 7.79798L2.18979 7.78608C2.18865 7.74296 2.18776 7.70931 2.33267 7.70931C2.49 7.70931 2.618 7.74865 2.618 7.79798C2.618 7.84731 2.49 7.88665 2.33267 7.88665ZM1.89733 7.88665C2.04224 7.88665 2.04135 7.853 2.04021 7.80988L2.04 7.79798L2.04021 7.78608C2.04135 7.74296 2.04224 7.70931 1.89733 7.70931C1.74 7.70931 1.612 7.74865 1.612 7.79798C1.612 7.84731 1.74 7.88665 1.89733 7.88665ZM4.482 8.54598L4.29667 8.26531C4.28933 8.03398 4.25467 7.85398 4.21067 7.85398C4.16667 7.85398 4.132 8.03331 4.12467 8.26531L3.94 8.54598C3.89867 8.60931 3.93267 8.66131 4.01733 8.66131H4.14467C4.16067 8.76465 4.184 8.83265 4.21067 8.83265C4.23733 8.83265 4.26067 8.76398 4.27667 8.66131H4.404C4.48933 8.66198 4.52333 8.60998 4.482 8.54598ZM4.29933 7.56665C4.29933 7.71156 4.26569 7.71066 4.22257 7.70952L4.21067 7.70931L4.19877 7.70952C4.15565 7.71066 4.122 7.71156 4.122 7.56665C4.122 7.40931 4.162 7.28131 4.21067 7.28131C4.26 7.28131 4.29933 7.40931 4.29933 7.56665ZM4.42867 7.88665C4.28376 7.88665 4.28465 7.853 4.28579 7.80988L4.286 7.79798L4.28579 7.78608C4.28465 7.74296 4.28376 7.70931 4.42867 7.70931C4.586 7.70931 4.714 7.74865 4.714 7.79798C4.714 7.84731 4.586 7.88665 4.42867 7.88665ZM3.99333 7.88665C4.13824 7.88665 4.13735 7.853 4.13621 7.80988L4.136 7.79798L4.13621 7.78608C4.13735 7.74296 4.13824 7.70931 3.99333 7.70931C3.836 7.70931 3.708 7.74865 3.708 7.79798C3.708 7.84731 3.836 7.88665 3.99333 7.88665ZM6.62733 8.54598L6.442 8.26531C6.43467 8.03398 6.4 7.85398 6.356 7.85398C6.312 7.85398 6.27733 8.03331 6.27 8.26531L6.08467 8.54598C6.04333 8.60931 6.07733 8.66131 6.162 8.66131H6.28933C6.30533 8.76465 6.32867 8.83265 6.35533 8.83265C6.382 8.83265 6.40533 8.76398 6.42133 8.66131H6.54867C6.63533 8.66198 6.66933 8.60998 6.62733 8.54598ZM6.44533 7.56665C6.44533 7.71156 6.41169 7.71066 6.36857 7.70952L6.35667 7.70931L6.34476 7.70952C6.30165 7.71066 6.268 7.71156 6.268 7.56665C6.268 7.40931 6.308 7.28131 6.35667 7.28131C6.40533 7.28131 6.44533 7.40931 6.44533 7.56665ZM6.574 7.88665C6.42909 7.88665 6.42998 7.853 6.43112 7.80988L6.43133 7.79798L6.43112 7.78608C6.42998 7.74296 6.42909 7.70931 6.574 7.70931C6.73133 7.70931 6.85933 7.74865 6.85933 7.79798C6.86 7.84731 6.732 7.88665 6.574 7.88665ZM6.13933 7.88665C6.28424 7.88665 6.28335 7.853 6.28221 7.80988L6.282 7.79798L6.28221 7.78608C6.28335 7.74296 6.28424 7.70931 6.13933 7.70931C5.982 7.70931 5.854 7.74865 5.854 7.79798C5.854 7.84731 5.982 7.88665 6.13933 7.88665ZM4.99 6.79865C4.94867 6.86198 4.98267 6.91398 5.06733 6.91398H5.19467C5.21067 7.01731 5.234 7.08531 5.26067 7.08531C5.28733 7.08531 5.31067 7.01665 5.32667 6.91398H5.454C5.53867 6.91398 5.57267 6.86198 5.53133 6.79865L5.34667 6.51798C5.34467 6.44998 5.33933 6.38931 5.33267 6.33331H5.18867C5.182 6.38931 5.17733 6.44998 5.17533 6.51798L4.99 6.79865ZM2.896 6.79865C2.85467 6.86198 2.88867 6.91398 2.97333 6.91398H3.10067C3.11667 7.01731 3.14 7.08531 3.16667 7.08531C3.19333 7.08531 3.21667 7.01665 3.23267 6.91398H3.36C3.44467 6.91398 3.47867 6.86198 3.43733 6.79865L3.252 6.51798C3.25067 6.44998 3.24533 6.38931 3.23933 6.33331H3.09467C3.088 6.38931 3.08333 6.44998 3.08133 6.51798L2.896 6.79865ZM1.23467 9.28531C1.23467 9.43022 1.20102 9.42933 1.1579 9.42819L1.146 9.42798L1.1341 9.42819C1.09098 9.42933 1.05733 9.43022 1.05733 9.28531C1.05733 9.12798 1.09733 8.99998 1.146 8.99998C1.19467 8.99998 1.23467 9.12798 1.23467 9.28531ZM1.36333 9.60531C1.21842 9.60531 1.21932 9.57167 1.22046 9.52855L1.22067 9.51665L1.22046 9.50475C1.21932 9.46163 1.21842 9.42798 1.36333 9.42798C1.52067 9.42798 1.64867 9.46731 1.64867 9.51665C1.64933 9.56598 1.52133 9.60531 1.36333 9.60531ZM1.146 7.08598C1.17267 7.08598 1.196 7.01731 1.212 6.91465H1.34C1.42467 6.91465 1.45867 6.86265 1.41733 6.79931L1.232 6.51865C1.23 6.44998 1.22467 6.38931 1.218 6.33331H1.074C1.06733 6.38931 1.06267 6.44998 1.06067 6.51798L1 6.60998V6.91465H1.08C1.09667 7.01731 1.11933 7.08598 1.146 7.08598ZM1.07133 9.51665L1.07139 9.50871C1.07176 9.47305 1.07206 9.44454 1 9.43398V9.59998C1.07192 9.58872 1.07168 9.55986 1.07137 9.52386L1.07133 9.51665ZM3.266 9.28531C3.266 9.43022 3.23235 9.42933 3.18923 9.42819L3.17733 9.42798L3.16543 9.42819C3.12231 9.42933 3.08867 9.43022 3.08867 9.28531C3.08867 9.12798 3.12867 8.99998 3.17733 8.99998C3.226 8.99998 3.266 9.12798 3.266 9.28531ZM3.39467 9.60531C3.24976 9.60531 3.25065 9.57167 3.25179 9.52855L3.252 9.51665L3.25179 9.50475C3.25065 9.46163 3.24976 9.42798 3.39467 9.42798C3.552 9.42798 3.68 9.46731 3.68 9.51665C3.68 9.56598 3.55267 9.60531 3.39467 9.60531ZM2.96 9.60531C3.10491 9.60531 3.10402 9.57167 3.10288 9.52855L3.10267 9.51665L3.10288 9.50475C3.10402 9.46163 3.10491 9.42798 2.96 9.42798C2.80267 9.42798 2.67467 9.46731 2.67467 9.51665C2.67467 9.56598 2.80267 9.60531 2.96 9.60531ZM5.37 9.28531C5.37 9.43022 5.33635 9.42933 5.29323 9.42819L5.28133 9.42798L5.26943 9.42819C5.22631 9.42933 5.19267 9.43022 5.19267 9.28531C5.19333 9.12798 5.23267 8.99998 5.28133 8.99998C5.33067 8.99998 5.37 9.12798 5.37 9.28531ZM5.49933 9.60531C5.35442 9.60531 5.35532 9.57167 5.35646 9.52855L5.35667 9.51665L5.35646 9.50475C5.35532 9.46163 5.35442 9.42798 5.49933 9.42798C5.65667 9.42798 5.78467 9.46731 5.78467 9.51665C5.78467 9.56598 5.65667 9.60531 5.49933 9.60531ZM5.064 9.60531C5.20891 9.60531 5.20802 9.57167 5.20687 9.52855L5.20667 9.51665L5.20687 9.50475C5.20802 9.46163 5.20891 9.42798 5.064 9.42798C4.90667 9.42798 4.77867 9.46731 4.77867 9.51665C4.77867 9.56598 4.90667 9.60531 5.064 9.60531ZM7.53 9.28531C7.53 9.43022 7.49635 9.42933 7.45323 9.42819L7.44133 9.42798L7.42904 9.42821C7.38621 9.42944 7.35333 9.43038 7.35333 9.28531C7.35333 9.12798 7.39267 8.99998 7.442 8.99998C7.49133 8.99998 7.53 9.12798 7.53 9.28531ZM7.136 6.79865C7.09467 6.86198 7.12867 6.91398 7.21333 6.91398H7.34067C7.35667 7.01731 7.38 7.08531 7.40667 7.08531C7.43333 7.08531 7.45667 7.01665 7.47267 6.91398H7.6C7.63246 6.91398 7.64978 6.90082 7.66635 6.88822L7.66667 6.78265L7.492 6.51798C7.49 6.44998 7.48533 6.38931 7.47867 6.33331H7.33467C7.328 6.38931 7.32333 6.44998 7.32133 6.51798L7.136 6.79865ZM7.51667 9.51665L7.51646 9.52855C7.51532 9.57167 7.51442 9.60531 7.65933 9.60531L7.66667 9.60465V9.42865L7.65933 9.42798C7.51426 9.42859 7.51521 9.46152 7.51643 9.50436L7.51667 9.51665ZM7.224 9.60531C7.36891 9.60531 7.36802 9.57167 7.36687 9.52855L7.36667 9.51665L7.36687 9.50475C7.36802 9.46163 7.36891 9.42798 7.224 9.42798C7.06667 9.42798 6.93867 9.46731 6.93867 9.51665C6.93867 9.56598 7.06667 9.60531 7.224 9.60531Z" fill="white"/>
<path d="M7.53682 10L7.52667 9.98465C7.52067 9.75265 7.48533 9.57265 7.442 9.57265C7.398 9.57265 7.36333 9.75198 7.356 9.98398L7.34542 10H7.53682Z" fill="#292F33"/>
<path d="M5.37747 10L5.36733 9.98465C5.36067 9.75265 5.32533 9.57331 5.28133 9.57331C5.23733 9.57331 5.20267 9.75265 5.19533 9.98465L5.18519 10H5.37747Z" fill="#292F33"/>
<path d="M3.27281 10L3.26267 9.98465C3.256 9.75265 3.22067 9.57331 3.17667 9.57331C3.13267 9.57331 3.098 9.75265 3.09067 9.98465L3.0806 10H3.27281Z" fill="#292F33"/>
<path d="M1.24258 10L1.232 9.98398C1.22533 9.75198 1.19 9.57265 1.146 9.57265C1.102 9.57265 1.06733 9.75198 1.06 9.98398L1.04955 10H1.24258Z" fill="#292F33"/>
<path d="M2.20067 8.26531L2.386 8.54598C2.42733 8.60998 2.39333 8.66198 2.30733 8.66131H2.18C2.164 8.76398 2.14067 8.83265 2.114 8.83265C2.08733 8.83265 2.064 8.76465 2.048 8.66131H1.92067C1.836 8.66131 1.802 8.60931 1.84333 8.54598L2.02867 8.26531C2.036 8.03331 2.07067 7.85398 2.11467 7.85398C2.15867 7.85398 2.19333 8.03398 2.20067 8.26531Z" fill="#292F33"/>
<path d="M2.12657 7.70952C2.16969 7.71066 2.20333 7.71156 2.20333 7.56665C2.20333 7.40931 2.164 7.28131 2.11467 7.28131C2.066 7.28131 2.026 7.40931 2.026 7.56665C2.026 7.71156 2.05965 7.71066 2.10277 7.70952C2.10666 7.70942 2.11063 7.70931 2.11467 7.70931C2.1187 7.70931 2.12267 7.70942 2.12657 7.70952Z" fill="#292F33"/>
<path d="M2.18979 7.80988C2.18865 7.853 2.18776 7.88665 2.33267 7.88665C2.49 7.88665 2.618 7.84731 2.618 7.79798C2.618 7.74865 2.49 7.70931 2.33267 7.70931C2.18776 7.70931 2.18865 7.74296 2.18979 7.78608C2.18989 7.78997 2.19 7.79395 2.19 7.79798C2.19 7.80201 2.18989 7.80598 2.18979 7.80988Z" fill="#292F33"/>
<path d="M2.04021 7.80988C2.04135 7.853 2.04224 7.88665 1.89733 7.88665C1.74 7.88665 1.612 7.84731 1.612 7.79798C1.612 7.74865 1.74 7.70931 1.89733 7.70931C2.04224 7.70931 2.04135 7.74296 2.04021 7.78608C2.04011 7.78997 2.04 7.79395 2.04 7.79798C2.04 7.80201 2.04011 7.80598 2.04021 7.80988Z" fill="#292F33"/>
<path d="M4.29667 8.26531L4.482 8.54598C4.52333 8.60998 4.48933 8.66198 4.404 8.66131H4.27667C4.26067 8.76398 4.23733 8.83265 4.21067 8.83265C4.184 8.83265 4.16067 8.76465 4.14467 8.66131H4.01733C3.93267 8.66131 3.89867 8.60931 3.94 8.54598L4.12467 8.26531C4.132 8.03331 4.16667 7.85398 4.21067 7.85398C4.25467 7.85398 4.28933 8.03398 4.29667 8.26531Z" fill="#292F33"/>
<path d="M4.22257 7.70952C4.26569 7.71066 4.29933 7.71156 4.29933 7.56665C4.29933 7.40931 4.26 7.28131 4.21067 7.28131C4.162 7.28131 4.122 7.40931 4.122 7.56665C4.122 7.71156 4.15565 7.71066 4.19877 7.70952C4.20266 7.70942 4.20663 7.70931 4.21067 7.70931C4.2147 7.70931 4.21867 7.70942 4.22257 7.70952Z" fill="#292F33"/>
<path d="M4.28579 7.80988C4.28465 7.853 4.28376 7.88665 4.42867 7.88665C4.586 7.88665 4.714 7.84731 4.714 7.79798C4.714 7.74865 4.586 7.70931 4.42867 7.70931C4.28376 7.70931 4.28465 7.74296 4.28579 7.78608C4.28589 7.78998 4.286 7.79395 4.286 7.79798C4.286 7.80201 4.28589 7.80598 4.28579 7.80988Z" fill="#292F33"/>
<path d="M4.13621 7.80988C4.13735 7.853 4.13824 7.88665 3.99333 7.88665C3.836 7.88665 3.708 7.84731 3.708 7.79798C3.708 7.74865 3.836 7.70931 3.99333 7.70931C4.13824 7.70931 4.13735 7.74296 4.13621 7.78608C4.13611 7.78998 4.136 7.79395 4.136 7.79798C4.136 7.80201 4.13611 7.80598 4.13621 7.80988Z" fill="#292F33"/>
<path d="M6.442 8.26531L6.62733 8.54598C6.66933 8.60998 6.63533 8.66198 6.54867 8.66131H6.42133C6.40533 8.76398 6.382 8.83265 6.35533 8.83265C6.32867 8.83265 6.30533 8.76465 6.28933 8.66131H6.162C6.07733 8.66131 6.04333 8.60931 6.08467 8.54598L6.27 8.26531C6.27733 8.03331 6.312 7.85398 6.356 7.85398C6.4 7.85398 6.43467 8.03398 6.442 8.26531Z" fill="#292F33"/>
<path d="M6.36857 7.70952C6.41169 7.71066 6.44533 7.71156 6.44533 7.56665C6.44533 7.40931 6.40533 7.28131 6.35667 7.28131C6.308 7.28131 6.268 7.40931 6.268 7.56665C6.268 7.71156 6.30165 7.71066 6.34476 7.70952C6.34866 7.70942 6.35263 7.70931 6.35667 7.70931C6.3607 7.70931 6.36467 7.70942 6.36857 7.70952Z" fill="#292F33"/>
<path d="M6.43112 7.80988C6.42998 7.853 6.42909 7.88665 6.574 7.88665C6.732 7.88665 6.86 7.84731 6.85933 7.79798C6.85933 7.74865 6.73133 7.70931 6.574 7.70931C6.42909 7.70931 6.42998 7.74296 6.43112 7.78608C6.43123 7.78998 6.43133 7.79395 6.43133 7.79798C6.43133 7.80201 6.43123 7.80598 6.43112 7.80988Z" fill="#292F33"/>
<path d="M6.28221 7.80988C6.28335 7.853 6.28424 7.88665 6.13933 7.88665C5.982 7.88665 5.854 7.84731 5.854 7.79798C5.854 7.74865 5.982 7.70931 6.13933 7.70931C6.28424 7.70931 6.28335 7.74296 6.28221 7.78608C6.2821 7.78998 6.282 7.79395 6.282 7.79798C6.282 7.80201 6.2821 7.80599 6.28221 7.80988Z" fill="#292F33"/>
<path d="M5.06733 6.91398C4.98267 6.91398 4.94867 6.86198 4.99 6.79865L5.17533 6.51798C5.17733 6.44998 5.182 6.38931 5.18867 6.33331H5.33267C5.33933 6.38931 5.34467 6.44998 5.34667 6.51798L5.53133 6.79865C5.57267 6.86198 5.53867 6.91398 5.454 6.91398H5.32667C5.31067 7.01665 5.28733 7.08531 5.26067 7.08531C5.234 7.08531 5.21067 7.01731 5.19467 6.91398H5.06733Z" fill="#292F33"/>
<path d="M2.97333 6.91398C2.88867 6.91398 2.85467 6.86198 2.896 6.79865L3.08133 6.51798C3.08333 6.44998 3.088 6.38931 3.09467 6.33331H3.23933C3.24533 6.38931 3.25067 6.44998 3.252 6.51798L3.43733 6.79865C3.47867 6.86198 3.44467 6.91398 3.36 6.91398H3.23267C3.21667 7.01665 3.19333 7.08531 3.16667 7.08531C3.14 7.08531 3.11667 7.01731 3.10067 6.91398H2.97333Z" fill="#292F33"/>
<path d="M1.1579 9.42819C1.20102 9.42933 1.23467 9.43022 1.23467 9.28531C1.23467 9.12798 1.19467 8.99998 1.146 8.99998C1.09733 8.99998 1.05733 9.12798 1.05733 9.28531C1.05733 9.43022 1.09098 9.42933 1.1341 9.42819C1.138 9.42809 1.14197 9.42798 1.146 9.42798C1.15003 9.42798 1.154 9.42809 1.1579 9.42819Z" fill="#292F33"/>
<path d="M1.22046 9.52855C1.21932 9.57167 1.21842 9.60531 1.36333 9.60531C1.52133 9.60531 1.64933 9.56598 1.64867 9.51665C1.64867 9.46731 1.52067 9.42798 1.36333 9.42798C1.21842 9.42798 1.21932 9.46163 1.22046 9.50475C1.22056 9.50864 1.22067 9.51261 1.22067 9.51665C1.22067 9.52068 1.22056 9.52465 1.22046 9.52855Z" fill="#292F33"/>
<path d="M1.212 6.91465C1.196 7.01731 1.17267 7.08598 1.146 7.08598C1.11933 7.08598 1.09667 7.01731 1.08 6.91465H1V6.60998L1.06067 6.51798C1.06267 6.44998 1.06733 6.38931 1.074 6.33331H1.218C1.22467 6.38931 1.23 6.44998 1.232 6.51865L1.41733 6.79931C1.45867 6.86265 1.42467 6.91465 1.34 6.91465H1.212Z" fill="#292F33"/>
<path d="M1.07139 9.50871C1.07136 9.51132 1.07133 9.51397 1.07133 9.51665C1.07133 9.51908 1.07135 9.52148 1.07137 9.52386C1.07168 9.55986 1.07192 9.58872 1 9.59998V9.43398C1.07206 9.44454 1.07176 9.47305 1.07139 9.50871Z" fill="#292F33"/>
<path d="M3.18923 9.42819C3.23235 9.42933 3.266 9.43022 3.266 9.28531C3.266 9.12798 3.226 8.99998 3.17733 8.99998C3.12867 8.99998 3.08867 9.12798 3.08867 9.28531C3.08867 9.43022 3.12231 9.42933 3.16543 9.42819C3.16933 9.42809 3.1733 9.42798 3.17733 9.42798C3.18137 9.42798 3.18534 9.42809 3.18923 9.42819Z" fill="#292F33"/>
<path d="M3.25179 9.52855C3.25065 9.57167 3.24976 9.60531 3.39467 9.60531C3.55267 9.60531 3.68 9.56598 3.68 9.51665C3.68 9.46731 3.552 9.42798 3.39467 9.42798C3.24976 9.42798 3.25065 9.46163 3.25179 9.50475C3.25189 9.50864 3.252 9.51261 3.252 9.51665C3.252 9.52068 3.25189 9.52465 3.25179 9.52855Z" fill="#292F33"/>
<path d="M3.10288 9.52855C3.10402 9.57167 3.10491 9.60531 2.96 9.60531C2.80267 9.60531 2.67467 9.56598 2.67467 9.51665C2.67467 9.46731 2.80267 9.42798 2.96 9.42798C3.10491 9.42798 3.10402 9.46163 3.10288 9.50475C3.10277 9.50864 3.10267 9.51261 3.10267 9.51665C3.10267 9.52068 3.10277 9.52465 3.10288 9.52855Z" fill="#292F33"/>
<path d="M5.29323 9.42819C5.33635 9.42933 5.37 9.43022 5.37 9.28531C5.37 9.12798 5.33067 8.99998 5.28133 8.99998C5.23267 8.99998 5.19333 9.12798 5.19267 9.28531C5.19267 9.43022 5.22631 9.42933 5.26943 9.42819C5.27333 9.42809 5.2773 9.42798 5.28133 9.42798C5.28537 9.42798 5.28934 9.42809 5.29323 9.42819Z" fill="#292F33"/>
<path d="M5.35646 9.52855C5.35532 9.57167 5.35442 9.60531 5.49933 9.60531C5.65667 9.60531 5.78467 9.56598 5.78467 9.51665C5.78467 9.46731 5.65667 9.42798 5.49933 9.42798C5.35442 9.42798 5.35532 9.46163 5.35646 9.50475C5.35656 9.50864 5.35667 9.51261 5.35667 9.51665C5.35667 9.52068 5.35656 9.52465 5.35646 9.52855Z" fill="#292F33"/>
<path d="M5.20687 9.52855C5.20802 9.57167 5.20891 9.60531 5.064 9.60531C4.90667 9.60531 4.77867 9.56598 4.77867 9.51665C4.77867 9.46731 4.90667 9.42798 5.064 9.42798C5.20891 9.42798 5.20802 9.46163 5.20687 9.50475C5.20677 9.50864 5.20667 9.51261 5.20667 9.51665C5.20667 9.52068 5.20677 9.52465 5.20687 9.52855Z" fill="#292F33"/>
<path d="M7.45323 9.42819C7.49635 9.42933 7.53 9.43022 7.53 9.28531C7.53 9.12798 7.49133 8.99998 7.442 8.99998C7.39267 8.99998 7.35333 9.12798 7.35333 9.28531C7.35333 9.43038 7.38621 9.42944 7.42904 9.42821C7.43306 9.4281 7.43716 9.42798 7.44133 9.42798C7.44536 9.42798 7.44934 9.42809 7.45323 9.42819Z" fill="#292F33"/>
<path d="M7.21333 6.91398C7.12867 6.91398 7.09467 6.86198 7.136 6.79865L7.32133 6.51798C7.32333 6.44998 7.328 6.38931 7.33467 6.33331H7.47867C7.48533 6.38931 7.49 6.44998 7.492 6.51798L7.66667 6.78265L7.66635 6.88822C7.64978 6.90082 7.63246 6.91398 7.6 6.91398H7.47267C7.45667 7.01665 7.43333 7.08531 7.40667 7.08531C7.38 7.08531 7.35667 7.01731 7.34067 6.91398H7.21333Z" fill="#292F33"/>
<path d="M7.51646 9.52855C7.51656 9.52465 7.51667 9.52068 7.51667 9.51665C7.51667 9.51248 7.51655 9.50837 7.51643 9.50436C7.51521 9.46152 7.51426 9.42859 7.65933 9.42798L7.66667 9.42865V9.60465L7.65933 9.60531C7.51442 9.60531 7.51532 9.57167 7.51646 9.52855Z" fill="#292F33"/>
<path d="M7.36687 9.52855C7.36802 9.57167 7.36891 9.60531 7.224 9.60531C7.06667 9.60531 6.93867 9.56598 6.93867 9.51665C6.93867 9.46731 7.06667 9.42798 7.224 9.42798C7.36891 9.42798 7.36802 9.46163 7.36687 9.50475C7.36677 9.50864 7.36667 9.51261 7.36667 9.51665C7.36667 9.52068 7.36677 9.52465 7.36687 9.52855Z" fill="#292F33"/>
<path d="M0 2.75V2C0 1.67559 0.077238 1.36922 0.214328 1.09828L2.41662 2.75H0Z" fill="#D22F27"/>
<path d="M0 4.25V5.06252L1.08335 4.25H0Z" fill="#D22F27"/>
<path d="M1.25002 6H3.25V4.50002L1.25002 6Z" fill="#D22F27"/>
<path d="M4.75 6H6.74996L4.75 4.50003V6Z" fill="#D22F27"/>
<path d="M8 5.06253V4.25H6.91662L8 5.06253Z" fill="#D22F27"/>
<path d="M8 2.75V0.937515L5.58335 2.75H8Z" fill="#D22F27"/>
<path d="M6.75002 0H4.75V1.50002L6.75002 0Z" fill="#D22F27"/>
<path d="M3.25 0H2C1.78373 0 1.57548 0.034327 1.3804 0.0978299L3.25 1.50003V0Z" fill="#D22F27"/>
<path d="M8 0.937515V4.09683e-05L6.75002 0L4.75 1.50002V2.75H5.58335L8 0.937515Z" fill="#009543"/>
<path d="M8 5.06253L6.91662 4.25H4.75V4.50003L6.74996 6H8V5.06253Z" fill="#009543"/>
<path d="M1.25002 6L3.25 4.50002V4.25H1.08335L0 5.06252V6H1.25002Z" fill="#009543"/>
<path d="M1.3804 0.0978299C0.871744 0.263404 0.452619 0.627324 0.214328 1.09828L2.41662 2.75H3.25V1.50003L1.3804 0.0978299Z" fill="#009543"/>
<path d="M3.25 0H4.75V2.75H8V4.25H4.75V6H3.25V4.25H0V2.75H3.25V0Z" fill="#EEEEEE"/>
<path d="M8.29996 11.5176L8.30144 11.5166C8.61104 11.3102 8.98045 11.0645 9.67745 11.0645C10.3745 11.0645 10.7439 11.3102 11.0535 11.5166L11.0549 11.5176C11.3253 11.6978 11.5366 11.8387 12 11.8387C12.4635 11.8387 12.6748 11.6978 12.9451 11.5176L12.9466 11.5166C13.2562 11.3102 13.6256 11.0645 14.3226 11.0645C15.0196 11.0645 15.389 11.3102 15.6986 11.5166L15.7001 11.5176C15.9704 11.6978 16.1817 11.8387 16.6452 11.8387C17.1086 11.8387 17.3199 11.6978 17.5903 11.5176L17.5918 11.5166C17.9014 11.3102 18.2708 11.0645 18.9678 11.0645C19.6648 11.0645 20.0342 11.3102 20.3438 11.5166L20.3453 11.5176C20.6156 11.6978 20.8269 11.8387 21.2904 11.8387C21.7538 11.8387 21.9651 11.6978 22.2354 11.5176L22.2369 11.5166C22.5465 11.3102 22.9159 11.0645 23.6129 11.0645C23.8267 11.0645 24 11.2378 24 11.4516C24 11.6654 23.8267 11.8387 23.6129 11.8387C23.1495 11.8387 22.9382 11.9796 22.6679 12.1598L22.6664 12.1608C22.3568 12.3672 21.9874 12.6129 21.2904 12.6129C20.5934 12.6129 20.2239 12.3672 19.9143 12.1608L19.9129 12.1598C19.6425 11.9796 19.4312 11.8387 18.9678 11.8387C18.5043 11.8387 18.293 11.9796 18.0227 12.1598L18.0212 12.1608C17.7116 12.3672 17.3422 12.6129 16.6452 12.6129C15.9482 12.6129 15.5788 12.3672 15.2692 12.1608L15.2677 12.1598C14.9974 11.9796 14.7861 11.8387 14.3226 11.8387C13.8592 11.8387 13.6479 11.9796 13.3775 12.1598L13.376 12.1608C13.0664 12.3672 12.697 12.6129 12 12.6129C11.303 12.6129 10.9336 12.3672 10.624 12.1608L10.6225 12.1598C10.3522 11.9796 10.1409 11.8387 9.67745 11.8387C9.21401 11.8387 9.0027 11.9796 8.73237 12.1598L8.73088 12.1608C8.53425 12.2919 8.31349 12.4388 8 12.5286V11.7006C8.10286 11.649 8.19714 11.5862 8.29996 11.5176Z" fill="white"/>
<path fill-rule="evenodd" clip-rule="evenodd" d="M23.6129 11.0645C23.825 11.0645 23.9973 11.2351 24 11.4465V1.99406C24 0.892771 23.098 0 21.9915 0L8 4.09683e-05V11.7006C8.10286 11.649 8.19714 11.5862 8.29996 11.5176L8.30144 11.5166C8.61104 11.3102 8.98045 11.0645 9.67745 11.0645C10.3745 11.0645 10.7439 11.3102 11.0535 11.5166L11.0549 11.5176C11.3253 11.6978 11.5366 11.8387 12 11.8387C12.1001 11.8387 12.1884 11.8321 12.2682 11.82C12.2031 11.799 12.1441 11.761 12.0978 11.7088L9.00098 8.22495C8.89971 8.11101 8.87473 7.94825 8.93718 7.8092C8.99962 7.67014 9.13787 7.58067 9.2903 7.58067H12C12.2138 7.58067 12.3871 7.75398 12.3871 7.96777C12.3871 8.36097 12.6504 8.74102 13.1272 9.04442C13.5985 9.34438 14.2041 9.51616 14.7097 9.51616C15.388 9.51616 16.7327 9.37729 18.007 8.61042L16.9384 8.34327C16.766 8.30019 16.6451 8.14536 16.6451 7.96773C16.6451 5.93651 17.4587 4.25044 18.753 3.38758C18.8166 3.34519 18.8913 3.32257 18.9677 3.32257H19.3548C19.489 3.32257 19.6136 3.39204 19.6841 3.50616C19.7546 3.62028 19.761 3.76279 19.701 3.88278C19.3341 4.61663 19.0541 5.54629 18.9141 6.38621C18.8442 6.80517 18.8109 7.19216 18.8165 7.51348C18.8198 7.70576 18.8369 7.86064 18.8619 7.97939C19.3549 7.53704 19.8077 6.97054 20.1699 6.24627C20.2354 6.11513 20.3695 6.03229 20.5161 6.03229H21.2903C21.5041 6.03229 21.6774 6.2056 21.6774 6.41938C21.6774 7.26972 21.3646 8.39109 20.9175 9.38469C20.6145 10.0581 20.2293 10.7186 19.7997 11.2126C20.0185 11.2999 20.1887 11.4132 20.3438 11.5166L20.3453 11.5176C20.6156 11.6978 20.8269 11.8387 21.2904 11.8387C21.7538 11.8387 21.9651 11.6978 22.2354 11.5176L22.2369 11.5166C22.5465 11.3102 22.9159 11.0645 23.6129 11.0645ZM15.6563 3.38758C15.7198 3.34519 15.7946 3.32257 15.871 3.32257H16.2581C16.3922 3.32257 16.5168 3.39204 16.5874 3.50616C16.6579 3.62028 16.6643 3.76279 16.6043 3.88278C16.2374 4.61663 15.9573 5.54629 15.8173 6.38621C15.7475 6.80517 15.7142 7.19216 15.7197 7.51348C15.7254 7.84565 15.7724 8.06619 15.8301 8.18171C15.8977 8.31693 15.8804 8.47913 15.7858 8.59705C15.6912 8.71497 15.5367 8.76703 15.39 8.73037L13.8416 8.34327C13.6693 8.30019 13.5484 8.14536 13.5484 7.96773C13.5484 5.93651 14.362 4.25044 15.6563 3.38758ZM12.7742 3.32257C12.7032 3.32257 12.6335 3.34211 12.5729 3.37905C11.6158 3.96185 10.9195 4.89034 10.628 5.97233C10.601 6.07264 10.6154 6.1796 10.6681 6.26916C10.7207 6.35872 10.8071 6.42336 10.9079 6.44855L12.2316 6.77941C12.3371 6.80577 12.4488 6.78656 12.5394 6.72648C12.63 6.66641 12.6912 6.57099 12.708 6.46358C12.848 5.56686 13.1183 4.69542 13.5104 3.8769C13.5678 3.75695 13.5597 3.61591 13.4888 3.50338C13.418 3.39084 13.2943 3.32257 13.1613 3.32257H12.7742Z" fill="#61B2E4"/>
<path d="M8 16H21.9915C23.1007 16 24 15.1055 24 14.0059V11.4567C23.9973 11.6681 23.825 11.8387 23.6129 11.8387C23.1495 11.8387 22.9382 11.9796 22.6679 12.1598L22.6664 12.1608C22.3568 12.3672 21.9874 12.6129 21.2904 12.6129C20.5934 12.6129 20.2239 12.3672 19.9143 12.1608L19.9129 12.1598C19.6425 11.9796 19.4312 11.8387 18.9678 11.8387C18.5043 11.8387 18.293 11.9796 18.0227 12.1598L18.0212 12.1608C17.7116 12.3672 17.3422 12.6129 16.6452 12.6129C15.9482 12.6129 15.5788 12.3672 15.2692 12.1608L15.2677 12.1598C14.9974 11.9796 14.7861 11.8387 14.3226 11.8387C13.8592 11.8387 13.6479 11.9796 13.3775 12.1598L13.376 12.1608C13.0664 12.3672 12.697 12.6129 12 12.6129C11.303 12.6129 10.9336 12.3672 10.624 12.1608L10.6225 12.1598C10.3522 11.9796 10.1409 11.8387 9.67745 11.8387C9.21401 11.8387 9.0027 11.9796 8.73237 12.1598L8.73088 12.1608C8.53425 12.2919 8.31349 12.4388 8 12.5286V16Z" fill="#61B2E4"/>
<path d="M18.9677 3.32257C18.8913 3.32257 18.8166 3.34519 18.753 3.38758C17.4587 4.25044 16.6451 5.93651 16.6451 7.96773C16.6451 8.14536 16.766 8.30019 16.9384 8.34327L18.007 8.61042C18.2986 8.43492 18.5865 8.22653 18.8619 7.97939C18.8369 7.86064 18.8198 7.70576 18.8165 7.51348C18.8109 7.19216 18.8442 6.80517 18.9141 6.38621C19.0541 5.54629 19.3341 4.61663 19.701 3.88278C19.761 3.76279 19.7546 3.62028 19.6841 3.50616C19.6136 3.39204 19.489 3.32257 19.3548 3.32257H18.9677Z" fill="#F1B31C"/>
<path d="M20.5161 6.03229C20.3695 6.03229 20.2354 6.11513 20.1699 6.24627C18.7213 9.14334 15.8211 9.51616 14.7097 9.51616C14.2041 9.51616 13.5985 9.34438 13.1272 9.04442C12.6504 8.74102 12.3871 8.36097 12.3871 7.96777C12.3871 7.75398 12.2138 7.58067 12 7.58067H9.2903C9.13787 7.58067 8.99962 7.67014 8.93718 7.8092C8.87473 7.94825 8.89971 8.11101 9.00098 8.22495L12.0978 11.7088C12.1441 11.761 12.2031 11.799 12.2682 11.82C12.5575 11.776 12.7332 11.6589 12.9451 11.5176L12.9466 11.5166C13.2562 11.3102 13.6256 11.0645 14.3226 11.0645C15.0196 11.0645 15.389 11.3102 15.6986 11.5166L15.7001 11.5176C15.9704 11.6978 16.1817 11.8387 16.6452 11.8387C17.1086 11.8387 17.3199 11.6978 17.5903 11.5176L17.5918 11.5166C17.9014 11.3102 18.2708 11.0645 18.9678 11.0645C19.3156 11.0645 19.5818 11.1257 19.7997 11.2126C20.2293 10.7186 20.6145 10.0581 20.9175 9.38469C21.3646 8.39109 21.6774 7.26972 21.6774 6.41938C21.6774 6.2056 21.5041 6.03229 21.2903 6.03229H20.5161Z" fill="#F1B31C"/>
<path fill-rule="evenodd" clip-rule="evenodd" d="M15.6563 3.38758C15.7198 3.34519 15.7946 3.32257 15.871 3.32257H16.2581C16.3922 3.32257 16.5168 3.39204 16.5874 3.50616C16.6579 3.62028 16.6643 3.76279 16.6043 3.88278C16.2374 4.61663 15.9573 5.54629 15.8173 6.38621C15.7475 6.80517 15.7142 7.19216 15.7197 7.51348C15.7254 7.84565 15.7724 8.06619 15.8301 8.18171C15.8977 8.31693 15.8804 8.47913 15.7858 8.59705C15.6912 8.71497 15.5367 8.76703 15.39 8.73037L13.8416 8.34327C13.6693 8.30019 13.5484 8.14536 13.5484 7.96773C13.5484 5.93651 14.362 4.25044 15.6563 3.38758Z" fill="#F1B31C"/>
<path fill-rule="evenodd" clip-rule="evenodd" d="M12.5729 3.37905C12.6335 3.34211 12.7032 3.32257 12.7742 3.32257H13.1613C13.2943 3.32257 13.418 3.39084 13.4888 3.50338C13.5597 3.61591 13.5678 3.75695 13.5104 3.8769C13.1183 4.69542 12.848 5.56686 12.708 6.46358C12.6912 6.57099 12.63 6.66641 12.5394 6.72648C12.4488 6.78656 12.3371 6.80577 12.2316 6.77941L10.9079 6.44855C10.8071 6.42336 10.7207 6.35872 10.6681 6.26916C10.6154 6.1796 10.601 6.07264 10.628 5.97233C10.9195 4.89034 11.6158 3.96185 12.5729 3.37905Z" fill="#F1B31C"/>
<path fill-rule="evenodd" clip-rule="evenodd" d="M22 1H2C1.44772 1 1 1.44772 1 2V14C1 14.5523 1.44772 15 2 15H22C22.5523 15 23 14.5523 23 14V2C23 1.44771 22.5523 1 22 1ZM2 0C0.895431 0 0 0.895431 0 2V14C0 15.1046 0.89543 16 2 16H22C23.1046 16 24 15.1046 24 14V2C24 0.895431 23.1046 0 22 0H2Z" fill="black" fill-opacity="0.08"/>
</g>
</g>
</svg>
