<svg width="24" height="16" viewBox="0 0 24 16" fill="none" xmlns="http://www.w3.org/2000/svg">
<g id="flags / flag-marshall islands">
<g id="flag">
<path d="M22 0H2C0.89543 0 4.99999e-08 0.89543 4.99999e-08 2V14C4.99999e-08 15.1046 0.89543 16 2 16H22C23.1046 16 24 15.1046 24 14V2C24 0.89543 23.1046 0 22 0Z" fill="#23408D"/>
<path d="M24 6L0 13.5V13.0866L24 3V6Z" fill="#DC7727"/>
<path d="M0 13.9111L24 9V6L0 13.5V13.9111Z" fill="white"/>
<path d="M6 9L6.1914 6.5087L6.80682 8.00859L6.57421 6.40243L7.57036 7.69192L6.92508 6.18996L8.20422 7.20244L7.19091 5.92435L8.69411 6.55466L7.40355 5.58431L9.01104 5.80611L7.49929 5.19129L10 5.00004L7.49929 4.80879L9.01104 4.19389L7.40355 4.41569L8.69411 3.44534L7.19091 4.07573L8.20422 2.79756L6.92508 3.81012L7.57036 2.30816L6.57421 3.59757L6.80682 1.99149L6.1914 3.49138L6 1L5.8086 3.49138L5.19318 1.99149L5.42579 3.59757L4.42972 2.30816L5.07492 3.81012L3.79578 2.79756L4.80909 4.07573L3.30597 3.44534L4.59645 4.41569L2.98896 4.19389L4.50079 4.80879L2 5.00004L4.50079 5.19129L2.98896 5.80611L4.59645 5.58431L3.30597 6.55466L4.80909 5.92435L3.79578 7.20244L5.07492 6.18996L4.42972 7.69192L5.42579 6.40243L5.19318 8.00859L5.8086 6.5087L6 9Z" fill="white"/>
<path fill-rule="evenodd" clip-rule="evenodd" d="M22 1H2C1.44772 1 1 1.44772 1 2V14C1 14.5523 1.44772 15 2 15H22C22.5523 15 23 14.5523 23 14V2C23 1.44771 22.5523 1 22 1ZM2 0C0.89543 0 4.99999e-08 0.89543 4.99999e-08 2V14C4.99999e-08 15.1046 0.89543 16 2 16H22C23.1046 16 24 15.1046 24 14V2C24 0.89543 23.1046 0 22 0H2Z" fill="black" fill-opacity="0.08"/>
</g>
</g>
</svg>
