<svg width="24" height="16" viewBox="0 0 24 16" fill="none" xmlns="http://www.w3.org/2000/svg">
<g id="flags / flag-nauru">
<g id="flag">
<path d="M0 9H24V14C24 15.1046 23.1046 16 22 16H2C0.89543 16 0 15.1046 0 14V9Z" fill="#012169"/>
<path d="M24 7H0V9H24V7Z" fill="#FFC72C"/>
<path d="M2 0H22C23.1046 0 24 0.89543 24 2V7H0V2C0 0.89543 0.89543 0 2 0Z" fill="#012169"/>
<path fill-rule="evenodd" clip-rule="evenodd" d="M7.78147 13.6453L6.83753 12.7014L6.53719 14L6.19394 12.7128L5.28146 13.6854L5.62757 12.3982L4.35469 12.7843L5.29863 11.8404L4 11.5372L5.28719 11.1939L4.31465 10.2843L5.60183 10.6276L5.21281 9.35469L6.15675 10.2986L6.45995 9L6.8032 10.2872L7.71281 9.31465L7.36957 10.6018L8.64245 10.2157L7.69851 11.1596L8.99714 11.46L7.70995 11.8032L8.6825 12.7185L7.39531 12.3696L7.78147 13.6453Z" fill="white"/>
<path fill-rule="evenodd" clip-rule="evenodd" d="M22 1H2C1.44772 1 1 1.44772 1 2V14C1 14.5523 1.44772 15 2 15H22C22.5523 15 23 14.5523 23 14V2C23 1.44771 22.5523 1 22 1ZM2 0C0.89543 0 0 0.89543 0 2V14C0 15.1046 0.89543 16 2 16H22C23.1046 16 24 15.1046 24 14V2C24 0.89543 23.1046 0 22 0H2Z" fill="black" fill-opacity="0.08"/>
</g>
</g>
</svg>
