<svg width="24" height="16" viewBox="0 0 24 16" fill="none" xmlns="http://www.w3.org/2000/svg">
<g id="flags / flag-north korea">
<g id="flag">
<path d="M0 12H24V14C24 15.1046 23.1046 16 22 16H2C0.89543 16 0 15.1046 0 14V12Z" fill="#024FA2"/>
<path d="M24 5H0V11H24V5Z" fill="#ED1C27"/>
<path d="M24 4H0V5H24V4Z" fill="white"/>
<path d="M24 11H0V12H24V11Z" fill="white"/>
<path d="M2 0H22C23.1046 0 24 0.89543 24 2V4H0V2C0 0.89543 0.89543 0 2 0Z" fill="#024FA2"/>
<path d="M8 8C8 9.10457 7.10457 10 6 10C4.89543 10 4 9.10457 4 8C4 6.89543 4.89543 6 6 6C5.99979 6 6.00021 6 6 6L5.41291 7.19145L4.09912 7.38096L5.04908 8.30854L4.82519 9.61753L6.00064 8.99942L7.1753 9.61673L6.94981 8.30854L7.90137 7.38096L6.58757 7.19145L6 6C7.10427 6.00035 8 6.89565 8 8Z" fill="white"/>
<path fill-rule="evenodd" clip-rule="evenodd" d="M22 1H2C1.44772 1 1 1.44772 1 2V14C1 14.5523 1.44772 15 2 15H22C22.5523 15 23 14.5523 23 14V2C23 1.44771 22.5523 1 22 1ZM2 0C0.89543 0 0 0.89543 0 2V14C0 15.1046 0.89543 16 2 16H22C23.1046 16 24 15.1046 24 14V2C24 0.89543 23.1046 0 22 0H2Z" fill="black" fill-opacity="0.08"/>
</g>
</g>
</svg>
