<svg width="24" height="16" viewBox="0 0 24 16" fill="none" xmlns="http://www.w3.org/2000/svg">
<g id="flags / flag-curacao">
<g id="flag">
<path d="M22 0H2C0.89543 0 4.99999e-08 0.89543 4.99999e-08 2V14C4.99999e-08 15.1046 0.89543 16 2 16H22C23.1046 16 24 15.1046 24 14V2C24 0.89543 23.1046 0 22 0Z" fill="#012A7E"/>
<path d="M24 9H0V12H24V9Z" fill="#FAE813"/>
<path fill-rule="evenodd" clip-rule="evenodd" d="M22 1H2C1.44772 1 1 1.44772 1 2V14C1 14.5523 1.44772 15 2 15H22C22.5523 15 23 14.5523 23 14V2C23 1.44771 22.5523 1 22 1ZM2 0C0.89543 0 4.99999e-08 0.89543 4.99999e-08 2V14C4.99999e-08 15.1046 0.89543 16 2 16H22C23.1046 16 24 15.1046 24 14V2C24 0.89543 23.1046 0 22 0H2Z" fill="black" fill-opacity="0.08"/>
<path fill-rule="evenodd" clip-rule="evenodd" d="M4.52192 5.9L3.58112 6.39472L3.76032 5.34704L3 4.60464L4.05152 4.45296L4.52192 3.5L4.99232 4.4536L6.04384 4.60528L5.28224 5.34768L5.46144 6.39472" fill="white"/>
<path fill-rule="evenodd" clip-rule="evenodd" d="M2.76096 3.2L2.29056 3.44736L2.38016 2.92352L2 2.55232L2.52576 2.47648L2.76096 2L2.99616 2.4768L3.52192 2.55264L3.14112 2.92384L3.23072 3.44736" fill="white"/>
</g>
</g>
</svg>
