<svg width="24" height="16" viewBox="0 0 24 16" fill="none" xmlns="http://www.w3.org/2000/svg">
<g id="flags / flag-saint lucia">
<g id="flag">
<path d="M22 0H2C0.89543 0 0 0.89543 0 2V14C0 15.1046 0.89543 16 2 16H22C23.1046 16 24 15.1046 24 14V2C24 0.89543 23.1046 0 22 0Z" fill="#66CCFF"/>
<path d="M8.41916 12.3837L11.9576 7.99987L15.587 12.4078L11.9605 3.65074L8.41916 12.3837Z" fill="black"/>
<path fill-rule="evenodd" clip-rule="evenodd" d="M11.9576 2L16.8854 13.9727L16.8756 13.9728L15.587 12.4078L11.9605 3.65074L8.41916 12.3837L7.11459 14L11.9576 2ZM7.11459 14L16.8756 13.9728L16.8854 13.9847L7.11459 14Z" fill="white"/>
<path d="M8.41916 12.3837L7.11459 14L16.8756 13.9728L15.587 12.4078L11.9576 7.99987L8.41916 12.3837Z" fill="#FFCE00"/>
<path fill-rule="evenodd" clip-rule="evenodd" d="M22 1H2C1.44772 1 1 1.44772 1 2V14C1 14.5523 1.44772 15 2 15H22C22.5523 15 23 14.5523 23 14V2C23 1.44771 22.5523 1 22 1ZM2 0C0.89543 0 0 0.89543 0 2V14C0 15.1046 0.89543 16 2 16H22C23.1046 16 24 15.1046 24 14V2C24 0.89543 23.1046 0 22 0H2Z" fill="black" fill-opacity="0.08"/>
</g>
</g>
</svg>
