<svg width="24" height="16" viewBox="0 0 24 16" fill="none" xmlns="http://www.w3.org/2000/svg">
<g id="flags / flag-bonaire" clip-path="url(#clip0_3738_2497)">
<g id="flag">
<path d="M0 2C0 0.895431 0.89543 0 2 0H10.0001L9.72748e-05 7L0 2Z" fill="#FFD700"/>
<path d="M23.2969 0.477295L0.954125 15.705C1.25843 15.892 1.61664 15.9999 2.00005 15.9999H22.0001C22.9666 15.9999 23.7729 15.3144 23.9594 14.403C23.9861 14.2728 24.0001 14.138 24.0001 13.9999V1.99993C24.0001 1.39017 23.7272 0.844135 23.2969 0.477295Z" fill="#003087"/>
<path d="M23.3038 0.483329C22.9537 0.182087 22.4981 0 22 0H9.99445L9.72748e-05 7L2.38419e-05 14C2.38419e-05 14.7166 0.376925 15.3452 0.943314 15.6984L23.3038 0.483329Z" fill="white"/>
<path fill-rule="evenodd" clip-rule="evenodd" d="M7.19987 3.90507L6.99987 3.5L6.809 3.90507C5.30973 4.00311 4.11431 5.19901 4.01735 6.69858L3.61178 6.89275L4.01735 7.09146C4.11431 8.59103 5.31102 9.78643 6.81029 9.88447L7.009 10.29L7.19858 9.88447C8.69785 9.78643 9.89659 8.58701 9.99354 7.08744L10.3971 6.89729L9.99152 6.69858C9.89456 5.19901 8.69914 4.00311 7.19987 3.90507ZM6.99996 9.39909C8.38068 9.39909 9.49996 8.27981 9.49996 6.89909C9.49996 5.51838 8.38068 4.39909 6.99996 4.39909C5.61925 4.39909 4.49996 5.51838 4.49996 6.89909C4.49996 8.27981 5.61925 9.39909 6.99996 9.39909Z" fill="black"/>
<path d="M7.39454 6.08277L6.99994 5.39929L6.60533 6.08277H5.66249L6.13391 6.89929L5.66249 7.71582H6.60533L6.99994 8.39929L7.39454 7.71582H8.33738L7.86596 6.89929L8.33738 6.08277H7.39454Z" fill="#D50032"/>
<path fill-rule="evenodd" clip-rule="evenodd" d="M2.00002 1H22C22.5523 1 23 1.44772 23 2V14C23 14.5523 22.5523 15 22 15H2.00002C1.44774 15 1.00002 14.5523 1.00002 14V2C1.00002 1.44771 1.44774 1 2.00002 1ZM22 0C23.1046 0 24.0001 0.895362 24.0001 1.99993V13.9999C24.0001 15.1045 23.1046 15.9999 22.0001 15.9999H2.00005C0.895484 15.9999 2.38419e-05 15.1046 2.38419e-05 14L0 2C0 0.895431 0.89543 0 2 0H22Z" fill="black" fill-opacity="0.08"/>
</g>
</g>
<defs>
<clipPath id="clip0_3738_2497">
<rect width="24" height="16" fill="white" transform="matrix(-1 0 0 1 24 0)"/>
</clipPath>
</defs>
</svg>
