<svg width="24" height="16" viewBox="0 0 24 16" fill="none" xmlns="http://www.w3.org/2000/svg">
<g id="flags / flag-trinidad and tobago">
<g id="flag">
<path d="M22 0H2C0.89543 0 0 0.89543 0 2V14C0 15.1046 0.89543 16 2 16H22C23.1046 16 24 15.1046 24 14V2C24 0.89543 23.1046 0 22 0Z" fill="#DA1A35"/>
<path d="M23.3628 15.4636L4.99976 0H3.99976L22.8013 15.8329C23.0094 15.7418 23.1989 15.6163 23.3628 15.4636Z" fill="white"/>
<path d="M19.9998 16L1.19819 0.167102C0.990151 0.258212 0.800598 0.383703 0.636719 0.536388L18.9998 16H19.9998Z" fill="white"/>
<path d="M22.1028 15.9974C22.3502 15.9848 22.5857 15.9273 22.8013 15.8329L3.99976 0H2C1.71491 0 1.44362 0.0596007 1.19819 0.167102L20.0134 16H22C21.9999 16 22.0001 16 22 16C22.0345 16 22.0688 15.9991 22.1028 15.9974Z" fill="black"/>
<path fill-rule="evenodd" clip-rule="evenodd" d="M22 1H2C1.44772 1 1 1.44772 1 2V14C1 14.5523 1.44772 15 2 15H22C22.5523 15 23 14.5523 23 14V2C23 1.44771 22.5523 1 22 1ZM2 0C0.89543 0 0 0.89543 0 2V14C0 15.1046 0.89543 16 2 16H22C23.1046 16 24 15.1046 24 14V2C24 0.89543 23.1046 0 22 0H2Z" fill="black" fill-opacity="0.08"/>
</g>
</g>
</svg>
