<svg width="24" height="17" viewBox="0 0 24 17" fill="none" xmlns="http://www.w3.org/2000/svg">
<g id="flags / flag-saint kitts and nevis">
<g id="flag">
<path d="M22.2361 0.0137916L21.0001 0L0.00234333 13L0.00687128 14.167C0.0910409 15.1853 0.938126 15.9873 1.9752 15.9999H3L24 3.00006V2.98813L23.9903 1.8016C23.8984 0.868036 23.1645 0.122982 22.2361 0.0137916Z" fill="black"/>
<path d="M24 4.00001L5.00001 16L22.1325 15.9957C23.1744 15.9276 23.9986 15.0616 24 14.0028V4.00001Z" fill="#C8102E"/>
<path fill-rule="evenodd" clip-rule="evenodd" d="M0 12L19 0L1.86623 0.00440322C0.824029 0.0732318 0 0.940386 0 2V12Z" fill="#009739"/>
<path fill-rule="evenodd" clip-rule="evenodd" d="M15.3963 6.95388L14.8645 7.86533L14.4644 6.8884L13.434 6.66535L14.2392 5.98331L14.1337 4.93327L15.0309 5.48785L15.9969 5.06318L15.7466 6.08863L16.4486 6.87546" fill="white"/>
<path fill-rule="evenodd" clip-rule="evenodd" d="M8.43487 11.3856L7.90308 12.2971L7.50296 11.3201L6.47258 11.0971L7.27773 10.415L7.17226 9.365L8.06946 9.91957L9.03543 9.4949L8.7852 10.5203L9.48721 11.3072" fill="white"/>
<path d="M19 0.0386792H21.0002L0.00244141 13.0387L0 12.0387L19 0.0386792Z" fill="#FFCD00"/>
<path d="M3.0001 16.0385L24 3.0388V4.03868L5.00001 16.0387L3.0001 16.0385Z" fill="#FFCD00"/>
<path fill-rule="evenodd" clip-rule="evenodd" d="M22 1H2C1.44772 1 1 1.44772 1 2V14C1 14.5523 1.44772 15 2 15H22C22.5523 15 23 14.5523 23 14V2C23 1.44772 22.5523 1 22 1ZM2 0C0.895432 0 0 0.895432 0 2V14C0 15.1046 0.895431 16 2 16H22C23.1046 16 24 15.1046 24 14V2C24 0.895432 23.1046 0 22 0H2Z" fill="black" fill-opacity="0.08"/>
</g>
</g>
</svg>
