<svg width="32" height="32" viewBox="0 0 32 32" fill="none" xmlns="http://www.w3.org/2000/svg">
<g id="trade types / md / ups-and-downs-only-ups-md">
<g id="icon">
<path d="M10.6668 24V26.6666H8.00016V24H10.6668ZM26.6668 5.33331V26.6666H24.0002V5.33331H26.6668ZM21.3335 16V26.6666H18.6668V16H21.3335ZM16.0002 21.3333V26.6666H13.3335V21.3333H16.0002ZM9.8855 18.6666L7.21883 21.3333H5.3335V18.6666H9.8855Z" fill="#85ACB0"/>
<path d="M18.6668 5.33331H12.0002V5.34665C12.0002 6.81204 13.1881 7.99998 14.6535 7.99998H16.7868L10.6668 14.1146V17.8853L18.6668 9.88531V12.0186C18.6698 13.482 19.8568 14.6666 21.3202 14.6666H21.3335V7.99998C21.3335 6.52722 20.1396 5.33331 18.6668 5.33331Z" fill="#FF444F"/>
</g>
</g>
</svg>
