<svg width="32" height="32" viewBox="0 0 32 32" fill="none" xmlns="http://www.w3.org/2000/svg">
<g id="trade types / md / digits-differs-md">
<g id="icon">
<path d="M26 15.984V18.6667H18.888L21.3333 21.1133C21.8315 21.6108 22.1115 22.286 22.1115 22.99C22.1115 23.6941 21.8315 24.3692 21.3333 24.8667L21.3253 24.876L16 19.5507L18.9973 16.5533C19.1588 16.3878 19.2977 16.2018 19.4107 16L26 15.984ZM10.6747 5.79067L16.3307 11.448C17.3717 12.4893 17.3717 14.1773 16.3307 15.2187L10.6747 20.876L10.6667 20.8667C10.1685 20.3694 9.88861 19.6945 9.88861 18.9907C9.88861 18.2868 10.1685 17.6119 10.6667 17.1147L13.112 14.6667L6 14.6827V12H13.112L10.6667 9.55334C10.1685 9.05587 9.88849 8.38072 9.88849 7.67667C9.88849 6.97262 10.1685 6.29746 10.6667 5.8L10.6747 5.79067ZM21.324 9.79067C21.8327 10.2974 22.1134 10.9732 22.1134 11.678C22.1134 12.3045 21.8916 12.9081 21.4916 13.3838L21.3333 13.556L19.7333 15.156C19.8811 14.3636 19.6621 13.551 19.1455 12.9422L18.9973 12.7813L18.6667 12.4493L21.324 9.79067Z" fill="#FF444F"/>
<path d="M18 22.6666V26.6666H15.3333V22.6666H18ZM18 5.33331V9.33331H15.3333V5.33331H18Z" fill="#85ACB0"/>
</g>
</g>
</svg>
