<svg width="32" height="32" viewBox="0 0 32 32" fill="none" xmlns="http://www.w3.org/2000/svg">
<g id="trade types / md / highs-and-lows-high-md">
<g id="icon">
<path d="M26.6668 24V26.6666H5.3335V24H26.6668ZM26.6668 5.33331V7.99998H16.0002L18.6668 5.33331H26.6668ZM13.3335 5.33331L16.0002 7.99998H5.3335V5.33331H13.3335Z" fill="#85ACB0"/>
<path d="M26.6535 11.9998C25.1881 11.9998 24.0002 13.1878 24.0002 14.6532V16.7865L17.8855 10.6665C16.8442 9.62547 15.1562 9.62547 14.1148 10.6665L8.00016 16.7812L5.3335 14.1145V17.8852L6.11483 18.6665C7.15616 19.7075 8.84416 19.7075 9.8855 18.6665L16.0002 12.5518L22.1148 18.6665H19.9815C18.5182 18.6694 17.3335 19.8565 17.3335 21.3198V21.3332H24.0002C25.4729 21.3332 26.6668 20.1392 26.6668 18.6665V11.9998H26.6535Z" fill="#FF444F"/>
</g>
</g>
</svg>
