<svg width="32" height="32" viewBox="0 0 32 32" fill="none" xmlns="http://www.w3.org/2000/svg">
<g id="trade types / md / ups-and-downs-only-downs-md">
<g id="icon">
<path d="M26.6668 5.33331V26.6666H24.0002V5.33331H26.6668ZM21.3335 5.33331V16H18.6668V5.33331H21.3335ZM7.21883 10.6666L9.8855 13.3333H5.3335V10.6666H7.21883ZM16.0002 5.33331V10.6666H13.3335V5.33331H16.0002ZM10.6668 5.33331V7.99998H8.00016V5.33331H10.6668Z" fill="#85ACB0"/>
<path d="M21.3202 17.3334C19.8548 17.3334 18.6668 18.5214 18.6668 19.9868V22.1201L10.6668 14.1201V17.8854L16.7815 24.0001H14.6535C13.1881 24.0001 12.0002 25.188 12.0002 26.6534V26.6668H18.6668C20.1396 26.6668 21.3335 25.4729 21.3335 24.0001V17.3334H21.3202Z" fill="#FF444F"/>
</g>
</g>
</svg>
