<svg width="32" height="32" viewBox="0 0 32 32" fill="none" xmlns="http://www.w3.org/2000/svg">
<g id="trade types / md / ins-and-outs-ends-in-md">
<g id="icon">
<path d="M26.6668 24V26.6666H5.3335V24H26.6668ZM26.6668 5.33331V7.99998H5.3335V5.33331H26.6668Z" fill="#85ACB0"/>
<path d="M25.8855 14.1146L21.4948 9.72394L21.4868 9.73327C20.9887 10.2305 20.7088 10.9054 20.7088 11.6093C20.7088 12.3131 20.9887 12.988 21.4868 13.4853L22.6668 14.6666H13.3335V17.3333H22.6668L21.4868 18.5146C20.9887 19.0118 20.7088 19.6868 20.7088 20.3906C20.7088 21.0944 20.9887 21.7694 21.4868 22.2666L21.4948 22.2759L25.8855 17.8853C26.9265 16.8439 26.9265 15.1559 25.8855 14.1146Z" fill="#FF444F"/>
</g>
</g>
</svg>
