<svg width="32" height="32" viewBox="0 0 32 32" fill="none" xmlns="http://www.w3.org/2000/svg">
<g id="trade types / md / highs-and-lows-low-md">
<g id="icon">
<path d="M26.6668 24V26.6666H18.6668L16.0002 24H26.6668ZM16.0002 24L13.3335 26.6666H5.3335V24H16.0002ZM26.6668 5.33331V7.99998H5.3335V5.33331H26.6668Z" fill="#85ACB0"/>
<path d="M24.0002 10.6666H17.3335V10.68C17.3335 12.1454 18.5214 13.3333 19.9868 13.3333H22.1202L16.0002 19.448L9.8855 13.3333C8.84416 12.2923 7.15616 12.2923 6.11483 13.3333L5.3335 14.1146V17.8853L8.00016 15.2186L14.1148 21.3333C15.1562 22.3743 16.8442 22.3743 17.8855 21.3333L24.0002 15.2186V17.352C24.0031 18.8153 25.1902 20 26.6535 20H26.6668V13.3333C26.6668 11.8606 25.4729 10.6666 24.0002 10.6666Z" fill="#FF444F"/>
</g>
</g>
</svg>
