<svg width="32" height="32" viewBox="0 0 32 32" fill="none" xmlns="http://www.w3.org/2000/svg">
<g id="trade types / md / ups-and-downs-reset-up-md">
<g id="icon">
<path d="M10.6668 24V26.6666H5.3335V24H10.6668ZM26.6668 24V26.6666H18.6668V24H26.6668ZM16.0002 5.33331V26.6666H13.3335V5.33331H16.0002ZM10.6668 5.33331V7.99998H5.3335V5.33331H10.6668Z" fill="#85ACB0"/>
<path d="M13.3335 16.7813V20.552L12.5522 21.3333H5.3335V18.6666H11.4482L13.3335 16.7813ZM24.0002 5.33331C25.4729 5.33331 26.6668 6.52722 26.6668 7.99998V14.6666H26.6535C25.1902 14.6666 24.0031 13.482 24.0002 12.0186V9.88531L17.3335 16.552V12.7813L22.1202 7.99998H19.9868C18.5214 7.99998 17.3335 6.81204 17.3335 5.34665V5.33331H24.0002Z" fill="#FF444F"/>
</g>
</g>
</svg>
