<svg width="32" height="32" viewBox="0 0 32 32" fill="none" xmlns="http://www.w3.org/2000/svg">
<g id="trade types / md / spreads-put-md">
<g id="icon">
<path d="M12.0002 24V26.6666H5.3335V24H12.0002ZM21.1722 9.39998L25.8855 14.1146C26.0465 14.2797 26.185 14.4653 26.2975 14.6666C26.7898 15.4874 26.7898 16.5126 26.2975 17.3333H19.2188L16.5522 14.6666H22.6668L21.1628 13.1626C20.6646 12.6652 20.3847 11.99 20.3847 11.286C20.3847 10.5819 20.6646 9.90677 21.1628 9.40931L21.1722 9.39998ZM26.6668 5.33331V7.99998H5.3335V5.33331H26.6668Z" fill="#85ACB0"/>
<path d="M21.3335 20V22.1146L13.8855 14.6666H5.3335V17.3333H12.7815L19.4482 24H17.3202C15.8548 24 14.6668 25.1879 14.6668 26.6533V26.6666H21.3335C22.8063 26.6666 24.0002 25.4727 24.0002 24V20H21.3335Z" fill="#FF444F"/>
</g>
</g>
</svg>
