<svg width="32" height="32" viewBox="0 0 32 32" fill="none" xmlns="http://www.w3.org/2000/svg">
<g id="trade types / md / digits-matches-md">
<g id="icon">
<path d="M10.0095 8.45734L15.6642 14.1147C16.7052 15.156 16.7052 16.844 15.6642 17.8853L10.0082 23.5427L10.0002 23.5333C9.50203 23.0361 9.2221 22.3612 9.2221 21.6573C9.2221 20.9535 9.50203 20.2786 10.0002 19.7813L12.4455 17.3333L5.3335 17.3493V14.6667H12.4455L10.0002 12.22C9.50195 11.7225 9.22199 11.0474 9.22199 10.3433C9.22199 9.63929 9.50195 8.96413 10.0002 8.46667L10.0095 8.45734ZM21.9908 8.45734L22.0002 8.46667C22.4983 8.9639 22.7782 9.63884 22.7782 10.3427C22.7782 11.0465 22.4983 11.7214 22.0002 12.2187L19.5548 14.6667L26.6668 14.6507V17.3333H19.5548L22.0015 19.78C22.4997 20.2775 22.7797 20.9526 22.7797 21.6567C22.7797 22.3607 22.4997 23.0359 22.0015 23.5333L21.9922 23.5427L17.3335 18.884L18.3308 17.8853C19.3718 16.844 19.3718 15.156 18.3308 14.1147L17.3335 13.116L21.9908 8.45734Z" fill="#FF444F"/>
<path d="M17.3335 21.3333V26.6666H14.6668V21.3333H17.3335ZM17.3335 5.33331V10.6666H14.6668V5.33331H17.3335Z" fill="#85ACB0"/>
</g>
</g>
</svg>
