<svg width="32" height="32" viewBox="0 0 32 32" fill="none" xmlns="http://www.w3.org/2000/svg">
<g id="trade types / md / ups-and-downs-reset-down-md">
<g id="icon">
<path d="M16.0002 5.33331V26.6666H13.3335V5.33331H16.0002ZM10.6668 24V26.6666H5.3335V24H10.6668ZM10.6668 5.33331V7.99998H5.3335V5.33331H10.6668ZM26.6668 5.33331V7.99998H18.6668V5.33331H26.6668Z" fill="#85ACB0"/>
<path d="M17.3335 15.4533L24.0002 22.12V19.9866C24.0002 18.5212 25.1881 17.3333 26.6535 17.3333H26.6668V24C26.6668 25.4727 25.4729 26.6666 24.0002 26.6666H17.3335V26.6533C17.3335 25.19 18.5182 24.0029 19.9815 24H22.1148L17.3335 19.224V15.4533ZM12.5522 10.6666L13.3335 11.448V15.2186L11.4482 13.3333H5.3335V10.6666H12.5522Z" fill="#FF444F"/>
</g>
</g>
</svg>
