<svg width="32" height="32" viewBox="0 0 32 32" fill="none" xmlns="http://www.w3.org/2000/svg">
<g id="trade types / md / ins-and-outs-stays-in-md">
<g id="icon">
<path d="M26.6668 24V26.6666H5.3335V24H26.6668ZM13.3335 13.3333V18.6666H10.6668V13.3333H13.3335ZM26.6668 5.33331V7.99998H5.3335V5.33331H26.6668Z" fill="#85ACB0"/>
<path d="M21.1495 9.45603L25.8668 14.1694C26.3672 14.6695 26.6483 15.3479 26.6483 16.0554C26.6483 16.7628 26.3672 17.4412 25.8668 17.9414L21.1495 22.6547L21.1388 22.6454C20.1029 21.6092 20.1029 19.9295 21.1388 18.8934L22.6988 17.3334H14.6668V14.6667H22.5882L21.1388 13.2174C20.1029 12.1812 20.1029 10.5015 21.1388 9.46537L21.1495 9.45603ZM9.3335 14.6667V17.3334H5.3335V14.6667H9.3335Z" fill="#FF444F"/>
</g>
</g>
</svg>
