<svg width="32" height="32" viewBox="0 0 32 32" fill="none" xmlns="http://www.w3.org/2000/svg">
<g id="markets / market-derived-volatility-over-crash-400">
<g id="icon">
<path d="M20.5 13.0001H22V22H20.5V32H19.5V22H18V13.0001H19.5V11.0001H20.5V13.0001Z" fill="#0AA0B0"/>
<path d="M14.5 20V16H13.5V20H12V28H13.5V30H14.5V28H16V20H14.5Z" fill="#0AA0B0"/>
<path d="M8.5 15H10V21H8.5V28H7.5V21H6V15H7.5V13H8.5V15Z" fill="#0AA0B0"/>
<path d="M2.5 19H4V23H2.5V25H1.5V23H0V19H1.5V17H2.5V19Z" fill="#0AA0B0"/>
<path d="M27.2929 28L32 23.2929L30.5858 21.8787L28.2929 24.1716L28.2929 6.00001H26.2929L26.2929 24.1716L24 21.8787L22.5858 23.2929L27.2929 28Z" fill="#FF444F"/>
<path d="M0 2C0 0.89543 0.895431 0 2 0H17C18.1046 0 19 0.895431 19 2V8C19 9.10457 18.1046 10 17 10H2C0.895431 10 0 9.10457 0 8V2Z" fill="#414652"/>
<path d="M5.00069 8V6.928H2.54469V5.904L4.72069 2.416H6.14469V6H6.84869V6.928H6.14469V8H5.00069ZM3.50469 6H5.00069V3.656H4.92069L3.50469 6Z" fill="white"/>
<path d="M9.50156 8.096C8.7709 8.096 8.22956 7.84267 7.87756 7.336C7.52556 6.82933 7.34956 6.12 7.34956 5.208C7.34956 4.296 7.52556 3.58667 7.87756 3.08C8.22956 2.57333 8.7709 2.32 9.50156 2.32C10.2322 2.32 10.7736 2.57333 11.1256 3.08C11.4776 3.58667 11.6536 4.296 11.6536 5.208C11.6536 6.12 11.4776 6.82933 11.1256 7.336C10.7736 7.84267 10.2322 8.096 9.50156 8.096ZM9.50156 7.08C9.82156 7.08 10.0429 6.96267 10.1656 6.728C10.2882 6.49333 10.3496 6.16267 10.3496 5.736V4.68C10.3496 4.25333 10.2882 3.92267 10.1656 3.688C10.0429 3.45333 9.82156 3.336 9.50156 3.336C9.18156 3.336 8.96023 3.45333 8.83756 3.688C8.7149 3.92267 8.65356 4.25333 8.65356 4.68V5.736C8.65356 6.16267 8.7149 6.49333 8.83756 6.728C8.96023 6.96267 9.18156 7.08 9.50156 7.08Z" fill="white"/>
<path d="M14.2984 8.096C13.5678 8.096 13.0264 7.84267 12.6744 7.336C12.3224 6.82933 12.1464 6.12 12.1464 5.208C12.1464 4.296 12.3224 3.58667 12.6744 3.08C13.0264 2.57333 13.5678 2.32 14.2984 2.32C15.0291 2.32 15.5704 2.57333 15.9224 3.08C16.2744 3.58667 16.4504 4.296 16.4504 5.208C16.4504 6.12 16.2744 6.82933 15.9224 7.336C15.5704 7.84267 15.0291 8.096 14.2984 8.096ZM14.2984 7.08C14.6184 7.08 14.8398 6.96267 14.9624 6.728C15.0851 6.49333 15.1464 6.16267 15.1464 5.736V4.68C15.1464 4.25333 15.0851 3.92267 14.9624 3.688C14.8398 3.45333 14.6184 3.336 14.2984 3.336C13.9784 3.336 13.7571 3.45333 13.6344 3.688C13.5118 3.92267 13.4504 4.25333 13.4504 4.68V5.736C13.4504 6.16267 13.5118 6.49333 13.6344 6.728C13.7571 6.96267 13.9784 7.08 14.2984 7.08Z" fill="white"/>
</g>
</g>
</svg>
