<svg width="32" height="32" viewBox="0 0 32 32" fill="none" xmlns="http://www.w3.org/2000/svg">
<g id="markets / market-stocks-nokia" clip-path="url(#clip0_3738_673)">
<g id="icon">
<path d="M32 16C32 24.8366 24.8366 32 16 32C7.16344 32 0 24.8366 0 16C0 7.16344 7.16344 0 16 0C24.8366 0 32 7.16344 32 16Z" fill="#F6F7F8"/>
<path d="M20.7603 13.2499V18.7501H21.5852V13.2499H20.7603ZM11.9477 13.156C10.3408 13.156 9.09398 14.3256 9.09398 16C9.09398 17.7498 10.3408 18.844 11.9477 18.844C13.5547 18.844 14.8041 17.7498 14.8015 16C14.7992 14.4136 13.5547 13.156 11.9477 13.156ZM13.9781 16C13.9781 17.2396 13.0691 18.061 11.9477 18.061C10.8264 18.061 9.91735 17.2396 9.91735 16C9.91735 14.7829 10.8264 13.939 11.9477 13.939C13.0691 13.939 13.9781 14.7829 13.9781 16ZM3.55533 13.0718V18.7501H4.39717V14.9976L8.77181 18.9282V17.7509L3.55533 13.0718ZM15.4219 16L18.4832 18.7501H19.7107L16.6448 16L19.7107 13.2499H18.4832L15.4219 16ZM28.4447 18.7501H27.5372L26.8737 17.5321H23.8683L23.2046 18.7501H22.2971L23.3961 16.72H26.4421L24.9233 13.8987L25.371 13.0718L28.4447 18.7501Z" fill="#005AFF"/>
</g>
</g>
<defs>
<clipPath id="clip0_3738_673">
<rect width="32" height="32" fill="white"/>
</clipPath>
</defs>
</svg>
