<svg width="32" height="32" viewBox="0 0 32 32" fill="none" xmlns="http://www.w3.org/2000/svg">
<g id="markets / market-soft-commodity-sugar">
<g id="icon">
<path d="M16 32C24.8366 32 32 24.8366 32 16C32 7.16344 24.8366 0 16 0C7.16344 0 0 7.16344 0 16C0 24.8366 7.16344 32 16 32Z" fill="#0777C4"/>
<path d="M10.5477 14.4C9.95413 15.3067 9.6 16.7829 9.6 18.4C9.59668 19.1903 9.68799 19.9781 9.872 20.7467C9.96777 21.1351 9.91569 21.5452 9.72587 21.8973C9.61618 22.1032 9.57702 22.3394 9.6144 22.5697C9.65177 22.8 9.76362 23.0117 9.9328 23.1723C10.102 23.333 10.3192 23.4337 10.5511 23.4592C10.783 23.4846 11.0168 23.4333 11.2168 23.3131C11.5697 23.0873 11.9967 23.0079 12.4072 23.0917C13.5873 23.3488 14.7922 23.4746 16 23.4667C17.2078 23.4751 18.4128 23.3499 19.5931 23.0933C20.0035 23.0096 20.4303 23.089 20.7832 23.3147C20.9831 23.4348 21.2169 23.4861 21.4488 23.4606C21.6806 23.4352 21.8978 23.3345 22.0669 23.1739C22.2361 23.0133 22.3479 22.8017 22.3854 22.5715C22.4228 22.3412 22.3837 22.1051 22.2741 21.8992C22.0839 21.5465 22.0318 21.1357 22.128 20.7467C22.312 19.9781 22.4033 19.1903 22.4 18.4C22.4 16.7829 22.0459 15.3067 21.4523 14.4H10.5477ZM11.0667 19.7333C10.8516 19.7329 10.6432 19.6585 10.4766 19.5225C10.31 19.3865 10.1952 19.1973 10.1517 18.9867C10.1447 18.9523 10.1446 18.917 10.1512 18.8825C10.1579 18.8481 10.1713 18.8154 10.1906 18.7862C10.2099 18.7569 10.2348 18.7318 10.2639 18.7122C10.2929 18.6926 10.3255 18.6789 10.3599 18.6719C10.3942 18.6649 10.4296 18.6647 10.464 18.6714C10.4984 18.678 10.5311 18.6914 10.5604 18.7107C10.5896 18.7301 10.6147 18.755 10.6344 18.784C10.654 18.813 10.6677 18.8457 10.6747 18.88C10.6898 18.9542 10.7257 19.0225 10.7781 19.0771C10.8305 19.1317 10.8973 19.1703 10.9708 19.1884C11.0443 19.2065 11.1214 19.2034 11.1932 19.1794C11.265 19.1555 11.3285 19.1116 11.3764 19.053C11.4243 18.9944 11.4545 18.9234 11.4637 18.8483C11.4728 18.7731 11.4604 18.697 11.428 18.6286C11.3956 18.5602 11.3444 18.5024 11.2804 18.462C11.2165 18.4215 11.1423 18.4 11.0667 18.4C10.8901 18.3999 10.7172 18.3497 10.5679 18.2553C10.4187 18.1609 10.2994 18.026 10.2238 17.8665C10.1481 17.7069 10.1193 17.5292 10.1406 17.3539C10.162 17.1786 10.2326 17.0129 10.3443 16.8762C10.456 16.7394 10.6042 16.6372 10.7717 16.5813C10.9392 16.5254 11.1192 16.5182 11.2906 16.5605C11.4621 16.6028 11.618 16.6928 11.7403 16.8202C11.8626 16.9475 11.9463 17.107 11.9816 17.28C11.9957 17.3493 11.9818 17.4215 11.9427 17.4805C11.9037 17.5395 11.8428 17.5807 11.7735 17.5948C11.7041 17.6089 11.632 17.595 11.573 17.5559C11.5139 17.5169 11.4728 17.456 11.4587 17.3867C11.4435 17.3125 11.4077 17.2442 11.3552 17.1896C11.3028 17.135 11.236 17.0964 11.1625 17.0783C11.089 17.0602 11.0119 17.0633 10.9401 17.0872C10.8683 17.1112 10.8048 17.155 10.7569 17.2137C10.7091 17.2723 10.6788 17.3433 10.6697 17.4184C10.6605 17.4935 10.6729 17.5697 10.7053 17.6381C10.7378 17.7065 10.7889 17.7642 10.8529 17.8047C10.9169 17.8452 10.991 17.8667 11.0667 17.8667C11.3142 17.8667 11.5516 17.965 11.7266 18.14C11.9017 18.3151 12 18.5525 12 18.8C12 19.0475 11.9017 19.2849 11.7266 19.46C11.5516 19.635 11.3142 19.7333 11.0667 19.7333ZM14.4 18.8C14.4 19.0475 14.3017 19.2849 14.1266 19.46C13.9516 19.635 13.7142 19.7333 13.4667 19.7333C13.2191 19.7333 12.9817 19.635 12.8067 19.46C12.6317 19.2849 12.5333 19.0475 12.5333 18.8V16.8C12.5333 16.7293 12.5614 16.6614 12.6114 16.6114C12.6614 16.5614 12.7293 16.5333 12.8 16.5333C12.8707 16.5333 12.9386 16.5614 12.9886 16.6114C13.0386 16.6614 13.0667 16.7293 13.0667 16.8V18.8C13.0667 18.9061 13.1088 19.0078 13.1838 19.0828C13.2588 19.1579 13.3606 19.2 13.4667 19.2C13.5728 19.2 13.6745 19.1579 13.7495 19.0828C13.8245 19.0078 13.8667 18.9061 13.8667 18.8V16.8C13.8667 16.7293 13.8948 16.6614 13.9448 16.6114C13.9948 16.5614 14.0626 16.5333 14.1333 16.5333C14.2041 16.5333 14.2719 16.5614 14.3219 16.6114C14.3719 16.6614 14.4 16.7293 14.4 16.8V18.8ZM16.8 18.8C16.8 19.0475 16.7017 19.2849 16.5266 19.46C16.3516 19.635 16.1142 19.7333 15.8667 19.7333C15.6191 19.7333 15.3817 19.635 15.2067 19.46C15.0317 19.2849 14.9333 19.0475 14.9333 18.8V17.4667C14.9328 17.235 15.0184 17.0114 15.1736 16.8393C15.3287 16.6673 15.5424 16.5591 15.7729 16.5358C16.0034 16.5125 16.2343 16.5758 16.4208 16.7133C16.6072 16.8509 16.7358 17.0529 16.7816 17.28C16.7957 17.3493 16.7818 17.4215 16.7427 17.4805C16.7037 17.5395 16.6428 17.5807 16.5735 17.5948C16.5041 17.6089 16.432 17.595 16.373 17.5559C16.3139 17.5169 16.2728 17.456 16.2587 17.3867C16.2389 17.2895 16.1838 17.203 16.1039 17.1442C16.024 17.0854 15.9252 17.0583 15.8265 17.0683C15.7278 17.0783 15.6363 17.1245 15.5698 17.1982C15.5033 17.2718 15.4666 17.3675 15.4667 17.4667V18.8C15.4667 18.9061 15.5088 19.0078 15.5838 19.0828C15.6588 19.1579 15.7606 19.2 15.8667 19.2C15.9728 19.2 16.0745 19.1579 16.1495 19.0828C16.2245 19.0078 16.2667 18.9061 16.2667 18.8V18.6667C16.1959 18.6667 16.1281 18.6386 16.0781 18.5886C16.0281 18.5386 16 18.4707 16 18.4C16 18.3293 16.0281 18.2614 16.0781 18.2114C16.1281 18.1614 16.1959 18.1333 16.2667 18.1333H16.5333C16.6041 18.1333 16.6719 18.1614 16.7219 18.2114C16.7719 18.2614 16.8 18.3293 16.8 18.4V18.8ZM19.2 19.4667C19.2 19.5374 19.1719 19.6052 19.1219 19.6552C19.0719 19.7052 19.0041 19.7333 18.9333 19.7333C18.8626 19.7333 18.7948 19.7052 18.7448 19.6552C18.6948 19.6052 18.6667 19.5374 18.6667 19.4667V18.6667H17.8667V19.4667C17.8667 19.5374 17.8386 19.6052 17.7886 19.6552C17.7386 19.7052 17.6707 19.7333 17.6 19.7333C17.5293 19.7333 17.4614 19.7052 17.4114 19.6552C17.3614 19.6052 17.3333 19.5374 17.3333 19.4667V17.4667C17.3333 17.2191 17.4317 16.9817 17.6067 16.8067C17.7817 16.6317 18.0191 16.5333 18.2667 16.5333C18.5142 16.5333 18.7516 16.6317 18.9266 16.8067C19.1017 16.9817 19.2 17.2191 19.2 17.4667V19.4667ZM21.6 19.2V19.4667C21.6 19.5374 21.5719 19.6052 21.5219 19.6552C21.4719 19.7052 21.4041 19.7333 21.3333 19.7333C21.2626 19.7333 21.1948 19.7052 21.1448 19.6552C21.0948 19.6052 21.0667 19.5374 21.0667 19.4667V19.2C21.0667 19.0586 21.0105 18.9229 20.9105 18.8229C20.8104 18.7229 20.6748 18.6667 20.5333 18.6667H20.2667V19.4667C20.2667 19.5374 20.2386 19.6052 20.1886 19.6552C20.1386 19.7052 20.0707 19.7333 20 19.7333C19.9293 19.7333 19.8614 19.7052 19.8114 19.6552C19.7614 19.6052 19.7333 19.5374 19.7333 19.4667V16.8C19.7333 16.7293 19.7614 16.6614 19.8114 16.6114C19.8614 16.5614 19.9293 16.5333 20 16.5333H20.5333C20.7505 16.5324 20.9628 16.598 21.1415 16.7214C21.3202 16.8448 21.4568 17.02 21.5329 17.2234C21.609 17.4268 21.6208 17.6486 21.567 17.859C21.5131 18.0694 21.396 18.2582 21.2315 18.4C21.3467 18.4991 21.4392 18.6219 21.5028 18.7599C21.5663 18.8979 21.5995 19.048 21.6 19.2Z" fill="white"/>
<path d="M18.2667 17.0667C18.1606 17.0667 18.0588 17.1088 17.9838 17.1838C17.9088 17.2588 17.8667 17.3606 17.8667 17.4667V18.1333H18.6667V17.4667C18.6667 17.3606 18.6245 17.2588 18.5495 17.1838C18.4745 17.1088 18.3728 17.0667 18.2667 17.0667Z" fill="white"/>
<path d="M20.5333 17.0667H20.2667V18.1333H20.5333C20.6748 18.1333 20.8104 18.0771 20.9105 17.9771C21.0105 17.8771 21.0667 17.7414 21.0667 17.6C21.0667 17.4586 21.0105 17.3229 20.9105 17.2229C20.8104 17.1229 20.6748 17.0667 20.5333 17.0667Z" fill="white"/>
<path d="M21.8667 12.2667H10.1333C9.98606 12.2667 9.86667 12.3861 9.86667 12.5333V13.6C9.86667 13.7473 9.98606 13.8667 10.1333 13.8667H21.8667C22.0139 13.8667 22.1333 13.7473 22.1333 13.6V12.5333C22.1333 12.3861 22.0139 12.2667 21.8667 12.2667Z" fill="white"/>
<path d="M20.38 10.9293C20.3199 10.8297 20.271 10.7237 20.2341 10.6133C20.1776 10.4425 20.0844 10.2862 19.961 10.1553C19.8377 10.0244 19.6871 9.92202 19.52 9.85547L19.0176 9.65333C18.872 9.59521 18.7357 9.51586 18.6133 9.41787L17.7992 8.7672C17.6098 8.61596 17.3746 8.53351 17.1323 8.53333H16.9027C16.7093 8.53333 16.5196 8.58587 16.3539 8.68533L15.6533 9.10533C15.4048 9.25444 15.1205 9.33324 14.8307 9.33333H14.5333C14.3678 9.33377 14.2046 9.37251 14.0566 9.44653C13.9086 9.52055 13.7797 9.62784 13.68 9.76C13.5305 9.95824 13.3372 10.1192 13.1151 10.2302C12.893 10.3412 12.6483 10.3994 12.4 10.4C12.1751 10.3997 11.9551 10.4656 11.7673 10.5894C11.5795 10.7132 11.4323 10.8894 11.344 11.0963L11.0709 11.7333H20.8624L20.38 10.9293ZM13.8667 11.2H13.3333C13.2626 11.2 13.1948 11.1719 13.1448 11.1219C13.0948 11.0719 13.0667 11.0041 13.0667 10.9333C13.0667 10.8626 13.0948 10.7948 13.1448 10.7448C13.1948 10.6948 13.2626 10.6667 13.3333 10.6667H13.8667C13.9374 10.6667 14.0052 10.6948 14.0552 10.7448C14.1052 10.7948 14.1333 10.8626 14.1333 10.9333C14.1333 11.0041 14.1052 11.0719 14.0552 11.1219C14.0052 11.1719 13.9374 11.2 13.8667 11.2ZM15.2 10.4H14.6667C14.5959 10.4 14.5281 10.3719 14.4781 10.3219C14.4281 10.2719 14.4 10.2041 14.4 10.1333C14.4 10.0626 14.4281 9.99478 14.4781 9.94477C14.5281 9.89476 14.5959 9.86667 14.6667 9.86667H15.2C15.2707 9.86667 15.3386 9.89476 15.3886 9.94477C15.4386 9.99478 15.4667 10.0626 15.4667 10.1333C15.4667 10.2041 15.4386 10.2719 15.3886 10.3219C15.3386 10.3719 15.2707 10.4 15.2 10.4ZM16.8 11.2H16.2667C16.1959 11.2 16.1281 11.1719 16.0781 11.1219C16.0281 11.0719 16 11.0041 16 10.9333C16 10.8626 16.0281 10.7948 16.0781 10.7448C16.1281 10.6948 16.1959 10.6667 16.2667 10.6667H16.8C16.8707 10.6667 16.9386 10.6948 16.9886 10.7448C17.0386 10.7948 17.0667 10.8626 17.0667 10.9333C17.0667 11.0041 17.0386 11.0719 16.9886 11.1219C16.9386 11.1719 16.8707 11.2 16.8 11.2ZM17.6 9.86667H17.0667C16.9959 9.86667 16.9281 9.83857 16.8781 9.78856C16.8281 9.73855 16.8 9.67072 16.8 9.6C16.8 9.52927 16.8281 9.46145 16.8781 9.41144C16.9281 9.36143 16.9959 9.33333 17.0667 9.33333H17.6C17.6707 9.33333 17.7386 9.36143 17.7886 9.41144C17.8386 9.46145 17.8667 9.52927 17.8667 9.6C17.8667 9.67072 17.8386 9.73855 17.7886 9.78856C17.7386 9.83857 17.6707 9.86667 17.6 9.86667ZM18.9333 11.2H18.4C18.3293 11.2 18.2614 11.1719 18.2114 11.1219C18.1614 11.0719 18.1333 11.0041 18.1333 10.9333C18.1333 10.8626 18.1614 10.7948 18.2114 10.7448C18.2614 10.6948 18.3293 10.6667 18.4 10.6667H18.9333C19.0041 10.6667 19.0719 10.6948 19.1219 10.7448C19.1719 10.7948 19.2 10.8626 19.2 10.9333C19.2 11.0041 19.1719 11.0719 19.1219 11.1219C19.0719 11.1719 19.0041 11.2 18.9333 11.2Z" fill="white"/>
</g>
</g>
</svg>
