<svg width="32" height="32" viewBox="0 0 32 32" fill="none" xmlns="http://www.w3.org/2000/svg">
<g id="markets / market-derived-range-break-100">
<g id="icon">
<path fill-rule="evenodd" clip-rule="evenodd" d="M28.9999 16C30.6568 16 31.9999 14.6568 31.9999 13C31.9999 11.3431 30.6568 9.99998 28.9999 9.99998C27.3431 9.99998 25.9999 11.3431 25.9999 13C25.9999 13.4631 26.1049 13.9017 26.2923 14.2934L18.4999 22.0858L13.9999 17.5858L9.49993 22.0858L4.99994 17.5858L0 22.5857V25.4141L4.99994 20.4142L9.49993 24.9142L13.9999 20.4142L18.4999 24.9142L27.7065 15.7076C28.0981 15.895 28.5368 16 28.9999 16ZM28.9999 14C29.5522 14 29.9999 13.5523 29.9999 13C29.9999 12.4477 29.5522 12 28.9999 12C28.4476 12 27.9999 12.4477 27.9999 13C27.9999 13.5523 28.4476 14 28.9999 14Z" fill="#0AA0B0"/>
<path d="M22.0172 14H0V12H23.9999L22.0172 14Z" fill="#0AA0B0"/>
<path d="M24 31.9999H3.05175e-05V29.9999H24V31.9999Z" fill="#0AA0B0"/>
</g>
<g id="icon_2">
<path d="M21.7929 23.2071L23.5929 25.0071L25.0071 23.5929L23.2071 21.7929L21.7929 23.2071Z" fill="#FF444F"/>
<path fill-rule="evenodd" clip-rule="evenodd" d="M26.2924 27.7066L24.4929 25.9071L25.9071 24.4929L27.7066 26.2924C28.0983 26.105 28.5369 26 29.0001 26C30.6569 26 32 27.3432 32 29C32 30.6569 30.6569 32 29.0001 32C27.3432 32 26.0001 30.6569 26.0001 29C26.0001 28.5369 26.105 28.0983 26.2924 27.7066ZM30.0001 29C30.0001 29.5523 29.5523 30 29.0001 30C28.4478 30 28.0001 29.5523 28.0001 29C28.0001 28.4477 28.4478 28 29.0001 28C29.5523 28 30.0001 28.4477 30.0001 29Z" fill="#FF444F"/>
</g>
<g id="icon_3">
<path d="M9.50157 7.07999C9.82157 7.07999 10.0429 6.96266 10.1656 6.72799C10.2882 6.49333 10.3496 6.16266 10.3496 5.73599V4.68C10.3496 4.25333 10.2882 3.92266 10.1656 3.688C10.0429 3.45333 9.82157 3.336 9.50157 3.336C9.18157 3.336 8.96024 3.45333 8.83757 3.688C8.7149 3.92266 8.65357 4.25333 8.65357 4.68V5.73599C8.65357 6.16266 8.7149 6.49333 8.83757 6.72799C8.96024 6.96266 9.18157 7.07999 9.50157 7.07999Z" fill="#414652"/>
<path d="M14.9624 6.72799C14.8398 6.96266 14.6184 7.07999 14.2984 7.07999C13.9784 7.07999 13.7571 6.96266 13.6344 6.72799C13.5118 6.49333 13.4504 6.16266 13.4504 5.73599V4.68C13.4504 4.25333 13.5118 3.92266 13.6344 3.688C13.7571 3.45333 13.9784 3.336 14.2984 3.336C14.6184 3.336 14.8398 3.45333 14.9624 3.688C15.0851 3.92266 15.1464 4.25333 15.1464 4.68V5.73599C15.1464 6.16266 15.0851 6.49333 14.9624 6.72799Z" fill="#414652"/>
<path fill-rule="evenodd" clip-rule="evenodd" d="M2 0C0.895428 0 0 0.895428 0 2V7.99998C0 9.10455 0.895429 9.99998 2 9.99998H17C18.1045 9.99998 19 9.10455 19 7.99998V2C19 0.895428 18.1045 0 17 0H2ZM9.50157 8.09599C8.7709 8.09599 8.22957 7.84266 7.87757 7.33599C7.52557 6.82932 7.34957 6.11999 7.34957 5.208C7.34957 4.296 7.52557 3.58667 7.87757 3.08C8.22957 2.57333 8.7709 2.32 9.50157 2.32C10.2322 2.32 10.7736 2.57333 11.1256 3.08C11.4776 3.58667 11.6536 4.296 11.6536 5.208C11.6536 6.11999 11.4776 6.82932 11.1256 7.33599C10.7736 7.84266 10.2322 8.09599 9.50157 8.09599ZM3.05671 7.99999V7.03199H4.56071V3.288H4.48871L3.35271 4.776L2.58471 4.176L3.92071 2.416H5.7607V7.03199H6.9447V7.99999H3.05671ZM12.6744 7.33599C13.0264 7.84266 13.5678 8.09599 14.2984 8.09599C15.0291 8.09599 15.5704 7.84266 15.9224 7.33599C16.2744 6.82932 16.4504 6.11999 16.4504 5.208C16.4504 4.296 16.2744 3.58667 15.9224 3.08C15.5704 2.57333 15.0291 2.32 14.2984 2.32C13.5678 2.32 13.0264 2.57333 12.6744 3.08C12.3224 3.58667 12.1464 4.296 12.1464 5.208C12.1464 6.11999 12.3224 6.82932 12.6744 7.33599Z" fill="#414652"/>
<path d="M3.05671 7.99999V7.03199H4.56071V3.288H4.48871L3.35271 4.776L2.58471 4.176L3.92071 2.416H5.7607V7.03199H6.9447V7.99999H3.05671Z" fill="white"/>
<path d="M9.50157 8.09599C8.7709 8.09599 8.22957 7.84266 7.87757 7.33599C7.52557 6.82932 7.34957 6.11999 7.34957 5.208C7.34957 4.296 7.52557 3.58667 7.87757 3.08C8.22957 2.57333 8.7709 2.32 9.50157 2.32C10.2322 2.32 10.7736 2.57333 11.1256 3.08C11.4776 3.58667 11.6536 4.296 11.6536 5.208C11.6536 6.11999 11.4776 6.82932 11.1256 7.33599C10.7736 7.84266 10.2322 8.09599 9.50157 8.09599ZM9.50157 7.07999C9.82157 7.07999 10.0429 6.96266 10.1656 6.72799C10.2882 6.49333 10.3496 6.16266 10.3496 5.73599V4.68C10.3496 4.25333 10.2882 3.92266 10.1656 3.688C10.0429 3.45333 9.82157 3.336 9.50157 3.336C9.18157 3.336 8.96024 3.45333 8.83757 3.688C8.7149 3.92266 8.65357 4.25333 8.65357 4.68V5.73599C8.65357 6.16266 8.7149 6.49333 8.83757 6.72799C8.96024 6.96266 9.18157 7.07999 9.50157 7.07999Z" fill="white"/>
<path d="M14.2984 8.09599C13.5678 8.09599 13.0264 7.84266 12.6744 7.33599C12.3224 6.82932 12.1464 6.11999 12.1464 5.208C12.1464 4.296 12.3224 3.58667 12.6744 3.08C13.0264 2.57333 13.5678 2.32 14.2984 2.32C15.0291 2.32 15.5704 2.57333 15.9224 3.08C16.2744 3.58667 16.4504 4.296 16.4504 5.208C16.4504 6.11999 16.2744 6.82932 15.9224 7.33599C15.5704 7.84266 15.0291 8.09599 14.2984 8.09599ZM14.2984 7.07999C14.6184 7.07999 14.8398 6.96266 14.9624 6.72799C15.0851 6.49333 15.1464 6.16266 15.1464 5.73599V4.68C15.1464 4.25333 15.0851 3.92266 14.9624 3.688C14.8398 3.45333 14.6184 3.336 14.2984 3.336C13.9784 3.336 13.7571 3.45333 13.6344 3.688C13.5118 3.92266 13.4504 4.25333 13.4504 4.68V5.73599C13.4504 6.16266 13.5118 6.49333 13.6344 6.72799C13.7571 6.96266 13.9784 7.07999 14.2984 7.07999Z" fill="white"/>
</g>
</g>
</svg>
