<svg width="32" height="32" viewBox="0 0 32 32" fill="none" xmlns="http://www.w3.org/2000/svg">
<g id="markets / market-stocks-performance-shipping-inc" clip-path="url(#clip0_3738_668)">
<g id="icon">
<path d="M32 16C32 24.8366 24.8366 32 16 32C7.16344 32 0 24.8366 0 16C0 7.16344 7.16344 0 16 0C24.8366 0 32 7.16344 32 16Z" fill="#F6F7F8"/>
<path d="M24.4799 19.5821C26.7046 19.6028 28.1313 16.5355 28.1313 16.5355L3.5 19.6028C3.5 19.6028 23.7362 19.5725 24.4799 19.5821Z" fill="#28348A"/>
<path d="M15.6274 12.3973C13.4026 12.3765 11.9759 15.4439 11.9759 15.4439L28.5 14.6092C28.5 14.6188 16.371 12.4069 15.6274 12.3973Z" fill="#00ABA8"/>
</g>
</g>
<defs>
<clipPath id="clip0_3738_668">
<rect width="32" height="32" fill="white"/>
</clipPath>
</defs>
</svg>
