<svg width="32" height="32" viewBox="0 0 32 32" fill="none" xmlns="http://www.w3.org/2000/svg">
<g id="markets / market-derived-volatility-over-crash-550">
<g id="icon">
<path d="M20.5 13.0001H22V22H20.5V32H19.5V22H18V13.0001H19.5V11.0001H20.5V13.0001Z" fill="#0AA0B0"/>
<path d="M14.5 20V16H13.5V20H12V28H13.5V30H14.5V28H16V20H14.5Z" fill="#0AA0B0"/>
<path d="M8.5 15H10V21H8.5V28H7.5V21H6V15H7.5V13H8.5V15Z" fill="#0AA0B0"/>
<path d="M2.5 19H4V23H2.5V25H1.5V23H0V19H1.5V17H2.5V19Z" fill="#0AA0B0"/>
<path d="M27.2929 28L32 23.2929L30.5858 21.8787L28.2929 24.1716L28.2929 6.00001H26.2929L26.2929 24.1716L24 21.8787L22.5858 23.2929L27.2929 28Z" fill="#FF444F"/>
<path d="M0 2C0 0.89543 0.895431 0 2 0H17C18.1046 0 19 0.895431 19 2V8C19 9.10457 18.1046 10 17 10H2C0.895431 10 0 9.10457 0 8V2Z" fill="#414652"/>
<path d="M6.48069 3.464H3.94469L3.82469 5.232H3.88869C3.94202 5.09867 4.00069 4.97867 4.06469 4.872C4.13402 4.76 4.21402 4.66667 4.30469 4.592C4.39535 4.512 4.50469 4.45067 4.63269 4.408C4.76069 4.36533 4.91269 4.344 5.08869 4.344C5.32869 4.344 5.55269 4.384 5.76069 4.464C5.96869 4.544 6.15002 4.66133 6.30469 4.816C6.45935 4.96533 6.58202 5.152 6.67269 5.376C6.76335 5.59467 6.80869 5.84267 6.80869 6.12C6.80869 6.40267 6.76069 6.66667 6.66469 6.912C6.57402 7.152 6.43535 7.36 6.24869 7.536C6.06735 7.712 5.84335 7.85067 5.57669 7.952C5.31002 8.048 5.00602 8.096 4.66469 8.096C4.39269 8.096 4.15269 8.06667 3.94469 8.008C3.73669 7.94933 3.55269 7.872 3.39269 7.776C3.23269 7.67467 3.09402 7.56 2.97669 7.432C2.85935 7.304 2.75802 7.168 2.67269 7.024L3.54469 6.336C3.66735 6.55467 3.81402 6.74133 3.98469 6.896C4.15535 7.04533 4.38469 7.12 4.67269 7.12C4.96069 7.12 5.17669 7.03733 5.32069 6.872C5.47002 6.70667 5.54469 6.488 5.54469 6.216V6.152C5.54469 5.896 5.47002 5.69333 5.32069 5.544C5.17135 5.39467 4.96602 5.32 4.70469 5.32C4.48602 5.32 4.30469 5.36533 4.16069 5.456C4.02202 5.54133 3.91535 5.62667 3.84069 5.712L2.85669 5.576L3.06469 2.416H6.48069V3.464Z" fill="white"/>
<path d="M11.2776 3.464H8.74156L8.62156 5.232H8.68556C8.7389 5.09867 8.79756 4.97867 8.86156 4.872C8.9309 4.76 9.0109 4.66667 9.10156 4.592C9.19223 4.512 9.30156 4.45067 9.42956 4.408C9.55756 4.36533 9.70956 4.344 9.88556 4.344C10.1256 4.344 10.3496 4.384 10.5576 4.464C10.7656 4.544 10.9469 4.66133 11.1016 4.816C11.2562 4.96533 11.3789 5.152 11.4696 5.376C11.5602 5.59467 11.6056 5.84267 11.6056 6.12C11.6056 6.40267 11.5576 6.66667 11.4616 6.912C11.3709 7.152 11.2322 7.36 11.0456 7.536C10.8642 7.712 10.6402 7.85067 10.3736 7.952C10.1069 8.048 9.8029 8.096 9.46156 8.096C9.18956 8.096 8.94956 8.06667 8.74156 8.008C8.53356 7.94933 8.34956 7.872 8.18956 7.776C8.02956 7.67467 7.8909 7.56 7.77356 7.432C7.65623 7.304 7.5549 7.168 7.46956 7.024L8.34156 6.336C8.46423 6.55467 8.6109 6.74133 8.78156 6.896C8.95223 7.04533 9.18156 7.12 9.46956 7.12C9.75756 7.12 9.97356 7.03733 10.1176 6.872C10.2669 6.70667 10.3416 6.488 10.3416 6.216V6.152C10.3416 5.896 10.2669 5.69333 10.1176 5.544C9.96823 5.39467 9.7629 5.32 9.50156 5.32C9.2829 5.32 9.10156 5.36533 8.95756 5.456C8.8189 5.54133 8.71223 5.62667 8.63756 5.712L7.65356 5.576L7.86156 2.416H11.2776V3.464Z" fill="white"/>
<path d="M14.2984 8.096C13.5678 8.096 13.0264 7.84267 12.6744 7.336C12.3224 6.82933 12.1464 6.12 12.1464 5.208C12.1464 4.296 12.3224 3.58667 12.6744 3.08C13.0264 2.57333 13.5678 2.32 14.2984 2.32C15.0291 2.32 15.5704 2.57333 15.9224 3.08C16.2744 3.58667 16.4504 4.296 16.4504 5.208C16.4504 6.12 16.2744 6.82933 15.9224 7.336C15.5704 7.84267 15.0291 8.096 14.2984 8.096ZM14.2984 7.08C14.6184 7.08 14.8398 6.96267 14.9624 6.728C15.0851 6.49333 15.1464 6.16267 15.1464 5.736V4.68C15.1464 4.25333 15.0851 3.92267 14.9624 3.688C14.8398 3.45333 14.6184 3.336 14.2984 3.336C13.9784 3.336 13.7571 3.45333 13.6344 3.688C13.5118 3.92267 13.4504 4.25333 13.4504 4.68V5.736C13.4504 6.16267 13.5118 6.49333 13.6344 6.728C13.7571 6.96267 13.9784 7.08 14.2984 7.08Z" fill="white"/>
</g>
</g>
</svg>
