<svg width="32" height="32" viewBox="0 0 32 32" fill="none" xmlns="http://www.w3.org/2000/svg">
<g id="markets / market-tactical-indices-silver-pullback">
<g id="icon">
<path d="M0 25.5711C0 24.6874 0.716339 23.9711 1.59999 23.9711H17.5999C18.4835 23.9711 19.1999 24.6874 19.1999 25.5711V30.371C19.1999 31.2547 18.4835 31.971 17.5999 31.971H1.59999C0.716339 31.971 0 31.2547 0 30.371V25.5711Z" fill="#3E1DC5"/>
<path d="M14.2073 26.4159C13.7946 26.4159 13.4954 26.5314 13.3099 26.7624C13.1281 26.9896 13.0372 27.302 13.0372 27.6996C13.0372 27.8928 13.06 28.0689 13.1054 28.2279C13.1508 28.3831 13.219 28.5176 13.3099 28.6312C13.4008 28.7448 13.5144 28.8338 13.6507 28.8981C13.787 28.9587 13.946 28.989 14.1278 28.989C14.2263 28.989 14.3096 28.9871 14.3777 28.9833C14.4497 28.9796 14.5122 28.972 14.5652 28.9606V27.5917H15.4513V29.54C15.3452 29.5816 15.1748 29.6252 14.9401 29.6706C14.7053 29.7199 14.4156 29.7445 14.071 29.7445C13.7756 29.7445 13.5068 29.699 13.2644 29.6082C13.0259 29.5173 12.8214 29.3847 12.651 29.2105C12.4806 29.0364 12.348 28.8224 12.2534 28.5687C12.1625 28.315 12.1171 28.0253 12.1171 27.6996C12.1171 27.3702 12.1682 27.0786 12.2704 26.8249C12.3727 26.5712 12.5128 26.3572 12.6907 26.1831C12.8687 26.0051 13.077 25.8707 13.3156 25.7798C13.5579 25.6889 13.8154 25.6435 14.088 25.6435C14.2736 25.6435 14.4402 25.6567 14.5879 25.6832C14.7394 25.7059 14.8681 25.7343 14.9741 25.7684C15.084 25.7987 15.1729 25.8309 15.2411 25.865C15.3131 25.8991 15.3642 25.9256 15.3945 25.9445L15.1389 26.6545C15.0177 26.5901 14.8776 26.5352 14.7185 26.4898C14.5633 26.4406 14.3929 26.4159 14.2073 26.4159Z" fill="white"/>
<path d="M10.9736 29.6706C10.9319 29.5343 10.8846 29.3942 10.8316 29.2503C10.7824 29.1064 10.7331 28.9625 10.6839 28.8186H9.15027C9.10104 28.9625 9.04992 29.1064 8.99691 29.2503C8.94768 29.3942 8.90224 29.5343 8.86059 29.6706H7.94041C8.08809 29.2465 8.2282 28.8546 8.36074 28.4949C8.49327 28.1351 8.62202 27.7962 8.74699 27.4781C8.87573 27.16 9.0007 26.859 9.12187 26.575C9.24683 26.2872 9.37558 26.007 9.50812 25.7343H10.3545C10.4832 26.007 10.6101 26.2872 10.735 26.575C10.86 26.859 10.9849 27.16 11.1099 27.4781C11.2387 27.7962 11.3693 28.1351 11.5018 28.4949C11.6344 28.8546 11.7745 29.2465 11.9222 29.6706H10.9736ZM9.9114 26.6261C9.89247 26.6829 9.86407 26.7605 9.8262 26.859C9.78834 26.9574 9.74479 27.071 9.69556 27.1998C9.64633 27.3285 9.59143 27.4705 9.53084 27.6258C9.47404 27.7811 9.41534 27.9439 9.35476 28.1143H10.4737C10.4131 27.9439 10.3545 27.7811 10.2977 27.6258C10.2409 27.4705 10.1859 27.3285 10.1329 27.1998C10.0837 27.071 10.0402 26.9574 10.0023 26.859C9.96442 26.7605 9.93412 26.6829 9.9114 26.6261Z" fill="white"/>
<path d="M6.56051 29.6706C6.45069 29.451 6.32952 29.2295 6.19698 29.0061C6.06823 28.7789 5.91866 28.5479 5.74825 28.3131C5.69524 28.3813 5.62708 28.4759 5.54377 28.5971C5.46425 28.7183 5.38283 28.847 5.29953 28.9833C5.22 29.1197 5.14427 29.2503 5.07232 29.3753C5.00037 29.5002 4.94736 29.5987 4.91328 29.6706H3.90222C4.06884 29.3639 4.26196 29.042 4.48159 28.705C4.70501 28.368 4.95304 28.0102 5.22568 27.6315L3.95902 25.7343H5.03256L5.79937 26.9612L6.54915 25.7343H7.5602L6.31058 27.6428C6.62867 28.0556 6.89563 28.4381 7.11147 28.7902C7.32732 29.1386 7.49772 29.4321 7.62268 29.6706H6.56051Z" fill="white"/>
<path d="M7.00014 7.58561L0.000244139 14.5855V17.4139L7.00014 10.414L10.0001 13.414L17.0001 6.41405L20 9.41402L26 3.41407L25.9999 18.1714L23.7071 15.8785L22.2928 17.2928L26.9999 21.9998L31.707 17.2928L30.2928 15.8785L27.9999 18.1714L27.9999 0H26.5857L26 0.585666L20 6.58562L17.0001 3.58564L10.0001 10.5856L7.00014 7.58561Z" fill="#3E1DC5"/>
</g>
</g>
</svg>
