<svg width="32" height="32" viewBox="0 0 32 32" fill="none" xmlns="http://www.w3.org/2000/svg">
<g id="markets / market-stocks-micron" clip-path="url(#clip0_3738_676)">
<g id="icon">
<path d="M15.4414 17.9778C14.3019 17.9778 13.2794 17.3306 13.2794 16.4257C13.2794 15.5204 14.3019 14.8726 15.4495 14.8726C15.9485 14.8726 16.4144 14.9985 16.9211 15.2811L16.5639 15.74C16.2392 15.5829 15.8568 15.4889 15.4495 15.4889C14.9671 15.4889 14.4101 15.759 14.4101 16.4257C14.4101 17.0919 14.959 17.3619 15.4495 17.3619C15.8568 17.3619 16.2475 17.2802 16.58 17.1354L16.9378 17.6196C16.5138 17.8462 15.9982 17.9778 15.4414 17.9778Z" fill="#104076"/>
<path d="M21.9407 17.9647C23.0879 17.9647 24.1108 17.3173 24.1108 16.4127C24.1108 15.5074 23.0879 14.8595 21.9407 14.8595C20.7931 14.8595 19.7702 15.5074 19.7702 16.4127C19.7702 17.3173 20.7931 17.9647 21.9407 17.9647ZM22.9801 16.4127C22.9801 17.0789 22.4232 17.3488 21.9407 17.3488C21.4581 17.3488 20.9013 17.0789 20.9013 16.4127C20.9013 15.7458 21.4581 15.4759 21.9407 15.4759C22.4232 15.4759 22.9801 15.7458 22.9801 16.4127Z" fill="#104076"/>
<path d="M24.5855 17.8787H25.6573V16.0304C25.6573 15.7808 25.8511 15.4871 26.198 15.4852C26.4402 15.4871 26.6727 15.6529 26.6727 15.8633L26.6705 17.8787H27.7451V15.8061C27.7451 15.2603 27.1598 14.8046 26.4617 14.8046C26.4593 14.8046 26.457 14.8047 26.4547 14.8049L26.4502 14.8052C26.4473 14.8054 26.4443 14.8056 26.4413 14.8057C26.4383 14.8056 26.4354 14.8054 26.4325 14.8052C26.4287 14.8049 26.4249 14.8046 26.4212 14.8046C26.1326 14.8046 25.8588 14.8888 25.6352 15.0298C25.6333 15.0218 25.5731 14.8237 24.5855 14.8237V17.8787Z" fill="#104076"/>
<path d="M11.7095 17.8904H12.7594V14.936H11.7095V17.8904Z" fill="#104076"/>
<path d="M17.4381 17.8787H18.4885V16.0872C18.4885 15.8042 18.8207 15.5778 19.1785 15.5778C19.3533 15.5778 19.5178 15.6127 19.656 15.6739V14.8969C19.5322 14.8781 19.3985 14.8678 19.2804 14.8678C18.999 14.8678 18.7166 14.9494 18.4855 15.0865C18.4683 15.0516 18.3396 14.8864 17.4381 14.8864V17.8787Z" fill="#104076"/>
<path d="M28.1557 15.1987H28.1946C28.239 15.1987 28.2765 15.1827 28.2765 15.1411C28.2765 15.1115 28.2551 15.082 28.1946 15.082C28.1771 15.082 28.1651 15.0833 28.1557 15.0845V15.1987ZM28.1557 15.3853H28.1019V15.0483L28.1075 15.0476C28.1338 15.044 28.1596 15.0404 28.1974 15.0404C28.2484 15.0404 28.2818 15.0511 28.302 15.0659C28.3221 15.0807 28.3328 15.1034 28.3328 15.1355C28.3328 15.1799 28.3033 15.2067 28.2671 15.2176V15.2201C28.2966 15.2255 28.3168 15.2525 28.3234 15.302C28.3315 15.3543 28.3395 15.3746 28.3448 15.3853H28.2885C28.2805 15.3746 28.2724 15.3438 28.2658 15.2994C28.2578 15.2564 28.2362 15.2403 28.1931 15.2403H28.1557V15.3853ZM28.212 14.9545C28.0792 14.9545 27.9706 15.0685 27.9706 15.2094C27.9706 15.353 28.0792 15.4656 28.2133 15.4656C28.3476 15.4671 28.4549 15.353 28.4549 15.2107C28.4549 15.0685 28.3476 14.9545 28.2133 14.9545H28.212ZM28.2133 14.9074C28.3785 14.9074 28.51 15.0417 28.51 15.2094C28.51 15.38 28.3785 15.5128 28.212 15.5128C28.047 15.5128 27.9129 15.38 27.9129 15.2094C27.9129 15.0417 28.047 14.9074 28.212 14.9074H28.2133Z" fill="#104076"/>
<path d="M9.71249 16.7015L9.71228 17.8892H10.7875L10.7798 15.7351C11.9638 14.5136 12.4541 13.3782 12.0724 12.8317C11.6739 12.261 10.4359 12.4922 8.83119 13.3401C8.75942 13.3752 8.6958 13.4125 8.64888 13.4448C8.57133 13.4986 8.61653 13.5378 8.67373 13.517C8.73243 13.4958 8.79927 13.4701 8.87467 13.433C10.0775 12.8626 11.0158 12.7602 11.3826 13.1584C11.9415 13.7649 10.7969 15.7524 8.8149 17.2227C8.55034 17.4189 8.14202 17.7062 7.87617 17.8658L7.86851 17.8705C7.85313 17.88 7.83793 17.8894 7.82304 17.899C7.75278 17.945 7.69023 17.9879 7.64095 18.0264C7.59297 18.0637 7.60218 18.1231 7.68873 18.0858C7.74142 18.0633 7.80548 18.0292 7.8736 17.9874L7.89593 17.9741C7.89988 17.9718 7.90384 17.9695 7.90785 17.9671C7.91195 17.9647 7.9161 17.9622 7.9203 17.9596C8.21915 17.7781 8.6628 17.4718 8.96593 17.2602C9.22664 17.0781 9.4807 16.887 9.71249 16.7015Z" fill="#104076"/>
<path d="M5.50454 19.4213H6.57973V18.3071C6.87365 18.1334 7.17121 17.9429 7.46362 17.7435C7.52939 17.6983 7.58766 17.6533 7.62986 17.6147C7.69948 17.5511 7.64914 17.5183 7.59537 17.5466C7.5401 17.5757 7.47476 17.6152 7.40407 17.6602C5.74319 18.7225 4.62194 19.0466 4.20784 18.4845C3.84816 17.9965 4.4377 17.053 5.50454 15.9875V18.4607C5.80724 18.3579 6.16499 18.194 6.57952 17.9635L6.57931 15.6689L6.81581 16.1721C7.07502 16.7278 7.54546 17.0601 8.14357 17.0601C8.74147 17.0601 9.21191 16.7278 9.47112 16.1721L9.70763 15.6689L9.70741 16.2544C10.0922 15.8812 10.4206 15.5087 10.6697 15.1484C10.7008 15.1038 10.698 15.0663 10.6811 15.0252C10.5153 14.6792 10.1624 14.4408 9.7524 14.4408C9.34687 14.4408 8.99469 14.676 8.82588 15.0162L8.37601 15.9706C8.32952 16.0635 8.24383 16.1152 8.14357 16.1152C8.04353 16.1152 7.95741 16.0635 7.91092 15.9706L7.46105 15.0162C7.37536 14.8433 7.24212 14.6976 7.07866 14.5961C7.40771 14.335 7.72755 14.1017 8.04246 13.9106C8.11401 13.8671 8.17271 13.8236 8.22219 13.7857C8.27082 13.7486 8.26182 13.6893 8.17506 13.7257C8.12236 13.7478 8.05403 13.7814 7.98569 13.823C7.66392 14.0179 7.33509 14.2174 7.02061 14.4322C6.98248 14.4581 6.94477 14.4843 6.90707 14.5104C6.79139 14.4654 6.66585 14.4408 6.53453 14.4408C5.9647 14.4408 5.50454 14.9012 5.50454 15.471V15.6128C3.98569 16.9671 3.18835 18.3082 3.60501 18.9052C3.91092 19.3431 4.63629 19.242 5.50454 18.8647V19.4213Z" fill="#104076"/>
<path fill-rule="evenodd" clip-rule="evenodd" d="M32 16C32 24.8366 24.8366 32 16 32C7.16344 32 0 24.8366 0 16C0 7.16344 7.16344 0 16 0C24.8366 0 32 7.16344 32 16ZM13.2794 16.4257C13.2794 17.3306 14.3019 17.9778 15.4414 17.9778C15.9982 17.9778 16.5138 17.8462 16.9378 17.6196L16.58 17.1354C16.2475 17.2802 15.8568 17.3619 15.4495 17.3619C14.959 17.3619 14.4101 17.0919 14.4101 16.4257C14.4101 15.759 14.9671 15.4889 15.4495 15.4889C15.8568 15.4889 16.2392 15.5829 16.5639 15.74L16.9211 15.2811C16.4144 14.9985 15.9485 14.8726 15.4495 14.8726C14.3019 14.8726 13.2794 15.5204 13.2794 16.4257ZM24.1108 16.4127C24.1108 17.3173 23.0879 17.9647 21.9407 17.9647C20.7931 17.9647 19.7702 17.3173 19.7702 16.4127C19.7702 15.5074 20.7931 14.8595 21.9407 14.8595C23.0879 14.8595 24.1108 15.5074 24.1108 16.4127ZM25.6573 17.8787H24.5855V14.8237C25.5731 14.8237 25.6333 15.0218 25.6352 15.0298C25.8588 14.8888 26.1326 14.8046 26.4212 14.8046C26.4249 14.8046 26.4287 14.8049 26.4325 14.8052C26.4354 14.8054 26.4383 14.8056 26.4413 14.8057L26.4502 14.8052L26.4547 14.8049C26.457 14.8047 26.4593 14.8046 26.4617 14.8046C27.1598 14.8046 27.7451 15.2603 27.7451 15.8061V17.8787H26.6705L26.6727 15.8633C26.6727 15.6529 26.4402 15.4871 26.198 15.4852C25.8511 15.4871 25.6573 15.7808 25.6573 16.0304V17.8787ZM12.7594 17.8904H11.7095V14.936H12.7594V17.8904ZM18.4885 17.8787H17.4381V14.8864C18.3396 14.8864 18.4683 15.0516 18.4855 15.0865C18.7166 14.9494 18.999 14.8678 19.2804 14.8678C19.3985 14.8678 19.5322 14.8781 19.656 14.8969V15.6739C19.5178 15.6127 19.3533 15.5778 19.1785 15.5778C18.8207 15.5778 18.4885 15.8042 18.4885 16.0872V17.8787ZM9.71228 17.8892L9.71249 16.7015C9.4807 16.887 9.22664 17.0781 8.96593 17.2602C8.6628 17.4718 8.21915 17.7781 7.9203 17.9596L7.90785 17.9671L7.89593 17.9741L7.8736 17.9874C7.80548 18.0292 7.74142 18.0633 7.68873 18.0858C7.60218 18.1231 7.59297 18.0637 7.64095 18.0264C7.69023 17.9879 7.75278 17.945 7.82304 17.899C7.83793 17.8894 7.85313 17.88 7.86851 17.8705L7.87617 17.8658C8.14202 17.7062 8.55034 17.4189 8.8149 17.2227C10.7969 15.7524 11.9415 13.7649 11.3826 13.1584C11.0158 12.7602 10.0775 12.8626 8.87467 13.433C8.79927 13.4701 8.73243 13.4958 8.67373 13.517C8.61653 13.5378 8.57133 13.4986 8.64888 13.4448C8.6958 13.4125 8.75942 13.3752 8.83119 13.3401C10.4359 12.4922 11.6739 12.261 12.0724 12.8317C12.4541 13.3782 11.9638 14.5136 10.7798 15.7351L10.7875 17.8892H9.71228ZM6.57973 19.4213H5.50454V18.8647C4.63629 19.242 3.91092 19.3431 3.60501 18.9052C3.18835 18.3082 3.98569 16.9671 5.50454 15.6128V15.471C5.50454 14.9012 5.9647 14.4408 6.53453 14.4408C6.66585 14.4408 6.79139 14.4654 6.90707 14.5104C6.94477 14.4843 6.98248 14.4581 7.02061 14.4322C7.33509 14.2174 7.66392 14.0179 7.98569 13.823C8.05403 13.7814 8.12236 13.7478 8.17506 13.7257C8.26182 13.6893 8.27082 13.7486 8.22219 13.7857C8.17271 13.8236 8.11401 13.8671 8.04246 13.9106C7.72755 14.1017 7.40771 14.335 7.07866 14.5961C7.24212 14.6976 7.37536 14.8433 7.46105 15.0162L7.91092 15.9706C7.95741 16.0635 8.04353 16.1152 8.14357 16.1152C8.24383 16.1152 8.32952 16.0635 8.37601 15.9706L8.82588 15.0162C8.99469 14.676 9.34687 14.4408 9.7524 14.4408C10.1624 14.4408 10.5153 14.6792 10.6811 15.0252C10.698 15.0663 10.7008 15.1038 10.6697 15.1484C10.4206 15.5087 10.0922 15.8812 9.70741 16.2544L9.70763 15.6689L9.47112 16.1721C9.21191 16.7278 8.74147 17.0601 8.14357 17.0601C7.54546 17.0601 7.07502 16.7278 6.81581 16.1721L6.57931 15.6689L6.57952 17.9635C6.16499 18.194 5.80724 18.3579 5.50454 18.4607V15.9875C4.4377 17.053 3.84816 17.9965 4.20784 18.4845C4.62194 19.0466 5.74319 18.7225 7.40407 17.6602C7.47476 17.6152 7.5401 17.5757 7.59537 17.5466C7.64914 17.5183 7.69948 17.5511 7.62986 17.6147C7.58766 17.6533 7.52939 17.6983 7.46362 17.7435C7.17121 17.9429 6.87365 18.1334 6.57973 18.3071V19.4213ZM28.51 15.2094C28.51 15.0417 28.3785 14.9074 28.2133 14.9074H28.212C28.047 14.9074 27.9129 15.0417 27.9129 15.2094C27.9129 15.38 28.047 15.5128 28.212 15.5128C28.3785 15.5128 28.51 15.38 28.51 15.2094Z" fill="#F6F7F8"/>
<path d="M22.9801 16.4127C22.9801 17.0789 22.4232 17.3488 21.9407 17.3488C21.4581 17.3488 20.9013 17.0789 20.9013 16.4127C20.9013 15.7458 21.4581 15.4759 21.9407 15.4759C22.4232 15.4759 22.9801 15.7458 22.9801 16.4127Z" fill="#F6F7F8"/>
<path fill-rule="evenodd" clip-rule="evenodd" d="M13.2794 16.4257C13.2794 17.3306 14.3019 17.9778 15.4414 17.9778C15.9982 17.9778 16.5138 17.8462 16.9378 17.6196L16.58 17.1354C16.2475 17.2802 15.8568 17.3619 15.4495 17.3619C14.959 17.3619 14.4101 17.0919 14.4101 16.4257C14.4101 15.759 14.9671 15.4889 15.4495 15.4889C15.8568 15.4889 16.2392 15.5829 16.5639 15.74L16.9211 15.2811C16.4144 14.9985 15.9485 14.8726 15.4495 14.8726C14.3019 14.8726 13.2794 15.5204 13.2794 16.4257ZM24.1108 16.4127C24.1108 17.3173 23.0879 17.9647 21.9407 17.9647C20.7931 17.9647 19.7702 17.3173 19.7702 16.4127C19.7702 15.5074 20.7931 14.8595 21.9407 14.8595C23.0879 14.8595 24.1108 15.5074 24.1108 16.4127ZM25.6573 17.8787H24.5855V14.8237C25.5731 14.8237 25.6333 15.0218 25.6352 15.0298C25.8588 14.8888 26.1326 14.8046 26.4212 14.8046C26.4249 14.8046 26.4287 14.8049 26.4325 14.8052L26.4413 14.8057L26.4502 14.8052L26.4547 14.8049L26.4617 14.8046C27.1598 14.8046 27.7451 15.2603 27.7451 15.8061V17.8787H26.6705L26.6727 15.8633C26.6727 15.6529 26.4402 15.4871 26.198 15.4852C25.8511 15.4871 25.6573 15.7808 25.6573 16.0304V17.8787ZM12.7594 17.8904H11.7095V14.936H12.7594V17.8904ZM18.4885 17.8787H17.4381V14.8864C18.3396 14.8864 18.4683 15.0516 18.4855 15.0865C18.7166 14.9494 18.999 14.8678 19.2804 14.8678C19.3985 14.8678 19.5322 14.8781 19.656 14.8969V15.6739C19.5178 15.6127 19.3533 15.5778 19.1785 15.5778C18.8207 15.5778 18.4885 15.8042 18.4885 16.0872V17.8787ZM28.51 15.2094C28.51 15.0417 28.3785 14.9074 28.2133 14.9074H28.212C28.047 14.9074 27.9129 15.0417 27.9129 15.2094C27.9129 15.38 28.047 15.5128 28.212 15.5128C28.3785 15.5128 28.51 15.38 28.51 15.2094ZM21.9407 17.3488C22.4232 17.3488 22.9801 17.0789 22.9801 16.4127C22.9801 15.7458 22.4232 15.4759 21.9407 15.4759C21.4581 15.4759 20.9013 15.7458 20.9013 16.4127C20.9013 17.0789 21.4581 17.3488 21.9407 17.3488ZM28.212 14.9545C28.0792 14.9545 27.9706 15.0685 27.9706 15.2094C27.9706 15.353 28.0792 15.4656 28.2133 15.4656C28.3476 15.4671 28.4549 15.353 28.4549 15.2107C28.4549 15.0685 28.3476 14.9545 28.2133 14.9545H28.212ZM28.1019 15.3853H28.1557V15.2403H28.1931C28.2362 15.2403 28.2578 15.2564 28.2658 15.2994C28.2724 15.3438 28.2805 15.3746 28.2885 15.3853H28.3448C28.3395 15.3746 28.3315 15.3543 28.3234 15.302C28.3168 15.2525 28.2966 15.2255 28.2671 15.2201V15.2176C28.3033 15.2067 28.3328 15.1799 28.3328 15.1355C28.3328 15.1034 28.3221 15.0807 28.302 15.0659C28.2818 15.0511 28.2484 15.0404 28.1974 15.0404C28.1596 15.0404 28.1338 15.044 28.1075 15.0476L28.1019 15.0483V15.3853ZM28.1946 15.1987H28.1557V15.0845C28.1651 15.0833 28.1771 15.082 28.1946 15.082C28.2551 15.082 28.2765 15.1115 28.2765 15.1411C28.2765 15.1827 28.239 15.1987 28.1946 15.1987Z" fill="#104076"/>
<path d="M28.1557 15.1987H28.1946C28.239 15.1987 28.2765 15.1827 28.2765 15.1411C28.2765 15.1115 28.2551 15.082 28.1946 15.082C28.1771 15.082 28.1651 15.0833 28.1557 15.0845V15.1987Z" fill="#F6F7F8"/>
<path fill-rule="evenodd" clip-rule="evenodd" d="M28.212 14.9545C28.0792 14.9545 27.9706 15.0685 27.9706 15.2094C27.9706 15.353 28.0792 15.4656 28.2133 15.4656C28.3476 15.4671 28.4549 15.353 28.4549 15.2107C28.4549 15.0685 28.3476 14.9545 28.2133 14.9545H28.212ZM28.1019 15.3853H28.1557V15.2403H28.1931C28.2362 15.2403 28.2578 15.2564 28.2658 15.2994C28.2724 15.3438 28.2805 15.3746 28.2885 15.3853H28.3448C28.3395 15.3746 28.3315 15.3543 28.3234 15.302C28.3168 15.2525 28.2966 15.2255 28.2671 15.2201V15.2176C28.3033 15.2067 28.3328 15.1799 28.3328 15.1355C28.3328 15.1034 28.3221 15.0807 28.302 15.0659C28.2818 15.0511 28.2484 15.0404 28.1974 15.0404C28.1596 15.0404 28.1338 15.044 28.1075 15.0476L28.1019 15.0483V15.3853Z" fill="#F6F7F8"/>
</g>
</g>
<defs>
<clipPath id="clip0_3738_676">
<rect width="32" height="32" fill="white"/>
</clipPath>
</defs>
</svg>
