<svg width="32" height="32" viewBox="0 0 32 32" fill="none" xmlns="http://www.w3.org/2000/svg">
<g id="markets / market-stocks-rivian" clip-path="url(#clip0_3738_665)">
<g id="icon">
<path d="M32 16C32 24.8366 24.8366 32 16 32C7.16344 32 0 24.8366 0 16C0 7.16344 7.16344 0 16 0C24.8366 0 32 7.16344 32 16Z" fill="black"/>
<path d="M26.2726 15.2119C25.1167 14.021 18.777 7.50613 17.6211 6.56042C17.2008 6.24518 16.6754 6 16.0099 6C15.3444 6 14.819 6.24518 14.3987 6.56042C13.2078 7.50613 6.90308 14.021 5.71219 15.2119C5.64213 15.317 5.71219 15.4921 5.85229 15.4921H8.58434C8.86455 15.4921 8.96963 15.4571 9.14476 15.2469C9.31989 15.0368 10.2306 14.0911 10.2306 14.0911C11.3864 12.8651 14.1535 10.1331 15.1693 9.29247C15.5546 8.97723 15.9749 8.97723 15.9749 8.97723C15.9749 8.97723 16.4302 8.97723 16.7805 9.29247C17.8313 10.1681 20.6334 12.8651 21.7542 14.0911C21.7542 14.0911 22.6649 15.0718 22.84 15.2469C23.0152 15.4571 23.1202 15.4921 23.4005 15.4921H26.1325C26.2726 15.4921 26.3777 15.317 26.2726 15.2119ZM5.71219 16.7881C6.86805 17.979 13.2078 24.4939 14.3637 25.4396C14.784 25.7548 15.3094 26 15.9749 26C16.6404 26 17.1658 25.7548 17.5861 25.4396C18.777 24.4939 25.0817 17.979 26.2376 16.7881C26.3427 16.683 26.2376 16.5079 26.0975 16.5079H23.3654C23.0852 16.5079 22.9801 16.5429 22.805 16.7531C22.6299 16.9632 21.7192 17.9089 21.7192 17.9089C20.5633 19.1349 17.7962 21.8669 16.7805 22.7075C16.3952 23.0228 15.9749 23.0228 15.9749 23.0228C15.9749 23.0228 15.5195 23.0228 15.1693 22.7075C14.1535 21.8669 11.3514 19.1349 10.2306 17.9089C10.2306 17.9089 9.31989 16.9282 9.14476 16.7531C8.96963 16.5429 8.86455 16.5079 8.58434 16.5079H5.85229C5.71219 16.4729 5.64213 16.648 5.71219 16.7881ZM15.2393 18.1541C14.7139 17.6637 13.8033 16.7881 13.453 16.4028C13.3129 16.2277 13.3129 16.0175 13.3129 16.0175C13.3129 16.0175 13.3129 15.8074 13.453 15.6322C13.8033 15.2469 14.7139 14.3363 15.2393 13.8809C15.4495 13.6708 15.5195 13.5657 15.5195 13.3205V10.6235C15.5195 10.5184 15.3794 10.4483 15.3094 10.5534C14.1535 11.6392 11.5616 14.1961 10.6859 15.1769C10.2656 15.6322 10.3006 16.0525 10.3006 16.0525C10.3006 16.0525 10.2656 16.5079 10.6859 16.9282C11.5616 17.9089 14.1535 20.5009 15.3094 21.5517C15.4145 21.6567 15.5195 21.5867 15.5195 21.4466V18.7496C15.4845 18.4694 15.4495 18.3643 15.2393 18.1541ZM16.7455 18.1541C17.2709 17.6637 18.1815 16.7881 18.5318 16.4028C18.6719 16.2277 18.6719 16.0175 18.6719 16.0175C18.6719 16.0175 18.6719 15.8074 18.5318 15.6322C18.1815 15.2469 17.2709 14.3363 16.7455 13.8809C16.5353 13.6708 16.4653 13.5657 16.4653 13.3205V10.6235C16.4653 10.4834 16.5703 10.4483 16.6754 10.5184C17.8313 11.6042 20.4232 14.1611 21.2989 15.1419C21.7192 15.5972 21.6842 16.0175 21.6842 16.0175C21.6842 16.0175 21.7192 16.4729 21.2989 16.8932C20.4232 17.8739 17.8313 20.4658 16.6754 21.5166C16.5703 21.6217 16.4653 21.5517 16.4653 21.4116V18.7145C16.5003 18.4694 16.5353 18.3643 16.7455 18.1541Z" fill="#FFAC00"/>
</g>
</g>
<defs>
<clipPath id="clip0_3738_665">
<rect width="32" height="32" fill="white"/>
</clipPath>
</defs>
</svg>
