<svg width="32" height="32" viewBox="0 0 32 32" fill="none" xmlns="http://www.w3.org/2000/svg">
<g id="markets / market-derived-volatility-30-1s">
<g id="icon">
<path d="M22.5 13.0001H24V22H22.5V32H21.5V22H20V13.0001H21.5V11.0001H22.5V13.0001Z" fill="#0AA0B0"/>
<path d="M30 11V18H28.5V22H27.5V18H26V11H30Z" fill="#0AA0B0"/>
<path d="M16.5 20V16H15.5V20H14V28H15.5V30H16.5V28H18V20H16.5Z" fill="#0AA0B0"/>
<path d="M10.5 15H12V21H10.5V28H9.5V21H8V15H9.5V13H10.5V15Z" fill="#0AA0B0"/>
<path d="M4.5 19H6V23H4.5V25H3.5V23H2V19H3.5V17H4.5V19Z" fill="#0AA0B0"/>
<path d="M22 5C22 2.23858 24.2386 0 27 0C29.7614 0 32 2.23858 32 5C32 7.76142 29.7614 10 27 10C24.2386 10 22 7.76142 22 5Z" fill="#FF444F"/>
<path d="M24.2534 7.00001V6.27401H25.3814V3.46601H25.3274L24.4754 4.58201L23.8994 4.13201L24.9014 2.81201H26.2814V6.27401H27.1694V7.00001H24.2534Z" fill="white"/>
<path d="M28.7691 7.07201C28.4651 7.07201 28.2091 7.02401 28.0011 6.92801C27.7931 6.82801 27.6071 6.68801 27.4431 6.50801L27.9651 5.98001C28.0771 6.10401 28.2011 6.20201 28.3371 6.27401C28.4731 6.34601 28.6271 6.38201 28.7991 6.38201C28.9751 6.38201 29.0971 6.35601 29.1651 6.30401C29.2331 6.24801 29.2671 6.17401 29.2671 6.08201C29.2671 5.93401 29.1611 5.84601 28.9491 5.81801L28.6071 5.77601C27.8991 5.68801 27.5451 5.36401 27.5451 4.80401C27.5451 4.65201 27.5731 4.51401 27.6291 4.39001C27.6891 4.26201 27.7711 4.15401 27.8751 4.06601C27.9831 3.97401 28.1111 3.90401 28.2591 3.85601C28.4111 3.80401 28.5811 3.77801 28.7691 3.77801C28.9331 3.77801 29.0771 3.79001 29.2011 3.81401C29.3291 3.83401 29.4411 3.86601 29.5371 3.91001C29.6371 3.95001 29.7271 4.00201 29.8071 4.06601C29.8911 4.12601 29.9731 4.19401 30.0531 4.27001L29.5431 4.79201C29.4431 4.69201 29.3291 4.61401 29.2011 4.55801C29.0771 4.49801 28.9491 4.46801 28.8171 4.46801C28.6651 4.46801 28.5571 4.49201 28.4931 4.54001C28.4291 4.58801 28.3971 4.65201 28.3971 4.73201C28.3971 4.81601 28.4191 4.88201 28.4631 4.93001C28.5111 4.97401 28.5991 5.00601 28.7271 5.02601L29.0811 5.07401C29.7731 5.16601 30.1191 5.48201 30.1191 6.02201C30.1191 6.17401 30.0871 6.31401 30.0231 6.44201C29.9591 6.57001 29.8671 6.68201 29.7471 6.77801C29.6311 6.87001 29.4891 6.94201 29.3211 6.99401C29.1571 7.04601 28.9731 7.07201 28.7691 7.07201Z" fill="white"/>
<path d="M0 2C0 0.89543 0.895431 0 2 0H12C13.1046 0 14 0.895431 14 2V8C14 9.10457 13.1046 10 12 10H2C0.89543 10 0 9.10457 0 8V2Z" fill="#414652"/>
<path d="M4.29913 4.624C4.59779 4.624 4.81379 4.568 4.94713 4.456C5.08579 4.33867 5.15513 4.19467 5.15513 4.024V3.968C5.15513 3.76533 5.08846 3.60267 4.95512 3.48C4.82713 3.35733 4.64313 3.296 4.40312 3.296C4.17912 3.296 3.96846 3.35467 3.77113 3.472C3.57379 3.584 3.40579 3.74667 3.26713 3.96L2.51513 3.256C2.62179 3.11733 2.73646 2.992 2.85913 2.88C2.98179 2.76267 3.12046 2.664 3.27513 2.584C3.42979 2.49867 3.60312 2.43467 3.79513 2.392C3.98712 2.344 4.20312 2.32 4.44312 2.32C4.74179 2.32 5.01113 2.35467 5.25113 2.424C5.49646 2.49333 5.70446 2.59467 5.87512 2.728C6.05113 2.856 6.18446 3.01067 6.27513 3.192C6.37113 3.37333 6.41913 3.576 6.41913 3.8C6.41913 3.976 6.38979 4.136 6.33113 4.28C6.27779 4.424 6.20046 4.54933 6.09912 4.656C6.00312 4.76267 5.89113 4.85067 5.76313 4.92C5.63513 4.984 5.49913 5.02933 5.35513 5.056V5.104C5.52046 5.136 5.67246 5.18933 5.81113 5.264C5.95513 5.33333 6.07779 5.424 6.17912 5.536C6.28579 5.648 6.36846 5.78133 6.42712 5.936C6.48579 6.08533 6.51513 6.256 6.51513 6.448C6.51513 6.69867 6.46446 6.92533 6.36313 7.128C6.26179 7.33067 6.11779 7.504 5.93113 7.648C5.74446 7.792 5.52046 7.904 5.25913 7.984C4.99779 8.05867 4.70979 8.096 4.39513 8.096C4.11246 8.096 3.86179 8.06667 3.64313 8.008C3.42446 7.94933 3.23246 7.872 3.06713 7.776C2.90712 7.67467 2.76579 7.56 2.64313 7.432C2.52579 7.304 2.42179 7.168 2.33113 7.024L3.21913 6.336C3.34179 6.56533 3.49113 6.75467 3.66713 6.904C3.84846 7.048 4.09113 7.12 4.39513 7.12C4.66713 7.12 4.87779 7.05333 5.02713 6.92C5.18179 6.78133 5.25913 6.59467 5.25913 6.36V6.312C5.25913 6.08267 5.17112 5.912 4.99512 5.8C4.82446 5.68267 4.58712 5.624 4.28312 5.624H3.77913V4.624H4.29913Z" fill="white"/>
<path d="M9.4 8.096C8.66933 8.096 8.128 7.84267 7.776 7.336C7.424 6.82933 7.248 6.12 7.248 5.208C7.248 4.296 7.424 3.58667 7.776 3.08C8.128 2.57333 8.66933 2.32 9.4 2.32C10.1307 2.32 10.672 2.57333 11.024 3.08C11.376 3.58667 11.552 4.296 11.552 5.208C11.552 6.12 11.376 6.82933 11.024 7.336C10.672 7.84267 10.1307 8.096 9.4 8.096ZM9.4 7.08C9.72 7.08 9.94133 6.96267 10.064 6.728C10.1867 6.49333 10.248 6.16267 10.248 5.736V4.68C10.248 4.25333 10.1867 3.92267 10.064 3.688C9.94133 3.45333 9.72 3.336 9.4 3.336C9.08 3.336 8.85867 3.45333 8.736 3.688C8.61333 3.92267 8.552 4.25333 8.552 4.68V5.736C8.552 6.16267 8.61333 6.49333 8.736 6.728C8.85867 6.96267 9.08 7.08 9.4 7.08Z" fill="white"/>
</g>
</g>
</svg>
