<svg width="32" height="32" viewBox="0 0 32 32" fill="none" xmlns="http://www.w3.org/2000/svg">
<g id="markets / market-soft-commodity-coffee-arabica">
<g id="icon">
<path d="M16 32C24.8366 32 32 24.8366 32 16C32 7.16344 24.8366 0 16 0C7.16344 0 0 7.16344 0 16C0 24.8366 7.16344 32 16 32Z" fill="#663318"/>
<path d="M14.2272 10.4766C14.0795 10.6245 13.9475 10.7831 13.8108 10.9386C15.1793 11.2385 16.5266 11.9405 17.7251 12.9439C18.4001 11.263 19.7223 9.9775 21.468 9.38335L22.5712 9.00778C20.5075 7.24787 16.8714 7.83197 14.2272 10.4766Z" fill="white"/>
<path d="M23.252 9.7665L21.7703 10.2709C20.1762 10.8138 18.9905 12.0284 18.471 13.6073C19.7894 14.9402 20.6886 16.5509 21.0466 18.202C21.2072 18.0614 21.3706 17.9249 21.5231 17.7725C24.0308 15.2645 24.6858 11.8762 23.252 9.7665Z" fill="white"/>
<path d="M18.0813 21.8947C17.4804 20.0659 15.9346 18.7417 14.0472 18.3684C11.8552 17.9333 10.102 16.3491 9.38197 14.2336L9.00644 13.1304C7.24653 15.1941 7.83106 18.8798 10.4753 21.5245C12.1213 23.1705 14.1722 23.9987 15.9845 23.9987C16.9309 23.9987 17.8064 23.7517 18.5305 23.2614L18.0813 21.8947Z" fill="white"/>
<path d="M17.7712 14.2285C15.2635 11.7209 11.875 11.0155 9.76516 12.4495L10.2696 13.9313C10.8824 15.7308 12.3649 17.0782 14.2295 17.4482C16.4485 17.8875 18.2663 19.4517 18.9725 21.6016L19.2944 22.5809C21.0566 20.5177 20.4163 16.8741 17.7712 14.2285Z" fill="white"/>
</g>
</g>
</svg>
