<svg width="32" height="32" viewBox="0 0 32 32" fill="none" xmlns="http://www.w3.org/2000/svg">
<g id="markets / market-stocks-amc" clip-path="url(#clip0_3738_666)">
<g id="icon">
<path d="M15.9928 31.9888C24.8271 31.9888 31.9887 24.8272 31.9887 15.9928C31.9887 7.15851 24.8271 -0.00312805 15.9928 -0.00312805C7.15846 -0.00312805 -0.00317383 7.15851 -0.00317383 15.9928C-0.00317383 24.8272 7.15846 31.9888 15.9928 31.9888Z" fill="#CE2540"/>
<path d="M29.3634 18.4735C29.3149 18.3927 29.2503 18.3199 29.1614 18.2795C29.0805 18.231 28.9835 18.2067 28.8946 18.2067C28.8057 18.2067 28.7087 18.231 28.6279 18.2795C28.5471 18.328 28.4743 18.3927 28.4258 18.4735C28.3773 18.5543 28.3531 18.6513 28.3531 18.7402C28.3531 18.8372 28.3773 18.9261 28.4258 19.015C28.4743 19.0959 28.539 19.1686 28.6279 19.209C28.7087 19.2575 28.7976 19.2818 28.8946 19.2818C28.9916 19.2818 29.0805 19.2575 29.1614 19.209C29.2422 19.1605 29.3068 19.0959 29.3634 19.015C29.4119 18.9342 29.4362 18.8372 29.4362 18.7402C29.4362 18.6513 29.4119 18.5543 29.3634 18.4735ZM29.2907 18.9746C29.2503 19.0474 29.1937 19.1039 29.1209 19.1363C29.0482 19.1767 28.9755 19.1929 28.8946 19.1929C28.8138 19.1929 28.7411 19.1767 28.6683 19.1363C28.5956 19.0959 28.539 19.0393 28.4986 18.9746C28.4581 18.9019 28.4339 18.8291 28.4339 18.7402C28.4339 18.6594 28.4581 18.5786 28.4986 18.5139C28.539 18.4412 28.5956 18.3846 28.6683 18.3442C28.7411 18.3037 28.8138 18.2795 28.8946 18.2795C28.9755 18.2795 29.0482 18.3037 29.1209 18.3442C29.1937 18.3846 29.2503 18.4412 29.2907 18.5139C29.3311 18.5866 29.3553 18.6594 29.3553 18.7402C29.3473 18.8291 29.3311 18.9019 29.2907 18.9746Z" fill="white"/>
<path d="M10.1179 12.6782C10.0613 12.6701 8.67109 12.4761 7.06261 13.0419C5.56728 13.5673 3.56273 14.8444 2.61704 17.9967C2.45538 18.5302 2.61704 19.2496 3.72439 19.1526H7.85473C8.31545 19.1526 8.69534 18.7808 8.69534 18.312C8.69534 17.8512 8.31545 17.4713 7.85473 17.4713H4.60542C5.83401 14.8525 8.01638 14.3756 9.15606 14.319V18.3443C9.15606 18.805 9.52787 19.1849 9.99668 19.1849C10.4574 19.1849 10.8373 18.8131 10.8373 18.3443V13.5107C10.8373 13.0904 10.5301 12.7348 10.1179 12.6782Z" fill="white"/>
<path d="M18.605 12.67C18.6131 12.67 18.6454 12.67 18.605 12.67C18.5808 12.67 18.5484 12.67 18.5888 12.67C18.5888 12.67 18.5888 12.67 18.605 12.67Z" fill="white"/>
<path d="M18.5966 12.67C17.5458 12.6942 16.8587 13.0337 16.3657 13.5672C15.9211 13.0741 15.1613 12.6619 14.1348 12.67C12.9871 12.5892 10.9987 13.6238 11.1442 15.4909V18.3441C11.1442 18.8049 11.516 19.1848 11.9848 19.1848C12.4536 19.1848 12.8254 18.8129 12.8254 18.3441V15.499C12.8335 14.5129 13.8923 14.3593 14.1348 14.3512C15.3311 14.3189 15.5089 15.3535 15.5089 15.499V18.3441C15.5089 18.8049 15.905 19.1848 16.3657 19.1848C16.8264 19.1848 17.2225 18.8129 17.2225 18.3441V15.499C17.271 14.4482 18.2652 14.3351 18.5966 14.3512C18.7905 14.3674 19.8494 14.424 19.906 15.499V18.3441C19.906 18.8049 20.2778 19.1848 20.7466 19.1848C21.2073 19.1848 21.5872 18.8129 21.5872 18.3441V15.4909C21.6195 15.3292 21.4902 12.7589 18.5966 12.67Z" fill="white"/>
<path d="M28.2313 16.4526C27.8191 16.2425 27.3099 16.4041 27.0997 16.8245C26.7845 17.4388 26.1621 17.8186 25.4751 17.8186C24.9901 17.8186 24.5294 17.6327 24.1899 17.2852C23.8423 16.9376 23.6564 16.485 23.6564 16C23.6564 15.515 23.8423 15.0543 24.1899 14.7148C24.5375 14.3673 24.9901 14.1814 25.4751 14.1814C26.2106 14.1814 26.8815 14.5936 27.1401 15.1998C27.326 15.6282 27.8191 15.8222 28.2475 15.6363C28.6759 15.4504 28.8699 14.9573 28.684 14.5289C28.1586 13.3165 26.8653 12.5001 25.4751 12.5001C23.5433 12.5001 21.9752 14.0682 21.9752 16C21.9752 16.9376 22.3389 17.8106 23.0017 18.4734C23.6645 19.1362 24.5375 19.4999 25.4751 19.4999C26.8007 19.4999 27.9969 18.7643 28.5951 17.5842C28.8133 17.1639 28.6435 16.6547 28.2313 16.4526Z" fill="white"/>
<path d="M29.0477 18.8778C29.0234 18.8293 28.9992 18.7969 28.9749 18.7808C29.0154 18.7646 29.0558 18.7323 29.0719 18.6999C29.0962 18.6676 29.1043 18.6272 29.1043 18.5949C29.1043 18.5625 29.0962 18.5302 29.08 18.5059C29.0639 18.4736 29.0396 18.4574 29.0154 18.4413C28.9911 18.4251 28.9507 18.417 28.8941 18.417H28.684V19.0798H28.789V18.7969H28.8699C28.878 18.7969 28.9022 18.8212 28.9264 18.8616L28.9507 18.902L29.0396 19.0717H29.1608L29.0477 18.8778ZM28.8618 18.7161H28.789V18.4898H28.8699C28.9103 18.4898 28.9345 18.4979 28.9507 18.5059C28.9669 18.514 28.9749 18.5302 28.983 18.5464C28.9911 18.5625 28.9911 18.5787 28.9911 18.5949C28.9911 18.6272 28.983 18.6514 28.9588 18.6757C28.9426 18.708 28.9103 18.7161 28.8618 18.7161Z" fill="white"/>
</g>
</g>
<defs>
<clipPath id="clip0_3738_666">
<rect width="32" height="32" fill="white"/>
</clipPath>
</defs>
</svg>
