<svg width="48" height="48" viewBox="0 0 48 48" fill="none" xmlns="http://www.w3.org/2000/svg">
<g id="accounts / mt5-standard-success-light">
<g id="icon">
<path d="M31.5 7.94995H16.5C14.0147 7.94995 12 9.96467 12 12.45V25.575H36V12.45C36 9.96467 33.9852 7.94995 31.5 7.94995Z" fill="#0364B9"/>
<path d="M16.5 7.94995C14.0147 7.94995 12 9.96467 12 12.45V12.5807L34.4358 9.03943C33.6477 8.36045 32.6218 7.94995 31.5 7.94995H16.5Z" fill="#0A559E"/>
<path d="M36 12.45C36 11.3218 35.5849 10.2903 34.899 9.50049L31.952 25.5747L36 25.575V12.45Z" fill="#0A559E"/>
<path d="M12 25.2H36V27.45C36 29.9352 33.9852 31.95 31.5 31.95H16.5C14.0147 31.95 12 29.9352 12 27.45V25.2Z" fill="#2A3052"/>
<path d="M17.5095 15.213C17.6175 15.411 17.7405 15.657 17.8785 15.951C18.0225 16.239 18.1695 16.554 18.3195 16.896C18.4755 17.232 18.6285 17.577 18.7785 17.931C18.9285 18.285 19.0695 18.618 19.2015 18.93C19.3335 18.618 19.4746 18.285 19.6245 17.931C19.7746 17.577 19.9246 17.232 20.0745 16.896C20.2305 16.554 20.3776 16.239 20.5155 15.951C20.6595 15.657 20.7855 15.411 20.8935 15.213H22.1715C22.2316 15.627 22.2856 16.092 22.3335 16.608C22.3875 17.118 22.4325 17.652 22.4685 18.21C22.5105 18.762 22.5465 19.317 22.5765 19.875C22.6125 20.433 22.6425 20.958 22.6665 21.45H21.2985C21.2806 20.844 21.2565 20.184 21.2265 19.47C21.1965 18.756 21.1516 18.036 21.0915 17.31C20.9836 17.562 20.8635 17.841 20.7315 18.147C20.5995 18.453 20.4675 18.759 20.3355 19.065C20.2095 19.371 20.0865 19.665 19.9665 19.947C19.8465 20.223 19.7445 20.46 19.6605 20.658H18.6795C18.5955 20.46 18.4935 20.223 18.3735 19.947C18.2535 19.665 18.1275 19.371 17.9955 19.065C17.8695 18.759 17.7405 18.453 17.6085 18.147C17.4765 17.841 17.3565 17.562 17.2485 17.31C17.1885 18.036 17.1435 18.756 17.1135 19.47C17.0835 20.184 17.0595 20.844 17.0415 21.45H15.6735C15.6975 20.958 15.7245 20.433 15.7545 19.875C15.7905 19.317 15.8265 18.762 15.8625 18.21C15.9045 17.652 15.9495 17.118 15.9975 16.608C16.0515 16.092 16.1085 15.627 16.1685 15.213H17.5095Z" fill="white"/>
<path d="M28.0188 15.213V16.41H26.1378V21.45H24.7338V16.41H22.8528V15.213H28.0188Z" fill="white"/>
<path d="M30.9911 19.614C30.9911 19.44 30.9521 19.287 30.8741 19.155C30.7961 19.017 30.6611 18.903 30.4691 18.813C30.2771 18.723 30.0191 18.654 29.6951 18.606C29.3711 18.558 28.9631 18.534 28.4711 18.534C28.5371 17.976 28.5911 17.409 28.6331 16.833C28.6751 16.257 28.7081 15.717 28.7321 15.213H32.1071V16.338H29.8571C29.8451 16.554 29.8301 16.764 29.8121 16.968C29.8001 17.166 29.7851 17.34 29.7671 17.49C30.6431 17.55 31.2881 17.757 31.7021 18.111C32.1221 18.459 32.3321 18.945 32.3321 19.569C32.3321 19.857 32.2811 20.124 32.1791 20.37C32.0771 20.616 31.9241 20.829 31.7201 21.009C31.5161 21.189 31.2581 21.33 30.9461 21.432C30.6401 21.534 30.2801 21.585 29.8661 21.585C29.7041 21.585 29.5331 21.573 29.3531 21.549C29.1791 21.531 29.0081 21.504 28.8401 21.468C28.6781 21.438 28.5311 21.405 28.3991 21.369C28.2671 21.333 28.1651 21.297 28.0931 21.261L28.3361 20.154C28.4861 20.22 28.6841 20.286 28.9301 20.352C29.1761 20.412 29.4701 20.442 29.8121 20.442C30.2261 20.442 30.5261 20.361 30.7121 20.199C30.8981 20.031 30.9911 19.836 30.9911 19.614Z" fill="white"/>
<path d="M20.9038 29.6039C21.0028 29.6039 21.0838 29.5964 21.1468 29.5814C21.2128 29.5634 21.2653 29.5409 21.3043 29.5139C21.3433 29.4839 21.3703 29.4494 21.3853 29.4104C21.4003 29.3714 21.4078 29.3279 21.4078 29.2799C21.4078 29.1779 21.3598 29.0939 21.2638 29.0279C21.1678 28.9589 21.0028 28.8854 20.7688 28.8074C20.6668 28.7714 20.5648 28.7309 20.4628 28.6859C20.3608 28.6379 20.2693 28.5794 20.1883 28.5104C20.1073 28.4384 20.0413 28.3529 19.9903 28.2539C19.9393 28.1519 19.9138 28.0289 19.9138 27.8849C19.9138 27.7409 19.9408 27.6119 19.9948 27.4979C20.0488 27.3809 20.1253 27.2819 20.2243 27.2009C20.3233 27.1199 20.4433 27.0584 20.5843 27.0164C20.7253 26.9714 20.8843 26.9489 21.0613 26.9489C21.2713 26.9489 21.4528 26.9714 21.6058 27.0164C21.7588 27.0614 21.8848 27.1109 21.9838 27.1649L21.7813 27.7184C21.6943 27.6734 21.5968 27.6344 21.4888 27.6014C21.3838 27.5654 21.2563 27.5474 21.1063 27.5474C20.9383 27.5474 20.8168 27.5714 20.7418 27.6194C20.6698 27.6644 20.6338 27.7349 20.6338 27.8309C20.6338 27.8879 20.6473 27.9359 20.6743 27.9749C20.7013 28.0139 20.7388 28.0499 20.7868 28.0829C20.8378 28.1129 20.8948 28.1414 20.9578 28.1684C21.0238 28.1924 21.0958 28.2179 21.1738 28.2449C21.3358 28.3049 21.4768 28.3649 21.5968 28.4249C21.7168 28.4819 21.8158 28.5494 21.8938 28.6274C21.9748 28.7054 22.0348 28.7969 22.0738 28.9019C22.1128 29.0069 22.1323 29.1344 22.1323 29.2844C22.1323 29.5754 22.0303 29.8019 21.8263 29.9639C21.6223 30.1229 21.3148 30.2024 20.9038 30.2024C20.7658 30.2024 20.6413 30.1934 20.5303 30.1754C20.4193 30.1604 20.3203 30.1409 20.2333 30.1169C20.1493 30.0929 20.0758 30.0674 20.0128 30.0404C19.9528 30.0134 19.9018 29.9879 19.8598 29.9639L20.0578 29.4059C20.1508 29.4569 20.2648 29.5034 20.3998 29.5454C20.5378 29.5844 20.7058 29.6039 20.9038 29.6039Z" fill="white"/>
<path d="M24.8976 27.0209V27.6194H23.9571V30.1394H23.2551V27.6194H22.3146V27.0209H24.8976Z" fill="white"/>
<path d="M26.0507 29.5679C26.0837 29.5709 26.1212 29.5739 26.1632 29.5769C26.2082 29.5769 26.2607 29.5769 26.3207 29.5769C26.6717 29.5769 26.9312 29.4884 27.0992 29.3114C27.2702 29.1344 27.3557 28.8899 27.3557 28.5779C27.3557 28.2509 27.2747 28.0034 27.1127 27.8354C26.9507 27.6674 26.6942 27.5834 26.3432 27.5834C26.2952 27.5834 26.2457 27.5849 26.1947 27.5879C26.1437 27.5879 26.0957 27.5909 26.0507 27.5969V29.5679ZM28.0802 28.5779C28.0802 28.8479 28.0382 29.0834 27.9542 29.2844C27.8702 29.4854 27.7502 29.6519 27.5942 29.7839C27.4412 29.9159 27.2537 30.0149 27.0317 30.0809C26.8097 30.1469 26.5607 30.1799 26.2847 30.1799C26.1587 30.1799 26.0117 30.1739 25.8437 30.1619C25.6757 30.1529 25.5107 30.1319 25.3487 30.0989V27.0614C25.5107 27.0314 25.6787 27.0119 25.8527 27.0029C26.0297 26.9909 26.1812 26.9849 26.3072 26.9849C26.5742 26.9849 26.8157 27.0149 27.0317 27.0749C27.2507 27.1349 27.4382 27.2294 27.5942 27.3584C27.7502 27.4874 27.8702 27.6524 27.9542 27.8534C28.0382 28.0544 28.0802 28.2959 28.0802 28.5779Z" fill="white"/>
<path d="M9.92005 46.0468C9.42938 46.0468 9.01338 45.9641 8.67205 45.7988C8.33072 45.6281 8.04005 45.4094 7.80005 45.1428L8.60005 44.3348C8.97872 44.7614 9.44538 44.9748 10 44.9748C10.2987 44.9748 10.52 44.9134 10.664 44.7908C10.808 44.6681 10.88 44.5054 10.88 44.3028C10.88 44.1481 10.8374 44.0201 10.752 43.9188C10.6667 43.8121 10.4934 43.7401 10.232 43.7028L9.68005 43.6308C9.08805 43.5561 8.65338 43.3774 8.37605 43.0948C8.10405 42.8121 7.96805 42.4361 7.96805 41.9668C7.96805 41.7161 8.01605 41.4868 8.11205 41.2788C8.20805 41.0708 8.34405 40.8921 8.52005 40.7428C8.70138 40.5934 8.92005 40.4788 9.17605 40.3988C9.43738 40.3134 9.73338 40.2708 10.064 40.2708C10.4854 40.2708 10.856 40.3374 11.176 40.4708C11.496 40.6041 11.7707 40.7988 12 41.0548L11.192 41.8708C11.0587 41.7161 10.896 41.5908 10.704 41.4948C10.5174 41.3934 10.28 41.3428 9.99205 41.3428C9.72005 41.3428 9.51738 41.3908 9.38405 41.4868C9.25072 41.5828 9.18405 41.7161 9.18405 41.8868C9.18405 42.0788 9.23472 42.2174 9.33605 42.3028C9.44272 42.3881 9.61338 42.4494 9.84805 42.4868L10.4 42.5748C10.976 42.6654 11.4027 42.8441 11.68 43.1108C11.9574 43.3721 12.096 43.7454 12.096 44.2308C12.096 44.4974 12.048 44.7428 11.952 44.9668C11.856 45.1908 11.7147 45.3828 11.528 45.5428C11.3467 45.7028 11.12 45.8281 10.848 45.9188C10.576 46.0041 10.2667 46.0468 9.92005 46.0468Z" fill="#333333"/>
<path d="M15.5202 45.2468H15.4802C15.4429 45.3534 15.3922 45.4548 15.3282 45.5508C15.2696 45.6468 15.1922 45.7321 15.0962 45.8068C15.0002 45.8814 14.8856 45.9401 14.7522 45.9828C14.6242 46.0254 14.4749 46.0468 14.3042 46.0468C13.8722 46.0468 13.5442 45.9054 13.3202 45.6228C13.1016 45.3348 12.9922 44.9241 12.9922 44.3908V41.7508H14.1762V44.2868C14.1762 44.5428 14.2216 44.7401 14.3122 44.8788C14.4029 45.0174 14.5576 45.0868 14.7762 45.0868C14.8669 45.0868 14.9576 45.0734 15.0482 45.0468C15.1389 45.0201 15.2189 44.9828 15.2882 44.9348C15.3576 44.8814 15.4136 44.8174 15.4562 44.7428C15.4989 44.6681 15.5202 44.5801 15.5202 44.4788V41.7508H16.7042V45.9508H15.5202V45.2468Z" fill="#333333"/>
<path d="M19.5019 46.0468C19.1872 46.0468 18.9072 45.9961 18.6619 45.8948C18.4165 45.7881 18.2112 45.6414 18.0459 45.4548C17.8805 45.2628 17.7552 45.0308 17.6699 44.7588C17.5845 44.4868 17.5419 44.1828 17.5419 43.8468C17.5419 43.5108 17.5845 43.2094 17.6699 42.9428C17.7552 42.6708 17.8805 42.4388 18.0459 42.2468C18.2112 42.0548 18.4165 41.9081 18.6619 41.8068C18.9072 41.7054 19.1872 41.6548 19.5019 41.6548C19.9285 41.6548 20.2832 41.7508 20.5659 41.9428C20.8539 42.1348 21.0592 42.4041 21.1819 42.7508L20.2219 43.1668C20.1845 43.0068 20.1072 42.8708 19.9899 42.7588C19.8725 42.6468 19.7099 42.5908 19.5019 42.5908C19.2619 42.5908 19.0805 42.6708 18.9579 42.8308C18.8352 42.9854 18.7739 43.1961 18.7739 43.4628V44.2468C18.7739 44.5134 18.8352 44.7241 18.9579 44.8788C19.0805 45.0334 19.2619 45.1108 19.5019 45.1108C19.7152 45.1108 19.8832 45.0548 20.0059 44.9428C20.1339 44.8254 20.2272 44.6734 20.2859 44.4868L21.2059 44.8868C21.0672 45.2868 20.8512 45.5801 20.5579 45.7668C20.2699 45.9534 19.9179 46.0468 19.5019 46.0468Z" fill="#333333"/>
<path d="M23.5956 46.0468C23.2809 46.0468 23.0009 45.9961 22.7556 45.8948C22.5103 45.7881 22.3049 45.6414 22.1396 45.4548C21.9743 45.2628 21.8489 45.0308 21.7636 44.7588C21.6783 44.4868 21.6356 44.1828 21.6356 43.8468C21.6356 43.5108 21.6783 43.2094 21.7636 42.9428C21.8489 42.6708 21.9743 42.4388 22.1396 42.2468C22.3049 42.0548 22.5103 41.9081 22.7556 41.8068C23.0009 41.7054 23.2809 41.6548 23.5956 41.6548C24.0223 41.6548 24.3769 41.7508 24.6596 41.9428C24.9476 42.1348 25.1529 42.4041 25.2756 42.7508L24.3156 43.1668C24.2783 43.0068 24.2009 42.8708 24.0836 42.7588C23.9663 42.6468 23.8036 42.5908 23.5956 42.5908C23.3556 42.5908 23.1743 42.6708 23.0516 42.8308C22.9289 42.9854 22.8676 43.1961 22.8676 43.4628V44.2468C22.8676 44.5134 22.9289 44.7241 23.0516 44.8788C23.1743 45.0334 23.3556 45.1108 23.5956 45.1108C23.8089 45.1108 23.9769 45.0548 24.0996 44.9428C24.2276 44.8254 24.3209 44.6734 24.3796 44.4868L25.2996 44.8868C25.1609 45.2868 24.9449 45.5801 24.6516 45.7668C24.3636 45.9534 24.0116 46.0468 23.5956 46.0468Z" fill="#333333"/>
<path d="M27.7454 46.0468C27.4254 46.0468 27.14 45.9961 26.8894 45.8948C26.6387 45.7881 26.4254 45.6414 26.2494 45.4548C26.0787 45.2628 25.948 45.0308 25.8574 44.7588C25.772 44.4868 25.7294 44.1828 25.7294 43.8468C25.7294 43.5161 25.772 43.2174 25.8574 42.9508C25.9427 42.6788 26.068 42.4468 26.2334 42.2548C26.404 42.0628 26.612 41.9161 26.8574 41.8148C27.1027 41.7081 27.3827 41.6548 27.6974 41.6548C28.044 41.6548 28.34 41.7134 28.5854 41.8308C28.836 41.9481 29.0387 42.1054 29.1934 42.3028C29.3534 42.5001 29.468 42.7294 29.5374 42.9908C29.612 43.2468 29.6494 43.5161 29.6494 43.7988V44.1508H26.9534V44.2148C26.9534 44.4921 27.028 44.7134 27.1774 44.8788C27.3267 45.0388 27.5614 45.1188 27.8814 45.1188C28.1267 45.1188 28.3267 45.0708 28.4814 44.9748C28.636 44.8734 28.78 44.7534 28.9134 44.6148L29.5054 45.3508C29.3187 45.5694 29.0734 45.7401 28.7694 45.8628C28.4707 45.9854 28.1294 46.0468 27.7454 46.0468ZM27.7214 42.5268C27.4814 42.5268 27.292 42.6068 27.1534 42.7668C27.02 42.9214 26.9534 43.1294 26.9534 43.3908V43.4548H28.4254V43.3828C28.4254 43.1268 28.3667 42.9214 28.2494 42.7668C28.1374 42.6068 27.9614 42.5268 27.7214 42.5268Z" fill="#333333"/>
<path d="M31.9095 46.0468C31.5042 46.0468 31.1629 45.9828 30.8855 45.8548C30.6082 45.7214 30.3602 45.5348 30.1415 45.2948L30.8375 44.5908C30.9869 44.7561 31.1522 44.8868 31.3335 44.9828C31.5149 45.0788 31.7202 45.1268 31.9495 45.1268C32.1842 45.1268 32.3469 45.0921 32.4375 45.0228C32.5282 44.9481 32.5735 44.8494 32.5735 44.7268C32.5735 44.5294 32.4322 44.4121 32.1495 44.3748L31.6935 44.3188C30.7495 44.2014 30.2775 43.7694 30.2775 43.0228C30.2775 42.8201 30.3149 42.6361 30.3895 42.4708C30.4695 42.3001 30.5789 42.1561 30.7175 42.0388C30.8615 41.9161 31.0322 41.8228 31.2295 41.7588C31.4322 41.6894 31.6589 41.6548 31.9095 41.6548C32.1282 41.6548 32.3202 41.6708 32.4855 41.7028C32.6562 41.7294 32.8055 41.7721 32.9335 41.8308C33.0669 41.8841 33.1869 41.9534 33.2935 42.0388C33.4055 42.1188 33.5149 42.2094 33.6215 42.3108L32.9415 43.0068C32.8082 42.8734 32.6562 42.7694 32.4855 42.6948C32.3202 42.6148 32.1495 42.5748 31.9735 42.5748C31.7709 42.5748 31.6269 42.6068 31.5415 42.6708C31.4562 42.7348 31.4135 42.8201 31.4135 42.9268C31.4135 43.0388 31.4429 43.1268 31.5015 43.1908C31.5655 43.2494 31.6829 43.2921 31.8535 43.3188L32.3255 43.3828C33.2482 43.5054 33.7095 43.9268 33.7095 44.6468C33.7095 44.8494 33.6669 45.0361 33.5815 45.2068C33.4962 45.3774 33.3735 45.5268 33.2135 45.6548C33.0589 45.7774 32.8695 45.8734 32.6455 45.9428C32.4269 46.0121 32.1815 46.0468 31.9095 46.0468Z" fill="#333333"/>
<path d="M35.8861 46.0468C35.4808 46.0468 35.1394 45.9828 34.8621 45.8548C34.5848 45.7214 34.3368 45.5348 34.1181 45.2948L34.8141 44.5908C34.9634 44.7561 35.1288 44.8868 35.3101 44.9828C35.4914 45.0788 35.6968 45.1268 35.9261 45.1268C36.1608 45.1268 36.3234 45.0921 36.4141 45.0228C36.5048 44.9481 36.5501 44.8494 36.5501 44.7268C36.5501 44.5294 36.4088 44.4121 36.1261 44.3748L35.6701 44.3188C34.7261 44.2014 34.2541 43.7694 34.2541 43.0228C34.2541 42.8201 34.2914 42.6361 34.3661 42.4708C34.4461 42.3001 34.5554 42.1561 34.6941 42.0388C34.8381 41.9161 35.0088 41.8228 35.2061 41.7588C35.4088 41.6894 35.6354 41.6548 35.8861 41.6548C36.1048 41.6548 36.2968 41.6708 36.4621 41.7028C36.6328 41.7294 36.7821 41.7721 36.9101 41.8308C37.0434 41.8841 37.1634 41.9534 37.2701 42.0388C37.3821 42.1188 37.4914 42.2094 37.5981 42.3108L36.9181 43.0068C36.7848 42.8734 36.6328 42.7694 36.4621 42.6948C36.2968 42.6148 36.1261 42.5748 35.9501 42.5748C35.7474 42.5748 35.6034 42.6068 35.5181 42.6708C35.4328 42.7348 35.3901 42.8201 35.3901 42.9268C35.3901 43.0388 35.4194 43.1268 35.4781 43.1908C35.5421 43.2494 35.6594 43.2921 35.8301 43.3188L36.3021 43.3828C37.2248 43.5054 37.6861 43.9268 37.6861 44.6468C37.6861 44.8494 37.6434 45.0361 37.5581 45.2068C37.4728 45.3774 37.3501 45.5268 37.1901 45.6548C37.0354 45.7774 36.8461 45.8734 36.6221 45.9428C36.4034 46.0121 36.1581 46.0468 35.8861 46.0468Z" fill="#333333"/>
<path d="M38.9814 44.1908L38.6054 41.9188V40.3668H39.8534V41.9188L39.4854 44.1908H38.9814ZM39.2214 46.0468C38.9654 46.0468 38.7814 45.9881 38.6694 45.8708C38.5627 45.7534 38.5094 45.6094 38.5094 45.4388V45.2468C38.5094 45.0761 38.5627 44.9321 38.6694 44.8148C38.7814 44.6974 38.9654 44.6388 39.2214 44.6388C39.4774 44.6388 39.6587 44.6974 39.7654 44.8148C39.8774 44.9321 39.9334 45.0761 39.9334 45.2468V45.4388C39.9334 45.6094 39.8774 45.7534 39.7654 45.8708C39.6587 45.9881 39.4774 46.0468 39.2214 46.0468Z" fill="#333333"/>
<path d="M40 25.9508C40 28.1599 38.2091 29.9508 36 29.9508C33.7908 29.9508 32 28.1599 32 25.9508C32 23.7416 33.7908 21.9508 36 21.9508C38.2091 21.9508 40 23.7416 40 25.9508Z" fill="#4BB4B3"/>
<path fill-rule="evenodd" clip-rule="evenodd" d="M37.5732 24.524C37.6708 24.4264 37.8291 24.4264 37.9267 24.524C38.0244 24.6216 38.0244 24.7799 37.9267 24.8776L35.4267 27.3776C35.3291 27.4752 35.1708 27.4752 35.0732 27.3776L34.0732 26.3776C33.9755 26.2799 33.9755 26.1216 34.0732 26.024C34.1708 25.9264 34.3291 25.9264 34.4267 26.024L35.25 26.8472L37.5732 24.524Z" fill="white"/>
</g>
</g>
</svg>
