<svg width="32" height="32" viewBox="0 0 32 32" fill="none" xmlns="http://www.w3.org/2000/svg">
<g id="accounts / md / deriv x-md" clip-path="url(#clip0_2369_1522)">
<g id="logo">
<path d="M0 6C0 2.68629 2.68629 0 6 0H26C29.3137 0 32 2.68629 32 6V26C32 29.3137 29.3137 32 26 32H6C2.68629 32 0 29.3137 0 26V6Z" fill="#FF444F"/>
<path d="M6 0C2.68629 0 0 2.68629 0 6V6.17428L29.9144 1.45264C28.8637 0.547333 27.4958 0 26 0H6Z" fill="#E12E3A"/>
<path d="M30.5319 2.06775L25.0444 32L26 32C29.3137 32 32 29.3137 32 26V6C32 4.49576 31.4465 3.12081 30.5319 2.06775Z" fill="#E12E3A"/>
<path d="M9.54424 19.066C9.64691 19.0753 9.76358 19.0846 9.89424 19.094C10.0342 19.094 10.1976 19.094 10.3842 19.094C11.4762 19.094 12.2836 18.8186 12.8062 18.268C13.3382 17.7173 13.6042 16.9566 13.6042 15.986C13.6042 14.9686 13.3522 14.1986 12.8482 13.676C12.3442 13.1533 11.5462 12.8919 10.4542 12.8919C10.3049 12.8919 10.1509 12.8966 9.99224 12.9059C9.83358 12.9059 9.68425 12.9153 9.54424 12.9339V19.066ZM15.8582 15.986C15.8582 16.826 15.7276 17.5586 15.4662 18.184C15.2049 18.8093 14.8316 19.3273 14.3462 19.738C13.8702 20.1486 13.2869 20.4566 12.5962 20.662C11.9056 20.8673 11.1309 20.97 10.2722 20.97C9.88024 20.97 9.42291 20.9513 8.90024 20.9139C8.37758 20.886 7.86424 20.8206 7.36024 20.718V11.268C7.86424 11.1746 8.38691 11.1139 8.92824 11.0859C9.47891 11.0486 9.95024 11.0299 10.3422 11.0299C11.1729 11.0299 11.9242 11.1233 12.5962 11.3099C13.2776 11.4966 13.8609 11.7906 14.3462 12.1919C14.8316 12.5933 15.2049 13.1066 15.4662 13.7319C15.7276 14.3573 15.8582 15.1086 15.8582 15.986Z" fill="white"/>
<path d="M22.0213 20.844C21.7506 20.3026 21.452 19.7566 21.1253 19.206C20.808 18.646 20.4393 18.0766 20.0193 17.498C19.8886 17.666 19.7206 17.8993 19.5153 18.198C19.3193 18.4966 19.1186 18.8139 18.9133 19.15C18.7173 19.486 18.5306 19.808 18.3533 20.116C18.176 20.424 18.0453 20.6666 17.9613 20.844H15.4693C15.88 20.088 16.356 19.2946 16.8973 18.464C17.448 17.6333 18.0593 16.7513 18.7313 15.818L15.6093 11.1419H18.2553L20.1453 14.1659L21.9933 11.1419H24.4853L21.4053 15.8459C22.1893 16.8633 22.8473 17.806 23.3793 18.674C23.9113 19.5326 24.3313 20.256 24.6393 20.844H22.0213Z" fill="white"/>
</g>
</g>
<defs>
<clipPath id="clip0_2369_1522">
<rect width="32" height="32" fill="white"/>
</clipPath>
</defs>
</svg>
