<svg width="32" height="32" viewBox="0 0 32 32" fill="none" xmlns="http://www.w3.org/2000/svg">
<g id="accounts / md / dmt5-standard-md" clip-path="url(#clip0_2727_1745)">
<g id="logo">
<path d="M26 0H6C2.68629 0 0 2.68629 0 6V23.5H32V6C32 2.68629 29.3137 0 26 0Z" fill="#0364B9"/>
<path d="M6 0C2.68629 0 0 2.68629 0 6V6.17428L29.9144 1.45264C28.8637 0.547333 27.4958 0 26 0H6Z" fill="#0A559E"/>
<path d="M32 6C32 4.49576 31.4465 3.12045 30.532 2.06738L26.6028 23.4996L32 23.5V6Z" fill="#0A559E"/>
<path d="M0 23H32V26C32 29.3137 29.3137 32 26 32H6C2.68629 32 0 29.3137 0 26V23Z" fill="#2A3052"/>
<path d="M7.34222 9.684C7.48622 9.948 7.65022 10.276 7.83422 10.668C8.02622 11.052 8.22222 11.472 8.42222 11.928C8.63022 12.376 8.83422 12.836 9.03422 13.308C9.23422 13.78 9.42222 14.224 9.59822 14.64C9.77422 14.224 9.96222 13.78 10.1622 13.308C10.3622 12.836 10.5622 12.376 10.7622 11.928C10.9702 11.472 11.1662 11.052 11.3502 10.668C11.5422 10.276 11.7102 9.948 11.8542 9.684H13.5582C13.6382 10.236 13.7102 10.856 13.7742 11.544C13.8462 12.224 13.9062 12.936 13.9542 13.68C14.0102 14.416 14.0582 15.156 14.0982 15.9C14.1462 16.644 14.1862 17.344 14.2182 18H12.3942C12.3702 17.192 12.3382 16.312 12.2982 15.36C12.2582 14.408 12.1982 13.448 12.1182 12.48C11.9742 12.816 11.8142 13.188 11.6382 13.596C11.4622 14.004 11.2862 14.412 11.1102 14.82C10.9422 15.228 10.7782 15.62 10.6182 15.996C10.4582 16.364 10.3222 16.68 10.2102 16.944H8.90222C8.79022 16.68 8.65422 16.364 8.49422 15.996C8.33422 15.62 8.16622 15.228 7.99022 14.82C7.82222 14.412 7.65022 14.004 7.47422 13.596C7.29822 13.188 7.13822 12.816 6.99422 12.48C6.91422 13.448 6.85422 14.408 6.81422 15.36C6.77422 16.312 6.74222 17.192 6.71822 18H4.89422C4.92622 17.344 4.96222 16.644 5.00222 15.9C5.05022 15.156 5.09822 14.416 5.14622 13.68C5.20222 12.936 5.26222 12.224 5.32622 11.544C5.39822 10.856 5.47422 10.236 5.55422 9.684H7.34222Z" fill="white"/>
<path d="M21.3546 9.684V11.28H18.8466V18H16.9746V11.28H14.4666V9.684H21.3546Z" fill="white"/>
<path d="M25.3177 15.552C25.3177 15.32 25.2657 15.116 25.1617 14.94C25.0577 14.756 24.8777 14.604 24.6217 14.484C24.3657 14.364 24.0217 14.272 23.5897 14.208C23.1577 14.144 22.6137 14.112 21.9577 14.112C22.0457 13.368 22.1177 12.612 22.1737 11.844C22.2297 11.076 22.2737 10.356 22.3057 9.684H26.8057V11.184H23.8057C23.7897 11.472 23.7697 11.752 23.7457 12.024C23.7297 12.288 23.7097 12.52 23.6857 12.72C24.8537 12.8 25.7137 13.076 26.2657 13.548C26.8257 14.012 27.1057 14.66 27.1057 15.492C27.1057 15.876 27.0377 16.232 26.9017 16.56C26.7657 16.888 26.5617 17.172 26.2897 17.412C26.0177 17.652 25.6737 17.84 25.2577 17.976C24.8497 18.112 24.3697 18.18 23.8177 18.18C23.6017 18.18 23.3737 18.164 23.1337 18.132C22.9017 18.108 22.6737 18.072 22.4497 18.024C22.2337 17.984 22.0377 17.94 21.8617 17.892C21.6857 17.844 21.5497 17.796 21.4537 17.748L21.7777 16.272C21.9777 16.36 22.2417 16.448 22.5697 16.536C22.8977 16.616 23.2897 16.656 23.7457 16.656C24.2977 16.656 24.6977 16.548 24.9457 16.332C25.1937 16.108 25.3177 15.848 25.3177 15.552Z" fill="white"/>
<path d="M11.8161 28.8719C11.9481 28.8719 12.0561 28.8619 12.1401 28.8419C12.2281 28.8179 12.2981 28.7879 12.3501 28.7519C12.4021 28.7119 12.4381 28.6659 12.4581 28.6139C12.4781 28.5619 12.4881 28.5039 12.4881 28.4399C12.4881 28.3039 12.4241 28.1919 12.2961 28.1039C12.1681 28.0119 11.9481 27.9139 11.6361 27.8099C11.5001 27.7619 11.3641 27.7079 11.2281 27.6479C11.0921 27.5839 10.9701 27.5059 10.8621 27.4139C10.7541 27.3179 10.6661 27.2039 10.5981 27.0719C10.5301 26.9359 10.4961 26.7719 10.4961 26.5799C10.4961 26.3879 10.5321 26.2159 10.6041 26.0639C10.6761 25.9079 10.7781 25.7759 10.9101 25.6679C11.0421 25.5599 11.2021 25.4779 11.3901 25.4219C11.5781 25.3619 11.7901 25.3319 12.0261 25.3319C12.3061 25.3319 12.5481 25.3619 12.7521 25.4219C12.9561 25.4819 13.1241 25.5479 13.2561 25.6199L12.9861 26.3579C12.8701 26.2979 12.7401 26.2459 12.5961 26.2019C12.4561 26.1539 12.2861 26.1299 12.0861 26.1299C11.8621 26.1299 11.7001 26.1619 11.6001 26.2259C11.5041 26.2859 11.4561 26.3799 11.4561 26.5079C11.4561 26.5839 11.4741 26.6479 11.5101 26.6999C11.5461 26.7519 11.5961 26.7999 11.6601 26.8439C11.7281 26.8839 11.8041 26.9219 11.8881 26.9579C11.9761 26.9899 12.0721 27.0239 12.1761 27.0599C12.3921 27.1399 12.5801 27.2199 12.7401 27.2999C12.9001 27.3759 13.0321 27.4659 13.1361 27.5699C13.2441 27.6739 13.3241 27.7959 13.3761 27.9359C13.4281 28.0759 13.4541 28.2459 13.4541 28.4459C13.4541 28.8339 13.3181 29.1359 13.0461 29.3519C12.7741 29.5639 12.3641 29.6699 11.8161 29.6699C11.6321 29.6699 11.4661 29.6579 11.3181 29.6339C11.1701 29.6139 11.0381 29.5879 10.9221 29.5559C10.8101 29.5239 10.7121 29.4899 10.6281 29.4539C10.5481 29.4179 10.4801 29.3839 10.4241 29.3519L10.6881 28.6079C10.8121 28.6759 10.9641 28.7379 11.1441 28.7939C11.3281 28.8459 11.5521 28.8719 11.8161 28.8719Z" fill="white"/>
<path d="M17.1411 25.4279V26.2259H15.8871V29.5859H14.9511V26.2259H13.6971V25.4279H17.1411Z" fill="white"/>
<path d="M20.5327 29.5859C20.2647 29.1099 19.9747 28.6399 19.6627 28.1759C19.3507 27.7119 19.0187 27.2739 18.6667 26.8619V29.5859H17.7427V25.4279H18.5047C18.6367 25.5599 18.7827 25.7219 18.9427 25.9139C19.1027 26.1059 19.2647 26.3119 19.4287 26.5319C19.5967 26.7479 19.7627 26.9739 19.9267 27.2099C20.0907 27.4419 20.2447 27.6659 20.3887 27.8819V25.4279H21.3187V29.5859H20.5327Z" fill="white"/>
</g>
</g>
<defs>
<clipPath id="clip0_2727_1745">
<rect width="32" height="32" fill="white"/>
</clipPath>
</defs>
</svg>
