<svg width="32" height="32" viewBox="0 0 32 32" fill="none" xmlns="http://www.w3.org/2000/svg">
<g id="accounts / md / deriv ctrader-md">
<g id="logo">
<path d="M0 6C0 2.68629 2.68629 0 6 0H26C29.3137 0 32 2.68629 32 6V26C32 29.3137 29.3137 32 26 32H6C2.68629 32 0 29.3137 0 26V6Z" fill="#E22526"/>
<path d="M6 0C2.68629 0 0 2.68629 0 6V6.17428L29.9144 1.45264C28.8637 0.547333 27.4958 0 26 0H6Z" fill="#B51E1E"/>
<path d="M30.5319 2.06775L25.0444 32L26 32C29.3137 32 32 29.3137 32 26V6C32 4.49576 31.4465 3.12081 30.5319 2.06775Z" fill="#B51E1E"/>
<path d="M9.00694 17.071C9.00694 16.539 9.09094 16.0397 9.25894 15.573C9.43628 15.097 9.68828 14.6863 10.0149 14.341C10.3416 13.9863 10.7383 13.7063 11.2049 13.501C11.6716 13.2957 12.2036 13.193 12.8009 13.193C13.1929 13.193 13.5523 13.2303 13.8789 13.305C14.2056 13.3703 14.5229 13.4683 14.8309 13.599L14.3969 15.265C14.2009 15.1903 13.9863 15.125 13.7529 15.069C13.5196 15.013 13.2583 14.985 12.9689 14.985C12.3529 14.985 11.8909 15.1763 11.5829 15.559C11.2843 15.9417 11.1349 16.4457 11.1349 17.071C11.1349 17.7337 11.2749 18.247 11.5549 18.611C11.8443 18.975 12.3436 19.157 13.0529 19.157C13.3049 19.157 13.5756 19.1337 13.8649 19.087C14.1543 19.0403 14.4203 18.9657 14.6629 18.863L14.9569 20.571C14.7143 20.6737 14.4109 20.7623 14.0469 20.837C13.6829 20.9117 13.2816 20.949 12.8429 20.949C12.1709 20.949 11.5923 20.851 11.1069 20.655C10.6216 20.4497 10.2203 20.1743 9.90294 19.829C9.59494 19.4837 9.36628 19.0777 9.21694 18.611C9.07694 18.135 9.00694 17.6217 9.00694 17.071Z" fill="white"/>
<path d="M22.9929 11.051V12.913H20.0669V20.753H17.8829V12.913H14.9569V11.051H22.9929Z" fill="white"/>
</g>
</g>
</svg>
