<svg width="48" height="48" viewBox="0 0 48 48" fill="none" xmlns="http://www.w3.org/2000/svg">
<g id="accounts / mt5-standard-bvi-light">
<g id="icon">
<path d="M31.5 7.95157H16.5C14.0147 7.95157 12 9.96629 12 12.4516V25.5766H36V12.4516C36 9.96629 33.9852 7.95157 31.5 7.95157Z" fill="#0364B9"/>
<path d="M16.5 7.95157C14.0147 7.95157 12 9.96629 12 12.4516V12.5823L34.4358 9.04105C33.6477 8.36207 32.6218 7.95157 31.5 7.95157H16.5Z" fill="#0A559E"/>
<path d="M36 12.4516C36 11.3234 35.5849 10.2919 34.899 9.50211L31.952 25.5763L36 25.5766V12.4516Z" fill="#0A559E"/>
<path d="M12 25.2016H36V27.4516C36 29.9368 33.9852 31.9516 31.5 31.9516H16.5C14.0147 31.9516 12 29.9368 12 27.4516V25.2016Z" fill="#2A3052"/>
<path d="M17.5095 15.2146C17.6175 15.4126 17.7405 15.6586 17.8785 15.9526C18.0225 16.2406 18.1695 16.5556 18.3195 16.8976C18.4755 17.2336 18.6285 17.5786 18.7785 17.9326C18.9285 18.2866 19.0695 18.6196 19.2015 18.9316C19.3335 18.6196 19.4746 18.2866 19.6245 17.9326C19.7746 17.5786 19.9246 17.2336 20.0745 16.8976C20.2305 16.5556 20.3776 16.2406 20.5155 15.9526C20.6595 15.6586 20.7855 15.4126 20.8935 15.2146H22.1715C22.2316 15.6286 22.2856 16.0936 22.3335 16.6096C22.3875 17.1196 22.4325 17.6536 22.4685 18.2116C22.5105 18.7636 22.5465 19.3186 22.5765 19.8766C22.6125 20.4346 22.6425 20.9596 22.6665 21.4516H21.2985C21.2806 20.8456 21.2565 20.1856 21.2265 19.4716C21.1965 18.7576 21.1516 18.0376 21.0915 17.3116C20.9836 17.5636 20.8635 17.8426 20.7315 18.1486C20.5995 18.4546 20.4675 18.7606 20.3355 19.0666C20.2095 19.3726 20.0865 19.6666 19.9665 19.9486C19.8465 20.2246 19.7445 20.4616 19.6605 20.6596H18.6795C18.5955 20.4616 18.4935 20.2246 18.3735 19.9486C18.2535 19.6666 18.1275 19.3726 17.9955 19.0666C17.8695 18.7606 17.7405 18.4546 17.6085 18.1486C17.4765 17.8426 17.3565 17.5636 17.2485 17.3116C17.1885 18.0376 17.1435 18.7576 17.1135 19.4716C17.0835 20.1856 17.0595 20.8456 17.0415 21.4516H15.6735C15.6975 20.9596 15.7245 20.4346 15.7545 19.8766C15.7905 19.3186 15.8265 18.7636 15.8625 18.2116C15.9045 17.6536 15.9495 17.1196 15.9975 16.6096C16.0515 16.0936 16.1085 15.6286 16.1685 15.2146H17.5095Z" fill="white"/>
<path d="M28.0188 15.2146V16.4116H26.1378V21.4516H24.7338V16.4116H22.8528V15.2146H28.0188Z" fill="white"/>
<path d="M30.9911 19.6156C30.9911 19.4416 30.9521 19.2886 30.8741 19.1566C30.7961 19.0186 30.6611 18.9046 30.4691 18.8146C30.2771 18.7246 30.0191 18.6556 29.6951 18.6076C29.3711 18.5596 28.9631 18.5356 28.4711 18.5356C28.5371 17.9776 28.5911 17.4106 28.6331 16.8346C28.6751 16.2586 28.7081 15.7186 28.7321 15.2146H32.1071V16.3396H29.8571C29.8451 16.5556 29.8301 16.7656 29.8121 16.9696C29.8001 17.1676 29.7851 17.3416 29.7671 17.4916C30.6431 17.5516 31.2881 17.7586 31.7021 18.1126C32.1221 18.4606 32.3321 18.9466 32.3321 19.5706C32.3321 19.8586 32.2811 20.1256 32.1791 20.3716C32.0771 20.6176 31.9241 20.8306 31.7201 21.0106C31.5161 21.1906 31.2581 21.3316 30.9461 21.4336C30.6401 21.5356 30.2801 21.5866 29.8661 21.5866C29.7041 21.5866 29.5331 21.5746 29.3531 21.5506C29.1791 21.5326 29.0081 21.5056 28.8401 21.4696C28.6781 21.4396 28.5311 21.4066 28.3991 21.3706C28.2671 21.3346 28.1651 21.2986 28.0931 21.2626L28.3361 20.1556C28.4861 20.2216 28.6841 20.2876 28.9301 20.3536C29.1761 20.4136 29.4701 20.4436 29.8121 20.4436C30.2261 20.4436 30.5261 20.3626 30.7121 20.2006C30.8981 20.0326 30.9911 19.8376 30.9911 19.6156Z" fill="white"/>
<path d="M20.9038 29.6055C21.0028 29.6055 21.0838 29.598 21.1468 29.583C21.2128 29.565 21.2653 29.5425 21.3043 29.5155C21.3433 29.4855 21.3703 29.451 21.3853 29.412C21.4003 29.373 21.4078 29.3295 21.4078 29.2815C21.4078 29.1795 21.3598 29.0955 21.2638 29.0295C21.1678 28.9605 21.0028 28.887 20.7688 28.809C20.6668 28.773 20.5648 28.7325 20.4628 28.6875C20.3608 28.6395 20.2693 28.581 20.1883 28.512C20.1073 28.44 20.0413 28.3545 19.9903 28.2555C19.9393 28.1535 19.9138 28.0305 19.9138 27.8865C19.9138 27.7425 19.9408 27.6135 19.9948 27.4995C20.0488 27.3825 20.1253 27.2835 20.2243 27.2025C20.3233 27.1215 20.4433 27.06 20.5843 27.018C20.7253 26.973 20.8843 26.9505 21.0613 26.9505C21.2713 26.9505 21.4528 26.973 21.6058 27.018C21.7588 27.063 21.8848 27.1125 21.9838 27.1665L21.7813 27.72C21.6943 27.675 21.5968 27.636 21.4888 27.603C21.3838 27.567 21.2563 27.549 21.1063 27.549C20.9383 27.549 20.8168 27.573 20.7418 27.621C20.6698 27.666 20.6338 27.7365 20.6338 27.8325C20.6338 27.8895 20.6473 27.9375 20.6743 27.9765C20.7013 28.0155 20.7388 28.0515 20.7868 28.0845C20.8378 28.1145 20.8948 28.143 20.9578 28.17C21.0238 28.194 21.0958 28.2195 21.1738 28.2465C21.3358 28.3065 21.4768 28.3665 21.5968 28.4265C21.7168 28.4835 21.8158 28.551 21.8938 28.629C21.9748 28.707 22.0348 28.7985 22.0738 28.9035C22.1128 29.0085 22.1323 29.136 22.1323 29.286C22.1323 29.577 22.0303 29.8035 21.8263 29.9655C21.6223 30.1245 21.3148 30.204 20.9038 30.204C20.7658 30.204 20.6413 30.195 20.5303 30.177C20.4193 30.162 20.3203 30.1425 20.2333 30.1185C20.1493 30.0945 20.0758 30.069 20.0128 30.042C19.9528 30.015 19.9018 29.9895 19.8598 29.9655L20.0578 29.4075C20.1508 29.4585 20.2648 29.505 20.3998 29.547C20.5378 29.586 20.7058 29.6055 20.9038 29.6055Z" fill="white"/>
<path d="M24.8976 27.0225V27.621H23.9571V30.141H23.2551V27.621H22.3146V27.0225H24.8976Z" fill="white"/>
<path d="M26.0507 29.5695C26.0837 29.5725 26.1212 29.5755 26.1632 29.5785C26.2082 29.5785 26.2607 29.5785 26.3207 29.5785C26.6717 29.5785 26.9312 29.49 27.0992 29.313C27.2702 29.136 27.3557 28.8915 27.3557 28.5795C27.3557 28.2525 27.2747 28.005 27.1127 27.837C26.9507 27.669 26.6942 27.585 26.3432 27.585C26.2952 27.585 26.2457 27.5865 26.1947 27.5895C26.1437 27.5895 26.0957 27.5925 26.0507 27.5985V29.5695ZM28.0802 28.5795C28.0802 28.8495 28.0382 29.085 27.9542 29.286C27.8702 29.487 27.7502 29.6535 27.5942 29.7855C27.4412 29.9175 27.2537 30.0165 27.0317 30.0825C26.8097 30.1485 26.5607 30.1815 26.2847 30.1815C26.1587 30.1815 26.0117 30.1755 25.8437 30.1635C25.6757 30.1545 25.5107 30.1335 25.3487 30.1005V27.063C25.5107 27.033 25.6787 27.0135 25.8527 27.0045C26.0297 26.9925 26.1812 26.9865 26.3072 26.9865C26.5742 26.9865 26.8157 27.0165 27.0317 27.0765C27.2507 27.1365 27.4382 27.231 27.5942 27.36C27.7502 27.489 27.8702 27.654 27.9542 27.855C28.0382 28.056 28.0802 28.2975 28.0802 28.5795Z" fill="white"/>
<path d="M9.00989 46.0476C8.51923 46.0476 8.10323 45.9649 7.76189 45.7996C7.42056 45.6289 7.12989 45.4102 6.88989 45.1436L7.68989 44.3356C8.06856 44.7622 8.53523 44.9756 9.08989 44.9756C9.38856 44.9756 9.60989 44.9142 9.75389 44.7916C9.89789 44.6689 9.96989 44.5062 9.96989 44.3036C9.96989 44.1489 9.92723 44.0209 9.84189 43.9196C9.75656 43.8129 9.58323 43.7409 9.32189 43.7036L8.76989 43.6316C8.17789 43.5569 7.74323 43.3782 7.46589 43.0956C7.19389 42.8129 7.05789 42.4369 7.05789 41.9676C7.05789 41.7169 7.10589 41.4876 7.20189 41.2796C7.29789 41.0716 7.43389 40.8929 7.60989 40.7436C7.79123 40.5942 8.00989 40.4796 8.26589 40.3996C8.52723 40.3142 8.82323 40.2716 9.15389 40.2716C9.57523 40.2716 9.94589 40.3382 10.2659 40.4716C10.5859 40.6049 10.8606 40.7996 11.0899 41.0556L10.2819 41.8716C10.1486 41.7169 9.98589 41.5916 9.79389 41.4956C9.60723 41.3942 9.36989 41.3436 9.08189 41.3436C8.80989 41.3436 8.60723 41.3916 8.47389 41.4876C8.34056 41.5836 8.27389 41.7169 8.27389 41.8876C8.27389 42.0796 8.32456 42.2182 8.42589 42.3036C8.53256 42.3889 8.70323 42.4502 8.93789 42.4876L9.48989 42.5756C10.0659 42.6662 10.4926 42.8449 10.7699 43.1116C11.0472 43.3729 11.1859 43.7462 11.1859 44.2316C11.1859 44.4982 11.1379 44.7436 11.0419 44.9676C10.9459 45.1916 10.8046 45.3836 10.6179 45.5436C10.4366 45.7036 10.2099 45.8289 9.93789 45.9196C9.66589 46.0049 9.35656 46.0476 9.00989 46.0476Z" fill="#333333"/>
<path d="M13.563 45.9516C13.1524 45.9516 12.8404 45.8476 12.627 45.6396C12.419 45.4316 12.315 45.1276 12.315 44.7276V42.6716H11.723V41.7516H12.019C12.179 41.7516 12.2884 41.7142 12.347 41.6396C12.4057 41.5596 12.435 41.4476 12.435 41.3036V40.6156H13.499V41.7516H14.331V42.6716H13.499V45.0316H14.267V45.9516H13.563Z" fill="#333333"/>
<path d="M18.2575 45.9516C18.0442 45.9516 17.8655 45.8849 17.7215 45.7516C17.5829 45.6182 17.4949 45.4396 17.4575 45.2156H17.4095C17.3455 45.4876 17.2042 45.6956 16.9855 45.8396C16.7669 45.9782 16.4975 46.0476 16.1775 46.0476C15.7562 46.0476 15.4335 45.9356 15.2095 45.7116C14.9855 45.4876 14.8735 45.1916 14.8735 44.8236C14.8735 44.3809 15.0335 44.0529 15.3535 43.8396C15.6789 43.6209 16.1189 43.5116 16.6735 43.5116H17.3375V43.2476C17.3375 43.0449 17.2842 42.8849 17.1775 42.7676C17.0709 42.6449 16.8922 42.5836 16.6415 42.5836C16.4069 42.5836 16.2202 42.6342 16.0815 42.7356C15.9429 42.8369 15.8282 42.9516 15.7375 43.0796L15.0335 42.4556C15.2042 42.2049 15.4175 42.0102 15.6735 41.8716C15.9349 41.7276 16.2869 41.6556 16.7295 41.6556C17.3269 41.6556 17.7749 41.7862 18.0735 42.0476C18.3722 42.3089 18.5215 42.6902 18.5215 43.1916V45.0316H18.9135V45.9516H18.2575ZM16.6175 45.2236C16.8149 45.2236 16.9829 45.1809 17.1215 45.0956C17.2655 45.0102 17.3375 44.8716 17.3375 44.6796V44.1836H16.7615C16.2975 44.1836 16.0655 44.3409 16.0655 44.6556V44.7756C16.0655 44.9302 16.1135 45.0449 16.2095 45.1196C16.3055 45.1889 16.4415 45.2236 16.6175 45.2236Z" fill="#333333"/>
<path d="M19.7082 45.9516V41.7516H20.8922V42.4636H20.9402C21.0149 42.2449 21.1455 42.0556 21.3322 41.8956C21.5189 41.7356 21.7775 41.6556 22.1082 41.6556C22.5402 41.6556 22.8655 41.7996 23.0842 42.0876C23.3082 42.3756 23.4202 42.7862 23.4202 43.3196V45.9516H22.2362V43.4156C22.2362 43.1436 22.1935 42.9436 22.1082 42.8156C22.0229 42.6822 21.8709 42.6156 21.6522 42.6156C21.5562 42.6156 21.4629 42.6289 21.3722 42.6556C21.2815 42.6769 21.1989 42.7142 21.1242 42.7676C21.0549 42.8209 20.9989 42.8876 20.9562 42.9676C20.9135 43.0422 20.8922 43.1302 20.8922 43.2316V45.9516H19.7082Z" fill="#333333"/>
<path d="M27.0498 45.2476H27.0098C26.9778 45.3596 26.9272 45.4662 26.8578 45.5676C26.7885 45.6636 26.7032 45.7489 26.6018 45.8236C26.5058 45.8929 26.3938 45.9462 26.2658 45.9836C26.1432 46.0262 26.0152 46.0476 25.8818 46.0476C25.3485 46.0476 24.9458 45.8609 24.6738 45.4876C24.4018 45.1089 24.2658 44.5622 24.2658 43.8476C24.2658 43.1329 24.4018 42.5889 24.6738 42.2156C24.9458 41.8422 25.3485 41.6556 25.8818 41.6556C26.1538 41.6556 26.3938 41.7302 26.6018 41.8796C26.8152 42.0289 26.9512 42.2209 27.0098 42.4556H27.0498V40.0316H28.2338V45.9516H27.0498V45.2476ZM26.2738 45.0876C26.4978 45.0876 26.6818 45.0342 26.8258 44.9276C26.9752 44.8156 27.0498 44.6636 27.0498 44.4716V43.2316C27.0498 43.0396 26.9752 42.8902 26.8258 42.7836C26.6818 42.6716 26.4978 42.6156 26.2738 42.6156C26.0498 42.6156 25.8632 42.6956 25.7138 42.8556C25.5698 43.0102 25.4978 43.2209 25.4978 43.4876V44.2156C25.4978 44.4822 25.5698 44.6956 25.7138 44.8556C25.8632 45.0102 26.0498 45.0876 26.2738 45.0876Z" fill="#333333"/>
<path d="M32.445 45.9516C32.2317 45.9516 32.053 45.8849 31.909 45.7516C31.7704 45.6182 31.6824 45.4396 31.645 45.2156H31.597C31.533 45.4876 31.3917 45.6956 31.173 45.8396C30.9544 45.9782 30.685 46.0476 30.365 46.0476C29.9437 46.0476 29.621 45.9356 29.397 45.7116C29.173 45.4876 29.061 45.1916 29.061 44.8236C29.061 44.3809 29.221 44.0529 29.541 43.8396C29.8664 43.6209 30.3064 43.5116 30.861 43.5116H31.525V43.2476C31.525 43.0449 31.4717 42.8849 31.365 42.7676C31.2584 42.6449 31.0797 42.5836 30.829 42.5836C30.5944 42.5836 30.4077 42.6342 30.269 42.7356C30.1304 42.8369 30.0157 42.9516 29.925 43.0796L29.221 42.4556C29.3917 42.2049 29.605 42.0102 29.861 41.8716C30.1224 41.7276 30.4743 41.6556 30.917 41.6556C31.5144 41.6556 31.9624 41.7862 32.261 42.0476C32.5597 42.3089 32.709 42.6902 32.709 43.1916V45.0316H33.101V45.9516H32.445ZM30.805 45.2236C31.0023 45.2236 31.1704 45.1809 31.309 45.0956C31.453 45.0102 31.525 44.8716 31.525 44.6796V44.1836H30.949C30.485 44.1836 30.253 44.3409 30.253 44.6556V44.7756C30.253 44.9302 30.301 45.0449 30.397 45.1196C30.493 45.1889 30.629 45.2236 30.805 45.2236Z" fill="#333333"/>
<path d="M33.8957 45.9516V41.7516H35.0797V42.6636H35.1197C35.141 42.5462 35.1784 42.4342 35.2317 42.3276C35.285 42.2156 35.3544 42.1169 35.4397 42.0316C35.5304 41.9462 35.637 41.8796 35.7597 41.8316C35.8824 41.7782 36.0264 41.7516 36.1917 41.7516H36.3997V42.8556H36.1037C35.757 42.8556 35.4984 42.9009 35.3277 42.9916C35.1624 43.0822 35.0797 43.2502 35.0797 43.4956V45.9516H33.8957Z" fill="#333333"/>
<path d="M39.6748 45.2476H39.6348C39.6028 45.3596 39.5522 45.4662 39.4828 45.5676C39.4135 45.6636 39.3282 45.7489 39.2268 45.8236C39.1308 45.8929 39.0188 45.9462 38.8908 45.9836C38.7682 46.0262 38.6402 46.0476 38.5068 46.0476C37.9735 46.0476 37.5708 45.8609 37.2988 45.4876C37.0268 45.1089 36.8908 44.5622 36.8908 43.8476C36.8908 43.1329 37.0268 42.5889 37.2988 42.2156C37.5708 41.8422 37.9735 41.6556 38.5068 41.6556C38.7788 41.6556 39.0188 41.7302 39.2268 41.8796C39.4402 42.0289 39.5762 42.2209 39.6348 42.4556H39.6748V40.0316H40.8588V45.9516H39.6748V45.2476ZM38.8988 45.0876C39.1228 45.0876 39.3068 45.0342 39.4508 44.9276C39.6002 44.8156 39.6748 44.6636 39.6748 44.4716V43.2316C39.6748 43.0396 39.6002 42.8902 39.4508 42.7836C39.3068 42.6716 39.1228 42.6156 38.8988 42.6156C38.6748 42.6156 38.4882 42.6956 38.3388 42.8556C38.1948 43.0102 38.1228 43.2209 38.1228 43.4876V44.2156C38.1228 44.4822 38.1948 44.6956 38.3388 44.8556C38.4882 45.0102 38.6748 45.0876 38.8988 45.0876Z" fill="#333333"/>
<path d="M38.8837 1.95239H29.1162C28.8202 1.95239 28.5362 2.06945 28.3269 2.27783C28.1176 2.4862 28 2.76882 28 3.0635V10.8413C28 11.136 28.1176 11.4186 28.3269 11.627C28.5362 11.8353 28.8202 11.9524 29.1162 11.9524H38.8837C39.1797 11.9524 39.4637 11.8353 39.673 11.627C39.8823 11.4186 40 11.136 40 10.8413V3.0635C40 2.76882 39.8823 2.4862 39.673 2.27783C39.4637 2.06945 39.1797 1.95239 38.8837 1.95239Z" fill="#4BB4B3"/>
<path d="M29.5457 5.29681H31.4378C31.7615 5.29681 32.0127 5.38765 32.1913 5.56904C32.3735 5.75043 32.4648 5.99126 32.4648 6.29126C32.4648 6.43931 32.4444 6.56543 32.4034 6.66904C32.3663 6.77265 32.3141 6.85793 32.2471 6.92459C32.1838 6.99126 32.1076 7.04126 32.0183 7.07459C31.9326 7.10432 31.8397 7.12098 31.7392 7.12459V7.15793C31.8321 7.15793 31.929 7.17459 32.0294 7.20793C32.1335 7.24126 32.2284 7.29487 32.3141 7.36904C32.3998 7.43932 32.4704 7.53209 32.5262 7.64682C32.5856 7.76154 32.6155 7.90237 32.6155 8.06904C32.6155 8.22098 32.5895 8.36543 32.5374 8.50237C32.4891 8.63571 32.4201 8.75237 32.3308 8.85237C32.2415 8.95237 32.1355 9.03209 32.0127 9.09126C31.8899 9.14681 31.756 9.17459 31.6108 9.17459H29.5457V5.29681ZM30.3941 8.46348H31.3708C31.4825 8.46348 31.5698 8.43376 31.6332 8.37459C31.7001 8.31154 31.7336 8.22459 31.7336 8.11348V7.92459C31.7336 7.81348 31.7001 7.72821 31.6332 7.66904C31.5698 7.60598 31.4825 7.5746 31.3708 7.5746H30.3941V8.46348ZM30.3941 6.8857H31.2369C31.3485 6.8857 31.4359 6.85432 31.4992 6.79126C31.5626 6.7282 31.5941 6.64126 31.5941 6.53015V6.36348C31.5941 6.25237 31.5626 6.16543 31.4992 6.10237C31.4359 6.03932 31.3485 6.00793 31.2369 6.00793H30.3941V6.8857ZM34.0145 9.17459L32.7587 5.29681H33.6182L34.1987 7.15793L34.5056 8.37459H34.5224L34.8182 7.15793L35.3987 5.29681H36.2303L34.9633 9.17459H34.0145ZM36.5897 9.17459V8.50237H37.092V5.96904H36.5897V5.29681H38.4427V5.96904H37.9404V8.50237H38.4427V9.17459H36.5897Z" fill="white"/>
</g>
</g>
</svg>
