<svg width="128" height="80" viewBox="0 0 128 80" fill="none" xmlns="http://www.w3.org/2000/svg">
<g id="payment methods / payment method-interac-etransfer / black">
<g id="logo">
<path d="M26.4201 34.4344C25.6547 34.607 25.2541 35.3528 25.2476 36.5969L27.56 36.0433V35.6688C27.5502 34.7438 27.2603 34.2423 26.4201 34.4344Z" fill="black"/>
<path d="M40.1508 34.2358C40.1508 34.2358 39.7014 34.5712 38.9946 34.9132C38.2781 35.2682 37.9524 35.6981 37.9524 36.369C37.9524 36.9519 38.3042 37.333 38.9621 37.1701C39.6623 36.9975 40.1508 36.3397 40.1508 35.431C40.1434 35.0405 40.1472 34.6518 40.1495 34.4145L40.1503 34.3261L40.1506 34.2824L40.1508 34.2358Z" fill="black"/>
<path d="M47.8662 23.9117C48.1723 23.9117 48.3449 23.7293 48.3449 23.4232C48.3449 23.1072 48.2114 22.9346 47.8955 22.9346H47.4916V23.9019H47.8662V23.9117Z" fill="black"/>
<path fill-rule="evenodd" clip-rule="evenodd" d="M47.8955 21.8924C47.3277 21.8942 46.7836 22.1205 46.3821 22.522C45.9806 22.9235 45.7542 23.4676 45.7525 24.0354C45.7525 24.4593 45.8782 24.8736 46.1137 25.226C46.3491 25.5784 46.6838 25.8531 47.0754 26.0153C47.467 26.1775 47.8979 26.2199 48.3136 26.1372C48.7293 26.0545 49.1111 25.8504 49.4108 25.5507C49.7105 25.251 49.9146 24.8692 49.9973 24.4535C50.08 24.0378 50.0375 23.6069 49.8754 23.2153C49.7132 22.8238 49.4385 22.4891 49.0861 22.2536C48.7337 22.0181 48.3193 21.8924 47.8955 21.8924ZM47.0064 22.5699H48.0583C48.4785 22.5699 48.8139 22.7816 48.8139 23.3352C48.8139 23.726 48.6413 24.0257 48.3156 24.0713C48.6087 24.1038 48.7651 24.2634 48.7846 24.6835C48.7894 24.7783 48.7919 24.8825 48.7943 24.9853L48.7943 24.9864C48.7968 25.0917 48.7992 25.1955 48.8041 25.286C48.8139 25.4293 48.879 25.5075 48.9474 25.5466H48.4101C48.3645 25.488 48.3449 25.4 48.3352 25.2763C48.3233 25.1677 48.3222 25.0651 48.321 24.9518C48.3203 24.8783 48.3195 24.8 48.3156 24.7128C48.3058 24.3872 48.2114 24.2439 47.8759 24.2439H47.4851V25.5466H47.0064V22.5699Z" fill="black"/>
<path fill-rule="evenodd" clip-rule="evenodd" d="M51.8035 59.9154C51.8035 62.1138 50.0155 63.9017 47.8171 63.9017H7.98634C6.92936 63.9009 5.91592 63.4806 5.16852 62.7332C4.42113 61.9858 4.00086 60.9724 4 59.9154V20.0846C4 17.8895 5.77822 16.0983 7.98634 16.0983H47.8269C50.0253 16.0983 51.8132 17.8863 51.8132 20.0846V59.9154H51.8035ZM11.0838 42.9445C10.4161 42.8793 9.9569 43.0975 9.9569 43.0975V36.9324L12.2139 36.395V37.3623C12.2139 37.3623 12.8261 36.014 14.4415 35.6329C16.2295 35.2095 16.8027 36.2517 16.8027 37.7433V43.8824L14.4318 44.4361V38.6357C14.4318 37.7303 14.0084 37.5479 13.4938 37.6619C12.8164 37.815 12.3474 38.5706 12.3474 39.5248V43.5144C12.3435 43.5183 12.3224 43.5012 12.2849 43.4706C12.1345 43.3481 11.7197 43.0103 11.0838 42.9477V42.9445ZM30.6865 40.6126V32.057L32.9207 31.5196V32.6497C32.9207 32.6497 33.5069 31.1776 34.8422 30.8324C35.2558 30.7282 35.4642 30.7933 35.4642 30.7933V32.9754C35.4642 32.9754 34.9594 32.9558 34.2918 33.2229C33.4678 33.5486 33.0477 34.2553 33.0477 35.3463V40.0687L30.6865 40.6126ZM18.9164 43.3939C18.9164 43.3939 18.5516 42.85 18.5516 40.9285V36.6621L17.4052 36.9324V35.1835L18.5516 34.9067V32.9917L20.9324 32.4282V34.34L22.6161 33.9394V35.6883L20.9324 36.0791V40.4204C20.9324 42.4006 21.46 42.7751 21.46 42.7751L18.9164 43.3939ZM22.8571 38.3003C22.8571 36.7793 23.0786 35.6688 23.5378 34.8187C24.0915 33.8059 25.0001 33.1447 26.3191 32.8484C28.9181 32.2556 29.856 33.7961 29.8267 35.8707L29.8169 36.9715L25.2281 38.0495V38.1276C25.2281 39.5704 25.5342 40.2576 26.4429 40.0687C27.2375 39.8961 27.4557 39.4076 27.5241 38.7855C27.5339 38.6911 27.5437 38.4338 27.5437 38.4338L29.6932 37.916C29.6932 37.916 29.7029 38.0886 29.6932 38.2905C29.6736 39.1112 29.4326 41.15 26.4429 41.8567C23.6127 42.5243 22.8571 40.795 22.8571 38.3003ZM43.5053 33.2978C43.4206 30.6891 44.0915 28.6243 46.9966 27.9631C48.853 27.543 49.5597 28.0218 49.9115 28.4907C50.2567 28.9304 50.3902 29.5329 50.3902 30.3732V30.5263L48.1137 31.0604V30.7445C48.1137 29.7511 47.8369 29.3701 47.1106 29.5525C46.2508 29.7707 45.9056 30.5849 45.9056 32.21V32.9754C45.9056 34.6266 46.1336 35.3854 47.1204 35.1737C47.9802 34.9913 48.0974 34.2358 48.1039 33.5779L48.1137 33.135L50.3902 32.6008V32.9558C50.3804 35.1151 49.2438 36.483 47.1106 36.9813C44.1762 37.6652 43.5932 35.9619 43.5053 33.2978ZM35.6369 36.9519C35.6369 34.9653 36.793 34.34 38.5452 33.6137C40.1117 32.9623 40.1508 32.6367 40.1606 32.0765C40.1703 31.5977 39.9489 31.1972 39.164 31.3958C38.4475 31.5782 38.2586 32.0928 38.2195 32.5162C38.2 32.7344 38.2097 32.9558 38.2097 32.9558L36.0016 33.4802C36.0016 33.4802 35.969 32.8028 36.1547 32.1709C36.5064 30.9855 37.5584 30.1908 39.3561 29.7707C41.701 29.2268 42.4827 30.2592 42.4924 31.855V35.6525C42.4924 37.4763 42.8377 37.7531 42.8377 37.7531L40.6654 38.2612C40.6654 38.2612 40.4667 37.8378 40.3788 37.4861C40.3788 37.4861 39.9033 38.6813 38.2684 39.0656C36.5455 39.4662 35.6369 38.4077 35.6369 36.9519ZM13.0834 46.6638L16.8776 49.2464C17.4052 49.6014 17.7472 50.1909 17.7472 50.8748V62.1336H13.4482C11.1684 62.1336 9.33485 60.2902 9.33485 58.0235V45.1917C9.32803 44.9952 9.36169 44.7995 9.43375 44.6166C9.50581 44.4338 9.61471 44.2677 9.7537 44.1287C9.89268 43.9897 10.0588 43.8808 10.2416 43.8087C10.4245 43.7367 10.6203 43.703 10.8167 43.7098C11.0118 43.7062 11.2057 43.7422 11.3865 43.8155C11.5674 43.8889 11.7315 43.998 11.8691 44.1365C12.0066 44.275 12.1147 44.4398 12.1868 44.6212C12.259 44.8025 12.2936 44.9966 12.2888 45.1917L12.2985 52.5521C12.2985 52.7735 12.4321 52.9559 12.7024 52.9559C12.9694 52.9461 13.103 52.7638 13.103 52.5065C13.0834 52.2296 13.0834 46.6638 13.0834 46.6638ZM5.41365 47.4389C5.27617 47.6545 5.20521 47.9059 5.20961 48.1616C5.21401 48.4173 5.29357 48.666 5.43838 48.8768C5.58319 49.0876 5.78684 49.2511 6.02395 49.347C6.26105 49.4428 6.52112 49.4667 6.77174 49.4158C6.91372 49.3943 7.51409 49.2539 8.15046 49.105L8.56298 49.0087V46.6963L5.41365 47.4389ZM5.41365 50.6045C5.27312 50.8208 5.19961 51.0737 5.20234 51.3317C5.20507 51.5896 5.28392 51.8409 5.42899 52.0542C5.57406 52.2675 5.7789 52.4331 6.01778 52.5304C6.25666 52.6276 6.51896 52.6522 6.77174 52.6009C6.94435 52.5651 7.79437 52.3729 8.56298 52.1808V49.8685L5.41365 50.6045ZM5.41365 53.7799C5.27299 53.9956 5.19942 54.2481 5.20223 54.5056C5.20503 54.7631 5.2841 55.014 5.42942 55.2266C5.57475 55.4392 5.77982 55.604 6.01873 55.7001C6.25765 55.7962 6.51968 55.8193 6.77174 55.7665L6.90085 55.7375C7.21025 55.6681 7.91551 55.5098 8.56298 55.3562V53.0341L5.41365 53.7799ZM6.04547 46.426V32.6953L8.54995 32.1025V45.8333L6.04547 46.426ZM47.8955 26.4845C46.5472 26.4845 45.4464 25.3837 45.4464 24.0354C45.4464 22.6871 46.5472 21.5863 47.8955 21.5863C49.2438 21.5863 50.3316 22.6871 50.3316 24.0354C50.3329 24.3562 50.2708 24.674 50.149 24.9707C50.0271 25.2674 49.8479 25.5371 49.6215 25.7643C49.3952 25.9916 49.1262 26.1719 48.83 26.2949C48.5338 26.418 48.2162 26.4846 47.8955 26.4845Z" fill="black"/>
<path d="M61.7828 37.4367C61.867 37.6362 61.9218 37.8468 61.9456 38.0621C61.9799 38.3432 62.0017 38.629 62.0107 38.9121H59.8059V38.5864C59.8064 38.3876 59.8249 38.1892 59.8612 37.9937C59.8932 37.8054 59.9536 37.6231 60.0404 37.453C60.1184 37.2972 60.2336 37.163 60.3758 37.0622C60.5366 36.9589 60.7254 36.9077 60.9164 36.9157C61.1051 36.91 61.2918 36.9549 61.4571 37.0459C61.6 37.1432 61.7129 37.2786 61.7828 37.4367Z" fill="black"/>
<path d="M85.5218 40.2897C85.6763 40.2517 85.8277 40.2016 85.9745 40.1399C86.1437 40.073 86.3018 39.9807 86.4434 39.8663V41.5241C86.4556 41.7967 86.3763 42.0656 86.2182 42.2881C86.06 42.5105 85.8321 42.6738 85.5706 42.7519C85.4226 42.7962 85.2691 42.8192 85.1147 42.8203C84.8248 42.8203 84.6164 42.7063 84.4926 42.4783C84.3689 42.2471 84.3037 41.9735 84.3037 41.6478C84.2867 41.3274 84.3861 41.0115 84.5838 40.7587C84.8382 40.506 85.167 40.3416 85.5218 40.2897Z" fill="black"/>
<path d="M113.231 37.4368C113.315 37.6362 113.37 37.8469 113.394 38.0621C113.427 38.3433 113.447 38.6291 113.455 38.9121H111.254V38.5864C111.253 38.3875 111.271 38.189 111.309 37.9937C111.341 37.8054 111.402 37.6232 111.488 37.453C111.565 37.2965 111.681 37.1621 111.824 37.0622C111.964 36.9645 112.143 36.9157 112.361 36.9157C112.579 36.9157 112.762 36.9613 112.902 37.0459C113.047 37.1421 113.161 37.2777 113.231 37.4368Z" fill="black"/>
<path fill-rule="evenodd" clip-rule="evenodd" d="M50.1746 16.1277C52.0701 16.4371 53.2751 18.0785 53.2751 20.0554V59.8862H53.2653C53.2653 62.0878 52.2883 63.8758 50.0899 63.8758H119.558C122.01 63.8758 124 61.8859 124 59.4303V20.57C124 18.1143 122.013 16.1277 119.558 16.1277H50.1746ZM59.8612 41.5957C59.8254 41.3579 59.8059 41.1169 59.8059 40.8694V40.1953H64.0723V39.7133C64.0723 39.0652 64.03 38.4789 63.9453 37.9546C63.8639 37.427 63.7043 36.9808 63.4763 36.6095C63.2483 36.2382 62.9324 35.9549 62.5318 35.7497C62.1345 35.5478 61.6199 35.4468 60.9946 35.4468C60.2651 35.4468 59.6821 35.5673 59.2457 35.8051C58.825 36.0278 58.4752 36.364 58.2361 36.7756C58.0016 37.1795 57.8453 37.6419 57.7671 38.163C57.6889 38.6874 57.6499 39.228 57.6499 39.7882C57.6493 40.3209 57.6732 40.8534 57.7215 41.384C57.7584 41.8822 57.8876 42.3693 58.1026 42.8203C58.316 43.2534 58.6539 43.6129 59.0731 43.8527C59.5095 44.1132 60.1185 44.2435 60.9002 44.2435C61.9326 44.2435 62.6849 43.9862 63.1637 43.4781C63.6457 42.9668 63.9062 42.221 63.9453 41.244H62.0107C61.9814 41.6592 61.8637 42.0634 61.6655 42.4294C61.4994 42.69 61.2324 42.8203 60.8676 42.8203C60.6722 42.8203 60.5028 42.7649 60.366 42.6574C60.2268 42.5363 60.1157 42.3862 60.0404 42.2177C59.9589 42.0354 59.8971 41.8302 59.8612 41.5957ZM65.1653 40.4791H69.5685V38.6357H65.1653V40.4791ZM77.5673 34.7601H75.1312V44.0713H72.8807V34.7601H70.4446V32.9168H77.5673V34.7601ZM79.3827 36.7887V35.6651H77.3211V44.0709H79.4771V39.0228C79.4695 38.7786 79.5174 38.5359 79.6172 38.3128C79.7032 38.13 79.8316 37.9704 79.9917 37.8471C80.1441 37.7267 80.3191 37.6382 80.5063 37.5866C80.6897 37.5351 80.8792 37.5088 81.0697 37.5084L81.4052 37.5149L81.7406 37.541V35.4762L81.5452 35.4534C81.4801 35.4469 81.415 35.4469 81.35 35.4469C80.9395 35.4347 80.5371 35.5634 80.2099 35.8116C79.881 36.0796 79.6106 36.4121 79.4152 36.7887H79.3827ZM82.7404 36.8147C82.5723 37.2004 82.4922 37.6187 82.506 38.0393V38.2445H84.4438V38.01C84.4295 37.7216 84.5184 37.4376 84.6945 37.2088C84.8606 37.0134 85.1114 36.9157 85.4436 36.9157C85.8084 36.9157 86.0657 37.0069 86.2155 37.1892C86.379 37.4059 86.4598 37.6739 86.4434 37.9448C86.4434 38.2282 86.3816 38.4399 86.2578 38.5864C86.0719 38.7652 85.8374 38.8853 85.5836 38.9316L84.3656 39.2606C83.9911 39.3615 83.6719 39.482 83.4048 39.6188C83.1536 39.7401 82.931 39.9135 82.7519 40.1275C82.5727 40.3414 82.4412 40.591 82.3659 40.8597C82.2812 41.1463 82.2422 41.4882 82.2422 41.8823C82.2428 42.1701 82.2789 42.4567 82.3496 42.7356C82.4196 43.0108 82.5364 43.2719 82.6949 43.5075C82.8524 43.7393 83.068 43.9257 83.3202 44.0481C83.6187 44.1867 83.9454 44.2537 84.2744 44.2435C84.7955 44.2435 85.2189 44.1784 85.5446 44.0481C85.9231 43.872 86.2291 43.5706 86.4109 43.1948H86.4434L86.4533 43.2392C86.4826 43.3715 86.5125 43.5063 86.5477 43.641C86.581 43.7914 86.6358 43.9362 86.7105 44.0709H88.7721C88.6744 43.8454 88.6033 43.6093 88.5604 43.3674C88.5245 43.1492 88.505 42.8398 88.505 42.4457V38.0262C88.505 37.6485 88.4659 37.3032 88.3878 36.9841C88.3096 36.6682 88.163 36.3946 87.9448 36.1666C87.6875 35.9138 87.3704 35.7301 87.0232 35.6325C86.6258 35.512 86.1047 35.4469 85.4599 35.4469C85.0726 35.4434 84.6864 35.4882 84.3102 35.5804C83.9717 35.6593 83.6534 35.808 83.3755 36.0168C83.1021 36.2271 82.8841 36.501 82.7404 36.8147ZM92.0973 36.6486V35.6651H90.0357V44.0741H92.195V38.4952C92.195 37.5703 92.5728 37.1046 93.3349 37.1046C93.6573 37.1046 93.8918 37.1925 94.0351 37.3651C94.1816 37.5345 94.2565 37.8406 94.2565 38.277V44.0741H96.4093V37.8341C96.4093 36.9938 96.2269 36.3848 95.8556 36.0103C95.4876 35.6357 94.96 35.4436 94.2696 35.4436C93.8359 35.4359 93.4071 35.5367 93.0222 35.7367C92.6402 35.9445 92.3293 36.2622 92.1298 36.6486H92.0973ZM99.7182 42.4848C99.5228 42.2601 99.4251 41.967 99.4251 41.599L99.4284 41.6022V41.3221H97.4905V41.6185C97.4855 41.9902 97.5326 42.3607 97.6306 42.7193C97.7175 43.0369 97.8872 43.3258 98.1224 43.5563C98.3923 43.805 98.7205 43.982 99.0766 44.0709C99.4772 44.1849 99.9788 44.2435 100.585 44.2435C101.04 44.2435 101.461 44.1979 101.842 44.1002C102.199 44.0189 102.533 43.8599 102.822 43.6345C103.1 43.4148 103.322 43.1339 103.473 42.8138C103.637 42.4475 103.718 42.0491 103.708 41.6478C103.708 41.0127 103.568 40.5112 103.284 40.1399C103.004 39.7719 102.526 39.4723 101.848 39.2443L100.552 38.8079C100.187 38.6906 99.9397 38.5473 99.8094 38.3845C99.6791 38.2184 99.614 38.0295 99.614 37.8211C99.614 37.5182 99.715 37.2935 99.9201 37.1437C100.125 36.9904 100.375 36.9102 100.63 36.9157C100.982 36.9157 101.233 37.0166 101.373 37.2186C101.513 37.4237 101.584 37.7429 101.584 38.1793H103.519V37.8374C103.519 37.0753 103.284 36.489 102.815 36.0722C102.35 35.6553 101.623 35.4469 100.646 35.4469C100.093 35.4469 99.6238 35.5152 99.2329 35.6488C98.8788 35.7639 98.5519 35.9501 98.2722 36.1959C98.0266 36.4151 97.8387 36.6914 97.725 37.0004C97.6078 37.3098 97.5492 37.6322 97.5492 37.9774C97.528 38.5028 97.689 39.0194 98.0051 39.4397C98.3612 39.8549 98.8275 40.1609 99.3502 40.3223L100.865 40.8694C101.066 40.9463 101.251 41.0588 101.412 41.2016C101.568 41.3449 101.643 41.5501 101.643 41.8204C101.643 42.1559 101.545 42.4067 101.35 42.5695C101.123 42.747 100.84 42.8361 100.552 42.8203C100.187 42.8203 99.9071 42.7095 99.7182 42.4848ZM104.16 35.6651V37.1339H105.255V44.0709H107.411V37.1339H108.658V35.6651H107.411V34.9323C107.411 34.6913 107.473 34.5187 107.596 34.4144C107.723 34.3102 107.935 34.2581 108.238 34.2581H108.44C108.513 34.257 108.586 34.2624 108.658 34.2744V32.7437C108.274 32.7111 107.89 32.6981 107.502 32.6981C107.16 32.6981 106.847 32.7339 106.567 32.7991C106.307 32.8438 106.064 32.9561 105.861 33.1247C105.658 33.2933 105.503 33.5124 105.411 33.7598C105.307 34.0204 105.255 34.3363 105.255 34.7108V35.6651H104.16ZM111.309 41.5957C111.27 41.358 111.254 41.117 111.254 40.8694L111.251 40.1953H115.517V39.7133C115.517 39.0652 115.478 38.4789 115.393 37.9546C115.309 37.427 115.152 36.9808 114.924 36.6095C114.696 36.2383 114.38 35.9549 113.98 35.7497C113.579 35.5478 113.065 35.4469 112.439 35.4469C111.71 35.4469 111.127 35.5674 110.694 35.8051C110.273 36.0278 109.923 36.364 109.684 36.7756C109.45 37.1795 109.293 37.6419 109.215 38.163C109.137 38.6874 109.098 39.228 109.098 39.7882C109.098 40.3209 109.121 40.8533 109.166 41.384C109.206 41.8822 109.336 42.3689 109.551 42.8203C109.764 43.2525 110.1 43.6118 110.518 43.8527C110.957 44.1132 111.566 44.2435 112.348 44.2435C113.377 44.2435 114.133 43.9862 114.612 43.4781C115.09 42.9668 115.351 42.221 115.393 41.244H113.455C113.427 41.6589 113.31 42.0631 113.113 42.4295C112.947 42.69 112.68 42.8203 112.316 42.8203C112.117 42.8203 111.951 42.7649 111.814 42.6574C111.673 42.538 111.561 42.3875 111.488 42.2178C111.407 42.0354 111.342 41.8302 111.309 41.5957ZM118.705 36.7887V35.6651H116.644V44.0709H118.8V39.0228C118.792 38.7786 118.84 38.5359 118.94 38.3128C119.026 38.13 119.154 37.9704 119.314 37.8471C119.467 37.7267 119.642 37.6382 119.829 37.5866C120.012 37.5351 120.202 37.5088 120.392 37.5084L120.728 37.5149L121.063 37.541V35.4762L120.868 35.4534C120.803 35.4469 120.738 35.4469 120.673 35.4469C120.262 35.4347 119.86 35.5634 119.533 35.8116C119.204 36.0796 118.933 36.4121 118.738 36.7887H118.705Z" fill="black"/>
</g>
</g>
</svg>
