<svg width="128" height="80" viewBox="0 0 128 80" fill="none" xmlns="http://www.w3.org/2000/svg">
<g id="payment methods / payment method-sofort / black">
<g id="logo">
<path d="M71.7769 31.0761L74.8734 15.8284C75.0883 14.8281 74.4866 13.8396 73.5255 13.5466C72.9839 13.4139 72.4119 13.4982 71.9316 13.7815C71.4512 14.0647 71.1006 14.5244 70.9545 15.0625L67.3678 27.2216C67.3134 27.4048 67.1888 27.5589 67.0211 27.6504C66.8535 27.7419 66.6564 27.7634 66.473 27.71C66.3822 27.6853 66.2972 27.6427 66.223 27.5846C66.1488 27.5266 66.087 27.4543 66.0412 27.3721C65.9953 27.2898 65.9663 27.1992 65.956 27.1056C65.9539 27.0871 65.9526 27.0685 65.952 27.0499L63.1284 15.1134C63.019 14.6055 62.7142 14.1562 62.2727 13.8631C61.8274 13.5763 61.2869 13.4766 60.7685 13.5857C59.8347 13.785 59.1392 15.0236 59.4205 16.1332L59.4322 16.2114L61.0494 29.3877L62.0636 30.887C62.1737 30.7378 62.2979 30.5984 62.4351 30.4711C62.8479 30.088 63.3608 29.8297 63.9144 29.7261C64.5478 29.6051 65.198 29.6011 65.8328 29.7144C65.9757 29.7352 66.0868 29.7629 66.1558 29.78L66.1857 29.7874C66.1941 29.7894 66.2015 29.7912 66.2079 29.7925L71.7769 31.0761Z" fill="black"/>
<path d="M61.6594 35.9932C61.8812 35.8469 62.0643 35.6525 62.1968 35.4266C61.4056 34.6265 61.2099 33.6365 61.4273 32.5073L59.8385 30.1619C59.781 30.1029 59.734 30.0341 59.7005 29.9584L58.9556 28.8588C58.0336 27.5264 57.1427 27.0654 56.0761 27.671L55.9276 27.7765C55.1032 28.343 54.9938 29.691 55.8494 30.9803L58.9947 35.6103C59.2667 36.0031 59.6824 36.2729 60.1519 36.3614C60.6214 36.4499 61.1068 36.3499 61.5031 36.0831L61.6594 35.9932Z" fill="black"/>
<path d="M63.4863 34.6322C63.553 34.6823 63.6103 34.7437 63.6554 34.8137C64.0757 35.0878 64.6651 35.3273 65.4616 35.5439L70.9942 36.7707C71.9123 36.9817 71.6193 38.3375 70.7011 38.1656L70.5253 38.1421C69.8337 38.0757 69.0484 38.1265 68.3256 38.3922C66.9815 38.8923 66.1415 40.041 66.0321 42.1743C66.0266 42.2683 66.0026 42.3602 65.9615 42.4449C65.9204 42.5296 65.863 42.6053 65.7926 42.6677C65.7222 42.7302 65.6401 42.7781 65.5511 42.8088C65.4622 42.8394 65.368 42.8522 65.2741 42.8464C65.18 42.8424 65.0876 42.8197 65.0023 42.7797C64.917 42.7397 64.8405 42.6832 64.7773 42.6134C64.714 42.5436 64.6653 42.462 64.6339 42.3732C64.6024 42.2844 64.589 42.1902 64.5942 42.0962C64.7036 39.7363 65.6335 38.1929 67.1261 37.3607L65.1139 36.8997C64.4199 36.7142 63.8349 36.4947 63.3483 36.2442C63.1135 36.6061 62.8072 36.9202 62.4447 37.1654L62.2885 37.2709C62.1962 37.3323 62.102 37.3884 62.0062 37.4393C62.0502 37.5208 62.0906 37.6042 62.1274 37.6895C62.2934 38.074 62.382 38.4873 62.3882 38.906C62.3943 39.3247 62.318 39.7406 62.1634 40.1297C62.0088 40.5189 61.7791 40.8738 61.4874 41.1742L61.3389 41.3188C60.7352 41.9265 59.9175 42.2738 59.0609 42.2862C58.2043 42.2986 57.377 41.9752 56.7558 41.3852L55.6784 40.3224C56.539 44.5049 60.244 47.3314 64.6228 47.4455C64.6624 47.4394 64.7025 47.4366 64.7427 47.4373C71.967 47.5037 75.0068 43.495 75.5538 37.0325C75.714 35.1883 75.3936 34.067 74.8349 33.4731C74.6864 33.3246 74.538 33.223 74.4051 33.1683L74.2488 33.1175L65.8484 31.1796C65.8212 31.1697 65.775 31.1613 65.71 31.1496C65.6726 31.1428 65.6288 31.1349 65.5788 31.1249C65.1349 31.0389 64.6787 31.0389 64.2348 31.1249C63.9283 31.1756 63.6435 31.3153 63.4157 31.5264C63.1879 31.7376 63.0271 32.0109 62.9532 32.3127C62.6697 33.2463 62.6935 33.9582 63.292 34.5295C63.3616 34.5533 63.4272 34.5879 63.4863 34.6322Z" fill="black"/>
<path d="M55.4447 32.9468L57.7952 36.4113C58.4413 37.3432 59.4825 37.8372 60.5368 37.8192C61.1114 38.5083 61.083 39.5313 60.4325 40.1818L60.2996 40.3303C59.9656 40.6661 59.5129 40.8572 59.0393 40.8623C58.5657 40.8674 58.109 40.6862 57.7678 40.3576L53.7668 36.4388C52.6611 35.3447 52.5165 34.0007 53.2081 33.2896L53.341 33.145C53.6232 32.8605 53.9994 32.6885 54.3992 32.6612C54.7707 32.6358 55.139 32.7369 55.4447 32.9468Z" fill="black"/>
<path d="M70.1535 61.7572C70.1535 62.945 69.2431 63.8553 68.071 63.8553C66.9105 63.8553 65.9924 62.9567 65.9924 61.7572C65.9882 61.482 66.0391 61.2088 66.1421 60.9535C66.2452 60.6983 66.3982 60.4663 66.5923 60.2712C66.7863 60.076 67.0175 59.9217 67.2721 59.8172C67.5267 59.7128 67.7997 59.6603 68.0749 59.6629C68.3498 59.6608 68.6223 59.7137 68.8765 59.8184C69.1306 59.9231 69.3613 60.0775 69.555 60.2726C69.7486 60.4677 69.9013 60.6995 70.0041 60.9545C70.1069 61.2094 70.1577 61.4823 70.1535 61.7572Z" fill="black"/>
<path d="M53.1651 63.8553C53.4407 63.858 53.714 63.8054 53.9688 63.7007C54.2237 63.596 54.4551 63.4413 54.6492 63.2457C54.8433 63.0502 54.9963 62.8177 55.099 62.562C55.2018 62.3064 55.2524 62.0327 55.2477 61.7572C55.2518 61.4823 55.201 61.2094 55.0983 60.9545C54.9955 60.6995 54.8428 60.4677 54.6491 60.2726C54.4555 60.0775 54.2248 59.9231 53.9706 59.8184C53.7165 59.7137 53.4439 59.6608 53.169 59.6629C51.9969 59.6629 51.0904 60.5733 51.0904 61.7572C51.0904 62.9567 52.0047 63.8553 53.1651 63.8553Z" fill="black"/>
<path fill-rule="evenodd" clip-rule="evenodd" d="M19.1575 72.9668H108.843C110.206 72.9607 111.512 72.4175 112.477 71.455C113.443 70.4924 113.99 69.1882 114 67.825V12.1908C114 9.33861 111.667 7.03339 108.788 7.03339H19.2122C16.3326 7.03339 14 9.33861 14 12.1908V67.8093C14.0062 69.1753 14.5515 70.4835 15.5174 71.4494C16.4833 72.4153 17.7915 72.9606 19.1575 72.9668ZM65.1572 48.8468C65.0735 48.872 64.9858 48.8816 64.8984 48.8752C59.1104 48.8752 54.1981 44.6904 54.0516 38.7179L52.7432 37.4273C51.1295 35.8331 50.8755 33.6061 52.1688 32.2854L52.3017 32.1409C52.8364 31.6038 53.549 31.2807 54.3053 31.2325L54.3279 31.2312C53.4273 29.476 53.7129 27.5461 55.1149 26.6043L55.3142 26.4715C56.852 25.5891 58.1774 25.9321 59.314 27.0525L58.0061 16.4341C57.5685 14.5899 58.7172 12.5582 60.4754 12.1909C60.9193 12.0968 61.3775 12.0915 61.8234 12.1754C62.2693 12.2592 62.6943 12.4305 63.0737 12.6793C63.4482 12.9225 63.7706 13.2377 64.0221 13.6066C64.2737 13.9755 64.4493 14.3908 64.5389 14.8282L66.7558 24.202L69.5675 14.6796C69.8174 13.775 70.4132 13.0051 71.2263 12.5365C72.0394 12.0678 73.0043 11.938 73.9123 12.1752C74.733 12.4107 75.4342 12.9481 75.8749 13.6794C76.3156 14.4108 76.4631 15.2818 76.2878 16.1175L73.1819 31.3999L74.5145 31.707C75.0464 31.8112 75.5287 32.0888 75.8859 32.4963C76.7533 33.4067 77.1675 34.9226 76.9799 37.138C76.389 44.1335 72.9601 48.7472 65.1572 48.8468ZM86.5245 65.8871C86.9246 65.8861 87.3083 65.7278 87.5926 65.4463C87.877 65.1649 88.0393 64.7829 88.0444 64.3828C88.0444 63.9797 87.8843 63.5931 87.5992 63.3081C87.3142 63.023 86.9276 62.8629 86.5245 62.8629C86.1214 62.8629 85.7348 63.023 85.4498 63.3081C85.1648 63.5931 85.0046 63.9797 85.0046 64.3828C85.0046 65.215 85.6845 65.8871 86.5245 65.8871ZM81.6327 59.7255V61.679C81.6327 63.0778 82.5509 63.6951 83.8168 63.6561V65.7659H83.4847C80.7107 65.7659 79.3666 63.9491 79.3666 61.8119V55.2205H81.6327V56.4708C81.6327 57.5531 82.5236 58.3697 83.7504 58.397V60.5186C82.844 60.5186 82.1407 60.2568 81.6327 59.7255ZM75.8462 58.6862V57.7758H73.6465V65.7542H75.9127V62.1127C75.9127 60.796 76.698 60.0576 78.0616 60.0576V57.6586C77.0301 57.6195 76.2995 57.9594 75.8462 58.6862ZM63.7262 61.7572C63.7262 64.0663 65.672 65.9652 68.0749 65.9652C70.4739 65.9652 72.4196 64.0624 72.4196 61.7572C72.4196 59.452 70.4739 57.5531 68.0749 57.5531C65.672 57.5531 63.7262 59.452 63.7262 61.7572ZM63.1284 56.3262V54.2164H62.7924C60.0339 54.2164 58.6742 56.0371 58.6742 58.1704V65.7503H60.9404V62.4292C60.9404 61.3235 61.8078 60.5303 63.062 60.5069V58.3697C62.1673 58.3697 61.4483 58.6315 60.9404 59.1589V58.3032C60.9404 56.9045 61.8586 56.2715 63.1284 56.3262ZM48.8204 61.7572C48.8204 64.0663 50.77 65.9652 53.169 65.9652C55.568 65.9652 57.5138 64.0624 57.5138 61.7572C57.5138 59.452 55.568 57.5531 53.169 57.5531C50.77 57.5531 48.8204 59.452 48.8204 61.7572ZM44.0107 65.9652C46.2768 65.9652 48.0077 64.4609 48.0077 62.2612C48.0077 60.2139 46.5425 59.3308 44.7413 58.8034C43.5965 58.4752 42.8776 58.2251 42.8776 57.4202C42.8776 56.7482 43.3699 56.2207 44.1552 56.2207C44.8194 56.2207 45.3156 56.6036 45.679 57.1819L47.5544 56.0097C46.9684 54.7282 45.6478 54.0718 44.2216 54.0718C41.9555 54.0718 40.5176 55.6776 40.5176 57.5492C40.5176 59.0417 41.4241 60.1904 43.6512 60.8351C44.8624 61.1789 45.636 61.4173 45.636 62.3667C45.636 63.2614 44.9835 63.8124 44.0341 63.8124C43.0221 63.8124 42.2485 63.1677 41.7836 62.5738L40.2207 64.1171C41.0646 65.2502 42.4243 65.9652 44.0107 65.9652Z" fill="black"/>
</g>
</g>
</svg>
