<svg width="128" height="80" viewBox="0 0 128 80" fill="none" xmlns="http://www.w3.org/2000/svg">
<g id="payment methods / payment method-equitel / white">
<g id="logo">
<path d="M94.3185 35.9147C98.982 35.9147 102.762 32.1342 102.762 27.4708C102.762 22.8073 98.982 19.0269 94.3185 19.0269C89.6551 19.0269 85.8746 22.8073 85.8746 27.4708C85.8746 32.1342 89.6551 35.9147 94.3185 35.9147Z" fill="white"/>
<path d="M115.556 35.9147C120.22 35.9147 124 32.1342 124 27.4708C124 22.8073 120.22 19.0269 115.556 19.0269C110.893 19.0269 107.112 22.8073 107.112 27.4708C107.112 32.1342 110.893 35.9147 115.556 35.9147Z" fill="white"/>
<path d="M72.9498 35.9147C77.6133 35.9147 81.3938 32.1342 81.3938 27.4708C81.3938 22.8073 77.6133 19.0269 72.9498 19.0269C68.2864 19.0269 64.5059 22.8073 64.5059 27.4708C64.5059 32.1342 68.2864 35.9147 72.9498 35.9147Z" fill="white"/>
<path d="M81.3431 28.2201C81.3431 28.2201 80.0221 40.0352 93.1154 41.2092L91.896 46.1604L86.0939 47.5855C86.0939 47.5855 84.7209 35.2402 73.5483 35.8786L74.7998 28.964L81.3444 28.2201H81.3431Z" fill="white"/>
<path d="M107.265 28.2201C107.265 28.2201 108.586 40.0352 95.4929 41.2092L96.7123 46.1604L102.514 47.5855C102.514 47.5855 103.887 35.2402 115.06 35.8786L113.809 28.964L107.264 28.2201H107.265Z" fill="white"/>
<path d="M10.5046 46.5905C12.8633 46.5985 15.178 46.6052 17.4927 46.6159C17.5314 46.6159 17.5715 46.6586 17.6075 46.68C17.4379 47.3411 17.2709 47.9956 17.1027 48.6487C17.0372 48.9025 16.9744 49.1576 16.8996 49.41C16.8208 49.6731 16.6766 49.7573 16.324 49.7586C14.1642 49.7586 12.0058 49.7586 9.84611 49.76C9.66179 49.76 9.47747 49.7773 9.28647 49.788C9.02736 50.91 8.64804 51.9705 8.433 53.1552C9.19298 53.1645 9.88885 53.1592 10.5847 53.1592C11.2886 53.1592 11.9925 53.1592 12.6977 53.1592H16.909C16.9504 53.5746 16.4415 55.6341 16.1383 56.3233H4C5.45184 50.8806 6.89167 45.4819 8.33282 40.0766H20.2668C20.3349 40.5 19.9502 42.092 19.5015 43.2621H18.9619C16.5363 43.2621 14.1108 43.2621 11.6853 43.2621C11.5597 43.2621 11.4342 43.2541 11.31 43.2661C11.1029 43.2861 10.9721 43.3916 10.928 43.6093C10.8839 43.8204 10.8091 44.0234 10.7584 44.2331C10.6168 44.8194 10.4832 45.4071 10.339 45.9921C10.2962 46.1671 10.2268 46.3367 10.156 46.5491C10.2895 46.5664 10.375 46.5785 10.5046 46.5905Z" fill="white"/>
<path d="M20.3109 55.4324C19.4454 54.6377 18.9966 53.6721 18.7869 52.5568C18.6814 51.9972 18.6186 51.4415 18.6533 50.8819C18.8096 48.3656 19.8501 46.306 21.8949 44.7981C22.504 44.3493 23.1985 44.018 23.9291 43.8377C24.6824 43.6534 25.4624 43.5212 26.2465 43.6521C27.4325 43.8497 28.4075 44.4121 29.1421 45.3751C29.1689 45.4098 29.2009 45.4392 29.277 45.5233C29.3598 45.3911 29.4574 45.2896 29.4907 45.172C29.5789 44.8595 29.655 44.5416 29.7071 44.2211C29.7432 43.9967 29.8861 43.8604 30.0691 43.8578C31.1122 43.8404 32.1567 43.8497 33.2519 43.8497C33.2519 44.0314 33.28 44.173 33.2466 44.2985C33.0956 44.8635 32.9247 45.4231 32.7644 45.9854C32.6843 46.2673 32.6121 46.5518 32.536 46.8362C32.2902 47.7592 32.0391 48.6808 31.8001 49.6064C31.6491 50.1887 31.5263 50.7791 31.374 51.3614C31.2217 51.9424 31.0441 52.5167 30.8865 53.0964C30.793 53.4383 30.7222 53.7869 30.6327 54.1302C30.5392 54.4881 30.4377 54.8434 30.3389 55.2C30.2601 55.4819 30.1706 55.761 30.0998 56.0455C29.8914 56.8829 29.6951 57.7244 29.4827 58.5618C29.3051 59.2644 29.1168 59.9643 28.9231 60.6641C28.8643 60.8752 28.7241 61.0087 28.4837 61.0074C27.4833 61.0061 26.4829 61.0074 25.4851 61.0074C25.2741 60.7643 25.3917 60.5172 25.4491 60.2875C25.6134 59.6264 25.791 58.9692 25.9727 58.3134C26.1343 57.7324 26.3173 57.1567 26.4722 56.5731C26.5817 56.1604 26.6592 55.7396 26.7513 55.3229C26.7193 55.3029 26.6859 55.2828 26.6538 55.2615C26.4228 55.4231 26.1904 55.582 25.9633 55.7463C24.9536 56.4756 23.8183 56.712 22.6095 56.521C21.7627 56.3874 20.976 56.0589 20.3082 55.4351L20.3109 55.4324ZM26.7019 46.7521C26.555 46.708 26.4081 46.6332 26.2598 46.6252C25.4451 46.5865 24.6971 46.7988 24.056 47.3104C22.6977 48.3936 22.1794 49.8294 22.3638 51.5297C22.4733 52.5434 23.2399 53.3822 24.1896 53.5318C25.2728 53.7028 26.2531 53.433 27.0706 52.6944C27.7571 52.076 28.2045 51.3147 28.4342 50.4024C28.6226 49.6558 28.6827 48.9345 28.3915 48.2173C28.0923 47.4774 27.5661 46.9698 26.7006 46.7508L26.7019 46.7521Z" fill="white"/>
<path d="M38.2285 45.2669C38.0148 46.0135 37.8185 46.7267 37.6342 47.444C37.4846 48.0263 37.3563 48.6153 37.2054 49.1977C37.1173 49.5396 36.9797 49.8708 36.9036 50.2154C36.7647 50.8512 36.5563 51.4829 36.6525 52.1494C36.7232 52.6423 36.989 52.9922 37.4592 53.1819C38.8215 53.7282 40.0183 52.9749 40.5806 51.8409C40.845 51.308 40.9866 50.7123 41.1603 50.1366C41.3486 49.5142 41.5129 48.8851 41.6798 48.2574C41.8307 47.6884 41.9656 47.1141 42.1152 46.5451C42.2728 45.9454 42.4305 45.3457 42.6054 44.7513C42.6962 44.4468 42.6575 44.0848 42.9954 43.8444C43.9624 43.8444 44.9628 43.8404 45.9632 43.8471C46.233 43.8484 46.2958 43.9179 46.2464 44.1943C46.1729 44.6044 46.0701 45.0104 45.9686 45.4165C45.8751 45.7891 45.7629 46.1564 45.6654 46.529C45.5799 46.8576 45.5131 47.1929 45.4209 47.5201C45.3341 47.8313 45.2113 48.1318 45.1298 48.4444C44.9187 49.2658 44.7318 50.0952 44.5167 50.9153C44.3645 51.4963 44.1721 52.0653 44.0159 52.645C43.8636 53.2113 43.734 53.7843 43.5925 54.3546C43.4549 54.9075 43.3187 55.4618 43.1691 56.0121C43.1383 56.127 43.0488 56.2245 42.9874 56.3287H39.5882C39.6349 56.0001 39.679 55.7022 39.7378 55.2855C39.5201 55.4044 39.3972 55.4525 39.2957 55.5313C38.7387 55.9573 38.1417 56.3313 37.4565 56.4742C35.7643 56.8255 33.9211 56.362 33.1517 54.4614C32.8272 53.6587 32.7965 52.7892 33.0155 51.9304C33.1037 51.5845 33.1718 51.2345 33.2599 50.8886C33.5003 49.959 33.7514 49.0334 33.9905 48.1038C34.1415 47.5188 34.267 46.9271 34.4206 46.3434C34.5729 45.7597 34.7465 45.1814 34.9054 44.599C34.9428 44.4641 34.9602 44.3239 34.9842 44.1863C35.019 43.99 35.1605 43.8591 35.3302 43.8564C36.3733 43.8417 37.4178 43.8484 38.481 43.8484C38.6185 44.38 38.2833 44.7847 38.2232 45.2669H38.2285Z" fill="white"/>
<path d="M72.1592 49.4982C72.0216 50.0605 71.8987 50.5854 71.7385 51.0983C71.7077 51.1985 71.5394 51.2826 71.4179 51.32C71.2883 51.3601 71.1388 51.336 70.9985 51.336C68.6358 51.336 66.2717 51.336 63.9089 51.336H63.3613C63.197 51.8382 63.3693 52.2282 63.5723 52.5849C63.8622 53.0924 64.2882 53.421 64.8826 53.5933C66.1047 53.9472 67.1973 53.6868 68.2484 53.059C68.3927 52.9735 68.5383 52.8907 68.7186 52.7879C68.9069 53.0069 69.1086 53.2166 69.2809 53.4477C69.5854 53.8537 69.8605 54.2825 70.1731 54.6818C70.3294 54.8822 70.292 55.0037 70.1156 55.1439C69.5547 55.5914 68.9296 55.9199 68.2631 56.1777C66.9408 56.6906 65.5571 56.72 64.2014 56.4983C62.5573 56.2298 61.2123 55.4097 60.4483 53.8404C60.1892 53.3088 60.0222 52.7518 59.9327 52.1574C59.8112 51.3574 59.8633 50.564 59.9795 49.7827C60.1157 48.8731 60.4603 48.0143 60.9398 47.2303C61.5956 46.1604 62.4464 45.2642 63.5483 44.6391C64.3136 44.205 65.1083 43.8658 66.0032 43.7442C66.5148 43.6748 67.021 43.5853 67.5339 43.6254C69.0552 43.7456 70.3935 44.2691 71.3431 45.522C71.8012 46.127 72.071 46.8242 72.1752 47.5962C72.2594 48.2226 72.2567 48.8357 72.1592 49.4955V49.4982ZM65.7361 49.179C66.5962 49.179 67.455 49.1803 68.3152 49.179C68.7025 49.179 68.8722 49.0534 68.9269 48.6928C69.0017 48.2026 68.8829 47.7512 68.6371 47.3184C68.2591 46.6506 67.606 46.493 66.9422 46.4676C66.3585 46.4462 65.7842 46.6239 65.2606 46.9124C64.4846 47.3411 63.977 48.0129 63.5844 48.7836C63.5349 48.8811 63.551 49.012 63.5309 49.1776C64.2722 49.1776 64.9574 49.1776 65.7361 49.1776V49.179Z" fill="white"/>
<path d="M57.7222 55.6368C57.7102 55.944 57.566 56.0802 57.3149 56.1777C56.3452 56.5517 55.3381 56.6385 54.323 56.517C53.5377 56.4235 52.8271 56.1337 52.3382 55.4445C51.8921 54.8154 51.816 54.1262 51.9549 53.3983C52.0324 52.9869 52.1419 52.5808 52.2474 52.1761C52.4171 51.5324 52.6014 50.8913 52.7697 50.2475C52.9219 49.6625 53.0582 49.0721 53.2104 48.4871C53.2999 48.1425 53.4134 47.8033 53.5056 47.46C53.5443 47.3157 53.555 47.1648 53.5871 46.9645H52.2621C52.2621 46.7882 52.2488 46.6533 52.2648 46.5237C52.3209 46.0736 52.9299 44.1022 53.1022 43.8257H54.4566C54.7357 42.7999 55.0082 41.8009 55.2753 40.8178C55.6934 40.6963 58.2805 40.6736 58.8148 40.7951C58.5543 41.7768 58.2952 42.7599 58.0187 43.803C58.2471 43.8137 58.3967 43.8257 58.5476 43.827C59.2048 43.8297 59.8619 43.823 60.5191 43.8311C60.8436 43.8351 60.9011 43.9419 60.8129 44.2358C60.6967 44.6191 60.6072 45.0118 60.5004 45.3978C60.3641 45.8866 60.2225 46.3741 60.0636 46.9284C59.1273 46.9939 58.1616 46.9204 57.1693 46.9711C57.0223 47.5481 56.8874 48.1158 56.7338 48.6768C56.5709 49.2685 56.3732 49.8508 56.2196 50.4452C56.042 51.1343 55.8817 51.8275 55.7415 52.5261C55.664 52.9107 55.8697 53.3448 56.4133 53.3796C57.0197 53.4183 57.5833 53.254 58.1576 53.1258C58.2177 53.1124 58.2765 53.0977 58.3607 53.0777C58.378 53.1472 58.4154 53.2073 58.4034 53.2567C58.2912 53.7028 58.1763 54.1502 58.0508 54.5923C57.9546 54.9316 57.8398 55.2668 57.7236 55.6381L57.7222 55.6368Z" fill="white"/>
<path d="M74.5967 45.3403C74.7677 44.6885 74.936 44.0755 75.0989 43.4611C75.2499 42.8921 75.3941 42.3218 75.5424 41.7515C75.6906 41.1811 75.8375 40.6122 75.9898 40.0432C76.0379 39.8642 76.1007 39.6892 76.1554 39.5116C76.5241 39.3553 79.17 39.3259 79.6508 39.4835C79.6428 39.5957 79.6508 39.7213 79.6214 39.8361C79.4478 40.5066 79.2688 41.1771 79.0832 41.8449C78.9269 42.4073 78.7519 42.9656 78.5956 43.5292C78.5008 43.8711 78.4274 44.2184 78.3432 44.563C78.2657 44.8769 78.1896 45.1907 78.1081 45.5019C77.9358 46.1577 77.7649 46.8135 77.5832 47.4667C77.427 48.0303 77.2547 48.5886 77.0984 49.1509C77.0076 49.4781 76.9341 49.8094 76.8473 50.138C76.7498 50.5093 76.6469 50.8792 76.5441 51.2479C76.4693 51.515 76.3852 51.7808 76.317 52.0506C76.1715 52.6329 76.0459 53.2206 75.891 53.8003C75.736 54.38 75.5557 54.9543 75.3874 55.5313C75.3701 55.5914 75.3621 55.6528 75.3514 55.7156C75.2432 56.354 75.2418 56.3567 74.6194 56.3567C73.8221 56.3567 73.0247 56.3567 72.2273 56.3567C72.0764 56.3567 71.9241 56.3433 71.7211 56.334C71.7638 56.0495 71.7812 55.8024 71.8413 55.566C72.0083 54.9062 72.1872 54.2491 72.3702 53.5933C72.5332 53.0109 72.7175 52.4353 72.8738 51.8516C73.03 51.2679 73.1542 50.6749 73.3078 50.0899C73.4574 49.5209 73.6324 48.9586 73.7887 48.3909C73.9356 47.8527 74.0705 47.3104 74.2147 46.7708C74.3376 46.3073 74.4658 45.8439 74.5967 45.3417V45.3403Z" fill="white"/>
<path d="M49.9127 43.8417C50.475 43.8417 50.9919 43.8578 51.5075 43.8364C51.8654 43.8217 51.8988 44.0474 51.832 44.2905C51.6477 44.9744 51.4714 45.6609 51.2804 46.3447C51.0574 47.1461 50.8129 47.9408 50.5939 48.7435C50.4363 49.3245 50.3174 49.9149 50.1625 50.4972C50.0089 51.0769 49.8299 51.6512 49.667 52.2282C49.5828 52.5261 49.5134 52.8266 49.4332 53.1245C49.2569 53.7776 49.0753 54.4307 48.899 55.0838C48.8228 55.367 48.7494 55.6515 48.6853 55.9386C48.5931 56.3474 48.5971 56.3527 48.1684 56.3554C47.5112 56.3594 46.8554 56.3554 46.1983 56.3554C45.8564 56.3554 45.5144 56.3554 45.1218 56.3554C45.1351 56.1697 45.1244 56.0161 45.1618 55.8745C45.3996 54.961 45.6427 54.0487 45.8924 53.1378C46.1182 52.3177 46.3639 51.5016 46.583 50.6802C46.802 49.8575 46.989 49.0254 47.2094 48.2026C47.4244 47.3959 47.6675 46.5958 47.8892 45.7904C48.0335 45.2682 48.1804 44.7446 48.2912 44.2144C48.3487 43.9432 48.4996 43.8484 48.74 43.8444C49.1153 43.8364 49.4907 43.8417 49.9127 43.8417Z" fill="white"/>
<path d="M94.3041 57.9995C98.9676 57.9995 102.748 54.2191 102.748 49.5556C102.748 44.8922 98.9676 41.1117 94.3041 41.1117C89.6407 41.1117 85.8602 44.8922 85.8602 49.5556C85.8602 54.2191 89.6407 57.9995 94.3041 57.9995Z" fill="white"/>
<path d="M72.931 35.8805C77.5945 35.8805 81.3749 32.1001 81.3749 27.4366C81.3749 22.7732 77.5945 18.9927 72.931 18.9927C68.2675 18.9927 64.4871 22.7732 64.4871 27.4366C64.4871 32.1001 68.2675 35.8805 72.931 35.8805Z" fill="white"/>
<path d="M94.2997 35.8805C98.9631 35.8805 102.744 32.1001 102.744 27.4366C102.744 22.7732 98.9631 18.9927 94.2997 18.9927C89.6362 18.9927 85.8557 22.7732 85.8557 27.4366C85.8557 32.1001 89.6362 35.8805 94.2997 35.8805Z" fill="white"/>
<path d="M115.537 35.8805C120.201 35.8805 123.981 32.1001 123.981 27.4366C123.981 22.7732 120.201 18.9927 115.537 18.9927C110.874 18.9927 107.093 22.7732 107.093 27.4366C107.093 32.1001 110.874 35.8805 115.537 35.8805Z" fill="white"/>
<path d="M50.0736 39C49.9891 39 49.9149 39.0564 49.8925 39.1378C49.6427 40.0487 49.3996 40.961 49.1619 41.8746C49.1365 41.9706 49.1333 42.0721 49.1297 42.1854C49.1279 42.2392 49.1261 42.2956 49.1218 42.3554H50.1984C50.4174 42.3554 50.6364 42.3558 50.8553 42.3563C51.2929 42.3572 51.7304 42.3581 52.1684 42.3554C52.592 42.3528 52.5932 42.3475 52.682 41.9533C52.6831 41.9485 52.6842 41.9436 52.6853 41.9387C52.7494 41.6515 52.8229 41.367 52.899 41.0839C52.9872 40.7573 53.0767 40.4307 53.1662 40.1042C53.2556 39.7776 53.3451 39.451 53.4333 39.1245C53.4502 39.0616 53.4026 39 53.3375 39H50.0736Z" fill="white"/>
</g>
</g>
</svg>
