<svg width="128" height="80" viewBox="0 0 128 80" fill="none" xmlns="http://www.w3.org/2000/svg">
<g id="payment methods / payment method-interac-etransfer / brand">
<g id="logo">
<path fill-rule="evenodd" clip-rule="evenodd" d="M119.551 16.1276H50.1746C52.0701 16.437 53.2751 18.0784 53.2751 20.0553V59.8861H53.2653C53.2653 62.0877 52.2883 63.8757 50.0899 63.8757H119.558C122.01 63.8757 124 61.8858 124 59.4301V20.5699C124 18.1142 122.013 16.1276 119.558 16.1276" fill="#626568"/>
<path fill-rule="evenodd" clip-rule="evenodd" d="M51.8035 59.9153C51.8035 62.1136 50.0155 63.9016 47.8171 63.9016H7.98634C6.92936 63.9008 5.91592 63.4805 5.16852 62.7331C4.42113 61.9857 4.00086 60.9723 4 59.9153V20.0845C4 17.8894 5.77822 16.0981 7.98634 16.0981H47.8269C50.0253 16.0981 51.8132 17.8861 51.8132 20.0845V59.9153H51.8035Z" fill="#FDB913"/>
<path fill-rule="evenodd" clip-rule="evenodd" d="M11.0838 42.9442C10.4162 42.8791 9.95697 43.0973 9.95697 43.0973V36.9322L12.2139 36.3948V37.3621C12.2139 37.3621 12.8262 36.0137 14.4416 35.6327C16.2296 35.2093 16.8028 36.2515 16.8028 37.7431V43.8822L14.4318 44.4359V38.6355C14.4318 37.7301 14.0084 37.5477 13.4939 37.6617C12.8165 37.8148 12.3475 38.5703 12.3475 39.5246V43.5142C12.3279 43.5337 11.8785 43.0257 11.0838 42.9475M30.6866 40.6124V32.0567L32.9207 31.5193V32.6495C32.9207 32.6495 33.507 31.1774 34.8423 30.8322C35.2559 30.7279 35.4643 30.7931 35.4643 30.7931V32.9751C35.4643 32.9751 34.9595 32.9556 34.2919 33.2226C33.4679 33.5483 33.0478 34.2551 33.0478 35.3461V40.0685L30.6866 40.6124ZM18.9165 43.3937C18.9165 43.3937 18.5517 42.8498 18.5517 40.9283V36.6618L17.4053 36.9322V35.1833L18.5517 34.9064V32.9914L20.9324 32.428V34.3397L22.6162 33.9391V35.6881L20.9324 36.0789V40.4202C20.9324 42.4003 21.46 42.7749 21.46 42.7749L18.9165 43.3937ZM26.4202 34.4342C25.6548 34.6068 25.2542 35.3526 25.2477 36.5967L27.56 36.043V35.6685C27.5503 34.7436 27.2604 34.242 26.4202 34.4342ZM22.8572 38.3C22.8572 36.7791 23.0787 35.6685 23.5379 34.8185C24.0915 33.8056 25.0002 33.1445 26.3192 32.8481C28.9181 32.2554 29.8561 33.7958 29.8268 35.8704L29.817 36.9712L25.2282 38.0492V38.1274C25.2282 39.5702 25.5343 40.2574 26.4429 40.0685C27.2376 39.8959 27.4558 39.4073 27.5242 38.7853C27.534 38.6908 27.5438 38.4335 27.5438 38.4335L29.6932 37.9157C29.6932 37.9157 29.703 38.0883 29.6932 38.2902C29.6737 39.111 29.4327 41.1497 26.4429 41.8565C23.6128 42.5241 22.8572 40.7947 22.8572 38.3ZM43.5054 33.2976C43.4207 30.6889 44.0916 28.624 46.9967 27.9629C48.8531 27.5428 49.5598 28.0215 49.9115 28.4905C50.2568 28.9302 50.3903 29.5327 50.3903 30.3729V30.526L48.1138 31.0601V30.7442C48.1138 29.7509 47.8369 29.3698 47.1107 29.5522C46.2509 29.7704 45.9057 30.5846 45.9057 32.2098V32.9751C45.9057 34.6263 46.1336 35.3852 47.1204 35.1735C47.9802 34.9911 48.0975 34.2355 48.104 33.5776L48.1138 33.1347L50.3903 32.6006V32.9556C50.3805 35.1149 49.2439 36.4827 47.1107 36.981C44.1763 37.6649 43.5933 35.9616 43.5054 33.2976ZM40.1509 34.2355C40.1509 34.2355 39.7014 34.571 38.9947 34.9129C38.2782 35.2679 37.9525 35.6978 37.9525 36.3687C37.9525 36.9517 38.3043 37.3327 38.9621 37.1699C39.6623 36.9973 40.1509 36.3394 40.1509 35.4308C40.1411 34.9129 40.1509 34.3984 40.1509 34.2355ZM35.6369 36.9517C35.6369 34.965 36.7931 34.3397 38.5453 33.6135C40.1118 32.9621 40.1509 32.6364 40.1606 32.0763C40.1704 31.5975 39.9489 31.1969 39.1641 31.3956C38.4476 31.578 38.2587 32.0925 38.2196 32.5159C38.2 32.7341 38.2098 32.9556 38.2098 32.9556L36.0017 33.4799C36.0017 33.4799 35.9691 32.8025 36.1548 32.1707C36.5065 30.9852 37.5584 30.1906 39.3562 29.7704C41.7011 29.2265 42.4827 30.259 42.4925 31.8548V35.6522C42.4925 37.476 42.8377 37.7529 42.8377 37.7529L40.6654 38.2609C40.6654 38.2609 40.4668 37.8376 40.3788 37.4858C40.3788 37.4858 39.9034 38.6811 38.2684 39.0654C36.5456 39.466 35.6369 38.4075 35.6369 36.9517ZM13.0835 46.6635L16.8777 49.2462C17.4053 49.6012 17.7473 50.1906 17.7473 50.8746V62.1334H13.4483C11.1685 62.1334 9.33492 60.29 9.33492 58.0233V45.1914C9.3281 44.995 9.36177 44.7993 9.43382 44.6164C9.50588 44.4335 9.61479 44.2674 9.75377 44.1284C9.89276 43.9894 10.0588 43.8805 10.2417 43.8085C10.4246 43.7364 10.6203 43.7028 10.8168 43.7096C11.0119 43.706 11.2057 43.742 11.3866 43.8153C11.5675 43.8886 11.7316 43.9978 11.8691 44.1363C12.0067 44.2747 12.1148 44.4396 12.1869 44.6209C12.259 44.8023 12.2937 44.9963 12.2888 45.1914L12.2986 52.5518C12.2986 52.7733 12.4321 52.9557 12.7025 52.9557C12.9695 52.9459 13.103 52.7635 13.103 52.5062C13.0835 52.2294 13.0835 46.6635 13.0835 46.6635ZM5.41372 47.4386C5.27624 47.6543 5.20528 47.9056 5.20968 48.1613C5.21408 48.417 5.29364 48.6658 5.43845 48.8766C5.58327 49.0874 5.78692 49.2509 6.02402 49.3467C6.26113 49.4426 6.5212 49.4665 6.77181 49.4155C6.94442 49.3895 7.79445 49.1875 8.56306 49.0084V46.6961L5.41372 47.4386ZM5.41372 50.6043C5.27319 50.8205 5.19968 51.0735 5.20241 51.3314C5.20514 51.5893 5.28399 51.8407 5.42906 52.054C5.57414 52.2672 5.77897 52.4329 6.01785 52.5301C6.25674 52.6274 6.51903 52.6519 6.77181 52.6007C6.94442 52.5649 7.79445 52.3727 8.56306 52.1806V49.8682L5.41372 50.6043ZM5.41372 53.7796C5.27306 53.9953 5.19949 54.2479 5.2023 54.5054C5.20511 54.7629 5.28417 55.0138 5.4295 55.2264C5.57482 55.439 5.7799 55.6037 6.01881 55.6998C6.25772 55.7959 6.51975 55.8191 6.77181 55.7663C6.94442 55.7272 7.79445 55.5383 8.56306 55.3559V53.0338L5.41372 53.7796ZM6.04554 46.4258V32.695L8.55003 32.1023V45.833L6.04554 46.4258ZM47.8956 21.8922C47.3277 21.8939 46.7837 22.1203 46.3821 22.5218C45.9806 22.9233 45.7543 23.4674 45.7526 24.0352C45.7526 24.459 45.8783 24.8734 46.1137 25.2258C46.3492 25.5782 46.6839 25.8528 47.0755 26.015C47.4671 26.1772 47.8979 26.2197 48.3136 26.137C48.7293 26.0543 49.1112 25.8502 49.4109 25.5505C49.7106 25.2508 49.9147 24.869 49.9974 24.4533C50.0801 24.0376 50.0376 23.6067 49.8754 23.2151C49.7132 22.8235 49.4386 22.4888 49.0861 22.2534C48.7337 22.0179 48.3194 21.8922 47.8956 21.8922ZM47.8956 26.4843C46.5472 26.4843 45.4464 25.3835 45.4464 24.0352C45.4464 22.6869 46.5472 21.5861 47.8956 21.5861C49.2439 21.5861 50.3317 22.6869 50.3317 24.0352C50.3329 24.3559 50.2709 24.6737 50.149 24.9704C50.0272 25.2671 49.8479 25.5368 49.6216 25.7641C49.3953 25.9913 49.1263 26.1716 48.8301 26.2947C48.5339 26.4177 48.2163 26.4843 47.8956 26.4843Z" fill="black"/>
<path fill-rule="evenodd" clip-rule="evenodd" d="M47.8662 23.9114C48.1724 23.9114 48.345 23.7291 48.345 23.4229C48.345 23.107 48.2115 22.9344 47.8956 22.9344H47.4917V23.9017H47.8662V23.9114ZM47.0064 22.5696H48.0584C48.4785 22.5696 48.814 22.7813 48.814 23.335C48.814 23.7258 48.6414 24.0254 48.3157 24.071C48.6088 24.1036 48.7651 24.2632 48.7847 24.6833C48.7944 24.8754 48.7944 25.1067 48.8042 25.2858C48.814 25.4291 48.8791 25.5073 48.9475 25.5464H48.4101C48.3645 25.4877 48.345 25.3998 48.3352 25.276C48.3157 25.0969 48.3255 24.9341 48.3157 24.7126C48.3059 24.3869 48.2115 24.2436 47.876 24.2436H47.4852V25.5464H47.0064V22.5696Z" fill="black"/>
<path fill-rule="evenodd" clip-rule="evenodd" d="M61.9457 38.0618C61.9219 37.8466 61.867 37.636 61.7828 37.4365C61.7129 37.2784 61.6001 37.143 61.4572 37.0457C61.2918 36.9547 61.1051 36.9097 60.9165 36.9154C60.7255 36.9074 60.5367 36.9586 60.3759 37.062C60.2337 37.1627 60.1185 37.297 60.0404 37.4528C59.9537 37.6229 59.8933 37.8052 59.8613 37.9934C59.825 38.1889 59.8064 38.3873 59.806 38.5862V38.9118H62.0108C62.0017 38.6288 61.98 38.343 61.9457 38.0618ZM59.806 40.8692C59.806 41.1167 59.8255 41.3577 59.8613 41.5955C59.8971 41.8299 59.959 42.0351 60.0404 42.2175C60.1158 42.386 60.2269 42.536 60.3661 42.6572C60.5029 42.7646 60.6723 42.82 60.8677 42.82C61.2324 42.82 61.4995 42.6897 61.6656 42.4292C61.8638 42.0631 61.9815 41.659 62.0108 41.2437H63.9454C63.9063 42.2208 63.6457 42.9666 63.1637 43.4779C62.685 43.986 61.9326 44.2432 60.9002 44.2432C60.1186 44.2432 59.5096 44.113 59.0732 43.8524C58.654 43.6127 58.316 43.2532 58.1026 42.82C57.8877 42.369 57.7585 41.882 57.7216 41.3838C57.6733 40.8532 57.6494 40.3207 57.6499 39.7879C57.6499 39.2278 57.689 38.6871 57.7672 38.1628C57.8453 37.6417 58.0017 37.1792 58.2362 36.7754C58.4753 36.3638 58.8251 36.0275 59.2458 35.8048C59.6822 35.5671 60.2652 35.4466 60.9947 35.4466C61.62 35.4466 62.1346 35.5476 62.5319 35.7495C62.9325 35.9547 63.2484 36.238 63.4764 36.6093C63.7043 36.9806 63.8639 37.4267 63.9454 37.9543C64.03 38.4787 64.0724 39.0649 64.0724 39.713V40.195H59.806V40.8692Z" fill="white"/>
<path d="M4 63.9016H123.997V16.0981H4V63.9016Z" fill="white"/>
<path fill-rule="evenodd" clip-rule="evenodd" d="M65.1654 40.4788H69.5686V38.6355H65.1654V40.4788ZM77.5673 34.7599H75.1312V44.0711H72.8808V34.7599H70.4447V32.9165H77.5673V34.7599Z" fill="white"/>
<path d="M4 63.9016H123.997V16.0981H4V63.9016Z" fill="white"/>
<path fill-rule="evenodd" clip-rule="evenodd" d="M79.3828 35.6648V36.7884H79.4153C79.6107 36.4119 79.8811 36.0793 80.21 35.8114C80.5371 35.5632 80.9394 35.4344 81.3499 35.4466C81.415 35.4466 81.4801 35.4466 81.5453 35.4531L81.7407 35.4759V37.5407L81.4052 37.5147L81.0698 37.5082C80.8793 37.5086 80.6897 37.5349 80.5063 37.5863C80.3191 37.6379 80.1442 37.7265 79.9918 37.8469C79.8317 37.9701 79.7033 38.1298 79.6172 38.3126C79.5175 38.5356 79.4696 38.7784 79.4772 39.0226V44.0706H77.3212V35.6648H79.3828ZM85.9745 40.1397C85.8278 40.2014 85.6764 40.2514 85.5218 40.2895C85.167 40.3413 84.8382 40.5057 84.5839 40.7585C84.3862 41.0113 84.2867 41.3271 84.3038 41.6476C84.3038 41.9733 84.3689 42.2468 84.4927 42.4781C84.6164 42.706 84.8249 42.82 85.1147 42.82C85.2692 42.819 85.4227 42.7959 85.5707 42.7516C85.8322 42.6735 86.0601 42.5103 86.2182 42.2878C86.3764 42.0654 86.4557 41.7965 86.4435 41.5238V39.8661C86.3019 39.9805 86.1438 40.0727 85.9745 40.1397ZM82.506 38.039C82.4923 37.6185 82.5724 37.2002 82.7405 36.8145C82.8841 36.5008 83.1021 36.2269 83.3756 36.0166C83.6535 35.8077 83.9718 35.6591 84.3103 35.5801C84.6865 35.488 85.0727 35.4431 85.46 35.4466C86.1048 35.4466 86.6259 35.5117 87.0232 35.6323C87.3705 35.7299 87.6875 35.9136 87.9449 36.1664C88.1631 36.3943 88.3097 36.6679 88.3878 36.9838C88.466 37.303 88.5051 37.6482 88.5051 38.026V42.4455C88.5051 42.8396 88.5246 43.149 88.5604 43.3672C88.6034 43.6091 88.6745 43.8452 88.7721 44.0706H86.7106C86.6359 43.9359 86.5811 43.7911 86.5477 43.6407C86.5087 43.4909 86.4761 43.3411 86.4435 43.1946H86.411C86.2292 43.5703 85.9231 43.8718 85.5446 44.0478C85.219 44.1781 84.7956 44.2433 84.2745 44.2433C83.9455 44.2534 83.6187 44.1865 83.3202 44.0478C83.0681 43.9254 82.8525 43.739 82.6949 43.5072C82.5364 43.2716 82.4197 43.0105 82.3497 42.7354C82.2789 42.4564 82.2429 42.1698 82.2422 41.8821C82.2422 41.488 82.2813 41.146 82.366 40.8594C82.4413 40.5908 82.5728 40.3412 82.7519 40.1272C82.9311 39.9133 83.1536 39.7399 83.4049 39.6186C83.672 39.4818 83.9911 39.3613 84.3657 39.2603L85.5837 38.9314C85.8375 38.8851 86.072 38.765 86.2579 38.5862C86.3816 38.4396 86.4435 38.2279 86.4435 37.9446C86.4599 37.6736 86.3791 37.4057 86.2155 37.189C86.0657 37.0066 85.8084 36.9154 85.4437 36.9154C85.1115 36.9154 84.8607 37.0131 84.6946 37.2085C84.5185 37.4373 84.4296 37.7213 84.4438 38.0097V38.2442H82.506V38.039ZM92.0973 35.6648V36.6484H92.1299C92.3294 36.2619 92.6403 35.9443 93.0223 35.7365C93.4072 35.5365 93.8359 35.4357 94.2696 35.4434C94.9601 35.4434 95.4877 35.6355 95.8557 36.01C96.227 36.3846 96.4094 36.9936 96.4094 37.8339V44.0739H94.2566V38.2768C94.2566 37.8404 94.1817 37.5342 94.0351 37.3649C93.8918 37.1923 93.6574 37.1043 93.3349 37.1043C92.5728 37.1043 92.195 37.5701 92.195 38.495V44.0739H90.0358V35.6648H92.1006H92.0973ZM99.4252 41.5987C99.4252 41.9667 99.5229 42.2599 99.7183 42.4846C99.9072 42.7093 100.187 42.82 100.552 42.82C100.84 42.8359 101.123 42.7467 101.35 42.5693C101.545 42.4064 101.643 42.1556 101.643 41.8202C101.643 41.5499 101.568 41.3447 101.412 41.2014C101.251 41.0586 101.066 40.9461 100.865 40.8692L99.3503 40.3221C98.8276 40.1607 98.3613 39.8547 98.0052 39.4395C97.6891 39.0192 97.528 38.5026 97.5492 37.9772C97.5492 37.6319 97.6079 37.3095 97.7251 37.0001C97.8387 36.6911 98.0266 36.4149 98.2723 36.1957C98.5519 35.9498 98.8789 35.7636 99.233 35.6485C99.6238 35.515 100.093 35.4466 100.646 35.4466C101.624 35.4466 102.35 35.655 102.816 36.0719C103.284 36.4888 103.519 37.075 103.519 37.8371V38.1791H101.584C101.584 37.7427 101.513 37.4235 101.373 37.2183C101.233 37.0164 100.982 36.9154 100.63 36.9154C100.375 36.9099 100.125 36.9902 99.9202 37.1434C99.715 37.2932 99.6141 37.5179 99.6141 37.8208C99.6141 38.0293 99.6792 38.2182 99.8095 38.3843C99.9397 38.5471 100.187 38.6904 100.552 38.8076L101.848 39.2441C102.526 39.472 103.004 39.7717 103.284 40.1397C103.568 40.511 103.708 41.0125 103.708 41.6476C103.718 42.0489 103.638 42.4472 103.473 42.8135C103.323 43.1337 103.1 43.4146 102.822 43.6342C102.533 43.8596 102.199 44.0186 101.842 44.1C101.461 44.1977 101.041 44.2433 100.585 44.2433C99.9788 44.2433 99.4773 44.1846 99.0767 44.0706C98.7205 43.9817 98.3924 43.8048 98.1224 43.5561C97.8873 43.3255 97.7176 43.0367 97.6307 42.7191C97.5327 42.3605 97.4856 41.9899 97.4906 41.6183V41.3219H99.4284V41.602L99.4252 41.5987ZM104.161 37.1336V35.6648H105.255V34.7106C105.255 34.336 105.307 34.0201 105.411 33.7596C105.503 33.5121 105.658 33.2931 105.861 33.1245C106.064 32.9558 106.307 32.8435 106.567 32.7988C106.847 32.7337 107.16 32.6979 107.502 32.6979C107.89 32.6979 108.274 32.7109 108.658 32.7435V34.2742C108.586 34.2622 108.513 34.2567 108.44 34.2579H108.238C107.935 34.2579 107.724 34.31 107.597 34.4142C107.473 34.5184 107.411 34.691 107.411 34.932V35.6648H108.658V37.1336H107.411V44.0706H105.255V37.1336H104.161ZM113.394 38.0618C113.37 37.8466 113.315 37.636 113.231 37.4365C113.161 37.2775 113.047 37.1418 112.902 37.0457C112.762 36.961 112.579 36.9154 112.361 36.9154C112.143 36.9154 111.964 36.9643 111.824 37.062C111.681 37.1618 111.565 37.2963 111.488 37.4528C111.402 37.6229 111.341 37.8052 111.309 37.9934C111.271 38.1887 111.253 38.3873 111.254 38.5862V38.9119H113.456C113.447 38.6288 113.427 38.343 113.394 38.0618ZM111.254 40.8692C111.254 41.1167 111.27 41.3577 111.309 41.5955C111.342 41.83 111.407 42.0351 111.488 42.2175C111.562 42.3873 111.673 42.5378 111.814 42.6572C111.951 42.7647 112.117 42.82 112.316 42.82C112.68 42.82 112.947 42.6898 113.114 42.4292C113.31 42.0628 113.427 41.6587 113.456 41.2437H115.393C115.351 42.2208 115.09 42.9666 114.612 43.4779C114.133 43.986 113.377 44.2433 112.348 44.2433C111.567 44.2433 110.958 44.113 110.518 43.8524C110.1 43.6116 109.764 43.2523 109.551 42.82C109.336 42.3687 109.206 41.8819 109.166 41.3838C109.121 40.8531 109.098 40.3206 109.098 39.7879C109.098 39.2278 109.137 38.6871 109.215 38.1628C109.293 37.6417 109.45 37.1792 109.684 36.7754C109.923 36.3638 110.273 36.0275 110.694 35.8049C111.127 35.5671 111.71 35.4466 112.439 35.4466C113.065 35.4466 113.579 35.5476 113.98 35.7495C114.38 35.9547 114.696 36.238 114.924 36.6093C115.152 36.9806 115.309 37.4268 115.393 37.9544C115.478 38.4787 115.517 39.0649 115.517 39.713V40.195H111.251L111.254 40.8692ZM118.705 35.6648V36.7884H118.738C118.933 36.4119 119.204 36.0793 119.533 35.8114C119.86 35.5632 120.262 35.4344 120.673 35.4466C120.738 35.4466 120.803 35.4466 120.868 35.4531L121.063 35.4759V37.5407L120.728 37.5147L120.393 37.5082C120.202 37.5086 120.012 37.5349 119.829 37.5863C119.642 37.6379 119.467 37.7265 119.315 37.8469C119.154 37.9701 119.026 38.1298 118.94 38.3126C118.84 38.5356 118.792 38.7784 118.8 39.0226V44.0706H116.644V35.6648H118.705Z" fill="white"/>
</g>
</g>
</svg>
