<svg width="128" height="80" viewBox="0 0 128 80" fill="none" xmlns="http://www.w3.org/2000/svg">
<g id="payment methods / payment method-bpay / black">
<path id="logo" d="M112.971 25.1135C111.476 25.1135 110.806 25.0941 110.173 25.0941C109.505 25.0941 108.73 25.2188 108.368 26.2683L107.035 28.6617L101.689 38.1186L96.3441 28.6617L95.0117 26.2683C94.6483 25.2188 93.8753 25.0941 93.2063 25.0941C92.5733 25.0941 91.9014 25.1135 90.4082 25.1135C88.9434 25.1135 89.5161 26.2488 89.5161 26.2488C89.5161 26.2488 94.942 35.8657 99.3078 43.6383C99.3078 43.6383 99.2319 52.8779 99.2319 53.5211C99.2319 54.1642 99.5759 54.572 100.273 54.572H102.82C103.277 54.572 104.092 54.5331 104.092 53.5508L104.072 43.6383C108.44 35.8657 113.863 26.2488 113.863 26.2488C113.863 26.2488 114.434 25.1135 112.971 25.1135ZM120.823 63.3798C120.823 63.9453 120.536 64.4939 119.7 64.5104H8.23523C8.20557 64.5104 8.18148 64.5047 8.15738 64.5047C7.61246 64.4734 7.17503 64.025 7.17503 63.469C7.17503 63.469 7.17874 43.11 7.17874 29.118H18.8631L14.1516 30.8307V56.6294C14.1516 57.3486 14.5556 57.7267 15.1636 57.7841H31.0295C36.4489 57.6081 40.7879 53.1708 40.7879 47.7104C40.7879 44.1313 38.9215 40.9933 36.1079 39.2029C37.8687 37.6459 39.1958 35.1104 39.1958 32.5989C39.1958 25.9263 34.4584 22.1415 27.6969 22.1415H21.117V15.174C50.5245 15.174 119.7 15.174 119.7 15.174C120.567 15.174 120.823 15.7396 120.823 16.299V63.3798ZM7.17874 16.2193V16.2179C7.17874 15.667 7.60319 15.2167 8.1407 15.174C8.1407 15.174 10.3538 15.174 14.1516 15.174V22.1415H7.17874C7.17874 18.5382 7.17874 16.2193 7.17874 16.2193ZM21.0132 28.9271H28.5866C30.568 28.9271 32.1786 30.6212 32.1786 32.6044C32.1786 34.5914 30.568 36.2039 28.5866 36.2039L27.2762 36.2706C26.5755 36.3021 26.203 36.7155 26.1863 37.3568L26.1881 41.7755C26.229 42.4743 26.6626 42.8413 27.3299 42.8413H30.5884C32.7421 42.8413 34.4881 44.5873 34.4881 46.7429C34.4881 48.778 32.92 50.4424 30.9257 50.6093L22.1253 50.6167C21.4692 50.6037 21.0429 50.2275 21.0132 49.5046V28.9271ZM121.776 12.0001H6.21863C4.99533 12.0001 4 12.9956 4 14.2241V65.4622C4 66.6894 4.99533 67.6844 6.21863 67.6844H121.776C122.999 67.6844 124 66.6894 124 65.4622V14.2241C124 12.9956 122.999 12.0001 121.776 12.0001ZM58.0861 39.2807H51.2146V29.9688L58.0861 29.9632C60.6584 29.9632 62.7466 32.048 62.7466 34.6229C62.7466 37.1961 60.6584 39.2807 58.0861 39.2807ZM58.1673 25.14H47.4561C46.5252 25.14 46.3912 25.9083 46.3912 26.3856C46.3912 26.8679 46.3949 53.5025 46.3949 53.5025C46.3949 54.6184 47.4231 54.572 47.5367 54.572H50.2724C50.7225 54.572 51.2201 54.2087 51.2201 53.6935L51.2146 43.9719H58.1673C63.3668 43.9719 67.5841 39.758 67.5841 34.5549C67.5841 29.3543 63.3668 25.14 58.1673 25.14ZM74.8377 43.6512L79.6699 29.9632L84.794 43.6512H74.8377ZM83.3582 26.3758C82.9933 25.6312 82.7285 25.1456 81.407 25.1456H77.9328C76.6128 25.1456 76.3504 25.6312 75.9831 26.3758C75.6491 27.1103 65.9314 53.4358 65.9314 53.4358C65.9314 53.4358 65.3606 54.572 66.822 54.572C68.3162 54.572 68.6394 54.5906 69.2742 54.5906C69.9428 54.5906 70.7158 54.4645 71.0773 53.4173C71.3971 52.5017 72.851 48.4629 72.851 48.4629H86.4903C86.4903 48.4629 87.946 52.5017 88.2621 53.4173C88.6265 54.4645 89.3989 54.5906 90.0656 54.5906C90.7005 54.5906 91.0255 54.572 92.5178 54.572C93.983 54.572 93.4103 53.4358 93.4103 53.4358C93.4103 53.4358 83.6922 27.1103 83.3582 26.3758Z" fill="black"/>
</g>
</svg>
