<svg width="128" height="80" viewBox="0 0 128 80" fill="none" xmlns="http://www.w3.org/2000/svg">
<g id="payment methods / payment method-sepa / white">
<g id="logo">
<path fill-rule="evenodd" clip-rule="evenodd" d="M4.03294 57.7589L5.26073 57.6375C5.30233 57.9859 5.46182 58.3097 5.71272 58.555C5.97325 58.7597 6.29931 58.8628 6.6302 58.8451C7.03496 58.8451 7.34191 58.7607 7.54767 58.5853C7.64259 58.5148 7.71997 58.4233 7.7738 58.318C7.82762 58.2127 7.85643 58.0964 7.85799 57.9782C7.85799 57.8298 7.81751 57.7016 7.72981 57.597C7.64211 57.4925 7.4937 57.4014 7.27445 57.3238C6.94142 57.2215 6.60505 57.1304 6.26591 57.0506C5.59129 56.8819 5.11569 56.6762 4.84247 56.4299C4.66004 56.2748 4.51407 56.0812 4.41495 55.8632C4.31584 55.6451 4.26603 55.4079 4.26905 55.1684C4.27391 54.8378 4.37642 54.5161 4.56367 54.2436C4.75093 53.9711 5.01457 53.7601 5.32145 53.6371C5.71281 53.4815 6.13163 53.407 6.55262 53.4178C7.33854 53.4178 7.9322 53.5898 8.32685 53.9373C8.72487 54.2847 8.934 54.7468 8.95424 55.327L7.68596 55.3776C7.632 55.0537 7.51731 54.821 7.33854 54.6793C7.15977 54.5377 6.8933 54.4668 6.53575 54.4668C6.23127 54.4491 5.92898 54.5282 5.67225 54.6928C5.60901 54.7362 5.55767 54.7948 5.5229 54.8631C5.48814 54.9315 5.47106 55.0074 5.47324 55.0841C5.47271 55.158 5.48953 55.2309 5.52233 55.2971C5.55514 55.3633 5.60302 55.4209 5.66213 55.4653C5.82066 55.6002 6.20856 55.7385 6.82246 55.8835C7.43636 56.0319 7.89172 56.1803 8.18518 56.3389C8.48201 56.494 8.71137 56.7099 8.87665 56.9798C9.04531 57.2496 9.12626 57.5869 9.12626 57.9816C9.12626 58.3458 9.02507 58.6832 8.82943 58.9968C8.62692 59.3137 8.33113 59.56 7.98279 59.7018C7.54674 59.8666 7.08267 59.9445 6.6167 59.9312C5.82404 59.9312 5.21688 59.7457 4.79188 59.378C4.36687 59.007 4.11389 58.4673 4.03294 57.7589Z" fill="white"/>
<path fill-rule="evenodd" clip-rule="evenodd" d="M10.4425 59.8196H11.6467V55.2659H10.4425V59.8196ZM10.4425 54.6385H11.6467V53.5288H10.4425V54.6385ZM17.273 59.8196H16.0688V57.4922C16.0853 57.1697 16.0592 56.8465 15.9912 56.5308C15.9462 56.3946 15.8587 56.2764 15.7416 56.1935C15.6185 56.113 15.4738 56.0718 15.3267 56.0755C15.1283 56.0733 14.934 56.1322 14.7702 56.2441C14.6099 56.3553 14.4912 56.5167 14.4329 56.7029C14.3688 56.8917 14.3384 57.2425 14.3384 57.7485V59.8196H13.1342V55.2659H14.2541V55.9338C14.4921 55.5859 14.8439 55.3319 15.2491 55.2155C15.6542 55.0991 16.0872 55.1277 16.4736 55.2963C16.668 55.3754 16.8396 55.5018 16.9728 55.664C17.0848 55.815 17.1651 55.9871 17.2089 56.1699C17.2494 56.3588 17.273 56.6287 17.273 56.9794V59.8196ZM19.7117 57.4416C19.7117 57.9273 19.8028 58.2848 19.9883 58.5074C20.1738 58.7334 20.4032 58.8447 20.673 58.8447C20.9631 58.8447 21.2127 58.7301 21.4117 58.4973C21.6141 58.268 21.7119 57.9239 21.7119 57.4719C21.7119 56.9997 21.6175 56.6489 21.4252 56.4195C21.3378 56.3107 21.2268 56.2232 21.1006 56.1636C20.9743 56.104 20.8362 56.0738 20.6966 56.0755C20.5605 56.0728 20.4256 56.1019 20.3027 56.1605C20.1797 56.219 20.0721 56.3054 19.9883 56.4128C19.8028 56.6388 19.7117 56.9828 19.7117 57.4416ZM18.6323 60.1164L19.9951 60.2682C20.0187 60.4368 20.0726 60.5549 20.157 60.619C20.2683 60.7101 20.4504 60.7539 20.6966 60.7539C20.9411 60.769 21.1852 60.7202 21.405 60.6122C21.5169 60.5419 21.6005 60.4344 21.6411 60.3087C21.6902 60.1286 21.7096 59.9418 21.6984 59.7555L21.7018 59.091C21.5548 59.3154 21.3541 59.4995 21.1179 59.6267C20.8817 59.754 20.6175 59.8202 20.3492 59.8196C20.0613 59.8251 19.7767 59.7567 19.5228 59.6209C19.2688 59.4851 19.054 59.2864 18.8988 59.0438C18.608 58.5872 18.4622 58.0534 18.4805 57.5124C18.4805 56.7467 18.6627 56.1632 19.0304 55.7584C19.1999 55.5635 19.41 55.4082 19.6461 55.3033C19.8821 55.1984 20.1382 55.1465 20.3964 55.1512C20.9564 55.1512 21.4219 55.4009 21.7861 55.8933V55.2626H22.906V59.3575C22.906 59.8971 22.8622 60.3019 22.7711 60.565C22.7017 60.8018 22.5742 61.0175 22.4 61.1924C22.2161 61.3584 21.997 61.4806 21.7592 61.5499C21.4302 61.6432 21.0891 61.6864 20.7472 61.6781C19.9782 61.6781 19.4318 61.5432 19.1079 61.2767C18.9548 61.1568 18.8315 61.003 18.7478 60.8275C18.6641 60.6519 18.6223 60.4593 18.6256 60.2648L18.6323 60.1164ZM24.3497 59.8196H25.5539V53.5288H24.3497V59.8196ZM29.7533 57.1616C29.764 56.868 29.6681 56.5805 29.4835 56.3521C29.4041 56.2637 29.3068 56.1932 29.198 56.1455C29.0892 56.0978 28.9715 56.0739 28.8527 56.0755C28.729 56.0729 28.6063 56.0975 28.4932 56.1476C28.3801 56.1978 28.2795 56.2722 28.1983 56.3656C28.0184 56.5905 27.9283 56.8741 27.9454 57.1616H29.7533ZM29.6859 58.3826L30.8833 58.585C30.754 58.9893 30.4972 59.3408 30.1513 59.5868C29.7807 59.8273 29.3448 59.9474 28.9033 59.9309C28.1106 59.9309 27.5237 59.6712 27.1459 59.1551C26.8299 58.691 26.6714 58.1375 26.694 57.5765C26.694 56.8175 26.8896 56.2273 27.2842 55.7955C27.4727 55.5868 27.7042 55.4215 27.9628 55.3108C28.2213 55.2002 28.5008 55.1469 28.7819 55.1546C29.4565 55.1546 29.9928 55.3772 30.3841 55.8292C30.7754 56.2779 30.9609 56.966 30.944 57.8969H27.9251C27.913 58.2029 28.0179 58.5021 28.2186 58.7334C28.4041 58.9358 28.6368 59.0336 28.9168 59.0336C29.0897 59.0399 29.2593 58.985 29.3958 58.8785C29.5416 58.7468 29.644 58.5739 29.6892 58.3826H29.6859ZM34.8905 59.8196V53.5288H39.5251V54.5913H36.1588V55.9878H39.289V57.0469H36.1588V58.757H39.6499V59.8196H34.8905ZM43.9573 59.8196V59.1348C43.7913 59.3792 43.5662 59.5777 43.3029 59.7116C43.0463 59.8522 42.7589 59.927 42.4664 59.9293C42.1739 59.9317 41.8853 59.8615 41.6265 59.7251C41.3928 59.6002 41.2075 59.4008 41.1003 59.1584C40.9785 58.8355 40.9234 58.4913 40.9384 58.1465V55.2592H42.1426V57.3539C42.1426 57.9947 42.1662 58.3894 42.21 58.5344C42.2495 58.6725 42.3338 58.7935 42.4495 58.8785C42.5676 58.9628 42.7194 59.0033 42.8981 59.0033C43.1005 59.0033 43.286 58.9493 43.4479 58.8346C43.6015 58.7334 43.7185 58.5856 43.7819 58.413C43.8426 58.2443 43.8696 57.8396 43.8696 57.1852V55.2626H45.0771V59.8162H43.9573V59.8196ZM47.725 59.8196H46.5208V55.2659H47.6373V55.9136C47.8295 55.6066 48.0016 55.4042 48.1534 55.303C48.3051 55.2018 48.4805 55.1512 48.6728 55.1512C48.9531 55.153 49.2275 55.2324 49.4655 55.3806L49.0978 56.433C48.9312 56.3156 48.7347 56.2478 48.5311 56.2374C48.3762 56.2329 48.2245 56.283 48.1028 56.379C47.9847 56.4701 47.8936 56.6388 47.8262 56.885C47.7587 57.1245 47.725 57.6338 47.725 58.4096V59.8196ZM51.1824 57.5427C51.1824 57.9947 51.2903 58.3422 51.5028 58.5816C51.7187 58.8245 51.9818 58.9459 52.2955 58.9459C52.6092 58.9459 52.8756 58.8245 53.0882 58.5816C53.3007 58.3455 53.4052 57.9914 53.4052 57.5326C53.4052 57.084 53.3007 56.74 53.0882 56.5005C52.9916 56.3845 52.8702 56.2916 52.7331 56.2285C52.5959 56.1655 52.4464 56.1339 52.2955 56.1362C52.1446 56.1344 51.9953 56.1662 51.8582 56.2292C51.7211 56.2922 51.5997 56.3848 51.5028 56.5005C51.2903 56.74 51.1824 57.0874 51.1824 57.5427ZM49.9512 57.4753C49.9512 57.0739 50.0524 56.686 50.2447 56.3116C50.4318 55.9472 50.723 55.6467 51.0812 55.4481C51.4523 55.249 51.8676 55.1469 52.2887 55.1512C52.9768 55.1512 53.5401 55.3772 53.9786 55.8259C54.4171 56.2745 54.6364 56.8411 54.6364 57.5293C54.6467 57.8459 54.5932 58.1614 54.479 58.4569C54.3649 58.7525 54.1924 59.022 53.9719 59.2495C53.7557 59.4732 53.4953 59.6493 53.2072 59.7666C52.9192 59.884 52.6098 59.9399 52.2989 59.9309C51.8852 59.9317 51.4771 59.8346 51.1082 59.6475C50.7404 59.4668 50.4385 59.1754 50.2447 58.8144C50.0376 58.3991 49.9368 57.939 49.9512 57.4753ZM59.8309 54.5913V56.3858H60.519C61.0182 56.3858 61.3521 56.3521 61.5174 56.288C61.6797 56.2273 61.8188 56.1171 61.915 55.973C62.0112 55.829 62.0598 55.6583 62.0537 55.4852C62.0602 55.2814 61.9916 55.0823 61.8611 54.9256C61.7305 54.769 61.547 54.6656 61.3454 54.6352C61.0457 54.5966 60.7434 54.5819 60.4414 54.5913H59.8309ZM58.5626 59.8196V53.5288H60.5932C61.3623 53.5288 61.8615 53.5625 62.0942 53.6232C62.4551 53.7177 62.7553 53.9268 62.9982 54.2405C63.2506 54.5975 63.3775 55.0281 63.3591 55.4649C63.3709 55.8032 63.2991 56.1392 63.15 56.4431C63.0259 56.6877 62.8441 56.8984 62.6204 57.057C62.424 57.1996 62.2018 57.3027 61.966 57.3606C61.6625 57.4179 61.224 57.4483 60.6539 57.4483H59.8309V59.8196H58.5626ZM67.1471 57.6338C66.9081 57.7099 66.6648 57.7719 66.4185 57.8193C66.191 57.8573 65.9705 57.9289 65.7641 58.0318C65.6929 58.0776 65.6342 58.1404 65.5936 58.2147C65.5529 58.2889 65.5315 58.3722 65.5314 58.4568C65.5314 58.6255 65.5921 58.7739 65.7203 58.8953C65.7824 58.9576 65.8567 59.0065 65.9385 59.039C66.0203 59.0715 66.1079 59.0869 66.1959 59.0842C66.4204 59.0799 66.6377 59.0043 66.8165 58.8684C66.952 58.7674 67.0514 58.6255 67.0998 58.4636C67.1413 58.2709 67.1571 58.0735 67.1471 57.8767V57.6338ZM65.5314 56.6489L64.452 56.4499C64.5398 56.0594 64.7633 55.7128 65.0827 55.4717C65.383 55.2592 65.8248 55.1512 66.4185 55.1512C66.9514 55.1512 67.3528 55.2187 67.6159 55.3435C67.8459 55.4447 68.0391 55.6143 68.1691 55.8292C68.2737 56.0249 68.3276 56.3858 68.3276 56.9086L68.3175 58.3186C68.3175 58.7199 68.3344 59.0168 68.3715 59.2057C68.4186 59.4187 68.4922 59.6249 68.5907 59.8196H67.3967C67.3515 59.7039 67.3132 59.5856 67.282 59.4654L67.2381 59.3305C67.0486 59.5196 66.8256 59.6717 66.5804 59.7791C66.345 59.8804 66.0912 59.932 65.8349 59.9309C65.4305 59.9531 65.0335 59.8163 64.7286 59.5497C64.5966 59.426 64.4924 59.2758 64.4226 59.109C64.3528 58.9422 64.3192 58.7624 64.3238 58.5816C64.3238 58.3253 64.3879 58.0926 64.5093 57.8902C64.6316 57.6883 64.8113 57.5274 65.0254 57.4281C65.2447 57.3201 65.5651 57.2257 65.98 57.1447C66.3778 57.0845 66.7688 56.9851 67.1471 56.8479V56.7265C67.1471 56.4904 67.0897 56.3217 66.9784 56.2239C66.8604 56.1227 66.6411 56.0755 66.3274 56.0755C66.1497 56.0659 65.9732 56.1106 65.8214 56.2036C65.6825 56.3198 65.5815 56.4748 65.5314 56.6489ZM69.1945 55.2626H70.4763L71.559 58.5007L72.6215 55.2626H73.8662L72.2674 59.6475L71.9739 60.447C71.8994 60.662 71.7985 60.8671 71.6737 61.0575C71.4908 61.3345 71.2081 61.5302 70.8844 61.6039C70.6852 61.6564 70.4798 61.6813 70.2739 61.6781C70.0436 61.679 69.8139 61.6541 69.5892 61.6039L69.4779 60.6595C69.6466 60.6947 69.8182 60.7139 69.9906 60.7168C70.2705 60.7168 70.4797 60.6325 70.6146 60.4672C70.7495 60.2985 70.8507 60.0894 70.9249 59.8331L69.1945 55.2626ZM74.8073 55.2626H75.9137V55.8866C76.0761 55.6621 76.2888 55.4786 76.5348 55.351C76.7808 55.2233 77.0532 55.1549 77.3303 55.1512C77.6238 55.1512 77.8768 55.212 78.0926 55.3334C78.3051 55.4515 78.4806 55.637 78.6155 55.8765C78.7928 55.6539 79.013 55.4692 79.2631 55.3334C79.4918 55.2128 79.7466 55.1503 80.0052 55.1512C80.3391 55.1512 80.6191 55.2187 80.8484 55.3536C81.0846 55.4919 81.2532 55.6909 81.3713 55.954C81.4679 56.2591 81.509 56.5789 81.4927 56.8985V59.8196H80.2885V57.2122C80.2885 56.7568 80.2447 56.4667 80.1637 56.3352C80.0524 56.1598 79.8837 56.0755 79.651 56.0755C79.4713 56.0785 79.2973 56.1392 79.1546 56.2485C79.012 56.3577 78.9081 56.5099 78.8583 56.6826C78.7781 56.9907 78.744 57.309 78.7571 57.6271V59.8196H77.553V57.3168C77.553 56.8715 77.5327 56.5848 77.4889 56.4566C77.4566 56.3414 77.3865 56.2404 77.2899 56.1699C77.1815 56.1006 77.0539 56.0676 76.9256 56.0755C76.7401 56.0755 76.5748 56.1261 76.4264 56.2273C76.2779 56.3284 76.1734 56.4701 76.1093 56.659C76.0292 56.9671 75.9962 57.2855 76.0115 57.6035V59.8196H74.8073V55.2626ZM85.6449 57.1616C85.6571 56.8678 85.5611 56.5798 85.3751 56.3521C85.2965 56.2636 85.1998 56.1931 85.0916 56.1453C84.9833 56.0976 84.866 56.0738 84.7477 56.0755C84.624 56.0729 84.5013 56.0975 84.3882 56.1476C84.2751 56.1978 84.1744 56.2722 84.0933 56.3656C83.9134 56.5905 83.8232 56.8741 83.8403 57.1616H85.6449ZM85.5842 58.3826L86.7749 58.585C86.647 58.9891 86.3913 59.3406 86.0463 59.5868C85.6755 59.8269 85.2398 59.947 84.7983 59.9309C84.0056 59.9309 83.4153 59.6712 83.0376 59.1551C82.724 58.69 82.5668 58.137 82.5889 57.5765C82.5889 56.8175 82.7846 56.2273 83.1792 55.7955C83.3674 55.5873 83.5983 55.4222 83.8562 55.3116C84.1141 55.2009 84.3929 55.1474 84.6735 55.1546C85.3515 55.1546 85.8878 55.3772 86.2757 55.8292C86.6703 56.2779 86.8559 56.966 86.839 57.8969H83.8201C83.8269 58.2545 83.9213 58.5344 84.1102 58.7334C84.2991 58.9358 84.5318 59.0336 84.8118 59.0336C84.9847 59.0399 85.1543 58.985 85.2908 58.8785C85.4366 58.7468 85.539 58.5739 85.5842 58.3826ZM92.2055 59.8196H90.998V57.4922C91.0144 57.1697 90.9883 56.8465 90.9204 56.5308C90.8754 56.3946 90.7879 56.2764 90.6708 56.1935C90.5477 56.113 90.403 56.0718 90.2559 56.0755C90.0576 56.0742 89.8636 56.133 89.6993 56.2441C89.539 56.3553 89.4203 56.5167 89.362 56.7029C89.3013 56.8917 89.271 57.2425 89.271 57.7485V59.8196H88.0634V55.2659H89.1833V55.9338C89.4212 55.5859 89.7731 55.3319 90.1782 55.2155C90.5834 55.0991 91.0164 55.1277 91.4027 55.2963C91.5982 55.3736 91.7702 55.5003 91.902 55.664C92.0153 55.8142 92.0957 55.9866 92.1381 56.1699C92.1819 56.3588 92.2055 56.6287 92.2055 56.9794V59.8196ZM95.7607 55.2626V56.2239H94.9411V58.0689C94.9411 58.44 94.9478 58.6559 94.9613 58.7199C94.9778 58.781 95.0147 58.8346 95.0659 58.8717C95.1251 58.9131 95.1961 58.9344 95.2683 58.9324C95.431 58.9207 95.5905 58.8819 95.7405 58.8178L95.8451 59.7521C95.5467 59.8749 95.2266 59.9357 94.904 59.9309C94.7041 59.9351 94.5055 59.8984 94.3204 59.8229C94.1688 59.7654 94.0366 59.6659 93.9393 59.5362C93.8491 59.3943 93.7915 59.2342 93.7706 59.0674C93.7408 58.784 93.7295 58.4989 93.7369 58.214V56.2239H93.1871V55.2626H93.7335V54.3518L94.9411 53.6435V55.2626H95.7607ZM96.4387 58.5344L97.6429 58.3455C97.6969 58.5816 97.7981 58.757 97.9532 58.8785C98.1486 59.0078 98.3805 59.0705 98.6143 59.0573C98.9213 59.0573 99.154 58.9999 99.3126 58.8852C99.363 58.8479 99.4038 58.799 99.4314 58.7427C99.4589 58.6863 99.4726 58.6241 99.4711 58.5614C99.4725 58.5193 99.4654 58.4773 99.4504 58.4379C99.4353 58.3985 99.4125 58.3625 99.3834 58.332C99.2629 58.248 99.1242 58.1937 98.9786 58.1735C98.0072 57.9576 97.3866 57.7586 97.1302 57.5832C96.9587 57.4733 96.8188 57.3207 96.7242 57.1403C96.6295 56.9599 96.5835 56.758 96.5905 56.5544C96.5905 56.1598 96.7423 55.8259 97.056 55.556C97.3697 55.2862 97.852 55.1512 98.5064 55.1512C99.1338 55.1512 99.5959 55.2524 99.8995 55.4548C100.203 55.6572 100.412 55.954 100.527 56.3487L99.3969 56.5612C99.3561 56.3966 99.2565 56.2527 99.1169 56.1564C98.9401 56.051 98.7355 56.0016 98.53 56.0148C98.2927 55.9968 98.0549 56.0434 97.8419 56.1497C97.8 56.1747 97.7654 56.2103 97.7417 56.2529C97.718 56.2956 97.7061 56.3438 97.707 56.3925C97.707 56.4802 97.7475 56.5511 97.8251 56.6152C97.933 56.6927 98.3108 56.8074 98.9517 56.9525C99.5925 57.1009 100.045 57.2796 100.301 57.4922C100.427 57.6053 100.526 57.7452 100.591 57.9017C100.655 58.0581 100.684 58.2271 100.675 58.3961C100.675 58.6035 100.628 58.8081 100.538 58.995C100.449 59.1818 100.318 59.346 100.156 59.4755C99.8084 59.7791 99.2923 59.9309 98.6143 59.9309C97.9937 59.9309 97.5046 59.8061 97.1471 59.5565C96.7927 59.3151 96.5403 58.951 96.4387 58.5344ZM108.015 57.337L107.138 55.0028L106.291 57.337H108.015ZM110.336 59.8196H108.973L108.433 58.3961H105.904L105.391 59.8196H104.048L106.477 53.5322H107.806L110.336 59.8196ZM112.41 59.8196H111.203V55.2659H112.319V55.9136C112.449 55.6771 112.626 55.4694 112.839 55.303C112.991 55.201 113.171 55.1481 113.355 55.1512C113.635 55.153 113.909 55.2324 114.147 55.3806L113.78 56.433C113.613 56.3156 113.417 56.2478 113.213 56.2374C113.058 56.2329 112.906 56.283 112.785 56.379C112.667 56.4701 112.575 56.6388 112.508 56.885C112.441 57.1245 112.407 57.6338 112.407 58.4096L112.41 59.8196ZM117.628 57.1616C117.639 56.868 117.543 56.5805 117.358 56.3521C117.28 56.2636 117.183 56.1931 117.075 56.1453C116.967 56.0976 116.849 56.0738 116.731 56.0755C116.607 56.0724 116.484 56.0968 116.371 56.147C116.258 56.1971 116.158 56.2718 116.077 56.3656C115.897 56.5905 115.807 56.8741 115.824 57.1616H117.628ZM117.564 58.3826L118.758 58.585C118.63 58.9891 118.375 59.3406 118.03 59.5868C117.659 59.8265 117.223 59.9466 116.782 59.9309C115.986 59.9309 115.399 59.6712 115.021 59.1551C114.706 58.6907 114.549 58.1372 114.572 57.5765C114.572 56.8175 114.768 56.2273 115.163 55.7955C115.351 55.5873 115.582 55.4222 115.84 55.3116C116.098 55.2009 116.376 55.1474 116.657 55.1546C117.331 55.1546 117.871 55.3772 118.259 55.8292C118.65 56.2779 118.839 56.966 118.822 57.8969H115.803C115.81 58.2545 115.905 58.5344 116.094 58.7334C116.282 58.9358 116.515 59.0336 116.795 59.0336C116.968 59.0393 117.137 58.9844 117.274 58.8785C117.42 58.7473 117.521 58.574 117.564 58.3826ZM122.56 57.6338C122.32 57.7091 122.077 57.771 121.831 57.8193C121.603 57.8561 121.383 57.9278 121.177 58.0318C121.104 58.0767 121.045 58.1393 121.003 58.2137C120.962 58.288 120.94 58.3718 120.941 58.4568C120.943 58.5419 120.963 58.6256 120.998 58.7032C121.033 58.7808 121.083 58.8507 121.145 58.909C121.207 58.9672 121.279 59.0127 121.359 59.0428C121.439 59.0728 121.523 59.0869 121.608 59.0842C121.832 59.0806 122.049 59.0049 122.226 58.8684C122.363 58.7686 122.464 58.6264 122.512 58.4636C122.552 58.2706 122.568 58.0735 122.56 57.8767V57.6338ZM120.941 56.6489L119.861 56.4499C119.95 56.06 120.174 55.7138 120.492 55.4717C120.792 55.2592 121.237 55.1512 121.828 55.1512C122.364 55.1512 122.762 55.2187 123.025 55.3435C123.256 55.4427 123.45 55.6128 123.578 55.8292C123.686 56.0249 123.74 56.3858 123.74 56.9086L123.727 58.3186C123.727 58.7199 123.747 59.0168 123.784 59.2057C123.83 59.4186 123.902 59.6248 124 59.8196H122.806C122.772 59.7386 122.738 59.6239 122.691 59.4654L122.647 59.3305C122.459 59.521 122.236 59.6733 121.99 59.7791C121.754 59.8806 121.501 59.9323 121.244 59.9309C120.841 59.9522 120.445 59.8155 120.141 59.5497C120.009 59.426 119.905 59.2758 119.835 59.109C119.765 58.9422 119.732 58.7624 119.736 58.5816C119.727 58.3421 119.788 58.1051 119.912 57.9001C120.037 57.695 120.218 57.5309 120.435 57.4281C120.74 57.2947 121.061 57.1995 121.389 57.1447C121.953 57.0402 122.344 56.9423 122.56 56.8479V56.7265C122.56 56.4904 122.502 56.3217 122.388 56.2239C122.273 56.1227 122.057 56.0755 121.737 56.0755C121.56 56.0663 121.385 56.111 121.234 56.2036C121.094 56.3195 120.992 56.4745 120.941 56.6489ZM30.6539 28.8178H22.4439C22.4439 27.4685 22.2854 26.5578 21.9717 26.0991C21.4826 25.4143 20.1333 25.0669 17.9274 25.0669C15.7855 25.0669 14.3654 25.2659 13.6706 25.6606C12.9791 26.0552 12.6317 26.9154 12.6317 28.2376C12.6317 29.435 12.9386 30.2277 13.5559 30.6021C13.9944 30.872 14.5779 31.0305 15.3031 31.0743L16.9593 31.1924C20.5078 31.4285 22.7239 31.5972 23.6042 31.6916C26.414 31.9749 28.4479 32.7238 29.7095 33.9381C30.7011 34.8825 31.2948 36.1238 31.4837 37.6484C31.5916 38.5659 31.649 39.6014 31.649 40.7517C31.649 43.3995 31.396 45.339 30.89 46.5702C29.9793 48.8268 27.9251 50.2502 24.7308 50.8506C23.3917 51.1036 21.3443 51.2284 18.5919 51.2284C13.9944 51.2284 10.79 50.9552 8.98201 50.402C6.76254 49.7274 5.29863 48.3579 4.59029 46.2936C4.19564 45.1468 4 43.2342 4 40.556H12.2067V41.2407C12.2067 42.6709 12.6182 43.5884 13.4345 43.9965C14.0011 44.2799 14.6825 44.4283 15.4886 44.4452H18.5042C20.0423 44.4452 21.0272 44.3676 21.4522 44.209C22.2044 43.9088 22.7002 43.4332 22.9364 42.7654C23.0776 42.2492 23.1412 41.7149 23.1253 41.18C23.1253 39.733 22.5991 38.8526 21.5467 38.5356C21.152 38.4107 19.3204 38.2353 16.0553 38.0161C13.4311 37.8272 11.6096 37.6451 10.591 37.473C7.90263 36.9671 6.11154 35.9282 5.2143 34.353C4.42838 33.0139 4.03373 30.99 4.03373 28.2814C4.03373 26.2171 4.24961 24.561 4.67461 23.3163C5.09962 22.0716 5.78435 21.1272 6.73218 20.4829C8.11513 19.4879 9.88599 18.9043 12.0414 18.7289C14.0272 18.5648 16.0191 18.486 18.0117 18.4928C21.4556 18.4928 23.9112 18.6952 25.3751 19.0899C28.9472 20.0512 30.7315 22.7496 30.7315 27.1852C30.7315 27.5495 30.7045 28.0926 30.6539 28.8178ZM75.5696 35.1018H81.0677C82.8149 35.0377 83.8741 34.8994 84.2552 34.6936C84.7781 34.4036 85.1289 33.8268 85.3009 32.9633C85.4122 32.3898 85.4695 31.5331 85.4695 30.3997C85.4695 29.0033 85.3582 27.9711 85.1356 27.2965C84.8185 26.3521 84.0562 25.7786 82.8554 25.5729C82.6193 25.5392 82.0459 25.5223 81.1453 25.5223H75.5696V35.1018ZM66.749 18.3208H83.186C85.4392 18.3208 87.1594 18.5063 88.3434 18.874C91.0452 19.724 92.8599 21.4679 93.7875 24.0989C94.2698 25.4818 94.5093 27.5596 94.5093 30.3356C94.5093 33.675 94.2395 36.0698 93.7167 37.5338C92.6609 40.4245 90.492 42.0874 87.2168 42.5158C86.8289 42.5832 85.1929 42.6406 82.2921 42.6844L80.8316 42.735H75.5696V51.2351H66.749V18.3208ZM111.591 39.1326L107.452 24.8645L103.438 39.1326H111.591ZM113.344 45.5414H101.546L99.9602 51.2318H90.8327L100.682 18.3208H113.992L123.963 51.2318H115.024L113.341 45.5448L113.344 45.5414Z" fill="white"/>
<path fill-rule="evenodd" clip-rule="evenodd" d="M54.57 22.9519C58.2129 22.9519 61.4578 24.635 63.5929 27.2694L65.4953 23.1779C62.3941 20.2374 58.2803 18.6033 54.0067 18.6141C50.7282 18.5994 47.5193 19.5596 44.7877 21.3728C42.0562 23.186 39.9254 25.7704 38.666 28.7974H34.9557L32.7665 33.5096H37.5394C37.4552 34.4818 37.462 35.4597 37.5597 36.4306H35.1648L32.9723 41.1462H38.7807C40.0763 44.1016 42.2081 46.6136 44.9135 48.3726C47.6189 50.1317 50.7798 51.061 54.0067 51.0461C57.3156 51.0527 60.5516 50.0746 63.3029 48.2364V42.4583C62.1258 43.8142 60.6492 44.8776 58.9901 45.5642C57.3309 46.2508 55.5348 46.5418 53.7437 46.4142C51.9527 46.2865 50.2159 45.7438 48.6709 44.8289C47.1259 43.9139 45.815 42.652 44.8421 41.1428H57.002L59.1911 36.4306H43.0544C42.9109 35.4635 42.8883 34.4823 42.9869 33.5096H60.5471L62.7396 28.7974H44.5048C45.5201 27.0238 46.9853 25.5495 48.7525 24.5231C50.5197 23.4968 52.5264 22.9548 54.57 22.9519Z" fill="white"/>
<path fill-rule="evenodd" clip-rule="evenodd" d="M62.7381 28.939L62.6066 28.7367L60.4208 33.4488L60.5456 33.3679H42.8573L42.8438 33.496C42.7438 34.4812 42.7676 35.475 42.9146 36.4542L42.9315 36.5723H59.1896L59.0615 36.3699L56.8724 41.0854L57.0005 41.0045H44.5775L44.7192 41.2237C45.7843 42.8666 47.2433 44.217 48.9636 45.152C50.6838 46.0869 52.6106 46.5767 54.5686 46.5768C57.8199 46.5768 60.9334 45.2135 63.1597 42.8252C63.2431 42.7358 63.3252 42.645 63.406 42.5527L63.1597 42.4583V42.8252V48.2363L63.2204 48.1183C60.4924 49.9417 57.2832 50.9116 54.0019 50.9044C47.4042 50.9044 41.4777 47.0524 38.9041 41.0888L38.8703 41.0045H32.9742L33.1024 41.2069L35.2915 36.4913L35.16 36.5723H37.7134L37.6999 36.4171C37.6047 35.4539 37.5979 34.4841 37.6796 33.5197L37.6898 33.3679H32.7651L32.8933 33.5702L35.0858 28.8547L34.9576 28.939H38.759L38.7927 28.848C40.0083 25.8944 42.0718 23.3673 44.7226 21.5858C47.463 19.7329 50.6973 18.7469 54.0052 18.7558C58.2789 18.7558 62.3232 20.3613 65.3961 23.2757L65.3623 23.1171L63.4633 27.2087L63.6994 27.1817C62.6017 25.816 61.2114 24.7143 59.6311 23.9577C58.0507 23.2011 56.3207 22.8089 54.5686 22.8102C52.5012 22.8181 50.4723 23.3687 48.6846 24.407C46.8969 25.4453 45.4132 26.9348 44.3819 28.7265L44.2571 28.939H62.7381ZM54.5686 23.0935C58.0361 23.0935 61.2843 24.6451 63.4802 27.3604L63.6219 27.5358L63.7197 27.3335L65.6221 23.2352L65.6626 23.1441L65.5883 23.0733C62.4638 20.1054 58.3147 18.4573 54.0052 18.4724C50.641 18.464 47.3518 19.4664 44.5641 21.3496C41.8671 23.1616 39.7692 25.7339 38.5364 28.74L38.6646 28.6557H34.8665L34.8294 28.7367L32.6369 33.4488L32.5458 33.6512H37.538L37.3929 33.4994C37.3067 34.4817 37.3146 35.47 37.4165 36.4508L37.5548 36.2957H35.0689L35.0318 36.3766L32.8393 41.0888L32.7482 41.2912H38.7725L38.6477 41.2069C41.2618 47.2716 47.2929 51.1911 54.0019 51.1911C57.3397 51.1993 60.6042 50.2129 63.379 48.3577L63.4397 48.3139V42.0839L63.1935 42.3638C62.1189 43.5967 60.793 44.5855 59.3048 45.2638C57.8167 45.9422 56.2006 46.2944 54.5652 46.2968C50.6862 46.2968 47.0939 44.3404 44.9553 41.0686L44.8373 41.2878H57.0882L57.122 41.2069L59.3145 36.4913L59.4089 36.2889H43.0495L43.1878 36.4104C43.0516 35.4539 43.0289 34.4848 43.1204 33.523L42.9821 33.6512H60.6333L60.6704 33.5702L62.8629 28.8547L62.954 28.6523H44.5L44.6214 28.8682C45.6291 27.1201 47.0776 25.6669 48.8225 24.6536C50.5673 23.6403 52.5508 23.1024 54.5686 23.0935Z" fill="white"/>
</g>
</g>
</svg>
