<svg width="128" height="80" viewBox="0 0 128 80" fill="none" xmlns="http://www.w3.org/2000/svg">
<g id="payment methods / payment method-polygon / brand-dark">
<g id="logo">
<path d="M41.3632 51.4142V34.8974H43.8304L44.0464 36.2366H44.176C44.8672 35.3294 46.0768 34.6814 47.7232 34.6814C50.752 34.6814 53.2144 37.1486 53.2144 40.8206C53.2144 44.4926 50.7904 46.9598 47.7184 46.9598C46.0768 46.9598 44.9488 46.2686 44.344 45.491H44.2144V51.371H41.3584V51.4142H41.3632ZM50.3584 40.8206C50.3584 38.6606 48.976 37.3166 47.2864 37.3166C45.5968 37.3166 44.2144 38.6558 44.2144 40.8206C44.2144 42.9854 45.5968 44.3246 47.2864 44.3246C48.976 44.3246 50.3584 42.9854 50.3584 40.8206Z" fill="white"/>
<path d="M54.64 40.8206C54.64 37.2302 57.2368 34.6814 60.6496 34.6814C64.1104 34.6814 66.6592 37.2782 66.6592 40.8206C66.6592 44.411 64.0624 46.9598 60.6496 46.9598C57.1888 46.9598 54.64 44.3678 54.64 40.8206ZM63.8032 40.8206C63.8032 38.7038 62.4208 37.3166 60.6448 37.3166C58.9168 37.3166 57.4864 38.699 57.4864 40.8206C57.4864 42.9422 58.912 44.3246 60.6448 44.3246C62.3776 44.3246 63.8032 42.9422 63.8032 40.8206Z" fill="white"/>
<path d="M68.7328 46.7438V30.3566H71.5888V46.7438H68.7328Z" fill="white"/>
<path d="M82.2256 34.8974H85.2544L80.1088 49.2974C79.5904 50.723 78.8992 51.4142 77.0368 51.4142H74.272V48.7742H76.6048C77.0368 48.7742 77.2528 48.5582 77.3824 48.2126L77.6416 47.435L72.7984 34.8926H75.8272L78.8992 43.1102H79.3744L82.144 34.8926H82.2256V34.8974Z" fill="white"/>
<path d="M85.816 47.3534H88.7152C88.8448 48.131 89.6224 49.1678 91.4416 49.1678C93.1696 49.1678 94.2976 48.0878 94.2976 46.4414V44.7998H94.168C93.52 45.491 92.3536 46.0958 90.88 46.0958C87.8512 46.0958 85.4752 43.763 85.4752 40.3886C85.4752 37.0142 87.808 34.6814 90.88 34.6814C92.4352 34.6814 93.6064 35.3294 94.3408 36.1934H94.4704L94.6864 34.8974H97.1536V46.4414C97.1536 49.5998 95.0368 51.6734 91.4464 51.6734C87.4144 51.6734 85.9024 49.0382 85.816 47.3534ZM94.2496 40.3886C94.2496 38.531 92.9536 37.2302 91.264 37.2302C89.6224 37.2302 88.3216 38.5262 88.3216 40.3886C88.3216 42.251 89.6176 43.547 91.264 43.547C92.9104 43.547 94.2496 42.2462 94.2496 40.3886Z" fill="white"/>
<path d="M99.0928 40.8206C99.0928 37.2302 101.69 34.6814 105.102 34.6814C108.563 34.6814 111.112 37.2782 111.112 40.8206C111.112 44.411 108.515 46.9598 105.102 46.9598C101.642 46.9598 99.0928 44.3678 99.0928 40.8206ZM108.261 40.8206C108.261 38.7038 106.835 37.3166 105.102 37.3166C103.374 37.3166 101.944 38.699 101.944 40.8206C101.944 42.9422 103.37 44.3246 105.102 44.3246C106.83 44.3246 108.261 42.9422 108.261 40.8206Z" fill="white"/>
<path d="M113.104 34.8974H115.571L115.787 36.0206H115.917C116.392 35.5022 117.558 34.6814 119.334 34.6814C122.061 34.6814 124.005 36.6254 124.005 39.6542V46.787H121.149V40.043C121.149 38.531 120.069 37.403 118.595 37.403C117.122 37.403 115.955 38.5694 115.955 40.043V46.787H113.104V34.8974Z" fill="white"/>
<path d="M25.9696 45.3614L32.9728 41.2958C33.3616 41.0798 33.5776 40.691 33.5776 40.259V32.1278C33.5776 31.6958 33.3616 31.307 32.9728 31.091L25.9696 27.0254C25.5808 26.8094 25.1488 26.8094 24.76 27.0254L17.752 31.091C17.3632 31.307 17.1472 31.6958 17.1472 32.1278V46.6142L12.2176 49.4702L7.288 46.6142V40.9502L12.2176 38.0942L15.4624 39.9518V36.1454L12.8224 34.6334C12.6496 34.547 12.4336 34.4606 12.2176 34.4606C12.0016 34.4606 11.7856 34.5038 11.6128 34.6334L4.6048 38.7038C4.216 38.9198 4 39.3086 4 39.7406V47.8718C4 48.3038 4.216 48.6926 4.6048 48.9086L11.608 52.9742C11.9968 53.1902 12.4288 53.1902 12.8176 52.9742L19.8208 48.9086C20.2096 48.6926 20.4256 48.3038 20.4256 47.8718V33.3854L20.512 33.3422L25.36 30.5294L30.2896 33.3854V39.0494L25.36 41.9006L22.1152 40.043V43.8494L24.7552 45.3614C25.144 45.5774 25.576 45.5774 25.9696 45.3614Z" fill="url(#paint0_linear_673_60)"/>
</g>
</g>
<defs>
<linearGradient id="paint0_linear_673_60" x1="3.95154" y1="48.6703" x2="32.1461" y2="32.1946" gradientUnits="userSpaceOnUse">
<stop stop-color="#A726C1"/>
<stop offset="0.8784" stop-color="#803BDF"/>
<stop offset="1" stop-color="#7B3FE4"/>
</linearGradient>
</defs>
</svg>
