<svg width="128" height="80" viewBox="0 0 128 80" fill="none" xmlns="http://www.w3.org/2000/svg">
<g id="payment methods / payment method-polygon / white">
<g id="logo">
<path d="M41.3632 51.4143V34.8975H43.8304L44.0464 36.2367H44.176C44.8672 35.3295 46.0768 34.6815 47.7232 34.6815C50.752 34.6815 53.2144 37.1487 53.2144 40.8207C53.2144 44.4927 50.7904 46.9599 47.7184 46.9599C46.0768 46.9599 44.9488 46.2687 44.344 45.4911H44.2144V51.3711H41.3584V51.4143H41.3632ZM50.3584 40.8207C50.3584 38.6607 48.976 37.3167 47.2864 37.3167C45.5968 37.3167 44.2144 38.6559 44.2144 40.8207C44.2144 42.9855 45.5968 44.3247 47.2864 44.3247C48.976 44.3247 50.3584 42.9855 50.3584 40.8207Z" fill="white"/>
<path d="M54.64 40.8207C54.64 37.2303 57.2368 34.6815 60.6496 34.6815C64.1104 34.6815 66.6592 37.2783 66.6592 40.8207C66.6592 44.4111 64.0624 46.9599 60.6496 46.9599C57.1888 46.9599 54.64 44.3679 54.64 40.8207ZM63.8032 40.8207C63.8032 38.7039 62.4208 37.3167 60.6448 37.3167C58.9168 37.3167 57.4864 38.6991 57.4864 40.8207C57.4864 42.9423 58.912 44.3247 60.6448 44.3247C62.3776 44.3247 63.8032 42.9423 63.8032 40.8207Z" fill="white"/>
<path d="M68.7328 46.7439V30.3567H71.5888V46.7439H68.7328Z" fill="white"/>
<path d="M82.2256 34.8975H85.2544L80.1088 49.2975C79.5904 50.7231 78.8992 51.4143 77.0368 51.4143H74.272V48.7743H76.6048C77.0368 48.7743 77.2528 48.5583 77.3824 48.2127L77.6416 47.4351L72.7984 34.8927H75.8272L78.8992 43.1103H79.3744L82.144 34.8927H82.2256V34.8975Z" fill="white"/>
<path d="M85.816 47.3535H88.7152C88.8448 48.1311 89.6224 49.1679 91.4416 49.1679C93.1696 49.1679 94.2976 48.0879 94.2976 46.4415V44.7999H94.168C93.52 45.4911 92.3536 46.0959 90.88 46.0959C87.8512 46.0959 85.4752 43.7631 85.4752 40.3887C85.4752 37.0143 87.808 34.6815 90.88 34.6815C92.4352 34.6815 93.6064 35.3295 94.3408 36.1935H94.4704L94.6864 34.8975H97.1536V46.4415C97.1536 49.5999 95.0368 51.6735 91.4464 51.6735C87.4144 51.6735 85.9024 49.0383 85.816 47.3535ZM94.2496 40.3887C94.2496 38.5311 92.9536 37.2303 91.264 37.2303C89.6224 37.2303 88.3216 38.5263 88.3216 40.3887C88.3216 42.2511 89.6176 43.5471 91.264 43.5471C92.9104 43.5471 94.2496 42.2463 94.2496 40.3887Z" fill="white"/>
<path d="M99.0928 40.8207C99.0928 37.2303 101.69 34.6815 105.102 34.6815C108.563 34.6815 111.112 37.2783 111.112 40.8207C111.112 44.4111 108.515 46.9599 105.102 46.9599C101.642 46.9599 99.0928 44.3679 99.0928 40.8207ZM108.261 40.8207C108.261 38.7039 106.835 37.3167 105.102 37.3167C103.374 37.3167 101.944 38.6991 101.944 40.8207C101.944 42.9423 103.37 44.3247 105.102 44.3247C106.83 44.3247 108.261 42.9423 108.261 40.8207Z" fill="white"/>
<path d="M113.104 34.8975H115.571L115.787 36.0207H115.917C116.392 35.5023 117.558 34.6815 119.334 34.6815C122.061 34.6815 124.005 36.6255 124.005 39.6543V46.7871H121.149V40.0431C121.149 38.5311 120.069 37.4031 118.595 37.4031C117.122 37.4031 115.955 38.5695 115.955 40.0431V46.7871H113.104V34.8975Z" fill="white"/>
<path d="M25.9696 45.3615L32.9728 41.2959C33.3616 41.0799 33.5776 40.6911 33.5776 40.2591V32.1279C33.5776 31.6959 33.3616 31.3071 32.9728 31.0911L25.9696 27.0255C25.5808 26.8095 25.1488 26.8095 24.76 27.0255L17.752 31.0911C17.3632 31.3071 17.1472 31.6959 17.1472 32.1279V46.6143L12.2176 49.4703L7.288 46.6143V40.9503L12.2176 38.0943L15.4624 39.9519V36.1455L12.8224 34.6335C12.6496 34.5471 12.4336 34.4607 12.2176 34.4607C12.0016 34.4607 11.7856 34.5039 11.6128 34.6335L4.6048 38.7039C4.216 38.9199 4 39.3087 4 39.7407V47.8719C4 48.3039 4.216 48.6927 4.6048 48.9087L11.608 52.9743C11.9968 53.1903 12.4288 53.1903 12.8176 52.9743L19.8208 48.9087C20.2096 48.6927 20.4256 48.3039 20.4256 47.8719V33.3855L20.512 33.3423L25.36 30.5295L30.2896 33.3855V39.0495L25.36 41.9007L22.1152 40.0431V43.8495L24.7552 45.3615C25.144 45.5775 25.576 45.5775 25.9696 45.3615Z" fill="white"/>
</g>
</g>
</svg>
