<svg width="128" height="80" viewBox="0 0 128 80" fill="none" xmlns="http://www.w3.org/2000/svg">
<g id="payment methods / payment method-poli / white">
<g id="logo">
<path fill-rule="evenodd" clip-rule="evenodd" d="M5.86793 23.7288H34.6744C35.706 23.7288 36.5424 24.5618 36.5424 25.5902V54.4097C36.542 54.6546 36.4933 54.897 36.3992 55.123C36.3051 55.3491 36.1674 55.5544 35.9939 55.7273C35.8205 55.9001 35.6147 56.0371 35.3883 56.1304C35.1619 56.2238 34.9193 56.2716 34.6744 56.2711H5.86793C5.62306 56.2716 5.3805 56.2238 5.1541 56.1304C4.92771 56.0371 4.72191 55.9001 4.54845 55.7273C4.375 55.5544 4.23729 55.3491 4.14318 55.123C4.04908 54.897 4.00043 54.6546 4 54.4097V25.5902C4 24.5618 4.83634 23.7288 5.86793 23.7288ZM17.4723 29.2001C17.4734 29.1997 17.4744 29.1994 17.4755 29.1991L17.4723 29.1958L17.4723 29.2001ZM11.9118 33.1143C13.2973 31.2468 15.2469 29.8744 17.4723 29.2001L17.482 49.9448C15.2548 49.2722 13.3032 47.9007 11.9159 46.0331C10.5285 44.1655 9.77905 41.9009 9.77832 39.5744C9.77759 37.2478 10.5256 34.9828 11.9118 33.1143ZM19.8479 28.7695C20.0952 28.75 20.3458 28.7402 20.5963 28.7402C23.4687 28.7389 26.2239 29.8787 28.2558 31.9088C30.2878 33.939 31.43 36.6931 31.4313 39.5655C31.4326 42.4378 30.2928 45.193 28.2627 47.2249C26.2326 49.2569 23.4784 50.3991 20.6061 50.4004H20.3783V43.3387C21.291 43.3467 22.1959 43.1692 23.038 42.8171C23.8801 42.465 24.642 41.9456 25.2774 41.2903C25.9128 40.6351 26.4086 39.8576 26.7347 39.0051C27.0608 38.1526 27.2104 37.2427 27.1745 36.3307C27.1385 35.4186 26.9178 34.5234 26.5256 33.6992C26.1334 32.8749 25.578 32.1389 24.893 31.5357C24.2079 30.9325 23.4076 30.4747 22.5403 30.1899C21.6731 29.9052 20.7571 29.7995 19.8479 29.8792V28.7695Z" fill="white"/>
<path fill-rule="evenodd" clip-rule="evenodd" d="M59.2049 50.9244V29.684H64.7143C65.0848 29.684 65.4511 29.6824 65.8083 29.6808C67.4028 29.6737 68.8158 29.6674 69.6054 29.8109C70.5719 29.9834 71.8411 30.452 72.4919 30.8686C73.3771 31.4055 74.041 32.2093 74.5096 33.2702C74.9749 34.3278 75.193 35.597 75.193 37.0646C75.193 39.489 74.6723 41.3863 73.3901 42.6424C72.1079 43.9018 69.28 44.4387 66.81 44.4387H65.401V50.9244H59.2049ZM65.3652 40.5434C65.4412 40.5556 65.4575 40.5564 65.6211 40.5644L65.658 40.5662C67.578 40.6378 68.0792 40.1594 68.3818 39.7982C68.8374 39.2385 68.8472 37.9823 68.8472 36.8173L68.8473 36.6934C68.8486 35.7828 68.8497 35.0274 68.1833 34.3018C67.7277 33.8006 66.6018 33.6379 65.3652 33.6379L65.3782 33.9894V40.5434H65.3652Z" fill="white"/>
<path d="M115.568 51.1197H101.627V29.8305H108.497V44.7381H115.568V51.1197Z" fill="white"/>
<path d="M116.883 51.188H124V36.9507H116.883V51.188Z" fill="white"/>
<path d="M116.883 35.6067H124V29.8305H116.883V35.6067Z" fill="white"/>
<path d="M95.213 47.6962C94.4548 48.3829 93.5826 49.0565 92.6975 49.3721C96.121 47.2439 99.8243 43.1403 99.0921 37.4909C98.6723 33.9438 96.6351 31.6463 93.9471 30.3316C93.9422 30.3316 93.9323 30.3284 93.9198 30.3244C93.8992 30.3177 93.8718 30.3088 93.8495 30.3088C96.3195 32.0759 98.7309 34.3246 98.835 38.2264C98.9294 41.8386 97.4975 44.4452 95.6328 46.5084C94.1196 48.1844 92.0467 49.4893 89.8696 49.9644C92.8147 48.9393 95.4343 47.0421 97.0419 44.3509C97.8761 42.9958 98.4016 41.4736 98.5812 39.8926C99.1149 35.3171 96.6449 32.3688 93.6998 30.797C95.3888 31.9815 97.1005 33.4524 97.8457 35.5937C98.6495 37.914 98.3566 40.8818 97.3706 42.9906C95.6328 46.6581 92.0467 49.9644 86.6641 49.8017C90.1006 49.7692 92.8016 48.4512 94.7932 46.3913C96.6709 44.4583 98.3696 41.6987 98.1028 37.9953C97.9498 35.9322 97.0419 34.279 95.9224 33.0684C95.2618 32.333 94.445 31.6821 93.5143 31.3437C95.737 33.0684 97.5528 34.6272 97.8001 37.8782C98.0768 41.4774 96.6709 43.9669 94.8876 45.9487C93.4199 47.5791 90.6831 49.0923 87.6567 49.2582L87.4614 49.267C86.5292 49.3092 85.4843 49.3566 84.5814 48.9979C91.2298 50.0946 96.3911 45.9129 97.4259 40.7647C98.3241 36.3389 96.0656 33.2181 93.3386 31.7993C93.4722 31.915 93.5659 32.0046 93.6506 32.0856C93.735 32.1663 93.8107 32.2388 93.9081 32.3199C95.8183 33.9764 97.8229 36.2836 97.2176 40.1952C96.365 45.6363 90.4391 50.3517 84.1031 48.3698C87.9463 49.3591 91.3502 48.09 93.7584 45.9585C95.763 44.2012 97.4031 41.5587 97.0647 37.9953C96.8076 35.2813 95.0406 33.3841 93.1856 32.4404C94.982 33.9308 96.5635 35.3627 96.7523 38.1548C96.9833 41.6271 95.5743 43.9571 93.6543 45.7046C90.9988 48.1128 86.0133 49.5218 82.7981 47.0649C86.573 49.3591 91.4283 47.719 93.9211 45.2263C95.4831 43.6642 96.7035 41.2203 96.5993 38.7275C96.4822 35.854 94.9006 34.3018 93.049 32.8927C93.1176 32.9623 93.1863 33.0318 93.255 33.1013C94.9327 34.7976 96.5977 36.481 96.2414 39.9414C95.8183 43.9343 92.3851 47.1463 88.5288 47.7515C85.8148 48.1844 83.2407 47.2862 81.8674 45.5517C83.3123 46.9022 85.0012 47.8362 87.738 47.6474C91.9197 47.3675 95.8997 43.6903 96.0787 39.5183C96.1926 36.6676 94.445 34.9071 92.7919 33.5793C93.0064 33.8262 93.2247 34.0607 93.4402 34.2921C94.3952 35.3176 95.2939 36.2828 95.5515 37.9953C95.6556 38.7178 95.6458 39.4728 95.5515 40.1496C95.2846 41.9427 94.2791 43.6772 92.9774 44.9236C91.7082 46.1472 89.9835 47.1463 87.9463 47.2862C85.3494 47.4619 83.065 46.4596 81.7633 44.5624C82.4359 45.3701 83.2784 46.0195 84.2307 46.4644C85.1829 46.9093 86.2216 47.1388 87.2727 47.1365C91.2689 47.1137 95.0763 43.7456 95.4018 39.694C95.61 37.0972 94.0252 35.3627 92.5706 34.3961C94.1294 35.6653 95.353 37.5983 94.8746 40.3709C94.2921 43.7944 90.9988 46.785 87.1197 46.7622C83.2765 46.7427 80.6113 43.6772 81.2979 39.681C81.8576 36.4105 84.5684 34.0707 87.7966 33.498C87.7841 33.6521 87.7528 33.8555 87.7196 34.0714C87.6925 34.2473 87.6641 34.4321 87.6437 34.6044C88.0313 34.3931 88.4186 34.1809 88.806 33.9687C90.2918 33.1546 91.7799 32.3393 93.3028 31.565C92.8576 31.1234 92.4169 30.6907 91.9854 30.2669L91.9813 30.2629C90.8688 29.1706 89.8166 28.1374 88.9031 27.1652C88.8643 27.3631 88.8001 27.6433 88.7337 27.9328L88.7334 27.9342L88.7327 27.9368L88.7316 27.9419C88.6982 28.0875 88.6643 28.2352 88.633 28.3758C84.7767 28.6427 82.0203 30.3544 79.8302 32.6258C77.8126 34.7216 76.2994 37.4226 76.0553 40.8135C76.0098 41.3712 76.0098 41.9317 76.0553 42.4894C76.4751 47.8687 80.4485 51.3735 85.9222 51.8291C86.3387 51.8616 86.8854 51.8616 87.2336 51.8291C90.5395 51.538 93.6487 50.1337 96.0526 47.8459C98.4899 45.561 99.9526 42.4245 100.137 39.0888C100.374 35.3399 98.6853 32.5087 96.7848 30.9011C96.0168 30.2503 95.0991 29.6319 94.0578 29.3293C97.1949 31.1256 99.8829 33.8592 99.8829 38.6104C99.8829 41.9883 98.4282 44.6893 96.8434 46.5898C96.2869 47.2634 95.7044 47.9501 94.9559 48.3243C97.3446 46.1928 99.7559 43.0947 99.6746 38.5648C99.616 35.1511 98.1484 32.7332 96.2153 31.1712L96.1922 31.1524C95.5223 30.608 94.8191 30.0366 93.9569 29.8532C96.9606 31.5422 99.219 34.2432 99.4077 38.4607C99.5802 42.4667 97.3446 45.7599 95.213 47.6962Z" fill="white"/>
<path d="M46.9169 23.7288V56.2711H48.544V23.7288H46.9169Z" fill="white"/>
</g>
</g>
</svg>
