<svg width="128" height="80" viewBox="0 0 128 80" fill="none" xmlns="http://www.w3.org/2000/svg">
<g id="payment methods / payment method-upineo / white">
<g id="logo">
<path d="M81.1953 26.1761H50.6488C50.45 26.1761 50.2843 26.1121 50.1187 26.1761C49.9199 26.2721 49.5886 26.4001 49.5555 26.5601C49.0916 28.1921 48.6609 29.8241 48.1971 31.5521H76.8883C76.4245 33.1841 75.9938 34.688 75.5631 36.224C75.2649 37.344 74.9999 37.536 73.8072 37.536C70.6597 37.504 67.5123 37.44 64.3649 37.44C58.7658 37.408 53.1336 37.44 47.5345 37.408C46.6399 37.408 46.2093 37.728 45.9773 38.528C45.381 40.704 44.7515 42.848 44.122 45.024C43.2937 47.904 42.4655 50.784 41.6041 53.8239C43.2937 53.8239 44.8178 53.7919 46.3086 53.8879C47.0044 53.8879 47.3026 53.6639 47.4682 53.0559C48.2965 50.112 49.1579 47.2 49.9862 44.288C50.4169 42.816 50.5825 42.688 52.1397 42.688H76.0932C78.0148 42.688 79.4063 41.824 79.9364 40.128C81.0959 36.352 82.1892 32.5761 83.2494 28.8001C83.6801 27.2001 82.9181 26.3041 81.1953 26.1761Z" fill="white"/>
<path d="M45.5798 26.2081H41.7035C40.0801 26.2081 40.0138 26.2401 39.5831 27.7441C37.6947 34.368 35.7731 40.96 33.8846 47.584C33.6858 48.384 33.2883 48.768 32.3937 48.768C25.4031 48.736 18.4457 48.736 11.4551 48.736C11.0907 48.736 10.7262 48.672 10.2624 48.608C12.4159 41.088 14.5694 33.6961 16.6898 26.3041C15.1989 26.3041 13.8736 26.3361 12.5484 26.2721C11.5214 26.2081 11.1569 26.7201 10.925 27.5841C10.2293 30.1441 9.46726 32.7041 8.73838 35.232C7.21437 40.416 5.72348 45.632 4.2326 50.816C3.56999 53.1199 4.29886 54.0479 6.75054 54.0479H35.0442C37.1314 54.0479 37.794 53.5359 38.3241 51.648L43.2938 34.368C44.0558 31.6801 44.8178 28.9601 45.5798 26.2081Z" fill="white"/>
<path d="M89.0804 26.0801C88.3184 26.0801 88.1196 26.6241 87.954 27.2321C85.5023 35.648 83.0175 44.032 80.5658 52.416C80.4333 52.7999 80.3671 53.2159 80.2677 53.6959C81.7917 53.6959 83.2163 53.6639 84.5747 53.6959C85.5354 53.7599 85.933 53.4079 86.1981 52.5119C88.0865 45.888 90.0081 39.296 91.8966 32.6721C92.526 30.4961 93.1555 28.3201 93.8181 26.0801C92.1947 26.0801 90.6376 26.0481 89.0804 26.0801Z" fill="white"/>
<path d="M115.949 33.3761H110.781V38.368H115.949V33.3761ZM115.221 37.152C115.221 37.44 114.989 37.696 114.657 37.696H112.073C111.775 37.696 111.51 37.472 111.51 37.152V34.656C111.51 34.368 111.742 34.1121 112.073 34.1121H114.657C114.956 34.1121 115.221 34.368 115.221 34.656V37.152Z" fill="white"/>
<path d="M114.127 35.168H112.636V36.608H114.127V35.168Z" fill="white"/>
<path d="M123.636 32.6401C123.371 29.0561 120.422 26.2401 116.711 25.9521C114.194 25.7601 111.377 25.6001 109.091 25.6001C106.805 25.6001 103.989 25.7601 101.471 25.9521C97.7607 26.2081 94.8452 29.0561 94.547 32.6401C94.3482 35.072 94.2157 37.792 94.1826 40C94.1826 42.208 94.3482 44.928 94.547 47.36C94.812 50.944 97.7607 53.7599 101.471 54.0479C103.989 54.2399 106.805 54.3999 109.091 54.3999C111.377 54.3999 114.194 54.2399 116.711 54.0479C120.422 53.7919 123.338 50.944 123.636 47.36C123.835 44.928 124 42.208 124 40C124 37.792 123.835 35.072 123.636 32.6401ZM108.594 47.136C108.594 47.424 108.363 47.68 108.031 47.68H101.736C101.438 47.68 101.173 47.456 101.173 47.136V41.056C101.173 40.768 101.405 40.512 101.736 40.512H108.031C108.329 40.512 108.594 40.736 108.594 41.056V47.136ZM108.594 38.944C108.594 39.232 108.363 39.488 108.031 39.488H101.736C101.438 39.488 101.173 39.264 101.173 38.944V37.888C101.173 37.6 101.405 37.344 101.736 37.344C102.068 37.344 102.3 37.568 102.3 37.888V38.432H107.468V33.4401H102.266V35.04C102.266 35.328 102.035 35.584 101.703 35.584C101.372 35.584 101.14 35.36 101.14 35.04V32.8641H101.173C101.173 32.5761 101.405 32.3201 101.736 32.3201H108.031C108.329 32.3201 108.594 32.5441 108.594 32.8641V38.944ZM102.995 37.152V34.656C102.995 34.368 103.227 34.1121 103.559 34.1121H106.143C106.441 34.1121 106.706 34.368 106.706 34.656V37.152C106.706 37.44 106.474 37.696 106.143 37.696H103.559C103.26 37.696 102.995 37.472 102.995 37.152ZM109.655 32.8641C109.655 32.5761 109.887 32.3201 110.218 32.3201H116.513C116.811 32.3201 117.076 32.5441 117.076 32.8641V38.944C117.076 39.232 116.844 39.488 116.513 39.488H110.218C109.92 39.488 109.655 39.264 109.655 38.944V32.8641ZM109.853 40.512H116.513C116.811 40.512 117.076 40.736 117.076 41.056C117.076 41.344 116.844 41.6 116.513 41.6H109.853C109.555 41.6 109.29 41.376 109.29 41.056C109.29 40.768 109.522 40.512 109.853 40.512ZM114.856 43.584C114.856 43.872 114.624 44.128 114.293 44.128H112.073C111.775 44.096 111.51 43.872 111.51 43.584C111.51 43.296 111.742 43.04 112.073 43.04H114.293C114.591 43.04 114.856 43.264 114.856 43.584ZM112.073 46.976H109.853C109.555 46.976 109.29 46.72 109.29 46.432C109.29 46.144 109.522 45.888 109.853 45.888H112.073C112.371 45.888 112.636 46.112 112.636 46.432C112.636 46.72 112.404 46.976 112.073 46.976ZM116.513 46.976H114.293C113.995 46.976 113.73 46.72 113.73 46.432C113.73 46.144 113.962 45.888 114.293 45.888H116.513C116.811 45.888 117.076 46.112 117.076 46.432C117.076 46.72 116.844 46.976 116.513 46.976Z" fill="white"/>
<path d="M102.266 46.592H107.435V41.6H102.266V46.592ZM102.995 42.848C102.995 42.56 103.227 42.304 103.559 42.304H106.143C106.441 42.304 106.706 42.528 106.706 42.848V45.344C106.706 45.632 106.474 45.888 106.143 45.888H103.559C103.26 45.888 102.995 45.664 102.995 45.344V42.848Z" fill="white"/>
<path d="M105.613 35.168H104.122V36.608H105.613V35.168Z" fill="white"/>
<path d="M105.613 43.392H104.122V44.832H105.613V43.392Z" fill="white"/>
</g>
</g>
</svg>
