<svg width="128" height="80" viewBox="0 0 128 80" fill="none" xmlns="http://www.w3.org/2000/svg">
<g id="payment methods / payment method-bpay / brand">
<g id="logo">
<path d="M112.971 25.1134C111.476 25.1134 110.806 25.0939 110.173 25.0939C109.505 25.0939 108.73 25.2187 108.368 26.2681L107.035 28.6616L101.689 38.1184L96.3441 28.6616L95.0117 26.2681C94.6483 25.2187 93.8753 25.0939 93.2063 25.0939C92.5733 25.0939 91.9014 25.1134 90.4082 25.1134C88.9434 25.1134 89.5162 26.2487 89.5162 26.2487C89.5162 26.2487 94.942 35.8655 99.3078 43.6382C99.3078 43.6382 99.2319 52.8778 99.2319 53.521C99.2319 54.1641 99.5759 54.5719 100.273 54.5719H102.82C103.277 54.5719 104.092 54.533 104.092 53.5506L104.072 43.6382C108.44 35.8655 113.863 26.2487 113.863 26.2487C113.863 26.2487 114.434 25.1134 112.971 25.1134ZM120.823 63.3797C120.823 63.9452 120.536 64.4938 119.7 64.5103H8.23523C8.20557 64.5103 8.18148 64.5046 8.15738 64.5046C7.61246 64.4732 7.17503 64.0249 7.17503 63.4688C7.17503 63.4688 7.17874 43.1099 7.17874 29.1179H18.8631L14.1516 30.8305V56.6293C14.1516 57.3484 14.5556 57.7266 15.1636 57.784H31.0295C36.4489 57.6079 40.7879 53.1707 40.7879 47.7103C40.7879 44.1312 38.9215 40.9932 36.1079 39.2027C37.8687 37.6458 39.1958 35.1102 39.1958 32.5987C39.1958 25.9262 34.4584 22.1414 27.6969 22.1414H21.117V15.1739C50.5245 15.1739 119.7 15.1739 119.7 15.1739C120.568 15.1739 120.823 15.7395 120.823 16.2989V63.3797ZM7.17874 16.2192V16.2178C7.17874 15.6669 7.60319 15.2166 8.1407 15.1739C8.1407 15.1739 10.3538 15.1739 14.1516 15.1739V22.1414H7.17874C7.17874 18.5381 7.17874 16.2192 7.17874 16.2192ZM21.0132 28.927H28.5866C30.568 28.927 32.1786 30.6211 32.1786 32.6043C32.1786 34.5912 30.568 36.2038 28.5866 36.2038L27.2762 36.2705C26.5755 36.302 26.203 36.7153 26.1863 37.3567L26.1881 41.7754C26.229 42.4741 26.6626 42.8412 27.3299 42.8412H30.5884C32.7421 42.8412 34.4881 44.5872 34.4881 46.7427C34.4881 48.7779 32.92 50.4423 30.9257 50.6091L22.1253 50.6166C21.4692 50.6035 21.0429 50.2273 21.0132 49.5044V28.927ZM121.776 12H6.21863C4.99533 12 4 12.9955 4 14.224V65.4621C4 66.6893 4.99533 67.6842 6.21863 67.6842H121.776C122.999 67.6842 124 66.6893 124 65.4621V14.224C124 12.9955 122.999 12 121.776 12ZM58.0861 39.2806H51.2146V29.9687L58.0861 29.9631C60.6584 29.9631 62.7466 32.0479 62.7466 34.6228C62.7466 37.196 60.6584 39.2806 58.0861 39.2806ZM58.1673 25.1399H47.4561C46.5252 25.1399 46.3912 25.9082 46.3912 26.3855C46.3912 26.8677 46.3949 53.5024 46.3949 53.5024C46.3949 54.6182 47.4231 54.5719 47.5367 54.5719H50.2724C50.7225 54.5719 51.2201 54.2086 51.2201 53.6934L51.2146 43.9718H58.1673C63.3668 43.9718 67.5841 39.7579 67.5841 34.5547C67.5841 29.3542 63.3668 25.1399 58.1673 25.1399ZM74.8377 43.6511L79.6699 29.9631L84.794 43.6511H74.8377ZM83.3582 26.3757C82.9933 25.6311 82.7285 25.1455 81.407 25.1455H77.9328C76.6128 25.1455 76.3504 25.6311 75.9831 26.3757C75.6491 27.1102 65.9314 53.4357 65.9314 53.4357C65.9314 53.4357 65.3606 54.5719 66.8221 54.5719C68.3162 54.5719 68.6394 54.5904 69.2742 54.5904C69.9428 54.5904 70.7158 54.4644 71.0773 53.4172C71.3971 52.5015 72.851 48.4628 72.851 48.4628H86.4903C86.4903 48.4628 87.9461 52.5015 88.2621 53.4172C88.6265 54.4644 89.3989 54.5904 90.0656 54.5904C90.7005 54.5904 91.0255 54.5719 92.5178 54.5719C93.983 54.5719 93.4103 53.4357 93.4103 53.4357C93.4103 53.4357 83.6922 27.1102 83.3582 26.3757Z" fill="white"/>
<path d="M51.2146 39.2806H58.0861C60.6584 39.2806 62.7466 37.196 62.7466 34.6228C62.7466 32.0479 60.6584 29.9631 58.0861 29.9631L51.2146 29.9687V39.2806Z" fill="#142C61"/>
<path d="M79.6699 29.9631L74.8377 43.6511H84.794L79.6699 29.9631Z" fill="#142C61"/>
<path fill-rule="evenodd" clip-rule="evenodd" d="M119.7 64.5103C120.536 64.4938 120.823 63.9452 120.823 63.3797V16.2989C120.823 15.7395 120.568 15.1739 119.7 15.1739H21.117V22.1414H27.6969C34.4584 22.1414 39.1958 25.9262 39.1958 32.5987C39.1958 35.1102 37.8687 37.6458 36.1079 39.2027C38.9215 40.9932 40.7879 44.1312 40.7879 47.7103C40.7879 53.1707 36.4489 57.6079 31.0295 57.784H15.1636C14.5556 57.7266 14.1516 57.3484 14.1516 56.6293V30.8305L18.8631 29.1179H7.17874C7.17874 43.1099 7.17503 63.4688 7.17503 63.4688C7.17503 64.0249 7.61246 64.4732 8.15738 64.5046C8.16881 64.5046 8.1801 64.5059 8.19211 64.5072C8.20544 64.5087 8.21963 64.5103 8.23523 64.5103H119.7ZM110.987 25.1006C111.463 25.1062 112.065 25.1134 112.971 25.1134C114.434 25.1134 113.863 26.2487 113.863 26.2487C113.863 26.2487 108.44 35.8655 104.072 43.6382L104.092 53.5506C104.092 54.533 103.277 54.5719 102.82 54.5719H100.273C99.5759 54.5719 99.2319 54.1641 99.2319 53.521C99.2319 52.8778 99.3078 43.6382 99.3078 43.6382C94.942 35.8655 89.5162 26.2487 89.5162 26.2487C89.5162 26.2487 88.9434 25.1134 90.4082 25.1134C91.3126 25.1134 91.9156 25.1063 92.3912 25.1006C92.7009 25.097 92.9567 25.0939 93.2063 25.0939C93.8753 25.0939 94.6483 25.2187 95.0117 26.2681L96.3441 28.6616L101.689 38.1184L107.035 28.6616L108.368 26.2681C108.73 25.2187 109.505 25.0939 110.173 25.0939C110.423 25.0939 110.678 25.097 110.987 25.1006ZM47.4561 25.1399H58.1673C63.3668 25.1399 67.5841 29.3542 67.5841 34.5547C67.5841 39.7579 63.3668 43.9718 58.1673 43.9718H51.2146L51.2201 53.6934C51.2201 54.2086 50.7225 54.5719 50.2724 54.5719H47.5367C47.5331 54.5719 47.5286 54.5719 47.5233 54.572C47.3598 54.5736 46.3949 54.5835 46.3949 53.5024C46.3949 53.5024 46.3912 26.8677 46.3912 26.3855C46.3912 25.9082 46.5252 25.1399 47.4561 25.1399ZM81.407 25.1455C82.7285 25.1455 82.9933 25.6311 83.3582 26.3757C83.6922 27.1102 93.4103 53.4357 93.4103 53.4357C93.4103 53.4357 93.983 54.5719 92.5178 54.5719C91.6146 54.5719 91.1389 54.5787 90.7634 54.584C90.5185 54.5875 90.3162 54.5904 90.0656 54.5904C89.3989 54.5904 88.6265 54.4644 88.2621 53.4172C87.9461 52.5015 86.4903 48.4628 86.4903 48.4628H72.851C72.851 48.4628 71.3971 52.5015 71.0773 53.4172C70.7158 54.4644 69.9428 54.5904 69.2742 54.5904C69.0237 54.5904 68.8216 54.5875 68.577 54.584C68.2019 54.5787 67.7266 54.5719 66.8221 54.5719C65.3606 54.5719 65.9314 53.4357 65.9314 53.4357C65.9314 53.4357 75.6491 27.1102 75.9831 26.3757C76.3504 25.6311 76.6128 25.1455 77.9328 25.1455H81.407Z" fill="#142C61"/>
<path d="M7.17874 16.2178V22.1414H14.1516V15.1739H8.1407C7.60319 15.2166 7.17874 15.6669 7.17874 16.2178Z" fill="#142C61"/>
<path d="M28.5866 28.927H21.0132V49.5044C21.0429 50.2273 21.4692 50.6035 22.1253 50.6166L30.9257 50.6091C32.92 50.4423 34.4881 48.7779 34.4881 46.7427C34.4881 44.5872 32.7421 42.8412 30.5884 42.8412H27.3299C26.6626 42.8412 26.229 42.4741 26.1881 41.7754L26.1863 37.3567C26.203 36.7153 26.5755 36.302 27.2762 36.2705L28.5866 36.2038C30.568 36.2038 32.1786 34.5912 32.1786 32.6043C32.1786 30.6211 30.568 28.927 28.5866 28.927Z" fill="#142C61"/>
</g>
</g>
</svg>
