<svg width="128" height="80" viewBox="0 0 128 80" fill="none" xmlns="http://www.w3.org/2000/svg">
<g id="payment methods / payment method-blueshyft / white">
<g id="logo">
<path fill-rule="evenodd" clip-rule="evenodd" d="M117.858 36.4847H94.21L117.858 36.7288V36.4847ZM117.858 33.7976H92.6745V36.4847H94.21L117.858 36.7288V41.2369L122.32 36.7748L124 35.0949L117.858 28.953V33.7976Z" fill="white"/>
<path fill-rule="evenodd" clip-rule="evenodd" d="M4 47.9531V27.4175H7.41339V35.5157C7.97538 34.9168 8.61107 34.44 9.32047 34.0853C10.0299 33.7306 10.859 33.5533 11.808 33.5533C12.5819 33.5533 13.2889 33.7122 13.9292 34.0301C14.5695 34.3479 15.1223 34.8109 15.5876 35.4189C16.0528 36.027 16.4121 36.7778 16.6655 37.6715C16.9188 38.5651 17.0455 39.5924 17.0455 40.7532C17.0455 41.8127 16.9027 42.7939 16.6171 43.6967C16.3315 44.5996 15.9238 45.3827 15.3941 46.046C14.8644 46.7094 14.2241 47.2276 13.4732 47.6007C12.7223 47.9738 11.8817 48.1604 10.9512 48.1604C10.5182 48.1604 10.122 48.1166 9.76269 48.0291C9.40339 47.9416 9.07633 47.8195 8.78151 47.6629C8.4867 47.5063 8.21262 47.3151 7.95926 47.0894C7.7059 46.8637 7.46407 46.6126 7.23374 46.3362L7.08173 47.2898C7.02645 47.5293 6.93202 47.6998 6.79843 47.8011C6.66484 47.9024 6.48289 47.9531 6.25256 47.9531H4ZM10.6333 36.2066C9.92391 36.2066 9.31817 36.3563 8.81606 36.6558C8.31395 36.9552 7.8464 37.3767 7.41339 37.9202V44.2772C7.80034 44.7562 8.22183 45.0902 8.67787 45.2791C9.13391 45.4679 9.6291 45.5624 10.1635 45.5624C10.6794 45.5624 11.1446 45.4656 11.5592 45.2722C11.9738 45.0787 12.3262 44.7839 12.6164 44.3877C12.9066 43.9916 13.13 43.4918 13.2866 42.8883C13.4433 42.2849 13.5216 41.5732 13.5216 40.7532C13.5216 39.924 13.4548 39.2216 13.3212 38.6457C13.1876 38.0699 12.9964 37.6024 12.7477 37.2431C12.4989 36.8838 12.1972 36.6212 11.8425 36.4554C11.4878 36.2895 11.0848 36.2066 10.6333 36.2066ZM22.9633 27.4175V47.9531H19.5499V27.4175H22.9633ZM29.5582 33.7744V42.7847C29.5582 43.6507 29.7586 44.3209 30.1594 44.7954C30.5601 45.2699 31.1613 45.5071 31.9628 45.5071C32.5524 45.5071 33.1052 45.3758 33.6211 45.1132C34.1371 44.8507 34.6253 44.4891 35.086 44.0284V33.7744H38.4994V47.9531H36.4126C35.9704 47.9531 35.6802 47.7458 35.542 47.3312L35.3071 46.1981C35.0123 46.4929 34.7083 46.7623 34.395 47.0065C34.0818 47.2506 33.7478 47.4579 33.3931 47.6284C33.0384 47.7988 32.6561 47.9324 32.2461 48.0291C31.8361 48.1259 31.3962 48.1742 30.9263 48.1742C30.1525 48.1742 29.4684 48.0429 28.8742 47.7804C28.2799 47.5178 27.7801 47.147 27.3748 46.6679C26.9694 46.1888 26.6631 45.6199 26.4558 44.9612C26.2485 44.3025 26.1448 43.577 26.1448 42.7847V33.7744H29.5582ZM47.6233 33.5533C48.5169 33.5533 49.3392 33.6961 50.09 33.9817C50.8409 34.2673 51.4881 34.6842 52.0316 35.2324C52.5752 35.7805 52.999 36.4531 53.303 37.25C53.6071 38.0469 53.7591 38.9567 53.7591 39.9793C53.7591 40.2373 53.7476 40.4515 53.7245 40.6219C53.7015 40.7924 53.66 40.9259 53.6002 41.0227C53.5403 41.1194 53.4597 41.1885 53.3583 41.23C53.257 41.2714 53.128 41.2922 52.9714 41.2922H44.2099C44.3112 42.7478 44.7028 43.8165 45.3845 44.4983C46.0663 45.18 46.9691 45.5209 48.0931 45.5209C48.6459 45.5209 49.1227 45.4564 49.5234 45.3274C49.9242 45.1984 50.2743 45.0556 50.5737 44.899C50.8731 44.7424 51.1357 44.5996 51.3614 44.4706C51.5871 44.3416 51.8059 44.2772 52.0178 44.2772C52.156 44.2772 52.2758 44.3048 52.3771 44.3601C52.4785 44.4153 52.566 44.4937 52.6397 44.595L53.6347 45.8387C53.257 46.281 52.8332 46.6518 52.3633 46.9512C51.8935 47.2506 51.4029 47.4902 50.8915 47.6698C50.3802 47.8495 49.8597 47.9761 49.33 48.0499C48.8002 48.1236 48.2866 48.1604 47.7891 48.1604C46.8033 48.1604 45.8866 47.9969 45.039 47.6698C44.1914 47.3428 43.4544 46.8591 42.8279 46.2188C42.2014 45.5785 41.7086 44.7862 41.3492 43.8418C40.9899 42.8975 40.8103 41.8035 40.8103 40.5597C40.8103 39.5924 40.9669 38.6826 41.2802 37.8304C41.5934 36.9782 42.0425 36.2366 42.6275 35.6055C43.2126 34.9744 43.9266 34.4746 44.7696 34.1061C45.6125 33.7376 46.5638 33.5533 47.6233 33.5533ZM47.6924 35.9993C46.6974 35.9993 45.9189 36.2803 45.3569 36.8423C44.7949 37.4043 44.4356 38.2012 44.279 39.2331H50.6912C50.6912 38.7908 50.6313 38.374 50.5115 37.9824C50.3917 37.5909 50.2075 37.2477 49.9587 36.9529C49.71 36.6581 49.3968 36.4254 49.019 36.255C48.6413 36.0845 48.1991 35.9993 47.6924 35.9993ZM64.5689 36.5383C64.4768 36.6857 64.3801 36.7893 64.2787 36.8492C64.1774 36.9091 64.0484 36.9391 63.8918 36.9391C63.7259 36.9391 63.5486 36.893 63.3597 36.8009C63.1709 36.7087 62.952 36.6051 62.7033 36.4899C62.4545 36.3748 62.1713 36.2711 61.8534 36.179C61.5356 36.0869 61.1601 36.0408 60.7271 36.0408C60.0546 36.0408 59.5248 36.1836 59.1379 36.4692C58.7509 36.7548 58.5575 37.1279 58.5575 37.5886C58.5575 37.8926 58.6565 38.1482 58.8546 38.3555C59.0527 38.5628 59.3152 38.7448 59.6423 38.9014C59.9694 39.058 60.3402 39.1985 60.7548 39.3229C61.1693 39.4473 61.5931 39.5832 62.0261 39.7306C62.4592 39.878 62.8829 40.0461 63.2975 40.235C63.7121 40.4238 64.0829 40.6634 64.41 40.9536C64.7371 41.2438 64.9996 41.5916 65.1977 41.997C65.3958 42.4023 65.4948 42.8906 65.4948 43.4618C65.4948 44.1436 65.3704 44.7723 65.1217 45.3482C64.8729 45.924 64.509 46.4215 64.03 46.8407C63.5509 47.2598 62.959 47.5869 62.2542 47.8218C61.5494 48.0568 60.741 48.1742 59.8289 48.1742C59.3406 48.1742 58.8638 48.1305 58.3986 48.0429C57.9333 47.9554 57.4865 47.8333 57.0581 47.6767C56.6297 47.5201 56.2335 47.3359 55.8696 47.124C55.5057 46.9121 55.1855 46.6817 54.9092 46.433L55.6969 45.134C55.7982 44.9773 55.918 44.8576 56.0562 44.7747C56.1944 44.6917 56.3694 44.6503 56.5813 44.6503C56.7932 44.6503 56.9936 44.7102 57.1824 44.8299C57.3713 44.9497 57.5901 45.0787 57.8389 45.2169C58.0876 45.3551 58.3801 45.484 58.7164 45.6038C59.0527 45.7236 59.4788 45.7835 59.9947 45.7835C60.4001 45.7835 60.7479 45.7351 61.0381 45.6384C61.3283 45.5416 61.5678 45.415 61.7567 45.2583C61.9455 45.1017 62.0837 44.9198 62.1712 44.7125C62.2588 44.5052 62.3025 44.291 62.3025 44.0699C62.3025 43.7382 62.2035 43.4664 62.0054 43.2545C61.8073 43.0426 61.5448 42.8584 61.2177 42.7017C60.8907 42.5451 60.5175 42.4046 60.0983 42.2803C59.6791 42.1559 59.2508 42.02 58.8131 41.8726C58.3755 41.7252 57.9471 41.5524 57.5279 41.3544C57.1087 41.1563 56.7356 40.9052 56.4086 40.6012C56.0815 40.2972 55.8189 39.924 55.6209 39.4818C55.4228 39.0396 55.3237 38.5053 55.3237 37.8788C55.3237 37.2984 55.4389 36.7456 55.6692 36.2204C55.8995 35.6953 56.2381 35.237 56.6849 34.8454C57.1318 34.4539 57.6892 34.1406 58.3571 33.9057C59.025 33.6708 59.7966 33.5533 60.6718 33.5533C61.6484 33.5533 62.5375 33.7145 63.339 34.037C64.1405 34.3594 64.8085 34.7832 65.3428 35.3084L64.5689 36.5383ZM67.8472 47.9531V27.4175H71.2606V35.3084C71.8134 34.7832 72.4214 34.3594 73.0847 34.037C73.7481 33.7145 74.5266 33.5533 75.4202 33.5533C76.1941 33.5533 76.8805 33.6846 77.4793 33.9471C78.0782 34.2097 78.578 34.5782 78.9787 35.0527C79.3795 35.5272 79.6835 36.0938 79.8908 36.7525C80.0981 37.4112 80.2017 38.1367 80.2017 38.929V47.9531H76.7883V38.929C76.7883 38.063 76.588 37.3928 76.1872 36.9183C75.7864 36.4439 75.1853 36.2066 74.3838 36.2066C73.7941 36.2066 73.2414 36.3402 72.7254 36.6074C72.2095 36.8746 71.7212 37.2385 71.2606 37.6991V47.9531H67.8472ZM87.7087 51.8502C87.6074 52.0897 87.4761 52.2717 87.3149 52.3961C87.1537 52.5204 86.9072 52.5826 86.5756 52.5826H84.0328L86.6861 46.9028L80.951 33.7744H83.936C84.2124 33.7744 84.4243 33.8389 84.5717 33.9679C84.7191 34.0969 84.8297 34.2443 84.9034 34.4101L87.9299 41.762C88.0312 42.0016 88.1187 42.2503 88.1924 42.5083C88.2661 42.7662 88.3306 43.0242 88.3859 43.2822C88.4596 43.015 88.5402 42.757 88.6277 42.5083C88.7153 42.2595 88.8097 42.0062 88.911 41.7482L91.7578 34.4101C91.8315 34.2258 91.9536 34.0738 92.124 33.9541C92.2945 33.8343 92.4856 33.7744 92.6975 33.7744H95.4338L87.7087 51.8502ZM97.648 47.9531V36.3448L96.418 36.1513C96.1509 36.1053 95.9367 36.0132 95.7754 35.875C95.6142 35.7368 95.5336 35.5433 95.5336 35.2945V33.8988H97.648V32.8485C97.648 32.0378 97.77 31.3099 98.0142 30.665C98.2583 30.0201 98.6084 29.472 99.0645 29.0205C99.5205 28.5691 100.076 28.2236 100.73 27.9841C101.384 27.7445 102.121 27.6248 102.941 27.6248C103.595 27.6248 104.203 27.7123 104.765 27.8873L104.696 29.6009C104.677 29.8681 104.553 30.034 104.323 30.0984C104.092 30.1629 103.825 30.1952 103.521 30.1952C103.116 30.1952 102.754 30.2389 102.436 30.3265C102.119 30.414 101.849 30.566 101.628 30.7825C101.407 30.999 101.239 31.2846 101.124 31.6393C101.008 31.994 100.951 32.4339 100.951 32.9591V33.8988H104.641V36.331H101.061V47.9531H97.648ZM111.001 48.1742C109.775 48.1742 108.831 47.8264 108.168 47.1309C107.504 46.4353 107.173 45.4748 107.173 44.2495V36.331H105.735C105.551 36.331 105.392 36.2711 105.259 36.1513C105.125 36.0316 105.058 35.8519 105.058 35.6124V34.2581L107.338 33.885L108.057 30.0155C108.094 29.8313 108.179 29.6885 108.313 29.5871C108.446 29.4858 108.614 29.4351 108.817 29.4351H110.586V33.8988H114.317V36.331H110.586V44.0146C110.586 44.4568 110.697 44.8023 110.918 45.051C111.139 45.2998 111.434 45.4242 111.802 45.4242C112.014 45.4242 112.191 45.3988 112.334 45.3482C112.477 45.2975 112.601 45.2445 112.707 45.1892C112.813 45.134 112.908 45.081 112.991 45.0303C113.074 44.9796 113.156 44.9543 113.239 44.9543C113.341 44.9543 113.424 44.9796 113.488 45.0303C113.553 45.081 113.622 45.157 113.695 45.2583L114.718 46.9167C114.221 47.3312 113.649 47.6445 113.004 47.8564C112.359 48.0683 111.692 48.1742 111.001 48.1742Z" fill="white"/>
</g>
</g>
</svg>
