<svg width="128" height="80" viewBox="0 0 128 80" fill="none" xmlns="http://www.w3.org/2000/svg">
<g id="payment methods / payment method-post-billpay / black">
<g id="logo">
<path fill-rule="evenodd" clip-rule="evenodd" d="M53.0274 14.1666H6.98417C5.81981 14.1666 4.81133 14.8267 4.31981 15.789C4.11621 16.1891 4.00009 16.6416 4.00009 17.1212V62.8782C4.00168 63.2687 4.07962 63.6544 4.23074 64.0139C4.29755 64.1722 4.37708 64.3241 4.46934 64.468C4.58705 64.6509 4.72543 64.8212 4.87973 64.9746C5.1565 65.249 5.48577 65.4662 5.84685 65.6133C6.20793 65.7604 6.59446 65.8352 6.98417 65.8336H53.0274C54.6769 65.8336 56.0115 64.511 56.0115 62.8782V17.1212C56.0115 15.4892 54.6769 14.1666 53.0274 14.1666ZM13.0557 39.8669C13.0557 32.2635 18.1474 25.842 25.1416 23.7575L25.1511 55.9659C18.157 53.8877 13.0557 47.467 13.0557 39.8669ZM28.8621 23.0862C29.2534 23.0568 29.6463 23.044 30.0408 23.044C39.4273 23.0409 47.037 30.5695 47.0402 39.8533C47.0402 49.1412 39.4368 56.673 30.0535 56.673H29.6956V45.711C35.4777 45.6426 40.1399 40.9811 40.1399 35.2444C40.1367 29.4679 35.4029 24.7866 29.562 24.7866C29.3314 24.7866 29.0896 24.7969 28.8621 24.8129V23.0862Z" fill="black"/>
<path fill-rule="evenodd" clip-rule="evenodd" d="M69.5314 32.4192H73.2941C74.5385 32.4192 75.4213 32.1912 75.9425 31.7319C76.4638 31.2758 76.7276 30.6275 76.7276 29.7968C76.7439 29.2447 76.5817 28.702 76.265 28.2494C75.9737 27.8308 75.543 27.5295 75.0499 27.3992C74.7242 27.3145 74.128 27.2688 73.2517 27.2688H69.5314V32.4192ZM67.6029 39.9738V25.5716H73.0953C74.0596 25.5716 74.7991 25.6172 75.3105 25.7084C76.024 25.8257 76.6201 26.0505 77.1023 26.3828C77.5909 26.7118 77.9753 27.1744 78.2718 27.7705C78.565 28.3667 78.7148 29.0247 78.7148 29.7382C78.7148 30.9631 78.3206 31.999 77.5323 32.846C76.7439 33.693 75.3203 34.1165 73.2647 34.1165H69.5314V39.9738H67.6029ZM82.1093 34.755C82.1093 36.0906 82.4025 37.094 82.9889 37.7586C83.5818 38.4231 84.3245 38.7554 85.2171 38.7554C85.6377 38.7633 86.0548 38.6773 86.438 38.5037C86.8212 38.3301 87.1609 38.0734 87.4324 37.752C88.0187 37.0842 88.3119 36.0678 88.3119 34.6996C88.3119 33.4063 88.0187 32.429 87.4258 31.7677C87.1546 31.448 86.8158 31.1925 86.4338 31.0195C86.0519 30.8466 85.6363 30.7605 85.2171 30.7676C84.7959 30.7587 84.378 30.8432 83.9933 31.015C83.6086 31.1868 83.2667 31.4416 82.9921 31.7612C82.4025 32.4225 82.1093 33.4193 82.1093 34.755ZM80.272 34.7582C80.272 32.8264 80.8128 31.3931 81.9008 30.4646C82.8266 29.6844 84.0069 29.2716 85.2171 29.3049C86.6635 29.3049 87.8493 29.774 88.768 30.7155C89.6899 31.6537 90.1492 32.9535 90.1492 34.6084C90.1492 35.9538 89.944 37.0093 89.5401 37.7781C89.1329 38.5469 88.54 39.1463 87.7614 39.5698C86.9816 39.9961 86.1058 40.2159 85.2171 40.2083C83.7381 40.2083 82.5458 39.7425 81.6337 38.8075C80.7281 37.8693 80.272 36.5206 80.272 34.7582ZM91.5305 36.8594L93.2962 36.5858C93.3534 37.2098 93.6513 37.787 94.1269 38.1951C94.5797 38.5697 95.2117 38.7554 96.0261 38.7554C96.847 38.7554 97.4562 38.5925 97.8504 38.2602C98.0336 38.1254 98.1831 37.9499 98.2871 37.7475C98.3911 37.5452 98.4468 37.3215 98.4498 37.094C98.4532 36.9039 98.4062 36.7163 98.3135 36.5504C98.2207 36.3844 98.0857 36.246 97.9221 36.1493C97.6777 35.9962 97.0685 35.7942 96.0978 35.5531C94.7849 35.2273 93.876 34.9407 93.3711 34.7061C92.899 34.493 92.4985 34.1479 92.2179 33.7125C91.9579 33.2919 91.8224 32.8062 91.827 32.3117C91.823 31.8598 91.9352 31.4145 92.1527 31.0184C92.3639 30.6256 92.664 30.2876 93.029 30.0314C93.3059 29.8294 93.6838 29.6567 94.166 29.5166C94.6448 29.3733 95.1596 29.3049 95.7101 29.3049C96.4518 29.2906 97.19 29.4098 97.8895 29.6567C98.5117 29.8945 98.9743 30.2105 99.274 30.6177C99.5704 31.0184 99.7757 31.5592 99.8897 32.2335L98.1403 32.4681C98.0851 31.9742 97.8368 31.5222 97.4497 31.2106C97.0718 30.9077 96.5343 30.7578 95.8371 30.7578C95.0162 30.7578 94.4298 30.8914 94.078 31.1618C93.7294 31.4289 93.5568 31.7449 93.5568 32.1065C93.5568 32.3345 93.6284 32.5398 93.7718 32.7255C93.9542 32.9397 94.1903 33.1016 94.4559 33.1946C94.6383 33.2597 95.1628 33.4128 96.0359 33.6474C97.2998 33.9797 98.1827 34.2533 98.6811 34.4683C99.1828 34.6801 99.5737 34.9895 99.8571 35.3967C100.144 35.8007 100.284 36.3089 100.284 36.9083C100.283 37.5032 100.101 38.0838 99.7626 38.573C99.4173 39.0942 98.9156 39.4982 98.2608 39.7816C97.5568 40.0767 96.7991 40.2221 96.0359 40.2083C94.6676 40.2083 93.6252 39.9282 92.9052 39.3646C92.1886 38.801 91.7292 37.9638 91.5305 36.8594ZM106.311 38.3938L106.571 39.9575C106.127 40.0524 105.674 40.1037 105.219 40.1106C104.568 40.1106 104.069 40.0129 103.711 39.8076C103.378 39.6306 103.112 39.349 102.955 39.0062C102.809 38.674 102.737 37.9801 102.737 36.9213V30.9142H101.427V29.5362H102.737V26.9529L104.516 25.8909V29.5394H106.311V30.9142H104.516V37.0125C104.516 37.5175 104.548 37.8433 104.61 37.9866C104.672 38.1299 104.773 38.2472 104.916 38.3286C105.06 38.4166 105.262 38.459 105.525 38.459C105.727 38.459 105.988 38.4394 106.311 38.3938ZM69.45 56.2263H73.0758C73.6947 56.2263 74.1313 56.2035 74.3854 56.1611C74.7767 56.0991 75.1533 55.9655 75.4962 55.767C75.8078 55.5701 76.0609 55.2934 76.2292 54.9656C76.429 54.5923 76.5288 54.1737 76.5191 53.7505C76.5295 53.2515 76.3838 52.7617 76.1022 52.3497C75.8179 51.953 75.4118 51.6602 74.9457 51.5157C74.4538 51.3561 73.7403 51.2779 72.8152 51.2779H69.45V56.2263ZM69.45 49.5774H72.5969C73.4504 49.5774 74.0629 49.522 74.4342 49.408C74.8728 49.2989 75.2626 49.0467 75.5418 48.6913C75.8005 48.3244 75.931 47.8824 75.9132 47.4338C75.9227 46.989 75.8027 46.551 75.5679 46.1731C75.3377 45.8119 74.9849 45.5458 74.5743 45.4239C74.1443 45.2936 73.4016 45.2251 72.3591 45.2251H69.45V49.5774ZM67.5247 57.9268V43.5246H72.9846C74.0954 43.5246 74.988 43.6712 75.6591 43.9612C76.3335 44.2544 76.8579 44.7007 77.2391 45.3066C77.6202 45.9125 77.8092 46.5445 77.8092 47.2091C77.8087 47.825 77.6336 48.4282 77.3042 48.9487C76.9654 49.4927 76.4572 49.9292 75.7731 50.2648C76.6527 50.5189 77.3303 50.9554 77.8027 51.5678C78.2783 52.1868 78.5161 52.9132 78.5161 53.7505C78.5161 54.4281 78.3695 55.0535 78.0828 55.6334C77.8382 56.1592 77.4719 56.6193 77.0143 56.9756C76.5908 57.2883 76.0598 57.5261 75.4213 57.6857C74.7828 57.8486 74.001 57.9268 73.0758 57.9268H67.5247Z" fill="black"/>
<path fill-rule="evenodd" clip-rule="evenodd" d="M80.9467 57.9268H82.7352V47.4924H80.9467V57.9268ZM80.9467 45.5574H82.7352V43.5246H80.9467V45.5574ZM85.413 57.9268H87.2014V43.5246H85.413V57.9268ZM89.9314 57.9268H91.7198V43.5246H89.9314V57.9268ZM95.6877 61.2463H94.1175V48.5512H95.6877V49.6262C96.5282 48.8346 97.5315 48.4339 98.6717 48.4339C99.9161 48.4339 100.998 48.9128 101.884 49.8608C102.763 50.8022 103.21 51.9522 103.21 53.2813C103.21 54.6072 102.763 55.7572 101.884 56.6954C101.48 57.147 100.985 57.5076 100.431 57.753C99.8772 57.9985 99.2775 58.1232 98.6717 58.119C97.5315 58.119 96.5282 57.7215 95.6877 56.9397V61.2463ZM98.6717 56.6074C99.0849 56.6104 99.494 56.5251 99.8716 56.3571C100.249 56.1891 100.586 55.9424 100.861 55.6334C101.46 54.9818 101.763 54.1935 101.763 53.2781C101.763 52.3659 101.46 51.5776 100.861 50.926C100.587 50.6164 100.25 50.3692 99.8721 50.2011C99.4944 50.0331 99.0851 49.9481 98.6717 49.952C98.2574 49.948 97.847 50.0329 97.4682 50.2009C97.0895 50.3689 96.7512 50.6162 96.476 50.926C95.8668 51.5743 95.5639 52.3561 95.5639 53.2715V53.2781C95.5639 54.1935 95.8668 54.9786 96.476 55.6334C97.082 56.2816 97.8117 56.6074 98.6717 56.6074ZM108.578 50.0921C108.18 50.0898 107.786 50.1727 107.423 50.335C107.059 50.4974 106.735 50.7355 106.471 51.0335C105.892 51.6466 105.577 52.4615 105.591 53.3041C105.591 54.1837 105.887 54.946 106.471 55.5682C106.733 55.8666 107.055 56.1057 107.417 56.2695C107.779 56.4333 108.171 56.518 108.568 56.518C108.966 56.518 109.358 56.4333 109.72 56.2695C110.082 56.1057 110.404 55.8666 110.666 55.5682C111.253 54.9492 111.546 54.1837 111.546 53.3041C111.564 52.4608 111.248 51.6445 110.666 51.0335C110.407 50.735 110.086 50.496 109.726 50.3329C109.365 50.1699 108.974 50.0898 108.578 50.0921ZM108.578 58.1418C107.324 58.1418 106.236 57.6661 105.35 56.7214C104.478 55.7993 104.001 54.573 104.021 53.3041C104.021 51.9783 104.467 50.825 105.347 49.8803C106.236 48.9356 107.324 48.46 108.578 48.46C109.709 48.46 110.706 48.8574 111.546 49.6425V48.5512H113.116V58.0473H111.546V56.9657C110.706 57.7476 109.709 58.1418 108.578 58.1418ZM119.622 61.2659C118.863 61.2594 118.121 61.0392 117.481 60.6306C116.775 60.2326 116.185 59.6578 115.768 58.9627L115.706 58.865L117.035 57.9854L117.1 58.0962C117.384 58.562 117.742 58.9334 118.175 59.207C118.612 59.4708 119.111 59.6146 119.622 59.624C119.985 59.6246 120.344 59.5445 120.672 59.3896C121.001 59.2347 121.291 59.0087 121.521 58.7281C122.016 58.2119 122.326 57.5465 122.404 56.8354C121.662 57.567 120.664 57.9806 119.622 57.9887C118.42 57.9887 117.387 57.5098 116.553 56.5651C115.692 55.672 115.217 54.4761 115.23 53.2357V48.5512H116.801V53.2357C116.801 54.0599 117.094 54.7961 117.68 55.4249C118.244 56.0373 118.899 56.35 119.622 56.3566C119.992 56.3605 120.358 56.2787 120.692 56.1177C121.025 55.9566 121.317 55.7206 121.544 55.4281C122.112 54.8402 122.429 54.0536 122.427 53.2357V48.5512H124V56.6237L123.948 57.1449C123.785 58.3177 123.27 59.3015 122.43 60.0801C122.066 60.4569 121.63 60.7563 121.147 60.96C120.664 61.1638 120.146 61.2679 119.622 61.2659Z" fill="black"/>
</g>
</g>
</svg>
