<svg width="128" height="80" viewBox="0 0 128 80" fill="none" xmlns="http://www.w3.org/2000/svg">
<g id="payment methods / payment method-ideal / black">
<g id="logo">
<path fill-rule="evenodd" clip-rule="evenodd" d="M35.6006 18.3616C35.6006 16.7827 36.8657 15.5151 38.4416 15.5151H64.9434C75.1978 15.5151 92.4217 18.6952 92.4217 39.9554C92.4217 55.7893 82.6556 64.5069 64.9434 64.5069H38.4416C36.8657 64.5069 35.6006 63.2393 35.6006 61.6604V18.3616ZM50.4273 60.3038V22.5425C50.4273 20.9858 51.6925 19.6959 53.2684 19.6959H66.83C81.7233 19.6959 88.1823 28.5469 88.1823 39.9554C88.1823 51.8753 81.7233 60.3038 66.83 60.3038H50.4273ZM43.0139 43.536C45.3062 43.536 47.1645 41.6741 47.1645 39.3774C47.1645 37.0806 45.3062 35.2188 43.0139 35.2188C40.7215 35.2188 38.8633 37.0806 38.8633 39.3774C38.8633 41.6741 40.7215 43.536 43.0139 43.536ZM39.8622 54.0105C39.8622 57.4797 42.6588 60.304 46.1436 60.304H46.1658V49.0957C46.1658 47.3389 44.7452 45.9378 43.014 45.9378C41.2605 45.9378 39.8622 47.3611 39.8622 49.0957V54.0105Z" fill="black"/>
<path fill-rule="evenodd" clip-rule="evenodd" d="M30.0294 14.4477V65.5523C30.0294 67.9985 32.027 70 34.4686 70H64.9433C87.9825 70 97.9706 57.0793 97.9706 39.9333C97.9706 22.8762 87.9825 10 64.9433 10H34.4686C32.027 10 30.0294 12.0015 30.0294 14.4477ZM38.4416 65.9302H64.9434C83.5656 65.9302 93.8422 56.7011 93.8422 39.9554C93.8422 30.3038 90.0911 14.0918 64.9434 14.0918H38.4416C36.0889 14.0918 34.1801 16.0043 34.1801 18.3616V61.6604C34.1801 64.0177 36.0889 65.9302 38.4416 65.9302Z" fill="black"/>
<path d="M56.1982 34.863C56.7753 34.863 57.308 34.9519 57.8185 35.1299C58.329 35.3078 58.7507 35.5969 59.128 35.9527C59.4832 36.3307 59.7717 36.7978 59.9937 37.3315C60.1934 37.8875 60.3044 38.5324 60.3044 39.2885C60.3044 39.9557 60.2156 40.5561 60.0603 41.1121C59.8827 41.668 59.6385 42.1573 59.3056 42.5576C58.9727 42.9579 58.551 43.2692 58.0405 43.5138C57.53 43.7362 56.9307 43.8697 56.2426 43.8697H52.3583V34.8408H56.1982V34.863ZM56.065 42.224C56.3536 42.224 56.6199 42.1795 56.9085 42.0906C57.1748 42.0016 57.419 41.8459 57.6187 41.6236C57.8185 41.4012 57.9961 41.1343 58.1292 40.7785C58.2624 40.4227 58.329 40.0224 58.329 39.5109C58.329 39.0661 58.2846 38.6436 58.1958 38.2878C58.107 37.9319 57.9517 37.5984 57.7519 37.3537C57.5521 37.1091 57.2858 36.8867 56.9529 36.7533C56.6199 36.6198 56.2204 36.5531 55.7321 36.5531H54.3116V42.2462H56.065V42.224Z" fill="black"/>
<path d="M68.3171 36.5309H63.5672V38.4657H67.9398V40.0001H63.5672V42.2018H68.4281V43.8697H61.5918V34.8408H68.3171V36.5309Z" fill="black"/>
<path d="M75.1091 34.8632L78.4828 43.8921H76.4186L75.7306 41.8906H72.3568L71.6465 43.8921H69.6489L73.0449 34.8632H75.1091ZM75.2201 40.4006L74.0881 37.087H74.0659L72.8895 40.4006H75.2201Z" fill="black"/>
<path d="M81.7011 34.8632V42.2242H86.0959V43.8921H79.7257V34.8632H81.7011Z" fill="black"/>
</g>
</g>
</svg>
