<svg width="128" height="80" viewBox="0 0 128 80" fill="none" xmlns="http://www.w3.org/2000/svg">
<g id="payment methods / payment method-xrp / black">
<g id="logo">
<path d="M38.2452 23.5212H43.8782L32.1542 35.3726C27.9094 39.6647 21.0346 39.6647 16.7898 35.3726L5.07058 23.5212H10.7036L19.6087 32.5255C22.2528 35.2121 26.5779 35.2452 29.2646 32.601C29.2882 32.5774 29.3165 32.5491 29.3401 32.5255L38.2452 23.5212ZM10.6327 56.4786H4.99976L16.7946 44.5516C21.0394 40.2596 27.9142 40.2596 32.159 44.5516L43.9491 56.4786H38.3161L29.3401 47.4035C26.696 44.7169 22.3709 44.6838 19.6842 47.328C19.6606 47.3516 19.6323 47.3799 19.6087 47.4035L10.6327 56.4786Z" fill="#23292F"/>
<path d="M112.503 23.5212C113.944 23.5495 115.294 23.8328 116.55 24.3711C117.829 24.8763 118.953 25.5799 119.912 26.477C120.88 27.3788 121.635 28.4412 122.178 29.6594C122.726 30.8587 123 32.1288 123 33.4698C123 34.8391 122.712 36.1423 122.131 37.3699C121.588 38.5645 120.814 39.6222 119.822 40.5476C118.859 41.4448 117.716 42.1625 116.413 42.696H116.408C115.119 43.206 113.736 43.4609 112.263 43.4609H99.9673V56.3653H95.6422V23.5212H112.503ZM112.263 39.4805C113.131 39.4805 113.953 39.3247 114.732 39.0131C115.521 38.7015 116.205 38.2718 116.791 37.7241C117.376 37.1811 117.844 36.5342 118.174 35.8071C118.509 35.0846 118.675 34.3056 118.675 33.4698C118.675 32.6624 118.509 31.8975 118.174 31.1751C117.844 30.4526 117.371 29.8011 116.791 29.2581C116.205 28.7103 115.521 28.2854 114.732 27.969C113.953 27.6574 113.131 27.5016 112.263 27.5016H99.9673V39.4805H112.263Z" fill="#23292F"/>
<path d="M64.2192 43.5317C66.3864 43.5317 68.4404 44.4478 69.8002 46.0248L78.7337 56.3701H84.2959L72.0761 42.0303C70.7162 40.4343 68.6529 39.5041 66.4667 39.5041H58.0007V27.5535H70.296C71.1648 27.5535 71.9864 27.7093 72.7655 28.021C73.554 28.3373 74.2386 28.767 74.8241 29.31L74.8336 29.3194C75.4143 29.8341 75.8723 30.4526 76.2076 31.1845C76.5428 31.9069 76.7081 32.686 76.7081 33.5265C76.7081 34.3622 76.5381 35.1413 76.2076 35.8637C76.0045 36.2839 75.759 36.6806 75.4663 37.0441L78.2804 40.1841C78.3135 40.1463 78.3512 40.1085 78.3843 40.0707C79.2153 39.1736 79.8575 38.1773 80.306 37.0725C80.7876 35.9581 81.0284 34.773 81.0284 33.5217C81.0284 32.1808 80.7546 30.9059 80.2069 29.7066C79.6639 28.4837 78.9084 27.4213 77.9404 26.5195C76.9772 25.6223 75.8582 24.9094 74.5833 24.3711C73.3226 23.8328 71.9722 23.5495 70.5274 23.5212H55.8287C55.2338 23.5212 54.7144 23.7431 54.2895 24.1445C53.8787 24.5269 53.6662 24.9991 53.6662 25.5374V56.3653H57.9913V43.5317H64.2192Z" fill="#23292F"/>
</g>
</g>
</svg>
