<svg width="120" height="152" viewBox="0 0 120 152" fill="none" xmlns="http://www.w3.org/2000/svg">
<g id="illustration / deriv / light / ease-of-access">
<g id="Ease of Acess">
<g id="Layer 2">
<g id="Group">
<g id="Group_2">
<g id="Group_3">
<path id="Vector" d="M101.242 28.5477L87.8028 132.989L87.7324 133.539L87.436 135.838L87.2578 137.221L87.2309 137.437C87.141 138.129 86.9584 138.783 86.6933 139.389C86.5646 139.689 86.4149 139.976 86.2472 140.252C85.4222 141.608 84.1675 142.649 82.7031 143.219H82.7001C81.426 143.719 79.9931 143.858 78.5482 143.541L34.3656 133.841C29.8813 132.856 26.8808 128.624 27.4378 124.072L40.8158 14.994C41.1991 11.8561 43.4884 9.45552 46.3407 8.73909L46.7135 8.65534C47.6867 8.4609 48.7213 8.46239 49.7589 8.69721L52.2264 9.24912L54.8077 9.82794L57.5327 10.4382L59.0764 10.7837L61.9511 11.4283L68.0345 12.7924L94.3234 18.6838C98.8331 19.6964 101.831 23.9695 101.242 28.5477Z" fill="white"/>
<path id="Vector_2" d="M80.104 144.009C79.5635 144.009 79.0215 143.95 78.4839 143.832L34.3013 134.133C29.6403 133.108 26.5619 128.766 27.1399 124.034L40.5179 14.9565C40.9057 11.7827 43.1621 9.2281 46.2674 8.44736L46.6477 8.36211C47.7048 8.15122 48.7708 8.16618 49.8249 8.40399L68.1004 12.4991L94.3893 18.3906C99.0773 19.4435 102.151 23.8258 101.54 28.585L88.1008 133.026L87.5289 137.473C87.4361 138.185 87.2474 138.868 86.9689 139.507C86.8387 139.809 86.6829 140.113 86.5048 140.406C85.6558 141.801 84.3487 142.897 82.8215 143.493C82.8185 143.494 82.814 143.496 82.811 143.497C81.9441 143.837 81.0278 144.007 80.1055 144.007L80.104 144.009ZM48.1345 8.81231C47.6778 8.81231 47.2241 8.85718 46.772 8.94692L46.4066 9.02918C43.5514 9.7471 41.4702 12.1013 41.1138 15.0283L27.7358 124.106C27.1938 128.53 30.073 132.589 34.43 133.547L78.6127 143.246C79.9483 143.539 81.3213 143.434 82.5834 142.942C82.5879 142.941 82.5909 142.939 82.5939 142.938C84.0028 142.389 85.2081 141.379 85.9912 140.095C86.1544 139.825 86.2981 139.549 86.4179 139.269C86.6755 138.68 86.8491 138.05 86.9345 137.396L87.1396 135.798L87.5064 132.948L100.946 28.5073C101.518 24.0562 98.6431 19.958 94.2591 18.9739L52.1606 9.5407L49.6931 8.98879C49.1751 8.87213 48.654 8.81231 48.1345 8.81231Z" fill="black"/>
</g>
<g id="Group_4">
<path id="Vector_3" d="M77.5017 27.8101L63.7029 24.8128C62.2176 24.4897 61.2115 23.1033 61.3687 21.5926L61.3762 21.5193C61.5603 19.7455 63.2507 18.5295 64.9936 18.9169L78.7848 21.9875C80.3001 22.3255 81.3032 23.7658 81.0921 25.3034C80.8555 27.0249 79.2011 28.1796 77.5017 27.8101Z" fill="#EBECEE"/>
<path id="Vector_4" d="M78.1319 28.1765C77.8999 28.1765 77.6678 28.1526 77.4372 28.1018L63.6385 25.1044C62.002 24.7485 60.897 23.2259 61.0707 21.5612L61.0782 21.4879C61.1755 20.5576 61.6651 19.7111 62.4257 19.1636C63.1848 18.6177 64.1445 18.4203 65.0579 18.6237L78.8491 21.6943C80.5036 22.0622 81.6191 23.6656 81.3885 25.3422C81.2642 26.2456 80.7641 27.0623 80.017 27.5843C79.4615 27.9716 78.8012 28.175 78.1334 28.175L78.1319 28.1765ZM64.3452 19.1457C63.7867 19.1457 63.2357 19.3192 62.776 19.6512C62.1547 20.0984 61.7534 20.7909 61.6741 21.5507L61.6666 21.624C61.5258 22.9851 62.4287 24.231 63.7672 24.5211L77.566 27.5184C78.3056 27.6785 79.0543 27.5289 79.6741 27.0967C80.294 26.6629 80.6923 26.0123 80.7956 25.2645C80.9842 23.8929 80.0724 22.5827 78.7204 22.2821L64.9291 19.2115C64.736 19.1681 64.5413 19.1472 64.3467 19.1472L64.3452 19.1457Z" fill="black"/>
</g>
<g id="Group_5">
<path id="Vector_5" d="M114.625 25.5458L101.185 129.987L100.818 132.836L100.64 134.22L100.613 134.435C100.48 135.468 100.136 136.418 99.6295 137.25C98.8046 138.606 97.5499 139.647 96.0855 140.217H96.0825C95.566 140.422 95.021 140.564 94.461 140.64H94.452L82.703 143.219C84.1673 142.649 85.422 141.608 86.247 140.252C86.4147 139.976 86.5645 139.689 86.6932 139.389C86.9582 138.783 87.1409 138.129 87.2307 137.437L87.2577 137.221L87.4359 135.838L87.7323 133.539L87.8027 132.989L101.242 28.5476C101.831 23.9693 98.833 19.6962 94.3233 18.6837L68.0344 12.7922L61.951 11.4282L59.0763 10.7835L57.5326 10.438L54.8076 9.82781L52.2263 9.24899L49.7588 8.69708C48.7212 8.46227 47.6866 8.46077 46.7134 8.65521L59.7231 5.73716L59.9716 5.67883L60.0001 5.67284C61.0017 5.45896 62.0693 5.45298 63.1413 5.69528L65.6088 6.24718L70.9151 7.43624L72.4588 7.78174L81.4169 9.79042L107.706 15.6819C112.216 16.6944 115.213 20.9675 114.625 25.5458Z" fill="#EBECEE"/>
<path id="Vector_6" d="M82.7031 143.518C82.5744 143.518 82.4561 143.434 82.4172 143.306C82.3722 143.156 82.4486 142.997 82.5953 142.941C84.0043 142.392 85.2096 141.382 85.9926 140.097C86.1558 139.828 86.2996 139.551 86.4193 139.272C86.6769 138.682 86.8506 138.053 86.9359 137.399L87.141 135.8L87.5078 132.951L100.947 28.5101C101.519 24.059 98.6445 19.9608 94.2605 18.9767L52.1605 9.54053L49.693 8.98863C48.7213 8.76876 47.7391 8.7553 46.7719 8.94824C46.6117 8.97965 46.4545 8.87795 46.42 8.71642C46.3856 8.55638 46.4874 8.39784 46.6476 8.36194L59.6573 5.44389L59.9388 5.37809C61.0183 5.14775 62.1188 5.15523 63.2073 5.40202L81.4829 9.49715L107.772 15.3886C112.46 16.4415 115.534 20.8238 114.923 25.5831L100.938 134.257L100.911 134.471C100.775 135.522 100.431 136.509 99.8857 137.404C99.0368 138.799 97.7296 139.895 96.2024 140.491C96.1994 140.491 96.1965 140.494 96.1935 140.495C95.6559 140.708 95.0885 140.856 94.509 140.935L82.769 143.51C82.7481 143.515 82.7256 143.518 82.7046 143.518H82.7031ZM49.4939 8.33652C49.6047 8.35596 49.714 8.37839 49.8248 8.40382L68.1004 12.499L94.3893 18.3904C99.0772 19.4433 102.151 23.8257 101.54 28.5849L88.1008 133.026L87.5288 137.472C87.436 138.184 87.2473 138.868 86.9688 139.507C86.8386 139.809 86.6829 140.112 86.5047 140.405C86.0121 141.215 85.3653 141.924 84.6106 142.493L94.3908 140.349C94.3908 140.349 94.4012 140.347 94.4072 140.346C94.4102 140.346 94.4207 140.343 94.4237 140.343C94.9552 140.271 95.4748 140.135 95.9689 139.942C95.9734 139.94 95.9763 139.939 95.9793 139.937C97.3883 139.388 98.5936 138.379 99.3766 137.094C99.8782 136.271 100.194 135.364 100.32 134.396L100.525 132.797L114.331 25.5068C114.903 21.0557 112.028 16.9575 107.645 15.9734L81.3556 10.082L63.08 5.98682C62.0754 5.75948 61.0617 5.752 60.0676 5.96439L59.7965 6.02721L49.4999 8.33652H49.4939Z" fill="black"/>
</g>
</g>
<path id="Vector_7" d="M39.2408 88.7691C39.1749 88.7691 39.1105 88.7482 39.0551 88.7048C38.9248 88.6016 38.9039 88.4132 39.0072 88.2845L50.8221 73.4221C50.9254 73.292 51.1125 73.271 51.2428 73.3742L68.048 86.6976L89.2118 60.0747C89.3151 59.9446 89.5023 59.9237 89.6326 60.0269C89.7628 60.1301 89.7838 60.3185 89.6805 60.4472L68.3295 87.3034C68.2262 87.432 68.0391 87.4544 67.9088 87.3512L51.1036 74.0278L39.4743 88.6555C39.4144 88.7303 39.3276 88.7691 39.2393 88.7691H39.2408Z" fill="black"/>
<g id="Group_6">
<path id="Vector_8" d="M70.8269 137.166C70.8059 137.166 70.7835 137.164 70.7625 137.158L42.4643 130.947C42.3026 130.911 42.2008 130.752 42.2367 130.591C42.2726 130.429 42.4314 130.326 42.5931 130.364L70.8913 136.575C71.053 136.611 71.1548 136.77 71.1189 136.931C71.0874 137.07 70.9646 137.166 70.8269 137.166Z" fill="black"/>
</g>
<g id="Group_7">
<g id="Group_8">
<g id="Group_9">
<g id="Group_10">
<path id="Vector_9" d="M45.3434 139.801C43.9269 141.237 42.4072 142.438 40.8126 143.407L39.2315 143.229C37.2252 142.844 35.2503 142.163 33.3608 141.189C30.3812 139.659 27.6098 137.405 25.2411 134.451C24.9926 134.137 24.744 133.816 24.5015 133.485C23.0731 131.539 21.9008 129.436 20.9829 127.236C19.1158 122.767 18.2953 117.897 18.4915 113.114C18.7984 105.73 21.5369 98.5613 26.6111 93.4147C27.0648 92.9541 27.5275 92.5188 28.0036 92.109C29.0262 91.2206 30.0968 90.4429 31.1987 89.7773C31.2092 89.7683 31.2197 89.7623 31.2317 89.7563C31.5341 89.7922 31.8366 89.8341 32.1375 89.885H32.1495C37.8571 90.8168 43.3505 94.1387 47.453 99.7295C56.2644 111.741 55.3196 129.68 45.3389 139.8L45.3434 139.801Z" fill="#FF7E88"/>
<path id="Vector_10" d="M40.8127 143.706C40.8022 143.706 40.7902 143.707 40.7797 143.705L39.1986 143.527C39.1911 143.527 39.1837 143.526 39.1762 143.524C37.1249 143.129 35.1216 142.434 33.2246 141.457C30.1207 139.863 27.3568 137.568 25.0091 134.64C24.7336 134.293 24.4895 133.974 24.262 133.663C22.8471 131.735 21.6507 129.613 20.709 127.353C18.8628 122.935 17.9944 118.011 18.1951 113.113C18.1951 113.11 18.1951 113.105 18.1951 113.102C18.5185 105.31 21.4336 98.2442 26.4015 93.2068C26.8642 92.7371 27.3388 92.2929 27.812 91.8846C28.8271 91.0022 29.9111 90.211 31.0341 89.5319C31.061 89.5125 31.085 89.499 31.0999 89.4915C31.1524 89.4646 31.2122 89.4541 31.2721 89.4601C31.5791 89.496 31.889 89.5409 32.1929 89.5917C38.2015 90.5714 43.7039 94.1087 47.7001 99.5544C56.5818 111.66 55.6206 129.809 45.5575 140.011C44.1501 141.438 42.6064 142.667 40.9699 143.663C40.9235 143.692 40.8681 143.706 40.8142 143.706H40.8127ZM39.2765 142.935L40.7438 143.099C42.3054 142.139 43.7802 140.959 45.1293 139.592C54.9947 129.59 55.9305 111.789 47.215 99.9089C43.3116 94.5903 37.9454 91.1368 32.1046 90.184C31.8321 90.1392 31.5656 90.1003 31.3021 90.0674C30.2226 90.7225 29.1805 91.4853 28.2013 92.3363C27.7386 92.7341 27.2759 93.1694 26.8253 93.6271C21.9637 98.5568 19.1099 105.479 18.791 113.119C18.791 113.122 18.791 113.126 18.791 113.129C18.5918 117.944 19.4453 122.782 21.2585 127.124C22.1823 129.339 23.3546 131.421 24.7426 133.31C24.9657 133.614 25.2052 133.926 25.4747 134.267C27.7685 137.129 30.4681 139.369 33.4971 140.925C35.3402 141.874 37.2851 142.55 39.2765 142.935Z" fill="black"/>
</g>
<g id="Group_11">
<path id="Vector_11" d="M45.3256 86.9997L43.3882 86.7754C44.0365 86.8188 44.6818 86.8921 45.3256 86.9997Z" fill="#FF7E88"/>
<path id="Vector_12" d="M45.3256 87.2989C45.3136 87.2989 45.3031 87.2989 45.2911 87.2974L43.3537 87.0731C43.192 87.0551 43.0752 86.9101 43.0902 86.7485C43.1051 86.587 43.2459 86.4644 43.4076 86.4778C44.0724 86.5212 44.7342 86.599 45.3735 86.7066C45.5337 86.7336 45.643 86.8831 45.6205 87.0432C45.5996 87.1927 45.4708 87.3004 45.3241 87.3004L45.3256 87.2989Z" fill="black"/>
</g>
</g>
<g id="Group_12">
<g id="Group_13">
<path id="Vector_13" d="M45.3434 139.801C43.9269 141.237 42.4072 142.438 40.8126 143.407C38.8752 144.585 36.8344 145.424 34.7442 145.923L34.069 146.074C32.4759 146.4 30.8589 146.533 29.2433 146.477L26.0497 146.118C24.0448 145.733 22.0699 145.051 20.1789 144.079C17.1994 142.549 14.4279 140.295 12.0608 137.341C11.8092 137.025 11.5607 136.704 11.3196 136.373C2.50824 124.363 3.45301 106.424 13.4308 96.3029C13.8844 95.8437 14.3486 95.4085 14.8232 94.9987C17.4943 92.6759 20.4754 91.1159 23.5702 90.2978C24.5749 90.0316 25.5915 89.8431 26.6126 89.7339C27.8015 89.6038 28.9963 89.5814 30.1881 89.6621H30.2061L31.2017 89.7788L32.142 89.8865H32.154C37.8615 90.8183 43.355 94.1402 47.4575 99.731C56.2689 111.743 55.3241 129.682 45.3434 139.801Z" fill="#FF7E88"/>
<path id="Vector_14" d="M29.9665 146.789C29.7225 146.789 29.4769 146.785 29.2329 146.776C29.2254 146.776 29.2179 146.776 29.2104 146.774L26.0168 146.415C26.0093 146.415 26.0018 146.414 25.9943 146.412C23.9505 146.02 21.9472 145.325 20.0427 144.347C16.9374 142.751 14.1734 140.458 11.8287 137.529C11.5532 137.184 11.3077 136.864 11.0801 136.551C2.19984 124.447 3.15958 106.298 13.2197 96.0949C13.6868 95.6223 14.1614 95.1781 14.6301 94.7743C17.2832 92.4664 20.2673 90.8646 23.4969 90.0106C24.506 89.7428 25.5436 89.5499 26.5842 89.4377C27.782 89.3076 29.0038 89.2822 30.2121 89.3644H30.2345L32.1795 89.5903C32.184 89.5903 32.2019 89.5933 32.2064 89.5933C38.203 90.5714 43.7069 94.1087 47.7031 99.5544C56.5848 111.66 55.6236 129.809 45.5605 140.011C44.1531 141.438 42.6094 142.667 40.9729 143.663C39.0309 144.843 36.9602 145.702 34.8177 146.215L34.1379 146.367C32.7679 146.649 31.3695 146.789 29.9695 146.789H29.9665ZM29.2643 146.179C30.8589 146.234 32.455 146.101 34.0076 145.783L34.6769 145.633C36.7551 145.135 38.7674 144.3 40.6555 143.153C42.2501 142.182 43.7548 140.984 45.1278 139.592C54.9932 129.59 55.929 111.789 47.2135 99.9089C43.3101 94.5903 37.9439 91.1368 32.1031 90.1841L30.1612 89.9612C28.9918 89.8819 27.806 89.9059 26.6411 90.033C25.632 90.1407 24.6228 90.3291 23.6436 90.5894C20.5023 91.4195 17.6007 92.9795 15.0149 95.226C14.5567 95.6208 14.0941 96.0546 13.6389 96.5152C3.77645 106.518 2.84216 124.321 11.5562 136.198C11.7793 136.503 12.0204 136.817 12.2899 137.156C14.5822 140.017 17.2802 142.257 20.3107 143.813C22.1613 144.764 24.1063 145.439 26.0901 145.821L29.2613 146.179H29.2643Z" fill="black"/>
</g>
<g id="Group_14">
<path id="Vector_15" d="M32.142 89.8879L31.2017 89.7802L30.2061 89.665C30.5489 89.6875 30.8933 89.7204 31.2347 89.7593C31.5371 89.7952 31.8396 89.837 32.1405 89.8879H32.142Z" fill="#FF7E88"/>
<path id="Vector_16" d="M32.1419 90.187C32.13 90.187 32.1195 90.187 32.1075 90.1855L30.1715 89.9626C30.0098 89.9447 29.8931 89.7996 29.908 89.6381C29.923 89.4765 30.0637 89.3554 30.2254 89.3659C30.5533 89.3868 30.9052 89.4197 31.269 89.4616C31.576 89.4975 31.8859 89.5423 32.1899 89.5932C32.3501 89.6201 32.4594 89.7697 32.4369 89.9297C32.4159 90.0793 32.2887 90.187 32.1404 90.187H32.1419Z" fill="black"/>
</g>
<g id="Group_15">
<path id="Vector_17" d="M29.2432 146.477C28.1742 146.441 27.1081 146.321 26.0496 146.118L29.2432 146.477Z" fill="#FF7E88"/>
<path id="Vector_18" d="M29.2432 146.776C29.2432 146.776 29.2372 146.776 29.2328 146.776C28.1532 146.74 27.0632 146.617 25.9927 146.411C25.8355 146.381 25.7292 146.231 25.7531 146.073C25.7771 145.914 25.9223 145.802 26.0825 145.82L29.2762 146.179C29.4364 146.197 29.5532 146.338 29.5412 146.498C29.5292 146.655 29.399 146.774 29.2432 146.774V146.776Z" fill="black"/>
</g>
</g>
<g id="Group_16">
<path id="Vector_19" d="M45.4437 116.427L26.3896 127.833L22.8605 129.946L20.3451 126.321L13.8949 117.022C12.8259 115.48 13.1972 113.482 14.7454 112.646C16.1917 111.865 18.1457 112.383 19.1533 113.836L24.3877 121.339C24.3877 121.339 24.3937 121.343 24.3967 121.34L41.6586 111.035C43.1634 110.136 45.273 110.679 46.2822 112.257C47.2254 113.732 46.8646 115.58 45.4437 116.428V116.427Z" fill="#FF444F"/>
<path id="Vector_20" d="M22.8604 130.244C22.7646 130.244 22.6718 130.199 22.6134 130.115L13.6478 117.191C13.0579 116.34 12.8482 115.313 13.0743 114.371C13.281 113.509 13.823 112.803 14.6015 112.381C16.1946 111.52 18.3028 112.084 19.3988 113.665L24.476 120.942L41.5028 110.776C43.1453 109.795 45.4481 110.4 46.5321 112.094C47.0547 112.912 47.2268 113.853 47.0157 114.744C46.8226 115.563 46.318 116.251 45.5948 116.683L23.0116 130.201C22.9637 130.229 22.9098 130.243 22.8574 130.243L22.8604 130.244ZM16.2036 112.586C15.7454 112.586 15.2933 112.689 14.8875 112.909C14.2602 113.249 13.823 113.817 13.6583 114.511C13.4726 115.289 13.6493 116.141 14.1419 116.853L22.9473 129.547L45.2909 116.173C45.8733 115.824 46.2806 115.269 46.4363 114.61C46.61 113.877 46.4647 113.099 46.0305 112.419C45.1172 110.989 43.1857 110.474 41.8127 111.292L24.5508 121.598C24.4161 121.678 24.2334 121.639 24.1436 121.511L18.9092 114.007C18.2803 113.101 17.2262 112.586 16.2051 112.586H16.2036Z" fill="black"/>
</g>
</g>
<g id="Group_17">
<path id="Vector_21" d="M58.5269 136.913C54.923 140.569 50.6348 142.703 46.2134 143.37L34.7444 145.923C36.8346 145.422 38.8768 144.585 40.8128 143.407C42.4059 142.437 43.9271 141.236 45.3435 139.801C55.3242 129.683 56.269 111.744 47.4576 99.7309C43.3551 94.1401 37.8617 90.8197 32.1541 89.8879H32.1421C31.8412 89.8356 31.5387 89.7937 31.2363 89.7578C30.8949 89.7174 30.5506 89.686 30.2077 89.6636H30.1897C28.9979 89.5813 27.8031 89.6052 26.6143 89.7354L36.7537 87.4111C38.9262 86.8353 41.1556 86.6259 43.3731 86.7739H43.3896L45.327 86.9998H45.339C51.0465 87.9316 56.54 91.252 60.641 96.8443C69.4539 108.854 68.5091 126.794 58.5284 136.915L58.5269 136.913Z" fill="#FF444F"/>
<path id="Vector_22" d="M34.7442 146.224C34.608 146.224 34.4852 146.13 34.4523 145.992C34.4149 145.832 34.5137 145.672 34.6739 145.633C36.7566 145.135 38.7689 144.3 40.6569 143.152C42.2515 142.181 43.7563 140.983 45.1292 139.59C54.9947 129.589 55.9305 111.787 47.2149 99.9074C43.3116 94.5888 37.9454 91.1353 32.1046 90.1826C31.7961 90.1317 31.4967 90.0898 31.1987 90.0539C30.8454 90.0121 30.504 89.9821 30.1851 89.9612H30.1626C28.9918 89.8804 27.8074 89.9044 26.6426 90.0315C26.4854 90.0494 26.3416 89.9403 26.3147 89.7832C26.2877 89.6277 26.388 89.4781 26.5423 89.4422L36.6817 87.1179C38.8632 86.5391 41.1226 86.3222 43.3879 86.4748H43.4104L45.3434 86.7007C45.3568 86.7007 45.3718 86.7021 45.3823 86.7036C51.3818 87.6833 56.8842 91.2221 60.8774 96.6663C69.7592 108.771 68.7994 126.919 58.7364 137.123C55.2073 140.7 50.8952 142.962 46.2642 143.665L34.8056 146.215C34.7832 146.219 34.7622 146.222 34.7398 146.222L34.7442 146.224ZM29.694 89.336C29.8662 89.3435 30.0369 89.3525 30.209 89.3644H30.2315C30.5549 89.3869 30.9068 89.4198 31.2706 89.4617C31.5775 89.4975 31.8875 89.5424 32.1914 89.5933C38.1999 90.5729 43.7024 94.1102 47.6985 99.5559C56.5803 111.662 55.6191 129.81 45.556 140.012C44.1485 141.439 42.6049 142.669 40.9684 143.665C40.3979 144.012 39.8155 144.33 39.2241 144.622L46.1474 143.081C46.1474 143.081 46.1609 143.078 46.1683 143.077C50.6736 142.396 54.8749 140.193 58.3141 136.705C68.1796 126.702 69.1139 108.901 60.3983 97.0223C56.5024 91.7111 51.1452 88.2591 45.3089 87.3004C45.3014 87.3004 45.2954 87.3004 45.291 87.3004L43.346 87.0746C41.1525 86.928 38.9575 87.1389 36.8299 87.7028L29.694 89.339V89.336Z" fill="black"/>
</g>
</g>
</g>
</g>
</g>
</g>
</svg>
