<svg width="120" height="152" viewBox="0 0 120 152" fill="none" xmlns="http://www.w3.org/2000/svg">
<g id="illustration / deriv / light / ic-success-passkey">
<path id="Vector" d="M114.62 85.7312C114.609 87.4459 114.546 90.9261 112.475 94.2875C112.079 94.9286 111.63 95.532 111.135 96.0909L100.356 106.512C101.434 105.454 102.326 104.203 102.99 102.815C104.664 99.2924 104.309 95.9975 104.063 93.727C103.373 87.3367 100.1 83.0427 98.6445 81.187C97.1955 79.3345 93.345 74.5513 86.7105 72.6719C84.393 72.0148 80.541 70.9254 76.341 72.77C75.66 73.0677 74.091 73.8309 72.519 75.3176L83.838 64.0601C85.2645 63.1624 88.128 61.6439 91.944 61.5426C95.124 61.4587 97.4655 62.3992 99.0435 63.0531C100.142 63.5075 105.564 65.8588 109.85 72.0575C111.104 73.8704 114.659 79.0099 114.62 85.7312Z" fill="#FF444F"/>
<path id="Vector_2" d="M100.356 106.81C100.299 106.81 100.244 106.792 100.197 106.759C100.151 106.725 100.114 106.678 100.094 106.622C100.073 106.567 100.068 106.506 100.08 106.448C100.093 106.389 100.121 106.336 100.163 106.295C101.217 105.261 102.089 104.037 102.738 102.681C104.373 99.2401 104.033 96.0734 103.784 93.7618C103.086 87.3208 99.702 83.0014 98.427 81.3753C97.1625 79.7619 93.3165 74.8488 86.637 72.9583C84.3645 72.3155 80.5605 71.2373 76.4475 73.0438C75.0777 73.6495 73.8133 74.4923 72.7065 75.5376C72.6793 75.5641 72.6473 75.5847 72.6125 75.5982C72.5777 75.6116 72.5407 75.6177 72.5036 75.6161C72.4666 75.6145 72.4302 75.6052 72.3965 75.5887C72.3629 75.5723 72.3327 75.549 72.3075 75.5202C72.2824 75.4914 72.2629 75.4576 72.2502 75.4209C72.2374 75.3841 72.2316 75.3451 72.2332 75.306C72.2347 75.2669 72.2435 75.2285 72.2591 75.193C72.2747 75.1574 72.2968 75.1255 72.324 75.099L83.643 63.8415C83.658 63.8273 83.673 63.8146 83.6925 63.8035C86.232 62.2043 89.082 61.3193 91.935 61.2448C95.2395 61.1593 97.6845 62.1695 99.1455 62.7759C101.099 63.5834 106.071 66.0898 110.075 71.8801C111.279 73.6218 114.939 78.9148 114.899 85.7311C114.89 87.2907 114.869 90.9434 112.707 94.4473C112.302 95.1022 111.845 95.7189 111.339 96.2903L111.324 96.3062L101.445 105.857L100.545 106.729C100.493 106.78 100.425 106.808 100.355 106.808L100.356 106.81ZM81.2655 71.451C83.4855 71.451 85.4055 71.9941 86.7825 72.3852C93.6375 74.3263 97.5675 79.3471 98.8605 80.9985C100.164 82.661 103.626 87.0785 104.342 93.6937C104.585 95.9483 104.951 99.3493 103.241 102.948C103.121 103.2 102.993 103.447 102.858 103.689L110.936 95.8803C111.416 95.334 111.854 94.745 112.236 94.1243C114.306 90.7677 114.327 87.2368 114.336 85.7295C114.377 79.108 110.922 74.1142 109.622 72.2332C105.704 66.568 100.847 64.1202 98.94 63.3301C97.518 62.7411 95.139 61.7547 91.95 61.8402C89.202 61.913 86.457 62.7617 84.006 64.2991L75.318 72.9409C77.1592 71.9511 79.1994 71.4402 81.2655 71.451Z" fill="black"/>
<path id="Vector_3" d="M105.63 101.413L105.612 111.389L95.2875 121.584C95.2875 117.642 95.283 113.695 95.2815 109.749C96.1125 109.435 98.3235 108.52 100.356 106.513L105.63 101.413Z" fill="#FF444F"/>
<path id="Vector_4" d="M95.2875 121.882C95.2127 121.882 95.141 121.851 95.0881 121.795C95.0352 121.739 95.0055 121.663 95.0055 121.584L94.9995 109.749C94.9995 109.622 95.0745 109.511 95.187 109.47C97.0321 108.777 98.7255 107.697 100.166 106.296L105.441 101.194C105.481 101.155 105.532 101.129 105.586 101.12C105.64 101.111 105.696 101.119 105.746 101.143C105.848 101.191 105.912 101.297 105.912 101.414L105.896 111.391C105.895 111.431 105.887 111.472 105.872 111.509C105.856 111.546 105.834 111.58 105.806 111.608L95.481 121.803C95.4286 121.854 95.3586 121.882 95.2875 121.882ZM95.5635 109.958L95.568 120.899L105.332 111.259L105.347 102.089L100.547 106.731C99.1014 108.14 97.4084 109.237 95.5635 109.958Z" fill="black"/>
<path id="Vector_5" d="M105.6 120.65C102.151 124.069 98.7059 127.49 95.2574 130.91L90.7739 125.039L95.2874 121.584L101.605 115.346L105.6 120.65Z" fill="#FF444F"/>
<path id="Vector_6" d="M95.2575 131.208H95.238C95.1994 131.205 95.1617 131.193 95.1274 131.174C95.0931 131.155 95.0629 131.129 95.0385 131.097L90.5535 125.226C90.5297 125.194 90.5121 125.158 90.5018 125.119C90.4915 125.08 90.4887 125.04 90.4935 124.999C90.4985 124.96 90.5112 124.921 90.5308 124.887C90.5504 124.853 90.5765 124.823 90.6075 124.8L95.1075 121.356L95.4795 120.989L101.412 115.131C101.44 115.102 101.474 115.081 101.51 115.067C101.547 115.053 101.586 115.048 101.625 115.051C101.664 115.054 101.701 115.065 101.736 115.084C101.77 115.103 101.8 115.13 101.825 115.162L105.819 120.466C105.863 120.525 105.885 120.598 105.88 120.672C105.875 120.746 105.843 120.816 105.792 120.867L98.763 127.84L95.448 131.129C95.3961 131.18 95.3274 131.209 95.256 131.209L95.2575 131.208ZM91.179 125.096L95.286 130.475L98.379 127.405L105.219 120.62L101.574 115.784L95.865 121.421L95.4795 121.801C95.4717 121.81 95.4632 121.818 95.454 121.825L91.179 125.096Z" fill="black"/>
<path id="Vector_7" d="M105.592 129.928L95.241 140.212C93.756 138.252 92.2665 136.292 90.7815 134.33L95.2575 130.91L101.596 124.619L105.592 129.928Z" fill="#FF444F"/>
<path id="Vector_8" d="M95.241 140.51H95.2215C95.1828 140.507 95.1451 140.496 95.1107 140.477C95.0763 140.457 95.0461 140.431 95.022 140.399L90.561 134.515C90.5371 134.484 90.5196 134.447 90.5094 134.409C90.4993 134.37 90.4967 134.329 90.5019 134.289C90.5071 134.249 90.5199 134.211 90.5396 134.176C90.5593 134.141 90.5855 134.111 90.6165 134.088C92.1045 132.954 93.591 131.817 95.079 130.679L101.405 124.403C101.433 124.374 101.466 124.353 101.503 124.339C101.54 124.325 101.579 124.32 101.617 124.323C101.656 124.326 101.694 124.337 101.728 124.356C101.763 124.375 101.793 124.402 101.817 124.434L105.815 129.742C105.859 129.8 105.88 129.874 105.875 129.948C105.87 130.023 105.839 130.092 105.788 130.144L95.4345 140.429C95.3824 140.48 95.3137 140.508 95.2425 140.508L95.241 140.51ZM91.185 134.389L95.2695 139.777L105.21 129.9L101.565 125.058L95.4495 131.127C95.4406 131.136 95.4311 131.144 95.421 131.151L91.185 134.389Z" fill="black"/>
<path id="Vector_9" d="M90.7005 87.9795C90.684 88.3436 90.651 88.9168 90.3405 89.5454C90.2655 89.6911 89.8755 90.4479 89.0535 90.9213C87.834 91.618 86.541 91.1936 85.9335 90.9941C84.5685 90.5445 83.763 89.6293 83.3535 89.1543C82.953 88.6856 81.885 87.438 81.7755 85.6045C81.75 85.1865 81.7155 84.4613 82.068 83.6538C82.1835 83.3925 82.608 82.4584 83.598 81.9755C84.273 81.6493 84.882 81.6905 85.347 81.7285C87.138 81.8757 88.356 83.0347 88.7445 83.4131C89.0385 83.7013 89.9025 84.6006 90.39 86.0462C90.5295 86.4611 90.741 87.1134 90.7005 87.9795Z" fill="#FF444F"/>
<path id="Vector_10" d="M87.558 91.6007C86.8305 91.6007 86.202 91.3933 85.8495 91.2777C84.39 90.7979 83.55 89.8226 83.148 89.3555C82.725 88.8615 81.612 87.5584 81.495 85.6236C81.4725 85.2357 81.423 84.4282 81.813 83.5304C82.284 82.4648 82.98 81.9518 83.481 81.708C84.2385 81.3391 84.921 81.3961 85.371 81.4325C86.646 81.537 87.8445 82.1308 88.9365 83.1948C89.3775 83.6286 90.189 84.5612 90.6555 85.9466C90.786 86.3345 91.0275 87.0549 90.9825 87.9954C90.9675 88.3406 90.936 88.9834 90.588 89.6833C90.2657 90.3136 89.7797 90.8338 89.187 91.1827C88.6855 91.4646 88.1247 91.6084 87.5565 91.6007H87.558ZM84.8445 81.9993C84.5115 81.9993 84.126 82.0468 83.7165 82.2463C83.301 82.4474 82.722 82.8765 82.3245 83.779C81.9945 84.539 82.0365 85.2183 82.0575 85.584C82.1595 87.313 83.1795 88.5037 83.5635 88.9549C83.934 89.3856 84.7035 90.2786 86.0175 90.7093C86.5965 90.9008 87.8025 91.2998 88.9185 90.6602C89.6055 90.2659 89.9685 89.65 90.0915 89.4062C90.381 88.8235 90.4065 88.2852 90.4215 87.9653C90.4605 87.142 90.2505 86.5182 90.126 86.1445C89.7977 85.187 89.2589 84.3253 88.554 83.6302C87.5565 82.658 86.4705 82.1181 85.326 82.0247C85.1664 82.0095 85.0048 82.001 84.8445 81.9993Z" fill="black"/>
<path id="Vector_11" d="M35.043 35.4825C34.962 33.1708 34.71 26.0015 39.492 20.6783C44.2605 15.3694 51.033 15.2396 52.5 15.2111C66.993 14.934 82.4505 32.0483 81.135 47.4794C81.021 48.83 80.3025 57.2628 73.9845 61.8798C68.82 65.6529 62.8635 64.7235 60.3945 64.3387C47.6145 62.3485 35.532 49.4332 35.0445 35.4825H35.043Z" fill="white"/>
<path id="Vector_12" d="M64.6906 65.0275C62.8831 65.0275 61.3546 64.79 60.3526 64.6348C54.1066 63.6611 47.7466 60.0036 42.9031 54.6012C37.8886 49.0041 34.9966 42.2196 34.7611 35.4936C34.6786 33.1186 34.4251 25.8875 39.2881 20.4725C42.4156 16.9907 47.1061 15.0163 52.4941 14.915C59.4796 14.7804 67.1806 18.7086 73.1011 25.4188C75.8776 28.5665 78.1111 32.1844 79.5541 35.8767C81.1081 39.8493 81.7336 43.7617 81.4156 47.5063C81.1606 50.4877 79.9456 57.8851 74.1421 62.1236C70.9501 64.4575 67.4881 65.0275 64.6906 65.0275ZM52.8421 15.5056C52.7296 15.5056 52.6171 15.5056 52.5046 15.5087C47.2681 15.6101 42.7201 17.5164 39.6961 20.8826C34.9966 26.1155 35.2411 33.1581 35.3221 35.473C35.5516 42.0533 38.3911 48.7017 43.3126 54.1927C48.0676 59.5001 54.3091 63.0926 60.4351 64.0458C62.9221 64.4337 68.7496 65.341 73.8226 61.636C79.4266 57.5399 80.6086 50.3531 80.8546 47.4525C81.1651 43.8045 80.5516 39.9855 79.0336 36.1031C77.6131 32.4757 75.4186 28.9211 72.6886 25.8241C66.9706 19.3404 59.5786 15.504 52.8406 15.504L52.8421 15.5056Z" fill="black"/>
<path id="Vector_13" d="M91.23 40.2088C90.444 44.5076 88.4385 47.5396 87.201 49.1293L75.9315 60.1699C80.4585 55.4341 81.0315 48.6749 81.1365 47.4795C82.449 32.0467 66.9915 14.9341 52.5 15.2111C51.1275 15.2381 45.1095 15.3536 40.434 19.7189L51.732 8.36005C54.8311 6.35809 58.3546 5.20433 61.983 5.00338C67.8525 4.6978 72.1335 7.12188 74.8305 8.6403C76.0845 9.34647 80.9955 12.2281 85.2405 18.2036C86.5965 20.11 90.3705 25.5503 91.308 33.3308C91.506 34.9775 91.7655 37.2733 91.23 40.2088Z" fill="#EBECEE"/>
<path id="Vector_14" d="M75.93 60.4675C75.8922 60.4672 75.8549 60.4587 75.8204 60.4427C75.7858 60.4266 75.7547 60.4033 75.729 60.3741C75.6775 60.318 75.6492 60.2427 75.6503 60.1646C75.6514 60.0865 75.6819 60.0121 75.735 59.9577C79.749 55.7587 80.6535 49.8164 80.856 47.4572C81.1665 43.8045 80.5545 39.9855 79.035 36.1047C77.6145 32.4773 75.42 28.9227 72.69 25.8257C66.876 19.2359 59.331 15.3789 52.506 15.5087C46.479 15.6259 42.717 17.9835 40.6215 19.9421C40.5661 19.9939 40.4935 20.0204 40.4196 20.016C40.3457 20.0115 40.2765 19.9764 40.227 19.9183C40.1771 19.8613 40.1504 19.7859 40.1526 19.7083C40.1548 19.6307 40.1859 19.5572 40.239 19.5035L51.537 8.14466C51.552 8.12883 51.567 8.11775 51.585 8.10666C54.7245 6.08023 58.2931 4.91187 61.968 4.70725C67.8915 4.3985 72.297 6.87641 74.928 8.35683L74.9625 8.37583C77.2365 9.65833 81.6225 12.616 85.4655 18.0231C88.8855 22.8332 90.9465 27.9696 91.5855 33.2927C91.7745 34.8555 92.0595 37.2194 91.5045 40.2642C90.9105 43.5147 89.4975 46.645 87.417 49.3161C87.4095 49.3272 87.402 49.3367 87.3915 49.3462L76.122 60.3867C76.0704 60.4379 76.0022 60.4663 75.9315 60.4659L75.93 60.4675ZM52.8405 14.9102C59.7345 14.9102 67.281 18.8179 73.1055 25.4188C75.8805 28.5665 78.111 32.1828 79.5555 35.8752C81.1095 39.8462 81.7365 43.7602 81.4185 47.5047C81.2205 49.8243 80.5635 53.7178 78.453 57.2945L86.9985 48.9234C89.013 46.3315 90.3795 43.2994 90.9555 40.1517C91.4925 37.1988 91.2165 34.8951 91.0305 33.3687C90.4035 28.1501 88.38 23.1087 85.0185 18.3809C81.2385 13.0641 76.932 10.1587 74.7015 8.9015L74.667 8.88091C71.919 7.33558 67.767 4.99858 61.9995 5.29941C58.4285 5.49761 54.9604 6.63047 51.9075 8.59591L43.2585 17.2916C45.4875 16.0249 48.5145 14.991 52.4955 14.9134L52.8435 14.9118L52.8405 14.9102Z" fill="black"/>
<path id="Vector_15" d="M77.2215 104.647L77.214 125.167C55.4415 118.897 33.669 112.627 11.8965 106.354C11.8065 102.902 12.0765 95.4766 16.287 87.7436C21.6045 77.9807 29.847 73.8862 33.2535 72.4755C40.4655 69.4893 46.7115 69.9485 49.7835 70.2113C57.5385 70.8731 63.6285 73.8656 67.626 75.8321C68.751 76.3863 69.7785 76.9326 70.6995 77.4471C70.4971 77.7418 70.3069 78.0455 70.1295 78.3576C69.232 79.9754 68.6425 81.7626 68.394 83.619C68.2035 85.0186 68.262 86.0842 68.313 86.9883C68.4775 89.6347 69.06 92.2334 70.0365 94.677C70.3035 95.3467 71.5095 98.287 74.0895 101.43C75.0446 102.595 76.0924 103.671 77.2215 104.647Z" fill="white"/>
<path id="Vector_16" d="M77.214 125.463C77.1887 125.464 77.1635 125.461 77.139 125.454L11.82 106.642C11.7615 106.626 11.7097 106.59 11.6724 106.539C11.635 106.489 11.6142 106.427 11.613 106.363C11.493 101.732 12.162 94.7181 16.0425 87.5962C21.126 78.2609 28.9425 73.9431 33.15 72.1999C40.5735 69.1251 47.043 69.6792 49.8045 69.9167C57.609 70.5817 63.7065 73.579 67.743 75.5629C68.7847 76.0758 69.8141 76.6165 70.83 77.1842C70.8653 77.2042 70.8962 77.232 70.9205 77.2655C70.9449 77.2991 70.9622 77.3378 70.9713 77.379C70.9804 77.4202 70.981 77.463 70.9732 77.5045C70.9654 77.546 70.9493 77.5852 70.926 77.6196C70.7205 77.9205 70.536 78.2118 70.371 78.5111C69.4916 80.095 68.9143 81.8453 68.6715 83.6632C68.4825 85.0518 68.544 86.1174 68.5935 86.9724C68.7435 89.5247 69.333 92.1499 70.2945 94.5629C70.7145 95.6126 71.943 98.3629 74.301 101.238C75.2415 102.385 76.284 103.455 77.4 104.418C77.466 104.475 77.5035 104.56 77.5035 104.649L77.4945 125.169C77.4947 125.208 77.4875 125.247 77.4734 125.283C77.4593 125.319 77.4386 125.352 77.4123 125.38C77.3861 125.407 77.3549 125.429 77.3206 125.444C77.2863 125.459 77.2496 125.467 77.2125 125.466V125.463H77.214ZM12.1725 106.128L76.932 124.779L76.941 104.788C75.8381 103.825 74.813 102.767 73.8765 101.625C71.4645 98.6875 70.206 95.8691 69.777 94.7941C68.7905 92.3191 68.2015 89.688 68.034 87.0088C67.983 86.1253 67.92 85.0265 68.1165 83.5777C68.37 81.6828 68.9718 79.8584 69.888 78.2071C70.0137 77.9845 70.1462 77.7664 70.2855 77.5531C69.3701 77.0469 68.4439 76.5628 67.5075 76.1012C63.5085 74.1379 57.465 71.166 49.7625 70.5089C47.037 70.2761 40.6575 69.7299 33.357 72.7541C29.217 74.4672 21.5295 78.7153 16.5315 87.8939C12.7785 94.783 12.081 101.572 12.1725 106.128Z" fill="black"/>
<path id="Vector_17" d="M80.82 67.0621L72.519 75.3176C71.8413 75.9559 71.2312 76.6699 70.6995 77.4472C69.6875 76.8816 68.6622 76.3431 67.6245 75.8322C63.627 73.8673 57.5385 70.8732 49.7835 70.2114C46.7115 69.9501 40.4655 69.4909 33.2535 72.4755C29.3779 74.088 25.8068 76.4189 22.7085 79.3583L32.9775 68.7452C33.6375 68.0786 34.5975 67.1777 35.838 66.2277C39.459 63.4553 42.8115 62.3105 44.778 61.6566C46.5243 61.0766 48.3107 60.6409 50.121 60.3535C53.334 62.3865 56.838 63.7862 60.393 64.3404C62.601 64.6855 67.599 65.4614 72.324 62.9217C72.8745 63.1339 73.494 63.384 74.169 63.669C76.104 64.486 77.7915 65.2064 79.785 66.4098C80.0925 66.595 80.4405 66.8119 80.82 67.0621Z" fill="#EBECEE"/>
<path id="Vector_18" d="M22.7101 79.656C22.6351 79.656 22.5601 79.6243 22.5031 79.561C22.4528 79.5044 22.4255 79.4292 22.4272 79.3516C22.4289 79.274 22.4594 79.2003 22.5121 79.1461C25.9351 75.6074 29.3566 72.0686 32.7796 68.5331C33.6883 67.6168 34.6545 66.7662 35.6716 65.9871C39.4021 63.1291 42.8446 61.9876 44.6926 61.3716C46.4527 60.7879 48.2531 60.3491 50.0776 60.0591C50.142 60.049 50.2078 60.063 50.2636 60.0986C53.5066 62.1491 57.0226 63.5139 60.4336 64.0459C62.5606 64.3784 67.5451 65.1558 72.1951 62.6573C72.2295 62.6385 72.2673 62.6273 72.306 62.6246C72.3447 62.6219 72.3835 62.6276 72.4201 62.6415C73.0096 62.8711 73.6336 63.1244 74.2711 63.392C76.1236 64.1741 77.8711 64.912 79.9231 66.1517C80.2711 66.3607 80.6206 66.5824 80.9671 66.8088C81.0038 66.8328 81.0348 66.8654 81.0576 66.904C81.0804 66.9427 81.0945 66.9864 81.0987 67.0318C81.1029 67.0771 81.0972 67.1229 81.0819 67.1655C81.0666 67.2081 81.0422 67.2465 81.0106 67.2775L76.8076 71.4575L72.7096 75.533C72.0346 76.1695 71.4361 76.8709 70.9246 77.6198C70.8845 77.6776 70.8262 77.7183 70.7601 77.7346C70.6941 77.7509 70.6247 77.7416 70.5646 77.7085C69.5476 77.1416 68.5186 76.6001 67.5046 76.0998C63.5041 74.1349 57.4606 71.163 49.7581 70.5075C47.0326 70.2731 40.6531 69.7285 33.3526 72.7511C29.5089 74.351 25.9668 76.6625 22.8931 79.5768C22.842 79.6267 22.7751 79.6544 22.7056 79.6544H22.7086L22.7101 79.656ZM45.8401 69.7206C47.5156 69.7206 48.8716 69.8361 49.8061 69.9169C57.6106 70.5819 63.7081 73.5807 67.7446 75.5631C68.6971 76.0333 69.6616 76.5368 70.6171 77.0656C71.1257 76.351 71.6999 75.6913 72.3316 75.096L76.4236 71.0268L80.3611 67.1128C80.1226 66.9592 79.8826 66.812 79.6456 66.6695C77.6281 65.4503 75.8956 64.7188 74.0656 63.9461C73.4947 63.7043 72.9206 63.471 72.3436 63.2463C67.5661 65.7606 62.5186 64.9721 60.3526 64.6349C56.9011 64.0966 53.3446 62.7238 50.0626 60.6639C48.3014 60.9496 46.5634 61.3762 44.8636 61.9401C43.0441 62.5449 39.6601 63.6691 36.0031 66.4684C35.0086 67.2284 34.0561 68.066 33.1711 68.9606L26.4436 75.9114C28.5468 74.4244 30.7951 73.1802 33.1501 72.2001C38.0641 70.1671 42.5611 69.7206 45.8401 69.7206Z" fill="black"/>
<path id="Vector_19" d="M104.06 93.7271C103.37 87.3367 100.097 83.0427 98.6445 81.1871C97.194 79.3362 93.3435 74.5529 86.709 72.6719C84.39 72.0164 80.5395 70.9255 76.3395 72.7701C75.294 73.2292 72.159 74.7793 70.128 78.3592C69.2307 79.9766 68.6412 81.7633 68.3925 83.6191C68.202 85.0187 68.2605 86.0843 68.313 86.9884C68.4768 89.6349 69.0594 92.2337 70.0365 94.6771C70.3035 95.3468 71.5095 98.2871 74.0895 101.43C75.0447 102.594 76.0925 103.67 77.2215 104.646L77.2095 135.138L86.2275 147.024C89.232 144.753 92.238 142.484 95.2425 140.212L90.783 134.33L95.259 130.907L90.774 125.036L95.289 121.581L95.2815 109.747C96.51 109.282 100.763 107.499 102.992 102.812C104.666 99.2909 104.31 95.996 104.063 93.7239L104.06 93.7271ZM90.699 87.9796C90.6825 88.3453 90.6495 88.9169 90.336 89.5471C90.2625 89.6912 89.8725 90.4496 89.0505 90.9214C87.8325 91.6197 86.5395 91.1953 85.9305 90.9942C84.5655 90.5462 83.76 89.6294 83.3505 89.1544C82.95 88.6857 81.8805 87.4381 81.7725 85.6046C81.747 85.1882 81.7125 84.463 82.065 83.6539C82.179 83.3927 82.605 82.4585 83.595 81.9772C84.27 81.6494 84.879 81.6922 85.3425 81.7286C87.1335 81.8758 88.353 83.0348 88.74 83.4132C89.034 83.7014 89.898 84.6023 90.3855 86.0463C90.525 86.4627 90.7395 87.1135 90.699 87.9796Z" fill="#FF7E88"/>
<path id="Vector_20" d="M86.2245 147.323C86.1822 147.323 86.1404 147.313 86.1022 147.294C86.0641 147.275 86.0305 147.247 86.004 147.212L76.986 135.326C76.9467 135.273 76.9256 135.207 76.926 135.139L76.938 104.787C75.8358 103.824 74.8108 102.767 73.8735 101.626C71.4585 98.6845 70.2015 95.8677 69.774 94.7942C68.7871 92.3189 68.198 89.6872 68.031 87.0074C67.9785 86.1287 67.9155 85.0362 68.112 83.5779C68.365 81.6824 68.9668 79.8573 69.8835 78.2057C71.808 74.8173 74.685 73.1738 76.2285 72.4962C80.5185 70.612 84.438 71.7203 86.781 72.3853C93.6375 74.3265 97.569 79.3472 98.8605 80.9971C100.163 82.6627 103.626 87.085 104.34 93.6938C104.583 95.9453 104.951 99.3463 103.239 102.948C101.229 107.176 97.644 109.139 95.562 109.956L95.568 121.583C95.568 121.678 95.5245 121.768 95.451 121.823L91.1775 125.093L95.475 130.722C95.4992 130.753 95.517 130.789 95.5274 130.828C95.5378 130.867 95.5406 130.908 95.5355 130.948C95.5305 130.988 95.5177 131.026 95.498 131.061C95.4783 131.096 95.4521 131.126 95.421 131.149L91.185 134.387L95.46 140.025C95.4845 140.057 95.5025 140.093 95.5129 140.132C95.5233 140.171 95.5259 140.212 95.5206 140.252C95.5152 140.293 95.502 140.331 95.4818 140.366C95.4615 140.4 95.4347 140.43 95.403 140.453L86.388 147.263C86.3407 147.298 86.2841 147.318 86.226 147.318L86.2245 147.323ZM77.487 135.036L86.277 146.62L94.833 140.155L90.558 134.518C90.5341 134.487 90.5166 134.451 90.5064 134.412C90.4963 134.373 90.4937 134.332 90.4989 134.292C90.5041 134.252 90.5169 134.214 90.5366 134.179C90.5563 134.145 90.5825 134.115 90.6135 134.091L94.8495 130.853L90.552 125.224C90.5282 125.193 90.5106 125.156 90.5003 125.118C90.49 125.079 90.4872 125.038 90.492 124.998C90.4968 124.958 90.5093 124.92 90.5286 124.886C90.548 124.852 90.5738 124.822 90.6045 124.798L95.001 121.434L94.9935 109.749C94.9935 109.624 95.0685 109.511 95.181 109.47C96.7665 108.872 100.674 107.013 102.734 102.682C104.369 99.2387 104.028 96.0736 103.778 93.7619C103.082 87.3288 99.6975 83.0032 98.4225 81.3755C97.158 79.7621 93.315 74.8522 86.6325 72.9585C84.36 72.3157 80.5545 71.239 76.4415 73.044C74.961 73.6932 72.2025 75.2686 70.3635 78.5097C69.4848 80.0931 68.9084 81.8429 68.667 83.6603C68.4765 85.0599 68.5395 86.1192 68.589 86.9694C68.739 89.5218 69.327 92.1469 70.2885 94.5615C70.7085 95.6081 71.934 98.3568 74.2965 101.234C75.2385 102.382 76.2795 103.45 77.394 104.415C77.4585 104.47 77.496 104.556 77.496 104.644L77.484 135.033L77.487 135.036ZM87.555 91.6023C86.829 91.6023 86.199 91.3964 85.8465 91.2793C84.381 90.7979 83.514 89.7862 83.1435 89.3539C82.7235 88.8631 81.606 87.5616 81.4905 85.6252C81.4695 85.2357 81.42 84.4218 81.81 83.532C82.176 82.6897 82.755 82.0595 83.4765 81.708C84.2325 81.3422 84.9135 81.3961 85.3665 81.4341C86.6415 81.5386 87.8415 82.1307 88.932 83.1963C89.373 83.6286 90.183 84.558 90.6495 85.9482C90.78 86.3345 91.0215 87.0533 90.978 87.997C90.963 88.3422 90.9315 88.9866 90.5835 89.6864C90.2634 90.3181 89.7768 90.8383 89.1825 91.1842C88.6817 91.4669 88.1214 91.6112 87.5535 91.6038L87.555 91.6023ZM84.8415 82.0009C84.507 82.0009 84.1215 82.0484 83.7135 82.2479C83.1135 82.5392 82.632 83.0697 82.3215 83.7806C81.9915 84.5374 82.032 85.2214 82.0545 85.5887C82.1565 87.3177 83.1765 88.5084 83.562 88.9581C83.9295 89.3856 84.696 90.2802 86.0145 90.714C86.5935 90.904 87.801 91.3014 88.9155 90.6633C89.628 90.2548 89.9925 89.6009 90.0885 89.4109C90.3795 88.8267 90.4035 88.2899 90.4185 87.9685C90.4575 87.142 90.2475 86.5198 90.123 86.1477C89.7954 85.1906 89.2571 84.3294 88.5525 83.6349C87.558 82.6643 86.4735 82.1228 85.3245 82.0294C85.1805 82.0167 85.02 82.0041 84.8445 82.0041L84.8415 82.0009Z" fill="black"/>
<path id="Vector_21" d="M5.16304 105.323C5.06704 103.827 4.92754 101.264 6.03754 98.3059C6.37504 97.4082 7.01404 95.7694 8.44654 94.1782C10.6815 91.6955 13.416 91.0052 14.7195 90.6948C19.065 89.6593 22.701 91.2094 24.699 92.0818C32.4615 95.467 35.802 102.695 36.618 104.532C37.3245 106.123 38.559 108.974 38.5905 112.854C38.6025 114.5 38.5935 117.144 37.1205 119.987C36.2697 121.629 35.0829 123.05 33.6465 124.148C30.4425 126.583 27.024 126.557 25.6065 126.526C22.521 126.458 20.289 125.367 18.474 124.478C16.3936 123.444 14.4657 122.098 12.75 120.482C11.511 119.323 8.62804 116.563 6.74254 111.897C6.24754 110.669 5.36254 108.425 5.16304 105.325V105.323Z" fill="#99FFDF"/>
<path id="Vector_22" d="M26.199 126.828C25.968 126.828 25.767 126.825 25.6005 126.82C22.455 126.75 20.1825 125.639 18.3555 124.744C16.2498 123.698 14.2986 122.336 12.5625 120.701C11.4315 119.643 8.43146 116.832 6.48446 112.008C6.03146 110.887 5.08946 108.556 4.88246 105.342C4.79096 103.919 4.62146 101.273 5.77796 98.195C6.08846 97.3685 6.73346 95.649 8.24396 93.9707C10.584 91.374 13.44 90.6932 14.6595 90.4019C19.143 89.3331 22.8285 90.9402 24.8085 91.8047C29.982 94.0594 34.2675 98.5339 36.8745 104.402C37.512 105.838 38.8395 108.824 38.8725 112.847C38.8845 114.353 38.907 117.159 37.368 120.124C36.4969 121.805 35.2825 123.259 33.813 124.383C30.8865 126.606 27.816 126.825 26.202 126.825L26.199 126.828ZM5.44196 105.303C5.64296 108.415 6.55946 110.686 7.00046 111.778C8.89946 116.478 11.8305 119.225 12.9345 120.259C14.6295 121.856 16.5348 123.185 18.591 124.206C20.37 125.077 22.5855 126.16 25.611 126.226C26.8905 126.255 30.288 126.331 33.4815 123.905C34.8823 122.832 36.0401 121.445 36.8715 119.842C38.3415 117.011 38.3205 114.41 38.307 112.855C38.277 108.96 36.984 106.055 36.3615 104.657C33.8145 98.9218 29.6325 94.555 24.5895 92.3541C22.668 91.5165 19.0905 89.9554 14.7795 90.9845C13.6095 91.2616 10.872 91.914 8.65046 94.3824C7.21496 95.9768 6.59546 97.6235 6.29846 98.4151C5.18846 101.371 5.35346 103.928 5.44196 105.303Z" fill="black"/>
<path id="Vector_23" d="M47.3175 107.933C46.8149 109.97 45.9085 111.872 44.658 113.512L34.9725 122.973C35.8237 122.094 36.5471 121.087 37.119 119.985C38.5935 117.143 38.601 114.499 38.589 112.854C38.559 108.974 37.3245 106.121 36.618 104.53C35.8035 102.693 32.4615 95.4654 24.699 92.0819C22.701 91.211 19.065 89.6594 14.7195 90.6949C13.6605 90.9434 11.664 91.4469 9.75146 92.9543L18.6285 84.0243C19.5146 83.4242 20.459 82.9258 21.4455 82.5375C25.383 80.989 28.8765 81.6619 30.2355 81.9438C34.0755 82.7354 36.6105 84.675 38.307 86.005C40.5109 87.7407 42.4165 89.8625 43.941 92.2782C44.9775 93.9201 46.782 96.8382 47.4435 101.096C47.6865 102.666 48.0285 105.019 47.316 107.929L47.3175 107.933Z" fill="#EBECEE"/>
<path id="Vector_24" d="M34.974 123.269C34.918 123.269 34.8631 123.252 34.8165 123.22C34.7698 123.187 34.7335 123.14 34.7122 123.085C34.6909 123.031 34.6856 122.971 34.6969 122.913C34.7083 122.855 34.7358 122.802 34.776 122.761C35.6087 121.904 36.3155 120.92 36.873 119.843C38.3415 117.012 38.3205 114.41 38.307 112.857C38.277 108.965 36.987 106.056 36.363 104.658C34.8885 101.338 31.3995 95.3262 24.591 92.3591C22.671 91.5199 19.098 89.9572 14.7825 90.9863C13.902 91.1922 11.8425 91.6814 9.92097 93.1935C9.86408 93.2441 9.79048 93.2688 9.71635 93.2621C9.64223 93.2554 9.57366 93.2179 9.52572 93.1579C9.47778 93.0978 9.45441 93.0201 9.46073 92.9419C9.46706 92.8636 9.50258 92.7913 9.55947 92.7407C12.5175 89.7608 15.4785 86.7842 18.4365 83.8107C18.4492 83.7969 18.4633 83.7847 18.4785 83.7742C19.3818 83.1644 20.3436 82.6571 21.348 82.2606C25.44 80.6503 29.091 81.4056 30.291 81.6526C34.2765 82.4759 36.906 84.5342 38.4765 85.7661C40.7053 87.5235 42.6331 89.6703 44.1765 92.1137C45.105 93.583 47.0385 96.6452 47.724 101.048C47.952 102.518 48.333 104.975 47.5905 108.004C47.0813 110.084 46.1566 112.026 44.8785 113.698L44.8515 113.729L35.1645 123.19C35.1126 123.241 35.0453 123.27 34.974 123.269ZM17.637 90.0601C20.802 90.0601 23.3925 91.1922 24.807 91.8097C31.7895 94.856 35.364 101.009 36.8745 104.407C37.5135 105.843 38.8425 108.832 38.871 112.854C38.8845 114.359 38.907 117.162 37.3665 120.131C37.3305 120.202 37.2945 120.273 37.2555 120.341L44.4525 113.314C45.6743 111.712 46.5589 109.853 47.0475 107.861C47.757 104.951 47.388 102.572 47.1675 101.148C46.5015 96.8732 44.6835 93.9947 43.7085 92.4477C42.2019 90.0617 40.3198 87.9652 38.1435 86.249C36.6105 85.0457 34.0455 83.038 30.186 82.24C29.025 82.0009 25.491 81.271 21.5475 82.8211C20.589 83.1989 19.6709 83.6824 18.8085 84.2635L11.6985 91.4154C12.6498 90.97 13.6434 90.633 14.6625 90.41C15.6402 90.1778 16.6393 90.0615 17.6415 90.0632L17.637 90.0601Z" fill="black"/>
<path id="Vector_25" d="M20.3821 108.169L26.4571 103.628C26.6596 103.544 27.0241 103.426 27.4726 103.472C28.2646 103.552 28.7686 104.084 29.0101 104.337C29.5291 104.88 29.7076 105.456 29.7451 105.588C29.8096 105.806 29.9206 106.199 29.8351 106.677C29.8051 106.878 29.7371 107.071 29.6351 107.244C29.533 107.417 29.399 107.567 29.2411 107.684L20.3671 114.317L14.1376 106.039C14.0704 105.92 14.0132 105.795 13.9666 105.665C13.8419 105.339 13.7915 104.987 13.8196 104.636C13.8421 104.399 13.8856 103.947 14.2216 103.58C14.6101 103.153 15.1261 103.126 15.2866 103.118C15.7336 103.094 16.0696 103.265 16.3321 103.398C16.7056 103.588 16.9711 103.838 17.0956 103.955C17.2111 104.066 17.3026 104.166 17.3656 104.24L20.3806 108.17L20.3821 108.169Z" fill="white"/>
<path id="Vector_26" d="M20.37 114.614C20.3275 114.614 20.2856 114.604 20.2474 114.584C20.2092 114.564 20.1757 114.536 20.1495 114.5L13.92 106.226C13.8347 106.083 13.7629 105.931 13.7055 105.773C13.653 105.624 13.4895 105.173 13.5435 104.608C13.5675 104.351 13.6185 103.816 14.022 103.374C14.331 103.035 14.7525 102.85 15.2745 102.822C15.7965 102.793 16.179 102.989 16.458 103.132C16.8735 103.344 17.1735 103.629 17.286 103.737C17.388 103.833 17.487 103.938 17.5785 104.044L17.5875 104.057L20.436 107.77L26.295 103.392C26.3138 103.378 26.3339 103.366 26.355 103.357C26.73 103.202 27.117 103.145 27.501 103.184C28.3935 103.274 28.965 103.876 29.211 104.134C29.736 104.685 29.949 105.276 30.015 105.504C30.0795 105.724 30.2145 106.18 30.111 106.739C30.0885 106.861 30.036 107.147 29.8455 107.454C29.7285 107.641 29.5785 107.801 29.403 107.934L20.532 114.565C20.4848 114.601 20.4282 114.621 20.37 114.621V114.614ZM14.373 105.87L20.424 113.911L29.079 107.442C29.1961 107.354 29.2968 107.244 29.376 107.117C29.5065 106.911 29.541 106.721 29.5575 106.62C29.634 106.205 29.532 105.86 29.4765 105.673C29.3426 105.248 29.1148 104.863 28.812 104.549C28.5765 104.3 28.137 103.84 27.447 103.77C27.1563 103.742 26.8633 103.784 26.5905 103.894L20.5455 108.411C20.4872 108.455 20.4152 108.474 20.3442 108.464C20.2731 108.454 20.2083 108.416 20.163 108.357L17.1525 104.433C17.0754 104.344 16.9943 104.258 16.9095 104.177C16.8045 104.077 16.5555 103.841 16.212 103.666C15.963 103.539 15.681 103.393 15.3015 103.414C15.162 103.422 14.7375 103.445 14.427 103.786C14.157 104.082 14.1225 104.446 14.103 104.665C14.064 105.092 14.1855 105.431 14.232 105.559C14.2725 105.667 14.3205 105.771 14.3745 105.871L14.373 105.87Z" fill="black"/>
</g>
</svg>
