<svg width="128" height="128" viewBox="0 0 128 128" fill="none" xmlns="http://www.w3.org/2000/svg">
<g id="illustration / deriv / light / mobile-not-verified">
<path id="Vector" d="M0 32C0 27.5817 3.58172 24 8 24H40C44.4183 24 48 27.5817 48 32V96C48 100.418 44.4183 104 40 104H8C3.58172 104 0 100.418 0 96V32Z" fill="#E0F0F0"/>
<path id="Vector_2" fill-rule="evenodd" clip-rule="evenodd" d="M64 103.534C61.24 103.534 59 101.294 59 98.534C59 95.7707 61.24 93.534 64 93.534C66.76 93.534 69 95.7707 69 98.534C69 101.294 66.76 103.534 64 103.534ZM85.54 10.874H42.46C36.684 10.874 32 15.558 32 21.334V106.666C32 112.446 36.684 117.126 42.46 117.126H85.54C91.316 117.126 96 112.446 96 106.666V21.334C96 15.558 91.316 10.874 85.54 10.874Z" fill="#85ACAF"/>
<path id="Vector_3" fill-rule="evenodd" clip-rule="evenodd" d="M75.7432 64.9211H52.4189C50.8067 64.9211 49.5 63.6144 49.5 62.0022C49.5 60.3899 50.8067 59.0832 52.4189 59.0832H75.7432C77.3555 59.0832 78.6622 60.3899 78.6622 62.0022C78.6622 63.6144 77.3555 64.9211 75.7432 64.9211ZM77.5811 53.917H50.4189C48.8067 53.917 47.5 52.6103 47.5 50.9981C47.5 49.3858 48.8067 48.0791 50.4189 48.0791H77.5811C79.1933 48.0791 80.5 49.3858 80.5 50.9981C80.5 52.6103 79.1933 53.917 77.5811 53.917Z" fill="#E0F0F0"/>
<g id="Group" style="mix-blend-mode:multiply">
<path id="Vector_4" fill-rule="evenodd" clip-rule="evenodd" d="M128 64C128 51.298 117.702 41 105 41C92.298 41 82 51.298 82 64C82 76.702 92.298 87 105 87C117.702 87 128 76.702 128 64Z" fill="#FF444F"/>
</g>
<path id="Vector_5" fill-rule="evenodd" clip-rule="evenodd" d="M105.614 66.33L105.615 66.3299C106.02 66.3022 106.382 66.1151 106.641 65.8353C106.956 65.494 107.023 65.0516 107.049 64.8781L107.054 64.8465L107.947 59.3044C107.982 59.0852 108 58.8637 108 58.6417V55.7301C108 55.0233 107.831 53.9035 106.843 53.3518C106.483 53.1504 106.02 52.9939 105.469 53.0002C104.939 53.0055 104.495 53.1598 104.146 53.356C103.165 53.9079 103 55.0215 103 55.7219V58.6363C103 58.8627 103.018 59.0888 103.055 59.3121L103.965 64.8474L103.97 64.879C103.997 65.0536 104.066 65.4989 104.386 65.8403C104.691 66.1657 105.136 66.3617 105.614 66.33Z" fill="white"/>
<path id="Vector_6" fill-rule="evenodd" clip-rule="evenodd" d="M103 73.2725V73.7275C103 74.2998 103.175 74.9005 103.648 75.354C104.118 75.8044 104.768 76 105.499 76C106.231 76 106.882 75.8042 107.352 75.3538C107.825 74.9003 108 74.2996 108 73.7275V73.2725C108 72.6999 107.825 72.0989 107.352 71.6454C106.881 71.195 106.231 71 105.499 71C104.768 71 104.118 71.1952 103.648 71.6456C103.175 72.0991 103 72.7 103 73.2725Z" fill="white"/>
<path id="Vector_7" d="M64.4293 26H63.5707C59.3951 26 56 29.5876 56 34C56 38.4124 59.3951 42 63.5707 42H64.4293C68.6049 42 72 38.4124 72 34C72 29.5876 68.6049 26 64.4293 26ZM67.9805 32.6804L62.9854 37.9588C62.9073 38.0412 62.7902 38.0825 62.7122 38.0825C62.6341 38.0825 62.5171 38.0412 62.439 37.9588L59.6293 34.9897C59.5512 34.9072 59.5122 34.7835 59.5122 34.701C59.5122 34.5773 59.5512 34.4948 59.6293 34.4124L60.8 33.1753C60.9561 33.0103 61.2293 33.0103 61.3854 33.1753L62.7122 34.5773L66.2634 30.8247C66.4195 30.6598 66.6927 30.6598 66.8488 30.8247L68.0195 32.0618C68.0976 32.1443 68.1366 32.268 68.1366 32.3505C68.1366 32.433 68.0585 32.5979 67.9805 32.6804Z" fill="#E0F0F0"/>
</g>
</svg>
