<svg width="96" height="96" viewBox="0 0 96 96" fill="none" xmlns="http://www.w3.org/2000/svg">
<g id="illustration / deriv / dark / receive-payment" clip-path="url(#clip0_3040_322)">
<g id="Clip path group">
<mask id="mask0_3040_322" style="mask-type:luminance" maskUnits="userSpaceOnUse" x="0" y="0" width="96" height="96">
<g id="clip0_4151_38651">
<path id="Vector" d="M96 0H0V96H96V0Z" fill="white"/>
</g>
</mask>
<g mask="url(#mask0_3040_322)">
<g id="Group">
<path id="Vector_2" d="M6 0C2.68629 0 0 2.68629 0 6V80.28H5.34C5.41 78.65 6.74 77.35 8.38 77.35C10.02 77.35 11.35 78.65 11.42 80.28H16.05C16.12 78.65 17.45 77.35 19.09 77.35C20.73 77.35 22.06 78.65 22.13 80.28H27.24C27.31 78.65 28.64 77.35 30.28 77.35C31.92 77.35 33.25 78.65 33.32 80.28H38.43C38.5 78.65 39.83 77.35 41.47 77.35C43.11 77.35 44.44 78.65 44.51 80.28H49.62C49.69 78.65 51.02 77.35 52.66 77.35C54.3 77.35 55.63 78.65 55.7 80.28H61.04V6C61.04 2.68629 58.3537 0 55.04 0H6Z" fill="#9498A2"/>
<path id="Vector_3" d="M21.209 15.7202C17.8953 15.7202 15.209 18.4064 15.209 21.7202V96.0002H20.549C20.619 94.3702 21.949 93.0702 23.589 93.0702C25.229 93.0702 26.559 94.3702 26.629 96.0002H31.259C31.329 94.3702 32.659 93.0702 34.299 93.0702C35.939 93.0702 37.269 94.3702 37.339 96.0002H42.449C42.519 94.3702 43.849 93.0702 45.489 93.0702C47.129 93.0702 48.459 94.3702 48.529 96.0002H53.639C53.709 94.3702 55.039 93.0702 56.679 93.0702C58.319 93.0702 59.649 94.3702 59.719 96.0002H64.829C64.899 94.3702 66.229 93.0702 67.869 93.0702C69.509 93.0702 70.839 94.3702 70.909 96.0002H76.249V21.7202C76.249 18.4064 73.5627 15.7202 70.249 15.7202H21.209Z" fill="#CED0D6"/>
<path id="Vector_4" d="M34.6891 37.7701C34.6891 35.7601 33.6291 34.6201 30.8091 33.8301C28.7891 33.2601 28.3391 32.8901 28.3391 32.0601C28.3391 31.4801 28.6791 30.7601 29.8991 30.7601C31.3391 30.7601 31.5892 31.6101 31.7192 32.1301H34.3992C34.2592 30.6601 33.4191 29.2101 31.0791 28.8501V27.6401H28.8291V28.8701C27.0391 29.2101 25.6391 30.4001 25.6391 32.3101C25.6391 34.0901 26.5691 35.2601 29.7591 36.1801C31.5091 36.6801 31.9991 37.1301 31.9991 38.0601C31.9991 38.8201 31.5491 39.4901 30.1591 39.4901C29.0291 39.4901 28.2791 38.8801 28.0591 37.9001H25.3792C25.5292 39.7201 26.7792 41.0601 28.9592 41.3901V42.9101H31.2192V41.3901C33.2892 41.0801 34.6791 39.8901 34.6791 37.7601L34.6891 37.7701Z" fill="white"/>
<path id="Vector_5" d="M66.0992 48.4502H25.3892V53.5402H66.0992V48.4502Z" fill="white"/>
<path id="Vector_6" d="M66.0992 58.6201H25.3892V63.7101H66.0992V58.6201Z" fill="white"/>
<path id="Vector_7" d="M66.0992 68.8003H25.3892V73.8903H66.0992V68.8003Z" fill="white"/>
<path id="Vector_8" d="M66.0992 78.98H25.3892V84.0701H66.0992V78.98Z" fill="white"/>
<path id="Vector_9" d="M76 68C87.0457 68 96 59.0457 96 48C96 36.9543 87.0457 28 76 28C64.9543 28 56 36.9543 56 48C56 59.0457 64.9543 68 76 68Z" fill="#FF444F"/>
<path id="Vector_10" fill-rule="evenodd" clip-rule="evenodd" d="M73.0805 51.0024L83.3363 40.7554L86.1635 43.5851L73.0793 56.6581L65.8357 49.4145L68.6641 46.586L73.0805 51.0024Z" fill="white"/>
</g>
</g>
</g>
</g>
<defs>
<clipPath id="clip0_3040_322">
<rect width="96" height="96" fill="white"/>
</clipPath>
</defs>
</svg>
