<svg width="128" height="128" viewBox="0 0 128 128" fill="none" xmlns="http://www.w3.org/2000/svg">
<g id="illustration / deriv / light / approved-poa">
<path id="Vector" d="M97.8198 124H12.1931C7.12174 123.986 3.01411 119.891 3 114.836V13.1638C3.01411 8.10862 7.12174 4.01406 12.1931 4H84.9417L107 26.0009V114.836C106.979 119.884 102.883 123.972 97.8198 124Z" fill="#E2F1F1"/>
<path id="Vector_2" d="M90.04 42H18.96C17.3252 42 16 43.3252 16 44.96V46.04C16 47.6748 17.3252 49 18.96 49H90.04C91.6748 49 93 47.6748 93 46.04V44.96C93 43.3252 91.6748 42 90.04 42Z" fill="white"/>
<path id="Vector_3" d="M90.04 57H18.96C17.3252 57 16 58.3252 16 59.96V61.04C16 62.6748 17.3252 64 18.96 64H90.04C91.6748 64 93 62.6748 93 61.04V59.96C93 58.3252 91.6748 57 90.04 57Z" fill="white"/>
<path id="Vector_4" d="M55.04 73H18.96C17.3252 73 16 74.3252 16 75.96V77.04C16 78.6748 17.3252 80 18.96 80H55.04C56.6748 80 58 78.6748 58 77.04V75.96C58 74.3252 56.6748 73 55.04 73Z" fill="white"/>
<path id="Vector_5" d="M105.55 119C117.396 119 127 109.397 127 97.5501C127 85.7036 117.396 76.1001 105.55 76.1001C93.7031 76.1001 84.0996 85.7036 84.0996 97.5501C84.0996 109.397 93.7031 119 105.55 119Z" fill="#4BB4B3"/>
<path id="Vector_6" d="M98.4004 98.8101L104.05 103.43L113.49 91.8301" stroke="white" stroke-width="2" stroke-linecap="round" stroke-linejoin="round"/>
<path id="Vector_7" d="M107 26H94.187C89.124 25.986 85.0211 21.8864 85 16.8205V4L107 26Z" fill="#BCCDCF"/>
</g>
</svg>
