<svg width="128" height="128" viewBox="0 0 128 128" fill="none" xmlns="http://www.w3.org/2000/svg">
<g id="illustration / deriv / light / wallet-unavailable">
<g id="Group">
<path id="Vector" d="M105.854 58.8784C105.851 69.4272 105.848 79.9749 105.845 90.5238C105.848 90.7508 105.85 91.0818 105.845 91.4807C105.834 92.2895 105.829 92.702 105.786 93.1278C105.66 94.3492 105.264 95.2496 105.163 95.4699C105.047 95.7253 104.768 96.2969 104.273 96.9217C103.974 97.3002 103.682 97.5883 103.445 97.7995C103.178 97.9735 102.796 98.1927 102.315 98.3814C101.287 98.7836 100.427 98.8016 99.9558 98.8062C98.8151 98.8186 97.9577 98.5645 97.2204 98.3384C96.4968 98.117 95.9101 97.8617 95.4951 97.6583C94.6356 97.3092 93.7772 96.9602 92.9177 96.6122V70.2248C92.9261 69.7028 92.9124 69.0442 92.8387 68.2896C92.7165 67.04 92.4869 66.1158 92.4216 65.865C92.0392 64.3703 91.5147 63.3151 91.1924 62.6744C90.9227 62.1378 90.2644 60.8996 89.1511 59.5269C88.6813 58.9485 88.0261 58.1509 86.9897 57.3159C86.1133 56.6097 85.3444 56.1839 84.8884 55.933C84.1605 55.5343 83.5138 55.254 83.0145 55.0609C64.2615 47.1682 45.5085 39.2743 26.7555 31.3805C25.8676 31.0755 25.1703 30.7061 24.6742 30.4032C24.3614 30.2112 23.9116 29.9332 23.385 29.4667C22.9794 29.1073 22.5529 28.7277 22.1652 28.095C21.9577 27.755 21.6186 27.2003 21.5111 26.4049C21.3563 25.2593 21.7808 24.3532 21.9778 23.9488C22.4001 23.0765 22.971 22.5806 23.464 22.1513C23.6462 21.9931 24.0791 21.6326 24.9417 21.1514C26.2826 20.4035 27.4739 20.0261 28.1333 19.8443C29.7037 19.4115 30.9382 19.3506 31.8114 19.3121C33.6515 19.2319 35.0556 19.4454 35.5885 19.5358C35.8719 19.5844 36.625 19.7188 37.5814 19.9923C38.2839 20.1933 38.8938 20.4113 39.3952 20.6091C57.8638 28.3685 76.3324 36.1267 94.801 43.8861C95.1559 44.0251 95.6657 44.2341 96.2682 44.5132C97.2057 44.9458 98.0525 45.3378 98.9942 45.9807C100.05 46.7004 100.748 47.411 101.166 47.8415C101.528 48.2143 102.525 49.2763 103.515 50.9145C104.585 52.6837 105.081 54.1897 105.2 54.5615C105.621 55.8777 105.742 56.8437 105.775 57.1238C105.856 57.8255 105.866 58.4276 105.854 58.8784Z" fill="#CED0D6"/>
<path id="Vector (Stroke)" d="M31.8011 19.035C33.1983 18.9741 34.3476 19.0804 35.0638 19.1762L35.6292 19.2619L36.3831 19.4083C36.7307 19.4831 37.1636 19.5856 37.6478 19.7241H37.6487C38.182 19.8767 38.6624 20.0397 39.0833 20.1957L39.4847 20.3494L39.4896 20.3504V20.3515L94.8958 43.6277H94.8948C95.2531 43.7681 95.7661 43.9779 96.3714 44.2582H96.3704C97.3072 44.6906 98.1718 45.091 99.1331 45.7472C100.211 46.4819 100.924 47.2078 101.346 47.642C101.716 48.0228 102.727 49.1012 103.732 50.7632H103.733C104.819 52.5586 105.323 54.0882 105.446 54.4711C105.767 55.4762 105.917 56.2825 105.987 56.7454L106.033 57.0895L106.081 57.6081C106.119 58.1059 106.123 58.5393 106.114 58.8859C106.111 69.4322 106.107 79.9778 106.104 90.5242C106.107 90.7531 106.109 91.085 106.104 91.4841C106.093 92.288 106.088 92.7157 106.043 93.1572V93.1582C105.945 94.1084 105.69 94.871 105.524 95.2914L105.396 95.5915C105.274 95.8591 104.985 96.4531 104.471 97.1014L104.47 97.1003C104.159 97.4937 103.856 97.7932 103.611 98.0121C103.601 98.0208 103.591 98.0292 103.58 98.0362C103.302 98.2174 102.905 98.4455 102.405 98.6416C101.602 98.9556 100.897 99.0446 100.393 99.0714L99.9583 99.0829C98.778 99.0957 97.8899 98.8322 97.1487 98.605V98.604C96.4106 98.3781 95.8113 98.1187 95.387 97.9107V97.9097C94.533 97.5628 93.6802 97.217 92.8265 96.8713C92.7258 96.8306 92.6585 96.7273 92.6585 96.612V70.2197C92.6667 69.7071 92.6537 69.0601 92.5814 68.3187C92.4612 67.0898 92.2352 66.181 92.1722 65.9388V65.9378C91.7977 64.4743 91.284 63.4417 90.9642 62.806C90.6996 62.2796 90.0517 61.0606 88.9554 59.7088C88.4884 59.1339 87.8482 58.3538 86.8343 57.537C85.9761 56.8455 85.2227 56.4289 84.7698 56.1797V56.1787C84.0538 55.7865 83.4171 55.5112 82.9261 55.3213L82.9202 55.3192C64.1704 47.4278 45.4201 39.5349 26.6702 31.6424C25.7649 31.3308 25.0533 30.9534 24.5462 30.6438H24.5452C24.2294 30.4499 23.7642 30.1618 23.22 29.6797C22.8134 29.3195 22.3594 28.9177 21.9485 28.2472V28.2461C21.739 27.9027 21.3714 27.3044 21.2552 26.4445C21.088 25.2072 21.5472 24.2338 21.7483 23.8209L21.9231 23.4916C22.3476 22.7629 22.869 22.3118 23.3011 21.9356C23.4953 21.767 23.9431 21.3962 24.8226 20.9057C26.1868 20.1448 27.3981 19.7605 28.0687 19.5756C29.6663 19.1353 30.9235 19.0736 31.8011 19.035ZM31.8216 19.5892C30.9528 19.6274 29.7404 19.6879 28.1976 20.1131C27.5493 20.2918 26.378 20.6625 25.0608 21.3971C24.4268 21.7508 24.0331 22.0362 23.804 22.219L23.6272 22.3664C23.135 22.7951 22.6026 23.2597 22.2073 24.0761V24.0771C22.0143 24.4734 21.6246 25.3117 21.7669 26.365C21.8656 27.0956 22.1767 27.6062 22.3821 27.9429L22.5198 28.1552C22.846 28.6269 23.1961 28.9395 23.5501 29.2531C24.0591 29.704 24.4932 29.9726 24.803 30.1628C25.2264 30.4212 25.8002 30.7299 26.5179 31.0025L26.8343 31.1165L26.8499 31.1227C45.6029 39.0165 64.3567 46.9099 83.1097 54.8026H83.1087C83.6152 54.9988 84.2698 55.2828 85.0062 55.6862H85.0071C85.4662 55.9388 86.2514 56.374 87.1458 57.0947C88.2042 57.9475 88.8734 58.7631 89.346 59.3449H89.347C90.4769 60.7382 91.1452 61.9954 91.4202 62.5425C91.7449 63.188 92.2809 64.2653 92.6712 65.7903L92.7483 66.1072C92.8483 66.5406 93.0028 67.3076 93.096 68.2602C93.1708 69.0257 93.1845 69.6945 93.1761 70.2249H93.1771V96.4207L95.5872 97.3994L95.6028 97.4057C96.0084 97.6045 96.5827 97.8549 97.2913 98.0717C98.0248 98.2966 98.8524 98.5407 99.9534 98.5287L100.366 98.5172C100.839 98.4922 101.487 98.41 102.226 98.1209C102.679 97.9433 103.04 97.737 103.295 97.5719C103.521 97.3698 103.795 97.0978 104.075 96.7427L104.244 96.52C104.616 96.0089 104.834 95.5619 104.931 95.3489V95.3478C105.026 95.1408 105.407 94.2733 105.529 93.0976L105.554 92.786C105.573 92.463 105.578 92.0869 105.586 91.4768V90.5232C105.589 79.9745 105.592 69.4271 105.595 58.8786V58.8702H105.596C105.608 58.431 105.598 57.8434 105.519 57.1585L105.475 56.8343C105.409 56.3941 105.265 55.6197 104.955 54.651C104.84 54.2897 104.352 52.8076 103.298 51.0654C102.323 49.4519 101.341 48.4064 100.987 48.0414C100.572 47.6147 99.8888 46.9193 98.8548 46.2147C98.1632 45.7425 97.5242 45.4077 96.8519 45.0874L96.1653 44.7675C95.5685 44.491 95.0635 44.2839 94.7122 44.1464L94.7064 44.1443C85.4721 40.2646 76.2375 36.3845 67.0032 32.5051C57.7708 28.6265 48.5384 24.748 39.306 20.8691L38.9144 20.7195C38.5035 20.5673 38.035 20.4083 37.5149 20.2594C36.5705 19.9894 35.8263 19.8577 35.5472 19.8098C35.0228 19.7209 33.6374 19.51 31.8216 19.5892Z" fill="black"/>
<path id="Vector_2" d="M110.238 56.146C110.226 67.0214 110.215 77.8956 110.203 88.7698C110.201 89.0263 110.187 89.3652 110.138 89.7595C110.092 90.1142 110.005 90.7763 109.703 91.5558C109.608 91.801 109.253 92.672 108.479 93.5646C108.073 94.0311 107.679 94.36 107.387 94.5747C106.073 95.6501 104.757 96.7246 103.442 97.8002C103.679 97.5889 103.971 97.3008 104.27 96.9223C104.765 96.2975 105.044 95.7258 105.16 95.4706C105.261 95.2502 105.657 94.3498 105.782 93.1285C105.825 92.7026 105.831 92.2902 105.841 91.4813C105.847 91.0824 105.844 90.7514 105.841 90.5243C105.844 79.9755 105.848 69.4278 105.851 58.879C105.862 58.4282 105.853 57.826 105.772 57.1245C105.739 56.8442 105.618 55.8782 105.197 54.5621C105.078 54.1904 104.581 52.6844 103.511 50.9151C102.521 49.2769 101.525 48.215 101.162 47.8421C100.744 47.4117 100.047 46.701 98.9909 45.9813C98.0492 45.3385 97.2023 44.9464 96.2649 44.5137C95.6624 44.2347 95.1526 44.0257 94.7977 43.8867C76.3291 36.1273 57.8604 28.3691 39.3918 20.6097C38.8905 20.412 38.2806 20.1939 37.578 19.9928C36.6216 19.7195 35.8685 19.585 35.5852 19.5365C35.0522 19.446 33.6482 19.2325 31.8081 19.3127C30.9349 19.3511 29.7004 19.4121 28.1299 19.8448C27.4706 20.0268 26.2793 20.4041 24.9384 21.152C24.0758 21.6333 23.6429 21.9937 23.4606 22.1519C22.9677 22.5812 22.3968 23.0772 21.9744 23.9493C21.7775 24.3539 21.353 25.2599 21.5078 26.4055C21.6152 27.2009 21.9544 27.7556 22.1619 28.0957C22.5495 28.7283 22.9761 29.108 23.3816 29.4672C23.9083 29.9339 24.358 30.2118 24.6709 30.4038C25.167 30.7066 25.8643 31.076 26.7522 31.3811C45.5052 39.275 64.2582 47.1687 83.0112 55.0615C83.5105 55.2546 84.1572 55.5348 84.885 55.9337C85.3411 56.1845 86.11 56.6104 86.9864 57.3164C88.0228 58.1514 88.678 58.949 89.1477 59.5274C90.2611 60.9001 90.9194 62.1385 91.189 62.6751C91.5114 63.3156 92.0359 64.3709 92.4182 65.8656C92.4835 66.1164 92.7132 67.0406 92.8354 68.2901C92.9091 69.0448 92.9228 69.7035 92.9144 70.2254V99.7536C92.908 100.848 92.9007 101.944 92.8943 103.039C92.8943 103.353 92.8775 103.761 92.8059 104.23C92.6911 104.973 92.4941 105.525 92.3993 105.772C92.2876 106.06 92.0707 106.613 91.6356 107.224C91.3239 107.66 91.0184 107.961 90.7635 108.212C90.5002 108.471 90.2632 108.673 90.0841 108.819C88.8739 109.811 87.6636 110.803 86.4534 111.796C86.8515 111.424 87.0875 111.067 87.2866 110.767C87.4424 110.53 87.9122 109.789 88.2303 108.685C88.3325 108.333 88.4441 107.852 88.5052 107.265C88.5274 95.8196 88.5505 84.3727 88.5726 72.9256C88.5695 72.6522 88.5579 72.2625 88.5126 71.7992C88.3388 69.9927 87.8269 68.6856 87.4814 67.8212C87.2065 67.1321 86.5313 65.5707 85.2611 63.8456C84.6912 63.0705 83.6948 61.7384 82.0095 60.4844C80.8614 59.6303 79.7891 59.1061 78.996 58.7829L22.282 34.966C21.7301 34.7354 20.9843 34.3954 20.1301 33.9232C19.2906 33.4588 18.4448 32.9899 17.5821 32.2747C16.7795 31.6082 15.1754 30.2784 14.4444 27.9466C14.2179 27.2257 14.1199 26.5478 14.0862 25.9637V25.9547C14.0873 25.6192 14.0873 25.2836 14.0883 24.9481C14.1094 24.7436 14.1505 24.4487 14.2369 24.103C14.4265 23.3347 14.773 22.5687 15.4555 21.6469C16.6342 20.0573 18.0888 18.984 18.8756 18.4563C20.3323 17.4814 21.5594 16.9956 22.519 16.6227C22.9119 16.4702 24.7446 15.7697 27.4864 15.2985C31.0191 14.6919 33.823 14.8489 34.8911 14.9314C36.1003 15.0252 38.6187 15.2952 41.687 16.2713C42.9741 16.6814 44.0432 17.1153 44.8395 17.4678C62.9953 25.0972 81.1521 32.7267 99.309 40.3561C99.8967 40.5742 100.674 40.8962 101.553 41.3605C102.455 41.8362 103.63 42.4655 104.9 43.6099C106.245 44.8222 107.033 46.0152 107.606 46.8954C108.175 47.7698 108.813 48.7617 109.346 50.2451C109.469 50.5874 109.993 52.0867 110.179 54.1689C110.249 54.9632 110.252 55.641 110.238 56.146Z" fill="white"/>
<path id="Vector (Stroke)_2" d="M27.4456 15.0243C31.005 14.4131 33.8305 14.5709 34.9094 14.6542C36.1295 14.7488 38.6686 15.0214 41.761 16.0051C43.0583 16.4185 44.1361 16.8555 44.9387 17.2108H44.9377C63.0891 24.8383 81.2413 32.4663 99.3938 40.0939L99.8752 40.28C100.39 40.487 101 40.7585 101.668 41.1113H101.667C102.572 41.5887 103.772 42.2301 105.067 43.3971C106.439 44.6338 107.243 45.8525 107.819 46.7369C108.39 47.6142 109.043 48.6286 109.588 50.1447C109.715 50.4987 110.248 52.0249 110.437 54.1422L110.479 54.7257C110.509 55.2846 110.508 55.7689 110.497 56.1541C110.485 67.0197 110.474 77.9056 110.462 88.7701V88.7722C110.46 89.0374 110.445 89.388 110.395 89.7959V89.7969C110.348 90.1569 110.258 90.848 109.943 91.6613C109.842 91.9215 109.472 92.8262 108.669 93.7526L108.668 93.7537C108.252 94.232 107.847 94.5705 107.544 94.7941C106.23 95.8694 104.914 96.9447 103.6 98.0199C103.488 98.1115 103.327 98.0908 103.24 97.9729C103.152 97.855 103.169 97.6835 103.277 97.587C103.505 97.3836 103.785 97.1066 104.073 96.7432V96.7421C104.548 96.1414 104.817 95.5927 104.928 95.3493V95.3483C105.023 95.1411 105.404 94.2736 105.525 93.098L105.55 92.7864C105.57 92.4633 105.575 92.087 105.582 91.4773V90.5236C105.584 85.2493 105.585 79.9749 105.587 74.7008C105.589 69.427 105.591 64.1531 105.592 58.879V58.8717C105.603 58.4314 105.594 57.8428 105.515 57.1579V57.1568C105.483 56.8849 105.365 55.9404 104.952 54.6514C104.837 54.2906 104.348 52.8076 103.294 51.0649C102.319 49.4514 101.338 48.4065 100.983 48.0419C100.62 47.6684 100.053 47.0885 99.2239 46.4776L98.8518 46.2151C98.1603 45.7431 97.521 45.4082 96.8489 45.0879L96.1624 44.7679C95.5657 44.4916 95.0606 44.2844 94.7092 44.1468L94.7034 44.1447C85.4691 40.265 76.2346 36.385 67.0002 32.5056C57.7675 28.6268 48.5347 24.7485 39.302 20.8695L38.9114 20.72C38.5004 20.5677 38.0314 20.4088 37.511 20.2599C36.5666 19.99 35.8231 19.858 35.5442 19.8103C35.0201 19.7213 33.6348 19.5105 31.8186 19.5896C30.9499 19.6279 29.7376 19.6874 28.1946 20.1125C27.5464 20.2913 26.3753 20.6628 25.0579 21.3976C24.2131 21.869 23.794 22.2178 23.6233 22.3659L23.6243 22.3669C23.132 22.7957 22.5997 23.2602 22.2043 24.0765C22.0114 24.4729 21.6216 25.3119 21.7639 26.3655C21.8625 27.0957 22.1727 27.6066 22.3782 27.9434L22.5168 28.1556C22.8429 28.6271 23.1924 28.9402 23.5461 29.2536C24.0545 29.7039 24.4884 29.9722 24.7981 30.1622H24.7991C25.2225 30.4207 25.7968 30.7292 26.5149 31.0019L26.8313 31.1169L26.8469 31.1232C45.5972 39.0159 64.3476 46.9084 83.0979 54.7999H83.0989C83.6063 54.9962 84.2638 55.2815 85.0032 55.6866L85.4055 55.9115C85.8619 56.174 86.471 56.5537 87.1418 57.0941C88.2007 57.9471 88.8704 58.7634 89.343 59.3454C90.4733 60.7389 91.1424 61.9959 91.4172 62.543C91.7421 63.1885 92.278 64.2661 92.6682 65.7918H92.6672C92.7351 66.0526 92.9689 66.9919 93.093 68.2606C93.168 69.0282 93.1816 69.6985 93.1731 70.2296V99.7547L93.1536 103.04C93.1535 103.364 93.136 103.787 93.0618 104.274V104.275C92.9426 105.046 92.738 105.62 92.6389 105.877L92.6379 105.878C92.5239 106.172 92.2966 106.752 91.8411 107.391C91.5144 107.849 91.1944 108.164 90.9387 108.416C90.6682 108.682 90.424 108.889 90.2405 109.038C89.0304 110.029 87.8207 111.022 86.6106 112.015C86.4997 112.106 86.3417 112.087 86.2532 111.971C86.1647 111.855 86.1781 111.685 86.2834 111.586C86.6564 111.238 86.8772 110.904 87.0754 110.605C87.2242 110.379 87.6763 109.666 87.9827 108.603L88.0579 108.326C88.1315 108.03 88.202 107.668 88.2463 107.249C88.2685 95.8094 88.2916 84.3691 88.3137 72.9284C88.3114 72.7274 88.3045 72.463 88.2825 72.1525L88.2551 71.8274C88.0855 70.0642 87.5865 68.7886 87.2434 67.9302C86.9737 67.2541 86.309 65.7157 85.0579 64.0163C84.4925 63.2475 83.5146 61.9422 81.8616 60.7121C80.7347 59.8738 79.6821 59.3583 78.9036 59.0411H78.9016L22.1877 35.2232V35.2243C21.6291 34.9909 20.8747 34.6466 20.011 34.1692C19.1727 33.7055 18.3077 33.2255 17.4241 32.493H17.4231C16.6185 31.8248 14.9562 30.4514 14.1985 28.0343V28.0333C13.9638 27.2861 13.8622 26.5842 13.8274 25.9807V25.9535C13.8285 25.6153 13.8283 25.2858 13.8293 24.9465L13.8313 24.9172C13.8535 24.7025 13.896 24.3929 13.9866 24.0305C14.1867 23.2204 14.5513 22.4205 15.2522 21.4739H15.2532C16.4586 19.8484 17.9418 18.7552 18.7385 18.2209L19.2825 17.8716C20.5265 17.1081 21.5879 16.6893 22.4309 16.3617C22.8332 16.2055 24.6826 15.4991 27.4456 15.0243ZM34.8723 15.2073C33.8147 15.1257 31.0329 14.9703 27.5276 15.5722C24.8086 16.0395 22.9926 16.733 22.6077 16.8824C21.6519 17.2538 20.4456 17.7326 19.0129 18.6914L19.012 18.6904C18.235 19.2115 16.8101 20.2658 15.6584 21.819C14.9947 22.7155 14.6667 23.4479 14.4875 24.1738H14.4866C14.4054 24.4986 14.3662 24.7766 14.3459 24.9706C14.345 25.2923 14.346 25.6234 14.345 25.9462L14.3811 26.3853C14.4317 26.8397 14.5262 27.3372 14.6897 27.8576C15.3938 30.1036 16.9396 31.3898 17.7405 32.0549C18.5822 32.7526 19.4086 33.2117 20.2493 33.6767C21.0938 34.1435 21.8311 34.48 22.3762 34.7077L79.0872 58.5235H79.0881C79.8958 58.8526 80.9882 59.3863 82.1575 60.2561C83.8745 61.5339 84.8896 62.8921 85.4641 63.6733C86.7531 65.424 87.4388 67.0093 87.719 67.7117C88.0668 68.5818 88.5918 69.9205 88.7698 71.7698C88.8162 72.2442 88.8281 72.6434 88.8313 72.9221V72.9253C88.8092 84.3723 88.7861 95.8199 88.7639 107.266C88.7639 107.276 88.764 107.286 88.7629 107.296C88.6997 107.903 88.584 108.401 88.4778 108.767C88.2974 109.393 88.068 109.905 87.8723 110.282C88.5571 109.721 89.2422 109.16 89.927 108.599L89.928 108.598C90.1025 108.456 90.3325 108.259 90.5881 108.007C90.8422 107.757 91.1333 107.471 91.4299 107.055C91.8443 106.474 92.051 105.947 92.1604 105.665C92.2511 105.429 92.4397 104.898 92.55 104.184C92.6187 103.734 92.635 103.342 92.635 103.039V103.037C92.6382 102.49 92.6423 101.942 92.6458 101.394C92.6492 100.847 92.6523 100.3 92.6555 99.7536V70.2202L92.6575 69.8113C92.6538 69.3782 92.6327 68.8745 92.5784 68.3181C92.4582 67.0895 92.2322 66.1813 92.1692 65.9393L92.1682 65.9382C91.7939 64.4748 91.2811 63.442 90.9612 62.8065C90.6968 62.2802 90.0486 61.0609 88.9524 59.7093C88.4856 59.1344 87.8443 58.3544 86.8303 57.5375C86.1867 57.019 85.6024 56.6546 85.1594 56.3998L84.7668 56.1802C84.0506 55.7877 83.4143 55.5117 82.9231 55.3217L82.9163 55.3196V55.3186C64.1666 47.4273 45.4169 39.5354 26.6672 31.6429C25.9886 31.4093 25.4186 31.139 24.9622 30.8879L24.5422 30.6443C24.2263 30.4504 23.7604 30.1624 23.2161 29.6802C22.8096 29.3201 22.3562 28.9178 21.9456 28.2477V28.2466C21.736 27.9032 21.3674 27.305 21.2512 26.4449C21.084 25.2073 21.5435 24.233 21.7444 23.8204C22.1938 22.8929 22.8037 22.3659 23.2971 21.9361H23.2981C23.4923 21.7676 23.9394 21.3967 24.8186 20.9061C26.183 20.1451 27.3953 19.761 28.0657 19.5761C29.6631 19.136 30.9196 19.0741 31.7971 19.0354C33.6601 18.9543 35.0827 19.1703 35.6252 19.2624H35.6262C35.914 19.3116 36.6766 19.4478 37.6448 19.7245L38.1604 19.8803C38.4922 19.9853 38.7996 20.0921 39.0803 20.1961L39.4817 20.3488L39.4866 20.3509C48.7208 24.2306 57.9554 28.1107 67.1897 31.99C76.4221 35.8687 85.6546 39.7472 94.887 43.6261L95.5334 43.8896C95.7828 43.995 96.0635 44.1179 96.3674 44.2587L97.0588 44.5818C97.7422 44.9074 98.4092 45.2546 99.1301 45.7467C100.208 46.4811 100.919 47.2072 101.341 47.6414C101.712 48.0224 102.724 49.1011 103.729 50.7637C104.815 52.5594 105.32 54.0889 105.443 54.4716C105.764 55.4767 105.914 56.2829 105.984 56.7459L106.03 57.0889V57.0899C106.112 57.8046 106.121 58.4185 106.11 58.879H106.111C106.109 64.1533 106.106 69.4278 106.105 74.7019C106.103 79.9757 106.101 85.2495 106.1 90.5236C106.103 90.752 106.106 91.085 106.1 91.4856C106.09 92.2898 106.084 92.7162 106.039 93.1576V93.1587C105.942 94.1088 105.687 94.8714 105.521 95.2918L105.393 95.5919C105.345 95.6975 105.268 95.8522 105.164 96.0426C105.853 95.4797 106.542 94.9171 107.23 94.3539L107.24 94.3455L107.468 94.1709C107.711 93.9742 107.996 93.7116 108.289 93.3751C109.034 92.5165 109.375 91.6792 109.464 91.449C109.753 90.7035 109.837 90.07 109.882 89.7206C109.929 89.3417 109.943 89.016 109.945 88.769L109.98 56.1457V56.1373C109.993 55.641 109.99 54.9748 109.921 54.1945C109.738 52.148 109.224 50.6753 109.105 50.3444C108.584 48.8941 107.961 47.925 107.394 47.0537C106.824 46.1778 106.051 45.0095 104.734 43.8216C103.489 42.7 102.337 42.083 101.439 41.609C100.571 41.1509 99.8038 40.833 99.2239 40.6177L99.2141 40.6136C81.0574 32.9842 62.9009 25.3546 44.7454 17.7252L44.7405 17.7232C43.9506 17.3735 42.8902 16.9431 41.6135 16.5363C38.5693 15.5679 36.0706 15.3003 34.8723 15.2073Z" fill="black"/>
<g id="Vector_3">
<path d="M123.276 39.6563C122.829 41.4879 122.153 43.0214 121.483 44.2319C120.818 45.4347 119.821 46.4079 118.72 47.2298C116.83 48.6388 114.941 50.0478 113.052 51.4568C114.927 49.621 115.812 47.6526 116.178 46.8121C118.582 41.2941 116.869 35.8919 115.691 32.1761C113.128 24.0808 108.026 19.2469 105.875 17.26C103.003 14.6039 98.8167 10.828 92.3685 9.61893C89.9652 9.16813 86.2086 8.51763 82.3499 10.4683C81.6981 10.798 81.1119 11.1666 80.586 11.5546C83.2146 9.56773 85.8458 7.57903 88.4762 5.59028C89.5395 5.08382 91.1385 4.45362 93.1533 4.16106C98.0194 3.45662 101.869 5.2164 104.539 6.47945C111.414 9.73213 115.259 14.7568 117.004 17.0991C118.531 19.1479 121.75 23.5655 123.115 30.0893C123.613 32.466 124.249 35.6789 123.276 39.6563Z" fill="#FF444F"/>
<path d="M93.1105 3.86429C98.0726 3.14596 101.995 4.94356 104.667 6.20804C111.611 9.4933 115.493 14.5681 117.244 16.9199C118.778 18.9776 122.03 23.438 123.408 30.0274C123.893 32.3364 124.518 35.4773 123.656 39.3506L123.567 39.7276C123.112 41.5891 122.426 43.1475 121.746 44.377C121.053 45.6302 120.02 46.6342 118.899 47.4707C117.01 48.8796 115.12 50.2884 113.232 51.6973C113.105 51.7916 112.927 51.772 112.824 51.6524C112.722 51.5324 112.729 51.3527 112.842 51.2422C114.675 49.4476 115.542 47.5225 115.903 46.6924C118.256 41.2903 116.586 35.9927 115.405 32.2666C112.866 24.2481 107.812 19.4583 105.671 17.4805C102.802 14.8269 98.6704 11.1062 92.3136 9.91409C89.9127 9.46375 86.2465 8.835 82.4854 10.7364C81.8494 11.0581 81.277 11.4173 80.7638 11.7959C80.6311 11.8937 80.4445 11.8663 80.3458 11.7344C80.2471 11.6022 80.2737 11.415 80.4054 11.3155C83.034 9.32857 85.6647 7.33933 88.295 5.35061C88.3111 5.33845 88.3286 5.32806 88.3468 5.31936C89.4283 4.80421 91.0575 4.16239 93.1105 3.86429ZM104.41 6.751C101.827 5.52882 98.2014 3.87484 93.6407 4.40042L93.1964 4.45804C91.234 4.74299 89.673 5.35473 88.628 5.85061C86.9928 7.08696 85.3568 8.32274 83.7218 9.55862C87.1297 8.3681 90.3254 8.93061 92.4239 9.32425C98.9632 10.5505 103.205 14.3815 106.079 17.0401C108.24 19.0364 113.39 23.9146 115.978 32.086C117.152 35.7914 118.907 41.2981 116.453 46.9317C116.215 47.479 115.755 48.506 114.947 49.669C116.145 48.7758 117.343 47.8825 118.54 46.9893C119.622 46.1821 120.583 45.2392 121.221 44.0869C121.88 42.8955 122.545 41.3864 122.985 39.585C123.941 35.6772 123.318 32.5203 122.821 30.1504C121.47 23.6929 118.284 19.3183 116.764 17.2783C115.026 14.9455 111.217 9.97097 104.41 6.751Z" fill="black"/>
<path fill-rule="evenodd" clip-rule="evenodd" d="M115.701 32.1752C113.137 24.0799 108.035 19.246 105.884 17.2591C103.013 14.6031 98.826 10.8272 92.3778 9.61805C89.9745 9.16735 86.2179 8.51675 82.3593 10.4674C81.7075 10.7971 81.1213 11.1657 80.5954 11.5537C78.4634 13.1243 77.3345 14.9884 76.9248 15.6814C74.8978 19.1203 74.9666 22.4286 75.0171 24.8553L75.0172 24.8595C75.136 30.4305 77.2068 34.5325 78.6887 37.3918C79.8238 39.582 81.703 42.6597 84.7325 45.8504C84.7282 49.5274 84.7256 53.2051 84.7231 56.8829L84.7227 57.4636C87.1792 55.5889 89.6375 53.7168 92.0949 51.8439C93.8278 53.0151 97.8842 55.3865 103.288 55.2185C105.021 55.1655 108.007 55.0356 111.036 53.0769C111.815 52.574 112.484 52.0216 113.061 51.4559C114.936 49.6201 115.821 47.6517 116.187 46.8112C118.591 41.2932 116.878 35.891 115.701 32.1752ZM91.07 16.8871C93.7137 17.9238 96.3565 18.9615 99.0001 20C99.0276 25.9688 99.0551 31.9393 99.0817 37.909L91.07 34.6606V16.8871ZM99.0443 41.1353C96.4149 40.0578 93.7845 38.9795 91.156 37.9012V45.8504L99.1064 49.0582C99.086 46.4163 99.0647 43.7754 99.0443 41.1353Z" fill="#FF7E88"/>
<path d="M91.156 37.9012C93.7845 38.9795 96.4149 40.0578 99.0443 41.1353C99.0647 43.7754 99.086 46.4163 99.1064 49.0582L91.156 45.8504V37.9012Z" fill="#FF444F"/>
<path d="M91.07 34.6606L99.0817 37.909L99.0001 20L91.07 16.8871V34.6606Z" fill="#FF444F"/>
<path d="M82.2237 10.1992C86.1797 8.19932 90.027 8.87212 92.4327 9.32327C98.972 10.5496 103.214 14.3806 106.088 17.0391C108.249 19.0353 113.398 23.9132 115.986 32.085C117.161 35.7904 118.916 41.2971 116.463 46.9307C116.092 47.7816 115.188 49.7931 113.272 51.6699C112.681 52.2485 111.995 52.8143 111.198 53.3291C108.097 55.3347 105.04 55.4653 103.298 55.5186C97.9806 55.6839 93.9519 53.4314 92.1065 52.211C89.7055 54.0408 87.3043 55.8707 84.9044 57.7022C84.8138 57.7712 84.6921 57.7829 84.5899 57.7324C84.4878 57.6819 84.423 57.5778 84.4229 57.4639L84.4317 45.9678C81.4276 42.7837 79.5562 39.7188 78.422 37.5303C76.9374 34.6658 74.8373 30.5108 74.7169 24.8662V24.8614C74.6664 22.4332 74.5922 19.0468 76.6661 15.5283C77.0822 14.8245 78.2363 12.9192 80.4171 11.3125C80.9556 10.9152 81.5563 10.5369 82.2237 10.1992ZM92.3224 9.91311C89.9215 9.46287 86.2552 8.83404 82.4942 10.7354C81.8584 11.057 81.2866 11.4164 80.7735 11.795C78.6914 13.3288 77.5864 15.1503 77.1827 15.833C75.2027 19.1921 75.267 22.4234 75.3175 24.8487V24.8535C75.4348 30.3506 77.476 34.4 78.9552 37.2539C80.0807 39.4256 81.9447 42.4781 84.9503 45.6436C85.0033 45.6994 85.0324 45.7737 85.0323 45.8506C85.0281 49.5189 85.0261 53.1882 85.0235 56.8574C87.3195 55.1057 89.6168 53.3557 91.9132 51.6055L91.9962 51.5606C92.0839 51.53 92.1829 51.5417 92.2628 51.5957C93.9742 52.7524 97.9672 55.0841 103.279 54.919C105.003 54.8663 107.918 54.7366 110.873 52.8252C111.633 52.3342 112.288 51.794 112.852 51.2412C114.684 49.4467 115.551 47.5215 115.912 46.6914L116.121 46.1856C118.161 40.9599 116.559 35.8754 115.415 32.2657C112.876 24.2472 107.821 19.4573 105.681 17.4795C102.812 14.826 98.6794 11.1052 92.3224 9.91311ZM90.9894 37.6524C91.0724 37.5968 91.1772 37.5861 91.2696 37.6241L99.1583 40.8574L99.2345 40.9033C99.3022 40.9588 99.3431 41.0424 99.3438 41.1328C99.3642 43.7706 99.386 46.416 99.4063 49.0557C99.4071 49.1558 99.3582 49.2503 99.2755 49.3067C99.1927 49.363 99.0871 49.3734 98.9942 49.336L91.044 46.1289C90.9306 46.0832 90.8556 45.9729 90.8556 45.8506V37.9014C90.8556 37.8014 90.9063 37.7081 90.9894 37.6524ZM91.4561 45.6475L98.8028 48.6123C98.784 46.1849 98.764 43.7633 98.7452 41.3369C96.3155 40.3412 93.8852 39.3441 91.4561 38.3477V45.6475ZM91.1085 16.5899L91.1798 16.6074C93.8234 17.6441 96.466 18.6823 99.1095 19.7207C99.1954 19.7545 99.2595 19.8251 99.2862 19.9102L99.2999 19.9991C99.3274 25.9676 99.3553 31.9378 99.3819 37.9073C99.3824 38.0072 99.3328 38.1012 99.2501 38.1573C99.1673 38.2133 99.0615 38.2251 98.9688 38.1875L90.9571 34.9385C90.844 34.8926 90.7696 34.7823 90.7696 34.6602V16.8867C90.7698 16.7879 90.819 16.6955 90.9005 16.6397C90.9619 16.5978 91.0364 16.5805 91.1085 16.5899ZM91.3702 34.458L98.7784 37.4619C98.7527 31.7093 98.7268 25.9559 98.7003 20.2041C96.2567 19.2442 93.8138 18.2846 91.3702 17.3262V34.458Z" fill="black"/>
</g>
<path id="Vector_4" d="M17.5858 32.2744C18.4485 32.9895 19.2943 33.4584 20.1338 33.9228C20.988 34.395 21.7337 34.735 22.2857 34.9656C41.1903 42.9045 60.0949 50.8436 78.9996 58.7826C79.7927 59.1057 80.8651 59.63 82.0132 60.4841C83.6985 61.7382 84.6948 63.0702 85.2646 63.844C86.535 65.5692 87.2102 67.1317 87.4851 67.8209C87.8306 68.684 88.3414 69.9923 88.5163 71.7977C88.5616 72.2621 88.5732 72.6507 88.5752 72.9252C88.5531 84.3723 88.531 95.8192 88.5079 107.265C88.4468 107.851 88.334 108.332 88.2329 108.684C87.9148 109.788 87.4451 110.529 87.2892 110.765C87.0912 111.064 86.8542 111.423 86.456 111.794C85.6481 112.549 84.7865 112.79 84.2104 112.943C84.0134 112.996 83.1359 113.22 81.95 113.126C81.0304 113.055 80.3837 112.829 79.2957 112.449C78.473 112.162 77.7621 111.856 77.1764 111.58C58.7858 103.842 40.3962 96.1029 22.0055 88.3649C21.5336 88.1707 20.9301 87.8984 20.2507 87.5244C19.1468 86.9188 18.3832 86.346 18.1989 86.2059C17.8302 85.9268 17.2098 85.4512 16.4936 84.7067C15.8479 84.0345 15.3781 83.5464 14.9368 82.7285C14.8188 82.5093 14.348 81.611 14.1236 80.3039C14.0046 79.6136 13.9909 79.0205 14.0046 78.5923C14.033 60.7111 14.0604 42.8288 14.0889 24.9478C14.0457 25.6776 14.071 26.7509 14.4459 27.9462C15.1769 30.277 16.7801 31.6078 17.5837 32.2744H17.5858Z" fill="#EBECEE"/>
<path id="Vector (Stroke)_3" d="M14.0969 24.6715C14.2365 24.6764 14.3479 24.7991 14.3479 24.9486C14.3473 25.281 14.3464 25.6138 14.3459 25.9462C14.378 26.51 14.4734 27.1631 14.6916 27.8587C15.3944 30.0993 16.9346 31.3858 17.7375 32.0517C17.7396 32.0534 17.7423 32.0542 17.7444 32.0559C18.586 32.7536 19.4116 33.2127 20.2522 33.6777C20.8855 34.0279 21.4589 34.3039 21.9358 34.5163L22.3801 34.7077V34.7087C41.2837 42.6473 60.1873 50.586 79.091 58.5246H79.092C79.8996 58.8536 80.9913 59.3876 82.1604 60.2572H82.1613C83.8785 61.5351 84.8938 62.8934 85.468 63.6734C86.7572 65.4242 87.4428 67.0106 87.7229 67.7127L88.009 68.453C88.3115 69.2832 88.6393 70.3835 88.7737 71.7698L88.802 72.1107C88.825 72.4365 88.8326 72.7135 88.8342 72.9242V72.9263C88.8121 84.3732 88.7899 95.8204 88.7668 107.267C88.7668 107.277 88.7659 107.287 88.7649 107.297C88.7016 107.902 88.5854 108.402 88.4807 108.767C88.1513 109.91 87.6642 110.679 87.5002 110.926L87.4992 110.925C87.3248 111.189 87.1116 111.515 86.7776 111.857L86.6262 112.004C85.7687 112.805 84.854 113.058 84.2727 113.213L84.2717 113.214C84.0888 113.262 83.3711 113.444 82.3742 113.426L81.9309 113.405C80.9756 113.329 80.3001 113.091 79.2151 112.712C78.3831 112.422 77.664 112.115 77.0715 111.834H77.0705C58.684 104.097 40.2989 96.3599 21.9123 88.6237C21.4338 88.4266 20.8213 88.1509 20.132 87.7715V87.7704C19.2933 87.3103 18.6474 86.87 18.2971 86.6171L18.049 86.433C17.7232 86.1863 17.1979 85.7837 16.5822 85.1783L16.3127 84.9064C15.6682 84.2354 15.1735 83.7226 14.7121 82.8674C14.5869 82.6347 14.1012 81.7052 13.8694 80.3547C13.7471 79.6453 13.7316 79.0352 13.7453 78.5927L13.8293 25.9629C13.8079 25.5735 13.8129 25.2249 13.8303 24.9308C13.8392 24.7816 13.9573 24.6669 14.0969 24.6715ZM14.2639 78.5938L14.2629 78.6021C14.2497 79.0152 14.2633 79.5881 14.3781 80.2543C14.5947 81.5159 15.0487 82.3827 15.1604 82.5903C15.5816 83.3711 16.0272 83.8357 16.674 84.509C17.3755 85.2382 17.9828 85.7039 18.3479 85.9803H18.3488C18.5277 86.1162 19.2806 86.6818 20.3694 87.279C20.8711 87.5552 21.331 87.7747 21.7258 87.9482L22.0979 88.1071L22.0998 88.1082L77.2707 111.323L77.2815 111.327L77.7385 111.537C78.2184 111.751 78.7664 111.973 79.3762 112.185L80.1174 112.441C80.7928 112.665 81.3063 112.799 81.969 112.851L82.384 112.871C83.3152 112.889 83.9834 112.719 84.1477 112.676L84.6154 112.541C85.1193 112.379 85.7166 112.118 86.2854 111.587C86.6588 111.238 86.8808 110.903 87.0774 110.605H87.0783C87.2263 110.382 87.6788 109.668 87.9856 108.604C88.0827 108.266 88.1902 107.803 88.2492 107.242C88.2723 95.8042 88.2945 84.3664 88.3166 72.9284L88.3029 72.4474C88.2986 72.3548 88.2937 72.2562 88.2863 72.1526L88.259 71.8274C88.0883 70.0652 87.5903 68.7881 87.2473 67.9313V67.9302C86.9775 67.2539 86.3128 65.7154 85.0617 64.0163C84.4964 63.2484 83.5187 61.9422 81.8654 60.7121C80.7387 59.8739 79.6859 59.3593 78.9074 59.0422L78.9055 59.0411C60.0008 51.1021 41.0952 43.1632 22.1906 35.2243C21.632 34.9909 20.878 34.6474 20.0149 34.1702C19.178 33.7073 18.314 33.2287 17.4319 32.4982C17.4298 32.4966 17.427 32.4957 17.425 32.4941C16.6661 31.8646 15.1491 30.6087 14.342 28.4463C14.3155 45.1618 14.2904 61.8783 14.2639 78.5938Z" fill="black"/>
<path id="Vector_5" d="M19.7498 17.9111C19.4686 18.075 19.1768 18.2546 18.8756 18.4557C18.0888 18.9833 16.6342 20.0566 15.4555 21.6462C14.773 22.5681 14.4265 23.3342 14.2369 24.1023C14.1505 24.4481 14.1094 24.7429 14.0883 24.9475C14.0883 25.283 14.0883 25.6185 14.0862 25.9541V25.9632C14.1199 26.5473 14.2179 27.225 14.4444 27.9459C15.1754 30.2777 16.7795 31.6075 17.5821 32.2742C18.4448 32.9893 19.2906 33.4581 20.1301 33.9225C20.9843 34.3947 21.7301 34.7347 22.282 34.9653L78.996 58.7823C79.7891 59.1054 80.8614 59.6297 82.0095 60.4838C83.6948 61.7378 84.6912 63.0699 85.261 63.8449C86.5313 65.5701 87.2065 67.1314 87.4814 67.8206C87.8269 68.6849 88.3388 69.992 88.5126 71.7986C88.5579 72.2618 88.5695 72.6516 88.5726 72.9249C88.5505 84.372 88.5273 95.8189 88.5052 107.265C88.4441 107.851 88.3325 108.332 88.2303 108.685C87.9122 109.788 87.4424 110.529 87.2865 110.766C87.0875 111.066 86.8515 111.423 86.4534 111.795C87.6636 110.802 88.8739 109.81 90.0841 108.818C90.2632 108.673 90.5002 108.47 90.7635 108.211C91.0184 107.961 91.3239 107.66 91.6356 107.223C92.0706 106.613 92.2876 106.059 92.3993 105.771C92.4941 105.525 92.691 104.972 92.8058 104.229C92.8775 103.76 92.8954 103.352 92.8943 103.038C92.9006 101.944 92.908 100.848 92.9143 99.7529V70.2248C92.9228 69.7028 92.9091 69.0441 92.8353 68.2894C92.7132 67.0399 92.4835 66.1157 92.4182 65.8649C92.0359 64.3702 91.5113 63.315 91.189 62.6744C90.9194 62.1378 90.2611 60.8996 89.1477 59.5269C88.678 58.9483 88.0228 58.1507 86.9864 57.3159C86.11 56.6097 85.3411 56.1838 84.885 55.933C84.1572 55.5341 83.5105 55.2539 83.0112 55.0608C64.2582 47.1681 45.5052 39.2743 26.7522 31.3804C25.8643 31.0755 25.167 30.7059 24.6709 30.4031C24.358 30.2111 23.9083 29.9332 23.3816 29.4665C22.9761 29.1073 22.5495 28.7277 22.1619 28.095C21.9544 27.755 21.6152 27.2002 21.5078 26.4048C21.353 25.2593 21.7775 24.3532 21.9744 23.9488C22.3968 23.0765 22.9677 22.5806 23.4606 22.1512C23.6429 21.993 24.0758 21.6326 24.9384 21.1513" fill="white"/>
<path id="Vector_6" d="M17.5858 32.2748C18.4485 32.99 19.2943 33.4589 20.1338 33.9233C20.988 34.3955 21.7337 34.7355 22.2857 34.9661C41.1903 42.905 60.0949 50.8441 78.9996 58.7831C79.7927 59.1062 80.8651 59.6304 82.0132 60.4845C83.6985 61.7385 84.6948 63.0705 85.2646 63.8445C86.535 65.5697 87.2102 67.1322 87.4851 67.8214C87.8306 68.6845 88.3414 69.9928 88.5163 71.7982C88.5616 72.2625 88.5732 72.6512 88.5752 72.9257C88.5531 84.3728 88.531 95.8197 88.5079 107.266C88.4468 107.851 88.334 108.333 88.2329 108.685C87.9148 109.789 87.4451 110.53 87.2892 110.765C87.0912 111.065 86.8542 111.423 86.456 111.795C85.6481 112.549 84.7865 112.79 84.2104 112.944C84.0134 112.996 83.1359 113.219 81.95 113.127C81.0304 113.055 80.3837 112.829 79.2957 112.449C78.473 112.162 77.7621 111.858 77.1764 111.58C58.7858 103.842 40.3962 96.1034 22.0055 88.3654C21.5336 88.171 20.9301 87.8989 20.2507 87.5248C19.1468 86.9193 18.3832 86.3465 18.1989 86.2064C17.8302 85.9273 17.2098 85.4517 16.4936 84.7072C15.8479 84.035 15.3781 83.5469 14.9368 82.7289C14.8188 82.5097 14.348 81.6115 14.1236 80.3044C14.0046 79.614 13.9909 79.021 14.0046 78.5928C14.033 60.7116 14.0604 42.8293 14.0889 24.9482C14.0457 25.6781 14.071 26.7514 14.4459 27.9467C15.1769 30.2774 16.7801 31.6083 17.5837 32.2748H17.5858Z" fill="#EBECEF"/>
<path id="Vector (Stroke)_4" d="M19.6741 17.6453C19.7892 17.6076 19.9169 17.6607 19.9768 17.7781C20.0451 17.9126 19.9989 18.0814 19.8733 18.1545L19.4504 18.4086C19.3068 18.4978 19.1611 18.592 19.0129 18.691L19.012 18.6899C18.235 19.2109 16.8101 20.2653 15.6584 21.8185C14.9947 22.7151 14.6667 23.4475 14.4875 24.1733H14.4866C14.4054 24.4982 14.3662 24.7761 14.3459 24.9701C14.3459 25.2946 14.347 25.62 14.345 25.9457L14.3811 26.3849C14.4317 26.8392 14.5262 27.3367 14.6897 27.8572C15.3938 30.1031 16.9396 31.3892 17.7405 32.0544C18.5821 32.7521 19.4086 33.2112 20.2493 33.6762C21.0938 34.1431 21.8311 34.4796 22.3762 34.7072L79.0872 58.523H79.0881C79.8958 58.8521 80.9882 59.3858 82.1575 60.2557C83.8746 61.5334 84.8897 62.8916 85.4641 63.6729C86.7532 65.4236 87.4388 67.0089 87.719 67.7112C88.0668 68.5813 88.5918 69.92 88.7698 71.7694C88.8162 72.2437 88.8281 72.6429 88.8313 72.9217V72.9248C88.8092 84.3676 88.786 95.8236 88.7639 107.265C88.7639 107.275 88.764 107.285 88.7629 107.295C88.6997 107.903 88.584 108.401 88.4778 108.767C88.2976 109.392 88.0689 109.904 87.8733 110.281C88.5577 109.72 89.2426 109.159 89.927 108.598L89.928 108.597C90.1025 108.455 90.3325 108.258 90.5881 108.007C90.8422 107.757 91.1333 107.471 91.4299 107.055C91.8442 106.474 92.051 105.946 92.1604 105.664C92.251 105.429 92.4397 104.898 92.55 104.184C92.6189 103.733 92.6361 103.341 92.635 103.04V103.037C92.6382 102.489 92.6423 101.941 92.6458 101.394C92.6492 100.847 92.6524 100.3 92.6555 99.7532V70.2197C92.6639 69.707 92.6499 69.0593 92.5774 68.3177C92.4573 67.089 92.2322 66.1808 92.1692 65.9388L92.1682 65.9378C91.7939 64.4744 91.281 63.4416 90.9612 62.806C90.6968 62.2797 90.0486 61.0604 88.9524 59.7088C88.4856 59.1338 87.8443 58.3538 86.8303 57.537C86.1867 57.0185 85.6024 56.6541 85.1594 56.3993L84.7668 56.1797C84.0506 55.7872 83.4143 55.5113 82.9231 55.3213L82.9163 55.3181C64.1666 47.4268 45.4169 39.5349 26.6672 31.6424C25.9886 31.4089 25.4186 31.1386 24.9622 30.8875L24.5422 30.6438C24.2263 30.45 23.7604 30.162 23.2161 29.6797C22.8096 29.3197 22.3562 28.9174 21.9456 28.2472V28.2461C21.736 27.9028 21.3674 27.3045 21.2512 26.4445C21.084 25.2068 21.5435 24.2325 21.7444 23.8199C22.1937 22.8924 22.8037 22.3655 23.2971 21.9356H23.2981C23.4923 21.7672 23.9394 21.3962 24.8186 20.9057L24.8674 20.8847C24.9832 20.8493 25.1104 20.904 25.1682 21.0228C25.2343 21.1585 25.1847 21.3264 25.0579 21.3971L24.761 21.5676C24.1123 21.9524 23.7727 22.2358 23.6233 22.3654C23.1311 22.7941 22.5997 23.2597 22.2043 24.0761V24.0771C22.0114 24.4734 21.6216 25.3116 21.7639 26.365C21.8625 27.0953 22.1727 27.6062 22.3782 27.9429L22.5168 28.1552C22.8429 28.6267 23.1924 28.9397 23.5461 29.2531C24.0545 29.7035 24.4884 29.9717 24.7981 30.1618H24.7991C25.2225 30.4203 25.7968 30.7288 26.5149 31.0014L26.8313 31.1165L26.8469 31.1217C45.5973 39.0145 64.3475 46.9079 83.0979 54.7995H83.0989C83.6063 54.9958 84.2638 55.281 85.0032 55.6862L85.4055 55.911C85.8617 56.1734 86.4703 56.5534 87.1409 57.0936H87.1418C88.2007 57.9466 88.8704 58.7628 89.343 59.3449C90.4733 60.7384 91.1424 61.9955 91.4172 62.5425C91.742 63.188 92.278 64.2656 92.6682 65.7914H92.6672C92.7351 66.0522 92.969 66.9915 93.093 68.2602C93.1681 69.0277 93.1817 69.6979 93.1731 70.2291V99.7542L93.1536 103.04C93.1546 103.365 93.135 103.788 93.0608 104.274V104.275C92.9417 105.045 92.738 105.619 92.6389 105.877L92.6379 105.878C92.5238 106.172 92.2965 106.752 91.8411 107.391C91.5144 107.848 91.1944 108.164 90.9387 108.415C90.6682 108.682 90.424 108.888 90.2405 109.038C89.0304 110.029 87.8207 111.022 86.6106 112.014C86.4997 112.105 86.3417 112.086 86.2532 111.971C86.1647 111.855 86.1781 111.684 86.2834 111.586C86.6564 111.238 86.8773 110.903 87.0754 110.605C87.2242 110.379 87.6763 109.666 87.9827 108.603L88.0579 108.325C88.1315 108.029 88.202 107.667 88.2463 107.248C88.2684 95.8048 88.2916 84.3728 88.3137 72.928C88.3114 72.727 88.3045 72.4625 88.2825 72.1521L88.2551 71.8269C88.0855 70.0637 87.5865 68.7881 87.2434 67.9297C86.9737 67.2536 86.3091 65.7152 85.0579 64.0159C84.4926 63.2471 83.5147 61.9418 81.8616 60.7116C80.7347 59.8733 79.6821 59.3579 78.9036 59.0406H78.9016V59.0396L22.1877 35.2227V35.2238C21.6291 34.9904 20.8747 34.6462 20.011 34.1687C19.1729 33.7051 18.3076 33.2259 17.4241 32.4936L17.4231 32.4925C16.6185 31.8243 14.9562 30.4509 14.1985 28.0339V28.0328C13.9638 27.2856 13.8622 26.5837 13.8274 25.9802V25.952C13.8295 25.6175 13.8293 25.2828 13.8293 24.9471C13.8293 24.937 13.8303 24.9269 13.8313 24.9168C13.8535 24.702 13.896 24.3925 13.9866 24.0301C14.1867 23.22 14.5513 22.4202 15.2522 21.4735H15.2532C16.4586 19.8479 17.9418 18.7546 18.7385 18.2204L19.1907 17.9297C19.3386 17.8379 19.4838 17.7503 19.6262 17.6673L19.6741 17.6453Z" fill="black"/>
<path id="Vector (Stroke)_5" d="M14.0969 24.671C14.2365 24.6759 14.3479 24.7986 14.3479 24.9481C14.3473 25.2805 14.3464 25.6133 14.3459 25.9457C14.378 26.5095 14.4734 27.1626 14.6916 27.8582C15.3944 30.099 16.9346 31.3853 17.7375 32.0513C17.7396 32.0529 17.7423 32.0537 17.7444 32.0554C18.586 32.7531 19.4116 33.2123 20.2522 33.6772C20.8855 34.0274 21.4589 34.3034 21.9358 34.5159L22.3801 34.7072V34.7083C41.2837 42.6468 60.1873 50.5855 79.091 58.5241H79.092C79.8996 58.8531 80.9913 59.387 82.1604 60.2567H82.1613C83.8786 61.5346 84.8938 62.893 85.468 63.6729C86.7572 65.4237 87.4428 67.0101 87.7229 67.7122L88.009 68.4525C88.3115 69.2827 88.6393 70.383 88.7737 71.7694L88.802 72.1102C88.825 72.436 88.8326 72.713 88.8342 72.9238V72.9258C88.8121 84.3729 88.7899 95.8203 88.7668 107.266C88.7668 107.276 88.7659 107.286 88.7649 107.296C88.7016 107.903 88.5854 108.401 88.4807 108.766C88.2337 109.623 87.8973 110.269 87.676 110.644L87.5002 110.926C87.3012 111.226 87.0494 111.609 86.6262 112.004C85.7687 112.805 84.8544 113.058 84.2727 113.213C84.0621 113.269 83.1549 113.499 81.9309 113.403C80.9756 113.329 80.3 113.092 79.2151 112.713C78.3828 112.423 77.6635 112.114 77.0715 111.835H77.0705C58.684 104.098 40.2989 96.3595 21.9123 88.6232C21.4338 88.4262 20.8212 88.1504 20.132 87.771V87.7699C19.2933 87.3098 18.6474 86.8695 18.2971 86.6166L18.049 86.4325C17.7232 86.1858 17.1979 85.7832 16.5822 85.1778L16.3127 84.9059C15.6682 84.2349 15.1735 83.723 14.7121 82.8679V82.8669C14.5868 82.634 14.1012 81.7045 13.8694 80.3542C13.7471 79.6448 13.7316 79.0347 13.7453 78.5922L13.8293 25.9624C13.8079 25.573 13.8129 25.2244 13.8303 24.9304C13.8392 24.7811 13.9573 24.6664 14.0969 24.671ZM14.2639 78.5933L14.2629 78.6017C14.2497 79.0147 14.2633 79.5876 14.3781 80.2538C14.5947 81.5153 15.0486 82.3821 15.1604 82.5898C15.5816 83.3705 16.0272 83.8352 16.674 84.5085C17.3755 85.2377 17.9828 85.7034 18.3479 85.9798H18.3488C18.5277 86.1157 19.2806 86.6813 20.3694 87.2785C20.8711 87.5547 21.3311 87.7742 21.7258 87.9477L22.0979 88.1066L22.0998 88.1077C40.4904 95.8456 58.8803 103.584 77.2707 111.322L77.2805 111.326C77.8598 111.6 78.5631 111.902 79.3762 112.186C80.4669 112.567 81.0855 112.781 81.969 112.85C83.1165 112.94 83.9639 112.723 84.1477 112.674C84.7181 112.523 85.5271 112.294 86.2854 111.586C86.6585 111.238 86.8813 110.902 87.0783 110.605C87.2272 110.379 87.6792 109.666 87.9856 108.602C88.0826 108.264 88.1902 107.803 88.2492 107.241C88.2723 95.8041 88.2945 84.3661 88.3166 72.9279L88.3029 72.4469C88.2986 72.3543 88.2937 72.2558 88.2863 72.1521L88.259 71.8269C88.0883 70.0647 87.5903 68.7876 87.2473 67.9308V67.9297C86.9775 67.2534 86.3128 65.7149 85.0617 64.0158C84.4964 63.2481 83.5185 61.9427 81.8654 60.7126C80.7386 59.8743 79.686 59.3589 78.9074 59.0417L78.9055 59.0406C60.0008 51.1017 41.0952 43.1627 22.1906 35.2238C21.632 34.9904 20.878 34.6469 20.0149 34.1697C19.178 33.7068 18.314 33.2282 17.4319 32.4978C17.4298 32.4962 17.427 32.4952 17.425 32.4936C16.6661 31.8641 15.1491 30.6083 14.342 28.4458C14.3155 45.1613 14.2904 61.8778 14.2639 78.5933Z" fill="black"/>
<path id="Vector_7" d="M113.987 79.7917C113.975 79.8787 113.954 80.0301 113.878 80.1985C113.812 80.3464 113.725 80.4482 113.552 80.6448C113.447 80.7645 113.354 80.8594 113.287 80.9238C106.017 86.9399 98.7447 92.956 91.4738 98.9711C91.2937 99.0998 91.0282 99.2682 90.6849 99.4094C90.2235 99.6014 89.8454 99.6534 89.4514 99.7054C88.8532 99.7833 88.3844 99.763 88.2096 99.7528C87.7261 99.7245 87.0225 99.6286 86.2094 99.3144C82.3037 97.6639 78.3981 96.012 74.4914 94.3615C74.366 94.3242 74.1965 94.2644 74.0048 94.1706C73.6108 93.9762 73.3601 93.7514 73.2948 93.6915C73.1095 93.522 72.9567 93.382 72.8377 93.1334C72.7397 92.9312 72.705 92.7425 72.6892 92.6476C72.6555 92.4555 72.6534 92.2917 72.6586 92.1731C72.6713 86.993 72.6829 81.8129 72.6945 76.6339C72.7039 76.7322 72.725 76.8339 72.7598 76.9367C72.8883 77.3108 73.1495 77.5186 73.4286 77.7423C73.6772 77.94 73.9121 78.0564 74.0753 78.1242C77.9104 79.7375 81.7455 81.3497 85.5795 82.963C86.0503 83.1867 86.4738 83.3279 86.8087 83.4207C87.5618 83.6262 88.1559 83.6578 88.336 83.6647C88.5941 83.6749 88.9985 83.6895 89.5252 83.6014C89.7506 83.563 90.154 83.4929 90.6459 83.2817C91.0577 83.1054 91.3548 82.9054 91.5675 82.7609C91.8108 82.5959 92.0078 82.4377 92.1521 82.3146C99.0428 76.6294 105.932 70.9432 112.822 65.2582C112.908 65.1915 113.03 65.0921 113.168 64.9611C113.419 64.7238 113.592 64.5588 113.724 64.2911C113.773 64.1916 113.879 63.9702 113.892 63.6641C113.926 68.9187 113.961 74.1734 113.994 79.4291C114.002 79.5195 114.006 79.6449 113.987 79.7917Z" fill="#EBECEF"/>
<path id="Vector (Stroke)_6" d="M113.898 63.3868C114.038 63.3899 114.15 63.5118 114.151 63.6618C114.185 68.9159 114.219 74.1706 114.252 79.426C114.26 79.5298 114.264 79.6687 114.244 79.8297V79.8318C114.231 79.9231 114.206 80.1104 114.112 80.319L114.111 80.318C114.068 80.4144 114.018 80.4964 113.957 80.5773L113.741 80.8345C113.631 80.9599 113.533 81.0601 113.46 81.1294C113.456 81.1339 113.451 81.1389 113.446 81.143C106.176 87.1591 98.9031 93.1749 91.6322 99.1899C91.6275 99.1939 91.6226 99.1979 91.6176 99.2014C91.4264 99.3381 91.1434 99.5163 90.7777 99.6668L90.7787 99.6678C90.285 99.8732 89.8785 99.9283 89.4828 99.9805C89.0188 100.041 88.6298 100.045 88.3871 100.038L88.1957 100.03C87.6937 100 86.9638 99.9002 86.1215 99.5747L86.1147 99.5727V99.5716C82.2118 97.9223 78.3094 96.2718 74.4057 94.6225C74.2716 94.5818 74.0954 94.5194 73.8979 94.4228L73.8969 94.4218C73.5789 94.2649 73.3468 94.0895 73.2192 93.9826L73.1264 93.9021C72.9426 93.734 72.7536 93.5621 72.6088 93.26C72.4937 93.0223 72.4524 92.8031 72.435 92.6985L72.4125 92.5417C72.3959 92.3909 72.3954 92.2609 72.3998 92.16C72.4125 86.984 72.4244 81.8081 72.4359 76.6331C72.4363 76.4856 72.5445 76.3644 72.682 76.3571C72.8195 76.3498 72.9385 76.4593 72.9526 76.6059C72.9598 76.6812 72.976 76.7602 73.0033 76.8412L73.0443 76.9426C73.1515 77.1686 73.3331 77.3184 73.5844 77.5198H73.5834C73.8084 77.6987 74.0214 77.8045 74.1693 77.8659H74.1703L85.6742 82.7052L85.685 82.7094L86.017 82.8568C86.3393 82.9906 86.6303 83.0844 86.8734 83.1517H86.8725C87.6006 83.3505 88.1748 83.3805 88.3451 83.387H88.3461C88.5998 83.397 88.9838 83.4111 89.4848 83.3274L89.6791 83.2918C89.9008 83.248 90.2021 83.1736 90.5502 83.0241L90.8217 82.8966C91.0743 82.7667 91.2715 82.6335 91.4291 82.5264L91.7455 82.2974C91.8394 82.2248 91.9212 82.157 91.9906 82.0977L91.9945 82.0946C98.8851 76.4095 105.775 70.7239 112.664 65.0389L112.67 65.0337C112.751 64.9707 112.867 64.8769 112.996 64.7534H112.997C113.252 64.5124 113.389 64.3779 113.496 64.1616C113.54 64.0722 113.624 63.895 113.634 63.6513L113.641 63.5969C113.67 63.4738 113.775 63.3842 113.898 63.3868ZM113.641 64.8674C113.548 64.9691 113.448 65.065 113.339 65.1675C113.197 65.303 113.07 65.4067 112.98 65.477C106.091 71.1611 99.2025 76.8464 92.3129 82.5306C92.1633 82.6583 91.9593 82.8234 91.7065 82.9949C91.4912 83.1411 91.1775 83.3524 90.7426 83.5386C90.3529 83.706 90.0154 83.7899 89.7738 83.8377L89.5658 83.8753C89.0139 83.9676 88.5889 83.9515 88.3266 83.9412C88.1597 83.9348 87.6691 83.9087 87.0287 83.7603L86.7445 83.6892C86.4014 83.5942 85.9673 83.4491 85.4848 83.2207C81.6509 81.6075 77.8159 79.9958 73.9809 78.3825V78.3814C73.8026 78.3073 73.5463 78.1802 73.2748 77.9642H73.2738C73.17 77.881 73.0583 77.7916 72.9506 77.6882C72.9398 82.516 72.9292 87.3448 72.9174 92.1736V92.1862C72.9129 92.289 72.9147 92.4304 72.9438 92.5961L72.9447 92.5992C72.9555 92.6638 72.9745 92.7675 73.017 92.8847L73.0678 93.0059V93.007C73.1608 93.2013 73.2767 93.31 73.4633 93.4807L73.6733 93.6522C73.7829 93.7325 73.9308 93.8284 74.1117 93.9178C74.2002 93.961 74.2843 93.9966 74.3598 94.0255L74.5609 94.0945L74.5863 94.1039C78.493 95.7544 82.3995 97.4056 86.3051 99.0561H86.3041C87.0851 99.3569 87.7604 99.4483 88.224 99.4754C88.391 99.4851 88.8431 99.5057 89.4203 99.4304L89.7084 99.3897C89.9923 99.3457 90.2697 99.285 90.5912 99.1513L90.5922 99.1502C90.9103 99.0193 91.1567 98.8627 91.3256 98.7424C98.5904 92.7324 105.857 86.7212 113.121 80.7101C113.182 80.6509 113.267 80.5646 113.364 80.455C113.542 80.2526 113.599 80.1808 113.645 80.0785V80.0775C113.703 79.9496 113.719 79.834 113.731 79.7512C113.746 79.6319 113.743 79.5298 113.737 79.4553C113.736 79.4474 113.736 79.4392 113.736 79.4313C113.705 74.5762 113.673 69.7215 113.641 64.8674Z" fill="black"/>
<path id="Vector_8" d="M73.3078 75.1271C78.3932 77.2488 83.4775 79.3694 88.5628 81.4912C95.7874 75.5315 103.012 69.5707 110.237 63.6112C110.237 62.7503 110.24 61.8882 110.241 61.0273C110.842 61.251 111.444 61.4735 112.045 61.6973C112.225 61.7662 112.487 61.8803 112.789 62.0588C113.213 62.3107 113.465 62.4599 113.661 62.7819C113.723 62.8836 113.918 63.2146 113.899 63.6643C113.885 63.9704 113.779 64.193 113.73 64.2913C113.599 64.559 113.425 64.724 113.175 64.9613C113.037 65.0923 112.915 65.1917 112.829 65.2595C105.939 70.9446 99.0495 76.6297 92.1588 82.3148C92.0134 82.439 91.8175 82.5961 91.5742 82.761C91.3614 82.9056 91.0644 83.1057 90.6526 83.2819C90.1607 83.4932 89.7583 83.5632 89.5319 83.6005C89.0052 83.6886 88.6007 83.6751 88.3427 83.6637C88.1626 83.657 87.5695 83.6253 86.8164 83.4197C86.4804 83.3282 86.0581 83.1869 85.5872 82.9622C81.7522 81.35 77.9171 79.7365 74.0831 78.1244C73.9198 78.0566 73.6849 77.9403 73.4363 77.7414C73.1572 77.5188 72.896 77.3098 72.7675 76.9359C72.5558 76.319 72.8665 75.7281 72.9234 75.6196C73.0477 75.3824 73.2015 75.2219 73.3099 75.1248L73.3078 75.1271Z" fill="white"/>
<path id="Vector (Stroke)_7" d="M110.327 60.7659C110.924 60.9884 111.532 61.2123 112.13 61.4352L112.132 61.4362C112.323 61.509 112.598 61.6288 112.914 61.8158L112.915 61.8168C113.329 62.0623 113.642 62.2413 113.878 62.6303C113.948 62.7439 114.18 63.1371 114.158 63.677V63.6781C114.141 64.0438 114.014 64.3084 113.958 64.4194L113.959 64.4205C113.803 64.7398 113.592 64.9368 113.347 65.1692C113.201 65.3077 113.072 65.4124 112.983 65.4829C106.096 71.1658 99.2077 76.8473 92.3198 82.5302L92.3207 82.5312C92.1699 82.6601 91.9662 82.824 91.7133 82.9955C91.4979 83.1419 91.1836 83.352 90.7485 83.5382C90.2294 83.7611 89.8047 83.8365 89.5717 83.8749V83.8738C89.0204 83.966 88.5964 83.9524 88.3325 83.9407V83.9397C88.1404 83.9325 87.528 83.9005 86.7524 83.6887C86.4073 83.5947 85.9751 83.4486 85.4926 83.2192C81.658 81.6072 77.8232 79.994 73.9897 78.3821C73.8558 78.3264 73.6775 78.2414 73.4819 78.1102L73.2817 77.9638C73.0099 77.747 72.6836 77.4937 72.5248 77.0321V77.0311C72.2687 76.2841 72.6426 75.5884 72.6977 75.4835C72.8421 75.2081 73.0205 75.0233 73.144 74.9126C73.227 74.8382 73.3405 74.8297 73.4311 74.8812C78.461 76.9797 83.4902 79.0764 88.52 81.175C95.6725 75.2747 102.826 69.3743 109.979 63.4742C109.979 62.6588 109.982 61.8413 109.983 61.0273C109.983 60.9378 110.023 60.8534 110.091 60.8015C110.16 60.7496 110.248 60.7365 110.327 60.7659ZM110.497 63.6112C110.497 63.6971 110.459 63.7783 110.395 63.8307C103.17 69.7902 95.9456 75.7508 88.7211 81.7104C88.6493 81.7696 88.5537 81.7843 88.4692 81.7491C83.4343 79.6483 78.4006 77.5486 73.3657 75.448C73.2942 75.5264 73.2167 75.6278 73.1498 75.7554H73.1489C73.0899 75.8678 72.8443 76.3545 73.0112 76.8408C73.1095 77.1262 73.3052 77.2912 73.5913 77.5194L73.7573 77.6407C73.8648 77.7128 73.9658 77.7685 74.0541 77.8111L74.1772 77.8655L74.1782 77.8665L85.6821 82.7037L85.6928 82.709L86.0248 82.8575C86.3467 82.9916 86.637 83.085 86.8803 83.1513C87.609 83.3502 88.1823 83.3802 88.352 83.3866H88.3539C88.606 83.3976 88.9911 83.4109 89.4926 83.3269L89.686 83.2924C89.9072 83.2492 90.2085 83.1745 90.5571 83.0248C90.9454 82.8585 91.2258 82.6699 91.436 82.527C91.6695 82.3688 91.8577 82.2178 91.9975 82.0983L92.0014 82.0952C98.892 76.4101 105.781 70.7246 112.671 65.0395L112.676 65.0364C112.759 64.9714 112.874 64.8773 113.003 64.7541C113.258 64.5121 113.396 64.378 113.501 64.1622L113.502 64.1612C113.546 64.0746 113.63 63.8953 113.641 63.6509C113.656 63.2922 113.5 63.0237 113.445 62.9336C113.29 62.6789 113.099 62.559 112.664 62.301V62.302C112.378 62.1327 112.13 62.024 111.96 61.959L110.499 61.4153C110.498 62.1477 110.497 62.8793 110.497 63.6112Z" fill="black"/>
</g>
</g>
</svg>
