<svg width="64" height="65" viewBox="0 0 64 65" fill="none" xmlns="http://www.w3.org/2000/svg">
<g id="illustration / deriv / light / ic-warning" clip-path="url(#clip0_408_463)">
<path id="Vector" opacity="0.2" fill-rule="evenodd" clip-rule="evenodd" d="M64 32.1328C64 14.4598 49.672 0.132812 32 0.132812C14.328 0.132812 0 14.4608 0 32.1328C0 49.8048 14.328 64.1328 32 64.1328C49.672 64.1328 64 49.8048 64 32.1328Z" fill="#FFAD3A"/>
<g id="Vector_2" style="mix-blend-mode:multiply">
<path fill-rule="evenodd" clip-rule="evenodd" d="M55 32.1328C55 19.4308 44.702 9.13281 32 9.13281C19.298 9.13281 9 19.4308 9 32.1328C9 44.8348 19.298 55.1328 32 55.1328C44.702 55.1328 55 44.8348 55 32.1328Z" fill="#FFAD3A"/>
</g>
<path id="Vector_3" fill-rule="evenodd" clip-rule="evenodd" d="M32.6181 34.542C33.0411 34.513 33.4191 34.318 33.6891 34.026C34.0191 33.67 34.0891 33.208 34.1161 33.027L34.1211 32.994L35.0531 27.211C35.0901 26.983 35.1081 26.751 35.1081 26.52V23.482C35.1081 22.744 34.9321 21.576 33.9011 21C33.4638 20.7536 32.9691 20.627 32.4671 20.633C31.9831 20.6377 31.5083 20.7654 31.0871 21.004C30.0631 21.58 29.8911 22.742 29.8911 23.474V26.514C29.8911 26.75 29.9101 26.986 29.9481 27.219L30.8981 32.995L30.9031 33.028C30.9311 33.21 31.0031 33.675 31.3371 34.031C31.6551 34.371 32.1201 34.575 32.6181 34.542ZM29.8901 41.787V42.261C29.8901 42.859 30.0731 43.486 30.5671 43.959C31.0571 44.429 31.7351 44.633 32.4981 44.633C33.2621 44.633 33.9411 44.428 34.4321 43.958C34.9261 43.485 35.1081 42.858 35.1081 42.261V41.787C35.1081 41.189 34.9261 40.562 34.4321 40.089C33.9411 39.619 33.2621 39.415 32.4981 39.415C31.7361 39.415 31.0581 39.619 30.5671 40.089C30.0731 40.562 29.8911 41.189 29.8911 41.787H29.8901Z" fill="white"/>
</g>
<defs>
<clipPath id="clip0_408_463">
<rect width="64" height="65" fill="white"/>
</clipPath>
</defs>
</svg>
