<svg width="58" height="48" viewBox="0 0 58 48" fill="none" xmlns="http://www.w3.org/2000/svg">
<g id="illustration / deriv / light / other-payment-method" clip-path="url(#clip0_2253_369)">
<g id="Vector">
<path d="M8.379 13.452H13.127V9.774H8.379V13.452Z" fill="#84AAAE"/>
<path d="M30.815 33.194L30.908 33C31.468 31.161 32.864 30.387 34.167 29.806C35.9664 29.072 37.905 28.7419 39.846 28.839C40.311 28.839 40.776 28.839 41.242 28.936H41.615C41.615 28.839 41.615 28.742 41.522 28.548C41.429 27.388 41.708 25.742 43.57 24.484C44.687 23.806 45.897 23.323 47.387 23.032C48.132 22.936 48.783 22.839 49.342 22.839L49.901 22.742H49.994C51.297 22.742 52.6 22.839 53.904 23.129V3.677C53.997 1.452 52.6 0 50.459 0H3.538C1.49 0 0.465 0.774 0 2.806V31.258C0 31.548 0.186 31.742 0.28 32.226C0.559 33.484 1.769 34.646 3.165 34.646H30.815V33.194ZM29.233 24.194H36.96V27.387H29.233V24.194ZM12.754 27.387H5.027V24.194H12.754V27.387ZM16.292 14.032C16.292 15.581 15.082 16.742 13.592 16.742H10.706C9.776 16.742 8.92728 16.742 7.82 16.742C6.144 16.742 5.12 15.677 5.12 14.129V9.581C5.12 7.839 6.33 6.774 7.82 6.774H13.592C15.268 6.774 16.292 7.839 16.292 9.484V14.032ZM24.764 27.194H17.037V24H24.764V27.194Z" fill="#84AAAE"/>
<path d="M32.212 33.387C32.584 32.129 33.608 31.548 34.726 31.064C36.401 30.387 38.077 30.097 39.846 30.194C40.498 30.194 41.149 30.29 41.801 30.29V37.935C41.149 37.935 40.591 38.032 39.939 38.032C38.17 38.032 36.401 37.839 34.726 37.162C34.353 36.968 34.074 36.871 33.702 36.677C33.05 36.29 32.492 35.71 32.212 34.935V33.387ZM32.212 41.322C32.212 41.225 32.305 41.129 32.398 40.935C32.77 41.515 33.143 42 33.701 42.29C34.725 42.967 35.843 43.258 36.96 43.451C38.542 43.741 40.032 43.741 41.615 43.548H41.708C41.708 44.225 41.615 45 41.988 45.677C41.522 45.677 41.056 45.774 40.591 45.774C38.636 45.87 36.681 45.677 34.819 45C34.446 44.903 34.167 44.71 33.794 44.516C32.957 44.032 32.304 43.548 32.026 42.58C32.212 42.193 32.212 41.71 32.212 41.322ZM32.212 37.355C32.212 37.258 32.305 37.065 32.398 36.968C33.329 38.419 34.818 39 36.401 39.388C38.079 39.7734 39.8102 39.8714 41.521 39.678H41.801V41.903C41.615 41.903 41.429 42 41.149 42C39.009 42.194 36.867 42 34.819 41.226C34.167 40.936 33.609 40.646 33.143 40.161C32.77 39.774 32.491 39.387 32.305 38.806C32.212 38.226 32.212 37.839 32.212 37.355ZM50.087 24.193C52.321 24.193 54.183 24.483 55.859 25.258C56.417 25.548 56.976 25.838 57.441 26.419C57.814 26.806 58 27.29 58 27.871V28.839C57.907 29.419 57.535 29.806 57.162 30.193C56.324 30.968 55.207 31.355 54.183 31.645C52.6 32.032 51.018 32.129 49.342 32.032C47.852 31.935 46.456 31.645 45.152 30.968C44.594 30.678 44.035 30.29 43.662 29.806C43.291 29.419 43.197 28.936 43.104 28.355C43.011 27.097 43.57 26.322 44.501 25.645C45.525 24.968 46.642 24.581 47.852 24.387C48.69 24.29 49.528 24.29 50.087 24.193ZM43.197 34.935C43.849 36 44.873 36.58 45.897 36.967C47.759 37.645 49.714 37.838 51.762 37.645C53.1028 37.5607 54.4222 37.2668 55.672 36.774C56.417 36.484 57.069 36 57.628 35.322C57.721 35.225 57.814 35.032 57.907 34.935C57.907 35.032 58 35.032 58 35.032C58.186 36.193 58.186 37.161 57.348 37.935C56.697 38.515 55.858 38.903 55.021 39.193C53.252 39.773 51.483 39.967 49.714 39.871C48.318 39.774 47.014 39.581 45.711 39C44.966 38.71 44.315 38.322 43.756 37.742C43.291 37.258 43.104 36.774 43.104 36.096C43.011 35.709 42.918 35.321 43.197 34.935ZM43.197 43.065C44.035 44.516 45.525 45 46.921 45.387C48.504 45.871 50.18 45.871 51.856 45.774C53.252 45.677 54.648 45.387 55.952 44.71C56.697 44.322 57.348 43.839 57.721 43.065C57.814 43.355 57.814 43.548 57.814 43.645V44.71C57.814 45.193 57.534 45.58 57.255 45.87C56.697 46.548 55.952 46.935 55.114 47.226C53.438 47.903 51.669 48.096 49.807 48C48.411 48 47.014 47.71 45.618 47.226C44.873 46.936 44.222 46.548 43.57 46.064C42.825 45.29 42.825 43.936 43.197 43.065Z" fill="#E0F0F0"/>
<path d="M57.814 30.968C57.814 31.064 57.814 31.064 57.814 30.968C58.094 31.936 58.094 33.097 57.348 33.871C56.6277 34.5345 55.7695 35.0303 54.835 35.323C52.973 35.903 51.018 36.097 49.063 35.903C47.759 35.807 46.456 35.516 45.246 34.935C44.78 34.645 44.221 34.355 43.849 34.065C43.291 33.581 43.011 33 43.011 32.225C43.011 31.839 43.011 31.452 43.197 31.065C44.128 32.613 45.618 33.097 47.201 33.484C48.876 33.871 50.459 33.968 52.135 33.774C53.438 33.581 54.835 33.29 56.045 32.71C56.697 32.226 57.348 31.742 57.814 30.968ZM57.814 39.097C57.814 39.193 57.907 39.193 57.907 39.29C58.093 40.548 58.093 41.42 57.069 42.29C56.231 42.968 55.3 43.355 54.276 43.645C52.6 44.129 50.925 44.225 49.156 44.032C47.759 43.935 46.456 43.645 45.246 43.064C44.687 42.774 44.128 42.484 43.663 42C43.197 41.516 43.011 41.032 43.011 40.355C43.011 39.968 43.011 39.581 43.197 39.097C43.29 39.193 43.384 39.387 43.477 39.484C44.035 40.161 44.687 40.548 45.432 40.935C46.549 41.419 47.759 41.71 48.969 41.806C50.925 42 52.786 41.903 54.649 41.226C55.1931 41.0412 55.722 40.8146 56.231 40.548C56.9044 40.2524 57.461 39.7422 57.814 39.097Z" fill="#E0F0F0"/>
</g>
</g>
<defs>
<clipPath id="clip0_2253_369">
<rect width="58" height="48" fill="white"/>
</clipPath>
</defs>
</svg>
