<svg width="128" height="128" viewBox="0 0 128 128" fill="none" xmlns="http://www.w3.org/2000/svg">
<g id="illustration / deriv / light / lock-error">
<g id="vector">
<g id="lock">
<path id="Vector" d="M16.3029 44.7726C16.3117 43.0893 17.2761 41.4235 19.1699 40.7659L34.5041 35.4967C36.8713 34.6813 39.4577 34.7339 41.7898 35.637L96.8667 56.9155C98.7078 57.6257 99.5758 59.4054 99.4005 61.0888H99.4268V104.856H99.4092C99.5407 106.329 98.8744 107.872 97.3664 108.705L95.4814 109.748C85.8723 115.07 74.3783 115.762 64.1993 111.633L18.9682 93.2915C17.4076 92.6602 16.5484 91.3451 16.3555 89.9423L16.3117 89.9248V44.7639L16.3029 44.7726Z" fill="#EBECEF"/>
<path id="Vector (Stroke)" fill-rule="evenodd" clip-rule="evenodd" d="M41.8987 35.3568C39.5008 34.4284 36.8415 34.3743 34.4071 35.2128L19.0732 40.4819C17.0471 41.1854 16.0131 42.9737 16.0037 44.7708L15.9999 45.5004L16.0125 45.4878V90.1276L16.0864 90.1572C16.338 91.5906 17.252 92.9203 18.8565 93.5693L64.0873 111.911C74.3502 116.074 85.9392 115.376 95.6276 110.01L97.5122 108.967C99.0223 108.133 99.7472 106.634 99.7257 105.155H99.7275V60.7885H99.7215C99.7699 59.0872 98.836 57.353 96.9756 56.6354C96.9756 56.6354 96.9755 56.6353 96.9756 56.6354L41.8987 35.3568ZM99.1275 61.3885H99.0684L99.1029 61.0574C99.2658 59.4934 98.4603 57.8511 96.7595 57.1951L41.6825 35.9165C39.4161 35.039 36.9025 34.9879 34.6025 35.7801L19.269 41.049C17.601 41.6282 16.7092 43.0433 16.6125 44.5247V89.7214L16.6297 89.7283L16.6535 89.9012C16.8331 91.2076 17.6296 92.4258 19.0815 93.0131L64.3128 111.355C74.4078 115.45 85.807 114.763 95.3369 109.485L97.2219 108.442C98.6165 107.672 99.2331 106.248 99.1112 104.882L99.082 104.555H99.1275V61.3885Z" fill="black"/>
<path id="Vector_2" d="M19.1804 40.7745L30.7008 36.8117V17.3743C30.7008 8.05455 40.1871 1.73324 48.7879 5.31911L71.6884 14.8668C79.6668 18.1897 84.8571 25.9839 84.8571 34.6286V52.2774L96.8597 56.9153C100.025 58.1428 100.332 62.5089 97.3594 64.1484L95.4744 65.1918C85.8653 70.5136 74.3712 71.2062 64.1923 67.0768L18.9612 48.7353C15.3139 47.2536 15.4542 42.0458 19.1804 40.7658V40.7745ZM71.8901 47.2712V36.2681C71.8901 31.3583 68.9091 26.9396 64.3501 25.1159L46.4383 17.9091C45.1845 17.4006 43.8168 18.33 43.8168 19.6801V36.4259L71.8901 47.2712Z" fill="white"/>
<g id="Group">
<path id="Vector_3" d="M34.4153 69.3298L36.6247 70.2328V77.9744C36.6247 79.0441 37.2559 80.0172 38.2379 80.4468L53.8877 87.3468V89.0038C53.8877 90.9502 51.88 92.2566 50.1002 91.4763L32.3111 83.6382C31.3291 83.2086 30.6979 82.2354 30.6979 81.1658V71.8372C30.6979 69.9172 32.6443 68.6108 34.4153 69.3385V69.3298Z" fill="#B1B4BC"/>
<path id="Vector_4" d="M36.6247 77.9745V70.2329L52.2044 76.5893C53.2214 77.0014 53.8877 77.9921 53.8877 79.088V87.3469L38.2379 80.4469C37.2559 80.0173 36.6247 79.0442 36.6247 77.9745Z" fill="#EBECEF"/>
</g>
<path id="Union" fill-rule="evenodd" clip-rule="evenodd" d="M30.4016 71.8373C30.4016 69.7047 32.5636 68.2522 34.5326 69.061L52.3212 76.3202C53.4486 76.7772 54.1879 77.8737 54.1914 79.088V89.0039C54.1914 91.1674 51.9603 92.6178 49.9829 91.7508L32.1941 83.9129C31.1024 83.4351 30.4016 82.3536 30.4016 81.1658V71.8373ZM53.5914 86.7755V79.0967C53.5914 78.1228 52.9984 77.2419 52.0947 76.8758L36.9047 70.677V78.2722C36.9047 78.9446 37.301 79.5538 37.9157 79.8263L53.5914 86.7755ZM53.5914 87.4318V89.0039C53.5914 90.733 51.8068 91.8951 50.2246 91.2017L32.4358 83.3637C31.5638 82.9822 31.0016 82.1171 31.0016 81.1658V71.8373C31.0016 70.1299 32.7321 68.9698 34.305 69.6161L36.3047 70.4321V78.2722C36.3047 79.1819 36.8409 80.0061 37.6726 80.3748L53.5914 87.4318Z" fill="black"/>
<g id="Group_2">
<path id="Vector (Stroke)_2" fill-rule="evenodd" clip-rule="evenodd" d="M43.5156 35.9883V43.7027C43.5156 43.9977 43.3299 44.3152 42.9292 44.6458C42.5341 44.9717 41.9768 45.2702 41.3485 45.5284C40.0993 46.0417 38.6421 46.3667 37.8197 46.4451H36.8107L36.7972 46.4463C35.8994 46.5276 34.4231 46.2058 33.1631 45.6123C32.5371 45.3174 31.9851 44.9648 31.5943 44.5806C31.2013 44.1943 30.9995 43.8053 30.9995 43.4309V36.3911L19.0817 40.4907C19.0817 40.4907 19.0816 40.4907 19.0817 40.4907C15.0931 41.861 14.9431 47.436 18.847 49.0219L64.0783 67.3634C64.0783 67.3634 64.0782 67.3634 64.0783 67.3634C74.3412 71.5269 85.9301 70.8286 95.6184 65.4629C95.6185 65.4629 95.6184 65.4629 95.6184 65.4629L97.5031 64.4198C100.7 62.6562 100.367 57.963 96.9669 56.6443L84.5558 51.8485V59.8523C84.5558 60.1658 84.3791 60.5039 84.0182 60.854C83.6608 61.2008 83.1555 61.5265 82.582 61.8104C81.4359 62.3777 80.0881 62.7445 79.2762 62.7963H78.2513L78.2422 62.7968C77.359 62.8507 75.8079 62.6132 74.4773 62.1273C73.8135 61.8849 73.2262 61.5883 72.8106 61.2517C72.3918 60.9125 72.1888 60.5685 72.1888 60.2293V47.0654L43.5156 35.9883ZM71.5888 47.4768V60.2293C71.5888 60.8282 71.9488 61.3259 72.433 61.718C72.9202 62.1126 73.5757 62.4368 74.2714 62.6909C75.6554 63.1963 77.2842 63.4541 78.2694 63.3963H79.2948L79.3039 63.3957C80.2115 63.3401 81.6431 62.9447 82.8482 62.3481C83.4525 62.049 84.0175 61.6907 84.436 61.2846C84.8511 60.8819 85.1558 60.398 85.1558 59.8523V52.7236L96.7499 57.2037C99.6797 58.3399 99.9605 62.379 97.2133 63.8944L95.3279 64.938C85.7981 70.2159 74.3988 70.9028 64.3038 66.8074L19.0729 48.4661C15.6823 47.0886 15.813 42.248 19.2766 41.0581L30.3995 37.232V43.4309C30.3995 44.0298 30.7211 44.5636 31.1737 45.0085C31.6286 45.4556 32.2445 45.8428 32.9074 46.1551C34.2195 46.7731 35.7974 47.1348 36.8374 47.0451H37.8477L37.8615 47.0438C38.7425 46.9621 40.267 46.6215 41.5765 46.0833C42.2311 45.8144 42.8502 45.4887 43.311 45.1086C43.7661 44.7331 44.1156 44.2626 44.1156 43.7027V36.8633L71.5888 47.4768Z" fill="black"/>
<path id="Vector (Stroke)_3" fill-rule="evenodd" clip-rule="evenodd" d="M44.1155 19.6803C44.1155 18.5413 45.2692 17.7594 46.3242 18.1873L46.3249 18.1876L64.2368 25.3944L64.2373 25.3946C68.6821 27.1725 71.5887 31.4807 71.5887 36.2682V47.2713H72.1887V36.2682C72.1887 31.2363 69.1335 26.7069 64.4602 24.8375L46.5497 17.6313C46.5495 17.6312 46.5493 17.6311 46.5491 17.631C45.0967 17.0424 43.5155 18.1191 43.5155 19.6803V36.426H44.1155V19.6803Z" fill="black"/>
<path id="Vector (Stroke)_4" fill-rule="evenodd" clip-rule="evenodd" d="M48.9021 5.04223C40.1036 1.37398 30.3995 7.84044 30.3995 17.3743V36.8117H30.9995V17.3743C30.9995 8.26869 40.2679 2.09254 48.6712 5.59603L71.5717 15.1437C79.438 18.42 84.5558 26.1049 84.5558 34.6286V52.2774H85.1558V34.6286C85.1558 25.863 79.8928 17.9595 71.8026 14.5899C71.8026 14.59 71.8025 14.5899 71.8026 14.5899L48.9021 5.04223Z" fill="black"/>
</g>
</g>
<g id="error">
<path id="Vector_5" d="M65.9606 111.652C66.1236 112.234 66.4118 113.22 67.2686 114.162C67.8811 114.833 68.539 115.216 68.9745 115.424C72.6024 117.104 74.1924 117.809 77.8195 119.488C77.4913 119.326 77.1506 119.117 76.8091 118.846C76.6149 118.693 75.6985 117.939 75.1056 116.595C74.6803 115.633 74.6161 114.81 74.5722 114.206C74.4962 113.123 74.6513 112.278 74.7406 111.879C74.9184 111.077 75.1886 110.437 75.4181 109.984C81.3181 97.83 87.1634 85.7927 93.0603 73.6511C93.2459 73.2485 93.5278 72.7073 93.9414 72.1136C94.3941 71.4667 95.0959 70.4837 96.3537 69.695C96.8714 69.37 98.069 68.6392 99.7615 68.5993C100.192 68.5883 101.05 68.5766 102.038 68.9627C98.2194 67.1362 96.4383 66.2817 92.6185 64.4545C91.8713 64.2994 90.3636 64.1036 88.7094 64.7435C87.4422 65.233 86.6417 65.9998 86.1679 66.4619C85.2609 67.3477 84.7244 68.2578 84.4189 68.882C78.4844 81.1144 72.5499 93.3476 66.617 105.58C66.2763 106.349 65.2119 108.967 65.9622 111.65L65.9606 111.652Z" fill="#FF444F"/>
<path id="Vector_6" d="M74.7398 111.879C74.9176 111.077 75.1878 110.437 75.4173 109.985C81.3173 97.8306 87.1626 85.7933 93.0595 73.6517C93.2451 73.2491 93.5271 72.7079 93.9406 72.1142C94.3933 71.4673 95.0951 70.4843 96.3529 69.6956C96.8706 69.3706 98.0682 68.6398 99.7608 68.5999C100.191 68.5889 101.049 68.5772 102.037 68.9633C102.276 69.0784 102.514 69.1912 102.753 69.3064C103.798 69.9063 104.383 70.7146 104.638 71.1187C110.734 81.9045 116.83 92.6919 122.926 103.48C123.209 104.038 123.607 105 123.686 106.25C123.783 107.779 123.352 108.917 123.109 109.536C122.873 110.137 122.22 111.602 120.826 112.822C119.119 114.318 117.162 114.697 116.261 114.861C112.692 115.511 99.5728 117.588 81.6627 120.127C81.1701 120.182 80.437 120.212 79.5786 120.051C79.2324 119.984 78.6928 119.876 78.0803 119.611C78.0059 119.578 77.9299 119.542 77.8555 119.508C77.8422 119.502 77.8312 119.497 77.8202 119.49C77.4921 119.329 77.1514 119.119 76.8099 118.848C76.6156 118.695 75.6993 117.942 75.1064 116.597C74.6811 115.635 74.6168 114.812 74.573 114.209C74.497 113.125 74.6521 112.28 74.7414 111.881L74.7398 111.879Z" fill="#FF7E88"/>
<path id="Vector (Stroke)_5" fill-rule="evenodd" clip-rule="evenodd" d="M102.146 68.6841C101.102 68.2758 100.194 68.289 99.7534 68.3002C97.9771 68.3422 96.7223 69.1098 96.1935 69.4418C94.8818 70.2643 94.1516 71.2898 93.6949 71.9425L93.6945 71.943C93.2696 72.5529 92.9796 73.1091 92.7884 73.5236C86.8923 85.6634 81.0479 97.6991 75.1487 109.852C74.9108 110.321 74.6311 110.984 74.447 111.815C74.4445 111.826 74.4427 111.837 74.4416 111.848C74.3477 112.276 74.1971 113.136 74.2738 114.23L74.2738 114.231C74.3181 114.839 74.3846 115.706 74.8321 116.718C75.4533 118.127 76.4124 118.917 76.6239 119.084L76.8099 118.849L76.6235 119.084C76.6236 119.084 76.6238 119.084 76.6239 119.084C76.9791 119.366 77.3343 119.585 77.6776 119.754C77.6712 119.751 77.6645 119.747 77.6581 119.743L77.8203 119.49L77.6879 119.759C77.6845 119.758 77.6811 119.756 77.6776 119.754C77.7016 119.768 77.7234 119.778 77.7272 119.779L77.7278 119.78L77.7318 119.782L77.7318 119.782C77.752 119.791 77.7724 119.8 77.7931 119.81C77.8091 119.817 77.8253 119.824 77.8418 119.832C77.8791 119.849 77.918 119.867 77.9566 119.885L77.9613 119.887L77.9613 119.887C78.6051 120.165 79.1712 120.278 79.522 120.346L79.5232 120.346C80.4187 120.514 81.183 120.482 81.696 120.425L81.7049 120.424L81.7049 120.424C99.6149 117.886 112.739 115.808 116.315 115.156L116.261 114.861L116.315 115.156C116.315 115.156 116.315 115.156 116.315 115.156C117.224 114.991 119.251 114.601 121.024 113.048L120.845 112.844L121.024 113.048C122.47 111.782 123.145 110.267 123.388 109.646C123.388 109.646 123.388 109.646 123.388 109.646L123.109 109.536L123.388 109.646C123.635 109.016 124.087 107.828 123.985 106.231L123.686 106.25L123.985 106.231C123.903 104.927 123.488 103.925 123.194 103.345L123.188 103.333L123.187 103.333C117.092 92.5445 110.995 81.7572 104.899 70.9714C104.897 70.9684 104.896 70.9655 104.894 70.9627C104.893 70.9614 104.892 70.96 104.892 70.9587C104.623 70.5328 104.006 69.68 102.902 69.0464C102.896 69.0428 102.889 69.0395 102.883 69.0363C102.763 68.9785 102.643 68.9213 102.524 68.8644L102.524 68.8644C102.405 68.8074 102.286 68.7506 102.167 68.6933C102.16 68.69 102.153 68.6869 102.146 68.6841ZM101.917 69.2388C100.991 68.8792 100.186 68.8894 99.7685 68.9L99.7679 68.9C98.1593 68.938 97.0191 69.6319 96.5125 69.9499L96.5124 69.95C95.3086 70.7048 94.6353 71.645 94.1867 72.2862C93.7855 72.8621 93.512 73.3872 93.332 73.7775L93.332 73.7776L93.3294 73.783C87.4325 85.9245 81.5873 97.9619 75.6872 110.116L75.6873 110.116L75.6849 110.121C75.467 110.55 75.2109 111.156 75.0397 111.914C75.0385 111.925 75.0367 111.936 75.0342 111.947C74.9487 112.329 74.7991 113.143 74.8723 114.188C74.9158 114.785 74.9778 115.564 75.3808 116.476L75.3809 116.476C75.9455 117.757 76.819 118.474 76.996 118.613L76.9964 118.614C77.3205 118.871 77.643 119.069 77.9527 119.221C77.9596 119.224 77.9664 119.228 77.973 119.232L77.9772 119.234L77.9792 119.235C77.9798 119.235 77.9803 119.235 77.9808 119.236C78.0189 119.253 78.0572 119.271 78.0941 119.288C78.1311 119.305 78.1667 119.321 78.2017 119.337C78.7815 119.588 79.2933 119.691 79.6345 119.756C80.4531 119.91 81.1531 119.882 81.6253 119.829C99.5328 117.291 112.645 115.215 116.207 114.566L116.207 114.566C117.1 114.404 118.987 114.035 120.629 112.597C121.97 111.422 122.601 110.009 122.829 109.427L122.83 109.427C123.068 108.818 123.479 107.731 123.387 106.269L123.387 106.269C123.311 105.077 122.933 104.158 122.662 103.622C116.568 92.8379 110.474 82.0547 104.38 71.2731C104.138 70.8899 103.589 70.1348 102.613 69.5721C102.497 69.5164 102.381 69.4612 102.265 69.4057C102.15 69.3505 102.034 69.2949 101.917 69.2388Z" fill="#0E0E0E"/>
<path id="Vector (Stroke)_6" fill-rule="evenodd" clip-rule="evenodd" d="M92.5222 64.7412C94.4027 65.6407 95.792 66.3059 97.1788 66.97C98.0612 67.3925 98.9426 67.8145 99.9488 68.296M99.7542 68.2996C97.978 68.3416 96.7232 69.109 96.1943 69.441C94.8826 70.2635 94.1523 71.2891 93.6956 71.9418L93.6952 71.9423C93.2703 72.5523 92.9803 73.1085 92.7891 73.5229C86.893 85.6628 81.0485 97.6986 75.1493 109.851C74.9114 110.321 74.6318 110.984 74.4477 111.814L74.7406 111.879L74.4478 111.813C74.4478 111.814 74.4477 111.814 74.4477 111.814C74.3546 112.231 74.1943 113.106 74.2729 114.228L74.273 114.228C74.3173 114.837 74.3838 115.704 74.8311 116.716L75.1056 116.595L74.8312 116.716C75.1007 117.327 75.4337 117.822 75.7417 118.2C74.9538 117.838 74.2474 117.515 73.5418 117.193L73.5219 117.184C72.218 116.588 70.9145 115.992 69.1021 115.153C68.6894 114.955 68.0681 114.593 67.4902 113.96C66.7066 113.098 66.4263 112.198 66.264 111.622C65.546 109.052 66.5511 106.471 66.8892 105.707C72.8212 93.4759 78.7549 81.2444 84.6885 69.0138C84.9837 68.4107 85.5018 67.532 86.3773 66.6768C86.8455 66.2202 87.6099 65.49 88.8175 65.0235L88.8177 65.0235C90.3701 64.4229 91.791 64.5932 92.5222 64.7412M88.6012 64.4639C90.3317 63.7944 91.9052 64.0002 92.6795 64.1609C92.7032 64.1658 92.7262 64.1736 92.748 64.184C94.652 65.0949 96.0463 65.7625 97.4379 66.4288C98.843 67.1016 100.245 67.7731 102.167 68.6923C102.313 68.7619 102.377 68.9343 102.313 69.0823C102.249 69.2304 102.079 69.3011 101.928 69.2423C100.998 68.8785 100.188 68.8887 99.7692 68.8994L99.7686 68.8994C98.16 68.9374 97.0198 69.6312 96.5132 69.9493L96.5131 69.9494C95.3093 70.7042 94.636 71.6444 94.1873 72.2856C93.7862 72.8615 93.5127 73.3865 93.3327 73.7769L93.3327 73.7769L93.3301 73.7824C87.4332 85.9239 81.588 97.9613 75.688 110.115L75.688 110.115L75.6857 110.12C75.4648 110.556 75.2047 111.172 75.0335 111.944L75.0334 111.944C74.9479 112.327 74.7982 113.141 74.8714 114.185C74.9149 114.783 74.9769 115.562 75.3799 116.473L75.3801 116.474C75.9447 117.754 76.8182 118.471 76.9951 118.611L76.9956 118.612C77.3197 118.869 77.6421 119.066 77.9518 119.219C78.0993 119.291 78.161 119.469 78.0902 119.617C78.0194 119.765 77.8425 119.829 77.6934 119.76C75.8884 118.925 74.5882 118.331 73.2895 117.737L73.2726 117.729C71.9682 117.133 70.6631 116.537 68.8484 115.697L68.845 115.695C68.3868 115.476 67.6932 115.072 67.047 114.364L67.0467 114.364C66.1405 113.367 65.8373 112.324 65.6717 111.733C65.6703 111.727 65.669 111.722 65.6678 111.717C64.924 108.95 66.0002 106.232 66.3427 105.459L66.3425 105.459L66.347 105.449C72.28 93.2169 78.2145 80.9837 84.149 68.7513L84.1494 68.7504C84.4653 68.105 85.0201 67.1637 85.9582 66.2474L85.9584 66.2473C86.4379 65.7797 87.2744 64.9764 88.6012 64.4639Z" fill="#0E0E0E"/>
<g id="Vector_7">
<path d="M103.129 83.1265C100.665 83.5001 98.1992 83.8729 95.7345 84.2465C95.7492 88.733 95.7631 93.2168 95.7778 97.7023C98.2365 97.3572 100.695 97.0113 103.154 96.6663C103.145 92.1539 103.137 87.6389 103.129 83.1265Z" fill="#FF444F"/>
<path d="M95.7465 103.061C95.7413 105.612 95.7344 108.164 95.7283 110.716C98.2208 110.345 100.713 109.973 103.207 109.602C103.166 107.046 103.122 104.488 103.081 101.932C100.634 102.31 98.1904 102.685 95.7465 103.061Z" fill="#FF444F"/>
</g>
<path id="Vector (Stroke)_7" fill-rule="evenodd" clip-rule="evenodd" d="M103.324 82.8985C103.257 82.8416 103.17 82.8165 103.083 82.8296C101.775 83.0279 100.467 83.226 99.1586 83.4241C98.0022 83.5992 96.8458 83.7743 95.6893 83.9496C95.5423 83.9719 95.4338 84.0985 95.4343 84.2472C95.4416 86.4836 95.4488 88.7237 95.4559 90.9636C95.4631 93.2115 95.4703 95.4592 95.4776 97.703C95.4779 97.7896 95.5157 97.872 95.5812 97.9287C95.6467 97.9855 95.7335 98.0111 95.8193 97.9991C97.0487 97.8266 98.278 97.6538 99.5073 97.4811L99.5139 97.4802C100.741 97.3077 101.968 97.1353 103.195 96.9631C103.344 96.9423 103.454 96.8152 103.454 96.6654C103.449 94.4092 103.445 92.1524 103.441 89.8955C103.437 87.6387 103.433 85.3818 103.428 83.1256C103.428 83.0383 103.39 82.9554 103.324 82.8985ZM102.829 83.475C102.833 85.6149 102.837 87.7553 102.841 89.8957L102.841 89.8976C102.845 92.067 102.849 94.2364 102.853 96.4052C101.71 96.5657 100.567 96.7263 99.4238 96.8869L99.4186 96.8876C98.3046 97.0442 97.1905 97.2007 96.0765 97.3571C96.0695 95.2233 96.0627 93.0935 96.0559 90.9636C96.0491 88.812 96.0422 86.6602 96.0351 84.5041C97.1059 84.3418 98.1769 84.1796 99.248 84.0174C100.442 83.8367 101.636 83.6559 102.829 83.475ZM103.274 101.702C103.208 101.646 103.121 101.622 103.035 101.635C100.588 102.013 98.1447 102.388 95.7008 102.764C95.5546 102.786 95.4466 102.912 95.4463 103.06C95.4429 104.761 95.4386 106.463 95.4344 108.165C95.4323 109.015 95.4302 109.865 95.4281 110.715C95.4279 110.802 95.4658 110.885 95.5319 110.942C95.598 110.999 95.6858 111.025 95.7722 111.012C96.9896 110.831 98.2054 110.65 99.4212 110.469C100.697 110.279 101.973 110.089 103.25 109.899C103.399 109.877 103.509 109.748 103.506 109.597C103.482 108.062 103.456 106.525 103.431 104.989C103.414 103.968 103.397 102.947 103.381 101.927C103.379 101.84 103.34 101.758 103.274 101.702ZM102.786 102.281C102.801 103.187 102.816 104.093 102.831 104.999C102.855 106.448 102.879 107.896 102.902 109.344C101.713 109.521 100.522 109.698 99.3314 109.876C98.2301 110.04 97.129 110.204 96.029 110.367C96.0307 109.634 96.0326 108.901 96.0344 108.167C96.0384 106.551 96.0424 104.934 96.0458 103.318C98.2918 102.973 100.538 102.628 102.786 102.281Z" fill="#0E0E0E"/>
</g>
</g>
</g>
</svg>
