<svg width="49" height="32" viewBox="0 0 49 32" fill="none" xmlns="http://www.w3.org/2000/svg">
<g id="illustration / deriv / light / ic-cloud-upload" clip-path="url(#clip0_408_473)">
<g id="Group">
<path id="Vector" fill-rule="evenodd" clip-rule="evenodd" d="M31.789 23.6969C31.9348 23.8422 32.1325 23.9236 32.3384 23.9233C32.5443 23.9229 32.7416 23.8407 32.887 23.6949C33.0323 23.549 33.1138 23.3514 33.1134 23.1454C33.113 22.9395 33.0308 22.7422 32.885 22.5969L24.8 14.4839L24.798 14.4829L24.252 13.9329L23.705 14.4829L23.704 14.4839L15.62 22.5999C15.4749 22.746 15.3936 22.9435 15.3936 23.1494C15.3936 23.3552 15.4749 23.5528 15.62 23.6989C15.6917 23.771 15.777 23.8283 15.871 23.8674C15.9649 23.9065 16.0657 23.9266 16.1675 23.9266C16.2692 23.9266 16.37 23.9065 16.464 23.8674C16.5579 23.8283 16.6432 23.771 16.715 23.6989L23.479 16.9089V30.5999C23.479 31.0299 23.826 31.3769 24.253 31.3769C24.4586 31.3763 24.6556 31.2942 24.8008 31.1485C24.9459 31.0028 25.0272 30.8055 25.027 30.5999V16.9079L31.789 23.6969Z" fill="#EC3F3F"/>
<path id="Vector_2" fill-rule="evenodd" clip-rule="evenodd" d="M39.4479 9.48189C37.5419 4.09989 32.5099 0.514893 26.7799 0.514893C21.3799 0.514893 16.5229 3.77589 14.4219 8.71889C13.4319 8.25889 12.3569 8.01889 11.2639 8.01889C7.09893 8.01889 3.70893 11.4179 3.70093 15.5969C2.62861 16.4207 1.75998 17.4799 1.16212 18.6928C0.564273 19.9056 0.2532 21.2397 0.25293 22.5919C0.25293 27.4359 4.18893 31.3759 9.15493 31.3779L9.31693 31.3789C9.36893 31.3789 9.41593 31.3789 9.45293 31.3759H17.6119C17.8176 31.3754 18.0146 31.2932 18.1597 31.1475C18.3048 31.0019 18.3862 30.8045 18.3859 30.5989C18.3862 30.3933 18.3048 30.1959 18.1597 30.0502C18.0146 29.9046 17.8176 29.8224 17.6119 29.8219H9.41193C9.33693 29.8269 9.25693 29.8239 9.18193 29.8219L9.02393 29.8209C5.04193 29.8209 1.80193 26.5779 1.80193 22.5909C1.80199 21.4166 2.0868 20.2598 2.63194 19.2197C3.17707 18.1796 3.96629 17.2871 4.93193 16.6189L5.28793 16.2629L5.24893 15.6129C5.24893 12.2839 7.94793 9.57489 11.2639 9.57489C12.3799 9.57651 13.4731 9.89034 14.4199 10.4809L15.2399 10.9909L15.5579 10.0769C17.2269 5.28689 21.7349 2.07189 26.7809 2.07189C31.9889 2.07189 36.5469 5.41789 38.1209 10.4019L38.2649 10.8569L38.7349 10.9329C43.3489 11.6829 46.6999 15.6299 46.6999 20.3219C46.6999 25.5619 42.4439 29.8229 37.2139 29.8229H30.8899C30.788 29.8232 30.6872 29.8435 30.5931 29.8827C30.4991 29.922 30.4137 29.9793 30.3418 30.0516C30.2699 30.1238 30.213 30.2095 30.1742 30.3038C30.1355 30.398 30.1157 30.499 30.1159 30.6009C30.1159 31.0289 30.4629 31.3779 30.8899 31.3779H37.2139C43.2979 31.3779 48.2479 26.4179 48.2479 20.3209C48.2459 15.0209 44.5729 10.5359 39.4469 9.48189H39.4479Z" fill="#EC3F3F"/>
</g>
</g>
<defs>
<clipPath id="clip0_408_473">
<rect width="49" height="32" fill="white"/>
</clipPath>
</defs>
</svg>
