<svg width="120" height="152" viewBox="0 0 120 152" fill="none" xmlns="http://www.w3.org/2000/svg">
<g id="illustration / deriv / light / teamwork">
<g id="Artboard 123 copy 35">
<g id="Layer 69 copy 2">
<g id="Group">
<g id="Group_2">
<path id="Vector" d="M80.2872 107.147C84.7815 107.123 89.2743 107.094 93.7658 107.069C93.3415 106.893 93.0543 106.483 92.9115 106.282C92.5529 105.769 92.4972 105.242 92.4829 105.13C92.3443 104.02 91.5786 99.9573 90.4958 94.283C90.3572 93.5844 90.0701 92.5415 89.4115 91.4273C89.1272 90.9473 88.8115 90.413 88.2701 89.9073C87.0915 88.8087 85.2486 88.2301 83.5372 88.583C81.9901 88.8987 81.0472 89.8715 80.3172 90.6415C76.6858 94.4858 77.4786 100.124 77.5701 100.717C77.6072 100.959 77.7943 102.122 78.3458 103.57C78.9143 105.066 79.6386 106.259 80.2858 107.146L80.2872 107.147Z" fill="#EBECEE"/>
<path id="Vector_2" d="M80.2871 107.433C80.1957 107.433 80.11 107.39 80.0557 107.316C79.2371 106.193 78.5714 104.967 78.08 103.674C77.5385 102.253 77.3371 101.086 77.2885 100.763C77.1885 100.12 76.4171 94.3572 80.11 90.4486C80.8314 89.6872 81.82 88.6443 83.48 88.3058C85.2142 87.9486 87.1714 88.4958 88.4642 89.7015C89.0342 90.2343 89.3642 90.79 89.6542 91.28C90.19 92.1872 90.5657 93.1772 90.7757 94.2286C91.9357 100.304 92.6342 104.03 92.7671 105.096V105.111C92.8185 105.493 92.9457 105.831 93.1457 106.119C93.2814 106.31 93.53 106.661 93.8757 106.806C94.0014 106.857 94.0728 106.991 94.0457 107.124C94.0185 107.257 93.9028 107.354 93.7671 107.354L88.3542 107.386C85.6657 107.401 82.9771 107.417 80.2871 107.433ZM84.5657 88.7686C84.2385 88.7686 83.9142 88.8 83.5971 88.8658C82.1128 89.1686 81.1957 90.1358 80.5271 90.8415C77.0214 94.5515 77.76 100.06 77.8542 100.676C77.9014 100.986 78.0942 102.103 78.6157 103.471C79.0728 104.673 79.6828 105.813 80.4342 106.861C83.0742 106.847 85.7142 106.831 88.3528 106.816L92.9428 106.789C92.8299 106.66 92.7442 106.537 92.6842 106.451C92.4257 106.083 92.2657 105.659 92.2042 105.184V105.169C92.0571 104.006 91.18 99.3829 90.2171 94.3372C90.02 93.35 89.6671 92.42 89.1671 91.5743C88.88 91.09 88.5871 90.5943 88.0771 90.1186C87.1514 89.2558 85.8471 88.7686 84.5657 88.7686Z" fill="black"/>
</g>
<g id="Group_3">
<path id="Vector_3" d="M39.9673 135.901C50.1759 135.92 60.3859 135.936 70.5959 135.956C66.663 128.091 62.7302 120.224 58.7959 112.36C58.7159 112.126 58.5702 111.777 58.2945 111.421C58.0687 111.131 57.8916 110.901 57.5745 110.78C56.993 110.557 56.4045 110.89 56.333 110.934C55.8859 111.196 55.7173 111.604 55.3373 112.677C54.9987 113.629 54.8287 114.104 54.443 115.309C54.2787 115.826 54.0273 116.573 53.6916 117.481C53.4059 118.293 52.963 119.467 52.3402 120.851C50.9516 123.92 50.2745 124.466 49.9545 124.687C48.413 125.756 46.6916 125.573 46.4102 125.539C42.6059 125.539 38.8016 125.539 34.9973 125.539C36.6516 128.993 38.3087 132.446 39.9673 135.899V135.901Z" fill="#CED0D6"/>
<path id="Vector_4" d="M70.5959 136.24C64.5602 136.229 58.523 136.219 52.4873 136.209L39.9673 136.187C39.8573 136.187 39.7573 136.124 39.7102 136.026C38.053 132.573 36.3959 129.12 34.7402 125.666C34.6973 125.577 34.7045 125.473 34.7559 125.39C34.8087 125.307 34.8987 125.257 34.9973 125.257C38.8016 125.257 42.6059 125.257 46.4102 125.257C46.4216 125.257 46.433 125.257 46.4445 125.259C46.8816 125.312 48.413 125.412 49.7916 124.456C50.033 124.289 50.673 123.847 52.0802 120.737C52.5816 119.626 53.033 118.499 53.423 117.39C53.773 116.443 54.023 115.69 54.1716 115.226C54.5473 114.049 54.723 113.556 55.0416 112.66L55.0688 112.584C55.453 111.502 55.6459 111.01 56.1902 110.69C56.3159 110.616 56.9859 110.25 57.6787 110.516C58.0673 110.664 58.2859 110.944 58.5159 111.242C58.753 111.549 58.9345 111.886 59.0616 112.252L70.853 135.83C70.8973 135.919 70.893 136.024 70.8402 136.109C70.7887 136.193 70.6959 136.244 70.5973 136.244L70.5959 136.24ZM40.1473 135.616L52.4888 135.637C58.3702 135.647 64.2516 135.657 70.133 135.669L58.5402 112.487C58.5345 112.476 58.5287 112.464 58.5259 112.452C58.4187 112.139 58.2659 111.85 58.0688 111.596C57.853 111.317 57.713 111.139 57.473 111.047C57.0159 110.873 56.533 111.147 56.4788 111.18C56.1202 111.39 55.9716 111.742 55.6059 112.773L55.5787 112.849C55.2616 113.739 55.0873 114.229 54.7145 115.396C54.5645 115.866 54.3116 116.627 53.9587 117.58C53.5645 118.7 53.1073 119.842 52.5988 120.969C51.1259 124.224 50.4173 124.713 50.1145 124.923C48.5887 125.982 46.9002 125.884 46.3902 125.824C42.743 125.824 39.0959 125.824 35.4487 125.824C37.0116 129.087 38.5788 132.352 40.1445 135.613L40.1473 135.616Z" fill="black"/>
</g>
<g id="Group_4">
<path id="Vector_5" d="M15.4157 125.387C16.0857 125.549 16.6657 125.563 17.0671 125.546C23.0443 125.546 29.0185 125.543 34.9957 125.541C38.8 125.541 42.6043 125.541 46.4085 125.541C44.8857 125.359 43.8971 124.534 43.2785 124.006C42.3971 123.251 41.8328 122.41 41.4257 121.589C41.1414 121.024 40.9314 120.466 40.7414 119.951C40.4128 119.067 39.7457 117.067 39.8485 114.44C39.8857 113.497 39.9557 112.029 40.6371 110.301C41.7528 107.471 44.03 105.163 46.3528 104.08C48.1857 103.224 48.3243 103.163 48.3243 103.163C50.1371 102.356 50.8943 102.117 51.4385 101.281C51.5043 101.18 51.7785 100.743 51.8928 100.104C52.1057 98.9142 51.6 97.9185 51.42 97.5571C47.4443 89.5585 43.4657 81.5614 39.4914 73.5614C29.3543 73.5071 19.2171 73.4542 9.08283 73.4014C13.0871 81.5414 17.0928 89.6785 21.0957 97.8171C21.2471 98.1271 21.5228 98.8157 21.4285 99.6999C21.3914 100.04 21.2943 100.844 20.6471 101.517C20.2543 101.926 19.8285 102.106 19.6728 102.17C16.2443 103.606 13.0928 104.924 11.3028 107.017C10.1771 108.333 9.76569 109.75 9.4914 110.69C8.88712 112.766 9.0214 114.46 9.12283 115.591C9.20283 116.49 9.44997 118.359 10.4043 120.487C10.8728 121.531 11.3028 122.483 12.2643 123.471C12.7585 123.98 13.7757 124.99 15.4143 125.389L15.4157 125.387Z" fill="#CED0D6"/>
<path id="Vector_6" d="M16.7929 125.837C16.3115 125.837 15.8244 125.78 15.3501 125.664C13.5872 125.236 12.5186 124.137 12.0629 123.669C11.0601 122.639 10.6172 121.65 10.1472 120.603C9.44435 119.036 8.99292 117.311 8.8415 115.616C8.74721 114.556 8.58864 112.78 9.22007 110.61C9.50007 109.649 9.92292 108.194 11.0886 106.831C12.9229 104.687 16.1486 103.336 19.5644 101.906C19.7086 101.846 20.0901 101.686 20.4444 101.317C21.0358 100.703 21.1172 99.9514 21.1472 99.6686C21.2272 98.9243 21.0244 98.3186 20.8415 97.9429L15.0472 86.1671C12.9744 81.9543 10.9015 77.7414 8.82864 73.5272C8.78435 73.4386 8.79007 73.3329 8.84292 73.25C8.89578 73.1672 8.98721 73.1157 9.08578 73.1157H9.08721L20.1615 73.1743C26.6058 73.2086 33.0515 73.2414 39.4958 73.2772C39.6044 73.2772 39.7015 73.3386 39.7501 73.4357C41.7586 77.4757 43.7672 81.5157 45.7758 85.5557C47.7443 89.5143 49.7115 93.4729 51.6801 97.43L51.6872 97.4429C51.8843 97.8371 52.4058 98.8857 52.1786 100.154C52.0686 100.767 51.8215 101.22 51.6843 101.434C51.1658 102.231 50.4829 102.53 49.1201 103.126C48.9129 103.216 48.6886 103.314 48.4458 103.423C48.4401 103.426 48.2672 103.503 46.4786 104.339C44.0772 105.459 41.9415 107.784 40.9072 110.407C40.2315 112.12 40.1729 113.58 40.1386 114.451C40.0672 116.279 40.3615 118.096 41.0129 119.853C41.2115 120.393 41.4129 120.921 41.6844 121.461C42.1501 122.399 42.7329 123.16 43.4686 123.79C44.0344 124.274 44.9801 125.084 46.4458 125.259C46.5958 125.277 46.7058 125.409 46.6972 125.559C46.6886 125.71 46.5629 125.827 46.4115 125.827C42.6072 125.827 38.8029 125.827 34.9986 125.827L17.0701 125.831C16.9786 125.836 16.8858 125.837 16.7944 125.837H16.7929ZM15.4844 125.109C15.9972 125.233 16.5258 125.283 17.0558 125.259L34.9986 125.254C38.1858 125.254 41.3715 125.254 44.5586 125.254C43.9044 124.911 43.4215 124.499 43.0958 124.221C42.3015 123.541 41.6715 122.721 41.1729 121.714C40.8886 121.149 40.6815 120.603 40.4758 120.049C39.7972 118.221 39.4901 116.33 39.5658 114.427C39.6015 113.519 39.6629 111.999 40.3744 110.196C41.4601 107.443 43.7058 105 46.2358 103.82C48.0501 102.974 48.2058 102.903 48.2115 102.901C48.4558 102.793 48.6815 102.694 48.8886 102.603C50.1858 102.036 50.7786 101.777 51.2015 101.126C51.3144 100.949 51.5215 100.57 51.6143 100.054C51.8086 98.9729 51.3472 98.0472 51.1729 97.6986L51.1658 97.6843C49.1986 93.7257 47.2301 89.7671 45.2615 85.8086C43.2786 81.8214 41.2958 77.8343 39.3144 73.8457C32.9286 73.8114 26.5415 73.7772 20.1558 73.7443L9.54292 73.6886C11.5472 77.7643 13.5529 81.8386 15.5586 85.9143L21.3529 97.69C21.5701 98.1343 21.8086 98.8486 21.7129 99.7286C21.6758 100.064 21.5801 100.957 20.8529 101.713C20.4158 102.167 19.9401 102.366 19.7829 102.431C16.4315 103.834 13.2658 105.16 11.5201 107.201C10.4344 108.471 10.0329 109.853 9.76578 110.769C9.16435 112.836 9.31578 114.544 9.40721 115.564C9.55292 117.197 9.98721 118.859 10.6644 120.369C11.1129 121.369 11.5358 122.313 12.4686 123.27C12.8901 123.704 13.8786 124.719 15.4815 125.109H15.4844Z" fill="black"/>
</g>
<g id="Group_5">
<path id="Vector_7" d="M9.08276 73.4001C19.2171 73.4544 29.3556 73.5058 39.4913 73.5601C50.2499 60.6758 61.0085 47.7901 71.7685 34.9072C72.217 34.3072 73.1242 33.2601 74.6156 32.5101C75.0328 32.3015 76.2242 31.7244 77.8213 31.6472C68.0271 31.5658 58.2342 31.4901 48.4385 31.4087C47.2999 31.3044 46.3913 31.4801 45.8342 31.6329C44.7271 31.9344 43.9756 32.4258 43.4242 32.7944C42.6028 33.3372 42.0071 33.9087 41.6085 34.3387C30.7671 47.3587 19.9242 60.3815 9.08276 73.4015V73.4001Z" fill="#EBECEE"/>
<path id="Vector_8" d="M39.4929 73.8458H39.4915C33.0472 73.8115 26.6015 73.7772 20.1572 73.7429L9.08288 73.6843C8.97288 73.6843 8.87145 73.6201 8.82574 73.5186C8.77859 73.4186 8.79431 73.3001 8.86574 73.2158L41.3914 34.1529C41.3914 34.1529 41.3986 34.1458 41.4015 34.1415C41.9615 33.5372 42.59 33.0029 43.2686 32.5529C43.7915 32.2043 44.5843 31.6758 45.7615 31.3543C46.6315 31.1158 47.5372 31.0372 48.4557 31.1201C53.32 31.1601 58.1843 31.2001 63.0486 31.2386C67.9743 31.2786 72.9 31.3172 77.8257 31.3586C77.98 31.3586 78.1057 31.4843 78.1086 31.6386C78.1115 31.7929 77.9915 31.9229 77.8372 31.9301C76.79 31.9801 75.75 32.2615 74.7457 32.7629C73.6786 33.3001 72.7286 34.1001 72 35.0758C71.9972 35.0801 71.9943 35.0843 71.99 35.0886C61.23 47.9729 50.4715 60.8572 39.7129 73.7415C39.6586 73.8072 39.5786 73.8443 39.4929 73.8443V73.8458ZM9.69002 73.1172L20.1586 73.1729C26.5586 73.2058 32.9586 73.2401 39.3586 73.2743C50.0857 60.4272 60.8143 47.5772 71.5443 34.7301C72.3257 33.6858 73.3429 32.8301 74.4872 32.2543C74.7429 32.1272 75 32.0115 75.26 31.9115C71.1872 31.8786 67.1143 31.8458 63.0415 31.8129C58.1729 31.7743 53.3043 31.7343 48.4357 31.6943C48.4272 31.6943 48.42 31.6943 48.4115 31.6943C47.5586 31.6158 46.7157 31.6886 45.9086 31.9101C44.8214 32.2072 44.0757 32.7043 43.5815 33.0329C42.9415 33.4572 42.35 33.9586 41.8215 34.5272L9.69002 73.1172Z" fill="black"/>
</g>
<g id="Group_6">
<path id="Vector_9" d="M57.5754 110.78C57.8925 110.901 58.0696 111.131 58.2954 111.421C58.5696 111.777 58.7168 112.126 58.7968 112.36C62.7296 120.224 66.6625 128.091 70.5968 135.956C75.9082 129.646 81.2197 123.34 86.5297 117.031C86.7154 116.724 87.2611 115.746 87.0625 114.487C86.9639 113.856 86.7125 113.377 86.5225 113.084C84.6396 111.357 82.7582 109.63 80.8754 107.901C80.6925 107.681 80.4954 107.428 80.2882 107.147C79.6411 106.26 78.9168 105.068 78.3482 103.571C77.7968 102.123 77.6082 100.96 77.5725 100.718C77.4811 100.127 76.6882 94.487 80.3196 90.6427C81.0496 89.8727 81.9925 88.8998 83.5397 88.5841C85.2511 88.2313 87.0939 88.8098 88.2725 89.9084C88.8139 90.4141 89.1297 90.9484 89.4139 91.4284C90.0725 92.5427 90.3596 93.5855 90.4982 94.2841C91.5811 99.9584 92.3468 104.021 92.4854 105.131C92.4997 105.243 92.5554 105.77 92.9139 106.283C93.0568 106.484 93.3439 106.893 93.7682 107.07C93.9025 107.128 94.0511 107.16 94.2139 107.157C94.7096 107.143 95.0568 106.784 95.1711 106.653C100.435 100.351 105.7 94.0498 110.965 87.7484C102.905 71.4798 94.8425 55.2141 86.7811 38.947C86.6225 38.6484 86.3896 38.217 86.0939 37.7098C85.0282 35.8841 84.3868 34.7798 83.4268 33.8555C82.9854 33.4298 81.6839 32.2084 79.6082 31.7841C79.2725 31.717 78.9468 31.6741 78.6311 31.6527C78.6311 31.6527 78.6268 31.6527 78.6225 31.6527C78.6211 31.6527 78.6154 31.6527 78.6111 31.6527C78.3497 31.6498 78.0868 31.6484 77.8254 31.647C76.2282 31.7241 75.0368 32.3013 74.6197 32.5098C73.1282 33.2598 72.2211 34.307 71.7725 34.907C61.0125 47.7913 50.2539 60.6755 39.4954 73.5598C43.4711 81.5584 47.4496 89.5555 51.4239 97.5555C51.6039 97.917 52.1096 98.9127 51.8968 100.103C51.7825 100.74 51.5082 101.177 51.4425 101.28C50.8996 102.116 50.1411 102.354 48.3282 103.161C48.3282 103.161 48.1896 103.224 46.3568 104.078C44.0325 105.163 41.7568 107.471 40.6411 110.3C39.9596 112.026 39.8896 113.496 39.8525 114.438C39.7482 117.067 40.4168 119.066 40.7454 119.95C40.9354 120.466 41.1454 121.023 41.4296 121.587C41.8382 122.41 42.4011 123.25 43.2825 124.004C43.8996 124.533 44.8882 125.357 46.4125 125.54C46.6939 125.574 48.4154 125.757 49.9568 124.688C50.2782 124.467 50.9554 123.921 52.3425 120.853C52.9654 119.468 53.4096 118.294 53.6939 117.483C54.0296 116.574 54.2796 115.827 54.4454 115.31C54.8296 114.106 55.0011 113.63 55.3396 112.678C55.7211 111.604 55.8896 111.197 56.3354 110.936C56.4082 110.893 56.9954 110.558 57.5768 110.781L57.5754 110.78Z" fill="white"/>
<path id="Vector_10" d="M70.5955 136.24C70.5841 136.24 70.5726 136.24 70.5612 136.238C70.4655 136.227 70.3826 136.168 70.3398 136.083L58.5398 112.487C58.5341 112.476 58.5283 112.464 58.5255 112.451C58.4183 112.138 58.2655 111.85 58.0684 111.596C57.8526 111.317 57.7126 111.138 57.4726 111.047C57.0169 110.873 56.5326 111.147 56.4784 111.18C56.1198 111.39 55.9712 111.741 55.6055 112.773L55.5784 112.848C55.2612 113.738 55.0869 114.228 54.7141 115.396C54.5641 115.866 54.3112 116.627 53.9583 117.58C53.5641 118.7 53.1069 119.841 52.5984 120.968C51.1255 124.224 50.4169 124.713 50.1141 124.923C48.5712 125.993 46.8598 125.881 46.3726 125.823C44.7355 125.627 43.6669 124.711 43.0926 124.22C42.2983 123.54 41.6684 122.72 41.1698 121.713C40.8855 121.147 40.6783 120.601 40.4726 120.047C39.7941 118.22 39.4869 116.328 39.5626 114.426C39.5984 113.517 39.6598 111.997 40.3712 110.194C41.4569 107.441 43.7026 104.998 46.2326 103.818C48.0469 102.973 48.2026 102.901 48.2083 102.9C48.4526 102.791 48.6784 102.693 48.8855 102.601C50.1826 102.034 50.7755 101.776 51.1984 101.124C51.3112 100.947 51.5184 100.568 51.6112 100.053C51.8055 98.9713 51.3441 98.0456 51.1698 97.697L51.1626 97.6828C49.1955 93.7242 47.2269 89.7656 45.2583 85.807C43.2498 81.767 41.2412 77.727 39.2326 73.687C39.1826 73.5856 39.1969 73.4642 39.2698 73.377C50.0255 60.4942 60.7841 47.6113 71.5426 34.7299C72.3241 33.6856 73.3412 32.8299 74.4855 32.2542C75.5612 31.7156 76.6784 31.4156 77.8055 31.3613C77.8112 31.3613 77.8169 31.3613 77.8226 31.3613L78.6084 31.367C78.6084 31.367 78.6183 31.367 78.6226 31.367C78.6312 31.367 78.6384 31.367 78.6469 31.367C78.9769 31.3885 79.3184 31.4342 79.6612 31.5028C81.1255 31.8013 82.4569 32.5242 83.6226 33.6485C84.6069 34.5956 85.2541 35.7056 86.3269 37.5442L86.3384 37.5642C86.6341 38.0728 86.8641 38.497 87.0312 38.8113C95.0969 55.0856 103.158 71.3513 111.218 87.6199C111.268 87.7213 111.254 87.8428 111.181 87.9299L95.3869 106.834C95.1941 107.056 94.7912 107.424 94.2184 107.441C94.0184 107.446 93.8284 107.408 93.6512 107.331C93.1584 107.126 92.8355 106.67 92.6798 106.451C92.4212 106.083 92.2612 105.658 92.1998 105.184V105.168C92.0526 104.006 91.1755 99.3828 90.2126 94.337C90.0155 93.3499 89.6626 92.4199 89.1626 91.5742C88.8755 91.0899 88.5826 90.5942 88.0726 90.1185C86.9112 89.0356 85.1526 88.5442 83.5926 88.8656C82.1084 89.1685 81.1912 90.1356 80.5226 90.8413C77.0169 94.5513 77.7555 100.06 77.8512 100.676C77.8984 100.986 78.0912 102.103 78.6126 103.471C79.0869 104.718 79.7269 105.898 80.5155 106.98C80.7098 107.244 80.8998 107.487 81.0798 107.706L86.7126 112.874C86.7298 112.891 86.7469 112.91 86.7598 112.93C87.0626 113.4 87.2598 113.91 87.3426 114.444C87.5384 115.683 87.0684 116.69 86.7712 117.18C86.7641 117.193 86.7555 117.204 86.7455 117.216L79.6169 125.683C76.6826 129.168 73.7484 132.653 70.8141 136.14C70.7598 136.204 70.6798 136.241 70.5955 136.241V136.24ZM59.0598 112.248L70.6569 135.438C73.4984 132.063 76.3398 128.688 79.1812 125.314L86.2955 116.864C86.5526 116.434 86.9441 115.576 86.7798 114.531C86.7112 114.087 86.5498 113.663 86.3012 113.268L80.6826 108.111C80.6726 108.103 80.6641 108.093 80.6555 108.083C80.4641 107.853 80.2641 107.596 80.0583 107.316C79.2383 106.191 78.5741 104.967 78.0826 103.673C77.5412 102.251 77.3398 101.084 77.2912 100.761C77.1912 100.118 76.4198 94.3556 80.1126 90.447C80.8341 89.6856 81.8226 88.6428 83.4826 88.3042C85.2169 87.947 87.1741 88.4942 88.4669 89.6999C89.0369 90.2328 89.3669 90.7885 89.6569 91.2785C90.1926 92.1856 90.5684 93.1756 90.7784 94.2271C91.9384 100.303 92.6369 104.028 92.7698 105.094V105.11C92.8212 105.491 92.9483 105.83 93.1483 106.117C93.2841 106.308 93.5326 106.66 93.8784 106.804C93.9855 106.85 94.0926 106.87 94.2084 106.868C94.5741 106.857 94.8526 106.581 94.9555 106.463L110.625 87.7056C102.593 71.4928 94.5583 55.2828 86.5241 39.0713C86.3626 38.7699 86.1369 38.3513 85.8455 37.8513L85.8341 37.8313C84.7869 36.0356 84.1541 34.9513 83.2269 34.0599C82.1412 33.0113 80.9041 32.3399 79.5484 32.0628C79.2412 32.0013 78.9341 31.9599 78.6383 31.9385C78.6226 31.9385 78.6069 31.9385 78.5912 31.937L77.8269 31.9313C76.7826 31.9828 75.7441 32.2628 74.7426 32.7642C73.6755 33.3013 72.7255 34.1013 71.9969 35.077C71.9941 35.0813 71.9912 35.0856 71.9869 35.0899C61.2669 47.9256 50.5484 60.7628 39.8298 73.5999C41.8098 77.5842 43.7912 81.5685 45.7726 85.5528C47.7412 89.5113 49.7083 93.4699 51.6769 97.427L51.6841 97.4399C51.8812 97.8342 52.4026 98.8828 52.1755 100.151C52.0655 100.764 51.8183 101.217 51.6812 101.431C51.1626 102.228 50.4798 102.527 49.1169 103.123C48.9098 103.213 48.6855 103.311 48.4426 103.42C48.4369 103.423 48.2641 103.5 46.4755 104.336C44.0741 105.456 41.9383 107.781 40.9041 110.404C40.2283 112.117 40.1698 113.577 40.1355 114.448C40.0641 116.276 40.3584 118.093 41.0098 119.85C41.2084 120.39 41.4098 120.918 41.6812 121.458C42.1469 122.396 42.7298 123.157 43.4655 123.787C44.0312 124.271 44.9769 125.081 46.4426 125.256C46.8798 125.31 48.4126 125.408 49.7898 124.453C50.0312 124.286 50.6712 123.844 52.0783 120.734C52.5798 119.623 53.0312 118.496 53.4212 117.387C53.7712 116.44 54.0212 115.687 54.1698 115.223C54.5455 114.046 54.7212 113.553 55.0398 112.657L55.0669 112.581C55.4512 111.498 55.6441 111.007 56.1884 110.687C56.3141 110.613 56.9841 110.247 57.6769 110.513C58.0655 110.661 58.2841 110.941 58.5141 111.238C58.7512 111.546 58.9326 111.883 59.0598 112.248Z" fill="black"/>
</g>
<g id="Group_7">
<path id="Vector_11" d="M68.6401 31.5999C66.0787 31.5899 63.5158 31.5799 60.9558 31.5713C61.1958 31.6741 61.3587 31.9084 61.4387 32.0241C61.6401 32.3184 61.6687 32.6184 61.6772 32.6827C61.7501 33.3156 62.1644 35.637 62.7515 38.877C62.8272 39.2756 62.9844 39.8727 63.3544 40.5113C63.5144 40.787 63.6901 41.0927 63.9972 41.3841C64.663 42.017 65.7101 42.357 66.6872 42.1656C67.5715 41.9941 68.113 41.4441 68.5344 41.0099C70.6258 38.8384 70.2044 35.6199 70.1558 35.2813C70.1358 35.1427 70.0358 34.4799 69.7287 33.6513C69.413 32.7956 69.0072 32.1113 68.643 31.6027L68.6401 31.5999Z" fill="#FF535E"/>
<path id="Vector_12" d="M66.1344 42.5028C65.2815 42.5028 64.4101 42.1728 63.7987 41.5914C63.4644 41.2728 63.2744 40.9457 63.1072 40.6571C62.8001 40.1257 62.5858 39.5457 62.4701 38.9314C61.8258 35.3743 61.4644 33.3314 61.393 32.7171C61.3687 32.5114 61.3044 32.3357 61.203 32.1871C61.1344 32.0871 61.0072 31.9043 60.8444 31.8357C60.7187 31.7828 60.6487 31.6485 60.6772 31.5157C60.7044 31.3828 60.8215 31.2871 60.9572 31.2871L64.1487 31.2985C65.6458 31.3043 67.1444 31.31 68.6415 31.3157C68.733 31.3157 68.8201 31.36 68.873 31.4357C69.3401 32.09 69.7172 32.8014 69.9944 33.5514C70.3001 34.3757 70.4101 35.0528 70.4358 35.2414C70.4901 35.6143 70.9044 38.9585 68.7372 41.2085C68.3344 41.6257 67.7258 42.2557 66.7387 42.4471C66.5401 42.4857 66.3372 42.5057 66.133 42.5057L66.1344 42.5028ZM61.6715 31.86C61.8287 32.0885 61.9244 32.35 61.9587 32.64C62.0358 33.31 62.5101 35.9485 63.0315 38.8271C63.1358 39.3757 63.3273 39.8957 63.6001 40.3685C63.7558 40.6385 63.9172 40.9157 64.1915 41.1771C64.8201 41.7743 65.7772 42.0514 66.6301 41.8843C67.4401 41.7271 67.9315 41.2185 68.3258 40.81C70.3044 38.7557 69.9201 35.6671 69.8701 35.3214C69.8458 35.1471 69.743 34.52 69.4587 33.7485C69.2158 33.0914 68.8915 32.4657 68.4915 31.8857C67.043 31.88 65.5944 31.8743 64.1458 31.8685L61.6715 31.86Z" fill="black"/>
</g>
<g id="Group_8">
<path id="Vector_13" d="M91.783 15.43C85.963 15.3643 80.143 15.2986 74.323 15.2314C76.523 19.7357 78.7216 24.2429 80.9201 28.7472C80.9644 28.8814 81.0459 29.08 81.2001 29.2843C81.3273 29.4514 81.4273 29.5829 81.6073 29.6543C81.9373 29.7843 82.2744 29.5972 82.3159 29.5729C82.5716 29.4257 82.6701 29.1943 82.893 28.5843C83.0916 28.0443 83.1916 27.7729 83.4173 27.0886C83.5144 26.7943 83.6616 26.37 83.8573 25.8543C84.0244 25.3929 84.283 24.7257 84.6459 23.94C85.4544 22.1986 85.843 21.89 86.0273 21.7657C86.9116 21.1643 87.893 21.2786 88.053 21.3C90.2216 21.32 92.3901 21.3414 94.5587 21.3614C93.6344 19.3829 92.7087 17.4057 91.783 15.4286V15.43Z" fill="#FF7E88"/>
<path id="Vector_14" d="M81.8559 29.9858C81.7444 29.9858 81.6245 29.9672 81.503 29.9201C81.2502 29.8215 81.1116 29.6387 80.9773 29.4629C80.8373 29.2772 80.7302 29.0744 80.6559 28.8558L74.0673 15.3572C74.0244 15.2687 74.0302 15.1629 74.083 15.0787C74.1359 14.9944 74.2287 14.9487 74.3273 14.9458C77.7216 14.9844 81.1159 15.0229 84.5102 15.0615L91.7873 15.1444C91.8973 15.1444 91.9959 15.2101 92.043 15.3087C92.9687 17.2858 93.8944 19.2644 94.8187 21.2415C94.8602 21.3301 94.853 21.4344 94.8002 21.5172C94.7473 21.6001 94.6559 21.6472 94.5573 21.6487L88.0516 21.5872C88.0402 21.5872 88.0287 21.5872 88.0173 21.5844C87.7787 21.5529 86.9445 21.4901 86.1902 22.0029C86.0716 22.0829 85.7116 22.3258 84.9073 24.0601C84.6173 24.6887 84.3545 25.3244 84.1273 25.9515C83.9216 26.4915 83.7759 26.9158 83.6902 27.1772C83.4687 27.8458 83.3659 28.1272 83.1802 28.6358L83.163 28.6815C82.9345 29.3087 82.8087 29.6201 82.4587 29.8187C82.4002 29.8529 82.1559 29.9829 81.8559 29.9829V29.9858ZM74.783 15.5215L81.1773 28.6201C81.183 28.6315 81.1873 28.6444 81.1916 28.6558C81.2459 28.8229 81.3259 28.9758 81.4287 29.1101C81.5502 29.2701 81.613 29.3472 81.7116 29.3858C81.9202 29.4687 82.1702 29.3258 82.1716 29.3244C82.3344 29.2301 82.4102 29.0715 82.6244 28.4844L82.6416 28.4372C82.8259 27.9344 82.9273 27.6572 83.1459 26.9972C83.2345 26.7301 83.383 26.2958 83.5902 25.7501C83.8216 25.1129 84.0902 24.4615 84.3873 23.8187C85.2587 21.9401 85.6859 21.6515 85.8673 21.5287C86.7702 20.9144 87.7616 20.9758 88.0716 21.0144L94.1073 21.0715C93.2716 19.2844 92.4359 17.4987 91.5987 15.7115L84.5002 15.6315C81.2602 15.5944 78.0216 15.5587 74.7802 15.5215H74.783Z" fill="black"/>
</g>
<g id="Group_9">
<path id="Vector_15" d="M105.721 21.5587C105.34 21.463 105.01 21.4515 104.78 21.4601C101.373 21.4273 97.9657 21.3958 94.5586 21.3644C92.39 21.3444 90.2214 21.323 88.0529 21.303C88.92 21.4158 89.4786 21.8901 89.8286 22.1958C90.3271 22.6315 90.6443 23.113 90.8714 23.5844C91.03 23.9073 91.1471 24.2273 91.2529 24.5215C91.4357 25.0273 91.8043 26.1715 91.7314 27.6687C91.7043 28.2058 91.6571 29.043 91.2586 30.023C90.6071 31.6301 89.2971 32.933 87.9657 33.5387C86.9157 34.0158 86.8371 34.0515 86.8371 34.0515C85.8 34.5016 85.3657 34.633 85.0514 35.1073C85.0143 35.1644 84.8543 35.413 84.7857 35.7758C84.6571 36.453 84.9414 37.023 85.0414 37.2301C87.2643 41.8116 89.4886 46.393 91.71 50.9744C97.4886 51.0616 103.267 51.1458 109.044 51.233C106.806 46.5716 104.567 41.9101 102.33 37.2487C102.246 37.0716 102.091 36.6773 102.15 36.1744C102.173 35.9816 102.233 35.523 102.606 35.143C102.831 34.9116 103.076 34.8115 103.164 34.7758C105.127 33.9758 106.93 33.2416 107.961 32.0587C108.61 31.3144 108.853 30.5087 109.014 29.9744C109.37 28.7944 109.303 27.8273 109.251 27.183C109.211 26.6701 109.08 25.603 108.547 24.3844C108.286 23.7873 108.046 23.2416 107.503 22.673C107.223 22.3801 106.65 21.7987 105.717 21.563L105.721 21.5587Z" fill="#FF7E88"/>
<path id="Vector_16" d="M109.047 51.5144H109.043L102.911 51.423C99.1771 51.3673 95.4428 51.3116 91.7085 51.2559C91.6 51.2544 91.5028 51.1916 91.4557 51.0944C90.3257 48.7644 89.1957 46.4344 88.0643 44.1059L84.7871 37.3502C84.6685 37.1059 84.3643 36.4802 84.5071 35.7187C84.5771 35.3487 84.73 35.0773 84.8143 34.9473C85.1343 34.4644 85.5628 34.283 86.34 33.9516C86.4585 33.9016 86.5857 33.8473 86.7257 33.7859C86.7314 33.783 86.8385 33.7359 87.85 33.2759C89.1985 32.663 90.4043 31.3744 90.9957 29.913C91.3828 28.9602 91.4228 28.1416 91.4471 27.6516C91.4971 26.6273 91.3414 25.6059 90.9857 24.6159C90.8757 24.3102 90.7657 24.0116 90.6171 23.7073C90.3643 23.1844 90.0457 22.7602 89.6428 22.4087C89.3343 22.1387 88.8171 21.6873 88.0185 21.5844C87.8685 21.5644 87.76 21.4316 87.77 21.2816C87.78 21.1302 87.9071 21.0187 88.0571 21.0159L104.784 21.173C105.116 21.1616 105.46 21.1973 105.793 21.2802C106.83 21.543 107.45 22.193 107.714 22.4702C108.296 23.0787 108.547 23.6544 108.813 24.2644C109.21 25.1744 109.461 26.173 109.54 27.1544C109.589 27.7687 109.67 28.7959 109.291 30.0516C109.123 30.6087 108.87 31.4502 108.18 32.2416C107.104 33.4759 105.244 34.2344 103.276 35.0359C103.2 35.0673 102.999 35.1487 102.813 35.3387C102.503 35.6559 102.457 36.0402 102.437 36.203C102.391 36.5973 102.496 36.9202 102.591 37.1216L109.306 51.1059C109.349 51.1944 109.341 51.3002 109.289 51.383C109.236 51.4659 109.146 51.5144 109.049 51.5144H109.047ZM91.8928 50.6887C95.5685 50.7444 99.2443 50.7987 102.92 50.853L108.59 50.9373L102.074 37.3687C101.946 37.0987 101.807 36.6673 101.869 36.1373C101.89 35.953 101.956 35.3959 102.404 34.9387C102.674 34.6644 102.964 34.5459 103.06 34.5073C104.964 33.7316 106.763 32.9987 107.75 31.8659C108.359 31.1687 108.59 30.3973 108.744 29.8873C109.091 28.7344 109.016 27.7744 108.97 27.2002C108.897 26.2816 108.661 25.3459 108.29 24.4944C108.034 23.9087 107.813 23.4016 107.301 22.8659C107.07 22.6244 106.53 22.0573 105.653 21.8359C105.373 21.7659 105.083 21.7344 104.791 21.7459L89.5471 21.603C89.7428 21.7402 89.8985 21.8773 90.0171 21.9802C90.4785 22.383 90.8428 22.8673 91.13 23.4587C91.2914 23.7873 91.4085 24.103 91.5228 24.4244C91.9057 25.4844 92.0714 26.5816 92.0171 27.6816C91.9914 28.2073 91.9471 29.0859 91.5243 30.1302C90.8785 31.7216 89.5614 33.1273 88.0857 33.7987C87.0457 34.2716 86.9557 34.3116 86.9528 34.313C86.8128 34.3744 86.6828 34.4287 86.5643 34.4802C85.8228 34.7959 85.5171 34.9259 85.2914 35.2644C85.2314 35.3573 85.12 35.5544 85.0685 35.8273C84.96 36.403 85.2043 36.9059 85.2971 37.0959L88.5785 43.8587C89.6828 46.1359 90.7885 48.413 91.8928 50.6902V50.6887Z" fill="black"/>
</g>
<g id="Group_10">
<path id="Vector_17" d="M109.047 51.2285C103.27 51.1428 97.4914 51.0571 91.7128 50.97C85.5086 58.2557 79.3057 65.5428 73.1014 72.8285C72.8428 73.1685 72.32 73.76 71.4657 74.18C71.2271 74.2971 70.5443 74.6185 69.6343 74.6543C75.2171 74.7543 80.8 74.8514 86.3828 74.9514C87.0314 75.0171 87.55 74.9214 87.8686 74.8385C88.5014 74.6728 88.9328 74.3971 89.2486 74.19C89.72 73.8843 90.0628 73.5628 90.2928 73.32C96.5443 65.9571 102.797 58.5928 109.049 51.23L109.047 51.2285Z" fill="#FF7E88"/>
<path id="Vector_18" d="M86.8143 75.2601C86.6643 75.2601 86.5143 75.2529 86.3643 75.2372C83.6043 75.1872 80.8457 75.1387 78.0872 75.0901C75.2672 75.0401 72.4472 74.9901 69.6272 74.9401C69.4729 74.9372 69.3486 74.8115 69.3472 74.6572C69.3458 74.5029 69.4672 74.3744 69.6215 74.3686C70.2015 74.3458 70.78 74.1958 71.3386 73.9229C71.9329 73.6315 72.4629 73.1929 72.8729 72.6558C72.8758 72.6515 72.8786 72.6472 72.8829 72.6444C79.0872 65.3587 85.2915 58.0729 91.4943 50.7858C91.55 50.7215 91.6372 50.6872 91.7158 50.6858C95.45 50.7415 99.1843 50.7972 102.919 50.8529L109.05 50.9444C109.16 50.9458 109.26 51.0115 109.306 51.1115C109.351 51.2115 109.334 51.3301 109.263 51.4144L90.5072 73.5044C90.5072 73.5044 90.5 73.5115 90.4972 73.5158C90.1672 73.8644 89.7986 74.1715 89.4015 74.4301C89.0943 74.6301 88.63 74.9329 87.9386 75.1158C87.5729 75.2129 87.1958 75.2601 86.8143 75.2601ZM71.6543 74.4058C73.8015 74.4444 75.95 74.4815 78.0972 74.5201C80.86 74.5687 83.6229 74.6172 86.3872 74.6672C86.3958 74.6672 86.4029 74.6672 86.4115 74.6672C86.8829 74.7158 87.3486 74.6801 87.7958 74.5615C88.3986 74.4029 88.8158 74.1301 89.0929 73.9501C89.4515 73.7172 89.7829 73.4415 90.08 73.1287L108.44 51.5058L102.913 51.4229C99.2243 51.3686 95.5343 51.3129 91.8443 51.2586C85.6715 58.5086 79.4986 65.7586 73.3243 73.0086C72.8772 73.5944 72.3 74.0758 71.6543 74.4058Z" fill="black"/>
</g>
<g id="Group_11">
<path id="Vector_19" d="M81.6072 29.6543C81.4272 29.5829 81.3272 29.4514 81.2001 29.2843C81.0458 29.08 80.9644 28.8814 80.9201 28.7472C78.7201 24.2429 76.5215 19.7357 74.3229 15.2314C71.2615 18.8 68.1986 22.3657 65.1372 25.9329C65.0301 26.1072 64.7129 26.6614 64.8186 27.38C64.8715 27.7414 65.0129 28.0143 65.1186 28.1829C66.1815 29.1786 67.2458 30.1729 68.3086 31.1686C68.4115 31.2957 68.5229 31.44 68.6386 31.6014C69.0029 32.11 69.4086 32.7943 69.7244 33.65C70.0301 34.4786 70.1315 35.1429 70.1515 35.28C70.2001 35.6186 70.6215 38.8372 68.5301 41.0086C68.1101 41.4443 67.5672 41.9929 66.6829 42.1643C65.7058 42.3557 64.6586 42.0157 63.9929 41.3829C63.6872 41.0914 63.5101 40.7857 63.3501 40.51C62.9815 39.8714 62.8229 39.2757 62.7472 38.8757C62.1601 35.6357 61.7458 33.3157 61.6729 32.6814C61.6644 32.6172 61.6372 32.3172 61.4344 32.0229C61.3544 31.9072 61.1929 31.6729 60.9515 31.57C60.8744 31.5357 60.7915 31.5172 60.6972 31.5186C60.4144 31.5243 60.2144 31.7272 60.1486 31.8014C57.1129 35.3643 54.0772 38.9286 51.0415 42.4914C55.5472 51.81 60.0544 61.1272 64.5601 70.4443C64.6486 70.6157 64.7786 70.8629 64.9458 71.1529C65.5429 72.2 65.9029 72.8329 66.4458 73.3643C66.6944 73.61 67.4301 74.3129 68.6115 74.5657C68.8029 74.6057 68.9886 74.6329 69.1672 74.6457C69.1672 74.6457 69.1701 74.6457 69.1729 74.6457C69.1729 74.6457 69.1772 74.6457 69.1801 74.6457C69.3286 74.6486 69.4786 74.6514 69.6272 74.6529C70.5386 74.6172 71.2201 74.2957 71.4586 74.1786C72.3129 73.7586 72.8358 73.1672 73.0944 72.8272C79.2986 65.5414 85.5029 58.2557 91.7058 50.9686C89.4829 46.3872 87.2586 41.8057 85.0372 37.2243C84.9372 37.0172 84.6529 36.4472 84.7815 35.77C84.8501 35.4072 85.0086 35.16 85.0472 35.1014C85.3615 34.6286 85.7944 34.4957 86.8329 34.0457C86.8329 34.0457 86.9129 34.0114 87.9615 33.5329C89.2915 32.9272 90.6029 31.6243 91.2544 30.0172C91.6529 29.0372 91.7001 28.2 91.7272 27.6629C91.8001 26.1657 91.4315 25.0214 91.2486 24.5157C91.1429 24.2214 91.0258 23.9014 90.8672 23.5786C90.6386 23.1072 90.3215 22.6257 89.8244 22.19C89.4758 21.8857 88.9158 21.41 88.0487 21.2972C87.8887 21.2757 86.9072 21.1614 86.0229 21.7629C85.8386 21.8872 85.4501 22.1943 84.6415 23.9372C84.2786 24.7229 84.0201 25.39 83.8529 25.8514C83.6572 26.3672 83.5101 26.7929 83.4129 27.0857C83.1872 27.77 83.0872 28.04 82.8886 28.5814C82.6658 29.1914 82.5672 29.4229 82.3115 29.57C82.2701 29.5943 81.9329 29.7814 81.6029 29.6514L81.6072 29.6543Z" fill="#FF444F"/>
<path id="Vector_20" d="M69.6329 74.9401C69.6329 74.9401 69.63 74.9401 69.6272 74.9401L69.18 74.9329C69.1715 74.9329 69.1615 74.9329 69.1515 74.9329C68.9572 74.9186 68.7572 74.8901 68.5572 74.8472C67.7 74.6643 66.9243 74.2343 66.25 73.5701C65.6815 73.0129 65.3157 72.3715 64.71 71.3086C64.5343 70.9986 64.4 70.7443 64.3129 70.5786C59.8029 61.2543 55.2957 51.9372 50.79 42.6186C50.7415 42.5172 50.7557 42.3958 50.83 42.3086L59.9372 31.6186C60.0629 31.4758 60.3243 31.2429 60.6972 31.2358C60.83 31.2315 60.9557 31.2601 61.0729 31.3115C61.3843 31.4443 61.5786 31.7258 61.6729 31.8601C61.83 32.0886 61.9257 32.3501 61.96 32.6401C62.0372 33.3101 62.5115 35.9486 63.0329 38.8272C63.1372 39.3758 63.3286 39.8958 63.6015 40.3686C63.7572 40.6386 63.9186 40.9158 64.1929 41.1772C64.8215 41.7743 65.7786 42.0515 66.6315 41.8843C67.4415 41.7272 67.9329 41.2186 68.3272 40.8101C70.3057 38.7558 69.9215 35.6672 69.8715 35.3215C69.8472 35.1472 69.7443 34.5201 69.46 33.7486C69.2 33.0458 68.8472 32.3786 68.41 31.7672C68.3043 31.6201 68.2 31.4843 68.1029 31.3629L64.9272 28.3915C64.91 28.3743 64.8943 28.3558 64.8815 28.3358C64.7015 28.0515 64.5872 27.7443 64.54 27.4215C64.43 26.6758 64.7172 26.0743 64.8972 25.7829C64.9043 25.7701 64.9143 25.7586 64.9229 25.7472L74.1086 15.0458C74.1715 14.9729 74.2672 14.9372 74.3615 14.9486C74.4572 14.9615 74.54 15.0201 74.5815 15.1072L81.1786 28.6229C81.1843 28.6343 81.1886 28.6472 81.1929 28.6586C81.2472 28.8258 81.3272 28.9786 81.43 29.1129C81.5515 29.2729 81.6143 29.3501 81.7129 29.3886C81.9215 29.4715 82.17 29.3286 82.1729 29.3272C82.3358 29.2329 82.4115 29.0743 82.6257 28.4872L82.6429 28.4401C82.8272 27.9372 82.9286 27.6601 83.1472 27.0001C83.2358 26.7329 83.3843 26.2986 83.5915 25.7529C83.8229 25.1158 84.0915 24.4643 84.3886 23.8215C85.26 21.9429 85.6872 21.6543 85.8686 21.5315C86.79 20.9058 87.8029 20.9815 88.0915 21.0186C89.06 21.1443 89.6829 21.6872 90.0172 21.9801C90.4786 22.3829 90.8429 22.8672 91.13 23.4586C91.2915 23.7872 91.4086 24.1029 91.5229 24.4243C91.9057 25.4843 92.0715 26.5815 92.0172 27.6815C91.9915 28.2072 91.9472 29.0858 91.5243 30.1301C90.8786 31.7215 89.5615 33.1272 88.0857 33.7986C87.0457 34.2715 86.9557 34.3115 86.9529 34.3129C86.8129 34.3743 86.6829 34.4286 86.5643 34.4801C85.8229 34.7958 85.5172 34.9258 85.2915 35.2643C85.2315 35.3572 85.12 35.5543 85.0686 35.8272C84.96 36.4029 85.2043 36.9058 85.2972 37.0958L88.5786 43.8586C89.7086 46.1886 90.84 48.5186 91.97 50.8472C92.02 50.9486 92.0043 51.0715 91.93 51.1572C85.7272 58.4415 79.5257 65.7258 73.3229 73.0101C72.86 73.6143 72.2615 74.1086 71.59 74.4386C70.9586 74.7472 70.3029 74.9172 69.6429 74.9415C69.6386 74.9415 69.6357 74.9415 69.6315 74.9415L69.6329 74.9401ZM69.2029 74.3615L69.6286 74.3686C70.2057 74.3458 70.7815 74.1958 71.3386 73.9229C71.9329 73.6315 72.4629 73.1929 72.8729 72.6558C72.8757 72.6515 72.8786 72.6472 72.8829 72.6443C79.0472 65.4058 85.21 58.1672 91.3743 50.9286C90.2715 48.6543 89.1686 46.3815 88.0643 44.1072L84.7872 37.3515C84.6686 37.1072 84.3643 36.4815 84.5072 35.7201C84.5772 35.3501 84.73 35.0786 84.8143 34.9486C85.1343 34.4658 85.5629 34.2843 86.34 33.9529C86.4586 33.9029 86.5858 33.8486 86.7257 33.7872C86.7315 33.7843 86.8386 33.7372 87.85 33.2772C89.1986 32.6643 90.4043 31.3758 90.9957 29.9143C91.3829 28.9615 91.4229 28.1429 91.4472 27.6529C91.4972 26.6286 91.3415 25.6072 90.9858 24.6172C90.8758 24.3115 90.7657 24.0129 90.6172 23.7086C90.3643 23.1858 90.0457 22.7615 89.6429 22.4101C89.3343 22.1401 88.8172 21.6886 88.0186 21.5858C87.78 21.5543 86.9458 21.4915 86.19 22.0043C86.0715 22.0843 85.7115 22.3272 84.9072 24.0615C84.6172 24.6901 84.3543 25.3258 84.1272 25.9529C83.9215 26.4929 83.7757 26.9172 83.69 27.1786C83.4686 27.8472 83.3657 28.1286 83.18 28.6372L83.1629 28.6829C82.9343 29.3101 82.8086 29.6215 82.4586 29.8201C82.3786 29.8672 81.9486 30.0943 81.5029 29.9186C81.25 29.8186 81.1115 29.6372 80.9772 29.4615C80.8372 29.2758 80.73 29.0729 80.6558 28.8543L74.2572 15.7458L65.3686 26.1001C65.2286 26.3315 65.02 26.7858 65.1015 27.3372C65.1357 27.5701 65.2158 27.7915 65.3415 27.9986L68.5043 30.9586C68.5143 30.9672 68.5229 30.9772 68.53 30.9872C68.6386 31.1215 68.7529 31.2715 68.8715 31.4329C69.34 32.0872 69.7172 32.8001 69.9943 33.5501C70.3 34.3743 70.41 35.0515 70.4357 35.2401C70.49 35.6129 70.9043 38.9572 68.7372 41.2072C68.3343 41.6243 67.7257 42.2543 66.7386 42.4458C65.71 42.6472 64.5557 42.3115 63.7972 41.5915C63.4629 41.2729 63.2729 40.9458 63.1057 40.6572C62.7986 40.1258 62.5843 39.5458 62.4686 38.9315C61.8243 35.3743 61.4629 33.3315 61.3915 32.7172C61.3672 32.5115 61.3029 32.3358 61.2015 32.1872C61.1329 32.0872 61.0057 31.9043 60.8429 31.8358C60.7972 31.8158 60.7529 31.8072 60.7043 31.8072C60.5457 31.8101 60.4157 31.9386 60.3672 31.9929L51.3843 42.5372C55.8629 51.8001 60.3429 61.0615 64.8229 70.3215C64.9029 70.4758 65.0343 70.7243 65.1986 71.0143C65.7872 72.0458 66.1386 72.6615 66.65 73.1629C67.2472 73.7501 67.9286 74.1286 68.6757 74.2886C68.8429 74.3243 69.01 74.3486 69.1729 74.3615C69.1829 74.3615 69.1929 74.3615 69.2029 74.3629V74.3615Z" fill="black"/>
</g>
</g>
</g>
</g>
</g>
</svg>
