<svg width="120" height="152" viewBox="0 0 120 152" fill="none" xmlns="http://www.w3.org/2000/svg">
<g id="illustration / deriv / light / flexible-payouts">
<g id="Flex Payout">
<g id="Layer 1">
<g id="Group">
<g id="Group_2">
<g id="Group_3">
<path id="Vector" d="M114.56 18.7915V33.1844C114.56 35.7386 107.95 38.4901 99.6058 40.0886H99.6015C95.24 40.9258 90.41 41.4486 85.7943 41.4644C81.1629 41.4786 76.3343 40.9872 71.98 40.1758H71.9758C63.5686 38.6144 56.9343 35.8701 56.9343 33.3172V18.9215C56.9343 21.8886 65.8872 25.1115 76.1686 26.4415C79.3243 26.8515 82.6072 27.0815 85.7943 27.0686C88.96 27.0572 92.2315 26.8086 95.3815 26.3815C105.606 25.0044 114.56 21.7644 114.56 18.7915Z" fill="white"/>
<path id="Vector_2" d="M85.5929 41.7501C81.2029 41.7501 76.4886 41.3044 71.9429 40.4601C71.9358 40.4601 71.9286 40.4587 71.9229 40.4573C67.7144 39.6758 63.9001 38.583 61.1858 37.3801C59.1158 36.463 56.6472 35.013 56.6472 33.3173V18.9215C56.6472 18.7644 56.7758 18.6358 56.9329 18.6358C57.0901 18.6358 57.2186 18.7644 57.2186 18.9215C57.2186 21.5587 65.7358 24.8044 76.2044 26.1573C79.4844 26.583 82.7129 26.793 85.7929 26.7815C88.8629 26.7701 92.0758 26.5387 95.3429 26.0973C105.782 24.6901 114.274 21.413 114.274 18.7901C114.274 18.633 114.403 18.5044 114.56 18.5044C114.717 18.5044 114.846 18.633 114.846 18.7901V33.183C114.846 34.543 113.326 35.913 110.329 37.2544C107.637 38.4601 103.847 39.5658 99.6586 40.3687C99.6515 40.3687 99.6429 40.3715 99.6358 40.3715C95.0101 41.2587 90.2229 41.7344 85.7944 41.7487C85.7272 41.7487 85.6586 41.7487 85.5915 41.7487L85.5929 41.7501ZM72.0115 39.8915C72.0115 39.8915 72.0258 39.893 72.0315 39.8944C76.6158 40.7473 81.3744 41.1887 85.7929 41.1772C90.1929 41.163 94.9486 40.6901 99.5458 39.8072C99.5529 39.8072 99.5615 39.8044 99.5686 39.8044C108.229 38.143 114.274 35.4201 114.274 33.1844V20.223C112.024 23.0701 103.503 25.5758 95.4186 26.6644C92.1272 27.1101 88.8886 27.343 85.7944 27.3544C82.6844 27.3644 79.4358 27.1544 76.1301 26.7244C68.0201 25.6758 59.4715 23.2058 57.2186 20.3544V33.3158C57.2186 35.533 63.4401 38.2973 72.0115 39.8901V39.8915Z" fill="black"/>
</g>
<g id="Group_4">
<path id="Vector_3" d="M114.56 33.184V46.3298C114.56 49.1569 106.464 52.224 96.8815 53.704H96.8787C93.2772 54.2612 89.4658 54.5969 85.7929 54.6083C82.1001 54.6198 78.2829 54.3098 74.6758 53.7712H74.673C65.033 52.3355 56.9315 49.2812 56.9315 46.4583V33.3155C56.9315 35.8683 63.5658 38.6126 71.9729 40.174H71.9772C76.3315 40.984 81.1587 41.4769 85.7915 41.4626C90.4072 41.4483 95.2358 40.924 99.5987 40.0869H99.6029C107.947 38.4869 114.557 35.7369 114.557 33.1826L114.56 33.184Z" fill="white"/>
<path id="Vector_4" d="M85.5915 54.8957C82.1115 54.8957 78.333 54.6057 74.6458 54.0571C74.6415 54.0571 74.6373 54.0571 74.633 54.0557C65.6958 52.7257 56.6487 49.6885 56.6487 46.4614V33.3185C56.6487 33.1614 56.7773 33.0328 56.9344 33.0328C57.0915 33.0328 57.2201 33.1614 57.2201 33.3185C57.2201 35.5357 63.4415 38.2999 72.013 39.8928C72.0201 39.8928 72.0273 39.8942 72.033 39.8957C76.5487 40.7357 81.233 41.1799 85.593 41.1799C85.6601 41.1799 85.7273 41.1799 85.7944 41.1799C90.1944 41.1657 94.9501 40.6928 99.5473 39.8099C99.5544 39.8099 99.563 39.8071 99.5701 39.8071C108.23 38.1457 114.276 35.4228 114.276 33.1871C114.276 33.0299 114.404 32.9014 114.562 32.9014C114.719 32.9014 114.847 33.0299 114.847 33.1871V46.3328C114.847 48.1999 111.897 49.7871 109.423 50.7899C106.157 52.1128 101.72 53.2499 96.9273 53.9899C96.923 53.9899 96.9173 53.9899 96.913 53.9914C93.1515 54.5728 89.3087 54.8857 85.7973 54.8971C85.7301 54.8971 85.6615 54.8971 85.593 54.8971L85.5915 54.8957ZM74.7058 53.4885C74.7058 53.4885 74.7144 53.4885 74.7187 53.4899C78.453 54.0471 82.2858 54.3371 85.793 54.3242C89.2801 54.3128 93.0987 54.0014 96.8358 53.4228C96.8401 53.4228 96.8458 53.4228 96.8501 53.4214C101.596 52.6871 105.984 51.5642 109.207 50.2585C113.616 48.4728 114.274 47.0314 114.274 46.3314V34.6342C113.582 35.5128 112.263 36.3914 110.329 37.2571C107.637 38.4628 103.847 39.5685 99.6587 40.3714C99.6515 40.3714 99.643 40.3742 99.6358 40.3742C95.0101 41.2614 90.223 41.7371 85.7944 41.7514C81.3444 41.7657 76.5573 41.3185 71.943 40.4614C71.9358 40.4614 71.9287 40.4599 71.923 40.4585C67.7144 39.6771 63.9001 38.5842 61.1858 37.3814C59.7273 36.7342 58.0701 35.8242 57.2187 34.7485V46.4614C57.2187 48.9414 64.8987 52.0285 74.7058 53.4899V53.4885Z" fill="black"/>
</g>
<g id="Group_5">
<path id="Vector_5" d="M114.56 46.3296V60.2982C114.644 64.1939 99.273 68.561 85.7944 68.6067C72.1973 68.6553 56.8659 64.3196 56.9344 60.4339V46.461C56.9344 49.2839 65.0359 52.3382 74.6759 53.7739H74.6787C78.2859 54.3124 82.1016 54.6224 85.7959 54.611C89.4673 54.5996 93.2787 54.2639 96.8816 53.7067H96.8844C106.467 52.2253 114.563 49.1596 114.563 46.3324L114.56 46.3296Z" fill="white"/>
<path id="Vector_6" d="M85.5658 68.8926C80.0215 68.8926 73.9915 68.184 68.5587 66.8926C63.2058 65.6197 59.1901 63.9311 57.5415 62.2597C56.9387 61.6483 56.6387 61.0326 56.6487 60.4283V46.4597C56.6487 46.3026 56.7773 46.174 56.9344 46.174C57.0915 46.174 57.2201 46.3026 57.2201 46.4597C57.2201 48.9397 64.9001 52.0254 74.7073 53.4883C74.7115 53.4883 74.7158 53.4883 74.7201 53.4897C78.4544 54.0468 82.2873 54.3368 85.7944 54.324C89.2815 54.3126 93.1001 54.0011 96.8372 53.4226C96.8415 53.4226 96.8473 53.4226 96.8515 53.4211C101.597 52.6868 105.986 51.564 109.209 50.2583C113.617 48.4726 114.276 47.0311 114.276 46.3311C114.276 46.174 114.404 46.0454 114.562 46.0454C114.719 46.0454 114.847 46.174 114.847 46.3311V60.2997C114.86 60.8954 114.564 61.5097 113.97 62.1197C112.337 63.794 108.326 65.4997 102.966 66.7997C97.5544 68.1111 91.2958 68.8754 85.7958 68.894C85.7201 68.894 85.643 68.894 85.5658 68.894V68.8926ZM57.2187 47.884V60.4326C57.2115 60.8826 57.4558 61.3597 57.9473 61.8568C61.3001 65.2568 74.4258 68.3197 85.5787 68.3197C85.6501 68.3197 85.7215 68.3197 85.793 68.3197C96.993 68.2811 110.227 65.1354 113.559 61.7183C114.043 61.2211 114.283 60.7454 114.274 60.3026V47.7654C113.296 49.0054 111.232 50.0511 109.422 50.7854C106.156 52.1083 101.719 53.2454 96.9258 53.9854C96.9215 53.9854 96.9158 53.9854 96.9115 53.9868C93.1501 54.5683 89.3073 54.8811 85.7958 54.8926C82.2558 54.9068 78.4058 54.614 74.6473 54.054C74.643 54.054 74.6387 54.054 74.6344 54.0526C67.0273 52.9197 59.3415 50.5526 57.2215 47.8811L57.2187 47.884Z" fill="black"/>
</g>
<g id="Group_6">
<path id="Vector_7" d="M114.56 60.3271V74.2957C114.644 78.1914 99.2729 82.5586 85.7943 82.6043C72.1972 82.6529 56.8657 78.3171 56.9343 74.4314V60.4586C56.9343 63.2814 65.0357 66.3357 74.6757 67.7714H74.6786C78.2857 68.31 82.1015 68.62 85.7957 68.6086C89.4672 68.5971 93.2786 68.2614 96.8815 67.7043H96.8843C106.467 66.2229 114.563 63.1571 114.563 60.33L114.56 60.3271Z" fill="white"/>
<path id="Vector_8" d="M85.5644 82.8901C80.0201 82.8901 73.9901 82.1815 68.5572 80.8901C63.2044 79.6173 59.1886 77.9287 57.5401 76.2573C56.9372 75.6458 56.6372 75.0301 56.6472 74.4258V60.4573C56.6472 60.3001 56.7758 60.1715 56.9329 60.1715C57.0901 60.1715 57.2186 60.3001 57.2186 60.4573C57.2186 62.9373 64.8986 66.023 74.7058 67.4858C74.7101 67.4858 74.7144 67.4858 74.7186 67.4873C78.4529 68.0444 82.2872 68.3344 85.7915 68.3215C89.2786 68.3101 93.0972 67.9987 96.8344 67.4201C96.8386 67.4201 96.8444 67.4201 96.8486 67.4187C101.594 66.6844 105.983 65.5615 109.206 64.2558C113.614 62.4701 114.273 61.0287 114.273 60.3287C114.273 60.1715 114.402 60.043 114.559 60.043C114.716 60.043 114.844 60.1715 114.844 60.3287V74.2973C114.857 74.893 114.562 75.5073 113.967 76.1173C112.334 77.7915 108.323 79.4973 102.963 80.7973C97.5515 82.1087 91.2929 82.873 85.7929 82.8915C85.7172 82.8915 85.6401 82.8915 85.5629 82.8915L85.5644 82.8901ZM57.2186 61.8815V74.4301C57.2115 74.8801 57.4558 75.3573 57.9472 75.8544C61.3001 79.2544 74.4258 82.3173 85.5772 82.3173C85.6486 82.3173 85.7201 82.3173 85.7915 82.3173C96.9915 82.2787 110.226 79.133 113.557 75.7158C114.042 75.2187 114.282 74.743 114.273 74.3001V61.763C113.294 63.003 111.23 64.0487 109.42 64.783C106.154 66.1058 101.717 67.2415 96.9244 67.983C96.9201 67.983 96.9144 67.983 96.9101 67.9844C93.1486 68.5658 89.3058 68.8787 85.7944 68.8901C82.2544 68.8987 78.4044 68.6115 74.6458 68.0515C74.6415 68.0515 74.6372 68.0515 74.6329 68.0501C67.0258 66.9173 59.3386 64.5501 57.2186 61.8787V61.8815Z" fill="black"/>
</g>
<g id="Group_7">
<path id="Vector_9" d="M114.56 74.3242V88.2928C114.644 92.1885 99.2729 96.5556 85.7943 96.6014C72.1972 96.6499 56.8657 92.3142 56.9343 88.4285V74.4556C56.9343 77.2785 65.0357 80.3328 74.6757 81.7685H74.6786C78.2857 82.3071 82.1015 82.6171 85.7957 82.6056C89.4672 82.5942 93.2786 82.2585 96.8815 81.7014H96.8843C106.467 80.2199 114.563 77.1542 114.563 74.3271L114.56 74.3242Z" fill="white"/>
<path id="Vector_10" d="M85.5644 96.8872C80.0201 96.8872 73.9901 96.1786 68.5572 94.8872C63.2044 93.6143 59.1886 91.9258 57.5401 90.2543C56.9372 89.6429 56.6372 89.0272 56.6472 88.4229V74.4543C56.6472 74.2972 56.7758 74.1686 56.9329 74.1686C57.0901 74.1686 57.2186 74.2972 57.2186 74.4543C57.2186 76.9343 64.8986 80.0215 74.7058 81.4829C74.7101 81.4829 74.7144 81.4829 74.7186 81.4843C78.4529 82.0415 82.2844 82.3286 85.7915 82.3186C89.2786 82.3072 93.0972 81.9957 96.8344 81.4172C96.8386 81.4172 96.8444 81.4172 96.8486 81.4157C101.594 80.6815 105.983 79.5586 109.206 78.2529C113.614 76.4672 114.273 75.0258 114.273 74.3258C114.273 74.1686 114.402 74.04 114.559 74.04C114.716 74.04 114.844 74.1686 114.844 74.3258V88.2943C114.857 88.89 114.562 89.5043 113.967 90.1143C112.334 91.7886 108.323 93.4943 102.963 94.7943C97.5515 96.1057 91.2929 96.87 85.7929 96.8886C85.7172 96.8886 85.6401 96.8886 85.5629 96.8886L85.5644 96.8872ZM57.2186 75.8786V88.4272C57.2115 88.8772 57.4558 89.3543 57.9472 89.8529C61.3229 93.2757 74.6001 96.3586 85.7929 96.3158C96.9929 96.2772 110.227 93.1315 113.559 89.7143C114.043 89.2172 114.283 88.7415 114.274 88.2986V75.7615C113.296 77.0015 111.232 78.0472 109.422 78.7815C106.156 80.1043 101.719 81.24 96.9258 81.9815C96.9215 81.9815 96.9158 81.9815 96.9115 81.9829C93.1501 82.5643 89.3072 82.8772 85.7958 82.8886C82.2572 82.9029 78.4058 82.61 74.6472 82.05C74.6429 82.05 74.6386 82.05 74.6344 82.0486C67.0272 80.9158 59.3401 78.5486 57.2201 75.8772L57.2186 75.8786Z" fill="black"/>
</g>
<g id="Group_8">
<path id="Vector_11" d="M114.56 18.7598V18.7913C114.56 21.7641 105.604 25.0027 95.3815 26.3813C92.2315 26.8084 88.96 27.057 85.7943 27.0684C82.6072 27.0798 79.3243 26.8513 76.1686 26.4413C65.8872 25.1127 56.9343 21.8884 56.9343 18.9213V18.8941C57.0043 15.0227 72.3715 11.6998 84.4529 11.4684C98.0857 11.2098 114.476 14.7541 114.56 18.7584V18.7598Z" fill="#EBECEE"/>
<path id="Vector_12" d="M85.5487 27.3542C82.5158 27.3542 79.3486 27.1428 76.1301 26.7242C66.6844 25.5028 56.6472 22.3528 56.6472 18.9213V18.8942C56.6715 17.5256 58.3358 15.4899 66.1186 13.5385C71.5429 12.1785 78.3944 11.2985 84.4472 11.1828C91.0415 11.0571 98.5958 11.8256 104.652 13.2371C108.434 14.1185 114.787 16.0071 114.846 18.7528V18.7899C114.846 22.2028 104.837 25.3942 95.4186 26.6628C92.1272 27.1085 88.8886 27.3413 85.7944 27.3528C85.7129 27.3528 85.6301 27.3528 85.5487 27.3528V27.3542ZM85.8601 11.7413C85.3886 11.7413 84.9201 11.7456 84.4572 11.7542C78.4458 11.8699 71.6415 12.7442 66.2572 14.0928C60.5415 15.5256 57.2472 17.2771 57.2186 18.8985V18.9199C57.2186 21.5571 65.7358 24.8028 76.2044 26.1556C79.4844 26.5813 82.7115 26.7899 85.7929 26.7799C88.8629 26.7685 92.0758 26.5371 95.3429 26.0956C105.782 24.6885 114.274 21.4113 114.274 18.7885V18.7599C114.234 17.0628 110.59 15.2056 104.522 13.7913C98.9344 12.4899 92.0615 11.7385 85.8601 11.7385V11.7413Z" fill="black"/>
</g>
</g>
<g id="Group_9">
<g id="Group_10">
<path id="Vector_13" d="M61.4614 50.3486V64.7415C61.4614 67.2958 54.8514 70.0472 46.5071 71.6458H46.5028C42.1414 72.4829 37.3114 73.0058 32.6957 73.0215C28.0643 73.0358 23.2357 72.5443 18.8814 71.7329H18.8771C10.47 70.1715 3.83569 67.4272 3.83569 64.8743V50.4786C3.83569 53.4458 12.7885 56.6686 23.07 57.9986C26.2257 58.4086 29.5085 58.6386 32.6957 58.6258C35.8614 58.6143 39.1328 58.3658 42.2828 57.9386C52.5071 56.5615 61.4614 53.3215 61.4614 50.3486Z" fill="white"/>
<path id="Vector_14" d="M32.4943 73.3072C28.1043 73.3072 23.39 72.8615 18.8443 72.0172C18.8372 72.0172 18.83 72.0158 18.8243 72.0144C14.6157 71.233 10.8014 70.1401 8.08716 68.9372C6.01716 68.0201 3.54858 66.5701 3.54858 64.8744V50.4787C3.54858 50.3215 3.67716 50.193 3.8343 50.193C3.99144 50.193 4.12001 50.3215 4.12001 50.4787C4.12001 53.1158 12.6372 56.3615 23.1057 57.7144C26.3857 58.1401 29.61 58.3501 32.6943 58.3387C35.7629 58.3272 38.9772 58.0958 42.2443 57.6544C52.6829 56.2472 61.1757 52.9701 61.1757 50.3472C61.1757 50.1901 61.3043 50.0615 61.4614 50.0615C61.6186 50.0615 61.7472 50.1901 61.7472 50.3472V64.7401C61.7472 66.1001 60.2272 67.4701 57.23 68.8115C54.5386 70.0172 50.7486 71.123 46.56 71.9258C46.5529 71.9258 46.5443 71.9287 46.5372 71.9287C41.91 72.8158 37.1243 73.2915 32.6957 73.3058C32.6286 73.3058 32.56 73.3058 32.4929 73.3058L32.4943 73.3072ZM18.9143 71.4487C18.9143 71.4487 18.9286 71.4501 18.9343 71.4515C23.5186 72.3044 28.2757 72.7515 32.6943 72.7344C37.0943 72.7201 41.85 72.2472 46.4486 71.3644C46.4557 71.3644 46.4643 71.3615 46.4714 71.3615C55.1314 69.7001 61.1772 66.9772 61.1772 64.7415V51.7801C58.9272 54.6272 50.4057 57.133 42.3214 58.2215C39.03 58.6672 35.7914 58.9001 32.6972 58.9115C29.59 58.923 26.3386 58.7115 23.0329 58.2815C14.9229 57.233 6.3743 54.763 4.12144 51.9115V64.873C4.12144 67.0901 10.3414 69.8544 18.9143 71.4472V71.4487Z" fill="black"/>
</g>
<g id="Group_11">
<path id="Vector_15" d="M61.4615 64.7412V77.8869C61.4615 80.714 53.3657 83.7812 43.7829 85.2612H43.78C40.1786 85.8183 36.3672 86.154 32.6943 86.1655C29.0015 86.1769 25.1843 85.8669 21.5772 85.3283H21.5743C11.9343 83.8926 3.83289 80.8383 3.83289 78.0155V64.8726C3.83289 67.4255 10.4672 70.1697 18.8743 71.7312H18.8786C23.2329 72.5412 28.06 73.034 32.6929 73.0197C37.3086 73.0055 42.1372 72.4812 46.5 71.644H46.5043C54.8486 70.044 61.4586 67.294 61.4586 64.7397L61.4615 64.7412Z" fill="white"/>
<path id="Vector_16" d="M32.4929 86.4527C29.0143 86.4527 25.2343 86.1627 21.5472 85.6142C21.5429 85.6142 21.5386 85.6142 21.5343 85.6127C12.5972 84.2827 3.54858 81.2456 3.54858 78.0185V64.8756C3.54858 64.7185 3.67716 64.5899 3.8343 64.5899C3.99144 64.5899 4.12001 64.7185 4.12001 64.8756C4.12001 67.0927 10.34 69.857 18.9129 71.4499C18.92 71.4499 18.9272 71.4513 18.9329 71.4527C23.5172 72.3056 28.28 72.7485 32.6929 72.7356C37.0929 72.7213 41.8486 72.2485 46.4472 71.3656C46.4543 71.3656 46.4629 71.3627 46.47 71.3627C55.13 69.7013 61.1757 66.9785 61.1757 64.7427C61.1757 64.5856 61.3043 64.457 61.4614 64.457C61.6186 64.457 61.7472 64.5856 61.7472 64.7427V77.8885C61.7472 79.7556 58.7972 81.3427 56.3229 82.3456C53.0572 83.6685 48.62 84.8042 43.8272 85.5456C43.8229 85.5456 43.8172 85.5456 43.8129 85.547C40.0514 86.1285 36.2086 86.4413 32.6972 86.4527C32.63 86.4527 32.5614 86.4527 32.4943 86.4527H32.4929ZM21.6086 85.0456C21.6086 85.0456 21.6172 85.0456 21.6214 85.047C25.3572 85.6042 29.1829 85.8942 32.6957 85.8813C36.1829 85.8699 40.0014 85.5585 43.7386 84.9799C43.7429 84.9799 43.7486 84.9799 43.7529 84.9785C48.4986 84.2442 52.8872 83.1213 56.11 81.8156C60.5186 80.0299 61.1772 78.5885 61.1772 77.8885V66.1913C60.4843 67.0699 59.1657 67.9485 57.2314 68.8142C54.54 70.0199 50.75 71.1256 46.5614 71.9285C46.5543 71.9285 46.5472 71.9313 46.5386 71.9313C41.9114 72.8185 37.1257 73.2942 32.6972 73.3085C28.2472 73.3242 23.46 72.8756 18.8457 72.0185C18.8386 72.0185 18.8314 72.017 18.8257 72.0156C14.6172 71.2342 10.8029 70.1413 8.08858 68.9385C6.63001 68.2913 4.97287 67.3813 4.12144 66.3056V78.0185C4.12144 80.4985 11.8014 83.5856 21.6086 85.047V85.0456Z" fill="black"/>
</g>
<g id="Group_12">
<path id="Vector_17" d="M61.4615 77.8867V91.8553C61.5458 95.751 46.1744 100.118 32.6958 100.164C19.0987 100.212 3.76723 95.8767 3.8358 91.991V78.0181C3.8358 80.841 11.9372 83.8953 21.5772 85.331H21.5801C25.1872 85.8696 29.0029 86.1796 32.6972 86.1681C36.3687 86.1567 40.1801 85.821 43.7829 85.2639H43.7858C53.3687 83.7824 61.4644 80.7167 61.4644 77.8896L61.4615 77.8867Z" fill="white"/>
<path id="Vector_18" d="M32.4672 100.45C26.9229 100.45 20.8929 99.7411 15.46 98.4497C10.1072 97.1768 6.09148 95.4883 4.4429 93.8168C3.84005 93.2054 3.54005 92.5897 3.55005 91.9854V78.0168C3.55005 77.8597 3.67862 77.7311 3.83576 77.7311C3.9929 77.7311 4.12148 77.8597 4.12148 78.0168C4.12148 80.4968 11.8015 83.5825 21.6086 85.0454C21.6129 85.0454 21.6172 85.0454 21.6215 85.0468C25.3558 85.604 29.1815 85.8925 32.6958 85.8811C36.1829 85.8697 40.0015 85.5583 43.7386 84.9797C43.7429 84.9797 43.7486 84.9797 43.7529 84.9783C48.4986 84.244 52.8872 83.1211 56.1101 81.8154C60.5186 80.0297 61.1772 78.5883 61.1772 77.8883C61.1772 77.7311 61.3058 77.6025 61.4629 77.6025C61.62 77.6025 61.7486 77.7311 61.7486 77.8883V91.8568C61.7615 92.4525 61.4658 93.0668 60.8715 93.6768C59.2386 95.3511 55.2272 97.0568 49.8672 98.3568C44.4558 99.6683 38.1972 100.433 32.6972 100.451C32.6215 100.451 32.5443 100.451 32.4672 100.451V100.45ZM4.12148 79.4411V91.9897C4.11433 92.4397 4.35862 92.9168 4.85005 93.414C8.22576 96.8354 21.4943 99.9125 32.6958 99.8768C43.8958 99.8383 57.1301 96.6925 60.4615 93.2754C60.9458 92.7783 61.1858 92.3025 61.1772 91.8597V79.3225C60.1986 80.5625 58.1343 81.6083 56.3243 82.3425C53.0586 83.6654 48.6215 84.8011 43.8286 85.5425C43.8243 85.5425 43.8186 85.5425 43.8143 85.544C40.0529 86.1254 36.21 86.4383 32.6986 86.4497C29.1672 86.4597 25.3086 86.1711 21.55 85.6111C21.5458 85.6111 21.5415 85.6111 21.5372 85.6097C13.93 84.4768 6.2429 82.1097 4.1229 79.4383L4.12148 79.4411Z" fill="black"/>
</g>
<g id="Group_13">
<path id="Vector_19" d="M61.4615 50.317V50.3484C61.4615 53.3212 52.5058 56.5598 42.283 57.9384C39.133 58.3655 35.8615 58.6141 32.6958 58.6255C29.5087 58.637 26.2258 58.4084 23.0701 57.9984C12.7887 56.6698 3.83582 53.4455 3.83582 50.4784V50.4512C3.90582 46.5798 19.273 43.257 31.3544 43.0255C44.9872 42.767 61.3772 46.3112 61.4615 50.3155V50.317Z" fill="#EBECEE"/>
<path id="Vector_20" d="M32.4515 58.9113C29.4186 58.9113 26.2515 58.6999 23.0329 58.2813C13.5872 57.0599 3.55005 53.9099 3.55005 50.4785V50.4513C3.57433 49.0828 5.23862 47.0471 13.0215 45.0956C18.4458 43.7356 25.2972 42.8556 31.3486 42.7399C37.9443 42.6142 45.4972 43.3828 51.5529 44.7942C55.3358 45.6756 61.6886 47.5642 61.7472 50.3099C61.7472 50.3113 61.7472 50.3142 61.7472 50.3156V50.347C61.7472 53.7599 51.7386 56.9513 42.32 58.2199C39.0286 58.6656 35.7901 58.8985 32.6958 58.9099C32.6143 58.9099 32.5315 58.9099 32.45 58.9099L32.4515 58.9113ZM32.7615 43.2999C32.29 43.2999 31.8229 43.3042 31.3601 43.3128C25.3486 43.4285 18.5443 44.3028 13.16 45.6513C7.44434 47.0842 4.15005 48.8356 4.12148 50.4571V50.4785C4.12148 53.1156 12.6386 56.3613 23.1072 57.7142C26.3872 58.1399 29.61 58.3485 32.6958 58.3385C35.7643 58.327 38.9786 58.0956 42.2458 57.6542C52.6843 56.247 61.1772 52.9699 61.1772 50.347V50.3185C61.1372 48.6213 57.4929 46.7628 51.4243 45.3499C45.8372 44.0485 38.9629 43.297 32.7615 43.297V43.2999Z" fill="black"/>
</g>
</g>
<g id="Group_14">
<g id="Group_15">
<path id="Vector_21" d="M92.5229 87.9409V101.087C92.5229 103.914 84.4271 106.981 74.8443 108.461H74.8414C71.24 109.018 67.4286 109.354 63.7557 109.365C60.0629 109.377 56.2457 109.067 52.6386 108.528H52.6357C42.9957 107.092 34.8943 104.038 34.8943 101.215V88.0723C34.8943 90.6252 41.5286 93.3695 49.9357 94.9309H49.94C54.2943 95.7409 59.1214 96.2337 63.7543 96.2194C68.37 96.2052 73.1986 95.6809 77.5614 94.8437H77.5657C85.91 93.2437 92.52 90.4937 92.52 87.9395L92.5229 87.9409Z" fill="white"/>
<path id="Vector_22" d="M63.5543 109.652C60.0757 109.652 56.2971 109.362 52.6086 108.814C52.6043 108.814 52.6 108.814 52.5957 108.812C43.6586 107.482 34.61 104.445 34.61 101.218V88.0753C34.61 87.9182 34.7386 87.7896 34.8957 87.7896C35.0528 87.7896 35.1814 87.9182 35.1814 88.0753C35.1814 90.2925 41.4014 93.0567 49.9743 94.6496C49.9814 94.6496 49.9886 94.651 49.9943 94.6525C54.5786 95.5053 59.3371 95.9525 63.7543 95.9353C68.1543 95.921 72.91 95.4482 77.5086 94.5653C77.5157 94.5653 77.5228 94.5625 77.5314 94.5625C86.1914 92.901 92.2371 90.1796 92.2371 87.9425C92.2371 87.7853 92.3657 87.6567 92.5228 87.6567C92.68 87.6567 92.8086 87.7853 92.8086 87.9425V101.088C92.8086 102.955 89.8586 104.542 87.3843 105.545C84.1186 106.868 79.6814 108.004 74.8885 108.745C74.8843 108.745 74.8786 108.745 74.8743 108.747C71.1128 109.328 67.27 109.641 63.7586 109.652C63.6914 109.652 63.6228 109.652 63.5543 109.652ZM52.67 108.245C52.67 108.245 52.6786 108.245 52.6828 108.247C56.4186 108.804 60.2443 109.091 63.7571 109.081C67.2443 109.07 71.0628 108.758 74.8 108.18C74.8043 108.18 74.81 108.18 74.8143 108.178C79.56 107.444 83.9486 106.321 87.1714 105.015C91.58 103.23 92.2386 101.788 92.2386 101.088V89.391C91.5457 90.2696 90.2271 91.1482 88.2928 92.0139C85.6014 93.2196 81.8114 94.3253 77.6228 95.1282C77.6157 95.1282 77.6086 95.131 77.6 95.131C72.9728 96.0182 68.1871 96.4939 63.7586 96.5082C59.31 96.521 54.5214 96.0753 49.9071 95.2182C49.9 95.2182 49.8928 95.2167 49.8871 95.2153C45.6786 94.4339 41.8643 93.341 39.15 92.1382C37.6914 91.491 36.0343 90.581 35.1828 89.5053V101.218C35.1828 103.698 42.8628 106.785 52.67 108.247V108.245Z" fill="black"/>
</g>
<g id="Group_16">
<path id="Vector_23" d="M92.5229 101.087V115.055C92.6072 118.951 77.2358 123.318 63.7572 123.364C50.1601 123.413 34.8286 119.077 34.8972 115.191V101.218C34.8972 104.041 42.9986 107.095 52.6386 108.531H52.6415C56.2486 109.07 60.0643 109.38 63.7586 109.368C67.4301 109.357 71.2415 109.021 74.8443 108.464H74.8472C84.4301 106.983 92.5258 103.917 92.5258 101.09L92.5229 101.087Z" fill="white"/>
<path id="Vector_24" d="M63.5286 123.65C57.9843 123.65 51.9543 122.941 46.5214 121.65C41.1686 120.377 37.1529 118.688 35.5043 117.017C34.9014 116.406 34.6014 115.79 34.6114 115.186V101.217C34.6114 101.06 34.74 100.931 34.8972 100.931C35.0543 100.931 35.1829 101.06 35.1829 101.217C35.1829 103.697 42.8629 106.783 52.67 108.246C52.6743 108.246 52.6786 108.246 52.6829 108.247C56.4172 108.804 60.2443 109.091 63.7572 109.081C67.2443 109.07 71.0629 108.758 74.8 108.18C74.8043 108.18 74.81 108.18 74.8143 108.178C79.56 107.444 83.9486 106.321 87.1715 105.016C91.58 103.23 92.2386 101.788 92.2386 101.088C92.2386 100.931 92.3672 100.803 92.5243 100.803C92.6814 100.803 92.81 100.931 92.81 101.088V115.057C92.8229 115.653 92.5272 116.267 91.9329 116.877C90.3 118.551 86.2886 120.257 80.9286 121.557C75.5172 122.868 69.2586 123.633 63.7586 123.651C63.6829 123.651 63.6057 123.651 63.5286 123.651V123.65ZM35.1829 102.641V115.19C35.1757 115.64 35.42 116.117 35.9114 116.616C39.2872 120.037 52.5643 123.114 63.7572 123.078C74.9572 123.04 88.1914 119.894 91.5229 116.477C92.0072 115.98 92.2472 115.504 92.2386 115.061V102.524C91.26 103.764 89.1957 104.81 87.3857 105.544C84.12 106.867 79.6829 108.003 74.89 108.744C74.8857 108.744 74.88 108.744 74.8757 108.746C71.1143 109.327 67.2715 109.64 63.76 109.651C60.2286 109.663 56.37 109.373 52.6114 108.813C52.6072 108.813 52.6029 108.813 52.5986 108.811C44.9914 107.678 37.3043 105.311 35.1843 102.64L35.1829 102.641Z" fill="black"/>
</g>
<g id="Group_17">
<path id="Vector_25" d="M92.5229 73.9438V87.9124C92.6072 91.8081 77.2358 96.1753 63.7572 96.221C50.1601 96.2696 34.8286 91.9339 34.8972 88.0481V74.0753C34.8972 76.8981 42.9986 79.9524 52.6386 81.3881H52.6415C56.2486 81.9267 60.0643 82.2367 63.7586 82.2253C67.4301 82.2139 71.2415 81.8781 74.8443 81.321H74.8472C84.4301 79.8396 92.5258 76.7739 92.5258 73.9467L92.5229 73.9438Z" fill="white"/>
<path id="Vector_26" d="M63.5286 96.5068C57.9843 96.5068 51.9543 95.7982 46.5214 94.5068C41.1686 93.234 37.1529 91.5454 35.5043 89.874C34.9014 89.2625 34.6014 88.6468 34.6114 88.0425V74.074C34.6114 73.9168 34.74 73.7882 34.8972 73.7882C35.0543 73.7882 35.1829 73.9168 35.1829 74.074C35.1829 76.554 42.8629 79.6397 52.67 81.1025C52.6743 81.1025 52.6786 81.1025 52.6829 81.104C56.4172 81.6611 60.2443 81.9511 63.7572 81.9382C67.2443 81.9268 71.0629 81.6154 74.8 81.0368C74.8043 81.0368 74.81 81.0368 74.8143 81.0354C79.56 80.3011 83.9486 79.1782 87.1715 77.8725C91.58 76.0868 92.2386 74.6454 92.2386 73.9454C92.2386 73.7882 92.3672 73.6597 92.5243 73.6597C92.6814 73.6597 92.81 73.7882 92.81 73.9454V87.914C92.8229 88.5097 92.5272 89.124 91.9329 89.734C90.3 91.4082 86.2886 93.114 80.9286 94.414C75.5172 95.7254 69.2586 96.4897 63.7586 96.5082C63.6829 96.5082 63.6057 96.5082 63.5286 96.5082V96.5068ZM35.1829 75.4982V88.0468C35.1757 88.4968 35.42 88.974 35.9114 89.4725C39.2872 92.894 52.5643 95.9725 63.7572 95.9354C74.9572 95.8968 88.1914 92.7511 91.5229 89.334C92.0072 88.8368 92.2472 88.3611 92.2386 87.9182V75.3811C91.26 76.6211 89.1957 77.6668 87.3857 78.4011C84.12 79.724 79.6829 80.8597 74.89 81.6011C74.8857 81.6011 74.88 81.6011 74.8757 81.6025C71.1143 82.184 67.2715 82.4968 63.76 82.5082C60.2286 82.5197 56.37 82.2297 52.6114 81.6697C52.6072 81.6697 52.6029 81.6697 52.5986 81.6682C44.9914 80.5354 37.3043 78.1682 35.1843 75.4968L35.1829 75.4982Z" fill="black"/>
</g>
<g id="Group_18">
<path id="Vector_27" d="M92.5229 59.9468V73.9153C92.6072 77.8111 77.2358 82.1782 63.7572 82.2239C50.1601 82.2725 34.8286 77.9368 34.8972 74.0511V60.0782C34.8972 62.9011 42.9986 65.9553 52.6386 67.3911H52.6415C56.2486 67.9296 60.0643 68.2396 63.7586 68.2282C67.4301 68.2168 71.2415 67.8811 74.8443 67.3239H74.8472C84.4301 65.8425 92.5258 62.7768 92.5258 59.9496L92.5229 59.9468Z" fill="white"/>
<path id="Vector_28" d="M63.5286 82.5097C57.9843 82.5097 51.9543 81.8012 46.5214 80.5097C41.1686 79.2369 37.1529 77.5483 35.5043 75.8769C34.9014 75.2655 34.6014 74.6497 34.6114 74.0455V60.0769C34.6114 59.9197 34.74 59.7912 34.8972 59.7912C35.0543 59.7912 35.1829 59.9197 35.1829 60.0769C35.1829 62.5569 42.8629 65.6426 52.67 67.1055C52.6743 67.1055 52.6786 67.1055 52.6829 67.1069C56.4172 67.664 60.2486 67.954 63.7572 67.9412C67.2443 67.9297 71.0629 67.6183 74.8 67.0397C74.8043 67.0397 74.81 67.0397 74.8143 67.0383C79.56 66.304 83.9486 65.1812 87.1715 63.8755C91.58 62.0897 92.2386 60.6483 92.2386 59.9483C92.2386 59.7912 92.3672 59.6626 92.5243 59.6626C92.6814 59.6626 92.81 59.7912 92.81 59.9483V73.9169C92.8229 74.5126 92.5272 75.1269 91.9329 75.7369C90.3 77.4112 86.2886 79.1169 80.9286 80.4169C75.5172 81.7283 69.2586 82.4926 63.7586 82.5112C63.6829 82.5112 63.6057 82.5112 63.5286 82.5112V82.5097ZM35.1829 61.5012V74.0497C35.1757 74.4997 35.42 74.9769 35.9114 75.4755C39.2643 78.8755 52.39 81.9383 63.5429 81.9383C63.6143 81.9383 63.6857 81.9383 63.7572 81.9383C74.9572 81.8997 88.1914 78.754 91.5229 75.3369C92.0072 74.8397 92.2472 74.364 92.2386 73.9212V61.384C91.26 62.624 89.1957 63.6697 87.3857 64.404C84.12 65.7269 79.6829 66.864 74.89 67.604C74.8857 67.604 74.88 67.604 74.8757 67.6055C71.1143 68.1869 67.2715 68.4997 63.76 68.5112C60.2272 68.5197 56.37 68.2326 52.6114 67.6726C52.6072 67.6726 52.6029 67.6726 52.5986 67.6712C44.9914 66.5383 37.3043 64.1712 35.1843 61.4997L35.1829 61.5012Z" fill="black"/>
</g>
<g id="Group_19">
<g id="Group_20">
<path id="Vector_29" d="M92.5228 45.5542V59.9471C92.5228 62.5013 85.9128 65.2528 77.5685 66.8513H77.5642C73.2028 67.6885 68.3728 68.2113 63.7571 68.2271C59.1257 68.2413 54.2971 67.7499 49.9428 66.9385H49.9385C41.5314 65.3771 34.8971 62.6328 34.8971 60.0799V45.6842C34.8971 48.6513 43.85 51.8742 54.1314 53.2042C57.2871 53.6142 60.5699 53.8442 63.7571 53.8313C66.9228 53.8199 70.1942 53.5713 73.3442 53.1442C83.5685 51.7671 92.5228 48.5271 92.5228 45.5542Z" fill="white"/>
<path id="Vector_30" d="M63.5557 68.5128C59.1657 68.5128 54.4514 68.0671 49.9057 67.2228C49.8986 67.2228 49.8914 67.2214 49.8857 67.2199C45.6771 66.4385 41.8628 65.3457 39.1486 64.1428C37.0786 63.2257 34.61 61.7757 34.61 60.0799V45.6842C34.61 45.5271 34.7386 45.3985 34.8957 45.3985C35.0528 45.3985 35.1814 45.5271 35.1814 45.6842C35.1814 48.3214 43.6986 51.5671 54.1671 52.9199C57.4471 53.3457 60.6686 53.5557 63.7557 53.5442C66.8257 53.5328 70.0386 53.3014 73.3057 52.8599C83.7443 51.4528 92.2371 48.1757 92.2371 45.5528C92.2371 45.3957 92.3657 45.2671 92.5228 45.2671C92.68 45.2671 92.8086 45.3957 92.8086 45.5528V59.9457C92.8086 61.3057 91.2886 62.6757 88.2914 64.0171C85.6 65.2228 81.81 66.3285 77.6214 67.1314C77.6143 67.1314 77.6071 67.1342 77.5986 67.1342C72.9714 68.0214 68.1857 68.4971 63.7571 68.5114C63.69 68.5114 63.6214 68.5114 63.5543 68.5114L63.5557 68.5128ZM49.9757 66.6542C49.9757 66.6542 49.99 66.6557 49.9957 66.6571C54.58 67.5099 59.3386 67.9557 63.7557 67.9399C68.1557 67.9257 72.9114 67.4528 77.51 66.5699C77.5171 66.5699 77.5243 66.5671 77.5328 66.5671C86.1928 64.9057 92.2386 62.1828 92.2386 59.9471V46.9857C89.9886 49.8328 81.4686 52.3385 73.3828 53.4271C70.0914 53.8728 66.8528 54.1057 63.7586 54.1171C60.6528 54.1285 57.4 53.9171 54.0943 53.4871C45.9843 52.4385 37.4357 49.9685 35.1828 47.1171V60.0785C35.1828 62.2957 41.4028 65.0599 49.9757 66.6528V66.6542Z" fill="black"/>
</g>
<g id="Group_21">
<path id="Vector_31" d="M92.5229 45.5225V45.554C92.5229 48.5268 83.5672 51.7654 73.3444 53.144C70.1944 53.5711 66.9229 53.8197 63.7572 53.8311C60.5701 53.8425 57.2872 53.614 54.1315 53.204C43.8501 51.8754 34.8972 48.6511 34.8972 45.684V45.6568C34.9672 41.7854 50.3344 38.4625 62.4158 38.2311C76.0486 37.9725 92.4386 41.5168 92.5229 45.5211V45.5225Z" fill="#EBECEE"/>
<path id="Vector_32" d="M63.5129 54.1169C60.48 54.1169 57.3129 53.9055 54.0943 53.4869C44.6486 52.2655 34.6115 49.1155 34.6115 45.684V45.6569C34.6357 44.2883 36.3 42.2526 44.0829 40.3012C49.5072 38.9412 56.3586 38.0612 62.41 37.9455C69.0057 37.8198 76.5586 38.5883 82.6143 39.9998C86.3972 40.8812 92.75 42.7698 92.8086 45.5155V45.5526C92.8086 48.9655 82.8 52.1569 73.3815 53.4255C70.09 53.8712 66.8515 54.104 63.7572 54.1155C63.6757 54.1155 63.5929 54.1155 63.5114 54.1155L63.5129 54.1169ZM63.8229 38.504C63.3515 38.504 62.8829 38.5083 62.42 38.5169C56.4086 38.6326 49.6043 39.5069 44.22 40.8555C38.5043 42.2883 35.21 44.0398 35.1815 45.6612V45.6826C35.1815 48.3198 43.6986 51.5655 54.1672 52.9183C57.4472 53.344 60.6715 53.5526 63.7557 53.5426C66.8257 53.5312 70.0386 53.2998 73.3057 52.8583C83.7443 51.4512 92.2372 48.174 92.2372 45.5512V45.5226C92.1972 43.8255 88.5529 41.9683 82.4843 40.554C76.8972 39.2526 70.0243 38.5012 63.8229 38.5012V38.504Z" fill="black"/>
</g>
</g>
</g>
</g>
</g>
<g id="Layer 2">
<g id="Group_22">
<g id="Group_23">
<path id="Vector_33" d="M48.6867 115.555V119.618L36.6082 126.353V112.136L48.1239 115.868L48.6867 115.555Z" fill="#FF7E88"/>
<path id="Vector_34" d="M36.6081 126.639C36.5581 126.639 36.5081 126.626 36.4638 126.599C36.3767 126.548 36.3224 126.454 36.3224 126.354V112.136C36.3224 112.045 36.3667 111.959 36.4395 111.905C36.5138 111.851 36.6095 111.836 36.6952 111.865L48.091 115.559L48.5452 115.306C48.6338 115.258 48.7424 115.258 48.8295 115.309C48.9167 115.361 48.971 115.455 48.971 115.555V119.618C48.971 119.722 48.9152 119.816 48.8238 119.868L36.7452 126.604C36.7024 126.628 36.6538 126.639 36.6067 126.639H36.6081ZM36.8938 112.529V125.868L48.401 119.451V116.042L48.2624 116.119C48.1924 116.158 48.111 116.166 48.0352 116.141L36.8938 112.529Z" fill="black"/>
</g>
<g id="Group_24">
<path id="Vector_35" d="M60.201 123.351L50.7639 128.615L50.051 129.014L38.6867 135.351L48.1239 130.087L36.6082 126.354L48.6867 119.618L60.201 123.351Z" fill="#FF7E88"/>
<path id="Vector_36" d="M38.6867 135.637C38.5867 135.637 38.4896 135.584 38.4367 135.489C38.3596 135.352 38.4096 135.178 38.5467 135.101L38.5624 135.092L47.4124 130.155L36.521 126.624C36.4124 126.588 36.3353 126.492 36.3253 126.379C36.3139 126.267 36.371 126.158 36.471 126.102L48.5496 119.367C48.6196 119.328 48.701 119.319 48.7767 119.344L60.291 123.078C60.3996 123.114 60.4767 123.209 60.4867 123.322C60.4982 123.435 60.441 123.544 60.341 123.599L50.191 129.262L38.8267 135.599C38.7824 135.624 38.7353 135.635 38.6882 135.635L38.6867 135.637ZM37.3196 126.284L48.0953 129.778L59.4896 123.421L48.7167 119.928L37.3196 126.284Z" fill="black"/>
</g>
<g id="Group_25">
<path id="Vector_37" d="M60.201 109.132L48.6867 115.555L48.1238 115.868L26.6067 89.9135L27.321 89.5177L38.6853 83.1777L60.201 109.132Z" fill="#FF7E88"/>
<path id="Vector_38" d="M48.1238 116.153C48.0409 116.153 47.9595 116.118 47.9038 116.051L26.3881 90.0964C26.3338 90.0306 26.3109 89.9449 26.3266 89.8606C26.3424 89.7778 26.3938 89.7049 26.4695 89.6635L27.1824 89.2678L38.5466 82.9278C38.6666 82.8606 38.8181 82.8892 38.9052 82.9949L60.4209 108.949C60.4752 109.015 60.4981 109.101 60.4824 109.183C60.4666 109.266 60.4152 109.339 60.3409 109.381L48.2624 116.116C48.2181 116.141 48.1709 116.152 48.1238 116.152V116.153ZM27.0466 89.9963L48.1909 115.503L48.5466 115.305L59.7609 109.051L38.6152 83.5435L27.0452 89.9963H27.0466Z" fill="black"/>
</g>
<g id="Group_26">
<path id="Vector_39" d="M36.6081 126.354L48.1238 130.086L38.6867 135.351L38.6853 135.352L37.9724 135.749L26.6067 142.088L5.09241 116.134L16.6053 119.868V105.649L5.09241 101.915L14.5281 96.6507L15.2424 96.2536L17.1695 95.1793L26.6053 89.915L26.6067 89.9136L48.1238 115.868L36.6081 112.136V126.354Z" fill="#FF444F"/>
<path id="Vector_40" d="M26.6067 142.373C26.5238 142.373 26.4424 142.338 26.3867 142.271L4.87241 116.316C4.79098 116.218 4.78384 116.079 4.85526 115.973C4.92669 115.868 5.05812 115.822 5.17955 115.862L16.3196 119.475V105.858L5.00384 102.186C4.89526 102.151 4.81812 102.055 4.80812 101.942C4.79669 101.829 4.85384 101.721 4.95384 101.665L26.4624 89.6677C26.5096 89.6405 26.5653 89.6248 26.621 89.6291C26.701 89.6334 26.7767 89.6691 26.8281 89.732L48.3438 115.686C48.4253 115.785 48.4324 115.923 48.361 116.029C48.2896 116.135 48.1581 116.181 48.0367 116.141L36.8953 112.529V126.146L48.2124 129.816C48.321 129.852 48.3981 129.948 48.4081 130.061C48.4196 130.173 48.3624 130.282 48.2624 130.338L38.8381 135.595C38.8381 135.595 38.8296 135.601 38.8238 135.603L26.7453 142.339C26.701 142.363 26.6538 142.375 26.6067 142.375V142.373ZM5.93955 116.709L26.6753 141.723L38.5324 135.111C38.5324 135.111 38.541 135.105 38.5467 135.102L47.411 130.158L36.5196 126.626C36.4024 126.588 36.3224 126.478 36.3224 126.355V112.138C36.3224 112.046 36.3667 111.961 36.4396 111.906C36.5138 111.852 36.6096 111.838 36.6953 111.866L47.2738 115.295L26.5381 90.2805L5.80241 101.846L16.6924 105.379C16.8096 105.418 16.8896 105.528 16.8896 105.651V119.868C16.8896 119.959 16.8453 120.045 16.7724 120.099C16.6981 120.153 16.6038 120.168 16.5167 120.139L5.93955 116.709Z" fill="black"/>
</g>
<g id="Group_27">
<path id="Vector_41" d="M16.6053 109.712V119.868L5.09241 116.133L16.6053 109.712Z" fill="#FF7E88"/>
<path id="Vector_42" d="M16.6052 120.153C16.5752 120.153 16.5452 120.149 16.5167 120.139L5.0038 116.405C4.89523 116.369 4.81808 116.273 4.80808 116.161C4.79666 116.048 4.8538 115.939 4.9538 115.883L16.4667 109.463C16.5552 109.413 16.6624 109.415 16.7509 109.466C16.8381 109.518 16.8924 109.612 16.8924 109.712V119.866C16.8924 119.958 16.8481 120.043 16.7752 120.098C16.7252 120.133 16.6667 120.152 16.6067 120.152L16.6052 120.153ZM5.8038 116.063L16.3195 119.473V110.199L5.8038 116.063Z" fill="black"/>
</g>
</g>
</g>
</g>
</g>
</svg>
