<svg width="120" height="152" viewBox="0 0 120 152" fill="none" xmlns="http://www.w3.org/2000/svg">
<g id="illustration / deriv / light / trusted-partnership">
<g id="Trusted">
<g id="Group 2396">
<g id="Layer 43 copy">
<path id="Vector" d="M56.1213 31.5218C52.8779 37.1601 44.5097 41.1742 34.6993 41.1742C24.889 41.1742 16.5184 37.1589 13.2762 31.5218C12.9339 28.4017 13.3061 26.0691 13.403 25.503C13.549 24.6616 14.2456 20.9611 16.7769 17.1025C18.2502 14.8525 20.3494 12.5486 23.3247 10.727C29.7325 6.80501 36.1666 7.59252 38.2431 7.94798C40.322 8.30104 46.1146 9.60079 50.7691 14.8082C51.0695 15.1445 51.6966 15.8662 52.4219 16.9433C53.7827 18.96 55.4918 22.2165 56.0483 26.4916C56.2877 28.3323 56.2709 30.0306 56.1213 31.5242V31.5218Z" fill="white" stroke="black" stroke-width="0.571429" stroke-linecap="round" stroke-linejoin="round"/>
<path id="Vector_2" d="M56.1213 31.5217C55.8256 34.4671 55.0166 36.6262 54.6408 37.537C53.9981 39.1036 52.4111 42.4416 49.0205 45.4456C46.652 47.5412 44.3289 48.6591 42.9586 49.2192C41.8084 49.6883 38.8594 50.7762 34.9375 50.8026C33.0154 50.8134 26.0917 50.6027 20.2823 45.4193C19.5379 44.7562 17.6864 43.0065 16.0767 40.2119C14.3102 37.1444 13.555 34.0698 13.2761 31.5217C16.5195 37.16 24.8877 41.1741 34.6993 41.1741C44.5109 41.1741 52.8779 37.1588 56.1213 31.5217Z" fill="#EBECEE" stroke="black" stroke-width="0.571429" stroke-linecap="round" stroke-linejoin="round"/>
<path id="Vector_3" d="M63.9688 96.2977C63.8467 96.78 63.6396 97.4729 63.2962 98.2676C62.7037 99.6416 61.1562 102.567 56.4719 105.481C50.6828 109.083 44.3875 110.002 41.1645 110.442C31.39 111.78 24.1731 110.042 22.4461 109.599C19.9531 108.96 15.5584 107.599 11.3635 104.567C8.80113 102.713 7.47026 101.073 6.57862 99.4633C5.74922 97.9684 5.34709 96.5825 5.13525 95.6107C5.18432 92.5504 5.37103 88.2981 5.98021 83.2606C6.78448 76.6171 7.65936 69.3811 11.0476 61.0931C12.6848 57.0849 15.4722 51.4646 20.2835 45.4194C26.0929 50.6029 33.0165 50.8147 34.9386 50.8028C38.8606 50.7764 41.8096 49.6885 42.9597 49.2194C44.3301 48.658 46.6531 47.5402 49.0216 45.4458C49.3615 45.7857 49.8379 46.28 50.38 46.8963C51.6379 48.3301 52.812 49.9398 54.1799 52.2928C56.4563 56.2124 57.8865 59.8208 58.3221 60.9494C60.0587 65.4411 60.8762 69.034 61.4758 71.7292C61.6721 72.6101 62.3578 75.7446 62.9539 80.253C63.4865 84.2755 63.9891 89.7223 63.9688 96.2965V96.2977Z" fill="#EBECEE" stroke="black" stroke-width="0.571429" stroke-linecap="round" stroke-linejoin="round"/>
</g>
<g id="Layer 43 copy_2">
<path id="Vector_4" d="M107.007 44.6236C103.76 50.2685 95.382 54.2874 85.56 54.2874C75.7381 54.2874 67.3576 50.2673 64.1115 44.6236C63.7688 41.4998 64.1415 39.1644 64.2385 38.5976C64.3847 37.7553 65.0821 34.0503 67.6164 30.1872C69.0914 27.9345 71.1931 25.6279 74.172 23.8041C80.5873 19.8775 87.0291 20.666 89.108 21.0218C91.1894 21.3753 96.9889 22.6766 101.649 27.8902C101.95 28.2269 102.577 28.9494 103.304 30.0278C104.666 32.0468 106.377 35.3073 106.934 39.5874C107.174 41.4303 107.157 43.1306 107.007 44.626V44.6236Z" fill="white" stroke="black" stroke-width="0.571429" stroke-linecap="round" stroke-linejoin="round"/>
<path id="Vector_5" d="M107.007 44.6233C106.711 47.5722 105.901 49.7338 105.525 50.6457C104.881 52.2141 103.293 55.556 99.898 58.5636C97.5267 60.6617 95.2009 61.7809 93.8289 62.3417C92.6774 62.8114 89.7249 63.9006 85.7983 63.927C83.8739 63.9377 76.9421 63.7268 71.1258 58.5373C70.3805 57.8734 68.5268 56.1216 66.9152 53.3237C65.1466 50.2526 64.3905 47.1743 64.1113 44.6233C67.3586 50.2682 75.7367 54.2871 85.5598 54.2871C95.383 54.2871 103.76 50.267 107.007 44.6233Z" fill="#EBECEE" stroke="black" stroke-width="0.571429" stroke-linecap="round" stroke-linejoin="round"/>
<path id="Vector_6" d="M114.864 109.476C114.742 109.959 114.535 110.653 114.191 111.448C113.598 112.824 112.048 115.752 107.358 118.67C101.562 122.277 95.2596 123.197 92.0328 123.637C82.2467 124.976 75.0214 123.237 73.2923 122.793C70.7964 122.153 66.3964 120.791 62.1966 117.755C59.6312 115.899 58.2987 114.257 57.406 112.645C56.5756 111.149 56.173 109.761 55.9609 108.788C56.0101 105.724 56.197 101.467 56.8069 96.4236C57.6121 89.7721 58.488 82.5276 61.8802 74.2298C63.5194 70.2169 66.3101 64.5899 71.1271 58.5376C76.9433 63.7272 83.8752 63.9393 85.7995 63.9273C89.7262 63.9009 92.6786 62.8117 93.8301 62.342C95.2021 61.78 97.5279 60.6609 99.8992 58.564C100.24 58.9043 100.716 59.3991 101.259 60.0162C102.519 61.4517 103.694 63.0634 105.064 65.4191C107.343 69.3433 108.775 72.956 109.211 74.086C110.949 78.583 111.768 82.1801 112.368 84.8785C112.565 85.7604 113.251 88.8986 113.848 93.4124C114.381 97.4397 114.884 102.893 114.864 109.475V109.476Z" fill="#EBECEE" stroke="black" stroke-width="0.571429" stroke-linecap="round" stroke-linejoin="round"/>
</g>
<g id="Shield">
<g id="Group">
<path id="Vector_7" d="M59.5507 136.336C62.7135 132.79 65.8748 129.242 69.0347 125.695C69.2553 125.436 69.5602 125.072 69.9073 124.624C70.4552 123.916 71.4289 122.647 72.3464 120.895C72.7314 120.162 73.6208 118.359 74.232 115.876C74.7546 113.752 74.8432 112.057 74.8656 111.394C74.8867 110.806 74.8783 110.31 74.8656 109.946C74.8727 105.395 74.8797 100.844 74.8867 96.2915C71.606 100.03 68.3266 103.768 65.0472 107.507C65.0978 110.229 65.2032 116.92 65.0472 121.827C65.0304 122.358 64.9967 123.289 64.8295 124.505C64.3433 128.02 63.1996 130.542 62.8652 131.249C61.7918 133.524 60.5118 135.229 59.5507 136.336Z" fill="#FF444F"/>
<path id="Vector_8" d="M59.5493 136.618C59.6266 136.618 59.7038 136.585 59.7586 136.523C62.9214 132.977 66.0827 129.429 69.2426 125.882C69.4506 125.639 69.7639 125.266 70.1278 124.796C70.621 124.158 71.648 122.831 72.5936 121.025C73.1599 119.947 73.9495 118.191 74.5031 115.943C74.8726 114.438 75.0946 112.868 75.1452 111.403C75.162 110.917 75.162 110.436 75.1452 109.935L75.1663 96.2903C75.1663 96.1736 75.0946 96.0683 74.985 96.0275C74.8754 95.9868 74.7518 96.0177 74.6745 96.1048C71.3937 99.8436 68.1144 103.581 64.835 107.32C64.7887 107.372 64.7634 107.441 64.7648 107.511C64.8406 111.63 64.9039 117.456 64.7648 121.817C64.7507 122.275 64.7198 123.228 64.5498 124.465C64.1142 127.617 63.1476 129.991 62.6094 131.128C61.7496 132.95 60.648 134.641 59.3371 136.151C59.236 136.268 59.2472 136.445 59.3638 136.546C59.4172 136.592 59.4832 136.616 59.5493 136.616V136.618ZM74.6042 97.0391L74.5846 109.946C74.6014 110.443 74.6014 110.911 74.5846 111.385C74.5368 112.812 74.3204 114.342 73.9593 115.809C73.4198 118.002 72.6484 119.714 72.0977 120.765C71.1746 122.528 70.2051 123.78 69.6852 124.453C69.3283 124.914 69.0206 125.279 68.8211 125.514C66.7065 127.888 64.5891 130.265 62.4689 132.641C62.698 132.225 62.9157 131.801 63.1195 131.37C63.6702 130.205 64.6622 127.77 65.1076 124.544C65.2818 123.275 65.3127 122.303 65.3282 121.837C65.4659 117.502 65.4055 111.73 65.331 107.611C68.4221 104.087 71.5132 100.564 74.6056 97.0391H74.6042Z" fill="black"/>
</g>
<g id="Group_2">
<path id="Vector_9" d="M20.4373 111.077C20.5188 112.548 20.641 114.086 21.0119 115.996C21.1637 116.776 21.7229 119.506 23.1939 122.978C23.5621 123.848 25.1582 127.528 28.3518 131.786C32.1047 136.791 35.8969 139.708 36.9197 140.474C39.1299 142.129 41.1587 143.295 42.693 144.083C45.1167 143.995 48.8078 143.513 52.7292 141.544C55.9524 139.928 57.9602 137.996 58.5011 137.458C58.702 137.26 58.9704 136.986 59.2837 136.638C59.3413 136.575 59.3989 136.51 59.4579 136.442C59.4888 136.407 59.5184 136.372 59.5507 136.337C60.5117 135.23 61.7917 133.524 62.8652 131.249C63.1996 130.543 64.3433 128.021 64.8294 124.505C64.9966 123.29 65.0303 122.358 65.0472 121.827C65.2031 116.921 65.0978 110.23 65.0472 107.507C62.3116 106.992 58.8369 106.049 55.077 104.253C49.204 101.45 45.18 97.7815 42.7619 95.178C40.7499 96.2641 37.6054 97.6396 33.5477 98.1974C27.6732 99.0039 22.9467 97.6761 20.5089 96.7952C20.138 103.594 20.2855 108.364 20.4373 111.077Z" fill="#FF535E"/>
<path id="Vector_10" d="M42.6933 144.364C42.6933 144.364 42.7003 144.364 42.7031 144.364C46.3056 144.232 49.7213 143.368 52.8545 141.796C55.8093 140.315 57.7848 138.567 58.698 137.658C58.9636 137.397 59.2305 137.117 59.4919 136.826C59.5495 136.763 59.6085 136.697 59.6689 136.628L59.7012 136.59C59.7195 136.569 59.7378 136.548 59.7574 136.527C61.1077 134.971 62.2373 133.238 63.1197 131.369C63.6705 130.204 64.6624 127.769 65.1078 124.543C65.282 123.275 65.3129 122.302 65.3284 121.836C65.4675 117.463 65.4057 111.627 65.3284 107.502C65.3256 107.368 65.23 107.256 65.0994 107.23C61.6627 106.583 58.3313 105.495 55.1981 103.999C50.598 101.803 46.4826 98.7707 42.9672 94.9855C42.8801 94.8914 42.741 94.8689 42.6272 94.9293C39.7666 96.4735 36.698 97.4795 33.5085 97.9179C29.2119 98.508 24.7495 98.0274 20.6033 96.5297C20.5204 96.5002 20.4262 96.51 20.3532 96.5592C20.2801 96.6084 20.2323 96.6899 20.2281 96.7784C19.9429 102.016 19.9176 106.833 20.1565 111.091C20.2478 112.748 20.3813 114.225 20.7354 116.048C21.1639 118.252 21.9451 120.751 22.9342 123.086C23.5019 124.428 25.1444 127.979 28.1258 131.953C31.5288 136.492 34.9894 139.379 36.75 140.697C38.5779 142.067 40.5337 143.289 42.5626 144.332C42.6019 144.353 42.6469 144.363 42.6905 144.363L42.6933 144.364ZM64.7706 107.74C64.8451 111.845 64.9027 117.536 64.7664 121.819C64.7523 122.277 64.7214 123.23 64.5514 124.467C64.1159 127.619 63.1492 129.993 62.6111 131.13C61.7512 132.952 60.6496 134.643 59.3387 136.153C59.3205 136.173 59.2994 136.197 59.2769 136.222L59.2474 136.257C59.1884 136.323 59.1322 136.386 59.076 136.45C58.8217 136.733 58.5617 137.005 58.3032 137.259C57.4124 138.145 55.4875 139.847 52.603 141.294C49.5639 142.82 46.2508 143.663 42.7565 143.801C40.7782 142.781 38.8716 141.586 37.0886 140.25C35.3519 138.951 31.9377 136.101 28.5769 131.619C25.6333 127.693 24.0133 124.192 23.4527 122.87C22.1376 119.766 21.532 117.198 21.2875 115.944C20.9391 114.152 20.8084 112.697 20.7171 111.063C20.4853 106.926 20.5035 102.259 20.7691 97.1872C24.8985 98.6162 29.3215 99.063 33.5858 98.4771C36.771 98.0387 39.8382 97.0481 42.7045 95.5293C46.2354 99.2934 50.3563 102.313 54.9564 104.509C58.0658 105.994 61.3662 107.082 64.7706 107.742V107.74Z" fill="black"/>
</g>
<g id="Group_3">
<path id="Vector_11" d="M20.5088 96.7953C22.9466 97.6763 27.6731 99.0041 33.5476 98.1976C37.6053 97.6398 40.7498 96.2642 42.7618 95.1781C43.3617 94.4967 43.9631 93.8167 44.563 93.1352C47.2424 90.0975 49.9204 87.0584 52.5999 84.0208C50.2253 85.1785 46.0355 86.835 40.5826 87.036C36.1834 87.1989 32.6076 86.3531 30.2949 85.6084C27.0338 89.3374 23.7713 93.0664 20.5088 96.7953Z" fill="#FF7E88"/>
<path id="Vector_12" d="M29.9031 98.7257C31.1368 98.7257 32.3676 98.6428 33.5857 98.4756C36.8426 98.0274 39.9744 97.0017 42.8955 95.4252C42.925 95.4098 42.9503 95.3887 42.9728 95.3634C43.2721 95.0234 43.5727 94.682 43.8734 94.342C44.1741 94.0019 44.4748 93.6605 44.774 93.3205C46.113 91.8017 47.4534 90.2828 48.7924 88.764C50.1314 87.2451 51.4704 85.7263 52.8108 84.2074C52.8994 84.1063 52.905 83.9573 52.8235 83.852C52.742 83.7452 52.5973 83.7115 52.4764 83.7691C48.7784 85.5731 44.6616 86.6058 40.5716 86.7562C37.1208 86.884 33.6925 86.4077 30.3808 85.3413C30.2741 85.3076 30.1574 85.3399 30.083 85.4242C26.8219 89.1532 23.5594 92.8821 20.2969 96.6111C20.2351 96.6814 20.2126 96.7769 20.2365 96.8668C20.2604 96.9567 20.3264 97.0298 20.4135 97.0607C23.4695 98.1651 26.6954 98.7271 29.9045 98.7271L29.9031 98.7257ZM42.5836 94.9546C39.7356 96.4861 36.6824 97.4822 33.5085 97.9192C29.3453 98.491 25.0276 98.0583 20.9924 96.6687C24.1242 93.0901 27.2546 89.5114 30.3837 85.9328C33.7023 86.9796 37.1363 87.446 40.5912 87.3182C44.316 87.1805 48.0632 86.3248 51.5084 84.8327C50.4616 86.0199 49.4149 87.2072 48.3681 88.393C47.0291 89.9119 45.6901 91.4307 44.3497 92.9496C44.049 93.291 43.7498 93.631 43.4491 93.971C43.1596 94.2984 42.8702 94.6272 42.5822 94.9546H42.5836Z" fill="black"/>
</g>
<g id="Group_4">
<path id="Vector_13" d="M42.762 95.1777C45.18 97.7812 49.2041 101.45 55.0771 104.253C58.837 106.048 62.3116 106.991 65.0472 107.507C68.3266 103.768 71.606 100.031 74.8867 96.2919C71.9109 95.7031 67.8348 94.5623 63.4076 92.2201C58.3761 89.5575 54.8326 86.3695 52.6 84.0203C49.9206 87.058 47.2426 90.097 44.5632 93.1347C43.9633 93.8162 43.3619 94.4962 42.762 95.1777Z" fill="#FF7E88"/>
<path id="Vector_14" d="M65.0473 107.788C65.1274 107.788 65.2047 107.754 65.2581 107.692C68.5374 103.954 71.8168 100.216 75.0975 96.4774C75.1636 96.4015 75.1846 96.2961 75.1523 96.202C75.12 96.1078 75.0399 96.0362 74.9402 96.0165C70.9583 95.2283 67.1211 93.8682 63.5383 91.9714C59.541 89.8554 55.9286 87.1156 52.8024 83.8264C52.7476 83.7688 52.6703 83.7379 52.5931 83.7393C52.5144 83.7407 52.4399 83.7758 52.3879 83.8348C51.0475 85.3537 49.7085 86.8725 48.3695 88.3928C47.0305 89.9116 45.6915 91.4305 44.3511 92.9493C44.0504 93.2907 43.7512 93.6308 43.4505 93.9708C43.1498 94.3108 42.8491 94.6522 42.5499 94.9922C42.4543 95.1004 42.4571 95.2634 42.5555 95.3688C46.1186 99.2059 50.2916 102.28 54.9549 104.506C58.1317 106.023 61.5094 107.126 64.9939 107.782C65.0108 107.785 65.029 107.787 65.0459 107.787L65.0473 107.788ZM74.3557 96.4703C71.2168 100.048 68.0794 103.623 64.9419 107.201C61.5614 106.55 58.2835 105.472 55.198 103.999C50.6738 101.839 46.6188 98.8701 43.1414 95.1721C43.3859 94.8953 43.6289 94.6185 43.8734 94.3417C44.1741 94.0017 44.4748 93.6603 44.774 93.3202C46.113 91.8014 47.4534 90.2826 48.7924 88.7637C50.064 87.3207 51.337 85.8778 52.6085 84.4362C55.7277 87.672 59.3148 90.3725 63.2755 92.4688C66.7643 94.315 70.489 95.6596 74.3557 96.4703Z" fill="black"/>
</g>
</g>
</g>
</g>
</g>
</svg>
