<svg width="32" height="32" viewBox="0 0 32 32" fill="none" xmlns="http://www.w3.org/2000/svg">
<g id="illustration / deriv / light / wallet">
<path id="Vector" d="M28 9C29.1046 9 30 9.89543 30 11V27C30 28.1046 29.1046 29 28 29H4C1.79086 29 0 27.2091 0 25V7C0 4.79086 1.79086 3 4 3H26C27.1046 3 28 3.89543 28 5V9Z" fill="#C7E5E5"/>
<path id="Vector_2" d="M4.5 4H26C26.5523 4 27 4.44772 27 5V9H4.5C3.11929 9 2 7.88071 2 6.5C2 5.11929 3.11929 4 4.5 4Z" fill="#2A2A2A"/>
<path id="Vector_3" d="M23 15H31C31.5523 15 32 15.4477 32 16V22C32 22.5523 31.5523 23 31 23H23C20.7909 23 19 21.2091 19 19C19 16.7909 20.7909 15 23 15Z" fill="#BCCDCE"/>
<path id="Vector_4" d="M24 21C25.1046 21 26 20.1046 26 19C26 17.8954 25.1046 17 24 17C22.8954 17 22 17.8954 22 19C22 20.1046 22.8954 21 24 21Z" fill="#2A2A2A"/>
</g>
</svg>
