<svg width="128" height="128" viewBox="0 0 128 128" fill="none" xmlns="http://www.w3.org/2000/svg">
<g id="illustration / deriv / light / settings-success">
<g id="vector">
<g id="Group 2414">
<g id="Group">
<path id="Vector" d="M20.0626 78.3447C21.6312 77.3447 22.477 76.1397 22.8758 75.5612C23.3991 74.8003 24.5151 73.1327 24.7131 70.6816C24.7838 69.8019 24.9295 67.6252 23.5943 65.4583C23.2464 64.8926 22.2988 63.4018 20.3795 62.5589C19.2352 62.0568 18.1957 61.9804 17.5663 61.9846C18.1122 58.5222 19.0429 54.3668 20.6666 49.8154C22.1955 45.5284 23.9734 41.9104 25.6395 38.9954C26.2194 39.4027 27.7823 40.3843 29.9449 40.3518C31.9448 40.3221 33.3295 39.4423 34.0989 38.953C36.3548 37.5202 37.3421 35.5302 37.6943 34.7989C38.0464 34.0663 38.7961 32.4567 38.7282 30.2574C38.6447 27.6068 37.4241 25.7271 36.8767 24.9832C39.359 22.7188 42.6106 20.1333 46.6925 17.7076C50.3133 15.5564 53.7177 14.0472 56.6158 12.9794C56.6455 13.4348 56.9369 16.9552 59.8165 18.8052C60.0683 18.9664 61.3936 19.7938 63.3044 19.8674C65.252 19.9423 66.6635 19.1913 67.3948 18.791C69.5715 17.5973 70.6294 15.8265 71.0835 15.0458C72.0693 13.3471 72.3776 11.7291 72.4823 10.6909C75.1003 10.814 78.4722 11.2185 82.2556 12.3274C86.503 13.572 89.865 15.2947 92.2652 16.7614C91.7574 17.5011 91.005 18.7981 90.6514 20.5717C90.4774 21.443 90.1563 23.1586 90.8027 25.1571C91.0361 25.8799 91.8904 28.5248 94.548 29.7425C96.9255 30.833 99.1956 30.0693 99.9721 29.8076C101.746 29.2107 102.894 28.15 103.46 27.5474C105.178 30.0763 107.136 33.4482 108.777 37.6432C110.31 41.5639 111.147 45.1324 111.618 48.0191C110.844 48.2553 109.699 48.7065 108.518 49.5905C106.499 51.1024 105.599 52.9751 105.268 53.7671C104.945 54.5394 104.027 56.8236 104.686 59.6438C104.908 60.5929 105.371 62.5773 107.226 64.0567C109.043 65.505 111.064 65.5701 111.726 65.563C111.141 68.9306 110.195 72.9192 108.625 77.2726C107.013 81.7435 105.14 85.5043 103.395 88.5197C102.835 88.1081 101.623 87.3401 99.9184 87.1747C97.9368 86.9809 96.4588 87.7164 95.695 88.1081C93.6343 89.1661 92.5877 90.7601 92.1365 91.4659C91.227 92.8887 90.8649 94.2395 90.7051 95.0782C88.1394 100.178 85.5752 105.279 83.0095 110.38C79.4933 111.751 75.9772 113.121 72.4625 114.492C72.4483 113.827 72.3281 112.321 71.3437 110.789C70.9434 110.167 69.7766 108.57 67.5984 107.905C65.5221 107.271 63.7824 107.866 62.9494 108.164C60.5379 109.027 59.2381 110.759 58.6652 111.543C57.125 113.655 56.794 115.816 56.7063 116.86C53.9921 116.739 50.3812 116.312 46.3092 115.052C42.3391 113.823 39.1822 112.189 36.9022 110.79C37.4892 109.972 38.6956 108.037 38.7748 105.345C38.8045 104.355 38.8682 102.183 37.376 100.136C37.0337 99.6664 35.6123 97.7782 33.0494 97.2945C30.7652 96.8631 28.9506 97.8065 27.9902 98.3058C26.8757 98.8857 26.0822 99.5815 25.5787 100.092C23.9154 97.5675 22.0513 94.2734 20.4558 90.2339C18.8548 86.1789 17.9665 82.4874 17.4559 79.5003C18.1136 79.3235 19.0598 78.9953 20.0683 78.3518L20.0626 78.3447ZM42.1906 76.192C42.9656 78.1792 45.5681 84.8452 52.6089 88.333C57.644 90.8266 62.3412 90.4051 64.0611 90.2269C71.8317 89.4263 76.7947 84.7066 78.9573 82.6501C86.7463 75.2416 88.0065 66.0015 88.2568 63.6211C88.5171 61.1516 88.9287 56.7656 87.0518 51.6526C86.4139 49.9144 83.2952 41.4196 74.6534 38.2203C68.2802 35.8611 62.5534 37.7338 60.2748 38.4791C49.0291 42.1551 44.3362 52.5988 43.4847 54.4941C42.4367 56.8278 38.2614 66.1189 42.1934 76.192H42.1906Z" fill="white"/>
<path id="Vector_2" d="M56.6994 117.137C56.8451 117.137 56.9695 117.025 56.9809 116.878C57.0912 115.558 57.5112 113.59 58.886 111.704C59.3712 111.039 60.6582 109.274 63.0358 108.424C63.767 108.163 65.4784 107.55 67.5081 108.17C69.4698 108.768 70.5999 110.16 71.0978 110.936C71.952 112.266 72.1543 113.604 72.1727 114.492C72.1741 114.584 72.2222 114.67 72.2986 114.721C72.3749 114.772 72.4725 114.783 72.5588 114.749L83.1058 110.638C83.1709 110.612 83.2246 110.564 83.2557 110.502L90.9514 95.1999C90.9627 95.1758 90.9712 95.1518 90.9768 95.1263C91.2173 93.8647 91.6854 92.6837 92.3686 91.613C92.7561 91.0077 93.783 89.3995 95.8182 88.3543C96.5085 87.9993 97.9455 87.2624 99.8846 87.4519C101.385 87.599 102.528 88.2355 103.221 88.7433C103.286 88.7914 103.368 88.8083 103.446 88.7914C103.525 88.7744 103.593 88.7263 103.633 88.6556C105.71 85.0645 107.478 81.2655 108.884 77.3632C110.258 73.5529 111.306 69.5969 111.996 65.6055C112.01 65.5235 111.987 65.4386 111.932 65.3736C111.878 65.3099 111.802 65.2717 111.714 65.2745C110.795 65.283 108.999 65.1091 107.395 63.8291C105.617 62.4104 105.169 60.494 104.954 59.5732C104.522 57.7232 104.712 55.8039 105.521 53.8704C105.99 52.7474 106.92 51.1308 108.679 49.8112C109.584 49.1323 110.598 48.6189 111.692 48.2837C111.828 48.2426 111.911 48.1069 111.888 47.9683C111.307 44.4054 110.345 40.895 109.031 37.5358C107.637 33.9702 105.838 30.5545 103.685 27.3849C103.637 27.3141 103.559 27.2689 103.473 27.2618C103.388 27.2547 103.303 27.2873 103.244 27.3509C102.305 28.3551 101.139 29.1104 99.8733 29.5361C99.1463 29.7808 96.9328 30.5262 94.657 29.4824C92.9683 28.7087 91.759 27.2236 91.0631 25.0681C90.4266 23.0993 90.7604 21.4289 90.9203 20.6256C91.1847 19.2975 91.7137 18.0514 92.4902 16.9199C92.5341 16.8562 92.5496 16.777 92.5341 16.7007C92.5185 16.6243 92.4718 16.5592 92.4053 16.5182C89.2555 14.5932 85.8653 13.0912 82.3279 12.0544C79.1314 11.1181 75.8218 10.5637 72.4895 10.4067C72.3368 10.3982 72.2095 10.5114 72.1953 10.6613C72.0426 12.1817 71.5843 13.6088 70.8333 14.903C70.4429 15.5762 69.4062 17.3626 67.2535 18.5422C66.593 18.9043 65.2196 19.6581 63.3102 19.5832C61.5705 19.5153 60.3103 18.7869 59.9652 18.5662C57.2821 16.8421 56.937 13.5933 56.8946 12.9596C56.8889 12.8705 56.8408 12.7899 56.7659 12.7418C56.6909 12.6937 56.5976 12.6824 56.5141 12.7135C53.0602 13.9865 49.7053 15.5847 46.5442 17.4644C43.0266 19.5549 39.7085 22.0145 36.6817 24.7739C36.5742 24.8715 36.5587 25.0342 36.6449 25.1501C37.4243 26.2109 38.3691 27.9591 38.4412 30.2659C38.5091 32.4412 37.7566 34.0084 37.4356 34.676C37.1244 35.3237 36.1768 37.2954 33.9435 38.714C33.1627 39.2104 31.8573 40.0407 29.9365 40.069C27.9904 40.0958 26.5095 39.2642 25.7981 38.7635C25.733 38.7182 25.651 38.7013 25.5732 38.7182C25.4954 38.7352 25.4289 38.7847 25.3893 38.854C23.4134 42.3136 21.7332 45.9697 20.3966 49.7192C18.985 53.6767 17.9384 57.7883 17.2835 61.9394C17.2708 62.0215 17.2948 62.1049 17.3486 62.1686C17.4023 62.2308 17.4801 62.2676 17.5636 62.2676C17.5749 62.2676 17.5933 62.2676 17.6088 62.2676C18.5395 62.2676 19.432 62.4529 20.2622 62.8178C22.1391 63.6424 23.0499 65.1204 23.3498 65.6055C24.6637 67.7384 24.4926 69.86 24.4276 70.6577C24.231 73.0833 23.1164 74.7056 22.6398 75.4001C22.2876 75.9135 21.4616 77.1157 19.9086 78.1058C19.1293 78.6022 18.2764 78.977 17.3755 79.2189C17.234 79.2571 17.1449 79.3957 17.1704 79.5399C17.7984 83.2244 18.8139 86.8551 20.1858 90.3302C21.5535 93.7954 23.2861 97.1291 25.3356 100.241C25.3823 100.311 25.4586 100.358 25.5449 100.367C25.6283 100.375 25.7146 100.344 25.774 100.283C26.4657 99.5802 27.2535 98.9961 28.1134 98.5491C29.0526 98.0612 30.8007 97.1517 32.9888 97.5647C35.1683 97.9763 36.5247 99.4515 37.14 100.294C38.5756 102.263 38.5147 104.334 38.485 105.328C38.4157 107.697 37.4568 109.512 36.6647 110.618C36.6195 110.682 36.6025 110.762 36.6181 110.839C36.6336 110.915 36.6803 110.983 36.7468 111.024C39.7099 112.843 42.8965 114.287 46.2175 115.315C49.612 116.366 53.1338 116.978 56.6853 117.135C56.6895 117.135 56.6937 117.135 56.698 117.135L56.6994 117.137ZM65.7005 107.334C64.4035 107.334 63.3809 107.7 62.8463 107.891C60.3046 108.801 58.9426 110.667 58.4292 111.37C57.0686 113.236 56.5933 115.177 56.4434 116.558C53.0319 116.384 49.6487 115.785 46.3858 114.775C43.2048 113.79 40.1498 112.418 37.2984 110.697C38.0961 109.512 38.9815 107.685 39.0508 105.345C39.0791 104.369 39.147 102.086 37.5968 99.9607C36.9321 99.0498 35.4653 97.4558 33.0934 97.0075C30.713 96.5577 28.8517 97.5265 27.8518 98.0456C27.0399 98.4671 26.2903 99.0031 25.6199 99.6396C23.6737 96.6426 22.0231 93.4432 20.712 90.1209C19.3853 86.7603 18.3966 83.2541 17.7715 79.6941C18.6371 79.4381 19.4574 79.0633 20.2127 78.581C21.8633 77.5287 22.7345 76.26 23.1065 75.7183C23.5648 75.0507 24.784 73.2785 24.9919 70.7015C25.0541 69.9335 25.2422 67.5969 23.8321 65.3071C23.5096 64.7838 22.5295 63.1926 20.4899 62.2973C19.6724 61.938 18.7997 61.7386 17.8945 61.7047C18.5466 57.6963 19.5677 53.729 20.9298 49.9074C22.2225 46.2837 23.8363 42.7492 25.7316 39.3971C26.5703 39.936 28.054 40.6588 29.945 40.6319C32.0256 40.6008 33.4711 39.6814 34.2476 39.1892C36.6167 37.6829 37.6166 35.6024 37.9462 34.9192C38.2559 34.2743 39.0791 32.5601 39.0069 30.2461C38.9348 27.9393 38.0438 26.1614 37.2489 25.0214C40.1964 22.3553 43.4198 19.9764 46.8327 17.9481C49.8595 16.1491 53.0659 14.6102 56.3656 13.3698C56.5056 14.5183 57.1082 17.4022 59.6583 19.04C60.1392 19.3498 61.4559 20.0754 63.2876 20.1461C65.3526 20.2267 66.8193 19.4219 67.525 19.0358C69.8149 17.7798 70.9096 15.8945 71.3212 15.1845C72.0694 13.896 72.5418 12.4844 72.7271 10.9823C75.925 11.1521 79.1003 11.6938 82.1681 12.5947C85.5626 13.5905 88.8213 15.0204 91.858 16.8463C91.1282 17.9736 90.6261 19.2055 90.3658 20.5124C90.2088 21.296 89.8425 23.1318 90.5242 25.2392C91.271 27.5518 92.5821 29.1514 94.4208 29.9944C96.9002 31.1315 99.2736 30.3324 100.053 30.0707C101.298 29.6521 102.452 28.935 103.411 27.9888C105.454 31.0424 107.167 34.3209 108.504 37.7409C109.774 40.9883 110.71 44.3772 111.29 47.8183C110.224 48.1719 109.232 48.6896 108.34 49.3586C106.477 50.7546 105.494 52.4646 104.998 53.6512C104.143 55.6978 103.942 57.7331 104.402 59.7005C104.631 60.6835 105.109 62.7287 107.041 64.2703C108.601 65.515 110.321 65.7964 111.381 65.8346C110.695 69.6831 109.676 73.4949 108.351 77.1709C106.99 80.9444 105.29 84.6218 103.296 88.1054C102.534 87.5948 101.392 87.0291 99.9383 86.8876C97.8337 86.6825 96.2397 87.5014 95.5594 87.8508C93.3883 88.9653 92.3007 90.6682 91.8919 91.3075C91.1763 92.4277 90.6841 93.6625 90.4281 94.9807L82.7989 110.15L72.7186 114.079C72.6493 113.141 72.3792 111.882 71.573 110.629C71.0327 109.788 69.8064 108.279 67.6721 107.628C66.9692 107.413 66.3044 107.334 65.6991 107.334H65.7005ZM61.4984 90.6555C62.6568 90.6555 63.5577 90.5622 64.0909 90.5084C71.9577 89.698 77 84.9032 79.1526 82.8552C86.5385 75.83 88.1764 67.0849 88.5384 63.6508C88.7718 61.4388 89.2555 56.835 87.3178 51.5551C84.8653 44.8764 80.4029 40.0478 74.7511 37.9559C68.286 35.5628 62.4008 37.4863 60.1858 38.2105C55.3911 39.7776 51.2116 42.7266 47.7605 46.9768C45.052 50.3133 43.6772 53.3726 43.2246 54.3782C38.8669 64.0752 40.1144 71.6491 41.9276 76.2954C42.3322 77.3307 43.1723 79.4834 44.8186 81.8609C46.8652 84.8184 49.4451 87.0814 52.4846 88.5863C55.9385 90.2977 59.2198 90.6555 61.4984 90.6555ZM68.351 37.3548C71.4994 37.3548 73.5319 38.1072 74.5545 38.4863C80.0479 40.5202 84.3915 45.23 86.786 51.7503C88.6785 56.9071 88.2047 61.4218 87.9755 63.5914C87.6205 66.9633 86.0124 75.5486 78.7623 82.4451C76.6506 84.4535 71.7074 89.1549 64.0329 89.9455C62.4913 90.1039 57.7998 90.5876 52.7363 88.0785C49.7831 86.6161 47.2768 84.4153 45.284 81.5384C43.6758 79.2146 42.8512 77.1044 42.4552 76.0889C40.6816 71.5431 39.4652 64.1275 43.7409 54.6102C44.185 53.6215 45.5371 50.6117 48.199 47.3332C51.5794 43.1693 55.6711 40.2811 60.3598 38.7479C63.5591 37.7013 66.2125 37.3548 68.3496 37.3548H68.351Z" fill="black"/>
</g>
<g id="Group_2">
<path id="Vector_3" d="M46.7872 83.8951C48.268 85.5372 50.1732 87.1255 52.6102 88.332C57.6454 90.827 62.3425 90.4041 64.0624 90.2273C71.833 89.4267 76.796 84.7055 78.9572 82.649C86.7462 75.242 88.0064 66.0004 88.2567 63.62C88.5156 61.152 88.9286 56.766 87.0517 51.653C86.4124 49.9147 83.2951 41.4186 74.6518 38.2207C72.4893 37.4216 70.4045 37.1076 68.4993 37.0708C69.2942 37.8841 70.1456 38.877 70.9702 40.0735C71.4412 40.7552 72.6943 42.6505 73.6604 45.2827C75.3958 50.0109 75.1214 54.1678 74.9517 56.3685C74.789 58.5 74.1851 63.4036 71.2276 68.7896C68.3465 74.0397 64.7031 77.058 63.5645 77.959C61.8022 79.3521 57.552 82.6306 51.2099 83.6207C49.3868 83.9036 47.848 83.929 46.7858 83.8965L46.7872 83.8951Z" fill="#CED0D6"/>
<path id="Vector_4" d="M61.5007 90.6561C62.6591 90.6561 63.5586 90.5641 64.0918 90.509C71.9586 89.6985 77.0009 84.9024 79.1535 82.8544C86.5422 75.8277 88.1787 67.0841 88.5393 63.65C88.7713 61.4365 89.255 56.8313 87.3187 51.5557C84.8634 44.8742 80.401 40.0455 74.752 37.955C72.769 37.2224 70.6673 36.8292 68.5075 36.7882C68.3944 36.7853 68.2883 36.8532 68.243 36.9593C68.1978 37.0654 68.2204 37.187 68.301 37.2691C69.1921 38.1813 70.0138 39.1785 70.7422 40.2336C71.8002 41.7639 72.7436 43.5913 73.3999 45.3791C75.1509 50.1512 74.8298 54.3349 74.6742 56.3461C74.4479 59.3064 73.6233 63.8452 70.9855 68.6526C68.3859 73.388 65.1144 76.3765 63.3946 77.7372C61.802 78.9974 57.5701 82.3424 51.1715 83.3409C49.726 83.5658 48.2551 83.6577 46.7983 83.6139C46.6794 83.6111 46.5804 83.6747 46.5323 83.778C46.4843 83.8812 46.5026 84.0014 46.579 84.0863C48.2833 85.9759 50.2705 87.4907 52.4869 88.5868C55.9422 90.2982 59.2236 90.6575 61.5035 90.6575L61.5007 90.6561ZM69.1822 37.378C71.0378 37.4798 72.8412 37.8518 74.554 38.484C80.0446 40.5165 84.3881 45.2263 86.7841 51.7466C88.6765 56.902 88.2197 61.2526 87.9736 63.5906C87.62 66.961 86.0119 75.5477 78.7603 82.4442C76.6487 84.4526 71.7054 89.1554 64.031 89.946C62.4893 90.1045 57.7964 90.5868 52.733 88.0791C50.7726 87.1088 48.9962 85.8019 47.4446 84.1895C48.719 84.1938 49.9933 84.0948 51.2535 83.8996C57.7993 82.8784 62.116 79.4655 63.7411 78.1813C65.4935 76.7938 68.83 73.7472 71.4777 68.9256C74.165 64.0304 75.0038 59.4069 75.2357 56.39C75.3927 54.3391 75.7208 50.072 73.9274 45.1839C73.0661 42.836 71.9713 41.0214 71.2047 39.9125C70.5909 39.0229 69.912 38.1728 69.1822 37.3794V37.378Z" fill="black"/>
</g>
<g id="Group_3">
<path id="Vector_5" d="M61.1781 109.043C64.9375 110.858 68.6983 112.673 72.4578 114.487C72.4436 113.823 72.322 112.316 71.339 110.786C70.9373 110.162 69.7719 108.567 67.5923 107.901C65.5174 107.268 63.7763 107.861 62.9432 108.159C62.2714 108.398 61.6859 108.707 61.1781 109.043Z" fill="#CED0D6"/>
<path id="Vector_6" d="M72.4573 114.768C72.5111 114.768 72.5634 114.753 72.6101 114.723C72.6921 114.669 72.7416 114.577 72.7402 114.48C72.7204 113.519 72.5026 112.072 71.5762 110.631C71.0359 109.79 69.8096 108.282 67.6753 107.628C65.4618 106.954 63.6302 107.611 62.8481 107.891C62.2073 108.119 61.5921 108.428 61.0221 108.807C60.9372 108.863 60.8891 108.961 60.8962 109.061C60.9033 109.163 60.9641 109.252 61.056 109.297L72.3357 114.741C72.3753 114.76 72.4163 114.77 72.4587 114.77L72.4573 114.768ZM65.7037 107.9C66.2595 107.9 66.8677 107.974 67.5098 108.169C69.4716 108.768 70.6017 110.16 71.1009 110.935C71.8166 112.048 72.074 113.166 72.1504 114.021L61.7661 109.01C62.1734 108.777 62.5991 108.58 63.039 108.423C63.5383 108.244 64.4972 107.9 65.7051 107.9H65.7037Z" fill="black"/>
</g>
<g id="Group_4">
<path id="Vector_7" d="M4.1911 73.1508C4.65644 76.3148 5.57012 80.3839 7.43427 84.8604C8.9519 88.5025 10.71 91.4783 12.2927 93.7781C16.7211 95.8813 21.1467 97.983 25.5751 100.086C23.9118 97.5615 22.0462 94.2674 20.4522 90.2266C18.8511 86.1701 17.9629 82.4801 17.4537 79.4929C13.0338 77.3784 8.61386 75.2639 4.19252 73.1494L4.1911 73.1508Z" fill="#EBECEF"/>
<path id="Vector_8" d="M25.5741 100.369C25.6547 100.369 25.7325 100.335 25.7877 100.271C25.8711 100.175 25.881 100.036 25.8103 99.9301C23.7821 96.8524 22.0678 93.5526 20.7143 90.1228C19.3565 86.6816 18.3523 83.0891 17.7314 79.4442C17.7158 79.3537 17.6578 79.2759 17.5744 79.2363C13.1544 77.1218 8.73451 75.0074 4.31316 72.8929C4.2184 72.8476 4.10666 72.8589 4.02322 72.9197C3.93835 72.982 3.89592 73.0852 3.91148 73.1885C4.50693 77.2364 5.60449 81.1981 7.17304 84.966C8.48134 88.1059 10.1248 91.1242 12.0597 93.9359C12.088 93.977 12.1262 94.0095 12.1714 94.0307L25.4539 100.339C25.4935 100.357 25.5345 100.366 25.5755 100.366L25.5741 100.369ZM17.1981 79.6847C17.8275 83.3182 18.8332 86.898 20.1881 90.3307C21.4342 93.4876 22.9829 96.5356 24.7976 99.4039L12.4826 93.5555C10.5888 90.7932 8.97919 87.8315 7.69635 84.751C6.21267 81.191 5.15613 77.4528 4.55219 73.6354C8.76704 75.6509 12.9833 77.6678 17.1981 79.6847Z" fill="black"/>
</g>
<g id="Group_5">
<path id="Vector_9" d="M4.21965 55.6693C8.66928 57.7754 13.1161 59.8785 17.5657 61.9831C18.1117 58.5221 19.0423 54.3653 20.666 49.8138C22.1936 45.5283 23.9729 41.9089 25.6376 38.9939C21.2247 36.8794 16.8119 34.7649 12.4004 32.6504C10.6225 35.5866 8.65514 39.3984 7.03285 44.0446C5.50249 48.4235 4.67508 52.4021 4.21965 55.6679V55.6693Z" fill="#EBECEF"/>
<path id="Vector_10" d="M17.5659 62.2677C17.6112 62.2677 17.6565 62.2564 17.6975 62.2352C17.7767 62.1942 17.8304 62.1178 17.8446 62.0287C18.4952 57.9072 19.5333 53.8295 20.9307 49.9103C22.2546 46.1947 23.9207 42.5697 25.8825 39.1356C25.9221 39.0677 25.9306 38.9857 25.9065 38.9107C25.8825 38.8357 25.8301 38.7735 25.7594 38.7396L25.229 38.485C20.993 36.4554 16.7569 34.4243 12.5209 32.3961C12.3893 32.3339 12.2323 32.3805 12.1559 32.505C9.96932 36.1173 8.15468 39.9687 6.76434 43.953C5.44331 47.7322 4.49143 51.6613 3.93841 55.63C3.92144 55.7531 3.98508 55.8719 4.09682 55.9242C8.54645 58.0302 12.9933 60.1348 17.4429 62.238C17.4811 62.2564 17.5221 62.2649 17.5645 62.2649L17.5659 62.2677ZM25.2418 39.12C23.3295 42.5046 21.7002 46.0689 20.3989 49.7208C19.0312 53.5537 18.0044 57.538 17.3467 61.5676C13.0739 59.5464 8.80245 57.5253 4.52962 55.5042C5.08264 51.6429 6.01472 47.8199 7.30039 44.1411C8.65112 40.2756 10.4021 36.5346 12.5095 33.0198C16.6678 35.0113 20.8261 37.0041 24.9858 38.997L25.2432 39.12H25.2418Z" fill="black"/>
</g>
<g id="Group_6">
<path id="Vector_11" d="M23.5651 18.6474C28.002 20.759 32.4389 22.8707 36.8744 24.9824C39.3566 22.7179 42.6082 20.1325 46.6901 17.7068C50.3109 15.5556 53.7168 14.0478 56.6134 12.9786C52.1793 10.8315 47.7453 8.6831 43.3112 6.53467C40.5022 7.52756 37.177 8.95608 33.6383 11.0423C29.3541 13.5669 26.0233 16.3066 23.5637 18.6474H23.5651Z" fill="#EBECEF"/>
<path id="Vector_12" d="M36.8747 25.2652C36.9441 25.2652 37.0119 25.2397 37.0657 25.1916C40.0627 22.4576 43.3498 20.0221 46.8362 17.95C49.9662 16.0901 53.2886 14.5074 56.7128 13.2444C56.8189 13.2048 56.8924 13.1058 56.8981 12.9926C56.9037 12.8795 56.8415 12.7734 56.7383 12.7239C52.3042 10.5769 47.8701 8.42845 43.436 6.28001C43.3681 6.24748 43.2889 6.24324 43.2182 6.26728C39.8435 7.4596 36.5721 8.98429 33.4958 10.7975C29.8481 12.9474 26.4423 15.5187 23.3703 18.4422C23.3024 18.5059 23.2713 18.5992 23.2854 18.6911C23.2996 18.7831 23.359 18.8623 23.4438 18.9019L25.1694 19.7236C29.0306 21.5609 32.8919 23.3996 36.7531 25.2369C36.7913 25.2553 36.8337 25.2637 36.8747 25.2637V25.2652ZM55.8967 12.9445C52.6592 14.1793 49.5164 15.6983 46.5463 17.4621C43.081 19.5214 39.811 21.9371 36.8238 24.6443C33.0206 22.8339 29.2159 21.0235 25.4112 19.2116L24.0577 18.5681C27.0194 15.7917 30.2894 13.342 33.7815 11.2841C36.7927 9.50903 39.992 8.01403 43.2932 6.83869C47.4939 8.87397 51.6946 10.9093 55.8953 12.9431L55.8967 12.9445Z" fill="black"/>
</g>
<g id="Group_7">
<path id="Vector_13" d="M59.1936 4.28125C63.622 6.41696 68.0476 8.55266 72.476 10.6884C75.094 10.81 78.4659 11.2159 82.2479 12.3248C84.5915 13.0122 86.665 13.8438 88.457 14.6995C83.262 12.172 78.0684 9.64315 72.8748 7.11707C71.3134 6.52021 69.5397 5.94597 67.5681 5.47074C64.4367 4.71122 61.5909 4.39016 59.1936 4.28266V4.28125Z" fill="#EBECEF"/>
<path id="Vector_14" d="M88.4575 14.983C88.5622 14.983 88.664 14.9236 88.7121 14.8232C88.78 14.6832 88.7206 14.5134 88.5806 14.4455L85.0135 12.7101C81.008 10.7611 77.0025 8.81209 72.997 6.86308C72.9899 6.85884 72.9814 6.85601 72.9743 6.85318C71.2332 6.18843 69.437 5.63116 67.6337 5.19553C64.8841 4.52936 62.0483 4.12627 59.2054 4.00039C59.0724 3.99332 58.9508 4.08384 58.9183 4.21396C58.8857 4.34408 58.948 4.47986 59.0696 4.53785L72.352 10.945C72.386 10.9619 72.4242 10.9704 72.4623 10.9733C75.7451 11.126 79.0095 11.6734 82.1678 12.5984C84.2823 13.2193 86.3572 14.0127 88.3345 14.9561C88.3741 14.9745 88.4151 14.9844 88.4561 14.9844L88.4575 14.983ZM72.7622 7.37792C75.9912 8.94787 79.2188 10.5192 82.4478 12.0906C82.4082 12.0793 82.3686 12.0666 82.329 12.0553C79.1467 11.1232 75.8554 10.5702 72.5486 10.4103L60.6141 4.65241C62.9393 4.83204 65.2504 5.19836 67.5035 5.74573C69.2786 6.17428 71.0494 6.72306 72.7636 7.37792H72.7622Z" fill="black"/>
</g>
<g id="Group_8">
<path id="Vector_15" d="M90.7966 25.1556C91.03 25.8783 91.8857 28.5218 94.5419 29.741C96.9208 30.8315 99.1909 30.0677 99.9674 29.8061C101.742 29.2078 102.891 28.1484 103.454 27.5445C99.1414 25.4653 94.829 23.3848 90.5166 21.3057H90.5151C90.3765 22.2547 90.3016 23.6224 90.7966 25.1556Z" fill="#CED0D6"/>
<path id="Vector_16" d="M97.1997 30.5904C98.5179 30.5904 99.5815 30.2326 100.055 30.0742C101.413 29.6173 102.659 28.8083 103.661 27.7376C103.721 27.6726 103.748 27.5806 103.731 27.493C103.714 27.4039 103.658 27.3289 103.576 27.2907L90.6384 21.0519C90.5295 20.9996 90.4008 21.0222 90.316 21.1071C90.2735 21.1495 90.2438 21.2075 90.2339 21.2669C90.026 22.6883 90.1208 23.9881 90.5267 25.2427C91.2735 27.5538 92.5832 29.1548 94.4233 29.9978C95.395 30.4433 96.3497 30.5919 97.1997 30.5919V30.5904ZM102.976 27.6273C102.303 28.2836 101.275 29.0657 99.8757 29.5367C99.1473 29.7814 96.9338 30.5254 94.6595 29.4816C92.9707 28.7065 91.7615 27.2214 91.0656 25.0673C90.7233 24.0094 90.6186 22.9146 90.7459 21.7294L102.976 27.6273Z" fill="black"/>
</g>
<g id="Group_9">
<path id="Vector_17" d="M23.5507 104.391C27.9989 106.522 32.4472 108.652 36.8954 110.784C37.4823 109.965 38.6902 108.03 38.7694 105.337C38.7977 104.347 38.8628 102.174 37.3692 100.128C37.0255 99.6581 35.6055 97.7699 33.0426 97.2862C30.7598 96.8562 28.9437 97.7982 27.9848 98.2989C26.8703 98.8788 26.0754 99.5746 25.5747 100.085C25.4446 100.023 25.3145 99.9622 25.1843 99.8985C25.1122 100.511 24.9679 101.28 24.6709 102.129C24.3371 103.079 23.9142 103.835 23.5521 104.389L23.5507 104.391Z" fill="#CED0D6"/>
<path id="Vector_18" d="M36.8957 111.066C36.9848 111.066 37.0711 111.024 37.1263 110.949C37.965 109.779 38.9791 107.859 39.0527 105.347C39.081 104.371 39.1488 102.087 37.5987 99.9636C36.4502 98.3908 34.8505 97.3428 33.0953 97.0104C30.7093 96.5606 28.8522 97.5295 27.855 98.05C26.9993 98.4941 26.2129 99.0655 25.5171 99.7472C25.5114 99.7444 25.5072 99.7416 25.5015 99.7401C25.4365 99.709 25.3728 99.6793 25.3077 99.6482C25.2257 99.6086 25.1281 99.6114 25.0489 99.6553C24.9683 99.6991 24.9146 99.7797 24.9047 99.8703C24.8184 100.61 24.6501 101.34 24.4054 102.04C24.1352 102.808 23.7689 103.548 23.3163 104.238C23.271 104.306 23.2583 104.391 23.2809 104.468C23.3036 104.548 23.3573 104.613 23.4309 104.648C25.6543 105.714 27.8791 106.779 30.1025 107.845C32.3273 108.91 34.5507 109.975 36.7741 111.041C36.8137 111.059 36.8547 111.069 36.8957 111.069V111.066ZM31.8719 97.4602C32.2297 97.4602 32.6031 97.4913 32.9906 97.5648C35.1674 97.9764 36.5252 99.453 37.1418 100.296C38.5774 102.263 38.5166 104.334 38.4869 105.328C38.4204 107.564 37.5633 109.307 36.801 110.424C34.6497 109.393 32.497 108.362 30.3458 107.331C28.2171 106.311 26.0885 105.292 23.9613 104.272C24.3601 103.623 24.6868 102.935 24.9372 102.224C25.1536 101.607 25.312 100.969 25.4124 100.321C25.4251 100.327 25.4393 100.334 25.452 100.34C25.5609 100.392 25.6925 100.37 25.7773 100.283C26.4675 99.5803 27.2539 98.9976 28.1167 98.5492C28.8889 98.1462 30.2071 97.4588 31.8733 97.4588L31.8719 97.4602Z" fill="black"/>
</g>
<g id="Group_10">
<path id="Vector_19" d="M4.19177 73.1499C8.6117 75.263 13.0316 77.3775 17.453 79.4934C18.1107 79.3166 19.0555 78.987 20.0653 78.3449C21.6339 77.3449 22.4797 76.1399 22.8771 75.5614C23.4004 74.8005 24.5164 73.1329 24.7144 70.6818C24.7851 69.8021 24.9308 67.6254 23.5956 65.4585C23.2463 64.8928 22.3 63.4034 20.3821 62.5605C19.2379 62.057 18.1969 61.982 17.569 61.9862C14.934 60.7402 12.299 59.4927 9.664 58.248C10.0855 58.7799 10.6625 59.6426 11.0458 60.825C11.6554 62.7062 11.4108 64.286 11.2835 65.0441C11.1944 65.5717 10.7729 67.8248 8.93701 69.9732C7.19732 72.0099 5.14224 72.8387 4.19319 73.1527L4.19177 73.1499Z" fill="#CED0D6"/>
<path id="Vector_20" d="M17.4527 79.7758C17.4767 79.7758 17.5022 79.7729 17.5262 79.7659C18.4823 79.5084 19.3875 79.111 20.2164 78.5834C21.8655 77.5326 22.7368 76.2625 23.1088 75.7207C23.567 75.0532 24.7862 73.2795 24.9941 70.704C25.055 69.9345 25.2417 67.5938 23.8344 65.3095C23.5119 64.7862 22.5289 63.195 20.4936 62.2997C19.5983 61.9065 18.6351 61.7043 17.6295 61.7015L9.78251 57.9901C9.6637 57.9336 9.52227 57.9675 9.44023 58.0693C9.3582 58.1726 9.3582 58.3183 9.44023 58.4215C10.0343 59.1726 10.4826 60.0099 10.774 60.9094C11.3751 62.7622 11.1134 64.3265 11.0017 64.9941C10.8688 65.7876 10.3794 67.8441 8.7189 69.786C7.17865 71.5894 5.35693 72.4649 4.10096 72.8807C3.99205 72.9175 3.91426 73.0165 3.90719 73.131C3.90012 73.2456 3.96377 73.3545 4.06702 73.404C8.48694 75.5171 12.9069 77.6316 17.3282 79.7475C17.3664 79.7659 17.4088 79.7758 17.4499 79.7758H17.4527ZM17.604 62.2672C18.5403 62.2672 19.4356 62.4525 20.2673 62.8188C22.1428 63.6434 23.055 65.1214 23.3549 65.6066C24.666 67.7338 24.4963 69.8596 24.4326 70.6587C24.236 73.0829 23.1201 74.7066 22.6449 75.3997C22.2927 75.9131 21.4653 77.1167 19.9137 78.1054C19.1612 78.5834 18.3437 78.9483 17.481 79.1916C13.2944 77.1889 9.10785 75.1861 4.9213 73.1834C6.18151 72.677 7.77268 71.769 9.1517 70.1538C10.9041 68.1029 11.4218 65.9276 11.5618 65.0875C11.6806 64.3789 11.9578 62.7184 11.3143 60.734C11.112 60.1089 10.8391 59.5134 10.4996 58.9533L17.447 62.2389C17.4852 62.2573 17.5234 62.2644 17.5687 62.2658C17.58 62.2658 17.5927 62.2658 17.604 62.2658V62.2672Z" fill="black"/>
</g>
<g id="Group_11">
<path id="Vector_21" d="M14.6005 33.7077C18.2793 35.4686 21.9581 37.2323 25.6369 38.996C26.2168 39.4034 27.7797 40.3849 29.9409 40.351C31.9408 40.3199 33.3255 39.4401 34.0963 38.9522C36.3508 37.5194 37.3395 35.5294 37.6917 34.7967C38.0424 34.0655 38.7935 32.4545 38.7241 30.2552C38.6421 27.6032 37.4201 25.7249 36.8727 24.981C32.4372 22.8693 28.0003 20.7577 23.5634 18.646C24.0769 19.3405 25.1207 20.9486 25.3144 23.2385C25.4927 25.3431 24.859 26.913 24.5111 27.7447C24.1349 28.647 22.5578 32.4164 18.6853 33.5705C17.0262 34.0641 15.5397 33.9029 14.6019 33.7077H14.6005Z" fill="#CED0D6"/>
<path id="Vector_22" d="M29.8352 40.6349C29.872 40.6349 29.9088 40.6349 29.947 40.6349C32.0233 40.6038 33.4688 39.6872 34.2453 39.195C36.6172 37.6873 37.6186 35.6054 37.9481 34.9208C38.2876 34.2122 39.0824 32.5545 39.0089 30.2463C38.9325 27.7938 37.9311 25.9381 37.1023 24.8137C37.074 24.7755 37.0387 24.7458 36.9962 24.726C33.1364 22.8873 29.2751 21.05 25.4125 19.2127L23.6869 18.391C23.5696 18.3344 23.4295 18.3669 23.3475 18.466C23.2655 18.5664 23.2612 18.7092 23.339 18.8139C24.0193 19.7318 24.8651 21.248 25.0348 23.2621C25.2116 25.3426 24.5639 26.89 24.2527 27.6353C22.6842 31.3933 20.3165 32.7893 18.6065 33.2999C17.3576 33.6719 16.0309 33.7157 14.6618 33.4315C14.5218 33.4018 14.3818 33.4824 14.3365 33.6182C14.2912 33.7539 14.3535 33.9024 14.4822 33.9633C16.7508 35.0495 19.0209 36.1372 21.2896 37.2248L25.4973 39.2417C26.2583 39.7735 27.8084 40.6363 29.8381 40.6363L29.8352 40.6349ZM36.6879 25.2069C37.4601 26.2719 38.3724 27.9988 38.4431 30.2647C38.5124 32.4343 37.76 34.0057 37.4389 34.6761C37.1278 35.3239 36.1773 37.2969 33.9468 38.7141C33.1633 39.2106 31.8564 40.0394 29.9399 40.0677C28.0022 40.1002 26.5143 39.2629 25.8029 38.7637C25.7901 38.7552 25.776 38.7467 25.7618 38.7396L21.5329 36.7128C19.7705 35.8684 18.0082 35.0226 16.2445 34.1782C17.1073 34.1952 17.9531 34.0821 18.7663 33.8402C20.5937 33.2957 23.1198 31.8148 24.7732 27.8517C25.1013 27.0668 25.7859 25.4318 25.5978 23.214C25.462 21.6101 24.9245 20.3018 24.3602 19.3372L25.1706 19.7233C29.0107 21.5507 32.8507 23.3781 36.6893 25.2069H36.6879Z" fill="black"/>
</g>
<g id="Group_12">
<path id="Vector_23" d="M54.6272 12.016C55.2892 12.3356 55.9525 12.6581 56.6144 12.9778C56.6455 13.4332 56.9355 16.955 59.8152 18.8036C60.0669 18.9648 61.3936 19.7922 63.3016 19.8658C65.2492 19.9407 66.6607 19.1897 67.3906 18.7894C69.5673 17.5957 70.6267 15.8235 71.0793 15.0442C72.0651 13.3455 72.3734 11.726 72.4795 10.6879C68.0511 8.55217 63.6255 6.41647 59.1971 4.28076C59.091 5.31043 58.7388 7.30469 57.3457 9.31028C56.4235 10.6398 55.3726 11.4997 54.6272 12.0131V12.016Z" fill="#CED0D6"/>
<path id="Vector_24" d="M63.5655 20.1551C65.4933 20.1551 66.9063 19.3786 67.5272 19.0392C69.8143 17.7846 70.9118 15.8993 71.3234 15.1892C72.114 13.8272 72.5977 12.3237 72.7604 10.7198C72.7717 10.601 72.7095 10.4879 72.602 10.4369L59.3196 4.02982C59.2361 3.99022 59.1399 3.99305 59.0593 4.03689C58.9787 4.08215 58.925 4.16277 58.9165 4.25471C58.7892 5.48804 58.3719 7.33946 57.1146 9.15269C56.4017 10.1795 55.5121 11.0649 54.4683 11.7848C54.3848 11.8414 54.3396 11.939 54.3466 12.0394C54.3537 12.1398 54.4145 12.229 54.505 12.2728L56.3466 13.1639C56.4371 14.1228 56.9406 17.2952 59.6633 19.0434C60.1442 19.3532 61.4609 20.0787 63.2926 20.1509C63.3859 20.1537 63.4778 20.1565 63.5684 20.1565L63.5655 20.1551ZM72.1748 10.857C72.0023 12.3067 71.5511 13.6674 70.834 14.9035C70.4437 15.5768 69.4041 17.3631 67.2542 18.5427C66.5951 18.9048 65.2232 19.6587 63.3109 19.5851C61.5713 19.5172 60.3111 18.7888 59.9659 18.5668C57.2843 16.8441 56.9378 13.5938 56.8953 12.9602C56.8883 12.8584 56.8274 12.7692 56.7369 12.724L55.1769 11.9687C56.1103 11.2643 56.9165 10.427 57.5785 9.47516C58.775 7.74963 59.2503 5.99156 59.4299 4.71014L72.1763 10.8584L72.1748 10.857Z" fill="black"/>
</g>
</g>
<g id="block">
<g id="Group_13">
<path id="Vector_25" d="M67.3326 98.3399C67.6203 100.314 68.1592 103.766 70.4147 107.465C72.0114 110.081 73.8377 111.791 74.6345 112.49C75.5709 113.311 76.4358 113.928 77.1028 114.362C80.2914 115.889 83.4799 117.416 86.6718 118.943C82.2607 116.395 80.0452 112.794 79.1703 111.334C76.9099 107.558 76.3759 104.127 76.0882 102.141C75.19 95.9464 76.6437 91.1128 77.314 88.9721C78.139 86.3358 79.7707 82.3322 83.0574 78.3253C84.2933 76.8184 86.8015 73.8194 91.1112 71.3561C93.4913 69.9955 97.6662 67.6818 103.403 67.8532C106.181 67.9363 108.504 68.5784 110.191 69.2271C107.508 67.8947 104.825 66.5608 102.144 65.2285C100.762 64.7261 98.8555 64.1822 96.5402 63.951C93.5862 63.6533 91.2825 63.9926 90.3244 64.1606C86.7633 64.786 84.2816 66.1316 82.7763 66.96C81.9297 67.429 78.6863 69.2803 75.4212 72.8447C74.5929 73.7496 72.7366 75.8869 71.0101 79.0605C68.7946 83.1339 67.9014 86.8764 67.5072 89.3048C67.2244 91.0479 66.7338 94.2332 67.3326 98.3399Z" fill="#FF535E"/>
<path id="Vector_26" d="M86.6702 119.276C86.7899 119.276 86.9047 119.211 86.9646 119.098C87.0477 118.94 86.9912 118.743 86.8365 118.655C82.4071 116.095 80.1833 112.383 79.4531 111.162C77.1793 107.366 76.682 103.935 76.4142 102.092C75.5077 95.8498 77.0479 90.9247 77.6284 89.0701C78.8377 85.2013 80.7505 81.6568 83.3119 78.5364C84.3931 77.2174 86.923 74.1303 91.2742 71.6453C93.4947 70.3762 97.6297 68.0144 103.391 68.1857C105.667 68.2539 107.914 68.7096 110.07 69.5363C110.236 69.5995 110.422 69.5213 110.494 69.36C110.565 69.197 110.495 69.0073 110.337 68.9275C108.553 68.041 106.768 67.1544 104.983 66.2679L102.29 64.9306C102.279 64.9256 102.267 64.9206 102.255 64.9156C100.424 64.2503 98.5112 63.8145 96.5718 63.6199C94.4478 63.4053 92.2672 63.4802 90.2646 63.8328C86.5887 64.4782 84.0022 65.9036 82.6134 66.6687C81.1064 67.5037 78.1357 69.3866 75.1734 72.62C73.4951 74.453 71.9532 76.6253 70.7157 78.9023C68.9576 82.1325 67.7667 85.6154 67.1762 89.2514C66.9184 90.8415 66.3812 94.1482 66.9999 98.388C67.276 100.282 67.7917 103.809 70.1286 107.638C71.584 110.023 73.2606 111.728 74.4133 112.739C75.1983 113.429 76.0416 114.068 76.9199 114.642C76.9315 114.65 76.9448 114.657 76.9581 114.663C79.0822 115.681 81.2062 116.698 83.3302 117.714L86.5271 119.244C86.5737 119.266 86.6219 119.277 86.6702 119.277V119.276ZM102.814 67.5104C97.1656 67.5104 92.989 69.8989 90.9448 71.0665C86.4872 73.613 83.9024 76.7667 82.798 78.1139C80.1816 81.3008 78.2289 84.9202 76.9947 88.8722C76.4026 90.765 74.8291 95.7949 75.7572 102.189C76.0317 104.078 76.5423 107.594 78.8842 111.505C79.4414 112.436 80.8453 114.781 83.4018 117.01C81.3559 116.031 79.3117 115.053 77.2658 114.073C76.4209 113.521 75.6092 112.904 74.8524 112.24C73.7363 111.259 72.1079 109.604 70.6974 107.292C68.432 103.579 67.9297 100.141 67.6602 98.2931C67.0565 94.1548 67.5821 90.9164 67.8349 89.3595C68.4137 85.7967 69.5797 82.3853 71.3029 79.2217C72.5154 76.9912 74.0257 74.8638 75.6674 73.0708C78.5649 69.9072 81.4673 68.0676 82.9377 67.2526C84.2916 66.5057 86.8149 65.1152 90.3827 64.4898C91.7382 64.2503 93.9005 64.0208 96.5086 64.2836C98.3881 64.4715 100.239 64.894 102.014 65.5377L104.69 66.8667C105.382 67.211 106.074 67.5553 106.766 67.8979C105.662 67.6817 104.542 67.5569 103.416 67.5237C103.215 67.517 103.015 67.5154 102.818 67.5154L102.814 67.5104Z" fill="black"/>
</g>
<g id="Group_14">
<path id="Vector_27" d="M85.9594 93.8792C89.5521 97.2823 93.1465 100.687 96.7392 104.092C99.6583 105.477 102.576 106.865 105.495 108.25C99.2791 102.362 93.0617 96.4706 86.8442 90.5825C86.5582 91.3443 86.1906 92.472 85.9594 93.8792Z" fill="#FF444F"/>
<path id="Vector_28" d="M105.493 108.583C105.599 108.583 105.704 108.531 105.767 108.438C105.86 108.303 105.84 108.12 105.722 108.009L87.0715 90.3411C86.99 90.2645 86.8769 90.2329 86.7688 90.2579C86.6607 90.2828 86.5709 90.361 86.5326 90.4642C86.1218 91.5536 85.8191 92.6847 85.6294 93.824C85.6111 93.9338 85.6494 94.0436 85.7292 94.1201C89.322 97.5232 92.9164 100.928 96.5091 104.333C96.5341 104.356 96.564 104.376 96.5956 104.391L105.351 108.549C105.398 108.571 105.446 108.581 105.494 108.581L105.493 108.583ZM86.9834 91.1727L103.743 107.051L96.9266 103.814C93.3888 100.462 89.8509 97.1107 86.3147 93.7592C86.4694 92.8859 86.6923 92.0177 86.9834 91.1727Z" fill="black"/>
</g>
<g id="Group_15">
<path id="Vector_29" d="M89.0071 106.436C91.9478 109.724 95.7667 110.329 96.5568 110.439C101.301 111.096 104.754 108.781 105.505 108.249C102.586 106.863 99.6688 105.476 96.7497 104.09C96.2008 104.423 95.484 104.812 94.6141 105.176C94.2548 105.324 93.2269 105.739 91.8114 106.051C91.0779 106.213 90.1315 106.374 89.0054 106.434L89.0071 106.436Z" fill="#FF444F"/>
<path id="Vector_30" d="M98.2487 110.89C101.91 110.89 104.611 109.29 105.695 108.522C105.792 108.453 105.845 108.339 105.835 108.222C105.825 108.104 105.753 108.001 105.647 107.951L96.8914 103.793C96.7899 103.745 96.6718 103.751 96.577 103.809C95.9134 104.212 95.2098 104.57 94.4846 104.874C93.6396 105.223 92.6899 105.521 91.7401 105.731C90.8386 105.93 89.9138 106.057 88.9874 106.106C88.8593 106.113 88.7479 106.193 88.698 106.311C88.6497 106.429 88.6714 106.566 88.7578 106.66C91.5555 109.787 95.1117 110.577 96.5105 110.772C97.111 110.855 97.6931 110.892 98.2503 110.892L98.2487 110.89ZM104.83 108.299C103.38 109.214 100.414 110.639 96.5987 110.11C95.3512 109.937 92.2924 109.263 89.7276 106.715C90.4528 106.647 91.1746 106.534 91.8815 106.378C92.8695 106.16 93.8575 105.85 94.7391 105.486C95.4393 105.193 96.1196 104.851 96.765 104.47L104.83 108.3V108.299Z" fill="black"/>
</g>
<g id="Group_16">
<path id="Vector_31" d="M104.768 84.3046C104.976 85.0465 105.512 87.1622 105.256 89.9166C105.202 90.5021 105.118 91.0493 105.018 91.5516C107.608 94.02 110.196 96.485 112.785 98.9533C113.338 97.6693 114.073 95.5203 114.116 92.7891C114.143 91.2489 114.151 88.2916 112.33 85.2244C111.678 84.1267 109.742 81.2408 106.026 79.8303C104.67 79.3147 103.345 79.0985 102.1 79.0752C102.905 80.0965 104.076 81.8529 104.768 84.3046Z" fill="#FF444F"/>
<path id="Vector_32" d="M112.783 99.2857C112.804 99.2857 112.828 99.284 112.849 99.279C112.956 99.2574 113.045 99.1842 113.089 99.0844C113.955 97.0702 114.413 94.9544 114.446 92.7938C114.471 91.3251 114.522 88.2696 112.613 85.0545C111.733 83.5708 109.722 80.8779 106.141 79.519C104.855 79.03 103.496 78.7688 102.104 78.7422C101.968 78.7406 101.856 78.8121 101.8 78.9269C101.743 79.0416 101.757 79.1797 101.836 79.2811C103.041 80.808 103.919 82.5296 104.446 84.3958C104.785 85.6017 105.141 87.5328 104.922 89.8864C104.872 90.4203 104.794 90.9592 104.689 91.4881C104.667 91.5996 104.702 91.716 104.785 91.7942C107.362 94.2492 109.935 96.7009 112.511 99.156L112.553 99.1959C112.616 99.2558 112.698 99.2874 112.783 99.2874V99.2857ZM102.789 79.4425C103.862 79.5273 104.907 79.7618 105.905 80.1411C109.296 81.4285 111.204 83.9849 112.041 85.3938C113.854 88.4476 113.804 91.3767 113.781 92.7838C113.751 94.6983 113.375 96.5778 112.661 98.3775C110.233 96.0639 107.806 93.7519 105.376 91.4366C105.469 90.9442 105.539 90.4436 105.584 89.9462C105.813 87.4912 105.439 85.4736 105.085 84.2145C104.599 82.493 103.827 80.8912 102.789 79.4425Z" fill="black"/>
</g>
<g id="Group_17">
<g id="Vector_33">
<path fill-rule="evenodd" clip-rule="evenodd" d="M103.412 67.5536C97.5837 67.3796 93.347 69.7324 90.9605 71.0959C86.6009 73.5868 84.0647 76.6217 82.8221 78.1352C79.5041 82.1787 77.857 86.2218 77.0243 88.8828C76.3496 91.0375 74.8803 95.9236 75.7895 102.181C76.0803 104.176 76.6191 107.658 78.9111 111.485C79.8247 113.01 82.2043 116.877 87.0113 119.475C93.3168 122.884 99.4906 121.784 101.5 121.397C107.927 120.158 111.921 116.529 114.041 114.602L114.043 114.6C115.057 113.679 118.627 110.308 121.257 104.681C123.262 100.392 123.846 96.6615 124.05 94.8882C124.269 92.9873 124.64 89.4945 123.623 85.1205C123.175 83.199 122.302 79.6011 119.471 75.9012C116.708 72.29 113.563 70.5124 112.614 70.0056C111.217 69.2574 107.899 67.6886 103.412 67.5536ZM77.598 89.0585C78.4156 86.4468 80.032 82.4812 83.2859 78.5159C84.5149 77.0189 86.9952 74.0526 91.2582 71.6168C93.6287 70.2625 97.7417 67.9846 103.394 68.1533M77.598 89.0585C76.9315 91.187 75.4933 95.9699 76.3832 102.094C76.6713 104.071 77.197 107.455 79.4258 111.176C80.3252 112.678 82.6361 116.429 87.2966 118.947C93.4094 122.252 99.4043 121.189 101.387 120.808C107.642 119.602 111.531 116.072 113.64 114.156C114.626 113.26 118.131 109.951 120.714 104.427C122.681 100.217 123.254 96.556 123.454 94.8197C123.67 92.9382 124.031 89.5281 123.039 85.2563C122.595 83.3555 121.745 79.861 118.994 76.2658C116.305 72.7513 113.245 71.0226 112.332 70.5348C110.977 69.8092 107.752 68.2844 103.394 68.1533" fill="#0E0E0E"/>
<path fill-rule="evenodd" clip-rule="evenodd" d="M111.818 85.9649C110.78 85.0079 109.154 85.1049 108.237 86.1787L95.7186 100.836L91.2704 97.0192C90.2315 96.1277 88.6689 96.2369 87.7641 97.2643C86.8382 98.3155 86.956 99.9222 88.0254 100.827L96.0976 107.659C96.1558 107.708 96.2428 107.701 96.2927 107.643L112.016 89.4223C112.893 88.4052 112.806 86.8754 111.818 85.9649ZM107.781 85.789C108.919 84.4565 110.936 84.3361 112.225 85.5238C113.45 86.6536 113.559 88.5521 112.47 89.8143L96.7469 108.035C96.4821 108.342 96.0195 108.378 95.71 108.117L87.6378 101.285C86.312 100.163 86.1659 98.1711 87.3138 96.8677C88.4357 95.5939 90.373 95.4585 91.6612 96.5639L95.6529 99.9893L107.781 85.789Z" fill="#0E0E0E"/>
<path d="M108.237 86.1787C109.154 85.1049 110.78 85.0079 111.818 85.9649C112.806 86.8754 112.893 88.4052 112.016 89.4223L96.2927 107.643C96.2428 107.701 96.1558 107.708 96.0976 107.659L88.0254 100.827C86.956 99.9222 86.8382 98.3155 87.7641 97.2643C88.6689 96.2369 90.2315 96.1277 91.2704 97.0192L95.7186 100.836L108.237 86.1787Z" fill="#FF444F"/>
<path fill-rule="evenodd" clip-rule="evenodd" d="M83.2859 78.5159C80.032 82.4812 78.4156 86.4468 77.598 89.0585C76.9315 91.187 75.4933 95.9699 76.3832 102.094C76.6713 104.071 77.197 107.455 79.4258 111.176C80.3252 112.678 82.6361 116.429 87.2966 118.947C93.4094 122.252 99.4043 121.189 101.387 120.808C107.642 119.602 111.531 116.072 113.64 114.156C114.626 113.26 118.131 109.951 120.714 104.427C122.681 100.217 123.254 96.556 123.454 94.8197C123.67 92.9382 124.031 89.5281 123.039 85.2563C122.595 83.3555 121.745 79.861 118.994 76.2658C116.305 72.7513 113.245 71.0226 112.332 70.5348C110.977 69.8092 107.752 68.2844 103.394 68.1533C97.7417 67.9846 93.6287 70.2625 91.2582 71.6168C86.9952 74.0526 84.5149 77.0189 83.2859 78.5159ZM107.781 85.789C108.919 84.4565 110.936 84.3361 112.225 85.5238C113.45 86.6536 113.559 88.5521 112.47 89.8143L96.7469 108.035C96.4821 108.342 96.0195 108.378 95.71 108.117L87.6378 101.285C86.312 100.163 86.1659 98.1711 87.3138 96.8677C88.4357 95.5939 90.373 95.4585 91.6612 96.5639L95.6529 99.9893L107.781 85.789Z" fill="#FF7E88"/>
</g>
</g>
</g>
</g>
</g>
</svg>
