<svg width="120" height="152" viewBox="0 0 120 152" fill="none" xmlns="http://www.w3.org/2000/svg">
<g id="illustration / deriv / light / diversified-portfolio">
<g id="Diversified Portfolio">
<g id="Diversified Portfolio 1" clip-path="url(#clip0_1338_135)">
<g id="Layer 1">
<g id="Group">
<g id="Group_2">
<path id="Vector" d="M63.8598 56.4314C63.8598 57.4085 63.7609 58.3271 63.5712 59.181C63.1518 61.0735 62.2892 62.6468 61.0886 63.8358L59.9581 64.7765C57.8295 66.549 53.4686 70.1808 52.8962 70.6567C52.9711 70.5808 53.046 70.5049 53.1178 70.4274C54.6485 68.81 55.5334 66.9427 55.8938 64.9568C56.4662 61.804 55.7152 58.354 54.1319 55.138C54.0984 55.07 54.0665 55.0021 54.0314 54.9341C52.3859 51.6754 49.8906 48.6681 47.0572 46.4704C47.0205 46.4403 46.9839 46.4134 46.9472 46.3866C45.273 45.1027 43.484 44.1018 41.6854 43.4994C38.0707 42.2282 34.5406 42.1476 31.4919 44.037C31.4919 44.0354 37.8922 38.7086 37.8954 38.7071C45.9873 31.6632 57.8598 39.9435 62.2047 49.1503C63.3623 51.6042 63.9841 54.1214 63.8598 56.4314Z" fill="#FF7E88"/>
<path id="Vector_2" d="M52.8962 70.973C52.8101 70.973 52.724 70.9383 52.6618 70.8718C52.547 70.7485 52.5486 70.5556 52.6682 70.4355C52.7416 70.3627 52.8133 70.2884 52.8819 70.2141C54.3057 68.7105 55.2114 66.9238 55.5781 64.9015C56.1075 61.986 55.508 58.6577 53.8433 55.2773L53.8098 55.2093C53.7891 55.1666 53.7684 55.1223 53.7461 55.0796C52.1309 51.881 49.6849 48.9133 46.8595 46.7203C46.8213 46.6887 46.791 46.6665 46.7607 46.6444C45.0514 45.3336 43.3134 44.3786 41.5834 43.8C37.7264 42.4434 34.3907 42.6141 31.661 44.3059C31.5621 44.366 31.4394 44.3707 31.3373 44.3138C31.2353 44.2569 31.1731 44.1525 31.1731 44.0371C31.1731 43.9391 31.3028 43.782 31.5621 43.566L34.488 41.1294C36.9387 39.0898 37.5303 38.5981 37.6881 38.4716V38.4684C40.3939 36.111 43.7503 35.2651 47.3921 36.0209C53.247 37.2367 59.4575 42.5793 62.4934 49.0145C62.4965 49.0208 62.4997 49.0271 62.5013 49.0335C63.7179 51.617 64.2983 54.1768 64.1787 56.4378C64.1787 57.4213 64.0783 58.3652 63.8821 59.2475C63.4548 61.1749 62.5906 62.7923 61.3134 64.0572C61.3071 64.0636 61.3007 64.0699 61.2927 64.0762L58.091 66.742C55.972 68.5065 53.5197 70.5493 53.1003 70.8971C53.0413 70.9462 52.968 70.9715 52.8962 70.9715V70.973ZM36.7522 42.2599C38.3243 42.2599 40.0065 42.573 41.7907 43.2007C43.5829 43.8015 45.3846 44.7882 47.1402 46.1353C47.1784 46.1637 47.2183 46.1938 47.2582 46.2254C50.1505 48.469 52.6586 51.5126 54.3137 54.7903C54.3376 54.8362 54.3615 54.8852 54.3839 54.9326L54.4157 54.9974C56.1394 58.4996 56.758 61.9622 56.2047 65.0106C55.972 66.2882 55.5383 67.4772 54.9053 68.5666C55.7615 67.8535 56.7516 67.0282 57.678 66.2566L60.8702 63.5987C62.0549 62.4224 62.8585 60.9108 63.2571 59.1099C63.4437 58.2703 63.5377 57.3675 63.5377 56.4283C63.5377 56.422 63.5377 56.4173 63.5377 56.4109C63.6541 54.2464 63.0929 51.7814 61.9114 49.2817C61.9082 49.2754 61.905 49.269 61.9034 49.2627C58.9425 43.0031 52.9217 37.8123 47.2566 36.6359C43.8173 35.9228 40.6522 36.7181 38.1011 38.9396C38.0979 38.9428 38.0947 38.9443 38.0931 38.9475C38.0086 39.0171 35.3953 41.1927 33.5361 42.7406C34.5486 42.4181 35.6201 42.2568 36.7506 42.2568L36.7522 42.2599Z" fill="black"/>
</g>
<g id="Group_3">
<path id="Vector_3" d="M61.0885 63.8359C60.7393 64.1838 60.363 64.4968 59.958 64.7767L61.0885 63.8359Z" fill="white"/>
<path id="Vector_4" d="M59.958 65.0929C59.8624 65.0929 59.7667 65.0502 59.7045 64.9695C59.6009 64.8351 59.6216 64.6438 59.7524 64.5347L60.8828 63.594C61.0136 63.4849 61.2081 63.4975 61.3229 63.6224C61.4377 63.7473 61.4345 63.9402 61.3149 64.0588C60.9546 64.4177 60.5592 64.7466 60.1414 65.036C60.0856 65.0739 60.0218 65.0929 59.9596 65.0929H59.958Z" fill="black"/>
</g>
<g id="Group_4">
<path id="Vector_5" d="M56.0324 62.906C56.0467 63.608 56.0005 64.2926 55.8936 64.9567C55.5492 67.1102 54.583 69.0233 53.1177 70.4273C51.5933 71.8899 49.5253 72.8022 47.0539 72.8638C47.0682 72.2156 47.0188 71.5721 46.904 70.9475C46.6281 69.4123 45.9696 67.9845 44.9603 66.8493C44.9555 66.843 44.9492 66.8366 44.9428 66.8303C44.0961 65.8816 43.0023 65.1369 41.6821 64.7053L29.3313 60.509C26.5266 55.2992 26.313 47.1343 31.4918 44.0369C34.5404 42.1475 38.0706 42.2281 41.6853 43.4993C43.5428 44.1697 45.3175 45.1611 46.947 46.3865C46.9837 46.4133 47.0204 46.4402 47.0571 46.4703C49.9877 48.6996 52.4368 51.6895 54.0313 54.934C54.0664 55.002 54.0983 55.07 54.1317 55.1379C55.3404 57.6598 56.0324 60.3272 56.0324 62.906Z" fill="#FF444F"/>
<path id="Vector_6" d="M47.0539 73.1802C46.9694 73.1802 46.8881 73.147 46.8291 73.0885C46.7669 73.0268 46.7334 72.9446 46.735 72.8576C46.7494 72.2268 46.6999 71.6038 46.5899 71.0046C46.3189 69.493 45.6715 68.1285 44.7212 67.0581C44.7196 67.0565 44.718 67.0549 44.7164 67.0518C44.7116 67.047 44.7068 67.0407 44.7037 67.0391C43.8554 66.0889 42.8062 65.4058 41.5817 65.0042L29.2277 60.8064C29.1512 60.7811 29.0874 60.7273 29.0491 60.6561C25.9957 54.9831 26.1806 46.8419 31.326 43.7651C34.2248 41.9689 37.747 41.7776 41.7906 43.2006C43.6385 43.8679 45.4371 44.8545 47.1384 46.1336C47.1799 46.1636 47.2197 46.1937 47.2596 46.2253C50.1871 48.4515 52.6968 51.4983 54.3167 54.7934C54.3391 54.8361 54.363 54.8851 54.3853 54.9325L54.4172 54.9973C55.6816 57.6346 56.3497 60.3668 56.3497 62.9013C56.364 63.6176 56.3162 64.3259 56.2078 65.0058C55.849 67.2447 54.8573 69.1989 53.3377 70.6536C51.6795 72.2442 49.5094 73.1169 47.0603 73.1786C47.0571 73.1786 47.0555 73.1786 47.0523 73.1786L47.0539 73.1802ZM45.2043 66.6438C46.2312 67.7996 46.9279 69.2685 47.2181 70.8907C47.3154 71.4236 47.368 71.9738 47.3744 72.5335C49.5253 72.4102 51.4291 71.607 52.8961 70.1998C54.3151 68.84 55.2431 67.0107 55.5796 64.9062C55.6832 64.2627 55.7279 63.5923 55.7135 62.9108V62.9045C55.7135 60.4633 55.0677 57.8244 53.8432 55.2724L53.8113 55.2076C53.7906 55.1649 53.7698 55.1207 53.7475 55.078C52.1674 51.862 49.7231 48.8958 46.8626 46.7202C46.8227 46.687 46.7908 46.6648 46.7605 46.6427C45.1023 45.3968 43.3611 44.4402 41.5753 43.7967C37.7262 42.4433 34.389 42.614 31.6593 44.3058C29.3855 45.6656 27.9936 48.2222 27.7337 51.5062C27.5057 54.3965 28.1849 57.6552 29.553 60.2514L41.7842 64.4066C43.1108 64.8398 44.2524 65.5829 45.174 66.6154C45.1836 66.6249 45.1932 66.6359 45.2011 66.6454L45.2043 66.6438Z" fill="black"/>
</g>
<g id="Group_5">
<path id="Vector_7" d="M44.9428 66.8303C44.0738 65.8817 42.9625 65.1401 41.6821 64.7053C43.0024 65.137 44.0962 65.8817 44.9428 66.8303Z" fill="white"/>
<path id="Vector_8" d="M44.9428 67.1466C44.8567 67.1466 44.769 67.1119 44.7068 67.0423C43.857 66.1158 42.7759 65.4106 41.5785 65.0042C41.4127 64.9473 41.3234 64.7686 41.3792 64.6042C41.435 64.4398 41.6136 64.3497 41.781 64.405C43.114 64.8398 44.2572 65.5861 45.1804 66.6201C45.2968 66.7498 45.2856 66.949 45.1549 67.0644C45.0943 67.1182 45.0178 67.1451 44.9428 67.1451V67.1466Z" fill="black"/>
</g>
<g id="Group_6">
<path id="Vector_9" d="M47.054 72.8641C47.011 72.6032 46.9887 72.3376 46.9903 72.0688C46.9903 71.6893 46.9616 71.3146 46.9058 70.9478C47.0206 71.5723 47.07 72.2158 47.0556 72.8641H47.054Z" fill="white"/>
<path id="Vector_10" d="M47.0539 73.1802C46.8977 73.1802 46.7637 73.068 46.7398 72.9146C46.6936 72.6316 46.6697 72.347 46.6713 72.0671C46.6713 71.7098 46.6441 71.3477 46.5899 70.9951C46.5644 70.8244 46.6808 70.6647 46.853 70.6362C47.0252 70.6077 47.1879 70.7216 47.2197 70.8908C47.3377 71.5311 47.3904 72.1968 47.3744 72.8703C47.3712 73.0427 47.2293 73.1802 47.0555 73.1802H47.0539Z" fill="black"/>
</g>
<g id="Group_7">
<path id="Vector_11" d="M110.085 70.252V110.871C110.085 110.871 110.115 126.513 102.779 135.595C102.779 135.595 96.9659 143.45 90.859 145.542C90.859 145.542 89.8689 145.899 88.7033 145.481L88.6252 145.453C88.5725 145.432 88.5199 145.41 88.4673 145.387C88.3605 145.339 88.2536 145.285 88.1468 145.224C88.1086 145.202 88.0719 145.18 88.0336 145.156C88.0097 145.142 87.9858 145.127 87.9619 145.11C87.9332 145.091 87.9029 145.07 87.8742 145.05C87.8455 145.031 87.8152 145.01 87.7865 144.987C87.6908 144.917 87.5967 144.84 87.5011 144.756C87.45 144.71 87.399 144.662 87.3496 144.612C87.3209 144.583 87.2922 144.555 87.2635 144.525C87.222 144.482 87.1822 144.438 87.1423 144.392C87.1295 144.379 87.1184 144.367 87.1072 144.353C87.0865 144.329 87.0658 144.305 87.0466 144.281C86.9972 144.221 86.9478 144.16 86.8983 144.095C86.8649 144.052 86.833 144.008 86.8011 143.962C86.6751 143.787 86.5539 143.592 86.436 143.379C86.3897 143.293 86.3435 143.206 86.2972 143.115C86.1155 142.751 85.9464 142.337 85.7934 141.864C85.7742 141.805 85.7551 141.745 85.7376 141.685C85.72 141.631 85.7041 141.576 85.6865 141.519C85.6865 141.513 85.685 141.507 85.6818 141.5C85.6467 141.375 85.6116 141.247 85.5781 141.114C85.5781 141.114 85.5781 141.111 85.5765 141.11C85.5654 141.065 85.5542 141.02 85.543 140.972C85.5271 140.907 85.5112 140.839 85.4968 140.771C85.4761 140.681 85.4553 140.59 85.4362 140.495C85.4346 140.491 85.4346 140.488 85.4346 140.485C85.4139 140.392 85.3964 140.299 85.3788 140.202C85.3756 140.191 85.374 140.18 85.3724 140.169C85.3549 140.074 85.3374 139.979 85.3214 139.881C85.315 139.843 85.3087 139.805 85.3023 139.766C85.2768 139.612 85.2528 139.454 85.2321 139.291C85.221 139.211 85.2098 139.129 85.2002 139.045C85.1891 138.963 85.1795 138.879 85.1699 138.793C85.1604 138.708 85.1508 138.621 85.1428 138.534C85.1333 138.449 85.1253 138.363 85.1173 138.276C85.103 138.106 85.0886 137.932 85.0775 137.753C85.0711 137.658 85.0647 137.562 85.0583 137.465C85.0535 137.369 85.0488 137.271 85.044 137.171C85.036 137.007 85.0296 136.838 85.0232 136.667C85.0121 136.322 85.0073 135.965 85.0073 135.595V101.617C85.0073 99.4078 83.6042 97.4393 81.5042 96.7009L43.5765 83.361C43.5143 83.3389 43.4521 83.3151 43.3899 83.2914C43.3293 83.2677 43.2687 83.2424 43.2082 83.2155C42.7346 83.0052 42.3025 82.727 41.9246 82.3965C41.9071 82.3791 41.8879 82.3617 41.8688 82.3443C41.8353 82.3159 41.8034 82.2858 41.7715 82.2542C41.7109 82.1973 41.6519 82.1372 41.5945 82.0755C41.5914 82.0724 41.5882 82.0692 41.585 82.0661C41.5276 82.006 41.4718 81.9427 41.4192 81.8795C41.3442 81.7941 41.2741 81.7056 41.2087 81.6139C40.8499 81.1237 40.5805 80.5687 40.413 79.9758C40.4035 79.9426 40.3939 79.9094 40.3859 79.8762C40.2584 79.3592 40.2058 78.8184 40.2185 78.2777C40.2201 78.2761 40.2201 78.2745 40.2185 78.273C40.1803 77.4698 40.0096 76.6697 39.7242 75.9155C39.7242 75.9108 39.7226 75.9076 39.7194 75.9044C39.029 74.0735 37.6068 72.5288 35.8353 71.6734C35.8241 71.6671 35.8114 71.6592 35.7939 71.6512C35.7859 71.6465 35.7763 71.6418 35.7667 71.6386C35.7636 71.637 35.7604 71.6354 35.7556 71.6323C35.7396 71.6244 35.7221 71.6165 35.7014 71.6086C35.6647 71.5927 35.6232 71.5753 35.577 71.5548C35.5483 71.5437 35.5196 71.5311 35.4877 71.52C35.4558 71.5074 35.4207 71.4947 35.3841 71.4805C35.3617 71.471 35.3394 71.4631 35.3171 71.4552C35.2788 71.441 35.239 71.4251 35.1975 71.4093C35.1385 71.3872 35.0763 71.3635 35.011 71.3398C34.9456 71.316 34.877 71.2923 34.8053 71.2655C34.7399 71.2417 34.6697 71.218 34.5996 71.1927C34.2919 71.0836 33.9459 70.9619 33.5807 70.837C33.4914 70.8053 33.4005 70.7753 33.3081 70.7437C33.1709 70.6963 33.0306 70.6488 32.8903 70.6014C32.7149 70.5413 32.5379 70.4812 32.3625 70.4227C32.2573 70.3864 32.1521 70.35 32.0468 70.3152C31.9767 70.2931 31.9081 70.2693 31.838 70.2456C31.6992 70.1982 31.5637 70.1523 31.4298 70.1081C31.3182 70.0701 31.2081 70.0322 31.0997 69.9974C31.0567 69.9832 31.0152 69.9689 30.9722 69.9547C30.851 69.9136 30.7346 69.8741 30.6214 69.8377C30.5098 69.7998 30.4029 69.7634 30.3025 69.7302C30.218 69.7001 30.1367 69.6733 30.0601 69.648C30.0139 69.6337 29.9676 69.6179 29.923 69.6021C29.6902 69.5231 29.5005 69.4582 29.3713 69.414C29.3378 69.4013 29.3075 69.3918 29.2836 69.3823C29.2709 69.3776 29.2581 69.3729 29.2485 69.3697L28.6379 69.1626L17.0779 65.2351C15.1422 64.5979 13.4632 63.6508 11.6392 65.077L17.9836 58.8663H17.9852C20.0086 56.7429 22.2201 58.1659 24.4444 58.8489C25.256 59.1351 28.5039 60.215 29.3314 60.5091L41.6822 64.7054C42.9626 65.1402 44.074 65.8818 44.9429 66.8304C44.9493 66.8367 44.9557 66.8431 44.9605 66.8494C45.9698 67.9846 46.6283 69.4124 46.9041 70.9476C46.96 71.3145 46.9887 71.6892 46.9887 72.0687C46.9871 72.3374 47.0094 72.6031 47.0524 72.864C47.3394 74.6285 48.5895 76.1606 50.3355 76.7662C50.5922 76.8563 52.2887 77.4539 54.8335 78.3489L55.4872 78.5797L56.1027 78.7963L57.407 79.2548L58.0894 79.4936L58.0958 79.4967L59.1609 79.8715L59.526 79.9995L60.2706 80.262L62.1999 80.9403L62.9956 81.2202L64.2106 81.6471C64.4816 81.7435 64.7559 81.84 65.0317 81.9364L88.2648 90.1076C90.3631 90.846 91.7663 92.8145 91.7663 95.0217C91.7663 95.0217 91.7663 117.478 91.7647 120.459C91.8077 121.665 91.9018 122.71 92.0405 123.607C92.0597 123.735 92.0804 123.858 92.1027 123.98C92.1505 124.252 92.2032 124.511 92.2606 124.755C92.2813 124.848 92.3036 124.94 92.3275 125.03C92.4344 125.446 92.5539 125.819 92.6863 126.148C92.715 126.224 92.7469 126.298 92.7772 126.369C93.0148 126.91 93.2858 127.326 93.5856 127.637C93.6302 127.683 93.6765 127.727 93.7243 127.77H93.7259C93.796 127.835 93.8678 127.892 93.9395 127.944V127.945C93.989 127.98 94.0368 128.012 94.0862 128.042C94.0862 128.042 94.0868 128.042 94.0878 128.043C94.1373 128.073 94.1867 128.102 94.2377 128.126C94.2377 128.126 94.2382 128.126 94.2393 128.127C94.2903 128.152 94.3414 128.175 94.3924 128.195C94.4195 128.206 94.445 128.216 94.4721 128.227C94.5949 128.271 94.7192 128.303 94.8452 128.322C95.3028 128.394 95.7907 128.322 96.2898 128.135C96.4381 128.08 96.5864 128.015 96.7362 127.939C96.8128 127.901 96.8877 127.862 96.9627 127.82C97.2369 127.669 97.5128 127.487 97.7886 127.283C97.8604 127.229 97.9305 127.175 98.0023 127.12C98.1059 127.036 98.2111 126.951 98.3148 126.862C98.3515 126.832 98.3865 126.801 98.4232 126.771C98.4918 126.71 98.5603 126.65 98.6273 126.587C98.8378 126.396 99.045 126.195 99.2491 125.985C99.3831 125.847 99.517 125.705 99.6478 125.561C99.6812 125.523 99.7147 125.487 99.7498 125.449C99.8471 125.338 99.9427 125.227 100.038 125.115C100.136 125.001 100.231 124.886 100.327 124.77C100.389 124.695 100.45 124.617 100.51 124.541C100.788 124.192 101.051 123.834 101.3 123.479C101.343 123.417 101.387 123.354 101.43 123.291C101.467 123.235 101.505 123.18 101.542 123.125C103.577 120.35 103.326 110.825 103.326 110.825C103.313 108.423 103.358 85.652 103.299 79.2849L103.321 79.2975C103.321 78.8849 103.307 78.4927 103.283 78.1196C103.282 78.1149 103.282 78.1101 103.282 78.1038C103.278 77.9362 103.275 77.8113 103.27 77.7338L103.245 77.6706C102.963 74.7676 101.945 73.1723 101.088 72.3264L101.134 72.2884L101.178 72.2489L101.247 72.192L101.287 72.1588C101.343 72.1129 101.41 72.0576 101.485 71.9943L101.802 71.7303L102.022 71.5485L102.098 71.4836L102.208 71.3935C102.229 71.3745 102.271 71.3398 102.328 71.2923C102.357 71.2686 102.389 71.2417 102.424 71.2133C102.462 71.1817 102.503 71.1453 102.55 71.1073C102.58 71.082 102.61 71.0567 102.642 71.0299C102.706 70.9777 102.776 70.9192 102.851 70.8591C102.878 70.8338 102.907 70.8101 102.937 70.7864C102.982 70.7468 103.031 70.7073 103.079 70.6662C103.117 70.6346 103.156 70.603 103.195 70.5713C103.195 70.5682 103.2 70.5666 103.202 70.565C103.243 70.5302 103.285 70.4954 103.328 70.4607C103.623 70.2156 103.937 69.9531 104.221 69.7175C104.259 69.6859 104.297 69.6559 104.332 69.6258C104.336 69.6227 104.339 69.6195 104.34 69.6179C104.361 69.6021 104.38 69.5847 104.399 69.5689L104.457 69.5215C104.485 69.4978 104.516 69.4725 104.543 69.4503C104.559 69.4361 104.573 69.425 104.587 69.414C104.602 69.4013 104.615 69.3902 104.627 69.3808C104.651 69.3602 104.674 69.3412 104.696 69.3238C104.713 69.308 104.729 69.2954 104.745 69.2812C104.756 69.2732 104.766 69.2638 104.777 69.2559C104.782 69.2511 104.788 69.2464 104.793 69.2416C104.922 69.1562 105.042 69.0582 105.147 68.9475C105.149 68.9475 105.15 68.9428 105.15 68.9428H105.152C105.209 68.8811 105.263 68.8195 105.311 68.7578C105.35 68.7104 105.383 68.6645 105.415 68.6187C105.448 68.5728 105.477 68.527 105.504 68.4811C105.541 68.421 105.574 68.3594 105.603 68.2993C106.19 67.0723 105.249 65.9134 104.64 64.6532L106.584 65.3378C108.682 66.0762 110.084 68.0447 110.084 70.252H110.085Z" fill="#EBECEE"/>
<path id="Vector_12" d="M89.8816 146C89.5085 146 89.0652 145.946 88.5949 145.779L88.5151 145.75C88.4498 145.725 88.3924 145.701 88.335 145.674C88.2154 145.621 88.0974 145.562 87.9858 145.497C87.9443 145.474 87.9044 145.45 87.8646 145.425C87.8327 145.406 87.804 145.387 87.7737 145.366C87.753 145.352 87.7179 145.33 87.686 145.306C87.6605 145.29 87.6254 145.265 87.5887 145.236C87.4947 145.168 87.3958 145.088 87.2874 144.993C87.2284 144.941 87.1726 144.889 87.1184 144.832C87.0913 144.805 87.061 144.775 87.0307 144.743C86.9876 144.699 86.9462 144.655 86.9063 144.607C86.8904 144.59 86.8744 144.572 86.8601 144.555C86.8393 144.53 86.817 144.506 86.7979 144.481C86.7469 144.419 86.6958 144.354 86.6432 144.286C86.6081 144.242 86.5731 144.193 86.538 144.142C86.4088 143.962 86.2829 143.761 86.1553 143.532C86.1059 143.442 86.0581 143.352 86.0102 143.257C85.8157 142.868 85.6403 142.433 85.4872 141.962C85.4681 141.902 85.4474 141.837 85.4282 141.774C85.4203 141.747 85.4091 141.711 85.3963 141.673L85.3788 141.613C85.3756 141.605 85.374 141.595 85.3724 141.587C85.3724 141.587 85.3724 141.587 85.3724 141.586C85.3373 141.462 85.3039 141.336 85.2704 141.205C85.2688 141.198 85.2672 141.194 85.2656 141.187C85.2544 141.141 85.2433 141.094 85.2305 141.045C85.2146 140.98 85.1986 140.909 85.1827 140.838C85.162 140.749 85.1412 140.656 85.1221 140.558C85.1221 140.558 85.1221 140.552 85.1205 140.547C85.0998 140.455 85.0822 140.363 85.0663 140.27C85.0615 140.251 85.0583 140.232 85.0567 140.215C85.0408 140.128 85.0232 140.031 85.0073 139.933L84.9882 139.818C84.9626 139.663 84.9371 139.5 84.9164 139.333C84.9053 139.254 84.8941 139.168 84.8845 139.081C84.8734 139.004 84.8638 138.917 84.8542 138.83C84.8447 138.741 84.8351 138.653 84.8271 138.564C84.8176 138.483 84.8096 138.395 84.8016 138.306C84.7873 138.131 84.7729 137.955 84.7617 137.774L84.7283 137.187C84.7203 137.021 84.7139 136.852 84.7075 136.679C84.6964 136.346 84.6916 135.992 84.6916 135.596V101.618C84.6916 99.5485 83.3698 97.6923 81.4006 96.9997L43.4728 83.6598C43.4075 83.6361 43.3421 83.6124 43.2783 83.5871C43.2113 83.5602 43.146 83.5334 43.0806 83.5049C42.5831 83.2835 42.1239 82.991 41.7157 82.6337C41.7109 82.629 41.7062 82.6258 41.7014 82.621C41.6886 82.6084 41.6743 82.5942 41.6599 82.5815C41.6248 82.5515 41.5866 82.5151 41.5483 82.4788C41.4877 82.4218 41.4239 82.357 41.3617 82.2906C41.2932 82.2194 41.2326 82.1499 41.1752 82.0819C41.0987 81.9949 41.0221 81.8969 40.9504 81.7973C40.5709 81.2787 40.2871 80.6937 40.1085 80.0628C40.0973 80.0264 40.0878 79.9901 40.0782 79.9521C39.9474 79.424 39.8885 78.8627 39.9012 78.2793C39.8645 77.5204 39.7051 76.7646 39.4308 76.0341C39.4277 76.0278 39.4261 76.0215 39.4229 76.0151C38.7612 74.2601 37.4027 72.7818 35.6982 71.958C35.6918 71.9548 35.6854 71.9517 35.679 71.9469L35.6631 71.9374C35.6631 71.9374 35.6519 71.9327 35.6472 71.9295C35.6408 71.9264 35.6344 71.9232 35.628 71.92C35.6232 71.9185 35.6169 71.9137 35.6105 71.9106C35.6041 71.9074 35.5977 71.9058 35.5913 71.9027L35.4303 71.8347C35.416 71.8283 35.4016 71.8236 35.3873 71.8173L35.274 71.7746C35.2501 71.7651 35.2342 71.7588 35.2182 71.754L35.0397 71.686C34.9966 71.6702 34.952 71.6528 34.9073 71.637L34.8324 71.6101C34.7893 71.5943 34.7431 71.5785 34.6968 71.5611L34.4959 71.49C34.1898 71.3809 33.8454 71.2607 33.4819 71.1358C33.4197 71.1137 33.3607 71.0931 33.3001 71.0726L33.2092 71.0425C33.0721 70.9951 32.9318 70.9477 32.793 70.9002C32.6176 70.8401 32.4407 70.7801 32.2669 70.7216C32.16 70.6852 32.0548 70.6488 31.9512 70.614C31.8985 70.5982 31.8427 70.5793 31.7869 70.5603L31.7407 70.5445C31.602 70.497 31.4664 70.4512 31.3341 70.4069L31.2719 70.3864C31.1826 70.3563 31.0949 70.3263 31.0072 70.2978L30.8765 70.2551C30.7537 70.214 30.6405 70.1745 30.5289 70.1381C30.4125 70.0986 30.3073 70.0622 30.2068 70.029C30.1175 69.9974 30.0394 69.9705 29.9644 69.9468C29.9198 69.9326 29.8688 69.9168 29.8209 69.8994L29.2246 69.6954C29.2055 69.6891 29.1879 69.6828 29.172 69.6764L29.1545 69.6701L16.9806 65.5339C16.7048 65.4422 16.429 65.3442 16.1643 65.2493C14.6097 64.6912 13.2687 64.2105 11.8432 65.3252C11.7109 65.4296 11.518 65.4122 11.4064 65.2857C11.2947 65.1608 11.3011 64.9695 11.4207 64.8509L17.7651 58.6402C17.7651 58.6402 17.7731 58.6323 17.7779 58.6276C19.5844 56.7508 21.5169 57.4592 23.3856 58.1438C23.7667 58.2829 24.1606 58.4268 24.5448 58.5454C24.9419 58.6845 25.8666 58.996 26.8457 59.3264C27.9092 59.6854 29.0094 60.0553 29.4446 60.2103L41.7907 64.405C43.0886 64.8461 44.2621 65.6098 45.1837 66.617C45.1885 66.6217 45.1981 66.6328 45.2092 66.6439C46.2361 67.7997 46.9312 69.2685 47.223 70.8907C47.2836 71.2829 47.3123 71.6766 47.3123 72.0671C47.3123 72.3137 47.3315 72.5636 47.3713 72.8118C47.6424 74.4783 48.8494 75.9139 50.4455 76.4673L58.201 79.1948C58.201 79.1948 58.2153 79.1995 58.2217 79.2027L64.3222 81.3482C64.5932 81.4447 64.8675 81.5411 65.1433 81.6376L88.3764 89.8088C90.5975 90.5899 92.09 92.6849 92.09 95.0202C92.09 95.0202 92.09 117.477 92.09 120.457C92.1314 121.611 92.2223 122.658 92.3626 123.558C92.3817 123.684 92.4025 123.804 92.4232 123.921C92.471 124.192 92.5221 124.446 92.5779 124.682C92.5986 124.774 92.6193 124.862 92.6432 124.948C92.7469 125.352 92.8633 125.714 92.9892 126.029C93.0163 126.1 93.0434 126.163 93.069 126.225L93.0769 126.244C93.2906 126.729 93.5409 127.125 93.8216 127.416C93.8598 127.455 93.9013 127.495 93.9427 127.531C93.9459 127.534 93.9491 127.537 93.9523 127.539C94.0081 127.59 94.0671 127.637 94.1341 127.684C94.1341 127.684 94.1373 127.688 94.1404 127.689C94.1803 127.718 94.2202 127.743 94.2616 127.768C94.2616 127.768 94.2712 127.775 94.2744 127.778C94.3095 127.798 94.3445 127.819 94.3812 127.836C94.3892 127.839 94.3972 127.844 94.4051 127.849C94.4434 127.868 94.4817 127.884 94.5199 127.899L94.6013 127.933C94.6905 127.964 94.7958 127.991 94.901 128.007C95.2885 128.069 95.719 128.012 96.1846 127.838C96.3233 127.786 96.462 127.726 96.5975 127.656C96.6725 127.618 96.7442 127.582 96.8144 127.542C97.0615 127.405 97.3278 127.232 97.6036 127.028C97.6722 126.976 97.7424 126.924 97.8125 126.869C97.9082 126.791 98.0118 126.707 98.1123 126.62L98.1649 126.576C98.184 126.559 98.2048 126.541 98.2255 126.526C98.2829 126.475 98.3483 126.418 98.412 126.356C98.6193 126.167 98.825 125.969 99.0243 125.763C99.1567 125.627 99.2874 125.488 99.4166 125.348C99.4484 125.311 99.4835 125.273 99.5202 125.234C99.6127 125.129 99.7068 125.02 99.8008 124.91C99.8965 124.797 99.9906 124.685 100.085 124.571C100.129 124.517 100.171 124.464 100.212 124.412L100.266 124.344C100.52 124.024 100.781 123.672 101.045 123.297L101.064 123.27C101.1 123.218 101.137 123.164 101.174 123.112L101.284 122.949C103.24 120.28 103.018 110.926 103.015 110.831C103.011 110.049 103.014 107.103 103.015 103.373C103.02 95.4977 103.028 83.5966 102.988 79.2849C102.988 79.2438 102.996 79.2043 103.011 79.1663C103.009 78.8327 102.996 78.5007 102.974 78.1544C102.971 78.1338 102.971 78.1164 102.971 78.1006C102.967 77.9757 102.966 77.873 102.963 77.7986L102.956 77.7844C102.945 77.756 102.937 77.7275 102.936 77.6974C102.658 74.8514 101.66 73.3257 100.871 72.5478C100.807 72.4845 100.773 72.3975 100.777 72.309C100.78 72.2205 100.823 72.1367 100.891 72.0797L101.089 71.9137C101.147 71.8679 101.212 71.8125 101.285 71.7509L101.992 71.1643C101.992 71.1643 102.003 71.1532 102.009 71.1485C102.03 71.1311 102.073 71.0947 102.132 71.0473L102.277 70.9271C102.301 70.9066 102.328 70.8844 102.355 70.8607L102.51 70.7326C102.554 70.6963 102.601 70.6567 102.65 70.6188C102.679 70.5919 102.709 70.5666 102.741 70.5429C102.767 70.5192 102.795 70.497 102.822 70.4733L102.878 70.4259C102.918 70.3927 102.953 70.3642 102.99 70.3342C102.995 70.331 102.998 70.3263 103.003 70.3231C103.046 70.2852 103.089 70.2504 103.133 70.214L104.069 69.4361C104.087 69.4219 104.106 69.4077 104.122 69.3918C104.131 69.3839 104.141 69.3744 104.151 69.3665C104.159 69.3602 104.167 69.3523 104.174 69.346L104.345 69.2053C104.356 69.1958 104.372 69.1831 104.388 69.1689C104.402 69.1563 104.417 69.1452 104.43 69.1341C104.454 69.1136 104.476 69.0962 104.497 69.0788L104.535 69.0456C104.544 69.0361 104.554 69.0282 104.565 69.0219C104.568 69.0187 104.572 69.0155 104.576 69.0124C104.578 69.0108 104.579 69.0092 104.581 69.0076C104.595 68.9934 104.603 68.9887 104.621 68.976C104.729 68.9049 104.825 68.8258 104.908 68.7404C104.917 68.7278 104.929 68.7167 104.94 68.7072C104.989 68.6535 105.031 68.606 105.064 68.5618C105.101 68.5159 105.131 68.4764 105.158 68.4353C105.19 68.3926 105.212 68.3546 105.235 68.3167C105.268 68.2629 105.295 68.2107 105.321 68.1586C105.723 67.319 105.273 66.4937 104.752 65.5371C104.619 65.2936 104.482 65.0422 104.358 64.7845C104.302 64.669 104.323 64.5315 104.409 64.4366C104.495 64.3418 104.63 64.307 104.753 64.3497L106.697 65.0343C108.916 65.8154 110.409 67.9103 110.409 70.2456V110.865C110.409 111.021 110.355 126.722 103.033 135.786C103.026 135.796 101.548 137.783 99.34 140C96.3631 142.988 93.5473 144.95 90.9674 145.834C90.9419 145.844 90.513 145.994 89.8848 145.994L89.8816 146ZM85.9991 141.45L86.0118 141.491C86.0214 141.524 86.0309 141.556 86.0421 141.587C86.0612 141.654 86.0804 141.711 86.0979 141.766C86.2414 142.209 86.4041 142.615 86.5842 142.974C86.6289 143.062 86.6735 143.146 86.7182 143.228C86.8314 143.431 86.9462 143.617 87.0626 143.779C87.0945 143.823 87.1216 143.862 87.1519 143.9C87.2013 143.965 87.2491 144.024 87.2954 144.081C87.3145 144.103 87.332 144.125 87.3496 144.145C87.3528 144.15 87.3575 144.155 87.3607 144.16C87.3671 144.166 87.3799 144.18 87.3847 144.187C87.4213 144.228 87.4564 144.269 87.4947 144.307C87.5218 144.335 87.5489 144.362 87.576 144.389C87.6238 144.438 87.6701 144.481 87.7163 144.522C87.8104 144.604 87.8965 144.674 87.9762 144.732C87.981 144.735 87.9858 144.74 87.9906 144.743C88.0097 144.759 88.0304 144.773 88.0511 144.786C88.0878 144.811 88.1149 144.83 88.1404 144.846C88.1659 144.863 88.1803 144.873 88.1946 144.881C88.2393 144.908 88.2728 144.928 88.3094 144.949C88.4019 145.002 88.4976 145.05 88.5996 145.096C88.6491 145.118 88.6953 145.138 88.7431 145.156L88.8149 145.181C89.8481 145.551 90.7442 145.244 90.7538 145.241C96.698 143.205 102.467 135.483 102.524 135.405C109.715 126.502 109.768 111.024 109.768 110.869V70.2504C109.768 68.1807 108.446 66.3261 106.48 65.6335L105.299 65.2177C105.299 65.2177 105.307 65.2319 105.311 65.2398C105.863 66.2549 106.435 67.3048 105.895 68.4337C105.861 68.5048 105.823 68.576 105.78 68.644C105.75 68.6946 105.716 68.7483 105.676 68.8037C105.645 68.8495 105.606 68.9017 105.563 68.9555C105.517 69.014 105.46 69.0819 105.389 69.1578C105.386 69.161 105.383 69.1642 105.38 69.1689C105.268 69.2859 105.139 69.395 104.994 69.4915C104.984 69.4994 104.975 69.5073 104.965 69.5152C104.962 69.5183 104.956 69.5231 104.949 69.5278L104.914 69.5579C104.914 69.5579 104.903 69.5673 104.897 69.5721C104.878 69.5863 104.86 69.6021 104.839 69.6195C104.833 69.6243 104.827 69.6306 104.82 69.6353C104.815 69.6401 104.809 69.6448 104.803 69.6511C104.796 69.6559 104.792 69.6606 104.785 69.6654C104.777 69.6717 104.768 69.678 104.758 69.6875L104.589 69.8282C104.578 69.8377 104.567 69.8472 104.554 69.8583C104.549 69.863 104.546 69.8662 104.543 69.8678C104.519 69.8883 104.495 69.9073 104.469 69.9278L103.535 70.7042C103.494 70.7374 103.457 70.769 103.42 70.799C103.412 70.8054 103.406 70.8133 103.398 70.8196C103.36 70.8496 103.323 70.8797 103.286 70.9113L103.227 70.9619C103.202 70.9824 103.176 71.0046 103.154 71.0251C103.149 71.0299 103.143 71.0346 103.138 71.0378C103.116 71.0552 103.093 71.0726 103.074 71.0915C103.068 71.0979 103.062 71.1026 103.057 71.1074C103.007 71.1469 102.959 71.1864 102.913 71.2244L102.76 71.3524C102.733 71.3746 102.711 71.3935 102.688 71.4125L102.438 71.6212C102.438 71.6212 102.424 71.6339 102.416 71.6402L101.693 72.2394C101.644 72.2805 101.598 72.3201 101.555 72.3549C102.366 73.2608 103.288 74.8641 103.562 77.5978L103.57 77.6184C103.583 77.65 103.591 77.6832 103.592 77.7164C103.597 77.7955 103.6 77.9204 103.604 78.088C103.604 78.0927 103.604 78.0975 103.604 78.1022C103.629 78.5133 103.642 78.9038 103.642 79.3007C103.642 79.3402 103.634 79.3782 103.621 79.4145C103.659 83.8338 103.653 95.5799 103.647 103.38C103.645 107.108 103.642 110.053 103.647 110.827C103.656 111.214 103.876 120.484 101.802 123.314L101.7 123.468C101.66 123.528 101.62 123.583 101.582 123.637L101.564 123.662C101.295 124.046 101.025 124.41 100.764 124.74L100.71 124.808C100.667 124.864 100.622 124.919 100.577 124.974C100.478 125.095 100.381 125.21 100.284 125.324C100.188 125.438 100.091 125.548 99.9922 125.661C99.9539 125.703 99.922 125.737 99.8901 125.773C99.753 125.923 99.6175 126.069 99.4803 126.208C99.2715 126.423 99.0578 126.63 98.8441 126.824C98.7788 126.886 98.707 126.949 98.6353 127.012L98.5795 127.06C98.5603 127.077 98.5396 127.093 98.5189 127.111C98.4184 127.196 98.31 127.284 98.2048 127.37C98.1266 127.43 98.0549 127.485 97.9815 127.541C97.6818 127.762 97.3916 127.952 97.1189 128.102C97.0392 128.146 96.9595 128.187 96.8798 128.227C96.7251 128.306 96.564 128.377 96.403 128.435C95.8322 128.649 95.2917 128.717 94.7958 128.638C94.6523 128.616 94.5056 128.579 94.3637 128.527L94.2712 128.491C94.2138 128.469 94.1564 128.442 94.0974 128.413C94.0926 128.41 94.0878 128.409 94.083 128.405C94.0209 128.375 93.9651 128.342 93.922 128.317C93.9172 128.314 93.9108 128.311 93.9061 128.307C93.855 128.276 93.8072 128.244 93.7562 128.208C93.7498 128.203 93.745 128.2 93.7402 128.195C93.6573 128.135 93.5824 128.073 93.5106 128.01C93.5074 128.007 93.5042 128.005 93.5027 128.002C93.4516 127.956 93.4038 127.911 93.356 127.862C93.0227 127.514 92.7293 127.057 92.4838 126.5L92.4742 126.476C92.4455 126.407 92.4152 126.336 92.3865 126.263C92.2526 125.931 92.1282 125.54 92.0166 125.112C91.9927 125.02 91.9688 124.924 91.948 124.827C91.8906 124.585 91.8364 124.318 91.787 124.038C91.7647 123.915 91.7439 123.789 91.7232 123.657C91.5813 122.736 91.4872 121.664 91.4442 120.475C91.4442 117.483 91.4442 95.0265 91.4442 95.0265C91.4442 92.9584 90.1224 91.1022 88.1548 90.4096L64.9217 82.2384C64.6459 82.142 64.3716 82.0455 64.099 81.9491L57.9857 79.7988C57.9857 79.7988 57.9714 79.794 57.965 79.7909L50.2254 77.0682C48.3854 76.4294 47.046 74.8388 46.7335 72.9177C46.6873 72.6363 46.6634 72.3501 46.665 72.0703C46.665 71.7129 46.6379 71.3508 46.5837 70.9983C46.3142 69.4962 45.6668 68.1317 44.7165 67.0613C44.7149 67.0597 44.7133 67.0581 44.7117 67.0565C44.7085 67.0534 44.7038 67.0486 44.7022 67.047C43.8523 66.1205 42.7713 65.4153 41.5738 65.009L29.223 60.8127C28.7877 60.6578 27.6907 60.2878 26.6288 59.9304C25.6482 59.6 24.7202 59.2885 24.3328 59.1509C23.9453 59.0324 23.5435 58.8853 23.1544 58.743C21.3192 58.071 19.7343 57.4908 18.2116 59.0877C18.202 59.0972 18.1924 59.1067 18.1829 59.1146L13.1316 64.0587C14.2142 63.8864 15.2714 64.2659 16.3684 64.6596C16.6299 64.7528 16.9009 64.8509 17.172 64.9394L29.3458 69.0756C29.3554 69.0788 29.3729 69.0851 29.3904 69.0914L29.5005 69.131L30.0203 69.308C30.0649 69.3239 30.1064 69.3381 30.1478 69.3507C30.2339 69.3792 30.3168 69.4061 30.4029 69.4377C30.497 69.4693 30.6054 69.5057 30.717 69.5436C30.8271 69.5784 30.945 69.6195 31.0678 69.6606L31.1922 69.7017C31.2815 69.7302 31.3724 69.7618 31.4664 69.7934L31.5254 69.814C31.6578 69.8583 31.7949 69.9041 31.9336 69.9516L31.9799 69.9674C32.0309 69.9848 32.0835 70.0022 32.1345 70.0195C32.2461 70.0559 32.353 70.0923 32.4582 70.1302C32.6304 70.1887 32.809 70.2488 32.9844 70.3089C33.1247 70.3563 33.265 70.4038 33.4021 70.4512L33.4898 70.4812C33.5536 70.5018 33.6158 70.5239 33.678 70.5461C34.0415 70.671 34.3875 70.7927 34.6968 70.9018L34.9041 70.9745C34.9504 70.9919 34.9918 71.0062 35.0317 71.0204L35.1098 71.0489C35.1576 71.0662 35.2055 71.0836 35.2501 71.101L35.4175 71.1659C35.4447 71.1753 35.4702 71.1848 35.4973 71.1959L35.5945 71.2323C35.6073 71.237 35.6328 71.2465 35.6567 71.256L35.8178 71.324C35.8353 71.3303 35.8624 71.3429 35.8863 71.354C35.8895 71.354 35.8911 71.3572 35.8943 71.3572C35.907 71.3619 35.9182 71.3682 35.9294 71.3746C35.9469 71.3825 35.9613 71.392 35.974 71.3983C37.8172 72.2916 39.2857 73.8917 40.0033 75.7906C40.0064 75.7969 40.008 75.8033 40.0112 75.8096C40.3126 76.6065 40.4864 77.4318 40.5262 78.2635C40.5262 78.273 40.5262 78.2809 40.5262 78.2904C40.5135 78.82 40.5677 79.3292 40.6841 79.8067C40.6921 79.8367 40.7 79.8667 40.708 79.8952C40.8659 80.4549 41.1178 80.9735 41.4542 81.4336C41.5148 81.519 41.5802 81.5996 41.6472 81.6771C41.6998 81.7404 41.7508 81.7989 41.8034 81.8542C41.8034 81.8542 41.8146 81.8653 41.8162 81.8669C41.8688 81.9238 41.923 81.9791 41.9788 82.0313C42.0107 82.0629 42.0362 82.0866 42.0633 82.1103C42.0665 82.1135 42.0761 82.1214 42.0793 82.1246C42.0968 82.1404 42.1127 82.1562 42.1303 82.172C42.489 82.4851 42.8908 82.7412 43.3277 82.9341C43.3835 82.9594 43.4409 82.9831 43.4967 83.0053C43.5541 83.0274 43.6147 83.0495 43.6737 83.0717L81.5999 96.4116C83.8226 97.1926 85.315 99.2876 85.315 101.626V135.604C85.315 135.993 85.3198 136.341 85.331 136.667C85.3373 136.834 85.3437 137.004 85.3517 137.166L85.3852 137.742C85.3963 137.919 85.4107 138.091 85.425 138.261C85.433 138.343 85.441 138.427 85.4506 138.51C85.4585 138.602 85.4681 138.686 85.4777 138.77C85.4872 138.852 85.4968 138.934 85.5064 139.013C85.5159 139.102 85.5271 139.181 85.5383 139.258C85.559 139.421 85.5829 139.574 85.6068 139.725L85.6259 139.84C85.6419 139.937 85.6578 140.028 85.6754 140.12C85.6754 140.125 85.677 140.133 85.6786 140.136C85.6786 140.136 85.6786 140.131 85.6754 140.126C85.6786 140.136 85.6802 140.147 85.6818 140.156C85.6977 140.248 85.7152 140.338 85.7344 140.427C85.7344 140.433 85.7376 140.439 85.7376 140.447C85.7567 140.537 85.7758 140.624 85.795 140.711C85.8093 140.781 85.8253 140.846 85.8396 140.907C85.8508 140.952 85.8603 140.993 85.8699 141.032C85.8699 141.037 85.8731 141.042 85.8747 141.046C85.9066 141.171 85.9385 141.292 85.9719 141.409C85.9783 141.424 85.9831 141.442 85.9863 141.458L85.9991 141.45ZM103.602 78.0959C103.602 78.0959 103.602 78.0959 103.602 78.0975C103.602 78.0975 103.602 78.0975 103.602 78.0959Z" fill="black"/>
</g>
<g id="Group_8">
<path id="Vector_13" d="M29.3702 69.4136C29.3371 69.4027 29.3073 69.3917 29.2837 69.3823C29.3073 69.3917 29.3371 69.4011 29.3702 69.4136Z" fill="#EBECEE"/>
<path id="Vector_14" d="M29.3713 69.7303C29.3378 69.7303 29.3043 69.7255 29.2709 69.7144C29.231 69.7018 29.1959 69.6876 29.1672 69.6765C29.0412 69.6275 28.9663 69.5089 28.9663 69.3824C28.9663 69.3429 28.9743 69.3049 28.9886 69.2654C29.054 69.1025 29.239 69.0235 29.4032 69.0883L29.4877 69.1184C29.6503 69.18 29.7333 69.3587 29.6743 69.52C29.628 69.6496 29.5052 69.7303 29.3745 69.7303H29.3713Z" fill="black"/>
</g>
<g id="Group_9">
<path id="Vector_15" d="M30.6214 69.8377C30.5098 69.8014 30.4029 69.765 30.3025 69.7302C30.4029 69.7634 30.5098 69.7998 30.6214 69.8377Z" fill="#EBECEE"/>
<path id="Vector_16" d="M30.6214 70.1538C30.5879 70.1538 30.5544 70.1491 30.5225 70.138C30.4093 70.1017 30.3009 70.0637 30.1988 70.0289C30.033 69.972 29.9453 69.7934 30.0027 69.6289C30.0585 69.4645 30.2387 69.3759 30.4061 69.4313C30.5066 69.4645 30.615 69.5008 30.7282 69.5404C30.894 69.5973 30.9833 69.776 30.9275 69.9404C30.8828 70.0732 30.7585 70.1554 30.6245 70.1554L30.6214 70.1538Z" fill="black"/>
</g>
<g id="Group_10">
<path id="Vector_17" d="M30.9721 69.9546C30.8509 69.9151 30.733 69.8756 30.6213 69.8376C30.7345 69.874 30.8509 69.9135 30.9721 69.9546Z" fill="#EBECEE"/>
<path id="Vector_18" d="M30.9721 70.2709C30.9386 70.2709 30.9051 70.2662 30.8732 70.2551C30.7505 70.2156 30.6309 70.1761 30.5193 70.1365C30.3534 70.0796 30.2658 69.9025 30.32 69.7381C30.3758 69.5736 30.5544 69.4835 30.7202 69.5373C30.835 69.5736 30.953 69.6148 31.0757 69.6559C31.2416 69.7128 31.3309 69.8915 31.2751 70.0559C31.2304 70.1887 31.106 70.2709 30.9721 70.2709Z" fill="black"/>
</g>
<g id="Group_11">
<path id="Vector_19" d="M40.3859 79.8763C40.2519 79.3641 40.1929 78.8249 40.2185 78.2778C40.2057 78.8186 40.2583 79.3593 40.3859 79.8763Z" fill="#EBECEE"/>
<path id="Vector_20" d="M40.3859 80.1925C40.244 80.1925 40.1148 80.0976 40.0782 79.9553C39.9331 79.4035 39.8741 78.8343 39.9012 78.2619C39.9091 78.0896 40.0542 77.9504 40.2312 77.9599C40.4066 77.9663 40.5437 78.1101 40.539 78.2841C40.5262 78.8137 40.5804 79.3229 40.6968 79.8004C40.7383 79.9695 40.6346 80.1403 40.4656 80.183C40.4401 80.1893 40.413 80.1925 40.3875 80.1925H40.3859Z" fill="black"/>
</g>
<g id="Group_12">
<path id="Vector_21" d="M43.2081 83.2155C42.7298 83.0084 42.2993 82.7317 41.9246 82.3965C42.3025 82.7269 42.7346 83.0052 43.2081 83.2155Z" fill="#EBECEE"/>
<path id="Vector_22" d="M43.2082 83.5317C43.1652 83.5317 43.1221 83.5238 43.0807 83.5048C42.5752 83.2866 42.1144 82.9925 41.711 82.6304C41.5803 82.5134 41.5707 82.3142 41.6871 82.1846C41.8035 82.0549 42.0044 82.0423 42.1351 82.1577C42.4955 82.4723 42.9005 82.73 43.3374 82.9261C43.4968 82.9972 43.5702 83.1838 43.4984 83.3419C43.4458 83.4605 43.3294 83.5301 43.2066 83.5301L43.2082 83.5317Z" fill="black"/>
</g>
<g id="Group_13">
<path id="Vector_23" d="M46.9041 70.9476C46.6283 69.4124 45.9698 67.9846 44.9604 66.8494C45.9921 67.9799 46.6793 69.4013 46.9041 70.9476Z" fill="#EBECEE"/>
<path id="Vector_24" d="M46.9042 71.2637C46.7527 71.2637 46.6188 71.1562 46.5901 71.0028C46.319 69.4929 45.6732 68.1284 44.7213 67.058C44.6049 66.9283 44.6177 66.7291 44.7484 66.6137C44.8792 66.4982 45.0801 66.5077 45.1981 66.6374C46.2903 67.8343 46.9887 69.3095 47.2215 70.9032C47.247 71.074 47.129 71.2337 46.9568 71.2606C46.9392 71.2637 46.9233 71.2653 46.9058 71.2653L46.9042 71.2637Z" fill="black"/>
</g>
<g id="Group_14">
<path id="Vector_25" d="M102.21 71.3918L102.1 71.4836C102.137 71.4535 102.173 71.4235 102.21 71.3918Z" fill="#EBECEE"/>
<path id="Vector_26" d="M102.1 71.7997C102.008 71.7997 101.917 71.7602 101.855 71.6859C101.743 71.5515 101.76 71.3523 101.896 71.24L101.91 71.2274C101.941 71.2037 101.969 71.1784 102 71.1531C102.094 71.0708 102.228 71.0519 102.341 71.1041C102.454 71.1562 102.527 71.2685 102.527 71.3918C102.527 71.4883 102.484 71.5768 102.411 71.6369L102.301 71.727C102.242 71.776 102.17 71.7997 102.098 71.7997H102.1Z" fill="black"/>
</g>
<g id="Group_15">
<path id="Vector_27" d="M103.323 79.2976L103.301 79.2849C103.296 78.7932 103.289 78.3979 103.285 78.1196C103.309 78.4928 103.323 78.8849 103.323 79.2976Z" fill="#EBECEE"/>
<path id="Vector_28" d="M103.323 79.6137C103.269 79.6137 103.215 79.5995 103.165 79.5726L103.143 79.5599C103.044 79.5046 102.983 79.4002 102.982 79.288C102.977 78.7978 102.971 78.4026 102.966 78.1259C102.963 77.9535 103.098 77.8112 103.272 77.8049C103.447 77.7986 103.593 77.9298 103.604 78.1006C103.629 78.5117 103.642 78.9022 103.642 79.2991C103.642 79.4113 103.581 79.5157 103.482 79.5726C103.433 79.6011 103.377 79.6153 103.323 79.6153V79.6137Z" fill="black"/>
</g>
<g id="Group_16">
<path id="Vector_29" d="M105.149 68.9475C105.043 69.0582 104.924 69.1562 104.795 69.2416C104.799 69.2369 104.806 69.2321 104.811 69.2289C104.823 69.2179 104.836 69.2068 104.847 69.1973C104.857 69.1894 104.866 69.1815 104.874 69.1752C104.881 69.1704 104.887 69.1641 104.894 69.1594C104.897 69.1562 104.902 69.1531 104.905 69.1499C104.914 69.142 104.924 69.1341 104.932 69.1278C104.941 69.1183 104.951 69.1119 104.96 69.104C104.964 69.1009 104.968 69.0977 104.972 69.0961C104.972 69.0961 104.98 69.0882 104.984 69.0835C104.986 69.0819 104.989 69.0787 104.991 69.0772C104.994 69.0756 104.997 69.0724 105 69.0693C105.01 69.0614 105.018 69.055 105.027 69.0471C105.053 69.025 105.075 69.0076 105.093 68.9934C105.109 68.9791 105.123 68.9681 105.133 68.9586C105.139 68.9538 105.144 68.9491 105.147 68.9475H105.149Z" fill="#EBECEE"/>
<path id="Vector_30" d="M104.795 69.5578C104.701 69.5578 104.608 69.5167 104.546 69.4392C104.442 69.3112 104.453 69.1278 104.573 69.0139C104.584 69.0029 104.598 68.9918 104.611 68.9823L104.675 68.9285C104.675 68.9285 104.685 68.9206 104.689 68.9159C104.689 68.9159 104.693 68.9127 104.694 68.9112C104.696 68.9112 104.697 68.908 104.701 68.9064L104.721 68.889C104.732 68.8795 104.744 68.87 104.755 68.8606C104.763 68.8542 104.769 68.8495 104.775 68.8432H104.779C104.785 68.8353 104.791 68.8289 104.799 68.8226L104.825 68.8021C104.842 68.7878 104.862 68.7704 104.879 68.7578L104.906 68.7356C104.919 68.723 104.933 68.7119 104.946 68.7009C104.965 68.6851 104.984 68.674 105.007 68.6629C105.145 68.5949 105.313 68.6345 105.405 68.7578C105.498 68.8811 105.488 69.0519 105.381 69.1626C105.263 69.2875 105.125 69.4013 104.972 69.5025C104.917 69.5389 104.855 69.5562 104.795 69.5562V69.5578ZM104.85 68.7941C104.819 68.81 104.796 68.8289 104.782 68.8416C104.803 68.8226 104.83 68.8052 104.85 68.7941Z" fill="black"/>
</g>
<g id="Group_17">
<path id="Vector_31" d="M105.313 68.7576C105.265 68.8192 105.211 68.8809 105.153 68.9426H105.152C105.209 68.8809 105.263 68.8192 105.313 68.7576Z" fill="#EBECEE"/>
<path id="Vector_32" d="M105.153 69.2589C105.027 69.2589 104.911 69.1846 104.86 69.0692C104.809 68.9537 104.831 68.8193 104.917 68.7276C104.97 68.6723 105.018 68.617 105.063 68.56C105.173 68.4241 105.37 68.4003 105.509 68.5079C105.648 68.6154 105.672 68.8114 105.565 68.949C105.515 69.0122 105.456 69.0802 105.386 69.1561C105.326 69.2209 105.241 69.2573 105.152 69.2573L105.153 69.2589Z" fill="black"/>
</g>
<path id="Vector_33" d="M71.3745 62.2404C71.3394 62.2404 71.3027 62.2341 71.2676 62.2215L66.6038 60.5819C66.438 60.5233 66.3503 60.3431 66.4093 60.1787C66.4683 60.0142 66.65 59.9273 66.8159 59.9858L71.4797 61.6254C71.6455 61.6839 71.7332 61.8641 71.6742 62.0286C71.628 62.1582 71.5052 62.2389 71.3745 62.2389V62.2404Z" fill="black"/>
<g id="Group_18">
<path id="Vector_34" d="M88.6251 145.453L14.7754 119.16C14.7754 119.16 10.3189 117.407 10.3189 108.89V67.79C10.3173 66.6674 10.845 65.7029 11.6391 65.0768C13.4632 63.6506 15.1421 64.5977 17.0778 65.2349L28.6378 69.1624L29.2485 69.3695C29.258 69.3727 29.2708 69.3774 29.2835 69.3822C29.3074 69.3917 29.3377 69.4012 29.3712 69.4138C29.5004 69.4581 29.6901 69.5229 29.9229 69.602C29.9676 69.6178 30.0138 69.6336 30.06 69.6478C30.1366 69.6731 30.2179 69.7 30.3024 69.73C30.4028 69.7632 30.5097 69.7996 30.6213 69.8375C30.7345 69.8739 30.8509 69.9134 30.9721 69.9546C31.0151 69.9688 31.0566 69.983 31.0996 69.9972C31.2081 70.0336 31.3165 70.07 31.4297 70.1079C31.5636 70.1522 31.6992 70.198 31.8379 70.2455C31.908 70.2692 31.9766 70.2929 32.0468 70.315C32.152 70.3498 32.2572 70.3862 32.3625 70.4226C32.5378 70.4811 32.7148 70.5411 32.8902 70.6012C33.0305 70.6487 33.1709 70.6961 33.308 70.7435C33.4005 70.7752 33.4913 70.8052 33.5806 70.8368C33.9458 70.9617 34.2918 71.0835 34.5995 71.1926C34.6697 71.2179 34.7398 71.2416 34.8052 71.2653C34.8769 71.2922 34.9455 71.3159 35.0109 71.3396C35.0763 71.3649 35.1384 71.387 35.1974 71.4092C35.2389 71.425 35.2788 71.4408 35.317 71.455C35.3393 71.4629 35.3617 71.4708 35.384 71.4803C35.4207 71.4946 35.4557 71.5072 35.4876 71.5199C35.5195 71.5325 35.5482 71.5452 35.5769 71.5546C35.6232 71.5752 35.6646 71.5926 35.7013 71.6084C35.722 71.6163 35.7396 71.6258 35.7555 71.6321C35.7603 71.6353 35.7635 71.6369 35.7667 71.6384C35.7762 71.6416 35.7858 71.6463 35.7938 71.6511C35.8113 71.659 35.8241 71.6669 35.8352 71.6732C37.6067 72.5286 39.029 74.0734 39.7194 75.9043C39.7226 75.9075 39.7241 75.9106 39.7241 75.9154C40.0096 76.6696 40.1802 77.4696 40.2184 78.2728C40.22 78.2744 40.22 78.276 40.2184 78.2776C40.2057 78.8183 40.2583 79.359 40.3859 79.8761C40.3938 79.9093 40.4034 79.9425 40.413 79.9757C40.5628 80.5385 40.8052 81.0714 41.1512 81.5378C41.1703 81.5631 41.1879 81.5884 41.2086 81.6137C41.274 81.7054 41.3441 81.794 41.4191 81.8793C41.4717 81.9426 41.5275 82.0058 41.5849 82.0659C41.5881 82.0691 41.5913 82.0722 41.5945 82.0754C41.6519 82.1371 41.7109 82.1971 41.7715 82.2541C41.8033 82.2857 41.8352 82.3157 41.8687 82.3442C41.8878 82.3616 41.907 82.379 41.9245 82.3964C42.3024 82.7268 42.7345 83.0051 43.2081 83.2154C43.2687 83.2423 43.3293 83.2676 43.3898 83.2913C43.452 83.315 43.5142 83.3387 43.5764 83.3608L81.5042 96.7007C83.6041 97.4391 85.0072 99.4076 85.0072 101.616V135.595C85.0072 135.965 85.012 136.322 85.0232 136.667C85.0295 136.837 85.0359 137.007 85.0439 137.171C85.0487 137.271 85.0535 137.369 85.0582 137.465C85.0646 137.562 85.071 137.658 85.0774 137.753C85.0885 137.932 85.1029 138.105 85.1172 138.276C85.1252 138.363 85.1332 138.449 85.1427 138.534C85.1507 138.622 85.1603 138.708 85.1699 138.793C85.1794 138.879 85.189 138.962 85.2001 139.045C85.2097 139.128 85.2209 139.211 85.232 139.291C85.2528 139.454 85.2767 139.612 85.3022 139.766C85.3086 139.805 85.315 139.843 85.3213 139.881C85.3373 139.979 85.3548 140.074 85.3724 140.169C85.3739 140.18 85.3755 140.191 85.3787 140.202C85.3963 140.298 85.4138 140.392 85.4345 140.485C85.4345 140.488 85.4345 140.491 85.4361 140.495C85.4553 140.588 85.4744 140.681 85.4967 140.771C85.5111 140.839 85.527 140.907 85.543 140.972C85.5541 141.019 85.5653 141.065 85.5764 141.11C85.578 141.111 85.578 141.113 85.578 141.114C85.6115 141.247 85.6466 141.375 85.6817 141.5C85.6849 141.506 85.6865 141.513 85.6865 141.519C85.704 141.576 85.7199 141.631 85.7375 141.685C85.755 141.745 85.7742 141.805 85.7933 141.864C85.9464 142.337 86.1154 142.751 86.2971 143.114C86.3434 143.206 86.3896 143.293 86.4359 143.378C86.5539 143.592 86.675 143.786 86.801 143.962C86.8329 144.008 86.8648 144.052 86.8983 144.095C86.9477 144.16 86.9971 144.221 87.0465 144.281C87.0657 144.305 87.0864 144.329 87.1071 144.352C87.1183 144.367 87.1295 144.379 87.1422 144.392C87.1821 144.438 87.2219 144.482 87.2634 144.525C87.2921 144.555 87.3208 144.583 87.3495 144.612C87.3989 144.662 87.45 144.71 87.501 144.756C87.5966 144.839 87.6907 144.917 87.7864 144.986C87.8151 145.01 87.8454 145.031 87.8741 145.05C87.9028 145.072 87.9331 145.091 87.9618 145.11C87.9857 145.127 88.0096 145.141 88.0335 145.156C88.0718 145.179 88.1085 145.201 88.1467 145.224C88.2536 145.285 88.3604 145.339 88.4672 145.386C88.5198 145.41 88.5725 145.432 88.6251 145.453Z" fill="white"/>
<path id="Vector_35" d="M88.6251 145.769C88.59 145.769 88.5534 145.763 88.5167 145.75L14.667 119.458C14.4677 119.38 10 117.523 10 108.89V67.7901C9.99841 66.6327 10.523 65.5528 11.4398 64.8287C13.1459 63.4958 14.7133 64.0587 16.3747 64.6548C16.6362 64.748 16.9073 64.8461 17.1783 64.9346L29.3521 69.0708C29.3617 69.074 29.3792 69.0803 29.3968 69.0866L29.5068 69.1262L30.0266 69.3032C30.0712 69.3191 30.1127 69.3333 30.1542 69.3459C30.2403 69.3744 30.3232 69.4013 30.4093 69.4329C30.5033 69.4645 30.6118 69.5009 30.7234 69.5388C30.8334 69.5736 30.9514 69.6147 31.0742 69.6558L31.5302 69.8092C31.6641 69.8535 31.8013 69.8993 31.94 69.9468L31.9862 69.9626C32.0372 69.98 32.0898 69.9974 32.1409 70.0147C32.2525 70.0511 32.3593 70.0875 32.4646 70.1254C32.6368 70.1839 32.8153 70.244 32.9907 70.3041C33.131 70.3515 33.2714 70.399 33.4085 70.4464L33.4962 70.4764C33.56 70.4986 33.6221 70.5191 33.6843 70.5413C34.0479 70.6662 34.3939 70.7879 34.7032 70.897L34.9105 70.9697C34.9567 70.9871 34.9982 71.0014 35.038 71.0156L35.1162 71.0441C35.1624 71.0614 35.2007 71.0757 35.2389 71.0899L35.4255 71.1611C35.4526 71.1705 35.4781 71.18 35.5052 71.1911L35.6328 71.2401C35.6471 71.2464 35.6599 71.2512 35.6742 71.2559C35.6838 71.2591 35.6934 71.2622 35.7029 71.267L35.8257 71.3192C35.8257 71.3192 35.848 71.3287 35.864 71.3366C35.8751 71.3413 35.8879 71.346 35.899 71.3524C35.9118 71.3571 35.9246 71.3634 35.9357 71.3698C35.9533 71.3777 35.9676 71.3872 35.982 71.3935C37.8252 72.2868 39.2921 73.8869 40.0112 75.7842C40.0144 75.7906 40.016 75.7969 40.0192 75.8032C40.3205 76.6001 40.4943 77.4254 40.5342 78.2571C40.5342 78.2666 40.5342 78.2745 40.5342 78.284C40.5214 78.8137 40.5756 79.3228 40.692 79.8003C40.7 79.8303 40.708 79.8588 40.716 79.8888C40.8642 80.4422 41.0954 80.9324 41.4048 81.3498L41.4223 81.3735C41.4319 81.3861 41.4414 81.4004 41.4526 81.413C41.4574 81.4193 41.4622 81.4241 41.4654 81.4304C41.5244 81.5126 41.5881 81.5933 41.6567 81.6707C41.7093 81.734 41.7603 81.7925 41.813 81.8478C41.813 81.8478 41.8241 81.8589 41.8257 81.8605C41.8783 81.9174 41.9325 81.9727 41.9883 82.0249C42.0202 82.0565 42.0457 82.0802 42.0729 82.104C42.076 82.1071 42.0856 82.115 42.0888 82.1182C42.1063 82.134 42.1239 82.1498 42.1398 82.1656C42.4986 82.4771 42.9004 82.7348 43.3357 82.9277C43.3915 82.953 43.4489 82.9767 43.5047 82.9989C43.5621 83.021 43.6227 83.0431 43.6817 83.0653L81.6078 96.4052C83.8305 97.1862 85.323 99.2812 85.323 101.62V135.598C85.323 135.987 85.3278 136.335 85.3389 136.66C85.3453 136.828 85.3517 136.997 85.3596 137.16L85.3931 137.736C85.4043 137.913 85.4186 138.085 85.433 138.254C85.441 138.336 85.4489 138.42 85.4585 138.504C85.4665 138.591 85.4744 138.668 85.484 138.746V138.763C85.4952 138.846 85.5047 138.928 85.5159 139.007C85.5255 139.095 85.5366 139.174 85.5478 139.252C85.5685 139.415 85.5924 139.568 85.6164 139.718L85.6355 139.834C85.6514 139.93 85.6674 140.022 85.6849 140.114C85.6849 140.118 85.6865 140.126 85.6881 140.129C85.6881 140.129 85.6881 140.123 85.6849 140.118C85.6881 140.129 85.6913 140.14 85.6929 140.152C85.7088 140.243 85.7264 140.333 85.7455 140.422C85.7455 140.428 85.7487 140.435 85.7487 140.441C85.7662 140.528 85.7838 140.616 85.8061 140.7C85.822 140.774 85.838 140.839 85.8523 140.901C85.8635 140.945 85.8731 140.986 85.8826 141.026C85.8826 141.031 85.8858 141.035 85.8874 141.04C85.9193 141.165 85.9512 141.285 85.9847 141.402C85.9911 141.418 85.9958 141.435 85.999 141.451L86.0118 141.492C86.0214 141.526 86.0309 141.557 86.0421 141.589C86.0612 141.655 86.0803 141.712 86.0979 141.767C86.2414 142.21 86.404 142.616 86.5842 142.975C86.6288 143.064 86.6735 143.148 86.7181 143.23C86.8313 143.432 86.9461 143.619 87.0625 143.78C87.0944 143.824 87.1215 143.864 87.1518 143.902C87.2013 143.967 87.2491 144.025 87.2953 144.082C87.3145 144.104 87.332 144.126 87.3495 144.147C87.3527 144.152 87.3575 144.156 87.3607 144.161C87.3671 144.166 87.3798 144.182 87.3846 144.188C87.4213 144.229 87.4564 144.27 87.4946 144.308C87.5218 144.337 87.5489 144.364 87.576 144.39C87.6238 144.44 87.67 144.482 87.7163 144.523C87.8103 144.606 87.8965 144.675 87.9762 144.734C87.981 144.737 87.9857 144.741 87.9905 144.745C88.0097 144.76 88.0304 144.775 88.0511 144.787C88.0575 144.792 88.0639 144.797 88.0703 144.802C88.0862 144.814 88.1037 144.825 88.1213 144.836L88.1404 144.849C88.1659 144.866 88.1803 144.876 88.1946 144.884C88.2393 144.911 88.2728 144.931 88.3094 144.952C88.4019 145.006 88.4976 145.053 88.5996 145.099C88.649 145.121 88.6953 145.142 88.7431 145.159C88.9058 145.222 88.9855 145.402 88.9249 145.565C88.8771 145.692 88.7559 145.771 88.6267 145.771L88.6251 145.769ZM13.7056 64.6516C13.0821 64.6516 12.4683 64.8318 11.8368 65.3252C11.0747 65.926 10.6362 66.8256 10.6378 67.7901V108.89C10.6378 117.059 14.852 118.851 14.8934 118.867L86.7819 144.46C86.7357 144.405 86.6894 144.346 86.6432 144.285C86.6081 144.24 86.573 144.191 86.538 144.141C86.4088 143.96 86.2828 143.76 86.1553 143.53C86.1059 143.44 86.058 143.35 86.0102 143.255C85.8157 142.866 85.6403 142.431 85.4872 141.96C85.4681 141.9 85.4473 141.835 85.4282 141.772C85.4202 141.745 85.4091 141.709 85.3963 141.671L85.3788 141.611C85.3756 141.603 85.374 141.595 85.3724 141.586C85.3724 141.586 85.3724 141.586 85.3724 141.584C85.3373 141.461 85.3022 141.334 85.2704 141.201C85.2688 141.195 85.2672 141.19 85.2656 141.184C85.2544 141.138 85.2432 141.091 85.2305 141.042C85.2145 140.977 85.1986 140.906 85.1827 140.835C85.1619 140.751 85.1412 140.653 85.1221 140.556C85.1221 140.556 85.1205 140.548 85.1189 140.544C85.0982 140.452 85.0822 140.36 85.0647 140.267C85.0599 140.248 85.0567 140.231 85.0551 140.212C85.0392 140.125 85.0216 140.028 85.0057 139.93L84.9865 139.815C84.961 139.66 84.9355 139.497 84.9148 139.329C84.9036 139.25 84.8925 139.165 84.8829 139.078C84.8717 139 84.8622 138.913 84.8526 138.827V138.808C84.8414 138.725 84.8319 138.645 84.8255 138.559C84.8159 138.479 84.808 138.392 84.8 138.302C84.7856 138.126 84.7713 137.951 84.7601 137.769L84.7266 137.182C84.7187 137.016 84.7123 136.847 84.7059 136.675C84.6947 136.341 84.69 135.987 84.69 135.592V101.613C84.69 99.5437 83.3681 97.6875 81.399 96.9949L43.4712 83.655C43.4058 83.6313 43.3405 83.6076 43.2767 83.5823C43.2097 83.5554 43.1443 83.5286 43.079 83.5001C42.5815 83.2787 42.1223 82.9862 41.7141 82.6289C41.7093 82.6242 41.7045 82.621 41.7013 82.6162C41.6886 82.6036 41.6742 82.5894 41.6599 82.5767C41.6248 82.5467 41.5865 82.5103 41.5483 82.4739C41.4877 82.417 41.4239 82.3522 41.3617 82.2858C41.2932 82.2146 41.2326 82.1451 41.1752 82.0771C41.1002 81.9917 41.0253 81.8968 40.9551 81.8004C40.9392 81.7814 40.9248 81.7624 40.9121 81.7435L40.8977 81.7229C40.539 81.2407 40.2743 80.6778 40.1069 80.0533C40.0973 80.0216 40.0877 79.9837 40.0782 79.9473C39.9474 79.4208 39.8884 78.8579 39.9012 78.2745C39.8645 77.5156 39.7051 76.7598 39.4308 76.0293C39.4276 76.023 39.426 76.0167 39.4228 76.0103C38.7611 74.2553 37.4026 72.777 35.6981 71.9532C35.6918 71.95 35.6854 71.9469 35.679 71.9421L35.6631 71.9326C35.6631 71.9326 35.6519 71.9279 35.6471 71.9247C35.6407 71.9216 35.6344 71.9184 35.628 71.9153C35.6248 71.9153 35.6216 71.9121 35.6168 71.9089C35.612 71.9073 35.6073 71.9042 35.6025 71.9026C35.5977 71.901 35.5817 71.8931 35.577 71.8915L35.4638 71.8425C35.4414 71.8346 35.4207 71.8267 35.3968 71.8172L35.2708 71.7682C35.2469 71.7587 35.231 71.7524 35.215 71.7476L35.0237 71.6749C34.9822 71.6591 34.9408 71.6449 34.8961 71.6275L34.8292 71.6038C34.7861 71.588 34.7399 71.5721 34.6936 71.5548L34.4927 71.4836C34.1866 71.3745 33.8422 71.2543 33.4786 71.1294C33.4165 71.1073 33.3575 71.0867 33.2969 71.0662L33.206 71.0361C33.0689 70.9887 32.9285 70.9413 32.7898 70.8938C32.6144 70.8338 32.4374 70.7737 32.2636 70.7152C32.1568 70.6788 32.0516 70.6424 31.9479 70.6077C31.8953 70.5919 31.8395 70.5729 31.7837 70.5539L31.7375 70.5381C31.5988 70.4907 31.4632 70.4448 31.3309 70.4005L30.8733 70.2472C30.7505 70.2061 30.6373 70.1665 30.5257 70.1302C30.4093 70.0906 30.304 70.0543 30.2036 70.0211C30.1143 69.9894 30.0362 69.9626 29.9612 69.9389C29.9166 69.9246 29.8656 69.9088 29.8177 69.8914L29.2214 69.6875C29.2023 69.6811 29.1847 69.6748 29.1688 69.6685L29.1512 69.6622L16.9774 65.526C16.7016 65.4343 16.4257 65.3362 16.1611 65.2414C15.2953 64.9299 14.4932 64.6437 13.7088 64.6437L13.7056 64.6516ZM35.9214 71.3619C35.9214 71.3619 35.923 71.3619 35.9246 71.3634C35.9246 71.3634 35.9214 71.3634 35.9214 71.3619Z" fill="black"/>
</g>
<g id="Group_19">
<path id="Vector_36" d="M79.9909 55.5159L74.1711 62.8839C73.2623 62.574 72.3933 62.2783 71.5817 61.9984C71.5673 61.9937 71.5514 61.9889 71.5355 61.9826L66.7106 60.2845C66.6883 60.2766 66.6659 60.2687 66.6452 60.2608L66.6532 60.2655L63.5711 59.1809C63.7608 58.3271 63.8597 57.4084 63.8597 56.4313C63.984 54.1213 63.3622 51.6042 62.2046 49.1519L79.9909 55.5159Z" fill="#EBECEE"/>
<path id="Vector_37" d="M74.1711 63.2002C74.136 63.2002 74.101 63.1938 74.0675 63.1828L73.6784 63.05C72.9099 62.7875 72.1717 62.5361 71.4765 62.2973C71.4525 62.2894 71.435 62.2831 71.4159 62.2768L66.6038 60.5834C66.5942 60.5802 66.583 60.5771 66.5735 60.5723C66.5639 60.5708 66.5559 60.5676 66.5464 60.5644L63.4642 59.4798C63.3128 59.426 63.2251 59.2695 63.2601 59.113C63.4467 58.2734 63.5408 57.3722 63.5408 56.4314C63.5408 56.4251 63.5408 56.4203 63.5408 56.414C63.6572 54.2495 63.0959 51.7845 61.9144 49.2847C61.8602 49.1693 61.8809 49.0318 61.967 48.9369C62.0531 48.842 62.1902 48.8088 62.3114 48.8531L80.0978 55.2171C80.1935 55.2519 80.2684 55.3294 80.2955 55.4274C80.3242 55.5254 80.3035 55.6298 80.2397 55.7104L74.4199 63.0784C74.3577 63.1559 74.2652 63.2002 74.1695 63.2002H74.1711ZM66.7186 59.9525C66.7329 59.9557 66.7457 59.9604 66.76 59.9652L66.8174 59.9857L71.6678 61.6918L71.6837 61.6965C72.3805 61.9368 73.1172 62.1882 73.8857 62.4491L74.0611 62.5092L79.4696 55.663L62.8025 49.699C63.8134 52.0549 64.2886 54.3712 64.1801 56.4377C64.1801 57.32 64.0988 58.1706 63.941 58.9738L66.7202 59.9525H66.7186Z" fill="black"/>
</g>
<path id="Vector_38" d="M62.2047 49.4681C62.1123 49.4681 62.0293 49.4286 61.9704 49.3669C61.8938 49.2878 61.8603 49.1708 61.8938 49.0602C61.9432 48.8926 62.1155 48.7945 62.2845 48.8451C62.42 48.8847 62.5236 49.0111 62.5236 49.1519C62.5236 49.3258 62.3801 49.4681 62.2047 49.4681Z" fill="black"/>
<path id="Vector_39" d="M74.0357 63.1781C74.0006 63.1781 73.964 63.1718 73.9289 63.1591L71.475 62.2958C71.3092 62.2373 71.2231 62.0571 71.2805 61.8926C71.3395 61.7282 71.5212 61.6428 71.6871 61.6997L74.141 62.563C74.3068 62.6215 74.3929 62.8018 74.3355 62.9662C74.2892 63.0959 74.1665 63.1765 74.0357 63.1765V63.1781Z" fill="black"/>
<g id="Group_20">
<path id="Vector_40" d="M66.7097 60.2845L66.6531 60.2657L66.6453 60.261C66.6657 60.2688 66.6877 60.2766 66.7097 60.2845Z" fill="white"/>
<path id="Vector_41" d="M66.7107 60.6009C66.6772 60.6009 66.6437 60.5961 66.6102 60.5851L66.5528 60.5661C66.5305 60.5582 66.5082 60.5487 66.4874 60.5361C66.3471 60.4507 66.2897 60.2704 66.3631 60.1234C66.4364 59.9763 66.6054 59.9068 66.7601 59.9653L66.8175 59.9858C66.9817 60.0443 67.0694 60.223 67.012 60.3874C66.9658 60.5187 66.843 60.6009 66.7107 60.6009Z" fill="black"/>
</g>
<g id="Group_21">
<path id="Vector_42" d="M98.7612 74.2618C99.3703 73.6278 99.6095 72.649 99.1327 71.7257L98.8186 71.1169C99.1774 71.2371 99.5059 71.3462 99.7992 71.4442C99.7992 71.4442 100.391 71.6371 101.088 72.3265L98.7612 74.2618Z" fill="white"/>
<path id="Vector_43" d="M98.7611 74.578C98.675 74.578 98.5905 74.5447 98.5284 74.4783C98.412 74.3566 98.4135 74.1653 98.5284 74.0435C99.0976 73.4506 99.2235 72.5984 98.8472 71.8695L98.5331 71.2608C98.4741 71.1469 98.4901 71.0078 98.5762 70.9098C98.6623 70.8117 98.7962 70.7754 98.919 70.8165L99.8996 71.1438C99.9251 71.1517 100.569 71.3683 101.311 72.1019C101.374 72.1652 101.408 72.2505 101.403 72.3391C101.398 72.4276 101.359 72.5114 101.29 72.5683L98.9636 74.5036C98.9047 74.5527 98.8313 74.578 98.7596 74.578H98.7611ZM99.4579 71.6639C99.6748 72.1225 99.7465 72.6142 99.6796 73.0854L100.606 72.3138C100.097 71.8821 99.7035 71.7446 99.6987 71.743L99.4579 71.6624V71.6639Z" fill="black"/>
</g>
<g id="Group_22">
<path id="Vector_44" d="M103.323 79.2976L103.301 79.2849C103.296 78.7932 103.289 78.3979 103.285 78.1196C103.309 78.4928 103.323 78.8849 103.323 79.2976Z" fill="white"/>
<path id="Vector_45" d="M103.323 79.6137C103.269 79.6137 103.215 79.5995 103.165 79.5726L103.143 79.5599C103.044 79.5046 102.983 79.4002 102.982 79.288C102.977 78.7978 102.971 78.4026 102.966 78.1259C102.963 77.9535 103.098 77.8112 103.272 77.8049C103.447 77.7986 103.593 77.9298 103.604 78.1006C103.629 78.5117 103.642 78.9022 103.642 79.2991C103.642 79.4113 103.581 79.5157 103.482 79.5726C103.433 79.6011 103.377 79.6153 103.323 79.6153V79.6137Z" fill="black"/>
</g>
<g id="Group_23">
<path id="Vector_46" d="M105.149 68.9475C105.043 69.0582 104.924 69.1562 104.795 69.2416C104.799 69.2369 104.806 69.2321 104.811 69.2289C104.823 69.2179 104.836 69.2068 104.847 69.1973C104.857 69.1894 104.866 69.1815 104.874 69.1752C104.881 69.1704 104.887 69.1641 104.894 69.1594C104.897 69.1562 104.902 69.1531 104.905 69.1499C104.914 69.142 104.924 69.1341 104.932 69.1278C104.941 69.1183 104.951 69.1119 104.96 69.104C104.964 69.1009 104.968 69.0977 104.972 69.0961V69.093C104.972 69.093 104.98 69.0867 104.984 69.0835C104.986 69.0819 104.989 69.0787 104.991 69.0772C104.994 69.0756 104.997 69.0724 105 69.0693C105.01 69.0614 105.018 69.055 105.027 69.0471C105.053 69.025 105.075 69.0076 105.093 68.9934C105.109 68.9791 105.123 68.9681 105.133 68.9586C105.139 68.9538 105.144 68.9491 105.147 68.9475H105.149Z" fill="white"/>
<path id="Vector_47" d="M104.795 69.5577C104.701 69.5577 104.608 69.5166 104.546 69.4391C104.442 69.3111 104.453 69.1277 104.573 69.0138C104.584 69.0027 104.598 68.9917 104.611 68.9822L104.675 68.9284C104.675 68.9284 104.685 68.9205 104.689 68.9158C104.689 68.9158 104.693 68.9126 104.694 68.911C104.696 68.911 104.697 68.9079 104.701 68.9063L104.721 68.8889C104.732 68.8794 104.744 68.8699 104.755 68.8604C104.755 68.8604 104.758 68.8573 104.76 68.8573C104.767 68.851 104.775 68.8446 104.783 68.8383C104.788 68.8336 104.795 68.8288 104.799 68.8241L104.825 68.8035C104.842 68.7893 104.862 68.7719 104.879 68.7593L104.906 68.7371C104.919 68.7245 104.933 68.7134 104.946 68.7023C104.965 68.6865 104.984 68.6755 105.007 68.6644C105.145 68.5964 105.313 68.6359 105.405 68.7593C105.498 68.8826 105.488 69.0533 105.381 69.164C105.263 69.2889 105.125 69.4028 104.972 69.504C104.917 69.5403 104.855 69.5577 104.795 69.5577ZM104.85 68.794C104.822 68.8083 104.801 68.8241 104.787 68.8367C104.807 68.8193 104.83 68.8035 104.85 68.794Z" fill="black"/>
</g>
<g id="Group_24">
<path id="Vector_48" d="M98.7612 74.2616C98.2031 74.8434 97.3373 75.1375 96.4285 74.8324L91.5956 73.2101L74.3594 67.4264C72.902 66.9363 72.3694 65.1638 73.3182 63.9622L73.4521 63.793L74.1712 62.8839L79.991 55.5159L84.3535 49.9946C84.4572 49.8634 84.5736 49.7464 84.6963 49.6436H84.6979L84.7266 49.6199C84.7426 49.6072 84.7585 49.5946 84.7745 49.5835C84.7984 49.5661 84.8207 49.5487 84.8446 49.5329C84.8749 49.5124 84.9052 49.4934 84.9355 49.4744C84.9562 49.4602 84.9785 49.4475 84.9993 49.4365C85.0615 49.4001 85.1252 49.3685 85.1906 49.34C85.2193 49.3258 85.2496 49.3147 85.2783 49.3037C85.366 49.2689 85.4569 49.2388 85.5478 49.2167C85.5781 49.2088 85.61 49.2009 85.6403 49.1946C85.6706 49.1882 85.7008 49.1819 85.7327 49.1772C85.763 49.1724 85.7933 49.1677 85.8252 49.1645C85.8539 49.1614 85.881 49.1582 85.9097 49.1566C86.0277 49.1455 86.1473 49.144 86.2669 49.1534C86.3594 49.1598 86.4518 49.1724 86.5443 49.1898C86.5491 49.1914 86.5539 49.1914 86.5603 49.193C86.6065 49.2025 86.6527 49.2135 86.699 49.2262C86.7963 49.2531 86.8919 49.2847 86.9844 49.3242C87.0322 49.3432 87.0769 49.3637 87.1231 49.3859C87.2124 49.4317 87.3001 49.4823 87.3846 49.5392C87.4261 49.5677 87.4675 49.5977 87.5074 49.6294C87.509 49.6294 87.509 49.6309 87.5106 49.6309C87.5488 49.6626 87.5855 49.6926 87.6222 49.7258C87.6557 49.7558 87.6876 49.7859 87.7179 49.8175C87.7386 49.8381 87.7577 49.8586 87.7753 49.8808C87.8008 49.9076 87.8247 49.9345 87.847 49.9646C87.8725 49.9946 87.8964 50.0262 87.9188 50.0578C87.9491 50.0974 87.9778 50.1385 88.0017 50.1812C88.0128 50.1986 88.0224 50.2144 88.0336 50.2318C88.0575 50.2697 88.0782 50.3092 88.0989 50.3504L89.0445 52.1829L89.1912 52.4675L89.4239 52.9197L89.5882 53.2375L89.7572 53.5648L90.2036 54.4296L90.4859 54.9767L90.6804 55.353L90.8781 55.7356L90.9786 55.9317L91.2847 56.5246L91.3883 56.7254L91.704 57.3373L91.8109 57.5429L92.3514 58.5911L92.6815 59.2299L92.9031 59.66L93.4596 60.7383L93.906 61.6032L94.1292 62.0348L94.3509 62.4649L94.5725 62.8933L94.6825 63.1068L94.901 63.5305L95.2262 64.1598L95.4399 64.5741L95.6456 64.9709L95.7556 65.186L95.9629 65.5876L96.2674 66.1773L96.4651 66.5615L96.7553 67.1228L96.9435 67.4865L96.9674 67.5324L97.4776 68.5205L97.6435 68.8431L97.9592 69.455L98.1792 69.8803L98.8186 71.1167L99.1327 71.7255C99.6094 72.6488 99.3703 73.6276 98.7612 74.2616Z" fill="#FF444F"/>
<path id="Vector_49" d="M97.1555 75.2689C96.8796 75.2689 96.6006 75.2246 96.3263 75.1329L74.2572 67.7269C73.4632 67.4597 72.87 66.8494 72.6309 66.0525C72.3917 65.2556 72.5495 64.4224 73.0661 63.7678L73.9192 62.6895L84.1015 49.8002C84.2147 49.6579 84.3455 49.5235 84.4906 49.4018C84.4969 49.3955 84.5049 49.3907 84.5113 49.386L84.5209 49.3781C84.5496 49.3544 84.5703 49.3385 84.591 49.3243L84.6038 49.3148C84.6245 49.299 84.6452 49.2848 84.6659 49.2706C84.6962 49.25 84.7297 49.2294 84.7632 49.2073C84.7823 49.1931 84.8158 49.1741 84.8461 49.1583C84.9035 49.1235 84.9753 49.0887 85.0534 49.0539C85.0853 49.0397 85.1172 49.0255 85.1475 49.0144C85.2639 48.9686 85.3691 48.9354 85.468 48.9101C85.4983 48.9022 85.5349 48.8927 85.57 48.8848C85.6067 48.8769 85.6418 48.8705 85.68 48.8642C85.7135 48.8595 85.7502 48.8531 85.7885 48.85C85.8188 48.8468 85.8522 48.8437 85.8873 48.8405C86.0133 48.8278 86.152 48.8278 86.2875 48.8373C86.3864 48.8437 86.4884 48.8579 86.6 48.8784C86.6016 48.8784 86.6048 48.8784 86.6064 48.8784C86.6144 48.8784 86.624 48.8816 86.6335 48.8848C86.6734 48.8927 86.7276 48.9053 86.7802 48.9195C86.9014 48.9528 87.0082 48.9891 87.1071 49.0318C87.1533 49.0508 87.2044 49.0729 87.2586 49.0982C87.3734 49.1567 87.4706 49.2136 87.5615 49.2753C87.6062 49.3053 87.6476 49.337 87.6891 49.3686C87.697 49.3733 87.705 49.3797 87.7114 49.386C87.7576 49.4255 87.7959 49.4555 87.8342 49.4903C87.8724 49.5251 87.9107 49.5599 87.9458 49.5978C87.9665 49.6184 87.9904 49.6453 88.0143 49.6722C88.043 49.7022 88.0702 49.7338 88.0941 49.767C88.1228 49.8018 88.1515 49.8382 88.177 49.8745C88.2121 49.9188 88.2455 49.9694 88.2726 50.0184L88.2998 50.0627C88.3301 50.1101 88.3556 50.1576 88.3811 50.2082L99.4132 71.5801C99.9139 72.5509 99.7481 73.6877 98.9891 74.4783C98.4964 74.9922 97.8363 75.2673 97.1523 75.2673L97.1555 75.2689ZM84.8844 49.8998C84.7792 49.9884 84.6851 50.0864 84.6038 50.1892L73.5684 64.1568C73.181 64.6469 73.0614 65.2715 73.2415 65.8707C73.4217 66.4684 73.8666 66.9269 74.4613 67.1261L96.5304 74.5321C97.2559 74.7756 98.0021 74.5921 98.5299 74.0435C99.0991 73.4506 99.2251 72.5984 98.8488 71.8695L87.815 50.4943C87.7975 50.4596 87.7816 50.4295 87.7624 50.3995L87.7321 50.3505C87.7321 50.3505 87.7257 50.3394 87.7226 50.3331C87.7082 50.3078 87.6891 50.2809 87.6652 50.2477C87.6412 50.2129 87.6221 50.1892 87.603 50.167C87.5982 50.1623 87.595 50.156 87.5902 50.1512C87.5759 50.1323 87.5599 50.1149 87.544 50.0975C87.5376 50.0896 87.5312 50.0833 87.5248 50.0753C87.5153 50.0627 87.5057 50.0532 87.4945 50.0421C87.4642 50.0105 87.4371 49.9852 87.41 49.9615C87.3813 49.9346 87.3526 49.9109 87.3239 49.8872C87.3192 49.884 87.316 49.8809 87.3112 49.8777C87.2777 49.8508 87.241 49.8255 87.2059 49.8002C87.1374 49.7544 87.064 49.7101 86.9795 49.6674C86.9476 49.6532 86.9094 49.6342 86.8695 49.6184C86.7898 49.5836 86.7101 49.5567 86.6176 49.5314C86.5777 49.5204 86.5395 49.5109 86.4996 49.503C86.4948 49.503 86.4868 49.5014 86.4789 49.4998C86.3975 49.4856 86.3226 49.4745 86.2493 49.4698C86.1472 49.4619 86.0468 49.4635 85.9447 49.4729C85.9096 49.4745 85.8889 49.4777 85.8666 49.4793C85.8347 49.4824 85.8108 49.4856 85.7869 49.4903C85.7582 49.4951 85.7342 49.4998 85.7103 49.5046C85.6848 49.5093 85.6577 49.5172 85.6322 49.5235C85.5557 49.5425 85.4791 49.5662 85.401 49.5978L85.3851 49.6042C85.3691 49.6105 85.3532 49.6152 85.3388 49.6231C85.334 49.6263 85.3292 49.6279 85.3229 49.6295C85.2655 49.6548 85.2144 49.6801 85.165 49.7085C85.1427 49.7212 85.1315 49.7259 85.1204 49.7338C85.0821 49.7575 85.055 49.7749 85.0279 49.7939C85.0135 49.8034 85.0024 49.8129 84.9896 49.8208L84.9657 49.8382C84.9498 49.8492 84.9402 49.8572 84.9306 49.8635L84.9051 49.8856C84.9051 49.8856 84.894 49.8951 84.8876 49.8998H84.8844Z" fill="black"/>
</g>
<g id="Group_25">
<path id="Vector_50" d="M86.6992 49.2263C86.7965 49.2516 86.8922 49.2832 86.9846 49.3243C86.8922 49.2848 86.7965 49.2532 86.6992 49.2263Z" fill="#FF444F"/>
<path id="Vector_51" d="M86.9845 49.6406C86.9431 49.6406 86.9 49.6327 86.8586 49.6153C86.7868 49.5837 86.7055 49.5568 86.6146 49.5315C86.4456 49.4857 86.3467 49.3117 86.393 49.1441C86.4392 48.9765 86.613 48.8754 86.782 48.9212C86.9048 48.9528 87.0132 48.9908 87.1169 49.0366C87.2763 49.1078 87.3497 49.2928 87.2779 49.4525C87.2253 49.571 87.1089 49.6422 86.9861 49.6422L86.9845 49.6406Z" fill="black"/>
</g>
<g id="Group_26">
<path id="Vector_52" d="M87.0545 49.3527C87.0784 49.3637 87.1008 49.3732 87.1231 49.3859C87.0769 49.3637 87.0322 49.3432 86.9844 49.3242C87.0083 49.3321 87.0322 49.3416 87.0545 49.3527Z" fill="#FF444F"/>
<path id="Vector_53" d="M87.1231 49.7021C87.0769 49.7021 87.029 49.6926 86.9844 49.6705C86.9445 49.6515 86.9063 49.6341 86.8648 49.6183C86.7054 49.555 86.624 49.3764 86.683 49.2167C86.742 49.057 86.919 48.9716 87.0833 49.0254C87.1199 49.038 87.1566 49.0522 87.1917 49.0681L87.2044 49.0744C87.23 49.087 87.2555 49.0981 87.2794 49.1123C87.4293 49.1961 87.4851 49.3827 87.4053 49.5345C87.3479 49.642 87.2379 49.7037 87.1231 49.7037V49.7021Z" fill="black"/>
</g>
<g id="Group_27">
<path id="Vector_54" d="M87.3845 49.5394C87.3 49.4824 87.2123 49.4318 87.123 49.386C87.2139 49.4287 87.3016 49.4809 87.3845 49.5394Z" fill="#FF444F"/>
<path id="Vector_55" d="M87.3846 49.8555C87.3224 49.8555 87.2602 49.8381 87.206 49.8002C87.1359 49.7527 87.0609 49.7085 86.9764 49.6658C86.8218 49.5867 86.7596 49.3986 86.8377 49.2436C86.9158 49.0887 87.1024 49.0238 87.2602 49.0982C87.3639 49.1472 87.4691 49.2088 87.5696 49.28C87.7115 49.3796 87.7465 49.5757 87.6461 49.718C87.5839 49.8065 87.4851 49.8539 87.3846 49.8539V49.8555Z" fill="black"/>
</g>
<g id="Group_28">
<path id="Vector_56" d="M87.3847 15.104V32.8773C87.3847 33.6458 86.9988 34.2987 86.4312 34.6924L80.2271 39.8659C80.6831 39.4658 80.9781 38.8824 80.9781 38.2089V20.4339C80.9781 19.5027 80.3913 18.671 79.508 18.3532C77.011 17.4504 63.4771 12.5679 61.2959 11.7805C60.5146 11.4975 59.7094 11.6745 59.1306 12.1378C59.1657 12.1109 65.4559 6.87586 65.4846 6.85056C66.0666 6.35567 66.8989 6.15803 67.7041 6.44896L85.9146 13.0217C86.7963 13.341 87.3847 14.1727 87.3847 15.104Z" fill="#FF7E88"/>
<path id="Vector_57" d="M80.2271 40.1822C80.1378 40.1822 80.0485 40.1442 79.9847 40.0731C79.8715 39.9419 79.8843 39.7442 80.015 39.6304C80.4296 39.2667 80.6592 38.7623 80.6592 38.2105V20.4356C80.6592 19.6403 80.1521 18.9225 79.3996 18.6521C77.9438 18.1256 72.741 16.2488 68.2207 14.6171C64.9839 13.4487 62.0979 12.4083 61.1875 12.0794C60.5529 11.8486 59.8577 11.964 59.3315 12.3861C59.3315 12.3861 59.3267 12.3909 59.3251 12.3909C59.1864 12.4968 58.9887 12.4715 58.8803 12.3355C58.7718 12.1996 58.7942 12.0019 58.9297 11.8944C58.9329 11.8913 58.9361 11.8897 58.9393 11.8865C59.1322 11.7284 65.1306 6.73681 65.2757 6.61349C65.9757 6.01741 66.9483 5.8419 67.8125 6.15496L86.023 12.7277C87.0275 13.0913 87.7036 14.0479 87.7036 15.1072V32.8806C87.7036 33.7012 87.3018 34.4728 86.6257 34.9471L80.4328 40.1126C80.3722 40.1632 80.3004 40.1869 80.2271 40.1869V40.1822ZM60.6007 11.33C60.8702 11.3379 61.1412 11.3885 61.4059 11.4849C62.3164 11.8138 65.2024 12.8557 68.4391 14.0226C72.9595 15.6543 78.1638 17.5311 79.618 18.0576C80.6225 18.4197 81.2986 19.3747 81.2986 20.4356V38.2105C81.2986 38.337 81.289 38.4619 81.2715 38.5853L86.2271 34.4522C86.2271 34.4522 86.2414 34.4396 86.2494 34.4348C86.7692 34.0743 87.0674 33.5067 87.0674 32.879V15.1041C87.0674 14.3088 86.5603 13.5925 85.8061 13.319L67.5957 6.7463C66.9371 6.50913 66.226 6.6372 65.6919 7.09098C65.6392 7.13684 62.4439 9.79628 60.6007 11.33Z" fill="black"/>
</g>
<g id="Group_29">
<path id="Vector_58" d="M80.9779 20.4343V38.2092C80.9779 38.8827 80.6829 39.4662 80.2269 39.8662C79.6417 40.38 78.7983 40.584 77.9803 40.2915L59.7682 33.7188C58.8865 33.3994 58.2981 32.5678 58.2981 31.6365V13.8616C58.2981 13.1769 58.6042 12.584 59.073 12.1856C59.6598 11.6844 60.4873 11.4899 61.2957 11.7808L64.7047 13.0109L79.5078 18.3535C80.3911 18.6713 80.9779 19.503 80.9779 20.4343Z" fill="#FF444F"/>
<path id="Vector_59" d="M78.7425 40.7405C78.4507 40.7405 78.1557 40.6915 77.8719 40.5887L59.6598 34.016C58.6553 33.6524 57.9792 32.6958 57.9792 31.6364V13.8615C57.9792 13.1231 58.3029 12.4243 58.8658 11.9452C59.5753 11.3396 60.5256 11.1657 61.4042 11.4835L79.6163 18.0562C80.6208 18.4183 81.2968 19.3733 81.2968 20.4342V38.2092C81.2968 38.9444 80.9923 39.6179 80.439 40.1033C79.9623 40.5207 79.358 40.7405 78.7425 40.7405ZM60.5256 11.961C60.0776 11.961 59.6391 12.1191 59.2819 12.4259C58.8594 12.7848 58.617 13.3081 58.617 13.8615V31.6364C58.617 32.4317 59.1241 33.148 59.8783 33.4215L78.0904 39.9942C78.7616 40.2346 79.4823 40.0986 80.0165 39.629C80.431 39.2653 80.659 38.761 80.659 38.2092V20.4342C80.659 19.6389 80.152 18.9211 79.3994 18.6507L61.1873 12.078C60.9689 11.999 60.7457 11.961 60.5256 11.961Z" fill="black"/>
</g>
<g id="Group_30">
<path id="Vector_60" d="M101.544 123.124C101.507 123.18 101.469 123.235 101.432 123.29C101.389 123.354 101.344 123.417 101.301 123.479C101.053 123.834 100.79 124.192 100.512 124.541C100.452 124.617 100.391 124.694 100.329 124.77C100.233 124.886 100.137 125.001 100.04 125.115C99.9445 125.227 99.8488 125.338 99.7516 125.449C99.7165 125.487 99.683 125.523 99.6495 125.561C99.5172 125.705 99.3848 125.847 99.2509 125.985C99.0468 126.195 98.8395 126.396 98.6291 126.587C98.5621 126.649 98.4935 126.71 98.425 126.77C98.3883 126.801 98.3532 126.832 98.3165 126.862C98.2129 126.951 98.1077 127.036 98.004 127.12C97.9323 127.175 97.8621 127.229 97.7904 127.283C97.5145 127.487 97.2387 127.669 96.9644 127.82C96.8895 127.861 96.8145 127.901 96.738 127.939C96.5897 128.013 96.4398 128.078 96.2916 128.135C95.7925 128.322 95.3046 128.394 94.847 128.322C94.721 128.303 94.5966 128.271 94.4739 128.227C94.4468 128.216 94.4212 128.206 94.3941 128.195C94.3431 128.175 94.2921 128.152 94.2411 128.127C94.2411 128.127 94.2405 128.127 94.2395 128.126C94.19 128.1 94.139 128.073 94.0896 128.043C94.0896 128.043 94.0891 128.043 94.088 128.042C94.0386 128.012 93.9907 127.98 93.9413 127.945V127.944C93.8696 127.892 93.7978 127.835 93.7276 127.771H93.726C93.6782 127.727 93.632 127.683 93.5873 127.637C93.2876 127.325 93.0165 126.91 92.7789 126.369C92.7486 126.298 92.7168 126.223 92.6881 126.148C92.5557 125.819 92.4361 125.446 92.3293 125.03C92.3054 124.94 92.283 124.848 92.2623 124.755C92.2049 124.511 92.1523 124.252 92.1045 123.98C92.0821 123.858 92.0614 123.735 92.0423 123.607C91.9036 122.71 91.8095 121.665 91.7664 120.459C91.768 117.478 91.768 95.0217 91.768 95.0217C91.768 92.8144 90.3649 90.8459 88.2666 90.1076L65.0335 81.9363L64.2123 81.647L62.9973 81.2201L62.2017 80.9402L60.2724 80.2619L59.5278 79.9995L59.1626 79.8714L58.0975 79.4967L58.0911 79.4935L57.4087 79.2548L56.1044 78.7962L55.489 78.5796L54.8352 78.3488C52.2905 77.4539 50.5939 76.8562 50.3372 76.7661C48.5913 76.1605 47.3412 74.6284 47.0542 72.8639C49.5256 72.8022 51.5937 71.8899 53.118 70.4274C53.0462 70.5049 52.9713 70.5808 52.8964 70.6567C53.4688 70.1807 57.8297 66.5489 59.9583 64.7765C60.3633 64.4966 60.7396 64.1836 61.0888 63.8357C62.2894 62.6467 63.152 61.0735 63.5714 59.1809L66.6535 60.2656L66.7109 60.2845C67.8206 60.694 69.5012 61.2838 71.5358 61.9826C71.5517 61.989 71.5676 61.9937 71.582 61.9985C72.3936 62.2783 73.2626 62.574 74.1714 62.8839L73.4523 63.793L73.3184 63.9622C72.3697 65.1639 72.9022 66.9363 74.3596 67.4264L91.5958 73.2102L96.4287 74.8324C97.3375 75.1375 98.2033 74.8435 98.7614 74.2616L101.088 72.3263H101.089C101.947 73.1722 102.964 74.7676 103.247 77.6705C103.261 77.8128 103.272 77.9567 103.283 78.1037C103.283 78.11 103.283 78.1148 103.285 78.1195C103.29 78.3978 103.296 78.7931 103.301 79.2848C103.36 85.652 103.315 108.423 103.328 110.825C103.328 110.825 103.578 120.35 101.544 123.124Z" fill="white"/>
<path id="Vector_61" d="M95.204 128.665C95.0653 128.665 94.9282 128.654 94.7959 128.633C94.6524 128.611 94.5057 128.575 94.3638 128.522L94.2713 128.486C94.2139 128.464 94.1565 128.437 94.0975 128.409C94.0895 128.405 94.0831 128.401 94.0752 128.396C94.0241 128.369 93.9715 128.342 93.9221 128.311C93.9173 128.307 93.9109 128.304 93.9061 128.301C93.8551 128.27 93.8073 128.238 93.7563 128.202C93.7499 128.197 93.7451 128.194 93.7403 128.189C93.6574 128.129 93.5825 128.067 93.5123 128.004C93.5091 128.001 93.5075 127.999 93.5043 127.996C93.4533 127.95 93.4039 127.903 93.3576 127.855C93.0244 127.507 92.731 127.05 92.4871 126.494L92.4775 126.47C92.4488 126.401 92.4185 126.329 92.3898 126.257C92.2559 125.925 92.1315 125.534 92.0199 125.106C91.996 125.014 91.972 124.918 91.9513 124.821C91.8939 124.579 91.8397 124.312 91.7903 124.032C91.768 123.909 91.7472 123.782 91.7265 123.651C91.5846 122.729 91.4905 121.657 91.4475 120.468C91.4475 117.477 91.4475 95.0202 91.4475 95.0202C91.4475 92.9521 90.1256 91.0959 88.1581 90.4033L57.989 79.7925C57.989 79.7925 57.9747 79.7877 57.9683 79.7846L50.2287 77.0619C48.3887 76.4231 47.0493 74.8325 46.7368 72.9114C46.7225 72.8197 46.748 72.7264 46.8086 72.6553C46.8692 72.5841 46.9584 72.5446 47.0509 72.5446C49.3294 72.4877 51.3528 71.6766 52.8947 70.1967C52.9377 70.1555 52.9903 70.1287 53.0446 70.116C53.896 69.4077 55.905 67.7349 57.6797 66.2565L59.7509 64.5315C59.7509 64.5315 59.7653 64.5189 59.7732 64.5141C60.1607 64.2453 60.5274 63.9418 60.8607 63.6097C62.0517 62.4302 62.8569 60.9171 63.2588 59.1099C63.2779 59.0213 63.3353 58.9454 63.415 58.9012C63.4947 58.8569 63.5904 58.849 63.6765 58.879L66.8097 59.9811C67.8748 60.3732 69.4963 60.944 71.6377 61.6808L71.6648 61.6902L71.6808 61.695C72.3776 61.9353 73.1142 62.1867 73.8827 62.4476L74.2718 62.5804C74.3691 62.6136 74.444 62.6911 74.4743 62.7907C74.503 62.8887 74.4823 62.9947 74.4201 63.0753L73.567 64.1536C73.1796 64.6438 73.06 65.2683 73.2402 65.8676C73.4203 66.4652 73.8652 66.9237 74.4599 67.123L96.5291 74.5289C97.2545 74.7724 98.0007 74.589 98.5285 74.0404C98.5365 74.0324 98.5461 74.023 98.554 74.0166L100.88 72.0813C101.003 71.9802 101.199 71.9881 101.312 72.0987C102.177 72.951 103.267 74.6016 103.562 77.6374C103.577 77.7813 103.588 77.9267 103.599 78.0769C103.599 78.088 103.601 78.0991 103.601 78.1101C103.605 78.3884 103.612 78.7853 103.616 79.2786C103.656 83.5935 103.648 95.4961 103.644 103.373C103.642 107.102 103.639 110.047 103.644 110.82C103.653 111.206 103.873 120.467 101.802 123.302L101.695 123.46C101.655 123.52 101.615 123.575 101.577 123.629L101.56 123.654C101.29 124.038 101.021 124.402 100.759 124.733L100.705 124.801C100.662 124.856 100.617 124.911 100.573 124.967C100.474 125.087 100.377 125.202 100.279 125.316C100.184 125.43 100.086 125.54 99.9875 125.653C99.9492 125.695 99.9173 125.729 99.8854 125.765C99.7467 125.917 99.6128 126.061 99.4756 126.2C99.2668 126.415 99.0531 126.622 98.8394 126.816C98.7725 126.878 98.7007 126.941 98.6306 127.005L98.5748 127.052C98.5556 127.069 98.5349 127.085 98.5142 127.103C98.4137 127.188 98.3053 127.277 98.2001 127.362C98.1219 127.422 98.0502 127.477 97.9768 127.533C97.6771 127.754 97.3869 127.944 97.1142 128.094C97.0345 128.138 96.9548 128.179 96.875 128.219C96.7268 128.293 96.5673 128.363 96.4015 128.428C95.9821 128.584 95.5788 128.663 95.1993 128.663L95.204 128.665ZM94.3988 127.852C94.4371 127.871 94.4754 127.887 94.5136 127.903L94.595 127.936C94.6842 127.968 94.7895 127.994 94.8947 128.01C95.2822 128.072 95.7127 128.015 96.1783 127.841C96.3218 127.786 96.4621 127.724 96.5928 127.659C96.6662 127.623 96.7379 127.585 96.8081 127.547C97.0552 127.409 97.3215 127.237 97.5974 127.033C97.6659 126.981 97.7361 126.929 97.8062 126.873C97.9019 126.796 98.0055 126.712 98.106 126.625L98.1586 126.581C98.1777 126.563 98.1985 126.546 98.2192 126.53C98.2782 126.478 98.3452 126.418 98.4089 126.36C98.6146 126.173 98.8187 125.975 99.018 125.77C99.1504 125.634 99.2811 125.495 99.4103 125.352C99.4406 125.318 99.4756 125.28 99.5123 125.24C99.6048 125.136 99.6989 125.027 99.7929 124.916C99.8886 124.804 99.9827 124.691 100.077 124.578C100.121 124.524 100.163 124.472 100.204 124.418L100.259 124.35C100.512 124.031 100.774 123.678 101.037 123.303L101.056 123.276C101.092 123.224 101.129 123.17 101.166 123.118L101.276 122.955C101.276 122.955 101.282 122.947 101.284 122.943C103.232 120.285 103.009 110.931 103.007 110.838C103.003 110.055 103.006 107.109 103.007 103.38C103.012 95.504 103.02 83.603 102.98 79.2912C102.976 78.8122 102.969 78.4264 102.964 78.1497C102.964 78.1402 102.964 78.1307 102.963 78.1228C102.952 77.9821 102.942 77.8429 102.928 77.707C102.674 75.095 101.812 73.5945 101.062 72.7644L98.9782 74.4973C98.2862 75.2088 97.2705 75.4539 96.325 75.1361L74.2558 67.7301C73.4618 67.4629 72.8687 66.8526 72.6295 66.0557C72.3903 65.2588 72.5482 64.4256 73.0648 63.771L73.642 63.0421C72.8862 62.7844 72.1607 62.5361 71.4751 62.3006C71.4512 62.2927 71.4336 62.2863 71.4145 62.28C69.2827 61.5479 67.6563 60.9756 66.5976 60.585L66.5497 60.5692L63.7977 59.6C63.3465 61.374 62.5109 62.8745 61.3119 64.0619C60.9563 64.4161 60.5657 64.7418 60.1495 65.0296L58.0895 66.7451C55.9704 68.5096 53.5181 70.5524 53.0988 70.9003C53.0733 70.9208 53.0446 70.9382 53.0143 70.9509C51.4899 72.2774 49.5766 73.0379 47.4352 73.166C47.8083 74.6807 48.9547 75.9551 50.4376 76.4689L58.1931 79.1964C58.1931 79.1964 58.2075 79.2011 58.2138 79.2043L88.3685 89.8104C90.5896 90.5915 92.0821 92.6865 92.0821 95.0218C92.0821 95.0218 92.0821 117.478 92.0821 120.459C92.1235 121.613 92.2144 122.66 92.3547 123.559C92.3739 123.686 92.3946 123.806 92.4153 123.923C92.4631 124.193 92.5142 124.448 92.57 124.684C92.5907 124.775 92.6114 124.864 92.6353 124.949C92.739 125.354 92.8554 125.716 92.9813 126.031C93.0085 126.102 93.0356 126.165 93.0611 126.227L93.069 126.246C93.2827 126.731 93.533 127.126 93.8137 127.417C93.8519 127.457 93.8934 127.496 93.9348 127.533C93.938 127.536 93.9412 127.539 93.9444 127.541C94.0002 127.591 94.0592 127.639 94.1262 127.686L94.1326 127.691C94.1724 127.719 94.2123 127.745 94.2537 127.77C94.2537 127.77 94.2617 127.775 94.2665 127.778C94.3048 127.801 94.3462 127.822 94.3845 127.841C94.3845 127.841 94.3941 127.846 94.3988 127.849V127.852Z" fill="black"/>
</g>
<g id="Group_31">
<path id="Vector_62" d="M105.605 68.2993C105.576 68.3593 105.543 68.421 105.506 68.4811C105.479 68.5269 105.45 68.5728 105.417 68.6187C105.385 68.6645 105.351 68.7104 105.313 68.7578C105.265 68.8195 105.211 68.8811 105.153 68.9428H105.152C105.152 68.9428 105.152 68.9459 105.149 68.9475C105.146 68.9491 105.141 68.9538 105.134 68.9586C105.125 68.9681 105.11 68.9791 105.094 68.9934C105.077 69.0076 105.055 69.025 105.029 69.0471C105.02 69.055 105.012 69.0614 105.002 69.0693C104.999 69.0724 104.996 69.0756 104.992 69.0772C104.992 69.0788 104.988 69.0819 104.986 69.0835C104.981 69.0867 104.978 69.0898 104.973 69.093V69.0961C104.97 69.0977 104.965 69.1009 104.962 69.1041C104.953 69.112 104.943 69.1183 104.933 69.1278C104.925 69.1341 104.916 69.142 104.906 69.1499C104.903 69.1531 104.898 69.1562 104.895 69.1594C104.889 69.1641 104.882 69.1705 104.876 69.1752C104.868 69.1815 104.859 69.1894 104.849 69.1973C104.838 69.2068 104.825 69.2179 104.812 69.229C104.807 69.2321 104.801 69.2369 104.796 69.2416C104.792 69.2464 104.785 69.2511 104.78 69.2558C104.769 69.2637 104.76 69.2732 104.748 69.2811C104.733 69.2954 104.717 69.308 104.699 69.3238C104.677 69.3412 104.654 69.3602 104.63 69.3807C104.618 69.3902 104.605 69.4013 104.591 69.414C104.576 69.425 104.562 69.4361 104.546 69.4503C104.519 69.4725 104.489 69.4978 104.46 69.5215L104.402 69.5689C104.383 69.5847 104.364 69.6021 104.343 69.6179C104.342 69.6179 104.339 69.6227 104.336 69.6258C104.3 69.6543 104.262 69.6859 104.224 69.7175C103.94 69.9531 103.626 70.2156 103.331 70.4607C103.288 70.4954 103.246 70.5302 103.205 70.565C103.203 70.5666 103.2 70.5682 103.199 70.5713C103.159 70.603 103.121 70.6346 103.082 70.6662C103.034 70.7073 102.985 70.7468 102.94 70.7864C102.91 70.8101 102.881 70.8338 102.854 70.8591C102.779 70.9192 102.709 70.9777 102.645 71.0299C102.613 71.0567 102.583 71.082 102.553 71.1073C102.507 71.1453 102.465 71.1816 102.427 71.2133C102.392 71.2417 102.36 71.2686 102.331 71.2923C102.274 71.3398 102.232 71.3745 102.212 71.3919L102.102 71.4836L102.025 71.5485L101.805 71.7303L101.488 71.9943C101.413 72.0576 101.346 72.1129 101.29 72.1588L101.25 72.192L101.182 72.2489L101.137 72.2884L101.091 72.3264H101.089L98.7628 74.2617C99.3719 73.6276 99.6111 72.6489 99.1343 71.7255L98.8202 71.1168L98.1808 69.8804L97.9608 69.4551L97.6451 68.8432L97.4793 68.5206L96.969 67.5324L96.9451 67.4866L96.757 67.1229L96.4668 66.5616L96.2691 66.1774L95.9645 65.5876L95.7573 65.186L95.6472 64.971L95.4415 64.5742L95.2279 64.1599L94.9026 63.5306L94.6842 63.1069L94.5741 62.8934L94.3525 62.4649L94.1309 62.0349L93.9077 61.6032L93.4612 60.7384L92.9047 59.66L92.6831 59.23L92.353 58.5912L91.8125 57.5429L91.7057 57.3374L91.39 56.7255L91.2863 56.5247L90.9802 55.9318L90.8798 55.7357L90.682 55.3531L90.4875 54.9768L90.2053 54.4297L89.7588 53.5648L89.5898 53.2375L89.4256 52.9197L89.1928 52.4675L89.0461 52.1829L88.1006 50.3504C88.0799 50.3093 88.0591 50.2698 88.0352 50.2318C88.0256 50.2144 88.0161 50.1986 88.0033 50.1812C87.9794 50.1386 87.9507 50.0974 87.9204 50.0579C87.8981 50.0263 87.8742 49.9947 87.8487 49.9646C87.8263 49.9346 87.8024 49.9077 87.7769 49.8808C87.7594 49.8587 87.7402 49.8381 87.7195 49.8176C87.6892 49.786 87.6573 49.7559 87.6238 49.7259C87.5872 49.6927 87.5505 49.6626 87.5122 49.631C87.5106 49.631 87.5106 49.6294 87.509 49.6294C87.4692 49.5978 87.4277 49.5678 87.3863 49.5393C87.3018 49.4824 87.2141 49.4318 87.1248 49.3859C87.0785 49.3638 87.0339 49.3433 86.986 49.3243C86.8936 49.2848 86.7979 49.2531 86.7006 49.2263C86.6544 49.2136 86.6082 49.2025 86.5619 49.193C86.5555 49.1915 86.5508 49.1915 86.546 49.1899C86.4535 49.1725 86.361 49.1598 86.2685 49.1535C86.1489 49.144 86.0294 49.1456 85.9114 49.1567C85.8827 49.1583 85.8556 49.1598 85.8269 49.1646C85.795 49.1677 85.7647 49.1725 85.7344 49.1772C85.7025 49.182 85.6722 49.1883 85.6419 49.1946C85.61 49.201 85.5797 49.2073 85.5494 49.2168C85.4585 49.2389 85.3677 49.2674 85.28 49.3037C85.2513 49.3148 85.221 49.3259 85.1923 49.3401C85.1269 49.3685 85.0631 49.4002 85.0009 49.4365C84.9802 49.4476 84.9579 49.4603 84.9371 49.4745C84.9069 49.4935 84.8766 49.5124 84.8463 49.533C84.8223 49.5488 84.8 49.5662 84.7761 49.5836C84.7602 49.5946 84.7442 49.6073 84.7283 49.6199L91.028 44.3785C92.0868 43.4299 93.8231 43.7002 94.5072 45.0205L104.642 64.6532H104.643C105.252 65.9134 106.193 67.0723 105.606 68.2993H105.605Z" fill="#FF7E88"/>
<path id="Vector_63" d="M98.7612 74.5779C98.6751 74.5779 98.5906 74.5447 98.5284 74.4783C98.412 74.3566 98.4136 74.1653 98.5284 74.0435C99.0976 73.4506 99.2236 72.5984 98.8473 71.8695L87.8135 50.4944C87.796 50.4596 87.78 50.4295 87.7609 50.3995C87.7577 50.3932 87.7545 50.3884 87.7513 50.3821C87.7481 50.3774 87.745 50.3726 87.7418 50.3663C87.7338 50.3552 87.7274 50.3457 87.721 50.3331C87.7067 50.3078 87.6875 50.2809 87.6636 50.2477C87.6397 50.2129 87.6206 50.1892 87.6015 50.1671C87.5967 50.1623 87.5935 50.156 87.5887 50.1512C87.5743 50.1323 87.5584 50.1149 87.5425 50.0975C87.5361 50.0896 87.5297 50.0833 87.5233 50.0754C87.5138 50.0627 87.5042 50.0532 87.493 50.0422C87.4627 50.0105 87.4356 49.9852 87.4085 49.9615C87.3798 49.9346 87.3511 49.9109 87.3224 49.8872C87.3176 49.884 87.3144 49.8809 87.3097 49.8777C87.2762 49.8508 87.2395 49.8255 87.2044 49.8002C87.1359 49.7544 87.0625 49.7101 86.978 49.6674C86.9461 49.6532 86.9079 49.6342 86.868 49.6184C86.7883 49.5836 86.7085 49.5568 86.6161 49.5315C86.5762 49.5204 86.5379 49.5109 86.4981 49.503C86.4933 49.503 86.4853 49.5014 86.4773 49.4998C86.396 49.4856 86.3211 49.4745 86.2477 49.4698C86.1457 49.4619 86.0452 49.4635 85.9432 49.473C85.9129 49.4745 85.8986 49.4745 85.881 49.4777C85.873 49.4777 85.8667 49.4793 85.8587 49.4809C85.8332 49.484 85.8093 49.4872 85.7853 49.4903C85.7566 49.4951 85.7327 49.4998 85.7088 49.5046C85.6849 49.5093 85.6658 49.5125 85.6482 49.5188C85.6418 49.5204 85.6339 49.5235 85.6275 49.5251C85.5478 49.5441 85.4728 49.5694 85.4059 49.5963C85.4027 49.5963 85.3867 49.6042 85.3835 49.6042C85.3676 49.6105 85.3516 49.6153 85.3373 49.6232C85.3325 49.6263 85.3277 49.6279 85.3214 49.6295C85.264 49.6548 85.2129 49.6801 85.1635 49.7085C85.1412 49.7212 85.13 49.7259 85.1189 49.7338C85.0806 49.7576 85.0535 49.7749 85.0264 49.7939C85.012 49.8034 85.0009 49.8129 84.9881 49.8208L84.9642 49.8382C84.9482 49.8493 84.9387 49.8572 84.9291 49.8635C84.792 49.971 84.5927 49.952 84.4827 49.8176C84.3726 49.6832 84.3886 49.4872 84.5225 49.3765L90.8223 44.1351C91.4011 43.6165 92.1887 43.3967 92.978 43.539C93.7625 43.6813 94.4242 44.1683 94.7893 44.8751L104.911 64.4825C104.917 64.4936 104.924 64.503 104.93 64.5157C105.048 64.7592 105.181 65.0043 105.31 65.2399C105.861 66.2549 106.434 67.3048 105.893 68.4337C105.86 68.5049 105.822 68.576 105.778 68.644C105.748 68.6946 105.715 68.7483 105.675 68.8037C105.643 68.8495 105.605 68.9017 105.562 68.9555C105.515 69.014 105.458 69.082 105.388 69.1579C105.383 69.1626 105.38 69.1658 105.375 69.1705C105.372 69.1737 105.367 69.1784 105.364 69.1816C105.358 69.1879 105.35 69.1942 105.342 69.2005C105.335 69.2069 105.327 69.2132 105.319 69.2195L105.281 69.2527C105.268 69.2622 105.255 69.2733 105.24 69.2875L105.214 69.3081C105.214 69.3081 105.204 69.316 105.2 69.3207C105.196 69.3223 105.195 69.3255 105.192 69.327C105.181 69.3381 105.169 69.3476 105.157 69.3555C105.153 69.3587 105.15 69.3602 105.149 69.3618C105.144 69.3666 105.137 69.3713 105.133 69.376L105.11 69.3934C105.11 69.3934 105.107 69.395 105.106 69.3966C105.099 69.4029 105.093 69.4077 105.086 69.4124C105.085 69.4156 105.074 69.4235 105.063 69.4314L105.023 69.4662C105.023 69.4662 105.01 69.4772 105.004 69.482C105.002 69.482 105 69.4851 104.999 69.4867C104.988 69.4978 104.976 69.5073 104.964 69.5152C104.96 69.5184 104.954 69.5231 104.948 69.5278L104.913 69.5579C104.913 69.5579 104.902 69.5674 104.895 69.5721C104.876 69.5863 104.858 69.6021 104.838 69.6195C104.831 69.6243 104.825 69.6306 104.819 69.6354C104.814 69.6401 104.807 69.6448 104.801 69.6512C104.795 69.6559 104.79 69.6607 104.784 69.6654C104.776 69.6717 104.766 69.678 104.756 69.6875L104.587 69.8283C104.576 69.8377 104.563 69.8488 104.551 69.8583C104.544 69.8646 104.538 69.8694 104.535 69.8725L103.533 70.7042C103.492 70.7374 103.455 70.769 103.419 70.7991C103.411 70.8054 103.404 70.8133 103.396 70.8196C103.358 70.8497 103.321 70.8797 103.285 70.9113L103.226 70.9619C103.2 70.9825 103.175 71.0046 103.152 71.0252C103.148 71.0299 103.141 71.0346 103.136 71.0378C103.114 71.0552 103.092 71.0726 103.073 71.0916C103.066 71.0979 103.06 71.1026 103.055 71.1074C103.006 71.1469 102.958 71.1864 102.912 71.2244L102.759 71.3524C102.731 71.3746 102.709 71.3936 102.687 71.4125L102.436 71.6212C102.436 71.6212 102.422 71.6339 102.414 71.6402L101.692 72.2395C101.617 72.3027 101.55 72.358 101.493 72.4055L101.293 72.5731C101.293 72.5731 101.28 72.5826 101.274 72.5873L98.9669 74.5068C98.9079 74.5558 98.8345 74.5811 98.7628 74.5811L98.7612 74.5779ZM88.3094 50.0722C88.3365 50.1165 88.3604 50.1607 88.3843 50.2082L99.4165 71.5801C99.6652 72.0608 99.7497 72.5841 99.678 73.0838L100.882 72.0829C100.882 72.0829 100.896 72.0719 100.903 72.0671L101.081 71.9153C101.139 71.8695 101.204 71.8141 101.277 71.7525L101.985 71.1659C101.985 71.1659 101.996 71.1548 102.003 71.1501C102.023 71.1327 102.067 71.0963 102.126 71.0489L102.271 70.9287C102.295 70.9082 102.322 70.886 102.349 70.8623L102.503 70.7342C102.548 70.6979 102.594 70.6583 102.644 70.6204C102.672 70.5935 102.703 70.5682 102.735 70.5445C102.76 70.5208 102.789 70.4986 102.816 70.4749L102.872 70.4275C102.912 70.3943 102.947 70.3658 102.983 70.3358C102.988 70.3326 102.991 70.3279 102.996 70.3247C103.039 70.2884 103.082 70.2536 103.127 70.2172L104.119 69.3934C104.127 69.3855 104.138 69.3761 104.146 69.3697C104.154 69.3634 104.162 69.3555 104.17 69.3492L104.34 69.2085C104.351 69.199 104.367 69.1863 104.383 69.1737C104.398 69.161 104.412 69.15 104.425 69.1389C104.449 69.1183 104.469 69.1009 104.492 69.0835L104.53 69.0503C104.54 69.0409 104.549 69.0329 104.56 69.0266C104.563 69.0235 104.567 69.0203 104.571 69.0171C104.573 69.0156 104.575 69.014 104.576 69.0124C104.584 69.0045 104.597 68.9934 104.61 68.9855L104.673 68.9318C104.673 68.9318 104.683 68.9239 104.688 68.9191C104.689 68.9191 104.691 68.9159 104.693 68.9144C104.694 68.9144 104.696 68.9112 104.699 68.9096L104.72 68.8922C104.731 68.8827 104.742 68.8733 104.753 68.8638C104.753 68.8638 104.756 68.8606 104.758 68.8606C104.766 68.8543 104.774 68.848 104.782 68.8416C104.787 68.8369 104.793 68.8321 104.798 68.8274L104.823 68.8069C104.841 68.7926 104.86 68.7752 104.878 68.761L104.905 68.7389C104.905 68.7389 104.921 68.7231 104.93 68.7167C104.932 68.7151 104.933 68.7136 104.935 68.712C104.984 68.6582 105.026 68.6108 105.059 68.5665C105.096 68.5207 105.126 68.4811 105.153 68.44C105.185 68.3973 105.208 68.3594 105.23 68.3214C105.263 68.2677 105.291 68.2155 105.316 68.1633C105.718 67.3238 105.268 66.4984 104.747 65.5418C104.619 65.3063 104.487 65.0643 104.366 64.8161C104.363 64.8098 104.358 64.8035 104.355 64.7971L94.2201 45.1644C93.9459 44.6347 93.45 44.2679 92.8616 44.162C92.2701 44.0545 91.6785 44.2189 91.2384 44.6126L86.168 48.831C86.2095 48.831 86.2493 48.8342 86.2908 48.8373C86.3896 48.8437 86.4917 48.8579 86.6033 48.8785C86.6049 48.8785 86.6081 48.8785 86.6097 48.8785C86.6177 48.8785 86.6272 48.8816 86.6368 48.8848C86.6767 48.8927 86.7309 48.9053 86.7835 48.9196C86.9047 48.9528 87.0115 48.9891 87.1103 49.0318C87.1566 49.0508 87.2076 49.0729 87.2618 49.0982C87.3766 49.1567 87.4739 49.2136 87.5648 49.2753C87.6094 49.3054 87.6509 49.337 87.6923 49.3686C87.7003 49.3733 87.7083 49.3797 87.7163 49.386C87.7625 49.4255 87.8008 49.4556 87.839 49.4903C87.8773 49.5251 87.9156 49.5599 87.9506 49.5979C87.9714 49.6184 87.9953 49.6453 88.0192 49.6722C88.0479 49.7022 88.075 49.7338 88.0989 49.767C88.1276 49.8018 88.1563 49.8382 88.1818 49.8746C88.2137 49.9172 88.2456 49.9631 88.2727 50.0105C88.2871 50.0311 88.2998 50.0501 88.311 50.0706L88.3094 50.0722ZM105.016 69.4693C105.016 69.4693 105.015 69.4693 105.013 69.4725C105.013 69.4725 105.015 69.4709 105.016 69.4693ZM104.85 68.7942C104.822 68.8084 104.801 68.8242 104.787 68.8369C104.807 68.8195 104.83 68.8037 104.85 68.7942Z" fill="black"/>
</g>
<path id="Vector_64" d="M105.153 69.2589C105.058 69.2589 104.964 69.2163 104.901 69.1356C104.795 68.9981 104.82 68.7988 104.959 68.6929L104.973 68.6818C105.112 68.5743 105.313 68.6012 105.42 68.7388C105.526 68.8763 105.501 69.0755 105.362 69.1815L105.348 69.1925C105.29 69.2368 105.222 69.2589 105.153 69.2589Z" fill="black"/>
<path id="Vector_65" d="M80.1889 40.2155C80.0996 40.2155 80.0119 40.1792 79.9497 40.108C79.8333 39.9768 79.846 39.7776 79.9784 39.6622L80.0167 39.629C80.149 39.5135 80.3499 39.5262 80.4663 39.6574C80.5827 39.7886 80.5699 39.9879 80.4376 40.1033L80.3993 40.1365C80.3387 40.1887 80.2638 40.2155 80.1889 40.2155Z" fill="black"/>
</g>
</g>
</g>
</g>
</g>
<defs>
<clipPath id="clip0_1338_135">
<rect width="100.404" height="140" fill="white" transform="translate(10 6)"/>
</clipPath>
</defs>
</svg>
