<svg width="24" height="24" viewBox="0 0 24 24" fill="none" xmlns="http://www.w3.org/2000/svg">
<g id="illustration / deriv / light / visible-photo-icon-kyc">
<path id="Vector" d="M22.5216 11.2258C22.3346 10.9945 17.7967 5.62402 11.9891 5.62402C6.18133 5.62402 1.64346 10.9945 1.45643 11.2258C1.08126 11.6709 1.08126 12.3295 1.45643 12.7746C1.64346 13.0059 6.18133 18.3764 11.9891 18.3764C17.7967 18.3764 22.3346 13.0059 22.5216 12.8249C22.9259 12.3719 22.9259 11.6788 22.5216 11.2258ZM13.7609 8.85234C14.2467 8.6835 14.7779 8.92425 14.9815 9.40548C15.2691 9.83862 15.1835 10.4247 14.7846 10.7531C14.2988 10.922 13.7676 10.6812 13.564 10.2C13.2764 9.76692 13.362 9.18079 13.7609 8.85234ZM11.9891 16.4253C7.93348 16.4253 4.52762 13.2473 3.34639 12.0002C4.7515 10.4954 6.42112 9.27399 8.26816 8.39977C7.22823 10.0133 7.30818 12.124 8.46706 13.6506C9.62594 15.1772 11.607 15.7815 13.3954 15.1539C15.1837 14.5262 16.3832 12.8057 16.3793 10.8738C16.3798 9.99392 16.1264 9.13336 15.6508 8.39977C17.4971 9.27544 19.1664 10.4966 20.5726 12.0002C19.4603 13.2473 16.0446 16.4253 11.9891 16.4253Z" fill="#C7E5E5"/>
</g>
</svg>
