<svg width="245" height="160" viewBox="0 0 245 160" fill="none" xmlns="http://www.w3.org/2000/svg">
<g id="illustration / deriv / light / ic-envelope" clip-path="url(#clip0_1184_367)">
<g id="Group" filter="url(#filter0_dd_1184_367)">
<path id="Vector" d="M229 32H16C13.7909 32 12 33.7909 12 36V124C12 126.209 13.7909 128 16 128H229C231.209 128 233 126.209 233 124V36C233 33.7909 231.209 32 229 32Z" fill="white"/>
<path id="Vector_2" d="M25.9441 97.208V99.192C25.9441 99.32 25.9228 99.4373 25.8801 99.544C25.8401 99.648 25.7801 99.7373 25.7001 99.812C25.6201 99.884 25.5228 99.9413 25.4081 99.984C25.2961 100.024 25.1681 100.044 25.0241 100.044C24.8854 100.044 24.7628 100.025 24.6561 99.988C24.5521 99.9507 24.4614 99.8973 24.3841 99.828C24.3094 99.7587 24.2481 99.676 24.2001 99.58C24.1521 99.484 24.1188 99.3773 24.1001 99.26L24.6681 99.148C24.7134 99.3907 24.8294 99.512 25.0161 99.512C25.1041 99.512 25.1788 99.484 25.2401 99.428C25.3041 99.372 25.3361 99.284 25.3361 99.164V97.696H24.4881V97.208H25.9441ZM27.3625 100.048C27.2078 100.048 27.0691 100.023 26.9465 99.972C26.8265 99.9213 26.7238 99.848 26.6385 99.752C26.5558 99.656 26.4918 99.54 26.4465 99.404C26.4011 99.268 26.3785 99.116 26.3785 98.948C26.3785 98.78 26.4011 98.628 26.4465 98.492C26.4918 98.356 26.5558 98.2413 26.6385 98.148C26.7238 98.052 26.8265 97.9787 26.9465 97.928C27.0691 97.8773 27.2078 97.852 27.3625 97.852C27.5171 97.852 27.6545 97.8773 27.7745 97.928C27.8971 97.9787 27.9998 98.052 28.0825 98.148C28.1678 98.2413 28.2331 98.356 28.2785 98.492C28.3238 98.628 28.3465 98.78 28.3465 98.948C28.3465 99.116 28.3238 99.268 28.2785 99.404C28.2331 99.54 28.1678 99.656 28.0825 99.752C27.9998 99.848 27.8971 99.9213 27.7745 99.972C27.6545 100.023 27.5171 100.048 27.3625 100.048ZM27.3625 99.58C27.4798 99.58 27.5705 99.544 27.6345 99.472C27.6985 99.4 27.7305 99.2973 27.7305 99.164V98.736C27.7305 98.6027 27.6985 98.5 27.6345 98.428C27.5705 98.356 27.4798 98.32 27.3625 98.32C27.2451 98.32 27.1545 98.356 27.0905 98.428C27.0265 98.5 26.9945 98.6027 26.9945 98.736V99.164C26.9945 99.2973 27.0265 99.4 27.0905 99.472C27.1545 99.544 27.2451 99.58 27.3625 99.58ZM28.7683 97.04H29.3603V98.256H29.3843C29.4216 98.1467 29.487 98.052 29.5803 97.972C29.6736 97.892 29.803 97.852 29.9683 97.852C30.1843 97.852 30.347 97.924 30.4563 98.068C30.5683 98.212 30.6243 98.4173 30.6243 98.684V100H30.0323V98.732C30.0323 98.596 30.011 98.496 29.9683 98.432C29.9256 98.3653 29.8496 98.332 29.7403 98.332C29.6923 98.332 29.6456 98.3387 29.6003 98.352C29.555 98.3627 29.5136 98.3813 29.4763 98.408C29.4416 98.4347 29.4136 98.468 29.3923 98.508C29.371 98.5453 29.3603 98.5893 29.3603 98.64V100H28.7683V97.04ZM31.1511 100V97.9H31.7431V98.256H31.7671C31.8044 98.1467 31.8698 98.052 31.9631 97.972C32.0564 97.892 32.1858 97.852 32.3511 97.852C32.5671 97.852 32.7298 97.924 32.8391 98.068C32.9511 98.212 33.0071 98.4173 33.0071 98.684V100H32.4151V98.732C32.4151 98.596 32.3938 98.496 32.3511 98.432C32.3084 98.3653 32.2324 98.332 32.1231 98.332C32.0751 98.332 32.0284 98.3387 31.9831 98.352C31.9378 98.3627 31.8964 98.3813 31.8591 98.408C31.8244 98.4347 31.7964 98.468 31.7751 98.508C31.7538 98.5453 31.7431 98.5893 31.7431 98.64V100H31.1511ZM36.2832 99.556H36.2632C36.2419 99.6973 36.1699 99.8147 36.0472 99.908C35.9246 100.001 35.7579 100.048 35.5472 100.048C35.3872 100.048 35.2379 100.017 35.0992 99.956C34.9606 99.8947 34.8392 99.804 34.7352 99.684C34.6312 99.564 34.5499 99.4147 34.4912 99.236C34.4326 99.0573 34.4032 98.8507 34.4032 98.616C34.4032 98.3813 34.4339 98.1733 34.4952 97.992C34.5566 97.8107 34.6419 97.6587 34.7512 97.536C34.8632 97.4133 34.9966 97.32 35.1512 97.256C35.3059 97.192 35.4779 97.16 35.6672 97.16C35.9179 97.16 36.1339 97.2147 36.3152 97.324C36.4966 97.4307 36.6392 97.592 36.7432 97.808L36.2472 98.092C36.2046 97.9827 36.1379 97.8907 36.0472 97.816C35.9566 97.7387 35.8299 97.7 35.6672 97.7C35.4779 97.7 35.3272 97.7547 35.2152 97.864C35.1032 97.9733 35.0472 98.1453 35.0472 98.38V98.828C35.0472 99.06 35.1032 99.232 35.2152 99.344C35.3272 99.4533 35.4779 99.508 35.6672 99.508C35.7419 99.508 35.8126 99.5 35.8792 99.484C35.9459 99.4653 36.0046 99.4387 36.0552 99.404C36.1059 99.3667 36.1446 99.3227 36.1712 99.272C36.2006 99.2213 36.2152 99.1613 36.2152 99.092V98.952H35.6952V98.444H36.7952V100H36.2832V99.556ZM38.2062 100.048C38.0516 100.048 37.9129 100.023 37.7902 99.972C37.6702 99.9213 37.5676 99.848 37.4822 99.752C37.3996 99.656 37.3356 99.54 37.2902 99.404C37.2449 99.268 37.2222 99.116 37.2222 98.948C37.2222 98.78 37.2449 98.628 37.2902 98.492C37.3356 98.356 37.3996 98.2413 37.4822 98.148C37.5676 98.052 37.6702 97.9787 37.7902 97.928C37.9129 97.8773 38.0516 97.852 38.2062 97.852C38.3609 97.852 38.4982 97.8773 38.6182 97.928C38.7409 97.9787 38.8436 98.052 38.9262 98.148C39.0116 98.2413 39.0769 98.356 39.1222 98.492C39.1676 98.628 39.1902 98.78 39.1902 98.948C39.1902 99.116 39.1676 99.268 39.1222 99.404C39.0769 99.54 39.0116 99.656 38.9262 99.752C38.8436 99.848 38.7409 99.9213 38.6182 99.972C38.4982 100.023 38.3609 100.048 38.2062 100.048ZM38.2062 99.58C38.3236 99.58 38.4142 99.544 38.4782 99.472C38.5422 99.4 38.5742 99.2973 38.5742 99.164V98.736C38.5742 98.6027 38.5422 98.5 38.4782 98.428C38.4142 98.356 38.3236 98.32 38.2062 98.32C38.0889 98.32 37.9982 98.356 37.9342 98.428C37.8702 98.5 37.8382 98.6027 37.8382 98.736V99.164C37.8382 99.2973 37.8702 99.4 37.9342 99.472C37.9982 99.544 38.0889 99.58 38.2062 99.58ZM39.612 100V97.9H40.204V98.256H40.228C40.2654 98.1467 40.3307 98.052 40.424 97.972C40.5174 97.892 40.6467 97.852 40.812 97.852C41.028 97.852 41.1907 97.924 41.3 98.068C41.412 98.212 41.468 98.4173 41.468 98.684V100H40.876V98.732C40.876 98.596 40.8547 98.496 40.812 98.432C40.7694 98.3653 40.6934 98.332 40.584 98.332C40.536 98.332 40.4894 98.3387 40.444 98.352C40.3987 98.3627 40.3574 98.3813 40.32 98.408C40.2854 98.4347 40.2574 98.468 40.236 98.508C40.2147 98.5453 40.204 98.5893 40.204 98.64V100H39.612ZM41.8749 100V99.532L42.9189 98.36H41.9109V97.9H43.6069V98.364L42.5589 99.54H43.6349V100H41.8749ZM45.6172 100C45.5105 100 45.4212 99.9667 45.3492 99.9C45.2798 99.8333 45.2358 99.744 45.2172 99.632H45.1932C45.1612 99.768 45.0905 99.872 44.9812 99.944C44.8718 100.013 44.7372 100.048 44.5772 100.048C44.3665 100.048 44.2052 99.992 44.0932 99.88C43.9812 99.768 43.9252 99.62 43.9252 99.436C43.9252 99.2147 44.0052 99.0507 44.1652 98.944C44.3278 98.8347 44.5478 98.78 44.8252 98.78H45.1572V98.648C45.1572 98.5467 45.1305 98.4667 45.0772 98.408C45.0238 98.3467 44.9345 98.316 44.8092 98.316C44.6918 98.316 44.5985 98.3413 44.5292 98.392C44.4598 98.4427 44.4025 98.5 44.3572 98.564L44.0052 98.252C44.0905 98.1267 44.1972 98.0293 44.3252 97.96C44.4558 97.888 44.6318 97.852 44.8532 97.852C45.1518 97.852 45.3758 97.9173 45.5252 98.048C45.6745 98.1787 45.7492 98.3693 45.7492 98.62V99.54H45.9452V100H45.6172ZM44.7972 99.636C44.8958 99.636 44.9798 99.6147 45.0492 99.572C45.1212 99.5293 45.1572 99.46 45.1572 99.364V99.116H44.8692C44.6372 99.116 44.5212 99.1947 44.5212 99.352V99.412C44.5212 99.4893 44.5452 99.5467 44.5932 99.584C44.6412 99.6187 44.7092 99.636 44.7972 99.636ZM46.9305 100C46.7278 100 46.5785 99.9507 46.4825 99.852C46.3892 99.7533 46.3425 99.6107 46.3425 99.424V97.04H46.9345V99.54H47.1985V100H46.9305ZM48.4294 100.048C48.2694 100.048 48.1268 100.023 48.0014 99.972C47.8761 99.9187 47.7694 99.8453 47.6814 99.752C47.5961 99.656 47.5308 99.54 47.4854 99.404C47.4428 99.268 47.4214 99.116 47.4214 98.948C47.4214 98.7827 47.4428 98.6333 47.4854 98.5C47.5281 98.364 47.5908 98.248 47.6734 98.152C47.7588 98.056 47.8628 97.9827 47.9854 97.932C48.1081 97.8787 48.2481 97.852 48.4054 97.852C48.5788 97.852 48.7268 97.8813 48.8494 97.94C48.9748 97.9987 49.0761 98.0773 49.1534 98.176C49.2334 98.2747 49.2908 98.3893 49.3254 98.52C49.3628 98.648 49.3814 98.7827 49.3814 98.924V99.1H48.0334V99.132C48.0334 99.2707 48.0708 99.3813 48.1454 99.464C48.2201 99.544 48.3374 99.584 48.4974 99.584C48.6201 99.584 48.7201 99.56 48.7974 99.512C48.8748 99.4613 48.9468 99.4013 49.0134 99.332L49.3094 99.7C49.2161 99.8093 49.0934 99.8947 48.9414 99.956C48.7921 100.017 48.6214 100.048 48.4294 100.048ZM48.4174 98.288C48.2974 98.288 48.2028 98.328 48.1334 98.408C48.0668 98.4853 48.0334 98.5893 48.0334 98.72V98.752H48.7694V98.716C48.7694 98.588 48.7401 98.4853 48.6814 98.408C48.6254 98.328 48.5374 98.288 48.4174 98.288ZM49.66 100V99.532L50.704 98.36H49.696V97.9H51.392V98.364L50.344 99.54H51.42V100H49.66Z" fill="#377CFC"/>
<path id="Vector_3" d="M24.3521 107V106.704H25.1321V104.456H25.1041L24.4001 105.112L24.2041 104.9L24.9441 104.208H25.4681V106.704H26.1881V107H24.3521ZM27.6025 107.048C27.4585 107.048 27.3279 107.024 27.2105 106.976C27.0959 106.925 26.9972 106.855 26.9145 106.764C26.8345 106.671 26.7732 106.557 26.7305 106.424C26.6879 106.291 26.6665 106.141 26.6665 105.976C26.6665 105.768 26.6972 105.573 26.7585 105.392C26.8199 105.208 26.8985 105.041 26.9945 104.892C27.0932 104.74 27.2012 104.607 27.3185 104.492C27.4359 104.375 27.5505 104.28 27.6625 104.208H28.0945C27.9452 104.317 27.8119 104.424 27.6945 104.528C27.5772 104.632 27.4745 104.741 27.3865 104.856C27.2985 104.968 27.2239 105.089 27.1625 105.22C27.1012 105.348 27.0519 105.493 27.0145 105.656L27.0345 105.664C27.1012 105.549 27.1865 105.455 27.2905 105.38C27.3972 105.303 27.5359 105.264 27.7065 105.264C27.8265 105.264 27.9372 105.284 28.0385 105.324C28.1399 105.364 28.2265 105.421 28.2985 105.496C28.3705 105.571 28.4265 105.661 28.4665 105.768C28.5092 105.875 28.5305 105.993 28.5305 106.124C28.5305 106.26 28.5079 106.385 28.4625 106.5C28.4199 106.612 28.3572 106.709 28.2745 106.792C28.1945 106.872 28.0972 106.935 27.9825 106.98C27.8679 107.025 27.7412 107.048 27.6025 107.048ZM27.5985 106.756C27.7825 106.756 27.9252 106.705 28.0265 106.604C28.1305 106.503 28.1825 106.357 28.1825 106.168V106.136C28.1825 105.947 28.1305 105.801 28.0265 105.7C27.9252 105.599 27.7825 105.548 27.5985 105.548C27.4145 105.548 27.2705 105.599 27.1665 105.7C27.0652 105.801 27.0145 105.947 27.0145 106.136V106.168C27.0145 106.357 27.0652 106.503 27.1665 106.604C27.2705 106.705 27.4145 106.756 27.5985 106.756ZM31.8623 105.736H30.4503V107H30.1143V104.208H30.4503V105.44H31.8623V104.208H32.1983V107H31.8623V105.736ZM34.4104 107C34.2904 107 34.2037 106.968 34.1504 106.904C34.0997 106.84 34.0677 106.76 34.0544 106.664H34.0344C33.9891 106.792 33.9144 106.888 33.8104 106.952C33.7064 107.016 33.5824 107.048 33.4384 107.048C33.2197 107.048 33.0491 106.992 32.9264 106.88C32.8064 106.768 32.7464 106.616 32.7464 106.424C32.7464 106.229 32.8171 106.08 32.9584 105.976C33.1024 105.872 33.3251 105.82 33.6264 105.82H34.0344V105.616C34.0344 105.469 33.9944 105.357 33.9144 105.28C33.8344 105.203 33.7117 105.164 33.5464 105.164C33.4211 105.164 33.3157 105.192 33.2304 105.248C33.1477 105.304 33.0784 105.379 33.0224 105.472L32.8304 105.292C32.8864 105.18 32.9757 105.085 33.0984 105.008C33.2211 104.928 33.3757 104.888 33.5624 104.888C33.8131 104.888 34.0077 104.949 34.1464 105.072C34.2851 105.195 34.3544 105.365 34.3544 105.584V106.72H34.5904V107H34.4104ZM33.4904 106.776C33.5704 106.776 33.6437 106.767 33.7104 106.748C33.7771 106.729 33.8344 106.703 33.8824 106.668C33.9304 106.633 33.9677 106.593 33.9944 106.548C34.0211 106.503 34.0344 106.453 34.0344 106.4V106.06H33.6104C33.4264 106.06 33.2917 106.087 33.2064 106.14C33.1237 106.193 33.0824 106.271 33.0824 106.372V106.456C33.0824 106.557 33.1184 106.636 33.1904 106.692C33.2651 106.748 33.3651 106.776 33.4904 106.776ZM35.0471 107V104.936H35.3671V105.316H35.3871C35.4245 105.217 35.4911 105.129 35.5871 105.052C35.6831 104.975 35.8151 104.936 35.9831 104.936H36.1071V105.256H35.9191C35.7458 105.256 35.6098 105.289 35.5111 105.356C35.4151 105.42 35.3671 105.501 35.3671 105.6V107H35.0471ZM36.5159 107V104.936H36.8359V105.272H36.8519C36.8759 105.219 36.9025 105.169 36.9319 105.124C36.9639 105.076 37.0012 105.035 37.0439 105C37.0892 104.965 37.1412 104.939 37.1999 104.92C37.2585 104.899 37.3279 104.888 37.4079 104.888C37.5439 104.888 37.6692 104.921 37.7839 104.988C37.8985 105.052 37.9839 105.159 38.0399 105.308H38.0479C38.0852 105.196 38.1545 105.099 38.2559 105.016C38.3599 104.931 38.4999 104.888 38.6759 104.888C38.8865 104.888 39.0505 104.957 39.1679 105.096C39.2879 105.232 39.3479 105.425 39.3479 105.676V107H39.0279V105.732C39.0279 105.548 38.9919 105.409 38.9199 105.316C38.8479 105.223 38.7332 105.176 38.5759 105.176C38.5119 105.176 38.4505 105.184 38.3919 105.2C38.3359 105.216 38.2852 105.24 38.2399 105.272C38.1945 105.304 38.1585 105.345 38.1319 105.396C38.1052 105.444 38.0919 105.501 38.0919 105.568V107H37.7719V105.732C37.7719 105.548 37.7359 105.409 37.6639 105.316C37.5919 105.223 37.4799 105.176 37.3279 105.176C37.2639 105.176 37.2025 105.184 37.1439 105.2C37.0852 105.216 37.0332 105.24 36.9879 105.272C36.9425 105.304 36.9052 105.345 36.8759 105.396C36.8492 105.444 36.8359 105.501 36.8359 105.568V107H36.5159ZM40.7881 107.048C40.6494 107.048 40.5227 107.023 40.4081 106.972C40.2934 106.921 40.1947 106.849 40.1121 106.756C40.0321 106.66 39.9694 106.547 39.9241 106.416C39.8787 106.283 39.8561 106.133 39.8561 105.968C39.8561 105.805 39.8787 105.657 39.9241 105.524C39.9694 105.391 40.0321 105.277 40.1121 105.184C40.1947 105.088 40.2934 105.015 40.4081 104.964C40.5227 104.913 40.6494 104.888 40.7881 104.888C40.9267 104.888 41.0521 104.913 41.1641 104.964C41.2787 105.015 41.3774 105.088 41.4601 105.184C41.5427 105.277 41.6067 105.391 41.6521 105.524C41.6974 105.657 41.7201 105.805 41.7201 105.968C41.7201 106.133 41.6974 106.283 41.6521 106.416C41.6067 106.547 41.5427 106.66 41.4601 106.756C41.3774 106.849 41.2787 106.921 41.1641 106.972C41.0521 107.023 40.9267 107.048 40.7881 107.048ZM40.7881 106.764C40.9614 106.764 41.1027 106.711 41.2121 106.604C41.3214 106.497 41.3761 106.335 41.3761 106.116V105.82C41.3761 105.601 41.3214 105.439 41.2121 105.332C41.1027 105.225 40.9614 105.172 40.7881 105.172C40.6147 105.172 40.4734 105.225 40.3641 105.332C40.2547 105.439 40.2001 105.601 40.2001 105.82V106.116C40.2001 106.335 40.2547 106.497 40.3641 106.604C40.4734 106.711 40.6147 106.764 40.7881 106.764ZM42.2464 107V104.936H42.5664V105.272H42.5824C42.633 105.155 42.7037 105.061 42.7944 104.992C42.8877 104.923 43.0117 104.888 43.1664 104.888C43.3797 104.888 43.5477 104.957 43.6704 105.096C43.7957 105.232 43.8584 105.425 43.8584 105.676V107H43.5384V105.732C43.5384 105.361 43.3824 105.176 43.0704 105.176C43.0064 105.176 42.9437 105.184 42.8824 105.2C42.8237 105.216 42.7704 105.24 42.7224 105.272C42.6744 105.304 42.6357 105.345 42.6064 105.396C42.5797 105.444 42.5664 105.501 42.5664 105.568V107H42.2464ZM45.7605 104.936H46.0765L45.1525 107.48C45.1285 107.541 45.1045 107.592 45.0805 107.632C45.0565 107.675 45.0272 107.708 44.9925 107.732C44.9579 107.756 44.9139 107.773 44.8605 107.784C44.8099 107.795 44.7472 107.8 44.6725 107.8H44.5085V107.52H44.8325L44.9885 107.08L44.2165 104.936H44.5365L45.0325 106.34L45.1285 106.676H45.1485L45.2605 106.34L45.7605 104.936ZM48.2459 107.048C48.0193 107.048 47.8259 107.005 47.6659 106.92C47.5059 106.832 47.3699 106.712 47.2579 106.56L47.5059 106.352C47.6046 106.483 47.7139 106.583 47.8339 106.652C47.9539 106.719 48.0953 106.752 48.2579 106.752C48.4579 106.752 48.6099 106.704 48.7139 106.608C48.8206 106.512 48.8739 106.384 48.8739 106.224C48.8739 106.091 48.8339 105.988 48.7539 105.916C48.6739 105.844 48.5419 105.787 48.3579 105.744L48.1299 105.692C47.8739 105.633 47.6779 105.545 47.5419 105.428C47.4086 105.308 47.3419 105.14 47.3419 104.924C47.3419 104.801 47.3646 104.692 47.4099 104.596C47.4553 104.5 47.5179 104.42 47.5979 104.356C47.6806 104.292 47.7779 104.244 47.8899 104.212C48.0046 104.177 48.1299 104.16 48.2659 104.16C48.4766 104.16 48.6566 104.199 48.8059 104.276C48.9579 104.353 49.0859 104.467 49.1899 104.616L48.9379 104.8C48.8606 104.693 48.7673 104.609 48.6579 104.548C48.5486 104.487 48.4126 104.456 48.2499 104.456C48.0713 104.456 47.9299 104.495 47.8259 104.572C47.7246 104.647 47.6739 104.76 47.6739 104.912C47.6739 105.045 47.7166 105.147 47.8019 105.216C47.8899 105.283 48.0219 105.336 48.1979 105.376L48.4259 105.428C48.7006 105.489 48.8993 105.583 49.0219 105.708C49.1446 105.833 49.2059 106 49.2059 106.208C49.2059 106.336 49.1833 106.452 49.1379 106.556C49.0953 106.66 49.0326 106.748 48.9499 106.82C48.8673 106.892 48.7659 106.948 48.6459 106.988C48.5286 107.028 48.3953 107.048 48.2459 107.048ZM50.2102 107C50.0982 107 50.0128 106.969 49.9542 106.908C49.8982 106.844 49.8702 106.761 49.8702 106.66V105.216H49.5302V104.936H49.7222C49.7915 104.936 49.8382 104.923 49.8622 104.896C49.8888 104.867 49.9022 104.817 49.9022 104.748V104.364H50.1902V104.936H50.6422V105.216H50.1902V106.72H50.6102V107H50.2102ZM51.3605 107.048C51.2752 107.048 51.2125 107.027 51.1725 106.984C51.1352 106.941 51.1165 106.885 51.1165 106.816V106.764C51.1165 106.695 51.1352 106.639 51.1725 106.596C51.2125 106.553 51.2752 106.532 51.3605 106.532C51.4458 106.532 51.5072 106.553 51.5445 106.596C51.5845 106.639 51.6045 106.695 51.6045 106.764V106.816C51.6045 106.885 51.5845 106.941 51.5445 106.984C51.5072 107.027 51.4458 107.048 51.3605 107.048Z" fill="#377CFC"/>
<path id="Vector_4" d="M25.3559 112.048C25.0012 112.048 24.7252 111.928 24.5279 111.688C24.3306 111.445 24.2319 111.089 24.2319 110.62C24.2319 110.151 24.3306 109.791 24.5279 109.54C24.7252 109.287 25.0012 109.16 25.3559 109.16C25.5906 109.16 25.7866 109.213 25.9439 109.32C26.1039 109.427 26.2279 109.577 26.3159 109.772L26.0439 109.936C25.9879 109.792 25.9026 109.677 25.7879 109.592C25.6732 109.504 25.5292 109.46 25.3559 109.46C25.2359 109.46 25.1279 109.483 25.0319 109.528C24.9386 109.573 24.8586 109.639 24.7919 109.724C24.7279 109.807 24.6786 109.907 24.6439 110.024C24.6092 110.139 24.5919 110.268 24.5919 110.412V110.828C24.5919 111.116 24.6586 111.341 24.7919 111.504C24.9252 111.667 25.1132 111.748 25.3559 111.748C25.5346 111.748 25.6839 111.703 25.8039 111.612C25.9239 111.519 26.0119 111.396 26.0679 111.244L26.3359 111.412C26.2479 111.609 26.1212 111.765 25.9559 111.88C25.7906 111.992 25.5906 112.048 25.3559 112.048ZM27.6043 112.048C27.4656 112.048 27.3389 112.023 27.2243 111.972C27.1096 111.921 27.0109 111.849 26.9283 111.756C26.8483 111.66 26.7856 111.547 26.7403 111.416C26.6949 111.283 26.6723 111.133 26.6723 110.968C26.6723 110.805 26.6949 110.657 26.7403 110.524C26.7856 110.391 26.8483 110.277 26.9283 110.184C27.0109 110.088 27.1096 110.015 27.2243 109.964C27.3389 109.913 27.4656 109.888 27.6043 109.888C27.7429 109.888 27.8683 109.913 27.9803 109.964C28.0949 110.015 28.1936 110.088 28.2763 110.184C28.3589 110.277 28.4229 110.391 28.4683 110.524C28.5136 110.657 28.5363 110.805 28.5363 110.968C28.5363 111.133 28.5136 111.283 28.4683 111.416C28.4229 111.547 28.3589 111.66 28.2763 111.756C28.1936 111.849 28.0949 111.921 27.9803 111.972C27.8683 112.023 27.7429 112.048 27.6043 112.048ZM27.6043 111.764C27.7776 111.764 27.9189 111.711 28.0283 111.604C28.1376 111.497 28.1923 111.335 28.1923 111.116V110.82C28.1923 110.601 28.1376 110.439 28.0283 110.332C27.9189 110.225 27.7776 110.172 27.6043 110.172C27.4309 110.172 27.2896 110.225 27.1803 110.332C27.0709 110.439 27.0163 110.601 27.0163 110.82V111.116C27.0163 111.335 27.0709 111.497 27.1803 111.604C27.2896 111.711 27.4309 111.764 27.6043 111.764ZM29.6826 112.048C29.4906 112.048 29.3292 112.012 29.1986 111.94C29.0706 111.865 28.9599 111.767 28.8666 111.644L29.0946 111.46C29.1746 111.561 29.2639 111.64 29.3626 111.696C29.4612 111.749 29.5759 111.776 29.7066 111.776C29.8426 111.776 29.9479 111.747 30.0226 111.688C30.0999 111.629 30.1386 111.547 30.1386 111.44C30.1386 111.36 30.1119 111.292 30.0586 111.236C30.0079 111.177 29.9146 111.137 29.7786 111.116L29.6146 111.092C29.5186 111.079 29.4306 111.059 29.3506 111.032C29.2706 111.003 29.1999 110.965 29.1386 110.92C29.0799 110.872 29.0332 110.813 28.9986 110.744C28.9666 110.675 28.9506 110.592 28.9506 110.496C28.9506 110.395 28.9692 110.307 29.0066 110.232C29.0439 110.155 29.0946 110.091 29.1586 110.04C29.2252 109.989 29.3039 109.952 29.3946 109.928C29.4852 109.901 29.5826 109.888 29.6866 109.888C29.8546 109.888 29.9946 109.917 30.1066 109.976C30.2212 110.035 30.3212 110.116 30.4066 110.22L30.1946 110.412C30.1492 110.348 30.0826 110.291 29.9946 110.24C29.9066 110.187 29.7959 110.16 29.6626 110.16C29.5292 110.16 29.4279 110.189 29.3586 110.248C29.2919 110.304 29.2586 110.381 29.2586 110.48C29.2586 110.581 29.2919 110.655 29.3586 110.7C29.4279 110.745 29.5266 110.779 29.6546 110.8L29.8146 110.824C30.0439 110.859 30.2066 110.925 30.3026 111.024C30.3986 111.12 30.4466 111.247 30.4466 111.404C30.4466 111.604 30.3786 111.761 30.2426 111.876C30.1066 111.991 29.9199 112.048 29.6826 112.048ZM31.0118 112V109.936H31.3318V110.272H31.3478C31.3718 110.219 31.3984 110.169 31.4278 110.124C31.4598 110.076 31.4971 110.035 31.5398 110C31.5851 109.965 31.6371 109.939 31.6958 109.92C31.7544 109.899 31.8238 109.888 31.9038 109.888C32.0398 109.888 32.1651 109.921 32.2798 109.988C32.3944 110.052 32.4798 110.159 32.5358 110.308H32.5438C32.5811 110.196 32.6504 110.099 32.7518 110.016C32.8558 109.931 32.9958 109.888 33.1718 109.888C33.3824 109.888 33.5464 109.957 33.6638 110.096C33.7838 110.232 33.8438 110.425 33.8438 110.676V112H33.5238V110.732C33.5238 110.548 33.4878 110.409 33.4158 110.316C33.3438 110.223 33.2291 110.176 33.0718 110.176C33.0078 110.176 32.9464 110.184 32.8878 110.2C32.8318 110.216 32.7811 110.24 32.7358 110.272C32.6904 110.304 32.6544 110.345 32.6278 110.396C32.6011 110.444 32.5878 110.501 32.5878 110.568V112H32.2678V110.732C32.2678 110.548 32.2318 110.409 32.1598 110.316C32.0878 110.223 31.9758 110.176 31.8238 110.176C31.7598 110.176 31.6984 110.184 31.6398 110.2C31.5811 110.216 31.5291 110.24 31.4838 110.272C31.4384 110.304 31.4011 110.345 31.3718 110.396C31.3451 110.444 31.3318 110.501 31.3318 110.568V112H31.0118ZM35.284 112.048C35.1453 112.048 35.0186 112.023 34.904 111.972C34.7893 111.921 34.6906 111.849 34.608 111.756C34.528 111.66 34.4653 111.547 34.42 111.416C34.3746 111.283 34.352 111.133 34.352 110.968C34.352 110.805 34.3746 110.657 34.42 110.524C34.4653 110.391 34.528 110.277 34.608 110.184C34.6906 110.088 34.7893 110.015 34.904 109.964C35.0186 109.913 35.1453 109.888 35.284 109.888C35.4226 109.888 35.548 109.913 35.66 109.964C35.7746 110.015 35.8733 110.088 35.956 110.184C36.0386 110.277 36.1026 110.391 36.148 110.524C36.1933 110.657 36.216 110.805 36.216 110.968C36.216 111.133 36.1933 111.283 36.148 111.416C36.1026 111.547 36.0386 111.66 35.956 111.756C35.8733 111.849 35.7746 111.921 35.66 111.972C35.548 112.023 35.4226 112.048 35.284 112.048ZM35.284 111.764C35.4573 111.764 35.5986 111.711 35.708 111.604C35.8173 111.497 35.872 111.335 35.872 111.116V110.82C35.872 110.601 35.8173 110.439 35.708 110.332C35.5986 110.225 35.4573 110.172 35.284 110.172C35.1106 110.172 34.9693 110.225 34.86 110.332C34.7506 110.439 34.696 110.601 34.696 110.82V111.116C34.696 111.335 34.7506 111.497 34.86 111.604C34.9693 111.711 35.1106 111.764 35.284 111.764ZM36.7422 109.936H37.0622V110.272H37.0782C37.1316 110.141 37.2089 110.045 37.3102 109.984C37.4142 109.92 37.5382 109.888 37.6822 109.888C37.8102 109.888 37.9262 109.913 38.0302 109.964C38.1342 110.015 38.2222 110.087 38.2942 110.18C38.3689 110.273 38.4249 110.387 38.4622 110.52C38.5022 110.653 38.5222 110.803 38.5222 110.968C38.5222 111.133 38.5022 111.283 38.4622 111.416C38.4249 111.549 38.3689 111.663 38.2942 111.756C38.2222 111.849 38.1342 111.921 38.0302 111.972C37.9262 112.023 37.8102 112.048 37.6822 112.048C37.4022 112.048 37.2009 111.92 37.0782 111.664H37.0622V112.8H36.7422V109.936ZM37.5942 111.76C37.7756 111.76 37.9182 111.704 38.0222 111.592C38.1262 111.477 38.1782 111.328 38.1782 111.144V110.792C38.1782 110.608 38.1262 110.46 38.0222 110.348C37.9182 110.233 37.7756 110.176 37.5942 110.176C37.5222 110.176 37.4529 110.187 37.3862 110.208C37.3222 110.227 37.2662 110.253 37.2182 110.288C37.1702 110.323 37.1316 110.365 37.1022 110.416C37.0756 110.464 37.0622 110.516 37.0622 110.572V111.34C37.0622 111.407 37.0756 111.467 37.1022 111.52C37.1316 111.571 37.1702 111.615 37.2182 111.652C37.2662 111.687 37.3222 111.713 37.3862 111.732C37.4529 111.751 37.5222 111.76 37.5942 111.76ZM39.8426 112.048C39.7039 112.048 39.5772 112.023 39.4626 111.972C39.3479 111.921 39.2492 111.849 39.1666 111.756C39.0866 111.66 39.0239 111.547 38.9786 111.416C38.9332 111.283 38.9106 111.133 38.9106 110.968C38.9106 110.805 38.9332 110.657 38.9786 110.524C39.0239 110.391 39.0866 110.277 39.1666 110.184C39.2492 110.088 39.3479 110.015 39.4626 109.964C39.5772 109.913 39.7039 109.888 39.8426 109.888C39.9812 109.888 40.1066 109.913 40.2186 109.964C40.3332 110.015 40.4319 110.088 40.5146 110.184C40.5972 110.277 40.6612 110.391 40.7066 110.524C40.7519 110.657 40.7746 110.805 40.7746 110.968C40.7746 111.133 40.7519 111.283 40.7066 111.416C40.6612 111.547 40.5972 111.66 40.5146 111.756C40.4319 111.849 40.3332 111.921 40.2186 111.972C40.1066 112.023 39.9812 112.048 39.8426 112.048ZM39.8426 111.764C40.0159 111.764 40.1572 111.711 40.2666 111.604C40.3759 111.497 40.4306 111.335 40.4306 111.116V110.82C40.4306 110.601 40.3759 110.439 40.2666 110.332C40.1572 110.225 40.0159 110.172 39.8426 110.172C39.6692 110.172 39.5279 110.225 39.4186 110.332C39.3092 110.439 39.2546 110.601 39.2546 110.82V111.116C39.2546 111.335 39.3092 111.497 39.4186 111.604C39.5279 111.711 39.6692 111.764 39.8426 111.764ZM41.6408 112C41.5288 112 41.4435 111.969 41.3848 111.908C41.3288 111.844 41.3008 111.764 41.3008 111.668V109.04H41.6208V111.72H41.9248V112H41.6408ZM42.5507 109.452C42.4813 109.452 42.4307 109.436 42.3987 109.404C42.3693 109.369 42.3547 109.325 42.3547 109.272V109.22C42.3547 109.167 42.3693 109.124 42.3987 109.092C42.4307 109.057 42.4813 109.04 42.5507 109.04C42.62 109.04 42.6693 109.057 42.6987 109.092C42.7307 109.124 42.7467 109.167 42.7467 109.22V109.272C42.7467 109.325 42.7307 109.369 42.6987 109.404C42.6693 109.436 42.62 109.452 42.5507 109.452ZM42.3907 109.936H42.7107V112H42.3907V109.936ZM44.0107 112.048C43.8187 112.048 43.6573 112.012 43.5267 111.94C43.3987 111.865 43.288 111.767 43.1947 111.644L43.4227 111.46C43.5027 111.561 43.592 111.64 43.6907 111.696C43.7893 111.749 43.904 111.776 44.0347 111.776C44.1707 111.776 44.276 111.747 44.3507 111.688C44.428 111.629 44.4667 111.547 44.4667 111.44C44.4667 111.36 44.44 111.292 44.3867 111.236C44.336 111.177 44.2427 111.137 44.1067 111.116L43.9427 111.092C43.8467 111.079 43.7587 111.059 43.6787 111.032C43.5987 111.003 43.528 110.965 43.4667 110.92C43.408 110.872 43.3613 110.813 43.3267 110.744C43.2947 110.675 43.2787 110.592 43.2787 110.496C43.2787 110.395 43.2973 110.307 43.3347 110.232C43.372 110.155 43.4227 110.091 43.4867 110.04C43.5533 109.989 43.632 109.952 43.7227 109.928C43.8133 109.901 43.9107 109.888 44.0147 109.888C44.1827 109.888 44.3227 109.917 44.4347 109.976C44.5493 110.035 44.6493 110.116 44.7347 110.22L44.5227 110.412C44.4773 110.348 44.4107 110.291 44.3227 110.24C44.2347 110.187 44.124 110.16 43.9907 110.16C43.8573 110.16 43.756 110.189 43.6867 110.248C43.62 110.304 43.5867 110.381 43.5867 110.48C43.5867 110.581 43.62 110.655 43.6867 110.7C43.756 110.745 43.8547 110.779 43.9827 110.8L44.1427 110.824C44.372 110.859 44.5347 110.925 44.6307 111.024C44.7267 111.12 44.7747 111.247 44.7747 111.404C44.7747 111.604 44.7067 111.761 44.5707 111.876C44.4347 111.991 44.248 112.048 44.0107 112.048ZM45.5244 111.532C45.6097 111.532 45.671 111.555 45.7084 111.6C45.7484 111.643 45.7684 111.699 45.7684 111.768V111.824C45.7684 111.933 45.7364 112.053 45.6724 112.184C45.6084 112.317 45.519 112.433 45.4044 112.532H45.1364C45.2164 112.447 45.2804 112.365 45.3284 112.288C45.379 112.213 45.415 112.129 45.4364 112.036C45.383 112.023 45.343 111.997 45.3164 111.96C45.2924 111.923 45.2804 111.877 45.2804 111.824V111.768C45.2804 111.699 45.299 111.643 45.3364 111.6C45.3764 111.555 45.439 111.532 45.5244 111.532ZM49.1955 111.592H49.1835C49.1489 111.723 49.0635 111.832 48.9275 111.92C48.7942 112.005 48.6209 112.048 48.4075 112.048C48.2369 112.048 48.0795 112.017 47.9355 111.956C47.7942 111.892 47.6729 111.8 47.5715 111.68C47.4702 111.557 47.3902 111.407 47.3315 111.228C47.2755 111.047 47.2475 110.839 47.2475 110.604C47.2475 110.372 47.2755 110.167 47.3315 109.988C47.3875 109.807 47.4675 109.656 47.5715 109.536C47.6755 109.413 47.8009 109.32 47.9475 109.256C48.0942 109.192 48.2569 109.16 48.4355 109.16C48.6862 109.16 48.8955 109.216 49.0635 109.328C49.2315 109.44 49.3609 109.588 49.4515 109.772L49.1755 109.94C49.1115 109.791 49.0155 109.673 48.8875 109.588C48.7622 109.503 48.6115 109.46 48.4355 109.46C48.3129 109.46 48.2009 109.483 48.0995 109.528C47.9982 109.571 47.9102 109.632 47.8355 109.712C47.7635 109.792 47.7075 109.888 47.6675 110C47.6275 110.112 47.6075 110.237 47.6075 110.376V110.828C47.6075 110.967 47.6275 111.093 47.6675 111.208C47.7075 111.32 47.7635 111.416 47.8355 111.496C47.9102 111.576 48.0009 111.639 48.1075 111.684C48.2142 111.727 48.3342 111.748 48.4675 111.748C48.5635 111.748 48.6542 111.736 48.7395 111.712C48.8275 111.685 48.9035 111.647 48.9675 111.596C49.0342 111.545 49.0862 111.483 49.1235 111.408C49.1609 111.331 49.1795 111.24 49.1795 111.136V110.86H48.5635V110.564H49.5075V112H49.1955V111.592ZM50.4768 112C50.3648 112 50.2794 111.969 50.2208 111.908C50.1648 111.844 50.1368 111.764 50.1368 111.668V109.04H50.4568V111.72H50.7608V112H50.4768ZM52.0066 112.048C51.868 112.048 51.7413 112.023 51.6266 111.972C51.512 111.921 51.4133 111.849 51.3306 111.756C51.2506 111.66 51.188 111.547 51.1426 111.416C51.0973 111.283 51.0746 111.133 51.0746 110.968C51.0746 110.805 51.0973 110.657 51.1426 110.524C51.188 110.391 51.2506 110.277 51.3306 110.184C51.4133 110.088 51.512 110.015 51.6266 109.964C51.7413 109.913 51.868 109.888 52.0066 109.888C52.1453 109.888 52.2706 109.913 52.3826 109.964C52.4973 110.015 52.596 110.088 52.6786 110.184C52.7613 110.277 52.8253 110.391 52.8706 110.524C52.916 110.657 52.9386 110.805 52.9386 110.968C52.9386 111.133 52.916 111.283 52.8706 111.416C52.8253 111.547 52.7613 111.66 52.6786 111.756C52.596 111.849 52.4973 111.921 52.3826 111.972C52.2706 112.023 52.1453 112.048 52.0066 112.048ZM52.0066 111.764C52.18 111.764 52.3213 111.711 52.4306 111.604C52.54 111.497 52.5946 111.335 52.5946 111.116V110.82C52.5946 110.601 52.54 110.439 52.4306 110.332C52.3213 110.225 52.18 110.172 52.0066 110.172C51.8333 110.172 51.692 110.225 51.5826 110.332C51.4733 110.439 51.4186 110.601 51.4186 110.82V111.116C51.4186 111.335 51.4733 111.497 51.5826 111.604C51.692 111.711 51.8333 111.764 52.0066 111.764ZM53.4649 109.04H53.7849V110.272H53.8009C53.8542 110.141 53.9316 110.045 54.0329 109.984C54.1369 109.92 54.2609 109.888 54.4049 109.888C54.5329 109.888 54.6489 109.913 54.7529 109.964C54.8569 110.015 54.9449 110.087 55.0169 110.18C55.0916 110.273 55.1476 110.387 55.1849 110.52C55.2249 110.653 55.2449 110.803 55.2449 110.968C55.2449 111.133 55.2249 111.283 55.1849 111.416C55.1476 111.549 55.0916 111.663 55.0169 111.756C54.9449 111.849 54.8569 111.921 54.7529 111.972C54.6489 112.023 54.5329 112.048 54.4049 112.048C54.1249 112.048 53.9236 111.92 53.8009 111.664H53.7849V112H53.4649V109.04ZM54.3169 111.76C54.4982 111.76 54.6409 111.704 54.7449 111.592C54.8489 111.477 54.9009 111.328 54.9009 111.144V110.792C54.9009 110.608 54.8489 110.46 54.7449 110.348C54.6409 110.233 54.4982 110.176 54.3169 110.176C54.2449 110.176 54.1756 110.187 54.1089 110.208C54.0449 110.227 53.9889 110.253 53.9409 110.288C53.8929 110.323 53.8542 110.365 53.8249 110.416C53.7982 110.464 53.7849 110.516 53.7849 110.572V111.34C53.7849 111.407 53.7982 111.467 53.8249 111.52C53.8542 111.571 53.8929 111.615 53.9409 111.652C53.9889 111.687 54.0449 111.713 54.1089 111.732C54.1756 111.751 54.2449 111.76 54.3169 111.76ZM57.2852 112C57.1652 112 57.0785 111.968 57.0252 111.904C56.9745 111.84 56.9425 111.76 56.9292 111.664H56.9092C56.8639 111.792 56.7892 111.888 56.6852 111.952C56.5812 112.016 56.4572 112.048 56.3132 112.048C56.0945 112.048 55.9239 111.992 55.8012 111.88C55.6812 111.768 55.6212 111.616 55.6212 111.424C55.6212 111.229 55.6919 111.08 55.8332 110.976C55.9772 110.872 56.1999 110.82 56.5012 110.82H56.9092V110.616C56.9092 110.469 56.8692 110.357 56.7892 110.28C56.7092 110.203 56.5865 110.164 56.4212 110.164C56.2959 110.164 56.1905 110.192 56.1052 110.248C56.0225 110.304 55.9532 110.379 55.8972 110.472L55.7052 110.292C55.7612 110.18 55.8505 110.085 55.9732 110.008C56.0959 109.928 56.2505 109.888 56.4372 109.888C56.6879 109.888 56.8825 109.949 57.0212 110.072C57.1599 110.195 57.2292 110.365 57.2292 110.584V111.72H57.4652V112H57.2852ZM56.3652 111.776C56.4452 111.776 56.5185 111.767 56.5852 111.748C56.6519 111.729 56.7092 111.703 56.7572 111.668C56.8052 111.633 56.8425 111.593 56.8692 111.548C56.8959 111.503 56.9092 111.453 56.9092 111.4V111.06H56.4852C56.3012 111.06 56.1665 111.087 56.0812 111.14C55.9985 111.193 55.9572 111.271 55.9572 111.372V111.456C55.9572 111.557 55.9932 111.636 56.0652 111.692C56.1399 111.748 56.2399 111.776 56.3652 111.776ZM58.2619 112C58.1499 112 58.0646 111.969 58.0059 111.908C57.9499 111.844 57.9219 111.764 57.9219 111.668V109.04H58.2419V111.72H58.5459V112H58.2619ZM60.7731 112.048C60.5464 112.048 60.3531 112.005 60.1931 111.92C60.0331 111.832 59.8971 111.712 59.7851 111.56L60.0331 111.352C60.1318 111.483 60.2411 111.583 60.3611 111.652C60.4811 111.719 60.6224 111.752 60.7851 111.752C60.9851 111.752 61.1371 111.704 61.2411 111.608C61.3478 111.512 61.4011 111.384 61.4011 111.224C61.4011 111.091 61.3611 110.988 61.2811 110.916C61.2011 110.844 61.0691 110.787 60.8851 110.744L60.6571 110.692C60.4011 110.633 60.2051 110.545 60.0691 110.428C59.9358 110.308 59.8691 110.14 59.8691 109.924C59.8691 109.801 59.8918 109.692 59.9371 109.596C59.9824 109.5 60.0451 109.42 60.1251 109.356C60.2078 109.292 60.3051 109.244 60.4171 109.212C60.5318 109.177 60.6571 109.16 60.7931 109.16C61.0038 109.16 61.1838 109.199 61.3331 109.276C61.4851 109.353 61.6131 109.467 61.7171 109.616L61.4651 109.8C61.3878 109.693 61.2944 109.609 61.1851 109.548C61.0758 109.487 60.9398 109.456 60.7771 109.456C60.5984 109.456 60.4571 109.495 60.3531 109.572C60.2518 109.647 60.2011 109.76 60.2011 109.912C60.2011 110.045 60.2438 110.147 60.3291 110.216C60.4171 110.283 60.5491 110.336 60.7251 110.376L60.9531 110.428C61.2278 110.489 61.4264 110.583 61.5491 110.708C61.6718 110.833 61.7331 111 61.7331 111.208C61.7331 111.336 61.7104 111.452 61.6651 111.556C61.6224 111.66 61.5598 111.748 61.4771 111.82C61.3944 111.892 61.2931 111.948 61.1731 111.988C61.0558 112.028 60.9224 112.048 60.7731 112.048ZM62.7373 112C62.6253 112 62.54 111.969 62.4813 111.908C62.4253 111.844 62.3973 111.761 62.3973 111.66V110.216H62.0573V109.936H62.2493C62.3186 109.936 62.3653 109.923 62.3893 109.896C62.416 109.867 62.4293 109.817 62.4293 109.748V109.364H62.7173V109.936H63.1693V110.216H62.7173V111.72H63.1373V112H62.7373ZM65.1837 112C65.0637 112 64.977 111.968 64.9237 111.904C64.873 111.84 64.841 111.76 64.8277 111.664H64.8077C64.7623 111.792 64.6877 111.888 64.5837 111.952C64.4797 112.016 64.3557 112.048 64.2117 112.048C63.993 112.048 63.8223 111.992 63.6997 111.88C63.5797 111.768 63.5197 111.616 63.5197 111.424C63.5197 111.229 63.5903 111.08 63.7317 110.976C63.8757 110.872 64.0983 110.82 64.3996 110.82H64.8077V110.616C64.8077 110.469 64.7677 110.357 64.6877 110.28C64.6077 110.203 64.485 110.164 64.3197 110.164C64.1943 110.164 64.089 110.192 64.0037 110.248C63.921 110.304 63.8517 110.379 63.7957 110.472L63.6037 110.292C63.6597 110.18 63.749 110.085 63.8716 110.008C63.9943 109.928 64.149 109.888 64.3357 109.888C64.5863 109.888 64.781 109.949 64.9197 110.072C65.0583 110.195 65.1277 110.365 65.1277 110.584V111.72H65.3636V112H65.1837ZM64.2637 111.776C64.3437 111.776 64.417 111.767 64.4837 111.748C64.5503 111.729 64.6077 111.703 64.6557 111.668C64.7037 111.633 64.741 111.593 64.7677 111.548C64.7943 111.503 64.8077 111.453 64.8077 111.4V111.06H64.3837C64.1997 111.06 64.065 111.087 63.9797 111.14C63.897 111.193 63.8557 111.271 63.8557 111.372V111.456C63.8557 111.557 63.8917 111.636 63.9637 111.692C64.0383 111.748 64.1383 111.776 64.2637 111.776ZM66.2764 112C66.1644 112 66.079 111.969 66.0204 111.908C65.9644 111.844 65.9364 111.761 65.9364 111.66V110.216H65.5964V109.936H65.7884C65.8577 109.936 65.9044 109.923 65.9284 109.896C65.955 109.867 65.9684 109.817 65.9684 109.748V109.364H66.2564V109.936H66.7084V110.216H66.2564V111.72H66.6764V112H66.2764ZM67.9831 112.048C67.8418 112.048 67.7138 112.023 67.5991 111.972C67.4871 111.921 67.3898 111.849 67.3071 111.756C67.2271 111.66 67.1644 111.547 67.1191 111.416C67.0764 111.283 67.0551 111.133 67.0551 110.968C67.0551 110.805 67.0764 110.657 67.1191 110.524C67.1644 110.391 67.2271 110.277 67.3071 110.184C67.3898 110.088 67.4871 110.015 67.5991 109.964C67.7138 109.913 67.8418 109.888 67.9831 109.888C68.1218 109.888 68.2458 109.913 68.3551 109.964C68.4644 110.015 68.5578 110.085 68.6351 110.176C68.7124 110.264 68.7711 110.369 68.8111 110.492C68.8538 110.615 68.8751 110.749 68.8751 110.896V111.048H67.3911V111.144C67.3911 111.232 67.4044 111.315 67.4311 111.392C67.4604 111.467 67.5004 111.532 67.5511 111.588C67.6044 111.644 67.6684 111.688 67.7431 111.72C67.8204 111.752 67.9071 111.768 68.0031 111.768C68.1338 111.768 68.2471 111.737 68.3431 111.676C68.4418 111.615 68.5178 111.527 68.5711 111.412L68.7991 111.576C68.7324 111.717 68.6284 111.832 68.4871 111.92C68.3458 112.005 68.1778 112.048 67.9831 112.048ZM67.9831 110.156C67.8951 110.156 67.8151 110.172 67.7431 110.204C67.6711 110.233 67.6084 110.276 67.5551 110.332C67.5044 110.388 67.4644 110.455 67.4351 110.532C67.4058 110.607 67.3911 110.689 67.3911 110.78V110.808H68.5311V110.764C68.5311 110.58 68.4804 110.433 68.3791 110.324C68.2804 110.212 68.1484 110.156 67.9831 110.156Z" fill="#377CFC"/>
<path id="Vector_5" d="M25.044 115.392C25.2333 115.392 25.3747 115.349 25.468 115.264C25.564 115.176 25.612 115.064 25.612 114.928V114.9C25.612 114.753 25.5653 114.644 25.472 114.572C25.3813 114.497 25.2613 114.46 25.112 114.46C24.968 114.46 24.8507 114.492 24.76 114.556C24.6693 114.617 24.5947 114.701 24.536 114.808L24.288 114.616C24.3227 114.56 24.364 114.505 24.412 114.452C24.4627 114.396 24.5213 114.347 24.588 114.304C24.6547 114.261 24.732 114.227 24.82 114.2C24.908 114.173 25.008 114.16 25.12 114.16C25.2373 114.16 25.348 114.176 25.452 114.208C25.556 114.237 25.6453 114.283 25.72 114.344C25.7973 114.403 25.8573 114.476 25.9 114.564C25.9453 114.652 25.968 114.752 25.968 114.864C25.968 114.955 25.9533 115.036 25.924 115.108C25.8973 115.18 25.86 115.243 25.812 115.296C25.764 115.349 25.7067 115.395 25.64 115.432C25.576 115.469 25.5067 115.497 25.432 115.516V115.532C25.5067 115.548 25.5787 115.575 25.648 115.612C25.72 115.647 25.7827 115.693 25.836 115.752C25.892 115.808 25.936 115.877 25.968 115.96C26.0027 116.04 26.02 116.132 26.02 116.236C26.02 116.356 25.9973 116.467 25.952 116.568C25.9067 116.667 25.8427 116.752 25.76 116.824C25.6773 116.893 25.5773 116.948 25.46 116.988C25.3427 117.028 25.2133 117.048 25.072 117.048C24.952 117.048 24.8453 117.035 24.752 117.008C24.6587 116.981 24.576 116.945 24.504 116.9C24.432 116.855 24.368 116.804 24.312 116.748C24.2587 116.692 24.2107 116.633 24.168 116.572L24.42 116.38C24.4547 116.436 24.492 116.487 24.532 116.532C24.5747 116.577 24.6213 116.616 24.672 116.648C24.7227 116.68 24.78 116.705 24.844 116.724C24.908 116.74 24.9827 116.748 25.068 116.748C25.2653 116.748 25.4147 116.704 25.516 116.616C25.6173 116.525 25.668 116.397 25.668 116.232V116.2C25.668 116.035 25.6173 115.908 25.516 115.82C25.4147 115.729 25.2653 115.684 25.068 115.684H24.74V115.392H25.044ZM27.4424 115.392C27.6318 115.392 27.7731 115.349 27.8664 115.264C27.9624 115.176 28.0104 115.064 28.0104 114.928V114.9C28.0104 114.753 27.9638 114.644 27.8704 114.572C27.7798 114.497 27.6598 114.46 27.5104 114.46C27.3664 114.46 27.2491 114.492 27.1584 114.556C27.0678 114.617 26.9931 114.701 26.9344 114.808L26.6864 114.616C26.7211 114.56 26.7624 114.505 26.8104 114.452C26.8611 114.396 26.9198 114.347 26.9864 114.304C27.0531 114.261 27.1304 114.227 27.2184 114.2C27.3064 114.173 27.4064 114.16 27.5184 114.16C27.6358 114.16 27.7464 114.176 27.8504 114.208C27.9544 114.237 28.0438 114.283 28.1184 114.344C28.1958 114.403 28.2558 114.476 28.2984 114.564C28.3438 114.652 28.3664 114.752 28.3664 114.864C28.3664 114.955 28.3518 115.036 28.3224 115.108C28.2958 115.18 28.2584 115.243 28.2104 115.296C28.1624 115.349 28.1051 115.395 28.0384 115.432C27.9744 115.469 27.9051 115.497 27.8304 115.516V115.532C27.9051 115.548 27.9771 115.575 28.0464 115.612C28.1184 115.647 28.1811 115.693 28.2344 115.752C28.2904 115.808 28.3344 115.877 28.3664 115.96C28.4011 116.04 28.4184 116.132 28.4184 116.236C28.4184 116.356 28.3958 116.467 28.3504 116.568C28.3051 116.667 28.2411 116.752 28.1584 116.824C28.0758 116.893 27.9758 116.948 27.8584 116.988C27.7411 117.028 27.6118 117.048 27.4704 117.048C27.3504 117.048 27.2438 117.035 27.1504 117.008C27.0571 116.981 26.9744 116.945 26.9024 116.9C26.8304 116.855 26.7664 116.804 26.7104 116.748C26.6571 116.692 26.6091 116.633 26.5664 116.572L26.8184 116.38C26.8531 116.436 26.8904 116.487 26.9304 116.532C26.9731 116.577 27.0198 116.616 27.0704 116.648C27.1211 116.68 27.1784 116.705 27.2424 116.724C27.3064 116.74 27.3811 116.748 27.4664 116.748C27.6638 116.748 27.8131 116.704 27.9144 116.616C28.0158 116.525 28.0664 116.397 28.0664 116.232V116.2C28.0664 116.035 28.0158 115.908 27.9144 115.82C27.8131 115.729 27.6638 115.684 27.4664 115.684H27.1384V115.392H27.4424ZM29.9969 117.048C29.6635 117.048 29.4195 116.921 29.2649 116.668C29.1129 116.415 29.0369 116.06 29.0369 115.604C29.0369 115.148 29.1129 114.793 29.2649 114.54C29.4195 114.287 29.6635 114.16 29.9969 114.16C30.3302 114.16 30.5729 114.287 30.7249 114.54C30.8795 114.793 30.9569 115.148 30.9569 115.604C30.9569 116.06 30.8795 116.415 30.7249 116.668C30.5729 116.921 30.3302 117.048 29.9969 117.048ZM29.9969 116.756C30.1062 116.756 30.1995 116.733 30.2769 116.688C30.3542 116.643 30.4169 116.579 30.4649 116.496C30.5129 116.413 30.5475 116.316 30.5689 116.204C30.5929 116.092 30.6049 115.968 30.6049 115.832V115.376C30.6049 115.24 30.5929 115.116 30.5689 115.004C30.5475 114.892 30.5129 114.795 30.4649 114.712C30.4169 114.629 30.3542 114.565 30.2769 114.52C30.1995 114.475 30.1062 114.452 29.9969 114.452C29.8875 114.452 29.7942 114.475 29.7169 114.52C29.6395 114.565 29.5769 114.629 29.5289 114.712C29.4809 114.795 29.4449 114.892 29.4209 115.004C29.3995 115.116 29.3889 115.24 29.3889 115.376V115.832C29.3889 115.968 29.3995 116.092 29.4209 116.204C29.4449 116.316 29.4809 116.413 29.5289 116.496C29.5769 116.579 29.6395 116.643 29.7169 116.688C29.7942 116.733 29.8875 116.756 29.9969 116.756ZM31.5473 117V116.704H32.3273V114.456H32.2993L31.5953 115.112L31.3993 114.9L32.1393 114.208H32.6633V116.704H33.3833V117H31.5473ZM34.7938 117.048C34.4604 117.048 34.2164 116.921 34.0618 116.668C33.9098 116.415 33.8338 116.06 33.8338 115.604C33.8338 115.148 33.9098 114.793 34.0618 114.54C34.2164 114.287 34.4604 114.16 34.7938 114.16C35.1271 114.16 35.3698 114.287 35.5218 114.54C35.6764 114.793 35.7538 115.148 35.7538 115.604C35.7538 116.06 35.6764 116.415 35.5218 116.668C35.3698 116.921 35.1271 117.048 34.7938 117.048ZM34.7938 116.756C34.9031 116.756 34.9964 116.733 35.0738 116.688C35.1511 116.643 35.2138 116.579 35.2618 116.496C35.3098 116.413 35.3444 116.316 35.3658 116.204C35.3898 116.092 35.4018 115.968 35.4018 115.832V115.376C35.4018 115.24 35.3898 115.116 35.3658 115.004C35.3444 114.892 35.3098 114.795 35.2618 114.712C35.2138 114.629 35.1511 114.565 35.0738 114.52C34.9964 114.475 34.9031 114.452 34.7938 114.452C34.6844 114.452 34.5911 114.475 34.5138 114.52C34.4364 114.565 34.3738 114.629 34.3258 114.712C34.2778 114.795 34.2418 114.892 34.2178 115.004C34.1964 115.116 34.1858 115.24 34.1858 115.376V115.832C34.1858 115.968 34.1964 116.092 34.2178 116.204C34.2418 116.316 34.2778 116.413 34.3258 116.496C34.3738 116.579 34.4364 116.643 34.5138 116.688C34.5911 116.733 34.6844 116.756 34.7938 116.756Z" fill="#377CFC"/>
<g id="Clip path group">
<mask id="mask0_1184_367" style="mask-type:luminance" maskUnits="userSpaceOnUse" x="176" y="42" width="48" height="35">
<g id="clip0_4473_9359">
<path id="Vector_6" d="M224 42H176V77H224V42Z" fill="white"/>
</g>
</mask>
<g mask="url(#mask0_1184_367)">
<g id="Group_2">
<path id="Vector_7" d="M224 43.6957V42.8027C223.559 42.8027 223.201 42.443 223.201 41.9985H222.153C222.153 42.443 221.795 42.8027 221.354 42.8027C220.913 42.8027 220.555 42.443 220.555 41.9985H219.506C219.506 42.443 219.148 42.8027 218.707 42.8027C218.266 42.8027 217.908 42.443 217.908 41.9985H216.86C216.86 42.443 216.502 42.8027 216.061 42.8027C215.62 42.8027 215.262 42.443 215.262 41.9985H214.214C214.214 42.443 213.856 42.8027 213.415 42.8027C212.974 42.8027 212.616 42.443 212.616 41.9985H211.568C211.568 42.443 211.21 42.8027 210.769 42.8027C210.328 42.8027 209.97 42.443 209.97 41.9985H208.921C208.921 42.443 208.563 42.8027 208.122 42.8027C207.681 42.8027 207.323 42.443 207.323 41.9985H206.275C206.275 42.443 205.917 42.8027 205.476 42.8027C205.035 42.8027 204.677 42.443 204.677 41.9985H203.629C203.629 42.443 203.271 42.8027 202.83 42.8027C202.389 42.8027 202.031 42.443 202.031 41.9985H200.983C200.983 42.443 200.625 42.8027 200.184 42.8027C199.743 42.8027 199.385 42.443 199.385 41.9985H198.336C198.336 42.443 197.978 42.8027 197.537 42.8027V43.6957C197.978 43.6957 198.336 44.0553 198.336 44.4998C198.336 44.9443 197.978 45.3039 197.537 45.3039V46.1969C197.978 46.1969 198.336 46.5565 198.336 47.001C198.336 47.4455 197.978 47.8052 197.537 47.8052V48.6982C197.978 48.6982 198.336 49.0578 198.336 49.5023C198.336 49.9468 197.978 50.3064 197.537 50.3064V51.1994C197.978 51.1994 198.336 51.5591 198.336 52.0035C198.336 52.448 197.978 52.8077 197.537 52.8077V53.7007C197.978 53.7007 198.336 54.0603 198.336 54.5048C198.336 54.9493 197.978 55.3089 197.537 55.3089V56.2019C197.978 56.2019 198.336 56.5616 198.336 57.006C198.336 57.4505 197.978 57.8102 197.537 57.8102V58.7032C197.978 58.7032 198.336 59.0628 198.336 59.5073C198.336 59.9518 197.978 60.3114 197.537 60.3114V61.2044C197.978 61.2044 198.336 61.5641 198.336 62.0085C198.336 62.453 197.978 62.8127 197.537 62.8127V63.7057C197.978 63.7057 198.336 64.0653 198.336 64.5098C198.336 64.9543 197.978 65.3139 197.537 65.3139V66.2069C197.978 66.2069 198.336 66.5666 198.336 67.011C198.336 67.4555 197.978 67.8152 197.537 67.8152V68.7082C197.978 68.7082 198.336 69.0678 198.336 69.5123C198.336 69.9568 197.978 70.3164 197.537 70.3164V71.2094C197.978 71.2094 198.336 71.5691 198.336 72.0135C198.336 72.458 197.978 72.8177 197.537 72.8177V73.7107C197.978 73.7107 198.336 74.0703 198.336 74.5148C198.336 74.9593 197.978 75.3189 197.537 75.3189V76.2119C197.978 76.2119 198.336 76.5716 198.336 77.016H199.385C199.385 76.5716 199.743 76.2119 200.184 76.2119C200.625 76.2119 200.983 76.5716 200.983 77.016H202.031C202.031 76.5716 202.389 76.2119 202.83 76.2119C203.271 76.2119 203.629 76.5716 203.629 77.016H204.677C204.677 76.5716 205.035 76.2119 205.476 76.2119C205.917 76.2119 206.275 76.5716 206.275 77.016H207.323C207.323 76.5716 207.681 76.2119 208.122 76.2119C208.563 76.2119 208.921 76.5716 208.921 77.016H209.97C209.97 76.5716 210.328 76.2119 210.769 76.2119C211.21 76.2119 211.568 76.5716 211.568 77.016H212.616C212.616 76.5716 212.974 76.2119 213.415 76.2119C213.856 76.2119 214.214 76.5716 214.214 77.016H215.262C215.262 76.5716 215.62 76.2119 216.061 76.2119C216.502 76.2119 216.86 76.5716 216.86 77.016H217.908C217.908 76.5716 218.266 76.2119 218.707 76.2119C219.148 76.2119 219.506 76.5716 219.506 77.016H220.555C220.555 76.5716 220.913 76.2119 221.354 76.2119C221.795 76.2119 222.153 76.5716 222.153 77.016H223.201C223.201 76.5716 223.559 76.2119 224 76.2119V75.3189C223.559 75.3189 223.201 74.9593 223.201 74.5148C223.201 74.0703 223.559 73.7107 224 73.7107V72.8177C223.559 72.8177 223.201 72.458 223.201 72.0135C223.201 71.5691 223.559 71.2094 224 71.2094V70.3164C223.559 70.3164 223.201 69.9568 223.201 69.5123C223.201 69.0678 223.559 68.7082 224 68.7082V67.8152C223.559 67.8152 223.201 67.4555 223.201 67.011C223.201 66.5666 223.559 66.2069 224 66.2069V65.3139C223.559 65.3139 223.201 64.9543 223.201 64.5098C223.201 64.0653 223.559 63.7057 224 63.7057V62.8127C223.559 62.8127 223.201 62.453 223.201 62.0085C223.201 61.5641 223.559 61.2044 224 61.2044V60.3114C223.559 60.3114 223.201 59.9518 223.201 59.5073C223.201 59.0628 223.559 58.7032 224 58.7032V57.8102C223.559 57.8102 223.201 57.4505 223.201 57.006C223.201 56.5616 223.559 56.2019 224 56.2019V55.3089C223.559 55.3089 223.201 54.9493 223.201 54.5048C223.201 54.0603 223.559 53.7007 224 53.7007V52.8077C223.559 52.8077 223.201 52.448 223.201 52.0035C223.201 51.5591 223.559 51.1994 224 51.1994V50.3064C223.559 50.3064 223.201 49.9468 223.201 49.5023C223.201 49.0578 223.559 48.6982 224 48.6982V47.8052C223.559 47.8052 223.201 47.4455 223.201 47.001C223.201 46.5565 223.559 46.1969 224 46.1969V45.3039C223.559 45.3039 223.201 44.9443 223.201 44.4998C223.201 44.0553 223.559 43.6957 224 43.6957Z" fill="#85ACB0"/>
<path id="Vector_8" d="M223.607 43.8695V42.994C223.174 42.994 222.823 42.6411 222.823 42.2061H221.795C221.795 42.6411 221.444 42.994 221.011 42.994C220.578 42.994 220.226 42.6411 220.226 42.2061H219.198C219.198 42.6411 218.847 42.994 218.414 42.994C217.981 42.994 217.63 42.6411 217.63 42.2061H216.601C216.601 42.6411 216.25 42.994 215.817 42.994C215.384 42.994 215.033 42.6411 215.033 42.2061H214.005C214.005 42.6411 213.654 42.994 213.221 42.994C212.788 42.994 212.436 42.6411 212.436 42.2061H211.408C211.408 42.6411 211.057 42.994 210.624 42.994C210.191 42.994 209.84 42.6411 209.84 42.2061H208.811C208.811 42.6411 208.46 42.994 208.027 42.994C207.594 42.994 207.243 42.6411 207.243 42.2061H206.215C206.215 42.6411 205.864 42.994 205.431 42.994C204.998 42.994 204.646 42.6411 204.646 42.2061H203.618C203.618 42.6411 203.267 42.994 202.834 42.994C202.401 42.994 202.05 42.6411 202.05 42.2061H201.022C201.022 42.6411 200.67 42.994 200.237 42.994C199.804 42.994 199.453 42.6411 199.453 42.2061H198.425C198.425 42.6411 198.074 42.994 197.641 42.994V43.8695C198.074 43.8695 198.425 44.2224 198.425 44.6575C198.425 45.0925 198.074 45.4454 197.641 45.4454V46.3209C198.074 46.3209 198.425 46.6738 198.425 47.1089C198.425 47.5439 198.074 47.8968 197.641 47.8968V48.7723C198.074 48.7723 198.425 49.1252 198.425 49.5603C198.425 49.9954 198.074 50.3483 197.641 50.3483V51.2238C198.074 51.2238 198.425 51.5767 198.425 52.0117C198.425 52.4468 198.074 52.7997 197.641 52.7997V53.6752C198.074 53.6752 198.425 54.0281 198.425 54.4631C198.425 54.8982 198.074 55.2511 197.641 55.2511V56.1266C198.074 56.1266 198.425 56.4795 198.425 56.9145C198.425 57.3496 198.074 57.7025 197.641 57.7025V58.578C198.074 58.578 198.425 58.9309 198.425 59.366C198.425 59.801 198.074 60.1539 197.641 60.1539V61.0294C198.074 61.0294 198.425 61.3823 198.425 61.8174C198.425 62.2524 198.074 62.6053 197.641 62.6053V63.4808C198.074 63.4808 198.425 63.8337 198.425 64.2688C198.425 64.7038 198.074 65.0567 197.641 65.0567V65.9322C198.074 65.9322 198.425 66.2851 198.425 66.7202C198.425 67.1553 198.074 67.5082 197.641 67.5082V68.3837C198.074 68.3837 198.425 68.7366 198.425 69.1716C198.425 69.6067 198.074 69.9596 197.641 69.9596V70.8351C198.074 70.8351 198.425 71.188 198.425 71.623C198.425 72.0581 198.074 72.411 197.641 72.411V73.2865C198.074 73.2865 198.425 73.6394 198.425 74.0744C198.425 74.5095 198.074 74.8624 197.641 74.8624V75.7379C198.074 75.7379 198.425 76.0908 198.425 76.5259H199.453C199.453 76.0908 199.804 75.7379 200.237 75.7379C200.67 75.7379 201.022 76.0908 201.022 76.5259H202.05C202.05 76.0908 202.401 75.7379 202.834 75.7379C203.267 75.7379 203.618 76.0908 203.618 76.5259H204.646C204.646 76.0908 204.998 75.7379 205.431 75.7379C205.864 75.7379 206.215 76.0908 206.215 76.5259H207.243C207.243 76.0908 207.594 75.7379 208.027 75.7379C208.46 75.7379 208.811 76.0908 208.811 76.5259H209.84C209.84 76.0908 210.191 75.7379 210.624 75.7379C211.057 75.7379 211.408 76.0908 211.408 76.5259H212.436C212.436 76.0908 212.788 75.7379 213.221 75.7379C213.654 75.7379 214.005 76.0908 214.005 76.5259H215.033C215.033 76.0908 215.384 75.7379 215.817 75.7379C216.25 75.7379 216.601 76.0908 216.601 76.5259H217.63C217.63 76.0908 217.981 75.7379 218.414 75.7379C218.847 75.7379 219.198 76.0908 219.198 76.5259H220.226C220.226 76.0908 220.578 75.7379 221.011 75.7379C221.444 75.7379 221.795 76.0908 221.795 76.5259H222.823C222.823 76.0908 223.174 75.7379 223.607 75.7379V74.8624C223.174 74.8624 222.823 74.5095 222.823 74.0744C222.823 73.6394 223.174 73.2865 223.607 73.2865V72.411C223.174 72.411 222.823 72.0581 222.823 71.623C222.823 71.188 223.174 70.8351 223.607 70.8351V69.9596C223.174 69.9596 222.823 69.6067 222.823 69.1716C222.823 68.7366 223.174 68.3837 223.607 68.3837V67.5082C223.174 67.5082 222.823 67.1553 222.823 66.7202C222.823 66.2851 223.174 65.9322 223.607 65.9322V65.0567C223.174 65.0567 222.823 64.7038 222.823 64.2688C222.823 63.8337 223.174 63.4808 223.607 63.4808V62.6053C223.174 62.6053 222.823 62.2524 222.823 61.8174C222.823 61.3823 223.174 61.0294 223.607 61.0294V60.1539C223.174 60.1539 222.823 59.801 222.823 59.366C222.823 58.9309 223.174 58.578 223.607 58.578V57.7025C223.174 57.7025 222.823 57.3496 222.823 56.9145C222.823 56.4795 223.174 56.1266 223.607 56.1266V55.2511C223.174 55.2511 222.823 54.8982 222.823 54.4631C222.823 54.0281 223.174 53.6752 223.607 53.6752V52.7997C223.174 52.7997 222.823 52.4468 222.823 52.0117C222.823 51.5767 223.174 51.2238 223.607 51.2238V50.3483C223.174 50.3483 222.823 49.9954 222.823 49.5603C222.823 49.1252 223.174 48.7723 223.607 48.7723V47.8968C223.174 47.8968 222.823 47.5439 222.823 47.1089C222.823 46.6738 223.174 46.3209 223.607 46.3209V45.4454C223.174 45.4454 222.823 45.0925 222.823 44.6575C222.823 44.2224 223.174 43.8695 223.607 43.8695Z" fill="white"/>
<path id="Vector_9" d="M221.844 44.0352H199.575V74.7802H221.844V44.0352Z" fill="#FFAD3A" fill-opacity="0.16"/>
<path id="Vector_10" d="M182.632 59.5747C182.653 59.6192 182.692 59.6583 182.739 59.696C183.273 59.6286 183.806 59.533 184.34 59.4172C184.358 59.3875 184.373 59.3592 184.38 59.331L184.274 59.1774C184.372 59.2259 184.393 59.2771 184.38 59.331L184.425 59.3983C184.462 59.3902 184.498 59.3821 184.534 59.3741C184.663 59.2313 184.747 59.1262 185.057 59.0589C185.045 59.1464 185.076 59.199 185.129 59.234C189.505 58.1483 193.864 56.0875 198.047 58.5915C198.572 58.4703 198.059 58.3894 198.665 58.3719C193.126 55.3871 187.936 58.7423 182.68 59.4427C182.697 59.4616 182.716 59.4926 182.739 59.5438L182.632 59.5761V59.5747Z" fill="#4BB4B3"/>
<path id="Vector_11" d="M176.155 58.3477C175.975 58.4217 176.412 58.5174 176.639 58.6049C176.763 58.6763 176.886 58.7437 177.009 58.807C177.015 58.7962 177.019 58.7841 177.021 58.7733C176.733 58.648 176.445 58.5079 176.155 58.3477Z" fill="#4BB4B3"/>
<path id="Vector_12" d="M179.727 59.6569C179.728 59.669 179.727 59.6798 179.728 59.6919C180.661 59.832 181.598 59.8239 182.534 59.7202C182.498 59.6932 182.462 59.6663 182.421 59.6434C182.503 59.6178 182.547 59.5114 182.592 59.4548C182.197 59.5047 181.803 59.541 181.409 59.5572C181.404 59.6259 181.337 59.6003 181.259 59.5612C180.927 59.5707 180.594 59.5666 180.26 59.5464L180.335 59.735L180.132 59.537C180.063 59.5316 179.994 59.5262 179.925 59.5195C179.948 59.568 179.969 59.6138 179.988 59.6569C179.936 59.6784 179.805 59.6461 179.727 59.6569Z" fill="#4BB4B3"/>
<path id="Vector_13" d="M179.727 59.6569C179.719 59.6004 179.7 59.5465 179.674 59.4926C179.284 59.4455 178.894 59.3741 178.503 59.2771C178.487 59.2838 178.472 59.2906 178.456 59.3L178.593 59.4428C178.952 59.5465 179.313 59.6273 179.672 59.6839C179.683 59.6677 179.701 59.6596 179.727 59.6569Z" fill="#4BB4B3"/>
<path id="Vector_14" d="M176 61.3662C176.122 61.4322 176.243 61.4942 176.365 61.5534C176.672 61.4484 176.52 61.4053 176 61.3662Z" fill="#4BB4B3"/>
<path id="Vector_15" d="M190.49 60.6981C193.055 60.2065 195.669 60.1849 198.362 61.6329C198.092 61.4766 198.604 61.4753 198.049 61.3339C195.922 60.0381 193.726 59.9681 191.477 60.352L191.481 60.4193L191.323 60.4691L191.357 60.3722C191.038 60.4287 190.717 60.4947 190.396 60.5675C190.454 60.6025 190.497 60.6348 190.49 60.6968V60.6981Z" fill="#4BB4B3"/>
<path id="Vector_16" d="M186.226 61.7864C186.491 61.7124 186.758 61.6369 187.025 61.5629C187.014 61.5332 187.003 61.5048 186.991 61.4792C186.72 61.556 186.45 61.6316 186.177 61.7056C186.2 61.7245 186.216 61.7528 186.226 61.7878V61.7864Z" fill="#4BB4B3"/>
<path id="Vector_17" d="M190.315 60.7332C190.288 60.7063 190.284 60.6564 190.293 60.5918C189.286 60.8235 188.267 61.1171 187.241 61.4094C187.218 61.4511 187.204 61.4875 187.184 61.5185C188.221 61.2275 189.264 60.9433 190.313 60.7332H190.315Z" fill="#4BB4B3"/>
<path id="Vector_18" d="M181.96 62.6418C182.037 62.6135 182.175 62.557 182.305 62.5489C182.299 62.53 182.294 62.5138 182.289 62.4963C182.073 62.5192 181.856 62.5367 181.638 62.5502C181.707 62.5893 181.756 62.6607 181.803 62.7267C181.884 62.7186 181.966 62.7092 182.047 62.6997C182.039 62.6768 182.014 62.6566 181.962 62.6418H181.96Z" fill="#4BB4B3"/>
<path id="Vector_19" d="M176.365 61.552C176.294 61.5762 176.2 61.6032 176.079 61.6342C176.924 62.1069 177.768 62.4113 178.613 62.5878C178.711 62.5285 178.803 62.4639 178.886 62.3911C178.05 62.2335 177.209 61.9642 176.365 61.552Z" fill="#4BB4B3"/>
<path id="Vector_20" d="M185.464 61.8927C185.458 61.9156 185.471 61.9439 185.51 61.983C185.627 61.952 185.743 61.9197 185.861 61.8873C185.846 61.8591 185.829 61.8308 185.81 61.8025C185.695 61.8335 185.581 61.8631 185.466 61.8914L185.464 61.8927Z" fill="#4BB4B3"/>
<path id="Vector_21" d="M178.961 62.4047C178.922 62.4707 178.88 62.5326 178.83 62.5717C178.858 62.5986 178.885 62.6229 178.91 62.6458C179.086 62.6767 179.263 62.7023 179.439 62.7225C179.5 62.6633 179.555 62.5838 179.613 62.5003C179.396 62.4761 179.179 62.4424 178.96 62.4033L178.961 62.4047Z" fill="#4BB4B3"/>
<path id="Vector_22" d="M182.612 62.46C182.559 62.4667 182.507 62.4734 182.455 62.4788C182.46 62.5125 182.468 62.5475 182.475 62.5812C182.499 62.5947 182.521 62.6122 182.538 62.6364C182.58 62.6297 182.621 62.6229 182.663 62.6162C182.66 62.5583 182.647 62.5044 182.61 62.46H182.612Z" fill="#4BB4B3"/>
<path id="Vector_23" d="M181.46 62.5596C181.412 62.5623 181.362 62.565 181.314 62.5663C181.283 62.6296 181.252 62.6929 181.225 62.7576C181.232 62.763 181.24 62.7657 181.248 62.7697C181.342 62.7643 181.435 62.7589 181.528 62.7522C181.554 62.7387 181.575 62.7225 181.593 62.6997L181.46 62.5596Z" fill="#4BB4B3"/>
<path id="Vector_24" d="M182.968 62.4558C182.86 62.472 182.805 62.5259 182.782 62.5972C182.844 62.5865 182.907 62.577 182.968 62.5663C182.996 62.5434 183.023 62.5191 183.047 62.4922C183.02 62.4787 182.995 62.4652 182.968 62.4558Z" fill="#4BB4B3"/>
<path id="Vector_25" d="M189.117 64.0587L189.155 64.0843C190.14 63.8203 191.116 63.594 192.083 63.4728C192.083 63.4674 192.081 63.4633 192.08 63.458C192.083 63.4633 192.088 63.4674 192.091 63.4714C193.856 63.2505 195.594 63.3785 197.308 64.2553C197.316 64.2015 197.359 64.1462 197.47 64.0924C197.473 64.1476 197.43 64.3267 197.536 64.3496C197.606 64.2769 197.595 64.1705 197.594 64.0722C195.624 63.1212 193.662 63.0418 191.688 63.3327C191.623 63.4027 191.545 63.4351 191.426 63.3731C191.411 63.3758 191.396 63.3785 191.382 63.3812C191.382 63.3879 191.382 63.3947 191.382 63.4V63.3812C190.638 63.5051 189.893 63.6762 189.148 63.8701C189.152 63.8728 189.156 63.8728 189.16 63.8755C189.164 63.9491 189.15 64.0098 189.119 64.0573L189.117 64.0587Z" fill="#4BB4B3"/>
<path id="Vector_26" d="M186.472 64.8452C186.472 64.8331 186.472 64.8223 186.472 64.8102C186.476 64.7469 186.484 64.6782 186.49 64.6082C185.527 64.8748 184.559 65.1267 183.583 65.3059L183.664 65.5214C184.609 65.3476 185.545 65.1052 186.471 64.8452H186.472Z" fill="#4BB4B3"/>
<path id="Vector_27" d="M181.676 65.5483C181.553 65.5564 181.429 65.5632 181.306 65.5672C181.342 65.6049 181.346 65.6507 181.24 65.7127C180.994 65.5887 180.801 65.6615 180.644 65.7773C181.073 65.7908 181.5 65.78 181.925 65.749C181.839 65.749 181.738 65.7194 181.608 65.6521C181.634 65.617 181.656 65.582 181.677 65.5483H181.676Z" fill="#4BB4B3"/>
<path id="Vector_28" d="M187.017 64.6904C187.019 64.6204 187.023 64.5503 187.111 64.5234C187.098 64.5719 187.094 64.6204 187.093 64.6689C187.745 64.4816 188.392 64.2917 189.036 64.118L188.906 64.0695C188.95 64.0062 188.983 63.9469 189.017 63.9065C188.246 64.1099 187.472 64.3335 186.696 64.5517C186.726 64.6271 186.761 64.6985 186.804 64.7524C186.876 64.7322 186.947 64.712 187.018 64.6904H187.017Z" fill="#4BB4B3"/>
<path id="Vector_29" d="M182.457 65.6993C182.687 65.6737 182.916 65.6427 183.145 65.6077C183.075 65.5754 183.03 65.5188 183.046 65.3962C182.819 65.4313 182.593 65.4622 182.366 65.4878C182.356 65.4973 182.345 65.508 182.334 65.5188L182.457 65.7006V65.6993Z" fill="#4BB4B3"/>
<path id="Vector_30" d="M183.436 65.3315C183.4 65.3383 183.362 65.345 183.326 65.3517C183.368 65.3652 183.405 65.3625 183.436 65.3315Z" fill="#4BB4B3"/>
<path id="Vector_31" d="M181.999 65.7422C182.089 65.7355 182.179 65.7274 182.268 65.7193C182.295 65.6614 182.319 65.5995 182.319 65.5308C182.212 65.6345 182.121 65.7193 181.999 65.7422Z" fill="#4BB4B3"/>
<path id="Vector_32" d="M197.637 64.2068L197.539 64.3778C197.665 64.4479 197.791 64.5193 197.917 64.5974C198.138 64.5489 197.851 64.4398 198.194 64.3873C198.096 64.3307 197.999 64.2782 197.899 64.2256C197.89 64.2499 197.877 64.2768 197.856 64.3051C197.756 64.3913 197.749 64.2836 197.638 64.2068H197.637Z" fill="#4BB4B3"/>
<path id="Vector_33" d="M181.637 68.7582C181.625 68.7016 181.613 68.6464 181.601 68.5898C181.373 68.5993 181.145 68.6033 180.917 68.6006L180.752 68.7851C181.049 68.7865 181.344 68.7784 181.637 68.7582Z" fill="#4BB4B3"/>
<path id="Vector_34" d="M191.218 66.587C193.496 66.2044 195.824 66.2502 198.275 67.449C198.217 67.4126 198.198 67.3722 198.315 67.3386C196.067 66.0037 193.785 65.962 191.469 66.3809C191.407 66.4523 191.312 66.5183 191.217 66.587H191.218Z" fill="#4BB4B3"/>
<path id="Vector_35" d="M181.904 68.7366C184.978 68.4672 187.973 67.1607 191.061 66.6139C191.057 66.5654 191.053 66.5142 191.048 66.4617C188.487 66.9843 185.884 68.0066 183.24 68.4215C183.176 68.4592 183.109 68.4659 183.046 68.4511C182.72 68.4982 182.393 68.5359 182.065 68.5615C182.063 68.5683 182.061 68.5764 182.058 68.5831C181.975 68.5992 181.931 68.6612 181.902 68.738L181.904 68.7366Z" fill="#4BB4B3"/>
<path id="Vector_36" d="M179.613 68.7205C179.641 68.7232 179.669 68.7259 179.697 68.7286C179.862 68.6693 180.058 68.6599 180.212 68.5696C179.944 68.5481 179.674 68.5158 179.405 68.4727C179.464 68.5723 179.531 68.6558 179.613 68.7205Z" fill="#4BB4B3"/>
<path id="Vector_37" d="M198.386 67.5015C198.421 67.519 198.456 67.5351 198.492 67.554C198.504 67.5473 198.449 67.5284 198.386 67.5015Z" fill="#4BB4B3"/>
<path id="Vector_38" d="M198.275 67.4475C198.305 67.4677 198.346 67.4852 198.385 67.5014C198.348 67.4825 198.311 67.465 198.275 67.4475Z" fill="#4BB4B3"/>
<path id="Vector_39" d="M197.909 70.3462C197.972 70.3974 198.275 70.5429 198.694 70.6196C198.237 70.3812 197.784 70.1846 197.335 70.0229C197.527 70.1213 197.718 70.2277 197.909 70.3462Z" fill="#4BB4B3"/>
<path id="Vector_40" d="M177.461 71.0937C177.511 71.0344 177.558 71.0034 177.603 70.99C177.518 70.9563 177.433 70.9199 177.349 70.8835C177.358 70.9846 177.375 71.0788 177.461 71.095V71.0937Z" fill="#4BB4B3"/>
<path id="Vector_41" d="M193.206 69.1919C191.445 69.2633 189.629 69.7509 187.8 70.2694C187.731 70.361 187.585 70.4365 187.581 70.52C189.373 70.0176 191.178 69.5367 193.017 69.433C193.097 69.3697 193.189 69.2956 193.206 69.1919Z" fill="#4BB4B3"/>
<path id="Vector_42" d="M193.209 69.1905L193.221 69.4209C194.568 69.3656 195.937 69.5192 197.336 70.0216C196.006 69.3427 194.626 69.1326 193.209 69.1905Z" fill="#4BB4B3"/>
<path id="Vector_43" d="M176.341 70.431C176.051 70.4687 176.5 70.5065 176.166 70.6371C176.237 70.6748 176.308 70.7098 176.379 70.7449C176.389 70.6142 176.382 70.4957 176.341 70.4297V70.431Z" fill="#4BB4B3"/>
<path id="Vector_44" d="M179.577 71.5139C179.646 71.5988 179.995 71.5045 180.024 71.7631C182.57 71.9652 185.061 71.2257 187.57 70.5226L187.47 70.3623C184.832 71.1125 182.164 71.8776 179.578 71.5139H179.577Z" fill="#4BB4B3"/>
<path id="Vector_45" d="M178.232 71.2783C178.359 71.2783 178.503 71.2433 178.402 71.4642C178.412 71.4817 178.422 71.4952 178.432 71.5073C178.468 71.5167 178.506 71.5261 178.542 71.5342C178.593 71.5019 178.638 71.4157 178.68 71.3403C178.477 71.2891 178.275 71.2312 178.073 71.1638C178.079 71.2648 178.152 71.2783 178.232 71.2783Z" fill="#4BB4B3"/>
<path id="Vector_46" d="M176.883 70.8108C176.815 70.6707 176.735 70.7704 176.658 70.8795C176.744 70.9185 176.828 70.9576 176.914 70.994C176.916 70.9266 176.908 70.862 176.883 70.8094V70.8108Z" fill="#4BB4B3"/>
<path id="Vector_47" d="M200.452 52.8726L200.334 52.6948C200.176 52.5291 199.964 52.4537 199.818 52.2368C199.751 52.2462 199.682 52.257 199.615 52.2678L199.818 52.5574L199.499 52.3324L199.521 52.284C199.019 52.3715 198.524 52.4914 198.043 52.6422C198.029 52.6867 198.005 52.7163 197.948 52.7002C197.948 52.6907 197.948 52.6827 197.948 52.6732C197.85 52.7042 197.752 52.7379 197.654 52.7715C197.683 52.9615 197.536 52.8914 197.418 52.8564C196.34 53.2591 195.327 53.8154 194.406 54.4983C194.43 54.5387 194.454 54.571 194.478 54.5939C196.21 53.476 198.269 52.8537 200.454 52.8712L200.452 52.8726Z" fill="#4BB4B3"/>
<path id="Vector_48" d="M194.359 54.6721C194.343 54.6317 194.327 54.598 194.312 54.5684C194.147 54.6936 193.985 54.8216 193.827 54.9549L193.832 54.9738L193.816 54.963C193.34 55.3617 192.894 55.7954 192.478 56.2615C193.044 55.6594 193.675 55.1273 194.359 54.6734V54.6721Z" fill="#4BB4B3"/>
<path id="Vector_49" d="M189.42 63.7234L189.355 63.6695C189.414 63.5483 189.459 63.52 189.502 63.5066C189.57 61.8647 189.959 60.348 190.603 59.0051C190.156 59.8806 189.805 60.8154 189.562 61.7946C189.579 61.8135 189.595 61.8323 189.611 61.8552L189.556 61.8216C189.396 62.4735 189.286 63.1456 189.229 63.8325C189.347 63.9309 189.396 63.8487 189.422 63.7221L189.42 63.7234Z" fill="#4BB4B3"/>
<path id="Vector_50" d="M211.397 58.9L211.463 58.9997C211.478 59.0185 211.493 59.0401 211.507 59.067L211.463 58.9997C211.353 58.8596 211.257 58.9404 211.136 58.9377C211.224 59.1155 211.308 59.2973 211.388 59.4805C211.428 59.4926 211.464 59.4805 211.472 59.4199L211.385 59.2879C211.333 59.2583 211.286 59.2179 211.253 59.0859L211.385 59.2879C211.43 59.3135 211.478 59.3297 211.525 59.3862C211.615 59.5236 211.582 59.7378 211.493 59.7283C211.59 59.9681 211.68 60.2105 211.763 60.457C211.759 60.4059 211.786 60.352 211.703 60.2213L211.954 60.4261C211.954 60.4261 211.958 60.4288 211.96 60.4288L211.813 60.1957C211.911 60.2752 211.989 60.4166 212.027 60.4867C212.003 60.4584 211.981 60.4395 211.96 60.4301L211.963 60.4341L211.954 60.4274C211.892 60.4018 211.86 60.4665 211.903 60.6146C211.832 60.5675 211.797 60.5338 211.779 60.5055C211.8 60.5661 211.818 60.6254 211.837 60.686C211.841 60.6954 211.844 60.7062 211.846 60.7156C212.056 61.3837 212.211 62.0734 212.306 62.7791L212.526 62.9596L212.443 62.9677C212.703 63.1819 212.648 63.4028 212.57 63.454L212.416 63.1751C212.4 63.1846 212.377 63.2034 212.36 63.229C212.365 63.2883 212.372 63.3476 212.376 63.4068C212.396 63.4297 212.423 63.4526 212.459 63.4769C212.439 63.489 212.412 63.4836 212.38 63.4647C212.384 63.5078 212.387 63.5496 212.389 63.5927L212.692 63.7058L212.714 63.7893C212.686 62.8761 212.561 61.9966 212.349 61.1601C212.282 61.1615 212.403 61.3676 212.349 61.3231L212.123 60.946C212.183 60.977 212.261 61.0308 212.328 61.0766C212.127 60.3035 211.851 59.5681 211.51 58.873C211.489 58.8973 211.455 58.9094 211.397 58.9Z" fill="#4BB4B3"/>
<path id="Vector_51" d="M210.369 57.6056C210.434 57.6594 210.501 57.7093 210.529 57.6513C210.444 57.4224 210.541 57.382 210.584 57.3065C210.45 57.1153 210.312 56.9294 210.167 56.7476C210.101 56.8136 210.005 56.8836 209.881 56.9267C210.051 57.1463 210.214 57.3739 210.368 57.6069L210.369 57.6056Z" fill="#4BB4B3"/>
<path id="Vector_52" d="M211.215 60.8126C211.275 60.9809 211.35 61.0119 211.428 61.0847C211.397 60.9836 211.365 60.884 211.332 60.7843C211.291 60.7668 211.251 60.7695 211.215 60.8126Z" fill="#4BB4B3"/>
<path id="Vector_53" d="M192.045 69.6768C191.985 69.4761 191.764 69.8007 191.772 69.4801C191.949 69.5125 192.051 69.6135 192.218 69.5367C192.095 69.3104 191.978 69.0774 191.871 68.8376C191.745 68.9656 191.612 69.1394 191.595 69.3926L191.64 69.5596C191.64 69.5596 191.638 69.5583 191.636 69.5569C191.715 69.701 191.798 69.8425 191.886 69.9825L191.87 69.8371L192.045 69.6768Z" fill="#4BB4B3"/>
<path id="Vector_54" d="M200.334 52.696C200.381 52.7445 200.422 52.8024 200.456 52.8738C200.47 52.8738 200.485 52.8738 200.5 52.8738C200.485 52.8751 200.472 52.8765 200.457 52.8792C200.461 52.8873 200.465 52.894 200.468 52.9021L200.453 52.8792C199.074 53.0287 197.797 53.4031 196.649 53.9635C196.76 54.0739 196.847 54.3527 196.984 54.3393C196.98 54.3298 196.977 54.3218 196.973 54.3123C196.96 54.2234 197.025 54.2773 197.059 54.3056C197.032 54.3271 197.008 54.3366 196.984 54.3393C197.123 54.6908 197.185 54.5036 197.303 54.6154C197.342 54.6006 197.382 54.5858 197.421 54.5709C197.418 54.4753 197.43 54.412 197.516 54.5373C198.563 54.1709 199.676 54.0012 200.81 54.0726C201.039 54.0672 201.267 54.0712 201.493 54.0807C201.524 53.981 201.534 53.8288 201.661 54.0362C201.656 54.0537 201.65 54.0712 201.646 54.0874C202.56 54.1426 203.441 54.3191 204.275 54.6073C204.296 54.5629 204.338 54.5534 204.412 54.614C204.296 54.2153 204.212 54.2221 204.003 54.1642C203.984 54.0335 203.913 53.9379 204.012 53.8288C203.943 53.8732 203.779 53.6348 203.615 53.387C203.52 53.3573 203.425 53.3277 203.33 53.2994C203.192 53.4678 202.843 53.2415 202.804 53.5998C203.095 54.0308 202.778 53.6146 202.888 53.9729L202.76 53.6766C202.531 53.6793 202.062 53.4072 201.808 53.0462C201.823 53.0233 201.816 52.9869 201.808 52.9533C201.63 52.9236 201.452 52.898 201.271 52.8765C201.493 52.8617 201.713 52.8563 201.932 52.8563L201.824 52.564L201.648 52.5317C201.48 52.3566 201.696 52.4576 201.52 52.2367L201.942 52.5842L201.69 52.1586C201.519 52.1411 201.346 52.1263 201.173 52.1155C201.06 52.1195 200.948 52.1236 200.835 52.1303C200.816 52.2111 200.783 52.2515 200.853 52.3741L201.204 52.626C201.19 52.5398 201.099 52.502 201.055 52.3889L201.267 52.463C201.267 52.463 201.265 52.4522 201.264 52.4468C201.269 52.4536 201.276 52.4603 201.282 52.4684L201.538 52.5573C201.511 52.5734 201.544 52.6017 201.583 52.6718C201.575 52.8091 201.39 52.5963 201.282 52.4684L201.267 52.463C201.339 52.8145 201.149 52.661 200.987 52.7162C200.866 52.6165 200.752 52.2259 200.595 52.1478C200.532 52.1532 200.469 52.1586 200.406 52.1653C200.371 52.3175 200.291 52.4455 200.249 52.568L200.334 52.6947V52.696ZM197.201 53.8355C197.19 53.8355 197.179 53.8369 197.167 53.8396C197.183 53.946 196.992 53.7964 197.1 53.9931C197.166 54.0833 197.241 54.2423 197.284 54.1776L197.257 54.086L197.295 54.1534C197.291 54.1642 197.288 54.1709 197.284 54.1776L197.315 54.2827C197.119 54.1224 197.094 54.1399 196.919 53.9204L196.97 53.8853C197.029 53.915 197.095 53.8571 197.167 53.8396C197.167 53.8315 197.165 53.8234 197.161 53.8126C197.175 53.8193 197.189 53.8261 197.201 53.8355C197.272 53.8342 197.35 53.888 197.434 54.1143C197.283 54.1655 197.334 53.9325 197.201 53.8355ZM197.488 54.082L197.592 54.0147L197.423 53.8382C197.456 53.8665 197.678 54.0093 197.708 54.2248L197.488 54.082ZM201.22 53.3277L201.103 53.1176C201.169 52.9816 201.515 53.3789 201.334 52.9263L201.554 53.2604C201.496 53.2509 201.247 53.3129 201.453 53.5594C201.622 53.7372 201.709 53.5405 201.811 53.853C201.531 53.5096 201.497 53.8624 201.373 53.7991C201.263 53.6335 201.503 53.9055 201.413 53.6779C201.122 53.2482 201.04 53.6779 201.137 53.9473C201.059 53.8072 201.068 53.4705 200.903 53.5271C201.101 53.4974 200.945 53.2173 201.22 53.3277Z" fill="#4BB4B3"/>
<path id="Vector_55" d="M191.5 67.8854C191.131 66.7795 190.931 65.5727 190.923 64.3025C190.914 63.9308 190.924 63.5631 190.955 63.2007C190.886 63.1644 190.819 63.128 190.764 63.1091C190.782 63.2398 190.853 63.5267 190.912 63.5375C190.853 63.5267 190.698 63.2465 190.593 63.1226C190.635 63.0041 190.745 62.9798 190.623 62.7266L190.596 62.7428C190.572 62.5731 190.845 62.9408 190.973 63.0149C190.973 63.0068 190.974 62.9973 190.975 62.9893C190.973 62.9718 190.967 62.9529 190.961 62.9327C190.935 62.8936 190.912 62.8586 190.896 62.8371C190.93 62.864 190.949 62.899 190.961 62.9327C190.966 62.9421 190.973 62.9502 190.978 62.9596C190.99 62.8465 191.005 62.7334 191.021 62.6216C190.947 62.5044 190.861 62.3885 190.931 62.4828C190.958 62.4667 190.997 62.4949 191.034 62.5259C191.046 62.4478 191.058 62.3697 191.073 62.2929C191.037 62.2458 190.994 62.2094 190.946 62.1905L191.057 62.1663L190.701 61.6827C190.753 61.6491 190.967 61.94 190.871 61.6706L190.805 61.6167C190.878 61.5225 190.852 61.3501 190.977 61.4134L191.172 61.7986C191.335 61.0887 191.571 60.4059 191.871 59.7607L191.805 59.6139C191.839 59.6583 191.875 59.6879 191.9 59.6987C191.908 59.6799 191.918 59.6623 191.927 59.6435C191.927 59.6395 191.926 59.6368 191.924 59.6327C191.886 59.5627 191.853 59.5371 191.788 59.4819L191.977 59.5411C192.836 57.8036 194.165 56.3516 195.75 55.3791C195.537 55.2309 195.317 55.2148 195.183 55.2067C195.112 55.1097 194.961 55.2525 194.926 55.4155C194.864 55.3656 194.788 55.2107 194.733 55.1555C194.711 55.1717 194.69 55.1892 194.669 55.2054C194.714 55.3171 194.784 55.4114 194.874 55.4478C194.892 55.7185 194.711 55.3818 194.592 55.266C192.817 56.691 191.521 58.6414 190.852 60.8611C190.872 60.8827 190.891 60.9056 190.907 60.9365C190.882 60.9042 190.863 60.8854 190.848 60.8759C190.832 60.9325 190.816 60.9891 190.8 61.0443C190.8 61.0483 190.798 61.051 190.797 61.0537C190.615 61.7003 190.483 62.3683 190.41 63.0526L190.688 63.392L190.402 63.1267C190.363 63.5159 190.34 63.9106 190.337 64.3093C190.305 65.5148 190.487 66.6691 190.841 67.7493C191.075 67.5271 191.238 67.8652 191.498 67.8854H191.5ZM191.97 58.5633L191.832 58.6023L191.827 58.5592L191.97 58.5633ZM191.427 59.758C191.459 59.7849 191.524 59.8388 191.569 59.9519L191.419 59.9048L191.427 59.758Z" fill="#4BB4B3"/>
<path id="Vector_56" d="M204.992 54.249C205.318 54.7069 205.385 54.381 205.606 54.5251C205.503 54.2126 205.294 54.1534 205.223 54.0564L205.574 54.3082C205.578 54.28 205.582 54.2422 205.582 54.1991C205.354 54.0806 205.121 53.9702 204.885 53.8665C204.987 54.0604 204.91 54.0725 204.992 54.2503V54.249Z" fill="#4BB4B3"/>
<path id="Vector_57" d="M204.731 53.2307C204.74 53.2495 204.747 53.267 204.755 53.2832C205.095 53.3883 205.428 53.5122 205.752 53.6536C205.735 53.628 205.716 53.5997 205.697 53.5661C205.637 53.1485 205.898 53.6307 206.071 53.7479C206.13 53.7021 206.18 53.628 206.215 53.5714C206.209 53.7802 206.149 53.8004 206.071 53.7479C206.057 53.76 206.041 53.7694 206.023 53.7775C206.386 53.9499 206.739 54.1439 207.079 54.358L207.21 54.3136V54.4402C207.33 54.5197 207.449 54.6005 207.567 54.6853C207.651 54.653 207.699 54.5466 207.752 54.4496C206.974 53.8893 206.126 53.4192 205.228 53.0488L205.268 53.1768C205.078 53.2495 205.083 53.4825 204.731 53.2307Z" fill="#4BB4B3"/>
<path id="Vector_58" d="M204.118 52.9574C204.073 52.8833 204.039 52.8119 204.012 52.7419C203.843 52.5021 203.723 52.8308 203.507 52.4927C203.535 52.5439 203.566 52.6166 203.606 52.6745C203.621 52.6893 203.636 52.7068 203.654 52.7297C203.637 52.7149 203.621 52.6961 203.606 52.6745C203.485 52.5546 203.506 52.7297 203.459 52.7594C203.55 52.8766 203.653 52.9668 203.755 53.0314C203.947 53.0692 204.136 53.1109 204.322 53.1594C204.309 53.0921 204.278 53.0112 204.228 52.9318C204.449 53.2672 204.54 53.1136 204.729 53.2281L204.373 52.7459C204.4 52.7567 204.416 52.7553 204.427 52.7472C204.272 52.6961 204.118 52.6476 203.961 52.6018C203.976 52.6476 203.992 52.6934 204.011 52.7392C204.044 52.7863 204.079 52.855 204.117 52.9547L204.118 52.9574Z" fill="#4BB4B3"/>
<path id="Vector_59" d="M207.797 54.6045C207.966 54.7809 208.047 55.1554 208.14 55.0018L207.952 54.6947C208.136 54.7688 208.133 55.1487 208.29 55.0476C208.224 54.9291 208.231 54.8698 208.212 54.7971C208.077 54.6907 207.94 54.5856 207.799 54.4846C207.794 54.5143 207.791 54.5547 207.795 54.6058L207.797 54.6045Z" fill="#4BB4B3"/>
<path id="Vector_60" d="M202.046 52.2003C201.94 52.1868 201.834 52.1734 201.727 52.1626L201.926 52.2663C202.016 52.339 202.038 52.2865 202.044 52.2003H202.046Z" fill="#4BB4B3"/>
<path id="Vector_61" d="M212.316 62.8506C212.32 62.8762 212.322 62.9031 212.325 62.9287C212.332 62.9166 212.338 62.9031 212.344 62.887L212.314 62.8506H212.316Z" fill="#4BB4B3"/>
<path id="Vector_62" d="M209.676 69.977C209.753 69.9864 209.864 70.0538 209.917 70.0982L209.891 70.2006C210.157 69.8073 210.401 69.4005 210.62 68.9803C210.531 68.9587 210.431 68.9075 210.332 68.8442C210.139 69.2375 209.919 69.616 209.676 69.977Z" fill="#4BB4B3"/>
<path id="Vector_63" d="M207.913 56.8406C207.923 56.85 207.933 56.8595 207.943 56.8689V56.8271C207.935 56.8339 207.924 56.8366 207.913 56.8393V56.8406Z" fill="#4BB4B3"/>
<path id="Vector_64" d="M209.602 70.1065C209.602 70.1065 209.6 70.0957 209.6 70.0904C208.164 72.1619 205.933 73.6584 203.31 74.0759C203.346 74.0975 203.37 74.0773 203.417 74.1163C203.424 74.1608 203.527 74.2834 203.508 74.3453L203.3 74.0773C202.532 74.1985 201.732 74.2281 200.908 74.1514C200.106 74.2079 199.339 74.1756 198.612 74.0625C198.607 74.0759 198.602 74.088 198.595 74.1002C198.548 74.1123 198.537 74.0907 198.541 74.0517C198.114 73.9816 197.701 73.8833 197.303 73.7594C197.305 73.7702 197.309 73.7809 197.315 73.7904L197.297 73.7567C195.876 73.3136 194.648 72.5364 193.66 71.5087C193.748 71.9033 193.198 71.3592 193.084 71.4306C193.105 71.1814 193.222 71.3915 193.164 71.0009L193.443 71.347C193.429 71.3012 193.419 71.2689 193.414 71.2433C192.965 70.7369 192.571 70.1766 192.235 69.5691C192.199 69.6014 192.139 69.5651 192.089 69.5947L192.185 70.1133C192.052 70.2749 192.081 69.9166 192.02 69.7954C191.907 69.689 191.912 69.8883 191.915 70.0311C191.994 70.159 192.077 70.2843 192.162 70.4096C192.233 70.3651 192.344 70.4729 192.465 70.5429C192.368 70.5268 192.32 70.5497 192.278 70.5779C192.479 70.8608 192.694 71.1342 192.92 71.3969L192.899 71.3578C192.962 71.4696 193.171 71.607 193.29 71.805C193.723 72.2616 194.195 72.6832 194.697 73.063C194.721 72.9849 194.686 72.8206 194.674 72.7371C194.907 73.16 194.93 72.7182 195.111 73.1735C195.155 73.2785 195.179 73.3553 195.191 73.4173C195.673 73.7446 196.179 74.0355 196.704 74.2887L196.603 74.1689C196.641 74.0476 196.785 74.0517 196.897 74.0301C196.935 74.0961 196.969 74.1446 197 74.1823C197.002 74.1621 197.004 74.1392 197.005 74.1123C197.02 74.1702 197.035 74.2093 197.051 74.2349C197.078 74.2578 197.1 74.2685 197.12 74.2739C197.22 74.2456 197.312 73.9318 197.26 74.1891C197.26 74.1985 197.26 74.2066 197.259 74.2147C197.311 74.1783 197.364 74.1689 197.457 74.3359C197.524 74.6093 197.218 74.2982 197.283 74.5473C197.478 74.6282 197.675 74.7036 197.875 74.7736C197.789 74.612 198.07 74.8666 197.894 74.5797C197.978 74.5729 198.004 74.7453 198.043 74.8167H197.994C198.899 75.1211 199.844 75.3124 200.803 75.373C200.979 75.369 201.153 75.3609 201.327 75.3474C201.156 75.0713 201.454 75.2356 201.358 74.9407C201.453 74.9999 201.531 75.1912 201.546 75.3299C201.98 75.2895 202.406 75.2208 202.825 75.1279C202.611 74.8868 202.418 75.1104 202.19 74.5581L202.142 74.8221L202.013 74.5258C202.087 74.2416 202.412 74.6996 202.666 74.6807C202.79 74.744 202.61 74.4827 202.666 74.4908C202.874 74.7373 202.672 74.7238 202.749 74.8639C202.825 74.9447 202.904 75.0228 202.98 75.0929C205.562 74.4773 207.818 72.9068 209.42 70.8419V70.8339L209.425 70.8352C209.555 70.6668 209.683 70.4944 209.803 70.3207C209.735 70.225 209.66 70.186 209.6 70.1038L209.602 70.1065ZM195.293 73.4388C195.342 73.1735 195.516 73.393 195.634 73.4132C195.581 73.4456 195.506 73.7298 195.293 73.4388ZM197.688 74.3493L197.631 73.9884L197.734 74.1083L197.688 74.3507V74.3493ZM199.938 74.2362C199.996 74.2456 199.985 74.1608 200.056 74.2578C200.095 74.3291 200.271 74.3588 200.328 74.5581C200.193 74.41 199.984 74.352 199.938 74.2376V74.2362Z" fill="#4BB4B3"/>
<path id="Vector_65" d="M204.637 53.7668C204.637 53.7668 204.641 53.7641 204.644 53.7614C204.641 53.76 204.637 53.7587 204.634 53.7573C204.634 53.76 204.636 53.7627 204.637 53.7668Z" fill="#4BB4B3"/>
<path id="Vector_66" d="M211.019 58.6643C210.998 58.6347 210.974 58.6051 210.95 58.5754C210.962 58.597 210.972 58.6185 210.984 58.6401C210.995 58.6455 211.007 58.6536 211.021 58.6643H211.019Z" fill="#4BB4B3"/>
<path id="Vector_67" d="M197.296 75.1978C197.218 75.0577 197.206 74.9702 197.167 74.9001C197.267 75.0497 197.344 75.0591 197.342 74.9338C196.527 74.6564 195.75 74.286 195.028 73.8347C194.977 73.9088 194.914 73.9667 194.757 73.6825L194.784 73.6771C193.691 72.9552 192.723 72.046 191.924 70.9967C191.794 70.9833 191.654 71.0116 191.571 71.0641C191.561 71.0924 191.558 71.1247 191.557 71.1597C192.285 72.1053 193.155 72.9619 194.132 73.692C194.181 73.6138 194.185 73.463 194.301 73.4993C194.422 73.762 194.295 73.7431 194.183 73.731C194.513 73.9748 194.855 74.2038 195.206 74.4179C195.167 74.2806 195.081 74.1337 195.205 74.2051C195.254 74.2954 195.307 74.4018 195.335 74.4947C195.394 74.5297 195.453 74.5648 195.513 74.5984L195.516 74.5742C195.517 74.5863 195.517 74.5944 195.516 74.6011C195.953 74.8517 196.406 75.0766 196.871 75.2773C196.843 75.0564 197.167 75.2423 197.297 75.1992L197.296 75.1978ZM194.437 73.4589L194.638 73.8536C194.514 73.7903 194.429 73.6057 194.437 73.4589Z" fill="#4BB4B3"/>
<path id="Vector_68" d="M203.607 75.3663C203.629 75.4215 203.648 75.4902 203.716 75.5831C203.641 75.6303 203.538 75.4929 203.447 75.3959C203.405 75.4026 203.363 75.408 203.321 75.4148C203.358 75.4605 203.401 75.4781 203.447 75.5158C203.38 75.6532 203.203 75.6208 203.06 75.6195C203.042 75.5602 203.023 75.5063 203.004 75.4579C202.405 75.5292 201.792 75.5481 201.168 75.509C199.83 75.5494 198.541 75.3447 197.34 74.9366C197.368 75.1602 197.521 75.1157 197.667 75.1992L197.525 75.008C197.574 75.0147 197.681 75.175 197.741 75.1669C197.732 75.1332 197.738 75.1171 197.772 75.1332C197.765 75.1548 197.755 75.1642 197.741 75.1669C197.767 75.2599 197.913 75.4888 198.012 75.5979C197.862 75.5521 197.818 75.2477 197.693 75.373C197.824 75.5494 197.816 75.5858 197.819 75.6437C198.854 75.9953 199.941 76.2189 201.052 76.2862C201.351 76.2606 201.648 76.2256 201.94 76.1825C201.969 76.1017 202.056 76.1165 202.149 76.1502C202.811 76.0451 203.456 75.8983 204.078 75.7111C204.063 75.6963 204.046 75.6949 204.022 75.7192L204.067 75.6424C204.083 75.6639 204.098 75.6828 204.113 75.7003C204.136 75.6936 204.157 75.6868 204.18 75.6801C204.138 75.633 204.095 75.5777 204.048 75.5117C204.168 75.6235 204.227 75.6505 204.27 75.6518C204.349 75.6262 204.428 75.6006 204.506 75.575C204.439 75.4902 204.373 75.435 204.414 75.47C204.609 75.3474 204.86 75.2208 205.126 75.3514C205.177 75.3312 205.227 75.311 205.276 75.2922L205.259 75.1737C205.293 75.2194 205.323 75.245 205.353 75.2625C205.468 75.2154 205.582 75.1683 205.693 75.1184L205.64 75.0282L205.73 75.1023C205.801 75.0713 205.87 75.039 205.94 75.0066L205.825 74.911L205.956 74.8275L205.979 74.9878C206.94 74.5379 207.825 73.983 208.617 73.3351L208.364 73.1748C207.004 74.2712 205.378 75.0484 203.606 75.3676L203.607 75.3663Z" fill="#4BB4B3"/>
<path id="Vector_69" d="M211.766 65.4284C211.629 65.4055 211.47 65.2264 211.302 65.0796C211.254 66.1006 211.042 67.0879 210.692 68.0119L210.736 68.0199L210.688 68.0496L210.734 68.2085L210.644 68.1358C210.604 68.2368 210.562 68.3365 210.519 68.4361C210.557 68.4698 210.597 68.5089 210.64 68.5533C210.627 68.657 210.757 68.7634 210.639 68.7432L210.695 68.8335C210.746 68.7325 210.795 68.6301 210.844 68.5277C210.82 68.5021 210.794 68.4806 210.774 68.4698C210.763 68.4941 210.75 68.5156 210.718 68.5035C210.723 68.4604 210.744 68.455 210.774 68.4698C210.79 68.4334 210.803 68.393 210.873 68.4631C211.305 67.531 211.617 66.5477 211.787 65.5402C211.751 65.5362 211.71 65.5227 211.659 65.4958L211.765 65.4284H211.766Z" fill="#4BB4B3"/>
<path id="Vector_70" d="M211.373 69.3979C211.14 69.8775 210.873 70.3395 210.573 70.7799C210.645 70.8365 210.707 70.8567 210.731 70.7637C210.892 71.0883 210.718 70.8701 210.737 70.9981C210.745 71.0129 210.751 71.025 210.758 71.0372C211.072 70.5873 211.352 70.1145 211.596 69.6188C211.596 69.6135 211.596 69.6081 211.596 69.604L211.373 69.3979Z" fill="#4BB4B3"/>
<path id="Vector_71" d="M212.534 63.998C212.643 64.3523 212.459 64.4695 212.679 64.8049C212.515 64.7213 212.479 64.8237 212.422 64.8951C212.422 66.4522 212.057 67.9621 211.405 69.3305C211.493 69.3763 211.58 69.4491 211.628 69.5541C212.345 68.0698 212.735 66.3929 212.715 64.5732C212.718 64.4614 212.72 64.3496 212.72 64.2391C212.664 64.1826 212.604 64.1139 212.534 63.9994V63.998Z" fill="#4BB4B3"/>
<path id="Vector_72" d="M195.801 54.7205C196.016 55.0114 195.788 54.8242 195.73 54.8161C195.832 54.9454 195.898 55.099 195.957 55.2566C196.305 55.0545 196.666 54.8754 197.036 54.7218C196.998 54.6612 196.953 54.6033 196.895 54.5481L196.777 54.7192C196.654 54.6558 196.811 54.5562 196.734 54.4161C196.701 54.5777 196.531 54.4026 196.47 54.5804C196.387 54.6734 196.218 54.4511 196.128 54.2329C196.022 54.2922 195.918 54.3528 195.815 54.4147C195.914 54.4107 196.111 54.5912 196.008 54.3528L196.236 54.5387L196.006 54.5414L196.103 54.8121C196.004 54.9212 195.89 54.5238 195.766 54.4592C195.768 54.4511 195.77 54.4457 195.774 54.439C195.662 54.5077 195.551 54.5764 195.441 54.6491C195.581 54.7434 195.741 54.8606 195.803 54.7178L195.801 54.7205Z" fill="#4BB4B3"/>
<path id="Vector_73" d="M208.503 73.0601C208.569 73.1531 208.633 73.1571 208.7 73.184L208.718 73.2514C209.44 72.648 210.081 71.9678 210.628 71.2175C210.572 71.1367 210.517 71.0384 210.459 70.9414C209.903 71.728 209.243 72.4419 208.502 73.0601H208.503Z" fill="#4BB4B3"/>
<path id="Vector_74" d="M210.684 68.0336C210.682 68.0417 210.677 68.0497 210.675 68.0578L210.688 68.0484L210.684 68.0322V68.0336Z" fill="#4BB4B3"/>
<path id="Vector_75" d="M197.118 75.3797C197.174 75.4026 197.23 75.4255 197.287 75.447C197.217 75.3797 197.145 75.311 197.075 75.2437C197.02 75.2558 197.071 75.3164 197.119 75.3797H197.118Z" fill="#4BB4B3"/>
<path id="Vector_76" d="M196.505 54.0349C196.474 54.0497 196.445 54.0659 196.414 54.0807C196.453 54.0753 196.486 54.0632 196.506 54.0376L196.505 54.0349Z" fill="#4BB4B3"/>
<path id="Vector_77" d="M211.218 62.2282L211.594 62.6525C211.602 62.4464 211.671 62.4451 211.763 62.5218C211.692 62.0895 211.597 61.6665 211.478 61.253C211.446 61.1763 211.435 61.0483 211.368 61.0914L211.341 61.2988L211.407 61.3514L211.088 61.1278C211.322 61.1682 211.116 60.7318 211.183 60.5957L211.3 60.6914C211.215 60.4449 211.121 60.2024 211.019 59.964L210.905 59.8697C210.916 59.8388 210.939 59.8388 210.966 59.8401C210.813 59.4939 210.644 59.1572 210.458 58.8299C210.395 58.8461 210.346 58.873 210.447 59.0724C210.38 59.3983 210.123 58.6144 210.049 58.8973C210.086 58.9659 210.164 59.106 210.223 59.1181C210.274 59.2744 210.164 59.106 210.132 59.0804C210.068 59.0279 209.939 58.7316 210.017 58.6817C210.369 59.2353 210.129 58.5039 210.275 58.5228C210.216 58.4272 210.156 58.3329 210.096 58.2386C209.966 58.0985 209.852 58.0285 209.869 58.2548L209.938 58.341C209.968 58.3544 210.003 58.3908 210.046 58.477L209.938 58.341C209.876 58.314 209.829 58.3746 209.765 58.3221L209.854 58.547C209.862 58.6023 209.758 58.5955 209.672 58.5767C209.659 58.574 209.647 58.5713 209.636 58.5673C209.602 58.5578 209.577 58.5484 209.568 58.5403C209.589 58.5484 209.613 58.5592 209.636 58.5673C209.648 58.5699 209.66 58.574 209.672 58.5767C209.722 58.5834 209.748 58.5551 209.692 58.4151C209.621 58.3181 209.478 58.1255 209.419 58.1147C209.466 58.0379 209.589 58.0999 209.558 57.8844L209.628 58.1699L209.754 58.0446C209.691 57.9302 209.584 57.7806 209.533 57.7389C209.525 57.7348 209.517 57.7322 209.507 57.7268C209.513 57.7241 209.522 57.7295 209.533 57.7389C209.621 57.782 209.69 57.7699 209.753 57.7416C209.613 57.5503 209.467 57.3631 209.315 57.1813C209.261 57.1786 209.248 57.2405 209.358 57.4897C209.203 57.3995 208.98 57.4453 208.81 57.2675L209.161 57.7093L208.83 57.4911C208.83 57.4911 208.822 57.4991 208.817 57.5032L208.687 57.3968L208.832 57.4924C208.899 57.4224 208.7 57.2836 208.676 57.1207C208.549 57.0802 208.561 57.2931 208.618 57.5867C208.85 57.8574 209.07 58.143 209.275 58.4393C209.324 58.407 209.353 58.3625 209.329 58.2682C209.511 58.5161 209.519 58.7033 209.573 58.8932C209.596 58.9309 209.618 58.9686 209.641 59.0064C209.802 59.0548 209.672 58.7855 209.873 59.0589L209.73 59.0562L209.84 59.2232C209.828 59.2448 209.81 59.2569 209.793 59.2636C209.83 59.3296 209.866 59.3956 209.903 59.463C209.912 59.4589 209.921 59.4549 209.929 59.4495L209.911 59.4764C210.407 60.395 210.787 61.4066 211.03 62.4936C211.125 62.4801 211.258 62.5003 211.218 62.2282ZM210.089 59.1626V59.1599C210.078 59.137 210.08 59.1424 210.089 59.1626L210.365 59.5047C210.286 59.5923 210.125 59.2448 210.089 59.1626ZM210.372 59.7377C210.463 59.7741 210.4 59.5317 210.541 59.7229C210.56 59.8536 210.431 59.7472 210.372 59.7377ZM210.648 59.9519C210.633 59.9532 210.629 59.9775 210.645 60.0381C210.623 59.9681 210.627 59.9465 210.648 59.9519C210.694 59.9465 210.845 60.1351 210.88 60.0785C210.853 60.03 210.867 59.9775 210.842 59.9088L210.783 59.8091C210.814 59.8468 210.832 59.8792 210.842 59.9088L211.088 60.3263C211.002 60.3439 210.72 59.9734 210.648 59.9519Z" fill="#4BB4B3"/>
<path id="Vector_78" d="M190.754 69.5947C190.715 69.7105 190.585 69.5947 190.556 69.6432C190.627 69.7698 190.7 69.8964 190.776 70.0217C190.777 70.0149 190.781 70.0082 190.785 70.0028L190.825 70.1025C190.851 70.1443 190.877 70.1874 190.904 70.2291H190.954C190.977 70.1456 190.994 70.0648 190.966 70.0096C191.017 69.8964 191.056 69.8156 191.092 69.7536C191.046 69.6755 191.002 69.5974 190.959 69.5179C190.944 69.5732 190.904 69.5934 190.802 69.5206C190.9 69.4115 190.564 69.0573 190.431 69.1408C190.533 69.4156 190.392 69.2364 190.344 69.2459C190.392 69.3401 190.44 69.4344 190.491 69.5274C190.573 69.5058 190.659 69.5058 190.754 69.5974V69.5947Z" fill="#4BB4B3"/>
<path id="Vector_79" d="M190.557 68.8229C190.479 68.6815 190.446 68.8458 190.385 68.8337C190.399 68.73 190.525 68.796 190.351 68.5764C190.423 68.598 190.486 68.6492 190.54 68.6801C190.077 67.6565 189.753 66.556 189.593 65.4071C189.593 65.4071 189.593 65.4057 189.592 65.4044L189.513 65.368C189.542 65.368 189.568 65.3828 189.592 65.4044H189.593C189.544 65.0502 189.51 64.6892 189.493 64.3255C189.491 64.2487 189.491 64.172 189.49 64.0938C189.373 63.8069 189.434 64.2662 189.267 64.0575L189.217 63.947C189.207 64.0736 189.199 64.2016 189.194 64.3295C189.167 65.3034 189.293 66.2664 189.55 67.1985L189.655 67.2968C189.64 67.348 189.624 67.3817 189.608 67.4032C189.762 67.9218 189.955 68.4296 190.187 68.9239C190.332 68.9536 190.526 68.9953 190.557 68.8243V68.8229Z" fill="#4BB4B3"/>
<path id="Vector_80" d="M191.172 70.349C191.396 70.718 191.652 70.7961 191.839 70.8864C191.656 70.6412 191.483 70.3867 191.32 70.1267C191.266 70.1806 191.207 70.2452 191.172 70.349Z" fill="#4BB4B3"/>
<path id="Vector_81" d="M211.514 64.0763C211.628 64.4749 211.678 64.0197 211.779 64.3322C211.816 64.3322 211.864 64.3403 211.914 64.3443C211.914 64.1221 211.907 63.9012 211.893 63.683C211.851 63.6452 211.805 63.6129 211.758 63.5887C211.778 63.5294 211.824 63.5254 211.884 63.5496C211.876 63.4445 211.868 63.3408 211.857 63.2358C211.797 63.3139 211.75 63.4405 211.585 63.1792C211.578 63.3247 211.336 63.2412 211.464 63.5375C211.301 63.2412 211.325 63.5375 211.212 63.5105C211.251 63.788 211.281 64.0695 211.302 64.3551C211.388 64.2904 211.46 64.1773 211.514 64.0763Z" fill="#4BB4B3"/>
<path id="Vector_82" d="M191.79 68.653C191.788 68.6463 191.784 68.6382 191.781 68.6314L191.676 68.4429C191.705 68.49 191.727 68.525 191.746 68.5506C191.683 68.3971 191.623 68.2408 191.566 68.0832C191.353 68.1156 191.14 68.1102 190.932 68.0105C191.02 68.2543 191.117 68.494 191.222 68.7298C191.368 68.6341 191.541 68.5668 191.789 68.6516L191.79 68.653Z" fill="#4BB4B3"/>
<path id="Vector_83" d="M190.601 59.0064C191.111 58.007 191.743 57.0843 192.478 56.26C191.726 57.0601 191.091 57.9827 190.601 59.0064Z" fill="#4BB4B3"/>
</g>
</g>
</g>
<path id="Vector_84" d="M229 32.5H16C14.067 32.5 12.5 34.067 12.5 36V124C12.5 125.933 14.067 127.5 16 127.5H229C230.933 127.5 232.5 125.933 232.5 124V36C232.5 34.067 230.933 32.5 229 32.5Z" stroke="#F2F3F4"/>
</g>
</g>
<defs>
<filter id="filter0_dd_1184_367" x="-4" y="28" width="253" height="128" filterUnits="userSpaceOnUse" color-interpolation-filters="sRGB">
<feFlood flood-opacity="0" result="BackgroundImageFix"/>
<feColorMatrix in="SourceAlpha" type="matrix" values="0 0 0 0 0 0 0 0 0 0 0 0 0 0 0 0 0 0 127 0" result="hardAlpha"/>
<feOffset dy="4"/>
<feGaussianBlur stdDeviation="3"/>
<feColorMatrix type="matrix" values="0 0 0 0 0.054902 0 0 0 0 0.054902 0 0 0 0 0.054902 0 0 0 0.03 0"/>
<feBlend mode="normal" in2="BackgroundImageFix" result="effect1_dropShadow_1184_367"/>
<feColorMatrix in="SourceAlpha" type="matrix" values="0 0 0 0 0 0 0 0 0 0 0 0 0 0 0 0 0 0 127 0" result="hardAlpha"/>
<feOffset dy="12"/>
<feGaussianBlur stdDeviation="8"/>
<feColorMatrix type="matrix" values="0 0 0 0 0.054902 0 0 0 0 0.054902 0 0 0 0 0.054902 0 0 0 0.08 0"/>
<feBlend mode="normal" in2="effect1_dropShadow_1184_367" result="effect2_dropShadow_1184_367"/>
<feBlend mode="normal" in="SourceGraphic" in2="effect2_dropShadow_1184_367" result="shape"/>
</filter>
<clipPath id="clip0_1184_367">
<rect width="245" height="160" fill="white"/>
</clipPath>
</defs>
</svg>
