<svg width="227" height="164" viewBox="0 0 227 164" fill="none" xmlns="http://www.w3.org/2000/svg">
<g id="illustration / deriv / light / ic-old-issued-document" clip-path="url(#clip0_1184_365)">
<g id="Group" filter="url(#filter0_dd_1184_365)">
<g id="Clip path group">
<mask id="mask0_1184_365" style="mask-type:luminance" maskUnits="userSpaceOnUse" x="3" y="2" width="128" height="158">
<g id="clip0_4473_9170">
<path id="Vector" d="M127 2H7C4.79086 2 3 3.79086 3 6V156C3 158.209 4.79086 160 7 160H127C129.209 160 131 158.209 131 156V6C131 3.79086 129.209 2 127 2Z" fill="white"/>
</g>
</mask>
<g mask="url(#mask0_1184_365)">
<g id="Group_2">
<path id="Vector_2" d="M127 2H7C4.79086 2 3 3.79086 3 6V156C3 158.209 4.79086 160 7 160H127C129.209 160 131 158.209 131 156V6C131 3.79086 129.209 2 127 2Z" fill="white"/>
<path id="Vector_3" d="M-111.611 17.0632H117.684V13.7158H-111.611V17.0632ZM117.684 35.4737H-111.611V38.8211H117.684V35.4737Z" fill="#4BB4B3"/>
<g id="Group_3" opacity="0.24">
<path id="Vector_4" d="M25.6315 130.874H-17.8843V137.569H25.6315V130.874Z" fill="#377CFC"/>
<path id="Vector_5" d="M117.684 130.874H59.1055V137.569H117.684V130.874Z" fill="#377CFC"/>
<path id="Vector_6" d="M-111.611 128.363H117.684V126.69H-111.611V128.363ZM117.684 140.079H-111.611V141.753H117.684V140.079Z" fill="#D6D6D6"/>
<path id="Vector_7" d="M25.6315 147.611H-17.8843V154.306H25.6315V147.611Z" fill="#377CFC"/>
<path id="Vector_8" d="M117.684 147.611H59.1055V154.306H117.684V147.611Z" fill="#377CFC"/>
</g>
<path id="Vector_9" d="M71.2397 72.9263V71.9137H71.9928V68.0977H71.2397V67.0851H74.018V68.0977H73.2648V71.9137H74.018V72.9263H71.2397ZM76.4595 73.0267C76.0355 73.0267 75.6785 72.9597 75.3884 72.8258C75.0983 72.6864 74.8389 72.4911 74.6101 72.2401L75.3382 71.5036C75.4944 71.6766 75.6673 71.8133 75.857 71.9137C76.0467 72.0141 76.2615 72.0643 76.5014 72.0643C76.7469 72.0643 76.917 72.0281 77.0119 71.9555C77.1067 71.8774 77.1541 71.7742 77.1541 71.6459C77.1541 71.4395 77.0063 71.3167 76.7106 71.2777L76.2336 71.2191C75.2461 71.0964 74.7524 70.6445 74.7524 69.8634C74.7524 69.6514 74.7914 69.459 74.8695 69.286C74.9532 69.1075 75.0676 68.9568 75.2126 68.8341C75.3633 68.7058 75.5418 68.6082 75.7482 68.5412C75.9602 68.4687 76.1973 68.4324 76.4595 68.4324C76.6883 68.4324 76.8891 68.4492 77.0621 68.4826C77.2406 68.5105 77.3968 68.5552 77.5307 68.6165C77.6702 68.6723 77.7957 68.7448 77.9073 68.8341C78.0244 68.9178 78.1388 69.0126 78.2504 69.1186L77.5391 69.8467C77.3996 69.7072 77.2406 69.5984 77.0621 69.5203C76.8891 69.4366 76.7106 69.3948 76.5265 69.3948C76.3145 69.3948 76.1639 69.4283 76.0746 69.4952C75.9853 69.5622 75.9407 69.6514 75.9407 69.763C75.9407 69.8802 75.9714 69.9722 76.0327 70.0392C76.0997 70.1005 76.2224 70.1452 76.401 70.1731L76.8947 70.24C77.8599 70.3683 78.3424 70.8091 78.3424 71.5622C78.3424 71.7742 78.2978 71.9695 78.2085 72.148C78.1193 72.3265 77.991 72.4827 77.8236 72.6166C77.6618 72.745 77.4637 72.8454 77.2294 72.9179C77.0007 72.9904 76.7441 73.0267 76.4595 73.0267ZM80.6192 73.0267C80.1952 73.0267 79.8382 72.9597 79.5481 72.8258C79.258 72.6864 78.9985 72.4911 78.7698 72.2401L79.4979 71.5036C79.6541 71.6766 79.827 71.8133 80.0167 71.9137C80.2064 72.0141 80.4212 72.0643 80.6611 72.0643C80.9065 72.0643 81.0767 72.0281 81.1715 71.9555C81.2664 71.8774 81.3138 71.7742 81.3138 71.6459C81.3138 71.4395 81.166 71.3167 80.8703 71.2777L80.3933 71.2191C79.4058 71.0964 78.9121 70.6445 78.9121 69.8634C78.9121 69.6514 78.9511 69.459 79.0292 69.286C79.1129 69.1075 79.2273 68.9568 79.3723 68.8341C79.523 68.7058 79.7015 68.6082 79.9079 68.5412C80.1199 68.4687 80.357 68.4324 80.6192 68.4324C80.848 68.4324 81.0488 68.4492 81.2218 68.4826C81.4003 68.5105 81.5565 68.5552 81.6904 68.6165C81.8299 68.6723 81.9554 68.7448 82.067 68.8341C82.1841 68.9178 82.2985 69.0126 82.4101 69.1186L81.6988 69.8467C81.5593 69.7072 81.4003 69.5984 81.2218 69.5203C81.0488 69.4366 80.8703 69.3948 80.6862 69.3948C80.4742 69.3948 80.3235 69.4283 80.2343 69.4952C80.145 69.5622 80.1004 69.6514 80.1004 69.763C80.1004 69.8802 80.1311 69.9722 80.1924 70.0392C80.2594 70.1005 80.3821 70.1452 80.5606 70.1731L81.0544 70.24C82.0195 70.3683 82.5021 70.8091 82.5021 71.5622C82.5021 71.7742 82.4575 71.9695 82.3682 72.148C82.279 72.3265 82.1506 72.4827 81.9833 72.6166C81.8215 72.745 81.6234 72.8454 81.3891 72.9179C81.1604 72.9904 80.9038 73.0267 80.6192 73.0267ZM85.9408 72.1898H85.8989C85.8599 72.3014 85.8069 72.4074 85.7399 72.5078C85.6785 72.6083 85.5977 72.6975 85.4972 72.7756C85.3968 72.8537 85.2769 72.9151 85.1374 72.9597C85.0035 73.0044 84.8473 73.0267 84.6688 73.0267C84.2169 73.0267 83.8738 72.8788 83.6394 72.5832C83.4107 72.2819 83.2963 71.8523 83.2963 71.2944V68.5328H84.5349V71.1856C84.5349 71.4534 84.5823 71.6598 84.6771 71.8049C84.772 71.95 84.9338 72.0225 85.1625 72.0225C85.2573 72.0225 85.3522 72.0085 85.447 71.9806C85.5419 71.9527 85.6255 71.9137 85.6981 71.8635C85.7706 71.8077 85.8292 71.7407 85.8738 71.6626C85.9184 71.5845 85.9408 71.4925 85.9408 71.3865V68.5328H87.1793V72.9263H85.9408V72.1898ZM90.1643 73.0267C89.8296 73.0267 89.5311 72.9737 89.2689 72.8677C89.0067 72.7561 88.7835 72.6027 88.5994 72.4074C88.4209 72.2066 88.2842 71.9639 88.1894 71.6794C88.1001 71.3948 88.0555 71.0768 88.0555 70.7254C88.0555 70.3795 88.1001 70.0671 88.1894 69.7881C88.2786 69.5036 88.4097 69.2609 88.5827 69.0601C88.7612 68.8592 88.9788 68.7058 89.2354 68.5998C89.4921 68.4882 89.785 68.4324 90.1141 68.4324C90.4767 68.4324 90.7864 68.4938 91.043 68.6165C91.3052 68.7393 91.5172 68.9038 91.679 69.1103C91.8464 69.3167 91.9663 69.5566 92.0389 69.83C92.117 70.0977 92.156 70.3795 92.156 70.6752V71.0434H89.3359V71.1103C89.3359 71.4004 89.414 71.632 89.5702 71.8049C89.7264 71.9723 89.9719 72.056 90.3066 72.056C90.5632 72.056 90.7724 72.0057 90.9342 71.9053C91.096 71.7993 91.2466 71.6738 91.3861 71.5287L92.0054 72.2986C91.8101 72.5274 91.5535 72.7059 91.2355 72.8342C90.9231 72.9625 90.566 73.0267 90.1643 73.0267ZM90.1392 69.3446C89.8882 69.3446 89.6901 69.4283 89.5451 69.5956C89.4056 69.7574 89.3359 69.975 89.3359 70.2484V70.3153H90.8756V70.24C90.8756 69.9722 90.8143 69.7574 90.6915 69.5956C90.5744 69.4283 90.3903 69.3446 90.1392 69.3446ZM97.703 72.1898H97.6612C97.6277 72.307 97.5747 72.4186 97.5022 72.5246C97.4297 72.625 97.3404 72.7143 97.2344 72.7924C97.134 72.8649 97.0168 72.9207 96.8829 72.9597C96.7546 73.0044 96.6207 73.0267 96.4812 73.0267C95.9233 73.0267 95.5021 72.8314 95.2176 72.4409C94.9331 72.0448 94.7908 71.473 94.7908 70.7254C94.7908 69.9778 94.9331 69.4087 95.2176 69.0182C95.5021 68.6277 95.9233 68.4324 96.4812 68.4324C96.7658 68.4324 97.0168 68.5105 97.2344 68.6667C97.4576 68.823 97.5998 69.0238 97.6612 69.2693H97.703V66.7336H98.9416V72.9263H97.703V72.1898ZM96.8913 72.0225C97.1256 72.0225 97.3181 71.9667 97.4687 71.8551C97.6249 71.738 97.703 71.579 97.703 71.3781V70.081C97.703 69.8802 97.6249 69.724 97.4687 69.6124C97.3181 69.4952 97.1256 69.4366 96.8913 69.4366C96.657 69.4366 96.4617 69.5203 96.3055 69.6877C96.1549 69.8495 96.0796 70.0698 96.0796 70.3488V71.1103C96.0796 71.3893 96.1549 71.6124 96.3055 71.7798C96.4617 71.9416 96.657 72.0225 96.8913 72.0225ZM103.346 72.9263C103.123 72.9263 102.936 72.8565 102.786 72.7171C102.641 72.5776 102.549 72.3907 102.51 72.1564H102.459C102.392 72.4409 102.245 72.6585 102.016 72.8091C101.787 72.9542 101.505 73.0267 101.171 73.0267C100.73 73.0267 100.392 72.9095 100.158 72.6752C99.924 72.4409 99.8068 72.1313 99.8068 71.7463C99.8068 71.2833 99.9742 70.9402 100.309 70.717C100.649 70.4883 101.109 70.3739 101.69 70.3739H102.384V70.0977C102.384 69.8857 102.328 69.7184 102.217 69.5956C102.105 69.4673 101.918 69.4032 101.656 69.4032C101.411 69.4032 101.215 69.4562 101.07 69.5622C100.925 69.6682 100.805 69.7881 100.71 69.922L99.9742 69.2693C100.153 69.0071 100.376 68.8034 100.643 68.6584C100.917 68.5077 101.285 68.4324 101.748 68.4324C102.373 68.4324 102.842 68.5691 103.154 68.8425C103.466 69.1158 103.623 69.5147 103.623 70.0392V71.9639H104.033V72.9263H103.346ZM101.631 72.1647C101.837 72.1647 102.013 72.1201 102.158 72.0308C102.309 71.9416 102.384 71.7965 102.384 71.5957V71.0768H101.782C101.296 71.0768 101.054 71.2414 101.054 71.5706V71.6961C101.054 71.8579 101.104 71.9778 101.204 72.056C101.305 72.1285 101.447 72.1647 101.631 72.1647ZM106.355 72.9263C105.925 72.9263 105.599 72.8175 105.376 72.5999C105.158 72.3823 105.049 72.0643 105.049 71.6459V69.4952H104.43V68.5328H104.74C104.907 68.5328 105.021 68.4938 105.083 68.4157C105.144 68.332 105.175 68.2148 105.175 68.0642V67.3445H106.288V68.5328H107.158V69.4952H106.288V71.9639H107.091V72.9263H106.355ZM109.818 73.0267C109.484 73.0267 109.185 72.9737 108.923 72.8677C108.661 72.7561 108.438 72.6027 108.254 72.4074C108.075 72.2066 107.938 71.9639 107.844 71.6794C107.754 71.3948 107.71 71.0768 107.71 70.7254C107.71 70.3795 107.754 70.0671 107.844 69.7881C107.933 69.5036 108.064 69.2609 108.237 69.0601C108.415 68.8592 108.633 68.7058 108.89 68.5998C109.146 68.4882 109.439 68.4324 109.768 68.4324C110.131 68.4324 110.441 68.4938 110.697 68.6165C110.959 68.7393 111.171 68.9038 111.333 69.1103C111.501 69.3167 111.62 69.5566 111.693 69.83C111.771 70.0977 111.81 70.3795 111.81 70.6752V71.0434H108.99V71.1103C108.99 71.4004 109.068 71.632 109.224 71.8049C109.381 71.9723 109.626 72.056 109.961 72.056C110.217 72.056 110.427 72.0057 110.588 71.9053C110.75 71.7993 110.901 71.6738 111.04 71.5287L111.66 72.2986C111.464 72.5274 111.208 72.7059 110.89 72.8342C110.577 72.9625 110.22 73.0267 109.818 73.0267ZM109.793 69.3446C109.542 69.3446 109.344 69.4283 109.199 69.5956C109.06 69.7574 108.99 69.975 108.99 70.2484V70.3153H110.53V70.24C110.53 69.9722 110.468 69.7574 110.346 69.5956C110.229 69.4283 110.044 69.3446 109.793 69.3446ZM115.466 73.0183C115.215 73.0183 115.028 72.957 114.905 72.8342C114.788 72.7059 114.729 72.5441 114.729 72.3488V72.1815C114.729 71.9862 114.788 71.8272 114.905 71.7045C115.028 71.5762 115.215 71.512 115.466 71.512C115.717 71.512 115.901 71.5762 116.018 71.7045C116.141 71.8272 116.202 71.9862 116.202 72.1815V72.3488C116.202 72.5441 116.141 72.7059 116.018 72.8342C115.901 72.957 115.717 73.0183 115.466 73.0183ZM115.466 69.9471C115.215 69.9471 115.028 69.8857 114.905 69.763C114.788 69.6347 114.729 69.4729 114.729 69.2776V69.1103C114.729 68.915 114.788 68.756 114.905 68.6333C115.028 68.505 115.215 68.4408 115.466 68.4408C115.717 68.4408 115.901 68.505 116.018 68.6333C116.141 68.756 116.202 68.915 116.202 69.1103V69.2776C116.202 69.4729 116.141 69.6347 116.018 69.763C115.901 69.8857 115.717 69.9471 115.466 69.9471Z" fill="#3F6FE5"/>
<path id="Vector_10" d="M76.152 81.6791H76.1102L75.6165 82.6582L74.2189 85.2022L72.8214 82.6582L72.3277 81.6791H72.2858V86.5998H71.5996V80.7586H72.5369L74.2106 83.9051H74.2524L75.9345 80.7586H76.8382V86.5998H76.152V81.6791ZM81.462 86.5998C81.2109 86.5998 81.0296 86.5328 80.918 86.3989C80.812 86.265 80.7451 86.0976 80.7172 85.8968H80.6754C80.5805 86.1646 80.4243 86.3654 80.2067 86.4993C79.9891 86.6332 79.7297 86.7002 79.4285 86.7002C78.971 86.7002 78.6139 86.583 78.3573 86.3487C78.1063 86.1144 77.9807 85.7964 77.9807 85.3947C77.9807 84.9874 78.1286 84.675 78.4243 84.4574C78.7255 84.2399 79.1914 84.1311 79.8218 84.1311H80.6754V83.7043C80.6754 83.3974 80.5917 83.1631 80.4243 83.0013C80.2569 82.8395 80.0003 82.7586 79.6544 82.7586C79.3922 82.7586 79.1718 82.8172 78.9933 82.9344C78.8204 83.0515 78.6753 83.2078 78.5581 83.403L78.1565 83.0264C78.2736 82.7921 78.4605 82.5941 78.7171 82.4323C78.9738 82.2649 79.2974 82.1812 79.6879 82.1812C80.2123 82.1812 80.6196 82.3095 80.9097 82.5662C81.1998 82.8228 81.3448 83.1799 81.3448 83.6373V86.014H81.8386V86.5998H81.462ZM79.5373 86.1311C79.7046 86.1311 79.858 86.1116 79.9975 86.0725C80.137 86.0335 80.2569 85.9777 80.3574 85.9052C80.4578 85.8326 80.5359 85.749 80.5917 85.6541C80.6475 85.5593 80.6754 85.4561 80.6754 85.3445V84.6332H79.7883C79.4034 84.6332 79.1216 84.689 78.9431 84.8005C78.7701 84.9121 78.6837 85.0739 78.6837 85.2859V85.4616C78.6837 85.6736 78.759 85.8382 78.9096 85.9554C79.0658 86.0725 79.275 86.1311 79.5373 86.1311ZM85.4144 82.2816H86.0755L84.1424 87.604C84.0922 87.7323 84.0419 87.8383 83.9917 87.922C83.9415 88.0112 83.8802 88.081 83.8076 88.1312C83.7351 88.1814 83.6431 88.2176 83.5315 88.24C83.4255 88.2623 83.2944 88.2734 83.1382 88.2734H82.7951V87.6876H83.4729L83.7993 86.7671L82.1842 82.2816H82.8536L83.8913 85.219L84.0922 85.9219H84.134L84.3683 85.219L85.4144 82.2816ZM90.3798 83.2356C90.7759 83.2356 91.0716 83.1464 91.2668 82.9679C91.4677 82.7838 91.5681 82.5494 91.5681 82.2649V82.2063C91.5681 81.8995 91.4705 81.6708 91.2752 81.5201C91.0855 81.3639 90.8345 81.2858 90.522 81.2858C90.2208 81.2858 89.9753 81.3528 89.7856 81.4866C89.5959 81.615 89.4397 81.7907 89.317 82.0139L88.7982 81.6122C88.8707 81.495 88.9572 81.3806 89.0576 81.2691C89.1636 81.1519 89.2863 81.0487 89.4258 80.9594C89.5653 80.8702 89.727 80.7976 89.9112 80.7419C90.0953 80.6861 90.3045 80.6582 90.5388 80.6582C90.7843 80.6582 91.0158 80.6916 91.2334 80.7586C91.4509 80.82 91.6378 80.9148 91.794 81.0431C91.9558 81.1659 92.0814 81.3193 92.1706 81.5034C92.2655 81.6875 92.3129 81.8967 92.3129 82.131C92.3129 82.3207 92.2822 82.4909 92.2208 82.6415C92.165 82.7921 92.0869 82.9232 91.9865 83.0348C91.8861 83.1464 91.7662 83.2412 91.6267 83.3193C91.4928 83.3974 91.3477 83.456 91.1915 83.4951V83.5285C91.3477 83.562 91.4984 83.6178 91.6434 83.6959C91.794 83.7684 91.9252 83.8661 92.0367 83.9888C92.1539 84.106 92.2459 84.251 92.3129 84.424C92.3854 84.5913 92.4217 84.7838 92.4217 85.0014C92.4217 85.2524 92.3743 85.484 92.2794 85.696C92.1846 85.9024 92.0507 86.0809 91.8777 86.2315C91.7048 86.3766 91.4956 86.491 91.2501 86.5746C91.0046 86.6583 90.734 86.7002 90.4384 86.7002C90.1873 86.7002 89.9642 86.6723 89.7689 86.6165C89.5736 86.5607 89.4007 86.4854 89.25 86.3905C89.0994 86.2957 88.9655 86.1897 88.8484 86.0725C88.7368 85.9554 88.6364 85.8326 88.5471 85.7043L89.0743 85.3026C89.1468 85.4198 89.2249 85.5258 89.3086 85.6206C89.3979 85.7155 89.4955 85.7964 89.6015 85.8633C89.7075 85.9303 89.8275 85.9833 89.9614 86.0223C90.0953 86.0558 90.2515 86.0725 90.43 86.0725C90.8428 86.0725 91.1553 85.9805 91.3673 85.7964C91.5793 85.6067 91.6853 85.3389 91.6853 84.993V84.9261C91.6853 84.5802 91.5793 84.3152 91.3673 84.1311C91.1553 83.9414 90.8428 83.8465 90.43 83.8465H89.7438V83.2356H90.3798ZM94.3515 85.6206C94.53 85.6206 94.6584 85.6681 94.7365 85.7629C94.8201 85.8522 94.862 85.9693 94.862 86.1144V86.2315C94.862 86.4603 94.795 86.7113 94.6611 86.9847C94.5273 87.2636 94.3404 87.5063 94.1005 87.7128H93.5398C93.7071 87.5342 93.841 87.3641 93.9415 87.2023C94.0475 87.0461 94.1228 86.8703 94.1674 86.6751C94.0558 86.6472 93.9721 86.5942 93.9164 86.5161C93.8661 86.438 93.841 86.3431 93.841 86.2315V86.1144C93.841 85.9693 93.8801 85.8522 93.9582 85.7629C94.0419 85.6681 94.173 85.6206 94.3515 85.6206ZM98.2076 86.5998V85.9805H99.8394V81.2774H99.7809L98.308 82.6499L97.898 82.2063L99.4461 80.7586H100.542V85.9805H102.048V86.5998H98.2076ZM106.949 82.9009C106.949 83.3361 106.885 83.7461 106.757 84.1311C106.628 84.5104 106.461 84.8591 106.254 85.1771C106.054 85.4895 105.83 85.7685 105.585 86.014C105.339 86.2539 105.1 86.4491 104.865 86.5998H103.961C104.274 86.371 104.553 86.1479 104.798 85.9303C105.044 85.7127 105.259 85.4868 105.443 85.2524C105.627 85.0125 105.783 84.7587 105.911 84.4909C106.04 84.2175 106.143 83.9107 106.221 83.5704L106.179 83.5536C106.04 83.7935 105.858 83.9944 105.635 84.1562C105.418 84.3124 105.13 84.3905 104.773 84.3905C104.522 84.3905 104.291 84.3486 104.079 84.265C103.867 84.1813 103.685 84.0613 103.535 83.9051C103.384 83.7489 103.264 83.562 103.175 83.3444C103.091 83.1213 103.049 82.8702 103.049 82.5913C103.049 82.3068 103.094 82.0473 103.183 81.813C103.278 81.5731 103.409 81.3695 103.577 81.2021C103.749 81.0292 103.953 80.8953 104.187 80.8004C104.427 80.7056 104.695 80.6582 104.991 80.6582C105.292 80.6582 105.563 80.7112 105.803 80.8172C106.048 80.9176 106.254 81.0654 106.422 81.2607C106.595 81.4504 106.726 81.6847 106.815 81.9636C106.904 82.2426 106.949 82.555 106.949 82.9009ZM104.999 83.7963C105.384 83.7963 105.683 83.6903 105.895 83.4783C106.112 83.2663 106.221 82.9623 106.221 82.5662V82.4992C106.221 82.1031 106.112 81.7991 105.895 81.5871C105.683 81.3751 105.384 81.2691 104.999 81.2691C104.614 81.2691 104.313 81.3751 104.095 81.5871C103.883 81.7991 103.777 82.1031 103.777 82.4992V82.5662C103.777 82.9623 103.883 83.2663 104.095 83.4783C104.313 83.6903 104.614 83.7963 104.999 83.7963ZM111.967 82.9009C111.967 83.3361 111.903 83.7461 111.774 84.1311C111.646 84.5104 111.479 84.8591 111.272 85.1771C111.071 85.4895 110.848 85.7685 110.603 86.014C110.357 86.2539 110.117 86.4491 109.883 86.5998H108.979C109.292 86.371 109.571 86.1479 109.816 85.9303C110.062 85.7127 110.276 85.4868 110.46 85.2524C110.645 85.0125 110.801 84.7587 110.929 84.4909C111.057 84.2175 111.161 83.9107 111.239 83.5704L111.197 83.5536C111.057 83.7935 110.876 83.9944 110.653 84.1562C110.435 84.3124 110.148 84.3905 109.791 84.3905C109.54 84.3905 109.308 84.3486 109.096 84.265C108.884 84.1813 108.703 84.0613 108.552 83.9051C108.402 83.7489 108.282 83.562 108.193 83.3444C108.109 83.1213 108.067 82.8702 108.067 82.5913C108.067 82.3068 108.112 82.0473 108.201 81.813C108.296 81.5731 108.427 81.3695 108.594 81.2021C108.767 81.0292 108.971 80.8953 109.205 80.8004C109.445 80.7056 109.713 80.6582 110.009 80.6582C110.31 80.6582 110.58 80.7112 110.82 80.8172C111.066 80.9176 111.272 81.0654 111.44 81.2607C111.613 81.4504 111.744 81.6847 111.833 81.9636C111.922 82.2426 111.967 82.555 111.967 82.9009ZM110.017 83.7963C110.402 83.7963 110.7 83.6903 110.912 83.4783C111.13 83.2663 111.239 82.9623 111.239 82.5662V82.4992C111.239 82.1031 111.13 81.7991 110.912 81.5871C110.7 81.3751 110.402 81.2691 110.017 81.2691C109.632 81.2691 109.331 81.3751 109.113 81.5871C108.901 81.7991 108.795 82.1031 108.795 82.4992V82.5662C108.795 82.9623 108.901 83.2663 109.113 83.4783C109.331 83.6903 109.632 83.7963 110.017 83.7963ZM113.989 86.5998L116.223 81.3611H113.729V82.449H113.102V80.7586H116.934V81.3779L114.742 86.5998H113.989Z" fill="#3F6FE5"/>
<path id="Vector_11" opacity="0.16" d="M38.6842 109.116H-45V120.832H38.6842V109.116Z" fill="#377CFC"/>
</g>
</g>
</g>
<path id="Vector_12" d="M127 2.41846H7.00004C5.02198 2.41846 3.41846 4.02198 3.41846 6.00004V156C3.41846 157.978 5.02198 159.581 7.00004 159.581H127C128.978 159.581 130.581 157.978 130.581 156V6.00004C130.581 4.02198 128.978 2.41846 127 2.41846Z" stroke="#F2F3F4" stroke-width="0.836842"/>
</g>
<g id="Group_4" filter="url(#filter1_dd_1184_365)">
<path id="Vector_13" d="M220 99H108C105.791 99 104 100.791 104 103V139C104 141.209 105.791 143 108 143H220C222.209 143 224 141.209 224 139V103C224 100.791 222.209 99 220 99Z" fill="white"/>
<path id="Vector_14" d="M112.6 118V117.3H113.58V111.72H112.6V111.02H115.4V111.72H114.42V117.3H115.4V118H112.6ZM118.404 118.12C117.924 118.12 117.521 118.03 117.194 117.85C116.874 117.663 116.597 117.417 116.364 117.11L116.934 116.65C117.134 116.903 117.357 117.1 117.604 117.24C117.851 117.373 118.137 117.44 118.464 117.44C118.804 117.44 119.067 117.367 119.254 117.22C119.447 117.073 119.544 116.867 119.544 116.6C119.544 116.4 119.477 116.23 119.344 116.09C119.217 115.943 118.984 115.843 118.644 115.79L118.234 115.73C117.994 115.697 117.774 115.647 117.574 115.58C117.374 115.507 117.197 115.413 117.044 115.3C116.897 115.18 116.781 115.033 116.694 114.86C116.614 114.687 116.574 114.48 116.574 114.24C116.574 113.987 116.621 113.767 116.714 113.58C116.807 113.387 116.934 113.227 117.094 113.1C117.261 112.973 117.457 112.88 117.684 112.82C117.911 112.753 118.154 112.72 118.414 112.72C118.834 112.72 119.184 112.793 119.464 112.94C119.751 113.087 120.001 113.29 120.214 113.55L119.684 114.03C119.571 113.87 119.404 113.727 119.184 113.6C118.964 113.467 118.687 113.4 118.354 113.4C118.021 113.4 117.767 113.473 117.594 113.62C117.427 113.76 117.344 113.953 117.344 114.2C117.344 114.453 117.427 114.637 117.594 114.75C117.767 114.863 118.014 114.947 118.334 115L118.734 115.06C119.307 115.147 119.714 115.313 119.954 115.56C120.194 115.8 120.314 116.117 120.314 116.51C120.314 117.01 120.144 117.403 119.804 117.69C119.464 117.977 118.997 118.12 118.404 118.12ZM123.218 118.12C122.738 118.12 122.335 118.03 122.008 117.85C121.688 117.663 121.412 117.417 121.178 117.11L121.748 116.65C121.948 116.903 122.172 117.1 122.418 117.24C122.665 117.373 122.952 117.44 123.278 117.44C123.618 117.44 123.882 117.367 124.068 117.22C124.262 117.073 124.358 116.867 124.358 116.6C124.358 116.4 124.292 116.23 124.158 116.09C124.032 115.943 123.798 115.843 123.458 115.79L123.048 115.73C122.808 115.697 122.588 115.647 122.388 115.58C122.188 115.507 122.012 115.413 121.858 115.3C121.712 115.18 121.595 115.033 121.508 114.86C121.428 114.687 121.388 114.48 121.388 114.24C121.388 113.987 121.435 113.767 121.528 113.58C121.622 113.387 121.748 113.227 121.908 113.1C122.075 112.973 122.272 112.88 122.498 112.82C122.725 112.753 122.968 112.72 123.228 112.72C123.648 112.72 123.998 112.793 124.278 112.94C124.565 113.087 124.815 113.29 125.028 113.55L124.498 114.03C124.385 113.87 124.218 113.727 123.998 113.6C123.778 113.467 123.502 113.4 123.168 113.4C122.835 113.4 122.582 113.473 122.408 113.62C122.242 113.76 122.158 113.953 122.158 114.2C122.158 114.453 122.242 114.637 122.408 114.75C122.582 114.863 122.828 114.947 123.148 115L123.548 115.06C124.122 115.147 124.528 115.313 124.768 115.56C125.008 115.8 125.128 116.117 125.128 116.51C125.128 117.01 124.958 117.403 124.618 117.69C124.278 117.977 123.812 118.12 123.218 118.12ZM129.721 117.16H129.681C129.628 117.28 129.561 117.4 129.481 117.52C129.408 117.633 129.315 117.737 129.201 117.83C129.088 117.917 128.951 117.987 128.791 118.04C128.631 118.093 128.445 118.12 128.231 118.12C127.698 118.12 127.275 117.95 126.961 117.61C126.648 117.263 126.491 116.777 126.491 116.15V112.84H127.291V116.01C127.291 116.937 127.685 117.4 128.471 117.4C128.631 117.4 128.785 117.38 128.931 117.34C129.085 117.3 129.218 117.24 129.331 117.16C129.451 117.08 129.545 116.98 129.611 116.86C129.685 116.733 129.721 116.583 129.721 116.41V112.84H130.521V118H129.721V117.16ZM134.165 118.12C133.812 118.12 133.492 118.057 133.205 117.93C132.925 117.803 132.682 117.623 132.475 117.39C132.275 117.15 132.118 116.867 132.005 116.54C131.898 116.207 131.845 115.833 131.845 115.42C131.845 115.013 131.898 114.643 132.005 114.31C132.118 113.977 132.275 113.693 132.475 113.46C132.682 113.22 132.925 113.037 133.205 112.91C133.492 112.783 133.812 112.72 134.165 112.72C134.512 112.72 134.822 112.783 135.095 112.91C135.368 113.037 135.602 113.213 135.795 113.44C135.988 113.66 136.135 113.923 136.235 114.23C136.342 114.537 136.395 114.873 136.395 115.24V115.62H132.685V115.86C132.685 116.08 132.718 116.287 132.785 116.48C132.858 116.667 132.958 116.83 133.085 116.97C133.218 117.11 133.378 117.22 133.565 117.3C133.758 117.38 133.975 117.42 134.215 117.42C134.542 117.42 134.825 117.343 135.065 117.19C135.312 117.037 135.502 116.817 135.635 116.53L136.205 116.94C136.038 117.293 135.778 117.58 135.425 117.8C135.072 118.013 134.652 118.12 134.165 118.12ZM134.165 113.39C133.945 113.39 133.745 113.43 133.565 113.51C133.385 113.583 133.228 113.69 133.095 113.83C132.968 113.97 132.868 114.137 132.795 114.33C132.722 114.517 132.685 114.723 132.685 114.95V115.02H135.535V114.91C135.535 114.45 135.408 114.083 135.155 113.81C134.908 113.53 134.578 113.39 134.165 113.39ZM141.013 117.16H140.973C140.66 117.8 140.157 118.12 139.463 118.12C139.143 118.12 138.853 118.057 138.593 117.93C138.333 117.803 138.11 117.623 137.923 117.39C137.743 117.157 137.603 116.873 137.503 116.54C137.41 116.207 137.363 115.833 137.363 115.42C137.363 115.007 137.41 114.633 137.503 114.3C137.603 113.967 137.743 113.683 137.923 113.45C138.11 113.217 138.333 113.037 138.593 112.91C138.853 112.783 139.143 112.72 139.463 112.72C139.823 112.72 140.13 112.8 140.383 112.96C140.643 113.113 140.84 113.353 140.973 113.68H141.013V110.6H141.813V118H141.013V117.16ZM139.683 117.4C139.863 117.4 140.033 117.377 140.193 117.33C140.36 117.283 140.503 117.217 140.623 117.13C140.743 117.037 140.837 116.927 140.903 116.8C140.977 116.667 141.013 116.517 141.013 116.35V114.43C141.013 114.29 140.977 114.16 140.903 114.04C140.837 113.913 140.743 113.807 140.623 113.72C140.503 113.633 140.36 113.567 140.193 113.52C140.033 113.467 139.863 113.44 139.683 113.44C139.23 113.44 138.873 113.583 138.613 113.87C138.353 114.15 138.223 114.52 138.223 114.98V115.86C138.223 116.32 138.353 116.693 138.613 116.98C138.873 117.26 139.23 117.4 139.683 117.4ZM145.877 118V112.84H146.677V113.68H146.717C146.777 113.547 146.844 113.423 146.917 113.31C146.997 113.19 147.091 113.087 147.197 113C147.311 112.913 147.441 112.847 147.587 112.8C147.734 112.747 147.907 112.72 148.107 112.72C148.447 112.72 148.761 112.803 149.047 112.97C149.334 113.13 149.547 113.397 149.687 113.77H149.707C149.801 113.49 149.974 113.247 150.227 113.04C150.487 112.827 150.837 112.72 151.277 112.72C151.804 112.72 152.214 112.893 152.507 113.24C152.807 113.58 152.957 114.063 152.957 114.69V118H152.157V114.83C152.157 114.37 152.067 114.023 151.887 113.79C151.707 113.557 151.421 113.44 151.027 113.44C150.867 113.44 150.714 113.46 150.567 113.5C150.427 113.54 150.301 113.6 150.187 113.68C150.074 113.76 149.984 113.863 149.917 113.99C149.851 114.11 149.817 114.253 149.817 114.42V118H149.017V114.83C149.017 114.37 148.927 114.023 148.747 113.79C148.567 113.557 148.287 113.44 147.907 113.44C147.747 113.44 147.594 113.46 147.447 113.5C147.301 113.54 147.171 113.6 147.057 113.68C146.944 113.76 146.851 113.863 146.777 113.99C146.711 114.11 146.677 114.253 146.677 114.42V118H145.877ZM156.558 118.12C156.211 118.12 155.894 118.057 155.608 117.93C155.321 117.803 155.074 117.623 154.868 117.39C154.668 117.15 154.511 116.867 154.398 116.54C154.284 116.207 154.228 115.833 154.228 115.42C154.228 115.013 154.284 114.643 154.398 114.31C154.511 113.977 154.668 113.693 154.868 113.46C155.074 113.22 155.321 113.037 155.608 112.91C155.894 112.783 156.211 112.72 156.558 112.72C156.904 112.72 157.218 112.783 157.498 112.91C157.784 113.037 158.031 113.22 158.238 113.46C158.444 113.693 158.604 113.977 158.718 114.31C158.831 114.643 158.888 115.013 158.888 115.42C158.888 115.833 158.831 116.207 158.718 116.54C158.604 116.867 158.444 117.15 158.238 117.39C158.031 117.623 157.784 117.803 157.498 117.93C157.218 118.057 156.904 118.12 156.558 118.12ZM156.558 117.41C156.991 117.41 157.344 117.277 157.618 117.01C157.891 116.743 158.028 116.337 158.028 115.79V115.05C158.028 114.503 157.891 114.097 157.618 113.83C157.344 113.563 156.991 113.43 156.558 113.43C156.124 113.43 155.771 113.563 155.498 113.83C155.224 114.097 155.088 114.503 155.088 115.05V115.79C155.088 116.337 155.224 116.743 155.498 117.01C155.771 117.277 156.124 117.41 156.558 117.41ZM160.204 118V112.84H161.004V113.79H161.054C161.147 113.543 161.314 113.323 161.554 113.13C161.794 112.937 162.124 112.84 162.544 112.84H162.854V113.64H162.384C161.95 113.64 161.61 113.723 161.364 113.89C161.124 114.05 161.004 114.253 161.004 114.5V118H160.204ZM165.767 118.12C165.413 118.12 165.093 118.057 164.807 117.93C164.527 117.803 164.283 117.623 164.077 117.39C163.877 117.15 163.72 116.867 163.607 116.54C163.5 116.207 163.447 115.833 163.447 115.42C163.447 115.013 163.5 114.643 163.607 114.31C163.72 113.977 163.877 113.693 164.077 113.46C164.283 113.22 164.527 113.037 164.807 112.91C165.093 112.783 165.413 112.72 165.767 112.72C166.113 112.72 166.423 112.783 166.697 112.91C166.97 113.037 167.203 113.213 167.397 113.44C167.59 113.66 167.737 113.923 167.837 114.23C167.943 114.537 167.997 114.873 167.997 115.24V115.62H164.287V115.86C164.287 116.08 164.32 116.287 164.387 116.48C164.46 116.667 164.56 116.83 164.687 116.97C164.82 117.11 164.98 117.22 165.167 117.3C165.36 117.38 165.577 117.42 165.817 117.42C166.143 117.42 166.427 117.343 166.667 117.19C166.913 117.037 167.103 116.817 167.237 116.53L167.807 116.94C167.64 117.293 167.38 117.58 167.027 117.8C166.673 118.013 166.253 118.12 165.767 118.12ZM165.767 113.39C165.547 113.39 165.347 113.43 165.167 113.51C164.987 113.583 164.83 113.69 164.697 113.83C164.57 113.97 164.47 114.137 164.397 114.33C164.323 114.517 164.287 114.723 164.287 114.95V115.02H167.137V114.91C167.137 114.45 167.01 114.083 166.757 113.81C166.51 113.53 166.18 113.39 165.767 113.39ZM172.818 118C172.538 118 172.325 117.923 172.178 117.77C172.038 117.61 171.968 117.403 171.968 117.15V113.54H171.118V112.84H171.598C171.771 112.84 171.888 112.807 171.948 112.74C172.015 112.667 172.048 112.543 172.048 112.37V111.41H172.768V112.84H173.898V113.54H172.768V117.3H173.818V118H172.818ZM175.184 110.6H175.984V113.68H176.024C176.151 113.387 176.327 113.153 176.554 112.98C176.787 112.807 177.097 112.72 177.484 112.72C178.017 112.72 178.437 112.893 178.744 113.24C179.057 113.58 179.214 114.063 179.214 114.69V118H178.414V114.83C178.414 113.903 178.024 113.44 177.244 113.44C177.084 113.44 176.927 113.46 176.774 113.5C176.627 113.54 176.494 113.6 176.374 113.68C176.254 113.76 176.157 113.863 176.084 113.99C176.017 114.11 175.984 114.253 175.984 114.42V118H175.184V110.6ZM184.618 118C184.318 118 184.101 117.92 183.968 117.76C183.841 117.6 183.761 117.4 183.728 117.16H183.678C183.564 117.48 183.378 117.72 183.118 117.88C182.858 118.04 182.548 118.12 182.188 118.12C181.641 118.12 181.214 117.98 180.908 117.7C180.608 117.42 180.458 117.04 180.458 116.56C180.458 116.073 180.634 115.7 180.988 115.44C181.348 115.18 181.904 115.05 182.658 115.05H183.678V114.54C183.678 114.173 183.578 113.893 183.378 113.7C183.178 113.507 182.871 113.41 182.458 113.41C182.144 113.41 181.881 113.48 181.668 113.62C181.461 113.76 181.288 113.947 181.148 114.18L180.668 113.73C180.808 113.45 181.031 113.213 181.338 113.02C181.644 112.82 182.031 112.72 182.498 112.72C183.124 112.72 183.611 112.873 183.958 113.18C184.304 113.487 184.478 113.913 184.478 114.46V117.3H185.068V118H184.618ZM182.318 117.44C182.518 117.44 182.701 117.417 182.868 117.37C183.034 117.323 183.178 117.257 183.298 117.17C183.418 117.083 183.511 116.983 183.578 116.87C183.644 116.757 183.678 116.633 183.678 116.5V115.65H182.618C182.158 115.65 181.821 115.717 181.608 115.85C181.401 115.983 181.298 116.177 181.298 116.43V116.64C181.298 116.893 181.388 117.09 181.568 117.23C181.754 117.37 182.004 117.44 182.318 117.44ZM186.209 118V112.84H187.009V113.68H187.049C187.176 113.387 187.353 113.153 187.579 112.98C187.813 112.807 188.123 112.72 188.509 112.72C189.043 112.72 189.463 112.893 189.769 113.24C190.083 113.58 190.239 114.063 190.239 114.69V118H189.439V114.83C189.439 113.903 189.049 113.44 188.269 113.44C188.109 113.44 187.953 113.46 187.799 113.5C187.653 113.54 187.519 113.6 187.399 113.68C187.279 113.76 187.183 113.863 187.109 113.99C187.043 114.11 187.009 114.253 187.009 114.42V118H186.209ZM196.416 118.12C196.056 118.12 195.73 118.06 195.436 117.94C195.15 117.813 194.903 117.637 194.696 117.41C194.496 117.177 194.343 116.893 194.236 116.56C194.13 116.227 194.076 115.853 194.076 115.44C194.076 114.92 194.153 114.433 194.306 113.98C194.46 113.52 194.656 113.103 194.896 112.73C195.143 112.35 195.413 112.017 195.706 111.73C196 111.437 196.286 111.2 196.566 111.02H197.646C197.273 111.293 196.94 111.56 196.646 111.82C196.353 112.08 196.096 112.353 195.876 112.64C195.656 112.92 195.47 113.223 195.316 113.55C195.163 113.87 195.04 114.233 194.946 114.64L194.996 114.66C195.163 114.373 195.376 114.137 195.636 113.95C195.903 113.757 196.25 113.66 196.676 113.66C196.976 113.66 197.253 113.71 197.506 113.81C197.76 113.91 197.976 114.053 198.156 114.24C198.336 114.427 198.476 114.653 198.576 114.92C198.683 115.187 198.736 115.483 198.736 115.81C198.736 116.15 198.68 116.463 198.566 116.75C198.46 117.03 198.303 117.273 198.096 117.48C197.896 117.68 197.653 117.837 197.366 117.95C197.08 118.063 196.763 118.12 196.416 118.12ZM196.406 117.39C196.866 117.39 197.223 117.263 197.476 117.01C197.736 116.757 197.866 116.393 197.866 115.92V115.84C197.866 115.367 197.736 115.003 197.476 114.75C197.223 114.497 196.866 114.37 196.406 114.37C195.946 114.37 195.586 114.497 195.326 114.75C195.073 115.003 194.946 115.367 194.946 115.84V115.92C194.946 116.393 195.073 116.757 195.326 117.01C195.586 117.263 195.946 117.39 196.406 117.39ZM200.092 115.39V114.53H202.702V115.39H200.092ZM112.85 132V126.84H113.65V127.68H113.69C113.75 127.547 113.817 127.423 113.89 127.31C113.97 127.19 114.063 127.087 114.17 127C114.283 126.913 114.413 126.847 114.56 126.8C114.707 126.747 114.88 126.72 115.08 126.72C115.42 126.72 115.733 126.803 116.02 126.97C116.307 127.13 116.52 127.397 116.66 127.77H116.68C116.773 127.49 116.947 127.247 117.2 127.04C117.46 126.827 117.81 126.72 118.25 126.72C118.777 126.72 119.187 126.893 119.48 127.24C119.78 127.58 119.93 128.063 119.93 128.69V132H119.13V128.83C119.13 128.37 119.04 128.023 118.86 127.79C118.68 127.557 118.393 127.44 118 127.44C117.84 127.44 117.687 127.46 117.54 127.5C117.4 127.54 117.273 127.6 117.16 127.68C117.047 127.76 116.957 127.863 116.89 127.99C116.823 128.11 116.79 128.253 116.79 128.42V132H115.99V128.83C115.99 128.37 115.9 128.023 115.72 127.79C115.54 127.557 115.26 127.44 114.88 127.44C114.72 127.44 114.567 127.46 114.42 127.5C114.273 127.54 114.143 127.6 114.03 127.68C113.917 127.76 113.823 127.863 113.75 127.99C113.683 128.11 113.65 128.253 113.65 128.42V132H112.85ZM123.53 132.12C123.184 132.12 122.867 132.057 122.58 131.93C122.294 131.803 122.047 131.623 121.84 131.39C121.64 131.15 121.484 130.867 121.37 130.54C121.257 130.207 121.2 129.833 121.2 129.42C121.2 129.013 121.257 128.643 121.37 128.31C121.484 127.977 121.64 127.693 121.84 127.46C122.047 127.22 122.294 127.037 122.58 126.91C122.867 126.783 123.184 126.72 123.53 126.72C123.877 126.72 124.19 126.783 124.47 126.91C124.757 127.037 125.004 127.22 125.21 127.46C125.417 127.693 125.577 127.977 125.69 128.31C125.804 128.643 125.86 129.013 125.86 129.42C125.86 129.833 125.804 130.207 125.69 130.54C125.577 130.867 125.417 131.15 125.21 131.39C125.004 131.623 124.757 131.803 124.47 131.93C124.19 132.057 123.877 132.12 123.53 132.12ZM123.53 131.41C123.964 131.41 124.317 131.277 124.59 131.01C124.864 130.743 125 130.337 125 129.79V129.05C125 128.503 124.864 128.097 124.59 127.83C124.317 127.563 123.964 127.43 123.53 127.43C123.097 127.43 122.744 127.563 122.47 127.83C122.197 128.097 122.06 128.503 122.06 129.05V129.79C122.06 130.337 122.197 130.743 122.47 131.01C122.744 131.277 123.097 131.41 123.53 131.41ZM127.176 132V126.84H127.976V127.68H128.016C128.143 127.387 128.32 127.153 128.546 126.98C128.78 126.807 129.09 126.72 129.476 126.72C130.01 126.72 130.43 126.893 130.736 127.24C131.05 127.58 131.206 128.063 131.206 128.69V132H130.406V128.83C130.406 127.903 130.016 127.44 129.236 127.44C129.076 127.44 128.92 127.46 128.766 127.5C128.62 127.54 128.486 127.6 128.366 127.68C128.246 127.76 128.15 127.863 128.076 127.99C128.01 128.11 127.976 128.253 127.976 128.42V132H127.176ZM134 132C133.72 132 133.506 131.923 133.36 131.77C133.22 131.61 133.15 131.403 133.15 131.15V127.54H132.3V126.84H132.78C132.953 126.84 133.07 126.807 133.13 126.74C133.196 126.667 133.23 126.543 133.23 126.37V125.41H133.95V126.84H135.08V127.54H133.95V131.3H135V132H134ZM136.366 124.6H137.166V127.68H137.206C137.332 127.387 137.509 127.153 137.736 126.98C137.969 126.807 138.279 126.72 138.666 126.72C139.199 126.72 139.619 126.893 139.926 127.24C140.239 127.58 140.396 128.063 140.396 128.69V132H139.596V128.83C139.596 127.903 139.206 127.44 138.426 127.44C138.266 127.44 138.109 127.46 137.956 127.5C137.809 127.54 137.676 127.6 137.556 127.68C137.436 127.76 137.339 127.863 137.266 127.99C137.199 128.11 137.166 128.253 137.166 128.42V132H136.366V124.6ZM143.599 132.12C143.119 132.12 142.716 132.03 142.389 131.85C142.069 131.663 141.793 131.417 141.559 131.11L142.129 130.65C142.329 130.903 142.553 131.1 142.799 131.24C143.046 131.373 143.333 131.44 143.659 131.44C143.999 131.44 144.263 131.367 144.449 131.22C144.643 131.073 144.739 130.867 144.739 130.6C144.739 130.4 144.673 130.23 144.539 130.09C144.413 129.943 144.179 129.843 143.839 129.79L143.429 129.73C143.189 129.697 142.969 129.647 142.769 129.58C142.569 129.507 142.393 129.413 142.239 129.3C142.093 129.18 141.976 129.033 141.889 128.86C141.809 128.687 141.769 128.48 141.769 128.24C141.769 127.987 141.816 127.767 141.909 127.58C142.003 127.387 142.129 127.227 142.289 127.1C142.456 126.973 142.653 126.88 142.879 126.82C143.106 126.753 143.349 126.72 143.609 126.72C144.029 126.72 144.379 126.793 144.659 126.94C144.946 127.087 145.196 127.29 145.409 127.55L144.879 128.03C144.766 127.87 144.599 127.727 144.379 127.6C144.159 127.467 143.883 127.4 143.549 127.4C143.216 127.4 142.963 127.473 142.789 127.62C142.623 127.76 142.539 127.953 142.539 128.2C142.539 128.453 142.623 128.637 142.789 128.75C142.963 128.863 143.209 128.947 143.529 129L143.929 129.06C144.503 129.147 144.909 129.313 145.149 129.56C145.389 129.8 145.509 130.117 145.509 130.51C145.509 131.01 145.339 131.403 144.999 131.69C144.659 131.977 144.193 132.12 143.599 132.12ZM153.036 132C152.736 132 152.519 131.92 152.386 131.76C152.259 131.6 152.179 131.4 152.146 131.16H152.096C151.982 131.48 151.796 131.72 151.536 131.88C151.276 132.04 150.966 132.12 150.606 132.12C150.059 132.12 149.632 131.98 149.326 131.7C149.026 131.42 148.876 131.04 148.876 130.56C148.876 130.073 149.052 129.7 149.406 129.44C149.766 129.18 150.322 129.05 151.076 129.05H152.096V128.54C152.096 128.173 151.996 127.893 151.796 127.7C151.596 127.507 151.289 127.41 150.876 127.41C150.562 127.41 150.299 127.48 150.086 127.62C149.879 127.76 149.706 127.947 149.566 128.18L149.086 127.73C149.226 127.45 149.449 127.213 149.756 127.02C150.062 126.82 150.449 126.72 150.916 126.72C151.542 126.72 152.029 126.873 152.376 127.18C152.722 127.487 152.896 127.913 152.896 128.46V131.3H153.486V132H153.036ZM150.736 131.44C150.936 131.44 151.119 131.417 151.286 131.37C151.452 131.323 151.596 131.257 151.716 131.17C151.836 131.083 151.929 130.983 151.996 130.87C152.062 130.757 152.096 130.633 152.096 130.5V129.65H151.036C150.576 129.65 150.239 129.717 150.026 129.85C149.819 129.983 149.716 130.177 149.716 130.43V130.64C149.716 130.893 149.806 131.09 149.986 131.23C150.172 131.37 150.422 131.44 150.736 131.44ZM158.977 132.57C158.977 133.103 158.767 133.493 158.347 133.74C157.934 133.993 157.311 134.12 156.477 134.12C155.671 134.12 155.091 134.01 154.737 133.79C154.384 133.57 154.207 133.257 154.207 132.85C154.207 132.57 154.281 132.35 154.427 132.19C154.574 132.037 154.774 131.923 155.027 131.85V131.74C154.721 131.593 154.567 131.353 154.567 131.02C154.567 130.76 154.651 130.563 154.817 130.43C154.984 130.29 155.197 130.187 155.457 130.12V130.08C155.151 129.933 154.911 129.723 154.737 129.45C154.571 129.177 154.487 128.86 154.487 128.5C154.487 128.24 154.534 128 154.627 127.78C154.721 127.56 154.851 127.373 155.017 127.22C155.191 127.06 155.394 126.937 155.627 126.85C155.867 126.763 156.134 126.72 156.427 126.72C156.794 126.72 157.121 126.787 157.407 126.92V126.83C157.407 126.63 157.454 126.467 157.547 126.34C157.641 126.207 157.794 126.14 158.007 126.14H158.777V126.84H157.797V127.17C157.984 127.33 158.127 127.523 158.227 127.75C158.334 127.97 158.387 128.22 158.387 128.5C158.387 128.76 158.341 129 158.247 129.22C158.154 129.44 158.021 129.63 157.847 129.79C157.681 129.943 157.477 130.063 157.237 130.15C156.997 130.237 156.731 130.28 156.437 130.28C156.271 130.28 156.104 130.263 155.937 130.23C155.764 130.277 155.607 130.347 155.467 130.44C155.327 130.527 155.257 130.65 155.257 130.81C155.257 130.963 155.331 131.067 155.477 131.12C155.624 131.173 155.814 131.2 156.047 131.2H157.147C157.787 131.2 158.251 131.323 158.537 131.57C158.831 131.81 158.977 132.143 158.977 132.57ZM158.227 132.63C158.227 132.423 158.147 132.257 157.987 132.13C157.834 132.01 157.557 131.95 157.157 131.95H155.437C155.117 132.097 154.957 132.33 154.957 132.65C154.957 132.877 155.041 133.07 155.207 133.23C155.381 133.39 155.671 133.47 156.077 133.47H156.817C157.264 133.47 157.611 133.4 157.857 133.26C158.104 133.12 158.227 132.91 158.227 132.63ZM156.437 129.64C156.777 129.64 157.047 129.56 157.247 129.4C157.447 129.233 157.547 128.98 157.547 128.64V128.36C157.547 128.02 157.447 127.77 157.247 127.61C157.047 127.443 156.777 127.36 156.437 127.36C156.097 127.36 155.827 127.443 155.627 127.61C155.427 127.77 155.327 128.02 155.327 128.36V128.64C155.327 128.98 155.427 129.233 155.627 129.4C155.827 129.56 156.097 129.64 156.437 129.64ZM161.802 132.12C161.455 132.12 161.139 132.057 160.852 131.93C160.565 131.803 160.319 131.623 160.112 131.39C159.912 131.15 159.755 130.867 159.642 130.54C159.529 130.207 159.472 129.833 159.472 129.42C159.472 129.013 159.529 128.643 159.642 128.31C159.755 127.977 159.912 127.693 160.112 127.46C160.319 127.22 160.565 127.037 160.852 126.91C161.139 126.783 161.455 126.72 161.802 126.72C162.149 126.72 162.462 126.783 162.742 126.91C163.029 127.037 163.275 127.22 163.482 127.46C163.689 127.693 163.849 127.977 163.962 128.31C164.075 128.643 164.132 129.013 164.132 129.42C164.132 129.833 164.075 130.207 163.962 130.54C163.849 130.867 163.689 131.15 163.482 131.39C163.275 131.623 163.029 131.803 162.742 131.93C162.462 132.057 162.149 132.12 161.802 132.12ZM161.802 131.41C162.235 131.41 162.589 131.277 162.862 131.01C163.135 130.743 163.272 130.337 163.272 129.79V129.05C163.272 128.503 163.135 128.097 162.862 127.83C162.589 127.563 162.235 127.43 161.802 127.43C161.369 127.43 161.015 127.563 160.742 127.83C160.469 128.097 160.332 128.503 160.332 129.05V129.79C160.332 130.337 160.469 130.743 160.742 131.01C161.015 131.277 161.369 131.41 161.802 131.41ZM165.762 132.12C165.549 132.12 165.392 132.067 165.292 131.96C165.199 131.853 165.152 131.713 165.152 131.54V131.41C165.152 131.237 165.199 131.097 165.292 130.99C165.392 130.883 165.549 130.83 165.762 130.83C165.976 130.83 166.129 130.883 166.222 130.99C166.322 131.097 166.372 131.237 166.372 131.41V131.54C166.372 131.713 166.322 131.853 166.222 131.96C166.129 132.067 165.976 132.12 165.762 132.12Z" fill="#333333"/>
</g>
<path id="Vector_15" d="M154.21 91.8079C154.687 90.5288 155.16 89.2514 155.685 87.8426C156.433 88.2584 156.574 88.9173 156.407 89.552C155.91 91.4312 155.385 93.3181 154.672 95.1654C154.264 96.2248 153.263 96.4582 152.505 95.7742C151.242 94.6332 150.056 93.4246 148.838 92.2413C148.767 92.1735 148.66 92.095 148.659 92.0107C148.66 91.7317 148.705 91.4481 148.729 91.1675C148.99 91.1527 149.333 91.038 149.502 91.1384C150.07 91.4763 150.583 91.8906 151.115 92.2746C151.395 92.478 151.671 92.6802 152.225 92.7517C152.124 92.2397 152.045 91.7176 151.913 91.2194C149.247 81.0358 139.427 75.032 127.369 76.2508C125.827 76.406 124.274 76.7364 122.727 76.9777C122.187 77.0608 121.649 77.1176 121.108 77.189C121.073 77.0825 121.035 76.979 120.999 76.8724C121.276 76.6386 121.524 76.2934 121.829 76.1899C122.891 75.8215 123.97 75.4637 125.051 75.2292C136.005 72.866 146.57 76.9592 151.363 85.5006C152.278 87.1287 152.831 88.9673 153.537 90.7156C153.684 91.0747 153.767 91.4644 153.877 91.8391C153.986 91.8303 154.092 91.8246 154.201 91.8158L154.21 91.8079Z" fill="black"/>
</g>
<defs>
<filter id="filter0_dd_1184_365" x="0.48948" y="0.326322" width="133.021" height="163.021" filterUnits="userSpaceOnUse" color-interpolation-filters="sRGB">
<feFlood flood-opacity="0" result="BackgroundImageFix"/>
<feColorMatrix in="SourceAlpha" type="matrix" values="0 0 0 0 0 0 0 0 0 0 0 0 0 0 0 0 0 0 127 0" result="hardAlpha"/>
<feOffset dy="0.836842"/>
<feGaussianBlur stdDeviation="0.836842"/>
<feColorMatrix type="matrix" values="0 0 0 0 0.054902 0 0 0 0 0.054902 0 0 0 0 0.054902 0 0 0 0.06 0"/>
<feBlend mode="normal" in2="BackgroundImageFix" result="effect1_dropShadow_1184_365"/>
<feColorMatrix in="SourceAlpha" type="matrix" values="0 0 0 0 0 0 0 0 0 0 0 0 0 0 0 0 0 0 127 0" result="hardAlpha"/>
<feOffset dy="0.836842"/>
<feGaussianBlur stdDeviation="1.25526"/>
<feColorMatrix type="matrix" values="0 0 0 0 0.054902 0 0 0 0 0.054902 0 0 0 0 0.054902 0 0 0 0.1 0"/>
<feBlend mode="normal" in2="effect1_dropShadow_1184_365" result="effect2_dropShadow_1184_365"/>
<feBlend mode="normal" in="SourceGraphic" in2="effect2_dropShadow_1184_365" result="shape"/>
</filter>
<filter id="filter1_dd_1184_365" x="101" y="97" width="126" height="50" filterUnits="userSpaceOnUse" color-interpolation-filters="sRGB">
<feFlood flood-opacity="0" result="BackgroundImageFix"/>
<feColorMatrix in="SourceAlpha" type="matrix" values="0 0 0 0 0 0 0 0 0 0 0 0 0 0 0 0 0 0 127 0" result="hardAlpha"/>
<feOffset dy="1"/>
<feGaussianBlur stdDeviation="1"/>
<feColorMatrix type="matrix" values="0 0 0 0 0.054902 0 0 0 0 0.054902 0 0 0 0 0.054902 0 0 0 0.06 0"/>
<feBlend mode="normal" in2="BackgroundImageFix" result="effect1_dropShadow_1184_365"/>
<feColorMatrix in="SourceAlpha" type="matrix" values="0 0 0 0 0 0 0 0 0 0 0 0 0 0 0 0 0 0 127 0" result="hardAlpha"/>
<feOffset dy="1"/>
<feGaussianBlur stdDeviation="1.5"/>
<feColorMatrix type="matrix" values="0 0 0 0 0.054902 0 0 0 0 0.054902 0 0 0 0 0.054902 0 0 0 0.1 0"/>
<feBlend mode="normal" in2="effect1_dropShadow_1184_365" result="effect2_dropShadow_1184_365"/>
<feBlend mode="normal" in="SourceGraphic" in2="effect2_dropShadow_1184_365" result="shape"/>
</filter>
<clipPath id="clip0_1184_365">
<rect width="227" height="164" fill="white"/>
</clipPath>
</defs>
</svg>
