<svg width="130" height="80" viewBox="0 0 130 80" fill="none" xmlns="http://www.w3.org/2000/svg">
<g id="illustration / deriv / light / identity-card-front-kyc">
<g id="Vector">
<path d="M120.692 1H9.30832C4.71976 1 1 4.13024 1 7.9916V72.0084C1 75.8698 4.71976 79 9.30832 79H120.692C125.28 79 129 75.8698 129 72.0084V7.9916C129 4.13024 125.28 1 120.692 1Z" fill="white"/>
<path d="M114.161 23H80.1787C76.7662 23 74 25.3403 74 28.2274V66.0626C74 68.9497 76.7662 71.29 80.1787 71.29H114.161C117.574 71.29 120.34 68.9497 120.34 66.0626V28.2274C120.34 25.3403 117.574 23 114.161 23Z" fill="white"/>
<path d="M114.161 23H80.1787C76.7662 23 74 25.3403 74 28.2274V66.0626C74 68.9497 76.7662 71.29 80.1787 71.29H114.161C117.574 71.29 120.34 68.9497 120.34 66.0626V28.2274C120.34 25.3403 117.574 23 114.161 23Z" fill="#F2F2F2"/>
<path fill-rule="evenodd" clip-rule="evenodd" d="M88.7641 56.2879H104.449C107.337 56.2879 109.678 58.6257 109.678 61.5095V66.731H83.5356V61.5095C83.5356 58.6257 85.8764 56.2879 88.7641 56.2879Z" fill="#84ABAE"/>
<path fill-rule="evenodd" clip-rule="evenodd" d="M90.7256 56.2879L92.0326 61.5095L95.3004 58.8986L94.6469 56.2879H90.7256Z" fill="white"/>
<path fill-rule="evenodd" clip-rule="evenodd" d="M102.488 56.2879L101.181 61.5095L97.9131 58.8986L98.5667 56.2879H102.488Z" fill="white"/>
<path d="M105.103 45.1809C105.103 48.5721 103.116 51.4994 100.243 52.8618L100.528 56.2879L97.0684 59.7428C96.8132 59.9977 96.3999 59.9977 96.1447 59.7428L92.6852 56.2879L92.9709 52.8621C90.0974 51.4996 88.1104 48.5723 88.1104 45.1809V43.8865H86.8032C86.0813 43.8865 85.4961 43.302 85.4961 42.5811V40.623C85.4961 39.902 86.0813 39.3175 86.8032 39.3175H88.1104V37.3705C88.1104 32.6781 91.9142 28.8743 96.6065 28.8743C101.299 28.8743 105.103 32.6781 105.103 37.3705V39.3175H106.41C107.132 39.3175 107.717 39.902 107.717 40.623V42.5811C107.717 43.302 107.132 43.8865 106.41 43.8865H105.103V45.1809Z" fill="#C7E5E5"/>
<path fill-rule="evenodd" clip-rule="evenodd" d="M103.468 30.8314C105.865 33.4422 106.409 36.7057 105.102 40.6219V42.2532C105.102 42.4337 104.956 42.58 104.776 42.58C104.595 42.58 104.449 42.4337 104.449 42.2532V39.9176C103.49 38.9077 103.059 38.498 101.834 36.0529C99.5656 37.3584 97.0603 38.0111 94.3186 38.0111C93.4473 38.0111 92.0312 37.7936 90.0705 37.3584C89.5796 38.535 89.1441 39.2918 88.7638 39.6289L88.7635 42.2532C88.7635 42.4337 88.6172 42.58 88.4367 42.58C88.2562 42.58 88.1099 42.4337 88.1099 42.2532L88.109 39.7648C87.9268 39.6513 87.7638 39.3929 87.6197 38.9901C86.8027 36.7057 87.1295 31.8104 90.0705 29.526C93.0116 27.2414 99.8739 26.9151 103.468 30.8314Z" fill="#84ABAE"/>
<path d="M58.1928 47.4277H12.222C10.8999 47.4277 9.82812 48.3297 9.82812 49.4423V50.9846C9.82812 52.0972 10.8999 52.9992 12.222 52.9992H58.1928C59.5149 52.9992 60.5867 52.0972 60.5867 50.9846V49.4423C60.5867 48.3297 59.5149 47.4277 58.1928 47.4277Z" fill="#E3E4E3"/>
<path d="M58.1928 58.5723H12.222C10.8999 58.5723 9.82812 59.4742 9.82812 60.5868V62.1292C9.82812 63.2418 10.8999 64.1437 12.222 64.1437H58.1928C59.515 64.1437 60.5867 63.2418 60.5867 62.1292V60.5868C60.5867 59.4742 59.515 58.5723 58.1928 58.5723Z" fill="#E3E4E3"/>
<path fill-rule="evenodd" clip-rule="evenodd" d="M21.4143 29.7852H13.6902C11.5606 29.7852 9.82812 31.2034 9.82812 32.9467V38.695C9.82812 40.4384 11.5606 41.8566 13.6902 41.8566H21.4143C23.5439 41.8566 25.2764 40.4384 25.2764 38.695V32.9467C25.2764 31.2034 23.5438 29.7852 21.4143 29.7852ZM23.1698 36.6831H21.0632V35.246C21.0632 35.0876 21.2208 34.9586 21.4143 34.9586H23.1698V36.6831ZM23.1698 32.9467V33.2341H21.4143C20.0592 33.2341 18.9567 34.1367 18.9567 35.246V40.1321H16.1479V31.5096H21.4143C22.3824 31.5096 23.1698 32.1543 23.1698 32.9467ZM11.9347 34.9586H14.0413V36.6831H11.9347V34.9586ZM13.6902 31.5096H14.0413V33.2341H11.9347V32.9467C11.9347 32.1543 12.7221 31.5096 13.6902 31.5096ZM11.9347 38.695V38.4076H14.0413V40.1321H13.6902C12.7221 40.1321 11.9347 39.4874 11.9347 38.695ZM21.4143 40.1321H21.0632V38.4076H23.1698V38.695C23.1698 39.4874 22.3824 40.1321 21.4143 40.1321Z" fill="#84ABAE"/>
<path fill-rule="evenodd" clip-rule="evenodd" d="M8.72414 1H121.276C125.542 1 129 3.91015 129 7.5V15.8571H1V7.5C1 3.91015 4.45821 1 8.72414 1Z" fill="#84ABAE"/>
</g>
</g>
</svg>
