<svg width="96" height="96" viewBox="0 0 96 96" fill="none" xmlns="http://www.w3.org/2000/svg">
<g id="illustration / deriv / light / ic-cashier-under-maintenance" clip-path="url(#clip0_408_478)">
<g id="Clip path group">
<mask id="mask0_408_478" style="mask-type:luminance" maskUnits="userSpaceOnUse" x="0" y="0" width="96" height="96">
<g id="clip0_2000_272862">
<path id="Vector" d="M96 0H0V96H96V0Z" fill="white"/>
</g>
</mask>
<g mask="url(#mask0_408_478)">
<g id="Group">
<path id="Vector_2" d="M42.2062 70.8937C41.2039 69.1543 38.8931 68.7412 37.4737 70.1606L20.3044 87.3262C17.49 90.1387 13.0106 90.8493 9.70311 88.6357C5.25748 85.6582 4.82061 79.4932 8.39679 75.8913L33.6718 50.6163C34.8422 49.4467 34.8397 47.5488 33.6659 46.3807C32.4937 45.225 30.6 45.225 29.2687 46.3875L4.01248 71.6437C-1.54127 77.1975 -1.54127 86.2425 4.01248 91.8C7.13248 94.9462 11.4994 96.4312 15.9919 95.8443C19.26 95.4181 22.23 93.7143 24.5606 91.3837L41.5369 74.4112C42.4524 73.4956 42.7219 72.0637 42.0725 70.9443C42.225 70.9312 42.2062 70.9125 42.2062 70.8937ZM48.7125 16.6237C49.5932 15.1575 50.6531 13.785 51.8962 12.5362C56.1619 8.29493 61.7625 5.99806 67.6219 5.99806C68.9109 5.99806 70.2 6.11525 71.4881 6.32618L58.5037 19.3537L61.0819 34.9125L76.6669 37.4906L89.6737 24.51C90.9159 31.6575 88.6663 38.8968 83.4637 44.1037C82.6327 44.9351 81.7374 45.6836 80.7956 46.3537C79.3378 47.39 79.2506 49.5375 80.519 50.7975C81.5737 51.8463 83.2659 51.9708 84.4697 51.0978C85.6031 50.276 86.6859 49.3554 87.7059 48.321C94.784 41.2447 97.5722 31.1928 95.1347 21.471C94.7128 19.6912 93.33 18.2853 91.5497 17.7922C89.7694 17.2991 87.8709 17.7922 86.5584 19.1047L74.5828 31.0785L66.2812 29.6812L64.8988 21.4087L76.8744 9.41243C78.1631 8.12412 78.6787 6.22681 78.1865 4.44556C77.6947 2.66506 76.2647 1.30681 74.4834 0.860557C64.8047 -1.55444 54.7584 1.21212 47.6522 8.28743C46.1015 9.85268 44.8097 11.5893 43.7184 13.4231C43.0076 14.6169 43.1467 16.1325 44.1292 17.1131C45.4687 18.4575 47.7375 18.2437 48.7125 16.6237ZM11.8312 80.9812C11.8312 82.6211 13.1906 83.8125 14.8312 83.8125C16.4719 83.8125 17.6625 82.4531 17.6625 80.9812C17.6625 79.5093 16.3035 78.15 14.8312 78.15C13.359 78.15 11.8312 79.3312 11.8312 80.9812ZM94.2375 73.0125L70.9125 49.6687C67.9837 46.74 64.14 45.2868 60.2962 45.2868C57.4125 45.2868 54.5062 46.1064 52.0237 47.7712L35.8312 31.7437L35.8316 17.9906L12.0004 -0.00756836L-1.86265e-05 11.8312L18 35.6625L31.7569 35.657L47.7881 51.6845C43.9219 57.5195 44.5781 65.4152 49.71 70.5658L73.0537 93.9095C74.1937 95.4 75.5812 95.9999 77.2875 95.9999C78.8105 95.9999 80.3569 95.414 81.5062 94.2421L94.0875 81.4959C96.5812 79.1437 96.5812 75.3562 94.2375 73.0125ZM29.8312 29.8312H21L7.92186 12.5587L12.3937 7.91993L29.6625 20.9943V29.8312H29.8312ZM77.2687 89.9812L53.9437 66.6375C52.2332 64.9265 51.2962 62.6775 51.2962 60.2868C51.2962 57.8718 52.2337 55.6237 53.9437 53.9362C55.6312 52.2253 57.8812 51.2887 60.2962 51.2887C62.6869 51.2887 64.9612 52.2255 66.6469 53.9362L89.9906 77.2425L77.2687 89.9812Z" fill="#FFAD3A"/>
</g>
</g>
</g>
</g>
<defs>
<clipPath id="clip0_408_478">
<rect width="96" height="96" fill="white"/>
</clipPath>
</defs>
</svg>
