<svg width="16" height="16" viewBox="0 0 16 16" fill="none" xmlns="http://www.w3.org/2000/svg">
<g id="illustration / deriv / dark / reset">
<path id="Vector" d="M2.85714 7.125C3.33053 7.125 3.71429 7.51675 3.71429 8C3.71429 10.4162 5.63307 12.375 8 12.375C8.94627 12.375 9.84108 12.0606 10.5702 11.5018L8.85714 11.5C8.38376 11.5 8 11.1082 8 10.625C8 10.1418 8.38376 9.75 8.85714 9.75H12.2857C12.7591 9.75 13.1429 10.1418 13.1429 10.625V14.125C13.1429 14.6082 12.7591 15 12.2857 15C11.8123 15 11.4286 14.6082 11.4286 14.125L11.4289 13.0272C10.4403 13.7309 9.25142 14.125 8 14.125C4.68629 14.125 2 11.3827 2 8C2 7.51675 2.38376 7.125 2.85714 7.125ZM3.71429 1C4.18767 1 4.57143 1.39175 4.57143 1.875L4.57132 2.97269C5.56141 2.2678 6.75024 1.875 8 1.875C11.3137 1.875 14 4.61726 14 8C14 8.48325 13.6162 8.875 13.1429 8.875C12.6695 8.875 12.2857 8.48325 12.2857 8C12.2857 5.58375 10.3669 3.625 8 3.625C7.05424 3.625 6.15917 3.93873 5.42856 4.4993L7.14286 4.5C7.61624 4.5 8 4.89175 8 5.375C8 5.85825 7.61624 6.25 7.14286 6.25H3.71429C3.2409 6.25 2.85714 5.85825 2.85714 5.375V1.875C2.85714 1.39175 3.2409 1 3.71429 1Z" fill="#333333"/>
</g>
</svg>
