<svg width="130" height="80" viewBox="0 0 130 80" fill="none" xmlns="http://www.w3.org/2000/svg">
<g id="illustration / deriv / light / selfie-frame-kyc">
<g id="Vector">
<path d="M87.7716 58.4987C89.0372 60.1237 93.0146 63.3737 99.7038 68.2487C99.3951 72.0406 96.4831 72.0406 92.4514 72.0404H92.3818H86.1445H78.5513L76.3818 69.332C75.9125 69.2539 75.4531 69.18 75.004 69.1078L75.0011 69.1074L74.9951 69.1064C69.2212 68.178 65.1647 67.5258 63.9072 61.7487C63.5912 60.2971 62.7065 59.8994 61.6852 59.4403C60.8082 59.0461 59.8305 58.6065 59.0259 57.4154L60.653 56.332L79.6903 47.5571C79.6251 47.4208 79.5808 47.3299 79.5505 47.2693C74.6745 48.3557 71.6293 47.9461 70.415 46.0404C68.5167 43.0612 69.3303 41.7071 70.9574 41.1654C71.4143 41.0133 72.085 40.8826 72.8614 40.7312C74.8502 40.3435 77.5327 39.8206 79.093 38.4571C79.8896 37.761 81.198 37.357 82.535 37.4194C84.9902 37.3054 87.7716 38.7222 87.7716 42.7904C87.7716 43.998 88.0946 44.9258 88.4315 45.8932C89.0371 47.6326 89.6874 49.5003 88.5852 53.3529C88.2835 54.4073 88.0232 55.1916 87.8222 55.7971C87.3002 57.3693 87.1782 57.7369 87.7716 58.4987Z" fill="#BCCDCE"/>
<path fill-rule="evenodd" clip-rule="evenodd" d="M105.679 1.58105C105.679 1.30491 105.903 1.08105 106.179 1.08105H124.619C127.292 1.08105 128.958 2.74759 128.958 5.42003V19.4978C128.958 19.7739 128.734 19.9978 128.458 19.9978C128.182 19.9978 127.958 19.7739 127.958 19.4978V5.42003C127.958 3.29978 126.74 2.08105 124.619 2.08105H106.179C105.903 2.08105 105.679 1.8572 105.679 1.58105Z" fill="#BCCDCE"/>
<path fill-rule="evenodd" clip-rule="evenodd" d="M0.958008 5.42003C0.958008 2.74754 2.62426 1.08105 5.29675 1.08105H23.7374C24.0136 1.08105 24.2374 1.30491 24.2374 1.58105C24.2374 1.8572 24.0136 2.08105 23.7374 2.08105H5.29675C3.17654 2.08105 1.95801 3.29983 1.95801 5.42003V19.4978C1.95801 19.7739 1.73415 19.9978 1.45801 19.9978C1.18187 19.9978 0.958008 19.7739 0.958008 19.4978V5.42003Z" fill="#BCCDCE"/>
<path fill-rule="evenodd" clip-rule="evenodd" d="M1.45801 60.1644C1.73415 60.1644 1.95801 60.3882 1.95801 60.6644V74.7421C1.95801 76.8623 2.9004 78.0809 5.02061 78.0809H23.4613C23.7374 78.0809 23.9613 78.3047 23.9613 78.5809C23.9613 78.857 23.7374 79.0809 23.4613 79.0809H5.02061C2.34811 79.0809 0.958008 77.4146 0.958008 74.7421V60.6644C0.958008 60.3882 1.18187 60.1644 1.45801 60.1644Z" fill="#BCCDCE"/>
<path fill-rule="evenodd" clip-rule="evenodd" d="M128.458 60.1644C128.734 60.1644 128.958 60.3882 128.958 60.6644V74.7421C128.958 77.4146 127.292 79.0809 124.619 79.0809H106.179C105.903 79.0809 105.679 78.857 105.679 78.5809C105.679 78.3047 105.903 78.0809 106.179 78.0809H124.619C126.74 78.0809 127.958 76.8624 127.958 74.7421V60.6644C127.958 60.3882 128.182 60.1644 128.458 60.1644Z" fill="#BCCDCE"/>
<path d="M74.7224 8.12402H47.6037C45.2074 8.12402 43.2647 10.0667 43.2647 12.4631V67.7018C43.2647 70.0981 45.2074 72.0407 47.6037 72.0407H74.7224C77.1187 72.0407 79.0614 70.0981 79.0614 67.7018V12.4631C79.0614 10.0667 77.1187 8.12402 74.7224 8.12402Z" fill="#85ACB0"/>
<path fill-rule="evenodd" clip-rule="evenodd" d="M45.4347 14.6291V65.5344C45.4347 67.9308 47.3773 69.8734 49.7736 69.8734H72.5533C74.9497 69.8734 76.8923 67.9308 76.8923 65.5344V14.6291C76.8923 12.2327 74.9497 10.2901 72.5533 10.2901C72.252 10.2901 71.9507 10.2901 71.6494 10.2901C70.7122 10.2901 69.3556 10.2901 69.0279 10.2901C67.0287 10.2901 69.0279 12.7989 66.4064 12.7989C65.751 12.7989 63.2426 12.7276 60.6211 12.7276C57.9996 12.7276 56.5759 12.7989 55.9205 12.7989C53.2991 12.7989 55.2652 10.2901 53.2991 10.2901C51.9883 10.2901 52.5809 10.2901 50.6776 10.2901C50.3763 10.2901 50.075 10.2901 49.7736 10.2901C47.3773 10.2901 45.4347 12.2327 45.4347 14.6291Z" fill="white"/>
<path fill-rule="evenodd" clip-rule="evenodd" d="M54.6545 45.4991H67.6715C70.0678 45.4991 72.0104 47.4392 72.0104 49.8324V54.1657H50.3155V49.8324C50.3155 47.4392 52.2582 45.4991 54.6545 45.4991Z" fill="#84ABAE"/>
<path fill-rule="evenodd" clip-rule="evenodd" d="M56.2823 45.4991L57.3671 49.8324L60.0789 47.6657L59.5366 45.4991H56.2823Z" fill="white"/>
<path fill-rule="evenodd" clip-rule="evenodd" d="M66.0438 45.4991L64.959 49.8324L62.2472 47.6657L62.7895 45.4991H66.0438Z" fill="white"/>
<path d="M68.2137 36.2816C68.2137 39.0959 66.5648 41.5252 64.1803 42.6559L64.4171 45.4991L61.5461 48.3663C61.3343 48.5778 60.9913 48.5778 60.7795 48.3663L57.9086 45.4991L58.1457 42.6561C55.7611 41.5254 54.112 39.0961 54.112 36.2816V35.2074H53.0272C52.4281 35.2074 51.9425 34.7224 51.9425 34.1241V32.4991C51.9425 31.9008 52.4281 31.4157 53.0272 31.4157H54.112V29.7999C54.112 25.9058 57.2687 22.7491 61.1628 22.7491C65.0569 22.7491 68.2137 25.9058 68.2137 29.7999V31.4157H69.2984C69.8975 31.4157 70.3832 31.9008 70.3832 32.4991V34.1241C70.3832 34.7224 69.8975 35.2074 69.2984 35.2074H68.2137V36.2816Z" fill="#C7E5E5"/>
<path fill-rule="evenodd" clip-rule="evenodd" d="M66.8574 24.3732C68.8461 26.5399 69.2981 29.2482 68.2133 32.4982V33.852C68.2133 34.0018 68.0919 34.1232 67.9421 34.1232C67.7923 34.1232 67.6709 34.0018 67.6709 33.852V31.9137C66.8754 31.0756 66.5173 30.7356 65.5014 28.7065C63.6185 29.7899 61.5394 30.3315 59.2642 30.3315C58.541 30.3315 57.3658 30.151 55.7387 29.7899C55.3313 30.7663 54.9699 31.3944 54.6543 31.6741L54.654 33.852C54.654 34.0018 54.5326 34.1232 54.3828 34.1232C54.233 34.1232 54.1116 34.0018 54.1116 33.852L54.1109 31.7869C53.9598 31.6927 53.8244 31.4783 53.7048 31.144C53.0269 29.2482 53.2981 25.1857 55.7387 23.2899C58.1794 21.394 63.8743 21.1232 66.8574 24.3732Z" fill="#84ABAE"/>
<path fill-rule="evenodd" clip-rule="evenodd" d="M68.7999 18.9581C68.7999 18.6819 69.0238 18.4581 69.2999 18.4581H73.6389C74.2145 18.4581 74.6813 18.9246 74.6813 19.5004V23.8331C74.6813 24.1092 74.4575 24.3331 74.1813 24.3331C73.9052 24.3331 73.6813 24.1092 73.6813 23.8331V19.5004C73.6813 19.4771 73.6624 19.4581 73.6389 19.4581H69.2999C69.0238 19.4581 68.7999 19.2342 68.7999 18.9581Z" fill="#FF444F"/>
<path fill-rule="evenodd" clip-rule="evenodd" d="M74.1813 46.6241C74.4575 46.6241 74.6813 46.8479 74.6813 47.1241V51.4567C74.6813 52.0323 74.2146 52.4991 73.6389 52.4991H69.2999C69.0238 52.4991 68.7999 52.2752 68.7999 51.9991C68.7999 51.7229 69.0238 51.4991 69.2999 51.4991H73.6389C73.6623 51.4991 73.6813 51.48 73.6813 51.4567V47.1241C73.6813 46.8479 73.9052 46.6241 74.1813 46.6241Z" fill="#FF444F"/>
<path fill-rule="evenodd" clip-rule="evenodd" d="M47.1041 19.5004C47.1041 18.9247 47.5708 18.4581 48.1465 18.4581H52.4854C52.7616 18.4581 52.9854 18.6819 52.9854 18.9581C52.9854 19.2342 52.7616 19.4581 52.4854 19.4581H48.1465C48.123 19.4581 48.1041 19.4771 48.1041 19.5004V23.8331C48.1041 24.1092 47.8803 24.3331 47.6041 24.3331C47.328 24.3331 47.1041 24.1092 47.1041 23.8331V19.5004Z" fill="#FF444F"/>
<path fill-rule="evenodd" clip-rule="evenodd" d="M47.6041 46.6241C47.8803 46.6241 48.1041 46.8479 48.1041 47.1241V51.4567C48.1041 51.4801 48.1231 51.4991 48.1465 51.4991H52.4854C52.7616 51.4991 52.9854 51.7229 52.9854 51.9991C52.9854 52.2752 52.7616 52.4991 52.4854 52.4991H48.1465C47.5707 52.4991 47.1041 52.0322 47.1041 51.4567V47.1241C47.1041 46.8479 47.328 46.6241 47.6041 46.6241Z" fill="#FF444F"/>
<path d="M45.4347 54.1651H76.8923V65.5344C76.8923 67.9308 74.9497 69.8734 72.5533 69.8734H49.7736C47.3773 69.8734 45.4347 67.9308 45.4347 65.5344V54.1651Z" fill="#C7E5E5"/>
<path d="M61.1635 67.7061C62.9608 67.7061 64.4177 66.251 64.4177 64.4561C64.4177 62.6612 62.9608 61.2061 61.1635 61.2061C59.3662 61.2061 57.9093 62.6612 57.9093 64.4561C57.9093 66.251 59.3662 67.7061 61.1635 67.7061Z" fill="white"/>
<path d="M45.9816 35.6369L42.129 32.6268C40.8324 31.6138 38.9603 31.8437 37.9473 33.1403C36.9342 34.4368 37.1641 36.3091 38.4606 37.3221L42.3134 40.3321C43.61 41.3451 45.4821 41.1152 46.4951 39.8186C47.5081 38.5221 47.2782 36.6499 45.9816 35.6369Z" fill="#BCCDCE"/>
<path d="M45.9816 51.8869L42.129 48.8768C40.8324 47.8638 38.9603 48.0937 37.9473 49.3903C36.9342 50.6868 37.1641 52.5591 38.4606 53.5721L42.3134 56.5821C43.61 57.5951 45.4821 57.3652 46.4951 56.0686C47.5081 54.7721 47.2782 52.8999 45.9816 51.8869Z" fill="#BCCDCE"/>
<path d="M45.9816 43.7619L42.129 40.7518C40.8324 39.7388 38.9603 39.9687 37.9473 41.2653C36.9342 42.5618 37.1641 44.4341 38.4606 45.4471L42.3134 48.4571C43.61 49.4701 45.4821 49.2402 46.4951 47.9436C47.5081 46.6471 47.2782 44.7749 45.9816 43.7619Z" fill="#BCCDCE"/>
<path d="M45.9816 27.5119L42.129 24.5018C40.8324 23.4888 38.9603 23.7187 37.9473 25.0153C36.9342 26.3118 37.1641 28.1841 38.4606 29.1971L42.3134 32.2071C43.61 33.2201 45.4821 32.9902 46.4951 31.6936C47.5081 30.3971 47.2782 28.5249 45.9816 27.5119Z" fill="#BCCDCE"/>
<path fill-rule="evenodd" clip-rule="evenodd" d="M70.9248 41.1655C72.5519 40.6238 76.8909 40.353 79.0604 38.4572C81.2299 36.5613 87.196 36.8322 87.196 42.7905C87.196 46.7627 84.8457 48.2072 80.1452 47.1238C74.9022 48.3877 71.648 48.0266 70.3824 46.0405C68.4841 43.0613 69.2977 41.7072 70.9248 41.1655Z" fill="#BCCDCE"/>
</g>
</g>
</svg>
