<svg width="138" height="162" viewBox="0 0 138 162" fill="none" xmlns="http://www.w3.org/2000/svg">
<g id="illustration / deriv / light / ic-cropped-document" clip-path="url(#clip0_1184_369)">
<g id="Group" filter="url(#filter0_dd_1184_369)">
<path id="Vector" d="M131 2H7C4.79086 2 3 3.79086 3 6V154C3 156.209 4.79086 158 7 158H131C133.209 158 135 156.209 135 154V6C135 3.79086 133.209 2 131 2Z" fill="white"/>
<path id="Vector_2" fill-rule="evenodd" clip-rule="evenodd" d="M19.348 19.5051C20.1818 18.7721 20.708 17.6975 20.708 16.5C20.708 15.3025 20.1818 14.2279 19.348 13.4949C20.0524 12.8756 20.9764 12.5 21.988 12.5C24.1971 12.5 25.988 14.2909 25.988 16.5C25.988 18.7091 24.1971 20.5 21.988 20.5C20.9764 20.5 20.0524 20.1244 19.348 19.5051ZM19.348 19.5051C18.6436 20.1244 17.7197 20.5 16.708 20.5C14.4989 20.5 12.708 18.7091 12.708 16.5C12.708 14.2909 14.4989 12.5 16.708 12.5C17.7197 12.5 18.6436 12.8756 19.348 13.4949C18.5142 14.2279 17.988 15.3025 17.988 16.5C17.988 17.6975 18.5142 18.7721 19.348 19.5051Z" fill="#FFAD3A"/>
<path id="Vector_3" d="M10.708 11H127.292V9H10.708V11ZM127.292 21.5938H10.708V23.5938H127.292V21.5938Z" fill="#85ACB0"/>
<path id="Vector_4" d="M14.43 28.51V30.99C14.43 31.15 14.4033 31.2967 14.35 31.43C14.3 31.5601 14.225 31.6717 14.125 31.765C14.025 31.855 13.9033 31.9267 13.76 31.98C13.62 32.03 13.46 32.055 13.28 32.055C13.1067 32.055 12.9533 32.0318 12.82 31.9851C12.69 31.9384 12.5767 31.8717 12.48 31.785C12.3867 31.6983 12.31 31.595 12.25 31.475C12.19 31.3551 12.1483 31.2218 12.125 31.0751L12.835 30.935C12.8917 31.2383 13.0367 31.39 13.27 31.39C13.38 31.39 13.4733 31.355 13.55 31.285C13.63 31.215 13.67 31.105 13.67 30.955V29.1201H12.61V28.51H14.43ZM16.203 32.0601C16.0096 32.0601 15.8363 32.0283 15.683 31.965C15.533 31.9017 15.4046 31.8101 15.298 31.6901C15.1946 31.5701 15.1146 31.425 15.058 31.255C15.0013 31.085 14.973 30.895 14.973 30.685C14.973 30.475 15.0013 30.285 15.058 30.115C15.1146 29.945 15.1946 29.8017 15.298 29.685C15.4046 29.565 15.533 29.4733 15.683 29.41C15.8363 29.3467 16.0096 29.3151 16.203 29.3151C16.3963 29.3151 16.568 29.3467 16.718 29.41C16.8713 29.4733 16.9996 29.565 17.103 29.685C17.2096 29.8017 17.2913 29.945 17.348 30.115C17.4046 30.285 17.433 30.475 17.433 30.685C17.433 30.895 17.4046 31.085 17.348 31.255C17.2913 31.425 17.2096 31.5701 17.103 31.6901C16.9996 31.8101 16.8713 31.9017 16.718 31.965C16.568 32.0283 16.3963 32.0601 16.203 32.0601ZM16.203 31.475C16.3496 31.475 16.463 31.43 16.543 31.34C16.623 31.25 16.663 31.1217 16.663 30.955V30.42C16.663 30.2533 16.623 30.125 16.543 30.035C16.463 29.945 16.3496 29.9 16.203 29.9C16.0563 29.9 15.943 29.945 15.863 30.035C15.783 30.125 15.743 30.2533 15.743 30.42V30.955C15.743 31.1217 15.783 31.25 15.863 31.34C15.943 31.43 16.0563 31.475 16.203 31.475ZM17.9602 28.3H18.7002V29.82H18.7302C18.7769 29.6833 18.8586 29.565 18.9752 29.465C19.0919 29.365 19.2536 29.3151 19.4602 29.3151C19.7302 29.3151 19.9336 29.405 20.0702 29.585C20.2102 29.765 20.2802 30.0217 20.2802 30.355V32H19.5402V30.4151C19.5402 30.2451 19.5136 30.1201 19.4602 30.0401C19.4069 29.9568 19.3119 29.9151 19.1752 29.9151C19.1152 29.9151 19.0569 29.9234 19.0002 29.9401C18.9436 29.9534 18.8919 29.9767 18.8452 30.01C18.8019 30.0433 18.7669 30.085 18.7402 30.135C18.7136 30.1817 18.7002 30.2367 18.7002 30.3V32H17.9602V28.3ZM20.9388 32V29.375H21.6788V29.82H21.7088C21.7554 29.6833 21.8371 29.565 21.9538 29.465C22.0704 29.365 22.2321 29.3151 22.4388 29.3151C22.7088 29.3151 22.9121 29.405 23.0488 29.585C23.1888 29.765 23.2588 30.0217 23.2588 30.355V32H22.5188V30.4151C22.5188 30.2451 22.4921 30.1201 22.4388 30.0401C22.3854 29.9568 22.2904 29.9151 22.1538 29.9151C22.0938 29.9151 22.0354 29.9234 21.9788 29.9401C21.9221 29.9534 21.8704 29.9767 21.8238 30.01C21.7804 30.0433 21.7454 30.085 21.7188 30.135C21.6921 30.1817 21.6788 30.2367 21.6788 30.3V32H20.9388ZM27.3539 31.445H27.3289C27.3022 31.6217 27.2122 31.7683 27.0589 31.885C26.9056 32.0017 26.6972 32.0601 26.4339 32.0601C26.2339 32.0601 26.0472 32.0217 25.8739 31.945C25.7006 31.8683 25.5489 31.755 25.4189 31.605C25.2889 31.455 25.1872 31.2683 25.1139 31.045C25.0406 30.8217 25.0039 30.5633 25.0039 30.2701C25.0039 29.9768 25.0422 29.7167 25.1189 29.49C25.1956 29.2633 25.3022 29.0733 25.4389 28.92C25.5789 28.7667 25.7456 28.65 25.9389 28.57C26.1322 28.49 26.3472 28.4501 26.5839 28.4501C26.8972 28.4501 27.1672 28.5184 27.3939 28.6551C27.6206 28.7884 27.7989 28.99 27.9289 29.26L27.3089 29.615C27.2556 29.4783 27.1722 29.3634 27.0589 29.2701C26.9456 29.1734 26.7872 29.125 26.5839 29.125C26.3472 29.125 26.1589 29.1933 26.0189 29.33C25.8789 29.4667 25.8089 29.6817 25.8089 29.975V30.535C25.8089 30.825 25.8789 31.04 26.0189 31.18C26.1589 31.3167 26.3472 31.385 26.5839 31.385C26.6772 31.385 26.7656 31.375 26.8489 31.355C26.9322 31.3317 27.0056 31.2983 27.0689 31.255C27.1322 31.2083 27.1806 31.1533 27.2139 31.09C27.2506 31.0267 27.2689 30.9517 27.2689 30.865V30.6901H26.6189V30.055H27.9939V32H27.3539V31.445ZM29.7577 32.0601C29.5643 32.0601 29.391 32.0283 29.2377 31.965C29.0877 31.9017 28.9593 31.8101 28.8527 31.6901C28.7493 31.5701 28.6693 31.425 28.6127 31.255C28.556 31.085 28.5277 30.895 28.5277 30.685C28.5277 30.475 28.556 30.285 28.6127 30.115C28.6693 29.945 28.7493 29.8017 28.8527 29.685C28.9593 29.565 29.0877 29.4733 29.2377 29.41C29.391 29.3467 29.5643 29.3151 29.7577 29.3151C29.951 29.3151 30.1227 29.3467 30.2727 29.41C30.426 29.4733 30.5543 29.565 30.6577 29.685C30.7643 29.8017 30.846 29.945 30.9027 30.115C30.9593 30.285 30.9877 30.475 30.9877 30.685C30.9877 30.895 30.9593 31.085 30.9027 31.255C30.846 31.425 30.7643 31.5701 30.6577 31.6901C30.5543 31.8101 30.426 31.9017 30.2727 31.965C30.1227 32.0283 29.951 32.0601 29.7577 32.0601ZM29.7577 31.475C29.9043 31.475 30.0177 31.43 30.0977 31.34C30.1777 31.25 30.2177 31.1217 30.2177 30.955V30.42C30.2177 30.2533 30.1777 30.125 30.0977 30.035C30.0177 29.945 29.9043 29.9 29.7577 29.9C29.611 29.9 29.4977 29.945 29.4177 30.035C29.3377 30.125 29.2977 30.2533 29.2977 30.42V30.955C29.2977 31.1217 29.3377 31.25 29.4177 31.34C29.4977 31.43 29.611 31.475 29.7577 31.475ZM31.5149 32V29.375H32.2549V29.82H32.2849C32.3316 29.6833 32.4133 29.565 32.5299 29.465C32.6466 29.365 32.8083 29.3151 33.0149 29.3151C33.2849 29.3151 33.4883 29.405 33.6249 29.585C33.7649 29.765 33.8349 30.0217 33.8349 30.355V32H33.0949V30.4151C33.0949 30.2451 33.0683 30.1201 33.0149 30.0401C32.9616 29.9568 32.8666 29.9151 32.7299 29.9151C32.6699 29.9151 32.6116 29.9234 32.5549 29.9401C32.4983 29.9534 32.4466 29.9767 32.3999 30.01C32.3566 30.0433 32.3216 30.085 32.2949 30.135C32.2683 30.1817 32.2549 30.2367 32.2549 30.3V32H31.5149ZM34.3434 32V31.4151L35.6484 29.9501H34.3884V29.375H36.5084V29.955L35.1984 31.425H36.5434V32H34.3434ZM39.0213 32C38.888 32 38.7763 31.9583 38.6863 31.875C38.5997 31.7917 38.5447 31.6801 38.5213 31.5401H38.4913C38.4513 31.7101 38.363 31.84 38.2263 31.93C38.0897 32.0167 37.9213 32.0601 37.7213 32.0601C37.458 32.0601 37.2563 31.9901 37.1163 31.85C36.9763 31.71 36.9063 31.525 36.9063 31.295C36.9063 31.0183 37.0063 30.8133 37.2063 30.68C37.4097 30.5433 37.6847 30.475 38.0313 30.475H38.4463V30.31C38.4463 30.1833 38.413 30.0833 38.3463 30.01C38.2797 29.9333 38.168 29.8951 38.0113 29.8951C37.8647 29.8951 37.748 29.9267 37.6613 29.99C37.5747 30.0533 37.503 30.125 37.4463 30.205L37.0063 29.8151C37.113 29.6584 37.2463 29.5368 37.4063 29.4501C37.5697 29.3601 37.7897 29.3151 38.0663 29.3151C38.4397 29.3151 38.7197 29.3967 38.9063 29.56C39.093 29.7233 39.1863 29.9617 39.1863 30.275V31.425H39.4313V32H39.0213ZM37.9963 31.545C38.1197 31.545 38.2247 31.5183 38.3113 31.465C38.4013 31.4117 38.4463 31.325 38.4463 31.205V30.8951H38.0863C37.7963 30.8951 37.6513 30.9934 37.6513 31.1901V31.265C37.6513 31.3617 37.6813 31.4333 37.7413 31.48C37.8013 31.5233 37.8863 31.545 37.9963 31.545ZM40.663 32C40.4097 32 40.223 31.9384 40.103 31.8151C39.9863 31.6918 39.928 31.5134 39.928 31.2801V28.3H40.668V31.425H40.998V32H40.663ZM42.5367 32.0601C42.3367 32.0601 42.1583 32.0283 42.0017 31.965C41.845 31.8983 41.7117 31.8068 41.6017 31.6901C41.495 31.5701 41.4133 31.425 41.3567 31.255C41.3033 31.085 41.2767 30.895 41.2767 30.685C41.2767 30.4783 41.3033 30.2917 41.3567 30.125C41.41 29.955 41.4883 29.8101 41.5917 29.6901C41.6983 29.5701 41.8283 29.4784 41.9817 29.4151C42.135 29.3484 42.31 29.3151 42.5067 29.3151C42.7233 29.3151 42.9083 29.3517 43.0617 29.425C43.2183 29.4983 43.345 29.5967 43.4417 29.72C43.5417 29.8433 43.6133 29.9867 43.6567 30.15C43.7033 30.31 43.7267 30.4784 43.7267 30.6551V30.875H42.0417V30.9151C42.0417 31.0884 42.0883 31.2267 42.1817 31.33C42.275 31.43 42.4217 31.48 42.6217 31.48C42.775 31.48 42.9 31.45 42.9967 31.39C43.0933 31.3267 43.1833 31.2518 43.2667 31.1651L43.6367 31.625C43.52 31.7617 43.3667 31.8683 43.1767 31.945C42.99 32.0217 42.7767 32.0601 42.5367 32.0601ZM42.5217 29.8601C42.3717 29.8601 42.2533 29.91 42.1667 30.01C42.0833 30.1067 42.0417 30.2367 42.0417 30.4V30.4401H42.9617V30.3951C42.9617 30.2351 42.925 30.1067 42.8517 30.01C42.7817 29.91 42.6717 29.8601 42.5217 29.8601ZM44.0749 32V31.4151L45.3799 29.9501H44.1199V29.375H46.2399V29.955L44.9299 31.425H46.2749V32H44.0749Z" fill="#3F6FE5"/>
<path id="Vector_5" d="M12.4399 40V39.63H13.4149V36.82H13.3799L12.4999 37.6399L12.2549 37.375L13.1799 36.5099H13.8349V39.63H14.7349V40H12.4399ZM17.4879 36.88H15.9579L15.8579 38.2099H15.8929C15.9763 38.0932 16.0696 38 16.1729 37.93C16.2796 37.86 16.4246 37.825 16.6079 37.825C16.7579 37.825 16.8963 37.85 17.0229 37.9C17.1496 37.95 17.2596 38.0217 17.3529 38.115C17.4463 38.205 17.5179 38.3167 17.5679 38.45C17.6213 38.5833 17.6479 38.7349 17.6479 38.9049C17.6479 39.0749 17.6213 39.2317 17.5679 39.375C17.5146 39.515 17.4363 39.6367 17.3329 39.74C17.2329 39.84 17.1096 39.9182 16.9629 39.9749C16.8196 40.0316 16.6563 40.06 16.4729 40.06C16.3263 40.06 16.1963 40.0432 16.0829 40.0099C15.9729 39.9766 15.8746 39.9317 15.7879 39.875C15.7013 39.8183 15.6246 39.755 15.5579 39.685C15.4946 39.615 15.4363 39.5417 15.3829 39.465L15.6979 39.2249C15.7413 39.2949 15.7863 39.3583 15.8329 39.415C15.8829 39.4717 15.9363 39.52 15.9929 39.56C16.0529 39.6 16.1213 39.6316 16.1979 39.6549C16.2746 39.6749 16.3663 39.685 16.4729 39.685C16.7129 39.685 16.8946 39.6216 17.0179 39.4949C17.1413 39.3682 17.2029 39.1899 17.2029 38.9599V38.91C17.2029 38.68 17.1413 38.5017 17.0179 38.375C16.8946 38.2483 16.7129 38.185 16.4729 38.185C16.3129 38.185 16.1863 38.215 16.0929 38.275C16.0029 38.3317 15.9213 38.3999 15.8479 38.4799L15.4929 38.43L15.6179 36.5099H17.4879V36.88ZM21.8276 38.4199H20.0626V40H19.6426V36.5099H20.0626V38.0499H21.8276V36.5099H22.2476V40H21.8276V38.4199ZM25.0128 40C24.8628 40 24.7545 39.96 24.6878 39.88C24.6245 39.8 24.5845 39.7 24.5678 39.58H24.5428C24.4861 39.74 24.3928 39.8599 24.2628 39.9399C24.1328 40.0199 23.9778 40.06 23.7978 40.06C23.5245 40.06 23.3111 39.9899 23.1578 39.8499C23.0078 39.7099 22.9328 39.5199 22.9328 39.2799C22.9328 39.0366 23.0211 38.85 23.1978 38.72C23.3778 38.59 23.6561 38.525 24.0328 38.525H24.5428V38.27C24.5428 38.0867 24.4928 37.9466 24.3928 37.8499C24.2928 37.7532 24.1395 37.705 23.9328 37.705C23.7761 37.705 23.6445 37.74 23.5378 37.81C23.4345 37.88 23.3478 37.9733 23.2778 38.09L23.0378 37.865C23.1078 37.725 23.2195 37.6066 23.3728 37.5099C23.5261 37.4099 23.7195 37.36 23.9528 37.36C24.2661 37.36 24.5095 37.4367 24.6828 37.59C24.8561 37.7433 24.9428 37.9567 24.9428 38.2299V39.65H25.2378V40H25.0128ZM23.8628 39.72C23.9628 39.72 24.0545 39.7083 24.1378 39.685C24.2211 39.6617 24.2928 39.6282 24.3528 39.5849C24.4128 39.5416 24.4595 39.4917 24.4928 39.435C24.5261 39.3783 24.5428 39.3167 24.5428 39.25V38.825H24.0128C23.7828 38.825 23.6145 38.8582 23.5078 38.9249C23.4045 38.9916 23.3528 39.0883 23.3528 39.215V39.32C23.3528 39.4467 23.3978 39.545 23.4878 39.615C23.5811 39.685 23.7061 39.72 23.8628 39.72ZM25.8087 40V37.4199H26.2087V37.895H26.2337C26.2804 37.7717 26.3637 37.6616 26.4837 37.5649C26.6037 37.4682 26.7687 37.4199 26.9787 37.4199H27.1337V37.82H26.8987C26.682 37.82 26.512 37.8617 26.3887 37.945C26.2687 38.025 26.2087 38.1267 26.2087 38.25V40H25.8087ZM27.6446 40V37.4199H28.0446V37.84H28.0646C28.0946 37.7733 28.128 37.7116 28.1646 37.6549C28.2046 37.5949 28.2513 37.5433 28.3046 37.5C28.3613 37.4567 28.4263 37.4233 28.4996 37.4C28.573 37.3733 28.6596 37.36 28.7596 37.36C28.9296 37.36 29.0863 37.4017 29.2296 37.485C29.373 37.565 29.4796 37.6982 29.5496 37.8849H29.5596C29.6063 37.7449 29.693 37.6233 29.8196 37.52C29.9496 37.4133 30.1246 37.36 30.3446 37.36C30.608 37.36 30.813 37.4466 30.9596 37.6199C31.1096 37.7899 31.1846 38.0317 31.1846 38.345V40H30.7846V38.415C30.7846 38.185 30.7396 38.0117 30.6496 37.895C30.5596 37.7783 30.4163 37.72 30.2196 37.72C30.1396 37.72 30.063 37.73 29.9896 37.75C29.9196 37.77 29.8563 37.8 29.7996 37.84C29.743 37.88 29.698 37.9316 29.6646 37.9949C29.6313 38.0549 29.6146 38.1266 29.6146 38.2099V40H29.2146V38.415C29.2146 38.185 29.1696 38.0117 29.0796 37.895C28.9896 37.7783 28.8496 37.72 28.6596 37.72C28.5796 37.72 28.503 37.73 28.4296 37.75C28.3563 37.77 28.2913 37.8 28.2346 37.84C28.178 37.88 28.1313 37.9316 28.0946 37.9949C28.0613 38.0549 28.0446 38.1266 28.0446 38.2099V40H27.6446ZM32.9849 40.06C32.8115 40.06 32.6532 40.0283 32.5099 39.965C32.3665 39.9017 32.2432 39.8117 32.1399 39.695C32.0399 39.575 31.9615 39.4333 31.9049 39.27C31.8482 39.1033 31.8199 38.9166 31.8199 38.7099C31.8199 38.5066 31.8482 38.3216 31.9049 38.1549C31.9615 37.9882 32.0399 37.8467 32.1399 37.7299C32.2432 37.6099 32.3665 37.5183 32.5099 37.455C32.6532 37.3917 32.8115 37.36 32.9849 37.36C33.1582 37.36 33.3149 37.3917 33.4549 37.455C33.5982 37.5183 33.7215 37.6099 33.8249 37.7299C33.9282 37.8467 34.0082 37.9882 34.0649 38.1549C34.1215 38.3216 34.1499 38.5066 34.1499 38.7099C34.1499 38.9166 34.1215 39.1033 34.0649 39.27C34.0082 39.4333 33.9282 39.575 33.8249 39.695C33.7215 39.8117 33.5982 39.9017 33.4549 39.965C33.3149 40.0283 33.1582 40.06 32.9849 40.06ZM32.9849 39.705C33.2015 39.705 33.3782 39.6383 33.5149 39.505C33.6515 39.3717 33.7199 39.1683 33.7199 38.895V38.525C33.7199 38.2517 33.6515 38.0483 33.5149 37.915C33.3782 37.7817 33.2015 37.715 32.9849 37.715C32.7682 37.715 32.5915 37.7817 32.4549 37.915C32.3182 38.0483 32.2499 38.2517 32.2499 38.525V38.895C32.2499 39.1683 32.3182 39.3717 32.4549 39.505C32.5915 39.6383 32.7682 39.705 32.9849 39.705ZM34.8077 40V37.4199H35.2077V37.84H35.2277C35.291 37.6933 35.3794 37.5767 35.4927 37.49C35.6094 37.4033 35.7644 37.36 35.9577 37.36C36.2244 37.36 36.4344 37.4466 36.5877 37.6199C36.7444 37.7899 36.8227 38.0317 36.8227 38.345V40H36.4227V38.415C36.4227 37.9517 36.2277 37.72 35.8377 37.72C35.7577 37.72 35.6794 37.73 35.6027 37.75C35.5294 37.77 35.4627 37.8 35.4027 37.84C35.3427 37.88 35.2944 37.9316 35.2577 37.9949C35.2244 38.0549 35.2077 38.1266 35.2077 38.2099V40H34.8077ZM39.2004 37.4199H39.5954L38.4404 40.5999C38.4104 40.6766 38.3804 40.74 38.3504 40.79C38.3204 40.8433 38.2838 40.885 38.2404 40.915C38.1971 40.945 38.1421 40.9667 38.0754 40.9799C38.0121 40.9932 37.9338 41 37.8404 41H37.6354V40.65H38.0404L38.2354 40.0999L37.2704 37.4199H37.6704L38.2904 39.1749L38.4104 39.595H38.4354L38.5754 39.1749L39.2004 37.4199ZM42.3072 40.06C42.0239 40.06 41.7822 40.0067 41.5822 39.9C41.3822 39.79 41.2122 39.64 41.0722 39.45L41.3822 39.1899C41.5055 39.3532 41.6422 39.4782 41.7922 39.5649C41.9422 39.6482 42.1189 39.6899 42.3222 39.6899C42.5722 39.6899 42.7622 39.6299 42.8922 39.5099C43.0255 39.3899 43.0922 39.2299 43.0922 39.0299C43.0922 38.8632 43.0422 38.735 42.9422 38.645C42.8422 38.555 42.6772 38.4833 42.4472 38.43L42.1622 38.365C41.8422 38.2917 41.5972 38.1817 41.4272 38.035C41.2605 37.885 41.1772 37.6749 41.1772 37.4049C41.1772 37.2516 41.2055 37.1149 41.2622 36.9949C41.3189 36.8749 41.3972 36.775 41.4972 36.695C41.6005 36.615 41.7222 36.5549 41.8622 36.5149C42.0055 36.4716 42.1622 36.45 42.3322 36.45C42.5955 36.45 42.8205 36.4983 43.0072 36.595C43.1972 36.6917 43.3572 36.8333 43.4872 37.02L43.1722 37.25C43.0755 37.1167 42.9589 37.0117 42.8222 36.935C42.6855 36.8583 42.5155 36.82 42.3122 36.82C42.0889 36.82 41.9122 36.8683 41.7822 36.965C41.6555 37.0583 41.5922 37.1999 41.5922 37.3899C41.5922 37.5566 41.6455 37.6833 41.7522 37.77C41.8622 37.8533 42.0272 37.92 42.2472 37.97L42.5322 38.035C42.8755 38.1117 43.1239 38.2282 43.2772 38.3849C43.4305 38.5416 43.5072 38.7499 43.5072 39.0099C43.5072 39.1699 43.4789 39.3149 43.4222 39.445C43.3689 39.575 43.2905 39.685 43.1872 39.775C43.0839 39.865 42.9572 39.935 42.8072 39.985C42.6605 40.035 42.4939 40.06 42.3072 40.06ZM44.7625 40C44.6225 40 44.5158 39.9616 44.4425 39.8849C44.3725 39.8049 44.3375 39.7017 44.3375 39.575V37.77H43.9125V37.4199H44.1525C44.2391 37.4199 44.2975 37.4032 44.3275 37.3699C44.3608 37.3332 44.3775 37.2717 44.3775 37.185V36.705H44.7375V37.4199H45.3025V37.77H44.7375V39.65H45.2625V40H44.7625ZM46.2004 40.06C46.0937 40.06 46.0154 40.0332 45.9654 39.9799C45.9187 39.9267 45.8954 39.8567 45.8954 39.77V39.705C45.8954 39.6183 45.9187 39.5482 45.9654 39.4949C46.0154 39.4416 46.0937 39.415 46.2004 39.415C46.3071 39.415 46.3837 39.4416 46.4304 39.4949C46.4804 39.5482 46.5054 39.6183 46.5054 39.705V39.77C46.5054 39.8567 46.4804 39.9267 46.4304 39.9799C46.3837 40.0332 46.3071 40.06 46.2004 40.06Z" fill="#3F6FE5"/>
<path id="Vector_6" d="M13.695 48.0601C13.2517 48.0601 12.9067 47.9101 12.66 47.6101C12.4133 47.3068 12.29 46.8618 12.29 46.2751C12.29 45.6884 12.4133 45.2383 12.66 44.925C12.9067 44.6083 13.2517 44.4501 13.695 44.4501C13.9883 44.4501 14.2333 44.5168 14.43 44.6501C14.63 44.7834 14.785 44.9717 14.895 45.215L14.555 45.42C14.485 45.24 14.3783 45.0968 14.235 44.9901C14.0917 44.8801 13.9117 44.8251 13.695 44.8251C13.545 44.8251 13.41 44.8533 13.29 44.91C13.1733 44.9667 13.0733 45.0483 12.99 45.155C12.91 45.2583 12.8483 45.3833 12.805 45.53C12.7617 45.6733 12.74 45.835 12.74 46.015V46.535C12.74 46.895 12.8233 47.1768 12.99 47.3801C13.1567 47.5834 13.3917 47.6851 13.695 47.6851C13.9183 47.6851 14.105 47.6283 14.255 47.515C14.405 47.3983 14.515 47.245 14.585 47.055L14.92 47.265C14.81 47.5117 14.6517 47.7067 14.445 47.85C14.2383 47.99 13.9883 48.0601 13.695 48.0601ZM16.5055 48.0601C16.3321 48.0601 16.1738 48.0283 16.0305 47.965C15.8871 47.9017 15.7638 47.8117 15.6605 47.695C15.5605 47.575 15.4821 47.4334 15.4255 47.2701C15.3688 47.1034 15.3405 46.9167 15.3405 46.71C15.3405 46.5067 15.3688 46.3217 15.4255 46.155C15.4821 45.9883 15.5605 45.8467 15.6605 45.73C15.7638 45.61 15.8871 45.5184 16.0305 45.4551C16.1738 45.3918 16.3321 45.3601 16.5055 45.3601C16.6788 45.3601 16.8355 45.3918 16.9755 45.4551C17.1188 45.5184 17.2421 45.61 17.3455 45.73C17.4488 45.8467 17.5288 45.9883 17.5855 46.155C17.6421 46.3217 17.6705 46.5067 17.6705 46.71C17.6705 46.9167 17.6421 47.1034 17.5855 47.2701C17.5288 47.4334 17.4488 47.575 17.3455 47.695C17.2421 47.8117 17.1188 47.9017 16.9755 47.965C16.8355 48.0283 16.6788 48.0601 16.5055 48.0601ZM16.5055 47.7051C16.7221 47.7051 16.8988 47.6384 17.0355 47.5051C17.1721 47.3718 17.2405 47.1683 17.2405 46.8951V46.5251C17.2405 46.2518 17.1721 46.0484 17.0355 45.9151C16.8988 45.7818 16.7221 45.715 16.5055 45.715C16.2888 45.715 16.1121 45.7818 15.9755 45.9151C15.8388 46.0484 15.7705 46.2518 15.7705 46.5251V46.8951C15.7705 47.1683 15.8388 47.3718 15.9755 47.5051C16.1121 47.6384 16.2888 47.7051 16.5055 47.7051ZM19.1033 48.0601C18.8633 48.0601 18.6617 48.015 18.4983 47.925C18.3383 47.8317 18.2 47.7083 18.0833 47.555L18.3683 47.3251C18.4683 47.4518 18.58 47.55 18.7033 47.62C18.8267 47.6867 18.97 47.7201 19.1333 47.7201C19.3033 47.7201 19.435 47.6834 19.5283 47.6101C19.625 47.5368 19.6733 47.4333 19.6733 47.3C19.6733 47.2 19.64 47.115 19.5733 47.045C19.51 46.9717 19.3933 46.9218 19.2233 46.8951L19.0183 46.8651C18.8983 46.8484 18.7883 46.8234 18.6883 46.7901C18.5883 46.7534 18.5 46.7068 18.4233 46.6501C18.35 46.5901 18.2917 46.5167 18.2483 46.43C18.2083 46.3433 18.1883 46.24 18.1883 46.12C18.1883 45.9933 18.2117 45.8834 18.2583 45.7901C18.305 45.6934 18.3683 45.6133 18.4483 45.55C18.5317 45.4867 18.63 45.44 18.7433 45.41C18.8567 45.3767 18.9783 45.3601 19.1083 45.3601C19.3183 45.3601 19.4933 45.3968 19.6333 45.4701C19.7767 45.5434 19.9017 45.6451 20.0083 45.7751L19.7433 46.015C19.6867 45.935 19.6033 45.8633 19.4933 45.8C19.3833 45.7333 19.245 45.7001 19.0783 45.7001C18.9117 45.7001 18.785 45.7368 18.6983 45.8101C18.615 45.8801 18.5733 45.9767 18.5733 46.1C18.5733 46.2267 18.615 46.3183 18.6983 46.375C18.785 46.4317 18.9083 46.4733 19.0683 46.5L19.2683 46.53C19.555 46.5733 19.7583 46.6567 19.8783 46.78C19.9983 46.9 20.0583 47.0584 20.0583 47.2551C20.0583 47.5051 19.9733 47.7018 19.8033 47.8451C19.6333 47.9884 19.4 48.0601 19.1033 48.0601ZM20.7648 48V45.42H21.1648V45.84H21.1848C21.2148 45.7733 21.2482 45.7117 21.2848 45.655C21.3248 45.595 21.3715 45.5433 21.4248 45.5C21.4815 45.4567 21.5465 45.4234 21.6198 45.4001C21.6932 45.3734 21.7798 45.3601 21.8798 45.3601C22.0498 45.3601 22.2065 45.4018 22.3498 45.4851C22.4932 45.5651 22.5998 45.6983 22.6698 45.885H22.6798C22.7265 45.745 22.8132 45.6234 22.9398 45.5201C23.0698 45.4134 23.2448 45.3601 23.4648 45.3601C23.7282 45.3601 23.9332 45.4467 24.0798 45.62C24.2298 45.79 24.3048 46.0318 24.3048 46.3451V48H23.9048V46.4151C23.9048 46.1851 23.8598 46.0118 23.7698 45.8951C23.6798 45.7783 23.5365 45.7201 23.3398 45.7201C23.2598 45.7201 23.1832 45.73 23.1098 45.75C23.0398 45.77 22.9765 45.8 22.9198 45.84C22.8632 45.88 22.8182 45.9317 22.7848 45.995C22.7515 46.055 22.7348 46.1267 22.7348 46.21V48H22.3348V46.4151C22.3348 46.1851 22.2898 46.0118 22.1998 45.8951C22.1098 45.7783 21.9698 45.7201 21.7798 45.7201C21.6998 45.7201 21.6232 45.73 21.5498 45.75C21.4765 45.77 21.4115 45.8 21.3548 45.84C21.2982 45.88 21.2515 45.9317 21.2148 45.995C21.1815 46.055 21.1648 46.1267 21.1648 46.21V48H20.7648ZM26.1051 48.0601C25.9317 48.0601 25.7734 48.0283 25.6301 47.965C25.4867 47.9017 25.3634 47.8117 25.2601 47.695C25.1601 47.575 25.0817 47.4334 25.0251 47.2701C24.9684 47.1034 24.9401 46.9167 24.9401 46.71C24.9401 46.5067 24.9684 46.3217 25.0251 46.155C25.0817 45.9883 25.1601 45.8467 25.2601 45.73C25.3634 45.61 25.4867 45.5184 25.6301 45.4551C25.7734 45.3918 25.9317 45.3601 26.1051 45.3601C26.2784 45.3601 26.4351 45.3918 26.5751 45.4551C26.7184 45.5184 26.8417 45.61 26.9451 45.73C27.0484 45.8467 27.1284 45.9883 27.1851 46.155C27.2417 46.3217 27.2701 46.5067 27.2701 46.71C27.2701 46.9167 27.2417 47.1034 27.1851 47.2701C27.1284 47.4334 27.0484 47.575 26.9451 47.695C26.8417 47.8117 26.7184 47.9017 26.5751 47.965C26.4351 48.0283 26.2784 48.0601 26.1051 48.0601ZM26.1051 47.7051C26.3217 47.7051 26.4984 47.6384 26.6351 47.5051C26.7717 47.3718 26.8401 47.1683 26.8401 46.8951V46.5251C26.8401 46.2518 26.7717 46.0484 26.6351 45.9151C26.4984 45.7818 26.3217 45.715 26.1051 45.715C25.8884 45.715 25.7117 45.7818 25.5751 45.9151C25.4384 46.0484 25.3701 46.2518 25.3701 46.5251V46.8951C25.3701 47.1683 25.4384 47.3718 25.5751 47.5051C25.7117 47.6384 25.8884 47.7051 26.1051 47.7051ZM27.9279 45.42H28.3279V45.84H28.3479C28.4146 45.6767 28.5113 45.5567 28.6379 45.48C28.7679 45.4 28.9229 45.3601 29.1029 45.3601C29.2629 45.3601 29.4079 45.3918 29.5379 45.4551C29.6679 45.5184 29.7779 45.6083 29.8679 45.725C29.9613 45.8417 30.0313 45.9834 30.0779 46.1501C30.1279 46.3168 30.1529 46.5033 30.1529 46.71C30.1529 46.9167 30.1279 47.1034 30.0779 47.2701C30.0313 47.4367 29.9613 47.5783 29.8679 47.695C29.7779 47.8117 29.6679 47.9017 29.5379 47.965C29.4079 48.0283 29.2629 48.0601 29.1029 48.0601C28.7529 48.0601 28.5013 47.9001 28.3479 47.5801H28.3279V49H27.9279V45.42ZM28.9929 47.7001C29.2196 47.7001 29.3979 47.6301 29.5279 47.4901C29.6579 47.3468 29.7229 47.16 29.7229 46.93V46.4901C29.7229 46.2601 29.6579 46.0751 29.5279 45.9351C29.3979 45.7918 29.2196 45.7201 28.9929 45.7201C28.9029 45.7201 28.8163 45.7333 28.7329 45.76C28.6529 45.7833 28.5829 45.8168 28.5229 45.8601C28.4629 45.9034 28.4146 45.9568 28.3779 46.0201C28.3446 46.08 28.3279 46.145 28.3279 46.215V47.175C28.3279 47.2583 28.3446 47.3334 28.3779 47.4001C28.4146 47.4634 28.4629 47.5183 28.5229 47.565C28.5829 47.6083 28.6529 47.6418 28.7329 47.6651C28.8163 47.6884 28.9029 47.7001 28.9929 47.7001ZM31.8033 48.0601C31.63 48.0601 31.4717 48.0283 31.3283 47.965C31.185 47.9017 31.0617 47.8117 30.9583 47.695C30.8583 47.575 30.78 47.4334 30.7233 47.2701C30.6667 47.1034 30.6383 46.9167 30.6383 46.71C30.6383 46.5067 30.6667 46.3217 30.7233 46.155C30.78 45.9883 30.8583 45.8467 30.9583 45.73C31.0617 45.61 31.185 45.5184 31.3283 45.4551C31.4717 45.3918 31.63 45.3601 31.8033 45.3601C31.9767 45.3601 32.1333 45.3918 32.2733 45.4551C32.4167 45.5184 32.54 45.61 32.6433 45.73C32.7467 45.8467 32.8267 45.9883 32.8833 46.155C32.94 46.3217 32.9683 46.5067 32.9683 46.71C32.9683 46.9167 32.94 47.1034 32.8833 47.2701C32.8267 47.4334 32.7467 47.575 32.6433 47.695C32.54 47.8117 32.4167 47.9017 32.2733 47.965C32.1333 48.0283 31.9767 48.0601 31.8033 48.0601ZM31.8033 47.7051C32.02 47.7051 32.1967 47.6384 32.3333 47.5051C32.47 47.3718 32.5383 47.1683 32.5383 46.8951V46.5251C32.5383 46.2518 32.47 46.0484 32.3333 45.9151C32.1967 45.7818 32.02 45.715 31.8033 45.715C31.5867 45.715 31.41 45.7818 31.2733 45.9151C31.1367 46.0484 31.0683 46.2518 31.0683 46.5251V46.8951C31.0683 47.1683 31.1367 47.3718 31.2733 47.5051C31.41 47.6384 31.5867 47.7051 31.8033 47.7051ZM34.0512 48C33.9112 48 33.8045 47.9617 33.7312 47.885C33.6612 47.805 33.6262 47.705 33.6262 47.585V44.3H34.0262V47.6501H34.4062V48H34.0512ZM35.1885 44.815C35.1018 44.815 35.0385 44.7951 34.9985 44.7551C34.9618 44.7118 34.9435 44.6567 34.9435 44.59V44.5251C34.9435 44.4584 34.9618 44.4051 34.9985 44.3651C35.0385 44.3218 35.1018 44.3 35.1885 44.3C35.2751 44.3 35.3368 44.3218 35.3735 44.3651C35.4135 44.4051 35.4335 44.4584 35.4335 44.5251V44.59C35.4335 44.6567 35.4135 44.7118 35.3735 44.7551C35.3368 44.7951 35.2751 44.815 35.1885 44.815ZM34.9885 45.42H35.3885V48H34.9885V45.42ZM37.0135 48.0601C36.7735 48.0601 36.5718 48.015 36.4085 47.925C36.2485 47.8317 36.1101 47.7083 35.9935 47.555L36.2785 47.3251C36.3785 47.4518 36.4901 47.55 36.6135 47.62C36.7368 47.6867 36.8801 47.7201 37.0435 47.7201C37.2135 47.7201 37.3451 47.6834 37.4385 47.6101C37.5351 47.5368 37.5835 47.4333 37.5835 47.3C37.5835 47.2 37.5501 47.115 37.4835 47.045C37.4201 46.9717 37.3035 46.9218 37.1335 46.8951L36.9285 46.8651C36.8085 46.8484 36.6985 46.8234 36.5985 46.7901C36.4985 46.7534 36.4101 46.7068 36.3335 46.6501C36.2601 46.5901 36.2018 46.5167 36.1585 46.43C36.1185 46.3433 36.0985 46.24 36.0985 46.12C36.0985 45.9933 36.1218 45.8834 36.1685 45.7901C36.2151 45.6934 36.2785 45.6133 36.3585 45.55C36.4418 45.4867 36.5401 45.44 36.6535 45.41C36.7668 45.3767 36.8885 45.3601 37.0185 45.3601C37.2285 45.3601 37.4035 45.3968 37.5435 45.4701C37.6868 45.5434 37.8118 45.6451 37.9185 45.7751L37.6535 46.015C37.5968 45.935 37.5135 45.8633 37.4035 45.8C37.2935 45.7333 37.1551 45.7001 36.9885 45.7001C36.8218 45.7001 36.6951 45.7368 36.6085 45.8101C36.5251 45.8801 36.4835 45.9767 36.4835 46.1C36.4835 46.2267 36.5251 46.3183 36.6085 46.375C36.6951 46.4317 36.8185 46.4733 36.9785 46.5L37.1785 46.53C37.4651 46.5733 37.6685 46.6567 37.7885 46.78C37.9085 46.9 37.9685 47.0584 37.9685 47.2551C37.9685 47.5051 37.8835 47.7018 37.7135 47.8451C37.5435 47.9884 37.3101 48.0601 37.0135 48.0601ZM38.9056 47.4151C39.0123 47.4151 39.0889 47.4433 39.1356 47.5C39.1856 47.5533 39.2106 47.6233 39.2106 47.71V47.78C39.2106 47.9167 39.1706 48.0667 39.0906 48.23C39.0106 48.3967 38.8989 48.5418 38.7556 48.6651H38.4206C38.5206 48.5584 38.6006 48.4568 38.6606 48.3601C38.7239 48.2668 38.7689 48.1617 38.7956 48.045C38.7289 48.0283 38.6789 47.9968 38.6456 47.9501C38.6156 47.9034 38.6006 47.8467 38.6006 47.78V47.71C38.6006 47.6233 38.6239 47.5533 38.6706 47.5C38.7206 47.4433 38.7989 47.4151 38.9056 47.4151ZM43.4945 47.4901H43.4795C43.4362 47.6534 43.3295 47.7901 43.1595 47.9001C42.9929 48.0068 42.7762 48.0601 42.5095 48.0601C42.2962 48.0601 42.0995 48.0217 41.9195 47.945C41.7429 47.865 41.5912 47.75 41.4645 47.6C41.3379 47.4467 41.2379 47.2583 41.1645 47.035C41.0945 46.8083 41.0595 46.5484 41.0595 46.2551C41.0595 45.9651 41.0945 45.7084 41.1645 45.4851C41.2345 45.2584 41.3345 45.07 41.4645 44.92C41.5945 44.7667 41.7512 44.65 41.9345 44.57C42.1179 44.49 42.3212 44.4501 42.5445 44.4501C42.8579 44.4501 43.1195 44.52 43.3295 44.66C43.5395 44.8 43.7012 44.985 43.8145 45.215L43.4695 45.425C43.3895 45.2383 43.2695 45.0918 43.1095 44.9851C42.9529 44.8784 42.7645 44.8251 42.5445 44.8251C42.3912 44.8251 42.2512 44.8533 42.1245 44.91C41.9979 44.9633 41.8879 45.04 41.7945 45.14C41.7045 45.24 41.6345 45.36 41.5845 45.5C41.5345 45.64 41.5095 45.7968 41.5095 45.9701V46.535C41.5095 46.7083 41.5345 46.8667 41.5845 47.01C41.6345 47.15 41.7045 47.27 41.7945 47.37C41.8879 47.47 42.0012 47.5483 42.1345 47.605C42.2679 47.6583 42.4179 47.6851 42.5845 47.6851C42.7045 47.6851 42.8179 47.67 42.9245 47.64C43.0345 47.6067 43.1295 47.5583 43.2095 47.495C43.2929 47.4317 43.3579 47.3533 43.4045 47.26C43.4512 47.1633 43.4745 47.05 43.4745 46.92V46.5751H42.7045V46.2051H43.8845V48H43.4945V47.4901ZM45.0961 48C44.9561 48 44.8494 47.9617 44.7761 47.885C44.7061 47.805 44.6711 47.705 44.6711 47.585V44.3H45.0711V47.6501H45.4511V48H45.0961ZM47.0084 48.0601C46.8351 48.0601 46.6767 48.0283 46.5334 47.965C46.3901 47.9017 46.2667 47.8117 46.1634 47.695C46.0634 47.575 45.9851 47.4334 45.9284 47.2701C45.8717 47.1034 45.8434 46.9167 45.8434 46.71C45.8434 46.5067 45.8717 46.3217 45.9284 46.155C45.9851 45.9883 46.0634 45.8467 46.1634 45.73C46.2667 45.61 46.3901 45.5184 46.5334 45.4551C46.6767 45.3918 46.8351 45.3601 47.0084 45.3601C47.1817 45.3601 47.3384 45.3918 47.4784 45.4551C47.6217 45.5184 47.7451 45.61 47.8484 45.73C47.9517 45.8467 48.0317 45.9883 48.0884 46.155C48.1451 46.3217 48.1734 46.5067 48.1734 46.71C48.1734 46.9167 48.1451 47.1034 48.0884 47.2701C48.0317 47.4334 47.9517 47.575 47.8484 47.695C47.7451 47.8117 47.6217 47.9017 47.4784 47.965C47.3384 48.0283 47.1817 48.0601 47.0084 48.0601ZM47.0084 47.7051C47.2251 47.7051 47.4017 47.6384 47.5384 47.5051C47.6751 47.3718 47.7434 47.1683 47.7434 46.8951V46.5251C47.7434 46.2518 47.6751 46.0484 47.5384 45.9151C47.4017 45.7818 47.2251 45.715 47.0084 45.715C46.7917 45.715 46.6151 45.7818 46.4784 45.9151C46.3417 46.0484 46.2734 46.2518 46.2734 46.5251V46.8951C46.2734 47.1683 46.3417 47.3718 46.4784 47.5051C46.6151 47.6384 46.7917 47.7051 47.0084 47.7051ZM48.8313 44.3H49.2313V45.84H49.2513C49.3179 45.6767 49.4146 45.5567 49.5413 45.48C49.6713 45.4 49.8263 45.3601 50.0063 45.3601C50.1663 45.3601 50.3113 45.3918 50.4413 45.4551C50.5713 45.5184 50.6813 45.6083 50.7713 45.725C50.8646 45.8417 50.9346 45.9834 50.9813 46.1501C51.0313 46.3168 51.0563 46.5033 51.0563 46.71C51.0563 46.9167 51.0313 47.1034 50.9813 47.2701C50.9346 47.4367 50.8646 47.5783 50.7713 47.695C50.6813 47.8117 50.5713 47.9017 50.4413 47.965C50.3113 48.0283 50.1663 48.0601 50.0063 48.0601C49.6563 48.0601 49.4046 47.9001 49.2513 47.5801H49.2313V48H48.8313V44.3ZM49.8963 47.7001C50.1229 47.7001 50.3013 47.6301 50.4313 47.4901C50.5613 47.3468 50.6263 47.16 50.6263 46.93V46.4901C50.6263 46.2601 50.5613 46.0751 50.4313 45.9351C50.3013 45.7918 50.1229 45.7201 49.8963 45.7201C49.8063 45.7201 49.7196 45.7333 49.6363 45.76C49.5563 45.7833 49.4863 45.8168 49.4263 45.8601C49.3663 45.9034 49.3179 45.9568 49.2813 46.0201C49.2479 46.08 49.2313 46.145 49.2313 46.215V47.175C49.2313 47.2583 49.2479 47.3334 49.2813 47.4001C49.3179 47.4634 49.3663 47.5183 49.4263 47.565C49.4863 47.6083 49.5563 47.6418 49.6363 47.6651C49.7196 47.6884 49.8063 47.7001 49.8963 47.7001ZM53.6066 48C53.4566 48 53.3483 47.9601 53.2816 47.8801C53.2183 47.8001 53.1783 47.7001 53.1616 47.5801H53.1366C53.08 47.7401 52.9866 47.86 52.8566 47.94C52.7266 48.02 52.5716 48.0601 52.3916 48.0601C52.1183 48.0601 51.905 47.99 51.7516 47.85C51.6016 47.71 51.5266 47.52 51.5266 47.28C51.5266 47.0367 51.615 46.8501 51.7916 46.7201C51.9716 46.5901 52.25 46.5251 52.6266 46.5251H53.1366V46.2701C53.1366 46.0868 53.0866 45.9467 52.9866 45.85C52.8866 45.7533 52.7333 45.7051 52.5266 45.7051C52.37 45.7051 52.2383 45.7401 52.1316 45.8101C52.0283 45.8801 51.9416 45.9733 51.8716 46.09L51.6316 45.8651C51.7016 45.7251 51.8133 45.6067 51.9666 45.51C52.12 45.41 52.3133 45.3601 52.5466 45.3601C52.86 45.3601 53.1033 45.4367 53.2766 45.59C53.45 45.7433 53.5366 45.9567 53.5366 46.23V47.6501H53.8316V48H53.6066ZM52.4566 47.7201C52.5566 47.7201 52.6483 47.7084 52.7316 47.6851C52.815 47.6618 52.8866 47.6283 52.9466 47.585C53.0066 47.5417 53.0533 47.4918 53.0866 47.4351C53.12 47.3784 53.1366 47.3167 53.1366 47.25V46.8251H52.6066C52.3766 46.8251 52.2083 46.8583 52.1016 46.925C51.9983 46.9917 51.9466 47.0883 51.9466 47.215V47.32C51.9466 47.4467 51.9916 47.5451 52.0816 47.6151C52.175 47.6851 52.3 47.7201 52.4566 47.7201ZM54.8275 48C54.6875 48 54.5809 47.9617 54.5075 47.885C54.4375 47.805 54.4025 47.705 54.4025 47.585V44.3H54.8025V47.6501H55.1825V48H54.8275ZM57.9665 48.0601C57.6832 48.0601 57.4415 48.0068 57.2415 47.9001C57.0415 47.7901 56.8715 47.6401 56.7315 47.4501L57.0415 47.19C57.1648 47.3533 57.3015 47.4783 57.4515 47.565C57.6015 47.6483 57.7782 47.69 57.9815 47.69C58.2315 47.69 58.4215 47.63 58.5515 47.51C58.6848 47.39 58.7515 47.23 58.7515 47.03C58.7515 46.8633 58.7015 46.735 58.6015 46.6451C58.5015 46.5551 58.3365 46.4833 58.1065 46.43L57.8215 46.3651C57.5015 46.2918 57.2565 46.1817 57.0865 46.035C56.9198 45.885 56.8365 45.675 56.8365 45.405C56.8365 45.2517 56.8648 45.115 56.9215 44.995C56.9782 44.875 57.0565 44.775 57.1565 44.695C57.2598 44.615 57.3815 44.555 57.5215 44.515C57.6648 44.4717 57.8215 44.4501 57.9915 44.4501C58.2548 44.4501 58.4798 44.4984 58.6665 44.5951C58.8565 44.6918 59.0165 44.8334 59.1465 45.0201L58.8315 45.25C58.7348 45.1167 58.6182 45.0118 58.4815 44.9351C58.3448 44.8584 58.1748 44.82 57.9715 44.82C57.7482 44.82 57.5715 44.8683 57.4415 44.965C57.3148 45.0583 57.2515 45.2 57.2515 45.39C57.2515 45.5567 57.3048 45.6834 57.4115 45.7701C57.5215 45.8534 57.6865 45.9201 57.9065 45.9701L58.1915 46.035C58.5348 46.1117 58.7832 46.2283 58.9365 46.385C59.0898 46.5417 59.1665 46.75 59.1665 47.01C59.1665 47.17 59.1382 47.315 59.0815 47.445C59.0282 47.575 58.9498 47.6851 58.8465 47.7751C58.7432 47.8651 58.6165 47.9351 58.4665 47.9851C58.3198 48.0351 58.1532 48.0601 57.9665 48.0601ZM60.4218 48C60.2818 48 60.1751 47.9617 60.1018 47.885C60.0318 47.805 59.9968 47.7018 59.9968 47.5751V45.7701H59.5718V45.42H59.8118C59.8984 45.42 59.9568 45.4033 59.9868 45.37C60.0201 45.3333 60.0368 45.2718 60.0368 45.1851V44.7051H60.3968V45.42H60.9618V45.7701H60.3968V47.6501H60.9218V48H60.4218ZM63.4797 48C63.3297 48 63.2214 47.9601 63.1547 47.8801C63.0914 47.8001 63.0514 47.7001 63.0347 47.5801H63.0097C62.953 47.7401 62.8597 47.86 62.7297 47.94C62.5997 48.02 62.4447 48.0601 62.2647 48.0601C61.9914 48.0601 61.778 47.99 61.6247 47.85C61.4747 47.71 61.3997 47.52 61.3997 47.28C61.3997 47.0367 61.488 46.8501 61.6647 46.7201C61.8447 46.5901 62.123 46.5251 62.4997 46.5251H63.0097V46.2701C63.0097 46.0868 62.9597 45.9467 62.8597 45.85C62.7597 45.7533 62.6064 45.7051 62.3997 45.7051C62.243 45.7051 62.1114 45.7401 62.0047 45.8101C61.9014 45.8801 61.8147 45.9733 61.7447 46.09L61.5047 45.8651C61.5747 45.7251 61.6864 45.6067 61.8397 45.51C61.993 45.41 62.1864 45.3601 62.4197 45.3601C62.733 45.3601 62.9764 45.4367 63.1497 45.59C63.323 45.7433 63.4097 45.9567 63.4097 46.23V47.6501H63.7047V48H63.4797ZM62.3297 47.7201C62.4297 47.7201 62.5214 47.7084 62.6047 47.6851C62.688 47.6618 62.7597 47.6283 62.8197 47.585C62.8797 47.5417 62.9264 47.4918 62.9597 47.4351C62.993 47.3784 63.0097 47.3167 63.0097 47.25V46.8251H62.4797C62.2497 46.8251 62.0814 46.8583 61.9747 46.925C61.8714 46.9917 61.8197 47.0883 61.8197 47.215V47.32C61.8197 47.4467 61.8647 47.5451 61.9547 47.6151C62.048 47.6851 62.173 47.7201 62.3297 47.7201ZM64.8456 48C64.7056 48 64.5989 47.9617 64.5256 47.885C64.4556 47.805 64.4206 47.7018 64.4206 47.5751V45.7701H63.9956V45.42H64.2356C64.3223 45.42 64.3806 45.4033 64.4106 45.37C64.4439 45.3333 64.4606 45.2718 64.4606 45.1851V44.7051H64.8206V45.42H65.3856V45.7701H64.8206V47.6501H65.3456V48H64.8456ZM66.979 48.0601C66.8023 48.0601 66.6423 48.0283 66.499 47.965C66.359 47.9017 66.2373 47.8117 66.134 47.695C66.034 47.575 65.9557 47.4334 65.899 47.2701C65.8457 47.1034 65.819 46.9167 65.819 46.71C65.819 46.5067 65.8457 46.3217 65.899 46.155C65.9557 45.9883 66.034 45.8467 66.134 45.73C66.2373 45.61 66.359 45.5184 66.499 45.4551C66.6423 45.3918 66.8023 45.3601 66.979 45.3601C67.1523 45.3601 67.3073 45.3918 67.444 45.4551C67.5807 45.5184 67.6973 45.6068 67.794 45.7201C67.8907 45.8301 67.964 45.9618 68.014 46.1151C68.0673 46.2684 68.094 46.4367 68.094 46.62V46.8101H66.239V46.93C66.239 47.04 66.2557 47.1434 66.289 47.2401C66.3257 47.3334 66.3757 47.4151 66.439 47.4851C66.5057 47.5551 66.5857 47.6101 66.679 47.6501C66.7757 47.6901 66.884 47.71 67.004 47.71C67.1673 47.71 67.309 47.6718 67.429 47.5951C67.5523 47.5184 67.6473 47.4083 67.714 47.265L67.999 47.4701C67.9157 47.6468 67.7857 47.7901 67.609 47.9001C67.4323 48.0068 67.2223 48.0601 66.979 48.0601ZM66.979 45.695C66.869 45.695 66.769 45.7151 66.679 45.7551C66.589 45.7918 66.5107 45.8451 66.444 45.9151C66.3807 45.9851 66.3307 46.0684 66.294 46.1651C66.2573 46.2584 66.239 46.3617 66.239 46.475V46.51H67.664V46.4551C67.664 46.2251 67.6007 46.0417 67.474 45.905C67.3507 45.765 67.1857 45.695 66.979 45.695Z" fill="#3F6FE5"/>
<path id="Vector_7" d="M13.305 53.99C13.5417 53.99 13.7183 53.9367 13.835 53.83C13.955 53.72 14.015 53.58 14.015 53.41V53.375C14.015 53.1917 13.9567 53.055 13.84 52.965C13.7267 52.8717 13.5767 52.825 13.39 52.825C13.21 52.825 13.0633 52.865 12.95 52.945C12.8367 53.0217 12.7433 53.1266 12.67 53.2599L12.36 53.02C12.4033 52.95 12.455 52.8816 12.515 52.8149C12.5783 52.7449 12.6517 52.6833 12.735 52.63C12.8183 52.5767 12.915 52.5333 13.025 52.5C13.135 52.4667 13.26 52.45 13.4 52.45C13.5467 52.45 13.685 52.4699 13.815 52.5099C13.945 52.5466 14.0567 52.6033 14.15 52.68C14.2467 52.7533 14.3217 52.845 14.375 52.955C14.4317 53.065 14.46 53.19 14.46 53.33C14.46 53.4433 14.4417 53.5449 14.405 53.6349C14.3717 53.7249 14.325 53.8032 14.265 53.8699C14.205 53.9366 14.1333 53.9933 14.05 54.04C13.97 54.0867 13.8833 54.1217 13.79 54.145V54.165C13.8833 54.185 13.9733 54.2182 14.06 54.2649C14.15 54.3082 14.2283 54.3666 14.295 54.4399C14.365 54.5099 14.42 54.5967 14.46 54.7C14.5033 54.8 14.525 54.9149 14.525 55.0449C14.525 55.1949 14.4967 55.3332 14.44 55.4599C14.3833 55.5832 14.3033 55.6899 14.2 55.7799C14.0967 55.8666 13.9717 55.935 13.825 55.985C13.6783 56.035 13.5167 56.06 13.34 56.06C13.19 56.06 13.0567 56.0432 12.94 56.0099C12.8233 55.9766 12.72 55.9317 12.63 55.875C12.54 55.8183 12.46 55.755 12.39 55.685C12.3233 55.615 12.2633 55.5417 12.21 55.465L12.525 55.2249C12.5683 55.2949 12.615 55.3583 12.665 55.415C12.7183 55.4717 12.7767 55.52 12.84 55.56C12.9033 55.6 12.975 55.6316 13.055 55.6549C13.135 55.6749 13.2283 55.685 13.335 55.685C13.5817 55.685 13.7683 55.63 13.895 55.52C14.0217 55.4067 14.085 55.2467 14.085 55.04V55C14.085 54.7933 14.0217 54.635 13.895 54.525C13.7683 54.4117 13.5817 54.3549 13.335 54.3549H12.925V53.99H13.305ZM16.303 53.99C16.5397 53.99 16.7164 53.9367 16.833 53.83C16.953 53.72 17.013 53.58 17.013 53.41V53.375C17.013 53.1917 16.9547 53.055 16.838 52.965C16.7247 52.8717 16.5747 52.825 16.388 52.825C16.208 52.825 16.0614 52.865 15.948 52.945C15.8347 53.0217 15.7414 53.1266 15.668 53.2599L15.358 53.02C15.4014 52.95 15.453 52.8816 15.513 52.8149C15.5764 52.7449 15.6497 52.6833 15.733 52.63C15.8164 52.5767 15.913 52.5333 16.023 52.5C16.133 52.4667 16.258 52.45 16.398 52.45C16.5447 52.45 16.683 52.4699 16.813 52.5099C16.943 52.5466 17.0547 52.6033 17.148 52.68C17.2447 52.7533 17.3197 52.845 17.373 52.955C17.4297 53.065 17.458 53.19 17.458 53.33C17.458 53.4433 17.4397 53.5449 17.403 53.6349C17.3697 53.7249 17.323 53.8032 17.263 53.8699C17.203 53.9366 17.1314 53.9933 17.048 54.04C16.968 54.0867 16.8814 54.1217 16.788 54.145V54.165C16.8814 54.185 16.9714 54.2182 17.058 54.2649C17.148 54.3082 17.2264 54.3666 17.293 54.4399C17.363 54.5099 17.418 54.5967 17.458 54.7C17.5014 54.8 17.523 54.9149 17.523 55.0449C17.523 55.1949 17.4947 55.3332 17.438 55.4599C17.3814 55.5832 17.3014 55.6899 17.198 55.7799C17.0947 55.8666 16.9697 55.935 16.823 55.985C16.6764 56.035 16.5147 56.06 16.338 56.06C16.188 56.06 16.0547 56.0432 15.938 56.0099C15.8214 55.9766 15.718 55.9317 15.628 55.875C15.538 55.8183 15.458 55.755 15.388 55.685C15.3214 55.615 15.2614 55.5417 15.208 55.465L15.523 55.2249C15.5664 55.2949 15.613 55.3583 15.663 55.415C15.7164 55.4717 15.7747 55.52 15.838 55.56C15.9014 55.6 15.973 55.6316 16.053 55.6549C16.133 55.6749 16.2264 55.685 16.333 55.685C16.5797 55.685 16.7664 55.63 16.893 55.52C17.0197 55.4067 17.083 55.2467 17.083 55.04V55C17.083 54.7933 17.0197 54.635 16.893 54.525C16.7664 54.4117 16.5797 54.3549 16.333 54.3549H15.923V53.99H16.303ZM19.4961 56.06C19.0794 56.06 18.7744 55.9016 18.5811 55.5849C18.3911 55.2682 18.2961 54.825 18.2961 54.255C18.2961 53.685 18.3911 53.2416 18.5811 52.9249C18.7744 52.6082 19.0794 52.45 19.4961 52.45C19.9128 52.45 20.2161 52.6082 20.4061 52.9249C20.5994 53.2416 20.6961 53.685 20.6961 54.255C20.6961 54.825 20.5994 55.2682 20.4061 55.5849C20.2161 55.9016 19.9128 56.06 19.4961 56.06ZM19.4961 55.695C19.6328 55.695 19.7494 55.6667 19.8461 55.61C19.9428 55.5533 20.0211 55.4732 20.0811 55.3699C20.1411 55.2666 20.1844 55.145 20.2111 55.005C20.2411 54.865 20.2561 54.71 20.2561 54.54V53.97C20.2561 53.8 20.2411 53.645 20.2111 53.505C20.1844 53.365 20.1411 53.2432 20.0811 53.1399C20.0211 53.0366 19.9428 52.9567 19.8461 52.9C19.7494 52.8433 19.6328 52.8149 19.4961 52.8149C19.3594 52.8149 19.2428 52.8433 19.1461 52.9C19.0494 52.9567 18.9711 53.0366 18.9111 53.1399C18.8511 53.2432 18.8061 53.365 18.7761 53.505C18.7494 53.645 18.7361 53.8 18.7361 53.97V54.54C18.7361 54.71 18.7494 54.865 18.7761 55.005C18.8061 55.145 18.8511 55.2666 18.9111 55.3699C18.9711 55.4732 19.0494 55.5533 19.1461 55.61C19.2428 55.6667 19.3594 55.695 19.4961 55.695ZM21.4341 56V55.63H22.4091V52.82H22.3741L21.4941 53.6399L21.2491 53.375L22.1741 52.5099H22.8291V55.63H23.7291V56H21.4341ZM25.4922 56.06C25.0755 56.06 24.7705 55.9016 24.5772 55.5849C24.3872 55.2682 24.2922 54.825 24.2922 54.255C24.2922 53.685 24.3872 53.2416 24.5772 52.9249C24.7705 52.6082 25.0755 52.45 25.4922 52.45C25.9089 52.45 26.2122 52.6082 26.4022 52.9249C26.5955 53.2416 26.6922 53.685 26.6922 54.255C26.6922 54.825 26.5955 55.2682 26.4022 55.5849C26.2122 55.9016 25.9089 56.06 25.4922 56.06ZM25.4922 55.695C25.6289 55.695 25.7455 55.6667 25.8422 55.61C25.9389 55.5533 26.0172 55.4732 26.0772 55.3699C26.1372 55.2666 26.1805 55.145 26.2072 55.005C26.2372 54.865 26.2522 54.71 26.2522 54.54V53.97C26.2522 53.8 26.2372 53.645 26.2072 53.505C26.1805 53.365 26.1372 53.2432 26.0772 53.1399C26.0172 53.0366 25.9389 52.9567 25.8422 52.9C25.7455 52.8433 25.6289 52.8149 25.4922 52.8149C25.3555 52.8149 25.2389 52.8433 25.1422 52.9C25.0455 52.9567 24.9672 53.0366 24.9072 53.1399C24.8472 53.2432 24.8022 53.365 24.7722 53.505C24.7455 53.645 24.7322 53.8 24.7322 53.97V54.54C24.7322 54.71 24.7455 54.865 24.7722 55.005C24.8022 55.145 24.8472 55.2666 24.9072 55.3699C24.9672 55.4732 25.0455 55.5533 25.1422 55.61C25.2389 55.6667 25.3555 55.695 25.4922 55.695Z" fill="#3F6FE5"/>
<g id="Group_2" opacity="0.16">
<path id="Vector_8" d="M98.75 31.5939V30.9888H99.2V28.7088H98.75V28.1038H100.41V28.7088H99.96V30.9888H100.41V31.5939H98.75ZM101.869 31.6539C101.615 31.6539 101.402 31.6139 101.229 31.5338C101.055 31.4505 100.9 31.3338 100.764 31.1838L101.199 30.7438C101.292 30.8472 101.395 30.9288 101.509 30.9888C101.622 31.0488 101.75 31.0788 101.894 31.0788C102.04 31.0788 102.142 31.0572 102.199 31.0138C102.255 30.9672 102.284 30.9055 102.284 30.8288C102.284 30.7055 102.195 30.6322 102.019 30.6088L101.734 30.5738C101.144 30.5005 100.849 30.2305 100.849 29.7638C100.849 29.6372 100.872 29.5222 100.919 29.4188C100.969 29.3122 101.037 29.2222 101.124 29.1488C101.214 29.0722 101.32 29.0138 101.444 28.9738C101.57 28.9305 101.712 28.9088 101.869 28.9088C102.005 28.9088 102.125 28.9188 102.229 28.9388C102.335 28.9555 102.429 28.9822 102.509 29.0188C102.592 29.0522 102.667 29.0955 102.734 29.1488C102.804 29.1988 102.872 29.2555 102.939 29.3188L102.514 29.7538C102.43 29.6705 102.335 29.6055 102.229 29.5588C102.125 29.5088 102.019 29.4838 101.909 29.4838C101.782 29.4838 101.692 29.5038 101.639 29.5438C101.585 29.5838 101.559 29.6372 101.559 29.7038C101.559 29.7738 101.577 29.8288 101.614 29.8688C101.654 29.9055 101.727 29.9322 101.834 29.9488L102.129 29.9888C102.705 30.0655 102.994 30.3288 102.994 30.7788C102.994 30.9055 102.967 31.0222 102.914 31.1288C102.86 31.2355 102.784 31.3288 102.684 31.4088C102.587 31.4855 102.469 31.5455 102.329 31.5888C102.192 31.6322 102.039 31.6539 101.869 31.6539ZM104.354 31.6539C104.101 31.6539 103.887 31.6139 103.714 31.5338C103.541 31.4505 103.386 31.3338 103.249 31.1838L103.684 30.7438C103.777 30.8472 103.881 30.9288 103.994 30.9888C104.107 31.0488 104.236 31.0788 104.379 31.0788C104.526 31.0788 104.627 31.0572 104.684 31.0138C104.741 30.9672 104.769 30.9055 104.769 30.8288C104.769 30.7055 104.681 30.6322 104.504 30.6088L104.219 30.5738C103.629 30.5005 103.334 30.2305 103.334 29.7638C103.334 29.6372 103.357 29.5222 103.404 29.4188C103.454 29.3122 103.522 29.2222 103.609 29.1488C103.699 29.0722 103.806 29.0138 103.929 28.9738C104.056 28.9305 104.197 28.9088 104.354 28.9088C104.491 28.9088 104.611 28.9188 104.714 28.9388C104.821 28.9555 104.914 28.9822 104.994 29.0188C105.077 29.0522 105.152 29.0955 105.219 29.1488C105.289 29.1988 105.357 29.2555 105.424 29.3188L104.999 29.7538C104.916 29.6705 104.821 29.6055 104.714 29.5588C104.611 29.5088 104.504 29.4838 104.394 29.4838C104.267 29.4838 104.177 29.5038 104.124 29.5438C104.071 29.5838 104.044 29.6372 104.044 29.7038C104.044 29.7738 104.062 29.8288 104.099 29.8688C104.139 29.9055 104.212 29.9322 104.319 29.9488L104.614 29.9888C105.191 30.0655 105.479 30.3288 105.479 30.7788C105.479 30.9055 105.452 31.0222 105.399 31.1288C105.346 31.2355 105.269 31.3288 105.169 31.4088C105.072 31.4855 104.954 31.5455 104.814 31.5888C104.677 31.6322 104.524 31.6539 104.354 31.6539ZM107.534 31.1538H107.509C107.485 31.2205 107.454 31.2838 107.414 31.3438C107.377 31.4038 107.329 31.4572 107.269 31.5038C107.209 31.5505 107.137 31.5872 107.054 31.6139C106.974 31.6405 106.88 31.6539 106.774 31.6539C106.504 31.6539 106.299 31.5655 106.159 31.3888C106.022 31.2088 105.954 30.9522 105.954 30.6188V28.9688H106.694V30.5538C106.694 30.7138 106.722 30.8372 106.779 30.9238C106.835 31.0105 106.932 31.0538 107.069 31.0538C107.125 31.0538 107.182 31.0455 107.239 31.0288C107.295 31.0122 107.345 30.9888 107.389 30.9588C107.432 30.9255 107.467 30.8855 107.494 30.8388C107.52 30.7922 107.534 30.7372 107.534 30.6738V28.9688H108.274V31.5939H107.534V31.1538ZM110.057 31.6539C109.857 31.6539 109.679 31.6222 109.522 31.5588C109.366 31.4922 109.232 31.4005 109.122 31.2838C109.016 31.1638 108.934 31.0188 108.877 30.8488C108.824 30.6788 108.797 30.4888 108.797 30.2788C108.797 30.0722 108.824 29.8855 108.877 29.7188C108.931 29.5488 109.009 29.4038 109.112 29.2838C109.219 29.1638 109.349 29.0722 109.502 29.0088C109.656 28.9422 109.831 28.9088 110.027 28.9088C110.244 28.9088 110.429 28.9455 110.582 29.0188C110.739 29.0922 110.866 29.1905 110.962 29.3138C111.062 29.4372 111.134 29.5805 111.177 29.7438C111.224 29.9038 111.247 30.0722 111.247 30.2488V30.4688H109.562V30.5088C109.562 30.6822 109.609 30.8205 109.702 30.9238C109.796 31.0238 109.942 31.0738 110.142 31.0738C110.296 31.0738 110.421 31.0438 110.517 30.9838C110.614 30.9205 110.704 30.8455 110.787 30.7588L111.157 31.2188C111.041 31.3555 110.887 31.4622 110.697 31.5388C110.511 31.6155 110.297 31.6539 110.057 31.6539ZM110.042 29.4538C109.892 29.4538 109.774 29.5038 109.687 29.6038C109.604 29.7005 109.562 29.8305 109.562 29.9938V30.0338H110.482V29.9888C110.482 29.8288 110.446 29.7005 110.372 29.6038C110.302 29.5038 110.192 29.4538 110.042 29.4538ZM114.561 31.1538H114.536C114.516 31.2238 114.485 31.2905 114.441 31.3538C114.398 31.4138 114.345 31.4672 114.281 31.5138C114.221 31.5572 114.151 31.5905 114.071 31.6139C113.995 31.6405 113.915 31.6539 113.831 31.6539C113.498 31.6539 113.246 31.5372 113.076 31.3038C112.906 31.0672 112.821 30.7255 112.821 30.2788C112.821 29.8322 112.906 29.4922 113.076 29.2588C113.246 29.0255 113.498 28.9088 113.831 28.9088C114.001 28.9088 114.151 28.9555 114.281 29.0488C114.415 29.1422 114.5 29.2622 114.536 29.4088H114.561V27.8938H115.301V31.5939H114.561V31.1538ZM114.076 31.0538C114.216 31.0538 114.331 31.0205 114.421 30.9538C114.515 30.8838 114.561 30.7888 114.561 30.6688V29.8938C114.561 29.7738 114.515 29.6805 114.421 29.6138C114.331 29.5438 114.216 29.5088 114.076 29.5088C113.936 29.5088 113.82 29.5588 113.726 29.6588C113.636 29.7555 113.591 29.8872 113.591 30.0538V30.5088C113.591 30.6755 113.636 30.8088 113.726 30.9088C113.82 31.0055 113.936 31.0538 114.076 31.0538ZM117.933 31.5939C117.8 31.5939 117.688 31.5522 117.598 31.4688C117.512 31.3855 117.457 31.2738 117.433 31.1338H117.403C117.363 31.3038 117.275 31.4338 117.138 31.5238C117.002 31.6105 116.833 31.6539 116.633 31.6539C116.37 31.6539 116.168 31.5838 116.028 31.4438C115.888 31.3038 115.818 31.1188 115.818 30.8888C115.818 30.6122 115.918 30.4072 116.118 30.2739C116.322 30.1372 116.597 30.0688 116.943 30.0688H117.358V29.9038C117.358 29.7772 117.325 29.6772 117.258 29.6038C117.192 29.5272 117.08 29.4888 116.923 29.4888C116.777 29.4888 116.66 29.5205 116.573 29.5838C116.487 29.6472 116.415 29.7188 116.358 29.7988L115.918 29.4088C116.025 29.2522 116.158 29.1305 116.318 29.0438C116.482 28.9538 116.702 28.9088 116.978 28.9088C117.352 28.9088 117.632 28.9905 117.818 29.1538C118.005 29.3172 118.098 29.5555 118.098 29.8688V31.0188H118.343V31.5939H117.933ZM116.908 31.1388C117.032 31.1388 117.137 31.1122 117.223 31.0588C117.313 31.0055 117.358 30.9188 117.358 30.7988V30.4888H116.998C116.708 30.4888 116.563 30.5872 116.563 30.7838V30.8589C116.563 30.9555 116.593 31.0272 116.653 31.0738C116.713 31.1172 116.798 31.1388 116.908 31.1388ZM119.731 31.5939C119.474 31.5939 119.279 31.5288 119.146 31.3988C119.016 31.2688 118.951 31.0788 118.951 30.8288V29.5438H118.581V28.9688H118.766C118.866 28.9688 118.934 28.9455 118.971 28.8988C119.007 28.8488 119.026 28.7788 119.026 28.6888V28.2588H119.691V28.9688H120.211V29.5438H119.691V31.0188H120.171V31.5939H119.731ZM121.8 31.6539C121.6 31.6539 121.422 31.6222 121.265 31.5588C121.109 31.4922 120.975 31.4005 120.865 31.2838C120.759 31.1638 120.677 31.0188 120.62 30.8488C120.567 30.6788 120.54 30.4888 120.54 30.2788C120.54 30.0722 120.567 29.8855 120.62 29.7188C120.674 29.5488 120.752 29.4038 120.855 29.2838C120.962 29.1638 121.092 29.0722 121.245 29.0088C121.399 28.9422 121.574 28.9088 121.77 28.9088C121.987 28.9088 122.172 28.9455 122.325 29.0188C122.482 29.0922 122.609 29.1905 122.705 29.3138C122.805 29.4372 122.877 29.5805 122.92 29.7438C122.967 29.9038 122.99 30.0722 122.99 30.2488V30.4688H121.305V30.5088C121.305 30.6822 121.352 30.8205 121.445 30.9238C121.539 31.0238 121.685 31.0738 121.885 31.0738C122.039 31.0738 122.164 31.0438 122.26 30.9838C122.357 30.9205 122.447 30.8455 122.53 30.7588L122.9 31.2188C122.784 31.3555 122.63 31.4622 122.44 31.5388C122.254 31.6155 122.04 31.6539 121.8 31.6539ZM121.785 29.4538C121.635 29.4538 121.517 29.5038 121.43 29.6038C121.347 29.7005 121.305 29.8305 121.305 29.9938V30.0338H122.225V29.9888C122.225 29.8288 122.189 29.7005 122.115 29.6038C122.045 29.5038 121.935 29.4538 121.785 29.4538ZM125.175 31.6489C125.025 31.6489 124.913 31.6122 124.84 31.5388C124.77 31.4622 124.735 31.3655 124.735 31.2488V31.1488C124.735 31.0322 124.77 30.9372 124.84 30.8638C124.913 30.7872 125.025 30.7488 125.175 30.7488C125.325 30.7488 125.435 30.7872 125.505 30.8638C125.578 30.9372 125.615 31.0322 125.615 31.1488V31.2488C125.615 31.3655 125.578 31.4622 125.505 31.5388C125.435 31.6122 125.325 31.6489 125.175 31.6489ZM125.175 29.8138C125.025 29.8138 124.913 29.7772 124.84 29.7038C124.77 29.6272 124.735 29.5305 124.735 29.4138V29.3138C124.735 29.1972 124.77 29.1022 124.84 29.0288C124.913 28.9522 125.025 28.9138 125.175 28.9138C125.325 28.9138 125.435 28.9522 125.505 29.0288C125.578 29.1022 125.615 29.1972 125.615 29.3138V29.4138C125.615 29.5305 125.578 29.6272 125.505 29.7038C125.435 29.7772 125.325 29.8138 125.175 29.8138Z" fill="#2A3052"/>
<path id="Vector_9" d="M101.685 36.6538H101.66L101.365 37.2387L100.53 38.7587L99.6951 37.2387L99.4001 36.6538H99.3751V39.5938H98.9651V36.1037H99.5251L100.525 37.9837H100.55L101.555 36.1037H102.095V39.5938H101.685V36.6538ZM104.858 39.5938C104.708 39.5938 104.599 39.5537 104.533 39.4737C104.469 39.3937 104.429 39.2937 104.413 39.1737H104.388C104.331 39.3337 104.238 39.4537 104.108 39.5337C103.978 39.6138 103.823 39.6538 103.643 39.6538C103.369 39.6538 103.156 39.5837 103.003 39.4437C102.853 39.3037 102.778 39.1137 102.778 38.8737C102.778 38.6304 102.866 38.4437 103.043 38.3137C103.223 38.1837 103.501 38.1187 103.878 38.1187H104.388V37.8637C104.388 37.6804 104.338 37.5404 104.238 37.4437C104.138 37.3471 103.984 37.2987 103.778 37.2987C103.621 37.2987 103.489 37.3337 103.383 37.4037C103.279 37.4737 103.193 37.5671 103.123 37.6837L102.883 37.4587C102.953 37.3187 103.064 37.2004 103.218 37.1037C103.371 37.0037 103.564 36.9538 103.798 36.9538C104.111 36.9538 104.354 37.0304 104.528 37.1837C104.701 37.3371 104.788 37.5504 104.788 37.8237V39.2437H105.083V39.5938H104.858ZM103.708 39.3137C103.808 39.3137 103.899 39.3021 103.983 39.2787C104.066 39.2554 104.138 39.2221 104.198 39.1787C104.258 39.1354 104.304 39.0854 104.338 39.0287C104.371 38.9721 104.388 38.9104 104.388 38.8437V38.4187H103.858C103.628 38.4187 103.459 38.4521 103.353 38.5187C103.249 38.5854 103.198 38.6821 103.198 38.8087V38.9137C103.198 39.0404 103.243 39.1387 103.333 39.2087C103.426 39.2787 103.551 39.3137 103.708 39.3137ZM107.219 37.0137H107.614L106.459 40.1938C106.429 40.2704 106.399 40.3338 106.369 40.3838C106.339 40.4371 106.302 40.4788 106.259 40.5088C106.216 40.5388 106.161 40.5604 106.094 40.5738C106.031 40.5871 105.952 40.5938 105.859 40.5938H105.654V40.2438H106.059L106.254 39.6938L105.289 37.0137H105.689L106.309 38.7687L106.429 39.1887H106.454L106.594 38.7687L107.219 37.0137ZM110.186 37.5837C110.423 37.5837 110.599 37.5304 110.716 37.4237C110.836 37.3137 110.896 37.1737 110.896 37.0037V36.9687C110.896 36.7854 110.838 36.6487 110.721 36.5587C110.608 36.4654 110.458 36.4187 110.271 36.4187C110.091 36.4187 109.944 36.4587 109.831 36.5387C109.718 36.6154 109.624 36.7204 109.551 36.8537L109.241 36.6137C109.284 36.5437 109.336 36.4754 109.396 36.4087C109.459 36.3387 109.533 36.2771 109.616 36.2237C109.699 36.1704 109.796 36.1271 109.906 36.0937C110.016 36.0604 110.141 36.0437 110.281 36.0437C110.428 36.0437 110.566 36.0637 110.696 36.1037C110.826 36.1404 110.938 36.1971 111.031 36.2737C111.128 36.3471 111.203 36.4387 111.256 36.5487C111.313 36.6587 111.341 36.7837 111.341 36.9237C111.341 37.0371 111.323 37.1387 111.286 37.2287C111.253 37.3187 111.206 37.3971 111.146 37.4637C111.086 37.5304 111.014 37.5871 110.931 37.6337C110.851 37.6804 110.764 37.7154 110.671 37.7387V37.7587C110.764 37.7787 110.854 37.8121 110.941 37.8587C111.031 37.9021 111.109 37.9604 111.176 38.0337C111.246 38.1037 111.301 38.1904 111.341 38.2937C111.384 38.3937 111.406 38.5087 111.406 38.6387C111.406 38.7887 111.378 38.9271 111.321 39.0537C111.264 39.1771 111.184 39.2837 111.081 39.3737C110.978 39.4604 110.853 39.5287 110.706 39.5787C110.559 39.6288 110.398 39.6538 110.221 39.6538C110.071 39.6538 109.938 39.6371 109.821 39.6038C109.704 39.5704 109.601 39.5254 109.511 39.4687C109.421 39.4121 109.341 39.3487 109.271 39.2787C109.204 39.2087 109.144 39.1354 109.091 39.0587L109.406 38.8187C109.449 38.8887 109.496 38.9521 109.546 39.0087C109.599 39.0654 109.658 39.1137 109.721 39.1537C109.784 39.1937 109.856 39.2254 109.936 39.2487C110.016 39.2687 110.109 39.2787 110.216 39.2787C110.463 39.2787 110.649 39.2237 110.776 39.1137C110.903 39.0004 110.966 38.8404 110.966 38.6337V38.5937C110.966 38.3871 110.903 38.2287 110.776 38.1187C110.649 38.0054 110.463 37.9487 110.216 37.9487H109.806V37.5837H110.186ZM112.559 39.0087C112.666 39.0087 112.742 39.0371 112.789 39.0937C112.839 39.1471 112.864 39.2171 112.864 39.3037V39.3737C112.864 39.5104 112.824 39.6604 112.744 39.8238C112.664 39.9904 112.552 40.1354 112.409 40.2588H112.074C112.174 40.1521 112.254 40.0504 112.314 39.9538C112.377 39.8604 112.422 39.7554 112.449 39.6388C112.382 39.6221 112.332 39.5904 112.299 39.5437C112.269 39.4971 112.254 39.4404 112.254 39.3737V39.3037C112.254 39.2171 112.277 39.1471 112.324 39.0937C112.374 39.0371 112.452 39.0087 112.559 39.0087ZM117.088 39.5938H114.798V39.1637L115.938 38.1137C116.101 37.9637 116.238 37.8054 116.348 37.6387C116.458 37.4687 116.513 37.2987 116.513 37.1287V37.0688C116.513 36.8754 116.46 36.7187 116.353 36.5987C116.246 36.4787 116.085 36.4187 115.868 36.4187C115.761 36.4187 115.668 36.4337 115.588 36.4637C115.508 36.4937 115.438 36.5354 115.378 36.5887C115.321 36.6421 115.273 36.7054 115.233 36.7787C115.196 36.8487 115.166 36.9254 115.143 37.0087L114.768 36.8637C114.801 36.7604 114.846 36.6604 114.903 36.5637C114.963 36.4637 115.036 36.3754 115.123 36.2987C115.213 36.2221 115.32 36.1604 115.443 36.1137C115.57 36.0671 115.718 36.0437 115.888 36.0437C116.058 36.0437 116.21 36.0687 116.343 36.1187C116.476 36.1687 116.588 36.2387 116.678 36.3287C116.768 36.4187 116.836 36.5254 116.883 36.6487C116.933 36.7721 116.958 36.9087 116.958 37.0587C116.958 37.1954 116.938 37.3221 116.898 37.4387C116.861 37.5554 116.81 37.6671 116.743 37.7737C116.676 37.8771 116.595 37.9787 116.498 38.0787C116.405 38.1787 116.303 38.2787 116.193 38.3787L115.253 39.2237H117.088V39.5938ZM118.921 39.6538C118.504 39.6538 118.199 39.4954 118.006 39.1787C117.816 38.8621 117.721 38.4187 117.721 37.8487C117.721 37.2787 117.816 36.8354 118.006 36.5187C118.199 36.2021 118.504 36.0437 118.921 36.0437C119.338 36.0437 119.641 36.2021 119.831 36.5187C120.024 36.8354 120.121 37.2787 120.121 37.8487C120.121 38.4187 120.024 38.8621 119.831 39.1787C119.641 39.4954 119.338 39.6538 118.921 39.6538ZM118.921 39.2887C119.058 39.2887 119.174 39.2604 119.271 39.2037C119.368 39.1471 119.446 39.0671 119.506 38.9637C119.566 38.8604 119.609 38.7387 119.636 38.5987C119.666 38.4587 119.681 38.3037 119.681 38.1337V37.5637C119.681 37.3937 119.666 37.2387 119.636 37.0987C119.609 36.9587 119.566 36.8371 119.506 36.7337C119.446 36.6304 119.368 36.5504 119.271 36.4937C119.174 36.4371 119.058 36.4087 118.921 36.4087C118.784 36.4087 118.668 36.4371 118.571 36.4937C118.474 36.5504 118.396 36.6304 118.336 36.7337C118.276 36.8371 118.231 36.9587 118.201 37.0987C118.174 37.2387 118.161 37.3937 118.161 37.5637V38.1337C118.161 38.3037 118.174 38.4587 118.201 38.5987C118.231 38.7387 118.276 38.8604 118.336 38.9637C118.396 39.0671 118.474 39.1471 118.571 39.2037C118.668 39.2604 118.784 39.2887 118.921 39.2887ZM123.084 39.5938H120.794V39.1637L121.934 38.1137C122.097 37.9637 122.234 37.8054 122.344 37.6387C122.454 37.4687 122.509 37.2987 122.509 37.1287V37.0688C122.509 36.8754 122.456 36.7187 122.349 36.5987C122.242 36.4787 122.081 36.4187 121.864 36.4187C121.757 36.4187 121.664 36.4337 121.584 36.4637C121.504 36.4937 121.434 36.5354 121.374 36.5887C121.317 36.6421 121.269 36.7054 121.229 36.7787C121.192 36.8487 121.162 36.9254 121.139 37.0087L120.764 36.8637C120.797 36.7604 120.842 36.6604 120.899 36.5637C120.959 36.4637 121.032 36.3754 121.119 36.2987C121.209 36.2221 121.316 36.1604 121.439 36.1137C121.566 36.0671 121.714 36.0437 121.884 36.0437C122.054 36.0437 122.206 36.0687 122.339 36.1187C122.472 36.1687 122.584 36.2387 122.674 36.3287C122.764 36.4187 122.832 36.5254 122.879 36.6487C122.929 36.7721 122.954 36.9087 122.954 37.0587C122.954 37.1954 122.934 37.3221 122.894 37.4387C122.857 37.5554 122.806 37.6671 122.739 37.7737C122.672 37.8771 122.591 37.9787 122.494 38.0787C122.401 38.1787 122.299 38.2787 122.189 38.3787L121.249 39.2237H123.084V39.5938ZM124.722 37.5837C124.959 37.5837 125.135 37.5304 125.252 37.4237C125.372 37.3137 125.432 37.1737 125.432 37.0037V36.9687C125.432 36.7854 125.374 36.6487 125.257 36.5587C125.144 36.4654 124.994 36.4187 124.807 36.4187C124.627 36.4187 124.48 36.4587 124.367 36.5387C124.254 36.6154 124.16 36.7204 124.087 36.8537L123.777 36.6137C123.82 36.5437 123.872 36.4754 123.932 36.4087C123.995 36.3387 124.069 36.2771 124.152 36.2237C124.235 36.1704 124.332 36.1271 124.442 36.0937C124.552 36.0604 124.677 36.0437 124.817 36.0437C124.964 36.0437 125.102 36.0637 125.232 36.1037C125.362 36.1404 125.474 36.1971 125.567 36.2737C125.664 36.3471 125.739 36.4387 125.792 36.5487C125.849 36.6587 125.877 36.7837 125.877 36.9237C125.877 37.0371 125.859 37.1387 125.822 37.2287C125.789 37.3187 125.742 37.3971 125.682 37.4637C125.622 37.5304 125.55 37.5871 125.467 37.6337C125.387 37.6804 125.3 37.7154 125.207 37.7387V37.7587C125.3 37.7787 125.39 37.8121 125.477 37.8587C125.567 37.9021 125.645 37.9604 125.712 38.0337C125.782 38.1037 125.837 38.1904 125.877 38.2937C125.92 38.3937 125.942 38.5087 125.942 38.6387C125.942 38.7887 125.914 38.9271 125.857 39.0537C125.8 39.1771 125.72 39.2837 125.617 39.3737C125.514 39.4604 125.389 39.5287 125.242 39.5787C125.095 39.6288 124.934 39.6538 124.757 39.6538C124.607 39.6538 124.474 39.6371 124.357 39.6038C124.24 39.5704 124.137 39.5254 124.047 39.4687C123.957 39.4121 123.877 39.3487 123.807 39.2787C123.74 39.2087 123.68 39.1354 123.627 39.0587L123.942 38.8187C123.985 38.8887 124.032 38.9521 124.082 39.0087C124.135 39.0654 124.194 39.1137 124.257 39.1537C124.32 39.1937 124.392 39.2254 124.472 39.2487C124.552 39.2687 124.645 39.2787 124.752 39.2787C124.999 39.2787 125.185 39.2237 125.312 39.1137C125.439 39.0004 125.502 38.8404 125.502 38.6337V38.5937C125.502 38.3871 125.439 38.2287 125.312 38.1187C125.185 38.0054 124.999 37.9487 124.752 37.9487H124.342V37.5837H124.722Z" fill="#2A3052"/>
</g>
<g id="Group_3" opacity="0.08">
<path id="Vector_10" d="M94 61.5938H44V68.375H94V61.5938Z" fill="#377CFC"/>
<path id="Vector_11" d="M13.5 72.125H124.5" stroke="#377CFC" stroke-width="0.5"/>
<path id="Vector_12" d="M11.5 76.375H44.5V80.375H11.5V76.375Z" fill="#377CFC"/>
<path id="Vector_13" d="M52.5 76.375H85.5V80.375H52.5V76.375Z" fill="#377CFC"/>
<path id="Vector_14" d="M93.5 76.375H126.5V80.375H93.5V76.375Z" fill="#377CFC"/>
<path id="Vector_15" d="M13.5 84.125H124.5" stroke="#377CFC" stroke-width="0.5"/>
<path id="Vector_16" d="M11.5 88.375H44.5V92.375H11.5V88.375Z" fill="#377CFC"/>
<path id="Vector_17" d="M52.5 88.375H85.5V92.375H52.5V88.375Z" fill="#377CFC"/>
<path id="Vector_18" d="M93.5 88.375H126.5V92.375H93.5V88.375Z" fill="#377CFC"/>
<path id="Vector_19" d="M11.5 96.375H44.5V100.375H11.5V96.375Z" fill="#377CFC"/>
<path id="Vector_20" d="M52.5 96.375H85.5V100.375H52.5V96.375Z" fill="#377CFC"/>
<path id="Vector_21" d="M93.5 96.375H126.5V100.375H93.5V96.375Z" fill="#377CFC"/>
<path id="Vector_22" d="M11.5 104.375H44.5V108.375H11.5V104.375Z" fill="#377CFC"/>
<path id="Vector_23" d="M52.5 104.375H85.5V108.375H52.5V104.375Z" fill="#377CFC"/>
<path id="Vector_24" d="M93.5 104.375H126.5V108.375H93.5V104.375Z" fill="#377CFC"/>
<path id="Vector_25" d="M11.5 112.375H44.5V116.375H11.5V112.375Z" fill="#377CFC"/>
<path id="Vector_26" d="M52.5 112.375H85.5V116.375H52.5V112.375Z" fill="#377CFC"/>
<path id="Vector_27" d="M93.5 112.375H126.5V116.375H93.5V112.375Z" fill="#377CFC"/>
<path id="Vector_28" d="M11.5 120.375H44.5V124.375H11.5V120.375Z" fill="#377CFC"/>
<path id="Vector_29" d="M52.5 120.375H85.5V124.375H52.5V120.375Z" fill="#377CFC"/>
<path id="Vector_30" d="M93.5 120.375H126.5V124.375H93.5V120.375Z" fill="#377CFC"/>
<path id="Vector_31" d="M11.5 128.375H44.5V132.375H11.5V128.375Z" fill="#377CFC"/>
<path id="Vector_32" d="M52.5 128.375H85.5V132.375H52.5V128.375Z" fill="#377CFC"/>
<path id="Vector_33" d="M93.5 128.375H126.5V132.375H93.5V128.375Z" fill="#377CFC"/>
<path id="Vector_34" d="M11.5 136.375H44.5V140.375H11.5V136.375Z" fill="#377CFC"/>
<path id="Vector_35" d="M52.5 136.375H85.5V140.375H52.5V136.375Z" fill="#377CFC"/>
<path id="Vector_36" d="M93.5 136.375H126.5V140.375H93.5V136.375Z" fill="#377CFC"/>
<path id="Vector_37" d="M11.5 144.375H44.5V148.375H11.5V144.375Z" fill="#377CFC"/>
<path id="Vector_38" d="M52.5 144.375H85.5V148.375H52.5V144.375Z" fill="#377CFC"/>
<path id="Vector_39" d="M93.5 144.375H126.5V148.375H93.5V144.375Z" fill="#377CFC"/>
</g>
<path id="Vector_40" opacity="0.16" fill-rule="evenodd" clip-rule="evenodd" d="M3 154C3 156.209 4.79086 158 7 158H131C133.209 158 135 156.209 135 154V6C135 3.79086 133.209 2 131 2H68H66.5H8H7C4.79086 2 3 3.79086 3 6V58.8246V59V154ZM8 54.8246C8 57.0337 9.79086 58.8246 12 58.8246H34.75H62.5C64.7091 58.8246 66.5 57.0337 66.5 54.8246V9C66.5 6.79086 64.7091 5 62.5 5H12C9.79086 5 8 6.79086 8 9V54.8246Z" fill="#377CFC"/>
<path id="Vector_41" d="M66 6.375V56.375" stroke="black" stroke-dasharray="2 2"/>
<path id="Vector_42" d="M9.5 2.875H6.5C6.22386 2.875 6 3.09886 6 3.375V6.375C6 6.65114 6.22386 6.875 6.5 6.875H9.5C9.77614 6.875 10 6.65114 10 6.375V3.375C10 3.09886 9.77614 2.875 9.5 2.875Z" fill="white" stroke="black"/>
<path id="Vector_43" d="M67.5 2.875H64.5C64.2239 2.875 64 3.09886 64 3.375V6.375C64 6.65114 64.2239 6.875 64.5 6.875H67.5C67.7761 6.875 68 6.65114 68 6.375V3.375C68 3.09886 67.7761 2.875 67.5 2.875Z" fill="white" stroke="black"/>
<path id="Vector_44" d="M9.5 56.875H6.5C6.22386 56.875 6 57.0989 6 57.375V60.375C6 60.6511 6.22386 60.875 6.5 60.875H9.5C9.77614 60.875 10 60.6511 10 60.375V57.375C10 57.0989 9.77614 56.875 9.5 56.875Z" fill="white" stroke="black"/>
<path id="Vector_45" d="M10.5 58.875H63.5" stroke="black"/>
<path id="Vector_46" d="M8 7.375V56.375" stroke="black"/>
<path id="Vector_47" d="M10.5 4.875H63.5" stroke="black" stroke-dasharray="2 2"/>
<path id="Vector_48" d="M67.5 56.875H64.5C64.2239 56.875 64 57.0989 64 57.375V60.375C64 60.6511 64.2239 60.875 64.5 60.875H67.5C67.7761 60.875 68 60.6511 68 60.375V57.375C68 57.0989 67.7761 56.875 67.5 56.875Z" fill="white" stroke="black"/>
<g id="Clip path group">
<mask id="mask0_1184_369" style="mask-type:luminance" maskUnits="userSpaceOnUse" x="62" y="33" width="15" height="15">
<g id="clip0_4473_9278">
<path id="Vector_49" d="M76.5 47.375V33.375H62.5V47.375H76.5Z" fill="white"/>
</g>
</mask>
<g mask="url(#mask0_1184_369)">
<g id="Group_4">
<path id="Vector_50" d="M68.916 47.3691C69.1534 47.3458 69.3838 47.2547 69.5823 47.1057C69.6959 47.0204 69.7974 46.9176 69.8838 46.8005C70.1143 46.4883 70.2345 46.0858 70.2219 45.6676C70.2219 45.6666 70.2218 45.6654 70.2217 45.6645L70.2163 45.5713C70.1988 45.343 70.1389 45.1135 70.0429 44.9073C70.0425 44.9064 70.0421 44.9057 70.0416 44.9046C70.0059 44.8332 69.9936 44.8105 69.9886 44.8018C69.6397 44.1569 69.4978 43.6795 69.4445 43.3572C69.7391 43.4982 70.158 43.7676 70.6802 44.2823C70.6872 44.2896 70.7057 44.3076 70.7643 44.3618C70.765 44.3624 70.7657 44.3632 70.7665 44.3637C70.9377 44.5133 71.1416 44.6349 71.3579 44.716L71.4439 44.7464C71.4449 44.7469 71.4459 44.7471 71.4468 44.7474C71.9983 44.9256 72.598 44.8431 73.012 44.5321C73.1507 44.4278 73.2659 44.3 73.3539 44.1522C73.5054 43.897 73.5658 43.5914 73.5237 43.2913C73.485 43.0147 73.3642 42.7444 73.1745 42.5101C73.0653 42.3753 72.935 42.255 72.7887 42.1535C72.5776 42.0165 72.4277 41.9513 72.3242 41.9155C71.7609 41.7172 71.1378 41.7897 70.713 42.109C70.6408 42.1632 70.5737 42.2247 70.5137 42.2919C70.4801 42.3293 70.4488 42.3686 70.4202 42.4092L69.3477 41.9468L68.728 38.4328C68.7261 38.4202 68.7243 38.4074 68.7225 38.3946C68.711 38.3153 68.6992 38.233 68.6675 38.15C68.5506 37.8427 68.2728 37.6664 68.0604 37.5727C67.9572 37.5272 67.8704 37.4976 67.7876 37.48L67.5751 37.4334C67.5406 37.4259 67.5052 37.4356 67.4791 37.4591C67.4532 37.4828 67.4405 37.5175 67.4448 37.5522L67.9252 41.3798L66.5718 40.8179V42.1773L68.1221 42.9116L68.2622 44.03C68.1315 44.0747 68.0091 44.1397 67.8971 44.2238C67.4916 44.5284 67.2454 45.0698 67.2543 45.637C67.2647 46.2885 67.5896 46.8809 68.1021 47.1827C68.352 47.3299 68.6409 47.396 68.916 47.3691ZM71.1251 42.9208C71.155 42.8767 71.1924 42.8375 71.2363 42.8046C71.4221 42.6649 71.6901 42.6555 71.8789 42.6931C72.1421 42.7458 72.3787 42.8913 72.5274 43.092C72.665 43.2775 72.704 43.4883 72.6315 43.6557C72.6315 43.6559 72.6316 43.6555 72.6315 43.6557C72.6005 43.7274 72.5516 43.7893 72.4867 43.8383C72.3458 43.944 72.1219 43.9912 71.9024 43.9614C71.612 43.9219 71.343 43.7647 71.183 43.541C71.0699 43.3827 70.987 43.1255 71.1251 42.9208ZM68.7418 46.5022C68.6435 46.4919 68.5446 46.4478 68.456 46.375C68.2622 46.2158 68.1387 45.9455 68.1258 45.6517C68.1153 45.4133 68.1861 45.0971 68.4157 44.9246C68.424 44.9184 68.4324 44.9125 68.4409 44.9068C68.6098 44.7935 68.8331 44.8108 69.0103 44.9506C69.1844 45.088 69.305 45.3159 69.3412 45.5761L69.3451 45.6062C69.372 45.8501 69.3202 46.1821 69.0938 46.3836C69.0834 46.3929 69.0724 46.4017 69.0613 46.4102C68.9665 46.4813 68.8531 46.514 68.7418 46.5022Z" fill="black"/>
</g>
</g>
</g>
</g>
</g>
<defs>
<filter id="filter0_dd_1184_369" x="0" y="0" width="138" height="162" filterUnits="userSpaceOnUse" color-interpolation-filters="sRGB">
<feFlood flood-opacity="0" result="BackgroundImageFix"/>
<feColorMatrix in="SourceAlpha" type="matrix" values="0 0 0 0 0 0 0 0 0 0 0 0 0 0 0 0 0 0 127 0" result="hardAlpha"/>
<feOffset dy="1"/>
<feGaussianBlur stdDeviation="1"/>
<feColorMatrix type="matrix" values="0 0 0 0 0.054902 0 0 0 0 0.054902 0 0 0 0 0.054902 0 0 0 0.06 0"/>
<feBlend mode="normal" in2="BackgroundImageFix" result="effect1_dropShadow_1184_369"/>
<feColorMatrix in="SourceAlpha" type="matrix" values="0 0 0 0 0 0 0 0 0 0 0 0 0 0 0 0 0 0 127 0" result="hardAlpha"/>
<feOffset dy="1"/>
<feGaussianBlur stdDeviation="1.5"/>
<feColorMatrix type="matrix" values="0 0 0 0 0.054902 0 0 0 0 0.054902 0 0 0 0 0.054902 0 0 0 0.1 0"/>
<feBlend mode="normal" in2="effect1_dropShadow_1184_369" result="effect2_dropShadow_1184_369"/>
<feBlend mode="normal" in="SourceGraphic" in2="effect2_dropShadow_1184_369" result="shape"/>
</filter>
<clipPath id="clip0_1184_369">
<rect width="138" height="162" fill="white"/>
</clipPath>
</defs>
</svg>
