<svg width="96" height="96" viewBox="0 0 96 96" fill="none" xmlns="http://www.w3.org/2000/svg">
<g id="illustration / deriv / dark / positions-history">
<path id="Vector" d="M72 16H24C19.5817 16 16 19.5817 16 24V72C16 76.4183 19.5817 80 24 80H72C76.4183 80 80 76.4183 80 72V24C80 19.5817 76.4183 16 72 16Z" fill="#242828"/>
<path id="Vector_2" d="M72 20H24C21.7909 20 20 21.7909 20 24C20 26.2091 21.7909 28 24 28H72C74.2091 28 76 26.2091 76 24C76 21.7909 74.2091 20 72 20Z" fill="#323738"/>
<path id="Vector_3" d="M39.1372 40.3544L39.4142 40.5858L47.4142 48.5858C48.1953 49.3668 48.1953 50.6332 47.4142 51.4142C46.7199 52.1085 45.6423 52.1856 44.8628 51.6456L44.5858 51.4142L40 46.828V66C40 67.1046 39.1046 68 38 68C36.8954 68 36 67.1046 36 66V46.828L31.4142 51.4142C30.7199 52.1085 29.6423 52.1856 28.8628 51.6456L28.5858 51.4142C27.8915 50.7199 27.8144 49.6423 28.3544 48.8628L28.5858 48.5858L36.5858 40.5858C37.2801 39.8915 38.3577 39.8144 39.1372 40.3544Z" fill="#6E6E6E"/>
<path id="Vector_4" d="M58 40C59.1046 40 60 40.8954 60 42L59.996 61.168L64.5858 56.5858C65.3668 55.8047 66.6332 55.8047 67.4142 56.5858C68.1953 57.3668 68.1953 58.6332 67.4142 59.4142L59.4142 67.4142C58.6332 68.1953 57.3668 68.1953 56.5858 67.4142L48.5858 59.4142C47.8047 58.6332 47.8047 57.3668 48.5858 56.5858C49.3668 55.8047 50.6332 55.8047 51.4142 56.5858L55.996 61.168L56 42C56 40.8954 56.8954 40 58 40Z" fill="#6E6E6E"/>
</g>
</svg>
