<svg width="64" height="64" viewBox="0 0 64 64" fill="none" xmlns="http://www.w3.org/2000/svg">
<g id="illustration / deriv / light / nimc-slip-kyc">
<g id="Vector">
<path d="M52.5 4.75H11.5C8.73858 4.75 6.5 6.98858 6.5 9.75V50.75C6.5 53.5114 8.73858 55.75 11.5 55.75H52.5C55.2614 55.75 57.5 53.5114 57.5 50.75V9.75C57.5 6.98858 55.2614 4.75 52.5 4.75Z" fill="#84ABAE"/>
<path fill-rule="evenodd" clip-rule="evenodd" d="M50.36 15.25H33.64C33.0103 15.25 32.5 14.5785 32.5 13.75C32.5 12.9215 33.0103 12.25 33.64 12.25H50.36C50.9897 12.25 51.5 12.9215 51.5 13.75C51.5 14.5785 50.9897 15.25 50.36 15.25Z" fill="#E0F0F0"/>
<path fill-rule="evenodd" clip-rule="evenodd" d="M50.2045 20.25H33.7955C33.0799 20.25 32.5 19.5785 32.5 18.75C32.5 17.9215 33.0799 17.25 33.7955 17.25H50.2045C50.9201 17.25 51.5 17.9215 51.5 18.75C51.5 19.5785 50.9201 20.25 50.2045 20.25Z" fill="#E0F0F0"/>
<path fill-rule="evenodd" clip-rule="evenodd" d="M50.2045 25.25H33.7955C33.0799 25.25 32.5 24.5785 32.5 23.75C32.5 22.9215 33.0799 22.25 33.7955 22.25H50.2045C50.9201 22.25 51.5 22.9215 51.5 23.75C51.5 24.5785 50.9201 25.25 50.2045 25.25Z" fill="#E0F0F0"/>
<path fill-rule="evenodd" clip-rule="evenodd" d="M28.5 10.6622V26.8378C28.5 27.8939 27.6439 28.75 26.5878 28.75H14.4122C13.3561 28.75 12.5 27.8939 12.5 26.8378V10.6622C12.5 9.6061 13.3561 8.75 14.4122 8.75H26.5878C27.6439 8.75 28.5 9.6061 28.5 10.6622Z" fill="white"/>
<path fill-rule="evenodd" clip-rule="evenodd" d="M17.481 22.4258H23.4238C24.5179 22.4258 25.4048 23.2786 25.4048 24.3305V26.1083H15.5V24.3305C15.5 23.2786 16.3869 22.4258 17.481 22.4258Z" fill="#84ABAE"/>
<path fill-rule="evenodd" clip-rule="evenodd" d="M18.293 22.4258L18.8009 24.4575L20.0707 23.4417L19.8168 22.4258H18.293Z" fill="white"/>
<path fill-rule="evenodd" clip-rule="evenodd" d="M22.8657 22.4258L22.3577 24.4575L21.0879 23.4417L21.3419 22.4258H22.8657Z" fill="white"/>
<path d="M23.8808 18.107C23.8808 19.4246 23.1089 20.562 21.9927 21.0916L22.103 22.4245L20.7588 23.7687C20.6596 23.8679 20.4988 23.8679 20.3996 23.7687L19.0554 22.4245L19.1657 21.0916C18.0494 20.562 17.2776 19.4246 17.2776 18.107V17.5991H16.7697C16.4891 17.5991 16.2617 17.3717 16.2617 17.0911V16.3292C16.2617 16.0487 16.4891 15.8213 16.7697 15.8213H17.2776V15.0594C17.2776 13.236 18.7558 11.7578 20.5792 11.7578C22.4026 11.7578 23.8808 13.236 23.8808 15.0594V15.8213H24.3887C24.6692 15.8213 24.8966 16.0487 24.8966 16.3292V17.0911C24.8966 17.3717 24.6692 17.5991 24.3887 17.5991H23.8808V18.107Z" fill="#C7E5E5"/>
<path fill-rule="evenodd" clip-rule="evenodd" d="M23.2465 12.5199C24.1777 13.5358 24.3894 14.8056 23.8814 16.3294V16.9643C23.8814 17.0345 23.8246 17.0913 23.7545 17.0913C23.6843 17.0913 23.6275 17.0345 23.6275 16.9643L23.6268 16.0547C23.2548 15.6622 23.087 15.5024 22.6116 14.5516C21.7299 15.0596 20.7564 15.3135 19.691 15.3135C19.3523 15.3135 18.8021 15.2289 18.0402 15.0596C17.8491 15.5182 17.6796 15.8129 17.5316 15.9437L17.5322 16.9643C17.5322 17.0345 17.4754 17.0913 17.4052 17.0913C17.3351 17.0913 17.2783 17.0345 17.2783 16.9643L17.2778 15.9959C17.2071 15.9516 17.1437 15.8512 17.0878 15.6945C16.7703 14.8056 16.8973 12.9008 18.0402 12.012C19.183 11.1231 21.8497 10.9961 23.2465 12.5199Z" fill="#84ABAE"/>
<path d="M49.5 32.75H15C12.7909 32.75 11 34.5409 11 36.75V55.25C11 57.4591 12.7909 59.25 15 59.25H49.5C51.7091 59.25 53.5 57.4591 53.5 55.25V36.75C53.5 34.5409 51.7091 32.75 49.5 32.75Z" fill="white"/>
<path d="M48.5 36.75H42.5C41.9477 36.75 41.5 37.1977 41.5 37.75V45.75C41.5 46.3023 41.9477 46.75 42.5 46.75H48.5C49.0523 46.75 49.5 46.3023 49.5 45.75V37.75C49.5 37.1977 49.0523 36.75 48.5 36.75Z" fill="#F2F2F2"/>
<path fill-rule="evenodd" clip-rule="evenodd" d="M44.3 43.2617H46.7C47.1418 43.2617 47.5 43.6061 47.5 44.0309V44.7489H43.5V44.0309C43.5 43.6061 43.8582 43.2617 44.3 43.2617Z" fill="#84ABAE"/>
<path fill-rule="evenodd" clip-rule="evenodd" d="M44.6289 43.2617L44.834 44.0822L45.3469 43.672L45.2443 43.2617H44.6289Z" fill="white"/>
<path fill-rule="evenodd" clip-rule="evenodd" d="M46.4738 43.2617L46.2687 44.0822L45.7559 43.672L45.8584 43.2617H46.4738Z" fill="white"/>
<path d="M46.8855 41.5211C46.8855 42.0534 46.5736 42.5129 46.1226 42.7266L46.1676 43.2647L45.6247 43.8076C45.5847 43.8476 45.5197 43.8476 45.4797 43.8076L44.9368 43.2647L44.9818 42.7266C44.5308 42.5129 44.2189 42.0534 44.2189 41.5211V41.316H44.0137C43.9004 41.316 43.8086 41.2242 43.8086 41.1109V40.8032C43.8086 40.6899 43.9004 40.5981 44.0137 40.5981H44.2189V40.2904C44.2189 39.554 44.8158 38.957 45.5522 38.957C46.2886 38.957 46.8855 39.554 46.8855 40.2904V40.5981H47.0906C47.2039 40.5981 47.2958 40.6899 47.2958 40.8032V41.1109C47.2958 41.2242 47.2039 41.316 47.0906 41.316H46.8855V41.5211Z" fill="#C7E5E5"/>
<path fill-rule="evenodd" clip-rule="evenodd" d="M46.6279 39.2632C47.004 39.6735 47.0895 40.1863 46.8844 40.8017V41.0581C46.8844 41.0864 46.8614 41.1094 46.8331 41.1094C46.8048 41.1094 46.7818 41.0864 46.7818 41.0581L46.7804 40.6895C46.6309 40.5319 46.563 40.4667 46.3715 40.0837C46.0155 40.2889 45.6223 40.3914 45.1921 40.3914C45.0553 40.3914 44.8331 40.3572 44.5254 40.2889C44.4485 40.4733 44.3803 40.5921 44.3208 40.6452L44.3203 41.0581C44.3203 41.0864 44.2973 41.1094 44.269 41.1094C44.2407 41.1094 44.2177 41.0864 44.2177 41.0581V40.6671C44.189 40.6493 44.1634 40.6087 44.1408 40.5453C44.0126 40.1863 44.0638 39.4171 44.5254 39.0581C44.9869 38.6991 46.0638 38.6478 46.6279 39.2632Z" fill="#84ABAE"/>
<path d="M39 36.75H17C16.4477 36.75 16 37.1977 16 37.75V39.75C16 40.3023 16.4477 40.75 17 40.75H39C39.5523 40.75 40 40.3023 40 39.75V37.75C40 37.1977 39.5523 36.75 39 36.75Z" fill="#F2F2F2"/>
<path d="M39 42.75H17C16.4477 42.75 16 43.1977 16 43.75V45.75C16 46.3023 16.4477 46.75 17 46.75H39C39.5523 46.75 40 46.3023 40 45.75V43.75C40 43.1977 39.5523 42.75 39 42.75Z" fill="#F2F2F2"/>
<path d="M21.5 49.75H17C16.4477 49.75 16 50.1977 16 50.75V54.25C16 54.8023 16.4477 55.25 17 55.25H21.5C22.0523 55.25 22.5 54.8023 22.5 54.25V50.75C22.5 50.1977 22.0523 49.75 21.5 49.75Z" fill="#F2F2F2"/>
<path d="M30 49.75H25.5C24.9477 49.75 24.5 50.1977 24.5 50.75V54.25C24.5 54.8023 24.9477 55.25 25.5 55.25H30C30.5523 55.25 31 54.8023 31 54.25V50.75C31 50.1977 30.5523 49.75 30 49.75Z" fill="#F2F2F2"/>
<path d="M38.5 49.75H34C33.4477 49.75 33 50.1977 33 50.75V54.25C33 54.8023 33.4477 55.25 34 55.25H38.5C39.0523 55.25 39.5 54.8023 39.5 54.25V50.75C39.5 50.1977 39.0523 49.75 38.5 49.75Z" fill="#F2F2F2"/>
<path d="M48.5 49.75H42.5C41.9477 49.75 41.5 50.1977 41.5 50.75V54.25C41.5 54.8023 41.9477 55.25 42.5 55.25H48.5C49.0523 55.25 49.5 54.8023 49.5 54.25V50.75C49.5 50.1977 49.0523 49.75 48.5 49.75Z" fill="#F2F2F2"/>
</g>
</g>
</svg>
