<svg width="120" height="152" viewBox="0 0 120 152" fill="none" xmlns="http://www.w3.org/2000/svg">
<g id="illustration / deriv / light / ic-verify-passkey">
<path id="Vector" d="M114.62 85.7312C114.609 87.4459 114.546 90.9261 112.473 94.2875C112.077 94.9285 111.63 95.5319 111.135 96.0909L100.356 106.512C101.434 105.454 102.325 104.202 102.989 102.815C104.664 99.2924 104.309 95.9975 104.063 93.727C103.373 87.3367 100.1 83.0427 98.6445 81.187C97.1955 79.3345 93.345 74.5513 86.7105 72.6719C84.393 72.0148 80.541 70.9254 76.341 72.77C74.9423 73.3901 73.6507 74.251 72.519 75.3176L83.838 64.0601C85.263 63.1624 88.128 61.6439 91.944 61.5426C95.124 61.4587 97.4655 62.3992 99.0435 63.0531C100.142 63.5075 105.564 65.8588 109.85 72.0575C111.104 73.8704 114.659 79.0099 114.62 85.7312Z" fill="#FF444F"/>
<path id="Vector_2" d="M100.356 106.81C100.299 106.81 100.244 106.792 100.197 106.759C100.151 106.725 100.114 106.678 100.093 106.622C100.073 106.567 100.068 106.506 100.08 106.448C100.093 106.389 100.121 106.336 100.162 106.295C101.217 105.261 102.089 104.038 102.738 102.682C104.373 99.2401 104.032 96.0734 103.783 93.7633C103.086 87.3223 99.7019 83.0014 98.4269 81.3753C97.1624 79.7619 93.3164 74.8488 86.6369 72.9583C84.3629 72.3155 80.5589 71.2373 76.4474 73.0438C75.0771 73.6494 73.8122 74.4922 72.7049 75.5376C72.6494 75.5881 72.5775 75.6139 72.5043 75.6093C72.4311 75.6048 72.3625 75.5704 72.3129 75.5134C72.2634 75.4563 72.2368 75.3812 72.2389 75.3038C72.2409 75.2265 72.2714 75.153 72.3239 75.099L83.6429 63.8415C83.6579 63.8273 83.6729 63.8146 83.6924 63.8035C86.2304 62.2043 89.0819 61.3193 91.9349 61.2448C95.2394 61.1593 97.6844 62.1695 99.1439 62.7759C101.098 63.5834 106.071 66.0898 110.074 71.8801C111.279 73.6218 114.939 78.9148 114.898 85.7311C114.889 87.2907 114.868 90.9434 112.707 94.4473C112.305 95.0981 111.844 95.7188 111.339 96.2903L111.324 96.3062L101.445 105.857L100.545 106.729C100.493 106.78 100.425 106.808 100.354 106.808L100.356 106.81ZM81.2654 71.451C83.4854 71.451 85.4054 71.9941 86.7824 72.3852C93.6374 74.3263 97.5674 79.3471 98.8604 80.9985C100.164 82.661 103.626 87.0785 104.341 93.6937C104.584 95.9483 104.95 99.3493 103.239 102.948C103.119 103.2 102.993 103.447 102.858 103.689L110.935 95.8803C111.415 95.334 111.853 94.745 112.236 94.1259C114.306 90.7661 114.327 87.2384 114.336 85.7295C114.375 79.108 110.922 74.1142 109.621 72.2332C105.703 66.568 100.846 64.1202 98.9384 63.3301C97.5179 62.7411 95.1389 61.7547 91.9484 61.8402C89.2019 61.913 86.4569 62.7617 84.0059 64.2991L75.3179 72.9409C77.1591 71.9511 79.1993 71.4402 81.2654 71.451Z" fill="black"/>
<path id="Vector_3" d="M105.63 101.413L105.612 111.389L95.2875 121.586C95.2875 117.64 95.283 113.695 95.2815 109.75C96.111 109.437 98.322 108.52 100.356 106.513L105.63 101.413Z" fill="#FF444F"/>
<path id="Vector_4" d="M95.2875 121.882C95.2127 121.882 95.141 121.851 95.0881 121.795C95.0352 121.739 95.0055 121.663 95.0055 121.584L94.9995 109.749C94.9995 109.622 95.0745 109.511 95.187 109.47C97.0322 108.777 98.7256 107.697 100.166 106.296L105.441 101.194C105.481 101.155 105.532 101.129 105.586 101.12C105.64 101.111 105.696 101.119 105.746 101.143C105.848 101.191 105.912 101.297 105.912 101.414L105.896 111.391C105.895 111.431 105.887 111.472 105.872 111.509C105.856 111.546 105.834 111.58 105.806 111.608L95.481 121.803C95.4286 121.853 95.3586 121.882 95.2875 121.882ZM95.5635 109.958L95.568 120.899L105.332 111.261L105.347 102.089L100.547 106.731C99.1014 108.14 97.4084 109.237 95.5635 109.958Z" fill="black"/>
<path id="Vector_5" d="M105.6 120.65L95.2574 130.91L90.7739 125.039L95.2874 121.584L101.605 115.347L105.6 120.65Z" fill="#FF444F"/>
<path id="Vector_6" d="M95.2574 131.208H95.2379C95.1992 131.205 95.1615 131.193 95.1272 131.174C95.0929 131.155 95.0626 131.129 95.0384 131.097L90.5549 125.226C90.5312 125.194 90.5136 125.158 90.5033 125.119C90.493 125.08 90.4902 125.04 90.4949 124.999C90.4999 124.96 90.5126 124.921 90.5322 124.887C90.5518 124.853 90.5779 124.823 90.6089 124.8L95.1074 121.356L95.4794 120.989L101.412 115.132C101.44 115.104 101.474 115.082 101.51 115.069C101.547 115.055 101.586 115.05 101.625 115.053C101.703 115.059 101.775 115.1 101.824 115.164L105.82 120.466C105.864 120.525 105.885 120.599 105.88 120.673C105.874 120.747 105.842 120.816 105.79 120.867L98.7644 127.84L95.4494 131.129C95.3972 131.181 95.3278 131.21 95.2559 131.209L95.2574 131.208ZM91.1789 125.096L95.2859 130.475L98.3789 127.405L105.219 120.62L101.575 115.784L95.8649 121.421L95.4809 121.801C95.4725 121.81 95.4635 121.818 95.4539 121.825L91.1789 125.096Z" fill="black"/>
<path id="Vector_7" d="M105.592 129.928L95.2425 140.212L90.7815 134.33L95.2575 130.91L101.596 124.619L105.594 129.928H105.592Z" fill="#FF444F"/>
<path id="Vector_8" d="M95.241 140.51H95.2215C95.1828 140.507 95.145 140.496 95.1107 140.476C95.0764 140.457 95.0461 140.431 95.022 140.399L90.561 134.515C90.5369 134.484 90.5191 134.448 90.5089 134.409C90.4986 134.37 90.4959 134.329 90.5011 134.289C90.5063 134.249 90.5192 134.21 90.5391 134.176C90.5589 134.141 90.5852 134.111 90.6165 134.088C92.1045 132.954 93.591 131.817 95.079 130.679L101.404 124.403C101.433 124.374 101.466 124.353 101.503 124.339C101.54 124.325 101.579 124.32 101.617 124.323C101.656 124.326 101.694 124.337 101.728 124.356C101.763 124.375 101.793 124.402 101.817 124.434L105.814 129.742C105.859 129.8 105.88 129.874 105.875 129.948C105.87 130.023 105.839 130.092 105.787 130.144L95.4345 140.429C95.3823 140.48 95.3137 140.508 95.2425 140.508L95.241 140.51ZM91.185 134.389L95.2695 139.777L105.21 129.9L101.565 125.058L95.4495 131.127L95.421 131.151C94.011 132.231 92.5965 133.31 91.185 134.389Z" fill="black"/>
<path id="Vector_9" d="M90.7006 87.9795C90.6841 88.3452 90.6511 88.9168 90.3391 89.5454C90.2656 89.6911 89.8756 90.4479 89.0521 90.9213C87.8341 91.618 86.5411 91.1936 85.9321 90.9941C84.5671 90.5445 83.7631 89.6293 83.3551 89.1543C82.9531 88.6856 81.8851 87.438 81.7756 85.6045C81.7501 85.1865 81.7156 84.4613 82.0681 83.6538C82.1836 83.3925 82.6081 82.4584 83.5981 81.9755C84.2731 81.6493 84.8821 81.6905 85.3471 81.7285C87.1381 81.8757 88.3561 83.0347 88.7446 83.4131C89.0386 83.7013 89.9026 84.6006 90.3901 86.0462C90.5296 86.4611 90.7411 87.1134 90.7006 87.9795Z" fill="#FF444F"/>
<path id="Vector_10" d="M87.5579 91.6005C86.8304 91.6005 86.2019 91.3947 85.8494 91.2775C84.3899 90.7978 83.5499 89.8224 83.1479 89.3554C82.7249 88.8614 81.6119 87.5583 81.4949 85.6234C81.4709 85.2355 81.4229 84.428 81.8129 83.5303C82.2839 82.4647 82.9799 81.9517 83.4809 81.7094C84.2384 81.3405 84.9194 81.3959 85.3709 81.4339C86.6459 81.5369 87.8444 82.1306 88.9364 83.1946C89.3774 83.6284 90.1889 84.561 90.6554 85.9464C90.7844 86.3344 91.0274 87.0548 90.9824 87.9953C90.9741 88.5822 90.8392 89.1594 90.5879 89.6831C90.2656 90.3135 89.7796 90.8336 89.1869 91.1825C88.6854 91.4645 88.1246 91.6083 87.5564 91.6005H87.5579ZM84.8444 81.9992C84.5114 81.9992 84.1244 82.0483 83.7164 82.2462C83.3009 82.4473 82.7219 82.8764 82.3244 83.7789C81.9944 84.5389 82.0364 85.2197 82.0574 85.5839C82.1594 87.3129 83.1794 88.5035 83.5634 88.9548C83.9339 89.3854 84.7034 90.28 86.0174 90.7107C86.5964 90.9007 87.8024 91.2997 88.9184 90.66C89.4145 90.3683 89.8214 89.9333 90.0914 89.406C90.3809 88.8234 90.4064 88.2866 90.4214 87.9652C90.4604 87.1419 90.2504 86.518 90.1244 86.1444C89.7961 85.1869 89.2573 84.3252 88.5524 83.63C87.5564 82.6594 86.4704 82.1179 85.3274 82.0245C85.1834 82.0119 85.0214 81.9992 84.8444 81.9992Z" fill="black"/>
<path id="Vector_11" d="M35.043 35.4825C34.9635 33.1708 34.7115 26.0015 39.4935 20.6783C44.2605 15.3694 51.033 15.2396 52.4985 15.2111C66.993 14.934 82.449 32.0483 81.1335 47.4794C81.0195 48.8316 80.301 57.2628 73.983 61.8798C68.82 65.6529 62.862 64.7235 60.393 64.3387C47.613 62.3485 35.532 49.4332 35.043 35.4825Z" fill="white"/>
<path id="Vector_12" d="M64.6906 65.0275C62.8831 65.0275 61.3546 64.79 60.3526 64.6348C54.1066 63.6611 47.7466 60.0051 42.9046 54.6012C37.8886 49.0041 34.9966 42.2196 34.7611 35.4936C34.6786 33.1186 34.4251 25.8875 39.2881 20.4725C42.4156 16.9907 47.1061 15.0163 52.4941 14.915C59.4796 14.7804 67.1806 18.7086 73.1011 25.4204C75.8791 28.5681 78.1111 32.1844 79.5541 35.8767C81.1081 39.8509 81.7336 43.7617 81.4156 47.5063C81.1606 50.4877 79.9456 57.8851 74.1436 62.1236C70.9486 64.4575 67.4881 65.0275 64.6906 65.0275ZM52.8421 15.5071C52.7296 15.5071 52.6171 15.5071 52.5046 15.5103C47.2681 15.6116 42.7201 17.518 39.6961 20.8841C34.9966 26.1171 35.2426 33.1597 35.3236 35.4746C35.5516 42.0549 38.3911 48.7033 43.3126 54.1943C48.0676 59.5032 54.3106 63.0942 60.4351 64.0474C62.9221 64.4353 68.7511 65.3441 73.8226 61.6376C79.4281 57.5415 80.6086 50.3547 80.8546 47.4541C81.1651 43.8061 80.5516 39.9871 79.0336 36.1047C77.6131 32.4773 75.4186 28.9227 72.6886 25.8257C66.9706 19.342 59.5786 15.5056 52.8406 15.5056L52.8421 15.5071Z" fill="black"/>
<path id="Vector_13" d="M91.2286 40.2088C90.4426 44.5076 88.4386 47.5396 87.2011 49.1293L75.9316 60.1699C80.4586 55.4341 81.0316 48.6749 81.1366 47.4795C82.4476 32.0467 66.9916 14.9341 52.5001 15.2111C51.1276 15.2381 45.1081 15.3536 40.4341 19.7189L51.7306 8.36005C54.8297 6.35809 58.3532 5.20433 61.9816 5.00338C67.8511 4.6978 72.1321 7.12188 74.8306 8.6403C76.0846 9.34647 80.9956 12.2281 85.2406 18.2036C86.5966 20.11 90.3706 25.5519 91.3066 33.3308C91.5061 34.9775 91.7626 37.2733 91.2286 40.2088Z" fill="#EBECEE"/>
<path id="Vector_14" d="M75.9301 60.4675C75.8924 60.4671 75.8551 60.4586 75.8205 60.4425C75.786 60.4265 75.7549 60.4032 75.7291 60.3741C75.6774 60.3182 75.6488 60.243 75.6497 60.1649C75.6505 60.0868 75.6807 60.0123 75.7336 59.9577C79.7491 55.7587 80.6536 49.8164 80.8561 47.4572C81.1666 43.8045 80.5546 39.9855 79.0336 36.1047C77.6146 32.4773 75.4201 28.9227 72.6901 25.8257C66.8761 19.2359 59.3311 15.3789 52.5061 15.5087C46.4791 15.6259 42.7156 17.9835 40.6216 19.9421C40.5662 19.9939 40.4936 20.0204 40.4197 20.016C40.3458 20.0115 40.2766 19.9764 40.2271 19.9183C40.1772 19.8613 40.1505 19.7859 40.1527 19.7083C40.155 19.6307 40.186 19.5572 40.2391 19.5035L51.5371 8.14466C51.5521 8.12883 51.5671 8.11775 51.5851 8.10666C54.7246 6.08017 58.2932 4.91181 61.9681 4.70725C67.8916 4.3985 72.2971 6.87641 74.9281 8.35683L74.9626 8.37741C77.2351 9.65991 81.6226 12.616 85.4656 18.0231C88.8856 22.8332 90.9466 27.9696 91.5856 33.2927C91.7746 34.8555 92.0596 37.2194 91.5046 40.2642C90.9106 43.5147 89.4976 46.645 87.4171 49.3161C87.409 49.3265 87.4005 49.3365 87.3916 49.3462L76.1221 60.3867C76.0706 60.4379 76.0024 60.4663 75.9316 60.4659L75.9301 60.4675ZM52.8406 14.9102C59.7346 14.9102 67.2811 18.8179 73.1041 25.4188C75.8806 28.5681 78.1111 32.1828 79.5571 35.8752C81.1096 39.8462 81.7366 43.7602 81.4171 47.5047C81.2206 49.8243 80.5636 53.7178 78.4531 57.2945L86.9986 48.925C89.0116 46.3315 90.3796 43.2994 90.9556 40.1533C91.4926 37.1988 91.2166 34.8935 91.0306 33.3687C90.4036 28.1501 88.3801 23.1087 85.0186 18.3809C81.2386 13.0641 76.9321 10.1587 74.7016 8.9015L74.6671 8.88091C71.9191 7.33558 67.7671 4.99858 61.9996 5.29941C58.4286 5.49761 54.9605 6.63047 51.9076 8.59591L43.2586 17.2916C45.4876 16.0249 48.5146 14.991 52.4956 14.9134L52.8436 14.9118L52.8406 14.9102Z" fill="black"/>
<path id="Vector_15" d="M77.2215 104.647L77.2125 125.167C55.4415 118.897 33.6675 112.627 11.8965 106.354C11.8065 102.902 12.0765 95.4766 16.287 87.7436C21.6045 77.9807 29.847 73.8862 33.2535 72.4755C40.464 69.4893 46.7115 69.9485 49.7835 70.2113C57.5385 70.8731 63.6285 73.8656 67.626 75.8321C68.6632 76.3431 69.688 76.8816 70.6995 77.4471C70.4972 77.7418 70.307 78.0456 70.1295 78.3576C69.232 79.9754 68.6424 81.7626 68.394 83.619C68.2035 85.0186 68.262 86.0842 68.313 86.9883C68.4776 89.6347 69.0601 92.2334 70.0365 94.677C70.3035 95.3467 71.5095 98.287 74.0895 101.43C75.0446 102.595 76.0924 103.671 77.2215 104.647Z" fill="white"/>
<path id="Vector_16" d="M77.2141 125.463C77.1888 125.464 77.1636 125.461 77.1391 125.454L11.8201 106.642C11.7617 106.626 11.7098 106.59 11.6725 106.539C11.6352 106.489 11.6143 106.427 11.6131 106.363C11.4931 101.732 12.1621 94.7181 16.0426 87.5962C21.1261 78.2625 28.9426 73.9431 33.1501 72.1999C40.5736 69.1251 47.0431 69.6792 49.8046 69.9167C57.6091 70.5817 63.7066 73.579 67.7431 75.5629C68.7849 76.0758 69.8142 76.6165 70.8301 77.1842C70.8656 77.204 70.8967 77.2317 70.9212 77.2652C70.9457 77.2988 70.9631 77.3376 70.9722 77.3788C70.9813 77.4201 70.9819 77.463 70.9739 77.5045C70.966 77.5461 70.9497 77.5853 70.9261 77.6196C70.7206 77.9205 70.5361 78.2118 70.3711 78.5111C69.4918 80.0951 68.9145 81.8453 68.6716 83.6632C68.4826 85.0518 68.5441 86.1174 68.5936 86.9724C68.7436 89.5247 69.3331 92.1499 70.2946 94.5629C70.7146 95.6126 71.9431 98.3629 74.3011 101.238C75.2416 102.385 76.2841 103.455 77.4001 104.418C77.4324 104.446 77.4584 104.481 77.4763 104.521C77.4942 104.561 77.5035 104.605 77.5036 104.649L77.4946 125.169C77.4946 125.247 77.4651 125.323 77.4126 125.379C77.36 125.434 77.2887 125.466 77.2141 125.466L77.2126 125.465L77.2141 125.463ZM12.1726 106.128L76.9321 124.779L76.9411 104.788C75.8383 103.825 74.8132 102.767 73.8766 101.625C71.4646 98.6875 70.2061 95.8691 69.7771 94.7941C68.7907 92.3191 68.2016 89.688 68.0341 87.0088C67.9831 86.1253 67.9201 85.0265 68.1166 83.5777C68.3701 81.6828 68.9719 79.8584 69.8881 78.2071C70.0126 77.9854 70.1431 77.7716 70.2856 77.5531C69.3702 77.0468 68.444 76.5627 67.5076 76.1012C63.5086 74.1379 57.4651 71.166 49.7626 70.5089C47.0371 70.2761 40.6576 69.7299 33.3571 72.7541C29.2171 74.4672 21.5296 78.7153 16.5316 87.8939C12.7786 94.783 12.0811 101.572 12.1726 106.128Z" fill="black"/>
<path id="Vector_17" d="M80.82 67.0621L72.519 75.3176C71.8413 75.9559 71.2312 76.6699 70.6995 77.4472C69.6875 76.8817 68.6622 76.3432 67.6245 75.8322C63.627 73.8673 57.5385 70.8732 49.7835 70.2114C46.7115 69.9501 40.464 69.4909 33.2535 72.4755C29.3779 74.088 25.8068 76.4189 22.7085 79.3583L32.976 68.7452C33.6375 68.0786 34.5975 67.1777 35.838 66.2277C39.459 63.4553 42.81 62.3105 44.778 61.6566C46.5238 61.0768 48.3097 60.6412 50.1195 60.3535C53.334 62.3865 56.8365 63.7862 60.3945 64.3404C62.601 64.6855 67.599 65.4614 72.324 62.9217C72.8745 63.1339 73.494 63.384 74.169 63.669C76.104 64.486 77.7915 65.2064 79.785 66.4098C80.0925 66.595 80.4405 66.8119 80.82 67.0621Z" fill="#EBECEE"/>
<path id="Vector_18" d="M22.7099 79.6559C22.6349 79.6559 22.5599 79.6242 22.5029 79.5609C22.4526 79.5043 22.4254 79.4291 22.4271 79.3516C22.4288 79.274 22.4592 79.2002 22.5119 79.1461C25.9349 75.6073 29.3564 72.0686 32.7794 68.533C33.6882 67.6168 34.6544 66.7662 35.6714 65.987C39.4019 63.1291 42.8444 61.9875 44.6924 61.3732C46.4526 60.789 48.253 60.3496 50.0774 60.059C50.1419 60.0491 50.2076 60.0631 50.2634 60.0986C53.5064 62.149 57.0224 63.5138 60.4334 64.0458C62.5604 64.3783 67.5449 65.1558 72.1934 62.6573C72.2279 62.6384 72.2657 62.6273 72.3044 62.6246C72.3431 62.6218 72.3819 62.6276 72.4184 62.6414C73.0094 62.871 73.6334 63.1243 74.2709 63.3919C76.1219 64.1741 77.8709 64.9119 79.9229 66.1517C80.2694 66.3607 80.6204 66.5823 80.9669 66.8087C81.0039 66.8325 81.0351 66.865 81.0582 66.9037C81.0812 66.9424 81.0954 66.9862 81.0996 67.0316C81.1038 67.0771 81.0979 67.123 81.0825 67.1656C81.067 67.2083 81.0423 67.2465 81.0104 67.2774L76.8059 71.4574L72.7079 75.5329C72.0344 76.1694 71.4359 76.8708 70.9229 77.6197C70.8831 77.6778 70.8248 77.7187 70.7586 77.735C70.6925 77.7513 70.623 77.7419 70.5629 77.7084C69.5474 77.1416 68.5169 76.6001 67.5029 76.0997C63.5039 74.1348 57.4604 71.1629 49.7579 70.5074C47.0324 70.2731 40.6529 69.7284 33.3524 72.751C29.5088 74.3508 25.9666 76.6623 22.8929 79.5767C22.8415 79.6268 22.774 79.6546 22.7039 79.6543H22.7084L22.7099 79.6559ZM45.8399 69.7205C47.5154 69.7205 48.8714 69.8361 49.8059 69.9168C57.6104 70.5818 63.7079 73.5807 67.7429 75.563C68.6969 76.0332 69.6629 76.5367 70.6154 77.0656C71.1245 76.3514 71.6993 75.6922 72.3314 75.0975C73.6919 73.7437 75.0569 72.3837 76.4234 71.0267L80.3594 67.1127C80.1224 66.9592 79.8824 66.8119 79.6454 66.6694C77.6279 65.4502 75.8954 64.7187 74.0639 63.9461C73.4931 63.7043 72.919 63.471 72.3419 63.2462C67.5644 65.7606 62.5169 64.9721 60.3524 64.6348C56.9009 64.0965 53.3444 62.7237 50.0624 60.6638C48.3008 60.9494 46.5623 61.376 44.8619 61.94C43.0439 62.5448 39.6599 63.669 36.0014 66.4683C35.0084 67.2283 34.0559 68.0675 33.1709 68.9605L26.4434 75.9113C28.5466 74.4244 30.795 73.1801 33.1499 72.2C38.0639 70.167 42.5594 69.7205 45.8399 69.7205Z" fill="black"/>
<path id="Vector_19" d="M104.061 93.7271C103.37 87.3367 100.097 83.0427 98.6445 81.1871C97.194 79.3362 93.3435 74.5529 86.7105 72.6719C84.39 72.0164 80.541 70.9255 76.3395 72.7701C75.294 73.2292 72.1605 74.7793 70.128 78.3592C69.2306 79.9765 68.641 81.7632 68.3925 83.6191C68.202 85.0187 68.2605 86.0843 68.313 86.9884C68.4768 89.6349 69.0594 92.2337 70.0365 94.6771C70.3035 95.3468 71.5095 98.2871 74.0895 101.43C75.0446 102.594 76.0925 103.67 77.2215 104.646L77.2095 135.138L86.2275 147.024C89.232 144.753 92.238 142.484 95.2425 140.212L90.783 134.33L95.259 130.907L90.7755 125.036L95.289 121.583L95.2815 109.747C96.5115 109.282 100.763 107.499 102.992 102.812C104.666 99.2909 104.31 95.996 104.064 93.7239L104.061 93.7271ZM90.699 87.9796C90.684 88.3453 90.651 88.9169 90.336 89.5471C90.264 89.6912 89.874 90.4496 89.0505 90.9214C87.8325 91.6197 86.5395 91.1953 85.9305 90.9942C84.5655 90.5462 83.76 89.6294 83.352 89.1544C82.9515 88.6857 81.882 87.4381 81.7725 85.6046C81.747 85.1882 81.714 84.463 82.0665 83.6539C82.1805 83.3927 82.605 82.4585 83.5965 81.9772C84.2715 81.6494 84.879 81.6922 85.344 81.7302C87.1335 81.8758 88.353 83.0348 88.74 83.4132C89.0355 83.7014 89.8995 84.6023 90.3855 86.0463C90.525 86.4627 90.738 87.1135 90.699 87.9796Z" fill="#FF7E88"/>
<path id="Vector_20" d="M86.2245 147.323C86.1825 147.323 86.141 147.313 86.1031 147.294C86.0652 147.275 86.0318 147.247 86.0055 147.212L76.9875 135.326C76.9471 135.273 76.9249 135.207 76.9245 135.139L76.938 104.787C75.8359 103.824 74.8109 102.767 73.8735 101.626C71.4585 98.6845 70.203 95.8678 69.774 94.7943C68.7871 92.3189 68.198 89.6872 68.031 87.0074C67.9785 86.1303 67.9155 85.0362 68.112 83.5779C68.3654 81.6823 68.9678 79.8572 69.885 78.2057C71.808 74.8173 74.685 73.1738 76.23 72.4962C80.52 70.612 84.438 71.7203 86.7825 72.3853C93.6375 74.3265 97.5675 79.3472 98.8605 80.9971C100.164 82.6627 103.626 87.085 104.34 93.6938C104.585 95.9453 104.952 99.3463 103.241 102.948C101.229 107.176 97.644 109.139 95.5605 109.956L95.5695 121.583C95.5695 121.678 95.5245 121.768 95.4525 121.823L91.1775 125.093L95.4765 130.722C95.5007 130.753 95.5185 130.789 95.5289 130.828C95.5393 130.867 95.5421 130.908 95.537 130.948C95.532 130.988 95.5192 131.026 95.4995 131.061C95.4798 131.096 95.4536 131.126 95.4225 131.149L91.185 134.387L95.46 140.025C95.4842 140.057 95.5021 140.093 95.5124 140.132C95.5227 140.171 95.5252 140.212 95.5199 140.252C95.5145 140.292 95.5014 140.331 95.4813 140.365C95.4612 140.4 95.4345 140.43 95.403 140.453L86.388 147.263C86.3408 147.299 86.2842 147.318 86.226 147.318L86.2245 147.323ZM77.4885 135.036L86.277 146.62L94.833 140.155L90.558 134.518C90.5341 134.487 90.5166 134.451 90.5064 134.412C90.4963 134.373 90.4937 134.332 90.4989 134.292C90.5041 134.252 90.5169 134.214 90.5366 134.179C90.5563 134.145 90.5825 134.115 90.6135 134.091L94.8495 130.853L90.552 125.224C90.5282 125.193 90.5106 125.156 90.5003 125.118C90.49 125.079 90.4872 125.038 90.492 124.998C90.497 124.958 90.5097 124.92 90.5293 124.886C90.5489 124.851 90.575 124.822 90.606 124.798L95.001 121.434L94.995 109.749C94.995 109.624 95.07 109.511 95.1825 109.47C96.7665 108.872 100.674 107.013 102.734 102.682C104.37 99.2387 104.028 96.0736 103.778 93.7619C103.083 87.3288 99.6975 83.0032 98.4225 81.3755C97.1595 79.7621 93.3165 74.8522 86.6325 72.9585C84.36 72.3157 80.5545 71.239 76.443 73.044C74.9625 73.6932 72.204 75.2686 70.3635 78.5112C69.4855 80.0943 68.9097 81.8436 68.6685 83.6603C68.4765 85.0599 68.541 86.1192 68.589 86.9694C68.739 89.5218 69.327 92.1469 70.29 94.5615C70.707 95.6081 71.9355 98.3568 74.295 101.234C75.24 102.382 76.281 103.45 77.394 104.415C77.4585 104.47 77.496 104.556 77.496 104.644L77.484 135.033L77.4885 135.036ZM87.5565 91.6023C86.829 91.6023 86.199 91.3964 85.8465 91.2793C84.381 90.7979 83.514 89.7862 83.1435 89.3539C82.7235 88.8631 81.6075 87.5616 81.492 85.6252C81.4695 85.2357 81.42 84.4218 81.81 83.532C82.1775 82.6913 82.755 82.0595 83.478 81.708C84.2325 81.3422 84.9135 81.3961 85.3665 81.4341C86.6415 81.5386 87.8415 82.1307 88.932 83.1963C89.3745 83.6286 90.183 84.558 90.651 85.9482C90.78 86.3345 91.0215 87.0533 90.978 87.997C90.963 88.3422 90.933 88.9866 90.5835 89.688C90.2632 90.3191 89.7766 90.8387 89.1825 91.1843C88.6822 91.4666 88.1223 91.6109 87.555 91.6038L87.5565 91.6023ZM84.8415 82.0009C84.507 82.0009 84.1215 82.0484 83.7135 82.2479C83.1135 82.5392 82.632 83.0697 82.3215 83.7806C81.9915 84.5374 82.032 85.2214 82.0545 85.5888C82.158 87.3178 83.178 88.51 83.562 88.9581C83.931 89.3872 84.696 90.2802 86.0145 90.714C86.595 90.904 87.8025 91.3014 88.917 90.6633C89.628 90.2548 89.994 89.6025 90.0885 89.4109C90.381 88.8267 90.4035 88.2899 90.4185 87.9685C90.4575 87.142 90.2475 86.5198 90.1245 86.1477C89.7969 85.1906 89.2586 84.3294 88.554 83.6349C87.558 82.6643 86.4735 82.1228 85.3245 82.0294C85.182 82.0183 85.0215 82.0041 84.8445 82.0041L84.8415 82.0009Z" fill="black"/>
<path id="Vector_21" d="M5.16142 105.323C5.06692 103.827 4.92742 101.264 6.03742 98.3059C6.37492 97.4082 7.01392 95.7694 8.44642 94.1782C10.6814 91.6955 13.4159 91.0052 14.7194 90.6948C19.0649 89.6593 22.7009 91.2094 24.6974 92.0818C32.4614 95.467 35.8019 102.695 36.6179 104.532C37.3244 106.123 38.5589 108.974 38.5889 112.854C38.6024 114.5 38.5919 117.144 37.1189 119.987C36.2681 121.629 35.0813 123.05 33.6449 124.148C30.4409 126.581 27.0224 126.557 25.6049 126.526C22.5209 126.458 20.2889 125.367 18.4739 124.478C16.3929 123.445 14.4645 122.099 12.7484 120.482C11.5109 119.323 8.62642 116.562 6.74242 111.897C6.24742 110.669 5.36242 108.425 5.16142 105.325V105.323Z" fill="white"/>
<path id="Vector_22" d="M26.199 126.828C25.968 126.828 25.767 126.825 25.6005 126.82C22.455 126.75 20.1825 125.639 18.3555 124.744C16.2499 123.698 14.2987 122.336 12.5625 120.701C11.4315 119.643 8.43152 116.832 6.48452 112.008C6.03002 110.887 5.08952 108.556 4.88252 105.342C4.79102 103.919 4.62002 101.273 5.77802 98.195C6.08852 97.3685 6.73352 95.649 8.24402 93.9707C10.584 91.374 13.44 90.6932 14.6595 90.4019C19.143 89.3331 22.8285 90.9402 24.8085 91.8047C29.982 94.0594 34.266 98.5339 36.8745 104.402C37.512 105.838 38.8395 108.824 38.8725 112.847C38.8845 114.353 38.907 117.159 37.368 120.124C36.4969 121.805 35.2826 123.259 33.813 124.383C30.8865 126.606 27.816 126.825 26.202 126.825L26.199 126.828ZM5.44202 105.303C5.64302 108.415 6.55952 110.686 7.00052 111.778C8.89952 116.478 11.8305 119.225 12.9345 120.259C14.6291 121.856 16.5339 123.185 18.5895 124.206C20.37 125.077 22.584 126.16 25.611 126.226C26.8905 126.255 30.288 126.331 33.4815 123.905C34.8824 122.832 36.0402 121.445 36.8715 119.842C38.3415 117.011 38.3205 114.41 38.307 112.855C38.277 108.96 36.984 106.055 36.3615 104.657C33.813 98.9218 29.6325 94.555 24.5895 92.3541C22.668 91.5165 19.0905 89.957 14.7795 90.9845C13.6095 91.2616 10.872 91.914 8.64902 94.3824C7.21502 95.9768 6.59702 97.6235 6.29852 98.4151C5.18852 101.371 5.35502 103.928 5.44202 105.303Z" fill="black"/>
<path id="Vector_23" d="M47.319 107.933C46.8164 109.97 45.91 111.872 44.6595 113.512L34.9725 122.973C35.8242 122.094 36.5481 121.087 37.1205 119.985C38.5935 117.143 38.6025 114.499 38.589 112.854C38.559 108.974 37.326 106.121 36.6195 104.53C35.8035 102.693 32.4615 95.4654 24.699 92.0819C22.7025 91.211 19.065 89.6594 14.7195 90.6949C13.6605 90.9434 11.664 91.4469 9.75146 92.9543C12.711 89.9776 15.6705 86.9978 18.63 84.0243C19.5156 83.4243 20.4595 82.9259 21.4455 82.5375C25.383 80.989 28.878 81.6619 30.2355 81.9438C34.077 82.7354 36.6105 84.675 38.307 86.005C40.5109 87.7407 42.4165 89.8625 43.941 92.2782C44.9775 93.9201 46.782 96.8382 47.4435 101.096C47.6865 102.666 48.0285 105.019 47.3175 107.929L47.319 107.933Z" fill="#EBECEE"/>
<path id="Vector_24" d="M34.974 123.269C34.9183 123.269 34.8639 123.251 34.8178 123.218C34.7716 123.185 34.7356 123.139 34.7145 123.084C34.6933 123.03 34.6878 122.97 34.6988 122.913C34.7097 122.855 34.7366 122.802 34.776 122.761C35.6087 121.904 36.3155 120.92 36.873 119.843C38.3415 117.012 38.3205 114.41 38.307 112.857C38.277 108.965 36.987 106.056 36.3645 104.658C34.8885 101.338 31.3995 95.3262 24.5925 92.3591C22.6725 91.5199 19.098 89.9572 14.7825 90.9863C13.902 91.1922 11.8425 91.6814 9.92097 93.1935C9.86408 93.2441 9.79048 93.2688 9.71635 93.2621C9.64223 93.2554 9.57366 93.2179 9.52572 93.1579C9.47778 93.0978 9.45441 93.0201 9.46073 92.9419C9.46706 92.8636 9.50258 92.7913 9.55947 92.7407C12.5175 89.7608 15.4785 86.7842 18.4365 83.8107C18.4492 83.797 18.4633 83.7847 18.4785 83.7742C19.389 83.1599 20.3535 82.6501 21.348 82.2606C25.44 80.6503 29.091 81.4056 30.291 81.6526C34.2765 82.4759 36.906 84.5342 38.4765 85.7661C40.7053 87.5235 42.6331 89.6703 44.1765 92.1137C45.105 93.583 47.0385 96.6452 47.724 101.048C47.952 102.518 48.333 104.975 47.592 108.004C47.0828 110.084 46.1581 112.026 44.88 113.698L44.85 113.729L35.1645 123.19C35.1129 123.241 35.0447 123.269 34.974 123.269ZM17.637 90.0601C20.8035 90.0601 23.3925 91.1922 24.807 91.8097C31.7895 94.856 35.364 101.009 36.8745 104.407C37.5135 105.843 38.8425 108.832 38.8725 112.854C38.8845 114.359 38.907 117.162 37.368 120.131L37.2555 120.341L44.4525 113.314C45.6744 111.712 46.559 109.853 47.0475 107.861C47.757 104.951 47.388 102.572 47.1675 101.148C46.5015 96.8732 44.6835 93.9947 43.707 92.4477C42.2005 90.0616 40.3183 87.9651 38.142 86.249C36.609 85.0457 34.044 83.038 30.1845 82.24C29.0235 82.0009 25.4895 81.271 21.546 82.8211C20.5875 83.1989 19.6694 83.6824 18.807 84.2635L11.697 91.4154C12.6488 90.9699 13.6429 90.6329 14.6625 90.41C15.6397 90.1779 16.6383 90.0616 17.64 90.0632L17.637 90.0601Z" fill="black"/>
<path id="Vector_25" d="M13.4461 103.846L30.2371 108.713V113.017L13.4146 108.213L13.4461 103.846Z" fill="white"/>
<path id="Vector_26" d="M30.2371 113.314C30.2122 113.314 30.1874 113.311 30.1636 113.303L13.3411 108.499C13.281 108.482 13.228 108.444 13.1903 108.392C13.1526 108.34 13.1323 108.276 13.1326 108.21L13.1641 103.843C13.1641 103.797 13.1741 103.752 13.1934 103.711C13.2126 103.671 13.2405 103.635 13.2749 103.607C13.3093 103.58 13.3493 103.561 13.3918 103.552C13.4342 103.544 13.4779 103.546 13.5196 103.558L30.3121 108.427C30.3715 108.444 30.4239 108.481 30.4613 108.533C30.4987 108.585 30.519 108.648 30.5191 108.713V113.017C30.5193 113.056 30.5121 113.095 30.498 113.131C30.4839 113.167 30.4631 113.2 30.4369 113.228C30.4107 113.255 30.3795 113.277 30.3452 113.292C30.3109 113.307 30.2742 113.315 30.2371 113.314ZM13.6981 107.983L29.9566 112.627V108.938L13.7236 104.236L13.6981 107.988V107.983Z" fill="black"/>
</g>
</svg>
