<svg width="128" height="128" viewBox="0 0 128 128" fill="none" xmlns="http://www.w3.org/2000/svg">
<g id="illustration / deriv / light / profile-verified">
<g id="vector">
<g id="Vector">
<path d="M73.4164 32.3396C75.7731 33.1524 78.9464 34.0495 82.8125 34.5908C83.0702 34.6269 83.3311 34.6614 83.595 34.6942C84.1982 34.7691 84.8172 34.8351 85.4517 34.8906L100.738 27.4517C84.2238 24.806 71.3775 14.4897 66.4368 9.20609L50.3307 16.9463C52.3425 19.0726 55.1212 21.7074 58.7164 24.3544C61.527 26.4225 66.3072 29.8829 73.4164 32.3396Z" fill="#DEE2E6"/>
<path d="M38.6083 22.7971C42.8705 21.2031 46.2399 19.1226 48.7297 17.2605C42.7127 18.0703 36.6048 17.9194 30.6344 16.8129L15.308 24.458C16.0092 24.6069 16.7735 24.7506 17.5958 24.8785C18.3762 24.9998 19.2088 25.107 20.0891 25.1909C21.1954 25.2962 22.3771 25.3646 23.6253 25.3785C24.0383 25.3829 24.591 25.3783 24.9922 25.3709C24.9438 25.372 25.0408 25.3701 24.9922 25.3709C25.1394 25.3677 25.2857 25.3638 25.4311 25.3591C25.4813 25.3575 25.5314 25.3558 25.5814 25.354C25.6813 25.3504 25.7809 25.3465 25.88 25.3423C25.9284 25.3402 25.9768 25.3381 26.025 25.3358C26.1516 25.33 26.2775 25.3236 26.4027 25.3167C32.3355 24.9895 36.7404 23.4979 38.6083 22.7971Z" fill="#DEE2E6"/>
<path fill-rule="evenodd" clip-rule="evenodd" d="M30.5323 16.0816C25.0735 18.7849 19.5848 21.4888 14.126 24.1893L14.0297 43.3485L14 49.2501C14.0087 51.4401 14.1247 54.2623 14.5308 57.5225C15.3691 64.2489 16.9876 69.2466 17.6025 71.0362C17.8864 71.8676 18.4789 73.5421 19.4514 75.7533C27.0766 93.5557 41.0438 104.45 49.3239 108.215C49.4765 108.3 49.627 108.383 49.7755 108.465C50.0584 108.398 50.3598 108.325 50.6783 108.244C65.278 104.786 99.3502 93.8471 102.315 57.9C102.558 54.9559 102.62 52.4701 102.588 50.666L102.315 26.9734C84.8897 24.7058 71.3253 13.5752 66.6009 8.35059L49.8291 16.4098L49.0416 16.5107C42.89 17.3839 36.6368 17.2389 30.5323 16.0816ZM81.9598 81.2459C80.4718 84.8948 77.6553 90.4407 72.5968 95.6878C69.2031 99.2062 65.5777 101.794 62.1521 103.696C61.3741 104.129 60.5388 104.57 59.7895 104.933C65.9693 102.865 73.1567 99.7735 79.8221 95.131C90.6734 87.5729 100.127 75.9187 101.618 57.8424C101.859 54.9197 101.92 52.4573 101.888 50.6784L101.888 50.6741L101.625 27.7987L85.783 35.5079L85.7827 58.259C85.8146 60.0632 85.7856 62.5518 85.51 65.493C85.1707 69.0781 84.5906 74.7922 81.9598 81.2459ZM14.8307 46.6654C14.4563 57.7699 16.6266 67.4191 20.1447 75.5907C21.5035 78.6637 23.5951 82.7585 26.6103 87.0542C34.161 97.8153 43.5339 104.175 49.6402 107.59C49.7285 107.63 49.816 107.669 49.9029 107.707C50.1018 107.661 50.3047 107.614 50.5114 107.565C53.2635 106.866 57.375 105.551 61.8122 103.085C65.1855 101.211 68.7539 98.6641 72.0932 95.2021C77.0718 90.0379 79.8459 84.5767 81.3118 80.9818C83.9018 74.6281 84.4752 69 84.8134 65.4273C85.0859 62.5182 85.1146 60.0565 85.0831 58.2716L85.0828 58.2593L85.083 35.5601C80.0799 35.0926 76.0422 33.9864 73.1864 33.0015C65.9746 30.5093 61.1255 26.9974 58.2999 24.9184C54.6259 22.2133 51.7952 19.5209 49.7556 17.3586C47.1747 19.3632 43.5466 21.6976 38.854 23.4525C36.6618 24.2749 31.0625 26.1581 23.6134 26.0785C20.1058 26.0395 17.1149 25.5757 14.8311 25.072V46.6536L14.8307 46.6654ZM100.738 27.4517L85.4517 34.8906C84.8172 34.8351 84.1982 34.7691 83.595 34.6942C83.3311 34.6614 83.0702 34.6269 82.8125 34.5908C78.9459 34.0496 75.7719 33.1527 73.415 32.3399C66.3057 29.8831 61.5256 26.4228 58.715 24.3547C55.1199 21.7078 52.3414 19.0731 50.3295 16.9468L50.3307 16.9463L66.4368 9.20609C71.3775 14.4897 84.2238 24.806 100.738 27.4517ZM48.7297 17.2605C46.2399 19.1226 42.8705 21.2031 38.6083 22.7971C36.7404 23.4979 32.3355 24.9895 26.4027 25.3167C26.2775 25.3236 26.1516 25.33 26.025 25.3358C25.9768 25.3381 25.9284 25.3402 25.88 25.3423C25.7809 25.3465 25.6813 25.3504 25.5814 25.354L25.4311 25.3591C25.2857 25.3638 25.1394 25.3677 24.9922 25.3709C24.59 25.3783 24.0362 25.3833 23.6221 25.3789C22.3751 25.365 21.1945 25.2963 20.0891 25.1909C19.2088 25.107 18.3762 24.9998 17.5958 24.8785C16.7735 24.7506 16.0092 24.6069 15.308 24.458L30.6344 16.8129C36.6048 17.9194 42.7127 18.0703 48.7297 17.2605Z" fill="#101213"/>
<path fill-rule="evenodd" clip-rule="evenodd" d="M34.8467 76.6826C34.8467 68.1145 42.149 61.3643 50.6908 62.0367L51.0786 62.0673C58.9086 62.6836 64.9482 69.2174 64.9482 77.0716V79.5493L34.8467 77.0043V76.6826ZM64.2482 78.7876L35.5503 76.3613C35.73 68.3547 42.6082 62.1026 50.6359 62.7346L51.0237 62.7651C58.4895 63.3528 64.2482 69.5827 64.2482 77.0716V78.7876Z" fill="#101213"/>
<path fill-rule="evenodd" clip-rule="evenodd" d="M42.6834 52.1897C42.6834 48.0488 46.2625 44.7876 50.3839 45.0686C54.1276 45.3238 57.1042 48.4389 57.1042 52.1995C57.1042 56.3668 53.4821 59.6365 49.3372 59.3158C45.6214 59.0283 42.6834 55.9247 42.6834 52.1897ZM43.3834 52.1897C43.3834 48.464 46.6093 45.5129 50.3362 45.767C53.7209 45.9977 56.4042 48.8152 56.4042 52.1995C56.4042 55.9489 53.1394 58.9079 49.3912 58.6179C46.0319 58.3579 43.3834 55.551 43.3834 52.1897Z" fill="#101213"/>
<path fill-rule="evenodd" clip-rule="evenodd" d="M20.1447 75.5907C16.6266 67.4191 14.4563 57.7699 14.8307 46.6654L14.8311 46.6536V25.072C17.1149 25.5757 20.1058 26.0395 23.6134 26.0785C31.0625 26.1581 36.6618 24.2749 38.854 23.4525C43.5466 21.6976 47.1747 19.3632 49.7556 17.3586C51.7952 19.5209 54.6259 22.2133 58.2999 24.9184C61.1255 26.9974 65.9746 30.5093 73.1864 33.0015C76.0422 33.9864 80.0799 35.0926 85.083 35.5601L85.0828 58.2593L85.0831 58.2716C85.1146 60.0565 85.0859 62.5182 84.8134 65.4273C84.4752 69 83.9018 74.6281 81.3118 80.9818C79.8459 84.5767 77.0718 90.0379 72.0932 95.2021C68.7539 98.6641 65.1855 101.211 61.8122 103.085C57.375 105.551 53.2635 106.866 50.5114 107.565C50.3047 107.614 50.1018 107.661 49.9029 107.707C49.816 107.669 49.7285 107.63 49.6402 107.59C43.5339 104.175 34.161 97.8153 26.6103 87.0542C23.5951 82.7585 21.5035 78.6637 20.1447 75.5907ZM50.3839 45.0686C46.2625 44.7876 42.6834 48.0488 42.6834 52.1897C42.6834 55.9247 45.6214 59.0283 49.3372 59.3158C53.4821 59.6365 57.1042 56.3668 57.1042 52.1995C57.1042 48.4389 54.1276 45.3238 50.3839 45.0686ZM50.6908 62.0367C42.149 61.3643 34.8467 68.1145 34.8467 76.6826V77.0043L64.9482 79.5493V77.0716C64.9482 69.2174 58.9086 62.6836 51.0786 62.0673L50.6908 62.0367Z" fill="white"/>
<path fill-rule="evenodd" clip-rule="evenodd" d="M62.1521 103.696C61.3741 104.129 60.5388 104.57 59.7895 104.933C65.9693 102.865 73.1567 99.7735 79.8221 95.131C90.6734 87.5729 100.127 75.9187 101.618 57.8424C101.859 54.9197 101.92 52.4573 101.888 50.6784L101.888 50.6741L101.625 27.7987L85.783 35.5079L85.7827 58.259C85.8146 60.0632 85.7856 62.5518 85.51 65.493C85.1707 69.0781 84.5906 74.7922 81.9598 81.2459C80.4718 84.8948 77.6553 90.4407 72.5968 95.6878C69.2031 99.2062 65.5777 101.794 62.1521 103.696ZM85.4517 34.8906L100.738 27.4517C84.2238 24.806 71.3775 14.4897 66.4368 9.20609L50.3307 16.9463L50.3295 16.9468C52.3414 19.0731 55.1199 21.7078 58.715 24.3547C61.5256 26.4228 66.3057 29.8831 73.415 32.3399C75.7719 33.1527 78.9459 34.0496 82.8125 34.5908C83.0702 34.6269 83.3311 34.6614 83.595 34.6942C84.1982 34.7691 84.8172 34.8351 85.4517 34.8906ZM38.6083 22.7971C42.8705 21.2031 46.2399 19.1226 48.7297 17.2605C42.7127 18.0703 36.6048 17.9194 30.6344 16.8129L15.308 24.458C16.0092 24.6069 16.7735 24.7506 17.5958 24.8785C18.3762 24.9998 19.2088 25.107 20.0891 25.1909C21.1945 25.2963 22.3751 25.365 23.6221 25.3789C24.0362 25.3833 24.59 25.3783 24.9922 25.3709C25.1394 25.3677 25.2857 25.3638 25.4311 25.3591L25.5814 25.354C25.6813 25.3504 25.7809 25.3465 25.88 25.3423L26.025 25.3358C26.1516 25.33 26.2775 25.3236 26.4027 25.3167C32.3355 24.9895 36.7404 23.4979 38.6083 22.7971Z" fill="#DEE2E6"/>
<path d="M50.3362 45.767C46.6093 45.5129 43.3834 48.464 43.3834 52.1897C43.3834 55.551 46.0319 58.3579 49.3912 58.6179C53.1394 58.9079 56.4042 55.9489 56.4042 52.1995C56.4042 48.8152 53.7209 45.9977 50.3362 45.767Z" fill="white"/>
<path d="M35.5503 76.3613L64.2482 78.7876V77.0716C64.2482 69.5827 58.4895 63.3528 51.0237 62.7651L50.6359 62.7346C42.6082 62.1026 35.73 68.3547 35.5503 76.3613Z" fill="white"/>
</g>
<g id="Vector_2">
<path d="M85.4857 65.361C86.6184 65.361 87.692 65.457 88.701 65.62C90.7496 65.9509 92.5323 66.5578 94.0045 67.1971C95.4197 67.8116 96.548 68.4561 97.3496 68.914C97.3514 68.915 97.3532 68.9161 97.3551 68.9171C101.813 71.4636 104.397 74.6172 105.502 75.9645C108.118 79.1514 110.071 82.7708 111.305 86.7228C111.298 86.7002 111.312 86.7445 111.305 86.7228C111.538 87.4663 111.926 88.7226 112.239 90.2627C112.744 92.7455 113.109 96.1385 112.543 100.039C112.268 101.929 111.758 105.445 109.416 109.355C108.858 110.287 107.455 112.632 104.898 114.861C106.944 113.881 108.988 112.903 111.034 111.924C111.879 111.371 112.691 110.754 113.448 110.091C114.564 109.109 116.192 107.454 117.602 105.142C119.868 101.43 120.37 97.9917 120.64 96.1437C121.243 92.0054 120.718 88.767 120.465 87.2101C119.886 83.6473 118.72 80.2359 116.997 77.0723C115.784 74.8418 114.274 72.7144 112.633 70.9214C109.735 67.7578 106.833 65.9182 105.362 65.1032C104.008 64.3563 101.485 62.9658 97.9173 62.3404C96.5617 62.1009 94.3994 61.8713 91.7913 62.1341C89.9118 62.3221 88.0605 62.7446 86.2858 63.3883L83.6095 64.7173C82.9176 65.0616 82.2204 65.4201 81.5285 65.7628C82.5854 65.5558 83.8062 65.4148 84.8836 65.3743C84.8349 65.3757 84.9319 65.3725 84.8836 65.3743C85.0849 65.3676 85.2878 65.361 85.4857 65.361Z" fill="black"/>
<path fill-rule="evenodd" clip-rule="evenodd" d="M110.702 86.9093C109.884 84.2976 108.268 80.332 105.014 76.3667C104.532 75.7792 103.857 74.9655 102.957 74.0464C101.564 72.6233 99.6319 70.9475 97.0418 69.4676C94.8991 68.2434 91.3328 66.2648 86.4932 66.0203C85.9785 65.9943 85.3899 65.9897 84.8466 66.006M110.702 86.9093C111.368 89.0378 112.807 93.8207 111.917 99.9451C111.629 101.922 111.103 105.306 108.874 109.027C107.998 110.49 105.782 114.088 101.358 116.602C101.241 116.668 101.123 116.733 101.003 116.798C94.8906 120.103 88.8956 119.04 86.9132 118.659C80.6583 117.453 76.7689 113.923 74.66 112.006C73.6741 111.111 70.1686 107.802 67.5861 102.278C65.6187 98.0679 65.0455 94.4067 64.8463 92.6704C64.6296 90.789 64.2686 87.3789 65.2613 83.1071C65.7047 81.2062 66.5548 77.7117 69.3057 74.1165C71.9949 70.6021 75.0549 68.8734 75.9684 68.3856C76.4497 68.1278 77.1671 67.7691 78.0876 67.4079C79.746 66.7571 82.0635 66.098 84.8466 66.006C84.8268 66.0066 84.8665 66.0053 84.8466 66.006" fill="#0E0E0E"/>
<path fill-rule="evenodd" clip-rule="evenodd" d="M105.014 76.3667C108.268 80.332 109.884 84.2976 110.702 86.9093C111.368 89.0378 112.807 93.8207 111.917 99.9451C111.629 101.922 111.103 105.306 108.874 109.027C107.998 110.49 105.782 114.088 101.358 116.602C101.241 116.668 101.123 116.733 101.003 116.798C94.8906 120.103 88.8956 119.04 86.9132 118.659C80.6583 117.453 76.7689 113.923 74.66 112.006C73.6741 111.111 70.1686 107.802 67.5861 102.278C65.6187 98.0679 65.0455 94.4067 64.8463 92.6704C64.6296 90.789 64.2686 87.3789 65.2613 83.1071C65.7047 81.2062 66.5548 77.7117 69.3057 74.1165C71.9949 70.6021 75.0549 68.8734 75.9684 68.3856C76.4497 68.1278 77.1671 67.7691 78.0876 67.4079C79.746 66.7571 82.0635 66.098 84.8466 66.006C84.8268 66.0066 84.8665 66.0053 84.8466 66.006C85.3899 65.9897 85.9785 65.9943 86.4932 66.0203C91.3328 66.2648 94.8991 68.2434 97.0418 69.4676C99.6319 70.9475 101.564 72.6233 102.957 74.0464C103.857 74.9655 104.532 75.7792 105.014 76.3667Z" fill="#FF7E88"/>
<path d="M85.4857 65.361C86.6184 65.361 87.692 65.457 88.701 65.62C90.7496 65.9509 92.5323 66.5578 94.0045 67.1971C95.4197 67.8116 96.548 68.4561 97.3496 68.914L97.3551 68.9171C101.813 71.4636 104.397 74.6172 105.502 75.9645C108.118 79.1514 110.071 82.7708 111.305 86.7228C111.298 86.7002 111.312 86.7445 111.305 86.7228C111.538 87.4663 111.926 88.7226 112.239 90.2627C112.744 92.7455 113.109 96.1385 112.543 100.039C112.268 101.929 111.758 105.445 109.416 109.355C108.858 110.287 107.455 112.632 104.898 114.861C106.944 113.881 108.988 112.903 111.034 111.924C111.879 111.371 112.691 110.754 113.448 110.091C114.564 109.109 116.192 107.454 117.602 105.142C119.868 101.43 120.37 97.9917 120.64 96.1437C121.243 92.0054 120.718 88.767 120.465 87.2101C119.886 83.6473 118.72 80.2359 116.997 77.0723C115.784 74.8418 114.274 72.7144 112.633 70.9214C109.735 67.7578 106.833 65.9182 105.362 65.1032C104.008 64.3563 101.485 62.9658 97.9173 62.3404C96.5617 62.1009 94.3994 61.8713 91.7913 62.1341C89.9118 62.3221 88.0605 62.7446 86.2858 63.3883L83.6095 64.7173C82.9176 65.0616 82.2204 65.4201 81.5285 65.7628C82.5854 65.5558 83.8062 65.4148 84.8836 65.3743C84.8349 65.3757 84.9319 65.3725 84.8836 65.3743C85.0849 65.3676 85.2878 65.361 85.4857 65.361Z" fill="#FF535E"/>
<path fill-rule="evenodd" clip-rule="evenodd" d="M77.8676 66.8496C79.6523 65.9631 81.532 65.005 83.3168 64.1185L86.0097 62.7812L86.0446 62.7662C87.8759 62.1009 89.7887 61.6651 91.7281 61.4705C93.8521 61.2559 96.0327 61.3308 98.0354 61.6834C101.71 62.3285 104.296 63.753 105.685 64.5184L105.687 64.5193C107.194 65.3543 110.164 67.2372 113.127 70.4706C114.805 72.3036 116.347 74.4759 117.584 76.7529C119.342 79.9831 120.533 83.466 121.124 87.102L121.124 87.1061C121.382 88.6978 121.918 92.0024 121.3 96.2385C121.024 98.133 120.508 101.659 118.171 105.488C116.716 107.873 115.039 109.578 113.887 110.59C113.102 111.28 112.258 111.919 111.38 112.492C111.368 112.501 111.355 112.507 111.342 112.514C109.218 113.532 107.094 114.548 104.97 115.564L101.654 117.123C95.3487 120.532 88.8093 119.635 86.7998 119.248C80.3734 118.009 76.3793 114.38 74.2594 112.453L74.2565 112.451C73.243 111.53 69.6729 108.159 67.0426 102.532C65.0381 98.2428 64.4536 94.5123 64.2502 92.739C64.0312 90.8381 63.6604 87.3453 64.6769 82.9713C65.1251 81.0498 65.9982 77.4518 68.8292 73.7519C71.5924 70.1408 74.7365 68.3632 75.6858 67.8563C76.1819 67.5906 76.9204 67.2214 77.8676 66.8496ZM111.917 99.9451C111.649 101.788 111.148 105.232 108.874 109.027C107.998 110.49 105.782 114.088 101.358 116.602C101.241 116.668 101.123 116.733 101.003 116.798C94.8906 120.103 88.8956 119.04 86.9132 118.659C80.6583 117.453 76.7689 113.923 74.66 112.006C73.6741 111.111 70.1686 107.802 67.5861 102.278C65.6187 98.0679 65.0455 94.4067 64.8463 92.6704C64.6296 90.789 64.2686 87.3789 65.2613 83.1071C65.7047 81.2062 66.5548 77.7117 69.3057 74.1165C71.9949 70.6021 75.0549 68.8734 75.9684 68.3856C76.4497 68.1278 77.1671 67.7691 78.0876 67.4079C79.746 66.7571 82.0635 66.098 84.8466 66.006C84.8268 66.0066 84.8665 66.0053 84.8466 66.006C85.3899 65.9897 85.9785 65.9943 86.4932 66.0203C91.4341 66.2693 95.0307 68.3182 97.0418 69.4676C99.6319 70.9475 101.564 72.6233 102.957 74.0464C103.898 75.0057 104.576 75.8321 105.014 76.3667C107.576 79.487 109.493 83.0404 110.702 86.9093C111.368 89.0378 112.807 93.8207 111.917 99.9451ZM111.305 86.7228C111.298 86.7002 111.312 86.7445 111.305 86.7228C110.472 84.0618 108.82 80.008 105.502 75.9645C104.259 74.451 101.709 71.4049 97.3496 68.914C96.4784 68.4163 95.3587 67.787 94.0045 67.1971C92.5323 66.5578 90.7496 65.9509 88.701 65.62C87.5168 65.4305 86.2431 65.3337 84.8836 65.3743C84.8349 65.3757 84.9319 65.3725 84.8836 65.3743C83.8062 65.4148 82.5854 65.5558 81.5285 65.7628C82.2204 65.4201 82.9176 65.0616 83.6095 64.7173L86.2858 63.3883C88.0605 62.7446 89.9118 62.3221 91.7913 62.1341C94.3994 61.8713 96.5617 62.1009 97.9173 62.3404C101.485 62.9658 104.008 64.3563 105.362 65.1032C106.833 65.9182 109.735 67.7578 112.633 70.9214C114.274 72.7144 115.784 74.8418 116.997 77.0723C118.72 80.2359 119.886 83.6473 120.465 87.2101C120.718 88.767 121.243 92.0054 120.64 96.1437C120.37 97.9917 119.868 101.43 117.602 105.142C116.192 107.454 114.564 109.109 113.448 110.091C112.691 110.754 111.879 111.371 111.034 111.924C108.988 112.903 106.944 113.881 104.898 114.861C107.455 112.632 108.858 110.287 109.416 109.355C111.758 105.445 112.268 101.929 112.543 100.039C113.109 96.1385 112.744 92.7455 112.239 90.2627C111.936 88.782 111.559 87.5346 111.305 86.7228Z" fill="#0E0E0E"/>
<path fill-rule="evenodd" clip-rule="evenodd" d="M100.565 84.1097C99.5266 83.1527 97.9011 83.2497 96.984 84.3235L84.4654 98.9811L80.0172 95.164C78.9783 94.2725 77.4157 94.3817 76.5109 95.4091C75.585 96.4603 75.7028 98.067 76.7722 98.9719L84.8444 105.803C84.9026 105.853 84.9896 105.846 85.0394 105.788L100.762 87.5671C101.64 86.55 101.553 85.0202 100.565 84.1097ZM96.5277 83.9338C97.6658 82.6013 99.683 82.4809 100.971 83.6686C102.197 84.7984 102.306 86.6969 101.217 87.9591L85.4937 106.18C85.2289 106.487 84.7663 106.523 84.4568 106.261L76.3846 99.4299C75.0588 98.3079 74.9127 96.3159 76.0606 95.0125C77.1825 93.7387 79.1198 93.6033 80.408 94.7087L84.3997 98.1341L96.5277 83.9338Z" fill="#0E0E0E"/>
<path d="M96.984 84.3235C97.9011 83.2497 99.5266 83.1527 100.565 84.1097C101.553 85.0202 101.64 86.55 100.762 87.5671L85.0394 105.788C84.9896 105.846 84.9026 105.853 84.8444 105.803L76.7722 98.9719C75.7028 98.067 75.585 96.4603 76.5109 95.4091C77.4157 94.3817 78.9783 94.2725 80.0172 95.164L84.4654 98.9811L96.984 84.3235Z" fill="#FF444F"/>
</g>
</g>
</g>
</svg>
