<svg width="128" height="128" viewBox="0 0 128 128" fill="none" xmlns="http://www.w3.org/2000/svg">
<g id="illustration / deriv / light / exchange-error">
<path id="Vector" d="M62.1206 97.7082C58.0135 97.0982 53.9063 96.4839 49.7977 95.8739C49.8649 91.661 49.9363 87.4467 50.0049 83.2339C54.0363 83.8567 58.0635 84.4753 62.0906 85.0939C62.0992 89.2982 62.1106 93.5039 62.1206 97.7082Z" fill="white"/>
<path id="Vector_2" d="M62.1207 97.994C62.1064 97.994 62.0922 97.994 62.0793 97.9911C60.0336 97.6868 57.9864 97.3826 55.9407 97.0768C53.8793 96.7697 51.8193 96.4626 49.7579 96.1568C49.6164 96.1354 49.5122 96.0126 49.5136 95.8697C49.5479 93.7626 49.5822 91.654 49.6164 89.5468C49.6507 87.4411 49.685 85.3354 49.7193 83.2297C49.7193 83.1468 49.7579 83.0697 49.8207 83.0154C49.8836 82.9626 49.9664 82.9383 50.0479 82.9511C54.0779 83.5726 58.1064 84.1926 62.1336 84.8111C62.2722 84.8326 62.375 84.9526 62.3764 85.0926C62.3807 87.1954 62.3864 89.2968 62.3907 91.3997C62.3964 93.5026 62.4007 95.604 62.405 97.7068C62.405 97.7897 62.3693 97.8697 62.3064 97.924C62.2536 97.9697 62.1879 97.994 62.1193 97.994H62.1207ZM50.0879 95.6283C52.0664 95.9226 54.045 96.2168 56.0236 96.5111C57.9607 96.7997 59.8979 97.0883 61.8336 97.3754C61.8293 95.384 61.825 93.3926 61.8193 91.4011C61.815 89.3797 61.8093 87.3597 61.805 85.3383C57.965 84.7483 54.1264 84.1583 50.2836 83.5654C50.2507 85.5626 50.2179 87.5583 50.185 89.5554C50.1521 91.5797 50.1179 93.604 50.0864 95.6283H50.0879Z" fill="black"/>
<path id="Vector_3" d="M62.1064 54.0952C62.0821 61.4881 62.0592 68.8766 62.0349 76.2681C57.9835 75.6995 53.9321 75.1295 49.8807 74.5609C49.8949 67.1252 49.9078 59.6852 49.9221 52.2495C53.9821 52.8652 58.0449 53.4795 62.1064 54.0952Z" fill="white"/>
<path id="Vector_4" d="M62.0351 76.5534C62.0222 76.5534 62.008 76.5534 61.9951 76.5506L49.8408 74.8434C49.6994 74.8234 49.5951 74.702 49.5951 74.5606C49.6023 70.842 49.6094 67.1234 49.6151 63.4049C49.6222 59.6863 49.628 55.9663 49.6351 52.2492C49.6351 52.1663 49.6722 52.0877 49.7351 52.0334C49.798 51.9792 49.8808 51.9549 49.9637 51.9677C51.9494 52.2692 53.9351 52.5692 55.9222 52.8706C57.998 53.1849 60.0737 53.4992 62.148 53.8134C62.288 53.8349 62.3908 53.9549 62.3908 54.0963L62.3194 76.2692C62.3194 76.352 62.2837 76.4306 62.2208 76.4834C62.168 76.5292 62.1022 76.5534 62.0337 76.5534H62.0351ZM50.168 74.3134L61.7508 75.9406L61.8194 54.3406C59.8265 54.0377 57.8322 53.7363 55.838 53.4349C53.9608 53.1506 52.0837 52.8663 50.208 52.582C50.2008 56.1892 50.1951 59.7977 50.188 63.4063C50.1808 67.042 50.1751 70.6777 50.168 74.3134Z" fill="black"/>
<path id="Vector_5" d="M116.414 99.4171C116.117 100.478 115.591 102.277 114.029 103.995C112.911 105.22 111.711 105.918 110.917 106.298C104.3 109.363 101.4 110.647 94.7846 113.71C95.3831 113.415 96.0043 113.034 96.6273 112.54C96.9813 112.26 98.6533 110.885 99.7343 108.433C100.51 106.678 100.627 105.177 100.707 104.077C100.846 102.101 100.563 100.56 100.4 99.8314C100.076 98.3685 99.5833 97.2014 99.1643 96.3757C88.4031 74.2071 77.7417 52.2514 66.986 30.1057C66.6474 29.3714 66.1331 28.3843 65.3789 27.3014C64.5531 26.1214 63.2731 24.3285 60.9788 22.89C60.0346 22.2971 57.8503 20.9643 54.7631 20.8914C53.9789 20.8714 52.4131 20.85 50.6117 21.5543C57.576 18.2228 60.8246 16.6643 67.7917 13.3314C69.1546 13.0485 71.9046 12.6914 74.9217 13.8585C77.2331 14.7514 78.6931 16.15 79.5574 16.9928C81.2117 18.6085 82.1903 20.2685 82.7474 21.4071C93.5717 43.7185 104.396 66.0314 115.217 88.3428C115.839 89.7457 117.78 94.52 116.411 99.4143L116.414 99.4171Z" fill="#EBECEE"/>
<path id="Vector_6" d="M94.7862 113.995C94.679 113.995 94.5776 113.935 94.5276 113.832C94.4605 113.691 94.519 113.522 94.659 113.452C95.289 113.142 95.8923 112.759 96.4503 112.315C96.9043 111.955 98.4663 110.604 99.4743 108.315C100.242 106.581 100.352 105.061 100.424 104.055C100.523 102.656 100.419 101.216 100.124 99.8923C99.8633 98.7123 99.4563 97.5723 98.9133 96.5037C88.149 74.3309 77.4876 52.3752 66.7333 30.2294C66.2848 29.2566 65.7519 28.328 65.149 27.4637C64.3905 26.3809 63.1219 24.568 60.8319 23.1309C60.0119 22.6166 57.8348 21.248 54.7619 21.1752C54.0905 21.158 52.5176 21.1166 50.7205 21.8194C50.5776 21.8752 50.4162 21.808 50.3548 21.6666C50.2933 21.5252 50.3548 21.3609 50.4933 21.2952C53.6333 19.7937 56.0176 18.6509 58.3276 17.5452C61.1419 16.198 63.8476 14.9023 67.6733 13.0723C67.6948 13.0623 67.7162 13.0552 67.739 13.0509C69.489 12.6866 72.1733 12.4852 75.0305 13.5923C77.4433 14.5252 78.9519 15.998 79.7619 16.788C81.0948 18.0894 82.1862 19.6009 83.009 21.2809C93.8333 43.5937 104.657 65.9066 115.479 88.218C116.48 90.478 117.964 94.9352 116.692 99.4923C116.409 100.504 115.88 102.385 114.243 104.186C113.343 105.172 112.267 105.968 111.044 106.555C107.733 108.088 105.314 109.194 102.976 110.262C100.636 111.331 98.2173 112.436 94.9076 113.969C94.869 113.988 94.8276 113.996 94.7876 113.996L94.7862 113.995ZM54.2905 20.598C54.4819 20.598 54.6433 20.6023 54.7748 20.6052C58.0048 20.6823 60.279 22.1109 61.1348 22.648C63.5219 24.1452 64.8333 26.018 65.6162 27.1366C66.239 28.0294 66.7876 28.9866 67.249 29.9852C78.0019 52.1252 88.6633 74.0809 99.4243 96.2494C99.9863 97.3566 100.41 98.5423 100.682 99.768C100.989 101.145 101.096 102.642 100.994 104.095C100.919 105.141 100.804 106.721 99.9973 108.545C99.2563 110.226 98.2523 111.415 97.5163 112.132C99.4703 111.232 101.122 110.478 102.736 109.741C105.074 108.672 107.492 107.568 110.799 106.036C111.952 105.484 112.969 104.731 113.819 103.801C115.366 102.099 115.869 100.302 116.14 99.3366C117.366 94.9523 115.927 90.638 114.96 88.458C104.143 66.1552 93.319 43.8423 82.4948 21.5309C81.7019 19.9109 80.6476 18.4523 79.3619 17.1966C78.5805 16.4337 77.1262 15.0137 74.8233 14.1237C72.1148 13.0752 69.5633 13.2594 67.889 13.6023C64.079 15.4237 61.3819 16.7166 58.5748 18.0594C56.8962 18.8623 55.179 19.6852 53.1619 20.6509C53.599 20.6066 53.9833 20.5952 54.2919 20.5952L54.2905 20.598Z" fill="black"/>
<path id="Vector_7" d="M100.402 99.831C100.078 98.3682 99.5853 97.201 99.1663 96.3753C88.4051 74.2067 77.7436 52.251 66.9879 30.1053C66.6494 29.371 66.1351 28.3839 65.3808 27.301C64.5551 26.121 63.2751 24.3282 60.9808 22.8896C60.0365 22.2967 57.8522 20.9639 54.7651 20.891C53.9808 20.871 52.4151 20.8496 50.6136 21.5539C50.1779 21.7639 49.7436 21.9696 49.3079 22.1796C47.4008 23.2739 46.3351 24.7482 45.8694 25.4853C34.7508 45.1582 23.6308 64.8339 12.5122 84.511C11.9965 85.5282 11.2708 87.2825 11.1265 89.5625C10.9494 92.3525 11.7365 94.4282 12.1794 95.5567C12.6094 96.6539 13.8008 99.3253 16.3422 101.551C19.4565 104.278 23.0265 104.971 24.6694 105.269C31.1794 106.455 55.1079 110.244 87.7751 114.874C88.6736 114.974 90.0108 115.029 91.5765 114.735C92.2079 114.614 93.1922 114.417 94.3094 113.934C94.4451 113.872 94.5836 113.807 94.7194 113.745C94.7436 113.734 94.7636 113.725 94.7836 113.712C95.3822 113.418 96.0033 113.037 96.6263 112.542C96.9803 112.262 98.6523 110.888 99.7333 108.435C100.509 106.681 100.626 105.179 100.706 104.079C100.845 102.104 100.562 100.562 100.399 99.8339L100.402 99.831ZM62.1065 54.0953C62.0822 61.4882 62.0593 68.8767 62.0351 76.2682C57.9836 75.6996 53.9322 75.1296 49.8808 74.561C49.8951 67.1253 49.9079 59.6853 49.9222 52.2496C53.9822 52.8653 58.0451 53.4796 62.1065 54.0953ZM49.7994 95.8739C49.8665 91.661 49.9379 87.4467 50.0065 83.2339C54.0379 83.8567 58.0651 84.4753 62.0922 85.0939C62.1008 89.2982 62.1122 93.5039 62.1222 97.7082C58.0151 97.0982 53.9079 96.4839 49.7994 95.8739Z" fill="white"/>
<path id="Vector_8" d="M89.2207 115.238C88.7293 115.238 88.2378 115.211 87.745 115.155C55.5021 110.587 31.4221 106.788 24.6193 105.549C23.1907 105.291 19.3936 104.602 16.155 101.765C13.7093 99.6224 12.4478 97.021 11.9136 95.6596C11.5064 94.6181 10.6578 92.4524 10.8421 89.5424C10.9564 87.7453 11.4321 86.0081 12.2578 84.381C23.3836 64.6938 34.5021 45.0181 45.6207 25.3438C46.2478 24.3496 47.365 22.9638 49.165 21.931C49.1707 21.9281 49.1778 21.9238 49.1836 21.921L50.4893 21.2953C50.4893 21.2953 50.5021 21.2896 50.5093 21.2867C52.4136 20.5424 54.0664 20.5853 54.7721 20.6038C58.0021 20.681 60.2764 22.1096 61.1321 22.6467C63.5193 24.1438 64.8307 26.0167 65.6136 27.1353C66.2364 28.0281 66.785 28.9853 67.2464 29.9838C77.9993 52.1238 88.6607 74.0796 99.4223 96.2481C99.9833 97.3553 100.408 98.541 100.679 99.7667C100.986 101.144 101.093 102.641 100.992 104.094C100.916 105.139 100.802 106.719 99.9953 108.544C98.9623 110.885 97.4193 112.272 96.8033 112.759C96.2163 113.228 95.5807 113.631 94.9164 113.959C94.8993 113.969 94.8821 113.977 94.865 113.985L94.4278 114.187C93.2407 114.701 92.1921 114.901 91.6293 115.009C90.8364 115.159 90.0293 115.234 89.2193 115.234L89.2207 115.238ZM49.4421 22.4324C47.7493 23.4053 46.6978 24.7124 46.1121 25.6367C35.0007 45.2981 23.8807 64.9738 12.7621 84.6496C11.9778 86.1967 11.5221 87.8581 11.4121 89.5781C11.235 92.361 12.0521 94.4481 12.445 95.451C12.9593 96.7624 14.175 99.2724 16.5307 101.335C19.6507 104.068 23.2036 104.712 24.7207 104.987C31.5193 106.224 55.5893 110.021 87.8164 114.588C89.0578 114.727 90.3078 114.681 91.525 114.451C92.065 114.348 93.0721 114.154 94.1978 113.668L94.6207 113.472C94.6293 113.468 94.6378 113.465 94.645 113.459C94.6493 113.457 94.655 113.454 94.6593 113.452C95.2893 113.142 95.8923 112.759 96.4503 112.315C96.9053 111.955 98.4663 110.604 99.4753 108.315C100.242 106.581 100.352 105.061 100.425 104.055C100.523 102.657 100.419 101.217 100.125 99.8924C99.8633 98.7138 99.4563 97.5739 98.9133 96.5039C88.1493 74.331 77.4878 52.3753 66.7336 30.2296C66.285 29.2567 65.7521 28.3281 65.1493 27.4638C64.3907 26.381 63.1221 24.5681 60.8321 23.131C60.0121 22.6167 57.835 21.2481 54.7621 21.1753C54.0921 21.1581 52.525 21.1167 50.7307 21.8153L49.4436 22.431L49.4421 22.4324ZM62.1207 97.9939C62.1064 97.9939 62.0921 97.9938 62.0793 97.991C60.0336 97.6867 57.9864 97.3824 55.9407 97.0767C53.8793 96.7696 51.8193 96.4624 49.7578 96.1567C49.6164 96.1353 49.5121 96.0124 49.5136 95.8696C49.5478 93.7624 49.5821 91.6539 49.6164 89.5467C49.6507 87.441 49.685 85.3353 49.7193 83.2296C49.7193 83.1467 49.7578 83.0696 49.8207 83.0153C49.8836 82.9624 49.9664 82.9381 50.0478 82.951C54.0778 83.5724 58.1064 84.1924 62.1336 84.811C62.2721 84.8324 62.375 84.9524 62.3764 85.0924C62.3807 87.1953 62.3864 89.2967 62.3907 91.3996C62.3964 93.5024 62.4007 95.6038 62.405 97.7067C62.405 97.7896 62.3693 97.8696 62.3064 97.9239C62.2536 97.9696 62.1878 97.9939 62.1193 97.9939H62.1207ZM50.0878 95.6281C52.0664 95.9224 54.045 96.2167 56.0236 96.511C57.9607 96.7996 59.8978 97.0881 61.8336 97.3753C61.8293 95.3838 61.825 93.3924 61.8193 91.401C61.815 89.3796 61.8093 87.3596 61.805 85.3381C57.965 84.7481 54.1264 84.1581 50.2836 83.5653C50.2507 85.5624 50.2178 87.5581 50.185 89.5553C50.1521 91.5796 50.1178 93.6039 50.0864 95.6281H50.0878ZM62.035 76.5538C62.0221 76.5538 62.0078 76.5538 61.995 76.551L49.8407 74.8439C49.6993 74.8239 49.595 74.7024 49.595 74.561C49.6021 70.8424 49.6093 67.1239 49.615 63.4053C49.6221 59.6867 49.6278 55.9667 49.635 52.2496C49.635 52.1667 49.6721 52.0881 49.735 52.0339C49.7978 51.9796 49.8807 51.9553 49.9636 51.9681C51.9493 52.2696 53.935 52.5696 55.9221 52.871C57.9978 53.1853 60.0736 53.4996 62.1478 53.8139C62.2878 53.8353 62.3907 53.9553 62.3907 54.0967L62.3193 76.2696C62.3193 76.3524 62.2836 76.431 62.2207 76.4839C62.1678 76.5296 62.1021 76.5538 62.0336 76.5538H62.035ZM50.1678 74.3139L61.7507 75.941L61.8193 54.341C59.8264 54.0381 57.8321 53.7367 55.8378 53.4353C53.9607 53.151 52.0836 52.8667 50.2078 52.5824C50.2007 56.1896 50.195 59.7981 50.1878 63.4067C50.1807 67.0424 50.175 70.6781 50.1678 74.3139Z" fill="black"/>
<path id="Vector_9" d="M49.9221 52.2495C53.9821 52.8652 58.0449 53.4795 62.1064 54.0952C62.0821 61.4881 62.0592 68.8766 62.0349 76.2681C57.9835 75.6995 53.9321 75.1295 49.8807 74.5609C49.8949 67.1252 49.9078 59.6852 49.9221 52.2495Z" fill="white"/>
<path id="Vector_10" d="M62.0351 76.5534C62.0222 76.5534 62.008 76.5534 61.9951 76.5506L49.8408 74.8434C49.6994 74.8234 49.5951 74.702 49.5951 74.5606C49.6023 70.842 49.6094 67.1234 49.6151 63.4049C49.6222 59.6863 49.628 55.9663 49.6351 52.2492C49.6351 52.1663 49.6722 52.0877 49.7351 52.0334C49.798 51.9792 49.8808 51.9549 49.9637 51.9677C51.9494 52.2692 53.9351 52.5692 55.9222 52.8706C57.998 53.1849 60.0737 53.4992 62.148 53.8134C62.288 53.8349 62.3908 53.9549 62.3908 54.0963L62.3194 76.2692C62.3194 76.352 62.2837 76.4306 62.2208 76.4834C62.168 76.5292 62.1022 76.5534 62.0337 76.5534H62.0351ZM50.168 74.3134L61.7508 75.9406L61.8194 54.3406C59.8265 54.0377 57.8322 53.7363 55.838 53.4349C53.9608 53.1506 52.0837 52.8663 50.208 52.582C50.2008 56.1892 50.1951 59.7977 50.188 63.4063C50.1808 67.042 50.1751 70.6777 50.168 74.3134Z" fill="black"/>
<path id="Vector_11" d="M62.0921 85.0939C62.1006 89.2982 62.1121 93.5039 62.1221 97.7082C58.0149 97.0982 53.9078 96.4839 49.7992 95.8739C49.8664 91.661 49.9378 87.4467 50.0064 83.2339C54.0378 83.8567 58.0649 84.4753 62.0921 85.0939Z" fill="white"/>
<path id="Vector_12" d="M62.1207 97.994C62.1064 97.994 62.0922 97.994 62.0793 97.9911C60.0336 97.6868 57.9864 97.3826 55.9407 97.0768C53.8793 96.7697 51.8193 96.4626 49.7579 96.1568C49.6164 96.1354 49.5122 96.0126 49.5136 95.8697C49.5479 93.7626 49.5822 91.654 49.6164 89.5468C49.6507 87.4411 49.685 85.3354 49.7193 83.2297C49.7193 83.1468 49.7579 83.0697 49.8207 83.0154C49.8836 82.9626 49.9664 82.9383 50.0479 82.9511C54.0779 83.5726 58.1064 84.1926 62.1336 84.8111C62.2722 84.8326 62.375 84.9526 62.3764 85.0926C62.3807 87.1954 62.3864 89.2968 62.3907 91.3997C62.3964 93.5026 62.4007 95.604 62.405 97.7068C62.405 97.7897 62.3693 97.8697 62.3064 97.924C62.2536 97.9697 62.1879 97.994 62.1193 97.994H62.1207ZM50.0879 95.6283C52.0664 95.9226 54.045 96.2168 56.0236 96.5111C57.9607 96.7997 59.8979 97.0883 61.8336 97.3754C61.8293 95.384 61.825 93.3926 61.8193 91.4011C61.815 89.3797 61.8093 87.3597 61.805 85.3383C57.965 84.7483 54.1264 84.1583 50.2836 83.5654C50.2507 85.5626 50.2179 87.5583 50.185 89.5554C50.1521 91.5797 50.1179 93.604 50.0864 95.6283H50.0879Z" fill="black"/>
<path id="Vector_13" d="M37.4595 93.1049L37.6283 96.1385L28.8895 101.67L28.2987 91.0542L37.0522 93.3618L37.4595 93.1049Z" fill="#FF7E88" stroke="black" stroke-width="0.2"/>
<path id="Vector_14" d="M28.9012 101.883C28.8639 101.885 28.826 101.878 28.7918 101.859C28.7246 101.824 28.6802 101.757 28.676 101.682L28.0852 91.066C28.0814 90.9977 28.1109 90.9319 28.1631 90.8883C28.2163 90.8447 28.2871 90.83 28.3523 90.8478L37.0148 93.1327L37.3434 92.925C37.4075 92.885 37.4886 92.8805 37.5558 92.9153C37.6231 92.9501 37.6675 93.0183 37.6717 93.093L37.8405 96.1266C37.8448 96.2044 37.8071 96.2771 37.741 96.3193L29.0021 101.851C28.9712 101.871 28.9354 101.881 28.9001 101.883L28.9012 101.883ZM28.5282 91.3355L29.0825 101.296L37.4079 96.0254L37.2663 93.4804L37.166 93.5436C37.1153 93.5754 37.0549 93.5852 36.9973 93.5692L28.5282 91.3355Z" fill="black" stroke="black" stroke-width="0.2"/>
<path id="Vector_15" d="M46.3804 98.4469L39.5526 102.77L39.0369 103.097L30.8149 108.301L37.6426 103.978L28.889 101.67L37.6279 96.1382L46.3804 98.4469Z" fill="#FF7E88" stroke="black" stroke-width="0.2"/>
<path id="Vector_16" d="M30.827 108.515C30.7523 108.519 30.6776 108.484 30.6341 108.415C30.571 108.317 30.6009 108.184 30.7002 108.121L30.7116 108.114L37.1144 104.059L28.8354 101.875C28.7528 101.853 28.6912 101.785 28.6791 101.701C28.6659 101.617 28.704 101.534 28.7763 101.488L37.5152 95.9567C37.5659 95.925 37.6264 95.9152 37.6839 95.9302L46.4365 98.2405C46.519 98.262 46.5806 98.3306 46.5928 98.4141C46.606 98.4985 46.5679 98.5817 46.4955 98.6268L39.152 103.277L30.93 108.481C30.898 108.502 30.8632 108.512 30.828 108.514L30.827 108.515ZM29.4175 101.588L37.6087 103.75L45.8523 98.5294L37.6634 96.369L29.4175 101.588Z" fill="black" stroke="black" stroke-width="0.2"/>
<path id="Vector_17" d="M45.7897 87.8306L37.4592 93.1049L37.0519 93.3618L19.9071 74.8766L20.424 74.5515L28.6459 69.3453L45.7897 87.8306Z" fill="#FF7E88" stroke="black" stroke-width="0.2"/>
<path id="Vector_18" d="M37.0639 93.5753C37.002 93.5787 36.9397 93.5554 36.8954 93.5076L19.7517 75.0224C19.7084 74.9755 19.6878 74.9124 19.6961 74.8489C19.7043 74.7863 19.7397 74.7298 19.7945 74.6958L20.3103 74.3706L28.5323 69.1645C28.6191 69.1094 28.7334 69.1245 28.8028 69.1997L45.9466 87.6851C45.9898 87.7319 46.0104 87.7949 46.0021 87.8575C45.9938 87.9199 45.9585 87.9765 45.9047 88.0105L37.1658 93.5419C37.1338 93.5618 37.0991 93.5723 37.0639 93.5743L37.0639 93.5753ZM20.2393 74.9203L37.0871 93.0872L37.3444 92.9242L45.4579 87.7882L28.6091 69.6215L20.2382 74.9204L20.2393 74.9203Z" fill="black" stroke="black" stroke-width="0.2"/>
<path id="Vector_19" d="M28.8893 101.67L37.6429 103.978L30.8151 108.301L30.8142 108.302L30.2984 108.629L22.0753 113.834L4.93266 95.3483L13.6842 97.6582L13.0933 87.0416L4.34184 84.7316L11.1685 80.4089L11.6853 80.0827L13.0796 79.2005L19.9063 74.8777L19.9073 74.8765L37.052 93.3618L28.2985 91.0542L28.8893 101.67Z" fill="#FF444F" stroke="black" stroke-width="0.2"/>
<path id="Vector_20" d="M22.0874 114.047C22.0255 114.051 21.9632 114.027 21.9188 113.979L4.77623 95.4942C4.71133 95.424 4.70024 95.3207 4.74919 95.2389C4.79812 95.1569 4.89436 95.1173 4.98669 95.1421L13.4547 97.3768L12.8889 87.2094L4.28722 84.9382C4.20466 84.916 4.14309 84.8478 4.13093 84.7639C4.11772 84.6801 4.15587 84.5967 4.22821 84.5509L19.7896 74.6992C19.8236 74.677 19.8646 74.663 19.9063 74.6639C19.9663 74.6637 20.0243 74.6873 20.0654 74.732L37.209 93.2173C37.2739 93.2876 37.285 93.3908 37.236 93.4726C37.1871 93.5546 37.0908 93.5942 36.9985 93.5694L28.5294 91.3357L29.0953 101.503L37.6979 103.773C37.7805 103.795 37.8421 103.864 37.8543 103.947C37.8675 104.032 37.8294 104.115 37.757 104.16L30.9386 108.478C30.9386 108.478 30.9325 108.482 30.9283 108.484L22.1894 114.015C22.1574 114.036 22.1226 114.046 22.0875 114.048L22.0874 114.047ZM5.58937 95.7432L22.1115 113.559L30.6903 108.129C30.6903 108.129 30.6964 108.124 30.7005 108.121L37.1138 104.062L28.8347 101.877C28.7457 101.853 28.6814 101.775 28.6763 101.683L28.0855 91.0672C28.0817 90.9989 28.1112 90.9331 28.1634 90.8895C28.2165 90.846 28.2874 90.8314 28.3526 90.8491L36.3937 92.9695L19.8716 75.1537L4.86936 84.6511L13.1475 86.8365C13.2365 86.8604 13.3008 86.9393 13.3059 87.0309L13.8967 97.6465C13.9005 97.7148 13.871 97.7806 13.8188 97.8242C13.7657 97.8678 13.6958 97.8824 13.6296 97.8647L5.58937 95.7432Z" fill="black" stroke="black" stroke-width="0.2"/>
<path id="Vector_21" d="M13.2619 90.0748L13.6839 97.6578L4.93236 95.3479L13.2619 90.0748Z" fill="#FF7E88" stroke="black" stroke-width="0.2"/>
<path id="Vector_22" d="M13.6961 97.8716C13.6737 97.8728 13.6511 97.8709 13.6293 97.8646L4.87784 95.5547C4.7953 95.5325 4.73372 95.4642 4.72156 95.3804C4.70834 95.2966 4.74649 95.2131 4.81885 95.1675L13.1484 89.8954C13.2125 89.8543 13.2925 89.851 13.3608 89.8857C13.428 89.9205 13.4725 89.9886 13.4766 90.0633L13.8986 97.6452C13.9024 97.7135 13.8729 97.7793 13.8207 97.8229C13.7849 97.8516 13.7419 97.8679 13.6971 97.8704L13.6961 97.8716ZM5.461 95.2665L13.4545 97.3757L13.0691 90.4508L5.461 95.2665Z" fill="black" stroke="black" stroke-width="0.2"/>
</g>
</svg>
