<svg width="128" height="128" viewBox="0 0 128 128" fill="none" xmlns="http://www.w3.org/2000/svg">
<g id="illustration / deriv / light / ic-cashier-blocked">
<g id="Group">
<path id="Vector" fill-rule="evenodd" clip-rule="evenodd" d="M115 23V105C115 110.522 110.522 115 105 115H23C17.477 115 13 110.523 13 105V23C13 17.477 17.477 13 23 13H105C110.523 13 115 17.477 115 23Z" fill="#E0F0F0"/>
<path id="Vector_2" fill-rule="evenodd" clip-rule="evenodd" d="M63.825 22.895C77.547 22.895 88.671 34.028 88.671 47.761C88.671 61.494 77.547 72.626 63.825 72.626C50.103 72.626 38.98 61.495 38.98 47.761C38.98 34.027 50.103 22.894 63.825 22.894" fill="white"/>
<path id="Vector_3" fill-rule="evenodd" clip-rule="evenodd" d="M63.9128 29.2729C69.1198 29.2729 73.3428 33.4989 73.3428 38.7109C73.3428 43.9229 69.1198 48.1489 63.9128 48.1489C58.7048 48.1489 54.4828 43.9229 54.4828 38.7109C54.4828 33.4989 58.7048 29.2729 63.9128 29.2729ZM56.3158 48.5369C56.3158 48.5369 58.3918 51.2269 63.9128 51.2269C69.4328 51.2269 71.2078 48.5369 71.2078 48.5369C71.2078 48.5369 79.6578 51.7899 79.6578 60.6649C79.6578 60.6649 75.2818 67.1119 64.1348 67.1119C52.9888 67.1119 47.9248 60.6649 47.9248 60.6649C47.9248 60.6649 48.2348 51.0999 56.3158 48.5369Z" fill="#84ABAE"/>
<path id="Vector_4" fill-rule="evenodd" clip-rule="evenodd" d="M103.384 112.383C103.137 112.383 102.897 112.297 102.704 112.14L96.644 107.178C96.5278 107.091 96.4304 106.982 96.3577 106.856C96.2849 106.731 96.2384 106.592 96.2208 106.448C96.2032 106.304 96.215 106.158 96.2554 106.019C96.2959 105.88 96.3641 105.75 96.456 105.638C96.548 105.526 96.6617 105.433 96.7903 105.366C96.9189 105.299 97.0597 105.259 97.2043 105.248C97.3489 105.237 97.4942 105.256 97.6315 105.302C97.7688 105.349 97.8952 105.423 98.003 105.52L103.231 109.8L112.678 98.19C112.767 98.0808 112.876 97.9902 113 97.9233C113.124 97.8564 113.26 97.8146 113.4 97.8002C113.54 97.7858 113.681 97.7991 113.816 97.8394C113.951 97.8797 114.077 97.9462 114.186 98.035C114.295 98.1238 114.386 98.2333 114.453 98.3572C114.52 98.481 114.561 98.6169 114.576 98.7569C114.59 98.8969 114.577 99.0384 114.537 99.1733C114.496 99.3082 114.43 99.4338 114.341 99.543L104.215 111.987C104.115 112.111 103.988 112.21 103.844 112.279C103.7 112.347 103.543 112.383 103.384 112.383Z" fill="white"/>
<path id="Vector_5" fill-rule="evenodd" clip-rule="evenodd" d="M75 98.5H37C36.606 98.5 36.2159 98.4224 35.8519 98.2716C35.488 98.1209 35.1573 97.8999 34.8787 97.6213C34.6001 97.3427 34.3791 97.012 34.2284 96.648C34.0776 96.2841 34 95.894 34 95.5C34 95.106 34.0776 94.7159 34.2284 94.352C34.3791 93.988 34.6001 93.6573 34.8787 93.3787C35.1573 93.1001 35.488 92.8791 35.8519 92.7284C36.2159 92.5776 36.606 92.5 37 92.5H75C75.394 92.5 75.7841 92.5776 76.148 92.7284C76.512 92.8791 76.8427 93.1001 77.1213 93.3787C77.3999 93.6573 77.6209 93.988 77.7716 94.352C77.9224 94.7159 78 95.106 78 95.5C78 95.894 77.9224 96.2841 77.7716 96.648C77.6209 97.012 77.3999 97.3427 77.1213 97.6213C76.8427 97.8999 76.512 98.1209 76.148 98.2716C75.7841 98.4224 75.394 98.5 75 98.5ZM81 86H37C36.2044 86 35.4413 85.6839 34.8787 85.1213C34.3161 84.5587 34 83.7956 34 83C34 82.2044 34.3161 81.4413 34.8787 80.8787C35.4413 80.3161 36.2044 80 37 80H81C81.7957 80 82.5587 80.3161 83.1213 80.8787C83.6839 81.4413 84 82.2044 84 83C84 83.7956 83.6839 84.5587 83.1213 85.1213C82.5587 85.6839 81.7957 86 81 86Z" fill="#C6E4E4"/>
<path id="Vector_6" fill-rule="evenodd" clip-rule="evenodd" d="M128 105C128 92.298 117.702 82 105 82C92.298 82 82 92.298 82 105C82 117.702 92.298 128 105 128C117.702 128 128 117.702 128 105Z" fill="#FF444F"/>
<path id="Vector_7" fill-rule="evenodd" clip-rule="evenodd" d="M104.204 106.415L103 99.09V94.086C103.053 94.004 103.728 93.012 104.974 93C106.253 92.985 106.953 94.014 107 94.086V99.09L105.82 106.415C105.765 106.575 105.665 106.715 105.532 106.818C105.399 106.922 105.238 106.984 105.07 106.998C104.882 107.008 104.696 106.956 104.54 106.851C104.384 106.746 104.266 106.593 104.204 106.415ZM103 113.273V112.727C103 111.749 103.585 111 104.999 111C106.415 111 107 111.749 107 112.727V113.273C107 114.249 106.415 115 104.999 115C103.585 115 103 114.25 103 113.273Z" fill="white"/>
</g>
</g>
</svg>
