<svg width="128" height="128" viewBox="0 0 128 128" fill="none" xmlns="http://www.w3.org/2000/svg">
<g id="illustration / deriv / light / ic-mt5-password-updated">
<path id="Vector" d="M64.2495 78.4603C77.6038 78.4603 88.4287 67.634 88.4287 54.2811C88.4287 40.9255 77.6038 30.1006 64.2495 30.1006C50.8953 30.1006 40.0703 40.9255 40.0703 54.2798C40.0703 67.634 50.8953 78.4603 64.2495 78.4603Z" fill="#C7E5E5"/>
<path id="Vector_2" d="M64.2498 49.5104C65.5892 49.5104 66.8738 48.9783 67.8209 48.0312C68.768 47.0841 69.3 45.7996 69.3 44.4602C69.3 43.1207 68.768 41.8362 67.8209 40.8891C66.8738 39.942 65.5892 39.4099 64.2498 39.4099C62.9106 39.4099 61.6262 39.9419 60.6792 40.8889C59.7322 41.8359 59.2002 43.1203 59.2002 44.4595C59.2002 45.7988 59.7322 47.0831 60.6792 48.0301C61.6262 48.9771 62.9106 49.5104 64.2498 49.5104Z" fill="white"/>
<path id="Vector_3" d="M52.7295 75.5493V84.5093H58.0505V91.4802L53.2197 93.3605V95.3893L55.0194 97.3605V99.0796L53.7305 100.37V103.15L58.0505 105.899V114.46L64.4197 120.84L71.6505 113.6V77.3093L52.7295 75.5493Z" fill="#C7E5E5"/>
<path id="Vector_4" d="M65.4399 84.0295H68.0511V112.611H65.4399V84.0295Z" fill="#E0F4F3"/>
<path id="Vector_5" d="M60.3902 4C57.713 3.99866 55.0618 4.52481 52.5879 5.54841C50.1141 6.57201 47.8662 8.07299 45.9727 9.96559C44.0791 11.8582 42.577 14.1053 41.5522 16.5786C40.5273 19.052 39.9998 21.7029 39.9998 24.3802C39.9848 27.0215 40.4911 29.6399 41.4899 32.0853C42.4886 34.5306 43.9601 36.7548 45.82 38.6304C46.5899 37.7651 47.4078 36.9438 48.2699 36.1702C46.7269 34.6325 45.51 32.7993 44.692 30.7803C43.8741 28.7612 43.4719 26.5979 43.5096 24.4198C43.4997 21.0769 44.4826 17.8064 46.3337 15.0227C48.1848 12.2391 50.8206 10.0677 53.9072 8.78387C56.9938 7.50003 60.392 7.16154 63.6712 7.81129C66.9504 8.46104 69.9628 10.0698 72.3266 12.4336C74.6904 14.7974 76.2991 17.8098 76.9489 21.089C77.5986 24.3681 77.2601 27.7664 75.9763 30.853C74.6925 33.9395 72.5211 36.5754 69.7374 38.4265C66.9538 40.2775 63.6832 41.2604 60.3403 41.2506C59.5172 42.2039 59.1037 43.4436 59.1896 44.7002C59.5902 44.7002 59.9806 44.7706 60.3902 44.7706C71.4738 44.5248 80.3288 35.4701 80.3288 24.3853C80.3288 13.3005 71.475 4.24448 60.3902 4Z" fill="#BCCDCE"/>
<path id="Vector_6" d="M85.0101 126.001C97.7179 126.001 108.021 115.703 108.021 102.999C108.021 90.2976 97.7179 80 85.0101 80C72.3022 80 61.9995 90.2976 61.9995 103C61.9995 115.703 72.3022 126.001 85.0101 126.001Z" fill="#84ABAE"/>
<path id="Vector_7" d="M83.3995 110.38C83.1523 110.379 82.9126 110.295 82.7198 110.14L76.6603 105.141C76.4436 104.958 76.3066 104.698 76.2784 104.416C76.2502 104.134 76.333 103.852 76.5092 103.63C76.5985 103.521 76.7085 103.431 76.8327 103.364C76.957 103.298 77.0931 103.256 77.2334 103.242C77.3737 103.228 77.5153 103.242 77.6502 103.283C77.7851 103.324 77.9107 103.391 78.0196 103.48L83.2497 107.761L92.7 96.1511C92.7869 96.0373 92.8959 95.9422 93.0203 95.8713C93.1447 95.8004 93.2821 95.7552 93.4243 95.7384C93.5665 95.7215 93.7106 95.7334 93.8481 95.7733C93.9857 95.8132 94.1138 95.8803 94.2249 95.9706C94.336 96.0609 94.4279 96.1726 94.4951 96.2991C94.5623 96.4255 94.6034 96.5642 94.616 96.7068C94.6286 96.8495 94.6124 96.9932 94.5685 97.1295C94.5245 97.2657 94.4537 97.3918 94.3601 97.5002L84.2404 110.001C84.0584 110.222 83.796 110.362 83.5108 110.39L83.3995 110.38Z" fill="white"/>
</g>
</svg>
