<svg width="128" height="128" viewBox="0 0 128 128" fill="none" xmlns="http://www.w3.org/2000/svg">
<g id="illustration / deriv / light / cashier-no-balance">
<g id="Group">
<path id="Vector" fill-rule="evenodd" clip-rule="evenodd" d="M16.0397 98.3251H98.4297C103.941 98.2981 108.403 93.8361 108.43 88.3251V21.9651C108.43 16.4421 103.953 11.9651 98.4297 11.9651H16.0397C10.5167 11.9651 6.03968 16.4421 6.03968 21.9651V88.2751C6.03309 89.5925 6.28688 90.8982 6.78648 92.1173C7.28608 93.3363 8.02163 94.4446 8.95087 95.3785C9.88011 96.3124 10.9847 97.0535 12.2013 97.5591C13.4178 98.0648 14.7222 98.3251 16.0397 98.3251Z" fill="#C7E5E5"/>
<path id="Vector_2" fill-rule="evenodd" clip-rule="evenodd" d="M111.33 42.1851H96.0195C89.6695 42.1851 84.5195 46.7951 84.5195 52.4851V55.4851C84.5195 61.1751 89.6695 65.7851 96.0195 65.7851H111.33C112.624 65.8536 113.894 65.4092 114.864 64.5482C115.833 63.6872 116.425 62.4789 116.51 61.1851V46.8151C116.435 45.5149 115.847 44.2974 114.876 43.4295C113.905 42.5616 112.63 42.1141 111.33 42.1851Z" fill="#84ABAE"/>
<path id="Vector_3" fill-rule="evenodd" clip-rule="evenodd" d="M101.76 53.9951C101.762 55.0834 101.441 56.1477 100.838 57.0535C100.235 57.9593 99.3763 58.6658 98.3715 59.0836C97.3666 59.5014 96.2605 59.6118 95.1929 59.4007C94.1254 59.1896 93.1444 58.6665 92.3742 57.8978C91.604 57.129 91.0792 56.149 90.8662 55.0818C90.6532 54.0146 90.7615 52.9083 91.1775 51.9027C91.5935 50.8971 92.2984 50.0375 93.2031 49.4328C94.1078 48.828 95.1715 48.5051 96.2598 48.5051C96.9816 48.5038 97.6965 48.6449 98.3638 48.9202C99.031 49.1955 99.6374 49.5997 100.148 50.1096C100.659 50.6195 101.064 51.2252 101.341 51.8919C101.617 52.5586 101.76 53.2733 101.76 53.9951Z" fill="#C7E5E5"/>
<path id="Vector_4" d="M99.5597 116.035C111.931 116.035 121.96 106.006 121.96 93.6351C121.96 81.2639 111.931 71.2351 99.5597 71.2351C87.1885 71.2351 77.1597 81.2639 77.1597 93.6351C77.1597 106.006 87.1885 116.035 99.5597 116.035Z" fill="#FF444F"/>
<path id="Vector_5" d="M97.2998 101.995V101.385C97.2998 100.295 97.9598 99.455 99.5598 99.455C101.16 99.455 101.81 100.295 101.81 101.385V101.995C101.81 103.085 101.15 103.915 99.5598 103.915C97.9698 103.915 97.2998 103.085 97.2998 101.995ZM98.7998 95.5051L97.5998 88.3051V83.385C97.8155 83.0507 98.1116 82.7757 98.461 82.5853C98.8104 82.3949 99.2019 82.2952 99.5998 82.2952C99.9977 82.2952 100.389 82.3949 100.739 82.5853C101.088 82.7757 101.384 83.0507 101.6 83.385V88.3051L100.43 95.5051C100.373 95.6709 100.266 95.815 100.124 95.917C99.981 96.019 99.8101 96.0738 99.6348 96.0738C99.4595 96.0738 99.2886 96.019 99.1461 95.917C99.0035 95.815 98.8964 95.6709 98.8398 95.5051H98.7998Z" fill="white"/>
</g>
</g>
</svg>
