<svg width="32" height="32" viewBox="0 0 32 32" fill="none" xmlns="http://www.w3.org/2000/svg">
<g id="illustration / deriv / light / ic-typo-email-passkey" clip-path="url(#clip0_1123_306)">
<path id="Vector" fill-rule="evenodd" clip-rule="evenodd" d="M2.5 16C2.32446 16.0002 2.15424 16.0929 2.06295 16.2572C1.92884 16.4987 2.01581 16.803 2.2572 16.9371L10.8376 21.7036C9.96036 22.3463 8.97911 23.0691 7.90535 23.8632L7.75419 23.975C6.09093 25.2055 4.31821 26.5238 2.55164 27.8421C1.99433 28.258 1.47352 28.6471 0.999796 29.0014L1 15.2059L2.5 13.7146V16ZM3.5 16.4836L11.7268 21.0538C13.0979 20.0542 14.1531 19.298 14.8348 18.8296C15.554 18.3913 16.446 18.3913 17.1884 18.8446C17.8569 19.3044 18.9057 20.0564 20.2733 21.0537L28.5 16.4836L28.5001 12.5142V12.5003L28.5002 1.57916C28.4959 1.42086 28.4287 1.27079 28.3135 1.16218C28.1982 1.05356 28.0444 0.995378 27.87 1.00076L4.11384 1.0005C3.95556 0.995378 3.80176 1.05356 3.68652 1.16218C3.57126 1.27079 3.50407 1.42086 3.5 1.56572V12.507V16.4836ZM29.5 16C29.6756 16.0002 29.8458 16.0929 29.9371 16.2572C30.0712 16.4987 29.9842 16.803 29.7428 16.9371L21.1624 21.7036C22.039 22.3459 23.0205 23.0689 24.0947 23.8632L24.2458 23.975C25.9091 25.2055 27.6818 26.5238 29.4484 27.8421C30.0056 28.258 30.5263 28.647 31 29.0012V15.2059L29.5 13.7146V16ZM31 30.2502L30.5549 29.9171C30.0412 29.5328 29.4682 29.1046 28.8503 28.6435C27.0847 27.326 25.3131 26.0084 23.651 24.7788L23.5 24.6671C20.2226 22.2433 17.8068 20.4837 16.6448 19.6835C16.2452 19.4399 15.7548 19.4399 15.3784 19.6684C14.1932 20.4837 11.7774 22.2433 8.49999 24.6671L8.34896 24.7788C6.68694 26.0084 4.91528 27.326 3.14973 28.6435C2.53178 29.1046 1.95874 29.5328 1.44507 29.9171L0.999778 30.2504V30.2648C1.01081 30.6566 1.2826 30.9489 1.605 30.9387L30.4103 30.9389C30.7174 30.9489 30.9892 30.6566 31 30.2806V30.2502ZM0 30.0004V30.2806C0.0272713 31.2572 0.743592 32.0275 1.62031 31.999L30.395 31.9993C31.2564 32.0275 31.9727 31.2572 32 30.2964V15.0303L31.9999 15.0184L31.9996 15.011C32.0045 14.8735 31.9545 14.7344 31.85 14.6305L29.5 12.2941V1.56572C29.4884 1.12794 29.3083 0.725641 28.9994 0.434486C28.6904 0.143331 28.2781 -0.0126566 27.8539 0.00106542L4.13 0.000804142C3.72186 -0.0126566 3.30959 0.143331 3.00065 0.434486C2.69171 0.725641 2.51159 1.12794 2.5 1.55229V12.2941L0.150036 14.6305C0.0454895 14.7344 -0.0045366 14.8735 0.000322703 15.011C0.000108178 15.0174 0 15.0238 0 15.0303V30.0004ZM23 9.75004C23 13.75 19.8703 17 16 17C12.1297 17 9 13.75 9 9.75004C9 5.75007 12.1297 2.5 16 2.5C19.8703 2.5 23 5.75007 23 9.75004ZM10 9.75004C10 13.206 12.6906 16 16 16C19.3094 16 22 13.206 22 9.75004C22 6.29409 19.3094 3.5 16 3.5C12.6906 3.5 10 6.29409 10 9.75004ZM15.6 11.225L15 7.825V5.5C15.2371 5.18647 15.6069 5.00156 16 5C16.3922 5.00532 16.7604 5.18946 17 5.5V7.82L16.41 11.22C16.3492 11.376 16.2023 11.4818 16.035 11.49C15.8476 11.5063 15.6715 11.3989 15.6 11.225ZM15 13.635V13.365C15 12.865 15.29 12.5 16 12.5C16.71 12.5 17 12.875 17 13.365V13.635C17 14.135 16.71 14.5 16 14.5C15.29 14.5 15 14.125 15 13.635Z" fill="url(#paint0_linear_1123_306)"/>
</g>
<defs>
<linearGradient id="paint0_linear_1123_306" x1="16" y1="48" x2="48" y2="16" gradientUnits="userSpaceOnUse">
<stop stop-color="#FF444F"/>
<stop offset="1" stop-color="#FF6444"/>
</linearGradient>
<clipPath id="clip0_1123_306">
<rect width="32" height="32" fill="white"/>
</clipPath>
</defs>
</svg>
