<svg width="96" height="96" viewBox="0 0 96 96" fill="none" xmlns="http://www.w3.org/2000/svg">
<g id="illustration / deriv / dark / release-fund" clip-path="url(#clip0_3040_318)">
<g id="Clip path group">
<mask id="mask0_3040_318" style="mask-type:luminance" maskUnits="userSpaceOnUse" x="0" y="0" width="96" height="96">
<g id="clip0_4152_38864">
<path id="Vector" d="M96 0H0V96H96V0Z" fill="white"/>
</g>
</mask>
<g mask="url(#mask0_3040_318)">
<g id="Group">
<path id="Vector_2" d="M72.14 0H0V46H72.14V0Z" fill="#9498A2"/>
<path id="Vector_3" d="M84.0702 10.5H11.9302V56.5H84.0702V10.5Z" fill="#CED0D6"/>
<path id="Vector_4" d="M95.9999 21H23.8599V67H95.9999V21Z" fill="#EBECEF"/>
<path id="Vector_5" d="M67.9899 48.3003C67.9899 44.8103 66.1499 42.8403 61.2599 41.4703C57.7599 40.4803 56.9799 39.8403 56.9799 38.4103C56.9799 37.4003 57.5799 36.1603 59.6799 36.1603C62.1799 36.1603 62.6099 37.6303 62.8399 38.5403H67.4899C67.2499 35.9903 65.7999 33.4703 61.7299 32.8603V30.7603H57.8399V32.8903C54.7299 33.4803 52.2999 35.5403 52.2999 38.8603C52.2999 41.9403 53.9099 43.9803 59.4399 45.5703C62.4799 46.4403 63.3299 47.2203 63.3299 48.8303C63.3299 50.1403 62.5599 51.3003 60.1399 51.3003C58.1799 51.3003 56.8799 50.2303 56.4999 48.5503H51.8599C52.1099 51.7103 54.2899 54.0202 58.0699 54.6003V57.2303H61.9899V54.5902C65.5799 54.0502 67.9899 51.9903 67.9899 48.2903V48.3003Z" fill="#B1B4BC"/>
<path id="Vector_6" d="M75.77 96C86.8157 96 95.77 87.0456 95.77 76C95.77 64.9543 86.8157 56 75.77 56C64.7243 56 55.77 64.9543 55.77 76C55.77 87.0456 64.7243 96 75.77 96Z" fill="#FF444F"/>
<path id="Vector_7" d="M79.4646 74.3L74.3667 69.202L76.7709 66.7979L85.9729 76L76.7709 85.202L74.3667 82.7979L79.4646 77.7H65.5679V74.3H79.4646Z" fill="white"/>
</g>
</g>
</g>
</g>
<defs>
<clipPath id="clip0_3040_318">
<rect width="96" height="96" fill="white"/>
</clipPath>
</defs>
</svg>
