<svg width="120" height="152" viewBox="0 0 120 152" fill="none" xmlns="http://www.w3.org/2000/svg">
<g id="illustration / deriv / light / trade-wisely">
<g id="Sec&#38;Res-illustration-04">
<g id="Layer 107 copy">
<g id="Group">
<g id="Group_2">
<path id="Vector" d="M90.5736 23.4314C85.7836 29.2171 80.9936 35.0028 76.2036 40.79C63.8864 43.9457 51.5679 47.1014 39.2507 50.2571C44.0336 44.4871 48.8179 38.7171 53.6007 32.9485C65.925 29.7771 78.2493 26.6043 90.5736 23.4328V23.4314Z" fill="#EBECEE"/>
<path id="Vector_2" d="M39.2507 50.5429C39.155 50.5429 39.0622 50.4943 39.0093 50.4101C38.9436 50.3058 38.9522 50.1701 39.0307 50.0743L53.3807 32.7658C53.4193 32.7201 53.4707 32.6858 53.5293 32.6715L90.5022 23.1558C90.6222 23.1243 90.7479 23.1743 90.815 23.2801C90.8807 23.3843 90.8736 23.5201 90.7936 23.6158C86.0036 29.4015 81.2136 35.1872 76.4236 40.9743C76.385 41.0215 76.3322 41.0543 76.275 41.0686L39.3222 50.5358C39.2979 50.5415 39.275 50.5443 39.2507 50.5443V50.5429ZM53.7622 33.2015L40.0322 49.7615L76.0422 40.5358C80.6264 34.9986 85.2093 29.4629 89.7922 23.9272L53.7622 33.2001V33.2015Z" fill="black"/>
</g>
<g id="Group_3">
<path id="Vector_3" d="M114.977 63.8402C110.162 69.6174 105.348 75.396 100.534 81.1731C92.4238 67.7131 84.3138 54.2517 76.2024 40.7917C80.9938 35.0045 85.7824 29.2188 90.5724 23.4331C98.7067 36.9017 106.841 50.3717 114.975 63.8402H114.977Z" fill="#EBECEE"/>
<path id="Vector_4" d="M100.534 81.4573C100.527 81.4573 100.52 81.4573 100.512 81.4573C100.42 81.4502 100.337 81.3987 100.29 81.3202L75.9581 40.9387C75.8953 40.8344 75.9053 40.703 75.9824 40.6087C80.7738 34.8216 85.5624 29.0359 90.3524 23.2502C90.411 23.1787 90.501 23.1416 90.5938 23.1473C90.6867 23.1544 90.7696 23.2059 90.8167 23.2844L115.22 63.6916C115.282 63.7959 115.272 63.9287 115.194 64.0216L100.751 81.3544C100.697 81.4202 100.615 81.4573 100.531 81.4573H100.534ZM76.5524 40.8159L100.571 80.6802L114.627 63.813L90.5367 23.9244C85.8753 29.5544 81.2138 35.1844 76.5524 40.8173V40.8159Z" fill="black"/>
</g>
<g id="Group_4">
<path id="Vector_5" d="M94.294 78.0001C90.8854 91.5058 87.4783 105.01 84.0697 118.514C79.2426 124.337 74.414 130.16 69.5854 135.983C74.8326 115.137 80.0797 94.2915 85.3269 73.4458C88.314 74.9644 91.3026 76.4829 94.2926 78.0015L94.294 78.0001Z" fill="#CED0D6"/>
<path id="Vector_6" d="M69.5868 136.269C69.5425 136.269 69.4982 136.259 69.4582 136.237C69.3397 136.177 69.2782 136.041 69.3097 135.913C74.5568 115.067 79.804 94.2215 85.0511 73.3758C85.0725 73.2915 85.1311 73.2215 85.2097 73.1858C85.2882 73.15 85.3797 73.1515 85.4568 73.1915C88.444 74.71 91.4325 76.2286 94.4225 77.7472C94.4911 77.7815 94.5425 77.8429 94.5654 77.9158C94.5811 77.9672 94.5825 78.0215 94.5697 78.0729L84.3454 118.586C84.3354 118.627 84.3154 118.666 84.2882 118.699L69.804 136.167C69.7482 136.234 69.6668 136.27 69.584 136.27L69.5868 136.269ZM85.5182 73.8615C80.4025 94.1858 75.2868 114.506 70.1711 134.83L83.8097 118.381L93.9625 78.1515C91.1468 76.7215 88.3325 75.2915 85.5182 73.8615Z" fill="black"/>
</g>
<g id="Group_5">
<path id="Vector_7" d="M50.7196 73.5687C48.9053 80.8573 47.0925 88.1459 45.2782 95.4344L14.561 79.963C19.3767 74.1916 24.1953 68.4216 29.011 62.6501C36.2482 66.2887 43.4839 69.9287 50.7196 73.5687Z" fill="#EBECEE"/>
<path id="Vector_8" d="M45.2783 95.7201C45.234 95.7201 45.1897 95.7101 45.1497 95.6901L14.4326 80.2187C14.3554 80.1801 14.2983 80.1073 14.2812 80.0216C14.264 79.9358 14.2854 79.8473 14.3412 79.7801L21.3597 71.3701C23.8369 68.4016 26.314 65.4344 28.7912 62.4658C28.8754 62.3644 29.0197 62.3344 29.1383 62.393C34.0154 64.8458 38.8926 67.2987 43.7697 69.7516L50.8469 73.3116C50.9654 73.3716 51.0283 73.5058 50.9954 73.6358C49.4697 79.763 47.9454 85.8901 46.4212 92.0173L45.554 95.5016C45.5326 95.5858 45.4754 95.6558 45.3954 95.6916C45.3583 95.7087 45.3169 95.7173 45.2769 95.7173L45.2783 95.7201ZM15.0112 79.8701L45.0869 95.0187L45.8669 91.8815C47.3726 85.8273 48.8783 79.7744 50.3854 73.7215L43.5126 70.2644C38.7026 67.8458 33.894 65.4258 29.084 63.0073C26.6554 65.9173 24.2269 68.8273 21.7983 71.7373L15.0112 79.8701Z" fill="black"/>
</g>
<g id="Group_6">
<path id="Vector_9" d="M94.2937 78.0015C91.3037 76.4815 88.3151 74.9643 85.328 73.4443C80.0794 94.2915 74.8323 115.136 69.5866 135.981C49.1652 125.633 28.7452 115.286 8.32373 104.937C10.4037 96.6115 12.4823 88.2872 14.5623 79.9629L45.2794 95.4343C47.0937 88.1443 48.9066 80.8572 50.7209 73.5686C52.0052 68.4057 53.2909 63.2415 54.5752 58.08C49.468 55.4729 44.3594 52.8643 39.2523 50.2572C51.5694 47.1015 63.888 43.9458 76.2052 40.79C84.3152 54.25 92.4252 67.7115 100.537 81.1715C98.4566 80.1143 96.3766 79.0572 94.2966 78.0015H94.2937Z" fill="white"/>
<path id="Vector_10" d="M69.5867 136.269C69.5424 136.269 69.4981 136.259 69.4581 136.237L8.19384 105.194C8.07527 105.134 8.01384 105 8.04527 104.87C10.1253 96.5444 12.2053 88.2201 14.2838 79.8958C14.3053 79.8115 14.3624 79.7415 14.4424 79.7058C14.521 79.6701 14.6124 79.6715 14.6896 79.7101L45.0867 95.0201L45.8667 91.8829C47.391 85.7544 48.9153 79.6286 50.441 73.5015L54.241 58.2329L39.1196 50.5129C39.0138 50.4586 38.9524 50.3444 38.9653 50.2272C38.9781 50.1086 39.0638 50.0115 39.1781 49.9815L76.131 40.5144C76.2524 40.4829 76.381 40.5358 76.4467 40.6444L100.778 81.0258C100.844 81.1344 100.83 81.2744 100.742 81.3672C100.655 81.4601 100.517 81.4858 100.404 81.4272L94.1638 78.2572C94.1638 78.2572 94.1496 78.2501 94.1424 78.2458C91.2653 76.7858 88.391 75.3243 85.5167 73.8629C80.2981 94.5943 75.0796 115.323 69.8624 136.053C69.841 136.137 69.7824 136.207 69.7038 136.243C69.6667 136.26 69.6253 136.269 69.5853 136.269H69.5867ZM8.65527 104.787L69.3967 135.567C74.6138 114.837 79.8324 94.1072 85.051 73.3758C85.0724 73.2915 85.131 73.2215 85.2095 73.1858C85.2881 73.1501 85.3796 73.1515 85.4567 73.1915C88.4438 74.7101 91.4324 76.2286 94.4224 77.7472C94.4296 77.7515 94.4367 77.7544 94.4438 77.7586L99.7753 80.4672L76.0681 41.1215L40.0538 50.3472L54.7038 57.8258C54.8224 57.8858 54.8838 58.0201 54.851 58.1486L50.9967 73.6372C49.471 79.7644 47.9467 85.8915 46.4224 92.0186L45.5553 95.5029C45.5338 95.5872 45.4767 95.6572 45.3967 95.6929C45.3181 95.7286 45.2267 95.7272 45.1496 95.6886L14.751 80.3786C12.7196 88.5144 10.6881 96.6501 8.65527 104.786V104.787Z" fill="black"/>
</g>
<g id="Group_7">
<path id="Vector_11" d="M85.2269 129.583C84.1783 131.45 82.904 132.723 82.0097 133.492C78.3197 135.697 74.6297 137.904 70.9426 140.11C70.9454 140.049 70.9469 139.987 70.9512 139.926C71.1969 139.756 71.4397 139.572 71.6826 139.372C74.8812 136.729 75.6069 133.107 75.9926 131.183C76.934 126.476 75.674 122.707 74.6983 119.793C72.7612 114.004 69.5297 110.302 68.2326 108.924C66.0354 106.59 62.7326 103.08 57.2726 101.782C55.3054 101.314 51.1354 100.323 47.2969 102.582C50.7469 100.509 54.194 98.4372 57.6412 96.3629C60.2126 95.5472 65.5069 94.3201 70.9954 96.5015C73.4812 97.4901 75.154 98.8372 76.4683 99.8958C77.5997 100.809 81.574 104.162 84.364 110.124C85.3397 112.212 87.0426 115.953 87.0726 121.023C87.0854 123.189 87.0654 126.302 85.2254 129.582L85.2269 129.583Z" fill="#FF7E88"/>
<path id="Vector_12" d="M70.9426 140.397C70.8912 140.397 70.8412 140.383 70.7954 140.356C70.7054 140.302 70.6526 140.202 70.6569 140.096L70.6654 139.912C70.6697 139.823 70.7154 139.742 70.7883 139.692C71.0254 139.527 71.2654 139.346 71.5012 139.152C74.6197 136.574 75.3297 133.033 75.7111 131.13C76.6383 126.496 75.4126 122.83 74.4283 119.886C72.7269 114.802 70.0069 111.226 68.0254 109.12C65.8583 106.817 62.584 103.339 57.2083 102.06C55.2526 101.596 51.184 100.627 47.444 102.829C47.3083 102.909 47.134 102.864 47.054 102.729C46.974 102.593 47.0183 102.419 47.1526 102.337C50.6026 100.264 54.0497 98.193 57.4969 96.1187C57.5154 96.1072 57.5369 96.0972 57.5583 96.0915C60.9012 95.0301 65.9654 94.1944 71.104 96.2372C73.6312 97.2415 75.3054 98.5901 76.6497 99.6744C78.534 101.194 82.0769 104.557 84.6254 110.004C85.504 111.882 87.3297 115.786 87.3612 121.023C87.3726 123 87.3926 126.309 85.4783 129.723C84.6383 131.22 83.5354 132.56 82.1983 133.709C82.1854 133.719 82.1726 133.729 82.1583 133.737C78.4683 135.943 74.7783 138.15 71.0912 140.356C71.0454 140.383 70.9954 140.396 70.944 140.396L70.9426 140.397ZM52.7983 100.87C54.6683 100.87 56.294 101.257 57.3383 101.504C62.8811 102.823 66.2269 106.377 68.4397 108.729C70.4611 110.874 73.234 114.522 74.9683 119.702C75.9226 122.554 77.2283 126.457 76.2712 131.239C75.9226 132.98 75.3083 136.037 72.9283 138.59C75.8997 136.813 78.8712 135.036 81.8426 133.259C83.1197 132.157 84.1754 130.873 84.9783 129.443C86.8197 126.16 86.8012 123.07 86.7883 121.026C86.7583 115.914 84.9669 112.086 84.1069 110.246C81.6069 104.903 78.1369 101.607 76.2897 100.119C74.974 99.0587 73.3383 97.7401 70.8911 96.7687C65.924 94.7944 61.0154 95.5987 57.7611 96.6258C55.2669 98.1258 52.7711 99.6272 50.2754 101.126C51.144 100.94 51.994 100.869 52.7997 100.869L52.7983 100.87Z" fill="black"/>
</g>
<g id="Group_8">
<path id="Vector_13" d="M74.6979 119.793C72.7607 114.004 69.5293 110.302 68.2322 108.924C66.035 106.59 62.7322 103.08 57.2722 101.782C55.305 101.314 51.135 100.323 47.2965 102.582C44.7793 104.064 43.5779 106.254 42.925 107.477C40.595 111.849 41.1993 116.209 41.5707 118.9C42.2779 124.006 44.3722 127.547 45.5122 129.429C46.8422 131.627 49.6693 136.176 55.2407 139.343C57.4779 140.616 60.3907 142.272 64.3836 142.052C65.435 141.993 68.2593 141.8 70.9507 139.927C71.1965 139.757 71.4393 139.573 71.6822 139.373C74.8807 136.73 75.6065 133.109 75.9922 131.184C76.9336 126.477 75.6736 122.709 74.6979 119.794V119.793ZM56.225 119.174C56.1679 119.464 56.0579 120.01 55.575 120.409C55.1379 120.769 54.6479 120.803 54.4736 120.813C53.8722 120.846 53.4322 120.596 53.095 120.404C52.2565 119.927 51.8293 119.242 51.6279 118.91C51.4565 118.627 51.1407 118.093 51.0336 117.323C50.9779 116.917 50.8865 116.26 51.2379 115.6C51.3365 115.416 51.5179 115.084 51.8965 114.862C52.475 114.522 53.1036 114.67 53.3993 114.742C54.2236 114.936 54.7207 115.466 55.0522 115.817C55.2465 116.024 55.7336 116.583 56.0265 117.456C56.1736 117.896 56.3636 118.463 56.2207 119.173L56.225 119.174ZM66.5607 123.057C66.5036 123.347 66.3936 123.893 65.9107 124.292C65.4736 124.652 64.9836 124.686 64.8093 124.696C64.2079 124.729 63.7693 124.479 63.4307 124.287C62.5922 123.81 62.165 123.124 61.9636 122.793C61.7922 122.51 61.4765 121.976 61.3693 121.206C61.3136 120.8 61.2222 120.143 61.5736 119.483C61.6722 119.299 61.8536 118.967 62.2322 118.744C62.8107 118.404 63.4393 118.553 63.7365 118.624C64.5593 118.819 65.0565 119.349 65.3879 119.7C65.5822 119.907 66.0722 120.466 66.3622 121.339C66.5093 121.779 66.6993 122.346 66.5565 123.056L66.5607 123.057Z" fill="#FF444F"/>
<path id="Vector_14" d="M63.6736 142.356C59.9622 142.356 57.1722 140.769 55.0993 139.59C49.3465 136.319 46.4879 131.593 45.2679 129.574C44.2136 127.834 42.0179 124.211 41.2879 118.937C40.9179 116.257 40.3022 111.789 42.6736 107.342C43.2722 106.22 44.5193 103.886 47.1522 102.334C51.0908 100.017 55.3108 101.02 57.3379 101.503C62.8808 102.822 66.2265 106.376 68.4393 108.727C70.4608 110.873 73.2336 114.52 74.9679 119.7L74.6965 119.79L74.9679 119.701C75.9208 122.551 77.2265 126.456 76.2693 131.236C75.8736 133.212 75.1365 136.883 71.8622 139.589C71.6136 139.793 71.3622 139.984 71.1122 140.157C68.3008 142.114 65.3636 142.279 64.3979 142.333C64.1522 142.346 63.9108 142.353 63.6722 142.353L63.6736 142.356ZM52.8036 101.443C51.1222 101.443 49.2436 101.767 47.4422 102.827C44.9479 104.297 43.7522 106.536 43.1779 107.61C40.8936 111.894 41.495 116.249 41.8536 118.849C42.5679 124.016 44.7222 127.569 45.7579 129.277C46.955 131.257 49.7608 135.894 55.3836 139.091C57.6465 140.379 60.4608 141.979 64.3693 141.763C65.295 141.711 68.1108 141.553 70.7879 139.689C71.025 139.524 71.265 139.343 71.5008 139.149C74.6193 136.571 75.3293 133.03 75.7108 131.127C76.6379 126.493 75.4122 122.827 74.4279 119.883L74.6979 119.79L74.4265 119.88C72.7265 114.797 70.0065 111.222 68.0236 109.117C65.8565 106.814 62.5822 103.336 57.2065 102.057C56.1936 101.816 54.6122 101.44 52.8036 101.44V101.443ZM64.7036 124.984C64.085 124.984 63.6336 124.729 63.2979 124.539C62.3693 124.01 61.915 123.26 61.7207 122.94C61.5665 122.686 61.205 122.092 61.0879 121.244C61.0279 120.809 60.9293 120.087 61.3236 119.349C61.415 119.176 61.6322 118.769 62.0893 118.497C62.7722 118.096 63.4965 118.271 63.8065 118.346C64.7065 118.559 65.2408 119.124 65.5936 119.499C66.0622 119.999 66.4207 120.601 66.6365 121.249C66.7893 121.704 66.9979 122.327 66.8408 123.112C66.7808 123.414 66.6565 124.046 66.0936 124.512C65.7493 124.794 65.3236 124.953 64.8265 124.98C64.785 124.983 64.7436 124.983 64.7036 124.983V124.984ZM63.065 118.816C62.8465 118.816 62.605 118.857 62.3793 118.99C62.0608 119.179 61.9093 119.463 61.8279 119.617C61.5208 120.193 61.6007 120.777 61.6536 121.163C61.755 121.896 62.0622 122.402 62.2093 122.644C62.3808 122.927 62.7808 123.589 63.5736 124.039C63.9079 124.227 64.2793 124.439 64.795 124.41C64.9336 124.403 65.3565 124.379 65.7293 124.071C66.135 123.736 66.2293 123.259 66.2793 123.002C66.4065 122.366 66.2336 121.847 66.0936 121.432C65.9036 120.862 65.5879 120.332 65.1807 119.897C64.8522 119.549 64.4065 119.077 63.6722 118.904C63.5322 118.87 63.3122 118.817 63.065 118.817V118.816ZM54.3679 121.102C53.7465 121.102 53.2922 120.844 52.9565 120.653C52.035 120.129 51.5793 119.377 51.385 119.057C51.2308 118.803 50.8693 118.207 50.7522 117.362C50.6922 116.926 50.5936 116.204 50.9879 115.466C51.0879 115.277 51.2965 114.886 51.7536 114.614C52.4379 114.213 53.1608 114.389 53.4693 114.463C54.3708 114.676 54.905 115.241 55.2579 115.616C55.725 116.114 56.0836 116.717 56.3008 117.366C56.4536 117.821 56.6622 118.444 56.505 119.229C56.445 119.531 56.3208 120.163 55.7579 120.629C55.4136 120.912 54.9879 121.07 54.4908 121.097C54.4493 121.1 54.4079 121.1 54.3665 121.1L54.3679 121.102ZM52.7308 114.933C52.5122 114.933 52.2722 114.974 52.045 115.107C51.7265 115.296 51.575 115.582 51.4936 115.734C51.1865 116.31 51.2665 116.894 51.3193 117.28C51.4208 118.012 51.7279 118.517 51.875 118.762C52.0465 119.044 52.4465 119.706 53.2393 120.156C53.5536 120.334 53.9436 120.556 54.4608 120.527C54.5993 120.52 55.0222 120.496 55.395 120.189C55.8008 119.853 55.895 119.376 55.945 119.119C56.0722 118.483 55.8993 117.964 55.7593 117.549C55.5679 116.977 55.2522 116.447 54.8465 116.014C54.5179 115.666 54.0722 115.194 53.3365 115.022C53.1965 114.987 52.9765 114.934 52.7293 114.934L52.7308 114.933Z" fill="black"/>
</g>
<path id="Vector_15" d="M61.7811 132.207C60.3239 132.207 59.2311 131.844 58.6796 131.662C57.0625 131.126 55.9896 130.33 55.2054 129.75C53.6011 128.562 52.1925 127.09 51.0182 125.376C50.9296 125.246 50.9625 125.067 51.0925 124.979C51.2225 124.89 51.4011 124.923 51.4896 125.053C52.6282 126.714 53.9925 128.142 55.5454 129.292C56.3396 129.88 57.3296 130.613 58.8596 131.12C59.4339 131.31 60.6296 131.707 62.2068 131.626C63.5225 131.557 64.8396 131.163 66.0153 130.486C66.1525 130.407 66.3268 130.454 66.4054 130.592C66.4839 130.729 66.4368 130.903 66.2996 130.982C65.0454 131.703 63.6396 132.124 62.2353 132.197C62.0796 132.206 61.9282 132.209 61.7796 132.209L61.7811 132.207Z" fill="black"/>
<g id="Group_9">
<path id="Vector_16" d="M56.031 117.457C56.1782 117.897 56.3682 118.464 56.2253 119.174C56.1682 119.464 56.0582 120.01 55.5753 120.409C55.1382 120.769 54.6482 120.803 54.4739 120.813C53.8724 120.846 53.4324 120.596 53.0953 120.404C52.2567 119.927 51.8296 119.241 51.6282 118.91C51.4567 118.627 51.141 118.093 51.0339 117.323C50.9782 116.917 50.8867 116.26 51.2382 115.6C51.3367 115.416 51.5182 115.084 51.8967 114.861C52.4753 114.521 53.1039 114.67 53.3996 114.741C54.2239 114.936 54.721 115.466 55.0524 115.817C55.2467 116.024 55.7339 116.583 56.0267 117.456L56.031 117.457Z" fill="white"/>
<path id="Vector_17" d="M54.3682 121.101C53.7468 121.101 53.2925 120.844 52.9568 120.653C52.0353 120.129 51.5796 119.377 51.3868 119.057C51.2325 118.803 50.8711 118.207 50.7539 117.361C50.6939 116.926 50.5953 116.204 50.9896 115.466C51.0896 115.277 51.2982 114.886 51.7553 114.614C52.4396 114.213 53.1625 114.389 53.4711 114.463C54.3725 114.676 54.9068 115.241 55.2596 115.616C55.7268 116.114 56.0853 116.717 56.3025 117.366C56.4553 117.821 56.6639 118.444 56.5068 119.23C56.4468 119.533 56.3225 120.163 55.7596 120.629C55.4153 120.911 54.9896 121.07 54.4925 121.097C54.4511 121.1 54.4096 121.1 54.3682 121.1V121.101ZM52.7311 114.933C52.5125 114.933 52.2725 114.974 52.0453 115.107C51.7268 115.296 51.5753 115.581 51.4939 115.734C51.1868 116.31 51.2668 116.894 51.3196 117.28C51.4211 118.011 51.7282 118.517 51.8753 118.761C52.0468 119.044 52.4468 119.706 53.2396 120.156C53.5539 120.334 53.9439 120.556 54.4611 120.527C54.5996 120.519 55.0225 120.496 55.3953 120.189C55.8011 119.853 55.8953 119.376 55.9453 119.119C56.0725 118.481 55.8996 117.964 55.7596 117.547C55.5682 116.976 55.2525 116.446 54.8468 116.013C54.5182 115.664 54.0725 115.193 53.3368 115.02C53.1968 114.986 52.9768 114.933 52.7296 114.933H52.7311Z" fill="black"/>
</g>
<g id="Group_10">
<path id="Vector_18" d="M66.5608 123.057C66.5036 123.347 66.3936 123.893 65.9108 124.291C65.4736 124.651 64.9836 124.686 64.8093 124.696C64.2079 124.729 63.7693 124.479 63.4308 124.287C62.5922 123.81 62.165 123.124 61.9636 122.793C61.7922 122.51 61.4765 121.976 61.3693 121.206C61.3136 120.8 61.2222 120.143 61.5736 119.483C61.6722 119.299 61.8536 118.967 62.2322 118.744C62.8108 118.404 63.4393 118.553 63.7365 118.624C64.5593 118.819 65.0565 119.349 65.3879 119.7C65.5822 119.907 66.0722 120.466 66.3622 121.339C66.5093 121.779 66.6993 122.346 66.5565 123.056L66.5608 123.057Z" fill="white"/>
<path id="Vector_19" d="M64.7036 124.984C64.085 124.984 63.6336 124.729 63.2979 124.539C62.3693 124.01 61.915 123.26 61.7208 122.94C61.5665 122.686 61.205 122.091 61.0879 121.244C61.0279 120.809 60.9293 120.087 61.3236 119.349C61.415 119.176 61.6322 118.769 62.0893 118.497C62.7722 118.096 63.4965 118.271 63.8065 118.346C64.7065 118.559 65.2408 119.124 65.5936 119.499C66.0622 119.999 66.4208 120.601 66.6365 121.249C66.7893 121.704 66.9979 122.327 66.8408 123.111C66.7808 123.414 66.6565 124.046 66.0936 124.511C65.7493 124.794 65.3236 124.953 64.8265 124.98C64.785 124.983 64.7436 124.983 64.7036 124.983V124.984ZM63.065 118.816C62.8465 118.816 62.605 118.857 62.3793 118.99C62.0608 119.179 61.9093 119.464 61.8279 119.617C61.5208 120.193 61.6008 120.777 61.6536 121.163C61.755 121.896 62.0622 122.401 62.2093 122.644C62.3808 122.927 62.7808 123.589 63.5736 124.039C63.9079 124.227 64.2808 124.437 64.795 124.41C64.9336 124.403 65.3565 124.379 65.7293 124.071C66.135 123.736 66.2293 123.259 66.2793 123.001C66.4065 122.366 66.2336 121.847 66.0936 121.431C65.9036 120.861 65.5879 120.331 65.1808 119.897C64.8522 119.549 64.4065 119.077 63.6722 118.904C63.5322 118.87 63.3122 118.817 63.065 118.817V118.816Z" fill="black"/>
</g>
<g id="Group_11">
<path id="Vector_20" d="M66.5608 123.057C66.5036 123.347 66.3936 123.893 65.9108 124.291C65.4736 124.651 64.9836 124.686 64.8093 124.696C64.2079 124.729 63.7693 124.479 63.4308 124.287C62.5922 123.81 62.165 123.124 61.9636 122.793C61.7922 122.51 61.4765 121.976 61.3693 121.206C61.3136 120.8 61.2222 120.143 61.5736 119.483C61.6722 119.299 61.8536 118.967 62.2322 118.744C62.8108 118.404 63.4393 118.553 63.7365 118.624C64.5593 118.819 65.0565 119.349 65.3879 119.7C65.5822 119.907 66.0722 120.466 66.3622 121.339C66.5093 121.779 66.6993 122.346 66.5565 123.056L66.5608 123.057Z" fill="#FF535E"/>
<path id="Vector_21" d="M64.7036 124.984C64.085 124.984 63.6336 124.729 63.2979 124.539C62.3693 124.01 61.915 123.26 61.7208 122.94C61.5665 122.686 61.205 122.091 61.0879 121.244C61.0279 120.809 60.9293 120.087 61.3236 119.349C61.415 119.176 61.6322 118.769 62.0893 118.497C62.7722 118.096 63.4965 118.271 63.8065 118.346C64.7065 118.559 65.2408 119.124 65.5936 119.499C66.0622 119.999 66.4208 120.601 66.6365 121.249C66.7893 121.704 66.9979 122.327 66.8408 123.111C66.7808 123.414 66.6565 124.046 66.0936 124.511C65.7493 124.794 65.3236 124.953 64.8265 124.98C64.785 124.983 64.7436 124.983 64.7036 124.983V124.984ZM63.065 118.816C62.8465 118.816 62.605 118.857 62.3793 118.99C62.0608 119.179 61.9093 119.464 61.8279 119.617C61.5208 120.193 61.6008 120.777 61.6536 121.163C61.755 121.896 62.0622 122.401 62.2093 122.644C62.3808 122.927 62.7808 123.589 63.5736 124.039C63.9079 124.227 64.2808 124.437 64.795 124.41C64.9336 124.403 65.3565 124.379 65.7293 124.071C66.135 123.736 66.2293 123.259 66.2793 123.001C66.4065 122.366 66.2336 121.847 66.0936 121.431C65.9036 120.861 65.5879 120.331 65.1808 119.897C64.8522 119.549 64.4065 119.077 63.6722 118.904C63.5322 118.87 63.3122 118.817 63.065 118.817V118.816Z" fill="black"/>
</g>
<g id="Group_12">
<path id="Vector_22" d="M56.2253 119.174C56.1682 119.464 56.0582 120.01 55.5753 120.409C55.1382 120.769 54.6482 120.803 54.4739 120.813C53.8724 120.846 53.4324 120.596 53.0953 120.404C52.2567 119.927 51.8296 119.241 51.6282 118.91C51.4567 118.627 51.141 118.093 51.0339 117.323C50.9782 116.917 50.8867 116.26 51.2382 115.6C51.3367 115.416 51.5182 115.084 51.8967 114.861C52.4753 114.521 53.1039 114.67 53.3996 114.741C54.2239 114.936 54.721 115.466 55.0524 115.817C55.2467 116.024 55.7339 116.583 56.0267 117.456C56.1739 117.896 56.3639 118.463 56.221 119.173L56.2253 119.174Z" fill="#FF535E"/>
<path id="Vector_23" d="M54.3682 121.101C53.7468 121.101 53.2925 120.844 52.9568 120.653C52.0353 120.129 51.5796 119.377 51.3868 119.057C51.2325 118.803 50.8711 118.207 50.7539 117.361C50.6939 116.926 50.5953 116.204 50.9896 115.466C51.0896 115.277 51.2982 114.886 51.7553 114.614C52.4396 114.213 53.1625 114.389 53.4711 114.463C54.3725 114.676 54.9068 115.241 55.2596 115.616C55.7268 116.114 56.0853 116.717 56.3025 117.366C56.4553 117.821 56.6639 118.444 56.5068 119.229C56.4468 119.531 56.3225 120.163 55.7596 120.629C55.4153 120.911 54.9896 121.07 54.4925 121.097C54.4511 121.1 54.4096 121.1 54.3682 121.1V121.101ZM52.7311 114.933C52.5125 114.933 52.2725 114.974 52.0453 115.107C51.7268 115.296 51.5753 115.581 51.4939 115.734C51.1868 116.31 51.2668 116.894 51.3196 117.28C51.4211 118.011 51.7282 118.517 51.8753 118.761C52.0468 119.044 52.4468 119.706 53.2396 120.156C53.5539 120.334 53.9439 120.556 54.4611 120.527C54.5996 120.519 55.0225 120.496 55.3953 120.189C55.8011 119.853 55.8953 119.376 55.9453 119.119C56.0725 118.483 55.8996 117.964 55.7596 117.549C55.5682 116.977 55.2525 116.447 54.8468 116.014C54.5182 115.666 54.0725 115.194 53.3368 115.021C53.1968 114.987 52.9768 114.934 52.7296 114.934L52.7311 114.933Z" fill="black"/>
</g>
<g id="Group_13">
<path id="Vector_24" d="M39.8853 77.5531C39.0367 79.9246 37.6395 81.5603 36.6995 82.4946C33.7738 84.2017 30.8467 85.9117 27.9195 87.6188C30.1138 86.196 31.0924 84.1103 31.4824 83.2488C32.6438 80.676 32.4452 78.3788 32.251 76.4146C31.7067 70.9117 28.9024 67.1446 27.8481 65.7646C26.801 64.3946 24.8038 61.8374 21.2595 60.0374C19.5867 59.1888 17.4481 58.1388 14.641 58.436C14.0767 58.4988 12.651 58.666 11.0967 59.5174C14.2895 57.5874 17.4824 55.6574 20.6767 53.7274C22.2267 53.4817 25.0381 53.2688 28.1095 54.4646C28.5224 54.6246 29.7395 55.1217 31.3424 56.266C36.1638 59.706 38.2881 64.5788 38.6381 65.4103C39.7424 68.0274 41.6638 72.5874 39.8838 77.556L39.8853 77.5531Z" fill="#FF7E88"/>
<path id="Vector_25" d="M27.9211 87.9045C27.8254 87.9045 27.7311 87.8559 27.6768 87.7687C27.5954 87.6359 27.6339 87.463 27.7654 87.3787C29.9411 85.9687 30.9054 83.833 31.2225 83.1302C32.3768 80.573 32.1497 78.2816 31.9668 76.4416C31.4197 70.9059 28.5611 67.1659 27.6211 65.9359C26.6697 64.6902 24.6897 62.0973 21.1311 60.2902C19.5782 59.503 17.4511 58.423 14.6711 58.7187C14.1511 58.7759 12.7639 58.9287 11.2339 59.7659C11.0982 59.8402 10.9268 59.793 10.8497 59.6573C10.7725 59.523 10.8168 59.3502 10.9497 59.2702L11.0954 59.1816C14.2397 57.2816 17.3839 55.3802 20.5282 53.4802C20.5597 53.4616 20.5954 53.4487 20.6311 53.443C23.2568 53.0273 25.8797 53.2887 28.2125 54.1973C29.2539 54.603 30.3939 55.2373 31.5082 56.0316C36.1382 59.3345 38.3382 63.9587 38.9011 65.2973C39.9739 67.8402 41.9697 72.5744 40.1525 77.6502C39.4839 79.5202 38.3882 81.2187 36.8982 82.6973C36.8811 82.7145 36.8625 82.7287 36.8411 82.7416L28.0611 87.8659C28.0154 87.8916 27.9668 87.9045 27.9168 87.9045H27.9211ZM15.6168 58.0959C18.0697 58.0959 19.9625 59.0559 21.3897 59.7802C25.0654 61.6473 27.0982 64.3102 28.0754 65.5887C29.0397 66.8502 31.9711 70.6873 32.5354 76.3845C32.7139 78.193 32.9597 80.6687 31.7425 83.3644C31.5325 83.8287 31.0554 84.8859 30.1582 85.9802L36.5239 82.2644C37.9397 80.8516 38.9797 79.2345 39.6168 77.4559C41.3597 72.5902 39.4925 68.163 38.3768 65.5173C37.8282 64.213 35.6854 59.7102 31.1782 56.4944C30.1011 55.7273 29.0054 55.1159 28.0068 54.7273C25.7825 53.8616 23.2854 53.6102 20.7768 53.9973C18.4097 55.4273 16.0439 56.8573 13.6782 58.2873C14.0982 58.2045 14.4254 58.1687 14.6111 58.1487C14.9568 58.1116 15.2925 58.0945 15.6182 58.0945L15.6168 58.0959Z" fill="black"/>
</g>
<g id="Group_14">
<path id="Vector_26" d="M32.2512 76.4128C31.7069 70.91 28.9026 67.1428 27.8483 65.7628C26.8012 64.3928 24.804 61.8357 21.2597 60.0357C19.5869 59.1871 17.4483 58.1371 14.6412 58.4343C14.0769 58.4971 12.6512 58.6643 11.0969 59.5157C11.0883 59.52 11.0783 59.5257 11.0712 59.53C10.8869 59.6414 10.7012 59.7543 10.5169 59.8657C10.2697 60.0257 10.0226 60.2043 9.7783 60.4057C9.46259 60.6628 7.80544 62.0514 6.94544 64.5328C6.7883 64.9871 6.4283 66.14 6.45259 68.5043C6.46687 69.8957 6.51973 72.6328 7.74687 75.94C8.0883 76.8628 9.5983 80.7343 13.4269 84.2971C15.4026 86.1371 17.3469 87.2914 18.7369 87.9914C19.2854 88.2514 23.214 90.0371 27.1112 88.0843C27.394 87.9414 27.6626 87.7886 27.9126 87.6243C27.9154 87.6243 27.9169 87.6228 27.9212 87.62C30.1154 86.1971 31.094 84.1114 31.484 83.25C32.6454 80.6771 32.4469 78.38 32.2526 76.4157L32.2512 76.4128ZM17.3012 72.2071C17.2354 72.35 17.064 72.7186 16.6512 72.9257C16.0726 73.2157 15.4883 72.95 15.4069 72.9114C15.2012 72.8086 14.9112 72.6371 14.6183 72.3628C14.0497 71.8328 13.8254 71.2586 13.774 71.1214C13.5926 70.6286 13.584 70.2228 13.5826 70.0157C13.5783 69.6657 13.6312 69.4943 13.654 69.4271C13.7826 69.0571 14.0283 68.8514 14.0754 68.8143C14.3726 68.57 14.6897 68.5328 14.7969 68.5214C15.214 68.4771 15.5326 68.6328 15.7812 68.76C16.3054 69.0271 16.604 69.4057 16.7597 69.61C16.9169 69.8143 17.3326 70.3743 17.414 71.1914C17.4412 71.4828 17.4712 71.8243 17.2997 72.2071H17.3012ZM25.0554 75.1043C24.9912 75.2471 24.8183 75.6157 24.4054 75.8228C23.8269 76.1128 23.2426 75.8471 23.1626 75.8086C22.9554 75.7057 22.6669 75.5343 22.3726 75.26C21.8054 74.73 21.5812 74.1557 21.5283 74.0186C21.3469 73.5257 21.3383 73.12 21.3369 72.9128C21.334 72.5628 21.3854 72.3914 21.4112 72.3243C21.5383 71.9543 21.784 71.7486 21.8312 71.7114C22.1283 71.4671 22.4454 71.43 22.554 71.4186C22.9712 71.3743 23.2883 71.53 23.5369 71.6571C24.064 71.9243 24.3597 72.3028 24.5154 72.5071C24.6726 72.7114 25.0897 73.2714 25.1697 74.0886C25.1997 74.38 25.2283 74.7214 25.0554 75.1043Z" fill="#FF535E"/>
<path id="Vector_27" d="M23.2167 89.2658C20.931 89.2658 19.1025 88.4786 18.6153 88.2472C16.6439 87.2544 14.8353 85.9958 13.2325 84.5029C9.62817 81.1486 8.00817 77.4644 7.4796 76.0358C6.21103 72.6172 6.18103 69.7358 6.16817 68.5044C6.14246 65.9844 6.54389 64.8201 6.67674 64.4372C7.49532 62.0772 8.99246 60.6758 9.5996 60.1829C9.8396 59.9858 10.0967 59.7986 10.3639 59.6258L10.9267 59.2858C10.9267 59.2858 10.9425 59.2772 10.951 59.2715C12.5925 58.3729 14.1139 58.2058 14.6139 58.1501C17.561 57.8372 19.7767 58.9601 21.3939 59.7801C25.0696 61.6472 27.1025 64.3101 28.0796 65.5886C29.0439 66.8501 31.9753 70.6872 32.5396 76.3844C32.7182 78.1929 32.9639 80.6686 31.7467 83.3644C31.4125 84.1044 30.3967 86.3544 28.0796 87.8572C28.0796 87.8572 28.0725 87.8615 28.0682 87.8644C27.811 88.0315 27.5339 88.1915 27.2439 88.3372C25.8625 89.0301 24.4725 89.2658 23.221 89.2658H23.2167ZM15.6067 58.6686C15.3039 58.6686 14.991 58.6844 14.671 58.7186C14.151 58.7758 12.7639 58.9286 11.2339 59.7658L11.221 59.7729L10.6639 60.1101C10.4239 60.2658 10.1825 60.4415 9.95817 60.6258C9.51389 60.9872 8.00532 62.3415 7.21389 64.6244C6.88103 65.5886 6.72103 66.8915 6.73674 68.4986C6.75103 69.8015 6.7796 72.5129 8.01246 75.8372C8.52817 77.2272 10.1053 80.8144 13.6196 84.0844C15.1825 85.5401 16.9467 86.7672 18.8639 87.7329C19.571 88.0686 23.3139 89.6629 26.981 87.8258C27.2539 87.6887 27.5139 87.5386 27.7539 87.3829C27.7582 87.3801 27.7625 87.3772 27.7667 87.3758C29.941 85.9658 30.9039 83.8315 31.221 83.1301C32.3753 80.5729 32.1482 78.2815 31.9653 76.4415C31.4182 70.9058 28.5596 67.1658 27.6196 65.9358C26.6682 64.6901 24.6882 62.0972 21.1296 60.2901C19.7567 59.5929 17.9339 58.6686 15.6067 58.6686ZM23.8253 76.2429C23.4296 76.2429 23.1196 76.1058 23.0367 76.0644C22.7253 75.9101 22.4382 75.7101 22.1782 75.4687C21.7753 75.0915 21.4496 74.6129 21.261 74.1201C21.0567 73.5644 21.0525 73.1101 21.051 72.9158C21.0482 72.6301 21.0796 72.3986 21.1425 72.2258C21.2896 71.8001 21.571 71.5529 21.6539 71.4872C21.8953 71.2901 22.1896 71.1701 22.5239 71.1344C23.0367 71.0801 23.4325 71.2829 23.6667 71.4029C24.2625 71.7044 24.5982 72.1458 24.7425 72.3344C24.8953 72.5344 25.3639 73.1429 25.4539 74.0615C25.4825 74.3401 25.5253 74.7601 25.3153 75.2229C25.1367 75.6215 24.8739 75.9086 24.5339 76.0786C24.2882 76.2015 24.0453 76.2429 23.8267 76.2429H23.8253ZM22.6996 71.6958C22.6625 71.6958 22.6239 71.6972 22.5839 71.7015C22.501 71.7101 22.2496 71.7372 22.0125 71.9315C21.9867 71.9529 21.7839 72.1186 21.681 72.4172C21.6567 72.4829 21.621 72.6258 21.6225 72.9101C21.6225 73.0886 21.6267 73.4601 21.7967 73.9186C21.9539 74.3301 22.2267 74.7329 22.5682 75.0501C22.7867 75.2529 23.0296 75.4215 23.2896 75.5515C23.341 75.5772 23.8182 75.7972 24.2782 75.5672C24.6082 75.4015 24.7482 75.0901 24.7953 74.9872C24.941 74.6658 24.911 74.3744 24.8853 74.1186C24.811 73.3629 24.4182 72.8501 24.2882 72.6829C24.1582 72.5115 23.8882 72.1572 23.4082 71.9129C23.1782 71.7944 22.9639 71.6972 22.701 71.6972L22.6996 71.6958ZM16.0739 73.3429C15.6796 73.3429 15.3667 73.2072 15.2825 73.1672C14.9653 73.0086 14.6782 72.8086 14.4225 72.5701C13.8467 72.0344 13.5896 71.4458 13.5053 71.2186C13.301 70.6658 13.2982 70.2115 13.2967 70.0172C13.291 69.6058 13.361 69.4015 13.3839 69.3344C13.5353 68.9015 13.8167 68.6544 13.8982 68.5901C14.1396 68.3929 14.4325 68.2729 14.7667 68.2372C15.2825 68.1829 15.6767 68.3844 15.9125 68.5058C16.5096 68.8086 16.8453 69.2501 16.9882 69.4372C17.3982 69.9715 17.6382 70.5529 17.6996 71.1629C17.7282 71.4601 17.7667 71.8672 17.561 72.3244C17.561 72.3244 17.561 72.3258 17.561 72.3272C17.4925 72.4758 17.2853 72.9286 16.7796 73.1815C16.5353 73.3029 16.2925 73.3444 16.0753 73.3444L16.0739 73.3429ZM14.9453 68.7986C14.9082 68.7986 14.8682 68.8001 14.8282 68.8044C14.7453 68.8129 14.4939 68.8401 14.2582 69.0344C14.2325 69.0558 14.0296 69.2215 13.9253 69.5215C13.8853 69.6386 13.8667 69.8044 13.8696 70.0115C13.8696 70.1915 13.8739 70.5629 14.0439 71.0215C14.1139 71.2115 14.3282 71.7001 14.8139 72.1529C15.0296 72.3544 15.2725 72.5229 15.5353 72.6544C15.5853 72.6786 16.0682 72.8972 16.5239 72.6686C16.8482 72.5072 16.9825 72.2144 17.041 72.0886C17.1839 71.7701 17.1567 71.4758 17.131 71.2172C17.0553 70.4615 16.6639 69.9501 16.5353 69.7829C16.4053 69.6115 16.1367 69.2572 15.6539 69.0129C15.4239 68.8944 15.2096 68.7972 14.9453 68.7972V68.7986Z" fill="black"/>
</g>
<path id="Vector_28" d="M22.9667 82.3358C22.8767 82.3358 22.7895 82.2944 22.7338 82.2158C22.1167 81.3472 21.3638 80.6258 20.4953 80.0744C19.6795 79.5558 18.7553 78.9672 17.5281 79.0601C16.971 79.1015 16.4267 79.2772 15.9138 79.5801C15.7781 79.6601 15.6024 79.6158 15.5224 79.4787C15.4424 79.343 15.4867 79.1672 15.6238 79.0872C16.2138 78.7387 16.841 78.5372 17.4867 78.4887C18.9024 78.383 19.9567 79.0515 20.8038 79.5901C21.7353 80.1815 22.541 80.953 23.2024 81.883C23.2938 82.0115 23.2638 82.1901 23.1353 82.2815C23.0853 82.3172 23.0267 82.3344 22.9695 82.3344L22.9667 82.3358Z" fill="black"/>
<g id="Group_15">
<path id="Vector_29" d="M17.4154 71.1914C17.4425 71.4828 17.4725 71.8242 17.3011 72.2071C17.2354 72.3499 17.0639 72.7185 16.6511 72.9257C16.0725 73.2157 15.4882 72.9499 15.4068 72.9114C15.2011 72.8085 14.9111 72.6371 14.6182 72.3628C14.0497 71.8328 13.8254 71.2585 13.7739 71.1214C13.5925 70.6285 13.5839 70.2228 13.5825 70.0157C13.5782 69.6657 13.6311 69.4942 13.6539 69.4271C13.7825 69.0571 14.0282 68.8514 14.0754 68.8142C14.3725 68.5699 14.6897 68.5328 14.7968 68.5214C15.2139 68.4771 15.5325 68.6328 15.7811 68.7599C16.3054 69.0271 16.6039 69.4057 16.7597 69.6099C16.9168 69.8142 17.3325 70.3742 17.4139 71.1914H17.4154Z" fill="white"/>
<path id="Vector_30" d="M16.0739 73.3428C15.6796 73.3428 15.3667 73.2071 15.2824 73.1671C14.9653 73.0085 14.6781 72.8085 14.4224 72.57C13.8467 72.0343 13.5896 71.4457 13.5053 71.2185C13.301 70.6657 13.2981 70.2114 13.2967 70.0171C13.291 69.6057 13.361 69.4014 13.3839 69.3343C13.5353 68.9014 13.8167 68.6543 13.8981 68.59C14.1396 68.3928 14.4324 68.2728 14.7667 68.2371C15.2824 68.1828 15.6767 68.3843 15.9124 68.5057C16.5096 68.8086 16.8453 69.25 16.9881 69.4371C17.3981 69.9714 17.6381 70.5528 17.6996 71.1628C17.7281 71.46 17.7667 71.8657 17.561 72.3228C17.4924 72.4743 17.2839 72.9271 16.7796 73.18C16.5353 73.3014 16.2924 73.3428 16.0753 73.3428H16.0739ZM14.9453 68.7985C14.9081 68.7985 14.8681 68.8 14.8281 68.8043C14.7453 68.8128 14.4939 68.84 14.2581 69.0343C14.2324 69.0557 14.0296 69.2214 13.9253 69.5214C13.8853 69.6385 13.8667 69.8043 13.8696 70.0114C13.8696 70.1914 13.8739 70.5628 14.0439 71.0214C14.1139 71.2114 14.3281 71.7 14.8139 72.1528C15.0296 72.3543 15.2724 72.5228 15.5353 72.6543C15.5853 72.6785 16.0681 72.8971 16.5239 72.6685C16.8496 72.5057 16.9839 72.2128 17.041 72.0871C17.1839 71.77 17.1553 71.4771 17.131 71.2185C17.0553 70.4614 16.6639 69.9514 16.5339 69.7828C16.4039 69.6114 16.1353 69.2571 15.6524 69.0128C15.4224 68.8943 15.2081 68.7971 14.9439 68.7971L14.9453 68.7985Z" fill="black"/>
</g>
<g id="Group_16">
<path id="Vector_31" d="M25.0554 75.1043C24.9911 75.2472 24.8182 75.6157 24.4054 75.8229C23.8268 76.1129 23.2425 75.8472 23.1625 75.8086C22.9554 75.7057 22.6668 75.5343 22.3725 75.26C21.8054 74.73 21.5811 74.1557 21.5282 74.0186C21.3468 73.5257 21.3382 73.12 21.3368 72.9129C21.3339 72.5629 21.3854 72.3914 21.4111 72.3243C21.5382 71.9543 21.7839 71.7486 21.8311 71.7114C22.1282 71.4672 22.4454 71.43 22.5539 71.4186C22.9711 71.3743 23.2882 71.53 23.5368 71.6572C24.0639 71.9243 24.3596 72.3029 24.5154 72.5072C24.6725 72.7114 25.0896 73.2714 25.1696 74.0886C25.1996 74.38 25.2282 74.7214 25.0554 75.1043Z" fill="white"/>
<path id="Vector_32" d="M23.8252 76.2429C23.4295 76.2429 23.1195 76.1057 23.0367 76.0643C22.7252 75.91 22.4381 75.71 22.1781 75.4686C21.7752 75.0914 21.4495 74.6129 21.261 74.12C21.0567 73.5643 21.0524 73.11 21.051 72.9157C21.0481 72.63 21.0795 72.3986 21.1424 72.2257C21.2895 71.8 21.571 71.5529 21.6538 71.4871C21.8952 71.29 22.1895 71.17 22.5238 71.1343C23.0367 71.08 23.4324 71.2829 23.6667 71.4029C24.2624 71.7043 24.5981 72.1457 24.7424 72.3343C24.8952 72.5343 25.3638 73.1429 25.4538 74.0614C25.4824 74.34 25.5252 74.76 25.3152 75.2229C25.1367 75.6214 24.8738 75.9086 24.5338 76.0786C24.2881 76.2014 24.0452 76.2429 23.8267 76.2429H23.8252ZM22.6995 71.6957C22.6624 71.6957 22.6238 71.6971 22.5838 71.7014C22.501 71.71 22.2495 71.7371 22.0124 71.9314C21.9867 71.9529 21.7838 72.1186 21.681 72.4171C21.6567 72.4829 21.621 72.6257 21.6224 72.91C21.6224 73.0886 21.6267 73.46 21.7967 73.9186C21.9538 74.33 22.2267 74.7329 22.5681 75.05C22.7867 75.2529 23.0295 75.4214 23.2895 75.5514C23.341 75.5757 23.8181 75.7971 24.2781 75.5657C24.6081 75.4 24.7481 75.0886 24.7952 74.9857C24.941 74.6643 24.911 74.3729 24.8852 74.1171C24.811 73.3614 24.4181 72.8486 24.2881 72.6814C24.1581 72.51 23.8881 72.1557 23.4081 71.9114C23.1781 71.7929 22.9638 71.6957 22.701 71.6957H22.6995Z" fill="black"/>
</g>
<g id="Group_17">
<path id="Vector_33" d="M25.0554 75.1043C24.9911 75.2472 24.8182 75.6157 24.4054 75.8229C23.8268 76.1129 23.2425 75.8472 23.1625 75.8086C22.9554 75.7057 22.6668 75.5343 22.3725 75.26C21.8054 74.73 21.5811 74.1557 21.5282 74.0186C21.3468 73.5257 21.3382 73.12 21.3368 72.9129C21.3339 72.5629 21.3854 72.3914 21.4111 72.3243C21.5382 71.9543 21.7839 71.7486 21.8311 71.7114C22.1282 71.4672 22.4454 71.43 22.5539 71.4186C22.9711 71.3743 23.2882 71.53 23.5368 71.6572C24.0639 71.9243 24.3596 72.3029 24.5154 72.5072C24.6725 72.7114 25.0896 73.2714 25.1696 74.0886C25.1996 74.38 25.2282 74.7214 25.0554 75.1043Z" fill="#FF535E"/>
<path id="Vector_34" d="M23.8252 76.2429C23.4295 76.2429 23.1195 76.1057 23.0367 76.0643C22.7252 75.91 22.4381 75.71 22.1781 75.4686C21.7752 75.0914 21.4495 74.6129 21.261 74.12C21.0567 73.5643 21.0524 73.11 21.051 72.9157C21.0481 72.63 21.0795 72.3986 21.1424 72.2257C21.2895 71.8 21.571 71.5529 21.6538 71.4871C21.8952 71.29 22.1895 71.17 22.5238 71.1343C23.0367 71.08 23.4324 71.2829 23.6667 71.4029C24.2624 71.7043 24.5981 72.1457 24.7424 72.3343C24.8952 72.5343 25.3638 73.1429 25.4538 74.0614C25.4824 74.34 25.5252 74.76 25.3152 75.2229C25.1367 75.6214 24.8738 75.9086 24.5338 76.0786C24.2881 76.2014 24.0452 76.2429 23.8267 76.2429H23.8252ZM22.6995 71.6957C22.6624 71.6957 22.6238 71.6971 22.5838 71.7014C22.501 71.71 22.2495 71.7371 22.0124 71.9314C21.9867 71.9529 21.7838 72.1186 21.681 72.4171C21.6567 72.4829 21.621 72.6257 21.6224 72.91C21.6224 73.0886 21.6267 73.46 21.7967 73.9186C21.9538 74.33 22.2267 74.7329 22.5681 75.05C22.7867 75.2529 23.0295 75.4214 23.2895 75.5514C23.341 75.5757 23.8181 75.7971 24.2781 75.5657C24.6081 75.4 24.7481 75.0886 24.7952 74.9857C24.941 74.6643 24.911 74.3729 24.8852 74.1171C24.811 73.3614 24.4181 72.8486 24.2881 72.6814C24.1581 72.51 23.8881 72.1557 23.4081 71.9114C23.1781 71.7929 22.9638 71.6957 22.701 71.6957H22.6995Z" fill="black"/>
</g>
<g id="Group_18">
<path id="Vector_35" d="M17.3011 72.2071C17.2354 72.3499 17.0639 72.7185 16.6511 72.9257C16.0725 73.2157 15.4882 72.9499 15.4068 72.9114C15.2011 72.8085 14.9111 72.6371 14.6182 72.3628C14.0497 71.8328 13.8254 71.2585 13.7739 71.1214C13.5925 70.6285 13.5839 70.2228 13.5825 70.0157C13.5782 69.6657 13.6311 69.4942 13.6539 69.4271C13.7825 69.0571 14.0282 68.8514 14.0754 68.8142C14.3725 68.5699 14.6897 68.5328 14.7968 68.5214C15.2139 68.4771 15.5325 68.6328 15.7811 68.7599C16.3054 69.0271 16.6039 69.4057 16.7597 69.6099C16.9168 69.8142 17.3325 70.3742 17.4139 71.1914C17.4411 71.4828 17.4711 71.8242 17.2997 72.2071H17.3011Z" fill="#FF535E"/>
<path id="Vector_36" d="M16.0739 73.3428C15.6796 73.3428 15.3667 73.2071 15.2824 73.1671C14.9653 73.0085 14.6781 72.8085 14.4224 72.57C13.8467 72.0343 13.5896 71.4457 13.5053 71.2185C13.301 70.6657 13.2981 70.2114 13.2967 70.0171C13.291 69.6057 13.361 69.4014 13.3839 69.3343C13.5353 68.9014 13.8167 68.6543 13.8981 68.59C14.1396 68.3928 14.4324 68.2728 14.7667 68.2371C15.2824 68.1828 15.6767 68.3843 15.9124 68.5057C16.5096 68.8086 16.8453 69.25 16.9881 69.4371C17.3981 69.9714 17.6381 70.5528 17.6996 71.1628C17.7281 71.46 17.7667 71.8671 17.561 72.3243C17.561 72.3243 17.561 72.3257 17.561 72.3271C17.4924 72.4757 17.2853 72.9286 16.7796 73.1814C16.5353 73.3028 16.2924 73.3443 16.0753 73.3443L16.0739 73.3428ZM14.9453 68.7985C14.9081 68.7985 14.8681 68.8 14.8281 68.8043C14.7453 68.8128 14.4939 68.84 14.2581 69.0343C14.2324 69.0557 14.0296 69.2214 13.9253 69.5214C13.8853 69.6385 13.8667 69.8043 13.8696 70.0114C13.8696 70.1914 13.8739 70.5628 14.0439 71.0214C14.1139 71.2114 14.3281 71.7 14.8139 72.1528C15.0296 72.3543 15.2724 72.5228 15.5353 72.6543C15.5853 72.6785 16.0681 72.8971 16.5239 72.6685C16.8481 72.5071 16.9824 72.2143 17.041 72.0885C17.1839 71.77 17.1553 71.4771 17.131 71.2185C17.0553 70.4628 16.6639 69.9514 16.5353 69.7843C16.4053 69.6128 16.1367 69.2586 15.6539 69.0143C15.4239 68.8957 15.2096 68.7985 14.9453 68.7985Z" fill="black"/>
</g>
</g>
</g>
</g>
</g>
</svg>
