<svg width="120" height="152" viewBox="0 0 120 152" fill="none" xmlns="http://www.w3.org/2000/svg">
<g id="illustration / deriv / light / customer-focus">
<g id="Artboard 123 copy 20 1">
<g id="Layer 43 copy">
<path id="Vector" d="M88.6772 38.2458C84.8058 44.9758 74.8172 49.7673 63.1072 49.7673C51.3972 49.7673 41.4058 44.9744 37.5358 38.2458C37.1272 34.5216 37.5715 31.7373 37.6872 31.0616C37.8615 30.0573 38.693 25.6401 41.7144 21.0344C43.473 18.3487 45.9787 15.5987 49.5301 13.4244C57.1787 8.74298 64.8587 9.68298 67.3372 10.1073C69.8187 10.5287 76.733 12.0801 82.2887 18.2958C82.6472 18.6973 83.3958 19.5587 84.2615 20.8444C85.8858 23.2516 87.9258 27.1387 88.5901 32.2416C88.8758 34.4387 88.8558 36.4658 88.6772 38.2487V38.2458Z" fill="white" stroke="black" stroke-width="0.571429" stroke-linecap="round" stroke-linejoin="round"/>
<path id="Vector_2" d="M88.6771 38.2458C88.3242 41.7616 87.3585 44.3387 86.9099 45.4259C86.1428 47.2959 84.2485 51.2801 80.2014 54.8658C77.3742 57.3673 74.6014 58.7016 72.9656 59.3701C71.5928 59.9301 68.0728 61.2287 63.3914 61.2601C61.0971 61.273 52.8328 61.0216 45.8985 54.8344C45.0099 54.043 42.7999 51.9544 40.8785 48.6187C38.7699 44.9573 37.8685 41.2873 37.5356 38.2458C41.4071 44.9758 51.3956 49.7673 63.1071 49.7673C74.8185 49.7673 84.8056 44.9744 88.6771 38.2458Z" fill="#EBECEE" stroke="black" stroke-width="0.571429" stroke-linecap="round" stroke-linejoin="round"/>
<path id="Vector_3" d="M98.0443 115.564C97.8986 116.14 97.6515 116.967 97.2415 117.916C96.5343 119.556 94.6872 123.047 89.0957 126.526C82.1857 130.826 74.6715 131.923 70.8243 132.447C59.1572 134.044 50.5429 131.97 48.4815 131.442C45.5057 130.679 40.26 129.054 35.2529 125.434C32.1943 123.222 30.6057 121.264 29.5415 119.343C28.5515 117.559 28.0715 115.904 27.8186 114.744C27.8772 111.092 28.1 106.016 28.8272 100.003C29.7872 92.073 30.8315 83.4359 34.8757 73.543C36.83 68.7588 40.1572 62.0502 45.9 54.8345C52.8343 61.0216 61.0986 61.2745 63.3929 61.2602C68.0743 61.2288 71.5943 59.9302 72.9672 59.3702C74.6029 58.7002 77.3757 57.3659 80.2029 54.8659C80.6086 55.2716 81.1772 55.8616 81.8243 56.5973C83.3257 58.3088 84.7272 60.2302 86.36 63.0388C89.0772 67.7173 90.7843 72.0245 91.3043 73.3716C93.3772 78.733 94.3529 83.0216 95.0686 86.2388C95.3029 87.2902 96.1215 91.0316 96.8329 96.413C97.4686 101.214 98.0686 107.716 98.0443 115.563V115.564Z" fill="#EBECEE" stroke="black" stroke-width="0.571429" stroke-linecap="round" stroke-linejoin="round"/>
</g>
<g id="Layer 42 copy 5">
<path id="Vector_4" d="M55.5372 83.5358C53.0586 87.8444 46.6629 90.913 39.1658 90.913C31.6686 90.913 25.2715 87.8444 22.7929 83.5358C22.5315 81.1515 22.8158 79.3687 22.8901 78.9358C23.0015 78.293 23.5344 75.4644 25.4686 72.5158C26.5944 70.7958 28.1986 69.0358 30.4729 67.643C35.3701 64.6458 40.2872 65.2472 41.8744 65.5187C43.4629 65.7887 47.8901 66.7815 51.4472 70.7615C51.6772 71.0187 52.1558 71.5701 52.7101 72.393C53.7501 73.9344 55.0558 76.423 55.4815 79.6901C55.6644 81.0972 55.6515 82.3944 55.5372 83.5358Z" fill="white" stroke="black" stroke-width="0.571429" stroke-linecap="round" stroke-linejoin="round"/>
<path id="Vector_5" d="M55.5373 83.5359C55.3115 85.7873 54.693 87.4373 54.4058 88.133C53.9144 89.3302 52.7015 91.8816 50.1101 94.1773C48.3001 95.7787 46.5244 96.633 45.4773 97.0616C44.5987 97.4202 42.3444 98.2516 39.3473 98.2716C37.8787 98.2802 32.5873 98.1187 28.1473 94.1573C27.5787 93.6502 26.163 92.313 24.933 90.1773C23.583 87.833 23.0058 85.483 22.793 83.5359C25.2715 87.8445 31.6673 90.913 39.1658 90.913C46.6644 90.913 53.0587 87.8445 55.5373 83.5359Z" fill="#EBECEE" stroke="black" stroke-width="0.571429" stroke-linecap="round" stroke-linejoin="round"/>
<path id="Vector_6" d="M61.5344 133.04C61.4415 133.409 61.2829 133.939 61.0201 134.546C60.5672 135.596 59.3844 137.832 55.8044 140.059C51.3801 142.812 46.5686 143.514 44.1058 143.85C36.6358 144.873 31.1201 143.544 29.8001 143.206C27.8944 142.717 24.5358 141.677 21.3301 139.36C19.3715 137.943 18.3544 136.69 17.6729 135.46C17.0386 134.317 16.7315 133.259 16.5701 132.516C16.6072 130.177 16.7501 126.927 17.2158 123.077C17.8301 118 18.4986 112.47 21.0886 106.136C22.3401 103.073 24.4701 98.7772 28.1472 94.1572C32.5872 98.1187 37.8786 98.2801 39.3472 98.2715C42.3444 98.2515 44.5986 97.4201 45.4772 97.0615C46.5244 96.6329 48.3001 95.7787 50.1101 94.1772C50.3701 94.4372 50.7344 94.8144 51.1486 95.2858C52.1101 96.3815 53.0072 97.6115 54.0529 99.4101C55.7929 102.406 56.8858 105.163 57.2186 106.026C58.5458 109.459 59.1701 112.204 59.6286 114.264C59.7786 114.937 60.3029 117.333 60.7586 120.779C61.1658 123.853 61.5501 128.016 61.5344 133.04Z" fill="#EBECEE" stroke="black" stroke-width="0.571429" stroke-linecap="round" stroke-linejoin="round"/>
</g>
<g id="Layer 58">
<path id="Vector_7" d="M84.1372 124.656C83.4186 125.966 82.3643 127.314 80.8115 128.396C78.1072 130.281 75.2986 130.378 74.2015 130.401C70.7615 130.474 68.2843 129.127 67.1101 128.47C62.4415 125.854 60.6301 121.616 60.2772 120.747C59.7115 119.347 58.3829 115.93 59.4986 111.797C59.8143 110.631 60.7229 107.441 63.7686 105.224C64.8301 104.453 65.9329 103.956 67.0015 103.648C66.1901 105.427 65.5186 107.756 65.6243 110.497C65.7801 114.518 67.5272 117.351 68.2243 118.37C70.9658 122.386 74.8458 123.837 76.3929 124.311C79.7929 125.348 82.7072 124.95 84.1372 124.654V124.656Z" fill="white" stroke="black" stroke-width="0.571429" stroke-linecap="round" stroke-linejoin="round"/>
<path id="Vector_8" d="M84.1372 124.656C83.4186 125.966 82.3643 127.314 80.8115 128.396C78.1072 130.281 75.2986 130.378 74.2015 130.401C70.7615 130.474 68.2843 129.127 67.1101 128.47C62.4415 125.854 60.6301 121.616 60.2772 120.747C59.7115 119.347 58.3829 115.93 59.4986 111.797C59.8143 110.631 60.7229 107.441 63.7686 105.224C64.8301 104.453 65.9329 103.956 67.0015 103.648C66.1901 105.427 65.5186 107.756 65.6243 110.497C65.7801 114.518 67.5272 117.351 68.2243 118.37C70.9658 122.386 74.8458 123.837 76.3929 124.311C79.7929 125.348 82.7072 124.95 84.1372 124.654V124.656Z" fill="#FF444F" stroke="black" stroke-width="0.571429" stroke-linecap="round" stroke-linejoin="round"/>
<path id="Vector_9" d="M99.7116 122.084C98.9259 124.054 97.9702 125.559 97.2416 126.56C96.4488 127.201 95.7245 127.784 95.0716 128.314C94.8545 128.49 94.643 128.66 94.443 128.823C93.8373 129.311 93.3045 129.744 92.843 130.114C92.6888 130.239 92.543 130.357 92.4073 130.467C92.3387 130.523 92.273 130.576 92.2088 130.629C92.0802 130.731 91.9602 130.83 91.8473 130.92C90.9459 131.65 90.8573 131.721 90.7502 131.806C92.0088 130.096 94.0488 126.823 94.6988 122.289C95.6316 115.781 93.1145 110.789 91.8388 108.347C90.8402 106.43 86.2016 97.5414 75.873 94.9043C74.0345 94.4343 66.1188 92.4157 58.8673 97.1328C58.5045 97.37 58.1573 97.6143 57.8245 97.8643C60.1902 95.85 62.5545 93.8357 64.9202 91.8228C66.9673 90.6928 72.5773 87.9585 79.6988 89.0371C84.8216 89.8143 88.313 92.1957 89.7988 93.2328C90.6016 93.7957 94.4159 96.5271 97.4488 101.661C98.5745 103.569 100.489 106.89 101.013 111.689C101.61 117.163 100.043 121.259 99.713 122.084H99.7116Z" fill="#FF7E88" stroke="black" stroke-width="0.571429" stroke-linecap="round" stroke-linejoin="round"/>
<path id="Vector_10" d="M96.1686 140.674C95.9915 139.867 95.6672 139.21 95.4815 138.836C95.1915 138.254 94.8858 137.793 94.6458 137.463C92.3572 134.203 93.0344 135.073 90.7444 131.813C90.7444 131.813 90.7458 131.811 90.7501 131.807C92.0086 130.097 94.0486 126.824 94.6986 122.29C95.6315 115.783 93.1143 110.79 91.8386 108.349C90.8401 106.431 86.2015 97.5428 75.8729 94.9057C74.0343 94.4357 66.1186 92.4171 58.8672 97.1342C58.5043 97.3714 58.1572 97.6157 57.8243 97.8657C57.8201 97.87 57.8143 97.8742 57.8101 97.8771C53.3043 101.274 51.5786 105.779 51.1443 107.01C49.5686 111.494 50.0786 115.433 50.3272 117.184C50.6786 119.67 51.3929 121.633 51.6829 122.381C51.8586 122.836 52.4772 124.4 53.7443 126.484C54.8215 128.26 56.5015 130.98 59.6101 133.631C60.8172 134.663 63.3758 136.806 67.3701 138.18C68.1986 138.466 70.8615 139.33 74.4615 139.424C76.7829 139.486 78.7415 139.207 80.1801 138.903C82.4886 142.177 81.8286 141.319 84.1372 144.591C84.3858 144.956 84.7544 145.436 85.2715 145.929C85.6329 146.274 86.4172 147.01 87.6658 147.524C89.2129 148.163 90.5615 148.09 90.9144 148.063C91.6486 148.007 92.9958 147.907 94.2186 146.913C94.3429 146.814 94.4558 146.71 94.5601 146.603C94.5658 146.597 94.5715 146.593 94.5772 146.587C95.4643 145.703 95.7886 144.677 95.9815 144.073C96.5201 142.37 96.2301 140.959 96.1672 140.674H96.1686ZM82.8529 109.646C83.6929 110.821 86.2086 114.453 85.7372 119.369C85.7215 119.541 85.7001 119.717 85.6758 119.896C85.5929 120.483 85.3143 122.517 84.1386 124.657H84.1372C83.4186 125.967 82.3643 127.316 80.8115 128.397C78.1072 130.283 75.2986 130.38 74.2015 130.403C70.7615 130.476 68.2843 129.129 67.1101 128.471C62.4415 125.856 60.6301 121.617 60.2772 120.749C59.7115 119.349 58.3829 115.931 59.4986 111.799C59.8143 110.633 60.7229 107.443 63.7686 105.226C64.8301 104.454 65.9329 103.957 67.0015 103.65C68.8972 103.097 70.6858 103.137 71.9329 103.267C72.4658 103.323 72.9001 103.393 73.1986 103.444C78.8301 104.381 82.0015 108.454 82.8529 109.644V109.646Z" fill="#FF535E" stroke="black" stroke-width="0.571429" stroke-linecap="round" stroke-linejoin="round"/>
<path id="Vector_11" d="M102.723 137.092C102.65 138.972 101.74 140.344 101.273 140.952C99.0415 142.83 96.8115 144.709 94.5787 146.587C95.4658 145.703 95.7901 144.677 95.983 144.073C96.5215 142.37 96.2315 140.959 96.1687 140.674C95.9915 139.867 95.6672 139.21 95.4815 138.836C95.1915 138.254 94.8858 137.793 94.6458 137.463C92.3572 134.203 93.0344 135.073 90.7444 131.813C90.7444 131.813 90.7458 131.812 90.7501 131.807C90.8572 131.723 90.9458 131.652 91.8472 130.922C91.9601 130.83 92.0801 130.732 92.2087 130.63C92.2744 130.577 92.3387 130.523 92.4072 130.469C92.5429 130.359 92.6887 130.24 92.843 130.116C93.3044 129.744 93.8372 129.313 94.4429 128.824C94.6444 128.66 94.8558 128.492 95.0715 128.316C95.7244 127.787 96.4487 127.203 97.2415 126.562C99.563 129.846 98.9158 128.999 101.237 132.284C101.49 132.669 101.812 133.217 102.092 133.917C102.332 134.524 102.776 135.673 102.723 137.093V137.092Z" fill="#FF7E88" stroke="black" stroke-width="0.571429" stroke-linecap="round" stroke-linejoin="round"/>
<path id="Vector_12" d="M84.1372 124.656C83.4186 125.966 82.3643 127.314 80.8115 128.396C78.1072 130.281 75.2986 130.378 74.2015 130.401C70.7615 130.474 68.2843 129.127 67.1101 128.47C62.4415 125.854 60.6301 121.616 60.2772 120.747C59.7115 119.347 58.3829 115.93 59.4986 111.797C59.8143 110.631 60.7229 107.441 63.7686 105.224C64.8301 104.453 65.9329 103.956 67.0015 103.648C66.1901 105.427 65.5186 107.756 65.6243 110.497C65.7801 114.518 67.5272 117.351 68.2243 118.37C70.9658 122.386 74.8458 123.837 76.3929 124.311C79.7929 125.348 82.7072 124.95 84.1372 124.654V124.656Z" stroke="black" stroke-width="0.571429" stroke-linecap="round" stroke-linejoin="round"/>
</g>
</g>
</g>
</svg>
