<svg width="128" height="128" viewBox="0 0 128 128" fill="none" xmlns="http://www.w3.org/2000/svg">
<g id="illustration / deriv / light / funds-add">
<g id="vector">
<g id="Group">
<g id="Group_2">
<path id="Vector" d="M111.065 63.1903C111.055 64.9117 110.943 69.3489 109.595 74.8989C109.013 77.2932 107.886 81.806 104.966 87.0517C102.423 91.6203 99.7559 94.5317 99.1345 95.1975C96.5959 97.9217 94.0831 99.8346 92.1459 101.117C87.0074 103.603 81.8717 106.09 76.7331 108.576C78.5302 107.659 79.9374 106.76 80.9131 106.087C82.9245 104.705 86.7359 101.797 90.2031 96.976C93.1359 92.8975 94.5031 89.2846 95.4559 86.7075C96.0488 85.1046 97.5231 80.8689 98.216 75.1332C98.4945 72.8146 98.9617 67.6603 98.0374 61.1546C97.8602 59.9117 97.0674 54.6432 94.5059 48.1275C93.3102 45.0903 90.9945 39.906 86.8488 34.2089C84.5531 31.056 80.8302 26.0275 74.2959 21.3575C69.1174 17.6575 64.5259 15.8632 63.0188 15.3032C60.0659 14.2074 53.2559 11.7603 44.2917 12.4846C38.7388 12.9303 34.5702 14.416 32.8845 15.096C36.9559 13.0974 41.0231 11.0989 45.0945 9.10174C46.3288 8.62745 48.006 8.04888 50.036 7.54459C55.1974 6.26031 59.4074 6.25031 61.1631 6.29745C68.6288 6.49745 74.1645 8.82174 77.1888 10.126C78.2945 10.6017 83.6145 12.9446 89.4759 17.7389C91.5802 19.4589 95.6388 23.0375 99.5802 28.556C102.339 32.4175 103.927 35.6675 104.833 37.5475C107.947 43.9989 109.229 49.326 109.596 50.9475C110.18 53.5203 111.093 57.6517 111.066 63.1903H111.065Z" fill="#EBECEE"/>
<path id="Vector_2" d="M76.7316 108.862C76.6259 108.862 76.5259 108.803 76.4759 108.703C76.4059 108.563 76.463 108.393 76.6016 108.322C78.0416 107.586 79.4373 106.756 80.7488 105.853C84.2631 103.437 87.4516 100.312 89.9688 96.8101C92.9416 92.6758 94.2916 89.0244 95.1859 86.6087C96.5016 83.0501 97.4502 79.0701 97.9302 75.1001C98.4702 70.6187 98.4088 65.8101 97.753 61.1958C97.483 59.3015 96.6016 54.2444 94.2388 48.233C92.3159 43.3458 89.7502 38.6844 86.6159 34.3787C84.5673 31.5644 80.7545 26.3273 74.1273 21.5915C70.6402 19.1001 66.6588 16.963 62.9159 15.573C60.3102 14.6058 53.3888 12.0373 44.3116 12.7715C38.9916 13.1987 34.9331 14.5787 32.9888 15.363C32.8459 15.4201 32.6831 15.3544 32.6216 15.2144C32.5588 15.0744 32.6188 14.9087 32.7559 14.8415C36.8273 12.843 40.8945 10.8444 44.9659 8.84725C44.9731 8.84297 44.9816 8.84011 44.9888 8.83725C46.6073 8.2144 48.2816 7.68725 49.9631 7.26868C54.6288 6.10725 58.6316 5.94582 61.1673 6.01297C68.8402 6.21868 74.553 8.68154 77.2988 9.8644C79.203 10.6844 84.2188 13.073 89.653 17.5187C93.4102 20.5887 96.9216 24.3487 99.8088 28.3915C102.642 32.3558 104.233 35.653 105.087 37.4244C107.932 43.3158 109.306 48.3873 109.872 50.8844C110.397 53.1987 111.377 57.5073 111.349 63.1915C111.327 67.0015 110.817 71.073 109.872 74.9658C109.332 77.1873 108.209 81.8115 105.214 87.1901C102.846 91.4458 100.319 94.3444 99.3416 95.393C97.2416 97.6473 94.873 99.653 92.3016 101.357C92.2916 101.364 92.2802 101.37 92.2688 101.376L76.8559 108.834C76.8159 108.854 76.773 108.863 76.7316 108.863V108.862ZM47.5388 12.0701C55.1188 12.0701 60.8002 14.1787 63.1159 15.0373C66.9045 16.4444 70.933 18.6073 74.4602 21.1273C81.1616 25.9158 85.0102 31.203 87.0788 34.043C90.2416 38.3887 92.8302 43.093 94.7716 48.0244C97.1573 54.093 98.0488 59.2015 98.3202 61.1158C98.983 65.7787 99.0445 70.6387 98.4988 75.1687C98.013 79.183 97.053 83.2087 95.723 86.8073C94.8188 89.2515 93.4516 92.9458 90.433 97.143C88.0573 100.447 85.093 103.423 81.8202 105.796L92.003 100.867C94.5316 99.1915 96.8602 97.2173 98.9245 95.0015C99.8873 93.9687 102.377 91.1115 104.716 86.9115C107.672 81.6015 108.783 77.0287 109.317 74.8301C110.253 70.9801 110.757 66.9544 110.779 63.1887C110.807 57.5701 109.837 53.303 109.316 51.0115C108.754 48.5373 107.393 43.513 104.574 37.673C103.727 35.9173 102.15 32.6487 99.3459 28.723C96.4873 24.7215 93.0116 21.0001 89.293 17.9615C83.9145 13.5601 78.9559 11.2001 77.0745 10.3887C74.3616 9.22011 68.7159 6.78725 61.1531 6.5844C58.6531 6.51725 54.7059 6.67725 50.1016 7.82297C48.4459 8.2344 46.8002 8.75297 45.2059 9.36582C42.3959 10.7444 39.5873 12.1244 36.7773 13.503C38.8102 12.9515 41.3516 12.4358 44.2659 12.2015C45.3902 12.1101 46.4831 12.0701 47.5388 12.0701Z" fill="black"/>
</g>
<g id="Group_3">
<path id="Vector_3" d="M25.5345 97.5116C20.8388 92.7973 18.0874 88.4987 17.1659 87.0059C16.5617 86.0259 14.5517 82.7044 12.6545 77.9844C10.2817 72.0787 9.38737 67.2259 9.09308 65.4602C7.84737 57.9944 8.3788 52.1844 8.5288 50.7102C8.83023 47.7644 9.41166 42.493 12.1488 36.2273C15.3945 28.7973 19.7817 24.2959 20.6659 23.4073C25.7974 18.243 30.9802 15.9101 32.2402 15.3644C33.1817 14.9573 37.7874 13.0101 44.2888 12.4859C53.2531 11.763 60.0631 14.2087 63.0159 15.3059C64.5231 15.8659 69.1145 17.6587 74.2931 21.3601C80.8288 26.0301 84.5517 31.0573 86.8474 34.2101C90.9945 39.9073 93.3102 45.093 94.5045 48.1287C97.0674 54.6459 97.8588 59.9144 98.0359 61.1573C98.9602 67.663 98.4945 72.8159 98.2145 75.1359C97.5217 80.8701 96.0474 85.1073 95.4545 86.7101C94.5002 89.2873 93.1345 92.9001 90.2016 96.9787C86.7345 101.8 82.9231 104.707 80.9131 106.09C78.8731 107.492 74.9731 109.876 69.5459 111.373C60.9474 113.744 53.8545 112.416 50.7002 111.789C49.1831 111.487 44.0117 110.374 38.0274 107.159C31.9402 103.889 28.1245 100.114 25.5331 97.513L25.5345 97.5116Z" fill="white"/>
<path id="Vector_4" d="M59.4474 113.01C55.3802 113.01 52.2474 112.386 50.6459 112.067C48.2245 111.586 43.3502 110.34 37.8945 107.409C31.6459 104.051 27.6945 100.084 25.3331 97.7129C21.2217 93.5843 18.4902 89.6929 16.9231 87.1557C15.9717 85.6143 14.1159 82.3857 12.3902 78.09C10.3002 72.89 9.29165 68.3772 8.81165 65.5072C7.68737 58.7757 7.97451 53.3286 8.24594 50.6815C8.51594 48.0415 9.07737 42.5472 11.8888 36.1129C14.8988 29.2243 18.8888 24.7915 20.4659 23.2057C25.2702 18.3715 30.2231 15.9286 32.1288 15.1029C33.7688 14.3929 38.2331 12.6886 44.2688 12.2015C53.4788 11.4586 60.4816 14.0586 63.1174 15.0372C66.9059 16.4443 70.9345 18.6057 74.4616 21.1272C81.1674 25.9186 85.0131 31.2029 87.0802 34.0415C90.2474 38.3915 92.8345 43.0957 94.7716 48.0243C97.1574 54.0915 98.0474 59.2015 98.3202 61.1172C98.9845 65.7872 99.0459 70.6472 98.4988 75.17C98.0117 79.1929 97.0531 83.2172 95.7231 86.8086C94.8174 89.2543 93.4502 92.9515 90.4345 97.1443C87.8802 100.697 84.6431 103.871 81.0759 106.324C77.5859 108.723 73.7331 110.513 69.6231 111.647C65.8902 112.677 62.4202 113.01 59.4488 113.01H59.4474ZM25.7359 97.31C28.0745 99.6586 31.9888 103.589 38.1631 106.906C43.5531 109.801 48.3659 111.031 50.7559 111.507C53.4916 112.051 60.7617 113.499 69.4688 111.096C73.5174 109.979 77.3117 108.216 80.7488 105.853C84.2631 103.437 87.4502 100.311 89.9674 96.81C92.9374 92.6786 94.2902 89.0257 95.1845 86.6086C96.4988 83.0586 97.4474 79.0786 97.9288 75.0986C98.4702 70.6243 98.4088 65.8172 97.7516 61.1943C97.4817 59.2986 96.6002 54.2415 94.2374 48.23C92.3174 43.3472 89.7531 38.6857 86.6159 34.3743C84.5688 31.5615 80.7574 26.3257 74.1274 21.5886C70.6402 19.0972 66.6588 16.9586 62.9159 15.57C60.3116 14.6029 53.3959 12.0357 44.3117 12.7672C38.3617 13.2472 33.9674 14.9243 32.3531 15.6229C30.4774 16.4357 25.6017 18.84 20.8674 23.6043C19.3145 25.1672 15.3802 29.5386 12.4088 36.3386C9.63308 42.6915 9.07737 48.1243 8.81023 50.7357C8.54165 53.3543 8.2588 58.7443 9.37165 65.41C9.84594 68.2529 10.8459 72.7215 12.9159 77.8743C14.6259 82.1314 16.4631 85.3272 17.4045 86.8529C18.9559 89.3643 21.6602 93.2172 25.7331 97.3072L25.7359 97.31Z" fill="black"/>
</g>
<g id="Group_4">
<path id="Vector_5" d="M53.3562 83.7441C53.3576 86.0713 53.3605 88.3999 53.3619 90.727L53.3562 83.7441Z" fill="white"/>
<path id="Vector_6" d="M53.3591 83.4585C53.5162 83.4585 53.6448 83.5871 53.6448 83.7442V90.7271C53.6448 90.8842 53.5162 91.0128 53.3591 91.0128C53.2019 91.0128 53.0734 90.8842 53.0734 90.7271V83.7442C53.0734 83.5871 53.2019 83.4585 53.3591 83.4585Z" fill="black"/>
</g>
<g id="Group_5">
<path id="Vector_7" d="M53.3535 41.39C53.3592 39.0543 53.3649 36.72 53.3707 34.3843L53.3535 41.39Z" fill="white"/>
<path id="Vector_8" d="M53.3534 41.6758C53.1962 41.6758 53.0677 41.5472 53.0691 41.3901L53.0862 34.3843C53.0862 34.2272 53.2148 34.0986 53.372 34.0986C53.5291 34.0986 53.6577 34.2272 53.6562 34.3843L53.6391 41.3901C53.6391 41.5472 53.5105 41.6758 53.3534 41.6758Z" fill="black"/>
</g>
<g id="Group_6">
<path id="Vector_9" d="M43.8526 53.2215C43.874 52.5515 43.9526 51.6229 44.2112 50.5486C44.434 49.6229 45.024 47.2872 46.9797 45.0843C47.7412 44.2272 49.4869 42.3129 52.444 41.6001C53.3683 41.3772 55.3497 40.9286 57.5983 41.7915C60.1897 42.7858 61.4226 44.8629 61.8226 45.5615C63.1997 47.9658 63.0326 50.3029 62.944 51.5272C62.9126 51.9686 62.7769 53.4972 62.0369 55.3215C61.7126 56.1215 60.9669 57.9058 59.2212 59.5686C57.974 60.7572 56.7426 61.3843 56.2383 61.6215C54.5783 62.4015 53.064 62.6958 53.064 62.6958C52.674 62.7715 52.2297 62.8358 51.594 63.0572C50.8483 63.3158 50.3169 63.6229 49.9383 63.8443C49.6383 64.0201 48.9255 64.4558 48.124 65.1543C46.524 66.5501 45.6426 68.0658 45.4269 68.4472C44.9397 69.3115 44.1383 70.9758 43.8997 73.2201C43.7955 74.1958 43.6397 75.8301 44.2812 77.7786C44.8212 79.4158 45.6583 80.4686 45.8797 80.7372C47.1383 82.2686 48.5655 82.9443 48.9112 83.1001C49.3583 83.3029 51.1383 84.0586 53.4697 83.7443C55.394 83.4843 56.6897 82.6315 57.5512 82.0501C59.3969 80.8029 60.3955 79.3272 61.0112 78.3986C61.454 77.7315 62.0497 76.8172 62.4912 75.4629C62.9769 73.9729 63.0397 72.6658 63.0169 71.8115" fill="white"/>
<path id="Vector_10" d="M52.3521 40.9939C52.7206 40.9939 53.1064 41.0167 53.5078 41.071C55.5378 41.3453 56.8978 42.2624 57.7106 42.8124C59.6421 44.1167 60.6878 45.6953 61.2492 46.5424C61.6678 47.1739 62.3006 48.1296 62.7621 49.5467C63.1549 50.7524 63.3364 52.0139 63.3006 53.2939C63.2964 53.451 63.1635 53.5753 63.0078 53.571C62.8506 53.5667 62.7264 53.4353 62.7306 53.2782C62.7635 52.0624 62.5921 50.8667 62.2192 49.7239C61.7821 48.3796 61.1749 47.4639 60.7735 46.8582C60.1949 45.9867 59.2278 44.5267 57.3921 43.2853C56.6206 42.7653 55.3306 41.8939 53.4335 41.6367C51.3278 41.3524 49.6535 41.9767 49.0321 42.2582C48.5292 42.4853 47.2364 43.1653 46.1049 44.5424C45.7292 44.9996 45.0278 45.981 44.5564 47.4096C43.9206 49.3396 44.0935 50.971 44.1878 51.8482C44.3606 53.4753 44.8764 55.0867 45.6792 56.511C45.9864 57.0553 46.8564 58.4567 48.3149 59.7296C48.8664 60.211 49.4778 60.6524 50.0849 61.0082C50.4321 61.211 50.9549 61.5182 51.6892 61.7724C52.2092 61.9524 52.5964 62.0253 52.9392 62.0882C53.0021 62.0996 53.0621 62.111 53.1206 62.1224L53.1206 62.1253C53.4178 62.1796 54.8549 62.511 56.3621 63.2182C57.1278 63.5782 58.2806 64.2353 59.4206 65.3224C61.2464 67.0624 62.0149 68.9567 62.3049 69.6696C62.9906 71.3582 63.1792 72.8253 63.2321 73.551C63.3235 74.8253 63.4949 77.1996 62.0735 79.6796C60.9921 81.5667 59.5221 82.8782 57.7035 83.5753C55.3249 84.4867 53.2606 83.9896 52.3792 83.7767C49.2735 83.0282 47.4535 80.9767 46.7678 80.2039C44.7249 77.901 44.1306 75.4282 43.9349 74.6167C43.7206 73.7253 43.5978 72.8067 43.5692 71.8853C43.5649 71.7282 43.6878 71.5953 43.8464 71.591C44.0049 71.591 44.1364 71.7096 44.1406 71.8682C44.1678 72.7496 44.2864 73.6296 44.4906 74.4824C44.6778 75.261 45.2464 77.6282 47.1949 79.8239C47.8478 80.5596 49.5821 82.5139 52.5135 83.2196C53.3435 83.4196 55.2864 83.8882 57.4992 83.0396C59.1906 82.391 60.5635 81.1639 61.5778 79.3939C62.9121 77.0639 62.7492 74.8053 62.6621 73.591C62.6121 72.8996 62.4306 71.4982 61.7749 69.8839C61.4978 69.2024 60.7635 67.391 59.0264 65.7353C57.9421 64.701 56.8464 64.0767 56.1192 63.7353C54.5121 62.981 53.0278 62.6867 53.0121 62.6839L52.8349 62.651C52.4735 62.5839 52.0635 62.5067 51.5021 62.3124C50.7149 62.0396 50.1621 61.7153 49.7964 61.501C49.1592 61.1282 48.5178 60.6639 47.9392 60.1596C46.4692 58.8767 45.5806 57.4982 45.1821 56.791C44.3406 55.2996 43.8006 53.611 43.6192 51.9082C43.5206 50.9882 43.3392 49.2767 44.0135 47.231C44.5135 45.7139 45.2621 44.6682 45.6635 44.1796C46.8721 42.7096 48.2578 41.9824 48.7978 41.7382C49.3464 41.4896 50.6564 40.9939 52.3564 40.9939L52.3521 40.9939Z" fill="black"/>
</g>
</g>
<g id="add">
<g id="Group_7">
<path id="Vector_11" d="M120.681 98.3399C120.393 100.314 119.854 103.766 117.599 107.465C116.002 110.081 114.175 111.791 113.379 112.49C112.442 113.311 111.577 113.928 110.91 114.362C107.722 115.889 104.533 117.416 101.341 118.943C105.752 116.395 107.968 112.794 108.843 111.334C111.103 107.558 111.637 104.127 111.925 102.141C112.823 95.9464 111.369 91.1128 110.699 88.9721C109.874 86.3358 108.242 82.3322 104.956 78.3253C103.72 76.8184 101.212 73.8194 96.902 71.3561C94.5218 69.9955 90.3469 67.6818 84.6102 67.8532C81.8325 67.9363 79.5089 68.5784 77.8223 69.2271C80.5052 67.8947 83.1881 66.5608 85.8693 65.2285C87.2515 64.7261 89.1577 64.1822 91.473 63.951C94.427 63.6533 96.7307 63.9926 97.6888 64.1606C101.25 64.786 103.732 66.1316 105.237 66.96C106.083 67.429 109.327 69.2803 112.592 72.8447C113.42 73.7496 115.277 75.8869 117.003 79.0605C119.219 83.1339 120.112 86.8764 120.506 89.3048C120.789 91.0479 121.279 94.2332 120.681 98.3399Z" fill="#FF535E"/>
<path id="Vector_12" d="M101.343 119.276C101.223 119.276 101.109 119.211 101.049 119.098C100.966 118.94 101.022 118.743 101.177 118.655C105.606 116.095 107.83 112.383 108.56 111.162C110.834 107.366 111.331 103.935 111.599 102.092C112.506 95.8498 110.965 90.9247 110.385 89.0701C109.176 85.2013 107.263 81.6568 104.701 78.5364C103.62 77.2174 101.09 74.1303 96.7391 71.6453C94.5186 70.3762 90.3836 68.0144 84.622 68.1857C82.3466 68.2539 80.0994 68.7096 77.9438 69.5363C77.7775 69.5995 77.5912 69.5213 77.5196 69.36C77.4481 69.197 77.518 69.0073 77.676 68.9275C79.4607 68.041 81.2454 67.1544 83.0302 66.2679L85.7231 64.9306C85.7347 64.9256 85.7463 64.9206 85.758 64.9156C87.5893 64.2503 89.5021 63.8145 91.4415 63.6199C93.5655 63.4053 95.7461 63.4802 97.7487 63.8328C101.425 64.4782 104.011 65.9036 105.4 66.6687C106.907 67.5037 109.878 69.3866 112.84 72.62C114.518 74.453 116.06 76.6253 117.298 78.9023C119.056 82.1325 120.247 85.6154 120.837 89.2514C121.095 90.8415 121.632 94.1482 121.013 98.388C120.737 100.282 120.222 103.809 117.885 107.638C116.429 110.023 114.753 111.728 113.6 112.739C112.815 113.429 111.972 114.068 111.093 114.642C111.082 114.65 111.068 114.657 111.055 114.663C108.931 115.681 106.807 116.698 104.683 117.714L101.486 119.244C101.44 119.266 101.391 119.277 101.343 119.277V119.276ZM85.1991 67.5104C90.8477 67.5104 95.0243 69.8989 97.0685 71.0665C101.526 73.613 104.111 76.7667 105.215 78.1139C107.832 81.3008 109.784 84.9202 111.019 88.8722C111.611 90.765 113.184 95.7949 112.256 102.189C111.982 104.078 111.471 107.594 109.129 111.505C108.572 112.436 107.168 114.781 104.612 117.01C106.657 116.031 108.702 115.053 110.747 114.073C111.592 113.521 112.404 112.904 113.161 112.24C114.277 111.259 115.905 109.604 117.316 107.292C119.581 103.579 120.084 100.141 120.353 98.2931C120.957 94.1548 120.431 90.9164 120.178 89.3595C119.6 85.7967 118.434 82.3853 116.71 79.2217C115.498 76.9912 113.988 74.8638 112.346 73.0708C109.448 69.9072 106.546 68.0676 105.076 67.2526C103.722 66.5057 101.198 65.1152 97.6307 64.4898C96.2751 64.2503 94.1128 64.0208 91.5047 64.2836C89.6252 64.4715 87.7739 64.894 85.9992 65.5377L83.3229 66.8667C82.631 67.211 81.939 67.5553 81.2471 67.8979C82.3515 67.6817 83.4709 67.5569 84.597 67.5237C84.7983 67.517 84.9979 67.5154 85.1958 67.5154L85.1991 67.5104Z" fill="black"/>
</g>
<g id="Group_8">
<path id="Vector_13" d="M102.054 93.8792C98.4613 97.2823 94.8669 100.687 91.2742 104.092C88.3551 105.477 85.4377 106.865 82.5186 108.25C88.7343 102.362 94.9518 96.4706 101.169 90.5825C101.455 91.3443 101.823 92.472 102.054 93.8792Z" fill="#FF444F"/>
<path id="Vector_14" d="M82.5209 108.583C82.4145 108.583 82.3097 108.531 82.2465 108.438C82.1533 108.303 82.1733 108.12 82.2914 108.009L100.942 90.3411C101.024 90.2645 101.137 90.2329 101.245 90.2579C101.353 90.2828 101.443 90.361 101.481 90.4642C101.892 91.5536 102.194 92.6847 102.384 93.824C102.402 93.9338 102.364 94.0436 102.284 94.1201C98.6916 97.5232 95.0972 100.928 91.5044 104.333C91.4795 104.356 91.4496 104.376 91.4179 104.391L82.6623 108.549C82.6157 108.571 82.5675 108.581 82.5193 108.581L82.5209 108.583ZM101.03 91.1727L84.2707 107.051L91.087 103.814C94.6248 100.462 98.1626 97.1107 101.699 93.7592C101.544 92.8859 101.321 92.0177 101.03 91.1727Z" fill="black"/>
</g>
<g id="Group_9">
<path id="Vector_15" d="M99.0063 106.436C96.0655 109.724 92.2466 110.329 91.4565 110.439C86.7128 111.096 83.2597 108.781 82.5079 108.249C85.427 106.863 88.3445 105.476 91.2636 104.09C91.8125 104.423 92.5293 104.812 93.3993 105.176C93.7585 105.324 94.7864 105.739 96.2019 106.051C96.9354 106.213 97.8819 106.374 99.0079 106.434L99.0063 106.436Z" fill="#FF444F"/>
<path id="Vector_16" d="M89.7648 110.89C86.1038 110.89 83.4026 109.29 82.3182 108.522C82.2217 108.453 82.1685 108.339 82.1784 108.222C82.1884 108.104 82.2599 108.001 82.3664 107.951L91.122 103.793C91.2235 103.745 91.3416 103.751 91.4364 103.809C92.1 104.212 92.8036 104.57 93.5288 104.874C94.3738 105.223 95.3235 105.521 96.2733 105.731C97.1748 105.93 98.0996 106.057 99.026 106.106C99.1541 106.113 99.2656 106.193 99.3155 106.311C99.3637 106.429 99.3421 106.566 99.2556 106.66C96.4579 109.787 92.9018 110.577 91.5029 110.772C90.9025 110.855 90.3203 110.892 89.7631 110.892L89.7648 110.89ZM83.1831 108.299C84.6335 109.214 87.5991 110.639 91.4148 110.11C92.6622 109.937 95.7211 109.263 98.2859 106.715C97.5607 106.647 96.8388 106.534 96.1319 106.378C95.1439 106.16 94.1559 105.85 93.2743 105.486C92.5741 105.193 91.8938 104.851 91.2484 104.47L83.1831 108.3V108.299Z" fill="black"/>
</g>
<g id="Group_10">
<path id="Vector_17" d="M83.2448 84.3046C83.0369 85.0465 82.5013 87.1622 82.7575 89.9166C82.8107 90.5021 82.8955 91.0493 82.9953 91.5516C80.4056 94.02 77.8175 96.485 75.2277 98.9533C74.6755 97.6693 73.9403 95.5203 73.8971 92.7891C73.8705 91.2489 73.8621 88.2916 75.6835 85.2244C76.3355 84.1267 78.2716 81.2408 81.9874 79.8303C83.343 79.3147 84.6686 79.0985 85.9128 79.0752C85.1077 80.0965 83.9368 81.8529 83.2448 84.3046Z" fill="#FF444F"/>
<path id="Vector_18" d="M75.2307 99.2857C75.2091 99.2857 75.1858 99.284 75.1642 99.279C75.0577 99.2574 74.9679 99.1842 74.9246 99.0844C74.0581 97.0702 73.6007 94.9544 73.5674 92.7938C73.5424 91.3251 73.4909 88.2696 75.4004 85.0545C76.2802 83.5708 78.2912 80.8779 81.8723 79.519C83.158 79.03 84.5169 78.7688 85.9091 78.7422C86.0455 78.7406 86.1569 78.8121 86.2135 78.9269C86.27 79.0416 86.2567 79.1797 86.1769 79.2811C84.9727 80.808 84.0944 82.5296 83.5672 84.3958C83.2279 85.6017 82.8719 87.5328 83.0915 89.8864C83.1414 90.4203 83.2195 90.9592 83.3243 91.4881C83.346 91.5996 83.311 91.716 83.2279 91.7942C80.6514 94.2492 78.0783 96.7009 75.5018 99.156L75.4602 99.1959C75.397 99.2558 75.3155 99.2874 75.2307 99.2874V99.2857ZM85.2238 79.4425C84.151 79.5273 83.1064 79.7618 82.1085 80.1411C78.717 81.4285 76.8092 83.9849 75.9725 85.3938C74.1595 88.4476 74.2094 91.3767 74.2327 92.7838C74.2627 94.6983 74.6386 96.5778 75.3521 98.3775C77.7805 96.0639 80.2073 93.7519 82.6374 91.4366C82.5442 90.9442 82.4744 90.4436 82.4295 89.9462C82.1999 87.4912 82.5742 85.4736 82.9285 84.2145C83.4142 82.493 84.1859 80.8912 85.2238 79.4425Z" fill="black"/>
</g>
<g id="Group_11">
<g id="Vector_19">
<path fill-rule="evenodd" clip-rule="evenodd" d="M84.6015 67.5536C90.4296 67.3796 94.6663 69.7324 97.0528 71.0959C101.412 73.5868 103.949 76.6217 105.191 78.1352C108.509 82.1787 110.156 86.2218 110.989 88.8828C111.664 91.0375 113.133 95.9236 112.224 102.181C111.933 104.176 111.394 107.658 109.102 111.485C108.189 113.01 105.809 116.877 101.002 119.475C94.6965 122.884 88.5227 121.784 86.5132 121.397C80.0867 120.158 76.0927 116.529 73.9727 114.602L73.9699 114.6C72.9564 113.679 69.3862 110.308 66.7559 104.681C64.7515 100.392 64.167 96.6615 63.9636 94.8882C63.7446 92.9873 63.3737 89.4945 64.3902 85.1205C64.8384 83.199 65.7115 79.6011 68.5426 75.9012C71.3057 72.29 74.4499 70.5124 75.3992 70.0056C76.7959 69.2574 80.1146 67.6886 84.6015 67.5536ZM110.415 89.0585C109.598 86.4468 107.981 82.4812 104.727 78.5159C103.498 77.0189 101.018 74.0526 96.7552 71.6168C94.3846 70.2625 90.2716 67.9846 84.6195 68.1533M110.415 89.0585C111.082 91.187 112.52 95.9699 111.63 102.094C111.342 104.071 110.816 107.455 108.587 111.176C107.688 112.678 105.377 116.429 100.717 118.947C94.6039 122.252 88.609 121.189 86.6266 120.808C80.3716 119.602 76.4823 116.072 74.3734 114.156C73.3875 113.26 69.882 109.951 67.2995 104.427C65.332 100.217 64.7588 96.556 64.5597 94.8197C64.3429 92.9382 63.9819 89.5281 64.9747 85.2563C65.418 83.3555 66.2682 79.861 69.0191 76.2658C71.7083 72.7513 74.7682 71.0226 75.6818 70.5348C77.0364 69.8092 80.2615 68.2844 84.6195 68.1533" fill="#0E0E0E"/>
<path d="M89.1063 109.112C89.1371 109.121 89.1688 109.125 89.2005 109.124C89.2041 109.124 89.2077 109.124 89.2112 109.124C89.3188 109.122 89.421 109.074 89.4958 108.993C89.5705 108.911 89.6119 108.802 89.6109 108.688L89.4885 99.8411L98.1687 102.148C98.2036 102.158 98.2394 102.163 98.2752 102.162C98.3021 102.162 98.329 102.159 98.3555 102.153C98.4173 102.14 98.4753 102.112 98.5249 102.07C98.5738 102.029 98.613 101.975 98.6394 101.915C98.6659 101.855 98.6789 101.789 98.6776 101.722L98.5602 95.467C98.5566 95.2737 98.4291 95.1035 98.2537 95.0561L89.3311 92.6152L89.1393 83.5596C89.1357 83.3663 89.0104 83.1983 88.835 83.1509L82.7292 81.4629C82.6929 81.4528 82.6555 81.448 82.6182 81.4487C82.5928 81.4491 82.5675 81.452 82.5426 81.4575C82.4808 81.4709 82.4229 81.4993 82.3734 81.5404C82.3239 81.5815 82.284 81.6342 82.2571 81.6943C82.2301 81.7544 82.2168 81.8203 82.2181 81.8869L82.3846 90.7587L73.6895 88.4747C73.6542 88.4647 73.6179 88.46 73.5815 88.4605C73.5558 88.4608 73.5301 88.4638 73.5047 88.4694C73.4436 88.483 73.3864 88.5115 73.3377 88.5526C73.2888 88.5945 73.2496 88.6477 73.2232 88.708C73.1967 88.7684 73.1837 88.8343 73.185 88.9008L73.3026 95.1652C73.3048 95.2591 73.3359 95.3498 73.3912 95.4235C73.4464 95.4972 73.5229 95.55 73.609 95.5739L82.4962 97.9855L82.6674 107.111C82.6691 107.206 82.7008 107.299 82.7574 107.373C82.814 107.448 82.8925 107.501 82.9805 107.524L89.1063 109.112Z" fill="#FF444F"/>
<path fill-rule="evenodd" clip-rule="evenodd" d="M89.0006 108.461L83.2668 106.974L83.0894 97.5209L73.9019 95.0277L73.7912 89.1271L83.0013 91.5465L82.8243 82.1171L88.5349 83.6959L88.7336 93.0792L97.9555 95.602L98.0661 101.496L88.8704 99.0521L89.0006 108.461ZM98.5223 102.07C98.4726 102.112 98.4147 102.14 98.3529 102.154C98.3273 102.159 98.3012 102.162 98.2752 102.162C98.2385 102.163 98.2018 102.158 98.166 102.149L89.4859 99.8412L89.6083 108.689C89.6093 108.802 89.5679 108.911 89.4931 108.993C89.4184 109.074 89.3162 109.122 89.2086 109.124C89.2059 109.124 89.2032 109.124 89.2005 109.124C89.1679 109.125 89.1353 109.121 89.1037 109.112L82.9779 107.524C82.8899 107.501 82.8114 107.448 82.7548 107.373C82.6981 107.299 82.6665 107.206 82.6648 107.111L82.4935 97.9856L73.6064 95.5739C73.5203 95.55 73.4438 95.4972 73.3885 95.4235C73.3332 95.3498 73.3021 95.2592 73.2999 95.1653L73.1824 88.9009C73.181 88.8343 73.1941 88.7684 73.2205 88.7081C73.247 88.6477 73.2861 88.5946 73.335 88.5527C73.3838 88.5115 73.441 88.483 73.5021 88.4695C73.5283 88.4637 73.5549 88.4607 73.5815 88.4605C73.617 88.4602 73.6524 88.465 73.6869 88.4747L82.3819 90.7588L82.2154 81.8869C82.2141 81.8204 82.2275 81.7544 82.2545 81.6943C82.2814 81.6342 82.3212 81.5815 82.3707 81.5404C82.4203 81.4993 82.4782 81.471 82.5399 81.4575C82.5658 81.4519 82.592 81.4489 82.6182 81.4487C82.6546 81.4483 82.6911 81.453 82.7265 81.4629L88.8324 83.151C89.0078 83.1983 89.1331 83.3663 89.1367 83.5596L89.3284 92.6152L98.251 95.0561C98.4264 95.1035 98.5539 95.2738 98.5576 95.4671L98.6749 101.722C98.6763 101.789 98.6632 101.855 98.6368 101.915C98.6103 101.975 98.5712 102.029 98.5223 102.07Z" fill="#0E0E0E"/>
<path fill-rule="evenodd" clip-rule="evenodd" d="M104.727 78.5159C107.981 82.4812 109.598 86.4468 110.415 89.0585C111.082 91.187 112.52 95.9699 111.63 102.094C111.342 104.071 110.816 107.455 108.587 111.176C107.688 112.678 105.377 116.429 100.717 118.947C94.6039 122.252 88.609 121.189 86.6266 120.808C80.3716 119.602 76.4823 116.072 74.3734 114.156C73.3875 113.26 69.882 109.951 67.2995 104.427C65.332 100.217 64.7588 96.556 64.5597 94.8197C64.3429 92.9382 63.9819 89.5281 64.9747 85.2563C65.418 83.3555 66.2682 79.861 69.0191 76.2658C71.7083 72.7513 74.7682 71.0226 75.6818 70.5348C77.0364 69.8092 80.2615 68.2844 84.6195 68.1533C90.2716 67.9846 94.3846 70.2625 96.7552 71.6168C101.018 74.0526 103.498 77.0189 104.727 78.5159ZM89.2005 109.124C89.2041 109.124 89.2077 109.124 89.2112 109.124C89.3188 109.122 89.421 109.074 89.4958 108.993C89.5705 108.911 89.6119 108.802 89.6109 108.688L89.4885 99.8411L98.166 102.149C98.2018 102.158 98.2385 102.163 98.2752 102.162C98.3021 102.162 98.329 102.159 98.3555 102.153C98.4173 102.14 98.4753 102.112 98.5249 102.07C98.5738 102.029 98.613 101.975 98.6394 101.915C98.6659 101.855 98.6789 101.789 98.6776 101.722L98.5602 95.467C98.5566 95.2737 98.4291 95.1035 98.2537 95.0561L89.3311 92.6152L89.1393 83.5596C89.1357 83.3663 89.0104 83.1983 88.835 83.1509L82.7292 81.4629C82.6929 81.4528 82.6555 81.448 82.6182 81.4487C82.592 81.4489 82.5658 81.4519 82.5399 81.4575C82.4782 81.471 82.4203 81.4993 82.3707 81.5404C82.3212 81.5815 82.2814 81.6342 82.2545 81.6943C82.2275 81.7544 82.2141 81.8204 82.2154 81.8869L82.3819 90.7588L73.6895 88.4747C73.6542 88.4647 73.6179 88.46 73.5815 88.4605C73.5549 88.4607 73.5283 88.4637 73.5021 88.4695C73.441 88.483 73.3838 88.5115 73.335 88.5527C73.2861 88.5946 73.247 88.6477 73.2205 88.7081C73.1941 88.7684 73.181 88.8343 73.1824 88.9009L73.2999 95.1653C73.3021 95.2592 73.3332 95.3498 73.3885 95.4235C73.4438 95.4972 73.5203 95.55 73.6064 95.5739L82.4935 97.9856L82.6648 107.111C82.6665 107.206 82.6981 107.299 82.7548 107.373C82.8114 107.448 82.8899 107.501 82.9779 107.524L89.1037 109.112C89.1353 109.121 89.1679 109.125 89.2005 109.124Z" fill="#FF7E88"/>
</g>
</g>
</g>
</g>
</g>
</svg>
