<svg width="518" height="330" viewBox="0 0 518 330" fill="none" xmlns="http://www.w3.org/2000/svg">
<g id="illustration / deriv / light / credit-card-sample" clip-path="url(#clip0_2016_93)">
<g id="Group" filter="url(#filter0_dd_2016_93)">
<path id="Vector" d="M12 28C12 12.536 24.536 0 40 0H478C493.464 0 506 12.536 506 28V278C506 293.464 493.464 306 478 306H40C24.536 306 12 293.464 12 278V28Z" fill="white"/>
<path id="Vector_2" d="M69.543 206.959C70.6094 207.686 71.4062 208.529 71.9336 209.49C72.4609 210.439 72.7246 211.506 72.7246 212.689C72.7246 213.967 72.373 215.15 71.6699 216.24C70.9785 217.318 69.9707 218.139 68.6465 218.701C67.3223 219.252 65.5879 219.527 63.4434 219.527C60.6543 219.527 58.5566 219.094 57.1504 218.227C56.3652 217.734 55.9727 217.148 55.9727 216.469C55.9727 215.953 56.1426 215.52 56.4824 215.168C56.834 214.805 57.2559 214.623 57.748 214.623C58.0879 214.623 58.4395 214.74 58.8027 214.975C59.3184 215.326 59.8047 215.561 60.2617 215.678C60.9648 215.842 61.9316 215.924 63.1621 215.924C65.2598 215.924 66.7773 215.654 67.7148 215.115C68.6523 214.564 69.1211 213.791 69.1211 212.795C69.1211 212.057 68.8457 211.348 68.2949 210.668C67.7559 209.977 67.0293 209.443 66.1152 209.068C65.5879 208.857 64.6973 208.711 63.4434 208.629C62.8457 208.594 62.3828 208.412 62.0547 208.084C61.7383 207.744 61.5801 207.328 61.5801 206.836C61.5801 206.32 61.7559 205.887 62.1074 205.535C62.459 205.184 62.9043 205.008 63.4434 205.008C64.6387 205.008 65.2773 205.002 65.3594 204.99C65.8281 204.943 66.2969 204.791 66.7656 204.533C67.2344 204.275 67.6094 203.924 67.8906 203.479C68.1836 203.021 68.3301 202.553 68.3301 202.072C68.3301 201.311 67.9902 200.654 67.3105 200.104C66.6426 199.541 65.6348 199.26 64.2871 199.26C62.5527 199.26 61.2285 199.764 60.3145 200.771C60.0449 201.064 59.8281 201.252 59.6641 201.334C59.418 201.463 59.1426 201.527 58.8379 201.527C58.3457 201.527 57.9238 201.352 57.5723 201C57.2207 200.648 57.0449 200.215 57.0449 199.699C57.0449 198.891 57.584 198.105 58.6621 197.344C60.2324 196.23 62.1953 195.674 64.5508 195.674C66.7773 195.674 68.5645 196.307 69.9121 197.572C71.2598 198.838 71.9336 200.361 71.9336 202.143C71.9336 203.068 71.7344 203.936 71.3359 204.744C70.9375 205.541 70.3398 206.279 69.543 206.959Z" fill="#536E86"/>
<path id="Vector_3" d="M87.8594 195.674V215.396H91.498C92.3652 215.396 92.9805 215.566 93.3438 215.906C93.7188 216.234 93.9062 216.668 93.9062 217.207C93.9062 217.734 93.7188 218.168 93.3438 218.508C92.9805 218.836 92.3652 219 91.498 219H80.6172C79.75 219 79.1289 218.836 78.7539 218.508C78.3906 218.168 78.209 217.729 78.209 217.189C78.209 216.662 78.3906 216.234 78.7539 215.906C79.1289 215.566 79.75 215.396 80.6172 215.396H84.2559V200.367L81.0391 201.211C80.5234 201.352 80.1367 201.422 79.8789 201.422C79.4219 201.422 79.0234 201.24 78.6836 200.877C78.3555 200.514 78.1914 200.068 78.1914 199.541C78.1914 199.061 78.3145 198.686 78.5605 198.416C78.8066 198.135 79.3223 197.889 80.1074 197.678L87.8594 195.674Z" fill="#536E86"/>
<path id="Vector_4" d="M112.926 196.254V210.352C113.688 210.352 114.25 210.521 114.613 210.861C114.977 211.189 115.158 211.617 115.158 212.145C115.158 212.672 114.971 213.105 114.596 213.445C114.232 213.785 113.676 213.955 112.926 213.955V215.396C113.688 215.396 114.25 215.566 114.613 215.906C114.977 216.246 115.158 216.68 115.158 217.207C115.158 217.734 114.971 218.168 114.596 218.508C114.232 218.836 113.617 219 112.75 219H107.916C107.049 219 106.428 218.836 106.053 218.508C105.689 218.168 105.508 217.729 105.508 217.189C105.508 216.662 105.689 216.234 106.053 215.906C106.428 215.566 107.049 215.396 107.916 215.396H109.322V213.955H99.5312V210.949L108.162 196.254H112.926ZM109.322 210.352V201.492L104.102 210.352H109.322Z" fill="#536E86"/>
<path id="Vector_5" d="M125.898 215.396H133.791C134.225 215.045 134.635 214.869 135.021 214.869C135.572 214.869 136.006 215.051 136.322 215.414C136.65 215.777 136.814 216.398 136.814 217.277V219H120.396V215.186C126.889 209.83 130.809 206.385 132.156 204.85C132.836 204.064 133.176 203.32 133.176 202.617C133.176 201.738 132.789 200.965 132.016 200.297C131.254 199.617 130.234 199.277 128.957 199.277C127.668 199.277 126.596 199.652 125.74 200.402C125.295 200.801 124.938 201.393 124.668 202.178C124.504 202.67 124.275 203.021 123.982 203.232C123.701 203.443 123.35 203.549 122.928 203.549C122.436 203.549 122.008 203.373 121.645 203.021C121.293 202.67 121.117 202.26 121.117 201.791C121.117 201.088 121.439 200.209 122.084 199.154C122.74 198.1 123.689 197.256 124.932 196.623C126.186 195.99 127.545 195.674 129.01 195.674C131.283 195.674 133.146 196.365 134.6 197.748C136.053 199.119 136.779 200.783 136.779 202.74C136.779 203.736 136.568 204.662 136.146 205.518C135.736 206.361 134.74 207.533 133.158 209.033C131.916 210.217 129.496 212.338 125.898 215.396Z" fill="#536E86"/>
<path id="Vector_6" d="M169.475 199.857V204.146C170.811 203.725 172.023 203.514 173.113 203.514C175.328 203.514 177.168 204.27 178.633 205.781C180.098 207.293 180.83 209.244 180.83 211.635C180.83 214.096 180.086 216.029 178.598 217.436C177.121 218.83 174.854 219.527 171.795 219.527C169.1 219.527 166.967 219.018 165.396 217.998C164.482 217.412 164.025 216.738 164.025 215.977C164.025 215.496 164.201 215.08 164.553 214.729C164.916 214.365 165.344 214.184 165.836 214.184C166.246 214.184 166.691 214.383 167.172 214.781C167.652 215.168 168.156 215.438 168.684 215.59C169.434 215.812 170.395 215.924 171.566 215.924C173.746 215.924 175.234 215.578 176.031 214.887C176.828 214.184 177.227 213.111 177.227 211.67C177.227 210.252 176.84 209.139 176.066 208.33C175.305 207.521 174.32 207.117 173.113 207.117C171.812 207.117 170.33 207.539 168.666 208.383C168.291 208.582 167.963 208.682 167.682 208.682C167.166 208.682 166.732 208.494 166.381 208.119C166.041 207.744 165.871 207.258 165.871 206.66V196.254H176.893C177.76 196.254 178.375 196.424 178.738 196.764C179.113 197.092 179.301 197.525 179.301 198.064C179.301 198.592 179.113 199.025 178.738 199.365C178.375 199.693 177.76 199.857 176.893 199.857H169.475Z" fill="#536E86"/>
<path id="Vector_7" d="M199.199 209.543C198.297 210.316 197.471 210.867 196.721 211.195C195.971 211.512 195.18 211.67 194.348 211.67C192.414 211.67 190.721 210.896 189.268 209.35C187.826 207.803 187.105 205.881 187.105 203.584C187.105 201.791 187.604 200.162 188.6 198.697C189.959 196.682 191.875 195.674 194.348 195.674C196.117 195.674 197.664 196.207 198.988 197.273C200.312 198.328 201.285 199.857 201.906 201.861C202.527 203.854 202.838 205.934 202.838 208.102C202.838 211.781 201.414 214.734 198.566 216.961C196.363 218.672 193.949 219.527 191.324 219.527C189.871 219.527 188.746 219.234 187.949 218.648C187.41 218.262 187.141 217.752 187.141 217.119C187.141 216.604 187.311 216.176 187.65 215.836C188.002 215.484 188.43 215.309 188.934 215.309C189.215 215.309 189.531 215.396 189.883 215.572C190.34 215.807 190.82 215.924 191.324 215.924C193.141 215.924 194.816 215.309 196.352 214.078C197.887 212.836 198.836 211.324 199.199 209.543ZM198.689 203.865C198.303 202.201 197.729 201.023 196.967 200.332C196.217 199.629 195.355 199.277 194.383 199.277C193.363 199.277 192.496 199.67 191.781 200.455C191.066 201.229 190.709 202.26 190.709 203.549C190.709 204.896 191.066 205.986 191.781 206.818C192.508 207.65 193.334 208.066 194.26 208.066C195.889 208.066 197.365 206.666 198.689 203.865Z" fill="#536E86"/>
<path id="Vector_8" d="M393.789 209.543C392.887 210.316 392.061 210.867 391.311 211.195C390.561 211.512 389.77 211.67 388.938 211.67C387.004 211.67 385.311 210.896 383.857 209.35C382.416 207.803 381.695 205.881 381.695 203.584C381.695 201.791 382.193 200.162 383.189 198.697C384.549 196.682 386.465 195.674 388.938 195.674C390.707 195.674 392.254 196.207 393.578 197.273C394.902 198.328 395.875 199.857 396.496 201.861C397.117 203.854 397.428 205.934 397.428 208.102C397.428 211.781 396.004 214.734 393.156 216.961C390.953 218.672 388.539 219.527 385.914 219.527C384.461 219.527 383.336 219.234 382.539 218.648C382 218.262 381.73 217.752 381.73 217.119C381.73 216.604 381.9 216.176 382.24 215.836C382.592 215.484 383.02 215.309 383.523 215.309C383.805 215.309 384.121 215.396 384.473 215.572C384.93 215.807 385.41 215.924 385.914 215.924C387.73 215.924 389.406 215.309 390.941 214.078C392.477 212.836 393.426 211.324 393.789 209.543ZM393.279 203.865C392.893 202.201 392.318 201.023 391.557 200.332C390.807 199.629 389.945 199.277 388.973 199.277C387.953 199.277 387.086 199.67 386.371 200.455C385.656 201.229 385.299 202.26 385.299 203.549C385.299 204.896 385.656 205.986 386.371 206.818C387.098 207.65 387.924 208.066 388.85 208.066C390.479 208.066 391.955 206.666 393.279 203.865Z" fill="#536E86"/>
<path id="Vector_9" d="M414.057 199.857H405.812C405.766 200.561 405.584 201.07 405.268 201.387C404.951 201.691 404.535 201.844 404.02 201.844C403.48 201.844 403.041 201.662 402.701 201.299C402.373 200.936 402.209 200.32 402.209 199.453V196.254H417.854V199.857L412.018 217.225C411.771 217.951 411.496 218.438 411.191 218.684C410.898 218.918 410.541 219.035 410.119 219.035C409.615 219.035 409.182 218.859 408.818 218.508C408.467 218.156 408.291 217.752 408.291 217.295C408.291 217.037 408.385 216.627 408.572 216.064L414.057 199.857Z" fill="#536E86"/>
<path id="Vector_10" d="M437.031 209.543C436.129 210.316 435.303 210.867 434.553 211.195C433.803 211.512 433.012 211.67 432.18 211.67C430.246 211.67 428.553 210.896 427.1 209.35C425.658 207.803 424.938 205.881 424.938 203.584C424.938 201.791 425.436 200.162 426.432 198.697C427.791 196.682 429.707 195.674 432.18 195.674C433.949 195.674 435.496 196.207 436.82 197.273C438.145 198.328 439.117 199.857 439.738 201.861C440.359 203.854 440.67 205.934 440.67 208.102C440.67 211.781 439.246 214.734 436.398 216.961C434.195 218.672 431.781 219.527 429.156 219.527C427.703 219.527 426.578 219.234 425.781 218.648C425.242 218.262 424.973 217.752 424.973 217.119C424.973 216.604 425.143 216.176 425.482 215.836C425.834 215.484 426.262 215.309 426.766 215.309C427.047 215.309 427.363 215.396 427.715 215.572C428.172 215.807 428.652 215.924 429.156 215.924C430.973 215.924 432.648 215.309 434.184 214.078C435.719 212.836 436.668 211.324 437.031 209.543ZM436.521 203.865C436.135 202.201 435.561 201.023 434.799 200.332C434.049 199.629 433.188 199.277 432.215 199.277C431.195 199.277 430.328 199.67 429.613 200.455C428.898 201.229 428.541 202.26 428.541 203.549C428.541 204.896 428.898 205.986 429.613 206.818C430.34 207.65 431.166 208.066 432.092 208.066C433.721 208.066 435.197 206.666 436.521 203.865Z" fill="#536E86"/>
<path id="Vector_11" d="M458.723 206.959C459.789 207.686 460.586 208.529 461.113 209.49C461.641 210.439 461.904 211.506 461.904 212.689C461.904 213.967 461.553 215.15 460.85 216.24C460.158 217.318 459.15 218.139 457.826 218.701C456.502 219.252 454.768 219.527 452.623 219.527C449.834 219.527 447.736 219.094 446.33 218.227C445.545 217.734 445.152 217.148 445.152 216.469C445.152 215.953 445.322 215.52 445.662 215.168C446.014 214.805 446.436 214.623 446.928 214.623C447.268 214.623 447.619 214.74 447.982 214.975C448.498 215.326 448.984 215.561 449.441 215.678C450.145 215.842 451.111 215.924 452.342 215.924C454.439 215.924 455.957 215.654 456.895 215.115C457.832 214.564 458.301 213.791 458.301 212.795C458.301 212.057 458.025 211.348 457.475 210.668C456.936 209.977 456.209 209.443 455.295 209.068C454.768 208.857 453.877 208.711 452.623 208.629C452.025 208.594 451.562 208.412 451.234 208.084C450.918 207.744 450.76 207.328 450.76 206.836C450.76 206.32 450.936 205.887 451.287 205.535C451.639 205.184 452.084 205.008 452.623 205.008C453.818 205.008 454.457 205.002 454.539 204.99C455.008 204.943 455.477 204.791 455.945 204.533C456.414 204.275 456.789 203.924 457.07 203.479C457.363 203.021 457.51 202.553 457.51 202.072C457.51 201.311 457.17 200.654 456.49 200.104C455.822 199.541 454.814 199.26 453.467 199.26C451.732 199.26 450.408 199.764 449.494 200.771C449.225 201.064 449.008 201.252 448.844 201.334C448.598 201.463 448.322 201.527 448.018 201.527C447.525 201.527 447.104 201.352 446.752 201C446.4 200.648 446.225 200.215 446.225 199.699C446.225 198.891 446.764 198.105 447.842 197.344C449.412 196.23 451.375 195.674 453.73 195.674C455.957 195.674 457.744 196.307 459.092 197.572C460.439 198.838 461.113 200.361 461.113 202.143C461.113 203.068 460.914 203.936 460.516 204.744C460.117 205.541 459.52 206.279 458.723 206.959Z" fill="#536E86"/>
<path id="Vector_12" d="M67.4452 259.082V261.719C67.4452 263.281 66.9921 264.777 66.0858 266.207C65.1874 267.637 63.8983 268.352 62.2188 268.352C61.2499 268.352 60.4297 268.141 59.7578 267.719C59.0938 267.289 58.4609 266.504 57.8594 265.363C57.2656 264.215 56.9688 263 56.9688 261.719V259.082C56.9688 257.527 57.4179 256.035 58.3163 254.605C59.2147 253.168 60.5039 252.449 62.1836 252.449C63.1445 252.449 63.957 252.66 64.6211 253.082C65.293 253.504 65.9296 254.289 66.5311 255.438C67.1405 256.578 67.4452 257.793 67.4452 259.082ZM65.0311 259.082C65.0311 257.777 64.6679 256.637 63.9413 255.66C63.5272 255.121 62.9453 254.852 62.1953 254.852C61.4688 254.852 60.875 255.148 60.4141 255.742C59.7188 256.641 59.3711 257.754 59.3711 259.082V261.719C59.3711 263.031 59.7382 264.172 60.4726 265.141C60.8788 265.68 61.4608 265.949 62.2188 265.949C62.9374 265.949 63.5273 265.652 63.9883 265.059C64.6836 264.16 65.0311 263.047 65.0311 261.719V259.082Z" fill="#536E86"/>
<path id="Vector_13" d="M74.3594 259.797C74.9375 259.312 75.4883 258.961 76.0117 258.742C76.5352 258.516 77.0938 258.402 77.6875 258.402C78.9453 258.402 80.0469 258.902 80.9922 259.902C81.9375 260.902 82.4102 262.156 82.4102 263.664C82.4102 265.062 81.9688 266.195 81.0859 267.062C80.2109 267.922 79.0195 268.352 77.5117 268.352C76.2539 268.352 75.2188 268.059 74.4062 267.473C73.5938 266.887 72.9805 265.984 72.5664 264.766C72.1523 263.547 71.9453 262.188 71.9453 260.688C71.9453 258.891 72.3555 257.398 73.1758 256.211C73.9961 255.016 74.9609 254.09 76.0703 253.434C77.1797 252.777 78.3516 252.449 79.5859 252.449C80.5625 252.449 81.3203 252.641 81.8594 253.023C82.2109 253.281 82.3867 253.609 82.3867 254.008C82.3867 254.359 82.2695 254.656 82.0352 254.898C81.8008 255.133 81.5195 255.25 81.1914 255.25C81.0039 255.25 80.7344 255.156 80.3828 254.969C80.1719 254.859 79.9688 254.805 79.7734 254.805C79.0078 254.805 78.2148 255.023 77.3945 255.461C76.5742 255.891 75.8633 256.555 75.2617 257.453C74.8477 258.078 74.5469 258.859 74.3594 259.797ZM74.7109 263.512C74.9609 264.449 75.2969 265.09 75.7188 265.434C76.1484 265.777 76.7578 265.949 77.5469 265.949C78.3359 265.949 78.9414 265.742 79.3633 265.328C79.793 264.914 80.0078 264.352 80.0078 263.641C80.0078 262.828 79.7617 262.152 79.2695 261.613C78.7852 261.074 78.2383 260.805 77.6289 260.805C77.1445 260.805 76.625 261.043 76.0703 261.52C75.5234 261.996 75.0703 262.66 74.7109 263.512Z" fill="#536E86"/>
<path id="Vector_14" d="M95.9805 253.117L88.2812 269.711C88.0859 270.125 87.9102 270.395 87.7539 270.52C87.5508 270.684 87.3047 270.766 87.0156 270.766C86.6875 270.766 86.4023 270.648 86.1602 270.414C85.9258 270.18 85.8086 269.914 85.8086 269.617C85.8086 269.406 85.9023 269.098 86.0898 268.691L93.8125 252.109C94.0078 251.695 94.1797 251.426 94.3281 251.301C94.5391 251.137 94.7852 251.055 95.0664 251.055C95.3945 251.055 95.6758 251.172 95.9102 251.406C96.1445 251.633 96.2617 251.895 96.2617 252.191C96.2617 252.402 96.168 252.711 95.9805 253.117Z" fill="#536E86"/>
<path id="Vector_15" d="M106.668 252.449V265.598H109.094C109.672 265.598 110.082 265.711 110.324 265.938C110.574 266.156 110.699 266.445 110.699 266.805C110.699 267.156 110.574 267.445 110.324 267.672C110.082 267.891 109.672 268 109.094 268H101.84C101.262 268 100.848 267.891 100.598 267.672C100.355 267.445 100.234 267.152 100.234 266.793C100.234 266.441 100.355 266.156 100.598 265.938C100.848 265.711 101.262 265.598 101.84 265.598H104.266V255.578L102.121 256.141C101.777 256.234 101.52 256.281 101.348 256.281C101.043 256.281 100.777 256.16 100.551 255.918C100.332 255.676 100.223 255.379 100.223 255.027C100.223 254.707 100.305 254.457 100.469 254.277C100.633 254.09 100.977 253.926 101.5 253.785L106.668 252.449Z" fill="#536E86"/>
<path id="Vector_16" d="M117.836 255.238V258.098C118.727 257.816 119.535 257.676 120.262 257.676C121.738 257.676 122.965 258.18 123.941 259.188C124.918 260.195 125.406 261.496 125.406 263.09C125.406 264.73 124.91 266.02 123.918 266.957C122.934 267.887 121.422 268.352 119.383 268.352C117.586 268.352 116.164 268.012 115.117 267.332C114.508 266.941 114.203 266.492 114.203 265.984C114.203 265.664 114.32 265.387 114.555 265.152C114.797 264.91 115.082 264.789 115.41 264.789C115.684 264.789 115.98 264.922 116.301 265.188C116.621 265.445 116.957 265.625 117.309 265.727C117.809 265.875 118.449 265.949 119.23 265.949C120.684 265.949 121.676 265.719 122.207 265.258C122.738 264.789 123.004 264.074 123.004 263.113C123.004 262.168 122.746 261.426 122.23 260.887C121.723 260.348 121.066 260.078 120.262 260.078C119.395 260.078 118.406 260.359 117.297 260.922C117.047 261.055 116.828 261.121 116.641 261.121C116.297 261.121 116.008 260.996 115.773 260.746C115.547 260.496 115.434 260.172 115.434 259.773V252.836H122.781C123.359 252.836 123.77 252.949 124.012 253.176C124.262 253.395 124.387 253.684 124.387 254.043C124.387 254.395 124.262 254.684 124.012 254.91C123.77 255.129 123.359 255.238 122.781 255.238H117.836Z" fill="#536E86"/>
<path id="Vector_17" d="M73.5767 54.7886L78.4814 56.3438C77.7295 59.0781 76.4762 61.1118 74.7217 62.4448C72.9785 63.7664 70.7625 64.4272 68.0737 64.4272C64.7469 64.4272 62.0125 63.2936 59.8706 61.0264C57.7287 58.7477 56.6577 55.6374 56.6577 51.6953C56.6577 47.5254 57.7344 44.2897 59.8877 41.9883C62.041 39.6755 64.8722 38.519 68.3813 38.519C71.4461 38.519 73.9355 39.4248 75.8496 41.2363C76.9889 42.3073 77.8434 43.8454 78.4131 45.8506L73.4058 47.0469C73.1095 45.748 72.4886 44.7227 71.543 43.9707C70.6087 43.2188 69.4694 42.8428 68.125 42.8428C66.2679 42.8428 64.7583 43.5093 63.5962 44.8423C62.4455 46.1753 61.8701 48.3343 61.8701 51.3193C61.8701 54.4867 62.4398 56.7425 63.5791 58.0869C64.7184 59.4313 66.1995 60.1035 68.0225 60.1035C69.3669 60.1035 70.5233 59.6763 71.4917 58.8218C72.4601 57.9673 73.1551 56.6229 73.5767 54.7886Z" fill="#536E86"/>
<path id="Vector_18" d="M87.4023 64H82.6001V45.8506H87.0605V48.4312C87.8239 47.2121 88.5075 46.4089 89.1113 46.0215C89.7266 45.6341 90.4215 45.4404 91.1963 45.4404C92.29 45.4404 93.3439 45.7424 94.3579 46.3462L92.8711 50.5332C92.0622 50.0091 91.3102 49.7471 90.6152 49.7471C89.943 49.7471 89.3734 49.9351 88.9062 50.311C88.4391 50.6756 88.0688 51.3421 87.7954 52.3105C87.5334 53.279 87.4023 55.307 87.4023 58.3945V64Z" fill="#536E86"/>
<path id="Vector_19" d="M106.953 58.2236L111.738 59.0269C111.123 60.7814 110.149 62.1201 108.816 63.043C107.494 63.9544 105.837 64.4102 103.843 64.4102C100.687 64.4102 98.3512 63.3791 96.8359 61.3169C95.6396 59.6649 95.0415 57.5799 95.0415 55.062C95.0415 52.0542 95.8276 49.7015 97.3999 48.0039C98.9722 46.2949 100.96 45.4404 103.364 45.4404C106.064 45.4404 108.195 46.3348 109.756 48.1235C111.317 49.9009 112.063 52.6296 111.995 56.3096H99.9634C99.9976 57.7337 100.385 58.8446 101.125 59.6421C101.866 60.4282 102.789 60.8213 103.894 60.8213C104.646 60.8213 105.278 60.6162 105.791 60.2061C106.304 59.7959 106.691 59.1351 106.953 58.2236ZM107.227 53.3701C107.192 51.9801 106.833 50.9263 106.15 50.2085C105.466 49.4793 104.635 49.1147 103.655 49.1147C102.607 49.1147 101.741 49.4964 101.057 50.2598C100.374 51.0231 100.037 52.0599 100.049 53.3701H107.227Z" fill="#536E86"/>
<path id="Vector_20" d="M132.571 64H128.11V61.334C127.37 62.3708 126.493 63.1455 125.479 63.6582C124.476 64.1595 123.462 64.4102 122.437 64.4102C120.352 64.4102 118.563 63.5728 117.07 61.8979C115.589 60.2118 114.849 57.8647 114.849 54.8569C114.849 51.7808 115.572 49.4451 117.019 47.8501C118.466 46.2437 120.295 45.4404 122.505 45.4404C124.533 45.4404 126.287 46.2835 127.769 47.9697V38.9463H132.571V64ZM119.753 54.5322C119.753 56.4691 120.021 57.8704 120.557 58.7363C121.331 59.9896 122.414 60.6162 123.804 60.6162C124.909 60.6162 125.849 60.1491 126.624 59.2148C127.398 58.2692 127.786 56.8621 127.786 54.9937C127.786 52.9087 127.41 51.4105 126.658 50.499C125.906 49.5762 124.943 49.1147 123.77 49.1147C122.63 49.1147 121.673 49.5705 120.898 50.4819C120.135 51.382 119.753 52.7321 119.753 54.5322Z" fill="#536E86"/>
<path id="Vector_21" d="M137.322 43.3896V38.9463H142.124V43.3896H137.322ZM137.322 64V45.8506H142.124V64H137.322Z" fill="#536E86"/>
<path id="Vector_22" d="M155.386 45.8506V49.6787H152.104V56.9932C152.104 58.4743 152.133 59.3402 152.19 59.5908C152.258 59.8301 152.401 60.0295 152.617 60.189C152.845 60.3485 153.118 60.4282 153.438 60.4282C153.882 60.4282 154.526 60.2744 155.369 59.9668L155.779 63.6924C154.662 64.1709 153.398 64.4102 151.985 64.4102C151.119 64.4102 150.339 64.2677 149.644 63.9829C148.949 63.6867 148.436 63.3107 148.105 62.855C147.786 62.3879 147.564 61.7612 147.439 60.9751C147.336 60.4168 147.285 59.2889 147.285 57.5913V49.6787H145.081V45.8506H147.285V42.2446L152.104 39.4419V45.8506H155.386Z" fill="#536E86"/>
<path id="Vector_23" d="M177.312 55.1816L180.627 55.6431C179.579 58.5369 178.053 60.7244 176.047 62.2056C174.042 63.6867 171.792 64.4272 169.297 64.4272C166.255 64.4272 163.84 63.4987 162.051 61.6416C160.273 59.7845 159.385 57.1242 159.385 53.6606C159.385 49.1489 160.741 45.4176 163.452 42.4668C165.868 39.835 168.87 38.519 172.458 38.519C175.113 38.519 177.261 39.2311 178.901 40.6553C180.553 42.0794 181.51 43.9935 181.772 46.3975L178.645 46.688C178.315 44.8765 177.631 43.5264 176.594 42.6377C175.569 41.7376 174.242 41.2876 172.612 41.2876C169.548 41.2876 167.069 42.6491 165.178 45.3721C163.538 47.7191 162.717 50.5047 162.717 53.729C162.717 56.3039 163.35 58.2692 164.614 59.625C165.879 60.9808 167.525 61.6587 169.553 61.6587C171.285 61.6587 172.852 61.0947 174.253 59.9668C175.654 58.8389 176.674 57.2438 177.312 55.1816Z" fill="#536E86"/>
<path id="Vector_24" d="M194.897 61.7441C193.826 62.667 192.795 63.3449 191.804 63.7778C190.813 64.1994 189.753 64.4102 188.625 64.4102C186.951 64.4102 185.601 63.9202 184.575 62.9404C183.55 61.9492 183.037 60.6846 183.037 59.1465C183.037 58.1325 183.265 57.2381 183.721 56.4634C184.188 55.6772 184.803 55.0506 185.566 54.5835C186.33 54.105 187.264 53.7632 188.369 53.5581C189.064 53.4214 190.38 53.3132 192.317 53.2334C194.265 53.1536 195.661 52.9486 196.504 52.6182C196.743 51.7751 196.863 51.0744 196.863 50.5161C196.863 49.7983 196.601 49.2344 196.077 48.8242C195.359 48.2546 194.311 47.9697 192.932 47.9697C191.633 47.9697 190.568 48.2603 189.736 48.8413C188.916 49.411 188.318 50.2256 187.942 51.2852L184.814 51.0117C185.452 49.2116 186.461 47.833 187.839 46.876C189.229 45.9189 190.978 45.4404 193.086 45.4404C195.33 45.4404 197.108 45.9759 198.418 47.0469C199.421 47.8444 199.922 48.8812 199.922 50.1572C199.922 51.1257 199.779 52.2479 199.495 53.5239L198.486 58.0356C198.167 59.4712 198.008 60.639 198.008 61.5391C198.008 62.1087 198.133 62.929 198.384 64H195.256C195.085 63.4076 194.966 62.6556 194.897 61.7441ZM196.042 54.8057C195.61 54.9766 195.142 55.1076 194.641 55.1987C194.151 55.2899 193.325 55.3867 192.163 55.4893C190.363 55.6488 189.093 55.8538 188.352 56.1045C187.611 56.3438 187.053 56.7311 186.677 57.2666C186.301 57.8021 186.113 58.3945 186.113 59.0439C186.113 59.9098 186.41 60.6219 187.002 61.1802C187.606 61.7384 188.46 62.0176 189.565 62.0176C190.591 62.0176 191.576 61.7498 192.522 61.2144C193.468 60.6675 194.214 59.9098 194.761 58.9414C195.308 57.973 195.735 56.5944 196.042 54.8057Z" fill="#536E86"/>
<path id="Vector_25" d="M202.144 64L205.938 45.8506H208.672L207.903 49.5591C208.837 48.1577 209.749 47.1209 210.637 46.4487C211.537 45.7765 212.454 45.4404 213.389 45.4404C214.004 45.4404 214.762 45.6626 215.662 46.1069L214.397 48.978C213.861 48.5907 213.275 48.397 212.637 48.397C211.554 48.397 210.444 49.0008 209.304 50.2085C208.165 51.4162 207.271 53.5866 206.621 56.7197L205.083 64H202.144Z" fill="#536E86"/>
<path id="Vector_26" d="M226.035 61.3682C224.269 63.3962 222.424 64.4102 220.498 64.4102C218.778 64.4102 217.342 63.7778 216.191 62.5132C215.052 61.2371 214.482 59.3914 214.482 56.9761C214.482 54.7658 214.932 52.7492 215.833 50.9263C216.744 49.092 217.878 47.7191 219.233 46.8076C220.601 45.8962 221.968 45.4404 223.335 45.4404C225.591 45.4404 227.294 46.5285 228.445 48.7046L230.496 38.9463H233.572L228.342 64H225.488L226.035 61.3682ZM217.559 56.395C217.559 57.6597 217.684 58.6566 217.935 59.3857C218.185 60.1149 218.612 60.7244 219.216 61.2144C219.82 61.6929 220.544 61.9321 221.387 61.9321C222.788 61.9321 224.058 61.203 225.198 59.7446C226.724 57.8078 227.488 55.4152 227.488 52.5669C227.488 51.1313 227.112 50.0091 226.36 49.2002C225.608 48.3913 224.662 47.9868 223.523 47.9868C222.782 47.9868 222.104 48.152 221.489 48.4824C220.885 48.8128 220.282 49.3768 219.678 50.1743C219.085 50.9604 218.584 51.9631 218.174 53.1821C217.764 54.4012 217.559 55.4722 217.559 56.395Z" fill="#536E86"/>
<path id="Vector_27" d="M394.758 42.8203H401.625C402.984 42.8203 403.996 42.8789 404.66 42.9961C405.332 43.1055 405.93 43.3398 406.453 43.6992C406.984 44.0586 407.426 44.5391 407.777 45.1406C408.129 45.7344 408.305 46.4023 408.305 47.1445C408.305 47.9492 408.086 48.6875 407.648 49.3594C407.219 50.0312 406.633 50.5352 405.891 50.8711C406.938 51.1758 407.742 51.6953 408.305 52.4297C408.867 53.1641 409.148 54.0273 409.148 55.0195C409.148 55.8008 408.965 56.5625 408.598 57.3047C408.238 58.0391 407.742 58.6289 407.109 59.0742C406.484 59.5117 405.711 59.7812 404.789 59.8828C404.211 59.9453 402.816 59.9844 400.605 60H394.758V42.8203ZM398.227 45.6797V49.6523H400.5C401.852 49.6523 402.691 49.6328 403.02 49.5938C403.613 49.5234 404.078 49.3203 404.414 48.9844C404.758 48.6406 404.93 48.1914 404.93 47.6367C404.93 47.1055 404.781 46.6758 404.484 46.3477C404.195 46.0117 403.762 45.8086 403.184 45.7383C402.84 45.6992 401.852 45.6797 400.219 45.6797H398.227ZM398.227 52.5117V57.1055H401.438C402.688 57.1055 403.48 57.0703 403.816 57C404.332 56.9062 404.75 56.6797 405.07 56.3203C405.398 55.9531 405.562 55.4648 405.562 54.8555C405.562 54.3398 405.438 53.9023 405.188 53.543C404.938 53.1836 404.574 52.9219 404.098 52.7578C403.629 52.5938 402.605 52.5117 401.027 52.5117H398.227Z" fill="#536E86"/>
<path id="Vector_28" d="M427.582 60H423.809L422.309 56.0977H415.441L414.023 60H410.344L417.035 42.8203H420.703L427.582 60ZM421.195 53.2031L418.828 46.8281L416.508 53.2031H421.195Z" fill="#536E86"/>
<path id="Vector_29" d="M429.469 60V42.8203H432.844L439.875 54.293V42.8203H443.098V60H439.617L432.691 48.7969V60H429.469Z" fill="#536E86"/>
<path id="Vector_30" d="M446.824 60V42.8203H450.293V50.4492L457.301 42.8203H461.965L455.496 49.5117L462.316 60H457.828L453.105 51.9375L450.293 54.8086V60H446.824Z" fill="#536E86"/>
<path id="Vector_31" d="M67.5 99C60.1042 99 54.0479 104.735 53.5352 112H77.5V99H67.5Z" fill="#536E86"/>
<path id="Vector_32" d="M81.5 99V164H97.5V112H125.465C124.952 104.735 118.896 99 111.5 99H81.5Z" fill="#536E86"/>
<path id="Vector_33" d="M125.5 116H101.5V130H125.5V116Z" fill="#536E86"/>
<path id="Vector_34" d="M125.5 134H101.5V147H125.5V134Z" fill="#536E86"/>
<path id="Vector_35" d="M125.465 151H101.5V164H111.5C118.896 164 124.952 158.265 125.465 151Z" fill="#536E86"/>
<path id="Vector_36" d="M77.5 164V151H53.5352C54.0479 158.265 60.1042 164 67.5 164H77.5Z" fill="#536E86"/>
<path id="Vector_37" d="M53.5 147H77.5V134H53.5V147Z" fill="#536E86"/>
<path id="Vector_38" d="M53.5 130H77.5V116H53.5V130Z" fill="#536E86"/>
<path id="Vector_39" d="M41 142.5V121L30 132L41 142.5Z" fill="#536E86"/>
<path id="Vector_40" d="M208 188H360V224H208V188Z" fill="#231F20"/>
</g>
</g>
<defs>
<filter id="filter0_dd_2016_93" x="-4" y="-4" width="526" height="338" filterUnits="userSpaceOnUse" color-interpolation-filters="sRGB">
<feFlood flood-opacity="0" result="BackgroundImageFix"/>
<feColorMatrix in="SourceAlpha" type="matrix" values="0 0 0 0 0 0 0 0 0 0 0 0 0 0 0 0 0 0 127 0" result="hardAlpha"/>
<feOffset dy="4"/>
<feGaussianBlur stdDeviation="3"/>
<feColorMatrix type="matrix" values="0 0 0 0 0.054902 0 0 0 0 0.054902 0 0 0 0 0.054902 0 0 0 0.03 0"/>
<feBlend mode="normal" in2="BackgroundImageFix" result="effect1_dropShadow_2016_93"/>
<feColorMatrix in="SourceAlpha" type="matrix" values="0 0 0 0 0 0 0 0 0 0 0 0 0 0 0 0 0 0 127 0" result="hardAlpha"/>
<feOffset dy="12"/>
<feGaussianBlur stdDeviation="8"/>
<feColorMatrix type="matrix" values="0 0 0 0 0.054902 0 0 0 0 0.054902 0 0 0 0 0.054902 0 0 0 0.08 0"/>
<feBlend mode="normal" in2="effect1_dropShadow_2016_93" result="effect2_dropShadow_2016_93"/>
<feBlend mode="normal" in="SourceGraphic" in2="effect2_dropShadow_2016_93" result="shape"/>
</filter>
<clipPath id="clip0_2016_93">
<rect width="518" height="330" fill="white"/>
</clipPath>
</defs>
</svg>
