<svg width="256" height="159" viewBox="0 0 256 159" fill="none" xmlns="http://www.w3.org/2000/svg">
<g id="illustration / deriv / light / ic-payment-methods-wallet">
<path id="Vector" d="M138.314 117.182L70.514 45.465C70.1717 45.1015 69.9873 44.6173 70.0012 44.1182C70.0151 43.6191 70.2261 43.1459 70.588 42.802L115.098 0.731988C115.369 0.476302 115.71 0.30661 116.077 0.24432C116.444 0.18203 116.822 0.229934 117.162 0.381988C117.387 0.481988 117.591 0.626988 117.761 0.806988L185.558 72.527C185.9 72.8906 186.085 73.3752 186.071 73.8745C186.057 74.3738 185.845 74.8472 185.483 75.191L140.982 117.244C140.713 117.503 140.372 117.676 140.004 117.74C139.636 117.805 139.258 117.759 138.916 117.608C138.689 117.507 138.485 117.362 138.314 117.182Z" fill="#F2F3F4"/>
<path id="Vector_2" d="M185.08 71.785L118.269 1.11499C117.794 0.612397 117.14 0.318575 116.449 0.297988C116.107 0.287966 115.766 0.34571 115.446 0.467902C115.126 0.590093 114.833 0.77432 114.585 1.00999L101.943 12.964C101.818 13.0809 101.724 13.2268 101.668 13.3889C101.613 13.5509 101.599 13.7241 101.627 13.893C102.893 20.963 107.948 27.283 113.976 31.471C121.256 36.531 129.886 39.199 138.068 42.576C146.251 45.953 154.5 50.404 159.419 57.785C164.058 64.755 165.153 73.397 167.514 81.439C168.156 83.6241 168.958 85.7589 169.914 87.826C170.019 88.0529 170.201 88.2348 170.428 88.3386C170.656 88.4424 170.913 88.4614 171.153 88.392C171.312 88.346 171.458 88.263 171.579 88.15L184.979 75.482C185.23 75.2468 185.432 74.9642 185.573 74.6505C185.714 74.3369 185.791 73.9983 185.801 73.6546C185.81 73.3108 185.751 72.9685 185.627 72.6476C185.504 72.3267 185.318 72.0335 185.08 71.785Z" fill="#BBCCCE"/>
<path id="Vector_3" d="M194.765 66.4761H82.743C80.7168 66.4761 78.7735 67.281 77.3407 68.7138C75.908 70.1466 75.103 72.0898 75.103 74.1161V151.225C75.1033 153.251 75.9083 155.194 77.3411 156.627C78.7738 158.059 80.7169 158.864 82.743 158.864H194.765C196.791 158.864 198.734 158.059 200.167 156.627C201.599 155.194 202.404 153.251 202.404 151.225V74.1151C202.404 72.0892 201.599 70.1463 200.166 68.7138C198.734 67.2813 196.791 66.4763 194.765 66.4761Z" fill="#D4E9EB"/>
<path id="Vector_4" d="M188.326 71H184.832C184.832 71.0663 184.806 71.1299 184.759 71.1768C184.712 71.2237 184.648 71.25 184.582 71.25H180.589C180.523 71.25 180.459 71.2237 180.412 71.1768C180.365 71.1299 180.339 71.0663 180.339 71H176.845C176.845 71.0663 176.819 71.1299 176.772 71.1768C176.725 71.2237 176.661 71.25 176.595 71.25H172.601C172.535 71.25 172.471 71.2237 172.424 71.1768C172.377 71.1299 172.351 71.0663 172.351 71H168.857C168.857 71.0663 168.831 71.1299 168.784 71.1768C168.737 71.2237 168.673 71.25 168.607 71.25H164.614C164.548 71.25 164.484 71.2237 164.437 71.1768C164.39 71.1299 164.364 71.0663 164.364 71H160.87C160.87 71.0663 160.844 71.1299 160.797 71.1768C160.75 71.2237 160.686 71.25 160.62 71.25H156.626C156.56 71.25 156.496 71.2237 156.449 71.1768C156.402 71.1299 156.376 71.0663 156.376 71H152.882C152.882 71.0663 152.856 71.1299 152.809 71.1768C152.762 71.2237 152.698 71.25 152.632 71.25H148.639C148.573 71.25 148.509 71.2237 148.462 71.1768C148.415 71.1299 148.389 71.0663 148.389 71H144.895C144.895 71.0663 144.869 71.1299 144.822 71.1768C144.775 71.2237 144.711 71.25 144.645 71.25H140.651C140.585 71.25 140.521 71.2237 140.474 71.1768C140.427 71.1299 140.401 71.0663 140.401 71H136.907C136.907 71.0663 136.881 71.1299 136.834 71.1768C136.787 71.2237 136.723 71.25 136.657 71.25H132.664C132.598 71.25 132.534 71.2237 132.487 71.1768C132.44 71.1299 132.414 71.0663 132.414 71H128.92C128.92 71.0663 128.894 71.1299 128.847 71.1768C128.8 71.2237 128.736 71.25 128.67 71.25H124.676C124.61 71.25 124.546 71.2237 124.499 71.1768C124.452 71.1299 124.426 71.0663 124.426 71H120.932C120.932 71.0663 120.906 71.1299 120.859 71.1768C120.812 71.2237 120.748 71.25 120.682 71.25H116.689C116.623 71.25 116.559 71.2237 116.512 71.1768C116.465 71.1299 116.439 71.0663 116.439 71H112.945C112.945 71.0663 112.919 71.1299 112.872 71.1768C112.825 71.2237 112.761 71.25 112.695 71.25H108.701C108.635 71.25 108.571 71.2237 108.524 71.1768C108.477 71.1299 108.451 71.0663 108.451 71H104.958C104.958 71.0663 104.932 71.1299 104.885 71.1768C104.838 71.2237 104.774 71.25 104.708 71.25H100.714C100.648 71.25 100.584 71.2237 100.537 71.1768C100.49 71.1299 100.464 71.0663 100.464 71H96.9701C96.9701 71.0663 96.9437 71.1299 96.8968 71.1768C96.8499 71.2237 96.7864 71.25 96.7201 71.25H92.7261C92.6597 71.25 92.5962 71.2237 92.5493 71.1768C92.5024 71.1299 92.4761 71.0663 92.4761 71H88.9831C88.9831 71.0663 88.9567 71.1299 88.9098 71.1768C88.8629 71.2237 88.7994 71.25 88.7331 71.25H86.7361C85.8211 71.25 84.9491 71.424 84.1531 71.739C84.0921 71.7632 84.0241 71.7625 83.9637 71.7371C83.9033 71.7116 83.8553 71.6635 83.8301 71.603C82.2913 72.269 81.0424 73.4647 80.3101 74.973C80.3697 75.0001 80.4164 75.0496 80.4399 75.1107C80.4635 75.1719 80.4621 75.2399 80.4361 75.3C80.0844 76.1087 79.9033 76.9812 79.9041 77.863V79.787C79.9041 79.8533 79.8777 79.9169 79.8308 79.9638C79.7839 80.0107 79.7204 80.037 79.6541 80.037V83.386C79.7204 83.386 79.7839 83.4123 79.8308 83.4592C79.8777 83.5061 79.9041 83.5697 79.9041 83.636V87.485C79.9041 87.5513 79.8777 87.6149 79.8308 87.6618C79.7839 87.7087 79.7204 87.735 79.6541 87.735V91.083C79.7204 91.083 79.7839 91.1093 79.8308 91.1562C79.8777 91.2031 79.9041 91.2667 79.9041 91.333V95.182C79.9041 95.2483 79.8777 95.3119 79.8308 95.3588C79.7839 95.4057 79.7204 95.432 79.6541 95.432V98.78C79.7204 98.78 79.7839 98.8063 79.8308 98.8532C79.8777 98.9001 79.9041 98.9637 79.9041 99.03V102.879C79.9041 102.945 79.8777 103.009 79.8308 103.056C79.7839 103.103 79.7204 103.129 79.6541 103.129V106.477C79.7204 106.477 79.7839 106.503 79.8308 106.55C79.8777 106.597 79.9041 106.661 79.9041 106.727V110.576C79.9041 110.642 79.8777 110.706 79.8308 110.753C79.7839 110.8 79.7204 110.826 79.6541 110.826V114.174C79.7204 114.174 79.7839 114.2 79.8308 114.247C79.8777 114.294 79.9041 114.358 79.9041 114.424V118.273C79.9041 118.339 79.8777 118.403 79.8308 118.45C79.7839 118.497 79.7204 118.523 79.6541 118.523V121.871C79.7204 121.871 79.7839 121.897 79.8308 121.944C79.8777 121.991 79.9041 122.055 79.9041 122.121V125.97C79.9041 126.036 79.8777 126.1 79.8308 126.147C79.7839 126.194 79.7204 126.22 79.6541 126.22V129.568C79.7204 129.568 79.7839 129.594 79.8308 129.641C79.8777 129.688 79.9041 129.752 79.9041 129.818V133.667C79.9041 133.733 79.8777 133.797 79.8308 133.844C79.7839 133.891 79.7204 133.917 79.6541 133.917V137.265C79.7204 137.265 79.7839 137.291 79.8308 137.338C79.8777 137.385 79.9041 137.449 79.9041 137.515V141.364C79.9041 141.43 79.8777 141.494 79.8308 141.541C79.7839 141.588 79.7204 141.614 79.6541 141.614V144.963C79.7204 144.963 79.7839 144.989 79.8308 145.036C79.8777 145.083 79.9041 145.147 79.9041 145.213V147.137C79.9041 148.046 80.0941 148.912 80.4361 149.7C80.4622 149.76 80.4637 149.828 80.4403 149.889C80.417 149.95 80.3705 150 80.3111 150.027C81.043 151.535 82.2916 152.731 83.8301 153.397C83.8553 153.337 83.9033 153.288 83.9637 153.263C84.0241 153.237 84.0921 153.237 84.1531 153.261C84.9755 153.585 85.8519 153.751 86.7361 153.75H88.7321C88.7984 153.75 88.8619 153.776 88.9088 153.823C88.9557 153.87 88.9821 153.934 88.9821 154H92.4761C92.4761 153.934 92.5024 153.87 92.5493 153.823C92.5962 153.776 92.6597 153.75 92.7261 153.75H96.7201C96.7864 153.75 96.8499 153.776 96.8968 153.823C96.9437 153.87 96.9701 153.934 96.9701 154H100.464C100.464 153.934 100.49 153.87 100.537 153.823C100.584 153.776 100.648 153.75 100.714 153.75H104.708C104.774 153.75 104.838 153.776 104.885 153.823C104.932 153.87 104.958 153.934 104.958 154H108.451C108.451 153.934 108.477 153.87 108.524 153.823C108.571 153.776 108.635 153.75 108.701 153.75H112.695C112.761 153.75 112.825 153.776 112.872 153.823C112.919 153.87 112.945 153.934 112.945 154H116.439C116.439 153.934 116.465 153.87 116.512 153.823C116.559 153.776 116.623 153.75 116.689 153.75H120.682C120.748 153.75 120.812 153.776 120.859 153.823C120.906 153.87 120.932 153.934 120.932 154H124.426C124.426 153.934 124.452 153.87 124.499 153.823C124.546 153.776 124.61 153.75 124.676 153.75H128.67C128.736 153.75 128.8 153.776 128.847 153.823C128.894 153.87 128.92 153.934 128.92 154H132.414C132.414 153.934 132.44 153.87 132.487 153.823C132.534 153.776 132.598 153.75 132.664 153.75H136.657C136.723 153.75 136.787 153.776 136.834 153.823C136.881 153.87 136.907 153.934 136.907 154H140.401C140.401 153.934 140.427 153.87 140.474 153.823C140.521 153.776 140.585 153.75 140.651 153.75H144.645C144.711 153.75 144.775 153.776 144.822 153.823C144.869 153.87 144.895 153.934 144.895 154H148.389C148.389 153.934 148.415 153.87 148.462 153.823C148.509 153.776 148.573 153.75 148.639 153.75H152.632C152.698 153.75 152.762 153.776 152.809 153.823C152.856 153.87 152.882 153.934 152.882 154H156.376C156.376 153.934 156.402 153.87 156.449 153.823C156.496 153.776 156.56 153.75 156.626 153.75H160.62C160.686 153.75 160.75 153.776 160.797 153.823C160.844 153.87 160.87 153.934 160.87 154H164.364C164.364 153.934 164.39 153.87 164.437 153.823C164.484 153.776 164.548 153.75 164.614 153.75H168.607C168.673 153.75 168.737 153.776 168.784 153.823C168.831 153.87 168.857 153.934 168.857 154H172.351C172.351 153.934 172.377 153.87 172.424 153.823C172.471 153.776 172.535 153.75 172.601 153.75H176.595C176.661 153.75 176.725 153.776 176.772 153.823C176.819 153.87 176.845 153.934 176.845 154H180.339C180.339 153.934 180.365 153.87 180.412 153.823C180.459 153.776 180.523 153.75 180.589 153.75H184.582C184.648 153.75 184.712 153.776 184.759 153.823C184.806 153.87 184.832 153.934 184.832 154H188.326C188.326 153.934 188.352 153.87 188.399 153.823C188.446 153.776 188.51 153.75 188.576 153.75H190.573C191.488 153.75 192.36 153.576 193.156 153.261C193.283 153.211 193.426 153.272 193.479 153.397C195.017 152.731 196.266 151.535 196.998 150.027C196.938 150 196.892 149.95 196.868 149.889C196.845 149.828 196.846 149.76 196.872 149.7C197.224 148.891 197.405 148.019 197.404 147.137V145.213C197.404 145.147 197.43 145.083 197.477 145.036C197.524 144.989 197.588 144.963 197.654 144.963V141.614C197.588 141.614 197.524 141.588 197.477 141.541C197.43 141.494 197.404 141.43 197.404 141.364V137.515C197.404 137.449 197.43 137.385 197.477 137.338C197.524 137.291 197.588 137.265 197.654 137.265V133.917C197.588 133.917 197.524 133.891 197.477 133.844C197.43 133.797 197.404 133.733 197.404 133.667V129.818C197.404 129.752 197.43 129.688 197.477 129.641C197.524 129.594 197.588 129.568 197.654 129.568V126.22C197.588 126.22 197.524 126.194 197.477 126.147C197.43 126.1 197.404 126.036 197.404 125.97V122.121C197.404 122.055 197.43 121.991 197.477 121.944C197.524 121.897 197.588 121.871 197.654 121.871V118.523C197.588 118.523 197.524 118.497 197.477 118.45C197.43 118.403 197.404 118.339 197.404 118.273V114.424C197.404 114.358 197.43 114.294 197.477 114.247C197.524 114.2 197.588 114.174 197.654 114.174V110.826C197.588 110.826 197.524 110.8 197.477 110.753C197.43 110.706 197.404 110.642 197.404 110.576V106.727C197.404 106.661 197.43 106.597 197.477 106.55C197.524 106.503 197.588 106.477 197.654 106.477V103.129C197.588 103.129 197.524 103.103 197.477 103.056C197.43 103.009 197.404 102.945 197.404 102.879V99.03C197.404 98.9637 197.43 98.9001 197.477 98.8532C197.524 98.8063 197.588 98.78 197.654 98.78V95.432C197.588 95.432 197.524 95.4057 197.477 95.3588C197.43 95.3119 197.404 95.2483 197.404 95.182V91.333C197.404 91.2667 197.43 91.2031 197.477 91.1562C197.524 91.1093 197.588 91.083 197.654 91.083V87.734C197.588 87.734 197.524 87.7077 197.477 87.6608C197.43 87.6139 197.404 87.5503 197.404 87.484V83.636C197.404 83.5697 197.43 83.5061 197.477 83.4592C197.524 83.4123 197.588 83.386 197.654 83.386V80.037C197.588 80.037 197.524 80.0107 197.477 79.9638C197.43 79.9169 197.404 79.8533 197.404 79.787V77.863C197.404 76.954 197.215 76.088 196.872 75.3C196.846 75.2399 196.845 75.1719 196.868 75.1107C196.892 75.0496 196.938 75.0001 196.998 74.973C196.266 73.465 195.017 72.2694 193.479 71.603C193.454 71.6635 193.406 71.7116 193.345 71.7371C193.285 71.7625 193.217 71.7632 193.156 71.739C192.334 71.4145 191.457 71.2485 190.573 71.25H188.576C188.51 71.25 188.446 71.2237 188.399 71.1768C188.352 71.1299 188.326 71.0663 188.326 71Z" stroke="#FFF9E8" stroke-width="0.5" stroke-linecap="round" stroke-linejoin="round" stroke-dasharray="4 4"/>
<path id="Vector_5" d="M197.944 72.1701C198.814 72.0182 199.703 72.0182 200.573 72.1701C199.703 72.3219 198.814 72.3219 197.944 72.1701ZM82.7431 104.275C82.5912 102.64 82.5912 100.995 82.7431 99.3601C82.8951 100.995 82.8951 102.64 82.7431 104.275ZM82.7431 114.109C82.5912 112.474 82.5912 110.829 82.7431 109.194C82.8951 110.829 82.8951 112.474 82.7431 114.109ZM82.7431 123.922C82.5912 122.289 82.5912 120.645 82.7431 119.011C82.8949 120.645 82.8949 122.289 82.7431 123.922Z" fill="#263238"/>
<path id="Vector_6" opacity="0.3" d="M119.013 117.719C119.013 117.719 119.039 122.099 117.699 124.728C116.359 127.356 115.947 128.399 113.143 129.415C110.34 130.431 75.0681 134.308 75.0681 134.308V122.406L119.013 117.719ZM118.396 101.205C118.396 101.205 118.799 96.732 107.58 95.072C94.7501 93.175 75.1031 90.845 75.1031 90.845V99.303L118.396 101.205Z" fill="#6AB1BA"/>
<path id="Vector_7" d="M112.762 97.1479H76.268C75.4448 97.1479 74.6296 97.3101 73.8691 97.6252C73.1086 97.9402 72.4176 98.402 71.8355 98.9842C71.2535 99.5663 70.7918 100.257 70.4768 101.018C70.1619 101.779 69.9999 102.594 70 103.417V119.756C70 121.418 70.6604 123.013 71.8359 124.188C73.0113 125.364 74.6056 126.024 76.268 126.024H112.762C113.585 126.024 114.4 125.862 115.161 125.547C115.922 125.232 116.613 124.77 117.195 124.188C117.777 123.606 118.239 122.915 118.554 122.155C118.869 121.394 119.031 120.579 119.031 119.756V103.417C119.031 101.754 118.371 100.16 117.195 98.9841C116.019 97.8084 114.425 97.1479 112.762 97.1479Z" fill="#2A8F9D"/>
<path id="Vector_8" d="M104.259 122.168C110.056 122.168 114.755 117.469 114.755 111.673C114.755 105.876 110.056 101.177 104.259 101.177C98.4629 101.177 93.7639 105.876 93.7639 111.673C93.7639 117.469 98.4629 122.168 104.259 122.168Z" fill="#19565E"/>
<path id="Vector_9" d="M104.154 119C106.143 119 108.051 118.21 109.457 116.803C110.864 115.397 111.654 113.489 111.654 111.5C111.654 109.511 110.864 107.603 109.457 106.197C108.051 104.79 106.143 104 104.154 104C102.165 104 100.257 104.79 98.8508 106.197C97.4442 107.603 96.6541 109.511 96.6541 111.5C96.6541 113.489 97.4442 115.397 98.8508 116.803C100.257 118.21 102.165 119 104.154 119Z" fill="#D4E9EB"/>
<path id="Vector_10" d="M255.701 22.6C255.967 25.4578 255.596 28.339 254.614 31.0358C253.631 33.7326 252.062 36.1777 250.02 38.1945C247.978 40.2113 245.514 41.7495 242.805 42.6981C240.096 43.6467 237.21 43.9821 234.356 43.68C229.565 43.1733 225.134 40.9014 221.926 37.3067C218.718 33.712 216.963 29.052 217.003 24.2343C217.043 19.4166 218.875 14.7862 222.141 11.245C225.408 7.70382 229.876 5.50543 234.675 5.07801C239.786 4.6181 244.87 6.20485 248.812 9.48995C252.754 12.7751 255.232 17.4901 255.701 22.6Z" fill="#FFC71B"/>
<path id="Vector_11" d="M251.058 22.5389C250.97 22.5389 250.852 21.9119 250.515 20.7869C250.042 19.2345 249.333 17.7642 248.412 16.4279C247.777 15.516 247.042 14.6772 246.222 13.9269C245.284 13.0657 244.239 12.3296 243.112 11.7369C241.871 11.0875 240.541 10.6242 239.165 10.3619C237.693 10.0783 236.186 10.0246 234.697 10.2029C233.943 10.2969 233.197 10.4429 232.463 10.6409C231.752 10.8459 231.058 11.1029 230.387 11.4119C229.114 11.9965 227.933 12.7639 226.882 13.6899C225.928 14.529 225.086 15.4876 224.377 16.5419C223.761 17.4666 223.25 18.4567 222.852 19.4939C222.275 21.0093 221.938 22.6056 221.854 24.2249C221.788 25.3819 221.827 26.0299 221.735 26.0429C221.643 26.0559 221.486 25.4169 221.411 24.2249C221.328 22.531 221.559 20.8364 222.094 19.2269C222.891 16.8063 224.3 14.6331 226.186 12.9189C227.889 11.3552 229.931 10.2069 232.152 9.56393C232.941 9.33815 233.747 9.17268 234.561 9.06893C235.377 8.97583 236.198 8.94341 237.019 8.97193C237.817 9.00786 238.61 9.10481 239.393 9.26193C240.869 9.56193 242.293 10.0819 243.616 10.8029C245.855 12.0203 247.743 13.7948 249.096 15.9549C250.001 17.3896 250.631 18.9805 250.953 20.6459C251.137 21.8819 251.137 22.5389 251.058 22.5389Z" fill="#FFF9E8"/>
<path id="Vector_12" d="M238.837 32.956L239.104 35.514L236.817 35.754L236.559 33.262C234.281 33.358 232.038 32.877 230.68 32.027L231.644 29.105C233.051 29.8838 234.636 30.2835 236.244 30.265L235.845 26.451C233.247 26.096 230.326 25.548 229.984 22.276C229.73 19.854 231.276 17.593 234.842 16.805L234.579 14.268L236.866 14.032L237.124 16.52C238.768 16.4427 240.407 16.7549 241.907 17.431L241.062 20.349C239.923 19.8375 238.693 19.5574 237.444 19.525L237.847 23.41C240.444 23.739 243.322 24.287 243.655 27.52C243.905 29.911 242.376 32.15 238.837 32.956ZM235.503 23.091L235.162 19.845C233.983 20.243 233.571 20.957 233.65 21.711C233.729 22.464 234.461 22.876 235.503 23.091ZM240.006 28.189C239.923 27.388 239.213 27.024 238.197 26.783L238.526 29.937C239.643 29.569 240.081 28.921 240.006 28.189Z" fill="#FFF9E8"/>
<path id="Vector_13" d="M221.675 25.68C221.69 25.7181 221.7 25.7577 221.705 25.798C221.705 25.89 221.74 26.004 221.767 26.144C221.793 26.284 221.819 26.49 221.854 26.704C221.89 26.962 221.941 27.216 222.008 27.467C222.637 30.1975 224.021 32.696 226.003 34.677L226.695 35.307C226.813 35.408 226.922 35.522 227.049 35.623L227.439 35.913C227.702 36.105 227.961 36.32 228.241 36.499L229.117 37.029C230.371 37.7376 231.721 38.2613 233.125 38.584C236.164 39.2793 239.345 38.9864 242.206 37.748C243.528 37.1749 244.76 36.4137 245.864 35.488L246.626 34.808C246.871 34.581 247.064 34.322 247.305 34.086C247.414 33.967 247.528 33.849 247.633 33.731C247.738 33.612 247.83 33.477 247.931 33.354C248.119 33.1 248.308 32.854 248.496 32.609C249.135 31.6688 249.668 30.661 250.086 29.604C250.692 28.066 251.037 26.4376 251.107 24.786C251.124 24.5276 251.124 24.2684 251.107 24.01V23.441V23.091C251.103 23.0501 251.103 23.0089 251.107 22.968C251.112 23.0072 251.112 23.0468 251.107 23.086C251.107 23.178 251.107 23.296 251.133 23.436C251.16 23.576 251.133 23.787 251.164 24.011C251.184 24.27 251.184 24.531 251.164 24.791C251.128 26.4562 250.803 28.1025 250.205 29.657C249.796 30.7366 249.264 31.7655 248.619 32.723L248.071 33.49C247.971 33.617 247.879 33.753 247.773 33.875L247.441 34.239C247.217 34.479 247.002 34.739 246.753 34.97L245.986 35.667C244.869 36.6101 243.62 37.3861 242.28 37.971C240.164 38.8907 237.863 39.3023 235.56 39.1729C233.256 39.0435 231.015 38.3768 229.016 37.226L228.14 36.688C227.855 36.504 227.597 36.285 227.33 36.092L226.94 35.794C226.813 35.694 226.699 35.574 226.576 35.47L225.867 34.804C225.062 33.9809 224.352 33.0699 223.751 32.088C222.879 30.6675 222.26 29.1068 221.92 27.475C221.858 27.2233 221.814 26.9672 221.789 26.709C221.762 26.489 221.74 26.297 221.718 26.139C221.697 25.982 221.692 25.881 221.679 25.789C221.674 25.7526 221.673 25.7167 221.675 25.68Z" fill="#FFF9E8"/>
<path id="Vector_14" d="M46.5601 60.9371C48.0211 64.9443 48.2599 69.2949 47.2463 73.438C46.2327 77.581 44.0124 81.33 40.8664 84.2102C37.7205 87.0903 33.7906 88.972 29.5744 89.6169C25.3582 90.2618 21.0455 89.6409 17.1824 87.8328C13.3194 86.0247 10.0799 83.1108 7.87427 79.4601C5.66861 75.8095 4.59603 71.5864 4.79238 67.3257C4.98874 63.065 6.44519 58.9584 8.97727 55.5261C11.5093 52.0938 15.0031 49.4902 19.0161 48.0451C24.3785 46.1072 30.2907 46.3764 35.4548 48.7935C40.619 51.2106 44.613 55.578 46.5601 60.9371Z" fill="#FFC71B"/>
<path id="Vector_15" d="M41.5531 62.182C41.4591 62.207 41.1551 61.567 40.4741 60.452C39.5281 58.9173 38.3509 57.5377 36.9841 56.362C36.0441 55.562 35.0171 54.868 33.9241 54.293C32.6734 53.6324 31.3423 53.1366 29.9641 52.818C28.447 52.4703 26.8869 52.3476 25.3341 52.454C24.5181 52.509 23.7071 52.626 22.9091 52.804C22.0851 52.991 21.2751 53.239 20.4881 53.546C19.7041 53.86 18.9431 54.228 18.2111 54.648C17.5051 55.068 16.8311 55.541 16.1971 56.062C14.9943 57.0499 13.9422 58.2081 13.0741 59.5C12.2856 60.6711 11.6514 61.9388 11.1871 63.272C10.7871 64.44 10.5171 65.648 10.3821 66.875C10.1898 68.6665 10.2786 70.477 10.6451 72.241C10.9011 73.502 11.1261 74.188 11.0311 74.228C10.9361 74.268 10.5861 73.625 10.1691 72.366C9.60115 70.5692 9.37159 68.6826 9.49212 66.802C9.66425 63.9758 10.5655 61.2424 12.1081 58.868C13.4964 56.7064 15.3667 54.8957 17.5721 53.578C18.3569 53.1122 19.1759 52.7067 20.0221 52.365C20.8721 52.035 21.7451 51.769 22.6351 51.568C23.5023 51.3809 24.3825 51.2606 25.2681 51.208C26.9397 51.1147 28.6158 51.2714 30.2411 51.673C32.9911 52.348 35.5211 53.723 37.5851 55.661C38.9628 56.9474 40.0886 58.4792 40.9051 60.178C41.4521 61.454 41.6381 62.16 41.5531 62.182Z" fill="#FFF9E8"/>
<path id="Vector_16" d="M31.3601 76.8271L32.3691 79.5011L29.9791 80.4051L29.0001 77.8001C26.5791 78.5471 24.0321 78.6621 22.3331 78.1321L22.5431 74.7201C24.2751 75.1601 26.0911 75.1431 27.8141 74.6701L26.3091 70.6821C23.4171 71.0341 20.1221 71.2701 18.8311 67.8501C17.8741 65.3191 18.8981 62.4531 22.5071 60.6001L21.5081 57.9481L23.8981 57.0481L24.8791 59.6481C26.6242 59.1015 28.4737 58.9747 30.2771 59.2781L30.1921 62.6511C28.8232 62.4235 27.4228 62.4701 26.0721 62.7881L27.6021 66.8491C30.4861 66.4691 33.7331 66.2451 35.0041 69.6251C35.9471 72.1251 34.9361 74.9621 31.3601 76.8271ZM24.9921 67.1671L23.7081 63.7761C22.5541 64.5361 22.3131 65.4211 22.6111 66.2081C22.9081 66.9951 23.8111 67.2311 24.9911 67.1681L24.9921 67.1671ZM31.2711 71.3751C30.9551 70.5371 30.0901 70.3471 28.9291 70.3751L30.1731 73.6721C31.2701 72.9611 31.5571 72.1411 31.2711 71.3751Z" fill="#FFF9E8"/>
<path id="Vector_17" d="M10.8621 73.8549C10.8885 73.8916 10.9106 73.9312 10.9281 73.9729C10.9541 74.0719 11.0241 74.1849 11.0921 74.3279C11.1601 74.4709 11.2461 74.6849 11.3451 74.9059C11.4551 75.1719 11.5821 75.4309 11.7251 75.6809C13.1725 78.4372 15.3656 80.7311 18.0541 82.3009L18.9761 82.7839C19.1311 82.8589 19.2811 82.9499 19.4461 83.0229L19.9461 83.2229C20.2831 83.3559 20.6221 83.5139 20.9741 83.6279L22.0641 83.9499C23.6131 84.3569 25.2111 84.5389 26.8111 84.4899C30.2729 84.3785 33.6088 83.1649 36.3331 81.0259C37.5918 80.0366 38.7009 78.8705 39.6261 77.5639L40.2531 76.6199C40.4531 76.3049 40.5871 75.9729 40.7791 75.6509C40.8631 75.4929 40.9521 75.3339 41.0321 75.1769C41.1121 75.0199 41.1721 74.8479 41.2451 74.6879C41.3761 74.3619 41.5091 74.0449 41.6421 73.7279C42.0621 72.5379 42.3521 71.3039 42.5021 70.0499C42.7183 68.2259 42.6294 66.3787 42.2391 64.5839C42.1843 64.3013 42.1109 64.0227 42.0191 63.7499L41.8591 63.1389L41.7601 62.7619C41.7445 62.719 41.7328 62.6748 41.7251 62.6299C41.7413 62.6707 41.7528 62.7134 41.7591 62.7569C41.7851 62.8569 41.8191 62.9829 41.8861 63.1269C41.9541 63.2699 41.9851 63.5029 42.0811 63.7339C42.1761 64.0069 42.2501 64.2879 42.3011 64.5719C42.7331 66.3719 42.8491 68.2339 42.6441 70.0729C42.5098 71.3486 42.2286 72.6046 41.8061 73.8159L41.4341 74.7939C41.3621 74.9589 41.3011 75.1309 41.2231 75.2929L40.9681 75.7769C40.7961 76.0999 40.6381 76.4369 40.4351 76.7569L39.8081 77.7229C38.8736 79.0515 37.7516 80.2379 36.4771 81.2449C34.4631 82.8306 32.1059 83.9229 29.5941 84.4343C27.0823 84.9457 24.4857 84.862 22.0121 84.1899L20.9191 83.8589C20.5611 83.7409 20.2211 83.5789 19.8791 83.4469L19.3761 83.2369C19.2111 83.1649 19.0561 83.0699 18.8941 82.9919L17.9441 82.4759C16.847 81.8189 15.8273 81.0407 14.9041 80.1559C13.5659 78.8755 12.4593 77.3734 11.6331 75.7159C11.4946 75.4627 11.375 75.1996 11.2751 74.9289C11.1851 74.7009 11.1071 74.4989 11.0391 74.3369C10.9711 74.1729 10.9381 74.0669 10.8981 73.9709C10.8826 73.9334 10.8705 73.8946 10.8621 73.8549Z" fill="#FFF9E8"/>
<path id="Vector_18" d="M230.573 95.9899C229.738 97.7332 228.403 99.1891 226.74 100.173C225.076 101.157 223.157 101.625 221.227 101.518C219.785 101.437 218.378 101.038 217.108 100.349C215.839 99.6591 214.738 98.6966 213.885 97.5304C213.032 96.3642 212.448 95.0234 212.176 93.6045C211.904 92.1856 211.95 90.724 212.31 89.3249C212.671 87.9256 213.338 86.6238 214.263 85.5135C215.188 84.4033 216.348 83.5122 217.659 82.9045C218.971 82.2968 220.4 81.9878 221.845 81.9996C223.291 82.0114 224.715 82.3439 226.016 82.9729C228.346 84.0953 230.136 86.0969 230.991 88.5379C231.414 89.7466 231.595 91.0269 231.524 92.3055C231.452 93.5842 231.129 94.8361 230.573 95.9899Z" fill="#FFC71B"/>
<path id="Vector_19" d="M228.595 94.771C228.635 94.4671 228.706 94.1682 228.808 93.879C229.004 93.0859 229.077 92.2674 229.025 91.452C228.984 90.8936 228.883 90.3412 228.725 89.804C228.439 88.859 227.966 87.981 227.335 87.222C226.118 85.7672 224.383 84.8427 222.497 84.644C222.14 84.6032 221.781 84.5905 221.422 84.606C221.077 84.6197 220.733 84.6592 220.393 84.724C219.764 84.8382 219.153 85.0346 218.575 85.308C218.07 85.5495 217.592 85.8448 217.151 86.189C216.511 86.6979 215.954 87.3027 215.499 87.982C215.351 88.2516 215.177 88.5058 214.979 88.741C215.024 88.4304 215.137 88.1335 215.309 87.871C215.71 87.1099 216.251 86.4314 216.904 85.871C217.352 85.481 217.845 85.147 218.373 84.875C220.036 84.0227 221.954 83.8131 223.762 84.286C224.161 84.395 224.552 84.532 224.931 84.696C225.969 85.1562 226.89 85.8429 227.627 86.7057C228.364 87.5685 228.899 88.5855 229.192 89.682C229.343 90.2552 229.426 90.8444 229.438 91.437C229.46 92.2917 229.322 93.1429 229.032 93.947C228.945 94.249 228.796 94.5295 228.595 94.771Z" fill="#FFF9E8"/>
<path id="Vector_20" d="M220.62 96.1231L220.077 97.2961L219.026 96.8101L219.557 95.6711C218.638 95.2076 217.867 94.4961 217.332 93.6171L218.505 92.6031C218.913 93.3041 219.495 93.8881 220.195 94.2971L221.012 92.5421C219.975 91.7181 218.855 90.7231 219.553 89.2231C220.07 88.1111 221.319 87.5301 223.066 88.1111L223.609 86.9451L224.657 87.4351L224.125 88.5751C224.857 88.9651 225.486 89.5231 225.959 90.2031L224.82 91.2511C224.459 90.7359 224 90.2974 223.468 89.9611L222.641 91.7451C223.677 92.5571 224.778 93.5411 224.091 95.0221C223.601 96.1231 222.363 96.6821 220.62 96.1231ZM221.725 90.9931L222.42 89.5041C221.805 89.3711 221.441 89.5731 221.281 89.9181C221.122 90.2641 221.334 90.6251 221.725 90.9851V90.9931ZM222.36 94.3651C222.527 93.9851 222.318 93.6551 221.938 93.2871L221.266 94.7371C221.839 94.8591 222.219 94.6921 222.36 94.3571V94.3651Z" fill="#FFF9E8"/>
<path id="Vector_21" d="M215.077 88.5281C215.077 88.5281 214.963 88.8361 214.777 89.3941C214.525 90.1839 214.407 91.0103 214.427 91.8391C214.442 92.4092 214.52 92.976 214.659 93.5291C214.824 94.1681 215.068 94.7841 215.384 95.3631C215.744 95.9891 216.192 96.5611 216.713 97.0611C217.84 98.1423 219.284 98.8341 220.833 99.0351C221.548 99.1281 222.273 99.118 222.986 99.0051C224.2 98.8105 225.346 98.3155 226.32 97.5651C226.978 97.0604 227.549 96.4513 228.01 95.7621C228.325 95.2681 228.473 94.9721 228.492 94.9841C228.47 95.0599 228.438 95.1325 228.397 95.2001C228.301 95.4059 228.193 95.6062 228.075 95.8001C227.632 96.5173 227.068 97.1521 226.408 97.6761C225.427 98.4658 224.259 98.989 223.017 99.1951C222.286 99.3176 221.542 99.3314 220.807 99.2361C220.018 99.1261 219.25 98.8996 218.528 98.5641C217.815 98.2131 217.158 97.7578 216.58 97.2131C216.047 96.6995 215.592 96.111 215.229 95.4661C214.898 94.8806 214.643 94.2557 214.469 93.6061C214.335 93.0394 214.265 92.4594 214.26 91.8771C214.251 91.0351 214.391 90.1982 214.674 89.4051C214.748 89.1911 214.837 88.9811 214.94 88.7791C214.975 88.6901 215.021 88.6051 215.077 88.5281Z" fill="#FFF9E8"/>
<path id="Vector_22" d="M53.77 142.125C53.1057 143.511 52.0447 144.669 50.7216 145.452C49.3985 146.234 47.8729 146.607 46.338 146.521C44.8029 146.437 43.3273 145.899 42.0982 144.976C40.8691 144.052 39.9419 142.784 39.4339 141.333C38.9259 139.882 38.8601 138.313 39.2449 136.825C39.6296 135.336 40.4475 133.995 41.595 132.972C42.7418 131.949 44.1663 131.289 45.6883 131.076C47.2102 130.863 48.7612 131.106 50.145 131.774C51.0631 132.215 51.8851 132.833 52.5641 133.593C53.2431 134.352 53.7657 135.238 54.102 136.199C54.4384 137.16 54.5821 138.178 54.525 139.195C54.4678 140.212 54.212 141.208 53.77 142.125Z" fill="#FFC71B"/>
<path id="Vector_23" d="M52.1979 141.156C52.2279 140.914 52.2849 140.676 52.3669 140.446C52.5229 139.816 52.5809 139.165 52.5389 138.517C52.5062 138.073 52.4261 137.633 52.2999 137.206C52.0729 136.455 51.6971 135.756 51.1949 135.153C50.2274 133.996 48.8478 133.26 47.3479 133.102C46.7902 133.039 46.2261 133.06 45.6749 133.166C45.1749 133.257 44.6879 133.413 44.2289 133.631C43.8272 133.823 43.4474 134.058 43.0959 134.331C42.5875 134.736 42.1446 135.217 41.7829 135.757C41.6649 135.971 41.5263 136.174 41.3689 136.361C41.4059 136.114 41.4949 135.878 41.6319 135.669C41.9508 135.064 42.381 134.524 42.8999 134.078C43.2559 133.768 43.6489 133.502 44.0689 133.287C44.5519 133.039 45.0669 132.857 45.5989 132.746C46.5106 132.558 47.4534 132.583 48.3539 132.819C48.6709 132.904 48.9819 133.013 49.2839 133.145C50.1092 133.51 50.842 134.056 51.4284 134.742C52.0147 135.428 52.4397 136.237 52.6719 137.109C52.7919 137.565 52.8579 138.033 52.8679 138.505C52.8849 139.185 52.7754 139.861 52.5449 140.501C52.4757 140.741 52.3575 140.964 52.1979 141.156Z" fill="#FFF9E8"/>
<path id="Vector_24" d="M45.855 142.231L45.423 143.164L44.587 142.778L45.01 141.872C44.2791 141.503 43.666 140.937 43.24 140.238L44.173 139.432C44.4967 139.99 44.9599 140.454 45.517 140.779L46.167 139.384C45.342 138.728 44.451 137.937 45.007 136.744C45.417 135.86 46.411 135.398 47.8 135.86L48.232 134.933L49.065 135.322L48.642 136.228C49.224 136.538 49.724 136.982 50.101 137.523L49.195 138.357C48.908 137.947 48.5426 137.598 48.12 137.33L47.462 138.749C48.286 139.396 49.162 140.178 48.615 141.355C48.225 142.231 47.241 142.675 45.855 142.231ZM46.734 138.152L47.287 136.968C46.797 136.862 46.507 137.022 46.381 137.297C46.254 137.572 46.423 137.859 46.734 138.146V138.152ZM47.238 140.833C47.371 140.531 47.205 140.268 46.903 139.975L46.369 141.129C46.825 141.226 47.127 141.093 47.239 140.827L47.238 140.833Z" fill="#FFF9E8"/>
<path id="Vector_25" d="M41.4469 136.191C41.4469 136.191 41.3569 136.436 41.2089 136.88C41.0088 137.508 40.9148 138.166 40.9309 138.825C40.9429 139.278 41.0049 139.729 41.1149 140.168C41.2469 140.676 41.4399 141.166 41.6919 141.627C41.9779 142.125 42.3339 142.579 42.7489 142.977C43.6452 143.837 44.7932 144.387 46.0249 144.547C46.5938 144.621 47.1703 144.613 47.7369 144.523C48.7026 144.368 49.6142 143.975 50.3889 143.378C50.912 142.977 51.3656 142.492 51.7319 141.944C51.9829 141.551 52.1009 141.316 52.1159 141.325C52.0977 141.385 52.0722 141.443 52.0399 141.497C51.9636 141.661 51.8782 141.82 51.7839 141.974C51.4319 142.544 50.9832 143.049 50.4579 143.466C49.6779 144.094 48.7489 144.51 47.7609 144.674C47.18 144.771 46.5881 144.782 46.0039 144.707C45.3768 144.619 44.7662 144.439 44.1919 144.172C43.6248 143.893 43.1027 143.531 42.6429 143.097C42.219 142.689 41.8569 142.221 41.5679 141.708C41.3046 141.243 41.1017 140.746 40.9639 140.229C40.8572 139.779 40.8016 139.318 40.7979 138.855C40.7908 138.185 40.9026 137.52 41.1279 136.889C41.1859 136.718 41.2569 136.552 41.3379 136.391C41.3664 136.32 41.4033 136.253 41.4479 136.191H41.4469Z" fill="#FFF9E8"/>
</g>
</svg>
