<svg width="120" height="152" viewBox="0 0 120 152" fill="none" xmlns="http://www.w3.org/2000/svg">
<g id="illustration / deriv / light / consistent">
<g id="Consistent">
<g id="Layer 1">
<g id="Group">
<g id="Group_2">
<g id="Group_3">
<path id="Vector" d="M85.9796 15.6789L79.4611 16.7243L73.0943 23.4707C71.0955 21.3377 66.8719 18.685 61.3543 16.8484C58.5093 15.9023 55.3201 15.1723 51.9164 14.8468C49.6259 14.6263 47.2362 14.5884 44.7896 14.7884L59.675 12.2977H59.6823C69.8773 10.1443 79.5238 12.5313 85.981 15.6789H85.9796Z" fill="#EBECEE"/>
<path id="Vector_2" d="M73.0943 23.7643C73.0141 23.7643 72.9367 23.7307 72.8813 23.6723C71.1189 21.7919 67.1404 19.0837 61.2624 17.1273C58.2088 16.1112 55.0561 15.4426 51.8887 15.1389C49.5194 14.9097 47.1385 14.8907 44.8129 15.0805C44.6568 15.0922 44.5182 14.9812 44.4993 14.825C44.4803 14.6703 44.5868 14.5272 44.74 14.5009L59.6152 12.0117C59.6152 12.0117 59.6196 12.0117 59.6211 12.0117C71.9009 9.42029 82.2345 13.53 86.108 15.4177C86.2218 15.4732 86.2874 15.5973 86.2685 15.7229C86.2495 15.8484 86.1517 15.9477 86.0263 15.9681L79.6055 16.9989L73.3059 23.6737C73.2504 23.7321 73.1746 23.7657 73.0943 23.7657V23.7643ZM49.0103 14.3783C49.9878 14.4031 50.9667 14.4615 51.9442 14.5564C55.1553 14.8644 58.3518 15.5418 61.4462 16.5711C67.2017 18.4865 71.1846 21.1291 73.0914 23.0489L79.2495 16.5244C79.2933 16.4777 79.3517 16.447 79.4159 16.4368L85.0006 15.5404C80.6603 13.5665 71.0343 10.1999 59.7422 12.5825C59.7378 12.5825 59.7261 12.5854 59.7232 12.5869L49.0103 14.3797V14.3783Z" fill="black"/>
</g>
<g id="Group_4">
<path id="Vector_3" d="M64.4792 87L44.629 90.1856L34.8571 86.8131L23.7634 82.9822L12.6055 79.1295L32.4557 75.9438L64.4792 87Z" fill="#EBECEE"/>
<path id="Vector_4" d="M44.629 90.4777C44.5969 90.4777 44.5648 90.4718 44.5341 90.4616L12.5106 79.4054C12.3837 79.3616 12.3034 79.2375 12.3151 79.1047C12.3268 78.9718 12.4274 78.8623 12.5602 78.8419L32.4104 75.6563C32.4571 75.649 32.5067 75.6534 32.5519 75.668L64.5755 86.7242C64.7024 86.768 64.7826 86.892 64.771 87.0249C64.7593 87.1578 64.6586 87.2673 64.5259 87.2877L44.6757 90.4733C44.6611 90.4762 44.645 90.4777 44.629 90.4777ZM13.8003 79.2332L44.6538 89.8864L63.2829 86.8964L32.4294 76.2432L13.8003 79.2332Z" fill="black"/>
</g>
<g id="Group_5">
<path id="Vector_5" d="M65.0334 95.948C51.8578 104.73 38.8237 96.5568 38.8237 96.5568L44.6288 90.1856L64.479 87L58.674 93.3712C58.674 93.3712 61.1498 94.9231 65.0334 95.948Z" fill="#EBECEE"/>
<path id="Vector_6" d="M51.7762 100.301C49.9832 100.301 48.3448 100.106 46.9326 99.8334C42.0305 98.8888 38.8034 96.8902 38.6692 96.8055C38.5962 96.7602 38.5466 96.6829 38.5349 96.5982C38.5233 96.512 38.5495 96.4259 38.6079 96.3617L44.413 89.9905C44.4567 89.9423 44.5166 89.9087 44.5822 89.8985L64.4324 86.7129C64.5535 86.6924 64.6761 86.7538 64.7359 86.8618C64.7943 86.9713 64.7782 87.1056 64.695 87.1976L59.1336 93.3016C59.9025 93.7352 62.0836 94.8681 65.1094 95.6667C65.2203 95.6959 65.3034 95.7879 65.3224 95.9018C65.3413 96.0157 65.2917 96.1295 65.1969 96.1923C60.4568 99.3516 55.7357 100.301 51.7777 100.301H51.7762ZM39.2819 96.4872C40.1967 97.0011 43.1029 98.5034 47.0639 99.264C51.3619 100.089 57.7972 100.178 64.3288 96.058C60.8128 95.0433 58.6157 93.6812 58.5179 93.6199C58.445 93.5732 58.3954 93.4973 58.3837 93.4126C58.372 93.3264 58.3983 93.2403 58.4567 93.1761L63.7001 87.4224L44.7748 90.4591L39.2819 96.4887V96.4872Z" fill="black"/>
</g>
<g id="Group_6">
<path id="Vector_7" d="M114.649 65.637L99.0339 68.1423L94.7986 68.8226L88.5777 67.0415L79.0859 64.3245L98.9362 61.1389L114.649 65.637Z" fill="#EBECEE"/>
<path id="Vector_8" d="M94.7988 69.1147C94.7711 69.1147 94.7449 69.1103 94.7186 69.103L79.0059 64.6049C78.8746 64.567 78.7871 64.4429 78.7944 64.3071C78.8031 64.1698 78.9038 64.0574 79.0395 64.0355L98.8897 60.8499C98.932 60.8426 98.9758 60.8455 99.0166 60.8572L114.729 65.3553C114.861 65.3933 114.948 65.5174 114.941 65.6531C114.932 65.7904 114.831 65.9028 114.696 65.9247L94.8455 69.1103C94.8309 69.1132 94.8149 69.1147 94.7988 69.1147ZM80.4284 64.4049L94.8164 68.5234L113.307 65.5553L98.9189 61.4368L80.4284 64.4049Z" fill="black"/>
</g>
<g id="Group_7">
<path id="Vector_9" d="M80.5888 114.094C79.0219 114.456 77.4711 114.703 75.9421 114.852L80.5888 114.094Z" fill="white"/>
<path id="Vector_10" d="M75.942 115.144C75.7976 115.144 75.6721 115.035 75.6531 114.889C75.6327 114.733 75.7407 114.589 75.8953 114.564L80.542 113.806C80.6966 113.781 80.8455 113.884 80.8746 114.038C80.9053 114.193 80.8075 114.343 80.6543 114.378C79.121 114.732 77.5453 114.989 75.9712 115.142C75.9609 115.142 75.9522 115.142 75.9434 115.142L75.942 115.144Z" fill="black"/>
</g>
<g id="Group_8">
<path id="Vector_11" d="M55.8644 42.9611L61.8577 36.4015C61.8577 36.4015 59.1645 34.7109 54.884 33.7211C50.4926 32.7049 44.4307 32.4275 37.8874 35.4642C33.5252 37.4877 30.0603 40.6456 27.44 44.3787C23.3185 50.252 21.2906 57.5547 21.1608 64.1215C21.1272 65.745 21.2118 67.3202 21.4073 68.8211L5.30219 64.3244C5.30219 64.3244 4.17881 38.463 24.2158 22.9087C30.9721 17.6631 38.0931 15.3374 44.7736 14.7899H44.7867C47.2348 14.587 49.6245 14.625 51.9136 14.8454C55.3187 15.171 58.508 15.901 61.3514 16.847C66.8691 18.6836 71.0927 21.3378 73.0914 23.4693L79.4582 16.7229L80.2781 20.4385L85.3012 43.1684L86.8112 49.9995L87.6983 54.0158L55.8629 42.9596L55.8644 42.9611Z" fill="white"/>
<path id="Vector_12" d="M21.4072 69.1145C21.3809 69.1145 21.3546 69.1115 21.3284 69.1042L5.22323 64.6061C5.10214 64.5726 5.01606 64.4631 5.01023 64.3375C5.00731 64.2718 4.75346 57.7313 6.96228 49.3745C8.26073 44.4662 10.1427 39.8966 12.5558 35.7941C15.5743 30.6624 19.4376 26.249 24.0376 22.678C30.2293 17.8704 37.1957 15.1198 44.7442 14.4993C44.7515 14.4993 44.7617 14.4979 44.7646 14.4964C47.1252 14.3037 49.5412 14.3227 51.944 14.5548C55.1552 14.8629 58.3517 15.5403 61.4461 16.5696C67.2015 18.485 71.1844 21.1275 73.0913 23.0473L79.2494 16.5228C79.3238 16.444 79.4347 16.4133 79.5397 16.4425C79.6433 16.4717 79.7236 16.555 79.7469 16.6615L80.5668 20.3771L87.9869 53.9529C88.0103 54.0566 87.9753 54.1632 87.8965 54.2347C87.8177 54.3048 87.7068 54.3267 87.6076 54.2931L55.7723 43.2369C55.6804 43.2048 55.6089 43.1274 55.5855 43.0325C55.5607 42.9376 55.5855 42.8369 55.6526 42.7639L61.4008 36.473C60.5868 36.0175 58.1912 34.7868 54.8211 34.0071C50.8353 33.0845 44.6829 32.6348 38.0127 35.7299C33.935 37.622 30.4598 40.5886 27.6806 44.548C23.8611 49.9892 21.5924 57.1268 21.4538 64.1287C21.4203 65.7259 21.5034 67.2924 21.6989 68.7845C21.7121 68.8823 21.6741 68.9787 21.6012 69.0429C21.5472 69.0896 21.4801 69.1145 21.4101 69.1145H21.4072ZM5.58796 64.101L21.0643 68.4225C20.9038 67.0326 20.8382 65.5872 20.8688 64.1156C21.0089 57.0013 23.3169 49.7454 27.2006 44.2107C30.0382 40.1667 33.5922 37.1343 37.7647 35.1985C44.5852 32.0333 50.8746 32.4932 54.9494 33.4363C59.2285 34.4247 61.9012 36.0832 62.0121 36.1533C62.0851 36.2 62.1347 36.2759 62.1464 36.3606C62.158 36.4467 62.1303 36.5329 62.0719 36.5971L56.3777 42.8281L87.3012 53.5675L79.2932 17.3229L73.3043 23.6678C73.2488 23.7262 73.173 23.7598 73.0927 23.7598C73.0125 23.7598 72.9351 23.7262 72.8797 23.6678C71.1173 21.7874 67.1388 19.0792 61.2608 17.1229C58.2072 16.1067 55.0545 15.4381 51.8871 15.1344C49.5208 14.9052 47.1427 14.8862 44.8186 15.076C44.8113 15.076 44.8011 15.0775 44.7982 15.0789C37.362 15.6877 30.4978 18.3989 24.395 23.1364C19.8563 26.6592 16.0456 31.0128 13.065 36.0759C10.6796 40.1302 8.81804 44.6472 7.53272 49.5016C5.56316 56.94 5.56608 62.9199 5.58796 64.0981V64.101Z" fill="black"/>
</g>
<g id="Group_9">
<path id="Vector_13" d="M94.6499 75.1935C94.4136 77.7835 93.9249 80.9997 92.9576 84.5299C90.8057 92.3888 86.2742 101.801 76.8393 109.301C76.7489 109.372 76.6569 109.445 76.5679 109.514C73.7245 111.742 70.8679 113.472 68.0317 114.778C65.2831 116.047 62.5564 116.919 59.8821 117.466L59.869 117.471L56.9891 117.939C48.485 118.979 40.6739 116.894 34.6777 114.092C31.6941 112.698 29.16 111.127 27.2138 109.677L20.847 116.424L12.6069 79.131L23.7648 82.9838L34.8586 86.8147L44.6305 90.1886L38.8254 96.5598C38.8254 96.5598 51.8595 104.733 65.0351 95.951C65.537 95.6167 66.0388 95.2576 66.5407 94.8736C66.5407 94.8736 81.3357 83.8174 79.0875 64.3271L88.5779 67.0441L94.7988 68.8238C94.7988 68.8238 95.0088 71.3028 94.6514 75.195L94.6499 75.1935Z" fill="white"/>
<path id="Vector_14" d="M52.5086 118.502C45.1366 118.502 38.8252 116.353 34.5535 114.357C34.5433 114.352 34.5345 114.348 34.5258 114.342C31.2607 112.817 28.7951 111.202 27.2472 110.066L21.0569 116.624C20.9825 116.703 20.8716 116.734 20.7666 116.704C20.663 116.675 20.5828 116.592 20.5594 116.485L12.3194 79.1925C12.296 79.0889 12.3311 78.9823 12.4098 78.9122C12.4886 78.8421 12.5995 78.8202 12.6987 78.8538L44.7222 89.91C44.8156 89.9421 44.8856 90.018 44.9104 90.1144C44.9352 90.2093 44.9104 90.31 44.8433 90.383L39.2819 96.487C40.1966 97.0009 43.1028 98.5032 47.0638 99.2638C51.48 100.112 58.1561 100.182 64.8716 95.706C65.3603 95.3818 65.8622 95.0227 66.3611 94.6402C66.4005 94.611 70.0726 91.8327 73.4238 86.7288C76.5094 82.0277 79.9467 74.3309 78.7971 64.3595C78.7854 64.2631 78.8233 64.1667 78.8977 64.104C78.9721 64.0412 79.0728 64.0193 79.1662 64.0456L94.8789 68.5437C94.9956 68.5772 95.0787 68.6794 95.0889 68.7992C95.0904 68.824 95.2961 71.3497 94.9401 75.2215C94.6527 78.3822 94.0794 81.5401 93.2376 84.6089C92.0004 89.126 90.1971 93.3627 87.8774 97.2024C85.0267 101.921 81.3735 106.069 77.0186 109.53L76.969 109.57C76.8946 109.629 76.8173 109.689 76.7429 109.746C73.9928 111.903 71.1012 113.685 68.1512 115.044C65.5003 116.268 62.7386 117.179 59.9462 117.751C59.9345 117.754 59.9214 117.757 59.9141 117.758L57.0342 118.227C55.4877 118.417 53.9762 118.502 52.5071 118.502H52.5086ZM34.8278 113.838C39.883 116.196 47.8166 118.766 56.9525 117.647L59.8061 117.183C59.8061 117.183 59.8193 117.18 59.8222 117.179C62.5737 116.615 65.2946 115.719 67.9076 114.513C70.8167 113.173 73.6689 111.414 76.3854 109.285C76.4598 109.228 76.5342 109.17 76.6072 109.111L76.6568 109.072C84.5248 102.817 89.9141 94.5336 92.6744 84.4527C93.5075 81.4175 94.0735 78.2932 94.358 75.1674C94.6527 71.9672 94.5579 69.7087 94.52 69.0473L79.4229 64.7259C80.4471 74.6696 76.9982 82.3504 73.898 87.0675C70.4914 92.2503 66.7492 95.0782 66.7127 95.1059C66.205 95.4943 65.6929 95.8607 65.194 96.1921C58.3049 100.782 51.4596 100.706 46.9311 99.8332C42.0291 98.8886 38.8019 96.89 38.6677 96.8053C38.5947 96.76 38.5451 96.6827 38.5335 96.598C38.5218 96.5119 38.548 96.4257 38.6064 96.3615L44.1124 90.3173L13.0007 79.575L21.0088 115.821L26.9977 109.475C27.0998 109.367 27.2647 109.352 27.3843 109.441C28.8987 110.568 31.4139 112.244 34.7986 113.824C34.8088 113.828 34.8176 113.833 34.8263 113.838H34.8278Z" fill="black"/>
</g>
<g id="Group_10">
<path id="Vector_15" d="M59.8689 117.469C58.9002 117.668 57.9402 117.821 56.989 117.938L59.8689 117.469Z" fill="white"/>
<path id="Vector_16" d="M56.9878 118.23C56.8448 118.23 56.7193 118.125 56.6989 117.979C56.677 117.821 56.7835 117.675 56.9411 117.651L59.821 117.182C59.98 117.156 60.1259 117.261 60.1551 117.417C60.1843 117.573 60.0822 117.724 59.9261 117.756C58.985 117.948 58.009 118.108 57.0228 118.229C57.0111 118.229 56.9994 118.23 56.9878 118.23Z" fill="black"/>
</g>
<g id="Group_11">
<path id="Vector_17" d="M107.551 50.8315L87.701 54.0171L86.8125 50.0023L85.304 43.1712L80.2809 20.4413L79.4609 16.7257L85.9794 15.679H85.9809L99.0909 13.5752L99.1302 13.5693L99.193 13.8526L107.325 50.6534L107.551 50.8315Z" fill="#EBECEE"/>
<path id="Vector_18" d="M87.7011 54.3092C87.5669 54.3092 87.4458 54.2158 87.4166 54.08L79.1766 16.7872C79.1591 16.7083 79.1752 16.6266 79.2204 16.5594C79.2656 16.4922 79.3356 16.4484 79.4159 16.4353L85.9344 15.39C85.9344 15.39 85.9431 15.39 85.9475 15.3885L99.0896 13.2789C99.2398 13.257 99.3814 13.3563 99.4149 13.5037L99.4791 13.787L107.588 50.4871L107.732 50.601C107.823 50.6725 107.864 50.7908 107.834 50.9032C107.805 51.0156 107.713 51.1003 107.598 51.1178L87.7478 54.3034C87.7318 54.3063 87.7172 54.3078 87.7011 54.3078V54.3092ZM79.8127 16.9638L87.9258 53.6858L107.019 50.6214L98.9057 13.8994L86.0278 15.9667C86.0278 15.9667 86.019 15.9667 86.0146 15.9681L79.8127 16.9623V16.9638Z" fill="black"/>
</g>
<g id="Group_12">
<path id="Vector_19" d="M96.6895 106.115C91.3016 110.399 85.8584 112.881 80.6091 114.089C80.6047 114.091 80.6033 114.091 80.6018 114.094H80.5887L75.942 114.853H75.9332L59.8821 117.468C62.5563 116.92 65.283 116.049 68.0317 114.78C70.8664 113.473 73.7244 111.745 76.5679 109.515C76.6583 109.445 76.7502 109.372 76.8392 109.302C86.2742 101.803 90.8056 92.3917 92.9575 84.5313C93.9262 81.0012 94.415 77.7849 94.6499 75.195C95.0073 71.3028 94.7972 68.8238 94.7972 68.8238L99.034 68.1435L114.649 65.6382C114.649 65.6382 116.728 90.1872 96.6895 106.117V106.115Z" fill="#EBECEE"/>
<path id="Vector_20" d="M59.882 117.758C59.7434 117.758 59.6208 117.659 59.596 117.519C59.5669 117.362 59.669 117.212 59.8251 117.18C62.5766 116.616 65.2975 115.72 67.9105 114.514C70.8196 113.174 73.6718 111.415 76.3883 109.286C76.4627 109.229 76.5371 109.171 76.6101 109.112L76.6597 109.073C84.5277 102.818 89.917 94.5347 92.6773 84.4538C93.5104 81.4186 94.0764 78.2943 94.3609 75.1686C94.7125 71.3508 94.5112 68.8733 94.5083 68.8485C94.4951 68.6966 94.6016 68.5594 94.7534 68.536L114.604 65.3504C114.684 65.3373 114.766 65.3592 114.83 65.4088C114.894 65.4585 114.933 65.5329 114.941 65.6147C114.946 65.676 115.441 71.8924 113.469 79.9747C112.309 84.721 110.538 89.1767 108.203 93.2193C105.284 98.2737 101.472 102.69 96.8717 106.347C91.8282 110.358 86.3864 113.057 80.6995 114.371C80.6805 114.377 80.6615 114.383 80.6426 114.386L75.9886 115.143C75.9784 115.145 75.9696 115.146 75.9594 115.146L59.9287 117.757C59.9126 117.76 59.8966 117.761 59.882 117.761V117.758ZM95.1064 69.0689C95.1487 69.8193 95.229 72.0749 94.9401 75.2211C94.6527 78.3819 94.0793 81.5398 93.2375 84.6071C92.0004 89.1242 90.1971 93.3609 87.8774 97.2006C85.0267 101.919 81.3735 106.067 77.0186 109.528L76.969 109.568C76.8946 109.628 76.8173 109.688 76.7429 109.744C73.9928 111.901 71.1012 113.683 68.1512 115.043C67.1095 115.523 66.0518 115.955 64.981 116.338L75.8821 114.562C75.8923 114.561 75.9011 114.559 75.9113 114.559L80.5229 113.807C80.5229 113.807 80.5332 113.805 80.539 113.803C86.1501 112.511 91.5204 109.847 96.5041 105.886C101.043 102.278 104.804 97.9204 107.685 92.9346C109.992 88.9431 111.743 84.5414 112.891 79.8535C114.595 72.8852 114.443 67.3272 114.373 65.9753L95.1021 69.0674L95.1064 69.0689Z" fill="black"/>
</g>
<g id="Group_13">
<path id="Vector_21" d="M34.6776 114.089L20.8455 116.422L27.2122 109.676C29.1599 111.127 31.6941 112.697 34.6761 114.089H34.6776Z" fill="#EBECEE"/>
<path id="Vector_22" d="M20.8456 116.714C20.7391 116.714 20.6398 116.656 20.5888 116.56C20.5304 116.449 20.5479 116.313 20.634 116.221L27.0008 109.475C27.1029 109.367 27.2678 109.352 27.3874 109.441C28.9018 110.568 31.417 112.244 34.8017 113.824C34.9038 113.872 34.9695 113.976 34.9695 114.088C34.9695 114.233 34.8659 114.354 34.7258 114.379L20.8937 116.71C20.8777 116.713 20.8616 116.714 20.8456 116.714ZM27.2473 110.064L21.6553 115.99L33.7235 113.957C30.8553 112.548 28.6669 111.105 27.2473 110.064Z" fill="black"/>
</g>
<g id="Group_14">
<path id="Vector_23" d="M80.6107 114.09L80.6021 114.095C80.6038 114.093 80.6072 114.093 80.6107 114.09Z" fill="white"/>
<path id="Vector_24" d="M80.6076 114.383C80.504 114.383 80.4033 114.329 80.3508 114.235C80.2866 114.121 80.3027 113.978 80.3946 113.886C80.4208 113.86 80.4559 113.837 80.4909 113.822C80.5784 113.784 80.6805 113.79 80.7622 113.841C80.8483 113.894 80.9008 113.989 80.9008 114.089C80.9008 114.225 80.8104 114.342 80.6805 114.374C80.6572 114.38 80.6324 114.383 80.609 114.383H80.6076Z" fill="black"/>
</g>
<g id="Group_15">
<path id="Vector_25" d="M41.0212 65.2411L41.2576 65.6367L21.4073 68.8223C21.2104 67.3215 21.1258 65.7447 21.1608 64.1227C21.2906 57.5559 23.3185 50.2533 27.44 44.3799C30.0603 40.6468 33.5267 37.4889 37.8874 35.4655C44.4307 32.4302 50.4926 32.7062 54.884 33.7223C44.0704 40.4614 39.7884 54.6725 41.0227 65.2411H41.0212Z" fill="#EBECEE"/>
<path id="Vector_26" d="M21.4071 69.1144C21.3444 69.1144 21.2831 69.094 21.2321 69.056C21.1693 69.0093 21.127 68.9378 21.1168 68.8604C20.9169 67.3392 20.8338 65.742 20.8673 64.1171C21.0074 57.0027 23.3154 49.7468 27.1991 44.2122C30.0367 40.1681 33.5907 37.1358 37.7632 35.1999C44.5837 32.0347 50.8732 32.4946 54.948 33.4378C55.0632 33.464 55.1508 33.5575 55.1697 33.6743C55.1887 33.7911 55.1362 33.9079 55.0355 33.9706C44.4247 40.5842 40.099 54.6449 41.3026 65.1463L41.5068 65.4879C41.5564 65.5712 41.5623 65.6734 41.5214 65.761C41.4806 65.8485 41.3989 65.9099 41.3026 65.9259L21.4524 69.1115C21.4363 69.1144 21.4217 69.1159 21.4057 69.1159L21.4071 69.1144ZM48.8496 33.3224C45.6327 33.3224 41.9095 33.9195 38.0098 35.7299C33.9321 37.622 30.4569 40.5886 27.6776 44.5479C23.8582 49.9892 21.5895 57.1268 21.4509 64.1287C21.4203 65.6193 21.4903 67.0851 21.6581 68.4867L40.7861 65.4164L40.7715 65.3916C40.7511 65.3565 40.7365 65.3171 40.7322 65.2762C40.0888 59.7723 40.9758 53.4536 43.1642 47.9394C45.5671 41.8835 49.3515 37.0307 54.1339 33.8597C52.6152 33.5502 50.8294 33.3239 48.8511 33.3239L48.8496 33.3224Z" fill="black"/>
</g>
</g>
<g id="Group_16">
<g id="Group_17">
<path id="Vector_27" d="M112.376 97.7168V110.085C112.376 112.281 106.699 114.645 99.5329 116.019H99.5285C95.782 116.738 91.6342 117.188 87.6718 117.2C83.6933 117.213 79.5484 116.79 75.8077 116.093H75.8034C68.5831 114.751 62.886 112.392 62.886 110.199V97.8278C62.886 100.378 70.5746 103.148 79.4055 104.291C82.1162 104.643 84.9348 104.84 87.6718 104.83C90.3898 104.819 93.1997 104.606 95.906 104.238C104.686 103.054 112.377 100.27 112.377 97.7153L112.376 97.7168Z" fill="#FF444F"/>
<path id="Vector_28" d="M87.4997 117.493C83.7269 117.493 79.6754 117.111 75.7698 116.384C75.764 116.384 75.7567 116.382 75.7509 116.381C72.1327 115.709 68.8545 114.767 66.5188 113.732C63.9146 112.578 62.5942 111.389 62.5942 110.199V97.8277C62.5942 97.6672 62.7255 97.5358 62.886 97.5358C63.0465 97.5358 63.1778 97.6672 63.1778 97.8277C63.1778 100.072 70.4739 102.84 79.442 104C82.2577 104.367 85.0253 104.549 87.6704 104.538C90.3052 104.527 93.0626 104.33 95.8652 103.949C104.808 102.743 112.084 99.9476 112.084 97.7153C112.084 97.5547 112.215 97.4233 112.376 97.4233C112.536 97.4233 112.668 97.5547 112.668 97.7153V110.084C112.668 112.823 105.621 115.147 99.5869 116.305C99.5796 116.305 99.5723 116.308 99.5665 116.308C95.5909 117.07 91.4782 117.48 87.6718 117.492C87.6149 117.492 87.5566 117.492 87.4982 117.492L87.4997 117.493ZM75.8428 115.804C75.8428 115.804 75.8559 115.806 75.8618 115.807C79.7367 116.528 83.7575 116.909 87.4997 116.909C87.5566 116.909 87.6135 116.909 87.6718 116.909C91.4475 116.898 95.5296 116.49 99.4746 115.733C99.4819 115.733 99.4892 115.73 99.495 115.73C106.791 114.328 112.084 111.956 112.084 110.085V99.0687C110.017 101.489 102.798 103.605 95.944 104.529C93.1165 104.913 90.3329 105.113 87.6733 105.122C85.0049 105.132 82.2081 104.949 79.3676 104.58C72.4916 103.691 65.2495 101.605 63.1778 99.1826V110.199C63.1778 112.083 68.5029 114.439 75.8428 115.804Z" fill="black"/>
</g>
<g id="Group_18">
<path id="Vector_29" d="M112.376 110.085V121.382C112.376 123.812 105.423 126.447 97.1928 127.72H97.1913C94.0984 128.199 90.8245 128.486 87.6718 128.498C84.5001 128.508 81.2218 128.241 78.1245 127.778H78.1231C69.8436 126.545 62.886 123.92 62.886 121.495V110.199C62.886 112.393 68.5831 114.753 75.8034 116.093H75.8077C79.547 116.789 83.6933 117.213 87.6718 117.2C91.6357 117.186 95.7834 116.737 99.5285 116.018H99.5329C106.699 114.643 112.376 112.281 112.376 110.085Z" fill="#FF444F"/>
<path id="Vector_30" d="M87.4967 128.791C84.5074 128.791 81.2598 128.542 78.091 128.07C78.0866 128.07 78.0823 128.07 78.0793 128.07C73.9462 127.454 70.115 126.491 67.2905 125.358C65.1474 124.498 62.5942 123.13 62.5942 121.498V110.202C62.5942 110.041 62.7255 109.91 62.886 109.91C63.0465 109.91 63.1778 110.041 63.1778 110.202C63.1778 112.085 68.5029 114.442 75.8428 115.807C75.8486 115.807 75.8559 115.808 75.8618 115.81C79.7367 116.531 83.7575 116.912 87.4997 116.912C87.5566 116.912 87.6135 116.912 87.6718 116.912C91.4475 116.9 95.5296 116.493 99.4746 115.735C99.4819 115.735 99.4892 115.732 99.495 115.732C106.791 114.331 112.084 111.958 112.084 110.088C112.084 109.928 112.215 109.796 112.376 109.796C112.536 109.796 112.668 109.928 112.668 110.088V121.385C112.668 123.016 110.119 124.391 107.98 125.258C105.173 126.397 101.358 127.374 97.238 128.012C97.2336 128.012 97.2293 128.012 97.2249 128.013C93.9934 128.513 90.6903 128.783 87.6718 128.793C87.6135 128.793 87.5551 128.793 87.4967 128.793V128.791ZM78.1552 127.489C78.1552 127.489 78.164 127.489 78.1669 127.489C81.3109 127.958 84.5322 128.206 87.4967 128.206C87.5551 128.206 87.612 128.206 87.6704 128.206C90.6626 128.196 93.9394 127.929 97.1476 127.432C97.1519 127.432 97.1563 127.432 97.1607 127.431C105.531 126.134 112.086 123.479 112.086 121.384V111.458C110.276 113.589 104.585 115.348 99.5884 116.306C99.5811 116.306 99.5738 116.309 99.5679 116.309C95.5924 117.071 91.4796 117.481 87.6733 117.493C87.6164 117.493 87.558 117.493 87.4997 117.493C83.7269 117.493 79.6754 117.11 75.7698 116.383C75.764 116.383 75.7567 116.382 75.7509 116.381C72.1327 115.709 68.8545 114.767 66.5188 113.732C64.9154 113.021 63.7993 112.297 63.1778 111.569V121.493C63.1778 123.601 69.7561 126.234 78.1552 127.488V127.489Z" fill="black"/>
</g>
<g id="Group_19">
<path id="Vector_31" d="M112.376 121.384V133.389C112.449 136.737 99.2469 140.491 87.6703 140.53C75.993 140.571 62.8261 136.845 62.8845 133.506V121.498C62.8845 123.925 69.8421 126.548 78.1216 127.782H78.123C81.2203 128.245 84.4985 128.512 87.6703 128.502C90.823 128.491 94.0969 128.204 97.1898 127.723H97.1912C105.421 126.45 112.374 123.815 112.374 121.386L112.376 121.384Z" fill="#FF444F"/>
<path id="Vector_32" d="M87.4777 140.82C77.6139 140.82 66.3889 138.165 63.3733 135.106C62.8466 134.572 62.584 134.03 62.5927 133.499V121.495C62.5927 121.334 62.724 121.203 62.8845 121.203C63.045 121.203 63.1763 121.334 63.1763 121.495C63.1763 123.605 69.7546 126.235 78.1537 127.49C78.1581 127.49 78.1625 127.49 78.1654 127.49C81.3094 127.958 84.5307 128.206 87.4952 128.206C87.5536 128.206 87.6105 128.206 87.6689 128.206C90.6611 128.196 93.9379 127.929 97.1461 127.433C97.1504 127.433 97.1548 127.433 97.1592 127.431C105.529 126.135 112.083 123.479 112.083 121.384C112.083 121.223 112.214 121.092 112.374 121.092C112.535 121.092 112.666 121.223 112.666 121.384V133.389C112.678 133.913 112.42 134.452 111.899 134.986C108.902 138.061 97.5808 140.788 87.6703 140.822C87.6061 140.822 87.5405 140.822 87.4763 140.822L87.4777 140.82ZM63.1778 122.856V133.503C63.1719 133.877 63.3776 134.277 63.7891 134.696C66.6617 137.611 77.9174 140.236 87.485 140.236C87.5463 140.236 87.6076 140.236 87.6703 140.236C97.2788 140.204 108.629 137.506 111.483 134.578C111.89 134.16 112.091 133.761 112.084 133.395V122.748C111.207 123.778 109.492 124.646 107.98 125.257C105.173 126.396 101.358 127.373 97.238 128.011C97.2336 128.011 97.2292 128.011 97.2249 128.012C93.9933 128.511 90.6903 128.782 87.6718 128.792C84.6357 128.805 81.321 128.552 78.091 128.071C78.0866 128.071 78.0822 128.071 78.0793 128.071C73.9461 127.454 70.115 126.491 67.2905 125.358C65.7761 124.749 64.056 123.888 63.1778 122.859V122.856Z" fill="black"/>
</g>
<g id="Group_20">
<path id="Vector_33" d="M112.376 97.6889V97.7152C112.376 100.27 104.686 103.054 95.9045 104.238C93.1982 104.605 90.3898 104.819 87.6703 104.829C84.9334 104.84 82.1132 104.643 79.404 104.291C70.5731 103.149 62.8845 100.378 62.8845 97.8276V97.8042C62.9443 94.477 76.1418 91.6213 86.5177 91.4228C98.2257 91.2009 112.301 94.2463 112.374 97.6889H112.376Z" fill="#FF7E88"/>
<path id="Vector_34" d="M87.4603 105.123C84.8546 105.123 82.1322 104.94 79.3661 104.581C71.2355 103.528 62.5928 100.806 62.5928 97.8288V97.8055C62.6613 94.0081 76.8057 91.3175 86.5134 91.1321C92.1799 91.024 98.6721 91.6854 103.878 92.8986C107.138 93.6592 112.618 95.2914 112.668 97.6828V97.7164C112.668 100.676 104.051 103.435 95.9439 104.529C93.1165 104.912 90.3329 105.112 87.6733 105.121C87.6032 105.121 87.5317 105.121 87.4617 105.121L87.4603 105.123ZM87.7287 91.7044C87.3246 91.7044 86.9219 91.7087 86.5251 91.716C81.3663 91.8153 75.5262 92.5657 70.9058 93.7249C66.0913 94.9323 63.2026 96.4594 63.1778 97.8113V97.8288C63.1778 100.073 70.4739 102.841 79.442 104.001C82.2577 104.368 85.0253 104.55 87.6703 104.539C90.3052 104.529 93.0626 104.331 95.8652 103.95C104.808 102.744 112.084 99.9487 112.084 97.7164V97.6931C112.049 96.2565 108.933 94.6768 103.745 93.468C98.9493 92.3497 93.0509 91.7058 87.7287 91.7058V91.7044Z" fill="black"/>
</g>
</g>
</g>
</g>
</g>
</g>
</svg>
