<svg width="128" height="128" viewBox="0 0 128 128" fill="none" xmlns="http://www.w3.org/2000/svg">
<g id="illustration / deriv / light / waiting-poi">
<path id="Vector" d="M95.29 120.37H28.71C22.79 120.37 18 115.89 18 110.37V13.49C18 7.97002 22.79 3.49002 28.71 3.49002H95.29C99.7531 3.3439 103.493 6.83735 103.65 11.3V112.55C103.492 117.014 99.7547 120.51 95.29 120.37Z" fill="#C6E4E4"/>
<path id="Vector_2" d="M60.8252 22.4299C49.9176 22.4299 41.0752 31.2723 41.0752 42.1799C41.0752 53.0876 49.9176 61.9299 60.8252 61.9299C71.7328 61.9299 80.5752 53.0876 80.5752 42.1799C80.5752 36.9419 78.4944 31.9184 74.7905 28.2146C71.0867 24.5107 66.0632 22.4299 60.8252 22.4299ZM42.8252 42.7099H50.6552C50.6649 45.8934 51.1159 49.0602 51.9952 52.1199H45.7952C43.9374 49.3243 42.8982 46.065 42.7952 42.7099H42.8252ZM61.6652 29.9299V24.2099C63.7552 24.6599 65.6652 26.7899 67.0252 29.9299H61.6652ZM67.6652 31.6099C68.6842 34.6399 69.247 37.8045 69.3352 40.9999H61.6652V31.6099H67.6652ZM59.9552 24.2099V29.9299H54.6252C56.0052 26.7899 57.8952 24.6599 59.9852 24.2099H59.9552ZM59.9552 31.6099V40.9999H52.3152C52.3891 37.799 52.9418 34.6271 53.9552 31.5899L59.9552 31.6099ZM50.6252 40.9999H42.8252C43.0355 37.6169 44.1967 34.3621 46.1752 31.6099H52.1752C51.2159 34.6506 50.694 37.8123 50.6252 40.9999ZM52.2952 42.6899H59.9852V52.0999H53.7452C52.8143 49.0556 52.326 45.8932 52.2952 42.7099V42.6899ZM59.9852 53.7999V60.1499C57.7552 59.6599 55.7552 57.2799 54.3552 53.7999H59.9852ZM61.6652 60.1499V53.7999H67.2952C65.8952 57.2799 63.8952 59.6599 61.6652 60.1499ZM61.6652 52.1499V42.7099H69.3552C69.3293 45.9002 68.8408 49.0698 67.9052 52.1199L61.6652 52.1499ZM71.0352 42.7399H78.8652C78.7664 46.0957 77.7269 49.3562 75.8652 52.1499H69.6652C70.5542 49.0813 71.0153 45.9047 71.0352 42.7099V42.7399ZM71.0352 41.0499C70.966 37.8581 70.4544 34.6912 69.5152 31.6399H75.4552C77.4391 34.3803 78.6105 37.6243 78.8352 40.9999L71.0352 41.0499ZM74.0352 29.9599H68.8952C68.1768 28.0777 67.1155 26.3451 65.7652 24.8499C68.9422 25.7508 71.8102 27.5082 74.0552 29.9299L74.0352 29.9599ZM55.8852 24.8199C54.5348 26.3151 53.4736 28.0477 52.7552 29.9299H47.5952C49.8365 27.4972 52.7048 25.7292 55.8852 24.8199ZM47.0152 53.8199H52.5152C53.2427 55.9397 54.3887 57.8916 55.8852 59.5599C52.42 58.5681 49.3308 56.562 47.0152 53.7999V53.8199ZM65.7652 59.5599C67.2763 57.8878 68.4359 55.929 69.1752 53.7999H74.6752C72.3457 56.5609 69.2422 58.5602 65.7652 59.5399V59.5599Z" fill="white"/>
<path id="Vector_3" d="M87.3009 78.4099H34.5509C32.2478 78.4099 30.3809 80.2769 30.3809 82.5799V84.7199C30.3809 87.0229 32.2478 88.8899 34.5509 88.8899H87.3009C89.6039 88.8899 91.4709 87.0229 91.4709 84.7199V82.5799C91.4709 80.2769 89.6039 78.4099 87.3009 78.4099Z" fill="white"/>
<path id="Vector_4" d="M103.001 50.98H13.0605C10.023 50.98 7.56055 53.4424 7.56055 56.48V107C7.56055 110.038 10.023 112.5 13.0605 112.5H103.001C106.038 112.5 108.501 110.038 108.501 107V56.48C108.501 53.4424 106.038 50.98 103.001 50.98Z" fill="white"/>
<path id="Vector_5" d="M103.001 51.48C105.762 51.48 108.001 53.7186 108.001 56.48V107C108.001 109.761 105.762 112 103.001 112H13.0605C10.2991 112 8.06055 109.761 8.06055 107V56.48C8.06055 53.7186 10.2991 51.48 13.0605 51.48H103.001ZM103.001 50.48H13.0605C9.74684 50.48 7.06055 53.1663 7.06055 56.48V107C7.06055 110.314 9.74684 113 13.0605 113H103.001C106.314 113 109.001 110.314 109.001 107V56.48C109.001 53.1663 106.314 50.48 103.001 50.48Z" fill="#F2F2F2"/>
<path id="Vector_6" d="M45.9111 61.24H18.8711C17.2142 61.24 15.8711 62.5831 15.8711 64.24V99.41C15.8711 101.067 17.2142 102.41 18.8711 102.41H45.9111C47.5679 102.41 48.9111 101.067 48.9111 99.41V64.24C48.9111 62.5831 47.5679 61.24 45.9111 61.24Z" fill="#F2F2F2"/>
<path id="Vector_7" d="M89.7513 70.3701H59.5813C58.7252 70.3701 58.0312 71.0641 58.0312 71.9201V73.8701C58.0312 74.7262 58.7252 75.4201 59.5813 75.4201H89.7513C90.6073 75.4201 91.3013 74.7262 91.3013 73.8701V71.9201C91.3013 71.0641 90.6073 70.3701 89.7513 70.3701Z" fill="#E3E4E3"/>
<path id="Vector_8" d="M89.9513 81.74H59.3814C58.6358 81.74 58.0312 82.3444 58.0312 83.09V84.77C58.0312 85.5156 58.6358 86.12 59.3814 86.12H89.9513C90.6969 86.12 91.3013 85.5156 91.3013 84.77V83.09C91.3013 82.3444 90.6969 81.74 89.9513 81.74Z" fill="#E3E4E3"/>
<path id="Vector_9" d="M89.9513 88.5601H59.3814C58.6358 88.5601 58.0312 89.1645 58.0312 89.9101V91.5901C58.0312 92.3356 58.6358 92.9401 59.3814 92.9401H89.9513C90.6969 92.9401 91.3013 92.3356 91.3013 91.5901V89.9101C91.3013 89.1645 90.6969 88.5601 89.9513 88.5601Z" fill="#E3E4E3"/>
<path id="Vector_10" d="M32.4497 81.79C36.1887 81.79 39.2197 78.759 39.2197 75.02C39.2197 71.281 36.1887 68.25 32.4497 68.25C28.7107 68.25 25.6797 71.281 25.6797 75.02C25.6797 78.759 28.7107 81.79 32.4497 81.79Z" fill="#84ABAE"/>
<path id="Vector_11" d="M27 82.0701C27 82.0701 28.48 84.0001 32.45 84.0001C36.42 84.0001 37.72 82.0701 37.72 82.0701C37.72 82.0701 43.78 84.4001 43.78 90.7701C43.78 90.7701 40.64 95.4001 32.64 95.4001C24.64 95.4001 21 90.7701 21 90.7701C21 90.7701 21.19 83.9101 27 82.0701Z" fill="#84ABAE"/>
<path id="Vector_12" d="M100.55 126C112.396 126 122 116.397 122 104.55C122 92.7036 112.396 83.1001 100.55 83.1001C88.7031 83.1001 79.0996 92.7036 79.0996 104.55C79.0996 116.397 88.7031 126 100.55 126Z" fill="#FF6444"/>
<path id="Vector_13" d="M100.549 89.6201L100.539 104.55H114.489" stroke="white" stroke-width="2" stroke-linecap="round" stroke-linejoin="round"/>
</g>
</svg>
