<svg width="128" height="128" viewBox="0 0 128 128" fill="none" xmlns="http://www.w3.org/2000/svg">
<g id="illustration / deriv / light / orders-search">
<g id="vector">
<g id="orders">
<g id="Group">
<g id="Group_2">
<path id="Vector" d="M78.7064 20.6835V103.477C78.7064 104.856 78.2591 106.117 77.5057 107.14C76.5826 108.394 75.1987 109.282 73.6231 109.566H73.6214C73.0429 109.67 72.4393 109.694 71.8221 109.623L22.3931 105.606C18.9443 105.213 16.3379 102.293 16.3379 98.821V13.7606C16.3379 10.7826 18.608 8.38643 21.4414 8.09216H21.4531C21.8466 8.05181 22.2519 8.05181 22.6639 8.09721L29.5969 8.86735L34.7525 9.44075L70.8334 11.8807C75.3164 12.3784 78.708 16.1686 78.708 20.6801L78.7064 20.6835Z" fill="white"/>
<path id="Vector_2" d="M72.5301 110C72.2813 110 72.0324 109.986 71.7819 109.958L22.3529 105.941C18.7308 105.529 16 102.468 16 98.8211V13.7607C16 10.6616 18.3188 8.08214 21.3961 7.75929C21.4045 7.75929 21.4129 7.75761 21.4179 7.75593C21.845 7.71389 22.2755 7.71725 22.6976 7.76433L70.8671 11.5478C75.5266 12.0657 79.0411 15.9921 79.0411 20.6819V103.476C79.0411 104.878 78.6039 106.213 77.7749 107.336C76.7794 108.69 75.3249 109.598 73.6803 109.894C73.6753 109.894 73.6702 109.894 73.6652 109.896C73.2919 109.963 72.9102 109.997 72.5285 109.997L72.5301 110ZM21.4936 8.42518C21.4936 8.42518 21.4785 8.42686 21.4751 8.42854C18.7376 8.71272 16.6726 11.0046 16.6726 13.7624V98.8228C16.6726 102.127 19.1478 104.9 22.4285 105.273L71.8575 109.29C72.4292 109.356 73.0027 109.337 73.5592 109.237C73.5643 109.237 73.5693 109.235 73.5744 109.235C75.044 108.967 76.3439 108.154 77.2334 106.941C77.9767 105.932 78.3685 104.735 78.3685 103.479V20.6852C78.3685 16.3385 75.1113 12.6996 70.7931 12.2204L22.6236 8.43695C22.2503 8.39491 21.8703 8.39323 21.4919 8.42854L21.4936 8.42518Z" fill="black"/>
</g>
<g id="Group_3">
<path id="Vector_3" d="M88.6558 18.9517V101.745C88.6558 105.085 86.0309 107.748 82.8158 107.922V107.933L73.6228 109.565C75.2 109.28 76.584 108.393 77.5054 107.138C78.2588 106.116 78.7061 104.855 78.7061 103.476V20.682C78.7061 16.1688 75.3144 12.3803 70.8314 11.8826L34.7505 9.44265L29.5949 8.86925L22.6619 8.09911C22.2499 8.05371 21.8447 8.0537 21.4512 8.0907L33.2556 6.43607H33.2573C33.8038 6.33181 34.3755 6.30491 34.9641 6.36881L80.7794 10.1506C85.2641 10.65 88.6541 14.4402 88.6541 18.95L88.6558 18.9517Z" fill="#EBECEE"/>
<path id="Vector_4" d="M73.6242 109.903C73.461 109.903 73.3198 109.785 73.2929 109.62C73.2643 109.438 73.3854 109.269 73.5653 109.235C75.04 108.969 76.3449 108.154 77.2378 106.94C77.981 105.931 78.3728 104.734 78.3728 103.477V20.6837C78.3728 16.3369 75.1157 12.6981 70.7975 12.2189L22.628 8.43541C22.253 8.39337 21.8679 8.39169 21.4862 8.42868C21.3063 8.4455 21.1415 8.31602 21.1196 8.13273C21.0978 7.95112 21.2256 7.78633 21.4072 7.75943L33.2099 6.1048C33.7985 5.99382 34.4021 5.97028 35.0024 6.03754L80.8178 9.81931C85.4774 10.3389 88.9918 14.2653 88.9918 18.9534V101.747C88.9918 105.182 86.3333 108.024 82.9231 108.255C82.9046 108.261 82.8861 108.266 82.8659 108.268L73.6712 109.899C73.6561 109.901 73.6393 109.903 73.6242 109.903ZM24.6559 7.98139L70.8698 11.5479C75.5293 12.0658 79.0438 15.9922 79.0438 20.682V103.476C79.0438 104.878 78.6066 106.213 77.7776 107.337C77.337 107.937 76.8056 108.448 76.207 108.858L82.691 107.609C82.7247 107.594 82.76 107.585 82.797 107.584C85.8927 107.417 88.3175 104.851 88.3175 101.742V18.9484C88.3175 14.6033 85.0603 10.9644 80.7404 10.4835L34.9251 6.70175C34.387 6.64289 33.8472 6.66307 33.3192 6.76396C33.3091 6.76565 33.299 6.76733 33.289 6.76901L24.6525 7.97971L24.6559 7.98139Z" fill="black"/>
</g>
</g>
<g id="Group 12">
<path id="Vector_5" d="M36.7138 20.0738C37.9237 20.1871 38.8485 21.2025 38.8485 22.4177V35.1131C38.8485 36.4999 37.6558 37.5862 36.275 37.457L25.3434 36.4342C24.1334 36.321 23.2085 35.3055 23.2085 34.0903V21.3939C23.2085 20.007 24.4013 18.9207 25.7822 19.05L36.7138 20.0738Z" fill="#CED0D6"/>
<path id="Vector (Stroke)" fill-rule="evenodd" clip-rule="evenodd" d="M38.26 35.1131V22.4177C38.26 21.5063 37.5663 20.7447 36.659 20.6597L25.7273 19.636C24.6917 19.539 23.797 20.3538 23.797 21.3939V34.0903C23.797 35.0017 24.4907 35.7633 25.3982 35.8482L36.3299 36.871C37.3654 36.9679 38.26 36.1532 38.26 35.1131ZM38.8485 22.4177C38.8485 21.2025 37.9237 20.1871 36.7138 20.0738L25.7822 19.05C24.4013 18.9207 23.2085 20.007 23.2085 21.3939V34.0903C23.2085 35.3055 24.1334 36.321 25.3434 36.4342L36.275 37.457C37.6558 37.5862 38.8485 36.4999 38.8485 35.1131V22.4177Z" fill="#333333"/>
<path id="Union" fill-rule="evenodd" clip-rule="evenodd" d="M70.3231 27.976C70.3349 27.9777 70.3484 27.9777 70.3601 27.9777C70.53 27.9777 70.6763 27.8499 70.6948 27.6784C70.715 27.4935 70.5821 27.327 70.3971 27.3068L43.9347 24.3658C43.7497 24.3456 43.5832 24.4785 43.5631 24.6634C43.5429 24.8484 43.6757 25.0149 43.8607 25.035L70.3231 27.976ZM70.3601 32.7688C70.3484 32.7688 70.3349 32.7688 70.3231 32.7671L43.8607 29.8261C43.6757 29.8059 43.5429 29.6395 43.5631 29.4545C43.5832 29.2695 43.7497 29.1367 43.9347 29.1569L70.3971 32.0979C70.5821 32.118 70.715 32.2845 70.6948 32.4695C70.6763 32.641 70.53 32.7688 70.3601 32.7688ZM70.3601 37.5598C70.3484 37.5598 70.3349 37.5598 70.3231 37.5582L43.8607 34.6172C43.6757 34.597 43.5429 34.4305 43.5631 34.2455C43.5832 34.0606 43.7497 33.9277 43.9347 33.9479L70.3971 36.8889C70.5821 36.9091 70.715 37.0756 70.6948 37.2605C70.6763 37.4321 70.53 37.5598 70.3601 37.5598Z" fill="black"/>
</g>
<g id="Group 13">
<path id="Vector_6" d="M36.7138 44.023C37.9237 44.1363 38.8485 45.1518 38.8485 46.3669V59.0623C38.8485 60.4491 37.6558 61.5354 36.275 61.4062L25.3434 60.3834C24.1334 60.2702 23.2085 59.2547 23.2085 58.0395V45.3431C23.2085 43.9563 24.4013 42.8699 25.7822 42.9992L36.7138 44.023Z" fill="#EBECEE"/>
<path id="Vector (Stroke)_2" fill-rule="evenodd" clip-rule="evenodd" d="M38.26 59.0623V46.3669C38.26 45.4555 37.5663 44.6939 36.659 44.609L25.7273 43.5852C24.6917 43.4882 23.797 44.303 23.797 45.3431V58.0395C23.797 58.9509 24.4907 59.7126 25.3982 59.7975L36.3299 60.8202C37.3654 60.9171 38.26 60.1024 38.26 59.0623ZM38.8485 46.3669C38.8485 45.1518 37.9237 44.1363 36.7138 44.023L25.7822 42.9992C24.4013 42.8699 23.2085 43.9563 23.2085 45.3431V58.0395C23.2085 59.2547 24.1334 60.2702 25.3434 60.3834L36.275 61.4062C37.6558 61.5354 38.8485 60.4491 38.8485 59.0623V46.3669Z" fill="#333333"/>
<path id="Union_2" fill-rule="evenodd" clip-rule="evenodd" d="M70.3231 51.9253C70.3349 51.9269 70.3484 51.9269 70.3601 51.9269C70.53 51.9269 70.6763 51.7992 70.6948 51.6276C70.715 51.4427 70.5821 51.2762 70.3971 51.256L43.9347 48.315C43.7497 48.2948 43.5832 48.4277 43.5631 48.6126C43.5429 48.7976 43.6757 48.9641 43.8607 48.9843L70.3231 51.9253ZM70.3601 56.718C70.3484 56.718 70.3349 56.718 70.3231 56.7163L43.8607 53.7753C43.6757 53.7551 43.5429 53.5887 43.5631 53.4037C43.5832 53.2187 43.7497 53.0859 43.9347 53.1061L70.3971 56.0471C70.5821 56.0673 70.715 56.2337 70.6948 56.4187C70.6763 56.5902 70.53 56.718 70.3601 56.718ZM70.3601 61.5091C70.3484 61.5091 70.3349 61.5091 70.3231 61.5074L43.8607 58.5664C43.6757 58.5462 43.5429 58.3797 43.5631 58.1948C43.5832 58.0098 43.7497 57.877 43.9347 57.8971L70.3971 60.8381C70.5821 60.8583 70.715 61.0248 70.6948 61.2098C70.6763 61.3813 70.53 61.5091 70.3601 61.5091Z" fill="black"/>
</g>
<g id="Group 14">
<path id="Vector_7" d="M36.7138 67.9707C37.9237 68.084 38.8485 69.0995 38.8485 70.3146V83.01C38.8485 84.3968 37.6558 85.4831 36.275 85.354L25.3434 84.3312C24.1334 84.218 23.2085 83.2025 23.2085 81.9873V69.2909C23.2085 67.904 24.4013 66.8177 25.7822 66.947L36.7138 67.9707Z" fill="#CED0D6"/>
<path id="Vector (Stroke)_3" fill-rule="evenodd" clip-rule="evenodd" d="M38.26 83.01V70.3146C38.26 69.4033 37.5663 68.6417 36.659 68.5567L25.7273 67.533C24.6917 67.436 23.797 68.2507 23.797 69.2909V81.9873C23.797 82.8987 24.4907 83.6603 25.3982 83.7452L36.3299 84.768C37.3654 84.8649 38.26 84.0501 38.26 83.01ZM38.8485 70.3146C38.8485 69.0995 37.9237 68.084 36.7138 67.9707L25.7822 66.947C24.4013 66.8177 23.2085 67.904 23.2085 69.2909V81.9873C23.2085 83.2025 24.1334 84.218 25.3434 84.3312L36.275 85.354C37.6558 85.4831 38.8485 84.3968 38.8485 83.01V70.3146Z" fill="#333333"/>
<path id="Union_3" fill-rule="evenodd" clip-rule="evenodd" d="M70.3231 75.873C70.3349 75.8747 70.3484 75.8747 70.3601 75.8747C70.53 75.8747 70.6763 75.7469 70.6948 75.5754C70.715 75.3904 70.5821 75.2239 70.3971 75.2038L43.9347 72.2628C43.7497 72.2426 43.5832 72.3754 43.5631 72.5604C43.5429 72.7454 43.6757 72.9118 43.8607 72.932L70.3231 75.873ZM70.3601 80.6658C70.3484 80.6658 70.3349 80.6658 70.3231 80.6641L43.8607 77.7231C43.6757 77.7029 43.5429 77.5364 43.5631 77.3515C43.5832 77.1665 43.7497 77.0336 43.9347 77.0538L70.3971 79.9948C70.5821 80.015 70.715 80.1815 70.6948 80.3665C70.6763 80.538 70.53 80.6658 70.3601 80.6658ZM70.3601 85.4568C70.3484 85.4568 70.3349 85.4568 70.3231 85.4551L43.8607 82.5141C43.6757 82.494 43.5429 82.3275 43.5631 82.1425C43.5832 81.9575 43.7497 81.8247 43.9347 81.8449L70.3971 84.7859C70.5821 84.8061 70.715 84.9725 70.6948 85.1575C70.6763 85.329 70.53 85.4568 70.3601 85.4568Z" fill="black"/>
</g>
</g>
<g id="search">
<g id="Vector_8">
<path fill-rule="evenodd" clip-rule="evenodd" d="M90.1242 73.8449C86.7473 72.3452 83.5971 73.1397 82.4727 73.4378C78.4329 74.5121 76.1949 77.3042 75.3008 78.4487C74.7394 79.1701 72.0534 82.7521 72.1205 87.9535C72.1263 88.3886 72.138 88.988 72.2168 89.7012C72.2223 89.7511 72.2282 89.8016 72.2344 89.8526C72.4032 91.2428 72.8323 93.0338 73.9477 94.8746C75.4712 97.222 76.4994 98.259 78.8774 99.4847C80.5574 100.273 82.337 100.476 83.7964 100.444C85.9005 100.29 87.2693 99.9046 88.9646 99.2807C93.3277 97.29 95.1232 93.393 95.7077 92.1093C95.7111 92.1031 95.7142 92.0969 95.7171 92.0905C96.3024 90.8012 98.1937 86.1504 96.242 80.9437C96.1409 80.6694 95.9892 80.2711 95.7778 79.7968C95.2822 78.6863 94.4442 77.1543 93.0478 75.8178C92.2634 75.0613 91.3 74.3682 90.1242 73.8449ZM88.7367 98.7541C92.9292 96.8416 94.6529 93.111 95.2194 91.8655C95.2222 91.8593 95.2253 91.8532 95.2286 91.8472C95.8067 90.5691 97.5958 86.1084 95.731 81.1345L95.7305 81.133C95.6316 80.8647 95.4846 80.4785 95.2797 80.0191C94.8106 78.9679 94.0326 77.5461 92.7581 76.2965C90.9586 76.4843 88.8078 77.0363 86.6857 78.3731C83.4981 80.3818 82.0184 83.1254 81.5193 84.1666C79.5475 88.2674 80.1857 92.0944 80.5263 93.5749C81.2558 96.7257 82.87 98.8714 83.7964 99.929C85.9925 99.8574 88.2112 98.9662 88.7367 98.7541ZM89.9026 74.3413C86.707 72.9221 83.7163 73.6703 82.6122 73.9629C78.7549 74.9888 76.6114 77.6547 75.7308 78.7818C75.1928 79.4732 72.601 82.9314 72.6656 87.9441C72.6712 88.3622 72.6824 88.9267 72.7538 89.5935L72.7556 89.6105C72.9031 90.9715 73.3021 92.755 74.414 94.59C74.9502 95.4756 76.3361 97.6913 79.1091 98.9909C80.4795 99.6342 81.8385 99.8883 83.0791 99.9267C82.1013 98.7383 80.6764 96.6411 79.9948 93.6974C79.6428 92.1673 78.9774 88.1947 81.0275 83.9309C81.5469 82.8474 83.0829 79.9987 86.395 77.9117C88.4193 76.6365 90.4671 76.0491 92.2308 75.8104C91.5754 75.2504 90.8052 74.7431 89.9026 74.3413Z" fill="black"/>
<path fill-rule="evenodd" clip-rule="evenodd" d="M80.9493 108.807C80.8137 108.792 80.6878 108.879 80.6546 109.012C80.0411 110.331 79.6807 111.066 79.41 111.618C79.3574 111.725 79.3082 111.826 79.2613 111.922C78.9604 112.539 78.6529 113.169 77.8546 114.887C77.7008 115.232 77.4705 115.695 77.1388 116.197C76.9217 116.523 76.5345 117.088 75.9893 117.591C75.7991 117.765 74.813 118.641 73.2166 118.994C72.6276 119.122 71.673 119.324 70.5906 119.033C70.4619 119.001 70.3123 118.954 70.1839 118.904C68.8641 118.4 68.179 117.4 67.7842 116.822C67.6042 116.559 66.9267 115.52 66.7243 113.998C66.5604 112.771 66.7846 111.811 66.8954 111.357C67.0504 110.718 67.2655 110.198 67.4419 109.832C68.2431 108.098 68.5474 107.465 68.8492 106.837C69.1512 106.209 69.4549 105.578 70.2556 103.846C70.3013 103.747 70.2837 103.63 70.2109 103.549C69.2838 102.518 68.1323 101.049 67.0876 99.1234C65.466 96.1369 64.9164 93.5533 64.7598 92.7459C63.9995 88.8394 64.5422 85.7422 64.8168 84.2624C65.5168 80.472 66.9459 77.8163 67.8963 76.0845C69.0042 74.0611 69.9917 72.8169 70.2773 72.4625C70.7513 71.8734 72.0181 70.3639 73.882 68.9053C75.2027 67.8705 78.1721 65.6037 82.5639 64.7786C83.7698 64.5535 88.2721 63.8455 93.1548 65.9148C93.5149 66.0683 93.877 66.2361 94.2406 66.42C101.487 70.1054 103.572 77.5038 104.059 79.2438C106.774 88.9161 101.705 96.9005 100.599 98.6364C99.1951 100.848 96.3083 105.246 90.5689 107.547C86.5679 109.151 82.939 109.029 80.9493 108.807ZM82.4727 73.4378C83.5971 73.1397 86.7473 72.3452 90.1242 73.8449C91.3 74.3682 92.2634 75.0613 93.0478 75.8178C94.4442 77.1543 95.2822 78.6863 95.7778 79.7968C95.9892 80.2711 96.1409 80.6694 96.242 80.9437C98.1937 86.1504 96.3024 90.8012 95.7171 92.0905C95.7142 92.0969 95.7111 92.1031 95.7077 92.1093C95.1232 93.393 93.3277 97.29 88.9646 99.2807C87.2693 99.9046 85.9005 100.29 83.7964 100.444C82.337 100.476 80.5574 100.273 78.8774 99.4847C76.4994 98.259 75.4712 97.222 73.9477 94.8746C72.8323 93.0338 72.4032 91.2428 72.2344 89.8526C72.2282 89.8016 72.2223 89.7511 72.2168 89.7012C72.138 88.988 72.1263 88.3886 72.1205 87.9535C72.0534 82.7521 74.7394 79.1701 75.3008 78.4487C76.1949 77.3042 78.4329 74.5121 82.4727 73.4378Z" fill="#FF7E88"/>
<path d="M104.584 79.096C104.14 77.509 102.341 71.094 96.4301 67.0805C98.1284 67.6846 99.8266 68.2888 101.525 68.8936C103.433 70.0479 108.279 73.3396 110.744 79.6318C112.523 84.1771 112.225 88.1481 112.078 89.8597C111.997 90.7758 111.564 95.1873 108.796 100.095C107.761 101.928 105.952 105.053 102.285 107.741C98.1379 110.778 94.0685 111.448 93.1924 111.576C91.2371 111.86 89.5751 111.793 88.4174 111.673C88.0666 111.538 87.7276 111.407 87.4004 111.281C86.8945 111.086 86.4145 110.901 85.9653 110.729L85.7116 110.632C85.552 110.57 85.3956 110.51 85.2445 110.452C84.9788 110.35 84.7197 110.25 84.4786 110.157C84.0923 110.009 83.7371 109.872 83.4144 109.746L83.0413 109.603C83.0161 109.593 82.9264 109.561 82.8424 109.531C82.7721 109.505 82.7059 109.481 82.6852 109.474C84.7879 109.529 87.68 109.292 90.7719 108.053C96.6803 105.685 99.6451 101.157 101.06 98.9291C102.171 97.1843 107.368 89.0157 104.584 79.096Z" fill="#FF444F"/>
<path d="M82.6122 73.9629C83.7163 73.6703 86.707 72.9221 89.9026 74.3413C90.8052 74.7431 91.5754 75.2504 92.2308 75.8104C90.4671 76.0491 88.4193 76.6365 86.395 77.9117C83.0829 79.9987 81.5469 82.8474 81.0275 83.9309C78.9774 88.1947 79.6428 92.1673 79.9948 93.6974C80.6764 96.6411 82.1013 98.7383 83.0791 99.9267C81.8385 99.8883 80.4795 99.6342 79.1091 98.9909C76.3361 97.6913 74.9502 95.4756 74.414 94.59C73.3021 92.755 72.9031 90.9715 72.7556 89.6105L72.7538 89.5935C72.6824 88.9267 72.6712 88.3622 72.6656 87.9441C72.601 82.9314 75.1928 79.4732 75.7308 78.7818C76.6114 77.6547 78.7549 74.9888 82.6122 73.9629Z" fill="#FF444F"/>
<path fill-rule="evenodd" clip-rule="evenodd" d="M93.3532 65.407L95.9891 66.3447C97.0334 66.7162 98.0924 67.0946 99.1499 67.4726C100.032 67.7877 100.912 68.1024 101.783 68.4125C103.713 69.5768 108.712 72.9486 111.251 79.4329C113.077 84.0982 112.77 88.1722 112.621 89.9067C112.538 90.8559 112.095 95.3572 109.271 100.363C108.227 102.212 106.372 105.422 102.607 108.181C98.315 111.325 94.1045 111.996 93.245 112.12C91.364 112.39 89.6954 112.34 88.5238 112.232C87.8661 113.657 87.5378 114.344 87.2652 114.914C87.239 114.969 87.2132 115.023 87.1877 115.076C86.8854 115.71 86.5774 116.355 85.777 118.09C85.5741 118.495 85.2608 119.047 84.8017 119.63C84.411 120.122 83.6435 121.078 82.3911 121.74C80.7318 122.612 79.0938 122.512 78.3462 122.412C77.906 122.253 77.4514 122.09 76.997 121.927L76.9784 121.92C76.537 121.762 76.0959 121.604 75.6684 121.449C75.1 121.244 73.9732 120.841 72.8378 120.434C71.7227 120.035 70.5992 119.634 69.9878 119.413C68.5069 118.847 67.7342 117.716 67.3341 117.13C67.1322 116.835 66.4022 115.714 66.1837 114.07C66.0062 112.742 66.2496 111.703 66.3653 111.229C66.5312 110.544 66.7592 109.993 66.9476 109.601C67.7494 107.866 68.0522 107.236 68.355 106.607C68.6461 106.001 68.9422 105.385 69.6854 103.78C68.7581 102.732 67.6331 101.272 66.6082 99.3836C64.9497 96.3289 64.3864 93.6853 64.2245 92.8501C63.4443 88.8416 64.0021 85.6635 64.2805 84.1631C64.9969 80.2841 66.461 77.5662 67.418 75.8224L68.5714 73.9061L69.8524 72.1204C70.3392 71.5155 71.6356 69.9707 73.5456 68.476C74.883 67.4281 77.9383 65.0926 82.4638 64.2425C83.7077 64.0103 88.3212 63.2726 93.3532 65.407ZM80.9493 108.807C80.8137 108.792 80.6878 108.879 80.6546 109.012C80.0411 110.331 79.6807 111.066 79.41 111.618C79.3574 111.725 79.3082 111.826 79.2613 111.922C78.9604 112.539 78.6529 113.169 77.8546 114.887C77.7008 115.232 77.4705 115.695 77.1388 116.197C76.9217 116.523 76.5345 117.088 75.9893 117.591C75.7991 117.765 74.813 118.641 73.2166 118.994C72.6276 119.122 71.673 119.324 70.5906 119.033C70.4619 119.001 70.3123 118.954 70.1839 118.904C68.8641 118.4 68.179 117.4 67.7842 116.822C67.6042 116.559 66.9267 115.52 66.7243 113.998C66.5604 112.771 66.7846 111.811 66.8954 111.357C67.0504 110.718 67.2655 110.198 67.4419 109.832C68.2431 108.098 68.5474 107.465 68.8492 106.837C69.1512 106.209 69.4549 105.578 70.2556 103.846C70.3013 103.747 70.2837 103.63 70.2109 103.549C69.2838 102.518 68.1323 101.049 67.0876 99.1234C65.466 96.1369 64.9164 93.5533 64.7598 92.7459C63.9995 88.8394 64.5422 85.7422 64.8168 84.2624C65.5168 80.472 66.9459 77.8163 67.8963 76.0845C69.0042 74.0611 69.9917 72.8169 70.2773 72.4625C70.7513 71.8734 72.0181 70.3639 73.882 68.9053C75.2027 67.8705 78.1721 65.6037 82.5639 64.7786C83.7698 64.5535 88.2721 63.8455 93.1548 65.9148C93.5149 66.0683 93.877 66.2361 94.2406 66.42C101.487 70.1054 103.572 77.5038 104.059 79.2438C106.774 88.9161 101.705 96.9005 100.599 98.6364C99.1951 100.848 96.3083 105.246 90.5689 107.547C86.5679 109.151 82.939 109.029 80.9493 108.807ZM104.584 79.096C104.14 77.509 102.341 71.094 96.4301 67.0805C98.1284 67.6846 99.8266 68.2888 101.525 68.8936C103.433 70.0479 108.279 73.3396 110.744 79.6318C112.523 84.1771 112.225 88.1481 112.078 89.8597C111.997 90.7758 111.564 95.1873 108.796 100.095C107.761 101.928 105.952 105.053 102.285 107.741C98.1379 110.778 94.0685 111.448 93.1924 111.576C91.2371 111.86 89.5751 111.793 88.4174 111.673C88.0666 111.538 87.7276 111.407 87.4004 111.281C86.8945 111.086 86.4145 110.901 85.9653 110.729L85.7116 110.632C85.552 110.57 85.3956 110.51 85.2445 110.452C84.9788 110.35 84.7197 110.25 84.4786 110.157C84.0923 110.009 83.7371 109.872 83.4144 109.746L83.0413 109.603C83.0161 109.593 82.9264 109.561 82.8424 109.531C82.7721 109.505 82.7059 109.481 82.6852 109.474C84.7879 109.529 87.68 109.292 90.7719 108.053C96.6803 105.685 99.6451 101.157 101.06 98.9291C102.171 97.1843 107.368 89.0157 104.584 79.096ZM87.8089 112.017C88.2589 112.19 86.6977 111.595 87.2044 111.79C87.3754 111.856 87.5992 111.939 87.8089 112.017C87.8709 112.041 87.9317 112.063 87.9895 112.085C87.3337 113.505 87.0328 114.135 86.7649 114.696C86.7416 114.745 86.7185 114.793 86.6955 114.841C86.3924 115.476 86.084 116.122 85.2836 117.858C85.0926 118.238 84.8026 118.747 84.3734 119.293C83.9899 119.776 83.2837 120.65 82.1419 121.255C80.6463 122.043 79.1599 121.967 78.447 121.875L75.854 120.937C75.289 120.732 74.2442 120.358 73.192 119.981L73.188 119.979C72.9173 119.882 72.6462 119.785 72.3826 119.691C72.7576 119.65 73.0768 119.583 73.3177 119.53C75.0015 119.158 76.0768 118.247 76.3369 118.012C76.9462 117.456 77.3713 116.832 77.5931 116.499C77.945 115.967 78.1875 115.48 78.3502 115.114C79.1465 113.401 79.452 112.775 79.7515 112.161C79.7891 112.084 79.8264 112.007 79.8645 111.93C80.1214 111.404 80.4118 110.811 81.0565 109.425C81.2258 109.49 87.4648 111.883 87.9895 112.085C87.5421 111.913 88.2556 112.188 87.9895 112.085C87.9207 112.058 88.0861 112.122 87.9895 112.085C87.7231 111.982 88.2323 112.178 87.9895 112.085C88.1392 112.142 87.6505 111.956 87.8089 112.017Z" fill="black"/>
<path d="M87.2044 111.79C86.6977 111.595 88.2589 112.19 87.8089 112.017C87.6505 111.956 88.1392 112.142 87.9895 112.085C87.7231 111.982 88.2323 112.178 87.9895 112.085C87.5421 111.913 88.2556 112.188 87.9895 112.085C87.4648 111.883 81.2258 109.49 81.0565 109.425C80.4118 110.811 80.1214 111.404 79.8645 111.93L79.7515 112.161C79.452 112.775 79.1465 113.401 78.3502 115.114C78.1875 115.48 77.945 115.967 77.5931 116.499C77.3713 116.832 76.9462 117.456 76.3369 118.012C76.0768 118.247 75.0015 119.158 73.3177 119.53C73.0768 119.583 72.7576 119.65 72.3826 119.691L73.188 119.979L73.192 119.981C74.2442 120.358 75.289 120.732 75.854 120.937L78.447 121.875C79.1599 121.967 80.6463 122.043 82.1419 121.255C83.2837 120.65 83.9899 119.776 84.3734 119.293C84.8026 118.747 85.0926 118.238 85.2836 117.858C86.084 116.122 86.3924 115.476 86.6955 114.841L86.7649 114.696C87.0328 114.135 87.3337 113.505 87.9895 112.085L87.8089 112.017C87.5992 111.939 87.3754 111.856 87.2044 111.79Z" fill="#FF444F"/>
</g>
</g>
</g>
</g>
</svg>
