<svg width="128" height="128" viewBox="0 0 128 128" fill="none" xmlns="http://www.w3.org/2000/svg">
<g id="illustration / deriv / light / dmt5-password">
<g id="one password 01">
<path id="Path" d="M98.7854 110H7.21456C4.91571 110 3 108.084 3 105.785V14.2146C3 11.9157 4.91571 10 7.21456 10H98.7854C101.084 10 103 11.9157 103 14.2146V105.402C103 108.084 101.084 110 98.7854 110Z" fill="#BCE4E5"/>
<g id="Group">
<path id="Path_2" opacity="0.5" d="M88.4402 92.3754H17.559C15.2601 92.3754 13.7275 90.4597 13.7275 88.544V75.5172C13.7275 73.2184 15.6432 71.6858 17.559 71.6858H88.057C90.3559 71.6858 91.8885 73.6015 91.8885 75.5172V88.544C92.2716 90.4597 90.3559 92.3754 88.4402 92.3754Z" fill="white"/>
<g id="Path_3">
<path id="Vector" d="M27.9038 82.0307L30.2026 83.1801L29.0532 84.7127L26.7544 83.1801V85.8621H24.8387V83.1801L22.5398 84.7127L21.3904 83.1801L23.6892 82.0307L21.3904 80.8813L22.5398 78.9656L24.8387 80.4982V77.8162H26.7544V80.4982L29.0532 78.9656L30.2026 80.4982L27.9038 82.0307Z" fill="white"/>
<path id="Vector_2" d="M41.3139 82.0307L43.6127 83.1801L42.4633 84.7127L40.1644 83.1801V85.8621H38.6319V83.1801L36.333 84.7127L35.1836 83.1801L37.4824 82.0307L35.1836 80.8813L36.333 78.9656L38.6319 80.4982V77.8162H40.5476V80.4982L42.8464 78.9656L43.9959 80.4982L41.3139 82.0307Z" fill="white"/>
<path id="Vector_3" d="M55.1067 82.0306L57.4055 83.1801L56.2561 84.7126L53.9572 83.1801V85.8621H52.0415V83.1801L49.7427 84.7126L48.5933 83.1801L50.8921 82.0306L48.5933 80.8812L49.7427 79.3486L52.0415 80.8812V78.1992H53.9572V80.8812L56.2561 79.3486L57.4055 80.8812L55.1067 82.0306Z" fill="white"/>
<path id="Vector_4" d="M68.5168 82.0306L70.8157 83.1801L69.6663 84.7126L67.3674 83.1801V85.8621H65.4517V83.1801L63.1528 84.7126L62.0034 83.1801L64.3023 82.0306L62.0034 80.8812L63.1528 79.3486L65.4517 80.8812V78.1992H67.3674V80.8812L69.6663 79.3486L70.8157 80.8812L68.5168 82.0306Z" fill="white"/>
<path id="Vector_5" d="M82.3098 82.0307L84.6086 83.1801L83.4592 84.7127L81.1604 83.1801V85.8621H79.2447V83.1801L76.9458 84.7127L75.7964 83.1801L78.0952 82.0307L75.7964 80.4982L76.9458 78.9656L79.2447 80.4982V77.8162H81.1604V80.4982L83.4592 78.9656L84.6086 80.4982L82.3098 82.0307Z" fill="white"/>
</g>
</g>
<g id="Group_2">
<path id="Oval" opacity="0.5" d="M53.1919 63.2569C65.4649 63.2569 75.4142 53.3077 75.4142 41.0347C75.4142 28.7617 65.4649 18.8125 53.1919 18.8125C40.919 18.8125 30.9697 28.7617 30.9697 41.0347C30.9697 53.3077 40.919 63.2569 53.1919 63.2569Z" fill="white"/>
<g id="Group_3">
<path id="Shape" d="M61.6206 39.5021H43.9961C42.8467 39.5021 41.6973 40.6515 41.6973 41.8009V52.5289C41.6973 53.6783 42.8467 54.8277 43.9961 54.8277H61.6206C62.7701 54.8277 63.9195 53.6783 63.9195 52.5289V42.1841C64.3026 40.6515 63.1532 39.5021 61.6206 39.5021ZM54.7241 51.3795H51.659L52.4252 47.1649C51.659 46.7818 51.2758 46.0155 51.2758 45.2492C51.2758 44.0998 52.0421 42.9504 53.5747 42.9504C54.7241 42.9504 55.8735 43.7166 55.8735 45.2492C55.8735 46.0155 55.4904 46.7818 54.7241 47.1649V51.3795Z" fill="#72AEB2"/>
<path id="Path_4" d="M47.8271 37.9695L47.4439 36.4369C46.6776 33.3718 48.5933 30.6898 51.6585 29.9235C54.7236 29.1572 57.4056 31.0729 58.1719 34.1381L58.555 35.6706L61.6202 34.9043L61.237 33.3718C60.4707 28.7741 55.873 25.7089 51.2753 26.8584C46.6776 27.6246 43.6125 32.2223 44.7619 36.82L45.1451 38.3526L47.8271 37.9695Z" fill="#72AEB2"/>
</g>
</g>
<path id="Path_5" opacity="0.2" d="M65.4521 99.6553H40.5479C39.7816 99.6553 39.3984 99.2722 39.3984 98.5059C39.3984 97.7396 39.7816 97.3564 40.5479 97.3564H65.4521C66.2184 97.3564 66.6015 97.7396 66.6015 98.5059C66.6015 99.2722 66.2184 99.6553 65.4521 99.6553Z" fill="black"/>
</g>
<g id="circle">
<path id="Oval_2" d="M103 118C115.15 118 125 108.15 125 96C125 83.8497 115.15 74 103 74C90.8497 74 81 83.8497 81 96C81 108.15 90.8497 118 103 118Z" fill="#72AEB2"/>
<g id="DMT5">
<path d="M87.4238 92.624H90.5798C91.1318 92.624 91.6358 92.712 92.0918 92.888C92.5478 93.064 92.9358 93.328 93.2558 93.68C93.5758 94.024 93.8238 94.46 93.9998 94.988C94.1758 95.508 94.2638 96.116 94.2638 96.812C94.2638 97.508 94.1758 98.12 93.9998 98.648C93.8238 99.168 93.5758 99.604 93.2558 99.956C92.9358 100.3 92.5478 100.56 92.0918 100.736C91.6358 100.912 91.1318 101 90.5798 101H87.4238V92.624ZM90.5798 99.38C91.1238 99.38 91.5518 99.228 91.8638 98.924C92.1758 98.62 92.3318 98.132 92.3318 97.46V96.164C92.3318 95.492 92.1758 95.004 91.8638 94.7C91.5518 94.396 91.1238 94.244 90.5798 94.244H89.2478V99.38H90.5798Z" fill="white"/>
<path d="M102.055 95.504H102.019L101.407 96.728L99.775 99.692L98.179 96.74L97.543 95.42H97.507V101H95.791V92.624H97.723L99.775 96.548H99.799L101.827 92.624H103.771V101H102.055V95.504Z" fill="white"/>
<path d="M109.115 94.244V101H107.291V94.244H105.023V92.624H111.383V94.244H109.115Z" fill="white"/>
<path d="M117.971 94.196H114.167L113.987 96.848H114.083C114.163 96.648 114.251 96.468 114.347 96.308C114.451 96.14 114.571 96 114.707 95.888C114.843 95.768 115.007 95.676 115.199 95.612C115.391 95.548 115.619 95.516 115.883 95.516C116.243 95.516 116.579 95.576 116.891 95.696C117.203 95.816 117.475 95.992 117.707 96.224C117.939 96.448 118.123 96.728 118.259 97.064C118.395 97.392 118.463 97.764 118.463 98.18C118.463 98.604 118.391 99 118.247 99.368C118.111 99.728 117.903 100.04 117.623 100.304C117.351 100.568 117.015 100.776 116.615 100.928C116.215 101.072 115.759 101.144 115.247 101.144C114.839 101.144 114.479 101.1 114.167 101.012C113.855 100.924 113.579 100.808 113.339 100.664C113.099 100.512 112.891 100.34 112.715 100.148C112.539 99.956 112.387 99.752 112.259 99.536L113.567 98.504C113.751 98.832 113.971 99.112 114.227 99.344C114.483 99.568 114.827 99.68 115.259 99.68C115.691 99.68 116.015 99.556 116.231 99.308C116.455 99.06 116.567 98.732 116.567 98.324V98.228C116.567 97.844 116.455 97.54 116.231 97.316C116.007 97.092 115.699 96.98 115.307 96.98C114.979 96.98 114.707 97.048 114.491 97.184C114.283 97.312 114.123 97.44 114.011 97.568L112.535 97.364L112.847 92.624H117.971V94.196Z" fill="white"/>
</g>
</g>
</g>
</svg>
