<svg width="128" height="128" viewBox="0 0 128 128" fill="none" xmlns="http://www.w3.org/2000/svg">
<g id="illustration / deriv / light / wallet-top-up">
<g id="Group">
<path id="Vector" d="M97.8885 115.505H26.041C22.3663 115.505 19.3594 112.381 19.3594 108.564V56.3575C19.3594 52.54 22.3663 49.4163 26.041 49.4163H97.8885C101.563 49.4163 104.57 52.54 104.57 56.3575V108.564C104.57 112.381 101.563 115.505 97.8885 115.505Z" fill="#BFCBCC"/>
<g id="Group_2">
<path id="Vector_2" d="M41.9363 100.866C41.0828 100.866 40.2472 100.55 39.5865 99.9752C38.833 99.3222 38.3688 98.4022 38.2831 97.3931L31.93 23.0795C31.7515 20.9871 33.2442 19.1321 35.2619 18.9429L74.0122 15.3665C74.1229 15.3554 74.23 15.3517 74.3407 15.3517C75.1942 15.3517 76.0299 15.667 76.6906 16.2421C77.4441 16.895 77.9047 17.8151 77.994 18.8242L84.3471 93.1378C84.497 94.8777 83.49 96.499 81.9008 97.074C81.6187 97.1779 81.3187 97.2447 81.0152 97.2706L42.2649 100.843C42.1542 100.862 42.0435 100.866 41.9363 100.866Z" fill="#9DB6B9"/>
<path id="Vector_3" d="M74.3405 15.6373C75.1333 15.6373 75.894 15.923 76.5154 16.4609C77.2117 17.0656 77.6403 17.9152 77.7188 18.8501L84.0719 93.1637C84.2111 94.8035 83.2398 96.2875 81.8078 96.8069C81.5471 96.8996 81.2757 96.9627 80.99 96.9887L42.2396 100.565C42.1397 100.576 42.0361 100.58 41.9361 100.58C41.1433 100.58 40.3791 100.294 39.7613 99.7563C39.0649 99.1516 38.6364 98.302 38.5542 97.3671L32.2048 23.0535C32.0405 21.1169 33.419 19.3992 35.2867 19.2285L74.037 15.6522C74.137 15.6447 74.2405 15.6373 74.3405 15.6373ZM74.3405 15.0697C74.2227 15.0697 74.1048 15.0734 73.987 15.0845L35.2367 18.6609C33.069 18.8613 31.4656 20.8535 31.6548 23.1054L38.0079 97.419C38.1007 98.506 38.5971 99.4929 39.4077 100.198C40.1184 100.814 41.0148 101.155 41.9325 101.155C42.0504 101.155 42.1682 101.151 42.2825 101.14L81.0328 97.5637C81.3578 97.534 81.6792 97.4635 81.9828 97.3522C83.6898 96.7327 84.7718 94.9927 84.6111 93.1192L78.2652 18.8056C78.1724 17.7186 77.676 16.7318 76.8653 16.0269C76.1547 15.411 75.2583 15.0697 74.3405 15.0697Z" fill="white"/>
</g>
<path id="Vector_4" d="M34.8295 20.4862C33.8581 20.8387 33.201 21.8403 33.2975 22.9533L39.6505 97.2669C39.7041 97.8976 39.9933 98.4727 40.4683 98.8845C40.9397 99.2963 41.5361 99.4892 42.1431 99.4335L80.8935 95.8572C82.1541 95.7421 83.0897 94.5809 82.979 93.2676L76.626 18.9577C76.5724 18.327 76.2831 17.752 75.8082 17.3402C75.3368 16.9284 74.7404 16.7355 74.1333 16.7911L35.383 20.3638C35.1902 20.3823 35.0045 20.4231 34.8295 20.4862Z" fill="#CCE2E4"/>
<g id="Group_3">
<path id="Vector_5" d="M78.9653 98.8696C78.8546 98.8696 78.7403 98.8659 78.626 98.8548L39.8864 95.1782C38.9115 95.0855 38.0294 94.6032 37.4044 93.8204C36.7759 93.0376 36.4795 92.0471 36.5688 91.038L43.1004 16.7429C43.2718 14.7989 44.8753 13.2778 46.7537 13.2778C46.8644 13.2778 46.9786 13.2815 47.0894 13.2927L85.829 16.9692C86.8003 17.062 87.6824 17.5443 88.3145 18.327C88.943 19.1098 89.2394 20.1004 89.1501 21.1095L82.6185 95.4045C82.465 97.1445 81.1972 98.5506 79.5366 98.8251C79.3474 98.8548 79.1545 98.8696 78.9653 98.8696Z" fill="#9DB6B9"/>
<path id="Vector_6" d="M46.7499 13.5597C46.8535 13.5597 46.957 13.5634 47.0606 13.5746L85.8002 17.2511C86.7001 17.3364 87.5179 17.7816 88.1 18.5088C88.6821 19.2359 88.9571 20.1486 88.875 21.0835L82.3434 95.3785C82.2005 97.0183 80.9899 98.2982 79.49 98.5431C79.3186 98.5728 79.1436 98.5839 78.9651 98.5839C78.8615 98.5839 78.7579 98.5802 78.6508 98.5691L39.9112 94.8925C39.0113 94.8072 38.1935 94.362 37.615 93.6349C37.0329 92.9077 36.7579 91.9951 36.84 91.0602L43.3716 16.7651C43.5323 14.9398 45.0143 13.5597 46.7499 13.5597ZM46.7499 12.9884C44.7001 12.9884 43.0109 14.5911 42.8252 16.7132L36.2936 91.0082C36.1972 92.0952 36.5186 93.16 37.1936 94.0021C37.8685 94.8443 38.8149 95.3637 39.8612 95.4639L78.6008 99.1404C78.7222 99.1515 78.8437 99.1589 78.9615 99.1589C79.1651 99.1589 79.3722 99.1441 79.5722 99.1107C81.3577 98.8176 82.7219 97.3077 82.8862 95.4342L89.4213 21.1354C89.5178 20.0484 89.1964 18.9874 88.5214 18.1415C87.8465 17.2993 86.8965 16.78 85.8502 16.6798L47.1106 13.0032C46.9927 12.9958 46.8713 12.9884 46.7499 12.9884Z" fill="white"/>
</g>
<path id="Vector_7" d="M46.3964 14.7284C45.3822 14.8953 44.5609 15.7597 44.4645 16.869L37.9329 91.1641C37.8757 91.7947 38.065 92.4143 38.4578 92.9077C38.8506 93.4011 39.4042 93.7016 40.0113 93.761L78.7509 97.4376C80.0115 97.56 81.1328 96.588 81.2471 95.2784L87.7787 20.9833C87.8358 20.3526 87.6466 19.7331 87.2537 19.2396C86.8609 18.7462 86.3074 18.4457 85.7003 18.3864L46.9607 14.7098C46.7678 14.6913 46.5786 14.6987 46.3964 14.7284Z" fill="#CCE2E4"/>
<g id="Group_4">
<path id="Vector_8" d="M83.697 101.411C83.3971 101.411 83.0935 101.37 82.7971 101.296L45.0788 91.4053C44.1325 91.1567 43.3326 90.5372 42.829 89.6616C42.3255 88.7861 42.1791 87.7621 42.4183 86.7753L59.9954 14.4391C60.4061 12.7436 61.8703 11.5602 63.5523 11.5602C63.8523 11.5602 64.1558 11.601 64.4522 11.6752L102.17 21.5659C103.117 21.8144 103.917 22.434 104.42 23.3095C104.924 24.1851 105.07 25.209 104.831 26.1959L87.2539 98.5321C86.8432 100.228 85.379 101.411 83.697 101.411Z" fill="#9DB6B9"/>
<path id="Vector_9" d="M63.5557 11.8421C63.8306 11.8421 64.1092 11.8755 64.3877 11.9497L102.106 21.8403C102.981 22.0704 103.72 22.6417 104.188 23.4542C104.656 24.2666 104.788 25.2127 104.567 26.1253L86.9894 98.4615C86.6002 100.061 85.2146 101.125 83.6968 101.125C83.4218 101.125 83.1433 101.092 82.8648 101.018L45.1465 91.127C44.2716 90.897 43.5323 90.3256 43.0645 89.5132C42.5967 88.7007 42.4646 87.7547 42.686 86.842L60.2631 14.5058C60.6523 12.9105 62.0344 11.8421 63.5557 11.8421ZM63.5557 11.2708C61.7487 11.2708 60.1738 12.5433 59.731 14.3648L42.1539 86.701C41.8968 87.7584 42.0539 88.8602 42.5931 89.8025C43.1324 90.7449 43.993 91.4089 45.0108 91.6761L82.7291 101.567C83.0469 101.648 83.3719 101.693 83.6933 101.693C85.5038 101.693 87.0751 100.42 87.5179 98.5988L105.099 26.2663C105.356 25.209 105.199 24.1071 104.659 23.1648C104.117 22.2225 103.259 21.5584 102.242 21.2913L64.5199 11.3969C64.202 11.3153 63.8771 11.2708 63.5557 11.2708Z" fill="white"/>
</g>
<path id="Vector_10" d="M63.5558 12.9811C62.5273 12.9811 61.5881 13.7045 61.3274 14.7841L43.7503 87.1203C43.6003 87.7362 43.6932 88.378 44.0074 88.9271C44.3253 89.4761 44.8216 89.8657 45.4144 90.0215L83.1327 99.9122C84.3612 100.235 85.6147 99.4596 85.9253 98.1796L103.502 25.8434C103.652 25.2276 103.56 24.5857 103.245 24.0367C102.927 23.4876 102.431 23.0981 101.838 22.9422L64.1164 13.0553C63.9307 13.007 63.7415 12.9811 63.5558 12.9811Z" fill="#CCE2E4"/>
<path id="Vector_11" d="M72.4049 73.5976C78.8326 73.5976 84.0432 68.1844 84.0432 61.5069C84.0432 54.8294 78.8326 49.4163 72.4049 49.4163C65.9772 49.4163 60.7666 54.8294 60.7666 61.5069C60.7666 68.1844 65.9772 73.5976 72.4049 73.5976Z" stroke="#9DB6B9" stroke-width="4.6084" stroke-miterlimit="10"/>
<path id="Vector_12" d="M101.927 118.017H28.4692C24.7552 118.017 21.7197 114.859 21.7197 111.005V58.9396C21.7197 55.0813 24.7588 51.9279 28.4692 51.9279H101.927C105.641 51.9279 108.677 55.085 108.677 58.9396V111.005C108.677 114.859 105.638 118.017 101.927 118.017Z" fill="#E3EEEF"/>
<g id="Group_5">
<g id="Group_6">
<path id="Vector_13" d="M21.7197 60.0712H23.091" stroke="white" stroke-width="1.5361" stroke-miterlimit="10"/>
<path id="Vector_14" d="M25.8086 60.0712H105.948" stroke="white" stroke-width="1.5361" stroke-miterlimit="10" stroke-dasharray="7.61 7.61"/>
<path id="Vector_15" d="M107.306 60.0712H108.677" stroke="white" stroke-width="1.5361" stroke-miterlimit="10"/>
</g>
</g>
<g id="Group_7">
<g id="Group_8">
<path id="Vector_16" d="M21.7197 110.233H23.091" stroke="white" stroke-width="1.5361" stroke-miterlimit="10"/>
<path id="Vector_17" d="M25.8086 110.233H105.948" stroke="white" stroke-width="1.5361" stroke-miterlimit="10" stroke-dasharray="7.61 7.61"/>
<path id="Vector_18" d="M107.306 110.233H108.677" stroke="white" stroke-width="1.5361" stroke-miterlimit="10"/>
</g>
</g>
<path id="Vector_19" d="M29.1656 94.0801H19.3735C17.0452 94.0801 15.1382 92.099 15.1382 89.6802V80.2644C15.1382 77.8455 17.0452 75.8644 19.3735 75.8644H29.1656C33.9866 75.8644 37.9327 79.9638 37.9327 84.9723C37.9327 89.9807 33.9866 94.0801 29.1656 94.0801Z" fill="#FEFEFE" stroke="#E7E7E7" stroke-width="3.0722" stroke-miterlimit="10"/>
<path id="Vector_20" d="M29.4904 89.695C32.0011 89.695 34.0364 87.5805 34.0364 84.9723C34.0364 82.364 32.0011 80.2495 29.4904 80.2495C26.9797 80.2495 24.9443 82.364 24.9443 84.9723C24.9443 87.5805 26.9797 89.695 29.4904 89.695Z" fill="#BFCACF"/>
<path id="Vector_21" d="M92.1246 103.537C98.5523 103.537 103.763 98.1235 103.763 91.446C103.763 84.7685 98.5523 79.3553 92.1246 79.3553C85.697 79.3553 80.4863 84.7685 80.4863 91.446C80.4863 98.1235 85.697 103.537 92.1246 103.537Z" fill="#69B1B1"/>
<path id="Vector_22" d="M86.1216 91.4461L89.3785 95.182L97.2671 87.5247" stroke="white" stroke-width="3.0722" stroke-miterlimit="10" stroke-linecap="round"/>
</g>
</g>
</svg>
