<svg width="138" height="162" viewBox="0 0 138 162" fill="none" xmlns="http://www.w3.org/2000/svg">
<g id="illustration / deriv / light / ic-cropped-document" clip-path="url(#clip0_1184_369)">
<g id="Group" filter="url(#filter0_dd_1184_369)">
<path id="Vector" d="M131 2H7C4.79086 2 3 3.79086 3 6V154C3 156.209 4.79086 158 7 158H131C133.209 158 135 156.209 135 154V6C135 3.79086 133.209 2 131 2Z" fill="white"/>
<path id="Vector_2" fill-rule="evenodd" clip-rule="evenodd" d="M19.348 19.5051C20.1818 18.7721 20.708 17.6975 20.708 16.5C20.708 15.3025 20.1818 14.2279 19.348 13.4949C20.0524 12.8756 20.9764 12.5 21.988 12.5C24.1971 12.5 25.988 14.2909 25.988 16.5C25.988 18.7091 24.1971 20.5 21.988 20.5C20.9764 20.5 20.0524 20.1244 19.348 19.5051ZM19.348 19.5051C18.6436 20.1244 17.7197 20.5 16.708 20.5C14.4989 20.5 12.708 18.7091 12.708 16.5C12.708 14.2909 14.4989 12.5 16.708 12.5C17.7197 12.5 18.6436 12.8756 19.348 13.4949C18.5142 14.2279 17.988 15.3025 17.988 16.5C17.988 17.6975 18.5142 18.7721 19.348 19.5051Z" fill="#FFAD3A"/>
<path id="Vector_3" d="M10.708 11H127.292V9H10.708V11ZM127.292 21.5938H10.708V23.5938H127.292V21.5938Z" fill="#85ACB0"/>
<path id="Vector_4" d="M14.43 28.5098V30.9898C14.43 31.1498 14.4033 31.2965 14.35 31.4298C14.3 31.5598 14.225 31.6715 14.125 31.7648C14.025 31.8548 13.9033 31.9265 13.76 31.9798C13.62 32.0298 13.46 32.0548 13.28 32.0548C13.1067 32.0548 12.9533 32.0315 12.82 31.9848C12.69 31.9381 12.5767 31.8715 12.48 31.7848C12.3867 31.6981 12.31 31.5948 12.25 31.4748C12.19 31.3548 12.1483 31.2215 12.125 31.0748L12.835 30.9348C12.8917 31.2381 13.0367 31.3898 13.27 31.3898C13.38 31.3898 13.4733 31.3548 13.55 31.2848C13.63 31.2148 13.67 31.1048 13.67 30.9548V29.1198H12.61V28.5098H14.43ZM16.203 32.0598C16.0096 32.0598 15.8363 32.0281 15.683 31.9648C15.533 31.9015 15.4046 31.8098 15.298 31.6898C15.1946 31.5698 15.1146 31.4248 15.058 31.2548C15.0013 31.0848 14.973 30.8948 14.973 30.6848C14.973 30.4748 15.0013 30.2848 15.058 30.1148C15.1146 29.9448 15.1946 29.8015 15.298 29.6848C15.4046 29.5648 15.533 29.4731 15.683 29.4098C15.8363 29.3465 16.0096 29.3148 16.203 29.3148C16.3963 29.3148 16.568 29.3465 16.718 29.4098C16.8713 29.4731 16.9996 29.5648 17.103 29.6848C17.2096 29.8015 17.2913 29.9448 17.348 30.1148C17.4046 30.2848 17.433 30.4748 17.433 30.6848C17.433 30.8948 17.4046 31.0848 17.348 31.2548C17.2913 31.4248 17.2096 31.5698 17.103 31.6898C16.9996 31.8098 16.8713 31.9015 16.718 31.9648C16.568 32.0281 16.3963 32.0598 16.203 32.0598ZM16.203 31.4748C16.3496 31.4748 16.463 31.4298 16.543 31.3398C16.623 31.2498 16.663 31.1215 16.663 30.9548V30.4198C16.663 30.2531 16.623 30.1248 16.543 30.0348C16.463 29.9448 16.3496 29.8998 16.203 29.8998C16.0563 29.8998 15.943 29.9448 15.863 30.0348C15.783 30.1248 15.743 30.2531 15.743 30.4198V30.9548C15.743 31.1215 15.783 31.2498 15.863 31.3398C15.943 31.4298 16.0563 31.4748 16.203 31.4748ZM17.9602 28.2998H18.7002V29.8198H18.7302C18.7769 29.6831 18.8586 29.5648 18.9752 29.4648C19.0919 29.3648 19.2536 29.3148 19.4602 29.3148C19.7302 29.3148 19.9336 29.4048 20.0702 29.5848C20.2102 29.7648 20.2802 30.0215 20.2802 30.3548V31.9998H19.5402V30.4148C19.5402 30.2448 19.5136 30.1198 19.4602 30.0398C19.4069 29.9565 19.3119 29.9148 19.1752 29.9148C19.1152 29.9148 19.0569 29.9231 19.0002 29.9398C18.9436 29.9531 18.8919 29.9765 18.8452 30.0098C18.8019 30.0431 18.7669 30.0848 18.7402 30.1348C18.7136 30.1815 18.7002 30.2365 18.7002 30.2998V31.9998H17.9602V28.2998ZM20.9388 31.9998V29.3748H21.6788V29.8198H21.7088C21.7554 29.6831 21.8371 29.5648 21.9538 29.4648C22.0704 29.3648 22.2321 29.3148 22.4388 29.3148C22.7088 29.3148 22.9121 29.4048 23.0488 29.5848C23.1888 29.7648 23.2588 30.0215 23.2588 30.3548V31.9998H22.5188V30.4148C22.5188 30.2448 22.4921 30.1198 22.4388 30.0398C22.3854 29.9565 22.2904 29.9148 22.1538 29.9148C22.0938 29.9148 22.0354 29.9231 21.9788 29.9398C21.9221 29.9531 21.8704 29.9765 21.8238 30.0098C21.7804 30.0431 21.7454 30.0848 21.7188 30.1348C21.6921 30.1815 21.6788 30.2365 21.6788 30.2998V31.9998H20.9388ZM27.3539 31.4448H27.3289C27.3022 31.6215 27.2122 31.7681 27.0589 31.8848C26.9056 32.0015 26.6972 32.0598 26.4339 32.0598C26.2339 32.0598 26.0472 32.0215 25.8739 31.9448C25.7006 31.8681 25.5489 31.7548 25.4189 31.6048C25.2889 31.4548 25.1872 31.2681 25.1139 31.0448C25.0406 30.8215 25.0039 30.5631 25.0039 30.2698C25.0039 29.9765 25.0422 29.7165 25.1189 29.4898C25.1956 29.2631 25.3022 29.0731 25.4389 28.9198C25.5789 28.7665 25.7456 28.6498 25.9389 28.5698C26.1322 28.4898 26.3472 28.4498 26.5839 28.4498C26.8972 28.4498 27.1672 28.5181 27.3939 28.6548C27.6206 28.7881 27.7989 28.9898 27.9289 29.2598L27.3089 29.6148C27.2556 29.4781 27.1722 29.3631 27.0589 29.2698C26.9456 29.1731 26.7872 29.1248 26.5839 29.1248C26.3472 29.1248 26.1589 29.1931 26.0189 29.3298C25.8789 29.4665 25.8089 29.6815 25.8089 29.9748V30.5348C25.8089 30.8248 25.8789 31.0398 26.0189 31.1798C26.1589 31.3165 26.3472 31.3848 26.5839 31.3848C26.6772 31.3848 26.7656 31.3748 26.8489 31.3548C26.9322 31.3315 27.0056 31.2981 27.0689 31.2548C27.1322 31.2081 27.1806 31.1531 27.2139 31.0898C27.2506 31.0265 27.2689 30.9515 27.2689 30.8648V30.6898H26.6189V30.0548H27.9939V31.9998H27.3539V31.4448ZM29.7577 32.0598C29.5643 32.0598 29.391 32.0281 29.2377 31.9648C29.0877 31.9015 28.9593 31.8098 28.8527 31.6898C28.7493 31.5698 28.6693 31.4248 28.6127 31.2548C28.556 31.0848 28.5277 30.8948 28.5277 30.6848C28.5277 30.4748 28.556 30.2848 28.6127 30.1148C28.6693 29.9448 28.7493 29.8015 28.8527 29.6848C28.9593 29.5648 29.0877 29.4731 29.2377 29.4098C29.391 29.3465 29.5643 29.3148 29.7577 29.3148C29.951 29.3148 30.1227 29.3465 30.2727 29.4098C30.426 29.4731 30.5543 29.5648 30.6577 29.6848C30.7643 29.8015 30.846 29.9448 30.9027 30.1148C30.9593 30.2848 30.9877 30.4748 30.9877 30.6848C30.9877 30.8948 30.9593 31.0848 30.9027 31.2548C30.846 31.4248 30.7643 31.5698 30.6577 31.6898C30.5543 31.8098 30.426 31.9015 30.2727 31.9648C30.1227 32.0281 29.951 32.0598 29.7577 32.0598ZM29.7577 31.4748C29.9043 31.4748 30.0177 31.4298 30.0977 31.3398C30.1777 31.2498 30.2177 31.1215 30.2177 30.9548V30.4198C30.2177 30.2531 30.1777 30.1248 30.0977 30.0348C30.0177 29.9448 29.9043 29.8998 29.7577 29.8998C29.611 29.8998 29.4977 29.9448 29.4177 30.0348C29.3377 30.1248 29.2977 30.2531 29.2977 30.4198V30.9548C29.2977 31.1215 29.3377 31.2498 29.4177 31.3398C29.4977 31.4298 29.611 31.4748 29.7577 31.4748ZM31.5149 31.9998V29.3748H32.2549V29.8198H32.2849C32.3316 29.6831 32.4133 29.5648 32.5299 29.4648C32.6466 29.3648 32.8083 29.3148 33.0149 29.3148C33.2849 29.3148 33.4883 29.4048 33.6249 29.5848C33.7649 29.7648 33.8349 30.0215 33.8349 30.3548V31.9998H33.0949V30.4148C33.0949 30.2448 33.0683 30.1198 33.0149 30.0398C32.9616 29.9565 32.8666 29.9148 32.7299 29.9148C32.6699 29.9148 32.6116 29.9231 32.5549 29.9398C32.4983 29.9531 32.4466 29.9765 32.3999 30.0098C32.3566 30.0431 32.3216 30.0848 32.2949 30.1348C32.2683 30.1815 32.2549 30.2365 32.2549 30.2998V31.9998H31.5149ZM34.3434 31.9998V31.4148L35.6484 29.9498H34.3884V29.3748H36.5084V29.9548L35.1984 31.4248H36.5434V31.9998H34.3434ZM39.0213 31.9998C38.888 31.9998 38.7763 31.9581 38.6863 31.8748C38.5997 31.7915 38.5447 31.6798 38.5213 31.5398H38.4913C38.4513 31.7098 38.363 31.8398 38.2263 31.9298C38.0897 32.0165 37.9213 32.0598 37.7213 32.0598C37.458 32.0598 37.2563 31.9898 37.1163 31.8498C36.9763 31.7098 36.9063 31.5248 36.9063 31.2948C36.9063 31.0181 37.0063 30.8131 37.2063 30.6798C37.4097 30.5431 37.6847 30.4748 38.0313 30.4748H38.4463V30.3098C38.4463 30.1831 38.413 30.0831 38.3463 30.0098C38.2797 29.9331 38.168 29.8948 38.0113 29.8948C37.8647 29.8948 37.748 29.9265 37.6613 29.9898C37.5747 30.0531 37.503 30.1248 37.4463 30.2048L37.0063 29.8148C37.113 29.6581 37.2463 29.5365 37.4063 29.4498C37.5697 29.3598 37.7897 29.3148 38.0663 29.3148C38.4397 29.3148 38.7197 29.3965 38.9063 29.5598C39.093 29.7231 39.1863 29.9615 39.1863 30.2748V31.4248H39.4313V31.9998H39.0213ZM37.9963 31.5448C38.1197 31.5448 38.2247 31.5181 38.3113 31.4648C38.4013 31.4115 38.4463 31.3248 38.4463 31.2048V30.8948H38.0863C37.7963 30.8948 37.6513 30.9931 37.6513 31.1898V31.2648C37.6513 31.3615 37.6813 31.4331 37.7413 31.4798C37.8013 31.5231 37.8863 31.5448 37.9963 31.5448ZM40.663 31.9998C40.4097 31.9998 40.223 31.9381 40.103 31.8148C39.9863 31.6915 39.928 31.5131 39.928 31.2798V28.2998H40.668V31.4248H40.998V31.9998H40.663ZM42.5367 32.0598C42.3367 32.0598 42.1583 32.0281 42.0017 31.9648C41.845 31.8981 41.7117 31.8065 41.6017 31.6898C41.495 31.5698 41.4133 31.4248 41.3567 31.2548C41.3033 31.0848 41.2767 30.8948 41.2767 30.6848C41.2767 30.4781 41.3033 30.2915 41.3567 30.1248C41.41 29.9548 41.4883 29.8098 41.5917 29.6898C41.6983 29.5698 41.8283 29.4781 41.9817 29.4148C42.135 29.3481 42.31 29.3148 42.5067 29.3148C42.7233 29.3148 42.9083 29.3515 43.0617 29.4248C43.2183 29.4981 43.345 29.5965 43.4417 29.7198C43.5417 29.8431 43.6133 29.9865 43.6567 30.1498C43.7033 30.3098 43.7267 30.4781 43.7267 30.6548V30.8748H42.0417V30.9148C42.0417 31.0881 42.0883 31.2265 42.1817 31.3298C42.275 31.4298 42.4217 31.4798 42.6217 31.4798C42.775 31.4798 42.9 31.4498 42.9967 31.3898C43.0933 31.3265 43.1833 31.2515 43.2667 31.1648L43.6367 31.6248C43.52 31.7615 43.3667 31.8681 43.1767 31.9448C42.99 32.0215 42.7767 32.0598 42.5367 32.0598ZM42.5217 29.8598C42.3717 29.8598 42.2533 29.9098 42.1667 30.0098C42.0833 30.1065 42.0417 30.2365 42.0417 30.3998V30.4398H42.9617V30.3948C42.9617 30.2348 42.925 30.1065 42.8517 30.0098C42.7817 29.9098 42.6717 29.8598 42.5217 29.8598ZM44.0749 31.9998V31.4148L45.3799 29.9498H44.1199V29.3748H46.2399V29.9548L44.9299 31.4248H46.2749V31.9998H44.0749Z" fill="#3F6FE5"/>
<path id="Vector_5" d="M12.4399 40.0002V39.6302H13.4149V36.8202H13.3799L12.4999 37.6402L12.2549 37.3752L13.1799 36.5102H13.8349V39.6302H14.7349V40.0002H12.4399ZM17.4879 36.8802H15.9579L15.8579 38.2102H15.8929C15.9763 38.0935 16.0696 38.0002 16.1729 37.9302C16.2796 37.8602 16.4246 37.8252 16.6079 37.8252C16.7579 37.8252 16.8963 37.8502 17.0229 37.9002C17.1496 37.9502 17.2596 38.0219 17.3529 38.1152C17.4463 38.2052 17.5179 38.3169 17.5679 38.4502C17.6213 38.5835 17.6479 38.7352 17.6479 38.9052C17.6479 39.0752 17.6213 39.2319 17.5679 39.3752C17.5146 39.5152 17.4363 39.6369 17.3329 39.7402C17.2329 39.8402 17.1096 39.9185 16.9629 39.9752C16.8196 40.0319 16.6563 40.0602 16.4729 40.0602C16.3263 40.0602 16.1963 40.0435 16.0829 40.0102C15.9729 39.9769 15.8746 39.9319 15.7879 39.8752C15.7013 39.8185 15.6246 39.7552 15.5579 39.6852C15.4946 39.6152 15.4363 39.5419 15.3829 39.4652L15.6979 39.2252C15.7413 39.2952 15.7863 39.3585 15.8329 39.4152C15.8829 39.4719 15.9363 39.5202 15.9929 39.5602C16.0529 39.6002 16.1213 39.6319 16.1979 39.6552C16.2746 39.6752 16.3663 39.6852 16.4729 39.6852C16.7129 39.6852 16.8946 39.6219 17.0179 39.4952C17.1413 39.3685 17.2029 39.1902 17.2029 38.9602V38.9102C17.2029 38.6802 17.1413 38.5019 17.0179 38.3752C16.8946 38.2485 16.7129 38.1852 16.4729 38.1852C16.3129 38.1852 16.1863 38.2152 16.0929 38.2752C16.0029 38.3319 15.9213 38.4002 15.8479 38.4802L15.4929 38.4302L15.6179 36.5102H17.4879V36.8802ZM21.8276 38.4202H20.0626V40.0002H19.6426V36.5102H20.0626V38.0502H21.8276V36.5102H22.2476V40.0002H21.8276V38.4202ZM25.0128 40.0002C24.8628 40.0002 24.7545 39.9602 24.6878 39.8802C24.6245 39.8002 24.5845 39.7002 24.5678 39.5802H24.5428C24.4861 39.7402 24.3928 39.8602 24.2628 39.9402C24.1328 40.0202 23.9778 40.0602 23.7978 40.0602C23.5245 40.0602 23.3111 39.9902 23.1578 39.8502C23.0078 39.7102 22.9328 39.5202 22.9328 39.2802C22.9328 39.0369 23.0211 38.8502 23.1978 38.7202C23.3778 38.5902 23.6561 38.5252 24.0328 38.5252H24.5428V38.2702C24.5428 38.0869 24.4928 37.9469 24.3928 37.8502C24.2928 37.7535 24.1395 37.7052 23.9328 37.7052C23.7761 37.7052 23.6445 37.7402 23.5378 37.8102C23.4345 37.8802 23.3478 37.9735 23.2778 38.0902L23.0378 37.8652C23.1078 37.7252 23.2195 37.6069 23.3728 37.5102C23.5261 37.4102 23.7195 37.3602 23.9528 37.3602C24.2661 37.3602 24.5095 37.4369 24.6828 37.5902C24.8561 37.7435 24.9428 37.9569 24.9428 38.2302V39.6502H25.2378V40.0002H25.0128ZM23.8628 39.7202C23.9628 39.7202 24.0545 39.7085 24.1378 39.6852C24.2211 39.6619 24.2928 39.6285 24.3528 39.5852C24.4128 39.5419 24.4595 39.4919 24.4928 39.4352C24.5261 39.3785 24.5428 39.3169 24.5428 39.2502V38.8252H24.0128C23.7828 38.8252 23.6145 38.8585 23.5078 38.9252C23.4045 38.9919 23.3528 39.0885 23.3528 39.2152V39.3202C23.3528 39.4469 23.3978 39.5452 23.4878 39.6152C23.5811 39.6852 23.7061 39.7202 23.8628 39.7202ZM25.8087 40.0002V37.4202H26.2087V37.8952H26.2337C26.2804 37.7719 26.3637 37.6619 26.4837 37.5652C26.6037 37.4685 26.7687 37.4202 26.9787 37.4202H27.1337V37.8202H26.8987C26.682 37.8202 26.512 37.8619 26.3887 37.9452C26.2687 38.0252 26.2087 38.1269 26.2087 38.2502V40.0002H25.8087ZM27.6446 40.0002V37.4202H28.0446V37.8402H28.0646C28.0946 37.7735 28.128 37.7119 28.1646 37.6552C28.2046 37.5952 28.2513 37.5435 28.3046 37.5002C28.3613 37.4569 28.4263 37.4235 28.4996 37.4002C28.573 37.3735 28.6596 37.3602 28.7596 37.3602C28.9296 37.3602 29.0863 37.4019 29.2296 37.4852C29.373 37.5652 29.4796 37.6985 29.5496 37.8852H29.5596C29.6063 37.7452 29.693 37.6235 29.8196 37.5202C29.9496 37.4135 30.1246 37.3602 30.3446 37.3602C30.608 37.3602 30.813 37.4469 30.9596 37.6202C31.1096 37.7902 31.1846 38.0319 31.1846 38.3452V40.0002H30.7846V38.4152C30.7846 38.1852 30.7396 38.0119 30.6496 37.8952C30.5596 37.7785 30.4163 37.7202 30.2196 37.7202C30.1396 37.7202 30.063 37.7302 29.9896 37.7502C29.9196 37.7702 29.8563 37.8002 29.7996 37.8402C29.743 37.8802 29.698 37.9319 29.6646 37.9952C29.6313 38.0552 29.6146 38.1269 29.6146 38.2102V40.0002H29.2146V38.4152C29.2146 38.1852 29.1696 38.0119 29.0796 37.8952C28.9896 37.7785 28.8496 37.7202 28.6596 37.7202C28.5796 37.7202 28.503 37.7302 28.4296 37.7502C28.3563 37.7702 28.2913 37.8002 28.2346 37.8402C28.178 37.8802 28.1313 37.9319 28.0946 37.9952C28.0613 38.0552 28.0446 38.1269 28.0446 38.2102V40.0002H27.6446ZM32.9849 40.0602C32.8115 40.0602 32.6532 40.0285 32.5099 39.9652C32.3665 39.9019 32.2432 39.8119 32.1399 39.6952C32.0399 39.5752 31.9615 39.4335 31.9049 39.2702C31.8482 39.1035 31.8199 38.9169 31.8199 38.7102C31.8199 38.5069 31.8482 38.3219 31.9049 38.1552C31.9615 37.9885 32.0399 37.8469 32.1399 37.7302C32.2432 37.6102 32.3665 37.5185 32.5099 37.4552C32.6532 37.3919 32.8115 37.3602 32.9849 37.3602C33.1582 37.3602 33.3149 37.3919 33.4549 37.4552C33.5982 37.5185 33.7215 37.6102 33.8249 37.7302C33.9282 37.8469 34.0082 37.9885 34.0649 38.1552C34.1215 38.3219 34.1499 38.5069 34.1499 38.7102C34.1499 38.9169 34.1215 39.1035 34.0649 39.2702C34.0082 39.4335 33.9282 39.5752 33.8249 39.6952C33.7215 39.8119 33.5982 39.9019 33.4549 39.9652C33.3149 40.0285 33.1582 40.0602 32.9849 40.0602ZM32.9849 39.7052C33.2015 39.7052 33.3782 39.6385 33.5149 39.5052C33.6515 39.3719 33.7199 39.1685 33.7199 38.8952V38.5252C33.7199 38.2519 33.6515 38.0485 33.5149 37.9152C33.3782 37.7819 33.2015 37.7152 32.9849 37.7152C32.7682 37.7152 32.5915 37.7819 32.4549 37.9152C32.3182 38.0485 32.2499 38.2519 32.2499 38.5252V38.8952C32.2499 39.1685 32.3182 39.3719 32.4549 39.5052C32.5915 39.6385 32.7682 39.7052 32.9849 39.7052ZM34.8077 40.0002V37.4202H35.2077V37.8402H35.2277C35.291 37.6935 35.3794 37.5769 35.4927 37.4902C35.6094 37.4035 35.7644 37.3602 35.9577 37.3602C36.2244 37.3602 36.4344 37.4469 36.5877 37.6202C36.7444 37.7902 36.8227 38.0319 36.8227 38.3452V40.0002H36.4227V38.4152C36.4227 37.9519 36.2277 37.7202 35.8377 37.7202C35.7577 37.7202 35.6794 37.7302 35.6027 37.7502C35.5294 37.7702 35.4627 37.8002 35.4027 37.8402C35.3427 37.8802 35.2944 37.9319 35.2577 37.9952C35.2244 38.0552 35.2077 38.1269 35.2077 38.2102V40.0002H34.8077ZM39.2004 37.4202H39.5954L38.4404 40.6002C38.4104 40.6769 38.3804 40.7402 38.3504 40.7902C38.3204 40.8435 38.2838 40.8852 38.2404 40.9152C38.1971 40.9452 38.1421 40.9669 38.0754 40.9802C38.0121 40.9935 37.9338 41.0002 37.8404 41.0002H37.6354V40.6502H38.0404L38.2354 40.1002L37.2704 37.4202H37.6704L38.2904 39.1752L38.4104 39.5952H38.4354L38.5754 39.1752L39.2004 37.4202ZM42.3072 40.0602C42.0239 40.0602 41.7822 40.0069 41.5822 39.9002C41.3822 39.7902 41.2122 39.6402 41.0722 39.4502L41.3822 39.1902C41.5055 39.3535 41.6422 39.4785 41.7922 39.5652C41.9422 39.6485 42.1189 39.6902 42.3222 39.6902C42.5722 39.6902 42.7622 39.6302 42.8922 39.5102C43.0255 39.3902 43.0922 39.2302 43.0922 39.0302C43.0922 38.8635 43.0422 38.7352 42.9422 38.6452C42.8422 38.5552 42.6772 38.4835 42.4472 38.4302L42.1622 38.3652C41.8422 38.2919 41.5972 38.1819 41.4272 38.0352C41.2605 37.8852 41.1772 37.6752 41.1772 37.4052C41.1772 37.2519 41.2055 37.1152 41.2622 36.9952C41.3189 36.8752 41.3972 36.7752 41.4972 36.6952C41.6005 36.6152 41.7222 36.5552 41.8622 36.5152C42.0055 36.4719 42.1622 36.4502 42.3322 36.4502C42.5955 36.4502 42.8205 36.4985 43.0072 36.5952C43.1972 36.6919 43.3572 36.8335 43.4872 37.0202L43.1722 37.2502C43.0755 37.1169 42.9589 37.0119 42.8222 36.9352C42.6855 36.8585 42.5155 36.8202 42.3122 36.8202C42.0889 36.8202 41.9122 36.8685 41.7822 36.9652C41.6555 37.0585 41.5922 37.2002 41.5922 37.3902C41.5922 37.5569 41.6455 37.6835 41.7522 37.7702C41.8622 37.8535 42.0272 37.9202 42.2472 37.9702L42.5322 38.0352C42.8755 38.1119 43.1239 38.2285 43.2772 38.3852C43.4305 38.5419 43.5072 38.7502 43.5072 39.0102C43.5072 39.1702 43.4789 39.3152 43.4222 39.4452C43.3689 39.5752 43.2905 39.6852 43.1872 39.7752C43.0839 39.8652 42.9572 39.9352 42.8072 39.9852C42.6605 40.0352 42.4939 40.0602 42.3072 40.0602ZM44.7625 40.0002C44.6225 40.0002 44.5158 39.9619 44.4425 39.8852C44.3725 39.8052 44.3375 39.7019 44.3375 39.5752V37.7702H43.9125V37.4202H44.1525C44.2391 37.4202 44.2975 37.4035 44.3275 37.3702C44.3608 37.3335 44.3775 37.2719 44.3775 37.1852V36.7052H44.7375V37.4202H45.3025V37.7702H44.7375V39.6502H45.2625V40.0002H44.7625ZM46.2004 40.0602C46.0937 40.0602 46.0154 40.0335 45.9654 39.9802C45.9187 39.9269 45.8954 39.8569 45.8954 39.7702V39.7052C45.8954 39.6185 45.9187 39.5485 45.9654 39.4952C46.0154 39.4419 46.0937 39.4152 46.2004 39.4152C46.3071 39.4152 46.3837 39.4419 46.4304 39.4952C46.4804 39.5485 46.5054 39.6185 46.5054 39.7052V39.7702C46.5054 39.8569 46.4804 39.9269 46.4304 39.9802C46.3837 40.0335 46.3071 40.0602 46.2004 40.0602Z" fill="#3F6FE5"/>
<path id="Vector_6" d="M13.695 48.0598C13.2517 48.0598 12.9067 47.9098 12.66 47.6098C12.4133 47.3065 12.29 46.8615 12.29 46.2748C12.29 45.6881 12.4133 45.2381 12.66 44.9248C12.9067 44.6081 13.2517 44.4498 13.695 44.4498C13.9883 44.4498 14.2333 44.5165 14.43 44.6498C14.63 44.7831 14.785 44.9715 14.895 45.2148L14.555 45.4198C14.485 45.2398 14.3783 45.0965 14.235 44.9898C14.0917 44.8798 13.9117 44.8248 13.695 44.8248C13.545 44.8248 13.41 44.8531 13.29 44.9098C13.1733 44.9665 13.0733 45.0481 12.99 45.1548C12.91 45.2581 12.8483 45.3831 12.805 45.5298C12.7617 45.6731 12.74 45.8348 12.74 46.0148V46.5348C12.74 46.8948 12.8233 47.1765 12.99 47.3798C13.1567 47.5831 13.3917 47.6848 13.695 47.6848C13.9183 47.6848 14.105 47.6281 14.255 47.5148C14.405 47.3981 14.515 47.2448 14.585 47.0548L14.92 47.2648C14.81 47.5115 14.6517 47.7065 14.445 47.8498C14.2383 47.9898 13.9883 48.0598 13.695 48.0598ZM16.5055 48.0598C16.3321 48.0598 16.1738 48.0281 16.0305 47.9648C15.8871 47.9015 15.7638 47.8115 15.6605 47.6948C15.5605 47.5748 15.4821 47.4331 15.4255 47.2698C15.3688 47.1031 15.3405 46.9165 15.3405 46.7098C15.3405 46.5065 15.3688 46.3215 15.4255 46.1548C15.4821 45.9881 15.5605 45.8465 15.6605 45.7298C15.7638 45.6098 15.8871 45.5181 16.0305 45.4548C16.1738 45.3915 16.3321 45.3598 16.5055 45.3598C16.6788 45.3598 16.8355 45.3915 16.9755 45.4548C17.1188 45.5181 17.2421 45.6098 17.3455 45.7298C17.4488 45.8465 17.5288 45.9881 17.5855 46.1548C17.6421 46.3215 17.6705 46.5065 17.6705 46.7098C17.6705 46.9165 17.6421 47.1031 17.5855 47.2698C17.5288 47.4331 17.4488 47.5748 17.3455 47.6948C17.2421 47.8115 17.1188 47.9015 16.9755 47.9648C16.8355 48.0281 16.6788 48.0598 16.5055 48.0598ZM16.5055 47.7048C16.7221 47.7048 16.8988 47.6381 17.0355 47.5048C17.1721 47.3715 17.2405 47.1681 17.2405 46.8948V46.5248C17.2405 46.2515 17.1721 46.0481 17.0355 45.9148C16.8988 45.7815 16.7221 45.7148 16.5055 45.7148C16.2888 45.7148 16.1121 45.7815 15.9755 45.9148C15.8388 46.0481 15.7705 46.2515 15.7705 46.5248V46.8948C15.7705 47.1681 15.8388 47.3715 15.9755 47.5048C16.1121 47.6381 16.2888 47.7048 16.5055 47.7048ZM19.1033 48.0598C18.8633 48.0598 18.6617 48.0148 18.4983 47.9248C18.3383 47.8315 18.2 47.7081 18.0833 47.5548L18.3683 47.3248C18.4683 47.4515 18.58 47.5498 18.7033 47.6198C18.8267 47.6865 18.97 47.7198 19.1333 47.7198C19.3033 47.7198 19.435 47.6831 19.5283 47.6098C19.625 47.5365 19.6733 47.4331 19.6733 47.2998C19.6733 47.1998 19.64 47.1148 19.5733 47.0448C19.51 46.9715 19.3933 46.9215 19.2233 46.8948L19.0183 46.8648C18.8983 46.8481 18.7883 46.8231 18.6883 46.7898C18.5883 46.7531 18.5 46.7065 18.4233 46.6498C18.35 46.5898 18.2917 46.5165 18.2483 46.4298C18.2083 46.3431 18.1883 46.2398 18.1883 46.1198C18.1883 45.9931 18.2117 45.8831 18.2583 45.7898C18.305 45.6931 18.3683 45.6131 18.4483 45.5498C18.5317 45.4865 18.63 45.4398 18.7433 45.4098C18.8567 45.3765 18.9783 45.3598 19.1083 45.3598C19.3183 45.3598 19.4933 45.3965 19.6333 45.4698C19.7767 45.5431 19.9017 45.6448 20.0083 45.7748L19.7433 46.0148C19.6867 45.9348 19.6033 45.8631 19.4933 45.7998C19.3833 45.7331 19.245 45.6998 19.0783 45.6998C18.9117 45.6998 18.785 45.7365 18.6983 45.8098C18.615 45.8798 18.5733 45.9765 18.5733 46.0998C18.5733 46.2265 18.615 46.3181 18.6983 46.3748C18.785 46.4315 18.9083 46.4731 19.0683 46.4998L19.2683 46.5298C19.555 46.5731 19.7583 46.6565 19.8783 46.7798C19.9983 46.8998 20.0583 47.0581 20.0583 47.2548C20.0583 47.5048 19.9733 47.7015 19.8033 47.8448C19.6333 47.9881 19.4 48.0598 19.1033 48.0598ZM20.7648 47.9998V45.4198H21.1648V45.8398H21.1848C21.2148 45.7731 21.2482 45.7115 21.2848 45.6548C21.3248 45.5948 21.3715 45.5431 21.4248 45.4998C21.4815 45.4565 21.5465 45.4231 21.6198 45.3998C21.6932 45.3731 21.7798 45.3598 21.8798 45.3598C22.0498 45.3598 22.2065 45.4015 22.3498 45.4848C22.4932 45.5648 22.5998 45.6981 22.6698 45.8848H22.6798C22.7265 45.7448 22.8132 45.6231 22.9398 45.5198C23.0698 45.4131 23.2448 45.3598 23.4648 45.3598C23.7282 45.3598 23.9332 45.4465 24.0798 45.6198C24.2298 45.7898 24.3048 46.0315 24.3048 46.3448V47.9998H23.9048V46.4148C23.9048 46.1848 23.8598 46.0115 23.7698 45.8948C23.6798 45.7781 23.5365 45.7198 23.3398 45.7198C23.2598 45.7198 23.1832 45.7298 23.1098 45.7498C23.0398 45.7698 22.9765 45.7998 22.9198 45.8398C22.8632 45.8798 22.8182 45.9315 22.7848 45.9948C22.7515 46.0548 22.7348 46.1265 22.7348 46.2098V47.9998H22.3348V46.4148C22.3348 46.1848 22.2898 46.0115 22.1998 45.8948C22.1098 45.7781 21.9698 45.7198 21.7798 45.7198C21.6998 45.7198 21.6232 45.7298 21.5498 45.7498C21.4765 45.7698 21.4115 45.7998 21.3548 45.8398C21.2982 45.8798 21.2515 45.9315 21.2148 45.9948C21.1815 46.0548 21.1648 46.1265 21.1648 46.2098V47.9998H20.7648ZM26.1051 48.0598C25.9317 48.0598 25.7734 48.0281 25.6301 47.9648C25.4867 47.9015 25.3634 47.8115 25.2601 47.6948C25.1601 47.5748 25.0817 47.4331 25.0251 47.2698C24.9684 47.1031 24.9401 46.9165 24.9401 46.7098C24.9401 46.5065 24.9684 46.3215 25.0251 46.1548C25.0817 45.9881 25.1601 45.8465 25.2601 45.7298C25.3634 45.6098 25.4867 45.5181 25.6301 45.4548C25.7734 45.3915 25.9317 45.3598 26.1051 45.3598C26.2784 45.3598 26.4351 45.3915 26.5751 45.4548C26.7184 45.5181 26.8417 45.6098 26.9451 45.7298C27.0484 45.8465 27.1284 45.9881 27.1851 46.1548C27.2417 46.3215 27.2701 46.5065 27.2701 46.7098C27.2701 46.9165 27.2417 47.1031 27.1851 47.2698C27.1284 47.4331 27.0484 47.5748 26.9451 47.6948C26.8417 47.8115 26.7184 47.9015 26.5751 47.9648C26.4351 48.0281 26.2784 48.0598 26.1051 48.0598ZM26.1051 47.7048C26.3217 47.7048 26.4984 47.6381 26.6351 47.5048C26.7717 47.3715 26.8401 47.1681 26.8401 46.8948V46.5248C26.8401 46.2515 26.7717 46.0481 26.6351 45.9148C26.4984 45.7815 26.3217 45.7148 26.1051 45.7148C25.8884 45.7148 25.7117 45.7815 25.5751 45.9148C25.4384 46.0481 25.3701 46.2515 25.3701 46.5248V46.8948C25.3701 47.1681 25.4384 47.3715 25.5751 47.5048C25.7117 47.6381 25.8884 47.7048 26.1051 47.7048ZM27.9279 45.4198H28.3279V45.8398H28.3479C28.4146 45.6765 28.5113 45.5565 28.6379 45.4798C28.7679 45.3998 28.9229 45.3598 29.1029 45.3598C29.2629 45.3598 29.4079 45.3915 29.5379 45.4548C29.6679 45.5181 29.7779 45.6081 29.8679 45.7248C29.9613 45.8415 30.0313 45.9831 30.0779 46.1498C30.1279 46.3165 30.1529 46.5031 30.1529 46.7098C30.1529 46.9165 30.1279 47.1031 30.0779 47.2698C30.0313 47.4365 29.9613 47.5781 29.8679 47.6948C29.7779 47.8115 29.6679 47.9015 29.5379 47.9648C29.4079 48.0281 29.2629 48.0598 29.1029 48.0598C28.7529 48.0598 28.5013 47.8998 28.3479 47.5798H28.3279V48.9998H27.9279V45.4198ZM28.9929 47.6998C29.2196 47.6998 29.3979 47.6298 29.5279 47.4898C29.6579 47.3465 29.7229 47.1598 29.7229 46.9298V46.4898C29.7229 46.2598 29.6579 46.0748 29.5279 45.9348C29.3979 45.7915 29.2196 45.7198 28.9929 45.7198C28.9029 45.7198 28.8163 45.7331 28.7329 45.7598C28.6529 45.7831 28.5829 45.8165 28.5229 45.8598C28.4629 45.9031 28.4146 45.9565 28.3779 46.0198C28.3446 46.0798 28.3279 46.1448 28.3279 46.2148V47.1748C28.3279 47.2581 28.3446 47.3331 28.3779 47.3998C28.4146 47.4631 28.4629 47.5181 28.5229 47.5648C28.5829 47.6081 28.6529 47.6415 28.7329 47.6648C28.8163 47.6881 28.9029 47.6998 28.9929 47.6998ZM31.8033 48.0598C31.63 48.0598 31.4717 48.0281 31.3283 47.9648C31.185 47.9015 31.0617 47.8115 30.9583 47.6948C30.8583 47.5748 30.78 47.4331 30.7233 47.2698C30.6667 47.1031 30.6383 46.9165 30.6383 46.7098C30.6383 46.5065 30.6667 46.3215 30.7233 46.1548C30.78 45.9881 30.8583 45.8465 30.9583 45.7298C31.0617 45.6098 31.185 45.5181 31.3283 45.4548C31.4717 45.3915 31.63 45.3598 31.8033 45.3598C31.9767 45.3598 32.1333 45.3915 32.2733 45.4548C32.4167 45.5181 32.54 45.6098 32.6433 45.7298C32.7467 45.8465 32.8267 45.9881 32.8833 46.1548C32.94 46.3215 32.9683 46.5065 32.9683 46.7098C32.9683 46.9165 32.94 47.1031 32.8833 47.2698C32.8267 47.4331 32.7467 47.5748 32.6433 47.6948C32.54 47.8115 32.4167 47.9015 32.2733 47.9648C32.1333 48.0281 31.9767 48.0598 31.8033 48.0598ZM31.8033 47.7048C32.02 47.7048 32.1967 47.6381 32.3333 47.5048C32.47 47.3715 32.5383 47.1681 32.5383 46.8948V46.5248C32.5383 46.2515 32.47 46.0481 32.3333 45.9148C32.1967 45.7815 32.02 45.7148 31.8033 45.7148C31.5867 45.7148 31.41 45.7815 31.2733 45.9148C31.1367 46.0481 31.0683 46.2515 31.0683 46.5248V46.8948C31.0683 47.1681 31.1367 47.3715 31.2733 47.5048C31.41 47.6381 31.5867 47.7048 31.8033 47.7048ZM34.0512 47.9998C33.9112 47.9998 33.8045 47.9615 33.7312 47.8848C33.6612 47.8048 33.6262 47.7048 33.6262 47.5848V44.2998H34.0262V47.6498H34.4062V47.9998H34.0512ZM35.1885 44.8148C35.1018 44.8148 35.0385 44.7948 34.9985 44.7548C34.9618 44.7115 34.9435 44.6565 34.9435 44.5898V44.5248C34.9435 44.4581 34.9618 44.4048 34.9985 44.3648C35.0385 44.3215 35.1018 44.2998 35.1885 44.2998C35.2751 44.2998 35.3368 44.3215 35.3735 44.3648C35.4135 44.4048 35.4335 44.4581 35.4335 44.5248V44.5898C35.4335 44.6565 35.4135 44.7115 35.3735 44.7548C35.3368 44.7948 35.2751 44.8148 35.1885 44.8148ZM34.9885 45.4198H35.3885V47.9998H34.9885V45.4198ZM37.0135 48.0598C36.7735 48.0598 36.5718 48.0148 36.4085 47.9248C36.2485 47.8315 36.1101 47.7081 35.9935 47.5548L36.2785 47.3248C36.3785 47.4515 36.4901 47.5498 36.6135 47.6198C36.7368 47.6865 36.8801 47.7198 37.0435 47.7198C37.2135 47.7198 37.3451 47.6831 37.4385 47.6098C37.5351 47.5365 37.5835 47.4331 37.5835 47.2998C37.5835 47.1998 37.5501 47.1148 37.4835 47.0448C37.4201 46.9715 37.3035 46.9215 37.1335 46.8948L36.9285 46.8648C36.8085 46.8481 36.6985 46.8231 36.5985 46.7898C36.4985 46.7531 36.4101 46.7065 36.3335 46.6498C36.2601 46.5898 36.2018 46.5165 36.1585 46.4298C36.1185 46.3431 36.0985 46.2398 36.0985 46.1198C36.0985 45.9931 36.1218 45.8831 36.1685 45.7898C36.2151 45.6931 36.2785 45.6131 36.3585 45.5498C36.4418 45.4865 36.5401 45.4398 36.6535 45.4098C36.7668 45.3765 36.8885 45.3598 37.0185 45.3598C37.2285 45.3598 37.4035 45.3965 37.5435 45.4698C37.6868 45.5431 37.8118 45.6448 37.9185 45.7748L37.6535 46.0148C37.5968 45.9348 37.5135 45.8631 37.4035 45.7998C37.2935 45.7331 37.1551 45.6998 36.9885 45.6998C36.8218 45.6998 36.6951 45.7365 36.6085 45.8098C36.5251 45.8798 36.4835 45.9765 36.4835 46.0998C36.4835 46.2265 36.5251 46.3181 36.6085 46.3748C36.6951 46.4315 36.8185 46.4731 36.9785 46.4998L37.1785 46.5298C37.4651 46.5731 37.6685 46.6565 37.7885 46.7798C37.9085 46.8998 37.9685 47.0581 37.9685 47.2548C37.9685 47.5048 37.8835 47.7015 37.7135 47.8448C37.5435 47.9881 37.3101 48.0598 37.0135 48.0598ZM38.9056 47.4148C39.0123 47.4148 39.0889 47.4431 39.1356 47.4998C39.1856 47.5531 39.2106 47.6231 39.2106 47.7098V47.7798C39.2106 47.9165 39.1706 48.0665 39.0906 48.2298C39.0106 48.3965 38.8989 48.5415 38.7556 48.6648H38.4206C38.5206 48.5581 38.6006 48.4565 38.6606 48.3598C38.7239 48.2665 38.7689 48.1615 38.7956 48.0448C38.7289 48.0281 38.6789 47.9965 38.6456 47.9498C38.6156 47.9031 38.6006 47.8465 38.6006 47.7798V47.7098C38.6006 47.6231 38.6239 47.5531 38.6706 47.4998C38.7206 47.4431 38.7989 47.4148 38.9056 47.4148ZM43.4945 47.4898H43.4795C43.4362 47.6531 43.3295 47.7898 43.1595 47.8998C42.9929 48.0065 42.7762 48.0598 42.5095 48.0598C42.2962 48.0598 42.0995 48.0215 41.9195 47.9448C41.7429 47.8648 41.5912 47.7498 41.4645 47.5998C41.3379 47.4465 41.2379 47.2581 41.1645 47.0348C41.0945 46.8081 41.0595 46.5481 41.0595 46.2548C41.0595 45.9648 41.0945 45.7081 41.1645 45.4848C41.2345 45.2581 41.3345 45.0698 41.4645 44.9198C41.5945 44.7665 41.7512 44.6498 41.9345 44.5698C42.1179 44.4898 42.3212 44.4498 42.5445 44.4498C42.8579 44.4498 43.1195 44.5198 43.3295 44.6598C43.5395 44.7998 43.7012 44.9848 43.8145 45.2148L43.4695 45.4248C43.3895 45.2381 43.2695 45.0915 43.1095 44.9848C42.9529 44.8781 42.7645 44.8248 42.5445 44.8248C42.3912 44.8248 42.2512 44.8531 42.1245 44.9098C41.9979 44.9631 41.8879 45.0398 41.7945 45.1398C41.7045 45.2398 41.6345 45.3598 41.5845 45.4998C41.5345 45.6398 41.5095 45.7965 41.5095 45.9698V46.5348C41.5095 46.7081 41.5345 46.8665 41.5845 47.0098C41.6345 47.1498 41.7045 47.2698 41.7945 47.3698C41.8879 47.4698 42.0012 47.5481 42.1345 47.6048C42.2679 47.6581 42.4179 47.6848 42.5845 47.6848C42.7045 47.6848 42.8179 47.6698 42.9245 47.6398C43.0345 47.6065 43.1295 47.5581 43.2095 47.4948C43.2929 47.4315 43.3579 47.3531 43.4045 47.2598C43.4512 47.1631 43.4745 47.0498 43.4745 46.9198V46.5748H42.7045V46.2048H43.8845V47.9998H43.4945V47.4898ZM45.0961 47.9998C44.9561 47.9998 44.8494 47.9615 44.7761 47.8848C44.7061 47.8048 44.6711 47.7048 44.6711 47.5848V44.2998H45.0711V47.6498H45.4511V47.9998H45.0961ZM47.0084 48.0598C46.8351 48.0598 46.6767 48.0281 46.5334 47.9648C46.3901 47.9015 46.2667 47.8115 46.1634 47.6948C46.0634 47.5748 45.9851 47.4331 45.9284 47.2698C45.8717 47.1031 45.8434 46.9165 45.8434 46.7098C45.8434 46.5065 45.8717 46.3215 45.9284 46.1548C45.9851 45.9881 46.0634 45.8465 46.1634 45.7298C46.2667 45.6098 46.3901 45.5181 46.5334 45.4548C46.6767 45.3915 46.8351 45.3598 47.0084 45.3598C47.1817 45.3598 47.3384 45.3915 47.4784 45.4548C47.6217 45.5181 47.7451 45.6098 47.8484 45.7298C47.9517 45.8465 48.0317 45.9881 48.0884 46.1548C48.1451 46.3215 48.1734 46.5065 48.1734 46.7098C48.1734 46.9165 48.1451 47.1031 48.0884 47.2698C48.0317 47.4331 47.9517 47.5748 47.8484 47.6948C47.7451 47.8115 47.6217 47.9015 47.4784 47.9648C47.3384 48.0281 47.1817 48.0598 47.0084 48.0598ZM47.0084 47.7048C47.2251 47.7048 47.4017 47.6381 47.5384 47.5048C47.6751 47.3715 47.7434 47.1681 47.7434 46.8948V46.5248C47.7434 46.2515 47.6751 46.0481 47.5384 45.9148C47.4017 45.7815 47.2251 45.7148 47.0084 45.7148C46.7917 45.7148 46.6151 45.7815 46.4784 45.9148C46.3417 46.0481 46.2734 46.2515 46.2734 46.5248V46.8948C46.2734 47.1681 46.3417 47.3715 46.4784 47.5048C46.6151 47.6381 46.7917 47.7048 47.0084 47.7048ZM48.8313 44.2998H49.2313V45.8398H49.2513C49.3179 45.6765 49.4146 45.5565 49.5413 45.4798C49.6713 45.3998 49.8263 45.3598 50.0063 45.3598C50.1663 45.3598 50.3113 45.3915 50.4413 45.4548C50.5713 45.5181 50.6813 45.6081 50.7713 45.7248C50.8646 45.8415 50.9346 45.9831 50.9813 46.1498C51.0313 46.3165 51.0563 46.5031 51.0563 46.7098C51.0563 46.9165 51.0313 47.1031 50.9813 47.2698C50.9346 47.4365 50.8646 47.5781 50.7713 47.6948C50.6813 47.8115 50.5713 47.9015 50.4413 47.9648C50.3113 48.0281 50.1663 48.0598 50.0063 48.0598C49.6563 48.0598 49.4046 47.8998 49.2513 47.5798H49.2313V47.9998H48.8313V44.2998ZM49.8963 47.6998C50.1229 47.6998 50.3013 47.6298 50.4313 47.4898C50.5613 47.3465 50.6263 47.1598 50.6263 46.9298V46.4898C50.6263 46.2598 50.5613 46.0748 50.4313 45.9348C50.3013 45.7915 50.1229 45.7198 49.8963 45.7198C49.8063 45.7198 49.7196 45.7331 49.6363 45.7598C49.5563 45.7831 49.4863 45.8165 49.4263 45.8598C49.3663 45.9031 49.3179 45.9565 49.2813 46.0198C49.2479 46.0798 49.2313 46.1448 49.2313 46.2148V47.1748C49.2313 47.2581 49.2479 47.3331 49.2813 47.3998C49.3179 47.4631 49.3663 47.5181 49.4263 47.5648C49.4863 47.6081 49.5563 47.6415 49.6363 47.6648C49.7196 47.6881 49.8063 47.6998 49.8963 47.6998ZM53.6066 47.9998C53.4566 47.9998 53.3483 47.9598 53.2816 47.8798C53.2183 47.7998 53.1783 47.6998 53.1616 47.5798H53.1366C53.08 47.7398 52.9866 47.8598 52.8566 47.9398C52.7266 48.0198 52.5716 48.0598 52.3916 48.0598C52.1183 48.0598 51.905 47.9898 51.7516 47.8498C51.6016 47.7098 51.5266 47.5198 51.5266 47.2798C51.5266 47.0365 51.615 46.8498 51.7916 46.7198C51.9716 46.5898 52.25 46.5248 52.6266 46.5248H53.1366V46.2698C53.1366 46.0865 53.0866 45.9465 52.9866 45.8498C52.8866 45.7531 52.7333 45.7048 52.5266 45.7048C52.37 45.7048 52.2383 45.7398 52.1316 45.8098C52.0283 45.8798 51.9416 45.9731 51.8716 46.0898L51.6316 45.8648C51.7016 45.7248 51.8133 45.6065 51.9666 45.5098C52.12 45.4098 52.3133 45.3598 52.5466 45.3598C52.86 45.3598 53.1033 45.4365 53.2766 45.5898C53.45 45.7431 53.5366 45.9565 53.5366 46.2298V47.6498H53.8316V47.9998H53.6066ZM52.4566 47.7198C52.5566 47.7198 52.6483 47.7081 52.7316 47.6848C52.815 47.6615 52.8866 47.6281 52.9466 47.5848C53.0066 47.5415 53.0533 47.4915 53.0866 47.4348C53.12 47.3781 53.1366 47.3165 53.1366 47.2498V46.8248H52.6066C52.3766 46.8248 52.2083 46.8581 52.1016 46.9248C51.9983 46.9915 51.9466 47.0881 51.9466 47.2148V47.3198C51.9466 47.4465 51.9916 47.5448 52.0816 47.6148C52.175 47.6848 52.3 47.7198 52.4566 47.7198ZM54.8275 47.9998C54.6875 47.9998 54.5809 47.9615 54.5075 47.8848C54.4375 47.8048 54.4025 47.7048 54.4025 47.5848V44.2998H54.8025V47.6498H55.1825V47.9998H54.8275ZM57.9665 48.0598C57.6832 48.0598 57.4415 48.0065 57.2415 47.8998C57.0415 47.7898 56.8715 47.6398 56.7315 47.4498L57.0415 47.1898C57.1648 47.3531 57.3015 47.4781 57.4515 47.5648C57.6015 47.6481 57.7782 47.6898 57.9815 47.6898C58.2315 47.6898 58.4215 47.6298 58.5515 47.5098C58.6848 47.3898 58.7515 47.2298 58.7515 47.0298C58.7515 46.8631 58.7015 46.7348 58.6015 46.6448C58.5015 46.5548 58.3365 46.4831 58.1065 46.4298L57.8215 46.3648C57.5015 46.2915 57.2565 46.1815 57.0865 46.0348C56.9198 45.8848 56.8365 45.6748 56.8365 45.4048C56.8365 45.2515 56.8648 45.1148 56.9215 44.9948C56.9782 44.8748 57.0565 44.7748 57.1565 44.6948C57.2598 44.6148 57.3815 44.5548 57.5215 44.5148C57.6648 44.4715 57.8215 44.4498 57.9915 44.4498C58.2548 44.4498 58.4798 44.4981 58.6665 44.5948C58.8565 44.6915 59.0165 44.8331 59.1465 45.0198L58.8315 45.2498C58.7348 45.1165 58.6182 45.0115 58.4815 44.9348C58.3448 44.8581 58.1748 44.8198 57.9715 44.8198C57.7482 44.8198 57.5715 44.8681 57.4415 44.9648C57.3148 45.0581 57.2515 45.1998 57.2515 45.3898C57.2515 45.5565 57.3048 45.6831 57.4115 45.7698C57.5215 45.8531 57.6865 45.9198 57.9065 45.9698L58.1915 46.0348C58.5348 46.1115 58.7832 46.2281 58.9365 46.3848C59.0898 46.5415 59.1665 46.7498 59.1665 47.0098C59.1665 47.1698 59.1382 47.3148 59.0815 47.4448C59.0282 47.5748 58.9498 47.6848 58.8465 47.7748C58.7432 47.8648 58.6165 47.9348 58.4665 47.9848C58.3198 48.0348 58.1532 48.0598 57.9665 48.0598ZM60.4218 47.9998C60.2818 47.9998 60.1751 47.9615 60.1018 47.8848C60.0318 47.8048 59.9968 47.7015 59.9968 47.5748V45.7698H59.5718V45.4198H59.8118C59.8984 45.4198 59.9568 45.4031 59.9868 45.3698C60.0201 45.3331 60.0368 45.2715 60.0368 45.1848V44.7048H60.3968V45.4198H60.9618V45.7698H60.3968V47.6498H60.9218V47.9998H60.4218ZM63.4797 47.9998C63.3297 47.9998 63.2214 47.9598 63.1547 47.8798C63.0914 47.7998 63.0514 47.6998 63.0347 47.5798H63.0097C62.953 47.7398 62.8597 47.8598 62.7297 47.9398C62.5997 48.0198 62.4447 48.0598 62.2647 48.0598C61.9914 48.0598 61.778 47.9898 61.6247 47.8498C61.4747 47.7098 61.3997 47.5198 61.3997 47.2798C61.3997 47.0365 61.488 46.8498 61.6647 46.7198C61.8447 46.5898 62.123 46.5248 62.4997 46.5248H63.0097V46.2698C63.0097 46.0865 62.9597 45.9465 62.8597 45.8498C62.7597 45.7531 62.6064 45.7048 62.3997 45.7048C62.243 45.7048 62.1114 45.7398 62.0047 45.8098C61.9014 45.8798 61.8147 45.9731 61.7447 46.0898L61.5047 45.8648C61.5747 45.7248 61.6864 45.6065 61.8397 45.5098C61.993 45.4098 62.1864 45.3598 62.4197 45.3598C62.733 45.3598 62.9764 45.4365 63.1497 45.5898C63.323 45.7431 63.4097 45.9565 63.4097 46.2298V47.6498H63.7047V47.9998H63.4797ZM62.3297 47.7198C62.4297 47.7198 62.5214 47.7081 62.6047 47.6848C62.688 47.6615 62.7597 47.6281 62.8197 47.5848C62.8797 47.5415 62.9264 47.4915 62.9597 47.4348C62.993 47.3781 63.0097 47.3165 63.0097 47.2498V46.8248H62.4797C62.2497 46.8248 62.0814 46.8581 61.9747 46.9248C61.8714 46.9915 61.8197 47.0881 61.8197 47.2148V47.3198C61.8197 47.4465 61.8647 47.5448 61.9547 47.6148C62.048 47.6848 62.173 47.7198 62.3297 47.7198ZM64.8456 47.9998C64.7056 47.9998 64.5989 47.9615 64.5256 47.8848C64.4556 47.8048 64.4206 47.7015 64.4206 47.5748V45.7698H63.9956V45.4198H64.2356C64.3223 45.4198 64.3806 45.4031 64.4106 45.3698C64.4439 45.3331 64.4606 45.2715 64.4606 45.1848V44.7048H64.8206V45.4198H65.3856V45.7698H64.8206V47.6498H65.3456V47.9998H64.8456ZM66.979 48.0598C66.8023 48.0598 66.6423 48.0281 66.499 47.9648C66.359 47.9015 66.2373 47.8115 66.134 47.6948C66.034 47.5748 65.9557 47.4331 65.899 47.2698C65.8457 47.1031 65.819 46.9165 65.819 46.7098C65.819 46.5065 65.8457 46.3215 65.899 46.1548C65.9557 45.9881 66.034 45.8465 66.134 45.7298C66.2373 45.6098 66.359 45.5181 66.499 45.4548C66.6423 45.3915 66.8023 45.3598 66.979 45.3598C67.1523 45.3598 67.3073 45.3915 67.444 45.4548C67.5807 45.5181 67.6973 45.6065 67.794 45.7198C67.8907 45.8298 67.964 45.9615 68.014 46.1148C68.0673 46.2681 68.094 46.4365 68.094 46.6198V46.8098H66.239V46.9298C66.239 47.0398 66.2557 47.1431 66.289 47.2398C66.3257 47.3331 66.3757 47.4148 66.439 47.4848C66.5057 47.5548 66.5857 47.6098 66.679 47.6498C66.7757 47.6898 66.884 47.7098 67.004 47.7098C67.1673 47.7098 67.309 47.6715 67.429 47.5948C67.5523 47.5181 67.6473 47.4081 67.714 47.2648L67.999 47.4698C67.9157 47.6465 67.7857 47.7898 67.609 47.8998C67.4323 48.0065 67.2223 48.0598 66.979 48.0598ZM66.979 45.6948C66.869 45.6948 66.769 45.7148 66.679 45.7548C66.589 45.7915 66.5107 45.8448 66.444 45.9148C66.3807 45.9848 66.3307 46.0681 66.294 46.1648C66.2573 46.2581 66.239 46.3615 66.239 46.4748V46.5098H67.664V46.4548C67.664 46.2248 67.6007 46.0415 67.474 45.9048C67.3507 45.7648 67.1857 45.6948 66.979 45.6948Z" fill="#3F6FE5"/>
<path id="Vector_7" d="M13.305 53.9902C13.5417 53.9902 13.7183 53.9369 13.835 53.8302C13.955 53.7202 14.015 53.5802 14.015 53.4102V53.3752C14.015 53.1919 13.9567 53.0552 13.84 52.9652C13.7267 52.8719 13.5767 52.8252 13.39 52.8252C13.21 52.8252 13.0633 52.8652 12.95 52.9452C12.8367 53.0219 12.7433 53.1269 12.67 53.2602L12.36 53.0202C12.4033 52.9502 12.455 52.8819 12.515 52.8152C12.5783 52.7452 12.6517 52.6835 12.735 52.6302C12.8183 52.5769 12.915 52.5335 13.025 52.5002C13.135 52.4669 13.26 52.4502 13.4 52.4502C13.5467 52.4502 13.685 52.4702 13.815 52.5102C13.945 52.5469 14.0567 52.6035 14.15 52.6802C14.2467 52.7535 14.3217 52.8452 14.375 52.9552C14.4317 53.0652 14.46 53.1902 14.46 53.3302C14.46 53.4435 14.4417 53.5452 14.405 53.6352C14.3717 53.7252 14.325 53.8035 14.265 53.8702C14.205 53.9369 14.1333 53.9935 14.05 54.0402C13.97 54.0869 13.8833 54.1219 13.79 54.1452V54.1652C13.8833 54.1852 13.9733 54.2185 14.06 54.2652C14.15 54.3085 14.2283 54.3669 14.295 54.4402C14.365 54.5102 14.42 54.5969 14.46 54.7002C14.5033 54.8002 14.525 54.9152 14.525 55.0452C14.525 55.1952 14.4967 55.3335 14.44 55.4602C14.3833 55.5835 14.3033 55.6902 14.2 55.7802C14.0967 55.8669 13.9717 55.9352 13.825 55.9852C13.6783 56.0352 13.5167 56.0602 13.34 56.0602C13.19 56.0602 13.0567 56.0435 12.94 56.0102C12.8233 55.9769 12.72 55.9319 12.63 55.8752C12.54 55.8185 12.46 55.7552 12.39 55.6852C12.3233 55.6152 12.2633 55.5419 12.21 55.4652L12.525 55.2252C12.5683 55.2952 12.615 55.3585 12.665 55.4152C12.7183 55.4719 12.7767 55.5202 12.84 55.5602C12.9033 55.6002 12.975 55.6319 13.055 55.6552C13.135 55.6752 13.2283 55.6852 13.335 55.6852C13.5817 55.6852 13.7683 55.6302 13.895 55.5202C14.0217 55.4069 14.085 55.2469 14.085 55.0402V55.0002C14.085 54.7935 14.0217 54.6352 13.895 54.5252C13.7683 54.4119 13.5817 54.3552 13.335 54.3552H12.925V53.9902H13.305ZM16.303 53.9902C16.5397 53.9902 16.7164 53.9369 16.833 53.8302C16.953 53.7202 17.013 53.5802 17.013 53.4102V53.3752C17.013 53.1919 16.9547 53.0552 16.838 52.9652C16.7247 52.8719 16.5747 52.8252 16.388 52.8252C16.208 52.8252 16.0614 52.8652 15.948 52.9452C15.8347 53.0219 15.7414 53.1269 15.668 53.2602L15.358 53.0202C15.4014 52.9502 15.453 52.8819 15.513 52.8152C15.5764 52.7452 15.6497 52.6835 15.733 52.6302C15.8164 52.5769 15.913 52.5335 16.023 52.5002C16.133 52.4669 16.258 52.4502 16.398 52.4502C16.5447 52.4502 16.683 52.4702 16.813 52.5102C16.943 52.5469 17.0547 52.6035 17.148 52.6802C17.2447 52.7535 17.3197 52.8452 17.373 52.9552C17.4297 53.0652 17.458 53.1902 17.458 53.3302C17.458 53.4435 17.4397 53.5452 17.403 53.6352C17.3697 53.7252 17.323 53.8035 17.263 53.8702C17.203 53.9369 17.1314 53.9935 17.048 54.0402C16.968 54.0869 16.8814 54.1219 16.788 54.1452V54.1652C16.8814 54.1852 16.9714 54.2185 17.058 54.2652C17.148 54.3085 17.2264 54.3669 17.293 54.4402C17.363 54.5102 17.418 54.5969 17.458 54.7002C17.5014 54.8002 17.523 54.9152 17.523 55.0452C17.523 55.1952 17.4947 55.3335 17.438 55.4602C17.3814 55.5835 17.3014 55.6902 17.198 55.7802C17.0947 55.8669 16.9697 55.9352 16.823 55.9852C16.6764 56.0352 16.5147 56.0602 16.338 56.0602C16.188 56.0602 16.0547 56.0435 15.938 56.0102C15.8214 55.9769 15.718 55.9319 15.628 55.8752C15.538 55.8185 15.458 55.7552 15.388 55.6852C15.3214 55.6152 15.2614 55.5419 15.208 55.4652L15.523 55.2252C15.5664 55.2952 15.613 55.3585 15.663 55.4152C15.7164 55.4719 15.7747 55.5202 15.838 55.5602C15.9014 55.6002 15.973 55.6319 16.053 55.6552C16.133 55.6752 16.2264 55.6852 16.333 55.6852C16.5797 55.6852 16.7664 55.6302 16.893 55.5202C17.0197 55.4069 17.083 55.2469 17.083 55.0402V55.0002C17.083 54.7935 17.0197 54.6352 16.893 54.5252C16.7664 54.4119 16.5797 54.3552 16.333 54.3552H15.923V53.9902H16.303ZM19.4961 56.0602C19.0794 56.0602 18.7744 55.9019 18.5811 55.5852C18.3911 55.2685 18.2961 54.8252 18.2961 54.2552C18.2961 53.6852 18.3911 53.2419 18.5811 52.9252C18.7744 52.6085 19.0794 52.4502 19.4961 52.4502C19.9128 52.4502 20.2161 52.6085 20.4061 52.9252C20.5994 53.2419 20.6961 53.6852 20.6961 54.2552C20.6961 54.8252 20.5994 55.2685 20.4061 55.5852C20.2161 55.9019 19.9128 56.0602 19.4961 56.0602ZM19.4961 55.6952C19.6328 55.6952 19.7494 55.6669 19.8461 55.6102C19.9428 55.5535 20.0211 55.4735 20.0811 55.3702C20.1411 55.2669 20.1844 55.1452 20.2111 55.0052C20.2411 54.8652 20.2561 54.7102 20.2561 54.5402V53.9702C20.2561 53.8002 20.2411 53.6452 20.2111 53.5052C20.1844 53.3652 20.1411 53.2435 20.0811 53.1402C20.0211 53.0369 19.9428 52.9569 19.8461 52.9002C19.7494 52.8435 19.6328 52.8152 19.4961 52.8152C19.3594 52.8152 19.2428 52.8435 19.1461 52.9002C19.0494 52.9569 18.9711 53.0369 18.9111 53.1402C18.8511 53.2435 18.8061 53.3652 18.7761 53.5052C18.7494 53.6452 18.7361 53.8002 18.7361 53.9702V54.5402C18.7361 54.7102 18.7494 54.8652 18.7761 55.0052C18.8061 55.1452 18.8511 55.2669 18.9111 55.3702C18.9711 55.4735 19.0494 55.5535 19.1461 55.6102C19.2428 55.6669 19.3594 55.6952 19.4961 55.6952ZM21.4341 56.0002V55.6302H22.4091V52.8202H22.3741L21.4941 53.6402L21.2491 53.3752L22.1741 52.5102H22.8291V55.6302H23.7291V56.0002H21.4341ZM25.4922 56.0602C25.0755 56.0602 24.7705 55.9019 24.5772 55.5852C24.3872 55.2685 24.2922 54.8252 24.2922 54.2552C24.2922 53.6852 24.3872 53.2419 24.5772 52.9252C24.7705 52.6085 25.0755 52.4502 25.4922 52.4502C25.9089 52.4502 26.2122 52.6085 26.4022 52.9252C26.5955 53.2419 26.6922 53.6852 26.6922 54.2552C26.6922 54.8252 26.5955 55.2685 26.4022 55.5852C26.2122 55.9019 25.9089 56.0602 25.4922 56.0602ZM25.4922 55.6952C25.6289 55.6952 25.7455 55.6669 25.8422 55.6102C25.9389 55.5535 26.0172 55.4735 26.0772 55.3702C26.1372 55.2669 26.1805 55.1452 26.2072 55.0052C26.2372 54.8652 26.2522 54.7102 26.2522 54.5402V53.9702C26.2522 53.8002 26.2372 53.6452 26.2072 53.5052C26.1805 53.3652 26.1372 53.2435 26.0772 53.1402C26.0172 53.0369 25.9389 52.9569 25.8422 52.9002C25.7455 52.8435 25.6289 52.8152 25.4922 52.8152C25.3555 52.8152 25.2389 52.8435 25.1422 52.9002C25.0455 52.9569 24.9672 53.0369 24.9072 53.1402C24.8472 53.2435 24.8022 53.3652 24.7722 53.5052C24.7455 53.6452 24.7322 53.8002 24.7322 53.9702V54.5402C24.7322 54.7102 24.7455 54.8652 24.7722 55.0052C24.8022 55.1452 24.8472 55.2669 24.9072 55.3702C24.9672 55.4735 25.0455 55.5535 25.1422 55.6102C25.2389 55.6669 25.3555 55.6952 25.4922 55.6952Z" fill="#3F6FE5"/>
<g id="Group_2" opacity="0.16">
<path id="Vector_8" d="M98.75 31.5937V30.9886H99.2V28.7086H98.75V28.1036H100.41V28.7086H99.96V30.9886H100.41V31.5937H98.75ZM101.869 31.6537C101.615 31.6537 101.402 31.6137 101.229 31.5336C101.055 31.4503 100.9 31.3336 100.764 31.1836L101.199 30.7436C101.292 30.847 101.395 30.9286 101.509 30.9886C101.622 31.0486 101.75 31.0786 101.894 31.0786C102.04 31.0786 102.142 31.057 102.199 31.0136C102.255 30.967 102.284 30.9053 102.284 30.8286C102.284 30.7053 102.195 30.632 102.019 30.6086L101.734 30.5736C101.144 30.5003 100.849 30.2303 100.849 29.7636C100.849 29.637 100.872 29.522 100.919 29.4186C100.969 29.312 101.037 29.222 101.124 29.1486C101.214 29.072 101.32 29.0136 101.444 28.9736C101.57 28.9303 101.712 28.9086 101.869 28.9086C102.005 28.9086 102.125 28.9186 102.229 28.9386C102.335 28.9553 102.429 28.982 102.509 29.0186C102.592 29.052 102.667 29.0953 102.734 29.1486C102.804 29.1986 102.872 29.2553 102.939 29.3186L102.514 29.7536C102.43 29.6703 102.335 29.6053 102.229 29.5586C102.125 29.5086 102.019 29.4836 101.909 29.4836C101.782 29.4836 101.692 29.5036 101.639 29.5436C101.585 29.5836 101.559 29.637 101.559 29.7036C101.559 29.7736 101.577 29.8286 101.614 29.8686C101.654 29.9053 101.727 29.932 101.834 29.9486L102.129 29.9886C102.705 30.0653 102.994 30.3286 102.994 30.7786C102.994 30.9053 102.967 31.022 102.914 31.1286C102.86 31.2353 102.784 31.3286 102.684 31.4086C102.587 31.4853 102.469 31.5453 102.329 31.5886C102.192 31.632 102.039 31.6537 101.869 31.6537ZM104.354 31.6537C104.101 31.6537 103.887 31.6137 103.714 31.5336C103.541 31.4503 103.386 31.3336 103.249 31.1836L103.684 30.7436C103.777 30.847 103.881 30.9286 103.994 30.9886C104.107 31.0486 104.236 31.0786 104.379 31.0786C104.526 31.0786 104.627 31.057 104.684 31.0136C104.741 30.967 104.769 30.9053 104.769 30.8286C104.769 30.7053 104.681 30.632 104.504 30.6086L104.219 30.5736C103.629 30.5003 103.334 30.2303 103.334 29.7636C103.334 29.637 103.357 29.522 103.404 29.4186C103.454 29.312 103.522 29.222 103.609 29.1486C103.699 29.072 103.806 29.0136 103.929 28.9736C104.056 28.9303 104.197 28.9086 104.354 28.9086C104.491 28.9086 104.611 28.9186 104.714 28.9386C104.821 28.9553 104.914 28.982 104.994 29.0186C105.077 29.052 105.152 29.0953 105.219 29.1486C105.289 29.1986 105.357 29.2553 105.424 29.3186L104.999 29.7536C104.916 29.6703 104.821 29.6053 104.714 29.5586C104.611 29.5086 104.504 29.4836 104.394 29.4836C104.267 29.4836 104.177 29.5036 104.124 29.5436C104.071 29.5836 104.044 29.637 104.044 29.7036C104.044 29.7736 104.062 29.8286 104.099 29.8686C104.139 29.9053 104.212 29.932 104.319 29.9486L104.614 29.9886C105.191 30.0653 105.479 30.3286 105.479 30.7786C105.479 30.9053 105.452 31.022 105.399 31.1286C105.346 31.2353 105.269 31.3286 105.169 31.4086C105.072 31.4853 104.954 31.5453 104.814 31.5886C104.677 31.632 104.524 31.6537 104.354 31.6537ZM107.534 31.1536H107.509C107.485 31.2203 107.454 31.2836 107.414 31.3436C107.377 31.4036 107.329 31.457 107.269 31.5036C107.209 31.5503 107.137 31.587 107.054 31.6137C106.974 31.6403 106.88 31.6537 106.774 31.6537C106.504 31.6537 106.299 31.5653 106.159 31.3886C106.022 31.2086 105.954 30.952 105.954 30.6186V28.9686H106.694V30.5536C106.694 30.7136 106.722 30.837 106.779 30.9236C106.835 31.0103 106.932 31.0536 107.069 31.0536C107.125 31.0536 107.182 31.0453 107.239 31.0286C107.295 31.012 107.345 30.9886 107.389 30.9586C107.432 30.9253 107.467 30.8853 107.494 30.8386C107.52 30.792 107.534 30.737 107.534 30.6736V28.9686H108.274V31.5937H107.534V31.1536ZM110.057 31.6537C109.857 31.6537 109.679 31.622 109.522 31.5586C109.366 31.492 109.232 31.4003 109.122 31.2836C109.016 31.1636 108.934 31.0186 108.877 30.8486C108.824 30.6786 108.797 30.4886 108.797 30.2786C108.797 30.072 108.824 29.8853 108.877 29.7186C108.931 29.5486 109.009 29.4036 109.112 29.2836C109.219 29.1636 109.349 29.072 109.502 29.0086C109.656 28.942 109.831 28.9086 110.027 28.9086C110.244 28.9086 110.429 28.9453 110.582 29.0186C110.739 29.092 110.866 29.1903 110.962 29.3136C111.062 29.437 111.134 29.5803 111.177 29.7436C111.224 29.9036 111.247 30.072 111.247 30.2486V30.4686H109.562V30.5086C109.562 30.682 109.609 30.8203 109.702 30.9236C109.796 31.0236 109.942 31.0736 110.142 31.0736C110.296 31.0736 110.421 31.0436 110.517 30.9836C110.614 30.9203 110.704 30.8453 110.787 30.7586L111.157 31.2186C111.041 31.3553 110.887 31.462 110.697 31.5386C110.511 31.6153 110.297 31.6537 110.057 31.6537ZM110.042 29.4536C109.892 29.4536 109.774 29.5036 109.687 29.6036C109.604 29.7003 109.562 29.8303 109.562 29.9936V30.0336H110.482V29.9886C110.482 29.8286 110.446 29.7003 110.372 29.6036C110.302 29.5036 110.192 29.4536 110.042 29.4536ZM114.561 31.1536H114.536C114.516 31.2236 114.485 31.2903 114.441 31.3536C114.398 31.4136 114.345 31.467 114.281 31.5136C114.221 31.557 114.151 31.5903 114.071 31.6137C113.995 31.6403 113.915 31.6537 113.831 31.6537C113.498 31.6537 113.246 31.537 113.076 31.3036C112.906 31.067 112.821 30.7253 112.821 30.2786C112.821 29.832 112.906 29.492 113.076 29.2586C113.246 29.0253 113.498 28.9086 113.831 28.9086C114.001 28.9086 114.151 28.9553 114.281 29.0486C114.415 29.142 114.5 29.262 114.536 29.4086H114.561V27.8936H115.301V31.5937H114.561V31.1536ZM114.076 31.0536C114.216 31.0536 114.331 31.0203 114.421 30.9536C114.515 30.8836 114.561 30.7886 114.561 30.6686V29.8936C114.561 29.7736 114.515 29.6803 114.421 29.6136C114.331 29.5436 114.216 29.5086 114.076 29.5086C113.936 29.5086 113.82 29.5586 113.726 29.6586C113.636 29.7553 113.591 29.887 113.591 30.0536V30.5086C113.591 30.6753 113.636 30.8086 113.726 30.9086C113.82 31.0053 113.936 31.0536 114.076 31.0536ZM117.933 31.5937C117.8 31.5937 117.688 31.552 117.598 31.4686C117.512 31.3853 117.457 31.2736 117.433 31.1336H117.403C117.363 31.3036 117.275 31.4336 117.138 31.5236C117.002 31.6103 116.833 31.6537 116.633 31.6537C116.37 31.6537 116.168 31.5836 116.028 31.4436C115.888 31.3036 115.818 31.1186 115.818 30.8886C115.818 30.612 115.918 30.407 116.118 30.2737C116.322 30.137 116.597 30.0686 116.943 30.0686H117.358V29.9036C117.358 29.777 117.325 29.677 117.258 29.6036C117.192 29.527 117.08 29.4886 116.923 29.4886C116.777 29.4886 116.66 29.5203 116.573 29.5836C116.487 29.647 116.415 29.7186 116.358 29.7986L115.918 29.4086C116.025 29.252 116.158 29.1303 116.318 29.0436C116.482 28.9536 116.702 28.9086 116.978 28.9086C117.352 28.9086 117.632 28.9903 117.818 29.1536C118.005 29.317 118.098 29.5553 118.098 29.8686V31.0186H118.343V31.5937H117.933ZM116.908 31.1386C117.032 31.1386 117.137 31.112 117.223 31.0586C117.313 31.0053 117.358 30.9186 117.358 30.7986V30.4886H116.998C116.708 30.4886 116.563 30.587 116.563 30.7836V30.8587C116.563 30.9553 116.593 31.027 116.653 31.0736C116.713 31.117 116.798 31.1386 116.908 31.1386ZM119.731 31.5937C119.474 31.5937 119.279 31.5286 119.146 31.3986C119.016 31.2686 118.951 31.0786 118.951 30.8286V29.5436H118.581V28.9686H118.766C118.866 28.9686 118.934 28.9453 118.971 28.8986C119.007 28.8486 119.026 28.7786 119.026 28.6886V28.2586H119.691V28.9686H120.211V29.5436H119.691V31.0186H120.171V31.5937H119.731ZM121.8 31.6537C121.6 31.6537 121.422 31.622 121.265 31.5586C121.109 31.492 120.975 31.4003 120.865 31.2836C120.759 31.1636 120.677 31.0186 120.62 30.8486C120.567 30.6786 120.54 30.4886 120.54 30.2786C120.54 30.072 120.567 29.8853 120.62 29.7186C120.674 29.5486 120.752 29.4036 120.855 29.2836C120.962 29.1636 121.092 29.072 121.245 29.0086C121.399 28.942 121.574 28.9086 121.77 28.9086C121.987 28.9086 122.172 28.9453 122.325 29.0186C122.482 29.092 122.609 29.1903 122.705 29.3136C122.805 29.437 122.877 29.5803 122.92 29.7436C122.967 29.9036 122.99 30.072 122.99 30.2486V30.4686H121.305V30.5086C121.305 30.682 121.352 30.8203 121.445 30.9236C121.539 31.0236 121.685 31.0736 121.885 31.0736C122.039 31.0736 122.164 31.0436 122.26 30.9836C122.357 30.9203 122.447 30.8453 122.53 30.7586L122.9 31.2186C122.784 31.3553 122.63 31.462 122.44 31.5386C122.254 31.6153 122.04 31.6537 121.8 31.6537ZM121.785 29.4536C121.635 29.4536 121.517 29.5036 121.43 29.6036C121.347 29.7003 121.305 29.8303 121.305 29.9936V30.0336H122.225V29.9886C122.225 29.8286 122.189 29.7003 122.115 29.6036C122.045 29.5036 121.935 29.4536 121.785 29.4536ZM125.175 31.6487C125.025 31.6487 124.913 31.612 124.84 31.5386C124.77 31.462 124.735 31.3653 124.735 31.2486V31.1486C124.735 31.032 124.77 30.937 124.84 30.8636C124.913 30.787 125.025 30.7486 125.175 30.7486C125.325 30.7486 125.435 30.787 125.505 30.8636C125.578 30.937 125.615 31.032 125.615 31.1486V31.2486C125.615 31.3653 125.578 31.462 125.505 31.5386C125.435 31.612 125.325 31.6487 125.175 31.6487ZM125.175 29.8136C125.025 29.8136 124.913 29.777 124.84 29.7036C124.77 29.627 124.735 29.5303 124.735 29.4136V29.3136C124.735 29.197 124.77 29.102 124.84 29.0286C124.913 28.952 125.025 28.9136 125.175 28.9136C125.325 28.9136 125.435 28.952 125.505 29.0286C125.578 29.102 125.615 29.197 125.615 29.3136V29.4136C125.615 29.5303 125.578 29.627 125.505 29.7036C125.435 29.777 125.325 29.8136 125.175 29.8136Z" fill="#2A3052"/>
<path id="Vector_9" d="M101.685 36.6536H101.66L101.365 37.2385L100.53 38.7585L99.6948 37.2385L99.3998 36.6536H99.3748V39.5936H98.9648V36.1035H99.5248L100.525 37.9835H100.55L101.555 36.1035H102.095V39.5936H101.685V36.6536ZM104.858 39.5936C104.708 39.5936 104.599 39.5535 104.533 39.4735C104.469 39.3935 104.429 39.2935 104.413 39.1735H104.388C104.331 39.3335 104.238 39.4535 104.108 39.5335C103.978 39.6136 103.823 39.6536 103.643 39.6536C103.369 39.6536 103.156 39.5835 103.003 39.4435C102.853 39.3035 102.778 39.1135 102.778 38.8735C102.778 38.6302 102.866 38.4435 103.043 38.3135C103.223 38.1835 103.501 38.1185 103.878 38.1185H104.388V37.8635C104.388 37.6802 104.338 37.5402 104.238 37.4435C104.138 37.3469 103.984 37.2985 103.778 37.2985C103.621 37.2985 103.489 37.3335 103.383 37.4035C103.279 37.4735 103.193 37.5669 103.123 37.6835L102.883 37.4585C102.953 37.3185 103.064 37.2002 103.218 37.1035C103.371 37.0035 103.564 36.9536 103.798 36.9536C104.111 36.9536 104.354 37.0302 104.528 37.1835C104.701 37.3369 104.788 37.5502 104.788 37.8235V39.2435H105.083V39.5936H104.858ZM103.708 39.3135C103.808 39.3135 103.899 39.3019 103.983 39.2785C104.066 39.2552 104.138 39.2219 104.198 39.1785C104.258 39.1352 104.304 39.0852 104.338 39.0285C104.371 38.9719 104.388 38.9102 104.388 38.8435V38.4185H103.858C103.628 38.4185 103.459 38.4519 103.353 38.5185C103.249 38.5852 103.198 38.6819 103.198 38.8085V38.9135C103.198 39.0402 103.243 39.1385 103.333 39.2085C103.426 39.2785 103.551 39.3135 103.708 39.3135ZM107.219 37.0135H107.614L106.459 40.1936C106.429 40.2702 106.399 40.3336 106.369 40.3836C106.339 40.4369 106.302 40.4786 106.259 40.5086C106.216 40.5386 106.161 40.5602 106.094 40.5736C106.031 40.5869 105.952 40.5936 105.859 40.5936H105.654V40.2436H106.059L106.254 39.6936L105.289 37.0135H105.689L106.309 38.7685L106.429 39.1885H106.454L106.594 38.7685L107.219 37.0135ZM110.186 37.5835C110.423 37.5835 110.599 37.5302 110.716 37.4235C110.836 37.3135 110.896 37.1735 110.896 37.0035V36.9685C110.896 36.7852 110.838 36.6485 110.721 36.5585C110.608 36.4652 110.458 36.4185 110.271 36.4185C110.091 36.4185 109.944 36.4585 109.831 36.5385C109.718 36.6152 109.624 36.7202 109.551 36.8535L109.241 36.6135C109.284 36.5435 109.336 36.4752 109.396 36.4085C109.459 36.3385 109.533 36.2769 109.616 36.2235C109.699 36.1702 109.796 36.1269 109.906 36.0935C110.016 36.0602 110.141 36.0435 110.281 36.0435C110.428 36.0435 110.566 36.0635 110.696 36.1035C110.826 36.1402 110.938 36.1969 111.031 36.2735C111.128 36.3469 111.203 36.4385 111.256 36.5485C111.313 36.6585 111.341 36.7835 111.341 36.9235C111.341 37.0369 111.323 37.1385 111.286 37.2285C111.253 37.3185 111.206 37.3969 111.146 37.4635C111.086 37.5302 111.014 37.5869 110.931 37.6335C110.851 37.6802 110.764 37.7152 110.671 37.7385V37.7585C110.764 37.7785 110.854 37.8119 110.941 37.8585C111.031 37.9019 111.109 37.9602 111.176 38.0335C111.246 38.1035 111.301 38.1902 111.341 38.2935C111.384 38.3935 111.406 38.5085 111.406 38.6385C111.406 38.7885 111.378 38.9269 111.321 39.0535C111.264 39.1769 111.184 39.2835 111.081 39.3735C110.978 39.4602 110.853 39.5285 110.706 39.5785C110.559 39.6286 110.398 39.6536 110.221 39.6536C110.071 39.6536 109.938 39.6369 109.821 39.6036C109.704 39.5702 109.601 39.5252 109.511 39.4685C109.421 39.4119 109.341 39.3485 109.271 39.2785C109.204 39.2085 109.144 39.1352 109.091 39.0585L109.406 38.8185C109.449 38.8885 109.496 38.9519 109.546 39.0085C109.599 39.0652 109.658 39.1135 109.721 39.1535C109.784 39.1935 109.856 39.2252 109.936 39.2485C110.016 39.2685 110.109 39.2785 110.216 39.2785C110.463 39.2785 110.649 39.2235 110.776 39.1135C110.903 39.0002 110.966 38.8402 110.966 38.6335V38.5935C110.966 38.3869 110.903 38.2285 110.776 38.1185C110.649 38.0052 110.463 37.9485 110.216 37.9485H109.806V37.5835H110.186ZM112.559 39.0085C112.666 39.0085 112.742 39.0369 112.789 39.0935C112.839 39.1469 112.864 39.2169 112.864 39.3035V39.3735C112.864 39.5102 112.824 39.6602 112.744 39.8236C112.664 39.9902 112.552 40.1352 112.409 40.2586H112.074C112.174 40.1519 112.254 40.0502 112.314 39.9536C112.377 39.8602 112.422 39.7552 112.449 39.6386C112.382 39.6219 112.332 39.5902 112.299 39.5435C112.269 39.4969 112.254 39.4402 112.254 39.3735V39.3035C112.254 39.2169 112.277 39.1469 112.324 39.0935C112.374 39.0369 112.452 39.0085 112.559 39.0085ZM117.088 39.5936H114.798V39.1635L115.938 38.1135C116.101 37.9635 116.238 37.8052 116.348 37.6385C116.458 37.4685 116.513 37.2985 116.513 37.1285V37.0686C116.513 36.8752 116.46 36.7185 116.353 36.5985C116.246 36.4785 116.085 36.4185 115.868 36.4185C115.761 36.4185 115.668 36.4335 115.588 36.4635C115.508 36.4935 115.438 36.5352 115.378 36.5885C115.321 36.6419 115.273 36.7052 115.233 36.7785C115.196 36.8485 115.166 36.9252 115.143 37.0085L114.768 36.8635C114.801 36.7602 114.846 36.6602 114.903 36.5635C114.963 36.4635 115.036 36.3752 115.123 36.2985C115.213 36.2219 115.32 36.1602 115.443 36.1135C115.57 36.0669 115.718 36.0435 115.888 36.0435C116.058 36.0435 116.21 36.0685 116.343 36.1185C116.476 36.1685 116.588 36.2385 116.678 36.3285C116.768 36.4185 116.836 36.5252 116.883 36.6485C116.933 36.7719 116.958 36.9085 116.958 37.0585C116.958 37.1952 116.938 37.3219 116.898 37.4385C116.861 37.5552 116.81 37.6669 116.743 37.7735C116.676 37.8769 116.595 37.9785 116.498 38.0785C116.405 38.1785 116.303 38.2785 116.193 38.3785L115.253 39.2235H117.088V39.5936ZM118.921 39.6536C118.504 39.6536 118.199 39.4952 118.006 39.1785C117.816 38.8619 117.721 38.4185 117.721 37.8485C117.721 37.2785 117.816 36.8352 118.006 36.5185C118.199 36.2019 118.504 36.0435 118.921 36.0435C119.338 36.0435 119.641 36.2019 119.831 36.5185C120.024 36.8352 120.121 37.2785 120.121 37.8485C120.121 38.4185 120.024 38.8619 119.831 39.1785C119.641 39.4952 119.338 39.6536 118.921 39.6536ZM118.921 39.2885C119.058 39.2885 119.174 39.2602 119.271 39.2035C119.368 39.1469 119.446 39.0669 119.506 38.9635C119.566 38.8602 119.609 38.7385 119.636 38.5985C119.666 38.4585 119.681 38.3035 119.681 38.1335V37.5635C119.681 37.3935 119.666 37.2385 119.636 37.0985C119.609 36.9585 119.566 36.8369 119.506 36.7335C119.446 36.6302 119.368 36.5502 119.271 36.4935C119.174 36.4369 119.058 36.4085 118.921 36.4085C118.784 36.4085 118.668 36.4369 118.571 36.4935C118.474 36.5502 118.396 36.6302 118.336 36.7335C118.276 36.8369 118.231 36.9585 118.201 37.0985C118.174 37.2385 118.161 37.3935 118.161 37.5635V38.1335C118.161 38.3035 118.174 38.4585 118.201 38.5985C118.231 38.7385 118.276 38.8602 118.336 38.9635C118.396 39.0669 118.474 39.1469 118.571 39.2035C118.668 39.2602 118.784 39.2885 118.921 39.2885ZM123.084 39.5936H120.794V39.1635L121.934 38.1135C122.097 37.9635 122.234 37.8052 122.344 37.6385C122.454 37.4685 122.509 37.2985 122.509 37.1285V37.0686C122.509 36.8752 122.456 36.7185 122.349 36.5985C122.242 36.4785 122.081 36.4185 121.864 36.4185C121.757 36.4185 121.664 36.4335 121.584 36.4635C121.504 36.4935 121.434 36.5352 121.374 36.5885C121.317 36.6419 121.269 36.7052 121.229 36.7785C121.192 36.8485 121.162 36.9252 121.139 37.0085L120.764 36.8635C120.797 36.7602 120.842 36.6602 120.899 36.5635C120.959 36.4635 121.032 36.3752 121.119 36.2985C121.209 36.2219 121.316 36.1602 121.439 36.1135C121.566 36.0669 121.714 36.0435 121.884 36.0435C122.054 36.0435 122.206 36.0685 122.339 36.1185C122.472 36.1685 122.584 36.2385 122.674 36.3285C122.764 36.4185 122.832 36.5252 122.879 36.6485C122.929 36.7719 122.954 36.9085 122.954 37.0585C122.954 37.1952 122.934 37.3219 122.894 37.4385C122.857 37.5552 122.806 37.6669 122.739 37.7735C122.672 37.8769 122.591 37.9785 122.494 38.0785C122.401 38.1785 122.299 38.2785 122.189 38.3785L121.249 39.2235H123.084V39.5936ZM124.722 37.5835C124.959 37.5835 125.135 37.5302 125.252 37.4235C125.372 37.3135 125.432 37.1735 125.432 37.0035V36.9685C125.432 36.7852 125.374 36.6485 125.257 36.5585C125.144 36.4652 124.994 36.4185 124.807 36.4185C124.627 36.4185 124.48 36.4585 124.367 36.5385C124.254 36.6152 124.16 36.7202 124.087 36.8535L123.777 36.6135C123.82 36.5435 123.872 36.4752 123.932 36.4085C123.995 36.3385 124.069 36.2769 124.152 36.2235C124.235 36.1702 124.332 36.1269 124.442 36.0935C124.552 36.0602 124.677 36.0435 124.817 36.0435C124.964 36.0435 125.102 36.0635 125.232 36.1035C125.362 36.1402 125.474 36.1969 125.567 36.2735C125.664 36.3469 125.739 36.4385 125.792 36.5485C125.849 36.6585 125.877 36.7835 125.877 36.9235C125.877 37.0369 125.859 37.1385 125.822 37.2285C125.789 37.3185 125.742 37.3969 125.682 37.4635C125.622 37.5302 125.55 37.5869 125.467 37.6335C125.387 37.6802 125.3 37.7152 125.207 37.7385V37.7585C125.3 37.7785 125.39 37.8119 125.477 37.8585C125.567 37.9019 125.645 37.9602 125.712 38.0335C125.782 38.1035 125.837 38.1902 125.877 38.2935C125.92 38.3935 125.942 38.5085 125.942 38.6385C125.942 38.7885 125.914 38.9269 125.857 39.0535C125.8 39.1769 125.72 39.2835 125.617 39.3735C125.514 39.4602 125.389 39.5285 125.242 39.5785C125.095 39.6286 124.934 39.6536 124.757 39.6536C124.607 39.6536 124.474 39.6369 124.357 39.6036C124.24 39.5702 124.137 39.5252 124.047 39.4685C123.957 39.4119 123.877 39.3485 123.807 39.2785C123.74 39.2085 123.68 39.1352 123.627 39.0585L123.942 38.8185C123.985 38.8885 124.032 38.9519 124.082 39.0085C124.135 39.0652 124.194 39.1135 124.257 39.1535C124.32 39.1935 124.392 39.2252 124.472 39.2485C124.552 39.2685 124.645 39.2785 124.752 39.2785C124.999 39.2785 125.185 39.2235 125.312 39.1135C125.439 39.0002 125.502 38.8402 125.502 38.6335V38.5935C125.502 38.3869 125.439 38.2285 125.312 38.1185C125.185 38.0052 124.999 37.9485 124.752 37.9485H124.342V37.5835H124.722Z" fill="#2A3052"/>
</g>
<g id="Group_3" opacity="0.08">
<path id="Vector_10" d="M94 61.5938H44V68.375H94V61.5938Z" fill="#377CFC"/>
<path id="Vector_11" d="M13.5 72.125H124.5" stroke="#377CFC" stroke-width="0.5"/>
<path id="Vector_12" d="M11.5 76.375H44.5V80.375H11.5V76.375Z" fill="#377CFC"/>
<path id="Vector_13" d="M52.5 76.375H85.5V80.375H52.5V76.375Z" fill="#377CFC"/>
<path id="Vector_14" d="M93.5 76.375H126.5V80.375H93.5V76.375Z" fill="#377CFC"/>
<path id="Vector_15" d="M13.5 84.125H124.5" stroke="#377CFC" stroke-width="0.5"/>
<path id="Vector_16" d="M11.5 88.375H44.5V92.375H11.5V88.375Z" fill="#377CFC"/>
<path id="Vector_17" d="M52.5 88.375H85.5V92.375H52.5V88.375Z" fill="#377CFC"/>
<path id="Vector_18" d="M93.5 88.375H126.5V92.375H93.5V88.375Z" fill="#377CFC"/>
<path id="Vector_19" d="M11.5 96.375H44.5V100.375H11.5V96.375Z" fill="#377CFC"/>
<path id="Vector_20" d="M52.5 96.375H85.5V100.375H52.5V96.375Z" fill="#377CFC"/>
<path id="Vector_21" d="M93.5 96.375H126.5V100.375H93.5V96.375Z" fill="#377CFC"/>
<path id="Vector_22" d="M11.5 104.375H44.5V108.375H11.5V104.375Z" fill="#377CFC"/>
<path id="Vector_23" d="M52.5 104.375H85.5V108.375H52.5V104.375Z" fill="#377CFC"/>
<path id="Vector_24" d="M93.5 104.375H126.5V108.375H93.5V104.375Z" fill="#377CFC"/>
<path id="Vector_25" d="M11.5 112.375H44.5V116.375H11.5V112.375Z" fill="#377CFC"/>
<path id="Vector_26" d="M52.5 112.375H85.5V116.375H52.5V112.375Z" fill="#377CFC"/>
<path id="Vector_27" d="M93.5 112.375H126.5V116.375H93.5V112.375Z" fill="#377CFC"/>
<path id="Vector_28" d="M11.5 120.375H44.5V124.375H11.5V120.375Z" fill="#377CFC"/>
<path id="Vector_29" d="M52.5 120.375H85.5V124.375H52.5V120.375Z" fill="#377CFC"/>
<path id="Vector_30" d="M93.5 120.375H126.5V124.375H93.5V120.375Z" fill="#377CFC"/>
<path id="Vector_31" d="M11.5 128.375H44.5V132.375H11.5V128.375Z" fill="#377CFC"/>
<path id="Vector_32" d="M52.5 128.375H85.5V132.375H52.5V128.375Z" fill="#377CFC"/>
<path id="Vector_33" d="M93.5 128.375H126.5V132.375H93.5V128.375Z" fill="#377CFC"/>
<path id="Vector_34" d="M11.5 136.375H44.5V140.375H11.5V136.375Z" fill="#377CFC"/>
<path id="Vector_35" d="M52.5 136.375H85.5V140.375H52.5V136.375Z" fill="#377CFC"/>
<path id="Vector_36" d="M93.5 136.375H126.5V140.375H93.5V136.375Z" fill="#377CFC"/>
<path id="Vector_37" d="M11.5 144.375H44.5V148.375H11.5V144.375Z" fill="#377CFC"/>
<path id="Vector_38" d="M52.5 144.375H85.5V148.375H52.5V144.375Z" fill="#377CFC"/>
<path id="Vector_39" d="M93.5 144.375H126.5V148.375H93.5V144.375Z" fill="#377CFC"/>
</g>
<path id="Vector_40" opacity="0.16" fill-rule="evenodd" clip-rule="evenodd" d="M3 154C3 156.209 4.79086 158 7 158H131C133.209 158 135 156.209 135 154V6C135 3.79086 133.209 2 131 2H68H66.5H8H7C4.79086 2 3 3.79086 3 6V58.8246V59V154ZM8 54.8246C8 57.0337 9.79086 58.8246 12 58.8246H34.75H62.5C64.7091 58.8246 66.5 57.0337 66.5 54.8246V9C66.5 6.79086 64.7091 5 62.5 5H12C9.79086 5 8 6.79086 8 9V54.8246Z" fill="#377CFC"/>
<path id="Vector_41" d="M66 6.375V56.375" stroke="black" stroke-dasharray="2 2"/>
<path id="Vector_42" d="M9.5 2.875H6.5C6.22386 2.875 6 3.09886 6 3.375V6.375C6 6.65114 6.22386 6.875 6.5 6.875H9.5C9.77614 6.875 10 6.65114 10 6.375V3.375C10 3.09886 9.77614 2.875 9.5 2.875Z" fill="white" stroke="black"/>
<path id="Vector_43" d="M67.5 2.875H64.5C64.2239 2.875 64 3.09886 64 3.375V6.375C64 6.65114 64.2239 6.875 64.5 6.875H67.5C67.7761 6.875 68 6.65114 68 6.375V3.375C68 3.09886 67.7761 2.875 67.5 2.875Z" fill="white" stroke="black"/>
<path id="Vector_44" d="M9.5 56.875H6.5C6.22386 56.875 6 57.0989 6 57.375V60.375C6 60.6511 6.22386 60.875 6.5 60.875H9.5C9.77614 60.875 10 60.6511 10 60.375V57.375C10 57.0989 9.77614 56.875 9.5 56.875Z" fill="white" stroke="black"/>
<path id="Vector_45" d="M10.5 58.875H63.5" stroke="black"/>
<path id="Vector_46" d="M8 7.375V56.375" stroke="black"/>
<path id="Vector_47" d="M10.5 4.875H63.5" stroke="black" stroke-dasharray="2 2"/>
<path id="Vector_48" d="M67.5 56.875H64.5C64.2239 56.875 64 57.0989 64 57.375V60.375C64 60.6511 64.2239 60.875 64.5 60.875H67.5C67.7761 60.875 68 60.6511 68 60.375V57.375C68 57.0989 67.7761 56.875 67.5 56.875Z" fill="white" stroke="black"/>
<g id="Clip path group">
<mask id="mask0_1184_369" style="mask-type:luminance" maskUnits="userSpaceOnUse" x="62" y="33" width="15" height="15">
<g id="clip0_4473_9278">
<path id="Vector_49" d="M76.5 47.375V33.375H62.5V47.375H76.5Z" fill="white"/>
</g>
</mask>
<g mask="url(#mask0_1184_369)">
<g id="Group_4">
<path id="Vector_50" d="M68.916 47.3689C69.1534 47.3456 69.3838 47.2545 69.5823 47.1055C69.6959 47.0202 69.7974 46.9174 69.8838 46.8003C70.1143 46.4881 70.2345 46.0856 70.2219 45.6674C70.2219 45.6664 70.2218 45.6652 70.2217 45.6643L70.2163 45.5711C70.1988 45.3428 70.1389 45.1133 70.0429 44.9071C70.0425 44.9062 70.0421 44.9055 70.0416 44.9044C70.0059 44.833 69.9936 44.8103 69.9886 44.8016C69.6397 44.1567 69.4978 43.6793 69.4445 43.357C69.7391 43.498 70.158 43.7674 70.6802 44.2821C70.6872 44.2894 70.7057 44.3074 70.7643 44.3616C70.765 44.3622 70.7657 44.363 70.7665 44.3635C70.9377 44.5131 71.1416 44.6347 71.3579 44.7158L71.4439 44.7462C71.4449 44.7467 71.4459 44.7469 71.4468 44.7472C71.9983 44.9254 72.598 44.8429 73.012 44.5319C73.1507 44.4276 73.2659 44.2998 73.3539 44.152C73.5054 43.8968 73.5658 43.5912 73.5237 43.2911C73.485 43.0145 73.3642 42.7442 73.1745 42.5099C73.0653 42.3751 72.935 42.2548 72.7887 42.1533C72.5776 42.0163 72.4277 41.9511 72.3242 41.9153C71.7609 41.717 71.1378 41.7895 70.713 42.1088C70.6408 42.163 70.5737 42.2245 70.5137 42.2917C70.4801 42.3291 70.4488 42.3684 70.4202 42.409L69.3477 41.9466L68.728 38.4326C68.7261 38.42 68.7243 38.4072 68.7225 38.3944C68.711 38.3151 68.6992 38.2328 68.6675 38.1498C68.5506 37.8425 68.2728 37.6662 68.0604 37.5725C67.9572 37.527 67.8704 37.4974 67.7876 37.4798L67.5751 37.4332C67.5406 37.4257 67.5052 37.4354 67.4791 37.4589C67.4532 37.4826 67.4405 37.5173 67.4448 37.552L67.9252 41.3796L66.5718 40.8177V42.1771L68.1221 42.9114L68.2622 44.0298C68.1315 44.0745 68.0091 44.1395 67.8971 44.2236C67.4916 44.5282 67.2454 45.0696 67.2543 45.6368C67.2647 46.2883 67.5896 46.8807 68.1021 47.1825C68.352 47.3297 68.6409 47.3958 68.916 47.3689ZM71.1251 42.9206C71.155 42.8765 71.1924 42.8373 71.2363 42.8044C71.4221 42.6647 71.6901 42.6553 71.8789 42.6929C72.1421 42.7456 72.3787 42.8911 72.5274 43.0918C72.665 43.2773 72.704 43.4881 72.6315 43.6555C72.6315 43.6557 72.6316 43.6553 72.6315 43.6555C72.6005 43.7272 72.5516 43.7891 72.4867 43.8381C72.3458 43.9438 72.1219 43.991 71.9024 43.9612C71.612 43.9217 71.343 43.7645 71.183 43.5408C71.0699 43.3825 70.987 43.1253 71.1251 42.9206ZM68.7418 46.502C68.6435 46.4917 68.5446 46.4476 68.456 46.3748C68.2622 46.2156 68.1387 45.9453 68.1258 45.6515C68.1153 45.4131 68.1861 45.0969 68.4157 44.9244C68.424 44.9182 68.4324 44.9123 68.4409 44.9066C68.6098 44.7933 68.8331 44.8106 69.0103 44.9504C69.1844 45.0878 69.305 45.3157 69.3412 45.5759L69.3451 45.606C69.372 45.8499 69.3202 46.1819 69.0938 46.3834C69.0834 46.3927 69.0724 46.4015 69.0613 46.41C68.9665 46.4811 68.8531 46.5138 68.7418 46.502Z" fill="black"/>
</g>
</g>
</g>
</g>
</g>
<defs>
<filter id="filter0_dd_1184_369" x="0" y="0" width="138" height="162" filterUnits="userSpaceOnUse" color-interpolation-filters="sRGB">
<feFlood flood-opacity="0" result="BackgroundImageFix"/>
<feColorMatrix in="SourceAlpha" type="matrix" values="0 0 0 0 0 0 0 0 0 0 0 0 0 0 0 0 0 0 127 0" result="hardAlpha"/>
<feOffset dy="1"/>
<feGaussianBlur stdDeviation="1"/>
<feColorMatrix type="matrix" values="0 0 0 0 0.054902 0 0 0 0 0.054902 0 0 0 0 0.054902 0 0 0 0.06 0"/>
<feBlend mode="normal" in2="BackgroundImageFix" result="effect1_dropShadow_1184_369"/>
<feColorMatrix in="SourceAlpha" type="matrix" values="0 0 0 0 0 0 0 0 0 0 0 0 0 0 0 0 0 0 127 0" result="hardAlpha"/>
<feOffset dy="1"/>
<feGaussianBlur stdDeviation="1.5"/>
<feColorMatrix type="matrix" values="0 0 0 0 0.054902 0 0 0 0 0.054902 0 0 0 0 0.054902 0 0 0 0.1 0"/>
<feBlend mode="normal" in2="effect1_dropShadow_1184_369" result="effect2_dropShadow_1184_369"/>
<feBlend mode="normal" in="SourceGraphic" in2="effect2_dropShadow_1184_369" result="shape"/>
</filter>
<clipPath id="clip0_1184_369">
<rect width="138" height="162" fill="white"/>
</clipPath>
</defs>
</svg>
