<svg width="128" height="128" viewBox="0 0 128 128" fill="none" xmlns="http://www.w3.org/2000/svg">
<g id="illustration / deriv / light / ic-cashier-user" clip-path="url(#clip0_408_471)">
<g id="Group">
<path id="Vector" d="M64 114.57C91.9069 114.57 114.53 91.9291 114.53 64.0001C114.53 36.071 91.9069 13.4301 64 13.4301C36.093 13.4301 13.47 36.071 13.47 64.0001C13.47 91.9291 36.093 114.57 64 114.57Z" fill="#BBCCCE"/>
<path id="Vector_2" d="M64.2599 65.4C75.4879 65.4 84.5899 56.2934 84.5899 45.06C84.5899 33.8265 75.4879 24.72 64.2599 24.72C53.032 24.72 43.9299 33.8265 43.9299 45.06C43.9299 56.2934 53.032 65.4 64.2599 65.4Z" fill="#F2F2F2"/>
<path id="Vector_3" d="M47.89 62.24C47.89 62.24 52.3601 69 64.2601 69C76.16 69 80 62.24 80 62.24C80 62.24 98.2101 69.24 98.2101 88.38C98.2101 88.38 88.7801 103.28 64.75 103.28C40.72 103.28 29.8 88.38 29.8 88.38C29.8 88.38 30.47 67.76 47.89 62.24Z" fill="#F2F2F2"/>
<path id="Vector_4" d="M105 128C117.703 128 128 117.703 128 105C128 92.2975 117.703 82 105 82C92.2975 82 82 92.2975 82 105C82 117.703 92.2975 128 105 128Z" fill="#84ABAE"/>
<path id="Vector_5" d="M105.75 118.45C105.602 118.598 105.413 118.7 105.207 118.741C105.001 118.781 104.788 118.76 104.594 118.68C104.4 118.6 104.235 118.464 104.118 118.289C104.002 118.115 103.94 117.91 103.94 117.7V92.3C103.94 92.0189 104.052 91.7492 104.25 91.5505C104.449 91.3517 104.719 91.24 105 91.24C105.281 91.24 105.551 91.3517 105.749 91.5505C105.948 91.7492 106.06 92.0189 106.06 92.3V117.7C106.06 117.981 105.948 118.25 105.75 118.45Z" fill="#E1F4F3"/>
<path id="Vector_6" d="M118.44 105.75C118.24 105.948 117.971 106.06 117.69 106.06H92.31C92.0289 106.06 91.7593 105.948 91.5605 105.75C91.3617 105.551 91.25 105.281 91.25 105C91.25 104.719 91.3617 104.449 91.5605 104.25C91.7593 104.052 92.0289 103.94 92.31 103.94H117.69C117.83 103.939 117.968 103.966 118.097 104.018C118.226 104.071 118.343 104.149 118.442 104.248C118.541 104.347 118.619 104.464 118.671 104.593C118.724 104.722 118.751 104.86 118.75 105C118.748 105.28 118.637 105.55 118.44 105.75Z" fill="#E1F4F3"/>
</g>
</g>
<defs>
<clipPath id="clip0_408_471">
<rect width="128" height="128" fill="white"/>
</clipPath>
</defs>
</svg>
