<svg width="128" height="128" viewBox="0 0 128 128" fill="none" xmlns="http://www.w3.org/2000/svg">
<g id="illustration / deriv / light / general-product-password">
<g id="one password 01">
<path id="Path" d="M109.785 114H18.2146C15.9157 114 14 112.084 14 109.785V18.2146C14 15.9157 15.9157 14 18.2146 14H109.785C112.084 14 114 15.9157 114 18.2146V109.402C114 112.084 112.084 114 109.785 114Z" fill="#BCE4E5"/>
<g id="Group">
<path id="Path_2" opacity="0.5" d="M99.4402 96.3754H28.559C26.2601 96.3754 24.7275 94.4597 24.7275 92.544V79.5172C24.7275 77.2184 26.6432 75.6858 28.559 75.6858H99.057C101.356 75.6858 102.888 77.6015 102.888 79.5172V92.544C103.272 94.4597 101.356 96.3754 99.4402 96.3754Z" fill="white"/>
<g id="Path_3">
<path id="Vector" d="M38.904 86.0307L41.2029 87.1801L40.0535 88.7127L37.7546 87.1801V89.8621H35.8389V87.1801L33.5401 88.7127L32.3906 87.1801L34.6895 86.0307L32.3906 84.8813L33.5401 82.9656L35.8389 84.4982V81.8162H37.7546V84.4982L40.0535 82.9656L41.2029 84.4982L38.904 86.0307Z" fill="white"/>
<path id="Vector_2" d="M52.3139 86.0307L54.6127 87.1801L53.4633 88.7127L51.1644 87.1801V89.8621H49.6319V87.1801L47.333 88.7127L46.1836 87.1801L48.4824 86.0307L46.1836 84.8813L47.333 82.9656L49.6319 84.4982V81.8162H51.5476V84.4982L53.8464 82.9656L54.9959 84.4982L52.3139 86.0307Z" fill="white"/>
<path id="Vector_3" d="M66.1072 86.0306L68.406 87.1801L67.2566 88.7126L64.9577 87.1801V89.8621H63.042V87.1801L60.7432 88.7126L59.5938 87.1801L61.8926 86.0306L59.5938 84.8812L60.7432 83.3486L63.042 84.8812V82.1992H64.9577V84.8812L67.2566 83.3486L68.406 84.8812L66.1072 86.0306Z" fill="white"/>
<path id="Vector_4" d="M79.5173 86.0306L81.8162 87.1801L80.6667 88.7126L78.3679 87.1801V89.8621H76.4522V87.1801L74.1533 88.7126L73.0039 87.1801L75.3028 86.0306L73.0039 84.8812L74.1533 83.3486L76.4522 84.8812V82.1992H78.3679V84.8812L80.6667 83.3486L81.8162 84.8812L79.5173 86.0306Z" fill="white"/>
<path id="Vector_5" d="M93.3103 86.0307L95.6091 87.1801L94.4597 88.7127L92.1609 87.1801V89.8621H90.2451V87.1801L87.9463 88.7127L86.7969 87.1801L89.0957 86.0307L86.7969 84.4982L87.9463 82.9656L90.2451 84.4982V81.8162H92.1609V84.4982L94.4597 82.9656L95.6091 84.4982L93.3103 86.0307Z" fill="white"/>
</g>
</g>
<g id="Group_2">
<path id="Oval" opacity="0.5" d="M64.1919 67.2569C76.4649 67.2569 86.4142 57.3077 86.4142 45.0347C86.4142 32.7617 76.4649 22.8125 64.1919 22.8125C51.919 22.8125 41.9697 32.7617 41.9697 45.0347C41.9697 57.3077 51.919 67.2569 64.1919 67.2569Z" fill="white"/>
<g id="Group_3">
<path id="Shape" d="M72.6206 43.5021H54.9961C53.8467 43.5021 52.6973 44.6515 52.6973 45.8009V56.5289C52.6973 57.6783 53.8467 58.8277 54.9961 58.8277H72.6206C73.7701 58.8277 74.9195 57.6783 74.9195 56.5289V46.1841C75.3026 44.6515 74.1532 43.5021 72.6206 43.5021ZM65.7241 55.3795H62.659L63.4252 51.1649C62.659 50.7818 62.2758 50.0155 62.2758 49.2492C62.2758 48.0998 63.0421 46.9504 64.5747 46.9504C65.7241 46.9504 66.8735 47.7166 66.8735 49.2492C66.8735 50.0155 66.4904 50.7818 65.7241 51.1649V55.3795Z" fill="#72AEB2"/>
<path id="Path_4" d="M58.8271 41.9695L58.4439 40.4369C57.6776 37.3718 59.5933 34.6898 62.6585 33.9235C65.7236 33.1572 68.4056 35.0729 69.1719 38.1381L69.555 39.6706L72.6202 38.9043L72.237 37.3718C71.4707 32.7741 66.873 29.7089 62.2753 30.8584C57.6776 31.6246 54.6125 36.2223 55.7619 40.82L56.1451 42.3526L58.8271 41.9695Z" fill="#72AEB2"/>
</g>
</g>
<path id="Path_5" opacity="0.2" d="M76.4521 103.655H51.5479C50.7816 103.655 50.3984 103.272 50.3984 102.506C50.3984 101.74 50.7816 101.356 51.5479 101.356H76.4521C77.2184 101.356 77.6015 101.74 77.6015 102.506C77.6015 103.272 77.2184 103.655 76.4521 103.655Z" fill="black"/>
</g>
</g>
</svg>
