<svg width="96" height="116" viewBox="0 0 96 116" fill="none" xmlns="http://www.w3.org/2000/svg">
<g id="illustration / deriv / light / payment-method-verification-passed" clip-path="url(#clip0_2253_361)">
<g id="Vector">
<path d="M76.0834 0H4C1.79086 0 0 1.79086 0 4V96.173C0 98.3821 1.79086 100.173 4 100.173H76.0834C78.2925 100.173 80.0834 98.3821 80.0834 96.173V4C80.0834 1.79086 78.2925 0 76.0834 0Z" fill="#C6E3E3"/>
<path d="M21.7226 32.8567C20.5213 34.0588 18.9197 34.76 17.0177 34.9603V37.5648H14.9155V34.9603C13.1136 34.8601 11.4118 34.2591 10.0104 32.9568C8.90924 31.9551 8.0083 30.3524 8.0083 28.5492H11.512C11.512 29.551 12.0125 30.3524 12.6131 30.9534C13.3138 31.5544 14.1147 31.8549 14.9155 31.9551V26.2453C14.415 26.1451 14.0146 26.1451 13.514 26.0449C10.4108 25.5441 8.50882 23.5406 8.50882 20.6356C8.50882 19.133 9.20955 17.8308 10.2106 16.829C11.3117 15.7271 12.9134 14.9258 14.8154 14.7254V12.0208H16.9176V14.9258C18.5193 15.1261 19.9207 15.7271 21.0219 16.7289C22.123 17.8308 22.9238 19.2332 23.0239 20.8359H19.5203C19.5203 20.1347 19.1199 19.3334 18.6194 18.9327C18.2189 18.532 17.6183 18.2315 16.9176 18.0311V23.2401C17.2179 23.3403 17.6183 23.3403 17.9186 23.3403C20.8216 23.8411 23.2242 25.6442 23.2242 28.8498C23.3243 30.6529 22.6235 31.9551 21.7226 32.8567ZM14.9155 17.8308C14.1147 17.9309 13.4139 18.2315 12.8133 18.7323C12.3128 19.133 12.0125 19.8342 12.0125 20.5354C12.0125 21.8377 12.8133 22.4387 14.0146 22.6391C14.3149 22.7392 14.6152 22.7392 14.9155 22.7392V17.8308ZM17.5182 26.7461L17.0177 26.646V31.9551C17.8185 31.8549 18.5193 31.5544 19.0198 31.0536C19.5203 30.5527 19.8206 30.0518 19.8206 29.0501C19.8206 27.5475 18.7195 26.9465 17.5182 26.7461Z" fill="white"/>
<path d="M51.0552 46.0795H10.0083C8.90373 46.0795 8.0083 46.9749 8.0083 48.0795V48.0864C8.0083 49.191 8.90373 50.0864 10.0083 50.0864H51.0552C52.1598 50.0864 53.0552 49.191 53.0552 48.0864V48.0795C53.0552 46.9749 52.1598 46.0795 51.0552 46.0795Z" fill="white"/>
<path d="M70.0752 30.0518H29.0283C27.9237 30.0518 27.0283 30.9472 27.0283 32.0518V32.0587C27.0283 33.1633 27.9237 34.0587 29.0283 34.0587H70.0752C71.1798 34.0587 72.0752 33.1633 72.0752 32.0587V32.0518C72.0752 30.9472 71.1798 30.0518 70.0752 30.0518Z" fill="white"/>
<path d="M70.0752 18.0311H29.0283C27.9237 18.0311 27.0283 18.9265 27.0283 20.0311V20.038C27.0283 21.1426 27.9237 22.038 29.0283 22.038H70.0752C71.1798 22.038 72.0752 21.1426 72.0752 20.038V20.0311C72.0752 18.9265 71.1798 18.0311 70.0752 18.0311Z" fill="white"/>
<path d="M51.0552 58.1002H10.0083C8.90373 58.1002 8.0083 58.9956 8.0083 60.1002V60.1071C8.0083 61.2117 8.90373 62.1071 10.0083 62.1071H51.0552C52.1598 62.1071 53.0552 61.2117 53.0552 60.1071V60.1002C53.0552 58.9956 52.1598 58.1002 51.0552 58.1002Z" fill="white"/>
<path d="M51.0552 70.1208H10.0083C8.90373 70.1208 8.0083 71.0162 8.0083 72.1208V72.1277C8.0083 73.2323 8.90373 74.1277 10.0083 74.1277H51.0552C52.1598 74.1277 53.0552 73.2323 53.0552 72.1277V72.1208C53.0552 71.0162 52.1598 70.1208 51.0552 70.1208Z" fill="white"/>
<path d="M70.0752 46.0795H59.0596C57.955 46.0795 57.0596 46.9749 57.0596 48.0795V48.0864C57.0596 49.191 57.955 50.0864 59.0596 50.0864H70.0752C71.1798 50.0864 72.0752 49.191 72.0752 48.0864V48.0795C72.0752 46.9749 71.1798 46.0795 70.0752 46.0795Z" fill="white"/>
<path d="M70.0752 58.1002H59.0596C57.955 58.1002 57.0596 58.9956 57.0596 60.1002V60.1071C57.0596 61.2117 57.955 62.1071 59.0596 62.1071H70.0752C71.1798 62.1071 72.0752 61.2117 72.0752 60.1071V60.1002C72.0752 58.9956 71.1798 58.1002 70.0752 58.1002Z" fill="white"/>
<path d="M70.0752 70.1208H59.0596C57.955 70.1208 57.0596 71.0162 57.0596 72.1208V72.1277C57.0596 73.2323 57.955 74.1277 59.0596 74.1277H70.0752C71.1798 74.1277 72.0752 73.2323 72.0752 72.1277V72.1208C72.0752 71.0162 71.1798 70.1208 70.0752 70.1208Z" fill="white"/>
<path d="M72.9905 116C85.6985 116 96.0005 105.703 96.0005 93C96.0005 80.2975 85.6985 70 72.9905 70C60.2824 70 49.9805 80.2975 49.9805 93C49.9805 105.703 60.2824 116 72.9905 116Z" fill="#4BB4B3"/>
<path d="M71.3807 100.38C71.1333 100.38 70.8935 100.295 70.7007 100.14L64.6407 95.14C64.191 94.7598 64.1246 94.0913 64.4907 93.63C64.6706 93.4092 64.9311 93.2692 65.2145 93.2411C65.4979 93.2129 65.7809 93.2989 66.0007 93.48L71.2307 97.76L80.6807 86.15C80.9193 85.8455 81.3037 85.6935 81.6861 85.7525C82.0685 85.8116 82.3892 86.0724 82.5249 86.4347C82.6606 86.797 82.5902 87.2043 82.3407 87.5L72.2207 100C72.0388 100.222 71.7761 100.362 71.4907 100.39L71.3807 100.38Z" fill="white"/>
</g>
</g>
<defs>
<clipPath id="clip0_2253_361">
<rect width="96" height="116" fill="white"/>
</clipPath>
</defs>
</svg>
