<svg width="64" height="64" viewBox="0 0 64 64" fill="none" xmlns="http://www.w3.org/2000/svg">
<g id="illustration / deriv / light / driving-license-kyc">
<g id="Vector">
<path d="M49 8.5H15C12.7909 8.5 11 10.2909 11 12.5V51.5C11 53.7091 12.7909 55.5 15 55.5H49C51.2091 55.5 53 53.7091 53 51.5V12.5C53 10.2909 51.2091 8.5 49 8.5Z" fill="#84ABAE"/>
<path d="M22 44H16C15.4477 44 15 44.4477 15 45V51C15 51.5523 15.4477 52 16 52H22C22.5523 52 23 51.5523 23 51V45C23 44.4477 22.5523 44 22 44Z" fill="#F2F2F2"/>
<path d="M47.9153 44H28.0847C27.4857 44 27 44.4857 27 45.0847V45.9153C27 46.5143 27.4857 47 28.0847 47H47.9153C48.5143 47 49 46.5143 49 45.9153V45.0847C49 44.4857 48.5143 44 47.9153 44Z" fill="white"/>
<path d="M47.9153 49H28.0847C27.4857 49 27 49.4857 27 50.0847V50.9153C27 51.5143 27.4857 52 28.0847 52H47.9153C48.5143 52 49 51.5143 49 50.9153V50.0847C49 49.4857 48.5143 49 47.9153 49Z" fill="white"/>
<path fill-rule="evenodd" clip-rule="evenodd" d="M49 15.0098V37.9902C49 39.3763 47.8763 40.5 46.4902 40.5H17.5098C16.1237 40.5 15 39.3763 15 37.9902V15.0098C15 13.6237 16.1237 12.5 17.5098 12.5H46.4902C47.8763 12.5 49 13.6237 49 15.0098Z" fill="white"/>
<path fill-rule="evenodd" clip-rule="evenodd" d="M42.5115 23.7416C42.4953 23.723 42.4816 23.7048 42.4625 23.6867L41.6216 22.8751C42.319 22.7169 43.0699 22.1326 43.0699 21.5331C43.0699 20.8346 42.1006 20.5868 41.2733 20.5868C40.4083 20.5868 40.3079 21.1795 40.2976 21.5982L38.1278 19.5063C37.687 19.0699 36.8509 18.7266 36.226 18.7266H27.7721C27.1476 18.7266 26.312 19.0699 25.8707 19.5063L23.7014 21.5982C23.6901 21.1795 23.5897 20.5868 22.7257 20.5868C21.8975 20.5868 20.9287 20.8346 20.9287 21.5331C20.9287 22.1326 21.68 22.7169 22.3775 22.8751L21.5365 23.6867C21.5174 23.7048 21.5042 23.723 21.4875 23.7416C20.5878 24.5106 20 25.9368 20 26.9718V30.0472C20 30.7937 20.2944 31.4711 20.77 31.976V33.1687C20.77 33.8662 21.3538 34.4348 22.0718 34.4348H23.646C24.3641 34.4348 24.9474 33.8671 24.9474 33.1687V32.8635H39.0511V33.1687C39.0511 33.8671 39.634 34.4348 40.353 34.4348H41.9267C42.6452 34.4348 43.2281 33.8662 43.2281 33.1687V31.976C43.7042 31.4711 43.998 30.7937 43.998 30.0472V26.9718C43.999 25.9368 43.4113 24.5106 42.5115 23.7416ZM26.6676 20.436C26.9727 20.1817 27.5061 19.9888 27.7721 19.9888H36.2269C36.4929 19.9888 37.0263 20.1817 37.3314 20.436L40.1767 23.1935H23.8229L26.6676 20.436ZM20.9762 26.5065C20.9762 25.7493 21.5688 25.1346 22.3006 25.1346C23.0318 25.1346 25.4216 26.5373 25.4216 27.2946C25.4216 28.0518 23.0318 27.8764 22.3006 27.8764C21.5688 27.8764 20.9762 27.2642 20.9762 26.5065ZM24.4434 31.5151L22.9471 31.5176C22.5318 31.3883 22.2389 31.2374 22.0317 31.0753C21.9269 30.9935 21.8465 30.9083 21.7838 30.8235C21.7207 30.7378 21.6746 30.6536 21.6447 30.5693C21.4586 30.0433 21.8431 29.5599 21.8431 29.5599H24.3969L26.0994 31.5142L24.4434 31.5151ZM35.6715 31.5161H28.3275C27.562 31.5161 26.9404 30.8946 26.9404 30.1295H37.0586C37.0586 30.8955 36.4371 31.5161 35.6715 31.5161ZM35.9938 29.1832H28.0052C27.1726 29.1832 26.4967 28.1566 26.4967 26.8905H37.5024C37.5024 28.1571 36.8265 29.1832 35.9938 29.1832ZM42.3548 30.5703C42.3244 30.6546 42.2784 30.7388 42.2152 30.824C42.153 30.9088 42.0727 30.994 41.9673 31.0758C41.7607 31.2379 41.4673 31.3897 41.0519 31.5181L39.5556 31.5156H37.8986L39.6021 29.5613H42.1554C42.1554 29.5613 42.5404 30.0433 42.3548 30.5703ZM41.6984 27.8764C40.9677 27.8764 38.578 28.0508 38.578 27.2946C38.578 26.5383 40.9677 25.1346 41.6984 25.1346C42.4302 25.1346 43.0229 25.7493 43.0229 26.5065C43.0229 27.2632 42.4302 27.8764 41.6984 27.8764Z" fill="#84ABAE"/>
</g>
</g>
</svg>
