<svg width="128" height="128" viewBox="0 0 128 128" fill="none" xmlns="http://www.w3.org/2000/svg">
<g id="illustration / deriv / light / ic-email-sent-expired" clip-path="url(#clip0_408_472)">
<g id="Clip path group">
<mask id="mask0_408_472" style="mask-type:luminance" maskUnits="userSpaceOnUse" x="0" y="0" width="128" height="128">
<g id="a">
<path id="Vector" d="M0 0H128V128H0V0Z" fill="white"/>
</g>
</mask>
<g mask="url(#mask0_408_472)">
<g id="Group">
<path id="Vector_2" d="M13 44.6261V58.7131L50.62 90.3031L57.185 84.7211L63.75 79.1381L70.21 84.9691L76.67 90.8001L115 58.0481V45.0631C115 44.7249 114.914 44.3923 114.75 44.0968C114.585 43.8014 114.348 43.5529 114.06 43.3751L66.11 13.6021C65.4744 13.2094 64.7421 13.0015 63.995 13.0015C63.2479 13.0015 62.5156 13.2094 61.88 13.6021L14 42.9291C13.388 43.2791 13.008 43.9241 13 44.6261Z" fill="#BBCCCE"/>
<path id="Vector_3" d="M21 30.248V89.652H107V30.248C106.999 29.7235 106.895 29.2042 106.694 28.7199C106.493 28.2355 106.198 27.7956 105.826 27.4253C105.455 27.0549 105.014 26.7614 104.529 26.5615C104.044 26.3615 103.525 26.2591 103 26.26H25C22.79 26.26 21 28.044 21 30.248Z" fill="#E1F4F3"/>
<path id="Vector_4" d="M74.043 70.26H64.399C52.791 70.26 46 62.97 46 52.39C46 41.81 53.062 34.26 64.4 34.26C74.96 34.26 82 40.604 82 50.473C82.029 57.381 78.678 61.49 73.449 61.49C70.149 61.49 67.897 59.84 67.714 57.416H67.487C67.056 59.853 64.772 61.579 62.207 61.406C58.167 61.406 55.137 58.326 55.137 52.426C55.137 46.526 58.167 43.445 62.207 43.445C64.414 43.366 66.381 44.773 66.937 46.828H67.164V43.804H72.297V55.47C72.297 56.88 73.031 57.642 74.314 57.642C76.382 57.642 77.804 55.527 77.804 51.135V49.915C77.804 42.5 72.246 38.038 64.444 38.038C55.819 38.038 50.312 43.678 50.312 51.565V53.215C50.268 61.11 55.775 66.425 64.4 66.425H74.043V70.26ZM67.157 54.75V49.703C67.157 48.357 65.69 47.356 64.084 47.356C63.6019 47.3343 63.1204 47.4109 62.6688 47.5811C62.2172 47.7513 61.8049 48.0115 61.457 48.346C61.1177 48.6718 60.8525 49.0669 60.6795 49.5043C60.5064 49.9417 60.4295 50.4112 60.454 50.881V53.827C60.4283 54.2969 60.5043 54.7669 60.6769 55.2047C60.8495 55.6426 61.1146 56.038 61.454 56.364C61.8022 56.6988 62.215 56.9591 62.6672 57.129C63.1194 57.2989 63.6015 57.3748 64.084 57.352C65.639 57.422 67.157 56.033 67.157 54.729V54.75Z" fill="#84ABAE"/>
<path id="Vector_5" d="M13 49.197V111.012C13.0008 111.537 13.1049 112.056 13.3063 112.54C13.5078 113.024 13.8026 113.464 14.1741 113.834C14.5455 114.205 14.9862 114.498 15.4711 114.698C15.956 114.898 16.4755 115.001 17 115H110.969C113.178 115 114.969 113.214 114.969 111.012V49.197L76.782 82.002L66.6 72.926C65.8815 72.2535 64.9341 71.8793 63.95 71.8793C62.9659 71.8793 62.0185 72.2535 61.3 72.926L51.178 81.968L13 49.197Z" fill="#84ABAE"/>
<path id="Vector_6" fill-rule="evenodd" clip-rule="evenodd" d="M114.479 112.925L67.937 71.435L67.93 71.439C66.8443 70.4385 65.4216 69.8837 63.9452 69.885C62.4688 69.8863 61.047 70.4436 59.963 71.446L13.509 112.96C13.8573 113.579 14.3642 114.095 14.9778 114.454C15.5914 114.812 16.2894 115.001 17 115H17.2L62.676 74.399L62.684 74.391C63.033 74.0651 63.4926 73.8838 63.97 73.8838C64.4475 73.8838 64.9071 74.0651 65.256 74.391L65.265 74.399L110.8 115H110.969C111.686 115.001 112.391 114.808 113.008 114.443C113.626 114.078 114.134 113.554 114.479 112.925Z" fill="#E1F4F3"/>
<g id="Vector_7" style="mix-blend-mode:multiply">
<path fill-rule="evenodd" clip-rule="evenodd" d="M82.001 23C82.001 31.217 86.384 38.81 93.501 42.92C96.9976 44.9388 100.964 46.0015 105.001 46.0015C109.039 46.0015 113.005 44.9387 116.502 42.9199C119.999 40.9012 122.902 37.9976 124.921 34.501C126.94 31.0044 128.002 27.038 128.002 23.0005C128.002 18.963 126.94 14.9966 124.921 11.5C122.902 8.00344 119.999 5.09985 116.502 3.08109C113.005 1.06232 109.039 -0.000475198 105.001 -0.000488281C100.964 -0.000501364 96.9976 1.06227 93.501 3.08101C90.0044 5.09975 87.1009 8.00326 85.082 11.4998C83.0632 14.9963 82.0012 18.9625 82.001 23Z" fill="#FF444F"/>
</g>
<path id="Vector_8" fill-rule="evenodd" clip-rule="evenodd" d="M105.114 24.8301H105.116C105.508 24.8021 105.875 24.625 106.141 24.3351C106.456 23.9941 106.523 23.5521 106.55 23.3781L106.555 23.3461L107.447 17.8041C107.483 17.5851 107.5 17.3641 107.5 17.1421V14.2301C107.5 13.5231 107.332 12.4031 106.344 11.8521C105.932 11.62 105.467 11.4983 104.994 11.499C104.522 11.4997 104.057 11.6227 103.646 11.8561C102.666 12.4081 102.5 13.5211 102.5 14.2221V17.1361C102.5 17.3631 102.519 17.5891 102.556 17.8121L103.465 23.3471L103.47 23.3791C103.498 23.5541 103.567 23.9991 103.887 24.3401C104.191 24.6661 104.636 24.8621 105.114 24.8301ZM102.5 31.7731V32.2271C102.5 32.8001 102.675 33.4011 103.148 33.8541C103.618 34.3041 104.268 34.5001 105 34.5001C105.732 34.5001 106.382 34.3041 106.852 33.8541C107.326 33.4001 107.5 32.8001 107.5 32.2271V31.7731C107.5 31.2001 107.326 30.5991 106.852 30.1451C106.382 29.6951 105.731 29.5001 105 29.5001C104.269 29.5001 103.618 29.6951 103.148 30.1461C102.675 30.5991 102.5 31.2001 102.5 31.7731Z" fill="white"/>
</g>
</g>
</g>
</g>
<defs>
<clipPath id="clip0_408_472">
<rect width="128" height="128" fill="white"/>
</clipPath>
</defs>
</svg>
