<svg width="48" height="48" viewBox="0 0 48 48" fill="none" xmlns="http://www.w3.org/2000/svg">
<g id="illustration / deriv / light / bot-builder">
<g id="Vector">
<path d="M13.6347 42.6667H20.2483C19.6365 43.2562 19.3 44.024 19.3 44.8329C19.3153 46.5878 20.8906 48 22.8483 48C23.7354 48 24.5919 47.6984 25.2496 47.15C26.6872 45.9572 26.7637 43.9554 25.4331 42.6667H31.8535C32.7426 42.6667 33.4634 41.9503 33.4634 41.0667L33.4698 36.4407C34.096 37.0166 34.9116 37.3333 35.7709 37.3333C37.635 37.3189 39.1351 35.8359 39.1351 33.993C39.1351 33.1579 38.8147 32.3516 38.2322 31.7325C36.9651 30.3791 34.8388 30.3071 33.4698 31.5597L33.4634 24L25.4331 24.0003C26.7637 25.289 26.6872 27.2907 25.2495 28.4836C24.5919 29.032 23.7354 29.3336 22.8483 29.3336C20.8906 29.3336 19.3153 27.9214 19.3 26.1665C19.3 25.3576 19.6365 24.5898 20.2483 24.0003L13.6347 24V42.6667Z" fill="#064E72"/>
<path fill-rule="evenodd" clip-rule="evenodd" d="M20.2793 5.33333C18.9487 4.04456 19.0252 2.04284 20.4629 0.850043C21.1205 0.301628 21.977 0 22.8641 0C24.8218 0 26.3971 1.41217 26.4124 3.16709C26.4124 3.97601 26.0759 4.74379 25.4642 5.33333H33.4941V12.8924C32.8679 12.3167 32.0524 12 31.1933 12C29.3291 12.0144 27.829 13.4974 27.829 15.3404C27.829 16.1754 28.1494 16.9817 28.732 17.6009C29.999 18.9542 32.1251 19.0263 33.4941 17.7739V24H25.4638C26.7944 25.2888 26.7179 27.2905 25.2802 28.4833C24.6226 29.0317 23.7661 29.3333 22.879 29.3333C20.9213 29.3333 19.346 27.9212 19.3307 26.1662C19.3307 25.3573 19.6672 24.5895 20.279 24H13.6654L13.6654 17.7736C12.2964 19.0263 10.17 18.9543 8.90296 17.6009C8.32041 16.9817 8 16.1754 8 15.3404C8 13.4974 9.50008 12.0144 11.3643 12C12.2235 12 13.0391 12.3168 13.6654 12.8927L13.6654 6.93333C13.6654 6.04968 14.3861 5.33333 15.2753 5.33333L20.2793 5.33333Z" fill="#A8D0C8"/>
</g>
</g>
</svg>
