<svg width="227" height="165" viewBox="0 0 227 165" fill="none" xmlns="http://www.w3.org/2000/svg">
<g id="illustration / deriv / light / ic-old-issued-document-more-than-6">
<g id="mock statement" filter="url(#filter0_dd_2551_155)">
<g clip-path="url(#clip0_2551_155)">
<rect x="3" y="3" width="128" height="158" rx="4" fill="white"/>
<g id="statement">
<mask id="path-3-inside-1_2551_155" fill="white">
<path d="M-111.61 16.3894H117.684V38.1473H-111.61V16.3894Z"/>
</mask>
<path d="M-111.61 18.0631H117.684V14.7157H-111.61V18.0631ZM117.684 36.4736H-111.61V39.821H117.684V36.4736Z" fill="#4BB4B3" mask="url(#path-3-inside-1_2551_155)"/>
</g>
<g id="table" opacity="0.16">
<g id="items">
<mask id="path-5-inside-2_2551_155" fill="white">
<path d="M-111.61 128.526H117.684V141.916H-111.61V128.526Z"/>
</mask>
<path d="M-111.61 129.363H117.684V127.69H-111.61V129.363ZM117.684 141.079H-111.61V142.753H117.684V141.079Z" fill="#D6D6D6" mask="url(#path-5-inside-2_2551_155)"/>
<rect id="Rectangle 3" x="-17.8838" y="131.874" width="43.5158" height="6.69474" fill="#377CFC"/>
<rect id="Rectangle 4" x="59.1055" y="131.874" width="58.5789" height="6.69474" fill="#377CFC"/>
</g>
<g id="Frame 5">
<rect id="Rectangle 3_2" x="-17.8838" y="148.611" width="43.5158" height="6.69474" fill="#377CFC"/>
<rect id="Rectangle 4_2" x="59.1055" y="148.611" width="58.5789" height="6.69474" fill="#377CFC"/>
</g>
</g>
<g id="date">
<path id="Issue date :" d="M71.2397 73.9263V72.9137H71.9929V69.0977H71.2397V68.0851H74.018V69.0977H73.2649V72.9137H74.018V73.9263H71.2397ZM76.4596 74.0267C76.0356 74.0267 75.6785 73.9597 75.3884 73.8258C75.0983 73.6864 74.8389 73.4911 74.6102 73.2401L75.3382 72.5036C75.4944 72.6766 75.6674 72.8133 75.8571 72.9137C76.0467 73.0141 76.2615 73.0643 76.5014 73.0643C76.7469 73.0643 76.9171 73.0281 77.0119 72.9555C77.1067 72.8774 77.1542 72.7742 77.1542 72.6459C77.1542 72.4395 77.0063 72.3167 76.7106 72.2777L76.2336 72.2191C75.2462 72.0964 74.7524 71.6445 74.7524 70.8634C74.7524 70.6514 74.7915 70.459 74.8696 70.286C74.9533 70.1075 75.0676 69.9568 75.2127 69.8341C75.3633 69.7058 75.5418 69.6082 75.7483 69.5412C75.9603 69.4687 76.1974 69.4324 76.4596 69.4324C76.6883 69.4324 76.8892 69.4492 77.0621 69.4826C77.2406 69.5105 77.3968 69.5552 77.5307 69.6165C77.6702 69.6723 77.7957 69.7448 77.9073 69.8341C78.0245 69.9178 78.1388 70.0126 78.2504 70.1186L77.5391 70.8467C77.3996 70.7072 77.2406 70.5984 77.0621 70.5203C76.8892 70.4366 76.7106 70.3948 76.5265 70.3948C76.3145 70.3948 76.1639 70.4283 76.0746 70.4952C75.9854 70.5622 75.9407 70.6514 75.9407 70.763C75.9407 70.8802 75.9714 70.9722 76.0328 71.0392C76.0997 71.1005 76.2225 71.1452 76.401 71.1731L76.8947 71.24C77.8599 71.3683 78.3425 71.8091 78.3425 72.5622C78.3425 72.7742 78.2978 72.9695 78.2086 73.148C78.1193 73.3265 77.991 73.4827 77.8236 73.6166C77.6618 73.745 77.4638 73.8454 77.2295 73.9179C77.0007 73.9904 76.7441 74.0267 76.4596 74.0267ZM80.6193 74.0267C80.1953 74.0267 79.8382 73.9597 79.5481 73.8258C79.258 73.6864 78.9986 73.4911 78.7699 73.2401L79.4979 72.5036C79.6541 72.6766 79.8271 72.8133 80.0167 72.9137C80.2064 73.0141 80.4212 73.0643 80.6611 73.0643C80.9066 73.0643 81.0767 73.0281 81.1716 72.9555C81.2664 72.8774 81.3139 72.7742 81.3139 72.6459C81.3139 72.4395 81.166 72.3167 80.8703 72.2777L80.3933 72.2191C79.4059 72.0964 78.9121 71.6445 78.9121 70.8634C78.9121 70.6514 78.9512 70.459 79.0293 70.286C79.113 70.1075 79.2273 69.9568 79.3724 69.8341C79.523 69.7058 79.7015 69.6082 79.908 69.5412C80.12 69.4687 80.3571 69.4324 80.6193 69.4324C80.848 69.4324 81.0489 69.4492 81.2218 69.4826C81.4003 69.5105 81.5565 69.5552 81.6904 69.6165C81.8299 69.6723 81.9554 69.7448 82.067 69.8341C82.1842 69.9178 82.2985 70.0126 82.4101 70.1186L81.6988 70.8467C81.5593 70.7072 81.4003 70.5984 81.2218 70.5203C81.0489 70.4366 80.8703 70.3948 80.6862 70.3948C80.4742 70.3948 80.3236 70.4283 80.2343 70.4952C80.1451 70.5622 80.1004 70.6514 80.1004 70.763C80.1004 70.8802 80.1311 70.9722 80.1925 71.0392C80.2594 71.1005 80.3822 71.1452 80.5607 71.1731L81.0544 71.24C82.0196 71.3683 82.5022 71.8091 82.5022 72.5622C82.5022 72.7742 82.4575 72.9695 82.3683 73.148C82.279 73.3265 82.1507 73.4827 81.9833 73.6166C81.8215 73.745 81.6235 73.8454 81.3892 73.9179C81.1604 73.9904 80.9038 74.0267 80.6193 74.0267ZM85.9408 73.1898H85.899C85.8599 73.3014 85.8069 73.4074 85.74 73.5078C85.6786 73.6083 85.5977 73.6975 85.4973 73.7756C85.3969 73.8537 85.2769 73.9151 85.1374 73.9597C85.0035 74.0044 84.8473 74.0267 84.6688 74.0267C84.2169 74.0267 83.8738 73.8788 83.6395 73.5832C83.4108 73.2819 83.2964 72.8523 83.2964 72.2944V69.5328H84.5349V72.1856C84.5349 72.4534 84.5823 72.6598 84.6772 72.8049C84.772 72.95 84.9338 73.0225 85.1625 73.0225C85.2574 73.0225 85.3522 73.0085 85.4471 72.9806C85.5419 72.9527 85.6256 72.9137 85.6981 72.8635C85.7706 72.8077 85.8292 72.7407 85.8739 72.6626C85.9185 72.5845 85.9408 72.4925 85.9408 72.3865V69.5328H87.1793V73.9263H85.9408V73.1898ZM90.1644 74.0267C89.8296 74.0267 89.5312 73.9737 89.269 73.8677C89.0067 73.7561 88.7836 73.6027 88.5995 73.4074C88.421 73.2066 88.2843 72.9639 88.1894 72.6794C88.1002 72.3948 88.0555 72.0768 88.0555 71.7254C88.0555 71.3795 88.1002 71.0671 88.1894 70.7881C88.2787 70.5036 88.4098 70.2609 88.5827 70.0601C88.7613 69.8592 88.9788 69.7058 89.2355 69.5998C89.4921 69.4882 89.785 69.4324 90.1142 69.4324C90.4768 69.4324 90.7864 69.4938 91.0431 69.6165C91.3053 69.7393 91.5173 69.9038 91.6791 70.1103C91.8464 70.3167 91.9664 70.5566 92.0389 70.83C92.117 71.0977 92.1561 71.3795 92.1561 71.6752V72.0434H89.3359V72.1103C89.3359 72.4004 89.414 72.632 89.5702 72.8049C89.7264 72.9723 89.9719 73.056 90.3066 73.056C90.5633 73.056 90.7725 73.0057 90.9343 72.9053C91.0961 72.7993 91.2467 72.6738 91.3862 72.5287L92.0054 73.2986C91.8102 73.5274 91.5535 73.7059 91.2355 73.8342C90.9231 73.9625 90.5661 74.0267 90.1644 74.0267ZM90.1393 70.3446C89.8882 70.3446 89.6902 70.4283 89.5451 70.5956C89.4056 70.7574 89.3359 70.975 89.3359 71.2484V71.3153H90.8757V71.24C90.8757 70.9722 90.8143 70.7574 90.6916 70.5956C90.5744 70.4283 90.3903 70.3446 90.1393 70.3446ZM97.7031 73.1898H97.6612C97.6278 73.307 97.5748 73.4186 97.5022 73.5246C97.4297 73.625 97.3404 73.7143 97.2344 73.7924C97.134 73.8649 97.0169 73.9207 96.883 73.9597C96.7547 74.0044 96.6208 74.0267 96.4813 74.0267C95.9234 74.0267 95.5022 73.8314 95.2177 73.4409C94.9331 73.0448 94.7909 72.473 94.7909 71.7254C94.7909 70.9778 94.9331 70.4087 95.2177 70.0182C95.5022 69.6277 95.9234 69.4324 96.4813 69.4324C96.7658 69.4324 97.0169 69.5105 97.2344 69.6667C97.4576 69.823 97.5999 70.0238 97.6612 70.2693H97.7031V67.7336H98.9416V73.9263H97.7031V73.1898ZM96.8913 73.0225C97.1257 73.0225 97.3181 72.9667 97.4688 72.8551C97.625 72.738 97.7031 72.579 97.7031 72.3781V71.081C97.7031 70.8802 97.625 70.724 97.4688 70.6124C97.3181 70.4952 97.1257 70.4366 96.8913 70.4366C96.657 70.4366 96.4618 70.5203 96.3056 70.6877C96.1549 70.8495 96.0796 71.0698 96.0796 71.3488V72.1103C96.0796 72.3893 96.1549 72.6124 96.3056 72.7798C96.4618 72.9416 96.657 73.0225 96.8913 73.0225ZM103.347 73.9263C103.124 73.9263 102.937 73.8565 102.786 73.7171C102.641 73.5776 102.549 73.3907 102.51 73.1564H102.46C102.393 73.4409 102.245 73.6585 102.016 73.8091C101.787 73.9542 101.506 74.0267 101.171 74.0267C100.73 74.0267 100.393 73.9095 100.158 73.6752C99.924 73.4409 99.8069 73.1313 99.8069 72.7463C99.8069 72.2833 99.9743 71.9402 100.309 71.717C100.649 71.4883 101.11 71.3739 101.69 71.3739H102.384V71.0977C102.384 70.8857 102.329 70.7184 102.217 70.5956C102.105 70.4673 101.919 70.4032 101.656 70.4032C101.411 70.4032 101.216 70.4562 101.071 70.5622C100.925 70.6682 100.806 70.7881 100.711 70.922L99.9743 70.2693C100.153 70.0071 100.376 69.8034 100.644 69.6584C100.917 69.5077 101.285 69.4324 101.748 69.4324C102.373 69.4324 102.842 69.5691 103.154 69.8425C103.467 70.1158 103.623 70.5147 103.623 71.0392V72.9639H104.033V73.9263H103.347ZM101.631 73.1647C101.838 73.1647 102.013 73.1201 102.158 73.0308C102.309 72.9416 102.384 72.7965 102.384 72.5957V72.0768H101.782C101.296 72.0768 101.054 72.2414 101.054 72.5706V72.6961C101.054 72.8579 101.104 72.9778 101.204 73.056C101.305 73.1285 101.447 73.1647 101.631 73.1647ZM106.355 73.9263C105.925 73.9263 105.599 73.8175 105.376 73.5999C105.158 73.3823 105.05 73.0643 105.05 72.6459V70.4952H104.43V69.5328H104.74C104.907 69.5328 105.022 69.4938 105.083 69.4157C105.144 69.332 105.175 69.2148 105.175 69.0642V68.3445H106.288V69.5328H107.158V70.4952H106.288V72.9639H107.091V73.9263H106.355ZM109.819 74.0267C109.484 74.0267 109.186 73.9737 108.923 73.8677C108.661 73.7561 108.438 73.6027 108.254 73.4074C108.075 73.2066 107.939 72.9639 107.844 72.6794C107.755 72.3948 107.71 72.0768 107.71 71.7254C107.71 71.3795 107.755 71.0671 107.844 70.7881C107.933 70.5036 108.064 70.2609 108.237 70.0601C108.416 69.8592 108.633 69.7058 108.89 69.5998C109.146 69.4882 109.439 69.4324 109.769 69.4324C110.131 69.4324 110.441 69.4938 110.697 69.6165C110.96 69.7393 111.172 69.9038 111.333 70.1103C111.501 70.3167 111.621 70.5566 111.693 70.83C111.771 71.0977 111.81 71.3795 111.81 71.6752V72.0434H108.99V72.1103C108.99 72.4004 109.068 72.632 109.225 72.8049C109.381 72.9723 109.626 73.056 109.961 73.056C110.218 73.056 110.427 73.0057 110.589 72.9053C110.75 72.7993 110.901 72.6738 111.041 72.5287L111.66 73.2986C111.465 73.5274 111.208 73.7059 110.89 73.8342C110.577 73.9625 110.22 74.0267 109.819 74.0267ZM109.794 70.3446C109.543 70.3446 109.345 70.4283 109.199 70.5956C109.06 70.7574 108.99 70.975 108.99 71.2484V71.3153H110.53V71.24C110.53 70.9722 110.469 70.7574 110.346 70.5956C110.229 70.4283 110.045 70.3446 109.794 70.3446ZM115.466 74.0183C115.215 74.0183 115.028 73.957 114.905 73.8342C114.788 73.7059 114.73 73.5441 114.73 73.3488V73.1815C114.73 72.9862 114.788 72.8272 114.905 72.7045C115.028 72.5762 115.215 72.512 115.466 72.512C115.717 72.512 115.901 72.5762 116.018 72.7045C116.141 72.8272 116.203 72.9862 116.203 73.1815V73.3488C116.203 73.5441 116.141 73.7059 116.018 73.8342C115.901 73.957 115.717 74.0183 115.466 74.0183ZM115.466 70.9471C115.215 70.9471 115.028 70.8857 114.905 70.763C114.788 70.6347 114.73 70.4729 114.73 70.2776V70.1103C114.73 69.915 114.788 69.756 114.905 69.6333C115.028 69.505 115.215 69.4408 115.466 69.4408C115.717 69.4408 115.901 69.505 116.018 69.6333C116.141 69.756 116.203 69.915 116.203 70.1103V70.2776C116.203 70.4729 116.141 70.6347 116.018 70.763C115.901 70.8857 115.717 70.9471 115.466 70.9471Z" fill="#3F6FE5"/>
<path id="May 3, 1997" d="M76.152 82.6792H76.1101L75.6164 83.6583L74.2189 86.2023L72.8213 83.6583L72.3276 82.6792H72.2858V87.5999H71.5996V81.7587H72.5368L74.2105 84.9052H74.2523L75.9344 81.7587H76.8382V87.5999H76.152V82.6792ZM81.4619 87.5999C81.2109 87.5999 81.0296 87.5329 80.918 87.399C80.812 87.2651 80.745 87.0977 80.7171 86.8969H80.6753C80.5805 87.1647 80.4242 87.3655 80.2067 87.4994C79.9891 87.6333 79.7297 87.7003 79.4284 87.7003C78.9709 87.7003 78.6139 87.5831 78.3572 87.3488C78.1062 87.1145 77.9807 86.7965 77.9807 86.3948C77.9807 85.9875 78.1285 85.6751 78.4242 85.4575C78.7255 85.24 79.1913 85.1312 79.8217 85.1312H80.6753V84.7044C80.6753 84.3975 80.5916 84.1632 80.4242 84.0014C80.2569 83.8396 80.0002 83.7587 79.6544 83.7587C79.3921 83.7587 79.1718 83.8173 78.9932 83.9345C78.8203 84.0516 78.6752 84.2079 78.5581 84.4031L78.1564 84.0265C78.2736 83.7922 78.4605 83.5942 78.7171 83.4324C78.9737 83.265 79.2973 83.1813 79.6878 83.1813C80.2122 83.1813 80.6195 83.3096 80.9096 83.5663C81.1997 83.8229 81.3448 84.18 81.3448 84.6374V87.0141H81.8385V87.5999H81.4619ZM79.5372 87.1312C79.7046 87.1312 79.858 87.1117 79.9975 87.0726C80.1369 87.0336 80.2569 86.9778 80.3573 86.9053C80.4577 86.8327 80.5358 86.7491 80.5916 86.6542C80.6474 86.5594 80.6753 86.4562 80.6753 86.3446V85.6333H79.7882C79.4033 85.6333 79.1216 85.6891 78.943 85.8006C78.7701 85.9122 78.6836 86.074 78.6836 86.286V86.4617C78.6836 86.6737 78.7589 86.8383 78.9096 86.9555C79.0658 87.0726 79.275 87.1312 79.5372 87.1312ZM85.4143 83.2817H86.0754L84.1423 88.6041C84.0921 88.7324 84.0419 88.8384 83.9917 88.9221C83.9415 89.0113 83.8801 89.0811 83.8076 89.1313C83.735 89.1815 83.643 89.2177 83.5314 89.2401C83.4254 89.2624 83.2943 89.2735 83.1381 89.2735H82.795V88.6877H83.4728L83.7992 87.7672L82.1841 83.2817H82.8536L83.8913 86.2191L84.0921 86.922H84.1339L84.3683 86.2191L85.4143 83.2817ZM90.3797 84.2357C90.7758 84.2357 91.0715 84.1465 91.2668 83.968C91.4676 83.7839 91.568 83.5495 91.568 83.265V83.2064C91.568 82.8996 91.4704 82.6709 91.2751 82.5202C91.0855 82.364 90.8344 82.2859 90.522 82.2859C90.2207 82.2859 89.9753 82.3529 89.7856 82.4867C89.5959 82.6151 89.4397 82.7908 89.3169 83.014L88.7981 82.6123C88.8706 82.4951 88.9571 82.3807 89.0575 82.2692C89.1635 82.152 89.2863 82.0488 89.4257 81.9595C89.5652 81.8703 89.727 81.7977 89.9111 81.742C90.0952 81.6862 90.3044 81.6583 90.5387 81.6583C90.7842 81.6583 91.0157 81.6917 91.2333 81.7587C91.4509 81.8201 91.6378 81.9149 91.794 82.0432C91.9558 82.166 92.0813 82.3194 92.1706 82.5035C92.2654 82.6876 92.3128 82.8968 92.3128 83.1311C92.3128 83.3208 92.2821 83.491 92.2208 83.6416C92.165 83.7922 92.0869 83.9233 91.9865 84.0349C91.886 84.1465 91.7661 84.2413 91.6266 84.3194C91.4927 84.3975 91.3477 84.4561 91.1915 84.4952V84.5286C91.3477 84.5621 91.4983 84.6179 91.6434 84.696C91.794 84.7685 91.9251 84.8662 92.0367 84.9889C92.1538 85.1061 92.2459 85.2511 92.3128 85.4241C92.3854 85.5914 92.4216 85.7839 92.4216 86.0015C92.4216 86.2525 92.3742 86.4841 92.2794 86.6961C92.1845 86.9025 92.0506 87.081 91.8777 87.2316C91.7047 87.3767 91.4955 87.4911 91.25 87.5747C91.0046 87.6584 90.734 87.7003 90.4383 87.7003C90.1873 87.7003 89.9641 87.6724 89.7688 87.6166C89.5736 87.5608 89.4006 87.4855 89.25 87.3906C89.0994 87.2958 88.9655 87.1898 88.8483 87.0726C88.7367 86.9555 88.6363 86.8327 88.547 86.7044L89.0743 86.3027C89.1468 86.4199 89.2249 86.5259 89.3086 86.6207C89.3978 86.7156 89.4955 86.7965 89.6015 86.8634C89.7075 86.9304 89.8274 86.9834 89.9613 87.0224C90.0952 87.0559 90.2514 87.0726 90.4299 87.0726C90.8428 87.0726 91.1552 86.9806 91.3672 86.7965C91.5792 86.6068 91.6852 86.339 91.6852 85.9931V85.9262C91.6852 85.5803 91.5792 85.3153 91.3672 85.1312C91.1552 84.9415 90.8428 84.8466 90.4299 84.8466H89.7437V84.2357H90.3797ZM94.3515 86.6207C94.53 86.6207 94.6583 86.6682 94.7364 86.763C94.8201 86.8523 94.8619 86.9694 94.8619 87.1145V87.2316C94.8619 87.4604 94.795 87.7114 94.6611 87.9848C94.5272 88.2637 94.3403 88.5064 94.1004 88.7129H93.5397C93.7071 88.5343 93.841 88.3642 93.9414 88.2024C94.0474 88.0462 94.1227 87.8704 94.1674 87.6752C94.0558 87.6473 93.9721 87.5943 93.9163 87.5162C93.8661 87.4381 93.841 87.3432 93.841 87.2316V87.1145C93.841 86.9694 93.88 86.8523 93.9581 86.763C94.0418 86.6682 94.1729 86.6207 94.3515 86.6207ZM98.2075 87.5999V86.9806H99.8394V82.2775H99.7808L98.308 83.65L97.8979 83.2064L99.4461 81.7587H100.542V86.9806H102.049V87.5999H98.2075ZM106.949 83.901C106.949 84.3362 106.885 84.7462 106.757 85.1312C106.628 85.5105 106.461 85.8592 106.255 86.1772C106.054 86.4896 105.831 86.7686 105.585 87.0141C105.34 87.254 105.1 87.4492 104.866 87.5999H103.962C104.274 87.3711 104.553 87.148 104.799 86.9304C105.044 86.7128 105.259 86.4869 105.443 86.2525C105.627 86.0126 105.783 85.7588 105.912 85.491C106.04 85.2176 106.143 84.9108 106.221 84.5705L106.179 84.5537C106.04 84.7936 105.859 84.9945 105.635 85.1563C105.418 85.3125 105.131 85.3906 104.773 85.3906C104.522 85.3906 104.291 85.3487 104.079 85.2651C103.867 85.1814 103.686 85.0614 103.535 84.9052C103.384 84.749 103.264 84.5621 103.175 84.3445C103.091 84.1214 103.05 83.8703 103.05 83.5914C103.05 83.3069 103.094 83.0474 103.183 82.8131C103.278 82.5732 103.409 82.3696 103.577 82.2022C103.75 82.0293 103.953 81.8954 104.188 81.8005C104.428 81.7057 104.695 81.6583 104.991 81.6583C105.292 81.6583 105.563 81.7113 105.803 81.8173C106.048 81.9177 106.255 82.0655 106.422 82.2608C106.595 82.4505 106.726 82.6848 106.815 82.9637C106.905 83.2427 106.949 83.5551 106.949 83.901ZM104.999 84.7964C105.384 84.7964 105.683 84.6904 105.895 84.4784C106.112 84.2664 106.221 83.9624 106.221 83.5663V83.4993C106.221 83.1032 106.112 82.7992 105.895 82.5872C105.683 82.3752 105.384 82.2692 104.999 82.2692C104.614 82.2692 104.313 82.3752 104.096 82.5872C103.884 82.7992 103.778 83.1032 103.778 83.4993V83.5663C103.778 83.9624 103.884 84.2664 104.096 84.4784C104.313 84.6904 104.614 84.7964 104.999 84.7964ZM111.967 83.901C111.967 84.3362 111.903 84.7462 111.775 85.1312C111.646 85.5105 111.479 85.8592 111.272 86.1772C111.072 86.4896 110.848 86.7686 110.603 87.0141C110.358 87.254 110.118 87.4492 109.883 87.5999H108.98C109.292 87.3711 109.571 87.148 109.816 86.9304C110.062 86.7128 110.277 86.4869 110.461 86.2525C110.645 86.0126 110.801 85.7588 110.929 85.491C111.058 85.2176 111.161 84.9108 111.239 84.5705L111.197 84.5537C111.058 84.7936 110.876 84.9945 110.653 85.1563C110.436 85.3125 110.148 85.3906 109.791 85.3906C109.54 85.3906 109.309 85.3487 109.097 85.2651C108.885 85.1814 108.703 85.0614 108.553 84.9052C108.402 84.749 108.282 84.5621 108.193 84.3445C108.109 84.1214 108.067 83.8703 108.067 83.5914C108.067 83.3069 108.112 83.0474 108.201 82.8131C108.296 82.5732 108.427 82.3696 108.595 82.2022C108.768 82.0293 108.971 81.8954 109.205 81.8005C109.445 81.7057 109.713 81.6583 110.009 81.6583C110.31 81.6583 110.581 81.7113 110.821 81.8173C111.066 81.9177 111.272 82.0655 111.44 82.2608C111.613 82.4505 111.744 82.6848 111.833 82.9637C111.922 83.2427 111.967 83.5551 111.967 83.901ZM110.017 84.7964C110.402 84.7964 110.701 84.6904 110.913 84.4784C111.13 84.2664 111.239 83.9624 111.239 83.5663V83.4993C111.239 83.1032 111.13 82.7992 110.913 82.5872C110.701 82.3752 110.402 82.2692 110.017 82.2692C109.632 82.2692 109.331 82.3752 109.113 82.5872C108.901 82.7992 108.795 83.1032 108.795 83.4993V83.5663C108.795 83.9624 108.901 84.2664 109.113 84.4784C109.331 84.6904 109.632 84.7964 110.017 84.7964ZM113.989 87.5999L116.223 82.3612H113.73V83.4491H113.102V81.7587H116.935V82.378L114.742 87.5999H113.989Z" fill="#3F6FE5"/>
</g>
<rect id="Rectangle 3_3" opacity="0.16" x="-45" y="110.116" width="83.6842" height="11.7158" fill="#377CFC"/>
</g>
<rect x="3.41842" y="3.41842" width="127.163" height="157.163" rx="3.58158" stroke="#F2F3F4" stroke-width="0.836842"/>
</g>
<g id="inline message">
<g id="inline message_2" filter="url(#filter1_dd_2551_155)">
<rect x="104" y="100" width="120" height="44" rx="4" fill="white"/>
<g id="container - label">
<path id="label" d="M118.37 113.12H118.32L117.73 114.29L116.06 117.33L114.39 114.29L113.8 113.12H113.75V119H112.93V112.02H114.05L116.05 115.78H116.1L118.11 112.02H119.19V119H118.37V113.12ZM122.915 119.12C122.569 119.12 122.252 119.057 121.965 118.93C121.679 118.803 121.432 118.623 121.225 118.39C121.025 118.15 120.869 117.867 120.755 117.54C120.642 117.207 120.585 116.833 120.585 116.42C120.585 116.013 120.642 115.643 120.755 115.31C120.869 114.977 121.025 114.693 121.225 114.46C121.432 114.22 121.679 114.037 121.965 113.91C122.252 113.783 122.569 113.72 122.915 113.72C123.262 113.72 123.575 113.783 123.855 113.91C124.142 114.037 124.389 114.22 124.595 114.46C124.802 114.693 124.962 114.977 125.075 115.31C125.189 115.643 125.245 116.013 125.245 116.42C125.245 116.833 125.189 117.207 125.075 117.54C124.962 117.867 124.802 118.15 124.595 118.39C124.389 118.623 124.142 118.803 123.855 118.93C123.575 119.057 123.262 119.12 122.915 119.12ZM122.915 118.41C123.349 118.41 123.702 118.277 123.975 118.01C124.249 117.743 124.385 117.337 124.385 116.79V116.05C124.385 115.503 124.249 115.097 123.975 114.83C123.702 114.563 123.349 114.43 122.915 114.43C122.482 114.43 122.129 114.563 121.855 114.83C121.582 115.097 121.445 115.503 121.445 116.05V116.79C121.445 117.337 121.582 117.743 121.855 118.01C122.129 118.277 122.482 118.41 122.915 118.41ZM126.561 119V113.84H127.361V114.79H127.411C127.504 114.543 127.671 114.323 127.911 114.13C128.151 113.937 128.481 113.84 128.901 113.84H129.211V114.64H128.741C128.308 114.64 127.968 114.723 127.721 114.89C127.481 115.05 127.361 115.253 127.361 115.5V119H126.561ZM132.124 119.12C131.771 119.12 131.451 119.057 131.164 118.93C130.884 118.803 130.641 118.623 130.434 118.39C130.234 118.15 130.077 117.867 129.964 117.54C129.857 117.207 129.804 116.833 129.804 116.42C129.804 116.013 129.857 115.643 129.964 115.31C130.077 114.977 130.234 114.693 130.434 114.46C130.641 114.22 130.884 114.037 131.164 113.91C131.451 113.783 131.771 113.72 132.124 113.72C132.471 113.72 132.781 113.783 133.054 113.91C133.327 114.037 133.561 114.213 133.754 114.44C133.947 114.66 134.094 114.923 134.194 115.23C134.301 115.537 134.354 115.873 134.354 116.24V116.62H130.644V116.86C130.644 117.08 130.677 117.287 130.744 117.48C130.817 117.667 130.917 117.83 131.044 117.97C131.177 118.11 131.337 118.22 131.524 118.3C131.717 118.38 131.934 118.42 132.174 118.42C132.501 118.42 132.784 118.343 133.024 118.19C133.271 118.037 133.461 117.817 133.594 117.53L134.164 117.94C133.997 118.293 133.737 118.58 133.384 118.8C133.031 119.013 132.611 119.12 132.124 119.12ZM132.124 114.39C131.904 114.39 131.704 114.43 131.524 114.51C131.344 114.583 131.187 114.69 131.054 114.83C130.927 114.97 130.827 115.137 130.754 115.33C130.681 115.517 130.644 115.723 130.644 115.95V116.02H133.494V115.91C133.494 115.45 133.367 115.083 133.114 114.81C132.867 114.53 132.537 114.39 132.124 114.39ZM139.176 119C138.896 119 138.682 118.923 138.536 118.77C138.396 118.61 138.326 118.403 138.326 118.15V114.54H137.476V113.84H137.956C138.129 113.84 138.246 113.807 138.306 113.74C138.372 113.667 138.406 113.543 138.406 113.37V112.41H139.126V113.84H140.256V114.54H139.126V118.3H140.176V119H139.176ZM141.541 111.6H142.341V114.68H142.381C142.508 114.387 142.685 114.153 142.911 113.98C143.145 113.807 143.455 113.72 143.841 113.72C144.375 113.72 144.795 113.893 145.101 114.24C145.415 114.58 145.571 115.063 145.571 115.69V119H144.771V115.83C144.771 114.903 144.381 114.44 143.601 114.44C143.441 114.44 143.285 114.46 143.131 114.5C142.985 114.54 142.851 114.6 142.731 114.68C142.611 114.76 142.515 114.863 142.441 114.99C142.375 115.11 142.341 115.253 142.341 115.42V119H141.541V111.6ZM150.975 119C150.675 119 150.458 118.92 150.325 118.76C150.198 118.6 150.118 118.4 150.085 118.16H150.035C149.922 118.48 149.735 118.72 149.475 118.88C149.215 119.04 148.905 119.12 148.545 119.12C147.998 119.12 147.572 118.98 147.265 118.7C146.965 118.42 146.815 118.04 146.815 117.56C146.815 117.073 146.992 116.7 147.345 116.44C147.705 116.18 148.262 116.05 149.015 116.05H150.035V115.54C150.035 115.173 149.935 114.893 149.735 114.7C149.535 114.507 149.228 114.41 148.815 114.41C148.502 114.41 148.238 114.48 148.025 114.62C147.818 114.76 147.645 114.947 147.505 115.18L147.025 114.73C147.165 114.45 147.388 114.213 147.695 114.02C148.002 113.82 148.388 113.72 148.855 113.72C149.482 113.72 149.968 113.873 150.315 114.18C150.662 114.487 150.835 114.913 150.835 115.46V118.3H151.425V119H150.975ZM148.675 118.44C148.875 118.44 149.058 118.417 149.225 118.37C149.392 118.323 149.535 118.257 149.655 118.17C149.775 118.083 149.868 117.983 149.935 117.87C150.002 117.757 150.035 117.633 150.035 117.5V116.65H148.975C148.515 116.65 148.178 116.717 147.965 116.85C147.758 116.983 147.655 117.177 147.655 117.43V117.64C147.655 117.893 147.745 118.09 147.925 118.23C148.112 118.37 148.362 118.44 148.675 118.44ZM152.567 119V113.84H153.367V114.68H153.407C153.533 114.387 153.71 114.153 153.937 113.98C154.17 113.807 154.48 113.72 154.867 113.72C155.4 113.72 155.82 113.893 156.127 114.24C156.44 114.58 156.597 115.063 156.597 115.69V119H155.797V115.83C155.797 114.903 155.407 114.44 154.627 114.44C154.467 114.44 154.31 114.46 154.157 114.5C154.01 114.54 153.877 114.6 153.757 114.68C153.637 114.76 153.54 114.863 153.467 114.99C153.4 115.11 153.367 115.253 153.367 115.42V119H152.567ZM162.774 119.12C162.414 119.12 162.087 119.06 161.794 118.94C161.507 118.813 161.26 118.637 161.054 118.41C160.854 118.177 160.7 117.893 160.594 117.56C160.487 117.227 160.434 116.853 160.434 116.44C160.434 115.92 160.51 115.433 160.664 114.98C160.817 114.52 161.014 114.103 161.254 113.73C161.5 113.35 161.77 113.017 162.064 112.73C162.357 112.437 162.644 112.2 162.924 112.02H164.004C163.63 112.293 163.297 112.56 163.004 112.82C162.71 113.08 162.454 113.353 162.234 113.64C162.014 113.92 161.827 114.223 161.674 114.55C161.52 114.87 161.397 115.233 161.304 115.64L161.354 115.66C161.52 115.373 161.734 115.137 161.994 114.95C162.26 114.757 162.607 114.66 163.034 114.66C163.334 114.66 163.61 114.71 163.864 114.81C164.117 114.91 164.334 115.053 164.514 115.24C164.694 115.427 164.834 115.653 164.934 115.92C165.04 116.187 165.094 116.483 165.094 116.81C165.094 117.15 165.037 117.463 164.924 117.75C164.817 118.03 164.66 118.273 164.454 118.48C164.254 118.68 164.01 118.837 163.724 118.95C163.437 119.063 163.12 119.12 162.774 119.12ZM162.764 118.39C163.224 118.39 163.58 118.263 163.834 118.01C164.094 117.757 164.224 117.393 164.224 116.92V116.84C164.224 116.367 164.094 116.003 163.834 115.75C163.58 115.497 163.224 115.37 162.764 115.37C162.304 115.37 161.944 115.497 161.684 115.75C161.43 116.003 161.304 116.367 161.304 116.84V116.92C161.304 117.393 161.43 117.757 161.684 118.01C161.944 118.263 162.304 118.39 162.764 118.39ZM166.45 116.39V115.53H169.06V116.39H166.45ZM170.604 119V113.84H171.404V114.68H171.444C171.504 114.547 171.571 114.423 171.644 114.31C171.724 114.19 171.817 114.087 171.924 114C172.037 113.913 172.167 113.847 172.314 113.8C172.461 113.747 172.634 113.72 172.834 113.72C173.174 113.72 173.487 113.803 173.774 113.97C174.061 114.13 174.274 114.397 174.414 114.77H174.434C174.527 114.49 174.701 114.247 174.954 114.04C175.214 113.827 175.564 113.72 176.004 113.72C176.531 113.72 176.941 113.893 177.234 114.24C177.534 114.58 177.684 115.063 177.684 115.69V119H176.884V115.83C176.884 115.37 176.794 115.023 176.614 114.79C176.434 114.557 176.147 114.44 175.754 114.44C175.594 114.44 175.441 114.46 175.294 114.5C175.154 114.54 175.027 114.6 174.914 114.68C174.801 114.76 174.711 114.863 174.644 114.99C174.577 115.11 174.544 115.253 174.544 115.42V119H173.744V115.83C173.744 115.37 173.654 115.023 173.474 114.79C173.294 114.557 173.014 114.44 172.634 114.44C172.474 114.44 172.321 114.46 172.174 114.5C172.027 114.54 171.897 114.6 171.784 114.68C171.671 114.76 171.577 114.863 171.504 114.99C171.437 115.11 171.404 115.253 171.404 115.42V119H170.604ZM181.284 119.12C180.938 119.12 180.621 119.057 180.334 118.93C180.048 118.803 179.801 118.623 179.594 118.39C179.394 118.15 179.238 117.867 179.124 117.54C179.011 117.207 178.954 116.833 178.954 116.42C178.954 116.013 179.011 115.643 179.124 115.31C179.238 114.977 179.394 114.693 179.594 114.46C179.801 114.22 180.048 114.037 180.334 113.91C180.621 113.783 180.938 113.72 181.284 113.72C181.631 113.72 181.944 113.783 182.224 113.91C182.511 114.037 182.758 114.22 182.964 114.46C183.171 114.693 183.331 114.977 183.444 115.31C183.558 115.643 183.614 116.013 183.614 116.42C183.614 116.833 183.558 117.207 183.444 117.54C183.331 117.867 183.171 118.15 182.964 118.39C182.758 118.623 182.511 118.803 182.224 118.93C181.944 119.057 181.631 119.12 181.284 119.12ZM181.284 118.41C181.718 118.41 182.071 118.277 182.344 118.01C182.618 117.743 182.754 117.337 182.754 116.79V116.05C182.754 115.503 182.618 115.097 182.344 114.83C182.071 114.563 181.718 114.43 181.284 114.43C180.851 114.43 180.498 114.563 180.224 114.83C179.951 115.097 179.814 115.503 179.814 116.05V116.79C179.814 117.337 179.951 117.743 180.224 118.01C180.498 118.277 180.851 118.41 181.284 118.41ZM184.93 119V113.84H185.73V114.68H185.77C185.897 114.387 186.073 114.153 186.3 113.98C186.533 113.807 186.843 113.72 187.23 113.72C187.763 113.72 188.183 113.893 188.49 114.24C188.803 114.58 188.96 115.063 188.96 115.69V119H188.16V115.83C188.16 114.903 187.77 114.44 186.99 114.44C186.83 114.44 186.673 114.46 186.52 114.5C186.373 114.54 186.24 114.6 186.12 114.68C186 114.76 185.903 114.863 185.83 114.99C185.763 115.11 185.73 115.253 185.73 115.42V119H184.93ZM191.754 119C191.474 119 191.26 118.923 191.114 118.77C190.974 118.61 190.904 118.403 190.904 118.15V114.54H190.054V113.84H190.534C190.707 113.84 190.824 113.807 190.884 113.74C190.95 113.667 190.984 113.543 190.984 113.37V112.41H191.704V113.84H192.834V114.54H191.704V118.3H192.754V119H191.754ZM194.12 111.6H194.92V114.68H194.96C195.086 114.387 195.263 114.153 195.49 113.98C195.723 113.807 196.033 113.72 196.42 113.72C196.953 113.72 197.373 113.893 197.68 114.24C197.993 114.58 198.15 115.063 198.15 115.69V119H197.35V115.83C197.35 114.903 196.96 114.44 196.18 114.44C196.02 114.44 195.863 114.46 195.71 114.5C195.563 114.54 195.43 114.6 195.31 114.68C195.19 114.76 195.093 114.863 195.02 114.99C194.953 115.11 194.92 115.253 194.92 115.42V119H194.12V111.6ZM201.353 119.12C200.873 119.12 200.47 119.03 200.143 118.85C199.823 118.663 199.546 118.417 199.313 118.11L199.883 117.65C200.083 117.903 200.306 118.1 200.553 118.24C200.8 118.373 201.086 118.44 201.413 118.44C201.753 118.44 202.016 118.367 202.203 118.22C202.396 118.073 202.493 117.867 202.493 117.6C202.493 117.4 202.426 117.23 202.293 117.09C202.166 116.943 201.933 116.843 201.593 116.79L201.183 116.73C200.943 116.697 200.723 116.647 200.523 116.58C200.323 116.507 200.146 116.413 199.993 116.3C199.846 116.18 199.73 116.033 199.643 115.86C199.563 115.687 199.523 115.48 199.523 115.24C199.523 114.987 199.57 114.767 199.663 114.58C199.756 114.387 199.883 114.227 200.043 114.1C200.21 113.973 200.406 113.88 200.633 113.82C200.86 113.753 201.103 113.72 201.363 113.72C201.783 113.72 202.133 113.793 202.413 113.94C202.7 114.087 202.95 114.29 203.163 114.55L202.633 115.03C202.52 114.87 202.353 114.727 202.133 114.6C201.913 114.467 201.636 114.4 201.303 114.4C200.97 114.4 200.716 114.473 200.543 114.62C200.376 114.76 200.293 114.953 200.293 115.2C200.293 115.453 200.376 115.637 200.543 115.75C200.716 115.863 200.963 115.947 201.283 116L201.683 116.06C202.256 116.147 202.663 116.313 202.903 116.56C203.143 116.8 203.263 117.117 203.263 117.51C203.263 118.01 203.093 118.403 202.753 118.69C202.413 118.977 201.946 119.12 201.353 119.12ZM116.6 133C116.3 133 116.083 132.92 115.95 132.76C115.823 132.6 115.743 132.4 115.71 132.16H115.66C115.547 132.48 115.36 132.72 115.1 132.88C114.84 133.04 114.53 133.12 114.17 133.12C113.623 133.12 113.197 132.98 112.89 132.7C112.59 132.42 112.44 132.04 112.44 131.56C112.44 131.073 112.617 130.7 112.97 130.44C113.33 130.18 113.887 130.05 114.64 130.05H115.66V129.54C115.66 129.173 115.56 128.893 115.36 128.7C115.16 128.507 114.853 128.41 114.44 128.41C114.127 128.41 113.863 128.48 113.65 128.62C113.443 128.76 113.27 128.947 113.13 129.18L112.65 128.73C112.79 128.45 113.013 128.213 113.32 128.02C113.627 127.82 114.013 127.72 114.48 127.72C115.107 127.72 115.593 127.873 115.94 128.18C116.287 128.487 116.46 128.913 116.46 129.46V132.3H117.05V133H116.6ZM114.3 132.44C114.5 132.44 114.683 132.417 114.85 132.37C115.017 132.323 115.16 132.257 115.28 132.17C115.4 132.083 115.493 131.983 115.56 131.87C115.627 131.757 115.66 131.633 115.66 131.5V130.65H114.6C114.14 130.65 113.803 130.717 113.59 130.85C113.383 130.983 113.28 131.177 113.28 131.43V131.64C113.28 131.893 113.37 132.09 113.55 132.23C113.737 132.37 113.987 132.44 114.3 132.44ZM122.542 133.57C122.542 134.103 122.332 134.493 121.912 134.74C121.498 134.993 120.875 135.12 120.042 135.12C119.235 135.12 118.655 135.01 118.302 134.79C117.948 134.57 117.772 134.257 117.772 133.85C117.772 133.57 117.845 133.35 117.992 133.19C118.138 133.037 118.338 132.923 118.592 132.85V132.74C118.285 132.593 118.132 132.353 118.132 132.02C118.132 131.76 118.215 131.563 118.382 131.43C118.548 131.29 118.762 131.187 119.022 131.12V131.08C118.715 130.933 118.475 130.723 118.302 130.45C118.135 130.177 118.052 129.86 118.052 129.5C118.052 129.24 118.098 129 118.192 128.78C118.285 128.56 118.415 128.373 118.582 128.22C118.755 128.06 118.958 127.937 119.192 127.85C119.432 127.763 119.698 127.72 119.992 127.72C120.358 127.72 120.685 127.787 120.972 127.92V127.83C120.972 127.63 121.018 127.467 121.112 127.34C121.205 127.207 121.358 127.14 121.572 127.14H122.342V127.84H121.362V128.17C121.548 128.33 121.692 128.523 121.792 128.75C121.898 128.97 121.952 129.22 121.952 129.5C121.952 129.76 121.905 130 121.812 130.22C121.718 130.44 121.585 130.63 121.412 130.79C121.245 130.943 121.042 131.063 120.802 131.15C120.562 131.237 120.295 131.28 120.002 131.28C119.835 131.28 119.668 131.263 119.502 131.23C119.328 131.277 119.172 131.347 119.032 131.44C118.892 131.527 118.822 131.65 118.822 131.81C118.822 131.963 118.895 132.067 119.042 132.12C119.188 132.173 119.378 132.2 119.612 132.2H120.712C121.352 132.2 121.815 132.323 122.102 132.57C122.395 132.81 122.542 133.143 122.542 133.57ZM121.792 133.63C121.792 133.423 121.712 133.257 121.552 133.13C121.398 133.01 121.122 132.95 120.722 132.95H119.002C118.682 133.097 118.522 133.33 118.522 133.65C118.522 133.877 118.605 134.07 118.772 134.23C118.945 134.39 119.235 134.47 119.642 134.47H120.382C120.828 134.47 121.175 134.4 121.422 134.26C121.668 134.12 121.792 133.91 121.792 133.63ZM120.002 130.64C120.342 130.64 120.612 130.56 120.812 130.4C121.012 130.233 121.112 129.98 121.112 129.64V129.36C121.112 129.02 121.012 128.77 120.812 128.61C120.612 128.443 120.342 128.36 120.002 128.36C119.662 128.36 119.392 128.443 119.192 128.61C118.992 128.77 118.892 129.02 118.892 129.36V129.64C118.892 129.98 118.992 130.233 119.192 130.4C119.392 130.56 119.662 130.64 120.002 130.64ZM125.366 133.12C125.02 133.12 124.703 133.057 124.416 132.93C124.13 132.803 123.883 132.623 123.676 132.39C123.476 132.15 123.32 131.867 123.206 131.54C123.093 131.207 123.036 130.833 123.036 130.42C123.036 130.013 123.093 129.643 123.206 129.31C123.32 128.977 123.476 128.693 123.676 128.46C123.883 128.22 124.13 128.037 124.416 127.91C124.703 127.783 125.02 127.72 125.366 127.72C125.713 127.72 126.026 127.783 126.306 127.91C126.593 128.037 126.84 128.22 127.046 128.46C127.253 128.693 127.413 128.977 127.526 129.31C127.64 129.643 127.696 130.013 127.696 130.42C127.696 130.833 127.64 131.207 127.526 131.54C127.413 131.867 127.253 132.15 127.046 132.39C126.84 132.623 126.593 132.803 126.306 132.93C126.026 133.057 125.713 133.12 125.366 133.12ZM125.366 132.41C125.8 132.41 126.153 132.277 126.426 132.01C126.7 131.743 126.836 131.337 126.836 130.79V130.05C126.836 129.503 126.7 129.097 126.426 128.83C126.153 128.563 125.8 128.43 125.366 128.43C124.933 128.43 124.58 128.563 124.306 128.83C124.033 129.097 123.896 129.503 123.896 130.05V130.79C123.896 131.337 124.033 131.743 124.306 132.01C124.58 132.277 124.933 132.41 125.366 132.41ZM129.327 133.12C129.113 133.12 128.957 133.067 128.857 132.96C128.763 132.853 128.717 132.713 128.717 132.54V132.41C128.717 132.237 128.763 132.097 128.857 131.99C128.957 131.883 129.113 131.83 129.327 131.83C129.54 131.83 129.693 131.883 129.787 131.99C129.887 132.097 129.937 132.237 129.937 132.41V132.54C129.937 132.713 129.887 132.853 129.787 132.96C129.693 133.067 129.54 133.12 129.327 133.12Z" fill="#333333"/>
</g>
</g>
</g>
<path id="Vector" d="M154.21 92.8079C154.687 91.5288 155.16 90.2514 155.685 88.8426C156.433 89.2584 156.574 89.9173 156.407 90.552C155.91 92.4312 155.385 94.3181 154.672 96.1654C154.264 97.2248 153.263 97.4582 152.505 96.7742C151.242 95.6332 150.056 94.4246 148.838 93.2413C148.767 93.1735 148.66 93.095 148.659 93.0107C148.66 92.7317 148.705 92.4481 148.729 92.1675C148.99 92.1527 149.333 92.038 149.502 92.1384C150.07 92.4763 150.583 92.8906 151.115 93.2746C151.395 93.478 151.671 93.6802 152.225 93.7517C152.124 93.2397 152.045 92.7176 151.913 92.2194C149.247 82.0358 139.427 76.032 127.369 77.2508C125.827 77.406 124.274 77.7364 122.727 77.9777C122.187 78.0608 121.649 78.1176 121.108 78.189C121.073 78.0825 121.035 77.979 120.999 77.8724C121.276 77.6386 121.524 77.2934 121.829 77.1899C122.891 76.8215 123.97 76.4637 125.051 76.2292C136.005 73.866 146.57 77.9592 151.363 86.5006C152.278 88.1287 152.831 89.9673 153.537 91.7156C153.684 92.0747 153.767 92.4644 153.877 92.8391C153.986 92.8303 154.092 92.8246 154.201 92.8158L154.21 92.8079Z" fill="black"/>
</g>
<defs>
<filter id="filter0_dd_2551_155" x="0.489474" y="1.32632" width="133.021" height="163.021" filterUnits="userSpaceOnUse" color-interpolation-filters="sRGB">
<feFlood flood-opacity="0" result="BackgroundImageFix"/>
<feColorMatrix in="SourceAlpha" type="matrix" values="0 0 0 0 0 0 0 0 0 0 0 0 0 0 0 0 0 0 127 0" result="hardAlpha"/>
<feOffset dy="0.836842"/>
<feGaussianBlur stdDeviation="0.836842"/>
<feColorMatrix type="matrix" values="0 0 0 0 0.054902 0 0 0 0 0.054902 0 0 0 0 0.054902 0 0 0 0.06 0"/>
<feBlend mode="normal" in2="BackgroundImageFix" result="effect1_dropShadow_2551_155"/>
<feColorMatrix in="SourceAlpha" type="matrix" values="0 0 0 0 0 0 0 0 0 0 0 0 0 0 0 0 0 0 127 0" result="hardAlpha"/>
<feOffset dy="0.836842"/>
<feGaussianBlur stdDeviation="1.25526"/>
<feColorMatrix type="matrix" values="0 0 0 0 0.054902 0 0 0 0 0.054902 0 0 0 0 0.054902 0 0 0 0.1 0"/>
<feBlend mode="normal" in2="effect1_dropShadow_2551_155" result="effect2_dropShadow_2551_155"/>
<feBlend mode="normal" in="SourceGraphic" in2="effect2_dropShadow_2551_155" result="shape"/>
</filter>
<filter id="filter1_dd_2551_155" x="101" y="98" width="126" height="50" filterUnits="userSpaceOnUse" color-interpolation-filters="sRGB">
<feFlood flood-opacity="0" result="BackgroundImageFix"/>
<feColorMatrix in="SourceAlpha" type="matrix" values="0 0 0 0 0 0 0 0 0 0 0 0 0 0 0 0 0 0 127 0" result="hardAlpha"/>
<feOffset dy="1"/>
<feGaussianBlur stdDeviation="1"/>
<feColorMatrix type="matrix" values="0 0 0 0 0.054902 0 0 0 0 0.054902 0 0 0 0 0.054902 0 0 0 0.06 0"/>
<feBlend mode="normal" in2="BackgroundImageFix" result="effect1_dropShadow_2551_155"/>
<feColorMatrix in="SourceAlpha" type="matrix" values="0 0 0 0 0 0 0 0 0 0 0 0 0 0 0 0 0 0 127 0" result="hardAlpha"/>
<feOffset dy="1"/>
<feGaussianBlur stdDeviation="1.5"/>
<feColorMatrix type="matrix" values="0 0 0 0 0.054902 0 0 0 0 0.054902 0 0 0 0 0.054902 0 0 0 0.1 0"/>
<feBlend mode="normal" in2="effect1_dropShadow_2551_155" result="effect2_dropShadow_2551_155"/>
<feBlend mode="normal" in="SourceGraphic" in2="effect2_dropShadow_2551_155" result="shape"/>
</filter>
<clipPath id="clip0_2551_155">
<rect x="3" y="3" width="128" height="158" rx="4" fill="white"/>
</clipPath>
</defs>
</svg>
