<svg width="128" height="128" viewBox="0 0 128 128" fill="none" xmlns="http://www.w3.org/2000/svg">
<g id="illustration / deriv / light / ic-cashier-no-ads" clip-path="url(#clip0_408_469)">
<g id="Group">
<path id="Vector" d="M30.4 5.32996C27.974 5.37205 25.6639 6.37494 23.9765 8.11852C22.2892 9.86209 21.3626 12.2039 21.4 14.63V113.37C21.3626 115.796 22.2892 118.138 23.9765 119.881C25.6639 121.625 27.974 122.628 30.4 122.67H97.6C100.026 122.628 102.336 121.625 104.023 119.881C105.711 118.138 106.637 115.796 106.6 113.37V33.55L80.06 5.32996H30.4Z" fill="#E0F0F0"/>
<path id="Vector_2" d="M80.0601 5.32996V28.9C80.0417 30.1146 80.5064 31.2869 81.3522 32.1589C82.198 33.0309 83.3554 33.5313 84.5701 33.55H106.63L80.0601 5.32996Z" fill="#BBCCCE"/>
<path id="AD" d="M42.1388 38.89L41.1133 35.4854H36.3345L35.309 38.89H32.1504L36.8677 24.574H40.7236L45.3794 38.89H42.1388ZM38.7547 27.4044H38.6521L37.0728 32.8396H40.3544L38.7547 27.4044ZM47.36 24.574H52.7542C53.6976 24.574 54.5591 24.7244 55.3384 25.0253C56.1178 25.3261 56.781 25.7773 57.3279 26.3789C57.8748 26.9669 58.2987 27.7121 58.5995 28.6145C58.9003 29.5033 59.0507 30.5424 59.0507 31.732C59.0507 32.9216 58.9003 33.9676 58.5995 34.8701C58.2987 35.7588 57.8748 36.504 57.3279 37.1056C56.781 37.6936 56.1178 38.138 55.3384 38.4388C54.5591 38.7396 53.6976 38.89 52.7542 38.89H47.36V24.574ZM52.7542 36.1212C53.684 36.1212 54.4155 35.8614 54.9487 35.3418C55.482 34.8222 55.7486 33.9881 55.7486 32.8396V30.6245C55.7486 29.4759 55.482 28.6419 54.9487 28.1223C54.4155 27.6027 53.684 27.3429 52.7542 27.3429H50.4776V36.1212H52.7542Z" fill="#BCCDCE"/>
<path id="Vector_3" d="M92.0902 58.88H35.9202C33.6117 58.88 31.7402 60.7515 31.7402 63.06C31.7402 65.3686 33.6117 67.24 35.9202 67.24H92.0902C94.3988 67.24 96.2702 65.3686 96.2702 63.06C96.2702 60.7515 94.3988 58.88 92.0902 58.88Z" fill="white"/>
<path id="Vector_4" d="M92.0902 77.38H35.9202C33.6117 77.38 31.7402 79.2515 31.7402 81.56C31.7402 83.8686 33.6117 85.74 35.9202 85.74H92.0902C94.3988 85.74 96.2702 83.8686 96.2702 81.56C96.2702 79.2515 94.3988 77.38 92.0902 77.38Z" fill="white"/>
<path id="Vector_5" d="M92.0902 95.89H35.9202C33.6117 95.89 31.7402 97.7615 31.7402 100.07C31.7402 102.379 33.6117 104.25 35.9202 104.25H92.0902C94.3988 104.25 96.2702 102.379 96.2702 100.07C96.2702 97.7615 94.3988 95.89 92.0902 95.89Z" fill="white"/>
</g>
</g>
<defs>
<clipPath id="clip0_408_469">
<rect width="128" height="128" fill="white"/>
</clipPath>
</defs>
</svg>
