<svg width="128" height="128" viewBox="0 0 128 128" fill="none" xmlns="http://www.w3.org/2000/svg">
<g id="illustration / deriv / light / lock-success">
<g id="vector">
<g id="lock">
<path id="Vector" d="M16.3039 44.7726C16.3127 43.0893 17.2771 41.4235 19.1708 40.7659L34.505 35.4967C36.8722 34.6813 39.4586 34.7339 41.7908 35.637L96.8676 56.9155C98.7088 57.6257 99.5768 59.4054 99.4014 61.0888H99.4277V104.856H99.4102C99.5417 106.329 98.8754 107.872 97.3674 108.705L95.4824 109.748C85.8733 115.07 74.3792 115.762 64.2003 111.633L18.9692 93.2915C17.4086 92.6602 16.5494 91.3451 16.3565 89.9423L16.3127 89.9248V44.7639L16.3039 44.7726Z" fill="#EBECEF"/>
<path id="Vector (Stroke)" fill-rule="evenodd" clip-rule="evenodd" d="M41.8987 35.3568C39.5008 34.4284 36.8415 34.3743 34.4071 35.2128L19.0732 40.4819C17.0471 41.1854 16.0131 42.9737 16.0037 44.7708L15.9999 45.5004L16.0125 45.4878V90.1276L16.0864 90.1572C16.338 91.5906 17.252 92.9203 18.8565 93.5693L64.0873 111.911C74.3502 116.074 85.9392 115.376 95.6276 110.01L97.5122 108.967C99.0223 108.133 99.7472 106.634 99.7257 105.155H99.7275V60.7885H99.7215C99.7699 59.0872 98.836 57.353 96.9756 56.6354C96.9756 56.6354 96.9755 56.6353 96.9756 56.6354L41.8987 35.3568ZM99.1275 61.3885H99.0684L99.1029 61.0574C99.2658 59.4934 98.4603 57.8511 96.7595 57.1951L41.6825 35.9165C39.4161 35.039 36.9025 34.9879 34.6025 35.7801L19.269 41.049C17.601 41.6282 16.7092 43.0433 16.6125 44.5247V89.7214L16.6297 89.7283L16.6535 89.9012C16.8331 91.2076 17.6296 92.4258 19.0815 93.0131L64.3128 111.355C74.4078 115.45 85.807 114.763 95.3369 109.485L97.2219 108.442C98.6165 107.672 99.2331 106.248 99.1112 104.882L99.082 104.555H99.1275V61.3885Z" fill="black"/>
<path id="Vector_2" d="M19.1809 40.7745L30.7012 36.8117V17.3743C30.7012 8.05455 40.1876 1.73324 48.7884 5.31911L71.6889 14.8668C79.6672 18.1897 84.8576 25.9839 84.8576 34.6286V52.2774L96.8601 56.9153C100.025 58.1428 100.332 62.5089 97.3599 64.1484L95.4749 65.1918C85.8658 70.5136 74.3717 71.2062 64.1928 67.0768L18.9617 48.7353C15.3144 47.2536 15.4547 42.0458 19.1809 40.7658V40.7745ZM71.8906 47.2712V36.2681C71.8906 31.3583 68.9096 26.9396 64.3506 25.1159L46.4388 17.9091C45.185 17.4006 43.8173 18.33 43.8173 19.6801V36.4259L71.8906 47.2712Z" fill="white"/>
<g id="Group">
<path id="Vector_3" d="M34.4155 69.3298L36.6249 70.2328V77.9744C36.6249 79.0441 37.2562 80.0172 38.2381 80.4468L53.8879 87.3468V89.0038C53.8879 90.9502 51.8802 92.2566 50.1004 91.4763L32.3113 83.6382C31.3294 83.2086 30.6981 82.2354 30.6981 81.1658V71.8372C30.6981 69.9172 32.6445 68.6108 34.4155 69.3385V69.3298Z" fill="#B1B4BC"/>
<path id="Vector_4" d="M36.6249 77.9745V70.2329L52.2046 76.5893C53.2216 77.0014 53.8879 77.9921 53.8879 79.088V87.3469L38.2381 80.4469C37.2562 80.0173 36.6249 79.0442 36.6249 77.9745Z" fill="#EBECEF"/>
</g>
<path id="Union" fill-rule="evenodd" clip-rule="evenodd" d="M30.4023 71.8373C30.4023 69.7047 32.5643 68.2522 34.5334 69.061L52.322 76.3202C53.4494 76.7772 54.1886 77.8737 54.1922 79.088V89.0039C54.1922 91.1674 51.961 92.6178 49.9837 91.7508L32.1948 83.9129C31.1032 83.4351 30.4023 82.3536 30.4023 81.1658V71.8373ZM53.5921 86.7755V79.0967C53.5921 78.1228 52.9991 77.2419 52.0955 76.8758L36.9054 70.677V78.2722C36.9054 78.9446 37.3018 79.5538 37.9165 79.8263L53.5921 86.7755ZM53.5921 87.4318V89.0039C53.5921 90.733 51.8075 91.8951 50.2254 91.2017L32.4365 83.3637C31.5646 82.9822 31.0023 82.1171 31.0023 81.1658V71.8373C31.0023 70.1299 32.7328 68.9698 34.3057 69.6161L36.3054 70.4321V78.2722C36.3054 79.1819 36.8416 80.0061 37.6733 80.3748L53.5921 87.4318Z" fill="black"/>
<g id="Group_2">
<path id="Vector (Stroke)_2" fill-rule="evenodd" clip-rule="evenodd" d="M43.5165 35.9883V43.7027C43.5165 43.9977 43.3309 44.3152 42.9302 44.6458C42.5351 44.9717 41.9777 45.2702 41.3495 45.5284C40.1003 46.0417 38.6431 46.3667 37.8207 46.4451H36.8116L36.7981 46.4463C35.9004 46.5276 34.4241 46.2058 33.1641 45.6123C32.538 45.3174 31.9861 44.9648 31.5953 44.5806C31.2023 44.1943 31.0005 43.8053 31.0005 43.4309V36.3911L19.0826 40.4907C19.0827 40.4907 19.0826 40.4907 19.0826 40.4907C15.0941 41.861 14.9441 47.436 18.848 49.0219L64.0792 67.3634C64.0793 67.3634 64.0792 67.3634 64.0792 67.3634C74.3421 71.5269 85.9311 70.8286 95.6194 65.4629C95.6194 65.4629 95.6194 65.4629 95.6194 65.4629L97.504 64.4198C100.701 62.6562 100.368 57.963 96.9679 56.6443L84.5568 51.8485V59.8523C84.5568 60.1658 84.38 60.5039 84.0192 60.854C83.6618 61.2008 83.1565 61.5265 82.583 61.8104C81.4369 62.3777 80.0891 62.7445 79.2772 62.7963H78.2523L78.2432 62.7968C77.36 62.8507 75.8089 62.6132 74.4782 62.1273C73.8145 61.8849 73.2272 61.5883 72.8116 61.2517C72.3928 60.9125 72.1898 60.5685 72.1898 60.2293V47.0654L43.5165 35.9883ZM71.5898 47.4768V60.2293C71.5898 60.8282 71.9498 61.3259 72.4339 61.718C72.9212 62.1126 73.5767 62.4368 74.2724 62.6909C75.6564 63.1963 77.2852 63.4541 78.2704 63.3963H79.2958L79.3049 63.3957C80.2125 63.3401 81.644 62.9447 82.8492 62.3481C83.4534 62.049 84.0185 61.6907 84.437 61.2846C84.8521 60.8819 85.1568 60.398 85.1568 59.8523V52.7236L96.7509 57.2037C99.6806 58.3399 99.9615 62.379 97.2142 63.8944L95.3289 64.938C85.7991 70.2159 74.3998 70.9028 64.3048 66.8074L19.0738 48.4661C15.6833 47.0886 15.8139 42.248 19.2776 41.0581L30.4005 37.232V43.4309C30.4005 44.0298 30.7221 44.5636 31.1747 45.0085C31.6295 45.4556 32.2455 45.8428 32.9084 46.1551C34.2205 46.7731 35.7984 47.1348 36.8384 47.0451H37.8486L37.8625 47.0438C38.7434 46.9621 40.2679 46.6215 41.5775 46.0833C42.2321 45.8144 42.8512 45.4887 43.312 45.1086C43.7671 44.7331 44.1165 44.2626 44.1165 43.7027V36.8633L71.5898 47.4768Z" fill="black"/>
<path id="Vector (Stroke)_3" fill-rule="evenodd" clip-rule="evenodd" d="M44.1166 19.6803C44.1166 18.5413 45.2703 17.7594 46.3253 18.1873L46.326 18.1876L64.2379 25.3944L64.2384 25.3946C68.6832 27.1725 71.5898 31.4807 71.5898 36.2682V47.2713H72.1898V36.2682C72.1898 31.2363 69.1346 26.7069 64.4613 24.8375L46.5508 17.6313C46.5506 17.6312 46.5504 17.6311 46.5502 17.631C45.0978 17.0424 43.5166 18.1191 43.5166 19.6803V36.426H44.1166V19.6803Z" fill="black"/>
<path id="Vector (Stroke)_4" fill-rule="evenodd" clip-rule="evenodd" d="M48.9032 5.04223C40.1047 1.37398 30.4006 7.84044 30.4006 17.3743V36.8117H31.0006V17.3743C31.0006 8.26869 40.269 2.09254 48.6723 5.59603L71.5728 15.1437C79.4391 18.42 84.5569 26.1049 84.5569 34.6286V52.2774H85.1569V34.6286C85.1569 25.863 79.8939 17.9595 71.8037 14.5899C71.8037 14.59 71.8036 14.5899 71.8037 14.5899L48.9032 5.04223Z" fill="black"/>
</g>
</g>
<g id="block">
<g id="Group_3">
<path id="Vector_5" d="M67.3326 98.3399C67.6203 100.314 68.1592 103.766 70.4147 107.465C72.0114 110.081 73.8377 111.791 74.6345 112.49C75.5709 113.311 76.4358 113.928 77.1028 114.362C80.2914 115.889 83.4799 117.416 86.6718 118.943C82.2607 116.395 80.0452 112.794 79.1703 111.334C76.9099 107.558 76.3759 104.127 76.0882 102.141C75.19 95.9464 76.6437 91.1128 77.314 88.9721C78.139 86.3358 79.7707 82.3322 83.0574 78.3253C84.2933 76.8184 86.8015 73.8194 91.1112 71.3561C93.4913 69.9955 97.6662 67.6818 103.403 67.8532C106.181 67.9363 108.504 68.5784 110.191 69.2271C107.508 67.8947 104.825 66.5608 102.144 65.2285C100.762 64.7261 98.8555 64.1822 96.5402 63.951C93.5862 63.6533 91.2825 63.9926 90.3244 64.1606C86.7633 64.786 84.2816 66.1316 82.7763 66.96C81.9297 67.429 78.6863 69.2803 75.4212 72.8447C74.5929 73.7496 72.7366 75.8869 71.0101 79.0605C68.7946 83.1339 67.9014 86.8764 67.5072 89.3048C67.2244 91.0479 66.7338 94.2332 67.3326 98.3399Z" fill="#FF535E"/>
<path id="Vector_6" d="M86.6702 119.276C86.7899 119.276 86.9047 119.211 86.9646 119.098C87.0477 118.94 86.9912 118.743 86.8365 118.655C82.4071 116.095 80.1833 112.383 79.4531 111.162C77.1793 107.366 76.682 103.935 76.4142 102.092C75.5077 95.8498 77.0479 90.9247 77.6284 89.0701C78.8377 85.2013 80.7505 81.6568 83.3119 78.5364C84.3931 77.2174 86.923 74.1303 91.2742 71.6453C93.4947 70.3762 97.6297 68.0144 103.391 68.1857C105.667 68.2539 107.914 68.7096 110.07 69.5363C110.236 69.5995 110.422 69.5213 110.494 69.36C110.565 69.197 110.495 69.0073 110.337 68.9275C108.553 68.041 106.768 67.1544 104.983 66.2679L102.29 64.9306C102.279 64.9256 102.267 64.9206 102.255 64.9156C100.424 64.2503 98.5112 63.8145 96.5718 63.6199C94.4478 63.4053 92.2672 63.4802 90.2646 63.8328C86.5887 64.4782 84.0022 65.9036 82.6134 66.6687C81.1064 67.5037 78.1357 69.3866 75.1734 72.62C73.4951 74.453 71.9532 76.6253 70.7157 78.9023C68.9576 82.1325 67.7667 85.6154 67.1762 89.2514C66.9184 90.8415 66.3812 94.1482 66.9999 98.388C67.276 100.282 67.7917 103.809 70.1286 107.638C71.584 110.023 73.2606 111.728 74.4133 112.739C75.1983 113.429 76.0416 114.068 76.9199 114.642C76.9315 114.65 76.9448 114.657 76.9581 114.663C79.0822 115.681 81.2062 116.698 83.3302 117.714L86.5271 119.244C86.5737 119.266 86.6219 119.277 86.6702 119.277V119.276ZM102.814 67.5104C97.1656 67.5104 92.989 69.8989 90.9448 71.0665C86.4872 73.613 83.9024 76.7667 82.798 78.1139C80.1816 81.3008 78.2289 84.9202 76.9947 88.8722C76.4026 90.765 74.8291 95.7949 75.7572 102.189C76.0317 104.078 76.5423 107.594 78.8842 111.505C79.4414 112.436 80.8453 114.781 83.4018 117.01C81.3559 116.031 79.3117 115.053 77.2658 114.073C76.4209 113.521 75.6092 112.904 74.8524 112.24C73.7363 111.259 72.1079 109.604 70.6974 107.292C68.432 103.579 67.9297 100.141 67.6602 98.2931C67.0565 94.1548 67.5821 90.9164 67.8349 89.3595C68.4137 85.7967 69.5797 82.3853 71.3029 79.2217C72.5154 76.9912 74.0257 74.8638 75.6674 73.0708C78.5649 69.9072 81.4673 68.0676 82.9377 67.2526C84.2916 66.5057 86.8149 65.1152 90.3827 64.4898C91.7382 64.2503 93.9005 64.0208 96.5086 64.2836C98.3881 64.4715 100.239 64.894 102.014 65.5377L104.69 66.8667C105.382 67.211 106.074 67.5553 106.766 67.8979C105.662 67.6817 104.542 67.5569 103.416 67.5237C103.215 67.517 103.015 67.5154 102.818 67.5154L102.814 67.5104Z" fill="black"/>
</g>
<g id="Group_4">
<path id="Vector_7" d="M85.9594 93.8792C89.5521 97.2823 93.1465 100.687 96.7392 104.092C99.6583 105.477 102.576 106.865 105.495 108.25C99.2791 102.362 93.0617 96.4706 86.8442 90.5825C86.5582 91.3443 86.1906 92.472 85.9594 93.8792Z" fill="#FF444F"/>
<path id="Vector_8" d="M105.493 108.583C105.599 108.583 105.704 108.531 105.767 108.438C105.86 108.303 105.84 108.12 105.722 108.009L87.0715 90.3411C86.99 90.2645 86.8769 90.2329 86.7688 90.2579C86.6607 90.2828 86.5709 90.361 86.5326 90.4642C86.1218 91.5536 85.8191 92.6847 85.6294 93.824C85.6111 93.9338 85.6494 94.0436 85.7292 94.1201C89.322 97.5232 92.9164 100.928 96.5091 104.333C96.5341 104.356 96.564 104.376 96.5956 104.391L105.351 108.549C105.398 108.571 105.446 108.581 105.494 108.581L105.493 108.583ZM86.9834 91.1727L103.743 107.051L96.9266 103.814C93.3888 100.462 89.8509 97.1107 86.3147 93.7592C86.4694 92.8859 86.6923 92.0177 86.9834 91.1727Z" fill="black"/>
</g>
<g id="Group_5">
<path id="Vector_9" d="M89.0071 106.436C91.9478 109.724 95.7667 110.329 96.5568 110.439C101.301 111.096 104.754 108.781 105.505 108.249C102.586 106.863 99.6688 105.476 96.7497 104.09C96.2008 104.423 95.484 104.812 94.6141 105.176C94.2548 105.324 93.2269 105.739 91.8114 106.051C91.0779 106.213 90.1315 106.374 89.0054 106.434L89.0071 106.436Z" fill="#FF444F"/>
<path id="Vector_10" d="M98.2487 110.89C101.91 110.89 104.611 109.29 105.695 108.522C105.792 108.453 105.845 108.339 105.835 108.222C105.825 108.104 105.753 108.001 105.647 107.951L96.8914 103.793C96.7899 103.745 96.6718 103.751 96.577 103.809C95.9134 104.212 95.2098 104.57 94.4846 104.874C93.6396 105.223 92.6899 105.521 91.7401 105.731C90.8386 105.93 89.9138 106.057 88.9874 106.106C88.8593 106.113 88.7479 106.193 88.698 106.311C88.6497 106.429 88.6714 106.566 88.7578 106.66C91.5555 109.787 95.1117 110.577 96.5105 110.772C97.111 110.855 97.6931 110.892 98.2503 110.892L98.2487 110.89ZM104.83 108.299C103.38 109.214 100.414 110.639 96.5987 110.11C95.3512 109.937 92.2924 109.263 89.7276 106.715C90.4528 106.647 91.1746 106.534 91.8815 106.378C92.8695 106.16 93.8575 105.85 94.7391 105.486C95.4393 105.193 96.1196 104.851 96.765 104.47L104.83 108.3V108.299Z" fill="black"/>
</g>
<g id="Group_6">
<path id="Vector_11" d="M104.768 84.3046C104.976 85.0465 105.512 87.1622 105.256 89.9166C105.202 90.5021 105.118 91.0493 105.018 91.5516C107.608 94.02 110.196 96.485 112.785 98.9533C113.338 97.6693 114.073 95.5203 114.116 92.7891C114.143 91.2489 114.151 88.2916 112.33 85.2244C111.678 84.1267 109.742 81.2408 106.026 79.8303C104.67 79.3147 103.345 79.0985 102.1 79.0752C102.905 80.0965 104.076 81.8529 104.768 84.3046Z" fill="#FF444F"/>
<path id="Vector_12" d="M112.783 99.2857C112.804 99.2857 112.828 99.284 112.849 99.279C112.956 99.2574 113.045 99.1842 113.089 99.0844C113.955 97.0702 114.413 94.9544 114.446 92.7938C114.471 91.3251 114.522 88.2696 112.613 85.0545C111.733 83.5708 109.722 80.8779 106.141 79.519C104.855 79.03 103.496 78.7688 102.104 78.7422C101.968 78.7406 101.856 78.8121 101.8 78.9269C101.743 79.0416 101.757 79.1797 101.836 79.2811C103.041 80.808 103.919 82.5296 104.446 84.3958C104.785 85.6017 105.141 87.5328 104.922 89.8864C104.872 90.4203 104.794 90.9592 104.689 91.4881C104.667 91.5996 104.702 91.716 104.785 91.7942C107.362 94.2492 109.935 96.7009 112.511 99.156L112.553 99.1959C112.616 99.2558 112.698 99.2874 112.783 99.2874V99.2857ZM102.789 79.4425C103.862 79.5273 104.907 79.7618 105.905 80.1411C109.296 81.4285 111.204 83.9849 112.041 85.3938C113.854 88.4476 113.804 91.3767 113.781 92.7838C113.751 94.6983 113.375 96.5778 112.661 98.3775C110.233 96.0639 107.806 93.7519 105.376 91.4366C105.469 90.9442 105.539 90.4436 105.584 89.9462C105.813 87.4912 105.439 85.4736 105.085 84.2145C104.599 82.493 103.827 80.8912 102.789 79.4425Z" fill="black"/>
</g>
<g id="Group_7">
<g id="Vector_13">
<path fill-rule="evenodd" clip-rule="evenodd" d="M103.412 67.5536C97.5837 67.3796 93.347 69.7324 90.9605 71.0959C86.6009 73.5868 84.0647 76.6217 82.8221 78.1352C79.5041 82.1787 77.857 86.2218 77.0243 88.8828C76.3496 91.0375 74.8803 95.9236 75.7895 102.181C76.0803 104.176 76.6191 107.658 78.9111 111.485C79.8247 113.01 82.2043 116.877 87.0113 119.475C93.3168 122.884 99.4906 121.784 101.5 121.397C107.927 120.158 111.921 116.529 114.041 114.602L114.043 114.6C115.057 113.679 118.627 110.308 121.257 104.681C123.262 100.392 123.846 96.6615 124.05 94.8882C124.269 92.9873 124.64 89.4945 123.623 85.1205C123.175 83.199 122.302 79.6011 119.471 75.9012C116.708 72.29 113.563 70.5124 112.614 70.0056C111.217 69.2574 107.899 67.6886 103.412 67.5536ZM77.598 89.0585C78.4156 86.4468 80.032 82.4812 83.2859 78.5159C84.5149 77.0189 86.9952 74.0526 91.2582 71.6168C93.6287 70.2625 97.7417 67.9846 103.394 68.1533M77.598 89.0585C76.9315 91.187 75.4933 95.9699 76.3832 102.094C76.6713 104.071 77.197 107.455 79.4258 111.176C80.3252 112.678 82.6361 116.429 87.2966 118.947C93.4094 122.252 99.4043 121.189 101.387 120.808C107.642 119.602 111.531 116.072 113.64 114.156C114.626 113.26 118.131 109.951 120.714 104.427C122.681 100.217 123.254 96.556 123.454 94.8197C123.67 92.9382 124.031 89.5281 123.039 85.2563C122.595 83.3555 121.745 79.861 118.994 76.2658C116.305 72.7513 113.245 71.0226 112.332 70.5348C110.977 69.8092 107.752 68.2844 103.394 68.1533" fill="#0E0E0E"/>
<path fill-rule="evenodd" clip-rule="evenodd" d="M111.818 85.9649C110.78 85.0079 109.154 85.1049 108.237 86.1787L95.7186 100.836L91.2704 97.0192C90.2315 96.1277 88.6689 96.2369 87.7641 97.2643C86.8382 98.3155 86.956 99.9222 88.0254 100.827L96.0976 107.659C96.1558 107.708 96.2428 107.701 96.2927 107.643L112.016 89.4223C112.893 88.4052 112.806 86.8754 111.818 85.9649ZM107.781 85.789C108.919 84.4565 110.936 84.3361 112.225 85.5238C113.45 86.6536 113.559 88.5521 112.47 89.8143L96.7469 108.035C96.4821 108.342 96.0195 108.378 95.71 108.117L87.6378 101.285C86.312 100.163 86.1659 98.1711 87.3138 96.8677C88.4357 95.5939 90.373 95.4585 91.6612 96.5639L95.6529 99.9893L107.781 85.789Z" fill="#0E0E0E"/>
<path d="M108.237 86.1787C109.154 85.1049 110.78 85.0079 111.818 85.9649C112.806 86.8754 112.893 88.4052 112.016 89.4223L96.2927 107.643C96.2428 107.701 96.1558 107.708 96.0976 107.659L88.0254 100.827C86.956 99.9222 86.8382 98.3155 87.7641 97.2643C88.6689 96.2369 90.2315 96.1277 91.2704 97.0192L95.7186 100.836L108.237 86.1787Z" fill="#FF444F"/>
<path fill-rule="evenodd" clip-rule="evenodd" d="M83.2859 78.5159C80.032 82.4812 78.4156 86.4468 77.598 89.0585C76.9315 91.187 75.4933 95.9699 76.3832 102.094C76.6713 104.071 77.197 107.455 79.4258 111.176C80.3252 112.678 82.6361 116.429 87.2966 118.947C93.4094 122.252 99.4043 121.189 101.387 120.808C107.642 119.602 111.531 116.072 113.64 114.156C114.626 113.26 118.131 109.951 120.714 104.427C122.681 100.217 123.254 96.556 123.454 94.8197C123.67 92.9382 124.031 89.5281 123.039 85.2563C122.595 83.3555 121.745 79.861 118.994 76.2658C116.305 72.7513 113.245 71.0226 112.332 70.5348C110.977 69.8092 107.752 68.2844 103.394 68.1533C97.7417 67.9846 93.6287 70.2625 91.2582 71.6168C86.9952 74.0526 84.5149 77.0189 83.2859 78.5159ZM107.781 85.789C108.919 84.4565 110.936 84.3361 112.225 85.5238C113.45 86.6536 113.559 88.5521 112.47 89.8143L96.7469 108.035C96.4821 108.342 96.0195 108.378 95.71 108.117L87.6378 101.285C86.312 100.163 86.1659 98.1711 87.3138 96.8677C88.4357 95.5939 90.373 95.4585 91.6612 96.5639L95.6529 99.9893L107.781 85.789Z" fill="#FF7E88"/>
</g>
</g>
</g>
</g>
</g>
</svg>
