<svg width="120" height="152" viewBox="0 0 120 152" fill="none" xmlns="http://www.w3.org/2000/svg">
<g id="illustration / deriv / light / integrity">
<g id="Integrity 1" clip-path="url(#clip0_831_154)">
<g id="Frame 1">
<g id="Group">
<g id="Group_2">
<path id="Vector" d="M46.1557 66.4787C42.94 62.8729 39.7257 59.2658 36.5129 55.6587C36.2886 55.3958 35.9786 55.0258 35.6257 54.5701C35.0686 53.8501 34.0786 52.5601 33.1457 50.7787C32.7543 50.0329 31.85 48.2001 31.2286 45.6758C30.6972 43.5158 30.6072 41.7929 30.5843 41.1187C30.5629 40.5201 30.5714 40.0158 30.5843 39.6458C30.5772 35.0187 30.57 30.3915 30.5629 25.7629C33.8986 29.5644 37.2329 33.3644 40.5672 37.1658C40.5157 39.9344 40.4086 46.7372 40.5672 51.7258C40.5843 52.2658 40.6186 53.2129 40.7886 54.4487C41.2829 58.0229 42.4457 60.5872 42.7857 61.3058C43.8772 63.6187 45.1786 65.3529 46.1557 66.4787Z" fill="#FF444F"/>
<path id="Vector_2" d="M46.1571 66.7644C46.0786 66.7644 46 66.7315 45.9443 66.6687C42.7286 63.0629 39.5143 59.4558 36.3014 55.8487C36.09 55.6015 35.7714 55.2229 35.4014 54.7444C34.9 54.0958 33.8557 52.7472 32.8943 50.9101C32.3186 49.8144 31.5157 48.0287 30.9529 45.7429C30.5771 44.2129 30.3514 42.6172 30.3 41.1272C30.2828 40.6329 30.2828 40.1444 30.3 39.6344L30.2786 25.7615C30.2786 25.6429 30.3514 25.5358 30.4628 25.4944C30.5743 25.4529 30.7 25.4844 30.7786 25.5729C34.1143 29.3744 37.4486 33.1744 40.7828 36.9758C40.83 37.0287 40.8557 37.0987 40.8543 37.1701C40.7771 41.3587 40.7128 47.2815 40.8543 51.7158C40.8686 52.1815 40.9 53.1501 41.0729 54.4087C41.5157 57.6129 42.4986 60.0272 43.0457 61.1829C43.92 63.0358 45.04 64.7544 46.3728 66.2901C46.4757 66.4087 46.4643 66.5886 46.3457 66.6915C46.2914 66.7387 46.2243 66.7629 46.1571 66.7629V66.7644ZM30.85 26.5229L30.87 39.6458C30.8529 40.1515 30.8529 40.6272 30.87 41.1087C30.9186 42.5601 31.1386 44.1158 31.5057 45.6072C32.0543 47.8372 32.8386 49.5772 33.3986 50.6458C34.3371 52.4387 35.3228 53.7115 35.8514 54.3958C36.2143 54.8644 36.5271 55.2358 36.73 55.4744C38.88 57.8887 41.0329 60.3058 43.1886 62.7215C42.9557 62.2986 42.7343 61.8672 42.5271 61.4286C41.9671 60.2444 40.9586 57.7687 40.5057 54.4887C40.3286 53.1987 40.2971 52.2101 40.2814 51.7358C40.1414 47.3286 40.2028 41.4601 40.2786 37.2715C37.1357 33.6886 33.9929 30.1072 30.8486 26.5229H30.85Z" fill="black"/>
</g>
<g id="Group_3">
<path id="Vector_3" d="M85.9243 40.7958C85.8414 42.2916 85.7171 43.8544 85.34 45.7973C85.1857 46.5901 84.6171 49.3658 83.1214 52.8958C82.7471 53.7801 81.1243 57.5216 77.8771 61.8516C74.0614 66.9401 70.2057 69.9058 69.1657 70.6844C66.9185 72.3673 64.8557 73.553 63.2957 74.3544C60.8314 74.2644 57.0785 73.7744 53.0914 71.773C49.8143 70.1301 47.7728 68.1658 47.2228 67.6187C47.0185 67.4173 46.7457 67.1387 46.4271 66.7844C46.3685 66.7201 46.31 66.6544 46.25 66.5858C46.2185 66.5501 46.1885 66.5144 46.1557 66.4787C45.1785 65.353 43.8771 63.6187 42.7857 61.3058C42.4457 60.5873 41.2828 58.023 40.7885 54.4487C40.6185 53.213 40.5843 52.2658 40.5671 51.7258C40.4085 46.7373 40.5157 39.9344 40.5671 37.1658C43.3485 36.6416 46.8814 35.683 50.7043 33.8573C56.6757 31.0073 60.7671 27.2773 63.2257 24.6301C65.2714 25.7344 68.4685 27.133 72.5943 27.7001C78.5671 28.5201 83.3728 27.1701 85.8514 26.2744C86.2285 33.1873 86.0785 38.0373 85.9243 40.7958Z" fill="#FF535E"/>
<path id="Vector_4" d="M63.2957 74.64C63.2957 74.64 63.2885 74.64 63.2857 74.64C59.6228 74.5057 56.15 73.6272 52.9642 72.0286C49.96 70.5229 47.9514 68.7457 47.0228 67.8215C46.7528 67.5557 46.4814 67.2715 46.2157 66.9757C46.1571 66.9115 46.0971 66.8443 46.0357 66.7743L46.0028 66.7357C45.9842 66.7143 45.9657 66.6929 45.9457 66.6715C44.5728 65.09 43.4242 63.3272 42.5271 61.4272C41.9671 60.2429 40.9585 57.7672 40.5057 54.4872C40.3285 53.1972 40.2971 52.2086 40.2814 51.7343C40.14 47.2886 40.2028 41.3543 40.2814 37.16C40.2842 37.0243 40.3814 36.91 40.5142 36.8843C44.0085 36.2257 47.3957 35.12 50.5814 33.5986C55.2585 31.3657 59.4428 28.2829 63.0171 24.4343C63.1057 24.3386 63.2471 24.3157 63.3628 24.3772C66.2714 25.9472 69.3914 26.97 72.6342 27.4157C77.0028 28.0157 81.54 27.5272 85.7557 26.0043C85.84 25.9743 85.9357 25.9843 86.01 26.0343C86.0842 26.0843 86.1328 26.1672 86.1371 26.2572C86.4271 31.5829 86.4528 36.48 86.21 40.81C86.1171 42.4943 85.9814 43.9957 85.6214 45.85C85.1857 48.09 84.3914 50.6315 83.3857 53.0057C82.8085 54.37 81.1385 57.98 78.1071 62.0215C74.6471 66.6357 71.1285 69.5715 69.3385 70.9115C67.48 72.3043 65.4914 73.5472 63.4285 74.6072C63.3885 74.6286 63.3428 74.6386 63.2985 74.6386L63.2957 74.64ZM40.8485 37.4029C40.7728 41.5757 40.7142 47.3629 40.8528 51.7172C40.8671 52.1829 40.8985 53.1515 41.0714 54.41C41.5142 57.6143 42.4971 60.0286 43.0442 61.1843C43.9185 63.0372 45.0385 64.7557 46.3714 66.2915C46.39 66.3115 46.4114 66.3357 46.4342 66.3615L46.4642 66.3972C46.5242 66.4643 46.5814 66.5286 46.6385 66.5929C46.8971 66.8815 47.1614 67.1572 47.4242 67.4157C48.33 68.3172 50.2871 70.0472 53.22 71.5186C56.31 73.07 59.6785 73.9272 63.2314 74.0672C65.2428 73.03 67.1814 71.8157 68.9942 70.4572C70.76 69.1357 74.2314 66.2386 77.6485 61.6814C80.6414 57.69 82.2885 54.13 82.8585 52.7857C84.1957 49.63 84.8114 47.0186 85.06 45.7443C85.4142 43.9215 85.5471 42.4429 85.64 40.7815C85.8757 36.5743 85.8571 31.83 85.5871 26.6729C81.3885 28.1257 76.8914 28.58 72.5557 27.9843C69.3171 27.5386 66.1985 26.5315 63.2842 24.9872C59.6942 28.8143 55.5042 31.8843 50.8271 34.1172C47.6657 35.6272 44.31 36.7329 40.8485 37.4043V37.4029Z" fill="black"/>
</g>
<g id="Group_4">
<path id="Vector_5" d="M85.8515 26.2742C83.3729 27.1699 78.5672 28.5199 72.5943 27.6999C68.4686 27.1328 65.2715 25.7342 63.2258 24.6299C62.6158 23.9371 62.0043 23.2456 61.3943 22.5528C58.67 19.4642 55.9472 16.3742 53.2229 13.2856C55.6372 14.4628 59.8972 16.1471 65.4415 16.3514C69.9143 16.5171 73.55 15.6571 75.9015 14.8999C79.2172 18.6914 82.5343 22.4828 85.8515 26.2742Z" fill="#FF7E88"/>
<path id="Vector_6" d="M76.3 28.2372C75.0457 28.2372 73.7943 28.1529 72.5557 27.9829C69.2443 27.5272 66.06 26.4843 63.09 24.8815C63.06 24.8657 63.0343 24.8443 63.0114 24.8186C62.7071 24.4729 62.4014 24.1257 62.0957 23.78C61.79 23.4343 61.4843 23.0872 61.18 22.7415C59.8186 21.1972 58.4557 19.6529 57.0943 18.1086C55.7329 16.5643 54.3714 15.02 53.0086 13.4757C52.9186 13.3729 52.9129 13.2215 52.9957 13.1143C53.0786 13.0057 53.2257 12.9715 53.3486 13.03C57.1086 14.8643 61.2943 15.9143 65.4529 16.0672C68.9614 16.1972 72.4471 15.7129 75.8143 14.6286C75.9229 14.5943 76.0414 14.6272 76.1171 14.7129C79.4329 18.5043 82.75 22.2957 86.0671 26.0872C86.13 26.1586 86.1529 26.2557 86.1286 26.3472C86.1043 26.4386 86.0371 26.5129 85.9486 26.5443C82.8414 27.6672 79.5614 28.2386 76.2986 28.2386L76.3 28.2372ZM63.4071 24.4029C66.3029 25.96 69.4071 26.9729 72.6343 27.4172C76.8671 27.9986 81.2571 27.5586 85.36 26.1457C82.1757 22.5072 78.9929 18.8686 75.8114 15.23C72.4371 16.2943 68.9457 16.7686 65.4329 16.6386C61.6457 16.4986 57.8357 15.6286 54.3329 14.1115C55.3971 15.3186 56.4614 16.5257 57.5257 17.7315C58.8871 19.2757 60.2486 20.82 61.6114 22.3643C61.9171 22.7115 62.2214 23.0572 62.5271 23.4029C62.8214 23.7357 63.1157 24.07 63.4086 24.4029H63.4071Z" fill="black"/>
</g>
<g id="Group_5">
<path id="Vector_7" d="M63.2257 24.6299C60.7671 27.2771 56.6757 31.0071 50.7043 33.8571C46.8814 35.6828 43.3486 36.6414 40.5672 37.1656C37.2329 33.3642 33.8986 29.5642 30.5629 25.7628C33.5886 25.1642 37.7329 24.0042 42.2343 21.6228C47.35 18.9156 50.9529 15.6742 53.2229 13.2856C55.9471 16.3742 58.67 19.4642 61.3943 22.5528C62.0043 23.2456 62.6157 23.9371 63.2257 24.6299Z" fill="#FF7E88"/>
<path id="Vector_8" d="M40.5672 37.4515C40.4857 37.4515 40.4072 37.4172 40.3529 37.3543C37.0186 33.5529 33.6843 29.7529 30.3486 25.9515C30.2814 25.8743 30.26 25.7672 30.2929 25.6715C30.3257 25.5758 30.4072 25.5029 30.5086 25.4829C34.5572 24.6815 38.4586 23.2986 42.1014 21.37C46.1657 19.2186 49.8386 16.4329 53.0172 13.0886C53.0729 13.03 53.1514 12.9986 53.23 13C53.31 13.0015 53.3857 13.0372 53.4386 13.0972C54.8014 14.6415 56.1629 16.1858 57.5243 17.7315C58.8857 19.2758 60.2472 20.82 61.61 22.3643C61.9157 22.7115 62.22 23.0572 62.5257 23.4029C62.8314 23.7486 63.1372 24.0958 63.4414 24.4415C63.5386 24.5515 63.5357 24.7172 63.4357 24.8243C59.8129 28.7258 55.57 31.8515 50.8286 34.1143C47.5986 35.6572 44.1643 36.7786 40.6214 37.4458C40.6043 37.4486 40.5857 37.45 40.5686 37.45L40.5672 37.4515ZM31.1029 25.9443C34.2943 29.5815 37.4843 33.2172 40.6743 36.8543C44.1114 36.1929 47.4443 35.0972 50.5814 33.5986C55.1814 31.4029 59.3043 28.3843 62.84 24.6243C62.5914 24.3429 62.3443 24.0615 62.0957 23.78C61.79 23.4343 61.4843 23.0872 61.18 22.7415C59.8186 21.1972 58.4557 19.6529 57.0943 18.1086C55.8014 16.6415 54.5072 15.1743 53.2143 13.7086C50.0429 16.9986 46.3957 19.7443 42.3686 21.8758C38.8214 23.7529 35.0343 25.12 31.1029 25.9443Z" fill="black"/>
</g>
<g id="Group_6">
<path id="Vector_9" d="M114.604 54.57C113.714 54.8286 112.471 55.3015 111.176 56.2043C109.44 57.41 108.499 58.7672 108.23 59.1686C107.774 59.8543 107.023 61.0072 106.739 62.6972C106.617 63.4143 106.614 64.03 106.637 64.4729C106.63 67.3372 106.624 70.2 106.617 73.0643C106.643 74.0772 106.6 75.4129 106.334 76.9572C106.236 77.5358 105.894 79.3643 104.943 81.5957C104.063 83.66 103.084 85.0729 102.341 86.1329C101.24 87.7043 100.25 88.7915 99.6185 89.4815C98.2285 90.9972 97.6414 91.39 95.9885 93.01C94.62 94.3529 93.7314 95.35 92.2771 96.9829C90.5057 98.9743 89.3542 100.407 87.2757 102.993C86.8314 103.547 85.7214 104.933 84.3714 106.806C83.11 108.556 82.7257 109.223 82.3957 109.911C81.6371 111.493 81.34 112.833 81.2257 113.42C80.9985 114.593 80.9542 115.613 80.9685 116.386C80.97 119.067 80.9714 121.75 80.9728 124.433C74.89 117.501 68.8071 110.57 62.7243 103.639V96.5672C62.7057 96.18 62.6928 95.6229 62.7243 94.9529C62.77 94 62.8671 92.23 63.6257 90.3015C63.9728 89.4172 64.3643 88.7986 65.1443 87.5586C65.9228 86.3243 66.4385 85.6915 67.6728 84.0358C69.4342 81.6729 69.2314 81.8258 70.16 80.62C71.4742 78.9129 72.5043 77.7958 74.3143 75.8343C76.1928 73.7972 77.7643 72.2229 78.7243 71.2629C81.6543 68.3329 81.6085 68.57 82.5571 67.4443C84.5528 65.0715 85.6942 62.9015 86.2814 61.6486C87.1342 59.8258 87.5214 58.4315 87.6114 58.1C88.0157 56.6129 88.1528 55.4243 88.2443 54.6172C88.3985 53.24 88.4242 52.0486 88.4057 51.1215C88.4142 48.4015 88.4228 45.68 88.4328 42.96C88.4685 42.4257 88.5628 41.6829 88.8228 40.8358C89.5043 38.6058 90.8371 37.2358 91.3771 36.6943C93.2371 34.8286 95.3285 34.1272 96.3657 33.8572C102.444 40.7615 108.524 47.6657 114.604 54.57Z" fill="#EBECEE"/>
<path id="Vector_10" d="M80.9742 124.719C80.8942 124.719 80.8142 124.684 80.7599 124.621L62.5114 103.827C62.4657 103.776 62.4399 103.709 62.4399 103.639V96.5671C62.4142 96.0428 62.4142 95.4899 62.4399 94.9399C62.4828 94.0514 62.5714 92.2042 63.3614 90.1971C63.7142 89.2985 64.1028 88.6799 64.8785 87.4471L64.9042 87.4057C65.5257 86.4214 65.9871 85.8071 66.7528 84.7885C66.9585 84.5156 67.1857 84.2128 67.4457 83.8642C68.3771 82.6142 68.7642 82.0614 69.0471 81.6571C69.3071 81.2856 69.4957 81.0171 69.9357 80.4456C71.2628 78.7228 72.3328 77.5628 74.1057 75.6399C76.0214 73.5614 77.6499 71.9342 78.5242 71.0599C79.8671 69.7171 80.5871 69.0371 81.0628 68.5871C81.6257 68.0557 81.8357 67.8571 82.3399 67.2585C83.8342 65.4814 85.0742 63.5528 86.0242 61.5256C86.7742 59.9214 87.1685 58.6428 87.3371 58.0228C87.7399 56.5414 87.8728 55.3628 87.9614 54.5828C88.0899 53.4328 88.1442 52.2685 88.1214 51.1257C88.1299 48.3985 88.1385 45.6771 88.1485 42.9571C88.1485 42.9514 88.1485 42.9457 88.1485 42.9385C88.1985 42.1928 88.3342 41.4556 88.5499 40.7499C89.2671 38.4028 90.7028 36.9642 91.1757 36.4899C92.9328 34.7271 94.9285 33.9328 96.2942 33.5785C96.3985 33.5514 96.5099 33.5857 96.5799 33.6657C102.659 40.5699 108.739 47.4742 114.819 54.3785C114.883 54.4514 114.906 54.5528 114.879 54.6471C114.851 54.7414 114.777 54.8142 114.684 54.8414C113.481 55.1914 112.356 55.7271 111.34 56.4356C110.209 57.2214 109.189 58.2471 108.469 59.3242C108.061 59.9385 107.3 61.0814 107.021 62.7414C106.927 63.2999 106.894 63.8771 106.924 64.4542C106.924 64.4599 106.924 64.4642 106.924 64.4699L106.904 73.0614C106.937 74.3728 106.841 75.6999 106.617 77.0014C106.469 77.8685 106.089 79.6342 105.207 81.7042C104.297 83.8385 103.261 85.3156 102.577 86.2928C101.449 87.9028 100.436 89.0085 99.8314 89.6699C98.9742 90.6042 98.4299 91.1056 97.7414 91.7414C97.3142 92.1342 96.8314 92.5814 96.1899 93.2085C94.8228 94.5499 93.9457 95.5342 92.4914 97.1671C90.7285 99.1485 89.5857 100.57 87.5114 103.15L87.4985 103.166C87.0771 103.691 85.9571 105.087 84.6028 106.967C83.3857 108.656 82.9914 109.323 82.6528 110.03C82.1271 111.126 81.7299 112.316 81.5057 113.47C81.3214 114.426 81.2356 115.403 81.2542 116.376L81.2585 124.429C81.2585 124.547 81.1842 124.654 81.0742 124.696C81.0414 124.709 81.0071 124.714 80.9742 124.714V124.719ZM63.0099 103.531L80.6871 123.674L80.6828 116.387C80.6642 115.38 80.7528 114.361 80.9457 113.367C81.1799 112.166 81.5928 110.929 82.1385 109.79C82.4914 109.053 82.8985 108.364 84.1399 106.641C85.5028 104.751 86.6285 103.346 87.0528 102.817L87.0657 102.801C89.1457 100.214 90.2914 98.7885 92.0642 96.7956C93.5257 95.1542 94.4085 94.1628 95.7885 92.8085C96.4357 92.1742 96.9228 91.7256 97.3514 91.3285C98.0299 90.7014 98.5671 90.2071 99.4071 89.2899C100.003 88.6385 101 87.5499 102.107 85.9699C102.779 85.0114 103.793 83.5642 104.68 81.4842C105.54 79.4685 105.909 77.7528 106.053 76.9099C106.27 75.6442 106.364 74.3542 106.331 73.0728L106.351 64.4814C106.32 63.8642 106.356 63.2485 106.457 62.6514C106.756 60.8714 107.56 59.6628 107.993 59.0128C108.753 57.8771 109.826 56.7971 111.013 55.9714C111.96 55.3114 112.996 54.7942 114.099 54.4299C108.154 47.6799 102.211 40.9314 96.2685 34.1814C94.9799 34.5399 93.1742 35.2985 91.5799 36.8985C91.1328 37.3471 89.7728 38.7114 89.0971 40.9214C88.8942 41.5828 88.7671 42.2728 88.7199 42.9728C88.7099 45.6899 88.7014 48.4085 88.6928 51.1242C88.7157 52.2871 88.6614 53.4756 88.5299 54.6514C88.4399 55.4485 88.3028 56.6528 87.8885 58.1771C87.7157 58.8142 87.3099 60.1285 86.5414 61.7714C85.5699 63.8442 84.3042 65.8142 82.7771 67.6299C82.2514 68.2528 82.0185 68.4742 81.4542 69.0056C80.9799 69.4528 80.2642 70.1285 78.9271 71.4671C78.0557 72.3385 76.4342 73.9599 74.5257 76.0299C72.7028 78.0056 71.6985 79.0928 70.3871 80.7956C69.9542 81.3571 69.7699 81.6214 69.5142 81.9871C69.2299 82.3942 68.8385 82.9514 67.9028 84.2085C67.6428 84.5571 67.4142 84.8614 67.2085 85.1342C66.4514 86.1414 65.9942 86.7485 65.3871 87.7128L65.3614 87.7542C64.6057 88.9557 64.2257 89.5585 63.8928 90.4085C63.1371 92.3285 63.0514 94.1128 63.0114 94.9699C62.9871 95.5028 62.9871 96.0356 63.0114 96.5571V103.534L63.0099 103.531Z" fill="black"/>
</g>
<g id="Group_7">
<path id="Vector_11" d="M114.604 54.5701V116.324C103.394 119.027 92.1829 121.73 80.9729 124.433C80.9715 121.75 80.97 119.067 80.9686 116.386C80.9543 115.613 80.9986 114.593 81.2258 113.42C81.34 112.833 81.6372 111.493 82.3958 109.911C82.7258 109.223 83.11 108.556 84.3715 106.806C85.7215 104.933 86.8315 103.547 87.2758 102.993C89.3543 100.407 90.5058 98.9744 92.2772 96.9829C93.7315 95.3501 94.62 94.3529 95.9886 93.0101C97.6415 91.3901 98.2286 90.9972 99.6186 89.4815C100.25 88.7915 101.24 87.7044 102.341 86.1329C103.084 85.0729 104.063 83.6601 104.943 81.5958C105.894 79.3644 106.236 77.5358 106.334 76.9572C106.6 75.4129 106.643 74.0772 106.617 73.0644C106.624 70.2001 106.63 67.3372 106.637 64.4729C106.614 64.0301 106.617 63.4144 106.739 62.6972C107.023 61.0072 107.774 59.8544 108.23 59.1686C108.499 58.7672 109.44 57.4101 111.176 56.2044C112.471 55.3015 113.714 54.8286 114.604 54.5701Z" fill="white"/>
<path id="Vector_12" d="M80.9728 124.719C80.91 124.719 80.8471 124.697 80.7957 124.657C80.7271 124.603 80.6871 124.52 80.6871 124.433L80.6828 116.386C80.6643 115.379 80.7528 114.36 80.9457 113.366C81.18 112.164 81.5928 110.927 82.1386 109.789C82.4914 109.051 82.8986 108.363 84.14 106.64C85.5028 104.75 86.6286 103.344 87.0528 102.816L87.0657 102.8C89.1457 100.213 90.2914 98.7871 92.0643 96.7942C93.5257 95.1528 94.4086 94.1614 95.7886 92.8071C96.4357 92.1728 96.9228 91.7242 97.3514 91.3271C98.03 90.7 98.5671 90.2057 99.4071 89.2885C100.003 88.6371 101 87.5485 102.107 85.9685C102.779 85.01 103.793 83.5628 104.68 81.4828C105.54 79.4671 105.909 77.7514 106.053 76.9085C106.27 75.6428 106.364 74.3528 106.331 73.0714L106.351 64.48C106.32 63.8628 106.356 63.2471 106.457 62.6499C106.756 60.8699 107.56 59.6614 107.993 59.0114C108.753 57.8757 109.826 56.7957 111.013 55.97C112.08 55.2257 113.263 54.6628 114.524 54.2957C114.61 54.27 114.704 54.2871 114.776 54.3414C114.847 54.3957 114.89 54.4799 114.89 54.5699V116.324C114.89 116.456 114.8 116.571 114.671 116.601L81.04 124.71C81.0186 124.716 80.9957 124.719 80.9728 124.719ZM114.319 54.9571C113.253 55.3057 112.253 55.8028 111.339 56.4385C110.207 57.2242 109.187 58.25 108.467 59.3271C108.06 59.9414 107.299 61.0842 107.02 62.7442C106.926 63.3028 106.893 63.88 106.923 64.4571C106.923 64.4628 106.923 64.4671 106.923 64.4728L106.903 73.0642C106.936 74.3757 106.84 75.7028 106.616 77.0042C106.467 77.8714 106.087 79.6371 105.206 81.7071C104.296 83.8414 103.26 85.3185 102.576 86.2957C101.447 87.9057 100.434 89.0114 99.83 89.6728C98.9728 90.6071 98.4286 91.1085 97.74 91.7442C97.3128 92.1371 96.83 92.5842 96.1886 93.2114C94.8214 94.5528 93.9443 95.5371 92.49 97.17C90.7271 99.1514 89.5843 100.573 87.51 103.153L87.4971 103.169C87.0757 103.694 85.9557 105.09 84.6014 106.97C83.3843 108.659 82.99 109.326 82.6514 110.033C82.1257 111.129 81.7286 112.319 81.5043 113.473C81.32 114.429 81.2343 115.406 81.2528 116.379L81.2571 124.069L114.317 116.097V54.9542L114.319 54.9571Z" fill="black"/>
</g>
<g id="Group_8">
<path id="Vector_13" d="M53.4942 113.713C52.817 113.127 51.8756 112.427 50.207 111.182C46.9599 108.759 46.7542 108.593 46.0128 108.116C44.3128 107.024 42.8313 106.243 42.4013 106.019C40.3728 104.962 39.8142 104.866 38.2671 103.902C37.3042 103.3 36.5499 102.83 35.6856 101.986C34.4885 100.814 33.8428 99.6687 33.3271 98.7387C32.8628 97.9015 32.2956 96.8615 31.9342 95.3901C31.6771 94.3373 31.5942 93.3501 31.5513 92.8087C31.4999 92.1644 31.4899 91.6173 31.4913 91.2158C31.4928 90.7544 31.4942 90.293 31.4971 89.8315C31.6713 89.9844 31.9356 90.213 32.2571 90.4901C33.9656 91.9515 34.6099 92.3958 35.4842 93.1787C36.0142 93.653 36.7528 94.363 37.5685 95.3301C42.877 101.457 48.1856 107.586 53.4942 113.713Z" fill="#EBECEE"/>
<path id="Vector_14" d="M53.4942 113.999C53.4285 113.999 53.3614 113.976 53.3071 113.929C52.66 113.369 51.7871 112.717 50.2 111.533L48.8685 110.539C46.7157 108.93 46.49 108.763 45.8585 108.356C44.3257 107.372 42.9514 106.627 42.27 106.272C41.4557 105.847 40.8857 105.582 40.3814 105.346C39.64 105 39.0542 104.727 38.1171 104.143C37.1357 103.53 36.37 103.052 35.4871 102.189C34.2371 100.966 33.5671 99.7573 33.0785 98.8759C32.6385 98.083 32.0357 96.9959 31.6585 95.4573C31.3885 94.353 31.3071 93.3244 31.2685 92.8301C31.2257 92.3001 31.2057 91.7559 31.2071 91.2144C31.2071 90.753 31.21 90.2916 31.2128 89.8287C31.2128 89.7173 31.28 89.6159 31.3814 89.5701C31.4828 89.5244 31.6028 89.5416 31.6871 89.6159C31.8614 89.7687 32.1242 89.9959 32.4457 90.273C33.3057 91.0087 33.9028 91.4916 34.3814 91.8787C34.86 92.2659 35.2385 92.573 35.6771 92.9644C36.4171 93.6259 37.1271 94.3601 37.7885 95.1444L53.7114 113.524C53.81 113.637 53.8028 113.807 53.6971 113.913C53.6414 113.969 53.5685 113.997 53.4942 113.997V113.999ZM31.78 90.4559C31.78 90.7101 31.7785 90.963 31.7771 91.2173C31.7757 91.7444 31.7957 92.2716 31.8357 92.7859C31.8742 93.2659 31.9528 94.263 32.2114 95.3216C32.5714 96.7873 33.1528 97.8344 33.5771 98.6001C34.0485 99.4516 34.6957 100.617 35.8857 101.782C36.7242 102.6 37.4671 103.064 38.4071 103.652C39.3257 104.224 39.8971 104.49 40.6214 104.829C41.1314 105.066 41.7085 105.336 42.5328 105.766C43.2242 106.126 44.6142 106.88 46.1671 107.876C46.8157 108.293 47.0428 108.463 49.21 110.082L50.5414 111.076C50.8385 111.297 51.11 111.5 51.36 111.687L37.3514 95.5173C36.7042 94.7501 36.0128 94.0359 35.2928 93.3916C34.8657 93.0087 34.4928 92.7073 34.0185 92.3244C33.5371 91.9344 32.9371 91.4487 32.07 90.7073C31.9657 90.6187 31.8685 90.5344 31.7785 90.4559H31.78Z" fill="black"/>
</g>
<g id="Group_9">
<path id="Vector_15" d="M30.0242 78.1057C29.4956 77.5157 28.9485 77.1485 28.6471 76.9671C27.4085 76.2199 26.2442 76.1414 25.6828 76.1099C24.7656 76.0585 24.0114 76.1999 23.5142 76.3314C17.4385 69.4157 11.3628 62.4999 5.28564 55.5857C5.67707 55.4699 6.25707 55.3414 6.96707 55.3371C7.71564 55.3314 8.26707 55.4685 8.78136 55.5985C9.39422 55.7542 10.2614 56.0342 11.2428 56.5671C17.5028 63.7457 23.7642 70.9257 30.0242 78.1057Z" fill="#EBECEE"/>
<path id="Vector_16" d="M30.0257 78.3914C29.9471 78.3914 29.8685 78.36 29.8128 78.2957C29.3385 77.7671 28.8385 77.4143 28.5014 77.2114C27.2985 76.4857 26.1557 76.4214 25.6685 76.3943C24.97 76.3557 24.27 76.4271 23.5885 76.6071C23.4842 76.6343 23.3728 76.6014 23.3014 76.52C17.2257 69.6043 11.15 62.6886 5.07282 55.7743C5.00853 55.7014 4.98567 55.6 5.01282 55.5057C5.03996 55.4114 5.11282 55.3386 5.20567 55.3114C5.7771 55.1429 6.36996 55.0543 6.96567 55.0514C7.76139 55.0457 8.33996 55.1914 8.85139 55.3214C9.71996 55.5414 10.57 55.8771 11.3785 56.3157C11.4085 56.3314 11.4357 56.3529 11.4571 56.3786L13.4242 58.6343C19.0285 65.0614 24.6342 71.4886 30.2385 77.9171C30.3414 78.0357 30.33 78.2143 30.2128 78.3186C30.1585 78.3671 30.0914 78.39 30.0242 78.39L30.0257 78.3914ZM25.2957 75.8129C25.43 75.8129 25.5642 75.8171 25.7 75.8243C26.1414 75.8486 27.0771 75.9014 28.1414 76.38C23.0928 70.59 18.0442 64.8 12.9957 59.0114L11.0628 56.7943C10.3085 56.39 9.51853 56.08 8.71282 55.8757C8.23424 55.7543 7.6971 55.6171 6.97139 55.6229C6.57996 55.6257 6.19139 55.6671 5.81139 55.7471C11.7471 62.5014 17.6814 69.2557 23.6171 76.0114C24.17 75.88 24.7328 75.8129 25.2985 75.8129H25.2957Z" fill="black"/>
</g>
<g id="Group_10">
<path id="Vector_17" d="M23.5143 76.3314C23.5115 96.93 23.5086 117.529 23.5043 138.126C17.4415 131.199 11.3772 124.271 5.31291 117.343C5.30434 96.7571 5.29577 76.1714 5.28577 55.5857C11.3629 62.5 17.4386 69.4157 23.5143 76.3314Z" fill="#CED0D6"/>
<path id="Vector_18" d="M23.5057 138.411C23.4243 138.411 23.3457 138.377 23.29 138.314L5.09857 117.531C5.05286 117.48 5.02714 117.413 5.02714 117.343C5.01857 96.7572 5.01 76.1714 5 55.5857C5 55.4672 5.07429 55.36 5.18429 55.3186C5.29571 55.2772 5.42143 55.3086 5.5 55.3972C11.5771 62.3114 17.6529 69.2272 23.7286 76.1429C23.7743 76.1943 23.8 76.2614 23.8 76.3314V81.48C23.7971 100.363 23.7943 119.244 23.79 138.126C23.79 138.244 23.7157 138.351 23.6043 138.393C23.5714 138.406 23.5371 138.411 23.5043 138.411H23.5057ZM5.59857 117.236L23.2186 137.366C23.2229 118.739 23.2257 100.109 23.2271 81.48V76.4386C17.3429 69.74 11.4571 63.0414 5.57143 56.3429C5.58143 76.6414 5.59 96.9357 5.59857 117.234V117.236Z" fill="black"/>
</g>
<g id="Group_11">
<path id="Vector_19" d="M57.2058 122.839C57.1715 125.233 57.1387 127.626 57.1044 130.019C45.9044 132.721 34.7044 135.424 23.5044 138.126C23.5087 117.529 23.5115 96.9299 23.5144 76.3314C24.0115 76.1999 24.7658 76.0585 25.683 76.1099C26.2444 76.1414 27.4087 76.2199 28.6473 76.9671C28.9487 77.1485 29.4958 77.5157 30.0244 78.1057C30.063 78.1471 30.1001 78.1899 30.1373 78.2342C30.4258 78.5757 30.7044 78.9842 30.9273 79.4671C31.4144 80.5257 31.473 81.5742 31.5115 82.2614C31.5301 82.5999 31.5287 82.8842 31.5215 83.0871C31.513 85.3357 31.5044 87.5828 31.4973 89.8314C31.4944 90.2928 31.493 90.7542 31.4915 91.2157C31.4901 91.6171 31.5001 92.1642 31.5515 92.8085C31.5944 93.3499 31.6773 94.3371 31.9344 95.3899C32.2958 96.8614 32.863 97.9014 33.3273 98.7385C33.843 99.6685 34.4887 100.814 35.6858 101.986C36.5501 102.83 37.3044 103.3 38.2673 103.901C39.8144 104.866 40.373 104.961 42.4015 106.019C42.8315 106.243 44.313 107.024 46.013 108.116C46.7544 108.593 46.9601 108.759 50.2073 111.181C51.8758 112.427 52.8173 113.127 53.4944 113.713C53.9787 114.133 54.3258 114.493 54.7044 114.953C55.433 115.836 55.8887 116.607 56.2173 117.333C56.6701 118.33 56.8487 119.161 56.953 119.663C57.113 120.421 57.2658 121.511 57.2058 122.839Z" fill="white"/>
<path id="Vector_20" d="M23.5043 138.411C23.4415 138.411 23.3786 138.39 23.3272 138.35C23.2586 138.296 23.2186 138.213 23.2186 138.126C23.2229 119.244 23.2258 100.363 23.2286 81.48V76.3314C23.2286 76.2014 23.3172 76.0886 23.4415 76.0557C24.1801 75.86 24.9401 75.7828 25.6986 75.8257C26.2286 75.8557 27.4715 75.9257 28.7943 76.7228C29.1643 76.9457 29.7158 77.3328 30.2372 77.9157C30.2758 77.9571 30.3158 78.0028 30.3558 78.0514C30.6943 78.4528 30.9743 78.8886 31.1858 79.3486C31.6958 80.4557 31.7558 81.5328 31.7958 82.2457C31.8158 82.6157 31.8129 82.9128 31.8058 83.0986V83.67C31.7958 85.7257 31.7886 87.7786 31.7815 89.8343C31.7786 90.2957 31.7772 90.7571 31.7758 91.2186C31.7743 91.7457 31.7943 92.2728 31.8343 92.7871C31.8729 93.2671 31.9515 94.2643 32.2101 95.3228C32.5701 96.7886 33.1515 97.8357 33.5758 98.6014C34.0472 99.4528 34.6943 100.619 35.8843 101.783C36.7229 102.601 37.4658 103.066 38.4058 103.653C39.3243 104.226 39.8958 104.491 40.6201 104.83C41.1301 105.067 41.7072 105.337 42.5315 105.767C43.2229 106.127 44.6129 106.881 46.1658 107.877C46.8143 108.294 47.0415 108.464 49.2086 110.083L50.5401 111.077C52.1372 112.269 53.0158 112.926 53.6786 113.499C54.1615 113.917 54.5215 114.287 54.9229 114.773C55.5972 115.59 56.0901 116.367 56.4758 117.217C56.9515 118.266 57.1329 119.139 57.2315 119.607C57.4529 120.656 57.5401 121.746 57.4901 122.849L57.3886 130.024C57.3872 130.154 57.2972 130.267 57.1701 130.299L56.3972 130.486C45.4543 133.126 34.5129 135.767 23.5701 138.406C23.5486 138.411 23.5258 138.414 23.5029 138.414L23.5043 138.411ZM23.8001 76.5557V81.4814C23.7972 100.243 23.7943 119.004 23.7901 137.764C34.6143 135.153 45.4386 132.541 56.2643 129.929L56.8229 129.794L56.9215 122.836C56.9215 122.836 56.9215 122.83 56.9215 122.827C56.9686 121.771 56.8858 120.727 56.6743 119.723C56.5815 119.276 56.4086 118.443 55.9586 117.451C55.5958 116.649 55.1272 115.913 54.4858 115.136C54.1072 114.676 53.7658 114.326 53.3086 113.93C52.6615 113.371 51.7886 112.719 50.2029 111.534L48.8715 110.54C46.7186 108.931 46.4929 108.764 45.8615 108.357C44.3286 107.373 42.9543 106.629 42.2729 106.273C41.4586 105.849 40.8886 105.583 40.3843 105.347C39.6429 105.001 39.0572 104.729 38.1201 104.144C37.1386 103.531 36.3729 103.053 35.4901 102.19C34.2401 100.967 33.5701 99.7586 33.0815 98.8771C32.6415 98.0843 32.0386 96.9971 31.6615 95.4586C31.3915 94.3543 31.3101 93.3257 31.2715 92.8314C31.2286 92.3014 31.2086 91.7571 31.2101 91.2157C31.2101 90.7543 31.2129 90.2928 31.2158 89.83C31.2229 87.7757 31.2301 85.7214 31.2372 83.6657L31.2401 83.0857C31.2458 82.9028 31.2501 82.6243 31.2301 82.2771C31.1929 81.6071 31.1358 80.5957 30.6715 79.5871C30.4815 79.1743 30.2301 78.7814 29.9229 78.4185C29.8886 78.3771 29.8543 78.3385 29.8186 78.3C29.3415 77.7671 28.8401 77.4143 28.5029 77.2114C27.3001 76.4857 26.1572 76.4214 25.6701 76.3943C25.0443 76.3586 24.4172 76.4128 23.8029 76.5543L23.8001 76.5557Z" fill="black"/>
</g>
</g>
</g>
</g>
</g>
<defs>
<clipPath id="clip0_831_154">
<rect width="120" height="152" fill="white"/>
</clipPath>
</defs>
</svg>
