<svg width="128" height="128" viewBox="0 0 128 128" fill="none" xmlns="http://www.w3.org/2000/svg">
<g id="illustration / deriv / light / lock-blocked">
<g id="vector">
<g id="lock">
<path id="Vector" d="M16.3039 44.7726C16.3127 43.0893 17.2771 41.4235 19.1708 40.7659L34.505 35.4967C36.8722 34.6813 39.4586 34.7339 41.7908 35.637L96.8676 56.9155C98.7088 57.6257 99.5768 59.4054 99.4014 61.0888H99.4277V104.856H99.4102C99.5417 106.329 98.8754 107.872 97.3674 108.705L95.4824 109.748C85.8733 115.07 74.3792 115.762 64.2003 111.633L18.9692 93.2915C17.4086 92.6602 16.5494 91.3451 16.3565 89.9423L16.3127 89.9248V44.7639L16.3039 44.7726Z" fill="#EBECEF"/>
<path id="Vector (Stroke)" fill-rule="evenodd" clip-rule="evenodd" d="M41.8987 35.3568C39.5008 34.4284 36.8415 34.3743 34.4071 35.2128L19.0732 40.4819C17.0471 41.1854 16.0131 42.9737 16.0037 44.7708L15.9999 45.5004L16.0125 45.4878V90.1276L16.0864 90.1572C16.338 91.5906 17.252 92.9203 18.8565 93.5693L64.0873 111.911C74.3502 116.074 85.9392 115.376 95.6276 110.01L97.5122 108.967C99.0223 108.133 99.7472 106.634 99.7257 105.155H99.7275V60.7885H99.7215C99.7699 59.0872 98.836 57.353 96.9756 56.6354C96.9756 56.6354 96.9755 56.6353 96.9756 56.6354L41.8987 35.3568ZM99.1275 61.3885H99.0684L99.1029 61.0574C99.2658 59.4934 98.4603 57.8511 96.7595 57.1951L41.6825 35.9165C39.4161 35.039 36.9025 34.9879 34.6025 35.7801L19.269 41.049C17.601 41.6282 16.7092 43.0433 16.6125 44.5247V89.7214L16.6297 89.7283L16.6535 89.9012C16.8331 91.2076 17.6296 92.4258 19.0815 93.0131L64.3128 111.355C74.4078 115.45 85.807 114.763 95.3369 109.485L97.2219 108.442C98.6165 107.672 99.2331 106.248 99.1112 104.882L99.082 104.555H99.1275V61.3885Z" fill="black"/>
<path id="Vector_2" d="M19.1809 40.7745L30.7012 36.8117V17.3743C30.7012 8.05455 40.1876 1.73324 48.7884 5.31911L71.6889 14.8668C79.6672 18.1897 84.8576 25.9839 84.8576 34.6286V52.2774L96.8601 56.9153C100.025 58.1428 100.332 62.5089 97.3599 64.1484L95.4749 65.1918C85.8658 70.5136 74.3717 71.2062 64.1928 67.0768L18.9617 48.7353C15.3144 47.2536 15.4547 42.0458 19.1809 40.7658V40.7745ZM71.8906 47.2712V36.2681C71.8906 31.3583 68.9096 26.9396 64.3506 25.1159L46.4388 17.9091C45.185 17.4006 43.8173 18.33 43.8173 19.6801V36.4259L71.8906 47.2712Z" fill="white"/>
<g id="Group">
<path id="Vector_3" d="M34.4155 69.3298L36.6249 70.2328V77.9744C36.6249 79.0441 37.2562 80.0172 38.2381 80.4468L53.8879 87.3468V89.0038C53.8879 90.9502 51.8802 92.2566 50.1004 91.4763L32.3113 83.6382C31.3294 83.2086 30.6981 82.2354 30.6981 81.1658V71.8372C30.6981 69.9172 32.6445 68.6108 34.4155 69.3385V69.3298Z" fill="#B1B4BC"/>
<path id="Vector_4" d="M36.6249 77.9745V70.2329L52.2046 76.5893C53.2216 77.0014 53.8879 77.9921 53.8879 79.088V87.3469L38.2381 80.4469C37.2562 80.0173 36.6249 79.0442 36.6249 77.9745Z" fill="#EBECEF"/>
</g>
<path id="Union" fill-rule="evenodd" clip-rule="evenodd" d="M30.4023 71.8373C30.4023 69.7047 32.5643 68.2522 34.5334 69.061L52.322 76.3202C53.4494 76.7772 54.1886 77.8737 54.1922 79.088V89.0039C54.1922 91.1674 51.961 92.6178 49.9837 91.7508L32.1948 83.9129C31.1032 83.4351 30.4023 82.3536 30.4023 81.1658V71.8373ZM53.5921 86.7755V79.0967C53.5921 78.1228 52.9991 77.2419 52.0955 76.8758L36.9054 70.677V78.2722C36.9054 78.9446 37.3018 79.5538 37.9165 79.8263L53.5921 86.7755ZM53.5921 87.4318V89.0039C53.5921 90.733 51.8075 91.8951 50.2254 91.2017L32.4365 83.3637C31.5646 82.9822 31.0023 82.1171 31.0023 81.1658V71.8373C31.0023 70.1299 32.7328 68.9698 34.3057 69.6161L36.3054 70.4321V78.2722C36.3054 79.1819 36.8416 80.0061 37.6733 80.3748L53.5921 87.4318Z" fill="black"/>
<g id="Group_2">
<path id="Vector (Stroke)_2" fill-rule="evenodd" clip-rule="evenodd" d="M43.5165 35.9883V43.7027C43.5165 43.9977 43.3309 44.3152 42.9302 44.6458C42.5351 44.9717 41.9777 45.2702 41.3495 45.5284C40.1003 46.0417 38.6431 46.3667 37.8207 46.4451H36.8116L36.7981 46.4463C35.9004 46.5276 34.4241 46.2058 33.1641 45.6123C32.538 45.3174 31.9861 44.9648 31.5953 44.5806C31.2023 44.1943 31.0005 43.8053 31.0005 43.4309V36.3911L19.0826 40.4907C19.0827 40.4907 19.0826 40.4907 19.0826 40.4907C15.0941 41.861 14.9441 47.436 18.848 49.0219L64.0792 67.3634C64.0793 67.3634 64.0792 67.3634 64.0792 67.3634C74.3421 71.5269 85.9311 70.8286 95.6194 65.4629C95.6194 65.4629 95.6194 65.4629 95.6194 65.4629L97.504 64.4198C100.701 62.6562 100.368 57.963 96.9679 56.6443L84.5568 51.8485V59.8523C84.5568 60.1658 84.38 60.5039 84.0192 60.854C83.6618 61.2008 83.1565 61.5265 82.583 61.8104C81.4369 62.3777 80.0891 62.7445 79.2772 62.7963H78.2523L78.2432 62.7968C77.36 62.8507 75.8089 62.6132 74.4782 62.1273C73.8145 61.8849 73.2272 61.5883 72.8116 61.2517C72.3928 60.9125 72.1898 60.5685 72.1898 60.2293V47.0654L43.5165 35.9883ZM71.5898 47.4768V60.2293C71.5898 60.8282 71.9498 61.3259 72.4339 61.718C72.9212 62.1126 73.5767 62.4368 74.2724 62.6909C75.6564 63.1963 77.2852 63.4541 78.2704 63.3963H79.2958L79.3049 63.3957C80.2125 63.3401 81.644 62.9447 82.8492 62.3481C83.4534 62.049 84.0185 61.6907 84.437 61.2846C84.8521 60.8819 85.1568 60.398 85.1568 59.8523V52.7236L96.7509 57.2037C99.6806 58.3399 99.9615 62.379 97.2142 63.8944L95.3289 64.938C85.7991 70.2159 74.3998 70.9028 64.3048 66.8074L19.0738 48.4661C15.6833 47.0886 15.8139 42.248 19.2776 41.0581L30.4005 37.232V43.4309C30.4005 44.0298 30.7221 44.5636 31.1747 45.0085C31.6295 45.4556 32.2455 45.8428 32.9084 46.1551C34.2205 46.7731 35.7984 47.1348 36.8384 47.0451H37.8486L37.8625 47.0438C38.7434 46.9621 40.2679 46.6215 41.5775 46.0833C42.2321 45.8144 42.8512 45.4887 43.312 45.1086C43.7671 44.7331 44.1165 44.2626 44.1165 43.7027V36.8633L71.5898 47.4768Z" fill="black"/>
<path id="Vector (Stroke)_3" fill-rule="evenodd" clip-rule="evenodd" d="M44.1164 19.6803C44.1164 18.5413 45.2702 17.7594 46.3251 18.1873L46.3259 18.1876L64.2377 25.3944L64.2383 25.3946C68.683 27.1725 71.5897 31.4807 71.5897 36.2682V47.2713H72.1897V36.2682C72.1897 31.2363 69.1345 26.7069 64.4611 24.8375L46.5507 17.6313C46.5504 17.6312 46.5502 17.6311 46.55 17.631C45.0977 17.0424 43.5164 18.1191 43.5164 19.6803V36.426H44.1164V19.6803Z" fill="black"/>
<path id="Vector (Stroke)_4" fill-rule="evenodd" clip-rule="evenodd" d="M48.903 5.04223C40.1046 1.37398 30.4004 7.84044 30.4004 17.3743V36.8117H31.0004V17.3743C31.0004 8.26869 40.2689 2.09254 48.6722 5.59603L71.5726 15.1437C79.439 18.42 84.5567 26.1049 84.5567 34.6286V52.2774H85.1567V34.6286C85.1567 25.863 79.8938 17.9595 71.8035 14.5899C71.8036 14.59 71.8035 14.5899 71.8035 14.5899L48.903 5.04223Z" fill="black"/>
</g>
</g>
<g id="block">
<g id="Group_3">
<path id="Vector_5" d="M67.0018 98.8399C67.2895 100.814 67.8284 104.266 70.0839 107.965C71.6806 110.581 73.5069 112.291 74.3036 112.99C75.2401 113.811 76.105 114.428 76.772 114.862C79.9605 116.389 83.1491 117.916 86.341 119.443C81.9299 116.895 79.7144 113.294 78.8395 111.834C76.579 108.058 76.0451 104.627 75.7574 102.641C74.8592 96.4464 76.3129 91.6128 76.9832 89.4721C77.8082 86.8358 79.4399 82.8322 82.7266 78.8253C83.9625 77.3184 86.4707 74.3194 90.7803 71.8561C93.1605 70.4955 97.3354 68.1818 103.072 68.3532C105.85 68.4363 108.174 69.0784 109.86 69.7271C107.177 68.3947 104.494 67.0608 101.813 65.7285C100.431 65.2261 98.5247 64.6822 96.2094 64.451C93.2553 64.1533 90.9517 64.4926 89.9936 64.6606C86.4325 65.286 83.9508 66.6316 82.4455 67.46C81.5989 67.929 78.3555 69.7803 75.0904 73.3447C74.2621 74.2496 72.4058 76.3869 70.6793 79.5605C68.4638 83.6339 67.5706 87.3764 67.1764 89.8048C66.8936 91.5479 66.403 94.7332 67.0018 98.8399Z" fill="#FF535E"/>
<path id="Vector_6" d="M86.3393 119.776C86.4591 119.776 86.5739 119.711 86.6338 119.598C86.7169 119.44 86.6604 119.243 86.5057 119.155C82.0763 116.595 79.8525 112.883 79.1223 111.662C76.8485 107.866 76.3512 104.435 76.0834 102.592C75.1769 96.3498 76.7171 91.4247 77.2976 89.5701C78.5068 85.7013 80.4196 82.1568 82.9811 79.0364C84.0623 77.7174 86.5922 74.6303 90.9434 72.1453C93.1639 70.8762 97.2989 68.5144 103.061 68.6857C105.336 68.7539 107.583 69.2096 109.739 70.0363C109.905 70.0995 110.091 70.0213 110.163 69.86C110.234 69.697 110.165 69.5073 110.007 69.4275C108.222 68.541 106.437 67.6544 104.652 66.7679L101.959 65.4306C101.948 65.4256 101.936 65.4206 101.925 65.4156C100.093 64.7503 98.1804 64.3145 96.241 64.1199C94.117 63.9053 91.9364 63.9802 89.9337 64.3328C86.2578 64.9782 83.6714 66.4036 82.2825 67.1687C80.7756 68.0037 77.8049 69.8866 74.8426 73.12C73.1643 74.953 71.6224 77.1253 70.3849 79.4023C68.6268 82.6325 67.4359 86.1154 66.8454 89.7514C66.5876 91.3415 66.0504 94.6482 66.6691 98.888C66.9452 100.782 67.4608 104.309 69.7978 108.138C71.2532 110.523 72.9298 112.228 74.0825 113.239C74.8675 113.929 75.7108 114.568 76.5891 115.142C76.6007 115.15 76.614 115.157 76.6273 115.163C78.7514 116.181 80.8754 117.198 82.9994 118.214L86.1963 119.744C86.2429 119.766 86.2911 119.777 86.3393 119.777V119.776ZM102.483 68.0104C96.8348 68.0104 92.6582 70.3989 90.614 71.5665C86.1564 74.113 83.5716 77.2667 82.4672 78.6139C79.8508 81.8008 77.8981 85.4202 76.6639 89.3722C76.0718 91.265 74.4983 96.2949 75.4264 102.689C75.7009 104.578 76.2115 108.094 78.5534 112.005C79.1106 112.936 80.5145 115.281 83.071 117.51C81.0251 116.531 78.9809 115.553 76.935 114.573C76.0901 114.021 75.2784 113.404 74.5216 112.74C73.4055 111.759 71.7771 110.104 70.3666 107.792C68.1012 104.079 67.5989 100.641 67.3294 98.7931C66.7257 94.6548 67.2513 91.4164 67.5041 89.8595C68.0829 86.2967 69.2489 82.8853 70.9721 79.7217C72.1846 77.4912 73.6949 75.3638 75.3366 73.5708C78.2341 70.4072 81.1365 68.5676 82.6069 67.7526C83.9608 67.0057 86.4841 65.6152 90.0518 64.9898C91.4074 64.7503 93.5697 64.5208 96.1778 64.7836C98.0573 64.9715 99.9086 65.394 101.683 66.0377L104.36 67.3667C105.052 67.711 105.743 68.0553 106.435 68.3979C105.331 68.1817 104.212 68.0569 103.085 68.0237C102.884 68.017 102.685 68.0154 102.487 68.0154L102.483 68.0104Z" fill="black"/>
</g>
<g id="Group_4">
<path id="Vector_7" d="M85.6286 94.3792C89.2213 97.7823 92.8157 101.187 96.4084 104.592C99.3275 105.977 102.245 107.365 105.164 108.75C98.9483 102.862 92.7309 96.9706 86.5134 91.0825C86.2273 91.8443 85.8598 92.972 85.6286 94.3792Z" fill="#FF444F"/>
<path id="Vector_8" d="M105.162 109.083C105.268 109.083 105.373 109.031 105.436 108.938C105.529 108.803 105.509 108.62 105.391 108.509L86.7407 90.8411C86.6592 90.7645 86.5461 90.7329 86.438 90.7579C86.3299 90.7828 86.2401 90.861 86.2018 90.9642C85.791 92.0536 85.4882 93.1847 85.2986 94.324C85.2803 94.4338 85.3186 94.5436 85.3984 94.6201C88.9912 98.0232 92.5856 101.428 96.1783 104.833C96.2032 104.856 96.2332 104.876 96.2648 104.891L105.02 109.049C105.067 109.071 105.115 109.081 105.163 109.081L105.162 109.083ZM86.6526 91.6727L103.412 107.551L96.5958 104.314C93.0579 100.962 89.5201 97.6107 85.9839 94.2592C86.1386 93.3859 86.3615 92.5177 86.6526 91.6727Z" fill="black"/>
</g>
<g id="Group_5">
<path id="Vector_9" d="M88.6762 106.936C91.617 110.224 95.4359 110.829 96.226 110.939C100.97 111.596 104.423 109.281 105.175 108.749C102.255 107.363 99.338 105.976 96.4189 104.59C95.87 104.923 95.1532 105.312 94.2832 105.676C93.924 105.824 92.896 106.239 91.4806 106.551C90.7471 106.713 89.8006 106.874 88.6746 106.934L88.6762 106.936Z" fill="#FF444F"/>
<path id="Vector_10" d="M97.9178 111.39C101.579 111.39 104.28 109.79 105.364 109.022C105.461 108.953 105.514 108.839 105.504 108.722C105.494 108.604 105.423 108.501 105.316 108.451L96.5606 104.293C96.4591 104.245 96.341 104.251 96.2462 104.309C95.5826 104.712 94.879 105.07 94.1538 105.374C93.3088 105.723 92.3591 106.021 91.4093 106.231C90.5078 106.43 89.583 106.557 88.6566 106.606C88.5285 106.613 88.4171 106.693 88.3672 106.811C88.3189 106.929 88.3405 107.066 88.427 107.16C91.2247 110.287 94.7809 111.077 96.1797 111.272C96.7801 111.355 97.3623 111.392 97.9195 111.392L97.9178 111.39ZM104.5 108.799C103.049 109.714 100.083 111.139 96.2678 110.61C95.0204 110.437 91.9616 109.763 89.3967 107.215C90.1219 107.147 90.8438 107.034 91.5507 106.878C92.5387 106.66 93.5267 106.35 94.4083 105.986C95.1085 105.693 95.7888 105.351 96.4342 104.97L104.5 108.8V108.799Z" fill="black"/>
</g>
<g id="Group_6">
<path id="Vector_11" d="M104.438 84.8046C104.645 85.5465 105.181 87.6622 104.925 90.4166C104.872 91.0021 104.787 91.5493 104.687 92.0516C107.277 94.52 109.865 96.985 112.455 99.4533C113.007 98.1693 113.742 96.0203 113.785 93.2891C113.812 91.7489 113.82 88.7916 111.999 85.7244C111.347 84.6267 109.411 81.7408 105.695 80.3303C104.339 79.8147 103.014 79.5985 101.77 79.5752C102.575 80.5965 103.746 82.3529 104.438 84.8046Z" fill="#FF444F"/>
<path id="Vector_12" d="M112.452 99.7857C112.473 99.7857 112.497 99.784 112.518 99.779C112.625 99.7574 112.715 99.6842 112.758 99.5844C113.624 97.5702 114.082 95.4544 114.115 93.2938C114.14 91.8251 114.192 88.7696 112.282 85.5545C111.402 84.0708 109.391 81.3779 105.81 80.019C104.524 79.53 103.166 79.2688 101.773 79.2422C101.637 79.2406 101.526 79.3121 101.469 79.4269C101.412 79.5416 101.426 79.6797 101.506 79.7811C102.71 81.308 103.588 83.0296 104.115 84.8958C104.455 86.1017 104.811 88.0328 104.591 90.3864C104.541 90.9203 104.463 91.4592 104.358 91.9881C104.337 92.0996 104.371 92.216 104.455 92.2942C107.031 94.7492 109.604 97.2009 112.181 99.656L112.222 99.6959C112.285 99.7558 112.367 99.7874 112.452 99.7874V99.7857ZM102.459 79.9425C103.531 80.0273 104.576 80.2618 105.574 80.6411C108.966 81.9285 110.873 84.4849 111.71 85.8938C113.523 88.9476 113.473 91.8767 113.45 93.2838C113.42 95.1983 113.044 97.0778 112.33 98.8775C109.902 96.5639 107.475 94.2519 105.045 91.9366C105.138 91.4442 105.208 90.9436 105.253 90.4462C105.483 87.9912 105.108 85.9736 104.754 84.7145C104.268 82.993 103.497 81.3912 102.459 79.9425Z" fill="black"/>
</g>
<g id="Group_7">
<path id="Vector_13" d="M76.9798 89.4727C77.8048 86.8364 79.4365 82.8311 82.7232 78.8259C83.959 77.3206 86.4673 74.32 90.7786 71.8566C93.1571 70.4977 97.332 68.1824 103.072 68.3537C107.495 68.4868 110.766 70.0337 112.142 70.7705C113.074 71.2678 116.176 73.021 118.902 76.5838C121.693 80.2314 122.554 83.7775 123 85.6887C124.005 90.0116 123.639 93.463 123.421 95.3541C123.22 97.1089 122.641 100.805 120.655 105.055C118.048 110.63 114.511 113.97 113.511 114.878C111.397 116.799 107.455 120.38 101.113 121.603C99.1167 121.987 93.0323 123.068 86.8232 119.712C82.0895 117.153 79.7442 113.344 78.8377 111.831C76.5773 108.057 76.045 104.624 75.7556 102.638C74.8558 96.4453 76.3111 91.61 76.9815 89.4694L76.9798 89.4727ZM113.789 93.29C113.814 91.7498 113.822 88.7924 112.002 85.7253C111.35 84.6275 109.413 81.7417 105.698 80.3312C99.8403 78.1073 94.5576 81.4489 93.9655 81.8365C100.13 87.7079 106.294 93.5811 112.456 99.4525C113.009 98.1701 113.744 96.0211 113.787 93.2883L113.789 93.29ZM85.5076 98.9635C85.7022 100.737 86.0431 103.854 88.4749 106.713C91.4406 110.197 95.4142 110.83 96.2242 110.941C100.968 111.598 104.421 109.283 105.173 108.752C98.957 102.862 92.7396 96.9725 86.5238 91.0828C85.9683 92.5548 85.1183 95.3974 85.5076 98.9635Z" fill="#FF7E88"/>
<path id="Vector_14" d="M96.369 122.407C97.9242 122.407 99.5259 122.249 101.174 121.932C107.608 120.691 111.592 117.071 113.732 115.127C115.407 113.605 118.574 110.292 120.954 105.197C122.401 102.102 123.368 98.7101 123.75 95.3935C123.948 93.6703 124.361 90.0826 123.323 85.6149C122.912 83.8452 122.055 80.1626 119.166 76.3819C116.653 73.0952 113.785 71.2722 112.3 70.4772C110.331 69.4243 107.134 68.1436 103.082 68.0222C97.1241 67.8425 92.8927 70.266 90.6139 71.5683C86.1629 74.1115 83.5732 77.2685 82.4671 78.6157C79.854 81.801 77.8996 85.4203 76.6638 89.374C76.0717 91.2668 74.4982 96.295 75.4263 102.689C75.7007 104.578 76.2114 108.098 78.5516 112.005C79.3434 113.327 81.7535 117.352 86.6636 120.007C89.6209 121.605 92.871 122.409 96.3673 122.409L96.369 122.407ZM102.463 68.6775C102.661 68.6775 102.861 68.6808 103.064 68.6858C106.986 68.8039 110.081 70.0431 111.987 71.0627C113.426 71.8311 116.202 73.5975 118.639 76.7844C121.443 80.4504 122.277 84.0381 122.677 85.763C123.689 90.1191 123.286 93.6287 123.092 95.3153C122.717 98.5621 121.771 101.882 120.354 104.914C118.022 109.902 114.925 113.144 113.286 114.633C111.194 116.534 107.3 120.072 101.05 121.276C95.8484 122.279 91.1162 121.654 86.9813 119.418C82.2309 116.85 79.8923 112.943 79.1238 111.661C76.8517 107.867 76.3528 104.435 76.085 102.591C75.1785 96.3466 76.7187 91.4232 77.2992 89.5703C78.5117 85.6981 80.4229 82.1536 82.9827 79.0349C84.0655 77.7159 86.6004 74.6271 90.9449 72.1438C93.0873 70.9196 97.0127 68.6758 102.463 68.6758V68.6775ZM97.9192 111.389C101.575 111.389 104.28 109.789 105.367 109.023C105.449 108.964 105.501 108.875 105.507 108.775C105.514 108.675 105.477 108.578 105.404 108.509L86.7551 90.8394C86.6736 90.7628 86.5605 90.7312 86.4523 90.7562C86.3442 90.7811 86.2544 90.8593 86.2162 90.9624C85.2448 93.5322 84.8872 96.3116 85.1816 98.9962C85.3729 100.741 85.7271 103.988 88.2271 106.924C91.0497 110.238 94.7306 111.065 96.1827 111.266C96.7831 111.35 97.362 111.386 97.9208 111.386L97.9192 111.389ZM104.646 108.708C103.252 109.615 100.211 111.157 96.2725 110.611C94.8953 110.42 91.4057 109.638 88.7311 106.496C86.3642 103.715 86.0365 100.718 85.8402 98.928L85.5093 98.9629L85.8402 98.9263C85.5758 96.5096 85.8619 94.0129 86.6652 91.6743L104.646 108.708ZM112.46 99.7863C112.481 99.7863 112.505 99.7846 112.526 99.7796C112.633 99.758 112.723 99.6848 112.766 99.585C113.632 97.5724 114.09 95.455 114.123 93.2944C114.146 91.824 114.196 88.7652 112.29 85.555C111.41 84.0714 109.398 81.3801 105.818 80.0196C99.9767 77.8024 94.7705 80.9128 93.7859 81.5581C93.701 81.613 93.6461 81.7045 93.6378 81.806C93.6295 81.9074 93.6661 82.0072 93.7393 82.0771L112.23 99.6931C112.293 99.753 112.375 99.7846 112.46 99.7846V99.7863ZM113.458 93.2844C113.428 95.1989 113.05 97.0784 112.338 98.8781L94.5111 81.8941C95.8916 81.0824 100.557 78.7338 105.584 80.6433C108.975 81.9307 110.883 84.4872 111.72 85.896C113.529 88.9449 113.481 91.8773 113.459 93.2861L113.458 93.2844Z" fill="black"/>
</g>
</g>
</g>
</g>
</svg>
