<svg width="120" height="152" viewBox="0 0 120 152" fill="none" xmlns="http://www.w3.org/2000/svg">
<g id="illustration / deriv / light / competence">
<g id="Artboard 123 copy 34">
<g id="Layer 64 copy 4">
<g id="Layer 99 copy">
<g id="Group">
<path id="Vector" d="M108.173 52.2915C108.173 52.2915 46.4643 71.6044 31.1829 76.3358C31.1929 99.2444 31.2029 122.153 31.2143 145.062C56.9029 137.104 82.5914 129.147 108.28 121.189L108.174 52.2915H108.173ZM48.2857 124.453C48.3 114.799 48.3157 105.147 48.3286 95.4929C48.3329 92.4329 48.3372 89.3744 48.3414 86.3144C56.1643 83.8901 63.9886 81.4644 71.8129 79.0386C78.2414 77.0472 84.6671 75.0544 91.0957 73.0615C91.1043 85.7558 91.1129 98.4501 91.1243 111.144C76.8457 115.58 62.5671 120.016 48.2857 124.453Z" fill="#EBECEE" stroke="black" stroke-width="0.571429" stroke-linecap="round" stroke-linejoin="round"/>
<g id="Group_2">
<path id="Vector_2" d="M11.9586 53.439C11.9143 76.329 11.8714 99.2204 11.8271 122.11C18.29 129.76 24.7529 137.41 31.2143 145.06C31.2043 122.152 31.1929 99.2432 31.1829 76.3332C24.7743 68.7018 18.3657 61.0704 11.9586 53.439Z" fill="#EBECEE"/>
<path id="Vector_3" d="M31.2144 145.346C31.1315 145.346 31.0515 145.31 30.9958 145.245L11.6086 122.295C11.5644 122.243 11.5415 122.177 11.5415 122.11L11.6729 53.4388C11.6729 53.3188 11.7486 53.2117 11.8615 53.1702C11.9744 53.1288 12.1001 53.1631 12.1772 53.2545L31.4015 76.1502C31.4444 76.2017 31.4686 76.2659 31.4686 76.3345L31.5001 145.062C31.5001 145.182 31.4258 145.289 31.3129 145.33C31.2815 145.342 31.2472 145.347 31.2144 145.347V145.346ZM12.1129 122.006L30.9286 144.279L30.8972 76.4374L12.2429 54.2217L12.1129 122.006Z" fill="black"/>
</g>
<g id="Group_3">
<path id="Vector_4" d="M83.693 31.9858L108.174 52.2916C108.174 52.2916 46.4659 71.6044 31.1845 76.3358C24.7759 68.703 18.3687 61.0716 11.9587 53.4401L83.693 31.9858Z" fill="white"/>
<path id="Vector_5" d="M31.1829 76.6201C31.1001 76.6201 31.0187 76.5844 30.9644 76.5187L28.2901 73.3344C22.7729 66.763 17.2558 60.193 11.7386 53.623C11.6772 53.5487 11.6558 53.4501 11.6844 53.3573C11.7115 53.2644 11.7844 53.193 11.8758 53.1659L83.6101 31.7116C83.7015 31.6844 83.8001 31.7044 83.8744 31.7659L108.356 52.0716C108.436 52.1387 108.474 52.2444 108.454 52.3473C108.434 52.4501 108.359 52.533 108.259 52.5644C107.642 52.7573 46.3758 71.9316 31.2672 76.6087C31.2401 76.6173 31.2115 76.6216 31.1829 76.6216V76.6201ZM12.4572 53.5887C17.8815 60.0473 23.3044 66.5073 28.7287 72.9673L31.2801 76.0073C45.9429 71.4659 101.687 54.023 107.586 52.1773L83.6272 32.3044L12.4572 53.5887Z" fill="black"/>
</g>
<g id="Group_4">
<path id="Vector_6" d="M91.1242 111.146C76.8456 115.581 62.5671 120.017 48.2856 124.454C48.2999 114.8 48.3156 105.149 48.3285 95.4943C56.1514 93.0858 63.9728 90.6786 71.7942 88.2715C72.1871 88.7372 72.5814 89.2029 72.9742 89.6672C70.9056 92.1629 68.8399 94.6558 66.7728 97.1501C64.8385 96.0686 62.9042 94.9872 60.9714 93.9072C58.1299 97.2972 55.2871 100.686 52.4456 104.077C57.2285 106.883 62.0114 109.69 66.7942 112.499C71.0014 107.429 75.2056 102.359 79.4128 97.2872C83.3156 101.907 87.2214 106.527 91.1242 111.147V111.146Z" fill="#CED0D6"/>
<path id="Vector_7" d="M48.2857 124.739C48.2257 124.739 48.1657 124.72 48.1157 124.683C48.0429 124.629 48 124.543 48 124.453C48.0143 114.799 48.03 105.147 48.0429 95.4929C48.0429 95.3672 48.1243 95.2572 48.2443 95.22L57.5814 92.3458C62.2914 90.8958 67.0014 89.4472 71.71 87.9958C71.82 87.9615 71.9386 87.9958 72.0129 88.0843L73.1929 89.48C73.2814 89.5858 73.2829 89.74 73.1943 89.8472L66.9929 97.33C66.9043 97.4358 66.7543 97.4643 66.6329 97.3972L61.0371 94.2686L58.1929 97.6615C56.4214 99.7729 54.6514 101.886 52.8814 103.997C57.4971 106.706 62.1129 109.414 66.7286 112.124C70.5314 107.541 74.3329 102.957 78.1357 98.3729L79.1914 97.1C79.2457 97.0343 79.3257 96.9972 79.41 96.9972C79.5014 96.9958 79.5743 97.0343 79.63 97.0986C81.5814 99.4086 83.5343 101.719 85.4857 104.029C87.4371 106.339 89.39 108.649 91.3414 110.959C91.4029 111.031 91.4243 111.131 91.3971 111.223C91.37 111.314 91.2986 111.387 91.2071 111.416C80.5657 114.721 69.9229 118.027 59.28 121.334L48.3686 124.724C48.3414 124.733 48.3129 124.737 48.2843 124.737L48.2857 124.739ZM48.6143 95.7043C48.6014 105.159 48.5871 114.611 48.5729 124.064L59.1129 120.79C69.6186 117.526 80.1229 114.263 90.6271 111C88.7686 108.8 86.9086 106.599 85.05 104.399C83.1714 102.176 81.2929 99.9529 79.4143 97.7286L78.5757 98.7386C74.7214 103.386 70.8671 108.031 67.0129 112.677C66.9229 112.784 66.7686 112.811 66.6486 112.741C61.8657 109.934 57.0829 107.127 52.3 104.32C52.2271 104.277 52.1771 104.206 52.1629 104.123C52.1486 104.04 52.1714 103.956 52.2257 103.89C54.0686 101.691 55.9114 99.4929 57.7543 97.2943L60.7514 93.72C60.84 93.6143 60.99 93.5872 61.11 93.6543L66.7043 96.7815L72.6014 89.6658L71.6971 88.5958C67.0471 90.0272 62.3986 91.4586 57.7486 92.89L48.6129 95.7015L48.6143 95.7043Z" fill="black"/>
</g>
<g id="Group_5">
<path id="Vector_8" d="M79.4125 97.2844C82.2911 93.8158 85.1668 90.3458 88.0454 86.8758C85.1754 85.2058 82.3068 83.5358 79.4368 81.8644C77.2825 84.4658 75.1268 87.0658 72.9739 89.6658C72.5811 89.2001 72.1868 88.7344 71.7939 88.2701C71.8011 85.193 71.8068 82.1158 71.8125 79.0387C78.2411 77.0472 84.6668 75.0544 91.0954 73.0615C91.1039 85.7558 91.1125 98.4501 91.1239 111.144C87.2211 106.524 83.3154 101.904 79.4125 97.2844Z" fill="#CED0D6"/>
<path id="Vector_9" d="M91.124 111.431C91.0412 111.431 90.9612 111.396 90.9055 111.33C88.9541 109.02 87.0012 106.71 85.0498 104.4C83.0983 102.09 81.1455 99.78 79.194 97.47C79.1055 97.3643 79.104 97.21 79.1926 97.1028C80.6312 95.3686 82.0698 93.6343 83.5098 91.8986C84.8769 90.25 86.2441 88.6014 87.6112 86.9543L79.5041 82.2343L73.1955 89.8486C73.1412 89.9143 73.0612 89.9514 72.9769 89.9514C72.8955 89.9457 72.8112 89.9143 72.7569 89.85L71.5769 88.4528C71.5326 88.4014 71.5098 88.3357 71.5098 88.2671C71.5169 85.19 71.5226 82.1128 71.5283 79.0357C71.5283 78.91 71.6098 78.8 71.7298 78.7628C77.0555 77.1128 82.3812 75.4614 87.7055 73.81L91.0112 72.7843C91.0983 72.7571 91.1926 72.7728 91.2655 72.8271C91.3383 72.8814 91.3812 72.9657 91.3812 73.0571C91.3898 85.7514 91.3983 98.4457 91.4098 111.14C91.4098 111.26 91.3355 111.367 91.2226 111.409C91.1912 111.42 91.1569 111.426 91.124 111.426V111.431ZM79.7855 97.2828C81.6855 99.5328 83.5869 101.781 85.4869 104.03C87.2712 106.141 89.054 108.251 90.8383 110.363C90.8283 98.0571 90.8198 85.7528 90.8112 73.4486L87.8755 74.3586C82.6169 75.9886 77.3583 77.62 72.0998 79.2486C72.0941 82.22 72.0883 85.1928 72.0812 88.1643L72.9726 89.22L79.2183 81.6814C79.3069 81.5743 79.4612 81.5471 79.5826 81.6171L88.1912 86.6286C88.2641 86.6714 88.314 86.7429 88.3283 86.8257C88.3426 86.9086 88.3212 86.9928 88.2669 87.0586C86.8283 88.7928 85.3898 90.5271 83.9498 92.2628C82.5626 93.9357 81.174 95.61 79.7855 97.2828Z" fill="black"/>
</g>
<g id="Group_6">
<path id="Vector_10" d="M88.0458 86.8774C85.1672 90.3459 82.2915 93.8159 79.4129 97.2859C75.2058 102.357 71.0015 107.427 66.7944 112.497C62.0115 109.69 57.2287 106.883 52.4458 104.076C55.2872 100.685 58.1301 97.2959 60.9715 93.9059C62.9058 94.9874 64.8401 96.0688 66.7729 97.1488C68.8401 94.6545 70.9058 92.1616 72.9744 89.6659C75.1272 87.0659 77.2829 84.4659 79.4372 81.8645C82.3072 83.5345 85.1758 85.2045 88.0458 86.8759V86.8774Z" fill="white"/>
<path id="Vector_11" d="M66.7943 112.782C66.7443 112.782 66.6943 112.769 66.65 112.742C61.8672 109.934 57.0843 107.127 52.3015 104.32C52.2286 104.277 52.1786 104.206 52.1643 104.123C52.15 104.04 52.1729 103.956 52.2272 103.89C54.07 101.692 55.9129 99.493 57.7557 97.2944L60.7529 93.7201C60.8415 93.6144 60.9915 93.5873 61.1115 93.6544L66.7057 96.7816L79.2186 81.6816C79.3072 81.5744 79.4615 81.5473 79.5829 81.6173L88.1915 86.6287C88.2643 86.6716 88.3143 86.743 88.3286 86.8259C88.3429 86.9087 88.3215 86.993 88.2672 87.0587C86.8286 88.793 85.39 90.5273 83.95 92.263C82.5115 93.9973 81.0729 95.733 79.6329 97.4673L78.5772 98.7401C74.7229 103.387 70.8686 108.033 67.0143 112.679C66.9586 112.746 66.8772 112.782 66.7943 112.782ZM52.8815 104C57.4972 106.709 62.1129 109.417 66.7286 112.127C70.5315 107.544 74.3329 102.96 78.1358 98.3759L79.1915 97.103C80.63 95.3687 82.0686 93.6344 83.5086 91.8987C84.8758 90.2501 86.2429 88.6016 87.61 86.9544L79.5029 82.2344L66.9929 97.3316C66.9043 97.4373 66.7543 97.4659 66.6329 97.3987L61.0372 94.2701L58.1929 97.663C56.4215 99.7744 54.6515 101.887 52.8815 103.999V104Z" fill="black"/>
</g>
<g id="Group_7">
<path id="Vector_12" d="M79.6257 20.2644C82.6672 22.9558 85.7072 25.6458 88.7486 28.3387C83.6472 28.8873 78.5443 29.4358 73.4415 29.9858C71.7572 27.1673 70.07 24.3487 68.3857 21.5301C72.1329 21.1087 75.8786 20.6873 79.6257 20.2644Z" fill="#FF7E88"/>
<path id="Vector_13" d="M73.4416 30.2716C73.3416 30.2716 73.2487 30.2188 73.1959 30.133C71.9601 28.0659 70.7244 25.9988 69.4887 23.933L68.1402 21.6773C68.0902 21.5945 68.0859 21.4916 68.1287 21.4045C68.1716 21.3173 68.2559 21.2588 68.353 21.2473L79.593 19.9816C79.673 19.9716 79.7544 19.9973 79.8144 20.0516L88.9373 28.1259C89.0216 28.2002 89.0544 28.3188 89.0202 28.4259C88.9859 28.533 88.8916 28.6116 88.7787 28.623L73.4716 30.2702C73.4616 30.2702 73.4516 30.2716 73.4416 30.2716ZM68.8573 21.7645L69.9787 23.6388C71.183 25.653 72.3887 27.6673 73.5916 29.6816L88.073 28.1245L79.5302 20.563L68.8573 21.7645Z" fill="black"/>
</g>
<g id="Group_8">
<path id="Vector_14" d="M57.2155 10.4802C60.3284 13.1431 63.4398 15.8045 66.5527 18.4674C63.8241 23.8059 61.0941 29.1431 58.367 34.4802C55.2898 31.8017 52.2141 29.1231 49.137 26.4431C51.8312 21.1217 54.5241 15.8017 57.217 10.4802H57.2155Z" fill="#FF7E88"/>
<path id="Vector_15" d="M58.3655 34.7644C58.2969 34.7644 58.2298 34.7401 58.1783 34.6944L48.9483 26.6573C48.8498 26.5715 48.8226 26.4301 48.8812 26.313C51.5755 20.9915 54.2683 15.6715 56.9612 10.3501C57.0012 10.2715 57.0741 10.2158 57.1598 10.1987C57.2455 10.1815 57.3355 10.2044 57.4012 10.2615C60.5141 12.9244 63.6255 15.5858 66.7383 18.2487C66.8383 18.3344 66.8669 18.4787 66.8069 18.5958C65.0198 22.0915 63.2326 25.5858 61.4469 29.0815L58.6212 34.6087C58.5812 34.6873 58.5069 34.743 58.4212 34.7587C58.4026 34.7615 58.3855 34.7644 58.3669 34.7644H58.3655ZM49.4898 26.373L58.2769 34.023L60.9369 28.8215C62.6898 25.393 64.4426 21.9644 66.1955 18.5373C63.2326 16.003 60.2698 13.4687 57.3069 10.933C54.7026 16.0787 52.0969 21.2258 49.4912 26.3715L49.4898 26.373Z" fill="black"/>
</g>
<g id="Group_9">
<path id="Vector_16" d="M49.1358 26.4417C52.2129 29.1202 55.2901 31.7988 58.3658 34.4788C53.2301 36.9817 48.0972 39.4859 42.9629 41.9888C39.8515 39.3088 36.7401 36.6288 33.6272 33.9488C38.7958 31.4474 43.9658 28.9445 49.1343 26.4417H49.1358Z" fill="#FF7E88"/>
<path id="Vector_17" d="M42.9628 42.2745C42.8957 42.2745 42.8286 42.2502 42.7757 42.2059L33.44 34.1659C33.3671 34.1031 33.33 34.0074 33.3428 33.9131C33.3557 33.8174 33.4143 33.7345 33.5014 33.6931L37.1214 31.9402C41.0843 30.0216 45.0471 28.1045 49.0086 26.1859C49.1114 26.1359 49.2343 26.1531 49.3214 26.2274L58.5514 34.2645C58.6243 34.3274 58.66 34.4231 58.6471 34.5174C58.6343 34.6116 58.5757 34.6945 58.4886 34.7374C55.4271 36.2288 52.3671 37.7217 49.3071 39.2145L43.0857 42.2488C43.0457 42.2688 43.0028 42.2774 42.96 42.2774L42.9628 42.2745ZM34.1443 34.0174L43.0071 41.6502L49.06 38.6988C51.9914 37.2702 54.9214 35.8402 57.8528 34.4117L49.09 26.7816C45.1843 28.6731 41.2786 30.5645 37.3728 32.4545L34.1443 34.0174Z" fill="black"/>
</g>
<g id="Group_10">
<path id="Vector_18" d="M43.7715 42.6514C46.8558 45.1799 49.943 47.7057 53.0272 50.2342C52.1458 55.6957 51.263 61.1585 50.3801 66.6214C47.3115 63.9257 44.2458 61.2299 41.1772 58.5328C42.043 53.2399 42.9072 47.9457 43.7715 42.6514Z" fill="#FF444F"/>
<path id="Vector_19" d="M50.3801 66.9086C50.3116 66.9086 50.2444 66.8843 50.1915 66.8372C48.103 65.0029 46.0158 63.1672 43.9287 61.3329L40.9887 58.7486C40.9144 58.6829 40.8801 58.5858 40.8958 58.4886C41.7615 53.1958 42.6258 47.9015 43.4901 42.6072C43.5073 42.5058 43.5758 42.4215 43.6716 42.3858C43.7673 42.35 43.8744 42.3672 43.953 42.4315C45.4944 43.6958 47.0373 44.9586 48.5801 46.2229C50.123 47.4872 51.6658 48.75 53.2073 50.0143C53.2858 50.0786 53.3244 50.18 53.3087 50.2815L50.6616 66.6686C50.6444 66.7715 50.5744 66.8572 50.4758 66.8915C50.4444 66.9029 50.4115 66.9086 50.3787 66.9086H50.3801ZM41.4858 58.4229L44.3073 60.9029C46.2658 62.6243 48.223 64.3458 50.1815 66.0658L52.7201 50.35C51.2201 49.12 49.7201 47.8915 48.2201 46.6629C46.8044 45.5043 45.3901 44.3443 43.9758 43.1858C43.1473 48.2643 42.3173 53.3443 41.4873 58.4229H41.4858Z" fill="black"/>
</g>
<g id="Group_11">
<path id="Vector_20" d="M68.3843 21.5301C70.0686 24.3473 71.7557 27.1659 73.44 29.9859C78.5429 29.4373 83.6457 28.8887 88.7471 28.3387C84.9957 33.2673 81.2443 38.1973 77.4929 43.1273C77.9214 48.1287 78.35 53.1316 78.78 58.1344C77.5429 57.9073 76.3057 57.6787 75.0686 57.4516C71.6928 56.8301 68.3171 56.2101 64.94 55.5887C60.0871 59.2673 55.2329 62.9444 50.3786 66.623C51.26 61.1601 52.1429 55.6973 53.0257 50.2359C49.9414 47.7073 46.8543 45.1816 43.77 42.653C43.5 42.433 43.2314 42.2101 42.9614 41.9901C48.0957 39.4873 53.2286 36.983 58.3643 34.4801C61.0928 29.143 63.8229 23.8059 66.55 18.4673C67.1614 19.4887 67.7714 20.5087 68.3829 21.5316L68.3843 21.5301Z" fill="#FF535E"/>
<path id="Vector_21" d="M50.38 66.9087C50.3285 66.9087 50.2785 66.8959 50.2328 66.8673C50.1328 66.8073 50.08 66.6916 50.0985 66.5773L52.7185 50.3516C51.2185 49.1216 49.7185 47.893 48.2185 46.6645C46.6757 45.4002 45.1328 44.1373 43.5914 42.873C43.4571 42.763 43.3214 42.6516 43.1871 42.5416C43.0528 42.4316 42.9185 42.3202 42.7828 42.2102C42.7071 42.1487 42.6685 42.053 42.68 41.9559C42.6914 41.8587 42.7514 41.7745 42.8385 41.7316L49.06 38.6973C52.0914 37.2187 55.1228 35.7402 58.1557 34.263L60.9385 28.8216C62.7257 25.3273 64.5128 21.8316 66.2985 18.3359C66.3457 18.243 66.44 18.1845 66.5428 18.1802C66.6457 18.1802 66.7442 18.2302 66.7971 18.3187L69.9785 23.6373C71.1828 25.6516 72.3885 27.6659 73.5914 29.6802L88.7171 28.053C88.8314 28.0402 88.9399 28.0973 88.9971 28.1973C89.0528 28.2973 89.0442 28.4202 88.9757 28.5102C85.2471 33.4087 81.5171 38.3102 77.7885 43.2102L79.0657 58.1073C79.0728 58.1959 79.0385 58.283 78.9728 58.343C78.9071 58.403 78.8171 58.4287 78.7285 58.413L65.0114 55.8902C62.6185 57.7045 60.2242 59.5173 57.8314 61.3316C55.4042 63.1702 52.9771 65.0087 50.5514 66.8487C50.5 66.8873 50.44 66.9073 50.3785 66.9073L50.38 66.9087ZM43.4885 42.0502C43.5085 42.0659 43.5285 42.083 43.5485 42.0987C43.6828 42.2087 43.8171 42.3202 43.9528 42.4302C45.4957 43.6945 47.0385 44.9587 48.5814 46.2216C50.1242 47.4845 51.6671 48.7487 53.2085 50.013C53.2871 50.0773 53.3257 50.1787 53.31 50.2802L50.7771 65.9645C53.0142 64.2687 55.2514 62.573 57.4885 60.8787C59.9157 59.0402 62.3428 57.2016 64.7685 55.3616C64.8328 55.313 64.9142 55.293 64.9928 55.3087L78.4642 57.7859L77.2099 43.1516C77.2042 43.0816 77.2242 43.0102 77.2671 42.9545C80.8842 38.2002 84.5014 33.4473 88.1185 28.6945L73.4714 30.2702C73.36 30.283 73.2528 30.2287 73.1957 30.133C71.96 28.0659 70.7242 25.9987 69.4885 23.933L68.14 21.6773L66.5728 19.0559C64.8642 22.3987 63.1557 25.7402 61.4471 29.0816L58.6214 34.6087C58.5928 34.6645 58.5485 34.7087 58.4928 34.7359C55.4314 36.2273 52.3714 37.7202 49.3114 39.213L43.49 42.0516L43.4885 42.0502Z" fill="black"/>
</g>
</g>
</g>
</g>
</g>
</g>
</svg>
