<svg width="128" height="128" viewBox="0 0 128 128" fill="none" xmlns="http://www.w3.org/2000/svg">
<g id="illustration / deriv / light / wallet-maintenance">
<g id="Vector">
<path d="M105.854 58.8789C105.851 69.4277 105.848 79.9754 105.845 90.5243C105.848 90.7513 105.85 91.0823 105.845 91.4812C105.834 92.29 105.829 92.7025 105.786 93.1283C105.66 94.3497 105.264 95.2501 105.163 95.4704C105.047 95.7258 104.768 96.2974 104.273 96.9222C103.974 97.3007 103.682 97.5888 103.445 97.8C103.178 97.974 102.796 98.1932 102.315 98.3819C101.287 98.7841 100.427 98.8021 99.9558 98.8067C98.8151 98.8192 97.9577 98.565 97.2204 98.3389C96.4968 98.1175 95.9101 97.8622 95.4951 97.6588C94.6356 97.3097 93.7772 96.9607 92.9177 96.6127V70.2253C92.9261 69.7034 92.9124 69.0447 92.8387 68.2901C92.7165 67.0405 92.4869 66.1163 92.4216 65.8655C92.0392 64.3708 91.5147 63.3156 91.1924 62.6749C90.9227 62.1383 90.2644 60.9001 89.1511 59.5274C88.6813 58.949 88.0261 58.1514 86.9897 57.3164C86.1133 56.6102 85.3444 56.1844 84.8884 55.9335C84.1605 55.5348 83.5138 55.2546 83.0145 55.0614C64.2615 47.1687 45.5085 39.2748 26.7555 31.381C25.8676 31.076 25.1703 30.7066 24.6742 30.4038C24.3614 30.2117 23.9116 29.9337 23.385 29.4672C22.9794 29.1078 22.5529 28.7282 22.1652 28.0955C21.9577 27.7555 21.6186 27.2008 21.5111 26.4054C21.3563 25.2598 21.7808 24.3537 21.9778 23.9493C22.4001 23.077 22.971 22.5811 23.464 22.1518C23.6462 21.9936 24.0791 21.6331 24.9417 21.152C26.2826 20.404 27.4739 20.0266 28.1333 19.8448C29.7037 19.412 30.9382 19.3511 31.8114 19.3126C33.6515 19.2324 35.0556 19.4459 35.5885 19.5363C35.8719 19.5849 36.625 19.7193 37.5814 19.9928C38.2839 20.1938 38.8938 20.4118 39.3952 20.6096C57.8638 28.369 76.3324 36.1272 94.801 43.8866C95.1559 44.0256 95.6657 44.2346 96.2682 44.5137C97.2057 44.9463 98.0525 45.3383 98.9942 45.9812C100.05 46.7009 100.748 47.4115 101.166 47.842C101.528 48.2148 102.525 49.2768 103.515 50.915C104.585 52.6842 105.081 54.1902 105.2 54.562C105.621 55.8782 105.742 56.8442 105.775 57.1243C105.856 57.826 105.866 58.4281 105.854 58.8789Z" fill="#CED0D6"/>
<path d="M31.801 19.0355C33.1982 18.9746 34.3475 19.0809 35.0636 19.1767L35.6291 19.2624L36.383 19.4088C36.7306 19.4836 37.1635 19.5862 37.6476 19.7246C38.1809 19.8772 38.6623 20.0402 39.0832 20.1962L39.4845 20.3499L39.4894 20.3509V20.352L94.8957 43.6282C95.2539 43.7686 95.766 43.9784 96.3713 44.2587C97.308 44.6911 98.1716 45.0915 99.133 45.7478C100.211 46.4824 100.924 47.2083 101.346 47.6425C101.716 48.0234 102.727 49.1017 103.732 50.7638C104.817 52.5591 105.323 54.0887 105.445 54.4716C105.767 55.4767 105.917 56.283 105.987 56.7459L106.032 57.09L106.081 57.6086C106.119 58.1064 106.123 58.5398 106.113 58.8864C106.11 69.4327 106.107 79.9783 106.104 90.5247C106.107 90.7536 106.109 91.0855 106.104 91.4846C106.093 92.2885 106.088 92.7162 106.043 93.1577V93.1587C105.945 94.1089 105.69 94.8715 105.524 95.2919L105.396 95.592C105.274 95.8596 104.984 96.4536 104.471 97.1019L104.47 97.1008C104.159 97.4942 103.856 97.7937 103.611 98.0126C103.601 98.0213 103.591 98.0297 103.58 98.0367C103.302 98.2179 102.904 98.446 102.404 98.6421C101.602 98.9561 100.897 99.0451 100.393 99.0719L99.9582 99.0834C98.7779 99.0962 97.8897 98.8327 97.1486 98.6055V98.6045C96.4105 98.3785 95.8112 98.1192 95.3869 97.9112V97.9102C94.5329 97.5633 93.6801 97.2175 92.8263 96.8718C92.7257 96.8311 92.6584 96.7278 92.6584 96.6125V70.2202C92.6666 69.7076 92.6536 69.0606 92.5812 68.3192C92.4611 67.0904 92.2351 66.1815 92.1721 65.9393V65.9383C91.7976 64.4748 91.2838 63.4422 90.964 62.8065C90.6995 62.2801 90.0516 61.0611 88.9553 59.7093C88.4883 59.1344 87.8481 58.3543 86.8342 57.5375C85.976 56.846 85.2226 56.4294 84.7697 56.1802V56.1792C84.0537 55.787 83.4169 55.5117 82.926 55.3218L82.9201 55.3197C64.1702 47.4283 45.4199 39.5354 26.6701 31.6429C25.7647 31.3313 25.0532 30.9539 24.5461 30.6443C24.2303 30.4504 23.7641 30.1623 23.2199 29.6802C22.8132 29.32 22.3593 28.9182 21.9484 28.2477V28.2467C21.7389 27.9032 21.3713 27.3049 21.2551 26.445C21.0879 25.2077 21.5471 24.2343 21.7482 23.8214L21.923 23.4921C22.3475 22.7634 22.8689 22.3123 23.301 21.9361C23.4951 21.7675 23.943 21.3968 24.8224 20.9062C26.1867 20.1453 27.398 19.761 28.0685 19.5761C29.6662 19.1358 30.9233 19.0741 31.801 19.0355ZM31.8215 19.5897C30.9527 19.6279 29.7403 19.6884 28.1974 20.1136C27.5491 20.2923 26.3779 20.663 25.0607 21.3976C24.4267 21.7513 24.033 22.0367 23.8039 22.2195L23.6271 22.3669C23.1349 22.7956 22.6025 23.2602 22.2072 24.0766V24.0776C22.0142 24.4739 21.6245 25.3123 21.7668 26.3655C21.8655 27.0961 22.1766 27.6067 22.382 27.9434L22.5197 28.1557C22.8459 28.6274 23.196 28.94 23.55 29.2536C24.0589 29.7045 24.4931 29.9731 24.8029 30.1633C25.2263 30.4217 25.8001 30.7304 26.5177 31.003L26.8342 31.117L26.8498 31.1232C45.6028 39.017 64.3566 46.9104 83.1096 54.8031C83.6161 54.9993 84.2697 55.2833 85.006 55.6867C85.4651 55.9393 86.2512 56.3745 87.1457 57.0952C88.2041 57.948 88.8733 58.7636 89.3459 59.3454C90.4758 60.7387 91.1451 61.9959 91.4201 62.543C91.7448 63.1885 92.2808 64.2658 92.6711 65.7908L92.7482 66.1077C92.8482 66.5411 93.0027 67.3081 93.0959 68.2607C93.1706 69.0262 93.1843 69.695 93.176 70.2255L93.1769 96.4212L95.5871 97.3999L95.6027 97.4062C96.0083 97.605 96.5826 97.8554 97.2912 98.0723C98.0246 98.2971 98.8523 98.5412 99.9533 98.5292L100.365 98.5177C100.839 98.4927 101.487 98.4105 102.226 98.1214C102.679 97.9438 103.04 97.7375 103.295 97.5724C103.52 97.3703 103.795 97.0983 104.075 96.7432L104.244 96.5205C104.616 96.0094 104.834 95.5624 104.931 95.3494V95.3483C105.026 95.1413 105.407 94.2738 105.528 93.0981L105.554 92.7865C105.573 92.4635 105.578 92.0874 105.586 91.4773V90.5237C105.589 79.975 105.592 69.4276 105.595 58.8791V58.8707C105.607 58.4315 105.598 57.8439 105.519 57.159L105.475 56.8348C105.409 56.3946 105.265 55.6202 104.955 54.6515C104.84 54.2902 104.352 52.8081 103.298 51.0659C102.323 49.4524 101.341 48.4069 100.987 48.0419C100.572 47.6152 99.8887 46.9198 98.8547 46.2152C98.163 45.743 97.524 45.4083 96.8517 45.0879L96.1652 44.768C95.5684 44.4916 95.0634 44.2844 94.7121 44.1469L94.7062 44.1448C85.4719 40.2651 76.2374 36.385 67.0031 32.5056C57.7707 28.627 48.5382 24.7485 39.3058 20.8696L38.9142 20.72C38.5034 20.5678 38.0349 20.4088 37.5148 20.26C36.5704 19.9899 35.8262 19.8582 35.547 19.8103C35.0227 19.7214 33.6372 19.5105 31.8215 19.5897Z" fill="black"/>
<path d="M110.238 56.1465C110.226 67.0219 110.215 77.8961 110.203 88.7703C110.201 89.0268 110.187 89.3657 110.138 89.76C110.092 90.1147 110.005 90.7768 109.703 91.5563C109.608 91.8015 109.253 92.6725 108.479 93.5651C108.073 94.0316 107.679 94.3605 107.387 94.5752C106.073 95.6506 104.757 96.7251 103.442 97.8007C103.679 97.5894 103.971 97.3013 104.27 96.9228C104.765 96.298 105.044 95.7263 105.16 95.4711C105.261 95.2507 105.657 94.3503 105.782 93.129C105.825 92.7031 105.831 92.2907 105.841 91.4818C105.847 91.0829 105.844 90.752 105.841 90.5248C105.844 79.976 105.848 69.4283 105.851 58.8795C105.862 58.4287 105.853 57.8265 105.772 57.125C105.739 56.8448 105.618 55.8787 105.197 54.5626C105.078 54.1909 104.581 52.6849 103.511 50.9156C102.521 49.2775 101.525 48.2155 101.162 47.8426C100.744 47.4122 100.047 46.7015 98.9909 45.9818C98.0492 45.339 97.2023 44.9469 96.2649 44.5142C95.6624 44.2352 95.1526 44.0262 94.7977 43.8872C76.3291 36.1278 57.8604 28.3696 39.3918 20.6102C38.8905 20.4125 38.2806 20.1944 37.578 19.9933C36.6216 19.72 35.8685 19.5855 35.5852 19.537C35.0522 19.4465 33.6482 19.233 31.8081 19.3132C30.9349 19.3516 29.7004 19.4127 28.1299 19.8453C27.4706 20.0273 26.2793 20.4046 24.9384 21.1525C24.0758 21.6338 23.6429 21.9942 23.4606 22.1524C22.9677 22.5817 22.3968 23.0777 21.9744 23.9498C21.7775 24.3544 21.353 25.2604 21.5078 26.406C21.6152 27.2014 21.9544 27.7561 22.1619 28.0962C22.5495 28.7288 22.9761 29.1085 23.3816 29.4677C23.9083 29.9344 24.358 30.2123 24.6709 30.4043C25.167 30.7071 25.8643 31.0765 26.7522 31.3816C45.5052 39.2755 64.2582 47.1693 83.0112 55.062C83.5105 55.2551 84.1572 55.5353 84.885 55.9342C85.3411 56.185 86.11 56.6109 86.9864 57.317C88.0228 58.1519 88.678 58.9495 89.1477 59.5279C90.2611 60.9006 90.9194 62.139 91.189 62.6756C91.5114 63.3162 92.0359 64.3714 92.4182 65.8661C92.4835 66.1169 92.7132 67.0411 92.8354 68.2906C92.9091 69.0453 92.9228 69.704 92.9144 70.2259V99.7541C92.908 100.849 92.9007 101.945 92.8943 103.04C92.8943 103.353 92.8775 103.761 92.8059 104.23C92.6911 104.973 92.4941 105.526 92.3993 105.772C92.2876 106.06 92.0707 106.614 91.6356 107.224C91.3239 107.661 91.0184 107.962 90.7635 108.212C90.5002 108.472 90.2632 108.674 90.0841 108.82C88.8739 109.811 87.6636 110.804 86.4534 111.796C86.8515 111.425 87.0875 111.067 87.2866 110.767C87.4424 110.531 87.9122 109.79 88.2303 108.686C88.3325 108.333 88.4441 107.853 88.5052 107.266C88.5274 95.8201 88.5505 84.3732 88.5726 72.9261C88.5695 72.6528 88.5579 72.263 88.5126 71.7997C88.3388 69.9932 87.8269 68.6861 87.4814 67.8218C87.2065 67.1326 86.5313 65.5713 85.2611 63.8461C84.6912 63.0711 83.6948 61.7389 82.0095 60.4849C80.8614 59.6308 79.7891 59.1066 78.996 58.7835L22.282 34.9665C21.7301 34.7359 20.9843 34.3959 20.1301 33.9237C19.2906 33.4593 18.4448 32.9904 17.5821 32.2752C16.7795 31.6087 15.1754 30.2789 14.4444 27.9471C14.2179 27.2262 14.1199 26.5483 14.0862 25.9642V25.9552C14.0873 25.6197 14.0873 25.2841 14.0883 24.9486C14.1094 24.7441 14.1505 24.4492 14.2369 24.1035C14.4265 23.3352 14.773 22.5692 15.4555 21.6474C16.6342 20.0578 18.0888 18.9845 18.8756 18.4568C20.3323 17.4819 21.5594 16.9961 22.519 16.6232C22.9119 16.4707 24.7446 15.7702 27.4864 15.299C31.0191 14.6924 33.823 14.8494 34.8911 14.9319C36.1003 15.0257 38.6187 15.2957 41.687 16.2718C42.9741 16.6819 44.0432 17.1158 44.8395 17.4683C62.9953 25.0977 81.1521 32.7272 99.309 40.3566C99.8967 40.5747 100.674 40.8967 101.553 41.361C102.455 41.8367 103.63 42.466 104.9 43.6104C106.245 44.8227 107.033 46.0157 107.606 46.8959C108.175 47.7703 108.813 48.7622 109.346 50.2456C109.469 50.5879 109.993 52.0872 110.179 54.1694C110.249 54.9637 110.252 55.6416 110.238 56.1465Z" fill="white"/>
<path d="M27.4456 15.0248C31.005 14.4136 33.8305 14.5714 34.9094 14.6547C36.1295 14.7493 38.6686 15.0219 41.761 16.0057C43.0583 16.419 44.1361 16.856 44.9387 17.2113C63.0901 24.8388 81.2413 32.4668 99.3938 40.0944L99.8752 40.2805C100.39 40.4875 101 40.759 101.668 41.1118C102.573 41.5892 103.772 42.2306 105.067 43.3976C106.439 44.6343 107.243 45.853 107.819 46.7374C108.39 47.6147 109.043 48.6291 109.588 50.1452C109.715 50.4992 110.248 52.0254 110.437 54.1427L110.479 54.7262C110.509 55.2851 110.508 55.7694 110.497 56.1546C110.485 67.0202 110.474 77.9061 110.462 88.7706V88.7727C110.46 89.0379 110.445 89.3885 110.395 89.7964V89.7974C110.348 90.1574 110.258 90.8485 109.943 91.6618C109.842 91.922 109.472 92.8268 108.669 93.7531L108.668 93.7542C108.252 94.2325 107.847 94.571 107.544 94.7946C106.23 95.8699 104.914 96.9452 103.6 98.0204C103.488 98.112 103.327 98.0913 103.24 97.9734C103.152 97.8555 103.169 97.684 103.277 97.5875C103.505 97.3841 103.785 97.1071 104.073 96.7437V96.7426C104.548 96.1419 104.817 95.5932 104.928 95.3498V95.3488C105.023 95.1416 105.404 94.2741 105.525 93.0985L105.55 92.7869C105.57 92.4638 105.575 92.0875 105.582 91.4778V90.5241C105.584 85.2498 105.585 79.9754 105.587 74.7013C105.589 69.4275 105.591 64.1536 105.592 58.8795V58.8722C105.603 58.4319 105.594 57.8433 105.515 57.1584V57.1573C105.483 56.8854 105.365 55.9409 104.952 54.652C104.837 54.2911 104.348 52.8081 103.294 51.0654C102.319 49.4519 101.338 48.407 100.983 48.0424C100.62 47.6689 100.053 47.0891 99.2239 46.4781L98.8518 46.2156C98.1603 45.7436 97.521 45.4087 96.8489 45.0884L96.1624 44.7684C95.5657 44.4921 95.0606 44.2849 94.7092 44.1473L94.7034 44.1452C85.4691 40.2655 76.2346 36.3855 67.0002 32.5061C57.7675 28.6273 48.5347 24.749 39.302 20.87L38.9114 20.7205C38.5004 20.5682 38.0314 20.4093 37.511 20.2604C36.5666 19.9905 35.8231 19.8585 35.5442 19.8108C35.0201 19.7218 33.6348 19.511 31.8186 19.5902C30.9499 19.6284 29.7376 19.6879 28.1946 20.113C27.5464 20.2918 26.3753 20.6633 25.0579 21.3981C24.2131 21.8695 23.794 22.2183 23.6233 22.3664L23.6243 22.3674C23.132 22.7962 22.5997 23.2607 22.2043 24.077C22.0114 24.4734 21.6216 25.3125 21.7639 26.366C21.8625 27.0962 22.1727 27.6071 22.3782 27.9439L22.5168 28.1561C22.8429 28.6276 23.1924 28.9407 23.5461 29.2541C24.0545 29.7045 24.4884 29.9727 24.7981 30.1628C25.2215 30.4212 25.7968 30.7297 26.5149 31.0024L26.8313 31.1174L26.8469 31.1237C45.5972 39.0165 64.3476 46.9089 83.0979 54.8004C83.6053 54.9967 84.2638 55.282 85.0032 55.6872L85.4055 55.912C85.8619 56.1745 86.471 56.5542 87.1418 57.0946C88.2007 57.9476 88.8704 58.7639 89.343 59.3459C90.4733 60.7394 91.1424 61.9964 91.4172 62.5435C91.7421 63.189 92.278 64.2666 92.6682 65.7923C92.7361 66.0531 92.9689 66.9924 93.093 68.2611C93.168 69.0287 93.1816 69.699 93.1731 70.2301V99.7552L93.1536 103.041C93.1535 103.365 93.136 103.788 93.0618 104.274V104.276C92.9426 105.046 92.738 105.62 92.6389 105.877L92.6379 105.879C92.5239 106.173 92.2966 106.753 91.8411 107.392C91.5144 107.849 91.1944 108.165 90.9387 108.416C90.6682 108.683 90.424 108.889 90.2405 109.038C89.0304 110.03 87.8207 111.023 86.6106 112.015C86.4997 112.106 86.3417 112.087 86.2532 111.972C86.1647 111.856 86.1781 111.685 86.2834 111.587C86.6564 111.239 86.8772 110.904 87.0754 110.606C87.2242 110.38 87.6763 109.667 87.9827 108.603L88.0579 108.326C88.1315 108.03 88.202 107.668 88.2463 107.249C88.2685 95.81 88.2916 84.3696 88.3137 72.9289C88.3114 72.728 88.3045 72.4635 88.2825 72.1531L88.2551 71.8279C88.0855 70.0647 87.5865 68.7891 87.2434 67.9307C86.9737 67.2546 86.309 65.7162 85.0579 64.0168C84.4925 63.248 83.5146 61.9427 81.8616 60.7126C80.7347 59.8743 79.6821 59.3588 78.9036 59.0416H78.9016L22.1877 35.2237V35.2248C21.6291 34.9914 20.8747 34.6471 20.011 34.1697C19.1727 33.706 18.3077 33.226 17.4241 32.4935C16.6195 31.8253 14.9562 30.4519 14.1985 28.0348V28.0338C13.9638 27.2866 13.8622 26.5847 13.8274 25.9812V25.954C13.8285 25.6158 13.8283 25.2864 13.8293 24.947L13.8313 24.9178C13.8535 24.703 13.896 24.3934 13.9866 24.031C14.1867 23.2209 14.5513 22.421 15.2522 21.4744C16.4576 19.8489 17.9418 18.7557 18.7385 18.2214L19.2825 17.8721C20.5265 17.1086 21.5879 16.6898 22.4309 16.3622C22.8332 16.206 24.6826 15.4996 27.4456 15.0248ZM34.8723 15.2078C33.8147 15.1262 31.0329 14.9708 27.5276 15.5728C24.8086 16.04 22.9926 16.7335 22.6077 16.883C21.6519 17.2543 20.4456 17.7331 19.0129 18.6919L19.012 18.6909C18.235 19.212 16.8101 20.2663 15.6584 21.8195C14.9947 22.716 14.6667 23.4484 14.4875 24.1743C14.4064 24.4991 14.3662 24.7771 14.3459 24.9711C14.345 25.2928 14.346 25.624 14.345 25.9467L14.3811 26.3859C14.4317 26.8402 14.5262 27.3377 14.6897 27.8581C15.3938 30.1041 16.9396 31.3903 17.7405 32.0554C18.5822 32.7531 19.4086 33.2122 20.2493 33.6772C21.0938 34.144 21.8311 34.4805 22.3762 34.7082L79.0872 58.524C79.8948 58.8531 80.9882 59.3869 82.1575 60.2567C83.8745 61.5344 84.8896 62.8926 85.4641 63.6739C86.7531 65.4245 87.4388 67.0098 87.719 67.7122C88.0668 68.5823 88.5918 69.921 88.7698 71.7703C88.8162 72.2447 88.8281 72.6439 88.8313 72.9227V72.9258C88.8092 84.3728 88.7861 95.8204 88.7639 107.266C88.7639 107.276 88.764 107.286 88.7629 107.296C88.6997 107.904 88.584 108.402 88.4778 108.768C88.2974 109.393 88.068 109.906 87.8723 110.283C88.5571 109.721 89.2422 109.16 89.927 108.599L89.928 108.598C90.1025 108.456 90.3325 108.259 90.5881 108.007C90.8422 107.758 91.1333 107.472 91.4299 107.056C91.8443 106.475 92.051 105.947 92.1604 105.665C92.2511 105.43 92.4397 104.899 92.55 104.185C92.6187 103.734 92.635 103.342 92.635 103.04V103.037C92.6382 102.49 92.6423 101.942 92.6458 101.395C92.6492 100.848 92.6523 100.301 92.6555 99.7541V70.2207L92.6575 69.8118C92.6538 69.3787 92.6327 68.875 92.5784 68.3186C92.4582 67.09 92.2322 66.1818 92.1692 65.9398L92.1682 65.9387C91.7939 64.4753 91.2811 63.4425 90.9612 62.807C90.6968 62.2807 90.0486 61.0614 88.9524 59.7098C88.4856 59.1349 87.8443 58.3549 86.8303 57.538C86.1867 57.0195 85.6024 56.6551 85.1594 56.4003L84.7668 56.1807C84.0506 55.7882 83.4143 55.5122 82.9231 55.3222L82.9163 55.3201V55.3191C64.1666 47.4278 45.4169 39.5359 26.6672 31.6434C25.9886 31.4098 25.4186 31.1396 24.9622 30.8884L24.5422 30.6448C24.2263 30.4509 23.7604 30.1629 23.2161 29.6807C22.8096 29.3206 22.3562 28.9183 21.9456 28.2482V28.2471C21.736 27.9037 21.3674 27.3055 21.2512 26.4455C21.084 25.2078 21.5435 24.2335 21.7444 23.8209C22.1938 22.8934 22.8037 22.3664 23.2971 21.9366C23.4913 21.7681 23.9394 21.3972 24.8186 20.9066C26.183 20.1456 27.3953 19.7615 28.0657 19.5766C29.6631 19.1365 30.9196 19.0746 31.7971 19.036C33.6601 18.9548 35.0827 19.1708 35.6252 19.2629C35.9131 19.3121 36.6766 19.4483 37.6448 19.725L38.1604 19.8808C38.4922 19.9858 38.7996 20.0926 39.0803 20.1966L39.4817 20.3493L39.4866 20.3514C48.7208 24.2311 57.9554 28.1112 67.1897 31.9906C76.4221 35.8692 85.6546 39.7477 94.887 43.6266L95.5334 43.8901C95.7828 43.9956 96.0635 44.1184 96.3674 44.2592L97.0588 44.5823C97.7422 44.9079 98.4092 45.2551 99.1301 45.7472C100.208 46.4816 100.919 47.2078 101.341 47.6419C101.712 48.0229 102.724 49.1016 103.729 50.7642C104.815 52.5599 105.32 54.0895 105.443 54.4721C105.764 55.4772 105.914 56.2834 105.984 56.7464L106.03 57.0894V57.0904C106.112 57.8051 106.121 58.419 106.11 58.8795C106.108 64.1538 106.106 69.4283 106.105 74.7024C106.103 79.9762 106.101 85.25 106.1 90.5241C106.103 90.7525 106.106 91.0855 106.1 91.4861C106.09 92.2903 106.084 92.7168 106.039 93.1581V93.1592C105.942 94.1093 105.687 94.8719 105.521 95.2923L105.393 95.5924C105.345 95.698 105.268 95.8527 105.164 96.0431C105.853 95.4802 106.542 94.9176 107.23 94.3544L107.24 94.346L107.468 94.1714C107.711 93.9747 107.996 93.7121 108.289 93.3756C109.034 92.517 109.375 91.6797 109.464 91.4495C109.753 90.704 109.837 90.0705 109.882 89.7211C109.929 89.3422 109.943 89.0165 109.945 88.7695L109.98 56.1462V56.1378C109.993 55.6415 109.99 54.9754 109.921 54.195C109.738 52.1485 109.224 50.6758 109.105 50.3449C108.584 48.8946 107.961 47.9255 107.394 47.0542C106.824 46.1783 106.051 45.01 104.734 43.8221C103.489 42.7005 102.337 42.0835 101.439 41.6095C100.571 41.1514 99.8038 40.8335 99.2239 40.6182L99.2141 40.6141C81.0574 32.9847 62.9009 25.3551 44.7454 17.7258L44.7405 17.7237C43.9506 17.374 42.8902 16.9436 41.6135 16.5368C38.5693 15.5684 36.0706 15.3008 34.8723 15.2078Z" fill="black"/>
<path d="M59.6892 36.851C58.5107 38.6786 56.6302 39.3344 56.3707 39.4206C54.5626 40.0213 52.9998 39.5888 51.8794 39.2637C49.4402 38.5556 47.9242 37.1351 46.6109 35.8786C45.3445 34.6659 43.4385 32.8002 42.4316 29.7316C42.0246 28.4906 41.4417 26.6334 41.9636 24.3592C42.1707 23.4546 42.6472 21.3854 44.5106 20.1472C45.9628 19.1847 47.4973 19.2342 48.3666 19.2624C49.3622 19.295 50.2556 19.4999 51.0498 19.7868V19.7925C51.1349 21.0914 51.4199 22.8186 52.2722 24.6603C54.5654 29.627 59.217 31.6256 60.5642 32.1472C60.7684 33.6878 60.6479 35.3669 59.6906 36.8524L59.6892 36.851Z" fill="#FF444F"/>
<path d="M44.6339 19.7179C46.083 18.884 47.5601 18.9365 48.3761 18.963C49.4075 18.9967 50.3322 19.209 51.1515 19.505C51.2658 19.5463 51.341 19.652 51.3468 19.7725H51.3487C51.4321 21.0453 51.7112 22.7346 52.544 24.5343C54.6459 29.0865 58.7817 31.0952 60.3868 31.753L60.6729 31.8673L60.7433 31.9063C60.8073 31.954 60.8506 32.0262 60.8614 32.1075C61.071 33.6884 60.9522 35.448 59.9425 37.0147C59.9391 37.02 59.9334 37.0234 59.9298 37.0284C58.6933 38.933 56.7406 39.6136 56.4649 39.7052C54.5619 40.3373 52.9193 39.8778 51.796 39.5518C49.2807 38.8216 47.7185 37.354 46.4034 36.0958C45.132 34.8783 43.178 32.9686 42.1466 29.8253C41.7376 28.5782 41.1294 26.6522 41.671 24.2921L41.7647 23.8985C42.0247 22.8589 42.619 21.0443 44.3448 19.8975L44.6339 19.7179ZM48.3565 19.5626C47.4882 19.5344 46.0414 19.4925 44.6759 20.3975C42.9221 21.5634 42.4638 23.5182 42.2559 24.4259C41.7538 26.614 42.3119 28.4029 42.7169 29.6378C43.6992 32.6314 45.5571 34.4543 46.8185 35.6622C48.1298 36.9168 49.6002 38.2898 51.963 38.9757C53.0804 39.2999 54.5635 39.7049 56.2765 39.1358C56.5203 39.0548 58.316 38.4261 59.4366 36.6886L59.4454 36.6768C60.3088 35.3291 60.4529 33.8041 60.2862 32.3585C58.7849 31.7582 54.5431 29.8031 52.2267 25.253L52.0001 24.7862C51.1702 22.993 50.8679 21.3069 50.7657 20.0059C50.0432 19.7619 49.2413 19.5916 48.3565 19.5626Z" fill="black"/>
<path d="M62.1048 10.2622C60.5278 11.4452 58.9522 12.6296 57.3752 13.8127C57.3171 14.1703 57.1767 14.7526 56.7782 15.3448C55.9046 16.6438 54.4963 16.9547 54.1234 17.0324C52.8711 17.2883 51.877 16.9194 51.1282 16.6409C49.4434 16.0148 48.4181 14.9561 47.9005 14.4106C46.0257 12.4261 45.3832 10.1463 45.1436 8.91095C48.1444 6.64525 51.1481 4.37955 54.1489 2.11386C54.3318 3.01845 54.7516 4.51245 55.8167 6.05585C56.3059 6.76965 57.6447 8.65235 60.2413 9.71385C60.888 9.97815 61.5162 10.1519 62.1048 10.2622Z" fill="#FF7E88"/>
<path d="M54.255 1.83358C54.3514 1.87012 54.423 1.95324 54.4435 2.05429C54.6214 2.93432 55.029 4.38618 56.0636 5.88534L56.0645 5.88632C56.5441 6.58604 57.8413 8.40858 60.3546 9.43612C60.9809 9.69208 61.5898 9.86047 62.1602 9.96737C62.277 9.98931 62.3695 10.0782 62.3966 10.1939C62.4236 10.3098 62.3803 10.4311 62.2852 10.5025C60.7368 11.6641 59.1941 12.8222 57.6456 13.984C57.5821 14.3164 57.4575 14.7826 57.1759 15.273L57.0274 15.5123C56.0832 16.9164 54.568 17.2459 54.1847 17.3258L54.1837 17.3267C52.84 17.6013 51.7733 17.2013 51.0235 16.9225C49.4908 16.3528 48.4845 15.4383 47.9054 14.8482L47.6827 14.6168C45.753 12.5742 45.0937 10.2315 44.8487 8.96835C44.8269 8.85589 44.8716 8.7405 44.963 8.67147C47.9557 6.4119 50.9753 4.13405 53.9679 1.8746C54.0501 1.81251 54.1586 1.79713 54.255 1.83358ZM45.4767 9.03378C45.7371 10.2726 46.3855 12.37 48.1173 14.2037C48.6278 14.7417 49.6148 15.7587 51.2325 16.36C51.9802 16.638 52.9021 16.9757 54.0626 16.7389L54.2393 16.6988C54.7423 16.576 55.8269 16.2219 56.5294 15.1773C56.8952 14.6337 57.0251 14.0973 57.0792 13.7642L57.0938 13.7086C57.1137 13.6549 57.149 13.6077 57.1954 13.5728C58.5975 12.521 60.0023 11.4637 61.4054 10.4107C60.9922 10.3046 60.5637 10.1698 60.128 9.99179C57.4486 8.89641 56.0684 6.95319 55.5694 6.22518C54.639 4.87687 54.1891 3.56615 53.9591 2.63241C51.1262 4.77115 48.3103 6.89435 45.4767 9.03378Z" fill="black"/>
<path d="M78.9207 30.4178C75.961 32.709 73.0041 35.0015 70.0458 37.2927C69.0389 36.9563 67.6307 36.3301 66.2707 35.14C65.6595 34.6058 64.1605 33.2602 63.3549 30.9888C63.128 30.3471 62.7494 29.239 62.8884 27.7973C62.9607 27.0397 63.0571 26.0079 63.8513 25.1019C64.6724 24.1592 65.7516 23.9062 66.1658 23.8285C68.1398 22.302 70.1125 20.774 72.0866 19.2476C71.9348 20.2228 71.7136 22.5436 72.8836 25.0609C74.6449 28.856 78.213 30.1747 78.9207 30.4192V30.4178Z" fill="#FF7E88"/>
<path d="M71.9034 19.0103C72.0005 18.9354 72.1337 18.9265 72.2393 18.9889C72.345 19.0513 72.4017 19.1723 72.3829 19.2935C72.2353 20.2421 72.0214 22.4942 73.1554 24.9342C74.8626 28.6128 78.3279 29.8967 79.0186 30.1353L79.0177 30.1363C79.0293 30.1403 79.0416 30.1426 79.0528 30.148C79.1555 30.1984 79.2207 30.3032 79.2208 30.4176V30.4195C79.2207 30.5164 79.1738 30.6074 79.0948 30.6637L79.089 30.6656C76.1342 32.953 73.1832 35.2423 70.2296 37.5299C70.1504 37.5912 70.0453 37.6095 69.9503 37.5777C68.9175 37.2327 67.4712 36.5891 66.0733 35.3658C65.4521 34.8228 63.9045 33.4355 63.0724 31.0894C62.8423 30.4388 62.4444 29.2779 62.5899 27.7682C62.662 27.0134 62.7619 25.8898 63.6261 24.9039C64.4685 23.9374 65.5564 23.6456 66.0372 23.5484C67.9918 22.0369 69.9485 20.5219 71.9034 19.0103ZM66.3497 24.066C66.3121 24.0951 66.2675 24.1149 66.2208 24.1236C65.8514 24.1929 64.9533 24.4053 64.2218 25.1441L64.0772 25.2994C63.3533 26.1252 63.2592 27.0654 63.1866 27.8258C63.0542 29.1989 63.414 30.2554 63.6378 30.8883L63.7911 31.2896C64.5945 33.2449 65.9043 34.422 66.4679 34.9146C67.7236 36.0135 69.0235 36.6159 69.9913 36.9547C72.7649 34.8065 75.5377 32.6568 78.3126 30.5084C77.036 29.9857 74.1537 28.5102 72.6114 25.1871C71.636 23.0883 71.602 21.1239 71.7061 19.9195C69.9197 21.3013 68.1369 22.6839 66.3497 24.066Z" fill="black"/>
<path d="M39.5174 19.8855C39.4096 20.4622 39.1529 21.8643 37.9546 22.7137C36.3648 23.8388 34.2929 23.1547 33.8944 23.0247C33.2605 22.8155 32.7797 22.5229 32.462 22.2968C34.7467 20.5823 37.0314 18.865 39.316 17.1505C39.5755 17.9859 39.7003 18.8933 39.5174 19.8855Z" fill="#FF444F"/>
<path d="M39.4083 16.8653C39.5011 16.8954 39.5737 16.9685 39.6026 17.0616C39.8726 17.9308 40.0063 18.8884 39.8126 19.9395C39.7126 20.4743 39.4689 21.8456 38.3614 22.7784L38.128 22.9581C37.2573 23.5743 36.2644 23.6887 35.4591 23.6397C34.6533 23.5906 34.0063 23.3763 33.8018 23.3097C33.1318 23.0885 32.6228 22.7792 32.2882 22.5411C32.2103 22.4857 32.1635 22.3965 32.1622 22.3009C32.161 22.2051 32.2057 22.1142 32.2823 22.0567C34.5691 20.3407 36.8489 18.6265 39.1358 16.9102L39.1983 16.8741C39.2641 16.8461 39.3387 16.8428 39.4083 16.8653ZM32.9854 22.2784C33.2538 22.4388 33.5885 22.6073 33.9884 22.7393C34.1828 22.8028 34.7696 22.9959 35.4962 23.0401C36.2239 23.0844 37.0623 22.9777 37.7813 22.4688L37.9757 22.3184C38.9001 21.5392 39.1206 20.3767 39.2227 19.8302C39.3652 19.0568 39.3076 18.336 39.1427 17.6554C37.0921 19.1945 35.0363 20.7392 32.9854 22.2784Z" fill="black"/>
<path d="M64.2238 44.2522C61.7349 46.1349 59.2432 48.0175 56.7501 49.9002C56.4934 49.4126 56.1332 48.5857 56.0481 47.5129C55.9928 46.7963 55.8708 45.2501 56.9075 44.0119C58.1413 42.5405 60.1154 42.5787 60.4472 42.5843C61.9987 42.6154 63.1602 43.4084 64.2224 44.2522H64.2238Z" fill="#FF444F"/>
<path d="M60.4522 42.2843C62.1038 42.3174 63.3309 43.1623 64.3966 44.0079L64.4005 44.0108C64.4033 44.013 64.4065 44.0155 64.4093 44.0177C64.454 44.0529 64.4888 44.0997 64.5079 44.1563C64.5489 44.2785 64.5072 44.4135 64.4044 44.4913C61.9154 46.374 59.4238 48.257 56.9308 50.1397C56.8605 50.1927 56.7705 50.2126 56.6847 50.1934C56.5988 50.1743 56.5255 50.118 56.4845 50.0401C56.2501 49.5949 55.931 48.8752 55.795 47.9474L55.7491 47.5362C55.6943 46.8265 55.5545 45.1611 56.6778 43.8194C58.0113 42.2291 60.125 42.2787 60.4522 42.2843ZM60.2501 42.8839C59.6583 42.8935 58.1302 43.0211 57.1378 44.2042C56.1879 45.3387 56.2909 46.7657 56.3468 47.4893L56.3888 47.8604C56.4835 48.5066 56.6776 49.042 56.8595 49.4405C59.1508 47.7101 61.4408 45.9795 63.7286 44.2491C62.7653 43.5143 61.7473 42.9102 60.4415 42.8839H60.2501Z" fill="black"/>
<path d="M78.0982 35.8154C77.3905 37.6133 76.4049 38.8868 75.7029 39.6557C72.6411 41.9383 69.5765 44.221 66.5147 46.5023C67.2308 45.7475 68.1711 44.573 68.9099 42.9489C69.4885 41.6726 69.7835 40.4599 69.9282 39.4295C70.0501 38.5716 70.0686 37.8394 70.0558 37.2939C73.0155 35.0027 75.971 32.7101 78.9307 30.419C79.0058 31.5441 78.9888 33.5497 78.0982 35.8154Z" fill="#FF7E88"/>
<path d="M78.8175 30.1407C78.8924 30.1102 78.9779 30.1115 79.0538 30.1456C79.1549 30.1911 79.2232 30.2889 79.2306 30.3995C79.3074 31.5512 79.2891 33.6045 78.377 35.9249C77.6523 37.7662 76.6437 39.0712 75.9249 39.8585C75.9121 39.8725 75.8972 39.8852 75.8819 39.8966C72.8202 42.1791 69.756 44.4621 66.6944 46.7433C66.5695 46.8363 66.3935 46.8177 66.2901 46.7013C66.187 46.5848 66.19 46.4089 66.297 46.296C66.9965 45.5586 67.9152 44.4107 68.6368 42.8243C69.2015 41.5785 69.4896 40.3946 69.631 39.3878L69.7032 38.7823C69.758 38.2024 69.7653 37.7001 69.756 37.3009C69.7537 37.2057 69.7969 37.115 69.8722 37.0567C72.828 34.7685 75.791 32.4701 78.7472 30.1817L78.8175 30.1407ZM70.3565 37.4405C70.3627 37.9798 70.3392 38.6726 70.2257 39.4718C70.0777 40.5255 69.7749 41.766 69.1827 43.0724C68.8716 43.7562 68.5235 44.3616 68.1729 44.8917C70.6147 43.0725 73.0572 41.2525 75.4981 39.4327C76.1821 38.6803 77.1348 37.4444 77.8194 35.7052C78.553 33.8386 78.6761 32.1526 78.6534 31.0118C75.8841 33.156 73.1272 35.2955 70.3565 37.4405Z" fill="black"/>
<path d="M75.1492 16.8759C74.1281 17.6674 73.1085 18.4547 72.0874 19.2462C70.1133 20.7727 68.1405 22.3006 66.1665 23.8271C65.7681 23.0412 65.2731 22.1592 64.6505 21.2193C64.0975 20.3755 63.4479 19.4879 62.6793 18.5861C62.0425 17.837 61.4015 17.167 60.7705 16.5663C59.5452 15.3974 58.3695 14.4957 57.3683 13.813C58.9453 12.63 60.5209 11.4455 62.0978 10.2625C63.5855 9.14589 65.0702 8.02928 66.5593 6.91268C67.9647 7.98548 69.6184 9.42998 71.2691 11.3226C73.0149 13.3268 74.2642 15.2674 75.1492 16.8745V16.8759Z" fill="#FF7E88"/>
<path d="M66.421 6.64608C66.5228 6.59321 66.6478 6.60306 66.7413 6.6744C68.1597 7.75715 69.829 9.21518 71.4952 11.1256L71.8194 11.5045C73.4133 13.3926 74.5747 15.2092 75.4122 16.7301C75.4365 16.7743 75.4493 16.8241 75.4493 16.8746C75.4493 16.9673 75.4063 17.0561 75.3331 17.1129C74.8224 17.5087 74.312 17.9037 73.8018 18.2984C73.2918 18.693 72.7818 19.0875 72.2716 19.483L72.2706 19.484C70.2948 21.0118 68.3256 22.5361 66.3497 24.0641C66.279 24.1187 66.1879 24.1393 66.1007 24.1197C66.0134 24.1001 65.939 24.0423 65.8985 23.9625C65.5045 23.1855 65.0155 22.3139 64.4005 21.3853L64.3995 21.3834C63.8528 20.5492 63.2108 19.672 62.4513 18.7808C61.9791 18.2254 61.5042 17.7133 61.0333 17.2418L60.5636 16.7838C59.352 15.6279 58.1892 14.7361 57.1993 14.0611C57.1194 14.0066 57.0707 13.9166 57.0684 13.8199C57.0663 13.7231 57.1111 13.6309 57.1886 13.5728L61.9181 10.0221C63.4052 8.90591 64.8901 7.78888 66.379 6.67245L66.421 6.64608ZM62.2774 10.5025C60.8141 11.6003 59.3445 12.7044 57.88 13.8033C58.8136 14.4614 59.876 15.2983 60.9776 16.3492L61.4581 16.818C61.9396 17.3001 62.4246 17.8233 62.9073 18.3912C63.6844 19.303 64.3415 20.2005 64.9005 21.0533C65.4465 21.8775 65.8934 22.659 66.2657 23.3697C68.1436 21.9173 70.0256 20.4604 71.9034 19.0084C72.414 18.6126 72.9246 18.2184 73.4347 17.8238C73.8768 17.4817 74.3185 17.1392 74.7608 16.7965C73.8927 15.2497 72.6921 13.4133 71.0431 11.5201C69.4775 9.72509 67.9085 8.33739 66.5558 7.28964C65.1281 8.36042 63.7045 9.43145 62.2774 10.5025Z" fill="black"/>
<path d="M54.1414 2.11394C51.1406 4.37964 48.1369 6.64534 45.1361 8.91104C44.7631 8.88134 44.2625 8.86164 43.6697 8.89124C42.5934 8.94354 41.2163 9.16694 39.7485 9.81704C38.899 10.1944 38.1857 10.6354 37.6085 11.0736C40.4378 8.82204 43.2698 6.56625 46.099 4.31744C46.8124 3.73654 48.1823 2.77684 50.1592 2.29345C51.844 1.87932 53.2763 1.98249 54.1414 2.11111V2.11394Z" fill="#FF7E88"/>
<path d="M50.088 2.00155C51.8221 1.57539 53.2961 1.68179 54.1856 1.81405C54.3326 1.83594 54.4414 1.96239 54.4415 2.11093V2.11386C54.4415 2.20784 54.3973 2.29641 54.3224 2.35311L45.3165 9.14999C45.2579 9.1942 45.1855 9.21632 45.1124 9.21054C44.7501 9.18169 44.2625 9.16215 43.6847 9.191C42.7027 9.23872 41.4637 9.43233 40.1368 9.97714L39.8702 10.0914C39.043 10.4589 38.3498 10.8882 37.7901 11.3131C37.6592 11.4124 37.472 11.3871 37.3712 11.2574C37.2707 11.1277 37.2935 10.9407 37.422 10.8385C40.251 8.5871 43.0831 6.33135 45.9122 4.08261C46.6008 3.52228 47.8819 2.62118 49.714 2.10116L50.088 2.00155ZM53.3634 2.32479C52.6102 2.26838 51.6342 2.28124 50.5343 2.51522L50.2306 2.58456C48.3117 3.05375 46.9812 3.98607 46.2882 4.55038L46.2852 4.55233C44.3245 6.11086 42.3622 7.67241 40.4005 9.23397C41.6154 8.80067 42.7407 8.63585 43.6544 8.5914C44.2029 8.56401 44.6752 8.57869 45.044 8.60409C46.5148 7.49361 47.9867 6.38349 49.4581 5.27304C50.7601 4.29042 52.0618 3.30738 53.3634 2.32479Z" fill="black"/>
<path d="M70.0504 37.292C69.0435 36.9556 67.6353 36.3295 66.2752 35.1394C65.664 34.6051 64.165 33.2595 63.3595 30.9881C63.1326 30.3465 62.7539 29.2383 62.8929 27.7966C62.9653 27.039 63.0617 26.0073 63.8558 25.1013C64.677 24.1585 65.7562 23.9055 66.1703 23.8278C65.7718 23.0419 65.2768 22.1599 64.6543 21.22C64.1012 20.3762 63.4517 19.4886 62.683 18.5868C62.0463 17.8377 61.4053 17.1677 60.7742 16.567C59.5489 15.3981 58.3732 14.4964 57.372 13.8137C57.3139 14.1713 57.1735 14.7536 56.775 15.3458C55.9014 16.6448 54.4932 16.9557 54.1202 17.0335C52.8679 17.2893 51.8738 16.9204 51.125 16.6419C49.4402 16.0158 48.4149 14.9572 47.8973 14.4116C46.0225 12.4271 45.3801 10.1473 45.1404 8.91202C44.7674 8.88232 44.2668 8.86252 43.674 8.89222C42.5976 8.94452 41.2206 9.16782 39.7528 9.81802C38.9033 10.1953 38.19 10.6363 37.6128 11.0745C37.4214 11.2257 37.2285 11.3784 37.037 11.5296L37.0342 11.5324C36.7874 11.7445 36.5747 11.9466 36.3918 12.1275C36.9278 12.7169 37.6525 13.6215 38.2921 14.8511C38.6566 15.548 39.0551 16.3126 39.316 17.1494C39.5755 17.9847 39.7003 18.8921 39.5174 19.8843C39.4096 20.461 39.1529 21.8631 37.9546 22.7126C36.3648 23.8377 34.2929 23.1536 33.8944 23.0235C33.2605 22.8143 32.7797 22.5218 32.462 22.2956C32.4677 23.6822 32.5925 25.35 32.9853 27.1988C33.6193 30.2065 34.7226 32.5797 35.6657 34.2305C36.1549 34.0538 36.9136 33.8447 37.8539 33.839C39.8648 33.8277 41.3028 34.7563 41.9084 35.1591C43.1167 35.9662 43.7719 36.8736 44.3335 37.6538C45.0695 38.6771 46.0012 39.969 46.2607 41.8828C46.4791 43.5068 46.1189 44.8877 45.7658 45.7994C46.8195 46.5598 48.1611 47.3866 49.8005 48.1089C52.5021 49.2976 54.9697 49.7357 56.748 49.8983C56.4913 49.4106 56.1311 48.5838 56.046 47.511C55.9907 46.7944 55.8688 45.2481 56.9054 44.01C58.1392 42.5386 60.1133 42.5768 60.4452 42.5824C61.9966 42.6135 63.1581 43.4064 64.2203 44.2503C64.3692 44.3662 64.5167 44.4877 64.6628 44.605C65.5151 45.3004 66.1207 45.9944 66.5107 46.499C67.2268 45.7442 68.1671 44.5697 68.9059 42.9457C69.4845 41.6694 69.7795 40.4566 69.9242 39.4263C70.0461 38.5683 70.0646 37.8362 70.0518 37.2906L70.0504 37.292ZM59.6907 36.851C58.5122 38.6786 56.6317 39.3344 56.3722 39.4206C54.5641 40.0213 53.0013 39.5888 51.8809 39.2637C49.4417 38.5556 47.9257 37.1351 46.6124 35.8786C45.346 34.6659 43.44 32.8001 42.4331 29.7316C42.0261 28.4906 41.4432 26.6334 41.9651 24.3592C42.1722 23.4546 42.6487 21.3854 44.5121 20.1472C45.9643 19.1847 47.4988 19.2342 48.3681 19.2624C49.3637 19.2949 50.2571 19.4999 51.0513 19.7868C52.556 20.338 53.7004 21.196 54.4974 21.7939C57.8996 24.3408 59.21 27.6101 59.4567 28.2518C59.8141 29.1747 60.3587 30.5896 60.5657 32.1471C60.7699 33.6878 60.6494 35.3669 59.6921 36.8524L59.6907 36.851Z" fill="#FF535E"/>
<path d="M44.0968 8.5787C44.376 8.57489 44.6294 8.58093 44.8526 8.59237L45.1642 8.61288L45.213 8.62069C45.3247 8.64848 45.4122 8.73918 45.4347 8.85507C45.669 10.0625 46.2953 12.2787 48.1143 14.2047C48.6248 14.7428 49.6118 15.7597 51.2296 16.3609L51.8243 16.5709C52.4531 16.772 53.1888 16.9172 54.0587 16.7398C54.4214 16.6642 55.7236 16.3721 56.5265 15.1783C56.8922 14.6347 57.0222 14.0982 57.0763 13.7652L57.0977 13.693C57.128 13.6243 57.1834 13.568 57.254 13.5377C57.3481 13.4974 57.4565 13.5083 57.5411 13.566C58.5536 14.2564 59.7427 15.1684 60.9815 16.3502C61.6196 16.9575 62.2676 17.635 62.9112 18.3922C63.6885 19.304 64.3453 20.2014 64.9044 21.0543C65.5341 22.0051 66.0347 22.8974 66.4376 23.692C66.4803 23.7762 66.4813 23.8758 66.4395 23.9605C66.3978 24.0452 66.3185 24.1052 66.2257 24.1226C65.8319 24.1965 64.8358 24.4332 64.0821 25.2984L64.0811 25.2994C63.3577 26.125 63.2642 27.0645 63.1915 27.8248C63.0592 29.1981 63.4189 30.2556 63.6427 30.8883C64.3243 32.81 65.5191 34.0487 66.21 34.6803L66.4727 34.9137L66.7208 35.1246C67.9642 36.1459 69.2259 36.7001 70.1456 37.0074C70.1516 37.0094 70.1572 37.0099 70.1632 37.0123C70.2747 37.0569 70.3488 37.1637 70.3517 37.2838C70.3647 37.8423 70.3453 38.5906 70.2208 39.4674C70.0913 40.3893 69.8443 41.4554 69.3878 42.5826L69.1788 43.0699C68.4229 44.7316 67.4613 45.9334 66.7286 46.7057C66.6683 46.7692 66.5827 46.8029 66.4952 46.7984C66.4079 46.7939 66.327 46.7514 66.2735 46.6822C65.894 46.1912 65.3033 45.5152 64.4727 44.8375C64.3235 44.7176 64.182 44.6004 64.0362 44.4869L64.0333 44.485C63.0435 43.6986 62.0206 43.0038 60.7061 42.8961L60.4395 42.8824C60.1015 42.8767 58.2683 42.8504 57.1349 44.2017C56.1853 45.3358 56.289 46.7631 56.3448 47.4869C56.4256 48.5053 56.7683 49.292 57.0138 49.7584C57.065 49.8557 57.0582 49.9736 56.9972 50.065C56.9361 50.1563 56.8302 50.2068 56.7208 50.1969C54.919 50.0321 52.4182 49.5883 49.6798 48.3834C48.0183 47.6514 46.658 46.8133 45.5899 46.0426C45.4795 45.9627 45.4372 45.8182 45.4864 45.691C45.828 44.809 46.1723 43.4811 45.963 41.9234L45.9093 41.5865C45.6041 39.9364 44.7797 38.7877 44.0899 37.8287C43.5305 37.0515 42.9011 36.1835 41.7413 35.4088C41.1453 35.0124 39.7712 34.1285 37.8556 34.1392C36.9589 34.1447 36.2348 34.3436 35.7677 34.5123C35.6306 34.5618 35.4777 34.506 35.4054 34.3795C34.4509 32.7088 33.3334 30.3064 32.6915 27.2613L32.5548 26.568C32.2641 24.9714 32.1672 23.5246 32.1622 22.2965C32.1619 22.1841 32.2245 22.0806 32.3243 22.0289C32.4241 21.9774 32.5443 21.9862 32.6358 22.0514C32.9362 22.2652 33.3896 22.5406 33.9864 22.7379C34.1808 22.8013 34.7696 22.9959 35.4962 23.0401C36.1785 23.0816 36.9583 22.9893 37.6456 22.5582L37.7813 22.4674C38.8698 21.6954 39.1137 20.4133 39.2227 19.8302L39.2735 19.484C39.3632 18.6839 39.2472 17.9401 39.0294 17.2389C38.7777 16.4317 38.3925 15.6896 38.0265 14.9898C37.4019 13.7892 36.6937 12.9055 36.17 12.3297C36.0619 12.2108 36.0667 12.0277 36.1808 11.9146C36.367 11.7305 36.5853 11.5232 36.839 11.3053C36.8429 11.3018 36.8465 11.2978 36.8507 11.2945C37.0423 11.1432 37.2349 10.991 37.4268 10.8394L37.4317 10.8355L37.6612 10.6666C38.2118 10.2722 38.8682 9.88231 39.6309 9.54354C41.1392 8.87541 42.5542 8.64608 43.6593 8.59237L44.0968 8.5787ZM43.6886 9.19198C42.6409 9.24289 41.3014 9.46014 39.8741 10.0924C39.0493 10.4588 38.3568 10.8854 37.7979 11.3092C37.6105 11.4572 37.4205 11.608 37.2325 11.7564L37.2296 11.7603C37.0759 11.8925 36.936 12.0213 36.8077 12.1432C37.3295 12.7427 37.9784 13.5969 38.5587 14.7125C38.9217 15.4065 39.3325 16.1938 39.6026 17.0601L39.6974 17.3902C39.8721 18.0587 39.9563 18.7775 39.8702 19.5484L39.8126 19.9395C39.7126 20.4743 39.4688 21.844 38.3614 22.7769L38.128 22.9581C37.2573 23.5743 36.2644 23.6873 35.4591 23.6383C34.6528 23.5891 34.0049 23.3758 33.8009 23.3092C33.3969 23.1759 33.0532 23.0068 32.7696 22.8443C32.8034 24.0967 32.9412 25.549 33.2784 27.1363C33.8775 29.9782 34.9033 32.2467 35.8067 33.8658C36.3118 33.7043 37.0124 33.5438 37.8517 33.5387C39.9564 33.527 41.4595 34.5002 42.0753 34.9098C43.3317 35.749 44.0136 36.6951 44.5772 37.4781C45.3135 38.5017 46.2872 39.848 46.5577 41.8424C46.7679 43.4052 46.4605 44.7483 46.1251 45.6861C47.1353 46.3994 48.3974 47.1632 49.921 47.8346C52.3278 48.8935 54.5472 49.3461 56.2472 49.5426C56.0303 49.0357 55.8122 48.3541 55.7472 47.5348C55.6924 46.8249 55.5518 45.1583 56.6749 43.817C58.0084 42.2271 60.123 42.2773 60.4503 42.2828C62.108 42.3161 63.3388 43.1663 64.4073 44.0152L64.8507 44.3707L64.8526 44.3726C65.579 44.9653 66.128 45.5592 66.5235 46.0396C67.1857 45.3026 67.9887 44.2379 68.6329 42.8219C69.1977 41.5759 69.4856 40.3912 69.627 39.3844L69.6983 38.7789C69.744 38.2951 69.7544 37.8655 69.752 37.5045C68.7376 37.1447 67.3856 36.5097 66.0772 35.3648C65.4554 34.8212 63.9089 33.4333 63.0772 31.0885C62.8472 30.4381 62.4484 29.2779 62.5938 27.7682C62.666 27.0135 62.7659 25.89 63.63 24.9039L63.7989 24.7213C64.4545 24.0589 65.218 23.7621 65.7247 23.6236C65.3633 22.9355 64.9311 22.1807 64.4044 21.3853L64.4034 21.3844C63.8566 20.5502 63.2147 19.6729 62.4552 18.7818L62.4542 18.7808C61.8249 18.0404 61.1912 17.3784 60.5675 16.7848C59.5019 15.7682 58.474 14.9552 57.5685 14.315C57.4912 14.5973 57.3706 14.9298 57.1729 15.274L57.0235 15.5133C56.0795 16.9169 54.5656 17.2467 54.1817 17.3267L54.1798 17.3277C52.8365 17.602 51.7703 17.2023 51.0206 16.9234C49.2688 16.2724 48.2045 15.1709 47.6798 14.6178C45.8605 12.692 45.1729 10.4988 44.8946 9.19589C44.6662 9.18261 44.4008 9.17426 44.1046 9.17831L43.6886 9.19198ZM48.378 18.9625C49.2805 18.992 50.1011 19.1587 50.8409 19.398L51.1534 19.5045L51.1544 19.5055C52.7044 20.0733 53.88 20.9556 54.6768 21.5533C58.1443 24.149 59.4812 27.4793 59.7364 28.1432C60.0711 29.0073 60.582 30.332 60.8194 31.8101L60.8634 32.108L60.8985 32.4058C61.0545 33.9076 60.8911 35.5463 59.9444 37.0152C59.9388 37.024 59.9304 37.0306 59.9239 37.0387C58.6871 38.9353 56.742 39.6143 56.4669 39.7057C54.5636 40.338 52.9204 39.8773 51.797 39.5514C49.5961 38.9123 48.1255 37.7087 46.9112 36.5748L46.4054 36.0953C45.134 34.8778 43.18 32.9683 42.1485 29.8248C41.7395 28.5778 41.1315 26.6525 41.6729 24.2926C41.8793 23.3911 42.3736 21.2076 44.3458 19.8971C45.8844 18.8775 47.5078 18.9343 48.378 18.9625ZM48.3585 19.5621C47.4902 19.5339 46.0435 19.4919 44.6778 20.3971C42.9234 21.563 42.4657 23.5187 42.2579 24.4264C41.7557 26.6146 42.3129 28.4034 42.7179 29.6383C43.7001 32.6314 45.558 34.4538 46.8194 35.6617C48.1309 36.9164 49.602 38.2892 51.9649 38.9752C53.0822 39.2994 54.5648 39.7052 56.2774 39.1363C56.52 39.0557 58.3175 38.4266 59.4386 36.6881C59.4408 36.6846 59.444 36.6817 59.4464 36.6783C60.3447 35.277 60.4669 33.6834 60.2686 32.1871L60.1778 31.6246C60.0051 30.6998 59.7282 29.8431 59.4698 29.1344L59.1768 28.3599C58.9452 27.7575 57.732 24.7287 54.6241 22.2701L54.3175 22.0338C53.5204 21.4358 52.4071 20.6034 50.9483 20.0689C50.1795 19.7913 49.3176 19.5934 48.3585 19.5621Z" fill="black"/>
<path d="M95.2719 27.7587C94.9036 29.265 94.2405 30.3858 93.7587 31.0703C92.4811 32.0234 91.203 32.9764 89.9254 33.9295C90.9057 32.9695 91.3685 31.9402 91.5601 31.5006C92.8168 28.6152 91.9213 25.7903 91.3055 23.8472C89.9648 19.614 87.2969 17.0863 86.1723 16.0473C84.6707 14.6584 82.4814 12.6839 79.1095 12.0516C77.8528 11.8159 75.8884 11.4758 73.8706 12.4958C73.5298 12.6682 73.2233 12.8609 72.9483 13.0638C74.3228 12.0248 75.6987 10.9849 77.0742 9.94498C77.6302 9.68008 78.4663 9.35058 79.5199 9.19758C82.0645 8.82918 84.0776 9.74948 85.4735 10.4099C89.0688 12.1108 91.0796 14.7384 91.9918 15.9632C92.7904 17.0345 94.4738 19.3446 95.1874 22.756C95.4481 23.9988 95.7806 25.6789 95.2719 27.7587Z" fill="white"/>
<path d="M79.4767 8.90048C82.1173 8.51817 84.2027 9.47694 85.6017 10.1388C89.2659 11.8723 91.3133 14.55 92.2325 15.7843C93.0379 16.8646 94.7542 19.2175 95.4815 22.6944C95.7437 23.944 96.0893 25.6809 95.5636 27.8302C95.1837 29.3836 94.4998 30.5389 94.004 31.2432C93.9859 31.269 93.9638 31.2918 93.9386 31.3106L90.1046 34.17C89.9826 34.2609 89.8128 34.2453 89.7088 34.1367C89.7049 34.1326 89.7011 34.1284 89.6974 34.1241C89.6043 34.015 89.6026 33.8572 89.6879 33.7465C89.6598 33.7781 89.6964 33.7355 89.6879 33.7465C90.6259 32.8278 91.0982 31.8102 91.2852 31.3809C92.4915 28.6114 91.6387 25.891 91.0196 23.9376C89.7032 19.7813 87.0836 17.2976 85.9688 16.2677C84.4699 14.8813 82.3346 12.962 79.0538 12.3468C78.6698 12.2747 78.2278 12.1949 77.7441 12.1467C76.648 12.0374 75.3382 12.0903 74.006 12.7638C73.681 12.9282 73.3883 13.1113 73.1261 13.3048C72.9954 13.4012 72.8126 13.3762 72.7127 13.2493C72.7112 13.2473 72.7096 13.2453 72.7081 13.2433C72.6094 13.111 72.636 12.9238 72.7677 12.8243C74.1421 11.7853 75.5182 10.746 76.8936 9.70614L76.9454 9.67391C77.5197 9.40034 78.3851 9.059 79.4767 8.90048ZM85.3448 10.6808C83.952 10.0218 82.0108 9.13978 79.5626 9.49423C78.5626 9.6395 77.7651 9.95011 77.2276 10.2042C76.5799 10.6939 75.932 11.1834 75.2843 11.6729C76.8195 11.3298 78.2178 11.5792 79.1651 11.7569C82.628 12.4064 84.8718 14.4359 86.3761 15.8272C87.5107 16.8755 90.227 19.4473 91.5919 23.7569C92.2044 25.6897 93.142 28.6192 91.8351 31.6202C91.7555 31.8027 91.6271 32.0868 91.4366 32.4278C91.5119 32.3716 91.5878 32.316 91.6632 32.2599C92.2887 31.7933 92.9137 31.326 93.5392 30.8595C94.0044 30.1919 94.6305 29.1193 94.9806 27.6876C95.4108 25.9284 95.2204 24.4652 94.9923 23.2989L94.8936 22.8175C94.1938 19.472 92.543 17.205 91.7511 16.1427C90.8459 14.9273 88.8711 12.349 85.3448 10.6808Z" fill="black"/>
<path fill-rule="evenodd" clip-rule="evenodd" d="M79.169 11.7574C77.9099 11.5213 75.8546 11.1588 73.7393 12.2281C73.3827 12.4085 73.0621 12.6106 72.7745 12.8228C71.9014 13.466 71.3373 14.1987 71.0167 14.6822L70.7745 15.0699C69.6712 16.9418 69.7087 18.7442 69.7351 20.0139L69.7354 20.0279C69.7992 23.0148 70.9109 25.213 71.6886 26.7135C72.2811 27.8568 73.256 29.4532 74.8145 31.1148C74.8131 32.3907 74.8125 33.6668 74.8118 34.943L74.8106 37.0709L74.8224 37.1539C74.8453 37.2338 74.9009 37.3024 74.9776 37.3404C75.0798 37.3909 75.2024 37.3793 75.2931 37.3101C76.5217 36.3726 77.7504 35.4355 78.9796 34.4986C79.9917 35.1547 82.0853 36.282 84.8282 36.1969C85.7435 36.1689 87.3766 36.1013 89.0333 35.0299C89.4589 34.7551 89.8247 34.4528 90.1397 34.1441C91.1619 33.1431 91.6428 32.0705 91.839 31.6207C93.1407 28.6317 92.2159 25.7138 91.6032 23.7809L91.5958 23.7574C90.4015 19.9865 88.1727 17.546 86.8741 16.2926L86.38 15.8277C84.8757 14.4364 82.6319 12.4068 79.169 11.7574ZM89.6974 34.1241C89.7011 34.1284 89.7049 34.1326 89.7088 34.1367C89.4601 34.3598 89.1819 34.5762 88.8703 34.7774C87.2866 35.8017 85.7252 35.8696 84.8191 35.8973C81.993 35.9851 79.8719 34.7451 78.9657 34.1327C78.5838 34.4237 78.202 34.7147 77.8201 35.0057C76.9168 35.694 76.0135 36.3823 75.1106 37.0713C75.112 35.0469 75.1134 33.0225 75.1157 30.9986C73.5316 29.3301 72.5489 27.7207 71.9553 26.5754C71.1804 25.0802 70.0976 22.9352 70.0354 20.022L70.0353 20.0199C70.0089 18.7509 69.973 17.0209 71.0329 15.2226C71.2313 14.8871 71.7519 14.0268 72.7127 13.2493C72.8126 13.3762 72.9954 13.4012 73.1261 13.3048C73.3883 13.1113 73.681 12.9282 74.006 12.7638C75.3382 12.0903 76.648 12.0374 77.7441 12.1467C78.2278 12.1949 78.6698 12.2747 79.0538 12.3468C82.3346 12.962 84.4699 14.8813 85.9688 16.2677C87.0836 17.2976 89.7032 19.7813 91.0196 23.9376C91.6387 25.891 92.4915 28.6114 91.2852 31.3809C91.0982 31.8102 90.6259 32.8278 89.6879 33.7465C89.6598 33.7781 89.6964 33.7355 89.6879 33.7465C89.6026 33.8572 89.6043 34.015 89.6974 34.1241Z" fill="black"/>
<path fill-rule="evenodd" clip-rule="evenodd" d="M91.2852 31.3809C91.0982 31.8102 90.6259 32.8278 89.6879 33.7465C89.4064 34.0185 89.0816 34.2832 88.7071 34.525C87.1965 35.502 85.7065 35.5698 84.8097 35.5973C82.0759 35.6822 80.0187 34.4823 79.1339 33.8844L78.9657 33.7622L78.7843 33.8941C78.3019 34.2618 77.8193 34.6292 77.3367 34.9967C76.6944 35.4858 76.0521 35.9749 75.4102 36.4644C75.4112 35.1241 75.4128 33.7836 75.4144 32.4434C75.415 31.9618 75.4156 31.4802 75.4161 30.9986C75.4161 30.9217 75.386 30.8473 75.3331 30.7916C73.773 29.1483 72.8057 27.5638 72.2218 26.4371C71.4496 24.9472 70.3957 22.8546 70.335 20.0152C70.3087 18.7475 70.2779 17.0949 71.2911 15.3756C71.4991 15.0239 72.0603 14.0899 73.1261 13.3048C73.3883 13.1113 73.681 12.9282 74.006 12.7638C75.3382 12.0903 76.648 12.0374 77.7441 12.1467C78.2278 12.1949 78.6698 12.2747 79.0538 12.3468C82.3346 12.962 84.4699 14.8813 85.9688 16.2677C87.0836 17.2976 89.7032 19.7813 91.0196 23.9376C91.6387 25.891 92.4915 28.6114 91.2852 31.3809Z" fill="#EBECEE"/>
<path d="M70.0354 20.022C70.0976 22.9352 71.1804 25.0802 71.9553 26.5754C72.5489 27.7207 73.5316 29.3301 75.1157 30.9986C75.1134 33.0225 75.112 35.0469 75.1106 37.0713C76.0135 36.3823 76.9168 35.694 77.8201 35.0057L78.9657 34.1327C79.8719 34.7451 81.993 35.9851 84.8191 35.8973C85.7252 35.8696 87.2866 35.8017 88.8703 34.7774C89.1819 34.5762 89.4601 34.3598 89.7088 34.1367C89.7049 34.1326 89.7011 34.1284 89.6974 34.1241C89.6043 34.015 89.6026 33.8572 89.6879 33.7465C89.4064 34.0185 89.0816 34.2832 88.7071 34.525C87.1965 35.502 85.7065 35.5698 84.8097 35.5973C82.0759 35.6822 80.0187 34.4823 79.1339 33.8844L78.9657 33.7622L78.7843 33.8941C78.3019 34.2618 77.8193 34.6292 77.3367 34.9967C76.6944 35.4858 76.0521 35.9749 75.4102 36.4644C75.4112 35.1241 75.4128 33.7836 75.4144 32.4434L75.4161 30.9986C75.4161 30.9217 75.386 30.8473 75.3331 30.7916C73.773 29.1483 72.8057 27.5638 72.2218 26.4371C71.4496 24.9472 70.3957 22.8546 70.335 20.0152C70.3087 18.7475 70.2779 17.0949 71.2911 15.3756C71.4991 15.0239 72.0603 14.0899 73.1261 13.3048C72.9954 13.4012 72.8126 13.3762 72.7127 13.2493C71.7519 14.0268 71.2313 14.8871 71.0329 15.2226C69.973 17.0209 70.0089 18.7509 70.0353 20.0199L70.0354 20.022Z" fill="black"/>
<path d="M78.2205 26.5618C78.3029 26.5065 78.4076 26.4955 78.4998 26.5325C79.8606 27.0787 81.2218 27.6245 82.5828 28.1712C82.6967 28.2171 82.7708 28.3277 82.7703 28.4505C82.7634 29.8311 82.7562 31.2127 82.7498 32.5941C82.7493 32.6931 82.7 32.7856 82.618 32.8411C82.5359 32.8966 82.4318 32.9083 82.3396 32.8719C80.9785 32.333 79.6171 31.7931 78.2566 31.2542C78.1417 31.2087 78.0666 31.0975 78.0672 30.9739C78.0741 29.5861 78.0803 28.1973 78.0877 26.8089L78.0975 26.7366C78.1155 26.6661 78.1587 26.6034 78.2205 26.5618ZM78.6678 30.7718C79.829 31.2318 80.9906 31.6917 82.1521 32.1517C82.1577 30.9847 82.1629 29.8177 82.1687 28.6517C81.0071 28.1852 79.846 27.7194 78.6844 27.2532C78.6783 28.4262 78.6736 29.599 78.6678 30.7718Z" fill="black"/>
<path d="M82.4806 17.2666V26.6101C81.1018 26.0675 79.7236 25.5254 78.3444 24.9823C78.3417 21.8639 78.3375 18.7464 78.3338 15.628C79.7162 16.1738 81.0981 16.7207 82.4806 17.2666Z" fill="#EBECEE"/>
<path d="M78.1648 15.3802C78.247 15.3243 78.3517 15.3124 78.4441 15.3489C79.8255 15.8943 81.2094 16.4422 82.5906 16.9876C82.7052 17.0328 82.7811 17.1438 82.7811 17.2669V26.6107C82.7809 26.7098 82.7312 26.8029 82.6492 26.8587C82.5673 26.9143 82.463 26.9251 82.3709 26.889C80.9922 26.3464 79.6134 25.8042 78.2342 25.261C78.1198 25.2158 78.0449 25.1057 78.0447 24.9827C78.042 21.8644 78.0377 18.7467 78.034 15.6282C78.034 15.529 78.0828 15.4361 78.1648 15.3802ZM78.6433 24.7776C79.8227 25.2419 81.0014 25.7053 82.1805 26.1693V17.47C80.9972 17.0027 79.8163 16.5368 78.6336 16.0696C78.6371 18.9725 78.6408 21.8747 78.6433 24.7776Z" fill="black"/>
<path d="M17.5858 32.2749C18.4485 32.99 19.2943 33.4589 20.1338 33.9233C20.988 34.3955 21.7337 34.7355 22.2857 34.9661C41.1903 42.905 60.0949 50.8441 78.9996 58.7831C79.7927 59.1062 80.8651 59.6305 82.0132 60.4846C83.6985 61.7387 84.6948 63.0707 85.2646 63.8445C86.535 65.5697 87.2102 67.1322 87.4851 67.8214C87.8306 68.6845 88.3414 69.9928 88.5163 71.7982C88.5616 72.2626 88.5732 72.6512 88.5752 72.9257C88.5531 84.3728 88.531 95.8197 88.5079 107.266C88.4468 107.851 88.334 108.332 88.2329 108.684C87.9148 109.788 87.4451 110.529 87.2892 110.766C87.0912 111.065 86.8542 111.423 86.456 111.795C85.6481 112.55 84.7865 112.791 84.2104 112.944C84.0134 112.996 83.1359 113.22 81.95 113.127C81.0304 113.055 80.3837 112.829 79.2957 112.449C78.473 112.162 77.7621 111.857 77.1764 111.581C58.7858 103.842 40.3962 96.1034 22.0055 88.3654C21.5336 88.1712 20.9301 87.8989 20.2507 87.5249C19.1468 86.9194 18.3832 86.3465 18.1989 86.2065C17.8302 85.9273 17.2098 85.4517 16.4936 84.7072C15.8479 84.035 15.3781 83.5469 14.9368 82.729C14.8188 82.5098 14.348 81.6115 14.1236 80.3044C14.0046 79.6141 13.9909 79.021 14.0046 78.5928C14.033 60.7116 14.0598 42.8297 14.0883 24.9486C14.0451 25.6785 14.071 26.7514 14.4459 27.9467C15.1769 30.2775 16.7801 31.6083 17.5837 32.2749H17.5858Z" fill="#EBECEE"/>
<path d="M14.0969 24.6715C14.2365 24.6764 14.3479 24.7991 14.3479 24.9486C14.3473 25.281 14.3464 25.6138 14.3459 25.9462C14.378 26.51 14.4734 27.1631 14.6916 27.8587C15.3944 30.0995 16.9346 31.3858 17.7375 32.0518C17.7396 32.0534 17.7423 32.0542 17.7444 32.0559C18.586 32.7536 19.4116 33.2128 20.2522 33.6778C20.8855 34.0279 21.4589 34.3039 21.9358 34.5164L22.3801 34.7077V34.7088C41.2837 42.6473 60.1873 50.586 79.091 58.5246C79.8986 58.8536 80.9913 59.3876 82.1604 60.2572C83.8776 61.5351 84.8938 62.8935 85.468 63.6734C86.7572 65.4242 87.4428 67.0106 87.7229 67.7127L88.009 68.453C88.3115 69.2833 88.6393 70.3836 88.7737 71.7699L88.802 72.1107C88.825 72.4365 88.8326 72.7135 88.8342 72.9243V72.9264C88.8121 84.3734 88.7899 95.8208 88.7668 107.267C88.7668 107.277 88.7659 107.287 88.7649 107.297C88.7016 107.903 88.5854 108.401 88.4807 108.766C88.2337 109.623 87.8973 110.27 87.676 110.644L87.5002 110.926C87.3012 111.227 87.0494 111.61 86.6262 112.005C85.7687 112.806 84.8544 113.059 84.2727 113.213C84.0621 113.269 83.1549 113.5 81.9309 113.404C80.9756 113.329 80.3 113.093 79.2151 112.713C78.3828 112.423 77.6635 112.114 77.0715 111.835C58.685 104.099 40.2989 96.36 21.9123 88.6237C21.4338 88.4267 20.8212 88.1509 20.132 87.7715V87.7704C19.2933 87.3103 18.6474 86.87 18.2971 86.6171L18.049 86.4331C17.7232 86.1863 17.1979 85.7837 16.5822 85.1783L16.3127 84.9064C15.6682 84.2355 15.1735 83.7235 14.7121 82.8684V82.8674C14.5868 82.6345 14.1012 81.705 13.8694 80.3547C13.7471 79.6453 13.7316 79.0353 13.7453 78.5927L13.8293 25.9629C13.8079 25.5736 13.8129 25.2249 13.8303 24.9309C13.8392 24.7816 13.9573 24.6669 14.0969 24.6715ZM14.2639 78.5938L14.2629 78.6022C14.2497 79.0152 14.2633 79.5881 14.3781 80.2543C14.5947 81.5158 15.0486 82.3826 15.1604 82.5903C15.5816 83.371 16.0272 83.8357 16.674 84.509C17.3755 85.2382 17.9828 85.7039 18.3479 85.9803C18.5267 86.1162 19.2806 86.6818 20.3694 87.279C20.8711 87.5552 21.3311 87.7747 21.7258 87.9482L22.0979 88.1071L22.0998 88.1082C40.4904 95.8461 58.8803 103.585 77.2707 111.323L77.2805 111.327C77.8598 111.6 78.5631 111.903 79.3762 112.186C80.4669 112.568 81.0855 112.782 81.969 112.85C83.1165 112.941 83.9639 112.724 84.1477 112.675C84.7181 112.523 85.5271 112.295 86.2854 111.586C86.6585 111.238 86.8813 110.903 87.0783 110.605C87.2272 110.379 87.6792 109.666 87.9856 108.603C88.0826 108.265 88.1902 107.803 88.2492 107.242C88.2723 95.8046 88.2945 84.3666 88.3166 72.9284L88.3029 72.4474C88.2986 72.3548 88.2937 72.2563 88.2863 72.1526L88.259 71.8274C88.0883 70.0652 87.5903 68.7881 87.2473 67.9313V67.9302C86.9775 67.2539 86.3128 65.7154 85.0617 64.0163C84.4964 63.2486 83.5185 61.9432 81.8654 60.7131C80.7386 59.8748 79.686 59.3594 78.9074 59.0422L78.9055 59.0411C60.0008 51.1022 41.0952 43.1632 22.1906 35.2243C21.632 34.9909 20.878 34.6474 20.0149 34.1703C19.178 33.7073 18.314 33.2287 17.4319 32.4983C17.4298 32.4967 17.427 32.4957 17.425 32.4941C16.6661 31.8646 15.1491 30.6088 14.342 28.4464C14.3155 45.1618 14.2904 61.8783 14.2639 78.5938Z" fill="black"/>
<path d="M17.5858 32.2749C18.4485 32.99 19.2943 33.4589 20.1338 33.9233C20.988 34.3955 21.7337 34.7355 22.2857 34.9661C41.1903 42.905 60.0949 50.8441 78.9996 58.7831C79.7927 59.1062 80.8651 59.6305 82.0132 60.4846C83.6985 61.7387 84.6948 63.0707 85.2646 63.8445C86.535 65.5697 87.2102 67.1322 87.4851 67.8214C87.8306 68.6845 88.3414 69.9928 88.5163 71.7982C88.5616 72.2626 88.5732 72.6512 88.5752 72.9257C88.5531 84.3728 88.531 95.8202 88.5079 107.267C88.4468 107.851 88.334 108.333 88.2329 108.685C87.9148 109.789 87.4451 110.53 87.2892 110.766C87.0912 111.066 86.8542 111.423 86.456 111.796C85.6481 112.55 84.7865 112.791 84.2104 112.945C84.0134 112.996 83.1359 113.22 81.95 113.128C81.0304 113.055 80.3837 112.829 79.2957 112.449C78.473 112.162 77.7621 111.858 77.1764 111.581C58.7858 103.842 40.3962 96.1034 22.0055 88.3654C21.5336 88.1712 20.9301 87.8989 20.2507 87.5249C19.1468 86.9194 18.3832 86.3465 18.1989 86.2065C17.8302 85.9273 17.2098 85.4517 16.4936 84.7072C15.8479 84.035 15.3781 83.5469 14.9368 82.729C14.8188 82.5098 14.348 81.6115 14.1236 80.3044C14.0046 79.6141 13.9909 79.021 14.0046 78.5928C14.033 60.7116 14.0598 42.8297 14.0883 24.9486C14.0451 25.6785 14.071 26.7514 14.4459 27.9467C15.1769 30.2775 16.7801 31.6083 17.5837 32.2749H17.5858Z" fill="#EBECEF"/>
<path d="M14.0969 24.6715C14.2365 24.6764 14.3479 24.7991 14.3479 24.9486C14.3473 25.281 14.3464 25.6138 14.3459 25.9462C14.378 26.51 14.4734 27.1631 14.6916 27.8587C15.3944 30.0995 16.9346 31.3858 17.7375 32.0518C17.7396 32.0534 17.7423 32.0542 17.7444 32.0559C18.586 32.7536 19.4116 33.2128 20.2522 33.6778C20.8855 34.0279 21.4589 34.3039 21.9358 34.5164L22.3801 34.7088C41.2837 42.6473 60.1873 50.586 79.091 58.5246L79.092 58.5251C79.8996 58.8541 80.9913 59.3876 82.1604 60.2572L82.1613 60.2577C83.8785 61.5356 84.8938 62.8934 85.468 63.6734C86.7572 65.4242 87.4428 67.0106 87.7229 67.7127L88.009 68.453C88.3115 69.2833 88.6393 70.3836 88.7737 71.7699L88.802 72.1107C88.825 72.4365 88.8326 72.7135 88.8342 72.9243V72.9264C88.8121 84.3734 88.7899 95.8208 88.7668 107.267C88.7668 107.277 88.7659 107.287 88.7649 107.297C88.7016 107.902 88.5854 108.403 88.4807 108.768C88.1513 109.911 87.6642 110.679 87.5002 110.926L87.4992 110.926C87.3248 111.19 87.1116 111.516 86.7776 111.858L86.6262 112.005C85.7687 112.805 84.854 113.058 84.2727 113.213L84.2717 113.215C84.0888 113.263 83.3711 113.445 82.3742 113.426L81.9309 113.405C80.9756 113.329 80.3001 113.093 79.2151 112.713C78.3831 112.423 77.664 112.116 77.0715 111.835L77.0705 111.835C58.684 104.098 40.2989 96.3599 21.9123 88.6237C21.4338 88.4267 20.8212 88.1509 20.132 87.7715C19.2933 87.3114 18.6474 86.87 18.2971 86.6171L18.049 86.4331C17.7232 86.1863 17.1979 85.7837 16.5822 85.1783L16.3127 84.9064C15.6682 84.2355 15.1735 83.7235 14.7121 82.8684C14.5869 82.6357 14.1012 81.7052 13.8694 80.3547C13.7471 79.6453 13.7316 79.0353 13.7453 78.5927L13.8293 25.9629C13.8079 25.5736 13.8129 25.2249 13.8303 24.9309C13.8392 24.7816 13.9573 24.6669 14.0969 24.6715ZM14.2639 78.5938L14.2629 78.6022C14.2497 79.0152 14.2633 79.5881 14.3781 80.2543C14.5947 81.5158 15.0486 82.3826 15.1604 82.5903C15.5816 83.371 16.0272 83.8357 16.674 84.509C17.3755 85.2382 17.9828 85.7039 18.3479 85.9803L18.3488 85.9808C18.5277 86.1167 19.2806 86.6818 20.3694 87.279C20.8711 87.5552 21.3311 87.7747 21.7258 87.9482L22.0979 88.1071L22.0998 88.1082L77.2707 111.323L77.2815 111.327L77.7385 111.538C78.2184 111.751 78.7664 111.974 79.3762 112.186L80.1174 112.441C80.7928 112.665 81.3063 112.799 81.969 112.852L82.384 112.872C83.3152 112.889 83.9834 112.719 84.1477 112.676L84.6154 112.541C85.1193 112.38 85.7166 112.118 86.2854 111.588C86.6588 111.238 86.8808 110.904 87.0774 110.606L87.0783 110.605C87.2263 110.382 87.6788 109.669 87.9856 108.605C88.0827 108.266 88.1902 107.803 88.2492 107.242C88.2723 95.8046 88.2945 84.3666 88.3166 72.9284L88.3029 72.4474C88.2986 72.3548 88.2937 72.2563 88.2863 72.1526L88.259 71.8274C88.0883 70.0652 87.5903 68.7881 87.2473 67.9313C86.9775 67.255 86.3128 65.7154 85.0617 64.0163C84.4964 63.2486 83.5185 61.9432 81.8654 60.7131C80.7386 59.8748 79.686 59.3594 78.9074 59.0422L78.9055 59.0411C60.0008 51.1022 41.0952 43.1632 22.1906 35.2243C21.632 34.9909 20.878 34.6474 20.0149 34.1703C19.178 33.7073 18.314 33.2287 17.4319 32.4983C17.4298 32.4967 17.427 32.4957 17.425 32.4941C16.6661 31.8646 15.1491 30.6088 14.342 28.4464C14.3155 45.1618 14.2904 61.8783 14.2639 78.5938Z" fill="black"/>
<path d="M19.7498 17.9116C19.4686 18.0755 19.1768 18.2557 18.8756 18.4568C18.0888 18.9845 16.6342 20.0578 15.4555 21.6474C14.773 22.5692 14.4265 23.3352 14.2369 24.1035C14.1505 24.4492 14.1094 24.7441 14.0883 24.9486C14.0883 25.2842 14.0883 25.6197 14.0862 25.9552V25.9642C14.1199 26.5483 14.2179 27.2262 14.4444 27.9471C15.1754 30.2789 16.7795 31.6087 17.5821 32.2752C18.4448 32.9904 19.2906 33.4593 20.1301 33.9237C20.9843 34.3959 21.7301 34.7359 22.282 34.9665L78.996 58.7835C79.7891 59.1066 80.8614 59.6308 82.0095 60.4849C83.6948 61.7389 84.6912 63.0711 85.2611 63.8461C86.5313 65.5713 87.2065 67.1326 87.4814 67.8218C87.8269 68.6861 88.3388 69.9932 88.5126 71.7997C88.5579 72.263 88.5695 72.6528 88.5726 72.9261C88.5505 84.3732 88.5274 95.8201 88.5052 107.266C88.4441 107.853 88.3325 108.333 88.2303 108.686C87.9122 109.79 87.4424 110.531 87.2866 110.767C87.0875 111.067 86.8515 111.425 86.4534 111.796C87.6636 110.804 88.8739 109.811 90.0841 108.82C90.2632 108.674 90.5002 108.472 90.7635 108.212C91.0184 107.962 91.3239 107.661 91.6356 107.224C92.0707 106.614 92.2876 106.06 92.3993 105.772C92.4941 105.526 92.6911 104.973 92.8059 104.23C92.8776 103.761 92.8954 103.353 92.8943 103.04C92.9007 101.945 92.908 100.849 92.9144 99.7541V70.2259C92.9228 69.704 92.9091 69.0453 92.8354 68.2906C92.7132 67.0411 92.4835 66.1169 92.4182 65.8661C92.0359 64.3714 91.5114 63.3162 91.189 62.6756C90.9194 62.139 90.2611 60.9006 89.1477 59.5279C88.678 58.9495 88.0228 58.1519 86.9864 57.317C86.11 56.6109 85.3411 56.185 84.885 55.9342C84.1572 55.5353 83.5105 55.2551 83.0112 55.062C64.2582 47.1693 45.5052 39.2755 26.7522 31.3816C25.8643 31.0765 25.167 30.7071 24.6709 30.4043C24.358 30.2123 23.9083 29.9344 23.3816 29.4677C22.9761 29.1085 22.5495 28.7288 22.1619 28.0962C21.9544 27.7561 21.6152 27.2014 21.5078 26.406C21.353 25.2604 21.7775 24.3544 21.9744 23.9498C22.3968 23.0777 22.9677 22.5817 23.4606 22.1524C23.6429 21.9942 24.0758 21.6338 24.9384 21.1525" fill="white"/>
<path d="M19.6741 17.6458C19.7892 17.6081 19.9169 17.6612 19.9768 17.7786C20.0451 17.9131 19.9989 18.0819 19.8733 18.1551L19.4504 18.4091C19.3068 18.4983 19.1611 18.593 19.0129 18.6919L19.012 18.6909C18.235 19.212 16.8101 20.2663 15.6584 21.8195C14.9947 22.716 14.6667 23.4484 14.4875 24.1743L14.4866 24.1738C14.4054 24.4987 14.3662 24.7771 14.3459 24.9711C14.3459 25.2956 14.347 25.621 14.345 25.9467L14.3811 26.3859C14.4317 26.8402 14.5262 27.3377 14.6897 27.8581C15.3938 30.1041 16.9396 31.3903 17.7405 32.0554C18.5822 32.7531 19.4086 33.2122 20.2493 33.6772C21.0938 34.144 21.8311 34.4805 22.3762 34.7082L79.0872 58.524L79.0881 58.5235C79.8958 58.8526 80.9882 59.3867 82.1575 60.2567C83.8745 61.5344 84.8896 62.8926 85.4641 63.6739C86.7531 65.4245 87.4388 67.0098 87.719 67.7122C88.0668 68.5823 88.5918 69.921 88.7698 71.7703C88.8162 72.2447 88.8281 72.6439 88.8313 72.9227V72.9258C88.8092 84.3686 88.786 95.8246 88.7639 107.266C88.7639 107.276 88.764 107.286 88.7629 107.296C88.6997 107.904 88.584 108.402 88.4778 108.768C88.2976 109.393 88.0689 109.904 87.8733 110.281C88.5577 109.72 89.2426 109.16 89.927 108.599L89.928 108.598C90.1025 108.456 90.3325 108.259 90.5881 108.007C90.8422 107.758 91.1333 107.472 91.4299 107.056C91.8443 106.475 92.051 105.947 92.1604 105.665C92.2511 105.43 92.4397 104.899 92.55 104.185C92.6189 103.734 92.6361 103.341 92.635 103.04V103.037C92.6382 102.49 92.6423 101.942 92.6458 101.395C92.6492 100.848 92.6523 100.301 92.6555 99.7541V70.2207C92.6639 69.708 92.6499 69.0598 92.5774 68.3182C92.4573 67.0896 92.2322 66.1818 92.1692 65.9398L92.1682 65.9387C91.7939 64.4753 91.2811 63.4425 90.9612 62.807C90.6968 62.2807 90.0486 61.0614 88.9524 59.7098C88.4856 59.1349 87.8443 58.3549 86.8303 57.538C86.1867 57.0195 85.6024 56.6551 85.1594 56.4003L84.7668 56.1807C84.0506 55.7882 83.4143 55.5122 82.9231 55.3222L82.9163 55.3191C64.1666 47.4278 45.4169 39.5359 26.6672 31.6434C25.9886 31.4098 25.4186 31.1396 24.9622 30.8884L24.5422 30.6448C24.2263 30.4509 23.7604 30.1629 23.2161 29.6807C22.8096 29.3206 22.3562 28.9183 21.9456 28.2482V28.2471C21.736 27.9037 21.3674 27.3055 21.2512 26.4455C21.084 25.2078 21.5435 24.2335 21.7444 23.8209C22.1938 22.8934 22.8037 22.3664 23.2971 21.9366L23.2981 21.9361C23.4923 21.7677 23.9394 21.3972 24.8186 20.9066L24.8674 20.8853C24.9832 20.8498 25.1104 20.9045 25.1682 21.0233C25.2343 21.159 25.1847 21.3273 25.0579 21.3981L24.761 21.5681C24.1123 21.9529 23.7727 22.2368 23.6233 22.3664C23.1311 22.7951 22.5997 23.2607 22.2043 24.077C22.0114 24.4734 21.6216 25.3125 21.7639 26.366C21.8625 27.0962 22.1727 27.6071 22.3782 27.9439L22.5168 28.1561C22.8429 28.6276 23.1924 28.9407 23.5461 29.2541C24.0545 29.7045 24.4884 29.9727 24.7981 30.1628L24.7991 30.1623C25.2225 30.4208 25.7968 30.7297 26.5149 31.0024L26.8313 31.1174L26.8469 31.1222C45.5973 39.015 64.3475 46.9088 83.0979 54.8004L83.0989 54.8C83.6063 54.9963 84.2638 55.282 85.0032 55.6872L85.4055 55.912C85.8617 56.1744 86.4703 56.5539 87.1409 57.0941L87.1418 57.0946C88.2007 57.9476 88.8704 58.7639 89.343 59.3459C90.4733 60.7394 91.1424 61.9964 91.4172 62.5435C91.7421 63.189 92.278 64.2666 92.6682 65.7923L92.6672 65.7919C92.7351 66.0527 92.969 66.9925 93.093 68.2611C93.168 69.0287 93.1816 69.699 93.1731 70.2301V99.7552L93.1536 103.041C93.1546 103.366 93.135 103.788 93.0608 104.274V104.275C92.9417 105.046 92.738 105.62 92.6389 105.877L92.6379 105.879C92.5239 106.173 92.2966 106.753 91.8411 107.392C91.5144 107.849 91.1944 108.165 90.9387 108.416C90.6682 108.683 90.424 108.889 90.2405 109.038C89.0304 110.03 87.8207 111.023 86.6106 112.015C86.4997 112.106 86.3417 112.087 86.2532 111.972C86.1647 111.856 86.1781 111.685 86.2834 111.587C86.6564 111.239 86.8772 110.904 87.0754 110.606C87.2242 110.38 87.6763 109.667 87.9827 108.603L88.0579 108.326C88.1315 108.03 88.202 107.668 88.2463 107.249C88.2684 95.8058 88.2916 84.3738 88.3137 72.9289C88.3114 72.728 88.3045 72.4635 88.2825 72.1531L88.2551 71.8279C88.0855 70.0647 87.5865 68.7891 87.2434 67.9307C86.9737 67.2546 86.309 65.7162 85.0579 64.0168C84.4925 63.248 83.5146 61.9427 81.8616 60.7126C80.7347 59.8743 79.6821 59.3588 78.9036 59.0416H78.9016V59.0401L22.1877 35.2237V35.2248C21.6291 34.9914 20.8747 34.6471 20.011 34.1697C19.1729 33.7061 18.3085 33.2264 17.425 32.4941L17.4231 32.4931C16.6185 31.8248 14.9562 30.4519 14.1985 28.0348V28.0338C13.9638 27.2866 13.8622 26.5847 13.8274 25.9812V25.9525C13.8295 25.618 13.8293 25.2828 13.8293 24.947C13.8293 24.9369 13.8303 24.9278 13.8313 24.9178C13.8535 24.703 13.896 24.3934 13.9866 24.031C14.1867 23.2209 14.5513 22.421 15.2522 21.4744L15.2532 21.474C16.4586 19.8484 17.9418 18.7556 18.7385 18.2214L19.1907 17.9302C19.3386 17.8384 19.4838 17.7508 19.6262 17.6678L19.6741 17.6458Z" fill="black"/>
<path d="M113.987 79.7922C113.975 79.8792 113.954 80.0306 113.878 80.199C113.812 80.3469 113.725 80.4487 113.552 80.6453C113.447 80.765 113.354 80.8599 113.287 80.9243C106.017 86.9404 98.7447 92.9565 91.4738 98.9716C91.2937 99.1003 91.0282 99.2687 90.6849 99.4099C90.2235 99.6019 89.8454 99.6539 89.4514 99.7059C88.8532 99.7838 88.3844 99.7635 88.2096 99.7533C87.7261 99.725 87.0225 99.6291 86.2094 99.3149C82.3037 97.6644 78.3981 96.0125 74.4914 94.362C74.366 94.3247 74.1965 94.2649 74.0048 94.1711C73.6108 93.9767 73.3601 93.7519 73.2948 93.692C73.1095 93.5225 72.9567 93.3825 72.8377 93.1339C72.7397 92.9317 72.705 92.743 72.6892 92.6481C72.6555 92.456 72.6534 92.2922 72.6586 92.1736C72.6713 86.9935 72.6829 81.8134 72.6945 76.6344C72.7039 76.7327 72.725 76.8345 72.7598 76.9372C72.8883 77.3113 73.1495 77.5191 73.4286 77.7428C73.6772 77.9405 73.9121 78.0569 74.0753 78.1247C77.9104 79.738 81.7455 81.3502 85.5795 82.9635C86.0503 83.1872 86.4738 83.3284 86.8087 83.4212C87.5618 83.6268 88.1559 83.6583 88.336 83.6652C88.5941 83.6754 88.9985 83.69 89.5252 83.6019C89.7506 83.5635 90.154 83.4934 90.6459 83.2822C91.0577 83.1059 91.3548 82.9059 91.5675 82.7614C91.8108 82.5964 92.0078 82.4382 92.1521 82.3151C99.0428 76.63 105.932 70.9437 112.822 65.2587C112.908 65.192 113.03 65.0926 113.168 64.9616C113.419 64.7243 113.592 64.5593 113.724 64.2916C113.773 64.1921 113.879 63.9707 113.892 63.6646C113.926 68.9192 113.961 74.1739 113.994 79.4296C114.002 79.52 114.006 79.6454 113.987 79.7922Z" fill="#EBECEF"/>
<path d="M113.898 63.3873C114.038 63.3904 114.15 63.5123 114.151 63.6623C114.185 68.9165 114.219 74.1711 114.252 79.4266C114.26 79.5303 114.264 79.6692 114.243 79.8302V79.8323C114.231 79.9236 114.206 80.1109 114.112 80.3195L114.111 80.3185C114.068 80.4149 114.018 80.4969 113.957 80.5778L113.741 80.8351C113.631 80.9604 113.532 81.0606 113.46 81.1299C113.456 81.1344 113.451 81.1394 113.446 81.1435C106.176 87.1596 98.903 93.1755 91.6321 99.1905C91.6274 99.1944 91.6224 99.1984 91.6175 99.202C91.4263 99.3386 91.1433 99.5168 90.7776 99.6673L90.7786 99.6683C90.2848 99.8737 89.8784 99.9288 89.4827 99.981C89.0186 100.041 88.6296 100.045 88.387 100.038L88.1956 100.03C87.6935 100.001 86.9637 99.9007 86.1214 99.5752L86.1145 99.5732V99.5721C82.2117 97.9228 78.3093 96.2723 74.4056 94.623C74.2714 94.5824 74.0953 94.5199 73.8977 94.4233L73.8968 94.4223C73.5788 94.2654 73.3467 94.09 73.219 93.9831L73.1263 93.9026C72.9425 93.7345 72.7535 93.5626 72.6087 93.2606C72.4936 93.0229 72.4523 92.8036 72.4348 92.699L72.4124 92.5422C72.3958 92.3914 72.3953 92.2614 72.3997 92.1605C72.4124 86.9846 72.4242 81.8086 72.4358 76.6336C72.4362 76.4861 72.5444 76.3649 72.6819 76.3576C72.8194 76.3503 72.9384 76.4598 72.9524 76.6064C72.9597 76.6818 72.9759 76.7607 73.0032 76.8417L73.0442 76.9431C73.1514 77.1691 73.3329 77.3189 73.5843 77.5203C73.8092 77.6992 74.0212 77.805 74.1692 77.8664L85.6741 82.7057L85.6849 82.7099L86.0169 82.8573C86.3391 82.9911 86.6301 83.0849 86.8733 83.1522C87.6015 83.351 88.1747 83.381 88.345 83.3875C88.5988 83.3975 88.9837 83.4116 89.4847 83.3279L89.679 83.2923C89.9006 83.2485 90.202 83.1741 90.5501 83.0247L90.8216 82.8971C91.0742 82.7672 91.2714 82.634 91.429 82.5269L91.7454 82.2979C91.8392 82.2254 91.9211 82.1575 91.9905 82.0982L91.9944 82.0951C98.885 76.41 105.774 70.7244 112.664 65.0394L112.67 65.0342C112.751 64.9712 112.866 64.8774 112.996 64.7539C113.251 64.5129 113.389 64.3784 113.495 64.1621C113.539 64.0727 113.624 63.8955 113.634 63.6518L113.641 63.5975C113.669 63.4743 113.775 63.3847 113.898 63.3873ZM113.641 64.8679C113.548 64.9696 113.448 65.0655 113.339 65.168C113.196 65.3035 113.07 65.4072 112.98 65.4775C106.091 71.1616 99.2024 76.8469 92.3128 82.5311C92.1632 82.6588 91.9592 82.8239 91.7063 82.9954C91.4911 83.1416 91.1774 83.3529 90.7425 83.5391C90.3527 83.7065 90.0153 83.7904 89.7737 83.8382L89.5657 83.8758C89.0138 83.9681 88.5888 83.952 88.3265 83.9417C88.1596 83.9353 87.669 83.9092 87.0286 83.7608L86.7444 83.6897C86.4013 83.5947 85.9671 83.4496 85.4847 83.2212C81.6508 81.608 77.8158 79.9963 73.9807 78.383V78.3819C73.8025 78.3078 73.5462 78.1807 73.2747 77.9647C73.1708 77.8815 73.0582 77.7921 72.9505 77.6887C72.9397 82.5166 72.9291 87.3453 72.9173 92.1741V92.1867C72.9128 92.2895 72.9146 92.4309 72.9436 92.5966L72.9446 92.5997C72.9554 92.6643 72.9744 92.768 73.0169 92.8852L73.0677 93.0065V93.0075C73.1607 93.2019 73.2766 93.3105 73.4632 93.4812L73.6731 93.6527C73.7828 93.733 73.9307 93.8289 74.1116 93.9183C74.2 93.9615 74.2842 93.9971 74.3597 94.026L74.5608 94.095L74.5862 94.1044C78.4929 95.7549 82.3994 97.4061 86.305 99.0566C87.086 99.3574 87.7603 99.4488 88.2239 99.4759C88.3908 99.4856 88.843 99.5062 89.4202 99.4309L89.7083 99.3902C89.9922 99.3462 90.2696 99.2855 90.5911 99.1518L90.5921 99.1507C90.9102 99.0198 91.1566 98.8633 91.3255 98.7429C98.5903 92.7329 105.857 86.7217 113.12 80.7106C113.182 80.6514 113.267 80.5651 113.364 80.4555C113.542 80.2531 113.599 80.1813 113.645 80.079V80.078C113.703 79.9501 113.719 79.8345 113.731 79.7518C113.746 79.6324 113.743 79.5303 113.737 79.4558C113.736 79.4479 113.736 79.4397 113.736 79.4318C113.705 74.5767 113.672 69.7221 113.641 64.8679Z" fill="black"/>
<path d="M73.3078 75.1276C78.3932 77.2493 83.4775 79.3699 88.5628 81.4917C95.7874 75.532 103.012 69.5713 110.237 63.6117C110.237 62.7508 110.24 61.8887 110.241 61.0279C110.842 61.2515 111.444 61.474 112.045 61.6978C112.225 61.7667 112.487 61.8808 112.789 62.0593C113.213 62.3112 113.465 62.4604 113.661 62.7824C113.723 62.8841 113.918 63.2151 113.899 63.6648C113.885 63.9709 113.779 64.1935 113.73 64.2918C113.599 64.5595 113.425 64.7245 113.175 64.9618C113.037 65.0928 112.915 65.1922 112.829 65.26C105.939 70.9451 99.0495 76.6302 92.1588 82.3153C92.0134 82.4395 91.8175 82.5966 91.5742 82.7615C91.3614 82.9061 91.0644 83.1062 90.6526 83.2824C90.1607 83.4937 89.7583 83.5637 89.5319 83.601C89.0052 83.6891 88.6007 83.6756 88.3427 83.6642C88.1626 83.6575 87.5695 83.6258 86.8164 83.4202C86.4804 83.3287 86.0581 83.1874 85.5872 82.9627C81.7522 81.3505 77.9171 79.7371 74.0831 78.1249C73.9198 78.0572 73.6849 77.9408 73.4363 77.7419C73.1572 77.5193 72.896 77.3103 72.7675 76.9364C72.5558 76.3195 72.8665 75.7286 72.9234 75.6201C73.0477 75.383 73.2015 75.2225 73.3099 75.1253L73.3078 75.1276Z" fill="white"/>
<path d="M110.326 60.7664C110.924 60.9889 111.532 61.2128 112.13 61.4357L112.132 61.4367C112.323 61.5095 112.598 61.6293 112.914 61.8163L112.915 61.8173C113.328 62.0628 113.641 62.2418 113.878 62.6308C113.947 62.7444 114.18 63.1376 114.158 63.6775V63.6786C114.141 64.0443 114.014 64.309 113.958 64.42L113.959 64.421C113.803 64.7403 113.592 64.9373 113.347 65.1697C113.201 65.3083 113.072 65.4129 112.983 65.4834C106.095 71.1663 99.2076 76.8478 92.3196 82.5307L92.3206 82.5317C92.1697 82.6606 91.9661 82.8246 91.7132 82.996C91.4978 83.1424 91.1834 83.3525 90.7484 83.5387C90.2293 83.7616 89.8046 83.837 89.5716 83.8754V83.8743C89.0203 83.9665 88.5962 83.9529 88.3323 83.9413V83.9402C88.1402 83.933 87.5279 83.901 86.7523 83.6893C86.4072 83.5952 85.9749 83.4491 85.4925 83.2197C81.6579 81.6077 77.8231 79.9945 73.9896 78.3826C73.8556 78.327 73.6773 78.2419 73.4818 78.1107L73.2816 77.9643C73.0098 77.7475 72.6835 77.4942 72.5247 77.0326V77.0316C72.2685 76.2846 72.6425 75.589 72.6976 75.484C72.8419 75.2086 73.0203 75.0238 73.1439 74.9131C73.2268 74.8388 73.3404 74.8302 73.431 74.8817C78.4608 76.9802 83.4901 79.0769 88.5198 81.1755C95.6724 75.2752 102.826 69.3748 109.979 63.4747C109.979 62.6593 109.982 61.8419 109.983 61.0279C109.983 60.9383 110.023 60.8539 110.091 60.802C110.159 60.7501 110.247 60.737 110.326 60.7664ZM110.496 63.6117C110.496 63.6977 110.458 63.7788 110.395 63.8312C103.17 69.7907 95.9455 75.7513 88.721 81.7109C88.6492 81.7702 88.5536 81.7848 88.4691 81.7496C83.4342 79.6488 78.4005 77.5491 73.3655 75.4485C73.2941 75.5269 73.2166 75.6283 73.1497 75.7559C73.0908 75.8683 72.8442 76.355 73.0111 76.8413C73.1094 77.1267 73.3051 77.2917 73.5911 77.5199L73.7571 77.6412C73.8646 77.7133 73.9656 77.769 74.054 77.8116L74.1771 77.866L74.178 77.8671L85.682 82.7042L85.6927 82.7095L86.0247 82.858C86.3466 82.9921 86.6369 83.0855 86.8802 83.1518C87.6088 83.3507 88.1821 83.3807 88.3519 83.3871H88.3538C88.6059 83.3981 88.991 83.4114 89.4925 83.3275L89.6859 83.2929C89.9071 83.2497 90.2084 83.175 90.557 83.0253C90.9453 82.859 91.2257 82.6704 91.4359 82.5275C91.6694 82.3693 91.8575 82.2183 91.9974 82.0988L92.0013 82.0957C98.8919 76.4106 105.781 70.7251 112.671 65.04L112.676 65.0369C112.759 64.9719 112.873 64.8778 113.003 64.7546C113.258 64.5126 113.396 64.3785 113.501 64.1627L113.502 64.1617C113.545 64.0751 113.63 63.8958 113.641 63.6514C113.656 63.2927 113.5 63.0242 113.445 62.9341C113.29 62.6794 113.099 62.5595 112.664 62.3015V62.3025C112.378 62.1332 112.13 62.0245 111.96 61.9595L110.499 61.4158C110.498 62.1483 110.496 62.8798 110.496 63.6117Z" fill="black"/>
</g>
</g>
</svg>
