<svg width="120" height="152" viewBox="0 0 120 152" fill="none" xmlns="http://www.w3.org/2000/svg">
<g id="illustration / deriv / light / proven-track-record">
<g id="Proven track record">
<g id="Group">
<path id="Vector" d="M26.1385 65.0529C26.1385 68.3029 26.6671 71.4301 27.6457 74.3529C25.2885 73.4915 22.3942 72.2687 19.0314 70.5472C9.16708 65.4987 6.96994 56.6629 6.96994 56.6629C6.96994 56.6629 4.16423 45.9572 11.0828 39.2729C18.0014 32.5887 27.7271 35.0658 27.7271 35.0658C26.6928 36.0472 26.1371 37.0929 26.1371 38.1772V47.9744C24.7257 47.6358 23.2942 47.4929 21.9357 47.7172C18.9128 48.2944 18.5871 51.8358 19.7642 54.1944C20.5742 55.9587 22.1842 57.4401 23.6614 58.4429C24.4671 59.0187 25.2828 59.4101 26.1357 59.7201V65.0529H26.1385Z" fill="white"/>
<path id="Vector_2" d="M27.6457 74.6386C27.6128 74.6386 27.58 74.6329 27.5471 74.6215C24.7971 73.6158 21.8885 72.3315 18.9014 70.8015C13.7485 68.1643 10.7057 64.4858 9.05996 61.8643C7.27425 59.0186 6.71568 56.8243 6.69282 56.7329C6.66425 56.6258 5.98282 53.9772 6.14711 50.4629C6.29853 47.2072 7.24425 42.5872 10.8857 39.0686C14.5214 35.5558 18.9271 34.5786 21.9828 34.3786C25.2857 34.1615 27.6985 34.7643 27.8 34.7901C27.9014 34.8158 27.98 34.8943 28.0057 34.9943C28.0314 35.0943 28.0014 35.2015 27.9257 35.2729C26.93 36.2186 26.4242 37.1958 26.4242 38.1772V47.9743C26.4242 48.0615 26.3843 48.1443 26.3157 48.1986C26.2471 48.2529 26.1571 48.2729 26.0728 48.2515C24.53 47.8815 23.1928 47.7986 21.9857 47.9986C20.99 48.1886 20.2614 48.7301 19.8285 49.6058C19.2228 50.8286 19.3014 52.6215 20.0228 54.0672C20.93 56.0401 22.7942 57.5072 23.8257 58.2072C24.5471 58.7229 25.3128 59.1172 26.2371 59.4515C26.35 59.4929 26.4257 59.6001 26.4257 59.7201V65.0529C26.4257 68.2043 26.9285 71.3029 27.9185 74.2615C27.9528 74.3658 27.9257 74.4801 27.8471 74.5572C27.7928 74.6101 27.7214 74.6386 27.6471 74.6386H27.6457ZM23.3957 34.9029C22.9528 34.9029 22.4857 34.9172 22 34.9486C19.0457 35.1443 14.7885 36.0901 11.2814 39.4786C7.77996 42.8629 6.86711 47.3243 6.71853 50.4715C6.55568 53.9029 7.23996 56.5644 7.24711 56.5915C7.26996 56.6815 9.53568 65.3672 19.1614 70.2929C21.9285 71.7101 24.6271 72.9143 27.1914 73.8801C26.3014 71.0343 25.8514 68.0672 25.8514 65.0529V59.9186C24.96 59.5801 24.2071 59.1829 23.4957 58.6758C22.4214 57.9472 20.4642 56.4044 19.5042 54.3144C18.6985 52.7001 18.6214 50.7486 19.3128 49.3529C19.8228 48.3229 20.7114 47.6615 21.8828 47.4372C23.08 47.2386 24.3785 47.2986 25.8514 47.6172V38.1786C25.8514 37.1701 26.29 36.1829 27.1571 35.2386C26.4657 35.1086 25.1057 34.9043 23.3942 34.9043L23.3957 34.9029Z" fill="black"/>
</g>
<g id="Group_2">
<path id="Vector_3" d="M88.8686 49.2141C88.8443 53.7027 90.5043 55.4541 90.5043 55.4541C91.5343 55.3712 92.6571 55.3927 93.7771 55.5512V64.9427C93.7771 65.8155 93.7386 66.6784 93.6628 67.5298C92.5143 67.7198 91.4243 67.8598 90.5971 68.007C90.5971 68.007 85.6771 70.987 85.6428 81.4712C85.6428 81.4712 86.88 81.4441 88.8028 81.2755C84.1557 88.1798 76.6457 92.9998 67.9714 94.027C66.83 94.1641 65.6671 94.2327 64.4871 94.2327H55.3757C54.1957 94.2327 53.0328 94.1641 51.89 94.027C40.5057 92.6784 31.1243 84.7998 27.5928 74.2427C26.6143 71.3198 26.0857 68.1927 26.0857 64.9427V26.4541C26.0857 28.1312 27.4171 29.7141 29.7771 31.1112C35.3786 34.427 46.7785 36.6984 59.9314 36.6984C78.6228 36.6984 93.7771 32.1112 93.7771 26.4541V42.4541C93.2371 42.4198 92.6943 42.3998 92.14 42.3898C92.14 42.3898 88.8914 44.727 88.8686 49.2141Z" fill="white"/>
<path id="Vector_4" d="M64.4872 94.5199H55.3757C54.1929 94.5199 53.0086 94.4499 51.8557 94.3113C40.5643 92.9727 30.9343 85.1313 27.3214 74.3342C26.3114 71.317 25.7986 68.157 25.7986 64.9442V26.4542C25.7986 26.297 25.9272 26.1685 26.0843 26.1685C26.2414 26.1685 26.37 26.297 26.37 26.4542C26.37 27.9642 27.5986 29.4899 29.9214 30.8656C35.7014 34.287 47.2 36.4127 59.93 36.4127C68.9429 36.4127 77.4129 35.3513 83.78 33.4242C89.9514 31.5556 93.49 29.0156 93.49 26.4542C93.49 26.297 93.6186 26.1685 93.7757 26.1685C93.9329 26.1685 94.0614 26.297 94.0614 26.4542V42.4542C94.0614 42.5327 94.0286 42.6085 93.9714 42.6627C93.9143 42.717 93.8372 42.7442 93.7586 42.7399C93.28 42.7099 92.7814 42.6899 92.2343 42.6785C91.7657 43.0527 89.1729 45.3027 89.1529 49.217C89.1343 52.4813 90.0614 54.4656 90.6243 55.1599C91.68 55.0856 92.78 55.1227 93.8157 55.2699C93.9572 55.2899 94.0614 55.4099 94.0614 55.5527V64.9442C94.0614 65.8156 94.0229 66.6942 93.9472 67.557C93.9357 67.687 93.8372 67.7927 93.71 67.8142C93.1543 67.907 92.6229 67.9856 92.1086 68.0613C91.6 68.137 91.1171 68.2085 90.7043 68.2799C90.2443 68.5956 86.0472 71.7385 85.93 81.177C86.4043 81.1585 87.4243 81.1099 88.7772 80.9927C88.8872 80.9827 88.9929 81.037 89.0486 81.1327C89.1043 81.2285 89.1014 81.3456 89.04 81.437C84.2143 88.6085 76.5472 93.3013 68.0057 94.3127C66.8543 94.4513 65.6714 94.5213 64.4886 94.5213L64.4872 94.5199ZM26.37 28.427V64.9442C26.37 68.0956 26.8729 71.1942 27.8629 74.1527C31.4057 84.7413 40.85 92.4313 51.9229 93.7442C53.0543 93.8799 54.2157 93.9485 55.3743 93.9485H64.4857C65.6457 93.9485 66.8072 93.8799 67.9357 93.7442C76.1157 92.7756 83.4757 88.3642 88.2243 81.6113C86.6572 81.7342 85.6586 81.757 85.6486 81.7585C85.5714 81.7585 85.4972 81.7313 85.4414 81.677C85.3857 81.6227 85.3557 81.5485 85.3557 81.4727C85.39 70.9485 90.2414 67.8913 90.4486 67.7656C90.4786 67.747 90.5114 67.7342 90.5472 67.7285C90.98 67.6513 91.4872 67.577 92.0243 67.497C92.4671 67.4313 92.9243 67.3642 93.3957 67.287C93.4586 66.5127 93.49 65.7256 93.49 64.9456V55.8042C92.52 55.6842 91.5 55.6627 90.5257 55.7413C90.44 55.7485 90.3543 55.7156 90.2957 55.6527C90.2243 55.5785 88.5572 53.7656 88.5829 49.2142C88.6057 44.6327 91.8357 42.2585 91.9729 42.1585C92.0229 42.1227 92.0843 42.1027 92.1457 42.1042C92.6243 42.1127 93.0672 42.1285 93.4914 42.1513V28.4142C92.2386 30.5285 88.9572 32.4542 83.9457 33.9713C77.5272 35.9142 68.9986 36.9842 59.93 36.9842C47.1029 36.9842 35.4929 34.8285 29.63 31.357C28.0672 30.4299 26.9772 29.4499 26.37 28.4256V28.427Z" fill="black"/>
</g>
<g id="Group_3">
<path id="Vector_5" d="M81.5286 126.276C81.5286 128.907 76.3886 131.176 68.9786 132.213C66.2272 132.597 63.1615 132.813 59.9315 132.813C56.7015 132.813 53.6343 132.597 50.8829 132.213C43.4729 131.176 38.3329 128.907 38.3329 126.276C38.3329 123.644 43.9443 121.171 51.89 120.207V126.366C51.89 127.708 55.4915 128.798 59.9315 128.798C64.3715 128.798 67.9715 127.708 67.9715 126.366V120.207C75.9172 121.171 81.5286 123.524 81.5286 126.276Z" fill="#EBECEE"/>
<path id="Vector_6" d="M59.9314 133.1C56.7614 133.1 53.7043 132.897 50.8428 132.497C42.95 131.393 38.0471 129.009 38.0471 126.277C38.0471 124.824 39.42 123.453 42.0171 122.311C44.47 121.234 47.8728 120.409 51.8557 119.926C51.9371 119.916 52.0185 119.941 52.08 119.996C52.1414 120.05 52.1757 120.127 52.1757 120.21V126.369C52.1757 127.246 54.9371 128.516 59.9314 128.516C64.9257 128.516 67.6857 127.246 67.6857 126.369V120.21C67.6857 120.129 67.7214 120.05 67.7814 119.996C67.8428 119.941 67.9243 119.916 68.0057 119.926C71.99 120.409 75.3914 121.234 77.8443 122.311C80.4414 123.453 81.8143 124.823 81.8143 126.277C81.8143 129.01 76.9114 131.393 69.0186 132.497C66.1571 132.897 63.1 133.1 59.9314 133.1ZM51.6028 120.531C43.8214 121.52 38.6171 123.816 38.6171 126.276C38.6171 128.736 43.5614 130.9 50.9214 131.93C53.7571 132.326 56.7885 132.527 59.9314 132.527C63.0743 132.527 66.1043 132.326 68.94 131.93C76.2985 130.9 81.2443 128.629 81.2443 126.276C81.2443 123.923 76.04 121.52 68.2586 120.531V126.367C68.2586 128.133 63.9685 129.086 59.9328 129.086C55.8971 129.086 51.6057 128.133 51.6057 126.367V120.531H51.6028Z" fill="black"/>
</g>
<g id="Group_4">
<path id="Vector_7" d="M67.9714 94.0286V126.367C67.9714 127.71 64.3714 128.8 59.9314 128.8C55.4914 128.8 51.89 127.71 51.89 126.367V94.0286C53.0329 94.1657 54.1957 94.2343 55.3757 94.2343H64.4872C65.6672 94.2343 66.83 94.1657 67.9714 94.0286Z" fill="white"/>
<path id="Vector_8" d="M59.9314 129.086C55.8942 129.086 51.6042 128.133 51.6042 126.367V94.0286C51.6042 93.9472 51.6385 93.8686 51.7 93.8143C51.7614 93.76 51.8428 93.7343 51.9242 93.7443C53.0542 93.88 54.2157 93.9486 55.3757 93.9486H64.4871C65.6471 93.9486 66.8085 93.88 67.9371 93.7443C68.0185 93.7343 68.1 93.76 68.1614 93.8143C68.2228 93.8686 68.2571 93.9457 68.2571 94.0286V126.367C68.2571 128.133 63.9671 129.086 59.9314 129.086ZM52.1742 94.3486V126.367C52.1742 127.383 55.36 128.514 59.93 128.514C64.5 128.514 67.6842 127.383 67.6842 126.367V94.3486C66.6342 94.4629 65.56 94.52 64.4857 94.52H55.3742C54.3014 94.52 53.2257 94.4629 52.1742 94.3486Z" fill="black"/>
</g>
<path id="Vector_9" d="M59.9314 16.9358C44.8228 16.9358 32.0271 19.9315 27.6757 24.0686C26.6414 25.0501 26.0857 26.0958 26.0857 27.1801C26.0857 28.8572 27.4171 30.4401 29.7771 31.8372C35.3786 35.1529 46.7785 37.4244 59.9314 37.4244C78.6228 37.4244 93.7771 32.8372 93.7771 27.1801C93.7771 21.5229 78.6228 16.9358 59.9314 16.9358ZM59.9314 30.5186C50.8728 30.5186 43.53 29.0229 43.53 27.1786C43.53 25.3344 50.8728 23.8386 59.9314 23.8386C68.99 23.8386 76.3328 25.3344 76.3328 27.1786C76.3328 29.0229 68.99 30.5186 59.9314 30.5186Z" fill="#EBECEE" stroke="black" stroke-width="0.571429" stroke-linecap="round" stroke-linejoin="round"/>
<g id="Group_5">
<path id="Vector_10" d="M59.9315 31.577C71.8593 31.577 81.5286 29.6083 81.5286 27.1799C81.5286 24.7514 71.8593 22.7827 59.9315 22.7827C48.0037 22.7827 38.3344 24.7514 38.3344 27.1799C38.3344 29.6083 48.0037 31.577 59.9315 31.577Z" fill="#CED0D6"/>
<path id="Vector_11" d="M59.9314 31.8627C54.1443 31.8627 48.7 31.4027 44.6029 30.5685C39.1857 29.4656 38.0486 28.117 38.0486 27.1799C38.0486 26.2427 39.1857 24.8942 44.6029 23.7899C48.7 22.9556 54.1443 22.4956 59.9314 22.4956C65.7186 22.4956 71.1629 22.9556 75.26 23.7899C80.6772 24.8927 81.8143 26.2413 81.8143 27.1799C81.8143 28.1185 80.6772 29.4656 75.26 30.5685C71.1629 31.4027 65.7186 31.8627 59.9314 31.8627ZM59.9314 23.0685C54.1814 23.0685 48.7772 23.5242 44.7172 24.3513C40.9 25.1285 38.62 26.187 38.62 27.1813C38.62 28.1756 40.9 29.2327 44.7172 30.0113C48.7786 30.8385 54.1814 31.2942 59.9314 31.2942C65.6814 31.2942 71.0857 30.8385 75.1457 30.0113C78.9629 29.2342 81.2429 28.1756 81.2429 27.1813C81.2429 26.187 78.9643 25.1299 75.1457 24.3513C71.0843 23.5242 65.6814 23.0685 59.9314 23.0685Z" fill="black"/>
</g>
<g id="Group_6">
<path id="Vector_12" d="M81.5286 126.276V138.148C81.5286 141.76 71.8586 144.687 59.9315 144.687C48.0043 144.687 38.3329 141.76 38.3329 138.148V126.276C38.3329 128.907 43.4729 131.176 50.8829 132.213C53.6343 132.597 56.7 132.813 59.9315 132.813C63.1629 132.813 66.2272 132.597 68.9786 132.213C76.3886 131.176 81.5286 128.907 81.5286 126.276Z" fill="white"/>
<path id="Vector_13" d="M59.9314 144.974C47.66 144.974 38.0471 141.977 38.0471 138.15V126.277C38.0471 126.12 38.1757 125.991 38.3328 125.991C38.49 125.991 38.6185 126.12 38.6185 126.277C38.6185 128.63 43.5628 130.901 50.9228 131.931C53.7585 132.327 56.79 132.529 59.9328 132.529C63.0757 132.529 66.1057 132.327 68.9414 131.931C76.3 130.901 81.2457 128.63 81.2457 126.277C81.2457 126.12 81.3743 125.991 81.5314 125.991C81.6885 125.991 81.8171 126.12 81.8171 126.277V138.15C81.8171 141.977 72.2043 144.974 59.9343 144.974H59.9314ZM38.6171 127.864V138.15C38.6171 141.54 48.3771 144.403 59.93 144.403C71.4828 144.403 81.2414 141.54 81.2414 138.15V127.864C79.7357 129.91 75.3328 131.613 69.0171 132.497C66.1557 132.897 63.0985 133.1 59.93 133.1C56.7614 133.1 53.7028 132.897 50.8414 132.497C44.5243 131.613 40.1228 129.91 38.6171 127.864Z" fill="black"/>
</g>
<g id="Group_7">
<path id="Vector_14" d="M113.56 62.8484C113.424 64.9056 113.183 66.8427 112.593 68.6241C111.269 72.2556 107.727 76.0584 103.74 77.8841C98.8472 80.087 92.4715 80.9398 88.7158 81.2656C86.7929 81.4327 85.5558 81.4613 85.5558 81.4613C85.5901 70.977 90.5101 67.997 90.5101 67.997C91.3372 67.8513 92.4272 67.7113 93.5758 67.5198C95.7201 67.1627 98.0715 66.6298 99.3244 65.5441C101.666 63.5456 101.194 59.607 98.8915 57.6913C97.4858 56.4741 95.5944 55.8084 93.6901 55.5398C92.5701 55.3813 91.4472 55.3598 90.4172 55.4427C90.4172 55.4427 88.7572 53.6913 88.7815 49.2027C88.8044 44.7141 92.0529 42.3784 92.0529 42.3784C92.6072 42.3898 93.1501 42.4098 93.6901 42.4427C96.2301 42.5984 98.6586 43.0413 101.38 44.2184C103.246 45.0256 105.063 46.0598 106.634 47.337C111.2 51.1327 113.92 56.9227 113.56 62.8498V62.8484Z" fill="white"/>
<path id="Vector_15" d="M85.5557 81.7471C85.4814 81.7471 85.4086 81.7171 85.3557 81.6657C85.3 81.6114 85.27 81.5385 85.27 81.4614C85.3043 70.9371 90.1557 67.88 90.3629 67.7542C90.3929 67.7357 90.4257 67.7228 90.4614 67.7171C90.8943 67.64 91.4014 67.5657 91.9386 67.4857C92.45 67.41 92.9786 67.3314 93.53 67.24C95.4914 66.9128 97.9014 66.4014 99.1386 65.3314C100.079 64.53 100.59 63.34 100.581 61.9828C100.571 60.4257 99.8543 58.8671 98.71 57.9157C97.1414 56.5585 95.0929 56.0314 93.65 55.8271C92.6072 55.68 91.4972 55.6471 90.44 55.7314C90.3529 55.7385 90.2686 55.7057 90.21 55.6428C90.1386 55.5685 88.4714 53.7557 88.4972 49.2042C88.5214 44.6228 91.75 42.2485 91.8872 42.1485C91.9372 42.1128 91.9986 42.0942 92.06 42.0942C92.6543 42.1057 93.1929 42.1271 93.7086 42.16C96.63 42.3385 99.0314 42.8928 101.493 43.9585C103.527 44.8385 105.317 45.9014 106.814 47.1171C111.577 51.0771 114.204 56.9657 113.846 62.8685C113.846 62.8685 113.846 62.8685 113.846 62.87C113.736 64.5471 113.524 66.7271 112.864 68.7171C111.474 72.53 107.856 76.3171 103.86 78.1471C98.8386 80.4071 92.2314 81.2514 88.74 81.5528C86.83 81.72 85.5743 81.7485 85.5629 81.7485C85.5614 81.7485 85.5586 81.7485 85.5572 81.7485L85.5557 81.7471ZM90.6186 68.2685C90.1586 68.5842 85.9614 71.7271 85.8443 81.1657C86.3186 81.1471 87.3386 81.0985 88.6914 80.9814C92.1472 80.6828 98.6814 79.85 103.624 77.6242C107.429 75.8814 111.007 72.14 112.326 68.5271C112.961 66.6085 113.169 64.4742 113.277 62.8314C113.624 57.1085 111.074 51.3985 106.453 47.5557C105 46.3757 103.254 45.34 101.267 44.4799C98.8686 43.4428 96.5272 42.9028 93.6743 42.7285C93.1957 42.6985 92.6957 42.6785 92.15 42.6671C91.6814 43.0414 89.0886 45.2914 89.0686 49.2057C89.0557 51.4542 89.4814 52.9785 89.84 53.8614C90.1214 54.5542 90.4072 54.9714 90.5443 55.1485C91.5986 55.0742 92.6972 55.1128 93.7314 55.2585C95.25 55.4728 97.4114 56.0328 99.08 57.4771C100.366 58.5457 101.141 60.2285 101.153 61.9771C101.163 63.5071 100.58 64.8514 99.5114 65.7628C98.1686 66.9257 95.66 67.4642 93.6243 67.8028C93.0686 67.8957 92.5372 67.9742 92.0229 68.05C91.5143 68.1257 91.0314 68.1971 90.6186 68.2685Z" fill="black"/>
</g>
<g id="Group_8">
<g id="Group_9">
<path id="Vector_16" d="M49.2486 53.9756L47.0943 58.1513L41.7043 58.4627L33.2214 58.9527L38.0886 54.6213L49.2486 53.9756Z" fill="#FF7E88"/>
<path id="Vector_17" d="M33.2214 59.2385C33.1071 59.2385 33.0014 59.1699 32.9571 59.0614C32.91 58.9485 32.94 58.8199 33.0314 58.7385L37.8986 54.4085C37.9471 54.3657 38.0071 54.3399 38.0714 54.3371L49.2314 53.6914C49.3343 53.6857 49.4314 53.7342 49.4871 53.8214C49.5429 53.9071 49.5486 54.0171 49.5014 54.1085L47.3486 58.2842C47.3029 58.3742 47.2114 58.4328 47.1114 58.4385L33.2386 59.2399C33.2386 59.2399 33.2271 59.2399 33.2214 59.2399V59.2385ZM38.2043 54.9014L34.0243 58.6199L46.9157 57.8757L48.7643 54.2899L38.2043 54.9014Z" fill="black"/>
</g>
<g id="Group_10">
<path id="Vector_18" d="M78.2427 58.1343L73.3656 62.4643L59.5027 59.2372L54.5584 48.7858L53.297 46.1229L58.167 41.79L64.3699 54.9043L78.2427 58.1343Z" fill="#FF7E88"/>
<path id="Vector_19" d="M73.3656 62.75C73.3442 62.75 73.3227 62.7472 73.3013 62.7429L59.4385 59.5157C59.3542 59.4957 59.2827 59.4386 59.2456 59.36L53.0413 46.2457C52.987 46.1314 53.0142 45.9943 53.1099 45.91L57.9785 41.5772C58.0456 41.5172 58.137 41.4929 58.2256 41.51C58.3142 41.5286 58.3885 41.5872 58.427 41.6672L64.5713 54.6572L78.3099 57.8557C78.4142 57.88 78.4956 57.96 78.5213 58.0643C78.547 58.1672 78.5142 58.2772 78.4342 58.3486L73.5556 62.6772C73.5027 62.7243 73.4356 62.7486 73.3656 62.7486V62.75ZM59.7013 58.99L73.2856 62.1514L77.6399 58.2872L64.3042 55.1829C64.2199 55.1629 64.1485 55.1057 64.1113 55.0272L58.0713 42.2572L53.647 46.1943L59.7013 58.99Z" fill="black"/>
</g>
<g id="Group_11">
<path id="Vector_20" d="M70.5742 81.0656L65.707 85.3984L64.3285 77.2356L63.337 71.3727L68.2056 67.0527L70.5742 81.0656Z" fill="#FF444F"/>
<path id="Vector_21" d="M65.7071 85.6842C65.6756 85.6842 65.6428 85.6785 65.6128 85.6685C65.5142 85.6342 65.4428 85.5485 65.4256 85.447L63.0556 71.4228C63.0399 71.3256 63.0742 71.227 63.1471 71.1613L68.0156 66.8413C68.0928 66.7728 68.2028 66.7513 68.2999 66.7856C68.3985 66.8199 68.4699 66.9056 68.4871 67.007L70.8556 81.0199C70.8713 81.117 70.8371 81.2156 70.7642 81.2813L65.8971 85.6142C65.8442 85.6613 65.7756 85.687 65.7071 85.687V85.6842ZM63.6456 71.4813L65.9042 84.8413L70.2671 80.957L68.0099 67.6085L63.6442 71.4813H63.6456Z" fill="black"/>
</g>
<g id="Group_12">
<path id="Vector_22" d="M68.2056 67.0528L63.337 71.3728L64.3285 77.2357L65.707 85.3985L53.297 77.7885L40.8899 83.2271L43.2599 69.6171L33.2213 58.9528L41.7042 58.4628L47.0942 58.1514L49.2485 53.9757L53.297 46.1228L54.5585 48.7857L59.5027 59.2371L73.3656 62.4642L68.2042 67.0428L68.2056 67.0528Z" fill="#FF444F"/>
<path id="Vector_23" d="M65.7071 85.6843C65.6557 85.6843 65.6042 85.67 65.5571 85.6414L53.2742 78.11L41.0028 83.4886C40.9057 83.5314 40.7942 83.5171 40.7114 83.4514C40.6285 83.3871 40.5885 83.2814 40.6057 83.1771L42.9514 69.7086L33.0099 59.1471C32.9342 59.0657 32.9114 58.9486 32.9528 58.8457C32.9942 58.7429 33.0914 58.6729 33.2014 58.6657L46.9128 57.8743L53.0414 45.99C53.0914 45.8929 53.1928 45.8343 53.2999 45.8357C53.4085 45.8371 53.5071 45.9014 53.5528 45.9986L59.6985 58.9886L73.4271 62.1843C73.5314 62.2086 73.6128 62.2886 73.6399 62.3929C73.6657 62.4957 73.6328 62.6057 73.5528 62.6771L68.4385 67.2143C68.4257 67.2343 68.4114 67.2514 68.3942 67.2671L63.6442 71.4814L65.9885 85.35C66.0071 85.46 65.9599 85.5714 65.8671 85.6343C65.8185 85.6671 65.7628 85.6829 65.7071 85.6829V85.6843ZM53.2971 77.5029C53.3485 77.5029 53.4014 77.5171 53.4471 77.5443L65.3214 84.8257L63.0557 71.42C63.0399 71.3229 63.0742 71.2243 63.1471 71.1586L67.9657 66.8829C67.9785 66.8629 67.9957 66.8443 68.0142 66.8271L72.7614 62.6143L59.4371 59.5129C59.3528 59.4929 59.2814 59.4357 59.2442 59.3571L53.2871 46.7657L47.3485 58.28C47.3028 58.37 47.2114 58.4286 47.1114 58.4343L33.8485 59.2L43.4685 69.42C43.5299 69.4857 43.5571 69.5757 43.5414 69.6643L41.2614 82.7486L53.1814 77.5243C53.2185 77.5086 53.2571 77.5 53.2957 77.5L53.2971 77.5029Z" fill="black"/>
</g>
</g>
</g>
</g>
</svg>
