<svg width="120" height="152" viewBox="0 0 120 152" fill="none" xmlns="http://www.w3.org/2000/svg">
<g id="illustration / deriv / light / zero-commission">
<g id="regulated - Expanded 2 copy 2 1">
<g id="Group">
<path id="Vector" d="M85.1251 126.862C89.678 124.033 94.2309 121.204 98.7823 118.375C99.2406 117.975 99.8601 117.399 100.539 116.658C101.122 116.022 102.887 114.022 104.373 110.908C105.737 108.048 106.196 105.653 106.45 104.278C106.874 101.979 106.953 99.9956 106.929 98.5275C106.922 85.1559 106.916 71.7844 106.909 58.4129C106.942 57.0989 106.907 55.3692 106.649 53.3607C106.547 52.5588 106.209 50.1473 105.171 46.931C102.806 39.6003 98.8615 34.4562 98.2024 33.6132C96.9564 32.0164 94.7316 29.206 91.0146 26.4254C89.9184 25.605 85.8804 22.6829 79.8127 20.7551C78.3262 20.2827 77.049 19.9744 76.1184 19.7764C70.8583 18.4497 65.5982 17.123 60.3367 15.7963C59.3085 15.5318 57.9111 15.2433 56.2365 15.1047C54.8942 14.9929 52.3087 14.7992 49.1278 15.5573C46.6823 16.14 44.8917 17.0452 43.5368 17.7411C42.3939 18.328 41.4675 18.8966 40.7943 19.3379L31.2656 25.1906C38.6487 28.5469 46.0317 31.9032 53.4134 35.2581C59.4315 38.0105 68.5316 43.1433 76.8949 52.4032C81.6146 57.6279 84.8748 62.813 87.118 67.1C85.4221 75.3868 83.9964 85.3455 83.6032 96.652C83.203 108.168 83.9653 118.37 85.1209 126.863L85.1251 126.862Z" fill="#EBECEE"/>
<path id="Vector_2" d="M85.1245 127.145C85.0835 127.145 85.0425 127.136 85.0043 127.118C84.918 127.077 84.8572 126.995 84.8445 126.9C83.4853 116.903 82.9733 106.723 83.324 96.641C83.6677 86.7559 84.8459 76.8326 86.8232 67.1413C84.0567 61.8699 80.6466 56.9762 76.6878 52.593C70.1732 45.3797 62.3036 39.6345 53.2982 35.5144L31.1505 25.4469C31.0557 25.4031 30.9921 25.3111 30.985 25.2065C30.9779 25.1018 31.0303 25.0028 31.1194 24.9476L40.648 19.0949C41.5292 18.5165 42.4613 17.9733 43.4089 17.4868C44.6536 16.8475 46.5347 15.8829 49.0636 15.2804C52.3534 14.4968 54.9926 14.716 56.2613 14.8207C57.6573 14.9367 59.0519 15.1715 60.4083 15.5208L76.1885 19.5009C77.4275 19.7639 78.6792 20.0963 79.8984 20.4839C85.4187 22.2391 89.3394 24.8175 91.1837 26.1979C95.0068 29.0592 97.3165 32.0167 98.4253 33.4381C99.5017 34.8172 103.188 39.858 105.441 46.8436C106.156 49.0628 106.671 51.3045 106.93 53.3243C107.145 55.0074 107.233 56.7216 107.192 58.4189L107.211 98.5264C107.243 100.464 107.08 102.417 106.728 104.328C106.486 105.638 106.036 108.076 104.629 111.028C103.612 113.161 102.233 115.227 100.748 116.848C100.189 117.458 99.5894 118.043 98.9685 118.588C98.9571 118.598 98.9444 118.608 98.9317 118.615L85.2745 127.101C85.2292 127.129 85.1769 127.143 85.1245 127.143V127.145ZM31.869 25.1513L53.533 34.9996C62.6091 39.1508 70.5409 44.9427 77.1078 52.2126C81.1218 56.6566 84.5743 61.6196 87.372 66.9674C87.4017 67.0254 87.4116 67.0918 87.3989 67.1555C85.4145 76.8468 84.2335 86.7743 83.8898 96.6608C83.5447 106.564 84.0355 116.565 85.3466 126.391L98.6135 118.148C99.2132 117.622 99.7916 117.058 100.33 116.468C101.779 114.888 103.124 112.87 104.117 110.786C105.493 107.902 105.934 105.512 106.17 104.228C106.517 102.354 106.675 100.437 106.646 98.5334L106.626 58.4146C106.667 56.7386 106.581 55.0541 106.368 53.3992C106.114 51.4135 105.608 49.207 104.902 47.0204C102.677 40.1239 99.0406 35.1495 97.9798 33.7889C96.8016 32.2798 94.6079 29.4694 90.8457 26.6534C89.0296 25.2942 85.1684 22.7553 79.7273 21.0256C78.5251 20.6437 77.2903 20.317 76.0598 20.0539L60.2683 16.071C58.9416 15.7301 57.5781 15.4996 56.2147 15.3864C54.9757 15.2832 52.3973 15.0696 49.1951 15.832C46.7327 16.4189 44.9605 17.3284 43.6677 17.9917C42.7371 18.4698 41.8234 19.0016 40.9521 19.5744L31.869 25.1541V25.1513Z" fill="black"/>
</g>
<g id="Group_2">
<path id="Vector_3" d="M76.2191 101.457C70.8897 100.141 65.5603 98.8259 60.2324 97.5091C59.0627 97.2022 58.1561 96.7737 57.5366 96.4314C56.9128 96.0863 55.6045 95.3451 54.4419 93.9152C53.8875 93.2349 53.5989 92.6734 53.0445 91.5786C52.2058 89.9252 51.1605 87.8164 50.8664 84.9735C50.7914 84.2451 50.7843 83.6511 50.7872 83.2918C50.7985 70.2612 50.8098 57.2291 50.8211 44.1984C47.7236 40.934 44.6261 37.6697 41.5286 34.4053C38.6532 40.4051 35.7778 46.4034 32.9024 52.4032C32.2037 59.9419 32.2645 70.3206 35.618 81.9015C36.7367 85.767 38.0733 89.2492 39.4707 92.3339C42.0378 97.9971 44.6049 103.66 47.172 109.323C55.5677 111.543 63.9621 113.76 72.3578 115.979C76.1738 112.323 79.9898 108.667 83.8058 105.011L76.2177 101.457H76.2191Z" fill="#CED0D6"/>
<path id="Vector_4" d="M72.3602 116.264C72.3362 116.264 72.3121 116.261 72.2881 116.254L47.1023 109.598C47.0202 109.576 46.9523 109.518 46.917 109.441L39.2157 92.4511C37.6797 89.0608 36.3785 85.5376 35.3488 81.9804C32.5992 72.4857 31.6827 62.5257 32.6233 52.3775C32.6261 52.3436 32.636 52.311 32.6502 52.2813L41.2765 34.2834C41.3161 34.1999 41.3953 34.1405 41.4872 34.1264C41.5791 34.1123 41.6725 34.1434 41.7361 34.2113L51.0286 44.0044C51.0781 44.0567 51.1064 44.1275 51.1064 44.1996L51.0724 83.293C51.0668 83.8418 51.0922 84.3962 51.1502 84.9464C51.4444 87.7949 52.5165 89.908 53.2987 91.4525C53.8672 92.5727 54.1402 93.0946 54.6635 93.7381C55.8162 95.1539 57.1203 95.8767 57.6762 96.185C58.4993 96.6404 59.3833 96.9955 60.3069 97.2373L76.2908 101.183C76.3092 101.188 76.3261 101.193 76.3431 101.202L83.9312 104.756C84.0161 104.796 84.0755 104.875 84.0896 104.967C84.1052 105.059 84.0741 105.152 84.0062 105.217L72.5582 116.186C72.5045 116.237 72.4352 116.265 72.363 116.265L72.3602 116.264ZM47.3767 109.086L72.2796 115.667L83.3146 105.093L76.1253 101.725L60.1655 97.7847C59.1924 97.5301 58.2645 97.1581 57.4004 96.6786C56.8148 96.3547 55.4443 95.5938 54.2237 94.0932C53.6395 93.3761 53.3383 92.782 52.7937 91.7057C51.9918 90.123 50.8914 87.9548 50.5873 85.0015C50.5279 84.4315 50.501 83.8545 50.5067 83.2873L50.5406 44.3085L41.6088 34.8944L33.182 52.4751C32.2556 62.5356 33.1678 72.4079 35.8919 81.8192C36.9145 85.3509 38.2058 88.8487 39.732 92.2135L47.3781 109.08L47.3767 109.086Z" fill="black"/>
</g>
<g id="Group_3">
<path id="Vector_5" d="M48.2628 104.756C57.9258 107.132 64.9722 108.854 66.7345 109.296C66.9269 109.344 67.5322 109.499 68.3526 109.55C69.0272 109.592 70.1814 109.651 71.5208 109.151C71.9154 109.004 72.7032 108.666 73.5179 107.98C74.7017 106.981 75.2222 105.854 75.4612 105.318C75.9449 104.234 76.0737 103.287 76.1401 102.762C76.2066 102.234 76.2207 101.786 76.2193 101.458C76.2306 87.8757 76.242 74.2934 76.2533 60.7111C76.2561 60.0322 76.208 59.0393 75.9478 57.8753C75.8148 57.2784 75.1656 54.5897 72.8729 51.9844C71.1856 50.0665 69.4445 49.1472 69.0598 48.9492C67.6397 48.2194 66.3413 47.9011 65.446 47.7512L47.9346 43.4982C47.6037 43.4204 47.1539 43.3383 46.6164 43.3086C45.55 43.2506 44.7212 43.4331 44.3506 43.5279C43.8754 43.6509 42.9687 43.8928 42.014 44.5957C41.2941 45.1261 40.8769 45.6763 40.5869 46.0638C40.1909 46.5928 39.6577 47.4414 39.3196 48.5701C39.0622 49.4315 39.0014 50.1754 38.9604 50.686C38.9279 51.0934 38.9194 51.4399 38.9208 51.6945C38.9307 61.7945 38.9406 71.8946 38.9505 81.9947C33.3156 87.5999 27.6807 93.2036 22.0459 98.8088C21.8959 98.5231 21.7474 98.1992 21.6187 97.8357C21.2708 96.8612 21.1831 95.9744 21.1788 95.3068C20.838 90.4244 20.4971 85.5419 20.1562 80.6609C20.1647 69.8395 20.1718 59.0181 20.1803 48.1967C20.1775 47.4895 20.1916 46.5532 20.2595 45.4542C20.3217 44.4642 20.4335 42.7698 20.8182 40.8222C21.0247 39.7798 21.4589 37.6525 22.6017 35.125C24.1519 31.7008 26.1037 29.5312 26.5153 29.0814C29.0187 26.3488 31.5505 25.0038 32.1063 24.7152C34.4118 23.5215 36.3848 23.1 37.5913 22.8511C38.819 22.5979 40.932 22.2655 43.5288 22.3985C45.5952 22.5046 47.2501 22.8681 48.7465 23.1976C49.8723 23.4451 50.803 23.6983 51.4621 23.8892L66.917 27.6628C67.4276 27.8311 68.156 28.0772 69.0272 28.3884C70.2804 28.8367 71.5533 29.2922 72.6749 29.7858C74.5405 30.6089 75.8191 31.4689 77.1076 32.3345C77.9336 32.8889 79.6549 34.094 81.6336 35.9086C82.1456 36.3782 83.5967 37.7332 85.2615 39.709C87.0535 41.8363 88.1991 43.6226 88.5768 44.2223C89.366 45.4783 89.8992 46.4882 90.3136 47.2774C90.8893 48.3735 91.5469 49.6238 92.2244 51.3239C93.0448 53.3804 93.4747 55.0423 93.8821 56.6349C94.1678 57.7537 94.4252 58.7593 94.6402 60.0492C94.8976 61.588 95.1366 63.7619 95.0192 66.4394V105.516C95.0136 106.203 94.9867 107.125 94.899 108.212C94.8212 109.175 94.6784 110.876 94.2201 112.885C93.9415 114.105 93.4267 116.302 92.083 118.894C90.7549 121.46 89.2839 123.126 88.8285 123.627C88.2175 124.299 86.9714 125.583 85.1143 126.862C83.3011 128.11 81.7198 128.795 81.0211 129.078C80.314 129.364 78.2659 130.147 75.4895 130.475C71.7131 130.921 68.5181 130.297 66.4036 129.676C61.7715 128.545 57.138 127.413 52.5059 126.282C46.7352 124.232 40.9646 122.181 35.1939 120.132C39.5516 115.006 43.9079 109.881 48.2656 104.756H48.2628Z" fill="white"/>
<path id="Vector_6" d="M72.9014 130.911C70.7091 130.911 68.5069 130.59 66.326 129.948L52.441 126.556C52.4311 126.553 52.4226 126.55 52.4142 126.547L35.1022 120.398C35.0145 120.367 34.948 120.294 34.924 120.204C34.8999 120.113 34.9211 120.019 34.982 119.948L48.0536 104.572C48.1229 104.49 48.2333 104.455 48.3365 104.48C52.1596 105.419 55.5725 106.258 58.4111 106.954C62.8268 108.037 65.7433 108.753 66.8083 109.02C67.0063 109.07 67.589 109.217 68.374 109.265C68.9822 109.303 70.1151 109.373 71.4262 108.883C72.1094 108.627 72.7713 108.24 73.3399 107.76C74.4982 106.783 74.9947 105.673 75.2068 105.199C75.6835 104.132 75.8051 103.18 75.8631 102.722C75.9169 102.304 75.9423 101.876 75.9409 101.455L75.9749 60.7067C75.9791 59.7718 75.8787 58.8397 75.675 57.9331C75.4628 56.9869 74.7458 54.5329 72.6638 52.1681C71.1349 50.4312 69.5451 49.5119 68.9327 49.1979C67.8252 48.6293 66.6371 48.2347 65.401 48.0268C65.3939 48.0268 65.3882 48.024 65.3812 48.0226L47.8698 43.7695C47.4568 43.6719 47.0296 43.6111 46.6039 43.5871C45.8698 43.5475 45.116 43.6196 44.4229 43.7978C43.9972 43.9067 43.1132 44.1359 42.184 44.8204C41.4839 45.3367 41.0808 45.8741 40.8149 46.2291C40.2632 46.9674 39.8517 47.7807 39.5914 48.6463C39.3425 49.478 39.2845 50.1866 39.2435 50.7042C39.2166 51.0309 39.2039 51.3633 39.2039 51.69L39.2336 81.9917C39.2336 82.0666 39.2039 82.1388 39.1501 82.1925L22.2455 99.0066C22.1818 99.0703 22.0927 99.1 22.0036 99.0858C21.9145 99.0717 21.8382 99.0179 21.7957 98.9387C21.6246 98.6134 21.4747 98.274 21.3516 97.9289C21.0546 97.0972 20.9018 96.2175 20.8962 95.3151L19.875 80.6777C19.875 80.6777 19.875 80.665 19.875 80.6579L19.899 48.1937C19.8948 47.28 19.9217 46.3522 19.9797 45.4342C20.0377 44.5036 20.1466 42.771 20.544 40.764C20.7307 39.8206 21.1677 37.6127 22.3473 35.0046C23.7942 31.8081 25.6004 29.6611 26.3104 28.886C28.6555 26.326 31.0557 24.9385 31.9792 24.459C34.3667 23.2229 36.4289 22.7986 37.5363 22.5694C39.5108 22.1621 41.5319 22.0079 43.5446 22.1112C45.6351 22.2187 47.321 22.5892 48.8089 22.916C49.7268 23.1182 50.6476 23.353 51.5429 23.6132L66.9865 27.384C66.9936 27.3854 67.0006 27.3882 67.0077 27.3896C67.7078 27.6216 68.4207 27.8663 69.1236 28.118C70.3697 28.5636 71.6596 29.0246 72.7897 29.5239C74.6779 30.357 75.9932 31.2424 77.2662 32.0967C78.839 33.1532 80.3722 34.3653 81.8261 35.6977C82.6861 36.4855 84.017 37.7881 85.4781 39.525C87.0452 41.3849 88.1583 43.0227 88.816 44.0694C89.6264 45.3593 90.1681 46.3904 90.5642 47.1428C91.1455 48.2489 91.8032 49.502 92.4863 51.2162C93.3293 53.3321 93.7677 55.0478 94.1553 56.5626C94.4353 57.6601 94.7012 58.6969 94.919 60.0009C95.2684 62.09 95.3971 64.2596 95.3023 66.4491V105.513C95.2952 106.415 95.2542 107.33 95.1821 108.231C95.1128 109.09 94.9685 110.875 94.4975 112.944C94.2458 114.047 93.7225 116.343 92.3364 119.021C91.1144 121.381 89.7467 123.037 89.0395 123.813C87.9334 125.03 86.6675 126.133 85.2772 127.09C83.9717 127.99 82.5376 128.767 81.1288 129.337C79.928 129.823 77.9819 130.462 75.5251 130.752C74.6538 130.856 73.7797 130.906 72.9028 130.906L72.9014 130.911ZM52.5881 126.01L66.4717 129.402C69.4631 130.28 72.4813 130.546 75.4572 130.194C77.8517 129.911 79.747 129.287 80.9153 128.815C82.2858 128.26 83.6832 127.503 84.9547 126.628C86.3097 125.694 87.543 124.621 88.6194 123.436C89.3082 122.679 90.6405 121.065 91.8329 118.764C93.1864 116.15 93.6984 113.901 93.9445 112.821C94.407 110.791 94.5442 109.098 94.6178 108.189C94.6899 107.301 94.7295 106.401 94.7366 105.514V66.4392C94.8313 64.2766 94.704 62.1465 94.3618 60.0957C94.1468 58.8171 93.8979 57.8383 93.6079 56.704C93.226 55.2062 92.7918 53.5103 91.9616 51.427C91.2897 49.741 90.6377 48.5006 90.0635 47.4073C89.6717 46.6633 89.1371 45.6422 88.3379 44.3706C87.6901 43.3396 86.5926 41.7243 85.0467 39.8899C83.604 38.1771 82.2915 36.8928 81.4443 36.1163C80.0115 34.8038 78.5009 33.6101 76.9522 32.5677C75.6425 31.6879 74.4063 30.8563 72.5634 30.043C71.4517 29.5522 70.1717 29.0954 68.9355 28.6527C68.2396 28.4037 67.5353 28.1619 66.8422 27.9327L51.3986 24.162C50.5033 23.9018 49.5953 23.6698 48.6887 23.4718C47.222 23.1493 45.5601 22.7844 43.5163 22.6798C41.5517 22.5793 39.5787 22.7293 37.6509 23.1267C36.5703 23.3502 34.5576 23.7646 32.2395 24.964C31.3428 25.4279 29.0105 26.7772 26.7277 29.2708C26.036 30.026 24.2765 32.1179 22.8636 35.2394C21.7094 37.7881 21.2823 39.9521 21.0999 40.8757C20.7109 42.8459 20.6034 44.5531 20.5454 45.471C20.4888 46.3762 20.462 47.2927 20.4662 48.1937L20.4422 80.6494L21.4633 95.2854C21.4633 95.2854 21.4633 95.2981 21.4633 95.3038C21.4676 96.1453 21.609 96.9657 21.8862 97.7393C21.957 97.9388 22.0376 98.1354 22.1267 98.3291L38.6692 81.8757L38.6395 51.6929C38.6395 51.3506 38.6523 51.0041 38.6806 50.6618C38.7216 50.1498 38.7838 49.3761 39.0511 48.4865C39.3298 47.5558 39.771 46.6831 40.3637 45.8925C40.6324 45.5333 41.0822 44.9321 41.8502 44.3664C42.8671 43.6168 43.8246 43.3707 44.2829 43.2519C45.0311 43.0595 45.8444 42.9803 46.635 43.0242C47.0947 43.0496 47.5544 43.1161 48.0027 43.2208L65.5071 47.4724C66.797 47.6902 68.0374 48.1018 69.1929 48.6958C69.8336 49.0254 71.4969 49.9871 73.0895 51.7961C75.2578 54.2585 76.0074 56.8228 76.228 57.8115C76.4402 58.7591 76.5463 59.735 76.5406 60.7095L76.5067 101.456C76.5081 101.902 76.4812 102.353 76.4246 102.796C76.3624 103.279 76.2351 104.288 75.7231 105.431C75.4954 105.94 74.9622 107.134 73.7034 108.194C73.0867 108.715 72.3668 109.136 71.6228 109.415C70.2 109.947 68.9893 109.872 68.3386 109.832C67.5013 109.78 66.8804 109.624 66.6753 109.573C65.6061 109.305 62.5312 108.551 58.2753 107.506C55.4791 106.82 52.1242 105.996 48.3705 105.073L35.6778 120.003L52.5895 126.011L52.5881 126.01Z" fill="black"/>
</g>
<g id="Group_4">
<path id="Vector_7" d="M31.3289 87.2508C31.2624 87.7515 31.1521 88.5166 30.6373 89.3398C30.2865 89.9013 29.8778 90.2804 29.585 90.5109C25.5568 92.9649 21.5287 95.4174 17.5006 97.8727C17.6222 97.7935 17.7452 97.7044 17.864 97.6068C19.4595 96.2985 19.5076 94.218 19.5217 93.6126C19.5443 92.6424 19.3223 91.9083 19.1681 91.4161C19.0182 90.9352 18.5472 89.5873 17.3252 88.2819C16.7863 87.7076 15.9023 86.784 14.4299 86.3003C13.9222 86.1334 13.1598 85.8831 12.1981 86.0203C11.6196 86.1037 11.1161 86.3074 10.6875 86.562C14.6718 84.0812 18.6533 81.5975 22.6362 79.1167C22.9275 78.9908 23.349 78.8423 23.8752 78.7702C24.9826 78.6188 25.8454 78.9059 26.3376 79.0771C27.7619 79.5693 28.6374 80.4391 29.0659 80.8733C30.1762 82.002 30.7122 83.2198 30.9697 84.002C31.1521 84.5564 31.5298 85.7445 31.3289 87.2508Z" fill="#FF444F"/>
<path id="Vector_8" d="M17.501 98.1557C17.4077 98.1557 17.3158 98.109 17.262 98.0242C17.18 97.8941 17.2167 97.7201 17.3469 97.6366C17.4657 97.5588 17.5802 97.4754 17.6849 97.3891C18.6764 96.5759 19.1997 95.3029 19.2393 93.6071C19.2619 92.6594 19.0342 91.9339 18.8984 91.5011C18.7018 90.8717 18.2096 89.6412 17.1192 88.4757C16.6156 87.9382 15.7713 87.0387 14.3427 86.5691C13.8618 86.4107 13.1349 86.1731 12.2396 86.3004C11.753 86.3711 11.2792 86.5408 10.8337 86.8053C10.7007 86.8845 10.5282 86.8421 10.4475 86.7092C10.3669 86.5762 10.4079 86.4037 10.5395 86.3216C12.7374 84.9525 14.9339 83.5834 17.1319 82.2143C18.9168 81.1012 20.7032 79.988 22.4881 78.8763C22.4994 78.8693 22.5122 78.8622 22.5249 78.8565C22.9464 78.6741 23.3877 78.551 23.8374 78.4902C25.0383 78.3261 25.9788 78.6529 26.4314 78.8099C27.9434 79.3318 28.8712 80.2723 29.2687 80.674C30.3931 81.8168 30.9617 83.0657 31.2403 83.9129C31.4157 84.4447 31.8244 85.688 31.6109 87.2876C31.5458 87.777 31.4369 88.5959 30.8782 89.4898C30.5812 89.9651 30.205 90.3837 29.7609 90.7331C29.7524 90.7401 29.7425 90.7472 29.7326 90.7529L25.7044 93.2068C23.0185 94.8418 20.334 96.4783 17.6481 98.1147C17.6029 98.143 17.552 98.1557 17.501 98.1557ZM12.7586 85.6979C13.5026 85.6979 14.0966 85.8931 14.5181 86.0317C16.0838 86.5465 17.0258 87.5493 17.5307 88.0882C18.3963 89.0132 19.0738 90.1645 19.4373 91.3313C19.583 91.7981 19.8277 92.5788 19.8036 93.6184C19.7768 94.7824 19.5363 95.7711 19.0866 96.573C21.194 95.2888 23.3014 94.0059 25.4088 92.7217L29.4228 90.2776C29.8104 89.9707 30.1385 89.6044 30.3973 89.19C30.8909 88.4007 30.99 87.6582 31.0479 87.2141C31.2445 85.7431 30.8627 84.5848 30.7 84.0911C30.4398 83.3019 29.9108 82.1379 28.8627 81.0729C28.495 80.6995 27.6308 79.8254 26.2433 79.3459C25.8006 79.1917 24.9788 78.906 23.911 79.0517C23.5192 79.1055 23.1331 79.213 22.7653 79.37C20.9861 80.4788 19.2068 81.5877 17.4275 82.6966C15.8193 83.6979 14.2126 84.7007 12.6045 85.7021C12.6554 85.7007 12.7063 85.6993 12.7572 85.6993L12.7586 85.6979Z" fill="black"/>
</g>
<g id="Group_5">
<path id="Vector_9" d="M8.84636 88.441C8.95386 88.2473 10.0684 86.3251 12.1928 86.0196C13.1531 85.881 13.9169 86.1328 14.4247 86.2997C15.897 86.7834 16.7824 87.707 17.3199 88.2812C18.5419 89.5867 19.0129 90.9346 19.1628 91.4169C19.3156 91.9077 19.5376 92.6431 19.5164 93.6134C19.5023 94.2188 19.4542 96.2993 17.8588 97.6076C16.6452 98.6019 15.2139 98.5948 14.7839 98.5864C12.0754 98.5326 10.3753 96.2781 9.87179 95.6105C8.90294 94.3263 8.59036 93.0915 8.49701 92.6714C8.29334 91.7521 7.92561 90.0916 8.84636 88.441Z" fill="#FF7E88"/>
<path id="Vector_10" d="M14.9056 98.8681C14.8646 98.8681 14.8221 98.8681 14.7797 98.8681C12.8915 98.8313 11.1645 97.7918 9.64691 95.7805C8.72333 94.5571 8.35842 93.3464 8.22264 92.7325C8.01472 91.7934 7.62718 90.0466 8.60169 88.3041C8.72898 88.0764 9.91282 86.0638 12.1546 85.7413C13.1814 85.5942 13.9834 85.8573 14.5152 86.0326C16.0852 86.5489 17.0243 87.5517 17.5292 88.0891C18.3948 89.0141 19.0723 90.1669 19.4358 91.3337C19.5815 91.8019 19.8248 92.584 19.8021 93.6208C19.7597 95.4892 19.1671 96.905 18.0412 97.8271C17.4557 98.3066 16.4402 98.8709 14.907 98.8709L14.9056 98.8681ZM9.09531 88.5785C8.22688 90.1343 8.57057 91.6831 8.77566 92.6095C8.90154 93.1781 9.24099 94.3011 10.0995 95.4397C11.5068 97.3052 13.0853 98.2684 14.791 98.3024C16.2209 98.3292 17.153 97.8201 17.6806 97.3873C18.6721 96.574 19.1954 95.3025 19.235 93.6066C19.2562 92.6618 19.0299 91.9348 18.8941 91.5006C18.6975 90.8712 18.2053 89.6407 17.1148 88.4753C16.6453 87.9732 15.7712 87.0397 14.337 86.5687C13.8561 86.4103 13.1291 86.1712 12.2338 86.3C10.2622 86.5828 9.20846 88.3749 9.09389 88.5785H9.09531Z" fill="black"/>
</g>
<g id="Group_6">
<path id="Vector_11" d="M26.9922 89.223C30.9793 86.8129 34.9664 84.4042 38.9522 81.9941C45.1641 83.5471 51.3761 85.1001 57.588 86.6531C53.6391 89.0674 49.6901 91.4804 45.7412 93.8947C39.491 92.3375 33.2409 90.7802 26.9922 89.2216V89.223Z" fill="#FF444F"/>
<path id="Vector_12" d="M45.7417 94.1788C45.7191 94.1788 45.6965 94.1759 45.6738 94.1703L26.9248 89.4972C26.8145 89.4689 26.7311 89.3784 26.7141 89.2652C26.6971 89.1521 26.7495 89.0403 26.8471 88.9809L38.807 81.752C38.8721 81.7124 38.9485 81.7011 39.022 81.7195L57.6578 86.3785C57.7682 86.4068 57.8516 86.4973 57.8686 86.6104C57.8856 86.7236 57.8332 86.8353 57.7371 86.8947L45.8902 94.1363C45.845 94.1632 45.7941 94.1773 45.7431 94.1773L45.7417 94.1788ZM27.7211 89.1125L45.695 93.5918L56.8658 86.7646L38.998 82.298L27.7211 89.1139V89.1125Z" fill="black"/>
</g>
<g id="Group_7">
<path id="Vector_13" d="M45.7379 93.8959C49.6868 91.4816 53.6358 89.0686 57.5847 86.6543C51.3445 98.7755 45.1056 110.895 38.8654 123.017C34.9264 125.401 30.9859 127.786 27.0469 130.17C33.2772 118.079 39.5061 105.987 45.7365 93.8959H45.7379Z" fill="#FF444F"/>
<path id="Vector_14" d="M27.0488 130.454C26.9795 130.454 26.9088 130.428 26.855 130.377C26.7631 130.291 26.739 130.154 26.797 130.041L45.4866 93.7662C45.5106 93.7195 45.546 93.6813 45.5899 93.6544L57.4367 86.4128C57.5442 86.3463 57.6842 86.3605 57.7761 86.4468C57.8695 86.533 57.8935 86.6702 57.8355 86.7834L39.1163 123.146C39.0922 123.192 39.0554 123.23 39.0116 123.259L27.1931 130.413C27.1478 130.44 27.0969 130.454 27.046 130.454H27.0488ZM45.9533 94.0957L27.7588 129.41L38.6523 122.816L56.8723 87.4227L45.9533 94.0971V94.0957Z" fill="black"/>
</g>
<g id="Group_8">
<path id="Vector_15" d="M26.9941 89.2217C33.2442 90.7789 39.4943 92.3361 45.743 93.8948C39.5127 105.986 33.2838 118.078 27.0535 130.169L8.25781 125.55C14.5037 113.44 20.7482 101.332 26.9941 89.2217Z" fill="#FF7E88"/>
<path id="Vector_16" d="M27.055 130.453C27.0324 130.453 27.0097 130.45 26.9871 130.444L8.19143 125.825C8.10799 125.804 8.03727 125.746 8.00191 125.668C7.96655 125.589 7.96796 125.498 8.00756 125.422L26.7438 89.0934C26.8046 88.9774 26.9362 88.9166 27.0635 88.9491L45.8125 93.6222C45.8959 93.6435 45.9666 93.7014 46.002 93.7807C46.0373 93.8599 46.0359 93.9504 45.9963 94.0268L27.3067 130.301C27.2572 130.397 27.1596 130.454 27.055 130.454V130.453ZM8.67374 125.361L26.9051 129.842L45.3287 94.0833L27.1427 89.5517L8.67374 125.362V125.361Z" fill="black"/>
</g>
<g id="Group_9">
<path id="Vector_17" d="M57.5477 122.196C57.4812 122.697 57.3709 123.462 56.856 124.285C56.5053 124.847 56.0965 125.226 55.8037 125.456C51.7756 127.91 47.7474 130.363 43.7193 132.818C43.8409 132.739 43.964 132.65 44.0828 132.552C45.6782 131.244 45.7263 129.163 45.7404 128.558C45.7631 127.588 45.541 126.854 45.3869 126.361C45.2369 125.881 44.7659 124.533 43.5439 123.227C43.005 122.653 42.1211 121.729 40.6487 121.246C40.1409 121.079 39.3786 120.828 38.4168 120.966C37.8383 121.049 37.3348 121.253 36.9062 121.507C40.8906 119.026 44.872 116.543 48.8549 114.062C49.1463 113.936 49.5678 113.788 50.0939 113.715C51.2014 113.564 52.0641 113.851 52.5563 114.022C53.9806 114.515 54.8561 115.384 55.2847 115.819C56.395 116.947 56.931 118.165 57.1884 118.947C57.3709 119.502 57.7485 120.69 57.5477 122.196Z" fill="#FF444F"/>
<path id="Vector_18" d="M43.7198 133.101C43.6264 133.101 43.5345 133.054 43.4808 132.969C43.3987 132.839 43.4355 132.665 43.5656 132.582C43.6844 132.504 43.799 132.421 43.9037 132.334C44.8951 131.521 45.4185 130.248 45.4581 128.552C45.4807 127.605 45.253 126.879 45.1172 126.446C44.9206 125.817 44.4284 124.586 43.3379 123.421C42.8344 122.884 41.99 121.984 40.5615 121.514C40.0806 121.356 39.3536 121.118 38.4583 121.246C37.9718 121.316 37.4979 121.486 37.0524 121.751C36.9195 121.83 36.7469 121.787 36.6663 121.654C36.5857 121.522 36.6267 121.349 36.7582 121.267C38.9562 119.898 41.1527 118.529 43.3506 117.16C45.1356 116.046 46.9219 114.933 48.7069 113.822C48.7182 113.815 48.7309 113.808 48.7437 113.802C49.1651 113.619 49.6064 113.496 50.0562 113.436C51.257 113.271 52.1976 113.598 52.6502 113.755C54.1621 114.277 55.09 115.218 55.4874 115.619C56.6118 116.762 57.1804 118.011 57.459 118.858C57.6344 119.39 58.0432 120.633 57.8296 122.233C57.7646 122.722 57.6556 123.541 57.097 124.435C56.7999 124.91 56.4237 125.329 55.9796 125.678C55.9711 125.685 55.9612 125.693 55.9513 125.698L51.9232 128.152C49.2373 129.787 46.5528 131.424 43.8669 133.06C43.8216 133.088 43.7707 133.101 43.7198 133.101ZM38.9774 120.643C39.7213 120.643 40.3154 120.838 40.7369 120.977C42.3026 121.492 43.2446 122.495 43.7495 123.033C44.6151 123.958 45.2926 125.11 45.6561 126.277C45.8017 126.743 46.0464 127.524 46.0224 128.564C45.9955 129.728 45.7551 130.716 45.3053 131.518C47.4127 130.234 49.5201 128.951 51.6276 127.667L55.6416 125.223C56.0291 124.916 56.3572 124.55 56.6161 124.135C57.1097 123.346 57.2087 122.604 57.2667 122.159C57.4633 120.688 57.0814 119.53 56.9188 119.036C56.6585 118.247 56.1295 117.083 55.0815 116.018C54.7137 115.645 53.8496 114.771 52.462 114.291C52.0193 114.137 51.1976 113.851 50.1297 113.997C49.738 114.051 49.3518 114.158 48.9841 114.315C47.2048 115.424 45.4255 116.533 43.6462 117.642C42.0381 118.643 40.4314 119.646 38.8232 120.647C38.8741 120.646 38.925 120.645 38.976 120.645L38.9774 120.643Z" fill="black"/>
</g>
<g id="Group_10">
<path id="Vector_19" d="M35.0651 123.386C35.1726 123.193 36.2871 121.27 38.4115 120.965C39.3719 120.826 40.1357 121.078 40.6434 121.245C42.1158 121.729 43.0012 122.652 43.5386 123.227C44.7607 124.532 45.2317 125.88 45.3816 126.362C45.5343 126.853 45.7564 127.588 45.7352 128.559C45.721 129.164 45.6729 131.245 44.0775 132.553C42.864 133.547 41.4326 133.54 41.0027 133.532C38.2941 133.478 36.5941 131.223 36.0905 130.556C35.1217 129.272 34.8091 128.037 34.7158 127.617C34.5121 126.697 34.1444 125.037 35.0651 123.386Z" fill="#FF7E88"/>
<path id="Vector_20" d="M41.1243 133.814C41.0833 133.814 41.0409 133.814 40.9984 133.814C39.1102 133.778 37.3833 132.738 35.8657 130.727C34.9421 129.503 34.5772 128.293 34.4414 127.679C34.2335 126.74 33.8459 124.993 34.8204 123.25C34.9477 123.023 36.1316 121.01 38.3734 120.688C39.4002 120.54 40.2021 120.804 40.734 120.979C42.3039 121.495 43.2431 122.498 43.748 123.035C44.6136 123.96 45.2911 125.113 45.6546 126.28C45.8002 126.748 46.0435 127.53 46.0209 128.567C45.9785 130.435 45.3858 131.851 44.26 132.773C43.6744 133.253 42.6589 133.817 41.1257 133.817L41.1243 133.814ZM35.3141 123.525C34.4456 125.081 34.7893 126.629 34.9944 127.556C35.1203 128.124 35.4597 129.247 36.3183 130.386C37.7256 132.252 39.304 133.215 41.0098 133.249C42.4397 133.276 43.3718 132.766 43.8993 132.334C44.8908 131.52 45.4141 130.249 45.4537 128.553C45.4749 127.608 45.2486 126.881 45.1129 126.447C44.9163 125.818 44.4241 124.587 43.3336 123.422C42.864 122.919 41.9899 121.986 40.5557 121.515C40.0749 121.357 39.3479 121.118 38.4526 121.246C36.4809 121.529 35.4272 123.321 35.3126 123.525H35.3141Z" fill="black"/>
</g>
</g>
</g>
</svg>
