<svg width="128" height="128" viewBox="0 0 128 128" fill="none" xmlns="http://www.w3.org/2000/svg">
<g id="illustration / deriv / light / declined-poa">
<path id="Vector" d="M97.8198 124H12.1931C7.12174 123.986 3.01411 119.891 3 114.836V13.1638C3.01411 8.10862 7.12174 4.01406 12.1931 4H84.9417L107 26.0009V114.836C106.979 119.884 102.883 123.972 97.8198 124Z" fill="#E2F1F1"/>
<path id="Vector_2" d="M90.04 42H18.96C17.3252 42 16 43.3252 16 44.96V46.04C16 47.6748 17.3252 49 18.96 49H90.04C91.6748 49 93 47.6748 93 46.04V44.96C93 43.3252 91.6748 42 90.04 42Z" fill="white"/>
<path id="Vector_3" d="M90.04 57H18.96C17.3252 57 16 58.3252 16 59.96V61.04C16 62.6748 17.3252 64 18.96 64H90.04C91.6748 64 93 62.6748 93 61.04V59.96C93 58.3252 91.6748 57 90.04 57Z" fill="white"/>
<path id="Vector_4" d="M55.04 73H18.96C17.3252 73 16 74.3252 16 75.96V77.04C16 78.6748 17.3252 80 18.96 80H55.04C56.6748 80 58 78.6748 58 77.04V75.96C58 74.3252 56.6748 73 55.04 73Z" fill="white"/>
<path id="Vector_5" d="M105.55 119C117.396 119 127 109.396 127 97.5496C127 85.7031 117.396 76.0996 105.55 76.0996C93.7031 76.0996 84.0996 85.7031 84.0996 97.5496C84.0996 109.396 93.7031 119 105.55 119Z" fill="#EC3F3F"/>
<path id="Vector_6" fill-rule="evenodd" clip-rule="evenodd" d="M108.338 103H103.662L103 83.9995H109L108.338 103ZM105.991 106C106.895 106 107.622 106.281 108.173 106.845C108.724 107.409 109 108.131 109 109.009C109 109.875 108.724 110.59 108.173 111.154C107.622 111.718 106.895 112 105.991 112C105.099 112 104.378 111.718 103.827 111.154C103.276 110.59 103 109.875 103 109.009C103 108.144 103.276 107.426 103.827 106.855C104.378 106.285 105.099 106 105.991 106Z" fill="white"/>
<path id="Vector_7" d="M107 26H94.187C89.124 25.986 85.0211 21.8864 85 16.8205V4L107 26Z" fill="#BCCDCF"/>
</g>
</svg>
