<svg width="115" height="87" viewBox="0 0 115 87" fill="none" xmlns="http://www.w3.org/2000/svg">
<g id="illustration / deriv / light / account-trash-can" clip-path="url(#clip0_1839_135)">
<g id="Group">
<g id="Vector">
<path d="M102.97 12.0301H6.83008C3.51637 12.0301 0.830078 14.7164 0.830078 18.0301V66.3301C0.830078 69.6438 3.51637 72.3301 6.83008 72.3301H102.97C106.284 72.3301 108.97 69.6438 108.97 66.3301V18.0301C108.97 14.7164 106.284 12.0301 102.97 12.0301Z" fill="#E0F4F3"/>
<path d="M53.8401 0.110107H53.8301C47.2468 0.110107 41.9101 5.44687 41.9101 12.0301V12.0401C41.9101 18.6233 47.2468 23.9601 53.8301 23.9601H53.8401C60.4233 23.9601 65.7601 18.6233 65.7601 12.0401V12.0301C65.7601 5.44687 60.4233 0.110107 53.8401 0.110107Z" fill="#E0F4F3"/>
</g>
<g id="Vector_2">
<path d="M84.7701 26.8899H22.9001C20.0889 26.8899 17.8101 29.1688 17.8101 31.9799V52.3799C17.8101 55.191 20.0889 57.4699 22.9001 57.4699H84.7701C87.5812 57.4699 89.8601 55.191 89.8601 52.3799V31.9799C89.8601 29.1688 87.5812 26.8899 84.7701 26.8899Z" fill="white"/>
<path d="M36.6801 38.7999C36.4523 38.4097 36.0795 38.1255 35.6429 38.0094C35.2064 37.8932 34.7416 37.9545 34.3501 38.1799L32.5301 39.1799V37.0799C32.5481 36.845 32.5173 36.6089 32.4398 36.3865C32.3623 36.164 32.2396 35.96 32.0796 35.7872C31.9195 35.6144 31.7254 35.4765 31.5095 35.3822C31.2937 35.2879 31.0606 35.2392 30.8251 35.2392C30.5895 35.2392 30.3565 35.2879 30.1406 35.3822C29.9247 35.4765 29.7306 35.6144 29.5706 35.7872C29.4105 35.96 29.2878 36.164 29.2103 36.3865C29.1328 36.6089 29.1021 36.845 29.1201 37.0799V39.1799L27.3001 38.1799C26.9089 37.9545 26.4441 37.8937 26.0081 38.0109C25.5721 38.1281 25.2005 38.4137 24.9751 38.8049C24.7496 39.1961 24.6888 39.6608 24.806 40.0968C24.9232 40.5329 25.2089 40.9045 25.6001 41.1299L27.4201 42.1799L25.6001 43.2399C25.4077 43.3522 25.2395 43.5015 25.1051 43.6791C24.9706 43.8568 24.8727 44.0593 24.817 44.275C24.7612 44.4906 24.7487 44.7152 24.7801 44.9357C24.8115 45.1563 24.8863 45.3684 25.0001 45.5599C25.3041 46.0899 25.8681 46.4189 26.4801 46.4199C26.7781 46.4169 27.0701 46.3379 27.3301 46.1899L29.1501 45.1899V47.2899C29.183 47.7195 29.3769 48.1209 29.693 48.4137C30.0091 48.7065 30.4242 48.8692 30.8551 48.8692C31.286 48.8692 31.701 48.7065 32.0171 48.4137C32.3332 48.1209 32.5271 47.7195 32.5601 47.2899V45.1899L34.3801 46.1899C34.6401 46.3369 34.9321 46.4159 35.2301 46.4199C35.6035 46.4169 35.9657 46.2918 36.2613 46.0637C36.5569 45.8355 36.7697 45.5168 36.8672 45.1564C36.9647 44.7959 36.9415 44.4134 36.8012 44.0673C36.6609 43.7213 36.4111 43.4307 36.0901 43.2399L34.2701 42.1799L36.0901 41.1299C36.4751 40.8972 36.753 40.5222 36.8635 40.086C36.9739 39.6499 36.908 39.1878 36.6801 38.7999ZM52.5301 38.7999C52.3041 38.4106 51.933 38.1268 51.4982 38.0106C51.0633 37.8944 50.6001 37.9553 50.2101 38.1799L48.3801 39.1799V37.0799C48.3801 36.629 48.201 36.1966 47.8821 35.8778C47.5633 35.559 47.1309 35.3799 46.6801 35.3799C46.2292 35.3799 45.7968 35.559 45.478 35.8778C45.1592 36.1966 44.9801 36.629 44.9801 37.0799V39.1799L43.1501 38.1799C42.7589 37.9545 42.2941 37.8937 41.8581 38.0109C41.4221 38.1281 41.0505 38.4137 40.8251 38.8049C40.5996 39.1961 40.5388 39.6608 40.656 40.0968C40.7732 40.5329 41.0589 40.9045 41.4501 41.1299L43.2701 42.1799L41.4501 43.2399C41.2556 43.3501 41.0849 43.4977 40.9478 43.6743C40.8107 43.8509 40.71 44.0528 40.6514 44.2686C40.5928 44.4843 40.5776 44.7095 40.6065 44.9311C40.6355 45.1527 40.708 45.3665 40.8201 45.5599C41.1241 46.0899 41.6881 46.4189 42.3001 46.4199C42.5981 46.4169 42.8901 46.3379 43.1501 46.1899L44.9801 45.1899V47.2899C45.013 47.7195 45.2069 48.1209 45.523 48.4137C45.8391 48.7065 46.2542 48.8692 46.6851 48.8692C47.116 48.8692 47.531 48.7065 47.8471 48.4137C48.1632 48.1209 48.3571 47.7195 48.3901 47.2899V45.1899L50.2201 46.1899C50.4791 46.3399 50.7721 46.4179 51.0701 46.4199C51.4422 46.414 51.8024 46.287 52.0958 46.058C52.3893 45.829 52.6 45.5105 52.6961 45.1509C52.7923 44.7913 52.7685 44.4102 52.6284 44.0653C52.4884 43.7205 52.2397 43.4307 51.9201 43.2399L50.1001 42.1799L51.9201 41.1299C52.3085 40.9005 52.5906 40.5269 52.7049 40.0905C52.8191 39.6541 52.7563 39.1902 52.5301 38.7999ZM68.3801 38.8099C68.2699 38.6154 68.1222 38.4447 67.9456 38.3076C67.7691 38.1705 67.5671 38.0698 67.3514 38.0112C67.1357 37.9526 66.9105 37.9374 66.6889 37.9663C66.4672 37.9953 66.2535 38.0679 66.0601 38.1799L64.2301 39.1799V37.0799C64.2301 36.629 64.051 36.1966 63.7321 35.8778C63.4133 35.559 62.9809 35.3799 62.5301 35.3799C62.0792 35.3799 61.6468 35.559 61.328 35.8778C61.0092 36.1966 60.8301 36.629 60.8301 37.0799V39.1799L59.0001 38.1799C58.6089 37.9545 58.1441 37.8937 57.7081 38.0109C57.2721 38.1281 56.9005 38.4137 56.6751 38.8049C56.4496 39.1961 56.3888 39.6608 56.506 40.0968C56.6232 40.5329 56.9089 40.9045 57.3001 41.1299L59.1201 42.1799L57.3001 43.2399C56.9797 43.4302 56.7303 43.7199 56.5897 44.065C56.4492 44.4101 56.4252 44.7917 56.5214 45.1516C56.6176 45.5116 56.8288 45.8303 57.1228 46.0592C57.4168 46.2882 57.7775 46.4148 58.1501 46.4199C58.4481 46.4179 58.7411 46.3399 59.0001 46.1899L60.8301 45.1899V47.2899C60.8301 47.7408 61.0092 48.1732 61.328 48.492C61.6468 48.8108 62.0792 48.9899 62.5301 48.9899C62.9809 48.9899 63.4133 48.8108 63.7321 48.492C64.051 48.1732 64.2301 47.7408 64.2301 47.2899V45.1899L66.0601 46.1899C66.3191 46.3399 66.6121 46.4179 66.9101 46.4199C67.2822 46.414 67.6424 46.287 67.9358 46.058C68.2293 45.829 68.44 45.5105 68.5361 45.1509C68.6323 44.7913 68.6085 44.4102 68.4684 44.0653C68.3284 43.7205 68.0797 43.4307 67.7601 43.2399L65.9401 42.1799L67.7601 41.1299C67.9538 41.0189 68.1236 40.8707 68.2598 40.6938C68.396 40.5169 68.4958 40.3147 68.5534 40.0991C68.611 39.8834 68.6254 39.6584 68.5956 39.4371C68.5659 39.2159 68.4926 39.0027 68.3801 38.8099ZM84.2401 38.8099C84.014 38.418 83.6419 38.1317 83.2052 38.0136C82.7685 37.8956 82.3028 37.9553 81.9101 38.1799L80.0901 39.1799V37.0799C80.0571 36.6503 79.8632 36.2489 79.5471 35.9561C79.231 35.6632 78.816 35.5006 78.3851 35.5006C77.9542 35.5006 77.5391 35.6632 77.223 35.9561C76.9069 36.2489 76.713 36.6503 76.6801 37.0799V39.1799L74.8501 38.1799C74.4589 37.9545 73.9941 37.8937 73.5581 38.0109C73.1221 38.1281 72.7505 38.4137 72.5251 38.8049C72.2996 39.1961 72.2388 39.6608 72.356 40.0968C72.4733 40.5329 72.7589 40.9045 73.1501 41.1299L75.0001 42.1899L73.1801 43.1899C72.9163 43.3387 72.6964 43.5544 72.5426 43.8153C72.3888 44.0762 72.3065 44.3731 72.304 44.6759C72.3016 44.9788 72.3791 45.277 72.5287 45.5403C72.6783 45.8036 72.8947 46.0229 73.1561 46.1759C73.6861 46.4879 74.3441 46.4939 74.8801 46.1899L76.7101 45.1899V47.2899C76.7101 47.7408 76.8892 48.1732 77.208 48.492C77.5268 48.8108 77.9592 48.9899 78.4101 48.9899C78.8609 48.9899 79.2933 48.8108 79.6121 48.492C79.931 48.1732 80.1101 47.7408 80.1101 47.2899V45.1899L81.9401 46.1899C82.2001 46.3379 82.4921 46.4169 82.7901 46.4199C83.1668 46.4229 83.5339 46.3007 83.8336 46.0725C84.1334 45.8442 84.3488 45.5229 84.4461 45.1589C84.5434 44.795 84.517 44.409 84.3711 44.0616C84.2252 43.7143 83.9681 43.4252 83.6401 43.2399L81.8201 42.2399L83.6401 41.1799C83.8391 41.0676 84.0133 40.916 84.1521 40.7344C84.2909 40.5528 84.3914 40.3449 84.4475 40.1234C84.5036 39.9018 84.5141 39.6711 84.4785 39.4454C84.4428 39.2196 84.3617 39.0034 84.2401 38.8099Z" fill="#85ACB0"/>
</g>
<g id="Vector_3">
<path d="M91.99 86.8501C104.698 86.8501 115 76.5526 115 63.8501C115 51.1475 104.698 40.8501 91.99 40.8501C79.2819 40.8501 68.98 51.1475 68.98 63.8501C68.98 76.5526 79.2819 86.8501 91.99 86.8501Z" fill="#FF444F"/>
<path d="M84.26 71.7201C84.26 72.6572 84.6316 73.5561 85.2933 74.2197C85.955 74.8833 86.8528 75.2575 87.79 75.2601H95.93C96.8671 75.2575 97.765 74.8833 98.4267 74.2197C99.0884 73.5561 99.46 72.6572 99.46 71.7201V58.5101C99.46 58.2449 99.3546 57.9905 99.1671 57.803C98.9795 57.6155 98.7252 57.5101 98.46 57.5101H85.25C84.9848 57.5101 84.7304 57.6155 84.5429 57.803C84.3553 57.9905 84.25 58.2449 84.25 58.5101L84.26 71.7201ZM99.73 53.7201H96.73C96.5977 53.7194 96.4669 53.6925 96.345 53.641C96.2232 53.5895 96.1127 53.5145 96.02 53.4201L95.34 52.7401C95.2466 52.6474 95.1358 52.574 95.0139 52.5243C94.8921 52.4745 94.7616 52.4493 94.63 52.4501H89.1C88.8376 52.4511 88.5862 52.5553 88.4 52.7401L87.72 53.4201C87.533 53.6101 87.277 53.7191 87.01 53.7201H84C83.7348 53.7201 83.4804 53.8255 83.2929 54.013C83.1053 54.2005 83 54.4549 83 54.7201V55.2601C83 55.5253 83.1053 55.7797 83.2929 55.9672C83.4804 56.1547 83.7348 56.2601 84 56.2601H99.74C100.005 56.2601 100.26 56.1547 100.447 55.9672C100.635 55.7797 100.74 55.5253 100.74 55.2601V54.7201C100.74 54.5879 100.714 54.4571 100.663 54.3351C100.612 54.2131 100.537 54.1024 100.444 54.0094C100.35 53.9164 100.238 53.843 100.116 53.7933C99.9932 53.7437 99.8621 53.7188 99.73 53.7201Z" fill="white"/>
</g>
</g>
</g>
<defs>
<clipPath id="clip0_1839_135">
<rect width="115" height="87" fill="white"/>
</clipPath>
</defs>
</svg>
