<svg width="128" height="128" viewBox="0 0 128 128" fill="none" xmlns="http://www.w3.org/2000/svg">
<g id="illustration / deriv / light / ad-error">
<g id="vector">
<g id="cursor">
<g id="Group">
<g id="Group_2">
<g id="Group_3">
<path id="Vector" d="M78.7059 20.6835V103.477C78.7059 104.856 78.2587 106.117 77.5053 107.14C76.5822 108.394 75.1983 109.282 73.6227 109.566H73.621C73.0426 109.67 72.4389 109.694 71.8218 109.623L22.3935 105.606C18.9447 105.213 16.3384 102.293 16.3384 98.821V13.7606C16.3384 10.7826 18.6084 8.38643 21.4418 8.09216H21.4536C21.847 8.05181 22.2523 8.05181 22.6643 8.09721L29.5972 8.86735L34.7527 9.44075L70.8331 11.8807C75.316 12.3784 78.7076 16.1686 78.7076 20.6801L78.7059 20.6835Z" fill="white"/>
<path id="Vector_2" d="M72.5293 110C72.2805 110 72.0316 109.986 71.781 109.958L22.3528 105.941C18.7308 105.529 16 102.468 16 98.8211V13.7607C16 10.6616 18.3188 8.08214 21.396 7.75929C21.4044 7.75929 21.4128 7.75761 21.4179 7.75593C21.845 7.71389 22.2754 7.71725 22.6975 7.76433L70.8663 11.5478C75.5258 12.0657 79.0402 15.9921 79.0402 20.6819V103.476C79.0402 104.878 78.603 106.213 77.774 107.336C76.7785 108.69 75.324 109.598 73.6795 109.894C73.6744 109.894 73.6694 109.894 73.6643 109.896C73.291 109.963 72.9093 109.997 72.5276 109.997L72.5293 110ZM21.4935 8.42518C21.4935 8.42518 21.4784 8.42686 21.475 8.42854C18.7375 8.71272 16.6726 11.0046 16.6726 13.7624V98.8227C16.6726 102.127 19.1478 104.9 22.4284 105.273L71.8567 109.29C72.4284 109.356 73.0018 109.337 73.5584 109.236C73.5635 109.236 73.5685 109.235 73.5735 109.235C75.0432 108.967 76.343 108.154 77.2325 106.941C77.9758 105.932 78.3676 104.735 78.3676 103.479V20.6852C78.3676 16.3385 75.1105 12.6996 70.7923 12.2204L22.6235 8.43694C22.2502 8.39491 21.8702 8.39323 21.4918 8.42854L21.4935 8.42518Z" fill="black"/>
</g>
<g id="Group_4">
<path id="Vector_3" d="M88.6518 18.9517V101.745C88.6518 105.085 86.027 107.748 82.8119 107.922V107.933L73.6191 109.565C75.1963 109.28 76.5802 108.393 77.5017 107.138C78.255 106.116 78.7023 104.855 78.7023 103.476V20.682C78.7023 16.1688 75.3107 12.3803 70.8277 11.8826L34.7474 9.44265L29.5918 8.86925L22.6589 8.09911C22.247 8.05371 21.8417 8.0537 21.4482 8.0907L33.2525 6.43607H33.2542C33.8007 6.33181 34.3724 6.30491 34.9609 6.36881L80.7756 10.1506C85.2602 10.65 88.6502 14.4402 88.6502 18.95L88.6518 18.9517Z" fill="#EBECEE"/>
<path id="Vector_4" d="M73.6219 109.903C73.4588 109.903 73.3176 109.785 73.2907 109.62C73.2621 109.438 73.3831 109.269 73.5631 109.235C75.0378 108.969 76.3426 108.154 77.2355 106.94C77.9787 105.931 78.3705 104.733 78.3705 103.477V20.6837C78.3705 16.3369 75.1134 12.6981 70.7953 12.2189L22.6265 8.43541C22.2515 8.39337 21.8664 8.39169 21.4847 8.42868C21.3048 8.4455 21.14 8.31602 21.1182 8.13273C21.0963 7.95112 21.2241 7.78633 21.4057 7.75943L33.2083 6.1048C33.7968 5.99382 34.4005 5.97028 35.0008 6.03754L80.8155 9.81931C85.475 10.3389 88.9893 14.2653 88.9893 18.9534V101.747C88.9893 105.182 86.3308 108.024 82.9207 108.255C82.9022 108.261 82.8837 108.266 82.8636 108.268L73.669 109.899C73.6539 109.901 73.6371 109.903 73.6219 109.903ZM24.6544 7.98139L70.8676 11.5479C75.5271 12.0658 79.0415 15.9922 79.0415 20.682V103.476C79.0415 104.878 78.6043 106.213 77.7753 107.336C77.3347 107.937 76.8034 108.448 76.2047 108.858L82.6887 107.609C82.7223 107.594 82.7576 107.585 82.7946 107.584C85.8903 107.417 88.315 104.851 88.315 101.742V18.9484C88.315 14.6033 85.0579 10.9644 80.7381 10.4835L34.9234 6.70175C34.3853 6.64289 33.8456 6.66307 33.3176 6.76396C33.3075 6.76565 33.2974 6.76733 33.2873 6.76901L24.651 7.97971L24.6544 7.98139Z" fill="black"/>
</g>
</g>
</g>
<g id="Group 20">
<path id="Vector 376" d="M24.2571 64.895L69.4545 68.5182" stroke="black" stroke-width="0.706241" stroke-linecap="round" stroke-linejoin="round"/>
<path id="Vector 377" d="M24.3835 74.6636L69.581 78.2868" stroke="black" stroke-width="0.706241" stroke-linecap="round" stroke-linejoin="round"/>
<path id="Vector 378" d="M24.51 84.4316L69.7074 88.0548" stroke="black" stroke-width="0.706241" stroke-linecap="round" stroke-linejoin="round"/>
<path id="Vector 379" d="M24.6365 94.2002L69.8339 97.8234" stroke="black" stroke-width="0.706241" stroke-linecap="round" stroke-linejoin="round"/>
</g>
<path id="Vector 381 (Stroke)" fill-rule="evenodd" clip-rule="evenodd" d="M36.1679 21.2597C36.3399 21.2624 36.4908 21.3749 36.5428 21.5389L43.986 45.0512C44.0526 45.2618 43.9359 45.4866 43.7253 45.5532C43.5147 45.6199 43.2899 45.5032 43.2233 45.2926L40.7278 37.4098L31.2874 36.6905L28.7794 43.751C28.7055 43.9592 28.4768 44.068 28.2686 43.994C28.0604 43.9201 27.9516 43.6914 28.0256 43.4832L30.6356 36.1354L35.7842 21.5266C35.8413 21.3644 35.9959 21.2569 36.1679 21.2597ZM31.5635 35.9092L40.4676 36.5877L36.1411 22.9207L31.5635 35.9092ZM48.2847 21.8352C48.3645 21.7583 48.4728 21.7181 48.5835 21.724L56.5446 22.1513C61.4778 22.416 65.3642 26.4542 65.4398 31.3939L65.5414 38.0321C65.6178 43.0219 61.3528 46.9775 56.3829 46.5263L48.8829 45.8454C48.6792 45.8269 48.5222 45.6576 48.5191 45.4531L48.1621 22.1295C48.1604 22.0187 48.2048 21.9121 48.2847 21.8352ZM48.9685 22.5458L49.3135 45.0812L56.4552 45.7295C60.9518 46.1378 64.8106 42.5589 64.7415 38.0444L64.6399 31.4061C64.5707 26.8869 61.0151 23.1923 56.5018 22.9501L48.9685 22.5458Z" fill="black"/>
</g>
<g id="error">
<path id="Vector_5" d="M121.74 111.352C121.577 111.934 121.288 112.92 120.432 113.862C119.819 114.533 119.161 114.916 118.726 115.125C115.098 116.805 113.508 117.509 109.881 119.188C110.209 119.027 110.55 118.818 110.891 118.547C111.085 118.393 112.002 117.64 112.595 116.295C113.02 115.333 113.084 114.51 113.128 113.907C113.204 112.824 113.049 111.978 112.96 111.579C112.782 110.777 112.512 110.137 112.282 109.684C106.382 97.5302 100.537 85.4928 94.6397 73.3513C94.4541 72.9487 94.1722 72.4075 93.7586 71.8138C93.3059 71.1669 92.6041 70.1839 91.3463 69.3952C90.8285 69.0702 89.631 68.3394 87.9384 68.2995C87.5084 68.2885 86.65 68.2768 85.6624 68.6629C89.4806 66.8364 91.2617 65.9819 95.0815 64.1547C95.8287 63.9996 97.3364 63.8038 98.9906 64.4437C100.258 64.9332 101.058 65.7 101.532 66.1621C102.439 67.0479 102.976 67.958 103.281 68.5822C109.216 80.8146 115.15 93.0478 121.083 105.28C121.424 106.049 122.488 108.667 121.738 111.35L121.74 111.352Z" fill="#FF444F"/>
<path id="Vector_6" d="M112.96 111.58C112.783 110.778 112.512 110.138 112.283 109.685C106.383 97.5308 100.538 85.4935 94.6407 73.3519C94.455 72.9493 94.1731 72.4081 93.7595 71.8144C93.3068 71.1675 92.6051 70.1845 91.3472 69.3958C90.8295 69.0708 89.6319 68.34 87.9393 68.3001C87.5094 68.2891 86.6509 68.2774 85.6633 68.6635C85.4244 68.7786 85.1863 68.8914 84.9474 69.0066C83.9018 69.6065 83.3175 70.4148 83.0622 70.8189C76.9663 81.6047 70.8696 92.3921 64.7737 103.18C64.491 103.738 64.0931 104.7 64.014 105.95C63.9169 107.479 64.3484 108.617 64.5912 109.236C64.827 109.838 65.4802 111.302 66.8736 112.523C68.581 114.018 70.5383 114.398 71.439 114.561C75.0082 115.211 88.1273 117.288 106.037 119.827C106.53 119.882 107.263 119.912 108.122 119.751C108.468 119.684 109.007 119.576 109.62 119.312C109.694 119.278 109.77 119.242 109.845 119.208C109.858 119.202 109.869 119.197 109.88 119.19C110.208 119.029 110.549 118.82 110.89 118.549C111.085 118.395 112.001 117.642 112.594 116.297C113.019 115.335 113.083 114.512 113.127 113.909C113.203 112.826 113.048 111.981 112.959 111.581L112.96 111.58Z" fill="#FF7E88"/>
<path id="Vector_7" d="M112.96 111.58C112.783 110.778 112.512 110.138 112.283 109.685C106.383 97.5308 100.538 85.4935 94.6407 73.3519C94.455 72.9493 94.1731 72.4081 93.7595 71.8144C93.3068 71.1675 92.6051 70.1845 91.3472 69.3958C90.8295 69.0708 89.6319 68.34 87.9393 68.3001C87.5094 68.2891 86.6509 68.2774 85.6633 68.6635C85.4244 68.7786 85.1863 68.8914 84.9474 69.0066C83.9018 69.6065 83.3175 70.4148 83.0622 70.8189C76.9663 81.6047 70.8696 92.3921 64.7737 103.18C64.491 103.738 64.0931 104.7 64.014 105.95C63.9169 107.479 64.3484 108.617 64.5912 109.236C64.827 109.838 65.4802 111.302 66.8736 112.523C68.581 114.018 70.5383 114.398 71.439 114.561C75.0082 115.211 88.1273 117.288 106.037 119.827C106.53 119.882 107.263 119.912 108.122 119.751C108.468 119.684 109.007 119.576 109.62 119.312C109.694 119.278 109.77 119.242 109.845 119.208C109.858 119.202 109.869 119.197 109.88 119.19C110.208 119.029 110.549 118.82 110.89 118.549C111.085 118.395 112.001 117.642 112.594 116.297C113.019 115.335 113.083 114.512 113.127 113.909C113.203 112.826 113.048 111.981 112.959 111.581L112.96 111.58Z" stroke="#0E0E0E" stroke-width="0.610691" stroke-linejoin="round"/>
<path id="Vector_8" d="M121.74 111.352C121.577 111.934 121.288 112.92 120.432 113.862C119.819 114.533 119.161 114.916 118.726 115.125C115.098 116.805 113.508 117.509 109.881 119.188C110.209 119.027 110.55 118.818 110.891 118.547C111.085 118.393 112.002 117.64 112.595 116.295C113.02 115.333 113.084 114.51 113.128 113.907C113.204 112.823 113.049 111.978 112.96 111.579C112.782 110.777 112.512 110.137 112.282 109.684C106.382 97.5302 100.537 85.4929 94.6397 73.3513C94.4541 72.9487 94.1722 72.4075 93.7586 71.8138C93.3059 71.1669 92.6041 70.1839 91.3463 69.3952C90.8285 69.0702 89.631 68.3394 87.9384 68.2995C87.5084 68.2885 86.65 68.2768 85.6624 68.6629C89.4806 66.8364 91.2617 65.9819 95.0815 64.1547C95.8287 63.9996 97.3364 63.8038 98.9906 64.4437C100.258 64.9332 101.058 65.7 101.532 66.1621C102.439 67.0479 102.976 67.958 103.281 68.5822C109.216 80.8146 115.15 93.0478 121.083 105.28C121.424 106.049 122.488 108.667 121.738 111.35L121.74 111.352Z" stroke="#0E0E0E" stroke-width="0.610691" stroke-linejoin="round"/>
<g id="Vector_9">
<path d="M84.5721 82.8262C87.0359 83.1998 89.5015 83.5726 91.9663 83.9463C91.9515 88.4327 91.9376 92.9165 91.9229 97.402C89.4643 97.057 87.0056 96.711 84.547 96.366C84.5556 91.8536 84.5634 87.3386 84.5721 82.8262Z" fill="#FF444F"/>
<path d="M91.9542 102.76C91.9594 105.312 91.9663 107.864 91.9724 110.415C89.4799 110.045 86.9875 109.672 84.4941 109.302C84.5349 106.746 84.5782 104.188 84.6198 101.632C87.0664 102.01 89.5103 102.385 91.9542 102.76Z" fill="#FF444F"/>
</g>
<g id="Vector_10">
<path d="M84.5721 82.8262C87.0359 83.1998 89.5015 83.5726 91.9663 83.9463C91.9515 88.4327 91.9376 92.9165 91.9229 97.402C89.4643 97.057 87.0056 96.711 84.547 96.366C84.5556 91.8536 84.5634 87.3386 84.5721 82.8262Z" stroke="#0E0E0E" stroke-width="0.610691" stroke-linejoin="round"/>
<path d="M91.9542 102.76C91.9594 105.312 91.9663 107.864 91.9724 110.415C89.4799 110.045 86.9875 109.672 84.4941 109.302C84.5349 106.746 84.5782 104.188 84.6198 101.632C87.0664 102.01 89.5103 102.385 91.9542 102.76Z" stroke="#0E0E0E" stroke-width="0.610691" stroke-linejoin="round"/>
</g>
</g>
</g>
</g>
</svg>
