<svg width="128" height="128" viewBox="0 0 128 128" fill="none" xmlns="http://www.w3.org/2000/svg">
<g id="illustration / deriv / light / ic-cashier-locked" clip-path="url(#clip0_520_164)">
<g id="Group">
<path id="Vector" d="M109.93 54.93H19V54.84C19.0079 52.4893 19.9487 50.2378 21.6156 48.5803C23.2825 46.9228 25.5393 45.9947 27.89 46H101.06C103.411 46 105.665 46.9332 107.329 48.5944C108.992 50.2557 109.927 52.5093 109.93 54.86V54.93ZM19 114H109.91V114.09C109.91 115.255 109.681 116.408 109.235 117.484C108.789 118.561 108.136 119.538 107.312 120.362C106.488 121.186 105.511 121.839 104.434 122.285C103.358 122.731 102.205 122.96 101.04 122.96H27.89C25.541 122.965 23.2858 122.039 21.6191 120.383C19.9525 118.728 19.0106 116.479 19 114.13V114Z" fill="#C7E5E5"/>
<path id="Vector_2" d="M19.02 54.9301H109.93V114.04H19.02V54.9301Z" fill="#C7E5E5"/>
<path id="Vector_3" d="M72.3502 99.5599L67.9102 81.9199C69.6535 81.1343 71.0747 79.7748 71.937 78.0682C72.7992 76.3615 73.0504 74.4109 72.6486 72.5415C72.2468 70.6721 71.2163 68.9969 69.729 67.7953C68.2416 66.5937 66.3873 65.9382 64.4752 65.9382C62.5632 65.9382 60.7088 66.5937 59.2215 67.7953C57.7342 68.9969 56.7037 70.6721 56.3019 72.5415C55.9001 74.4109 56.1513 76.3615 57.0135 78.0682C57.8758 79.7748 59.297 81.1343 61.0402 81.9199L56.6002 99.5599C56.4966 99.9677 56.4875 100.394 56.5738 100.806C56.66 101.218 56.8393 101.604 57.0979 101.936C57.3565 102.268 57.6876 102.537 58.0658 102.721C58.4441 102.905 58.8595 103.001 59.2802 103H69.6702C70.091 103.001 70.5064 102.905 70.8847 102.721C71.2629 102.537 71.594 102.268 71.8526 101.936C72.1112 101.604 72.2905 101.218 72.3767 100.806C72.463 100.394 72.4539 99.9677 72.3502 99.5599Z" fill="#85ACB0"/>
<path id="Vector_4" d="M100.55 46H89.3899V40.13C89.3899 29 80.8399 16.13 65.3899 16.13H64.7499C49.3299 16.13 40.7499 28.96 40.7499 40.13V46H29.6499V40.13C29.6719 20.737 45.3869 5.022 64.7799 5H65.4199C84.8129 5.022 100.528 20.737 100.55 40.13V46Z" fill="#BCCDCE"/>
</g>
</g>
<defs>
<clipPath id="clip0_520_164">
<rect width="128" height="128" fill="white"/>
</clipPath>
</defs>
</svg>
