<svg width="120" height="152" viewBox="0 0 120 152" fill="none" xmlns="http://www.w3.org/2000/svg">
<g id="illustration / deriv / light / trade-in-any-direction">
<g id="Trade in any Direction">
<g id="Layer 1">
<g id="Group">
<path id="Vector" d="M114.396 50.8094L104.358 98.6679C103.562 102.461 101.325 105.362 98.4926 106.798L98.3139 106.889L98.2914 106.899L92.5027 109.795C93.4965 109.287 94.4168 108.601 95.2259 107.759C96.7196 106.207 97.838 104.125 98.3529 101.67L99.3197 97.0616L108.392 53.8118C109.78 47.1885 106.27 40.2544 100.591 38.4034L28.4927 14.89C27.2422 14.4817 25.9872 14.354 24.7757 14.4726H24.7742C23.7189 14.5747 22.6965 14.8645 21.7388 15.3193L27.1101 12.6472L27.1176 12.6427L28.0724 12.1683L28.0844 12.1623C30.06 11.3186 32.2878 11.167 34.4975 11.8876L106.596 35.401C112.275 37.252 115.785 44.1861 114.396 50.8094Z" fill="#EBECEE"/>
<path id="Vector_2" d="M92.5027 110.095C92.3931 110.095 92.288 110.035 92.234 109.93C92.1589 109.783 92.2175 109.603 92.3661 109.528C93.3359 109.032 94.2246 108.367 95.0097 107.552C96.5184 105.985 97.5723 103.93 98.0587 101.61L108.097 53.7517C109.459 47.256 106.05 40.5005 100.498 38.6901L28.3996 15.1752C27.2181 14.7893 26.0082 14.6542 24.8057 14.7713C24.8027 14.7713 24.7997 14.7713 24.7952 14.7713C23.7894 14.8689 22.8046 15.1451 21.8678 15.5895C21.7192 15.66 21.5406 15.5985 21.4685 15.4499C21.3965 15.3013 21.458 15.1226 21.6051 15.0491L26.9674 12.3814C26.9674 12.3814 26.9795 12.3739 26.984 12.3724L27.9387 11.898C27.9387 11.898 27.9612 11.8875 27.9657 11.8845C30.0885 10.9778 32.3793 10.8802 34.5891 11.6008L106.688 35.1142C112.523 37.0162 116.111 44.0839 114.689 50.8694L104.65 98.7279C103.862 102.484 101.668 105.522 98.6276 107.064L98.4175 107.169L92.6363 110.062C92.5928 110.083 92.5477 110.094 92.5027 110.094V110.095ZM25.6464 14.1288C26.6342 14.1288 27.619 14.2879 28.5857 14.6032L100.684 38.1166C106.519 40.0187 110.107 47.0863 108.686 53.8718L98.6471 101.73C98.1367 104.161 97.0288 106.317 95.4436 107.966C95.4301 107.98 95.4165 107.993 95.4045 108.007L98.3589 106.528C101.235 105.069 103.314 102.181 104.065 98.6033L114.104 50.7448C115.465 44.2491 112.056 37.4936 106.504 35.6832L34.4044 12.1727C32.3373 11.4987 30.195 11.5888 28.2104 12.4354L27.2602 12.9068C27.2602 12.9068 27.2482 12.9143 27.2437 12.9158L24.7081 14.1768C24.7201 14.1768 24.7336 14.1738 24.7457 14.1738C24.7487 14.1738 24.7517 14.1738 24.7547 14.1738C25.0519 14.1453 25.3491 14.1303 25.6464 14.1303V14.1288Z" fill="black"/>
</g>
<g id="Group_2">
<path id="Vector_3" d="M99.3197 97.0618L98.3529 101.671C97.838 104.125 96.7196 106.207 95.2259 107.759C94.4168 108.602 93.4965 109.288 92.5027 109.795C90.8664 110.63 89.0319 110.975 87.1599 110.724C86.609 110.651 86.055 110.525 85.5026 110.345L83.0796 109.555L77.4696 107.725L73.3188 106.371L64.3971 103.461L53.2371 99.8225L43.4943 96.6445L13.404 86.8311C7.72648 84.9801 4.21665 78.046 5.60527 71.4227L6.57205 66.814L99.3197 97.0618Z" fill="#EBECEE"/>
<path id="Vector_4" d="M88.3518 111.104C87.942 111.104 87.5307 111.077 87.1208 111.021C86.5504 110.945 85.9739 110.813 85.411 110.63L13.3109 87.1162C7.47723 85.2142 3.88934 78.1465 5.31098 71.361L6.27776 66.7523C6.29578 66.6682 6.34682 66.5962 6.42188 66.5542C6.49544 66.5121 6.58401 66.5031 6.66507 66.5286L99.4127 96.7765C99.5583 96.8245 99.6454 96.9731 99.6139 97.1233L98.6471 101.732C98.1367 104.162 97.0288 106.318 95.4435 107.968C94.6134 108.833 93.6691 109.537 92.6408 110.062C91.2912 110.751 89.829 111.104 88.3533 111.104H88.3518ZM6.79718 67.2027L5.89946 71.4841C4.53786 77.9798 7.9456 84.7353 13.4971 86.5457L85.5956 110.059C86.124 110.232 86.6645 110.355 87.1989 110.427C88.9628 110.663 90.7492 110.352 92.3661 109.528C93.3358 109.032 94.2246 108.367 95.0097 107.552C96.5184 105.985 97.5723 103.93 98.0586 101.61L98.9699 97.2659L6.79718 67.2027Z" fill="black"/>
</g>
<g id="Group_3">
<path id="Vector_5" d="M108.391 53.8117L99.3197 97.0615L6.57202 66.8137L15.6423 23.5639C16.429 19.8124 18.6267 16.9345 21.416 15.4799L21.428 15.4739L21.7387 15.3192C22.6965 14.8644 23.7188 14.5746 24.7742 14.4726H24.7757C25.9871 14.354 27.2422 14.4816 28.4927 14.8899L100.591 38.4033C106.27 40.2543 109.78 47.1884 108.391 53.8117Z" fill="white"/>
<path id="Vector_6" d="M99.3197 97.3617C99.2882 97.3617 99.2566 97.3572 99.2266 97.3467L6.47896 67.0989C6.33334 67.0508 6.24627 66.9022 6.2778 66.7521L15.3481 23.5023C16.1257 19.7943 18.286 16.7739 21.2764 15.2141C21.2764 15.2141 21.2914 15.2066 21.2929 15.2051L21.6036 15.0505C22.6109 14.5716 23.6648 14.2774 24.7442 14.1738C24.7472 14.1738 24.7502 14.1738 24.7532 14.1738C26.0367 14.0492 27.3262 14.1948 28.5843 14.6046L100.683 38.1181C106.518 40.0201 110.106 47.0878 108.684 53.8732L99.6124 97.123C99.5944 97.2071 99.5434 97.2792 99.4683 97.3212C99.4218 97.3482 99.3707 97.3617 99.3182 97.3617H99.3197ZM6.92181 66.611L99.096 96.6712L108.099 53.7486C109.46 47.2529 106.051 40.4975 100.5 38.687L28.3996 15.1751C27.2182 14.7893 26.0082 14.6527 24.8057 14.7713C24.8027 14.7713 24.7997 14.7713 24.7952 14.7713C23.7894 14.8688 22.8046 15.1451 21.8678 15.5894L21.5616 15.741C18.7243 17.2212 16.6767 20.093 15.9366 23.6239L6.92181 66.611Z" fill="black"/>
</g>
<g id="Group_4">
<path id="Vector_7" d="M83.0797 109.555L70.1874 121.222C68.464 122.78 66.038 123.298 63.8283 122.578L32.4035 112.329C32.2593 112.282 32.1242 112.225 31.9951 112.161C31.0148 111.664 30.4729 110.67 30.4729 109.658C30.4729 108.915 30.7671 108.163 31.3946 107.594L43.4944 96.6443L53.2372 99.8224L64.3972 103.461L73.3189 106.371L77.4697 107.725L83.0797 109.555Z" fill="white"/>
<path id="Vector_8" d="M65.8307 123.195C65.1282 123.195 64.4211 123.085 63.735 122.861L32.3102 112.613C32.1586 112.565 32.0115 112.503 31.8599 112.428C30.818 111.9 30.171 110.838 30.171 109.657C30.171 108.779 30.5328 107.966 31.1918 107.37L43.2916 96.4206C43.3711 96.3486 43.4837 96.3246 43.5858 96.3576L83.1712 109.268C83.2733 109.301 83.3498 109.387 83.3723 109.49C83.3949 109.595 83.3603 109.703 83.2808 109.775L70.3884 121.443C69.1244 122.585 67.4896 123.193 65.8307 123.193V123.195ZM43.5663 96.9836L31.5957 107.816C31.0642 108.297 30.773 108.951 30.773 109.658C30.773 110.612 31.2939 111.469 32.1301 111.894C32.2532 111.955 32.3718 112.005 32.4949 112.044L63.9212 122.292C66.0229 122.977 68.3468 122.482 69.9861 121L82.4941 109.679L43.5663 96.9836Z" fill="black"/>
</g>
<g id="Group_5">
<path id="Vector_9" d="M87.3461 110.804L70.1872 126.332C68.4639 127.89 66.0379 128.408 63.8281 127.688L32.4033 117.439C31.1663 117.035 30.4728 115.912 30.4728 114.77V109.658C30.4728 110.67 31.0147 111.664 31.995 112.161C32.1241 112.225 32.2592 112.282 32.4033 112.329L63.8281 122.578C66.0379 123.298 68.4639 122.78 70.1872 121.222L83.0796 109.555L85.5026 110.344C86.055 110.524 86.609 110.651 87.1599 110.724L87.3461 110.804Z" fill="#EBECEE"/>
<path id="Vector_10" d="M65.8307 128.305C65.1281 128.305 64.4211 128.195 63.735 127.972L32.3102 117.723C31.0312 117.305 30.1725 116.118 30.1725 114.768V109.657C30.1725 109.492 30.3076 109.357 30.4727 109.357C30.6379 109.357 30.773 109.492 30.773 109.657C30.773 110.61 31.2939 111.467 32.1301 111.892C32.2532 111.954 32.3718 112.003 32.4949 112.042L63.9212 122.291C66.0228 122.976 68.3467 122.48 69.986 120.998L82.8784 109.331C82.958 109.259 83.0706 109.235 83.1726 109.268L85.5956 110.058C86.124 110.23 86.6645 110.353 87.1989 110.425C87.2259 110.428 87.2514 110.436 87.277 110.446L87.4631 110.526C87.5577 110.567 87.6237 110.652 87.6417 110.753C87.6583 110.853 87.6237 110.957 87.5472 111.024L70.3884 126.553C69.1243 127.695 67.4895 128.303 65.8307 128.303V128.305ZM30.773 111.508V114.77C30.773 115.86 31.465 116.818 32.4964 117.154L63.9212 127.403C66.0228 128.087 68.3467 127.592 69.986 126.11L86.726 110.961C86.2847 110.883 85.8433 110.772 85.4095 110.631L83.1516 109.895L70.3884 121.446C68.5899 123.073 66.0409 123.617 63.735 122.864L32.3102 112.616C32.1586 112.566 32.0115 112.506 31.8598 112.431C31.4215 112.209 31.0522 111.891 30.7715 111.511L30.773 111.508Z" fill="black"/>
</g>
<path id="Vector_11" d="M30.4727 115.181C30.3076 115.181 30.1725 115.046 30.1725 114.881V114.77C30.1725 114.605 30.3076 114.47 30.4727 114.47C30.6379 114.47 30.773 114.605 30.773 114.77V114.881C30.773 115.046 30.6379 115.181 30.4727 115.181Z" fill="black"/>
<g id="Group_6">
<path id="Vector_12" d="M60.1773 102.084V113.067L49.0173 109.427V98.4456L60.1773 102.084Z" fill="white"/>
<path id="Vector_13" d="M60.1771 113.368C60.1456 113.368 60.1141 113.363 60.0841 113.353L48.9241 109.712C48.801 109.672 48.7169 109.556 48.7169 109.427V98.4456C48.7169 98.3495 48.7635 98.2595 48.8415 98.2024C48.9196 98.1454 49.0187 98.1304 49.1102 98.1604L60.2702 101.799C60.3933 101.84 60.4774 101.955 60.4774 102.085V113.067C60.4774 113.163 60.4308 113.254 60.3528 113.311C60.3002 113.348 60.2387 113.368 60.1771 113.368ZM49.3174 109.208L59.8769 112.652V102.301L49.3174 98.8569V109.206V109.208Z" fill="black"/>
</g>
<g id="Group_7">
<path id="Vector_14" d="M69.0988 104.994L60.1771 113.068V102.085L69.0988 104.994Z" fill="#EBECEE"/>
<path id="Vector_15" d="M60.1771 113.368C60.1365 113.368 60.0945 113.359 60.0555 113.342C59.9474 113.294 59.8768 113.186 59.8768 113.068V102.085C59.8768 101.989 59.9234 101.899 60.0014 101.842C60.0795 101.785 60.1786 101.77 60.2702 101.8L69.1918 104.709C69.2939 104.742 69.3705 104.827 69.393 104.931C69.4155 105.036 69.381 105.144 69.3014 105.216L60.3797 113.29C60.3227 113.341 60.2506 113.368 60.1786 113.368H60.1771ZM60.4773 102.498V112.391L68.5133 105.119L60.4773 102.498Z" fill="black"/>
</g>
<g id="Group_8">
<g id="Group_9">
<path id="Vector_16" d="M41.8744 114.925C41.8384 115.494 41.6568 115.93 41.5292 116.183C38.7594 121.083 35.9912 125.982 33.2215 130.882C33.1059 131.066 32.8417 131.432 32.3658 131.705L22.737 139.427C24.519 136.275 26.3009 133.122 28.0813 129.97C29.0706 128.222 30.0569 126.475 31.0447 124.727C31.1723 124.475 31.354 124.038 31.3915 123.471C31.4335 122.774 31.2384 122.259 31.1273 121.977C31.0207 121.704 30.725 121.04 30.09 120.485C29.3153 119.805 28.4266 119.632 28.0168 119.56C27.2061 119.412 25.3101 119.102 22.6004 118.685C19.8908 118.268 16.3689 117.744 12.3036 117.167C12.0785 117.143 11.7467 117.13 11.3549 117.202C11.1988 117.232 10.9526 117.281 10.6748 117.402C10.6418 117.418 10.6073 117.435 10.5728 117.448L10.5577 117.457L20.5002 109.27L20.5813 109.202C20.6203 109.17 20.6594 109.143 20.6984 109.115L20.7044 109.11L21.0407 108.911L21.0572 108.902C21.0917 108.888 21.1247 108.872 21.1593 108.857C21.437 108.735 21.6817 108.686 21.8393 108.656C22.2296 108.583 22.5629 108.597 22.7881 108.623C30.9231 109.775 36.8799 110.718 38.5012 111.014C38.9096 111.087 39.7998 111.26 40.5744 111.939C41.2094 112.494 41.5051 113.158 41.6117 113.431C41.7228 113.713 41.918 114.23 41.8744 114.925Z" fill="#FF7E88"/>
<path id="Vector_17" d="M22.737 139.727C22.6679 139.727 22.5989 139.703 22.5418 139.655C22.4322 139.562 22.4037 139.405 22.4743 139.279C24.2562 136.126 26.0381 132.974 27.8186 129.821C28.4806 128.652 29.1426 127.481 29.8032 126.311L30.782 124.579C30.9591 124.229 31.0642 123.846 31.0912 123.45C31.1302 122.804 30.9396 122.319 30.8465 122.087C30.7264 121.781 30.4442 121.195 29.8917 120.71C29.1562 120.065 28.29 119.913 27.9642 119.854C27.092 119.694 25.0699 119.368 22.5538 118.981C20.4011 118.649 16.8673 118.116 12.2601 117.463C11.9793 117.433 11.6896 117.444 11.4074 117.496C11.2843 117.52 11.0531 117.564 10.7994 117.673C10.7679 117.688 10.7363 117.703 10.7048 117.717C10.5712 117.793 10.4001 117.756 10.31 117.63C10.2199 117.501 10.2439 117.325 10.364 117.224L20.3861 108.971C20.4236 108.941 20.4567 108.917 20.4897 108.893L20.5182 108.873C20.5257 108.867 20.5392 108.858 20.5482 108.852L20.9115 108.637C20.922 108.631 20.934 108.625 20.946 108.621C20.9626 108.615 20.9776 108.607 20.9926 108.6L21.0376 108.579C21.3574 108.439 21.6426 108.385 21.7807 108.358C22.1245 108.295 22.4728 108.283 22.8196 108.322C30.8795 109.465 36.8694 110.41 38.5522 110.717C38.9245 110.784 39.9153 110.963 40.7695 111.71C41.4195 112.278 41.7498 112.962 41.8894 113.32C41.996 113.593 42.2212 114.162 42.1716 114.941C42.1416 115.418 42.014 115.881 41.7948 116.316L33.4811 131.028C33.3085 131.303 33.0113 131.672 32.5339 131.951L22.9231 139.66C22.8676 139.703 22.8015 139.726 22.7355 139.726L22.737 139.727ZM11.9463 116.849C12.0754 116.849 12.2045 116.857 12.3351 116.87C16.9543 117.525 20.4912 118.058 22.6454 118.389C25.1674 118.778 27.1956 119.105 28.0708 119.266C28.4401 119.331 29.4264 119.505 30.2881 120.26C30.9366 120.827 31.2684 121.512 31.4065 121.869C31.5131 122.141 31.7382 122.71 31.6902 123.49C31.6587 123.969 31.5311 124.43 31.3119 124.864L30.3271 126.608C29.6666 127.778 29.0045 128.949 28.3425 130.118C26.8173 132.817 25.292 135.518 23.7653 138.217L32.1781 131.471C32.1901 131.462 32.2036 131.453 32.2171 131.445C32.5999 131.226 32.8371 130.932 32.9677 130.723L41.2679 116.035C41.445 115.686 41.5501 115.303 41.5757 114.906C41.6162 114.261 41.4255 113.775 41.3325 113.542C41.2124 113.236 40.9301 112.65 40.3762 112.165C39.6466 111.526 38.8059 111.374 38.4471 111.31C36.7688 111.003 30.788 110.059 22.7445 108.92C22.4653 108.888 22.1755 108.899 21.8918 108.951C21.7687 108.975 21.536 109.019 21.2778 109.133L21.2433 109.148C21.2238 109.157 21.2043 109.166 21.1847 109.173H21.1832L20.844 109.379C20.8184 109.397 20.7944 109.415 20.7689 109.435L20.6923 109.499L11.7647 116.852C11.8262 116.849 11.8863 116.848 11.9478 116.848L11.9463 116.849Z" fill="black"/>
</g>
<g id="Group_10">
<path id="Vector_18" d="M41.8714 106.278C41.8504 106.552 41.8218 106.926 41.6282 107.362C41.3595 107.973 40.9436 108.316 40.8551 108.385C40.7004 108.51 40.5458 108.603 40.3957 108.678C40.3912 108.681 40.3837 108.683 40.3792 108.686L30.255 114.693C30.2941 114.666 30.3331 114.639 30.3706 114.606C30.4592 114.536 30.875 114.195 31.1437 113.583C31.3374 113.146 31.3659 112.77 31.3869 112.499C31.4215 112.008 31.3509 111.623 31.3089 111.442C31.2293 111.079 31.1062 110.787 31.0026 110.58C30.5252 109.598 30.0494 108.618 29.572 107.638C27.5393 103.449 25.5142 99.279 23.4786 95.0862C23.3164 94.7499 23.1528 94.4136 22.9892 94.0774C22.9051 93.8957 22.776 93.648 22.5884 93.3793C22.3812 93.0866 22.0629 92.6377 21.4925 92.2804C21.2553 92.1333 20.7119 91.8 19.9447 91.782C19.7496 91.7775 19.3608 91.77 18.9104 91.9486L28.9835 85.9363L29.0706 85.8838C29.1802 85.8312 29.2868 85.7787 29.3963 85.7276C29.8467 85.552 30.2355 85.5565 30.4307 85.561C31.1993 85.582 31.7427 85.9138 31.9784 86.0609C32.5489 86.4182 32.8671 86.864 33.0743 87.1598C33.2604 87.4285 33.3896 87.6732 33.4751 87.8578C36.1518 93.3718 38.8074 98.8392 41.4871 104.361C41.5922 104.565 41.7138 104.856 41.7933 105.222C41.8338 105.402 41.9044 105.787 41.8714 106.278Z" fill="#FF7E88"/>
<path id="Vector_19" d="M30.255 114.992C30.156 114.992 30.0599 114.944 30.0028 114.854C29.9158 114.719 29.9503 114.539 30.0824 114.446C30.1154 114.423 30.1485 114.401 30.18 114.374C30.3166 114.266 30.6469 113.967 30.869 113.462C31.0432 113.069 31.0687 112.727 31.0882 112.476C31.1167 112.063 31.0657 111.721 31.0177 111.508C30.9576 111.233 30.863 110.967 30.7354 110.715L30.2671 109.75C29.9458 109.089 29.626 108.429 29.3033 107.768L23.2099 95.2167C23.0477 94.879 22.8841 94.5442 22.7205 94.2079C22.6124 93.9752 22.4878 93.7561 22.3437 93.5504C22.1515 93.2772 21.8588 92.8628 21.3349 92.5356C21.1262 92.405 20.6368 92.1002 19.9387 92.0837C19.7706 92.0792 19.4208 92.0717 19.0215 92.2293C18.8759 92.2864 18.7108 92.2233 18.6417 92.0822C18.5726 91.9411 18.6237 91.7715 18.7573 91.6919L28.9145 85.6285C28.9235 85.624 28.931 85.618 28.94 85.615L29.2658 85.4589C29.2658 85.4589 29.2793 85.4529 29.2868 85.4499C29.8032 85.2487 30.2475 85.2592 30.4367 85.2637C31.3014 85.2862 31.9079 85.666 32.1376 85.8102C32.7711 86.2065 33.1149 86.6974 33.3205 86.9901C33.5292 87.2918 33.6688 87.5621 33.7484 87.7347C36.0137 92.402 38.267 97.0422 40.5338 101.709L41.7588 104.231C41.9059 104.52 42.0185 104.835 42.0891 105.161C42.1461 105.408 42.2062 105.809 42.1731 106.3C42.1731 106.3 42.1731 106.3 42.1731 106.302C42.1521 106.578 42.1221 106.997 41.9044 107.485C41.6132 108.15 41.1688 108.525 41.0397 108.624C40.8896 108.746 40.7215 108.852 40.5323 108.948C40.5293 108.95 40.5248 108.953 40.5188 108.954L30.4097 114.952C30.3616 114.98 30.3091 114.994 30.2566 114.994L30.255 114.992ZM20.2435 91.5027C20.9521 91.5868 21.4505 91.8991 21.6531 92.0252C22.2791 92.417 22.6274 92.9109 22.8361 93.2051C23.0012 93.4423 23.1438 93.6915 23.2639 93.9497C23.4261 94.2815 23.5897 94.6177 23.7518 94.9555L29.8437 107.506C30.165 108.166 30.4862 108.827 30.8075 109.487L31.2744 110.448C31.423 110.741 31.5341 111.054 31.6046 111.377C31.6857 111.739 31.7142 112.134 31.6887 112.52C31.6692 112.785 31.6392 113.179 31.45 113.637L40.2291 108.429C40.2291 108.429 40.2411 108.421 40.2486 108.418C40.2546 108.415 40.2636 108.411 40.2726 108.408C40.4197 108.333 40.5503 108.25 40.6704 108.153C40.7485 108.093 41.1163 107.791 41.358 107.243C41.5321 106.848 41.5576 106.507 41.5772 106.258C41.6057 105.841 41.5546 105.502 41.5066 105.291C41.4466 105.012 41.352 104.746 41.2244 104.499L39.9964 101.972C37.7296 97.3049 35.4763 92.6647 33.2079 87.9914C33.1359 87.8338 33.0143 87.5981 32.8311 87.3339C32.6525 87.0787 32.3537 86.6508 31.8223 86.3191C31.6136 86.1885 31.1242 85.8837 30.4247 85.8642C30.2596 85.8597 29.9173 85.8522 29.518 86.0053L29.2162 86.1509L29.1427 86.196L20.2465 91.5057L20.2435 91.5027Z" fill="black"/>
</g>
<g id="Group_11">
<path id="Vector_20" d="M31.3885 112.485C31.3675 112.758 31.339 113.132 31.1453 113.569C30.8766 114.18 30.4608 114.521 30.3722 114.591C30.3331 114.623 30.2956 114.65 30.2566 114.677L30.2491 114.681L29.9128 114.881L29.8963 114.89C29.8618 114.904 29.8287 114.92 29.7942 114.935C29.5165 115.055 29.2718 115.106 29.1157 115.135C28.7254 115.207 28.3936 115.193 28.1684 115.169C20.0394 114.018 14.0871 113.075 12.4673 112.779C12.0589 112.707 11.1702 112.535 10.3956 111.855C9.76209 111.301 9.46635 110.637 9.35977 110.364C9.24868 110.082 9.05352 109.567 9.09555 108.872C9.13158 108.304 9.31323 107.867 9.44083 107.615C12.2076 102.72 14.9758 97.8227 17.7425 92.9273C17.8581 92.7427 18.1223 92.3779 18.5967 92.1046C18.7063 92.0521 18.8129 91.9996 18.921 91.95C19.3713 91.7729 19.7586 91.7789 19.9553 91.7849C20.7239 91.8029 21.2659 92.1347 21.503 92.2818C22.0735 92.6391 22.3918 93.0864 22.5974 93.3792C22.7836 93.6479 22.9127 93.8956 22.9967 94.0772C23.1604 94.4135 23.324 94.7498 23.4846 95.086C25.5188 99.2759 27.5424 103.442 29.5735 107.627C30.0509 108.606 30.5253 109.586 31.0027 110.567C31.1078 110.774 31.2294 111.063 31.3089 111.428C31.3495 111.61 31.42 111.994 31.387 112.485H31.3885Z" fill="#FF444F"/>
<path id="Vector_21" d="M28.5286 115.49C28.398 115.49 28.2659 115.483 28.1353 115.468C20.1008 114.33 14.1065 113.383 12.4131 113.075C12.0423 113.009 11.056 112.833 10.1973 112.081C9.55031 111.515 9.22005 110.832 9.08043 110.475C8.97235 110.203 8.74867 109.636 8.79671 108.854C8.82673 108.378 8.95433 107.915 9.17351 107.48L17.4812 92.7787C17.7289 92.3854 18.0607 92.0656 18.4465 91.8435C18.4525 91.8404 18.46 91.8359 18.466 91.8329L18.5441 91.7954C18.6281 91.7549 18.7107 91.7143 18.7963 91.6768C18.8008 91.6738 18.8068 91.6723 18.8113 91.6708C19.3232 91.4696 19.7705 91.4802 19.9627 91.4847C20.8259 91.5057 21.4339 91.8855 21.6621 92.0281C22.2881 92.4199 22.6348 92.9123 22.8435 93.2066C23.0071 93.4422 23.1513 93.6929 23.2699 93.9511C23.4305 94.2829 23.5956 94.6192 23.7562 94.9555L26.6971 101.014C27.745 103.173 28.7943 105.332 29.8436 107.495C30.1934 108.213 30.5417 108.93 30.89 109.648L31.2713 110.434C31.4184 110.727 31.531 111.041 31.6016 111.362C31.6826 111.722 31.7111 112.119 31.6856 112.503C31.6856 112.503 31.6856 112.503 31.6856 112.505C31.6646 112.782 31.6331 113.2 31.4169 113.688C31.1422 114.314 30.7234 114.69 30.5567 114.824C30.5162 114.857 30.4727 114.888 30.4291 114.92C30.4276 114.92 30.4171 114.928 30.4156 114.929C30.4111 114.932 30.4066 114.935 30.4006 114.938L30.0448 115.15C30.0328 115.157 30.0193 115.163 30.0073 115.168C29.9788 115.18 29.9502 115.193 29.9217 115.207C29.629 115.334 29.3783 115.391 29.1711 115.43C28.9594 115.469 28.7433 115.49 28.5286 115.49ZM18.7362 92.3704C18.3594 92.5896 18.1252 92.8808 17.9961 93.0864L9.70193 107.762C9.52629 108.112 9.41971 108.496 9.39419 108.89C9.35365 109.537 9.54581 110.02 9.63738 110.253C9.75748 110.561 10.0412 111.146 10.5922 111.628C11.3247 112.27 12.1924 112.425 12.5197 112.484C14.2086 112.791 20.1924 113.736 28.2103 114.872C28.4896 114.904 28.7793 114.893 29.0615 114.84C29.1756 114.819 29.4143 114.774 29.6755 114.66C29.701 114.648 29.7326 114.633 29.7656 114.62L30.0868 114.428C30.1199 114.405 30.1499 114.383 30.1814 114.359C30.318 114.25 30.6483 113.952 30.8705 113.447C31.0446 113.056 31.0701 112.713 31.0896 112.463C31.1182 112.048 31.0671 111.706 31.0191 111.493C30.959 111.218 30.8645 110.952 30.7369 110.702L30.3526 109.91C30.0043 109.193 29.656 108.475 29.3062 107.758C28.2554 105.595 27.2075 103.436 26.1597 101.276L23.2173 95.2152C23.0552 94.8789 22.8916 94.5426 22.7294 94.2064C22.6213 93.9737 22.4967 93.7545 22.3526 93.5488C22.1605 93.2756 21.8677 92.8613 21.3453 92.534C21.1366 92.4034 20.6487 92.0987 19.9507 92.0821C19.784 92.0776 19.4373 92.0701 19.041 92.2248C18.9629 92.2608 18.8848 92.2983 18.8068 92.3358L18.7377 92.3689L18.7362 92.3704Z" fill="black"/>
</g>
<g id="Group_12">
<path id="Vector_22" d="M31.3916 123.471C31.354 124.038 31.1724 124.475 31.0448 124.727C30.057 126.475 29.0707 128.222 28.0814 129.97C26.301 133.122 24.519 136.275 22.7371 139.427C22.6215 139.612 22.3573 139.978 21.8829 140.25C21.7733 140.303 21.6667 140.355 21.5571 140.405C21.1068 140.583 20.718 140.576 20.5228 140.571C19.7542 140.553 19.2108 140.221 18.9751 140.073C18.4031 139.717 18.0849 139.268 17.8792 138.975C17.6915 138.707 17.5624 138.459 17.4784 138.277C17.3147 137.941 17.1511 137.603 16.989 137.267C14.9548 133.074 12.9282 128.905 10.8956 124.717C10.4182 123.737 9.9438 122.756 9.46641 121.775C9.36133 121.567 9.23823 121.276 9.15867 120.913C9.11813 120.731 9.04758 120.347 9.08211 119.856C9.10162 119.583 9.13165 119.208 9.3253 118.771C9.59252 118.16 10.0099 117.819 10.0984 117.748C10.136 117.715 10.175 117.688 10.214 117.661L10.22 117.657L10.5578 117.457L10.5728 117.448C10.6073 117.435 10.6419 117.418 10.6749 117.402C10.9526 117.281 11.1988 117.232 11.3549 117.202C11.7468 117.13 12.0785 117.143 12.3037 117.167C16.369 117.744 19.8908 118.268 22.6005 118.685C25.3102 119.102 27.2062 119.412 28.0168 119.56C28.4267 119.632 29.3154 119.805 30.09 120.485C30.725 121.041 31.0208 121.704 31.1273 121.977C31.2384 122.259 31.4336 122.774 31.3916 123.471Z" fill="#FF444F"/>
<path id="Vector_23" d="M20.6413 140.874C20.5933 140.874 20.5513 140.874 20.5152 140.873C19.646 140.852 19.041 140.472 18.8144 140.328C18.1869 139.938 17.8401 139.444 17.6329 139.15C17.4693 138.915 17.3267 138.666 17.2051 138.405C17.0429 138.073 16.8793 137.735 16.7172 137.399C15.6018 135.101 14.4894 132.808 13.3755 130.516C12.4582 128.629 11.5425 126.741 10.6238 124.849C10.3596 124.306 10.0953 123.764 9.83264 123.22L9.19462 121.908C9.046 121.615 8.93491 121.302 8.86286 120.979C8.78179 120.616 8.75327 120.219 8.78029 119.836C8.7983 119.577 8.82983 119.144 9.049 118.651C9.32222 118.028 9.74106 117.649 9.9092 117.516C9.94823 117.481 9.99777 117.447 10.0413 117.417C10.0473 117.412 10.0593 117.405 10.0653 117.4L10.4166 117.193C10.4301 117.184 10.4451 117.176 10.4616 117.17C10.4887 117.16 10.5142 117.148 10.5397 117.134C10.5442 117.131 10.5487 117.13 10.5547 117.128C10.8715 116.99 11.1492 116.938 11.2978 116.909C11.6386 116.846 11.9869 116.834 12.3352 116.872C16.9544 117.526 20.4912 118.059 22.6454 118.391C25.1675 118.78 27.1956 119.107 28.0708 119.268C28.4401 119.332 29.4264 119.506 30.2881 120.261C30.9366 120.829 31.2684 121.513 31.4065 121.871C31.5131 122.142 31.7383 122.711 31.6902 123.492C31.6587 123.971 31.5311 124.432 31.3119 124.866L30.3271 126.61C29.6666 127.779 29.0046 128.95 28.3425 130.12C26.5621 133.272 24.7802 136.425 22.9982 139.577C22.8241 139.855 22.5239 140.232 22.0315 140.513C22.0254 140.516 22.0179 140.52 22.0119 140.523L21.9309 140.562C21.8468 140.603 21.7642 140.643 21.6787 140.681C21.2448 140.853 20.8725 140.876 20.6398 140.876L20.6413 140.874ZM10.3851 117.907C10.3551 117.928 10.325 117.948 10.2965 117.973C10.1524 118.089 9.81912 118.389 9.59995 118.891C9.42281 119.29 9.39879 119.629 9.38077 119.877C9.35825 120.203 9.38077 120.538 9.45133 120.847C9.51138 121.12 9.60595 121.386 9.73356 121.638L10.3731 122.956C10.6373 123.499 10.9 124.043 11.1642 124.585C12.0829 126.476 12.9987 128.365 13.9159 130.252C15.0298 132.544 16.1422 134.837 17.2576 137.135C17.4197 137.471 17.5834 137.809 17.747 138.145C17.8551 138.379 17.9812 138.599 18.1238 138.803C18.316 139.076 18.6072 139.49 19.1326 139.818C19.3233 139.938 19.8247 140.254 20.5287 140.271C20.7104 140.275 21.0482 140.283 21.446 140.125C21.5135 140.095 21.5916 140.056 21.6712 140.019L21.7432 139.984C22.1215 139.765 22.3542 139.474 22.4833 139.268C24.2577 136.128 26.0397 132.975 27.8201 129.823C28.4821 128.653 29.1442 127.482 29.8047 126.313L30.7835 124.58C30.9591 124.232 31.0657 123.848 31.0927 123.453C31.1318 122.806 30.9411 122.321 30.8481 122.088C30.728 121.782 30.4457 121.197 29.8933 120.712C29.1577 120.066 28.2915 119.915 27.9657 119.856C27.0935 119.695 25.0714 119.37 22.5554 118.982C20.4026 118.651 16.8688 118.118 12.2616 117.465C11.9809 117.435 11.6911 117.445 11.4089 117.498C11.2858 117.522 11.0546 117.565 10.8009 117.675C10.7709 117.69 10.7379 117.705 10.7063 117.718L10.3851 117.909V117.907Z" fill="black"/>
</g>
</g>
<path id="Vector_24" d="M57.7888 67.6049C57.6927 67.6049 57.5981 67.5599 57.5411 67.4743L46.3691 51.1291L32.1226 60.86C31.986 60.953 31.7984 60.9185 31.7053 60.7819C31.6122 60.6453 31.6468 60.4576 31.7834 60.3646L46.2775 50.4641C46.4141 50.371 46.6018 50.4055 46.6949 50.5422L58.0365 67.1365C58.1296 67.2731 58.095 67.4608 57.9584 67.5539C57.9059 67.5899 57.8473 67.6064 57.7888 67.6064V67.6049Z" fill="black"/>
<path id="Vector_25" d="M57.7887 67.6048C57.6926 67.6048 57.598 67.5598 57.541 67.4742C57.4479 67.3376 57.4825 67.1499 57.6191 67.0569L83.8106 49.167C83.9472 49.0739 84.1349 49.1084 84.228 49.245C84.3211 49.3816 84.2865 49.5693 84.1499 49.6624L57.9583 67.5523C57.9073 67.5883 57.8472 67.6048 57.7887 67.6048Z" fill="black"/>
</g>
</g>
</g>
</svg>
