<svg width="120" height="152" viewBox="0 0 120 152" fill="none" xmlns="http://www.w3.org/2000/svg">
<g id="illustration / deriv / light / integrity">
<g id="Integrity 1" clip-path="url(#clip0_831_154)">
<g id="Frame 1">
<g id="Group">
<g id="Group_2">
<path id="Vector" d="M46.1556 66.4787C42.9399 62.8729 39.7256 59.2658 36.5127 55.6587C36.2885 55.3958 35.9785 55.0258 35.6256 54.5701C35.0685 53.8501 34.0785 52.5601 33.1456 50.7787C32.7542 50.0329 31.8499 48.2001 31.2285 45.6758C30.697 43.5158 30.607 41.7929 30.5842 41.1187C30.5627 40.5201 30.5713 40.0158 30.5842 39.6458C30.577 35.0187 30.5699 30.3915 30.5627 25.7629C33.8985 29.5644 37.2327 33.3644 40.567 37.1658C40.5156 39.9344 40.4085 46.7372 40.567 51.7258C40.5842 52.2658 40.6185 53.2129 40.7885 54.4487C41.2827 58.0229 42.4456 60.5872 42.7856 61.3058C43.877 63.6187 45.1785 65.3529 46.1556 66.4787Z" fill="#FF444F"/>
<path id="Vector_2" d="M46.1571 66.7644C46.0786 66.7644 46 66.7315 45.9443 66.6687C42.7286 63.0629 39.5143 59.4558 36.3014 55.8487C36.09 55.6015 35.7714 55.2229 35.4014 54.7444C34.9 54.0958 33.8557 52.7472 32.8943 50.9101C32.3186 49.8144 31.5157 48.0287 30.9529 45.7429C30.5771 44.2129 30.3514 42.6172 30.3 41.1272C30.2828 40.6329 30.2828 40.1444 30.3 39.6344L30.2786 25.7615C30.2786 25.6429 30.3514 25.5358 30.4628 25.4944C30.5743 25.4529 30.7 25.4844 30.7786 25.5729C34.1143 29.3744 37.4486 33.1744 40.7828 36.9758C40.83 37.0287 40.8557 37.0987 40.8543 37.1701C40.7771 41.3587 40.7128 47.2815 40.8543 51.7158C40.8686 52.1815 40.9 53.1501 41.0729 54.4087C41.5157 57.6129 42.4986 60.0272 43.0457 61.1829C43.92 63.0358 45.04 64.7544 46.3728 66.2901C46.4757 66.4087 46.4643 66.5886 46.3457 66.6915C46.2914 66.7387 46.2243 66.7629 46.1571 66.7629V66.7644ZM30.85 26.5229L30.87 39.6458C30.8529 40.1515 30.8529 40.6272 30.87 41.1087C30.9186 42.5601 31.1386 44.1158 31.5057 45.6072C32.0543 47.8372 32.8386 49.5772 33.3986 50.6458C34.3371 52.4387 35.3228 53.7115 35.8514 54.3958C36.2143 54.8644 36.5271 55.2358 36.73 55.4744C38.88 57.8887 41.0329 60.3058 43.1886 62.7215C42.9557 62.2986 42.7343 61.8672 42.5271 61.4286C41.9671 60.2444 40.9586 57.7687 40.5057 54.4887C40.3286 53.1987 40.2971 52.2101 40.2814 51.7358C40.1414 47.3286 40.2028 41.4601 40.2786 37.2715C37.1357 33.6886 33.9929 30.1072 30.8486 26.5229H30.85Z" fill="black"/>
</g>
<g id="Group_3">
<path id="Vector_3" d="M85.9241 40.7958C85.8413 42.2916 85.717 43.8544 85.3399 45.7973C85.1856 46.5901 84.617 49.3658 83.1213 52.8958C82.747 53.7801 81.1241 57.5216 77.877 61.8516C74.0613 66.9401 70.2056 69.9058 69.1656 70.6844C66.9184 72.3673 64.8556 73.553 63.2956 74.3544C60.8313 74.2644 57.0784 73.7744 53.0913 71.773C49.8141 70.1301 47.7727 68.1658 47.2227 67.6187C47.0184 67.4173 46.7456 67.1387 46.427 66.7844C46.3684 66.7201 46.3098 66.6544 46.2498 66.5858C46.2184 66.5501 46.1884 66.5144 46.1556 66.4787C45.1784 65.353 43.877 63.6187 42.7856 61.3058C42.4456 60.5873 41.2827 58.023 40.7884 54.4487C40.6184 53.213 40.5841 52.2658 40.567 51.7258C40.4084 46.7373 40.5156 39.9344 40.567 37.1658C43.3484 36.6416 46.8813 35.683 50.7041 33.8573C56.6756 31.0073 60.767 27.2773 63.2256 24.6301C65.2713 25.7344 68.4684 27.133 72.5941 27.7001C78.567 28.5201 83.3727 27.1701 85.8513 26.2744C86.2284 33.1873 86.0784 38.0373 85.9241 40.7958Z" fill="#FF535E"/>
<path id="Vector_4" d="M63.2957 74.64C63.2957 74.64 63.2885 74.64 63.2857 74.64C59.6228 74.5057 56.15 73.6272 52.9642 72.0286C49.96 70.5229 47.9514 68.7457 47.0228 67.8215C46.7528 67.5557 46.4814 67.2715 46.2157 66.9757C46.1571 66.9115 46.0971 66.8443 46.0357 66.7743L46.0028 66.7357C45.9842 66.7143 45.9657 66.6929 45.9457 66.6715C44.5728 65.09 43.4242 63.3272 42.5271 61.4272C41.9671 60.2429 40.9585 57.7672 40.5057 54.4872C40.3285 53.1972 40.2971 52.2086 40.2814 51.7343C40.14 47.2886 40.2028 41.3543 40.2814 37.16C40.2842 37.0243 40.3814 36.91 40.5142 36.8843C44.0085 36.2257 47.3957 35.12 50.5814 33.5986C55.2585 31.3657 59.4428 28.2829 63.0171 24.4343C63.1057 24.3386 63.2471 24.3157 63.3628 24.3772C66.2714 25.9472 69.3914 26.97 72.6342 27.4157C77.0028 28.0157 81.54 27.5272 85.7557 26.0043C85.84 25.9743 85.9357 25.9843 86.01 26.0343C86.0842 26.0843 86.1328 26.1672 86.1371 26.2572C86.4271 31.5829 86.4528 36.48 86.21 40.81C86.1171 42.4943 85.9814 43.9957 85.6214 45.85C85.1857 48.09 84.3914 50.6315 83.3857 53.0057C82.8085 54.37 81.1385 57.98 78.1071 62.0215C74.6471 66.6357 71.1285 69.5715 69.3385 70.9115C67.48 72.3043 65.4914 73.5472 63.4285 74.6072C63.3885 74.6286 63.3428 74.6386 63.2985 74.6386L63.2957 74.64ZM40.8485 37.4029C40.7728 41.5757 40.7142 47.3629 40.8528 51.7172C40.8671 52.1829 40.8985 53.1515 41.0714 54.41C41.5142 57.6143 42.4971 60.0286 43.0442 61.1843C43.9185 63.0372 45.0385 64.7557 46.3714 66.2915C46.39 66.3115 46.4114 66.3357 46.4342 66.3615L46.4642 66.3972C46.5242 66.4643 46.5814 66.5286 46.6385 66.5929C46.8971 66.8815 47.1614 67.1572 47.4242 67.4157C48.33 68.3172 50.2871 70.0472 53.22 71.5186C56.31 73.07 59.6785 73.9272 63.2314 74.0672C65.2428 73.03 67.1814 71.8157 68.9942 70.4572C70.76 69.1357 74.2314 66.2386 77.6485 61.6814C80.6414 57.69 82.2885 54.13 82.8585 52.7857C84.1957 49.63 84.8114 47.0186 85.06 45.7443C85.4142 43.9215 85.5471 42.4429 85.64 40.7815C85.8757 36.5743 85.8571 31.83 85.5871 26.6729C81.3885 28.1257 76.8914 28.58 72.5557 27.9843C69.3171 27.5386 66.1985 26.5315 63.2842 24.9872C59.6942 28.8143 55.5042 31.8843 50.8271 34.1172C47.6657 35.6272 44.31 36.7329 40.8485 37.4043V37.4029Z" fill="black"/>
</g>
<g id="Group_4">
<path id="Vector_5" d="M85.8512 26.2742C83.3727 27.1699 78.5669 28.5199 72.5941 27.6999C68.4684 27.1328 65.2712 25.7342 63.2255 24.6299C62.6155 23.9371 62.0041 23.2456 61.3941 22.5528C58.6698 19.4642 55.9469 16.3742 53.2227 13.2856C55.6369 14.4628 59.8969 16.1471 65.4412 16.3514C69.9141 16.5171 73.5498 15.6571 75.9012 14.8999C79.2169 18.6914 82.5341 22.4828 85.8512 26.2742Z" fill="#FF7E88"/>
<path id="Vector_6" d="M76.2999 28.2372C75.0456 28.2372 73.7942 28.1529 72.5556 27.9829C69.2442 27.5272 66.0599 26.4843 63.0899 24.8815C63.0599 24.8657 63.0342 24.8443 63.0113 24.8186C62.707 24.4729 62.4013 24.1257 62.0956 23.78C61.7899 23.4343 61.4842 23.0872 61.1799 22.7415C59.8184 21.1972 58.4556 19.6529 57.0942 18.1086C55.7327 16.5643 54.3713 15.02 53.0084 13.4757C52.9184 13.3729 52.9127 13.2215 52.9956 13.1143C53.0784 13.0057 53.2256 12.9715 53.3484 13.03C57.1084 14.8643 61.2942 15.9143 65.4527 16.0672C68.9613 16.1972 72.447 15.7129 75.8142 14.6286C75.9227 14.5943 76.0413 14.6272 76.117 14.7129C79.4327 18.5043 82.7499 22.2957 86.067 26.0872C86.1299 26.1586 86.1527 26.2557 86.1285 26.3472C86.1042 26.4386 86.037 26.5129 85.9484 26.5443C82.8413 27.6672 79.5613 28.2386 76.2984 28.2386L76.2999 28.2372ZM63.407 24.4029C66.3027 25.96 69.407 26.9729 72.6342 27.4172C76.867 27.9986 81.257 27.5586 85.3599 26.1457C82.1756 22.5072 78.9927 18.8686 75.8113 15.23C72.437 16.2943 68.9456 16.7686 65.4327 16.6386C61.6456 16.4986 57.8356 15.6286 54.3327 14.1115C55.397 15.3186 56.4613 16.5257 57.5256 17.7315C58.887 19.2757 60.2484 20.82 61.6113 22.3643C61.917 22.7115 62.2213 23.0572 62.527 23.4029C62.8213 23.7357 63.1156 24.07 63.4084 24.4029H63.407Z" fill="black"/>
</g>
<g id="Group_5">
<path id="Vector_7" d="M63.2256 24.6299C60.767 27.2771 56.6756 31.0071 50.7042 33.8571C46.8813 35.6828 43.3485 36.6414 40.567 37.1656C37.2327 33.3642 33.8985 29.5642 30.5627 25.7628C33.5885 25.1642 37.7327 24.0042 42.2342 21.6228C47.3499 18.9156 50.9527 15.6742 53.2227 13.2856C55.947 16.3742 58.6699 19.4642 61.3942 22.5528C62.0042 23.2456 62.6156 23.9371 63.2256 24.6299Z" fill="#FF7E88"/>
<path id="Vector_8" d="M40.567 37.4515C40.4856 37.4515 40.407 37.4172 40.3528 37.3543C37.0185 33.5529 33.6842 29.7529 30.3485 25.9515C30.2813 25.8743 30.2599 25.7672 30.2927 25.6715C30.3256 25.5758 30.407 25.5029 30.5085 25.4829C34.557 24.6815 38.4585 23.2986 42.1013 21.37C46.1656 19.2186 49.8385 16.4329 53.017 13.0886C53.0728 13.03 53.1513 12.9986 53.2299 13C53.3099 13.0015 53.3856 13.0372 53.4385 13.0972C54.8013 14.6415 56.1627 16.1858 57.5242 17.7315C58.8856 19.2758 60.247 20.82 61.6099 22.3643C61.9156 22.7115 62.2199 23.0572 62.5256 23.4029C62.8313 23.7486 63.137 24.0958 63.4413 24.4415C63.5385 24.5515 63.5356 24.7172 63.4356 24.8243C59.8127 28.7258 55.5699 31.8515 50.8285 34.1143C47.5985 35.6572 44.1642 36.7786 40.6213 37.4458C40.6042 37.4486 40.5856 37.45 40.5685 37.45L40.567 37.4515ZM31.1028 25.9443C34.2942 29.5815 37.4842 33.2172 40.6742 36.8543C44.1113 36.1929 47.4442 35.0972 50.5813 33.5986C55.1813 31.4029 59.3042 28.3843 62.8399 24.6243C62.5913 24.3429 62.3442 24.0615 62.0956 23.78C61.7899 23.4343 61.4842 23.0872 61.1799 22.7415C59.8185 21.1972 58.4556 19.6529 57.0942 18.1086C55.8013 16.6415 54.507 15.1743 53.2142 13.7086C50.0428 16.9986 46.3956 19.7443 42.3685 21.8758C38.8213 23.7529 35.0342 25.12 31.1028 25.9443Z" fill="black"/>
</g>
<g id="Group_6">
<path id="Vector_9" d="M114.604 54.57C113.714 54.8286 112.471 55.3015 111.176 56.2043C109.44 57.41 108.498 58.7672 108.23 59.1686C107.774 59.8543 107.023 61.0072 106.738 62.6972C106.617 63.4143 106.614 64.03 106.637 64.4729C106.63 67.3372 106.624 70.2 106.617 73.0643C106.643 74.0772 106.6 75.4129 106.334 76.9572C106.236 77.5358 105.894 79.3643 104.943 81.5957C104.063 83.66 103.084 85.0729 102.341 86.1329C101.24 87.7043 100.25 88.7915 99.6184 89.4815C98.2284 90.9972 97.6413 91.39 95.9884 93.01C94.6198 94.3529 93.7313 95.35 92.277 96.9829C90.5056 98.9743 89.3541 100.407 87.2756 102.993C86.8313 103.547 85.7213 104.933 84.3713 106.806C83.1098 108.556 82.7256 109.223 82.3956 109.911C81.637 111.493 81.3398 112.833 81.2256 113.42C80.9984 114.593 80.9541 115.613 80.9684 116.386C80.9698 119.067 80.9713 121.75 80.9727 124.433C74.8898 117.501 68.807 110.57 62.7241 103.639V96.5672C62.7056 96.18 62.6927 95.6229 62.7241 94.9529C62.7698 94 62.867 92.23 63.6256 90.3015C63.9727 89.4172 64.3641 88.7986 65.1441 87.5586C65.9227 86.3243 66.4384 85.6915 67.6727 84.0358C69.4341 81.6729 69.2313 81.8258 70.1598 80.62C71.4741 78.9129 72.5041 77.7958 74.3141 75.8343C76.1927 73.7972 77.7641 72.2229 78.7241 71.2629C81.6541 68.3329 81.6084 68.57 82.557 67.4443C84.5527 65.0715 85.6941 62.9015 86.2813 61.6486C87.1341 59.8258 87.5213 58.4315 87.6113 58.1C88.0156 56.6129 88.1527 55.4243 88.2441 54.6172C88.3984 53.24 88.4241 52.0486 88.4056 51.1215C88.4141 48.4015 88.4227 45.68 88.4327 42.96C88.4684 42.4257 88.5627 41.6829 88.8227 40.8358C89.5041 38.6058 90.837 37.2358 91.377 36.6943C93.237 34.8286 95.3284 34.1272 96.3656 33.8572C102.444 40.7615 108.524 47.6657 114.604 54.57Z" fill="#EBECEE"/>
<path id="Vector_10" d="M80.9742 124.719C80.8942 124.719 80.8142 124.684 80.7599 124.621L62.5114 103.827C62.4657 103.776 62.4399 103.709 62.4399 103.639V96.5671C62.4142 96.0428 62.4142 95.4899 62.4399 94.9399C62.4828 94.0514 62.5714 92.2042 63.3614 90.1971C63.7142 89.2985 64.1028 88.6799 64.8785 87.4471L64.9042 87.4057C65.5257 86.4214 65.9871 85.8071 66.7528 84.7885C66.9585 84.5156 67.1857 84.2128 67.4457 83.8642C68.3771 82.6142 68.7642 82.0614 69.0471 81.6571C69.3071 81.2856 69.4957 81.0171 69.9357 80.4456C71.2628 78.7228 72.3328 77.5628 74.1057 75.6399C76.0214 73.5614 77.6499 71.9342 78.5242 71.0599C79.8671 69.7171 80.5871 69.0371 81.0628 68.5871C81.6257 68.0557 81.8357 67.8571 82.3399 67.2585C83.8342 65.4814 85.0742 63.5528 86.0242 61.5256C86.7742 59.9214 87.1685 58.6428 87.3371 58.0228C87.7399 56.5414 87.8728 55.3628 87.9614 54.5828C88.0899 53.4328 88.1442 52.2685 88.1214 51.1257C88.1299 48.3985 88.1385 45.6771 88.1485 42.9571C88.1485 42.9514 88.1485 42.9457 88.1485 42.9385C88.1985 42.1928 88.3342 41.4556 88.5499 40.7499C89.2671 38.4028 90.7028 36.9642 91.1757 36.4899C92.9328 34.7271 94.9285 33.9328 96.2942 33.5785C96.3985 33.5514 96.5099 33.5857 96.5799 33.6657C102.659 40.5699 108.739 47.4742 114.819 54.3785C114.883 54.4514 114.906 54.5528 114.879 54.6471C114.851 54.7414 114.777 54.8142 114.684 54.8414C113.481 55.1914 112.356 55.7271 111.34 56.4356C110.209 57.2214 109.189 58.2471 108.469 59.3242C108.061 59.9385 107.3 61.0814 107.021 62.7414C106.927 63.2999 106.894 63.8771 106.924 64.4542C106.924 64.4599 106.924 64.4642 106.924 64.4699L106.904 73.0614C106.937 74.3728 106.841 75.6999 106.617 77.0014C106.469 77.8685 106.089 79.6342 105.207 81.7042C104.297 83.8385 103.261 85.3156 102.577 86.2928C101.449 87.9028 100.436 89.0085 99.8314 89.6699C98.9742 90.6042 98.4299 91.1056 97.7414 91.7414C97.3142 92.1342 96.8314 92.5814 96.1899 93.2085C94.8228 94.5499 93.9457 95.5342 92.4914 97.1671C90.7285 99.1485 89.5857 100.57 87.5114 103.15L87.4985 103.166C87.0771 103.691 85.9571 105.087 84.6028 106.967C83.3857 108.656 82.9914 109.323 82.6528 110.03C82.1271 111.126 81.7299 112.316 81.5057 113.47C81.3214 114.426 81.2356 115.403 81.2542 116.376L81.2585 124.429C81.2585 124.547 81.1842 124.654 81.0742 124.696C81.0414 124.709 81.0071 124.714 80.9742 124.714V124.719ZM63.0099 103.531L80.6871 123.674L80.6828 116.387C80.6642 115.38 80.7528 114.361 80.9457 113.367C81.1799 112.166 81.5928 110.929 82.1385 109.79C82.4914 109.053 82.8985 108.364 84.1399 106.641C85.5028 104.751 86.6285 103.346 87.0528 102.817L87.0657 102.801C89.1457 100.214 90.2914 98.7885 92.0642 96.7956C93.5257 95.1542 94.4085 94.1628 95.7885 92.8085C96.4357 92.1742 96.9228 91.7256 97.3514 91.3285C98.0299 90.7014 98.5671 90.2071 99.4071 89.2899C100.003 88.6385 101 87.5499 102.107 85.9699C102.779 85.0114 103.793 83.5642 104.68 81.4842C105.54 79.4685 105.909 77.7528 106.053 76.9099C106.27 75.6442 106.364 74.3542 106.331 73.0728L106.351 64.4814C106.32 63.8642 106.356 63.2485 106.457 62.6514C106.756 60.8714 107.56 59.6628 107.993 59.0128C108.753 57.8771 109.826 56.7971 111.013 55.9714C111.96 55.3114 112.996 54.7942 114.099 54.4299C108.154 47.6799 102.211 40.9314 96.2685 34.1814C94.9799 34.5399 93.1742 35.2985 91.5799 36.8985C91.1328 37.3471 89.7728 38.7114 89.0971 40.9214C88.8942 41.5828 88.7671 42.2728 88.7199 42.9728C88.7099 45.6899 88.7014 48.4085 88.6928 51.1242C88.7157 52.2871 88.6614 53.4756 88.5299 54.6514C88.4399 55.4485 88.3028 56.6528 87.8885 58.1771C87.7157 58.8142 87.3099 60.1285 86.5414 61.7714C85.5699 63.8442 84.3042 65.8142 82.7771 67.6299C82.2514 68.2528 82.0185 68.4742 81.4542 69.0056C80.9799 69.4528 80.2642 70.1285 78.9271 71.4671C78.0557 72.3385 76.4342 73.9599 74.5257 76.0299C72.7028 78.0056 71.6985 79.0928 70.3871 80.7956C69.9542 81.3571 69.7699 81.6214 69.5142 81.9871C69.2299 82.3942 68.8385 82.9514 67.9028 84.2085C67.6428 84.5571 67.4142 84.8614 67.2085 85.1342C66.4514 86.1414 65.9942 86.7485 65.3871 87.7128L65.3614 87.7542C64.6057 88.9557 64.2257 89.5585 63.8928 90.4085C63.1371 92.3285 63.0514 94.1128 63.0114 94.9699C62.9871 95.5028 62.9871 96.0356 63.0114 96.5571V103.534L63.0099 103.531Z" fill="black"/>
</g>
<g id="Group_7">
<path id="Vector_11" d="M114.604 54.5701V116.324C103.394 119.027 92.1828 121.73 80.9728 124.433C80.9713 121.75 80.9699 119.067 80.9685 116.386C80.9542 115.613 80.9985 114.593 81.2256 113.42C81.3399 112.833 81.6371 111.493 82.3956 109.911C82.7256 109.223 83.1099 108.556 84.3713 106.806C85.7213 104.933 86.8313 103.547 87.2756 102.993C89.3542 100.407 90.5056 98.9744 92.2771 96.9829C93.7313 95.3501 94.6199 94.3529 95.9885 93.0101C97.6413 91.3901 98.2285 90.9972 99.6185 89.4815C100.25 88.7915 101.24 87.7044 102.341 86.1329C103.084 85.0729 104.063 83.6601 104.943 81.5958C105.894 79.3644 106.236 77.5358 106.334 76.9572C106.6 75.4129 106.643 74.0772 106.617 73.0644C106.624 70.2001 106.63 67.3372 106.637 64.4729C106.614 64.0301 106.617 63.4144 106.738 62.6972C107.023 61.0072 107.774 59.8544 108.23 59.1686C108.498 58.7672 109.44 57.4101 111.176 56.2044C112.471 55.3015 113.714 54.8286 114.604 54.5701Z" fill="white"/>
<path id="Vector_12" d="M80.9728 124.719C80.91 124.719 80.8471 124.697 80.7957 124.657C80.7271 124.603 80.6871 124.52 80.6871 124.433L80.6828 116.386C80.6643 115.379 80.7528 114.36 80.9457 113.366C81.18 112.164 81.5928 110.927 82.1386 109.789C82.4914 109.051 82.8986 108.363 84.14 106.64C85.5028 104.75 86.6286 103.344 87.0528 102.816L87.0657 102.8C89.1457 100.213 90.2914 98.7871 92.0643 96.7942C93.5257 95.1528 94.4086 94.1614 95.7886 92.8071C96.4357 92.1728 96.9228 91.7242 97.3514 91.3271C98.03 90.7 98.5671 90.2057 99.4071 89.2885C100.003 88.6371 101 87.5485 102.107 85.9685C102.779 85.01 103.793 83.5628 104.68 81.4828C105.54 79.4671 105.909 77.7514 106.053 76.9085C106.27 75.6428 106.364 74.3528 106.331 73.0714L106.351 64.48C106.32 63.8628 106.356 63.2471 106.457 62.6499C106.756 60.8699 107.56 59.6614 107.993 59.0114C108.753 57.8757 109.826 56.7957 111.013 55.97C112.08 55.2257 113.263 54.6628 114.524 54.2957C114.61 54.27 114.704 54.2871 114.776 54.3414C114.847 54.3957 114.89 54.4799 114.89 54.5699V116.324C114.89 116.456 114.8 116.571 114.671 116.601L81.04 124.71C81.0186 124.716 80.9957 124.719 80.9728 124.719ZM114.319 54.9571C113.253 55.3057 112.253 55.8028 111.339 56.4385C110.207 57.2242 109.187 58.25 108.467 59.3271C108.06 59.9414 107.299 61.0842 107.02 62.7442C106.926 63.3028 106.893 63.88 106.923 64.4571C106.923 64.4628 106.923 64.4671 106.923 64.4728L106.903 73.0642C106.936 74.3757 106.84 75.7028 106.616 77.0042C106.467 77.8714 106.087 79.6371 105.206 81.7071C104.296 83.8414 103.26 85.3185 102.576 86.2957C101.447 87.9057 100.434 89.0114 99.83 89.6728C98.9728 90.6071 98.4286 91.1085 97.74 91.7442C97.3128 92.1371 96.83 92.5842 96.1886 93.2114C94.8214 94.5528 93.9443 95.5371 92.49 97.17C90.7271 99.1514 89.5843 100.573 87.51 103.153L87.4971 103.169C87.0757 103.694 85.9557 105.09 84.6014 106.97C83.3843 108.659 82.99 109.326 82.6514 110.033C82.1257 111.129 81.7286 112.319 81.5043 113.473C81.32 114.429 81.2343 115.406 81.2528 116.379L81.2571 124.069L114.317 116.097V54.9542L114.319 54.9571Z" fill="black"/>
</g>
<g id="Group_8">
<path id="Vector_13" d="M53.4942 113.713C52.817 113.127 51.8756 112.427 50.207 111.182C46.9599 108.759 46.7542 108.593 46.0128 108.116C44.3128 107.024 42.8313 106.243 42.4013 106.019C40.3728 104.962 39.8142 104.866 38.2671 103.902C37.3042 103.3 36.5499 102.83 35.6856 101.986C34.4885 100.814 33.8428 99.6687 33.3271 98.7387C32.8628 97.9015 32.2956 96.8615 31.9342 95.3901C31.6771 94.3373 31.5942 93.3501 31.5513 92.8087C31.4999 92.1644 31.4899 91.6173 31.4913 91.2158C31.4928 90.7544 31.4942 90.293 31.4971 89.8315C31.6713 89.9844 31.9356 90.213 32.2571 90.4901C33.9656 91.9515 34.6099 92.3958 35.4842 93.1787C36.0142 93.653 36.7528 94.363 37.5685 95.3301C42.877 101.457 48.1856 107.586 53.4942 113.713Z" fill="#EBECEE"/>
<path id="Vector_14" d="M53.4942 113.999C53.4285 113.999 53.3614 113.976 53.3071 113.929C52.66 113.369 51.7871 112.717 50.2 111.533L48.8685 110.539C46.7157 108.93 46.49 108.763 45.8585 108.356C44.3257 107.372 42.9514 106.627 42.27 106.272C41.4557 105.847 40.8857 105.582 40.3814 105.346C39.64 105 39.0542 104.727 38.1171 104.143C37.1357 103.53 36.37 103.052 35.4871 102.189C34.2371 100.966 33.5671 99.7573 33.0785 98.8759C32.6385 98.083 32.0357 96.9959 31.6585 95.4573C31.3885 94.353 31.3071 93.3244 31.2685 92.8301C31.2257 92.3001 31.2057 91.7559 31.2071 91.2144C31.2071 90.753 31.21 90.2916 31.2128 89.8287C31.2128 89.7173 31.28 89.6159 31.3814 89.5701C31.4828 89.5244 31.6028 89.5416 31.6871 89.6159C31.8614 89.7687 32.1242 89.9959 32.4457 90.273C33.3057 91.0087 33.9028 91.4916 34.3814 91.8787C34.86 92.2659 35.2385 92.573 35.6771 92.9644C36.4171 93.6259 37.1271 94.3601 37.7885 95.1444L53.7114 113.524C53.81 113.637 53.8028 113.807 53.6971 113.913C53.6414 113.969 53.5685 113.997 53.4942 113.997V113.999ZM31.78 90.4559C31.78 90.7101 31.7785 90.963 31.7771 91.2173C31.7757 91.7444 31.7957 92.2716 31.8357 92.7859C31.8742 93.2659 31.9528 94.263 32.2114 95.3216C32.5714 96.7873 33.1528 97.8344 33.5771 98.6001C34.0485 99.4516 34.6957 100.617 35.8857 101.782C36.7242 102.6 37.4671 103.064 38.4071 103.652C39.3257 104.224 39.8971 104.49 40.6214 104.829C41.1314 105.066 41.7085 105.336 42.5328 105.766C43.2242 106.126 44.6142 106.88 46.1671 107.876C46.8157 108.293 47.0428 108.463 49.21 110.082L50.5414 111.076C50.8385 111.297 51.11 111.5 51.36 111.687L37.3514 95.5173C36.7042 94.7501 36.0128 94.0359 35.2928 93.3916C34.8657 93.0087 34.4928 92.7073 34.0185 92.3244C33.5371 91.9344 32.9371 91.4487 32.07 90.7073C31.9657 90.6187 31.8685 90.5344 31.7785 90.4559H31.78Z" fill="black"/>
</g>
<g id="Group_9">
<path id="Vector_15" d="M30.0245 78.1057C29.4959 77.5157 28.9487 77.1485 28.6473 76.9671C27.4087 76.2199 26.2445 76.1414 25.683 76.1099C24.7659 76.0585 24.0116 76.1999 23.5145 76.3314C17.4387 69.4157 11.363 62.4999 5.28589 55.5857C5.67732 55.4699 6.25732 55.3414 6.96732 55.3371C7.71589 55.3314 8.26732 55.4685 8.7816 55.5985C9.39446 55.7542 10.2616 56.0342 11.243 56.5671C17.503 63.7457 23.7645 70.9257 30.0245 78.1057Z" fill="#EBECEE"/>
<path id="Vector_16" d="M30.0258 78.3914C29.9472 78.3914 29.8687 78.36 29.8129 78.2957C29.3387 77.7671 28.8387 77.4143 28.5015 77.2114C27.2987 76.4857 26.1558 76.4214 25.6687 76.3943C24.9701 76.3557 24.2701 76.4271 23.5887 76.6071C23.4844 76.6343 23.3729 76.6014 23.3015 76.52C17.2258 69.6043 11.1501 62.6886 5.07294 55.7743C5.00865 55.7014 4.98579 55.6 5.01294 55.5057C5.04008 55.4114 5.11294 55.3386 5.20579 55.3114C5.77722 55.1429 6.37008 55.0543 6.96579 55.0514C7.76151 55.0457 8.34008 55.1914 8.85151 55.3214C9.72008 55.5414 10.5701 55.8771 11.3787 56.3157C11.4087 56.3314 11.4358 56.3529 11.4572 56.3786L13.4244 58.6343C19.0287 65.0614 24.6344 71.4886 30.2387 77.9171C30.3415 78.0357 30.3301 78.2143 30.2129 78.3186C30.1587 78.3671 30.0915 78.39 30.0244 78.39L30.0258 78.3914ZM25.2958 75.8129C25.4301 75.8129 25.5644 75.8171 25.7001 75.8243C26.1415 75.8486 27.0772 75.9014 28.1415 76.38C23.0929 70.59 18.0444 64.8 12.9958 59.0114L11.0629 56.7943C10.3087 56.39 9.51865 56.08 8.71294 55.8757C8.23437 55.7543 7.69722 55.6171 6.97151 55.6229C6.58008 55.6257 6.19151 55.6671 5.81151 55.7471C11.7472 62.5014 17.6815 69.2557 23.6172 76.0114C24.1701 75.88 24.7329 75.8129 25.2987 75.8129H25.2958Z" fill="black"/>
</g>
<g id="Group_10">
<path id="Vector_17" d="M23.5142 76.3314C23.5114 96.93 23.5085 117.529 23.5042 138.126C17.4414 131.199 11.3771 124.271 5.31279 117.343C5.30422 96.7571 5.29564 76.1714 5.28564 55.5857C11.3628 62.5 17.4385 69.4157 23.5142 76.3314Z" fill="#CED0D6"/>
<path id="Vector_18" d="M23.5057 138.411C23.4243 138.411 23.3457 138.377 23.29 138.314L5.09857 117.531C5.05286 117.48 5.02714 117.413 5.02714 117.343C5.01857 96.7572 5.01 76.1714 5 55.5857C5 55.4672 5.07429 55.36 5.18429 55.3186C5.29571 55.2772 5.42143 55.3086 5.5 55.3972C11.5771 62.3114 17.6529 69.2272 23.7286 76.1429C23.7743 76.1943 23.8 76.2614 23.8 76.3314V81.48C23.7971 100.363 23.7943 119.244 23.79 138.126C23.79 138.244 23.7157 138.351 23.6043 138.393C23.5714 138.406 23.5371 138.411 23.5043 138.411H23.5057ZM5.59857 117.236L23.2186 137.366C23.2229 118.739 23.2257 100.109 23.2271 81.48V76.4386C17.3429 69.74 11.4571 63.0414 5.57143 56.3429C5.58143 76.6414 5.59 96.9357 5.59857 117.234V117.236Z" fill="black"/>
</g>
<g id="Group_11">
<path id="Vector_19" d="M57.2056 122.839C57.1713 125.233 57.1384 127.626 57.1041 130.019C45.9041 132.721 34.7042 135.424 23.5042 138.126C23.5084 117.529 23.5113 96.9299 23.5141 76.3314C24.0113 76.1999 24.7656 76.0585 25.6827 76.1099C26.2442 76.1414 27.4084 76.2199 28.647 76.9671C28.9484 77.1485 29.4956 77.5157 30.0242 78.1057C30.0627 78.1471 30.0999 78.1899 30.137 78.2342C30.4256 78.5757 30.7041 78.9842 30.927 79.4671C31.4141 80.5257 31.4727 81.5742 31.5113 82.2614C31.5299 82.5999 31.5284 82.8842 31.5213 83.0871C31.5127 85.3357 31.5042 87.5828 31.497 89.8314C31.4942 90.2928 31.4927 90.7542 31.4913 91.2157C31.4899 91.6171 31.4999 92.1642 31.5513 92.8085C31.5942 93.3499 31.677 94.3371 31.9341 95.3899C32.2956 96.8614 32.8627 97.9014 33.327 98.7385C33.8427 99.6685 34.4884 100.814 35.6856 101.986C36.5499 102.83 37.3042 103.3 38.267 103.901C39.8141 104.866 40.3727 104.961 42.4013 106.019C42.8313 106.243 44.3127 107.024 46.0127 108.116C46.7542 108.593 46.9599 108.759 50.207 111.181C51.8756 112.427 52.817 113.127 53.4942 113.713C53.9784 114.133 54.3256 114.493 54.7042 114.953C55.4327 115.836 55.8884 116.607 56.217 117.333C56.6699 118.33 56.8484 119.161 56.9527 119.663C57.1127 120.421 57.2656 121.511 57.2056 122.839Z" fill="white"/>
<path id="Vector_20" d="M23.5042 138.411C23.4414 138.411 23.3785 138.39 23.3271 138.35C23.2585 138.296 23.2185 138.213 23.2185 138.126C23.2228 119.244 23.2256 100.363 23.2285 81.48V76.3314C23.2285 76.2014 23.3171 76.0886 23.4414 76.0557C24.1799 75.86 24.9399 75.7828 25.6985 75.8257C26.2285 75.8557 27.4714 75.9257 28.7942 76.7228C29.1642 76.9457 29.7156 77.3328 30.2371 77.9157C30.2756 77.9571 30.3156 78.0028 30.3556 78.0514C30.6942 78.4528 30.9742 78.8886 31.1856 79.3486C31.6956 80.4557 31.7556 81.5328 31.7956 82.2457C31.8156 82.6157 31.8128 82.9128 31.8056 83.0986V83.67C31.7956 85.7257 31.7885 87.7786 31.7814 89.8343C31.7785 90.2957 31.7771 90.7571 31.7756 91.2186C31.7742 91.7457 31.7942 92.2728 31.8342 92.7871C31.8728 93.2671 31.9514 94.2643 32.2099 95.3228C32.5699 96.7886 33.1514 97.8357 33.5756 98.6014C34.0471 99.4528 34.6942 100.619 35.8842 101.783C36.7228 102.601 37.4656 103.066 38.4056 103.653C39.3242 104.226 39.8956 104.491 40.6199 104.83C41.1299 105.067 41.7071 105.337 42.5314 105.767C43.2228 106.127 44.6128 106.881 46.1657 107.877C46.8142 108.294 47.0414 108.464 49.2085 110.083L50.5399 111.077C52.1371 112.269 53.0156 112.926 53.6785 113.499C54.1614 113.917 54.5214 114.287 54.9228 114.773C55.5971 115.59 56.0899 116.367 56.4756 117.217C56.9514 118.266 57.1328 119.139 57.2314 119.607C57.4528 120.656 57.5399 121.746 57.4899 122.849L57.3885 130.024C57.3871 130.154 57.2971 130.267 57.1699 130.299L56.3971 130.486C45.4542 133.126 34.5128 135.767 23.5699 138.406C23.5485 138.411 23.5256 138.414 23.5028 138.414L23.5042 138.411ZM23.7999 76.5557V81.4814C23.7971 100.243 23.7942 119.004 23.7899 137.764C34.6142 135.153 45.4385 132.541 56.2642 129.929L56.8228 129.794L56.9214 122.836C56.9214 122.836 56.9214 122.83 56.9214 122.827C56.9685 121.771 56.8857 120.727 56.6742 119.723C56.5814 119.276 56.4085 118.443 55.9585 117.451C55.5956 116.649 55.1271 115.913 54.4856 115.136C54.1071 114.676 53.7657 114.326 53.3085 113.93C52.6614 113.371 51.7885 112.719 50.2028 111.534L48.8714 110.54C46.7185 108.931 46.4928 108.764 45.8614 108.357C44.3285 107.373 42.9542 106.629 42.2728 106.273C41.4585 105.849 40.8885 105.583 40.3842 105.347C39.6428 105.001 39.0571 104.729 38.1199 104.144C37.1385 103.531 36.3728 103.053 35.4899 102.19C34.2399 100.967 33.5699 99.7586 33.0814 98.8771C32.6414 98.0843 32.0385 96.9971 31.6614 95.4586C31.3914 94.3543 31.3099 93.3257 31.2714 92.8314C31.2285 92.3014 31.2085 91.7571 31.2099 91.2157C31.2099 90.7543 31.2128 90.2928 31.2156 89.83C31.2228 87.7757 31.2299 85.7214 31.2371 83.6657L31.2399 83.0857C31.2456 82.9028 31.2499 82.6243 31.2299 82.2771C31.1928 81.6071 31.1356 80.5957 30.6714 79.5871C30.4814 79.1743 30.2299 78.7814 29.9228 78.4185C29.8885 78.3771 29.8542 78.3385 29.8185 78.3C29.3414 77.7671 28.8399 77.4143 28.5028 77.2114C27.2999 76.4857 26.1571 76.4214 25.6699 76.3943C25.0442 76.3586 24.4171 76.4128 23.8028 76.5543L23.7999 76.5557Z" fill="black"/>
</g>
</g>
</g>
</g>
</g>
<defs>
<clipPath id="clip0_831_154">
<rect width="120" height="152" fill="white"/>
</clipPath>
</defs>
</svg>
