<svg width="128" height="128" viewBox="0 0 128 128" fill="none" xmlns="http://www.w3.org/2000/svg">
<g id="illustration / deriv / light / ad-search">
<g id="vector">
<g id="Group 23">
<g id="Group">
<g id="Group_2">
<g id="Group_3">
<path id="Vector" d="M78.7062 20.6835V103.477C78.7062 104.856 78.2589 106.117 77.5056 107.14C76.5824 108.394 75.1985 109.282 73.6229 109.566H73.6212C73.0427 109.67 72.4391 109.694 71.8219 109.623L22.3927 105.606C18.9438 105.212 16.3374 102.293 16.3374 98.821V13.7606C16.3374 10.7826 18.6075 8.38643 21.4409 8.09216H21.4527C21.8462 8.05181 22.2514 8.05181 22.6634 8.09721L29.5964 8.86735L34.7521 9.44075L70.8332 11.8807C75.3162 12.3784 78.7079 16.1686 78.7079 20.6801L78.7062 20.6835Z" fill="white"/>
<path id="Vector_2" d="M72.5304 110C72.2816 110 72.0327 109.986 71.7821 109.958L22.3529 105.941C18.7308 105.529 16 102.468 16 98.8211V13.7607C16 10.6616 18.3189 8.08214 21.3961 7.75929C21.4045 7.75929 21.4129 7.75761 21.418 7.75593C21.8451 7.71389 22.2756 7.71725 22.6976 7.76433L70.8674 11.5478C75.527 12.0657 79.0414 15.9921 79.0414 20.6819V103.476C79.0414 104.878 78.6042 106.213 77.7752 107.336C76.7797 108.69 75.3252 109.598 73.6806 109.894C73.6756 109.894 73.6705 109.894 73.6655 109.896C73.2922 109.963 72.9105 109.997 72.5288 109.997L72.5304 110ZM21.4936 8.42518C21.4936 8.42518 21.4785 8.42686 21.4751 8.42854C18.7376 8.71272 16.6726 11.0046 16.6726 13.7624V98.8227C16.6726 102.127 19.1479 104.9 22.4286 105.273L71.8578 109.29C72.4295 109.356 73.003 109.337 73.5595 109.236C73.5646 109.236 73.5696 109.235 73.5747 109.235C75.0444 108.967 76.3442 108.154 77.2337 106.941C77.977 105.932 78.3688 104.735 78.3688 103.479V20.6852C78.3688 16.3385 75.1116 12.6996 70.7934 12.2204L22.6236 8.43694C22.2503 8.39491 21.8703 8.39323 21.492 8.42854L21.4936 8.42518Z" fill="black"/>
</g>
<g id="Group_4">
<path id="Vector_3" d="M88.6505 18.9517V101.745C88.6505 105.085 86.0256 107.748 82.8105 107.922V107.933L73.6174 109.564C75.1947 109.28 76.5786 108.392 77.5001 107.138C78.2535 106.116 78.7007 104.855 78.7007 103.476V20.682C78.7007 16.1688 75.309 12.3803 70.826 11.8826L34.745 9.44265L29.5893 8.86925L22.6563 8.09911C22.2443 8.0537 21.839 8.0537 21.4456 8.0907L33.2501 6.43607H33.2517C33.7982 6.33181 34.37 6.30491 34.9585 6.36881L80.7741 10.1506C85.2588 10.65 88.6488 14.4402 88.6488 18.95L88.6505 18.9517Z" fill="#EBECEE"/>
<path id="Vector_4" d="M73.6195 109.902C73.4564 109.902 73.3152 109.785 73.2883 109.62C73.2597 109.438 73.3808 109.269 73.5607 109.235C75.0354 108.969 76.3403 108.154 77.2332 106.94C77.9764 105.931 78.3682 104.733 78.3682 103.477V20.6837C78.3682 16.3369 75.1111 12.6981 70.7929 12.2189L22.6231 8.43541C22.2481 8.39337 21.863 8.39169 21.4813 8.42868C21.3014 8.4455 21.1366 8.31602 21.1147 8.13273C21.0929 7.95112 21.2207 7.78633 21.4023 7.75943L33.2051 6.1048C33.7936 5.99382 34.3973 5.97028 34.9976 6.03754L80.8132 9.81931C85.4728 10.3389 88.9873 14.2653 88.9873 18.9534V101.747C88.9873 105.182 86.3287 108.024 82.9185 108.255C82.9 108.261 82.8815 108.266 82.8614 108.268L73.6666 109.899C73.6515 109.901 73.6347 109.902 73.6195 109.902ZM24.651 7.98139L70.8652 11.5479C75.5247 12.0658 79.0392 15.9922 79.0392 20.682V103.476C79.0392 104.878 78.602 106.213 77.773 107.336C77.3324 107.937 76.801 108.448 76.2024 108.858L82.6865 107.609C82.7201 107.594 82.7554 107.585 82.7924 107.584C85.8881 107.417 88.313 104.851 88.313 101.742V18.9484C88.313 14.6033 85.0558 10.9644 80.7359 10.4835L34.9203 6.70175C34.3822 6.64289 33.8424 6.66307 33.3144 6.76396C33.3043 6.76565 33.2942 6.76733 33.2841 6.76901L24.6477 7.97971L24.651 7.98139Z" fill="black"/>
</g>
</g>
</g>
<g id="Group 20">
<path id="Vector 376" d="M24.2549 64.895L69.4532 68.5182" stroke="black" stroke-width="0.706248" stroke-linecap="round" stroke-linejoin="round"/>
<path id="Vector 377" d="M24.3813 74.6636L69.5797 78.2868" stroke="black" stroke-width="0.706248" stroke-linecap="round" stroke-linejoin="round"/>
<path id="Vector 378" d="M24.5076 84.4316L69.7059 88.0548" stroke="black" stroke-width="0.706248" stroke-linecap="round" stroke-linejoin="round"/>
<path id="Vector 379" d="M24.6338 94.2002L69.8321 97.8234" stroke="black" stroke-width="0.706248" stroke-linecap="round" stroke-linejoin="round"/>
</g>
<path id="Vector 381 (Stroke)" fill-rule="evenodd" clip-rule="evenodd" d="M35.9394 21.0267C36.1114 21.0295 36.2623 21.142 36.3143 21.306L43.7574 44.8183C43.8241 45.0289 43.7074 45.2536 43.4968 45.3203C43.2862 45.387 43.0614 45.2703 42.9947 45.0597L40.4993 37.1769L31.0589 36.4575L28.5509 43.5181C28.477 43.7262 28.2483 43.8351 28.0401 43.7611C27.8319 43.6872 27.7231 43.4585 27.7971 43.2503L30.4071 35.9025L35.5556 21.2937C35.6128 21.1315 35.7673 21.024 35.9394 21.0267ZM31.335 35.6763L40.2391 36.3547L35.9126 22.6878L31.335 35.6763ZM48.0561 21.6023C48.136 21.5254 48.2442 21.4851 48.355 21.4911L56.3161 21.9184C61.2493 22.1831 65.1357 26.2213 65.2113 31.161L65.3129 37.7992C65.3893 42.789 61.1243 46.7446 56.1544 46.2934L48.6544 45.6124C48.4506 45.5939 48.2937 45.4247 48.2906 45.2202L47.9336 21.8966C47.9319 21.7858 47.9763 21.6792 48.0561 21.6023ZM48.74 22.3129L49.085 44.8482L56.2267 45.4966C60.7233 45.9049 64.5821 42.326 64.513 37.8114L64.4114 31.1732C64.3422 26.654 60.7866 22.9594 56.2733 22.7172L48.74 22.3129Z" fill="black"/>
</g>
<g id="search">
<path id="Vector_5" d="M83.5746 99.999C82.1489 100.03 80.5311 99.8024 78.8961 99.0349C76.0469 97.6995 74.6263 95.4243 74.0838 94.5283C72.3819 91.7196 72.3133 89.0291 72.2961 87.7449C72.2302 82.6375 74.8693 79.1174 75.4188 78.4113C76.3061 77.2755 78.4966 74.5466 82.4452 73.4965C83.5594 73.2011 86.6298 72.4297 89.9159 73.8892C91.0601 74.3984 91.9973 75.0728 92.7612 75.8095C90.9038 75.9875 88.6586 76.5438 86.4431 77.9395C83.1933 79.9874 81.6855 82.7835 81.1763 83.8458C79.1653 88.0283 79.8172 91.9282 80.1635 93.4334C80.9287 96.7387 82.649 98.9575 83.5758 99.9984L83.5746 99.999Z" fill="white" stroke="black" stroke-width="0.545405" stroke-linecap="round" stroke-linejoin="round"/>
<path id="Vector_6" d="M83.5728 99.9979C82.147 100.029 80.5292 99.8012 78.8942 99.0338C76.045 97.6983 74.6244 95.4232 74.0819 94.5272C72.38 91.7185 72.3114 89.028 72.2942 87.7437C72.2283 82.6364 74.8674 79.1163 75.4169 78.4101C76.3042 77.2744 78.4947 74.5454 82.4433 73.4953C83.5575 73.2 86.6279 72.4286 89.914 73.8881C91.0582 74.3973 91.9955 75.0716 92.7593 75.8083C90.9019 75.9864 88.6567 76.5427 86.4412 77.9384C83.1915 79.9863 81.6836 82.7824 81.1744 83.8447C79.1634 88.0272 79.8153 91.927 80.1616 93.4322C80.9269 96.7376 82.6471 98.9563 83.5739 99.9972L83.5728 99.9979Z" fill="#FF444F" stroke="black" stroke-width="0.545405" stroke-linecap="round" stroke-linejoin="round"/>
<path id="Vector_7" d="M93.1335 111.642C91.1301 111.933 89.4306 111.861 88.2552 111.736C87.3466 111.387 86.5192 111.067 85.7695 110.78C85.5207 110.684 85.2792 110.591 85.0492 110.503C84.3563 110.236 83.7442 110.002 83.2182 109.797C83.0418 109.729 82.8742 109.665 82.7186 109.605C82.6398 109.575 82.5647 109.546 82.4904 109.518C82.344 109.461 82.2052 109.409 82.077 109.358C81.0434 108.962 80.9421 108.922 80.8213 108.874C82.8354 109.098 86.5142 109.223 90.5723 107.596C96.3962 105.262 99.322 100.798 100.731 98.5786C101.839 96.8383 106.973 88.7622 104.224 78.9661C103.735 77.2221 101.626 69.7157 94.2659 65.9729C93.8967 65.7862 93.5292 65.6158 93.1637 65.46C95.9576 66.4542 98.7509 67.4472 101.544 68.442C103.455 69.5949 108.392 72.9272 110.899 79.3284C112.701 83.9338 112.399 87.9563 112.251 89.6793C112.169 90.6116 111.731 95.068 108.935 100.025C107.896 101.866 106.064 105.033 102.347 107.757C98.1075 110.863 93.9741 111.522 93.1341 111.643L93.1335 111.642Z" fill="#FF444F" stroke="black" stroke-width="0.545405" stroke-linecap="round" stroke-linejoin="round"/>
<path id="Vector_8" d="M76.0752 117.589C76.6578 117.057 77.0462 116.476 77.267 116.144C77.6092 115.626 77.8447 115.153 78.0029 114.798C79.6054 111.35 79.2095 112.325 80.8113 108.876C80.8113 108.876 80.8131 108.877 80.8187 108.878C82.8328 109.103 86.5116 109.227 90.5697 107.6C96.3936 105.266 99.3194 100.802 100.729 98.5829C101.837 96.8425 106.97 88.7664 104.221 78.9704C103.732 77.2263 101.623 69.7199 94.2633 65.9771C93.8942 65.7904 93.5266 65.62 93.1611 65.4642C93.1555 65.4627 93.1492 65.46 93.1448 65.4578C88.1866 63.3547 83.6399 64.0778 82.4147 64.3065C77.9561 65.1441 74.944 67.4453 73.6149 68.4866C71.728 69.9633 70.4464 71.4905 69.966 72.0875C69.6744 72.4495 68.6766 73.7074 67.5584 75.7495C66.6047 77.4872 65.1581 80.174 64.45 84.0089C64.1735 85.4989 63.6233 88.6364 64.3935 92.5939C64.5528 93.4152 65.1091 96.0287 66.7492 99.0495C67.8063 100.998 68.9712 102.484 69.9093 103.528C68.3045 106.998 68.6992 106.043 67.0956 109.513C66.9132 109.893 66.6923 110.426 66.5317 111.089C66.4184 111.553 66.1846 112.552 66.3553 113.83C66.5658 115.413 67.2696 116.493 67.4605 116.772C67.8569 117.352 68.5825 118.418 69.9879 118.954C70.1287 119.01 70.2688 119.054 70.4071 119.089C70.4145 119.091 70.4208 119.093 70.4283 119.095C71.5826 119.407 72.5851 119.185 73.1767 119.056C74.8412 118.689 75.8695 117.775 76.0745 117.588L76.0752 117.589ZM95.3682 91.7744C94.7973 93.0298 92.9961 96.8423 88.7079 98.7986C88.5576 98.8681 88.4021 98.9342 88.2429 98.9994C87.718 99.2111 85.9036 99.9517 83.5736 100.001L83.5729 99.9999C82.1472 100.031 80.5294 99.8033 78.8944 99.0358C76.0452 97.7004 74.6246 95.4252 74.0821 94.5292C72.3802 91.7205 72.3116 89.03 72.2944 87.7458C72.2285 82.6385 74.8676 79.1184 75.4171 78.4122C76.3044 77.2764 78.4949 74.5475 82.4435 73.4974C83.5577 73.202 86.6281 72.4307 89.9142 73.8901C91.0584 74.3993 91.9956 75.0737 92.7595 75.8104C94.1211 77.1135 94.9416 78.611 95.4293 79.7039C95.6376 80.171 95.787 80.5634 95.8869 80.8347C97.7998 85.9368 95.9467 90.502 95.3694 91.7737L95.3682 91.7744Z" fill="#FF7E88" stroke="black" stroke-width="0.545405" stroke-linecap="round" stroke-linejoin="round"/>
<path id="Vector_9" d="M82.1668 121.295C80.578 122.131 79.009 122.034 78.2842 121.938C75.6665 120.99 73.0495 120.043 70.4312 119.094C71.5855 119.405 72.588 119.184 73.1796 119.055C74.8441 118.688 75.8724 117.774 76.0774 117.587C76.66 117.055 77.0485 116.473 77.2692 116.141C77.6114 115.624 77.8469 115.151 78.0052 114.795C79.6076 111.348 79.2117 112.323 80.8135 108.874C80.8135 108.874 80.8153 108.875 80.8209 108.876C80.9417 108.924 81.043 108.963 82.0766 109.36C82.2061 109.41 82.3448 109.462 82.49 109.52C82.5651 109.549 82.6406 109.576 82.7182 109.607C82.8739 109.667 83.0414 109.731 83.2178 109.799C83.745 110.003 84.3559 110.237 85.0488 110.505C85.2807 110.593 85.521 110.687 85.7692 110.782C86.5176 111.069 87.3462 111.389 88.2548 111.738C86.6479 115.225 87.0393 114.285 85.4313 117.772C85.2343 118.165 84.9342 118.692 84.4893 119.258C84.1019 119.746 83.3646 120.661 82.1656 121.295L82.1668 121.295Z" fill="#FF444F" stroke="black" stroke-width="0.545405" stroke-linecap="round" stroke-linejoin="round"/>
<path id="Vector_10" d="M83.5728 99.9979C82.147 100.029 80.5292 99.8012 78.8942 99.0338C76.045 97.6983 74.6244 95.4232 74.0819 94.5272C72.38 91.7185 72.3114 89.028 72.2942 87.7437C72.2283 82.6364 74.8674 79.1163 75.4169 78.4101C76.3042 77.2744 78.4947 74.5454 82.4433 73.4953C83.5575 73.2 86.6279 72.4286 89.914 73.8881C91.0582 74.3973 91.9955 75.0716 92.7593 75.8083C90.9019 75.9864 88.6567 76.5427 86.4412 77.9384C83.1915 79.9863 81.6836 82.7824 81.1744 83.8447C79.1634 88.0272 79.8153 91.927 80.1616 93.4322C80.9269 96.7376 82.6471 98.9563 83.5739 99.9972L83.5728 99.9979Z" stroke="black" stroke-width="0.545405" stroke-linecap="round" stroke-linejoin="round"/>
</g>
</g>
</g>
</svg>
