<svg width="120" height="152" viewBox="0 0 120 152" fill="none" xmlns="http://www.w3.org/2000/svg">
<g id="illustration / deriv / light / exposure">
<g id="Exposure">
<g id="Group">
<g id="Group_2">
<path id="Vector" d="M5.42578 85.4859C3.7472 80.1145 2.84863 74.4002 2.84863 68.473C2.84863 67.1116 2.89435 65.7645 2.99435 64.4302C3.3772 64.8987 3.79435 65.3416 4.25006 65.7645C3.54292 71.6573 3.8072 78.2187 5.42578 85.4859Z" fill="white"/>
<path id="Vector_2" d="M5.42572 85.7715C5.30429 85.7715 5.19144 85.693 5.15287 85.5715C3.43429 80.0715 2.56287 74.3187 2.56287 68.4744C2.56287 67.083 2.61144 65.7158 2.70858 64.4101C2.71715 64.293 2.79572 64.1944 2.90715 64.1587C3.01858 64.123 3.14001 64.1587 3.21429 64.2501C3.59144 64.713 3.99429 65.1401 4.44287 65.5558C4.51001 65.6187 4.54287 65.7087 4.53287 65.7987C3.79001 71.9944 4.18429 78.5972 5.70429 85.423C5.73715 85.573 5.64715 85.7215 5.49858 85.7615C5.4743 85.7687 5.44858 85.7715 5.42429 85.7715H5.42572ZM3.23287 65.1444C3.16715 66.2244 3.13429 67.3401 3.13429 68.473C3.13429 71.5958 3.38572 74.6915 3.88429 77.7358C3.48144 73.6601 3.50144 69.6915 3.94858 65.8744C3.69715 65.6358 3.46001 65.3944 3.23287 65.1444Z" fill="black"/>
</g>
<g id="Group_3">
<path id="Vector_3" d="M103.932 31.9316C101.5 29.6458 99.0359 27.6573 96.5787 25.9387C96.5459 25.423 96.493 24.9216 96.4001 24.4187C99.1416 26.6787 101.666 29.1958 103.932 31.9301V31.9316Z" fill="white"/>
<path id="Vector_4" d="M103.931 32.2174C103.861 32.2174 103.79 32.1917 103.736 32.1402C101.4 29.9445 98.9372 27.9374 96.4144 26.1745C96.3429 26.1245 96.2986 26.046 96.2929 25.9588C96.2572 25.3931 96.2015 24.9217 96.1186 24.4731C96.0972 24.3545 96.1515 24.236 96.2544 24.1745C96.3572 24.1131 96.4886 24.1245 96.5815 24.2002C99.3315 26.4659 101.879 29.006 104.151 31.7502C104.247 31.866 104.237 32.0374 104.127 32.1402C104.073 32.1917 104.001 32.2174 103.931 32.2174ZM96.8544 25.7845C98.0629 26.6331 99.2572 27.5374 100.43 28.4902C99.2672 27.3145 98.0529 26.1888 96.7929 25.1217C96.8172 25.3317 96.8372 25.5502 96.8544 25.7845Z" fill="black"/>
</g>
<g id="Group_4">
<path id="Vector_5" d="M117.151 68.4744C117.151 72.5372 116.728 76.5086 115.916 80.3329C114.448 83.9529 112.097 87.6529 108.978 91.2672C109.124 89.6615 109.177 88.0372 109.104 86.3844C109.097 86.0801 109.084 85.7701 109.064 85.4601C109.019 84.5743 108.933 83.6829 108.807 82.7844C108.774 82.5072 108.734 82.2229 108.689 81.9386C108.49 80.6244 108.213 79.2958 107.863 77.9544C107.803 77.6972 107.731 77.4386 107.658 77.1815C107.566 76.8444 107.467 76.5072 107.361 76.1701C107.249 75.7929 107.13 75.4172 106.999 75.0401C106.893 74.7229 106.787 74.4058 106.661 74.0886C106.477 73.5601 106.271 73.0244 106.054 72.4901C105.909 72.1329 105.764 71.7829 105.606 71.4258C105.434 71.0158 105.249 70.6129 105.057 70.2029C104.873 69.8001 104.674 69.3901 104.469 68.9801C111.821 61.0986 115.184 53.1572 112.931 46.8872C115.587 53.3744 117.074 60.4644 117.147 67.8901V67.8972C117.154 68.0886 117.154 68.2801 117.154 68.4715L117.151 68.4744Z" fill="#EBECEE"/>
<path id="Vector_6" d="M108.979 91.5529C108.941 91.5529 108.903 91.5458 108.867 91.5301C108.753 91.4815 108.683 91.3643 108.694 91.2415C108.847 89.5529 108.889 87.9686 108.819 86.3972C108.811 86.0901 108.799 85.7829 108.779 85.4786C108.733 84.6029 108.647 83.7115 108.523 82.8243C108.489 82.5415 108.45 82.2615 108.404 81.9843C108.211 80.7015 107.934 79.3715 107.584 78.0272C107.524 77.7686 107.451 77.5101 107.381 77.2601C107.29 76.9258 107.19 76.5886 107.087 76.2572C106.961 75.8343 106.843 75.4686 106.727 75.1372C106.623 74.8243 106.517 74.5058 106.394 74.1958C106.216 73.6872 106.013 73.1529 105.787 72.6001C105.66 72.2886 105.507 71.9186 105.341 71.5443C105.163 71.1201 104.974 70.7086 104.796 70.3272C104.623 69.9501 104.431 69.5529 104.211 69.1115C104.159 69.0043 104.177 68.8758 104.259 68.7886C111.819 60.6858 114.801 52.9429 112.661 46.9872C112.609 46.8415 112.683 46.6801 112.829 46.6243C112.973 46.5686 113.137 46.6386 113.196 46.7829C115.936 53.4743 117.36 60.5772 117.433 67.8915C117.44 68.0872 117.44 68.2843 117.44 68.4758C117.44 72.5058 117.023 76.5158 116.199 80.3943C116.196 80.4101 116.19 80.4272 116.184 80.4429C114.706 84.0929 112.356 87.7986 109.199 91.4558C109.143 91.5201 109.063 91.5543 108.981 91.5543L108.979 91.5529ZM104.81 69.0315C104.997 69.4086 105.161 69.7543 105.314 70.0843C105.494 70.4701 105.687 70.8872 105.867 71.3158C106.034 71.6915 106.189 72.0658 106.317 72.3815C106.546 72.9443 106.753 73.4872 106.93 73.9943C107.054 74.3086 107.163 74.6343 107.269 74.9501C107.387 75.2872 107.507 75.6615 107.634 76.0886C107.739 76.4229 107.84 76.7658 107.933 77.1058C108.004 77.3601 108.08 77.6258 108.14 77.8901C108.494 79.2458 108.774 80.5972 108.97 81.8958C109.016 82.1772 109.056 82.4658 109.09 82.7501C109.216 83.6472 109.303 84.5558 109.349 85.4443C109.369 85.7543 109.381 86.0686 109.389 86.3786C109.446 87.6915 109.429 89.0186 109.333 90.4072C112.156 87.0243 114.276 83.6101 115.64 80.2501C116.453 76.4186 116.864 72.4572 116.864 68.4743C116.864 68.2886 116.864 68.0958 116.859 67.9086C116.859 67.9058 116.859 67.8958 116.859 67.8929C116.799 61.8343 115.801 55.9215 113.887 50.2715C114.177 55.7801 111.05 62.2986 104.81 69.0329V69.0315Z" fill="black"/>
</g>
<g id="Group_5">
<path id="Vector_7" d="M115.919 80.3344C114.287 88.1044 111.063 95.2859 106.623 101.542C107.831 98.2444 108.644 94.823 108.981 91.2744V91.2673C112.1 87.653 114.451 83.953 115.919 80.333V80.3344Z" fill="#EBECEE"/>
<path id="Vector_8" d="M106.623 101.829C106.577 101.829 106.533 101.819 106.49 101.796C106.363 101.729 106.306 101.579 106.354 101.444C107.584 98.0901 108.373 94.6615 108.696 91.2529C108.7 91.1915 108.724 91.1286 108.764 91.0829C111.88 87.4715 114.197 83.8201 115.653 80.2286C115.709 80.0915 115.86 80.0201 116.002 80.0629C116.143 80.1058 116.229 80.2501 116.197 80.3944C114.584 88.0744 111.441 95.2458 106.854 101.709C106.799 101.786 106.711 101.829 106.621 101.829H106.623ZM109.257 91.3858C108.989 94.1472 108.422 96.9201 107.564 99.6558C110.944 94.5144 113.43 88.9458 114.982 83.0501C113.553 85.8258 111.636 88.6186 109.256 91.3844L109.257 91.3858Z" fill="black"/>
</g>
<g id="Group_6">
<path id="Vector_9" d="M52.3157 125.116C44.7643 124.104 37.6814 121.614 31.3657 117.947C34.92 119.017 38.9772 119.619 43.39 119.732C46.1586 121.952 49.1571 123.722 52.3157 125.116Z" fill="#EBECEE"/>
<path id="Vector_10" d="M52.3157 125.401C52.3028 125.401 52.29 125.401 52.2771 125.399C44.8214 124.4 37.7371 121.977 31.2214 118.194C31.0957 118.121 31.0457 117.967 31.1028 117.833C31.16 117.7 31.3086 117.631 31.4471 117.673C34.98 118.737 39 119.333 43.3957 119.444C43.4585 119.446 43.5186 119.469 43.5671 119.507C46.2071 121.624 49.1886 123.423 52.43 124.853C52.56 124.91 52.6286 125.054 52.59 125.191C52.5543 125.316 52.4414 125.4 52.3157 125.4V125.401ZM33.5314 118.82C38.8386 121.621 44.5 123.539 50.4128 124.539C47.8414 123.259 45.4514 121.741 43.2857 120.014C39.7814 119.92 36.5114 119.519 33.5314 118.821V118.82Z" fill="black"/>
</g>
<g id="Group_7">
<path id="Vector_11" d="M108.981 91.2759C108.644 94.823 107.831 98.2459 106.623 101.543C106.616 101.55 106.616 101.556 106.61 101.563C100.651 109.94 92.4915 116.646 82.9715 120.822L79.1658 112.087C91.7972 106.643 102.183 99.1573 108.981 91.2759Z" fill="#EBECEE"/>
<path id="Vector_12" d="M82.97 121.107C82.9343 121.107 82.8986 121.1 82.8658 121.087C82.7958 121.06 82.7386 121.004 82.7086 120.936L78.9029 112.202C78.8729 112.132 78.8715 112.053 78.8986 111.983C78.9272 111.913 78.9815 111.856 79.0515 111.826C91.1915 106.594 101.744 99.2301 108.764 91.0901C108.846 90.9958 108.979 90.9658 109.093 91.0144C109.207 91.063 109.277 91.1801 109.266 91.3044C108.937 94.763 108.139 98.2416 106.891 101.643C106.883 101.664 106.873 101.684 106.86 101.704C106.854 101.714 106.847 101.726 106.837 101.739C100.794 110.232 92.5815 116.92 83.0858 121.084C83.0486 121.1 83.01 121.109 82.9715 121.109L82.97 121.107ZM79.5415 112.236L83.1172 120.444C92.4043 116.314 100.439 109.739 106.366 101.412C107.481 98.3601 108.233 95.2473 108.6 92.143C101.583 100.017 91.3086 107.124 79.54 112.236H79.5415Z" fill="black"/>
</g>
<g id="Group_8">
<path id="Vector_13" d="M82.97 120.822V120.829C75.94 123.92 68.1714 125.632 60.0057 125.632C57.4028 125.632 54.8328 125.46 52.3214 125.116H52.3143C49.1557 123.722 46.1571 121.952 43.3885 119.732C53.6085 120.009 65.7328 117.697 77.9157 112.623C78.3314 112.452 78.7486 112.273 79.1643 112.087L82.97 120.822Z" fill="#EBECEE"/>
<path id="Vector_14" d="M60.0057 125.916C57.3957 125.916 54.8 125.742 52.2914 125.399C52.26 125.396 52.2271 125.387 52.2 125.376C48.9128 123.924 45.8885 122.1 43.2114 119.953C43.1157 119.876 43.08 119.747 43.1214 119.632C43.1643 119.516 43.2757 119.44 43.3971 119.444C53.9257 119.73 66.1471 117.213 77.8057 112.357C78.2185 112.187 78.6371 112.007 79.0485 111.824C79.1185 111.793 79.1971 111.792 79.2685 111.819C79.34 111.846 79.3971 111.902 79.4271 111.972L83.2328 120.706C83.2485 120.742 83.2571 120.78 83.2571 120.82V120.827C83.2571 120.94 83.19 121.043 83.0871 121.089C75.8043 124.292 68.04 125.916 60.0071 125.916H60.0057ZM52.3914 124.836C54.8685 125.173 57.43 125.344 60.0057 125.344C67.8628 125.344 75.4628 123.774 82.5971 120.679L79.0185 112.464C78.6885 112.609 78.3557 112.75 78.0257 112.886C66.8971 117.522 55.25 120.037 45.0271 120.039C44.7628 120.039 44.5014 120.037 44.24 120.033C46.6985 121.914 49.4371 123.529 52.3914 124.836Z" fill="black"/>
</g>
<g id="Group_9">
<path id="Vector_15" d="M30.1472 100.576C19.4972 100.483 11.3772 97.6615 7.9758 92.1587C7.46723 91.0558 6.99866 89.9387 6.56866 88.7958C6.15866 87.7258 5.78294 86.6416 5.43866 85.5387C5.43152 85.5187 5.43152 85.5058 5.4258 85.4858C3.80723 78.2187 3.54294 71.6587 4.25009 65.7644C6.49009 67.8787 9.48866 69.4901 13.0629 70.5744C16.2801 71.5715 19.9729 72.133 24.0029 72.273H24.0101C24.1815 75.3258 24.5315 78.5101 25.0801 81.813C26.0644 87.693 27.6901 93.9501 30.1472 100.576Z" fill="white"/>
<path id="Vector_16" d="M30.1472 100.861H30.1444C19.0415 100.764 11.0815 97.7271 7.7315 92.3086C7.72578 92.2986 7.72007 92.2886 7.71435 92.2786C7.19578 91.1543 6.72007 90.0172 6.29864 88.8972C5.88578 87.8186 5.50435 86.7172 5.16292 85.6243C5.15721 85.6072 5.15292 85.5886 5.14864 85.5686C5.14578 85.5586 5.14578 85.5572 5.14292 85.5486C3.60864 78.6586 3.2115 71.9914 3.9615 65.7314C3.97435 65.6243 4.04578 65.5329 4.14721 65.4972C4.24864 65.46 4.3615 65.4843 4.44007 65.5586C6.6215 67.6172 9.54864 69.2143 13.1401 70.3029C16.2986 71.2814 19.9544 71.8486 24.0072 71.9886C24.1544 71.9943 24.2815 72.11 24.2886 72.2586C24.4629 75.3529 24.8215 78.5514 25.3558 81.7672C26.3858 87.9172 28.0858 94.2129 30.4086 100.477C30.4415 100.566 30.4286 100.664 30.3744 100.74C30.3215 100.816 30.2329 100.861 30.1401 100.861H30.1472ZM8.22721 92.0229C11.4344 97.1929 19.0629 100.12 29.7358 100.284C27.4729 94.1143 25.8129 87.9186 24.7986 81.8586C24.2758 78.7129 23.9201 75.5814 23.7401 72.5472C19.7372 72.3914 16.1172 71.8186 12.9786 70.8457C9.52578 69.7986 6.66578 68.2886 4.47007 66.3514C3.81435 72.3829 4.22864 78.7929 5.7015 85.4114C5.70578 85.4272 5.70864 85.44 5.7115 85.4543C6.04721 86.5329 6.42578 87.6229 6.83435 88.6914C7.24864 89.7957 7.71721 90.9143 8.22721 92.0214V92.0229Z" fill="black"/>
</g>
<g id="Group_10">
<path id="Vector_17" d="M43.3872 119.729C38.9744 119.616 34.9172 119.016 31.3629 117.944C31.3558 117.944 31.3501 117.944 31.3429 117.937C26.1244 114.904 21.4329 111.073 17.4358 106.613C13.5972 102.332 10.3929 97.4629 7.97437 92.1572C11.3772 97.6601 19.4958 100.482 30.1458 100.574C30.2058 100.753 30.2772 100.937 30.3444 101.116C33.4358 109.354 37.9687 115.393 43.3858 119.727L43.3872 119.729Z" fill="#EBECEE"/>
<path id="Vector_18" d="M43.3872 120.014C43.3872 120.014 43.3829 120.014 43.3801 120.014C38.9429 119.901 34.8801 119.3 31.3043 118.226C31.2558 118.217 31.2158 118.199 31.1858 118.177C25.9629 115.14 21.2658 111.314 17.2243 106.806C13.3286 102.461 10.13 97.5729 7.71576 92.2786C7.65291 92.1414 7.70862 91.9786 7.84148 91.9086C7.97434 91.8371 8.14005 91.8814 8.21862 92.01C11.4615 97.2557 19.2501 100.197 30.1501 100.291C30.2715 100.291 30.3801 100.371 30.4186 100.487C30.4601 100.613 30.5086 100.741 30.5572 100.867L30.6143 101.02C33.5058 108.724 37.8643 114.946 43.5672 119.507C43.6629 119.584 43.6986 119.713 43.6572 119.829C43.6158 119.941 43.5086 120.016 43.3886 120.016L43.3872 120.014ZM31.4601 117.676C34.7629 118.669 38.4915 119.253 42.5529 119.416C37.0886 114.841 32.8943 108.724 30.0772 101.219L30.0215 101.069C29.9958 101 29.9686 100.93 29.9443 100.86C20.4843 100.747 13.3272 98.4871 9.39148 94.4286C11.6143 98.7571 14.3843 102.783 17.6486 106.424C21.6472 110.886 26.2943 114.671 31.4601 117.676Z" fill="black"/>
</g>
<g id="Group_11">
<path id="Vector_19" d="M2.99423 64.4299C3.91851 51.1113 9.41565 39.0542 17.9314 29.8042C15.1428 33.4442 14.0671 36.9856 15.2957 39.7999C15.3157 39.8456 15.3414 39.8985 15.3614 39.9456C15.0242 40.3613 14.6871 40.7842 14.3571 41.2142C14.0328 41.6371 13.7099 42.0671 13.3985 42.5085C13.1014 42.9185 12.8042 43.3342 12.5271 43.7571C12.4671 43.8299 12.4214 43.9028 12.3757 43.9813C12.1185 44.3585 11.8671 44.7342 11.6228 45.1242C11.2985 45.6399 10.9757 46.1613 10.6642 46.6971C10.4071 47.1328 10.1557 47.5828 9.90423 48.0385C9.6328 48.5271 9.37565 49.0299 9.12423 49.5385C9.05851 49.6642 8.9928 49.7956 8.9328 49.9213C8.49708 50.7999 8.07994 51.7056 7.69708 52.6371C7.58423 52.9013 7.4728 53.1656 7.36708 53.4371C7.35423 53.4699 7.34137 53.5028 7.32708 53.5356C7.18137 53.8985 7.0428 54.2628 6.91137 54.6256C6.85851 54.7713 6.80565 54.9156 6.7528 55.0613C6.63994 55.3856 6.52851 55.7156 6.41565 56.0456C6.28423 56.4413 6.15851 56.8385 6.0328 57.2413C5.88708 57.7171 5.74851 58.1999 5.61708 58.6885C5.55708 58.9128 5.49851 59.1371 5.43851 59.3628C5.38565 59.5871 5.32565 59.8113 5.2728 60.0428C5.15994 60.5056 5.05423 60.9671 4.95565 61.4371C4.75137 62.4085 4.57851 63.3999 4.42708 64.4099C4.39423 64.6213 4.36708 64.8328 4.34137 65.0442C4.30851 65.2813 4.27565 65.5199 4.24851 65.7642C3.7928 65.3413 3.37708 64.8985 2.9928 64.4299H2.99423Z" fill="white"/>
<path id="Vector_20" d="M4.24995 66.05C4.17852 66.05 4.10995 66.0243 4.05566 65.9743C3.58709 65.54 3.16852 65.0943 2.7728 64.6115C2.72709 64.5557 2.70423 64.4829 2.70852 64.4115C3.16423 57.8486 4.72709 51.4786 7.35423 45.4772C9.90423 39.6515 13.3928 34.3129 17.7214 29.6115C17.8242 29.4986 17.9985 29.4886 18.1157 29.5857C18.2328 29.6843 18.2514 29.8572 18.1585 29.9786C15.3085 33.7 14.4085 37.0572 15.5571 39.6872C15.5671 39.7086 15.5771 39.7315 15.5871 39.7529C15.5999 39.78 15.6128 39.8086 15.6242 39.8343C15.6657 39.9315 15.6499 40.0443 15.5842 40.1272C15.1971 40.6058 14.8785 41.0072 14.5842 41.39C14.2785 41.7886 13.9528 42.2215 13.6342 42.6743C13.3485 43.0686 13.0485 43.4872 12.7671 43.9157C12.7614 43.9243 12.7557 43.9315 12.7499 43.94C12.7085 43.9915 12.6714 44.0458 12.6242 44.1272C12.6214 44.1329 12.6171 44.1386 12.6128 44.1443C12.3171 44.5757 12.0799 44.9357 11.8657 45.2772C11.5571 45.7686 11.2285 46.2986 10.9128 46.8415C10.6385 47.3057 10.3771 47.7772 10.1557 48.1772C9.91423 48.6129 9.66137 49.0986 9.38137 49.6657C9.31423 49.7943 9.24995 49.9229 9.19137 50.0443C8.72566 50.9829 8.32423 51.8643 7.96137 52.7457C7.84995 53.0072 7.73709 53.2729 7.6328 53.54L7.5928 53.6415C7.44852 54.0015 7.30995 54.3643 7.17995 54.7229L7.02138 55.1586C6.91138 55.4772 6.79852 55.8072 6.68709 56.1372C6.5428 56.5715 6.40709 57 6.30566 57.3257C6.1628 57.7943 6.0228 58.2786 5.8928 58.7615L5.71423 59.4343C5.6928 59.5272 5.66709 59.6286 5.6428 59.73C5.61137 59.8543 5.58137 59.9786 5.55137 60.1057C5.43423 60.59 5.33137 61.0429 5.23566 61.4957C5.04566 62.3957 4.87423 63.3629 4.70995 64.4529C4.67709 64.6615 4.65138 64.8743 4.62566 65.08C4.5928 65.32 4.55995 65.5572 4.53423 65.7957C4.5228 65.9029 4.45137 65.9943 4.34995 66.0329C4.31709 66.0443 4.28423 66.0515 4.24995 66.0515V66.05ZM3.28709 64.3372C3.52566 64.6243 3.7728 64.8972 4.03709 65.1629C4.04423 65.1129 4.05137 65.0615 4.05852 65.0115C4.08566 64.7986 4.1128 64.5815 4.14566 64.3657C4.31137 63.2672 4.48423 62.2886 4.67709 61.3772C4.77423 60.92 4.87852 60.46 4.99566 59.9743C5.02423 59.8472 5.05566 59.72 5.08852 59.5929C5.1128 59.4943 5.13709 59.3943 5.16137 59.2957L5.34137 58.6143C5.47423 58.1229 5.61566 57.6329 5.75995 57.1572C5.8628 56.8272 5.99852 56.3943 6.14566 55.9543C6.25852 55.6215 6.37137 55.2915 6.48423 54.9672L6.64423 54.5272C6.77709 54.1629 6.91709 53.7929 7.06423 53.4286L7.10423 53.3286C7.20995 53.0557 7.32566 52.7857 7.43709 52.5243C7.80423 51.6329 8.20995 50.7386 8.67995 49.7943C8.73852 49.67 8.80709 49.5343 8.87423 49.4057C9.15423 48.8372 9.41137 48.3429 9.65709 47.9C9.87852 47.4972 10.1442 47.0215 10.4214 46.5515C10.7399 46.0029 11.0714 45.4686 11.3828 44.9729C11.5999 44.6272 11.8385 44.2629 12.1357 43.8286C12.1771 43.7572 12.2285 43.6743 12.2985 43.5886C12.5842 43.1543 12.8857 42.7329 13.1699 42.3415C13.4914 41.8829 13.8228 41.4443 14.1328 41.04C14.4028 40.69 14.6899 40.3257 15.0314 39.9029C14.1557 37.8886 14.3728 35.5086 15.6457 32.8986C12.4985 36.81 9.89423 41.1043 7.87995 45.7043C5.29423 51.61 3.74995 57.8786 3.28852 64.3357L3.28709 64.3372Z" fill="black"/>
</g>
<g id="Group_12">
<path id="Vector_21" d="M24.2214 59.9518C23.8586 63.7975 23.7529 67.906 24.0029 72.2732C19.9729 72.1346 16.28 71.5732 13.0629 70.5746C9.48857 69.4918 6.48857 67.8789 4.25 65.7646C4.27571 65.5203 4.31 65.2818 4.34286 65.0446C4.37 64.8332 4.39571 64.6218 4.42857 64.4103C4.58 63.3989 4.75286 62.4089 4.95714 61.4375C5.05571 60.9689 5.16143 60.506 5.27429 60.0432C5.32714 59.8118 5.38714 59.5875 5.44 59.3632C5.5 59.1389 5.55857 58.9146 5.61857 58.6889C5.75 58.2003 5.89 57.7175 6.03429 57.2418C6.16 56.8389 6.28571 56.4418 6.41714 56.046C6.53 55.716 6.64143 55.386 6.75429 55.0618C6.80714 54.916 6.86 54.7718 6.91286 54.626C7.04429 54.2632 7.18429 53.8989 7.32857 53.536C7.34143 53.5032 7.35429 53.4703 7.36857 53.4375C7.47429 53.166 7.58714 52.9018 7.69857 52.6375C8.08143 51.706 8.49857 50.8003 8.93429 49.9218C8.99429 49.796 9.06 49.6646 9.12571 49.5389C9.37714 49.0303 9.63428 48.5275 9.90571 48.0389C10.1571 47.5832 10.4071 47.1332 10.6657 46.6975C10.9757 46.1618 11.3 45.6403 11.6243 45.1246C11.8686 44.7418 12.12 44.3589 12.3771 43.9818C12.4229 43.9032 12.47 43.8303 12.5286 43.7575C12.8129 43.3346 13.1029 42.9189 13.4 42.5089C13.71 42.066 14.0343 41.6375 14.3586 41.2146C14.6886 40.7846 15.0257 40.3618 15.3629 39.946C16.8886 43.216 21.3157 44.8489 27.2414 44.8218C25.86 49.2746 24.7643 54.3289 24.2229 59.9518H24.2214Z" fill="white"/>
<path id="Vector_22" d="M24.0028 72.5588C24.0028 72.5588 23.9957 72.5588 23.9928 72.5588C19.8886 72.4174 16.1828 71.8416 12.9771 70.8488C9.30142 69.7345 6.29856 68.0945 4.05285 65.9745C3.98713 65.9131 3.9557 65.8245 3.96428 65.7359C3.99142 65.4888 4.02428 65.2474 4.05713 65.0131C4.08428 64.8002 4.11142 64.5831 4.14428 64.3674C4.30999 63.2688 4.48285 62.2902 4.6757 61.3788C4.77285 60.9216 4.87713 60.4616 4.99428 59.9759C5.02285 59.8488 5.05428 59.7216 5.08713 59.5945C5.11142 59.4959 5.1357 59.3959 5.15999 59.2974L5.33999 58.6159C5.47285 58.1245 5.61428 57.6345 5.75856 57.1588C5.86142 56.8288 5.99713 56.3959 6.14428 55.9559C6.25713 55.6231 6.36999 55.2931 6.48285 54.9688L6.64285 54.5288C6.7757 54.1645 6.9157 53.7945 7.06285 53.4302L7.10285 53.3302C7.20856 53.0574 7.32428 52.7874 7.4357 52.5259C7.80285 51.6345 8.20856 50.7402 8.67856 49.7959C8.73713 49.6716 8.8057 49.5359 8.87285 49.4074C9.15285 48.8388 9.40999 48.3445 9.6557 47.9016C9.87713 47.4988 10.1428 47.0231 10.42 46.5531C10.7386 46.0045 11.07 45.4702 11.3814 44.9745C11.65 44.5545 11.8957 44.1802 12.1343 43.8302C12.1757 43.7588 12.2286 43.6745 12.2971 43.5888C12.58 43.1674 12.8728 42.7488 13.1686 42.3416C13.49 41.8831 13.8214 41.4445 14.1314 41.0402C14.43 40.6531 14.75 40.2474 15.14 39.7659C15.2014 39.6888 15.2986 39.6502 15.3971 39.6616C15.4943 39.6731 15.58 39.7345 15.6214 39.8245C17.04 42.8645 21.1128 44.5359 27.0957 44.5359C27.1443 44.5359 27.1914 44.5359 27.24 44.5359C27.33 44.5388 27.4171 44.5788 27.4714 44.6516C27.5257 44.7245 27.5414 44.8188 27.5143 44.9059C26.0171 49.7345 25.0057 54.8059 24.5071 59.9774C24.1257 64.0074 24.0528 68.1374 24.29 72.2559C24.2943 72.3359 24.2657 72.4145 24.2086 72.4716C24.1543 72.5274 24.0814 72.5574 24.0043 72.5574L24.0028 72.5588ZM4.54999 65.6545C6.71999 67.6674 9.61142 69.2302 13.1457 70.3016C16.2228 71.2559 19.7714 71.8188 23.7014 71.9759C23.4843 67.9331 23.5643 63.8802 23.9371 59.9245C24.4271 54.8445 25.4071 49.8631 26.8543 45.1074C21.0257 45.0631 16.9586 43.4259 15.3086 40.4688C15.0414 40.8031 14.8057 41.1016 14.5843 41.3888C14.2786 41.7874 13.9528 42.2202 13.6343 42.6731C13.3386 43.0802 13.0471 43.4988 12.7657 43.9174C12.76 43.9245 12.7557 43.9316 12.75 43.9388C12.7086 43.9902 12.6714 44.0445 12.6243 44.1259C12.6214 44.1316 12.6171 44.1374 12.6128 44.1431C12.3757 44.4902 12.13 44.8616 11.8643 45.2788C11.5571 45.7688 11.2271 46.2974 10.9128 46.8416C10.6386 47.3059 10.3771 47.7774 10.1557 48.1774C9.91428 48.6131 9.66142 49.0988 9.38142 49.6659C9.31428 49.7945 9.24999 49.9231 9.19142 50.0445C8.7257 50.9831 8.32428 51.8645 7.96142 52.7459C7.84999 53.0074 7.73713 53.2731 7.63285 53.5402L7.59285 53.6416C7.44856 54.0016 7.30999 54.3645 7.17999 54.7231L7.02142 55.1588C6.91142 55.4774 6.79856 55.8074 6.68713 56.1374C6.54285 56.5716 6.40713 57.0002 6.3057 57.3259C6.16285 57.7945 6.02285 58.2788 5.89285 58.7631L5.71428 59.4359C5.69285 59.5288 5.66713 59.6302 5.64285 59.7316C5.61142 59.8559 5.58142 59.9802 5.55142 60.1074C5.43428 60.5916 5.33142 61.0445 5.2357 61.4974C5.0457 62.3974 4.87428 63.3645 4.70999 64.4545C4.67713 64.6631 4.65142 64.8759 4.6257 65.0816C4.59856 65.2745 4.57285 65.4645 4.54999 65.6559V65.6545Z" fill="black"/>
</g>
<g id="Group_13">
<path id="Vector_23" d="M58.7085 65.0844C58.5428 65.1501 58.3842 65.2229 58.2199 65.2887C50.7414 68.4001 43.3014 70.4558 36.3657 71.4987C32.0114 72.1587 27.8557 72.4172 24.0114 72.2715H24.0042C23.7528 67.9044 23.8585 63.7958 24.2228 59.9501C24.7642 54.3272 25.8614 49.2729 27.2414 44.8201C33.0157 44.7944 40.2228 43.1944 47.5499 40.0101C47.6157 39.9772 47.6885 39.9501 47.7542 39.9172L50.0399 45.1701H50.0471L56.6014 60.2401L58.7085 65.0829V65.0844Z" fill="white"/>
<path id="Vector_24" d="M26.12 72.5973C25.4028 72.5973 24.6971 72.5845 23.9986 72.5573C23.8514 72.5516 23.7257 72.4359 23.7171 72.2888C23.4786 68.143 23.5528 63.9816 23.9357 59.9245C24.4386 54.713 25.4571 49.603 26.9671 44.7373C27.0043 44.6188 27.1143 44.5373 27.2386 44.5359C33.2228 44.5088 40.3928 42.8102 47.4286 39.753C47.4643 39.7359 47.5014 39.7188 47.5386 39.703C47.5686 39.6902 47.5971 39.6773 47.6257 39.6645C47.6957 39.6288 47.7771 39.6245 47.8514 39.6516C47.9257 39.6788 47.9843 39.7345 48.0157 39.8059L50.28 45.0088C50.2914 45.0245 50.3 45.0402 50.3086 45.0588L56.8628 60.1288L58.97 64.9716C59.0014 65.043 59.0014 65.123 58.9728 65.1945C58.9443 65.2659 58.8871 65.323 58.8143 65.3516C58.7343 65.383 58.6557 65.4173 58.5771 65.4516C58.4943 65.4873 58.41 65.523 58.3257 65.5573C51.0086 68.6016 43.6328 70.6973 36.4071 71.7845C32.8343 72.3273 29.3828 72.6002 26.12 72.6002V72.5973ZM24.2743 71.9959C28.0414 72.1202 32.0928 71.8588 36.3214 71.2173C43.5014 70.1373 50.8314 68.053 58.11 65.0259C58.1871 64.9945 58.2586 64.9645 58.3314 64.933L56.34 60.3559L49.8071 45.3359C49.7957 45.3202 49.7871 45.3045 49.7786 45.2859L47.6086 40.2988C40.6014 43.3373 33.4557 45.0402 27.4528 45.1059C25.9886 49.8745 24.9986 54.8773 24.5071 59.9788C24.1343 63.923 24.0571 67.9645 24.2757 71.9959H24.2743Z" fill="black"/>
</g>
<g id="Group_14">
<path id="Vector_25" d="M88.1086 45.0457C85.3343 48.1842 81.9386 51.2628 78.0272 54.17C72.5172 58.2657 65.9829 62.0128 58.7086 65.0842L56.6015 60.2414L50.0472 45.1714L47.7615 39.9185C55.2729 36.6214 61.4643 32.2871 65.3743 27.96C65.6915 28.1057 66.0086 28.2642 66.3329 28.4285C66.5643 28.5471 66.7886 28.66 67.02 28.7857C67.4229 28.99 67.8258 29.2014 68.2286 29.4271C68.6315 29.6457 69.0415 29.87 69.4443 30.1014C70.2629 30.5642 71.0829 31.06 71.9158 31.5742C72.1872 31.74 72.4643 31.9171 72.7415 32.0957C73.0186 32.2742 73.3029 32.4528 73.58 32.6371C73.8572 32.8228 74.1343 33.0071 74.4129 33.1985C74.69 33.39 74.9743 33.5814 75.2515 33.78C75.4886 33.9385 75.72 34.11 75.9586 34.2757C76.2829 34.5142 76.6058 34.7514 76.9358 34.9957C77.2129 35.2 77.4972 35.4114 77.7815 35.63C78.0658 35.8414 78.35 36.0657 78.6343 36.29C78.9186 36.5085 79.1958 36.7328 79.48 36.9642H79.4872C80.0943 37.4528 80.7029 37.9614 81.31 38.4842C81.5486 38.6885 81.7858 38.9 82.0229 39.1057C83.04 40.0042 84.0572 40.9428 85.0758 41.9328C85.3729 42.2228 85.6643 42.5142 85.9615 42.8114C86.6815 43.5314 87.3958 44.2785 88.1086 45.0442V45.0457Z" fill="white"/>
<path id="Vector_26" d="M58.7086 65.37C58.5986 65.37 58.4929 65.3057 58.4472 65.1986L56.34 60.3557L49.7857 45.2857L47.5 40.0329C47.4372 39.8886 47.5029 39.72 47.6472 39.6572C54.8843 36.48 61.1057 32.2586 65.1629 27.7686C65.2472 27.6757 65.38 27.6486 65.4943 27.7C65.8343 27.8557 66.1743 28.0272 66.4629 28.1743L66.6315 28.2615C66.8057 28.35 66.9786 28.4386 67.1557 28.5343C67.6043 28.7615 68.0029 28.9729 68.3672 29.1772C68.7 29.3572 69.1415 29.5986 69.5857 29.8529C70.3015 30.2572 71.0657 30.7129 72.0643 31.3315C72.3372 31.4986 72.62 31.68 72.8943 31.8557L73.1286 32.0057C73.3315 32.1357 73.5357 32.2657 73.7372 32.4C74.0157 32.5857 74.2943 32.7715 74.5729 32.9643L74.8143 33.13C75.0143 33.2672 75.2172 33.4057 75.4143 33.5472C75.5557 33.6415 75.7015 33.7457 75.8486 33.85C75.9386 33.9143 76.0272 33.9772 76.1186 34.04C76.4486 34.2829 76.7729 34.52 77.1029 34.7657C77.3529 34.95 77.65 35.1715 77.9529 35.4029C78.2343 35.6129 78.5229 35.84 78.8015 36.06C79.0815 36.2757 79.3515 36.4929 79.6257 36.7157C79.6386 36.7229 79.6515 36.7315 79.6629 36.74C80.2386 37.2029 80.8372 37.7029 81.4929 38.2657C81.6129 38.3686 81.7315 38.4729 81.8515 38.5786C81.97 38.6815 82.0886 38.7857 82.2072 38.8872C83.29 39.8429 84.2915 40.7715 85.2729 41.7272C85.5715 42.0186 85.8629 42.31 86.1615 42.6086C86.8286 43.2757 87.5329 44.0086 88.3157 44.8486C88.4157 44.9557 88.4186 45.1229 88.32 45.2329C85.5172 48.4043 82.11 51.4872 78.1943 54.3972C72.4815 58.6443 65.9615 62.3272 58.8172 65.3457C58.7815 65.3615 58.7429 65.3686 58.7057 65.3686L58.7086 65.37ZM48.1372 40.0657L50.31 45.0572L56.8643 60.1272L58.8586 64.71C65.8586 61.7315 72.25 58.1086 77.8572 53.94C81.66 51.1129 84.9786 48.1229 87.7229 45.05C87.0157 44.2943 86.3715 43.6257 85.76 43.0143C85.4629 42.7172 85.1729 42.4272 84.8772 42.1372C83.9029 41.1886 82.9086 40.2672 81.8357 39.32C81.7186 39.22 81.6 39.1143 81.48 39.01C81.3615 38.9072 81.2429 38.8029 81.1243 38.7015C80.4857 38.1529 79.9015 37.6657 79.34 37.2129C79.3257 37.2057 79.3129 37.1972 79.3015 37.1872C79.02 36.9586 78.7429 36.7343 78.4615 36.5186C78.1757 36.2929 77.8915 36.0672 77.6129 35.86C77.3115 35.6286 77.0172 35.41 76.7686 35.2257C76.4386 34.9815 76.1143 34.7443 75.7915 34.5057C75.7057 34.4457 75.6129 34.38 75.5229 34.3157C75.3815 34.2143 75.24 34.1143 75.0957 34.0186C74.8929 33.8743 74.6943 33.7372 74.4957 33.6015L74.2515 33.4343C73.9757 33.2443 73.6986 33.06 73.4229 32.8757C73.2243 32.7443 73.0243 32.6157 72.8243 32.4872L72.5886 32.3357C72.3172 32.1615 72.0372 31.9815 71.7686 31.8172C70.7743 31.2015 70.0157 30.75 69.3057 30.3486C68.8657 30.0957 68.4272 29.8572 68.0943 29.6772C67.7329 29.4757 67.34 29.2672 66.8915 29.04C66.7129 28.9429 66.5429 28.8572 66.3729 28.77L66.2029 28.6829C65.9743 28.5657 65.7115 28.4343 65.4457 28.3072C61.3829 32.7429 55.2529 36.9057 48.1386 40.0643L48.1372 40.0657Z" fill="black"/>
</g>
<g id="Group_15">
<path id="Vector_27" d="M96.6115 26.9117C96.6115 27.2688 96.5986 27.6245 96.5786 27.9817C96.5514 28.3445 96.5129 28.7088 96.4657 29.0717C96.4457 29.2502 96.42 29.4288 96.3872 29.6074C96.3672 29.7259 96.3472 29.8459 96.3272 29.9645C96.3072 30.0902 96.2815 30.2088 96.2614 30.3345C96.01 31.5574 95.64 32.8059 95.1514 34.0545C95.0729 34.2588 94.9929 34.4645 94.9072 34.6688C94.65 35.2831 94.3657 35.8974 94.0486 36.5188C93.2957 38.0117 92.3843 39.5117 91.3272 41.0117C91.1286 41.2888 90.9243 41.5731 90.7129 41.8502C90.4157 42.2531 90.1057 42.6502 89.7886 43.0531C89.26 43.7202 88.6986 44.3874 88.11 45.0488C87.3972 44.2831 86.6829 43.5359 85.9629 42.8159C85.6657 42.5188 85.3743 42.2274 85.0772 41.9374C84.06 40.9459 83.0429 40.0088 82.0243 39.1102C81.7872 38.9059 81.5486 38.6945 81.3114 38.4888C80.7043 37.9674 80.0957 37.4588 79.4886 36.9688H79.4814C79.1972 36.7374 78.92 36.5131 78.6357 36.2945C78.3514 36.0702 78.0672 35.8445 77.7829 35.6345C77.4986 35.4159 77.2143 35.2045 76.9372 35.0002C76.6072 34.7559 76.2829 34.5174 75.96 34.2802C75.7229 34.1145 75.4914 33.9431 75.2529 33.7845C74.9757 33.5859 74.6915 33.3945 74.4143 33.2031C74.1372 33.0117 73.86 32.8259 73.5814 32.6417C73.3043 32.4559 73.02 32.2788 72.7429 32.1002C72.4657 31.9217 72.1886 31.7431 71.9172 31.5788C71.0843 31.0631 70.2657 30.5674 69.4457 30.1059C69.0429 29.8745 68.6329 29.6502 68.23 29.4317C67.8272 29.2074 67.4243 28.9959 67.0214 28.7902C66.79 28.6645 66.5657 28.5531 66.3343 28.4331C66.01 28.2674 65.6929 28.1088 65.3757 27.9645C69.1743 23.7488 70.82 19.5417 69.4057 16.2974C69.3729 16.2245 69.34 16.1588 69.3072 16.0859C69.5714 16.0988 69.8357 16.1259 70.1 16.1517C70.3643 16.1788 70.6357 16.2045 70.9 16.2302C71.1643 16.2502 71.4357 16.2831 71.7057 16.3231C71.9772 16.3559 72.2414 16.3888 72.5114 16.4217C73.3243 16.5274 74.15 16.6588 74.9757 16.8174C75.2529 16.8631 75.53 16.9159 75.8086 16.9759C76.0857 17.0288 76.3629 17.0888 76.6414 17.1474C76.84 17.1874 77.0372 17.2331 77.2357 17.2788C77.4472 17.3245 77.6586 17.3774 77.87 17.4245C78.3715 17.5431 78.8743 17.6759 79.3829 17.8145C79.66 17.8874 79.9372 17.9659 80.2157 18.0459C80.5457 18.1445 80.8829 18.2445 81.22 18.3502C81.55 18.4559 81.8872 18.5617 82.2243 18.6745C82.5543 18.7874 82.8915 18.8988 83.2357 19.0245C84.5829 19.5002 85.9372 20.0417 87.3057 20.6631C87.6429 20.8088 87.9729 20.9674 88.3029 21.1188C88.3229 21.1259 88.3357 21.1317 88.3486 21.1388C88.6586 21.2902 88.97 21.4431 89.28 21.5945C90.3443 22.1231 91.4143 22.6974 92.4843 23.3259C92.8143 23.5174 93.1514 23.7159 93.4814 23.9202C93.7457 24.0788 94.0172 24.2502 94.2814 24.4159C94.46 24.5288 94.6386 24.6402 94.8172 24.7588C95.1143 24.9502 95.4057 25.1417 95.7029 25.3402C95.9929 25.5388 96.2914 25.7359 96.5814 25.9417C96.6014 26.2659 96.6143 26.5888 96.6143 26.9131L96.6115 26.9117Z" fill="white"/>
<path id="Vector_28" d="M88.1086 45.3317C88.03 45.3317 87.9543 45.2988 87.9 45.2402C87.1228 44.4045 86.4228 43.6774 85.76 43.0145C85.4628 42.7174 85.1728 42.4274 84.8771 42.1374C83.9028 41.1888 82.9085 40.2674 81.8357 39.3202C81.7185 39.2202 81.6 39.1145 81.48 39.0102C81.3614 38.9074 81.2428 38.8031 81.1243 38.7017C80.4857 38.1531 79.9014 37.6659 79.34 37.2131C79.3257 37.2059 79.3128 37.1974 79.3014 37.1874C79.02 36.9588 78.7428 36.7345 78.4614 36.5188C78.1757 36.2931 77.8914 36.0674 77.6128 35.8602C77.3114 35.6288 77.0171 35.4102 76.7686 35.2259C76.4386 34.9817 76.1143 34.7445 75.7914 34.5059C75.7057 34.4459 75.6128 34.3802 75.5228 34.316C75.3814 34.2145 75.24 34.1145 75.0957 34.0188C74.8928 33.8745 74.6943 33.7374 74.4957 33.6017L74.2514 33.4345C73.9757 33.2445 73.6986 33.0602 73.4228 32.8759C73.2243 32.7445 73.0243 32.6159 72.8243 32.4874L72.5886 32.3359C72.3171 32.1617 72.0371 31.9817 71.7686 31.8174C70.7743 31.2017 70.0157 30.7502 69.3057 30.3488C68.8657 30.0959 68.4271 29.8574 68.0943 29.6774C67.7328 29.4759 67.34 29.2674 66.8914 29.0402C66.7128 28.9431 66.5428 28.8574 66.3728 28.7702L66.2028 28.6831C65.92 28.5388 65.5857 28.3702 65.2571 28.2202C65.1743 28.1817 65.1143 28.1074 65.0971 28.0188C65.0786 27.9302 65.1043 27.8374 65.1643 27.7702C69.0471 23.4617 70.46 19.4274 69.1443 16.4088C69.13 16.3774 69.1143 16.3431 69.0971 16.3102C69.08 16.2745 69.0628 16.2388 69.0471 16.2017C69.0057 16.1102 69.0143 16.0045 69.0714 15.9231C69.1271 15.8402 69.22 15.7931 69.3214 15.7988C69.5928 15.8131 69.8657 15.8402 70.1286 15.8659L70.9286 15.9445C71.1686 15.9631 71.4386 15.9931 71.7471 16.0388L72.5457 16.1374C73.3771 16.2459 74.2114 16.3802 75.0286 16.5374C75.3028 16.5831 75.5871 16.6374 75.8671 16.6974C76.1386 16.7488 76.42 16.8088 76.6914 16.8674C76.8986 16.9088 77.1028 16.9559 77.3 17.0031C77.4028 17.0259 77.51 17.0502 77.6157 17.0759C77.72 17.1002 77.8257 17.1245 77.93 17.1474C78.3786 17.2531 78.8486 17.3745 79.4571 17.5402C79.7343 17.6131 80.0185 17.6945 80.2928 17.7717L80.5257 17.8417C80.7828 17.9188 81.0428 17.9959 81.3028 18.0774L81.5457 18.1545C81.7986 18.2345 82.0557 18.3174 82.3114 18.4017L82.49 18.4617C82.7628 18.5545 83.0443 18.6502 83.33 18.7545C84.71 19.2417 86.0871 19.7959 87.42 20.4017C87.6586 20.5045 87.9 20.6174 88.1343 20.7259C88.2257 20.7688 88.3157 20.8102 88.4071 20.8531C88.4343 20.8631 88.4543 20.8731 88.4743 20.8831L89.4028 21.3374C90.5086 21.8859 91.5914 22.4717 92.6257 23.0788C92.9043 23.2402 93.2714 23.4545 93.63 23.6774C93.8371 23.8017 94.0514 23.9359 94.2643 24.0688L94.4314 24.1731C94.6157 24.2888 94.7943 24.4017 94.9728 24.5217C95.2671 24.7117 95.56 24.9045 95.8586 25.1031L96.1171 25.2788C96.3257 25.4202 96.5371 25.5631 96.7443 25.7088C96.8157 25.7588 96.86 25.8388 96.8643 25.9245C96.8871 26.2945 96.8985 26.6174 96.8985 26.9131C96.8985 27.2374 96.8871 27.5931 96.8657 27.9988C96.8414 28.3345 96.8043 28.6959 96.7514 29.1088C96.7314 29.2874 96.7043 29.4745 96.67 29.6602L96.6114 30.0117C96.6014 30.0745 96.59 30.1388 96.5771 30.2031C96.5657 30.2617 96.5557 30.3202 96.5457 30.3802C96.2857 31.6445 95.9086 32.9117 95.42 34.1588C95.34 34.3645 95.26 34.5717 95.1728 34.7788C94.9086 35.4074 94.6171 36.0374 94.3043 36.6488C93.5557 38.1317 92.6328 39.6545 91.5614 41.1759C91.3657 41.4488 91.1571 41.7402 90.9414 42.0231C90.6471 42.4217 90.3343 42.8217 90.0143 43.2288C89.4871 43.8945 88.92 44.5702 88.3257 45.2374C88.2728 45.2974 88.1957 45.3317 88.1157 45.3331C88.1157 45.3331 88.1143 45.3331 88.1128 45.3331L88.1086 45.3317ZM79.6286 36.7188C79.6414 36.7259 79.6543 36.7345 79.6657 36.7431C80.2414 37.2059 80.84 37.7059 81.4957 38.2688C81.6157 38.3717 81.7343 38.476 81.8543 38.5817C81.9728 38.6845 82.0914 38.7888 82.21 38.8902C83.2928 39.8459 84.2943 40.7745 85.2757 41.7302C85.5743 42.0217 85.8657 42.3131 86.1643 42.6117C86.77 43.2174 87.4071 43.8774 88.1043 44.6217C88.6157 44.0388 89.1057 43.4517 89.5643 42.8745C89.8814 42.4717 90.1914 42.0759 90.4828 41.6802C90.6971 41.3988 90.9028 41.1131 91.0943 40.8445C92.1485 39.3474 93.0571 37.8488 93.7943 36.3888C94.1 35.7888 94.3871 35.1731 94.6443 34.5574C94.7286 34.3545 94.8071 34.1531 94.8857 33.9502C95.3628 32.7317 95.7314 31.4959 95.9828 30.2759C95.9914 30.2231 96.0028 30.1588 96.0143 30.0959C96.0257 30.0374 96.0357 29.9788 96.0457 29.9188L96.1057 29.5602C96.1385 29.3831 96.1643 29.2102 96.1828 29.0402C96.2343 28.6331 96.2714 28.2817 96.2943 27.9602C96.3157 27.5702 96.3271 27.2245 96.3271 26.9102C96.3271 26.6631 96.3186 26.3945 96.3028 26.0931C96.1357 25.9759 95.9657 25.8617 95.7971 25.7474L95.54 25.5731C95.2457 25.3774 94.9571 25.1859 94.6614 24.9959C94.4828 24.8774 94.3071 24.7674 94.1328 24.6574L93.9614 24.5502C93.7528 24.4188 93.5414 24.2859 93.3343 24.1617C92.9786 23.9417 92.6171 23.7288 92.34 23.5688C91.3157 22.9688 90.2443 22.3888 89.1514 21.8459L88.2214 21.3902C88.2114 21.3874 88.1914 21.3774 88.1814 21.3731C88.0857 21.3288 87.99 21.2845 87.8943 21.2402C87.6643 21.1331 87.4257 21.0217 87.19 20.9202C85.8671 20.3188 84.5057 19.7717 83.1385 19.2888C82.8557 19.1859 82.5771 19.0917 82.3085 19.0002L82.1314 18.9402C81.8785 18.8559 81.6257 18.7759 81.3743 18.6959L81.1328 18.6188C80.8771 18.5388 80.6186 18.4617 80.3643 18.3859L80.1343 18.3174C79.8671 18.2402 79.5857 18.1602 79.3114 18.0888C78.7057 17.9231 78.2428 17.8045 77.8057 17.7002C77.7028 17.6774 77.5957 17.6531 77.4871 17.6274C77.3828 17.6031 77.28 17.5788 77.1757 17.5559C76.9785 17.5102 76.78 17.4631 76.5857 17.4245C76.3043 17.3645 76.0271 17.3045 75.7557 17.2531C75.4771 17.1931 75.2014 17.1417 74.93 17.0959C74.1157 16.9402 73.2928 16.8074 72.4757 16.7017L71.6714 16.6031C71.3686 16.5588 71.1114 16.5288 70.8786 16.5117L70.0714 16.4317C69.9686 16.4217 69.8643 16.4117 69.76 16.4017C70.9828 19.5417 69.6 23.5902 65.8428 27.8645C66.0614 27.9702 66.2743 28.0774 66.4628 28.1745L66.6314 28.2617C66.8057 28.3502 66.9786 28.4388 67.1557 28.5345C67.6043 28.7617 68.0028 28.9731 68.3671 29.1774C68.7 29.3574 69.1414 29.5988 69.5857 29.8531C70.3014 30.2574 71.0657 30.7131 72.0643 31.3317C72.3371 31.4988 72.62 31.6802 72.8943 31.8559L73.1286 32.0059C73.3314 32.1359 73.5357 32.2659 73.7371 32.4002C74.0157 32.5859 74.2943 32.7717 74.5728 32.9645L74.8143 33.1302C75.0143 33.2674 75.2171 33.4059 75.4143 33.5474C75.5557 33.6417 75.7014 33.7459 75.8486 33.8502C75.9386 33.9145 76.0271 33.9774 76.1186 34.0402C76.4486 34.2831 76.7728 34.5202 77.1028 34.7659C77.3528 34.9502 77.65 35.1717 77.9528 35.4031C78.2343 35.6131 78.5228 35.8402 78.8014 36.0602C79.0814 36.2759 79.3514 36.4931 79.6257 36.716L79.6286 36.7188Z" fill="black"/>
</g>
<g id="Group_16">
<path id="Vector_29" d="M96.5785 25.94C96.2885 25.7357 95.99 25.5371 95.7 25.3386C95.4028 25.14 95.1114 24.9486 94.8142 24.7571C94.6357 24.6386 94.4571 24.5257 94.2785 24.4143C94.0142 24.2486 93.7428 24.0771 93.4785 23.9186C93.1485 23.7143 92.8114 23.5157 92.4814 23.3243C91.4114 22.6971 90.3414 22.1214 89.2771 21.5929C88.9671 21.4414 88.6557 21.2886 88.3457 21.1371C88.3328 21.13 88.32 21.1243 88.3 21.1171C87.97 20.9657 87.64 20.8071 87.3028 20.6614C85.9414 20.0471 84.5814 19.4986 83.2328 19.0229C82.89 18.8971 82.5528 18.7857 82.2214 18.6729C81.8842 18.56 81.5471 18.4543 81.2171 18.3486C80.88 18.2429 80.5428 18.1443 80.2128 18.0443C79.9357 17.9657 79.6585 17.8857 79.38 17.8129C78.8714 17.6743 78.3685 17.5414 77.8671 17.4229C77.6557 17.3771 77.4442 17.3243 77.2328 17.2771C77.0342 17.2314 76.8371 17.1843 76.6385 17.1457C76.3614 17.0857 76.0842 17.0271 75.8057 16.9743C75.5285 16.9143 75.2514 16.8614 74.9728 16.8157C74.1471 16.6571 73.3214 16.5257 72.5085 16.42C72.2371 16.38 71.9671 16.3471 71.7028 16.3214C71.4314 16.2814 71.1614 16.2486 70.8971 16.2286C70.6257 16.1957 70.3614 16.1686 70.0971 16.15C69.8328 16.1243 69.5685 16.0971 69.3042 16.0843C67.9228 13.2243 64.31 11.6386 59.4071 11.3343C59.6057 11.3271 59.8028 11.3271 60.0014 11.3271C73.8285 11.3271 86.5142 16.2357 96.3971 24.4214C96.49 24.9229 96.5428 25.4257 96.5757 25.9414L96.5785 25.94Z" fill="white"/>
<path id="Vector_30" d="M96.5786 26.2258C96.5214 26.2258 96.4629 26.2087 96.4143 26.1744C96.21 26.0301 96.0029 25.8901 95.7957 25.7501L95.5386 25.5758C95.2443 25.3801 94.9557 25.1887 94.66 24.9987C94.4814 24.8801 94.3057 24.7701 94.1314 24.6601L93.96 24.553C93.7514 24.4215 93.54 24.2887 93.3329 24.1644C92.9771 23.9444 92.6157 23.7315 92.3386 23.5715C91.3143 22.9715 90.2428 22.3915 89.15 21.8487L88.22 21.393C88.21 21.3901 88.19 21.3801 88.18 21.3758C88.0843 21.3315 87.9886 21.2873 87.8929 21.243C87.6629 21.1358 87.4243 21.0244 87.1886 20.923C85.83 20.3101 84.4686 19.7615 83.1371 19.2915C82.8543 19.1887 82.5757 19.0944 82.3071 19.003L82.13 18.943C81.8771 18.8587 81.6243 18.7787 81.3728 18.6987L81.1314 18.6215C80.8757 18.5415 80.6171 18.4644 80.3628 18.3887L80.1329 18.3201C79.8657 18.243 79.5843 18.163 79.31 18.0915C78.7043 17.9258 78.2414 17.8073 77.8043 17.703C77.7014 17.6801 77.5943 17.6558 77.4857 17.6301C77.3814 17.6058 77.2786 17.5815 77.1743 17.5587C76.9771 17.513 76.7786 17.4658 76.5843 17.4273C76.3029 17.3673 76.0257 17.3073 75.7543 17.2558C75.4757 17.1958 75.2 17.1444 74.9286 17.0987C74.1143 16.943 73.2914 16.8101 72.4743 16.7044C72.2086 16.6658 71.9429 16.633 71.6771 16.6058C71.3686 16.5615 71.1114 16.5315 70.8786 16.5144C70.5929 16.4801 70.3357 16.4544 70.0786 16.4358C69.8157 16.4101 69.55 16.383 69.2929 16.3701C69.1886 16.3644 69.0957 16.303 69.05 16.2087C67.77 13.5558 64.34 11.9258 59.3929 11.6201C59.24 11.6101 59.1229 11.483 59.1243 11.3315C59.1271 11.1787 59.2486 11.0558 59.4 11.0501C59.6029 11.043 59.8071 11.043 60.0043 11.043C66.8043 11.043 73.4571 12.2187 79.78 14.5387C85.8943 16.7815 91.5471 20.033 96.5829 24.2044C96.6343 24.2473 96.67 24.3073 96.6814 24.373C96.7686 24.8444 96.8257 25.3373 96.8643 25.9258C96.8714 26.0358 96.8143 26.1401 96.7186 26.193C96.6757 26.2173 96.6271 26.2301 96.5786 26.2301V26.2258ZM88.4071 20.8515C88.4343 20.8615 88.4543 20.8715 88.4743 20.8815L89.4029 21.3358C90.5086 21.8844 91.5914 22.4701 92.6257 23.0773C92.9043 23.2387 93.2714 23.453 93.63 23.6758C93.8371 23.8001 94.0514 23.9344 94.2643 24.0673L94.4314 24.1715C94.6157 24.2873 94.7943 24.4001 94.9729 24.5201C95.2671 24.7101 95.56 24.903 95.8586 25.1015L96.1171 25.2773C96.16 25.3058 96.2028 25.3358 96.2457 25.3644C96.2171 25.0844 96.1814 24.8258 96.1386 24.5758C91.1728 20.4787 85.6043 17.2815 79.5843 15.0744C74.4743 13.2001 69.1471 12.0801 63.7 11.7315C66.5071 12.5158 68.5057 13.9087 69.4886 15.8101C69.7043 15.8244 69.9186 15.8458 70.1286 15.8673C70.3871 15.8873 70.6529 15.913 70.9343 15.9473C71.1686 15.9644 71.4386 15.9958 71.7471 16.0401C72.0086 16.0658 72.2843 16.1001 72.5529 16.1387C73.3771 16.2458 74.2114 16.3801 75.03 16.5373C75.3043 16.583 75.5886 16.6373 75.8686 16.6973C76.14 16.7487 76.4214 16.8087 76.6928 16.8673C76.9 16.9087 77.1043 16.9558 77.3014 17.003C77.4043 17.0258 77.5114 17.0501 77.6171 17.0758C77.7214 17.1001 77.8271 17.1244 77.9314 17.1473C78.38 17.253 78.85 17.3744 79.4586 17.5401C79.7357 17.613 80.02 17.6944 80.2943 17.7715L80.5271 17.8415C80.7843 17.9187 81.0443 17.9958 81.3043 18.0773L81.5471 18.1544C81.8 18.2344 82.0571 18.3173 82.3129 18.4015L82.4914 18.4615C82.7643 18.5544 83.0457 18.6501 83.3314 18.7544C84.6743 19.2287 86.0514 19.783 87.42 20.4001C87.6586 20.503 87.9 20.6158 88.1343 20.7244C88.2257 20.7673 88.3171 20.8087 88.4071 20.8515Z" fill="black"/>
</g>
<g id="Group_17">
<path id="Vector_31" d="M79.1629 112.084C78.7472 112.27 78.3301 112.447 77.9144 112.62C65.7315 117.694 53.6086 120.006 43.3872 119.729C37.9701 115.394 33.4372 109.356 30.3458 101.117C30.2801 100.939 30.2072 100.754 30.1472 100.576C41.3658 100.682 55.3915 97.7616 69.6944 91.7687C69.8729 91.6959 70.0444 91.623 70.2229 91.5444L79.1615 112.084H79.1629Z" fill="#EBECEE"/>
<path id="Vector_32" d="M45.0243 120.036C44.4715 120.036 43.9243 120.029 43.38 120.014C43.3172 120.013 43.2586 119.99 43.2086 119.952C37.4243 115.324 33.0072 109.022 30.0786 101.217L30.0229 101.067C29.9729 100.933 29.9215 100.797 29.8772 100.666C29.8486 100.579 29.8629 100.482 29.9172 100.407C29.9715 100.333 30.0543 100.289 30.1515 100.29C41.7958 100.402 55.8029 97.2801 69.5858 91.5058C69.7643 91.433 69.9329 91.3615 70.1086 91.283C70.1786 91.2515 70.2572 91.2501 70.3286 91.2772C70.4 91.3044 70.4572 91.3601 70.4872 91.4301L79.4258 111.97C79.4886 112.114 79.4229 112.282 79.28 112.346C78.8643 112.53 78.4429 112.712 78.0243 112.884C66.8958 117.52 55.25 120.037 45.0258 120.037L45.0243 120.036ZM43.4915 119.446C53.9972 119.714 66.18 117.197 77.8043 112.356C78.1315 112.22 78.4615 112.08 78.7872 111.937L70.0758 91.9201C69.9858 91.9587 69.8958 91.9958 69.8029 92.033C56.1886 97.7372 42.3458 100.863 30.7458 100.863C30.6829 100.863 30.6186 100.863 30.5558 100.863C30.5558 100.863 30.5558 100.863 30.5558 100.864L30.6129 101.017C33.4915 108.689 37.8243 114.887 43.49 119.444L43.4915 119.446Z" fill="black"/>
</g>
<g id="Group_18">
<path id="Vector_33" d="M108.979 91.2672V91.2744C102.18 99.1558 91.7942 106.642 79.1628 112.086L70.2242 91.5458C84.7585 85.3887 96.7828 77.2158 104.467 68.9844C104.671 69.3944 104.87 69.8029 105.056 70.2072C105.247 70.6172 105.433 71.0201 105.604 71.4301C105.763 71.7872 105.909 72.1372 106.053 72.4944C106.271 73.0301 106.476 73.5644 106.66 74.0929C106.779 74.4101 106.891 74.7272 106.997 75.0444C107.123 75.4215 107.249 75.7972 107.36 76.1744C107.466 76.5115 107.564 76.8487 107.657 77.1858C107.73 77.4429 107.803 77.7015 107.861 77.9587C108.211 79.3001 108.489 80.6272 108.687 81.9429C108.733 82.2272 108.773 82.5115 108.806 82.7887C108.931 83.6872 109.017 84.5787 109.063 85.4644C109.083 85.7744 109.096 86.0858 109.103 86.3887C109.176 88.0401 109.123 89.6658 108.977 91.2715L108.979 91.2672Z" fill="#EBECEE"/>
<path id="Vector_34" d="M79.1629 112.37C79.0529 112.37 78.9472 112.306 78.9014 112.199L69.9629 91.6586C69.9329 91.5886 69.9314 91.5101 69.96 91.4386C69.9886 91.3672 70.0443 91.3115 70.1143 91.2815C84.14 85.3401 96.2657 77.3515 104.26 68.7872C104.324 68.7186 104.417 68.6858 104.51 68.7001C104.603 68.7129 104.683 68.7715 104.724 68.8558C104.947 69.3029 105.141 69.7043 105.316 70.0872C105.496 70.4729 105.689 70.8901 105.869 71.3186C106.036 71.6944 106.19 72.0686 106.319 72.3844C106.547 72.9472 106.754 73.4901 106.931 73.9972C107.049 74.3086 107.163 74.6329 107.27 74.9529C107.396 75.3329 107.523 75.7144 107.636 76.0915C107.74 76.4258 107.841 76.7686 107.934 77.1086C108.006 77.3629 108.081 77.6286 108.141 77.8929C108.496 79.2486 108.776 80.6001 108.971 81.8986C109.017 82.1801 109.057 82.4686 109.091 82.7529C109.217 83.6501 109.304 84.5586 109.35 85.4472C109.37 85.7572 109.383 86.0715 109.39 86.3815C109.46 87.9686 109.419 89.5744 109.264 91.2844C109.263 91.3501 109.239 91.4129 109.196 91.4629C102.12 99.6672 91.4943 107.084 79.2757 112.35C79.2386 112.366 79.2 112.373 79.1629 112.373V112.37ZM70.6014 91.6943L79.3114 111.709C91.3072 106.499 101.733 99.2101 108.703 91.1572C108.85 89.5001 108.887 87.9415 108.82 86.3972C108.813 86.0901 108.8 85.7829 108.78 85.4786C108.734 84.6029 108.649 83.7115 108.524 82.8244C108.49 82.5415 108.451 82.2615 108.406 81.9844C108.213 80.7015 107.936 79.3715 107.586 78.0272C107.526 77.7686 107.453 77.5101 107.383 77.2601C107.291 76.9258 107.191 76.5886 107.089 76.2572C106.977 75.8844 106.851 75.5072 106.73 75.1429C106.621 74.8186 106.51 74.5015 106.393 74.1915C106.216 73.6872 106.013 73.1544 105.789 72.6001C105.661 72.2886 105.509 71.9186 105.343 71.5444C105.164 71.1201 104.976 70.7086 104.797 70.3272C104.673 70.0572 104.54 69.7772 104.394 69.4801C96.3972 77.9329 84.4243 85.8058 70.6029 91.6972L70.6014 91.6943Z" fill="black"/>
</g>
<g id="Group_19">
<path id="Vector_35" d="M70.2242 91.5445C70.0456 91.6245 69.8742 91.6959 69.6956 91.7688C55.3928 97.7617 41.3656 100.682 30.1485 100.576C27.6914 93.9488 26.0656 87.6931 25.0814 81.8131C24.5328 78.5102 24.1828 75.3259 24.0114 72.2731C27.8571 72.4188 32.0114 72.1602 36.3656 71.5002C43.3028 70.4559 50.7414 68.4017 58.2199 65.2902C58.3856 65.2245 58.5442 65.1517 58.7085 65.0859L70.2242 91.5459V91.5445Z" fill="white"/>
<path id="Vector_36" d="M30.7457 100.864C30.5442 100.864 30.3442 100.864 30.1442 100.862C30.0257 100.862 29.92 100.786 29.8785 100.676C27.5428 94.3773 25.8328 88.0473 24.7971 81.8602C24.26 78.623 23.8985 75.403 23.7228 72.2887C23.7185 72.2087 23.7485 72.1302 23.8042 72.073C23.86 72.0159 23.9371 71.9845 24.0185 71.9873C27.8571 72.133 31.9957 71.873 36.32 71.2173C43.5 70.1373 50.83 68.053 58.1085 65.0259C58.1928 64.9916 58.2714 64.9587 58.3514 64.9245C58.4342 64.8887 58.5171 64.853 58.6014 64.8202C58.7442 64.763 58.9085 64.8302 58.97 64.9716L70.4857 91.4316C70.5485 91.5759 70.4828 91.743 70.34 91.8073C70.1585 91.8873 69.9842 91.9616 69.8028 92.0359C56.1885 97.7402 42.3457 100.866 30.7457 100.866V100.864ZM30.3471 100.292C41.9485 100.364 55.8785 97.2473 69.5857 91.5059C69.6742 91.4702 69.7614 91.433 69.8485 91.3973L58.56 65.4587C58.4828 65.4916 58.4057 65.5245 58.3271 65.5559C51.01 68.6002 43.6342 70.6959 36.4085 71.783C32.1685 72.4259 28.1014 72.6916 24.3157 72.5702C24.4957 75.5673 24.8485 78.6587 25.3642 81.7673C26.3842 87.8573 28.0614 94.0887 30.3485 100.293L30.3471 100.292Z" fill="black"/>
</g>
<g id="Group_20">
<path id="Vector_37" d="M104.466 68.983C96.7814 77.2145 84.7586 85.3873 70.2229 91.5445L58.7072 65.0845C65.9814 62.013 72.5157 58.2659 78.0257 54.1702C81.9372 51.263 85.3329 48.1845 88.1072 45.0459C90.4929 47.6088 92.8372 50.4502 95.13 53.5945C98.2943 57.9416 101.347 62.8702 104.214 68.473C104.3 68.6445 104.386 68.8159 104.466 68.9816V68.983Z" fill="white"/>
<path id="Vector_38" d="M70.2243 91.8302C70.1143 91.8302 70.0086 91.7659 69.9628 91.6587L58.4471 65.1987C58.4171 65.1287 58.4157 65.0502 58.4443 64.9787C58.4728 64.9073 58.5286 64.8516 58.5986 64.8216C65.7014 61.8216 72.18 58.1616 77.8571 53.9416C81.74 51.0545 85.1186 47.9987 87.8957 44.8573C87.9486 44.7973 88.0257 44.7616 88.1057 44.7602C88.1871 44.7573 88.2643 44.7916 88.3186 44.8516C90.75 47.4645 93.12 50.3502 95.3628 53.4273C98.6557 57.9502 101.72 62.9687 104.47 68.3445C104.559 68.5202 104.644 68.693 104.724 68.8602C104.776 68.9659 104.756 69.093 104.676 69.1787C96.6286 77.8002 84.4343 85.8359 70.3357 91.8087C70.3 91.8245 70.2614 91.8316 70.2243 91.8316V91.8302ZM59.0857 65.2345L70.3728 91.1702C84.2114 85.273 96.1786 77.3873 104.123 68.9302C104.07 68.8216 104.014 68.7116 103.959 68.6016C101.223 63.2559 98.1743 58.263 94.8986 53.763C92.7343 50.7945 90.4528 48.0059 88.1114 45.4702C85.3486 48.5587 82.0143 51.5602 78.1957 54.3987C72.5528 58.593 66.1243 62.2373 59.0843 65.2345H59.0857Z" fill="black"/>
</g>
<g id="Group_21">
<path id="Vector_39" d="M104.466 68.9828C104.387 68.817 104.3 68.6456 104.214 68.4742C101.347 62.8713 98.2942 57.9428 95.1299 53.5956C92.8371 50.4513 90.4913 47.6099 88.1071 45.047C88.6956 44.387 89.2571 43.7185 89.7856 43.0513C90.1028 42.6485 90.4128 42.2513 90.7099 41.8485C90.9213 41.5713 91.1256 41.287 91.3242 41.0099C92.3813 39.5099 93.2928 38.0099 94.0456 36.517C94.3628 35.8956 94.6471 35.2813 94.9042 34.667C94.9899 34.4628 95.0699 34.257 95.1485 34.0528C95.6371 32.8042 96.0071 31.5556 96.2585 30.3328C96.2785 30.207 96.3042 30.0885 96.3242 29.9628C96.3442 29.8442 96.3642 29.7256 96.3842 29.6056C96.4171 29.427 96.4442 29.2485 96.4628 29.0699C96.5085 28.707 96.5485 28.3428 96.5756 27.9799C96.5956 27.6228 96.6085 27.267 96.6085 26.9099C96.6085 26.5856 96.5956 26.2628 96.5756 25.9385C99.0328 27.6556 101.497 29.6442 103.928 31.9313C107.37 36.0599 110.251 40.6856 112.418 45.687C112.426 45.6942 112.431 45.707 112.438 45.7199C112.604 46.0899 112.756 46.4599 112.907 46.837C112.914 46.8499 112.92 46.8699 112.927 46.8899C115.18 53.1599 111.817 61.1013 104.464 68.9828H104.466Z" fill="white"/>
<path id="Vector_40" d="M104.466 69.2686C104.451 69.2686 104.437 69.2686 104.423 69.2657C104.33 69.2514 104.249 69.1914 104.209 69.1072C104.13 68.9429 104.044 68.7729 103.96 68.6029C101.224 63.2572 98.1757 58.2643 94.9 53.7643C92.67 50.7057 90.3142 47.8386 87.8985 45.2414C87.7985 45.1329 87.7957 44.9672 87.8942 44.8572C88.4814 44.1972 89.0428 43.53 89.5614 42.8743C89.8785 42.4714 90.1885 42.0757 90.48 41.68C90.6942 41.3986 90.9 41.1129 91.0914 40.8443C92.1457 39.3472 93.0542 37.8486 93.7914 36.3886C94.0971 35.7886 94.3842 35.1729 94.6414 34.5572C94.7257 34.3543 94.8042 34.1529 94.8828 33.95C95.36 32.7314 95.7285 31.4957 95.98 30.2757C95.9885 30.2229 96 30.1586 96.0114 30.0957C96.0228 30.0372 96.0328 29.9786 96.0428 29.9186L96.1028 29.56C96.1357 29.3829 96.1614 29.21 96.18 29.04C96.2314 28.6329 96.2685 28.2814 96.2914 27.96C96.3128 27.57 96.3242 27.2243 96.3242 26.91C96.3242 26.6257 96.3142 26.3143 96.2914 25.9557C96.2842 25.8457 96.3414 25.7429 96.4371 25.6886C96.5328 25.6343 96.6514 25.6414 96.74 25.7043C99.2857 27.4829 101.77 29.5086 104.126 31.7229C104.134 31.7314 104.141 31.7386 104.15 31.7486C107.656 35.9543 110.523 40.5972 112.671 45.5472C112.683 45.5643 112.69 45.58 112.696 45.5929C112.873 45.9886 113.029 46.3686 113.171 46.7243C113.181 46.7457 113.19 46.7729 113.2 46.8C115.414 52.9614 112.387 60.91 104.674 69.1772C104.62 69.2357 104.544 69.2686 104.466 69.2686ZM88.4942 45.0414C90.8642 47.6043 93.1742 50.4243 95.3628 53.4272C98.6557 57.95 101.72 62.9686 104.47 68.3443C104.493 68.3914 104.517 68.4372 104.54 68.4843C111.891 60.4929 114.774 52.8686 112.661 46.9872C112.656 46.9714 112.654 46.9643 112.651 46.9572C112.506 46.5972 112.353 46.2229 112.186 45.8486C112.176 45.8343 112.167 45.8186 112.16 45.8014C110.034 40.8972 107.197 36.2972 103.724 32.1286C101.54 30.0757 99.2442 28.1872 96.8914 26.51C96.8957 26.65 96.8971 26.7829 96.8971 26.9114C96.8971 27.2357 96.8857 27.5914 96.8642 27.9972C96.84 28.3329 96.8028 28.6943 96.75 29.1072C96.73 29.2857 96.7028 29.4729 96.6685 29.6586L96.61 30.01C96.6 30.0729 96.5885 30.1372 96.5757 30.2014C96.5643 30.26 96.5542 30.3186 96.5442 30.3786C96.2842 31.6429 95.9071 32.91 95.4185 34.1572C95.3385 34.3629 95.2585 34.57 95.1714 34.7772C94.9071 35.4057 94.6157 36.0357 94.3028 36.6472C93.5542 38.13 92.6314 39.6529 91.56 41.1743C91.3642 41.4472 91.1557 41.7386 90.94 42.0214C90.6457 42.42 90.3328 42.82 90.0128 43.2272C89.5371 43.8286 89.0271 44.4372 88.4957 45.0414H88.4942Z" fill="black"/>
</g>
<g id="Group_22">
<path id="Vector_41" d="M47.7543 39.9201C47.6886 39.9529 47.6157 39.9801 47.55 40.0129C40.2229 43.1972 33.0157 44.7958 27.2415 44.8229C31.8272 29.9915 39.5029 21.8386 39.7615 21.5672L39.7686 21.5601L47.7557 39.9201H47.7543Z" fill="white"/>
<path id="Vector_42" d="M27.2415 45.1072C27.1515 45.1072 27.0657 45.0644 27.0115 44.9915C26.9572 44.9187 26.9415 44.8244 26.9686 44.7372C31.5586 29.8901 39.23 21.7101 39.5543 21.3687C39.5543 21.3687 39.5629 21.3587 39.5643 21.3587C39.6315 21.2915 39.7272 21.2615 39.82 21.2787C39.9129 21.2958 39.9915 21.3587 40.03 21.4458L48.0172 39.8058C48.0772 39.9444 48.0186 40.1072 47.8829 40.1758C47.8443 40.1944 47.8057 40.2115 47.7657 40.2287C47.7357 40.2415 47.7072 40.2544 47.6786 40.2672C47.6743 40.2701 47.67 40.2715 47.6643 40.2744C40.5572 43.363 33.3043 45.0801 27.2429 45.1072H27.2415ZM39.68 22.0772C38.2186 23.7158 31.7457 31.4658 27.63 44.5315C33.52 44.4344 40.5115 42.7515 47.3786 39.7744L39.68 22.0772Z" fill="black"/>
</g>
<g id="Group_23">
<path id="Vector_43" d="M65.3744 27.9617C61.4629 32.2888 55.2729 36.6231 47.7615 39.9203L39.7672 21.5603C39.7672 21.5603 40.2686 21.5345 41.2072 21.5603C41.3129 21.5603 41.4258 21.5674 41.5444 21.5731C41.6044 21.5731 41.6701 21.5731 41.7358 21.5803C41.8286 21.5874 41.9272 21.5874 42.0258 21.5931C42.2244 21.6003 42.4358 21.6131 42.6601 21.626C42.8315 21.6388 43.0029 21.6517 43.1815 21.666C43.5444 21.6988 43.9344 21.7317 44.3444 21.7788C44.5486 21.7988 44.7601 21.8188 44.9786 21.8445C45.1244 21.8574 45.2758 21.8774 45.4272 21.8974C45.8758 21.9574 46.3515 22.016 46.8544 22.096C47.0201 22.1231 47.1844 22.1488 47.3558 22.1745C48.4001 22.3403 49.5358 22.5574 50.7515 22.8217C51.1415 22.9074 51.5444 23.006 51.9544 23.106C53.0901 23.3774 54.2872 23.7003 55.5358 24.0831C55.8001 24.1617 56.0644 24.2488 56.3286 24.3345C56.6001 24.4203 56.8701 24.506 57.1415 24.5988C57.1544 24.606 57.1744 24.6117 57.1872 24.6117C57.5301 24.7245 57.8744 24.8431 58.2244 24.9688C58.3501 25.0145 58.4815 25.0617 58.6144 25.1074C59.2158 25.326 59.8301 25.5574 60.4515 25.8017C60.7286 25.9074 61.0001 26.0203 61.2772 26.1317C62.6058 26.6674 63.9729 27.2745 65.3729 27.9617H65.3744Z" fill="white"/>
<path id="Vector_44" d="M47.7615 40.2059C47.7258 40.2059 47.6915 40.1988 47.6572 40.1859C47.5872 40.1588 47.53 40.1031 47.5 40.0345L39.5058 21.6745C39.4686 21.5888 39.4758 21.4902 39.5243 21.4102C39.5729 21.3302 39.6586 21.2802 39.7529 21.2745C39.7743 21.2745 40.2772 21.2474 41.2158 21.2745C41.3186 21.2745 41.4229 21.2802 41.5386 21.2874H41.5515C41.6129 21.2874 41.6872 21.2874 41.7629 21.2959C41.7986 21.2988 41.8443 21.3002 41.89 21.3017C41.9415 21.3031 41.9929 21.3045 42.0443 21.3088C42.2115 21.3145 42.4 21.3259 42.5972 21.3374L42.7215 21.3459L43.3943 21.4002C43.7086 21.4288 44.0329 21.4574 44.3772 21.4959L44.4329 21.5017C44.6215 21.5202 44.8158 21.5388 45.0143 21.5631C45.1543 21.5759 45.31 21.5959 45.4658 21.6159L45.7043 21.6474C46.0872 21.6974 46.4829 21.7488 46.9 21.8159C47.0658 21.8431 47.23 21.8688 47.4015 21.8945C48.4258 22.0559 49.5729 22.2759 50.8143 22.5445C51.1558 22.6202 51.4972 22.7031 51.8586 22.7902L52.0243 22.8302C53.2029 23.1117 54.4129 23.4417 55.6215 23.8131C55.8886 23.8931 56.1572 23.9802 56.4186 24.0659C56.69 24.1517 56.9629 24.2388 57.2358 24.3317C57.2386 24.3317 57.2415 24.3331 57.2443 24.3345C57.2558 24.3374 57.2672 24.3402 57.2786 24.3431C57.6029 24.4488 57.9458 24.5674 58.3229 24.7031C58.45 24.7502 58.58 24.7959 58.71 24.8417C59.3429 25.0717 59.9629 25.3059 60.5572 25.5388C60.7729 25.6217 60.9872 25.7088 61.2043 25.7974L61.3858 25.8702C62.7515 26.4202 64.1358 27.0388 65.5 27.7088C65.58 27.7488 65.6372 27.8231 65.6543 27.9117C65.6715 28.0002 65.6458 28.0902 65.5858 28.1574C61.4743 32.7059 55.1858 36.9774 47.8758 40.1859C47.8386 40.2017 47.8 40.2102 47.7615 40.2102V40.2059ZM40.1986 21.8345L47.9086 39.5417C54.8843 36.4459 60.8943 32.3802 64.9058 28.0502C63.6643 27.4502 62.41 26.8945 61.1715 26.3959L60.9886 26.3217C60.7758 26.2345 60.5643 26.1488 60.35 26.0674C59.7586 25.8345 59.1429 25.6017 58.5172 25.3759C58.3872 25.3302 58.2529 25.2831 58.1258 25.2374C57.7643 25.1074 57.4358 24.9945 57.1229 24.8917C57.0886 24.8845 57.0586 24.8745 57.0358 24.8645C56.7715 24.7745 56.5072 24.6902 56.2415 24.6074C55.9772 24.5217 55.7158 24.4359 55.4529 24.3574C54.2543 23.9888 53.0558 23.6617 51.8872 23.3845L51.72 23.3445C51.3615 23.2574 51.0229 23.1759 50.6886 23.1017C49.4586 22.8345 48.3215 22.6174 47.31 22.4574C47.1386 22.4317 46.9729 22.4045 46.8072 22.3774C46.3972 22.3131 46.0058 22.2617 45.6272 22.2117L45.3886 22.1802C45.2415 22.1617 45.0929 22.1417 44.9515 22.1288C44.7486 22.1045 44.56 22.0859 44.3758 22.0688L44.3158 22.0631C43.9743 22.0245 43.6529 21.9959 43.3415 21.9674L42.5629 21.9074C42.37 21.8959 42.1872 21.8845 42.0158 21.8788C41.9615 21.8759 41.9158 21.8745 41.87 21.8717C41.8172 21.8702 41.7643 21.8674 41.7129 21.8645C41.6472 21.8574 41.5858 21.8617 41.5258 21.8588H41.5043C41.3986 21.8517 41.2986 21.8459 41.2043 21.8459C40.7729 21.8345 40.4343 21.8331 40.1958 21.8359L40.1986 21.8345ZM57.2686 24.3417H57.2715C57.2715 24.3417 57.27 24.3417 57.2686 24.3417Z" fill="black"/>
</g>
<g id="Group_24">
<path id="Vector_45" d="M65.3744 27.9615C63.9744 27.2743 62.6058 26.6672 61.2787 26.1315C61.0015 26.0129 60.7244 25.9072 60.453 25.8015C59.8315 25.5572 59.2172 25.3258 58.6158 25.1072C58.4844 25.0615 58.3515 25.0143 58.2258 24.9686C57.8758 24.8429 57.5315 24.7243 57.1887 24.6115C57.1758 24.6115 57.1558 24.6043 57.143 24.5986C56.8715 24.5058 56.6015 24.4201 56.3301 24.3343C56.0658 24.2486 55.8015 24.1629 55.5372 24.0829C54.2887 23.7001 53.093 23.3758 51.9558 23.1058C51.5458 23.0072 51.143 22.9072 50.753 22.8215C49.5372 22.5572 48.4015 22.3386 47.3572 22.1743C47.1858 22.1486 47.0201 22.1215 46.8558 22.0958C46.3544 22.0172 45.8787 21.9572 45.4287 21.8972C45.2772 21.8772 45.1244 21.8572 44.9801 21.8443C44.7615 21.8186 44.5501 21.7986 44.3458 21.7786C43.9301 21.7329 43.5401 21.6929 43.183 21.6658C43.0044 21.6529 42.833 21.6386 42.6615 21.6258C42.4372 21.6129 42.2258 21.5986 42.0272 21.5929C41.9287 21.5858 41.8287 21.5858 41.7372 21.5801C41.6715 21.5729 41.6058 21.5729 41.5458 21.5729C41.4272 21.5658 41.3144 21.5601 41.2087 21.5601C40.2701 21.5343 39.7687 21.5601 39.7687 21.5601L39.7758 21.5529C39.8215 21.5272 40.0658 21.4015 40.503 21.1958C40.5958 21.1558 40.7015 21.1029 40.813 21.0501C41.0972 20.9186 41.4401 20.7658 41.8372 20.6015C42.0687 20.5029 42.3201 20.3972 42.5901 20.2843C42.683 20.2515 42.7758 20.2115 42.8744 20.1715C43.2572 20.0201 43.6672 19.8615 44.103 19.6958C44.4401 19.5701 44.7901 19.4443 45.1601 19.3186C45.3972 19.2329 45.6487 19.1472 45.9072 19.0615H45.9144C46.2972 18.9358 46.7001 18.8043 47.1172 18.6715C47.2558 18.6258 47.4015 18.5858 47.5472 18.5401C47.8315 18.4543 48.1215 18.3686 48.4187 18.2829C48.5701 18.2429 48.723 18.1972 48.8815 18.1572C49.3372 18.0315 49.813 17.9058 50.2958 17.7801C52.2515 17.2843 54.4244 16.8358 56.783 16.5043C57.1787 16.4443 57.5687 16.3986 57.9715 16.3458C60.1915 16.0743 62.5572 15.9158 65.0344 15.9158C65.3772 15.9158 65.7287 15.9229 66.0787 15.9286C66.4158 15.9286 66.7587 15.9415 67.1087 15.9543C67.4787 15.9615 67.8487 15.9801 68.2187 16.0072C68.5758 16.0272 68.9387 16.0472 69.3087 16.0801C69.3415 16.1529 69.3744 16.2186 69.4072 16.2915C70.8215 19.5358 69.1758 23.7443 65.3772 27.9586L65.3744 27.9615Z" fill="white"/>
<path id="Vector_46" d="M65.3743 28.2472C65.3315 28.2472 65.2886 28.2372 65.2486 28.2186C63.8958 27.5543 62.5243 26.9429 61.1715 26.3972C60.9386 26.2972 60.7072 26.2072 60.4829 26.12L60.3486 26.0672C59.7586 25.8357 59.1429 25.6029 58.5186 25.3757C58.3886 25.33 58.2543 25.2829 58.1272 25.2372C57.7658 25.1072 57.4372 24.9943 57.1243 24.8915C57.09 24.8843 57.06 24.8743 57.0372 24.8643C56.7729 24.7743 56.5086 24.69 56.2429 24.6072C55.9786 24.5215 55.7172 24.4357 55.4543 24.3572C54.2558 23.9886 53.0572 23.6615 51.8886 23.3843L51.7215 23.3443C51.3629 23.2572 51.0243 23.1757 50.69 23.1015C49.46 22.8343 48.3229 22.6172 47.3115 22.4572C47.14 22.4315 46.9743 22.4043 46.8086 22.3772C46.3986 22.3129 46.0072 22.2615 45.6286 22.2115L45.3901 22.18C45.2429 22.1615 45.0943 22.1415 44.9529 22.1286C44.7501 22.1043 44.5615 22.0857 44.3772 22.0686L44.3172 22.0629C43.8286 22.0086 43.4729 21.9743 43.1615 21.9515L42.5643 21.9072C42.3715 21.8957 42.1886 21.8843 42.0172 21.8786C41.9629 21.8757 41.9172 21.8743 41.8715 21.8715C41.8186 21.87 41.7658 21.8672 41.7143 21.8643C41.6486 21.8572 41.5872 21.8615 41.5272 21.8586H41.5058C41.4001 21.8515 41.3 21.8457 41.2058 21.8457C40.2843 21.82 39.7858 21.8457 39.78 21.8457C39.6615 21.8515 39.5529 21.7843 39.5043 21.6772C39.4558 21.5686 39.48 21.4429 39.5629 21.3586C39.5815 21.34 39.6072 21.3186 39.63 21.3057C39.6929 21.27 39.9501 21.1386 40.3772 20.9386C40.4458 20.9086 40.5115 20.8772 40.5815 20.8443L40.6872 20.7943C41 20.6486 41.3486 20.4957 41.7229 20.34C41.9529 20.2415 42.2043 20.1357 42.4758 20.0229C42.48 20.0215 42.4843 20.02 42.4886 20.0172C42.5501 19.9957 42.6115 19.97 42.6758 19.9443L42.7629 19.9086C43.1458 19.7572 43.5615 19.5957 43.9972 19.4315C44.3629 19.2957 44.7115 19.1715 45.0643 19.0515C45.2743 18.9757 45.5215 18.89 45.8129 18.7929C45.8243 18.7886 45.8358 18.7857 45.8472 18.7843H45.8501C46.2258 18.66 46.6186 18.5315 47.0258 18.4029C47.1029 18.3772 47.1858 18.3529 47.2701 18.3272C47.3315 18.3086 47.3929 18.29 47.4543 18.2715C47.7429 18.1843 48.0358 18.0972 48.3343 18.0115C48.4058 17.9929 48.4715 17.9743 48.5372 17.9557C48.6258 17.9315 48.7158 17.9057 48.8072 17.8829C49.1986 17.7757 49.6358 17.6586 50.2186 17.5072C52.3758 16.96 54.5686 16.53 56.7386 16.2257C57.0229 16.1829 57.3058 16.1472 57.5943 16.11L57.9315 16.0672C60.28 15.78 62.6686 15.6357 65.0315 15.6357C65.38 15.6357 65.7358 15.6429 66.08 15.6486C66.08 15.6486 66.0815 15.6486 66.0829 15.6486C66.4143 15.6486 66.7472 15.6615 67.1 15.6743H67.1172C67.4501 15.6815 67.8172 15.6986 68.2372 15.7286H68.2629C68.61 15.7486 68.9686 15.7686 69.3329 15.8015C69.4358 15.81 69.5243 15.8743 69.5672 15.9672C69.5829 16.0015 69.5986 16.0343 69.6143 16.0657C69.6315 16.1029 69.6501 16.14 69.6672 16.1786C71.08 19.4186 69.6315 23.6715 65.5886 28.1557C65.5329 28.2172 65.4558 28.25 65.3758 28.25L65.3743 28.2472ZM57.2443 24.3315C57.2558 24.3343 57.2672 24.3372 57.2786 24.34C57.6029 24.4457 57.9458 24.5643 58.3229 24.7C58.4501 24.7472 58.58 24.7929 58.71 24.8386C59.3429 25.0686 59.9629 25.3029 60.5572 25.5357L60.69 25.5872C60.9186 25.6757 61.1543 25.7672 61.3915 25.8686C62.6872 26.39 64.0043 26.9757 65.3058 27.61C69.0801 23.3615 70.4429 19.39 69.1429 16.4086C69.1343 16.3915 69.1258 16.3729 69.1172 16.3543C68.8172 16.33 68.5186 16.3143 68.23 16.2972H68.2C67.7872 16.2657 67.4286 16.2486 67.1015 16.2429H67.0786C66.73 16.2286 66.4015 16.2172 66.0758 16.2172C65.7286 16.21 65.3743 16.2043 65.0315 16.2043C62.6915 16.2043 60.3272 16.3486 58.0029 16.6315L57.6672 16.6743C57.3843 16.71 57.1043 16.7457 56.8215 16.7886C54.67 17.09 52.4972 17.5172 50.3615 18.0586C49.7829 18.2086 49.3486 18.3243 48.9529 18.4343C48.8601 18.4572 48.7758 18.4815 48.6915 18.5043C48.6229 18.5229 48.5543 18.5429 48.4872 18.56C48.1986 18.6443 47.9086 18.7286 47.6258 18.8143C47.5643 18.8343 47.5 18.8529 47.4358 18.8729C47.3572 18.8957 47.28 18.92 47.2043 18.9443C46.7958 19.0743 46.4043 19.2029 46.03 19.3243L46 19.3343C45.99 19.3372 45.9786 19.34 45.9686 19.3429C45.6929 19.4343 45.4601 19.5157 45.2558 19.59C44.9043 19.71 44.56 19.8315 44.2015 19.9657C43.77 20.1286 43.3572 20.2886 42.9786 20.44L42.8958 20.4729C42.8258 20.5015 42.7586 20.5286 42.6915 20.5529C42.4243 20.6643 42.1758 20.7686 41.9472 20.8657C41.6129 21.0057 41.3015 21.1415 41.0201 21.27C41.0829 21.27 41.1486 21.2729 41.2158 21.2743C41.3143 21.2743 41.4229 21.28 41.5386 21.2872H41.5515C41.6129 21.2872 41.6872 21.2872 41.7643 21.2957C41.8 21.2986 41.8458 21.3 41.8915 21.3015C41.9429 21.3029 41.9943 21.3043 42.0458 21.3086C42.2129 21.3143 42.4015 21.3257 42.5986 21.3372L42.7229 21.3457L43.2043 21.3829C43.5243 21.4072 43.8858 21.4415 44.3772 21.4957L44.4329 21.5015C44.6215 21.52 44.8158 21.5386 45.0143 21.5629C45.1543 21.5757 45.3101 21.5957 45.4658 21.6157L45.7043 21.6472C46.0872 21.6972 46.4829 21.7486 46.9 21.8157C47.0658 21.8429 47.23 21.8686 47.4015 21.8943C48.4258 22.0557 49.5729 22.2757 50.8143 22.5443C51.1558 22.62 51.4972 22.7029 51.8586 22.79L52.0243 22.83C53.2029 23.1115 54.4129 23.4415 55.6215 23.8129C55.8886 23.8929 56.1572 23.98 56.4186 24.0657C56.69 24.1515 56.9629 24.2386 57.2358 24.3315C57.2386 24.3315 57.2415 24.3329 57.2443 24.3343V24.3315ZM57.2686 24.3415C57.2686 24.3415 57.27 24.3415 57.2715 24.3429C57.2715 24.3429 57.27 24.3429 57.2686 24.3415Z" fill="black"/>
</g>
<g id="Group_25">
<path id="Vector_47" d="M69.3057 16.0831C68.9357 16.0502 68.5728 16.0302 68.2157 16.0102C67.8457 15.9831 67.4757 15.9645 67.1057 15.9574C66.7557 15.9445 66.4114 15.9317 66.0757 15.9317C65.7257 15.9245 65.3757 15.9188 65.0314 15.9188C62.5543 15.9188 60.1885 16.0774 57.9685 16.3488C57.5657 16.4017 57.1757 16.4474 56.78 16.5074C54.4214 16.8374 52.2471 17.2874 50.2928 17.7831C49.81 17.9088 49.3343 18.0345 48.8785 18.1602C48.72 18.2002 48.5685 18.2459 48.4157 18.2859C48.1185 18.3717 47.8271 18.4574 47.5443 18.5431C47.3985 18.5888 47.2543 18.6288 47.1143 18.6745C46.6985 18.8059 46.2957 18.9388 45.9114 19.0645H45.9043C45.6471 19.1502 45.3957 19.2359 45.1571 19.3217C44.7871 19.4474 44.4371 19.5731 44.1 19.6988C43.6643 19.8574 43.2543 20.0159 42.8714 20.1745C42.7728 20.2145 42.68 20.2531 42.5871 20.2874C42.3157 20.4002 42.0657 20.5059 41.8343 20.6045C41.4385 20.7702 41.0943 20.9217 40.81 21.0531C40.6971 21.1059 40.5914 21.1588 40.5 21.1988C40.0643 21.4031 39.82 21.5288 39.7728 21.5559C39.9714 21.3188 45.1443 15.2274 51.8957 12.4645C52.7543 12.1145 53.6328 11.8174 54.5385 11.5931C55.1985 11.5274 55.86 11.4745 56.5271 11.4345C57.4585 11.3745 58.39 11.3417 59.3343 11.3359H59.4071C64.31 11.6402 67.9228 13.2259 69.3043 16.0859L69.3057 16.0831Z" fill="white"/>
<path id="Vector_48" d="M39.7743 21.8388C39.6914 21.8388 39.6114 21.803 39.5557 21.7359C39.4671 21.6302 39.4671 21.4759 39.5557 21.3702C39.6085 21.3073 44.9071 15.013 51.79 12.1973C52.7157 11.8202 53.5928 11.5302 54.4714 11.313C54.4843 11.3102 54.4985 11.3073 54.5114 11.3059C55.1757 11.2402 55.8485 11.1859 56.5114 11.1459C57.4557 11.0859 58.38 11.053 59.3343 11.0459H59.4085C59.4085 11.0459 59.42 11.0459 59.4257 11.0459C64.5885 11.3659 68.1885 13.1102 69.5628 15.9573C69.6071 16.0502 69.5985 16.1602 69.54 16.2445C69.4814 16.3288 69.3828 16.3759 69.28 16.3659C68.9257 16.3345 68.5714 16.3145 68.23 16.2959H68.2C67.7871 16.2645 67.4285 16.2473 67.1014 16.2416H67.0785C66.73 16.2273 66.4014 16.2159 66.0757 16.2159C65.7285 16.2088 65.3743 16.203 65.0314 16.203C62.6914 16.203 60.3271 16.3473 58.0028 16.6302L57.6671 16.673C57.3843 16.7088 57.1043 16.7445 56.8214 16.7873C54.67 17.0888 52.4971 17.5159 50.3614 18.0573C49.7828 18.2073 49.3485 18.323 48.9528 18.433C48.86 18.4559 48.7757 18.4802 48.6914 18.503C48.6228 18.5216 48.5543 18.5416 48.4871 18.5588C48.1985 18.643 47.9085 18.7273 47.6257 18.813C47.5643 18.833 47.5 18.8516 47.4357 18.8716C47.3571 18.8945 47.28 18.9188 47.2043 18.943C46.7957 19.073 46.4043 19.2016 46.03 19.323L46 19.333C45.99 19.3359 45.9785 19.3388 45.9685 19.3416C45.6928 19.433 45.46 19.5145 45.2557 19.5888C44.9043 19.7088 44.56 19.8302 44.2014 19.9645C43.7685 20.1216 43.3585 20.2802 42.9814 20.4359L42.8943 20.4716C42.8243 20.5002 42.7571 20.5273 42.6914 20.5516C42.4243 20.663 42.1757 20.7673 41.9471 20.8645C41.5771 21.0188 41.2357 21.1688 40.9314 21.3102L40.83 21.3588C40.7528 21.3959 40.68 21.4302 40.6128 21.4588C40.1914 21.6573 39.9528 21.7788 39.9157 21.8016C39.8714 21.8273 39.8228 21.8388 39.7743 21.8388ZM54.5885 11.873C53.7428 12.0845 52.8971 12.363 52.0043 12.7273C46.9614 14.7902 42.78 18.7616 40.9643 20.6673C41.2014 20.5602 41.4571 20.4502 41.7243 20.3388C41.9543 20.2402 42.2057 20.1345 42.4771 20.0216C42.4814 20.0202 42.4857 20.0188 42.49 20.0159C42.5514 19.9945 42.6128 19.9688 42.6771 19.943L42.7643 19.9073C43.1457 19.7502 43.5628 19.5873 44.0014 19.4288C44.3643 19.293 44.7128 19.1702 45.0643 19.0502C45.2743 18.9745 45.5214 18.8888 45.8128 18.7916C45.8243 18.7873 45.8357 18.7845 45.8471 18.783H45.85C46.2257 18.6588 46.6185 18.5302 47.0257 18.4016C47.1028 18.3759 47.1857 18.3516 47.27 18.3259C47.3314 18.3073 47.3928 18.2888 47.4543 18.2702C47.7428 18.183 48.0357 18.0959 48.3343 18.0102C48.4057 17.9916 48.4714 17.973 48.5371 17.9545C48.6257 17.9302 48.7157 17.9045 48.8071 17.8816C49.1985 17.7745 49.6357 17.6573 50.2185 17.5059C52.3757 16.9588 54.5685 16.5288 56.7385 16.2245C57.0228 16.1816 57.3057 16.1459 57.5943 16.1088L57.9314 16.0659C60.28 15.7788 62.6685 15.6345 65.0314 15.6345C65.38 15.6345 65.7357 15.6416 66.08 15.6473H66.0814C66.4128 15.6473 66.7457 15.6602 67.0985 15.673H67.1157C67.4485 15.6802 67.8157 15.6973 68.2357 15.7273H68.2614C68.44 15.7388 68.6214 15.7488 68.8057 15.7602C67.3685 13.3745 64.0571 11.9102 59.4 11.6202H59.3357C58.3943 11.6273 57.4814 11.6588 56.5457 11.7188C55.8957 11.7573 55.2371 11.8102 54.5871 11.8745L54.5885 11.873Z" fill="black"/>
</g>
<g id="Group_26">
<path id="Vector_49" d="M54.54 11.5901C53.6343 11.8144 52.7557 12.1115 51.8971 12.4615C45.1457 15.2229 39.9714 21.3144 39.7743 21.5529L39.7671 21.5601L37.8571 17.1729L37.3414 16.0029C37.44 15.9572 37.54 15.9172 37.6386 15.8715C37.7371 15.8258 37.8371 15.7858 37.9357 15.7458C38.1343 15.6601 38.3314 15.5801 38.53 15.5015C38.88 15.3558 39.2243 15.2244 39.5671 15.0915C39.8443 14.9787 40.1157 14.8801 40.4 14.7744C44.88 13.1429 49.6157 12.0529 54.5386 11.5901H54.54Z" fill="white"/>
<path id="Vector_50" d="M39.7671 21.8415C39.75 21.8415 39.7329 21.8401 39.7171 21.8372C39.6243 21.8201 39.5429 21.7601 39.5057 21.6743L37.5971 17.2872L37.0829 16.1186C37.02 15.9758 37.0829 15.8101 37.2229 15.7443C37.2743 15.7201 37.3271 15.6972 37.3786 15.6743C37.4257 15.6543 37.4729 15.6329 37.52 15.6115C37.6243 15.5629 37.7272 15.5215 37.8314 15.4801C38.0243 15.3958 38.2243 15.3158 38.4243 15.2372C38.7772 15.0915 39.1286 14.9558 39.4671 14.8258C39.7071 14.7286 39.9414 14.6415 40.19 14.5486L40.3014 14.5072C44.8814 12.8386 49.6629 11.7615 54.5129 11.3058C54.6614 11.2915 54.7957 11.3943 54.8214 11.5429C54.8472 11.6901 54.7543 11.8315 54.6086 11.8686C53.7557 12.0801 52.9043 12.3615 52.0043 12.7286C45.2514 15.4901 40.0443 21.6758 39.9929 21.7372C39.9872 21.7443 39.9814 21.7501 39.9757 21.7558C39.9214 21.8101 39.8443 21.8429 39.7671 21.8429V21.8415ZM37.7186 16.1486L38.1186 17.0572L39.8486 21.0315C41.0529 19.6843 45.8129 14.6501 51.76 12.2086C47.9214 12.7643 44.1457 13.7143 40.4986 15.0429L40.3886 15.0843C40.1443 15.1758 39.9129 15.2615 39.6757 15.3572C39.3357 15.4886 38.9871 15.6215 38.6414 15.7658C38.44 15.8458 38.2457 15.9243 38.0514 16.0086C37.95 16.0501 37.8557 16.0872 37.7614 16.1315C37.7471 16.1386 37.7343 16.1443 37.72 16.1501L37.7186 16.1486Z" fill="black"/>
</g>
<g id="Group_27">
<path id="Vector_51" d="M39.7671 21.5601C39.7671 21.5601 28.5885 21.2701 20.9642 26.7401C21.5914 26.1459 22.2399 25.5701 22.8928 25.023C26.3942 22.023 30.2599 19.4473 34.4214 17.3587C34.7385 17.193 35.0628 17.0416 35.3857 16.8901C35.5642 16.8044 35.7428 16.7187 35.9271 16.633C35.9799 16.6059 36.0399 16.5801 36.0928 16.5601C36.4428 16.3944 36.7928 16.2359 37.1499 16.0844C37.2157 16.0587 37.2757 16.0316 37.3414 16.0059L37.8571 17.1759L39.7671 21.563V21.5601Z" fill="white"/>
<path id="Vector_52" d="M20.9642 27.0245C20.8814 27.0245 20.8 26.9888 20.7442 26.9202C20.6485 26.8045 20.6585 26.6345 20.7685 26.5302C21.3842 25.9473 22.0371 25.3645 22.71 24.8002C26.2414 21.7759 30.14 19.1845 34.2942 17.1002C34.6114 16.9345 34.9428 16.7788 35.2628 16.6288C35.4414 16.543 35.6214 16.4559 35.8071 16.3702C35.86 16.343 35.9242 16.3159 35.9814 16.293C36.3557 16.1173 36.7014 15.9616 37.0385 15.8173C37.0757 15.8016 37.1057 15.7902 37.1357 15.7773C37.1685 15.763 37.2014 15.7502 37.2357 15.7359C37.3785 15.6788 37.5414 15.7445 37.6028 15.8859L38.1185 17.0559L40.0285 21.4445C40.0671 21.5345 40.0585 21.6373 40.0028 21.7188C39.9485 21.8002 39.8557 21.8473 39.7585 21.8445C39.6485 21.8416 28.5857 21.6216 21.13 26.9702C21.08 27.0059 21.0214 27.0245 20.9628 27.0245H20.9642ZM37.1942 16.3745C36.8857 16.5073 36.5628 16.653 36.2157 16.8159C36.2085 16.8188 36.2014 16.8216 36.1942 16.8245C36.15 16.8416 36.1014 16.863 36.0571 16.8845C35.8657 16.973 35.6885 17.0588 35.5114 17.1445C35.1914 17.2945 34.8657 17.4473 34.5542 17.6102C30.6242 19.5816 26.9285 22.0088 23.5571 24.833C29.9271 21.5716 37.4457 21.2902 39.33 21.273L37.1928 16.3745H37.1942Z" fill="black"/>
</g>
<g id="Group_28">
<path id="Vector_53" d="M39.7671 21.5601L39.76 21.5672C39.6871 21.5944 39.1914 21.7915 38.36 22.1815C38.2871 22.2144 38.2143 22.2472 38.1414 22.2801C37.9957 22.3458 37.8371 22.4186 37.6728 22.5044C37.5071 22.5844 37.33 22.6701 37.1514 22.7558C37.0528 22.8086 36.9528 22.8544 36.8543 22.9072C36.5771 23.0458 36.2857 23.1915 35.9757 23.3558C35.9357 23.3686 35.8971 23.3886 35.8628 23.4158C35.5328 23.5872 35.1828 23.7786 34.8128 23.9772C34.5086 24.1429 34.1986 24.3144 33.8686 24.5058C33.6643 24.6244 33.4457 24.7429 33.2271 24.8686C32.9228 25.0472 32.6128 25.2315 32.2886 25.4301C31.8528 25.6944 31.4028 25.9715 30.9414 26.2686C30.5914 26.4872 30.2343 26.7172 29.8714 26.9629C29.7528 27.0429 29.64 27.1144 29.5286 27.1944C28.26 28.0401 26.9257 28.9915 25.5643 30.0486C25.2928 30.2601 25.0157 30.4715 24.7457 30.7029C24.5014 30.8872 24.2571 31.0858 24.0128 31.2915C23.7557 31.5029 23.4914 31.7215 23.2328 31.9458C22.9286 32.2029 22.6186 32.4672 22.3143 32.7458C22.3143 32.7458 22.31 32.7482 22.3014 32.7529C22.0371 32.9844 21.7728 33.2158 21.5157 33.4601C21.2586 33.6915 21.0071 33.9286 20.75 34.1672C20.5914 34.3186 20.4257 34.4715 20.2671 34.6301C19.0114 35.8329 17.77 37.1344 16.5671 38.5215C16.4286 38.6801 16.29 38.8458 16.1514 39.0044C15.8871 39.3144 15.6228 39.6315 15.3657 39.9487C15.3457 39.9029 15.32 39.8501 15.3 39.8029C14.0714 36.9886 15.1486 33.4472 17.9357 29.8072C17.9357 29.8001 17.9428 29.7944 17.9486 29.7872C18.9128 28.7372 19.9243 27.7186 20.9671 26.7415C28.5914 21.2715 39.77 21.5615 39.77 21.5615L39.7671 21.5601Z" fill="white"/>
<path id="Vector_54" d="M15.3615 40.2316C15.3486 40.2316 15.3357 40.2316 15.3215 40.2287C15.2229 40.2144 15.1372 40.1501 15.0986 40.0587C15.09 40.0387 15.08 40.0159 15.0686 39.9944C15.0557 39.9673 15.0429 39.9401 15.0315 39.9144C13.7986 37.0901 14.7157 33.5416 17.6843 29.6559C17.6986 29.6301 17.7172 29.6073 17.74 29.5844C18.6843 28.5559 19.7057 27.5259 20.7657 26.5316C20.7743 26.523 20.7843 26.5159 20.7943 26.5073C28.4086 21.0444 39.6586 21.2716 39.7715 21.2744C39.8857 21.2773 39.9872 21.3473 40.0286 21.453C40.0715 21.5587 40.0472 21.6801 39.9672 21.7601L39.96 21.7673C39.93 21.7973 39.8943 21.8201 39.8543 21.8344C39.7915 21.8573 39.2972 22.0544 38.4772 22.4387L38.2557 22.5387C38.1043 22.6073 37.9557 22.6759 37.8 22.7573L37.27 23.0116C37.2286 23.0344 37.1772 23.0601 37.1257 23.0859C37.0786 23.1101 37.0315 23.133 36.9843 23.1587C36.7015 23.3001 36.4143 23.443 36.1057 23.6087C36.0915 23.6159 36.0772 23.623 36.0615 23.6273C36.0472 23.6316 36.04 23.6373 36.0372 23.6387C36.0229 23.6501 36.0072 23.6601 35.99 23.6687C35.7643 23.7859 35.53 23.913 35.2857 24.0444L34.9415 24.2287C34.5772 24.4273 34.2872 24.5887 34.0057 24.753C33.8957 24.8173 33.7829 24.8801 33.6672 24.9444C33.5672 25.0001 33.4657 25.0573 33.3643 25.1159C33.0272 25.313 32.7215 25.4959 32.4329 25.673C31.9257 25.9801 31.4986 26.2459 31.09 26.5087C30.74 26.7259 30.3829 26.9573 30.0243 27.1987L29.9315 27.2601C29.8486 27.3159 29.7672 27.3687 29.6857 27.4259C28.33 28.3301 27.0029 29.2859 25.7329 30.2716L25.5929 30.3816C25.3715 30.553 25.1443 30.7301 24.9243 30.9173C24.92 30.9216 24.9157 30.9244 24.9115 30.9273C24.6943 31.0916 24.4643 31.2759 24.1886 31.5059C23.9343 31.7144 23.6686 31.9344 23.4129 32.1559C23.0843 32.4344 22.7915 32.6844 22.5 32.9516C22.4872 32.963 22.4729 32.9744 22.4586 32.983C22.2086 33.2016 21.9515 33.4273 21.7043 33.6616C21.5257 33.8216 21.3557 33.9801 21.1857 34.1387L20.9357 34.3716C20.8872 34.4173 20.8343 34.4673 20.7815 34.5173C20.6743 34.6187 20.5672 34.7201 20.4615 34.8259C19.1843 36.0487 17.9457 37.3516 16.7757 38.703C16.7072 38.7816 16.6386 38.8616 16.57 38.9416C16.5 39.0244 16.4286 39.1059 16.3586 39.1859C16.09 39.5016 15.8272 39.8187 15.5786 40.123C15.5243 40.1901 15.4429 40.2287 15.3572 40.2287L15.3615 40.2316ZM18.17 29.9616C18.17 29.9616 18.1629 29.973 18.1586 29.9787C15.4115 33.5659 14.4772 36.8144 15.4415 39.3987C15.6 39.2073 15.7643 39.0116 15.93 38.8159C16.0015 38.7344 16.0715 38.653 16.14 38.573C16.21 38.4916 16.2786 38.4101 16.3486 38.3316C17.53 36.9687 18.78 35.653 20.0657 34.4216C20.17 34.3173 20.2815 34.2116 20.3929 34.1059C20.4443 34.0559 20.4972 34.0073 20.5486 33.9587L20.8015 33.7244C20.9743 33.563 21.1472 33.403 21.3229 33.2459C21.5786 33.003 21.8472 32.7687 22.1072 32.5401C22.1215 32.5273 22.1357 32.5159 22.1515 32.5059C22.44 32.243 22.7286 31.9973 23.0472 31.7273C23.3057 31.503 23.5757 31.2787 23.83 31.0701C24.1072 30.8373 24.3415 30.6501 24.5657 30.4801C24.7929 30.2859 25.0243 30.1073 25.2486 29.933L25.3886 29.8244C26.67 28.8287 28.01 27.8644 29.37 26.9573C29.4486 26.9016 29.5343 26.8444 29.6229 26.7859L29.7129 26.7259C30.0757 26.4816 30.4386 26.2459 30.79 26.0273C31.2 25.7644 31.63 25.4959 32.1415 25.1859C32.4329 25.0073 32.7415 24.823 33.0829 24.6216C33.1886 24.5616 33.2915 24.503 33.3929 24.4459C33.5057 24.383 33.6172 24.3201 33.7243 24.2573C34.0115 24.0901 34.3043 23.9259 34.6757 23.7244L35.02 23.5401C35.2586 23.4116 35.49 23.2873 35.71 23.1716C35.7543 23.1401 35.8057 23.113 35.8586 23.093C36.1686 22.9287 36.4643 22.7816 36.7257 22.6501C36.7715 22.6259 36.8229 22.6001 36.8743 22.5744C36.9215 22.5501 36.9686 22.5273 37.0157 22.5016L37.5486 22.2444C37.7086 22.1616 37.8643 22.0887 38.0229 22.0173L38.2415 21.9187C38.2786 21.9016 38.3157 21.8844 38.3515 21.8673C35.1243 21.9973 27.02 22.753 21.1457 26.9587C20.1057 27.933 19.1043 28.943 18.17 29.9601V29.9616ZM18.1615 29.9716L18.1557 29.9787C18.1557 29.9787 18.16 29.9744 18.1615 29.9716Z" fill="black"/>
</g>
<g id="Group_29">
<path id="Vector_55" d="M39.76 21.5659C39.5029 21.8373 31.8257 29.9887 27.24 44.8216C21.3143 44.8473 16.8872 43.2159 15.3615 39.9459C15.6186 39.6287 15.8829 39.3116 16.1472 39.0016C16.2857 38.843 16.4243 38.6773 16.5629 38.5187C17.7657 37.1316 19.0072 35.8302 20.2629 34.6273C20.4215 34.4687 20.5872 34.3173 20.7457 34.1645C21.0029 33.9273 21.2543 33.6887 21.5115 33.4573C21.7686 33.213 22.0329 32.9816 22.2972 32.7502C22.2972 32.7502 22.3015 32.7478 22.31 32.743C22.6143 32.4659 22.9243 32.2016 23.2286 31.943C23.4857 31.7187 23.75 31.5002 24.0086 31.2887C24.2529 31.0845 24.4972 30.8859 24.7415 30.7002C25.0129 30.4759 25.2829 30.2573 25.56 30.0459C26.9215 28.9887 28.2557 28.0373 29.5243 27.1916C29.6372 27.113 29.7486 27.0402 29.8672 26.9602C30.23 26.7159 30.5872 26.4845 30.9372 26.2659C31.4 25.9687 31.8486 25.6916 32.2843 25.4273C32.6086 25.2287 32.9186 25.0445 33.2229 24.8659C33.4415 24.7402 33.6586 24.6216 33.8643 24.503C34.1943 24.3116 34.5057 24.1402 34.8086 23.9745C35.1786 23.7759 35.5286 23.5845 35.8586 23.413C35.8915 23.3873 35.9315 23.3673 35.9715 23.353C36.2815 23.1873 36.5729 23.043 36.85 22.9045C36.9486 22.8516 37.0486 22.8059 37.1472 22.753C37.3257 22.6673 37.5043 22.5816 37.6686 22.5016C37.8343 22.4159 37.9929 22.343 38.1372 22.2773C38.21 22.2445 38.2829 22.2116 38.3557 22.1787C39.1886 21.7887 39.6843 21.5902 39.7557 21.5645L39.76 21.5659Z" fill="white"/>
<path id="Vector_56" d="M27.0972 45.1073C20.8786 45.1073 16.6215 43.3202 15.1043 40.0659C15.0586 39.9673 15.0729 39.8502 15.1415 39.7645C15.3915 39.4559 15.6572 39.1373 15.9315 38.8145C16.0029 38.733 16.0729 38.6516 16.1415 38.5716C16.2115 38.4902 16.28 38.4087 16.35 38.3302C17.5315 36.9673 18.7815 35.6516 20.0672 34.4202C20.1715 34.3159 20.2829 34.2102 20.3943 34.1045C20.4458 34.0545 20.4986 34.0059 20.55 33.9573L20.8029 33.723C20.9758 33.5616 21.1486 33.4016 21.3243 33.2445C21.58 33.0016 21.8486 32.7673 22.1086 32.5387C22.1229 32.5259 22.1372 32.5145 22.1529 32.5045C22.4415 32.2416 22.73 31.9959 23.0486 31.7259C23.3072 31.5016 23.5772 31.2773 23.8315 31.0687C24.1115 30.8345 24.3486 30.6445 24.5743 30.4745C24.8658 30.233 25.1358 30.0159 25.3929 29.8216C26.6715 28.8287 28.0115 27.8645 29.3715 26.9573C29.45 26.9016 29.5358 26.8445 29.6243 26.7859L29.7143 26.7259C30.0772 26.4816 30.44 26.2459 30.7915 26.0273C31.2015 25.7645 31.6315 25.4959 32.1429 25.1859C32.4343 25.0073 32.7429 24.823 33.0843 24.6216C33.19 24.5616 33.2929 24.503 33.3943 24.4459C33.5072 24.383 33.6186 24.3202 33.7258 24.2573C34.0129 24.0902 34.3058 23.9259 34.6772 23.7245L35.0215 23.5402C35.26 23.4116 35.4915 23.2873 35.7115 23.1716C35.7558 23.1402 35.8072 23.113 35.86 23.093C36.17 22.9287 36.4658 22.7816 36.7272 22.6502C36.7729 22.6259 36.8243 22.6002 36.8758 22.5745C36.9229 22.5502 36.97 22.5273 37.0172 22.5016L37.55 22.2445C37.71 22.1616 37.8658 22.0887 38.0243 22.0173L38.2429 21.9187C39.0758 21.5287 39.5829 21.3259 39.6643 21.2959C39.7886 21.2502 39.9286 21.2959 40.0015 21.4073C40.0743 21.5187 40.0615 21.6645 39.97 21.7602C39.65 22.0973 32.0672 30.183 27.5158 44.903C27.4786 45.0216 27.3686 45.1045 27.2443 45.1045C27.1958 45.1045 27.1472 45.1045 27.0986 45.1045L27.0972 45.1073ZM15.6986 39.9859C17.1786 42.9145 21.1886 44.5245 27.03 44.5373C30.7815 32.5245 36.5358 24.9145 38.7 22.3387C38.63 22.3716 38.5558 22.4059 38.48 22.4402L38.2586 22.5402C38.1072 22.6087 37.9586 22.6773 37.8029 22.7587L37.2729 23.013C37.2315 23.0359 37.18 23.0616 37.1286 23.0873C37.0815 23.1116 37.0343 23.1345 36.9872 23.1602C36.7043 23.3016 36.4172 23.4445 36.1086 23.6102C36.0943 23.6173 36.08 23.6245 36.0643 23.6287C36.05 23.633 36.0429 23.6387 36.04 23.6402C36.0258 23.6516 36.01 23.6616 35.9929 23.6702C35.7672 23.7873 35.5329 23.9145 35.2886 24.0459L34.9443 24.2302C34.58 24.4287 34.29 24.5902 34.0086 24.7545C33.8986 24.8187 33.7858 24.8816 33.67 24.9459C33.57 25.0016 33.4686 25.0587 33.3672 25.1173C33.03 25.3145 32.7258 25.4973 32.4358 25.6745C31.9286 25.9816 31.5015 26.2473 31.0929 26.5102C30.7429 26.7273 30.3858 26.9587 30.0272 27.2002L29.9343 27.2616C29.8515 27.3173 29.77 27.3702 29.6886 27.4273C28.3329 28.3316 27.0058 29.2873 25.7358 30.273C25.4843 30.4645 25.2186 30.6773 24.9243 30.9216C24.6958 31.0945 24.4672 31.2787 24.1915 31.5087C23.9372 31.7173 23.6715 31.9373 23.4158 32.1587C23.0872 32.4373 22.7943 32.6873 22.5029 32.9545C22.49 32.9659 22.4758 32.9773 22.4615 32.9859C22.2115 33.2045 21.9543 33.4302 21.7072 33.6645C21.5286 33.8245 21.3586 33.983 21.1886 34.1416L20.9386 34.3745C20.89 34.4202 20.8372 34.4702 20.7843 34.5202C20.6772 34.6216 20.57 34.723 20.4643 34.8287C19.1872 36.0516 17.9486 37.3545 16.7786 38.7059C16.71 38.7845 16.6415 38.8645 16.5729 38.9445C16.5029 39.0273 16.4315 39.1087 16.3615 39.1887C16.1343 39.4559 15.91 39.7245 15.6972 39.9845L15.6986 39.9859Z" fill="black"/>
</g>
</g>
<g id="Group_30">
<g id="Group_31">
<path id="Vector_57" d="M92.8629 91.1014L69.3443 119.471L68.7272 119.127L56.14 112.108L79.6586 83.7371L92.0829 90.6656L92.8629 91.1014Z" fill="#FF7E88"/>
<path id="Vector_58" d="M69.3443 119.757C69.2971 119.757 69.2485 119.746 69.2057 119.721L56.0014 112.359C55.9271 112.317 55.8757 112.246 55.86 112.161C55.8443 112.077 55.8671 111.991 55.9214 111.927L79.44 83.5557C79.5285 83.45 79.68 83.4214 79.7985 83.4886L93.0028 90.8528C93.0771 90.8943 93.1285 90.9671 93.1443 91.05C93.16 91.1328 93.1371 91.22 93.0828 91.2843L69.5643 119.654C69.5085 119.721 69.4271 119.757 69.3443 119.757ZM56.58 112.027L69.2771 119.107L92.4257 91.1843L91.9457 90.9157L79.7285 84.1028L56.5814 112.027H56.58Z" fill="black"/>
</g>
<g id="Group_32">
<path id="Vector_59" d="M81.9315 115.391V137.62L68.7272 130.257V119.127L69.3443 119.471L81.9315 115.391Z" fill="#FF7E88"/>
<path id="Vector_60" d="M81.9314 137.906C81.8828 137.906 81.8357 137.894 81.7928 137.87L68.5885 130.507C68.4985 130.457 68.4414 130.361 68.4414 130.257V119.127C68.4414 119.026 68.4957 118.931 68.5828 118.881C68.67 118.831 68.7786 118.829 68.8671 118.879L69.3757 119.161L81.8443 115.12C81.9314 115.091 82.0271 115.107 82.1 115.16C82.1743 115.214 82.2171 115.3 82.2171 115.391V137.62C82.2171 137.721 82.1628 137.816 82.0757 137.866C82.0314 137.891 81.9814 137.906 81.9314 137.906ZM69.0128 130.09L81.6457 137.134V115.786L69.4328 119.744C69.3571 119.769 69.2757 119.76 69.2057 119.721L69.0128 119.614V130.09Z" fill="black"/>
</g>
<g id="Group_33">
<path id="Vector_61" d="M103.179 96.8556L90.5928 100.937V123.167L82.2157 125.883L81.9314 125.976V115.391L69.3442 119.471L92.8628 91.1013L103.179 96.8556Z" fill="#FF444F"/>
<path id="Vector_62" d="M81.9314 126.261C81.8714 126.261 81.8128 126.243 81.7643 126.207C81.69 126.153 81.6457 126.067 81.6457 125.976V115.784L69.4328 119.743C69.3114 119.781 69.18 119.737 69.1086 119.631C69.0371 119.526 69.0443 119.387 69.1257 119.288L92.6443 90.9185C92.7328 90.8128 92.8828 90.7842 93.0028 90.8514L103.319 96.6056C103.417 96.6614 103.474 96.7699 103.464 96.8828C103.453 96.9956 103.376 97.0914 103.269 97.1271L90.88 101.144V123.167C90.88 123.291 90.8 123.401 90.6828 123.438L82.0214 126.247C81.9928 126.257 81.9628 126.261 81.9328 126.261H81.9314ZM81.9314 115.106C81.9914 115.106 82.05 115.124 82.1 115.16C82.1743 115.214 82.2171 115.3 82.2171 115.391V125.581L90.3071 122.958V100.936C90.3071 100.811 90.3871 100.701 90.5043 100.664L102.467 96.7842L92.9314 91.4642L70.1928 118.894L81.8443 115.117C81.8728 115.107 81.9028 115.103 81.9328 115.103L81.9314 115.106Z" fill="black"/>
</g>
<g id="Group_34">
<path id="Vector_63" d="M116.383 104.218L103.796 108.301V130.53L95.4185 133.247L95.1357 133.34L81.9314 137.62V115.391L69.3442 119.471L92.8628 91.1013L105.287 98.0299L106.067 98.4642L116.383 104.218Z" fill="#FF444F"/>
<path id="Vector_64" d="M81.9314 137.906C81.8714 137.906 81.8128 137.887 81.7628 137.851C81.6886 137.797 81.6457 137.711 81.6457 137.62V115.784L69.4328 119.743C69.3128 119.781 69.18 119.737 69.1086 119.631C69.0371 119.526 69.0443 119.387 69.1257 119.288L92.6443 90.9185C92.7328 90.8128 92.8828 90.7842 93.0028 90.8514L116.523 103.969C116.621 104.024 116.679 104.133 116.669 104.246C116.657 104.358 116.58 104.454 116.473 104.49L104.083 108.508V130.53C104.083 130.654 104.003 130.764 103.886 130.801L95.2271 133.611L82.0214 137.891C81.9928 137.901 81.9628 137.906 81.9328 137.906H81.9314ZM81.9314 115.106C81.9914 115.106 82.05 115.124 82.1 115.16C82.1743 115.214 82.2171 115.3 82.2171 115.391V137.227L95.33 132.976L103.51 130.323V108.301C103.51 108.177 103.59 108.067 103.707 108.03L115.671 104.148L92.9314 91.4656L70.1928 118.896L81.8443 115.118C81.8728 115.108 81.9028 115.104 81.9328 115.104L81.9314 115.106Z" fill="black"/>
</g>
</g>
</g>
</g>
</svg>
