<svg width="24" height="24" viewBox="0 0 24 24" fill="none" xmlns="http://www.w3.org/2000/svg">
<g id="illustration / deriv / dark / wrong-email">
<path id="Vector" d="M0 12.039V4.45459L8 8.81822L16 4.45459V12.039C16 12.6702 15.4883 13.1819 14.8571 13.1819H1.14286C0.511675 13.1819 0 12.6702 0 12.039Z" fill="#323738"/>
<path id="Vector_2" d="M7.35619 6.71178L0 11.7274V12.0391C0 12.6703 0.511674 13.182 1.14286 13.182H14.8571C15.4883 13.182 16 12.6703 16 12.0391V11.7274L8.64381 6.71178C8.25545 6.44698 7.74455 6.44698 7.35619 6.71178Z" fill="#242828"/>
<path id="Vector_3" d="M0 4.14286V4.45454L7.45274 8.51967C7.79386 8.70574 8.20614 8.70574 8.54726 8.51967L16 4.45454V4.14286C16 3.51167 15.4883 3 14.8571 3H1.14286C0.511675 3 0 3.51167 0 4.14286Z" fill="#4A5153"/>
<path id="Vector_4" d="M7.99996 6.63623H7.99995C7.19663 6.63623 6.54541 7.28745 6.54541 8.09077V8.09078C6.54541 8.8941 7.19663 9.54532 7.99995 9.54532H7.99996C8.80328 9.54532 9.4545 8.8941 9.4545 8.09078V8.09077C9.4545 7.28745 8.80328 6.63623 7.99996 6.63623Z" fill="#FF444F"/>
<path id="Vector_5" fill-rule="evenodd" clip-rule="evenodd" d="M8.36355 7.59069H8.72719C8.82809 7.59069 8.909 7.6716 8.909 7.77251V8.77251C8.909 8.87342 8.82809 8.95433 8.72719 8.95433H7.27264C7.17173 8.95433 7.09082 8.87342 7.09082 8.77251L7.09173 7.77251C7.09173 7.6716 7.17173 7.59069 7.27264 7.59069H7.63628V7.40887C7.63628 7.30796 7.71719 7.22705 7.81809 7.22705H8.18173C8.28264 7.22705 8.36355 7.30796 8.36355 7.40887V7.59069ZM7.81809 7.59069H8.18173V7.40887H7.81809V7.59069Z" fill="white"/>
<path id="Vector_6" d="M8 20.039V12.4546L16 16.8183L24 12.4546V20.039C24 20.6702 23.4883 21.1819 22.8571 21.1819H9.14286C8.51167 21.1819 8 20.6702 8 20.039Z" fill="#323738"/>
<path id="Vector_7" d="M15.3562 14.7118L8 19.7274V20.0391C8 20.6703 8.51167 21.182 9.14286 21.182H22.8571C23.4883 21.182 24 20.6703 24 20.0391V19.7274L16.6438 14.7118C16.2554 14.447 15.7446 14.447 15.3562 14.7118Z" fill="#242828"/>
<path id="Vector_8" d="M8 12.1429V12.4545L15.4527 16.5197C15.7939 16.7057 16.2061 16.7057 16.5473 16.5197L24 12.4545V12.1429C24 11.5117 23.4883 11 22.8571 11H9.14286C8.51167 11 8 11.5117 8 12.1429Z" fill="#4A5153"/>
<path id="Vector_9" d="M16 14.6362H16C15.1966 14.6362 14.5454 15.2875 14.5454 16.0908V16.0908C14.5454 16.8941 15.1966 17.5453 16 17.5453H16C16.8033 17.5453 17.4545 16.8941 17.4545 16.0908V16.0908C17.4545 15.2875 16.8033 14.6362 16 14.6362Z" fill="#FF444F"/>
<path id="Vector_10" fill-rule="evenodd" clip-rule="evenodd" d="M16.3636 15.7275C16.3636 15.9284 16.2008 16.0911 15.9999 16.0911C15.799 16.0911 15.6363 15.9284 15.6363 15.7275C15.6363 15.5266 15.799 15.3638 15.9999 15.3638C16.2008 15.3638 16.3636 15.5266 16.3636 15.7275ZM15.2727 16.6366C15.2727 16.3948 15.7572 16.2729 15.9999 16.2729C16.2427 16.2729 16.7272 16.3948 16.7272 16.6366V16.7275C16.7272 16.7775 16.6863 16.8184 16.6363 16.8184H15.3636C15.3136 16.8184 15.2727 16.7775 15.2727 16.7275V16.6366Z" fill="white"/>
</g>
</svg>
