<svg width="120" height="152" viewBox="0 0 120 152" fill="none" xmlns="http://www.w3.org/2000/svg">
<g id="illustration / deriv / light / new-promising">
<g id="New ">
<g id="Layer 1">
<g id="Group">
<g id="Group_2">
<path id="Vector" d="M114.417 65.5228L104.747 111.624C103.981 115.278 101.826 118.072 99.0973 119.456L98.9252 119.543L98.9035 119.553L93.3274 122.343C94.2847 121.854 95.1711 121.193 95.9506 120.382C97.3894 118.886 98.4668 116.881 98.9628 114.516L99.8941 110.077L108.633 68.415C109.97 62.0349 106.589 55.3554 101.119 53.5724L31.6676 30.9223C30.463 30.5289 29.2541 30.406 28.0871 30.5203H28.0856C27.069 30.6186 26.0842 30.8977 25.1616 31.3359L30.3357 28.7618L30.343 28.7575L31.2627 28.3005L31.2742 28.2947C33.1773 27.482 35.3233 27.336 37.4519 28.0301L106.903 50.6802C112.374 52.4632 115.755 59.1427 114.417 65.5228Z" fill="#EBECEE"/>
<path id="Vector_2" d="M93.3286 122.632C93.2231 122.632 93.1218 122.574 93.0698 122.473C92.9975 122.331 93.0539 122.157 93.197 122.085C94.1312 121.608 94.9873 120.967 95.7436 120.182C97.1969 118.672 98.2121 116.693 98.6806 114.459L108.351 68.3572C109.662 62.1 106.378 55.5926 101.03 53.8486L31.5777 31.1971C30.4396 30.8254 29.2755 30.6938 28.1143 30.8081C28.1114 30.8081 28.1086 30.8081 28.1057 30.8081C27.1368 30.9021 26.1881 31.1681 25.2858 31.5962C25.1426 31.6641 24.9705 31.6049 24.9011 31.4617C24.8317 31.3185 24.891 31.1465 25.0327 31.0756L30.1982 28.5059C30.1982 28.5059 30.2097 28.4987 30.2141 28.4972L31.1338 28.0403C31.1338 28.0403 31.1555 28.0301 31.1598 28.0272C33.2046 27.1538 35.4113 27.0598 37.5414 27.7539L106.993 50.404C112.614 52.2362 116.07 59.0444 114.7 65.5807L105.03 111.682C104.271 115.3 102.157 118.227 99.2287 119.712L99.0248 119.813L93.4573 122.599C93.4154 122.619 93.372 122.629 93.3286 122.629V122.632ZM28.9256 30.1891C29.8771 30.1891 30.8258 30.3424 31.757 30.6461L101.208 53.2962C106.829 55.1284 110.285 61.9366 108.916 68.4729L99.246 114.574C98.7543 116.915 97.6871 118.993 96.1586 120.581C96.1456 120.594 96.1326 120.607 96.121 120.62L98.9669 119.197C101.738 117.792 103.742 115.009 104.464 111.563L114.133 65.4621C115.445 59.2049 112.161 52.6975 106.813 50.9535L37.3621 28.3049C35.3708 27.6556 33.3072 27.7424 31.3955 28.558L30.4801 29.012C30.4801 29.012 30.4686 29.0193 30.4642 29.0207L28.0218 30.2354C28.0334 30.2354 28.0464 30.2325 28.0579 30.2311C28.0608 30.2311 28.0637 30.2311 28.0666 30.2311C28.3529 30.2036 28.6393 30.1891 28.9256 30.1891Z" fill="black"/>
</g>
<g id="Group_3">
<path id="Vector_3" d="M99.8941 110.077L98.9628 114.516C98.4668 116.881 97.3894 118.886 95.9506 120.382C95.1711 121.193 94.2847 121.854 93.3274 122.342C91.7511 123.146 89.984 123.479 88.1807 123.238C87.65 123.167 87.1164 123.045 86.5842 122.872L84.2503 122.111L78.8462 120.348L74.8478 119.044L66.2537 116.241L55.5035 112.736L46.1183 109.675L17.1329 100.222C11.6638 98.4386 8.28286 91.7591 9.62049 85.3789L10.5518 80.9395L99.8941 110.077Z" fill="#EBECEE"/>
<path id="Vector_4" d="M89.3288 123.603C88.934 123.603 88.5378 123.577 88.143 123.524C87.592 123.45 87.0382 123.323 86.4959 123.146L17.0446 100.496C11.4251 98.6641 7.96894 91.8559 9.33838 85.3196L10.2697 80.8801C10.287 80.7991 10.3362 80.7297 10.4085 80.6892C10.4793 80.6473 10.5647 80.6386 10.6428 80.6646L99.985 109.802C100.125 109.848 100.209 109.991 100.179 110.136L99.2475 114.575C98.7559 116.917 97.6886 118.995 96.1601 120.582C95.3604 121.415 94.4523 122.094 93.4603 122.6C92.1602 123.264 90.7517 123.603 89.3302 123.603H89.3288ZM10.7686 81.3139L9.9038 85.4382C8.5922 91.6954 11.8748 98.2028 17.2225 99.9468L86.6738 122.597C87.1828 122.763 87.7034 122.882 88.2197 122.951C89.9188 123.18 91.6397 122.879 93.1971 122.085C94.1313 121.608 94.9874 120.967 95.7437 120.182C97.197 118.672 98.2121 116.692 98.6807 114.457L99.5584 110.272L10.7686 81.3139Z" fill="black"/>
</g>
<g id="Group_4">
<path id="Vector_5" d="M108.633 68.4148L99.894 110.077L10.5518 80.9394L19.289 39.2776C20.0468 35.6638 22.1639 32.8917 24.8507 31.4904L24.8623 31.4846L25.1616 31.3357C26.0842 30.8975 27.069 30.6184 28.0856 30.5201H28.087C29.254 30.4058 30.463 30.5287 31.6676 30.9221L101.119 53.5722C106.589 55.3552 109.97 62.0347 108.633 68.4148Z" fill="white"/>
<path id="Vector_6" d="M99.8941 110.366C99.8638 110.366 99.8334 110.361 99.8045 110.351L10.4622 81.2141C10.3219 81.1678 10.238 81.0247 10.2684 80.8801L19.0057 39.2183C19.7548 35.6464 21.8357 32.7369 24.7163 31.2344C24.7177 31.2344 24.7307 31.2272 24.7322 31.2257L25.0315 31.0768C26.0019 30.6155 27.0185 30.332 28.0567 30.2323C28.0596 30.2323 28.0625 30.2323 28.0654 30.2323C29.3018 30.1122 30.544 30.2525 31.7558 30.6473L101.207 53.2974C106.828 55.1296 110.284 61.9378 108.915 68.4741L100.176 110.136C100.159 110.217 100.11 110.286 100.037 110.327C99.9925 110.353 99.9433 110.366 99.8927 110.366H99.8941ZM10.8888 80.7441L99.6772 109.701L108.349 68.3541C109.661 62.0968 106.377 55.5894 101.029 53.8454L31.578 31.1968C30.4399 30.8252 29.2744 30.695 28.1146 30.8078C28.1117 30.8078 28.1088 30.8078 28.1059 30.8078C27.137 30.9018 26.1884 31.1679 25.286 31.5959L24.991 31.742C22.2579 33.1678 20.2855 35.9342 19.5725 39.3354L10.8888 80.7427V80.7441Z" fill="black"/>
</g>
<g id="Group_5">
<path id="Vector_7" d="M84.25 122.111L71.831 133.35C70.1709 134.851 67.834 135.35 65.7054 134.656L35.4344 124.784C35.2956 124.739 35.1654 124.684 35.041 124.622C34.0967 124.143 33.5747 123.186 33.5747 122.211C33.5747 121.495 33.8581 120.771 34.4626 120.223L46.1181 109.675L55.5032 112.736L66.2534 116.241L74.8475 119.044L78.846 120.348L84.25 122.111Z" fill="white"/>
<path id="Vector_8" d="M67.6346 135.25C66.9578 135.25 66.2767 135.145 65.6159 134.931L35.3449 125.058C35.2003 125.012 35.0571 124.953 34.911 124.88C33.9075 124.371 33.2856 123.349 33.2856 122.211C33.2856 121.365 33.6342 120.583 34.269 120.009L45.9245 109.461C46.0011 109.391 46.1096 109.368 46.2079 109.4L84.3398 121.836C84.4382 121.868 84.5119 121.951 84.5336 122.05C84.5553 122.15 84.5206 122.256 84.4454 122.325L72.0264 133.564C70.8088 134.665 69.234 135.25 67.636 135.25H67.6346ZM46.1891 110.002L34.658 120.437C34.1475 120.899 33.8655 121.53 33.8655 122.211C33.8655 123.129 34.3673 123.955 35.1728 124.364C35.2914 124.423 35.4056 124.471 35.5242 124.509L65.7966 134.381C67.8211 135.041 70.0597 134.563 71.6388 133.136L83.6876 122.233L46.1891 110.003V110.002Z" fill="black"/>
</g>
<g id="Group_6">
<path id="Vector_9" d="M88.3598 123.314L71.831 138.273C70.1709 139.774 67.834 140.273 65.7054 139.579L35.4344 129.706C34.2428 129.317 33.5747 128.236 33.5747 127.135V122.211C33.5747 123.186 34.0967 124.143 35.041 124.622C35.1654 124.684 35.2956 124.739 35.4344 124.784L65.7054 134.656C67.834 135.35 70.1709 134.851 71.831 133.35L84.25 122.111L86.584 122.872C87.1162 123.046 87.6498 123.167 88.1805 123.238L88.3598 123.314Z" fill="#EBECEE"/>
<path id="Vector_10" d="M67.6346 140.173C66.9578 140.173 66.2767 140.067 65.6159 139.853L35.3449 129.981C34.1128 129.579 33.2856 128.435 33.2856 127.135V122.211C33.2856 122.052 33.4158 121.922 33.5749 121.922C33.7339 121.922 33.8641 122.052 33.8641 122.211C33.8641 123.129 34.3659 123.955 35.1713 124.364C35.2899 124.424 35.4042 124.471 35.5227 124.509L65.7952 134.381C67.8197 135.042 70.0582 134.564 71.6374 133.136L84.0564 121.897C84.133 121.828 84.2415 121.805 84.3398 121.837L86.6738 122.597C87.1828 122.763 87.7034 122.882 88.2197 122.951C88.2457 122.954 88.2703 122.962 88.2949 122.972L88.4742 123.048C88.5653 123.087 88.6289 123.17 88.6463 123.267C88.6622 123.364 88.6289 123.463 88.5552 123.528L72.0264 138.487C70.8088 139.587 69.234 140.173 67.6361 140.173H67.6346ZM33.8641 123.993V127.135C33.8641 128.185 34.5307 129.107 35.5242 129.431L65.7952 139.304C67.8197 139.965 70.0582 139.486 71.6374 138.059L87.7627 123.466C87.3376 123.391 86.9124 123.284 86.4945 123.148L84.3196 122.44L72.0249 133.566C70.2925 135.132 67.8356 135.655 65.6159 134.932L35.3449 125.06C35.2003 125.014 35.0571 124.954 34.911 124.882C34.4888 124.668 34.1331 124.363 33.8641 123.996V123.993Z" fill="black"/>
</g>
<path id="Vector_11" d="M33.5749 127.531C33.4158 127.531 33.2856 127.401 33.2856 127.242V127.135C33.2856 126.976 33.4158 126.845 33.5749 126.845C33.7339 126.845 33.8641 126.976 33.8641 127.135V127.242C33.8641 127.401 33.7339 127.531 33.5749 127.531Z" fill="black"/>
<g id="Group_7">
<path id="Vector_12" d="M62.1885 114.914V125.494L51.4382 121.987V111.409L62.1885 114.914Z" fill="white"/>
<path id="Vector_13" d="M62.1886 125.783C62.1582 125.783 62.1279 125.778 62.099 125.768L51.3487 122.262C51.2302 122.223 51.1492 122.111 51.1492 121.987V111.409C51.1492 111.316 51.194 111.229 51.2692 111.174C51.3444 111.119 51.4413 111.105 51.528 111.134L62.2783 114.639C62.3968 114.678 62.4778 114.79 62.4778 114.914V125.494C62.4778 125.586 62.433 125.673 62.3578 125.728C62.3072 125.764 62.2479 125.783 62.1886 125.783ZM51.7276 121.777L61.8994 125.096V115.125L51.7276 111.808V121.777Z" fill="black"/>
</g>
<g id="Group_8">
<path id="Vector_14" d="M70.7826 117.717L62.1885 125.494V114.914L70.7826 117.717Z" fill="#EBECEE"/>
<path id="Vector_15" d="M62.1886 125.783C62.1496 125.783 62.1091 125.774 62.0715 125.758C61.9674 125.712 61.8994 125.608 61.8994 125.494V114.914C61.8994 114.822 61.9442 114.735 62.0194 114.68C62.0946 114.625 62.1915 114.61 62.2783 114.639L70.8724 117.442C70.9707 117.474 71.0445 117.556 71.0662 117.656C71.0879 117.757 71.0532 117.861 70.978 117.931L62.3839 125.708C62.3289 125.757 62.2595 125.783 62.1901 125.783H62.1886ZM62.4778 115.313V124.843L70.2188 117.838L62.4778 115.313Z" fill="black"/>
</g>
<path id="Vector_16" d="M60.6109 81.9909C60.5184 81.9909 60.4273 81.9476 60.3723 81.8651L49.6105 66.1187L35.8871 75.4922C35.7555 75.5819 35.5748 75.5486 35.4851 75.417C35.3955 75.2854 35.4287 75.1047 35.5603 75.015L49.5223 65.478C49.6539 65.3884 49.8347 65.4216 49.9243 65.5532L60.8495 81.5383C60.9392 81.6699 60.9059 81.8507 60.7743 81.9403C60.7237 81.975 60.6673 81.9909 60.6109 81.9909Z" fill="black"/>
<path id="Vector_17" d="M60.6109 81.9909C60.5184 81.9909 60.4273 81.9475 60.3723 81.8651C60.2827 81.7335 60.3159 81.5527 60.4475 81.463L85.6775 64.23C85.809 64.1403 85.9898 64.1736 86.0795 64.3052C86.1691 64.4368 86.1359 64.6176 86.0043 64.7072L60.7743 81.9402C60.7252 81.975 60.6673 81.9909 60.6109 81.9909Z" fill="black"/>
</g>
<g id="Group_9">
<g id="Group_10">
<path id="Vector_18" d="M36.2401 28.5187L28.1276 33.0652L27.3395 26.1009L26.2751 16.6637L34.3906 12.1172L36.2401 28.5187Z" fill="#FF444F"/>
<path id="Vector_19" d="M28.1274 33.3544C28.0826 33.3544 28.0363 33.3443 27.9958 33.3226C27.909 33.2777 27.8512 33.1939 27.8411 33.0984L25.9886 16.6969C25.9756 16.5812 26.0335 16.4684 26.1347 16.412L34.2487 11.8641C34.3326 11.8163 34.4352 11.8149 34.522 11.8597C34.6088 11.9045 34.6666 11.9884 34.6767 12.0839L36.5277 28.4854C36.5407 28.6011 36.4829 28.7139 36.3817 28.7703L28.2677 33.3168C28.2243 33.3414 28.1751 33.3529 28.126 33.3529L28.1274 33.3544ZM26.583 16.8227L28.3646 32.5995L35.9305 28.3596L34.1504 12.5828L26.583 16.8227Z" fill="black"/>
</g>
<g id="Group_11">
<path id="Vector_20" d="M33.1727 41.4017L29.2234 50.8968L21.1094 55.4447L26.9834 41.3179L28.1489 41.3338L33.1727 41.4017Z" fill="#FF444F"/>
<path id="Vector_21" d="M21.1095 55.734C21.0401 55.734 20.9722 55.7095 20.9172 55.6603C20.8247 55.5779 20.7957 55.4477 20.842 55.3335L26.716 41.2081C26.7609 41.0982 26.8708 41.0259 26.9865 41.0302L33.1743 41.1141C33.2697 41.1141 33.3594 41.1647 33.4114 41.2442C33.4635 41.3238 33.4736 41.425 33.4375 41.5147L29.4882 51.0097C29.4636 51.069 29.4188 51.1196 29.3624 51.1514L21.2484 55.6979C21.2035 55.7225 21.1558 55.734 21.1067 55.734H21.1095ZM27.1759 41.6101L21.6981 54.7825L28.9951 50.693L32.7419 41.6853L27.1759 41.6101Z" fill="black"/>
</g>
<g id="Group_12">
<path id="Vector_22" d="M42.1166 41.5235L33.1726 41.4021L28.1488 41.3341L26.9833 41.3182L21.1093 55.445L19.2568 38.9625L5.28906 30.4595L20.3992 30.6648L20.5641 30.2701L22.3428 26.033L26.2747 16.6638L27.339 26.101L28.1271 33.0654L34.9296 37.178L42.1166 41.5235Z" fill="#FF7E88"/>
<path id="Vector_23" d="M21.1095 55.7342C21.0965 55.7342 21.082 55.7342 21.069 55.7313C20.9388 55.7125 20.8376 55.6084 20.8217 55.4768L18.9852 39.136L5.13887 30.7067C5.02753 30.6388 4.97547 30.5057 5.01162 30.3799C5.04777 30.2541 5.16346 30.176 5.29361 30.1702L20.2086 30.3727L22.0769 25.9202L26.0088 16.551C26.0594 16.4295 26.1867 16.3572 26.3168 16.376C26.447 16.3948 26.5482 16.4989 26.5627 16.6291L28.3992 32.8889L42.2672 41.2748C42.3786 41.3427 42.4321 41.4758 42.3959 41.6016C42.3598 41.7259 42.247 41.8113 42.1183 41.8113H42.1139L27.1773 41.6088L21.3785 55.5534C21.3336 55.6619 21.2266 55.7313 21.1109 55.7313L21.1095 55.7342ZM6.34491 30.7631L19.4074 38.7152C19.4841 38.7615 19.5347 38.841 19.5448 38.9292L21.2729 54.2997L26.7174 41.2068C26.7622 41.0969 26.8721 41.0246 26.9878 41.0289L41.0554 41.2198L27.977 33.3126C27.9003 33.2663 27.8497 33.1868 27.8396 33.0971L26.1115 17.799L20.667 30.7762C20.6221 30.8846 20.5166 30.954 20.3995 30.954H20.3951L6.34347 30.7631H6.34491Z" fill="black"/>
</g>
<g id="Group_13">
<path id="Vector_24" d="M50.2304 36.9753L42.1164 41.5232L34.9294 37.1777L28.127 33.0651L36.2395 28.5186L50.2304 36.9753Z" fill="#FF444F"/>
<path id="Vector_25" d="M42.1167 41.8126C42.0646 41.8126 42.0126 41.7981 41.9678 41.7707L27.9783 33.311C27.8901 33.2575 27.8366 33.1621 27.8395 33.058C27.8409 32.9553 27.8973 32.8613 27.987 32.8107L36.101 28.2642C36.1921 28.2136 36.3034 28.215 36.3916 28.2685L50.3811 36.7253C50.4693 36.7788 50.5228 36.8742 50.5199 36.9783C50.5185 37.081 50.4621 37.175 50.3724 37.2256L42.2584 41.7736C42.215 41.7981 42.1659 41.8112 42.1167 41.8112V41.8126ZM28.7013 33.0739L42.1225 41.1893L49.6566 36.9668L36.2355 28.8542L28.7013 33.0753V33.0739Z" fill="black"/>
</g>
<g id="Group_14">
<path id="Vector_26" d="M22.343 26.0328L20.5643 30.2699L20.3995 30.6647L5.28931 30.4593L13.4048 25.9114L22.343 26.0328Z" fill="#FF444F"/>
<path id="Vector_27" d="M20.3995 30.9538H20.3952L5.285 30.7485C5.15485 30.747 5.04061 30.6574 5.00879 30.5301C4.97698 30.4028 5.03338 30.2712 5.14762 30.2062L13.2631 25.6582C13.3079 25.6336 13.3571 25.6235 13.4091 25.6221L22.3474 25.7435C22.4428 25.7435 22.5325 25.7942 22.586 25.8737C22.6381 25.9547 22.6482 26.0559 22.6106 26.1441L20.667 30.7759C20.6222 30.8844 20.5167 30.9538 20.3995 30.9538ZM6.37101 30.1845L20.2086 30.3725L21.9107 26.3147L13.4785 26.2005L6.37101 30.1845Z" fill="black"/>
</g>
</g>
<g id="Group_15">
<g id="Group_16">
<path id="Vector_28" d="M99.6655 111.884L94.4812 114.789L93.978 110.34L93.2983 104.311L98.4826 101.406L99.6655 111.884Z" fill="#FF444F"/>
<path id="Vector_29" d="M94.4813 115.079C94.4365 115.079 94.3902 115.069 94.3497 115.047C94.2629 115.002 94.2051 114.918 94.195 114.823L93.0121 104.344C92.9991 104.229 93.0569 104.116 93.1581 104.06L98.3438 101.154C98.4277 101.107 98.5303 101.105 98.6171 101.15C98.7039 101.195 98.7617 101.279 98.7718 101.374L99.9547 111.853C99.9678 111.968 99.9099 112.081 99.8087 112.137L94.6245 115.043C94.5811 115.067 94.5319 115.079 94.4827 115.079H94.4813ZM93.6064 104.469L94.7199 114.324L99.3561 111.725L98.244 101.87L93.6064 104.469Z" fill="black"/>
</g>
<g id="Group_17">
<path id="Vector_30" d="M97.7043 120.117L95.1808 126.183L89.998 129.089L93.7506 120.063L94.4954 120.074L97.7043 120.117Z" fill="#FF444F"/>
<path id="Vector_31" d="M89.9982 129.378C89.9288 129.378 89.8608 129.353 89.8059 129.304C89.7133 129.221 89.6844 129.091 89.7307 128.977L93.4847 119.952C93.5296 119.842 93.638 119.777 93.7552 119.774L97.7088 119.828C97.8042 119.828 97.8939 119.878 97.9459 119.958C97.998 120.037 98.0081 120.139 97.972 120.228L95.4485 126.295C95.4239 126.354 95.3791 126.404 95.3227 126.436L90.1385 129.341C90.0937 129.366 90.0459 129.378 89.9968 129.378H89.9982ZM93.9431 120.356L90.5868 128.428L94.954 125.981L97.2749 120.402L93.9446 120.357L93.9431 120.356Z" fill="black"/>
</g>
<g id="Group_18">
<path id="Vector_32" d="M103.42 120.195L97.7048 120.117L94.4959 120.073L93.7511 120.063L89.9985 129.088L88.8142 118.558L79.8904 113.125L89.5445 113.257L89.65 113.003L90.7867 110.296L93.2985 104.311L93.9782 110.34L94.4814 114.789L98.8269 117.417L103.42 120.195Z" fill="#FF7E88"/>
<path id="Vector_33" d="M89.9985 129.377C89.9855 129.377 89.9711 129.377 89.958 129.375C89.8279 129.356 89.7267 129.252 89.7108 129.12L88.5438 118.73L79.7414 113.371C79.6301 113.303 79.578 113.17 79.6142 113.044C79.6503 112.918 79.766 112.84 79.8961 112.834L89.355 112.963L90.5206 110.184L93.0324 104.198C93.083 104.077 93.2103 104.004 93.3404 104.023C93.4706 104.042 93.5718 104.146 93.5863 104.276L94.7533 114.614L103.57 119.945C103.681 120.013 103.735 120.146 103.699 120.271C103.663 120.396 103.55 120.481 103.421 120.481H103.417L93.9435 120.352L90.2646 129.197C90.2198 129.305 90.1128 129.375 89.9971 129.375L89.9985 129.377ZM80.946 113.429L88.966 118.311C89.0427 118.357 89.0933 118.436 89.1034 118.525L90.1619 127.943L93.4851 119.95C93.5299 119.841 93.6383 119.775 93.7555 119.773L102.36 119.89L94.3325 115.037C94.2558 114.99 94.2052 114.911 94.1951 114.821L93.1365 105.446L89.8134 113.368C89.7686 113.476 89.663 113.546 89.5459 113.546H89.5416L80.946 113.429Z" fill="black"/>
</g>
<g id="Group_19">
<path id="Vector_34" d="M108.604 117.288L103.419 120.195L98.8267 117.417L94.4812 114.789L99.6654 111.884L108.604 117.288Z" fill="#FF444F"/>
<path id="Vector_35" d="M103.42 120.483C103.367 120.483 103.315 120.468 103.271 120.441L94.3323 115.037C94.2441 114.983 94.1906 114.888 94.1935 114.784C94.1949 114.681 94.2513 114.587 94.341 114.536L99.5252 111.631C99.6163 111.581 99.7277 111.582 99.8159 111.635L108.754 117.04C108.842 117.093 108.896 117.188 108.893 117.293C108.892 117.395 108.835 117.489 108.745 117.54L103.561 120.447C103.518 120.471 103.469 120.484 103.42 120.484V120.483ZM95.0553 114.8L103.425 119.859L108.03 117.278L99.6597 112.218L95.0553 114.798V114.8Z" fill="black"/>
</g>
<g id="Group_20">
<path id="Vector_36" d="M90.7867 110.296L89.65 113.003L89.5445 113.257L79.8904 113.125L85.0761 110.22L90.7867 110.296Z" fill="#FF444F"/>
<path id="Vector_37" d="M89.5443 113.546H89.5399L79.8858 113.415C79.7557 113.413 79.6414 113.323 79.6096 113.196C79.5778 113.069 79.6342 112.937 79.7484 112.872L84.9341 109.966C84.979 109.941 85.0281 109.929 85.0802 109.929L90.7908 110.008C90.8862 110.008 90.9759 110.058 91.0294 110.138C91.0814 110.219 91.0916 110.32 91.054 110.408L89.8132 113.367C89.7684 113.475 89.6628 113.545 89.5457 113.545L89.5443 113.546ZM80.9718 112.851L89.3534 112.965L90.3541 110.58L85.1496 110.509L80.9718 112.851Z" fill="black"/>
</g>
</g>
</g>
</g>
</g>
</svg>
