<svg width="128" height="128" viewBox="0 0 128 128" fill="none" xmlns="http://www.w3.org/2000/svg">
<g id="illustration / deriv / light / mobile-verified" clip-path="url(#clip0_409_561)">
<g id="Clip path group">
<mask id="mask0_409_561" style="mask-type:luminance" maskUnits="userSpaceOnUse" x="0" y="0" width="128" height="128">
<g id="clip0_18773_602479">
<path id="Vector" d="M128 0H0V128H128V0Z" fill="white"/>
</g>
</mask>
<g mask="url(#mask0_409_561)">
<g id="Group">
<path id="Vector_2" d="M0 32C0 27.5817 3.58172 24 8 24H40C44.4183 24 48 27.5817 48 32V96C48 100.418 44.4183 104 40 104H8C3.58172 104 0 100.418 0 96V32Z" fill="#E0F0F0"/>
<path id="Vector_3" fill-rule="evenodd" clip-rule="evenodd" d="M64 103.534C61.24 103.534 59 101.294 59 98.534C59 95.7707 61.24 93.534 64 93.534C66.76 93.534 69 95.7707 69 98.534C69 101.294 66.76 103.534 64 103.534ZM85.54 10.874H42.46C36.684 10.874 32 15.558 32 21.334V106.666C32 112.446 36.684 117.126 42.46 117.126H85.54C91.316 117.126 96 112.446 96 106.666V21.334C96 15.558 91.316 10.874 85.54 10.874Z" fill="#85ACAF"/>
<path id="Vector_4" fill-rule="evenodd" clip-rule="evenodd" d="M75.7432 64.9211H52.4189C50.8067 64.9211 49.5 63.6144 49.5 62.0022C49.5 60.3899 50.8067 59.0832 52.4189 59.0832H75.7432C77.3555 59.0832 78.6622 60.3899 78.6622 62.0022C78.6622 63.6144 77.3555 64.9211 75.7432 64.9211ZM77.5811 53.917H50.4189C48.8067 53.917 47.5 52.6103 47.5 50.9981C47.5 49.3858 48.8067 48.0791 50.4189 48.0791H77.5811C79.1933 48.0791 80.5 49.3858 80.5 50.9981C80.5 52.6103 79.1933 53.917 77.5811 53.917Z" fill="#E0F0F0"/>
<path id="Vector_5" d="M64.4293 26H63.5707C59.3951 26 56 29.5876 56 34C56 38.4124 59.3951 42 63.5707 42H64.4293C68.6049 42 72 38.4124 72 34C72 29.5876 68.6049 26 64.4293 26ZM67.9805 32.6804L62.9854 37.9588C62.9073 38.0412 62.7902 38.0825 62.7122 38.0825C62.6341 38.0825 62.5171 38.0412 62.439 37.9588L59.6293 34.9897C59.5512 34.9072 59.5122 34.7835 59.5122 34.701C59.5122 34.5773 59.5512 34.4948 59.6293 34.4124L60.8 33.1753C60.9561 33.0103 61.2293 33.0103 61.3854 33.1753L62.7122 34.5773L66.2634 30.8247C66.4195 30.6598 66.6927 30.6598 66.8488 30.8247L68.0195 32.0618C68.0976 32.1443 68.1366 32.268 68.1366 32.3505C68.1366 32.433 68.0585 32.5979 67.9805 32.6804Z" fill="#E0F0F0"/>
<g id="Group_2" style="mix-blend-mode:multiply">
<path id="Vector_6" fill-rule="evenodd" clip-rule="evenodd" d="M82.001 64C82.001 72.2166 86.3843 79.8102 93.5007 83.9195C100.617 88.0268 109.384 88.0268 116.5 83.9195C123.617 79.8102 128 72.2166 128 64C128 55.7834 123.617 48.1897 116.5 44.0805C109.384 39.9732 100.617 39.9732 93.5007 44.0805C86.3843 48.1897 82.001 55.7834 82.001 64Z" fill="#4BB4B3"/>
</g>
<path id="Vector_7" fill-rule="evenodd" clip-rule="evenodd" d="M101.744 73.1058L93.5005 64.8624L96.9543 61.4086L101.744 66.1983L113.045 54.894L116.5 58.3478L101.744 73.1058Z" fill="white"/>
</g>
</g>
</g>
</g>
<defs>
<clipPath id="clip0_409_561">
<rect width="128" height="128" fill="white"/>
</clipPath>
</defs>
</svg>
