<svg width="120" height="152" viewBox="0 0 120 152" fill="none" xmlns="http://www.w3.org/2000/svg">
<g id="illustration / deriv / light / set-limit">
<g id="Sec&#38;Res-illustration-03">
<g id="Layer 121 copy 6">
<g id="Group">
<g id="Group_2">
<path id="Vector" d="M112.39 81.65C112.38 83.3715 112.269 87.8086 110.92 93.3586C110.339 95.7529 109.212 100.266 106.292 105.511C103.749 110.08 101.082 112.991 100.46 113.657C97.9216 116.381 95.4088 118.294 93.4716 119.577C88.3331 122.063 83.1973 124.55 78.0588 127.036C79.8559 126.119 81.2631 125.22 82.2388 124.547C84.2502 123.164 88.0616 120.257 91.5288 115.436C94.4616 111.357 95.8288 107.744 96.7816 105.167C97.3745 103.564 98.8488 99.3286 99.5416 93.5929C99.8202 91.2743 100.287 86.12 99.3631 79.6143C99.1859 78.3715 98.3931 73.1029 95.8316 66.5872C94.6359 63.55 92.3202 58.3657 88.1745 52.6686C85.8788 49.5157 82.1559 44.4872 75.6216 39.8172C70.4431 36.1172 65.8516 34.3229 64.3445 33.7629C61.3916 32.6672 54.5816 30.22 45.6173 30.9443C40.0645 31.39 35.8959 32.8757 34.2102 33.5557C38.2816 31.5572 42.3488 29.5586 46.4202 27.5615C47.6545 27.0872 49.3316 26.5086 51.3616 26.0043C56.5231 24.72 60.7331 24.71 62.4888 24.7572C69.9545 24.9572 75.4902 27.2815 78.5145 28.5857C79.6202 29.0615 84.9402 31.4043 90.8016 36.1986C92.9059 37.9186 96.9645 41.4972 100.906 47.0157C103.664 50.8772 105.253 54.1272 106.159 56.0072C109.273 62.4586 110.554 67.7857 110.922 69.4072C111.506 71.98 112.419 76.1115 112.392 81.65H112.39Z" fill="#EBECEE"/>
<path id="Vector_2" d="M78.0574 127.321C77.9516 127.321 77.8516 127.263 77.8016 127.163C77.7316 127.023 77.7888 126.853 77.9273 126.781C79.3659 126.047 80.7616 125.216 82.0745 124.313C85.5888 121.897 88.7773 118.77 91.2945 115.27C94.2673 111.136 95.6173 107.484 96.5116 105.069C97.8273 101.51 98.7759 97.5299 99.2573 93.5599C99.7959 89.0785 99.7345 84.2699 99.0802 79.6557C98.8116 77.7614 97.9302 72.7057 95.5659 66.6928C93.6416 61.8057 91.0773 57.1442 87.9431 52.8385C85.8945 50.0242 82.0816 44.7871 75.4545 40.0514C71.9659 37.5599 67.9845 35.4214 64.2431 34.0328C61.6373 33.0657 54.7159 30.4971 45.6388 31.2299C40.3173 31.6571 36.2602 33.0371 34.3159 33.8214C34.1731 33.8799 34.0102 33.8128 33.9488 33.6728C33.8859 33.5328 33.9459 33.3671 34.0831 33.3C38.1545 31.3014 42.2216 29.3028 46.2931 27.3057C46.3002 27.3014 46.3088 27.2985 46.3159 27.2957C47.9345 26.6728 49.6073 26.1457 51.2902 25.7271C55.9559 24.5657 59.9588 24.4028 62.4945 24.4714C70.1673 24.6771 75.8802 27.1399 78.6259 28.3228C80.5302 29.1428 85.5459 31.5314 90.9802 35.9771C94.7359 39.0471 98.2488 42.8071 101.136 46.85C103.969 50.8142 105.559 54.1114 106.414 55.8828C109.257 61.7742 110.633 66.8457 111.199 69.3428C111.724 71.6585 112.704 75.9671 112.674 81.6499C112.654 85.4585 112.143 89.5299 111.197 93.4242C110.657 95.6457 109.534 100.27 106.54 105.649C104.172 109.904 101.644 112.801 100.667 113.851C98.5673 116.106 96.1988 118.111 93.6273 119.816C93.6159 119.823 93.6059 119.829 93.5945 119.834L78.1816 127.293C78.1416 127.313 78.0988 127.321 78.0574 127.321ZM48.8645 30.5285C56.4445 30.5285 62.1259 32.6371 64.4416 33.4957C68.2288 34.9028 72.2588 37.0642 75.7859 39.5857C82.4888 44.3757 86.3359 49.6614 88.4045 52.5014C91.5673 56.8471 94.1559 61.5499 96.0973 66.4828C98.4845 72.5528 99.3745 77.6599 99.6459 79.5742C100.309 84.2371 100.37 89.0957 99.8245 93.6271C99.3388 97.6414 98.3788 101.667 97.0488 105.266C96.1445 107.71 94.7773 111.404 91.7588 115.601C89.3831 118.904 86.4188 121.881 83.1459 124.254L93.3288 119.327C95.8573 117.651 98.1859 115.677 100.25 113.461C101.213 112.429 103.703 109.571 106.042 105.371C108.999 100.06 110.109 95.4871 110.643 93.29C111.579 89.4385 112.084 85.4128 112.104 81.6471C112.133 76.03 111.163 71.7628 110.642 69.47C110.08 66.9957 108.719 61.9714 105.9 56.1314C105.053 54.3757 103.476 51.1057 100.672 47.1814C97.8131 43.1799 94.3373 39.4571 90.6188 36.4199C85.2402 32.0199 80.2816 29.6585 78.4002 28.8471C75.6873 27.6785 70.0416 25.2457 62.4788 25.0428C59.9788 24.9757 56.0316 25.1357 51.4273 26.2814C49.7716 26.6928 48.1245 27.2128 46.5316 27.8242C43.7216 29.2028 40.9131 30.5828 38.1031 31.9614C40.1359 31.4114 42.6773 30.8942 45.5916 30.6599C46.7159 30.5685 47.8088 30.5285 48.8631 30.5285H48.8645Z" fill="black"/>
</g>
<g id="Group_3">
<path id="Vector_3" d="M26.8586 115.971C22.1629 111.257 19.4115 106.958 18.49 105.466C17.8858 104.486 15.8758 101.164 13.9786 96.4442C11.6058 90.5384 10.7115 85.6856 10.4172 83.9199C9.17147 76.4542 9.7029 70.6442 9.8529 69.1699C10.1543 66.2242 10.7358 60.9527 13.4729 54.687C16.7186 47.257 21.1058 42.7556 21.99 41.867C27.1215 36.7027 32.3043 34.3699 33.5643 33.8241C34.5057 33.417 39.1115 31.4699 45.6129 30.9456C54.5772 30.2227 61.3872 32.6684 64.34 33.7656C65.8472 34.3256 70.4386 36.1184 75.6172 39.8199C82.1529 44.4899 85.8757 49.517 88.1715 52.6699C92.3186 58.367 94.6343 63.5527 95.8286 66.5884C98.3915 73.1056 99.1829 78.3742 99.36 79.617C100.284 86.1227 99.8186 91.2756 99.5386 93.5956C98.8457 99.3299 97.3715 103.567 96.7786 105.17C95.8243 107.747 94.4586 111.36 91.5257 115.438C88.0586 120.26 84.2472 123.167 82.2372 124.55C80.1972 125.951 76.2972 128.336 70.87 129.833C62.2715 132.204 55.1786 130.876 52.0243 130.248C50.5072 129.947 45.3357 128.834 39.3515 125.618C33.2643 122.348 29.4486 118.574 26.8572 115.973L26.8586 115.971Z" fill="white"/>
<path id="Vector_4" d="M60.7716 131.468C56.7059 131.468 53.5716 130.844 51.9702 130.526C49.5487 130.044 44.673 128.797 39.2187 125.867C32.9702 122.51 29.0187 118.543 26.6573 116.171C22.5459 112.043 19.8144 108.151 18.2473 105.614C17.2959 104.073 15.4416 100.846 13.7144 96.5485C11.6259 91.3484 10.6159 86.8356 10.1359 83.9656C9.01159 77.2342 9.29873 71.787 9.57016 69.1399C9.84016 66.4999 10.4016 61.0056 13.213 54.5713C16.223 47.6827 20.213 43.2499 21.7902 41.6642C26.5944 36.8299 31.5473 34.387 33.453 33.5613C35.0916 32.8513 39.5559 31.147 45.593 30.6599C54.8044 29.9156 61.8059 32.517 64.4416 33.4956C68.2302 34.9027 72.2587 37.0656 75.7859 39.5856C82.4916 44.377 86.3373 49.6613 88.4044 52.4999C91.5716 56.8499 94.1587 61.5542 96.0959 66.4827C98.4816 72.5513 99.3716 77.6599 99.6444 79.5756C100.309 84.247 100.37 89.1056 99.823 93.6285C99.3359 97.6513 98.3773 101.676 97.0473 105.267C96.1416 107.713 94.773 111.41 91.7587 115.603C89.2044 119.156 85.9673 122.33 82.4002 124.783C78.9102 127.181 75.0573 128.971 70.9473 130.106C67.2145 131.136 63.7444 131.468 60.7716 131.468ZM27.0616 115.77C29.4002 118.118 33.3144 122.048 39.4887 125.366C44.8773 128.261 49.6916 129.491 52.0816 129.967C54.8187 130.511 62.0873 131.958 70.7944 129.556C74.843 128.438 78.6387 126.676 82.0745 124.313C85.5887 121.897 88.7759 118.771 91.293 115.27C94.263 111.14 95.6159 107.487 96.5102 105.068C97.8244 101.518 98.773 97.5384 99.2544 93.5584C99.7959 89.0856 99.7344 84.277 99.0773 79.6542C98.8087 77.7599 97.9273 72.7027 95.563 66.6899C93.643 61.807 91.0787 57.1456 87.9416 52.8342C85.8944 50.0213 82.083 44.7856 75.453 40.0484C71.9659 37.557 67.9845 35.4199 64.2416 34.0299C61.6387 33.0627 54.7216 30.4956 45.6373 31.227C39.6859 31.707 35.2916 33.3842 33.6787 34.0827C31.803 34.8956 26.9287 37.2999 22.193 42.0642C20.6402 43.627 16.7059 47.997 13.7344 54.7984C10.9587 61.1513 10.403 66.5842 10.1359 69.1956C9.8673 71.8142 9.58444 77.2042 10.6973 83.8699C11.1716 86.7127 12.1716 91.1813 14.2416 96.3342C15.9516 100.591 17.7887 103.787 18.7302 105.313C20.2816 107.824 22.9859 111.677 27.0587 115.767L27.0616 115.77Z" fill="black"/>
</g>
<path id="Vector_5" d="M55.5502 105.564C54.273 105.564 52.1473 105.386 49.773 104.447C47.8488 103.687 46.5759 102.746 45.6473 102.058C43.9316 100.79 42.4288 99.2956 41.1773 97.617C40.0259 96.0699 39.0402 94.2699 38.3302 92.4128C37.6788 90.7099 37.2388 88.917 37.023 87.087C36.9345 86.3385 36.8845 85.5785 36.873 84.8256L36.893 71.5299C36.8945 70.5427 36.993 69.5513 37.1873 68.5842C37.3102 67.9727 37.5388 66.8327 38.1573 65.5142C38.4402 64.9099 39.1045 63.4927 40.5516 62.1142C41.7588 60.9642 42.9916 60.3256 43.8145 59.9927C44.7559 59.6113 45.753 59.3713 46.7802 59.2799C47.3602 59.2285 47.9473 59.2256 48.5288 59.2727L56.4716 60.2927C57.0488 60.3685 57.6159 60.5099 58.1588 60.7113C58.7659 60.937 59.5973 61.2456 60.3688 62.017C61.0116 62.6599 61.3188 63.3313 61.4659 63.6527C61.6902 64.1427 61.8488 64.6627 61.9388 65.1956C61.9416 65.2113 61.943 65.227 61.943 65.2442L61.903 80.7899C62.543 79.6342 63.6388 79.1599 63.973 79.0385C64.3959 78.8856 64.8416 78.807 65.3002 78.8056C65.3102 78.7999 65.3259 78.8056 65.3388 78.8085L67.483 79.097C67.9788 79.1385 68.4559 79.2999 68.8645 79.5656C69.0645 79.6956 69.5959 80.0399 69.8988 80.7327C70.0559 81.0913 70.1259 81.4927 70.1045 81.8913C70.0873 83.8499 70.0873 85.7785 70.1045 87.627L70.1088 88.0542C70.1145 88.6585 70.1173 88.9099 70.1045 89.3328C70.0745 90.3085 70.0116 92.3385 69.4359 94.4927C69.1759 95.4642 68.5688 97.737 66.7916 100.051C65.103 102.25 63.1859 103.453 62.1945 103.976C61.363 104.413 59.0988 105.441 56.0216 105.554C55.8816 105.56 55.7245 105.563 55.5516 105.563L55.5502 105.564ZM47.7016 59.8085C47.4116 59.8085 47.1202 59.8213 46.8316 59.847C45.8745 59.9313 44.9059 60.1642 44.0302 60.5199C43.2545 60.8342 42.0888 61.437 40.9473 62.5256C39.5773 63.8299 38.9459 65.1785 38.6759 65.7542C38.0873 67.0113 37.8759 68.0642 37.7502 68.6942C37.563 69.6256 37.4688 70.5799 37.4673 71.5285L37.4473 84.8199C37.4588 85.5485 37.5073 86.2885 37.593 87.0185C37.803 88.8013 38.2316 90.547 38.8673 92.207C39.5602 94.017 40.5188 95.7699 41.6402 97.2742C42.8402 98.8842 44.3445 100.38 45.9916 101.598C46.8945 102.267 48.133 103.183 49.9873 103.916C52.5845 104.943 54.8702 105.027 56.003 104.986C58.963 104.877 61.1345 103.891 61.9302 103.473C62.8816 102.973 64.7188 101.817 66.3416 99.7056C68.0502 97.4813 68.6159 95.3642 68.8873 94.347C69.4459 92.257 69.5073 90.2699 69.5359 89.3156C69.5488 88.9042 69.5459 88.6742 69.5402 88.0613L69.5359 87.6327C69.5188 85.7785 69.5188 83.8427 69.5359 81.8799C69.5359 81.8756 69.5359 81.8699 69.5359 81.8656C69.5545 81.5527 69.5002 81.2399 69.3773 80.9613C69.143 80.4256 68.7316 80.1585 68.5559 80.0442C68.1359 79.7727 67.713 79.6885 67.4316 79.6656C67.4259 79.6656 67.4216 79.6656 67.4159 79.6642L65.2845 79.3785C64.8988 79.3813 64.5245 79.447 64.1702 79.5756C63.8702 79.6842 62.853 80.1256 62.3273 81.2185C62.1573 81.5713 62.0559 81.9556 62.0259 82.3599L61.8916 86.5499C61.8859 86.7056 61.7602 86.827 61.6016 86.827C61.4459 86.8242 61.3202 86.697 61.3202 86.5413L61.3745 65.2685C61.293 64.7927 61.1502 64.3285 60.9502 63.8913C60.8073 63.577 60.5402 62.9913 59.9688 62.4213C59.2845 61.7385 58.5516 61.4656 57.963 61.247C57.4602 61.0599 56.9345 60.9299 56.4016 60.8585L48.473 59.8399C48.2202 59.8199 47.963 59.8099 47.703 59.8099L47.7016 59.8085Z" fill="black"/>
<path id="Vector_6" d="M55.3787 79.6871C55.2216 79.6871 55.093 79.5585 55.093 79.4014V60.4385C55.093 60.2814 55.2216 60.1528 55.3787 60.1528C55.5359 60.1528 55.6644 60.2814 55.6644 60.4385V79.4014C55.6644 79.5585 55.5359 79.6871 55.3787 79.6871Z" fill="black"/>
<path id="Vector_7" d="M48.7315 78.5229C48.5744 78.5229 48.4458 78.3943 48.4458 78.2372V59.5843C48.4458 59.4272 48.5744 59.2986 48.7315 59.2986C48.8887 59.2986 49.0172 59.4272 49.0172 59.5843V78.2372C49.0172 78.3943 48.8887 78.5229 48.7315 78.5229Z" fill="black"/>
<path id="Vector_8" d="M42.0845 78.9514C41.9274 78.9514 41.7988 78.8228 41.7988 78.6656V61.2442C41.7988 61.0871 41.9274 60.9585 42.0845 60.9585C42.2417 60.9585 42.3703 61.0871 42.3703 61.2442V78.6656C42.3703 78.8228 42.2417 78.9514 42.0845 78.9514Z" fill="black"/>
<g id="Group_4">
<path id="Vector_9" d="M46.9001 111.023V120.336C46.9001 121.988 42.623 123.768 37.223 124.803H37.2201C34.3973 125.344 31.273 125.683 28.2859 125.693C25.2887 125.703 22.1644 125.384 19.3473 124.858H19.3444C13.9044 123.848 9.61157 122.073 9.61157 120.42V111.106C9.61157 113.026 15.4044 115.111 22.0573 115.971C24.0987 116.237 26.223 116.386 28.2859 116.377C30.3344 116.37 32.4501 116.208 34.4887 115.933C41.1044 115.041 46.8987 112.946 46.8987 111.021L46.9001 111.023Z" fill="#FF7E88"/>
<path id="Vector_10" d="M28.1574 125.978C25.3103 125.978 22.256 125.69 19.3102 125.143C19.3045 125.143 19.2988 125.141 19.2945 125.14C14.6974 124.286 9.32739 122.538 9.32739 120.421V111.107C9.32739 110.95 9.45596 110.821 9.61311 110.821C9.77025 110.821 9.89882 110.95 9.89882 111.107C9.89882 111.471 10.2445 112.451 13.4431 113.67C15.7488 114.548 18.8217 115.266 22.096 115.688C24.2145 115.964 26.2931 116.098 28.286 116.091C30.2674 116.084 32.3417 115.936 34.4517 115.648C37.716 115.208 40.7788 114.48 43.0731 113.596C46.2688 112.366 46.6145 111.384 46.6145 111.02C46.6145 110.863 46.7431 110.734 46.9002 110.734C47.0574 110.734 47.186 110.863 47.186 111.02V120.333C47.186 122.436 41.8488 124.204 37.2774 125.081C37.2717 125.081 37.266 125.083 37.2588 125.084C34.2603 125.658 31.1588 125.967 28.2874 125.976C28.2445 125.976 28.2002 125.976 28.156 125.976L28.1574 125.978ZM19.3845 124.576C19.3845 124.576 19.396 124.577 19.4017 124.578C22.3174 125.121 25.3417 125.407 28.1574 125.407C28.2003 125.407 28.2431 125.407 28.286 125.407C31.1274 125.398 34.1974 125.093 37.1674 124.523C37.1731 124.523 37.1788 124.521 37.186 124.52C43.3774 123.331 46.616 121.516 46.616 120.336V112.218C45.8631 113.008 44.4917 113.664 43.2803 114.131C40.9445 115.03 37.8374 115.771 34.5303 116.217C32.396 116.506 30.296 116.657 28.2902 116.664C26.2731 116.671 24.1674 116.534 22.0231 116.256C18.706 115.827 15.586 115.098 13.2402 114.204C12.026 113.741 10.6531 113.088 9.90025 112.301V120.421C9.90025 121.807 13.8888 123.554 19.386 124.576H19.3845Z" fill="black"/>
</g>
<g id="Group_5">
<path id="Vector_11" d="M46.9002 120.336V128.841C46.9002 130.671 41.6616 132.656 35.4616 133.613H35.4602C33.1302 133.973 30.663 134.19 28.2873 134.199C25.8973 134.206 23.4273 134.006 21.0945 133.657H21.093C14.8559 132.729 9.61304 130.751 9.61304 128.926V120.421C9.61304 122.073 13.9059 123.85 19.3459 124.86H19.3488C22.1659 125.384 25.2902 125.703 28.2873 125.694C31.273 125.684 34.3988 125.346 37.2216 124.804H37.2245C42.6245 123.77 46.9016 121.99 46.9016 120.337L46.9002 120.336Z" fill="#FF7E88"/>
<path id="Vector_12" d="M28.156 134.484C25.9002 134.484 23.4502 134.297 21.0602 133.94C21.056 133.94 21.0531 133.94 21.0503 133.94C15.4045 133.099 9.32739 131.171 9.32739 128.926V120.421C9.32739 120.264 9.45596 120.136 9.61311 120.136C9.77025 120.136 9.89882 120.264 9.89882 120.421C9.89882 121.807 13.8874 123.554 19.3845 124.576C19.3902 124.576 19.396 124.577 19.4017 124.579C22.3174 125.121 25.3417 125.407 28.1574 125.407C28.2002 125.407 28.2431 125.407 28.286 125.407C31.1274 125.399 34.1974 125.093 37.1674 124.523C37.1731 124.523 37.1788 124.521 37.186 124.52C43.3774 123.331 46.616 121.516 46.616 120.336C46.616 120.179 46.7445 120.05 46.9017 120.05C47.0588 120.05 47.1874 120.179 47.1874 120.336V128.841C47.1874 129.857 45.9845 130.859 43.6145 131.819C41.4945 132.677 38.6145 133.414 35.506 133.896C35.5017 133.896 35.4988 133.896 35.4945 133.897C33.0574 134.274 30.566 134.477 28.2888 134.484C28.2445 134.484 28.2002 134.484 28.156 134.484ZM21.1245 133.373C21.1245 133.373 21.1317 133.373 21.1345 133.373C23.546 133.733 26.0188 133.917 28.2845 133.911C30.536 133.904 33.0017 133.703 35.4145 133.33C35.4188 133.33 35.4217 133.33 35.426 133.329C41.7002 132.357 46.6131 130.387 46.6131 128.84V121.53C45.1174 123.097 40.9488 124.379 37.276 125.081C37.2702 125.081 37.2645 125.083 37.2574 125.084C34.2588 125.659 31.1574 125.967 28.286 125.976C28.2431 125.976 28.1988 125.976 28.1545 125.976C25.3074 125.976 22.2531 125.687 19.3074 125.14C19.3017 125.14 19.296 125.139 19.2917 125.137C15.5945 124.45 11.3988 123.186 9.89596 121.616V128.923C9.89596 129.65 11.0702 130.539 13.1174 131.36C15.2074 132.199 18.0502 132.913 21.1231 133.37L21.1245 133.373Z" fill="black"/>
</g>
<g id="Group_6">
<path id="Vector_13" d="M46.9 128.841V137.88C46.9543 140.401 37.0072 143.227 28.2858 143.256C19.4872 143.287 9.56719 140.481 9.61148 137.967V128.926C9.61148 130.751 14.8529 132.728 21.0915 133.657H21.0929C23.4272 134.006 25.8958 134.207 28.2858 134.198C30.6615 134.191 33.1286 133.974 35.4586 133.613H35.46C41.66 132.654 46.8986 130.67 46.8986 128.841H46.9Z" fill="#FF7E88"/>
<path id="Vector_14" d="M28.1416 143.541C20.6959 143.541 12.2159 141.533 9.93301 139.22C9.52301 138.804 9.31872 138.381 9.32586 137.963V128.927C9.32586 128.77 9.45444 128.641 9.61158 128.641C9.76872 128.641 9.89729 128.77 9.89729 128.927C9.89729 129.654 11.0716 130.543 13.1187 131.364C15.2087 132.203 18.0516 132.917 21.1244 133.374C21.1287 133.374 21.1316 133.374 21.1359 133.374C23.5473 133.734 26.0202 133.919 28.2859 133.913C30.5373 133.906 33.003 133.704 35.4159 133.331C35.4202 133.331 35.423 133.331 35.4273 133.33C41.7016 132.359 46.6144 130.389 46.6144 128.841C46.6144 128.684 46.743 128.556 46.9002 128.556C47.0573 128.556 47.1859 128.684 47.1859 128.841V137.88C47.1944 138.291 46.9944 138.713 46.5887 139.129C44.3202 141.454 35.7687 143.517 28.2873 143.541C28.2387 143.541 28.1902 143.541 28.1416 143.541ZM9.89729 130.123V137.967C9.89301 138.231 10.0416 138.516 10.3387 138.819C12.5073 141.017 21.0673 143 28.2844 142.97C35.5087 142.946 44.0387 140.924 46.1787 138.729C46.473 138.427 46.6187 138.144 46.613 137.886V130.047C46.0402 130.649 45.0373 131.241 43.6116 131.819C41.4916 132.677 38.6116 133.414 35.503 133.896C35.4987 133.896 35.4959 133.896 35.4916 133.897C33.0544 134.274 30.563 134.477 28.2859 134.484C28.2416 134.484 28.1973 134.484 28.153 134.484C25.8973 134.484 23.4473 134.297 21.0573 133.94C21.053 133.94 21.0502 133.94 21.0473 133.94C16.4344 133.253 11.5359 131.841 9.89586 130.123H9.89729Z" fill="black"/>
</g>
<g id="Group_7">
<path id="Vector_15" d="M46.9002 111.001V111.021C46.9002 112.944 41.1059 115.041 34.4902 115.933C32.4516 116.208 30.3345 116.37 28.2873 116.377C26.2259 116.384 24.1002 116.237 22.0588 115.971C15.4059 115.111 9.61304 113.025 9.61304 111.105V111.088C9.65875 108.583 19.6016 106.434 27.4202 106.284C36.2416 106.117 46.8473 108.41 46.9016 111.001H46.9002Z" fill="#FF444F"/>
<path id="Vector_16" d="M28.1288 116.664C26.1617 116.664 24.1088 116.527 22.0217 116.256C18.7045 115.827 15.5845 115.098 13.2388 114.204C11.4545 113.524 9.32739 112.434 9.32739 111.107V111.09C9.35739 109.421 12.7188 108.233 15.5317 107.527C19.0488 106.646 23.4903 106.074 27.4131 106C35.3345 105.851 47.1202 107.883 47.186 110.997V111.023C47.186 112.35 45.0617 113.446 43.2788 114.131C40.9431 115.03 37.836 115.771 34.5288 116.217C32.3945 116.506 30.2945 116.657 28.2888 116.664C28.236 116.664 28.1831 116.664 28.1288 116.664ZM28.3302 106.561C28.026 106.561 27.7231 106.564 27.4245 106.57C18.9445 106.733 9.93454 109.058 9.89882 111.094V111.106C9.89882 111.47 10.2445 112.45 13.4431 113.668C15.7488 114.547 18.8217 115.264 22.096 115.687C24.2145 115.963 26.2931 116.097 28.286 116.09C30.2674 116.083 32.3417 115.934 34.4517 115.647C37.716 115.207 40.7788 114.478 43.0731 113.594C46.2688 112.364 46.6145 111.383 46.6145 111.018V111.001C46.5888 109.967 44.2017 108.773 40.3817 107.883C36.7731 107.041 32.3345 106.557 28.3288 106.557L28.3302 106.561Z" fill="black"/>
</g>
</g>
</g>
</g>
</g>
</svg>
