<svg width="96" height="96" viewBox="0 0 96 96" fill="none" xmlns="http://www.w3.org/2000/svg">
<g id="illustration / deriv / dark / pay-user" clip-path="url(#clip0_3040_323)">
<g id="Clip path group">
<mask id="mask0_3040_323" style="mask-type:luminance" maskUnits="userSpaceOnUse" x="0" y="0" width="96" height="96">
<g id="clip0_4147_38280">
<path id="Vector" d="M96 0H0V96H96V0Z" fill="white"/>
</g>
</mask>
<g mask="url(#mask0_3040_323)">
<g id="Group">
<path id="Vector_2" d="M66.3401 82.6801H29.6601C20.6401 82.6801 13.3101 75.3501 13.3101 66.3301V29.6601C13.3101 20.6401 20.6401 13.3101 29.6601 13.3101H66.3301C75.3501 13.3101 82.6801 20.6401 82.6801 29.6601V66.3301C82.6801 75.3501 75.3501 82.6801 66.3301 82.6801H66.3401ZM29.6601 19.3101C23.9501 19.3101 19.3101 23.9501 19.3101 29.6601V66.3301C19.3101 72.0401 23.9501 76.6801 29.6601 76.6801H66.3301C72.0401 76.6801 76.6801 72.0401 76.6801 66.3301V29.6601C76.6801 23.9501 72.0401 19.3101 66.3301 19.3101H29.6601Z" fill="#EBECEF"/>
<path id="Vector_3" d="M20 40C31.0457 40 40 31.0456 40 20C40 8.95431 31.0457 0 20 0C8.9543 0 0 8.95431 0 20C0 31.0456 8.9543 40 20 40Z" fill="#FF444F"/>
<path id="Vector_4" d="M26.8599 23.6601C26.8599 20.6901 25.2999 19.02 21.1399 17.86C18.1599 17.02 17.4999 16.4801 17.4999 15.26C17.4999 14.4 18.0099 13.35 19.7999 13.35C21.9299 13.35 22.2899 14.6 22.4899 15.37H26.4399C26.2299 13.2 24.9999 11.06 21.5399 10.54V8.75H18.2299V10.5601C15.5899 11.0601 13.5199 12.8101 13.5199 15.63C13.5199 18.25 14.8899 19.9801 19.5899 21.3301C22.1699 22.0701 22.8899 22.73 22.8899 24.1C22.8899 25.21 22.2299 26.2001 20.1699 26.2001C18.5099 26.2001 17.3999 25.29 17.0799 23.86H13.1299C13.3499 26.55 15.1899 28.51 18.4099 29V31.2401H21.7399V29C24.7899 28.5401 26.8599 26.8001 26.8599 23.6601Z" fill="white"/>
<path id="Vector_5" d="M88 51.0103H56.52C52.1017 51.0103 48.52 54.592 48.52 59.0103V88.0003C48.52 92.4185 52.1017 96.0003 56.52 96.0003H88C92.4183 96.0003 96 92.4185 96 88.0003V59.0103C96 54.592 92.4183 51.0103 88 51.0103Z" fill="#CED0D6"/>
<path id="Vector_6" d="M80.0502 66.6305C81.1002 72.2105 76.3001 77.0205 70.7102 75.9605C67.5901 75.3705 65.0702 72.8505 64.4802 69.7305C63.4302 64.1505 68.2302 59.3405 73.8202 60.4005C76.9402 60.9905 79.4602 63.5105 80.0502 66.6305Z" fill="#5C616D"/>
<path id="Vector_7" d="M64.7701 78.3101H79.7401C83.4501 78.3101 86.4501 81.3101 86.4501 85.0201V96.0001H58.0601V85.0201C58.0601 81.3101 61.0601 78.3101 64.7701 78.3101Z" fill="#5C616D"/>
</g>
</g>
</g>
</g>
<defs>
<clipPath id="clip0_3040_323">
<rect width="96" height="96" fill="white"/>
</clipPath>
</defs>
</svg>
