<svg width="120" height="152" viewBox="0 0 120 152" fill="none" xmlns="http://www.w3.org/2000/svg">
<g id="illustration / deriv / light / ic-success-passkey" clip-path="url(#clip0_1118_257)">
<g id="illustration">
<path id="Vector" d="M114.803 86.0503C114.792 87.765 114.729 91.2452 112.658 94.6066C112.262 95.2477 111.814 95.8511 111.318 96.41L100.539 106.832C101.618 105.773 102.51 104.522 103.173 103.134C104.847 99.6115 104.492 96.3166 104.246 94.0461C103.556 87.6558 100.283 83.3618 98.8279 81.5061C97.3789 79.6536 93.5284 74.8704 86.8939 72.9909C84.5764 72.3339 80.7244 71.2445 76.5244 73.0891C75.8434 73.3868 74.2744 74.1499 72.7024 75.6367L84.0214 64.3792C85.4479 63.4814 88.3114 61.963 92.1274 61.8617C95.3074 61.7778 97.6489 62.7183 99.2269 63.3722C100.325 63.8266 105.747 66.1779 110.033 72.3766C111.287 74.1895 114.842 79.329 114.803 86.0503Z" fill="#FF444F"/>
<path id="Vector_2" d="M100.539 107.129C100.483 107.129 100.428 107.111 100.381 107.078C100.334 107.044 100.298 106.997 100.277 106.941C100.256 106.886 100.251 106.825 100.264 106.767C100.276 106.708 100.305 106.655 100.346 106.615C101.4 105.58 102.272 104.356 102.921 103C104.556 99.5592 104.216 96.3925 103.967 94.0808C103.269 87.6398 99.8854 83.3205 98.6104 81.6944C97.3459 80.081 93.4999 75.1679 86.8204 73.2774C84.5479 72.6346 80.7439 71.5564 76.6309 73.3629C75.2611 73.9686 73.9967 74.8114 72.8899 75.8567C72.8626 75.8832 72.8306 75.9038 72.7958 75.9172C72.761 75.9307 72.724 75.9368 72.687 75.9352C72.6499 75.9336 72.6135 75.9243 72.5799 75.9078C72.5462 75.8914 72.516 75.8681 72.4909 75.8393C72.4658 75.8105 72.4463 75.7767 72.4335 75.74C72.4207 75.7032 72.415 75.6642 72.4165 75.6251C72.418 75.586 72.4268 75.5476 72.4424 75.512C72.458 75.4765 72.4801 75.4446 72.5074 75.4181L83.8264 64.1606C83.8414 64.1464 83.8564 64.1337 83.8759 64.1226C86.4154 62.5234 89.2654 61.6384 92.1184 61.5639C95.4229 61.4784 97.8679 62.4886 99.3289 63.095C101.282 63.9025 106.254 66.4089 110.258 72.1992C111.462 73.9408 115.122 79.2339 115.082 86.0502C115.073 87.6098 115.052 91.2625 112.89 94.7664C112.486 95.4213 112.028 96.0379 111.522 96.6094L111.507 96.6253L101.628 106.176L100.728 107.048C100.677 107.099 100.609 107.127 100.538 107.128L100.539 107.129ZM81.4489 71.7701C83.6689 71.7701 85.5889 72.3132 86.9659 72.7043C93.8209 74.6454 97.7509 79.6662 99.0439 81.3176C100.347 82.9801 103.809 87.3976 104.525 94.0128C104.768 96.2674 105.134 99.6684 103.424 103.267C103.304 103.519 103.176 103.766 103.041 104.008L111.119 96.1994C111.599 95.6531 112.037 95.0641 112.419 94.4434C114.489 91.0868 114.51 87.5559 114.519 86.0486C114.56 79.4271 111.105 74.4333 109.805 72.5523C105.887 66.8871 101.03 64.4393 99.1234 63.6492C97.7014 63.0602 95.3224 62.0738 92.1334 62.1593C89.3854 62.2321 86.6404 63.0808 84.1894 64.6182L75.5014 73.26C77.3425 72.2702 79.3827 71.7593 81.4489 71.7701Z" fill="black"/>
<path id="Vector_3" d="M105.813 101.732L105.795 111.708L95.4708 121.903C95.4708 117.961 95.4663 114.014 95.4648 110.068C96.2958 109.754 98.5068 108.839 100.539 106.832L105.813 101.732Z" fill="#FF444F"/>
<path id="Vector_4" d="M95.4709 122.201C95.3961 122.201 95.3243 122.17 95.2715 122.114C95.2186 122.058 95.1889 121.982 95.1889 121.903L95.1829 110.068C95.1829 109.941 95.2579 109.83 95.3704 109.789C97.2155 109.096 98.9088 108.016 100.349 106.615L105.624 101.513C105.665 101.474 105.715 101.448 105.769 101.439C105.824 101.43 105.879 101.438 105.929 101.463C106.031 101.51 106.095 101.616 106.095 101.733L106.079 111.71C106.079 111.751 106.07 111.791 106.055 111.828C106.039 111.865 106.017 111.899 105.989 111.927L95.6644 122.122C95.612 122.173 95.542 122.201 95.4709 122.201ZM95.7469 110.277L95.7514 121.218L105.515 111.578L105.53 102.408L100.73 107.05C99.2848 108.459 97.5918 109.556 95.7469 110.277Z" fill="black"/>
<path id="Vector_5" d="M105.783 120.969C102.335 124.388 98.8893 127.809 95.4408 131.229L90.9573 125.358L95.4708 121.903L101.789 115.665L105.783 120.969Z" fill="#FF444F"/>
<path id="Vector_6" d="M95.4409 131.527H95.4214C95.3827 131.524 95.3451 131.512 95.3108 131.493C95.2765 131.474 95.2462 131.448 95.2219 131.416L90.7369 125.545C90.713 125.513 90.6955 125.477 90.6852 125.438C90.6748 125.399 90.672 125.359 90.6768 125.319C90.6818 125.279 90.6945 125.241 90.7141 125.206C90.7337 125.172 90.7599 125.142 90.7908 125.119L95.2908 121.675L95.6629 121.308L101.595 115.45C101.624 115.421 101.657 115.4 101.694 115.386C101.73 115.372 101.769 115.367 101.808 115.37C101.847 115.373 101.885 115.384 101.919 115.403C101.954 115.423 101.984 115.449 102.008 115.481L106.002 120.785C106.046 120.844 106.068 120.917 106.063 120.991C106.058 121.066 106.027 121.135 105.975 121.186L98.9464 128.159L95.6314 131.448C95.5794 131.499 95.5108 131.528 95.4394 131.528L95.4409 131.527ZM91.3624 125.415L95.4693 130.794L98.5623 127.724L105.402 120.939L101.757 116.104L96.0484 121.74L95.6629 122.12C95.655 122.129 95.6465 122.137 95.6374 122.144L91.3624 125.415Z" fill="black"/>
<path id="Vector_7" d="M105.776 130.247L95.4243 140.531C93.9393 138.571 92.4498 136.611 90.9648 134.649L95.4408 131.229L101.78 124.938L105.776 130.247Z" fill="#FF444F"/>
<path id="Vector_8" d="M95.4244 140.829H95.4049C95.3661 140.826 95.3284 140.815 95.2941 140.796C95.2597 140.777 95.2295 140.75 95.2054 140.718L90.7444 134.834C90.7205 134.803 90.7029 134.767 90.6928 134.728C90.6826 134.689 90.68 134.648 90.6852 134.608C90.6904 134.568 90.7033 134.53 90.723 134.495C90.7427 134.46 90.7688 134.43 90.7999 134.407C92.2879 133.273 93.7744 132.136 95.2624 130.998L101.588 124.722C101.616 124.693 101.65 124.672 101.686 124.658C101.723 124.644 101.762 124.639 101.801 124.642C101.84 124.645 101.877 124.656 101.912 124.675C101.946 124.695 101.976 124.721 102 124.753L105.998 130.061C106.042 130.119 106.064 130.193 106.059 130.267C106.054 130.342 106.022 130.412 105.971 130.463L95.6179 140.748C95.5657 140.799 95.4971 140.828 95.4259 140.827L95.4244 140.829ZM91.3684 134.708L95.4529 140.096L105.393 130.219L101.748 125.377L95.6329 131.446C95.624 131.455 95.6145 131.463 95.6044 131.47L91.3684 134.708Z" fill="black"/>
<path id="Vector_9" d="M90.8839 88.2986C90.8674 88.6627 90.8344 89.2359 90.5239 89.8645C90.4489 90.0101 90.0589 90.767 89.2369 91.2404C88.0174 91.9371 86.7244 91.5127 86.1169 91.3132C84.7519 90.8636 83.9464 89.9484 83.5369 89.4734C83.1364 89.0047 82.0684 87.7571 81.9589 85.9236C81.9334 85.5056 81.8989 84.7804 82.2514 83.9729C82.3669 83.7116 82.7914 82.7775 83.7814 82.2946C84.4564 81.9684 85.0654 82.0096 85.5304 82.0476C87.3214 82.1948 88.5394 83.3538 88.9279 83.7322C89.2219 84.0204 90.0859 84.9197 90.5734 86.3653C90.7129 86.7801 90.9244 87.4325 90.8839 88.2986Z" fill="#FF444F"/>
<path id="Vector_10" d="M87.7413 91.9198C87.0138 91.9198 86.3853 91.7123 86.0328 91.5968C84.5733 91.117 83.7333 90.1417 83.3313 89.6746C82.9083 89.1806 81.7953 87.8775 81.6783 85.9427C81.6558 85.5548 81.6063 84.7473 81.9963 83.8495C82.4673 82.7839 83.1633 82.2709 83.6643 82.0271C84.4218 81.6582 85.1043 81.7152 85.5543 81.7516C86.8293 81.8561 88.0278 82.4498 89.1198 83.5138C89.5608 83.9477 90.3723 84.8803 90.8388 86.2657C90.9693 86.6536 91.2108 87.374 91.1658 88.3145C91.1508 88.6597 91.1193 89.3025 90.7713 90.0023C90.449 90.6327 89.963 91.1529 89.3703 91.5018C88.8688 91.7837 88.308 91.9275 87.7398 91.9198H87.7413ZM85.0278 82.3184C84.6948 82.3184 84.3093 82.3659 83.8998 82.5654C83.4843 82.7665 82.9053 83.1956 82.5078 84.0981C82.1778 84.8581 82.2198 85.5373 82.2408 85.9031C82.3428 87.6321 83.3628 88.8228 83.7468 89.274C84.1173 89.7047 84.8868 90.5977 86.2008 91.0283C86.7798 91.2199 87.9858 91.6189 89.1018 90.9793C89.7888 90.585 90.1518 89.9691 90.2748 89.7253C90.5643 89.1426 90.5898 88.6043 90.6048 88.2844C90.6438 87.4611 90.4338 86.8373 90.3093 86.4636C89.981 85.5061 89.4423 84.6444 88.7373 83.9493C87.7398 82.9771 86.6538 82.4372 85.5093 82.3438C85.3497 82.3286 85.1881 82.3201 85.0278 82.3184Z" fill="black"/>
<path id="Vector_11" d="M35.2263 35.8016C35.1453 33.4899 34.8933 26.3206 39.6753 20.9974C44.4438 15.6885 51.2163 15.5587 52.6833 15.5302C67.1763 15.2531 82.6338 32.3673 81.3183 47.7985C81.2043 49.1491 80.4858 57.5819 74.1678 62.1989C69.0033 65.972 63.0468 65.0426 60.5778 64.6578C47.7978 62.6676 35.7153 49.7523 35.2278 35.8016H35.2263Z" fill="white"/>
<path id="Vector_12" d="M64.8739 65.3466C63.0664 65.3466 61.5379 65.1091 60.5359 64.9539C54.2899 63.9801 47.9299 60.3226 43.0864 54.9203C38.0719 49.3232 35.1799 42.5386 34.9444 35.8126C34.8619 33.4376 34.6084 26.2066 39.4714 20.7916C42.5989 17.3098 47.2894 15.3354 52.6774 15.2341C59.6629 15.0995 67.3639 19.0277 73.2844 25.7379C76.0609 28.8856 78.2944 32.5035 79.7374 36.1958C81.2914 40.1684 81.9169 44.0808 81.5989 47.8254C81.3439 50.8068 80.1289 58.2041 74.3254 62.4427C71.1334 64.7766 67.6714 65.3466 64.8739 65.3466ZM53.0254 15.8246C52.9129 15.8246 52.8004 15.8246 52.6879 15.8278C47.4514 15.9291 42.9034 17.8355 39.8794 21.2016C35.1799 26.4346 35.4244 33.4772 35.5054 35.7921C35.7349 42.3724 38.5744 49.0208 43.4959 54.5118C48.2509 59.8191 54.4924 63.4117 60.6184 64.3649C63.1054 64.7528 68.9329 65.6601 74.0059 61.9551C79.6099 57.859 80.7919 50.6722 81.0379 47.7716C81.3484 44.1236 80.7349 40.3046 79.2169 36.4222C77.7964 32.7948 75.6019 29.2402 72.8719 26.1432C67.1539 19.6595 59.7619 15.8231 53.0239 15.8231L53.0254 15.8246Z" fill="black"/>
<path id="Vector_13" d="M91.4134 40.5279C90.6274 44.8266 88.6219 47.8587 87.3844 49.4484L76.1149 60.489C80.6419 55.7532 81.2149 48.994 81.3199 47.7986C82.6324 32.3658 67.1749 15.2531 52.6834 15.5302C51.3109 15.5571 45.2929 15.6727 40.6174 20.038L51.9154 8.67914C55.0145 6.67719 58.538 5.52343 62.1664 5.32248C68.0359 5.01689 72.3169 7.44098 75.0139 8.95939C76.2679 9.66556 81.1789 12.5472 85.4239 18.5227C86.7799 20.4291 90.5539 25.8694 91.4914 33.6499C91.6894 35.2966 91.9489 37.5924 91.4134 40.5279Z" fill="#EBECEE"/>
<path id="Vector_14" d="M76.1134 60.7866C76.0757 60.7863 76.0384 60.7778 76.0038 60.7618C75.9693 60.7457 75.9382 60.7224 75.9125 60.6932C75.8609 60.6371 75.8326 60.5617 75.8338 60.4837C75.8349 60.4056 75.8653 60.3311 75.9185 60.2768C79.9325 56.0778 80.837 50.1355 81.0395 47.7763C81.3499 44.1236 80.7379 40.3046 79.2184 36.4238C77.798 32.7964 75.6035 29.2418 72.8735 26.1448C67.0595 19.555 59.5145 15.698 52.6895 15.8278C46.6625 15.945 42.9004 18.3026 40.8049 20.2612C40.7495 20.313 40.677 20.3395 40.6031 20.3351C40.5292 20.3306 40.4599 20.2955 40.4105 20.2374C40.3605 20.1804 40.3338 20.105 40.3361 20.0274C40.3383 19.9498 40.3693 19.8763 40.4225 19.8226L51.7205 8.46376C51.7355 8.44792 51.7505 8.43684 51.7684 8.42576C54.908 6.39933 58.4766 5.23096 62.1515 5.02634C68.075 4.71759 72.4804 7.19551 75.1115 8.67592L75.146 8.69492C77.4199 9.97742 81.806 12.9351 85.649 18.3422C89.069 23.1523 91.1299 28.2887 91.7689 33.6118C91.9579 35.1746 92.2429 37.5385 91.6879 40.5833C91.0939 43.8338 89.681 46.9641 87.6005 49.6352C87.593 49.6463 87.5855 49.6558 87.575 49.6653L76.3055 60.7058C76.2539 60.757 76.1857 60.7854 76.1149 60.785L76.1134 60.7866ZM53.024 15.2293C59.918 15.2293 67.4645 19.137 73.289 25.7379C76.0639 28.8856 78.2944 32.5019 79.7389 36.1943C81.2929 40.1653 81.92 44.0793 81.602 47.8238C81.4039 50.1434 80.7469 54.0368 78.6364 57.6136L87.182 49.2425C89.1965 46.6506 90.563 43.6185 91.139 40.4708C91.6759 37.5179 91.3999 35.2142 91.214 33.6878C90.5869 28.4692 88.5635 23.4278 85.202 18.7C81.422 13.3832 77.1154 10.4778 74.8849 9.22059L74.8505 9.20001C72.1025 7.65467 67.9505 5.31767 62.183 5.61851C58.612 5.81671 55.1438 6.94956 52.091 8.91501L43.442 17.6107C45.671 16.344 48.698 15.3101 52.679 15.2325L53.027 15.2309L53.024 15.2293Z" fill="black"/>
<path id="Vector_15" d="M77.4048 104.966L77.3974 125.486C55.6249 119.216 33.8524 112.946 12.0799 106.673C11.9899 103.221 12.2599 95.7957 16.4704 88.0627C21.7879 78.2998 30.0304 74.2053 33.4369 72.7946C40.6489 69.8084 46.8949 70.2676 49.9669 70.5304C57.7219 71.1922 63.8118 74.1847 67.8093 76.1512C68.9343 76.7054 69.9618 77.2517 70.8829 77.7662C70.6804 78.0608 70.4903 78.3646 70.3128 78.6767C69.4154 80.2945 68.8258 82.0817 68.5774 83.9381C68.3869 85.3377 68.4454 86.4033 68.4963 87.3074C68.6608 89.9538 69.2434 92.5525 70.2199 94.9961C70.4869 95.6658 71.6929 98.6061 74.2729 101.749C75.2279 102.914 76.2758 103.99 77.4048 104.966Z" fill="white"/>
<path id="Vector_16" d="M77.3975 125.782C77.3722 125.783 77.3469 125.78 77.3225 125.773L12.0035 106.961C11.945 106.945 11.8932 106.909 11.8559 106.858C11.8185 106.808 11.7977 106.746 11.7965 106.683C11.6765 102.051 12.3455 95.0372 16.226 87.9153C21.3095 78.58 29.126 74.2622 33.3335 72.519C40.757 69.4441 47.2265 69.9983 49.988 70.2358C57.7925 70.9008 63.89 73.8981 67.9265 75.882C68.9682 76.3949 69.9975 76.9356 71.0135 77.5033C71.0488 77.5233 71.0796 77.551 71.104 77.5846C71.1284 77.6182 71.1457 77.6569 71.1547 77.6981C71.1638 77.7393 71.1645 77.7821 71.1567 77.8236C71.1489 77.8651 71.1328 77.9043 71.1095 77.9387C70.904 78.2396 70.7195 78.5309 70.5545 78.8301C69.6751 80.4141 69.0977 82.1644 68.855 83.9823C68.666 85.3709 68.7275 86.4365 68.777 87.2915C68.927 89.8438 69.5165 92.469 70.478 94.882C70.898 95.9317 72.1265 98.682 74.4845 101.557C75.425 102.704 76.4675 103.774 77.5835 104.737C77.6495 104.794 77.687 104.879 77.687 104.968L77.678 125.488C77.6782 125.527 77.671 125.566 77.6569 125.602C77.6428 125.638 77.622 125.671 77.5958 125.699C77.5696 125.726 77.5384 125.748 77.5041 125.763C77.4698 125.778 77.4331 125.786 77.396 125.785V125.782H77.3975ZM12.356 106.447L77.1155 125.098L77.1245 105.107C76.0215 104.144 74.9965 103.086 74.06 101.944C71.648 99.0066 70.3895 96.1882 69.9605 95.1131C68.974 92.6382 68.3849 90.0071 68.2175 87.3279C68.1665 86.4444 68.1035 85.3456 68.3 83.8968C68.5535 82.0019 69.1552 80.1775 70.0715 78.5262C70.1971 78.3036 70.3297 78.0855 70.469 77.8722C69.5536 77.366 68.6273 76.8819 67.691 76.4203C63.692 74.457 57.6485 71.4851 49.946 70.828C47.2205 70.5952 40.841 70.049 33.5405 73.0731C29.4005 74.7863 21.713 79.0344 16.715 88.213C12.962 95.1021 12.2645 101.891 12.356 106.447Z" fill="black"/>
<path id="Vector_17" d="M81.0033 67.3812L72.7023 75.6367C72.0246 76.2749 71.4145 76.989 70.8828 77.7663C69.8709 77.2007 68.8456 76.6622 67.8078 76.1513C63.8103 74.1864 57.7218 71.1923 49.9668 70.5304C46.8948 70.2692 40.6488 69.81 33.4368 72.7946C29.5613 74.4071 25.9901 76.738 22.8918 79.6774L33.1608 69.0643C33.8208 68.3977 34.7808 67.4968 36.0213 66.5468C39.6423 63.7744 42.9948 62.6296 44.9613 61.9757C46.7076 61.3957 48.494 60.96 50.3043 60.6726C53.5173 62.7056 57.0213 64.1053 60.5763 64.6594C62.7843 65.0046 67.7823 65.7804 72.5073 63.2408C73.0578 63.4529 73.6773 63.7031 74.3523 63.9881C76.2873 64.8051 77.9748 65.5255 79.9683 66.7289C80.2758 66.9141 80.6238 67.131 81.0033 67.3812Z" fill="#EBECEE"/>
<path id="Vector_18" d="M22.8933 79.9751C22.8183 79.9751 22.7433 79.9434 22.6863 79.8801C22.636 79.8235 22.6087 79.7483 22.6104 79.6707C22.6121 79.5931 22.6426 79.5193 22.6953 79.4652C26.1183 75.9265 29.5398 72.3877 32.9628 68.8522C33.8715 67.9359 34.8377 67.0853 35.8548 66.3062C39.5853 63.4482 43.0278 62.3067 44.8758 61.6907C46.636 61.107 48.4364 60.6682 50.2608 60.3782C50.3253 60.3681 50.391 60.3821 50.4468 60.4177C53.6898 62.4682 57.2058 63.833 60.6168 64.365C62.7438 64.6975 67.7283 65.4749 72.3783 62.9764C72.4127 62.9576 72.4505 62.9464 72.4892 62.9437C72.5279 62.941 72.5668 62.9467 72.6033 62.9606C73.1928 63.1902 73.8168 63.4435 74.4543 63.7111C76.3068 64.4932 78.0543 65.2311 80.1063 66.4708C80.4543 66.6798 80.8038 66.9015 81.1503 67.1279C81.187 67.1519 81.218 67.1845 81.2408 67.2231C81.2637 67.2618 81.2777 67.3055 81.2819 67.3509C81.2861 67.3962 81.2804 67.442 81.2651 67.4846C81.2498 67.5272 81.2254 67.5655 81.1938 67.5966L76.9908 71.7766L72.8928 75.8521C72.2178 76.4886 71.6193 77.19 71.1078 77.9389C71.0677 77.9967 71.0094 78.0374 70.9434 78.0537C70.8773 78.07 70.8079 78.0607 70.7478 78.0276C69.7308 77.4607 68.7018 76.9192 67.6878 76.4189C63.6873 74.454 57.6438 71.4821 49.9413 70.8266C47.2158 70.5922 40.8363 70.0476 33.5358 73.0702C29.6922 74.6701 26.1501 76.9816 23.0763 79.8959C23.0253 79.9458 22.9583 79.9735 22.8888 79.9735H22.8918L22.8933 79.9751ZM46.0233 70.0397C47.6988 70.0397 49.0548 70.1552 49.9893 70.236C57.7938 70.901 63.8913 73.8998 67.9278 75.8822C68.8803 76.3524 69.8448 76.8559 70.8003 77.3847C71.3089 76.6701 71.8832 76.0104 72.5148 75.4151L76.6068 71.3459L80.5443 67.4319C80.3058 67.2783 80.0658 67.1311 79.8288 66.9886C77.8113 65.7694 76.0788 65.0379 74.2488 64.2652C73.6779 64.0234 73.1039 63.7901 72.5268 63.5654C67.7493 66.0797 62.7018 65.2912 60.5358 64.954C57.0843 64.4157 53.5278 63.0429 50.2458 60.983C48.4846 61.2687 46.7466 61.6953 45.0468 62.2592C43.2273 62.864 39.8433 63.9882 36.1863 66.7875C35.1918 67.5475 34.2393 68.3851 33.3543 69.2797L26.6268 76.2305C28.73 74.7435 30.9784 73.4993 33.3333 72.5192C38.2473 70.4862 42.7443 70.0397 46.0233 70.0397Z" fill="black"/>
<path id="Vector_19" d="M104.243 94.0462C103.553 87.6558 100.28 83.3618 98.8279 81.5062C97.3774 79.6552 93.5269 74.872 86.8924 72.991C84.5734 72.3355 80.7229 71.2446 76.5229 73.0892C75.4774 73.5483 72.3424 75.0984 70.3114 78.6783C69.4141 80.2957 68.8245 82.0824 68.5759 83.9382C68.3854 85.3378 68.4439 86.4034 68.4964 87.3075C68.6601 89.954 69.2427 92.5528 70.2199 94.9962C70.4869 95.6659 71.6929 98.6062 74.2729 101.749C75.2281 102.913 76.2759 103.989 77.4049 104.965L77.3929 135.457L86.4109 147.343C89.4154 145.072 92.4214 142.803 95.4259 140.531L90.9664 134.649L95.4424 131.226L90.9574 125.355L95.4724 121.9L95.4649 110.066C96.6934 109.601 100.946 107.818 103.175 103.131C104.849 99.61 104.493 96.3151 104.246 94.043L104.243 94.0462ZM90.8824 88.2987C90.8659 88.6644 90.8329 89.236 90.5194 89.8662C90.4459 90.0102 90.0559 90.7687 89.2339 91.2405C88.0159 91.9387 86.7229 91.5144 86.1139 91.3133C84.7489 90.8652 83.9434 89.9485 83.5339 89.4735C83.1334 89.0048 82.0639 87.7572 81.9559 85.9237C81.9304 85.5072 81.8959 84.7821 82.2484 83.973C82.3624 83.7117 82.7884 82.7776 83.7784 82.2962C84.4534 81.9685 85.0624 82.0112 85.5259 82.0477C87.3169 82.1949 88.5364 83.3539 88.9234 83.7323C89.2174 84.0205 90.0814 84.9214 90.5689 86.3654C90.7084 86.7818 90.9229 87.4326 90.8824 88.2987Z" fill="#FF7E88"/>
<path id="Vector_20" d="M86.4079 147.642C86.3656 147.642 86.3238 147.632 86.2856 147.613C86.2474 147.594 86.2138 147.566 86.1874 147.531L77.1694 135.645C77.13 135.592 77.1089 135.526 77.1094 135.458L77.1214 105.106C76.0192 104.143 74.9942 103.086 74.0569 101.945C71.6419 99.0036 70.3849 96.1868 69.9574 95.1133C68.9704 92.638 68.3814 90.0063 68.2144 87.3265C68.1619 86.4478 68.0989 85.3553 68.2954 83.897C68.5483 82.0015 69.1501 80.1764 70.0669 78.5248C71.9914 75.1364 74.8684 73.4929 76.4119 72.8153C80.7019 70.9311 84.6214 72.0394 86.9644 72.7044C93.8209 74.6456 97.7524 79.6663 99.0439 81.3162C100.346 82.9818 103.809 87.4041 104.523 94.0129C104.766 96.2644 105.134 99.6654 103.422 103.268C101.412 107.495 97.8274 109.458 95.7454 110.275L95.7514 121.902C95.7514 121.997 95.7079 122.087 95.6344 122.142L91.3609 125.412L95.6584 131.041C95.6825 131.072 95.7004 131.108 95.7108 131.147C95.7212 131.186 95.7239 131.227 95.7189 131.267C95.7138 131.307 95.7011 131.345 95.6814 131.38C95.6617 131.415 95.6355 131.445 95.6044 131.468L91.3684 134.706L95.6434 140.344C95.6678 140.376 95.6858 140.412 95.6962 140.451C95.7067 140.49 95.7093 140.531 95.7039 140.571C95.6986 140.612 95.6853 140.65 95.6651 140.685C95.6449 140.719 95.6181 140.749 95.5864 140.772L86.5714 147.582C86.5241 147.617 86.4675 147.637 86.4094 147.637L86.4079 147.642ZM77.6704 135.355L86.4604 146.939L95.0164 140.474L90.7414 134.838C90.7175 134.806 90.6999 134.77 90.6898 134.731C90.6796 134.692 90.677 134.651 90.6822 134.611C90.6874 134.571 90.7003 134.533 90.72 134.498C90.7397 134.464 90.7658 134.434 90.7969 134.41L95.0329 131.172L90.7354 125.543C90.7116 125.512 90.694 125.476 90.6837 125.437C90.6734 125.398 90.6705 125.357 90.6754 125.317C90.6802 125.277 90.6926 125.239 90.712 125.205C90.7313 125.171 90.7572 125.141 90.7879 125.118L95.1844 121.753L95.1769 110.068C95.1769 109.943 95.2519 109.83 95.3644 109.789C96.9499 109.191 100.857 107.332 102.917 103.002C104.552 99.5578 104.211 96.3927 103.961 94.081C103.265 87.6479 99.8809 83.3223 98.6059 81.6946C97.3414 80.0812 93.4984 75.1713 86.8159 73.2776C84.5434 72.6348 80.7379 71.5581 76.6249 73.3631C75.1444 74.0123 72.3859 75.5877 70.5469 78.8288C69.6682 80.4122 69.0918 82.162 68.8504 83.9793C68.6599 85.379 68.7229 86.4383 68.7724 87.2885C68.9224 89.8408 69.5104 92.466 70.4719 94.8806C70.8919 95.9272 72.1174 98.6758 74.4799 101.553C75.4219 102.701 76.4629 103.769 77.5774 104.734C77.6419 104.789 77.6794 104.875 77.6794 104.963L77.6674 135.352L77.6704 135.355ZM87.7384 91.9213C87.0124 91.9213 86.3824 91.7155 86.0299 91.5983C84.5644 91.117 83.6974 90.1053 83.3269 89.673C82.9069 89.1822 81.7894 87.8807 81.6739 85.9443C81.6529 85.5548 81.6034 84.7409 81.9934 83.8511C82.3594 83.0088 82.9384 82.3786 83.6599 82.0271C84.4159 81.6613 85.0969 81.7152 85.5499 81.7532C86.8249 81.8577 88.0249 82.4498 89.1154 83.5154C89.5564 83.9477 90.3664 84.8771 90.8329 86.2673C90.9634 86.6536 91.2049 87.3724 91.1614 88.3161C91.1464 88.6613 91.1149 89.3057 90.7669 90.0055C90.4467 90.6371 89.9601 91.1574 89.3659 91.5033C88.8651 91.7859 88.3047 91.9303 87.7369 91.9229L87.7384 91.9213ZM85.0249 82.32C84.6904 82.32 84.3049 82.3675 83.8969 82.567C83.2969 82.8583 82.8154 83.3888 82.5049 84.0997C82.1749 84.8565 82.2154 85.5405 82.2379 85.9078C82.3399 87.6368 83.3599 88.8275 83.7454 89.2772C84.1129 89.7047 84.8794 90.5993 86.1979 91.0331C86.7769 91.2231 87.9844 91.6205 89.0989 90.9824C89.8114 90.5739 90.1759 89.92 90.2719 89.73C90.5629 89.1458 90.5869 88.609 90.6019 88.2876C90.6409 87.4611 90.4309 86.8388 90.3064 86.4668C89.9788 85.5097 89.4405 84.6485 88.7359 83.954C87.7414 82.9834 86.6569 82.4419 85.5079 82.3485C85.3639 82.3358 85.2034 82.3232 85.0279 82.3232L85.0249 82.32Z" fill="black"/>
<path id="Vector_21" d="M5.34626 105.642C5.25026 104.146 5.11076 101.583 6.22076 98.625C6.55826 97.7273 7.19726 96.0885 8.62976 94.4973C10.8648 92.0146 13.5993 91.3243 14.9028 91.0139C19.2483 89.9784 22.8843 91.5285 24.8823 92.4009C32.6448 95.7861 35.9853 103.014 36.8013 104.851C37.5078 106.442 38.7423 109.294 38.7738 113.173C38.7858 114.819 38.7768 117.464 37.3038 120.306C36.4529 121.948 35.2662 123.369 33.8298 124.467C30.6258 126.902 27.2073 126.876 25.7898 126.845C22.7043 126.777 20.4723 125.686 18.6573 124.798C16.5769 123.763 14.6489 122.417 12.9333 120.801C11.6943 119.642 8.81126 116.882 6.92576 112.216C6.43076 110.988 5.54576 108.744 5.34626 105.644V105.642Z" fill="#99FFDF"/>
<path id="Vector_22" d="M26.3823 127.147C26.1513 127.147 25.9503 127.144 25.7838 127.139C22.6383 127.07 20.3658 125.958 18.5388 125.063C16.4332 124.017 14.4819 122.655 12.7458 121.02C11.6148 119.962 8.61481 117.152 6.66781 112.327C6.21481 111.206 5.27281 108.875 5.06581 105.661C4.97431 104.238 4.80481 101.592 5.96131 98.5141C6.27181 97.6876 6.91681 95.9681 8.42731 94.2898C10.7673 91.6931 13.6233 91.0123 14.8428 90.721C19.3263 89.6522 23.0118 91.2593 24.9918 92.1238C30.1653 94.3785 34.4508 98.853 37.0578 104.721C37.6953 106.157 39.0228 109.143 39.0558 113.166C39.0678 114.672 39.0903 117.478 37.5513 120.443C36.6802 122.124 35.4659 123.579 33.9963 124.702C31.0698 126.925 27.9993 127.144 26.3853 127.144L26.3823 127.147ZM5.62531 105.622C5.82631 108.735 6.74281 111.005 7.18381 112.098C9.08281 116.797 12.0138 119.544 13.1178 120.578C14.8129 122.175 16.7182 123.505 18.7743 124.525C20.5533 125.396 22.7688 126.479 25.7943 126.545C27.0738 126.574 30.4713 126.65 33.6648 124.224C35.0656 123.151 36.2234 121.764 37.0548 120.161C38.5248 117.33 38.5038 114.729 38.4903 113.174C38.4603 109.279 37.1673 106.374 36.5448 104.976C33.9978 99.2409 29.8158 94.874 24.7728 92.6732C22.8513 91.8356 19.2738 90.2745 14.9628 91.3036C13.7928 91.5807 11.0553 92.2331 8.83381 94.7015C7.39831 96.2959 6.77881 97.9426 6.48181 98.7342C5.37181 101.69 5.53681 104.247 5.62531 105.622Z" fill="black"/>
<path id="Vector_23" d="M47.5008 108.252C46.9983 110.289 46.0918 112.191 44.8413 113.831L35.1558 123.292C36.0071 122.413 36.7304 121.406 37.3023 120.304C38.7768 117.462 38.7843 114.818 38.7723 113.173C38.7423 109.294 37.5078 106.44 36.8013 104.849C35.9868 103.012 32.6448 95.7845 24.8823 92.4009C22.8843 91.5301 19.2483 89.9784 14.9028 91.0139C13.8438 91.2625 11.8473 91.766 9.93481 93.2734L18.8118 84.3434C19.698 83.7433 20.6423 83.2449 21.6288 82.8566C25.5663 81.3081 29.0598 81.981 30.4188 82.2629C34.2588 83.0545 36.7938 84.9941 38.4903 86.3241C40.6942 88.0598 42.5999 90.1816 44.1243 92.5973C45.1608 94.2392 46.9653 97.1573 47.6268 101.415C47.8698 102.986 48.2118 105.338 47.4993 108.249L47.5008 108.252Z" fill="#EBECEE"/>
<path id="Vector_24" d="M35.1573 123.588C35.1013 123.588 35.0465 123.571 34.9998 123.539C34.9531 123.506 34.9168 123.459 34.8955 123.405C34.8742 123.35 34.8689 123.29 34.8803 123.232C34.8917 123.174 34.9192 123.121 34.9593 123.08C35.792 122.223 36.4988 121.239 37.0563 120.162C38.5248 117.331 38.5038 114.729 38.4903 113.176C38.4603 109.284 37.1703 106.376 36.5463 104.977C35.0718 101.657 31.5828 95.6453 24.7743 92.6782C22.8543 91.839 19.2813 90.2763 14.9658 91.3054C14.0853 91.5113 12.0258 92.0005 10.1043 93.5126C10.0474 93.5632 9.97383 93.5879 9.8997 93.5812C9.82558 93.5745 9.75701 93.537 9.70907 93.477C9.66113 93.4169 9.63775 93.3392 9.64408 93.261C9.65041 93.1827 9.68593 93.1104 9.74282 93.0598C12.7008 90.0799 15.6618 87.1032 18.6198 84.1297C18.6325 84.116 18.6466 84.1038 18.6618 84.0933C19.5652 83.4835 20.527 82.9762 21.5313 82.5797C25.6233 80.9694 29.2743 81.7247 30.4743 81.9717C34.4598 82.795 37.0893 84.8533 38.6598 86.0852C40.8887 87.8426 42.8165 89.9894 44.3598 92.4327C45.2883 93.9021 47.2218 96.9643 47.9073 101.368C48.1353 102.837 48.5163 105.294 47.7738 108.323C47.2646 110.403 46.34 112.345 45.0618 114.017L45.0348 114.048L35.3478 123.509C35.2959 123.56 35.2286 123.589 35.1573 123.588ZM17.8203 90.3792C20.9853 90.3792 23.5758 91.5113 24.9903 92.1288C31.9728 95.1751 35.5473 101.328 37.0578 104.726C37.6968 106.162 39.0258 109.151 39.0543 113.173C39.0678 114.679 39.0903 117.481 37.5498 120.45C37.5138 120.521 37.4778 120.592 37.4388 120.66L44.6358 113.634C45.8577 112.031 46.7423 110.172 47.2308 108.181C47.9403 105.27 47.5713 102.891 47.3508 101.467C46.6848 97.1923 44.8668 94.3138 43.8918 92.7668C42.3853 90.3807 40.5031 88.2843 38.3268 86.5681C36.7938 85.3648 34.2288 83.3571 30.3693 82.5591C29.2083 82.32 25.6743 81.5901 21.7308 83.1402C20.7723 83.518 19.8542 84.0015 18.9918 84.5826L11.8818 91.7345C12.8332 91.2891 13.8268 90.9521 14.8458 90.7291C15.8235 90.4969 16.8227 90.3805 17.8248 90.3823L17.8203 90.3792Z" fill="black"/>
<path id="Vector_25" d="M20.5654 108.488L26.6404 103.947C26.8429 103.863 27.2074 103.746 27.6559 103.791C28.4479 103.871 28.9519 104.403 29.1934 104.656C29.7124 105.199 29.8909 105.775 29.9284 105.907C29.9929 106.125 30.1039 106.518 30.0184 106.996C29.9885 107.197 29.9205 107.39 29.8184 107.563C29.7164 107.736 29.5824 107.886 29.4244 108.003L20.5504 114.636L14.3209 106.358C14.2538 106.239 14.1966 106.114 14.1499 105.984C14.0252 105.658 13.9749 105.306 14.0029 104.955C14.0254 104.718 14.0689 104.266 14.4049 103.899C14.7934 103.472 15.3094 103.445 15.4699 103.437C15.9169 103.413 16.2529 103.584 16.5154 103.717C16.8889 103.907 17.1544 104.157 17.2789 104.274C17.3944 104.385 17.4859 104.485 17.5489 104.559L20.5639 108.489L20.5654 108.488Z" fill="white"/>
<path id="Vector_26" d="M20.5534 114.933C20.5108 114.933 20.4689 114.923 20.4307 114.903C20.3926 114.883 20.3591 114.855 20.3329 114.819L14.1034 106.545C14.0181 106.402 13.9463 106.25 13.8889 106.092C13.8364 105.943 13.6729 105.492 13.7269 104.927C13.7509 104.67 13.8019 104.135 14.2054 103.693C14.5144 103.354 14.9359 103.169 15.4579 103.141C15.9799 103.112 16.3624 103.309 16.6414 103.451C17.0569 103.663 17.3569 103.948 17.4694 104.056C17.5714 104.152 17.6704 104.257 17.7619 104.363L17.7709 104.376L20.6194 108.089L26.4784 103.711C26.4971 103.697 26.5172 103.685 26.5384 103.676C26.9134 103.521 27.3004 103.464 27.6844 103.503C28.5769 103.594 29.1484 104.195 29.3944 104.453C29.9194 105.004 30.1324 105.595 30.1984 105.823C30.2629 106.043 30.3979 106.499 30.2944 107.058C30.2719 107.18 30.2194 107.466 30.0289 107.774C29.9119 107.96 29.7619 108.12 29.5864 108.253L20.7154 114.884C20.6682 114.92 20.6115 114.94 20.5534 114.94V114.933ZM14.5564 106.189L20.6074 114.23L29.2624 107.761C29.3794 107.673 29.4801 107.563 29.5594 107.436C29.6899 107.23 29.7244 107.04 29.7409 106.939C29.8174 106.524 29.7154 106.179 29.6599 105.992C29.5259 105.567 29.2982 105.182 28.9954 104.868C28.7599 104.62 28.3204 104.159 27.6304 104.089C27.3397 104.061 27.0467 104.103 26.7739 104.213L20.7289 108.73C20.6706 108.774 20.5986 108.793 20.5275 108.783C20.4565 108.773 20.3917 108.735 20.3464 108.676L17.3359 104.753C17.2587 104.663 17.1777 104.577 17.0929 104.496C16.9879 104.396 16.7389 104.16 16.3954 103.985C16.1464 103.858 15.8644 103.712 15.4849 103.733C15.3454 103.741 14.9209 103.765 14.6104 104.105C14.3404 104.401 14.3059 104.765 14.2864 104.984C14.2474 105.411 14.3689 105.75 14.4154 105.878C14.4559 105.986 14.5039 106.09 14.5579 106.19L14.5564 106.189Z" fill="black"/>
</g>
</g>
<defs>
<clipPath id="clip0_1118_257">
<rect width="120" height="152" fill="white"/>
</clipPath>
</defs>
</svg>
