<svg width="48" height="48" viewBox="0 0 48 48" fill="none" xmlns="http://www.w3.org/2000/svg">
<g id="illustration / deriv / light / google drive">
<g id="Vector">
<path d="M32.7918 31.6127H15.2885L7.79333 44.7049C8.69502 45.1634 9.71896 45.4573 10.3812 45.4573C17.2666 45.4573 31.3186 45.3554 38.2941 45.3554C39.0114 45.3554 39.6828 45.1109 40.2849 44.7278L32.7918 31.6127Z" fill="#4185F3"/>
<path d="M7.79333 44.7049L15.2885 31.6127L0.100535 31.6132C0.0928939 32.5231 0.416378 33.3554 0.923256 34.305C2.33538 36.9469 4.72458 41.17 6.12804 43.3758C6.47394 43.9194 7.84733 44.7324 7.79333 44.7049Z" fill="#1767D1"/>
<path d="M32.7918 31.6127L40.2875 44.7258C41.259 44.1084 42.0506 43.1303 42.5646 42.2296C43.7251 40.1985 45.6874 36.8165 47.0409 34.5266C47.6701 33.4619 47.9146 32.5057 47.8993 31.6117L32.7918 31.6127Z" fill="#E94235"/>
<path d="M15.29 31.6137L24.0328 16.4145L16.2192 3.38754C15.3741 3.94332 14.6512 4.69778 14.3232 5.27241C10.9126 11.2541 4.04195 23.5134 0.587033 29.5725C0.233013 30.1924 0.0635138 30.9007 0.098495 31.6137H15.29Z" fill="#30A753"/>
<path d="M32.7913 31.6137L24.0328 16.4145L31.6319 3.40231C32.477 3.9586 33.4047 4.69778 33.7327 5.27292C37.1433 11.2541 44.0139 23.5134 47.4704 29.5725C47.827 30.1955 47.9345 30.9005 47.8998 31.6137H32.7913Z" fill="#F9BC00"/>
<path d="M16.2182 3.38957L24.0328 16.4145L31.6319 3.40231C30.8473 2.94383 29.7363 2.6723 28.6604 2.63817C25.667 2.53832 20.8142 2.49808 18.2024 2.61168C17.5585 2.6397 16.2264 3.38397 16.2182 3.38957Z" fill="#0F8038"/>
</g>
</g>
</svg>
