<svg width="140" height="100" viewBox="0 0 140 100" fill="none" xmlns="http://www.w3.org/2000/svg">
<g id="illustration / deriv / light / migrate-strategy" clip-path="url(#clip0_4823_132)">
<g id="migrate strategy">
<g id="Group">
<g id="Group_2">
<path id="Vector" d="M110.089 16.6884L101.645 82.432L101.601 82.7785L101.415 84.2255L101.303 85.0964L101.286 85.232C101.229 85.6679 101.114 86.0793 100.948 86.4606C100.867 86.6499 100.773 86.8306 100.668 87.0039C100.149 87.8578 99.3611 88.5131 98.4411 88.8718H98.4392C97.6387 89.1863 96.7385 89.2738 95.8307 89.0742L68.0722 82.9686C65.2549 82.3482 63.3698 79.6847 63.7197 76.8188L72.1247 8.15658C72.3655 6.18133 73.8038 4.67023 75.5958 4.21926L75.83 4.16653C76.4414 4.04414 77.0915 4.04508 77.7433 4.19289L79.2936 4.5403L80.9153 4.90466L82.6273 5.28879L83.5972 5.50628L85.4033 5.91206L89.2253 6.7707L105.742 10.4792C108.575 11.1166 110.458 13.8065 110.089 16.6884Z" fill="white"/>
<path id="Vector_2" d="M96.808 89.3687C96.4684 89.3687 96.1279 89.332 95.7902 89.2576L68.0317 83.1521C65.1034 82.5071 63.1694 79.774 63.5325 76.7951L71.9384 8.13288C72.182 6.13503 73.5996 4.52696 75.5506 4.0355L75.7895 3.98183C76.4536 3.84908 77.1234 3.8585 77.7856 4.0082L89.2675 6.58601L105.784 10.2946C108.729 10.9574 110.66 13.7159 110.277 16.7118L101.833 82.4553L101.474 85.2544C101.415 85.7026 101.297 86.1328 101.122 86.5348C101.04 86.726 100.942 86.9161 100.83 87.1007C100.298 87.9782 99.4767 88.6683 98.5182 89.0439C98.5154 89.0449 98.5125 89.0467 98.5097 89.0477C97.9651 89.2614 97.3894 89.3687 96.8099 89.3687H96.808ZM76.7236 4.26522C76.4367 4.26522 76.1507 4.29347 75.8676 4.34996L75.6381 4.40174C73.8442 4.85366 72.5367 6.33557 72.3128 8.17807L63.9069 76.8412C63.5663 79.6262 65.3753 82.1814 68.1126 82.7839L95.8711 88.8895C96.7093 89.0741 97.5719 89.0081 98.3648 88.6993C98.3677 88.6984 98.3705 88.6965 98.3733 88.6956C99.2585 88.35 100.016 87.7145 100.508 86.9058C100.61 86.7363 100.701 86.5621 100.776 86.3861C100.938 86.0151 101.047 85.6188 101.1 85.2073L101.229 84.2009L101.46 82.4073L109.903 16.6638C110.263 13.8619 108.456 11.2822 105.702 10.6627L79.254 4.72373L77.7038 4.37632C77.3783 4.30288 77.051 4.26617 76.7245 4.26617L76.7236 4.26522Z" fill="black"/>
</g>
<g id="Group_3">
<path id="Vector_3" d="M118.496 14.7997L110.053 80.5433L109.822 82.3369L109.71 83.2077L109.693 83.3433C109.61 83.9939 109.393 84.5917 109.075 85.1152C108.557 85.9691 107.769 86.6244 106.849 86.9831H106.847C106.522 87.1121 106.18 87.2016 105.828 87.2496H105.822L98.4409 88.8727C99.3609 88.514 100.149 87.8587 100.667 87.0048C100.773 86.8316 100.867 86.6508 100.948 86.4615C101.114 86.0802 101.229 85.6688 101.286 85.2329L101.302 85.0973L101.414 84.2264L101.601 82.7794L101.645 82.4329L110.088 16.6893C110.458 13.8074 108.575 11.1176 105.742 10.4802L89.2251 6.77162L85.4031 5.91298L83.597 5.50719L82.6272 5.28971L80.9151 4.90558L79.2934 4.54122L77.7432 4.19381C77.0913 4.046 76.4413 4.04505 75.8298 4.16745L84.0034 2.33059L84.1595 2.29388L84.1774 2.29011C84.8067 2.15548 85.4774 2.15171 86.151 2.30423L87.7012 2.65164L91.0349 3.40013L92.0048 3.61762L97.6329 4.88204L114.149 8.59059C116.983 9.22798 118.866 11.9178 118.496 14.7997Z" fill="#EBECEE"/>
<path id="Vector_4" d="M98.4411 89.0607C98.3602 89.0607 98.2859 89.0079 98.2614 88.927C98.2332 88.8328 98.2821 88.733 98.3734 88.6972C99.2585 88.3526 100.016 87.7162 100.508 86.9075C100.61 86.738 100.701 86.5638 100.776 86.3877C100.938 86.0168 101.047 85.6204 101.1 85.209L101.229 84.2025L101.46 82.409L109.903 16.6654C110.263 13.8635 108.456 11.2838 105.702 10.6643L79.2541 4.72539L77.7038 4.37798C77.0933 4.23958 76.4753 4.23111 75.8686 4.35256C75.7679 4.37327 75.6692 4.30831 75.6475 4.20663C75.6259 4.10495 75.6898 4.00609 75.7905 3.9835L83.964 2.14664L84.1409 2.10522C84.8191 1.96023 85.5105 1.96493 86.1944 2.12028L97.6763 4.69809L114.193 8.40663C117.138 9.06945 119.069 11.828 118.685 14.8239L110.242 80.5674L109.883 83.3665C109.797 84.0284 109.581 84.6498 109.238 85.2128C108.705 86.0912 107.884 86.7813 106.924 87.157C106.922 87.157 106.92 87.1588 106.918 87.1598C106.58 87.2935 106.222 87.3867 105.856 87.4366L98.4844 89.0569C98.4712 89.0597 98.4571 89.0616 98.4439 89.0616L98.4411 89.0607ZM77.5778 3.96749C77.6474 3.97973 77.7161 3.99385 77.7857 4.00986L89.2676 6.58767L105.784 10.2962C108.729 10.959 110.66 13.7176 110.277 16.7134L101.833 82.457L101.474 85.2561C101.416 85.7042 101.297 86.1345 101.122 86.5365C101.04 86.7276 100.942 86.9178 100.83 87.1023C100.521 87.6117 100.115 88.058 99.6404 88.4167L105.785 87.0666C105.785 87.0666 105.792 87.0656 105.795 87.0647C105.797 87.0647 105.804 87.0628 105.806 87.0628C106.141 87.0167 106.467 86.9319 106.776 86.8105C106.779 86.8095 106.781 86.8086 106.783 86.8077C107.668 86.4621 108.425 85.8266 108.917 85.0169C109.233 84.4991 109.431 83.9276 109.51 83.3185L109.639 82.312L118.313 14.7749C118.672 11.973 116.866 9.39332 114.112 8.77382L97.5954 5.06527L86.1135 2.48746C85.4823 2.34436 84.8455 2.33965 84.2209 2.47334L84.0506 2.51288L77.5815 3.96655L77.5778 3.96749Z" fill="black"/>
</g>
</g>
<g id="Group_4">
<path id="Vector_5" d="M100.485 39.8801C100.478 39.8792 100.469 39.8782 100.462 39.8761L79.3553 34.4702C79.2452 34.4423 79.1837 34.3141 79.2172 34.184C79.2508 34.0539 79.3672 33.9716 79.4773 33.9995L100.584 39.4055C100.694 39.4334 100.756 39.5615 100.722 39.6917C100.691 39.8123 100.588 39.8925 100.486 39.8802L100.485 39.8801Z" fill="black"/>
</g>
<g id="Group_5">
<path id="Vector_6" d="M101.83 29.7385C101.823 29.7376 101.815 29.7366 101.808 29.7345L80.7005 24.3286C80.5904 24.3007 80.5289 24.1725 80.5624 24.0424C80.596 23.9123 80.7125 23.83 80.8225 23.8579L101.93 29.2639C102.04 29.2918 102.101 29.4199 102.068 29.5501C102.037 29.6707 101.933 29.7509 101.831 29.7386L101.83 29.7385Z" fill="black"/>
</g>
<g id="Group_6">
<path id="Vector_7" d="M99.7952 44.7746C99.788 44.7737 99.7799 44.7727 99.7729 44.7707L78.6658 39.3647C78.5558 39.3368 78.4942 39.2087 78.5278 39.0786C78.5613 38.9484 78.6778 38.8662 78.7879 38.8941L99.8949 44.3C100.005 44.3279 100.067 44.4561 100.033 44.5862C100.002 44.7068 99.8984 44.787 99.7962 44.7747L99.7952 44.7746Z" fill="black"/>
</g>
<g id="Group_7">
<path id="Vector_8" d="M102.537 24.7609C102.53 24.76 102.522 24.7591 102.515 24.757L81.4075 19.3511C81.2975 19.3232 81.2359 19.195 81.2695 19.0649C81.303 18.9348 81.4195 18.8525 81.5296 18.8804L102.637 24.2863C102.747 24.3142 102.808 24.4424 102.775 24.5725C102.744 24.6932 102.64 24.7734 102.538 24.761L102.537 24.7609Z" fill="black"/>
</g>
<g id="Group_8">
<path id="Vector_9" d="M93.7126 48.2228C93.7055 48.2219 93.6973 48.2209 93.6903 48.2189L77.9515 44.2C77.8414 44.1722 77.7799 44.0444 77.8134 43.9148C77.847 43.7851 77.9634 43.7031 78.0735 43.7309L93.8123 47.7498C93.9224 47.7776 93.9839 47.9053 93.9504 48.035C93.9194 48.1553 93.8158 48.2352 93.7136 48.2229L93.7126 48.2228Z" fill="black"/>
</g>
<g id="Group_9">
<path id="Vector_10" d="M95.7258 33.3282C95.7186 33.3274 95.7105 33.3264 95.7035 33.3243L79.9646 29.3055C79.8546 29.2776 79.793 29.1499 79.8266 29.0202C79.8601 28.8906 79.9766 28.8085 80.0866 28.8364L95.8255 32.8552C95.9356 32.8831 95.9971 33.0108 95.9636 33.1405C95.9326 33.2607 95.829 33.3407 95.7268 33.3284L95.7258 33.3282Z" fill="black"/>
</g>
<g id="Group_10">
<g id="Group_11">
<path id="Vector_11" d="M91.4999 25.3193L83.0564 91.0628L83.0122 91.4093L82.8259 92.8564L82.714 93.7273L82.6971 93.8628C82.6406 94.2988 82.5259 94.7102 82.3594 95.0915C82.2785 95.2807 82.1844 95.4615 82.079 95.6347C81.5607 96.4887 80.7724 97.144 79.8525 97.5027H79.8506C79.0501 97.8171 78.1498 97.9047 77.2421 97.7051L49.4836 91.5995C46.6663 90.979 44.7812 88.3156 45.1311 85.4497L53.5361 16.7874C53.7769 14.8122 55.2152 13.3011 57.0072 12.8501L57.2414 12.7974C57.8528 12.675 58.5028 12.6759 59.1547 12.8238L60.705 13.1712L62.3267 13.5355L64.0387 13.9197L65.0086 14.1371L66.8147 14.5429L70.6366 15.4016L87.1531 19.1101C89.9864 19.7475 91.8696 22.4373 91.4999 25.3193Z" fill="white"/>
<path id="Vector_12" d="M78.2192 97.9996C77.8796 97.9996 77.539 97.9629 77.2013 97.8885L49.4429 91.7829C46.5145 91.138 44.5805 88.4048 44.9436 85.4259L53.3495 16.7637C53.5931 14.7659 55.0107 13.1578 56.9617 12.6664L57.2006 12.6127C57.8648 12.4799 58.5345 12.4894 59.1968 12.6391L70.6787 15.2169L87.1951 18.9254C90.1404 19.5882 92.0716 22.3468 91.6878 25.3426L83.2443 91.0862L82.8849 93.8853C82.8266 94.3334 82.7081 94.7637 82.5331 95.1657C82.4513 95.3568 82.3534 95.547 82.2415 95.7315C81.7091 96.609 80.8879 97.2991 79.9293 97.6748C79.9265 97.6757 79.9237 97.6776 79.9208 97.6786C79.3762 97.8923 78.8005 97.9996 78.221 97.9996H78.2192ZM58.1347 12.8961C57.8478 12.8961 57.5619 12.9243 57.2787 12.9808L57.0492 13.0326C55.2553 13.4845 53.9478 14.9664 53.7239 16.8089L45.318 85.4721C44.9775 88.257 46.7864 90.8122 49.5238 91.4148L77.2822 97.5204C78.1204 97.7049 78.983 97.639 79.776 97.3302C79.7788 97.3293 79.7816 97.3274 79.7844 97.3264C80.6696 96.9809 81.4269 96.3454 81.9188 95.5367C82.0214 95.3672 82.1117 95.193 82.1869 95.0169C82.3487 94.646 82.4578 94.2496 82.5115 93.8382L82.6403 92.8317L82.8708 91.0382L91.3143 25.2946C91.6737 22.4927 89.8676 19.913 87.1133 19.2935L60.6652 13.3546L59.1149 13.0072C58.7895 12.9337 58.4621 12.897 58.1357 12.897L58.1347 12.8961Z" fill="black"/>
</g>
<g id="Group_12">
<path id="Vector_13" d="M99.9073 23.4296L91.4638 89.1732L91.2333 90.9667L91.1214 91.8376L91.1044 91.9732C91.0207 92.6238 90.8043 93.2216 90.4864 93.7451C89.9681 94.599 89.1798 95.2543 88.2598 95.613H88.2579C87.9334 95.742 87.591 95.8314 87.2392 95.8795H87.2335L79.852 97.5026C80.772 97.1439 81.5603 96.4886 82.0786 95.6347C82.184 95.4614 82.278 95.2807 82.3589 95.0914C82.5254 94.7101 82.6402 94.2987 82.6966 93.8628L82.7136 93.7272L82.8255 92.8563L83.0118 91.4092L83.056 91.0628L91.4995 25.3192C91.8692 22.4373 89.986 19.7474 87.1526 19.11L70.6362 15.4015L66.8142 14.5429L65.0081 14.1371L64.0383 13.9196L62.3263 13.5355L60.7045 13.1711L59.1543 12.8237C58.5024 12.6759 57.8524 12.6749 57.241 12.7973L65.4145 10.9605L65.5707 10.9238L65.5885 10.92C66.2179 10.7854 66.8886 10.7816 67.5621 10.9341L69.1123 11.2815L72.4461 12.03L73.4159 12.2475L79.044 13.5119L95.5604 17.2205C98.3937 17.8579 100.277 20.5477 99.9073 23.4296Z" fill="#EBECEE"/>
<path id="Vector_14" d="M79.852 97.6905C79.7711 97.6905 79.6968 97.6378 79.6723 97.5568C79.6441 97.4627 79.693 97.3629 79.7842 97.3271C80.6694 96.9825 81.4267 96.3461 81.9186 95.5373C82.0212 95.3679 82.1115 95.1937 82.1867 95.0176C82.3485 94.6467 82.4576 94.2503 82.5113 93.8389L82.6401 92.8324L82.8706 91.0389L91.3141 25.2953C91.6735 22.4934 89.8674 19.9137 87.1131 19.2942L60.665 13.3553L59.1147 13.0079C58.5042 12.8695 57.8862 12.861 57.2795 12.9824C57.1788 13.0032 57.08 12.9382 57.0584 12.8365C57.0368 12.7348 57.1007 12.636 57.2014 12.6134L65.3749 10.7765L65.5518 10.7351C66.23 10.5901 66.9214 10.5948 67.6053 10.7502L79.0872 13.328L95.6036 17.0365C98.5489 17.6993 100.48 20.4579 100.096 23.4537L91.6528 89.1973L91.2934 91.9964C91.2078 92.6582 90.9915 93.2796 90.6491 93.8427C90.1157 94.7211 89.2945 95.4112 88.335 95.7868C88.3331 95.7868 88.3312 95.7887 88.3294 95.7897C87.9907 95.9234 87.6333 96.0166 87.2673 96.0665L79.8952 97.6868C79.8821 97.6896 79.868 97.6915 79.8548 97.6915L79.852 97.6905ZM58.9887 12.5974C59.0583 12.6096 59.127 12.6237 59.1966 12.6397L70.6785 15.2176L87.1949 18.9261C90.1402 19.5889 92.0714 22.3475 91.6876 25.3433L83.2441 91.0869L82.8847 93.886C82.8264 94.3341 82.7079 94.7644 82.5329 95.1664C82.4511 95.3575 82.3532 95.5477 82.2413 95.7322C81.9318 96.2416 81.5254 96.6878 81.0513 97.0466L87.1958 95.6964C87.1958 95.6964 87.2024 95.6955 87.2062 95.6946C87.2081 95.6946 87.2147 95.6927 87.2165 95.6927C87.5514 95.6466 87.8778 95.5618 88.1873 95.4404C88.1901 95.4394 88.192 95.4385 88.1939 95.4375C89.0791 95.092 89.8363 94.4565 90.3283 93.6468C90.6434 93.129 90.8419 92.5575 90.9209 91.9484L91.0498 90.9419L99.7238 23.4048C100.083 20.6029 98.277 18.0232 95.5227 17.4037L79.0063 13.6952L67.5244 11.1173C66.8932 10.9742 66.2564 10.9695 65.6317 11.1032L65.4615 11.1428L58.9924 12.5964L58.9887 12.5974Z" fill="black"/>
</g>
</g>
<g id="Group_13">
<path id="Vector_15" d="M78.5765 48.5099C78.5693 48.5091 78.5611 48.5081 78.5542 48.506L57.4471 43.1001C57.337 43.0722 57.2755 42.944 57.309 42.8139C57.3426 42.6838 57.459 42.6015 57.5691 42.6294L78.6762 48.0353C78.7863 48.0633 78.8478 48.1914 78.8143 48.3215C78.7833 48.4422 78.6797 48.5224 78.5775 48.5101L78.5765 48.5099Z" fill="black"/>
</g>
<g id="Group_14">
<path id="Vector_16" d="M79.9217 38.3693C79.9145 38.3684 79.9063 38.3675 79.8994 38.3654L58.7923 32.9595C58.6822 32.9316 58.6207 32.8034 58.6542 32.6733C58.6878 32.5432 58.8043 32.4609 58.9143 32.4888L80.0214 37.8947C80.1315 37.9226 80.1931 38.0508 80.1595 38.1809C80.1285 38.3016 80.0249 38.3818 79.9227 38.3694L79.9217 38.3693Z" fill="black"/>
</g>
<g id="Group_15">
<path id="Vector_17" d="M77.887 53.4054C77.8798 53.4046 77.8717 53.4036 77.8647 53.4015L56.7576 47.9956C56.6476 47.9677 56.586 47.8395 56.6196 47.7094C56.6531 47.5793 56.7696 47.497 56.8797 47.5249L77.9867 52.9309C78.0968 52.9588 78.1584 53.0869 78.1248 53.217C78.0938 53.3377 77.9902 53.4179 77.888 53.4056L77.887 53.4054Z" fill="black"/>
</g>
<g id="Group_16">
<path id="Vector_18" d="M80.6287 33.3908C80.6215 33.3899 80.6134 33.3889 80.6064 33.3869L59.4993 27.981C59.3893 27.953 59.3277 27.8249 59.3613 27.6948C59.3948 27.5647 59.5113 27.4824 59.6214 27.5103L80.7284 32.9162C80.8385 32.9441 80.9001 33.0723 80.8665 33.2024C80.8355 33.3231 80.7319 33.4032 80.6297 33.3909L80.6287 33.3908Z" fill="black"/>
</g>
<g id="Group_17">
<path id="Vector_19" d="M71.8044 56.8536C71.7973 56.8528 71.7891 56.8518 71.7821 56.8497L56.0432 52.8309C55.9332 52.803 55.8717 52.6753 55.9052 52.5456C55.9388 52.4159 56.0552 52.3339 56.1653 52.3617L71.9041 56.3806C72.0142 56.4084 72.0757 56.5362 72.0422 56.6659C72.0112 56.7861 71.9076 56.866 71.8054 56.8538L71.8044 56.8536Z" fill="black"/>
</g>
<g id="Group_18">
<path id="Vector_20" d="M73.8176 41.9591C73.8104 41.9582 73.8023 41.9573 73.7953 41.9552L58.0564 37.9363C57.9464 37.9085 57.8848 37.7808 57.9184 37.6511C57.9519 37.5214 58.0684 37.4394 58.1784 37.4672L73.9173 41.4861C74.0274 41.5139 74.0889 41.6416 74.0554 41.7713C74.0244 41.8916 73.9208 41.9715 73.8186 41.9592L73.8176 41.9591Z" fill="black"/>
</g>
<g id="Layer 245 copy 4">
<g id="Vector_21">
<path fill-rule="evenodd" clip-rule="evenodd" d="M38.57 54.4823C38.4946 54.5263 38.4462 54.6078 38.4461 54.6978C38.4443 55.8247 38.4421 56.9524 38.4399 58.0793L38.4398 58.0965C38.4379 59.0969 38.4359 60.098 38.4342 61.0985C38.2984 61.0466 38.1647 60.9953 38.0332 60.9449C38.1654 60.9954 38.2999 61.0465 38.4365 61.0987C38.4382 60.0923 38.4401 59.0859 38.4421 58.0796C38.4443 56.9523 38.4466 55.8252 38.4483 54.698C38.4485 54.6191 38.4859 54.5448 38.5492 54.4978L38.57 54.4823Z" fill="black"/>
<path fill-rule="evenodd" clip-rule="evenodd" d="M29.7713 58.32L29.7725 58.3204L29.7745 58.3212L29.7757 58.3216L29.9921 58.4044C30.3294 58.5335 30.6687 58.6634 31.0187 58.7973C30.5925 58.6342 30.1816 58.4769 29.7713 58.32ZM44.4452 63.0713C44.7054 63.431 44.9656 63.7906 45.2259 64.1503L45.2309 64.1573C44.969 63.7953 44.7071 63.4333 44.4452 63.0713ZM45.3171 77.4706L45.2975 77.4827C44.7739 77.8076 44.2503 78.1324 43.7267 78.4573C44.2568 78.1284 44.787 77.7995 45.3171 77.4706Z" fill="black"/>
<path d="M21.5489 54.6399C25.7652 56.2516 27.8582 57.0525 29.9512 57.8534L29.9555 57.8551L29.9566 57.8555C31.9299 58.6106 33.9049 59.3664 37.6611 60.8023L38.0241 60.9414L38.0332 60.9449L38.4342 61.0985C38.4359 60.098 38.4379 59.0969 38.4398 58.0965L38.4399 58.0793C38.4421 56.9524 38.4443 55.8247 38.4461 54.6978C38.4462 54.6078 38.4946 54.5263 38.57 54.4823L38.7857 54.322C36.8523 53.5834 34.1655 52.5572 31.9001 51.6919L27.6427 50.066L25.2907 51.8317C24.0666 52.7505 22.6234 53.8338 21.5489 54.6399Z" fill="#FF444F"/>
<path d="M29.7725 58.3204L29.7713 58.32C27.665 57.5139 25.5571 56.7079 21.2863 55.0754L21.2505 68.1235C25.7381 69.8461 27.8797 70.6734 30.0698 71.5193C32.197 72.341 34.3698 73.1803 38.7822 74.8748C38.8786 74.9118 38.9424 75.0044 38.9425 75.1077C38.9459 77.211 38.9507 79.3142 38.9557 81.4176C40.546 80.4307 42.1364 79.4439 43.7267 78.4573L45.2975 77.4827L45.3171 77.4706L45.3367 77.4584L45.3542 77.4476C47.5379 76.0928 49.7216 74.738 51.9053 73.3828C49.7039 70.3397 47.5025 67.2971 45.3011 64.2544L45.2781 64.2225L45.236 64.1643L45.2309 64.1573L45.2259 64.1503L44.4452 63.0713C42.6117 60.5371 40.7783 58.003 38.9448 55.4685C38.9433 56.3391 38.9416 57.2098 38.9399 58.0803C38.9377 59.2073 38.9354 60.335 38.9337 61.4619C38.9335 61.5441 38.893 61.621 38.8252 61.6675C38.7763 61.7011 38.7178 61.7158 38.6601 61.7104C38.6378 61.7083 38.6158 61.7032 38.5944 61.695C35.4038 60.4754 33.389 59.7045 31.7163 59.0643L31.0187 58.7973L29.9921 58.4044L29.7757 58.3216L29.7745 58.3212L29.7725 58.3204Z" fill="#FF7E88"/>
<path d="M45.6819 63.9296C43.4687 60.8706 41.2554 57.8115 39.0422 54.7521C40.0814 53.9818 41.1212 53.2117 42.1608 52.4417L42.1635 52.4398L42.1643 52.4392C43.2011 51.6712 44.238 50.9033 45.2746 50.135C47.4738 53.1882 49.6733 56.241 51.8729 59.2937L51.8826 59.3071L51.9201 59.3593C51.9439 59.3922 51.9676 59.4251 51.9913 59.458C54.1594 62.4671 56.3274 65.4761 58.4951 68.4856L52.3176 73.1017C50.1057 70.0441 47.8938 66.9869 45.6819 63.9296Z" fill="#FF444F"/>
<path fill-rule="evenodd" clip-rule="evenodd" d="M27.6922 49.5497C27.6119 49.519 27.5216 49.5317 27.4529 49.5833L24.9905 51.4318C23.6224 52.4587 21.9807 53.691 20.886 54.5121L20.8246 54.5777C20.7928 54.6277 20.7807 54.6855 20.7872 54.741L20.75 68.2944C20.7497 68.3982 20.8135 68.4913 20.9104 68.5285C25.5148 70.2959 27.6768 71.131 29.8887 71.9854C31.9865 72.7957 34.1293 73.6234 38.4428 75.28C38.4464 77.4685 38.4516 79.6704 38.4567 81.8588L38.4567 81.8669C38.457 81.9575 38.5062 82.0409 38.5855 82.0849C38.6647 82.1289 38.7616 82.1265 38.8386 82.0787C41.0983 80.6763 43.358 79.2744 45.6178 77.8725C47.8775 76.4705 50.1538 75.0566 52.4135 73.6542L58.9912 68.739C59.1004 68.6574 59.1241 68.5033 59.0444 68.3927C56.7996 65.2761 54.5544 62.16 52.3092 59.0439L52.3079 59.0421C50.0557 55.9163 47.7839 52.7633 45.5321 49.6371C45.493 49.5828 45.4338 49.5465 45.3677 49.5362C45.3016 49.5259 45.2342 49.5425 45.1804 49.5824C44.0772 50.4002 42.9735 51.2176 41.8698 52.0351L41.8648 52.0387L41.8625 52.0405L39.2492 53.9764C37.2993 53.2314 34.5153 52.1556 32.0785 51.2248L27.6922 49.5497ZM29.7713 58.32L29.7725 58.3204L29.7745 58.3212L29.7757 58.3216L29.9921 58.4044L31.0187 58.7973L31.7163 59.0643C33.3895 59.7045 35.405 60.4752 38.5966 61.6952C38.6173 61.7031 38.6386 61.7081 38.6601 61.7104C38.7178 61.7158 38.7763 61.7011 38.8252 61.6675C38.893 61.621 38.9335 61.5441 38.9337 61.4619C38.9354 60.335 38.9377 59.2073 38.9399 58.0803C38.9416 57.2098 38.9433 56.3391 38.9448 55.4685C40.7783 58.003 42.6117 60.5371 44.4452 63.0713L45.2259 64.1503L45.2309 64.1573L45.236 64.1643L45.2781 64.2225L45.3011 64.2544C47.5025 67.2971 49.7039 70.3397 51.9053 73.3828C49.7216 74.738 47.5379 76.0928 45.3542 77.4476L45.3367 77.4584L45.3171 77.4706L45.2975 77.4827L43.7267 78.4573C42.1364 79.4439 40.546 80.4307 38.9557 81.4176C38.9507 79.3142 38.9459 77.211 38.9425 75.1077C38.9424 75.0044 38.8786 74.9118 38.7822 74.8748C34.3698 73.1803 32.197 72.341 30.0698 71.5193C27.8797 70.6734 25.7381 69.8461 21.2505 68.1235L21.2863 55.0754C25.5571 56.7079 27.665 57.5139 29.7713 58.32ZM29.9512 57.8534C27.8582 57.0525 25.7652 56.2516 21.5489 54.6399C22.6234 53.8338 24.0666 52.7505 25.2907 51.8317L27.6427 50.066L31.9001 51.6919C34.1655 52.5572 36.8523 53.5834 38.7857 54.322L38.57 54.4823L38.5492 54.4978C38.4859 54.5448 38.4485 54.6191 38.4483 54.698C38.4466 55.8252 38.4443 56.9523 38.4421 58.0796C38.4401 59.0859 38.4382 60.0923 38.4365 61.0987L38.4342 61.0985C38.2984 61.0466 38.1647 60.9953 38.0332 60.9449C38.0301 60.9437 38.0271 60.9425 38.0241 60.9414C37.9012 60.8943 37.7803 60.8479 37.6611 60.8023C33.9049 59.3664 31.9299 58.6106 29.9566 57.8555L29.9555 57.8551L29.9512 57.8534ZM39.0422 54.7521C41.2554 57.8115 43.4687 60.8706 45.6819 63.9296C47.8938 66.9869 50.1057 70.0441 52.3176 73.1017L58.4951 68.4856C56.3274 65.4761 54.1594 62.4671 51.9913 59.458L51.9201 59.3593L51.8826 59.3071L51.8729 59.2937C49.6733 56.241 47.4738 53.1882 45.2746 50.135C44.238 50.9033 43.2011 51.6712 42.1643 52.4392L42.1635 52.4398L42.1608 52.4417C41.1212 53.2117 40.0814 53.9818 39.0422 54.7521Z" fill="black"/>
</g>
</g>
<g id="Group_19">
<g id="Group_20">
<path id="Vector_22" d="M76.0145 78.9837L72.6518 80.8681L72.3254 77.9819L71.8845 74.0714L75.2472 72.187L76.0145 78.9837Z" fill="#EBECEE"/>
<path id="Vector_23" d="M72.6522 81.0558C72.6231 81.0558 72.5931 81.0492 72.5668 81.0352C72.5105 81.0061 72.473 80.9517 72.4664 80.8898L71.6992 74.0931C71.6907 74.0181 71.7283 73.9449 71.7939 73.9084L75.1575 72.0239C75.2119 71.993 75.2785 71.992 75.3348 72.0211C75.3911 72.0502 75.4286 72.1046 75.4352 72.1665L76.2024 78.9632C76.2109 79.0382 76.1734 79.1114 76.1077 79.1479L72.745 81.0324C72.7169 81.0483 72.685 81.0558 72.6531 81.0558H72.6522ZM72.0847 74.1738L72.8069 80.5662L75.8141 78.8806L75.0928 72.4882L72.0847 74.1738Z" fill="black"/>
</g>
<g id="Group_21">
<path id="Vector_24" d="M74.7427 84.3228L73.1059 88.2576L69.7441 90.1421L72.1782 84.2881L72.6613 84.2947L74.7427 84.3228Z" fill="#EBECEE"/>
<path id="Vector_25" d="M69.7443 90.3298C69.6992 90.3298 69.6551 90.3138 69.6195 90.2819C69.5595 90.2285 69.5407 90.144 69.5707 90.0699L72.0057 84.216C72.0348 84.1447 72.1052 84.1025 72.1811 84.1006L74.7456 84.1353C74.8075 84.1353 74.8657 84.1681 74.8994 84.2197C74.9332 84.2713 74.9398 84.337 74.9163 84.3951L73.2795 88.33C73.2636 88.3684 73.2345 88.4013 73.1979 88.4219L69.8352 90.3063C69.8062 90.3223 69.7752 90.3298 69.7433 90.3298H69.7443ZM72.3031 84.4777L70.126 89.7135L72.9587 88.1264L74.4642 84.5077L72.304 84.4786L72.3031 84.4777Z" fill="black"/>
</g>
<g id="Group_22">
<path id="Vector_26" d="M78.4495 84.3756L74.7426 84.3249L72.6612 84.2968L72.1781 84.2902L69.744 90.1442L68.9758 83.3138L63.1875 79.7898L69.4495 79.8751L69.518 79.711L70.2552 77.9551L71.8845 74.0728L72.3254 77.9832L72.6518 80.8694L75.4704 82.5737L78.4495 84.3756Z" fill="white"/>
<path id="Vector_27" d="M69.744 90.3314C69.7356 90.3314 69.7262 90.3314 69.7178 90.3295C69.6334 90.3174 69.5677 90.2498 69.5574 90.1645L68.8004 83.425L63.0909 79.9489C63.0187 79.9048 62.9849 79.8185 63.0084 79.7369C63.0318 79.6553 63.1068 79.6046 63.1913 79.6009L69.3266 79.6843L70.0827 77.8815L71.7119 73.9992C71.7448 73.9204 71.8273 73.8735 71.9117 73.8857C71.9961 73.8979 72.0618 73.9654 72.0712 74.0499L72.8281 80.7555L78.547 84.2129C78.6193 84.257 78.654 84.3433 78.6305 84.4249C78.6071 84.5056 78.5339 84.5609 78.4504 84.5609H78.4476L72.3029 84.4774L69.9166 90.2142C69.8876 90.2845 69.8181 90.3295 69.7431 90.3295L69.744 90.3314ZM63.8722 79.9864L69.0743 83.153C69.124 83.183 69.1569 83.2346 69.1634 83.2918L69.85 89.4009L72.0055 84.2167C72.0346 84.1454 72.105 84.1032 72.1809 84.1013L77.7619 84.1773L72.5552 81.0294C72.5055 80.9994 72.4726 80.9478 72.4661 80.8896L71.7795 74.8087L69.624 79.947C69.5949 80.0173 69.5264 80.0624 69.4505 80.0624H69.4476L63.8722 79.9864Z" fill="black"/>
</g>
<g id="Group_23">
<path id="Vector_28" d="M81.8117 82.4882L78.4491 84.3735L75.47 82.5716L72.6514 80.8673L76.014 78.9829L81.8117 82.4882Z" fill="#EBECEE"/>
<path id="Vector_29" d="M78.4493 84.5603C78.4155 84.5603 78.3817 84.5509 78.3527 84.5331L72.555 81.0278C72.4977 80.9931 72.463 80.9312 72.4649 80.8637C72.4659 80.7971 72.5024 80.7361 72.5606 80.7033L75.9233 78.8189C75.9824 78.786 76.0546 78.787 76.1118 78.8217L81.9095 82.3269C81.9667 82.3616 82.0014 82.4235 81.9996 82.4911C81.9986 82.5577 81.962 82.6186 81.9039 82.6515L78.5412 84.5368C78.5131 84.5528 78.4812 84.5612 78.4493 84.5612V84.5603ZM73.024 80.874L78.453 84.156L81.4396 82.4817L76.0105 79.1997L73.024 80.8731V80.874Z" fill="black"/>
</g>
<g id="Group_24">
<path id="Vector_30" d="M70.2555 77.954L69.5182 79.7099L69.4497 79.8741L63.1877 79.7887L66.5514 77.9043L70.2555 77.954Z" fill="#EBECEE"/>
<path id="Vector_31" d="M69.4497 80.0622H69.4469L63.1849 79.9769C63.1004 79.9759 63.0263 79.9178 63.0057 79.8352C62.9851 79.7527 63.0217 79.6673 63.0958 79.6251L66.4594 77.7398C66.4884 77.7238 66.5203 77.7163 66.5541 77.7163L70.2582 77.767C70.3201 77.767 70.3783 77.7998 70.413 77.8514C70.4467 77.9039 70.4533 77.9696 70.4289 78.0268L69.6241 79.9459C69.5951 80.0162 69.5266 80.0613 69.4506 80.0613L69.4497 80.0622ZM63.8893 79.611L69.3259 79.6851L69.9749 78.1384L66.5991 78.0924L63.8893 79.611Z" fill="black"/>
</g>
</g>
</g>
</g>
<defs>
<clipPath id="clip0_4823_132">
<rect width="140" height="100" fill="white"/>
</clipPath>
</defs>
</svg>
