<svg width="120" height="152" viewBox="0 0 120 152" fill="none" xmlns="http://www.w3.org/2000/svg">
<g id="illustration / deriv / light / spread-risk">
<g id="Spread Risks">
<g id="Spread Risk 1" clip-path="url(#clip0_1338_91)">
<g id="Layer 1">
<g id="Group">
<g id="Group_2">
<g id="Group_3">
<path id="Vector" d="M114.256 96.8846C113.971 97.8979 113.47 99.6156 111.978 101.258C110.91 102.426 109.765 103.094 109.008 103.457C102.69 106.383 99.9214 107.609 93.6037 110.534C94.1757 110.252 94.7691 109.889 95.3638 109.417C95.7011 109.149 97.2975 107.837 98.3306 105.495C99.0705 103.82 99.1829 102.386 99.2597 101.336C99.3921 99.4491 99.1217 97.9775 98.9666 97.2816C98.6564 95.8855 98.1869 94.7698 97.787 93.9814C87.5123 72.8123 77.3329 51.8452 67.0638 30.6975C66.7394 29.9959 66.2499 29.0538 65.5299 28.0191C64.7416 26.8934 63.5194 25.1814 61.3295 23.8067C60.4288 23.2403 58.3429 21.968 55.3946 21.8982C54.6462 21.8783 53.1507 21.8584 51.4304 22.5315C58.0796 19.3494 61.1815 17.8608 67.8336 14.6801C69.1341 14.4097 71.7608 14.0696 74.6407 15.1839C76.8477 16.0378 78.2421 17.3713 79.066 18.1768C80.6454 19.7194 81.5802 21.3048 82.1124 22.3921C92.4469 43.6992 102.781 65.005 113.114 86.3121C113.708 87.6527 115.56 92.211 114.254 96.8846H114.256Z" fill="#EBECEE"/>
<path id="Vector_2" d="M93.6051 110.818C93.4984 110.818 93.3974 110.759 93.3476 110.656C93.2807 110.515 93.3391 110.347 93.4785 110.278C94.079 109.982 94.6538 109.616 95.186 109.192C95.62 108.849 97.1069 107.559 98.0702 105.378C98.8016 103.724 98.9026 102.331 98.9752 101.313C99.0691 99.9784 98.9695 98.605 98.6891 97.3413C98.4401 96.2156 98.0503 95.1283 97.5338 94.1079C87.2562 72.9331 77.0767 51.9675 66.8091 30.8198C66.3808 29.8919 65.8728 29.0053 65.298 28.1798C64.5752 27.1466 63.3628 25.4161 61.1801 24.0456C60.3975 23.5547 58.3215 22.2496 55.3904 22.1799C54.7486 22.1628 53.2503 22.123 51.5371 22.7947C51.3949 22.8502 51.2341 22.7833 51.1729 22.6424C51.1117 22.5015 51.1729 22.3379 51.3109 22.2724C54.2919 20.8464 56.56 19.7606 58.7541 18.7089C61.4547 17.4153 64.0444 16.1757 67.7141 14.4196C67.7354 14.4096 67.7568 14.4025 67.7795 14.3982C69.4514 14.051 72.0169 13.8588 74.7475 14.9148C77.0526 15.8057 78.494 17.2132 79.2694 17.9703C80.5429 19.2141 81.5859 20.6586 82.3728 22.2639C92.7087 43.571 103.043 64.8782 113.375 86.1839C114.332 88.3442 115.75 92.6023 114.533 96.9585C114.261 97.9248 113.758 99.7236 112.192 101.446C111.332 102.388 110.304 103.149 109.135 103.71C105.973 105.174 103.664 106.229 101.431 107.249C99.1971 108.27 96.8878 109.325 93.7275 110.788C93.6891 110.807 93.6478 110.816 93.608 110.816L93.6051 110.818ZM54.9407 21.605C55.1228 21.605 55.2779 21.6092 55.4032 21.6121C58.4908 21.6861 60.6636 23.0509 61.4818 23.5646C63.7627 24.9963 65.0148 26.7852 65.7633 27.8554C66.3581 28.7078 66.8831 29.6229 67.3228 30.5764C77.589 51.7185 87.7684 72.6855 98.0432 93.8546C98.5796 94.9134 98.9851 96.0462 99.2441 97.2175C99.5372 98.5339 99.6411 99.9641 99.5429 101.353C99.4703 102.352 99.3608 103.862 98.5895 105.607C97.8966 107.178 96.9646 108.298 96.2659 108.988C98.1058 108.141 99.6653 107.428 101.188 106.733C103.42 105.712 105.728 104.658 108.886 103.196C109.984 102.67 110.955 101.951 111.766 101.063C113.24 99.4404 113.721 97.7255 113.98 96.8048C115.149 92.6222 113.776 88.5051 112.853 86.4244C102.525 65.1272 92.1894 43.8201 81.8548 22.5129C81.0979 20.9674 80.0919 19.5756 78.8668 18.3773C78.1212 17.6501 76.7338 16.2952 74.5369 15.4456C71.9543 14.4452 69.5212 14.6202 67.9232 14.9475C64.2692 16.6952 61.6867 17.9319 58.9946 19.2212C57.4208 19.9755 55.8101 20.7468 53.9248 21.6491C54.3161 21.6121 54.659 21.6021 54.9379 21.6021L54.9407 21.605Z" fill="black"/>
</g>
<g id="Group_4">
<path id="Vector_3" d="M98.968 97.28C98.6578 95.8839 98.1882 94.7682 97.7884 93.9798C87.5137 72.8107 77.3342 51.8437 67.0652 30.6959C66.7408 29.9943 66.2513 29.0522 65.5313 28.0175C64.743 26.8918 63.5208 25.1798 61.3309 23.8051C60.4302 23.2387 58.3442 21.9664 55.396 21.8966C54.6476 21.8767 53.1521 21.8568 51.4318 22.5299C51.0149 22.7292 50.6008 22.927 50.1853 23.1262C48.364 24.1708 47.3481 25.5783 46.9027 26.2827C36.2865 45.0695 25.6702 63.8592 15.054 82.6474C14.5617 83.6194 13.8687 85.2944 13.7307 87.4704C13.5614 90.1345 14.3141 92.1169 14.7353 93.1942C15.1465 94.2416 16.2834 96.7933 18.7108 98.9181C21.6833 101.522 25.0925 102.184 26.6606 102.469C32.8772 103.6 55.7218 107.219 86.9132 111.639C87.7712 111.735 89.0475 111.789 90.5416 111.507C91.1435 111.392 92.084 111.203 93.1512 110.741C93.2807 110.682 93.413 110.62 93.5425 110.561C93.5652 110.549 93.5852 110.541 93.6051 110.529C94.1771 110.248 94.7704 109.885 95.3652 109.412C95.7024 109.145 97.2989 107.833 98.332 105.49C99.0719 103.815 99.1843 102.382 99.2611 101.332C99.3934 99.4446 99.1231 97.9731 98.968 97.2772V97.28ZM62.4024 53.6055C62.3796 60.6642 62.3568 67.7201 62.3341 74.7803C58.4666 74.2367 54.5978 73.693 50.7303 73.1494C50.7445 66.0479 50.7559 58.9437 50.7702 51.8422C54.6476 52.4314 58.5264 53.0163 62.4024 53.6055ZM50.6521 93.5016C50.7175 89.4784 50.7844 85.4538 50.8498 81.4306C54.6988 82.024 58.5434 82.6161 62.3895 83.2067C62.3981 87.2213 62.4095 91.2374 62.418 95.2521C58.4965 94.6686 54.575 94.0837 50.6535 93.5002L50.6521 93.5016Z" fill="white"/>
<path id="Vector_4" d="M88.2921 112.005C87.8225 112.005 87.353 111.98 86.882 111.927C56.0961 107.564 33.105 103.936 26.6108 102.753C25.2463 102.506 21.6193 101.848 18.5245 99.1373C16.1881 97.0908 14.9829 94.6032 14.4721 93.3025C14.0822 92.3077 13.2712 90.237 13.4476 87.4562C13.5572 85.7385 14.0125 84.0777 14.8008 82.5222L17.3962 77.9298C27.1501 60.6672 36.9027 43.406 46.6566 26.1462C47.2571 25.1956 48.3257 23.8692 50.046 22.883C50.0517 22.8801 50.0588 22.8759 50.0645 22.873L51.3109 22.2767C51.3109 22.2767 51.3237 22.271 51.3309 22.2682C53.1507 21.5566 54.7302 21.5979 55.406 21.615C58.4937 21.689 60.6665 23.0537 61.4847 23.5675C63.7656 24.9992 65.0177 26.788 65.7662 27.8582C66.3609 28.7107 66.886 29.6258 67.3257 30.5793C77.5919 51.7213 87.7713 72.6884 98.046 93.8575C98.5825 94.9163 98.988 96.0491 99.247 97.2204C99.5401 98.5368 99.644 99.967 99.5458 101.356C99.4732 102.355 99.3636 103.865 98.5924 105.61C97.6049 107.85 96.1294 109.175 95.5417 109.64C94.9797 110.087 94.3721 110.474 93.7375 110.787C93.7218 110.796 93.7062 110.803 93.6891 110.811L93.2708 111.005C92.1353 111.496 91.135 111.688 90.5972 111.792C89.8388 111.934 89.0675 112.007 88.2935 112.007L88.2921 112.005ZM50.3178 23.3796C48.7042 24.3075 47.701 25.5542 47.1433 26.4365C37.3964 43.6835 27.6439 60.9461 17.8899 78.2073L15.3016 82.7898C14.5532 84.2656 14.1192 85.8509 14.0153 87.4904C13.8474 90.1445 14.6272 92.1355 15.0014 93.0933C15.4923 94.3456 16.6534 96.7393 18.8987 98.7075C21.8754 101.315 25.2648 101.93 26.7119 102.193C33.2031 103.375 56.1844 107 86.9531 111.362C88.137 111.494 89.3294 111.45 90.489 111.233C91.0041 111.134 91.966 110.949 93.0388 110.485L93.443 110.299C93.443 110.299 93.4572 110.293 93.4629 110.289C93.4686 110.286 93.4728 110.283 93.4785 110.28C94.079 109.984 94.6538 109.619 95.186 109.195C95.62 108.852 97.1069 107.562 98.0702 105.381C98.8016 103.727 98.9026 102.334 98.9752 101.316C99.0691 99.9812 98.9695 98.6079 98.6892 97.3442C98.4402 96.2185 98.0503 95.1312 97.5338 94.1108C87.2562 72.936 77.0768 51.9704 66.8091 30.8226C66.3809 29.8947 65.8729 29.0081 65.298 28.1841C64.5752 27.1509 63.3629 25.4204 61.1802 24.0499C60.3976 23.559 58.3216 22.2539 55.3904 22.1842C54.7515 22.1671 53.256 22.1287 51.5471 22.7947L50.3192 23.3825L50.3178 23.3796ZM62.4167 95.5368C62.4024 95.5368 62.3882 95.5368 62.3754 95.5339C60.4459 95.2465 58.5151 94.959 56.5856 94.6715C54.5936 94.3755 52.6029 94.0781 50.6109 93.7821C50.47 93.7607 50.3661 93.6383 50.3676 93.496C50.4003 91.4837 50.433 89.4714 50.4657 87.4591C50.4985 85.4482 50.5312 83.4359 50.5639 81.425C50.5639 81.3424 50.6023 81.2656 50.6649 81.2115C50.7275 81.1589 50.8115 81.1347 50.8912 81.1475C54.6619 81.7295 58.4297 82.3088 62.1975 82.888L62.4309 82.9235C62.5689 82.9449 62.6714 83.0644 62.6728 83.2039C62.677 85.1621 62.6813 87.1218 62.687 89.08C62.6927 91.1365 62.697 93.1929 62.7012 95.2493C62.7012 95.3318 62.6657 95.4115 62.6031 95.4656C62.5504 95.5112 62.485 95.5354 62.4167 95.5354V95.5368ZM50.941 93.2569C52.8505 93.5401 54.76 93.8248 56.6696 94.1094C58.4909 94.3812 60.3122 94.6516 62.1321 94.9234C62.1278 92.9766 62.1235 91.0311 62.1179 89.0843C62.1136 87.2072 62.1093 85.3301 62.105 83.4515C58.4468 82.8894 54.7885 82.3273 51.1288 81.7623C51.0975 83.665 51.0662 85.5677 51.0349 87.4705C51.0036 89.4002 50.9709 91.3286 50.941 93.2583V93.2569ZM62.3356 75.065C62.3228 75.065 62.3085 75.065 62.2957 75.0622L50.692 73.4313C50.5511 73.4113 50.4472 73.2904 50.4472 73.1495C50.4543 69.5988 50.46 66.048 50.4672 62.4959C50.4729 58.9452 50.48 55.393 50.4871 51.8423C50.4871 51.7598 50.5241 51.6815 50.5867 51.6274C50.6493 51.5733 50.7332 51.5491 50.8143 51.562C52.7609 51.858 54.7088 52.1526 56.6568 52.4471C58.5876 52.7389 60.5185 53.0321 62.448 53.3252C62.5874 53.3466 62.6899 53.4661 62.6899 53.607L62.6216 74.7818C62.6216 74.8643 62.586 74.9426 62.5234 74.9953C62.4707 75.0408 62.4053 75.065 62.337 75.065H62.3356ZM51.0164 72.9018L62.0524 74.4516L62.1179 53.8489C60.2695 53.5686 58.4197 53.2882 56.57 53.0079C54.7316 52.7289 52.8932 52.4514 51.0548 52.1725C51.0477 55.6136 51.042 59.0548 51.0363 62.4959C51.0306 65.9641 51.0235 69.4337 51.0178 72.9018H51.0164Z" fill="black"/>
</g>
<g id="Group_5">
<path id="Vector_5" d="M50.7703 51.8423C54.6477 52.4315 58.5265 53.0164 62.4025 53.6055C62.3797 60.6643 62.357 67.7202 62.3342 74.7803C58.4668 74.2367 54.5979 73.6931 50.7305 73.1494C50.7447 66.048 50.7561 58.9437 50.7703 51.8423Z" fill="white"/>
<path id="Vector_6" d="M62.3356 75.065C62.3228 75.065 62.3085 75.065 62.2957 75.0622L50.692 73.4313C50.5511 73.4113 50.4473 73.2904 50.4473 73.1495C50.4544 69.5988 50.4601 66.048 50.4672 62.4959C50.4729 58.9452 50.48 55.393 50.4871 51.8423C50.4871 51.7598 50.5241 51.6815 50.5867 51.6274C50.6493 51.5733 50.7333 51.5491 50.8144 51.562C52.7609 51.858 54.7088 52.1526 56.6568 52.4471C58.5877 52.7389 60.5185 53.0321 62.448 53.3252C62.5874 53.3466 62.6899 53.4661 62.6899 53.607L62.6216 74.7818C62.6216 74.8643 62.586 74.9426 62.5234 74.9953C62.4708 75.0408 62.4053 75.065 62.337 75.065H62.3356ZM51.0164 72.9018L62.0524 74.4516L62.1179 53.8489C60.2695 53.5686 58.4198 53.2882 56.57 53.0079C54.7316 52.7289 52.8932 52.4514 51.0548 52.1725C51.0477 55.6136 51.042 59.0548 51.0363 62.4959C51.0307 65.9641 51.0235 69.4337 51.0178 72.9018H51.0164Z" fill="black"/>
</g>
<g id="Group_6">
<path id="Vector_7" d="M62.3896 83.2067C62.3982 87.2214 62.4095 91.2374 62.4181 95.2521C58.4966 94.6686 54.5751 94.0837 50.6536 93.5002C50.719 89.477 50.7859 85.4524 50.8513 81.4292C54.7003 82.0226 58.545 82.6147 62.3911 83.2053L62.3896 83.2067Z" fill="white"/>
<path id="Vector_8" d="M62.4165 95.5367C62.4023 95.5367 62.3881 95.5367 62.3753 95.5339C60.4458 95.2464 58.515 94.9589 56.5855 94.6714C54.5935 94.3754 52.6028 94.078 50.6108 93.782C50.4699 93.7606 50.366 93.6383 50.3674 93.4959C50.4002 91.4836 50.4329 89.4713 50.4656 87.459C50.4984 85.4481 50.5311 83.4358 50.5638 81.4249C50.5638 81.3424 50.6022 81.2655 50.6648 81.2115C50.7274 81.1588 50.8114 81.1346 50.8911 81.1474C54.6618 81.7295 58.4296 82.3087 62.1974 82.8879L62.4308 82.9235C62.5688 82.9448 62.6712 83.0644 62.6727 83.2038C62.6769 85.1621 62.6812 87.1217 62.6869 89.08C62.6926 91.1364 62.6969 93.1928 62.7011 95.2492C62.7011 95.3318 62.6656 95.4115 62.6029 95.4656C62.5503 95.5111 62.4848 95.5353 62.4165 95.5353V95.5367ZM50.9409 93.2569C52.8504 93.5401 54.7599 93.8247 56.6695 94.1093C58.4908 94.3811 60.3121 94.6515 62.132 94.9233C62.1277 92.9765 62.1234 91.0311 62.1177 89.0842C62.1135 87.2071 62.1092 85.33 62.1049 83.4515C58.4467 82.8893 54.7884 82.3272 51.1287 81.7622C51.0974 83.6649 51.0661 85.5677 51.0348 87.4704C51.0035 89.3987 50.9708 91.3285 50.9409 93.2569Z" fill="black"/>
</g>
</g>
<g id="Group_7">
<g id="Group_8">
<g id="Group_9">
<path id="Vector_9" d="M35.6907 94.6245H35.6878C35.6366 94.6686 35.5854 94.7085 35.5299 94.744C35.2567 94.9205 34.9195 95.0116 34.5509 94.9703L24.1154 93.792C22.4022 93.5984 21.4147 91.7469 22.2101 90.2156L27.6157 79.8026C27.8107 79.4269 28.1351 79.192 28.4894 79.0981H28.4922C29.1055 78.9387 29.8113 79.1977 30.1172 79.8623L31.9741 83.8983L32.0111 83.978L34.9052 90.2754L34.9565 90.385L36.0877 92.847C36.3907 93.5059 36.1773 94.2118 35.6935 94.6259L35.6907 94.6245Z" fill="#FF444F"/>
<path id="Vector_10" d="M34.7272 95.2649C34.6575 95.2649 34.5878 95.2606 34.5181 95.2535L24.0825 94.0752C23.1847 93.9741 22.395 93.4376 21.9695 92.6392C21.5441 91.8408 21.5398 90.8859 21.9567 90.0847L27.3623 79.6716C27.5829 79.2461 27.9571 78.9444 28.4153 78.8234C28.4224 78.822 28.4309 78.8192 28.438 78.8177C29.2249 78.6213 30.0359 79.0099 30.3732 79.7442L36.3422 92.7275C36.6809 93.4632 36.4916 94.3128 35.8741 94.8408C35.8684 94.8465 35.8627 94.8508 35.8556 94.855C35.7958 94.9048 35.7389 94.9475 35.682 94.9831C35.396 95.1681 35.0687 95.2635 34.7272 95.2635V95.2649ZM28.5447 79.3785C28.2502 79.461 28.0112 79.6574 27.8674 79.9349L22.4619 90.348C22.1261 90.9926 22.1303 91.7313 22.4718 92.3731C22.8133 93.0149 23.4237 93.4291 24.1466 93.5116L34.5821 94.6899C34.8667 94.7213 35.1413 94.6586 35.3747 94.5078C35.4159 94.4808 35.4572 94.4494 35.5027 94.411C35.507 94.4068 35.5127 94.4025 35.5184 94.3996C35.8627 94.0965 36.089 93.5401 35.8271 92.968L29.8581 79.9847C29.592 79.4041 29.0001 79.2632 28.5647 79.377C28.559 79.3785 28.5519 79.3799 28.5462 79.3813L28.5447 79.3785Z" fill="black"/>
</g>
<g id="Group_10">
<path id="Vector_11" d="M20.1794 111.968C20.1908 112.688 19.7938 113.266 19.246 113.562L19.2389 113.565C19.2261 113.571 19.2161 113.578 19.2033 113.582L19.0397 113.657L19.0326 113.66C18.5246 113.857 17.9256 113.827 17.4048 113.48L5.95756 105.846C4.99426 105.204 5.10097 103.795 6.0657 103.274H6.06854C6.13827 103.234 6.21226 103.202 6.29052 103.175L6.3019 103.17L13.7493 100.6L14.4878 100.345H14.4893L17.409 99.3365C18.6825 98.8967 20.0101 99.8303 20.03 101.178L20.0955 105.863L20.1097 106.868L20.1808 111.971L20.1794 111.968Z" fill="#FF444F"/>
<path id="Vector_12" d="M18.3866 114.066C17.9867 114.066 17.594 113.948 17.2454 113.716L5.79819 106.082C5.27029 105.731 4.97291 105.144 5.00279 104.514C5.03267 103.879 5.37843 103.321 5.92909 103.024C5.93336 103.021 5.93763 103.02 5.9419 103.017C6.00735 102.98 6.09131 102.943 6.18806 102.909C6.19518 102.906 6.20371 102.901 6.20798 102.9L14.3939 100.075C14.3939 100.075 14.4039 100.072 14.4096 100.069L17.3151 99.066C18.0081 98.827 18.7508 98.9309 19.3513 99.3521C19.9518 99.7733 20.3032 100.437 20.3132 101.172L20.464 111.964C20.4754 112.748 20.0713 113.44 19.3812 113.813C19.3726 113.817 19.3641 113.821 19.3556 113.825C19.3399 113.832 19.3271 113.84 19.3143 113.844L19.1564 113.916C19.1564 113.916 19.1407 113.924 19.1364 113.925C18.8903 114.02 18.637 114.067 18.3866 114.067V114.066ZM6.40007 103.435C6.40007 103.435 6.38585 103.441 6.383 103.442C6.3147 103.466 6.25494 103.493 6.20371 103.52C6.19802 103.523 6.19375 103.526 6.18806 103.529C5.8238 103.727 5.58902 104.105 5.5691 104.539C5.54918 104.975 5.74696 105.365 6.11265 105.608L17.5599 113.242C17.9711 113.515 18.4691 113.572 18.9273 113.394L19.0838 113.323C19.0838 113.323 19.0966 113.317 19.1023 113.316L19.1094 113.31C19.1094 113.31 19.1179 113.306 19.1222 113.304C19.6145 113.033 19.902 112.536 19.8934 111.972L19.7426 101.181C19.7341 100.631 19.4722 100.135 19.0226 99.8189C18.573 99.503 18.018 99.4261 17.5001 99.604L14.5803 100.613C14.5803 100.613 14.5689 100.616 14.5647 100.619L6.40007 103.436V103.435Z" fill="black"/>
</g>
<g id="Group_11">
<path id="Vector_13" d="M36.0391 126.471L34.6831 129.152L30.8782 136.675C30.7203 136.988 30.4884 137.22 30.2209 137.371L30.2138 137.375C30.1284 137.422 30.0373 137.465 29.9448 137.495C29.1836 137.758 28.2573 137.455 27.8774 136.602L22.1943 123.883C21.7945 122.99 22.2726 122.03 23.0865 121.714L23.1007 121.708C23.3454 121.615 23.62 121.583 23.9089 121.625L31.8501 122.808L34.3359 123.178C35.8769 123.407 36.7434 125.079 36.0405 126.47L36.0391 126.471Z" fill="#FF444F"/>
<path id="Vector_14" d="M29.3912 137.875C28.6428 137.875 27.9413 137.442 27.6183 136.719L21.9352 123.999C21.7204 123.518 21.7104 122.989 21.9096 122.508C22.1088 122.023 22.5015 121.637 22.9853 121.45C22.9853 121.45 22.9953 121.445 23.001 121.443C23.2983 121.331 23.627 121.297 23.9515 121.345L34.3785 122.898C35.2052 123.02 35.8995 123.517 36.2837 124.258C36.6679 125.001 36.6722 125.854 36.2951 126.599L31.1343 136.803C30.9578 137.15 30.6917 137.434 30.363 137.619C30.2478 137.683 30.1411 137.731 30.0372 137.765C29.8238 137.839 29.6061 137.873 29.3926 137.873L29.3912 137.875ZM23.2087 121.973L23.203 121.976C22.8516 122.112 22.5755 122.383 22.4361 122.724C22.2981 123.06 22.3052 123.43 22.456 123.767L28.139 136.487C28.4734 137.236 29.2717 137.427 29.8551 137.226C29.9291 137.202 30.003 137.168 30.0785 137.126C30.3147 136.992 30.5025 136.793 30.6277 136.547L35.7886 126.343C36.0817 125.763 36.0788 125.098 35.78 124.52C35.4812 123.942 34.9405 123.555 34.2974 123.46L23.8704 121.907C23.6427 121.873 23.4207 121.894 23.213 121.973H23.2087Z" fill="black"/>
</g>
<g id="Group_12">
<path id="Vector_15" d="M54.2892 112.994C54.1697 113.349 53.9378 113.669 53.6034 113.892L53.5991 113.895C53.4825 113.973 53.3515 114.039 53.2093 114.092L43.4496 117.645C41.5543 118.337 39.5551 116.925 39.5679 114.908L39.632 104.865C39.6362 104.212 40.0389 103.706 40.5654 103.492C40.9809 103.324 41.4746 103.34 41.91 103.612L48.0356 107.443L53.5465 110.888C54.312 111.368 54.5411 112.254 54.2892 112.992V112.994Z" fill="#FF444F"/>
<path id="Vector_16" d="M42.4463 118.11C41.806 118.11 41.1771 117.913 40.6279 117.526C39.7656 116.918 39.2747 115.963 39.2818 114.907L39.3458 104.864C39.3515 104.142 39.7869 103.501 40.4571 103.229C40.9879 103.015 41.5727 103.067 42.0593 103.371L53.6958 110.649C54.5182 111.163 54.8725 112.165 54.5566 113.085C54.4115 113.515 54.1354 113.877 53.7598 114.129C53.6189 114.222 53.4681 114.299 53.3045 114.359L43.5434 117.913C43.182 118.045 42.8106 118.109 42.4435 118.109L42.4463 118.11ZM41.1216 103.67C40.9708 103.67 40.8185 103.698 40.672 103.758C40.2095 103.946 39.9207 104.372 39.9164 104.87L39.8524 114.913C39.8467 115.779 40.2494 116.562 40.9566 117.062C41.6652 117.561 42.5374 117.676 43.3513 117.379L53.111 113.825C53.2305 113.781 53.3415 113.726 53.4397 113.66C53.7157 113.475 53.9149 113.215 54.0188 112.905C54.2066 112.357 54.0899 111.57 53.3941 111.134L41.7577 103.858C41.5613 103.735 41.3407 103.673 41.1188 103.673L41.1216 103.67Z" fill="black"/>
</g>
<g id="Group_13">
<path id="Vector_17" d="M28.492 109.093C28.5034 109.814 28.1064 110.391 27.5586 110.687L27.5515 110.69C27.5387 110.696 27.5287 110.703 27.5159 110.707L27.3523 110.783L27.3451 110.786L27.2256 110.827L19.2047 113.582C19.2175 113.578 19.2275 113.571 19.2403 113.565L19.2474 113.562C19.7952 113.266 20.1922 112.688 20.1809 111.968L20.1097 106.865L20.0955 105.86L20.03 101.175C20.0101 99.8288 18.6825 98.8952 17.409 99.3336L14.4893 100.343C14.5263 100.325 14.5647 100.311 14.6031 100.298L14.6145 100.294L22.0619 97.724L25.7216 96.4603C26.9951 96.0205 28.3227 96.9541 28.3426 98.3018L28.408 102.987L28.492 109.093Z" fill="#FF7E88"/>
<path id="Vector_18" d="M19.2034 113.867C19.0867 113.867 18.9771 113.794 18.9358 113.679C18.8832 113.532 18.9586 113.371 19.1038 113.316L19.1109 113.31C19.1109 113.31 19.1194 113.306 19.1237 113.305C19.616 113.033 19.9034 112.536 19.8949 111.972L19.7441 101.181C19.7355 100.632 19.4737 100.135 19.0241 99.8189C18.5744 99.503 18.0195 99.4261 17.5016 99.604L14.5818 100.613C14.4381 100.663 14.2815 100.59 14.2246 100.449C14.1677 100.308 14.2332 100.148 14.3712 100.085C14.4139 100.065 14.458 100.049 14.5021 100.034C14.5078 100.031 14.5149 100.028 14.5206 100.027L25.6292 96.1928C26.3221 95.9537 27.0649 96.0576 27.6653 96.4788C28.2658 96.9001 28.6172 97.5632 28.6272 98.299L28.778 109.091C28.7894 109.875 28.3853 110.566 27.6952 110.939C27.6867 110.944 27.6781 110.948 27.6696 110.952C27.6539 110.959 27.6426 110.966 27.6298 110.971L27.4718 111.043C27.4718 111.043 27.4619 111.047 27.4576 111.049C27.4533 111.05 27.4419 111.055 27.4391 111.056L27.3196 111.097L19.2987 113.852C19.2688 113.862 19.2375 113.868 19.2062 113.868L19.2034 113.867ZM18.9131 99.1102C19.0653 99.1728 19.2119 99.2539 19.3499 99.3507C19.9504 99.7719 20.3018 100.435 20.3118 101.171L20.4626 111.962C20.4683 112.305 20.3929 112.631 20.2492 112.919L27.2399 110.518L27.395 110.447C27.395 110.447 27.4064 110.441 27.4121 110.44C27.4163 110.438 27.422 110.435 27.4277 110.433C27.9229 110.162 28.2146 109.663 28.206 109.096L28.0552 98.3033C28.0467 97.7539 27.7849 97.2573 27.3352 96.9413C26.8856 96.6268 26.3306 96.5485 25.8113 96.7264L18.9117 99.1088L18.9131 99.1102Z" fill="black"/>
</g>
</g>
<g id="Group_14">
<path id="Vector_19" d="M44.1596 90.9499H44.1567C44.033 91.0581 43.8907 91.1449 43.7341 91.2046L43.7185 91.2103L35.5283 94.744C35.5838 94.7084 35.6364 94.6685 35.6862 94.6259H35.6891C36.1729 94.2117 36.3863 93.5044 36.0832 92.8455L34.952 90.3835L34.9008 90.2739L32.0066 83.9765L31.9696 83.8969L30.1127 79.8608C29.8068 79.1962 29.1011 78.9358 28.4878 79.0966L36.5514 75.6014C36.6751 75.5189 36.8117 75.4605 36.954 75.4221H36.9569C37.5702 75.2627 38.2759 75.5217 38.5818 76.1863L40.4387 80.2223L43.3699 86.5994L44.5523 89.1696C44.8554 89.8285 44.642 90.5344 44.1582 90.9485L44.1596 90.9499Z" fill="#FF7E88"/>
<path id="Vector_20" d="M35.5296 95.0287C35.4272 95.0287 35.329 94.9732 35.2778 94.8778C35.208 94.7469 35.2507 94.5847 35.3759 94.505C35.4158 94.4794 35.4585 94.4481 35.5026 94.4096C35.5068 94.4054 35.5125 94.4011 35.5182 94.3982C35.8626 94.0951 36.0888 93.5387 35.827 92.9666L29.8579 79.9833C29.5919 79.4027 28.9999 79.2618 28.5645 79.3756C28.4208 79.4141 28.2714 79.3329 28.223 79.1935C28.1746 79.0526 28.2429 78.8989 28.3795 78.8391L36.4203 75.3539C36.5584 75.2656 36.7149 75.1973 36.8828 75.1518C36.8913 75.1489 36.8984 75.1475 36.907 75.1461C37.6938 74.9511 38.5049 75.3382 38.8435 76.0726L44.8126 89.0558C45.1512 89.7916 44.962 90.6412 44.3445 91.1691C44.3388 91.1734 44.3331 91.1791 44.3274 91.1834C44.1766 91.3086 44.0115 91.4068 43.8365 91.4737L43.8237 91.478L35.642 95.0088C35.605 95.0244 35.5666 95.0315 35.5296 95.0315V95.0287ZM29.5819 78.9359C29.922 79.101 30.2065 79.3799 30.3744 79.7442L36.3435 92.7275C36.5413 93.1601 36.5584 93.6297 36.4147 94.0524L43.6287 90.94C43.7525 90.8931 43.8664 90.8248 43.9717 90.7351C43.9759 90.7308 43.9816 90.7266 43.9859 90.7237C44.3302 90.4206 44.5579 89.8641 44.2947 89.2906L38.3256 76.3074C38.0595 75.7267 37.4676 75.5844 37.0322 75.6997C37.0265 75.6997 37.0208 75.7025 37.0151 75.704C36.9027 75.7367 36.8003 75.7822 36.712 75.8406C36.6978 75.8505 36.6836 75.8577 36.6679 75.8648L29.5819 78.9359Z" fill="black"/>
</g>
<g id="Group_15">
<path id="Vector_21" d="M61.6554 110.312L53.6047 113.892C53.939 113.667 54.171 113.349 54.2905 112.994C54.5424 112.257 54.3133 111.369 53.5478 110.891L48.0369 107.446L41.9113 103.614C41.4759 103.343 40.9821 103.327 40.5667 103.495L48.8195 99.809C49.2691 99.5486 49.8511 99.5173 50.3576 99.8332L61.9941 107.111C63.2576 107.902 63.0584 109.804 61.6568 110.313L61.6554 110.312Z" fill="#FF7E88"/>
<path id="Vector_22" d="M53.6032 114.178C53.5022 114.178 53.4054 114.124 53.3542 114.032C53.2831 113.902 53.3229 113.74 53.4453 113.657C53.7171 113.475 53.9149 113.215 54.0201 112.905C54.208 112.357 54.0927 111.568 53.3955 111.133L41.759 103.856C41.4275 103.65 41.0305 103.614 40.6705 103.76C40.5268 103.818 40.3632 103.75 40.302 103.607C40.2408 103.465 40.3062 103.3 40.4485 103.236L48.6885 99.557C49.2648 99.2283 49.9435 99.2425 50.507 99.594L62.1435 106.872C62.8208 107.296 63.1907 108.055 63.1068 108.85C63.0228 109.643 62.5077 110.303 61.7621 110.579L53.7199 114.157C53.6829 114.174 53.6431 114.181 53.6047 114.181L53.6032 114.178ZM41.8188 103.246C41.9013 103.281 41.9824 103.324 42.0607 103.372L53.6971 110.65C54.5196 111.164 54.8739 112.166 54.558 113.088C54.548 113.117 54.5381 113.144 54.5281 113.171L61.5387 110.053C61.5387 110.053 61.5501 110.047 61.5572 110.046C62.1107 109.845 62.4779 109.374 62.5405 108.789C62.6031 108.203 62.3413 107.666 61.8418 107.353L50.2054 100.076C49.8197 99.836 49.3545 99.8288 48.9603 100.057C48.9518 100.062 48.9432 100.067 48.9333 100.071L41.8188 103.247V103.246Z" fill="black"/>
</g>
<g id="Group_16">
<path id="Vector_23" d="M44.4853 122.69L39.3245 132.894C39.1566 133.226 38.9076 133.466 38.6201 133.616L38.4394 133.697L30.2222 137.37C30.4897 137.219 30.7216 136.987 30.8796 136.674L34.6844 129.151L36.0404 126.47C36.7433 125.078 35.8782 123.406 34.3358 123.178L31.85 122.808L23.9088 121.626C23.6199 121.583 23.3453 121.617 23.1006 121.708L31.3819 118.001C31.665 117.857 31.998 117.792 32.3537 117.846L42.7807 119.397C44.3231 119.628 45.1882 121.298 44.4853 122.689V122.69Z" fill="#FF7E88"/>
<path id="Vector_24" d="M30.2223 137.656C30.1184 137.656 30.0174 137.598 29.9676 137.499C29.8993 137.364 29.9491 137.198 30.0814 137.124C30.3119 136.994 30.4998 136.795 30.6235 136.547L35.7844 126.343C36.0775 125.763 36.0747 125.098 35.7759 124.52C35.477 123.943 34.9363 123.555 34.2932 123.46L23.8662 121.907C23.6357 121.873 23.4109 121.896 23.2003 121.976C23.0566 122.03 22.8958 121.96 22.836 121.818C22.7777 121.675 22.8431 121.512 22.9826 121.449L31.2582 117.745C31.6082 117.568 32.0009 117.506 32.3951 117.565L42.8206 119.117C43.6488 119.241 44.3431 119.737 44.7259 120.479C45.1101 121.22 45.1129 122.073 44.7358 122.818L39.575 133.022C39.3886 133.391 39.1026 133.684 38.7469 133.867C38.7426 133.87 38.7369 133.872 38.7326 133.875L38.5519 133.956L30.3347 137.629C30.2977 137.646 30.2579 137.653 30.218 137.653L30.2223 137.656ZM24.4467 121.419L34.3771 122.898C35.2039 123.02 35.8982 123.517 36.2824 124.258C36.6666 125.001 36.6709 125.854 36.2938 126.6L31.2325 136.607L38.4964 133.359C38.7412 133.23 38.9404 133.025 39.0713 132.766L44.2321 122.562C44.5253 121.981 44.5224 121.318 44.2236 120.74C43.9248 120.163 43.3841 119.776 42.7395 119.68L32.3125 118.129C32.0336 118.088 31.7562 118.13 31.5114 118.256C31.5072 118.259 31.5029 118.26 31.4986 118.261L24.4467 121.418V121.419Z" fill="black"/>
</g>
</g>
</g>
</g>
</g>
</g>
</g>
<defs>
<clipPath id="clip0_1338_91">
<rect width="110" height="123.75" fill="white" transform="translate(5 14.125)"/>
</clipPath>
</defs>
</svg>
