<svg width="128" height="128" viewBox="0 0 128 128" fill="none" xmlns="http://www.w3.org/2000/svg">
<g id="illustration / deriv / light / error-icon">
<g id="Group">
<path id="Vector" d="M64 123C96.5848 123 123 96.5848 123 64C123 31.4152 96.5848 5 64 5C31.4152 5 5 31.4152 5 64C5 96.5848 31.4152 123 64 123Z" fill="#FF444F"/>
<path id="Vector_2" d="M58.0491 86.0098V84.5218C58.0491 81.6738 59.7931 79.3918 64.0001 79.3918C68.2071 79.3918 69.9261 81.5968 69.9261 84.5218V86.1378C69.9261 89.0108 68.2071 91.2678 64.0001 91.2678C59.7931 91.2678 58.0491 88.8828 58.0491 86.0098ZM61.9991 68.9248L58.8441 49.9678V37.1418C59.4268 36.3109 60.1922 35.6244 61.0815 35.1353C61.9707 34.6461 62.9602 34.3671 63.9741 34.3198C64.99 34.3574 65.9831 34.6322 66.8739 35.1222C67.7647 35.6122 68.5284 36.3038 69.1041 37.1418V49.9678L66.0521 68.9248C65.9062 69.3399 65.6409 69.7026 65.2895 69.9673C64.9381 70.2321 64.5163 70.3871 64.0771 70.4128C63.6191 70.4112 63.173 70.2671 62.8006 70.0004C62.4283 69.7338 62.1481 69.3579 61.9991 68.9248Z" fill="white"/>
</g>
</g>
</svg>
