<svg width="128" height="128" viewBox="0 0 128 128" fill="none" xmlns="http://www.w3.org/2000/svg">
<g id="illustration / deriv / light / demo-reset-balance-successful">
<g id="Clip path group">
<mask id="mask0_2253_365" style="mask-type:luminance" maskUnits="userSpaceOnUse" x="13" y="13" width="102" height="102">
<g id="a">
<path id="Vector" d="M13.0898 13.092H114.908V114.91H13.0898V13.092Z" fill="white"/>
</g>
</mask>
<g mask="url(#mask0_2253_365)">
<g id="Group">
<path id="Vector_2" d="M85.6898 29.914H76.3938L81.2638 13.092H23.9358C17.9588 13.092 13.0898 17.962 13.0898 23.938V85.693C13.0898 89.455 16.1888 92.554 19.9508 92.554H85.6908C89.4538 92.554 92.5518 89.455 92.5518 85.693V36.776C92.5518 33.013 89.4519 29.914 85.6898 29.914ZM23.9368 17.74H75.0668L73.9598 21.503H23.7138C23.0699 21.5088 22.454 21.7672 21.9987 22.2226C21.5435 22.6781 21.2853 23.2941 21.2798 23.938C21.2856 24.5818 21.5439 25.1976 21.9991 25.6528C22.4543 26.108 23.0701 26.3663 23.7138 26.372H72.8528L71.7458 30.135H25.9278C20.8368 30.135 17.7378 27.701 17.7378 24.159C17.7378 20.396 20.3948 17.74 23.9368 17.74Z" fill="#85ACB0"/>
<path id="Vector_3" d="M39.8726 56.916H26.3706V62.006H39.8726V56.916ZM60.6776 56.916H47.1756V62.006H60.6776V56.916ZM79.2716 56.916H65.7686V62.006H79.2706L79.2716 56.916ZM46.0706 63.781H40.9806V68.872H46.0706V63.782V63.781Z" fill="white"/>
<g id="Vector_4" style="mix-blend-mode:multiply">
<path d="M88.3779 114.941C103.047 114.941 114.939 103.049 114.939 88.3801C114.939 73.7101 103.047 61.8181 88.3779 61.8181C73.7079 61.8181 61.8159 73.7101 61.8159 88.3801C61.8159 103.049 73.7079 114.941 88.3779 114.941Z" fill="#FF444F"/>
</g>
<path id="Vector_5" d="M84.6147 99.0051L75.0977 89.4871L79.0817 85.2821L84.6147 90.8151L97.6747 77.7551L101.659 81.9611L84.6147 99.0051Z" fill="white"/>
</g>
</g>
</g>
</g>
</svg>
