<svg width="120" height="152" viewBox="0 0 120 152" fill="none" xmlns="http://www.w3.org/2000/svg">
<g id="illustration / deriv / light / low-cost">
<g id="Low Cost">
<path id="Vector" d="M114.832 69.5671C114.822 71.2285 114.714 75.51 113.413 80.8657C112.852 83.1757 111.764 87.5314 108.946 92.5928C106.493 97.0014 103.919 99.8114 103.319 100.453C100.869 103.081 98.4444 104.927 96.5744 106.166C91.6158 108.564 86.6601 110.964 81.7015 113.363C83.4358 112.479 84.793 111.61 85.7358 110.961C87.6772 109.627 91.3544 106.821 94.7001 102.169C97.5301 98.2328 98.8501 94.7471 99.7687 92.2585C100.34 90.7114 101.763 86.6242 102.432 81.09C102.7 78.8528 103.152 73.8785 102.259 67.6014C102.089 66.4014 101.323 61.3185 98.8515 55.03C97.6973 52.1 95.463 47.0971 91.463 41.5985C89.2472 38.5557 85.6558 33.7042 79.3501 29.1971C74.353 25.6271 69.9215 23.8957 68.4672 23.3542C65.6172 22.2971 59.0458 19.9357 50.3958 20.6342C45.0372 21.0642 41.0144 22.4985 39.3887 23.1542C43.3172 21.2257 47.2415 19.2971 51.1715 17.37C52.363 16.9128 53.9815 16.3542 55.9401 15.8671C60.9201 14.6285 64.983 14.6185 66.6772 14.6642C73.8815 14.8571 79.223 17.1 82.1415 18.3585C83.2087 18.8171 88.3415 21.0785 93.9987 25.7042C96.0287 27.3642 99.9458 30.8171 103.749 36.1428C106.41 39.8685 107.943 43.0057 108.817 44.82C111.822 51.0457 113.059 56.1857 113.413 57.75C113.977 60.2328 114.857 64.22 114.832 69.5642H114.83L114.832 69.5671Z" fill="#EBECEE"/>
<path id="Vector_2" d="M81.7043 113.639C81.6029 113.639 81.5058 113.582 81.4572 113.486C81.39 113.35 81.4443 113.187 81.5786 113.117C82.9686 112.407 84.3158 111.606 85.58 110.736C88.9715 108.404 92.0486 105.387 94.4772 102.01C97.3458 98.0215 98.6486 94.4972 99.5115 92.1658C100.781 88.7329 101.696 84.8929 102.161 81.0601C102.681 76.7358 102.623 72.0958 101.991 67.6429C101.733 65.8144 100.881 60.9358 98.6 55.1344C96.7429 50.4186 94.2686 45.9201 91.2443 41.7658C89.2672 39.0501 85.5886 33.9958 79.1929 29.4272C75.8272 27.0229 71.9858 24.9601 68.3743 23.6201C65.86 22.6872 59.1815 20.2101 50.4215 20.9172C45.2858 21.3301 41.3715 22.6615 39.4958 23.4172C39.3586 23.4729 39.2015 23.4086 39.1415 23.2744C39.0815 23.1386 39.1386 22.9786 39.2715 22.9144C43.2 20.9858 47.1243 19.0572 51.0543 17.1301C51.0615 17.1258 51.07 17.1229 51.0758 17.1201C52.6386 16.5186 54.2529 16.0101 55.8758 15.6072C60.3786 14.4858 64.24 14.3286 66.6872 14.3958C74.0915 14.5944 79.6043 16.9715 82.2543 18.1129C84.0915 18.9044 88.9315 21.2086 94.1758 25.4986C97.8 28.4615 101.19 32.0901 103.976 35.9901C106.71 39.8172 108.244 42.9972 109.069 44.7072C111.813 50.3929 113.14 55.2858 113.686 57.6958C114.193 59.9286 115.139 64.0886 115.11 69.5715C115.09 73.2486 114.597 77.1758 113.686 80.9329C113.164 83.0758 112.081 87.5387 109.191 92.7287C106.906 96.8344 104.467 99.6315 103.524 100.644C101.497 102.82 99.2115 104.756 96.73 106.4C96.7186 106.407 96.7086 106.413 96.6986 106.417L81.8258 113.616C81.7872 113.636 81.7458 113.643 81.7058 113.643L81.7043 113.639ZM53.5329 20.2358C60.8472 20.2358 66.33 22.2701 68.5643 23.0986C72.22 24.4572 76.1072 26.5444 79.5115 28.9758C85.9786 33.5972 89.6915 38.6986 91.6886 41.4386C94.74 45.6315 97.2386 50.1715 99.1115 54.9301C101.416 60.7872 102.274 65.7158 102.536 67.5629C103.176 72.0629 103.234 76.7515 102.709 81.1229C102.24 84.9986 101.313 88.8815 100.03 92.3529C99.1572 94.7115 97.8386 98.2772 94.9272 102.327C92.6343 105.516 89.7743 108.387 86.6158 110.677L96.4415 105.922C98.8815 104.303 101.129 102.399 103.121 100.26C104.05 99.2629 106.453 96.5072 108.709 92.4529C111.563 87.3287 112.633 82.9158 113.149 80.7958C114.051 77.0786 114.539 73.1944 114.559 69.5615C114.586 64.1415 113.65 60.0229 113.147 57.8115C112.606 55.4244 111.291 50.5758 108.571 44.9401C107.754 43.2458 106.234 40.0915 103.527 36.3029C100.769 32.4401 97.4143 28.8486 93.8258 25.9186C88.6358 21.6729 83.85 19.3944 82.0358 18.6115C79.4186 17.4844 73.97 15.1358 66.6715 14.9401C64.2586 14.8758 60.45 15.0301 56.0072 16.1358C54.4115 16.5329 52.8215 17.0329 51.2829 17.6244C48.5715 18.9544 45.8615 20.2858 43.15 21.6172C45.1115 21.0844 47.5643 20.5872 50.3758 20.3615C51.46 20.2729 52.5158 20.2344 53.5343 20.2344L53.5329 20.2358Z" fill="black"/>
<path id="Vector_3" d="M32.2986 102.687C27.7671 98.1372 25.1129 93.9901 24.2229 92.5501C23.64 91.6043 21.7 88.3986 19.87 83.8443C17.58 78.1458 16.7171 73.4629 16.4329 71.7586C15.2314 64.5543 15.7443 58.9472 15.8886 57.5258C16.18 54.6829 16.74 49.5958 19.3814 43.5501C22.5129 36.3801 26.7471 32.0372 27.6 31.1786C32.5514 26.1958 37.5529 23.9444 38.7686 23.4172C39.6771 23.0244 44.1214 21.1458 50.3957 20.6401C59.0457 19.9429 65.6171 22.3029 68.4671 23.3615C69.9214 23.9015 74.3514 25.6315 79.35 29.2044C85.6572 33.7115 89.25 38.5615 91.4643 41.6044C95.4657 47.1015 97.7014 52.1058 98.8529 55.0358C101.326 61.3243 102.09 66.4086 102.26 67.6086C103.151 73.8858 102.703 78.8586 102.433 81.0972C101.764 86.6301 100.341 90.7201 99.77 92.2658C98.8486 94.7515 97.5314 98.2386 94.7014 102.174C91.3557 106.827 87.6771 109.633 85.7386 110.967C83.77 112.32 80.0071 114.62 74.77 116.066C66.4729 118.353 59.6286 117.071 56.5843 116.466C55.12 116.176 50.13 115.101 44.3557 111.999C38.4814 108.844 34.8 105.201 32.2986 102.69V102.687Z" fill="white"/>
<path id="Vector_4" d="M65.0272 117.642C61.1043 117.642 58.08 117.039 56.5343 116.732C54.1972 116.267 49.4929 115.064 44.23 112.236C38.2 108.996 34.3872 105.169 32.1086 102.88C28.1415 98.8958 25.5058 95.1401 23.9929 92.693C23.0743 91.2044 21.2858 88.0915 19.6186 83.9444C17.6029 78.9273 16.6286 74.5715 16.1658 71.803C15.0815 65.3073 15.3586 60.0515 15.6201 57.4958C15.8801 54.9487 16.4229 49.6458 19.1358 43.4373C22.0401 36.7901 25.8901 32.513 27.4129 30.9815C32.0486 26.3173 36.8286 23.9587 38.6672 23.163C40.2501 22.4773 44.5572 20.833 50.3815 20.363C59.2701 19.6458 66.0272 22.1544 68.57 23.0987C72.2258 24.4573 76.1129 26.5444 79.5172 28.9758C85.9886 33.6001 89.6986 38.6987 91.6943 41.4373C94.75 45.6344 97.2472 50.1744 99.1158 54.9301C101.419 60.7858 102.277 65.7158 102.54 67.5644C103.181 72.0715 103.24 76.7601 102.713 81.1244C102.241 85.0058 101.317 88.8901 100.034 92.3558C99.16 94.7158 97.8415 98.2815 94.9315 102.33C92.4672 105.759 89.3429 108.822 85.9 111.189C82.5329 113.503 78.8143 115.23 74.8486 116.326C71.2458 117.319 67.8986 117.64 65.03 117.64L65.0272 117.642ZM32.4972 102.492C34.7543 104.759 38.5315 108.552 44.4886 111.752C49.6901 114.546 54.3343 115.732 56.6401 116.192C59.2801 116.717 66.2943 118.113 74.6972 115.797C78.6043 114.719 82.2658 113.017 85.5815 110.737C88.9729 108.406 92.0486 105.389 94.4772 102.012C97.3429 98.0244 98.6486 94.5001 99.5115 92.1673C100.78 88.7415 101.694 84.9001 102.16 81.0601C102.683 76.743 102.623 72.1044 101.989 67.643C101.73 65.8144 100.88 60.9344 98.5972 55.133C96.7443 50.4215 94.2701 45.923 91.2429 41.763C89.2672 39.0487 85.59 33.9958 79.1915 29.4244C75.8258 27.0201 71.9843 24.9573 68.3729 23.6173C65.8615 22.6844 59.1858 20.2073 50.4201 20.913C44.6772 21.3758 40.4372 22.9944 38.8801 23.6687C37.0701 24.453 32.3658 26.773 27.7972 31.3701C26.2986 32.8787 22.5029 37.0958 19.6343 43.6587C16.9558 49.7887 16.4201 55.0315 16.1615 57.5515C15.9029 60.0787 15.6286 65.2801 16.7029 71.7101C17.1601 74.453 18.1258 78.7658 20.1229 83.7373C21.7729 87.8458 23.5458 90.9301 24.4543 92.4015C25.9515 94.8258 28.5615 98.5444 32.4915 102.49H32.4943L32.4972 102.492Z" fill="black"/>
<path id="Vector_5" d="M59.1499 89.3999C59.1513 91.6456 59.1542 93.8928 59.1556 96.1371L59.1499 89.3999Z" fill="white"/>
<path id="Vector_6" d="M59.1514 89.1243C59.3029 89.1243 59.4272 89.2486 59.4272 89.4V96.1386C59.4272 96.29 59.3029 96.4143 59.1514 96.4143C59 96.4143 58.8757 96.29 58.8757 96.1386V89.4C58.8757 89.2486 59 89.1243 59.1514 89.1243Z" fill="black"/>
<path id="Vector_7" d="M59.1499 48.53C59.1556 46.2757 59.1613 44.0229 59.167 41.77L59.1499 48.53Z" fill="white"/>
<path id="Vector_8" d="M59.1514 48.8057C59 48.8057 58.8757 48.6814 58.8757 48.5286L58.8929 41.7743L59.1686 41.7686H59.4443L59.4272 48.53C59.4272 48.6814 59.3029 48.8043 59.1514 48.8043V48.8057Z" fill="black"/>
<path id="Vector_9" d="M68.4329 59.9471C68.4129 59.3 68.3358 58.4043 68.0872 57.3685C67.8715 56.4757 67.3029 54.2214 65.4158 52.0957C64.6815 51.2685 62.9958 49.4214 60.1429 48.7328C59.2515 48.5171 57.3386 48.0843 55.1686 48.9171C52.6686 49.8771 51.4786 51.8814 51.0929 52.5557C49.7643 54.8757 49.9258 57.1314 50.0101 58.3128C50.0401 58.7385 50.1715 60.2143 50.8858 61.9743C51.1986 62.7457 51.9186 64.4685 53.6029 66.0728C54.8058 67.22 55.9943 67.8257 56.4815 68.0543C58.0829 68.8071 59.5443 69.0914 59.5443 69.0914C59.9201 69.1643 60.3501 69.2271 60.9629 69.44C61.6829 69.69 62.1958 69.9857 62.5601 70.2C62.8501 70.37 63.5372 70.79 64.3101 71.4643C65.8543 72.8114 66.7043 74.2743 66.9129 74.6414C67.3829 75.4757 68.1558 77.0814 68.3872 79.2471C68.4872 80.1885 68.6386 81.7657 68.0186 83.6457C67.4972 85.2257 66.6901 86.2414 66.4758 86.5C65.2615 87.9771 63.8843 88.63 63.5501 88.78C63.1186 88.9757 61.4015 89.7057 59.1515 89.4014C57.2943 89.15 56.0443 88.3271 55.2129 87.7657C53.4315 86.5628 52.4686 85.1385 51.8743 84.2414C51.4472 83.5971 50.8715 82.7157 50.4458 81.4085C49.9772 79.9714 49.9158 78.71 49.9386 77.8857" fill="white"/>
<path id="Vector_10" d="M60.2315 89.7487C59.8758 89.7487 59.503 89.7258 59.1158 89.673C57.1573 89.4087 55.8444 88.523 55.0601 87.993C53.1958 86.7344 52.1872 85.2115 51.6458 84.393C51.2415 83.783 50.6315 82.8615 50.1858 81.4944C49.8072 80.3315 49.6315 79.1144 49.6658 77.8787C49.6701 77.7272 49.7958 77.6058 49.9487 77.6115C50.1001 77.6158 50.2201 77.743 50.2158 77.8944C50.1844 79.0672 50.3501 80.2215 50.7087 81.3244C51.1301 82.6215 51.7158 83.5058 52.1044 84.0901C52.6615 84.9315 53.5958 86.3401 55.3673 87.5372C56.1115 88.0387 57.3558 88.8801 59.1873 89.1287C61.2187 89.403 62.8344 88.8001 63.4344 88.5287C63.9201 88.3101 65.1673 87.653 66.2587 86.3244C66.6215 85.883 67.2987 84.9358 67.753 83.5572C68.3658 81.6944 68.2001 80.1201 68.1087 79.2744C67.9415 77.7044 67.443 76.1487 66.6687 74.7744C66.373 74.2487 65.533 72.8972 64.1258 71.6687C63.5944 71.2044 63.003 70.7787 62.4173 70.4344C62.083 70.2387 61.5758 69.943 60.8687 69.6972C60.3673 69.523 59.9915 69.453 59.663 69.393C59.6044 69.3815 59.5444 69.3715 59.4873 69.3601C59.4258 69.3472 57.9744 69.0615 56.3587 68.303C55.6201 67.9558 54.5073 67.3215 53.4073 66.273C51.6458 64.5944 50.9044 62.7658 50.6244 62.0787C49.963 60.4487 49.7801 59.033 49.7301 58.333C49.6415 57.1015 49.4758 54.8115 50.8487 52.4187C51.8915 50.5972 53.3101 49.3315 55.0658 48.6601C57.3601 47.7801 59.353 48.2601 60.203 48.4658C63.2001 49.1887 64.9558 51.1672 65.6173 51.913C67.5901 54.1358 68.1615 56.5215 68.3515 57.3058C68.5587 58.1658 68.6773 59.053 68.7044 59.9401C68.7087 60.0915 68.5901 60.2201 68.4373 60.2244H68.4287C68.2801 60.2244 68.1587 60.1072 68.153 59.9572C68.1273 59.1072 68.013 58.2572 67.8158 57.4344C67.6358 56.683 67.0873 54.3987 65.2058 52.2801C64.5758 51.5701 62.903 49.6844 60.073 49.003C59.2715 48.8101 57.3972 48.3572 55.2615 49.1772C53.6287 49.803 52.3044 50.9872 51.3258 52.6958C50.0387 54.943 50.1958 57.1244 50.2801 58.2958C50.3287 58.963 50.503 60.3158 51.1358 61.873C51.403 62.5301 52.1115 64.2787 53.7887 65.8758C54.8344 66.8744 55.893 67.4758 56.5944 67.8058C58.1444 68.5344 59.5773 68.8172 59.593 68.8201L59.7644 68.8515C60.113 68.9158 60.5087 68.9901 61.0501 69.1787C61.8101 69.4415 62.343 69.7544 62.6958 69.9615C63.3101 70.3215 63.9301 70.7687 64.4873 71.2558C65.9601 72.5401 66.8387 73.9558 67.1473 74.5058C67.9587 75.9444 68.4801 77.5744 68.6558 79.2172C68.7515 80.1044 68.9258 81.7558 68.2758 83.7301C67.793 85.1944 67.0715 86.2029 66.683 86.6744C65.5173 88.0929 64.1801 88.7944 63.6601 89.0301C63.1301 89.2701 61.8673 89.7487 60.2258 89.7487H60.2301H60.2315Z" fill="black"/>
<g id="Group">
<g id="Group_2">
<path id="Vector_11" d="M65.1328 117.139L54.0371 123.327L41.6128 130.257L51.9285 124.503L39.3428 120.42L52.5456 113.056L65.1328 117.139Z" fill="#FF7E88"/>
<path id="Vector_12" d="M41.6128 130.543C41.5128 130.543 41.4157 130.49 41.3628 130.396C41.2857 130.259 41.3357 130.084 41.4728 130.007L51.2157 124.571L39.2528 120.691C39.1442 120.656 39.0671 120.56 39.0571 120.447C39.0457 120.334 39.1028 120.226 39.2028 120.17L52.4071 112.806C52.4771 112.767 52.5585 112.759 52.6343 112.783L65.22 116.866C65.3285 116.901 65.4057 116.997 65.4157 117.11C65.4271 117.223 65.37 117.331 65.27 117.387L41.7514 130.506C41.7071 130.53 41.66 130.541 41.6128 130.541V130.543ZM40.0543 120.35L51.9 124.193L64.4214 117.209L52.5771 113.367L40.0543 120.351V120.35Z" fill="black"/>
</g>
<g id="Group_3">
<path id="Vector_13" d="M52.5456 90.8271V113.056L39.3428 120.42V98.1914L52.5456 90.8271Z" fill="#FF7E88"/>
<path id="Vector_14" d="M39.3428 120.706C39.2928 120.706 39.2428 120.693 39.1986 120.666C39.1114 120.614 39.0571 120.52 39.0571 120.42V98.1914C39.0571 98.0872 39.1128 97.9929 39.2043 97.9414L52.4086 90.5772C52.4971 90.5272 52.6043 90.5286 52.6928 90.58C52.78 90.6314 52.8343 90.7257 52.8343 90.8257V113.054C52.8343 113.159 52.7786 113.253 52.6871 113.304L39.4828 120.669C39.44 120.693 39.3914 120.704 39.3443 120.704L39.3428 120.706ZM39.6286 98.3586V119.933L52.2614 112.887V91.3129L39.6286 98.3586Z" fill="black"/>
</g>
<g id="Group_4">
<path id="Vector_15" d="M52.5459 90.8271L39.343 98.1914L30.9644 95.4742L30.6816 95.3813L17.4773 91.1014L30.6816 83.7371L44.1687 88.1099L52.5459 90.8271Z" fill="#FF7E88"/>
<path id="Vector_16" d="M39.3429 98.4772C39.3129 98.4772 39.2829 98.4729 39.2543 98.4629L17.39 91.3729C17.2815 91.3372 17.2043 91.2414 17.1943 91.1286C17.1829 91.0157 17.24 90.9072 17.34 90.8514L30.5443 83.4871C30.6143 83.4486 30.6957 83.44 30.7715 83.4643L52.6357 90.5543C52.7443 90.59 52.8215 90.6857 52.8315 90.7986C52.8429 90.9114 52.7857 91.02 52.6857 91.0757L39.4815 98.44C39.4386 98.4643 39.39 98.4757 39.3429 98.4757V98.4772ZM18.19 91.0314L39.3129 97.8814L51.8357 90.8972L30.7129 84.0472L18.19 91.0314Z" fill="black"/>
</g>
<g id="Group_5">
<path id="Vector_17" d="M51.9285 124.503L41.6128 130.257L40.8327 130.692L28.4085 137.62L4.88989 109.25L17.477 113.33V91.1016L30.6813 95.3816L30.9642 95.4744L39.3428 98.1916V120.42L51.9285 124.503Z" fill="#FF444F"/>
<path id="Vector_18" d="M28.41 137.906C28.3272 137.906 28.2457 137.87 28.19 137.803L4.67001 109.431C4.58859 109.333 4.58144 109.194 4.65287 109.089C4.7243 108.983 4.85573 108.939 4.97716 108.977L17.1914 112.937V91.1015C17.1914 91.0101 17.2357 90.9244 17.3086 90.8701C17.3829 90.8158 17.4786 90.8015 17.5643 90.8301L39.4286 97.9201C39.5457 97.9586 39.6257 98.0686 39.6257 98.1915V120.213L52.0143 124.231C52.1229 124.267 52.2 124.363 52.21 124.476C52.2214 124.589 52.1643 124.697 52.0643 124.753L28.5457 137.871C28.5014 137.896 28.4543 137.907 28.4072 137.907L28.41 137.906ZM5.73859 109.824L28.4786 137.254L51.2186 124.571L39.2557 120.691C39.1386 120.653 39.0586 120.543 39.0586 120.42V98.3986L17.7657 91.4944V113.33C17.7657 113.421 17.7214 113.507 17.6486 113.561C17.5743 113.616 17.4786 113.63 17.3929 113.601L5.74144 109.824H5.73859Z" fill="black"/>
</g>
<g id="Group_6">
<path id="Vector_19" d="M17.477 102.23V113.33L4.88989 109.25L17.477 102.23Z" fill="#FF7E88"/>
<path id="Vector_20" d="M17.4771 113.616C17.4471 113.616 17.4171 113.611 17.3885 113.601L4.80141 109.521C4.69283 109.486 4.61569 109.39 4.60569 109.277C4.59426 109.164 4.65141 109.056 4.75141 109L17.3385 101.98C17.4271 101.93 17.5357 101.931 17.6228 101.983C17.71 102.034 17.7643 102.129 17.7643 102.229V113.329C17.7643 113.42 17.72 113.506 17.6471 113.56C17.5971 113.596 17.5385 113.614 17.4785 113.614L17.4771 113.616ZM5.60141 109.18L17.1914 112.937V102.716L5.60141 109.179V109.18Z" fill="black"/>
</g>
</g>
</g>
</g>
</svg>
