<svg width="120" height="152" viewBox="0 0 120 152" fill="none" xmlns="http://www.w3.org/2000/svg">
<g id="illustration / deriv / light / ic-info-passkey">
<path id="Vector" d="M111.367 88.7038C111.358 90.4025 111.294 93.8468 109.222 97.172C108.826 97.8064 108.378 98.4036 107.883 98.9568L97.1055 109.271C98.1833 108.224 99.0746 106.985 99.738 105.612C101.413 102.127 101.058 98.8659 100.812 96.6172C100.122 90.2928 96.8475 86.0431 95.394 84.2065C93.945 82.3747 90.0945 77.6407 83.46 75.7791C81.1425 75.1304 77.2905 74.0507 73.089 75.8763C72.408 76.1725 70.839 76.9278 69.267 78.3992L80.586 67.2577C82.014 66.3677 84.876 64.8649 88.692 64.7662C91.872 64.6831 94.215 65.6124 95.7915 66.2611C96.8895 66.7108 102.313 69.0379 106.599 75.1711C107.853 76.9669 111.406 82.0534 111.367 88.7038Z" fill="#FF444F"/>
<path id="Vector_2" d="M97.1055 109.565C97.0489 109.565 96.9936 109.548 96.9468 109.515C96.9 109.481 96.8638 109.434 96.843 109.379C96.8221 109.324 96.8175 109.264 96.8298 109.207C96.8421 109.149 96.8707 109.096 96.912 109.056C97.9657 108.033 98.8372 106.822 99.486 105.48C101.122 102.073 100.78 98.941 100.531 96.6531C99.8355 90.2786 96.4515 86.0037 95.1765 84.3929C93.912 82.7961 90.066 77.9352 83.3865 76.0626C81.1125 75.4264 77.3085 74.3593 73.197 76.1473C71.8267 76.7466 70.5618 77.5807 69.4545 78.6153C69.3989 78.6653 69.327 78.6908 69.2538 78.6863C69.1806 78.6818 69.112 78.6477 69.0624 78.5913C69.0129 78.5349 68.9863 78.4605 68.9884 78.3839C68.9904 78.3074 69.021 78.2347 69.0735 78.1812L80.3925 67.0398C80.4075 67.0257 80.4225 67.0131 80.4405 67.0022C82.98 65.4195 85.8315 64.5451 88.683 64.4699C91.9875 64.3853 94.4325 65.385 95.8935 65.9852C97.8465 66.7844 102.82 69.2649 106.824 74.9955C108.027 76.7192 111.687 81.9593 111.646 88.7037C111.637 90.2472 111.616 93.8623 109.456 97.3301C109.054 97.9741 108.592 98.5884 108.087 99.1557L108.072 99.1713L98.1945 108.624L97.2945 109.485C97.2426 109.536 97.1746 109.563 97.104 109.564L97.1055 109.565ZM78.0135 74.5708C80.2335 74.5708 82.155 75.1099 83.532 75.4954C90.3855 77.4181 94.317 82.3871 95.6085 84.0199C96.9135 85.6653 100.374 90.0372 101.091 96.5858C101.334 98.8156 101.7 102.182 99.9885 105.745C99.8685 105.993 99.7425 106.237 99.6075 106.477C102.298 103.899 104.992 101.324 107.683 98.7482C108.163 98.2076 108.603 97.6247 108.984 97.012C111.055 93.6884 111.075 90.1955 111.084 88.7021C111.124 82.1505 107.671 77.2066 106.371 75.3465C102.453 69.7382 97.596 67.3156 95.688 66.5336C94.266 65.9507 91.8885 64.976 88.698 65.0591C85.9515 65.1312 83.205 65.9727 80.7555 67.4942L72.066 76.0454C73.9071 75.0659 75.9473 74.5603 78.0135 74.5708Z" fill="black"/>
<path id="Vector_3" d="M102.378 104.223L102.362 114.097L92.0355 124.189C92.0355 120.284 92.0325 116.38 92.0295 112.475C92.8605 112.165 95.0715 111.258 97.1055 109.271L102.378 104.223Z" fill="#FF444F"/>
<path id="Vector_4" d="M92.0355 124.482C91.9607 124.482 91.889 124.451 91.8361 124.395C91.7832 124.34 91.7535 124.265 91.7535 124.187L91.749 112.475C91.749 112.35 91.824 112.24 91.9365 112.198C93.7812 111.512 95.474 110.443 96.9135 109.056L102.189 104.009C102.229 103.97 102.28 103.944 102.334 103.935C102.388 103.925 102.444 103.933 102.494 103.957C102.597 104.004 102.662 104.109 102.662 104.227L102.645 114.099C102.645 114.139 102.637 114.179 102.621 114.216C102.606 114.253 102.583 114.286 102.555 114.313L92.2305 124.405C92.1777 124.456 92.1087 124.484 92.037 124.483L92.0355 124.482ZM92.3115 112.682L92.3175 123.51L102.08 113.97L102.095 104.893L97.2945 109.487C95.8494 110.881 94.1564 111.966 92.3115 112.679V112.682Z" fill="black"/>
<path id="Vector_5" d="M102.349 123.261L92.007 133.418L87.522 127.606L92.037 124.189L98.3535 118.015C99.6858 119.763 101.017 121.513 102.348 123.263L102.349 123.261Z" fill="#FF444F"/>
<path id="Vector_6" d="M92.007 133.713H91.9875C91.9488 133.71 91.9112 133.699 91.8768 133.68C91.8425 133.661 91.8123 133.635 91.788 133.603L87.303 127.791C87.2793 127.76 87.2619 127.725 87.2516 127.686C87.2413 127.648 87.2384 127.608 87.243 127.569C87.2477 127.529 87.2604 127.491 87.28 127.457C87.2996 127.422 87.3258 127.393 87.357 127.37L91.857 123.962L92.2275 123.6L98.1615 117.802C98.1898 117.774 98.2233 117.752 98.2599 117.739C98.2966 117.725 98.3355 117.72 98.3743 117.722C98.4131 117.725 98.4509 117.737 98.4853 117.756C98.5196 117.775 98.5498 117.801 98.574 117.833L102.568 123.082C102.612 123.14 102.633 123.213 102.628 123.286C102.622 123.359 102.591 123.427 102.54 123.477L95.5125 130.378L92.1975 133.635C92.1453 133.685 92.0782 133.713 92.007 133.713ZM87.9285 127.663L92.0355 132.986L95.1285 129.947L101.968 123.233L98.3235 118.447C96.4215 120.307 94.518 122.167 92.613 124.026L92.229 124.402C92.2207 124.411 92.2116 124.419 92.202 124.427L87.9285 127.663Z" fill="black"/>
<path id="Vector_7" d="M102.342 132.444L91.9905 142.625L87.5295 136.803L92.007 133.417L98.346 127.193L102.342 132.445V132.444Z" fill="#FF444F"/>
<path id="Vector_8" d="M91.9905 142.918H91.9695C91.9308 142.915 91.8931 142.904 91.8588 142.885C91.8244 142.866 91.7942 142.84 91.77 142.808L87.3105 136.987C87.2867 136.955 87.2691 136.919 87.2589 136.881C87.2488 136.842 87.2462 136.802 87.2514 136.763C87.2566 136.723 87.2694 136.685 87.2891 136.651C87.3088 136.617 87.335 136.587 87.366 136.563L91.8285 133.19L98.154 126.978C98.1823 126.95 98.2159 126.929 98.2525 126.915C98.2891 126.902 98.3281 126.896 98.3669 126.899C98.4057 126.902 98.4435 126.913 98.4778 126.932C98.5122 126.951 98.5424 126.978 98.5665 127.009L102.563 132.262C102.606 132.32 102.628 132.392 102.623 132.466C102.618 132.539 102.587 132.608 102.536 132.658L92.184 142.838C92.1315 142.889 92.0623 142.918 91.9905 142.918ZM87.9345 136.86L92.0175 142.192L101.96 132.417L98.3145 127.625L92.1975 133.632C92.1891 133.64 92.1801 133.648 92.1705 133.655L87.9345 136.86Z" fill="black"/>
<path id="Vector_9" d="M87.45 90.929C87.432 91.2894 87.4005 91.8567 87.0885 92.4788C87.0135 92.623 86.6235 93.372 85.8015 93.8405C84.582 94.53 83.289 94.1101 82.6815 93.9126C81.3165 93.4676 80.511 92.5603 80.103 92.0917C79.7025 91.6279 78.633 90.3931 78.525 88.5785C78.4995 88.1648 78.465 87.4471 78.8175 86.6479C78.933 86.3894 79.3575 85.4649 80.3475 84.9869C81.0225 84.6625 81.63 84.7049 82.0965 84.7425C83.886 84.8882 85.1055 86.0353 85.4925 86.4098C85.788 86.695 86.652 87.585 87.138 89.0141C87.2775 89.4263 87.4905 90.0719 87.45 90.929Z" fill="#FF444F"/>
<path id="Vector_10" d="M84.306 94.5127C83.5785 94.5127 82.9485 94.3074 82.596 94.193C81.138 93.7182 80.298 92.7529 79.896 92.2906C79.473 91.8017 78.36 90.5121 78.243 88.5972C78.219 88.2133 78.1695 87.4141 78.561 86.5256C79.0305 85.471 79.728 84.9633 80.229 84.722C80.9865 84.3569 81.6675 84.4133 82.1175 84.4493C83.3925 84.5527 84.5925 85.1404 85.683 86.1934C86.1255 86.6228 86.9355 87.5457 87.4035 88.9169C87.5325 89.2992 87.774 90.0138 87.729 90.943C87.714 91.2862 87.684 91.9224 87.336 92.615C87.0132 93.239 86.5267 93.7538 85.9335 94.099C85.4324 94.3777 84.8736 94.52 84.306 94.5127ZM81.591 85.0103C81.2595 85.0103 80.8725 85.0573 80.463 85.2548C80.049 85.4538 79.4685 85.8784 79.071 86.7716C78.741 87.5238 78.783 88.196 78.804 88.558C78.9075 90.2692 79.926 91.4476 80.31 91.8926C80.682 92.3188 81.4515 93.2042 82.764 93.632C83.3445 93.82 84.549 94.2149 85.6665 93.5803C86.1618 93.2918 86.5681 92.8618 86.838 92.3408C87.129 91.7641 87.153 91.2313 87.168 90.9148C87.207 90.1 86.997 89.4826 86.8725 89.1127C86.5441 88.1651 86.0054 87.3123 85.3005 86.6243C84.3045 85.6622 83.217 85.1278 82.074 85.0354C81.93 85.0228 81.7665 85.0103 81.591 85.0103Z" fill="black"/>
<path id="Vector_11" d="M31.7925 38.9748C31.7115 36.6869 31.4595 29.5899 36.2415 24.3216C41.01 19.0675 47.781 18.939 49.2465 18.9108C63.741 18.6365 79.1985 35.5743 77.883 50.8464C77.7675 52.1831 77.0505 60.529 70.7325 65.0984C65.568 68.8326 59.6115 67.9127 57.1425 67.532C44.3625 65.5622 32.28 52.7817 31.7925 38.9748Z" fill="white"/>
<path id="Vector_12" d="M61.4399 68.215C59.6324 68.215 58.104 67.98 57.1019 67.8248C50.8545 66.8627 44.4944 63.2429 39.6524 57.8947C34.6364 52.3553 31.7444 45.6407 31.5104 38.9856C31.4264 36.6319 31.1729 29.477 36.0374 24.1178C39.1649 20.6719 43.8554 18.7179 49.2434 18.6176C56.2274 18.4844 63.9285 22.3721 69.8504 29.0147C72.6269 32.1299 74.8589 35.709 76.3019 39.3648C77.8559 43.2949 78.4829 47.1669 78.1649 50.8729C77.91 53.8252 76.695 61.1447 70.8914 65.3411C67.698 67.6509 64.2374 68.215 61.4399 68.215ZM49.59 19.2021C49.479 19.2021 49.3649 19.2021 49.2539 19.2052C44.0159 19.3055 39.4679 21.1922 36.4439 24.5236C31.7444 29.7042 31.9919 36.6742 32.0714 38.9636C32.3009 45.4777 35.139 52.056 40.0605 57.4904C44.8169 62.7446 51.0585 66.2986 57.183 67.2435C59.6715 67.6274 65.499 68.5253 70.5704 64.8569C76.1759 60.8031 77.3564 53.6904 77.6024 50.8196C77.9144 47.2092 77.3009 43.4312 75.7814 39.5873C74.3624 35.9989 72.1679 32.4793 69.4364 29.4143C63.7184 22.9989 56.3265 19.2021 49.59 19.2021Z" fill="black"/>
<path id="Vector_13" d="M87.9765 43.6505C87.192 47.905 85.1865 50.9058 83.949 52.4791L72.6795 63.4058C77.2065 58.7189 77.781 52.0309 77.8845 50.8462C79.1985 35.5742 63.7425 18.6363 49.2495 18.9106C47.8755 18.9372 41.8575 19.0516 37.182 23.3719L48.48 12.1286C51.5793 10.1478 55.1027 9.00646 58.731 8.80806C64.6005 8.50406 68.8815 10.9032 71.5785 12.4059C72.8325 13.1048 77.7435 15.9568 81.9885 21.8707C83.346 23.7589 87.12 29.1432 88.056 36.8419C88.254 38.4716 88.512 40.7437 87.9765 43.649V43.6505Z" fill="#EBECEE"/>
<path id="Vector_14" d="M72.6794 63.6989C72.6415 63.6989 72.6041 63.6909 72.5692 63.6752C72.5344 63.6596 72.503 63.6367 72.4769 63.608C72.4259 63.5526 72.3979 63.4784 72.399 63.4015C72.4001 63.3246 72.4303 63.2512 72.4829 63.1975C76.4984 59.0402 77.4014 53.1608 77.6039 50.8244C77.9144 47.2093 77.3039 43.4312 75.7829 39.5889C74.3624 35.9989 72.1679 32.4809 69.4379 29.4174C63.6254 22.894 56.0789 19.0767 49.2539 19.2052C43.2284 19.3212 39.4649 21.6545 37.3694 23.5929C37.3142 23.6443 37.2418 23.6709 37.1679 23.6667C37.094 23.6626 37.0246 23.6282 36.9749 23.5709C36.9248 23.5142 36.898 23.4391 36.9006 23.362C36.9031 23.2848 36.9347 23.2118 36.9884 23.1588L48.2864 11.9171C48.2999 11.903 48.3164 11.8904 48.3329 11.8795C51.4725 9.87391 55.0411 8.7176 58.7159 8.51508C64.6409 8.20951 69.0464 10.6619 71.6774 12.1286L71.7119 12.1474C73.9844 13.4167 78.3719 16.3423 82.2149 21.6936C85.6349 26.4542 87.6959 31.5392 88.3349 36.8059C88.5239 38.3525 88.8074 40.6921 88.2524 43.7054C87.6584 46.9225 86.2469 50.0205 84.1664 52.664C84.1584 52.6749 84.1499 52.6853 84.1409 52.6954L72.8699 63.6206C72.8179 63.6715 72.7507 63.6995 72.6794 63.6989ZM49.5854 18.616C56.4809 18.616 64.0259 22.4834 69.8504 29.0178C72.6254 32.1331 74.8574 35.7105 76.3019 39.3664C77.8559 43.2949 78.4814 47.1685 78.1634 50.8745C77.9654 53.1702 77.3084 57.0234 75.1994 60.5633L83.7434 52.2801C85.7579 49.7133 87.1259 46.7125 87.7019 43.5989C88.2389 40.6748 87.9614 38.3933 87.7769 36.8842C87.1499 31.7194 85.1264 26.73 81.7634 22.0509C77.9849 16.7905 73.6784 13.915 71.4464 12.6692L71.4134 12.6504C68.6654 11.1195 64.5134 8.80654 58.7444 9.10584C55.1735 9.302 51.7053 10.4232 48.6524 12.3684L40.0034 20.9744C42.2324 19.7208 45.2609 18.6959 49.2419 18.6207C49.3559 18.6176 49.4714 18.6176 49.5884 18.6176L49.5854 18.616Z" fill="black"/>
<path id="Vector_15" d="M73.971 107.425L73.962 127.733L8.64605 109.116C8.55605 105.7 8.82455 98.3503 13.0365 90.6955C18.3525 81.0333 26.5965 76.9826 30.0015 75.5848C37.2135 72.631 43.461 73.0839 46.5315 73.344C54.2865 73.999 60.3765 76.9622 64.374 78.9069C65.499 79.4553 66.528 79.9959 67.449 80.5052C67.2466 80.7973 67.0564 81.0985 66.879 81.4078C65.981 83.0088 65.391 84.7777 65.142 86.615C64.953 87.9987 65.01 89.0533 65.0625 89.9496C65.2265 92.5686 65.8086 95.1405 66.7845 97.559C67.0515 98.2218 68.2575 101.132 70.8375 104.242C71.7932 105.394 72.8415 106.46 73.971 107.425Z" fill="white"/>
<path id="Vector_16" d="M73.962 128.028C73.9366 128.028 73.9114 128.024 73.887 128.017L8.57097 109.399C8.51275 109.383 8.46112 109.348 8.4238 109.298C8.38649 109.249 8.3655 109.188 8.36397 109.125C8.24397 104.54 8.91297 97.5982 12.7935 90.5498C17.8755 81.3123 25.6935 77.0375 29.8995 75.3122C37.3245 72.2706 43.7925 72.8191 46.5555 73.0526C54.3585 73.7107 60.456 76.6786 64.4925 78.6405C65.517 79.1388 66.555 79.6794 67.5795 80.2467C67.6147 80.2663 67.6456 80.2936 67.6699 80.3267C67.6943 80.3598 67.7116 80.398 67.7207 80.4386C67.7298 80.4793 67.7304 80.5215 67.7226 80.5625C67.7149 80.6034 67.6988 80.6421 67.6755 80.6761C67.47 80.9738 67.287 81.2637 67.1205 81.5583C66.241 83.1259 65.6637 84.8581 65.421 86.6573C65.2335 88.0316 65.295 89.0862 65.3445 89.9324C65.4945 92.4584 66.0825 95.0565 67.0455 97.4446C67.4655 98.4836 68.694 101.205 71.052 104.051C71.9925 105.186 73.035 106.245 74.151 107.198C74.183 107.226 74.2087 107.261 74.2263 107.3C74.244 107.34 74.2531 107.383 74.253 107.426L74.2455 127.735C74.2457 127.774 74.2385 127.812 74.2244 127.848C74.2103 127.884 74.1896 127.916 74.1633 127.944C74.1371 127.971 74.1059 127.993 74.0716 128.008C74.0373 128.022 74.0006 128.03 73.9635 128.03L73.962 128.028ZM8.92197 108.889C30.5078 115.042 52.0938 121.196 73.68 127.348L73.689 107.563C72.5867 106.61 71.5622 105.564 70.626 104.433C68.214 101.525 66.9555 98.7359 66.5265 97.6719C65.5396 95.2225 64.95 92.6185 64.782 89.9669C64.731 89.094 64.668 88.005 64.866 86.5727C65.1188 84.6969 65.72 82.8908 66.636 81.2559C66.7616 81.0356 66.8942 80.8198 67.0335 80.6087C66.1181 80.1081 65.1919 79.6295 64.2555 79.1733C60.2565 77.2271 54.213 74.2874 46.5105 73.6371C43.785 73.4067 37.4055 72.8676 30.105 75.8591C25.9665 77.5561 18.279 81.7589 13.2795 90.8428C9.52797 97.6609 8.83047 104.38 8.92197 108.889Z" fill="black"/>
<path id="Vector_17" d="M77.5695 70.2271L69.267 78.399C68.5894 79.0302 67.9793 79.7364 67.4475 80.5051C66.436 79.9455 65.4112 79.4126 64.374 78.9067C60.3765 76.9621 54.2865 73.9989 46.533 73.3439C43.461 73.0853 37.2135 72.6309 30.003 75.5847C26.1275 77.1805 22.5563 79.4874 19.458 82.3965C22.8795 78.8958 26.3025 75.3919 29.7255 71.8928C30.3855 71.2331 31.3455 70.3415 32.586 69.4013C36.207 66.659 39.5595 65.5245 41.526 64.8773C43.2723 64.3034 45.0587 63.8722 46.869 63.5876C50.0835 65.6013 53.586 66.9849 57.1425 67.5334C59.3505 67.875 64.347 68.6444 69.0735 66.1293C69.624 66.3393 70.2435 66.5869 70.917 66.869C72.852 67.6775 74.541 68.3905 76.533 69.5815C76.842 69.7648 77.19 69.9795 77.5695 70.2271Z" fill="#EBECEE"/>
<path id="Vector_18" d="M19.4581 82.6912C19.3831 82.6912 19.3081 82.6598 19.2526 82.5971C19.2021 82.5413 19.1746 82.467 19.176 82.3903C19.1774 82.3135 19.2076 82.2403 19.2601 82.1866L29.5291 71.6829C30.4374 70.7762 31.4031 69.9344 32.4196 69.1632C36.1516 66.3363 39.5926 65.2049 41.4406 64.5969C43.2007 64.0188 45.0011 63.5839 46.8256 63.2963C46.8905 63.286 46.9569 63.2999 47.0131 63.3355C50.2546 65.3647 53.7721 66.7155 57.1816 67.242C59.3101 67.5711 64.2946 68.3405 68.9431 65.8677C68.9775 65.8491 69.0153 65.8381 69.054 65.8354C69.0927 65.8327 69.1315 65.8384 69.1681 65.8521C69.7591 66.0793 70.3831 66.33 71.0191 66.5964C72.8716 67.3689 74.6206 68.1007 76.6711 69.3261C77.0191 69.533 77.3686 69.7524 77.7151 69.9764C77.7519 70 77.783 70.0322 77.806 70.0704C77.8289 70.1086 77.8432 70.1518 77.8475 70.1967C77.8519 70.2416 77.8463 70.2869 77.8311 70.3292C77.8159 70.3714 77.7916 70.4095 77.7601 70.4403L73.5556 74.5772L69.4576 78.6122C68.7826 79.2406 68.1856 79.9348 67.6726 80.676C67.6325 80.7332 67.5742 80.7735 67.5081 80.7896C67.4421 80.8057 67.3727 80.7965 67.3126 80.7637C66.2971 80.2028 65.2666 79.6668 64.2526 79.1717C60.2521 77.227 54.2086 74.2857 46.5061 73.637C43.7806 73.4051 37.4011 72.866 30.1006 75.8574C26.2575 77.441 22.7159 79.7287 19.6426 82.6128C19.5912 82.6625 19.5236 82.69 19.4536 82.6896L19.4581 82.6912ZM42.5881 72.8582C44.2636 72.8582 45.6211 72.9741 46.5556 73.0525C54.3586 73.7106 60.4561 76.6785 64.4926 78.6404C65.4451 79.1058 66.4111 79.6042 67.3651 80.1275C67.8742 79.4208 68.449 78.7683 69.0811 78.1797L73.1731 74.151L77.1091 70.2773C76.8706 70.1253 76.6321 69.9796 76.3936 69.8385C74.3776 68.6319 72.6436 67.908 70.8136 67.1433C70.2211 66.8957 69.6436 66.6622 69.0916 66.4507C64.3141 68.9391 59.2666 68.1587 57.1021 67.8249C53.6491 67.2922 50.0926 65.9336 46.8121 63.8949C45.0504 64.1775 43.3119 64.5998 41.6116 65.1579C39.7936 65.7565 36.4081 66.8691 32.7511 69.6395C31.7581 70.3917 30.8041 71.2222 29.9191 72.106L23.1931 78.9852C25.2958 77.5136 27.5437 76.2822 29.8981 75.3121C34.8121 73.3001 39.3091 72.8582 42.5881 72.8582Z" fill="black"/>
<path id="Vector_19" d="M100.809 96.6172C100.119 90.2927 96.8445 86.043 95.394 84.2065C93.9435 82.3746 90.093 77.6407 83.4585 75.7791C81.1395 75.1303 77.289 74.0507 73.089 75.8762C72.0435 76.3307 68.9085 77.8648 66.876 81.4078C65.9792 83.0086 65.3902 84.7768 65.142 86.6134C64.9515 87.9986 65.0085 89.0532 65.0625 89.948C65.2258 92.5671 65.8079 95.1392 66.7845 97.5574C67.053 98.2202 68.259 101.13 70.8375 104.241C71.7932 105.393 72.8415 106.458 73.971 107.423L73.9575 137.601L82.9755 149.364C85.98 147.119 88.986 144.872 91.9905 142.623L87.531 136.802L92.0085 133.415L87.5235 127.602L92.0385 124.186C92.034 120.281 92.034 116.377 92.031 112.472C93.2595 112.012 97.512 110.247 99.741 105.609C101.415 102.124 101.058 98.8627 100.812 96.6141L100.809 96.6172ZM87.4485 90.9289C87.432 91.2909 87.399 91.8582 87.0855 92.4803C87.012 92.6229 86.622 93.3735 85.7985 93.8404C84.582 94.5315 83.289 94.1115 82.6785 93.9125C81.3135 93.4691 80.5095 92.5618 80.1015 92.0917C79.6995 91.6278 78.6315 90.393 78.522 88.5784C78.4965 88.1663 78.462 87.4486 78.8145 86.6479C78.9285 86.3893 79.3545 85.4648 80.3445 84.9884C81.0195 84.664 81.6285 84.7063 82.092 84.744C83.883 84.8897 85.1025 86.0352 85.4895 86.4113C85.7835 86.6949 86.6475 87.5865 87.135 89.0156C87.2745 89.4277 87.486 90.0718 87.447 90.9305L87.4485 90.9289Z" fill="#FF7E88"/>
<path id="Vector_20" d="M82.974 149.66C82.9317 149.661 82.8899 149.651 82.8518 149.632C82.8136 149.613 82.78 149.585 82.7535 149.551L73.7355 137.787C73.6957 137.735 73.674 137.669 73.674 137.602L73.686 107.563C72.5844 106.61 71.5599 105.564 70.623 104.435C68.208 101.523 66.951 98.7357 66.5235 97.6732C65.5367 95.2234 64.9477 92.6189 64.7805 89.9667C64.728 89.0986 64.665 88.0158 64.8615 86.5725C65.1146 84.6966 65.7164 82.8904 66.633 81.2557C68.5575 77.9023 71.4345 76.2757 72.978 75.605C77.268 73.7403 81.1875 74.8388 83.5305 75.4953C90.3855 77.4165 94.317 82.3855 95.61 84.0199C96.912 85.6652 100.374 90.0435 101.09 96.5842C101.333 98.8125 101.7 102.178 99.9885 105.743C97.9785 109.927 94.392 111.87 92.31 112.679L92.3175 124.187C92.3175 124.281 92.274 124.369 92.2005 124.424L87.927 127.66L92.2245 133.23C92.2485 133.261 92.2661 133.297 92.2764 133.336C92.2867 133.374 92.2894 133.414 92.2844 133.454C92.2793 133.493 92.2666 133.532 92.2471 133.566C92.2275 133.6 92.2015 133.63 92.1705 133.653L87.9345 136.858L92.2095 142.438C92.2338 142.469 92.2516 142.505 92.2619 142.544C92.2722 142.582 92.2747 142.623 92.2694 142.663C92.264 142.702 92.2509 142.74 92.2308 142.775C92.2107 142.809 92.184 142.838 92.1525 142.861L83.1375 149.601C83.0902 149.636 83.0337 149.655 82.9755 149.656L82.9725 149.66H82.974ZM74.2365 137.5L83.0265 148.965L91.581 142.567L87.306 136.988C87.2822 136.957 87.2646 136.921 87.2544 136.882C87.2443 136.844 87.2417 136.804 87.2469 136.764C87.2521 136.724 87.2649 136.686 87.2846 136.652C87.3043 136.618 87.3305 136.588 87.3615 136.565L91.599 133.36L87.3 127.79C87.2763 127.758 87.2588 127.722 87.2485 127.684C87.2382 127.645 87.2353 127.605 87.24 127.566C87.2451 127.526 87.2578 127.488 87.2774 127.454C87.297 127.421 87.3231 127.391 87.354 127.368L91.7505 124.038L91.743 112.474C91.743 112.35 91.818 112.239 91.9305 112.198C93.5145 111.606 97.4235 109.766 99.483 105.48C101.118 102.072 100.778 98.9394 100.527 96.6516C99.831 90.2848 96.447 86.0053 95.172 84.3928C93.9075 82.796 90.0645 77.9367 83.382 76.0626C81.108 75.4264 77.3025 74.3608 73.191 76.1472C71.7105 76.7897 68.952 78.3489 67.113 81.5581C66.2345 83.1248 65.6581 84.856 65.4165 86.654C65.226 88.0393 65.289 89.0876 65.3385 89.9291C65.4885 92.4551 66.0765 95.0532 67.038 97.4429C67.4565 98.4787 68.6835 101.199 71.0445 104.046C71.9897 105.185 73.026 106.239 74.142 107.194C74.208 107.249 74.2455 107.334 74.2455 107.422L74.232 137.497L74.2365 137.5ZM84.3045 94.5141C83.5785 94.5141 82.9485 94.3104 82.596 94.1945C81.1305 93.7181 80.2635 92.7168 79.893 92.289C79.473 91.8032 78.3555 90.5151 78.24 88.5987C78.2175 88.2132 78.1695 87.4078 78.558 86.5271C78.9255 85.695 79.503 85.0698 80.226 84.7219C80.982 84.3599 81.663 84.4132 82.116 84.4508C83.391 84.5542 84.591 85.1403 85.6815 86.1965C86.1225 86.6227 86.9325 87.5441 87.399 88.9184C87.5295 89.3007 87.771 90.0121 87.7275 90.9461C87.7125 91.2892 87.681 91.9254 87.333 92.6196C87.0127 93.2442 86.5261 93.7585 85.932 94.1005C85.4312 94.3801 84.8709 94.523 84.303 94.5157L84.3045 94.5141ZM81.591 85.0118C81.2565 85.0118 80.871 85.0588 80.463 85.2563C79.863 85.5446 79.38 86.0695 79.071 86.7731C78.741 87.5221 78.7815 88.1991 78.804 88.5626C78.906 90.2738 79.926 91.4522 80.31 91.8972C80.679 92.3219 81.4455 93.2057 82.764 93.6351C83.343 93.8231 84.5505 94.2164 85.665 93.5849C86.3775 93.1806 86.742 92.535 86.838 92.3454C87.129 91.7672 87.153 91.236 87.168 90.9179C87.207 90.0999 86.997 89.484 86.8725 89.1158C86.5449 88.1686 86.0067 87.3163 85.302 86.629C84.3075 85.6684 83.223 85.1325 82.074 85.04C81.93 85.029 81.7695 85.0149 81.594 85.0149L81.591 85.0118Z" fill="black"/>
</g>
</svg>
