<svg width="120" height="152" viewBox="0 0 120 152" fill="none" xmlns="http://www.w3.org/2000/svg">
<g id="illustration / deriv / light / inflation-hedge" clip-path="url(#clip0_1338_235)">
<g id="Protect Inflation 2">
<path id="Vector" d="M114.681 36.5938V62.0943C114.681 66.62 102.911 71.4936 88.0528 74.3275H88.0448C80.2779 75.8112 71.6792 76.7389 63.4604 76.7643C55.213 76.7897 46.6174 75.9176 38.8633 74.4816H38.8553C23.885 71.716 12.0725 66.8519 12.0725 62.3294V36.8241C12.0725 42.0821 28.0135 47.7912 46.3221 50.147C51.9401 50.873 57.7865 51.2796 63.462 51.259C69.0977 51.2383 74.9233 50.7967 80.5333 50.0406C98.7382 47.6006 114.684 41.8597 114.684 36.5938H114.681Z" fill="white"/>
<path id="Vector_2" d="M63.1012 77.0803C55.2912 77.0803 46.9064 76.2908 38.8217 74.796C38.8122 74.796 38.8026 74.7944 38.7946 74.7928C25.333 72.3052 11.75 67.4872 11.75 62.3292V36.8239C11.75 36.6492 11.8937 36.5062 12.0693 36.5062C12.2449 36.5062 12.3886 36.6492 12.3886 36.8239C12.3886 38.1837 13.6945 40.9604 22.4417 44.2773C28.8197 46.695 37.3131 48.6679 46.3588 49.8323C52.2083 50.5885 57.9669 50.965 63.4556 50.9411C68.93 50.9205 74.6582 50.5106 80.4854 49.7259C89.504 48.517 97.967 46.5123 104.316 44.0803C110.793 41.599 114.36 38.9414 114.36 36.5936C114.36 36.4188 114.504 36.2759 114.679 36.2759C114.855 36.2759 114.998 36.4188 114.998 36.5936V62.0941C114.998 64.9932 110.685 67.5237 107.067 69.1361C102.287 71.2647 95.5547 73.2202 88.1103 74.6403C88.0991 74.6419 88.0895 74.6435 88.0784 74.6451C79.85 76.2145 71.3375 77.058 63.4588 77.0819C63.3407 77.0819 63.2194 77.0819 63.1012 77.0819V77.0803ZM38.8936 74.1637C38.9032 74.1637 38.9127 74.1653 38.9207 74.1669C47.0964 75.6808 55.5737 76.4671 63.4588 76.4433C71.3056 76.4194 79.7862 75.5775 87.9842 74.0128C87.9953 74.0112 88.0049 74.0096 88.0161 74.0081C103.529 71.0471 114.363 66.1481 114.363 62.091V38.5538C113.276 40.252 110.571 42.3647 104.549 44.6712C98.1554 47.1207 89.6413 49.1381 80.5748 50.3534C74.7221 51.1429 68.9651 51.5527 63.462 51.5749C57.9398 51.5956 52.1573 51.2207 46.2806 50.4614C37.1869 49.2922 28.6409 47.3066 22.2182 44.8698C16.1883 42.5823 13.479 40.4775 12.3918 38.7826V62.3277C12.3918 66.4117 23.2895 71.2774 38.8952 74.1637H38.8936Z" fill="black"/>
<path id="Vector_3" d="M114.681 62.0927V85.382C114.681 90.3906 100.264 95.8233 83.2027 98.4476H83.1979C76.7848 99.4356 69.9981 100.03 63.4589 100.05C56.8829 100.071 50.0866 99.5198 43.6639 98.5667H43.6592C26.4937 96.0235 12.0693 90.613 12.0693 85.6123V62.3262C12.0693 66.8487 23.8818 71.7127 38.8521 74.4784H38.8601C46.6143 75.9144 55.2098 76.7865 63.4573 76.7611C71.6744 76.7357 80.2747 75.808 88.0417 74.3243H88.0497C102.908 71.4904 114.678 66.6184 114.678 62.0911L114.681 62.0927Z" fill="white"/>
<path id="Vector_4" d="M63.0979 100.371C56.9115 100.371 50.1902 99.8582 43.6318 98.886C43.6255 98.886 43.6191 98.886 43.6143 98.8844C27.7803 96.5381 11.7515 91.2277 11.7515 85.6155V62.3293C11.7515 62.1546 11.8951 62.0116 12.0708 62.0116C12.2464 62.0116 12.3901 62.1546 12.3901 62.3293C12.3901 66.4134 23.2877 71.279 38.8935 74.1654C38.903 74.1654 38.9126 74.167 38.9206 74.1686C47.0962 75.6824 55.5736 76.4687 63.4587 76.4449C71.3055 76.4211 79.786 75.5792 87.984 74.0145C87.9952 74.0129 88.0048 74.0113 88.016 74.0097C103.529 71.0487 114.363 66.1497 114.363 62.0926C114.363 61.9179 114.507 61.7749 114.682 61.7749C114.858 61.7749 115.001 61.9179 115.001 62.0926V85.3835C115.001 88.5876 109.813 91.3516 105.461 93.1053C99.6592 95.4436 91.7725 97.4531 83.252 98.7637C83.2456 98.7637 83.2392 98.7652 83.2313 98.7668C76.5435 99.7962 69.7074 100.351 63.4603 100.371C63.339 100.371 63.2192 100.371 63.0979 100.371ZM43.6941 98.2537C43.6941 98.2537 43.7069 98.2537 43.7117 98.2553C50.3706 99.2434 57.1956 99.7501 63.4571 99.7342C69.677 99.7136 76.4861 99.1608 83.1482 98.1346C83.1546 98.1346 83.161 98.133 83.169 98.1314C100.952 95.3944 114.361 89.914 114.361 85.3819V64.0513C113.028 66.1211 109.845 67.8971 107.069 69.1329C102.289 71.2616 95.5562 73.217 88.1117 74.6372C88.1006 74.6388 88.091 74.6403 88.0798 74.6419C79.8515 76.2114 71.339 77.0549 63.4603 77.0787C55.5513 77.1057 47.0308 76.3131 38.8232 74.7944C38.8136 74.7944 38.804 74.7928 38.7961 74.7913C27.057 72.6229 15.227 68.6818 12.3901 64.2864V85.6123C12.3901 90.1729 25.8469 95.6057 43.6941 98.2506V98.2537Z" fill="black"/>
<path id="Vector_5" d="M114.681 85.3835V110.131C114.831 117.033 87.4589 124.771 63.4588 124.852C39.248 124.938 11.9495 117.257 12.0692 110.371V85.6155C12.0692 90.6161 26.4936 96.0282 43.6591 98.5699H43.6638C50.0865 99.523 56.8812 100.074 63.4588 100.054C69.9964 100.033 76.7831 99.4388 83.1978 98.4507H83.2026C100.264 95.8265 114.681 90.3937 114.681 85.3851V85.3835Z" fill="white"/>
<path id="Vector_6" d="M63.0516 125.17C53.1933 125.17 42.4728 123.916 32.8124 121.63C23.3133 119.383 16.1961 116.411 13.2857 113.473C12.2496 112.428 11.7323 111.381 11.7515 110.365V85.6138C11.7515 85.4391 11.8952 85.2961 12.0708 85.2961C12.2464 85.2961 12.3901 85.4391 12.3901 85.6138C12.3901 90.1745 25.8469 95.6072 43.6941 98.2521C43.7005 98.2521 43.7069 98.2521 43.7117 98.2537C50.2429 99.2227 56.937 99.7342 63.0979 99.7342C63.2193 99.7342 63.3374 99.7342 63.4587 99.7342C69.6787 99.7136 76.4877 99.1608 83.1499 98.1346C83.1563 98.1346 83.1627 98.133 83.1706 98.1314C100.954 95.3944 114.363 89.914 114.363 85.3819C114.363 85.2072 114.507 85.0642 114.682 85.0642C114.858 85.0642 115.002 85.2072 115.002 85.3819V110.13C115.024 111.137 114.516 112.179 113.493 113.224C110.61 116.166 103.5 119.17 93.9901 121.464C84.368 123.784 73.242 125.135 63.4619 125.168C63.3262 125.168 63.1889 125.168 63.0532 125.168L63.0516 125.17ZM12.3901 87.5773V110.371C12.3757 111.216 12.8291 112.109 13.7407 113.029C16.5697 115.883 23.5751 118.793 32.9609 121.014C42.7075 123.319 53.5333 124.569 63.4587 124.536C73.191 124.502 84.2626 123.159 93.8384 120.849C103.235 118.582 110.231 115.642 113.035 112.782C113.933 111.864 114.38 110.976 114.363 110.139V87.3517C112.846 89.7122 108.893 91.7233 105.461 93.1069C99.6592 95.4452 91.7725 97.4547 83.2521 98.7652C83.2457 98.7652 83.2393 98.7668 83.2313 98.7684C76.542 99.7978 69.7074 100.352 63.4603 100.373C57.1701 100.392 50.318 99.8804 43.6319 98.8891C43.6255 98.8891 43.6191 98.8891 43.6143 98.8875C29.6434 96.8177 15.5192 92.4381 12.3901 87.582V87.5773Z" fill="black"/>
<path id="Vector_7" d="M114.681 36.538V36.5936C114.681 41.8595 98.735 47.5988 80.5302 50.0404C74.9201 50.7965 69.0945 51.2366 63.4589 51.2588C57.7849 51.2795 51.9386 50.8744 46.3189 50.1468C28.0103 47.7911 12.0693 42.0819 12.0693 36.8239V36.7762C12.1955 29.917 39.5578 24.0315 61.0705 23.6217C85.3452 23.1642 114.529 29.4436 114.681 36.538Z" fill="#EBECEE"/>
<path id="Vector_8" d="M63.0229 51.5766C57.6315 51.5766 52.0007 51.2017 46.2788 50.4615C37.1852 49.2923 28.6392 47.3067 22.2165 44.8699C13.5667 41.5896 11.7515 38.6842 11.7515 36.824V36.7763C11.8329 32.2872 22.2628 29.0196 28.4731 27.4708C38.1176 25.0673 50.302 23.509 61.064 23.3041C72.7934 23.0833 86.2247 24.4415 96.9946 26.9386C102.308 28.1697 106.735 29.6359 109.799 31.18C113.212 32.8988 114.962 34.6985 115 36.5333V36.5952C115 38.4554 113.186 41.3656 104.548 44.6745C98.1537 47.124 89.6396 49.1414 80.5731 50.3566C74.7204 51.1461 68.9634 51.556 63.4603 51.5782C63.315 51.5782 63.1681 51.5782 63.0229 51.5782V51.5766ZM63.679 23.9141C62.8089 23.9141 61.942 23.922 61.0767 23.9379C39.2575 24.3557 12.5066 30.3635 12.3901 36.7827V36.824C12.3901 38.1838 13.696 40.9605 22.4432 44.2773C28.8212 46.6951 37.3145 48.668 46.3603 49.8324C52.2098 50.5885 57.9684 50.965 63.4571 50.9412C68.9315 50.9205 74.6597 50.5107 80.4869 49.726C89.5055 48.5171 97.9685 46.5124 104.318 44.0804C110.795 41.5991 114.361 38.9415 114.361 36.5937V36.5412C114.219 30.2809 88.2091 23.9141 63.679 23.9141Z" fill="black"/>
<path id="Vector_9" d="M30.6301 81.8357L22.7275 87.7339C21.0496 88.9157 17.7832 90.8744 13.2316 91.5527C13.1469 91.567 13.0591 91.5797 12.9713 91.5908C9.78473 92.0277 7.10422 91.6782 5.31934 91.2922L13.2236 85.3956C15.0069 85.78 17.6858 86.1295 20.874 85.6926C25.5629 85.0525 28.9203 83.0414 30.6301 81.8357Z" fill="#FF7E88"/>
<path id="Vector_10" d="M9.9952 92.1118C8.40829 92.1118 6.82137 91.9418 5.25202 91.6019C5.13068 91.5748 5.0349 91.4811 5.00775 91.3588C4.98061 91.2365 5.02851 91.111 5.12749 91.0363L13.0317 85.1397C13.1052 85.0841 13.1994 85.0635 13.2904 85.0841C15.7873 85.6211 18.3241 85.7211 20.829 85.3764C24.2535 84.9078 27.5774 83.5941 30.4447 81.5751C30.5868 81.475 30.7847 81.5068 30.8869 81.6482C30.9891 81.788 30.9604 81.9849 30.8199 82.0898L22.9172 87.988C20.0387 90.0165 16.7069 91.3556 13.276 91.8655C13.193 91.8798 13.1036 91.8925 13.0126 91.9037C12.0084 92.0419 10.9994 92.1102 9.99201 92.1102L9.9952 92.1118ZM6.08219 91.1189C8.35241 91.5335 10.6514 91.5876 12.928 91.2746C13.0126 91.2635 13.0972 91.2508 13.1786 91.2381C16.5169 90.7409 19.753 89.4399 22.5436 87.4733L26.6307 84.4233C24.8011 85.2033 22.8741 85.7386 20.9184 86.0055C18.3864 86.3518 15.824 86.2612 13.2999 85.7338L6.08219 91.1174V91.1189Z" fill="black"/>
<path id="Vector_11" d="M47.9376 89.9975L40.035 95.8957C37.9005 95.7496 34.5143 95.2571 30.7626 93.5193C26.8464 91.7036 24.2169 89.3113 22.729 87.7339L30.6316 81.8357C32.1212 83.4147 34.7506 85.8054 38.6684 87.6211C42.4186 89.3621 45.8047 89.853 47.9392 89.9975H47.9376Z" fill="#FF7E88"/>
<path id="Vector_12" d="M40.0349 96.2133C40.0349 96.2133 40.0206 96.2133 40.0126 96.2133C36.751 95.9909 33.5931 95.1808 30.6268 93.8067C27.5568 92.3834 24.8204 90.4136 22.4943 87.9514C22.432 87.8847 22.4017 87.7957 22.4081 87.7068C22.416 87.6162 22.4623 87.5336 22.5342 87.4796L30.4368 81.5814C30.5677 81.4845 30.7497 81.5004 30.8615 81.618C33.1237 84.0166 35.7947 85.9403 38.7993 87.3319C41.6889 88.6726 44.7686 89.4621 47.9567 89.6797C48.0893 89.6892 48.2026 89.7798 48.2409 89.9069C48.2792 90.034 48.2329 90.1721 48.126 90.2516L40.2233 96.1498C40.1675 96.1911 40.1004 96.2133 40.0318 96.2133H40.0349ZM23.2063 87.7735C25.4222 90.0562 28.007 91.8925 30.8966 93.2301C33.7559 94.5549 36.7973 95.3412 39.9392 95.5699L47.0755 90.2436C44.1076 89.9482 41.2371 89.1634 38.531 87.9085C35.5392 86.5217 32.8699 84.6219 30.5949 82.2597L23.2079 87.7735H23.2063Z" fill="black"/>
<path id="Vector_13" d="M40.035 95.8956V107.315C40.0174 107.887 39.9807 108.667 39.8929 109.593C39.8466 110.089 39.7141 111.484 39.4554 112.745C38.9924 114.993 38.1559 116.67 37.6945 117.577C36.8675 119.209 35.9256 120.554 35.0762 121.596C33.9555 122.975 33.0008 123.817 32.7055 124.073C32.5442 124.213 32.3846 124.348 32.2233 124.476C30.1814 126.138 28.1586 127.124 26.6356 127.712C25.0551 128.4 22.9589 128.402 22.9349 128.402C20.1379 127.63 16.244 124.824 16.244 124.824C13.7407 122.775 12.0053 120.696 10.867 119.118C10.0257 117.954 7.93586 114.886 6.57245 110.575C5.51557 107.231 5.37987 104.675 5.35433 104.043C5.32719 103.443 5.33038 102.938 5.33836 102.58C5.33198 98.8185 5.32559 95.0553 5.3208 91.2936C7.10568 91.6797 9.78619 92.0291 12.9728 91.5923C13.0606 91.5796 13.1468 91.5685 13.233 91.5542C17.7846 90.8775 21.0511 88.9188 22.729 87.7354C24.2185 89.3112 26.8463 91.7051 30.7625 93.5208C34.5143 95.2586 37.9004 95.7526 40.035 95.8972V95.8956Z" fill="#FF444F"/>
<path id="Vector_14" d="M22.935 128.719C22.9063 128.719 22.8775 128.716 22.8504 128.708C20.0294 127.93 16.2186 125.198 16.0573 125.082C16.0525 125.078 16.0461 125.074 16.0414 125.069C13.9771 123.379 12.1491 121.438 10.6069 119.303C9.30095 117.495 7.48734 114.529 6.26762 110.669C5.30812 107.632 5.08302 105.22 5.03512 104.054C5.01277 103.556 5.00798 103.057 5.01916 102.571L5 91.2922C5 91.1953 5.04311 91.1047 5.11814 91.0444C5.19318 90.984 5.29216 90.9602 5.38635 90.9808C7.88007 91.5209 10.4185 91.6194 12.9266 91.2763C13.0112 91.2652 13.0942 91.2524 13.1772 91.2397C16.5155 90.7425 19.7516 89.4415 22.5423 87.4749C22.6732 87.3828 22.8504 87.4019 22.959 87.5162C25.2292 89.9197 27.8985 91.8418 30.8951 93.2302C33.7896 94.5709 36.8708 95.362 40.0558 95.578C40.2234 95.5891 40.3528 95.7273 40.3528 95.8957V107.316C40.3272 108.116 40.2809 108.868 40.2091 109.624C40.1644 110.094 40.0303 111.524 39.7668 112.809C39.2847 115.15 38.4018 116.886 37.9772 117.722C37.2492 119.158 36.3567 120.529 35.3222 121.797C34.5575 122.737 33.7018 123.63 32.9131 124.313C32.7391 124.464 32.5778 124.599 32.423 124.724C30.7243 126.106 28.8149 127.212 26.749 128.009C25.1334 128.711 23.0212 128.719 22.9318 128.719H22.935ZM16.4389 124.572C16.6336 124.712 20.3295 127.334 22.9781 128.082C23.2799 128.078 25.1222 128.024 26.5096 127.42C28.5243 126.642 30.3763 125.569 32.0238 124.23C32.1739 124.109 32.3288 123.979 32.498 123.833C33.2611 123.174 34.0881 122.308 34.8305 121.396C35.8363 120.164 36.7048 118.831 37.412 117.434C37.8239 116.624 38.6812 114.939 39.1458 112.682C39.4012 111.43 39.5338 110.026 39.5769 109.565C39.6471 108.822 39.6934 108.083 39.7174 107.306V96.1912C36.5595 95.9402 33.5038 95.1396 30.6285 93.8068C27.6415 92.4232 24.9705 90.5201 22.6876 88.1516C19.8681 90.0865 16.6209 91.37 13.281 91.8672C13.198 91.8815 13.1086 91.8942 13.0176 91.9053C10.5622 92.2421 8.08443 92.1659 5.64179 91.6829L5.65935 102.579C5.64818 103.058 5.65456 103.543 5.67532 104.029C5.71363 104.944 5.90681 107.401 6.87907 110.48C8.07485 114.261 9.84855 117.163 11.1273 118.934C12.6344 121.021 14.4209 122.92 16.4405 124.573L16.4389 124.572Z" fill="black"/>
<path id="Vector_15" d="M47.9378 89.9976V101.417C47.9202 101.989 47.8835 102.769 47.7957 103.695C47.7494 104.191 47.6185 105.586 47.3583 106.849C46.8969 109.095 46.0587 110.774 45.5989 111.679C43.6751 115.47 41.1255 117.725 40.6083 118.173C39.85 118.831 39.0916 119.39 38.354 119.87L38.3461 119.876L32.2251 124.476C32.3863 124.348 32.546 124.211 32.7072 124.073C33.001 123.819 33.9573 122.975 35.078 121.596C35.9274 120.556 36.8693 119.209 37.6963 117.577C38.1577 116.67 38.9942 114.993 39.4572 112.745C39.7158 111.484 39.8468 110.089 39.8947 109.594C39.9825 108.667 40.0192 107.888 40.0367 107.316V95.8957L47.9394 89.9976H47.9378Z" fill="#FF7E88"/>
<path id="Vector_16" d="M32.2251 124.794C32.1309 124.794 32.0367 124.753 31.9728 124.672C31.8658 124.535 31.8882 124.338 32.0239 124.229C32.1724 124.108 32.3272 123.979 32.4965 123.831C33.2596 123.172 34.0866 122.306 34.8289 121.395C35.8347 120.162 36.7032 118.829 37.4105 117.433C37.8224 116.623 38.6797 114.937 39.1443 112.68C39.3997 111.428 39.5322 110.024 39.5753 109.563C39.6456 108.82 39.6919 108.081 39.7158 107.304V95.8941C39.7158 95.794 39.7621 95.7003 39.8435 95.6399L47.7462 89.7417C47.842 89.6687 47.9729 89.6575 48.0798 89.7116C48.1884 89.7656 48.257 89.8752 48.257 89.9959V101.416C48.2315 102.218 48.1852 102.969 48.1134 103.724C48.0639 104.258 47.933 105.641 47.6711 106.91C47.1922 109.239 46.3093 110.982 45.8847 111.821C44.0854 115.366 41.7418 117.611 40.8174 118.411C40.1037 119.031 39.3358 119.608 38.536 120.129L32.4166 124.729C32.3592 124.772 32.2921 124.792 32.2251 124.792V124.794ZM40.3544 96.0545V107.316C40.3289 108.116 40.2826 108.868 40.2107 109.624C40.166 110.094 40.0319 111.524 39.7685 112.809C39.2863 115.15 38.4035 116.886 37.9788 117.722C37.2748 119.112 36.4158 120.44 35.4228 121.674L38.1512 119.623C38.1512 119.623 38.1704 119.609 38.1768 119.604C38.9543 119.099 39.7014 118.537 40.3959 117.935C41.2915 117.16 43.5633 114.982 45.3115 111.536C45.7234 110.723 46.5823 109.031 47.0421 106.785C47.296 105.549 47.4237 104.191 47.4732 103.679C47.545 102.925 47.5913 102.186 47.6152 101.408V90.6329L40.3512 96.0545H40.3544Z" fill="black"/>
<path id="Vector_17" d="M37.2603 44.4474C37.1182 44.4474 36.9873 44.352 36.9505 44.2075C36.9074 44.0375 37.0096 43.8644 37.1804 43.8215L43.7404 42.1551C43.9112 42.1106 44.0853 42.2139 44.1284 42.3839C44.1715 42.5538 44.0693 42.727 43.8985 42.7699L37.3385 44.4362C37.3113 44.4426 37.2858 44.4458 37.2587 44.4458L37.2603 44.4474Z" fill="black"/>
<path id="Vector_18" d="M82.9632 32.6018C82.8211 32.6018 82.6917 32.5065 82.655 32.3635C82.6103 32.1935 82.7125 32.0204 82.8833 31.9759L89.4098 30.281C89.5806 30.2365 89.7546 30.3381 89.7993 30.5081C89.844 30.6781 89.7419 30.8512 89.571 30.8957L83.0446 32.5907C83.0174 32.597 82.9903 32.6002 82.9632 32.6002V32.6018Z" fill="black"/>
<path id="Vector_19" d="M55.7732 44.5077C54.8712 44.5077 53.7345 44.4791 52.4318 44.3822C51.3286 44.2996 49.1238 44.0852 46.753 43.5832C44.2817 43.059 42.9678 42.4998 42.4058 42.2616C40.5203 41.461 39.9791 40.7509 39.6886 40.3696C39.0867 39.5817 39.0931 38.7525 39.7061 38.0345C40.0669 37.612 40.6528 37.2196 41.4495 36.8685C42.0051 36.6239 42.666 36.3983 43.4148 36.1998C43.5856 36.1537 43.7596 36.2554 43.8059 36.4253C43.8522 36.5953 43.75 36.7685 43.5792 36.8145C42.864 37.0051 42.2334 37.218 41.7097 37.4499C41.0137 37.7581 40.4884 38.1028 40.1947 38.4475C39.778 38.9336 39.7796 39.4372 40.1994 39.9868C40.4724 40.3442 40.929 40.9431 42.658 41.6786C43.2024 41.9105 44.4748 42.4522 46.8872 42.9637C49.2196 43.4593 51.3925 43.669 52.4797 43.75C55.0516 43.9422 56.9658 43.8612 57.6874 43.831C59.3781 43.7595 60.5084 43.5975 61.1167 43.5117C61.8814 43.4037 63.0229 43.2052 64.1213 42.8843C64.5923 42.7461 65.4927 42.449 66.2398 41.9979C66.5799 41.793 67.3781 41.3116 67.4101 40.6635C67.4436 39.9916 66.6741 39.372 66.342 39.1369C66.101 38.967 65.3682 38.4491 63.8403 37.8598C63.6152 37.7724 63.438 37.7089 63.2656 37.6485C62.9958 37.5532 62.7419 37.4611 62.3492 37.299C61.9884 37.1497 61.0273 36.751 60.2562 36.2379C59.2105 35.5421 59.0205 34.9607 58.9183 34.6478C58.7044 33.9981 58.888 33.3388 59.4356 32.7924C59.9688 32.2602 60.9123 31.7646 62.1624 31.3627C62.7228 31.1832 63.6583 30.8814 65.3618 30.6288C66.1105 30.5176 67.6671 30.2873 70.105 30.2539C72.72 30.219 74.9806 30.4255 76.0966 30.551C77.1982 30.6749 79.3662 30.9672 81.5151 31.5263C83.8109 32.1236 84.8869 32.7098 85.4632 33.0243C87.0821 33.9059 87.3694 34.6589 87.4908 34.9814C87.8308 35.8773 87.3886 36.7732 86.2774 37.4388C85.567 37.8645 84.5756 38.2347 83.3271 38.5381C83.1579 38.5794 82.9823 38.4761 82.9408 38.3046C82.8993 38.1346 83.003 37.9614 83.1755 37.9201C84.3601 37.631 85.2924 37.2863 85.947 36.8939C86.5361 36.5413 87.1795 35.9615 86.8921 35.2069C86.7947 34.9512 86.568 34.3523 85.1551 33.5819C84.6011 33.2801 83.5714 32.7193 81.3507 32.1411C79.2401 31.5915 77.1056 31.3039 76.0216 31.1816C74.9216 31.0577 72.6897 30.8528 70.1097 30.8877C67.715 30.9195 66.1856 31.1467 65.4512 31.2547C63.802 31.4993 62.8952 31.79 62.3556 31.9648C60.8964 32.4334 60.2067 32.9163 59.8842 33.2372C59.5042 33.6168 59.3829 34.0235 59.5218 34.4476C59.6064 34.7034 59.7469 35.1323 60.609 35.7057C61.3274 36.1839 62.247 36.5651 62.5919 36.7081C62.9702 36.8654 63.2161 36.9527 63.4779 37.0464C63.6551 37.11 63.8371 37.1751 64.0686 37.2641C65.6699 37.882 66.4522 38.4348 66.7092 38.6159C67.2281 38.9829 68.0918 39.7422 68.0455 40.6921C67.996 41.677 66.9966 42.2806 66.5687 42.538C65.7593 43.0256 64.7998 43.3449 64.2985 43.4911C63.1634 43.8231 61.9884 44.0264 61.2045 44.1376C60.5867 44.225 59.4356 44.3902 57.7114 44.4633C57.3458 44.4791 56.6753 44.5077 55.7716 44.5077H55.7732Z" fill="black"/>
</g>
</g>
<defs>
<clipPath id="clip0_1338_235">
<rect width="120" height="152" fill="white"/>
</clipPath>
</defs>
</svg>
