<svg width="128" height="128" viewBox="0 0 128 128" fill="none" xmlns="http://www.w3.org/2000/svg">
<g id="illustration / deriv / light / order" clip-path="url(#clip0_409_562)">
<g id="Clip path group">
<mask id="mask0_409_562" style="mask-type:luminance" maskUnits="userSpaceOnUse" x="0" y="0" width="128" height="128">
<g id="clip0_2678_58617">
<path id="Vector" d="M128 0H0V128H128V0Z" fill="white"/>
</g>
</mask>
<g mask="url(#mask0_409_562)">
<g id="Group">
<path id="Vector_2" d="M31.3601 17.83V17C31.3101 10.639 26.3501 5.39902 20.0001 5.00002C20.3031 4.98502 20.6071 4.98502 20.9101 5.00002H18.1001C12.9701 5.00002 8.81006 9.16002 8.81006 14.29C8.81006 19.42 12.9701 23.58 18.1001 23.58H31.3601V17.83Z" fill="#C7E5E5"/>
<path id="Vector_3" d="M47.1801 15.78V16C47.1361 20.21 43.6901 23.589 39.4801 23.55H17.8601C21.7151 23.304 24.7261 20.123 24.7601 16.26V15.77L47.1801 15.78Z" fill="#BCCDCE"/>
<path id="Vector_4" d="M96.8 5.00002H20.89C20.594 4.98502 20.296 4.98502 20 5.00002C26.347 5.40302 31.305 10.64 31.36 17V112.89C31.352 115.57 32.412 118.143 34.305 120.04C36.199 121.938 38.77 123.003 41.45 123H106.8V15C106.8 9.47702 102.323 5.00002 96.8 5.00002Z" fill="#E0F0F0"/>
<path id="Vector_5" d="M123 109.58V110.4C122.99 113.754 121.646 116.966 119.266 119.33C116.886 121.693 113.664 123.013 110.31 123H40.6101C47.0901 122.37 52.0251 116.91 52.0001 110.4V109.58H123Z" fill="#BCCDCE"/>
<path id="Vector_6" d="M47.7702 17.8H42.9202C41.8156 17.8 40.9202 18.6954 40.9202 19.8V24.65C40.9202 25.7546 41.8156 26.65 42.9202 26.65H47.7702C48.8748 26.65 49.7702 25.7546 49.7702 24.65V19.8C49.7702 18.6954 48.8748 17.8 47.7702 17.8Z" fill="#BCCDCE"/>
<path id="Vector_7" d="M47.7702 34.6499H42.9202C41.8156 34.6499 40.9202 35.5453 40.9202 36.6499V41.4999C40.9202 42.6045 41.8156 43.4999 42.9202 43.4999H47.7702C48.8748 43.4999 49.7702 42.6045 49.7702 41.4999V36.6499C49.7702 35.5453 48.8748 34.6499 47.7702 34.6499Z" fill="#BCCDCE"/>
<path id="Vector_8" d="M48.6 53.28H43.75C42.6454 53.28 41.75 54.1754 41.75 55.28V60.13C41.75 61.2346 42.6454 62.13 43.75 62.13H48.6C49.7046 62.13 50.6 61.2346 50.6 60.13V55.28C50.6 54.1754 49.7046 53.28 48.6 53.28Z" fill="#BCCDCE"/>
<path id="Vector_9" d="M48.6 71.8999H43.75C42.6454 71.8999 41.75 72.7953 41.75 73.8999V78.7499C41.75 79.8545 42.6454 80.7499 43.75 80.7499H48.6C49.7046 80.7499 50.6 79.8545 50.6 78.7499V73.8999C50.6 72.7953 49.7046 71.8999 48.6 71.8999Z" fill="#BCCDCE"/>
<path id="Vector_10" d="M92.1601 73.3401H53.6101C53.0578 73.3401 52.6101 73.7878 52.6101 74.3401C52.6101 74.8924 53.0578 75.3401 53.6101 75.3401H92.1601C92.7124 75.3401 93.1601 74.8924 93.1601 74.3401C93.1601 73.7878 92.7124 73.3401 92.1601 73.3401Z" fill="#BCCDCE"/>
<path id="Vector_11" d="M73.9101 77.8H53.1101C52.834 77.8 52.6101 78.0239 52.6101 78.3C52.6101 78.5761 52.834 78.8 53.1101 78.8H73.9101C74.1862 78.8 74.4101 78.5761 74.4101 78.3C74.4101 78.0239 74.1862 77.8 73.9101 77.8Z" fill="#BCCDCE"/>
<path id="Vector_12" d="M93.6801 54.97H55.1301C54.5778 54.97 54.1301 55.4177 54.1301 55.97C54.1301 56.5223 54.5778 56.97 55.1301 56.97H93.6801C94.2324 56.97 94.6801 56.5223 94.6801 55.97C94.6801 55.4177 94.2324 54.97 93.6801 54.97Z" fill="#BCCDCE"/>
<path id="Vector_13" d="M75.4301 59.4299H54.6301C54.354 59.4299 54.1301 59.6538 54.1301 59.9299C54.1301 60.206 54.354 60.4299 54.6301 60.4299H75.4301C75.7062 60.4299 75.9301 60.206 75.9301 59.9299C75.9301 59.6538 75.7062 59.4299 75.4301 59.4299Z" fill="#BCCDCE"/>
<path id="Vector_14" d="M93.6801 36.6001H55.1301C54.5778 36.6001 54.1301 37.0478 54.1301 37.6001C54.1301 38.1524 54.5778 38.6001 55.1301 38.6001H93.6801C94.2324 38.6001 94.6801 38.1524 94.6801 37.6001C94.6801 37.0478 94.2324 36.6001 93.6801 36.6001Z" fill="#BCCDCE"/>
<path id="Vector_15" d="M75.4301 41.0601H54.6301C54.354 41.0601 54.1301 41.284 54.1301 41.5601C54.1301 41.8362 54.354 42.0601 54.6301 42.0601H75.4301C75.7062 42.0601 75.9301 41.8362 75.9301 41.5601C75.9301 41.284 75.7062 41.0601 75.4301 41.0601Z" fill="#BCCDCE"/>
<path id="Vector_16" d="M93.6801 19.5H55.1301C54.5778 19.5 54.1301 19.9477 54.1301 20.5C54.1301 21.0523 54.5778 21.5 55.1301 21.5H93.6801C94.2324 21.5 94.6801 21.0523 94.6801 20.5C94.6801 19.9477 94.2324 19.5 93.6801 19.5Z" fill="#BCCDCE"/>
<path id="Vector_17" d="M75.4301 23.96H54.6301C54.354 23.96 54.1301 24.1838 54.1301 24.46C54.1301 24.7361 54.354 24.96 54.6301 24.96H75.4301C75.7062 24.96 75.9301 24.7361 75.9301 24.46C75.9301 24.1838 75.7062 23.96 75.4301 23.96Z" fill="#BCCDCE"/>
</g>
</g>
</g>
</g>
<defs>
<clipPath id="clip0_409_562">
<rect width="128" height="128" fill="white"/>
</clipPath>
</defs>
</svg>
