<svg width="120" height="152" viewBox="0 0 120 152" fill="none" xmlns="http://www.w3.org/2000/svg">
<g id="illustration / deriv / light / demo-account">
<g id="Sec&#38;Res-illustration-02">
<g id="Layer 137 copy">
<g id="Group">
<g id="Group_2">
<path id="Vector" d="M106.709 40.0156C106.759 41.367 106.6 42.5485 106.389 43.4999C101.82 69.5713 97.2514 95.6427 92.6814 121.716C92.5728 122.533 92.3714 123.61 91.9728 124.83C91.8057 125.348 91.2357 127.017 90.0043 128.967C89.5671 129.658 88.86 130.763 87.6585 131.977C86.8085 132.834 85.64 134.017 83.7243 134.858C82.09 135.574 80.5957 135.747 79.9657 135.814C79.4171 135.874 78.95 135.89 78.6071 135.891C69.0843 136.321 59.5614 136.75 50.0385 137.18C49.67 137.177 49.1614 137.157 48.56 137.087C47.9857 137.021 47.2671 136.937 46.3871 136.661C45.9242 136.516 45.2971 136.28 44.5942 135.89C41.0971 134.27 37.6014 132.653 34.1042 131.034C35.33 131.423 36.39 131.418 36.98 131.378C46.3785 130.956 55.7785 130.531 65.1771 130.107C66.0357 130.114 67.2414 130.038 68.6228 129.658C68.9942 129.557 70.01 129.26 71.2228 128.621C73.43 127.458 74.7643 125.971 75.4028 125.246C75.7943 124.801 77.3614 122.973 78.4814 120.076C78.99 118.763 79.26 117.604 79.4114 116.758C84.02 90.517 88.6285 64.277 93.2371 38.0356C93.3985 37.2156 93.5528 36.1027 93.5514 34.7785C93.5514 33.9327 93.5414 32.8327 93.2028 31.4742C92.9943 30.6342 92.7028 29.4627 91.8414 28.2213C91.5214 27.7613 90.51 26.3485 88.6428 25.4856C93.5271 27.6885 98.4114 29.8942 103.297 32.0985C103.807 32.5242 104.523 33.2142 105.144 34.2256C105.799 35.2942 106.049 36.2285 106.266 37.0327C106.411 37.5813 106.659 38.6427 106.709 40.0127V40.0156Z" fill="#EBECEE"/>
<path id="Vector_2" d="M50.0386 137.466H50.0358C49.5372 137.461 49.0301 137.43 48.5272 137.371C47.9772 137.309 47.2244 137.224 46.3029 136.934C45.6672 136.734 45.0501 136.469 44.4658 136.146C40.9715 134.527 37.4786 132.911 33.9844 131.294C33.8472 131.231 33.7829 131.073 33.8386 130.931C33.8944 130.79 34.0486 130.717 34.1915 130.763C35.0844 131.046 36.0172 131.157 36.9629 131.094L65.1658 129.823C65.1658 129.823 65.1758 129.823 65.1815 129.823C66.3286 129.836 67.4601 129.684 68.5501 129.384C69.1344 129.224 70.0501 128.919 71.0915 128.37C73.2972 127.209 74.6229 125.701 75.1901 125.059C75.7586 124.413 77.1915 122.627 78.2158 119.974C78.6244 118.919 78.9315 117.82 79.1315 116.71L79.3815 115.291C83.9072 89.5242 88.4329 63.7557 92.9572 37.9885C93.1643 36.9371 93.2686 35.86 93.2672 34.7814C93.2672 33.99 93.2672 32.9057 92.9272 31.5457C92.7215 30.7185 92.4401 29.5871 91.6072 28.3857C90.7829 27.2 89.7458 26.3114 88.5243 25.7471C88.3815 25.6814 88.3186 25.5114 88.3843 25.3685C88.4501 25.2257 88.6186 25.1628 88.7615 25.2271C91.3486 26.3942 93.9372 27.5628 96.5258 28.73C98.8229 29.7671 101.119 30.8028 103.416 31.84C103.44 31.85 103.461 31.8642 103.481 31.8814C104.24 32.5128 104.881 33.2514 105.389 34.0785C106.063 35.18 106.327 36.1642 106.54 36.9557C106.804 37.9528 106.957 38.9757 106.994 40.0057C107.037 41.1942 106.927 42.3914 106.667 43.5628L102.606 66.7371C99.3915 85.08 96.1772 103.423 92.9615 121.767C92.8215 122.827 92.5786 123.893 92.2429 124.921C91.9872 125.711 91.3886 127.31 90.2444 129.121C89.8472 129.749 89.1101 130.917 87.8601 132.18L87.8501 132.19C86.9829 133.064 85.7958 134.261 83.8386 135.121C82.1229 135.873 80.5772 136.037 79.9958 136.1C79.5343 136.15 79.0672 136.177 78.6086 136.179L50.0515 137.467C50.0515 137.467 50.0429 137.467 50.0386 137.467V137.466ZM36.1758 131.679C39.0229 132.996 41.8686 134.313 44.7158 135.631C44.7215 135.634 44.7286 135.637 44.7344 135.641C45.2872 135.949 45.8729 136.2 46.4744 136.39C47.3429 136.663 48.0658 136.744 48.5929 136.804C49.0744 136.86 49.5586 136.89 50.0329 136.894L78.5929 135.606C79.0429 135.603 79.4901 135.579 79.9329 135.53C80.4915 135.47 81.9743 135.313 83.6072 134.597C85.4658 133.78 86.6086 132.627 87.4429 131.786L87.4529 131.776C88.6586 130.557 89.3758 129.423 89.7601 128.814C90.8701 127.056 91.4501 125.509 91.6972 124.743C92.0229 123.747 92.2572 122.716 92.3943 121.679C95.6115 103.323 98.8258 84.98 102.04 66.6371L106.103 43.45C106.354 42.3128 106.46 41.1642 106.419 40.0242C106.383 39.0371 106.237 38.0542 105.984 37.1071C105.77 36.3071 105.527 35.4057 104.896 34.3757C104.427 33.6128 103.837 32.93 103.14 32.3442C100.854 31.3128 98.5701 30.2814 96.2843 29.2514C94.5715 28.4785 92.8601 27.7057 91.1472 26.9328C91.4786 27.2742 91.7858 27.6514 92.0701 28.06C92.9629 29.3471 93.2586 30.5385 93.4743 31.4071C93.8301 32.8342 93.8301 34.0057 93.8301 34.78C93.8315 35.8957 93.7243 37.01 93.5115 38.0928C88.9886 63.8542 84.4629 89.6214 79.9372 115.39L79.6872 116.81C79.4815 117.957 79.1643 119.09 78.7429 120.18C77.7229 122.82 76.3443 124.606 75.6129 125.436C75.0258 126.103 73.6501 127.664 71.3515 128.876C70.2643 129.449 69.3058 129.769 68.6943 129.936C67.5572 130.249 66.3758 130.403 65.1786 130.394L36.9886 131.664C36.7144 131.683 36.4415 131.687 36.1701 131.677L36.1758 131.679Z" fill="black"/>
</g>
<g id="Group_3">
<path id="Vector_3" d="M88.8986 34.7501C89.0072 35.3158 89.1101 36.2187 88.9301 37.3287C84.2172 64.0601 79.5029 90.7944 74.7886 117.527C74.6715 117.997 74.4801 118.614 74.1615 119.302C73.6486 120.406 73.0558 121.159 72.7729 121.493C72.4344 121.896 71.9258 122.49 71.0886 123.062C69.9986 123.804 69.0029 124.063 68.7401 124.127C67.9744 124.314 67.3101 124.337 66.8458 124.317C51.4201 124.934 40.2429 125.372 37.9901 125.563C37.6215 125.593 36.4801 125.702 35.3729 125.089C34.2629 124.473 33.7258 123.429 33.5515 123.083C33.0686 122.114 33.0301 121.236 33.0001 120.622C32.9658 119.86 33.0529 119.226 33.1415 118.79C37.7429 92.2358 42.3458 65.6787 46.9458 39.1244C47.1572 38.1029 47.4944 37.3001 47.7729 36.7487C48.4572 35.3915 49.3058 34.5129 49.7515 34.0944C50.1186 33.7501 50.7272 33.1872 51.6829 32.7087C51.9286 32.5844 52.6586 32.2358 53.6829 32.0287C54.3101 31.9029 54.8544 31.8701 55.2686 31.8687C64.8272 31.4558 74.3886 31.0415 83.9472 30.6287C84.3401 30.5829 85.1401 30.5472 86.0458 30.9029C86.3086 31.0058 87.1101 31.3501 87.8029 32.1615C88.5729 33.0644 88.7558 34.0201 88.8972 34.7501H88.8986Z" fill="white"/>
<path id="Vector_4" d="M37.4415 125.874C36.8801 125.874 36.0472 125.789 35.2344 125.339C34.4344 124.896 33.7815 124.179 33.2958 123.21C32.7887 122.194 32.7444 121.264 32.7158 120.649V120.634C32.6872 119.996 32.7372 119.356 32.863 118.733C37.463 92.1858 42.0658 65.6301 46.6658 39.0758C46.8444 38.2144 47.1301 37.3915 47.5187 36.6201C48.033 35.5972 48.7387 34.6529 49.5572 33.8858C49.9015 33.5615 50.5444 32.9587 51.5558 32.4529C51.9058 32.2758 52.643 31.9472 53.6273 31.7487C54.1644 31.6415 54.7158 31.5858 55.2672 31.583L83.9244 30.3429C84.4515 30.2844 85.263 30.2872 86.1501 30.6372C86.5587 30.7972 87.3444 31.1844 88.0201 31.9772C88.8387 32.9372 89.0344 33.953 89.1772 34.6944V34.6972C89.3444 35.5744 89.3558 36.4758 89.2101 37.3758C84.4958 64.1115 79.7815 90.8444 75.0672 117.579C75.0672 117.584 75.0644 117.592 75.063 117.597C74.9087 118.217 74.6915 118.832 74.4172 119.423C73.9358 120.46 73.3744 121.222 72.9873 121.679C72.6701 122.057 72.1358 122.692 71.2472 123.299C70.2272 123.994 69.2787 124.29 68.8044 124.406C68.1572 124.563 67.4972 124.63 66.843 124.604L63.2458 124.749C49.7958 125.286 40.0772 125.674 38.0101 125.849H37.9844C37.8672 125.86 37.6772 125.876 37.4387 125.876L37.4415 125.874ZM84.443 30.8858C84.2701 30.8858 84.1144 30.8972 83.9801 30.9115C83.973 30.9115 83.9672 30.9115 83.9601 30.913L55.2815 32.153C54.7558 32.1558 54.2401 32.2072 53.7401 32.3072C52.823 32.4915 52.1387 32.7972 51.813 32.9615C50.8744 33.4315 50.2715 33.9972 49.9472 34.3015C49.1758 35.023 48.513 35.913 48.0272 36.8758C47.6615 37.603 47.3915 38.3787 47.2244 39.1815C42.6258 65.7272 38.0244 92.2829 33.4215 118.837C33.303 119.423 33.2572 120.016 33.2844 120.607C33.313 121.222 33.353 122.046 33.8058 122.953C34.2387 123.816 34.813 124.45 35.5101 124.837C36.5172 125.396 37.5501 125.31 37.9401 125.279H37.9658C40.0444 125.102 49.7687 124.713 63.2258 124.174L66.8344 124.03C66.8415 124.03 66.8501 124.03 66.8573 124.03C67.4615 124.054 68.073 123.993 68.6715 123.847C69.1087 123.742 69.983 123.467 70.9272 122.823C71.7515 122.26 72.253 121.663 72.553 121.307C72.9172 120.877 73.4473 120.159 73.9015 119.18C74.1587 118.624 74.363 118.049 74.5087 117.467C79.223 90.7372 83.9358 64.0072 88.6487 37.2787C88.783 36.4487 88.773 35.6144 88.6187 34.8029V34.8001C88.4801 34.083 88.3072 33.1901 87.5872 32.3458C86.9915 31.6472 86.3015 31.3072 85.943 31.1672C85.3872 30.9487 84.8644 30.8844 84.443 30.8844V30.8858Z" fill="black"/>
</g>
<g id="Group_4">
<path id="Vector_5" d="M93.2028 31.4771C92.9942 30.6371 92.7028 29.4657 91.8413 28.2242C91.5213 27.7642 90.5099 26.3514 88.6428 25.4885C88.6156 25.4742 88.5871 25.4628 88.5585 25.4499C88.3085 25.3371 88.0442 25.2357 87.7656 25.1471C86.3956 24.7142 85.1956 24.7699 84.4913 24.8599C75.2085 25.2828 65.9242 25.7042 56.6413 26.1285C55.5142 26.1028 53.6342 26.2057 51.5542 27.0857C49.1171 28.1171 47.6756 29.6757 46.7128 30.7399C46.3028 31.1942 44.8513 32.8514 43.7242 35.4485C43.1499 36.7699 42.8256 37.9528 42.6328 38.8557C40.0856 52.4771 37.6228 66.1157 35.2456 79.7685C32.9299 93.0585 30.6985 106.361 28.5456 119.674C28.4085 120.573 28.2971 121.92 28.5185 123.523C28.6913 124.766 28.9013 126.284 29.9742 127.876C30.2656 128.307 31.0056 129.379 32.3699 130.233H32.3713C32.9499 130.501 33.5271 130.769 34.1056 131.036C35.3313 131.424 36.3913 131.42 36.9813 131.38C46.3799 130.957 55.7799 130.533 65.1785 130.109C66.0371 130.116 67.2428 130.04 68.6242 129.66C68.9956 129.559 70.0113 129.261 71.2242 128.623C73.4313 127.46 74.7656 125.973 75.4042 125.247C75.7956 124.803 77.3628 122.974 78.4828 120.077C78.9913 118.764 79.2613 117.606 79.4128 116.76C84.0213 90.5185 88.6299 64.2785 93.2385 38.0371C93.3999 37.2171 93.5542 36.1042 93.5528 34.7799C93.5528 33.9342 93.5428 32.8342 93.2042 31.4757L93.2028 31.4771ZM32.9999 120.62C32.9656 119.859 33.0528 119.224 33.1413 118.789C37.7428 92.2342 42.3456 65.6771 46.9456 39.1228C47.1571 38.1014 47.4942 37.2985 47.7728 36.7471C48.4571 35.3899 49.3056 34.5114 49.7513 34.0928C50.1185 33.7485 50.7271 33.1857 51.6828 32.7071C51.9285 32.5828 52.6585 32.2342 53.6828 32.0271C54.3099 31.9014 54.8542 31.8685 55.2685 31.8671C64.8271 31.4542 74.3885 31.0399 83.9471 30.6271C84.3399 30.5814 85.1399 30.5457 86.0456 30.9014C86.3085 31.0042 87.1099 31.3485 87.8028 32.1599C88.5728 33.0628 88.7556 34.0185 88.8971 34.7485C89.0056 35.3142 89.1085 36.2171 88.9285 37.3271C84.2156 64.0585 79.5013 90.7928 74.7871 117.526C74.6699 117.996 74.4785 118.613 74.1599 119.3C73.6471 120.404 73.0542 121.157 72.7713 121.491C72.4328 121.894 71.9242 122.489 71.0871 123.06C69.9971 123.803 69.0013 124.061 68.7385 124.126C67.9728 124.313 67.3085 124.336 66.8442 124.316C51.4185 124.933 40.2413 125.37 37.9885 125.561C37.6199 125.591 36.4785 125.7 35.3713 125.087C34.2613 124.471 33.7242 123.427 33.5499 123.081C33.0671 122.113 33.0285 121.234 32.9985 120.62H32.9999Z" fill="#EBECEE"/>
<path id="Vector_6" d="M36.4529 131.683C35.6257 131.683 34.8071 131.557 34.0186 131.307C34.0071 131.303 33.9957 131.299 33.9843 131.294L32.25 130.491C32.2357 130.484 32.2214 130.476 32.2071 130.467C30.7671 129.566 29.9914 128.413 29.7357 128.033C28.6286 126.391 28.4114 124.826 28.2357 123.569C28.0543 122.256 28.0643 120.933 28.2629 119.63C30.4229 106.271 32.6771 92.8429 34.9643 79.7172C37.34 66.07 39.8257 52.3043 42.3514 38.8014C42.6057 37.6072 42.9786 36.4415 43.4614 35.3329C44.4957 32.9515 45.8086 31.3129 46.5 30.5472C47.3957 29.5557 48.8957 27.8986 51.4429 26.8215C53.0743 26.1315 54.8229 25.8015 56.6371 25.8415C65.9129 25.4186 75.19 24.9957 84.4657 24.5743C85.6243 24.4286 86.7629 24.53 87.8514 24.8743C88.1257 24.9615 88.4043 25.0672 88.6757 25.1886C88.7043 25.2 88.7371 25.2157 88.7714 25.2329C90.0786 25.8372 91.1929 26.79 92.0757 28.06C92.9686 29.3472 93.2643 30.5386 93.48 31.4072C93.8357 32.8343 93.8357 34.0057 93.8371 34.78C93.8386 35.8957 93.7314 37.01 93.5186 38.0929C88.9957 63.8543 84.47 89.6214 79.9443 115.39L79.6943 116.81C79.4886 117.957 79.1714 119.09 78.75 120.18C77.73 122.82 76.3514 124.606 75.62 125.436C75.0329 126.103 73.6571 127.664 71.3586 128.876C70.2714 129.449 69.3129 129.769 68.7014 129.936C67.5643 130.249 66.3871 130.404 65.1843 130.394L36.9943 131.664C36.8129 131.676 36.6329 131.681 36.4529 131.681V131.683ZM34.2086 130.769C35.0957 131.047 36.0229 131.159 36.9629 131.096L65.1657 129.824C65.1657 129.824 65.1757 129.824 65.1814 129.824C66.3286 129.837 67.46 129.686 68.55 129.386C69.1343 129.226 70.05 128.92 71.0914 128.371C73.2971 127.21 74.6229 125.703 75.19 125.06C75.7586 124.414 77.1914 122.629 78.2157 119.976C78.6243 118.92 78.9314 117.821 79.1314 116.711L79.3814 115.293C83.9071 89.5257 88.4329 63.7572 92.9571 37.99C93.1643 36.9386 93.2686 35.8615 93.2671 34.7829C93.2671 33.9915 93.2671 32.9072 92.9271 31.5472C92.7214 30.72 92.44 29.5886 91.6071 28.3872C90.7829 27.2015 89.7457 26.3129 88.5243 25.7486C88.4943 25.7343 88.4729 25.7243 88.45 25.7143C88.1914 25.5986 87.9343 25.5 87.68 25.42C86.6671 25.1 85.6071 25.0072 84.5271 25.1443C84.52 25.1443 84.5114 25.1457 84.5043 25.1457C75.2214 25.5686 65.9371 25.99 56.6543 26.4143C56.6486 26.4143 56.6414 26.4143 56.6343 26.4143C54.8971 26.3743 53.2257 26.6886 51.6657 27.3486C49.2357 28.3772 47.7886 29.9757 46.9243 30.9315C46.2571 31.6715 44.9871 33.2557 43.9857 35.5615C43.5186 36.6357 43.1571 37.7629 42.9129 38.9143C40.3886 52.4086 37.9043 66.1729 35.5286 79.8172C33.2414 92.94 30.9871 106.366 28.8286 119.72C28.6386 120.966 28.63 122.233 28.8029 123.484C28.9714 124.691 29.18 126.184 30.2114 127.716C30.45 128.069 31.1714 129.141 32.5086 129.983L34.2086 130.77V130.769ZM37.4414 125.874C36.88 125.874 36.0471 125.789 35.2343 125.339C34.4343 124.896 33.7814 124.179 33.2957 123.21C32.7886 122.194 32.7443 121.264 32.7157 120.649V120.634C32.6871 119.996 32.7371 119.356 32.8629 118.733C37.4629 92.1857 42.0657 65.63 46.6657 39.0757C46.8443 38.2143 47.13 37.3915 47.5186 36.62C48.0329 35.5972 48.7386 34.6529 49.5571 33.8857C49.9014 33.5615 50.5443 32.9586 51.5557 32.4529C51.9057 32.2757 52.6429 31.9472 53.6271 31.7486C54.1643 31.6415 54.7157 31.5857 55.2671 31.5829L83.9243 30.3429C84.4514 30.2843 85.2629 30.2872 86.15 30.6372C86.5586 30.7972 87.3443 31.1829 88.02 31.9772C88.8386 32.9372 89.0343 33.9529 89.1771 34.6943C89.3457 35.5743 89.3557 36.4757 89.21 37.3757C84.4957 64.1115 79.7814 90.8443 75.0671 117.579C75.0671 117.584 75.0643 117.591 75.0629 117.597C74.9086 118.217 74.6914 118.831 74.4171 119.423C73.9357 120.46 73.3743 121.221 72.9871 121.679C72.67 122.057 72.1357 122.691 71.2471 123.299C70.2271 123.994 69.2786 124.29 68.8043 124.406C68.1571 124.563 67.4971 124.63 66.8429 124.604L63.2457 124.749C49.7957 125.286 40.0771 125.674 38.01 125.849H37.9843C37.8671 125.86 37.6771 125.876 37.4386 125.876L37.4414 125.874ZM33.2857 120.609V120.621C33.3143 121.223 33.3529 122.047 33.8057 122.954C34.2386 123.817 34.8129 124.451 35.51 124.839C36.5171 125.396 37.55 125.311 37.94 125.28H37.9657C40.0443 125.103 49.7686 124.714 63.2257 124.176L66.8343 124.031C66.8414 124.031 66.85 124.031 66.8571 124.031C67.4614 124.056 68.0729 123.994 68.6714 123.849C69.1086 123.743 69.9829 123.469 70.9271 122.824C71.7514 122.261 72.2529 121.664 72.5529 121.309C72.9171 120.879 73.4471 120.16 73.9014 119.181C74.1586 118.626 74.3629 118.05 74.5086 117.469C79.2229 90.7386 83.9357 64.0086 88.6486 37.28C88.7829 36.45 88.7729 35.6157 88.6186 34.8043C88.48 34.0843 88.3071 33.1915 87.5871 32.3472C86.9914 31.6486 86.3014 31.3086 85.9429 31.1686C85.1586 30.86 84.4429 30.8586 83.98 30.9115C83.9729 30.9115 83.9671 30.9115 83.96 30.9129L55.2814 32.1529C54.7557 32.1557 54.24 32.2072 53.74 32.3072C52.8229 32.4915 52.1386 32.7972 51.8129 32.9615C50.8743 33.4315 50.2714 33.9972 49.9471 34.3015C49.1757 35.0229 48.5129 35.9129 48.0271 36.8757C47.6614 37.6029 47.3914 38.3786 47.2243 39.1814C42.6257 65.7272 38.0243 92.2829 33.4214 118.837C33.3029 119.423 33.2571 120.016 33.2843 120.607L33.2857 120.609Z" fill="black"/>
</g>
<g id="Group_5">
<path id="Vector_7" d="M88.8986 34.7501C89.0072 35.3158 89.1101 36.2187 88.9301 37.3287C84.2172 64.0601 79.5029 90.7944 74.7886 117.527C74.6715 117.997 74.4801 118.614 74.1615 119.302C73.6486 120.406 73.0558 121.159 72.7729 121.493C72.4344 121.896 71.9258 122.49 71.0886 123.062C69.9986 123.804 69.0029 124.063 68.7401 124.127C67.9744 124.314 67.3101 124.337 66.8458 124.317C51.4201 124.934 40.2429 125.372 37.9901 125.563C37.6215 125.593 36.4801 125.702 35.3729 125.089C34.2629 124.473 33.7258 123.429 33.5515 123.083C33.0686 122.114 33.0301 121.236 33.0001 120.622C32.9658 119.86 33.0529 119.226 33.1415 118.79C37.7429 92.2358 42.3458 65.6787 46.9458 39.1244C47.1572 38.1029 47.4944 37.3001 47.7729 36.7487C48.4572 35.3915 49.3058 34.5129 49.7515 34.0944C50.1186 33.7501 50.7272 33.1872 51.6829 32.7087C51.9286 32.5844 52.6586 32.2358 53.6829 32.0287C54.3101 31.9029 54.8544 31.8701 55.2686 31.8687C64.8272 31.4558 74.3886 31.0415 83.9472 30.6287C84.3401 30.5829 85.1401 30.5472 86.0458 30.9029C86.3086 31.0058 87.1101 31.3501 87.8029 32.1615C88.5729 33.0644 88.7558 34.0201 88.8972 34.7501H88.8986Z" fill="white"/>
<path id="Vector_8" d="M37.4415 125.874C36.8801 125.874 36.0472 125.789 35.2344 125.339C34.4344 124.896 33.7815 124.179 33.2958 123.21C32.7887 122.194 32.7444 121.264 32.7158 120.649V120.634C32.6872 119.996 32.7372 119.356 32.863 118.733C37.463 92.1858 42.0658 65.6301 46.6658 39.0758C46.8444 38.2144 47.1301 37.3915 47.5187 36.6201C48.033 35.5972 48.7387 34.6529 49.5572 33.8858C49.9015 33.5615 50.5444 32.9587 51.5558 32.4529C51.9058 32.2758 52.643 31.9472 53.6273 31.7487C54.1644 31.6415 54.7158 31.5858 55.2672 31.583L83.9244 30.3429C84.4515 30.2844 85.263 30.2872 86.1501 30.6372C86.5587 30.7972 87.3444 31.1844 88.0201 31.9772C88.8387 32.9372 89.0344 33.953 89.1772 34.6944V34.6972C89.3444 35.5744 89.3558 36.4758 89.2101 37.3758C84.4958 64.1115 79.7815 90.8444 75.0672 117.579C75.0672 117.584 75.0644 117.592 75.063 117.597C74.9087 118.217 74.6915 118.832 74.4172 119.423C73.9358 120.46 73.3744 121.222 72.9873 121.679C72.6701 122.057 72.1358 122.692 71.2472 123.299C70.2272 123.994 69.2787 124.29 68.8044 124.406C68.1572 124.563 67.4972 124.63 66.843 124.604L63.2458 124.749C49.7958 125.286 40.0772 125.674 38.0101 125.849H37.9844C37.8672 125.86 37.6772 125.876 37.4387 125.876L37.4415 125.874ZM84.443 30.8858C84.2701 30.8858 84.1144 30.8972 83.9801 30.9115C83.973 30.9115 83.9672 30.9115 83.9601 30.913L55.2815 32.153C54.7558 32.1558 54.2401 32.2072 53.7401 32.3072C52.823 32.4915 52.1387 32.7972 51.813 32.9615C50.8744 33.4315 50.2715 33.9972 49.9472 34.3015C49.1758 35.023 48.513 35.913 48.0272 36.8758C47.6615 37.603 47.3915 38.3787 47.2244 39.1815C42.6258 65.7272 38.0244 92.2829 33.4215 118.837C33.303 119.423 33.2572 120.016 33.2844 120.607C33.313 121.222 33.353 122.046 33.8058 122.953C34.2387 123.816 34.813 124.45 35.5101 124.837C36.5172 125.396 37.5501 125.31 37.9401 125.279H37.9658C40.0444 125.102 49.7687 124.713 63.2258 124.174L66.8344 124.03C66.8415 124.03 66.8501 124.03 66.8573 124.03C67.4615 124.054 68.073 123.993 68.6715 123.847C69.1087 123.742 69.983 123.467 70.9272 122.823C71.7515 122.26 72.253 121.663 72.553 121.307C72.9172 120.877 73.4473 120.159 73.9015 119.18C74.1587 118.624 74.363 118.049 74.5087 117.467C79.223 90.7372 83.9358 64.0072 88.6487 37.2787C88.783 36.4487 88.773 35.6144 88.6187 34.8029V34.8001C88.4801 34.083 88.3072 33.1901 87.5872 32.3458C86.9915 31.6472 86.3015 31.3072 85.943 31.1672C85.3872 30.9487 84.8644 30.8844 84.443 30.8844V30.8858Z" fill="black"/>
</g>
<g id="Group_6">
<path id="Vector_9" d="M48.8628 88.8042C55.5971 82.0856 62.3328 75.3685 69.0671 68.6499L48.8628 88.8042Z" fill="white"/>
<path id="Vector_10" d="M48.8628 89.0885C48.79 89.0885 48.7157 89.0599 48.66 89.0042C48.5486 88.8928 48.5486 88.7113 48.66 88.5999L68.8643 68.4456C68.9757 68.3342 69.1571 68.3342 69.2686 68.4456C69.38 68.5571 69.38 68.7385 69.2686 68.8499L49.0643 89.0042C49.0086 89.0599 48.9357 89.0871 48.8628 89.0871V89.0885Z" fill="black"/>
</g>
<g id="Group_7">
<path id="Vector_11" d="M48.8413 76.4928C58.3056 67.0814 67.7685 57.67 77.2327 48.2585L48.8413 76.4928Z" fill="white"/>
<path id="Vector_12" d="M48.8414 76.7786C48.7685 76.7786 48.6942 76.75 48.6385 76.6943C48.5271 76.5829 48.5271 76.4015 48.6385 76.29L77.0299 48.0557C77.1414 47.9443 77.3228 47.9443 77.4342 48.0557C77.5456 48.1672 77.5456 48.3486 77.4342 48.46L49.0428 76.6943C48.9871 76.75 48.9142 76.7772 48.8414 76.7772V76.7786Z" fill="black"/>
</g>
<g id="Group_8">
<path id="Vector_13" d="M65.7614 133.223C63.7871 134.51 61.8143 135.797 59.8385 137.081L59.1528 133.781C59.4814 133.794 62.2671 133.904 63.6071 133.839C63.7814 133.83 64.0571 133.813 64.4 133.74C64.6 133.699 65.15 133.567 65.76 133.223H65.7614Z" fill="#FF444F"/>
<path id="Vector_14" d="M59.8386 137.367C59.8015 137.367 59.7644 137.36 59.7287 137.346C59.6415 137.31 59.5772 137.233 59.5586 137.14L58.8729 133.84C58.8558 133.754 58.8772 133.664 58.9344 133.597C58.9915 133.53 59.0772 133.493 59.1644 133.497C59.2886 133.503 62.2258 133.621 63.5929 133.554C63.7358 133.547 64.0029 133.533 64.3401 133.461C64.5886 133.409 65.0844 133.277 65.6201 132.976C65.7544 132.9 65.9244 132.944 66.0044 133.076C66.0844 133.207 66.0458 133.379 65.9158 133.463C63.9415 134.751 61.9672 136.037 59.9929 137.323C59.9458 137.353 59.8915 137.369 59.8372 137.369L59.8386 137.367ZM59.5086 134.081L60.0344 136.614C61.3172 135.779 62.6001 134.943 63.8844 134.107C63.7744 134.117 63.6858 134.121 63.6244 134.124C62.4929 134.18 60.3829 134.113 59.5101 134.081H59.5086Z" fill="black"/>
</g>
<g id="Group_9">
<path id="Vector_15" d="M52.1128 133.607L45.8014 137.579C38.18 137.394 30.5557 137.207 22.9343 137.023C22.6214 137.022 22.1985 137 21.7 136.919C21.46 136.88 20.5128 136.714 19.3628 136.157C19.0143 135.989 17.6743 135.313 16.3643 133.899C15.1428 132.577 14.5757 131.292 14.2943 130.642C13.9385 129.812 13.7314 129.077 13.6057 128.53C11.8514 120.409 10.1 112.287 8.34711 104.164C8.27711 103.862 8.2014 103.463 8.16283 102.99C8.08425 102.027 8.19997 101.293 8.23283 101.096C8.31854 100.594 8.46854 99.753 9.02568 98.833C9.41283 98.1902 9.85854 97.7416 10.1843 97.4616C12.3343 96.1645 14.4871 94.8687 16.6357 93.5745C16.1957 93.943 15.5628 94.5859 15.11 95.5416C14.6643 96.4845 14.59 97.3102 14.5485 97.833C14.4828 98.653 14.5657 99.3402 14.6543 99.8173C16.3371 107.632 18.02 115.446 19.7028 123.26C19.8128 124.04 20.0328 125.08 20.4985 126.242C21.03 127.566 21.6514 128.47 21.8457 128.743C23.0157 130.397 24.3014 131.297 24.5828 131.492C25.2328 131.936 26.11 132.523 27.4157 132.806C28.1685 132.97 28.8171 132.979 29.2714 132.954C36.8843 133.17 44.4971 133.389 52.11 133.607H52.1128Z" fill="#FF444F"/>
<path id="Vector_16" d="M45.8015 137.864C45.8015 137.864 45.7972 137.864 45.7943 137.864L22.9272 137.309C22.5086 137.307 22.0786 137.27 21.6543 137.202C21.2086 137.129 20.3029 136.932 19.2386 136.414C18.7315 136.17 17.4143 135.453 16.1558 134.093C14.8829 132.716 14.31 131.393 14.0343 130.756C13.7343 130.057 13.4972 129.33 13.33 128.594C11.6058 120.612 9.88433 112.632 8.1629 104.65L8.07147 104.226C7.97862 103.829 7.91433 103.42 7.88147 103.016C7.82719 102.354 7.85433 101.656 7.95433 101.05C8.03719 100.566 8.19004 99.6673 8.78576 98.6859C9.11147 98.1444 9.52147 97.6601 10.0015 97.2459C10.0143 97.2359 10.0272 97.2259 10.04 97.2173C11.2672 96.4773 12.4958 95.7373 13.7229 94.9973L16.4915 93.3287C16.6186 93.2516 16.7843 93.2859 16.8715 93.4073C16.9586 93.5287 16.9372 93.6973 16.8229 93.793C16.3958 94.1502 15.7986 94.7644 15.3729 95.663C14.94 96.5773 14.8758 97.3773 14.8372 97.8559C14.7858 98.4873 14.82 99.1301 14.9386 99.7644L19.9858 123.2C19.9858 123.2 19.9886 123.213 19.99 123.22C20.13 124.214 20.3915 125.196 20.7686 126.134C21.2443 127.317 21.7958 128.173 22.0829 128.577C23.0915 130.003 24.1858 130.867 24.7486 131.256C25.3258 131.65 26.2015 132.249 27.48 132.527C28.0615 132.653 28.66 132.702 29.26 132.67C29.2672 132.67 29.2758 132.67 29.2829 132.67C36.2772 132.869 43.27 133.069 50.2643 133.269L52.1215 133.322C52.2472 133.326 52.3558 133.41 52.3886 133.532C52.4215 133.653 52.3715 133.782 52.2658 133.849L45.9543 137.82C45.9086 137.849 45.8558 137.864 45.8015 137.864ZM10.3572 97.6944C9.93004 98.0659 9.56576 98.4987 9.27433 98.9816C8.73576 99.8702 8.59433 100.7 8.51719 101.146C8.42433 101.706 8.40004 102.354 8.45004 102.97C8.48147 103.346 8.54147 103.727 8.62862 104.102L8.72147 104.53C10.4429 112.51 12.1643 120.492 13.8886 128.47C14.0486 129.169 14.2743 129.863 14.56 130.529C14.8229 131.136 15.37 132.399 16.5758 133.704C17.7686 134.993 19.01 135.669 19.4886 135.9C20.4872 136.384 21.3329 136.57 21.7472 136.637C22.1429 136.702 22.5429 136.736 22.9372 136.737L45.7243 137.292L51.1672 133.866L50.2486 133.84C43.2586 133.64 36.2686 133.44 29.2786 133.242C28.6315 133.274 27.9858 133.223 27.3586 133.086C25.9715 132.784 25.04 132.149 24.4258 131.727C23.8315 131.317 22.6772 130.406 21.6172 128.907C21.3158 128.483 20.7358 127.584 20.2386 126.347C19.8458 125.367 19.5729 124.346 19.4258 123.309L14.3786 99.8759C14.25 99.1844 14.2129 98.4916 14.2686 97.8087C14.3072 97.3259 14.38 96.4259 14.8572 95.4173C14.9686 95.1816 15.0915 94.963 15.2186 94.763L14.02 95.4859C12.8 96.2216 11.5786 96.9573 10.3586 97.693L10.3572 97.6944Z" fill="black"/>
</g>
<g id="Group_10">
<path id="Vector_17" d="M60.8215 141.807C58.6858 143.136 56.5501 144.463 54.4158 145.79C51.5444 143.053 48.6744 140.317 45.8015 137.579L52.1129 133.607C55.0158 136.34 57.9201 139.074 60.8215 141.807Z" fill="#FF444F"/>
<path id="Vector_18" d="M54.4158 146.076C54.3444 146.076 54.273 146.049 54.2187 145.997C51.3473 143.26 48.4773 140.524 45.6044 137.786C45.5401 137.724 45.5087 137.639 45.5173 137.55C45.5258 137.463 45.5744 137.383 45.6487 137.337L51.9601 133.366C52.0701 133.296 52.213 133.31 52.3087 133.4C55.2115 136.133 58.1158 138.867 61.0173 141.6C61.0815 141.661 61.1144 141.749 61.1058 141.836C61.0973 141.924 61.0473 142.003 60.973 142.05C58.913 143.331 56.853 144.611 54.7915 145.893L54.5658 146.033C54.5187 146.061 54.4673 146.076 54.4158 146.076ZM46.2644 137.626C48.9944 140.229 51.723 142.83 54.453 145.431L54.4901 145.409C56.4458 144.194 58.4001 142.979 60.3558 141.763C57.5973 139.164 54.8387 136.566 52.0787 133.969L46.2644 137.627V137.626Z" fill="black"/>
</g>
<g id="Group_11">
<path id="Vector_19" d="M68.3901 129.483C68.3059 129.853 68.1187 130.651 67.5416 131.519C67.3544 131.801 66.9673 132.369 66.2959 132.876C66.2944 132.877 66.293 132.879 66.2916 132.879C66.1159 132.993 65.9387 133.109 65.763 133.223C65.153 133.567 64.603 133.697 64.403 133.74C64.0587 133.814 63.7844 133.83 63.6101 133.839C62.2701 133.904 59.4844 133.794 59.1558 133.781L59.8416 137.081C60.1687 138.657 60.4973 140.233 60.8244 141.807C57.923 139.074 55.0187 136.34 52.1159 133.607C44.503 133.389 36.8901 133.171 29.2773 132.954C28.823 132.979 28.1744 132.97 27.4216 132.806C26.1159 132.521 25.2401 131.936 24.5887 131.491C24.3073 131.297 23.023 130.397 21.8516 128.743C21.6573 128.47 21.0373 127.564 20.5044 126.241C20.0387 125.08 19.8173 124.04 19.7087 123.26C18.0259 115.446 16.343 107.631 14.6601 99.8171C14.5716 99.3414 14.4887 98.6542 14.5544 97.8328C14.5959 97.3099 14.6701 96.4828 15.1159 95.5414C15.5687 94.5857 16.2001 93.9428 16.6416 93.5742C16.643 93.5728 16.6444 93.5714 16.6459 93.5699C17.083 93.3071 17.5201 93.0442 17.9573 92.7799C17.9587 92.7799 17.9601 92.7785 17.9601 92.7785C18.5059 92.5514 18.9544 92.4671 19.1559 92.4342C19.5301 92.3742 19.8501 92.3657 20.083 92.3714L54.3416 93.2771C54.783 93.3057 55.3744 93.3771 56.0501 93.5642C57.2073 93.8828 58.013 94.3714 58.3316 94.5771C59.0587 95.0471 59.5159 95.5099 59.9373 95.9399C60.123 96.1299 60.7544 96.7828 61.4216 97.7742C61.7187 98.2171 62.0959 98.7842 62.4516 99.6042C62.7673 100.334 62.9173 100.929 63.0716 101.536C63.2416 102.204 63.3444 102.779 63.4116 103.204C65.0616 110.823 66.7116 118.443 68.3616 126.061C68.4301 126.407 68.5059 126.887 68.5316 127.46C68.553 127.964 68.5787 128.646 68.3901 129.483Z" fill="#FF7E88"/>
<path id="Vector_20" d="M60.8216 142.094C60.7501 142.094 60.6801 142.067 60.6259 142.017C57.7502 139.309 54.873 136.6 51.9959 133.891L50.2473 133.841C43.2573 133.641 36.2673 133.441 29.2773 133.243C28.6302 133.276 27.9844 133.223 27.3573 133.087C25.9702 132.786 25.0387 132.15 24.4244 131.729C23.8302 131.319 22.6759 130.407 21.6159 128.909C21.3144 128.484 20.7344 127.586 20.2373 126.349C19.8444 125.369 19.5716 124.347 19.4244 123.31L14.3773 99.8772C14.2487 99.1858 14.2116 98.4929 14.2673 97.81C14.3059 97.3272 14.3787 96.4272 14.8559 95.4186C15.3244 94.4286 15.9816 93.7529 16.4516 93.3586C16.4659 93.3458 16.483 93.3329 16.4973 93.3243C16.9344 93.0615 17.3716 92.7986 17.8087 92.5343C17.8187 92.5286 17.8287 92.5229 17.8402 92.5186C17.843 92.5172 17.8473 92.5158 17.8502 92.5143C18.2602 92.3443 18.683 92.2215 19.1102 92.1515C19.4387 92.0986 19.7673 92.0772 20.0916 92.0843L54.3502 92.9901C54.9587 93.0286 55.553 93.1286 56.1273 93.2872C56.9673 93.5186 57.7844 93.8815 58.4873 94.3358C59.2473 94.8272 59.723 95.3115 60.143 95.7386C60.4459 96.0458 61.0444 96.6986 61.6601 97.6143C61.9487 98.0443 62.3444 98.6329 62.7144 99.4901C63.0359 100.236 63.1944 100.853 63.3459 101.45L63.3502 101.464C63.4916 102.02 63.603 102.571 63.6944 103.15L68.643 125.999C68.7387 126.477 68.7973 126.963 68.8187 127.446C68.8387 127.93 68.8687 128.659 68.6702 129.544C68.5873 129.906 68.3959 130.751 67.7801 131.676C67.6059 131.939 67.1959 132.554 66.4687 133.103C66.4687 133.103 66.4544 133.113 66.4473 133.117L65.9187 133.461C65.9187 133.461 65.9087 133.467 65.903 133.471C65.3016 133.811 64.7416 133.96 64.4616 134.019C64.0802 134.1 63.7716 134.116 63.6244 134.123C62.493 134.179 60.383 134.111 59.5102 134.08L61.1044 141.749C61.1301 141.87 61.073 141.996 60.9644 142.056C60.9202 142.08 60.873 142.091 60.8244 142.091L60.8216 142.094ZM29.2744 132.67C29.2744 132.67 29.2802 132.67 29.283 132.67C36.2773 132.869 43.2702 133.069 50.2644 133.269L52.1216 133.321C52.1916 133.323 52.2587 133.351 52.3087 133.399C54.9916 135.924 57.6744 138.451 60.3573 140.977L58.8744 133.839C58.8573 133.753 58.8787 133.663 58.9359 133.596C58.993 133.529 59.0787 133.491 59.1659 133.496C59.2901 133.5 62.2287 133.62 63.5944 133.553C63.7373 133.546 64.0044 133.531 64.3416 133.46C64.5887 133.409 65.0816 133.277 65.613 132.979L66.1316 132.641C66.7759 132.153 67.1444 131.599 67.303 131.361C67.8601 130.524 68.0359 129.75 68.1116 129.42C68.293 128.61 68.2659 127.953 68.2459 127.473C68.2259 127.02 68.1702 126.563 68.0816 126.119L63.133 103.266C63.133 103.266 63.1301 103.254 63.1301 103.249C63.043 102.684 62.933 102.147 62.7959 101.607L62.793 101.593C62.6401 100.991 62.4944 100.423 62.1901 99.7186C61.8401 98.9101 61.4616 98.3458 61.1859 97.9343C60.5959 97.0572 60.023 96.4343 59.7344 96.14C59.3359 95.7343 58.883 95.2729 58.1759 94.8172C57.5216 94.3943 56.7587 94.0558 55.9744 93.8401C55.4373 93.6915 54.8816 93.5986 54.323 93.5629L20.0759 92.6572C19.7873 92.65 19.4944 92.6701 19.2016 92.7172C18.8259 92.7786 18.4502 92.8858 18.0873 93.0358C17.663 93.2929 17.2387 93.5472 16.8144 93.8029C16.3887 94.1601 15.7959 94.7729 15.373 95.6658C14.9402 96.58 14.8759 97.3801 14.8373 97.8586C14.7859 98.4901 14.8202 99.1329 14.9387 99.7672L19.9859 123.203C19.9859 123.203 19.9887 123.216 19.9902 123.223C20.1302 124.217 20.3916 125.199 20.7687 126.137C21.2444 127.32 21.7959 128.176 22.083 128.58C23.0916 130.006 24.1859 130.87 24.7487 131.259C25.3259 131.653 26.2016 132.251 27.4802 132.53C28.0616 132.656 28.6602 132.704 29.2602 132.673C29.2659 132.673 29.2702 132.673 29.2759 132.673L29.2744 132.67Z" fill="black"/>
</g>
<path id="Vector_21" d="M54.3086 110.477C54.1786 110.477 54.0614 110.389 54.0314 110.257L52.5886 104.19C52.5514 104.036 52.6471 103.883 52.8 103.846C52.9529 103.809 53.1071 103.904 53.1443 104.057L54.5871 110.124C54.6243 110.279 54.5286 110.431 54.3757 110.469C54.3529 110.474 54.3314 110.476 54.31 110.476L54.3086 110.477Z" fill="black"/>
<path id="Vector_22" d="M42.903 119.67C42.8301 119.67 42.7601 119.643 42.7073 119.591L32.8416 110.279L27.0173 119.103C26.9301 119.234 26.753 119.271 26.6216 119.184C26.4901 119.097 26.453 118.92 26.5401 118.789L32.5516 109.68C32.5987 109.61 32.673 109.563 32.7573 109.554C32.8416 109.544 32.9244 109.573 32.9858 109.63L42.8501 118.943L52.3516 104.39L47.6144 104.199C47.4573 104.193 47.3344 104.059 47.3401 103.901C47.3458 103.744 47.4801 103.621 47.6373 103.627L52.8773 103.84C52.9801 103.844 53.073 103.903 53.1201 103.994C53.1673 104.086 53.1616 104.196 53.1058 104.281L43.1416 119.543C43.0958 119.614 43.0201 119.66 42.9358 119.67C42.9244 119.67 42.913 119.671 42.9016 119.671L42.903 119.67Z" fill="black"/>
</g>
</g>
</g>
</g>
</svg>
