<svg width="115" height="123" viewBox="0 0 115 123" fill="none" xmlns="http://www.w3.org/2000/svg">
<g id="illustration / deriv / light /  ic-poa-lock" clip-path="url(#clip0_1184_364)">
<g id="Group">
<path id="Vector" d="M92 118H10C4.477 118 0 113.523 0 108V10C0 4.477 4.477 0 10 0H80.37L102 21.64V108C102 113.523 97.523 118 92 118Z" fill="#E0F0F0"/>
<path id="Vector_2" d="M85.8801 37.6499H16.1201C14.4633 37.6499 13.1201 38.993 13.1201 40.6499V41.3299C13.1201 42.9868 14.4633 44.3299 16.1201 44.3299H85.8801C87.537 44.3299 88.8801 42.9868 88.8801 41.3299V40.6499C88.8801 38.993 87.537 37.6499 85.8801 37.6499Z" fill="white"/>
<path id="Vector_3" d="M85.8801 51.98H16.1201C14.4633 51.98 13.1201 53.3231 13.1201 54.98V55.66C13.1201 57.3168 14.4633 58.66 16.1201 58.66H85.8801C87.537 58.66 88.8801 57.3168 88.8801 55.66V54.98C88.8801 53.3231 87.537 51.98 85.8801 51.98Z" fill="white"/>
<path id="Vector_4" d="M51.2301 68.3H16.1201C14.4633 68.3 13.1201 69.6432 13.1201 71.3V71.98C13.1201 73.6369 14.4633 74.98 16.1201 74.98H51.2301C52.887 74.98 54.2301 73.6369 54.2301 71.98V71.3C54.2301 69.6432 52.887 68.3 51.2301 68.3Z" fill="white"/>
<path id="Vector_5" d="M102 21.65H90.3799C84.8569 21.65 80.3799 17.173 80.3799 11.65V0L102 21.65Z" fill="#BBCCCE"/>
<path id="Vector_6" d="M115 93.41H75.4898C75.4884 92.9036 75.5871 92.4019 75.78 91.9336C75.9728 91.4654 76.2562 91.0398 76.6139 90.6812C76.9715 90.3227 77.3964 90.0382 77.8641 89.8441C78.3319 89.65 78.8333 89.55 79.3398 89.55H111.15C112.167 89.5527 113.141 89.9564 113.862 90.6735C114.583 91.3906 114.992 92.3632 115 93.38V93.41ZM75.4898 119.11H115C114.997 120.13 114.591 121.108 113.869 121.829C113.148 122.551 112.17 122.957 111.15 122.96H79.3398C78.3187 122.96 77.3394 122.554 76.6174 121.832C75.8954 121.11 75.4898 120.131 75.4898 119.11ZM75.4898 93.41H115V119.1H75.4898V93.41Z" fill="#FF444F"/>
<path id="Vector_7" d="M98.6701 112.81L96.7401 105.14C97.468 104.815 98.0678 104.258 98.4459 103.556C98.824 102.854 98.9591 102.047 98.8301 101.26C98.6944 100.35 98.2181 99.5254 97.4977 98.9531C96.7772 98.3809 95.8663 98.1035 94.9492 98.1772C94.0321 98.2509 93.1771 98.6701 92.5573 99.35C91.9374 100.03 91.5989 100.92 91.6101 101.84C91.6108 102.538 91.8132 103.22 92.1929 103.806C92.5725 104.391 93.1133 104.855 93.7501 105.14L91.8201 112.81C91.7744 112.987 91.7698 113.172 91.8066 113.352C91.8435 113.531 91.9208 113.699 92.0328 113.844C92.1447 113.989 92.2883 114.106 92.4525 114.187C92.6167 114.268 92.7972 114.31 92.9801 114.31H97.5001C97.6833 114.309 97.8639 114.267 98.0284 114.186C98.1928 114.106 98.3368 113.989 98.4495 113.844C98.5622 113.7 98.6405 113.532 98.6788 113.352C98.717 113.173 98.714 112.988 98.6701 112.81Z" fill="white"/>
<path id="Vector_8" d="M110.93 89.52H106.07V87C106.076 85.6298 105.811 84.2718 105.29 83.0046C104.769 81.7374 104.002 80.5861 103.033 79.6172C102.064 78.6482 100.912 77.881 99.6452 77.3597C98.378 76.8384 97.0201 76.5734 95.6499 76.58H95.3799C94.013 76.5786 92.6594 76.8475 91.3968 77.3712C90.1342 77.8949 88.9876 78.663 88.023 79.6314C87.0583 80.5998 86.2946 81.7493 85.7758 83.0139C85.257 84.2785 84.9933 85.6331 84.9999 87V89.54H80.1099V87C80.1209 78.571 86.9509 71.741 95.3799 71.73H95.6499C104.083 71.736 110.919 78.567 110.93 87V89.52Z" fill="#FF444F"/>
</g>
</g>
<defs>
<clipPath id="clip0_1184_364">
<rect width="115" height="123" fill="white"/>
</clipPath>
</defs>
</svg>
