<svg width="128" height="128" viewBox="0 0 128 128" fill="none" xmlns="http://www.w3.org/2000/svg">
<g id="illustration / deriv / light /  ic-poa-lock" clip-path="url(#clip0_1184_364)">
<path id="Vector" d="M98 120H16C10.477 120 6 115.523 6 110V12C6 6.477 10.477 2 16 2H86.37L108 23.64V110C108 115.523 103.523 120 98 120Z" fill="#E0F0F0"/>
<path id="Vector_2" d="M91.8801 39.65H22.1201C20.4633 39.65 19.1201 40.9932 19.1201 42.65V43.33C19.1201 44.9869 20.4633 46.33 22.1201 46.33H91.8801C93.537 46.33 94.8801 44.9869 94.8801 43.33V42.65C94.8801 40.9932 93.537 39.65 91.8801 39.65Z" fill="white"/>
<path id="Vector_3" d="M91.8801 53.98H22.1201C20.4633 53.98 19.1201 55.3231 19.1201 56.98V57.66C19.1201 59.3168 20.4633 60.66 22.1201 60.66H91.8801C93.537 60.66 94.8801 59.3168 94.8801 57.66V56.98C94.8801 55.3231 93.537 53.98 91.8801 53.98Z" fill="white"/>
<path id="Vector_4" d="M57.2301 70.3H22.1201C20.4633 70.3 19.1201 71.6432 19.1201 73.3V73.98C19.1201 75.6369 20.4633 76.98 22.1201 76.98H57.2301C58.887 76.98 60.2301 75.6369 60.2301 73.98V73.3C60.2301 71.6432 58.887 70.3 57.2301 70.3Z" fill="white"/>
<path id="Vector_5" d="M108 23.65H96.3799C90.8569 23.65 86.3799 19.173 86.3799 13.65V2L108 23.65Z" fill="#BBCCCE"/>
<path id="Vector_6" d="M121 95.41H81.4898C81.4884 94.9036 81.5871 94.4019 81.78 93.9336C81.9728 93.4654 82.2562 93.0398 82.6139 92.6812C82.9715 92.3227 83.3964 92.0382 83.8641 91.8441C84.3319 91.65 84.8333 91.55 85.3398 91.55H117.15C118.167 91.5527 119.141 91.9564 119.862 92.6735C120.583 93.3906 120.992 94.3632 121 95.38V95.41ZM81.4898 121.11H121C120.997 122.13 120.591 123.108 119.869 123.829C119.148 124.551 118.17 124.957 117.15 124.96H85.3398C84.3187 124.96 83.3394 124.554 82.6174 123.832C81.8954 123.11 81.4898 122.131 81.4898 121.11ZM81.4898 95.41H121V121.1H81.4898V95.41Z" fill="#FF444F"/>
<path id="Vector_7" d="M104.67 114.81L102.74 107.14C103.468 106.815 104.068 106.258 104.446 105.556C104.824 104.854 104.959 104.047 104.83 103.26C104.694 102.35 104.218 101.525 103.498 100.953C102.777 100.381 101.866 100.104 100.949 100.177C100.032 100.251 99.1771 100.67 98.5573 101.35C97.9374 102.03 97.5989 102.92 97.6101 103.84C97.6108 104.538 97.8132 105.22 98.1929 105.806C98.5725 106.391 99.1133 106.855 99.7501 107.14L97.8201 114.81C97.7744 114.987 97.7698 115.172 97.8066 115.352C97.8435 115.531 97.9208 115.699 98.0328 115.844C98.1447 115.989 98.2883 116.106 98.4525 116.187C98.6167 116.268 98.7972 116.31 98.9801 116.31H103.5C103.683 116.309 103.864 116.267 104.028 116.186C104.193 116.106 104.337 115.989 104.449 115.844C104.562 115.7 104.641 115.532 104.679 115.352C104.717 115.173 104.714 114.988 104.67 114.81Z" fill="white"/>
<path id="Vector_8" d="M116.93 91.52H112.07V89C112.076 87.6298 111.811 86.2718 111.29 85.0046C110.769 83.7374 110.002 82.5861 109.033 81.6172C108.064 80.6482 106.912 79.881 105.645 79.3597C104.378 78.8384 103.02 78.5734 101.65 78.58H101.38C100.013 78.5786 98.6594 78.8475 97.3968 79.3712C96.1342 79.8949 94.9876 80.663 94.023 81.6314C93.0583 82.5998 92.2946 83.7493 91.7758 85.0139C91.257 86.2785 90.9933 87.6331 90.9999 89V91.54H86.1099V89C86.1209 80.571 92.9509 73.741 101.38 73.73H101.65C110.083 73.736 116.919 80.567 116.93 89V91.52Z" fill="#FF444F"/>
</g>
<defs>
<clipPath id="clip0_1184_364">
<rect width="128" height="128" fill="white"/>
</clipPath>
</defs>
</svg>
