<svg width="24" height="24" viewBox="0 0 24 24" fill="none" xmlns="http://www.w3.org/2000/svg">
<g id="illustration / deriv / light / less-than-eight-icon-kyc">
<g id="Vector">
<path d="M10.0071 20.5452C9.73699 20.5435 9.47587 20.4499 9.26812 20.2804L2.27817 14.6399C1.46874 13.9948 0.999056 13.0251 1 12.0012C1.00034 10.9747 1.46948 10.0026 2.27817 9.35259L9.26812 3.71211C9.76447 3.31392 10.4954 3.38638 10.9008 3.87397C11.3061 4.36156 11.2324 5.07964 10.736 5.47783L3.74606 11.1183C3.47487 11.334 3.31713 11.6584 3.31667 12.0012C3.31725 12.3412 3.47527 12.6625 3.74606 12.8742L10.736 18.5147C11.1123 18.8216 11.2541 19.3263 11.0915 19.7794C10.9288 20.2325 10.4961 20.5381 10.0071 20.5452Z" fill="#C7E5E5"/>
<path d="M11.6552 15.8321C11.6093 13.9604 12.9559 12.3338 14.8306 11.9966V11.82C13.2135 11.3534 12.111 9.88532 12.1345 8.22974C12.1345 5.84602 14.0318 4.24707 17.3271 4.24707C20.6223 4.24707 22.5196 5.84602 22.5196 8.22974C22.5431 9.88532 21.4406 11.3534 19.8235 11.82V11.9966C21.6982 12.3338 23.0448 13.9604 22.9989 15.8321C22.9989 18.4022 21.0018 20.3347 17.3271 20.3347C13.6523 20.3347 11.6552 18.4022 11.6552 15.8321ZM20.3227 15.3809C20.3227 13.8408 19.2343 12.9285 17.3271 12.9285C15.4198 12.9285 14.3314 13.8408 14.3314 15.3809V15.8321C14.3314 17.3624 15.4198 18.2845 17.3271 18.2845C19.2343 18.2845 20.3227 17.3919 20.3227 15.8616V15.3809ZM20.0032 8.83793V8.45536C20.0032 7.05259 19.0745 6.32669 17.3271 6.32669C15.5796 6.32669 14.6309 7.10164 14.6309 8.5044V8.88697C14.6309 10.2897 15.6295 11.0745 17.3271 11.0745C19.0246 11.0745 20.0032 10.2505 20.0032 8.83793Z" fill="#C7E5E5"/>
</g>
</g>
</svg>
