<svg width="128" height="128" viewBox="0 0 128 128" fill="none" xmlns="http://www.w3.org/2000/svg">
<g id="illustration / deriv / light / ad-default">
<g id="vector">
<g id="cursor">
<g id="Group">
<g id="Group_2">
<g id="Group_3">
<path id="Vector" d="M78.7054 20.6835V103.477C78.7054 104.856 78.2581 106.117 77.5048 107.14C76.5817 108.394 75.1978 109.282 73.6222 109.566H73.6205C73.0421 109.67 72.4384 109.694 71.8213 109.623L22.3932 105.606C18.9444 105.212 16.338 102.293 16.338 98.821V13.7606C16.338 10.7826 18.6081 8.38643 21.4414 8.09216H21.4532C21.8467 8.05181 22.2519 8.05181 22.6639 8.09721L29.5968 8.86735L34.7523 9.44075L70.8326 11.8807C75.3155 12.3784 78.7071 16.1686 78.7071 20.6801L78.7054 20.6835Z" fill="white"/>
<path id="Vector_2" d="M72.5292 110C72.2803 110 72.0315 109.986 71.7809 109.958L22.3528 105.941C18.7308 105.529 16 102.468 16 98.8211V13.7607C16 10.6616 18.3188 8.08214 21.396 7.75929C21.4044 7.75929 21.4128 7.75761 21.4178 7.75593C21.8449 7.71389 22.2754 7.71725 22.6975 7.76433L70.8662 11.5478C75.5256 12.0657 79.04 15.9921 79.04 20.6819V103.476C79.04 104.878 78.6028 106.213 77.7738 107.336C76.7784 108.69 75.3239 109.598 73.6793 109.894C73.6743 109.894 73.6693 109.894 73.6642 109.896C73.2909 109.963 72.9092 109.997 72.5275 109.997L72.5292 110ZM21.4935 8.42518C21.4935 8.42518 21.4784 8.42686 21.475 8.42854C18.7375 8.71272 16.6726 11.0046 16.6726 13.7624V98.8227C16.6726 102.127 19.1478 104.9 22.4284 105.273L71.8566 109.29C72.4283 109.356 73.0017 109.337 73.5583 109.236C73.5633 109.236 73.5684 109.235 73.5734 109.235C75.043 108.967 76.3429 108.154 77.2324 106.941C77.9756 105.932 78.3674 104.735 78.3674 103.479V20.6852C78.3674 16.3385 75.1103 12.6996 70.7922 12.2204L22.6235 8.43694C22.2502 8.39491 21.8702 8.39323 21.4918 8.42854L21.4935 8.42518Z" fill="black"/>
</g>
<g id="Group_4">
<path id="Vector_3" d="M88.6514 18.9517V101.745C88.6514 105.085 86.0266 107.748 82.8115 107.922V107.933L73.6187 109.565C75.1959 109.28 76.5798 108.393 77.5013 107.138C78.2546 106.116 78.7019 104.855 78.7019 103.476V20.682C78.7019 16.1688 75.3103 12.3803 70.8274 11.8826L34.7471 9.44265L29.5916 8.86925L22.6587 8.09911C22.2467 8.05371 21.8415 8.0537 21.448 8.0907L33.2522 6.43607H33.2539C33.8004 6.33181 34.3721 6.30491 34.9607 6.36881L80.7752 10.1506C85.2598 10.65 88.6498 14.4402 88.6498 18.95L88.6514 18.9517Z" fill="#EBECEE"/>
<path id="Vector_4" d="M73.62 109.903C73.4569 109.903 73.3156 109.785 73.2887 109.62C73.2601 109.438 73.3812 109.269 73.5611 109.235C75.0358 108.969 76.3406 108.154 77.2335 106.94C77.9768 105.931 78.3686 104.733 78.3686 103.477V20.6837C78.3686 16.3369 75.1115 12.6981 70.7933 12.2189L22.6246 8.43541C22.2497 8.39337 21.8646 8.39169 21.4829 8.42868C21.303 8.4455 21.1382 8.31602 21.1163 8.13273C21.0945 7.95112 21.2223 7.78633 21.4039 7.75943L33.2064 6.1048C33.7949 5.99382 34.3986 5.97028 34.9989 6.03754L80.8135 9.81931C85.473 10.3389 88.9873 14.2653 88.9873 18.9534V101.747C88.9873 105.182 86.3288 108.024 82.9187 108.255C82.9002 108.261 82.8817 108.266 82.8616 108.268L73.667 109.899C73.6519 109.901 73.6351 109.903 73.62 109.903ZM24.6526 7.98139L70.8656 11.5479C75.5251 12.0658 79.0395 15.9922 79.0395 20.682V103.476C79.0395 104.878 78.6023 106.213 77.7733 107.336C77.3327 107.937 76.8014 108.448 76.2028 108.858L82.6867 107.609C82.7203 107.594 82.7556 107.585 82.7926 107.584C85.8883 107.417 88.313 104.851 88.313 101.742V18.9484C88.313 14.6033 85.0559 10.9644 80.7361 10.4835L34.9216 6.70175C34.3835 6.64289 33.8437 6.66307 33.3157 6.76396C33.3056 6.76565 33.2955 6.76733 33.2854 6.76901L24.6492 7.97971L24.6526 7.98139Z" fill="black"/>
</g>
</g>
</g>
<g id="Group 20">
<path id="Vector 376" d="M24.2505 64.895L69.4478 68.5182" stroke="black" stroke-width="0.70624" stroke-linecap="round" stroke-linejoin="round"/>
<path id="Vector 377" d="M24.3762 74.6636L69.5735 78.2868" stroke="black" stroke-width="0.70624" stroke-linecap="round" stroke-linejoin="round"/>
<path id="Vector 378" d="M24.504 84.4316L69.7013 88.0548" stroke="black" stroke-width="0.70624" stroke-linecap="round" stroke-linejoin="round"/>
<path id="Vector 379" d="M24.6298 94.2002L69.8271 97.8234" stroke="black" stroke-width="0.70624" stroke-linecap="round" stroke-linejoin="round"/>
</g>
<path id="Vector 381 (Stroke)" fill-rule="evenodd" clip-rule="evenodd" d="M35.9961 20.8168C36.1681 20.8196 36.3191 20.932 36.371 21.096L43.8142 44.6083C43.8809 44.8189 43.7642 45.0437 43.5536 45.1104C43.343 45.177 43.1182 45.0603 43.0515 44.8497L40.5561 36.9669L31.1156 36.2476L28.6077 43.3081C28.5337 43.5163 28.305 43.6251 28.0969 43.5511C27.8887 43.4772 27.7799 43.2485 27.8538 43.0403L30.4638 35.6925L35.6124 21.0838C35.6696 20.9215 35.8241 20.814 35.9961 20.8168ZM31.3918 35.4663L40.2958 36.1448L35.9693 22.4778L31.3918 35.4663ZM48.1129 21.3923C48.1928 21.3155 48.301 21.2752 48.4117 21.2811L56.3729 21.7084C61.306 21.9732 65.1924 26.0114 65.268 30.951L65.3696 37.5892C65.446 42.579 61.181 46.5346 56.2111 46.0834L48.7111 45.4025C48.5074 45.384 48.3505 45.2148 48.3473 45.0102L47.9903 21.6867C47.9886 21.5758 48.033 21.4692 48.1129 21.3923ZM48.7968 22.1029L49.1417 44.6383L56.2835 45.2867C60.78 45.6949 64.6388 42.116 64.5697 37.6015L64.4681 30.9633C64.3989 26.444 60.8433 22.7495 56.33 22.5072L48.7968 22.1029Z" fill="black"/>
</g>
<g id="cursor_2">
<g id="Group_5">
<path id="Vector_5" d="M103.126 108.373C100.884 112.177 98.6424 115.979 96.4006 119.782C95.848 120.289 94.6817 121.214 92.9666 121.526C91.562 121.781 90.4531 121.506 89.4439 121.256C88.7712 121.09 87.2982 120.659 85.7069 119.581C83.7644 118.264 82.6352 116.655 82.0419 115.638C80.896 113.46 79.752 111.284 78.6061 109.105C80.7888 105.466 82.9715 101.827 85.1524 98.1895C86.3279 100.405 87.5015 102.622 88.6769 104.837C89.4606 106.128 90.7174 107.711 92.6709 108.922C93.5802 109.486 97.3321 111.812 100.729 110.305C101.173 110.107 102.372 109.575 103.128 108.375L103.126 108.373Z" fill="#FF444F"/>
<path id="Vector_6" d="M91.8428 122C90.9002 122 90.0925 121.8 89.3569 121.617C88.0114 121.284 86.677 120.685 85.4997 119.888C83.9768 118.856 82.672 117.451 81.722 115.825C80.5687 113.634 79.4228 111.456 78.2788 109.279C78.2178 109.165 78.2234 109.028 78.2899 108.917L84.8362 97.9993C84.9046 97.8847 85.0303 97.8088 85.1634 97.8199C85.2964 97.8236 85.4184 97.8976 85.4794 98.0159L88.9984 104.655C90.0057 106.311 91.3068 107.641 92.8648 108.608C96.5797 110.912 99.1099 110.618 100.577 109.967C100.999 109.78 102.117 109.283 102.812 108.177C102.919 108.005 103.145 107.953 103.316 108.059C103.488 108.164 103.546 108.388 103.442 108.562L96.7165 119.971C96.698 120.003 96.6758 120.03 96.6481 120.056C95.9199 120.726 94.7001 121.587 93.0293 121.893C92.6079 121.968 92.2124 122 91.8391 122H91.8428ZM79.0292 109.117C80.1418 111.234 81.2544 113.349 82.367 115.465C83.2523 116.983 84.4814 118.305 85.9119 119.274C87.019 120.023 88.2702 120.585 89.5307 120.898C90.5361 121.147 91.5729 121.404 92.8981 121.162C94.3656 120.894 95.4468 120.143 96.1084 119.546L101.555 110.306C101.272 110.463 101.032 110.57 100.877 110.64C99.2467 111.365 96.4651 111.707 92.4749 109.235C90.8133 108.205 89.429 106.788 88.3589 105.028C88.3552 105.022 88.3515 105.015 88.3478 105.01L85.1301 98.9405L79.0273 109.117H79.0292Z" fill="black"/>
</g>
<g id="Group_6">
<path id="Vector_7" d="M113.678 95.2178C111.515 98.8459 109.353 102.474 107.191 106.102C106.041 106.246 104.89 106.391 103.74 106.535C103.862 105.165 103.296 104.053 103.16 103.794C101.931 101.429 100.702 99.0622 99.4744 96.6971C104.209 96.2034 108.945 95.7115 113.68 95.2178H113.678Z" fill="#FF444F"/>
<path id="Vector_8" d="M103.739 106.907C103.645 106.907 103.553 106.87 103.483 106.803C103.401 106.726 103.361 106.617 103.372 106.504C103.477 105.328 103.03 104.34 102.832 103.97C101.814 102.012 100.799 100.054 99.7825 98.0975L99.1448 96.8696C99.0875 96.7605 99.0894 96.631 99.1467 96.5238C99.204 96.4165 99.313 96.3444 99.4332 96.3315L113.638 94.8521C113.777 94.8373 113.914 94.9039 113.988 95.0204C114.064 95.1388 114.065 95.2885 113.993 95.4087C111.831 99.0368 109.669 102.665 107.506 106.293C107.447 106.391 107.347 106.456 107.234 106.471L103.784 106.903C103.769 106.905 103.752 106.907 103.738 106.907H103.739ZM100.052 97.0101L100.439 97.7554C101.455 99.7118 102.47 101.668 103.486 103.625C103.688 104.002 104.117 104.947 104.126 106.114L106.966 105.757C108.974 102.391 110.979 99.0257 112.984 95.6602L100.052 97.0083V97.0101Z" fill="black"/>
</g>
<g id="Group_7">
<path id="Vector_9" d="M74.899 64.3701C74.7049 66.0751 74.5108 67.7782 74.3168 69.4831C74.2928 69.6976 74.2669 69.9195 74.241 70.147C74.2225 70.3115 74.2022 70.4761 74.1837 70.6407C74.1652 70.8016 74.1467 70.9662 74.1283 71.1344C74.0894 71.4784 74.0506 71.8223 74.01 72.1663C73.9896 72.3438 73.9693 72.5232 73.949 72.7062C73.9397 72.7968 73.9287 72.8893 73.9176 72.9799C73.8954 73.1648 73.8751 73.3535 73.8529 73.5421C73.7974 74.0321 73.742 74.5221 73.6847 75.0122C73.6496 75.3154 73.6145 75.6243 73.5793 75.9368C73.5553 76.1457 73.5313 76.3565 73.5073 76.571C72.6312 84.2618 71.7533 91.9544 70.8773 99.6451C68.7075 103.262 66.5377 106.879 64.3698 110.496C65.682 98.7538 66.996 87.0097 68.3083 75.2674C72.3207 68.6325 74.899 64.3701 74.9008 64.3701H74.899Z" fill="#FF444F"/>
<path id="Vector_10" d="M64.3699 110.868C64.3311 110.868 64.2904 110.862 64.2516 110.848C64.0871 110.792 63.9836 110.629 64.0021 110.456L67.9406 75.2268C67.9462 75.1732 67.9647 75.1214 67.9924 75.077L73.7366 65.5796C74.3441 64.5749 74.6866 64.0571 74.7642 64.0263C74.8843 63.9782 75.023 63.9967 75.1265 64.0762C75.23 64.1558 75.2836 64.2834 75.2688 64.4128L74.6626 69.7218C74.6459 69.8734 74.6274 70.0288 74.609 70.1878L74.3114 72.7877C74.3022 72.8673 74.2948 72.9468 74.2837 73.0244C74.2633 73.2075 74.2412 73.3943 74.219 73.5829L74.1876 73.8547C74.1414 74.2541 74.097 74.6554 74.0508 75.0548L71.2434 99.6878C71.2378 99.7396 71.2212 99.7914 71.1935 99.8357L70.9421 100.256C68.8555 103.734 66.7707 107.21 64.686 110.687C64.6176 110.801 64.4956 110.866 64.3699 110.866V110.868ZM68.667 75.3914L64.9262 108.852C66.7208 105.86 68.5154 102.868 70.31 99.8764L70.5207 99.5251L73.3189 74.9716C73.3651 74.5704 73.4113 74.1709 73.4557 73.7715L73.4871 73.5015C73.5074 73.3129 73.5296 73.1243 73.5518 72.9394C73.561 72.8617 73.5703 72.784 73.5777 72.7082L73.8752 70.1064C73.8919 69.9492 73.9103 69.7921 73.9288 69.6386L74.3428 66.0105C73.7921 66.9203 72.9973 68.235 72.0067 69.8716L68.667 75.3914Z" fill="black"/>
</g>
<g id="Group_8">
<path id="Vector_11" d="M85.1509 98.1875C82.9682 101.827 80.7855 105.466 78.6046 109.103C73.8603 109.567 69.1159 110.032 64.3698 110.496C66.5395 106.879 68.7075 103.262 70.8773 99.6447C75.6345 99.1583 80.3918 98.6738 85.1509 98.1875Z" fill="#FF444F"/>
<path id="Vector_12" d="M64.369 110.868C64.2433 110.868 64.125 110.803 64.0566 110.696C63.9827 110.577 63.9808 110.428 64.0529 110.307C66.1377 106.831 68.2243 103.353 70.3091 99.8763L70.5604 99.4565C70.6196 99.3566 70.7231 99.2901 70.8395 99.279L85.1132 97.8218C85.2518 97.8052 85.3867 97.8736 85.4625 97.9919C85.5383 98.1103 85.5401 98.2601 85.468 98.3803L78.9217 109.298C78.8607 109.398 78.7572 109.464 78.6408 109.475L64.4059 110.868C64.393 110.868 64.3819 110.868 64.3708 110.868H64.369ZM71.0983 99.9946L70.9412 100.255C68.9802 103.523 67.0211 106.79 65.062 110.058L78.3802 108.756L84.4515 98.6318L71.0964 99.9946H71.0983Z" fill="black"/>
</g>
<g id="Group_9">
<path id="Vector_13" d="M103.159 103.796C103.298 104.055 103.862 105.166 103.74 106.537C103.712 106.866 103.642 107.212 103.518 107.561C103.412 107.857 103.281 108.123 103.13 108.364C103.13 108.369 103.126 108.371 103.124 108.375C102.368 109.575 101.171 110.107 100.725 110.305C97.3282 111.812 93.5782 109.486 92.667 108.922C90.7135 107.711 89.4567 106.128 88.6731 104.837C87.4976 102.622 86.324 100.405 85.1485 98.1894C80.3913 98.6758 75.6322 99.1603 70.8749 99.6466C71.7509 91.9559 72.6288 84.2632 73.5049 76.5725C73.5289 76.3617 73.5529 76.149 73.5769 75.9382C73.6121 75.6294 73.6472 75.3206 73.6823 75.0136C73.7396 74.5236 73.795 74.0336 73.8505 73.5435C73.8727 73.3568 73.8948 73.1681 73.9152 72.9814C73.9263 72.8889 73.9355 72.7983 73.9466 72.7077C73.9669 72.5283 73.9891 72.3471 74.0076 72.1677C74.0464 71.8238 74.0852 71.4798 74.1259 71.1359C74.1443 70.9713 74.1628 70.8067 74.1813 70.6422C74.1998 70.4776 74.2201 70.313 74.2386 70.1484C74.2626 69.9284 74.2885 69.7065 74.3144 69.4846C74.5084 67.7796 74.7025 66.0765 74.8966 64.3716C87.8229 74.6549 100.749 84.9363 113.677 95.2197C108.942 95.7134 104.207 96.2053 99.4721 96.699C100.699 99.0641 101.928 101.431 103.157 103.796H103.159Z" fill="#FF7E88"/>
<path id="Vector_14" d="M98.2787 111.173C96.7557 111.173 94.8244 110.694 92.4735 109.237C90.8119 108.207 89.4276 106.79 88.3575 105.03C88.3538 105.024 88.3501 105.017 88.3464 105.011L84.9383 98.5837L70.9123 100.015C70.7996 100.024 70.6906 99.9873 70.6111 99.9077C70.5335 99.8282 70.4946 99.7173 70.5076 99.6063L73.1376 76.5322C73.156 76.3713 73.1745 76.2105 73.193 76.0514L73.315 74.9734C73.3612 74.5739 73.4074 74.1727 73.4518 73.7732L73.4906 73.4256C73.5091 73.2647 73.5275 73.102 73.546 72.9411C73.5553 72.8616 73.5645 72.7839 73.5719 72.7081L73.5756 72.6674C73.5978 72.4862 73.6181 72.305 73.6384 72.1275L74.5274 64.3313C74.5422 64.1982 74.6291 64.0835 74.7529 64.0317C74.8767 63.98 75.019 64.0003 75.1244 64.0835C88.0507 74.3668 100.977 84.6483 113.905 94.9316C114.023 95.0259 114.072 95.1812 114.031 95.3255C113.988 95.4697 113.865 95.5733 113.715 95.5899L100.049 97.0138L100.436 97.759C101.45 99.7154 102.467 101.672 103.483 103.626C103.712 104.055 104.228 105.2 104.106 106.572C104.073 106.951 103.991 107.327 103.864 107.687C103.757 107.992 103.614 108.286 103.443 108.558C103.439 108.564 103.437 108.567 103.433 108.573C102.618 109.869 101.35 110.433 100.872 110.644C100.203 110.942 99.3377 111.175 98.275 111.175L98.2787 111.173ZM88.997 104.655C90.0043 106.311 91.3054 107.641 92.8634 108.608C96.5783 110.912 99.1085 110.618 100.576 109.967C100.997 109.781 102.114 109.285 102.809 108.181C102.81 108.175 102.814 108.172 102.816 108.168C102.96 107.941 103.078 107.697 103.167 107.441C103.274 107.14 103.343 106.826 103.369 106.507C103.474 105.331 103.027 104.342 102.829 103.972C102.829 103.972 102.829 103.97 102.829 103.969C101.812 102.012 100.796 100.056 99.7813 98.0992L99.1436 96.8714C99.0863 96.7623 99.0882 96.6328 99.1455 96.5256C99.2028 96.4183 99.3118 96.3462 99.4319 96.3333L112.737 94.9464C100.219 84.9904 87.7051 75.0344 75.1872 65.0765L74.374 72.2088C74.3537 72.3882 74.3334 72.5694 74.313 72.7488L74.3093 72.7876C74.3001 72.8671 74.2927 72.9467 74.2816 73.0243C74.265 73.1834 74.2446 73.3461 74.2262 73.5088L74.1874 73.8546C74.1411 74.254 74.0968 74.6553 74.0506 75.0547L73.9286 76.1309C73.9101 76.2918 73.8916 76.4527 73.8732 76.6136L71.2949 99.2309L85.1102 97.82C85.2581 97.8034 85.4041 97.881 85.4743 98.0142L88.9933 104.653L88.997 104.655Z" fill="black"/>
</g>
</g>
</g>
</g>
</svg>
