<svg width="128" height="128" viewBox="0 0 128 128" fill="none" xmlns="http://www.w3.org/2000/svg">
<g id="illustration / deriv / light / add-biometrics">
<g id="illustration">
<path fill-rule="evenodd" clip-rule="evenodd" d="M31.8115 35.1691C30.1397 38.4749 29.6295 41.3207 29.2469 43.4678C28.8417 45.805 28.7886 48.1175 28.696 52.7177C28.65 55.2703 28.6541 57.4505 28.6733 59.0916C29.5099 58.259 30.3392 57.4263 31.1687 56.5931C31.1439 55.3213 31.1327 53.531 31.1711 51.3792C31.2504 47.214 31.3032 44.6865 31.7026 41.8781C32.1 39.0311 32.7799 34.3481 35.7461 29.4496C35.8526 29.2745 35.96 29.1022 36.068 28.9332C34.9686 30.239 33.2326 32.3527 31.8115 35.1691Z" fill="#EBECEE"/>
<path fill-rule="evenodd" clip-rule="evenodd" d="M28.3496 60.0679C28.4328 60.0831 28.5184 60.0601 28.583 60.0052C29.5895 59.0066 30.6585 57.9083 31.6519 56.9105L31.6534 56.9089C31.7078 56.8543 31.7377 56.7797 31.7361 56.7024C31.7097 55.4313 31.6965 53.6029 31.7361 51.3896C31.8155 47.2172 31.8685 44.7251 32.2622 41.9573C32.6579 39.1219 33.3263 34.538 36.2287 29.7448C37.4942 27.6638 38.877 26.0324 40.0864 24.8284C40.1248 24.7902 40.1609 24.759 40.1972 24.7271L40.2756 24.6554C40.7589 24.183 41.2102 23.7824 41.6053 23.4385C41.6672 23.3846 41.7028 23.3063 41.7028 23.224V23.2107C41.7028 23.1432 41.6788 23.0779 41.6351 23.0265C40.7499 21.9848 39.8643 20.9459 38.9793 19.9077L38.9777 19.9058C38.0921 18.867 37.2067 17.8283 36.3214 16.7864C36.2706 16.7267 36.1975 16.6908 36.1194 16.6872C36.0413 16.6836 35.9653 16.7126 35.9093 16.7674C35.3875 17.2782 34.8657 17.7857 34.3452 18.2919L34.3199 18.3165C33.808 18.8144 33.2973 19.3111 32.7898 19.8078C31.1113 21.3306 28.9138 23.6378 26.8717 26.6356C25.6237 28.4626 22.9565 32.4533 21.5695 38.1733C20.9134 40.8767 20.8078 43.7917 20.6099 49.5555C20.4775 53.1997 20.4908 56.245 20.5173 58.3982C20.5189 58.5338 20.616 58.6493 20.7488 58.6738C23.2726 59.1383 25.8096 59.6028 28.3464 60.0673L28.3496 60.0679ZM31.8115 35.1691C30.1397 38.4749 29.6295 41.3207 29.2469 43.4678C28.8417 45.805 28.7886 48.1175 28.696 52.7177C28.65 55.2703 28.6541 57.4505 28.6733 59.0916C29.5099 58.259 30.3392 57.4263 31.1687 56.5931C31.1439 55.3213 31.1327 53.531 31.1711 51.3792C31.2504 47.214 31.3032 44.6865 31.7026 41.8781C32.1 39.0311 32.7799 34.3481 35.7461 29.4496C35.8526 29.2745 35.96 29.1022 36.068 28.9332C34.9686 30.239 33.2326 32.3527 31.8115 35.1691ZM37.0831 25.1231C37.3534 25.4381 37.6365 25.7706 37.9129 26.081C37.3133 26.6872 36.5417 27.489 35.7056 28.4848C34.6068 29.7879 32.7925 31.9713 31.3101 34.9071C29.6007 38.2875 29.076 41.2056 28.6922 43.3591C28.2779 45.7483 28.2234 48.1203 28.131 52.707C28.0815 55.4516 28.0767 57.7646 28.0996 59.4452C25.7555 59.016 23.412 58.5868 21.0795 58.1576C21.0551 56.0251 21.0474 53.0771 21.1747 49.5754C21.3733 43.7885 21.4793 40.9414 22.1185 38.3076C23.4808 32.6895 26.101 28.7671 27.3381 26.9561C29.2993 24.0771 31.3447 21.9362 32.9781 20.4408C33.1801 20.67 33.3822 20.8994 33.5842 21.1291C34.3359 21.9837 35.0869 22.8412 35.8354 23.6998C36.0066 23.895 36.1779 24.0902 36.3492 24.2856C36.5932 24.5627 36.8361 24.8383 37.0831 25.1231ZM38.009 25.3184C37.8402 25.1289 37.6716 24.9396 37.5083 24.7494C37.2784 24.4866 37.0486 24.2242 36.8188 23.9621C36.8039 23.9452 36.8336 23.9789 36.8188 23.9621C36.6485 23.7686 36.4331 23.5239 36.2597 23.3249L36.1289 23.1759C35.4203 22.3683 34.713 21.5622 34.0083 20.754C33.7972 20.5119 33.5863 20.2696 33.3756 20.027C33.8195 19.5933 34.2657 19.1593 34.7135 18.7239L34.7383 18.6997C35.1869 18.2634 35.6371 17.8256 36.0875 17.3854C36.9078 18.3504 37.7286 19.3132 38.5488 20.2754L38.5527 20.2799C39.3786 21.2488 40.2044 22.2175 41.0301 23.1889C40.7001 23.4789 40.281 23.8607 39.8915 24.2388L38.3238 25.6735C38.2192 25.5544 38.1141 25.4364 38.0098 25.3194L38.009 25.3184Z" fill="black"/>
<path fill-rule="evenodd" clip-rule="evenodd" d="M36.1289 23.1759C35.4203 22.3683 34.713 21.5622 34.0083 20.754C34.76 21.6087 35.5111 22.4663 36.2597 23.3249L36.1289 23.1759ZM36.8188 23.9621C36.8039 23.9452 36.8336 23.9789 36.8188 23.9621C37.0486 24.2242 37.2784 24.4866 37.5083 24.7494C37.2761 24.4815 37.0478 24.2222 36.8188 23.9621Z" fill="black"/>
<path d="M37.5083 24.7494C37.6716 24.9396 37.8402 25.1289 38.009 25.3184L38.0098 25.3194C38.1141 25.4364 38.2192 25.5544 38.3238 25.6735L39.8915 24.2388C40.281 23.8607 40.7001 23.4789 41.0301 23.1889C40.2044 22.2175 39.3786 21.2488 38.5527 20.2799L38.5488 20.2754C37.7286 19.3132 36.9078 18.3504 36.0875 17.3854C35.6371 17.8256 35.1869 18.2634 34.7383 18.6997L34.7135 18.7239C34.2657 19.1593 33.8195 19.5933 33.3756 20.027C33.5863 20.2696 33.7972 20.5119 34.0083 20.754C34.76 21.6087 35.5111 22.4663 36.2597 23.3249L36.8188 23.9621C37.0478 24.2222 37.2761 24.4815 37.5083 24.7494Z" fill="#EBECEE"/>
<path d="M37.9129 26.081C37.6365 25.7706 37.3534 25.4381 37.0831 25.1231C36.8385 24.8437 36.5939 24.5645 36.3492 24.2856C36.1791 24.0923 36.0084 23.8982 35.8354 23.6998L35.7063 23.5527C34.9976 22.745 34.2896 21.938 33.5842 21.1291C33.3822 20.8994 33.1801 20.67 32.9781 20.4408C31.3447 21.9362 29.2993 24.0771 27.3381 26.9561C26.101 28.7671 23.4808 32.6895 22.1185 38.3076C21.4793 40.9414 21.3733 43.7885 21.1747 49.5754C21.0474 53.0771 21.0551 56.0251 21.0795 58.1576C23.412 58.5868 25.7555 59.016 28.0996 59.4452C28.0767 57.7646 28.0815 55.4516 28.131 52.707C28.2234 48.1203 28.2779 45.7483 28.6922 43.3591C29.076 41.2056 29.6007 38.2875 31.3101 34.9071C32.7925 31.9713 34.6068 29.7879 35.7056 28.4848C36.5417 27.489 37.3133 26.6872 37.9129 26.081Z" fill="white"/>
<path fill-rule="evenodd" clip-rule="evenodd" d="M43.0392 14.8938C43.5648 15.9673 44.0929 17.0433 44.6211 18.1195C45.1647 19.2273 45.7087 20.3357 46.2498 21.4409C50.2114 20.3537 58.6982 18.6618 68.4308 21.7454C85.0057 26.9912 91.9258 41.8552 93.253 44.9376C94.3237 44.6413 95.3943 44.3478 96.4646 44.0543L96.466 44.0539C96.4685 44.0532 96.471 44.0525 96.4736 44.0518C97.52 43.7649 98.5661 43.4781 99.6121 43.1887C98.1622 39.5383 91.3456 23.9406 73.8027 16.6489C59.865 10.8512 47.3457 13.682 43.0392 14.8938Z" fill="white"/>
<path fill-rule="evenodd" clip-rule="evenodd" d="M45.7103 11.8188L43.5219 14.176C48.3815 12.894 60.5537 10.5182 74.0188 16.1245C91.6123 23.4373 98.5412 38.993 100.095 42.8724L102.726 40.2296C101.318 36.689 95.0042 22.0679 78.4715 14.4006C63.3468 7.37494 49.489 10.7513 45.7103 11.8188Z" fill="#EBECEE"/>
<path fill-rule="evenodd" clip-rule="evenodd" d="M42.3953 14.8619C42.9703 16.0371 43.5361 17.1926 44.1144 18.3709C44.6926 19.549 45.2711 20.7276 45.8459 21.9022C45.9059 22.0249 46.0444 22.0871 46.1755 22.0504C49.9842 20.9818 58.4878 19.1903 68.2608 22.2867C85.0393 27.5968 91.7907 42.9294 92.8303 45.3879C92.8857 45.5189 93.029 45.5884 93.1655 45.5506C94.3145 45.2322 95.4636 44.9171 96.6131 44.6019L96.6148 44.6015C97.7625 44.2868 98.9106 43.972 100.059 43.6538C100.108 43.6415 100.153 43.6161 100.19 43.5792L103.257 40.4989C103.336 40.419 103.361 40.2992 103.32 40.194C102.044 36.9494 95.7299 21.7793 78.7086 13.8854C63.2964 6.7262 49.1906 10.2391 45.4806 11.2942C45.4309 11.3083 45.3861 11.3358 45.3509 11.3737L42.4296 14.5203C42.3431 14.6135 42.3291 14.7532 42.3953 14.8619ZM44.6211 18.1195C45.1647 19.2273 45.7087 20.3357 46.2498 21.4409C50.2114 20.3537 58.6982 18.6618 68.4308 21.7454C85.0057 26.9912 91.9258 41.8552 93.253 44.9376C94.3237 44.6413 95.3943 44.3478 96.4646 44.0543L96.466 44.0539L96.4736 44.0518C97.52 43.7649 98.5661 43.4781 99.6121 43.1887C98.1622 39.5383 91.3456 23.9406 73.8027 16.6489C59.865 10.8512 47.3457 13.682 43.0392 14.8938C43.5648 15.9673 44.0929 17.0433 44.6211 18.1195ZM45.7103 11.8188L43.5219 14.176C48.3815 12.894 60.5537 10.5182 74.0188 16.1245C91.6123 23.4373 98.5412 38.993 100.095 42.8724L102.726 40.2296C101.318 36.689 95.0042 22.0679 78.4715 14.4006C63.3468 7.37494 49.489 10.7513 45.7103 11.8188Z" fill="black"/>
<path fill-rule="evenodd" clip-rule="evenodd" d="M43.4251 54.9705C43.5142 54.9847 43.5735 54.9731 43.6374 54.909C44.1656 54.4046 44.6844 53.9063 45.2012 53.4098L45.2023 53.4087C45.7418 52.8905 46.2791 52.3743 46.8229 51.8554C46.8883 51.793 46.9201 51.703 46.9085 51.6132C46.6882 49.9076 46.5617 47.0465 47.482 43.7867C48.1103 41.5329 49.0626 39.7762 49.852 38.5464C55.4824 34.3155 63.8007 34.2574 70.2763 38.8641C70.3872 38.949 70.5432 38.94 70.6437 38.8428C71.7266 37.7949 72.8228 36.7468 73.9198 35.6981L73.9205 35.6974C73.9439 35.6751 73.9632 35.6489 73.9778 35.6201C74.4932 34.5979 75.0087 33.5791 75.5242 32.5601L75.5247 32.5591L75.5254 32.5576C76.0405 31.5395 76.5557 30.5211 77.0709 29.4994C77.0575 29.5258 77.0399 29.5505 77.0186 29.5719L77.0709 29.4994C77.0949 29.4519 77.1052 29.3983 77.1 29.344C77.0919 29.2597 77.0467 29.1834 76.9768 29.136L76.9736 29.1338C76.4047 28.7485 73.288 26.6886 68.7854 25.3354C64.2734 23.9793 58.3515 23.3278 52.2068 25.802C45.9454 28.3284 42.3899 32.9088 40.8818 35.1608C40.8702 35.1781 40.8608 35.1962 40.8535 35.2148C37.867 38.9779 36.5548 43.3552 35.9961 46.8786C35.4328 50.4303 35.6321 53.1338 35.6666 53.5082C35.6785 53.6374 35.7762 53.7421 35.9039 53.7623C37.1581 53.9613 38.4136 54.1642 39.6651 54.3665C40.917 54.5689 42.1693 54.7714 43.4251 54.9705ZM45.0757 31.9512L45.0745 31.952C43.6042 33.0106 42.3928 34.2138 41.3622 35.4847C38.4101 39.1636 37.108 43.4753 36.5541 46.9679C36.0665 50.0425 36.1613 52.4674 36.2124 53.2367C37.3948 53.4246 38.5743 53.6153 39.7534 53.8059L39.757 53.8065C40.8743 53.9871 41.9934 54.168 43.1126 54.3462C43.0169 53.4654 42.8723 51.3333 43.2962 48.7654C43.8183 45.6016 45.2427 41.7342 48.6711 38.7631C48.9475 38.5383 49.2315 38.3077 49.5123 38.0927C55.2776 33.7713 63.744 33.6624 70.3591 38.2084C70.8676 37.2705 71.3814 36.3202 71.89 35.3797C72.4091 34.4198 72.9282 33.4597 73.4474 32.5023C71.2652 31.0349 66.9473 28.5956 61.0517 28.0873C59.2617 27.927 53.4458 27.4183 47.7158 30.3317C46.8286 30.7846 45.9435 31.3198 45.0757 31.9512ZM74.0571 32.5725C73.5072 33.5863 72.9243 34.6674 72.3743 35.6845C72.1092 36.1748 71.8441 36.6651 71.5789 37.1551C72.2162 36.5432 72.8561 35.9315 73.4957 35.32C74.004 34.3121 74.5122 33.3074 75.0204 32.303C75.2631 31.8232 75.5058 31.3436 75.7484 30.8636C75.1969 31.4235 74.6121 32.0147 74.0571 32.5725ZM52.4172 26.3287C58.4069 23.917 64.1899 24.5466 68.6234 25.8791C72.5441 27.0575 75.3952 28.7816 76.3742 29.4166C75.5134 30.283 74.6609 31.1501 73.8004 32.0257L73.8018 32.0267C73.8037 32.0253 73.8049 32.0235 73.8018 32.0267C73.7999 32.028 73.7974 32.0288 73.8004 32.0257C71.5775 30.53 67.1629 28.0421 61.1271 27.5087C59.3161 27.3475 53.3647 26.8198 47.4808 29.815C46.5526 30.2856 45.6261 30.8438 44.7178 31.5046C44.5958 31.5932 44.4754 31.6828 44.3566 31.7733C46.2503 29.8366 48.8966 27.7493 52.4172 26.3287ZM46.9383 43.6186C47.3789 42.057 47.9867 40.6869 48.5733 39.6028C45.5894 42.4015 44.3395 45.9147 43.8536 48.8582C43.4666 51.203 43.5669 53.174 43.6562 54.1074C44.04 53.74 44.4248 53.3703 44.8089 53.0013L44.8098 53.0005C45.3192 52.5112 45.8273 52.023 46.3301 51.5429C46.1132 49.7669 45.9983 46.9101 46.9383 43.6186ZM73.8018 32.0267C73.7999 32.028 73.7974 32.0288 73.8004 32.0257L73.8018 32.0267Z" fill="black"/>
<path d="M45.0745 31.952L45.0757 31.9512C45.9435 31.3198 46.8286 30.7846 47.7158 30.3317C53.4458 27.4183 59.2617 27.927 61.0517 28.0873C66.9473 28.5956 71.2652 31.0349 73.4474 32.5023C72.9282 33.4597 72.4091 34.4198 71.89 35.3797C71.3814 36.3202 70.8676 37.2705 70.3591 38.2084C63.744 33.6624 55.2776 33.7713 49.5123 38.0927C49.2315 38.3077 48.9475 38.5383 48.6711 38.7631C45.2427 41.7342 43.8183 45.6016 43.2962 48.7654C42.8723 51.3333 43.0169 53.4654 43.1126 54.3462C41.9934 54.168 40.8743 53.9871 39.757 53.8065L39.7534 53.8059C38.5743 53.6153 37.3948 53.4246 36.2124 53.2367C36.1613 52.4674 36.0665 50.0425 36.5541 46.9679C37.108 43.4753 38.4101 39.1636 41.3622 35.4847C42.3928 34.2138 43.6042 33.0106 45.0745 31.952Z" fill="white"/>
<path d="M68.6234 25.8791C64.1899 24.5466 58.4069 23.917 52.4172 26.3287C48.8966 27.7493 46.2503 29.8366 44.3566 31.7733C44.4754 31.6828 44.5958 31.5932 44.7178 31.5046C45.6261 30.8438 46.5526 30.2856 47.4808 29.815C53.3647 26.8198 59.3161 27.3475 61.1271 27.5087C67.1629 28.0421 71.5775 30.53 73.8004 32.0257C74.6609 31.1501 75.5134 30.283 76.3742 29.4166C75.3952 28.7816 72.5441 27.0575 68.6234 25.8791Z" fill="#EBECEE"/>
<path d="M48.5733 39.6028C47.9867 40.6869 47.3789 42.057 46.9383 43.6186C45.9983 46.9101 46.1132 49.7669 46.3301 51.5429C45.8273 52.023 45.3192 52.5112 44.8098 53.0005L44.8089 53.0013C44.4248 53.3703 44.04 53.74 43.6562 54.1074C43.5669 53.174 43.4666 51.203 43.8536 48.8582C44.3395 45.9147 45.5894 42.4015 48.5733 39.6028Z" fill="#EBECEE"/>
<path d="M72.3743 35.6845C72.9243 34.6674 73.5072 33.5863 74.0571 32.5725C74.6121 32.0147 75.1969 31.4235 75.7484 30.8636C75.5058 31.3436 75.2631 31.8232 75.0204 32.303C74.5122 33.3074 74.004 34.3121 73.4957 35.32C72.8561 35.9315 72.2162 36.5432 71.5789 37.1551C71.8441 36.6651 72.1092 36.1748 72.3743 35.6845Z" fill="#EBECEE"/>
<path fill-rule="evenodd" clip-rule="evenodd" d="M84.4379 35.417C84.3869 35.3555 84.3124 35.3186 84.2328 35.3152C84.1532 35.3119 84.0759 35.3424 84.0199 35.3994C83.161 36.0962 82.3257 36.7814 81.4664 37.4752C80.6073 38.1688 79.7479 38.8628 78.8884 39.56C78.3402 40.0907 77.773 40.635 77.2244 41.1628C76.676 41.6904 76.1273 42.2183 75.5785 42.7496C75.4702 42.8544 75.4626 43.026 75.5612 43.14C76.6992 44.5721 78.2213 46.7695 79.3712 49.7358C80.5588 52.777 80.8206 55.2391 81.098 57.88C81.3608 60.4667 81.5184 64.0558 80.9929 68.3577C80.9746 68.507 81.0755 68.6447 81.2229 68.6715C82.4941 68.9031 83.7703 69.135 85.0447 69.3665L85.0563 69.3686L85.0693 69.371C86.3167 69.5976 87.564 69.8242 88.8082 70.0508C89.0289 70.091 89.0261 70.099 89.1981 69.9151L92.2566 66.9228C92.3112 66.8694 92.3419 66.7892 92.3419 66.7127C92.4214 64.9273 92.4717 62.2911 92.3393 59.2046C92.1554 55.0625 91.9931 51.407 90.9038 47.5108C90.1294 44.748 88.4616 40.2614 84.4379 35.417ZM91.7815 66.5954C91.858 64.8269 91.9065 62.2978 91.7771 59.2839C91.5923 55.1205 91.4315 51.4977 90.3598 47.6644C89.614 45.0039 88.0157 40.6945 84.2025 36.0216C83.3326 36.8969 82.4673 37.7873 81.5968 38.6731C82.8397 40.1438 84.4219 42.287 85.8096 45.1259C87.0803 47.7223 87.8278 50.1771 88.2763 52.1977C88.6524 53.886 88.8281 55.2855 88.9428 56.2502C89.1695 58.1918 89.2092 59.9061 89.262 63.3156C89.308 65.6218 89.2754 67.5623 89.2397 69.0883L91.7815 66.5954ZM88.6659 69.4481C88.704 67.8856 88.7461 65.789 88.6971 63.3262L88.697 63.325C88.6441 59.9108 88.6045 58.2256 88.3817 56.3173C88.1317 54.2154 87.5941 50.0717 85.3155 45.389C84.526 43.7739 83.6724 42.3881 82.8566 41.2272C82.2654 40.3861 81.6942 39.663 81.1815 39.0562C79.5161 40.3636 77.8506 41.6819 76.1847 43.001C77.3238 44.4654 78.7794 46.6452 79.8974 49.5289C81.1153 52.6478 81.3823 55.1777 81.66 57.8207C81.9205 60.385 82.0791 63.9245 81.5855 68.1607C82.7702 68.3765 83.9575 68.5922 85.1449 68.8079C86.2421 69.0072 87.3518 69.2088 88.4469 69.4082L88.6659 69.4481Z" fill="black"/>
<path d="M88.6971 63.3262C88.7461 65.789 88.704 67.8856 88.6659 69.4481L88.4469 69.4082C87.3518 69.2088 86.2421 69.0072 85.1449 68.8079C83.9575 68.5922 82.7702 68.3765 81.5855 68.1607C82.0791 63.9245 81.9205 60.385 81.66 57.8207C81.3823 55.1777 81.1153 52.6478 79.8974 49.5289C78.7794 46.6452 77.3238 44.4654 76.1847 43.001C77.8506 41.6819 79.5161 40.3636 81.1815 39.0562C81.6942 39.663 82.2654 40.3861 82.8566 41.2272C83.6724 42.3881 84.526 43.7739 85.3155 45.389C87.5941 50.0717 88.1317 54.2154 88.3817 56.3173C88.6045 58.2256 88.6441 59.9108 88.697 63.325L88.6971 63.3262Z" fill="white"/>
<path d="M91.7771 59.2839C91.9065 62.2978 91.858 64.8269 91.7815 66.5954L89.2397 69.0883C89.2754 67.5623 89.308 65.6218 89.262 63.3156C89.2092 59.9061 89.1695 58.1918 88.9428 56.2502C88.8281 55.2855 88.6524 53.886 88.2763 52.1977C87.8278 50.1771 87.0803 47.7223 85.8096 45.1259C84.4219 42.287 82.8397 40.1438 81.5968 38.6731C82.4673 37.7873 83.3326 36.8969 84.2025 36.0216C88.0157 40.6945 89.614 45.0039 90.3598 47.6644C91.4315 51.4977 91.5923 55.1205 91.7771 59.2839Z" fill="#EBECEE"/>
<path fill-rule="evenodd" clip-rule="evenodd" d="M61.3485 50.6692C61.0532 50.708 60.7558 50.7955 60.4741 50.9547L60.4723 50.9557C59.4902 51.5011 59.1005 52.5331 59.0437 52.6835L59.0425 52.6867C58.9836 52.8719 58.9479 53.0485 58.927 53.2078C58.9059 53.3686 58.8998 53.5118 58.8998 53.6281L58.8998 67.7609L61.3485 65.172V50.6692Z" fill="#EBECEE"/>
<path fill-rule="evenodd" clip-rule="evenodd" d="M69.8032 46.4458C68.8632 45.515 66.1165 42.7954 61.7638 42.551C61.5246 42.5391 60.9652 42.5174 60.2194 42.5686C60.1396 42.5741 60.0577 42.5804 59.9739 42.5876C60.8419 42.5129 61.5 42.5379 61.7638 42.551C65.039 42.7451 67.4052 44.3256 68.7765 45.4927C69.2336 45.8818 69.5704 46.2152 69.8032 46.4458Z" fill="black"/>
<path fill-rule="evenodd" clip-rule="evenodd" d="M52.6151 46.3278C52.9405 45.892 53.3122 45.4904 53.6966 45.1451C54.0265 44.8072 54.3533 44.469 54.6805 44.1303C55.0033 43.7963 55.3266 43.4617 55.6532 43.127C58.7092 39.0565 63.9142 39.3208 64.7779 39.3646L64.7795 39.3647C69.1475 39.61 71.9226 42.348 72.8532 43.2695C76.0353 46.3983 76.8626 50.3322 76.972 51.6916C76.9921 51.9689 77.064 52.9587 77.1012 54.2042C77.1278 55.1773 77.1278 55.9778 77.1278 56.5224C77.1278 56.6248 77.0738 56.7151 76.9928 56.765L74.0231 59.9048C73.9644 59.9669 73.8821 59.9979 73.7999 59.9925C73.1066 59.8794 72.367 59.7535 71.6342 59.6288C71.0746 59.5336 70.519 59.4391 69.9911 59.3514C68.7322 59.1423 67.4738 58.9333 66.2122 58.7277C66.0775 58.7057 65.9777 58.5903 65.9749 58.4533C65.9617 57.7955 65.9518 57.1371 65.9419 56.4802C65.932 55.8264 65.9221 55.1733 65.9091 54.5204C65.88 54.2168 65.6287 52.4391 64.0906 51.3846C64.0875 51.3827 64.084 51.3805 64.0801 51.378C64.0313 51.3472 63.9201 51.2768 63.8559 51.2408C63.717 51.163 63.527 51.0662 63.3004 50.9732C62.9121 50.814 62.4273 50.6707 61.9135 50.6467V65.2853C61.9135 65.358 61.8857 65.428 61.8358 65.4807L58.7992 68.6887C58.7308 68.7609 58.6073 68.7554 58.5125 68.7353C57.7394 68.6004 56.9828 68.4722 56.2213 68.3432C55.7497 68.2633 55.2762 68.183 54.7959 68.1007L54.7942 68.1004C53.5358 67.8848 52.2769 67.6691 51.0213 67.45C50.8859 67.4264 50.7871 67.3084 50.7871 67.1704V53.2975C50.7871 53.2288 50.7847 53.1399 50.7819 53.0331C50.7527 51.9299 50.6727 48.9128 52.6151 46.3278ZM54.0602 45.5685C54.4518 45.1878 55.3495 44.6007 55.7864 44.3297C55.9442 44.2449 56.1044 44.1644 56.2659 44.0865C58.6618 42.966 61.1522 43.089 61.7362 43.1179C65.8606 43.3629 68.4721 45.9249 69.4033 46.8467L69.4115 46.8549L69.4168 46.8601C70.9958 48.4192 71.9767 50.185 72.5703 51.7029C73.1058 53.0833 73.3133 54.2503 73.3639 54.8618C73.3634 54.855 73.4306 56.0302 73.4306 56.0235C73.4566 56.415 73.4697 56.8746 73.483 57.4064C73.5041 58.1807 73.5083 58.8444 73.5091 59.3576C72.3672 59.1708 71.2274 58.9815 70.0876 58.7922L70.0839 58.7916C68.9023 58.5953 67.7202 58.399 66.5353 58.2054C66.5243 57.6278 66.5156 57.0493 66.5069 56.4709C66.5056 56.3889 66.5044 56.3065 66.5031 56.2244C66.4944 55.6495 66.4854 55.0741 66.4738 54.4986C66.4457 54.1884 66.1969 52.1448 64.425 50.9271C64.3397 50.8647 63.9993 50.6467 63.514 50.4478C63.0154 50.2432 62.3427 50.0499 61.621 50.0784C61.1638 50.0927 60.669 50.1936 60.198 50.4595C58.9734 51.1252 58.5372 52.4142 58.507 52.5053C58.3631 52.9534 58.3347 53.3564 58.3347 53.6281V68.1343C57.2602 67.9474 56.1834 67.7627 55.1069 67.5782C55.0354 67.566 54.9639 67.5537 54.8924 67.5415L54.8909 67.5412C53.7101 67.3389 52.5297 67.1366 51.3522 66.9316V53.2829C51.3522 53.2127 51.3502 53.1277 51.3477 53.0292C51.3473 53.0151 51.347 53.0008 51.3466 52.9862C51.3174 51.8523 51.2463 49.0914 53.0669 46.6687C53.3747 46.2565 53.7061 45.8861 54.0602 45.5685ZM58.8998 53.6281C58.8998 53.5118 58.9059 53.3686 58.927 53.2078C58.9479 53.0485 58.9836 52.8719 59.0425 52.6867L59.0437 52.6835C59.1005 52.5331 59.4902 51.5011 60.4723 50.9557L60.4741 50.9547C60.7558 50.7955 61.0532 50.708 61.3485 50.6692V65.172L58.8998 67.7609L58.8998 53.6281ZM64.7354 39.9308C63.8907 39.8882 58.8481 39.7649 55.9755 43.6076C57.4002 42.9449 58.8605 42.6838 59.9739 42.5876C60.8419 42.5129 61.5 42.5379 61.7638 42.551C65.039 42.7451 67.4052 44.3256 68.7765 45.4927C69.2273 45.8764 69.5705 46.2154 69.8032 46.4458C69.8452 46.4872 69.8965 46.5384 69.9376 46.58C73.017 49.6994 73.8475 53.508 73.9554 54.85C73.9689 55.0406 73.995 55.4923 74.0211 55.9902C74.0262 56.1416 74.0336 56.3153 74.0413 56.4951C74.0532 56.7732 74.0663 57.0788 74.0743 57.3916C74.0909 58.0003 74.0971 58.5464 74.0994 59L76.5123 56.4489C76.5122 56.258 76.5184 56.034 76.5252 55.7846C76.5375 55.3322 76.5521 54.796 76.5364 54.221C76.5054 53.1824 76.4193 52.4782 76.3769 52.1317C76.3651 52.0353 76.3567 51.9665 76.3539 51.9261C76.2481 50.6117 75.4418 46.8012 72.3223 43.7343C72.2719 43.6844 72.2172 43.6295 72.1581 43.5701C71.1298 42.5372 68.7601 40.1568 64.7354 39.9308Z" fill="black"/>
<path d="M64.7354 39.9308C63.8907 39.8882 58.8481 39.7649 55.9755 43.6076C57.3946 42.9445 58.8578 42.6836 59.9739 42.5876C60.0577 42.5804 60.1396 42.5741 60.2194 42.5686C60.9652 42.5174 61.5246 42.5391 61.7638 42.551C66.1165 42.7954 68.8632 45.515 69.8032 46.4458C69.8452 46.4872 69.8965 46.5384 69.9376 46.58C73.017 49.6994 73.8475 53.508 73.9554 54.85C73.9689 55.0406 73.995 55.4923 74.0211 55.9902C74.0262 56.1416 74.0336 56.3153 74.0413 56.4951C74.0532 56.7732 74.0663 57.0788 74.0743 57.3916C74.0909 58.0003 74.0971 58.5464 74.0994 59L76.5123 56.4489C76.5122 56.258 76.5184 56.034 76.5252 55.7846C76.5375 55.3322 76.5521 54.796 76.5364 54.221C76.5054 53.1824 76.4193 52.4782 76.3769 52.1317C76.3651 52.0353 76.3567 51.9665 76.3539 51.9261C76.2481 50.6117 75.4418 46.8012 72.3223 43.7343C72.2719 43.6844 72.2172 43.6295 72.1581 43.5701C71.1298 42.5372 68.7601 40.1568 64.7354 39.9308Z" fill="#EBECEE"/>
<path d="M55.7864 44.3297C55.3495 44.6007 54.4518 45.1878 54.0602 45.5685C53.7061 45.8861 53.3747 46.2565 53.0669 46.6687C51.2463 49.0914 51.3174 51.8523 51.3466 52.9862L51.3477 53.0292C51.3502 53.1277 51.3522 53.2127 51.3522 53.2829V66.9316C52.5297 67.1366 53.7101 67.3389 54.8909 67.5412L54.8924 67.5415L55.1069 67.5782C56.1834 67.7627 57.2602 67.9474 58.3347 68.1343V53.6281C58.3347 53.3564 58.3631 52.9534 58.507 52.5053C58.5372 52.4142 58.9734 51.1252 60.198 50.4595C60.669 50.1936 61.1638 50.0927 61.621 50.0784C62.3427 50.0499 63.0154 50.2432 63.514 50.4478C63.9993 50.6467 64.3397 50.8647 64.425 50.9271C66.1969 52.1448 66.4457 54.1884 66.4738 54.4986C66.4854 55.0741 66.4944 55.6495 66.5031 56.2244L66.5069 56.4709C66.5156 57.0493 66.5243 57.6278 66.5353 58.2054C67.7202 58.399 68.9023 58.5953 70.0839 58.7916L70.0876 58.7922C71.2274 58.9815 72.3672 59.1708 73.5091 59.3576C73.5083 58.8444 73.5041 58.1807 73.483 57.4064C73.4697 56.8746 73.4566 56.415 73.4306 56.0235C73.4306 56.0302 73.3634 54.855 73.3639 54.8618C73.3133 54.2503 73.1058 53.0833 72.5703 51.7029C71.9767 50.185 70.9958 48.4192 69.4168 46.8601L69.4115 46.8549L69.4033 46.8467C68.4721 45.9249 65.8606 43.3629 61.7362 43.1179C61.1522 43.089 58.6618 42.966 56.2659 44.0865C56.1044 44.1644 55.9442 44.2449 55.7864 44.3297Z" fill="white"/>
<path fill-rule="evenodd" clip-rule="evenodd" d="M87.89 102.752L93.1923 108.909C93.2918 109.022 93.5183 109.136 93.6357 109.043C95.4743 107.584 97.8727 105.389 100.164 102.298C103.042 98.4041 104.388 94.9248 104.735 94.0115L104.736 94.0102C105.965 90.7351 106.285 88.2069 106.814 83.9741C107.297 80.05 107.359 77.0879 107.449 72.7456C107.501 69.7308 107.591 65.405 107.252 60.0229C107.04 56.6966 106.735 53.8629 106.47 51.6952C106.457 51.5881 106.385 51.4978 106.284 51.462C106.249 51.4497 106.22 51.4448 106.184 51.4464L98.7819 51.2472C98.7044 51.2452 98.6294 51.2752 98.5746 51.3302C98.0654 51.8417 97.5593 52.3534 97.0538 52.8644C96.5482 53.3756 96.0429 53.8864 95.5344 54.3972C95.502 54.4297 95.4657 54.4863 95.4522 54.5284L95.509 55.2064C95.7556 57.2842 96.0041 59.9523 96.1971 62.9806C96.5346 68.3397 96.4622 72.4723 96.4095 75.4847C96.3194 79.8341 96.2423 82.9306 95.7625 86.8254C95.2335 91.0629 94.3628 92.051 92.6083 95.0707C92.1202 95.8823 90.8347 97.8737 88.5703 100.931C88.3825 101.195 87.9857 101.704 87.7043 102.075C87.5641 102.259 87.5723 102.356 87.7043 102.538L87.89 102.752ZM96.761 62.9444C97.1 68.3265 97.0108 72.4126 96.958 75.4273L96.9548 75.5843C96.8665 79.8472 96.8008 83.019 96.3232 86.8956C95.7948 91.1284 94.9178 92.1816 93.1364 95.2728C92.6083 96.1891 91.0164 98.6931 88.2638 102.323L93.5421 108.448C97.1601 104.19 99.1017 101.68 101.508 95.6891C102.936 91.5304 103.291 87.699 103.635 83.9135C103.937 80.5567 103.938 77.9269 103.872 74.3987C103.78 69.6086 103.547 63.013 102.966 54.933L96.0257 54.8837C96.2813 57.0143 96.5581 59.7595 96.761 62.9444ZM97.4547 53.2644C97.1072 53.6157 96.7594 53.9673 96.4106 54.3189L103.102 54.3664C103.568 53.9096 104.032 53.45 104.497 52.9896L104.498 52.9885L104.501 52.9856C104.834 52.6557 105.167 52.3251 105.502 51.9958L98.8883 51.8179C98.409 52.2996 97.9324 52.7814 97.4555 53.2636L97.4547 53.2644ZM103.52 54.7617C104.108 62.9124 104.345 69.5633 104.437 74.3878C104.503 77.9227 104.503 80.577 104.198 83.9648C103.854 87.7469 103.495 91.6427 102.042 95.8747C101.274 98.0992 99.8285 101.472 97.0131 105.178C97.9015 104.238 98.8145 103.168 99.7109 101.959C102.543 98.1264 103.867 94.7026 104.207 93.8094C105.41 90.6057 105.724 88.1414 106.253 83.9039C106.733 80.0091 106.795 76.9975 106.885 72.648L106.89 72.3874C106.943 69.3941 107.016 65.2654 106.688 60.0591C106.495 57.0308 106.225 54.412 105.978 52.3342C105.621 52.6858 105.264 53.0388 104.908 53.3922L104.907 53.3933L104.906 53.394C104.446 53.8501 103.984 54.3075 103.52 54.7617Z" fill="black"/>
<path fill-rule="evenodd" clip-rule="evenodd" d="M96.4106 54.3189C96.7594 53.9673 97.1072 53.6157 97.4547 53.2644L97.4555 53.2636C97.9324 52.7814 98.409 52.2996 98.8883 51.8179L105.502 51.9958C105.167 52.3251 104.834 52.6557 104.501 52.9856L104.498 52.9885L104.497 52.9896C104.032 53.45 103.568 53.9096 103.102 54.3664L96.4106 54.3189Z" fill="#EBECEE"/>
<path d="M96.958 75.4273C97.0108 72.4126 97.1 68.3265 96.761 62.9444C96.5581 59.7595 96.2813 57.0143 96.0257 54.8837L102.966 54.933C103.547 63.013 103.78 69.6086 103.872 74.3987C103.938 77.9269 103.937 80.5567 103.635 83.9135C103.291 87.699 102.936 91.5304 101.508 95.6891C99.1017 101.68 97.1601 104.19 93.5421 108.448L88.2638 102.323C91.0164 98.6931 92.6083 96.1891 93.1364 95.2728C94.9178 92.1816 95.7948 91.1284 96.3232 86.8956C96.8008 83.019 96.8665 79.8472 96.9548 75.5843L96.958 75.4273Z" fill="white"/>
<path d="M104.437 74.3878C104.345 69.5633 104.108 62.9124 103.52 54.7617C103.984 54.3075 104.446 53.8501 104.906 53.394L104.907 53.3933L104.908 53.3922C105.264 53.0388 105.621 52.6858 105.978 52.3342C106.225 54.412 106.495 57.0308 106.688 60.0591C107.016 65.2654 106.943 69.3941 106.89 72.3874L106.885 72.648C106.795 76.9975 106.733 80.0091 106.253 83.9039C105.724 88.1414 105.41 90.6057 104.207 93.8094C103.867 94.7026 102.543 98.1264 99.7109 101.959C98.8145 103.168 97.9015 104.238 97.0131 105.178C99.8285 101.472 101.274 98.0992 102.042 95.8747C103.495 91.6427 103.854 87.7469 104.198 83.9648C104.503 80.577 104.503 77.9227 104.437 74.3878Z" fill="#EBECEE"/>
<path fill-rule="evenodd" clip-rule="evenodd" d="M43.9722 74.4373C43.1156 69.4833 43.3757 65.2636 43.7628 62.3386C43.3985 65.239 43.1564 69.7196 43.9722 74.4373Z" fill="black"/>
<path fill-rule="evenodd" clip-rule="evenodd" d="M38.816 57.675C38.881 57.6106 38.973 57.5817 39.0629 57.5973C40.3186 57.8164 41.571 58.0355 42.8234 58.2545L42.8259 58.255C44.0701 58.4726 45.3144 58.6902 46.5618 58.9078C46.6712 58.9128 46.7685 58.9811 46.8104 59.0836C46.2455 63.7942 46.5274 67.8404 46.9082 70.6233C47.381 74.0407 47.7989 77.0609 49.6528 80.5115C52.2767 85.4285 56.0377 87.9995 57.1568 88.7185C58.3957 89.5174 62.2465 91.8248 67.5951 92.1262C69.6115 92.2453 72.2184 92.359 75.0957 90.9594C76.7368 90.1547 77.9362 89.1276 78.675 88.3725C78.9976 87.8675 79.2045 87.4717 79.4453 86.967C79.7104 86.4115 79.93 85.8612 80.113 85.3272C80.7274 83.5341 80.9295 81.9238 81.0563 80.9133C81.291 78.9614 81.1876 77.3049 81.07 76.1377C81.0382 76.0361 81.0657 75.9253 81.1411 75.8505L84.2341 72.7836C84.2989 72.7194 84.3904 72.6905 84.48 72.7058C85.7205 72.9179 86.9577 73.1299 88.1947 73.342L88.2011 73.3431C89.4403 73.5555 90.6795 73.7679 91.9219 73.9804C91.9632 73.9935 92.0041 74.009 92.0393 74.0296C92.0865 74.0637 92.123 74.1122 92.1423 74.1695C92.4762 76.5982 92.6897 80.6942 91.1907 85.1711C90.9744 85.8226 89.9057 88.8936 87.5419 92.1263C86.6679 93.3234 85.7945 94.2954 85.3027 94.8428L85.2901 94.8569L85.289 94.8581C84.0428 96.2296 82.4579 97.8093 81.3564 98.6863L81.3542 98.6881C80.3257 99.4901 79.2575 100.081 78.0973 100.528C71.853 104.162 65.6523 103.5 62.9594 103.18C56.3047 102.375 51.8151 99.2734 49.5723 97.6871C47.2065 96.0184 39.6537 90.1935 37.1156 80.5463C36.2478 77.2477 36.0356 73.7789 35.7585 69.1258C35.5596 65.7708 35.5463 63.0532 35.586 61.0694C35.5538 60.9672 35.5817 60.8554 35.6581 60.7805C36.7157 59.7448 37.7725 58.7099 38.816 57.675ZM42.7267 58.8137C43.803 59.002 44.8794 59.1903 45.9579 59.3786L43.399 61.9155C42.1712 61.7173 40.9463 61.5192 39.7214 61.3211L39.7173 61.3204C38.6305 61.1446 37.5437 60.9688 36.4548 60.793C37.3432 59.9229 38.2308 59.0523 39.1095 58.1816C40.3167 58.3922 41.5209 58.6028 42.7252 58.8135L42.7267 58.8137ZM81.6946 76.4213C82.8485 76.6196 84 76.8178 85.1515 77.0161L85.2439 77.032L85.2537 77.0337L85.3805 77.0555C85.3837 77.0561 85.3869 77.0566 85.3901 77.0572C85.4733 77.0715 85.5564 77.0858 85.6393 77.1001C85.6499 77.1019 85.6605 77.1038 85.671 77.1056C85.7922 77.1264 85.9116 77.147 86.0297 77.1673C86.9285 77.3221 87.7527 77.464 88.7229 77.6306C88.9581 79.81 89.1688 84.3525 86.8184 89.6516C86.0437 91.3794 83.3988 96.6297 77.8052 100.035C71.7352 103.561 65.6984 102.934 63.0264 102.617C56.5159 101.829 52.1223 98.7965 49.8973 97.2228C47.5573 95.5723 40.1468 89.8462 37.6619 80.4013C36.8113 77.1678 36.6005 73.7591 36.3225 69.092C36.1355 65.9356 36.1254 63.2769 36.1583 61.3288C37.3259 61.5172 38.4908 61.7057 39.6559 61.8941L39.6601 61.8948C40.8405 62.0857 42.0218 62.2768 43.2049 62.4677C42.8274 65.3971 42.5817 69.7127 43.4154 74.5344L43.4167 74.5415C44.0215 78.055 44.6523 81.712 47.225 85.6217C48.5365 87.6245 51.6015 91.564 56.9973 93.9443C59.2188 94.9198 64.004 97.0207 69.7692 95.4316C71.2278 95.0284 76.0863 93.4638 79.0791 88.7923C79.4277 88.2466 79.7264 87.6966 79.9832 87.1524C80.226 86.6378 80.4312 86.1282 80.6054 85.6321C81.2719 83.7345 81.49 81.9958 81.62 80.9593C81.8372 79.1535 81.7935 77.5883 81.6946 76.4213ZM85.2091 76.4303L85.2072 76.43L85.1926 76.4274L85.1866 76.4264C84.1018 76.2396 83.0168 76.0528 81.9298 75.866L84.528 73.2897C85.7226 73.494 86.9144 73.6983 88.1061 73.9026C89.1731 74.0855 90.2402 74.2684 91.3094 74.4513L88.8774 77.0614C87.6527 76.851 86.4309 76.6407 85.2091 76.4303ZM43.7628 62.3386C43.3757 65.2636 43.1156 69.4833 43.9722 74.4373C44.5801 77.9684 45.1945 81.5 47.6969 85.3094C48.9762 87.2632 51.9395 91.0781 57.1975 93.3977C59.3876 94.3651 64.012 96.3959 69.5929 94.8576C70.7685 94.5326 74.1693 93.4418 76.938 90.5422C76.4653 90.8637 75.9349 91.1796 75.3433 91.4696C72.326 92.9374 69.5916 92.8127 67.5634 92.6929C62.0736 92.3835 58.1255 90.0177 56.8524 89.1966C55.698 88.4551 51.8451 85.821 49.1553 80.7807C47.2531 77.24 46.8196 74.1067 46.3484 70.7012C45.9843 68.0403 45.7269 64.3565 46.1796 59.9426L43.7628 62.3386ZM87.3343 89.8831C89.6966 84.5578 89.5094 79.7508 89.2743 77.4663L91.6694 74.8958C91.9421 77.3075 92.0002 80.9731 90.6547 84.9912C90.4477 85.6151 89.4014 88.6245 87.0863 91.7905C86.2293 92.9644 85.3715 93.9191 84.881 94.4651L84.8711 94.476C84.606 94.7678 84.3262 95.0682 84.0396 95.3686C85.8975 93.0529 86.8801 90.8961 87.3339 89.8842L87.3343 89.8831Z" fill="black"/>
<path d="M43.7628 62.3386C43.3985 65.239 43.1564 69.7196 43.9722 74.4373C44.5801 77.9684 45.1945 81.5 47.6969 85.3094C48.9762 87.2632 51.9395 91.0781 57.1975 93.3977C59.3876 94.3651 64.012 96.3959 69.5929 94.8576C70.7685 94.5326 74.1693 93.4418 76.938 90.5422C76.4653 90.8637 75.9349 91.1796 75.3433 91.4696C72.326 92.9374 69.5916 92.8127 67.5634 92.6929C62.0736 92.3835 58.1255 90.0177 56.8524 89.1966C55.698 88.4551 51.8451 85.821 49.1553 80.7807C47.2531 77.24 46.8196 74.1067 46.3484 70.7012C45.9843 68.0403 45.7269 64.3565 46.1796 59.9426L43.7628 62.3386Z" fill="#EBECEE"/>
<path d="M85.1515 77.0161C84 76.8178 82.8485 76.6196 81.6946 76.4213C81.7935 77.5883 81.8372 79.1535 81.62 80.9593C81.49 81.9958 81.2719 83.7345 80.6054 85.6321C80.4312 86.1282 80.226 86.6378 79.9832 87.1524C79.7264 87.6966 79.4277 88.2466 79.0791 88.7923C76.0863 93.4638 71.2278 95.0284 69.7692 95.4316C64.004 97.0207 59.2188 94.9198 56.9973 93.9443C51.6015 91.564 48.5365 87.6245 47.225 85.6217C44.6523 81.712 44.0215 78.055 43.4167 74.5415L43.4154 74.5344C42.5817 69.7127 42.8274 65.3971 43.2049 62.4677C42.0218 62.2768 40.8405 62.0857 39.6601 61.8948L39.6559 61.8941C38.4908 61.7057 37.3259 61.5172 36.1583 61.3288C36.1254 63.2769 36.1355 65.9356 36.3225 69.092C36.6005 73.7591 36.8113 77.1678 37.6619 80.4013C40.1468 89.8462 47.5573 95.5723 49.8973 97.2228C52.1223 98.7965 56.5159 101.829 63.0264 102.617C65.6984 102.934 71.7352 103.561 77.8052 100.035C83.3988 96.6297 86.0437 91.3794 86.8184 89.6516C89.1688 84.3525 88.9581 79.81 88.7229 77.6306C87.7527 77.464 86.9285 77.3221 86.0297 77.1673L85.671 77.1056L85.6393 77.1001L85.636 77.0995L85.3901 77.0572L85.3805 77.0555L85.2537 77.0337L85.2439 77.032L85.1515 77.0161Z" fill="white"/>
<path d="M42.7267 58.8137C43.803 59.002 44.8794 59.1903 45.9579 59.3786L43.399 61.9155C42.1712 61.7173 40.9463 61.5192 39.7214 61.3211L39.7173 61.3204C38.6305 61.1446 37.5437 60.9688 36.4548 60.793C37.3432 59.9229 38.2308 59.0523 39.1095 58.1816C40.3167 58.3922 41.5209 58.6028 42.7252 58.8135L42.7267 58.8137Z" fill="#EBECEE"/>
<path d="M85.2091 76.4303L85.2072 76.43L85.1926 76.4274L85.1866 76.4264C84.1018 76.2396 83.0168 76.0528 81.9298 75.866L84.528 73.2897C85.7226 73.494 86.9144 73.6983 88.1061 73.9026C89.1731 74.0855 90.2402 74.2684 91.3094 74.4513L88.8774 77.0614C87.6527 76.851 86.4309 76.6407 85.2091 76.4303Z" fill="#EBECEE"/>
<path d="M87.3343 89.8831C89.6966 84.5578 89.5094 79.7508 89.2743 77.4663L91.6694 74.8958C91.9421 77.3075 92.0002 80.9731 90.6547 84.9912C90.4477 85.6151 89.4014 88.6245 87.0863 91.7905C86.2293 92.9644 85.3715 93.9191 84.881 94.4651L84.8711 94.476C84.606 94.7678 84.3262 95.0682 84.0396 95.3686C85.8975 93.0529 86.8801 90.8961 87.3339 89.8842L87.3343 89.8831Z" fill="#EBECEE"/>
<path fill-rule="evenodd" clip-rule="evenodd" d="M76.2535 64.4908C75.5691 64.3722 74.8802 64.2512 74.1921 64.1304C73.7886 64.0595 73.3854 63.9887 72.9835 63.9185C71.759 63.7044 70.5346 63.4904 69.3134 63.2794L66.7949 65.7758L69.2708 66.2012C69.4108 66.2278 69.5517 66.2544 69.6929 66.2806C70.0102 66.3396 70.329 66.3968 70.6428 66.4489C70.6766 66.4545 70.7103 66.46 70.7439 66.4655L70.748 66.4662C71.2693 66.5589 71.7874 66.6485 72.3063 66.7381C72.7774 66.8195 73.2493 66.901 73.7236 66.985L76.2535 64.4908Z" fill="#EBECEE"/>
<path fill-rule="evenodd" clip-rule="evenodd" d="M54.2323 72.0812L51.7159 74.5755C52.1361 74.6449 52.5574 74.7142 52.9787 74.7836C53.5834 74.8832 54.1888 74.9828 54.7902 75.0824C55.4305 75.1885 56.0709 75.2913 56.7121 75.3942C57.3057 75.4895 57.9003 75.5849 58.4947 75.683L61.0111 73.1887C59.9507 73.014 58.8882 72.8413 57.8253 72.6686C56.627 72.4738 55.4282 72.279 54.2323 72.0812Z" fill="#EBECEE"/>
<path fill-rule="evenodd" clip-rule="evenodd" d="M60.7277 79.9788C60.8745 80.0641 61.4162 80.3745 62.1287 80.5594C61.4151 80.3759 60.8743 80.064 60.7277 79.9788Z" fill="black"/>
<path fill-rule="evenodd" clip-rule="evenodd" d="M72.9305 83.0456C72.8727 83.1497 72.8084 83.2632 72.7348 83.3747C72.4439 83.8533 72.0649 84.3423 71.701 84.7491C71.6347 84.8208 71.5674 84.8938 71.4991 84.9682C71.5654 84.8984 71.6329 84.8252 71.701 84.7491C71.8787 84.5569 72.0494 84.3737 72.2137 84.1973C73.7843 82.5115 74.7728 81.4504 75.7951 79.063C76.251 77.8844 76.5618 76.333 76.5486 75.6027V64.9823L74.0876 67.4217V78.2164M64.4342 79.8507C63.7062 80.218 62.9238 80.1779 62.2701 80.0099C62.9235 80.1794 63.7067 80.224 64.4342 79.8507Z" fill="#EBECEE"/>
<path d="M65.8591 77.7138C64.8035 77.6155 63.9254 77.1105 63.7329 76.9999C62.6948 76.3757 62.1033 75.4563 61.7691 74.6649C61.5971 74.2577 61.4914 73.8803 61.4273 73.5864L58.9002 76.0914C58.9752 76.6503 59.3521 78.4961 61.0078 79.4858L61.0097 79.4869L61.0148 79.4899C61.1482 79.5674 61.6325 79.8444 62.2701 80.0099C62.9238 80.1779 63.7062 80.218 64.4342 79.8507C64.6918 79.7057 65.2975 79.3262 65.5937 78.7429C65.7379 78.4426 65.8152 78.1408 65.8591 77.7138Z" fill="#EBECEE"/>
<path fill-rule="evenodd" clip-rule="evenodd" d="M65.9021 87.9381C66.4819 87.7892 67.3338 87.5376 68.0848 87.2413C69.1898 86.8081 70.4494 86.1617 71.6886 85.2148C71.9124 85.0461 73.6026 83.7382 74.9741 81.7933L74.9756 81.7912L75.0203 81.7266C75.3574 81.2402 75.9128 80.4388 76.3679 79.264C76.501 78.9294 76.595 78.6346 76.6623 78.4059C76.6722 78.3806 76.6794 78.356 76.6838 78.3392C76.6927 78.3228 76.7 78.3055 76.7055 78.2875C77.1001 77.0028 77.1544 75.8432 77.141 75.0945V64.2898C77.141 64.1754 77.0726 64.0721 76.9675 64.028C76.47 63.9421 75.9606 63.8549 75.4484 63.7673C74.6543 63.6314 73.8534 63.4944 73.08 63.3592C71.8078 63.1369 70.5353 62.9144 69.2661 62.6953C69.1763 62.6798 69.0846 62.7087 69.0198 62.773L66.006 65.7603C65.9423 65.8145 65.9085 65.8796 65.9088 65.9634C65.922 69.3225 65.9352 72.6943 65.9352 76.0527C65.9319 76.1067 65.9254 76.3475 65.9189 76.5905C65.9121 76.8426 65.9053 77.097 65.9017 77.1478C64.975 77.0594 64.2019 76.6154 64.0237 76.5131L64.0208 76.5114C63.1173 75.9673 62.5926 75.1614 62.2893 74.4432C61.9852 73.7233 61.9107 73.1072 61.8992 72.9744C61.8897 72.8648 61.8181 72.7707 61.7153 72.7327C60.4723 72.5268 59.1613 72.3107 57.9155 72.1083C56.6697 71.9058 55.4242 71.7034 54.1822 71.4977C54.093 71.4829 54.0021 71.5119 53.9378 71.5757L50.924 74.563C50.8484 74.638 50.821 74.7492 50.8532 74.8509C50.9338 76.3484 51.2703 79.0011 53.0118 81.7673L53.0131 81.7693C53.27 82.1699 54.3589 83.8409 56.1973 85.3833C58.0363 86.9263 60.6436 88.3552 63.9283 88.2323C64.1639 88.2131 64.9699 88.1473 65.9021 87.9381ZM72.9555 83.0004C73.938 81.205 74.0876 79.3202 74.0876 78.2164V67.4217L76.5486 64.9823V75.6027C76.5618 76.333 76.251 77.8844 75.7951 79.063C74.7728 81.4504 73.7843 82.5115 72.2137 84.1973C72.0494 84.3737 71.8787 84.5569 71.701 84.7491C71.6329 84.8252 71.5654 84.8984 71.4991 84.9682C71.5674 84.8938 71.6347 84.8208 71.701 84.7491C72.0649 84.3423 72.4439 83.8533 72.7348 83.3747C72.8084 83.2632 72.8727 83.1497 72.9305 83.0456L72.9549 83.0015L72.9555 83.0004ZM64.4342 79.8507C63.7067 80.224 62.9235 80.1794 62.2701 80.0099C61.6317 79.8457 61.1466 79.5665 61.0148 79.4899L61.0097 79.4869L61.0078 79.4858C59.3521 78.4961 58.9752 76.6503 58.9002 76.0914L61.4273 73.5864C61.4914 73.8803 61.5971 74.2577 61.7691 74.6649C62.1033 75.4563 62.6948 76.3757 63.7329 76.9999C63.9254 77.1105 64.8035 77.6155 65.8591 77.7138C65.8152 78.1408 65.7379 78.4426 65.5937 78.7429C65.554 78.8241 65.5077 78.9013 65.4569 78.9746C65.1083 79.4891 64.6099 79.7565 64.4342 79.8507ZM72.1974 67.2975C72.6389 67.3737 73.0798 67.4499 73.5225 67.5281L73.5622 78.3367C73.5622 79.3836 73.3946 81.0439 72.4738 82.7269C72.4143 82.8344 72.3489 82.9328 72.2844 83.0296L72.2612 83.0646C71.1254 84.9359 69.445 86.0545 67.8697 86.7164C67.1514 86.9997 66.3854 87.231 65.834 87.3738C64.9397 87.5759 64.1521 87.6444 63.8981 87.6654C60.8027 87.7785 58.3307 86.4337 56.5596 84.9477C54.7875 83.461 53.7354 81.8475 53.4888 81.463C51.9484 79.0156 51.5535 76.5886 51.4406 75.0896C51.9231 75.1693 52.4101 75.2495 52.8943 75.3292L52.9009 75.3303C53.5057 75.4299 54.1103 75.5294 54.7115 75.629C55.3531 75.7353 55.9945 75.8382 56.6351 75.941L56.6362 75.9412C57.208 76.033 57.7791 76.1247 58.35 76.2186C58.3959 76.5198 58.5059 77.048 58.7554 77.6389C59.0896 78.4303 59.6811 79.3496 60.7192 79.9739L60.7277 79.9788C60.8745 80.0641 61.4162 80.3745 62.1287 80.5594C62.8559 80.7481 63.8308 80.7983 64.7284 80.3365C64.9394 80.2239 65.6798 79.8249 66.102 78.991C66.323 78.5321 66.4 78.1649 66.4407 77.5516C66.4539 77.3662 66.4736 77.074 66.4869 76.8606C66.4983 76.5786 66.5125 76.2291 66.5003 76.043C66.5003 72.7991 66.4879 69.543 66.4752 66.299L69.155 66.7594C69.2995 66.7868 69.4449 66.8131 69.5903 66.8388C69.6923 66.8568 69.7945 66.8746 69.896 66.8923L69.8971 66.8925C70.115 66.9304 70.331 66.968 70.5443 67.0078L70.633 67.0245L70.6362 67.0251C71.1591 67.1181 71.6788 67.2079 72.1974 67.2975ZM69.3134 63.2794C70.5346 63.4904 71.759 63.7044 72.9835 63.9185C73.3854 63.9887 73.7886 64.0595 74.1921 64.1304C74.8802 64.2512 75.5691 64.3722 76.2535 64.4908L73.7236 66.985C73.2493 66.901 72.7774 66.8195 72.3063 66.7381C71.7874 66.6485 71.2693 66.5589 70.748 66.4662L70.7439 66.4655L70.6428 66.4489C70.329 66.3968 70.0102 66.3396 69.6929 66.2806C69.5517 66.2544 69.4108 66.2278 69.2708 66.2012L66.7949 65.7758L69.3134 63.2794ZM51.7159 74.5755C52.1361 74.6449 52.5574 74.7142 52.9787 74.7836C53.5834 74.8832 54.1888 74.9828 54.7902 75.0824C55.4305 75.1885 56.0709 75.2913 56.7121 75.3942C57.3057 75.4895 57.9003 75.5849 58.4947 75.683L61.0111 73.1887C59.9507 73.014 58.8882 72.8413 57.8253 72.6686C56.627 72.4738 55.4282 72.279 54.2323 72.0812L51.7159 74.5755Z" fill="black"/>
<path d="M73.5225 67.5281C73.0798 67.4499 72.6389 67.3737 72.1974 67.2975C71.6788 67.2079 71.1591 67.1181 70.6362 67.0251L70.633 67.0245L70.5443 67.0078C70.2281 66.9553 69.9077 66.8977 69.5903 66.8388C69.4449 66.8131 69.2995 66.7868 69.155 66.7594L66.4752 66.299C66.4879 69.543 66.5003 72.7991 66.5003 76.043C66.5125 76.2291 66.4983 76.5786 66.4869 76.8606C66.4736 77.074 66.4539 77.3662 66.4407 77.5516C66.4 78.1649 66.323 78.5321 66.102 78.991C65.6951 79.8225 64.9442 80.222 64.7284 80.3365C63.8308 80.7983 62.8559 80.7481 62.1287 80.5594C61.4151 80.3759 60.8743 80.064 60.7277 79.9788L60.7192 79.9739C59.6811 79.3496 59.0896 78.4303 58.7554 77.6389C58.5059 77.048 58.3959 76.5198 58.35 76.2186C57.7791 76.1247 57.208 76.033 56.6362 75.9412L56.6351 75.941C55.9945 75.8382 55.3531 75.7353 54.7115 75.629C54.1103 75.5294 53.5057 75.4299 52.9009 75.3303L52.8943 75.3292C52.4101 75.2495 51.9231 75.1693 51.4406 75.0896C51.5535 76.5886 51.9484 79.0156 53.4888 81.463C53.7354 81.8475 54.7875 83.461 56.5596 84.9477C58.3307 86.4337 60.8027 87.7785 63.8981 87.6654C64.1521 87.6444 64.9397 87.5759 65.834 87.3738C66.3854 87.231 67.1514 86.9997 67.8697 86.7164C69.445 86.0545 71.1254 84.9359 72.2612 83.0646L72.2844 83.0296C72.3489 82.9328 72.4143 82.8344 72.4738 82.7269C73.3946 81.0439 73.5622 79.3836 73.5622 78.3367L73.5225 67.5281Z" fill="white"/>
<path fill-rule="evenodd" clip-rule="evenodd" d="M67.7316 118.49C76.2365 118.677 82.7841 116.177 86.2171 114.574L89.3882 111.506C89.483 111.413 89.501 111.267 89.4315 111.153C88.3998 109.474 87.3611 107.802 86.3209 106.127C85.9213 105.484 85.5214 104.84 85.1217 104.195C85.0765 104.122 85.0008 104.074 84.9159 104.064C84.8544 104.064 84.7477 104.082 84.699 104.119C81.9325 105.435 76.9255 107.368 70.4343 107.368C61.7452 107.368 55.4005 103.918 52.7257 102.246C52.6154 102.177 52.4724 102.192 52.3792 102.284L49.2343 105.382C48.7658 106.402 48.2112 107.611 47.7462 108.628C47.2802 109.647 46.8144 110.666 46.3452 111.688C46.2858 111.817 46.3312 111.971 46.4512 112.047C49.7249 114.119 57.2969 118.263 67.7316 118.49ZM48.2598 108.865C47.8284 109.808 47.3966 110.752 46.9625 111.699C50.2985 113.782 57.6695 117.703 67.7439 117.923C75.9031 118.102 82.2372 115.774 85.6946 114.19C85.604 114.044 85.5135 113.898 85.4232 113.751L85.4216 113.749C85.2761 113.513 85.1312 113.278 84.9864 113.047L84.9853 113.045C83.8926 111.271 82.7877 109.485 81.6824 107.71C78.8391 109.045 73.8169 110.936 67.3413 110.936C61.2887 110.936 56.3703 109.289 52.9865 107.71C52.1209 107.308 51.3473 106.907 50.6921 106.531C50.2905 106.303 49.9367 106.091 49.6189 105.896C49.1639 106.888 48.7119 107.876 48.2598 108.865ZM83.5202 105.269C80.5635 106.516 76.0443 107.935 70.4343 107.935C61.7942 107.935 55.4359 104.583 52.6156 102.845L49.938 105.465C50.2365 105.649 50.5774 105.848 50.956 106.063C51.6011 106.42 52.3606 106.827 53.2103 107.221C56.5412 108.776 61.3915 110.395 67.3277 110.395C73.8345 110.382 78.85 108.453 81.612 107.137L83.5202 105.269ZM82.1484 107.417C83.246 109.198 84.3554 110.991 85.4648 112.771C85.6107 113.004 85.7565 113.241 85.9017 113.476L85.9033 113.479C85.9862 113.613 86.0691 113.747 86.1517 113.881L88.8316 111.258C87.8414 109.648 86.8451 108.044 85.8467 106.436C85.8456 106.434 85.8445 106.433 85.8434 106.431L85.8422 106.429C85.5042 105.885 85.166 105.34 84.8276 104.795L82.1484 107.417Z" fill="black"/>
<path d="M48.2598 108.865C48.7119 107.876 49.1639 106.888 49.6189 105.896C49.9367 106.091 50.2905 106.303 50.6921 106.531C51.3473 106.907 52.1209 107.308 52.9865 107.71C56.3703 109.289 61.2887 110.936 67.3413 110.936C73.8169 110.936 78.8391 109.045 81.6824 107.71C82.7877 109.485 83.8926 111.271 84.9853 113.045L84.9864 113.047C85.1312 113.278 85.2761 113.513 85.4216 113.749L85.4232 113.751C85.5135 113.898 85.604 114.044 85.6946 114.19C82.2372 115.774 75.9031 118.102 67.7439 117.923C57.6695 117.703 50.2985 113.782 46.9625 111.699C47.3966 110.752 47.8284 109.808 48.2598 108.865Z" fill="white"/>
<path d="M85.4648 112.771C84.3554 110.991 83.246 109.198 82.1484 107.417L84.8276 104.795C85.166 105.34 85.5042 105.885 85.8422 106.429L85.8434 106.431L85.8467 106.436C86.8451 108.044 87.8414 109.648 88.8316 111.258L86.1517 113.881C86.0691 113.747 85.9862 113.613 85.9033 113.479L85.9017 113.476C85.7565 113.241 85.6107 113.004 85.4648 112.771Z" fill="#EBECEE"/>
<path d="M70.4343 107.935C76.0443 107.935 80.5635 106.516 83.5202 105.269L81.612 107.137C78.85 108.453 73.8345 110.382 67.3277 110.395C61.3915 110.395 56.5412 108.776 53.2103 107.221C52.3606 106.827 51.6011 106.42 50.956 106.063C50.5774 105.848 50.2365 105.649 49.938 105.465L52.6156 102.845C55.4359 104.583 61.7942 107.935 70.4343 107.935Z" fill="#EBECEE"/>
<path d="M42.3216 102.304C42.6299 101.905 42.9344 101.483 43.2428 101.085L43.348 101.011C43.0052 101.443 42.663 101.874 42.3216 102.304Z" fill="white"/>
<path fill-rule="evenodd" clip-rule="evenodd" d="M42.3682 103.128C43.6465 101.517 44.9375 99.8923 46.2289 98.2677C46.2958 98.204 46.3332 98.0871 46.3197 97.9956C46.3065 97.906 46.2712 97.8167 46.1916 97.7746C43.4043 95.354 38.7098 90.6519 35.3724 83.264C31.7225 75.1933 31.5123 67.9266 31.6567 64.1541C31.6611 64.0391 31.5817 63.9483 31.4774 63.9006C31.4283 63.8792 31.4107 63.883 31.3472 63.8625C30.1198 63.6615 28.8921 63.4636 27.6652 63.2657C26.4094 63.0633 25.154 62.8608 23.8987 62.6551C23.8076 62.6402 23.7151 62.6709 23.6507 62.7373C22.6851 63.7337 21.7193 64.7437 20.7546 65.7524C20.6915 65.8035 20.6798 65.8549 20.6761 65.9362C20.4767 70.3285 20.6892 77.9934 24.1328 86.6204C28.3474 97.1835 35.154 103.606 38.6769 106.504C38.7899 106.602 38.9668 106.603 39.0713 106.495C40.1545 105.381 41.251 104.266 42.3482 103.151C42.3553 103.144 42.362 103.136 42.3682 103.128ZM43.2428 101.085C42.9344 101.483 42.6299 101.905 42.3216 102.304C42.663 101.874 43.0052 101.443 43.348 101.011L43.2428 101.085ZM42.6294 100.924C42.2943 100.638 41.939 100.325 41.5498 99.9772L41.5482 99.9759C38.5676 97.276 34.1754 92.5171 31.1539 85.3644C28.5185 79.1477 27.9198 73.4797 27.8666 69.6041C27.8548 68.7871 27.8743 68.0545 27.8973 67.4086C26.7758 67.2172 25.6516 67.0285 24.527 66.8397C23.4265 66.655 22.3255 66.4702 21.227 66.2828C21.0555 70.6729 21.3362 78.0889 24.6573 86.4092C28.7357 96.6308 35.2706 102.931 38.8112 105.879C40.0838 104.235 41.3565 102.58 42.6294 100.924ZM45.6341 98.0397C42.7907 95.5418 38.1665 90.8229 34.8579 83.4986C31.3691 75.7841 30.9813 68.7953 31.0712 64.819C30.7031 65.1669 30.3361 65.515 29.969 65.8631C29.4644 66.3416 28.9595 66.8204 28.4517 67.2993C28.4186 67.9664 28.4185 68.7297 28.4185 69.598C28.4712 73.4356 29.0754 79.0122 31.6608 85.1422C34.6538 92.1962 38.9727 96.8904 41.9135 99.5541L41.9152 99.5557C42.3093 99.9185 42.6762 100.236 43.0088 100.515C43.8877 99.6896 44.7655 98.8646 45.6341 98.0397ZM30.7643 64.3423C29.7015 64.1689 28.6387 63.9976 27.5756 63.8261C26.3684 63.6315 25.1606 63.4368 23.953 63.2391C23.1462 64.0725 22.3393 64.9149 21.5319 65.759C22.5597 65.934 23.5897 66.1069 24.6201 66.2799L24.674 66.289C25.8158 66.4806 26.9583 66.6724 28.0978 66.8671C28.5982 66.3951 29.0961 65.923 29.5942 65.4506C29.9836 65.0813 30.3733 64.7118 30.7643 64.3423Z" fill="black"/>
<path d="M41.5498 99.9772C41.939 100.325 42.2943 100.638 42.6294 100.924C41.3565 102.58 40.0838 104.235 38.8112 105.879C35.2706 102.931 28.7357 96.6308 24.6573 86.4092C21.3362 78.0889 21.0555 70.6729 21.227 66.2828C22.3255 66.4702 23.4265 66.655 24.527 66.8397C25.6516 67.0285 26.7758 67.2172 27.8973 67.4086C27.8743 68.0545 27.8548 68.7871 27.8666 69.6041C27.9198 73.4797 28.5185 79.1477 31.1539 85.3644C34.1754 92.5171 38.5676 97.276 41.5482 99.9759L41.5498 99.9772Z" fill="white"/>
<path d="M34.8579 83.4986C38.1665 90.8229 42.7907 95.5418 45.6341 98.0397C44.7655 98.8646 43.8877 99.6896 43.0088 100.515C42.6762 100.236 42.3093 99.9185 41.9152 99.5557L41.9135 99.5541C38.9727 96.8904 34.6538 92.1962 31.6608 85.1422C29.0754 79.0122 28.4712 73.4356 28.4185 69.598C28.4185 68.7297 28.4186 67.9664 28.4517 67.2993C28.9595 66.8204 29.4644 66.3416 29.969 65.8631C30.3361 65.515 30.7031 65.1669 31.0712 64.819C30.9813 68.7953 31.3691 75.7841 34.8579 83.4986Z" fill="#EBECEE"/>
<path d="M27.5756 63.8261C28.6387 63.9976 29.7015 64.1689 30.7643 64.3423C30.3733 64.7118 29.9836 65.0813 29.5942 65.4506C29.0961 65.923 28.5982 66.3951 28.0978 66.8671C26.9583 66.6724 25.8158 66.4806 24.674 66.289L24.6201 66.2799C23.5897 66.1069 22.5597 65.934 21.5319 65.759C22.3393 64.9149 23.1462 64.0725 23.953 63.2391C25.1606 63.4368 26.3684 63.6315 27.5756 63.8261Z" fill="#EBECEE"/>
<path d="M14.345 104.067C14.2505 102.57 14.111 100.005 15.221 97.0493C15.5585 96.1515 16.1975 94.5128 17.63 92.9199C19.865 90.4388 22.5995 89.7469 23.903 89.4366C28.2485 88.4011 31.8845 89.9528 33.881 90.8236C41.645 94.2103 44.9855 101.438 45.8015 103.273C46.508 104.865 47.7425 107.718 47.7725 111.595C47.786 113.242 47.7755 115.886 46.3025 118.728C45.4517 120.37 44.265 121.792 42.8285 122.889C39.6245 125.324 36.206 125.299 34.7885 125.267C31.7045 125.199 29.4725 124.11 27.6575 123.222C25.5765 122.188 23.6481 120.842 21.932 119.225C20.6945 118.065 17.81 115.305 15.926 110.639C15.431 109.41 14.546 107.167 14.345 104.068V104.067Z" fill="#FF7E88"/>
<path d="M35.3826 125.571C35.1516 125.571 34.9506 125.566 34.7841 125.562C31.6386 125.492 29.3661 124.38 27.5391 123.487C25.4335 122.441 23.4823 121.079 21.7461 119.444C20.6151 118.386 17.6151 115.576 15.6681 110.751C15.2136 109.63 14.2731 107.298 14.0661 104.084C13.9746 102.662 13.8036 100.016 14.9616 96.9366C15.2721 96.1101 15.9171 94.3922 17.4276 92.7138C19.7676 90.1156 22.6236 89.4363 23.8431 89.1434C28.3266 88.0762 32.0121 89.6817 33.9921 90.5462C39.1656 92.8025 43.4496 97.2754 46.0581 103.145C46.6956 104.579 48.0231 107.567 48.0546 111.589C48.0666 113.096 48.0891 115.9 46.5501 118.867C45.6786 120.547 44.4643 122.002 42.9951 123.126C40.0686 125.349 36.9981 125.568 35.3841 125.568L35.3826 125.571ZM14.6256 104.044C14.8266 107.159 15.7431 109.427 16.1841 110.52C18.0831 115.219 21.0141 117.966 22.1181 119C23.8126 120.598 25.7174 121.928 27.7731 122.949C29.5536 123.82 31.7676 124.903 34.7946 124.969C36.0741 124.998 39.4716 125.074 42.6651 122.647C44.0663 121.574 45.2242 120.187 46.0551 118.584C47.5251 115.753 47.5041 113.153 47.4906 111.597C47.4606 107.703 46.1676 104.796 45.5451 103.398C42.9966 97.6649 38.8161 93.2965 33.7731 91.0972C31.8516 90.2581 28.2741 88.7001 23.9631 89.7261C22.7931 90.0032 20.0556 90.6555 17.8326 93.1255C16.3986 94.7183 15.7776 96.3666 15.4821 97.1582C14.3721 100.113 14.5371 102.67 14.6241 104.046L14.6256 104.044Z" fill="black"/>
<path d="M56.5026 106.674C56.0002 108.712 55.0937 110.615 53.8431 112.256L44.1561 121.714C45.0078 120.836 45.7317 119.829 46.3041 118.727C47.7771 115.885 47.786 113.24 47.7725 111.595C47.7425 107.716 46.5096 104.863 45.8031 103.272C44.9871 101.435 41.6451 94.2072 33.8826 90.8236C31.8861 89.9528 28.2485 88.4011 23.903 89.4366C22.844 89.6852 20.8476 90.1887 18.9351 91.696L27.8136 82.766C28.6992 82.166 29.6431 81.6676 30.6291 81.2793C34.5666 79.7323 38.0616 80.4053 39.4191 80.6855C43.2606 81.4772 45.7941 83.4168 47.4906 84.7468C49.6945 86.4825 51.6001 88.6043 53.1246 91.0199C54.1611 92.6618 55.9656 95.5799 56.6271 99.8391C56.8701 101.41 57.2121 103.761 56.5011 106.673L56.5026 106.674Z" fill="#FF535E"/>
<path d="M44.1576 122.01C44.1019 122.01 44.0475 121.992 44.0014 121.959C43.9552 121.926 43.9192 121.88 43.8981 121.825C43.8769 121.771 43.8714 121.711 43.8824 121.654C43.8933 121.596 43.9202 121.543 43.9596 121.502C44.7923 120.645 45.4991 119.661 46.0566 118.584C47.5251 115.753 47.5041 113.153 47.4906 111.598C47.4606 107.708 46.1706 104.797 45.5481 103.399C44.0721 100.079 40.5831 94.0672 33.7761 91.1C31.8561 90.2609 28.2816 88.6981 23.9661 89.7273C23.0856 89.9347 21.0261 90.4224 19.1046 91.9345C19.0477 91.9851 18.9741 92.0097 18.8999 92.0031C18.8258 91.9964 18.7572 91.9589 18.7093 91.8988C18.6614 91.8388 18.638 91.7611 18.6443 91.6829C18.6507 91.6046 18.6862 91.5322 18.7431 91.4816C21.7011 88.5034 24.6621 85.5251 27.6201 82.5516C27.6327 82.5378 27.6468 82.5256 27.6621 82.5152C28.5726 81.9009 29.5371 81.391 30.5316 81.0015C34.6236 79.3913 38.2746 80.1465 39.4746 80.3935C43.4601 81.2169 46.0896 83.2768 47.6601 84.507C49.8889 86.2645 51.8167 88.4113 53.3601 90.8546C54.2886 92.3255 56.2221 95.3861 56.9076 99.7894C57.1356 101.259 57.5166 103.716 56.7756 106.747C56.2664 108.826 55.3417 110.767 54.0636 112.439L54.0336 112.47L44.3481 121.931C44.2964 121.982 44.2283 122.01 44.1576 122.01ZM26.8206 88.7995C29.9871 88.7995 32.5761 89.9315 33.9906 90.549C40.9731 93.5954 44.5476 99.7482 46.0581 103.146C46.6971 104.584 48.0261 107.571 48.0561 111.593C48.0681 113.099 48.0906 115.903 46.5516 118.87L46.4391 119.081L53.6361 112.054C54.8577 110.452 55.7423 108.593 56.2311 106.602C56.9406 103.692 56.5716 101.313 56.3511 99.8891C55.6851 95.6125 53.8671 92.7325 52.8906 91.1871C51.3841 88.8009 49.502 86.7044 47.3256 84.9884C45.7926 83.785 43.2276 81.7774 39.3681 80.981C38.2071 80.7403 34.6731 80.0104 30.7296 81.5605C29.7711 81.9384 28.853 82.4219 27.9906 83.0029L20.8806 90.1548C21.8324 89.7098 22.8266 89.3733 23.8461 89.151C24.8232 88.9182 25.8219 88.8014 26.8236 88.8026L26.8206 88.7995Z" fill="black"/>
<path d="M28.9236 104.411V97.9229L33.1011 99.1626L33.1161 105.618C35.2191 106.235 37.3221 106.853 39.4251 107.474V111.777L33.1311 109.977L33.1011 116.449L28.9086 115.278V108.772C26.8131 108.161 24.7161 107.551 22.6206 106.938V102.63L28.9236 104.411Z" fill="#FF444F"/>
<path d="M33.1011 116.746C33.0768 116.746 33.0525 116.743 33.0291 116.736L28.8366 115.565C28.7763 115.548 28.7231 115.511 28.6851 115.458C28.6471 115.406 28.6265 115.342 28.6266 115.277V108.999L22.5456 107.225C22.4867 107.208 22.4348 107.17 22.3977 107.119C22.3606 107.068 22.3404 107.005 22.3401 106.94V102.63C22.34 102.585 22.3498 102.539 22.3688 102.498C22.3878 102.457 22.4154 102.421 22.4496 102.393C22.4836 102.365 22.5233 102.346 22.5656 102.338C22.6078 102.329 22.6513 102.331 22.6926 102.344L28.6431 104.027V97.9232C28.6431 97.8774 28.6531 97.8322 28.6724 97.7912C28.6917 97.7502 28.7198 97.7145 28.7544 97.6869C28.789 97.6593 28.8292 97.6405 28.8718 97.632C28.9144 97.6236 28.9584 97.6257 29.0001 97.6382L33.1776 98.8779C33.2976 98.9128 33.3816 99.0299 33.3816 99.1629L33.3966 105.393L39.5016 107.187C39.6216 107.222 39.7071 107.341 39.7071 107.474V111.777C39.7072 111.823 39.6973 111.868 39.6784 111.909C39.6594 111.951 39.6318 111.987 39.5976 112.015C39.5629 112.042 39.5227 112.061 39.48 112.07C39.4374 112.078 39.3934 112.076 39.3516 112.064L33.4116 110.365L33.3816 116.451C33.3808 116.529 33.3509 116.604 33.2985 116.659C33.246 116.714 33.1751 116.745 33.1011 116.746ZM29.1906 115.049L32.8206 116.065L32.8506 109.976C32.8506 109.884 32.8911 109.795 32.9616 109.741C32.9957 109.714 33.0353 109.695 33.0775 109.686C33.1196 109.677 33.1631 109.679 33.2046 109.691L39.1446 111.388V107.699L33.0396 105.903C32.981 105.885 32.9294 105.848 32.8926 105.797C32.8558 105.745 32.8358 105.683 32.8356 105.618L32.8206 99.3878L29.2056 98.3158V104.412C29.2057 104.457 29.1958 104.503 29.1769 104.544C29.1579 104.585 29.1303 104.621 29.0961 104.649C29.062 104.677 29.0223 104.696 28.9801 104.704C28.9379 104.713 28.8944 104.711 28.8531 104.698L22.9026 103.015V106.712L28.9836 108.484C29.043 108.501 29.0955 108.539 29.1328 108.59C29.1702 108.642 29.1905 108.706 29.1906 108.771V115.049Z" fill="black"/>
</g>
</g>
</svg>
