<svg width="32" height="32" viewBox="0 0 32 32" fill="none" xmlns="http://www.w3.org/2000/svg">
<g id="illustration / deriv / light / ic-spam-email-passkey" clip-path="url(#clip0_1123_309)">
<path id="Vector" fill-rule="evenodd" clip-rule="evenodd" d="M5.5 13.006V19.0225L11.1845 22.0319C12.7694 20.7412 13.9721 19.7646 14.7933 19.1012C15.5071 18.5612 16.4929 18.5612 17.2192 19.111C18.0348 19.77 19.2344 20.7431 20.818 22.0306L26.5 19.0225V13.0075V12.9917V1.53895C26.5003 1.26432 26.2898 1.03815 26.045 1.02632L5.9775 1.0258C5.71019 1.03815 5.49973 1.26432 5.5 1.53948V12.9933V13.006ZM21.6608 22.7159C24.0364 24.6482 27.1495 27.1839 31 30.3232V16.1774L27.5 13.918V18.4932L29.266 17.5582C29.51 17.429 29.8126 17.5221 29.9418 17.7661C30.071 18.0102 29.9779 18.3128 29.7339 18.442L21.6608 22.7159ZM30.2301 30.9858C23.2071 25.2601 18.6607 21.5612 16.6034 19.8988C16.2464 19.6287 15.7536 19.6287 15.4092 19.889C13.3398 21.5608 8.80189 25.2599 1.79639 30.9856L30.2301 30.9858ZM0.999742 30.3452L1 16.136C1.03147 16.1157 1.06795 16.0927 1.10954 16.067C1.20599 16.0074 1.32264 15.9373 1.51048 15.826L1.76639 15.6744C1.87636 15.6092 1.96543 15.5564 2.05545 15.5027C2.93445 14.9785 3.7103 14.4924 4.5 13.9566V18.4932L2.73403 17.5582C2.48998 17.429 2.1874 17.5221 2.0582 17.7661C1.929 18.0102 2.02211 18.3128 2.26615 18.442L10.3427 22.7177C7.96436 24.6556 4.85075 27.1976 0.999742 30.3452ZM4.5 12.7413C3.52636 13.4258 2.61428 14.0052 1.5433 14.6437C1.4542 14.6969 1.36588 14.7493 1.25665 14.814L1.00036 14.9659C0.807546 15.0802 0.686828 15.1527 0.58374 15.2164C0.454173 15.2964 0.360676 15.358 0.290057 15.4107C0.251284 15.4396 0.217644 15.4672 0.187164 15.4963C0.073049 15.5889 0 15.7312 0 15.8907V30.4395C0.028154 31.3326 0.752009 32.0216 1.61921 31.9967L30.395 31.9969C31.248 32.0216 31.9718 31.3326 32 30.4557V15.9132V15.8978V15.8907C32 15.666 31.855 15.4755 31.6545 15.4097L27.5 12.7277V1.53948C27.5008 0.716101 26.8694 0.0375946 26.0675 0.000519824L5.955 0C5.13055 0.0375946 4.49919 0.7161 4.5 1.53999V12.7413ZM16 17C19.8703 17 23 13.75 23 9.75004C23 5.75007 19.8703 2.5 16 2.5C12.1297 2.5 9 5.75007 9 9.75004C9 13.75 12.1297 17 16 17ZM16 16C12.6906 16 10 13.206 10 9.75004C10 6.29409 12.6906 3.5 16 3.5C19.3094 3.5 22 6.29409 22 9.75004C22 13.206 19.3094 16 16 16ZM16 9.07173L18.6621 6.63142C18.8657 6.44483 19.182 6.45858 19.3685 6.66213C19.5552 6.8657 19.5414 7.18198 19.3379 7.36858L16.7399 9.75004L19.3379 12.1315C19.5414 12.318 19.5552 12.6343 19.3685 12.8379C19.182 13.0414 18.8657 13.0552 18.6621 12.8685L16 10.4283L13.3379 12.8685C13.1343 13.0552 12.818 13.0414 12.6315 12.8379C12.4448 12.6343 12.4586 12.318 12.6621 12.1315L15.2601 9.75004L12.6621 7.36858C12.4586 7.18198 12.4448 6.8657 12.6315 6.66213C12.818 6.45858 13.1343 6.44483 13.3379 6.63142L16 9.07173Z" fill="url(#paint0_linear_1123_309)"/>
</g>
<defs>
<linearGradient id="paint0_linear_1123_309" x1="16" y1="47.9963" x2="47.9976" y2="15.9963" gradientUnits="userSpaceOnUse">
<stop stop-color="#FF444F"/>
<stop offset="1" stop-color="#FF6444"/>
</linearGradient>
<clipPath id="clip0_1123_309">
<rect width="32" height="32" fill="white"/>
</clipPath>
</defs>
</svg>
