<svg width="96" height="96" viewBox="0 0 96 96" fill="none" xmlns="http://www.w3.org/2000/svg">
<g id="illustration / deriv / light / ic-cashier-under-maintenance" clip-path="url(#clip0_408_478)">
<g id="Clip path group">
<mask id="mask0_408_478" style="mask-type:luminance" maskUnits="userSpaceOnUse" x="0" y="0" width="96" height="96">
<g id="clip0_2000_272862">
<path id="Vector" d="M96 0H0V96H96V0Z" fill="white"/>
</g>
</mask>
<g mask="url(#mask0_408_478)">
<g id="Group">
<path id="Vector_2" d="M42.2062 70.8939C41.2039 69.1545 38.8931 68.7414 37.4737 70.1608L20.3044 87.3264C17.49 90.1389 13.0106 90.8495 9.70311 88.6359C5.25748 85.6584 4.82061 79.4934 8.39679 75.8915L33.6718 50.6165C34.8422 49.4469 34.8397 47.549 33.6659 46.3809C32.4937 45.2252 30.6 45.2252 29.2687 46.3877L4.01248 71.6439C-1.54127 77.1977 -1.54127 86.2427 4.01248 91.8002C7.13248 94.9464 11.4994 96.4314 15.9919 95.8445C19.26 95.4183 22.23 93.7145 24.5606 91.3839L41.5369 74.4114C42.4524 73.4958 42.7219 72.0639 42.0725 70.9445C42.225 70.9314 42.2062 70.9127 42.2062 70.8939ZM48.7125 16.6239C49.5932 15.1577 50.6531 13.7852 51.8962 12.5364C56.1619 8.29517 61.7625 5.9983 67.6219 5.9983C68.9109 5.9983 70.2 6.11549 71.4881 6.32642L58.5037 19.3539L61.0819 34.9127L76.6669 37.4908L89.6737 24.5102C90.9159 31.6577 88.6663 38.897 83.4637 44.1039C82.6327 44.9353 81.7374 45.6838 80.7956 46.3539C79.3378 47.3902 79.2506 49.5377 80.519 50.7977C81.5737 51.8465 83.2659 51.971 84.4697 51.098C85.6031 50.2762 86.6859 49.3556 87.7059 48.3212C94.784 41.2449 97.5722 31.193 95.1347 21.4712C94.7128 19.6914 93.33 18.2855 91.5497 17.7924C89.7694 17.2993 87.8709 17.7924 86.5584 19.1049L74.5828 31.0787L66.2812 29.6814L64.8988 21.4089L76.8744 9.41267C78.1631 8.12436 78.6787 6.22705 78.1865 4.4458C77.6947 2.6653 76.2647 1.30705 74.4834 0.860801C64.8047 -1.5542 54.7584 1.21236 47.6522 8.28767C46.1015 9.85292 44.8097 11.5895 43.7184 13.4233C43.0076 14.6171 43.1467 16.1327 44.1292 17.1133C45.4687 18.4577 47.7375 18.2439 48.7125 16.6239ZM11.8312 80.9814C11.8312 82.6213 13.1906 83.8127 14.8312 83.8127C16.4719 83.8127 17.6625 82.4533 17.6625 80.9814C17.6625 79.5095 16.3035 78.1502 14.8312 78.1502C13.359 78.1502 11.8312 79.3314 11.8312 80.9814ZM94.2375 73.0127L70.9125 49.6689C67.9837 46.7402 64.14 45.287 60.2962 45.287C57.4125 45.287 54.5062 46.1066 52.0237 47.7714L35.8312 31.7439L35.8316 17.9908L12.0004 -0.00732422L-1.86265e-05 11.8314L18 35.6627L31.7569 35.6572L47.7881 51.6847C43.9219 57.5197 44.5781 65.4154 49.71 70.566L73.0537 93.9097C74.1937 95.4002 75.5812 96.0001 77.2875 96.0001C78.8105 96.0001 80.3569 95.4142 81.5062 94.2423L94.0875 81.4961C96.5812 79.1439 96.5812 75.3564 94.2375 73.0127ZM29.8312 29.8314H21L7.92186 12.5589L12.3937 7.92017L29.6625 20.9945V29.8314H29.8312ZM77.2687 89.9814L53.9437 66.6377C52.2332 64.9267 51.2962 62.6777 51.2962 60.287C51.2962 57.872 52.2337 55.6239 53.9437 53.9364C55.6312 52.2255 57.8812 51.2889 60.2962 51.2889C62.6869 51.2889 64.9612 52.2257 66.6469 53.9364L89.9906 77.2427L77.2687 89.9814Z" fill="#FFAD3A"/>
</g>
</g>
</g>
</g>
<defs>
<clipPath id="clip0_408_478">
<rect width="96" height="96" fill="white"/>
</clipPath>
</defs>
</svg>
