<svg width="96" height="96" viewBox="0 0 96 96" fill="none" xmlns="http://www.w3.org/2000/svg">
<g id="illustration / deriv / dark / open-position">
<path id="Vector" d="M56 16H24C19.5817 16 16 19.5817 16 24V72C16 76.4183 19.5817 80 24 80H56C60.4183 80 64 76.4183 64 72V24C64 19.5817 60.4183 16 56 16Z" fill="#242828"/>
<path id="Vector_2" d="M72 28H40C35.5817 28 32 31.5817 32 36V60C32 64.4183 35.5817 68 40 68H72C76.4183 68 80 64.4183 80 60V36C80 31.5817 76.4183 28 72 28Z" fill="#323738"/>
<path id="Vector_3" d="M61.4142 36.5858L71.4142 46.5858L71.4616 46.6349C71.5082 46.6847 71.5523 46.737 71.5937 46.7914L71.4142 46.5858C71.5216 46.6931 71.6141 46.8096 71.692 46.9328C71.7199 46.9773 71.7468 47.0238 71.7719 47.0715C71.801 47.1269 71.8266 47.1818 71.8496 47.2376C71.8704 47.2879 71.8898 47.3411 71.9069 47.3952C71.9262 47.4567 71.9424 47.5181 71.9557 47.5801C71.9649 47.6225 71.9728 47.6665 71.9793 47.7109C71.9894 47.7818 71.9958 47.8517 71.9985 47.9217C71.9995 47.9456 72 47.9727 72 48L71.9983 48.0823C71.9955 48.1509 71.9892 48.2195 71.9793 48.2876L72 48C72 48.1444 71.9847 48.2852 71.9556 48.4209C71.9424 48.4819 71.9262 48.5433 71.907 48.604C71.8898 48.6589 71.8704 48.7121 71.8488 48.7641C71.8266 48.8182 71.801 48.8731 71.7728 48.927C71.7468 48.9762 71.7199 49.0227 71.6912 49.068C71.6616 49.1153 71.6289 49.1624 71.594 49.2084C71.5523 49.263 71.5082 49.3153 71.4616 49.3651C71.4466 49.3813 71.4306 49.3979 71.4142 49.4142L61.4142 59.4142C60.6332 60.1953 59.3668 60.1953 58.5858 59.4142C57.8047 58.6332 57.8047 57.3668 58.5858 56.5858L65.164 50H42C40.8954 50 40 49.1046 40 48C40 46.8954 40.8954 46 42 46H65.172L58.5858 39.4142C57.8047 38.6332 57.8047 37.3668 58.5858 36.5858C59.3668 35.8047 60.6332 35.8047 61.4142 36.5858Z" fill="#6E6E6E"/>
</g>
</svg>
