<svg width="24" height="24" viewBox="0 0 24 24" fill="none" xmlns="http://www.w3.org/2000/svg">
<g id="illustration / deriv / dark / firewall">
<path id="Vector" d="M11.6061 2.08085C11.7319 2.02695 11.8659 2 12 2V12H4V6C4 5.59997 4.2384 5.23843 4.60608 5.08085L11.6061 2.08085Z" fill="#323738"/>
<path id="Vector_2" fill-rule="evenodd" clip-rule="evenodd" d="M12 21V12H4V12.2078C4 12.7741 4.03952 14.4253 4.24621 15.0719C5.05476 17.6018 6.9691 19.3211 8.58117 20.3832C9.39679 20.9205 10.1627 21.308 10.7257 21.5619C11.0079 21.6892 11.2411 21.7837 11.4067 21.8475C11.4895 21.8793 11.5555 21.9036 11.6024 21.9203L11.6442 21.9351L11.6582 21.94L11.6749 21.9457L11.6803 21.9475L11.6831 21.9485C11.7858 21.9827 11.8929 21.9999 12 21.9999V21ZM12 21L11.6831 21.9485C11.6831 21.9485 11.6838 21.9487 12 21Z" fill="#4A5153"/>
<path id="Vector_3" d="M20 12H12V21V21.9999C12.1069 21.9999 12.2137 21.9829 12.3162 21.9487L12 21C12.3162 21.9487 12.3177 21.9482 12.3177 21.9482L12.3197 21.9475L12.3251 21.9457L12.3418 21.94C12.3554 21.9353 12.3741 21.9287 12.3976 21.9203C12.4445 21.9036 12.5105 21.8793 12.5933 21.8475C12.7589 21.7837 12.9921 21.6892 13.2743 21.5619C13.8373 21.308 14.6032 20.9205 15.4188 20.3832C17.0309 19.3211 18.9452 17.6018 19.7538 15.072C19.9593 14.4289 19.9996 12.7815 20 12.2175V12Z" fill="#323738"/>
<path id="Vector_4" d="M12 2C12.1341 2 12.2681 2.02695 12.3939 2.08086L19.3939 5.08086C19.7616 5.23843 20 5.59997 20 6V12H12V2Z" fill="#4A5153"/>
<path id="Vector_5" d="M24 19C24 16.7909 22.2091 15 20 15C17.7909 15 16 16.7909 16 19C16 21.2091 17.7909 23 20 23C22.2091 23 24 21.2091 24 19Z" fill="#FF444F"/>
<path id="Vector_6" fill-rule="evenodd" clip-rule="evenodd" d="M17.5069 19.1794C17.3994 17.6569 18.6569 16.3994 20.1794 16.5069C21.5019 16.5969 22.4994 17.7519 22.4994 19.0794V19.3519C22.4994 19.7119 22.2944 20.0544 21.9594 20.1869C21.5519 20.3494 21.1069 20.1894 20.8844 19.8844C20.5969 20.1769 20.1594 20.3244 19.6994 20.2169C19.2269 20.1044 18.8544 19.7094 18.7694 19.2319C18.6169 18.3769 19.3344 17.6419 20.1844 17.7644C20.8044 17.8519 21.2494 18.4169 21.2494 19.0444V19.3569C21.2494 19.5544 21.4269 19.7494 21.6244 19.7494C21.8219 19.7494 21.9994 19.5544 21.9994 19.3569V19.0819C21.9994 18.1494 21.3944 17.2944 20.4894 17.0644C19.0394 16.6894 17.6894 18.0419 18.0619 19.4919C18.2944 20.3944 19.1494 20.9994 20.0819 20.9994H20.9994C21.1369 20.9994 21.2494 21.1119 21.2494 21.2494C21.2494 21.3869 21.1369 21.4994 20.9994 21.4994H20.0769C18.7519 21.4994 17.5969 20.5019 17.5069 19.1794ZM19.2494 18.9994C19.2494 19.4144 19.5844 19.7494 19.9994 19.7494C20.4144 19.7494 20.7494 19.4144 20.7494 18.9994C20.7494 18.5844 20.4144 18.2494 19.9994 18.2494C19.5844 18.2494 19.2494 18.5844 19.2494 18.9994Z" fill="white"/>
</g>
</svg>
