<svg width="120" height="152" viewBox="0 0 120 152" fill="none" xmlns="http://www.w3.org/2000/svg">
<g id="illustration / deriv / light / ic-edit-passkey" clip-path="url(#clip0_1118_254)">
<g id="illustration">
<path id="Vector" d="M114.803 86.0502C114.793 87.7665 114.73 91.2467 112.657 94.6065C112.261 95.2475 111.813 95.8509 111.319 96.4099L100.54 106.831C101.617 105.773 102.509 104.521 103.172 103.134C104.848 99.613 104.492 96.3181 104.246 94.046C103.556 87.6557 100.283 83.3617 98.8281 81.506C97.3791 79.6551 93.5286 74.8718 86.8941 72.9908C84.5766 72.3353 80.7246 71.2444 76.5246 73.089C75.8436 73.3883 74.2746 74.1514 72.7026 75.6382L84.0216 64.3807C85.4466 63.4813 88.3116 61.9629 92.1276 61.8632C95.3076 61.7793 97.6491 62.7182 99.2271 63.3737C100.325 63.8281 105.748 66.1793 110.033 72.3765C111.287 74.1894 114.842 79.3305 114.803 86.0502Z" fill="#FF444F"/>
<path id="Vector_2" d="M100.54 107.129C100.483 107.129 100.428 107.111 100.381 107.078C100.334 107.044 100.298 106.997 100.277 106.941C100.256 106.886 100.252 106.825 100.264 106.767C100.276 106.708 100.305 106.655 100.346 106.615C101.4 105.58 102.272 104.357 102.922 103.001C104.557 99.5592 104.216 96.3941 103.967 94.0824C103.27 87.6414 99.8855 83.3205 98.6105 81.6944C97.346 80.081 93.5 75.1695 86.8205 73.2774C84.5465 72.6346 80.7425 71.5564 76.631 73.3629C75.2607 73.9684 73.9958 74.8113 72.8885 75.8567C72.833 75.9072 72.7611 75.933 72.6879 75.9284C72.6147 75.9239 72.5461 75.8895 72.4965 75.8324C72.447 75.7754 72.4204 75.7003 72.4225 75.6229C72.4245 75.5456 72.455 75.4721 72.5075 75.4181L83.8265 64.1606C83.8415 64.1464 83.8565 64.1337 83.876 64.1226C86.414 62.5234 89.2655 61.6399 92.1185 61.5639C95.423 61.4784 97.868 62.4886 99.3275 63.095C101.282 63.9025 106.255 66.4089 110.258 72.1992C111.463 73.9408 115.123 79.2355 115.082 86.0502C115.073 87.6098 115.052 91.2625 112.891 94.7664C112.486 95.4219 112.028 96.039 111.523 96.611L111.508 96.6269L101.629 106.178L100.729 107.048C100.677 107.099 100.609 107.127 100.538 107.128L100.54 107.129ZM81.449 71.7701C83.669 71.7701 85.589 72.3132 86.966 72.7043C93.821 74.647 97.751 79.6678 99.044 81.3176C100.348 82.9801 103.81 87.3976 104.525 94.0143C104.768 96.2674 105.134 99.6684 103.423 103.269C103.303 103.519 103.177 103.766 103.042 104.008L111.119 96.1994C111.599 95.6531 112.037 95.0641 112.42 94.445C114.49 91.0868 114.511 87.5575 114.52 86.0486C114.559 79.4287 111.106 74.4333 109.805 72.5523C105.887 66.8871 101.03 64.4393 99.122 63.6492C97.7015 63.0618 95.3225 62.0754 92.132 62.1593C89.3855 62.2321 86.6405 63.0824 84.1895 64.6198L75.5015 73.26C77.3427 72.2702 79.3829 71.7594 81.449 71.7701Z" fill="black"/>
<path id="Vector_3" d="M105.814 101.732L105.796 111.71L95.4711 121.903C95.4711 117.961 95.4666 114.014 95.4651 110.07C96.2946 109.756 98.5056 108.839 100.54 106.832L105.814 101.732Z" fill="#FF444F"/>
<path id="Vector_4" d="M95.4711 122.201C95.3963 122.201 95.3246 122.17 95.2717 122.114C95.2188 122.058 95.1891 121.982 95.1891 121.903L95.1831 110.069C95.1831 109.943 95.2581 109.832 95.3706 109.789C97.2152 109.096 98.908 108.016 100.348 106.615L105.625 101.515C105.665 101.476 105.715 101.45 105.769 101.44C105.823 101.431 105.878 101.439 105.928 101.462C106.031 101.51 106.096 101.616 106.096 101.735L106.079 111.71C106.079 111.751 106.071 111.791 106.055 111.828C106.04 111.865 106.017 111.899 105.989 111.927L95.6646 122.123C95.6122 122.174 95.5437 122.202 95.4726 122.203L95.4711 122.201ZM95.7471 110.277L95.7516 121.218L105.515 111.58L105.53 102.408L100.73 107.05C99.2845 108.459 97.591 109.555 95.7456 110.275L95.7471 110.277Z" fill="black"/>
<path id="Vector_5" d="M105.784 120.969L95.4411 131.229L90.9561 125.358L95.4711 121.905L101.788 115.667L105.784 120.969Z" fill="#FF444F"/>
<path id="Vector_6" d="M95.4412 131.527H95.4217C95.3831 131.524 95.3456 131.512 95.3113 131.494C95.277 131.475 95.2467 131.449 95.2222 131.417L90.7372 125.545C90.7136 125.513 90.6961 125.477 90.6858 125.439C90.6755 125.4 90.6726 125.36 90.6772 125.32C90.682 125.28 90.6946 125.241 90.7142 125.207C90.7338 125.172 90.76 125.142 90.7912 125.119L95.2912 121.675L95.6617 121.309L101.596 115.451C101.624 115.423 101.657 115.401 101.694 115.387C101.731 115.374 101.77 115.368 101.809 115.371C101.847 115.374 101.885 115.386 101.919 115.405C101.954 115.424 101.984 115.451 102.008 115.483L106.003 120.787C106.047 120.845 106.068 120.919 106.063 120.993C106.057 121.067 106.026 121.137 105.974 121.188L98.9467 128.161L95.6317 131.449C95.5796 131.5 95.5109 131.529 95.4397 131.528L95.4412 131.527ZM91.3627 125.415L95.4697 130.794L98.5627 127.725L105.403 120.939L101.758 116.103C99.8557 117.983 97.9522 119.862 96.0472 121.74L95.6632 122.12C95.6549 122.129 95.6459 122.138 95.6362 122.145L91.3627 125.415Z" fill="black"/>
<path id="Vector_7" d="M105.776 130.248L95.4246 140.534L90.9636 134.651L95.4411 131.231L101.78 124.94L105.776 130.248Z" fill="#FF444F"/>
<path id="Vector_8" d="M95.4246 140.83H95.4051C95.3662 140.828 95.3282 140.816 95.2935 140.797C95.2589 140.778 95.2285 140.752 95.2041 140.719L90.7446 134.837C90.7207 134.806 90.7032 134.77 90.693 134.731C90.6828 134.692 90.6803 134.651 90.6855 134.611C90.6907 134.571 90.7035 134.533 90.7232 134.498C90.7429 134.463 90.7691 134.433 90.8001 134.41C92.2881 133.275 93.7746 132.138 95.2626 130.999L101.588 124.723C101.616 124.695 101.65 124.673 101.687 124.659C101.723 124.646 101.762 124.64 101.801 124.643C101.84 124.646 101.878 124.658 101.912 124.677C101.946 124.696 101.976 124.723 102.001 124.755L105.997 130.062C106.041 130.12 106.063 130.194 106.058 130.268C106.053 130.343 106.022 130.413 105.971 130.464L95.6181 140.75C95.566 140.801 95.4973 140.829 95.4261 140.829L95.4246 140.83ZM91.3686 134.709L95.4531 140.097L105.394 130.22L101.749 125.379L95.6331 131.447L95.6031 131.471C94.1931 132.551 92.7801 133.631 91.3686 134.709Z" fill="black"/>
<path id="Vector_9" d="M90.8842 88.2986C90.8677 88.6643 90.8347 89.2359 90.5227 89.8645C90.4492 90.0101 90.0592 90.767 89.2357 91.2404C88.0177 91.9371 86.7247 91.5127 86.1157 91.3132C84.7507 90.8636 83.9467 89.9484 83.5387 89.4734C83.1367 89.0047 82.0687 87.7571 81.9592 85.9236C81.9337 85.5056 81.8992 84.7804 82.2517 83.9729C82.3672 83.7116 82.7917 82.7775 83.7817 82.2946C84.4567 81.9684 85.0657 82.0096 85.5307 82.0476C87.3217 82.1948 88.5397 83.3538 88.9282 83.7322C89.2222 84.0204 90.0862 84.9197 90.5737 86.3653C90.7132 86.7801 90.9247 87.4325 90.8842 88.2986Z" fill="#FF444F"/>
<path id="Vector_10" d="M87.7415 91.9196C87.014 91.9196 86.3855 91.7138 86.033 91.5966C84.5735 91.1169 83.7335 90.1415 83.3315 89.6745C82.9085 89.1805 81.7955 87.8774 81.6785 85.9425C81.6545 85.5546 81.6065 84.7471 81.9965 83.8494C82.4675 82.7838 83.1635 82.2708 83.6645 82.0285C84.422 81.6596 85.103 81.715 85.5545 81.753C86.8295 81.8559 88.028 82.4497 89.12 83.5137C89.561 83.9475 90.3725 84.8801 90.839 86.2655C90.968 86.6535 91.211 87.3739 91.166 88.3144C91.1577 88.9013 91.0228 89.4785 90.7715 90.0022C90.4492 90.6325 89.9632 91.1527 89.3705 91.5016C88.869 91.7836 88.3082 91.9274 87.74 91.9196H87.7415ZM85.028 82.3183C84.695 82.3183 84.308 82.3674 83.9 82.5653C83.4845 82.7664 82.9055 83.1954 82.508 84.0979C82.178 84.8579 82.22 85.5388 82.241 85.903C82.343 87.632 83.363 88.8226 83.747 89.2739C84.1175 89.7045 84.887 90.5991 86.201 91.0298C86.78 91.2198 87.986 91.6188 89.102 90.9791C89.598 90.6874 90.005 90.2524 90.275 89.7251C90.5645 89.1424 90.59 88.6057 90.605 88.2843C90.644 87.4609 90.434 86.8371 90.308 86.4635C89.9797 85.506 89.4409 84.6443 88.736 83.9491C87.74 82.9785 86.654 82.437 85.511 82.3436C85.367 82.331 85.205 82.3183 85.028 82.3183Z" fill="black"/>
<path id="Vector_11" d="M35.2265 35.8032C35.1455 33.4915 34.8935 26.3206 39.6755 20.9974C44.444 15.6885 51.215 15.5587 52.6805 15.5302C67.175 15.2531 82.6325 32.3673 81.317 47.7985C81.2015 49.1507 80.4845 57.5819 74.165 62.1989C69.002 65.972 63.0455 65.0442 60.5765 64.6578C47.7965 62.6676 35.714 49.7555 35.2265 35.8032Z" fill="white"/>
<path id="Vector_12" d="M64.8742 65.3466C63.0667 65.3466 61.5382 65.1091 60.5362 64.9539C54.2887 63.9817 47.9302 60.3242 43.0867 54.9219C38.0722 49.3248 35.1802 42.5386 34.9447 35.8142C34.8622 33.4361 34.6087 26.2066 39.4717 20.7931C42.5992 17.3098 47.2897 15.337 52.6777 15.2341C59.6617 15.0995 67.3642 19.0277 73.2847 25.7395C76.0612 28.8871 78.2947 32.5035 79.7377 36.1974C81.2902 40.1684 81.9172 44.0808 81.5992 47.8254C81.3442 50.8084 80.1292 58.2041 74.3257 62.4443C71.1337 64.7781 67.6717 65.3466 64.8742 65.3466ZM53.0242 15.8246C52.9132 15.8246 52.7992 15.8246 52.6882 15.8278C47.4517 15.9291 42.9022 17.8355 39.8797 21.2032C35.1802 26.4361 35.4247 33.4788 35.5057 35.7921C35.7352 42.374 38.5747 49.0208 43.4947 54.5134C48.2512 59.8207 54.4927 63.4117 60.6172 64.3665C63.1072 64.7544 68.9332 65.6616 74.0047 61.9551C79.6102 57.859 80.7922 50.6722 81.0382 47.7716C81.3487 44.1236 80.7352 40.3061 79.2172 36.4222C77.7967 32.7964 75.6022 29.2402 72.8722 26.1432C67.1527 19.6611 59.7622 15.8231 53.0242 15.8231V15.8246Z" fill="black"/>
<path id="Vector_13" d="M91.4122 40.5278C90.6262 44.8281 88.6222 47.8586 87.3847 49.4483L76.1152 60.4889C80.6422 55.7531 81.2152 48.9955 81.3202 47.7985C82.6327 32.3673 67.1767 15.253 52.6837 15.5301C51.3112 15.557 45.2917 15.6726 40.6177 20.0379L51.9142 8.67904C55.0134 6.67764 58.5369 5.52443 62.1652 5.32396C68.0347 5.01679 72.3157 7.44087 75.0142 8.95929C76.2682 9.66546 81.1792 12.5487 85.4242 18.5226C86.7802 20.4305 90.5542 25.8709 91.4902 33.6514C91.6897 35.298 91.9462 37.5939 91.4122 40.5278Z" fill="#EBECEE"/>
<path id="Vector_14" d="M76.1137 60.7866C76.0759 60.7863 76.0386 60.7778 76.0041 60.7618C75.9695 60.7457 75.9384 60.7224 75.9127 60.6932C75.8614 60.6374 75.8332 60.5625 75.834 60.4848C75.8348 60.4071 75.8647 60.3329 75.9172 60.2783C79.9327 56.0778 80.8372 50.1371 81.0397 47.7763C81.3502 44.1236 80.7382 40.3062 79.2172 36.4238C77.7982 32.798 75.6037 29.2418 72.8737 26.1464C67.0597 19.555 59.5147 15.698 52.6897 15.8278C46.6627 15.945 42.8992 18.3026 40.8052 20.2612C40.75 20.3131 40.6775 20.34 40.6036 20.3358C40.5297 20.3317 40.4604 20.2969 40.4107 20.239C40.3603 20.1819 40.3333 20.1062 40.3356 20.0282C40.3378 19.9502 40.3691 19.8763 40.4227 19.8226L51.7207 8.46375C51.7357 8.4495 51.7507 8.43842 51.7687 8.42575C54.9082 6.39926 58.4768 5.2309 62.1517 5.02634C68.0752 4.71759 72.4807 7.1955 75.1117 8.6775L75.1462 8.6965C77.4187 9.979 81.8062 12.9351 85.6492 18.3422C89.0692 23.1523 91.1302 28.2903 91.7692 33.6118C91.9582 35.1746 92.2432 37.5385 91.6882 40.5833C91.0942 43.8338 89.6812 46.9641 87.6007 49.6368C87.5925 49.6466 87.584 49.6561 87.5752 49.6653L76.3057 60.7058C76.2542 60.757 76.186 60.7854 76.1152 60.785L76.1137 60.7866ZM53.0242 15.2309C59.9182 15.2309 67.4647 19.1386 73.2877 25.7411C76.0642 28.8888 78.2947 32.5035 79.7407 36.1974C81.2932 40.1668 81.9202 44.0808 81.6007 47.8254C81.4027 50.145 80.7472 54.0384 78.6367 57.6152L87.1822 49.2457C89.1952 46.6538 90.5632 43.6201 91.1392 40.474C91.6762 37.5211 91.4002 35.2142 91.2142 33.6894C90.5872 28.4708 88.5637 23.4294 85.2022 18.7016C81.4222 13.3863 77.1157 10.4809 74.8852 9.22217L74.8507 9.20317C72.1027 7.65625 67.9507 5.31925 62.1832 5.62167C58.6122 5.81987 55.1441 6.95273 52.0912 8.91817L43.4422 17.6138C45.6712 16.3472 48.6982 15.3133 52.6792 15.2357C52.7947 15.2325 52.9102 15.2325 53.0272 15.2325L53.0242 15.2309Z" fill="black"/>
<path id="Vector_15" d="M77.4036 104.966L77.3961 125.486L12.0801 106.675C11.9901 103.223 12.2586 95.7974 16.4706 88.0628C21.7866 78.2999 30.0306 74.207 33.4356 72.7963C40.6476 69.8101 46.8951 70.2693 49.9656 70.5321C57.7206 71.1924 63.8106 74.1864 67.8081 76.1514C68.9331 76.7055 69.9621 77.2518 70.8831 77.7664C70.6807 78.0615 70.4905 78.3658 70.3131 78.6784C69.4156 80.2962 68.8261 82.0834 68.5776 83.9398C68.3871 85.3394 68.4441 86.4034 68.4966 87.3091C68.6606 89.9554 69.2426 92.5541 70.2186 94.9978C70.4871 95.6675 71.6931 98.6078 74.2731 101.751C75.2283 102.915 76.2746 103.991 77.4036 104.966Z" fill="white"/>
<path id="Vector_16" d="M77.3961 125.782C77.3708 125.783 77.3456 125.78 77.3211 125.773L12.0066 106.963C11.9482 106.946 11.8964 106.91 11.859 106.86C11.8217 106.81 11.8008 106.748 11.7996 106.684C11.6796 102.051 12.3486 95.0373 16.2291 87.9155C21.3126 78.5817 29.1291 74.264 33.3366 72.5191C40.7586 69.4459 47.2281 70.0001 49.9911 70.236C57.7941 70.901 63.8916 73.8998 67.9281 75.8821C68.9526 76.3856 69.9921 76.9319 71.0166 77.5051C71.0517 77.5251 71.0824 77.5527 71.1066 77.5862C71.1308 77.6197 71.148 77.6582 71.1571 77.6992C71.1662 77.7402 71.1669 77.7827 71.1592 77.8241C71.1516 77.8654 71.1357 77.9045 71.1126 77.9389C70.9071 78.2413 70.7226 78.5326 70.5561 78.8303C69.6768 80.4143 69.0994 82.1645 68.8566 83.9825C68.6691 85.3711 68.7306 86.4366 68.7801 87.2916C68.9301 89.844 69.5181 92.4691 70.4811 94.8837C70.9011 95.9319 72.1296 98.6837 74.4876 101.557C75.4281 102.704 76.4706 103.774 77.5866 104.738C77.6511 104.794 77.6901 104.879 77.6901 104.968L77.6811 125.488C77.6813 125.527 77.6742 125.566 77.6601 125.602C77.646 125.638 77.6252 125.671 77.599 125.699C77.5728 125.727 77.5416 125.749 77.5073 125.763C77.473 125.778 77.4362 125.786 77.3991 125.786L77.3961 125.782ZM12.3561 106.448L77.1156 125.1L77.1231 105.107C76.0208 104.145 74.9963 103.087 74.0601 101.945C71.6481 99.0067 70.3896 96.1884 69.9606 95.1133C68.9737 92.6384 68.3841 90.0074 68.2161 87.3281C68.1666 86.4461 68.1036 85.3457 68.3001 83.8986C68.5534 82.0031 69.1551 80.1781 70.0716 78.5263C70.1961 78.3062 70.3266 78.0909 70.4691 77.8724C69.5537 77.3666 68.6275 76.8831 67.6911 76.4221C63.6906 74.4556 57.6486 71.4852 49.9446 70.8281C47.2206 70.5954 40.8396 70.0507 33.5406 73.0733C29.4006 74.7881 21.7131 79.0346 16.7136 88.2131C12.9636 95.1022 12.2646 101.893 12.3561 106.448Z" fill="black"/>
<path id="Vector_17" d="M81.0036 67.3812L72.7011 75.6383C72.0234 76.276 71.4134 76.9895 70.8816 77.7663C69.8701 77.2007 68.8453 76.6622 67.8081 76.1513C63.8106 74.1879 57.7206 71.1939 49.9671 70.532C46.8951 70.2692 40.6476 69.81 33.4371 72.7962C29.5616 74.4087 25.9904 76.7396 22.8921 79.6789L33.1596 69.0643C33.8196 68.3977 34.7796 67.4968 36.0201 66.5468C39.6411 63.7759 42.9951 62.6296 44.9601 61.9757C46.7064 61.3958 48.4928 60.9601 50.3031 60.6726C53.5176 62.7072 57.0201 64.1053 60.5766 64.6594C62.7846 65.0046 67.7811 65.782 72.5076 63.2408C73.0581 63.4545 73.6776 63.7031 74.3511 63.9881C76.2861 64.8051 77.9751 65.5255 79.9671 66.7289C80.2761 66.9157 80.6256 67.1326 81.0036 67.3812Z" fill="#EBECEE"/>
<path id="Vector_18" d="M22.892 79.9767C22.817 79.9767 22.742 79.945 22.6865 79.8817C22.6358 79.825 22.6083 79.7495 22.6099 79.6715C22.6116 79.5935 22.6424 79.5194 22.6955 79.4652C26.117 75.9281 29.54 72.3877 32.963 68.8522C33.8718 67.9359 34.838 67.0853 35.855 66.3062C39.5855 63.4498 43.028 62.3067 44.876 61.6923C46.6362 61.1081 48.4366 60.6687 50.261 60.3782C50.3255 60.3681 50.3913 60.3821 50.447 60.4177C53.6885 62.4682 57.206 63.8346 60.617 64.3666C62.744 64.6991 67.727 65.4749 72.377 62.9764C72.4116 62.9578 72.4494 62.947 72.4881 62.9445C72.5268 62.9421 72.5656 62.9481 72.602 62.9622C73.193 63.1917 73.817 63.4435 74.453 63.7127C76.3055 64.4932 78.0545 65.2327 80.105 66.4708C80.453 66.6798 80.804 66.9015 81.1505 67.1295C81.1874 67.1533 81.2185 67.1858 81.2414 67.2244C81.2644 67.263 81.2786 67.3067 81.283 67.3521C81.2874 67.3974 81.2817 67.4432 81.2666 67.4859C81.2514 67.5286 81.2271 67.567 81.1955 67.5982L76.9895 71.7782C75.6245 73.1351 74.2565 74.4936 72.8915 75.8537C72.2165 76.4886 71.6195 77.19 71.1065 77.9389C71.0665 77.9967 71.0082 78.0374 70.9421 78.0537C70.8761 78.07 70.8067 78.0607 70.7465 78.0276C69.731 77.4607 68.7005 76.9192 67.6865 76.4189C63.686 74.454 57.644 71.4837 49.9415 70.8266C47.216 70.5922 40.8365 70.0476 33.536 73.0702C29.6924 74.6701 26.1503 76.9816 23.0765 79.8959C23.0254 79.9467 22.9578 79.975 22.8875 79.9751H22.892V79.9767ZM46.022 70.0397C47.6975 70.0397 49.055 70.1568 49.9895 70.236C57.7925 70.901 63.89 73.8998 67.9265 75.8822C68.879 76.3524 69.845 76.8559 70.799 77.3847C71.3082 76.6707 71.883 76.0114 72.515 75.4167L76.607 71.3475L80.543 67.4319C80.306 67.2783 80.066 67.1311 79.8275 66.9886C77.8115 65.7694 76.079 65.0395 74.2475 64.2652C73.6565 64.0151 73.0775 63.7792 72.5255 63.5654C67.748 66.0797 62.7005 65.2928 60.536 64.954C57.083 64.4157 53.528 63.0445 50.246 60.983C48.4844 61.2686 46.7459 61.6952 45.0455 62.2592C43.2275 62.864 39.842 63.9882 36.185 66.7875C35.192 67.5475 34.2395 68.3867 33.353 69.2797L26.627 76.2305C28.7298 74.7437 30.9777 73.4995 33.332 72.5192C38.246 70.4862 42.7415 70.0397 46.022 70.0397Z" fill="black"/>
<path id="Vector_19" d="M104.243 94.0462C103.553 87.6558 100.28 83.3618 98.8281 81.5062C97.3776 79.6552 93.5271 74.872 86.8926 72.991C84.5736 72.3355 80.7231 71.2446 76.5231 73.0892C75.4776 73.5483 72.3426 75.0984 70.3116 78.6783C69.4143 80.2957 68.8248 82.0824 68.5761 83.9382C68.3856 85.3378 68.4441 86.4034 68.4966 87.3075C68.6604 89.954 69.243 92.5528 70.2201 94.9962C70.4871 95.6659 71.6931 98.6062 74.2731 101.749C75.2283 102.913 76.2761 103.989 77.4051 104.965L77.3931 135.457L86.4111 147.343C89.4156 145.072 92.4216 142.803 95.4261 140.531L90.9666 134.649L95.4426 131.226L90.9576 125.355L95.4726 121.9L95.4651 110.066C96.6936 109.601 100.946 107.818 103.175 103.131C104.849 99.61 104.494 96.3151 104.246 94.043L104.243 94.0462ZM90.8826 88.2987C90.8661 88.6644 90.8331 89.236 90.5196 89.8662C90.4461 90.0102 90.0561 90.7687 89.2341 91.2405C88.0161 91.9387 86.7231 91.5144 86.1141 91.3133C84.7491 90.8652 83.9436 89.9485 83.5341 89.4719C83.1336 89.0048 82.0641 87.7572 81.9561 85.9252C81.9306 85.5072 81.8961 84.7821 82.2486 83.973C82.3626 83.7117 82.7886 82.7776 83.7786 82.2962C84.4536 81.9685 85.0626 82.0097 85.5261 82.0477C87.3171 82.1949 88.5366 83.3539 88.9236 83.7323C89.2176 84.0205 90.0816 84.9198 90.5691 86.3654C90.7086 86.7818 90.9231 87.4326 90.8826 88.2987Z" fill="#FF7E88"/>
<path id="Vector_20" d="M86.4081 147.64C86.3658 147.641 86.324 147.631 86.2858 147.612C86.2477 147.592 86.2141 147.564 86.1876 147.53L77.1696 135.645C77.1303 135.592 77.1092 135.526 77.1096 135.458L77.1216 105.106C76.0194 104.143 74.9944 103.086 74.0571 101.945C71.6421 99.0036 70.3851 96.1868 69.9576 95.1133C68.9707 92.638 68.3816 90.0063 68.2146 87.3265C68.1621 86.4478 68.0991 85.3553 68.2956 83.897C68.5487 82.0015 69.1504 80.1765 70.0671 78.5248C71.9916 75.1364 74.8701 73.4913 76.4121 72.8153C80.7021 70.9311 84.6216 72.0394 86.9646 72.7044C93.8211 74.6456 97.7526 79.6663 99.0441 81.3162C100.348 82.9818 103.81 87.4041 104.524 94.0129C104.767 96.2644 105.134 99.6654 103.423 103.268C101.413 107.495 97.8276 109.458 95.7456 110.275L95.7516 121.902C95.7516 121.997 95.7081 122.087 95.6346 122.142L91.3611 125.412L95.6601 131.041C95.7066 131.104 95.7291 131.186 95.7201 131.267C95.7148 131.307 95.702 131.345 95.6824 131.379C95.6628 131.413 95.6369 131.443 95.6061 131.467L91.3686 134.706L95.6436 140.344C95.6675 140.376 95.6851 140.412 95.6954 140.451C95.7057 140.49 95.7085 140.531 95.7036 140.571C95.6984 140.611 95.6854 140.649 95.6655 140.683C95.6457 140.718 95.6193 140.747 95.5881 140.77L86.5731 147.582C86.525 147.618 86.4673 147.638 86.4081 147.637V147.64ZM77.6706 135.354L86.4606 146.939L95.0166 140.474L90.7416 134.838C90.7177 134.806 90.7002 134.77 90.69 134.731C90.6798 134.692 90.6773 134.651 90.6825 134.611C90.6877 134.571 90.7005 134.533 90.7202 134.498C90.7399 134.464 90.7661 134.434 90.7971 134.41L95.0331 131.172L90.7356 125.543C90.7118 125.512 90.6942 125.476 90.6839 125.437C90.6736 125.398 90.6708 125.357 90.6756 125.317C90.6804 125.277 90.6929 125.239 90.7122 125.205C90.7316 125.171 90.7574 125.141 90.7881 125.118L95.1846 121.753L95.1786 110.068C95.1786 109.941 95.2536 109.83 95.3646 109.789C96.9501 109.191 100.858 107.332 102.917 103.002C104.552 99.5578 104.212 96.3927 103.961 94.081C103.265 87.6463 99.8811 83.3223 98.6061 81.6946C97.3416 80.0812 93.4986 75.1713 86.8161 73.2776C84.5436 72.6348 80.7381 71.5581 76.6251 73.3631C75.1446 74.0123 72.3876 75.5877 70.5471 78.8288C69.6684 80.4122 69.0921 82.162 68.8506 83.9793C68.6601 85.379 68.7231 86.4383 68.7726 87.2885C68.9226 89.8408 69.5106 92.466 70.4736 94.8806C70.8906 95.9272 72.1176 98.6758 74.4786 101.553C75.4236 102.701 76.4631 103.769 77.5776 104.734C77.6094 104.762 77.635 104.797 77.6527 104.837C77.6703 104.876 77.6795 104.919 77.6796 104.963L77.6676 135.352L77.6706 135.354ZM87.7386 91.9213C87.0126 91.9213 86.3826 91.7155 86.0301 91.5983C84.5646 91.117 83.6976 90.1053 83.3271 89.673C82.9071 89.1822 81.7896 87.8807 81.6756 85.9427C81.6531 85.5548 81.6036 84.7409 81.9936 83.8495C82.3611 83.0103 82.9386 82.3802 83.6601 82.0287C84.4161 81.6613 85.0971 81.7152 85.5501 81.7532C86.8251 81.8577 88.0251 82.4498 89.1156 83.5154C89.5566 83.9477 90.3666 84.8771 90.8331 86.2673C90.9636 86.6536 91.2051 87.3724 91.1616 88.3161C91.1466 88.6613 91.1151 89.3057 90.7671 90.0055C90.4469 90.6371 89.9603 91.1573 89.3661 91.5033C88.8653 91.7859 88.3049 91.9303 87.7371 91.9229L87.7386 91.9213ZM85.0251 82.32C84.6906 82.32 84.3051 82.3675 83.8971 82.567C83.2971 82.8583 82.8156 83.3888 82.5051 84.0997C82.1751 84.8565 82.2156 85.5405 82.2381 85.9078C82.3401 87.6368 83.3616 88.8275 83.7456 89.2772C84.1131 89.7047 84.8796 90.5993 86.1981 91.0331C86.7771 91.2231 87.9846 91.6205 89.0991 90.9824C89.8116 90.5739 90.1761 89.92 90.2721 89.73C90.5631 89.1458 90.5871 88.6074 90.6021 88.2876C90.6411 87.4611 90.4311 86.8388 90.3066 86.4668C89.9789 85.5098 89.4407 84.6486 88.7361 83.954C87.7416 82.9834 86.6571 82.4419 85.5081 82.3485C85.3641 82.3358 85.2051 82.3232 85.0281 82.3232L85.0251 82.32Z" fill="black"/>
<path id="Vector_21" d="M5.34651 105.642C5.25051 104.148 5.11101 101.583 6.22101 98.6251C6.55851 97.7289 7.19751 96.0901 8.63001 94.4973C10.865 92.0146 13.5995 91.3243 14.903 91.014C19.2485 89.9785 22.8845 91.5301 24.8825 92.401C32.645 95.7861 35.9855 103.016 36.8015 104.851C37.508 106.442 38.7425 109.294 38.774 113.173C38.786 114.819 38.777 117.464 37.304 120.306C36.4532 121.948 35.2664 123.369 33.83 124.467C30.6245 126.902 27.2075 126.876 25.79 126.845C22.7045 126.777 20.4725 125.686 18.6575 124.798C16.5772 123.764 14.6492 122.418 12.9335 120.803C11.6945 119.642 8.81151 116.882 6.92601 112.216C6.43101 110.988 5.54601 108.744 5.34651 105.646V105.642Z" fill="white"/>
<path id="Vector_22" d="M26.3826 127.149C26.1516 127.149 25.9506 127.144 25.7841 127.139C22.6386 127.07 20.3661 125.958 18.5391 125.065C16.4335 124.019 14.4823 122.657 12.7461 121.021C11.6151 119.964 8.61512 117.152 6.66812 112.329C6.21362 111.208 5.27312 108.876 5.06612 105.661C4.97462 104.24 4.80362 101.592 5.96162 98.5142C6.27212 97.6877 6.91862 95.9682 8.42762 94.2915C10.7676 91.6932 13.6236 91.014 14.8431 90.721C19.3281 89.6539 23.0121 91.2594 24.9921 92.1239C30.1656 94.3801 34.4496 98.8531 37.0581 104.722C37.6956 106.157 39.0231 109.145 39.0561 113.166C39.0681 114.674 39.0906 117.478 37.5501 120.445C36.679 122.125 35.4647 123.58 33.9951 124.704C31.0686 126.927 27.9981 127.146 26.3841 127.146L26.3826 127.149ZM5.62562 105.622C5.82662 108.736 6.74312 111.005 7.18412 112.098C9.08312 116.797 12.0141 119.544 13.1181 120.578C14.8137 122.176 16.7195 123.506 18.7761 124.527C20.5551 125.398 22.7691 126.479 25.7961 126.547C27.0741 126.574 30.4716 126.65 33.6651 124.224C35.066 123.152 36.2238 121.764 37.0551 120.162C38.5251 117.331 38.5041 114.731 38.4906 113.174C38.4606 109.281 37.1676 106.374 36.5451 104.976C33.9966 99.2425 29.8161 94.8741 24.7731 92.6733C22.8516 91.8373 19.2741 90.2777 14.9631 91.3037C13.7931 91.5808 11.0556 92.2331 8.83262 94.7031C7.39862 96.296 6.78062 97.9442 6.48212 98.7359C5.37212 101.69 5.53712 104.247 5.62412 105.623L5.62562 105.622Z" fill="black"/>
<path id="Vector_23" d="M47.5011 108.252C46.9988 110.29 46.0923 112.192 44.8416 113.833L35.1546 123.292C36.0063 122.413 36.7302 121.406 37.3026 120.304C38.7756 117.464 38.7846 114.819 38.7726 113.173C38.7426 109.294 37.5081 106.44 36.8016 104.849C35.9871 103.012 32.6451 95.7846 24.8826 92.401C22.8846 91.5301 19.2486 89.9785 14.9031 91.014C13.8426 91.2641 11.8476 91.7676 9.93506 93.2734L18.8121 84.3434C19.6977 83.7433 20.6415 83.2449 21.6276 82.8566C25.5666 81.3097 29.0601 81.9826 30.4191 82.2629C34.2591 83.0561 36.7941 84.9941 38.4891 86.3241C40.6936 88.0597 42.5997 90.1815 44.1246 92.5973C45.1611 94.2392 46.9656 97.1573 47.6271 101.416C47.8701 102.987 48.2121 105.338 47.4996 108.25L47.5011 108.252Z" fill="#EBECEE"/>
<path id="Vector_24" d="M35.1561 123.589C35.1003 123.589 35.046 123.571 35 123.538C34.9539 123.505 34.9182 123.458 34.8973 123.403C34.8765 123.349 34.8714 123.289 34.8827 123.231C34.8941 123.174 34.9213 123.121 34.9611 123.08C35.7933 122.222 36.4996 121.239 37.0566 120.162C38.5251 117.331 38.5026 114.731 38.4906 113.176C38.4606 109.284 37.1691 106.375 36.5466 104.977C35.0721 101.657 31.5816 95.6452 24.7746 92.678C22.8546 91.8389 19.2816 90.2777 14.9661 91.3053C14.0856 91.5127 12.0261 92.0004 10.1046 93.5125C10.0477 93.5631 9.97407 93.5877 9.89995 93.581C9.82582 93.5744 9.75725 93.5369 9.70931 93.4768C9.66137 93.4168 9.638 93.3391 9.64433 93.2608C9.65066 93.1826 9.68617 93.1102 9.74306 93.0596C12.7011 90.0814 15.6621 87.1047 18.6201 84.1296C18.6327 84.1159 18.6468 84.1037 18.6621 84.0932C19.5651 83.4828 20.527 82.9754 21.5316 82.5795C25.6236 80.9709 29.2746 81.7245 30.4746 81.9715C34.4601 82.7949 37.0896 84.8548 38.6601 86.085C40.8889 87.8425 42.8167 89.9893 44.3601 92.4326C45.2886 93.9035 47.2221 96.9641 47.9061 101.367C48.1341 102.835 48.5166 105.294 47.7741 108.325C47.2608 110.418 46.3266 112.371 45.0351 114.05L35.3481 123.509C35.2962 123.56 35.2273 123.589 35.1561 123.588V123.589ZM17.8206 90.3775C20.9856 90.3775 23.5761 91.5095 24.9906 92.1286C31.9731 95.1734 35.5476 101.328 37.0581 104.726C37.6971 106.162 39.0231 109.149 39.0546 113.171C39.0681 114.677 39.0906 117.481 37.5501 120.448L37.4391 120.66L44.6361 113.632C45.8576 112.03 46.7422 110.171 47.2311 108.18C47.9406 105.27 47.5716 102.889 47.3511 101.467C46.6851 97.1921 44.8671 94.3105 43.8906 92.7651C42.384 90.379 40.5019 88.2825 38.3256 86.5664C36.7926 85.3646 34.2276 83.3554 30.3681 82.559C29.2071 82.3183 25.6731 81.5884 21.7296 83.14C20.7705 83.517 19.8519 83.9999 18.9891 84.5809L11.8836 91.7344C12.8345 91.2897 13.8276 90.9532 14.8461 90.7305C15.8237 90.4978 16.8229 90.3809 17.8251 90.3822L17.8221 90.379L17.8206 90.3775Z" fill="black"/>
<path id="Vector_25" d="M15.9742 110.282L26.3287 102.533L29.3257 106.475L18.9457 114.234L15.9502 113.379L15.9742 110.282Z" fill="white"/>
<path id="Vector_26" d="M18.9455 114.53C18.9212 114.53 18.8969 114.527 18.8735 114.52L15.8765 113.665C15.8161 113.648 15.763 113.61 15.7253 113.557C15.6875 113.504 15.6674 113.44 15.668 113.374L15.692 110.279C15.692 110.184 15.737 110.095 15.812 110.038L26.165 102.289C26.2238 102.245 26.2963 102.226 26.3677 102.237C26.4392 102.247 26.504 102.286 26.549 102.346L29.5445 106.289C29.5684 106.32 29.5859 106.356 29.5961 106.395C29.6063 106.434 29.6088 106.475 29.6036 106.515C29.5984 106.555 29.5856 106.593 29.5659 106.628C29.5462 106.662 29.52 106.692 29.489 106.716L19.109 114.474C19.061 114.51 19.0039 114.53 18.9455 114.53ZM16.235 113.151L18.893 113.911L28.919 106.415L26.2775 102.938L16.256 110.435L16.235 113.151Z" fill="black"/>
<path id="Vector_27" d="M27.4625 108.165C27.4212 108.165 27.3803 108.155 27.343 108.137C27.3056 108.118 27.2726 108.091 27.2465 108.057L24.1925 104.16C24.1451 104.099 24.1224 104.021 24.1294 103.942C24.1364 103.864 24.1726 103.791 24.23 103.741C24.2878 103.691 24.362 103.667 24.4365 103.674C24.5109 103.682 24.5796 103.72 24.6275 103.78L27.6815 107.677C27.7151 107.721 27.7363 107.773 27.7427 107.829C27.7491 107.885 27.7405 107.942 27.7178 107.993C27.695 108.044 27.6592 108.087 27.6143 108.117C27.5694 108.148 27.5158 108.164 27.4625 108.165ZM20.468 113.394C20.4269 113.395 20.3863 113.386 20.3489 113.368C20.3116 113.35 20.2785 113.323 20.252 113.29L17.168 109.42C17.1441 109.39 17.1261 109.356 17.1149 109.318C17.1038 109.281 17.0997 109.242 17.1029 109.203C17.1061 109.164 17.1165 109.126 17.1336 109.091C17.1507 109.057 17.1741 109.026 17.2025 109.001C17.2309 108.975 17.2636 108.956 17.299 108.945C17.3343 108.933 17.3715 108.928 17.4084 108.932C17.4453 108.935 17.4812 108.946 17.5141 108.964C17.547 108.982 17.5762 109.007 17.6 109.037L20.6825 112.907C20.7165 112.95 20.7382 113.003 20.7451 113.058C20.7519 113.114 20.7437 113.171 20.7212 113.222C20.6987 113.273 20.663 113.316 20.6182 113.347C20.5734 113.377 20.5213 113.394 20.468 113.394Z" fill="black"/>
</g>
</g>
<defs>
<clipPath id="clip0_1118_254">
<rect width="120" height="152" fill="white"/>
</clipPath>
</defs>
</svg>
