<svg width="128" height="128" viewBox="0 0 128 128" fill="none" xmlns="http://www.w3.org/2000/svg">
<g id="illustration / deriv / light / ic-no-data">
<g id="Vector">
<path fill-rule="evenodd" clip-rule="evenodd" d="M77.953 6.00836L80.0115 6.00835V10.0084L77.9531 10.0084L77.953 6.00836ZM69.7192 6.00836L73.8361 6.00836V10.0084L69.7192 10.0084L69.7192 6.00836ZM61.4853 6.00837L65.6022 6.00837V10.0084L61.4853 10.0084L61.4853 6.00837ZM53.2514 6.00838L57.3684 6.00837L57.3684 10.0084L53.2514 10.0084L53.2514 6.00838ZM45.0176 6.00838L49.1345 6.00838L49.1345 10.0084L45.0176 10.0084L45.0176 6.00838ZM36.7837 6.00839L40.9006 6.00839L40.9006 10.0084L36.7837 10.0084L36.7837 6.00839ZM32.6668 6.0084L32.6668 10.0084L30.6936 10.0084C30.5044 10.0245 30.3267 10.0391 30.1577 10.053C29.76 10.0857 29.4098 10.1145 29.0685 10.1495L28.661 6.17029C29.0426 6.13122 29.458 6.09701 29.879 6.06234C30.0648 6.04705 30.2516 6.03167 30.4372 6.01573L30.5226 6.0084L32.6668 6.0084ZM22.785 8.65887C23.3597 8.14082 23.9297 7.7153 24.5208 7.37181L26.5305 10.8303C26.2314 11.0041 25.8997 11.242 25.5165 11.5822C25.231 11.8849 25.0014 12.1892 24.8154 12.4964L21.3933 10.4254C21.75 9.83609 22.179 9.28016 22.6845 8.75602L22.7331 8.70569L22.785 8.65887ZM20.0012 16.289C19.9918 15.6474 20.0161 15.009 20.0892 14.3779L24.0627 14.8379C24.0128 15.2689 23.993 15.7347 24.001 16.2426L24.0012 16.2582V18.2849H20.0012V16.289ZM20.0012 26.3293V22.3071H24.0012V26.3293H20.0012ZM20.0012 34.3736V30.3514H24.0012V34.3736H20.0012ZM105.997 33.9992V35.9666H101.997V33.9992H105.997ZM20.0012 42.418V38.3958H24.0012V42.418H20.0012ZM105.997 39.9014V43.8362H101.997V39.9014H105.997ZM20.0012 50.4623V46.4402H24.0012V50.4623H20.0012ZM105.997 47.771V51.7058H101.997V47.771H105.997ZM20.0012 58.5067V54.4845H24.0012V58.5067H20.0012ZM105.997 55.6407V59.5755H101.997V55.6407H105.997ZM20.0012 66.5511V62.5289H24.0012V66.5511H20.0012ZM105.997 63.5103V67.4451H101.997V63.5103H105.997ZM20.0012 74.5954V70.5732H24.0012V74.5954H20.0012ZM105.997 71.3799V75.3147H101.997V71.3799H105.997ZM20.0012 82.6398V78.6176H24.0012V82.6398H20.0012ZM105.997 79.2495V83.1843H101.997V79.2495H105.997ZM20.0012 90.6841V86.6619H24.0012V90.6841H20.0012ZM105.997 87.1191V91.0539H101.997V87.1191H105.997ZM20.0012 98.7285V94.7063H24.0012V98.7285H20.0012ZM105.997 94.9887V98.9235H101.997V94.9887H105.997ZM20.0012 106.773V102.751H24.0012V106.773H20.0012ZM105.997 102.858V106.793H101.997V102.858H105.997ZM105.997 112.68V110.728H101.997V112.711L101.997 112.727C102.006 113.278 102.001 113.793 101.97 114.28L105.962 114.532C106.002 113.906 106.006 113.282 105.997 112.68ZM20.0012 112.791V110.795H24.0012V112.822L24.001 112.838C23.9936 113.303 24.0322 113.763 24.1143 114.214L20.1789 114.931C20.0514 114.23 19.9909 113.513 20.0012 112.791ZM23.1018 120.632C22.5963 120.108 22.1476 119.539 21.7593 118.936L25.1234 116.772C25.3527 117.128 25.615 117.465 25.9086 117.779C26.3243 118.121 26.6924 118.394 27.0358 118.618L24.8523 121.969C24.3247 121.625 23.8023 121.231 23.2604 120.779L23.1771 120.71L23.1018 120.632ZM104.948 118.618C104.611 119.279 104.173 119.907 103.616 120.485L103.603 120.498L103.59 120.511C103.196 120.905 102.781 121.287 102.337 121.645L99.8261 118.531C100.134 118.283 100.438 118.006 100.749 117.696C101.016 117.416 101.223 117.118 101.385 116.8L104.948 118.618ZM99.2615 123.438C98.7277 123.645 98.1646 123.816 97.5661 123.951L97.3489 124H95.0558V120H96.8921C97.2257 119.916 97.5328 119.818 97.8185 119.708L99.2615 123.438ZM30.5304 123.97C29.8715 123.855 29.258 123.735 28.6786 123.592L29.6342 119.708C30.0486 119.81 30.511 119.904 31.0494 120H32.9446V124H30.701L30.5304 123.97ZM41.2261 124H37.0853V120H41.2261V124ZM49.5076 124H45.3668V120H49.5076V124ZM57.7891 124H53.6483V120H57.7891V124ZM66.0706 124H61.9298V120H66.0706V124ZM74.3521 124H70.2113V120H74.3521V124ZM82.6336 124H78.4928V120H82.6336V124ZM90.9151 124H86.7743V120H90.9151V124Z" fill="#BBCCCE"/>
<path d="M89 87.0001H39C37.3431 87.0001 36 88.3432 36 90.0001C36 91.6569 37.3431 93.0001 39 93.0001H89C90.6569 93.0001 92 91.6569 92 90.0001C92 88.3432 90.6569 87.0001 89 87.0001Z" fill="#E0F0F0"/>
<path d="M89 73.0001H39C37.3431 73.0001 36 74.3432 36 76.0001C36 77.6569 37.3431 79.0001 39 79.0001H89C90.6569 79.0001 92 77.6569 92 76.0001C92 74.3432 90.6569 73.0001 89 73.0001Z" fill="#E0F0F0"/>
<path d="M89 59.0001H39C37.3431 59.0001 36 60.3432 36 62.0001C36 63.6569 37.3431 65.0001 39 65.0001H89C90.6569 65.0001 92 63.6569 92 62.0001C92 60.3432 90.6569 59.0001 89 59.0001Z" fill="#E0F0F0"/>
<path d="M57 45.0001H39C37.3431 45.0001 36 46.3432 36 48.0001C36 49.6569 37.3431 51.0001 39 51.0001H57C58.6569 51.0001 60 49.6569 60 48.0001C60 46.3432 58.6569 45.0001 57 45.0001Z" fill="#E0F0F0"/>
<path d="M89 101H39C37.3431 101 36 102.343 36 104C36 105.657 37.3431 107 39 107H89C90.6569 107 92 105.657 92 104C92 102.343 90.6569 101 89 101Z" fill="#E0F0F0"/>
<path d="M79.9995 6V29.45C79.9907 30.0387 80.0978 30.6233 80.3149 31.1705C80.532 31.7178 80.8547 32.2169 81.2647 32.6394C81.6747 33.0619 82.1639 33.3995 82.7043 33.633C83.2448 33.8664 83.826 33.9911 84.4146 34H106L79.9995 6Z" fill="#BBCCCE"/>
<path d="M0 26.0001C0 23.8784 0.842855 21.8435 2.34315 20.3432C3.84344 18.8429 5.87827 18.0001 8 18.0001H18V110H8C5.87827 110 3.84344 109.157 2.34315 107.657C0.842855 106.157 0 104.122 0 102V26.0001Z" fill="#E0F0F0"/>
<path fill-rule="evenodd" clip-rule="evenodd" d="M82.355 95.7101C88.523 95.7101 94.197 93.5901 98.687 90.0401L106.897 98.2501L106.509 101.745L118.156 113.392C119.189 114.404 120.58 114.967 122.026 114.959C123.472 114.951 124.857 114.373 125.88 113.351C126.902 112.328 127.48 110.943 127.488 109.497C127.496 108.051 126.933 106.661 125.921 105.627L114.274 93.9801L110.779 94.3681L102.618 86.2071C106.563 81.4784 108.719 75.5132 108.71 69.3551C108.71 54.7991 96.91 43.0001 82.355 43.0001C67.799 43.0001 56 54.8001 56 69.3551C56 83.9101 67.8 95.7101 82.355 95.7101ZM102.67 69.3551C102.67 80.5751 93.574 89.6701 82.355 89.6701C71.135 89.6701 62.04 80.5751 62.04 69.3551C62.04 58.1351 71.135 49.0401 82.355 49.0401C93.575 49.0401 102.67 58.1351 102.67 69.3551Z" fill="#85ACB0"/>
</g>
</g>
</svg>
