<svg width="128" height="128" viewBox="0 0 128 128" fill="none" xmlns="http://www.w3.org/2000/svg">
<g id="illustration / deriv / light / ic-email-sent">
<path id="Vector" d="M13 44.6261V58.7131L50.62 90.3031L57.185 84.7211L63.75 79.1381L70.21 84.9691L76.67 90.8001L115 58.0481V45.0631C115 44.7249 114.914 44.3923 114.75 44.0968C114.585 43.8014 114.348 43.5529 114.06 43.3751L66.11 13.6021C65.4744 13.2094 64.7421 13.0015 63.995 13.0015C63.2479 13.0015 62.5156 13.2094 61.88 13.6021L14 42.9291C13.388 43.2791 13.008 43.9241 13 44.6261Z" fill="#BBCCCE"/>
<path id="Vector_2" d="M21 30.248V89.652H107V30.248C106.999 29.7235 106.895 29.2042 106.694 28.7199C106.493 28.2355 106.198 27.7956 105.826 27.4253C105.455 27.0549 105.014 26.7614 104.529 26.5615C104.044 26.3615 103.525 26.2591 103 26.26H25C22.79 26.26 21 28.044 21 30.248Z" fill="#E1F4F3"/>
<path id="Vector_3" d="M74.043 70.26H64.399C52.791 70.26 46 62.97 46 52.39C46 41.81 53.062 34.26 64.4 34.26C74.96 34.26 82 40.604 82 50.473C82.029 57.381 78.678 61.491 73.449 61.491C70.149 61.491 67.897 59.841 67.714 57.416H67.487C67.056 59.853 64.772 61.579 62.207 61.406C58.167 61.406 55.137 58.326 55.137 52.426C55.137 46.526 58.167 43.445 62.207 43.445C64.414 43.367 66.381 44.774 66.937 46.828H67.164V43.804H72.297V55.471C72.297 56.881 73.031 57.641 74.314 57.641C76.382 57.641 77.804 55.527 77.804 51.135V49.915C77.804 42.5 72.246 38.038 64.444 38.038C55.819 38.038 50.312 43.678 50.312 51.565V53.215C50.268 61.11 55.775 66.425 64.4 66.425H74.043V70.26ZM67.157 54.752V49.705C67.157 48.358 65.69 47.357 64.084 47.357C63.6019 47.3353 63.1204 47.4119 62.6688 47.5821C62.2172 47.7523 61.8049 48.0125 61.457 48.347C61.1177 48.6728 60.8525 49.0679 60.6795 49.5053C60.5064 49.9427 60.4295 50.4122 60.454 50.882V53.828C60.4282 54.2981 60.5041 54.7682 60.6767 55.2063C60.8493 55.6443 61.1144 56.0399 61.454 56.366C61.8023 56.7006 62.2151 56.9608 62.6673 57.1305C63.1195 57.3002 63.6016 57.3759 64.084 57.353C65.639 57.423 67.157 56.035 67.157 54.73V54.752Z" fill="#84ABAE"/>
<path id="Vector_4" d="M13 49.197V111.012C13.0008 111.537 13.1049 112.056 13.3063 112.54C13.5078 113.024 13.8026 113.464 14.1741 113.834C14.5455 114.205 14.9862 114.498 15.4711 114.698C15.956 114.898 16.4755 115.001 17 115H110.969C113.178 115 114.969 113.215 114.969 111.012V49.197L76.782 82.003L66.6 72.926C65.8816 72.2533 64.9342 71.879 63.95 71.879C62.9658 71.879 62.0184 72.2533 61.3 72.926L51.178 81.968L13 49.198V49.197Z" fill="#84ABAE"/>
<path id="Vector_5" fill-rule="evenodd" clip-rule="evenodd" d="M114.479 112.925L67.9368 71.4349L67.9308 71.439C66.845 70.4382 65.422 69.8832 63.9454 69.8845C62.4688 69.8858 61.0468 70.4433 59.9628 71.4459L13.5098 112.96C13.8579 113.579 14.3647 114.095 14.9781 114.453C15.5915 114.812 16.2893 115.001 16.9998 115H17.1998L62.6758 74.399L62.6838 74.3909C63.0327 74.065 63.4923 73.8838 63.9698 73.8838C64.4472 73.8838 64.9068 74.065 65.2558 74.3909L65.2648 74.399L110.8 115H110.969C111.686 115.001 112.391 114.809 113.008 114.444C113.626 114.078 114.134 113.554 114.479 112.925Z" fill="#E1F4F3"/>
</g>
</svg>
