<svg width="83" height="123" viewBox="0 0 83 123" fill="none" xmlns="http://www.w3.org/2000/svg">
<g id="illustration / deriv / light / qr-phone-success" clip-path="url(#clip0_1839_134)">
<g id="Group">
<g id="Vector">
<path d="M55.7005 0.329834H6.53052C3.21681 0.329834 0.530518 3.01613 0.530518 6.32983V111.66C0.530518 114.974 3.21681 117.66 6.53052 117.66H55.7005C59.0142 117.66 61.7005 114.974 61.7005 111.66V6.32983C61.7005 3.01613 59.0142 0.329834 55.7005 0.329834Z" fill="#F5F5F5"/>
<path d="M31.1105 115.53C33.8719 115.53 36.1105 113.291 36.1105 110.53C36.1105 107.768 33.8719 105.53 31.1105 105.53C28.3491 105.53 26.1105 107.768 26.1105 110.53C26.1105 113.291 28.3491 115.53 31.1105 115.53Z" fill="#E5E5E5"/>
<path d="M38.4505 4.44983H23.7605C23.2911 4.44983 22.9105 4.83039 22.9105 5.29983V5.30983C22.9105 5.77928 23.2911 6.15983 23.7605 6.15983H38.4505C38.92 6.15983 39.3005 5.77928 39.3005 5.30983V5.29983C39.3005 4.83039 38.92 4.44983 38.4505 4.44983Z" fill="#E5E5E5"/>
<path d="M2.35073 10.6298H59.8507V103.73H2.35073V10.6298Z" fill="#C7E5E5"/>
<path d="M25.9109 39.4397C25.9125 39.0093 25.8291 38.5829 25.6654 38.1849C25.5018 37.7869 25.2612 37.4251 24.9573 37.1204C24.6535 36.8156 24.2925 36.5739 23.895 36.409C23.4974 36.2441 23.0713 36.1594 22.6409 36.1597H12.8009C11.931 36.1597 11.0968 36.5052 10.4816 37.1204C9.86652 37.7355 9.52095 38.5698 9.52095 39.4397V49.2697C9.52095 50.1396 9.86652 50.9739 10.4816 51.589C11.0968 52.2041 11.931 52.5497 12.8009 52.5497H22.6409C23.0711 52.5493 23.497 52.4641 23.8942 52.299C24.2914 52.1339 24.6521 51.8921 24.9558 51.5875C25.2595 51.2829 25.5002 50.9214 25.6641 50.5237C25.828 50.1259 25.9119 49.6998 25.9109 49.2697V39.4397ZM23.0009 49.2197C23.001 49.2704 22.9908 49.3207 22.9711 49.3674C22.9514 49.4142 22.9225 49.4566 22.8861 49.492C22.8498 49.5274 22.8067 49.5552 22.7594 49.5737C22.7122 49.5922 22.6617 49.601 22.6109 49.5997H12.7909C12.6892 49.5997 12.5915 49.56 12.5187 49.489C12.4458 49.418 12.4036 49.3214 12.4009 49.2197V39.4197C12.4036 39.318 12.4458 39.2213 12.5187 39.1503C12.5915 39.0794 12.6892 39.0396 12.7909 39.0397H22.5809C22.6317 39.0381 22.6823 39.0469 22.7295 39.0655C22.7768 39.084 22.8198 39.112 22.8559 39.1477C22.9299 39.2187 22.9709 39.3177 22.9709 39.4197V49.2197H23.0009Z" fill="white"/>
<path d="M14.5409 41.1797H20.8309V47.4697H14.5409V41.1797ZM25.9109 65.0597C25.9125 64.6293 25.8291 64.2029 25.6654 63.8049C25.5018 63.4069 25.2612 63.0451 24.9573 62.7404C24.6535 62.4356 24.2925 62.1939 23.895 62.029C23.4974 61.8641 23.0713 61.7794 22.6409 61.7797H12.8009C11.931 61.7797 11.0968 62.1252 10.4816 62.7404C9.86652 63.3555 9.52095 64.1898 9.52095 65.0597V74.8897C9.52095 75.7596 9.86652 76.5939 10.4816 77.209C11.0968 77.8241 11.931 78.1697 12.8009 78.1697H22.6409C23.0711 78.1693 23.497 78.0841 23.8942 77.919C24.2914 77.7539 24.6521 77.5121 24.9558 77.2075C25.2595 76.9029 25.5002 76.5414 25.6641 76.1437C25.828 75.7459 25.9119 75.3198 25.9109 74.8897V65.0597ZM23.0009 74.8897C23.0037 74.9914 22.9665 75.0903 22.8974 75.165C22.8283 75.2397 22.7326 75.2845 22.6309 75.2897H12.7909C12.6866 75.2871 12.5874 75.2438 12.5145 75.169C12.4417 75.0943 12.4009 74.994 12.4009 74.8897V65.0797C12.398 64.9725 12.4371 64.8685 12.5101 64.7899C12.583 64.7114 12.6839 64.6646 12.7909 64.6597H22.6009C22.7053 64.6674 22.8025 64.7157 22.8716 64.7942C22.9408 64.8727 22.9765 64.9752 22.9709 65.0797V74.8897H23.0009Z" fill="white"/>
<path d="M14.5409 66.7997H20.8309V73.1597H14.5409V66.7997ZM51.4009 39.4397C51.4009 38.5698 51.0554 37.7355 50.4403 37.1204C49.8251 36.5052 48.9909 36.1597 48.1209 36.1597H38.2909C37.8594 36.1585 37.4319 36.2425 37.0328 36.4067C36.6338 36.571 36.2711 36.8124 35.9655 37.1171C35.6599 37.4218 35.4174 37.7838 35.2518 38.1823C35.0863 38.5809 35.0011 39.0081 35.0009 39.4397V49.2697C35.0009 50.1396 35.3465 50.9739 35.9616 51.589C36.5768 52.2041 37.411 52.5497 38.2809 52.5497H48.1109C48.9809 52.5497 49.8151 52.2041 50.4303 51.589C51.0454 50.9739 51.3909 50.1396 51.3909 49.2697L51.4009 39.4397ZM48.4609 49.2197C48.4583 49.3214 48.4161 49.418 48.3432 49.489C48.2704 49.56 48.1727 49.5997 48.0709 49.5997H38.2809C38.2302 49.6012 38.1796 49.5925 38.1324 49.5739C38.0851 49.5553 38.0421 49.5274 38.0059 49.4917C37.9695 49.4564 37.9405 49.4141 37.9207 49.3674C37.9009 49.3207 37.8908 49.2704 37.8909 49.2197V39.4197C37.8909 39.3689 37.9011 39.3187 37.9208 39.2719C37.9405 39.2251 37.9694 39.1828 38.0058 39.1474C38.0421 39.112 38.0852 39.0842 38.1325 39.0657C38.1797 39.0472 38.2302 39.0383 38.2809 39.0397H48.0709C48.1727 39.0396 48.2704 39.0794 48.3432 39.1503C48.4161 39.2213 48.4583 39.318 48.4609 39.4197V49.2197Z" fill="white"/>
<path d="M40.0309 41.1797H46.3909V47.4697H40.0309V41.1797ZM13.2609 54.4197C13.1477 54.4186 13.0353 54.4401 12.9304 54.4829C12.8256 54.5258 12.7303 54.5891 12.6501 54.6691C12.57 54.7492 12.5066 54.8444 12.4636 54.9492C12.4207 55.0541 12.399 55.1664 12.3999 55.2797V57.4497C12.3995 57.5623 12.4216 57.674 12.4649 57.778C12.5081 57.882 12.5717 57.9764 12.6519 58.0555C12.7321 58.1347 12.8272 58.1971 12.9318 58.239C13.0364 58.2809 13.1483 58.3015 13.2609 58.2997H15.2609V58.3797C15.2609 58.606 15.3502 58.8233 15.5093 58.9843C15.6684 59.1453 15.8846 59.237 16.1109 59.2397H21.0009V59.3197C21.0009 59.4321 21.0233 59.5435 21.0666 59.6473C21.1099 59.7511 21.1734 59.8452 21.2534 59.9243C21.3334 60.0033 21.4283 60.0657 21.5326 60.1079C21.6369 60.15 21.7485 60.171 21.8609 60.1697H24.0309C24.5009 60.1697 24.8809 59.7897 24.8809 59.3197V57.2197C24.8822 57.1072 24.8612 56.9955 24.8192 56.8912C24.7771 56.7869 24.7149 56.6919 24.6359 56.6117C24.5567 56.5319 24.4624 56.4686 24.3586 56.4253C24.2548 56.3821 24.1434 56.3598 24.0309 56.3597H23.0009V55.2797C23.0022 55.1672 22.9812 55.0555 22.9392 54.9512C22.8971 54.8469 22.8349 54.7519 22.7559 54.6717C22.6767 54.5919 22.5824 54.5286 22.4786 54.4853C22.3748 54.4421 22.2634 54.4198 22.1509 54.4197H21.0009C20.7729 54.4197 20.5541 54.5103 20.3928 54.6716C20.2316 54.8328 20.1409 55.0516 20.1409 55.2797V56.3597H16.2809V55.2797C16.2822 55.1672 16.2612 55.0555 16.2192 54.9512C16.1771 54.8469 16.1149 54.7519 16.0359 54.6717C15.9567 54.5919 15.8624 54.5286 15.7586 54.4853C15.6548 54.4421 15.5434 54.4198 15.4309 54.4197H13.2609ZM29.1909 50.2197C29.1909 50.6947 29.5759 51.0797 30.0509 51.0797H33.1509C33.3782 51.0771 33.5955 50.9856 33.7562 50.8249C33.9169 50.6642 34.0083 50.447 34.0109 50.2197V48.0497C34.0083 47.8233 33.9165 47.6071 33.7556 47.448C33.5946 47.2889 33.3773 47.1997 33.1509 47.1997H32.0709V40.5097H32.2109C32.439 40.5097 32.6578 40.4191 32.8191 40.2578C32.9803 40.0965 33.0709 39.8778 33.0709 39.6497V38.4897C33.072 38.3764 33.0505 38.264 33.0077 38.1592C32.9648 38.0543 32.9016 37.959 32.8215 37.8788C32.7414 37.7987 32.6462 37.7353 32.5414 37.6923C32.4366 37.6494 32.3242 37.6277 32.2109 37.6287H28.1109C27.9975 37.6275 27.885 37.6489 27.78 37.6918C27.675 37.7346 27.5796 37.798 27.4994 37.8782C27.4193 37.9584 27.3559 38.0538 27.313 38.1588C27.2702 38.2638 27.2487 38.3763 27.2499 38.4897V39.6497C27.2499 40.1247 27.6359 40.5097 28.1109 40.5097H29.1909V43.5897H28.1109C27.9985 43.5884 27.8868 43.6094 27.7825 43.6514C27.6781 43.6935 27.5831 43.7558 27.5029 43.8347C27.4232 43.914 27.3598 44.0082 27.3166 44.112C27.2734 44.2159 27.251 44.3272 27.2509 44.4397V44.5997C27.2492 44.7131 27.2702 44.8257 27.3128 44.9308C27.3554 45.036 27.4187 45.1315 27.4989 45.2117C27.5791 45.2919 27.6746 45.3552 27.7798 45.3978C27.8849 45.4404 27.9975 45.4614 28.1109 45.4597H29.1909V50.2197ZM31.6709 53.3397C31.6709 53.1116 31.5803 52.8928 31.4191 52.7316C31.2578 52.5703 31.039 52.4797 30.8109 52.4797H28.6409C28.5285 52.4797 28.4171 52.502 28.3133 52.5453C28.2096 52.5887 28.1154 52.6522 28.0363 52.7322C27.9573 52.8121 27.8949 52.907 27.8528 53.0113C27.8106 53.1156 27.7896 53.2272 27.7909 53.3397V55.5097C27.7909 55.9797 28.1709 56.3597 28.6409 56.3597H30.8109C31.0373 56.3597 31.2546 56.2705 31.4156 56.1113C31.5765 55.9522 31.6683 55.736 31.6709 55.5097V53.3397ZM47.0509 63.1197H46.0009C45.7746 63.1197 45.5573 63.2089 45.3963 63.368C45.2353 63.5271 45.1436 63.7433 45.1409 63.9697V67.9697C45.1436 68.196 45.2353 68.4122 45.3963 68.5713C45.5573 68.7305 45.7746 68.8197 46.0009 68.8197H50.1109C50.5809 68.8197 50.9609 68.4397 50.9609 67.9697V55.2797C50.9622 55.1672 50.9412 55.0555 50.8992 54.9512C50.8571 54.8469 50.7949 54.7519 50.7159 54.6717C50.6367 54.5919 50.5424 54.5286 50.4386 54.4853C50.3348 54.4421 50.2234 54.4198 50.1109 54.4197H47.9109C47.6829 54.4197 47.4641 54.5103 47.3028 54.6716C47.1416 54.8328 47.0509 55.0516 47.0509 55.2797V63.1197ZM37.5009 59.9997C37.7273 59.9997 37.9445 59.9105 38.1055 59.7513C38.2665 59.5922 38.3583 59.376 38.3609 59.1497V56.9997C38.3609 56.7716 38.2703 56.5528 38.1091 56.3916C37.9478 56.2303 37.729 56.1397 37.5009 56.1397H35.3309C35.2185 56.1397 35.1071 56.162 35.0033 56.2053C34.8996 56.2487 34.8054 56.3122 34.7263 56.3922C34.6473 56.4722 34.5849 56.567 34.5428 56.6713C34.5006 56.7756 34.4796 56.8872 34.4809 56.9997V58.0997H30.4809C30.3677 58.0986 30.2553 58.1201 30.1504 58.1629C30.0456 58.2058 29.9503 58.2691 29.8701 58.3491C29.79 58.4292 29.7266 58.5244 29.6836 58.6292C29.6407 58.7341 29.619 58.8464 29.6199 58.9597V63.9597C29.6187 64.0731 29.6402 64.1856 29.683 64.2906C29.7259 64.3956 29.7893 64.491 29.8694 64.5712C29.9496 64.6514 30.045 64.7147 30.15 64.7576C30.255 64.8004 30.3675 64.8219 30.4809 64.8207H36.4809C36.5936 64.8211 36.7052 64.799 36.8093 64.7558C36.9133 64.7125 37.0077 64.6489 37.0868 64.5687C37.166 64.4886 37.2283 64.3934 37.2703 64.2888C37.3122 64.1842 37.3328 64.0723 37.3309 63.9597V59.9997H37.5009ZM45.1109 55.4197V54.3397C45.111 54.1133 45.0217 53.8961 44.8626 53.7351C44.7035 53.5741 44.4873 53.4823 44.2609 53.4797H44.0009C43.7737 53.4823 43.5564 53.5737 43.3957 53.7344C43.235 53.8952 43.1435 54.1124 43.1409 54.3397V55.4197H41.1409C40.9146 55.4223 40.6984 55.5141 40.5393 55.6751C40.3802 55.8361 40.2909 56.0533 40.2909 56.2797V59.2797C40.2909 59.7497 40.6709 60.1297 41.1409 60.1297H44.2509C44.7209 60.1297 45.1009 59.7497 45.1009 59.2797L45.1109 55.4197ZM39.3609 65.9997H37.3609C37.1337 66.0023 36.9164 66.0937 36.7557 66.2544C36.595 66.4152 36.5035 66.6324 36.5009 66.8597V67.9997C36.5036 68.226 36.5953 68.4422 36.7563 68.6013C36.9173 68.7605 37.1346 68.8497 37.3609 68.8497H39.3609V76.3497C39.3609 76.4621 39.3832 76.5735 39.4266 76.6773C39.4699 76.7811 39.5334 76.8752 39.6134 76.9543C39.6934 77.0333 39.7883 77.0957 39.8926 77.1379C39.9969 77.18 40.1085 77.201 40.2209 77.1997H42.3209C42.7909 77.1997 43.1709 76.8197 43.1709 76.3497V62.9997C43.171 62.7733 43.0817 62.5561 42.9226 62.3951C42.7635 62.2341 42.5473 62.1423 42.3209 62.1397H40.2209C39.9929 62.1397 39.7741 62.2303 39.6128 62.3916C39.4516 62.5528 39.3609 62.7716 39.3609 62.9997V65.9997ZM29.7309 76.3697C29.7309 76.8397 30.1109 77.2197 30.5809 77.2197H33.6909C34.1609 77.2197 34.5409 76.8397 34.5409 76.3697V67.7897C34.5422 67.6772 34.5212 67.5655 34.4792 67.4612C34.4371 67.3568 34.3749 67.2619 34.2959 67.1817C34.2167 67.1019 34.1224 67.0386 34.0186 66.9953C33.9148 66.9521 33.8034 66.9298 33.6909 66.9297H30.5809C30.4685 66.9297 30.3571 66.952 30.2533 66.9953C30.1496 67.0387 30.0554 67.1022 29.9763 67.1822C29.8973 67.2622 29.8349 67.357 29.7928 67.4613C29.7506 67.5656 29.7296 67.6772 29.7309 67.7897V76.3697ZM44.4409 76.3697C44.4436 76.596 44.5353 76.8122 44.6963 76.9713C44.8573 77.1305 45.0746 77.2197 45.3009 77.2197H48.1409C48.6109 77.2197 48.9909 76.8397 48.9909 76.3697V74.2597C48.9909 74.0342 48.9014 73.818 48.742 73.6586C48.5826 73.4992 48.3664 73.4097 48.1409 73.4097H45.3009C45.0746 73.4097 44.8573 73.4989 44.6963 73.658C44.5353 73.8171 44.4436 74.0333 44.4409 74.2597V76.3697Z" fill="white"/>
<path d="M59.9905 123C72.6986 123 83.0005 112.702 83.0005 99.9998C83.0005 87.2973 72.6986 76.9998 59.9905 76.9998C47.2824 76.9998 36.9805 87.2973 36.9805 99.9998C36.9805 112.702 47.2824 123 59.9905 123Z" fill="#84ABAE"/>
<path d="M58.3805 107.38C58.1335 107.38 57.8935 107.295 57.7005 107.14L51.6405 102.14C51.4242 101.957 51.2876 101.697 51.2596 101.415C51.2316 101.133 51.3144 100.852 51.4905 100.63C51.5797 100.521 51.6896 100.43 51.8138 100.364C51.938 100.297 52.0742 100.256 52.2144 100.242C52.3547 100.228 52.4963 100.242 52.6312 100.282C52.7661 100.323 52.8916 100.39 53.0005 100.48L58.2305 104.76L67.6805 93.1498C67.7682 93.0379 67.8773 92.9446 68.0014 92.8754C68.1255 92.8061 68.2622 92.7623 68.4035 92.7465C68.5447 92.7306 68.6877 92.7431 68.8241 92.7831C68.9605 92.8232 69.0876 92.89 69.1978 92.9797C69.3081 93.0694 69.3994 93.1801 69.4664 93.3055C69.5334 93.4308 69.5748 93.5683 69.5881 93.7098C69.6013 93.8513 69.5863 93.9941 69.5438 94.1297C69.5013 94.2654 69.4322 94.3912 69.3405 94.4998L59.2205 107C59.1305 107.11 59.0196 107.201 58.8944 107.268C58.7691 107.334 58.6319 107.376 58.4905 107.39L58.3805 107.38Z" fill="white"/>
</g>
</g>
</g>
<defs>
<clipPath id="clip0_1839_134">
<rect width="83" height="123" fill="white"/>
</clipPath>
</defs>
</svg>
