<svg width="120" height="152" viewBox="0 0 120 152" fill="none" xmlns="http://www.w3.org/2000/svg">
<g id="illustration / deriv / light / understand-the-risk">
<g id="Sec&#38;Res-illustration-01">
<g id="Group 7">
<g id="Layer 114 copy 3">
<g id="Group">
<path id="Vector" d="M59.6881 107.394C55.581 106.784 51.4738 106.17 47.3652 105.56C47.4324 101.347 47.5038 97.1328 47.5724 92.9199C51.6038 93.5428 55.6309 94.1614 59.6581 94.7799C59.6667 98.9842 59.6781 103.19 59.6881 107.394Z" fill="white"/>
<path id="Vector_2" d="M59.6882 107.68C59.6739 107.68 59.6596 107.68 59.6468 107.677C57.6011 107.373 55.5539 107.069 53.5082 106.763C51.4468 106.456 49.3868 106.149 47.3254 105.843C47.1839 105.821 47.0796 105.699 47.0811 105.556C47.1154 103.449 47.1496 101.34 47.1839 99.2329C47.2182 97.1272 47.2525 95.0215 47.2868 92.9157C47.2868 92.8329 47.3254 92.7557 47.3882 92.7015C47.4511 92.6486 47.5339 92.6243 47.6154 92.6372C51.6454 93.2586 55.6739 93.8786 59.7011 94.4972C59.8396 94.5186 59.9425 94.6386 59.9439 94.7786C59.9482 96.8815 59.9539 98.9829 59.9582 101.086C59.9639 103.189 59.9682 105.29 59.9725 107.393C59.9725 107.476 59.9368 107.556 59.8739 107.61C59.8211 107.656 59.7554 107.68 59.6868 107.68H59.6882ZM47.6554 105.314C49.6339 105.609 51.6125 105.903 53.5911 106.197C55.5282 106.486 57.4654 106.774 59.4011 107.061C59.3968 105.07 59.3925 103.079 59.3868 101.087C59.3825 99.0657 59.3768 97.0457 59.3725 95.0243C55.5325 94.4343 51.6939 93.8443 47.8511 93.2515C47.8182 95.2486 47.7854 97.2443 47.7525 99.2415C47.7196 101.266 47.6854 103.29 47.6539 105.314H47.6554Z" fill="black"/>
</g>
<g id="Group_2">
<path id="Vector_3" d="M59.6737 63.7815C59.6494 71.1744 59.6266 78.5629 59.6023 85.9544C55.5509 85.3858 51.4994 84.8158 47.448 84.2472C47.4623 76.8115 47.4751 69.3715 47.4894 61.9358C51.5494 62.5515 55.6123 63.1658 59.6737 63.7815Z" fill="white"/>
<path id="Vector_4" d="M59.6024 86.24C59.5895 86.24 59.5752 86.24 59.5624 86.2371L47.4081 84.53C47.2666 84.51 47.1624 84.3885 47.1624 84.2471C47.1695 80.5285 47.1766 76.81 47.1824 73.0914C47.1895 69.3728 47.1952 65.6528 47.2024 61.9357C47.2024 61.8528 47.2395 61.7743 47.3024 61.72C47.3652 61.6657 47.4481 61.6414 47.5309 61.6543C49.5166 61.9557 51.5024 62.2557 53.4895 62.5571C55.5652 62.8714 57.6409 63.1857 59.7152 63.5C59.8552 63.5214 59.9581 63.6414 59.9581 63.7828L59.8866 85.9557C59.8866 86.0385 59.8509 86.1171 59.7881 86.17C59.7352 86.2157 59.6695 86.24 59.6009 86.24H59.6024ZM47.7352 84L59.3181 85.6271L59.3866 64.0271C57.3938 63.7243 55.3995 63.4228 53.4052 63.1214C51.5281 62.8371 49.6509 62.5528 47.7752 62.2685C47.7681 65.8757 47.7624 69.4843 47.7552 73.0928C47.7481 76.7285 47.7424 80.3643 47.7352 84Z" fill="black"/>
</g>
<g id="Group_3">
<path id="Vector_5" d="M113.983 109.103C113.685 110.164 113.16 111.963 111.597 113.681C110.48 114.906 109.28 115.604 108.485 115.984C101.868 119.049 98.9683 120.333 92.3525 123.396C92.9511 123.101 93.5725 122.72 94.1954 122.226C94.5497 121.946 96.2211 120.571 97.3025 118.119C98.0783 116.364 98.1954 114.863 98.2754 113.763C98.414 111.787 98.1311 110.246 97.9683 109.517C97.644 108.054 97.1511 106.887 96.7325 106.061C85.9711 83.8929 75.3097 61.9372 64.554 39.7915C64.2154 39.0572 63.7011 38.0701 62.9468 36.9872C62.1211 35.8072 60.8411 34.0143 58.5468 32.5758C57.6025 31.9829 55.4183 30.6501 52.3311 30.5772C51.5468 30.5572 49.9811 30.5358 48.1797 31.2401C55.144 27.9086 58.3925 26.3501 65.3597 23.0172C66.7225 22.7343 69.4725 22.3772 72.4897 23.5443C74.8011 24.4372 76.2611 25.8358 77.1254 26.6786C78.7797 28.2943 79.7583 29.9543 80.3154 31.0929C91.1397 53.4043 101.964 75.7172 112.785 98.0286C113.407 99.4315 115.348 104.206 113.98 109.1L113.983 109.103Z" fill="#EBECEE"/>
<path id="Vector_6" d="M92.3539 123.681C92.2468 123.681 92.1453 123.621 92.0953 123.519C92.0282 123.377 92.0868 123.209 92.2268 123.139C92.8568 122.829 93.4596 122.446 94.0182 122.001C94.4725 121.641 96.0339 120.29 97.0425 118.001C97.8096 116.267 97.9196 114.747 97.9925 113.741C98.0911 112.343 97.9868 110.903 97.6925 109.579C97.4311 108.399 97.0239 107.259 96.4811 106.19C85.7168 84.0172 75.0553 62.0614 64.3011 39.9157C63.8525 38.9429 63.3196 38.0143 62.7168 37.15C61.9582 36.0672 60.6896 34.2543 58.3996 32.8172C57.5796 32.3029 55.4025 30.9343 52.3296 30.8614C51.6582 30.8443 50.0853 30.8029 48.2882 31.5057C48.1453 31.5614 47.9839 31.4943 47.9225 31.3529C47.8611 31.2114 47.9225 31.0472 48.0611 30.9814C51.2011 29.48 53.5853 28.3372 55.8953 27.2314C58.7096 25.8843 61.4153 24.5886 65.2411 22.7586C65.2625 22.7486 65.2839 22.7414 65.3068 22.7372C67.0568 22.3729 69.7411 22.1714 72.5982 23.2786C75.0111 24.2114 76.5196 25.6843 77.3296 26.4743C78.6625 27.7757 79.7539 29.2872 80.5768 30.9672C91.4011 53.28 102.225 75.5929 113.047 97.9043C114.048 100.164 115.532 104.621 114.26 109.179C113.977 110.19 113.448 112.071 111.811 113.873C110.911 114.859 109.835 115.654 108.612 116.241C105.301 117.774 102.882 118.88 100.544 119.949C98.2039 121.017 95.7853 122.123 92.4753 123.656C92.4368 123.674 92.3953 123.683 92.3553 123.683L92.3539 123.681ZM51.8582 30.2843C52.0496 30.2843 52.2111 30.2886 52.3425 30.2914C55.5725 30.3686 57.8468 31.7972 58.7025 32.3343C61.0896 33.8314 62.4011 35.7043 63.1839 36.8229C63.8068 37.7157 64.3553 38.6729 64.8168 39.6714C75.5696 61.8114 86.2311 83.7672 96.9925 105.936C97.5539 107.043 97.9782 108.229 98.2496 109.454C98.5568 110.831 98.6639 112.329 98.5625 113.781C98.4868 114.827 98.3725 116.407 97.5653 118.231C96.8239 119.913 95.8196 121.101 95.0839 121.819C97.0382 120.919 98.6896 120.164 100.304 119.427C102.642 118.359 105.06 117.254 108.367 115.723C109.52 115.17 110.537 114.417 111.387 113.487C112.934 111.786 113.437 109.989 113.708 109.023C114.934 104.639 113.495 100.324 112.528 98.1443C101.711 75.8414 90.8868 53.5286 80.0625 31.2172C79.2696 29.5972 78.2153 28.1386 76.9296 26.8829C76.1482 26.12 74.6939 24.7 72.3911 23.81C69.6825 22.7614 67.1311 22.9457 65.4568 23.2886C61.6468 25.11 58.9496 26.4029 56.1425 27.7457C54.4639 28.5486 52.7468 29.3714 50.7296 30.3372C51.1668 30.2929 51.5511 30.2814 51.8596 30.2814L51.8582 30.2843Z" fill="black"/>
</g>
<g id="Group_4">
<path id="Vector_7" d="M97.9697 109.517C97.6454 108.054 97.1526 106.887 96.734 106.062C85.9726 83.893 75.3111 61.9373 64.5554 39.7916C64.2168 39.0573 63.7026 38.0702 62.9483 36.9873C62.1226 35.8073 60.8426 34.0145 58.5483 32.5759C57.604 31.983 55.4197 30.6502 52.3326 30.5773C51.5483 30.5573 49.9826 30.5359 48.1811 31.2402C47.7454 31.4502 47.3111 31.6559 46.8754 31.8659C44.9683 32.9602 43.9026 34.4345 43.4368 35.1716C32.3183 54.8445 21.1983 74.5202 10.0797 94.1973C9.56399 95.2145 8.83827 96.9687 8.69399 99.2487C8.51684 102.039 9.30399 104.114 9.74684 105.243C10.1768 106.34 11.3683 109.012 13.9097 111.237C17.024 113.964 20.594 114.657 22.2368 114.956C28.7468 116.142 52.6754 119.93 85.3426 124.56C86.2411 124.66 87.5783 124.716 89.144 124.422C89.7754 124.3 90.7597 124.103 91.8768 123.62C92.0126 123.559 92.1511 123.493 92.2868 123.432C92.3111 123.42 92.3311 123.412 92.3511 123.399C92.9497 123.104 93.5711 122.723 94.194 122.229C94.5483 121.949 96.2197 120.574 97.3011 118.122C98.0768 116.367 98.194 114.866 98.274 113.766C98.4126 111.79 98.1297 110.249 97.9668 109.52L97.9697 109.517ZM59.674 63.7816C59.6497 71.1745 59.6268 78.563 59.6026 85.9545C55.5511 85.3859 51.4997 84.8159 47.4483 84.2473C47.4626 76.8116 47.4754 69.3716 47.4897 61.9359C51.5497 62.5516 55.6126 63.1659 59.674 63.7816ZM47.3668 105.56C47.434 101.347 47.5054 97.133 47.574 92.9202C51.6054 93.543 55.6326 94.1616 59.6597 94.7802C59.6683 98.9845 59.6797 103.19 59.6897 107.394C55.5826 106.784 51.4754 106.17 47.3668 105.56Z" fill="white"/>
<path id="Vector_8" d="M86.7882 124.924C86.2968 124.924 85.8053 124.897 85.3125 124.842C53.0696 120.273 28.9896 116.474 22.1868 115.236C20.7582 114.977 16.961 114.289 13.7225 111.452C11.2768 109.309 10.0153 106.707 9.48104 105.346C9.0739 104.304 8.22533 102.139 8.40961 99.2287C8.5239 97.4316 8.99961 95.6944 9.82533 94.0673C20.951 74.3801 32.0696 54.7044 43.1882 35.0301C43.8153 34.0358 44.9325 32.6501 46.7325 31.6173C46.7382 31.6144 46.7453 31.6101 46.751 31.6073L48.0568 30.9816C48.0568 30.9816 48.0696 30.9758 48.0768 30.973C49.981 30.2287 51.6339 30.2716 52.3396 30.2901C55.5696 30.3673 57.8439 31.7958 58.6996 32.333C61.0868 33.8301 62.3982 35.703 63.181 36.8216C63.8039 37.7144 64.3525 38.6716 64.8139 39.6701C75.5668 61.8101 86.2282 83.7658 96.9896 105.934C97.551 107.042 97.9753 108.227 98.2467 109.453C98.5539 110.83 98.661 112.327 98.5596 113.78C98.4839 114.826 98.3696 116.406 97.5625 118.23C96.5296 120.572 94.9867 121.959 94.371 122.446C93.7839 122.914 93.1482 123.317 92.4839 123.646C92.4668 123.656 92.4496 123.663 92.4325 123.672L91.9953 123.873C90.8082 124.387 89.7596 124.587 89.1968 124.696C88.4039 124.846 87.5968 124.92 86.7868 124.92L86.7882 124.924ZM47.0096 32.1187C45.3168 33.0916 44.2653 34.3987 43.6796 35.323C32.5682 54.9844 21.4482 74.6601 10.3296 94.3358C9.54533 95.883 9.08961 97.5444 8.97961 99.2644C8.80247 102.047 9.61961 104.134 10.0125 105.137C10.5268 106.449 11.7425 108.959 14.0982 111.022C17.2182 113.754 20.771 114.399 22.2882 114.673C29.0868 115.91 53.1568 119.707 85.3839 124.274C86.6253 124.413 87.8753 124.367 89.0925 124.137C89.6325 124.034 90.6396 123.84 91.7653 123.354L92.1882 123.159C92.1968 123.154 92.2053 123.152 92.2125 123.146C92.2168 123.143 92.2225 123.14 92.2268 123.139C92.8568 122.829 93.4596 122.446 94.0182 122.002C94.4725 121.642 96.0339 120.29 97.0425 118.002C97.8096 116.267 97.9196 114.747 97.9925 113.742C98.091 112.343 97.9867 110.903 97.6925 109.579C97.431 108.4 97.0239 107.26 96.481 106.19C85.7168 84.0173 75.0553 62.0616 64.301 39.9158C63.8525 38.943 63.3196 38.0144 62.7168 37.1501C61.9582 36.0673 60.6896 34.2544 58.3996 32.8173C57.5796 32.303 55.4025 30.9344 52.3296 30.8616C51.6596 30.8444 50.0925 30.803 48.2982 31.5016L47.011 32.1173L47.0096 32.1187ZM59.6882 107.68C59.6739 107.68 59.6596 107.68 59.6468 107.677C57.601 107.373 55.5539 107.069 53.5082 106.763C51.4468 106.456 49.3868 106.149 47.3253 105.843C47.1839 105.822 47.0796 105.699 47.081 105.556C47.1153 103.449 47.1496 101.34 47.1839 99.233C47.2182 97.1273 47.2525 95.0216 47.2868 92.9158C47.2868 92.833 47.3253 92.7558 47.3882 92.7016C47.451 92.6487 47.5339 92.6244 47.6153 92.6373C51.6453 93.2587 55.6739 93.8787 59.701 94.4973C59.8396 94.5187 59.9425 94.6387 59.9439 94.7787C59.9482 96.8816 59.9539 98.983 59.9582 101.086C59.9639 103.189 59.9682 105.29 59.9725 107.393C59.9725 107.476 59.9368 107.556 59.8739 107.61C59.821 107.656 59.7553 107.68 59.6868 107.68H59.6882ZM47.6553 105.314C49.6339 105.609 51.6125 105.903 53.591 106.197C55.5282 106.486 57.4653 106.774 59.401 107.062C59.3968 105.07 59.3925 103.079 59.3868 101.087C59.3825 99.0658 59.3768 97.0459 59.3725 95.0244C55.5325 94.4344 51.6939 93.8444 47.851 93.2516C47.8182 95.2487 47.7853 97.2444 47.7525 99.2416C47.7196 101.266 47.6853 103.29 47.6539 105.314H47.6553ZM59.6025 86.2401C59.5896 86.2401 59.5753 86.2401 59.5625 86.2373L47.4082 84.5301C47.2668 84.5101 47.1625 84.3887 47.1625 84.2473C47.1696 80.5287 47.1768 76.8101 47.1825 73.0916C47.1896 69.373 47.1953 65.653 47.2025 61.9358C47.2025 61.853 47.2396 61.7744 47.3025 61.7201C47.3653 61.6659 47.4482 61.6416 47.531 61.6544C49.5168 61.9558 51.5025 62.2558 53.4896 62.5573C55.5653 62.8716 57.641 63.1859 59.7153 63.5001C59.8553 63.5216 59.9582 63.6416 59.9582 63.783L59.8868 85.9559C59.8868 86.0387 59.851 86.1173 59.7882 86.1701C59.7353 86.2159 59.6696 86.2401 59.601 86.2401H59.6025ZM47.7353 84.0001L59.3182 85.6273L59.3868 64.0273C57.3939 63.7244 55.3996 63.423 53.4053 63.1216C51.5282 62.8373 49.651 62.553 47.7753 62.2687C47.7682 65.8759 47.7625 69.4844 47.7553 73.093C47.7482 76.7287 47.7425 80.3644 47.7353 84.0001Z" fill="black"/>
</g>
<g id="Group_5">
<path id="Vector_9" d="M47.4894 61.9358C51.5494 62.5515 55.6123 63.1658 59.6737 63.7815C59.6494 71.1744 59.6266 78.5629 59.6023 85.9544C55.5509 85.3858 51.4994 84.8158 47.448 84.2472C47.4623 76.8115 47.4751 69.3715 47.4894 61.9358Z" fill="white"/>
<path id="Vector_10" d="M59.6024 86.24C59.5895 86.24 59.5752 86.24 59.5624 86.2371L47.4081 84.53C47.2666 84.51 47.1624 84.3885 47.1624 84.2471C47.1695 80.5285 47.1766 76.81 47.1824 73.0914C47.1895 69.3728 47.1952 65.6528 47.2024 61.9357C47.2024 61.8528 47.2395 61.7743 47.3024 61.72C47.3652 61.6657 47.4481 61.6414 47.5309 61.6543C49.5166 61.9557 51.5024 62.2557 53.4895 62.5571C55.5652 62.8714 57.6409 63.1857 59.7152 63.5C59.8552 63.5214 59.9581 63.6414 59.9581 63.7828L59.8866 85.9557C59.8866 86.0385 59.8509 86.1171 59.7881 86.17C59.7352 86.2157 59.6695 86.24 59.6009 86.24H59.6024ZM47.7352 84L59.3181 85.6271L59.3866 64.0271C57.3938 63.7243 55.3995 63.4228 53.4052 63.1214C51.5281 62.8371 49.6509 62.5528 47.7752 62.2685C47.7681 65.8757 47.7624 69.4843 47.7552 73.0928C47.7481 76.7285 47.7424 80.3643 47.7352 84Z" fill="black"/>
</g>
<g id="Group_6">
<path id="Vector_11" d="M59.6596 94.7799C59.6681 98.9842 59.6796 103.19 59.6896 107.394C55.5824 106.784 51.4753 106.17 47.3667 105.56C47.4338 101.347 47.5053 97.1328 47.5738 92.9199C51.6053 93.5428 55.6324 94.1614 59.6596 94.7799Z" fill="white"/>
<path id="Vector_12" d="M59.6882 107.68C59.6739 107.68 59.6596 107.68 59.6468 107.677C57.6011 107.373 55.5539 107.069 53.5082 106.763C51.4468 106.456 49.3868 106.149 47.3254 105.843C47.1839 105.821 47.0796 105.699 47.0811 105.556C47.1154 103.449 47.1496 101.34 47.1839 99.2329C47.2182 97.1272 47.2525 95.0215 47.2868 92.9157C47.2868 92.8329 47.3254 92.7557 47.3882 92.7015C47.4511 92.6486 47.5339 92.6243 47.6154 92.6372C51.6454 93.2586 55.6739 93.8786 59.7011 94.4972C59.8396 94.5186 59.9425 94.6386 59.9439 94.7786C59.9482 96.8815 59.9539 98.9829 59.9582 101.086C59.9639 103.189 59.9682 105.29 59.9725 107.393C59.9725 107.476 59.9368 107.556 59.8739 107.61C59.8211 107.656 59.7554 107.68 59.6868 107.68H59.6882ZM47.6554 105.314C49.6339 105.609 51.6125 105.903 53.5911 106.197C55.5282 106.486 57.4654 106.774 59.4011 107.061C59.3968 105.07 59.3925 103.079 59.3868 101.087C59.3825 99.0657 59.3768 97.0457 59.3725 95.0243C55.5325 94.4343 51.6939 93.8443 47.8511 93.2515C47.8182 95.2486 47.7854 97.2443 47.7525 99.2415C47.7196 101.266 47.6854 103.29 47.6539 105.314H47.6554Z" fill="black"/>
</g>
</g>
<g id="Layer 121 copy">
<g id="Group_7">
<path id="Vector_13" d="M43.0881 105.121V114.434C43.0881 116.087 38.811 117.867 33.411 118.901H33.4081C30.5853 119.443 27.461 119.781 24.4738 119.791C21.4767 119.801 18.3524 119.483 15.5353 118.957H15.5324C10.0924 117.947 5.79956 116.171 5.79956 114.518V105.204C5.79956 107.124 11.5924 109.21 18.2453 110.07C20.2867 110.336 22.411 110.484 24.4738 110.476C26.5224 110.468 28.6381 110.307 30.6767 110.031C37.2924 109.14 43.0867 107.044 43.0867 105.12L43.0881 105.121Z" fill="#FF7E88"/>
<path id="Vector_14" d="M24.3425 120.079C21.4968 120.079 18.4425 119.79 15.4968 119.243C15.4911 119.243 15.4853 119.241 15.4811 119.24C10.8839 118.387 5.51392 116.639 5.51392 114.521V105.207C5.51392 105.05 5.64249 104.921 5.79963 104.921C5.95677 104.921 6.08534 105.05 6.08534 105.207C6.08534 105.571 6.43106 106.551 9.62963 107.77C11.9353 108.649 15.0082 109.366 18.2825 109.789C20.4011 110.064 22.4839 110.196 24.4725 110.191C26.4553 110.184 28.5296 110.036 30.6382 109.749C33.9025 109.309 36.9653 108.58 39.2596 107.697C42.4553 106.467 42.8011 105.486 42.8011 105.121C42.8011 104.964 42.9296 104.836 43.0868 104.836C43.2439 104.836 43.3725 104.964 43.3725 105.121V114.434C43.3725 116.537 38.0353 118.307 33.4639 119.183C33.4582 119.183 33.4525 119.186 33.4453 119.186C30.4468 119.76 27.3439 120.069 24.4739 120.077C24.4296 120.077 24.3853 120.077 24.3411 120.077L24.3425 120.079ZM15.5711 118.676C15.5711 118.676 15.5825 118.677 15.5882 118.679C18.5496 119.23 21.6268 119.519 24.4739 119.507C27.3139 119.499 30.3853 119.193 33.3553 118.623C33.3611 118.623 33.3668 118.62 33.3739 118.62C39.5653 117.431 42.8039 115.616 42.8039 114.436V106.319C42.0511 107.109 40.6811 107.764 39.4682 108.231C37.1325 109.13 34.0253 109.871 30.7182 110.317C28.5839 110.606 26.4853 110.757 24.4782 110.764C22.4611 110.767 20.3553 110.634 18.2125 110.356C14.8953 109.927 11.7753 109.199 9.42963 108.304C8.21535 107.841 6.84249 107.19 6.08963 106.401V114.521C6.08963 115.907 10.0782 117.654 15.5753 118.676H15.5711Z" fill="black"/>
</g>
<g id="Group_8">
<path id="Vector_15" d="M43.0882 114.434V122.94C43.0882 124.77 37.8496 126.754 31.6496 127.711H31.6482C29.3182 128.071 26.851 128.289 24.4753 128.297C22.0853 128.304 19.6153 128.104 17.2825 127.756H17.281C11.0439 126.827 5.80103 124.85 5.80103 123.024V114.52C5.80103 116.171 10.0939 117.949 15.5339 118.959H15.5367C18.3539 119.483 21.4782 119.801 24.4753 119.793C27.461 119.783 30.5867 119.444 33.4096 118.903H33.4125C38.8125 117.869 43.0896 116.089 43.0896 114.436L43.0882 114.434Z" fill="#FF7E88"/>
<path id="Vector_16" d="M24.3425 128.584C22.0882 128.584 19.6382 128.397 17.2468 128.04C17.2425 128.04 17.2396 128.04 17.2368 128.04C11.5911 127.199 5.51392 125.272 5.51392 123.026V114.522C5.51392 114.364 5.64249 114.236 5.79963 114.236C5.95677 114.236 6.08534 114.364 6.08534 114.522C6.08534 115.907 10.0739 117.654 15.5711 118.676C15.5768 118.676 15.5825 118.677 15.5868 118.679C18.5482 119.23 21.6253 119.519 24.4725 119.507C27.3125 119.499 30.3839 119.193 33.3539 118.623C33.3596 118.623 33.3653 118.622 33.3725 118.62C39.5639 117.432 42.8025 115.616 42.8025 114.436C42.8025 114.279 42.9311 114.15 43.0882 114.15C43.2453 114.15 43.3739 114.279 43.3739 114.436V122.942C43.3739 123.957 42.1725 124.959 39.8011 125.919C37.6811 126.777 34.8011 127.514 31.6925 127.996C31.6882 127.996 31.6853 127.996 31.6811 127.997C29.2425 128.374 26.7511 128.577 24.4753 128.584C24.4311 128.584 24.3868 128.584 24.3439 128.584H24.3425ZM17.3125 127.473C17.3125 127.473 17.3196 127.473 17.3225 127.473C19.7339 127.833 22.2068 128.023 24.4725 128.012C26.7239 128.004 29.1882 127.803 31.6025 127.43C31.6068 127.43 31.6096 127.43 31.6139 127.429C37.8882 126.457 42.8011 124.487 42.8011 122.94V115.63C41.3053 117.197 37.1368 118.479 33.4639 119.183C33.4582 119.183 33.4525 119.186 33.4453 119.186C30.4468 119.76 27.3439 120.069 24.4739 120.077C21.5911 120.09 18.4868 119.797 15.4953 119.242C15.4896 119.242 15.4839 119.24 15.4796 119.239C11.7825 118.553 7.58534 117.287 6.08392 115.717V123.024C6.08392 123.752 7.2582 124.64 9.30534 125.462C11.3953 126.3 14.2382 127.014 17.3111 127.472L17.3125 127.473Z" fill="black"/>
</g>
<g id="Group_9">
<path id="Vector_17" d="M43.088 122.941V131.98C43.1423 134.501 33.1952 137.327 24.4738 137.356C15.6752 137.387 5.75518 134.581 5.79946 132.067V123.026C5.79946 124.851 11.0409 126.829 17.2795 127.757H17.2809C19.6152 128.106 22.0838 128.307 24.4738 128.299C26.8495 128.291 29.3166 128.074 31.6466 127.713H31.648C37.848 126.754 43.0866 124.77 43.0866 122.941H43.088Z" fill="#FF7E88"/>
<path id="Vector_18" d="M24.3296 137.641C16.8839 137.641 8.40242 135.633 6.121 133.319C5.711 132.903 5.50671 132.48 5.51385 132.061V123.026C5.51385 122.869 5.64242 122.74 5.79957 122.74C5.95671 122.74 6.08528 122.869 6.08528 123.026C6.08528 123.753 7.25957 124.641 9.30671 125.463C11.3967 126.301 14.2396 127.016 17.3124 127.473C17.3167 127.473 17.3196 127.473 17.3224 127.473C19.7339 127.833 22.2067 128.023 24.4724 128.011C26.7239 128.004 29.1881 127.803 31.6024 127.43C31.6067 127.43 31.6096 127.43 31.6139 127.429C37.8881 126.457 42.801 124.487 42.801 122.94C42.801 122.783 42.9296 122.654 43.0867 122.654C43.2439 122.654 43.3724 122.783 43.3724 122.94V131.979C43.381 132.39 43.181 132.811 42.7753 133.227C40.5067 135.553 31.9553 137.616 24.4739 137.64C24.4253 137.64 24.3767 137.64 24.3281 137.64L24.3296 137.641ZM6.08528 124.223V132.067C6.081 132.331 6.22957 132.616 6.52671 132.919C8.681 135.103 17.1396 137.071 24.3339 137.071C24.3796 137.071 24.4267 137.071 24.4724 137.071C31.6967 137.047 40.2267 135.026 42.3667 132.83C42.661 132.529 42.8067 132.246 42.801 131.987V124.149C42.2281 124.75 41.2253 125.343 39.7996 125.92C37.6796 126.779 34.7996 127.516 31.691 127.997C31.6867 127.997 31.6839 127.997 31.6796 127.999C29.241 128.376 26.7496 128.579 24.4739 128.586C22.1839 128.59 19.6839 128.406 17.2467 128.043C17.2424 128.043 17.2396 128.043 17.2367 128.043C12.6239 127.356 7.72385 125.944 6.08528 124.226V124.223Z" fill="black"/>
</g>
<g id="Group_10">
<path id="Vector_19" d="M43.0882 105.101V105.121C43.0882 107.044 37.2939 109.141 30.6782 110.033C28.6396 110.309 26.5225 110.47 24.4753 110.477C22.4139 110.484 20.2882 110.337 18.2467 110.071C11.5939 109.211 5.80103 107.126 5.80103 105.206V105.189C5.84674 102.683 15.7896 100.534 23.6082 100.384C32.4296 100.217 43.0353 102.51 43.0896 105.101H43.0882Z" fill="#FF444F"/>
<path id="Vector_20" d="M24.3153 110.764C22.3482 110.764 20.2953 110.627 18.2082 110.356C14.8911 109.927 11.7711 109.199 9.42535 108.304C7.64106 107.624 5.51392 106.534 5.51392 105.207V105.19C5.54392 103.521 8.90534 102.333 11.7182 101.627C15.2353 100.746 19.6768 100.174 23.5996 100.1C31.5168 99.9501 43.3068 101.983 43.3725 105.097C43.3725 105.099 43.3725 105.101 43.3725 105.103V105.123C43.3725 106.45 41.2482 107.546 39.4653 108.231C37.1296 109.13 34.0225 109.871 30.7153 110.317C28.5811 110.606 26.4825 110.757 24.4753 110.764C24.4225 110.764 24.3696 110.764 24.3153 110.764ZM24.5168 100.661C24.2125 100.661 23.9096 100.664 23.6111 100.67C15.1311 100.833 6.12106 103.159 6.08534 105.194V105.206C6.08534 105.57 6.43106 106.55 9.62963 107.769C11.9353 108.647 15.0082 109.364 18.2825 109.787C20.4011 110.063 22.4839 110.194 24.4725 110.19C26.4553 110.183 28.5296 110.034 30.6382 109.747C33.9025 109.307 36.9653 108.579 39.2596 107.696C42.4553 106.466 42.8011 105.484 42.8011 105.12V105.103C42.7753 104.069 40.3882 102.874 36.5682 101.984C32.9596 101.143 28.5211 100.659 24.5153 100.659L24.5168 100.661Z" fill="black"/>
</g>
</g>
</g>
</g>
</g>
</svg>
