<svg width="120" height="152" viewBox="0 0 120 152" fill="none" xmlns="http://www.w3.org/2000/svg">
<g id="illustration / deriv / light / email-open" clip-path="url(#clip0_4479_132)">
<g id="email-open">
<g id="Group">
<path id="Vector" d="M114.71 76.9219L100.243 72.4474H100.239L98.5939 73.1144L98.9143 72.0402L102.254 60.8244L104.211 54.2491C105.658 49.3906 102.917 44.2736 98.0852 42.8095L95.2948 41.9648L63.3804 32.2983L84.6749 16.4217C89.6048 12.7457 96.6713 15.1266 98.3999 21.0463L114.71 76.9233V76.9219Z" fill="#EBECEE"/>
<path id="Vector_2" d="M114.71 77.2107C114.682 77.2107 114.654 77.2063 114.626 77.1977L100.255 72.7535L98.7007 73.383C98.5987 73.4249 98.4808 73.4032 98.4004 73.3281C98.3185 73.2531 98.2869 73.1376 98.3185 73.0322L103.935 54.1668C105.333 49.4714 102.672 44.5017 98.0024 43.0867L63.2975 32.5755C63.1941 32.5437 63.1165 32.4557 63.0978 32.3488C63.0791 32.242 63.1222 32.1322 63.2099 32.0673L84.5044 16.1892C86.9312 14.3801 89.9659 13.8964 92.8296 14.8609C95.6947 15.8268 97.8256 18.0504 98.6748 20.9641L114.985 76.841C115.015 76.9435 114.985 77.0533 114.912 77.1284C114.857 77.1818 114.784 77.2121 114.71 77.2121V77.2107ZM100.247 72.1601C100.275 72.1601 100.303 72.1644 100.33 72.1716L114.286 76.4887L98.1259 21.1272C97.3299 18.3969 95.3326 16.3134 92.6486 15.4096C89.9645 14.5057 87.1209 14.9591 84.8478 16.6542L64.0131 32.19L98.1705 42.5352C103.143 44.0411 105.977 49.3343 104.488 54.3343L99.0427 72.625L100.133 72.1832C100.133 72.1832 100.143 72.1788 100.149 72.1774C100.181 72.1673 100.214 72.1615 100.247 72.1615V72.1601Z" fill="black"/>
</g>
<g id="Group_2">
<path id="Vector_3" d="M102.255 60.8245L98.9153 72.0403L36.1152 52.6292L51.6162 41.0712L63.3814 32.2983L95.2958 41.9649L98.0862 42.8096C102.918 44.2736 105.659 49.3906 104.212 54.2492L102.255 60.8245Z" fill="#EBECEE"/>
<path id="Vector_4" d="M98.9153 72.3289C98.8866 72.3289 98.8578 72.3246 98.8305 72.3159L36.0305 52.9048C35.927 52.8731 35.8494 52.785 35.8322 52.6781C35.815 52.5713 35.8566 52.4616 35.9443 52.398L63.2104 32.0672C63.2837 32.0123 63.3771 31.9965 63.4647 32.0224L98.1696 42.5337C103.143 44.0396 105.976 49.3327 104.487 54.3328L102.53 60.9081L99.1912 72.1239C99.1696 72.1975 99.1193 72.2596 99.0518 72.2957C99.0101 72.3188 98.9627 72.3304 98.9167 72.3304L98.9153 72.3289ZM36.7432 52.5222L98.7242 71.6806L103.937 54.1682C105.335 49.4728 102.674 44.5031 98.0043 43.0881L63.4374 32.6187L36.7432 52.5237V52.5222Z" fill="black"/>
</g>
<g id="Group_3">
<path id="Vector_5" d="M114.71 76.9218L100.242 72.4502L100.24 72.4487L100.244 72.4473L114.71 76.9218Z" fill="#EBECEE"/>
<path id="Vector_6" d="M114.712 77.2122C114.683 77.2122 114.656 77.2078 114.627 77.1992L100.16 72.7276C100.145 72.7232 100.13 72.7175 100.116 72.7102C100.012 72.6583 99.9477 72.5471 99.9563 72.4316C99.965 72.3146 100.04 72.215 100.149 72.1775C100.206 72.1587 100.272 72.1558 100.33 72.1731L114.796 76.6476C114.949 76.6938 115.033 76.8555 114.986 77.0086C114.949 77.1327 114.834 77.2122 114.712 77.2122Z" fill="black"/>
</g>
<g id="Group_4">
<g id="Group_5">
<path id="Vector_7" d="M47.4461 86.1854L45.6155 87.2106L21.9128 100.48L12.4582 105.773L6.39604 109.166C5.26521 106.997 4.94335 104.401 5.69771 101.871L21.466 48.9702L26.906 56.7641L27.9348 58.2368L32.5385 64.8309L47.4461 86.1854Z" fill="white"/>
<path id="Vector_8" d="M6.39583 109.454C6.36853 109.454 6.34123 109.45 6.31393 109.443C6.23922 109.421 6.17743 109.369 6.14151 109.3C4.92735 106.972 4.67159 104.304 5.42307 101.789L21.1913 48.8879C21.2229 48.7825 21.312 48.703 21.4212 48.6857C21.5304 48.6684 21.6396 48.7146 21.7029 48.8056L47.683 86.0208C47.7304 86.0872 47.7462 86.1709 47.7275 86.2518C47.7088 86.3312 47.6586 86.3991 47.5867 86.4395L6.53665 109.418C6.49354 109.443 6.44469 109.454 6.39727 109.454H6.39583ZM21.5721 49.6242L5.97339 101.955C5.29519 104.231 5.48917 106.638 6.51797 108.769L47.0278 86.0901L21.5721 49.6242Z" fill="black"/>
</g>
<g id="Group_6">
<path id="Vector_9" d="M79.3154 131.7C77.13 132.881 74.4947 133.219 71.9342 132.435C71.9242 132.432 71.9141 132.429 71.904 132.426L26.5721 118.404L19.2139 116.128C19.2139 116.128 19.2009 116.124 19.1937 116.122L12.1056 113.928C9.54801 113.137 7.55075 111.375 6.39551 109.166L12.4577 105.773L21.9123 100.48L45.615 87.2107L47.4456 86.1856C48.5807 85.5503 49.8078 85.25 51.0191 85.25C51.5076 85.25 51.9918 85.2976 52.4674 85.3958C53.9747 85.6976 55.38 86.4715 56.449 87.6439C56.883 88.1189 57.2609 88.6604 57.5684 89.261L57.7609 89.635L59.0943 92.2382L62.5816 99.0445L79.314 131.7H79.3154Z" fill="white"/>
<path id="Vector_10" d="M74.7605 133.151C73.7877 133.151 72.8092 133.005 71.8508 132.712L71.8249 132.705L26.4887 118.681L19.1333 116.407C19.1333 116.407 19.1261 116.404 19.1218 116.404C19.1175 116.404 19.1146 116.402 19.1103 116.401L12.0222 114.206C9.47178 113.416 7.38256 111.675 6.14254 109.303C6.07069 109.164 6.12098 108.992 6.25749 108.916L47.3076 85.9356C48.4441 85.3003 49.7272 84.9639 51.0204 84.9639C51.532 84.9639 52.0392 85.0144 52.5263 85.1155C54.1083 85.4317 55.5768 86.2619 56.6616 87.4516C57.1185 87.9526 57.5108 88.5172 57.824 89.1323L59.35 92.1095L62.8258 98.8927C62.8301 98.8999 62.8359 98.9086 62.8387 98.9158L79.5711 131.571C79.643 131.711 79.5898 131.883 79.4519 131.958C77.9848 132.751 76.3798 133.154 74.7605 133.154V133.151ZM19.2871 115.849C19.2871 115.849 19.2943 115.851 19.2986 115.852L26.6568 118.128L71.9887 132.15L72.0132 132.158C74.3323 132.868 76.775 132.66 78.9288 131.577L62.3401 99.2017C62.3358 99.1944 62.3301 99.1858 62.3272 99.1786L57.3139 89.395C57.0223 88.8262 56.6616 88.3035 56.2377 87.84C55.2348 86.7398 53.8755 85.9731 52.4113 85.68C51.9602 85.5862 51.4917 85.54 51.019 85.54C49.8235 85.54 48.6367 85.8504 47.5849 86.4395L6.78482 109.28C7.96737 111.389 9.87697 112.937 12.1903 113.652L19.277 115.846C19.277 115.846 19.2842 115.848 19.2871 115.849Z" fill="black"/>
</g>
<g id="Group_7">
<path id="Vector_11" d="M100.24 72.4487L98.5946 73.1143L61.3393 88.1881L60.4412 88.552L57.7615 89.6348L59.0949 92.2381L62.5836 99.0444L79.316 131.7C80.9598 130.812 82.3478 129.449 83.2631 127.729C83.5534 127.182 83.7948 126.6 83.9816 125.987L85.6857 120.374L96.6677 84.2219L98.4868 78.2313L100.243 72.4502V72.4473L100.24 72.4487Z" fill="white"/>
<path id="Vector_12" d="M79.3161 131.989C79.2874 131.989 79.2587 131.984 79.2314 131.976C79.1581 131.952 79.0963 131.9 79.0604 131.833L62.328 99.177L57.5058 89.7675C57.4685 89.6953 57.4641 89.6101 57.4914 89.535C57.5202 89.4585 57.5791 89.3978 57.6538 89.3675L61.2316 87.9208L100.132 72.1814C100.132 72.1814 100.142 72.177 100.148 72.1756H100.152C100.261 72.1366 100.382 72.1684 100.46 72.2565C100.53 72.3373 100.552 72.4485 100.514 72.5481L85.966 120.445C85.966 120.445 85.9631 120.455 85.9617 120.459L84.2576 126.072C84.0693 126.69 83.8236 127.287 83.5262 127.849C83.5233 127.855 83.5204 127.861 83.5176 127.866C82.5922 129.605 81.187 131.018 79.4526 131.955C79.411 131.978 79.3636 131.99 79.3161 131.99V131.989ZM58.1625 89.7848L79.4368 131.303C80.9484 130.425 82.177 129.154 83.0032 127.609C83.006 127.604 83.0089 127.598 83.0118 127.592C83.2948 127.058 83.5305 126.49 83.7087 125.903L85.4085 120.303C85.4085 120.303 85.4114 120.293 85.4128 120.289L96.3948 84.1379L99.7959 72.9408L58.1639 89.7848H58.1625Z" fill="black"/>
</g>
</g>
<g id="Group_8">
<path id="Vector_13" d="M104.211 54.2488L102.254 60.8241L98.915 72.0399L98.5946 73.1142L61.3393 88.188L60.4412 88.5518L57.7615 89.6347L57.5689 89.2607C57.2614 88.6601 56.8835 88.1186 56.4496 87.6436C55.3806 86.4712 53.9753 85.6973 52.468 85.3955C51.9924 85.2974 51.5082 85.2497 51.0196 85.2497C49.8084 85.2497 48.5813 85.55 47.4461 86.1853L32.5386 64.8308L27.9348 58.2367L29.9723 51.6008L30.5686 49.6617L35.5589 33.4112C37.0417 28.5815 42.1268 25.8599 46.9432 27.3182L56.3591 30.1712L63.3811 32.298L95.2955 41.9646L98.0859 42.8092C102.918 44.2733 105.658 49.3903 104.211 54.2488Z" fill="#FF444F"/>
<path id="Vector_14" d="M57.7625 89.9237C57.6576 89.9237 57.5585 89.8659 57.5067 89.7677L57.3142 89.3938C57.0225 88.8249 56.6619 88.3022 56.238 87.8387C55.235 86.7385 53.8758 85.9718 52.4116 85.6787C51.9604 85.5849 51.492 85.5387 51.0193 85.5387C49.8238 85.5387 48.6369 85.8491 47.5851 86.4382C47.4558 86.5104 47.2949 86.4729 47.2101 86.3516L27.6988 58.403C27.6485 58.3293 27.6327 58.2369 27.66 58.1517L35.284 33.3262C36.8086 28.3622 42.0747 25.5424 47.0262 27.0426L63.464 32.0224L98.1688 42.5336C103.142 44.0396 105.975 49.3327 104.487 54.3328L98.87 73.1981C98.8456 73.2818 98.7838 73.3497 98.7019 73.3829L60.5486 88.8205L57.8688 89.9034C57.8343 89.9179 57.797 89.9237 57.7611 89.9237H57.7625ZM51.0193 84.9611C51.5308 84.9611 52.038 85.0117 52.5251 85.1127C54.1071 85.4289 55.5756 86.2592 56.6604 87.4489C57.1173 87.9499 57.5096 88.5145 57.8229 89.1295L57.8947 89.2696L61.2297 87.921L98.3571 72.8992L103.934 54.1667C105.332 49.4713 102.671 44.5016 98.0007 43.0866L46.8581 27.5956C42.2098 26.1878 37.2626 28.8358 35.8315 33.4966L28.2491 58.1864L47.5334 85.8101C48.6111 85.2542 49.8108 84.9611 51.0178 84.9611H51.0193Z" fill="black"/>
</g>
<path id="Vector_15" d="M73.5426 48.0013C73.5153 48.0013 73.4866 47.9969 73.4593 47.9883L48.0726 40.2983C47.9203 40.2521 47.8341 40.0919 47.88 39.9388C47.926 39.7858 48.087 39.6991 48.2378 39.7453L73.6245 47.4353C73.7768 47.4815 73.863 47.6417 73.8171 47.7948C73.7797 47.9204 73.6662 47.9998 73.5426 47.9998V48.0013Z" fill="#FF7E88"/>
<path id="Vector_16" d="M90.3983 63.6859C90.371 63.6859 90.3423 63.6816 90.315 63.6729L45.0994 49.978C44.9471 49.9318 44.8609 49.7716 44.9069 49.6185C44.9529 49.4655 45.1138 49.3788 45.2647 49.425L90.4803 63.1199C90.6326 63.1661 90.7188 63.3264 90.6728 63.4795C90.6354 63.6036 90.5219 63.6845 90.3983 63.6845V63.6859Z" fill="#FF7E88"/>
<path id="Vector_17" d="M81.4365 69.2952C81.4092 69.2952 81.3804 69.2909 81.3531 69.2822L42.7745 57.5972C42.6222 57.551 42.536 57.3907 42.5819 57.2376C42.6279 57.0846 42.7889 56.998 42.9397 57.0442L81.5184 68.7292C81.6707 68.7754 81.7569 68.9357 81.7109 69.0888C81.6736 69.2144 81.56 69.2938 81.4365 69.2938V69.2952Z" fill="#FF7E88"/>
<path id="Vector_18" d="M72.9318 75.1646C72.9045 75.1646 72.8757 75.1603 72.8484 75.1516L40.7515 65.4302C40.5992 65.384 40.513 65.2237 40.559 65.0706C40.605 64.9176 40.7659 64.831 40.9168 64.8772L73.0137 74.5986C73.166 74.6448 73.2522 74.8051 73.2062 74.9581C73.1689 75.0837 73.0553 75.1632 72.9318 75.1632V75.1646Z" fill="#FF7E88"/>
<g id="Group_9">
<path id="Vector_19" d="M114.71 76.9218L112.953 82.7073L98.4478 130.461C98.261 131.075 98.0196 131.657 97.7293 132.202C96.814 133.925 95.426 135.286 93.7822 136.174C91.5881 137.36 88.9414 137.696 86.3708 136.901L71.9346 132.435C74.4951 133.219 77.1303 132.881 79.3158 131.7C80.9596 130.812 82.3476 129.449 83.2629 127.729C83.5531 127.182 83.7945 126.6 83.9813 125.987L85.6855 120.374L96.6675 84.2219L98.4866 78.2313L100.242 72.4502V72.4473L114.71 76.9218Z" fill="#EBECEE"/>
<path id="Vector_20" d="M89.2273 137.626C88.2444 137.626 87.2544 137.477 86.2874 137.178L71.8511 132.712C71.7003 132.666 71.6141 132.504 71.6615 132.351C71.7075 132.198 71.8684 132.113 72.0207 132.159C74.4246 132.896 76.9679 132.643 79.1821 131.446C80.8101 130.567 82.132 129.24 83.0027 127.61C83.0056 127.604 83.0085 127.598 83.0113 127.592C83.2944 127.058 83.5301 126.491 83.7082 125.903L85.408 120.304C85.408 120.304 85.4109 120.294 85.4124 120.289L96.3944 84.1383L99.9693 72.3666C99.9736 72.3536 99.978 72.3392 99.9851 72.3262C100.047 72.1962 100.193 72.1298 100.33 72.1717L114.796 76.6462C114.947 76.6924 115.034 76.8541 114.988 77.0071L98.725 130.546C98.5368 131.164 98.2911 131.762 97.9936 132.324C97.9908 132.33 97.9879 132.335 97.985 132.341C97.0611 134.08 95.6558 135.493 93.9201 136.43C92.4516 137.223 90.8481 137.626 89.2287 137.626H89.2273ZM75.1919 133.141L86.4555 136.625C88.868 137.372 91.4228 137.122 93.6456 135.921C95.2751 135.04 96.597 133.714 97.4677 132.084C97.4706 132.078 97.4735 132.073 97.4764 132.067C97.7594 131.534 97.9951 130.965 98.1732 130.378L114.352 77.114L100.435 72.8099L85.9656 120.445C85.9656 120.445 85.9627 120.455 85.9612 120.46L84.2571 126.072C84.0689 126.69 83.8232 127.288 83.5257 127.849C83.5229 127.855 83.52 127.861 83.5171 127.867C82.5918 129.605 81.1865 131.019 79.4522 131.956C78.1145 132.678 76.6647 133.076 75.1919 133.141Z" fill="black"/>
</g>
<g id="Group_10">
<path id="Vector_21" d="M29.9726 51.6009L27.9351 58.2368L26.9063 56.7641L21.4663 48.9702L29.9726 51.6009Z" fill="#EBECEE"/>
<path id="Vector_22" d="M27.9346 58.5259C27.8412 58.5259 27.7536 58.4811 27.699 58.4032L21.2301 49.1365C21.1597 49.0355 21.1612 48.9012 21.233 48.8016C21.3049 48.7019 21.4327 48.6586 21.5506 48.6947L30.0569 51.3254C30.1301 51.3485 30.1905 51.399 30.2264 51.4669C30.2623 51.5348 30.2695 51.6142 30.2465 51.6864L28.209 58.3223C28.176 58.4277 28.0869 58.5057 27.9791 58.523C27.9648 58.5259 27.949 58.5259 27.9346 58.5259ZM22.1828 49.4946L27.834 57.5888L29.6143 51.7918L22.1842 49.4932L22.1828 49.4946Z" fill="black"/>
</g>
</g>
</g>
<defs>
<clipPath id="clip0_4479_132">
<rect width="120" height="152" fill="white"/>
</clipPath>
</defs>
</svg>
