<svg width="120" height="152" viewBox="0 0 120 152" fill="none" xmlns="http://www.w3.org/2000/svg">
<g id="illustration / deriv / light / intuitive-platforms">
<g id="Artboard 1 copy 5 1">
<g id="Layer 2 copy 4">
<g id="Group">
<g id="Group_2">
<path id="Vector" d="M117.678 59.4785L107.034 110.226C106.19 114.248 103.818 117.323 100.816 118.847L100.626 118.943L100.601 118.954L94.4627 122.024C95.517 121.486 96.4928 120.758 97.3499 119.866C98.9342 118.22 100.12 116.011 100.666 113.41L101.691 108.523L111.31 62.6628C112.783 55.6399 109.061 48.2871 103.038 46.3242L26.5899 21.3913C25.2642 20.9585 23.9328 20.8228 22.6485 20.9485H22.647C21.5285 21.0571 20.4442 21.3642 19.4285 21.8456L25.1242 19.0128L25.1328 19.0085L26.1456 18.5056L26.1585 18.4999C28.2528 17.6056 30.6156 17.4442 32.9585 18.2085L109.408 43.1413C115.43 45.1042 119.151 52.4571 117.68 59.4799L117.678 59.4785Z" fill="#EBECEE"/>
<path id="Vector_2" d="M94.4641 122.31C94.3599 122.31 94.2599 122.253 94.2084 122.153C94.137 122.013 94.1927 121.841 94.3341 121.77C95.3656 121.244 96.3113 120.537 97.1456 119.669C98.7499 118.001 99.8699 115.817 100.388 113.351L111.033 62.6043C112.48 55.7014 108.856 48.52 102.953 46.5957L26.5013 21.6629C25.2441 21.2529 23.957 21.1072 22.677 21.2329C22.6741 21.2329 22.6713 21.2329 22.667 21.2329C21.5956 21.3372 20.547 21.63 19.5513 22.1029C19.4099 22.17 19.2399 22.1114 19.1713 21.97C19.1027 21.8286 19.1613 21.6586 19.3013 21.5886L24.9884 18.76C24.9884 18.76 25.0013 18.7529 25.0056 18.7514L26.0184 18.2486C26.0184 18.2486 26.0413 18.2372 26.0456 18.2357C28.2899 17.2772 30.7099 17.1743 33.047 17.9357L109.497 42.8686C115.668 44.88 119.464 52.3572 117.958 59.5372L107.314 110.284C106.481 114.257 104.16 117.471 100.944 119.101L100.721 119.213L94.5913 122.28C94.5499 122.3 94.507 122.31 94.4641 122.31ZM23.5713 20.6186C24.6141 20.6186 25.6556 20.7857 26.6784 21.12L103.128 46.0529C109.3 48.0643 113.096 55.5414 111.59 62.7214L100.946 113.469C100.406 116.04 99.2341 118.32 97.5556 120.064C97.4956 120.126 97.4356 120.187 97.3756 120.247L100.686 118.591C103.744 117.04 105.957 113.969 106.754 110.167L117.398 59.42C118.846 52.5172 115.221 45.3357 109.318 43.4114L32.8684 18.48C30.6684 17.7629 28.3884 17.8586 26.277 18.7586C26.2741 18.76 26.2713 18.7614 26.2713 18.7614L25.267 19.26C25.267 19.26 25.2541 19.2672 25.2499 19.2686L22.397 20.6886C22.4713 20.68 22.5441 20.6714 22.6184 20.6643C22.6213 20.6643 22.6241 20.6643 22.627 20.6643C22.9413 20.6343 23.2556 20.6186 23.5699 20.6186H23.5713Z" fill="black"/>
</g>
<g id="Group_3">
<path id="Vector_3" d="M101.691 108.523L100.666 113.41C100.12 116.013 98.9343 118.22 97.35 119.866C96.4915 120.759 95.5158 121.486 94.4629 122.024C92.7272 122.91 90.7829 123.276 88.7972 123.01C88.2129 122.931 87.6258 122.799 87.04 122.607L84.4715 121.77L78.5229 119.83L74.1215 118.394L64.6615 115.31L52.8286 111.451L42.4972 108.081L10.5915 97.6757C4.57146 95.7128 0.850036 88.3599 2.32146 81.3371L3.34718 76.45L101.691 108.523Z" fill="#EBECEE"/>
<path id="Vector_4" d="M90.0614 123.379C89.6271 123.379 89.1928 123.35 88.7599 123.292C88.1571 123.212 87.5485 123.072 86.9514 122.877L42.4085 108.35L10.5028 97.9444C4.33279 95.9329 0.537079 88.4558 2.04279 81.2758L3.06851 76.3886C3.08565 76.3086 3.13422 76.2401 3.20565 76.2001C3.27565 76.1601 3.35994 76.1501 3.43708 76.1758L101.781 108.249C101.92 108.294 102.003 108.436 101.973 108.579L100.947 113.466C100.407 116.037 99.2357 118.317 97.5571 120.062C96.6785 120.976 95.6814 121.722 94.5928 122.276C93.1657 123.003 91.6199 123.377 90.0614 123.377V123.379ZM3.56137 76.8201L2.60136 81.3958C1.15422 88.2986 4.77851 95.4801 10.6799 97.4044L42.5857 107.81L87.1285 122.337C87.6914 122.52 88.2657 122.653 88.8357 122.729C90.7128 122.98 92.6142 122.649 94.3328 121.772C95.3642 121.246 96.3099 120.539 97.1442 119.67C98.7485 118.003 99.8685 115.819 100.387 113.353L101.36 108.717L3.56137 76.8201Z" fill="black"/>
</g>
<g id="Group_4">
<path id="Vector_5" d="M111.311 62.6627L101.693 108.523L3.34717 76.4485L12.9643 30.5885C13.7986 26.6099 16.1286 23.5585 19.0857 22.017L19.0986 22.0113L19.4286 21.847C20.4443 21.3642 21.5286 21.057 22.6472 20.9499H22.6486C23.9329 20.8242 25.2643 20.9599 26.59 21.3927L103.04 46.3256C109.061 48.2885 112.783 55.6413 111.311 62.6642V62.6627Z" fill="white"/>
<path id="Vector_6" d="M101.691 108.809C101.661 108.809 101.631 108.804 101.603 108.794L3.25859 76.72C3.12001 76.6743 3.03716 76.5328 3.06716 76.39L12.6857 30.53C13.5086 26.6085 15.7929 23.4128 18.9557 21.7628L19.3029 21.59C20.3672 21.0843 21.4814 20.7743 22.6214 20.6643C22.6243 20.6643 22.6272 20.6643 22.63 20.6643C23.9872 20.5328 25.35 20.6857 26.68 21.12L103.13 46.0528C109.301 48.0643 113.097 55.5414 111.591 62.7214L101.973 108.581C101.956 108.661 101.907 108.73 101.836 108.77C101.791 108.796 101.743 108.809 101.693 108.809H101.691ZM3.67859 76.2571L101.477 108.153L111.031 62.6043C112.479 55.7014 108.854 48.52 102.951 46.5957L26.5014 21.6628C25.2443 21.2528 23.9572 21.1071 22.6772 21.2328C22.6743 21.2328 22.6714 21.2328 22.6672 21.2328C21.5957 21.3371 20.5472 21.63 19.5514 22.1028L19.2143 22.2714C16.2086 23.8385 14.0314 26.8928 13.2443 30.6457L3.67859 76.2571Z" fill="black"/>
</g>
<g id="Group_5">
<path id="Vector_7" d="M84.4714 121.769L70.8014 134.14C68.9742 135.793 66.4014 136.342 64.0585 135.577L30.7371 124.71C30.5842 124.66 30.4414 124.6 30.3042 124.532C29.2642 124.004 28.6899 122.952 28.6899 121.879C28.6899 121.09 29.0014 120.293 29.6671 119.69L42.4971 108.08L52.8285 111.45L64.6614 115.309L74.1214 118.393L78.5228 119.829L84.4714 121.769Z" fill="white"/>
<path id="Vector_8" d="M66.1814 136.201C65.44 136.201 64.6929 136.087 63.97 135.85L30.6486 124.983C30.49 124.931 30.3357 124.869 30.1757 124.789C29.0829 124.234 28.4043 123.12 28.4043 121.88C28.4043 120.959 28.7843 120.106 29.4757 119.48L42.3057 107.869C42.3814 107.8 42.4886 107.777 42.5857 107.809L84.56 121.499C84.6571 121.53 84.73 121.611 84.7514 121.71C84.7729 121.809 84.74 121.913 84.6643 121.981L70.9943 134.353C69.66 135.559 67.9343 136.201 66.1829 136.201H66.1814ZM42.5657 108.403L29.8586 119.903C29.2886 120.42 28.9757 121.121 28.9757 121.88C28.9757 122.904 29.5343 123.823 30.4329 124.279C30.5643 124.344 30.6929 124.397 30.8243 124.44L64.1457 135.307C66.3843 136.037 68.8614 135.51 70.6086 133.93L83.9129 121.889L42.5643 108.403H42.5657Z" fill="black"/>
</g>
<g id="Group_6">
<path id="Vector_9" d="M88.9956 123.093L70.8014 139.559C68.9742 141.212 66.4014 141.76 64.0585 140.996L30.7371 130.129C29.4257 129.7 28.6899 128.51 28.6899 127.299V121.879C28.6899 122.952 29.2642 124.006 30.3042 124.532C30.4414 124.6 30.5842 124.66 30.7371 124.71L64.0585 135.577C66.4014 136.342 68.9742 135.792 70.8014 134.14L84.4714 121.769L87.0399 122.606C87.6257 122.797 88.2128 122.93 88.7971 123.009L88.9942 123.093H88.9956Z" fill="#EBECEE"/>
<path id="Vector_10" d="M66.1814 141.619C65.44 141.619 64.6929 141.504 63.97 141.267L30.6486 130.4C29.3057 129.962 28.4043 128.716 28.4043 127.299V121.879C28.4043 121.722 28.5329 121.593 28.69 121.593C28.8472 121.593 28.9757 121.722 28.9757 121.879C28.9757 122.903 29.5343 123.822 30.4329 124.277C30.5643 124.343 30.6929 124.396 30.8243 124.439L64.1457 135.306C66.3843 136.036 68.8614 135.509 70.6086 133.929L84.2786 121.557C84.3543 121.489 84.4614 121.466 84.5586 121.497L87.1272 122.334C87.69 122.517 88.2643 122.65 88.8343 122.726C88.86 122.729 88.8857 122.736 88.9086 122.746L89.1057 122.83C89.1957 122.869 89.2586 122.95 89.2757 123.046C89.2929 123.142 89.2586 123.24 89.1857 123.304L70.9914 139.77C69.6572 140.976 67.9314 141.619 66.18 141.619H66.1814ZM28.9757 123.739V127.299C28.9757 128.467 29.7186 129.496 30.8257 129.857L64.1472 140.724C66.3857 141.454 68.8629 140.927 70.61 139.347L88.41 123.239C87.9229 123.156 87.4343 123.034 86.9529 122.877L84.5414 122.092L70.9943 134.352C69.0957 136.069 66.4043 136.642 63.9714 135.849L30.65 124.982C30.4914 124.93 30.3372 124.867 30.1772 124.787C29.6843 124.537 29.2772 124.174 28.9772 123.737L28.9757 123.739Z" fill="black"/>
</g>
<g id="Group_7">
<path id="Vector_11" d="M60.1856 113.849V125.494L48.3528 121.634V109.99L60.1856 113.849Z" fill="white"/>
<path id="Vector_12" d="M60.1857 125.78C60.1557 125.78 60.1257 125.776 60.0971 125.766L48.2643 121.906C48.1471 121.867 48.0671 121.757 48.0671 121.634V109.99C48.0671 109.898 48.1114 109.813 48.1857 109.758C48.26 109.704 48.3557 109.69 48.4414 109.718L60.2743 113.577C60.3914 113.616 60.4714 113.726 60.4714 113.848V125.494C60.4714 125.586 60.4271 125.671 60.3529 125.726C60.3029 125.761 60.2443 125.78 60.1857 125.78ZM48.6386 121.426L59.9 125.1V114.056L48.6386 110.383V121.426Z" fill="black"/>
</g>
<g id="Group_8">
<path id="Vector_13" d="M69.647 116.933L60.1855 125.494V113.849L69.647 116.933Z" fill="#EBECEE"/>
<path id="Vector_14" d="M60.1856 125.78C60.147 125.78 60.107 125.771 60.0699 125.756C59.967 125.71 59.8999 125.607 59.8999 125.494V113.849C59.8999 113.757 59.9442 113.671 60.0185 113.617C60.0928 113.563 60.187 113.549 60.2742 113.577L69.7342 116.661C69.8313 116.693 69.9042 116.774 69.9256 116.873C69.947 116.973 69.9142 117.076 69.8385 117.144L60.3785 125.704C60.3242 125.753 60.2556 125.779 60.187 125.779L60.1856 125.78ZM60.4713 114.241V124.85L69.0885 117.051L60.4713 114.241Z" fill="black"/>
</g>
<g id="Group_9">
<path id="Vector_15" d="M49.2705 42.0987L44.2048 44.093L35.8291 41.0216L41.772 39.2844L49.2705 42.0987Z" fill="#FF7E88"/>
<path id="Vector_16" d="M44.2049 44.3787C44.172 44.3787 44.1377 44.373 44.1063 44.3616L35.732 41.2902C35.6163 41.2473 35.5406 41.1359 35.5449 41.013C35.5491 40.8902 35.632 40.783 35.7506 40.7487L41.6934 39.0116C41.7534 38.9945 41.8163 38.9959 41.8734 39.0187L49.372 41.833C49.482 41.8745 49.5563 41.9802 49.5577 42.0987C49.5591 42.2173 49.4863 42.323 49.3763 42.3673L44.3106 44.3616C44.2763 44.3745 44.242 44.3816 44.2063 44.3816L44.2049 44.3787ZM36.7434 41.053L44.202 43.7873L48.4748 42.1045L41.762 39.5859L36.7434 41.053Z" fill="black"/>
</g>
<g id="Group_10">
<path id="Vector_17" d="M49.2706 42.0986L44.7264 65.5443L39.6606 67.5386L40.3635 63.9086L44.2049 44.0929L49.2706 42.0986Z" fill="#FF7E88"/>
<path id="Vector_18" d="M39.6606 67.8243C39.5949 67.8243 39.5306 67.8015 39.4778 67.7586C39.3978 67.6915 39.3606 67.5872 39.3792 67.4843L43.9235 44.0386C43.9421 43.9429 44.0078 43.8629 44.0992 43.8272L49.1649 41.8329C49.2621 41.7943 49.3721 41.8129 49.4521 41.8786C49.5321 41.9458 49.5692 42.0501 49.5506 42.1529L45.0064 65.5986C44.9878 65.6943 44.9221 65.7743 44.8306 65.8101L39.7649 67.8043C39.7306 67.8172 39.6949 67.8243 39.6606 67.8243ZM44.4549 44.3015L40.0392 67.0829L44.4749 65.3358L48.8906 42.5543L44.4549 44.3015Z" fill="black"/>
</g>
<g id="Group_11">
<path id="Vector_19" d="M44.2049 44.0932L40.3635 63.9089L39.6606 67.5389L38.1378 66.9817L31.2849 64.4689L35.8292 41.0217L42.7492 43.5589L44.2049 44.0932Z" fill="#FF444F"/>
<path id="Vector_20" d="M39.6606 67.8245C39.6278 67.8245 39.5935 67.8188 39.5621 67.8074L31.1878 64.7359C31.0563 64.6874 30.9792 64.5516 31.0049 64.4131L35.5492 40.9674C35.5649 40.8845 35.6163 40.8145 35.6892 40.7731C35.7621 40.7316 35.8492 40.7245 35.9278 40.7531L44.3021 43.8245C44.4335 43.8731 44.5106 44.0088 44.4849 44.1474L39.9406 67.5931C39.9249 67.6759 39.8735 67.7459 39.8006 67.7874C39.7578 67.8116 39.7092 67.8245 39.6606 67.8245ZM31.6121 64.2845L39.4435 67.1559L43.8778 44.2774L36.0463 41.4059L31.6121 64.2845Z" fill="black"/>
</g>
<g id="Group_12">
<path id="Vector_21" d="M66.1833 61.5201L61.1176 63.5144L52.7405 60.4415L58.6833 58.7058L66.1833 61.5201Z" fill="#FF7E88"/>
<path id="Vector_22" d="M61.1176 63.8001C61.0848 63.8001 61.0505 63.7944 61.019 63.783L52.6419 60.7101C52.5262 60.6673 52.4505 60.5558 52.4548 60.433C52.459 60.3101 52.5419 60.203 52.6605 60.1687L58.6033 58.433C58.6633 58.4158 58.7262 58.4173 58.7833 58.4401L66.2833 61.2544C66.3948 61.2958 66.4676 61.4016 66.469 61.5201C66.4705 61.6387 66.3976 61.7444 66.2876 61.7887L61.2219 63.783C61.1876 63.7958 61.1533 63.803 61.1176 63.803V63.8001ZM53.6548 60.4716L61.1148 63.2073L65.3876 61.5244L58.6733 59.0044L53.6562 60.4701L53.6548 60.4716Z" fill="black"/>
</g>
<g id="Group_13">
<path id="Vector_23" d="M66.1834 61.5203L62.022 81.3831L56.9563 83.3788L57.6663 79.7488L61.1177 63.5145L66.1834 61.5203Z" fill="#FF7E88"/>
<path id="Vector_24" d="M56.9562 83.6645C56.8905 83.6645 56.8262 83.6417 56.7734 83.5988C56.6934 83.5317 56.6562 83.4274 56.6762 83.3245L57.3862 79.696L60.8391 63.456C60.8591 63.3617 60.9248 63.2845 61.0134 63.2502L66.0791 61.256C66.1762 61.2174 66.2877 61.236 66.3677 61.3031C66.4477 61.3702 66.4848 61.4774 66.4634 61.5802L62.3019 81.4445C62.2819 81.5388 62.2162 81.616 62.1277 81.6517L57.0619 83.646C57.0277 83.6588 56.9919 83.666 56.9577 83.666L56.9562 83.6645ZM61.3648 63.7245L57.9448 79.8088L57.3362 82.9217L61.7734 81.1745L65.7948 61.9802L61.3648 63.7245Z" fill="black"/>
</g>
<g id="Group_14">
<path id="Vector_25" d="M61.1177 63.5145L57.6662 79.7488L56.9562 83.3788L55.2948 82.7702L48.5791 80.3074L52.7405 60.4417L59.4905 62.9174L61.1177 63.5145Z" fill="#FF444F"/>
<path id="Vector_26" d="M56.9563 83.6645C56.9234 83.6645 56.8891 83.6588 56.8577 83.6474L48.4806 80.5759C48.3477 80.5274 48.2706 80.3874 48.2991 80.2488L52.4606 60.3831C52.4777 60.3017 52.5291 60.2317 52.602 60.1917C52.6748 60.1517 52.7606 60.1445 52.8391 60.1731L61.2163 63.246C61.3491 63.2945 61.4263 63.4345 61.3977 63.5731L57.9463 79.8088L57.2363 83.4331C57.2206 83.5159 57.1691 83.586 57.0963 83.6274C57.0534 83.6517 57.0048 83.6645 56.9563 83.6645ZM48.9091 80.1245L56.7391 82.9945L57.3848 79.6945L60.7848 63.6974L52.952 60.8231L48.9091 80.1245Z" fill="black"/>
</g>
<g id="Group_15">
<path id="Vector_27" d="M86.9607 63.6229L81.895 65.6186L73.5178 62.5458L79.4607 60.8101L86.9607 63.6229Z" fill="#FF7E88"/>
<path id="Vector_28" d="M81.895 65.9044C81.8621 65.9044 81.8278 65.8987 81.7964 65.8873L73.4192 62.8144C73.3035 62.7715 73.2278 62.6601 73.2321 62.5373C73.2364 62.4144 73.3192 62.3073 73.4378 62.273L79.3807 60.5373C79.4407 60.5201 79.5035 60.523 79.5607 60.5444L87.0607 63.3587C87.1721 63.4001 87.245 63.5058 87.2464 63.6244C87.2478 63.743 87.175 63.8487 87.065 63.893L81.9992 65.8873C81.965 65.9001 81.9307 65.9073 81.895 65.9073V65.9044ZM74.4321 62.5758L81.8921 65.3115L86.165 63.6287L79.4507 61.1087L74.4335 62.5744L74.4321 62.5758Z" fill="black"/>
</g>
<g id="Group_16">
<path id="Vector_29" d="M86.9605 63.623L83.982 77.8331L78.9163 79.8273L79.6263 76.1988L81.8948 65.6188L86.9605 63.623Z" fill="#FF7E88"/>
<path id="Vector_30" d="M78.9162 80.113C78.8505 80.113 78.7862 80.0902 78.7333 80.0473C78.6533 79.9802 78.6162 79.8759 78.6362 79.773L79.3462 76.1445L81.6148 65.5587C81.6348 65.4645 81.7005 65.3873 81.789 65.353L86.8548 63.3587C86.9519 63.3202 87.0633 63.3387 87.1433 63.4059C87.2233 63.473 87.2605 63.5802 87.239 63.683L84.2605 77.893C84.2405 77.9873 84.1748 78.0645 84.0862 78.1002L79.0205 80.0944C78.9862 80.1073 78.9505 80.1145 78.9162 80.1145V80.113ZM82.1419 65.8273L79.9062 76.2573L79.2976 79.3702L83.7348 77.623L86.5733 64.083L82.1433 65.8273H82.1419Z" fill="black"/>
</g>
<g id="Group_17">
<path id="Vector_31" d="M81.8948 65.6188L79.6262 76.1988L78.9162 79.8273L77.2562 79.2188L70.5405 76.7573L73.5177 62.5459L80.2677 65.0216L81.8948 65.6188Z" fill="#FF444F"/>
<path id="Vector_32" d="M78.9162 80.113C78.8834 80.113 78.8491 80.1073 78.8177 80.0959L70.4405 77.0244C70.3077 76.9759 70.2305 76.8359 70.2591 76.6973L73.2377 62.4859C73.2548 62.4044 73.3062 62.3344 73.3791 62.2944C73.4519 62.2544 73.5377 62.2473 73.6162 62.2759L81.9934 65.3487C82.1277 65.3973 82.2048 65.5373 82.1748 65.6773L79.9062 76.2573L79.1962 79.8816C79.1805 79.9644 79.1291 80.0344 79.0562 80.0759C79.0134 80.1002 78.9648 80.113 78.9162 80.113ZM70.8705 76.5745L78.7005 79.4444L79.3462 76.1444L81.5634 65.8016L73.7305 62.9287L70.8705 76.5745Z" fill="black"/>
</g>
</g>
</g>
</g>
</g>
</svg>
