<svg width="128" height="128" viewBox="0 0 128 128" fill="none" xmlns="http://www.w3.org/2000/svg">
<g id="illustration / deriv / light / funds-add">
<g id="vector">
<g id="Group">
<g id="Group_2">
<path id="Vector" d="M111.065 63.1903C111.055 64.9117 110.943 69.3489 109.595 74.8989C109.013 77.2932 107.886 81.806 104.966 87.0517C102.423 91.6203 99.7559 94.5317 99.1345 95.1975C96.5959 97.9217 94.0831 99.8346 92.1459 101.117C87.0074 103.603 81.8717 106.09 76.7331 108.576C78.5302 107.659 79.9374 106.76 80.9131 106.087C82.9245 104.705 86.7359 101.797 90.2031 96.976C93.1359 92.8975 94.5031 89.2846 95.4559 86.7075C96.0488 85.1046 97.5231 80.8689 98.216 75.1332C98.4945 72.8146 98.9617 67.6603 98.0374 61.1546C97.8602 59.9117 97.0674 54.6432 94.5059 48.1275C93.3102 45.0903 90.9945 39.906 86.8488 34.2089C84.5531 31.056 80.8302 26.0275 74.2959 21.3575C69.1174 17.6575 64.5259 15.8632 63.0188 15.3032C60.0659 14.2074 53.2559 11.7603 44.2917 12.4846C38.7388 12.9303 34.5702 14.416 32.8845 15.096C36.9559 13.0974 41.0231 11.0989 45.0945 9.10174C46.3288 8.62745 48.006 8.04888 50.036 7.54459C55.1974 6.26031 59.4074 6.25031 61.1631 6.29745C68.6288 6.49745 74.1645 8.82174 77.1888 10.126C78.2945 10.6017 83.6145 12.9446 89.4759 17.7389C91.5802 19.4589 95.6388 23.0375 99.5802 28.556C102.339 32.4175 103.927 35.6675 104.833 37.5475C107.947 43.9989 109.229 49.326 109.596 50.9475C110.18 53.5203 111.093 57.6517 111.066 63.1903H111.065Z" fill="#EBECEE"/>
<path id="Vector_2" d="M76.7316 108.862C76.6259 108.862 76.5259 108.803 76.4759 108.703C76.4059 108.563 76.463 108.393 76.6016 108.322C78.0416 107.586 79.4373 106.756 80.7488 105.853C84.2631 103.437 87.4516 100.312 89.9688 96.8101C92.9416 92.6758 94.2916 89.0244 95.1859 86.6087C96.5016 83.0501 97.4502 79.0701 97.9302 75.1001C98.4702 70.6187 98.4088 65.8101 97.753 61.1958C97.483 59.3015 96.6016 54.2444 94.2388 48.233C92.3159 43.3458 89.7502 38.6844 86.6159 34.3787C84.5673 31.5644 80.7545 26.3273 74.1273 21.5915C70.6402 19.1001 66.6588 16.963 62.9159 15.573C60.3102 14.6058 53.3888 12.0373 44.3116 12.7715C38.9916 13.1987 34.9331 14.5787 32.9888 15.363C32.8459 15.4201 32.6831 15.3544 32.6216 15.2144C32.5588 15.0744 32.6188 14.9087 32.7559 14.8415C36.8273 12.843 40.8945 10.8444 44.9659 8.84725C44.9731 8.84297 44.9816 8.84011 44.9888 8.83725C46.6073 8.2144 48.2816 7.68725 49.9631 7.26868C54.6288 6.10725 58.6316 5.94582 61.1673 6.01297C68.8402 6.21868 74.553 8.68154 77.2988 9.8644C79.203 10.6844 84.2188 13.073 89.653 17.5187C93.4102 20.5887 96.9216 24.3487 99.8088 28.3915C102.642 32.3558 104.233 35.653 105.087 37.4244C107.932 43.3158 109.306 48.3873 109.872 50.8844C110.397 53.1987 111.377 57.5073 111.349 63.1915C111.327 67.0015 110.817 71.073 109.872 74.9658C109.332 77.1873 108.209 81.8115 105.214 87.1901C102.846 91.4458 100.319 94.3444 99.3416 95.393C97.2416 97.6473 94.873 99.653 92.3016 101.357C92.2916 101.364 92.2802 101.37 92.2688 101.376L76.8559 108.834C76.8159 108.854 76.773 108.863 76.7316 108.863V108.862ZM47.5388 12.0701C55.1188 12.0701 60.8002 14.1787 63.1159 15.0373C66.9045 16.4444 70.933 18.6073 74.4602 21.1273C81.1616 25.9158 85.0102 31.203 87.0788 34.043C90.2416 38.3887 92.8302 43.093 94.7716 48.0244C97.1573 54.093 98.0488 59.2015 98.3202 61.1158C98.983 65.7787 99.0445 70.6387 98.4988 75.1687C98.013 79.183 97.053 83.2087 95.723 86.8073C94.8188 89.2515 93.4516 92.9458 90.433 97.143C88.0573 100.447 85.093 103.423 81.8202 105.796L92.003 100.867C94.5316 99.1915 96.8602 97.2173 98.9245 95.0015C99.8873 93.9687 102.377 91.1115 104.716 86.9115C107.672 81.6015 108.783 77.0287 109.317 74.8301C110.253 70.9801 110.757 66.9544 110.779 63.1887C110.807 57.5701 109.837 53.303 109.316 51.0115C108.754 48.5373 107.393 43.513 104.574 37.673C103.727 35.9173 102.15 32.6487 99.3459 28.723C96.4873 24.7215 93.0116 21.0001 89.293 17.9615C83.9145 13.5601 78.9559 11.2001 77.0745 10.3887C74.3616 9.22011 68.7159 6.78725 61.1531 6.5844C58.6531 6.51725 54.7059 6.67725 50.1016 7.82297C48.4459 8.2344 46.8002 8.75297 45.2059 9.36582C42.3959 10.7444 39.5873 12.1244 36.7773 13.503C38.8102 12.9515 41.3516 12.4358 44.2659 12.2015C45.3902 12.1101 46.4831 12.0701 47.5388 12.0701Z" fill="black"/>
</g>
<g id="Group_3">
<path id="Vector_3" d="M25.5345 97.5116C20.8388 92.7973 18.0874 88.4987 17.1659 87.0059C16.5617 86.0259 14.5517 82.7044 12.6545 77.9844C10.2817 72.0787 9.38737 67.2259 9.09308 65.4602C7.84737 57.9944 8.3788 52.1844 8.5288 50.7102C8.83023 47.7644 9.41166 42.493 12.1488 36.2273C15.3945 28.7973 19.7817 24.2959 20.6659 23.4073C25.7974 18.243 30.9802 15.9101 32.2402 15.3644C33.1817 14.9573 37.7874 13.0101 44.2888 12.4859C53.2531 11.763 60.0631 14.2087 63.0159 15.3059C64.5231 15.8659 69.1145 17.6587 74.2931 21.3601C80.8288 26.0301 84.5517 31.0573 86.8474 34.2101C90.9945 39.9073 93.3102 45.093 94.5045 48.1287C97.0674 54.6459 97.8588 59.9144 98.0359 61.1573C98.9602 67.663 98.4945 72.8159 98.2145 75.1359C97.5217 80.8701 96.0474 85.1073 95.4545 86.7101C94.5002 89.2873 93.1345 92.9001 90.2016 96.9787C86.7345 101.8 82.9231 104.707 80.9131 106.09C78.8731 107.492 74.9731 109.876 69.5459 111.373C60.9474 113.744 53.8545 112.416 50.7002 111.789C49.1831 111.487 44.0117 110.374 38.0274 107.159C31.9402 103.889 28.1245 100.114 25.5331 97.513L25.5345 97.5116Z" fill="white"/>
<path id="Vector_4" d="M59.4474 113.01C55.3802 113.01 52.2474 112.386 50.6459 112.067C48.2245 111.586 43.3502 110.34 37.8945 107.409C31.6459 104.051 27.6945 100.084 25.3331 97.7129C21.2217 93.5843 18.4902 89.6929 16.9231 87.1557C15.9717 85.6143 14.1159 82.3857 12.3902 78.09C10.3002 72.89 9.29165 68.3772 8.81165 65.5072C7.68737 58.7757 7.97451 53.3286 8.24594 50.6815C8.51594 48.0415 9.07737 42.5472 11.8888 36.1129C14.8988 29.2243 18.8888 24.7915 20.4659 23.2057C25.2702 18.3715 30.2231 15.9286 32.1288 15.1029C33.7688 14.3929 38.2331 12.6886 44.2688 12.2015C53.4788 11.4586 60.4816 14.0586 63.1174 15.0372C66.9059 16.4443 70.9345 18.6057 74.4616 21.1272C81.1674 25.9186 85.0131 31.2029 87.0802 34.0415C90.2474 38.3915 92.8345 43.0957 94.7716 48.0243C97.1574 54.0915 98.0474 59.2015 98.3202 61.1172C98.9845 65.7872 99.0459 70.6472 98.4988 75.17C98.0117 79.1929 97.0531 83.2172 95.7231 86.8086C94.8174 89.2543 93.4502 92.9515 90.4345 97.1443C87.8802 100.697 84.6431 103.871 81.0759 106.324C77.5859 108.723 73.7331 110.513 69.6231 111.647C65.8902 112.677 62.4202 113.01 59.4488 113.01H59.4474ZM25.7359 97.31C28.0745 99.6586 31.9888 103.589 38.1631 106.906C43.5531 109.801 48.3659 111.031 50.7559 111.507C53.4916 112.051 60.7617 113.499 69.4688 111.096C73.5174 109.979 77.3117 108.216 80.7488 105.853C84.2631 103.437 87.4502 100.311 89.9674 96.81C92.9374 92.6786 94.2902 89.0257 95.1845 86.6086C96.4988 83.0586 97.4474 79.0786 97.9288 75.0986C98.4702 70.6243 98.4088 65.8172 97.7516 61.1943C97.4817 59.2986 96.6002 54.2415 94.2374 48.23C92.3174 43.3472 89.7531 38.6857 86.6159 34.3743C84.5688 31.5615 80.7574 26.3257 74.1274 21.5886C70.6402 19.0972 66.6588 16.9586 62.9159 15.57C60.3116 14.6029 53.3959 12.0357 44.3117 12.7672C38.3617 13.2472 33.9674 14.9243 32.3531 15.6229C30.4774 16.4357 25.6017 18.84 20.8674 23.6043C19.3145 25.1672 15.3802 29.5386 12.4088 36.3386C9.63308 42.6915 9.07737 48.1243 8.81023 50.7357C8.54165 53.3543 8.2588 58.7443 9.37165 65.41C9.84594 68.2529 10.8459 72.7215 12.9159 77.8743C14.6259 82.1314 16.4631 85.3272 17.4045 86.8529C18.9559 89.3643 21.6602 93.2172 25.7331 97.3072L25.7359 97.31Z" fill="black"/>
</g>
<g id="Group_4">
<path id="Vector_5" d="M53.3562 83.7441C53.3576 86.0713 53.3605 88.3999 53.3619 90.727L53.3562 83.7441Z" fill="white"/>
<path id="Vector_6" d="M53.3591 83.4585C53.5162 83.4585 53.6448 83.5871 53.6448 83.7442V90.7271C53.6448 90.8842 53.5162 91.0128 53.3591 91.0128C53.2019 91.0128 53.0734 90.8842 53.0734 90.7271V83.7442C53.0734 83.5871 53.2019 83.4585 53.3591 83.4585Z" fill="black"/>
</g>
<g id="Group_5">
<path id="Vector_7" d="M53.3535 41.39C53.3592 39.0543 53.3649 36.72 53.3707 34.3843L53.3535 41.39Z" fill="white"/>
<path id="Vector_8" d="M53.3534 41.6758C53.1962 41.6758 53.0677 41.5472 53.0691 41.3901L53.0862 34.3843C53.0862 34.2272 53.2148 34.0986 53.372 34.0986C53.5291 34.0986 53.6577 34.2272 53.6562 34.3843L53.6391 41.3901C53.6391 41.5472 53.5105 41.6758 53.3534 41.6758Z" fill="black"/>
</g>
<g id="Group_6">
<path id="Vector_9" d="M43.8526 53.2215C43.874 52.5515 43.9526 51.6229 44.2112 50.5486C44.434 49.6229 45.024 47.2872 46.9797 45.0843C47.7412 44.2272 49.4869 42.3129 52.444 41.6001C53.3683 41.3772 55.3497 40.9286 57.5983 41.7915C60.1897 42.7858 61.4226 44.8629 61.8226 45.5615C63.1997 47.9658 63.0326 50.3029 62.944 51.5272C62.9126 51.9686 62.7769 53.4972 62.0369 55.3215C61.7126 56.1215 60.9669 57.9058 59.2212 59.5686C57.974 60.7572 56.7426 61.3843 56.2383 61.6215C54.5783 62.4015 53.064 62.6958 53.064 62.6958C52.674 62.7715 52.2297 62.8358 51.594 63.0572C50.8483 63.3158 50.3169 63.6229 49.9383 63.8443C49.6383 64.0201 48.9255 64.4558 48.124 65.1543C46.524 66.5501 45.6426 68.0658 45.4269 68.4472C44.9397 69.3115 44.1383 70.9758 43.8997 73.2201C43.7955 74.1958 43.6397 75.8301 44.2812 77.7786C44.8212 79.4158 45.6583 80.4686 45.8797 80.7372C47.1383 82.2686 48.5655 82.9443 48.9112 83.1001C49.3583 83.3029 51.1383 84.0586 53.4697 83.7443C55.394 83.4843 56.6897 82.6315 57.5512 82.0501C59.3969 80.8029 60.3955 79.3272 61.0112 78.3986C61.454 77.7315 62.0497 76.8172 62.4912 75.4629C62.9769 73.9729 63.0397 72.6658 63.0169 71.8115" fill="white"/>
<path id="Vector_10" d="M52.3521 40.9939C52.7206 40.9939 53.1064 41.0167 53.5078 41.071C55.5378 41.3453 56.8978 42.2624 57.7106 42.8124C59.6421 44.1167 60.6878 45.6953 61.2492 46.5424C61.6678 47.1739 62.3006 48.1296 62.7621 49.5467C63.1549 50.7524 63.3364 52.0139 63.3006 53.2939C63.2964 53.451 63.1635 53.5753 63.0078 53.571C62.8506 53.5667 62.7264 53.4353 62.7306 53.2782C62.7635 52.0624 62.5921 50.8667 62.2192 49.7239C61.7821 48.3796 61.1749 47.4639 60.7735 46.8582C60.1949 45.9867 59.2278 44.5267 57.3921 43.2853C56.6206 42.7653 55.3306 41.8939 53.4335 41.6367C51.3278 41.3524 49.6535 41.9767 49.0321 42.2582C48.5292 42.4853 47.2364 43.1653 46.1049 44.5424C45.7292 44.9996 45.0278 45.981 44.5564 47.4096C43.9206 49.3396 44.0935 50.971 44.1878 51.8482C44.3606 53.4753 44.8764 55.0867 45.6792 56.511C45.9864 57.0553 46.8564 58.4567 48.3149 59.7296C48.8664 60.211 49.4778 60.6524 50.0849 61.0082C50.4321 61.211 50.9549 61.5182 51.6892 61.7724C52.2092 61.9524 52.5964 62.0253 52.9392 62.0882C53.0021 62.0996 53.0621 62.111 53.1206 62.1224L53.1206 62.1253C53.4178 62.1796 54.8549 62.511 56.3621 63.2182C57.1278 63.5782 58.2806 64.2353 59.4206 65.3224C61.2464 67.0624 62.0149 68.9567 62.3049 69.6696C62.9906 71.3582 63.1792 72.8253 63.2321 73.551C63.3235 74.8253 63.4949 77.1996 62.0735 79.6796C60.9921 81.5667 59.5221 82.8782 57.7035 83.5753C55.3249 84.4867 53.2606 83.9896 52.3792 83.7767C49.2735 83.0282 47.4535 80.9767 46.7678 80.2039C44.7249 77.901 44.1306 75.4282 43.9349 74.6167C43.7206 73.7253 43.5978 72.8067 43.5692 71.8853C43.5649 71.7282 43.6878 71.5953 43.8464 71.591C44.0049 71.591 44.1364 71.7096 44.1406 71.8682C44.1678 72.7496 44.2864 73.6296 44.4906 74.4824C44.6778 75.261 45.2464 77.6282 47.1949 79.8239C47.8478 80.5596 49.5821 82.5139 52.5135 83.2196C53.3435 83.4196 55.2864 83.8882 57.4992 83.0396C59.1906 82.391 60.5635 81.1639 61.5778 79.3939C62.9121 77.0639 62.7492 74.8053 62.6621 73.591C62.6121 72.8996 62.4306 71.4982 61.7749 69.8839C61.4978 69.2024 60.7635 67.391 59.0264 65.7353C57.9421 64.701 56.8464 64.0767 56.1192 63.7353C54.5121 62.981 53.0278 62.6867 53.0121 62.6839L52.8349 62.651C52.4735 62.5839 52.0635 62.5067 51.5021 62.3124C50.7149 62.0396 50.1621 61.7153 49.7964 61.501C49.1592 61.1282 48.5178 60.6639 47.9392 60.1596C46.4692 58.8767 45.5806 57.4982 45.1821 56.791C44.3406 55.2996 43.8006 53.611 43.6192 51.9082C43.5206 50.9882 43.3392 49.2767 44.0135 47.231C44.5135 45.7139 45.2621 44.6682 45.6635 44.1796C46.8721 42.7096 48.2578 41.9824 48.7978 41.7382C49.3464 41.4896 50.6564 40.9939 52.3564 40.9939L52.3521 40.9939Z" fill="black"/>
</g>
</g>
<g id="Group 2415">
<path id="Vector_11" d="M119.896 101.208C119.432 103.148 118.585 106.537 116.006 110.019C114.181 112.481 112.208 114.02 111.352 114.644C110.346 115.378 109.429 115.915 108.725 116.288C105.413 117.522 102.1 118.756 98.7835 119.99C103.406 117.849 105.936 114.461 106.938 113.085C109.529 109.528 110.369 106.158 110.834 104.206C112.285 98.1179 111.271 93.1733 110.796 90.981C110.211 88.2812 108.946 84.1473 106.033 79.8613C104.937 78.2494 102.708 75.0372 98.6375 72.1966C96.3892 70.6277 92.439 67.9483 86.7101 67.6036C83.9361 67.4368 81.5642 67.8675 79.8262 68.362C82.6179 67.2762 85.4098 66.1886 88.1999 65.1026C89.6217 64.7265 91.569 64.356 93.8957 64.3338C96.8646 64.3027 99.1284 64.8476 100.068 65.101C103.558 66.0438 105.909 67.6069 107.334 68.5671C108.135 69.1104 111.199 71.2455 114.13 75.0889C114.874 76.0645 116.531 78.36 117.965 81.6759C119.806 85.9319 120.359 89.7394 120.533 92.1934C120.658 93.9549 120.861 97.1714 119.896 101.208Z" fill="#FF535E"/>
<path id="Vector_12" d="M98.756 120.322C98.6367 120.311 98.5282 120.236 98.4787 120.118C98.4101 119.953 98.4841 119.763 98.646 119.689C103.287 117.537 105.836 114.04 106.673 112.889C109.278 109.313 110.082 105.94 110.514 104.129C111.978 97.9933 110.886 92.9498 110.475 91.0506C109.618 87.0887 108.032 83.3867 105.761 80.0488C104.802 78.638 102.56 75.3361 98.4498 72.4703C96.3523 71.0068 92.4463 68.283 86.6925 67.936C84.4202 67.7994 82.1412 68.0515 79.92 68.6811C79.7487 68.7291 79.5701 68.6345 79.5134 68.4674C79.4568 68.2986 79.5434 68.1161 79.708 68.0507C81.5651 67.3281 83.4223 66.6055 85.2795 65.8829L88.0816 64.793C88.0936 64.789 88.1057 64.7851 88.1177 64.7812C90.0014 64.2831 91.9456 64.0209 93.8947 64.0013C96.0294 63.9785 98.1944 64.2489 100.157 64.7801C103.76 65.7531 106.208 67.4051 107.523 68.2919C108.949 69.2589 111.738 71.4011 114.398 74.8876C115.905 76.8639 117.245 79.1659 118.273 81.545C119.734 84.92 120.607 88.4959 120.869 92.1702C120.982 93.777 121.22 97.1186 120.223 101.286C119.778 103.148 118.948 106.613 116.276 110.217C114.612 112.462 112.789 114.009 111.551 114.913C110.707 115.529 109.809 116.09 108.883 116.582C108.871 116.59 108.857 116.595 108.843 116.601C106.636 117.424 104.429 118.245 102.223 119.066L98.9013 120.303C98.8529 120.32 98.8039 120.328 98.7558 120.323L98.756 120.322ZM87.328 67.3152C92.9537 67.8227 96.8988 70.5768 98.8298 71.9234C103.041 74.8601 105.332 78.2332 106.311 79.6742C108.63 83.0833 110.25 86.8635 111.124 90.9104C111.544 92.8488 112.659 97.9996 111.16 104.284C110.717 106.141 109.892 109.597 107.209 113.282C106.57 114.159 104.961 116.369 102.215 118.359C104.34 117.567 106.464 116.777 108.59 115.985C109.481 115.511 110.345 114.969 111.158 114.376C112.358 113.499 114.128 111.997 115.741 109.821C118.331 106.327 119.14 102.948 119.574 101.132C120.547 97.0646 120.315 93.792 120.203 92.2187C119.946 88.6183 119.092 85.1159 117.66 81.8103C116.652 79.4799 115.339 77.2254 113.865 75.2921C111.264 71.881 108.538 69.7881 107.147 68.8442C105.866 67.9788 103.478 66.3672 99.9806 65.4238C98.652 65.0634 96.5191 64.6406 93.898 64.668C92.0092 64.6863 90.1274 64.9408 88.302 65.4224L85.5172 66.5056C84.7971 66.7863 84.0771 67.0671 83.3572 67.3462C84.4765 67.23 85.6026 67.2064 86.7271 67.2744C86.9282 67.2858 87.1271 67.3021 87.3242 67.3199L87.328 67.3152Z" fill="black"/>
<g id="Group_7">
<path id="Vector_13" d="M101.736 95.0485C97.8521 98.1351 93.9659 101.223 90.0814 104.311C87.0529 105.441 84.0259 106.573 80.9973 107.703C87.7176 102.362 94.4399 97.0184 101.162 91.6781C101.376 92.4641 101.637 93.6226 101.736 95.0485Z" fill="#FF444F"/>
<path id="Vector_14" d="M80.969 108.035C80.8633 108.025 80.7639 107.965 80.7097 107.866C80.6296 107.724 80.6664 107.543 80.794 107.441L100.958 91.4173C101.047 91.3479 101.162 91.3262 101.267 91.3606C101.372 91.3949 101.454 91.4808 101.483 91.5872C101.79 92.7113 101.986 93.8675 102.069 95.0222C102.077 95.1335 102.029 95.2398 101.943 95.3093C98.0585 98.3958 94.1724 101.484 90.2879 104.572C90.261 104.593 90.2294 104.611 90.1966 104.623L81.1126 108.014C81.0643 108.031 81.0155 108.037 80.9675 108.033L80.969 108.035ZM100.969 92.2557L82.8492 106.657L89.9211 104.017C93.7461 100.978 97.5711 97.9377 101.394 94.8977C101.321 94.0119 101.18 93.1252 100.969 92.2557Z" fill="black"/>
</g>
<g id="Group_8">
<path id="Vector_15" d="M97.5749 107.297C94.345 110.336 90.4895 110.609 89.6932 110.65C84.9129 110.894 81.6916 108.272 80.9929 107.673C84.0253 106.539 87.0562 105.404 90.0886 104.27C90.604 104.652 91.2812 105.105 92.113 105.546C92.4567 105.725 93.4411 106.23 94.8204 106.667C95.5353 106.893 96.462 107.138 97.5767 107.296L97.5749 107.297Z" fill="#FF444F"/>
<path id="Vector_16" d="M87.9685 110.954C84.3264 110.634 81.7871 108.795 80.7793 107.93C80.6897 107.853 80.6473 107.733 80.668 107.618C80.6889 107.5 80.7696 107.403 80.8801 107.362L89.9753 103.961C90.0807 103.922 90.1976 103.938 90.2865 104.005C90.9095 104.466 91.5764 104.886 92.2697 105.254C93.078 105.678 93.9953 106.06 94.9208 106.352C95.7992 106.631 96.7075 106.839 97.6246 106.97C97.7514 106.987 97.8548 107.077 97.8936 107.2C97.9306 107.322 97.8965 107.457 97.8017 107.545C94.7291 110.433 91.1182 110.914 89.7086 110.987C89.1035 111.018 88.521 111.004 87.9667 110.955L87.9685 110.954ZM81.6604 107.782C83.0187 108.825 85.8372 110.513 89.6821 110.316C90.9392 110.252 94.0446 109.844 96.8319 107.515C96.1167 107.383 95.409 107.207 94.7202 106.988C93.7575 106.684 92.8032 106.288 91.9599 105.846C91.2903 105.491 90.6452 105.088 90.0384 104.65L81.6603 107.784L81.6604 107.782Z" fill="black"/>
</g>
<g id="Group_9">
<path id="Vector_17" d="M83.8699 83.8484C83.5952 84.5704 82.8687 86.6346 82.8687 89.4049C82.8674 89.9937 82.9011 90.547 82.9538 91.0569C80.1571 93.2942 77.3624 95.5283 74.5657 97.7656C74.1364 96.4365 73.6054 94.2285 73.8145 91.5C73.9302 89.961 74.1948 87.0098 76.2844 84.1082C77.0325 83.0697 79.2193 80.3591 83.0353 79.2751C84.4276 78.8786 85.7625 78.7782 86.9988 78.8632C86.106 79.8121 84.7824 81.4626 83.8699 83.8484Z" fill="#FF444F"/>
<path id="Vector_18" d="M74.5375 98.0978C74.5161 98.0959 74.4931 98.0922 74.4722 98.0854C74.3685 98.0546 74.2862 97.9737 74.2525 97.8704C73.5787 95.7853 73.3201 93.6347 73.4865 91.4761C73.5973 90.0086 73.828 86.9556 76.019 83.9139C77.0287 82.5102 79.2721 79.9984 82.95 78.9542C84.2706 78.5782 85.6428 78.4359 87.0264 78.5304C87.1618 78.5406 87.2658 78.6217 87.3113 78.7411C87.3568 78.8605 87.3308 78.9971 87.2423 79.0914C85.9068 80.51 84.8767 82.1512 84.1814 83.9673C83.7336 85.1409 83.2023 87.0366 83.2029 89.4039C83.2032 89.9409 83.231 90.4854 83.2861 91.0223C83.2973 91.1353 83.2519 91.2485 83.1622 91.3192C80.3797 93.5445 77.6009 95.7667 74.8185 97.992L74.7735 98.0282C74.7053 98.0824 74.6215 98.1069 74.5374 98.0995L74.5375 98.0978ZM86.2819 79.1695C85.2098 79.1608 84.152 79.3039 83.1269 79.5954C79.6437 80.5848 77.5152 82.9694 76.5553 84.3022C74.4749 87.1913 74.2542 90.1181 74.1474 91.524C74.0005 93.4367 74.2 95.3446 74.7418 97.2023C77.3643 95.1052 79.9851 93.0096 82.6094 90.9111C82.5624 90.4117 82.5393 89.9062 82.5407 89.4061C82.5395 86.9367 83.0969 84.9563 83.5646 83.7309C84.2052 82.0555 85.1186 80.5246 86.2819 79.1695Z" fill="black"/>
</g>
<path id="Vector_19" d="M110.799 90.982C110.215 88.2822 108.949 84.1466 106.036 79.8623C104.94 78.2521 102.712 75.0382 98.6391 72.1975C96.3923 70.6304 92.4423 67.9493 86.7101 67.6043C82.2933 67.3394 78.8958 68.5861 77.4596 69.1964C76.4873 69.608 73.2402 71.0754 70.205 74.3788C67.0976 77.7609 65.9209 81.2154 65.3052 83.0787C63.9162 87.2939 63.9706 90.7642 64.0177 92.6673C64.0605 94.4331 64.3049 98.166 65.9011 102.577C67.996 108.364 71.2195 112.008 72.1335 113.003C74.0664 115.106 77.6708 119.027 83.8775 120.814C85.8308 121.376 91.7935 122.999 98.279 120.214C103.223 118.092 105.901 114.509 106.94 113.083C109.531 109.527 110.369 106.156 110.836 104.204C112.288 98.1173 111.273 93.1708 110.798 90.9786L110.799 90.982Z" fill="#FF7E88"/>
<path id="Vector_20" d="M110.799 90.982C110.215 88.2822 108.949 84.1466 106.036 79.8623C104.94 78.2521 102.712 75.0382 98.6391 72.1975C96.3923 70.6304 92.4423 67.9493 86.7101 67.6043C82.2933 67.3394 78.8958 68.5861 77.4596 69.1964C76.4873 69.608 73.2402 71.0754 70.205 74.3788C67.0976 77.7609 65.9209 81.2154 65.3052 83.0787C63.9162 87.2939 63.9706 90.7642 64.0177 92.6673C64.0605 94.4331 64.3049 98.166 65.9011 102.577C67.996 108.364 71.2195 112.008 72.1335 113.003C74.0664 115.106 77.6708 119.027 83.8775 120.814C85.8308 121.376 91.7935 122.999 98.279 120.214C103.223 118.092 105.901 114.509 106.94 113.083C109.531 109.527 110.369 106.156 110.836 104.204C112.288 98.1173 111.273 93.1708 110.798 90.9786L110.799 90.982Z" stroke="#0E0E0E" stroke-width="0.6"/>
<path id="Vector_21" d="M90.7065 108.878C90.7407 108.887 90.7761 108.891 90.8114 108.89C90.919 108.887 91.0213 108.841 91.0962 108.759C91.1712 108.678 91.2128 108.569 91.212 108.455L91.1093 99.6074L99.7843 101.934C99.8454 101.951 99.9093 101.953 99.9711 101.94C100.033 101.926 100.091 101.898 100.141 101.857C100.19 101.815 100.229 101.762 100.256 101.702C100.282 101.641 100.295 101.576 100.294 101.509L100.191 95.2536C100.187 95.0602 100.06 94.8897 99.8851 94.8419L90.9679 92.3812L90.7963 83.3252C90.7931 83.1319 90.6682 82.9636 90.4929 82.9158L84.3909 81.2142C84.3299 81.1971 84.266 81.1951 84.2043 81.2084C84.1425 81.2217 84.0845 81.25 84.0349 81.2909C83.9853 81.3319 83.9453 81.3845 83.9183 81.4446C83.8912 81.5046 83.8777 81.5705 83.8788 81.6371L84.0256 90.5093L75.3356 88.2059C75.2753 88.1888 75.212 88.1868 75.1508 88.2002C75.0897 88.2136 75.0324 88.242 74.9836 88.2831C74.9346 88.3249 74.8953 88.3779 74.8687 88.4382C74.8422 88.4985 74.829 88.5644 74.8302 88.6309L74.9338 94.8956C74.9358 94.9895 74.9667 95.0802 75.0218 95.154C75.0769 95.2279 75.1533 95.2808 75.2393 95.3049L84.1211 97.7363L84.2721 106.862C84.2735 106.957 84.305 107.05 84.3614 107.125C84.4179 107.199 84.4963 107.253 84.5842 107.276L90.7065 108.878Z" fill="#FF444F"/>
<path id="Vector (Stroke)" fill-rule="evenodd" clip-rule="evenodd" d="M90.6009 108.226L84.8705 106.727L84.7141 97.273L75.5322 94.7594L75.4346 88.8585L84.6393 91.2984L84.4833 81.8687L90.1904 83.4601L90.3682 92.8438L99.5844 95.3871L99.6819 101.282L90.4917 98.817L90.6009 108.226ZM100.137 101.857C100.087 101.898 100.029 101.926 99.9672 101.94C99.9054 101.953 99.8415 101.951 99.7804 101.934L91.1054 99.6074L91.2081 108.455C91.2088 108.569 91.1673 108.678 91.0923 108.759C91.0173 108.841 90.915 108.887 90.8075 108.89C90.7721 108.891 90.7368 108.887 90.7026 108.878L84.5803 107.276C84.4924 107.253 84.414 107.199 84.3575 107.125C84.3011 107.05 84.2696 106.957 84.2682 106.862L84.1172 97.7363L75.2354 95.3049C75.1494 95.2808 75.073 95.2279 75.0179 95.154C74.9628 95.0802 74.9319 94.9895 74.9299 94.8956L74.8262 88.6309C74.825 88.5644 74.8382 88.4985 74.8648 88.4382C74.8914 88.3779 74.9307 88.3249 74.9797 88.2831C75.0285 88.242 75.0858 88.2136 75.1469 88.2002C75.2081 88.1868 75.2714 88.1888 75.3317 88.2059L84.0216 90.5093L83.8749 81.6371C83.8737 81.5705 83.8873 81.5046 83.9143 81.4446C83.9414 81.3845 83.9814 81.3319 84.031 81.2909C84.0806 81.25 84.1386 81.2217 84.2003 81.2084C84.2621 81.1951 84.326 81.1971 84.387 81.2142L90.489 82.9158C90.6643 82.9636 90.7892 83.1319 90.7924 83.3252L90.964 92.3812L99.8812 94.8419C100.056 94.8897 100.184 95.0602 100.187 95.2536L100.29 101.509C100.291 101.576 100.278 101.641 100.252 101.702C100.225 101.762 100.186 101.815 100.137 101.857Z" fill="#0E0E0E"/>
</g>
</g>
</g>
</svg>
