<svg width="128" height="128" viewBox="0 0 128 128" fill="none" xmlns="http://www.w3.org/2000/svg">
<g id="illustration / deriv / light / user-in-review">
<g id="vector">
<g id="user">
<g id="Group">
<path id="Vector" d="M33.0194 47.5498C33.1514 47.6881 33.2834 47.8202 33.4201 47.9522C33.5521 48.0905 33.6841 48.2226 33.8208 48.3547C33.9528 48.493 34.0848 48.6251 34.223 48.7572C34.3519 48.8939 34.4839 49.026 34.6206 49.1565C34.751 49.2933 34.8846 49.4269 35.0213 49.559C35.1517 49.6957 35.2853 49.8293 35.422 49.9614C35.5524 50.0982 35.686 50.2318 35.8227 50.3639C35.9531 50.5006 36.0867 50.6343 36.2234 50.7663C36.3554 50.9031 36.4874 51.0383 36.624 51.1688C36.7561 51.3055 36.8881 51.4407 37.0247 51.5712C37.1567 51.708 37.2888 51.8432 37.4254 51.9737C37.5574 52.1104 37.6894 52.2456 37.8261 52.3762C37.9597 52.5145 38.0932 52.6496 38.2315 52.7833C38.3635 52.9216 38.497 53.0552 38.6353 53.1888C38.7657 53.3256 38.8993 53.4592 39.0359 53.5913C39.1711 53.7327 39.3062 53.8694 39.4475 54.0031C39.5733 54.1352 39.7007 54.2626 39.8327 54.3884C39.9631 54.5267 40.0982 54.6619 40.2365 54.794C40.3638 54.9276 40.4943 55.0597 40.6278 55.1871C40.6589 55.2198 40.6915 55.254 40.7241 55.2866C40.8282 55.3938 40.9322 55.4979 41.041 55.602C41.1714 55.7388 41.305 55.8724 41.4416 56.0045C41.5721 56.1412 41.7057 56.2749 41.8423 56.407C41.774 56.337 41.7088 56.2671 41.6435 56.1972C41.6435 56.1972 41.6435 56.1941 41.6404 56.1941C41.5752 56.1241 41.5115 56.0542 41.4541 55.9858C41.3888 55.9144 41.3267 55.8429 41.2677 55.773C41.204 55.6999 41.1419 55.6269 41.0844 55.5539C41.0208 55.4793 40.9586 55.4047 40.9012 55.3301L40.8499 55.2648C40.808 55.212 40.7661 55.1592 40.7257 55.1063C40.6667 55.0286 40.6092 54.9525 40.5548 54.8764C40.4974 54.7987 40.4399 54.721 40.3856 54.6433C40.3281 54.564 40.2737 54.4832 40.2194 54.404C40.1635 54.3247 40.1091 54.2424 40.0579 54.1631C40.002 54.0808 39.9492 53.9984 39.901 53.9176C39.8451 53.8337 39.7938 53.7498 39.7441 53.6674C39.6929 53.582 39.6416 53.4996 39.5951 53.4142C39.5438 53.3287 39.4957 53.2432 39.4475 53.1578C39.3978 53.0708 39.3512 52.9822 39.3046 52.8967C39.2565 52.8081 39.2114 52.718 39.1664 52.6294C39.1198 52.5378 39.0732 52.4492 39.0328 52.3575C38.9863 52.2674 38.9428 52.1757 38.9008 52.084C38.8573 51.9924 38.8154 51.8991 38.775 51.8059C38.7316 51.7127 38.6912 51.6163 38.6523 51.5215C38.6104 51.4267 38.5716 51.332 38.5343 51.2325C38.4955 51.1362 38.4582 51.0398 38.4225 50.9419C37.4534 48.3671 37.0449 45.4023 37.3167 42.1687C38.3619 29.7236 49.075 17.956 61.2463 15.8831C64.8587 15.2693 68.1947 15.577 71.0725 16.643C71.1688 16.6756 71.2651 16.7129 71.3599 16.7517C71.4546 16.7875 71.5478 16.8248 71.6441 16.8667C71.7373 16.904 71.8289 16.9429 71.9221 16.9848C72.0137 17.0237 72.1053 17.0656 72.197 17.1091C72.2901 17.1495 72.3787 17.1915 72.4688 17.2365C72.5573 17.2785 72.6458 17.3236 72.7328 17.3686C72.8213 17.4106 72.9083 17.4572 72.9937 17.5038C73.0807 17.5489 73.1661 17.5955 73.2531 17.6452C73.3385 17.6918 73.4223 17.7384 73.5078 17.7913C73.5932 17.8379 73.6755 17.8892 73.7593 17.9389C73.8417 17.9886 73.924 18.0383 74.0032 18.0912C74.0855 18.1409 74.1662 18.1953 74.2455 18.2481C74.3247 18.301 74.407 18.3538 74.4846 18.4082C74.5654 18.4626 74.6446 18.5185 74.7207 18.5729C74.7983 18.6273 74.8745 18.6832 74.9474 18.7376C75.0251 18.7935 75.1027 18.851 75.1757 18.9101C75.2518 18.9691 75.3264 19.0282 75.4009 19.0872C75.4739 19.1447 75.5469 19.2053 75.6184 19.2628C75.6914 19.325 75.7644 19.3856 75.8358 19.4477C75.9072 19.5099 75.9802 19.572 76.0486 19.6373C76.1216 19.6995 76.1899 19.7647 76.2598 19.8269C76.2598 19.8269 76.2598 19.8284 76.2629 19.83C76.3297 19.8921 76.3965 19.9558 76.4601 20.018C76.3281 19.8813 76.1961 19.7461 76.0594 19.6155C75.9274 19.4788 75.7954 19.3436 75.6587 19.2131C75.5267 19.0763 75.3947 18.9412 75.2581 18.8106C75.1229 18.6692 74.9878 18.534 74.8465 18.3973C74.7191 18.2652 74.5918 18.1362 74.4582 18.0104C74.3278 17.8721 74.1942 17.7384 74.0575 17.6079C73.9271 17.4681 73.7935 17.336 73.6568 17.2055C73.5264 17.0656 73.3928 16.9335 73.2562 16.803C73.1226 16.6616 72.9859 16.5233 72.8446 16.3897C72.7157 16.2529 72.5837 16.1208 72.447 15.9903C72.3166 15.8536 72.183 15.7184 72.0463 15.5879C71.9159 15.4511 71.7823 15.3159 71.6456 15.1854C71.5136 15.0487 71.3816 14.9135 71.2449 14.7829C71.1129 14.6462 70.9809 14.511 70.8442 14.3805C70.7122 14.2437 70.5802 14.1086 70.4436 13.978C70.3116 13.8413 70.1795 13.7061 70.0429 13.5756C69.9109 13.4388 69.7788 13.3036 69.6422 13.1731C69.5102 13.0364 69.3782 12.9012 69.2399 12.7707C69.1095 12.6339 68.9775 12.4987 68.8392 12.3682C68.7088 12.2315 68.5768 12.0963 68.4386 11.9657C68.3081 11.829 68.1745 11.6938 68.0379 11.5633C67.9074 11.4265 67.7738 11.2914 67.6372 11.1608C63.9875 7.36313 58.4399 5.53576 52.018 6.6297C39.8466 8.70414 29.1336 20.4717 28.0884 32.9168C27.5759 39.0236 29.4862 44.1608 33.0054 47.5591L33.0194 47.5498Z" fill="#EBECEE"/>
<path id="Vector_2" d="M41.8356 56.7119C41.7579 56.7119 41.6803 56.6824 41.6197 56.6249C41.4737 56.485 41.337 56.3467 41.2097 56.2131C41.073 56.081 40.9364 55.9427 40.809 55.8106C40.7081 55.7143 40.5993 55.6055 40.4937 55.4967C40.4627 55.4657 40.4285 55.4299 40.3959 55.3957C40.2794 55.2854 40.1443 55.1487 40.0045 55.0026C39.871 54.8767 39.7343 54.7384 39.6054 54.6017C39.4749 54.4774 39.346 54.3469 39.2218 54.2179C39.0929 54.0951 38.9562 53.9599 38.8056 53.8014C38.6689 53.6709 38.5322 53.5326 38.4049 53.399C38.2635 53.2622 38.1284 53.1271 38.0011 52.9934C37.8691 52.8676 37.7324 52.7277 37.5973 52.5879C37.4622 52.4589 37.3239 52.3175 37.1966 52.1854C37.0723 52.0673 36.9465 51.9383 36.7959 51.7829C36.6623 51.6555 36.5241 51.5141 36.3952 51.3805C36.2616 51.2531 36.1234 51.1117 35.9945 50.978C35.8563 50.846 35.7196 50.7077 35.5923 50.574C35.4556 50.4435 35.3189 50.3052 35.1916 50.1716C35.0533 50.0379 34.9151 49.8996 34.7909 49.7691C34.6558 49.6386 34.5175 49.5003 34.3902 49.3666C34.2582 49.2408 34.1231 49.1056 33.9973 48.972C33.8575 48.8383 33.7239 48.7047 33.5904 48.5648C33.4506 48.4297 33.317 48.296 33.1897 48.1624C33.0514 48.0287 32.9194 47.8967 32.7936 47.7646C29.0616 44.1565 27.2834 38.8701 27.7866 32.8768C28.8473 20.3245 39.697 8.40771 51.9786 6.31307C58.2328 5.2471 64.0273 6.93152 67.8742 10.9343C67.9938 11.0478 68.1274 11.183 68.2749 11.3368C68.3914 11.4471 68.5234 11.5792 68.6694 11.733C68.8154 11.8713 68.9536 12.0143 69.0701 12.1355C69.2192 12.2769 69.3621 12.423 69.4708 12.5379C69.6152 12.6747 69.7503 12.813 69.8777 12.9451C70.0144 13.0756 70.1557 13.2217 70.2784 13.3475C70.412 13.4749 70.5502 13.6163 70.6791 13.75C70.8158 13.8805 70.9586 14.0266 71.0798 14.1524C71.2118 14.2783 71.3516 14.4213 71.4805 14.5549C71.614 14.6823 71.7522 14.8237 71.8811 14.9573C72.0023 15.0723 72.1374 15.2075 72.2834 15.3614C72.403 15.4763 72.5381 15.61 72.6841 15.7638C72.8161 15.8897 72.9512 16.0249 73.077 16.1585C73.209 16.2828 73.3472 16.4227 73.4886 16.5718C73.6454 16.721 73.7728 16.85 73.8893 16.9743C74.0477 17.125 74.175 17.254 74.29 17.3768C74.4313 17.5119 74.5664 17.6471 74.6891 17.7777C74.8071 17.888 74.9283 18.0092 75.0805 18.1692C75.2233 18.306 75.36 18.4443 75.492 18.5826C75.6271 18.7115 75.7685 18.8576 75.8912 18.9835C76.0263 19.1124 76.1692 19.2585 76.2919 19.3859C76.4285 19.5165 76.5699 19.6625 76.6925 19.7884C76.8106 19.9111 76.809 20.1054 76.6879 20.225C76.5683 20.3447 76.3742 20.3462 76.2515 20.2281C76.1878 20.166 76.1226 20.1038 76.0589 20.0448L76.0558 20.0417L75.9812 19.9733C75.9393 19.9345 75.8974 19.8972 75.8554 19.8599C75.8508 19.8568 75.8461 19.8521 75.843 19.8474C75.7871 19.7946 75.7312 19.7449 75.6737 19.6952L75.6396 19.6656C75.593 19.6252 75.5464 19.5864 75.4998 19.546L75.3538 19.4248C75.3072 19.3875 75.2606 19.3486 75.2156 19.3129C75.1395 19.2523 75.0665 19.1948 74.9919 19.1358C74.9189 19.0783 74.846 19.0239 74.7714 18.971C74.6953 18.9135 74.6223 18.8607 74.5478 18.8079C74.4701 18.7519 74.394 18.6976 74.3164 18.6463C74.2371 18.5919 74.1579 18.5406 74.0803 18.4893L74.0259 18.4536C73.9669 18.4148 73.9079 18.3759 73.8473 18.3386C73.7604 18.2811 73.6812 18.2345 73.6035 18.1863L73.546 18.1521C73.4855 18.1164 73.4249 18.0791 73.3628 18.0465C73.3581 18.0434 73.3535 18.0403 73.3488 18.0372C73.268 17.9874 73.1888 17.9439 73.1081 17.9004C73.0195 17.8491 72.9372 17.8056 72.8534 17.7621C72.7679 17.7155 72.6856 17.672 72.6018 17.6331C72.5086 17.585 72.4216 17.5415 72.3377 17.5011C72.2477 17.456 72.1623 17.4172 72.0753 17.3783C71.979 17.3332 71.8905 17.2928 71.8019 17.2556C71.7072 17.212 71.6187 17.1763 71.5302 17.1406C71.4308 17.0971 71.3407 17.0629 71.2522 17.0287C71.1559 16.9898 71.0642 16.9541 70.9742 16.9246C68.0342 15.8353 64.7821 15.5851 61.3001 16.1772C49.2794 18.2236 38.6611 29.8902 37.6283 42.1815C37.3659 45.3001 37.7308 48.2059 38.7155 50.8195C38.7512 50.9174 38.7869 51.0107 38.8242 51.1039C38.8615 51.2033 38.8987 51.295 38.9376 51.3836C38.9779 51.4815 39.0152 51.5747 39.0571 51.6633C39.0991 51.7596 39.1395 51.8513 39.1814 51.9399C39.2233 52.03 39.2637 52.1186 39.3087 52.204C39.3118 52.2103 39.315 52.2149 39.3165 52.2211C39.3507 52.2988 39.3895 52.375 39.4299 52.4527L39.4423 52.4775C39.4905 52.5723 39.5324 52.6562 39.5759 52.7386L39.6023 52.7899C39.638 52.8582 39.6753 52.9266 39.7141 52.995L39.7405 53.0416C39.7793 53.11 39.8166 53.1783 39.857 53.2452C39.902 53.326 39.9424 53.3943 39.9843 53.4643L40.0045 53.4984C40.0527 53.5792 40.1008 53.6585 40.1521 53.7362C40.1552 53.7408 40.1583 53.7471 40.1614 53.7517C40.2064 53.8279 40.2546 53.904 40.3058 53.9801C40.3602 54.064 40.4114 54.1417 40.4627 54.2163C40.5186 54.3002 40.5714 54.3764 40.6257 54.4525C40.6801 54.5302 40.7345 54.6032 40.7873 54.6747C40.8494 54.7617 40.9053 54.8348 40.9628 54.9109C41.0016 54.9622 41.042 55.0119 41.0823 55.0632L41.1351 55.13C41.1926 55.2031 41.2501 55.273 41.3106 55.3445C41.3743 55.4237 41.4318 55.4921 41.4924 55.562C41.5529 55.6335 41.6119 55.7019 41.6756 55.7702C41.7377 55.8433 41.7968 55.9085 41.8573 55.9722C41.8589 55.9738 41.862 55.9769 41.8635 55.9784L41.8775 55.994C41.9381 56.0577 41.9971 56.1214 42.0577 56.1851C42.1757 56.3063 42.1757 56.5005 42.0561 56.6217C41.9955 56.6824 41.9163 56.7134 41.8356 56.7134V56.7119ZM55.6035 6.62229C54.4542 6.62229 53.2786 6.7233 52.0827 6.92686C40.062 8.97488 29.4437 20.6415 28.4109 32.9327C27.9232 38.7396 29.6363 43.8503 33.2347 47.3264C33.2378 47.3295 33.2409 47.3326 33.244 47.3357C33.3652 47.4616 33.4925 47.5906 33.6354 47.7289C33.7659 47.8656 33.8932 47.993 34.0361 48.1313C34.1743 48.2758 34.3017 48.4032 34.4368 48.5322C34.4414 48.5353 34.4445 48.54 34.4477 48.5431C34.5672 48.6705 34.6961 48.7995 34.8328 48.93C34.9648 49.0683 35.0968 49.2004 35.2351 49.334C35.3624 49.4676 35.4944 49.5997 35.6357 49.7365C35.7647 49.8717 35.8967 50.0037 36.0364 50.1389C36.1653 50.2741 36.2974 50.4062 36.4371 50.5414C36.5691 50.6781 36.7027 50.8133 36.8363 50.9423C36.9698 51.079 37.1018 51.2158 37.237 51.3447C37.3907 51.5032 37.5118 51.6276 37.6376 51.7472C37.7697 51.8839 37.9017 52.0191 38.0383 52.1497C38.1781 52.2942 38.3101 52.4278 38.4452 52.5568C38.5757 52.6935 38.7046 52.8225 38.849 52.9623C38.95 53.068 39.0525 53.1721 39.1596 53.2778C39.1239 53.2141 39.0882 53.1473 39.0525 53.082L39.0261 53.0338C38.9795 52.9468 38.9345 52.8582 38.8894 52.7681L38.8723 52.7355C38.8288 52.65 38.7869 52.5661 38.7481 52.4806C38.7015 52.389 38.6565 52.2942 38.6145 52.2025C38.571 52.1124 38.5276 52.0145 38.4872 51.9181C38.4452 51.828 38.4033 51.727 38.3629 51.6276C38.3225 51.5359 38.2806 51.4349 38.2418 51.3292C38.2045 51.2375 38.1657 51.1365 38.13 51.0355C37.1143 48.3395 36.7369 45.3421 37.0071 42.1302C38.0616 29.5732 48.9113 17.6565 61.193 15.5649C64.7836 14.9542 68.1429 15.2153 71.1792 16.3388C71.2724 16.3698 71.3764 16.4102 71.4774 16.4506C71.5674 16.4848 71.6668 16.5237 71.7678 16.5672C71.8563 16.6029 71.9526 16.6433 72.0489 16.6868C72.1374 16.7241 72.2337 16.7676 72.33 16.8127C72.4185 16.8515 72.5132 16.895 72.608 16.9417C72.6934 16.9821 72.7866 17.0287 72.8767 17.0753C72.9605 17.1141 73.0537 17.1639 73.1438 17.2136C73.2199 17.2524 73.3022 17.296 73.3845 17.3426C73.2882 17.2416 73.1811 17.1343 73.0537 17.0131L73.0428 17.0023C72.9062 16.8562 72.7711 16.7226 72.6437 16.6014C72.639 16.5967 72.6359 16.5936 72.6313 16.5889C72.5117 16.4615 72.3812 16.3325 72.2461 16.202C72.0986 16.0482 71.9681 15.9161 71.8454 15.7996C71.6979 15.6457 71.5674 15.5136 71.4447 15.3971C71.3127 15.2604 71.1792 15.1236 71.044 14.9946C70.8918 14.8361 70.7692 14.7134 70.6434 14.5922C70.5176 14.4617 70.3809 14.3218 70.2427 14.1897C70.1091 14.053 69.9771 13.9162 69.842 13.7873C69.7162 13.6567 69.5795 13.5169 69.4413 13.3848C69.3093 13.2481 69.1773 13.1129 69.0406 12.9839C69.0375 12.9808 69.0328 12.9761 69.0297 12.973C68.9179 12.8549 68.7828 12.7166 68.6399 12.5815C68.6368 12.5783 68.6321 12.5737 68.629 12.5706C68.5157 12.4525 68.3805 12.3126 68.2392 12.179C68.2361 12.1759 68.2314 12.1712 68.2283 12.1681C68.0855 12.0189 67.9581 11.8915 67.8385 11.7765C67.6879 11.618 67.5605 11.4906 67.4378 11.3741C64.4591 8.27563 60.2689 6.62074 55.605 6.62074L55.6035 6.62229Z" fill="black"/>
</g>
<g id="Group_2">
<path id="Vector_3" d="M97.8697 82.2462C97.775 82.2462 97.6818 82.2027 97.6197 82.1204C97.5716 82.0552 97.5234 81.9931 97.4737 81.9294L97.4147 81.8471C97.3821 81.8005 97.3495 81.7555 97.3168 81.7104C97.2159 81.5722 97.2454 81.3796 97.3821 81.2771C97.5188 81.1746 97.7129 81.2026 97.8154 81.3392C97.9194 81.4759 98.0204 81.6141 98.1213 81.7524C98.2207 81.8906 98.1912 82.0832 98.053 82.1841C97.9971 82.2245 97.9334 82.2447 97.8697 82.2447V82.2462Z" fill="black"/>
<g id="Group_3">
<path id="Vector_4" d="M4.31006 108.881L4.64552 109.334L4.98098 109.788L5.31644 110.24L5.65191 110.694L6.32283 111.6L6.65829 112.054L6.99375 112.507L8.00014 113.867L8.33405 114.319L8.66796 114.773L9.00186 115.225L9.33577 115.679L9.67124 116.133L10.0051 116.586L10.3391 117.038L10.673 117.492L11.3439 118.4L11.6778 118.852L12.0117 119.306L12.6826 120.213L13.0181 120.667L13.3535 121.12L14.0245 122.028C14.0245 121.857 14.0245 121.686 14.0291 121.515C14.0291 121.344 14.0322 121.173 14.0369 121.001C14.04 120.83 14.0447 120.657 14.0509 120.485C14.0555 120.314 14.0617 120.142 14.0711 119.967C14.0773 119.797 14.085 119.624 14.0959 119.452C14.1037 119.279 14.1146 119.107 14.127 118.934C14.1363 118.762 14.1503 118.589 14.1627 118.417C14.1751 118.243 14.1891 118.07 14.2046 117.898C14.2202 117.724 14.2357 117.55 14.2543 117.376C14.2699 117.202 14.2885 117.028 14.3087 116.855C14.3273 116.679 14.3475 116.505 14.3693 116.331C14.3894 116.156 14.4096 115.982 14.4345 115.808C14.4578 115.632 14.4811 115.458 14.5059 115.284C14.5292 115.107 14.5556 114.931 14.582 114.756C14.6084 114.58 14.6379 114.405 14.6674 114.229C14.6954 114.052 14.7249 113.876 14.756 113.701C14.7855 113.524 14.8181 113.346 14.8507 113.171C14.8849 112.994 14.9175 112.817 14.9532 112.639C14.9889 112.462 15.0246 112.285 15.0619 112.108C15.0992 111.929 15.1349 111.752 15.1768 111.577C15.2157 111.398 15.2545 111.221 15.2964 111.044C15.3368 110.865 15.3803 110.686 15.4238 110.509C15.4657 110.329 15.5108 110.152 15.5589 109.973C15.6024 109.793 15.649 109.615 15.6971 109.437C15.7437 109.257 15.7919 109.079 15.8416 108.899C15.8913 108.719 15.9425 108.54 15.9938 108.36C16.045 108.18 16.0978 108.001 16.1537 107.821C16.2065 107.639 16.2624 107.459 16.3199 107.277C16.3758 107.095 16.4333 106.915 16.4923 106.735C22.658 87.6715 39.6982 71.7472 59.7529 68.2075C72.5641 65.9481 84.1453 69.1756 92.448 76.2038C92.521 76.266 92.5955 76.3281 92.667 76.3918C92.7384 76.4524 92.8099 76.5146 92.8813 76.5767C92.9527 76.6389 93.0257 76.7026 93.0956 76.7663C93.1671 76.8285 93.2369 76.8922 93.3084 76.9559C93.3798 77.0196 93.4482 77.0833 93.5181 77.147C93.5895 77.2107 93.6578 77.276 93.7277 77.3412C93.7992 77.4065 93.8659 77.4718 93.9358 77.5386C94.0057 77.6023 94.0741 77.6691 94.1424 77.7359C94.2107 77.8012 94.2775 77.8665 94.3458 77.9333C94.4126 77.9985 94.4794 78.0654 94.5446 78.1306C94.613 78.199 94.6797 78.2658 94.745 78.3326C94.8102 78.3979 94.8754 78.4647 94.9407 78.5315C95.0074 78.5999 95.0727 78.6667 95.1379 78.7366C95.2031 78.8034 95.2684 78.8718 95.332 78.9386C95.3957 79.0055 95.4594 79.0738 95.5231 79.1422C95.5867 79.2121 95.652 79.2805 95.7141 79.352C95.7778 79.4219 95.8414 79.4903 95.9036 79.5602C95.9657 79.6301 96.0294 79.7 96.0899 79.7715C96.1536 79.843 96.2157 79.9129 96.2778 79.986C96.34 80.0574 96.4005 80.1274 96.4627 80.2004C96.5217 80.2703 96.5823 80.3418 96.6428 80.4133C96.7034 80.4848 96.764 80.5578 96.8245 80.6293C96.882 80.6992 96.941 80.7691 96.9985 80.8406C97.0575 80.9121 97.1165 80.9851 97.174 81.0581C97.2361 81.1343 97.2967 81.2104 97.3572 81.2881C97.4147 81.3612 97.4722 81.4357 97.5281 81.5088C97.5902 81.588 97.6508 81.6673 97.7113 81.7465C97.6601 81.675 97.6104 81.6051 97.5607 81.5352C97.4504 81.3814 97.3386 81.2291 97.2252 81.0799C97.2175 81.0721 97.2128 81.0628 97.2066 81.0566C97.087 80.8934 96.969 80.7303 96.8478 80.5718C96.8401 80.5609 96.8323 80.5485 96.8245 80.5391C96.736 80.4164 96.6459 80.2952 96.5558 80.1755C96.5496 80.1678 96.545 80.1615 96.5388 80.1538C96.4347 80.0093 96.3275 79.8648 96.2204 79.7218C96.2126 79.714 96.208 79.7047 96.2017 79.6985C96.0977 79.554 95.9905 79.411 95.8849 79.2696C95.8787 79.2618 95.8756 79.2572 95.8709 79.2494C95.7653 79.1034 95.6566 78.9588 95.5495 78.8159C95.5432 78.8081 95.5401 78.8035 95.5355 78.7957C95.4299 78.6496 95.3212 78.5051 95.214 78.3621C95.214 78.359 95.2093 78.3559 95.2062 78.3544C95.0867 78.1897 94.9671 78.0265 94.8459 77.8649C94.745 77.7282 94.6456 77.5899 94.5431 77.4562C94.5369 77.4485 94.5338 77.4438 94.5291 77.436C94.4235 77.2915 94.3163 77.147 94.2092 77.004C94.0849 76.8316 93.9591 76.6606 93.8318 76.4913C93.824 76.4804 93.8162 76.468 93.8085 76.4586C93.706 76.3188 93.605 76.1805 93.4994 76.0437C93.4016 75.9086 93.3022 75.7749 93.2043 75.6413C93.1981 75.6335 93.1935 75.6273 93.1873 75.6195C93.0832 75.475 92.976 75.3305 92.8689 75.1876C92.8642 75.1798 92.8596 75.1751 92.8549 75.1674C92.7369 75.0042 92.6173 74.8426 92.4961 74.6825C92.3983 74.5474 92.2989 74.4137 92.201 74.2801C92.201 74.277 92.1964 74.2739 92.1948 74.2723C92.0722 74.1045 91.9479 73.9367 91.8237 73.772C91.7165 73.6228 91.6078 73.4767 91.4975 73.3307C91.4478 73.2638 91.3981 73.1986 91.3469 73.1333C91.2956 73.0618 91.2459 72.9919 91.1962 72.922C91.086 72.7682 90.9741 72.6159 90.8608 72.4667C90.853 72.4589 90.8483 72.4496 90.8421 72.4434C90.7225 72.2802 90.6045 72.1171 90.4834 71.9586C90.4756 71.9477 90.4678 71.9353 90.4601 71.9259C90.3716 71.8032 90.2815 71.682 90.1914 71.5623C90.1852 71.5546 90.1805 71.5483 90.1743 71.5406C90.0703 71.3961 89.9631 71.2516 89.8559 71.1086C89.8482 71.1008 89.8435 71.0915 89.8373 71.0853C89.7332 70.9408 89.6261 70.7978 89.5205 70.6564C89.5143 70.6486 89.5111 70.644 89.5065 70.6362C89.4009 70.4902 89.2922 70.3456 89.185 70.2027C89.1772 70.1934 89.171 70.1825 89.1617 70.1732C89.0514 70.0209 88.9381 69.867 88.8247 69.7179C88.7113 69.5609 88.5964 69.4071 88.4815 69.2517C84.5615 63.8706 79.2438 59.7233 72.9834 57.1873C66.24 54.454 58.4017 53.5916 50.0385 55.0663C49.821 55.1051 49.6036 55.144 49.3877 55.1859C49.3505 55.1937 49.3132 55.1999 49.2759 55.2092C24.3741 60.0014 4.31006 83.8676 4.31006 108.881Z" fill="#EBECEE"/>
<path id="Vector_5" d="M14.0328 122.336C13.9365 122.336 13.8433 122.291 13.7827 122.21L13.1118 121.304C13.1118 121.304 13.1041 121.292 13.0994 121.285L12.7764 120.85C12.7764 120.85 12.767 120.838 12.7639 120.832L11.7715 119.491C11.7715 119.491 11.7622 119.478 11.7591 119.472L11.4454 119.048C11.4454 119.048 11.4392 119.04 11.4361 119.035L11.1084 118.592C11.1084 118.592 11.1037 118.586 11.1006 118.583L10.4297 117.677C10.4297 117.677 10.4204 117.665 10.4173 117.659L10.1004 117.231C10.1004 117.231 10.0958 117.227 10.0942 117.223L9.76653 116.781C9.76653 116.781 9.76187 116.774 9.75876 116.771L9.43106 116.328C9.43106 116.328 9.4264 116.322 9.4233 116.319L9.08784 115.865C9.08784 115.865 9.07852 115.853 9.07386 115.845L8.75859 115.418C8.75859 115.418 8.75393 115.412 8.75238 115.41L8.42468 114.967C8.42468 114.967 8.42002 114.961 8.41691 114.958L8.08922 114.515C8.08922 114.515 8.083 114.509 8.08145 114.504L4.06057 109.066C4.02174 109.013 4 108.947 4 108.881C4 96.7199 8.69336 84.4255 17.2181 74.2615C25.7305 64.11 37.0958 57.2325 49.2206 54.897C49.2439 54.8908 49.2796 54.8846 49.3153 54.8783L49.3324 54.8752C49.5514 54.8333 49.7688 54.7944 49.9893 54.7556C58.1196 53.3213 66.1132 54.061 73.1036 56.8937C79.3842 59.4374 84.7904 63.6454 88.7367 69.0638C88.8516 69.2161 88.9666 69.3715 89.0815 69.5299C89.1902 69.6745 89.302 69.8252 89.4123 69.9775C89.4216 69.9883 89.4294 70.0008 89.4387 70.0117C89.5459 70.1546 89.6546 70.3007 89.7617 70.4467C89.7648 70.4514 89.7679 70.4561 89.771 70.4607C89.8829 70.6099 89.9885 70.7513 90.091 70.8943C90.0941 70.8989 90.0972 70.9036 90.0987 70.9051C90.2137 71.0574 90.3193 71.2019 90.4249 71.3464L90.4389 71.3635C90.5336 71.4879 90.6221 71.6075 90.7107 71.7303C90.7184 71.7396 90.7262 71.7505 90.7339 71.7613C90.8582 71.9245 90.9778 72.0892 91.0989 72.2539C91.102 72.2586 91.1113 72.2695 91.1144 72.2741C91.2263 72.4217 91.3365 72.5725 91.4453 72.7232C91.4484 72.7263 91.4515 72.7294 91.453 72.7341C91.4856 72.7776 91.5167 72.8211 91.5478 72.8661L91.6052 72.9469C91.6503 73.0044 91.7015 73.0713 91.7528 73.1396C91.863 73.2857 91.9733 73.4349 92.082 73.584C92.2047 73.7456 92.3274 73.915 92.4516 74.0844C92.4548 74.0875 92.4578 74.0922 92.4594 74.0953C92.5588 74.2274 92.6566 74.361 92.7545 74.4962C92.8725 74.6516 92.9952 74.8147 93.1132 74.9794C93.1132 74.9794 93.1148 74.9825 93.1163 74.9841C93.121 74.9903 93.1241 74.995 93.1288 75.0012C93.2359 75.1441 93.3415 75.2871 93.4456 75.4316C93.4472 75.4332 93.458 75.4472 93.4596 75.4503C93.559 75.5854 93.6599 75.7191 93.7578 75.8558C93.8572 75.9864 93.9597 76.1231 94.0606 76.2629C94.0684 76.2723 94.0746 76.2816 94.0824 76.2925C94.2113 76.4649 94.3371 76.6343 94.4613 76.8053C94.4613 76.8068 94.4644 76.8084 94.4644 76.8099C94.5716 76.9513 94.6756 77.0943 94.7812 77.2372C94.7859 77.245 94.7968 77.259 94.8014 77.2668C94.8962 77.3911 94.994 77.5231 95.0919 77.6568L95.1043 77.6739C95.2223 77.8308 95.3419 77.994 95.4599 78.1571C95.463 78.1618 95.4661 78.1649 95.4692 78.1696C95.578 78.3141 95.6867 78.4601 95.7938 78.6062C95.7969 78.6109 95.8 78.6155 95.8031 78.6202C95.9181 78.7725 96.0237 78.9154 96.1293 79.0584C96.1324 79.0631 96.1355 79.0677 96.1386 79.0724C96.2504 79.2215 96.356 79.3645 96.4601 79.5075C96.4632 79.5121 96.4725 79.523 96.4756 79.5277C96.5843 79.6722 96.6915 79.8182 96.7971 79.9628L96.8049 79.9705C96.9012 80.0979 96.9897 80.2176 97.0782 80.3403C97.086 80.3497 97.0938 80.3605 97.1 80.3699C97.2211 80.5299 97.3376 80.69 97.4541 80.85L97.4649 80.864C97.4649 80.864 97.4773 80.8811 97.4805 80.8842C97.5923 81.0334 97.7041 81.1826 97.8128 81.3348C97.8159 81.3379 97.8175 81.341 97.819 81.3442C97.8548 81.3923 97.8889 81.4405 97.9231 81.4887L97.9728 81.5586C98.0722 81.6969 98.0411 81.888 97.906 81.989C97.7709 82.09 97.5783 82.0636 97.4742 81.9284C97.4137 81.8507 97.3547 81.7715 97.2925 81.6938C97.2351 81.6192 97.1792 81.5462 97.1217 81.4731L97.1093 81.4576C97.0534 81.3877 96.9975 81.3177 96.9415 81.2478C96.8825 81.1717 96.8251 81.1017 96.7676 81.0318C96.707 80.9588 96.6511 80.8889 96.5952 80.8221C96.5346 80.749 96.4756 80.6775 96.4151 80.6061C96.356 80.5346 96.2955 80.4631 96.2365 80.3947L96.193 80.3435C96.1464 80.2891 96.1013 80.2362 96.0532 80.1834C95.9911 80.1104 95.9289 80.042 95.8668 79.9721C95.8109 79.9068 95.7566 79.8478 95.7038 79.7872L95.6789 79.7607C95.6183 79.6924 95.5547 79.624 95.4925 79.5556C95.4444 79.5012 95.3993 79.4531 95.3543 79.4034L95.112 79.1439C95.0499 79.077 94.9862 79.0102 94.9226 78.9465C94.8542 78.8735 94.7906 78.8067 94.7253 78.7414L94.7082 78.7227C94.6492 78.6637 94.5918 78.6031 94.5327 78.5456L94.1352 78.1494C94.0746 78.0888 94.0125 78.0313 93.9519 77.9722L93.9333 77.9551C93.8649 77.8883 93.7981 77.8246 93.7314 77.7624C93.6584 77.6925 93.5931 77.6288 93.5232 77.5651C93.4534 77.4998 93.385 77.4361 93.3167 77.3724C93.2452 77.3072 93.1769 77.245 93.107 77.1813C93.0371 77.1176 92.9673 77.0554 92.8974 76.9933C92.8259 76.928 92.7545 76.8659 92.6846 76.8053C92.6132 76.7415 92.5448 76.6809 92.4734 76.6219C92.4019 76.5582 92.3336 76.5007 92.2653 76.4432L92.2528 76.4323C88.0767 72.8972 83.1876 70.4017 77.7208 69.0156C72.0584 67.5798 66.0325 67.4089 59.8125 68.5044C40.3852 71.9323 23.0965 87.3313 16.7926 106.82C16.7336 106.999 16.6761 107.178 16.6217 107.358C16.5643 107.54 16.5084 107.718 16.4571 107.897C16.4012 108.079 16.3484 108.257 16.2972 108.435C16.2444 108.615 16.1947 108.794 16.145 108.972C16.0953 109.151 16.0487 109.328 16.0021 109.505C15.9539 109.684 15.9073 109.86 15.8654 110.037C15.8173 110.219 15.7738 110.394 15.7318 110.571C15.6884 110.751 15.6449 110.927 15.6045 111.104C15.5641 111.281 15.5253 111.457 15.4865 111.633C15.4445 111.813 15.4088 111.987 15.3715 112.162C15.3327 112.341 15.2985 112.515 15.2628 112.691C15.2395 112.807 15.2178 112.925 15.1945 113.042L15.1603 113.219C15.1293 113.392 15.0966 113.566 15.0671 113.741C15.0361 113.918 15.0066 114.091 14.9786 114.266C14.9491 114.444 14.9211 114.618 14.8947 114.792C14.8683 114.966 14.8435 115.14 14.8186 115.315C14.7938 115.491 14.7689 115.663 14.7472 115.837C14.7224 116.011 14.7022 116.182 14.682 116.356C14.6587 116.534 14.64 116.704 14.6214 116.878C14.6012 117.051 14.5841 117.223 14.5686 117.394C14.55 117.571 14.5344 117.744 14.5189 117.916C14.5034 118.087 14.4894 118.258 14.477 118.431C14.4645 118.602 14.4521 118.773 14.4428 118.944C14.4304 119.119 14.4195 119.289 14.4117 119.459C14.4009 119.633 14.3915 119.803 14.3869 119.971C14.3776 120.146 14.3714 120.316 14.3667 120.485C14.3589 120.659 14.3558 120.828 14.3527 120.998C14.3465 121.172 14.345 121.34 14.345 121.506C14.3419 121.68 14.3403 121.849 14.3403 122.019C14.3403 122.152 14.2549 122.272 14.1275 122.314C14.0949 122.325 14.0623 122.33 14.0297 122.33L14.0328 122.336ZM13.6243 120.951L13.7315 121.096C13.7315 121.06 13.7331 121.024 13.7346 120.987C13.7377 120.819 13.7408 120.644 13.7486 120.469C13.7532 120.302 13.7595 120.126 13.7688 119.951C13.775 119.781 13.7827 119.606 13.7952 119.428C13.8029 119.259 13.8138 119.083 13.8262 118.908C13.8356 118.738 13.848 118.564 13.862 118.39C13.8744 118.215 13.8884 118.041 13.9054 117.865C13.921 117.69 13.9365 117.514 13.9551 117.338C13.9707 117.166 13.9893 116.99 14.0095 116.815C14.0281 116.639 14.0483 116.462 14.0716 116.286C14.0903 116.114 14.112 115.937 14.1368 115.761C14.1586 115.587 14.1834 115.412 14.2098 115.236C14.2331 115.06 14.2595 114.883 14.2875 114.706C14.3139 114.529 14.3434 114.352 14.3729 114.175C14.4009 113.999 14.4304 113.822 14.463 113.645C14.4925 113.469 14.5251 113.291 14.5577 113.113L14.5919 112.935C14.6136 112.815 14.6369 112.697 14.6602 112.577C14.6959 112.399 14.7317 112.22 14.7705 112.041C14.8078 111.863 14.845 111.684 14.887 111.504C14.9242 111.33 14.9646 111.151 15.005 110.971C15.0469 110.79 15.0889 110.61 15.1339 110.431C15.1758 110.251 15.2224 110.071 15.269 109.891C15.3125 109.713 15.3591 109.533 15.4088 109.351C15.4554 109.173 15.5035 108.992 15.5532 108.812C15.6029 108.63 15.6542 108.45 15.707 108.268C15.7582 108.088 15.8126 107.906 15.8685 107.725C15.9198 107.546 15.9772 107.362 16.0347 107.179C16.089 106.997 16.1481 106.814 16.2086 106.632C22.5809 86.9304 40.0637 71.3635 59.7115 67.8968C66.0185 66.7842 72.1313 66.9598 77.8808 68.4174C83.4392 69.8267 88.4121 72.3642 92.6613 75.9615C92.6613 75.9615 92.6737 75.9708 92.6737 75.9724C92.7452 76.033 92.8166 76.0936 92.8865 76.1542C92.9548 76.2117 93.0278 76.2754 93.1008 76.3391C93.1723 76.3997 93.2452 76.4649 93.3182 76.5318C93.3866 76.5924 93.4596 76.6561 93.531 76.7213C93.6025 76.785 93.6723 76.8503 93.7422 76.914C93.7795 76.9467 93.8168 76.9808 93.854 77.0166C93.7686 76.9 93.6832 76.7851 93.5962 76.6701L93.5807 76.6483C93.5807 76.6483 93.5729 76.6374 93.5683 76.6328C93.4673 76.4945 93.3679 76.3593 93.2639 76.2241C93.1614 76.0827 93.0635 75.9506 92.9657 75.8185C92.9626 75.8154 92.9486 75.7983 92.9471 75.7937C92.843 75.6507 92.739 75.5078 92.6318 75.3664C92.6287 75.3632 92.6271 75.3601 92.6256 75.357C92.6209 75.3508 92.6147 75.343 92.6116 75.3368C92.4967 75.1783 92.3786 75.0198 92.2606 74.8644C92.1597 74.723 92.0618 74.5925 91.9624 74.4604C91.9593 74.4558 91.9562 74.4511 91.9531 74.448C91.9531 74.448 91.9531 74.448 91.9531 74.4465C91.832 74.2802 91.7108 74.117 91.5881 73.9539C91.4779 73.8031 91.3707 73.6571 91.262 73.5126C91.2123 73.4457 91.1641 73.3836 91.1144 73.3199L91.0477 73.2266C91.0197 73.1878 90.9933 73.1505 90.9654 73.1117C90.9622 73.107 90.9576 73.1023 90.9545 73.0977C90.8473 72.9485 90.7371 72.7993 90.6268 72.6533C90.6206 72.6455 90.6159 72.6393 90.6097 72.6315C90.4839 72.459 90.3659 72.2974 90.2463 72.1389C90.2432 72.1358 90.2323 72.1203 90.2292 72.1156C90.223 72.1094 90.223 72.1078 90.2168 72.1001C90.1283 71.9789 90.0413 71.8592 89.9512 71.7411L89.9403 71.7287C89.9403 71.7287 89.9341 71.7194 89.931 71.7163C89.827 71.5733 89.7229 71.4304 89.6157 71.2889C89.6157 71.2889 89.6095 71.2812 89.6033 71.2719C89.4899 71.1165 89.3859 70.9751 89.2803 70.8352C89.2741 70.8274 89.2663 70.8166 89.257 70.8026C89.1545 70.6612 89.0489 70.5213 88.9448 70.3815L89.1793 70.1748L88.9324 70.3644C88.9324 70.3644 88.9231 70.3535 88.9184 70.3473C88.8097 70.1966 88.6979 70.0443 88.5861 69.8967C88.4696 69.7366 88.3562 69.5828 88.2428 69.4305C84.3617 64.1022 79.0487 59.9673 72.8753 57.4671C65.9936 54.6779 58.1181 53.9507 50.1011 55.3647C49.8837 55.4036 49.6694 55.4424 49.4535 55.4828L49.438 55.4859C49.41 55.4921 49.3821 55.4968 49.3541 55.503C37.3583 57.8152 26.1218 64.6181 17.6996 74.6593C9.28818 84.6835 4.64763 96.7976 4.62123 108.778L8.57533 114.125C8.57533 114.125 8.57998 114.131 8.58309 114.136L8.91079 114.579C8.91079 114.579 8.91545 114.585 8.91855 114.588L9.2478 115.032C9.2478 115.032 9.25246 115.037 9.25401 115.04L9.58792 115.492C9.58792 115.492 9.59724 115.505 9.6019 115.511L9.91717 115.937C9.91717 115.937 9.92183 115.943 9.92494 115.946L10.2526 116.389C10.2526 116.389 10.2573 116.395 10.2604 116.398L10.5896 116.843C10.5896 116.843 10.5943 116.849 10.5959 116.85L10.9298 117.303C10.9298 117.303 10.9375 117.315 10.9422 117.321L11.5945 118.202C11.5945 118.202 11.5991 118.209 11.6022 118.212L11.9284 118.653C11.9284 118.653 11.9346 118.661 11.9377 118.665L12.2716 119.118C12.2716 119.118 12.2794 119.13 12.284 119.136L13.2764 120.477C13.2764 120.477 13.2842 120.49 13.2889 120.496L13.6119 120.931C13.6119 120.931 13.6212 120.943 13.6243 120.95V120.951ZM96.1324 79.0646C96.1324 79.0646 96.1339 79.0677 96.1355 79.0693C96.1355 79.0693 96.1339 79.0662 96.1324 79.0646ZM95.8063 78.6264C95.8063 78.6264 95.8063 78.628 95.8078 78.6295C95.8078 78.6295 95.8078 78.628 95.8063 78.6264ZM95.7954 78.6093C95.7954 78.6093 95.8 78.6155 95.8016 78.6171C95.8 78.614 95.7969 78.6109 95.7954 78.6093ZM89.7633 70.453C89.7633 70.453 89.7664 70.4561 89.7679 70.4576C89.7679 70.4561 89.7648 70.4545 89.7633 70.453Z" fill="black"/>
</g>
<path id="Vector_6" d="M91.5018 73.6348C91.4071 73.6348 91.3139 73.5913 91.2518 73.509C91.2036 73.4438 91.1555 73.3817 91.1058 73.318L91.039 73.2248C91.0095 73.1829 90.98 73.1409 90.9489 73.1006C90.848 72.9623 90.8775 72.7698 91.0142 72.6673C91.1508 72.5648 91.345 72.5927 91.4475 72.7294C91.5515 72.8661 91.6525 73.0027 91.7534 73.1425C91.8528 73.2807 91.8233 73.4733 91.6851 73.5743C91.6292 73.6146 91.5655 73.6348 91.5018 73.6348Z" fill="black"/>
<g id="Group_4">
<path id="Vector_7" d="M14.031 122.025L105.489 105.889C105.489 96.5364 102.685 88.3318 97.8685 81.9345C97.8188 81.8677 97.7691 81.8024 97.7178 81.7371C97.6573 81.6579 97.5967 81.5786 97.5346 81.4994C97.4787 81.4263 97.4212 81.3518 97.3637 81.2787C97.3032 81.2026 97.2426 81.1264 97.1805 81.0487C97.123 80.9757 97.064 80.9027 97.005 80.8312C96.9475 80.7597 96.8885 80.6898 96.831 80.6199C96.772 80.5484 96.7115 80.4754 96.6493 80.4039C96.5903 80.3324 96.5297 80.2609 96.4692 80.191C96.4071 80.1195 96.3465 80.048 96.2844 79.9766C96.2222 79.9051 96.1601 79.8336 96.0965 79.7621C96.0359 79.6907 95.9722 79.6207 95.9101 79.5508C95.848 79.4809 95.7843 79.4125 95.7206 79.3426C95.6585 79.2711 95.5933 79.2027 95.5296 79.1328C95.4659 79.0644 95.4022 78.9976 95.3386 78.9292C95.2749 78.8609 95.2096 78.7941 95.1444 78.7272C95.0792 78.6573 95.014 78.5905 94.9472 78.5221C94.882 78.4553 94.8167 78.3885 94.7515 78.3232C94.6847 78.2564 94.6179 78.188 94.5511 78.1212C94.4844 78.056 94.4176 77.9891 94.3524 77.9239C94.284 77.8571 94.2172 77.7918 94.1489 77.7265C94.0806 77.6597 94.0122 77.5929 93.9424 77.5292C93.8725 77.4624 93.8057 77.3971 93.7342 77.3318C93.6643 77.2666 93.596 77.2013 93.5246 77.1376C93.4547 77.0739 93.3863 77.0102 93.3149 76.9465C93.2435 76.8828 93.1736 76.8191 93.1021 76.7569C93.0307 76.6932 92.9593 76.6295 92.8878 76.5673C92.8164 76.5052 92.7465 76.443 92.6735 76.3824C92.602 76.3187 92.5275 76.2566 92.4545 76.1944C84.1534 69.1662 72.5722 65.9387 59.7594 68.1981C39.7047 71.7363 22.6629 87.6621 16.4988 106.725C16.4398 106.905 16.3808 107.086 16.3264 107.268C16.2705 107.449 16.2131 107.63 16.1603 107.811C16.1043 107.992 16.0515 108.17 16.0003 108.351C15.9475 108.531 15.8962 108.71 15.8481 108.89C15.7999 109.07 15.7502 109.247 15.7037 109.427C15.6555 109.606 15.6089 109.785 15.5654 109.963C15.5188 110.142 15.4738 110.321 15.4303 110.5C15.3868 110.678 15.3433 110.857 15.303 111.034C15.2626 111.213 15.2222 111.39 15.1834 111.567C15.143 111.744 15.1057 111.921 15.0685 112.099C15.0296 112.276 14.9955 112.453 14.9597 112.63C14.924 112.807 14.8914 112.984 14.8572 113.161C14.8246 113.337 14.792 113.514 14.7625 113.691C14.7314 113.867 14.7019 114.042 14.674 114.22C14.6445 114.395 14.6165 114.571 14.5886 114.746C14.5622 114.922 14.5358 115.098 14.5125 115.275C14.4876 115.449 14.4628 115.623 14.441 115.798C14.4177 115.972 14.396 116.146 14.3758 116.322C14.3525 116.496 14.3339 116.67 14.3152 116.846C14.295 117.018 14.2764 117.192 14.2609 117.366C14.2422 117.54 14.2267 117.714 14.2112 117.888C14.1956 118.061 14.1817 118.233 14.1692 118.407C14.1568 118.58 14.1444 118.752 14.1335 118.925C14.1211 119.097 14.1102 119.27 14.1024 119.442C14.0916 119.615 14.0823 119.787 14.0776 119.958C14.0698 120.131 14.0621 120.303 14.0574 120.476C14.0496 120.646 14.0465 120.819 14.0434 120.991C14.0372 121.162 14.0357 121.333 14.0357 121.506C14.0326 121.675 14.031 121.848 14.031 122.019V122.025Z" fill="white"/>
<path id="Vector_8" d="M14.0311 122.336C13.9581 122.336 13.8882 122.311 13.8307 122.263C13.7608 122.204 13.7205 122.117 13.7205 122.025C13.7205 121.853 13.7205 121.679 13.7251 121.508C13.7251 121.338 13.7282 121.164 13.7344 120.989C13.7375 120.821 13.7406 120.645 13.7484 120.471C13.7531 120.303 13.7593 120.128 13.7686 119.952C13.7748 119.783 13.7826 119.607 13.795 119.43C13.8028 119.261 13.8136 119.085 13.8261 118.909C13.8354 118.74 13.8478 118.566 13.8618 118.392C13.8742 118.216 13.8882 118.042 13.9053 117.867C13.9208 117.691 13.9363 117.516 13.955 117.34C13.9705 117.168 13.9891 116.992 14.0093 116.816C14.028 116.641 14.0482 116.464 14.0715 116.288C14.0901 116.116 14.1118 115.938 14.1367 115.763C14.1584 115.589 14.1833 115.413 14.2097 115.238C14.233 115.062 14.2594 114.885 14.2873 114.708C14.3137 114.531 14.3432 114.353 14.3727 114.176C14.4007 114.001 14.4302 113.824 14.4628 113.646C14.4923 113.471 14.5249 113.292 14.5576 113.115L14.5917 112.936C14.6135 112.817 14.6368 112.699 14.6601 112.579C14.6958 112.4 14.7315 112.222 14.7703 112.043C14.8076 111.864 14.8449 111.685 14.8868 111.505C14.9241 111.331 14.9645 111.152 15.0048 110.972C15.0468 110.792 15.0887 110.612 15.1337 110.433C15.1757 110.253 15.2223 110.073 15.2689 109.892C15.3123 109.715 15.3589 109.535 15.4086 109.353C15.4552 109.174 15.5034 108.994 15.5531 108.814C15.6028 108.632 15.654 108.452 15.7068 108.27C15.7581 108.09 15.8124 107.908 15.8683 107.726C15.9196 107.547 15.9771 107.364 16.0345 107.181C16.0889 106.999 16.1479 106.816 16.2085 106.634C22.5807 86.932 40.0635 71.3652 59.7113 67.8984C66.0183 66.7859 72.1312 66.9615 77.8806 68.419C83.439 69.8284 88.4119 72.3659 92.6611 75.9631C92.6611 75.9631 92.6736 75.9724 92.6736 75.974C92.745 76.0346 92.8164 76.0952 92.8863 76.1558C92.9547 76.2133 93.0276 76.277 93.1006 76.3407C93.1721 76.4013 93.2451 76.4666 93.3181 76.5334C93.3864 76.594 93.4594 76.6577 93.5309 76.723C93.6023 76.7867 93.6722 76.8519 93.7421 76.9157C93.812 76.9794 93.8834 77.0446 93.9533 77.1114C94.0232 77.1752 94.0931 77.242 94.1629 77.3103C94.2297 77.3725 94.3012 77.4409 94.3711 77.5092L94.3866 77.5248C94.4487 77.5854 94.5124 77.646 94.5745 77.7066L94.9768 78.1075C95.0373 78.1681 95.0963 78.2287 95.1569 78.2908L95.174 78.3095C95.2423 78.3794 95.3091 78.4493 95.3759 78.5193C95.438 78.583 95.5048 78.6529 95.57 78.7213L95.8154 78.9839C95.8636 79.0352 95.9117 79.088 95.9583 79.1408C96.0189 79.2061 96.0825 79.276 96.1462 79.3459L96.1711 79.3739C96.227 79.4361 96.2829 79.4998 96.3372 79.5619C96.3978 79.6287 96.4615 79.7018 96.5252 79.7748C96.5718 79.8276 96.6183 79.882 96.6665 79.9364L96.7115 79.9877C96.7721 80.0592 96.8342 80.1322 96.8948 80.2037C96.9554 80.2752 97.0175 80.3497 97.0781 80.4228C97.134 80.4896 97.1914 80.5595 97.2489 80.6294C97.3126 80.7071 97.3716 80.7817 97.4321 80.8563C97.4881 80.9231 97.544 80.9962 97.6014 81.0676L97.6154 81.0847C97.676 81.1609 97.7334 81.2355 97.7894 81.3101C97.8499 81.3877 97.912 81.4685 97.9742 81.5478C98.0254 81.6131 98.0767 81.6799 98.1264 81.7482C103.152 88.4237 105.809 96.7712 105.809 105.888C105.809 106.039 105.701 106.168 105.553 106.194L14.0947 122.33C14.0761 122.333 14.059 122.334 14.0404 122.334L14.0311 122.336ZM67.764 67.799C65.1595 67.799 62.5053 68.0367 59.8138 68.5107C40.3866 71.9386 23.0979 87.3376 16.794 106.826C16.735 107.005 16.6775 107.184 16.6231 107.364C16.5657 107.546 16.5098 107.725 16.4585 107.903C16.4026 108.085 16.3498 108.264 16.2985 108.441C16.2457 108.621 16.196 108.8 16.1463 108.979C16.0966 109.157 16.0501 109.334 16.0035 109.512C15.9553 109.69 15.9087 109.866 15.8668 110.043C15.8186 110.225 15.7752 110.4 15.7332 110.578C15.6897 110.758 15.6463 110.933 15.6059 111.111C15.5655 111.288 15.5267 111.463 15.4878 111.639C15.4459 111.819 15.4102 111.993 15.3729 112.169C15.3341 112.347 15.2999 112.521 15.2642 112.697C15.2409 112.814 15.2192 112.932 15.1959 113.048L15.1617 113.225C15.1306 113.398 15.098 113.572 15.0685 113.747C15.0375 113.925 15.0079 114.097 14.98 114.273C14.9505 114.45 14.9225 114.624 14.8961 114.798C14.8697 114.972 14.8449 115.146 14.82 115.322C14.7952 115.497 14.7703 115.67 14.7486 115.844C14.7237 116.018 14.7035 116.189 14.6834 116.363C14.6601 116.54 14.6414 116.711 14.6228 116.885C14.6026 117.057 14.5855 117.23 14.57 117.401C14.5513 117.578 14.5358 117.75 14.5203 117.923C14.5048 118.094 14.4908 118.265 14.4784 118.437C14.4659 118.608 14.4535 118.779 14.4426 118.95C14.4302 119.125 14.4193 119.295 14.4116 119.466C14.4007 119.64 14.3914 119.809 14.3867 119.977C14.3774 120.153 14.3712 120.322 14.3665 120.491C14.3588 120.665 14.3557 120.835 14.3526 121.004C14.3463 121.178 14.3448 121.346 14.3448 121.512C14.3448 121.56 14.3448 121.607 14.3432 121.654L105.177 105.628C105.128 96.7495 102.517 88.6258 97.6185 82.1212C97.5688 82.0559 97.5222 81.9922 97.4725 81.9285C97.4104 81.8477 97.3498 81.7684 97.2893 81.6908C97.2318 81.6162 97.1759 81.5431 97.1184 81.4701L97.106 81.4546C97.0501 81.3846 96.9942 81.3147 96.9383 81.2448C96.8793 81.1686 96.8218 81.0987 96.7643 81.0288C96.7038 80.9558 96.6479 80.8858 96.5919 80.819C96.5314 80.746 96.4724 80.6745 96.4118 80.603C96.3528 80.5316 96.2922 80.4601 96.2332 80.3917L96.1897 80.3404C96.1431 80.286 96.0981 80.2332 96.0499 80.1804C95.9878 80.1073 95.9257 80.039 95.8636 79.969C95.8076 79.9038 95.7533 79.8432 95.7005 79.7841L95.6756 79.7577C95.6151 79.6893 95.5514 79.621 95.4893 79.5526C95.4411 79.4982 95.3961 79.45 95.351 79.4003L95.1088 79.1408C95.0466 79.074 94.983 79.0072 94.9193 78.9435C94.851 78.8704 94.7873 78.8036 94.722 78.7384L94.705 78.7197C94.646 78.6607 94.5885 78.6001 94.5295 78.5426L94.1319 78.1463C94.0713 78.0857 94.0092 78.0282 93.9486 77.9692L93.9315 77.9521C93.8632 77.8853 93.7964 77.8216 93.7296 77.7594C93.6567 77.6895 93.5914 77.6258 93.5215 77.5621C93.4516 77.4968 93.3833 77.4331 93.315 77.3694C93.2435 77.3041 93.1752 77.242 93.1053 77.1783C93.0354 77.1146 92.9655 77.0524 92.8956 76.9902C92.8242 76.925 92.7528 76.8628 92.6829 76.8022C92.6114 76.7385 92.5431 76.6779 92.4717 76.6189C92.4002 76.5552 92.3319 76.4977 92.2635 76.4402L92.2511 76.4293C88.0749 72.8942 83.1859 70.3987 77.7191 69.0126C74.5058 68.1983 71.176 67.7897 67.7609 67.7897L67.764 67.799Z" fill="black"/>
</g>
</g>
<g id="Group_5">
<path id="Vector_9" d="M38.4189 50.9285C38.4546 51.0264 38.4918 51.1227 38.5307 51.219C38.5679 51.3185 38.6068 51.4133 38.6487 51.5081C38.6875 51.6028 38.7279 51.6992 38.7714 51.7924C38.8118 51.8857 38.8537 51.9789 38.8972 52.0706C38.9391 52.1622 38.9826 52.2539 39.0292 52.344C39.0696 52.4357 39.1162 52.5243 39.1628 52.616C39.2078 52.7061 39.2528 52.7947 39.301 52.8832C39.3476 52.9703 39.3942 53.0573 39.4439 53.1443C39.492 53.2298 39.5402 53.3152 39.5914 53.4007C39.638 53.4862 39.6893 53.5701 39.7405 53.654C39.7902 53.7379 39.8415 53.8218 39.8974 53.9042C39.9455 53.9865 39.9983 54.0689 40.0542 54.1497C40.1055 54.2305 40.1598 54.3128 40.2157 54.3905C40.2701 54.4713 40.3245 54.5521 40.3819 54.6298C40.4378 54.7091 40.4953 54.7868 40.5512 54.8629C40.6071 54.9406 40.6646 55.0167 40.722 55.0929C40.7624 55.1457 40.8044 55.1985 40.8463 55.2514L40.8975 55.3166C40.9566 55.3928 41.0187 55.4674 41.0808 55.5404C41.1398 55.615 41.2019 55.688 41.2641 55.7595C41.3246 55.831 41.3868 55.9025 41.4504 55.9724C41.5094 56.0423 41.5731 56.1122 41.6368 56.1806C41.6368 56.1806 41.6399 56.1822 41.6399 56.1837C41.7067 56.2552 41.7719 56.3251 41.8387 56.3935C45.4868 60.1943 51.0375 62.0201 57.461 60.9277C60.6665 60.3823 63.7711 59.1625 66.6256 57.4361C74.6052 52.6067 80.6203 43.8085 81.3906 34.6422C81.9031 28.5323 79.9913 23.3951 76.4705 19.9952C76.4052 19.9315 76.3385 19.8678 76.2732 19.8072C76.2732 19.8072 76.2732 19.8041 76.2701 19.8041C76.1987 19.7404 76.1303 19.6751 76.0589 19.6145C75.989 19.5477 75.916 19.4855 75.8461 19.4249C75.7731 19.3612 75.7001 19.3006 75.6287 19.24C75.5557 19.181 75.4827 19.1204 75.4113 19.0644C75.3352 19.0038 75.2606 18.9448 75.1861 18.8873C75.1115 18.8282 75.0339 18.7707 74.9578 18.7148C74.8832 18.6589 74.8071 18.6029 74.731 18.5501C74.6534 18.4941 74.5742 18.4382 74.495 18.3854C74.4158 18.331 74.335 18.2782 74.2558 18.2253C74.1766 18.1725 74.0943 18.1181 74.0135 18.0684C73.9328 18.0156 73.8504 17.9658 73.7697 17.9161C73.6858 17.8664 73.602 17.8151 73.5181 17.7685C73.4327 17.7157 73.3488 17.669 73.2634 17.6224C73.1764 17.5727 73.091 17.5261 73.004 17.481C72.9186 17.4344 72.8316 17.3878 72.7431 17.3458C72.6561 17.3008 72.5676 17.2557 72.4791 17.2137C72.389 17.1687 72.3005 17.1267 72.2073 17.0863C72.1157 17.0428 72.024 17.0009 71.9324 16.962C71.8392 16.9201 71.7476 16.8812 71.6544 16.8439C71.5581 16.802 71.4649 16.7647 71.3702 16.7289C71.2755 16.6901 71.1792 16.6528 71.0829 16.6202C68.2066 15.5542 64.8706 15.2465 61.2567 15.8603C49.0853 17.9332 38.3723 29.7008 37.3271 42.1459C37.0553 45.3795 37.4637 48.3443 38.4328 50.9191L38.4189 50.9285Z" fill="white"/>
<path id="Vector_10" d="M53.8812 61.5524C49.0449 61.5524 44.6995 59.8323 41.6104 56.6157C41.5467 56.5504 41.4846 56.4852 41.4225 56.4168L41.4116 56.4059C41.4116 56.4059 41.407 56.4013 41.4054 56.3982C41.3371 56.3251 41.2703 56.2505 41.2082 56.1775C41.1492 56.1122 41.0839 56.0392 41.0218 55.9646C40.9581 55.8916 40.8929 55.8154 40.8308 55.7378C40.7718 55.6694 40.7065 55.5901 40.6444 55.5109L40.5947 55.4472C40.5528 55.3943 40.5109 55.34 40.4689 55.2856C40.4084 55.2063 40.3493 55.1271 40.2919 55.0478C40.2313 54.9655 40.1754 54.8893 40.1195 54.8116C40.062 54.7339 40.0061 54.65 39.9502 54.5661C39.8958 54.4884 39.8384 54.403 39.7856 54.3175C39.7297 54.2351 39.6753 54.1512 39.6287 54.0704C39.5713 53.985 39.52 53.8995 39.4687 53.814L39.4501 53.7814C39.4035 53.7037 39.3585 53.6276 39.315 53.5499C39.2777 53.4877 39.2358 53.4147 39.1954 53.3417L39.1706 53.2966C39.1302 53.2251 39.0898 53.1521 39.051 53.0791L39.0246 53.0309C38.978 52.9439 38.9329 52.8553 38.8879 52.7652L38.8708 52.7325C38.8273 52.6471 38.7854 52.5632 38.7466 52.4777C38.7 52.386 38.6549 52.2912 38.613 52.1996C38.5695 52.1094 38.526 52.0115 38.4857 51.9152C38.4437 51.8251 38.4018 51.7241 38.3614 51.6246C38.321 51.5329 38.2791 51.4319 38.2403 51.3263C38.203 51.2346 38.1657 51.1336 38.1285 51.0341C37.1128 48.335 36.7354 45.3376 37.004 42.1272C38.0586 29.5703 48.9083 17.6535 61.1899 15.562C64.7806 14.9513 68.1399 15.2124 71.1761 16.3358C71.2693 16.3669 71.3733 16.4073 71.4743 16.4477C71.5644 16.4819 71.6638 16.5207 71.7647 16.5642C71.8532 16.6 71.9495 16.6404 72.0458 16.6839C72.1343 16.7212 72.2306 16.7647 72.3269 16.8097C72.4154 16.8486 72.5102 16.8921 72.6049 16.9387C72.6903 16.9791 72.7835 17.0257 72.8736 17.0724C72.9575 17.1112 73.0507 17.1609 73.1407 17.2107C73.2246 17.2542 73.3162 17.3023 73.4063 17.3552C73.4886 17.4002 73.5756 17.4468 73.6626 17.5012C73.7278 17.537 73.793 17.5758 73.8582 17.6147L73.9157 17.6488C74.0027 17.7017 74.0881 17.753 74.172 17.8073C74.2294 17.8415 74.2947 17.885 74.3614 17.9285L74.4142 17.9627C74.4966 18.0171 74.5789 18.0715 74.6596 18.1259C74.7404 18.1803 74.8211 18.2378 74.9019 18.2953C74.9796 18.3497 75.0572 18.4071 75.1349 18.4646C75.211 18.519 75.2917 18.5796 75.3694 18.6418C75.4439 18.6993 75.5185 18.7583 75.5961 18.8205C75.6443 18.8578 75.6924 18.8982 75.7421 18.9386L75.8959 19.066C75.9456 19.1079 75.9937 19.1483 76.0434 19.1919L76.076 19.2198C76.1381 19.2742 76.2003 19.3286 76.2608 19.3845C76.3074 19.4249 76.3525 19.4653 76.3975 19.5057L76.4658 19.5679C76.4752 19.5757 76.4829 19.5834 76.4907 19.5912C76.5497 19.6456 76.6165 19.7109 76.6817 19.7746C80.4184 23.3827 82.1982 28.6737 81.695 34.6701C80.9418 43.6361 75.0883 52.6782 66.7809 57.7034C63.8006 59.5059 60.6805 60.6947 57.5076 61.2354C56.276 61.4452 55.0631 61.5477 53.8796 61.5477L53.8812 61.5524ZM41.862 55.9786L41.876 55.9941C41.9366 56.0579 41.9956 56.1216 42.0562 56.1853C45.7571 60.0405 51.3512 61.6596 57.4051 60.6294C60.5003 60.1026 63.5459 58.9419 66.461 57.1782C74.6037 52.2508 80.3407 43.3983 81.0769 34.6235C81.5645 28.8166 79.85 23.7028 76.25 20.2252C76.1847 20.163 76.1211 20.1009 76.0558 20.0403C76.0558 20.0403 76.0543 20.0387 76.0527 20.0372L75.9782 19.9688C75.9362 19.93 75.8943 19.8927 75.8524 19.8554C75.8477 19.8523 75.8431 19.8476 75.84 19.8429C75.784 19.7901 75.7281 19.7404 75.6707 19.6907L75.6365 19.6611C75.5899 19.6207 75.5433 19.5819 75.4967 19.5415L75.3507 19.4203C75.3041 19.383 75.2576 19.3441 75.2125 19.3084C75.1364 19.2478 75.0634 19.1903 74.9889 19.1313C74.9159 19.0738 74.8429 19.0194 74.7683 18.9665C74.6922 18.9091 74.6192 18.8562 74.5447 18.8034C74.467 18.7474 74.3909 18.6931 74.3133 18.6418C74.2341 18.5874 74.1549 18.5361 74.0772 18.4848L74.0229 18.4491C73.9639 18.4103 73.9048 18.3714 73.8443 18.3341C73.7573 18.2766 73.6781 18.23 73.6004 18.1818L73.543 18.1476C73.4824 18.1119 73.4218 18.0746 73.3597 18.042C73.355 18.0389 73.3504 18.0358 73.3457 18.0327C73.265 17.9829 73.1858 17.9394 73.105 17.8959C73.0165 17.8446 72.9342 17.8011 72.8503 17.7576C72.7649 17.711 72.6826 17.6675 72.5987 17.6286C72.5055 17.5805 72.4186 17.537 72.3347 17.4966C72.2446 17.4515 72.1592 17.4127 72.0722 17.3738C71.9759 17.3287 71.8874 17.2883 71.7989 17.2511C71.7041 17.2075 71.6156 17.1718 71.5271 17.1361C71.4277 17.0926 71.3376 17.0584 71.2491 17.0242C71.1528 16.9853 71.0612 16.9496 70.9711 16.9201C68.0312 15.8308 64.779 15.5806 61.2971 16.1727C49.2763 18.2191 38.6581 29.8857 37.6253 42.177C37.3628 45.2956 37.7278 48.2014 38.7124 50.815C38.7124 50.815 38.7124 50.8166 38.7124 50.8181C38.7466 50.9129 38.7823 51.0062 38.8196 51.0994C38.8568 51.1988 38.8941 51.2905 38.9329 51.3791C38.9733 51.477 39.0106 51.5702 39.0525 51.6588C39.0945 51.7551 39.1348 51.8468 39.1768 51.9354C39.2187 52.0255 39.2591 52.1141 39.3041 52.1996C39.3072 52.2058 39.3103 52.2104 39.3119 52.2166C39.3461 52.2943 39.3849 52.3705 39.4253 52.4482L39.4377 52.473C39.4858 52.5678 39.5278 52.6517 39.5713 52.7341L39.5977 52.7854C39.6334 52.8537 39.6706 52.9221 39.7095 52.9905L39.7359 53.0371C39.7747 53.1055 39.812 53.1738 39.8524 53.2407C39.8974 53.3215 39.9378 53.3898 39.9797 53.4598L39.9999 53.4939C40.048 53.5747 40.0962 53.654 40.1474 53.7317C40.1505 53.7363 40.1537 53.7426 40.1568 53.7472C40.2018 53.8234 40.2499 53.8995 40.3012 53.9756C40.3555 54.0596 40.4068 54.1373 40.4581 54.2118C40.514 54.2957 40.5668 54.3719 40.6211 54.448C40.6755 54.5257 40.7298 54.5988 40.7826 54.6702C40.8448 54.7572 40.9007 54.8303 40.9581 54.9064C40.997 54.9577 41.0373 55.0074 41.0777 55.0587L41.1305 55.1255C41.188 55.1986 41.2455 55.2685 41.306 55.34C41.3697 55.4192 41.4272 55.4876 41.4877 55.5575C41.5483 55.629 41.6073 55.6974 41.671 55.7657C41.7331 55.8388 41.7921 55.904 41.8527 55.9677C41.8543 55.9693 41.8574 55.9724 41.8589 55.9739L41.862 55.9786Z" fill="black"/>
</g>
</g>
<g id="block">
<g id="Group_6">
<path id="Vector_11" d="M67.3326 97.3399C67.6203 99.3142 68.1592 102.766 70.4147 106.465C72.0114 109.081 73.8377 110.791 74.6345 111.49C75.5709 112.311 76.4358 112.928 77.1028 113.362C80.2914 114.889 83.4799 116.416 86.6718 117.943C82.2607 115.395 80.0452 111.794 79.1703 110.334C76.9099 106.558 76.3759 103.127 76.0882 101.141C75.19 94.9464 76.6437 90.1128 77.314 87.9721C78.139 85.3358 79.7707 81.3322 83.0574 77.3253C84.2933 75.8184 86.8015 72.8194 91.1112 70.3561C93.4913 68.9955 97.6662 66.6818 103.403 66.8532C106.181 66.9363 108.504 67.5784 110.191 68.2271C107.508 66.8947 104.825 65.5608 102.144 64.2285C100.762 63.7261 98.8555 63.1822 96.5402 62.951C93.5862 62.6533 91.2825 62.9926 90.3244 63.1606C86.7633 63.786 84.2816 65.1316 82.7763 65.96C81.9297 66.429 78.6863 68.2803 75.4212 71.8447C74.5929 72.7496 72.7366 74.8869 71.0101 78.0605C68.7946 82.1339 67.9014 85.8764 67.5072 88.3048C67.2244 90.0479 66.7338 93.2332 67.3326 97.3399Z" fill="#FF535E"/>
<path id="Vector_12" d="M86.6702 118.276C86.7899 118.276 86.9047 118.211 86.9646 118.098C87.0477 117.94 86.9912 117.743 86.8365 117.655C82.4071 115.095 80.1833 111.383 79.4531 110.162C77.1793 106.366 76.682 102.935 76.4142 101.092C75.5077 94.8498 77.0479 89.9247 77.6284 88.0701C78.8377 84.2013 80.7505 80.6568 83.3119 77.5364C84.3931 76.2174 86.923 73.1303 91.2742 70.6453C93.4947 69.3762 97.6297 67.0144 103.391 67.1857C105.667 67.2539 107.914 67.7096 110.07 68.5363C110.236 68.5995 110.422 68.5213 110.494 68.36C110.565 68.197 110.495 68.0073 110.337 67.9275C108.553 67.041 106.768 66.1544 104.983 65.2679L102.29 63.9306C102.279 63.9256 102.267 63.9206 102.255 63.9156C100.424 63.2503 98.5112 62.8145 96.5718 62.6199C94.4478 62.4053 92.2672 62.4802 90.2646 62.8328C86.5887 63.4782 84.0022 64.9036 82.6134 65.6687C81.1064 66.5037 78.1357 68.3866 75.1734 71.62C73.4951 73.453 71.9532 75.6253 70.7157 77.9023C68.9576 81.1325 67.7667 84.6154 67.1762 88.2514C66.9184 89.8415 66.3812 93.1482 66.9999 97.388C67.276 99.2825 67.7917 102.809 70.1286 106.638C71.584 109.023 73.2606 110.728 74.4133 111.739C75.1983 112.429 76.0416 113.068 76.9199 113.642C76.9315 113.65 76.9448 113.657 76.9581 113.663C79.0822 114.681 81.2062 115.698 83.3302 116.714L86.5271 118.244C86.5737 118.266 86.6219 118.277 86.6702 118.277V118.276ZM102.814 66.5104C97.1656 66.5104 92.989 68.8989 90.9448 70.0665C86.4872 72.613 83.9024 75.7667 82.798 77.1139C80.1816 80.3008 78.2289 83.9202 76.9947 87.8722C76.4026 89.765 74.8291 94.7949 75.7572 101.189C76.0317 103.078 76.5423 106.594 78.8842 110.505C79.4414 111.436 80.8453 113.781 83.4018 116.01C81.3559 115.031 79.3117 114.053 77.2658 113.073C76.4209 112.521 75.6092 111.904 74.8524 111.24C73.7363 110.259 72.1079 108.604 70.6974 106.292C68.432 102.579 67.9297 99.1411 67.6602 97.2931C67.0565 93.1548 67.5821 89.9164 67.8349 88.3595C68.4137 84.7967 69.5797 81.3853 71.3029 78.2217C72.5154 75.9912 74.0257 73.8638 75.6674 72.0708C78.5649 68.9072 81.4673 67.0676 82.9377 66.2526C84.2916 65.5057 86.8149 64.1152 90.3827 63.4898C91.7382 63.2503 93.9005 63.0208 96.5086 63.2836C98.3881 63.4715 100.239 63.894 102.014 64.5377L104.69 65.8667C105.382 66.211 106.074 66.5553 106.766 66.8979C105.662 66.6817 104.542 66.5569 103.416 66.5237C103.215 66.517 103.015 66.5154 102.818 66.5154L102.814 66.5104Z" fill="black"/>
</g>
<g id="Group_7">
<path id="Vector_13" d="M85.9594 92.8792C89.5521 96.2823 93.1465 99.6871 96.7392 103.092C99.6583 104.477 102.576 105.865 105.495 107.25C99.2791 101.362 93.0617 95.4706 86.8442 89.5825C86.5582 90.3443 86.1906 91.472 85.9594 92.8792Z" fill="#FF444F"/>
<path id="Vector_14" d="M105.493 107.583C105.599 107.583 105.704 107.531 105.767 107.438C105.86 107.303 105.84 107.12 105.722 107.009L87.0715 89.3411C86.99 89.2645 86.8769 89.2329 86.7688 89.2579C86.6607 89.2828 86.5709 89.361 86.5326 89.4642C86.1218 90.5536 85.8191 91.6847 85.6294 92.824C85.6111 92.9338 85.6494 93.0436 85.7292 93.1201C89.322 96.5232 92.9164 99.928 96.5091 103.333C96.5341 103.356 96.564 103.376 96.5956 103.391L105.351 107.549C105.398 107.571 105.446 107.581 105.494 107.581L105.493 107.583ZM86.9834 90.1727L103.743 106.051L96.9266 102.814C93.3888 99.4623 89.8509 96.1107 86.3147 92.7592C86.4694 91.8859 86.6923 91.0177 86.9834 90.1727Z" fill="black"/>
</g>
<g id="Group_8">
<path id="Vector_15" d="M89.0071 105.436C91.9478 108.724 95.7667 109.329 96.5568 109.439C101.301 110.096 104.754 107.781 105.505 107.249C102.586 105.863 99.6688 104.476 96.7497 103.09C96.2008 103.423 95.484 103.812 94.6141 104.176C94.2548 104.324 93.2269 104.739 91.8114 105.051C91.0779 105.213 90.1315 105.374 89.0054 105.434L89.0071 105.436Z" fill="#FF444F"/>
<path id="Vector_16" d="M98.2487 109.89C101.91 109.89 104.611 108.29 105.695 107.522C105.792 107.453 105.845 107.339 105.835 107.222C105.825 107.104 105.753 107.001 105.647 106.951L96.8914 102.793C96.7899 102.745 96.6718 102.751 96.577 102.809C95.9134 103.212 95.2098 103.57 94.4846 103.874C93.6396 104.223 92.6899 104.521 91.7401 104.731C90.8386 104.93 89.9138 105.057 88.9874 105.106C88.8593 105.113 88.7479 105.193 88.698 105.311C88.6497 105.429 88.6714 105.566 88.7578 105.66C91.5555 108.787 95.1117 109.577 96.5105 109.772C97.111 109.855 97.6931 109.892 98.2503 109.892L98.2487 109.89ZM104.83 107.299C103.38 108.214 100.414 109.639 96.5987 109.11C95.3512 108.937 92.2924 108.263 89.7276 105.715C90.4528 105.647 91.1746 105.534 91.8815 105.378C92.8695 105.16 93.8575 104.85 94.7391 104.486C95.4393 104.193 96.1196 103.851 96.765 103.47L104.83 107.3V107.299Z" fill="black"/>
</g>
<g id="Group_9">
<path id="Vector_17" d="M104.768 83.3046C104.976 84.0465 105.512 86.1622 105.256 88.9166C105.202 89.5021 105.118 90.0493 105.018 90.5516C107.608 93.02 110.196 95.485 112.785 97.9533C113.338 96.6693 114.073 94.5203 114.116 91.7891C114.143 90.2489 114.151 87.2916 112.33 84.2244C111.678 83.1267 109.742 80.2408 106.026 78.8303C104.67 78.3147 103.345 78.0985 102.1 78.0752C102.905 79.0965 104.076 80.8529 104.768 83.3046Z" fill="#FF444F"/>
<path id="Vector_18" d="M112.783 98.2857C112.804 98.2857 112.828 98.284 112.849 98.279C112.956 98.2574 113.045 98.1842 113.089 98.0844C113.955 96.0702 114.413 93.9544 114.446 91.7938C114.471 90.3251 114.522 87.2696 112.613 84.0545C111.733 82.5708 109.722 79.8779 106.141 78.519C104.855 78.03 103.496 77.7688 102.104 77.7422C101.968 77.7406 101.856 77.8121 101.8 77.9269C101.743 78.0416 101.757 78.1797 101.836 78.2811C103.041 79.808 103.919 81.5296 104.446 83.3958C104.785 84.6017 105.141 86.5328 104.922 88.8864C104.872 89.4203 104.794 89.9592 104.689 90.4881C104.667 90.5996 104.702 90.716 104.785 90.7942C107.362 93.2492 109.935 95.7009 112.511 98.156L112.553 98.1959C112.616 98.2558 112.698 98.2874 112.783 98.2874V98.2857ZM102.789 78.4425C103.862 78.5273 104.907 78.7618 105.905 79.1411C109.296 80.4285 111.204 82.9849 112.041 84.3938C113.854 87.4476 113.804 90.3767 113.781 91.7838C113.751 93.6983 113.375 95.5778 112.661 97.3775C110.233 95.0639 107.806 92.7519 105.376 90.4366C105.469 89.9442 105.539 89.4436 105.584 88.9462C105.813 86.4912 105.439 84.4736 105.085 83.2145C104.599 81.493 103.827 79.8912 102.789 78.4425Z" fill="black"/>
</g>
<g id="Group_10">
<g id="Vector_19">
<path fill-rule="evenodd" clip-rule="evenodd" d="M103.412 66.5536C97.5839 66.3796 93.3471 68.7324 90.9606 70.0959C86.6011 72.5868 84.0648 75.6217 82.8222 77.1352C79.5042 81.1787 77.8571 85.2218 77.0244 87.8828C76.3497 90.0375 74.8804 94.9236 75.7896 101.181C76.0804 103.176 76.6193 106.658 78.9112 110.485C79.8249 112.01 82.2044 115.877 87.0115 118.475C93.3169 121.884 99.4908 120.784 101.5 120.397C107.927 119.158 111.921 115.529 114.041 113.602L114.044 113.6C115.057 112.679 118.627 109.308 121.257 103.681C123.262 99.392 123.846 95.6615 124.05 93.8882C124.269 91.9873 124.64 88.4945 123.623 84.1205C123.175 82.199 122.302 78.6011 119.471 74.9012C116.708 71.29 113.564 69.5124 112.614 69.0056C111.218 68.2574 107.899 66.6886 103.412 66.5536ZM77.5981 88.0585C78.4157 85.4468 80.0321 81.4812 83.286 77.5159C84.515 76.0189 86.9953 73.0526 91.2583 70.6168C93.6288 69.2625 97.7418 66.9846 103.394 67.1533M77.5981 88.0585C76.9316 90.187 75.4934 94.9699 76.3834 101.094C76.6714 103.071 77.1971 106.455 79.426 110.176C80.3253 111.678 82.6363 115.429 87.2967 117.947C93.4095 121.252 99.4044 120.189 101.387 119.808C107.642 118.602 111.531 115.072 113.64 113.156C114.626 112.26 118.131 108.951 120.714 103.427C122.681 99.2171 123.255 95.556 123.454 93.8197C123.671 91.9382 124.032 88.5281 123.039 84.2563C122.595 82.3555 121.745 78.861 118.994 75.2658C116.305 71.7513 113.245 70.0226 112.332 69.5348C110.977 68.8092 107.752 67.2844 103.394 67.1533" fill="#0E0E0E"/>
<path fill-rule="evenodd" clip-rule="evenodd" d="M85.3101 93.6499C85.3191 91.0507 87.0847 88.8501 89.365 88.8577C91.6452 88.8653 93.3955 91.0776 93.3865 93.6768C93.3774 96.2761 91.6118 98.4767 89.3316 98.4691C87.0513 98.4615 85.301 96.2492 85.3101 93.6499ZM89.3629 89.4577C87.514 89.4515 85.9183 91.2743 85.9101 93.6519C85.9018 96.0295 87.4848 97.8629 89.3336 97.8691C91.1825 97.8753 92.7782 96.0525 92.7865 93.6749C92.7948 91.2972 91.2118 89.4638 89.3629 89.4577ZM96.8455 93.6892C96.8545 91.09 98.6201 88.8894 100.9 88.897C103.181 88.9046 104.931 91.1169 104.922 93.7161C104.913 96.3154 103.147 98.516 100.867 98.5084C98.5867 98.5008 96.8364 96.2885 96.8455 93.6892ZM100.898 89.497C99.0494 89.4908 97.4537 91.3136 97.4455 93.6912C97.4372 96.0688 99.0202 97.9022 100.869 97.9084C102.718 97.9145 104.314 96.0918 104.322 93.7141C104.33 91.3365 102.747 89.5031 100.898 89.497ZM112.434 89.5362C110.585 89.5301 108.989 91.3529 108.981 93.7305C108.973 96.1081 110.556 97.9415 112.404 97.9477C114.253 97.9538 115.849 96.131 115.857 93.7534C115.866 91.3758 114.283 89.5424 112.434 89.5362ZM108.381 93.7285C108.39 91.1292 110.156 88.9286 112.436 88.9363C114.716 88.9439 116.466 91.1562 116.457 93.7554C116.448 96.3547 114.683 98.5553 112.402 98.5477C110.122 98.5401 108.372 96.3277 108.381 93.7285Z" fill="#0E0E0E"/>
<path fill-rule="evenodd" clip-rule="evenodd" d="M83.286 77.5159C80.0321 81.4812 78.4157 85.4468 77.5981 88.0585C76.9316 90.187 75.4934 94.9699 76.3834 101.094C76.6714 103.071 77.1971 106.455 79.426 110.176C80.3253 111.678 82.6363 115.429 87.2967 117.947C93.4095 121.252 99.4044 120.189 101.387 119.808C107.642 118.602 111.531 115.072 113.64 113.156C114.626 112.26 118.131 108.951 120.714 103.427C122.681 99.2171 123.255 95.556 123.454 93.8197C123.671 91.9382 124.032 88.5281 123.039 84.2563C122.595 82.3555 121.745 78.861 118.994 75.2658C116.305 71.7513 113.245 70.0226 112.332 69.5348C110.977 68.8092 107.752 67.2844 103.394 67.1533C97.7418 66.9846 93.6288 69.2625 91.2583 70.6168C86.9953 73.0526 84.515 76.0189 83.286 77.5159ZM85.3101 93.6499C85.3191 91.0507 87.0847 88.8501 89.365 88.8577C91.6452 88.8653 93.3955 91.0776 93.3865 93.6768C93.3774 96.2761 91.6118 98.4767 89.3316 98.4691C87.0513 98.4615 85.301 96.2492 85.3101 93.6499ZM96.8455 93.6892C96.8545 91.09 98.6201 88.8894 100.9 88.897C103.181 88.9046 104.931 91.1169 104.922 93.7161C104.913 96.3154 103.147 98.516 100.867 98.5084C98.5867 98.5008 96.8364 96.2885 96.8455 93.6892ZM108.381 93.7285C108.39 91.1292 110.156 88.9286 112.436 88.9363C114.716 88.9439 116.466 91.1562 116.457 93.7554C116.448 96.3547 114.683 98.5553 112.402 98.5477C110.122 98.5401 108.372 96.3277 108.381 93.7285Z" fill="#FF7E88"/>
<path d="M85.9101 93.6519C85.9183 91.2743 87.514 89.4515 89.3629 89.4577C91.2118 89.4638 92.7948 91.2972 92.7865 93.6749C92.7782 96.0525 91.1825 97.8753 89.3336 97.8691C87.4848 97.8629 85.9018 96.0295 85.9101 93.6519Z" fill="#FF535E"/>
<path d="M97.4455 93.6912C97.4537 91.3136 99.0494 89.4908 100.898 89.497C102.747 89.5031 104.33 91.3365 104.322 93.7141C104.314 96.0918 102.718 97.9145 100.869 97.9084C99.0202 97.9022 97.4372 96.0688 97.4455 93.6912Z" fill="#FF535E"/>
<path d="M108.981 93.7305C108.989 91.3529 110.585 89.5301 112.434 89.5362C114.283 89.5424 115.866 91.3758 115.857 93.7534C115.849 96.131 114.253 97.9538 112.404 97.9477C110.556 97.9415 108.973 96.1081 108.981 93.7305Z" fill="#FF535E"/>
</g>
</g>
</g>
</g>
</g>
</svg>
