<svg width="128" height="128" viewBox="0 0 128 128" fill="none" xmlns="http://www.w3.org/2000/svg">
<g id="illustration / deriv / light / exclamation-poi">
<path id="Vector" d="M92.29 120.37H25.71C19.79 120.37 15 115.89 15 110.37V13.49C15 7.97002 19.79 3.49002 25.71 3.49002H92.29C96.7531 3.3439 100.493 6.83735 100.65 11.3V112.55C100.492 117.014 96.7547 120.51 92.29 120.37Z" fill="#C6E4E4"/>
<path id="Vector_2" d="M57.8252 22.4299C46.9176 22.4299 38.0752 31.2723 38.0752 42.1799C38.0752 53.0876 46.9176 61.9299 57.8252 61.9299C68.7328 61.9299 77.5752 53.0876 77.5752 42.1799C77.5752 36.9419 75.4944 31.9184 71.7905 28.2146C68.0867 24.5107 63.0632 22.4299 57.8252 22.4299ZM39.8252 42.7099H47.6552C47.6649 45.8934 48.1159 49.0602 48.9952 52.1199H42.7952C40.9374 49.3243 39.8982 46.065 39.7952 42.7099H39.8252ZM58.6652 29.9299V24.2099C60.7552 24.6599 62.6652 26.7899 64.0252 29.9299H58.6652ZM64.6652 31.6099C65.6842 34.6399 66.247 37.8045 66.3352 40.9999H58.6652V31.6099H64.6652ZM56.9552 24.2099V29.9299H51.6252C53.0052 26.7899 54.8952 24.6599 56.9852 24.2099H56.9552ZM56.9552 31.6099V40.9999H49.3152C49.3891 37.799 49.9418 34.6271 50.9552 31.5899L56.9552 31.6099ZM47.6252 40.9999H39.8252C40.0355 37.6169 41.1967 34.3621 43.1752 31.6099H49.1752C48.2159 34.6506 47.694 37.8123 47.6252 40.9999ZM49.2952 42.6899H56.9852V52.0999H50.7452C49.8143 49.0556 49.326 45.8932 49.2952 42.7099V42.6899ZM56.9852 53.7999V60.1499C54.7552 59.6599 52.7552 57.2799 51.3552 53.7999H56.9852ZM58.6652 60.1499V53.7999H64.2952C62.8952 57.2799 60.8952 59.6599 58.6652 60.1499ZM58.6652 52.1499V42.7099H66.3552C66.3293 45.9002 65.8408 49.0698 64.9052 52.1199L58.6652 52.1499ZM68.0352 42.7399H75.8652C75.7664 46.0957 74.7269 49.3562 72.8652 52.1499H66.6652C67.5542 49.0813 68.0153 45.9047 68.0352 42.7099V42.7399ZM68.0352 41.0499C67.966 37.8581 67.4544 34.6912 66.5152 31.6399H72.4552C74.4391 34.3803 75.6105 37.6243 75.8352 40.9999L68.0352 41.0499ZM71.0352 29.9599H65.8952C65.1768 28.0777 64.1155 26.3451 62.7652 24.8499C65.9422 25.7508 68.8102 27.5082 71.0552 29.9299L71.0352 29.9599ZM52.8852 24.8199C51.5348 26.3151 50.4736 28.0477 49.7552 29.9299H44.5952C46.8365 27.4972 49.7048 25.7292 52.8852 24.8199ZM44.0152 53.8199H49.5152C50.2427 55.9397 51.3887 57.8916 52.8852 59.5599C49.42 58.5681 46.3308 56.562 44.0152 53.7999V53.8199ZM62.7652 59.5599C64.2763 57.8878 65.4359 55.929 66.1752 53.7999H71.6752C69.3457 56.5609 66.2422 58.5602 62.7652 59.5399V59.5599Z" fill="white"/>
<path id="Vector_3" d="M87.3009 78.4099H34.5509C32.2478 78.4099 30.3809 80.2769 30.3809 82.5799V84.7199C30.3809 87.0229 32.2478 88.8899 34.5509 88.8899H87.3009C89.6039 88.8899 91.4709 87.0229 91.4709 84.7199V82.5799C91.4709 80.2769 89.6039 78.4099 87.3009 78.4099Z" fill="white"/>
<path id="Vector_4" d="M103.001 50.98H13.0605C10.023 50.98 7.56055 53.4424 7.56055 56.48V107C7.56055 110.038 10.023 112.5 13.0605 112.5H103.001C106.038 112.5 108.501 110.038 108.501 107V56.48C108.501 53.4424 106.038 50.98 103.001 50.98Z" fill="white"/>
<path id="Vector_5" d="M103.001 51.48C105.762 51.48 108.001 53.7186 108.001 56.48V107C108.001 109.761 105.762 112 103.001 112H13.0605C10.2991 112 8.06055 109.761 8.06055 107V56.48C8.06055 53.7186 10.2991 51.48 13.0605 51.48H103.001ZM103.001 50.48H13.0605C9.74684 50.48 7.06055 53.1663 7.06055 56.48V107C7.06055 110.314 9.74684 113 13.0605 113H103.001C106.314 113 109.001 110.314 109.001 107V56.48C109.001 53.1663 106.314 50.48 103.001 50.48Z" fill="#F2F2F2"/>
<path id="Vector_6" d="M45.9111 61.24H18.8711C17.2142 61.24 15.8711 62.5831 15.8711 64.24V99.41C15.8711 101.067 17.2142 102.41 18.8711 102.41H45.9111C47.5679 102.41 48.9111 101.067 48.9111 99.41V64.24C48.9111 62.5831 47.5679 61.24 45.9111 61.24Z" fill="#F2F2F2"/>
<path id="Vector_7" d="M89.7513 70.3701H59.5813C58.7252 70.3701 58.0312 71.0641 58.0312 71.9201V73.8701C58.0312 74.7262 58.7252 75.4201 59.5813 75.4201H89.7513C90.6073 75.4201 91.3013 74.7262 91.3013 73.8701V71.9201C91.3013 71.0641 90.6073 70.3701 89.7513 70.3701Z" fill="#E3E4E3"/>
<path id="Vector_8" d="M89.9513 79.6301H59.3814C58.6358 79.6301 58.0312 80.2345 58.0312 80.9801V82.6601C58.0312 83.4057 58.6358 84.0101 59.3814 84.0101H89.9513C90.6969 84.0101 91.3013 83.4057 91.3013 82.6601V80.9801C91.3013 80.2345 90.6969 79.6301 89.9513 79.6301Z" fill="#E3E4E3"/>
<path id="Vector_9" d="M89.9513 88.5601H59.3814C58.6358 88.5601 58.0312 89.1645 58.0312 89.9101V91.5901C58.0312 92.3356 58.6358 92.9401 59.3814 92.9401H89.9513C90.6969 92.9401 91.3013 92.3356 91.3013 91.5901V89.9101C91.3013 89.1645 90.6969 88.5601 89.9513 88.5601Z" fill="#E3E4E3"/>
<path id="Vector_10" d="M32.4497 81.79C36.1887 81.79 39.2197 78.759 39.2197 75.02C39.2197 71.281 36.1887 68.25 32.4497 68.25C28.7107 68.25 25.6797 71.281 25.6797 75.02C25.6797 78.759 28.7107 81.79 32.4497 81.79Z" fill="#84ABAE"/>
<path id="Vector_11" d="M27 82.0701C27 82.0701 28.48 84.0001 32.45 84.0001C36.42 84.0001 37.72 82.0701 37.72 82.0701C37.72 82.0701 43.78 84.4001 43.78 90.7701C43.78 90.7701 40.64 95.4001 32.64 95.4001C24.64 95.4001 21 90.7701 21 90.7701C21 90.7701 21.19 83.9101 27 82.0701Z" fill="#84ABAE"/>
<path id="Vector_12" d="M98.5516 124C110.398 124 120.002 114.396 120.002 102.55C120.002 90.7031 110.398 81.0996 98.5516 81.0996C86.7051 81.0996 77.1016 90.7031 77.1016 102.55C77.1016 114.396 86.7051 124 98.5516 124Z" fill="#EC3F3F"/>
<path id="Vector_13" fill-rule="evenodd" clip-rule="evenodd" d="M101.34 108H96.6643L96.002 88.9995H102.002L101.34 108ZM98.9927 111C99.8967 111 100.624 111.281 101.175 111.845C101.726 112.409 102.002 113.131 102.002 114.009C102.002 114.875 101.726 115.59 101.175 116.154C100.624 116.718 99.8967 117 98.9927 117C98.101 117 97.3797 116.718 96.8286 116.154C96.2775 115.59 96.002 114.875 96.002 114.009C96.002 113.144 96.2775 112.426 96.8286 111.855C97.3797 111.285 98.101 111 98.9927 111Z" fill="white"/>
</g>
</svg>
