<svg width="120" height="152" viewBox="0 0 120 152" fill="none" xmlns="http://www.w3.org/2000/svg">
<g id="illustration / deriv / light / promotional-tools">
<g id="Promotional">
<g id="Promotional Tools 1" clip-path="url(#clip0_1338_274)">
<g id="Layer 1">
<g id="Group">
<g id="Group_2">
<path id="Vector" d="M103.162 31.2619C87.3964 9.25787 61.3791 0.906084 45.0511 12.608C41.3846 15.2362 38.5202 18.6485 36.4595 22.6144C29.3357 36.309 31.8089 56.5751 44.0351 73.6396C56.4752 91.0013 75.296 99.8642 90.7036 97.0843L91.2677 96.9766C95.1783 96.1926 98.8585 94.6487 102.146 92.2935C118.472 80.5916 118.929 53.2674 103.162 31.2619Z" fill="#EBECEE"/>
<path id="Vector_2" d="M84.9096 97.8973C78.8351 97.8973 72.4438 96.3049 66.1236 93.1868C57.5684 88.9662 49.8457 82.2675 43.7894 73.8156C37.8408 65.5123 34.003 56.2066 32.6913 46.9055C31.407 37.7924 32.617 29.345 36.1911 22.4749C38.3276 18.3635 41.2496 14.9618 44.8751 12.3624C52.8526 6.64491 63.3412 5.4544 74.4105 9.00774C85.4479 12.5505 95.7469 20.3912 103.409 31.0861C111.073 41.781 115.186 54.0561 114.992 65.6473C114.798 77.2734 110.299 86.8233 102.323 92.5408C99.0707 94.8717 95.3708 96.4641 91.3283 97.274L90.7612 97.3817C88.8536 97.7259 86.899 97.8973 84.9096 97.8973ZM62.2221 7.60794C55.902 7.60794 50.0868 9.37475 45.2285 12.8568C41.6802 15.4001 38.8219 18.7305 36.7294 22.757C33.2145 29.5149 32.0257 37.8363 33.2918 46.8236C34.5898 56.0292 38.3898 65.2409 44.2823 73.4653C54.8785 88.2534 70.606 97.2892 84.9415 97.2892C86.8763 97.2892 88.7823 97.1254 90.6505 96.7887L91.2115 96.681C95.1661 95.8878 98.7872 94.3288 101.97 92.0494C109.787 86.4472 114.196 77.0671 114.386 65.6397C114.577 54.1775 110.504 42.0312 102.916 31.4425C95.3284 20.8522 85.1401 13.0919 74.2255 9.58859C70.1071 8.26613 66.0706 7.61097 62.2221 7.61097V7.60794Z" fill="black"/>
</g>
<g id="Group_3">
<path id="Vector_3" d="M94.5779 81.7321C85.1023 88.5248 71.1838 86.1241 60.0417 76.8472C57.0773 74.3797 54.3069 71.4224 51.8717 68.0237C49.7154 65.0148 47.9732 61.8695 46.6403 58.6892C40.813 44.7761 42.8525 30.17 52.6192 23.171C64.618 14.569 83.7376 20.7081 95.3255 36.8793C106.912 53.0506 106.578 73.1316 94.5779 81.7321Z" fill="white"/>
<path id="Vector_4" d="M81.93 85.9148C74.7213 85.9148 66.8333 82.8968 59.849 77.0823C56.7906 74.5375 54.0248 71.5498 51.6259 68.2027C49.5046 65.2408 47.7335 62.0803 46.3612 58.809C43.4862 51.9465 42.4642 44.6594 43.4832 38.2913C44.5401 31.682 47.6395 26.3695 52.4432 22.9268C58.3266 18.7092 66.06 17.8296 74.2194 20.4488C82.347 23.0573 89.9302 28.8309 95.5725 36.7049C101.213 44.579 104.243 53.6163 104.1 62.1516C103.958 70.7218 100.639 77.7632 94.7552 81.9808C91.0675 84.6242 86.6428 85.9163 81.93 85.9163V85.9148ZM65.2396 19.5752C60.6118 19.5752 56.3539 20.8689 52.7965 23.4182C48.1262 26.7653 45.1132 31.9399 44.0821 38.3853C43.0813 44.6427 44.0897 51.8116 46.9207 58.5725C48.2748 61.8028 50.0231 64.9239 52.1187 67.8478C54.4873 71.1525 57.2182 74.1022 60.2357 76.6152C67.1078 82.3357 74.8608 85.3082 81.927 85.3097C86.517 85.3097 90.8173 84.057 94.4004 81.4864C100.125 77.3841 103.353 70.514 103.492 62.141C103.632 53.7346 100.645 44.8262 95.0782 37.0568C89.5117 29.2874 82.0377 23.5941 74.0329 21.0251C71.0139 20.056 68.057 19.5752 65.2381 19.5752H65.2396Z" fill="black"/>
</g>
</g>
<g id="Group_4">
<path id="Vector_5" d="M78.0678 58.6893L60.0416 76.8472C57.0771 74.3798 54.3068 71.4225 51.8715 68.0238C49.7153 65.0149 47.973 61.8695 46.6401 58.6893L69.1275 46.2124C66.5709 48.0444 66.5012 52.3242 68.9698 55.7684C71.4369 59.214 75.5128 60.5213 78.0678 58.6893Z" fill="#EBECEE"/>
<path id="Vector_6" d="M60.0415 77.1521C59.9733 77.1521 59.9035 77.1294 59.8474 77.0824C56.789 74.5375 54.0232 71.5499 51.6243 68.2028C49.5029 65.2409 47.7319 62.0804 46.3596 58.8091C46.3004 58.6666 46.3565 58.5013 46.493 58.427L68.9804 45.9501C69.1214 45.8727 69.2973 45.9167 69.3837 46.0532C69.4701 46.1897 69.4353 46.3687 69.3033 46.4627C68.1464 47.2907 67.4943 48.6875 67.467 50.3952C67.4382 52.1362 68.0599 53.9819 69.2154 55.5955C70.3708 57.2091 71.9205 58.3906 73.5779 58.9229C75.2034 59.4446 76.7349 59.2747 77.8904 58.4467C78.0178 58.3542 78.1952 58.3769 78.2983 58.4967C78.3999 58.6165 78.3938 58.7955 78.2831 58.9077L60.2568 77.0657C60.1977 77.1248 60.1204 77.1552 60.0415 77.1552V77.1521ZM47.0268 58.8228C48.3657 61.9636 50.0776 64.9983 52.1186 67.8479C54.4311 71.0752 57.0892 73.9628 60.0233 76.4363L76.6712 59.666C75.6705 59.9208 74.5499 59.8677 73.3929 59.4961C71.6127 58.9244 69.9538 57.6626 68.7226 55.9443C67.4913 54.226 66.8302 52.2499 66.8605 50.38C66.8787 49.235 67.1547 48.2128 67.6581 47.3741L47.0252 58.8213L47.0268 58.8228Z" fill="black"/>
</g>
<g id="Group_5">
<path id="Vector_7" d="M94.5779 81.7323C85.1023 88.5251 71.1838 86.1243 60.0417 76.8474L78.068 58.6894C80.6246 56.8574 80.6958 52.5792 78.2272 49.1335C75.7586 45.6878 71.6842 44.3805 69.1276 46.2126L46.6403 58.6894C40.813 44.7764 42.8525 30.1702 52.6192 23.1712C64.618 14.5692 83.7376 20.7083 95.3255 36.8796C106.912 53.0508 106.578 73.1318 94.5779 81.7323Z" fill="white"/>
<path id="Vector_8" d="M81.93 85.9151C74.7213 85.9151 66.8333 82.8971 59.849 77.0825C59.7838 77.0279 59.7444 76.9491 59.7399 76.8641C59.7353 76.7792 59.7672 76.6958 59.8278 76.6366L77.8541 58.4787C77.8662 58.4665 77.8783 58.4559 77.892 58.4453C79.049 57.6173 79.701 56.2205 79.7298 54.5143C79.7586 52.7748 79.1384 50.9261 77.9815 49.3125C75.6144 46.0079 71.722 44.7294 69.305 46.4613C69.2959 46.4674 69.2852 46.475 69.2746 46.4795L46.7873 58.9564C46.7115 58.9973 46.622 59.0064 46.5416 58.9776C46.4597 58.9488 46.3945 58.8881 46.3612 58.8078C43.4862 51.9453 42.4642 44.6581 43.4832 38.2915C44.5401 31.6823 47.6395 26.3697 52.4432 22.9271C58.3266 18.7095 66.06 17.8299 74.2194 20.449C82.347 23.0575 89.9302 28.8311 95.5725 36.7052C101.213 44.5792 104.243 53.6165 104.1 62.1518C103.958 70.722 100.639 77.7635 94.7552 81.9811C91.0675 84.6245 86.6428 85.9166 81.93 85.9166V85.9151ZM60.492 76.8262C67.2988 82.4087 74.9488 85.3084 81.9285 85.3084C86.5185 85.3084 90.8188 84.0557 94.4019 81.4851C100.126 77.3828 103.354 70.5127 103.494 62.1397C103.633 53.7333 100.646 44.8249 95.0797 37.0555C89.5132 29.2861 82.0392 23.5929 74.0344 21.0238C66.0615 18.4638 58.5192 19.3146 52.7965 23.4169C48.1262 26.764 45.1132 31.9386 44.0821 38.384C43.0965 44.5444 44.0594 51.5904 46.7903 58.2573L68.9653 45.9533C71.6538 44.0409 75.9162 45.3846 78.4743 48.9546C79.7055 50.6729 80.3667 52.6505 80.3363 54.5189C80.3045 56.4116 79.5706 57.9737 78.2665 58.9185L60.492 76.8232V76.8262Z" fill="black"/>
</g>
<g id="Group_6">
<path id="Vector_9" d="M66.903 116.466L58.3266 121.755L53.1892 104.141L62.6451 102.361L66.903 116.466Z" fill="#EBECEE"/>
<path id="Vector_10" d="M58.3282 122.058C58.2918 122.058 58.2539 122.052 58.219 122.038C58.1311 122.005 58.0628 121.931 58.0371 121.84L52.8997 104.226C52.8754 104.144 52.8876 104.055 52.9331 103.982C52.977 103.909 53.0513 103.858 53.1347 103.842L62.5906 102.062C62.7423 102.033 62.8924 102.124 62.9379 102.273L67.1958 116.378C67.2352 116.51 67.1821 116.651 67.0638 116.724L58.4874 122.013C58.4389 122.043 58.3843 122.058 58.3282 122.058ZM53.5745 104.378L58.5071 121.288L66.5468 116.331L62.4345 102.71L53.5745 104.378Z" fill="black"/>
</g>
<g id="Group_7">
<path id="Vector_11" d="M78.0679 58.6893C75.5129 60.5213 71.437 59.214 68.9699 55.7684C66.5013 52.3242 66.571 48.0444 69.1276 46.2124C71.6841 44.3804 75.7585 45.6877 78.2272 49.1333C80.6958 52.579 80.6245 56.8573 78.0679 58.6893Z" fill="white"/>
<path id="Vector_12" d="M75.3824 59.8253C74.744 59.8253 74.0753 59.7176 73.3945 59.4977C71.6143 58.926 69.9554 57.6642 68.7242 55.9459C67.4929 54.2276 66.8318 52.2515 66.8621 50.3816C66.8939 48.4783 67.6354 46.9101 68.9516 45.9668C71.6401 44.0408 75.9116 45.3814 78.4742 48.9575C79.7055 50.6758 80.3666 52.6534 80.3363 54.5218C80.3045 56.4251 79.5614 57.9933 78.2453 58.9366C77.4234 59.525 76.4438 59.8253 75.3824 59.8253ZM71.8205 45.6878C70.9016 45.6878 70.0358 45.9365 69.3049 46.4597C68.1479 47.2878 67.4959 48.6845 67.4686 50.3922C67.4398 52.1332 68.0615 53.9789 69.217 55.5925C70.3724 57.2062 71.9221 58.3876 73.5795 58.9199C75.205 59.4416 76.7365 59.2718 77.892 58.4437C79.0489 57.6157 79.7009 56.2189 79.7298 54.5127C79.7586 52.7732 79.1384 50.9245 77.9814 49.3109C76.3301 47.0072 73.9373 45.6878 71.822 45.6878H71.8205Z" fill="black"/>
</g>
<g id="Group_8">
<path id="Vector_13" d="M90.7037 97.0847L62.6453 102.361L53.1894 104.141L48.8102 104.965C48.6722 104.322 48.187 103.752 47.4318 103.591L23.9983 98.5997C22.5092 98.2828 20.955 98.5785 19.6843 99.4202L14.4377 102.898C13.0245 101.515 11.675 99.901 10.3709 98.0811C4.74377 90.2237 3.81576 80.8255 7.50806 74.8137L36.4596 22.6162C29.3358 36.3109 31.809 56.5769 44.0352 73.6414C56.4753 91.0032 75.2961 99.8661 90.7037 97.0862V97.0847Z" fill="white"/>
<path id="Vector_14" d="M48.8102 105.27C48.6707 105.27 48.5448 105.173 48.5145 105.03C48.3901 104.451 47.9519 104.012 47.3696 103.889L23.9361 98.8984C22.5365 98.6012 21.0474 98.8833 19.8526 99.6749L14.606 103.152C14.4862 103.231 14.3285 103.216 14.2269 103.116C12.8471 101.766 11.4672 100.133 10.1252 98.2599C7.3655 94.4078 5.64445 90.0962 5.14405 85.7922C4.65883 81.6125 5.40638 77.6588 7.25025 74.6575L36.1957 22.469C36.2761 22.3234 36.458 22.2704 36.6051 22.3492C36.7507 22.4281 36.8068 22.6086 36.731 22.7557C33.2161 29.5135 32.0273 37.835 33.2934 46.8222C34.5914 56.0278 38.3914 65.2395 44.2839 73.4639C56.31 90.2479 74.9443 99.6218 90.6521 96.7873C90.8174 96.757 90.9736 96.8662 91.0039 97.0315C91.0342 97.1968 90.9266 97.353 90.7613 97.3849L62.7029 102.661L48.8678 105.265C48.8496 105.268 48.8299 105.27 48.8117 105.27H48.8102ZM22.8307 98.175C23.2431 98.175 23.6556 98.2175 24.0619 98.3039L47.4955 103.295C48.2157 103.448 48.7798 103.944 49.0255 104.617L84.7414 97.899C78.7185 97.8702 72.3862 96.2778 66.1237 93.1885C57.5685 88.9679 49.8458 82.2692 43.7895 73.8173C37.8409 65.514 34.0031 56.2083 32.6914 46.9071C31.7073 39.9263 32.1865 33.3368 34.0713 27.5465L7.77339 74.9608C5.99472 77.859 5.27598 81.6747 5.74604 85.7209C6.23279 89.9233 7.91744 94.1364 10.618 97.9051C11.8827 99.6703 13.1807 101.219 14.4756 102.509L19.5175 99.1684C20.5 98.5178 21.6631 98.175 22.8307 98.175Z" fill="black"/>
</g>
<g id="Group_9">
<path id="Vector_15" d="M48.8554 105.38C48.8554 105.919 48.6174 106.461 48.1048 106.828L43.6923 109.992L43.6877 109.977L48.1048 106.801C48.6159 106.434 48.8539 105.891 48.8539 105.353C48.8539 105.222 48.8388 105.092 48.8099 104.965L53.1891 104.141L58.3265 121.755L48.8554 121.632V105.38Z" fill="#EBECEE"/>
<path id="Vector_16" d="M58.3281 122.058H58.3235L48.8525 121.935C48.6872 121.934 48.5538 121.797 48.5538 121.632V106.845C48.4719 106.927 48.3809 107.005 48.2823 107.074L43.8698 110.238C43.7894 110.295 43.6863 110.311 43.5938 110.277C43.5013 110.245 43.43 110.17 43.4012 110.076L43.3967 110.06C43.3603 109.938 43.4058 109.804 43.5104 109.73L47.9275 106.554C48.3233 106.27 48.5507 105.832 48.5507 105.351C48.5507 105.245 48.5386 105.138 48.5143 105.03C48.4961 104.95 48.5113 104.865 48.5568 104.796C48.6023 104.728 48.6735 104.68 48.7539 104.664L53.1331 103.841C53.2847 103.812 53.4364 103.905 53.4803 104.055L58.6177 121.668C58.645 121.761 58.6268 121.861 58.5677 121.937C58.5101 122.013 58.4206 122.057 58.3266 122.057L58.3281 122.058ZM49.1588 121.333L57.9202 121.447L52.9739 104.492L49.1512 105.21C49.1542 105.257 49.1557 105.304 49.1557 105.351C49.1557 105.362 49.1557 105.371 49.1557 105.382V121.335L49.1588 121.333Z" fill="black"/>
</g>
<g id="Group_10">
<g id="Group_11">
<path id="Vector_17" d="M48.8541 105.353C48.8541 105.891 48.6161 106.434 48.1051 106.801L43.688 109.977L41.1481 111.803L36.872 114.879C35.2252 116.062 33.1463 116.474 31.1736 116.009L25.8361 114.748L14.879 112.147L7.52016 110.4C6.88633 110.25 6.49966 109.75 6.41475 109.202C6.41172 109.175 6.40717 109.148 6.40565 109.12V109.102C6.37077 108.615 6.57548 108.109 7.05464 107.79L14.4377 102.898L19.6843 99.4202C20.955 98.5785 22.5092 98.2828 23.9982 98.5997L47.4318 103.591C48.1869 103.752 48.6722 104.322 48.8102 104.965C48.839 105.092 48.8541 105.223 48.8541 105.353Z" fill="#FF444F"/>
<path id="Vector_18" d="M32.7839 116.5C32.2243 116.5 31.6603 116.435 31.1053 116.304L25.7678 115.044L7.45186 110.696C6.7407 110.528 6.22969 109.973 6.11748 109.249L6.11293 109.213C6.1099 109.187 6.10687 109.161 6.10535 109.137C6.10535 109.131 6.10535 109.126 6.10535 109.12V109.113C6.06441 108.48 6.35707 107.892 6.8893 107.538L19.5189 99.1684C20.8487 98.2873 22.5046 97.9718 24.0634 98.304L47.4969 103.295C48.3158 103.469 48.9329 104.085 49.1088 104.903C49.1422 105.05 49.1589 105.203 49.1589 105.355C49.1589 106.032 48.8404 106.65 48.2839 107.049L37.0509 115.126C35.7953 116.028 34.3017 116.5 32.7839 116.5ZM6.71037 109.111C6.71037 109.12 6.71189 109.128 6.71341 109.137L6.71796 109.17C6.77406 109.528 7.03487 109.974 7.59137 110.106L25.9073 114.454L31.2448 115.714C33.1326 116.16 35.1206 115.766 36.696 114.633L47.9291 106.556C48.3249 106.272 48.5523 105.834 48.5523 105.353C48.5523 105.247 48.5402 105.139 48.5159 105.032C48.3901 104.448 47.9518 104.011 47.3696 103.886L23.936 98.8954C22.5364 98.5982 21.0474 98.8803 19.8525 99.6719L7.2229 108.042C6.86656 108.279 6.67853 108.658 6.70886 109.079C6.70886 109.087 6.70886 109.094 6.70886 109.1V109.108L6.71037 109.111Z" fill="black"/>
</g>
<g id="Group_12">
<path id="Vector_19" d="M25.8359 114.748L14.8848 112.164L7.52451 110.426C6.88007 110.274 6.49037 109.76 6.41455 109.202C6.49947 109.75 6.88613 110.25 7.51996 110.4L14.8788 112.147L25.8359 114.748Z" fill="#FF444F"/>
<path id="Vector_20" d="M25.8374 115.053C25.8147 115.053 25.7904 115.05 25.7677 115.045L7.45635 110.723C6.74063 110.555 6.21446 109.974 6.1159 109.245C6.09316 109.079 6.2084 108.928 6.37216 108.903C6.53744 108.881 6.69059 108.993 6.71486 109.157C6.77248 109.53 7.03329 109.974 7.58979 110.106L25.9057 114.454C26.0679 114.492 26.1695 114.656 26.1301 114.819C26.0967 114.959 25.9724 115.053 25.8359 115.053H25.8374Z" fill="black"/>
</g>
<g id="Group_13">
<path id="Vector_21" d="M48.8554 105.38V114.935C48.8554 115.473 48.6173 116.016 48.1048 116.383L46.1305 117.798L41.1417 121.376L36.8611 124.445C35.2128 125.627 33.1339 126.036 31.1612 125.568L14.8787 121.702L7.51989 119.955C7.46833 119.943 7.41981 119.927 7.37129 119.911C7.30002 119.886 7.2333 119.858 7.16961 119.824C7.11502 119.795 7.06195 119.764 7.01343 119.729C6.99675 119.718 6.98159 119.707 6.96491 119.695C6.93306 119.67 6.90122 119.644 6.87241 119.616C6.85725 119.604 6.8436 119.591 6.82995 119.576C6.81934 119.566 6.81024 119.557 6.80114 119.547C6.79053 119.538 6.78143 119.527 6.77385 119.516C6.76172 119.506 6.7511 119.494 6.74352 119.481C6.72078 119.457 6.70258 119.433 6.68438 119.407C6.63738 119.343 6.59644 119.278 6.56156 119.209C6.55398 119.195 6.5464 119.181 6.54185 119.168C6.52517 119.134 6.51152 119.101 6.49787 119.066C6.48423 119.031 6.4721 118.995 6.46148 118.96C6.4448 118.907 6.43267 118.854 6.42206 118.799V118.794C6.41751 118.767 6.41296 118.74 6.40993 118.713C6.40689 118.685 6.40386 118.658 6.40234 118.629V109.093C6.40234 109.102 6.40386 109.111 6.40538 109.12C6.40689 109.148 6.41144 109.175 6.41447 109.202C6.49029 109.76 6.87999 110.274 7.52444 110.426L14.8848 112.164L25.8358 114.748L31.1612 116.013C33.1339 116.482 35.2128 116.072 36.8611 114.891L41.1417 111.821L43.6922 109.992L48.1048 106.829C48.6173 106.462 48.8554 105.919 48.8554 105.38Z" fill="#FF7E88"/>
<path id="Vector_22" d="M32.7807 126.062C32.2166 126.062 31.6511 125.997 31.0915 125.865L7.45023 120.252C7.38958 120.237 7.33044 120.22 7.27282 120.199C7.18942 120.17 7.10906 120.137 7.03021 120.094C6.96197 120.058 6.8998 120.02 6.8437 119.98C6.82398 119.968 6.8073 119.955 6.78759 119.941C6.78304 119.938 6.77849 119.935 6.77546 119.932C6.74059 119.903 6.70571 119.876 6.67387 119.845C6.65415 119.829 6.63596 119.812 6.61776 119.792C6.60715 119.782 6.59653 119.771 6.58592 119.76C6.57227 119.748 6.56014 119.735 6.54801 119.721C6.53285 119.706 6.5192 119.689 6.50555 119.672C6.47977 119.644 6.45855 119.615 6.4358 119.585C6.38121 119.51 6.33117 119.43 6.29023 119.346C6.28113 119.331 6.27204 119.312 6.26294 119.292C6.24474 119.255 6.22958 119.218 6.21441 119.18C6.19773 119.137 6.18257 119.093 6.17044 119.051C6.15376 118.998 6.1386 118.935 6.12343 118.861C6.12192 118.85 6.1204 118.841 6.11889 118.831C6.11434 118.802 6.10979 118.776 6.10675 118.75C6.10221 118.711 6.09917 118.681 6.09766 118.649C6.09766 118.644 6.09766 118.638 6.09766 118.634V109.097C6.09766 108.931 6.23413 108.794 6.40092 108.794C6.56772 108.794 6.69358 108.92 6.70419 109.079C6.70419 109.09 6.70723 109.1 6.70723 109.11C6.70723 109.12 6.70874 109.131 6.71026 109.141L6.71481 109.175C6.76485 109.548 7.02414 110.003 7.59277 110.136L25.9041 114.458L31.2295 115.723C33.1174 116.172 35.1053 115.781 36.6823 114.65L47.926 106.587C48.3232 106.304 48.5492 105.866 48.5492 105.386C48.5492 105.219 48.6856 105.083 48.8524 105.083C49.0192 105.083 49.1557 105.219 49.1557 105.386V114.941C49.1557 115.619 48.8358 116.236 48.2777 116.636L37.0341 124.698C35.7801 125.596 34.2895 126.068 32.7762 126.068L32.7807 126.062ZM7.15 119.456C7.1591 119.462 7.16819 119.468 7.17729 119.474C7.18184 119.477 7.18639 119.48 7.19094 119.483C7.22581 119.507 7.26676 119.533 7.31225 119.557C7.36229 119.583 7.41536 119.606 7.46995 119.624C7.51089 119.638 7.55031 119.65 7.59125 119.66L31.2325 125.273C33.1204 125.722 35.1083 125.331 36.6853 124.199L47.929 116.137C48.3263 115.854 48.5522 115.415 48.5522 114.936V106.848C48.4703 106.93 48.3793 107.008 48.2808 107.077L37.0371 115.139C35.3176 116.372 33.1492 116.8 31.09 116.31L25.7646 115.045L7.45327 110.723C7.16819 110.656 6.91345 110.524 6.70419 110.342V118.621C6.70419 118.64 6.70723 118.656 6.70874 118.675C6.71177 118.7 6.71481 118.72 6.71784 118.741C6.71784 118.746 6.71936 118.752 6.71936 118.758C6.72694 118.796 6.73604 118.834 6.74817 118.872C6.75727 118.904 6.76636 118.931 6.77698 118.958C6.78759 118.984 6.79821 119.01 6.81034 119.036C6.81489 119.043 6.81792 119.051 6.82095 119.06C6.82398 119.064 6.82853 119.073 6.83005 119.076C6.85583 119.128 6.88767 119.18 6.92558 119.231C6.93923 119.251 6.94984 119.265 6.96197 119.278C6.96955 119.287 6.97713 119.296 6.98472 119.305C6.99381 119.315 7.00291 119.324 7.01049 119.334C7.01656 119.34 7.02262 119.346 7.02717 119.352C7.03627 119.36 7.04385 119.368 7.05295 119.378C7.05902 119.384 7.07266 119.396 7.07873 119.403C7.09996 119.422 7.1227 119.442 7.14696 119.46L7.15 119.456Z" fill="black"/>
</g>
<g id="Group_14">
<path id="Vector_23" d="M25.8359 114.748L14.8848 112.164L7.52451 110.426C6.88007 110.274 6.49037 109.76 6.41455 109.202C6.49947 109.75 6.88613 110.25 7.51996 110.4L14.8788 112.147L25.8359 114.748Z" fill="#FF7E88"/>
<path id="Vector_24" d="M25.8374 115.053C25.8147 115.053 25.7904 115.05 25.7677 115.045L7.45635 110.723C6.74063 110.555 6.21446 109.974 6.1159 109.245C6.09316 109.079 6.2084 108.928 6.37216 108.903C6.53744 108.881 6.69059 108.993 6.71486 109.157C6.77248 109.53 7.03329 109.974 7.58979 110.106L25.9057 114.454C26.0679 114.492 26.1695 114.656 26.1301 114.819C26.0967 114.959 25.9724 115.053 25.8359 115.053H25.8374Z" fill="black"/>
</g>
<g id="Group_15">
<path id="Vector_25" d="M48.8554 114.935V124.489C48.8554 125.028 48.6173 125.571 48.1048 125.938L41.1417 130.93L36.8611 134C35.2128 135.181 33.1339 135.591 31.1612 135.122L14.8787 131.256L7.51989 129.509C7.46833 129.497 7.41981 129.482 7.37129 129.465C7.30002 129.441 7.2333 129.412 7.16961 129.379C7.11502 129.35 7.06195 129.318 7.01343 129.283C6.99675 129.273 6.98159 129.262 6.96491 129.25C6.93306 129.224 6.90122 129.198 6.87241 129.171C6.85725 129.159 6.8436 129.145 6.82995 129.13C6.81934 129.121 6.81024 129.112 6.80114 129.101C6.79204 129.092 6.78295 129.081 6.77385 129.071C6.76172 129.06 6.7511 129.048 6.74352 129.036C6.72078 129.012 6.70258 128.987 6.68438 128.962C6.63738 128.898 6.59644 128.833 6.56156 128.763C6.55398 128.749 6.5464 128.736 6.54185 128.722C6.52517 128.689 6.51152 128.655 6.49787 128.62C6.48423 128.586 6.4721 128.549 6.46148 128.514C6.4448 128.461 6.43267 128.408 6.42206 128.353V128.349C6.41751 128.322 6.41296 128.294 6.40993 128.267C6.40689 128.24 6.40386 128.212 6.40234 128.184V118.647C6.40386 118.669 6.40689 118.691 6.40993 118.713C6.41296 118.74 6.41599 118.767 6.42206 118.795V118.799C6.43267 118.854 6.4448 118.907 6.46148 118.96C6.47058 118.996 6.48423 119.031 6.49787 119.066C6.51 119.101 6.52517 119.134 6.54185 119.168C6.5464 119.181 6.55398 119.195 6.56156 119.209C6.59644 119.278 6.63738 119.344 6.68438 119.407C6.70258 119.433 6.72078 119.457 6.74352 119.482C6.7511 119.494 6.76172 119.506 6.77385 119.516C6.78143 119.527 6.79053 119.538 6.80114 119.547C6.81024 119.557 6.81934 119.566 6.82995 119.576C6.8436 119.591 6.85725 119.604 6.87241 119.616C6.90122 119.644 6.93306 119.67 6.96491 119.695C6.98159 119.707 6.99675 119.72 7.01343 119.729C7.06195 119.764 7.11502 119.795 7.16961 119.824C7.2333 119.858 7.30002 119.886 7.37129 119.911C7.41981 119.927 7.46833 119.943 7.51989 119.955L14.8787 121.702L31.1612 125.568C33.1339 126.036 35.2128 125.627 36.8611 124.445L41.1417 121.376L46.1305 117.798L48.1048 116.383C48.6173 116.016 48.8554 115.473 48.8554 114.935Z" fill="#FF7E88"/>
<path id="Vector_26" d="M32.7807 135.616C32.2166 135.616 31.651 135.551 31.0915 135.419L7.45018 129.806C7.38953 129.791 7.33039 129.774 7.27277 129.753C7.18937 129.724 7.109 129.691 7.03016 129.649C6.96192 129.612 6.89975 129.574 6.84364 129.535C6.82393 129.523 6.80725 129.509 6.78754 129.495C6.78299 129.492 6.77844 129.489 6.77541 129.486C6.74053 129.457 6.70566 129.43 6.67381 129.4C6.6541 129.383 6.63591 129.366 6.61771 129.347C6.60406 129.335 6.59193 129.322 6.5798 129.309C6.57222 129.3 6.56312 129.291 6.55554 129.282C6.53734 129.263 6.52066 129.245 6.50702 129.225C6.48124 129.197 6.46001 129.168 6.43727 129.137C6.38268 129.063 6.33264 128.983 6.2917 128.899C6.2826 128.884 6.2735 128.864 6.2644 128.845C6.24621 128.808 6.23104 128.77 6.21588 128.733C6.1992 128.69 6.18404 128.646 6.17191 128.604C6.15523 128.551 6.14006 128.488 6.1249 128.414C6.12338 128.403 6.12187 128.394 6.12035 128.384C6.1158 128.355 6.11125 128.329 6.10822 128.303C6.10367 128.264 6.10064 128.234 6.09912 128.202C6.09912 128.197 6.09912 128.191 6.09912 128.187V118.65C6.09912 118.487 6.22801 118.353 6.39178 118.347C6.55402 118.341 6.69353 118.467 6.70414 118.629C6.70414 118.644 6.70717 118.659 6.71021 118.673C6.71324 118.7 6.71476 118.716 6.71779 118.731C6.7193 118.74 6.72234 118.75 6.72234 118.76C6.72992 118.797 6.73902 118.834 6.74963 118.87C6.75115 118.876 6.75266 118.882 6.75418 118.888C6.76025 118.913 6.76934 118.934 6.77844 118.957C6.79057 118.99 6.80119 119.011 6.8118 119.034C6.81635 119.042 6.81938 119.049 6.82242 119.058C6.82545 119.063 6.83 119.072 6.83151 119.075C6.85729 119.127 6.88914 119.178 6.92704 119.23C6.94069 119.249 6.95131 119.263 6.96344 119.277C6.97102 119.286 6.9786 119.295 6.98618 119.304C6.99528 119.313 7.00438 119.322 7.01196 119.333C7.01802 119.339 7.02409 119.345 7.02864 119.351C7.03774 119.359 7.04532 119.366 7.05442 119.377C7.06048 119.383 7.07413 119.395 7.08019 119.401C7.10142 119.421 7.12568 119.44 7.14995 119.46C7.15298 119.462 7.15601 119.465 7.15601 119.465C7.16663 119.471 7.18027 119.48 7.18937 119.487C7.22425 119.512 7.26519 119.538 7.31068 119.562C7.36072 119.588 7.41379 119.61 7.46838 119.629C7.50932 119.642 7.54874 119.654 7.58969 119.665L31.231 125.278C33.1188 125.727 35.1067 125.335 36.6837 124.204L47.9274 116.142C48.3247 115.858 48.5506 115.42 48.5506 114.941C48.5506 114.774 48.6871 114.637 48.8539 114.637C49.0207 114.637 49.1572 114.774 49.1572 114.941V124.495C49.1572 125.173 48.8372 125.79 48.2792 126.191L37.0355 134.253C35.7815 135.151 34.291 135.622 32.7776 135.622L32.7807 135.616ZM7.14995 129.01C7.15904 129.016 7.16814 129.022 7.17724 129.028C7.18179 129.031 7.18634 129.034 7.19089 129.037C7.22576 129.062 7.2667 129.087 7.31219 129.112C7.36223 129.137 7.41531 129.16 7.46989 129.178C7.51084 129.192 7.55026 129.204 7.5912 129.215L31.2325 134.828C33.1203 135.277 35.1083 134.885 36.6853 133.754L47.9289 125.692C48.3262 125.408 48.5521 124.97 48.5521 124.491V116.403C48.4703 116.485 48.3793 116.562 48.2807 116.632L37.037 124.694C35.3175 125.927 33.1491 126.355 31.09 125.865L7.44867 120.252C7.38801 120.237 7.32887 120.22 7.27125 120.199C7.18785 120.17 7.10749 120.137 7.02864 120.094C6.96192 120.059 6.90127 120.023 6.84819 119.985C6.83 119.974 6.81332 119.962 6.79512 119.949C6.79209 119.945 6.77693 119.935 6.77389 119.932C6.75115 119.914 6.72689 119.894 6.70566 119.874V128.174C6.70566 128.193 6.70869 128.209 6.71021 128.227C6.71324 128.253 6.71627 128.273 6.7193 128.294C6.7193 128.299 6.72082 128.305 6.72082 128.311C6.7284 128.349 6.7375 128.387 6.74963 128.425C6.75873 128.457 6.76783 128.484 6.77844 128.511C6.78906 128.537 6.79967 128.563 6.8118 128.588C6.81635 128.596 6.81938 128.604 6.82242 128.613C6.82545 128.617 6.83 128.626 6.83151 128.629C6.85729 128.681 6.88914 128.733 6.92704 128.784C6.94069 128.804 6.95131 128.817 6.96344 128.831C6.97102 128.84 6.9786 128.849 6.98618 128.858C6.99225 128.864 6.99831 128.871 7.00438 128.878L7.01499 128.89C7.01499 128.89 7.02561 128.901 7.02864 128.904C7.03774 128.911 7.04532 128.919 7.05442 128.93C7.06048 128.936 7.07413 128.948 7.08019 128.954C7.10142 128.974 7.12417 128.993 7.14843 129.012L7.14995 129.01Z" fill="black"/>
</g>
<g id="Group_16">
<path id="Vector_27" d="M48.8554 124.489V134.039C48.8569 134.579 48.6188 135.123 48.1048 135.492L36.8611 143.554C35.2128 144.736 33.1339 145.145 31.1612 144.676L7.51989 139.064C6.83602 138.901 6.44177 138.334 6.40234 137.738V128.202C6.40386 128.223 6.40689 128.246 6.40993 128.267C6.41296 128.294 6.41599 128.322 6.42206 128.349V128.353C6.43267 128.408 6.4448 128.461 6.46148 128.514C6.47058 128.551 6.48423 128.586 6.49787 128.62C6.51 128.655 6.52517 128.689 6.54185 128.722C6.5464 128.736 6.55398 128.749 6.56156 128.763C6.59644 128.833 6.63738 128.898 6.68438 128.962C6.70258 128.987 6.72078 129.012 6.74352 129.036C6.7511 129.048 6.76172 129.06 6.77385 129.071C6.79053 129.092 6.81024 129.112 6.82995 129.13C6.8436 129.145 6.85725 129.159 6.87241 129.171C6.90122 129.198 6.93306 129.224 6.96491 129.25C6.98159 129.262 6.99675 129.274 7.01343 129.283C7.06195 129.318 7.11502 129.35 7.16961 129.379C7.2333 129.412 7.30002 129.441 7.37129 129.465C7.41981 129.482 7.46833 129.497 7.51989 129.509L14.8787 131.256L31.1612 135.122C33.1339 135.591 35.2128 135.181 36.8611 134L41.1417 130.93L48.1048 125.938C48.6173 125.571 48.8554 125.028 48.8554 124.489Z" fill="#FF7E88"/>
<path id="Vector_28" d="M32.7806 145.171C32.2165 145.171 31.651 145.106 31.0914 144.974L7.45013 139.361C6.69348 139.182 6.15214 138.539 6.10059 137.761C6.10059 137.755 6.10059 137.747 6.10059 137.741V128.205C6.10059 128.041 6.22947 127.908 6.39324 127.901C6.55549 127.897 6.69499 128.021 6.70561 128.184C6.70561 128.199 6.70864 128.214 6.71167 128.228C6.7147 128.255 6.71622 128.27 6.71925 128.285C6.72077 128.294 6.7238 128.305 6.7238 128.314C6.73138 128.352 6.74048 128.388 6.7511 128.425C6.75261 128.431 6.75413 128.437 6.75565 128.443C6.76171 128.467 6.77081 128.488 6.77991 128.511C6.79204 128.545 6.80265 128.566 6.81327 128.589C6.81782 128.596 6.82085 128.604 6.82388 128.613C6.82691 128.619 6.83146 128.626 6.83298 128.629C6.85876 128.681 6.8906 128.733 6.92851 128.784C6.94216 128.804 6.95277 128.818 6.9649 128.831C6.97248 128.84 6.98006 128.849 6.98765 128.858C6.99674 128.868 7.00584 128.877 7.01342 128.887C7.02101 128.896 7.0301 128.904 7.03769 128.912C7.04375 128.918 7.04982 128.924 7.05588 128.93C7.06195 128.936 7.07559 128.948 7.08166 128.954C7.10289 128.974 7.12715 128.993 7.15141 129.013C7.15444 129.016 7.15748 129.018 7.15748 129.018C7.16809 129.024 7.18174 129.033 7.19084 129.04C7.22571 129.065 7.26665 129.09 7.31214 129.115C7.36218 129.141 7.41525 129.163 7.46984 129.181C7.51078 129.195 7.55021 129.207 7.59115 129.218L31.2324 134.831C33.1203 135.28 35.1082 134.888 36.6852 133.757L47.9289 125.695C48.3262 125.411 48.5521 124.973 48.5521 124.494C48.5521 124.327 48.6886 124.19 48.8554 124.19C49.0222 124.19 49.1586 124.327 49.1586 124.494V134.044C49.1601 134.722 48.8417 135.342 48.2822 135.744L37.0385 143.806C35.7845 144.704 34.2939 145.175 32.7806 145.175V145.171ZM6.70561 137.727C6.73442 138.12 6.9831 138.625 7.58963 138.768L31.2309 144.381C33.1188 144.83 35.1067 144.438 36.6837 143.307L47.9274 135.245C48.3246 134.96 48.5521 134.52 48.5506 134.039V125.954C48.4687 126.036 48.3777 126.113 48.2792 126.183L37.0355 134.245C35.3159 135.478 33.1476 135.906 31.0884 135.416L7.4471 129.803C7.38644 129.788 7.32731 129.771 7.26969 129.75C7.18629 129.721 7.10592 129.688 7.02707 129.646C6.96035 129.611 6.8997 129.574 6.84663 129.536C6.82843 129.526 6.81175 129.514 6.79355 129.5C6.79052 129.497 6.77536 129.486 6.77233 129.483C6.74958 129.465 6.72532 129.445 6.70409 129.426V137.724L6.70561 137.727Z" fill="black"/>
</g>
</g>
</g>
</g>
</g>
</g>
<defs>
<clipPath id="clip0_1338_274">
<rect width="110" height="138.171" fill="white" transform="translate(5 7)"/>
</clipPath>
</defs>
</svg>
