<svg width="128" height="128" viewBox="0 0 128 128" fill="none" xmlns="http://www.w3.org/2000/svg">
<g id="illustration / deriv / light / ad-blocked">
<g id="vector">
<g id="cursor">
<g id="Group">
<g id="Group_2">
<g id="Group_3">
<path id="Vector" d="M78.7059 20.6835V103.477C78.7059 104.856 78.2587 106.117 77.5053 107.14C76.5822 108.394 75.1983 109.282 73.6227 109.566H73.621C73.0426 109.67 72.4389 109.694 71.8218 109.623L22.3935 105.606C18.9447 105.213 16.3384 102.293 16.3384 98.821V13.7606C16.3384 10.7826 18.6084 8.38643 21.4418 8.09216H21.4536C21.847 8.05181 22.2523 8.05181 22.6643 8.09721L29.5972 8.86735L34.7527 9.44075L70.8331 11.8807C75.316 12.3784 78.7076 16.1686 78.7076 20.6801L78.7059 20.6835Z" fill="white"/>
<path id="Vector_2" d="M72.5293 110C72.2805 110 72.0316 109.986 71.781 109.958L22.3528 105.941C18.7308 105.529 16 102.468 16 98.8211V13.7607C16 10.6616 18.3188 8.08214 21.396 7.75929C21.4044 7.75929 21.4128 7.75761 21.4179 7.75593C21.845 7.71389 22.2754 7.71725 22.6975 7.76433L70.8663 11.5478C75.5258 12.0657 79.0402 15.9921 79.0402 20.6819V103.476C79.0402 104.878 78.603 106.213 77.774 107.336C76.7785 108.69 75.324 109.598 73.6795 109.894C73.6744 109.894 73.6694 109.894 73.6643 109.896C73.291 109.963 72.9093 109.997 72.5276 109.997L72.5293 110ZM21.4935 8.42518C21.4935 8.42518 21.4784 8.42686 21.475 8.42854C18.7375 8.71272 16.6726 11.0046 16.6726 13.7624V98.8227C16.6726 102.127 19.1478 104.9 22.4284 105.273L71.8567 109.29C72.4284 109.356 73.0018 109.337 73.5584 109.236C73.5635 109.236 73.5685 109.235 73.5735 109.235C75.0432 108.967 76.343 108.154 77.2325 106.941C77.9758 105.932 78.3676 104.735 78.3676 103.479V20.6852C78.3676 16.3385 75.1105 12.6996 70.7923 12.2204L22.6235 8.43694C22.2502 8.39491 21.8702 8.39323 21.4918 8.42854L21.4935 8.42518Z" fill="black"/>
</g>
<g id="Group_4">
<path id="Vector_3" d="M88.6518 18.9517V101.745C88.6518 105.085 86.027 107.748 82.8119 107.922V107.933L73.6191 109.565C75.1963 109.28 76.5802 108.393 77.5017 107.138C78.255 106.116 78.7023 104.855 78.7023 103.476V20.682C78.7023 16.1688 75.3107 12.3803 70.8277 11.8826L34.7474 9.44265L29.5918 8.86925L22.6589 8.09911C22.247 8.05371 21.8417 8.0537 21.4482 8.0907L33.2525 6.43607H33.2542C33.8007 6.33181 34.3724 6.30491 34.9609 6.36881L80.7756 10.1506C85.2602 10.65 88.6502 14.4402 88.6502 18.95L88.6518 18.9517Z" fill="#EBECEE"/>
<path id="Vector_4" d="M73.6219 109.903C73.4588 109.903 73.3176 109.785 73.2907 109.62C73.2621 109.438 73.3831 109.269 73.5631 109.235C75.0378 108.969 76.3426 108.154 77.2355 106.94C77.9787 105.931 78.3705 104.733 78.3705 103.477V20.6837C78.3705 16.3369 75.1134 12.6981 70.7953 12.2189L22.6265 8.43541C22.2515 8.39337 21.8664 8.39169 21.4847 8.42868C21.3048 8.4455 21.14 8.31602 21.1182 8.13273C21.0963 7.95112 21.2241 7.78633 21.4057 7.75943L33.2083 6.1048C33.7968 5.99382 34.4005 5.97028 35.0008 6.03754L80.8155 9.81931C85.475 10.3389 88.9893 14.2653 88.9893 18.9534V101.747C88.9893 105.182 86.3308 108.024 82.9207 108.255C82.9022 108.261 82.8837 108.266 82.8636 108.268L73.669 109.899C73.6539 109.901 73.6371 109.903 73.6219 109.903ZM24.6544 7.98139L70.8676 11.5479C75.5271 12.0658 79.0415 15.9922 79.0415 20.682V103.476C79.0415 104.878 78.6043 106.213 77.7753 107.336C77.3347 107.937 76.8034 108.448 76.2047 108.858L82.6887 107.609C82.7223 107.594 82.7576 107.585 82.7946 107.584C85.8903 107.417 88.315 104.851 88.315 101.742V18.9484C88.315 14.6033 85.0579 10.9644 80.7381 10.4835L34.9234 6.70175C34.3853 6.64289 33.8456 6.66307 33.3176 6.76396C33.3075 6.76565 33.2974 6.76733 33.2873 6.76901L24.651 7.97971L24.6544 7.98139Z" fill="black"/>
</g>
</g>
</g>
<g id="Group 20">
<path id="Vector 376" d="M24.2571 64.895L69.4545 68.5182" stroke="black" stroke-width="0.706241" stroke-linecap="round" stroke-linejoin="round"/>
<path id="Vector 377" d="M24.3835 74.6636L69.581 78.2868" stroke="black" stroke-width="0.706241" stroke-linecap="round" stroke-linejoin="round"/>
<path id="Vector 378" d="M24.51 84.4316L69.7074 88.0548" stroke="black" stroke-width="0.706241" stroke-linecap="round" stroke-linejoin="round"/>
<path id="Vector 379" d="M24.6365 94.2002L69.8339 97.8234" stroke="black" stroke-width="0.706241" stroke-linecap="round" stroke-linejoin="round"/>
</g>
<path id="Vector 381 (Stroke)" fill-rule="evenodd" clip-rule="evenodd" d="M36.1679 21.2597C36.3399 21.2624 36.4908 21.3749 36.5428 21.5389L43.986 45.0512C44.0526 45.2618 43.9359 45.4866 43.7253 45.5532C43.5147 45.6199 43.2899 45.5032 43.2233 45.2926L40.7278 37.4098L31.2874 36.6905L28.7794 43.751C28.7055 43.9592 28.4768 44.068 28.2686 43.994C28.0604 43.9201 27.9516 43.6914 28.0256 43.4832L30.6356 36.1354L35.7842 21.5266C35.8413 21.3644 35.9959 21.2569 36.1679 21.2597ZM31.5635 35.9092L40.4676 36.5877L36.1411 22.9207L31.5635 35.9092ZM48.2847 21.8352C48.3645 21.7583 48.4728 21.7181 48.5835 21.724L56.5446 22.1513C61.4778 22.416 65.3642 26.4542 65.4398 31.3939L65.5414 38.0321C65.6178 43.0219 61.3528 46.9775 56.3829 46.5263L48.8829 45.8454C48.6792 45.8269 48.5222 45.6576 48.5191 45.4531L48.1621 22.1295C48.1604 22.0187 48.2048 21.9121 48.2847 21.8352ZM48.9685 22.5458L49.3135 45.0812L56.4552 45.7295C60.9518 46.1378 64.8106 42.5589 64.7415 38.0444L64.6399 31.4061C64.5707 26.8869 61.0151 23.1923 56.5018 22.9501L48.9685 22.5458Z" fill="black"/>
</g>
<g id="block">
<g id="Group_5">
<path id="Vector_5" d="M120.998 98.8399C120.71 100.814 120.172 104.266 117.916 107.965C116.319 110.581 114.493 112.291 113.696 112.99C112.76 113.811 111.895 114.428 111.228 114.862C108.039 116.389 104.851 117.916 101.659 119.443C106.07 116.895 108.286 113.294 109.161 111.834C111.421 108.058 111.955 104.627 112.243 102.641C113.141 96.4464 111.687 91.6128 111.017 89.4721C110.192 86.8358 108.56 82.8322 105.273 78.8253C104.038 77.3184 101.529 74.3194 97.2197 71.8561C94.8395 70.4955 90.6646 68.1818 84.9278 68.3532C82.1501 68.4363 79.8265 69.0784 78.1399 69.7271C80.8228 68.3947 83.5057 67.0608 86.187 65.7285C87.5692 65.2261 89.4753 64.6822 91.7906 64.451C94.7447 64.1533 97.0483 64.4926 98.0064 64.6606C101.568 65.286 104.049 66.6316 105.554 67.46C106.401 67.929 109.645 69.7803 112.91 73.3447C113.738 74.2496 115.594 76.3869 117.321 79.5605C119.536 83.6339 120.429 87.3764 120.824 89.8048C121.106 91.5479 121.597 94.7332 120.998 98.8399Z" fill="#FF535E"/>
<path id="Vector_6" d="M101.661 119.776C101.541 119.776 101.426 119.711 101.366 119.598C101.283 119.44 101.34 119.243 101.494 119.155C105.924 116.595 108.148 112.883 108.878 111.662C111.151 107.866 111.649 104.435 111.917 102.592C112.823 96.3498 111.283 91.4247 110.702 89.5701C109.493 85.7013 107.58 82.1568 105.019 79.0364C103.938 77.7174 101.408 74.6303 97.0566 72.1453C94.8361 70.8762 90.7011 68.5144 84.9395 68.6857C82.6641 68.7539 80.4169 69.2096 78.2613 70.0363C78.095 70.0995 77.9087 70.0213 77.8371 69.86C77.7656 69.697 77.8355 69.5073 77.9935 69.4275C79.7782 68.541 81.563 67.6544 83.3477 66.7679L86.0406 65.4306C86.0522 65.4256 86.0639 65.4206 86.0755 65.4156C87.9068 64.7503 89.8196 64.3145 91.759 64.1199C93.883 63.9053 96.0636 63.9802 98.0663 64.3328C101.742 64.9782 104.329 66.4036 105.717 67.1687C107.224 68.0037 110.195 69.8866 113.157 73.12C114.836 74.953 116.378 77.1253 117.615 79.4023C119.373 82.6325 120.564 86.1154 121.155 89.7514C121.412 91.3415 121.95 94.6482 121.331 98.888C121.055 100.782 120.539 104.309 118.202 108.138C116.747 110.523 115.07 112.228 113.918 113.239C113.132 113.929 112.289 114.568 111.411 115.142C111.399 115.15 111.386 115.157 111.373 115.163C109.249 116.181 107.125 117.198 105.001 118.214L101.804 119.744C101.757 119.766 101.709 119.777 101.661 119.777V119.776ZM85.5166 68.0104C91.1652 68.0104 95.3418 70.3989 97.386 71.5665C101.844 74.113 104.428 77.2667 105.533 78.6139C108.149 81.8008 110.102 85.4202 111.336 89.3722C111.928 91.265 113.502 96.2949 112.574 102.689C112.299 104.578 111.789 108.094 109.447 112.005C108.889 112.936 107.486 115.281 104.929 117.51C106.975 116.531 109.019 115.553 111.065 114.573C111.91 114.021 112.722 113.404 113.478 112.74C114.595 111.759 116.223 110.104 117.633 107.792C119.899 104.079 120.401 100.641 120.671 98.7931C121.274 94.6548 120.749 91.4164 120.496 89.8595C119.917 86.2967 118.751 82.8853 117.028 79.7217C115.815 77.4912 114.305 75.3638 112.663 73.5708C109.766 70.4072 106.863 68.5676 105.393 67.7526C104.039 67.0057 101.516 65.6152 97.9482 64.9898C96.5926 64.7503 94.4303 64.5208 91.8222 64.7836C89.9427 64.9715 88.0914 65.394 86.3167 66.0377L83.6404 67.3667C82.9485 67.711 82.2565 68.0553 81.5646 68.3979C82.669 68.1817 83.7885 68.0569 84.9145 68.0237C85.1158 68.017 85.3154 68.0154 85.5133 68.0154L85.5166 68.0104Z" fill="black"/>
</g>
<g id="Group_6">
<path id="Vector_7" d="M102.371 94.3792C98.7787 97.7823 95.1843 101.187 91.5916 104.592C88.6725 105.977 85.755 107.365 82.8359 108.75C89.0517 102.862 95.2691 96.9706 101.487 91.0825C101.773 91.8443 102.14 92.972 102.371 94.3792Z" fill="#FF444F"/>
<path id="Vector_8" d="M82.8382 109.083C82.7317 109.083 82.627 109.031 82.5637 108.938C82.4706 108.803 82.4906 108.62 82.6087 108.509L101.259 90.8411C101.341 90.7645 101.454 90.7329 101.562 90.7579C101.67 90.7828 101.76 90.861 101.798 90.9642C102.209 92.0536 102.512 93.1847 102.701 94.324C102.72 94.4338 102.681 94.5436 102.602 94.6201C99.0088 98.0232 95.4144 101.428 91.8217 104.833C91.7968 104.856 91.7668 104.876 91.7352 104.891L82.9796 109.049C82.933 109.071 82.8848 109.081 82.8365 109.081L82.8382 109.083ZM101.347 91.6727L84.588 107.551L91.4042 104.314C94.9421 100.962 98.4799 97.6107 102.016 94.2592C101.861 93.3859 101.639 92.5177 101.347 91.6727Z" fill="black"/>
</g>
<g id="Group_7">
<path id="Vector_9" d="M99.3238 106.936C96.383 110.224 92.5641 110.829 91.774 110.939C87.0303 111.596 83.5773 109.281 82.8254 108.749C85.7445 107.363 88.662 105.976 91.5811 104.59C92.13 104.923 92.8468 105.312 93.7168 105.676C94.076 105.824 95.104 106.239 96.5194 106.551C97.2529 106.713 98.1994 106.874 99.3254 106.934L99.3238 106.936Z" fill="#FF444F"/>
<path id="Vector_10" d="M90.0822 111.39C86.4212 111.39 83.72 109.79 82.6355 109.022C82.5391 108.953 82.4858 108.839 82.4958 108.722C82.5058 108.604 82.5773 108.501 82.6838 108.451L91.4394 104.293C91.5409 104.245 91.659 104.251 91.7538 104.309C92.4174 104.712 93.121 105.07 93.8462 105.374C94.6912 105.723 95.6409 106.021 96.5907 106.231C97.4922 106.43 98.417 106.557 99.3434 106.606C99.4715 106.613 99.5829 106.693 99.6328 106.811C99.6811 106.929 99.6595 107.066 99.573 107.16C96.7753 110.287 93.2191 111.077 91.8203 111.272C91.2199 111.355 90.6377 111.392 90.0805 111.392L90.0822 111.39ZM83.5005 108.799C84.9509 109.714 87.9165 111.139 91.7322 110.61C92.9796 110.437 96.0384 109.763 98.6033 107.215C97.8781 107.147 97.1562 107.034 96.4493 106.878C95.4613 106.66 94.4733 106.35 93.5917 105.986C92.8915 105.693 92.2112 105.351 91.5658 104.97L83.5005 108.8V108.799Z" fill="black"/>
</g>
<g id="Group_8">
<path id="Vector_11" d="M83.5625 84.8046C83.3545 85.5465 82.819 87.6622 83.0751 90.4166C83.1283 91.0021 83.2132 91.5493 83.313 92.0516C80.7232 94.52 78.1351 96.985 75.5453 99.4533C74.9931 98.1693 74.2579 96.0203 74.2147 93.2891C74.1881 91.7489 74.1798 88.7916 76.0011 85.7244C76.6531 84.6267 78.5892 81.7408 82.305 80.3303C83.6606 79.8147 84.9863 79.5985 86.2304 79.5752C85.4254 80.5965 84.2544 82.3529 83.5625 84.8046Z" fill="#FF444F"/>
<path id="Vector_12" d="M75.5482 99.7857C75.5266 99.7857 75.5033 99.784 75.4817 99.779C75.3752 99.7574 75.2854 99.6842 75.2422 99.5844C74.3756 97.5702 73.9182 95.4544 73.8849 93.2938C73.8599 91.8251 73.8084 88.7696 75.7179 85.5545C76.5977 84.0708 78.6087 81.3779 82.1898 80.019C83.4755 79.53 84.8344 79.2688 86.2266 79.2422C86.363 79.2406 86.4744 79.3121 86.531 79.4269C86.5876 79.5416 86.5742 79.6797 86.4944 79.7811C85.2902 81.308 84.4119 83.0296 83.8847 84.8958C83.5454 86.1017 83.1894 88.0328 83.409 90.3864C83.4589 90.9203 83.5371 91.4592 83.6418 91.9881C83.6635 92.0996 83.6285 92.216 83.5454 92.2942C80.9689 94.7492 78.3958 97.2009 75.8193 99.656L75.7777 99.6959C75.7145 99.7558 75.633 99.7874 75.5482 99.7874V99.7857ZM85.5413 79.9425C84.4685 80.0273 83.4239 80.2618 82.426 80.6411C79.0345 81.9285 77.1267 84.4849 76.29 85.8938C74.477 88.9476 74.5269 91.8767 74.5502 93.2838C74.5802 95.1983 74.9561 97.0778 75.6696 98.8775C78.098 96.5639 80.5248 94.2519 82.9549 91.9366C82.8617 91.4442 82.7919 90.9436 82.747 90.4462C82.5174 87.9912 82.8917 85.9736 83.246 84.7145C83.7317 82.993 84.5034 81.3912 85.5413 79.9425Z" fill="black"/>
</g>
<g id="Group_9">
<path id="Vector_13" d="M111.02 89.4727C110.195 86.8364 108.563 82.8311 105.277 78.8259C104.041 77.3206 101.533 74.32 97.2214 71.8566C94.8429 70.4977 90.668 68.1824 84.9279 68.3537C80.5052 68.4868 77.2335 70.0337 75.858 70.7705C74.9265 71.2678 71.8244 73.021 69.0983 76.5838C66.3073 80.2314 65.4457 83.7775 64.9999 85.6887C63.9953 90.0116 64.3612 93.463 64.5791 95.3541C64.7803 97.1089 65.3592 100.805 67.3452 105.055C69.9516 110.63 73.4894 113.97 74.489 114.878C76.6031 116.799 80.5451 120.38 86.8873 121.603C88.8833 121.987 94.9677 123.068 101.177 119.712C105.911 117.153 108.256 113.344 109.162 111.831C111.423 108.057 111.955 104.624 112.244 102.638C113.144 96.4453 111.689 91.61 111.019 89.4694L111.02 89.4727ZM74.2113 93.29C74.1863 91.7498 74.178 88.7924 75.9977 85.7253C76.6497 84.6275 78.5874 81.7417 82.3016 80.3312C88.1597 78.1073 93.4424 81.4489 94.0345 81.8365C87.8703 87.7079 81.7061 93.5811 75.5436 99.4525C74.9914 98.1701 74.2562 96.0211 74.2129 93.2883L74.2113 93.29ZM102.492 98.9635C102.298 100.737 101.957 103.854 99.5251 106.713C96.5594 110.197 92.5858 110.83 91.7758 110.941C87.032 111.598 83.579 109.283 82.8272 108.752C89.043 102.862 95.2604 96.9725 101.476 91.0828C102.032 92.5548 102.882 95.3974 102.492 98.9635Z" fill="#FF7E88"/>
<path id="Vector_14" d="M91.631 122.407C90.0758 122.407 88.4741 122.249 86.8258 121.932C80.3921 120.691 76.4085 117.071 74.2678 115.127C72.5929 113.605 69.4259 110.292 67.0457 105.197C65.5987 102.102 64.6323 98.7101 64.2497 95.3935C64.0518 93.6703 63.6393 90.0826 64.6772 85.6149C65.088 83.8452 65.9446 80.1626 68.8338 76.3819C71.347 73.0952 74.2146 71.2722 75.6999 70.4772C77.6693 69.4243 80.8661 68.1436 84.9179 68.0222C90.8759 67.8425 95.1073 70.266 97.3861 71.5683C101.837 74.1115 104.427 77.2685 105.533 78.6157C108.146 81.801 110.1 85.4203 111.336 89.374C111.928 91.2668 113.502 96.295 112.574 102.689C112.299 104.578 111.789 108.098 109.448 112.005C108.657 113.327 106.246 117.352 101.336 120.007C98.3791 121.605 95.129 122.409 91.6327 122.409L91.631 122.407ZM85.5367 68.6775C85.3388 68.6775 85.1392 68.6808 84.9362 68.6858C81.0142 68.8039 77.9188 70.0431 76.0126 71.0627C74.5739 71.8311 71.7978 73.5975 69.3611 76.7844C66.5567 80.4504 65.7234 84.0381 65.3226 85.763C64.3113 90.1191 64.7138 93.6287 64.9084 95.3153C65.2826 98.5621 66.2291 101.882 67.6462 104.914C69.9781 109.902 73.0752 113.144 74.7136 114.633C76.806 116.534 80.6998 120.072 86.9505 121.276C92.1516 122.279 96.8838 121.654 101.019 119.418C105.769 116.85 108.108 112.943 108.876 111.661C111.148 107.867 111.647 104.435 111.915 102.591C112.822 96.3466 111.281 91.4232 110.701 89.5703C109.488 85.6981 107.577 82.1536 105.017 79.0349C103.934 77.7159 101.4 74.6271 97.0551 72.1438C94.9127 70.9196 90.9873 68.6758 85.5367 68.6758V68.6775ZM90.0808 111.389C86.4249 111.389 83.7204 109.789 82.6326 109.023C82.5511 108.964 82.4995 108.875 82.4928 108.775C82.4862 108.675 82.5228 108.578 82.596 108.509L101.245 90.8394C101.326 90.7628 101.44 90.7312 101.548 90.7562C101.656 90.7811 101.746 90.8593 101.784 90.9624C102.755 93.5322 103.113 96.3116 102.818 98.9962C102.627 100.741 102.273 103.988 99.7729 106.924C96.9503 110.238 93.2694 111.065 91.8173 111.266C91.2169 111.35 90.638 111.386 90.0792 111.386L90.0808 111.389ZM83.3544 108.708C84.7483 109.615 87.7888 111.157 91.7275 110.611C93.1047 110.42 96.5943 109.638 99.2689 106.496C101.636 103.715 101.963 100.718 102.16 98.928L102.491 98.9629L102.16 98.9263C102.424 96.5096 102.138 94.0129 101.335 91.6743L83.3544 108.708ZM75.5402 99.7863C75.5186 99.7863 75.4953 99.7846 75.4737 99.7796C75.3672 99.758 75.2774 99.6848 75.2342 99.585C74.3676 97.5724 73.9102 95.455 73.8769 93.2944C73.8536 91.824 73.8037 88.7652 75.7099 85.555C76.5898 84.0714 78.6024 81.3801 82.1818 80.0196C88.0233 77.8024 93.2295 80.9128 94.2141 81.5581C94.299 81.613 94.3539 81.7045 94.3622 81.806C94.3705 81.9074 94.3339 82.0072 94.2607 82.0771L75.7698 99.6931C75.7066 99.753 75.6251 99.7846 75.5402 99.7846V99.7863ZM74.5422 93.2844C74.5722 95.1989 74.9498 97.0784 75.6617 98.8781L93.4889 81.8941C92.1084 81.0824 87.4428 78.7338 82.4163 80.6433C79.0249 81.9307 77.117 84.4872 76.2804 85.896C74.4707 88.9449 74.519 91.8773 74.5406 93.2861L74.5422 93.2844Z" fill="black"/>
</g>
</g>
</g>
</g>
</svg>
