<svg width="120" height="152" viewBox="0 0 120 152" fill="none" xmlns="http://www.w3.org/2000/svg">
<g id="illustration / deriv / light / mission" clip-path="url(#clip0_2614_349)">
<g id="Mission">
<g id="Group">
<g id="Group_2">
<path id="Vector" d="M92.9422 95.3675C81.401 115.357 61.5644 126.769 43.1863 125.911C40.6804 125.794 38.2026 125.448 35.7767 124.866C33.9082 124.418 32.0705 123.828 30.2736 123.093C28.7139 122.455 27.1851 121.707 25.6955 120.848C3.93419 108.283 -1.24047 76.5052 14.1375 49.8696C29.5155 23.234 59.6242 11.8261 81.3842 24.3894C82.7403 25.1727 84.0333 26.0305 85.2603 26.9598C86.9744 28.2528 88.5622 29.6819 90.0166 31.2304C91.6998 33.0175 93.2076 34.9619 94.5356 37.0396C104.448 52.5271 104.475 75.3933 92.9422 95.3675Z" fill="white"/>
<path id="Vector_2" d="M45.1503 126.239C44.4891 126.239 43.8307 126.223 43.1737 126.192C40.6355 126.073 38.124 125.718 35.7121 125.139C33.8225 124.686 31.9568 124.085 30.1683 123.354C28.5945 122.711 27.0433 121.95 25.5566 121.092C20.198 117.998 15.7421 113.713 12.3111 108.355C9.00074 103.184 6.78122 97.2375 5.71288 90.6814C3.52004 77.2113 6.42464 62.6686 13.8946 49.7306C21.3646 36.7911 32.5071 27.0033 45.2683 22.167C51.4804 19.8141 57.7402 18.7626 63.8723 19.0448C70.2276 19.3368 76.166 21.0523 81.5246 24.1465C82.8835 24.9312 84.1975 25.803 85.4301 26.7366C87.1386 28.0254 88.7503 29.4727 90.2215 31.0395C91.8977 32.8182 93.428 34.7864 94.7729 36.8894C99.7411 44.6514 102.261 54.2089 102.062 64.5273C101.858 75.0914 98.7879 85.8044 93.1851 95.5093C87.578 105.221 79.8273 113.24 70.7723 118.7C62.5583 123.651 53.742 126.24 45.1503 126.24V126.239ZM61.9238 19.5614C56.4852 19.5614 50.9595 20.6115 45.4676 22.6921C32.8258 27.4821 21.7858 37.1828 14.3818 50.0099C6.97636 62.8357 4.09422 77.2478 6.26741 90.5902C7.32312 97.0704 9.51456 102.946 12.7842 108.051C16.1661 113.333 20.5574 117.557 25.8373 120.605C27.3016 121.45 28.8304 122.2 30.3816 122.833C32.1449 123.554 33.9826 124.147 35.8441 124.593C38.2223 125.165 40.6987 125.514 43.2018 125.632C52.3002 126.057 61.7356 123.493 70.4859 118.218C79.4595 112.808 87.1414 104.858 92.7022 95.2285C98.2573 85.6064 101.301 74.9862 101.503 64.5175C101.7 54.31 99.2105 44.8605 94.3026 37.1926C92.9773 35.1191 91.4682 33.179 89.8158 31.4241C88.3656 29.8813 86.7778 28.4549 85.0946 27.1858C83.8803 26.2663 82.5859 25.4071 81.2466 24.635C75.9667 21.5872 70.1139 19.8956 63.8499 19.6078C63.2097 19.5783 62.5681 19.5642 61.9252 19.5642L61.9238 19.5614Z" fill="black"/>
</g>
<g id="Group_3">
<path id="Vector_3" d="M81.3294 88.6628C73.1898 102.76 59.1988 110.81 46.2383 110.205C44.4709 110.122 42.723 109.878 41.0131 109.468C39.6949 109.152 38.3991 108.737 37.1314 108.217C36.0308 107.768 34.9526 107.24 33.9025 106.634C18.5555 97.7725 14.9054 75.3597 25.7503 56.5746C36.5966 37.7894 57.8301 29.7439 73.1772 38.6037C74.1332 39.1568 75.0457 39.7605 75.9105 40.4161C77.1192 41.3286 78.2395 42.3366 79.2643 43.4274C80.452 44.688 81.5147 46.0596 82.4511 47.5238C89.4424 58.4473 89.4606 74.5736 81.328 88.6614L81.3294 88.6628Z" fill="#EBECEE"/>
<path id="Vector_4" d="M47.6241 110.518C47.1566 110.518 46.6905 110.507 46.2258 110.486C44.4303 110.402 42.6544 110.15 40.9473 109.74C39.6108 109.42 38.2911 108.995 37.0249 108.477C35.9116 108.022 34.8138 107.483 33.7623 106.876C26.2656 102.548 21.2805 94.9098 19.7278 85.3705C18.1779 75.8523 20.2304 65.576 25.5089 56.434C30.7861 47.2934 38.6604 40.3766 47.6788 36.9595C56.7169 33.5355 65.8238 34.0325 73.3205 38.3606C74.2821 38.9151 75.2115 39.5328 76.0833 40.1927C77.292 41.1038 78.4319 42.1286 79.4722 43.2362C80.6571 44.4941 81.7409 45.8867 82.6913 47.3748C89.9746 58.7532 89.5351 75.0142 81.5738 88.803C77.6121 95.6651 72.137 101.33 65.7382 105.188C59.9318 108.687 53.7 110.517 47.6241 110.517V110.518ZM59.4713 35.2721C55.6879 35.2721 51.7767 36.0077 47.8754 37.4846C38.9776 40.8567 31.2058 47.6851 25.9933 56.7148C20.7807 65.7445 18.7507 75.8888 20.2809 85.2807C21.8069 94.6515 26.6938 102.148 34.043 106.391C35.0721 106.984 36.1474 107.511 37.2382 107.957C38.4779 108.464 39.7694 108.881 41.0792 109.194C42.7526 109.596 44.4934 109.841 46.2525 109.924C52.6527 110.223 59.2916 108.419 65.4476 104.707C71.765 100.899 77.1727 95.3029 81.0867 88.5222C84.9978 81.7486 87.1401 74.2716 87.2833 66.9027C87.4223 59.7205 85.6703 53.0717 82.2182 47.6781C81.286 46.2195 80.2247 44.8549 79.0637 43.6223C78.0445 42.5371 76.9284 41.5348 75.7449 40.6419C74.8914 39.9947 73.9803 39.391 73.0397 38.8478C68.9207 36.4696 64.3006 35.2721 59.4741 35.2721H59.4713Z" fill="black"/>
</g>
<g id="Group_4">
<path id="Vector_5" d="M69.0174 81.5547C64.4843 89.4065 56.6929 93.8891 49.4742 93.5521C48.4901 93.5058 47.5172 93.3696 46.564 93.1408C45.8297 92.9653 45.1082 92.7337 44.402 92.4445C43.7899 92.1946 43.1891 91.8998 42.6036 91.5629C34.0555 86.6283 32.0241 74.1465 38.0635 63.6834C44.1044 53.2218 55.9306 48.7407 64.4773 53.6753C65.0094 53.9827 65.5176 54.3196 65.9991 54.6846C66.673 55.1928 67.2963 55.7544 67.8677 56.3623C68.5289 57.0642 69.1213 57.8279 69.6421 58.6435C73.5351 64.7265 73.5463 73.7085 69.016 81.5533L69.0174 81.5547Z" fill="white"/>
<path id="Vector_6" d="M50.2506 93.8497C49.9866 93.8497 49.7241 93.8441 49.4602 93.8315C48.4522 93.7838 47.4555 93.6434 46.498 93.4131C45.7484 93.2334 45.0071 92.9948 44.2953 92.7042C43.6706 92.4487 43.0543 92.1468 42.4633 91.8057C33.7958 86.8009 31.7125 74.1226 37.8207 63.543C40.7744 58.4273 45.1812 54.5569 50.2309 52.6434C55.3003 50.7229 60.4089 51.0023 64.6177 53.4324C65.1582 53.744 65.6791 54.0908 66.169 54.4614C66.8471 54.9738 67.4887 55.548 68.0727 56.1699C68.7381 56.8761 69.346 57.658 69.8794 58.4933C73.9605 64.8683 73.7176 73.9766 69.2603 81.695C64.9547 89.1524 57.5633 93.8511 50.2506 93.8511V93.8497ZM56.8431 51.9443C54.7514 51.9443 52.588 52.3514 50.4302 53.1684C45.5013 55.0356 41.1956 58.8204 38.3078 63.8238C32.354 74.1352 34.3447 86.4696 42.7455 91.3186C43.314 91.6471 43.9079 91.9377 44.5101 92.1833C45.1952 92.4641 45.9084 92.6929 46.6314 92.867C47.5551 93.0888 48.5168 93.225 49.4897 93.2699C56.8501 93.6153 64.4198 88.9587 68.776 81.4129C73.1294 73.8741 73.3779 64.9946 69.4091 58.7937C68.8939 57.9879 68.3085 57.2341 67.6669 56.5532C67.104 55.9537 66.4877 55.4006 65.8335 54.9078C65.3618 54.5513 64.8592 54.2171 64.3398 53.9167C62.0655 52.6041 59.5133 51.9429 56.8459 51.9429L56.8431 51.9443Z" fill="black"/>
</g>
<g id="Group_5">
<path id="Vector_7" d="M34.1792 55.4738L33.3691 42.29L42.0282 47.2401L42.6277 60.4659L34.1792 55.4738Z" fill="#FF444F"/>
<path id="Vector_8" d="M42.6276 60.7469C42.5785 60.7469 42.5293 60.7343 42.4844 60.7076L34.0359 55.7155C33.9559 55.6677 33.904 55.5835 33.8983 55.4908L33.0883 42.3071C33.0827 42.2046 33.1332 42.1064 33.2203 42.0516C33.3073 41.9969 33.4182 41.9955 33.5081 42.046L42.1685 46.996C42.2514 47.0438 42.3047 47.1308 42.3103 47.2277L42.9084 60.4549C42.9126 60.5574 42.8606 60.6557 42.7722 60.7076C42.7273 60.7343 42.6781 60.7483 42.6276 60.7483V60.7469ZM34.4501 55.3083L42.323 59.9608L41.7544 47.4074L33.6793 42.7929L34.4487 55.3097L34.4501 55.3083Z" fill="black"/>
</g>
<g id="Group_6">
<path id="Vector_9" d="M25.7743 61.7519L11.4801 61.1973L11.2246 56.3765L24.6217 57.0587L25.7743 61.7519Z" fill="#FF7E88"/>
<path id="Vector_10" d="M25.7743 62.0326C25.7743 62.0326 25.7673 62.0326 25.763 62.0326L11.4703 61.4781C11.3257 61.4725 11.2091 61.3574 11.2007 61.2128L10.9452 56.3919C10.941 56.3119 10.9705 56.2347 11.0266 56.1785C11.0828 56.1223 11.16 56.0929 11.24 56.0971L24.6371 56.7794C24.7607 56.785 24.866 56.872 24.8955 56.9927L26.048 61.6859C26.0691 61.7715 26.048 61.8614 25.9933 61.9301C25.9399 61.9961 25.8599 62.034 25.7757 62.034L25.7743 62.0326ZM11.7468 60.9264L25.4121 61.457L24.3985 57.3283L11.5208 56.6727L11.7468 60.9278V60.9264Z" fill="black"/>
</g>
<g id="Group_7">
<path id="Vector_11" d="M33.3691 42.2899L29.5281 40.6685L30.296 53.3412L34.1791 55.4736L33.3691 42.2899Z" fill="#FF7E88"/>
<path id="Vector_12" d="M34.1791 55.7546C34.1328 55.7546 34.0865 55.7433 34.0444 55.7195L30.1613 53.5856C30.077 53.5393 30.0223 53.4522 30.0167 53.3568L29.2488 40.6841C29.2431 40.5872 29.2881 40.4945 29.3667 40.4384C29.4453 40.3822 29.5492 40.371 29.6376 40.4089L33.4772 42.0304C33.5755 42.0725 33.6415 42.1651 33.6485 42.2718L34.4585 55.4556C34.4641 55.558 34.415 55.6549 34.328 55.7097C34.2816 55.7391 34.2297 55.7532 34.1777 55.7532L34.1791 55.7546ZM30.567 53.1701L33.8675 54.9839L33.0982 42.4824L29.8356 41.1052L30.567 53.1715V53.1701Z" fill="black"/>
</g>
<g id="Group_8">
<path id="Vector_13" d="M106.052 102.977C91.3223 128.489 62.7845 139.723 41.6127 128.655L30.2737 123.093C32.0706 123.828 33.9083 124.418 35.7768 124.866C38.2027 125.448 40.6806 125.794 43.1865 125.912C61.5645 126.769 81.4012 115.357 92.9424 95.3676C104.475 75.3934 104.448 52.5272 94.5358 37.0397C93.2077 34.962 91.6999 33.0177 90.0167 31.2305C88.5623 29.6821 86.9745 28.2529 85.2604 26.96L96.2471 34.444C116.268 47.3076 120.739 77.5385 106.052 102.977Z" fill="#EBECEE"/>
<path id="Vector_14" d="M59.2817 133.198C52.998 133.198 46.9543 131.764 41.4835 128.905L30.1515 123.345C30.0153 123.278 29.9563 123.116 30.0195 122.977C30.0827 122.838 30.2413 122.775 30.3817 122.833C32.1435 123.554 33.9826 124.147 35.8441 124.593C38.2223 125.165 40.6987 125.514 43.2018 125.632C52.3003 126.058 61.7357 123.493 70.486 118.218C79.4595 112.808 87.1415 104.858 92.7022 95.2286C98.2573 85.6065 101.301 74.9862 101.503 64.5176C101.7 54.31 99.2105 44.8606 94.3026 37.1927C92.9774 35.1192 91.4682 33.179 89.8158 31.4242C88.3657 29.8813 86.7779 28.455 85.0946 27.1859C85.0301 27.1368 84.9893 27.0624 84.9837 26.9809C84.9781 26.8995 85.0076 26.8209 85.0652 26.7633C85.1606 26.6679 85.3122 26.6524 85.4231 26.7282L96.4098 34.2137C96.4168 34.2179 96.4239 34.2235 96.4309 34.2291C106.185 40.5086 112.582 51.0643 114.447 63.956C116.314 76.8758 113.42 90.7839 106.299 103.118C99.1544 115.492 88.5215 124.965 76.3556 129.796C70.6362 132.066 64.8663 133.199 59.2845 133.199L59.2817 133.198ZM34.3799 124.794L41.7362 128.403C47.127 131.222 53.0879 132.635 59.2831 132.636C64.7961 132.636 70.493 131.517 76.145 129.274C88.193 124.491 98.7276 115.102 105.809 102.838C112.867 90.6113 115.737 76.8323 113.887 64.036C112.045 51.2945 105.726 40.8694 96.0954 34.6826C96.0841 34.6755 96.0729 34.6671 96.0631 34.6587L89.1645 29.9585C89.5238 30.3123 89.8762 30.6731 90.2216 31.0395C91.8978 32.8182 93.428 34.7865 94.7729 36.8894C99.7412 44.6514 102.261 54.209 102.062 64.5274C101.858 75.0915 98.788 85.8044 93.1851 95.5094C87.5781 105.221 79.8273 113.24 70.7724 118.7C61.9266 124.033 52.3831 126.623 43.1723 126.194C40.6341 126.074 38.1226 125.719 35.7108 125.141C35.2657 125.034 34.8207 124.919 34.3785 124.795L34.3799 124.794Z" fill="black"/>
</g>
<g id="Group_9">
<path id="Vector_15" d="M11.48 61.1973L19.9523 66.1571L29.479 66.4435L30.0602 63.8197L25.7742 61.7518L11.48 61.1973Z" fill="#FF444F"/>
<path id="Vector_16" d="M29.4804 66.7245C29.4804 66.7245 29.4748 66.7245 29.472 66.7245L19.9453 66.4381C19.899 66.4381 19.8527 66.424 19.8119 66.4002L11.3396 61.4403C11.2287 61.3757 11.1753 61.2424 11.2118 61.1188C11.2483 60.9953 11.3635 60.9124 11.4926 60.9167L25.7854 61.4712C25.8233 61.4726 25.8612 61.4824 25.8963 61.4993L30.1823 63.5686C30.3002 63.6247 30.362 63.7553 30.3339 63.8816L29.7527 66.5055C29.7247 66.6346 29.6095 66.7259 29.479 66.7259L29.4804 66.7245ZM20.0324 65.8779L29.2558 66.1559L29.7387 63.9771L25.7054 62.0299L12.5904 61.5217L20.0338 65.8793L20.0324 65.8779Z" fill="black"/>
</g>
<g id="Group_10">
<g id="Group_11">
<path id="Vector_17" d="M31.1298 59.7307C30.0039 61.6793 28.0694 62.7926 26.2781 62.7083C26.0338 62.6971 25.7923 62.6634 25.5551 62.6059C25.3726 62.5623 25.1943 62.5048 25.0188 62.4332C24.9051 62.3869 24.7928 62.3349 24.6819 62.2759L24.5724 62.2142C22.4511 60.99 21.9457 57.8917 23.4451 55.2945C24.9444 52.6974 27.8799 51.5855 30.0025 52.8097C30.1345 52.8855 30.2608 52.9697 30.3802 53.061C30.5472 53.1859 30.7017 53.3263 30.8434 53.4765C31.0077 53.6506 31.1551 53.8401 31.2843 54.0437C32.2515 55.5528 32.2529 57.7822 31.1298 59.7307Z" fill="#FF7E88"/>
<path id="Vector_18" d="M26.4718 62.9931C26.4031 62.9931 26.3343 62.9917 26.2655 62.9889C26.0015 62.9763 25.7404 62.9398 25.4891 62.8794C25.2954 62.8331 25.1017 62.7713 24.9136 62.6941C24.7886 62.6436 24.6665 62.586 24.5514 62.5242L24.4362 62.4597C23.3328 61.8237 22.6028 60.7076 22.3754 59.315C22.1521 57.9448 22.4455 56.4665 23.2036 55.1553C24.7774 52.429 27.8912 51.268 30.1444 52.568C30.2862 52.6494 30.4223 52.7407 30.5529 52.8389C30.7242 52.9667 30.8912 53.1169 31.0499 53.2854C31.2267 53.4721 31.3854 53.6771 31.523 53.8947C32.5773 55.54 32.5197 57.8859 31.3742 59.8723C30.2665 61.7886 28.3615 62.9945 26.4732 62.9945L26.4718 62.9931ZM28.1088 52.5933C26.469 52.5933 24.7212 53.6462 23.6894 55.4347C22.9959 56.635 22.7263 57.9799 22.9299 59.2237C23.1292 60.4465 23.7624 61.4222 24.7142 61.9711L24.8209 62.0315C24.9135 62.0806 25.0174 62.1297 25.1255 62.1733C25.2884 62.2392 25.454 62.2926 25.6211 62.3333C25.8387 62.3867 26.0633 62.4175 26.2921 62.4288C28.04 62.513 29.8439 61.3969 30.8884 59.5916C31.9287 57.7848 31.9919 55.6677 31.0499 54.1965C30.9305 54.0084 30.7929 53.8315 30.6413 53.67C30.5052 53.5254 30.362 53.3963 30.2146 53.2868C30.1022 53.2011 29.9857 53.1225 29.865 53.0537C29.3245 52.7421 28.7251 52.5947 28.1102 52.5947L28.1088 52.5933Z" fill="black"/>
</g>
<g id="Group_12">
<path id="Vector_19" d="M57.3822 74.8373C56.2563 76.7859 54.3218 77.8992 52.5304 77.815C52.2861 77.8037 52.0447 77.77 51.8074 77.7125C51.6263 77.669 51.4466 77.6114 51.2712 77.5398L50.4344 77.0597L24.6819 62.2755C24.7928 62.3345 24.9051 62.3864 25.0188 62.4328C25.1943 62.5044 25.3726 62.5619 25.5551 62.6054C25.7923 62.663 26.0338 62.6967 26.2781 62.7079C28.0694 62.7922 30.004 61.6789 31.1299 59.7303C32.2529 57.7818 32.2515 55.5524 31.2843 54.0433C31.1551 53.8397 31.0077 53.6502 30.8435 53.4761C30.7017 53.3259 30.5472 53.1855 30.3802 53.0605L56.2549 67.9163C56.3868 67.9935 56.5132 68.0763 56.6325 68.1676C56.7996 68.2925 56.954 68.4329 57.0958 68.5831C57.2601 68.7572 57.4075 68.9467 57.5366 69.1503C58.5039 70.6594 58.5067 72.8888 57.3822 74.8373Z" fill="#FF444F"/>
<path id="Vector_20" d="M52.7241 78.1001C52.6553 78.1001 52.5865 78.0987 52.5177 78.0959C52.2538 78.0832 51.9927 78.0467 51.7414 77.9849C51.5462 77.9386 51.3525 77.8754 51.1658 77.7996C51.1546 77.7954 51.1433 77.7898 51.1321 77.7828L24.5428 62.5185C24.4095 62.4427 24.3631 62.2729 24.4375 62.1395C24.512 62.0047 24.679 61.9556 24.8152 62.0272C24.9135 62.0791 25.0187 62.1283 25.1268 62.1718C25.2897 62.2378 25.4553 62.2911 25.6224 62.3318C25.84 62.3852 26.0646 62.416 26.2935 62.4273C28.0413 62.5115 29.8452 61.3954 30.8897 59.5901C31.93 57.7847 31.9946 55.6663 31.0512 54.195C30.9318 54.0069 30.7943 53.83 30.6426 53.6685C30.5065 53.5239 30.3633 53.3948 30.2159 53.2853C30.0965 53.1968 30.0685 53.0298 30.1499 52.9062C30.2313 52.7827 30.3956 52.7434 30.5247 52.8164L56.3994 67.6721C56.5524 67.762 56.6858 67.8504 56.8079 67.9445C56.9792 68.0722 57.1463 68.2225 57.3049 68.3909C57.4804 68.5776 57.6404 68.7826 57.778 69.0002C58.8337 70.6469 58.7748 72.9928 57.6292 74.9779C56.5215 76.8941 54.6165 78.1001 52.7283 78.1001H52.7241ZM51.3946 77.2872C51.5504 77.349 51.7105 77.4009 51.8733 77.4402C52.0909 77.4936 52.3156 77.5245 52.5444 77.5357C54.2908 77.6185 56.0962 76.5039 57.1407 74.6985C58.1823 72.8931 58.2455 70.7761 57.3021 69.3034C57.1828 69.1153 57.0452 68.9384 56.8936 68.777C56.7574 68.6324 56.6142 68.5046 56.4668 68.3937C56.3601 68.3123 56.2464 68.2365 56.1158 68.1593L31.659 54.1178C32.5716 55.7477 32.4705 57.9742 31.3769 59.8722C30.2748 61.7801 28.381 62.9846 26.4998 62.9944L51.3988 77.2886L51.3946 77.2872Z" fill="black"/>
</g>
</g>
<g id="Group_13">
<path id="Vector_21" d="M33.9236 60.5996L32.771 65.763L41.3051 70.8829L42.6276 65.5061L33.9236 60.5996Z" fill="#FF444F"/>
<path id="Vector_22" d="M41.3051 71.1636C41.2545 71.1636 41.2054 71.1496 41.1605 71.1229L32.6278 66.003C32.5239 65.9412 32.4719 65.8191 32.4986 65.7012L33.6512 60.5391C33.6709 60.4521 33.7298 60.3805 33.8112 60.344C33.8927 60.3075 33.9853 60.3117 34.0639 60.3552L42.7679 65.2618C42.8774 65.3235 42.9322 65.4513 42.9027 65.5734L41.5802 70.9488C41.5592 71.0359 41.4974 71.1061 41.416 71.1412C41.3809 71.1552 41.3444 71.1622 41.3079 71.1622L41.3051 71.1636ZM33.0897 65.6268L41.1226 70.4462L42.3032 65.6464L34.1145 61.0305L33.0897 65.6268Z" fill="black"/>
</g>
<g id="Group_14">
<path id="Vector_23" d="M32.771 65.7627L29.0171 68.5353L37.7 73.6988L41.3051 70.8826L32.771 65.7627Z" fill="#FF7E88"/>
<path id="Vector_24" d="M37.6986 73.9796C37.6494 73.9796 37.5989 73.967 37.5554 73.9403L28.8724 68.7769C28.791 68.7292 28.7405 68.6435 28.7349 68.5495C28.7292 68.4554 28.7728 68.3656 28.8486 68.3094L32.6039 65.5354C32.6952 65.468 32.8173 65.4624 32.9156 65.5199L41.4483 70.6398C41.5269 70.6876 41.5788 70.7704 41.5845 70.8631C41.5901 70.9557 41.5494 71.0442 41.4764 71.1017L37.8712 73.9179C37.8207 73.9572 37.7603 73.9768 37.6986 73.9768V73.9796ZM29.5238 68.5102L37.6775 73.3591L40.8095 70.9136L32.7878 66.0997L29.5238 68.5102Z" fill="black"/>
</g>
<g id="Group_15">
<path id="Vector_25" d="M33.9236 60.5996L30.1683 63.3301L29.0171 68.5357L32.771 65.763L33.9236 60.5996Z" fill="#FF7E88"/>
<path id="Vector_26" d="M29.017 68.8162C28.9637 68.8162 28.9103 68.8008 28.864 68.7713C28.7657 68.7081 28.718 68.5902 28.7433 68.4751L29.8958 63.2695C29.9113 63.2021 29.9492 63.1432 30.0053 63.1025L33.7607 60.372C33.8547 60.3032 33.9825 60.3004 34.0794 60.3649C34.1776 60.4295 34.2254 60.5474 34.1987 60.6611L33.0461 65.8232C33.0321 65.8892 32.9928 65.9481 32.9394 65.9874L29.1841 68.7601C29.1349 68.7966 29.076 68.8148 29.017 68.8148V68.8162ZM30.4195 63.4956L29.4522 67.8658L32.5197 65.6L33.4869 61.2648L30.4195 63.4956Z" fill="black"/>
</g>
</g>
</g>
</g>
<defs>
<clipPath id="clip0_2614_349">
<rect width="120" height="152" fill="white"/>
</clipPath>
</defs>
</svg>
