<svg width="216" height="164" viewBox="0 0 216 164" fill="none" xmlns="http://www.w3.org/2000/svg">
<g id="illustration / deriv / light / ic-document-name-mismatch">
<g id="Group" filter="url(#filter0_dd_1184_366)">
<g id="Clip path group">
<mask id="mask0_1184_366" style="mask-type:luminance" maskUnits="userSpaceOnUse" x="85" y="2" width="128" height="158">
<g id="clip0_4473_9088">
<path id="Vector" d="M209 2H89C86.7909 2 85 3.79086 85 6V156C85 158.209 86.7909 160 89 160H209C211.209 160 213 158.209 213 156V6C213 3.79086 211.209 2 209 2Z" fill="white"/>
</g>
</mask>
<g mask="url(#mask0_1184_366)">
<g id="Group_2">
<path id="Vector_2" d="M209 2H89C86.7909 2 85 3.79086 85 6V156C85 158.209 86.7909 160 89 160H209C211.209 160 213 158.209 213 156V6C213 3.79086 211.209 2 209 2Z" fill="white"/>
<path id="Vector_3" fill-rule="evenodd" clip-rule="evenodd" d="M112.85 31.2981C114.246 30.0711 115.126 28.2726 115.126 26.2684C115.126 24.2642 114.246 22.4657 112.85 21.2388C114.029 20.2023 115.576 19.5737 117.269 19.5737C120.966 19.5737 123.963 22.571 123.963 26.2684C123.963 29.9658 120.966 32.9632 117.269 32.9632C115.576 32.9632 114.029 32.3346 112.85 31.2981ZM112.85 31.2981C111.671 32.3346 110.125 32.9632 108.432 32.9632C104.734 32.9632 101.737 29.9658 101.737 26.2684C101.737 22.571 104.734 19.5737 108.432 19.5737C110.125 19.5737 111.671 20.2023 112.85 21.2388C111.455 22.4657 110.574 24.2642 110.574 26.2684C110.574 28.2726 111.455 30.0711 112.85 31.2981Z" fill="#FFAD3A"/>
<path id="Vector_4" d="M98.3894 17.0632H327.684V13.7158H98.3894V17.0632ZM327.684 35.4737H98.3894V38.8211H327.684V35.4737Z" fill="#4BB4B3"/>
<path id="Vector_5" d="M102.457 53.6957V57.8464C102.457 58.1142 102.412 58.3597 102.323 58.5829C102.239 58.8004 102.113 58.9873 101.946 59.1435C101.779 59.2942 101.575 59.4141 101.335 59.5034C101.101 59.5871 100.833 59.6289 100.532 59.6289C100.242 59.6289 99.985 59.5899 99.7618 59.5118C99.5443 59.4337 99.3546 59.3221 99.1928 59.177C99.0366 59.032 98.9083 58.859 98.8078 58.6582C98.7074 58.4573 98.6377 58.2342 98.5986 57.9887L99.787 57.7544C99.8818 58.2621 100.125 58.5159 100.515 58.5159C100.699 58.5159 100.855 58.4573 100.984 58.3402C101.118 58.223 101.185 58.0389 101.185 57.7879V54.7167H99.4104V53.6957H102.457ZM105.424 59.6373C105.1 59.6373 104.81 59.5843 104.554 59.4783C104.303 59.3723 104.088 59.2189 103.909 59.018C103.736 58.8172 103.602 58.5745 103.508 58.29C103.413 58.0054 103.365 57.6874 103.365 57.336C103.365 56.9845 103.413 56.6665 103.508 56.382C103.602 56.0974 103.736 55.8575 103.909 55.6623C104.088 55.4614 104.303 55.308 104.554 55.202C104.81 55.096 105.1 55.043 105.424 55.043C105.748 55.043 106.035 55.096 106.286 55.202C106.543 55.308 106.757 55.4614 106.93 55.6623C107.109 55.8575 107.245 56.0974 107.34 56.382C107.435 56.6665 107.483 56.9845 107.483 57.336C107.483 57.6874 107.435 58.0054 107.34 58.29C107.245 58.5745 107.109 58.8172 106.93 59.018C106.757 59.2189 106.543 59.3723 106.286 59.4783C106.035 59.5843 105.748 59.6373 105.424 59.6373ZM105.424 58.6582C105.669 58.6582 105.859 58.5829 105.993 58.4322C106.127 58.2816 106.194 58.0668 106.194 57.7879V56.8924C106.194 56.6135 106.127 56.3987 105.993 56.2481C105.859 56.0974 105.669 56.0221 105.424 56.0221C105.178 56.0221 104.989 56.0974 104.855 56.2481C104.721 56.3987 104.654 56.6135 104.654 56.8924V57.7879C104.654 58.0668 104.721 58.2816 104.855 58.4322C104.989 58.5829 105.178 58.6582 105.424 58.6582ZM108.365 53.3442H109.604V55.8882H109.654C109.732 55.6595 109.869 55.4614 110.064 55.2941C110.259 55.1267 110.53 55.043 110.876 55.043C111.327 55.043 111.668 55.1937 111.897 55.4949C112.131 55.7962 112.248 56.2258 112.248 56.7837V59.5369H111.009V56.8841C111.009 56.5995 110.965 56.3903 110.876 56.2564C110.786 56.117 110.627 56.0472 110.399 56.0472C110.298 56.0472 110.201 56.0612 110.106 56.0891C110.011 56.1114 109.924 56.1504 109.846 56.2062C109.774 56.262 109.715 56.3318 109.671 56.4154C109.626 56.4935 109.604 56.5856 109.604 56.6916V59.5369H108.365V53.3442ZM113.35 59.5369V55.1434H114.589V55.8882H114.639C114.717 55.6595 114.854 55.4614 115.049 55.2941C115.244 55.1267 115.515 55.043 115.861 55.043C116.313 55.043 116.653 55.1937 116.882 55.4949C117.116 55.7962 117.233 56.2258 117.233 56.7837V59.5369H115.995V56.8841C115.995 56.5995 115.95 56.3903 115.861 56.2564C115.771 56.117 115.612 56.0472 115.384 56.0472C115.283 56.0472 115.186 56.0612 115.091 56.0891C114.996 56.1114 114.909 56.1504 114.831 56.2062C114.759 56.262 114.7 56.3318 114.656 56.4154C114.611 56.4935 114.589 56.5856 114.589 56.6916V59.5369H113.35ZM124.087 58.608H124.045C124.001 58.9037 123.85 59.1491 123.593 59.3444C123.337 59.5397 122.988 59.6373 122.547 59.6373C122.213 59.6373 121.9 59.5731 121.61 59.4448C121.32 59.3165 121.066 59.1268 120.849 58.8758C120.631 58.6247 120.461 58.3123 120.338 57.9385C120.215 57.5647 120.154 57.1323 120.154 56.6414C120.154 56.1504 120.218 55.7153 120.346 55.3359C120.475 54.9565 120.653 54.6385 120.882 54.3819C121.116 54.1253 121.395 53.93 121.719 53.7961C122.042 53.6622 122.402 53.5953 122.798 53.5953C123.323 53.5953 123.775 53.7097 124.154 53.9384C124.533 54.1615 124.832 54.4991 125.049 54.951L124.012 55.5451C123.923 55.3164 123.783 55.1239 123.593 54.9677C123.404 54.8059 123.139 54.725 122.798 54.725C122.402 54.725 122.087 54.8394 121.853 55.0681C121.618 55.2969 121.501 55.6567 121.501 56.1477V57.0849C121.501 57.5703 121.618 57.9301 121.853 58.1644C122.087 58.3932 122.402 58.5075 122.798 58.5075C122.955 58.5075 123.102 58.4908 123.242 58.4573C123.381 58.4183 123.504 58.3625 123.61 58.29C123.716 58.2119 123.797 58.1198 123.853 58.0138C123.914 57.9078 123.945 57.7823 123.945 57.6372V57.3443H122.857V56.2815H125.158V59.5369H124.087V58.608ZM128.11 59.6373C127.787 59.6373 127.497 59.5843 127.24 59.4783C126.989 59.3723 126.774 59.2189 126.596 59.018C126.423 58.8172 126.289 58.5745 126.194 58.29C126.099 58.0054 126.052 57.6874 126.052 57.336C126.052 56.9845 126.099 56.6665 126.194 56.382C126.289 56.0974 126.423 55.8575 126.596 55.6623C126.774 55.4614 126.989 55.308 127.24 55.202C127.497 55.096 127.787 55.043 128.11 55.043C128.434 55.043 128.721 55.096 128.972 55.202C129.229 55.308 129.444 55.4614 129.617 55.6623C129.795 55.8575 129.932 56.0974 130.027 56.382C130.121 56.6665 130.169 56.9845 130.169 57.336C130.169 57.6874 130.121 58.0054 130.027 58.29C129.932 58.5745 129.795 58.8172 129.617 59.018C129.444 59.2189 129.229 59.3723 128.972 59.4783C128.721 59.5843 128.434 59.6373 128.11 59.6373ZM128.11 58.6582C128.356 58.6582 128.545 58.5829 128.679 58.4322C128.813 58.2816 128.88 58.0668 128.88 57.7879V56.8924C128.88 56.6135 128.813 56.3987 128.679 56.2481C128.545 56.0974 128.356 56.0221 128.11 56.0221C127.865 56.0221 127.675 56.0974 127.541 56.2481C127.407 56.3987 127.34 56.6135 127.34 56.8924V57.7879C127.34 58.0668 127.407 58.2816 127.541 58.4322C127.675 58.5829 127.865 58.6582 128.11 58.6582ZM131.051 59.5369V55.1434H132.29V55.8882H132.34C132.418 55.6595 132.555 55.4614 132.75 55.2941C132.945 55.1267 133.216 55.043 133.562 55.043C134.014 55.043 134.354 55.1937 134.583 55.4949C134.817 55.7962 134.934 56.2258 134.934 56.7837V59.5369H133.696V56.8841C133.696 56.5995 133.651 56.3903 133.562 56.2564C133.473 56.117 133.314 56.0472 133.085 56.0472C132.984 56.0472 132.887 56.0612 132.792 56.0891C132.697 56.1114 132.611 56.1504 132.533 56.2062C132.46 56.262 132.401 56.3318 132.357 56.4154C132.312 56.4935 132.29 56.5856 132.29 56.6916V59.5369H131.051ZM135.785 59.5369V58.5578L137.97 56.1058H135.861V55.1434H139.409V56.1142L137.216 58.5745H139.467V59.5369H135.785ZM143.615 59.5369C143.392 59.5369 143.205 59.4671 143.054 59.3277C142.909 59.1882 142.817 59.0013 142.778 58.767H142.728C142.661 59.0515 142.513 59.2691 142.284 59.4197C142.055 59.5648 141.774 59.6373 141.439 59.6373C140.998 59.6373 140.661 59.5201 140.426 59.2858C140.192 59.0515 140.075 58.7419 140.075 58.3569C140.075 57.8939 140.242 57.5508 140.577 57.3276C140.917 57.0989 141.378 56.9845 141.958 56.9845H142.652V56.7083C142.652 56.4963 142.597 56.329 142.485 56.2062C142.373 56.0779 142.186 56.0138 141.924 56.0138C141.679 56.0138 141.484 56.0668 141.338 56.1728C141.193 56.2788 141.073 56.3987 140.979 56.5326L140.242 55.8799C140.421 55.6177 140.644 55.414 140.912 55.269C141.185 55.1183 141.553 55.043 142.016 55.043C142.641 55.043 143.11 55.1797 143.422 55.4531C143.735 55.7264 143.891 56.1253 143.891 56.6498V58.5745H144.301V59.5369H143.615ZM141.899 58.7753C142.106 58.7753 142.281 58.7307 142.426 58.6414C142.577 58.5522 142.652 58.4071 142.652 58.2063V57.6874H142.05C141.564 57.6874 141.322 57.852 141.322 58.1812V58.3067C141.322 58.4685 141.372 58.5884 141.472 58.6665C141.573 58.7391 141.715 58.7753 141.899 58.7753ZM146.362 59.5369C145.938 59.5369 145.626 59.4337 145.425 59.2272C145.23 59.0208 145.132 58.7223 145.132 58.3318V53.3442H146.371V58.5745H146.923V59.5369H146.362ZM149.498 59.6373C149.164 59.6373 148.865 59.5843 148.603 59.4783C148.341 59.3667 148.118 59.2133 147.933 59.018C147.755 58.8172 147.618 58.5745 147.523 58.29C147.434 58.0054 147.389 57.6874 147.389 57.336C147.389 56.9901 147.434 56.6777 147.523 56.3987C147.613 56.1142 147.744 55.8715 147.917 55.6707C148.095 55.4698 148.313 55.3164 148.569 55.2104C148.826 55.0988 149.119 55.043 149.448 55.043C149.811 55.043 150.12 55.1044 150.377 55.2271C150.639 55.3499 150.851 55.5144 151.013 55.7209C151.18 55.9273 151.3 56.1672 151.373 56.4405C151.451 56.7083 151.49 56.9901 151.49 57.2858V57.654H148.67V57.7209C148.67 58.011 148.748 58.2425 148.904 58.4155C149.06 58.5829 149.306 58.6665 149.641 58.6665C149.897 58.6665 150.106 58.6163 150.268 58.5159C150.43 58.4099 150.581 58.2844 150.72 58.1393L151.339 58.9092C151.144 59.138 150.887 59.3165 150.569 59.4448C150.257 59.5731 149.9 59.6373 149.498 59.6373ZM149.473 55.9552C149.222 55.9552 149.024 56.0389 148.879 56.2062C148.74 56.368 148.67 56.5856 148.67 56.859V56.9259H150.21V56.8506C150.21 56.5828 150.148 56.368 150.026 56.2062C149.908 56.0389 149.724 55.9552 149.473 55.9552ZM152.073 59.5369V58.5578L154.257 56.1058H152.148V55.1434H155.696V56.1142L153.504 58.5745H155.755V59.5369H152.073Z" fill="#3F6FE5"/>
<path id="Vector_6" d="M99.126 73.2105V72.5913H100.758V67.8882H100.699L99.2265 69.2607L98.8164 68.8171L100.364 67.3694H101.461V72.5913H102.967V73.2105H99.126ZM105.926 73.311C105.625 73.311 105.352 73.2608 105.106 73.1603C104.866 73.0543 104.66 72.9065 104.487 72.7168C104.319 72.5215 104.191 72.2844 104.102 72.0055C104.013 71.7265 103.968 71.4141 103.968 71.0682C103.968 70.6331 104.032 70.2258 104.16 69.8464C104.289 69.4615 104.453 69.1128 104.654 68.8004C104.861 68.4824 105.087 68.2034 105.332 67.9635C105.578 67.7181 105.817 67.52 106.052 67.3694H106.956C106.643 67.5981 106.364 67.8213 106.119 68.0389C105.873 68.2564 105.658 68.4852 105.474 68.7251C105.29 68.9594 105.134 69.2132 105.006 69.4866C104.877 69.7544 104.774 70.0584 104.696 70.3988L104.738 70.4155C104.877 70.1756 105.056 69.9775 105.273 69.8213C105.497 69.6595 105.787 69.5787 106.144 69.5787C106.395 69.5787 106.626 69.6205 106.838 69.7042C107.05 69.7879 107.232 69.9078 107.382 70.064C107.533 70.2202 107.65 70.4099 107.734 70.6331C107.823 70.8562 107.868 71.1045 107.868 71.3779C107.868 71.6624 107.82 71.9246 107.725 72.1645C107.636 72.3988 107.505 72.6024 107.332 72.7754C107.165 72.9428 106.961 73.0739 106.721 73.1687C106.481 73.2635 106.216 73.311 105.926 73.311ZM105.918 72.7001C106.303 72.7001 106.601 72.5941 106.813 72.3821C107.031 72.1701 107.14 71.866 107.14 71.4699V71.403C107.14 71.0069 107.031 70.7028 106.813 70.4908C106.601 70.2788 106.303 70.1728 105.918 70.1728C105.533 70.1728 105.232 70.2788 105.014 70.4908C104.802 70.7028 104.696 71.0069 104.696 71.403V71.4699C104.696 71.866 104.802 72.1701 105.014 72.3821C105.232 72.5941 105.533 72.7001 105.918 72.7001ZM114.838 70.5661H111.884V73.2105H111.181V67.3694H111.884V69.9469H114.838V67.3694H115.541V73.2105H114.838V70.5661ZM120.169 73.2105C119.918 73.2105 119.737 73.1436 119.625 73.0097C119.519 72.8758 119.452 72.7084 119.424 72.5076H119.382C119.288 72.7754 119.131 72.9762 118.914 73.1101C118.696 73.244 118.437 73.311 118.135 73.311C117.678 73.311 117.321 73.1938 117.064 72.9595C116.813 72.7252 116.688 72.4072 116.688 72.0055C116.688 71.5982 116.836 71.2858 117.131 71.0682C117.433 70.8507 117.898 70.7419 118.529 70.7419H119.382V70.3151C119.382 70.0082 119.299 69.7739 119.131 69.6121C118.964 69.4503 118.707 69.3694 118.361 69.3694C118.099 69.3694 117.879 69.428 117.7 69.5452C117.527 69.6623 117.382 69.8185 117.265 70.0138L116.863 69.6372C116.981 69.4029 117.168 69.2049 117.424 69.0431C117.681 68.8757 118.004 68.792 118.395 68.792C118.919 68.792 119.327 68.9203 119.617 69.177C119.907 69.4336 120.052 69.7907 120.052 70.2481V72.6248H120.546V73.2105H120.169ZM118.244 72.7419C118.412 72.7419 118.565 72.7224 118.705 72.6833C118.844 72.6443 118.964 72.5885 119.064 72.516C119.165 72.4434 119.243 72.3598 119.299 72.2649C119.354 72.1701 119.382 72.0669 119.382 71.9553V71.244H118.495C118.11 71.244 117.829 71.2998 117.65 71.4113C117.477 71.5229 117.391 71.6847 117.391 71.8967V72.0724C117.391 72.2844 117.466 72.449 117.617 72.5662C117.773 72.6833 117.982 72.7419 118.244 72.7419ZM121.501 73.2105V68.8924H122.171V69.6874H122.212C122.291 69.481 122.43 69.2969 122.631 69.1351C122.832 68.9733 123.108 68.8924 123.459 68.8924H123.719V69.5619H123.325C122.963 69.5619 122.678 69.6317 122.472 69.7711C122.271 69.905 122.171 70.0752 122.171 70.2816V73.2105H121.501ZM124.574 73.2105V68.8924H125.243V69.5954H125.277C125.327 69.4838 125.383 69.3806 125.444 69.2858C125.511 69.1853 125.589 69.0989 125.678 69.0263C125.773 68.9538 125.882 68.898 126.005 68.859C126.128 68.8143 126.273 68.792 126.44 68.792C126.725 68.792 126.987 68.8618 127.227 69.0012C127.467 69.1351 127.645 69.3583 127.762 69.6707H127.779C127.857 69.4364 128.002 69.2328 128.214 69.0598C128.432 68.8813 128.725 68.792 129.093 68.792C129.534 68.792 129.877 68.9371 130.122 69.2272C130.373 69.5117 130.499 69.9162 130.499 70.4406V73.2105H129.829V70.5578C129.829 70.1728 129.754 69.8827 129.603 69.6874C129.453 69.4922 129.213 69.3945 128.884 69.3945C128.75 69.3945 128.621 69.4113 128.499 69.4448C128.381 69.4782 128.275 69.5284 128.181 69.5954C128.086 69.6623 128.01 69.7488 127.955 69.8548C127.899 69.9552 127.871 70.0752 127.871 70.2147V73.2105H127.202V70.5578C127.202 70.1728 127.126 69.8827 126.976 69.6874C126.825 69.4922 126.591 69.3945 126.273 69.3945C126.139 69.3945 126.01 69.4113 125.888 69.4448C125.765 69.4782 125.656 69.5284 125.561 69.5954C125.466 69.6623 125.388 69.7488 125.327 69.8548C125.271 69.9552 125.243 70.0752 125.243 70.2147V73.2105H124.574ZM133.512 73.311C133.222 73.311 132.957 73.258 132.717 73.152C132.477 73.046 132.27 72.8953 132.097 72.7001C131.93 72.4992 131.799 72.2621 131.704 71.9888C131.609 71.7098 131.562 71.3974 131.562 71.0515C131.562 70.7112 131.609 70.4015 131.704 70.1226C131.799 69.8437 131.93 69.6065 132.097 69.4113C132.27 69.2104 132.477 69.057 132.717 68.951C132.957 68.845 133.222 68.792 133.512 68.792C133.802 68.792 134.064 68.845 134.298 68.951C134.538 69.057 134.745 69.2104 134.918 69.4113C135.091 69.6065 135.224 69.8437 135.319 70.1226C135.414 70.4015 135.462 70.7112 135.462 71.0515C135.462 71.3974 135.414 71.7098 135.319 71.9888C135.224 72.2621 135.091 72.4992 134.918 72.7001C134.745 72.8953 134.538 73.046 134.298 73.152C134.064 73.258 133.802 73.311 133.512 73.311ZM133.512 72.7168C133.874 72.7168 134.17 72.6052 134.399 72.3821C134.628 72.1589 134.742 71.8186 134.742 71.3611V70.7419C134.742 70.2844 134.628 69.9441 134.399 69.7209C134.17 69.4978 133.874 69.3862 133.512 69.3862C133.149 69.3862 132.853 69.4978 132.625 69.7209C132.396 69.9441 132.282 70.2844 132.282 70.7419V71.3611C132.282 71.8186 132.396 72.1589 132.625 72.3821C132.853 72.6052 133.149 72.7168 133.512 72.7168ZM136.563 73.2105V68.8924H137.232V69.5954H137.266C137.372 69.3499 137.519 69.1547 137.709 69.0096C137.904 68.8645 138.164 68.792 138.487 68.792C138.934 68.792 139.285 68.9371 139.542 69.2272C139.804 69.5117 139.935 69.9162 139.935 70.4406V73.2105H139.266V70.5578C139.266 69.7823 138.939 69.3945 138.286 69.3945C138.153 69.3945 138.021 69.4113 137.893 69.4448C137.77 69.4782 137.659 69.5284 137.558 69.5954C137.458 69.6623 137.377 69.7488 137.316 69.8548C137.26 69.9552 137.232 70.0752 137.232 70.2147V73.2105H136.563ZM143.915 68.8924H144.576L142.643 74.2148C142.592 74.3431 142.542 74.4491 142.492 74.5328C142.442 74.622 142.38 74.6918 142.308 74.742C142.235 74.7922 142.143 74.8284 142.032 74.8508C141.926 74.8731 141.795 74.8842 141.638 74.8842H141.295V74.2984H141.973L142.3 73.3779L140.684 68.8924H141.354L142.392 71.8298L142.592 72.5327H142.634L142.869 71.8298L143.915 68.8924ZM149.114 73.311C148.64 73.311 148.236 73.2217 147.901 73.0432C147.566 72.8591 147.282 72.608 147.047 72.29L147.566 71.8549C147.773 72.1282 148.001 72.3374 148.252 72.4825C148.503 72.622 148.799 72.6917 149.139 72.6917C149.558 72.6917 149.876 72.5913 150.093 72.3904C150.317 72.1896 150.428 71.9218 150.428 71.5871C150.428 71.3081 150.345 71.0933 150.177 70.9427C150.01 70.7921 149.734 70.6721 149.349 70.5829L148.872 70.4741C148.336 70.3513 147.926 70.1672 147.642 69.9218C147.363 69.6707 147.223 69.3192 147.223 68.8673C147.223 68.6107 147.271 68.382 147.365 68.1811C147.46 67.9803 147.591 67.8129 147.759 67.679C147.932 67.5451 148.135 67.4447 148.37 67.3778C148.609 67.3052 148.872 67.269 149.156 67.269C149.597 67.269 149.974 67.3499 150.286 67.5117C150.604 67.6734 150.872 67.9105 151.089 68.223L150.562 68.6079C150.4 68.3848 150.205 68.209 149.976 68.0807C149.748 67.9524 149.463 67.8882 149.123 67.8882C148.749 67.8882 148.453 67.9691 148.236 68.1309C148.024 68.2871 147.918 68.5242 147.918 68.8422C147.918 69.1212 148.007 69.3332 148.185 69.4782C148.37 69.6177 148.646 69.7293 149.014 69.813L149.491 69.9218C150.066 70.0501 150.481 70.2453 150.738 70.5075C150.994 70.7698 151.123 71.1184 151.123 71.5536C151.123 71.8214 151.075 72.0641 150.981 72.2817C150.891 72.4992 150.76 72.6833 150.587 72.834C150.414 72.9846 150.202 73.1018 149.951 73.1854C149.706 73.2691 149.427 73.311 149.114 73.311ZM153.224 73.2105C152.989 73.2105 152.811 73.1464 152.688 73.0181C152.571 72.8842 152.512 72.7112 152.512 72.4992V69.4782H151.801V68.8924H152.203C152.348 68.8924 152.445 68.8645 152.496 68.8088C152.551 68.7474 152.579 68.6442 152.579 68.4991V67.6958H153.182V68.8924H154.128V69.4782H153.182V72.6248H154.061V73.2105H153.224ZM155.63 73.311C155.452 73.311 155.321 73.2663 155.237 73.1771C155.159 73.0878 155.12 72.9707 155.12 72.8256V72.7168C155.12 72.5718 155.159 72.4546 155.237 72.3653C155.321 72.2761 155.452 72.2314 155.63 72.2314C155.809 72.2314 155.937 72.2761 156.015 72.3653C156.099 72.4546 156.141 72.5718 156.141 72.7168V72.8256C156.141 72.9707 156.099 73.0878 156.015 73.1771C155.937 73.2663 155.809 73.311 155.63 73.311Z" fill="#3F6FE5"/>
<path id="Vector_7" d="M101.226 86.9845C100.484 86.9845 99.9071 86.7334 99.4943 86.2313C99.0814 85.7237 98.875 84.9789 98.875 83.997C98.875 83.0151 99.0814 82.2619 99.4943 81.7375C99.9071 81.2075 100.484 80.9425 101.226 80.9425C101.717 80.9425 102.127 81.0541 102.457 81.2772C102.791 81.5004 103.051 81.8156 103.235 82.2229L102.666 82.566C102.549 82.2647 102.37 82.0248 102.13 81.8463C101.89 81.6622 101.589 81.5701 101.226 81.5701C100.975 81.5701 100.749 81.6176 100.549 81.7124C100.353 81.8072 100.186 81.9439 100.046 82.1224C99.9127 82.2954 99.8095 82.5046 99.7369 82.7501C99.6644 82.99 99.6282 83.2606 99.6282 83.5618V84.4321C99.6282 85.0347 99.7676 85.5061 100.046 85.8464C100.325 86.1867 100.719 86.3569 101.226 86.3569C101.6 86.3569 101.913 86.262 102.164 86.0723C102.415 85.8771 102.599 85.6204 102.716 85.3024L103.277 85.6539C103.093 86.0668 102.828 86.3931 102.482 86.633C102.136 86.8673 101.717 86.9845 101.226 86.9845ZM105.93 86.9845C105.64 86.9845 105.375 86.9315 105.135 86.8255C104.895 86.7195 104.689 86.5689 104.516 86.3736C104.349 86.1728 104.218 85.9357 104.123 85.6623C104.028 85.3833 103.98 85.0709 103.98 84.725C103.98 84.3847 104.028 84.0751 104.123 83.7961C104.218 83.5172 104.349 83.2801 104.516 83.0848C104.689 82.884 104.895 82.7306 105.135 82.6246C105.375 82.5186 105.64 82.4656 105.93 82.4656C106.22 82.4656 106.483 82.5186 106.717 82.6246C106.957 82.7306 107.163 82.884 107.336 83.0848C107.509 83.2801 107.643 83.5172 107.738 83.7961C107.833 84.0751 107.88 84.3847 107.88 84.725C107.88 85.0709 107.833 85.3833 107.738 85.6623C107.643 85.9357 107.509 86.1728 107.336 86.3736C107.163 86.5689 106.957 86.7195 106.717 86.8255C106.483 86.9315 106.22 86.9845 105.93 86.9845ZM105.93 86.3903C106.293 86.3903 106.589 86.2788 106.817 86.0556C107.046 85.8324 107.16 85.4921 107.16 85.0347V84.4154C107.16 83.9579 107.046 83.6176 106.817 83.3944C106.589 83.1713 106.293 83.0597 105.93 83.0597C105.568 83.0597 105.272 83.1713 105.043 83.3944C104.814 83.6176 104.7 83.9579 104.7 84.4154V85.0347C104.7 85.4921 104.814 85.8324 105.043 86.0556C105.272 86.2788 105.568 86.3903 105.93 86.3903ZM110.278 86.9845C109.877 86.9845 109.539 86.9092 109.266 86.7586C108.998 86.6023 108.766 86.3959 108.571 86.1393L109.048 85.7543C109.215 85.9663 109.402 86.1309 109.609 86.2481C109.815 86.3597 110.055 86.4154 110.328 86.4154C110.613 86.4154 110.833 86.3541 110.99 86.2313C111.151 86.1086 111.232 85.9357 111.232 85.7125C111.232 85.5451 111.176 85.4029 111.065 85.2857C110.959 85.163 110.764 85.0793 110.479 85.0347L110.136 84.9844C109.935 84.9566 109.751 84.9147 109.584 84.8589C109.416 84.7976 109.268 84.7194 109.14 84.6246C109.017 84.5242 108.92 84.4014 108.847 84.2564C108.78 84.1113 108.747 83.9384 108.747 83.7376C108.747 83.5256 108.786 83.3414 108.864 83.1852C108.942 83.0234 109.048 82.8896 109.182 82.7836C109.321 82.6776 109.486 82.5994 109.676 82.5492C109.865 82.4934 110.069 82.4656 110.287 82.4656C110.638 82.4656 110.931 82.5269 111.165 82.6497C111.405 82.7724 111.614 82.9426 111.793 83.1601L111.349 83.5618C111.255 83.4279 111.115 83.308 110.931 83.202C110.747 83.0904 110.515 83.0346 110.236 83.0346C109.957 83.0346 109.745 83.096 109.6 83.2187C109.461 83.3359 109.391 83.4977 109.391 83.7041C109.391 83.9161 109.461 84.0695 109.6 84.1643C109.745 84.2592 109.952 84.3289 110.22 84.3736L110.554 84.4238C111.034 84.4963 111.375 84.6358 111.575 84.8422C111.776 85.043 111.877 85.308 111.877 85.6372C111.877 86.0556 111.734 86.3848 111.45 86.6247C111.165 86.8646 110.775 86.9845 110.278 86.9845ZM113.059 86.8841V82.566H113.729V83.2689H113.762C113.812 83.1573 113.868 83.0541 113.929 82.9593C113.996 82.8589 114.074 82.7724 114.164 82.6999C114.259 82.6273 114.367 82.5716 114.49 82.5325C114.613 82.4879 114.758 82.4656 114.925 82.4656C115.21 82.4656 115.472 82.5353 115.712 82.6748C115.952 82.8087 116.13 83.0318 116.247 83.3442H116.264C116.342 83.1099 116.487 82.9063 116.699 82.7333C116.917 82.5548 117.21 82.4656 117.578 82.4656C118.019 82.4656 118.362 82.6106 118.607 82.9007C118.858 83.1852 118.984 83.5897 118.984 84.1141V86.8841H118.314V84.2313C118.314 83.8463 118.239 83.5562 118.089 83.361C117.938 83.1657 117.698 83.0681 117.369 83.0681C117.235 83.0681 117.107 83.0848 116.984 83.1183C116.867 83.1518 116.761 83.202 116.666 83.2689C116.571 83.3359 116.496 83.4223 116.44 83.5283C116.384 83.6288 116.356 83.7487 116.356 83.8882V86.8841H115.687V84.2313C115.687 83.8463 115.611 83.5562 115.461 83.361C115.31 83.1657 115.076 83.0681 114.758 83.0681C114.624 83.0681 114.496 83.0848 114.373 83.1183C114.25 83.1518 114.141 83.202 114.047 83.2689C113.952 83.3359 113.874 83.4223 113.812 83.5283C113.756 83.6288 113.729 83.7487 113.729 83.8882V86.8841H113.059ZM121.997 86.9845C121.707 86.9845 121.442 86.9315 121.202 86.8255C120.962 86.7195 120.756 86.5689 120.583 86.3736C120.415 86.1728 120.284 85.9357 120.189 85.6623C120.095 85.3833 120.047 85.0709 120.047 84.725C120.047 84.3847 120.095 84.0751 120.189 83.7961C120.284 83.5172 120.415 83.2801 120.583 83.0848C120.756 82.884 120.962 82.7306 121.202 82.6246C121.442 82.5186 121.707 82.4656 121.997 82.4656C122.287 82.4656 122.549 82.5186 122.784 82.6246C123.024 82.7306 123.23 82.884 123.403 83.0848C123.576 83.2801 123.71 83.5172 123.805 83.7961C123.899 84.0751 123.947 84.3847 123.947 84.725C123.947 85.0709 123.899 85.3833 123.805 85.6623C123.71 85.9357 123.576 86.1728 123.403 86.3736C123.23 86.5689 123.024 86.7195 122.784 86.8255C122.549 86.9315 122.287 86.9845 121.997 86.9845ZM121.997 86.3903C122.36 86.3903 122.655 86.2788 122.884 86.0556C123.113 85.8324 123.227 85.4921 123.227 85.0347V84.4154C123.227 83.9579 123.113 83.6176 122.884 83.3944C122.655 83.1713 122.36 83.0597 121.997 83.0597C121.634 83.0597 121.339 83.1713 121.11 83.3944C120.881 83.6176 120.767 83.9579 120.767 84.4154V85.0347C120.767 85.4921 120.881 85.8324 121.11 86.0556C121.339 86.2788 121.634 86.3903 121.997 86.3903ZM125.048 82.566H125.717V83.2689H125.751C125.862 82.9956 126.024 82.7947 126.236 82.6664C126.454 82.5325 126.713 82.4656 127.014 82.4656C127.282 82.4656 127.525 82.5186 127.742 82.6246C127.96 82.7306 128.144 82.8812 128.295 83.0764C128.451 83.2717 128.568 83.5088 128.646 83.7878C128.73 84.0667 128.772 84.3791 128.772 84.725C128.772 85.0709 128.73 85.3833 128.646 85.6623C128.568 85.9412 128.451 86.1783 128.295 86.3736C128.144 86.5689 127.96 86.7195 127.742 86.8255C127.525 86.9315 127.282 86.9845 127.014 86.9845C126.429 86.9845 126.007 86.7167 125.751 86.1811H125.717V88.5578H125.048V82.566ZM126.83 86.382C127.21 86.382 127.508 86.2648 127.726 86.0305C127.943 85.7906 128.052 85.4782 128.052 85.0932V84.3568C128.052 83.9719 127.943 83.6622 127.726 83.4279C127.508 83.188 127.21 83.0681 126.83 83.0681C126.68 83.0681 126.535 83.0904 126.395 83.135C126.261 83.1741 126.144 83.2299 126.044 83.3024C125.943 83.3749 125.862 83.4642 125.801 83.5702C125.745 83.6706 125.717 83.7794 125.717 83.8966V85.5033C125.717 85.6428 125.745 85.7683 125.801 85.8799C125.862 85.9859 125.943 86.0779 126.044 86.156C126.144 86.2286 126.261 86.2843 126.395 86.3234C126.535 86.3624 126.68 86.382 126.83 86.382ZM131.534 86.9845C131.244 86.9845 130.979 86.9315 130.739 86.8255C130.499 86.7195 130.293 86.5689 130.12 86.3736C129.952 86.1728 129.821 85.9357 129.726 85.6623C129.632 85.3833 129.584 85.0709 129.584 84.725C129.584 84.3847 129.632 84.0751 129.726 83.7961C129.821 83.5172 129.952 83.2801 130.12 83.0848C130.293 82.884 130.499 82.7306 130.739 82.6246C130.979 82.5186 131.244 82.4656 131.534 82.4656C131.824 82.4656 132.086 82.5186 132.321 82.6246C132.561 82.7306 132.767 82.884 132.94 83.0848C133.113 83.2801 133.247 83.5172 133.342 83.7961C133.436 84.0751 133.484 84.3847 133.484 84.725C133.484 85.0709 133.436 85.3833 133.342 85.6623C133.247 85.9357 133.113 86.1728 132.94 86.3736C132.767 86.5689 132.561 86.7195 132.321 86.8255C132.086 86.9315 131.824 86.9845 131.534 86.9845ZM131.534 86.3903C131.897 86.3903 132.192 86.2788 132.421 86.0556C132.65 85.8324 132.764 85.4921 132.764 85.0347V84.4154C132.764 83.9579 132.65 83.6176 132.421 83.3944C132.192 83.1713 131.897 83.0597 131.534 83.0597C131.171 83.0597 130.876 83.1713 130.647 83.3944C130.418 83.6176 130.304 83.9579 130.304 84.4154V85.0347C130.304 85.4921 130.418 85.8324 130.647 86.0556C130.876 86.2788 131.171 86.3903 131.534 86.3903ZM135.296 86.8841C135.062 86.8841 134.883 86.8199 134.761 86.6916C134.643 86.5577 134.585 86.3903 134.585 86.1895V80.6914H135.254V86.2983H135.89V86.8841H135.296ZM137.2 81.5534C137.055 81.5534 136.949 81.5199 136.882 81.453C136.82 81.3804 136.79 81.2884 136.79 81.1768V81.068C136.79 80.9564 136.82 80.8672 136.882 80.8002C136.949 80.7277 137.055 80.6914 137.2 80.6914C137.345 80.6914 137.448 80.7277 137.509 80.8002C137.576 80.8672 137.61 80.9564 137.61 81.068V81.1768C137.61 81.2884 137.576 81.3804 137.509 81.453C137.448 81.5199 137.345 81.5534 137.2 81.5534ZM136.865 82.566H137.534V86.8841H136.865V82.566ZM140.254 86.9845C139.853 86.9845 139.515 86.9092 139.242 86.7586C138.974 86.6023 138.742 86.3959 138.547 86.1393L139.024 85.7543C139.191 85.9663 139.378 86.1309 139.585 86.2481C139.791 86.3597 140.031 86.4154 140.304 86.4154C140.589 86.4154 140.809 86.3541 140.966 86.2313C141.127 86.1086 141.208 85.9357 141.208 85.7125C141.208 85.5451 141.152 85.4029 141.041 85.2857C140.935 85.163 140.74 85.0793 140.455 85.0347L140.112 84.9844C139.911 84.9566 139.727 84.9147 139.56 84.8589C139.392 84.7976 139.244 84.7194 139.116 84.6246C138.993 84.5242 138.896 84.4014 138.823 84.2564C138.756 84.1113 138.723 83.9384 138.723 83.7376C138.723 83.5256 138.762 83.3414 138.84 83.1852C138.918 83.0234 139.024 82.8896 139.158 82.7836C139.297 82.6776 139.462 82.5994 139.652 82.5492C139.841 82.4934 140.045 82.4656 140.263 82.4656C140.614 82.4656 140.907 82.5269 141.141 82.6497C141.381 82.7724 141.59 82.9426 141.769 83.1601L141.325 83.5618C141.231 83.4279 141.091 83.308 140.907 83.202C140.723 83.0904 140.491 83.0346 140.212 83.0346C139.933 83.0346 139.721 83.096 139.576 83.2187C139.437 83.3359 139.367 83.4977 139.367 83.7041C139.367 83.9161 139.437 84.0695 139.576 84.1643C139.721 84.2592 139.928 84.3289 140.196 84.3736L140.53 84.4238C141.01 84.4963 141.35 84.6358 141.551 84.8422C141.752 85.043 141.853 85.308 141.853 85.6372C141.853 86.0556 141.71 86.3848 141.426 86.6247C141.141 86.8646 140.751 86.9845 140.254 86.9845ZM143.421 85.905C143.6 85.905 143.728 85.9524 143.806 86.0472C143.89 86.1365 143.931 86.2537 143.931 86.3987V86.5159C143.931 86.7446 143.865 86.9957 143.731 87.269C143.597 87.548 143.41 87.7907 143.17 87.9971H142.609C142.777 87.8186 142.911 87.6484 143.011 87.4866C143.117 87.3304 143.192 87.1547 143.237 86.9594C143.125 86.9315 143.042 86.8785 142.986 86.8004C142.936 86.7223 142.911 86.6274 142.911 86.5159V86.3987C142.911 86.2537 142.95 86.1365 143.028 86.0472C143.111 85.9524 143.242 85.905 143.421 85.905ZM151.101 86.0305H151.076C151.004 86.3039 150.825 86.5326 150.541 86.7167C150.262 86.8952 149.899 86.9845 149.453 86.9845C149.096 86.9845 148.767 86.9203 148.465 86.792C148.17 86.6581 147.916 86.4657 147.704 86.2146C147.492 85.958 147.324 85.6428 147.202 85.269C147.085 84.8896 147.026 84.4544 147.026 83.9635C147.026 83.4781 147.085 83.0486 147.202 82.6748C147.319 82.2954 147.486 81.9802 147.704 81.7291C147.921 81.4725 148.184 81.2772 148.49 81.1433C148.797 81.0094 149.138 80.9425 149.511 80.9425C150.036 80.9425 150.474 81.0597 150.825 81.294C151.177 81.5283 151.447 81.8379 151.637 82.2229L151.06 82.5743C150.926 82.2619 150.725 82.0164 150.457 81.8379C150.195 81.6594 149.88 81.5701 149.511 81.5701C149.255 81.5701 149.02 81.6176 148.808 81.7124C148.596 81.8017 148.412 81.93 148.256 82.0973C148.106 82.2647 147.988 82.4656 147.905 82.6999C147.821 82.9342 147.779 83.1964 147.779 83.4865V84.4321C147.779 84.7222 147.821 84.9872 147.905 85.2271C147.988 85.4614 148.106 85.6623 148.256 85.8297C148.412 85.997 148.602 86.1281 148.825 86.223C149.048 86.3122 149.299 86.3569 149.578 86.3569C149.779 86.3569 149.969 86.3318 150.147 86.2816C150.332 86.2258 150.491 86.1449 150.624 86.0389C150.764 85.9329 150.873 85.8018 150.951 85.6456C151.029 85.4838 151.068 85.2941 151.068 85.0765V84.4991H149.779V83.8798H151.754V86.8841H151.101V86.0305ZM153.782 86.8841C153.548 86.8841 153.369 86.8199 153.246 86.6916C153.129 86.5577 153.071 86.3903 153.071 86.1895V80.6914H153.74V86.2983H154.376V86.8841H153.782ZM156.983 86.9845C156.692 86.9845 156.427 86.9315 156.188 86.8255C155.948 86.7195 155.741 86.5689 155.568 86.3736C155.401 86.1728 155.27 85.9357 155.175 85.6623C155.08 85.3833 155.033 85.0709 155.033 84.725C155.033 84.3847 155.08 84.0751 155.175 83.7961C155.27 83.5172 155.401 83.2801 155.568 83.0848C155.741 82.884 155.948 82.7306 156.188 82.6246C156.427 82.5186 156.692 82.4656 156.983 82.4656C157.273 82.4656 157.535 82.5186 157.769 82.6246C158.009 82.7306 158.215 82.884 158.388 83.0848C158.561 83.2801 158.695 83.5172 158.79 83.7961C158.885 84.0751 158.932 84.3847 158.932 84.725C158.932 85.0709 158.885 85.3833 158.79 85.6623C158.695 85.9357 158.561 86.1728 158.388 86.3736C158.215 86.5689 158.009 86.7195 157.769 86.8255C157.535 86.9315 157.273 86.9845 156.983 86.9845ZM156.983 86.3903C157.345 86.3903 157.641 86.2788 157.87 86.0556C158.098 85.8324 158.213 85.4921 158.213 85.0347V84.4154C158.213 83.9579 158.098 83.6176 157.87 83.3944C157.641 83.1713 157.345 83.0597 156.983 83.0597C156.62 83.0597 156.324 83.1713 156.095 83.3944C155.867 83.6176 155.752 83.9579 155.752 84.4154V85.0347C155.752 85.4921 155.867 85.8324 156.095 86.0556C156.324 86.2788 156.62 86.3903 156.983 86.3903ZM160.033 80.6914H160.703V83.2689H160.736C160.848 82.9956 161.01 82.7947 161.222 82.6664C161.439 82.5325 161.699 82.4656 162 82.4656C162.268 82.4656 162.51 82.5186 162.728 82.6246C162.946 82.7306 163.13 82.8812 163.28 83.0764C163.437 83.2717 163.554 83.5088 163.632 83.7878C163.716 84.0667 163.757 84.3791 163.757 84.725C163.757 85.0709 163.716 85.3833 163.632 85.6623C163.554 85.9412 163.437 86.1783 163.28 86.3736C163.13 86.5689 162.946 86.7195 162.728 86.8255C162.51 86.9315 162.268 86.9845 162 86.9845C161.414 86.9845 160.993 86.7167 160.736 86.1811H160.703V86.8841H160.033V80.6914ZM161.816 86.382C162.195 86.382 162.494 86.2648 162.711 86.0305C162.929 85.7906 163.038 85.4782 163.038 85.0932V84.3568C163.038 83.9719 162.929 83.6622 162.711 83.4279C162.494 83.188 162.195 83.0681 161.816 83.0681C161.665 83.0681 161.52 83.0904 161.381 83.135C161.247 83.1741 161.13 83.2299 161.029 83.3024C160.929 83.3749 160.848 83.4642 160.787 83.5702C160.731 83.6706 160.703 83.7794 160.703 83.8966V85.5033C160.703 85.6428 160.731 85.7683 160.787 85.8799C160.848 85.9859 160.929 86.0779 161.029 86.156C161.13 86.2286 161.247 86.2843 161.381 86.3234C161.52 86.3624 161.665 86.382 161.816 86.382ZM168.026 86.8841C167.775 86.8841 167.594 86.8171 167.482 86.6832C167.376 86.5493 167.309 86.382 167.281 86.1811H167.239C167.144 86.4489 166.988 86.6498 166.771 86.7837C166.553 86.9176 166.294 86.9845 165.992 86.9845C165.535 86.9845 165.178 86.8673 164.921 86.633C164.67 86.3987 164.545 86.0807 164.545 85.679C164.545 85.2718 164.692 84.9593 164.988 84.7418C165.289 84.5242 165.755 84.4154 166.386 84.4154H167.239V83.9886C167.239 83.6818 167.156 83.4474 166.988 83.2857C166.821 83.1239 166.564 83.043 166.218 83.043C165.956 83.043 165.736 83.1016 165.557 83.2187C165.384 83.3359 165.239 83.4921 165.122 83.6873L164.72 83.3108C164.838 83.0764 165.024 82.8784 165.281 82.7166C165.538 82.5492 165.861 82.4656 166.252 82.4656C166.776 82.4656 167.183 82.5939 167.474 82.8505C167.764 83.1071 167.909 83.4642 167.909 83.9217V86.2983H168.402V86.8841H168.026ZM166.101 86.4154C166.269 86.4154 166.422 86.3959 166.561 86.3569C166.701 86.3178 166.821 86.262 166.921 86.1895C167.022 86.117 167.1 86.0333 167.156 85.9384C167.211 85.8436 167.239 85.7404 167.239 85.6288V84.9175H166.352C165.967 84.9175 165.686 84.9733 165.507 85.0849C165.334 85.1964 165.248 85.3582 165.248 85.5702V85.746C165.248 85.958 165.323 86.1226 165.474 86.2397C165.63 86.3569 165.839 86.4154 166.101 86.4154ZM170.069 86.8841C169.835 86.8841 169.656 86.8199 169.534 86.6916C169.417 86.5577 169.358 86.3903 169.358 86.1895V80.6914H170.027V86.2983H170.663V86.8841H170.069ZM175.323 86.9845C174.849 86.9845 174.444 86.8952 174.109 86.7167C173.775 86.5326 173.49 86.2816 173.256 85.9636L173.775 85.5284C173.981 85.8018 174.21 86.011 174.461 86.156C174.712 86.2955 175.008 86.3652 175.348 86.3652C175.766 86.3652 176.084 86.2648 176.302 86.064C176.525 85.8631 176.637 85.5953 176.637 85.2606C176.637 84.9817 176.553 84.7669 176.386 84.6162C176.218 84.4656 175.942 84.3457 175.557 84.2564L175.08 84.1476C174.545 84.0249 174.135 83.8408 173.85 83.5953C173.571 83.3442 173.432 82.9928 173.432 82.5409C173.432 82.2842 173.479 82.0555 173.574 81.8547C173.669 81.6538 173.8 81.4864 173.967 81.3526C174.14 81.2187 174.344 81.1182 174.578 81.0513C174.818 80.9788 175.08 80.9425 175.365 80.9425C175.805 80.9425 176.182 81.0234 176.494 81.1852C176.812 81.347 177.08 81.5841 177.298 81.8965L176.771 82.2814C176.609 82.0583 176.414 81.8826 176.185 81.7542C175.956 81.6259 175.672 81.5618 175.331 81.5618C174.957 81.5618 174.662 81.6427 174.444 81.8044C174.232 81.9607 174.126 82.1978 174.126 82.5158C174.126 82.7947 174.215 83.0067 174.394 83.1518C174.578 83.2912 174.854 83.4028 175.222 83.4865L175.699 83.5953C176.274 83.7236 176.69 83.9189 176.946 84.1811C177.203 84.4433 177.331 84.792 177.331 85.2271C177.331 85.4949 177.284 85.7376 177.189 85.9552C177.1 86.1728 176.969 86.3569 176.796 86.5075C176.623 86.6581 176.411 86.7753 176.16 86.859C175.914 86.9427 175.635 86.9845 175.323 86.9845ZM179.432 86.8841C179.198 86.8841 179.019 86.8199 178.897 86.6916C178.78 86.5577 178.721 86.3848 178.721 86.1728V83.1518H178.01V82.566H178.411C178.556 82.566 178.654 82.5381 178.704 82.4823C178.76 82.4209 178.788 82.3177 178.788 82.1727V81.3693H179.39V82.566H180.336V83.1518H179.39V86.2983H180.269V86.8841H179.432ZM184.55 86.8841C184.299 86.8841 184.118 86.8171 184.006 86.6832C183.9 86.5493 183.833 86.382 183.805 86.1811H183.764C183.669 86.4489 183.513 86.6498 183.295 86.7837C183.077 86.9176 182.818 86.9845 182.517 86.9845C182.059 86.9845 181.702 86.8673 181.446 86.633C181.195 86.3987 181.069 86.0807 181.069 85.679C181.069 85.2718 181.217 84.9593 181.513 84.7418C181.814 84.5242 182.28 84.4154 182.91 84.4154H183.764V83.9886C183.764 83.6818 183.68 83.4474 183.513 83.2857C183.345 83.1239 183.089 83.043 182.743 83.043C182.48 83.043 182.26 83.1016 182.082 83.2187C181.909 83.3359 181.764 83.4921 181.646 83.6873L181.245 83.3108C181.362 83.0764 181.549 82.8784 181.805 82.7166C182.062 82.5492 182.386 82.4656 182.776 82.4656C183.301 82.4656 183.708 82.5939 183.998 82.8505C184.288 83.1071 184.433 83.4642 184.433 83.9217V86.2983H184.927V86.8841H184.55ZM182.626 86.4154C182.793 86.4154 182.946 86.3959 183.086 86.3569C183.225 86.3178 183.345 86.262 183.446 86.1895C183.546 86.117 183.624 86.0333 183.68 85.9384C183.736 85.8436 183.764 85.7404 183.764 85.6288V84.9175H182.877C182.492 84.9175 182.21 84.9733 182.031 85.0849C181.858 85.1964 181.772 85.3582 181.772 85.5702V85.746C181.772 85.958 181.847 86.1226 181.998 86.2397C182.154 86.3569 182.363 86.4154 182.626 86.4154ZM186.836 86.8841C186.602 86.8841 186.424 86.8199 186.301 86.6916C186.184 86.5577 186.125 86.3848 186.125 86.1728V83.1518H185.414V82.566H185.815C185.96 82.566 186.058 82.5381 186.108 82.4823C186.164 82.4209 186.192 82.3177 186.192 82.1727V81.3693H186.795V82.566H187.74V83.1518H186.795V86.2983H187.673V86.8841H186.836ZM190.407 86.9845C190.111 86.9845 189.844 86.9315 189.604 86.8255C189.369 86.7195 189.166 86.5689 188.993 86.3736C188.825 86.1728 188.694 85.9357 188.599 85.6623C188.51 85.3833 188.466 85.0709 188.466 84.725C188.466 84.3847 188.51 84.0751 188.599 83.7961C188.694 83.5172 188.825 83.2801 188.993 83.0848C189.166 82.884 189.369 82.7306 189.604 82.6246C189.844 82.5186 190.111 82.4656 190.407 82.4656C190.697 82.4656 190.957 82.5186 191.185 82.6246C191.414 82.7306 191.609 82.8784 191.771 83.0681C191.933 83.2522 192.056 83.4726 192.139 83.7292C192.229 83.9858 192.273 84.2676 192.273 84.5744V84.8924H189.168V85.0932C189.168 85.2773 189.196 85.4503 189.252 85.6121C189.314 85.7683 189.397 85.905 189.503 86.0221C189.615 86.1393 189.749 86.2313 189.905 86.2983C190.067 86.3652 190.248 86.3987 190.449 86.3987C190.722 86.3987 190.959 86.3346 191.16 86.2062C191.367 86.0779 191.526 85.8938 191.637 85.6539L192.114 85.997C191.975 86.2927 191.757 86.5326 191.461 86.7167C191.166 86.8952 190.814 86.9845 190.407 86.9845ZM190.407 83.0262C190.223 83.0262 190.056 83.0597 189.905 83.1267C189.754 83.188 189.623 83.2773 189.512 83.3944C189.406 83.5116 189.322 83.6511 189.261 83.8129C189.199 83.9691 189.168 84.142 189.168 84.3317V84.3903H191.553V84.2982C191.553 83.9133 191.447 83.6064 191.235 83.3777C191.029 83.1434 190.753 83.0262 190.407 83.0262Z" fill="#3F6FE5"/>
<path id="Vector_8" d="M100.574 97.1937C100.97 97.1937 101.265 97.1044 101.461 96.9259C101.662 96.7418 101.762 96.5074 101.762 96.2229V96.1643C101.762 95.8575 101.664 95.6288 101.469 95.4781C101.279 95.3219 101.028 95.2438 100.716 95.2438C100.415 95.2438 100.169 95.3108 99.9795 95.4447C99.7898 95.573 99.6336 95.7487 99.5109 95.9719L98.9921 95.5702C99.0646 95.453 99.1511 95.3387 99.2515 95.2271C99.3575 95.1099 99.4802 95.0067 99.6197 94.9174C99.7592 94.8282 99.9209 94.7557 100.105 94.6999C100.289 94.6441 100.498 94.6162 100.733 94.6162C100.978 94.6162 101.21 94.6497 101.427 94.7166C101.645 94.778 101.832 94.8728 101.988 95.0011C102.15 95.1239 102.275 95.2773 102.365 95.4614C102.459 95.6455 102.507 95.8547 102.507 96.089C102.507 96.2787 102.476 96.4489 102.415 96.5995C102.359 96.7501 102.281 96.8812 102.18 96.9928C102.08 97.1044 101.96 97.1992 101.821 97.2773C101.687 97.3554 101.542 97.414 101.385 97.4531V97.4866C101.542 97.52 101.692 97.5758 101.837 97.6539C101.988 97.7264 102.119 97.8241 102.231 97.9468C102.348 98.064 102.44 98.209 102.507 98.382C102.579 98.5493 102.616 98.7418 102.616 98.9594C102.616 99.2104 102.568 99.442 102.473 99.654C102.378 99.8604 102.245 100.039 102.072 100.19C101.899 100.335 101.689 100.449 101.444 100.533C101.199 100.616 100.928 100.658 100.632 100.658C100.381 100.658 100.158 100.63 99.9628 100.575C99.7675 100.519 99.5946 100.443 99.4439 100.349C99.2933 100.254 99.1594 100.148 99.0423 100.031C98.9307 99.9134 98.8303 99.7907 98.741 99.6623L99.2682 99.2607C99.3407 99.3778 99.4188 99.4838 99.5025 99.5787C99.5918 99.6735 99.6894 99.7544 99.7954 99.8213C99.9014 99.8883 100.021 99.9413 100.155 99.9803C100.289 100.014 100.445 100.031 100.624 100.031C101.037 100.031 101.349 99.9385 101.561 99.7544C101.773 99.5647 101.879 99.2969 101.879 98.951V98.8841C101.879 98.5382 101.773 98.2732 101.561 98.0891C101.349 97.8994 101.037 97.8046 100.624 97.8046H99.9377V97.1937H100.574ZM105.591 97.1937C105.988 97.1937 106.283 97.1044 106.479 96.9259C106.679 96.7418 106.78 96.5074 106.78 96.2229V96.1643C106.78 95.8575 106.682 95.6288 106.487 95.4781C106.297 95.3219 106.046 95.2438 105.734 95.2438C105.432 95.2438 105.187 95.3108 104.997 95.4447C104.808 95.573 104.651 95.7487 104.529 95.9719L104.01 95.5702C104.082 95.453 104.169 95.3387 104.269 95.2271C104.375 95.1099 104.498 95.0067 104.637 94.9174C104.777 94.8282 104.939 94.7557 105.123 94.6999C105.307 94.6441 105.516 94.6162 105.75 94.6162C105.996 94.6162 106.227 94.6497 106.445 94.7166C106.663 94.778 106.85 94.8728 107.006 95.0011C107.168 95.1239 107.293 95.2773 107.382 95.4614C107.477 95.6455 107.525 95.8547 107.525 96.089C107.525 96.2787 107.494 96.4489 107.433 96.5995C107.377 96.7501 107.299 96.8812 107.198 96.9928C107.098 97.1044 106.978 97.1992 106.838 97.2773C106.704 97.3554 106.559 97.414 106.403 97.4531V97.4866C106.559 97.52 106.71 97.5758 106.855 97.6539C107.006 97.7264 107.137 97.8241 107.248 97.9468C107.366 98.064 107.458 98.209 107.525 98.382C107.597 98.5493 107.633 98.7418 107.633 98.9594C107.633 99.2104 107.586 99.442 107.491 99.654C107.396 99.8604 107.262 100.039 107.089 100.19C106.916 100.335 106.707 100.449 106.462 100.533C106.216 100.616 105.946 100.658 105.65 100.658C105.399 100.658 105.176 100.63 104.981 100.575C104.785 100.519 104.612 100.443 104.462 100.349C104.311 100.254 104.177 100.148 104.06 100.031C103.948 99.9134 103.848 99.7907 103.759 99.6623L104.286 99.2607C104.359 99.3778 104.437 99.4838 104.52 99.5787C104.61 99.6735 104.707 99.7544 104.813 99.8213C104.919 99.8883 105.039 99.9413 105.173 99.9803C105.307 100.014 105.463 100.031 105.642 100.031C106.055 100.031 106.367 99.9385 106.579 99.7544C106.791 99.5647 106.897 99.2969 106.897 98.951V98.8841C106.897 98.5382 106.791 98.2732 106.579 98.0891C106.367 97.8994 106.055 97.8046 105.642 97.8046H104.955V97.1937H105.591ZM110.936 100.658C110.238 100.658 109.728 100.393 109.404 99.8632C109.086 99.3332 108.927 98.5912 108.927 97.6372C108.927 96.6832 109.086 95.9412 109.404 95.4112C109.728 94.8812 110.238 94.6162 110.936 94.6162C111.633 94.6162 112.141 94.8812 112.459 95.4112C112.782 95.9412 112.944 96.6832 112.944 97.6372C112.944 98.5912 112.782 99.3332 112.459 99.8632C112.141 100.393 111.633 100.658 110.936 100.658ZM110.936 100.047C111.164 100.047 111.36 99.9999 111.521 99.905C111.683 99.8102 111.814 99.6763 111.915 99.5033C112.015 99.3304 112.088 99.1268 112.132 98.8924C112.183 98.6581 112.208 98.3987 112.208 98.1142V97.1602C112.208 96.8757 112.183 96.6162 112.132 96.3819C112.088 96.1476 112.015 95.944 111.915 95.771C111.814 95.5981 111.683 95.4642 111.521 95.3693C111.36 95.2745 111.164 95.2271 110.936 95.2271C110.707 95.2271 110.512 95.2745 110.35 95.3693C110.188 95.4642 110.057 95.5981 109.957 95.771C109.856 95.944 109.781 96.1476 109.731 96.3819C109.686 96.6162 109.664 96.8757 109.664 97.1602V98.1142C109.664 98.3987 109.686 98.6581 109.731 98.8924C109.781 99.1268 109.856 99.3304 109.957 99.5033C110.057 99.6763 110.188 99.8102 110.35 99.905C110.512 99.9999 110.707 100.047 110.936 100.047ZM114.179 100.558V99.9385H115.811V95.2354H115.753L114.28 96.6079L113.87 96.1643L115.418 94.7166H116.514V99.9385H118.02V100.558H114.179ZM120.971 100.658C120.274 100.658 119.763 100.393 119.44 99.8632C119.122 99.3332 118.963 98.5912 118.963 97.6372C118.963 96.6832 119.122 95.9412 119.44 95.4112C119.763 94.8812 120.274 94.6162 120.971 94.6162C121.669 94.6162 122.176 94.8812 122.494 95.4112C122.818 95.9412 122.98 96.6832 122.98 97.6372C122.98 98.5912 122.818 99.3332 122.494 99.8632C122.176 100.393 121.669 100.658 120.971 100.658ZM120.971 100.047C121.2 100.047 121.395 99.9999 121.557 99.905C121.719 99.8102 121.85 99.6763 121.95 99.5033C122.051 99.3304 122.123 99.1268 122.168 98.8924C122.218 98.6581 122.243 98.3987 122.243 98.1142V97.1602C122.243 96.8757 122.218 96.6162 122.168 96.3819C122.123 96.1476 122.051 95.944 121.95 95.771C121.85 95.5981 121.719 95.4642 121.557 95.3693C121.395 95.2745 121.2 95.2271 120.971 95.2271C120.742 95.2271 120.547 95.2745 120.385 95.3693C120.224 95.4642 120.093 95.5981 119.992 95.771C119.892 95.944 119.816 96.1476 119.766 96.3819C119.722 96.6162 119.699 96.8757 119.699 97.1602V98.1142C119.699 98.3987 119.722 98.6581 119.766 98.8924C119.816 99.1268 119.892 99.3304 119.992 99.5033C120.093 99.6763 120.224 99.8102 120.385 99.905C120.547 99.9999 120.742 100.047 120.971 100.047Z" fill="#3F6FE5"/>
<g id="Group_3" opacity="0.16">
<path id="Vector_9" d="M158.642 130.874H98.3894V137.569H158.642V130.874Z" fill="#377CFC"/>
<path id="Vector_10" d="M235.632 130.874H192.116V137.569H235.632V130.874Z" fill="#377CFC"/>
<path id="Vector_11" d="M98.3894 128.363H327.684V126.69H98.3894V128.363ZM327.684 140.079H98.3894V141.753H327.684V140.079Z" fill="#D6D6D6"/>
<path id="Vector_12" d="M158.642 147.611H98.3894V154.306H158.642V147.611Z" fill="#377CFC"/>
<path id="Vector_13" d="M235.632 147.611H192.116V154.306H235.632V147.611Z" fill="#377CFC"/>
</g>
<path id="Vector_14" opacity="0.16" d="M249.684 109.116H166V120.832H249.684V109.116Z" fill="#377CFC"/>
</g>
</g>
</g>
<path id="Vector_15" d="M209 2.41846H89C87.022 2.41846 85.4185 4.02198 85.4185 6.00004V156C85.4185 157.978 87.022 159.581 89 159.581H209C210.978 159.581 212.581 157.978 212.581 156V6.00004C212.581 4.02198 210.978 2.41846 209 2.41846Z" stroke="#F2F3F4" stroke-width="0.836842"/>
</g>
<path id="Vector_16" d="M34.8218 27.4111H76.4451C77.358 27.4111 78.1006 28.1578 78.1006 29.0758V44.2955C78.1006 45.2134 77.358 45.9601 76.4451 45.9601H4.55025C3.63737 45.9601 2.89478 45.2134 2.89478 44.2955V29.0758C2.89478 28.1578 3.63737 27.4111 4.55025 27.4111H7.89431" fill="white"/>
<path id="Vector_17" d="M34.8218 27.4111H76.4451C77.358 27.4111 78.1006 28.1578 78.1006 29.0758V44.2955C78.1006 45.2134 77.358 45.9601 76.4451 45.9601H4.55025C3.63737 45.9601 2.89478 45.2134 2.89478 44.2955V29.0758C2.89478 28.1578 3.63737 27.4111 4.55025 27.4111H7.89431" stroke="#D6DADB"/>
<path id="Vector_18" d="M10.666 28.6001V25.2803H11.0633V28.2482H12.4681V28.6001H10.666ZM14.7669 28.6001C14.625 28.6001 14.5209 28.5621 14.4594 28.486C14.3979 28.4099 14.3601 28.3147 14.3459 28.2006H14.3223C14.2702 28.3528 14.1804 28.4669 14.0574 28.543C13.9344 28.6191 13.7878 28.6572 13.6175 28.6572C13.3573 28.6572 13.1587 28.5906 13.0121 28.4574C12.8702 28.3243 12.7992 28.1435 12.7992 27.9152C12.7992 27.6869 12.8844 27.5062 13.0499 27.3825C13.2202 27.2589 13.4851 27.197 13.8398 27.197H14.3223V26.9545C14.3223 26.7785 14.275 26.6453 14.1804 26.555C14.0858 26.4646 13.9391 26.417 13.7452 26.417C13.5986 26.417 13.4709 26.4503 13.3715 26.5169C13.2722 26.5835 13.1918 26.6739 13.1256 26.7833L12.8985 26.5692C12.9648 26.4361 13.0688 26.3219 13.2154 26.2315C13.3621 26.1364 13.5418 26.0889 13.7641 26.0889C14.0621 26.0889 14.2891 26.1602 14.4547 26.3076C14.6202 26.4551 14.7006 26.6548 14.7006 26.9164V28.2672H14.9797V28.6001H14.7669ZM13.679 28.3338C13.7736 28.3338 13.8587 28.3243 13.9391 28.3005C14.0195 28.2767 14.0858 28.2482 14.1425 28.2054C14.1993 28.1625 14.2418 28.115 14.275 28.0627C14.3081 28.0104 14.3223 27.9485 14.3223 27.8867V27.4824H13.8209C13.6033 27.4824 13.4425 27.5157 13.3432 27.5775C13.2438 27.6394 13.1965 27.7345 13.1965 27.8534V27.9533C13.1965 28.0722 13.2391 28.1673 13.3242 28.2339C13.4141 28.3005 13.5324 28.3338 13.679 28.3338ZM16.2521 28.6572C16.025 28.6572 15.8358 28.6144 15.6797 28.5288C15.5284 28.4384 15.3959 28.3243 15.2872 28.1768L15.5568 27.958C15.6514 28.0769 15.7554 28.1721 15.8737 28.2386C15.9919 28.3005 16.1244 28.3338 16.2804 28.3338C16.4365 28.3338 16.5642 28.3005 16.6541 28.2291C16.744 28.1578 16.7913 28.0627 16.7913 27.9343C16.7913 27.8391 16.7582 27.7583 16.6967 27.6917C16.6352 27.6203 16.5264 27.5728 16.3656 27.549L16.1717 27.5205C16.0581 27.5062 15.9541 27.4824 15.8595 27.4491C15.7649 27.4158 15.6797 27.3683 15.6088 27.316C15.5378 27.2589 15.4858 27.1875 15.4432 27.1067C15.4054 27.0258 15.3865 26.9259 15.3865 26.8118C15.3865 26.6929 15.4101 26.5883 15.4527 26.4979C15.4953 26.4075 15.5568 26.3314 15.6324 26.2696C15.7128 26.2078 15.8027 26.165 15.9115 26.1364C16.0203 26.1031 16.1338 26.0889 16.2568 26.0889C16.4554 26.0889 16.621 26.1222 16.7534 26.1935C16.8906 26.2648 17.0088 26.36 17.1082 26.4836L16.8575 26.7119C16.8055 26.6358 16.7251 26.5692 16.621 26.5074C16.5169 26.4456 16.3845 26.4123 16.2284 26.4123C16.0723 26.4123 15.9493 26.4456 15.8689 26.5169C15.7885 26.5835 15.7507 26.6739 15.7507 26.7928C15.7507 26.9117 15.7885 27.002 15.8689 27.0544C15.9493 27.1067 16.0676 27.1495 16.219 27.1733L16.4081 27.2018C16.6778 27.2446 16.8717 27.3207 16.9852 27.4396C17.0987 27.5538 17.1555 27.706 17.1555 27.8914C17.1555 28.1293 17.0751 28.3147 16.9142 28.4527C16.7534 28.5906 16.5311 28.6572 16.2521 28.6572ZM18.3285 28.6001C18.1961 28.6001 18.0967 28.5621 18.0258 28.4907C17.9596 28.4146 17.9265 28.3147 17.9265 28.1958V26.4789H17.5244V26.1459H17.7514C17.8319 26.1459 17.8886 26.1317 17.917 26.0984C17.9501 26.0651 17.9643 26.0033 17.9643 25.9224V25.4658H18.3048V26.1459H18.8393V26.4789H18.3048V28.2672H18.8015V28.6001H18.3285ZM20.5658 28.6001V26.1459H20.9441V26.5455H20.9631C21.0246 26.4075 21.105 26.2934 21.2138 26.2125C21.3225 26.1317 21.4692 26.0889 21.6536 26.0889C21.9043 26.0889 22.103 26.1697 22.2496 26.3362C22.3962 26.4979 22.4719 26.7262 22.4719 27.0258V28.6001H22.0935V27.0924C22.0935 26.6501 21.9091 26.4313 21.5401 26.4313C21.4644 26.4313 21.3888 26.4408 21.3178 26.4598C21.2469 26.4789 21.1854 26.5074 21.1286 26.5455C21.0719 26.5835 21.0246 26.6311 20.9914 26.6929C20.9583 26.75 20.9441 26.8166 20.9441 26.8974V28.6001H20.5658ZM25.0261 28.6001C24.8842 28.6001 24.7801 28.5621 24.7186 28.486C24.6571 28.4099 24.6193 28.3147 24.6051 28.2006H24.5815C24.5294 28.3528 24.4396 28.4669 24.3166 28.543C24.1936 28.6191 24.047 28.6572 23.8767 28.6572C23.6166 28.6572 23.4179 28.5906 23.2713 28.4574C23.1294 28.3243 23.0584 28.1435 23.0584 27.9152C23.0584 27.6869 23.1436 27.5062 23.3091 27.3825C23.4794 27.2589 23.7443 27.197 24.099 27.197H24.5815V26.9545C24.5815 26.7785 24.5342 26.6453 24.4396 26.555C24.345 26.4646 24.1983 26.417 24.0044 26.417C23.8578 26.417 23.7301 26.4503 23.6307 26.5169C23.5314 26.5835 23.451 26.6739 23.3848 26.7833L23.1578 26.5692C23.224 26.4361 23.328 26.3219 23.4747 26.2315C23.6213 26.1364 23.801 26.0889 24.0233 26.0889C24.3213 26.0889 24.5484 26.1602 24.7139 26.3076C24.8794 26.4551 24.9599 26.6548 24.9599 26.9164V28.2672H25.2389V28.6001H25.0261ZM23.9382 28.3338C24.0328 28.3338 24.1179 28.3243 24.1983 28.3005C24.2787 28.2767 24.345 28.2482 24.4017 28.2054C24.4585 28.1625 24.5011 28.115 24.5342 28.0627C24.5673 28.0104 24.5815 27.9485 24.5815 27.8867V27.4824H24.0801C23.8625 27.4824 23.7017 27.5157 23.6024 27.5775C23.503 27.6394 23.4557 27.7345 23.4557 27.8534V27.9533C23.4557 28.0722 23.4983 28.1673 23.5834 28.2339C23.6733 28.3005 23.7916 28.3338 23.9382 28.3338ZM25.7781 28.6001V26.1459H26.1565V26.5455H26.1754C26.2038 26.4836 26.2369 26.4218 26.27 26.3695C26.3079 26.3124 26.3505 26.2648 26.4025 26.222C26.4545 26.1792 26.516 26.1507 26.587 26.1269C26.6579 26.1031 26.7383 26.0889 26.8329 26.0889C26.9937 26.0889 27.1404 26.1269 27.2775 26.2078C27.4147 26.2839 27.514 26.4123 27.5802 26.5883H27.5897C27.6323 26.4551 27.7174 26.3409 27.8357 26.2411C27.9586 26.1412 28.1242 26.0889 28.3323 26.0889C28.583 26.0889 28.7769 26.1697 28.9141 26.3362C29.056 26.4979 29.1269 26.7262 29.1269 27.0258V28.6001H28.7485V27.0924C28.7485 26.8736 28.706 26.7072 28.6208 26.5978C28.5357 26.4884 28.3985 26.4313 28.214 26.4313C28.1384 26.4313 28.0674 26.4408 27.9965 26.4598C27.9303 26.4789 27.8688 26.5074 27.8167 26.5455C27.7647 26.5835 27.7221 26.6311 27.689 26.6929C27.6559 26.75 27.6417 26.8166 27.6417 26.8974V28.6001H27.2633V27.0924C27.2633 26.8736 27.2208 26.7072 27.1356 26.5978C27.0505 26.4884 26.918 26.4313 26.7383 26.4313C26.6626 26.4313 26.5917 26.4408 26.5207 26.4598C26.4498 26.4789 26.3883 26.5074 26.3363 26.5455C26.2842 26.5835 26.2369 26.6311 26.2038 26.6929C26.1707 26.75 26.1565 26.8166 26.1565 26.8974V28.6001H25.7781ZM30.825 28.6572C30.6594 28.6572 30.5081 28.6287 30.3709 28.5668C30.2385 28.505 30.1249 28.4194 30.0256 28.31C29.931 28.1958 29.8553 28.0627 29.8033 27.9057C29.7513 27.7488 29.7276 27.568 29.7276 27.373C29.7276 27.178 29.7513 27.002 29.8033 26.8451C29.8553 26.6881 29.931 26.5502 30.0256 26.4408C30.1249 26.3267 30.2385 26.2411 30.3709 26.1792C30.5081 26.1174 30.6594 26.0889 30.825 26.0889C30.9905 26.0889 31.1371 26.1174 31.2648 26.1792C31.3926 26.2411 31.5061 26.3219 31.5959 26.4313C31.6858 26.5359 31.7568 26.6596 31.8041 26.807C31.8561 26.9545 31.8797 27.1114 31.8797 27.2874V27.4682H30.1249V27.5823C30.1249 27.6869 30.1391 27.7868 30.1722 27.8772C30.2053 27.9675 30.2526 28.0436 30.3141 28.1102C30.3756 28.1768 30.4513 28.2291 30.5412 28.2672C30.631 28.3052 30.7351 28.3243 30.8486 28.3243C31.0047 28.3243 31.1371 28.2862 31.2507 28.2149C31.3689 28.1435 31.4588 28.0389 31.5203 27.901L31.7899 28.096C31.7095 28.2624 31.5865 28.4004 31.4209 28.505C31.2554 28.6049 31.0567 28.6572 30.825 28.6572ZM30.825 26.4075C30.7209 26.4075 30.6263 26.4266 30.5412 26.4646C30.456 26.4979 30.3804 26.5502 30.3189 26.6168C30.2574 26.6834 30.2101 26.7642 30.177 26.8546C30.1439 26.945 30.1249 27.0401 30.1249 27.1495V27.1828H31.473V27.1305C31.473 26.9117 31.4115 26.7357 31.2932 26.6073C31.175 26.4741 31.0189 26.4075 30.825 26.4075Z" fill="#333333"/>
<path id="Vector_19" d="M34.8218 57.8506H76.4451C77.358 57.8506 78.1006 58.5973 78.1006 59.5152V74.7349C78.1006 75.6529 77.358 76.3996 76.4451 76.3996H4.55025C3.63737 76.3996 2.89478 75.6529 2.89478 74.7349V59.5152C2.89478 58.5973 3.63737 57.8506 4.55025 57.8506H8.33419" fill="white"/>
<path id="Vector_20" d="M34.8218 57.8506H76.4451C77.358 57.8506 78.1006 58.5973 78.1006 59.5152V74.7349C78.1006 75.6529 77.358 76.3996 76.4451 76.3996H4.55025C3.63737 76.3996 2.89478 75.6529 2.89478 74.7349V59.5152C2.89478 58.5973 3.63737 57.8506 4.55025 57.8506H8.33419" stroke="#D6DADB"/>
<path id="Vector_21" d="M10.666 59.0396V55.7198H12.6337V56.0717H11.0633V57.1847H12.4965V57.5366H11.0633V59.0396H10.666ZM13.4614 56.0099C13.381 56.0099 13.3195 55.9909 13.2817 55.9528C13.2486 55.91 13.2296 55.8577 13.2296 55.7959V55.734C13.2296 55.6722 13.2486 55.6199 13.2817 55.5819C13.3195 55.539 13.381 55.52 13.4614 55.52C13.5418 55.52 13.6033 55.539 13.6364 55.5819C13.6742 55.6199 13.6932 55.6722 13.6932 55.734V55.7959C13.6932 55.8577 13.6742 55.91 13.6364 55.9528C13.6033 55.9909 13.5418 56.0099 13.4614 56.0099ZM13.2722 56.5854H13.6506V59.0396H13.2722V56.5854ZM14.4547 59.0396V56.5854H14.8331V57.0372H14.8567C14.8993 56.9183 14.9797 56.8137 15.0932 56.7233C15.2067 56.633 15.3628 56.5854 15.5615 56.5854H15.7081V56.9659H15.4858C15.2824 56.9659 15.1216 57.0039 15.0034 57.0848C14.8898 57.1609 14.8331 57.256 14.8331 57.3749V59.0396H14.4547ZM16.9237 59.0967C16.6967 59.0967 16.5075 59.0538 16.3514 58.9682C16.2 58.8779 16.0676 58.7637 15.9588 58.6163L16.2284 58.3975C16.323 58.5164 16.4271 58.6115 16.5453 58.6781C16.6636 58.7399 16.796 58.7732 16.9521 58.7732C17.1082 58.7732 17.2359 58.7399 17.3258 58.6686C17.4156 58.5973 17.4629 58.5021 17.4629 58.3737C17.4629 58.2786 17.4298 58.1977 17.3683 58.1312C17.3068 58.0598 17.198 58.0122 17.0372 57.9885L16.8433 57.9599C16.7298 57.9457 16.6257 57.9219 16.5311 57.8886C16.4365 57.8553 16.3514 57.8077 16.2804 57.7554C16.2095 57.6983 16.1575 57.627 16.1149 57.5461C16.0771 57.4653 16.0581 57.3654 16.0581 57.2513C16.0581 57.1324 16.0818 57.0277 16.1244 56.9374C16.1669 56.847 16.2284 56.7709 16.3041 56.7091C16.3845 56.6472 16.4744 56.6044 16.5832 56.5759C16.6919 56.5426 16.8055 56.5283 16.9284 56.5283C17.1271 56.5283 17.2926 56.5616 17.4251 56.633C17.5622 56.7043 17.6805 56.7994 17.7798 56.9231L17.5291 57.1514C17.4771 57.0753 17.3967 57.0087 17.2926 56.9469C17.1886 56.885 17.0561 56.8517 16.9001 56.8517C16.744 56.8517 16.621 56.885 16.5406 56.9564C16.4602 57.023 16.4223 57.1133 16.4223 57.2322C16.4223 57.3511 16.4602 57.4415 16.5406 57.4938C16.621 57.5461 16.7392 57.5889 16.8906 57.6127L17.0798 57.6413C17.3494 57.6841 17.5433 57.7602 17.6568 57.8791C17.7704 57.9932 17.8271 58.1454 17.8271 58.3309C17.8271 58.5687 17.7467 58.7542 17.5859 58.8921C17.4251 59.0301 17.2028 59.0967 16.9237 59.0967ZM19.0001 59.0396C18.8677 59.0396 18.7684 59.0015 18.6974 58.9302C18.6312 58.8541 18.5981 58.7542 18.5981 58.6353V56.9183H18.1961V56.5854H18.4231C18.5035 56.5854 18.5603 56.5711 18.5886 56.5378C18.6218 56.5045 18.6359 56.4427 18.6359 56.3619V55.9053H18.9765V56.5854H19.511V56.9183H18.9765V58.7066H19.4731V59.0396H19.0001ZM21.2374 59.0396V56.5854H21.6158V56.9849H21.6347C21.6962 56.847 21.7766 56.7328 21.8854 56.652C21.9942 56.5711 22.1408 56.5283 22.3253 56.5283C22.576 56.5283 22.7746 56.6092 22.9213 56.7756C23.0679 56.9374 23.1436 57.1657 23.1436 57.4653V59.0396H22.7652V57.5319C22.7652 57.0896 22.5807 56.8708 22.2118 56.8708C22.1361 56.8708 22.0604 56.8803 21.9895 56.8993C21.9185 56.9183 21.857 56.9469 21.8003 56.9849C21.7435 57.023 21.6962 57.0705 21.6631 57.1324C21.63 57.1894 21.6158 57.256 21.6158 57.3369V59.0396H21.2374ZM25.6977 59.0396C25.5558 59.0396 25.4518 59.0015 25.3903 58.9254C25.3288 58.8493 25.2909 58.7542 25.2768 58.6401H25.2531C25.2011 58.7923 25.1112 58.9064 24.9882 58.9825C24.8653 59.0586 24.7186 59.0967 24.5484 59.0967C24.2882 59.0967 24.0895 59.0301 23.9429 58.8969C23.801 58.7637 23.7301 58.583 23.7301 58.3547C23.7301 58.1264 23.8152 57.9457 23.9808 57.822C24.151 57.6983 24.4159 57.6365 24.7707 57.6365H25.2531V57.3939C25.2531 57.218 25.2058 57.0848 25.1112 56.9944C25.0166 56.9041 24.87 56.8565 24.6761 56.8565C24.5294 56.8565 24.4017 56.8898 24.3024 56.9564C24.2031 57.023 24.1227 57.1133 24.0564 57.2227L23.8294 57.0087C23.8956 56.8755 23.9997 56.7614 24.1463 56.671C24.2929 56.5759 24.4727 56.5283 24.695 56.5283C24.993 56.5283 25.22 56.5997 25.3855 56.7471C25.5511 56.8946 25.6315 57.0943 25.6315 57.3559V58.7066H25.9106V59.0396H25.6977ZM24.6098 58.7732C24.7044 58.7732 24.7896 58.7637 24.87 58.7399C24.9504 58.7162 25.0166 58.6876 25.0734 58.6448C25.1301 58.602 25.1727 58.5545 25.2058 58.5021C25.2389 58.4498 25.2531 58.388 25.2531 58.3262V57.9219H24.7517C24.5342 57.9219 24.3733 57.9552 24.274 58.017C24.1747 58.0788 24.1274 58.174 24.1274 58.2929V58.3927C24.1274 58.5116 24.17 58.6068 24.2551 58.6734C24.345 58.7399 24.4632 58.7732 24.6098 58.7732ZM26.4498 59.0396V56.5854H26.8282V56.9849H26.8471C26.8755 56.9231 26.9086 56.8613 26.9417 56.8089C26.9795 56.7519 27.0221 56.7043 27.0741 56.6615C27.1262 56.6187 27.1877 56.5902 27.2586 56.5664C27.3295 56.5426 27.41 56.5283 27.5046 56.5283C27.6654 56.5283 27.812 56.5664 27.9492 56.6472C28.0863 56.7233 28.1857 56.8517 28.2519 57.0277H28.2613C28.3039 56.8946 28.3891 56.7804 28.5073 56.6805C28.6303 56.5806 28.7958 56.5283 29.0039 56.5283C29.2546 56.5283 29.4486 56.6092 29.5857 56.7756C29.7276 56.9374 29.7986 57.1657 29.7986 57.4653V59.0396H29.4202V57.5319C29.4202 57.3131 29.3776 57.1466 29.2925 57.0372C29.2073 56.9278 29.0702 56.8708 28.8857 56.8708C28.81 56.8708 28.7391 56.8803 28.6681 56.8993C28.6019 56.9183 28.5404 56.9469 28.4884 56.9849C28.4364 57.023 28.3938 57.0705 28.3607 57.1324C28.3276 57.1894 28.3134 57.256 28.3134 57.3369V59.0396H27.935V57.5319C27.935 57.3131 27.8924 57.1466 27.8073 57.0372C27.7221 56.9278 27.5897 56.8708 27.41 56.8708C27.3343 56.8708 27.2633 56.8803 27.1924 56.8993C27.1214 56.9183 27.0599 56.9469 27.0079 56.9849C26.9559 57.023 26.9086 57.0705 26.8755 57.1324C26.8424 57.1894 26.8282 57.256 26.8282 57.3369V59.0396H26.4498ZM31.4966 59.0967C31.3311 59.0967 31.1797 59.0681 31.0425 59.0063C30.9101 58.9445 30.7966 58.8588 30.6973 58.7495C30.6027 58.6353 30.527 58.5021 30.475 58.3452C30.4229 58.1882 30.3993 58.0075 30.3993 57.8125C30.3993 57.6175 30.4229 57.4415 30.475 57.2846C30.527 57.1276 30.6027 56.9897 30.6973 56.8803C30.7966 56.7661 30.9101 56.6805 31.0425 56.6187C31.1797 56.5569 31.3311 56.5283 31.4966 56.5283C31.6622 56.5283 31.8088 56.5569 31.9365 56.6187C32.0642 56.6805 32.1777 56.7614 32.2676 56.8708C32.3575 56.9754 32.4284 57.0991 32.4757 57.2465C32.5277 57.3939 32.5514 57.5509 32.5514 57.7269V57.9076H30.7966V58.0218C30.7966 58.1264 30.8108 58.2263 30.8439 58.3166C30.877 58.407 30.9243 58.4831 30.9858 58.5497C31.0473 58.6163 31.1229 58.6686 31.2128 58.7066C31.3027 58.7447 31.4067 58.7637 31.5203 58.7637C31.6764 58.7637 31.8088 58.7257 31.9223 58.6543C32.0406 58.583 32.1304 58.4784 32.1919 58.3404L32.4615 58.5354C32.3811 58.7019 32.2581 58.8398 32.0926 58.9445C31.927 59.0443 31.7284 59.0967 31.4966 59.0967ZM31.4966 56.847C31.3926 56.847 31.298 56.866 31.2128 56.9041C31.1277 56.9374 31.052 56.9897 30.9905 57.0563C30.929 57.1228 30.8817 57.2037 30.8486 57.2941C30.8155 57.3844 30.7966 57.4796 30.7966 57.5889V57.6222H32.1446V57.5699C32.1446 57.3511 32.0831 57.1752 31.9649 57.0467C31.8466 56.9136 31.6905 56.847 31.4966 56.847Z" fill="#333333"/>
<path id="Vector_22" d="M13.2699 38.3881H13.2519C13.1999 38.5841 13.0719 38.7481 12.8679 38.8801C12.6679 39.0081 12.4079 39.0721 12.0879 39.0721C11.8319 39.0721 11.5959 39.0261 11.3799 38.9341C11.1679 38.8381 10.9859 38.7001 10.8339 38.5201C10.6819 38.3361 10.5619 38.1101 10.4739 37.8421C10.3899 37.5701 10.3479 37.2581 10.3479 36.9061C10.3479 36.5581 10.3899 36.2501 10.4739 35.9821C10.5579 35.7101 10.6779 35.4841 10.8339 35.3041C10.9899 35.1201 11.1779 34.9801 11.3979 34.8841C11.6179 34.7881 11.8619 34.7401 12.1299 34.7401C12.5059 34.7401 12.8199 34.8241 13.0719 34.9921C13.3239 35.1601 13.5179 35.3821 13.6539 35.6581L13.2399 35.9101C13.1439 35.6861 12.9999 35.5101 12.8079 35.3821C12.6199 35.2541 12.3939 35.1901 12.1299 35.1901C11.9459 35.1901 11.7779 35.2241 11.6259 35.2921C11.4739 35.3561 11.3419 35.4481 11.2299 35.5681C11.1219 35.6881 11.0379 35.8321 10.9779 36.0001C10.9179 36.1681 10.8879 36.3561 10.8879 36.5641V37.2421C10.8879 37.4501 10.9179 37.6401 10.9779 37.8121C11.0379 37.9801 11.1219 38.1241 11.2299 38.2441C11.3419 38.3641 11.4779 38.4581 11.6379 38.5261C11.7979 38.5901 11.9779 38.6221 12.1779 38.6221C12.3219 38.6221 12.4579 38.6041 12.5859 38.5681C12.7179 38.5281 12.8319 38.4701 12.9279 38.3941C13.0279 38.3181 13.1059 38.2241 13.1619 38.1121C13.2179 37.9961 13.2459 37.8601 13.2459 37.7041V37.2901H12.3219V36.8461H13.7379V39.0001H13.2699V38.3881ZM15.8518 39.0721C15.6438 39.0721 15.4538 39.0341 15.2818 38.9581C15.1098 38.8821 14.9618 38.7741 14.8378 38.6341C14.7178 38.4901 14.6238 38.3201 14.5558 38.1241C14.4878 37.9241 14.4538 37.7001 14.4538 37.4521C14.4538 37.2081 14.4878 36.9861 14.5558 36.7861C14.6238 36.5861 14.7178 36.4161 14.8378 36.2761C14.9618 36.1321 15.1098 36.0221 15.2818 35.9461C15.4538 35.8701 15.6438 35.8321 15.8518 35.8321C16.0598 35.8321 16.2478 35.8701 16.4158 35.9461C16.5878 36.0221 16.7358 36.1321 16.8598 36.2761C16.9838 36.4161 17.0798 36.5861 17.1478 36.7861C17.2158 36.9861 17.2498 37.2081 17.2498 37.4521C17.2498 37.7001 17.2158 37.9241 17.1478 38.1241C17.0798 38.3201 16.9838 38.4901 16.8598 38.6341C16.7358 38.7741 16.5878 38.8821 16.4158 38.9581C16.2478 39.0341 16.0598 39.0721 15.8518 39.0721ZM15.8518 38.6461C16.1118 38.6461 16.3238 38.5661 16.4878 38.4061C16.6518 38.2461 16.7338 38.0021 16.7338 37.6741V37.2301C16.7338 36.9021 16.6518 36.6581 16.4878 36.4981C16.3238 36.3381 16.1118 36.2581 15.8518 36.2581C15.5918 36.2581 15.3798 36.3381 15.2158 36.4981C15.0518 36.6581 14.9698 36.9021 14.9698 37.2301V37.6741C14.9698 38.0021 15.0518 38.2461 15.2158 38.4061C15.3798 38.5661 15.5918 38.6461 15.8518 38.6461ZM18.0392 39.0001V35.9041H18.5192V36.4081H18.5432C18.6192 36.2321 18.7252 36.0921 18.8612 35.9881C19.0012 35.8841 19.1872 35.8321 19.4192 35.8321C19.7392 35.8321 19.9912 35.9361 20.1752 36.1441C20.3632 36.3481 20.4572 36.6381 20.4572 37.0141V39.0001H19.9772V37.0981C19.9772 36.5421 19.7432 36.2641 19.2752 36.2641C19.1792 36.2641 19.0852 36.2761 18.9932 36.3001C18.9052 36.3241 18.8252 36.3601 18.7532 36.4081C18.6812 36.4561 18.6232 36.5181 18.5792 36.5941C18.5392 36.6661 18.5192 36.7521 18.5192 36.8521V39.0001H18.0392ZM22.3794 39.0721C22.0914 39.0721 21.8494 39.0181 21.6534 38.9101C21.4614 38.7981 21.2954 38.6501 21.1554 38.4661L21.4974 38.1901C21.6174 38.3421 21.7514 38.4601 21.8994 38.5441C22.0474 38.6241 22.2194 38.6641 22.4154 38.6641C22.6194 38.6641 22.7774 38.6201 22.8894 38.5321C23.0054 38.4441 23.0634 38.3201 23.0634 38.1601C23.0634 38.0401 23.0234 37.9381 22.9434 37.8541C22.8674 37.7661 22.7274 37.7061 22.5234 37.6741L22.2774 37.6381C22.1334 37.6181 22.0014 37.5881 21.8814 37.5481C21.7614 37.5041 21.6554 37.4481 21.5634 37.3801C21.4754 37.3081 21.4054 37.2201 21.3534 37.1161C21.3054 37.0121 21.2814 36.8881 21.2814 36.7441C21.2814 36.5921 21.3094 36.4601 21.3654 36.3481C21.4214 36.2321 21.4974 36.1361 21.5934 36.0601C21.6934 35.9841 21.8114 35.9281 21.9474 35.8921C22.0834 35.8521 22.2294 35.8321 22.3854 35.8321C22.6374 35.8321 22.8474 35.8761 23.0154 35.9641C23.1874 36.0521 23.3374 36.1741 23.4654 36.3301L23.1474 36.6181C23.0794 36.5221 22.9794 36.4361 22.8474 36.3601C22.7154 36.2801 22.5494 36.2401 22.3494 36.2401C22.1494 36.2401 21.9974 36.2841 21.8934 36.3721C21.7934 36.4561 21.7434 36.5721 21.7434 36.7201C21.7434 36.8721 21.7934 36.9821 21.8934 37.0501C21.9974 37.1181 22.1454 37.1681 22.3374 37.2001L22.5774 37.2361C22.9214 37.2881 23.1654 37.3881 23.3094 37.5361C23.4534 37.6801 23.5254 37.8701 23.5254 38.1061C23.5254 38.4061 23.4234 38.6421 23.2194 38.8141C23.0154 38.9861 22.7354 39.0721 22.3794 39.0721ZM26.6232 39.0001C26.4432 39.0001 26.3132 38.9521 26.2332 38.8561C26.1572 38.7601 26.1092 38.6401 26.0892 38.4961H26.0592C25.9912 38.6881 25.8792 38.8321 25.7232 38.9281C25.5672 39.0241 25.3812 39.0721 25.1652 39.0721C24.8372 39.0721 24.5812 38.9881 24.3972 38.8201C24.2172 38.6521 24.1272 38.4241 24.1272 38.1361C24.1272 37.8441 24.2332 37.6201 24.4452 37.4641C24.6612 37.3081 24.9952 37.2301 25.4472 37.2301H26.0592V36.9241C26.0592 36.7041 25.9992 36.5361 25.8792 36.4201C25.7592 36.3041 25.5752 36.2461 25.3272 36.2461C25.1392 36.2461 24.9812 36.2881 24.8532 36.3721C24.7292 36.4561 24.6252 36.5681 24.5412 36.7081L24.2532 36.4381C24.3372 36.2701 24.4712 36.1281 24.6552 36.0121C24.8392 35.8921 25.0712 35.8321 25.3512 35.8321C25.7272 35.8321 26.0192 35.9241 26.2272 36.1081C26.4352 36.2921 26.5392 36.5481 26.5392 36.8761V38.5801H26.8932V39.0001H26.6232ZM25.2432 38.6641C25.3632 38.6641 25.4732 38.6501 25.5732 38.6221C25.6732 38.5941 25.7592 38.5541 25.8312 38.5021C25.9032 38.4501 25.9592 38.3901 25.9992 38.3221C26.0392 38.2541 26.0592 38.1801 26.0592 38.1001V37.5901H25.4232C25.1472 37.5901 24.9452 37.6301 24.8172 37.7101C24.6932 37.7901 24.6312 37.9061 24.6312 38.0581V38.1841C24.6312 38.3361 24.6852 38.4541 24.7932 38.5381C24.9052 38.6221 25.0552 38.6641 25.2432 38.6641ZM28.0883 39.0001C27.9203 39.0001 27.7923 38.9541 27.7043 38.8621C27.6203 38.7661 27.5783 38.6461 27.5783 38.5021V34.5601H28.0583V38.5801H28.5143V39.0001H28.0883ZM30.377 39.0721C30.165 39.0721 29.973 39.0341 29.801 38.9581C29.633 38.8821 29.487 38.7741 29.363 38.6341C29.243 38.4901 29.149 38.3201 29.081 38.1241C29.017 37.9241 28.985 37.7001 28.985 37.4521C28.985 37.2081 29.017 36.9861 29.081 36.7861C29.149 36.5861 29.243 36.4161 29.363 36.2761C29.487 36.1321 29.633 36.0221 29.801 35.9461C29.973 35.8701 30.165 35.8321 30.377 35.8321C30.585 35.8321 30.771 35.8701 30.935 35.9461C31.099 36.0221 31.239 36.1281 31.355 36.2641C31.471 36.3961 31.559 36.5541 31.619 36.7381C31.683 36.9221 31.715 37.1241 31.715 37.3441V37.5721H29.489V37.7161C29.489 37.8481 29.509 37.9721 29.549 38.0881C29.593 38.2001 29.653 38.2981 29.729 38.3821C29.809 38.4661 29.905 38.5321 30.017 38.5801C30.133 38.6281 30.263 38.6521 30.407 38.6521C30.603 38.6521 30.773 38.6061 30.917 38.5141C31.065 38.4221 31.179 38.2901 31.259 38.1181L31.601 38.3641C31.501 38.5761 31.345 38.7481 31.133 38.8801C30.921 39.0081 30.669 39.0721 30.377 39.0721ZM30.377 36.2341C30.245 36.2341 30.125 36.2581 30.017 36.3061C29.909 36.3501 29.815 36.4141 29.735 36.4981C29.659 36.5821 29.599 36.6821 29.555 36.7981C29.511 36.9101 29.489 37.0341 29.489 37.1701V37.2121H31.199V37.1461C31.199 36.8701 31.123 36.6501 30.971 36.4861C30.823 36.3181 30.625 36.2341 30.377 36.2341ZM32.1647 39.0001V38.5981L33.9227 36.3241H32.2187V35.9041H34.5047V36.2641L32.7107 38.5801H34.5527V39.0001H32.1647Z" fill="black"/>
<path id="Vector_23" d="M12.532 65.8121V68.9141C12.532 69.0901 12.502 69.2501 12.442 69.3941C12.386 69.5381 12.304 69.6601 12.196 69.7601C12.092 69.8601 11.966 69.9381 11.818 69.9941C11.67 70.0461 11.508 70.0721 11.332 70.0721C11.008 70.0721 10.746 69.9861 10.546 69.8141C10.35 69.6381 10.224 69.4061 10.168 69.1181L10.624 69.0101C10.664 69.1901 10.74 69.3381 10.852 69.4541C10.964 69.5661 11.128 69.6221 11.344 69.6221C11.56 69.6221 11.728 69.5561 11.848 69.4241C11.968 69.2921 12.028 69.0921 12.028 68.8241V66.2561H10.588V65.8121H12.532ZM14.7386 70.0721C14.5306 70.0721 14.3406 70.0341 14.1686 69.9581C13.9966 69.8821 13.8486 69.7741 13.7246 69.6341C13.6046 69.4901 13.5106 69.3201 13.4426 69.1241C13.3746 68.9241 13.3406 68.7001 13.3406 68.4521C13.3406 68.2081 13.3746 67.9861 13.4426 67.7861C13.5106 67.5861 13.6046 67.4161 13.7246 67.2761C13.8486 67.1321 13.9966 67.0221 14.1686 66.9461C14.3406 66.8701 14.5306 66.8321 14.7386 66.8321C14.9466 66.8321 15.1346 66.8701 15.3026 66.9461C15.4746 67.0221 15.6226 67.1321 15.7466 67.2761C15.8706 67.4161 15.9666 67.5861 16.0346 67.7861C16.1026 67.9861 16.1366 68.2081 16.1366 68.4521C16.1366 68.7001 16.1026 68.9241 16.0346 69.1241C15.9666 69.3201 15.8706 69.4901 15.7466 69.6341C15.6226 69.7741 15.4746 69.8821 15.3026 69.9581C15.1346 70.0341 14.9466 70.0721 14.7386 70.0721ZM14.7386 69.6461C14.9986 69.6461 15.2106 69.5661 15.3746 69.4061C15.5386 69.2461 15.6206 69.0021 15.6206 68.6741V68.2301C15.6206 67.9021 15.5386 67.6581 15.3746 67.4981C15.2106 67.3381 14.9986 67.2581 14.7386 67.2581C14.4786 67.2581 14.2666 67.3381 14.1026 67.4981C13.9386 67.6581 13.8566 67.9021 13.8566 68.2301V68.6741C13.8566 69.0021 13.9386 69.2461 14.1026 69.4061C14.2666 69.5661 14.4786 69.6461 14.7386 69.6461ZM16.926 70.0001V66.9041H17.406V67.4081H17.43C17.506 67.2321 17.612 67.0921 17.748 66.9881C17.888 66.8841 18.074 66.8321 18.306 66.8321C18.626 66.8321 18.878 66.9361 19.062 67.1441C19.25 67.3481 19.344 67.6381 19.344 68.0141V70.0001H18.864V68.0981C18.864 67.5421 18.63 67.2641 18.162 67.2641C18.066 67.2641 17.972 67.2761 17.88 67.3001C17.792 67.3241 17.712 67.3601 17.64 67.4081C17.568 67.4561 17.51 67.5181 17.466 67.5941C17.426 67.6661 17.406 67.7521 17.406 67.8521V70.0001H16.926ZM22.5862 70.0001C22.4062 70.0001 22.2762 69.9521 22.1962 69.8561C22.1202 69.7601 22.0722 69.6401 22.0522 69.4961H22.0222C21.9542 69.6881 21.8422 69.8321 21.6862 69.9281C21.5302 70.0241 21.3442 70.0721 21.1282 70.0721C20.8002 70.0721 20.5442 69.9881 20.3602 69.8201C20.1802 69.6521 20.0902 69.4241 20.0902 69.1361C20.0902 68.8441 20.1962 68.6201 20.4082 68.4641C20.6242 68.3081 20.9582 68.2301 21.4102 68.2301H22.0222V67.9241C22.0222 67.7041 21.9622 67.5361 21.8422 67.4201C21.7222 67.3041 21.5382 67.2461 21.2902 67.2461C21.1022 67.2461 20.9442 67.2881 20.8162 67.3721C20.6922 67.4561 20.5882 67.5681 20.5042 67.7081L20.2162 67.4381C20.3002 67.2701 20.4342 67.1281 20.6182 67.0121C20.8022 66.8921 21.0342 66.8321 21.3142 66.8321C21.6902 66.8321 21.9822 66.9241 22.1902 67.1081C22.3982 67.2921 22.5022 67.5481 22.5022 67.8761V69.5801H22.8562V70.0001H22.5862ZM21.2062 69.6641C21.3262 69.6641 21.4362 69.6501 21.5362 69.6221C21.6362 69.5941 21.7222 69.5541 21.7942 69.5021C21.8662 69.4501 21.9222 69.3901 21.9622 69.3221C22.0022 69.2541 22.0222 69.1801 22.0222 69.1001V68.5901H21.3862C21.1102 68.5901 20.9082 68.6301 20.7802 68.7101C20.6562 68.7901 20.5942 68.9061 20.5942 69.0581V69.1841C20.5942 69.3361 20.6482 69.4541 20.7562 69.5381C20.8682 69.6221 21.0182 69.6641 21.2062 69.6641ZM24.2253 70.0001C24.0573 70.0001 23.9293 69.9541 23.8413 69.8621C23.7573 69.7661 23.7153 69.6421 23.7153 69.4901V67.3241H23.2053V66.9041H23.4933C23.5973 66.9041 23.6673 66.8841 23.7033 66.8441C23.7433 66.8001 23.7633 66.7261 23.7633 66.6221V66.0461H24.1953V66.9041H24.8733V67.3241H24.1953V69.5801H24.8253V70.0001H24.2253ZM25.6448 65.5601H26.1248V67.4081H26.1488C26.2248 67.2321 26.3308 67.0921 26.4668 66.9881C26.6068 66.8841 26.7928 66.8321 27.0248 66.8321C27.3448 66.8321 27.5968 66.9361 27.7808 67.1441C27.9688 67.3481 28.0628 67.6381 28.0628 68.0141V70.0001H27.5828V68.0981C27.5828 67.5421 27.3488 67.2641 26.8808 67.2641C26.7848 67.2641 26.6908 67.2761 26.5988 67.3001C26.5108 67.3241 26.4308 67.3601 26.3588 67.4081C26.2868 67.4561 26.2288 67.5181 26.1848 67.5941C26.1448 67.6661 26.1248 67.7521 26.1248 67.8521V70.0001H25.6448V65.5601ZM31.3049 70.0001C31.1249 70.0001 30.9949 69.9521 30.9149 69.8561C30.8389 69.7601 30.7909 69.6401 30.7709 69.4961H30.7409C30.6729 69.6881 30.5609 69.8321 30.4049 69.9281C30.2489 70.0241 30.0629 70.0721 29.8469 70.0721C29.5189 70.0721 29.2629 69.9881 29.0789 69.8201C28.8989 69.6521 28.8089 69.4241 28.8089 69.1361C28.8089 68.8441 28.9149 68.6201 29.1269 68.4641C29.3429 68.3081 29.6769 68.2301 30.1289 68.2301H30.7409V67.9241C30.7409 67.7041 30.6809 67.5361 30.5609 67.4201C30.4409 67.3041 30.2569 67.2461 30.0089 67.2461C29.8209 67.2461 29.6629 67.2881 29.5349 67.3721C29.4109 67.4561 29.3069 67.5681 29.2229 67.7081L28.9349 67.4381C29.0189 67.2701 29.1529 67.1281 29.3369 67.0121C29.5209 66.8921 29.7529 66.8321 30.0329 66.8321C30.4089 66.8321 30.7009 66.9241 30.9089 67.1081C31.1169 67.2921 31.2209 67.5481 31.2209 67.8761V69.5801H31.5749V70.0001H31.3049ZM29.9249 69.6641C30.0449 69.6641 30.1549 69.6501 30.2549 69.6221C30.3549 69.5941 30.4409 69.5541 30.5129 69.5021C30.5849 69.4501 30.6409 69.3901 30.6809 69.3221C30.7209 69.2541 30.7409 69.1801 30.7409 69.1001V68.5901H30.1049C29.8289 68.5901 29.6269 68.6301 29.4989 68.7101C29.3749 68.7901 29.3129 68.9061 29.3129 69.0581V69.1841C29.3129 69.3361 29.3669 69.4541 29.4749 69.5381C29.5869 69.6221 29.7369 69.6641 29.9249 69.6641ZM32.26 70.0001V66.9041H32.74V67.4081H32.764C32.84 67.2321 32.946 67.0921 33.082 66.9881C33.222 66.8841 33.408 66.8321 33.64 66.8321C33.96 66.8321 34.212 66.9361 34.396 67.1441C34.584 67.3481 34.678 67.6381 34.678 68.0141V70.0001H34.198V68.0981C34.198 67.5421 33.964 67.2641 33.496 67.2641C33.4 67.2641 33.306 67.2761 33.214 67.3001C33.126 67.3241 33.046 67.3601 32.974 67.4081C32.902 67.4561 32.844 67.5181 32.8 67.5941C32.76 67.6661 32.74 67.7521 32.74 67.8521V70.0001H32.26Z" fill="black"/>
<path id="Vector_24" d="M67.8184 51.2013C67.923 49.9753 68.0306 48.7521 68.1465 47.4021C67.4188 47.564 67.0672 48.094 66.9617 48.684C66.6512 50.4316 66.359 52.1931 66.2262 53.9699C66.1491 54.9884 66.8316 55.4515 67.6661 55.0615C69.0568 54.4105 70.4133 53.681 71.7845 52.9816C71.8645 52.942 71.9755 52.9025 72.0068 52.83C72.1093 52.5898 72.1791 52.3339 72.2639 52.086C72.069 52.005 71.848 51.8164 71.681 51.8585C71.1199 52.0004 70.5734 52.2227 70.0234 52.4138C69.7337 52.5156 69.4467 52.6171 68.9954 52.5337C69.2613 52.1194 69.5144 51.6907 69.7995 51.2966C75.5995 43.2305 85.3547 40.6363 94.1674 44.8445C95.2946 45.3821 96.3658 46.0734 97.4648 46.6863C97.849 46.8993 98.2419 47.0893 98.6307 47.2924C98.6974 47.2101 98.7645 47.1308 98.8313 47.0485C98.7049 46.7748 98.6417 46.4127 98.4454 46.2437C97.765 45.6482 97.0682 45.0576 96.3241 44.5725C88.7817 39.6688 79.1578 40.4234 72.3288 46.5186C71.0264 47.6803 69.9238 49.1176 68.7376 50.4375C68.4921 50.708 68.2853 51.0218 68.062 51.3152C67.982 51.2792 67.9023 51.2464 67.8223 51.2104L67.8184 51.2013Z" fill="black"/>
</g>
<defs>
<filter id="filter0_dd_1184_366" x="82.4895" y="0.326322" width="133.021" height="163.021" filterUnits="userSpaceOnUse" color-interpolation-filters="sRGB">
<feFlood flood-opacity="0" result="BackgroundImageFix"/>
<feColorMatrix in="SourceAlpha" type="matrix" values="0 0 0 0 0 0 0 0 0 0 0 0 0 0 0 0 0 0 127 0" result="hardAlpha"/>
<feOffset dy="0.836842"/>
<feGaussianBlur stdDeviation="0.836842"/>
<feColorMatrix type="matrix" values="0 0 0 0 0.054902 0 0 0 0 0.054902 0 0 0 0 0.054902 0 0 0 0.06 0"/>
<feBlend mode="normal" in2="BackgroundImageFix" result="effect1_dropShadow_1184_366"/>
<feColorMatrix in="SourceAlpha" type="matrix" values="0 0 0 0 0 0 0 0 0 0 0 0 0 0 0 0 0 0 127 0" result="hardAlpha"/>
<feOffset dy="0.836842"/>
<feGaussianBlur stdDeviation="1.25526"/>
<feColorMatrix type="matrix" values="0 0 0 0 0.054902 0 0 0 0 0.054902 0 0 0 0 0.054902 0 0 0 0.1 0"/>
<feBlend mode="normal" in2="effect1_dropShadow_1184_366" result="effect2_dropShadow_1184_366"/>
<feBlend mode="normal" in="SourceGraphic" in2="effect2_dropShadow_1184_366" result="shape"/>
</filter>
</defs>
</svg>
