<svg width="49" height="32" viewBox="0 0 49 32" fill="none" xmlns="http://www.w3.org/2000/svg">
<g id="illustration / deriv / light / ic-cloud-upload" clip-path="url(#clip0_408_473)">
<g id="Group">
<path id="Vector" fill-rule="evenodd" clip-rule="evenodd" d="M31.789 23.6971C31.9348 23.8424 32.1325 23.9239 32.3384 23.9235C32.5443 23.9231 32.7416 23.841 32.887 23.6951C33.0323 23.5492 33.1138 23.3516 33.1134 23.1457C33.113 22.9398 33.0308 22.7424 32.885 22.5971L24.8 14.4841L24.798 14.4831L24.252 13.9331L23.705 14.4831L23.704 14.4841L15.62 22.6001C15.4749 22.7462 15.3936 22.9437 15.3936 23.1496C15.3936 23.3555 15.4749 23.553 15.62 23.6991C15.6917 23.7713 15.777 23.8286 15.871 23.8676C15.9649 23.9067 16.0657 23.9268 16.1675 23.9268C16.2692 23.9268 16.37 23.9067 16.464 23.8676C16.5579 23.8286 16.6432 23.7713 16.715 23.6991L23.479 16.9091V30.6001C23.479 31.0301 23.826 31.3771 24.253 31.3771C24.4586 31.3766 24.6556 31.2944 24.8008 31.1488C24.9459 31.0031 25.0272 30.8057 25.027 30.6001V16.9081L31.789 23.6971Z" fill="#EC3F3F"/>
<path id="Vector_2" fill-rule="evenodd" clip-rule="evenodd" d="M39.4479 9.48214C37.5419 4.10014 32.5099 0.515137 26.7799 0.515137C21.3799 0.515137 16.5229 3.77614 14.4219 8.71914C13.4319 8.25914 12.3569 8.01914 11.2639 8.01914C7.09893 8.01914 3.70893 11.4181 3.70093 15.5971C2.62861 16.4209 1.75998 17.4801 1.16212 18.693C0.564273 19.9059 0.2532 21.2399 0.25293 22.5921C0.25293 27.4361 4.18893 31.3761 9.15493 31.3781L9.31693 31.3791C9.36893 31.3791 9.41593 31.3791 9.45293 31.3761H17.6119C17.8176 31.3756 18.0146 31.2935 18.1597 31.1478C18.3048 31.0021 18.3862 30.8048 18.3859 30.5991C18.3862 30.3935 18.3048 30.1962 18.1597 30.0505C18.0146 29.9048 17.8176 29.8227 17.6119 29.8221H9.41193C9.33693 29.8271 9.25693 29.8241 9.18193 29.8221L9.02393 29.8211C5.04193 29.8211 1.80193 26.5781 1.80193 22.5911C1.80199 21.4168 2.0868 20.26 2.63194 19.2199C3.17707 18.1798 3.96629 17.2874 4.93193 16.6191L5.28793 16.2631L5.24893 15.6131C5.24893 12.2841 7.94793 9.57514 11.2639 9.57514C12.3799 9.57675 13.4731 9.89058 14.4199 10.4811L15.2399 10.9911L15.5579 10.0771C17.2269 5.28714 21.7349 2.07214 26.7809 2.07214C31.9889 2.07214 36.5469 5.41814 38.1209 10.4021L38.2649 10.8571L38.7349 10.9331C43.3489 11.6831 46.6999 15.6301 46.6999 20.3221C46.6999 25.5621 42.4439 29.8231 37.2139 29.8231H30.8899C30.788 29.8234 30.6872 29.8437 30.5931 29.883C30.4991 29.9222 30.4137 29.9796 30.3418 30.0518C30.2699 30.1241 30.213 30.2098 30.1742 30.304C30.1355 30.3983 30.1157 30.4992 30.1159 30.6011C30.1159 31.0291 30.4629 31.3781 30.8899 31.3781H37.2139C43.2979 31.3781 48.2479 26.4181 48.2479 20.3211C48.2459 15.0211 44.5729 10.5361 39.4469 9.48214H39.4479Z" fill="#EC3F3F"/>
</g>
</g>
<defs>
<clipPath id="clip0_408_473">
<rect width="49" height="32" fill="white"/>
</clipPath>
</defs>
</svg>
