<svg width="130" height="80" viewBox="0 0 130 80" fill="none" xmlns="http://www.w3.org/2000/svg">
<g id="illustration / deriv / light / passport-placeholder-kyc">
<g id="Vector">
<path fill-rule="evenodd" clip-rule="evenodd" d="M8.72414 1H121.276C125.542 1 129 3.91015 129 7.5V15.8571H1V7.5C1 3.91015 4.45821 1 8.72414 1Z" fill="#84ABAE"/>
<path d="M9.30832 78.9998C4.71976 78.9998 1 75.8696 1 72.0082V15.8571H129V72.0082C129 75.8696 125.28 78.9998 120.692 78.9998H9.30832Z" fill="white"/>
<path fill-rule="evenodd" clip-rule="evenodd" d="M41.673 25.765V57.235C41.673 59.315 39.979 61 37.888 61H13.785C11.695 61 10 59.315 10 57.235V25.765C10 23.685 11.695 22 13.785 22H37.888C39.978 22 41.673 23.686 41.673 25.765Z" fill="#F2F2F2"/>
<path fill-rule="evenodd" clip-rule="evenodd" d="M19.955 49.249H31.719C33.885 49.249 35.641 50.928 35.641 52.999V56.499H16.033V52.999C16.033 50.928 17.789 49.249 19.955 49.249Z" fill="#84ABAE"/>
<path fill-rule="evenodd" clip-rule="evenodd" d="M21.563 49.249L22.568 53.249L25.082 51.249L24.579 49.249H21.563ZM30.615 49.249L29.61 53.249L27.096 51.249L27.599 49.249H30.615Z" fill="white"/>
<path d="M32.624 40.749C32.6225 41.9824 32.2701 43.1899 31.6078 44.2304C30.9455 45.271 30.0008 46.1015 28.884 46.625L29.104 49.249L26.444 51.895C26.3494 51.989 26.2214 52.0418 26.088 52.0418C25.9546 52.0418 25.8266 51.989 25.732 51.895L23.072 49.249L23.291 46.625C22.1744 46.1014 21.2299 45.2708 20.5678 44.2302C19.9057 43.1897 19.5534 41.9823 19.552 40.749V39.749H18.547C18.4153 39.7494 18.2848 39.7238 18.1629 39.6738C18.0411 39.6238 17.9303 39.5502 17.8369 39.4574C17.7435 39.3645 17.6693 39.2541 17.6185 39.1326C17.5677 39.0111 17.5414 38.8807 17.541 38.749V37.249C17.541 36.697 17.991 36.249 18.547 36.249H19.552V34.749C19.552 31.159 22.478 28.249 26.088 28.249C29.698 28.249 32.624 31.159 32.624 34.749V36.249H33.629C34.185 36.249 34.635 36.697 34.635 37.249V38.749C34.635 39.301 34.185 39.749 33.629 39.749H32.624V40.749Z" fill="#C7E5E5"/>
<path fill-rule="evenodd" clip-rule="evenodd" d="M31.368 29.748C33.212 31.748 33.631 34.248 32.625 37.248V38.498C32.625 38.5309 32.6185 38.5635 32.6059 38.5939C32.5932 38.6243 32.5747 38.6519 32.5514 38.6751C32.5281 38.6984 32.5004 38.7168 32.47 38.7293C32.4395 38.7418 32.4069 38.7481 32.374 38.748C32.341 38.7483 32.3083 38.742 32.2777 38.7295C32.2472 38.7171 32.2194 38.6987 32.1959 38.6755C32.1725 38.6522 32.1539 38.6246 32.1412 38.5941C32.1285 38.5637 32.122 38.531 32.122 38.498V36.708C31.385 35.935 31.052 35.621 30.112 33.748C28.366 34.748 26.439 35.248 24.33 35.248C23.66 35.248 22.57 35.082 21.062 34.748C20.684 35.65 20.349 36.23 20.056 36.488V38.498C20.056 38.5309 20.0495 38.5635 20.0369 38.5939C20.0242 38.6243 20.0057 38.6519 19.9824 38.6751C19.9591 38.6984 19.9314 38.7168 19.901 38.7293C19.8705 38.7418 19.8379 38.7481 19.805 38.748C19.772 38.7483 19.7393 38.742 19.7087 38.7295C19.6782 38.7171 19.6504 38.6987 19.6269 38.6755C19.6035 38.6522 19.5849 38.6246 19.5722 38.5941C19.5595 38.5637 19.553 38.531 19.553 38.498V36.593C19.413 36.506 19.288 36.308 19.176 35.998C18.548 34.248 18.799 30.498 21.062 28.748C23.324 26.998 28.603 26.748 31.368 29.748ZM8.72414 1H121.276C125.542 1 129 3.92529 129 7.5V15.8571H1V7.5C1 3.91145 4.45703 1 8.72414 1Z" fill="#84ABAE"/>
<path d="M117 65H14C11.7909 65 10 66.7909 10 69V71C10 73.2091 11.7909 75 14 75H117C119.209 75 121 73.2091 121 71V69C121 66.7909 119.209 65 117 65Z" fill="#E3E4E3"/>
<path d="M119 28H90C88.8954 28 88 28.8954 88 30V32C88 33.1046 88.8954 34 90 34H119C120.105 34 121 33.1046 121 32V30C121 28.8954 120.105 28 119 28Z" fill="#E3E4E3"/>
<path d="M82 39H53C51.8954 39 51 39.8954 51 41V43C51 44.1046 51.8954 45 53 45H82C83.1046 45 84 44.1046 84 43V41C84 39.8954 83.1046 39 82 39Z" fill="#E3E4E3"/>
<path d="M119 39H90C88.8954 39 88 39.8954 88 41V43C88 44.1046 88.8954 45 90 45H119C120.105 45 121 44.1046 121 43V41C121 39.8954 120.105 39 119 39Z" fill="#E3E4E3"/>
<path d="M82 50H53C51.8954 50 51 50.8954 51 52V54C51 55.1046 51.8954 56 53 56H82C83.1046 56 84 55.1046 84 54V52C84 50.8954 83.1046 50 82 50Z" fill="#E3E4E3"/>
<path d="M119 50H90C88.8954 50 88 50.8954 88 52V54C88 55.1046 88.8954 56 90 56H119C120.105 56 121 55.1046 121 54V52C121 50.8954 120.105 50 119 50Z" fill="#E3E4E3"/>
<path d="M82 28H53C51.8954 28 51 28.8954 51 30V32C51 33.1046 51.8954 34 53 34H82C83.1046 34 84 33.1046 84 32V30C84 28.8954 83.1046 28 82 28Z" fill="#E3E4E3"/>
<path fill-rule="evenodd" clip-rule="evenodd" d="M1 15.8571V72.0082C1 75.8696 4.71976 78.9998 9.30832 78.9998H120.692C125.28 78.9998 129 75.8696 129 72.0082V15.8571H1ZM41.673 57.235V25.765C41.673 23.686 39.978 22 37.888 22H13.785C11.695 22 10 23.685 10 25.765V57.235C10 59.315 11.695 61 13.785 61H37.888C39.979 61 41.673 59.315 41.673 57.235ZM14 65H117C119.209 65 121 66.7909 121 69V71C121 73.2091 119.209 75 117 75H14C11.7909 75 10 73.2091 10 71V69C10 66.7909 11.7909 65 14 65ZM90 28H119C120.105 28 121 28.8954 121 30V32C121 33.1046 120.105 34 119 34H90C88.8954 34 88 33.1046 88 32V30C88 28.8954 88.8954 28 90 28ZM53 39H82C83.1046 39 84 39.8954 84 41V43C84 44.1046 83.1046 45 82 45H53C51.8954 45 51 44.1046 51 43V41C51 39.8954 51.8954 39 53 39ZM90 39H119C120.105 39 121 39.8954 121 41V43C121 44.1046 120.105 45 119 45H90C88.8954 45 88 44.1046 88 43V41C88 39.8954 88.8954 39 90 39ZM53 50H82C83.1046 50 84 50.8954 84 52V54C84 55.1046 83.1046 56 82 56H53C51.8954 56 51 55.1046 51 54V52C51 50.8954 51.8954 50 53 50ZM90 50H119C120.105 50 121 50.8954 121 52V54C121 55.1046 120.105 56 119 56H90C88.8954 56 88 55.1046 88 54V52C88 50.8954 88.8954 50 90 50ZM53 28H82C83.1046 28 84 28.8954 84 30V32C84 33.1046 83.1046 34 82 34H53C51.8954 34 51 33.1046 51 32V30C51 28.8954 51.8954 28 53 28Z" fill="white"/>
</g>
</g>
</svg>
