<svg width="130" height="80" viewBox="0 0 130 80" fill="none" xmlns="http://www.w3.org/2000/svg">
<g id="illustration / deriv / light / document-back-placeholder-kyc">
<g id="Vector">
<path d="M120.692 1H9.30832C4.71976 1 1 4.13024 1 7.9916V72.0084C1 75.8698 4.71976 79 9.30832 79H120.692C125.28 79 129 75.8698 129 72.0084V7.9916C129 4.13024 125.28 1 120.692 1Z" fill="white"/>
<path d="M127 9H3C1.89543 9 1 9.89543 1 11V24C1 25.1046 1.89543 26 3 26H127C128.105 26 129 25.1046 129 24V11C129 9.89543 128.105 9 127 9Z" fill="#84ABAE"/>
<path d="M118 38H68C66.8954 38 66 38.8954 66 40V42C66 43.1046 66.8954 44 68 44H118C119.105 44 120 43.1046 120 42V40C120 38.8954 119.105 38 118 38Z" fill="#F2F2F2"/>
<path d="M118 49H68C66.8954 49 66 49.8954 66 51V53C66 54.1046 66.8954 55 68 55H118C119.105 55 120 54.1046 120 53V51C120 49.8954 119.105 49 118 49Z" fill="#F2F2F2"/>
<path d="M118 60H68C66.8954 60 66 60.8954 66 62V64C66 65.1046 66.8954 66 68 66H118C119.105 66 120 65.1046 120 64V62C120 60.8954 119.105 60 118 60Z" fill="#F2F2F2"/>
<path d="M53 40H14C11.7909 40 10 41.7909 10 44V63C10 65.2091 11.7909 67 14 67H53C55.2091 67 57 65.2091 57 63V44C57 41.7909 55.2091 40 53 40Z" fill="#F2F2F2"/>
</g>
</g>
</svg>
