<svg width="278" height="168" viewBox="0 0 278 168" fill="none" xmlns="http://www.w3.org/2000/svg">
<g id="illustration / deriv / light / dropzone-frame" clip-path="url(#clip0_2253_363)">
<path id="Vector" fill-rule="evenodd" clip-rule="evenodd" d="M0 13C0 5.82072 5.82072 0 13 0H50C50.5523 0 51 0.447715 51 1C51 1.55228 50.5523 2 50 2H13C6.92528 2 2 6.92528 2 13V51C2 51.5523 1.55228 52 1 52C0.447715 52 0 51.5523 0 51V13ZM227 1C227 0.447715 227.448 0 228 0H265C272.179 0 278 5.82072 278 13V51C278 51.5523 277.552 52 277 52C276.448 52 276 51.5523 276 51V13C276 6.92528 271.075 2 265 2H228C227.448 2 227 1.55228 227 1ZM1 116C1.55228 116 2 116.448 2 117V155C2 161.075 6.92528 166 13 166H50C50.5523 166 51 166.448 51 167C51 167.552 50.5523 168 50 168H13C5.82072 168 0 162.179 0 155V117C0 116.448 0.447715 116 1 116ZM277 116C277.552 116 278 116.448 278 117V155C278 162.179 272.179 168 265 168H228C227.448 168 227 167.552 227 167C227 166.448 227.448 166 228 166H265C271.075 166 276 161.075 276 155V117C276 116.448 276.448 116 277 116Z" fill="#BCCDCE"/>
</g>
<defs>
<clipPath id="clip0_2253_363">
<rect width="278" height="168" fill="white"/>
</clipPath>
</defs>
</svg>
