<svg width="64" height="65" viewBox="0 0 64 65" fill="none" xmlns="http://www.w3.org/2000/svg">
<g id="illustration / deriv / light / ic-warning" clip-path="url(#clip0_408_463)">
<path id="Vector" opacity="0.2" fill-rule="evenodd" clip-rule="evenodd" d="M64 32.1331C64 14.4601 49.672 0.133057 32 0.133057C14.328 0.133057 0 14.4611 0 32.1331C0 49.8051 14.328 64.1331 32 64.1331C49.672 64.1331 64 49.8051 64 32.1331Z" fill="#FFAD3A"/>
<g id="Vector_2" style="mix-blend-mode:multiply">
<path fill-rule="evenodd" clip-rule="evenodd" d="M55 32.1331C55 19.4311 44.702 9.13306 32 9.13306C19.298 9.13306 9 19.4311 9 32.1331C9 44.8351 19.298 55.1331 32 55.1331C44.702 55.1331 55 44.8351 55 32.1331Z" fill="#FFAD3A"/>
</g>
<path id="Vector_3" fill-rule="evenodd" clip-rule="evenodd" d="M32.6179 34.542C33.0409 34.513 33.4189 34.318 33.6889 34.026C34.0189 33.67 34.0889 33.208 34.1159 33.027L34.1209 32.994L35.0529 27.211C35.0899 26.983 35.1079 26.751 35.1079 26.52V23.482C35.1079 22.744 34.9319 21.576 33.9009 21C33.4635 20.7536 32.9689 20.627 32.4669 20.633C31.9829 20.6377 31.508 20.7654 31.0869 21.004C30.0629 21.58 29.8909 22.742 29.8909 23.474V26.514C29.8909 26.75 29.9099 26.986 29.9479 27.219L30.8979 32.995L30.9029 33.028C30.9309 33.21 31.0029 33.675 31.3369 34.031C31.6549 34.371 32.1199 34.575 32.6179 34.542ZM29.8899 41.787V42.261C29.8899 42.859 30.0729 43.486 30.5669 43.959C31.0569 44.429 31.7349 44.633 32.4979 44.633C33.2619 44.633 33.9409 44.428 34.4319 43.958C34.9259 43.485 35.1079 42.858 35.1079 42.261V41.787C35.1079 41.189 34.9259 40.562 34.4319 40.089C33.9409 39.619 33.2619 39.415 32.4979 39.415C31.7359 39.415 31.0579 39.619 30.5669 40.089C30.0729 40.562 29.8909 41.189 29.8909 41.787H29.8899Z" fill="white"/>
</g>
<defs>
<clipPath id="clip0_408_463">
<rect width="64" height="65" fill="white"/>
</clipPath>
</defs>
</svg>
