<svg width="120" height="152" viewBox="0 0 120 152" fill="none" xmlns="http://www.w3.org/2000/svg">
<g id="illustration / deriv / light / account">
<g id="Account">
<g id="Layer 2">
<g id="Group">
<g id="Group_2">
<g id="Group_3">
<path id="Vector" d="M33.845 53.3068C33.9762 53.4443 34.1074 53.5755 34.2433 53.7068C34.3745 53.8443 34.5057 53.9756 34.6416 54.1069C34.7728 54.2443 34.904 54.3756 35.0414 54.5069C35.1695 54.6428 35.3007 54.7741 35.4366 54.9039C35.5663 55.0398 35.699 55.1726 35.8349 55.3039C35.9645 55.4398 36.0973 55.5726 36.2331 55.7039C36.3628 55.8399 36.4956 55.9727 36.6314 56.104C36.7611 56.2399 36.8939 56.3727 37.0297 56.504C37.1609 56.6399 37.2921 56.7743 37.428 56.9041C37.5592 57.04 37.6904 57.1744 37.8263 57.3041C37.9575 57.44 38.0887 57.5744 38.2246 57.7041C38.3558 57.8401 38.487 57.9744 38.6229 58.1042C38.7556 58.2416 38.8884 58.376 39.0258 58.5089C39.157 58.6463 39.2897 58.7791 39.4271 58.912C39.5568 59.0479 39.6896 59.1807 39.8254 59.312C39.9597 59.4526 40.094 59.5885 40.2345 59.7213C40.3596 59.8526 40.4861 59.9793 40.6174 60.1044C40.747 60.2418 40.8813 60.3762 41.0187 60.5075C41.1453 60.6403 41.275 60.7716 41.4078 60.8983C41.4386 60.9307 41.471 60.9647 41.5035 60.9971C41.6069 61.1037 41.7103 61.2072 41.8184 61.3107C41.9481 61.4466 42.0808 61.5794 42.2167 61.7107C42.3463 61.8466 42.4791 61.9795 42.615 62.1108C42.547 62.0412 42.4822 61.9717 42.4174 61.9022C42.4174 61.9022 42.4174 61.8991 42.4143 61.8991C42.3494 61.8296 42.2861 61.7601 42.229 61.6922C42.1642 61.6211 42.1024 61.5501 42.0438 61.4806C41.9805 61.408 41.9187 61.3354 41.8616 61.2628C41.7983 61.1887 41.7366 61.1145 41.6794 61.0404L41.6285 60.9755C41.5868 60.923 41.5451 60.8705 41.505 60.818C41.4463 60.7407 41.3892 60.6651 41.3352 60.5894C41.2781 60.5121 41.221 60.4349 41.1669 60.3577C41.1098 60.2789 41.0558 60.1986 41.0017 60.1198C40.9462 60.041 40.8921 59.9592 40.8412 59.8804C40.7856 59.7986 40.7331 59.7167 40.6853 59.6364C40.6297 59.553 40.5788 59.4696 40.5294 59.3877C40.4784 59.3027 40.4275 59.2209 40.3812 59.1359C40.3302 59.051 40.2824 58.966 40.2345 58.8811C40.1851 58.7946 40.1388 58.7066 40.0925 58.6216C40.0446 58.5336 39.9999 58.444 39.9551 58.3559C39.9088 58.2648 39.8625 58.1768 39.8223 58.0856C39.776 57.9961 39.7328 57.9049 39.6911 57.8138C39.6479 57.7227 39.6062 57.63 39.5661 57.5373C39.5228 57.4446 39.4827 57.3489 39.4441 57.2547C39.4024 57.1605 39.3638 57.0662 39.3268 56.9674C39.2882 56.8716 39.2512 56.7759 39.2156 56.6786C38.2524 54.1192 37.8464 51.1722 38.1165 47.958C39.1554 35.5876 49.8041 23.8907 61.9024 21.8303C65.4931 21.2202 68.8091 21.526 71.6696 22.5856C71.7653 22.618 71.861 22.6551 71.9552 22.6937C72.0494 22.7292 72.142 22.7663 72.2377 22.808C72.3303 22.8451 72.4214 22.8837 72.514 22.9254C72.6051 22.964 72.6962 23.0057 72.7873 23.0489C72.8799 23.0891 72.9679 23.1308 73.0574 23.1756C73.1454 23.2173 73.2334 23.2621 73.3199 23.3069C73.4079 23.3486 73.4943 23.3949 73.5792 23.4413C73.6657 23.486 73.7506 23.5324 73.837 23.5818C73.9219 23.6281 74.0053 23.6745 74.0902 23.727C74.1751 23.7733 74.2569 23.8243 74.3403 23.8737C74.4221 23.9232 74.5039 23.9726 74.5826 24.0251C74.6645 24.0745 74.7447 24.1286 74.8235 24.1811C74.9022 24.2336 74.984 24.2861 75.0612 24.3402C75.1415 24.3942 75.2202 24.4498 75.2959 24.5039C75.373 24.558 75.4487 24.6136 75.5212 24.6676C75.5984 24.7232 75.6756 24.7804 75.7482 24.8391C75.8238 24.8978 75.8979 24.9565 75.972 25.0152C76.0446 25.0723 76.1171 25.1325 76.1881 25.1897C76.2607 25.2515 76.3332 25.3117 76.4043 25.3735C76.4753 25.4353 76.5478 25.4971 76.6157 25.5619C76.6883 25.6237 76.7562 25.6886 76.8257 25.7504C76.8257 25.7504 76.8257 25.7519 76.8288 25.7535C76.8952 25.8152 76.9615 25.8786 77.0248 25.9403C76.8936 25.8044 76.7624 25.67 76.6266 25.5403C76.4953 25.4044 76.3641 25.27 76.2283 25.1403C76.0971 25.0043 75.9658 24.87 75.83 24.7402C75.6957 24.5997 75.5614 24.4653 75.4209 24.3294C75.2943 24.1981 75.1677 24.0699 75.035 23.9448C74.9053 23.8073 74.7725 23.6745 74.6367 23.5447C74.507 23.4057 74.3742 23.2744 74.2384 23.1447C74.1087 23.0057 73.976 22.8744 73.8401 22.7447C73.7073 22.6041 73.5715 22.4666 73.431 22.3338C73.3029 22.1979 73.1717 22.0666 73.0358 21.9369C72.9062 21.8009 72.7734 21.6666 72.6375 21.5368C72.5079 21.4009 72.3751 21.2665 72.2393 21.1368C72.108 21.0009 71.9768 20.8665 71.841 20.7367C71.7098 20.6008 71.5785 20.4664 71.4427 20.3367C71.3115 20.2008 71.1803 20.0664 71.0444 19.9367C70.9132 19.8007 70.782 19.6664 70.6461 19.5366C70.5149 19.4007 70.3837 19.2663 70.2478 19.1366C70.1166 19.0007 69.9854 18.8663 69.848 18.7365C69.7183 18.6006 69.5871 18.4662 69.4497 18.3365C69.32 18.2006 69.1888 18.0662 69.0514 17.9365C68.9218 17.8005 68.789 17.6662 68.6532 17.5364C68.5235 17.4005 68.3907 17.2661 68.2549 17.1364C64.6271 13.3615 59.1129 11.5451 52.7295 12.6325C40.6312 14.6944 29.9826 26.3914 28.9436 38.7617C28.4342 44.8318 30.333 49.9381 33.8311 53.3161L33.845 53.3068Z" fill="#EBECEE"/>
<path id="Vector_2" d="M42.6085 62.4137C42.5313 62.4137 42.4541 62.3843 42.3939 62.3272C42.2488 62.1882 42.1129 62.0507 41.9864 61.9179C41.8505 61.7866 41.7147 61.6491 41.5881 61.5178C41.4877 61.4221 41.3797 61.3139 41.2747 61.2058C41.2438 61.1749 41.2099 61.1394 41.1774 61.1054C41.0617 60.9958 40.9274 60.8598 40.7884 60.7146C40.6557 60.5895 40.5198 60.4521 40.3917 60.3162C40.262 60.1926 40.1339 60.0628 40.0104 59.9346C39.8822 59.8126 39.7464 59.6782 39.5967 59.5207C39.4608 59.391 39.325 59.2535 39.1984 59.1207C39.0579 58.9847 38.9236 58.8504 38.797 58.7175C38.6658 58.5924 38.5299 58.4534 38.3956 58.3144C38.2613 58.1862 38.1239 58.0457 37.9973 57.9144C37.8738 57.797 37.7488 57.6688 37.5991 57.5143C37.4663 57.3877 37.3289 57.2471 37.2008 57.1143C37.068 56.9876 36.9306 56.8471 36.8025 56.7142C36.6651 56.583 36.5293 56.4455 36.4027 56.3127C36.2668 56.1829 36.131 56.0455 36.0044 55.9126C35.867 55.7798 35.7296 55.6423 35.6061 55.5126C35.4718 55.3828 35.3344 55.2454 35.2078 55.1125C35.0766 54.9874 34.9423 54.8531 34.8173 54.7202C34.6783 54.5874 34.5456 54.4546 34.4128 54.3156C34.2739 54.1812 34.1411 54.0483 34.0145 53.9155C33.8771 53.7827 33.7459 53.6514 33.6209 53.5201C29.9113 49.9336 28.1437 44.6791 28.6438 38.7217C29.6982 26.2448 40.4828 14.3996 52.6906 12.3175C58.9073 11.258 64.6669 12.9323 68.4908 16.911C68.6096 17.0238 68.7424 17.1582 68.8891 17.3111C69.0048 17.4208 69.1361 17.552 69.2812 17.7049C69.4263 17.8424 69.5637 17.9845 69.6795 18.105C69.8277 18.2455 69.9697 18.3907 70.0777 18.505C70.2213 18.6409 70.3556 18.7784 70.4822 18.9097C70.618 19.0394 70.7585 19.1846 70.8805 19.3097C71.0132 19.4364 71.1506 19.5769 71.2788 19.7098C71.4146 19.8395 71.5566 19.9847 71.6771 20.1098C71.8083 20.2349 71.9472 20.377 72.0753 20.5099C72.2081 20.6365 72.3455 20.7771 72.4736 20.9099C72.594 21.0242 72.7283 21.1586 72.8734 21.3115C72.9923 21.4258 73.1266 21.5586 73.2717 21.7115C73.4029 21.8366 73.5373 21.971 73.6623 22.1038C73.7935 22.2274 73.9309 22.3664 74.0714 22.5147C74.2273 22.663 74.3539 22.7912 74.4697 22.9147C74.6271 23.0646 74.7537 23.1928 74.868 23.3148C75.0084 23.4492 75.1427 23.5835 75.2647 23.7133C75.382 23.8229 75.5024 23.9434 75.6537 24.1025C75.7957 24.2384 75.9316 24.3759 76.0628 24.5134C76.1971 24.6415 76.3376 24.7867 76.4595 24.9118C76.5938 25.04 76.7359 25.1852 76.8578 25.3119C76.9937 25.4416 77.1342 25.5868 77.2561 25.7119C77.3734 25.8339 77.3719 26.027 77.2515 26.1459C77.1326 26.2649 76.9396 26.2664 76.8177 26.149C76.7544 26.0873 76.6896 26.0255 76.6263 25.9668L76.6232 25.9637L76.5491 25.8957C76.5074 25.8571 76.4657 25.82 76.424 25.783C76.4194 25.7799 76.4148 25.7753 76.4117 25.7706C76.3561 25.7181 76.3005 25.6687 76.2434 25.6193L76.2095 25.5899C76.1631 25.5497 76.1168 25.5111 76.0705 25.471L75.9254 25.3505C75.8791 25.3134 75.8328 25.2748 75.788 25.2393C75.7124 25.1791 75.6398 25.1219 75.5657 25.0632C75.4932 25.0061 75.4206 24.952 75.3465 24.8995C75.2709 24.8423 75.1983 24.7898 75.1242 24.7373C75.047 24.6817 74.9714 24.6276 74.8942 24.5767C74.8155 24.5226 74.7367 24.4716 74.6595 24.4207L74.6055 24.3852C74.5469 24.3465 74.4882 24.3079 74.428 24.2709C74.3415 24.2137 74.2628 24.1674 74.1856 24.1195L74.1285 24.0855C74.0683 24.05 74.0081 24.0129 73.9463 23.9805C73.9417 23.9774 73.9371 23.9743 73.9324 23.9712C73.8522 23.9218 73.7734 23.8785 73.6932 23.8353C73.6052 23.7843 73.5234 23.7411 73.44 23.6978C73.3551 23.6515 73.2733 23.6082 73.1899 23.5696C73.0973 23.5217 73.0108 23.4785 72.9275 23.4383C72.8379 23.3935 72.753 23.3549 72.6666 23.3163C72.5709 23.2715 72.4829 23.2314 72.3949 23.1943C72.3007 23.1511 72.2127 23.1155 72.1247 23.08C72.0259 23.0368 71.9364 23.0028 71.8484 22.9688C71.7527 22.9302 71.6616 22.8947 71.5721 22.8653C68.6498 21.7826 65.4172 21.5339 61.9561 22.1224C50.0076 24.1566 39.4531 35.7531 38.4265 47.9705C38.1656 51.0704 38.5284 53.9588 39.5071 56.5567C39.5426 56.654 39.5781 56.7467 39.6152 56.8394C39.6522 56.9382 39.6893 57.0293 39.7279 57.1174C39.768 57.2147 39.8051 57.3074 39.8467 57.3954C39.8884 57.4912 39.9286 57.5823 39.9702 57.6703C40.0119 57.7599 40.0521 57.8479 40.0968 57.9329C40.0999 57.9391 40.103 57.9437 40.1045 57.9499C40.1385 58.0271 40.1771 58.1028 40.2172 58.18L40.2296 58.2047C40.2774 58.299 40.3191 58.3824 40.3624 58.4642L40.3886 58.5152C40.4241 58.5832 40.4612 58.6511 40.4997 58.7191L40.526 58.7654C40.5646 58.8334 40.6016 58.9013 40.6418 58.9678C40.6865 59.0481 40.7267 59.116 40.7684 59.1855L40.7884 59.2195C40.8363 59.2998 40.8841 59.3786 40.9351 59.4558C40.9382 59.4605 40.9413 59.4666 40.9443 59.4713C40.9891 59.547 41.037 59.6226 41.0879 59.6983C41.1419 59.7817 41.1929 59.859 41.2438 59.9331C41.2994 60.0165 41.3519 60.0922 41.4059 60.1679C41.4599 60.2451 41.514 60.3177 41.5665 60.3887C41.6282 60.4752 41.6838 60.5478 41.7409 60.6235C41.7795 60.6745 41.8196 60.7239 41.8598 60.7749L41.9123 60.8413C41.9694 60.9139 42.0265 60.9834 42.0867 61.0544C42.15 61.1332 42.2071 61.2012 42.2673 61.2707C42.3275 61.3417 42.3862 61.4097 42.4495 61.4777C42.5112 61.5503 42.5699 61.6151 42.6301 61.6785C42.6316 61.68 42.6347 61.6831 42.6363 61.6846L42.6502 61.7001C42.7104 61.7634 42.769 61.8267 42.8292 61.8901C42.9466 62.0105 42.9466 62.2036 42.8277 62.3241C42.7675 62.3843 42.6888 62.4152 42.6085 62.4152V62.4137ZM56.2937 12.6249C55.1513 12.6249 53.9827 12.7253 52.7941 12.9276C40.8455 14.9634 30.291 26.5599 29.2644 38.7773C28.7797 44.5493 30.4824 49.6294 34.0593 53.0845C34.0624 53.0876 34.0655 53.0907 34.0685 53.0938C34.189 53.2189 34.3155 53.3471 34.4576 53.4846C34.5872 53.6205 34.7138 53.7472 34.8558 53.8846C34.9932 54.0283 35.1198 54.1549 35.2541 54.2831C35.2588 54.2862 35.2618 54.2908 35.2649 54.2939C35.3838 54.4206 35.5119 54.5488 35.6478 54.6785C35.779 54.816 35.9102 54.9473 36.0476 55.0801C36.1742 55.2129 36.3054 55.3442 36.4459 55.4801C36.574 55.6145 36.7052 55.7458 36.8442 55.8802C36.9723 56.0146 37.1035 56.1459 37.2425 56.2802C37.3737 56.4162 37.5064 56.5505 37.6392 56.6787C37.772 56.8146 37.9032 56.9506 38.0375 57.0788C38.1903 57.2363 38.3107 57.3599 38.4358 57.4788C38.567 57.6147 38.6982 57.7491 38.8341 57.8788C38.973 58.0225 39.1042 58.1553 39.2385 58.2835C39.3682 58.4194 39.4963 58.5476 39.6399 58.6866C39.7402 58.7917 39.8421 58.8952 39.9486 59.0002C39.9131 58.9369 39.8776 58.8704 39.8421 58.8056L39.8159 58.7577C39.7696 58.6712 39.7248 58.5832 39.68 58.4936L39.663 58.4611C39.6198 58.3762 39.5781 58.2928 39.5395 58.2078C39.4932 58.1167 39.4485 58.0225 39.4068 57.9314C39.3636 57.8418 39.3203 57.7445 39.2802 57.6487C39.2385 57.5591 39.1968 57.4587 39.1567 57.3599C39.1166 57.2687 39.0749 57.1683 39.0363 57.0633C38.9992 56.9722 38.9606 56.8718 38.9251 56.7714C37.9155 54.0916 37.5404 51.1121 37.809 47.9195C38.8572 35.438 49.6418 23.5928 61.8496 21.5138C65.4187 20.9068 68.7578 21.1663 71.7758 22.283C71.8685 22.3139 71.9719 22.3541 72.0722 22.3942C72.1618 22.4282 72.2606 22.4668 72.3609 22.5101C72.4489 22.5456 72.5446 22.5857 72.6403 22.629C72.7283 22.6661 72.824 22.7093 72.9198 22.7541C73.0078 22.7927 73.1019 22.836 73.1961 22.8823C73.281 22.9225 73.3736 22.9688 73.4632 23.0151C73.5465 23.0537 73.6391 23.1032 73.7287 23.1526C73.8043 23.1912 73.8861 23.2345 73.968 23.2808C73.8722 23.1804 73.7657 23.0738 73.6391 22.9534L73.6283 22.9425C73.4925 22.7973 73.3582 22.6645 73.2316 22.544C73.227 22.5394 73.2239 22.5363 73.2192 22.5317C73.1004 22.405 72.9707 22.2768 72.8364 22.1471C72.6897 21.9942 72.5601 21.8629 72.4381 21.7471C72.2915 21.5941 72.1618 21.4629 72.0398 21.347C71.9086 21.2111 71.7758 21.0752 71.6415 20.947C71.4903 20.7894 71.3683 20.6674 71.2433 20.5469C71.1182 20.4172 70.9824 20.2782 70.845 20.1469C70.7122 20.011 70.581 19.875 70.4467 19.7469C70.3217 19.6171 70.1858 19.4781 70.0484 19.3468C69.9172 19.2109 69.786 19.0765 69.6501 18.9483C69.647 18.9452 69.6424 18.9406 69.6393 18.9375C69.5282 18.8201 69.3939 18.6827 69.2518 18.5483C69.2487 18.5452 69.2441 18.5406 69.241 18.5375C69.1283 18.4201 68.994 18.2811 68.8536 18.1482C68.8505 18.1451 68.8458 18.1405 68.8427 18.1374C68.7007 17.9891 68.5741 17.8625 68.4553 17.7482C68.3055 17.5907 68.1789 17.464 68.057 17.3482C65.0961 14.2683 60.9311 12.6234 56.2953 12.6234L56.2937 12.6249Z" fill="black"/>
</g>
<g id="Group_4">
<path id="Vector_3" d="M98.3065 87.7947C98.2123 87.7947 98.1197 87.7515 98.0579 87.6697C98.0101 87.6049 97.9622 87.5431 97.9128 87.4798L97.8542 87.398C97.8218 87.3517 97.7893 87.3069 97.7569 87.2621C97.6566 87.1248 97.6859 86.9333 97.8218 86.8314C97.9576 86.7296 98.1506 86.7573 98.2525 86.8932C98.3559 87.029 98.4562 87.1664 98.5566 87.3038C98.6554 87.4412 98.626 87.6326 98.4886 87.733C98.4331 87.7731 98.3698 87.7932 98.3065 87.7932V87.7947Z" fill="black"/>
<g id="Group_5">
<path id="Vector_4" d="M5.30872 114.269L5.64216 114.72L5.97561 115.171L6.30906 115.62L6.6425 116.071L7.3094 116.972L7.64285 117.423L7.97629 117.874L8.97663 119.225L9.30854 119.675L9.64044 120.126L9.97234 120.575L10.3042 121.026L10.6377 121.477L10.9696 121.928L11.3015 122.378L11.6334 122.829L12.3003 123.731L12.6322 124.18L12.9641 124.631L13.631 125.533L13.9644 125.984L14.2979 126.435L14.9648 127.337C14.9648 127.167 14.9648 126.998 14.9694 126.828C14.9694 126.658 14.9725 126.488 14.9771 126.316C14.9802 126.146 14.9849 125.975 14.991 125.804C14.9957 125.634 15.0018 125.462 15.0111 125.289C15.0173 125.119 15.025 124.948 15.0358 124.776C15.0435 124.605 15.0543 124.434 15.0667 124.262C15.0759 124.091 15.0898 123.919 15.1022 123.748C15.1145 123.575 15.1284 123.403 15.1439 123.232C15.1593 123.059 15.1747 122.886 15.1933 122.713C15.2087 122.54 15.2272 122.367 15.2473 122.196C15.2658 122.021 15.2859 121.848 15.3075 121.675C15.3276 121.5 15.3476 121.327 15.3723 121.154C15.3955 120.98 15.4186 120.807 15.4433 120.634C15.4665 120.458 15.4927 120.283 15.519 120.109C15.5452 119.934 15.5746 119.76 15.6039 119.585C15.6317 119.409 15.661 119.235 15.6919 119.06C15.7212 118.884 15.7536 118.708 15.7861 118.533C15.82 118.357 15.8524 118.181 15.8879 118.005C15.9234 117.829 15.959 117.653 15.996 117.477C16.0331 117.299 16.0686 117.123 16.1102 116.949C16.1488 116.771 16.1874 116.595 16.2291 116.419C16.2692 116.241 16.3125 116.064 16.3557 115.888C16.3974 115.708 16.4421 115.532 16.49 115.355C16.5332 115.176 16.5795 114.999 16.6274 114.822C16.6737 114.643 16.7216 114.467 16.771 114.287C16.8204 114.108 16.8713 113.931 16.9222 113.751C16.9732 113.572 17.0257 113.395 17.0813 113.215C17.1337 113.035 17.1893 112.856 17.2464 112.675C17.302 112.494 17.3591 112.315 17.4178 112.136C23.5464 93.1872 40.4843 77.3586 60.4186 73.8401C73.1528 71.5943 84.6645 74.8024 92.9173 81.7884C92.9899 81.8502 93.064 81.912 93.135 81.9753C93.206 82.0355 93.277 82.0973 93.348 82.1591C93.419 82.2209 93.4916 82.2842 93.5611 82.3475C93.6321 82.4093 93.7015 82.4726 93.7725 82.536C93.8436 82.5993 93.9115 82.6626 93.9809 82.7259C94.052 82.7893 94.1199 82.8541 94.1894 82.919C94.2604 82.9839 94.3267 83.0487 94.3962 83.1152C94.4657 83.1785 94.5336 83.2449 94.6015 83.3113C94.6694 83.3762 94.7358 83.4411 94.8038 83.5075C94.8701 83.5724 94.9365 83.6388 95.0014 83.7036C95.0693 83.7716 95.1357 83.838 95.2005 83.9044C95.2653 83.9693 95.3302 84.0357 95.395 84.1021C95.4614 84.1701 95.5262 84.2365 95.5911 84.306C95.6559 84.3724 95.7207 84.4404 95.784 84.5068C95.8473 84.5732 95.9106 84.6412 95.9739 84.7091C96.0372 84.7787 96.102 84.8466 96.1638 84.9177C96.2271 84.9872 96.2904 85.0551 96.3521 85.1246C96.4139 85.1941 96.4772 85.2636 96.5374 85.3347C96.6007 85.4057 96.6624 85.4752 96.7242 85.5478C96.7859 85.6189 96.8461 85.6884 96.9079 85.761C96.9665 85.8305 97.0267 85.9015 97.0869 85.9726C97.1472 86.0436 97.2074 86.1162 97.2676 86.1873C97.3247 86.2568 97.3833 86.3263 97.4405 86.3973C97.4991 86.4684 97.5578 86.541 97.6149 86.6136C97.6767 86.6893 97.7369 86.7649 97.7971 86.8422C97.8542 86.9148 97.9113 86.9889 97.9669 87.0615C98.0286 87.1403 98.0888 87.219 98.149 87.2978C98.0981 87.2268 98.0487 87.1573 97.9993 87.0878C97.8897 86.9348 97.7785 86.7835 97.6658 86.6352C97.6581 86.6275 97.6535 86.6182 97.6473 86.612C97.5285 86.4499 97.4111 86.2877 97.2907 86.1301C97.283 86.1193 97.2753 86.107 97.2676 86.0977C97.1796 85.9757 97.09 85.8552 97.0005 85.7363C96.9943 85.7285 96.9897 85.7224 96.9835 85.7146C96.8801 85.571 96.7736 85.4274 96.667 85.2853C96.6593 85.2775 96.6547 85.2683 96.6485 85.2621C96.5451 85.1185 96.4386 84.9763 96.3336 84.8358C96.3274 84.8281 96.3243 84.8234 96.3197 84.8157C96.2147 84.6705 96.1067 84.5269 96.0002 84.3848C95.994 84.3771 95.9909 84.3724 95.9863 84.3647C95.8813 84.2195 95.7732 84.0759 95.6667 83.9338C95.6667 83.9307 95.6621 83.9276 95.659 83.9261C95.5401 83.7623 95.4213 83.6002 95.3008 83.4395C95.2005 83.3036 95.1017 83.1661 94.9998 83.0333C94.9936 83.0256 94.9905 83.0209 94.9859 83.0132C94.8809 82.8696 94.7744 82.7259 94.6679 82.5838C94.5444 82.4124 94.4194 82.2425 94.2928 82.0741C94.2851 82.0633 94.2773 82.051 94.2696 82.0417C94.1677 81.9027 94.0674 81.7652 93.9624 81.6293C93.8652 81.4949 93.7664 81.3621 93.6691 81.2293C93.6629 81.2215 93.6583 81.2154 93.6521 81.2076C93.5487 81.064 93.4422 80.9203 93.3357 80.7782C93.331 80.7705 93.3264 80.7659 93.3218 80.7582C93.2044 80.596 93.0856 80.4354 92.9652 80.2763C92.8679 80.1419 92.7691 80.0091 92.6719 79.8762C92.6719 79.8731 92.6672 79.87 92.6657 79.8685C92.5437 79.7017 92.4202 79.5349 92.2967 79.3712C92.1902 79.2229 92.0822 79.0777 91.9725 78.9325C91.9231 78.8661 91.8737 78.8012 91.8228 78.7363C91.7719 78.6653 91.7225 78.5958 91.6731 78.5263C91.5635 78.3734 91.4523 78.222 91.3396 78.0737C91.3319 78.066 91.3273 78.0567 91.3211 78.0506C91.2022 77.8884 91.0849 77.7262 90.9645 77.5687C90.9568 77.5578 90.9491 77.5455 90.9413 77.5362C90.8533 77.4142 90.7638 77.2937 90.6743 77.1748C90.6681 77.1671 90.6635 77.1609 90.6573 77.1532C90.5538 77.0095 90.4473 76.8659 90.3408 76.7238C90.3331 76.7161 90.3285 76.7068 90.3223 76.7006C90.2189 76.557 90.1123 76.4149 90.0074 76.2743C90.0012 76.2666 89.9981 76.262 89.9935 76.2542C89.8885 76.1091 89.7804 75.9654 89.6739 75.8233C89.6662 75.814 89.66 75.8032 89.6508 75.794C89.5412 75.6426 89.4285 75.4897 89.3158 75.3414C89.2031 75.1854 89.0888 75.0325 88.9746 74.878C85.0782 69.5292 79.7925 65.4068 73.5697 62.8861C66.8668 60.1692 59.0755 59.312 50.7625 60.7778C50.5464 60.8164 50.3302 60.855 50.1157 60.8967C50.0786 60.9044 50.0416 60.9106 50.0045 60.9199C25.2522 65.6833 5.30872 89.4061 5.30872 114.269Z" fill="#EBECEE"/>
<path id="Vector_5" d="M14.9725 127.643C14.8768 127.643 14.7842 127.599 14.724 127.518L14.0571 126.618C14.0571 126.618 14.0494 126.605 14.0448 126.599L13.7237 126.167C13.7237 126.167 13.7144 126.154 13.7113 126.148L12.7249 124.815C12.7249 124.815 12.7156 124.803 12.7125 124.797L12.4007 124.375C12.4007 124.375 12.3945 124.367 12.3914 124.363L12.0657 123.923C12.0657 123.923 12.0611 123.916 12.058 123.913L11.3911 123.013C11.3911 123.013 11.3818 123 11.3787 122.994L11.0638 122.569C11.0638 122.569 11.0592 122.565 11.0576 122.562L10.7319 122.122C10.7319 122.122 10.7273 122.115 10.7242 122.112L10.3984 121.672C10.3984 121.672 10.3938 121.666 10.3907 121.663L10.0573 121.212C10.0573 121.212 10.048 121.199 10.0434 121.192L9.73001 120.767C9.73001 120.767 9.72538 120.761 9.72383 120.759L9.39811 120.319C9.39811 120.319 9.39347 120.313 9.39039 120.31L9.06466 119.87C9.06466 119.87 9.05848 119.863 9.05694 119.859L5.06021 114.453C5.02161 114.4 5 114.335 5 114.269C5 102.181 9.66517 89.9608 18.1387 79.8579C26.6 69.7673 37.897 62.9311 49.949 60.6096C49.9721 60.6035 50.0076 60.5973 50.0431 60.5911L50.0601 60.588C50.2778 60.5463 50.4939 60.5077 50.7131 60.4691C58.7946 59.0435 66.7402 59.7787 73.6886 62.5944C79.9314 65.1228 85.3052 69.3055 89.2278 74.6913C89.342 74.8427 89.4563 74.9972 89.5705 75.1547C89.6786 75.2984 89.7897 75.4482 89.8993 75.5995C89.9086 75.6104 89.9163 75.6227 89.9256 75.6335C90.0321 75.7756 90.1402 75.9208 90.2467 76.066C90.2498 76.0706 90.2528 76.0753 90.2559 76.0799C90.3671 76.2282 90.4721 76.3687 90.5739 76.5108C90.577 76.5155 90.5801 76.5201 90.5817 76.5216C90.6959 76.673 90.8009 76.8167 90.9058 76.9603L90.9197 76.9773C91.0139 77.1009 91.1019 77.2198 91.1899 77.3418C91.1976 77.3511 91.2053 77.3619 91.213 77.3727C91.3365 77.5349 91.4554 77.6986 91.5758 77.8623C91.5789 77.867 91.5882 77.8778 91.5913 77.8824C91.7024 78.0291 91.812 78.179 91.9201 78.3288C91.9232 78.3319 91.9263 78.335 91.9278 78.3396C91.9602 78.3828 91.9911 78.4261 92.022 78.4709L92.0791 78.5512C92.1239 78.6083 92.1748 78.6748 92.2257 78.7427C92.3354 78.8879 92.445 79.0362 92.553 79.1845C92.675 79.3451 92.7969 79.5134 92.9204 79.6818C92.9235 79.6849 92.9266 79.6895 92.9281 79.6926C93.0269 79.8239 93.1242 79.9567 93.2215 80.0911C93.3388 80.2456 93.4607 80.4077 93.578 80.5715C93.578 80.5715 93.5796 80.5746 93.5811 80.5761C93.5858 80.5823 93.5889 80.5869 93.5935 80.5931C93.7 80.7352 93.805 80.8773 93.9084 81.0209C93.91 81.0225 93.9208 81.0364 93.9223 81.0395C94.0211 81.1738 94.1215 81.3067 94.2187 81.4426C94.3175 81.5723 94.4194 81.7083 94.5197 81.8473C94.5275 81.8565 94.5336 81.8658 94.5414 81.8766C94.6695 82.0481 94.7945 82.2164 94.918 82.3863C94.918 82.3879 94.9211 82.3894 94.9211 82.391C95.0276 82.5315 95.1311 82.6736 95.236 82.8157C95.2407 82.8234 95.2515 82.8373 95.2561 82.8451C95.3503 82.9686 95.4475 83.0999 95.5448 83.2327L95.5571 83.2497C95.6744 83.4057 95.7933 83.5679 95.9106 83.7301C95.9137 83.7347 95.9168 83.7378 95.9199 83.7424C96.028 83.8861 96.136 84.0313 96.2425 84.1765C96.2456 84.1811 96.2487 84.1857 96.2518 84.1904C96.366 84.3417 96.471 84.4838 96.576 84.6259C96.5791 84.6306 96.5822 84.6352 96.5853 84.6398C96.6964 84.7881 96.8014 84.9302 96.9048 85.0723C96.9079 85.0769 96.9172 85.0878 96.9202 85.0924C97.0283 85.236 97.1348 85.3812 97.2398 85.5249L97.2475 85.5326C97.3432 85.6592 97.4312 85.7782 97.5192 85.9002C97.5269 85.9095 97.5347 85.9203 97.5408 85.9295C97.6612 86.0886 97.777 86.2477 97.8928 86.4068L97.9036 86.4207C97.9036 86.4207 97.9159 86.4377 97.919 86.4408C98.0302 86.5891 98.1413 86.7373 98.2494 86.8887C98.2525 86.8918 98.254 86.8949 98.2556 86.898C98.2911 86.9459 98.325 86.9937 98.359 87.0416L98.4084 87.1111C98.5072 87.2486 98.4763 87.4386 98.342 87.539C98.2077 87.6394 98.0163 87.6131 97.9129 87.4787C97.8527 87.4015 97.794 87.3227 97.7323 87.2455C97.6751 87.1714 97.6196 87.0988 97.5624 87.0262L97.5501 87.0107C97.4945 86.9412 97.4389 86.8717 97.3834 86.8022C97.3247 86.7265 97.2676 86.657 97.2105 86.5875C97.1503 86.5149 97.0947 86.4454 97.0391 86.379C96.9789 86.3064 96.9202 86.2354 96.86 86.1643C96.8014 86.0933 96.7412 86.0222 96.6825 85.9543L96.6393 85.9033C96.593 85.8492 96.5482 85.7967 96.5003 85.7442C96.4386 85.6716 96.3769 85.6036 96.3151 85.5341C96.2595 85.4693 96.2055 85.4106 96.153 85.3503L96.1283 85.3241C96.0681 85.2561 96.0048 85.1881 95.9431 85.1202C95.8952 85.0661 95.8504 85.0182 95.8057 84.9688L95.5648 84.7109C95.5031 84.6445 95.4398 84.578 95.3765 84.5147C95.3086 84.4421 95.2453 84.3757 95.1805 84.3108L95.1635 84.2923C95.1048 84.2336 95.0477 84.1734 94.989 84.1162L94.5938 83.7224C94.5336 83.6621 94.4719 83.605 94.4117 83.5463L94.3932 83.5293C94.3252 83.4629 94.2588 83.3996 94.1925 83.3378C94.1199 83.2683 94.0551 83.2049 93.9856 83.1416C93.9161 83.0767 93.8482 83.0134 93.7803 82.9501C93.7093 82.8852 93.6413 82.8234 93.5719 82.7601C93.5024 82.6968 93.4329 82.635 93.3635 82.5732C93.2925 82.5083 93.2215 82.4466 93.152 82.3863C93.081 82.323 93.013 82.2628 92.942 82.2041C92.871 82.1407 92.8031 82.0836 92.7352 82.0264L92.7228 82.0156C88.5717 78.5018 83.712 76.0212 78.2781 74.6435C72.6496 73.2163 66.6599 73.0464 60.4773 74.1353C41.1667 77.5426 23.9818 92.8491 17.7158 112.221C17.6571 112.399 17.6 112.576 17.5459 112.755C17.4888 112.936 17.4333 113.114 17.3823 113.291C17.3267 113.472 17.2742 113.65 17.2233 113.826C17.1708 114.005 17.1214 114.183 17.072 114.36C17.0226 114.538 16.9763 114.714 16.93 114.89C16.8821 115.068 16.8358 115.242 16.7941 115.418C16.7463 115.599 16.7031 115.773 16.6614 115.95C16.6182 116.129 16.5749 116.303 16.5348 116.479C16.4947 116.655 16.4561 116.83 16.4175 117.004C16.3758 117.184 16.3403 117.357 16.3032 117.531C16.2646 117.709 16.2307 117.882 16.1952 118.056C16.172 118.172 16.1504 118.29 16.1273 118.405L16.0933 118.581C16.0624 118.753 16.03 118.926 16.0007 119.1C15.9698 119.276 15.9405 119.448 15.9127 119.622C15.8833 119.799 15.8556 119.972 15.8293 120.145C15.8031 120.318 15.7784 120.491 15.7537 120.665C15.729 120.84 15.7043 121.011 15.6827 121.184C15.658 121.357 15.6379 121.527 15.6178 121.7C15.5947 121.876 15.5761 122.046 15.5576 122.219C15.5375 122.39 15.5206 122.562 15.5051 122.732C15.4866 122.908 15.4712 123.079 15.4557 123.251C15.4403 123.421 15.4264 123.59 15.414 123.762C15.4017 123.932 15.3893 124.102 15.3801 124.272C15.3677 124.446 15.3569 124.614 15.3492 124.784C15.3384 124.957 15.3291 125.126 15.3245 125.293C15.3152 125.467 15.3091 125.635 15.3044 125.804C15.2967 125.977 15.2936 126.145 15.2905 126.313C15.2844 126.486 15.2828 126.653 15.2828 126.819C15.2797 126.992 15.2782 127.16 15.2782 127.328C15.2782 127.461 15.1933 127.58 15.0667 127.622C15.0343 127.633 15.0019 127.637 14.9694 127.637L14.9725 127.643ZM14.5665 126.267L14.6731 126.411C14.6731 126.375 14.6746 126.34 14.6761 126.303C14.6792 126.136 14.6823 125.961 14.69 125.788C14.6947 125.622 14.7008 125.447 14.7101 125.272C14.7163 125.104 14.724 124.93 14.7363 124.753C14.7441 124.585 14.7549 124.411 14.7672 124.236C14.7765 124.068 14.7888 123.895 14.8027 123.722C14.8151 123.547 14.829 123.374 14.846 123.2C14.8614 123.025 14.8768 122.851 14.8954 122.676C14.9108 122.505 14.9293 122.33 14.9494 122.156C14.9679 121.981 14.988 121.805 15.0111 121.63C15.0297 121.459 15.0513 121.283 15.076 121.108C15.0976 120.935 15.1223 120.761 15.1485 120.586C15.1717 120.412 15.1979 120.236 15.2257 120.06C15.252 119.884 15.2813 119.707 15.3106 119.531C15.3384 119.357 15.3677 119.181 15.4002 119.005C15.4295 118.83 15.4619 118.652 15.4943 118.476L15.5283 118.299C15.5499 118.18 15.5731 118.062 15.5962 117.944C15.6317 117.766 15.6672 117.588 15.7058 117.411C15.7429 117.233 15.7799 117.055 15.8216 116.876C15.8586 116.703 15.8988 116.526 15.9389 116.346C15.9806 116.167 16.0223 115.988 16.067 115.811C16.1087 115.631 16.155 115.452 16.2014 115.273C16.2446 115.097 16.2909 114.918 16.3403 114.737C16.3866 114.559 16.4345 114.38 16.4839 114.201C16.5333 114.02 16.5842 113.841 16.6367 113.66C16.6876 113.481 16.7417 113.301 16.7972 113.12C16.8482 112.942 16.9053 112.76 16.9624 112.578C17.0164 112.397 17.0751 112.215 17.1353 112.034C23.4693 92.4506 40.8471 76.9773 60.3769 73.5314C66.646 72.4255 72.7222 72.6 78.4371 74.0488C83.9621 75.4497 88.9052 77.972 93.1288 81.5476C93.1288 81.5476 93.1412 81.5569 93.1412 81.5584C93.2122 81.6187 93.2832 81.6789 93.3527 81.7392C93.4206 81.7963 93.4931 81.8596 93.5657 81.923C93.6367 81.9832 93.7093 82.0481 93.7818 82.1145C93.8497 82.1747 93.9223 82.238 93.9933 82.3029C94.0643 82.3662 94.1338 82.4311 94.2033 82.4944C94.2403 82.5269 94.2774 82.5609 94.3144 82.5964C94.2295 82.4805 94.1446 82.3662 94.0582 82.2519L94.0427 82.2303C94.0427 82.2303 94.035 82.2195 94.0304 82.2149C93.93 82.0774 93.8312 81.943 93.7278 81.8087C93.6259 81.6681 93.5287 81.5368 93.4314 81.4055C93.4283 81.4024 93.4144 81.3855 93.4129 81.3808C93.3094 81.2387 93.206 81.0966 93.0995 80.9561C93.0964 80.953 93.0949 80.9499 93.0933 80.9468C93.0887 80.9406 93.0825 80.9329 93.0794 80.9267C92.9652 80.7692 92.8479 80.6116 92.7305 80.4572C92.6302 80.3166 92.5329 80.1869 92.4341 80.0556C92.4311 80.051 92.428 80.0463 92.4249 80.0432C92.4249 80.0432 92.4249 80.0432 92.4249 80.0417C92.3045 79.8764 92.1841 79.7142 92.0621 79.5521C91.9525 79.4022 91.846 79.2571 91.7379 79.1134C91.6885 79.047 91.6407 78.9852 91.5913 78.9219L91.5249 78.8292C91.4971 78.7906 91.4709 78.7535 91.4431 78.7149C91.44 78.7103 91.4353 78.7056 91.4323 78.701C91.3257 78.5527 91.2161 78.4045 91.1065 78.2593C91.1004 78.2515 91.0957 78.2454 91.0895 78.2376C90.9645 78.0662 90.8472 77.9056 90.7283 77.748C90.7252 77.7449 90.7144 77.7295 90.7113 77.7249C90.7052 77.7187 90.7052 77.7171 90.699 77.7094C90.611 77.5889 90.5245 77.47 90.435 77.3526L90.4242 77.3403C90.4242 77.3403 90.418 77.331 90.4149 77.3279C90.3115 77.1858 90.2081 77.0437 90.1016 76.9032C90.1016 76.9032 90.0954 76.8954 90.0892 76.8862C89.9765 76.7317 89.8731 76.5911 89.7681 76.4521C89.7619 76.4444 89.7542 76.4336 89.745 76.4197C89.6431 76.2792 89.5381 76.1401 89.4347 76.0011L89.6678 75.7957L89.4223 75.9841C89.4223 75.9841 89.4131 75.9733 89.4084 75.9672C89.3004 75.8173 89.1892 75.666 89.0781 75.5192C88.9623 75.3601 88.8496 75.2072 88.7369 75.0559C84.8791 69.7596 79.598 65.6495 73.4616 63.1643C66.6213 60.3918 58.793 59.669 50.8243 61.0745C50.6082 61.1132 50.3951 61.1518 50.1805 61.1919L50.1651 61.195C50.1373 61.2012 50.1095 61.2058 50.0817 61.212C38.1579 63.5103 26.989 70.2724 18.6173 80.2533C10.2564 90.2172 5.64374 102.259 5.61749 114.167L9.54785 119.482C9.54785 119.482 9.55248 119.488 9.55557 119.493L9.88129 119.933C9.88129 119.933 9.88593 119.939 9.88901 119.942L10.2163 120.384C10.2163 120.384 10.2209 120.389 10.2225 120.392L10.5544 120.841C10.5544 120.841 10.5636 120.853 10.5683 120.86L10.8816 121.283C10.8816 121.283 10.8863 121.289 10.8894 121.292L11.2151 121.732C11.2151 121.732 11.2197 121.739 11.2228 121.742L11.5501 122.183C11.5501 122.183 11.5547 122.19 11.5562 122.191L11.8882 122.641C11.8882 122.641 11.8959 122.653 11.9005 122.659L12.5489 123.535C12.5489 123.535 12.5535 123.541 12.5566 123.544L12.8808 123.983C12.8808 123.983 12.8869 123.99 12.89 123.995L13.2219 124.445C13.2219 124.445 13.2297 124.457 13.2343 124.463L14.2207 125.796C14.2207 125.796 14.2285 125.808 14.2331 125.815L14.5542 126.247C14.5542 126.247 14.5634 126.259 14.5665 126.266V126.267ZM96.5791 84.6321C96.5791 84.6321 96.5806 84.6352 96.5822 84.6367C96.5822 84.6367 96.5806 84.6337 96.5791 84.6321ZM96.2549 84.1965C96.2549 84.1965 96.2549 84.1981 96.2564 84.1996C96.2564 84.1996 96.2564 84.1981 96.2549 84.1965ZM96.2441 84.1796C96.2441 84.1796 96.2487 84.1857 96.2503 84.1873C96.2487 84.1842 96.2456 84.1811 96.2441 84.1796ZM90.2482 76.0722C90.2482 76.0722 90.2513 76.0753 90.2528 76.0768C90.2528 76.0753 90.2498 76.0737 90.2482 76.0722Z" fill="black"/>
</g>
<path id="Vector_6" d="M91.9757 79.2348C91.8815 79.2348 91.7889 79.1916 91.7271 79.1098C91.6793 79.045 91.6314 78.9832 91.582 78.9199L91.5156 78.8273C91.4863 78.7856 91.457 78.7439 91.4261 78.7038C91.3258 78.5664 91.3551 78.375 91.4909 78.2731C91.6268 78.1712 91.8198 78.199 91.9216 78.3348C92.0251 78.4707 92.1254 78.6065 92.2258 78.7455C92.3246 78.8829 92.2952 79.0743 92.1578 79.1746C92.1023 79.2148 92.039 79.2348 91.9757 79.2348Z" fill="black"/>
<g id="Group_6">
<path id="Vector_7" d="M14.9722 127.334L105.881 111.296C105.881 101.999 103.093 93.8438 98.3062 87.4849C98.2568 87.4185 98.2074 87.3536 98.1564 87.2887C98.0962 87.21 98.036 87.1312 97.9743 87.0524C97.9187 86.9798 97.8616 86.9057 97.8044 86.8331C97.7442 86.7574 97.684 86.6817 97.6223 86.6045C97.5652 86.5319 97.5065 86.4593 97.4478 86.3883C97.3907 86.3172 97.3321 86.2477 97.2749 86.1782C97.2163 86.1071 97.1561 86.0346 97.0943 85.9635C97.0357 85.8925 96.9755 85.8214 96.9153 85.7519C96.8535 85.6809 96.7933 85.6098 96.7315 85.5388C96.6698 85.4677 96.6081 85.3967 96.5448 85.3256C96.4846 85.2546 96.4213 85.185 96.3595 85.1155C96.2978 85.046 96.2345 84.9781 96.1712 84.9086C96.1094 84.8375 96.0446 84.7696 95.9813 84.7001C95.918 84.6321 95.8547 84.5657 95.7914 84.4977C95.7281 84.4298 95.6633 84.3633 95.5984 84.2969C95.5336 84.2274 95.4688 84.161 95.4024 84.093C95.3376 84.0266 95.2727 83.9602 95.2079 83.8953C95.1415 83.8289 95.0751 83.761 95.0087 83.6946C94.9424 83.6297 94.876 83.5633 94.8111 83.4984C94.7432 83.432 94.6768 83.3671 94.6089 83.3022C94.541 83.2358 94.4731 83.1694 94.4036 83.1061C94.3341 83.0397 94.2677 82.9748 94.1967 82.9099C94.1273 82.845 94.0593 82.7802 93.9883 82.7168C93.9189 82.6535 93.8509 82.5902 93.7799 82.5269C93.7089 82.4635 93.6394 82.4002 93.5684 82.3384C93.4974 82.2751 93.4264 82.2118 93.3554 82.15C93.2844 82.0882 93.2149 82.0264 93.1424 81.9662C93.0713 81.9029 92.9972 81.8411 92.9247 81.7793C84.6734 74.7933 73.1618 71.5852 60.4259 73.831C40.4917 77.348 23.5523 93.1781 17.4252 112.127C17.3665 112.306 17.3078 112.485 17.2538 112.666C17.1982 112.847 17.1411 113.026 17.0886 113.206C17.0331 113.386 16.9806 113.563 16.9296 113.742C16.8771 113.922 16.8262 114.099 16.7783 114.278C16.7305 114.457 16.6811 114.634 16.6348 114.813C16.5869 114.99 16.5406 115.168 16.4974 115.346C16.4511 115.523 16.4063 115.701 16.3631 115.878C16.3199 116.056 16.2766 116.234 16.2365 116.41C16.1964 116.587 16.1562 116.763 16.1176 116.94C16.0775 117.116 16.0404 117.292 16.0034 117.468C15.9648 117.644 15.9308 117.82 15.8953 117.996C15.8598 118.172 15.8274 118.348 15.7934 118.524C15.761 118.699 15.7286 118.875 15.6993 119.051C15.6684 119.226 15.6391 119.4 15.6113 119.576C15.5819 119.751 15.5542 119.925 15.5264 120.1C15.5001 120.274 15.4739 120.449 15.4507 120.625C15.426 120.798 15.4013 120.971 15.3797 121.145C15.3566 121.318 15.3349 121.491 15.3149 121.666C15.2917 121.839 15.2732 122.012 15.2547 122.186C15.2346 122.358 15.2161 122.531 15.2006 122.704C15.1821 122.877 15.1667 123.05 15.1512 123.223C15.1358 123.394 15.1219 123.566 15.1096 123.739C15.0972 123.91 15.0849 124.082 15.0741 124.253C15.0617 124.424 15.0509 124.596 15.0432 124.767C15.0324 124.939 15.0231 125.11 15.0185 125.28C15.0108 125.452 15.003 125.623 14.9984 125.795C14.9907 125.964 14.9876 126.136 14.9845 126.307C14.9783 126.477 14.9768 126.647 14.9768 126.819C14.9737 126.987 14.9722 127.158 14.9722 127.328V127.334Z" fill="white"/>
<path id="Vector_8" d="M14.9722 127.643C14.8996 127.643 14.8302 127.619 14.7731 127.571C14.7036 127.512 14.6635 127.426 14.6635 127.335C14.6635 127.163 14.6635 126.99 14.6681 126.82C14.6681 126.652 14.6712 126.479 14.6773 126.304C14.6804 126.138 14.6835 125.963 14.6912 125.79C14.6959 125.623 14.702 125.449 14.7113 125.274C14.7175 125.106 14.7252 124.931 14.7376 124.755C14.7453 124.587 14.7561 124.412 14.7684 124.238C14.7777 124.069 14.79 123.896 14.8039 123.723C14.8163 123.549 14.8302 123.376 14.8472 123.201C14.8626 123.027 14.878 122.852 14.8966 122.678C14.912 122.506 14.9305 122.332 14.9506 122.157C14.9691 121.983 14.9892 121.807 15.0123 121.632C15.0309 121.461 15.0525 121.285 15.0772 121.11C15.0988 120.937 15.1235 120.762 15.1497 120.588C15.1729 120.413 15.1991 120.237 15.2269 120.061C15.2532 119.885 15.2825 119.709 15.3118 119.533C15.3396 119.358 15.3689 119.182 15.4014 119.006C15.4307 118.832 15.4631 118.654 15.4955 118.478L15.5295 118.3C15.5511 118.182 15.5743 118.064 15.5974 117.945C15.6329 117.768 15.6684 117.59 15.707 117.412C15.7441 117.235 15.7811 117.057 15.8228 116.878C15.8598 116.705 15.9 116.527 15.9401 116.348C15.9818 116.169 16.0235 115.99 16.0683 115.812C16.1099 115.633 16.1562 115.454 16.2026 115.275C16.2458 115.099 16.2921 114.919 16.3415 114.739C16.3878 114.561 16.4357 114.382 16.4851 114.203C16.5345 114.022 16.5854 113.843 16.6379 113.662C16.6888 113.483 16.7429 113.302 16.7984 113.122C16.8494 112.944 16.9065 112.762 16.9636 112.579C17.0177 112.399 17.0763 112.216 17.1365 112.036C23.4705 92.4523 40.8483 76.9789 60.3781 73.533C66.6472 72.4271 72.7234 72.6017 78.4383 74.0505C83.9633 75.4514 88.9064 77.9736 93.13 81.5493C93.13 81.5493 93.1424 81.5585 93.1424 81.5601C93.2134 81.6203 93.2844 81.6806 93.3539 81.7408C93.4218 81.7979 93.4943 81.8613 93.5669 81.9246C93.6379 81.9848 93.7105 82.0497 93.783 82.1161C93.851 82.1764 93.9235 82.2397 93.9945 82.3046C94.0655 82.3679 94.135 82.4328 94.2045 82.4961C94.2739 82.5594 94.345 82.6243 94.4144 82.6907C94.4839 82.754 94.5534 82.8204 94.6228 82.8884C94.6892 82.9502 94.7602 83.0181 94.8297 83.0861L94.8451 83.1016C94.9069 83.1618 94.9702 83.222 95.0319 83.2823L95.4317 83.6808C95.492 83.741 95.5506 83.8012 95.6108 83.863L95.6278 83.8816C95.6957 83.9511 95.7621 84.0206 95.8285 84.0901C95.8902 84.1534 95.9566 84.2229 96.0215 84.2909L96.2654 84.5519C96.3132 84.6029 96.3611 84.6554 96.4074 84.7079C96.4676 84.7728 96.5309 84.8423 96.5942 84.9118L96.6189 84.9396C96.6745 85.0014 96.73 85.0647 96.7841 85.1265C96.8443 85.1929 96.9076 85.2655 96.9709 85.3381C97.0172 85.3906 97.0635 85.4446 97.1113 85.4987L97.1561 85.5497C97.2163 85.6207 97.2781 85.6933 97.3383 85.7644C97.3985 85.8354 97.4602 85.9096 97.5204 85.9821C97.576 86.0486 97.6331 86.1181 97.6902 86.1876C97.7535 86.2648 97.8122 86.3389 97.8724 86.4131C97.928 86.4795 97.9835 86.5521 98.0407 86.6231L98.0546 86.6401C98.1148 86.7158 98.1719 86.79 98.2274 86.8641C98.2877 86.9413 98.3494 87.0216 98.4112 87.1004C98.4621 87.1653 98.513 87.2317 98.5624 87.2997C103.558 93.9351 106.199 102.232 106.199 111.294C106.199 111.444 106.091 111.572 105.945 111.599L15.0355 127.637C15.017 127.64 15 127.642 14.9815 127.642L14.9722 127.643ZM68.3824 73.4342C65.7935 73.4342 63.1553 73.6705 60.48 74.1416C41.1694 77.5489 23.9845 92.8554 17.7185 112.227C17.6598 112.405 17.6027 112.582 17.5487 112.762C17.4916 112.942 17.436 113.12 17.3851 113.298C17.3295 113.478 17.277 113.656 17.2261 113.832C17.1736 114.011 17.1242 114.189 17.0748 114.366C17.0254 114.544 16.9791 114.72 16.9327 114.896C16.8849 115.074 16.8386 115.248 16.7969 115.424C16.749 115.605 16.7058 115.78 16.6641 115.956C16.6209 116.135 16.5777 116.31 16.5375 116.486C16.4974 116.662 16.4588 116.836 16.4202 117.011C16.3785 117.19 16.343 117.363 16.306 117.537C16.2674 117.715 16.2334 117.888 16.1979 118.063C16.1748 118.178 16.1532 118.296 16.13 118.412L16.096 118.588C16.0652 118.759 16.0327 118.932 16.0034 119.107C15.9725 119.283 15.9432 119.454 15.9154 119.629C15.8861 119.805 15.8583 119.978 15.8321 120.151C15.8058 120.324 15.7811 120.497 15.7564 120.671C15.7317 120.846 15.707 121.017 15.6854 121.19C15.6607 121.363 15.6406 121.533 15.6206 121.706C15.5974 121.882 15.5789 122.052 15.5604 122.225C15.5403 122.397 15.5233 122.568 15.5079 122.738C15.4894 122.914 15.4739 123.085 15.4585 123.257C15.443 123.427 15.4291 123.597 15.4168 123.768C15.4044 123.938 15.3921 124.108 15.3813 124.278C15.3689 124.452 15.3581 124.621 15.3504 124.791C15.3396 124.964 15.3303 125.132 15.3257 125.299C15.3165 125.473 15.3103 125.642 15.3056 125.81C15.2979 125.983 15.2948 126.151 15.2918 126.32C15.2856 126.493 15.284 126.66 15.284 126.825C15.284 126.873 15.284 126.919 15.2825 126.965L105.571 111.036C105.522 102.211 102.927 94.1359 98.0576 87.6703C98.0082 87.6055 97.9619 87.5422 97.9125 87.4788C97.8508 87.3985 97.7906 87.3197 97.7304 87.2425C97.6733 87.1684 97.6177 87.0958 97.5606 87.0232L97.5482 87.0077C97.4926 86.9382 97.4371 86.8687 97.3815 86.7992C97.3228 86.7235 97.2657 86.654 97.2086 86.5845C97.1484 86.5119 97.0928 86.4424 97.0372 86.376C96.977 86.3034 96.9184 86.2324 96.8582 86.1613C96.7995 86.0903 96.7393 86.0192 96.6806 85.9513L96.6374 85.9003C96.5911 85.8462 96.5463 85.7937 96.4985 85.7412C96.4367 85.6686 96.375 85.6006 96.3132 85.5311C96.2576 85.4663 96.2036 85.406 96.1511 85.3473L96.1264 85.3211C96.0662 85.2531 96.0029 85.1852 95.9412 85.1172C95.8933 85.0631 95.8486 85.0153 95.8038 84.9658L95.563 84.7079C95.5012 84.6415 95.4379 84.5751 95.3746 84.5117C95.3067 84.4391 95.2434 84.3727 95.1786 84.3079L95.1616 84.2893C95.1029 84.2306 95.0458 84.1704 94.9872 84.1132L94.5919 83.7194C94.5317 83.6591 94.47 83.602 94.4098 83.5433L94.3928 83.5263C94.3249 83.4599 94.2585 83.3966 94.1921 83.3348C94.1196 83.2653 94.0547 83.2019 93.9853 83.1386C93.9158 83.0738 93.8479 83.0104 93.7799 82.9471C93.7089 82.8822 93.641 82.8204 93.5715 82.7571C93.5021 82.6938 93.4326 82.632 93.3631 82.5702C93.2921 82.5054 93.2211 82.4436 93.1516 82.3833C93.0806 82.32 93.0127 82.2598 92.9417 82.2011C92.8707 82.1377 92.8028 82.0806 92.7348 82.0235L92.7225 82.0126C88.5714 78.4988 83.7117 76.0182 78.2777 74.6405C75.0838 73.8311 71.774 73.4249 68.3793 73.4249L68.3824 73.4342Z" fill="black"/>
</g>
</g>
<g id="Group_7">
<path id="Vector_9" d="M39.2132 56.6647C39.2487 56.762 39.2858 56.8578 39.3243 56.9535C39.3614 57.0524 39.4 57.1466 39.4417 57.2408C39.4803 57.335 39.5204 57.4308 39.5636 57.5235C39.6038 57.6161 39.6454 57.7088 39.6887 57.7999C39.7303 57.8911 39.7736 57.9822 39.8199 58.0718C39.86 58.1629 39.9063 58.251 39.9526 58.3421C39.9974 58.4317 40.0422 58.5197 40.09 58.6077C40.1363 58.6942 40.1827 58.7807 40.2321 58.8672C40.2799 58.9522 40.3278 59.0371 40.3787 59.1221C40.425 59.207 40.476 59.2904 40.5269 59.3738C40.5763 59.4573 40.6273 59.5407 40.6828 59.6225C40.7307 59.7044 40.7832 59.7862 40.8387 59.8666C40.8897 59.9469 40.9437 60.0287 40.9993 60.106C41.0533 60.1863 41.1074 60.2666 41.1645 60.3438C41.2201 60.4226 41.2772 60.4998 41.3327 60.5755C41.3883 60.6527 41.4454 60.7284 41.5026 60.8041C41.5427 60.8566 41.5844 60.9091 41.6261 60.9617L41.677 61.0265C41.7357 61.1022 41.7974 61.1763 41.8592 61.2489C41.9178 61.3231 41.9796 61.3957 42.0413 61.4667C42.1015 61.5378 42.1633 61.6088 42.2266 61.6783C42.2852 61.7478 42.3485 61.8173 42.4118 61.8853C42.4118 61.8853 42.4149 61.8868 42.4149 61.8884C42.4813 61.9594 42.5461 62.0289 42.6125 62.0969C46.2387 65.8749 51.756 67.6897 58.1409 66.6039C61.3272 66.0618 64.4131 64.8493 67.2505 63.1333C75.1823 58.3328 81.1611 49.5875 81.9268 40.4762C82.4363 34.403 80.5359 29.2967 77.0363 25.9172C76.9714 25.8539 76.9051 25.7906 76.8402 25.7303C76.8402 25.7303 76.8402 25.7272 76.8371 25.7272C76.7661 25.6639 76.6982 25.599 76.6272 25.5388C76.5577 25.4724 76.4852 25.4106 76.4157 25.3504C76.3431 25.287 76.2706 25.2268 76.1996 25.1666C76.127 25.1079 76.0545 25.0476 75.9835 24.992C75.9078 24.9318 75.8337 24.8731 75.7596 24.816C75.6855 24.7573 75.6083 24.7001 75.5327 24.6445C75.4586 24.5889 75.3829 24.5333 75.3073 24.4808C75.2301 24.4252 75.1514 24.3696 75.0726 24.3171C74.9939 24.263 74.9136 24.2105 74.8349 24.158C74.7562 24.1055 74.6744 24.0514 74.5941 24.002C74.5138 23.9495 74.432 23.9 74.3517 23.8506C74.2684 23.8012 74.185 23.7502 74.1016 23.7039C74.0167 23.6514 73.9334 23.605 73.8485 23.5587C73.762 23.5093 73.6771 23.4629 73.5907 23.4181C73.5058 23.3718 73.4193 23.3255 73.3313 23.2838C73.2449 23.239 73.1569 23.1942 73.0689 23.1525C72.9793 23.1077 72.8913 23.066 72.7987 23.0258C72.7076 22.9826 72.6166 22.9409 72.5255 22.9022C72.4329 22.8605 72.3418 22.8219 72.2492 22.7849C72.1534 22.7432 72.0608 22.7061 71.9666 22.6706C71.8725 22.632 71.7768 22.5949 71.6811 22.5624C68.8221 21.5029 65.5061 21.1971 61.9138 21.8072C49.8156 23.8676 39.1669 35.5645 38.1279 47.9349C37.8578 51.1491 38.2638 54.0961 39.2271 56.6554L39.2132 56.6647Z" fill="white"/>
<path id="Vector_10" d="M54.5827 67.2249C49.7755 67.2249 45.4561 65.5151 42.3856 62.3179C42.3223 62.253 42.2606 62.1882 42.1988 62.1202L42.188 62.1094C42.188 62.1094 42.1834 62.1047 42.1818 62.1017C42.1139 62.0291 42.0475 61.9549 41.9858 61.8823C41.9271 61.8175 41.8623 61.7449 41.8005 61.6707C41.7372 61.5981 41.6724 61.5224 41.6106 61.4452C41.552 61.3773 41.4871 61.2985 41.4254 61.2197L41.376 61.1564C41.3343 61.1039 41.2926 61.0498 41.251 60.9958C41.1907 60.917 41.1321 60.8382 41.075 60.7594C41.0148 60.6776 40.9592 60.6019 40.9036 60.5247C40.8465 60.4474 40.7909 60.364 40.7353 60.2806C40.6813 60.2034 40.6242 60.1185 40.5717 60.0335C40.5161 59.9516 40.4621 59.8682 40.4158 59.7879C40.3587 59.703 40.3077 59.618 40.2568 59.5331L40.2383 59.5006C40.192 59.4234 40.1472 59.3477 40.104 59.2705C40.0669 59.2087 40.0252 59.1361 39.9851 59.0635L39.9604 59.0187C39.9203 58.9477 39.8801 58.8751 39.8415 58.8025L39.8153 58.7546C39.769 58.6681 39.7242 58.5801 39.6794 58.4905L39.6624 58.458C39.6192 58.3731 39.5775 58.2897 39.539 58.2047C39.4926 58.1136 39.4479 58.0194 39.4062 57.9283C39.363 57.8387 39.3197 57.7414 39.2796 57.6456C39.2379 57.556 39.1962 57.4556 39.1561 57.3568C39.116 57.2657 39.0743 57.1653 39.0357 57.0602C38.9986 56.9691 38.9616 56.8687 38.9245 56.7699C37.9149 54.087 37.5398 51.1075 37.8069 47.9165C38.8551 35.4349 49.6396 23.5897 61.8475 21.5107C65.4166 20.9037 68.7557 21.1632 71.7737 22.2799C71.8663 22.3108 71.9698 22.351 72.0701 22.3911C72.1596 22.4251 72.2584 22.4637 72.3588 22.507C72.4468 22.5425 72.5425 22.5827 72.6382 22.6259C72.7262 22.663 72.8219 22.7062 72.9176 22.751C73.0056 22.7896 73.0998 22.8329 73.194 22.8792C73.2789 22.9194 73.3715 22.9657 73.461 23.012C73.5444 23.0507 73.637 23.1001 73.7265 23.1495C73.8099 23.1928 73.901 23.2406 73.9905 23.2931C74.0723 23.3379 74.1588 23.3843 74.2452 23.4383C74.3101 23.4739 74.3749 23.5125 74.4397 23.5511L74.4969 23.5851C74.5833 23.6376 74.6682 23.6886 74.7516 23.7426C74.8087 23.7766 74.8735 23.8198 74.9399 23.8631L74.9924 23.8971C75.0742 23.9511 75.156 24.0052 75.2363 24.0592C75.3166 24.1133 75.3969 24.1705 75.4771 24.2276C75.5543 24.2817 75.6315 24.3388 75.7087 24.396C75.7843 24.45 75.8646 24.5103 75.9418 24.572C76.0159 24.6292 76.09 24.6879 76.1672 24.7497C76.215 24.7867 76.2629 24.8269 76.3123 24.867L76.4651 24.9937C76.5145 25.0354 76.5624 25.0756 76.6118 25.1188L76.6442 25.1466C76.706 25.2007 76.7677 25.2547 76.8279 25.3103C76.8742 25.3505 76.919 25.3907 76.9638 25.4308L77.0317 25.4926C77.0409 25.5003 77.0487 25.508 77.0564 25.5158C77.115 25.5698 77.1814 25.6347 77.2463 25.698C80.9605 29.2845 82.7296 34.5437 82.2294 40.5041C81.4807 49.4162 75.6624 58.404 67.4049 63.3991C64.4425 65.1908 61.3411 66.3724 58.1873 66.9099C56.9631 67.1184 55.7574 67.2203 54.5811 67.2203L54.5827 67.2249ZM42.6357 61.6846L42.6496 61.7001C42.7098 61.7634 42.7684 61.8267 42.8287 61.8901C46.5074 65.7221 52.0679 67.3315 58.0854 66.3075C61.1621 65.7839 64.1893 64.6301 67.0869 62.877C75.1807 57.9792 80.8833 49.1799 81.615 40.4578C82.0998 34.6858 80.3955 29.6027 76.8171 26.1459C76.7523 26.0842 76.689 26.0224 76.6241 25.9621C76.6241 25.9621 76.6226 25.9606 76.621 25.9591L76.5469 25.8911C76.5053 25.8525 76.4636 25.8154 76.4219 25.7783C76.4173 25.7752 76.4126 25.7706 76.4096 25.766C76.354 25.7135 76.2984 25.664 76.2413 25.6146L76.2073 25.5853C76.161 25.5451 76.1147 25.5065 76.0684 25.4663L75.9233 25.3459C75.877 25.3088 75.8307 25.2702 75.7859 25.2347C75.7102 25.1744 75.6377 25.1173 75.5636 25.0586C75.491 25.0014 75.4185 24.9474 75.3444 24.8949C75.2687 24.8377 75.1962 24.7852 75.1221 24.7327C75.0449 24.6771 74.9692 24.623 74.8921 24.572C74.8133 24.518 74.7346 24.467 74.6574 24.416L74.6034 24.3805C74.5447 24.3419 74.4861 24.3033 74.4259 24.2662C74.3394 24.2091 74.2607 24.1627 74.1835 24.1149L74.1264 24.0809C74.0662 24.0453 74.006 24.0083 73.9442 23.9758C73.9396 23.9728 73.9349 23.9697 73.9303 23.9666C73.85 23.9171 73.7713 23.8739 73.691 23.8307C73.603 23.7797 73.5212 23.7364 73.4379 23.6932C73.353 23.6469 73.2711 23.6036 73.1878 23.565C73.0951 23.5171 73.0087 23.4739 72.9253 23.4337C72.8358 23.3889 72.7509 23.3503 72.6645 23.3117C72.5687 23.2669 72.4807 23.2267 72.3928 23.1897C72.2986 23.1464 72.2106 23.1109 72.1226 23.0754C72.0238 23.0321 71.9343 22.9981 71.8463 22.9642C71.7506 22.9255 71.6595 22.89 71.5699 22.8607C68.6476 21.7779 65.4151 21.5293 61.954 22.1177C50.0055 24.1519 39.451 35.7484 38.4244 47.9659C38.1635 51.0658 38.5263 53.9541 39.505 56.5521C39.505 56.5521 39.505 56.5536 39.505 56.5552C39.539 56.6494 39.5745 56.7421 39.6115 56.8347C39.6486 56.9336 39.6856 57.0247 39.7242 57.1127C39.7643 57.21 39.8014 57.3027 39.8431 57.3908C39.8847 57.4865 39.9249 57.5777 39.9666 57.6657C40.0082 57.7553 40.0484 57.8433 40.0932 57.9283C40.0962 57.9344 40.0993 57.9391 40.1009 57.9453C40.1348 58.0225 40.1734 58.0982 40.2136 58.1754L40.2259 58.2001C40.2738 58.2943 40.3154 58.3777 40.3587 58.4596L40.3849 58.5106C40.4204 58.5785 40.4575 58.6465 40.4961 58.7144L40.5223 58.7608C40.5609 58.8287 40.598 58.8967 40.6381 58.9631C40.6829 59.0434 40.723 59.1114 40.7647 59.1809L40.7847 59.2149C40.8326 59.2952 40.8805 59.374 40.9314 59.4512C40.9345 59.4558 40.9376 59.462 40.9407 59.4666C40.9854 59.5423 41.0333 59.618 41.0842 59.6937C41.1383 59.7771 41.1892 59.8543 41.2401 59.9285C41.2957 60.0119 41.3482 60.0876 41.4022 60.1632C41.4563 60.2405 41.5103 60.3131 41.5628 60.3841C41.6245 60.4706 41.6801 60.5432 41.7372 60.6189C41.7758 60.6699 41.816 60.7193 41.8561 60.7702L41.9086 60.8367C41.9657 60.9093 42.0228 60.9788 42.083 61.0498C42.1463 61.1286 42.2034 61.1966 42.2636 61.2661C42.3239 61.3371 42.3825 61.4051 42.4458 61.473C42.5076 61.5456 42.5662 61.6105 42.6264 61.6738C42.628 61.6754 42.6311 61.6785 42.6326 61.68L42.6357 61.6846Z" fill="black"/>
</g>
</g>
<g id="Group_8">
<g id="Group_9">
<path id="Vector_11" d="M105.877 128.612C104.005 131.789 102.132 134.965 100.26 138.142C99.798 138.565 98.8239 139.337 97.3913 139.598C96.2181 139.811 95.2918 139.581 94.449 139.373C93.887 139.234 92.6567 138.874 91.3275 137.973C89.7051 136.874 88.7618 135.53 88.2663 134.68C87.3092 132.861 86.3536 131.043 85.3965 129.223C87.2196 126.184 89.0428 123.144 90.8644 120.106C91.8462 121.956 92.8265 123.808 93.8083 125.659C94.4629 126.737 95.5126 128.059 97.1443 129.071C97.9038 129.542 101.038 131.485 103.875 130.226C104.246 130.061 105.247 129.616 105.879 128.613L105.877 128.612Z" fill="#FF7E88"/>
<path id="Vector_12" d="M96.4528 139.994C95.6655 139.994 94.9909 139.827 94.3765 139.674C93.2527 139.396 92.1381 138.895 91.1548 138.23C89.8827 137.368 88.7928 136.194 87.9994 134.836C87.0361 133.006 86.0789 131.187 85.1234 129.369C85.0724 129.273 85.0771 129.159 85.1326 129.066L90.6005 119.947C90.6577 119.851 90.7626 119.788 90.8738 119.797C90.9849 119.8 91.0868 119.862 91.1378 119.961L94.077 125.506C94.9184 126.89 96.0052 128 97.3065 128.808C100.409 130.733 102.523 130.487 103.749 129.943C104.101 129.787 105.034 129.372 105.615 128.448C105.704 128.304 105.893 128.261 106.036 128.349C106.18 128.437 106.228 128.624 106.141 128.769L100.524 138.299C100.508 138.326 100.49 138.349 100.467 138.37C99.8583 138.929 98.8395 139.649 97.4439 139.904C97.092 139.967 96.7616 139.994 96.4498 139.994H96.4528ZM85.7501 129.233C86.6795 131.001 87.6088 132.768 88.5381 134.535C89.2776 135.803 90.3042 136.908 91.499 137.717C92.4237 138.343 93.4688 138.812 94.5216 139.073C95.3614 139.282 96.2275 139.496 97.3343 139.294C98.5601 139.07 99.4631 138.443 100.016 137.944L104.565 130.226C104.329 130.357 104.128 130.447 103.999 130.505C102.637 131.111 100.314 131.397 96.9808 129.332C95.593 128.471 94.4367 127.288 93.5429 125.818C93.5398 125.813 93.5367 125.807 93.5336 125.802L90.846 120.733L85.7486 129.233H85.7501Z" fill="black"/>
</g>
<g id="Group_10">
<path id="Vector_13" d="M114.693 117.624C112.887 120.654 111.081 123.685 109.275 126.715C108.315 126.836 107.353 126.956 106.393 127.076C106.495 125.932 106.022 125.004 105.908 124.787C104.881 122.812 103.855 120.835 102.83 118.859C106.785 118.447 110.74 118.036 114.695 117.624H114.693Z" fill="#FF7E88"/>
<path id="Vector_14" d="M106.391 127.387C106.313 127.387 106.236 127.356 106.177 127.301C106.109 127.236 106.075 127.145 106.084 127.05C106.172 126.068 105.799 125.243 105.633 124.934C104.783 123.299 103.935 121.663 103.086 120.029L102.554 119.003C102.506 118.912 102.507 118.804 102.555 118.714C102.603 118.625 102.694 118.565 102.795 118.554L114.66 117.318C114.775 117.306 114.89 117.361 114.951 117.459C115.015 117.558 115.016 117.683 114.956 117.783C113.15 120.813 111.344 123.844 109.538 126.874C109.488 126.956 109.405 127.01 109.311 127.023L106.428 127.384C106.416 127.386 106.402 127.387 106.39 127.387H106.391ZM103.312 119.121L103.634 119.743C104.483 121.377 105.331 123.011 106.18 124.645C106.348 124.961 106.706 125.75 106.714 126.724L109.087 126.426C110.763 123.615 112.438 120.804 114.113 117.993L103.312 119.119V119.121Z" fill="black"/>
</g>
<g id="Group_11">
<path id="Vector_15" d="M82.3019 91.8574C82.1398 93.2815 81.9777 94.704 81.8156 96.1281C81.7955 96.3073 81.7739 96.4926 81.7523 96.6826C81.7369 96.8201 81.7199 96.9576 81.7044 97.095C81.689 97.2294 81.6736 97.3669 81.6581 97.5074C81.6257 97.7947 81.5933 98.082 81.5593 98.3693C81.5424 98.5176 81.5254 98.6674 81.5084 98.8203C81.5007 98.896 81.4914 98.9732 81.4821 99.0489C81.4636 99.2033 81.4466 99.3609 81.4281 99.5184C81.3818 99.9277 81.3355 100.337 81.2876 100.746C81.2583 101 81.229 101.258 81.1996 101.519C81.1796 101.693 81.1595 101.869 81.1394 102.048C80.4077 108.472 79.6744 114.898 78.9427 121.321C77.1304 124.343 75.318 127.364 73.5072 130.385C74.6033 120.577 75.7009 110.767 76.7969 100.959C80.1484 95.4176 82.3019 91.8574 82.3034 91.8574H82.3019Z" fill="#FF7E88"/>
<path id="Vector_16" d="M73.5071 130.695C73.4747 130.695 73.4407 130.691 73.4083 130.678C73.2709 130.632 73.1845 130.496 73.1999 130.351L76.4896 100.926C76.4942 100.881 76.5097 100.838 76.5328 100.801L81.3308 92.8677C81.8381 92.0285 82.1242 91.5961 82.1891 91.5703C82.2894 91.5302 82.4052 91.5456 82.4916 91.612C82.5781 91.6784 82.6229 91.785 82.6105 91.8931L82.1042 96.3275C82.0903 96.4542 82.0748 96.5839 82.0594 96.7168L81.8109 98.8884C81.8031 98.9548 81.797 99.0213 81.7877 99.0861C81.7707 99.239 81.7522 99.395 81.7337 99.5526L81.7074 99.7796C81.6688 100.113 81.6318 100.448 81.5932 100.782L79.2483 121.357C79.2436 121.4 79.2297 121.444 79.2066 121.481L78.9966 121.831C77.2537 124.737 75.5124 127.64 73.7711 130.544C73.714 130.64 73.6121 130.694 73.5071 130.694V130.695ZM77.0963 101.063L73.9718 129.012C75.4707 126.513 76.9697 124.014 78.4687 121.515L78.6447 121.221L80.9819 100.713C81.0205 100.377 81.0591 100.044 81.0961 99.7101L81.1224 99.4846C81.1393 99.3271 81.1579 99.1695 81.1764 99.0151C81.1841 98.9502 81.1918 98.8853 81.198 98.822L81.4465 96.6488C81.4604 96.5175 81.4759 96.3862 81.4913 96.258L81.8371 93.2276C81.3771 93.9875 80.7133 95.0857 79.8858 96.4527L77.0963 101.063Z" fill="black"/>
</g>
<g id="Group_12">
<path id="Vector_17" d="M90.8646 120.104C89.0415 123.144 87.2183 126.184 85.3967 129.222C81.4339 129.609 77.4712 129.997 73.5068 130.385C75.3192 127.364 77.13 124.343 78.9423 121.321C82.9159 120.915 86.8895 120.51 90.8646 120.104Z" fill="#FF7E88"/>
<path id="Vector_18" d="M73.5068 130.696C73.4018 130.696 73.303 130.641 73.2459 130.552C73.1842 130.453 73.1826 130.328 73.2428 130.228C74.9842 127.324 76.727 124.418 78.4684 121.515L78.6783 121.164C78.7277 121.081 78.8142 121.025 78.9114 121.016L90.8337 119.799C90.9495 119.785 91.0622 119.842 91.1255 119.941C91.1888 120.04 91.1903 120.165 91.1301 120.265L85.6622 129.384C85.6112 129.468 85.5248 129.523 85.4275 129.532L73.5377 130.696C73.5269 130.696 73.5176 130.696 73.5083 130.696H73.5068ZM79.1275 121.614L78.9963 121.831C77.3584 124.561 75.7221 127.29 74.0857 130.019L85.2099 128.932L90.281 120.475L79.126 121.614H79.1275Z" fill="black"/>
</g>
<g id="Group_13">
<path id="Vector_19" d="M105.907 124.789C106.023 125.005 106.494 125.933 106.392 127.078C106.369 127.353 106.31 127.642 106.207 127.934C106.119 128.181 106.009 128.403 105.882 128.604C105.882 128.609 105.879 128.61 105.878 128.613C105.246 129.616 104.246 130.06 103.874 130.226C101.037 131.484 97.9044 129.541 97.1434 129.07C95.5116 128.059 94.4619 126.737 93.8073 125.658C92.8255 123.808 91.8453 121.956 90.8634 120.106C86.8899 120.512 82.9147 120.917 78.9412 121.323C79.6729 114.899 80.4062 108.474 81.1379 102.05C81.158 101.874 81.178 101.696 81.1981 101.52C81.2274 101.262 81.2568 101.004 81.2861 100.748C81.334 100.338 81.3803 99.9292 81.4266 99.5199C81.4451 99.3639 81.4636 99.2063 81.4806 99.0503C81.4899 98.9731 81.4976 98.8974 81.5069 98.8217C81.5238 98.6719 81.5424 98.5206 81.5578 98.3707C81.5902 98.0835 81.6226 97.7962 81.6566 97.5089C81.672 97.3714 81.6875 97.2339 81.7029 97.0965C81.7183 96.959 81.7353 96.8215 81.7508 96.6841C81.7708 96.5003 81.7924 96.3149 81.8141 96.1296C81.9761 94.7055 82.1382 93.283 82.3003 91.8589C93.0972 100.448 103.894 109.036 114.693 117.625C110.738 118.038 106.782 118.448 102.827 118.861C103.852 120.836 104.879 122.813 105.906 124.789H105.907Z" fill="#FF444F"/>
<path id="Vector_20" d="M101.83 130.95C100.558 130.95 98.9449 130.55 96.9813 129.333C95.5935 128.473 94.4372 127.29 93.5434 125.819C93.5403 125.815 93.5372 125.808 93.5341 125.804L90.6875 120.435L78.9721 121.63C78.8779 121.638 78.7868 121.607 78.7205 121.541C78.6556 121.474 78.6232 121.382 78.634 121.289L80.8307 102.016C80.8462 101.882 80.8616 101.747 80.8771 101.615L80.9789 100.714C81.0175 100.38 81.0561 100.045 81.0932 99.7116L81.1256 99.4213C81.141 99.2869 81.1565 99.151 81.1719 99.0166C81.1796 98.9502 81.1873 98.8853 81.1935 98.822L81.1966 98.788C81.2151 98.6366 81.2321 98.4853 81.2491 98.337L81.9916 91.8251C82.004 91.7139 82.0765 91.6182 82.18 91.5749C82.2834 91.5317 82.4023 91.5487 82.4903 91.6182C93.2871 100.207 104.084 108.795 114.882 117.384C114.981 117.463 115.021 117.593 114.987 117.713C114.952 117.834 114.849 117.92 114.723 117.934L103.309 119.124L103.632 119.746C104.479 121.38 105.328 123.014 106.177 124.647C106.369 125.005 106.799 125.961 106.698 127.107C106.67 127.424 106.602 127.738 106.495 128.039C106.406 128.294 106.287 128.539 106.143 128.766C106.14 128.771 106.139 128.774 106.136 128.779C105.455 129.861 104.396 130.332 103.996 130.509C103.437 130.757 102.715 130.952 101.827 130.952L101.83 130.95ZM94.0775 125.506C94.9189 126.89 96.0057 128 97.307 128.808C100.41 130.733 102.523 130.487 103.749 129.943C104.101 129.787 105.033 129.373 105.614 128.451C105.615 128.447 105.619 128.443 105.62 128.44C105.74 128.25 105.839 128.047 105.913 127.833C106.003 127.582 106.06 127.319 106.082 127.053C106.17 126.071 105.796 125.245 105.631 124.936C105.631 124.936 105.631 124.934 105.631 124.933C104.782 123.299 103.933 121.664 103.085 120.03L102.553 119.005C102.505 118.914 102.506 118.805 102.554 118.716C102.602 118.626 102.693 118.566 102.793 118.555L113.907 117.397C103.451 109.081 92.9985 100.765 82.5427 92.4476L81.8635 98.4049C81.8465 98.5548 81.8295 98.7061 81.8126 98.856L81.8095 98.8884C81.8017 98.9548 81.7956 99.0212 81.7863 99.0861C81.7724 99.2189 81.7554 99.3549 81.74 99.4908L81.7076 99.7796C81.669 100.113 81.6319 100.448 81.5933 100.782L81.4915 101.681C81.476 101.815 81.4606 101.95 81.4451 102.084L79.2916 120.976L90.8311 119.797C90.9546 119.783 91.0765 119.848 91.1352 119.959L94.0745 125.504L94.0775 125.506Z" fill="black"/>
</g>
</g>
</g>
</g>
</g>
</g>
</svg>
