<svg width="130" height="80" viewBox="0 0 130 80" fill="none" xmlns="http://www.w3.org/2000/svg">
<g id="illustration / deriv / light / proof-of-age-placeholder-kyc">
<g id="Vector">
<path fill-rule="evenodd" clip-rule="evenodd" d="M8.72463 1H121.276C125.542 1 129 3.91015 129 7.5V15.8571H124H122.915H1.00049V7.5C1.00049 3.91015 4.4587 1 8.72463 1Z" fill="#84ABAE"/>
<path d="M119.78 79.0003C124.873 79.0003 129.001 74.8723 129.001 69.78L129 15.8571H127.916L127.916 69.78C127.916 74.2732 124.274 77.9155 119.78 77.9155H10.2212C5.72799 77.9155 2.08557 74.2732 2.08557 69.78V15.8571H1.00049L1.00082 69.78C1.00082 74.8723 5.12891 79.0003 10.2212 79.0003H119.78Z" fill="#F2F2F2"/>
<path d="M51.984 46.501V63.2897C51.984 64.1884 52.7125 64.9168 53.6111 64.9168H72.0002V46.501H51.984Z" fill="#84ABAE"/>
<path d="M94.8303 45.4177H114.898L114.899 28.6301C114.899 27.7314 114.171 27.003 113.272 27.003H94.831L94.8303 45.4177Z" fill="#84ABAE"/>
<path fill-rule="evenodd" clip-rule="evenodd" d="M50.8992 28.6301C50.8992 27.1325 52.1134 25.9182 53.6111 25.9182H113.272C114.77 25.9182 115.984 27.1326 115.984 28.6301V63.2897C115.984 64.7873 114.77 66.0016 113.272 66.0016H53.6111C52.1134 66.0016 50.8992 64.7875 50.8992 63.2897V28.6301ZM93.7463 27.003H73.0002V45.4177H93.7463V27.003ZM51.984 28.6301C51.984 27.7315 52.7125 27.003 53.6111 27.003H72.0002V45.4177H51.984V28.6301ZM73.0002 64.9168H93.7463V46.501H73.0002V64.9168ZM114.899 63.2897C114.899 64.1885 114.171 64.9168 113.272 64.9168H94.831V46.501H114.899V63.2897Z" fill="#F2F2F2"/>
<path d="M42.2212 25.9177H18.3568C15.9604 25.9177 14.0178 27.8603 14.0178 30.2567V61.662C14.0178 64.0584 15.9604 66.001 18.3568 66.001H42.2212C44.6175 66.001 46.5602 64.0584 46.5602 61.662V30.2567C46.5602 27.8603 44.6175 25.9177 42.2212 25.9177Z" fill="white"/>
<path d="M42.2212 25.9177H18.3568C15.9604 25.9177 14.0178 27.8603 14.0178 30.2567V61.662C14.0178 64.0584 15.9604 66.001 18.3568 66.001H42.2212C44.6175 66.001 46.5602 64.0584 46.5602 61.662V30.2567C46.5602 27.8603 44.6175 25.9177 42.2212 25.9177Z" fill="#F2F2F2"/>
<path fill-rule="evenodd" clip-rule="evenodd" d="M23.7806 53.5427H36.7975C39.1939 53.5427 41.1365 55.4828 41.1365 57.876V62.2093H19.4416V57.876C19.4416 55.4828 21.3842 53.5427 23.7806 53.5427Z" fill="#84ABAE"/>
<path fill-rule="evenodd" clip-rule="evenodd" d="M25.4084 53.5427L26.4931 57.876L29.205 55.7093L28.6626 53.5427H25.4084Z" fill="white"/>
<path fill-rule="evenodd" clip-rule="evenodd" d="M35.1699 53.5427L34.0851 57.876L31.3732 55.7093L31.9156 53.5427H35.1699Z" fill="white"/>
<path d="M37.3397 44.3252C37.3397 47.1395 35.6908 49.5688 33.3064 50.6995L33.5431 53.5427L30.6722 56.4099C30.4604 56.6214 30.1174 56.6214 29.9056 56.4099L27.0347 53.5427L27.2718 50.6997C24.8871 49.569 23.2381 47.1397 23.2381 44.3252V43.251H22.1533C21.5542 43.251 21.0686 42.766 21.0686 42.1677V40.5427C21.0686 39.9444 21.5542 39.4593 22.1533 39.4593H23.2381V37.8435C23.2381 33.9494 26.3948 30.7927 30.2889 30.7927C34.183 30.7927 37.3397 33.9494 37.3397 37.8435V39.4593H38.4245C39.0236 39.4593 39.5092 39.9444 39.5092 40.5427V42.1677C39.5092 42.766 39.0236 43.251 38.4245 43.251H37.3397V44.3252Z" fill="#C7E5E5"/>
<path fill-rule="evenodd" clip-rule="evenodd" d="M35.9835 32.4168C37.9722 34.5835 38.4241 37.2918 37.3394 40.5418V41.8956C37.3394 42.0454 37.218 42.1668 37.0682 42.1668C36.9184 42.1668 36.797 42.0454 36.797 41.8956V39.9573C36.0015 39.1192 35.6434 38.7792 34.6275 36.7501C32.7446 37.8335 30.6655 38.3751 28.3902 38.3751C27.6671 38.3751 26.4919 38.1946 24.8648 37.8335C24.4574 38.8099 24.096 39.438 23.7804 39.7177L23.7801 41.8956C23.7801 42.0454 23.6587 42.1668 23.5089 42.1668C23.3591 42.1668 23.2377 42.0454 23.2377 41.8956L23.237 39.8305C23.0858 39.7363 22.9505 39.5219 22.8309 39.1876C22.1529 37.2918 22.4241 33.2293 24.8648 31.3335C27.3055 29.4376 33.0004 29.1668 35.9835 32.4168Z" fill="#84ABAE"/>
<path fill-rule="evenodd" clip-rule="evenodd" d="M127.916 15.8571H124L124 65.9873C124 71.0795 121.093 74 116 74H14.034C8.94179 74 6.00024 71.0735 6.00024 65.9813V15.8571H7.08499V65.9813C7.08499 70.4744 9.54089 72.9153 14.034 72.9153H116C120.494 72.9153 122.915 70.4805 122.915 65.9873L122.915 15.8571H2.08557V69.78C2.08557 74.2732 5.72799 77.9155 10.2212 77.9155H119.78C124.274 77.9155 127.916 74.2732 127.916 69.78L127.916 15.8571ZM50.8992 28.6301C50.8992 27.1325 52.1134 25.9182 53.6111 25.9182H72.0002H73.0002H113.272C114.77 25.9182 115.984 27.1326 115.984 28.6301V63.2897C115.984 64.7873 114.77 66.0016 113.272 66.0016H73.0002H72.0002H53.6111C52.1134 66.0016 50.8992 64.7875 50.8992 63.2897V28.6301ZM18.3568 25.9177H42.2212C44.6175 25.9177 46.5602 27.8603 46.5602 30.2567V61.662C46.5602 64.0584 44.6175 66.001 42.2212 66.001H18.3568C15.9604 66.001 14.0178 64.0584 14.0178 61.662V30.2567C14.0178 27.8603 15.9604 25.9177 18.3568 25.9177Z" fill="white"/>
<path d="M51.984 28.6301C51.984 27.7315 52.7125 27.003 53.6111 27.003H72.0002V45.4177H51.984V28.6301Z" fill="white"/>
<path d="M73.0002 27.003H93.7463V45.4177H73.0002V27.003Z" fill="white"/>
<path d="M93.7463 64.9168H73.0002V46.501H93.7463V64.9168Z" fill="white"/>
<path d="M114.899 63.2897C114.899 64.1885 114.171 64.9168 113.272 64.9168H94.831V46.501H114.899V63.2897Z" fill="white"/>
</g>
</g>
</svg>
