<svg width="140" height="100" viewBox="0 0 140 100" fill="none" xmlns="http://www.w3.org/2000/svg">
<g id="illustration / deriv / light / upgrade">
<g id="upgrade">
<g id="jigsaw">
<g id="Group">
<g id="Group_2">
<path id="Vector" d="M85.057 61.556C87.7651 61.5414 90.4723 61.5241 93.1787 61.5086C92.9231 61.4028 92.75 61.1557 92.664 61.0343C92.4479 60.7253 92.4143 60.4077 92.4057 60.3405C92.3222 59.6717 91.8608 57.2236 91.2083 53.8044C91.1248 53.3835 90.9518 52.7551 90.555 52.0837C90.3837 51.7945 90.1934 51.4725 89.8672 51.1678C89.157 50.5058 88.0466 50.1572 87.0154 50.3698C86.0831 50.5601 85.515 51.1463 85.0751 51.6102C82.8869 53.9267 83.3647 57.3243 83.4198 57.6815C83.4422 57.827 83.5549 58.5277 83.8872 59.4005C84.2298 60.3018 84.6662 61.0206 85.0562 61.5551L85.057 61.556Z" fill="#EBECEE"/>
<path id="Vector_2" d="M85.0566 61.7289C85.0015 61.7289 84.9499 61.7031 84.9172 61.6583C84.4239 60.9817 84.0228 60.2432 83.7267 59.4641C83.4004 58.6076 83.2791 57.9044 83.2498 57.7098C83.1895 57.3225 82.7247 53.85 84.9499 51.4948C85.3846 51.036 85.9803 50.4076 86.9805 50.2036C88.0255 49.9884 89.2049 50.3181 89.9839 51.0446C90.3273 51.3657 90.5262 51.7005 90.7009 51.9958C91.0237 52.5424 91.2501 53.1389 91.3767 53.7725C92.0756 57.4335 92.4966 59.6785 92.5766 60.3206V60.3301C92.6076 60.56 92.6842 60.764 92.8047 60.937C92.8865 61.0523 93.0363 61.2641 93.2446 61.351C93.3204 61.382 93.3634 61.4629 93.347 61.543C93.3307 61.623 93.261 61.6816 93.1792 61.6816L89.9176 61.7005C88.2976 61.71 86.6775 61.7195 85.0566 61.7289ZM87.6347 50.4825C87.4376 50.4825 87.2422 50.5014 87.0511 50.541C86.1567 50.7235 85.6041 51.3063 85.2012 51.7315C83.0888 53.967 83.5339 57.2863 83.5907 57.6573C83.6191 57.8441 83.7353 58.5173 84.0495 59.3419C84.3249 60.0658 84.6925 60.7528 85.1453 61.3846C86.7361 61.376 88.3268 61.3665 89.9167 61.3571L92.6825 61.3407C92.6145 61.2632 92.5628 61.1892 92.5267 61.1375C92.3709 60.9155 92.2745 60.6598 92.2375 60.374V60.3645C92.1488 59.6639 91.6203 56.8783 91.0401 53.8379C90.9213 53.2431 90.7087 52.6827 90.4074 52.1731C90.2344 51.8813 90.0579 51.5826 89.7506 51.296C89.1928 50.776 88.4069 50.4825 87.6347 50.4825Z" fill="black"/>
</g>
<g id="Group_3">
<path id="Vector_3" d="M60.7616 78.8838C66.9129 78.895 73.0651 78.9045 79.2173 78.9165C76.8475 74.1778 74.4777 69.4374 72.107 64.6986C72.0588 64.5574 71.971 64.3474 71.8049 64.1331C71.6688 63.9583 71.5621 63.8197 71.371 63.7466C71.0207 63.6123 70.666 63.8128 70.623 63.8395C70.3535 63.9971 70.252 64.2433 70.023 64.8897C69.819 65.463 69.7165 65.7497 69.4841 66.4753C69.3851 66.7869 69.2336 67.2371 69.0313 67.7846C68.8592 68.2735 68.5923 68.9811 68.217 69.8152C67.3803 71.6643 66.9723 71.9931 66.7795 72.1265C65.8507 72.7704 64.8134 72.6602 64.6438 72.6395C62.3515 72.6395 60.0592 72.6395 57.7668 72.6395C58.7637 74.721 59.7622 76.8015 60.7616 78.8821V78.8838Z" fill="#CED0D6"/>
<path id="Vector_4" d="M79.2172 79.0878C75.5803 79.0809 71.9425 79.0749 68.3056 79.0689L60.7615 79.056C60.6953 79.056 60.635 79.0181 60.6066 78.9587C59.6081 76.8781 58.6095 74.7975 57.6119 72.7161C57.586 72.6628 57.5903 72.5999 57.6213 72.55C57.6532 72.5001 57.7074 72.4699 57.7668 72.4699C60.0591 72.4699 62.3514 72.4699 64.6438 72.4699C64.6507 72.4699 64.6575 72.4699 64.6644 72.4708C64.9278 72.5026 65.8506 72.5629 66.6813 71.987C66.8268 71.8863 67.2124 71.6203 68.0603 69.7463C68.3624 69.0766 68.6345 68.3975 68.8695 67.7295C69.0804 67.1588 69.231 66.7051 69.3205 66.4254C69.5469 65.7161 69.6528 65.4191 69.8448 64.8794L69.8611 64.8337C70.0927 64.1812 70.2089 63.8851 70.5368 63.6923C70.6126 63.6475 71.0163 63.4272 71.4338 63.5873C71.6679 63.6768 71.7996 63.8455 71.9382 64.0246C72.0811 64.2096 72.1904 64.4128 72.2671 64.6332L79.3721 78.8407C79.3988 78.8941 79.3962 78.9578 79.3644 79.0086C79.3334 79.0594 79.2775 79.0904 79.2181 79.0904L79.2172 79.0878ZM60.87 78.7116L68.3065 78.7245C71.8504 78.7306 75.3944 78.7366 78.9383 78.7435L71.9529 64.7752C71.9494 64.7683 71.946 64.7614 71.9443 64.7537C71.8797 64.5652 71.7876 64.3913 71.6688 64.2381C71.5388 64.0702 71.4545 63.9626 71.3098 63.9075C71.0344 63.8025 70.7434 63.9678 70.7107 63.9876C70.4947 64.1141 70.4051 64.3259 70.1848 64.9474L70.1684 64.993C69.9773 65.5293 69.8723 65.8245 69.6476 66.5278C69.5572 66.811 69.4049 67.2698 69.1923 67.844C68.9547 68.5188 68.6792 69.2066 68.3728 69.8858C67.4853 71.8476 67.0583 72.142 66.8758 72.2685C65.9565 72.9064 64.939 72.8478 64.6317 72.8117C62.4341 72.8117 60.2364 72.8117 58.0388 72.8117C58.9805 74.7778 59.9248 76.7447 60.8683 78.7099L60.87 78.7116Z" fill="black"/>
</g>
<g id="Group_4">
<path id="Vector_5" d="M45.968 72.5483C46.3717 72.6456 46.7212 72.6542 46.9631 72.6439C50.5647 72.6439 54.1646 72.6422 57.7662 72.6413C60.0585 72.6413 62.3509 72.6413 64.6432 72.6413C63.7256 72.5311 63.1299 72.0344 62.7572 71.7159C62.226 71.2614 61.886 70.7544 61.6407 70.2595C61.4694 69.9194 61.3429 69.5829 61.2284 69.273C61.0304 68.7401 60.6284 67.535 60.6904 65.952C60.7127 65.3839 60.7549 64.4989 61.1655 63.4582C61.8378 61.753 63.2099 60.3619 64.6096 59.7094C65.714 59.1938 65.7975 59.1568 65.7975 59.1568C66.8899 58.6704 67.3461 58.5267 67.6741 58.0231C67.7137 57.962 67.8789 57.6986 67.9478 57.3138C68.0761 56.5968 67.7713 55.9968 67.6629 55.779C65.2673 50.9593 62.8699 46.1406 60.4752 41.32C54.3669 41.2873 48.2586 41.2555 42.1521 41.2236C44.5649 46.1285 46.9786 51.0316 49.3906 55.9357C49.4818 56.1224 49.648 56.5374 49.5911 57.0702C49.5688 57.2751 49.5102 57.7597 49.1203 58.1651C48.8836 58.4113 48.627 58.5198 48.5332 58.5585C46.4673 59.4236 44.5683 60.2182 43.4898 61.4792C42.8114 62.272 42.5635 63.126 42.3983 63.6924C42.0341 64.9431 42.1151 65.964 42.1762 66.6458C42.2244 67.1872 42.3733 68.3132 42.9483 69.5958C43.2307 70.225 43.4898 70.7983 44.0691 71.394C44.3669 71.7004 44.9798 72.309 45.9672 72.5492L45.968 72.5483Z" fill="#CED0D6"/>
<path id="Vector_6" d="M46.7973 72.8188C46.5073 72.8188 46.2137 72.7844 45.9279 72.7146C44.8657 72.4564 44.2218 71.7944 43.9472 71.5121C43.3429 70.8914 43.0761 70.2958 42.7929 69.6648C42.3694 68.7205 42.0973 67.6815 42.0061 66.6597C41.9493 66.021 41.8537 64.951 42.2342 63.6435C42.4029 63.0642 42.6577 62.1879 43.3602 61.3666C44.4654 60.0746 46.4091 59.2603 48.4673 58.3986C48.5542 58.3624 48.7841 58.266 48.9976 58.0439C49.3539 57.6738 49.403 57.221 49.4211 57.0506C49.4693 56.6021 49.347 56.2371 49.2369 56.0107L45.7454 48.9151C44.4964 46.3766 43.2474 43.8381 41.9984 41.2987C41.9717 41.2453 41.9751 41.1816 42.007 41.1317C42.0388 41.0818 42.0939 41.0508 42.1533 41.0508H42.1542L48.8271 41.0861C52.7102 41.1067 56.5942 41.1265 60.4773 41.1481C60.5427 41.1481 60.6012 41.1851 60.6305 41.2436C61.8408 43.678 63.0511 46.1123 64.2614 48.5467C65.4475 50.932 66.6329 53.3173 67.8191 55.7017L67.8234 55.7094C67.9422 55.947 68.2564 56.5788 68.1195 57.3432C68.0532 57.7125 67.9043 57.9854 67.8216 58.1145C67.5092 58.5948 67.0977 58.7748 66.2765 59.1337C66.1517 59.1879 66.0165 59.2473 65.8702 59.3128C65.8668 59.3145 65.7626 59.361 64.6849 59.8645C63.2379 60.5394 61.951 61.9408 61.3277 63.5212C60.9206 64.5533 60.8853 65.4331 60.8646 65.9582C60.8216 67.0591 60.9989 68.1541 61.3914 69.2129C61.5111 69.5383 61.6325 69.8568 61.796 70.1821C62.0766 70.7468 62.4278 71.2056 62.8712 71.5853C63.212 71.8771 63.7819 72.3651 64.6651 72.4702C64.7555 72.4814 64.8217 72.5605 64.8166 72.6509C64.8114 72.7422 64.7357 72.8128 64.6444 72.8128C62.3521 72.8128 60.0598 72.8128 57.7674 72.8128L46.9643 72.8153C46.9092 72.8179 46.8533 72.8188 46.7982 72.8188H46.7973ZM46.0088 72.3798C46.3179 72.4547 46.6364 72.4848 46.9557 72.4702L57.7674 72.4676C59.6879 72.4676 61.6075 72.4676 63.528 72.4676C63.1337 72.261 62.8428 72.0122 62.6465 71.8452C62.1679 71.4355 61.7883 70.9414 61.4878 70.3345C61.3165 69.9936 61.1917 69.6648 61.0678 69.3308C60.6589 68.2298 60.4738 67.0901 60.5194 65.9435C60.541 65.3961 60.578 64.4802 61.0067 63.3938C61.6609 61.7351 63.014 60.2631 64.5385 59.5521C65.6318 59.0425 65.7256 58.9994 65.729 58.9986C65.8762 58.9331 66.0122 58.8737 66.1371 58.8187C66.9187 58.4769 67.2759 58.3211 67.5307 57.9286C67.5987 57.8218 67.7235 57.5937 67.7795 57.283C67.8965 56.6314 67.6185 56.0736 67.5135 55.8635L67.5092 55.8549C66.3238 53.4696 65.1377 51.0843 63.9515 48.699C62.7567 46.2965 61.5619 43.894 60.3679 41.4907C56.5201 41.47 52.6715 41.4493 48.8237 41.4295L42.4288 41.396C43.6365 43.8518 44.845 46.3069 46.0536 48.7627L49.545 55.8584C49.6759 56.1261 49.8196 56.5565 49.762 57.0867C49.7396 57.289 49.6819 57.827 49.2438 58.2824C48.9803 58.5561 48.6937 58.6758 48.599 58.7154C46.5796 59.5607 44.672 60.3595 43.6201 61.5896C42.9659 62.3548 42.724 63.1872 42.563 63.739C42.2006 64.9846 42.2919 66.0141 42.347 66.6287C42.4348 67.6126 42.6965 68.6138 43.1045 69.5236C43.3748 70.1262 43.6296 70.6952 44.1917 71.2719C44.4456 71.5336 45.0413 72.1448 46.0071 72.3798H46.0088Z" fill="black"/>
</g>
<g id="Group_5">
<path id="Vector_7" d="M42.1517 41.2228C48.2583 41.2555 54.3674 41.2865 60.4748 41.3192C66.9576 33.5556 73.4403 25.7912 79.9239 18.0284C80.1942 17.6669 80.7408 17.0359 81.6394 16.584C81.8908 16.4583 82.6087 16.1106 83.5711 16.0641C77.6694 16.015 71.7686 15.9694 65.8661 15.9203C65.18 15.8575 64.6325 15.9634 64.2968 16.0555C63.6297 16.2371 63.1769 16.5332 62.8446 16.7553C62.3497 17.0824 61.9907 17.4267 61.7505 17.6858C55.2179 25.5312 48.6844 33.3783 42.1517 41.2237V41.2228Z" fill="#EBECEE"/>
<path id="Vector_8" d="M60.476 41.4908H60.4751C56.592 41.4701 52.708 41.4494 48.825 41.4288L42.152 41.3935C42.0857 41.3935 42.0246 41.3547 41.997 41.2936C41.9686 41.2334 41.9781 41.1619 42.0212 41.1111L61.62 17.5733C61.62 17.5733 61.6243 17.569 61.626 17.5664C61.9634 17.2023 62.3422 16.8803 62.7511 16.6092C63.0661 16.3991 63.5439 16.0806 64.2532 15.887C64.7774 15.7432 65.3231 15.6959 65.8766 15.7458C68.8077 15.7699 71.7387 15.794 74.6698 15.8172C77.6378 15.8413 80.6059 15.8646 83.5739 15.8896C83.6669 15.8896 83.7427 15.9653 83.7444 16.0583C83.7461 16.1512 83.6738 16.2296 83.5808 16.2339C82.9498 16.264 82.3232 16.4336 81.718 16.7357C81.075 17.0594 80.5026 17.5414 80.0636 18.1294C80.0618 18.1319 80.0601 18.1345 80.0575 18.1371C73.574 25.9007 67.0912 33.6643 60.6085 41.4279C60.5758 41.4675 60.5276 41.4899 60.476 41.4899V41.4908ZM42.5178 41.0517L48.8258 41.0853C52.6822 41.1051 56.5386 41.1258 60.395 41.1464C66.8588 33.4052 73.3235 25.6623 79.789 17.9211C80.2598 17.2918 80.8727 16.7762 81.5622 16.4293C81.7163 16.3527 81.8713 16.2829 82.0279 16.2227C79.5738 16.2029 77.1196 16.1831 74.6655 16.1633C71.7318 16.14 68.7982 16.1159 65.8646 16.0918C65.8594 16.0918 65.8551 16.0918 65.85 16.0918C65.3361 16.0445 64.8282 16.0884 64.3418 16.2218C63.6868 16.4009 63.2374 16.7004 62.9396 16.8984C62.5539 17.1541 62.1976 17.4562 61.8791 17.7988L42.5178 41.0517Z" fill="black"/>
</g>
<g id="Group_6">
<path id="Vector_9" d="M71.3713 63.747C71.5624 63.8202 71.6691 63.9588 71.8051 64.1335C71.9704 64.3479 72.0591 64.5579 72.1073 64.6991C74.4771 69.4378 76.8469 74.1783 79.2175 78.917C82.418 75.1148 85.6185 71.3152 88.8181 67.5139C88.93 67.3288 89.2588 66.7392 89.1392 65.9808C89.0798 65.6003 88.9283 65.312 88.8138 65.1355C87.6792 64.0948 86.5456 63.0541 85.411 62.0125C85.3008 61.8799 85.182 61.7276 85.0572 61.558C84.6673 61.0234 84.2308 60.3055 83.8882 59.4034C83.556 58.5306 83.4423 57.8299 83.4208 57.6844C83.3657 57.328 82.888 53.9296 85.0762 51.6131C85.516 51.1491 86.0842 50.5629 87.0164 50.3727C88.0477 50.1601 89.1581 50.5087 89.8683 51.1707C90.1945 51.4754 90.3847 51.7973 90.556 52.0866C90.9529 52.758 91.1259 53.3864 91.2094 53.8073C91.8619 57.2264 92.3233 59.6746 92.4068 60.3434C92.4154 60.4106 92.449 60.7282 92.665 61.0372C92.7511 61.1586 92.9241 61.4048 93.1798 61.5115C93.2607 61.5468 93.3502 61.5657 93.4483 61.564C93.747 61.5554 93.9562 61.3394 94.0251 61.2602C97.1972 57.4632 100.369 53.6661 103.542 49.8691C98.6855 40.0663 93.8271 30.2652 88.9696 20.4632C88.874 20.2833 88.7337 20.0233 88.5555 19.7177C87.9134 18.6176 87.5269 17.9522 86.9484 17.3953C86.6824 17.1387 85.8982 16.4028 84.6475 16.1471C84.4452 16.1066 84.2489 16.0808 84.0587 16.0679C84.0587 16.0679 84.0561 16.0679 84.0535 16.0679C84.0535 16.0679 84.0492 16.0679 84.0466 16.0679C83.8891 16.0662 83.7307 16.0653 83.5732 16.0645C82.6108 16.1109 81.8929 16.4587 81.6415 16.5844C80.7429 17.0363 80.1963 17.6673 79.926 18.0288C73.4424 25.7924 66.9597 33.556 60.4769 41.3196C62.8725 46.1393 65.2699 50.958 67.6647 55.7786C67.7731 55.9963 68.0778 56.5963 67.9496 57.3134C67.8807 57.6973 67.7154 57.9607 67.6758 58.0227C67.3487 58.5263 66.8916 58.67 65.7993 59.1564C65.7993 59.1564 65.7158 59.1942 64.6114 59.709C63.2108 60.3623 61.8396 61.7534 61.1673 63.4578C60.7567 64.4977 60.7145 65.3834 60.6921 65.9516C60.6293 67.5354 61.0321 68.7397 61.2301 69.2725C61.3446 69.5833 61.4712 69.919 61.6425 70.259C61.8886 70.7548 62.2278 71.261 62.7589 71.7155C63.1308 72.034 63.7265 72.5307 64.6449 72.6409C64.8145 72.6615 65.8518 72.7717 66.7806 72.1278C66.9743 71.9944 67.3823 71.6656 68.2181 69.8166C68.5935 68.9824 68.8612 68.2749 69.0325 67.7859C69.2348 67.2385 69.3854 66.7883 69.4853 66.4766C69.7168 65.751 69.8201 65.4643 70.0241 64.891C70.254 64.2437 70.3555 63.9984 70.6241 63.8409C70.668 63.815 71.0218 63.6136 71.3721 63.7479L71.3713 63.747Z" fill="white"/>
<path id="Vector_10" d="M79.2174 79.0876C79.2105 79.0876 79.2036 79.0876 79.1968 79.0867C79.1391 79.0799 79.0892 79.0446 79.0633 78.9929L71.9531 64.775C71.9496 64.7681 71.9462 64.7612 71.9445 64.7535C71.8799 64.565 71.7878 64.3911 71.669 64.2379C71.539 64.07 71.4547 63.9624 71.3101 63.9073C71.0355 63.8023 70.7436 63.9676 70.7109 63.9874C70.4949 64.1139 70.4053 64.3257 70.185 64.9472L70.1686 64.9928C69.9775 65.5291 69.8725 65.8243 69.6478 66.5276C69.5575 66.8108 69.4051 67.2696 69.1925 67.8438C68.9549 68.5186 68.6794 69.2064 68.373 69.8856C67.4855 71.8474 67.0585 72.1418 66.876 72.2683C65.9464 72.9131 64.9151 72.8459 64.6216 72.8106C63.6351 72.6927 62.9912 72.1409 62.6452 71.8448C62.1666 71.4351 61.787 70.9409 61.4865 70.3341C61.3152 69.9932 61.1904 69.6644 61.0665 69.3304C60.6576 68.2294 60.4725 67.0897 60.5181 65.9431C60.5397 65.3956 60.5767 64.4797 61.0054 63.3934C61.6596 61.7346 63.0128 60.2627 64.5372 59.5516C65.6305 59.042 65.7243 58.999 65.7277 58.9981C65.8749 58.9327 66.0109 58.8733 66.1358 58.8182C66.9174 58.4765 67.2746 58.3207 67.5294 57.9282C67.5974 57.8214 67.7222 57.5933 67.7782 57.2826C67.8952 56.6309 67.6172 56.0731 67.5122 55.8631L67.5079 55.8545C66.3226 53.4692 65.1364 51.0839 63.9502 48.6986C62.7399 46.2642 61.5296 43.8299 60.3193 41.3955C60.2892 41.3344 60.2978 41.2612 60.3417 41.2087C66.8227 33.446 73.3054 25.6833 79.7881 17.9214C80.259 17.2921 80.8719 16.7765 81.5614 16.4296C82.2096 16.1051 82.8827 15.9243 83.5619 15.8916C83.5653 15.8916 83.5688 15.8916 83.5722 15.8916L84.0457 15.895C84.0457 15.895 84.0517 15.895 84.0543 15.895C84.0594 15.895 84.0637 15.895 84.0689 15.895C84.2678 15.908 84.4735 15.9355 84.6801 15.9768C85.5624 16.1567 86.3647 16.5923 87.0671 17.2697C87.6602 17.8405 88.0501 18.5093 88.6966 19.6172L88.7035 19.6292C88.8817 19.9357 89.0203 20.1913 89.121 20.3807C93.9811 30.187 98.8386 39.9881 103.695 49.791C103.725 49.8521 103.717 49.9253 103.673 49.9778L94.1558 61.3688C94.0396 61.5022 93.7969 61.7243 93.4517 61.7346C93.3312 61.7372 93.2167 61.7148 93.1099 61.6684C92.813 61.5444 92.6184 61.2698 92.5246 61.1381C92.3688 60.916 92.2724 60.6604 92.2354 60.3746V60.3651C92.1467 59.6644 91.6182 56.8788 91.038 53.8385C90.9192 53.2437 90.7066 52.6833 90.4053 52.1737C90.2323 51.8819 90.0558 51.5832 89.7485 51.2965C89.0487 50.644 87.989 50.3479 87.049 50.5416C86.1546 50.7241 85.602 51.3068 85.1991 51.7321C83.0867 53.9676 83.5318 57.2869 83.5894 57.6579C83.6178 57.8447 83.7341 58.5178 84.0482 59.3425C84.334 60.0939 84.7197 60.805 85.1948 61.4566C85.3119 61.6158 85.4264 61.7622 85.5349 61.8939L88.929 65.0083C88.9393 65.0186 88.9497 65.0298 88.9574 65.0418C89.1399 65.3251 89.2587 65.6324 89.3086 65.9543C89.4266 66.7006 89.1434 67.3075 88.9643 67.6027C88.96 67.6105 88.9548 67.6174 88.9488 67.6243L84.6534 72.7263C82.8853 74.8266 81.1172 76.9261 79.3491 79.0273C79.3164 79.0661 79.2682 79.0885 79.2174 79.0885V79.0876ZM72.2664 64.6312L79.2544 78.6047C80.9666 76.5706 82.6787 74.5374 84.3909 72.5042L88.6777 67.4125C88.8326 67.1534 89.0685 66.6361 88.9695 66.0068C88.9282 65.7391 88.8309 65.4834 88.6811 65.2459L85.2956 62.1384C85.2895 62.1332 85.2844 62.1272 85.2792 62.1211C85.1639 61.9826 85.0433 61.8276 84.9194 61.6589C84.4253 60.9814 84.025 60.2437 83.7289 59.4638C83.4026 58.6073 83.2813 57.9041 83.252 57.7095C83.1917 57.3222 82.7269 53.8497 84.9521 51.4945C85.3868 51.0357 85.9825 50.4073 86.9827 50.2033C88.0278 49.9881 89.2071 50.3178 89.9861 51.0443C90.3295 51.3654 90.5284 51.7002 90.7031 51.9955C91.0259 52.5421 91.2523 53.1386 91.3789 53.7722C92.0778 57.4332 92.4988 59.6782 92.5788 60.3203V60.3298C92.6098 60.5596 92.6864 60.7637 92.8069 60.9367C92.8887 61.052 93.0385 61.2638 93.2468 61.3507C93.3114 61.3783 93.3759 61.3903 93.4457 61.3895C93.666 61.3826 93.8339 61.2164 93.8959 61.145L103.338 49.8426C98.4977 40.0733 93.6566 30.3058 88.8154 20.5374C88.7181 20.3557 88.5821 20.1035 88.4065 19.8022L88.3996 19.7902C87.7687 18.7082 87.3873 18.0548 86.8287 17.5177C86.1744 16.8858 85.429 16.4813 84.6121 16.3143C84.427 16.2772 84.2419 16.2523 84.0637 16.2394C84.0543 16.2394 84.0448 16.2394 84.0353 16.2385L83.5748 16.2351C82.9456 16.2661 82.3198 16.4348 81.7163 16.7369C81.0733 17.0606 80.5009 17.5426 80.0619 18.1306C80.0601 18.1331 80.0584 18.1357 80.0558 18.1383C73.5964 25.8726 67.1377 33.6078 60.6791 41.343C61.8722 43.7438 63.0661 46.1446 64.2601 48.5454C65.4463 50.9307 66.6316 53.316 67.8178 55.7004L67.8221 55.7081C67.9409 55.9457 68.2551 56.5776 68.1182 57.3419C68.0519 57.7112 67.903 57.9841 67.8204 58.1132C67.5079 58.5936 67.0964 58.7735 66.2752 59.1324C66.1504 59.1867 66.0152 59.246 65.8689 59.3115C65.8655 59.3132 65.7613 59.3597 64.6836 59.8632C63.2366 60.5381 61.9497 61.9395 61.3264 63.52C60.9193 64.5521 60.884 65.4318 60.8633 65.9569C60.8203 67.0579 60.9976 68.1528 61.3901 69.2116C61.5098 69.537 61.6312 69.8555 61.7947 70.1809C62.0753 70.7455 62.4265 71.2043 62.8699 71.584C63.2107 71.8758 63.7806 72.3639 64.6638 72.4689C64.9272 72.5016 65.8508 72.561 66.6806 71.9851C66.8261 71.8844 67.2118 71.6184 68.0597 69.7444C68.3618 69.0747 68.6338 68.3955 68.8688 67.7276C69.0797 67.1569 69.2304 66.7032 69.3199 66.4234C69.5463 65.7141 69.6521 65.4172 69.8441 64.8774L69.8605 64.8318C70.092 64.1793 70.2082 63.8832 70.5362 63.6904C70.6119 63.6456 71.0157 63.4253 71.4331 63.5854C71.6673 63.6749 71.799 63.8436 71.9376 64.0227C72.0805 64.2077 72.1898 64.4109 72.2664 64.6312Z" fill="black"/>
</g>
<g id="Group_7">
<path id="Vector_11" d="M78.0391 16.0348C76.4957 16.0288 74.9514 16.0227 73.4088 16.0176C73.5534 16.0796 73.6516 16.2207 73.6998 16.2905C73.8211 16.4678 73.8384 16.6485 73.8435 16.6873C73.8874 17.0686 74.1371 18.4674 74.4908 20.4197C74.5365 20.6599 74.6312 21.0197 74.8541 21.4045C74.9505 21.5706 75.0564 21.7548 75.2415 21.9304C75.6426 22.3118 76.2736 22.5167 76.8624 22.4013C77.3952 22.298 77.7214 21.9666 77.9754 21.7049C79.2356 20.3965 78.9817 18.4571 78.9524 18.2531C78.9403 18.1696 78.8801 17.7702 78.695 17.2709C78.5048 16.7553 78.2603 16.343 78.0408 16.0365L78.0391 16.0348Z" fill="white"/>
<path id="Vector_12" d="M76.529 22.6049C76.0151 22.6049 75.49 22.406 75.1216 22.0557C74.9202 21.8637 74.8057 21.6666 74.705 21.4927C74.5199 21.1725 74.3908 20.823 74.3211 20.4528C73.9329 18.3094 73.7151 17.0785 73.672 16.7083C73.6574 16.5844 73.6187 16.4785 73.5575 16.389C73.5162 16.3287 73.4396 16.2185 73.3415 16.1772C73.2657 16.1454 73.2235 16.0645 73.2408 15.9844C73.2571 15.9044 73.3277 15.8467 73.4095 15.8467L75.3325 15.8536C76.2346 15.857 77.1376 15.8605 78.0398 15.8639C78.0948 15.8639 78.1474 15.8906 78.1792 15.9362C78.4607 16.3305 78.6879 16.7591 78.8549 17.2111C79.0391 17.7077 79.1054 18.1158 79.1209 18.2294C79.1536 18.4541 79.4033 20.4692 78.0974 21.825C77.8547 22.0763 77.488 22.4559 76.8932 22.5713C76.7735 22.5945 76.6513 22.6066 76.5282 22.6066L76.529 22.6049ZM73.8399 16.1919C73.9346 16.3296 73.9922 16.4871 74.0129 16.6619C74.0594 17.0656 74.3452 18.6555 74.6594 20.39C74.7222 20.7206 74.8376 21.0339 75.002 21.3188C75.0958 21.4815 75.1931 21.6485 75.3583 21.806C75.7371 22.1658 76.3138 22.3328 76.8277 22.2321C77.3158 22.1374 77.6119 21.831 77.8495 21.5848C79.0417 20.347 78.8102 18.4859 78.78 18.2776C78.7654 18.1726 78.7034 17.7947 78.5321 17.3298C78.3858 16.9339 78.1904 16.5568 77.9494 16.2074C77.0765 16.2039 76.2037 16.2005 75.3308 16.197L73.8399 16.1919Z" fill="black"/>
</g>
<g id="Group_8">
<path id="Vector_13" d="M91.983 6.2925C88.4761 6.25291 84.9692 6.21331 81.4623 6.17285C82.7879 8.88697 84.1127 11.6028 85.4375 14.3169C85.4642 14.3978 85.5132 14.5175 85.6062 14.6406C85.6828 14.7413 85.7431 14.8205 85.8515 14.8635C86.0504 14.9419 86.2535 14.8291 86.2785 14.8145C86.4326 14.7258 86.492 14.5864 86.6262 14.2188C86.7459 13.8934 86.8062 13.7299 86.9422 13.3175C87.0007 13.1402 87.0894 12.8845 87.2073 12.5738C87.308 12.2958 87.4638 11.8938 87.6825 11.4203C88.1697 10.371 88.4038 10.1851 88.5149 10.1102C89.0477 9.74778 89.6391 9.81664 89.7355 9.82955C91.0422 9.8416 92.3489 9.85451 93.6556 9.86657C93.0986 8.67435 92.5408 7.483 91.983 6.29164V6.2925Z" fill="#EBECEE"/>
<path id="Vector_14" d="M86.0014 15.0626C85.9343 15.0626 85.862 15.0514 85.7888 15.023C85.6364 14.9636 85.5529 14.8534 85.472 14.7475C85.3877 14.6356 85.3231 14.5134 85.2783 14.3817L81.3083 6.24791C81.2825 6.19454 81.2859 6.13084 81.3178 6.08005C81.3496 6.02927 81.4056 6.00172 81.465 6C83.5102 6.02324 85.5555 6.04648 87.6008 6.06972L91.9857 6.11965C92.052 6.11965 92.1114 6.15925 92.1398 6.21864C92.6976 7.41 93.2554 8.60221 93.8124 9.79357C93.8373 9.84694 93.833 9.90978 93.8012 9.9597C93.7693 10.0096 93.7142 10.038 93.6548 10.0389L89.7347 10.0019C89.7278 10.0019 89.721 10.0019 89.7141 10.0002C89.5703 9.98122 89.0676 9.94335 88.6131 10.2524C88.5416 10.3006 88.3247 10.4469 87.8401 11.4919C87.6653 11.8707 87.507 12.2537 87.3701 12.6316C87.2461 12.957 87.1583 13.2127 87.1067 13.3702C86.9733 13.7731 86.9113 13.9426 86.7994 14.2491L86.7891 14.2766C86.6513 14.6545 86.5756 14.8422 86.3647 14.9618C86.3294 14.9825 86.1822 15.0608 86.0014 15.0608V15.0626ZM81.7396 6.3469L85.5925 14.2396C85.596 14.2465 85.5986 14.2543 85.6011 14.2611C85.6339 14.3619 85.6821 14.454 85.744 14.5349C85.8172 14.6313 85.8551 14.6778 85.9145 14.701C86.0401 14.7509 86.1908 14.6649 86.1917 14.664C86.2898 14.6072 86.3354 14.5116 86.4645 14.1578L86.4749 14.1294C86.5859 13.8264 86.647 13.6594 86.7787 13.2618C86.8321 13.1008 86.9216 12.8391 87.0464 12.5103C87.1859 12.1263 87.3477 11.7338 87.5268 11.3465C88.0519 10.2145 88.3092 10.0406 88.4186 9.96659C88.9626 9.59644 89.56 9.63346 89.7468 9.6567L93.3837 9.69113C92.8801 8.61426 92.3765 7.53826 91.8721 6.46139L87.5948 6.41319C85.6425 6.39081 83.691 6.36929 81.7378 6.3469H81.7396Z" fill="black"/>
</g>
<g id="Group_9">
<path id="Vector_15" d="M100.382 9.98465C100.152 9.92698 99.9534 9.92009 99.8148 9.92525C97.7618 9.90546 95.7087 9.88652 93.6557 9.86758C92.349 9.85553 91.0423 9.84262 89.7356 9.83057C90.2581 9.89857 90.5947 10.1844 90.8056 10.3686C91.106 10.6311 91.2971 10.9212 91.434 11.2053C91.5295 11.3998 91.6001 11.5926 91.6638 11.77C91.774 12.0747 91.9961 12.7642 91.9522 13.6663C91.9358 13.99 91.9074 14.4944 91.6673 15.0849C91.2747 16.0533 90.4854 16.8384 89.6831 17.2034C89.0504 17.4909 89.0031 17.5124 89.0031 17.5124C88.3781 17.7835 88.1164 17.8627 87.9271 18.1485C87.9047 18.183 87.8083 18.3327 87.7669 18.5514C87.6895 18.9594 87.8608 19.3029 87.921 19.4277C89.2604 22.1883 90.6007 24.9489 91.9393 27.7095C95.4212 27.762 98.9032 27.8128 102.384 27.8653C101.035 25.0565 99.6865 22.2477 98.3385 19.4389C98.2877 19.3321 98.1947 19.0946 98.23 18.7915C98.2438 18.6753 98.28 18.399 98.5046 18.17C98.6406 18.0306 98.7878 17.9703 98.8412 17.9488C100.024 17.4668 101.11 17.0243 101.732 16.3116C102.123 15.8631 102.269 15.3776 102.366 15.0557C102.581 14.3446 102.54 13.7619 102.509 13.3736C102.485 13.0646 102.406 12.4216 102.085 11.6873C101.927 11.3275 101.783 10.9987 101.455 10.6561C101.287 10.4796 100.942 10.1293 100.379 9.98723L100.382 9.98465Z" fill="#EBECEE"/>
<path id="Vector_16" d="M102.386 28.035H102.383L98.6886 27.98C96.4384 27.9464 94.1883 27.9128 91.9381 27.8792C91.8727 27.8784 91.8142 27.8405 91.7858 27.782C91.1049 26.378 90.424 24.974 89.7422 23.5709L87.7675 19.5002C87.6961 19.353 87.5127 18.9759 87.5988 18.5171C87.641 18.2942 87.7331 18.1306 87.7839 18.0523C87.9767 17.7613 88.235 17.652 88.7032 17.4523C88.7747 17.4222 88.8513 17.3895 88.9357 17.3525C88.9391 17.3507 89.0037 17.3223 89.6131 17.0451C90.4257 16.6759 91.1522 15.8994 91.5086 15.0188C91.7419 14.4447 91.766 13.9514 91.7806 13.6562C91.8107 13.039 91.7169 12.4235 91.5026 11.8269C91.4363 11.6427 91.37 11.4628 91.2805 11.2795C91.1281 10.9644 90.9362 10.7088 90.6934 10.497C90.5075 10.3343 90.1959 10.0623 89.7147 10.0003C89.6243 9.98826 89.5589 9.90821 89.5649 9.81782C89.5709 9.72658 89.6475 9.65944 89.7379 9.65771L99.8171 9.7524C100.017 9.74552 100.224 9.76704 100.425 9.81696C101.05 9.97535 101.423 10.367 101.583 10.534C101.933 10.9007 102.084 11.2476 102.245 11.6152C102.484 12.1635 102.635 12.7652 102.683 13.3566C102.712 13.7267 102.761 14.3457 102.533 15.1023C102.431 15.438 102.279 15.945 101.863 16.4219C101.215 17.1657 100.094 17.6227 98.9081 18.1057C98.8625 18.1246 98.7411 18.1737 98.6292 18.2881C98.4424 18.4792 98.4148 18.7108 98.4028 18.8089C98.3752 19.0465 98.4381 19.2411 98.4958 19.3624L102.542 27.7889C102.567 27.8422 102.563 27.9059 102.531 27.9558C102.499 28.0058 102.445 28.035 102.387 28.035H102.386ZM92.0492 27.5375C94.264 27.5711 96.4789 27.6038 98.6937 27.6365L102.11 27.6873L98.1841 19.5114C98.1067 19.3487 98.0232 19.0887 98.0602 18.7693C98.0731 18.6583 98.1127 18.3226 98.383 18.0471C98.5457 17.8818 98.7204 17.8104 98.7781 17.7872C99.9255 17.3197 101.009 16.8781 101.604 16.1955C101.971 15.7755 102.11 15.3106 102.203 15.0033C102.412 14.3086 102.367 13.7302 102.339 13.3841C102.295 12.8306 102.153 12.2668 101.93 11.7538C101.775 11.4008 101.642 11.0953 101.334 10.7725C101.194 10.627 100.869 10.2852 100.34 10.1518C100.172 10.1096 99.997 10.0907 99.8214 10.0976L90.6357 10.0115C90.7537 10.0941 90.8475 10.1768 90.9189 10.2388C91.197 10.4815 91.4165 10.7733 91.5895 11.1297C91.6868 11.3277 91.7574 11.5179 91.8262 11.7116C92.0569 12.3503 92.1568 13.0114 92.1241 13.6742C92.1086 13.991 92.0819 14.5204 91.8271 15.1497C91.438 16.1086 90.6443 16.9556 89.7551 17.3602C89.1285 17.6451 89.0742 17.6692 89.0725 17.6701C88.9882 17.7071 88.9098 17.7398 88.8384 17.7708C88.3916 17.961 88.2074 18.0394 88.0714 18.2434C88.0352 18.2993 87.9681 18.4181 87.9371 18.5825C87.8717 18.9294 88.0189 19.2325 88.0748 19.3469L90.0521 23.422C90.7175 24.7941 91.3838 26.1662 92.0492 27.5384V27.5375Z" fill="black"/>
</g>
<g id="Group_10">
<path id="Vector_17" d="M102.386 27.8623C98.9045 27.8107 95.4225 27.7591 91.9406 27.7065C88.2021 32.0966 84.4645 36.4876 80.726 40.8777C80.5702 41.0826 80.2552 41.439 79.7404 41.692C79.5966 41.7626 79.1852 41.9563 78.6368 41.9778C82.0009 42.0381 85.3649 42.0966 88.7289 42.1569C89.1197 42.1965 89.4322 42.1388 89.6242 42.0889C90.0055 41.989 90.2655 41.8229 90.4557 41.6981C90.7398 41.5139 90.9464 41.3202 91.0849 41.1738C94.8518 36.7372 98.6196 32.2998 102.386 27.8632L102.386 27.8623Z" fill="#CED0D6"/>
<path id="Vector_18" d="M88.9892 42.3432C88.8988 42.3432 88.8084 42.3389 88.718 42.3294C87.055 42.2993 85.3927 42.27 83.7305 42.2408C82.0313 42.2107 80.3321 42.1805 78.6328 42.1504C78.5399 42.1487 78.465 42.0729 78.4641 41.98C78.4633 41.887 78.5364 41.8095 78.6294 41.8061C78.9789 41.7923 79.3275 41.7019 79.6641 41.5375C80.0222 41.3619 80.3415 41.0976 80.5886 40.774C80.5903 40.7714 80.592 40.7688 80.5946 40.7671C84.3331 36.377 88.0716 31.9869 91.8092 27.5959C91.8428 27.5572 91.8953 27.5365 91.9426 27.5356C94.1928 27.5692 96.4429 27.6028 98.693 27.6364L102.388 27.6915C102.454 27.6923 102.514 27.7319 102.542 27.7922C102.569 27.8524 102.559 27.9239 102.516 27.9747L91.2144 41.2853C91.2144 41.2853 91.2101 41.2896 91.2083 41.2922C91.0095 41.5022 90.7874 41.6873 90.5481 41.8431C90.363 41.9636 90.0833 42.1461 89.6666 42.2563C89.4463 42.3148 89.219 42.3432 88.9892 42.3432ZM79.8543 41.8285C81.1481 41.8517 82.4428 41.8741 83.7365 41.8973C85.4013 41.9266 87.0661 41.9559 88.7318 41.986C88.737 41.986 88.7413 41.986 88.7464 41.986C89.0305 42.0153 89.3111 41.9937 89.5806 41.9223C89.9438 41.8267 90.1952 41.6623 90.3622 41.5539C90.5782 41.4135 90.7779 41.2474 90.957 41.0589L102.02 28.0297L98.6896 27.9798C96.467 27.9471 94.2435 27.9135 92.0201 27.8808C88.3005 32.2494 84.581 36.618 80.8606 40.9866C80.5912 41.3395 80.2434 41.6296 79.8543 41.8285Z" fill="black"/>
</g>
<g id="Group_11">
<path id="Vector_19" d="M85.8519 14.8626C85.7434 14.8195 85.6832 14.7403 85.6065 14.6396C85.5136 14.5165 85.4645 14.3969 85.4378 14.316C84.1122 11.6018 82.7874 8.88599 81.4626 6.17188C79.6179 8.32217 77.7724 10.4707 75.9276 12.6202C75.8631 12.7252 75.672 13.0592 75.7357 13.4922C75.7675 13.7099 75.8528 13.8744 75.9165 13.9759C76.5569 14.5759 77.1982 15.175 77.8386 15.775C77.9006 15.8516 77.9678 15.9386 78.0375 16.0358C78.257 16.3423 78.5015 16.7546 78.6917 17.2702C78.8759 17.7695 78.937 18.1698 78.9491 18.2524C78.9783 18.4564 79.2323 20.3958 77.9721 21.7042C77.719 21.9668 77.3919 22.2973 76.859 22.4006C76.2702 22.516 75.6393 22.3111 75.2381 21.9298C75.0539 21.7542 74.9472 21.57 74.8508 21.4038C74.6287 21.019 74.5331 20.6601 74.4875 20.4191C74.1337 18.4668 73.8841 17.0688 73.8402 16.6866C73.835 16.6479 73.8187 16.4671 73.6964 16.2898C73.6482 16.2201 73.551 16.0789 73.4055 16.0169C73.359 15.9962 73.3091 15.9851 73.2523 15.9859C73.0818 15.9894 72.9613 16.1116 72.9217 16.1564C71.0925 18.3032 69.2633 20.4509 67.4341 22.5978C70.1491 28.2128 72.8649 33.827 75.5799 39.4411C75.6333 39.5444 75.7116 39.6933 75.8123 39.8681C76.1721 40.4991 76.389 40.8804 76.7161 41.2006C76.8659 41.3487 77.3092 41.7722 78.0211 41.9246C78.1365 41.9487 78.2484 41.965 78.356 41.9728C78.356 41.9728 78.3577 41.9728 78.3594 41.9728C78.3594 41.9728 78.362 41.9728 78.3637 41.9728C78.4532 41.9745 78.5436 41.9762 78.6332 41.9771C79.1824 41.9555 79.593 41.7619 79.7367 41.6913C80.2515 41.4382 80.5665 41.0818 80.7223 40.877C84.4608 36.4868 88.1993 32.0967 91.9369 27.7058C90.5975 24.9452 89.2572 22.1846 87.9187 19.424C87.8584 19.2992 87.6871 18.9557 87.7646 18.5477C87.8059 18.329 87.9014 18.1801 87.9247 18.1448C88.1141 17.8599 88.3749 17.7798 89.0007 17.5087C89.0007 17.5087 89.0489 17.488 89.6807 17.1996C90.4821 16.8347 91.2724 16.0496 91.6649 15.0812C91.9051 14.4907 91.9335 13.9863 91.9498 13.6626C91.9937 12.7605 91.7716 12.071 91.6614 11.7662C91.5977 11.5889 91.5272 11.3961 91.4316 11.2016C91.2939 10.9175 91.1028 10.6274 90.8032 10.3649C90.5932 10.1815 90.2558 9.89486 89.7332 9.82685C89.6368 9.81394 89.0455 9.74508 88.5126 10.1075C88.4016 10.1824 88.1674 10.3674 87.6802 11.4176C87.4616 11.8911 87.3058 12.2931 87.2051 12.5711C87.0871 12.8819 86.9985 13.1384 86.9399 13.3148C86.8039 13.7272 86.7437 13.8899 86.624 14.2161C86.4897 14.5837 86.4303 14.7231 86.2762 14.8118C86.2513 14.8264 86.0481 14.9392 85.8493 14.8608L85.8519 14.8626Z" fill="white"/>
<path id="Vector_20" d="M78.637 42.1499C78.637 42.1499 78.6352 42.1499 78.6335 42.1499L78.3641 42.1456C78.3589 42.1456 78.3529 42.1456 78.3469 42.1456C78.2298 42.137 78.1093 42.1198 77.9888 42.094C77.4723 41.9838 77.0049 41.7247 76.5986 41.3244C76.256 40.9887 76.0356 40.6022 75.6706 39.9617C75.5647 39.775 75.4838 39.6217 75.4313 39.5219C72.7138 33.9034 69.9979 28.2892 67.2829 22.6742C67.2537 22.6131 67.2623 22.5399 67.307 22.4874L72.7947 16.046C72.8704 15.9599 73.0279 15.8196 73.2526 15.8153C73.3327 15.8127 73.4084 15.8299 73.479 15.8609C73.6667 15.941 73.7837 16.1106 73.8405 16.1915C73.9352 16.3292 73.9929 16.4867 74.0136 16.6615C74.0601 17.0652 74.3458 18.6551 74.66 20.3896C74.7229 20.7202 74.8382 21.0335 75.0026 21.3184C75.0965 21.4811 75.1937 21.6481 75.359 21.8056C75.7378 22.1655 76.3145 22.3325 76.8284 22.2317C77.3165 22.1371 77.6126 21.8306 77.8502 21.5844C79.0424 20.3466 78.8108 18.4855 78.7807 18.2772C78.7661 18.1722 78.7041 17.7943 78.5328 17.3295C78.3761 16.9059 78.1635 16.5039 77.9001 16.1355C77.8364 16.0469 77.7736 15.9651 77.715 15.8919L75.8015 14.1014C75.7911 14.0911 75.7817 14.0799 75.7739 14.0679C75.6655 13.8966 75.5966 13.7115 75.5682 13.517C75.5019 13.0676 75.6749 12.7052 75.7834 12.5296C75.7877 12.5219 75.7937 12.515 75.7989 12.5081L81.3339 6.0598C81.3717 6.0159 81.4294 5.99438 81.4862 6.00126C81.5439 6.00901 81.5938 6.0443 81.6188 6.09681L85.594 14.2409C85.5974 14.2478 85.6 14.2555 85.6026 14.2624C85.6353 14.3631 85.6835 14.4552 85.7455 14.5361C85.8186 14.6326 85.8565 14.679 85.9159 14.7023C86.0416 14.7522 86.1914 14.6661 86.1931 14.6653C86.2912 14.6085 86.3369 14.5129 86.466 14.1591L86.4763 14.1307C86.5873 13.8277 86.6485 13.6607 86.7802 13.263C86.8335 13.102 86.9231 12.8404 87.0479 12.5115C87.1873 12.1276 87.3492 11.7351 87.5282 11.3477C88.0533 10.2158 88.3107 10.0419 88.42 9.96785C88.9752 9.59082 89.5855 9.63644 89.7594 9.65882C90.343 9.73457 90.7183 10.0617 90.9198 10.2381C91.1978 10.4809 91.4173 10.7727 91.5903 11.1291C91.6876 11.3271 91.7582 11.5173 91.8271 11.711C92.0578 12.3497 92.1576 13.0108 92.1249 13.6736C92.1094 13.9904 92.0827 14.5198 91.8279 15.149C91.4388 16.108 90.6452 16.955 89.756 17.3596C89.1293 17.6445 89.0751 17.6686 89.0734 17.6695C88.989 17.7065 88.9107 17.7392 88.8392 17.7702C88.3925 17.9604 88.2082 18.0388 88.0722 18.2428C88.0361 18.2987 87.9689 18.4175 87.9379 18.5819C87.8725 18.9288 88.0197 19.2318 88.0757 19.3463L90.0529 23.4214C90.7338 24.8254 91.4156 26.2293 92.0965 27.6324C92.1266 27.6936 92.1172 27.7676 92.0724 27.8192C88.3348 32.2085 84.598 36.5977 80.8604 40.987C80.5815 41.3511 80.2208 41.6489 79.8163 41.8478C79.4358 42.0337 79.0407 42.1361 78.643 42.1508C78.6404 42.1508 78.6387 42.1508 78.6361 42.1508L78.637 42.1499ZM78.3778 41.8013L78.6344 41.8056C78.9821 41.7918 79.329 41.7014 79.6648 41.537C80.0228 41.3614 80.3422 41.0971 80.5893 40.7735C80.591 40.7709 80.5927 40.7683 80.5953 40.7666C84.3097 36.4049 88.0232 32.0432 91.7375 27.6815C91.073 26.3111 90.4085 24.9416 89.7431 23.5712L87.7684 19.5004C87.6969 19.3532 87.5136 18.9762 87.5997 18.5174C87.6418 18.2944 87.7339 18.1309 87.7847 18.0525C87.9775 17.7616 88.2358 17.6523 88.7041 17.4526C88.7755 17.4224 88.8521 17.3897 88.9365 17.3527C88.9399 17.351 89.0045 17.3226 89.6139 17.0454C90.4265 16.6761 91.1531 15.8997 91.5094 15.0191C91.7427 14.4449 91.7668 13.9517 91.7814 13.6564C91.8116 13.0392 91.7177 12.4237 91.5034 11.8272C91.4371 11.643 91.3708 11.4631 91.2813 11.2797C91.129 10.9647 90.937 10.709 90.6942 10.4972C90.5083 10.3346 90.1967 10.0625 89.7155 10.0006C89.5718 9.98163 89.069 9.94375 88.6137 10.2528C88.5422 10.301 88.3253 10.4473 87.8407 11.4923C87.6659 11.8711 87.5075 12.2542 87.3707 12.632C87.2467 12.9574 87.1589 13.2131 87.1073 13.3706C86.9739 13.7735 86.9119 13.9431 86.8 14.2495L86.7896 14.277C86.6519 14.6549 86.5762 14.8426 86.3653 14.9622C86.3171 14.9907 86.058 15.1275 85.7894 15.0216C85.637 14.9614 85.5535 14.8521 85.4726 14.7462C85.3882 14.6343 85.3237 14.512 85.2789 14.3803L81.4234 6.48159L76.0674 12.7207C75.9831 12.8602 75.8574 13.1339 75.9065 13.4662C75.9271 13.6065 75.9753 13.7399 76.0511 13.8647L77.9569 15.6483C77.9629 15.6535 77.9681 15.6595 77.9724 15.6655C78.0378 15.7464 78.1067 15.8368 78.1781 15.9341C78.4605 16.3283 78.6877 16.7579 78.8547 17.2098C79.0389 17.7065 79.1052 18.1145 79.1207 18.2281C79.1534 18.4528 79.4031 20.468 78.0972 21.8237C77.8545 22.0751 77.4878 22.4547 76.893 22.57C76.2732 22.6914 75.5776 22.4891 75.1206 22.0553C74.9191 21.8633 74.8046 21.6662 74.7039 21.4923C74.5189 21.1721 74.3897 20.8226 74.32 20.4525C73.9318 18.3091 73.714 17.0781 73.671 16.708C73.6563 16.584 73.6176 16.4781 73.5565 16.3886C73.5152 16.3283 73.4385 16.2182 73.3404 16.1768C73.3129 16.1648 73.2862 16.1596 73.2569 16.1596C73.1614 16.1613 73.083 16.2388 73.0538 16.2715L67.641 22.6251C70.3397 28.2066 73.0391 33.7872 75.7386 39.3669C75.7868 39.4599 75.866 39.6097 75.965 39.7844C76.3197 40.4059 76.5314 40.7769 76.8396 41.0791C77.1994 41.4329 77.61 41.661 78.0602 41.7574C78.1609 41.7789 78.2616 41.7935 78.3598 41.8013C78.3658 41.8013 78.3718 41.8013 78.3778 41.8022V41.8013Z" fill="black"/>
</g>
</g>
</g>
<g id="arrow 2">
<g id="Group_12">
<path id="Vector_21" d="M105.508 62.5991L115.762 74.9689L116.032 74.8188L121.52 71.7586L111.265 59.3882L105.848 62.4092L105.508 62.5991Z" fill="#FF7E88"/>
<path id="Vector_22" d="M115.762 75.0932C115.783 75.0932 115.804 75.0882 115.822 75.0776L121.58 71.8673C121.612 71.8492 121.635 71.8181 121.641 71.7813C121.648 71.7446 121.638 71.7072 121.615 71.6792L111.36 59.3087C111.322 59.2626 111.256 59.2502 111.204 59.2794L105.447 62.4904C105.414 62.5085 105.392 62.5402 105.385 62.5764C105.378 62.6125 105.388 62.6505 105.412 62.6785L115.666 75.0483C115.69 75.0776 115.726 75.0932 115.762 75.0932ZM121.328 71.7228L115.791 74.8098L105.698 62.6349L105.907 62.5178L111.234 59.5473L121.327 71.7228H121.328Z" fill="black"/>
</g>
<g id="Group_13">
<path id="Vector_23" d="M110.274 73.189V82.881L116.031 79.6707V74.8178L115.762 74.9679L110.274 73.189Z" fill="#FF7E88"/>
<path id="Vector_24" d="M110.274 83.0056C110.295 83.0056 110.315 83.0006 110.334 82.99L116.091 79.7796C116.131 79.7578 116.156 79.7161 116.156 79.6706V74.8178C116.156 74.7735 116.132 74.7324 116.094 74.7106C116.056 74.6888 116.009 74.6876 115.97 74.7094L115.748 74.8327L110.312 73.0706C110.274 73.0581 110.232 73.065 110.2 73.088C110.168 73.1117 110.149 73.1491 110.149 73.1889V82.881C110.149 82.9252 110.173 82.9663 110.211 82.9881C110.23 82.9993 110.252 83.0056 110.274 83.0056ZM115.906 79.5978L110.398 82.6692V73.3609L115.723 75.0869C115.756 75.0974 115.792 75.0937 115.822 75.0769L115.906 75.0302V79.5978Z" fill="black"/>
</g>
<g id="Group_14">
<path id="Vector_25" d="M101.011 65.1086L106.498 66.8881V76.5808L110.151 77.7649L110.275 77.8054V73.1905L115.763 74.9694L105.508 62.5996L101.011 65.1086Z" fill="#FF444F"/>
<path id="Vector_26" d="M110.275 77.9302C110.301 77.9302 110.327 77.9221 110.348 77.9066C110.38 77.8829 110.4 77.8455 110.4 77.8057V73.362L115.725 75.088C115.778 75.1048 115.835 75.0855 115.866 75.0394C115.897 74.9934 115.894 74.9329 115.859 74.89L105.604 62.5201C105.565 62.474 105.5 62.4616 105.448 62.4909L100.95 64.9998C100.907 65.0241 100.882 65.0715 100.886 65.1207C100.891 65.1699 100.925 65.2116 100.972 65.2272L106.373 66.9787V76.5811C106.373 76.6353 106.408 76.6832 106.459 76.6994L110.236 77.924C110.248 77.9284 110.261 77.9302 110.274 77.9302H110.275ZM110.275 73.0662C110.249 73.0662 110.223 73.0743 110.202 73.0898C110.169 73.1135 110.15 73.1509 110.15 73.1907V77.6337L106.623 76.4901V66.8878C106.623 66.8336 106.588 66.7856 106.537 66.7694L101.321 65.0777L105.479 62.7581L115.393 74.718L110.313 73.0711C110.301 73.0668 110.288 73.0649 110.274 73.0649L110.275 73.0662Z" fill="black"/>
</g>
<g id="Group_15">
<path id="Vector_27" d="M95.2533 68.3189L100.742 70.0991V79.7911L104.394 80.9759L104.517 81.0164L110.275 82.8825V73.1905L115.763 74.9694L105.508 62.5996L100.091 65.6206L99.7511 65.8099L95.2533 68.3189Z" fill="#FF444F"/>
<path id="Vector_28" d="M110.275 83.0073C110.301 83.0073 110.327 82.9993 110.349 82.9837C110.381 82.96 110.4 82.9226 110.4 82.8828V73.362L115.725 75.088C115.777 75.1048 115.835 75.0855 115.866 75.0394C115.897 74.9934 115.894 74.9329 115.859 74.89L105.604 62.5201C105.565 62.474 105.5 62.4616 105.448 62.4909L95.1926 68.2102C95.1496 68.2345 95.1247 68.2818 95.1291 68.331C95.134 68.3802 95.1677 68.4219 95.2144 68.4375L100.617 70.1897V79.7914C100.617 79.8456 100.652 79.8936 100.703 79.9098L104.478 81.135L110.236 83.0011C110.248 83.0055 110.261 83.0073 110.274 83.0073H110.275ZM110.275 73.0662C110.249 73.0662 110.223 73.0743 110.202 73.0898C110.169 73.1135 110.15 73.1509 110.15 73.1907V82.7115L104.433 80.8578L100.866 79.7011V70.0994C100.866 70.0452 100.832 69.9972 100.78 69.981L95.5638 68.2887L105.479 62.7587L115.393 74.7187L110.313 73.0718C110.301 73.0674 110.288 73.0655 110.274 73.0655L110.275 73.0662Z" fill="black"/>
</g>
</g>
<g id="arrow 1">
<g id="Group_16">
<path id="Vector_29" d="M33.2792 63.9682L48.3736 82.1763L48.7697 81.9554L56.8483 77.4508L41.7538 59.2417L33.7798 63.6885L33.2792 63.9682Z" fill="#FF7E88"/>
<path id="Vector_30" d="M48.3737 82.3593C48.4039 82.3593 48.4351 82.352 48.4626 82.3364L56.9372 77.6109C56.9849 77.5843 57.0179 77.5384 57.028 77.4843C57.0381 77.4302 57.0234 77.3752 56.9886 77.334L41.8941 59.1249C41.8373 59.0571 41.7401 59.0387 41.664 59.0818L33.1893 63.8083C33.1417 63.8349 33.1087 63.8816 33.0986 63.9348C33.0885 63.988 33.1032 64.0439 33.138 64.0852L48.2325 82.2933C48.2682 82.3364 48.3205 82.3593 48.3737 82.3593ZM56.5659 77.3981L48.4167 81.9422L33.5598 64.021L33.8678 63.8486L41.7089 59.4761L56.565 77.3981H56.5659Z" fill="black"/>
</g>
<g id="Group_17">
<path id="Vector_31" d="M40.2939 79.5571V93.8237L48.7686 89.0981V81.9547L48.3725 82.1757L40.2939 79.5571Z" fill="#FF7E88"/>
<path id="Vector_32" d="M40.2944 94.0072C40.3255 94.0072 40.3558 93.9998 40.3833 93.9842L48.858 89.2587C48.9157 89.2266 48.9524 89.1652 48.9524 89.0982V81.9549C48.9524 81.8898 48.9176 81.8293 48.8616 81.7972C48.8057 81.7651 48.736 81.7633 48.6792 81.7953L48.3528 81.9769L40.3503 79.3831C40.2944 79.3647 40.2329 79.3748 40.1862 79.4087C40.1385 79.4436 40.111 79.4986 40.111 79.5573V93.8238C40.111 93.8889 40.1458 93.9494 40.2018 93.9815C40.2302 93.998 40.2623 94.0072 40.2944 94.0072ZM48.5856 88.991L40.4777 93.512V79.8103L48.3161 82.351C48.3647 82.3666 48.4169 82.3611 48.4619 82.3363L48.5856 82.2675V88.991Z" fill="black"/>
</g>
<g id="Group_18">
<path id="Vector_33" d="M26.6587 67.6604L34.7364 70.2799V84.5474L40.1129 86.2904L40.2953 86.35V79.5568L48.3739 82.1754L33.2794 63.9673L26.6587 67.6604Z" fill="#FF444F"/>
<path id="Vector_34" d="M40.2954 86.5329C40.3339 86.5329 40.3715 86.521 40.4027 86.4981C40.4504 86.4632 40.4788 86.4082 40.4788 86.3495V79.8086L48.3171 82.3492C48.395 82.374 48.4794 82.3456 48.5252 82.2777C48.5711 82.2099 48.5665 82.1209 48.5142 82.0577L33.4198 63.8495C33.3629 63.7817 33.2667 63.7633 33.1896 63.8064L26.5689 67.4996C26.5057 67.5353 26.469 67.605 26.4754 67.6774C26.4827 67.7499 26.5322 67.8113 26.601 67.8342L34.5521 70.4125V84.547C34.5521 84.6267 34.6035 84.6973 34.6786 84.7212L40.2376 86.5237C40.256 86.5302 40.2752 86.5329 40.2945 86.5329H40.2954ZM40.2954 79.3731C40.2569 79.3731 40.2193 79.385 40.1872 79.4079C40.1395 79.4427 40.112 79.4978 40.112 79.5564V86.0965L34.9198 84.4131V70.2786C34.9198 70.1988 34.8684 70.1282 34.7933 70.1044L27.1154 67.6142L33.2355 64.1998L47.8293 81.8046L40.3513 79.3804C40.333 79.374 40.3137 79.3712 40.2945 79.3712L40.2954 79.3731Z" fill="black"/>
</g>
<g id="Group_19">
<path id="Vector_35" d="M18.1841 72.386L26.2626 75.0064V89.2729L31.6392 91.0168L31.8207 91.0764L40.2953 93.8234V79.5568L48.3739 82.1754L33.2794 63.9673L25.3054 68.4141L24.8048 68.6928L18.1841 72.386Z" fill="#FF444F"/>
<path id="Vector_36" d="M40.2954 94.0063C40.3339 94.0063 40.3715 93.9944 40.4036 93.9715C40.4513 93.9366 40.4788 93.8816 40.4788 93.823V79.8086L48.3171 82.3492C48.3941 82.374 48.4794 82.3456 48.5252 82.2777C48.5711 82.2099 48.5665 82.1209 48.5142 82.0577L33.4198 63.8495C33.3629 63.7817 33.2667 63.7633 33.1896 63.8064L18.0943 72.2251C18.031 72.2609 17.9943 72.3306 18.0008 72.403C18.0081 72.4754 18.0576 72.5369 18.1264 72.5598L26.0784 75.1389V89.2725C26.0784 89.3523 26.1297 89.4229 26.2049 89.4467L31.7621 91.2502L40.2376 93.9972C40.256 94.0036 40.2752 94.0063 40.2945 94.0063H40.2954ZM40.2954 79.3731C40.2569 79.3731 40.2193 79.385 40.1872 79.4079C40.1395 79.4427 40.112 79.4978 40.112 79.5564V93.5708L31.6961 90.8422L26.4461 89.1396V75.006C26.4461 74.9262 26.3947 74.8556 26.3195 74.8318L18.6407 72.3407L33.2355 64.2007L47.8293 81.8055L40.3513 79.3813C40.333 79.3749 40.3137 79.3721 40.2945 79.3721L40.2954 79.3731Z" fill="black"/>
</g>
</g>
</g>
</g>
</svg>
