<svg width="128" height="128" viewBox="0 0 128 128" fill="none" xmlns="http://www.w3.org/2000/svg">
<g id="illustration / deriv / light / lock-success">
<g id="vector">
<g id="lock">
<path id="Vector" d="M16.3039 44.7726C16.3127 43.0893 17.2771 41.4235 19.1708 40.7659L34.505 35.4967C36.8722 34.6813 39.4586 34.7339 41.7908 35.637L96.8676 56.9155C98.7088 57.6257 99.5768 59.4054 99.4014 61.0888H99.4277V104.856H99.4102C99.5417 106.329 98.8754 107.872 97.3674 108.705L95.4824 109.748C85.8733 115.07 74.3792 115.762 64.2003 111.633L18.9692 93.2915C17.4086 92.6602 16.5494 91.3451 16.3565 89.9423L16.3127 89.9248V44.7639L16.3039 44.7726Z" fill="#EBECEF"/>
<path id="Vector (Stroke)" fill-rule="evenodd" clip-rule="evenodd" d="M41.8987 35.3568C39.5008 34.4284 36.8415 34.3743 34.4071 35.2128L19.0732 40.4819C17.0471 41.1854 16.0131 42.9737 16.0037 44.7708L15.9999 45.5004L16.0125 45.4878V90.1276L16.0864 90.1572C16.338 91.5906 17.252 92.9203 18.8565 93.5693L64.0873 111.911C74.3502 116.074 85.9392 115.376 95.6276 110.01L97.5122 108.967C99.0223 108.133 99.7472 106.634 99.7257 105.155H99.7275V60.7885H99.7215C99.7699 59.0872 98.836 57.353 96.9756 56.6354C96.9756 56.6354 96.9755 56.6353 96.9756 56.6354L41.8987 35.3568ZM99.1275 61.3885H99.0684L99.1029 61.0574C99.2658 59.4934 98.4603 57.8511 96.7595 57.1951L41.6825 35.9165C39.4161 35.039 36.9025 34.9879 34.6025 35.7801L19.269 41.049C17.601 41.6282 16.7092 43.0433 16.6125 44.5247V89.7214L16.6297 89.7283L16.6535 89.9012C16.8331 91.2076 17.6296 92.4258 19.0815 93.0131L64.3128 111.355C74.4078 115.45 85.807 114.763 95.3369 109.485L97.2219 108.442C98.6165 107.672 99.2331 106.248 99.1112 104.882L99.082 104.555H99.1275V61.3885Z" fill="black"/>
<path id="Vector_2" d="M19.1809 40.7745L30.7012 36.8117V17.3743C30.7012 8.05455 40.1876 1.73324 48.7884 5.31911L71.6889 14.8668C79.6672 18.1897 84.8576 25.9839 84.8576 34.6286V52.2774L96.8601 56.9153C100.025 58.1428 100.332 62.5089 97.3599 64.1484L95.4749 65.1918C85.8658 70.5136 74.3717 71.2062 64.1928 67.0768L18.9617 48.7353C15.3144 47.2536 15.4547 42.0458 19.1809 40.7658V40.7745ZM71.8906 47.2712V36.2681C71.8906 31.3583 68.9096 26.9396 64.3506 25.1159L46.4388 17.9091C45.185 17.4006 43.8173 18.33 43.8173 19.6801V36.4259L71.8906 47.2712Z" fill="white"/>
<g id="Group">
<path id="Vector_3" d="M34.4155 69.3298L36.6249 70.2328V77.9744C36.6249 79.0441 37.2562 80.0172 38.2381 80.4468L53.8879 87.3468V89.0038C53.8879 90.9502 51.8802 92.2566 50.1004 91.4763L32.3113 83.6382C31.3294 83.2086 30.6981 82.2354 30.6981 81.1658V71.8372C30.6981 69.9172 32.6445 68.6108 34.4155 69.3385V69.3298Z" fill="#B1B4BC"/>
<path id="Vector_4" d="M36.6249 77.9745V70.2329L52.2046 76.5893C53.2216 77.0014 53.8879 77.9921 53.8879 79.088V87.3469L38.2381 80.4469C37.2562 80.0173 36.6249 79.0442 36.6249 77.9745Z" fill="#EBECEF"/>
</g>
<path id="Union" fill-rule="evenodd" clip-rule="evenodd" d="M30.4023 71.8373C30.4023 69.7047 32.5643 68.2522 34.5334 69.061L52.322 76.3202C53.4494 76.7772 54.1886 77.8737 54.1922 79.088V89.0039C54.1922 91.1674 51.961 92.6178 49.9837 91.7508L32.1948 83.9129C31.1032 83.4351 30.4023 82.3536 30.4023 81.1658V71.8373ZM53.5921 86.7755V79.0967C53.5921 78.1228 52.9991 77.2419 52.0955 76.8758L36.9054 70.677V78.2722C36.9054 78.9446 37.3018 79.5538 37.9165 79.8263L53.5921 86.7755ZM53.5921 87.4318V89.0039C53.5921 90.733 51.8075 91.8951 50.2254 91.2017L32.4365 83.3637C31.5646 82.9822 31.0023 82.1171 31.0023 81.1658V71.8373C31.0023 70.1299 32.7328 68.9698 34.3057 69.6161L36.3054 70.4321V78.2722C36.3054 79.1819 36.8416 80.0061 37.6733 80.3748L53.5921 87.4318Z" fill="black"/>
<g id="Group_2">
<path id="Vector (Stroke)_2" fill-rule="evenodd" clip-rule="evenodd" d="M43.5165 35.9883V43.7027C43.5165 43.9977 43.3309 44.3152 42.9302 44.6458C42.5351 44.9717 41.9777 45.2702 41.3495 45.5284C40.1003 46.0417 38.6431 46.3667 37.8207 46.4451H36.8116L36.7981 46.4463C35.9004 46.5276 34.4241 46.2058 33.1641 45.6123C32.538 45.3174 31.9861 44.9648 31.5953 44.5806C31.2023 44.1943 31.0005 43.8053 31.0005 43.4309V36.3911L19.0826 40.4907C19.0827 40.4907 19.0826 40.4907 19.0826 40.4907C15.0941 41.861 14.9441 47.436 18.848 49.0219L64.0792 67.3634C64.0793 67.3634 64.0792 67.3634 64.0792 67.3634C74.3421 71.5269 85.9311 70.8286 95.6194 65.4629C95.6194 65.4629 95.6194 65.4629 95.6194 65.4629L97.504 64.4198C100.701 62.6562 100.368 57.963 96.9679 56.6443L84.5568 51.8485V59.8523C84.5568 60.1658 84.38 60.5039 84.0192 60.854C83.6618 61.2008 83.1565 61.5265 82.583 61.8104C81.4369 62.3777 80.0891 62.7445 79.2772 62.7963H78.2523L78.2432 62.7968C77.36 62.8507 75.8089 62.6132 74.4782 62.1273C73.8145 61.8849 73.2272 61.5883 72.8116 61.2517C72.3928 60.9125 72.1898 60.5685 72.1898 60.2293V47.0654L43.5165 35.9883ZM71.5898 47.4768V60.2293C71.5898 60.8282 71.9498 61.3259 72.4339 61.718C72.9212 62.1126 73.5767 62.4368 74.2724 62.6909C75.6564 63.1963 77.2852 63.4541 78.2704 63.3963H79.2958L79.3049 63.3957C80.2125 63.3401 81.644 62.9447 82.8492 62.3481C83.4534 62.049 84.0185 61.6907 84.437 61.2846C84.8521 60.8819 85.1568 60.398 85.1568 59.8523V52.7236L96.7509 57.2037C99.6806 58.3399 99.9615 62.379 97.2142 63.8944L95.3289 64.938C85.7991 70.2159 74.3998 70.9028 64.3048 66.8074L19.0738 48.4661C15.6833 47.0886 15.8139 42.248 19.2776 41.0581L30.4005 37.232V43.4309C30.4005 44.0298 30.7221 44.5636 31.1747 45.0085C31.6295 45.4556 32.2455 45.8428 32.9084 46.1551C34.2205 46.7731 35.7984 47.1348 36.8384 47.0451H37.8486L37.8625 47.0438C38.7434 46.9621 40.2679 46.6215 41.5775 46.0833C42.2321 45.8144 42.8512 45.4887 43.312 45.1086C43.7671 44.7331 44.1165 44.2626 44.1165 43.7027V36.8633L71.5898 47.4768Z" fill="black"/>
<path id="Vector (Stroke)_3" fill-rule="evenodd" clip-rule="evenodd" d="M44.1166 19.6803C44.1166 18.5413 45.2703 17.7594 46.3253 18.1873L46.326 18.1876L64.2379 25.3944L64.2384 25.3946C68.6832 27.1725 71.5898 31.4807 71.5898 36.2682V47.2713H72.1898V36.2682C72.1898 31.2363 69.1346 26.7069 64.4613 24.8375L46.5508 17.6313C46.5506 17.6312 46.5504 17.6311 46.5502 17.631C45.0978 17.0424 43.5166 18.1191 43.5166 19.6803V36.426H44.1166V19.6803Z" fill="black"/>
<path id="Vector (Stroke)_4" fill-rule="evenodd" clip-rule="evenodd" d="M48.9032 5.04223C40.1047 1.37398 30.4006 7.84044 30.4006 17.3743V36.8117H31.0006V17.3743C31.0006 8.26869 40.269 2.09254 48.6723 5.59603L71.5728 15.1437C79.4391 18.42 84.5569 26.1049 84.5569 34.6286V52.2774H85.1569V34.6286C85.1569 25.863 79.8939 17.9595 71.8037 14.5899C71.8037 14.59 71.8036 14.5899 71.8037 14.5899L48.9032 5.04223Z" fill="black"/>
</g>
</g>
<g id="block">
<g id="Group_3">
<path id="Vector_5" d="M67.3326 98.8399C67.6203 100.814 68.1592 104.266 70.4147 107.965C72.0114 110.581 73.8377 112.291 74.6345 112.99C75.5709 113.811 76.4358 114.428 77.1028 114.862C80.2914 116.389 83.4799 117.916 86.6718 119.443C82.2607 116.895 80.0452 113.294 79.1703 111.834C76.9099 108.058 76.3759 104.627 76.0882 102.641C75.19 96.4464 76.6437 91.6128 77.314 89.4721C78.139 86.8358 79.7707 82.8322 83.0574 78.8253C84.2933 77.3184 86.8015 74.3194 91.1112 71.8561C93.4913 70.4955 97.6662 68.1818 103.403 68.3532C106.181 68.4363 108.504 69.0784 110.191 69.7271C107.508 68.3947 104.825 67.0608 102.144 65.7285C100.762 65.2261 98.8555 64.6822 96.5402 64.451C93.5862 64.1533 91.2825 64.4926 90.3244 64.6606C86.7633 65.286 84.2816 66.6316 82.7763 67.46C81.9297 67.929 78.6863 69.7803 75.4212 73.3447C74.5929 74.2496 72.7366 76.3869 71.0101 79.5605C68.7946 83.6339 67.9014 87.3764 67.5072 89.8048C67.2244 91.5479 66.7338 94.7332 67.3326 98.8399Z" fill="#FF535E"/>
<path id="Vector_6" d="M86.6702 119.776C86.7899 119.776 86.9047 119.711 86.9646 119.598C87.0477 119.44 86.9912 119.243 86.8365 119.155C82.4071 116.595 80.1833 112.883 79.4531 111.662C77.1793 107.866 76.682 104.435 76.4142 102.592C75.5077 96.3498 77.0479 91.4247 77.6284 89.5701C78.8377 85.7013 80.7505 82.1568 83.3119 79.0364C84.3931 77.7174 86.923 74.6303 91.2742 72.1453C93.4947 70.8762 97.6297 68.5144 103.391 68.6857C105.667 68.7539 107.914 69.2096 110.07 70.0363C110.236 70.0995 110.422 70.0213 110.494 69.86C110.565 69.697 110.495 69.5073 110.337 69.4275C108.553 68.541 106.768 67.6544 104.983 66.7679L102.29 65.4306C102.279 65.4256 102.267 65.4206 102.255 65.4156C100.424 64.7503 98.5112 64.3145 96.5718 64.1199C94.4478 63.9053 92.2672 63.9802 90.2646 64.3328C86.5887 64.9782 84.0022 66.4036 82.6134 67.1687C81.1064 68.0037 78.1357 69.8866 75.1734 73.12C73.4951 74.953 71.9532 77.1253 70.7157 79.4023C68.9576 82.6325 67.7667 86.1154 67.1762 89.7514C66.9184 91.3415 66.3812 94.6482 66.9999 98.888C67.276 100.782 67.7917 104.309 70.1286 108.138C71.584 110.523 73.2606 112.228 74.4133 113.239C75.1983 113.929 76.0416 114.568 76.9199 115.142C76.9315 115.15 76.9448 115.157 76.9581 115.163C79.0822 116.181 81.2062 117.198 83.3302 118.214L86.5271 119.744C86.5737 119.766 86.6219 119.777 86.6702 119.777V119.776ZM102.814 68.0104C97.1656 68.0104 92.989 70.3989 90.9448 71.5665C86.4872 74.113 83.9024 77.2667 82.798 78.6139C80.1816 81.8008 78.2289 85.4202 76.9947 89.3722C76.4026 91.265 74.8291 96.2949 75.7572 102.689C76.0317 104.578 76.5423 108.094 78.8842 112.005C79.4414 112.936 80.8453 115.281 83.4018 117.51C81.3559 116.531 79.3117 115.553 77.2658 114.573C76.4209 114.021 75.6092 113.404 74.8524 112.74C73.7363 111.759 72.1079 110.104 70.6974 107.792C68.432 104.079 67.9297 100.641 67.6602 98.7931C67.0565 94.6548 67.5821 91.4164 67.8349 89.8595C68.4137 86.2967 69.5797 82.8853 71.3029 79.7217C72.5154 77.4912 74.0257 75.3638 75.6674 73.5708C78.5649 70.4072 81.4673 68.5676 82.9377 67.7526C84.2916 67.0057 86.8149 65.6152 90.3827 64.9898C91.7382 64.7503 93.9005 64.5208 96.5086 64.7836C98.3881 64.9715 100.239 65.394 102.014 66.0377L104.69 67.3667C105.382 67.711 106.074 68.0553 106.766 68.3979C105.662 68.1817 104.542 68.0569 103.416 68.0237C103.215 68.017 103.015 68.0154 102.818 68.0154L102.814 68.0104Z" fill="black"/>
</g>
<g id="Group_4">
<path id="Vector_7" d="M85.9591 94.3792C89.5519 97.7823 93.1463 101.187 96.739 104.592C99.6581 105.977 102.576 107.365 105.495 108.75C99.2789 102.862 93.0614 96.9706 86.844 91.0825C86.5579 91.8443 86.1903 92.972 85.9591 94.3792Z" fill="#FF444F"/>
<path id="Vector_8" d="M105.492 109.083C105.599 109.083 105.704 109.031 105.767 108.938C105.86 108.803 105.84 108.62 105.722 108.509L87.0713 90.8411C86.9898 90.7645 86.8767 90.7329 86.7686 90.7579C86.6604 90.7828 86.5706 90.861 86.5324 90.9642C86.1215 92.0536 85.8188 93.1847 85.6292 94.324C85.6109 94.4338 85.6492 94.5436 85.729 94.6201C89.3217 98.0232 92.9161 101.428 96.5089 104.833C96.5338 104.856 96.5638 104.876 96.5954 104.891L105.351 109.049C105.398 109.071 105.446 109.081 105.494 109.081L105.492 109.083ZM86.9831 91.6727L103.743 107.551L96.9264 104.314C93.3885 100.962 89.8507 97.6107 86.3145 94.2592C86.4692 93.3859 86.692 92.5177 86.9831 91.6727Z" fill="black"/>
</g>
<g id="Group_5">
<path id="Vector_9" d="M89.0071 106.936C91.9478 110.224 95.7667 110.829 96.5568 110.939C101.301 111.596 104.754 109.281 105.505 108.749C102.586 107.363 99.6688 105.976 96.7497 104.59C96.2008 104.923 95.484 105.312 94.6141 105.676C94.2548 105.824 93.2269 106.239 91.8114 106.551C91.0779 106.713 90.1315 106.874 89.0054 106.934L89.0071 106.936Z" fill="#FF444F"/>
<path id="Vector_10" d="M98.2487 111.39C101.91 111.39 104.611 109.79 105.695 109.022C105.792 108.953 105.845 108.839 105.835 108.722C105.825 108.604 105.753 108.501 105.647 108.451L96.8914 104.293C96.7899 104.245 96.6718 104.251 96.577 104.309C95.9134 104.712 95.2098 105.07 94.4846 105.374C93.6396 105.723 92.6899 106.021 91.7401 106.231C90.8386 106.43 89.9138 106.557 88.9874 106.606C88.8593 106.613 88.7479 106.693 88.698 106.811C88.6497 106.929 88.6714 107.066 88.7578 107.16C91.5555 110.287 95.1117 111.077 96.5105 111.272C97.111 111.355 97.6931 111.392 98.2503 111.392L98.2487 111.39ZM104.83 108.799C103.38 109.714 100.414 111.139 96.5987 110.61C95.3512 110.437 92.2924 109.763 89.7276 107.215C90.4528 107.147 91.1746 107.034 91.8815 106.878C92.8695 106.66 93.8575 106.35 94.7391 105.986C95.4393 105.693 96.1196 105.351 96.765 104.97L104.83 108.8V108.799Z" fill="black"/>
</g>
<g id="Group_6">
<path id="Vector_11" d="M104.768 84.8046C104.976 85.5465 105.512 87.6622 105.256 90.4166C105.202 91.0021 105.118 91.5493 105.018 92.0516C107.608 94.52 110.196 96.985 112.785 99.4533C113.338 98.1693 114.073 96.0203 114.116 93.2891C114.143 91.7489 114.151 88.7916 112.33 85.7244C111.678 84.6267 109.742 81.7408 106.026 80.3303C104.67 79.8147 103.345 79.5985 102.1 79.5752C102.905 80.5965 104.076 82.3529 104.768 84.8046Z" fill="#FF444F"/>
<path id="Vector_12" d="M112.783 99.7857C112.804 99.7857 112.828 99.784 112.849 99.779C112.956 99.7574 113.045 99.6842 113.089 99.5844C113.955 97.5702 114.413 95.4544 114.446 93.2938C114.471 91.8251 114.522 88.7696 112.613 85.5545C111.733 84.0708 109.722 81.3779 106.141 80.019C104.855 79.53 103.496 79.2688 102.104 79.2422C101.968 79.2406 101.856 79.3121 101.8 79.4269C101.743 79.5416 101.757 79.6797 101.836 79.7811C103.041 81.308 103.919 83.0296 104.446 84.8958C104.785 86.1017 105.141 88.0328 104.922 90.3864C104.872 90.9203 104.794 91.4592 104.689 91.9881C104.667 92.0996 104.702 92.216 104.785 92.2942C107.362 94.7492 109.935 97.2009 112.511 99.656L112.553 99.6959C112.616 99.7558 112.698 99.7874 112.783 99.7874V99.7857ZM102.789 79.9425C103.862 80.0273 104.907 80.2618 105.905 80.6411C109.296 81.9285 111.204 84.4849 112.041 85.8938C113.854 88.9476 113.804 91.8767 113.781 93.2838C113.751 95.1983 113.375 97.0778 112.661 98.8775C110.233 96.5639 107.806 94.2519 105.376 91.9366C105.469 91.4442 105.539 90.9436 105.584 90.4462C105.813 87.9912 105.439 85.9736 105.085 84.7145C104.599 82.993 103.827 81.3912 102.789 79.9425Z" fill="black"/>
</g>
<g id="Group_7">
<path id="Vector_13" d="M77.3106 89.4727C78.1356 86.8364 79.7673 82.8311 83.054 78.8259C84.2898 77.3206 86.7981 74.32 91.1094 71.8566C93.4879 70.4977 97.6628 68.1824 103.403 68.3537C107.826 68.4868 111.097 70.0337 112.473 70.7705C113.404 71.2678 116.506 73.021 119.233 76.5838C122.024 80.2314 122.885 83.7775 123.331 85.6887C124.336 90.0116 123.97 93.463 123.752 95.3541C123.55 97.1089 122.972 100.805 120.986 105.055C118.379 110.63 114.841 113.97 113.842 114.878C111.728 116.799 107.786 120.38 101.443 121.603C99.4475 121.987 93.3632 123.068 87.154 119.712C82.4203 117.153 80.075 113.344 79.1685 111.831C76.9081 108.057 76.3758 104.624 76.0864 102.638C75.1866 96.4453 76.642 91.61 77.3123 89.4694L77.3106 89.4727Z" fill="#FF7E88"/>
<path id="Vector_14" d="M77.3106 89.4727C78.1356 86.8364 79.7673 82.8311 83.054 78.8259C84.2898 77.3206 86.7981 74.32 91.1094 71.8566C93.4879 70.4977 97.6628 68.1824 103.403 68.3537C107.826 68.4868 111.097 70.0337 112.473 70.7705C113.404 71.2678 116.506 73.021 119.233 76.5838C122.024 80.2314 122.885 83.7775 123.331 85.6887C124.336 90.0116 123.97 93.463 123.752 95.3541C123.55 97.1089 122.972 100.805 120.986 105.055C118.379 110.63 114.841 113.97 113.842 114.878C111.728 116.799 107.786 120.38 101.443 121.603C99.4475 121.987 93.3632 123.068 87.154 119.712C82.4203 117.153 80.075 113.344 79.1685 111.831C76.9081 108.057 76.3758 104.624 76.0864 102.638C75.1866 96.4453 76.642 91.61 77.3123 89.4694L77.3106 89.4727Z" stroke="#0E0E0E" stroke-width="0.6"/>
<path id="Vector_15" d="M95.6853 100.913L91.4654 97.2916C90.3018 96.2932 88.5519 96.4155 87.5385 97.5661C86.5016 98.7434 86.6336 100.543 87.8312 101.556L95.9034 108.388C96.0872 108.543 96.362 108.522 96.5194 108.339L112.242 90.1183C113.226 88.9788 113.128 87.2646 112.021 86.2444C110.858 85.1721 109.036 85.2808 108.009 86.4839L95.6853 100.913Z" fill="#FF444F"/>
<path id="Vector_16" d="M95.6858 100.913L91.4658 97.2916C90.3023 96.2932 88.5524 96.4155 87.539 97.5661C86.5021 98.7434 86.6341 100.543 87.8316 101.556L95.9039 108.388C96.0877 108.543 96.3625 108.522 96.5198 108.339L112.243 90.1183C113.226 88.9788 113.128 87.2646 112.021 86.2444C110.858 85.1721 109.037 85.2808 108.009 86.4839L95.6858 100.913Z" stroke="#0E0E0E" stroke-width="0.6"/>
</g>
</g>
</g>
</g>
</svg>
