<svg width="64" height="64" viewBox="0 0 64 64" fill="none" xmlns="http://www.w3.org/2000/svg">
<g id="illustration / deriv / light / passport-kyc">
<g id="Vector">
<path d="M49.9853 7.47461H49.1861H18.8664H14.0147C11.9413 7.47461 10.2594 9.15073 10.25 11.2219C10.25 11.2277 10.25 11.2335 10.25 11.2393V58.7099C10.25 60.7891 11.9355 62.4746 14.0147 62.4746H49.9853C52.0645 62.4746 53.75 60.7891 53.75 58.7099V11.2393C53.75 9.24333 52.1967 7.61014 50.2329 7.48262C50.1511 7.47731 50.0685 7.47461 49.9853 7.47461Z" fill="#84ABAE"/>
<path fill-rule="evenodd" clip-rule="evenodd" d="M49.9853 8.47461H49.1854H14.0147C12.4878 8.47461 11.25 9.71241 11.25 11.2393V58.7099C11.25 60.2368 12.4878 61.4746 14.0147 61.4746H49.9853C51.5122 61.4746 52.75 60.2368 52.75 58.7099V11.2393C52.75 9.79587 51.6438 8.61079 50.2329 8.48555C50.1514 8.47831 50.0688 8.47461 49.9853 8.47461ZM14.0147 7.47461H18.8664H49.1861H49.9853C50.0685 7.47461 50.1511 7.47731 50.2329 7.48262C52.1967 7.61014 53.75 9.24333 53.75 11.2393V58.7099C53.75 60.7891 52.0645 62.4746 49.9853 62.4746H14.0147C11.9355 62.4746 10.25 60.7891 10.25 58.7099V11.2393C10.25 11.2335 10.25 11.2277 10.25 11.2219C10.2594 9.15073 11.9413 7.47461 14.0147 7.47461Z" fill="white"/>
<path d="M42.75 43.4746H20.75C20.1977 43.4746 19.75 43.9223 19.75 44.4746V46.4746C19.75 47.0269 20.1977 47.4746 20.75 47.4746H42.75C43.3023 47.4746 43.75 47.0269 43.75 46.4746V44.4746C43.75 43.9223 43.3023 43.4746 42.75 43.4746Z" fill="white"/>
<path d="M42.75 49.4746H20.75C20.1977 49.4746 19.75 49.9223 19.75 50.4746V52.4746C19.75 53.0269 20.1977 53.4746 20.75 53.4746H42.75C43.3023 53.4746 43.75 53.0269 43.75 52.4746V50.4746C43.75 49.9223 43.3023 49.4746 42.75 49.4746Z" fill="white"/>
<path fill-rule="evenodd" clip-rule="evenodd" d="M23.2885 26.9269C23.2885 22.2801 27.0555 18.5131 31.7023 18.5131C36.3491 18.5131 40.1161 22.2801 40.1161 26.9269C40.1161 31.5737 36.3491 35.3407 31.7023 35.3407C27.0555 35.3407 23.2885 31.5737 23.2885 26.9269ZM28.2278 22.0346C28.3438 21.7065 28.4715 21.3959 28.6097 21.1055C28.8413 20.6188 29.1117 20.1718 29.4176 19.791C28.0883 20.2162 26.9206 21.0025 26.0297 22.0346H28.2278ZM27.4625 26.4662C27.4959 25.206 27.6654 24.0149 27.9444 22.9576H25.3485C24.7045 23.9864 24.3033 25.1827 24.2255 26.4663L27.4625 26.4662ZM28.9018 22.9576H31.2416V26.4662H28.386C28.4219 25.179 28.6075 23.9847 28.9018 22.9576ZM29.2129 22.0346C29.2858 21.849 29.3627 21.6713 29.4432 21.5021C29.9769 20.3808 30.6156 19.7297 31.2416 19.5154V22.0346H29.2129ZM32.1615 22.0346H34.1923C34.1194 21.849 34.0425 21.6713 33.962 21.5021C33.4277 20.3795 32.7877 19.7282 32.1609 19.5147L32.1615 22.0346ZM34.5034 22.9576H32.1618L32.1626 26.4662H35.0192C34.9833 25.179 34.7977 23.9847 34.5034 22.9576ZM35.9427 26.4662C35.9093 25.206 35.7398 24.0149 35.4608 22.9576H38.0561C38.7001 23.9863 39.1012 25.1826 39.1791 26.4662H35.9427ZM35.1774 22.0346C35.0614 21.7065 34.9337 21.3959 34.7955 21.1055C34.5639 20.6189 34.2935 20.1719 33.9876 19.7912C35.3166 20.2164 36.4841 21.0027 37.3749 22.0346H35.1774ZM35.547 30.5502C35.7746 29.5822 35.9128 28.5132 35.9426 27.3892L39.1791 27.388C39.1097 28.53 38.7845 29.6029 38.26 30.5502H35.547ZM35.0192 27.3892H32.1628L32.1636 30.5502H34.5968C34.8368 29.6049 34.9871 28.5338 35.0192 27.3892ZM28.386 27.3892H31.2416V30.5502H28.8084C28.5684 29.6049 28.4181 28.5338 28.386 27.3892ZM27.8582 30.5502C27.6306 29.5822 27.4924 28.5132 27.4626 27.3892H24.2256C24.2951 28.5308 24.6203 29.6033 25.1446 30.5502H27.8582ZM28.6097 32.7484C28.4238 32.3576 28.257 31.9305 28.1118 31.4732H25.7485C26.668 32.6756 27.9435 33.5913 29.4176 34.0628C29.1117 33.682 28.8413 33.235 28.6097 32.7484ZM31.2416 31.4732H29.0846C29.1939 31.7863 29.3139 32.0799 29.4432 32.3517C29.9768 33.4728 30.6153 34.1239 31.2412 34.3382L31.2416 31.4732ZM34.3206 31.4732C34.2113 31.7863 34.0913 32.0799 33.962 32.3517C33.4285 33.4727 32.7896 34.1238 32.1636 34.3382L32.1638 31.4732H34.3206ZM34.7955 32.7484C34.9814 32.3576 35.1482 31.9305 35.2934 31.4732H37.6561C36.7367 32.6754 35.4615 33.591 33.9876 34.0626C34.2935 33.6819 34.5639 33.2349 34.7955 32.7484Z" fill="white"/>
<path d="M45.9724 2.57136L45.971 2.5716L18.8664 7.47461H49.1861L49.1881 4.79539C48.9143 3.29326 47.4745 2.29752 45.9724 2.57136Z" fill="#E0F0F0"/>
<path d="M45.793 1.58757L14.0147 7.47461H18.8664L45.971 2.5716L45.9724 2.57136C47.4745 2.29752 48.9143 3.29326 49.1881 4.79539L49.1861 7.47461H49.9853C50.0685 7.47461 50.1511 7.47731 50.2329 7.48262V5.29124C50.2329 5.06481 50.2125 4.83884 50.1719 4.61608C49.799 2.5706 47.8385 1.21469 45.793 1.58757Z" fill="white"/>
</g>
</g>
</svg>
