<svg width="120" height="152" viewBox="0 0 120 152" fill="none" xmlns="http://www.w3.org/2000/svg">
<g id="illustration / deriv / light / ic-edit-passkey">
<path id="Vector" d="M114.62 85.7311C114.609 87.4474 114.546 90.9276 112.473 94.2874C112.077 94.9284 111.63 95.5318 111.135 96.0908L100.356 106.512C101.434 105.454 102.325 104.202 102.989 102.815C104.664 99.2939 104.309 95.999 104.063 93.7269C103.373 87.3366 100.1 83.0426 98.6445 81.1869C97.1955 79.336 93.345 74.5527 86.7105 72.6717C84.393 72.0162 80.541 70.9253 76.341 72.7699C75.66 73.0692 74.091 73.8323 72.519 75.3191L83.838 64.0616C85.263 63.1622 88.128 61.6438 91.944 61.5441C95.124 61.4602 97.4655 62.3991 99.0435 63.0546C100.142 63.509 105.564 65.8602 109.85 72.0574C111.104 73.8703 114.659 79.0114 114.62 85.7311Z" fill="#FF444F"/>
<path id="Vector_2" d="M100.356 106.81C100.299 106.81 100.244 106.792 100.197 106.759C100.151 106.725 100.114 106.678 100.093 106.622C100.073 106.567 100.068 106.506 100.08 106.448C100.093 106.389 100.121 106.336 100.162 106.295C101.217 105.261 102.089 104.038 102.738 102.682C104.373 99.2401 104.032 96.075 103.783 93.7633C103.086 87.3223 99.7019 83.0014 98.4269 81.3753C97.1624 79.7619 93.3164 74.8504 86.6369 72.9583C84.3629 72.3155 80.5589 71.2373 76.4474 73.0438C75.0771 73.6493 73.8122 74.4922 72.7049 75.5376C72.6494 75.5881 72.5775 75.6139 72.5043 75.6093C72.4311 75.6048 72.3625 75.5704 72.3129 75.5134C72.2634 75.4563 72.2368 75.3812 72.2389 75.3038C72.2409 75.2265 72.2714 75.153 72.3239 75.099L83.6429 63.8415C83.6579 63.8273 83.6729 63.8146 83.6924 63.8035C86.2304 62.2043 89.0819 61.3208 91.9349 61.2448C95.2394 61.1593 97.6844 62.1695 99.1439 62.7759C101.098 63.5834 106.071 66.0898 110.074 71.8801C111.279 73.6218 114.939 78.9164 114.898 85.7311C114.889 87.2907 114.868 90.9434 112.707 94.4473C112.302 95.1028 111.845 95.7199 111.339 96.2919L111.324 96.3078L101.445 105.858L100.545 106.729C100.493 106.78 100.425 106.808 100.354 106.808L100.356 106.81ZM81.2654 71.451C83.4854 71.451 85.4054 71.9941 86.7824 72.3852C93.6374 74.3279 97.5674 79.3487 98.8604 80.9985C100.164 82.661 103.626 87.0785 104.341 93.6953C104.584 95.9483 104.95 99.3493 103.239 102.95C103.119 103.2 102.993 103.447 102.858 103.689L110.935 95.8803C111.415 95.334 111.853 94.745 112.236 94.1259C114.306 90.7677 114.327 87.2384 114.336 85.7295C114.375 79.1096 110.922 74.1142 109.621 72.2332C105.703 66.568 100.846 64.1202 98.9384 63.3301C97.5179 62.7427 95.1389 61.7563 91.9484 61.8402C89.2019 61.913 86.4569 62.7633 84.0059 64.3007L75.3179 72.9409C77.1591 71.9511 79.1993 71.4403 81.2654 71.451Z" fill="black"/>
<path id="Vector_3" d="M105.63 101.413L105.612 111.391L95.2875 121.584C95.2875 117.642 95.283 113.695 95.2815 109.75C96.111 109.437 98.322 108.52 100.356 106.513L105.63 101.413Z" fill="#FF444F"/>
<path id="Vector_4" d="M95.2875 121.882C95.2127 121.882 95.141 121.851 95.0881 121.795C95.0352 121.739 95.0055 121.663 95.0055 121.584L94.9995 109.75C94.9995 109.624 95.0745 109.513 95.187 109.47C97.0316 108.776 98.7244 107.697 100.164 106.296L105.441 101.196C105.481 101.156 105.531 101.131 105.585 101.121C105.639 101.112 105.694 101.12 105.744 101.143C105.848 101.191 105.912 101.297 105.912 101.416L105.896 111.391C105.895 111.431 105.887 111.472 105.872 111.509C105.856 111.546 105.834 111.58 105.806 111.608L95.481 121.804C95.4286 121.855 95.3601 121.883 95.289 121.883L95.2875 121.882ZM95.5635 109.958L95.568 120.899L105.332 111.261L105.347 102.089L100.547 106.731C99.1009 108.14 97.4074 109.236 95.562 109.956L95.5635 109.958Z" fill="black"/>
<path id="Vector_5" d="M105.6 120.65L95.2575 130.91L90.7725 125.039L95.2875 121.586L101.604 115.347L105.6 120.65Z" fill="#FF444F"/>
<path id="Vector_6" d="M95.2576 131.208H95.2381C95.1996 131.205 95.162 131.193 95.1277 131.175C95.0934 131.156 95.0631 131.13 95.0386 131.098L90.5536 125.226C90.53 125.194 90.5125 125.158 90.5022 125.12C90.4919 125.081 90.489 125.041 90.4936 125.001C90.4984 124.961 90.511 124.922 90.5306 124.888C90.5502 124.853 90.5764 124.823 90.6076 124.8L95.1076 121.356L95.4781 120.99L101.412 115.132C101.44 115.104 101.474 115.082 101.511 115.068C101.547 115.055 101.586 115.049 101.625 115.052C101.664 115.055 101.702 115.066 101.736 115.086C101.77 115.105 101.8 115.131 101.825 115.164L105.819 120.468C105.863 120.526 105.884 120.6 105.879 120.674C105.874 120.748 105.842 120.818 105.791 120.868L98.7631 127.841L95.4481 131.13C95.396 131.181 95.3273 131.21 95.2561 131.209L95.2576 131.208ZM91.1791 125.096L95.2861 130.474L98.3791 127.406L105.219 120.62L101.574 115.784C99.6721 117.664 97.7686 119.543 95.8636 121.421L95.4796 121.801C95.4713 121.81 95.4623 121.819 95.4526 121.826L91.1791 125.096Z" fill="black"/>
<path id="Vector_7" d="M105.593 129.928L95.241 140.215L90.78 134.332L95.2575 130.912L101.597 124.621L105.593 129.928Z" fill="#FF444F"/>
<path id="Vector_8" d="M95.241 140.511H95.2215C95.1826 140.509 95.1446 140.497 95.1099 140.478C95.0753 140.459 95.0449 140.433 95.0205 140.4L90.561 134.518C90.5371 134.487 90.5196 134.45 90.5094 134.412C90.4993 134.373 90.4967 134.332 90.5019 134.292C90.5071 134.252 90.5199 134.214 90.5396 134.179C90.5593 134.144 90.5855 134.114 90.6165 134.091C92.1045 132.956 93.591 131.819 95.079 130.68L101.405 124.404C101.433 124.376 101.466 124.354 101.503 124.34C101.54 124.327 101.579 124.321 101.617 124.324C101.656 124.327 101.694 124.338 101.728 124.358C101.763 124.377 101.793 124.403 101.817 124.436L105.813 129.743C105.857 129.801 105.879 129.875 105.875 129.949C105.87 130.024 105.839 130.094 105.788 130.145L95.4345 140.43C95.3824 140.482 95.3137 140.51 95.2425 140.51L95.241 140.511ZM91.185 134.39L95.2695 139.778L105.21 129.901L101.565 125.059L95.4495 131.128L95.4195 131.152C94.0095 132.232 92.5965 133.312 91.185 134.39Z" fill="black"/>
<path id="Vector_9" d="M90.7006 87.9795C90.6841 88.3452 90.6511 88.9168 90.3391 89.5454C90.2656 89.6911 89.8756 90.4479 89.0521 90.9213C87.8341 91.618 86.5411 91.1936 85.9321 90.9941C84.5671 90.5445 83.7631 89.6293 83.3551 89.1543C82.9531 88.6856 81.8851 87.438 81.7756 85.6045C81.7501 85.1865 81.7156 84.4613 82.0681 83.6538C82.1836 83.3925 82.6081 82.4584 83.5981 81.9755C84.2731 81.6493 84.8821 81.6905 85.3471 81.7285C87.1381 81.8757 88.3561 83.0347 88.7446 83.4131C89.0386 83.7013 89.9026 84.6006 90.3901 86.0462C90.5296 86.4611 90.7411 87.1134 90.7006 87.9795Z" fill="#FF444F"/>
<path id="Vector_10" d="M87.5579 91.6005C86.8304 91.6005 86.2019 91.3947 85.8494 91.2775C84.3899 90.7978 83.5499 89.8224 83.1479 89.3554C82.7249 88.8614 81.6119 87.5583 81.4949 85.6234C81.4709 85.2355 81.4229 84.428 81.8129 83.5303C82.2839 82.4647 82.9799 81.9517 83.4809 81.7094C84.2384 81.3405 84.9194 81.3959 85.3709 81.4339C86.6459 81.5369 87.8444 82.1306 88.9364 83.1946C89.3774 83.6284 90.1889 84.561 90.6554 85.9464C90.7844 86.3344 91.0274 87.0548 90.9824 87.9953C90.9741 88.5822 90.8392 89.1594 90.5879 89.6831C90.2656 90.3135 89.7796 90.8336 89.1869 91.1825C88.6854 91.4645 88.1246 91.6083 87.5564 91.6005H87.5579ZM84.8444 81.9992C84.5114 81.9992 84.1244 82.0483 83.7164 82.2462C83.3009 82.4473 82.7219 82.8764 82.3244 83.7789C81.9944 84.5389 82.0364 85.2197 82.0574 85.5839C82.1594 87.3129 83.1794 88.5035 83.5634 88.9548C83.9339 89.3854 84.7034 90.28 86.0174 90.7107C86.5964 90.9007 87.8024 91.2997 88.9184 90.66C89.4145 90.3683 89.8214 89.9333 90.0914 89.406C90.3809 88.8234 90.4064 88.2866 90.4214 87.9652C90.4604 87.1419 90.2504 86.518 90.1244 86.1444C89.7961 85.1869 89.2573 84.3252 88.5524 83.63C87.5564 82.6594 86.4704 82.1179 85.3274 82.0245C85.1834 82.0119 85.0214 81.9992 84.8444 81.9992Z" fill="black"/>
<path id="Vector_11" d="M35.0429 35.4841C34.9619 33.1724 34.7099 26.0015 39.4919 20.6783C44.2604 15.3694 51.0314 15.2396 52.4969 15.2111C66.9914 14.934 82.4489 32.0483 81.1334 47.4794C81.0179 48.8316 80.3009 57.2628 73.9814 61.8798C68.8184 65.6529 62.8619 64.7251 60.3929 64.3387C47.6129 62.3485 35.5304 49.4364 35.0429 35.4841Z" fill="white"/>
<path id="Vector_12" d="M64.6906 65.0275C62.8831 65.0275 61.3546 64.79 60.3526 64.6348C54.1051 63.6626 47.7466 60.0051 42.9031 54.6028C37.8886 49.0057 34.9966 42.2196 34.7611 35.4951C34.6786 33.117 34.4251 25.8875 39.2881 20.4741C42.4156 16.9907 47.1061 15.0179 52.4941 14.915C59.4781 14.7804 67.1806 18.7086 73.1011 25.4204C75.8776 28.5681 78.1111 32.1844 79.5541 35.8783C81.1066 39.8493 81.7336 43.7617 81.4156 47.5063C81.1606 50.4893 79.9456 57.8851 74.1421 62.1252C70.9501 64.459 67.4881 65.0275 64.6906 65.0275ZM52.8406 15.5056C52.7296 15.5056 52.6156 15.5056 52.5046 15.5087C47.2681 15.6101 42.7186 17.5164 39.6961 20.8841C34.9966 26.1171 35.2411 33.1597 35.3221 35.473C35.5516 42.0549 38.3911 48.7017 43.3111 54.1943C48.0676 59.5016 54.3091 63.0926 60.4336 64.0474C62.9236 64.4353 68.7496 65.3426 73.8211 61.636C79.4266 57.5399 80.6086 50.3531 80.8546 47.4525C81.1651 43.8045 80.5516 39.9871 79.0336 36.1031C77.6131 32.4773 75.4186 28.9211 72.6886 25.8241C66.9691 19.342 59.5786 15.504 52.8406 15.504V15.5056Z" fill="black"/>
<path id="Vector_13" d="M91.2286 40.2087C90.4426 44.509 88.4386 47.5395 87.2011 49.1292L75.9316 60.1698C80.4586 55.434 81.0316 48.6764 81.1366 47.4794C82.4491 32.0482 66.9931 14.934 52.5001 15.211C51.1276 15.238 45.1081 15.3535 40.4341 19.7188L51.7306 8.35995C54.8298 6.35855 58.3533 5.20534 61.9816 5.00487C67.8511 4.6977 72.1321 7.12178 74.8306 8.6402C76.0846 9.34637 80.9956 12.2296 85.2406 18.2035C86.5966 20.1115 90.3706 25.5518 91.3066 33.3323C91.5061 34.979 91.7626 37.2748 91.2286 40.2087Z" fill="#EBECEE"/>
<path id="Vector_14" d="M75.9301 60.4675C75.8923 60.4672 75.855 60.4587 75.8205 60.4427C75.7859 60.4266 75.7548 60.4033 75.7291 60.3741C75.6779 60.3183 75.6496 60.2434 75.6504 60.1657C75.6513 60.088 75.6812 60.0138 75.7336 59.9592C79.7491 55.7587 80.6536 49.818 80.8561 47.4572C81.1666 43.8045 80.5546 39.9871 79.0336 36.1047C77.6146 32.4789 75.4201 28.9227 72.6901 25.8273C66.8761 19.2359 59.3311 15.3789 52.5061 15.5087C46.4791 15.6259 42.7156 17.9835 40.6216 19.9421C40.5664 19.9941 40.4939 20.0209 40.42 20.0167C40.3461 20.0126 40.2768 19.9778 40.2271 19.9199C40.1767 19.8628 40.1497 19.7871 40.152 19.7091C40.1542 19.6311 40.1855 19.5572 40.2391 19.5035L51.5371 8.14466C51.5521 8.13041 51.5671 8.11933 51.5851 8.10666C54.7246 6.08017 58.2932 4.91181 61.9681 4.70725C67.8916 4.3985 72.2971 6.87641 74.9281 8.35841L74.9626 8.37741C77.2351 9.65991 81.6226 12.616 85.4656 18.0231C88.8856 22.8332 90.9466 27.9712 91.5856 33.2927C91.7746 34.8555 92.0596 37.2194 91.5046 40.2642C90.9106 43.5147 89.4976 46.645 87.4171 49.3177C87.4089 49.3275 87.4004 49.337 87.3916 49.3462L76.1221 60.3867C76.0706 60.4379 76.0024 60.4663 75.9316 60.4659L75.9301 60.4675ZM52.8406 14.9118C59.7346 14.9118 67.2811 18.8195 73.1041 25.422C75.8806 28.5697 78.1111 32.1844 79.5571 35.8783C81.1096 39.8477 81.7366 43.7617 81.4171 47.5063C81.2191 49.8259 80.5636 53.7193 78.4531 57.2961L86.9986 48.9266C89.0116 46.3347 90.3796 43.301 90.9556 40.1549C91.4926 37.202 91.2166 34.8951 91.0306 33.3703C90.4036 28.1517 88.3801 23.1103 85.0186 18.3825C81.2386 13.0672 76.9321 10.1618 74.7016 8.90308L74.6671 8.88408C71.9191 7.33716 67.7671 5.00016 61.9996 5.30258C58.4286 5.50078 54.9605 6.63364 51.9076 8.59908L43.2586 17.2947C45.4876 16.0281 48.5146 14.9942 52.4956 14.9166C52.6111 14.9134 52.7266 14.9134 52.8436 14.9134L52.8406 14.9118Z" fill="black"/>
<path id="Vector_15" d="M77.22 104.647L77.2125 125.167L11.8965 106.356C11.8065 102.904 12.075 95.4783 16.287 87.7437C21.603 77.9809 29.847 73.8879 33.252 72.4772C40.464 69.491 46.7115 69.9502 49.782 70.213C57.537 70.8733 63.627 73.8674 67.6245 75.8323C68.7495 76.3864 69.7785 76.9327 70.6995 77.4473C70.4971 77.7424 70.3069 78.0467 70.1295 78.3593C69.232 79.9771 68.6425 81.7643 68.394 83.6207C68.2035 85.0204 68.2605 86.0844 68.313 86.99C68.477 89.6363 69.059 92.235 70.035 94.6787C70.3035 95.3484 71.5095 98.2887 74.0895 101.432C75.0447 102.596 76.091 103.672 77.22 104.647Z" fill="white"/>
<path id="Vector_16" d="M77.2125 125.463C77.1872 125.464 77.162 125.461 77.1375 125.454L11.823 106.644C11.7646 106.627 11.7128 106.591 11.6754 106.541C11.6381 106.491 11.6173 106.429 11.616 106.365C11.496 101.732 12.165 94.7182 16.0455 87.5964C21.129 78.2626 28.9455 73.9449 33.153 72.2C40.575 69.1268 47.0445 69.681 49.8075 69.9169C57.6105 70.5819 63.708 73.5807 67.7445 75.563C68.769 76.0665 69.8085 76.6128 70.833 77.186C70.8681 77.206 70.8988 77.2337 70.923 77.2671C70.9472 77.3006 70.9644 77.3391 70.9735 77.3801C70.9826 77.4211 70.9833 77.4637 70.9756 77.505C70.968 77.5463 70.9521 77.5854 70.929 77.6198C70.7235 77.9222 70.539 78.2135 70.3725 78.5112C69.4932 80.0952 68.9158 81.8454 68.673 83.6634C68.4855 85.052 68.547 86.1175 68.5965 86.9725C68.7465 89.5249 69.3345 92.15 70.2975 94.5646C70.7175 95.6128 71.946 98.3646 74.304 101.238C75.2445 102.385 76.287 103.455 77.403 104.419C77.4675 104.475 77.5065 104.56 77.5065 104.649L77.4975 125.169C77.4977 125.208 77.4906 125.247 77.4765 125.283C77.4624 125.319 77.4416 125.352 77.4154 125.38C77.3892 125.408 77.358 125.429 77.3237 125.444C77.2894 125.459 77.2526 125.467 77.2155 125.467L77.2125 125.463ZM12.1725 106.129L76.932 124.781L76.9395 104.788C75.8372 103.826 74.8127 102.768 73.8765 101.626C71.4645 98.6876 70.206 95.8693 69.777 94.7942C68.7901 92.3194 68.2006 89.6883 68.0325 87.009C67.983 86.127 67.92 85.0266 68.1165 83.5795C68.3698 81.684 68.9715 79.859 69.888 78.2072C70.0125 77.9871 70.143 77.7718 70.2855 77.5533C69.3701 77.0476 68.4439 76.564 67.5075 76.103C63.507 74.1365 57.465 71.1661 49.761 70.5091C47.037 70.2763 40.656 69.7316 33.357 72.7542C29.217 74.469 21.5295 78.7155 16.53 87.8941C12.78 94.7831 12.081 101.574 12.1725 106.129Z" fill="black"/>
<path id="Vector_17" d="M80.82 67.0621L72.5175 75.3192C71.8398 75.9569 71.2298 76.6705 70.698 77.4472C69.6865 76.8816 68.6617 76.3431 67.6245 75.8322C63.627 73.8689 57.537 70.8748 49.7835 70.2129C46.7115 69.9501 40.464 69.4909 33.2535 72.4771C29.378 74.0896 25.8068 76.4205 22.7085 79.3599L32.976 68.7452C33.636 68.0786 34.596 67.1777 35.8365 66.2277C39.4575 63.4568 42.8115 62.3105 44.7765 61.6566C46.5228 61.0767 48.3092 60.641 50.1195 60.3535C53.334 62.3881 56.8365 63.7862 60.393 64.3404C62.601 64.6855 67.5975 65.4629 72.324 62.9217C72.8745 63.1354 73.494 63.384 74.1675 63.669C76.1025 64.486 77.7915 65.2064 79.7835 66.4098C80.0925 66.5966 80.442 66.8135 80.82 67.0621Z" fill="#EBECEE"/>
<path id="Vector_18" d="M22.7084 79.6576C22.6334 79.6576 22.5584 79.6259 22.5029 79.5626C22.4522 79.5059 22.4247 79.4304 22.4263 79.3524C22.428 79.2744 22.4588 79.2003 22.5119 79.1461C25.9334 75.609 29.3564 72.0686 32.7794 68.5331C33.6882 67.6168 34.6544 66.7662 35.6714 65.9871C39.4019 63.1307 42.8444 61.9876 44.6924 61.3732C46.4526 60.789 48.253 60.3496 50.0774 60.0591C50.1419 60.049 50.2077 60.063 50.2634 60.0986C53.5049 62.1491 57.0224 63.5155 60.4334 64.0475C62.5604 64.38 67.5434 65.1558 72.1934 62.6573C72.228 62.6387 72.2658 62.6279 72.3045 62.6254C72.3432 62.623 72.382 62.629 72.4184 62.6431C73.0094 62.8726 73.6334 63.1244 74.2694 63.3936C76.1219 64.1741 77.8709 64.9136 79.9214 66.1517C80.2694 66.3607 80.6204 66.5824 80.9669 66.8104C81.0038 66.8342 81.0349 66.8667 81.0579 66.9053C81.0808 66.9439 81.0951 66.9876 81.0994 67.033C81.1038 67.0783 81.0981 67.1241 81.083 67.1668C81.0678 67.2095 81.0435 67.2479 81.0119 67.2791L76.8059 71.4591C75.4409 72.816 74.0729 74.1745 72.7079 75.5346C72.0329 76.1695 71.4359 76.8709 70.9229 77.6198C70.8829 77.6776 70.8246 77.7183 70.7585 77.7346C70.6925 77.7509 70.6231 77.7416 70.5629 77.7085C69.5474 77.1416 68.5169 76.6001 67.5029 76.0998C63.5024 74.1349 57.4604 71.1646 49.7579 70.5075C47.0324 70.2731 40.6529 69.7285 33.3524 72.7511C29.5088 74.351 25.9667 76.6625 22.8929 79.5768C22.8418 79.6276 22.7742 79.6559 22.7039 79.656H22.7084V79.6576ZM45.8384 69.7206C47.5139 69.7206 48.8714 69.8377 49.8059 69.9169C57.6089 70.5819 63.7064 73.5807 67.7429 75.5631C68.6954 76.0333 69.6614 76.5368 70.6154 77.0656C71.1246 76.3516 71.6994 75.6923 72.3314 75.0976L76.4234 71.0284L80.3594 67.1128C80.1224 66.9592 79.8824 66.812 79.6439 66.6695C77.6279 65.4503 75.8954 64.7204 74.0639 63.9461C73.4729 63.696 72.8939 63.4601 72.3419 63.2463C67.5644 65.7606 62.5169 64.9737 60.3524 64.6349C56.8994 64.0966 53.3444 62.7254 50.0624 60.6639C48.3008 60.9495 46.5623 61.3761 44.8619 61.9401C43.0439 62.5449 39.6584 63.6691 36.0014 66.4684C35.0084 67.2284 34.0559 68.0676 33.1694 68.9606L26.4434 75.9114C28.5462 74.4246 30.7941 73.1804 33.1484 72.2001C38.0624 70.1671 42.5579 69.7206 45.8384 69.7206Z" fill="black"/>
<path id="Vector_19" d="M104.06 93.7271C103.37 87.3367 100.097 83.0427 98.6445 81.1871C97.194 79.3362 93.3435 74.5529 86.709 72.6719C84.39 72.0164 80.5395 70.9255 76.3395 72.7701C75.294 73.2292 72.159 74.7793 70.128 78.3592C69.2307 79.9766 68.6412 81.7633 68.3925 83.6191C68.202 85.0187 68.2605 86.0843 68.313 86.9884C68.4768 89.6349 69.0594 92.2337 70.0365 94.6771C70.3035 95.3468 71.5095 98.2871 74.0895 101.43C75.0447 102.594 76.0925 103.67 77.2215 104.646L77.2095 135.138L86.2275 147.024C89.232 144.753 92.238 142.484 95.2425 140.212L90.783 134.33L95.259 130.907L90.774 125.036L95.289 121.581L95.2815 109.747C96.51 109.282 100.763 107.499 102.992 102.812C104.666 99.2909 104.31 95.996 104.063 93.7239L104.06 93.7271ZM90.699 87.9796C90.6825 88.3453 90.6495 88.9169 90.336 89.5471C90.2625 89.6912 89.8725 90.4496 89.0505 90.9214C87.8325 91.6197 86.5395 91.1953 85.9305 90.9942C84.5655 90.5462 83.76 89.6294 83.3505 89.1528C82.95 88.6857 81.8805 87.4381 81.7725 85.6062C81.747 85.1882 81.7125 84.463 82.065 83.6539C82.179 83.3927 82.605 82.4585 83.595 81.9772C84.27 81.6494 84.879 81.6906 85.3425 81.7286C87.1335 81.8758 88.353 83.0348 88.74 83.4132C89.034 83.7014 89.898 84.6007 90.3855 86.0463C90.525 86.4627 90.7395 87.1135 90.699 87.9796Z" fill="#FF7E88"/>
<path id="Vector_20" d="M86.2245 147.321C86.1822 147.322 86.1404 147.312 86.1022 147.293C86.0641 147.273 86.0305 147.245 86.004 147.21L76.986 135.326C76.9467 135.273 76.9256 135.207 76.926 135.139L76.938 104.787C75.8358 103.824 74.8109 102.767 73.8735 101.626C71.4585 98.6845 70.2015 95.8678 69.774 94.7943C68.7871 92.3189 68.198 89.6872 68.031 87.0074C67.9785 86.1287 67.9155 85.0362 68.112 83.5779C68.3651 81.6824 68.9669 79.8574 69.8835 78.2057C71.808 74.8173 74.6865 73.1722 76.2285 72.4962C80.5185 70.612 84.438 71.7203 86.781 72.3853C93.6375 74.3265 97.569 79.3472 98.8605 80.9971C100.164 82.6627 103.626 87.085 104.34 93.6938C104.583 95.9453 104.951 99.3463 103.239 102.948C101.229 107.176 97.644 109.139 95.562 109.956L95.568 121.583C95.568 121.678 95.5245 121.768 95.451 121.823L91.1775 125.093L95.4765 130.722C95.523 130.785 95.5455 130.867 95.5365 130.948C95.5312 130.988 95.5184 131.026 95.4988 131.06C95.4792 131.094 95.4533 131.124 95.4225 131.148L91.185 134.387L95.46 140.025C95.4839 140.057 95.5015 140.093 95.5118 140.132C95.5222 140.171 95.5249 140.212 95.52 140.252C95.5148 140.292 95.5018 140.33 95.4819 140.364C95.4621 140.399 95.4357 140.428 95.4045 140.451L86.3895 147.263C86.3414 147.299 86.2837 147.319 86.2245 147.318V147.321ZM77.487 135.035L86.277 146.62L94.833 140.155L90.558 134.518C90.5341 134.487 90.5166 134.451 90.5064 134.412C90.4963 134.373 90.4937 134.332 90.4989 134.292C90.5041 134.252 90.5169 134.214 90.5366 134.179C90.5563 134.145 90.5825 134.115 90.6135 134.091L94.8495 130.853L90.552 125.224C90.5282 125.193 90.5106 125.156 90.5003 125.118C90.49 125.079 90.4872 125.038 90.492 124.998C90.4968 124.958 90.5093 124.92 90.5286 124.886C90.548 124.852 90.5738 124.822 90.6045 124.798L95.001 121.434L94.995 109.749C94.995 109.622 95.07 109.511 95.181 109.47C96.7665 108.872 100.674 107.013 102.734 102.682C104.369 99.2387 104.028 96.0736 103.778 93.7619C103.082 87.3272 99.6975 83.0032 98.4225 81.3755C97.158 79.7621 93.315 74.8522 86.6325 72.9585C84.36 72.3157 80.5545 71.239 76.4415 73.044C74.961 73.6932 72.204 75.2686 70.3635 78.5097C69.4848 80.0931 68.9085 81.8429 68.667 83.6603C68.4765 85.0599 68.5395 86.1192 68.589 86.9694C68.739 89.5218 69.327 92.1469 70.29 94.5615C70.707 95.6081 71.934 98.3568 74.295 101.234C75.24 102.382 76.2795 103.45 77.394 104.415C77.4258 104.443 77.4514 104.478 77.4691 104.517C77.4867 104.557 77.4959 104.6 77.496 104.644L77.484 135.033L77.487 135.035ZM87.555 91.6023C86.829 91.6023 86.199 91.3964 85.8465 91.2793C84.381 90.7979 83.514 89.7862 83.1435 89.3539C82.7235 88.8631 81.606 87.5616 81.492 85.6236C81.4695 85.2357 81.42 84.4218 81.81 83.5304C82.1775 82.6913 82.755 82.0611 83.4765 81.7096C84.2325 81.3422 84.9135 81.3961 85.3665 81.4341C86.6415 81.5386 87.8415 82.1307 88.932 83.1963C89.373 83.6286 90.183 84.558 90.6495 85.9482C90.78 86.3345 91.0215 87.0533 90.978 87.997C90.963 88.3422 90.9315 88.9866 90.5835 89.6864C90.2633 90.318 89.7767 90.8382 89.1825 91.1843C88.6817 91.4669 88.1214 91.6112 87.5535 91.6038L87.555 91.6023ZM84.8415 82.0009C84.507 82.0009 84.1215 82.0484 83.7135 82.2479C83.1135 82.5392 82.632 83.0697 82.3215 83.7806C81.9915 84.5374 82.032 85.2214 82.0545 85.5888C82.1565 87.3178 83.178 88.5084 83.562 88.9581C83.9295 89.3856 84.696 90.2802 86.0145 90.714C86.5935 90.904 87.801 91.3014 88.9155 90.6633C89.628 90.2548 89.9925 89.6009 90.0885 89.4109C90.3795 88.8267 90.4035 88.2883 90.4185 87.9685C90.4575 87.142 90.2475 86.5198 90.123 86.1477C89.7953 85.1907 89.2571 84.3295 88.5525 83.6349C87.558 82.6643 86.4735 82.1228 85.3245 82.0294C85.1805 82.0167 85.0215 82.0041 84.8445 82.0041L84.8415 82.0009Z" fill="black"/>
<path id="Vector_21" d="M5.16291 105.323C5.06691 103.829 4.92741 101.264 6.03741 98.306C6.37491 97.4098 7.01391 95.7711 8.44641 94.1782C10.6814 91.6956 13.4159 91.0052 14.7194 90.6949C19.0649 89.6594 22.7009 91.2111 24.6989 92.0819C32.4614 95.4671 35.8019 102.697 36.6179 104.532C37.3244 106.123 38.5589 108.974 38.5904 112.854C38.6024 114.5 38.5934 117.144 37.1204 119.987C36.2696 121.629 35.0828 123.05 33.6464 124.148C30.4409 126.583 27.0239 126.557 25.6064 126.526C22.5209 126.458 20.2889 125.367 18.4739 124.478C16.3936 123.445 14.4656 122.099 12.7499 120.484C11.5109 119.323 8.62791 116.563 6.74241 111.897C6.24741 110.669 5.36241 108.425 5.16291 105.326V105.323Z" fill="white"/>
<path id="Vector_22" d="M26.199 126.83C25.968 126.83 25.767 126.825 25.6005 126.82C22.455 126.751 20.1825 125.639 18.3555 124.746C16.2499 123.7 14.2987 122.338 12.5625 120.702C11.4315 119.645 8.43152 116.833 6.48452 112.01C6.03002 110.889 5.08952 108.556 4.88252 105.342C4.79102 103.92 4.62002 101.273 5.77802 98.1951C6.08852 97.3686 6.73502 95.6491 8.24402 93.9724C10.584 91.3741 13.44 90.6949 14.6595 90.402C19.1445 89.3348 22.8285 90.9403 24.8085 91.8048C29.982 94.061 34.266 98.534 36.8745 104.403C37.512 105.838 38.8395 108.826 38.8725 112.847C38.8845 114.355 38.907 117.159 37.3665 120.126C36.4954 121.806 35.2811 123.261 33.8115 124.385C30.885 126.608 27.8145 126.827 26.2005 126.827L26.199 126.83ZM5.44202 105.303C5.64302 108.417 6.55952 110.686 7.00052 111.779C8.89952 116.478 11.8305 119.225 12.9345 120.259C14.6301 121.856 16.5359 123.187 18.5925 124.208C20.3715 125.079 22.5855 126.16 25.6125 126.228C26.8905 126.255 30.288 126.331 33.4815 123.905C34.8824 122.832 36.0402 121.445 36.8715 119.842C38.3415 117.011 38.3205 114.412 38.307 112.855C38.277 108.962 36.984 106.055 36.3615 104.657C33.813 98.9235 29.6325 94.555 24.5895 92.3542C22.668 91.5182 19.0905 89.9586 14.7795 90.9846C13.6095 91.2617 10.872 91.914 8.64902 94.384C7.21502 95.9769 6.59702 97.6251 6.29852 98.4168C5.18852 101.371 5.35352 103.928 5.44052 105.304L5.44202 105.303Z" fill="black"/>
<path id="Vector_23" d="M47.3175 107.933C46.8152 109.971 45.9087 111.873 44.658 113.514L34.971 122.973C35.8227 122.094 36.5466 121.087 37.119 119.985C38.592 117.144 38.601 114.5 38.589 112.854C38.559 108.974 37.3245 106.121 36.618 104.53C35.8035 102.693 32.4615 95.4655 24.699 92.0819C22.701 91.2111 19.065 89.6594 14.7195 90.6949C13.659 90.9451 11.664 91.4486 9.75146 92.9543L18.6285 84.0243C19.5141 83.4242 20.4579 82.9258 21.444 82.5376C25.383 80.9906 28.8765 81.6636 30.2355 81.9438C34.0755 82.7371 36.6105 84.6751 38.3055 86.0051C40.51 87.7406 42.4161 89.8624 43.941 92.2782C44.9775 93.9201 46.782 96.8382 47.4435 101.097C47.6865 102.668 48.0285 105.019 47.316 107.931L47.3175 107.933Z" fill="#EBECEE"/>
<path id="Vector_24" d="M34.9725 123.27C34.9167 123.27 34.8624 123.252 34.8164 123.219C34.7703 123.186 34.7346 123.139 34.7138 123.084C34.6929 123.03 34.6878 122.97 34.6992 122.912C34.7105 122.855 34.7377 122.802 34.7775 122.761C35.6097 121.903 36.316 120.92 36.873 119.842C38.3415 117.011 38.319 114.412 38.307 112.857C38.277 108.965 36.9855 106.056 36.363 104.658C34.8885 101.338 31.398 95.3261 24.591 92.359C22.671 91.5198 19.098 89.9586 14.7825 90.9862C13.902 91.1936 11.8425 91.6813 9.92097 93.1934C9.86408 93.244 9.79048 93.2686 9.71635 93.262C9.64223 93.2553 9.57366 93.2178 9.52572 93.1577C9.47778 93.0977 9.45441 93.02 9.46073 92.9418C9.46706 92.8635 9.50258 92.7911 9.55947 92.7405C12.5175 89.7623 15.4785 86.7856 18.4365 83.8105C18.4491 83.7968 18.4632 83.7846 18.4785 83.7741C19.3815 83.1637 20.3434 82.6563 21.348 82.2604C25.44 80.6518 29.091 81.4054 30.291 81.6524C34.2765 82.4758 36.906 84.5357 38.4765 85.7659C40.7053 87.5235 42.6331 89.6702 44.1765 92.1135C45.105 93.5844 47.0385 96.645 47.7225 101.048C47.9505 102.516 48.333 104.975 47.5905 108.005C47.0772 110.099 46.143 112.052 44.8515 113.731L35.1645 123.19C35.1126 123.241 35.0438 123.27 34.9725 123.269V123.27ZM17.637 90.0584C20.802 90.0584 23.3925 91.1905 24.807 91.8095C31.7895 94.8543 35.364 101.009 36.8745 104.407C37.5135 105.843 38.8395 108.83 38.871 112.852C38.8845 114.358 38.907 117.162 37.3665 120.129L37.2555 120.341L44.4525 113.313C45.6741 111.711 46.5586 109.852 47.0475 107.861C47.757 104.951 47.388 102.57 47.1675 101.148C46.5015 96.873 44.6835 93.9914 43.707 92.446C42.2005 90.0599 40.3183 87.9634 38.142 86.2473C36.609 85.0455 34.044 83.0363 30.1845 82.2399C29.0235 81.9992 25.4895 81.2693 21.546 82.8209C20.5869 83.1979 19.6683 83.6808 18.8055 84.2618L11.7 91.4153C12.6509 90.9706 13.644 90.6341 14.6625 90.4115C15.6401 90.1787 16.6393 90.0618 17.6415 90.0631L17.6385 90.06L17.637 90.0584Z" fill="black"/>
<path id="Vector_25" d="M15.7906 109.962L26.1451 102.214L29.1421 106.156L18.7621 113.914L15.7666 113.059L15.7906 109.962Z" fill="white"/>
<path id="Vector_26" d="M18.7619 114.211C18.7376 114.211 18.7134 114.208 18.6899 114.201L15.6929 113.346C15.6325 113.329 15.5794 113.291 15.5417 113.238C15.504 113.185 15.4838 113.121 15.4844 113.055L15.5084 109.959C15.5084 109.864 15.5534 109.776 15.6284 109.719L25.9814 101.97C26.0402 101.926 26.1127 101.907 26.1841 101.918C26.2556 101.928 26.3204 101.967 26.3654 102.027L29.3609 105.969C29.3848 106.001 29.4023 106.037 29.4125 106.076C29.4227 106.115 29.4252 106.156 29.42 106.196C29.4148 106.236 29.402 106.274 29.3823 106.309C29.3626 106.343 29.3364 106.373 29.3054 106.397L18.9254 114.155C18.8774 114.19 18.8203 114.211 18.7619 114.211ZM16.0514 112.832L18.7094 113.592L28.7354 106.096L26.0939 102.619L16.0724 110.116L16.0514 112.832Z" fill="black"/>
<path id="Vector_27" d="M27.2789 107.846C27.2376 107.846 27.1967 107.836 27.1594 107.817C27.122 107.799 27.089 107.772 27.0629 107.738L24.0089 103.841C23.9615 103.78 23.9388 103.702 23.9458 103.623C23.9528 103.545 23.989 103.472 24.0464 103.422C24.1042 103.372 24.1784 103.348 24.2529 103.355C24.3273 103.362 24.396 103.401 24.4439 103.461L27.4979 107.358C27.5315 107.402 27.5527 107.454 27.5591 107.51C27.5655 107.566 27.5569 107.623 27.5342 107.674C27.5114 107.725 27.4756 107.768 27.4307 107.798C27.3858 107.829 27.3322 107.845 27.2789 107.846ZM20.2844 113.075C20.2433 113.076 20.2027 113.067 20.1653 113.048C20.128 113.03 20.0949 113.004 20.0684 112.971L16.9844 109.101C16.9605 109.071 16.9425 109.037 16.9313 108.999C16.9202 108.962 16.9161 108.923 16.9193 108.884C16.9225 108.845 16.9329 108.807 16.95 108.772C16.9671 108.737 16.9905 108.707 17.0189 108.682C17.0473 108.656 17.08 108.637 17.1154 108.626C17.1507 108.614 17.1879 108.609 17.2248 108.613C17.2617 108.616 17.2976 108.627 17.3305 108.645C17.3634 108.663 17.3926 108.688 17.4164 108.718L20.4989 112.588C20.5329 112.631 20.5546 112.684 20.5615 112.739C20.5683 112.795 20.5601 112.852 20.5376 112.903C20.5151 112.954 20.4794 112.997 20.4346 113.028C20.3898 113.058 20.3377 113.075 20.2844 113.075Z" fill="black"/>
</g>
</svg>
