<svg width="120" height="152" viewBox="0 0 120 152" fill="none" xmlns="http://www.w3.org/2000/svg">
<g id="illustration / deriv / light / 0-placeholder">
<g id="illustration / deriv / light / responsible">
<g id="placeholder">
<g id="Group">
<path id="Vector" d="M93.2344 117.067C93.2429 118.396 93.1258 120.394 92.4587 122.7C92.2958 123.266 92.0986 123.85 91.8629 124.449C91.4729 125.437 90.8572 126.954 89.6958 128.581C89.1701 129.319 88.5301 130.079 87.7486 130.821C87.2272 131.317 85.8787 132.531 83.8972 133.546L83.8801 133.554C83.5501 133.709 83.2186 133.863 82.8886 134.017C81.8329 134.467 80.6358 134.834 79.3186 135.016C77.4844 135.27 75.6186 135.136 74.5187 135.057C72.9458 134.944 71.6344 134.726 70.6858 134.533C59.3658 132.851 48.0444 131.171 36.7229 129.49C35.8458 129.384 34.5386 129.203 32.9715 128.886C31.4701 128.581 28.2072 127.921 26.3158 127.03C18.8329 123.501 18.1015 109.414 17.9801 107.077C17.9272 106.063 17.9258 105.223 17.9344 104.659C17.9458 84.7814 17.9558 64.9042 17.9672 45.0271C17.9644 44.2157 17.9986 43.0728 18.1686 41.7185C18.4086 39.8114 18.7586 37.0385 20.4272 34.0557C22.0758 31.1099 24.1886 29.4271 24.7844 28.9728C25.8129 28.1857 26.8358 27.6028 27.7544 27.1728C27.7915 27.1542 27.8272 27.1371 27.8629 27.1214C29.4415 26.3957 30.7044 26.1199 31.1572 26.0285C32.5644 25.7457 33.8244 25.7157 35.4944 25.8228C36.4772 25.8871 37.6015 25.9985 38.9815 26.1357C40.3201 26.2685 41.4286 26.4285 42.2086 26.5528C43.1601 26.6942 44.1129 26.8342 45.0644 26.9757C54.8829 28.4271 64.7001 29.8814 74.5187 31.3328C76.3244 31.7099 78.8944 32.4699 81.6372 34.0957C84.9758 36.0742 86.9672 38.3842 87.6472 39.2185C89.4272 41.3957 90.3529 43.3899 90.9144 44.6228C91.9829 46.9657 92.4558 48.8842 92.6087 49.5442C93.0958 51.6442 93.2358 53.4842 93.2544 54.8885C93.2472 75.6142 93.2401 96.3414 93.2344 117.067Z" fill="white"/>
<path id="Vector_2" d="M93.2344 117.067C93.2429 118.396 93.1258 120.394 92.4587 122.7C92.2958 123.266 92.0987 123.85 91.8629 124.449C91.4729 125.437 90.8572 126.954 89.6958 128.581C89.1701 129.319 88.5301 130.079 87.7486 130.821C87.2272 131.317 85.8787 132.531 83.8972 133.546L83.8801 133.554C83.5501 133.709 83.2186 133.863 82.8886 134.017C81.8329 134.467 80.6358 134.834 79.3186 135.016C77.4844 135.27 75.6186 135.136 74.5186 135.057C72.9458 134.944 71.6344 134.726 70.6858 134.533C59.3658 132.851 48.0444 131.171 36.7229 129.49C35.8458 129.384 34.5386 129.203 32.9715 128.886C31.4701 128.581 28.2072 127.921 26.3158 127.03C18.8329 123.501 18.1015 109.414 17.9801 107.077C17.9272 106.063 17.9258 105.223 17.9344 104.659C17.9458 84.7814 17.9558 64.9042 17.9672 45.0271C17.9644 44.2157 17.9986 43.0728 18.1686 41.7185C18.4086 39.8114 18.7586 37.0385 20.4272 34.0557C22.0758 31.1099 24.1886 29.4271 24.7844 28.9728C25.8129 28.1857 26.8358 27.6028 27.7544 27.1728C27.7915 27.1542 27.8272 27.1371 27.8629 27.1214C29.4415 26.3957 30.7044 26.1199 31.1572 26.0285C32.5644 25.7457 33.8244 25.7157 35.4944 25.8228C36.4772 25.8871 37.6015 25.9985 38.9815 26.1357C40.3201 26.2685 41.4286 26.4285 42.2086 26.5528C43.1601 26.6942 44.1129 26.8342 45.0644 26.9757C54.8829 28.4271 64.7001 29.8814 74.5186 31.3328C76.3244 31.7099 78.8944 32.4699 81.6372 34.0957C84.9758 36.0742 86.9672 38.3842 87.6472 39.2185C89.4272 41.3957 90.3529 43.3899 90.9144 44.6228C91.9829 46.9657 92.4558 48.8842 92.6087 49.5442C93.0958 51.6442 93.2358 53.4842 93.2544 54.8885C93.2472 75.6142 93.2401 96.3414 93.2344 117.067Z" stroke="black" stroke-width="0.571429" stroke-linecap="round" stroke-linejoin="round"/>
</g>
<g id="Group_2">
<path id="Vector_3" d="M107.246 48.3386C107.239 69.0643 107.233 89.7915 107.226 110.517C107.237 112.173 107.051 114.866 105.854 117.899C105.287 119.334 104.246 121.889 101.74 124.271C101.204 124.78 99.8001 126.044 97.7344 127.074L97.7172 127.083C97.4872 127.19 97.2558 127.299 97.0258 127.406C92.6501 129.453 88.2729 131.499 83.8972 133.546C85.8786 132.531 87.2272 131.317 87.7486 130.821C88.5301 130.079 89.1701 129.319 89.6958 128.581C90.8572 126.954 91.4729 125.437 91.8629 124.449C92.0986 123.85 92.2958 123.266 92.4586 122.7C93.1258 120.394 93.2429 118.396 93.2344 117.067C93.2401 96.3415 93.2472 75.6143 93.2544 54.8886C93.2358 53.4843 93.0958 51.6443 92.6086 49.5443C92.4558 48.8843 91.9829 46.9658 90.9144 44.6229C90.3529 43.39 89.4272 41.3958 87.6472 39.2186C86.9672 38.3843 84.9758 36.0743 81.6372 34.0958C78.8944 32.47 76.3243 31.71 74.5186 31.3329C64.7001 29.8815 54.8829 28.4272 45.0643 26.9758C44.1129 26.8343 43.1601 26.6943 42.2086 26.5529C41.4286 26.4286 40.3201 26.2686 38.9815 26.1358C37.6015 25.9986 36.4772 25.8872 35.4943 25.8229C33.8243 25.7158 32.5643 25.7458 31.1572 26.0286C30.7043 26.12 29.4415 26.3958 27.8629 27.1215C32.3801 25.0072 36.8958 22.8943 41.4143 20.7815C43.1972 19.8972 44.6543 19.5772 45.1486 19.4786C47.3843 19.03 49.2472 19.2158 52.9729 19.5858C54.3115 19.7186 55.4201 19.8786 56.2001 20.0029C66.9701 21.5958 77.7401 23.1886 88.5101 24.7829C90.3158 25.16 92.8858 25.92 95.6286 27.5458C98.9672 29.5243 100.959 31.8343 101.639 32.6686C103.419 34.8458 104.344 36.84 104.906 38.0729C105.974 40.4158 106.447 42.3343 106.6 42.9943C107.087 45.0943 107.229 46.9343 107.246 48.3386Z" fill="#EBECEE"/>
<g id="Group_3">
<path id="Vector_4" d="M84.6729 133.181L83.8972 133.544C84.1586 133.41 84.4101 133.273 84.6501 133.133" stroke="black" stroke-width="0.571429" stroke-linecap="round" stroke-linejoin="round"/>
<path id="Vector_5" d="M86.0929 132.194C86.8886 131.617 87.4515 131.103 87.7486 130.821C88.53 130.079 89.17 129.319 89.6958 128.581C90.8572 126.954 91.4729 125.437 91.8629 124.449C92.0986 123.85 92.2958 123.266 92.4586 122.7C93.1258 120.394 93.2429 118.396 93.2343 117.067C93.24 96.3414 93.2472 75.6142 93.2543 54.8885C93.2358 53.4842 93.0958 51.6442 92.6086 49.5442C92.4558 48.8842 91.9829 46.9657 90.9143 44.6228C90.3529 43.3899 89.4272 41.3957 87.6472 39.2185C86.9672 38.3842 84.9758 36.0742 81.6372 34.0957C78.8943 32.4699 76.3243 31.7099 74.5186 31.3328C64.7 29.8814 54.8829 28.4271 45.0643 26.9757C44.1129 26.8342 43.16 26.6942 42.2086 26.5528C41.4286 26.4285 40.32 26.2685 38.9815 26.1357C37.6015 25.9985 36.4772 25.8871 35.4943 25.8228C33.8243 25.7157 32.5643 25.7457 31.1572 26.0285C30.8715 26.0857 30.2643 26.2171 29.4586 26.4871" stroke="black" stroke-width="0.571429" stroke-linecap="round" stroke-linejoin="round"/>
<path id="Vector_6" d="M28.65 26.7829C28.3986 26.8829 28.1357 26.9943 27.8615 27.1201L28.6372 26.7572" stroke="black" stroke-width="0.571429" stroke-linecap="round" stroke-linejoin="round"/>
<path id="Vector_7" d="M30.1986 26.0271C33.9372 24.2771 37.6743 22.5286 41.4143 20.78C43.1972 19.8957 44.6543 19.5757 45.1486 19.4771C47.3843 19.0286 49.2472 19.2143 52.9729 19.5843C54.3115 19.7171 55.42 19.8771 56.2 20.0014C66.97 21.5943 77.74 23.1871 88.51 24.7814C90.3157 25.1586 92.8857 25.9186 95.6286 27.5443C98.9672 29.5229 100.959 31.8329 101.639 32.6671C103.419 34.8443 104.344 36.8386 104.906 38.0714C105.974 40.4143 106.447 42.3329 106.6 42.9929C107.087 45.0929 107.229 46.9329 107.246 48.3371C107.239 69.0629 107.233 89.79 107.226 110.516C107.237 112.171 107.051 114.864 105.854 117.897C105.287 119.333 104.246 121.887 101.74 124.27C101.204 124.779 99.8 126.043 97.7343 127.073L97.7172 127.081C97.4872 127.189 97.2557 127.297 97.0257 127.404C93.1686 129.209 89.31 131.013 85.4529 132.816" stroke="black" stroke-width="0.571429" stroke-linecap="round" stroke-linejoin="round"/>
</g>
</g>
<g id="Layer 166">
<g id="Group_4">
<path id="Vector_8" d="M7.23718 109.826C16.7629 111.257 26.2886 112.69 35.8158 114.121C41.12 111.58 46.4243 109.039 51.7286 106.499L23.1172 102.156C17.8243 104.713 12.5315 107.27 7.23861 109.826H7.23718Z" fill="#FF535E"/>
<g id="Group_5">
<path id="Vector_9" d="M8.00861 109.453C7.75147 109.577 7.49433 109.701 7.23718 109.826C7.52004 109.869 7.8029 109.91 8.08433 109.953" stroke="black" stroke-width="0.571429" stroke-linecap="round" stroke-linejoin="round"/>
<path id="Vector_10" d="M9.72717 110.2C18.4229 111.507 27.12 112.814 35.8157 114.121C40.6129 111.823 45.41 109.526 50.2072 107.227" stroke="black" stroke-width="0.571429" stroke-linecap="round" stroke-linejoin="round"/>
<path id="Vector_11" d="M50.9543 106.869C51.2114 106.746 51.47 106.621 51.7271 106.499C51.4443 106.456 51.1629 106.413 50.88 106.37" stroke="black" stroke-width="0.571429" stroke-linecap="round" stroke-linejoin="round"/>
<path id="Vector_12" d="M49.2387 106.12C40.5315 104.799 31.8244 103.477 23.1172 102.156C18.3315 104.467 13.5444 106.78 8.75867 109.091" stroke="black" stroke-width="0.571429" stroke-linecap="round" stroke-linejoin="round"/>
</g>
</g>
<g id="Group_6">
<path id="Vector_13" d="M51.7286 106.499V135.46C46.4172 138.029 41.1072 140.596 35.7958 143.164C35.8029 133.484 35.8086 123.803 35.8158 114.123C41.1201 111.581 46.4243 109.04 51.7286 106.5V106.499Z" fill="#FF444F"/>
<g id="Group_7">
<path id="Vector_14" d="M50.9543 106.869C51.2115 106.746 51.4701 106.621 51.7272 106.499V107.356" stroke="black" stroke-width="0.571429" stroke-linecap="round" stroke-linejoin="round"/>
<path id="Vector_15" d="M51.7286 109.171V133.694" stroke="black" stroke-width="0.571429" stroke-linecap="round" stroke-linejoin="round"/>
<path id="Vector_16" d="M51.7286 134.603V135.46C51.4714 135.584 51.2143 135.709 50.9572 135.833" stroke="black" stroke-width="0.571429" stroke-linecap="round" stroke-linejoin="round"/>
<path id="Vector_17" d="M49.3572 136.606C45.36 138.539 41.3629 140.471 37.3657 142.404" stroke="black" stroke-width="0.571429" stroke-linecap="round" stroke-linejoin="round"/>
<path id="Vector_18" d="M36.5672 142.79C36.3101 142.914 36.0529 143.039 35.7958 143.163V142.306" stroke="black" stroke-width="0.571429" stroke-linecap="round" stroke-linejoin="round"/>
<path id="Vector_19" d="M35.7972 140.484C35.803 132.286 35.8087 124.087 35.8144 115.89" stroke="black" stroke-width="0.571429" stroke-linecap="round" stroke-linejoin="round"/>
<path id="Vector_20" d="M35.8143 114.978V114.121C36.0729 113.998 36.33 113.874 36.5886 113.751" stroke="black" stroke-width="0.571429" stroke-linecap="round" stroke-linejoin="round"/>
<path id="Vector_21" d="M38.1843 112.987L50.1572 107.251" stroke="black" stroke-width="0.571429" stroke-linecap="round" stroke-linejoin="round"/>
</g>
</g>
<g id="Group_8">
<path id="Vector_22" d="M35.7958 143.164C26.2543 141.739 16.7129 140.314 7.17004 138.889C7.1929 129.201 7.21433 119.514 7.23719 109.826C16.7629 111.257 26.2886 112.69 35.8158 114.121C35.8086 123.801 35.8029 133.483 35.7958 143.163V143.164Z" fill="#FF7E88"/>
<g id="Group_9">
<path id="Vector_23" d="M35.7957 142.307V143.164C35.5129 143.121 35.23 143.08 34.9471 143.037" stroke="black" stroke-width="0.571429" stroke-linecap="round" stroke-linejoin="round"/>
<path id="Vector_24" d="M33.1529 142.769C25.0743 141.561 16.9958 140.356 8.91577 139.149" stroke="black" stroke-width="0.571429" stroke-linecap="round" stroke-linejoin="round"/>
<path id="Vector_25" d="M8.01719 139.014L7.17004 138.887C7.17004 138.601 7.17004 138.316 7.17147 138.03" stroke="black" stroke-width="0.571429" stroke-linecap="round" stroke-linejoin="round"/>
<path id="Vector_26" d="M7.17578 136.207C7.19435 128.003 7.21435 119.799 7.23292 111.594" stroke="black" stroke-width="0.571429" stroke-linecap="round" stroke-linejoin="round"/>
<path id="Vector_27" d="M7.23572 110.683C7.23572 110.397 7.23572 110.111 7.23715 109.826C7.52 109.869 7.80286 109.91 8.08429 109.953" stroke="black" stroke-width="0.571429" stroke-linecap="round" stroke-linejoin="round"/>
<path id="Vector_28" d="M9.8772 110.223L34.0715 113.86" stroke="black" stroke-width="0.571429" stroke-linecap="round" stroke-linejoin="round"/>
<path id="Vector_29" d="M34.9672 113.994C35.25 114.037 35.5329 114.079 35.8143 114.121V114.979" stroke="black" stroke-width="0.571429" stroke-linecap="round" stroke-linejoin="round"/>
<path id="Vector_30" d="M35.8129 116.8C35.8072 124.998 35.8015 133.197 35.7958 141.394" stroke="black" stroke-width="0.571429" stroke-linecap="round" stroke-linejoin="round"/>
</g>
</g>
</g>
</g>
<g id="placeholder copy">
<g id="Group_10">
<path id="Vector_31" d="M93.2342 117.067C93.2428 118.396 93.1257 120.394 92.4585 122.7C92.2957 123.266 92.0985 123.85 91.8628 124.449C91.4728 125.437 90.8571 126.954 89.6957 128.581C89.17 129.319 88.53 130.079 87.7485 130.821C87.2271 131.317 85.8785 132.531 83.8971 133.546L83.88 133.554C83.5499 133.709 83.2185 133.863 82.8885 134.017C81.8328 134.467 80.6357 134.834 79.3185 135.016C77.4842 135.27 75.6185 135.136 74.5185 135.057C72.9457 134.944 71.6342 134.726 70.6857 134.533C59.3657 132.851 48.0442 131.171 36.7228 129.49C35.8457 129.384 34.5385 129.203 32.9714 128.886C31.47 128.581 28.2071 127.921 26.3157 127.03C18.8328 123.501 18.1014 109.414 17.98 107.077C17.9271 106.063 17.9257 105.223 17.9342 104.659C17.9457 84.7814 17.9557 64.9042 17.9671 45.0271C17.9642 44.2157 17.9985 43.0728 18.1685 41.7185C18.4085 39.8114 18.7585 37.0385 20.4271 34.0557C22.0757 31.1099 24.1885 29.4271 24.7842 28.9728C25.8128 28.1857 26.8357 27.6028 27.7542 27.1728C27.7914 27.1542 27.8271 27.1371 27.8628 27.1214C29.4414 26.3957 30.7042 26.1199 31.1571 26.0285C32.5642 25.7457 33.8242 25.7157 35.4942 25.8228C36.4771 25.8871 37.6014 25.9985 38.9814 26.1357C40.32 26.2685 41.4285 26.4285 42.2085 26.5528C43.16 26.6942 44.1128 26.8342 45.0642 26.9757C54.8828 28.4271 64.7 29.8814 74.5185 31.3328C76.3242 31.7099 78.8942 32.4699 81.6371 34.0957C84.9757 36.0742 86.9671 38.3842 87.6471 39.2185C89.4271 41.3957 90.3528 43.3899 90.9142 44.6228C91.9828 46.9657 92.4557 48.8842 92.6085 49.5442C93.0957 51.6442 93.2357 53.4842 93.2542 54.8885C93.2471 75.6142 93.24 96.3414 93.2342 117.067Z" fill="white"/>
<path id="Vector_32" d="M76.4785 135.443H76.4728C75.8214 135.43 75.2285 135.393 74.7342 135.357C74.5771 135.346 74.4585 135.21 74.4685 135.053C74.4785 134.896 74.6171 134.777 74.7728 134.787C75.26 134.821 75.8442 134.859 76.4828 134.871C76.64 134.874 76.7657 135.006 76.7628 135.163C76.76 135.319 76.6328 135.443 76.4771 135.443H76.4785ZM79.3471 135.297C79.2071 135.297 79.0842 135.194 79.0642 135.051C79.0428 134.896 79.1514 134.751 79.3071 134.729C79.8585 134.651 80.4157 134.537 80.96 134.387C81.1128 134.346 81.27 134.436 81.3114 134.587C81.3528 134.74 81.2628 134.897 81.1114 134.939C80.5428 135.094 79.9628 135.213 79.3871 135.294C79.3742 135.296 79.36 135.297 79.3471 135.297ZM71.8971 135.039C71.8814 135.039 71.8671 135.039 71.8514 135.034C71.4457 134.969 71.0371 134.894 70.6371 134.814L70.1542 134.743C69.9985 134.72 69.89 134.574 69.9142 134.419C69.9371 134.263 70.0828 134.154 70.2385 134.179L70.7285 134.251C70.7285 134.251 70.7385 134.253 70.7428 134.254C71.1371 134.334 71.54 134.409 71.9414 134.473C72.0971 134.497 72.2028 134.644 72.1785 134.8C72.1557 134.94 72.0342 135.04 71.8971 135.04V135.039ZM67.35 134.323C67.3357 134.323 67.3214 134.323 67.3071 134.32L65.6 134.067C65.4442 134.044 65.3357 133.899 65.36 133.743C65.3828 133.587 65.5285 133.479 65.6842 133.501L67.3914 133.754C67.5471 133.777 67.6557 133.923 67.6314 134.079C67.61 134.22 67.4885 134.323 67.3485 134.323H67.35ZM83.7171 133.916C83.61 133.916 83.5071 133.856 83.4585 133.751C83.3914 133.609 83.4528 133.439 83.5957 133.371L83.7585 133.294C84.2042 133.066 84.6428 132.816 85.0685 132.546C85.2014 132.461 85.3785 132.5 85.4628 132.634C85.5471 132.767 85.5085 132.944 85.3742 133.029C84.9342 133.309 84.48 133.569 84.0271 133.8L83.8385 133.889C83.8 133.907 83.7585 133.916 83.7171 133.916ZM62.7971 133.647C62.7828 133.647 62.7685 133.647 62.7542 133.644L61.0471 133.391C60.8914 133.369 60.7828 133.223 60.8071 133.067C60.83 132.911 60.9757 132.804 61.1314 132.826L62.8385 133.079C62.9942 133.101 63.1028 133.247 63.0785 133.403C63.0571 133.544 62.9357 133.647 62.7957 133.647H62.7971ZM58.2442 132.97C58.23 132.97 58.2157 132.97 58.2014 132.967L56.4942 132.714C56.3385 132.691 56.23 132.546 56.2542 132.39C56.2771 132.234 56.4228 132.127 56.5785 132.149L58.2857 132.401C58.4414 132.424 58.55 132.57 58.5257 132.726C58.5042 132.867 58.3828 132.97 58.2428 132.97H58.2442ZM53.6928 132.294C53.6785 132.294 53.6642 132.294 53.65 132.291L51.9428 132.039C51.7871 132.016 51.6785 131.87 51.7028 131.714C51.7257 131.559 51.8714 131.45 52.0271 131.473L53.7342 131.726C53.89 131.749 53.9985 131.894 53.9743 132.05C53.9528 132.191 53.8314 132.294 53.6914 132.294H53.6928ZM49.14 131.619C49.1257 131.619 49.1114 131.619 49.0971 131.616L47.39 131.363C47.2343 131.34 47.1257 131.194 47.15 131.039C47.1728 130.883 47.3185 130.774 47.4743 130.799L49.1814 131.051C49.3371 131.074 49.4457 131.22 49.4214 131.376C49.4 131.517 49.2785 131.62 49.1385 131.62L49.14 131.619ZM87.5071 131.33C87.43 131.33 87.3528 131.299 87.2957 131.237C87.19 131.12 87.1985 130.94 87.3142 130.833C87.4057 130.749 87.4857 130.676 87.5514 130.613C87.8828 130.299 88.2028 129.966 88.5028 129.624C88.6071 129.506 88.7871 129.494 88.9057 129.599C89.0243 129.703 89.0357 129.883 88.9314 130.001C88.62 130.354 88.2885 130.7 87.9457 131.026C87.8771 131.09 87.7957 131.167 87.7 131.254C87.6457 131.304 87.5757 131.329 87.5071 131.329V131.33ZM44.5871 130.943C44.5728 130.943 44.5585 130.943 44.5442 130.94L42.8371 130.687C42.6814 130.664 42.5728 130.519 42.5971 130.363C42.62 130.207 42.7657 130.1 42.9214 130.121L44.6285 130.374C44.7842 130.397 44.8928 130.543 44.8685 130.699C44.8471 130.84 44.7257 130.943 44.5857 130.943H44.5871ZM40.0342 130.267C40.02 130.267 40.0057 130.267 39.9914 130.264L38.2842 130.011C38.1285 129.989 38.02 129.843 38.0428 129.687C38.0657 129.531 38.2114 129.424 38.3671 129.447L40.0742 129.7C40.23 129.723 40.3385 129.869 40.3143 130.024C40.2928 130.166 40.1714 130.269 40.0314 130.269L40.0342 130.267ZM35.4785 129.609C35.4643 129.609 35.45 129.609 35.4371 129.606C34.8657 129.521 34.2885 129.426 33.7243 129.321C33.5685 129.293 33.4671 129.144 33.4957 128.989C33.5243 128.833 33.6728 128.73 33.8285 128.76C34.3871 128.863 34.9557 128.957 35.5214 129.04C35.6771 129.063 35.7857 129.209 35.7628 129.364C35.7414 129.506 35.62 129.609 35.48 129.609H35.4785ZM30.9571 128.743C30.9357 128.743 30.9143 128.74 30.8928 128.736C30.2871 128.599 29.72 128.459 29.2057 128.32C29.0528 128.279 28.9628 128.123 29.0042 127.97C29.0457 127.817 29.2014 127.727 29.3542 127.769C29.8614 127.904 30.4228 128.043 31.02 128.179C31.1742 128.214 31.27 128.367 31.2357 128.52C31.2057 128.653 31.0871 128.743 30.9571 128.743ZM90.4071 127.777C90.3571 127.777 90.3071 127.764 90.2614 127.737C90.1257 127.656 90.0814 127.481 90.1628 127.346C90.4485 126.867 90.7085 126.376 90.9585 125.847C91.0257 125.704 91.1957 125.643 91.3385 125.71C91.4814 125.777 91.5428 125.947 91.4757 126.09C91.2185 126.637 90.95 127.144 90.6543 127.639C90.6014 127.729 90.5057 127.777 90.4085 127.777H90.4071ZM26.5514 127.421C26.5128 127.421 26.4742 127.414 26.4371 127.397C26.3542 127.361 26.2728 127.324 26.1943 127.287C25.7457 127.076 25.3057 126.82 24.8885 126.527C24.76 126.437 24.7285 126.259 24.8185 126.129C24.9085 126 25.0871 125.969 25.2171 126.059C25.6085 126.333 26.0185 126.571 26.4385 126.77C26.5128 126.804 26.5885 126.839 26.6657 126.873C26.81 126.936 26.8757 127.104 26.8128 127.249C26.7657 127.356 26.6614 127.42 26.5514 127.42V127.421ZM22.9728 124.609C22.89 124.609 22.8071 124.573 22.7514 124.503C22.3971 124.066 22.0543 123.581 21.7328 123.067C21.65 122.933 21.69 122.757 21.8243 122.673C21.9585 122.59 22.1343 122.63 22.2171 122.764C22.5257 123.26 22.8543 123.723 23.1943 124.143C23.2943 124.266 23.2743 124.446 23.1528 124.544C23.1 124.587 23.0357 124.609 22.9728 124.609ZM92.2757 123.581C92.2471 123.581 92.2171 123.577 92.1871 123.567C92.0371 123.519 91.9542 123.357 92.0028 123.207C92.0657 123.011 92.1257 122.814 92.1828 122.62C92.2828 122.274 92.3742 121.92 92.4557 121.567C92.4914 121.413 92.6442 121.317 92.7985 121.353C92.9528 121.389 93.0485 121.541 93.0128 121.696C92.93 122.059 92.8357 122.423 92.7328 122.779C92.6757 122.979 92.6128 123.181 92.5485 123.383C92.51 123.504 92.3971 123.58 92.2771 123.58L92.2757 123.581ZM20.6585 120.646C20.5471 120.646 20.4414 120.58 20.3957 120.471C20.1757 119.956 19.9643 119.407 19.7685 118.84C19.7171 118.691 19.7957 118.529 19.9457 118.477C20.0942 118.426 20.2571 118.504 20.3085 118.654C20.5 119.207 20.7071 119.744 20.9214 120.249C20.9828 120.394 20.9157 120.561 20.77 120.623C20.7328 120.639 20.6957 120.646 20.6585 120.646ZM93.1714 119.077C93.1642 119.077 93.1557 119.077 93.1485 119.077C92.9914 119.064 92.8743 118.927 92.8871 118.77C92.9285 118.251 92.95 117.721 92.95 117.199V117.07C92.9485 116.913 93.0757 116.783 93.2328 116.783C93.39 116.786 93.52 116.909 93.52 117.067V117.199C93.52 117.737 93.4985 118.281 93.4557 118.816C93.4442 118.966 93.3185 119.079 93.1714 119.079V119.077ZM19.2271 116.27C19.0985 116.27 18.9814 116.183 18.95 116.053C18.8142 115.504 18.6871 114.933 18.5714 114.354C18.54 114.2 18.6414 114.049 18.7957 114.019C18.95 113.989 19.1014 114.089 19.1314 114.243C19.2457 114.814 19.3714 115.377 19.5043 115.917C19.5414 116.07 19.4485 116.226 19.2957 116.263C19.2728 116.269 19.25 116.271 19.2271 116.271V116.27ZM93.2342 114.494C93.0771 114.494 92.9485 114.366 92.9485 114.209V112.483C92.9485 112.326 93.0771 112.197 93.2342 112.197C93.3914 112.197 93.52 112.326 93.52 112.483V114.209C93.52 114.366 93.3914 114.494 93.2342 114.494ZM18.3785 111.741C18.2371 111.741 18.1157 111.637 18.0957 111.494C18.02 110.927 17.9514 110.346 17.8928 109.767C17.8771 109.61 17.9914 109.47 18.1485 109.454C18.3057 109.44 18.4457 109.553 18.4614 109.71C18.5185 110.283 18.5857 110.857 18.6614 111.419C18.6828 111.574 18.5728 111.719 18.4171 111.74C18.4043 111.741 18.3914 111.743 18.3785 111.743V111.741ZM93.2357 109.891C93.0785 109.891 92.95 109.763 92.95 109.606V107.88C92.95 107.723 93.0785 107.594 93.2357 107.594C93.3928 107.594 93.5214 107.723 93.5214 107.88V109.606C93.5214 109.763 93.3928 109.891 93.2357 109.891ZM17.9685 107.147C17.8171 107.147 17.69 107.027 17.6828 106.874C17.6571 106.309 17.6428 105.74 17.6428 105.181V105.136C17.6428 104.979 17.7714 104.85 17.9285 104.85C18.0857 104.85 18.2143 104.979 18.2143 105.136V105.181C18.2143 105.731 18.2271 106.291 18.2528 106.849C18.26 107.006 18.1385 107.14 17.98 107.147C17.9757 107.147 17.9714 107.147 17.9671 107.147H17.9685ZM93.2371 105.289C93.08 105.289 92.9514 105.16 92.9514 105.003V103.277C92.9514 103.12 93.08 102.991 93.2371 102.991C93.3942 102.991 93.5228 103.12 93.5228 103.277V105.003C93.5228 105.16 93.3942 105.289 93.2371 105.289ZM17.9357 102.546C17.7785 102.546 17.65 102.417 17.65 102.26V100.534C17.65 100.377 17.7785 100.249 17.9371 100.249C18.0943 100.249 18.2228 100.377 18.2228 100.534V102.26C18.2228 102.417 18.0943 102.546 17.9357 102.546ZM93.2385 100.687C93.0814 100.687 92.9528 100.559 92.9528 100.401V98.6757C92.9528 98.5185 93.0814 98.39 93.2385 98.39C93.3957 98.39 93.5242 98.5185 93.5242 98.6757V100.401C93.5242 100.559 93.3957 100.687 93.2385 100.687ZM17.9385 97.9428C17.7814 97.9428 17.6528 97.8143 17.6528 97.6571V95.9314C17.6528 95.7743 17.7814 95.6457 17.94 95.6457C18.0971 95.6457 18.2257 95.7743 18.2257 95.9314V97.6571C18.2257 97.8143 18.0971 97.9428 17.9385 97.9428ZM93.24 96.0843C93.0828 96.0843 92.9542 95.9557 92.9542 95.7985V94.0728C92.9542 93.9157 93.0828 93.7871 93.24 93.7871C93.3971 93.7871 93.5257 93.9157 93.5257 94.0728V95.7985C93.5257 95.9557 93.3971 96.0843 93.24 96.0843ZM17.94 93.34C17.7828 93.34 17.6543 93.2114 17.6543 93.0543V91.3285C17.6543 91.1714 17.7828 91.0428 17.9414 91.0428C18.0985 91.0428 18.2271 91.1714 18.2271 91.3285V93.0543C18.2271 93.2114 18.0985 93.34 17.94 93.34ZM93.2414 91.4814C93.0842 91.4814 92.9557 91.3528 92.9557 91.1957V89.47C92.9557 89.3128 93.0842 89.1843 93.2414 89.1843C93.3985 89.1843 93.5271 89.3128 93.5271 89.47V91.1957C93.5271 91.3528 93.3985 91.4814 93.2414 91.4814ZM17.9428 88.7371C17.7857 88.7371 17.6571 88.6085 17.6571 88.4514V86.7257C17.6571 86.5685 17.7857 86.44 17.9443 86.44C18.1014 86.44 18.23 86.5685 18.23 86.7257V88.4514C18.23 88.6085 18.1014 88.7371 17.9428 88.7371ZM93.2428 86.8785C93.0857 86.8785 92.9571 86.75 92.9571 86.5928V84.8671C92.9571 84.71 93.0857 84.5814 93.2428 84.5814C93.4 84.5814 93.5285 84.71 93.5285 84.8671V86.5928C93.5285 86.75 93.4 86.8785 93.2428 86.8785ZM17.9457 84.1343C17.7885 84.1343 17.66 84.0057 17.66 83.8485V82.1228C17.66 81.9657 17.7885 81.8371 17.9471 81.8371C18.1043 81.8371 18.2328 81.9657 18.2328 82.1228V83.8485C18.2328 84.0057 18.1043 84.1343 17.9457 84.1343ZM93.2442 82.2757C93.0871 82.2757 92.9585 82.1471 92.9585 81.99V80.2643C92.9585 80.1071 93.0871 79.9785 93.2442 79.9785C93.4014 79.9785 93.53 80.1071 93.53 80.2643V81.99C93.53 82.1471 93.4014 82.2757 93.2442 82.2757ZM17.9485 79.5314C17.7914 79.5314 17.6628 79.4028 17.6628 79.2457V77.52C17.6628 77.3628 17.7914 77.2343 17.95 77.2343C18.1071 77.2343 18.2357 77.3628 18.2357 77.52V79.2457C18.2357 79.4028 18.1071 79.5314 17.9485 79.5314ZM93.2457 77.6728C93.0885 77.6728 92.96 77.5443 92.96 77.3871V75.6614C92.96 75.5043 93.0885 75.3757 93.2457 75.3757C93.4028 75.3757 93.5314 75.5043 93.5314 75.6614V77.3871C93.5314 77.5443 93.4028 77.6728 93.2457 77.6728ZM17.95 74.93C17.7928 74.93 17.6643 74.8014 17.6643 74.6443V72.9185C17.6643 72.7614 17.7928 72.6328 17.9514 72.6328C18.1085 72.6328 18.2371 72.7614 18.2371 72.9185V74.6443C18.2371 74.8014 18.1085 74.93 17.95 74.93ZM93.2485 73.0714C93.0914 73.0714 92.9628 72.9428 92.9628 72.7857V71.06C92.9628 70.9028 93.0914 70.7743 93.2485 70.7743C93.4057 70.7743 93.5342 70.9028 93.5342 71.06V72.7857C93.5342 72.9428 93.4057 73.0714 93.2485 73.0714ZM17.9528 70.3271C17.7957 70.3271 17.6671 70.1985 17.6671 70.0414V68.3157C17.6671 68.1585 17.7957 68.03 17.9543 68.03C18.1114 68.03 18.24 68.1585 18.24 68.3157V70.0414C18.24 70.1985 18.1114 70.3271 17.9528 70.3271ZM93.25 68.4685C93.0928 68.4685 92.9642 68.34 92.9642 68.1828V66.4571C92.9642 66.3 93.0928 66.1714 93.25 66.1714C93.4071 66.1714 93.5357 66.3 93.5357 66.4571V68.1828C93.5357 68.34 93.4071 68.4685 93.25 68.4685ZM17.9557 65.7243C17.7985 65.7243 17.67 65.5957 17.67 65.4385V63.7128C17.67 63.5557 17.7985 63.4271 17.9571 63.4271C18.1143 63.4271 18.2428 63.5557 18.2428 63.7128V65.4385C18.2428 65.5957 18.1143 65.7243 17.9557 65.7243ZM93.2514 63.8657C93.0942 63.8657 92.9657 63.7371 92.9657 63.58V61.8543C92.9657 61.6971 93.0942 61.5685 93.2514 61.5685C93.4085 61.5685 93.5371 61.6971 93.5371 61.8543V63.58C93.5371 63.7371 93.4085 63.8657 93.2514 63.8657ZM17.9585 61.1214C17.8014 61.1214 17.6728 60.9928 17.6728 60.8357V59.11C17.6728 58.9528 17.8014 58.8243 17.96 58.8243C18.1171 58.8243 18.2457 58.9528 18.2457 59.11V60.8357C18.2457 60.9928 18.1171 61.1214 17.9585 61.1214ZM93.2528 59.2628C93.0957 59.2628 92.9671 59.1343 92.9671 58.9771V57.2514C92.9671 57.0943 93.0957 56.9657 93.2528 56.9657C93.41 56.9657 93.5385 57.0943 93.5385 57.2514V58.9771C93.5385 59.1343 93.41 59.2628 93.2528 59.2628ZM17.96 56.5185C17.8028 56.5185 17.6743 56.39 17.6743 56.2328V54.5071C17.6743 54.35 17.8028 54.2214 17.9614 54.2214C18.1185 54.2214 18.2471 54.35 18.2471 54.5071V56.2328C18.2471 56.39 18.1185 56.5185 17.96 56.5185ZM93.2414 54.66C93.0885 54.66 92.9614 54.5385 92.9557 54.3843C92.9371 53.8171 92.8985 53.2443 92.84 52.6814C92.8242 52.5243 92.9385 52.3843 93.0957 52.3685C93.2528 52.3514 93.3928 52.4671 93.4085 52.6243C93.4671 53.2 93.5071 53.7857 93.5257 54.3657C93.5314 54.5228 93.4071 54.6557 93.25 54.6614C93.2471 54.6614 93.2428 54.6614 93.24 54.6614L93.2414 54.66ZM17.9628 51.9157C17.8057 51.9157 17.6771 51.7871 17.6771 51.63V49.9043C17.6771 49.7471 17.8057 49.6185 17.9643 49.6185C18.1214 49.6185 18.25 49.7471 18.25 49.9043V51.63C18.25 51.7871 18.1214 51.9157 17.9628 51.9157ZM92.67 50.1C92.5385 50.1 92.42 50.0085 92.3914 49.8757C92.3714 49.7871 92.3514 49.6971 92.3314 49.6085C92.2257 49.1543 92.1057 48.7014 91.9642 48.2257C91.9185 48.0743 92.0057 47.9157 92.1571 47.87C92.3085 47.8257 92.4671 47.9114 92.5128 48.0628C92.6585 48.55 92.7814 49.0143 92.8885 49.48C92.91 49.5714 92.93 49.6628 92.95 49.7543C92.9843 49.9085 92.8871 50.0614 92.7328 50.0943C92.7128 50.0985 92.6914 50.1014 92.6714 50.1014L92.67 50.1ZM17.9657 47.3143C17.8085 47.3143 17.68 47.1857 17.68 47.0285V45.3028C17.68 45.1457 17.8085 45.0171 17.9671 45.0171C18.1243 45.0171 18.2528 45.1457 18.2528 45.3028V47.0285C18.2528 47.1857 18.1243 47.3143 17.9657 47.3143ZM91.2685 45.7214C91.1571 45.7214 91.05 45.6557 91.0042 45.5457C90.8914 45.2757 90.7728 45.0057 90.6528 44.7414C90.5485 44.5143 90.4328 44.26 90.3014 43.9843C90.2328 43.8414 90.2942 43.6714 90.4357 43.6028C90.5785 43.5343 90.7485 43.5957 90.8171 43.7371C90.95 44.0157 91.0671 44.2728 91.1728 44.5028C91.2957 44.7714 91.4157 45.0485 91.5314 45.3243C91.5928 45.47 91.5228 45.6371 91.3771 45.6985C91.3414 45.7143 91.3042 45.7214 91.2671 45.7214H91.2685ZM18.09 42.7157C18.08 42.7157 18.0714 42.7157 18.0614 42.7157C17.9043 42.7 17.79 42.5614 17.8043 42.4043C17.8271 42.1657 17.8543 41.9228 17.8843 41.6857C17.9243 41.3728 17.9657 41.0357 18.0171 40.68C18.04 40.5243 18.1843 40.4157 18.34 40.4371C18.4957 40.46 18.6043 40.6043 18.5828 40.76C18.5328 41.1128 18.4914 41.4471 18.4514 41.7571C18.4228 41.99 18.3957 42.2271 18.3728 42.46C18.3585 42.6071 18.2343 42.7185 18.0885 42.7185L18.09 42.7157ZM89.1785 41.6271C89.0842 41.6271 88.9914 41.58 88.9371 41.4943C88.6342 41.0157 88.3085 40.5443 87.97 40.0928C87.8757 39.9671 87.9 39.7871 88.0271 39.6928C88.1528 39.5985 88.3328 39.6228 88.4271 39.75C88.7742 40.2128 89.1085 40.6971 89.42 41.1885C89.5042 41.3214 89.4642 41.4985 89.3314 41.5828C89.2842 41.6128 89.2314 41.6271 89.1785 41.6271ZM18.8643 38.1828C18.84 38.1828 18.8143 38.18 18.7885 38.1728C18.6357 38.1314 18.5471 37.9743 18.5885 37.8214C18.7443 37.2514 18.9271 36.69 19.1314 36.1543C19.1871 36.0071 19.3528 35.9328 19.5 35.9885C19.6471 36.0443 19.7214 36.21 19.6657 36.3571C19.4685 36.8757 19.2914 37.4185 19.14 37.9714C19.1057 38.0985 18.99 38.1814 18.8643 38.1814V38.1828ZM86.3185 38.03C86.2442 38.03 86.1714 38.0014 86.1157 37.9457C85.7214 37.5471 85.3028 37.1557 84.8714 36.7814C84.7528 36.6785 84.74 36.4971 84.8428 36.3785C84.9457 36.26 85.1271 36.2471 85.2457 36.35C85.6871 36.7343 86.1171 37.1357 86.5214 37.5443C86.6328 37.6571 86.6314 37.8371 86.52 37.9485C86.4642 38.0043 86.3914 38.0314 86.3185 38.0314V38.03ZM82.7757 35.1014C82.7214 35.1014 82.6657 35.0857 82.6157 35.0528C82.2485 34.8057 81.87 34.5657 81.49 34.3414C81.3828 34.2771 81.2742 34.2143 81.1671 34.1543C81.03 34.0757 80.9828 33.9014 81.06 33.7643C81.1385 33.6271 81.3128 33.5785 81.45 33.6571C81.56 33.72 81.67 33.7843 81.7814 33.85C82.17 34.08 82.5585 34.3257 82.9342 34.58C83.0657 34.6685 83.1 34.8457 83.0114 34.9771C82.9557 35.0585 82.8657 35.1028 82.7742 35.1028L82.7757 35.1014ZM20.6485 33.9557C20.5985 33.9557 20.5485 33.9428 20.5028 33.9157C20.3671 33.8357 20.3228 33.66 20.4028 33.5243C20.7 33.0257 21.0271 32.5343 21.3757 32.0643C21.47 31.9371 21.6485 31.91 21.7757 32.0043C21.9028 32.0985 21.9285 32.2771 21.8357 32.4043C21.4985 32.8585 21.1828 33.3343 20.8957 33.8171C20.8428 33.9071 20.7471 33.9571 20.65 33.9571L20.6485 33.9557ZM78.73 32.9228C78.6928 32.9228 78.6557 32.9157 78.62 32.9C78.0985 32.6828 77.5614 32.4814 77.0228 32.3028C76.8728 32.2528 76.7914 32.0914 76.8414 31.9414C76.8914 31.7914 77.0528 31.71 77.2028 31.76C77.7542 31.9428 78.3042 32.1485 78.8385 32.3714C78.9842 32.4314 79.0528 32.6 78.9928 32.7457C78.9471 32.8557 78.8414 32.9214 78.7285 32.9214L78.73 32.9228ZM74.3343 31.5914C74.32 31.5914 74.3057 31.5914 74.2914 31.5885L72.5842 31.3357C72.4285 31.3128 72.32 31.1671 72.3428 31.0114C72.3657 30.8557 72.5114 30.7471 72.6671 30.77L74.3742 31.0228C74.53 31.0457 74.6385 31.1914 74.6157 31.3471C74.5942 31.4885 74.4728 31.5914 74.3328 31.5914H74.3343ZM69.78 30.9171C69.7657 30.9171 69.7514 30.9171 69.7371 30.9143L68.03 30.6614C67.8742 30.6385 67.7657 30.4928 67.7885 30.3371C67.8114 30.1814 67.9571 30.0728 68.1128 30.0957L69.82 30.3485C69.9757 30.3714 70.0842 30.5171 70.0614 30.6728C70.04 30.8143 69.9185 30.9171 69.7785 30.9171H69.78ZM23.5028 30.3614C23.4271 30.3614 23.3528 30.3314 23.2971 30.2743C23.1871 30.16 23.1914 29.98 23.3057 29.87C23.7357 29.4571 24.1743 29.0785 24.6114 28.7457L24.6371 28.7257C24.7614 28.6285 24.9414 28.6514 25.0385 28.7771C25.1357 28.9014 25.1128 29.0814 24.9871 29.1785L24.9571 29.2014C24.5371 29.5214 24.1157 29.8857 23.7014 30.2828C23.6457 30.3357 23.5743 30.3628 23.5028 30.3628V30.3614ZM65.2271 30.2443C65.2128 30.2443 65.1985 30.2443 65.1857 30.2414L63.4785 29.9885C63.3228 29.9657 63.2142 29.82 63.2371 29.6643C63.26 29.5085 63.4057 29.4014 63.5614 29.4228L65.2685 29.6757C65.4242 29.6985 65.5328 29.8443 65.51 30C65.4885 30.1414 65.3671 30.2443 65.2271 30.2443ZM60.6742 29.57C60.66 29.57 60.6457 29.57 60.6328 29.5671L58.9257 29.3143C58.77 29.2914 58.6614 29.1457 58.6842 28.99C58.7071 28.8343 58.8528 28.7257 59.0085 28.7485L60.7157 29.0014C60.8714 29.0243 60.98 29.17 60.9571 29.3257C60.9357 29.4671 60.8142 29.57 60.6742 29.57ZM56.1214 28.8957C56.1071 28.8957 56.0928 28.8957 56.08 28.8928L54.3728 28.64C54.2171 28.6171 54.1085 28.4714 54.1314 28.3157C54.1543 28.16 54.3 28.0514 54.4557 28.0743L56.1628 28.3271C56.3185 28.35 56.4271 28.4957 56.4042 28.6514C56.3828 28.7928 56.2614 28.8957 56.1214 28.8957ZM51.5685 28.2228C51.5542 28.2228 51.54 28.2228 51.5257 28.22L49.8185 27.9671C49.6628 27.9443 49.5543 27.7985 49.5771 27.6428C49.6 27.4871 49.7457 27.38 49.9014 27.4014L51.6085 27.6543C51.7643 27.6771 51.8728 27.8228 51.85 27.9785C51.8285 28.12 51.7071 28.2228 51.5671 28.2228H51.5685ZM27.2443 27.7071C27.14 27.7071 27.04 27.65 26.99 27.5514C26.9185 27.4114 26.9743 27.2385 27.1143 27.1671C27.2828 27.0814 27.4571 26.9957 27.6328 26.9128C27.6685 26.8957 27.7085 26.8757 27.7485 26.8585C28.0643 26.7128 28.3914 26.5757 28.7171 26.45C28.8643 26.3928 29.03 26.4671 29.0857 26.6143C29.1428 26.7614 29.0685 26.9271 28.9214 26.9828C28.6071 27.1028 28.2914 27.2371 27.9814 27.3785C27.9457 27.3943 27.9143 27.41 27.8814 27.4257C27.7057 27.5085 27.5371 27.5914 27.3742 27.6743C27.3328 27.6957 27.2885 27.7057 27.2443 27.7057V27.7071ZM47.0157 27.5485C47.0014 27.5485 46.9871 27.5485 46.9743 27.5457L45.2671 27.2928C45.1114 27.27 45.0028 27.1243 45.0257 26.9685C45.0485 26.8128 45.1943 26.7057 45.35 26.7271L47.0571 26.98C47.2128 27.0028 47.3214 27.1485 47.2985 27.3043C47.2771 27.4457 47.1557 27.5485 47.0157 27.5485ZM42.4628 26.8757C42.4485 26.8757 42.4342 26.8757 42.42 26.8728L42.1657 26.8357C41.6842 26.7585 41.1971 26.6871 40.7157 26.6243C40.56 26.6043 40.4485 26.46 40.47 26.3043C40.49 26.1471 40.6342 26.0371 40.79 26.0585C41.2771 26.1228 41.7685 26.1943 42.2514 26.2714L42.5014 26.3085C42.6571 26.3314 42.7657 26.4771 42.7414 26.6328C42.72 26.7743 42.5985 26.8771 42.4585 26.8771L42.4628 26.8757ZM37.8957 26.3143C37.8857 26.3143 37.8771 26.3143 37.8671 26.3143C37.1514 26.2443 36.6243 26.1971 36.1528 26.1585C35.9957 26.1457 35.8785 26.0085 35.8914 25.8514C35.9043 25.6943 36.0414 25.5743 36.1985 25.59C36.6728 25.6271 37.2042 25.6757 37.9228 25.7457C38.08 25.7614 38.1943 25.9 38.18 26.0571C38.1657 26.2043 38.0414 26.3157 37.8957 26.3157V26.3143ZM31.5871 26.2343C31.45 26.2343 31.3285 26.1357 31.3057 25.9957C31.28 25.84 31.3842 25.6928 31.54 25.6671C32.1143 25.57 32.6885 25.5128 33.2928 25.4914C33.45 25.4857 33.5828 25.6085 33.5885 25.7671C33.5942 25.9243 33.4714 26.0571 33.3128 26.0628C32.7328 26.0843 32.1842 26.14 31.6343 26.2314C31.6185 26.2343 31.6028 26.2357 31.5871 26.2357V26.2343Z" fill="black"/>
</g>
<g id="Group_11">
<path id="Vector_33" d="M107.246 48.3385C107.239 69.0642 107.233 89.7914 107.226 110.517C107.237 112.173 107.051 114.866 105.854 117.898C105.287 119.334 104.246 121.889 101.74 124.271C101.204 124.78 99.8001 126.044 97.7344 127.074L97.7172 127.083C97.4872 127.19 97.2558 127.299 97.0258 127.406C92.6501 129.453 88.2729 131.498 83.8972 133.546C85.8786 132.531 87.2272 131.317 87.7486 130.821C88.5301 130.078 89.1701 129.318 89.6958 128.581C90.8572 126.954 91.4729 125.437 91.8629 124.449C92.0986 123.85 92.2958 123.266 92.4586 122.7C93.1258 120.394 93.2429 118.396 93.2344 117.067C93.2401 96.3413 93.2472 75.6142 93.2544 54.8885C93.2358 53.4842 93.0958 51.6442 92.6086 49.5442C92.4558 48.8842 91.9829 46.9656 90.9144 44.6228C90.3529 43.3899 89.4272 41.3956 87.6472 39.2185C86.9672 38.3842 84.9758 36.0742 81.6372 34.0956C78.8944 32.4699 76.3243 31.7099 74.5186 31.3328C64.7001 29.8813 54.8829 28.4271 45.0643 26.9756C44.1129 26.8342 43.1601 26.6942 42.2086 26.5528C41.4286 26.4285 40.3201 26.2685 38.9815 26.1356C37.6015 25.9985 36.4772 25.8871 35.4943 25.8228C33.8243 25.7156 32.5643 25.7456 31.1572 26.0285C30.7043 26.1199 29.4415 26.3956 27.8629 27.1213C32.3801 25.0071 36.8958 22.8942 41.4143 20.7813C43.1972 19.8971 44.6543 19.5771 45.1486 19.4785C47.3843 19.0299 49.2472 19.2156 52.9729 19.5856C54.3115 19.7185 55.4201 19.8785 56.2001 20.0028C66.9701 21.5956 77.7401 23.1885 88.5101 24.7828C90.3158 25.1599 92.8858 25.9199 95.6286 27.5456C98.9672 29.5242 100.959 31.8342 101.639 32.6685C103.419 34.8456 104.344 36.8399 104.906 38.0728C105.974 40.4156 106.447 42.3342 106.6 42.9942C107.087 45.0942 107.229 46.9342 107.246 48.3385Z" fill="#EBECEE"/>
<g id="Group_12">
<path id="Vector_34" d="M83.8972 133.831C83.7915 133.831 83.69 133.773 83.64 133.671C83.5715 133.531 83.6272 133.363 83.7657 133.291C84.0129 133.164 84.2615 133.028 84.5057 132.887C84.6429 132.807 84.8172 132.854 84.8957 132.991C84.9029 133.004 84.91 133.018 84.9157 133.031C84.9215 133.041 84.9272 133.05 84.9315 133.061C84.9986 133.204 84.9372 133.374 84.7943 133.441L84.0186 133.804C83.98 133.823 83.9386 133.831 83.8972 133.831Z" fill="black"/>
<path id="Vector_35" d="M86.0929 132.48C86.0043 132.48 85.9172 132.438 85.8615 132.361C85.7686 132.234 85.7972 132.056 85.9243 131.963C86.3872 131.627 86.8301 131.27 87.2415 130.9C87.3586 130.794 87.5401 130.804 87.6443 130.921C87.7501 131.038 87.7401 131.22 87.6229 131.324C87.1972 131.707 86.7386 132.077 86.2601 132.424C86.2101 132.461 86.1501 132.478 86.0929 132.478V132.48ZM88.6472 130.178C88.5801 130.178 88.5115 130.154 88.4572 130.106C88.3401 130 88.3286 129.82 88.4343 129.703C88.7986 129.294 89.1458 128.86 89.4629 128.416L89.4872 128.381C89.5786 128.253 89.7572 128.221 89.8858 128.314C90.0143 128.406 90.0443 128.584 89.9529 128.713L89.9272 128.748C89.5972 129.21 89.2386 129.66 88.8601 130.084C88.8029 130.147 88.7258 130.18 88.6472 130.18V130.178ZM90.6401 127.376C90.5929 127.376 90.5443 127.364 90.5001 127.34C90.3629 127.263 90.3129 127.088 90.3901 126.951C90.6586 126.471 90.9058 125.974 91.1458 125.434C91.2101 125.29 91.3786 125.226 91.5229 125.288C91.6672 125.353 91.7329 125.521 91.6686 125.666C91.4229 126.223 91.1672 126.736 90.8886 127.231C90.8358 127.324 90.7386 127.377 90.6386 127.377L90.6401 127.376ZM92.0515 124.237C92.0186 124.237 91.9858 124.231 91.9543 124.22C91.8058 124.166 91.7301 124.001 91.7829 123.854C91.9315 123.446 92.0658 123.031 92.1843 122.621C92.2215 122.491 92.2572 122.363 92.2915 122.236C92.3329 122.083 92.4886 121.993 92.6415 122.033C92.7943 122.073 92.8843 122.23 92.8443 122.383C92.8086 122.514 92.7729 122.646 92.7343 122.78C92.6129 123.201 92.4743 123.63 92.3215 124.05C92.2786 124.166 92.1701 124.238 92.0529 124.238L92.0515 124.237ZM92.9386 120.913C92.9229 120.913 92.9058 120.913 92.8886 120.908C92.7329 120.881 92.6286 120.733 92.6558 120.578C92.7529 120.024 92.8272 119.458 92.8758 118.896C92.8901 118.738 93.0272 118.621 93.1843 118.636C93.3415 118.648 93.4586 118.787 93.4443 118.944C93.3943 119.523 93.3186 120.106 93.2186 120.677C93.1943 120.816 93.0743 120.914 92.9372 120.914L92.9386 120.913ZM93.2343 117.483C93.0772 117.483 92.9486 117.356 92.9486 117.198V115.476C92.9486 115.318 93.0772 115.19 93.2343 115.19C93.3915 115.19 93.5201 115.318 93.5201 115.476V117.066V117.196C93.5201 117.353 93.3915 117.483 93.2343 117.483ZM93.2358 114.038C93.0786 114.038 92.9501 113.91 92.9501 113.753V112.03C92.9501 111.873 93.0786 111.744 93.2358 111.744C93.3929 111.744 93.5215 111.873 93.5215 112.03V113.753C93.5215 113.91 93.3929 114.038 93.2358 114.038ZM93.2358 110.594C93.0786 110.594 92.9501 110.466 92.9501 110.308V108.586C92.9501 108.428 93.0786 108.3 93.2358 108.3C93.3929 108.3 93.5215 108.428 93.5215 108.586V110.308C93.5215 110.466 93.3929 110.594 93.2358 110.594ZM93.2372 107.148C93.0801 107.148 92.9515 107.02 92.9515 106.863V105.14C92.9515 104.983 93.0801 104.854 93.2372 104.854C93.3943 104.854 93.5229 104.983 93.5229 105.14V106.863C93.5229 107.02 93.3943 107.148 93.2372 107.148ZM93.2386 103.704C93.0815 103.704 92.9529 103.576 92.9529 103.418V101.696C92.9529 101.538 93.0815 101.41 93.2386 101.41C93.3958 101.41 93.5243 101.538 93.5243 101.696V103.418C93.5243 103.576 93.3958 103.704 93.2386 103.704ZM93.2386 100.258C93.0815 100.258 92.9529 100.13 92.9529 99.9727V98.2499C92.9529 98.0927 93.0815 97.9642 93.2386 97.9642C93.3958 97.9642 93.5243 98.0927 93.5243 98.2499V99.9727C93.5243 100.13 93.3958 100.258 93.2386 100.258ZM93.2401 96.8142C93.0829 96.8142 92.9543 96.6856 92.9543 96.5285V94.8056C92.9543 94.6485 93.0829 94.5199 93.2401 94.5199C93.3972 94.5199 93.5258 94.6485 93.5258 94.8056V96.5285C93.5258 96.6856 93.3972 96.8142 93.2401 96.8142ZM93.2415 93.3685C93.0843 93.3685 92.9558 93.2399 92.9558 93.0827V91.3599C92.9558 91.2027 93.0843 91.0742 93.2415 91.0742C93.3986 91.0742 93.5272 91.2027 93.5272 91.3599V93.0827C93.5272 93.2399 93.3986 93.3685 93.2415 93.3685ZM93.2429 89.9227C93.0858 89.9227 92.9572 89.7942 92.9572 89.637V87.9142C92.9572 87.757 93.0858 87.6285 93.2429 87.6285C93.4001 87.6285 93.5286 87.757 93.5286 87.9142V89.637C93.5286 89.7942 93.4001 89.9227 93.2429 89.9227ZM93.2429 86.4784C93.0858 86.4784 92.9572 86.3499 92.9572 86.1927V84.4699C92.9572 84.3127 93.0858 84.1842 93.2429 84.1842C93.4001 84.1842 93.5286 84.3127 93.5286 84.4699V86.1927C93.5286 86.3499 93.4001 86.4784 93.2429 86.4784ZM93.2443 83.0327C93.0872 83.0327 92.9586 82.9042 92.9586 82.747V81.0242C92.9586 80.867 93.0872 80.7384 93.2443 80.7384C93.4015 80.7384 93.5301 80.867 93.5301 81.0242V82.747C93.5301 82.9042 93.4015 83.0327 93.2443 83.0327ZM93.2458 79.5885C93.0886 79.5885 92.9601 79.4599 92.9601 79.3027V77.5799C92.9601 77.4227 93.0886 77.2942 93.2458 77.2942C93.4029 77.2942 93.5315 77.4227 93.5315 77.5799V79.3027C93.5315 79.4599 93.4029 79.5885 93.2458 79.5885ZM93.2472 76.1427C93.0901 76.1427 92.9615 76.0142 92.9615 75.857V74.1342C92.9615 73.977 93.0901 73.8484 93.2472 73.8484C93.4043 73.8484 93.5329 73.977 93.5329 74.1342V75.857C93.5329 76.0142 93.4043 76.1427 93.2472 76.1427ZM93.2486 72.6985C93.0915 72.6985 92.9629 72.5699 92.9629 72.4127V70.6899C92.9629 70.5327 93.0915 70.4042 93.2486 70.4042C93.4058 70.4042 93.5343 70.5327 93.5343 70.6899V72.4127C93.5343 72.5699 93.4058 72.6985 93.2486 72.6985ZM93.2486 69.2527C93.0915 69.2527 92.9629 69.1242 92.9629 68.967V67.2442C92.9629 67.087 93.0915 66.9585 93.2486 66.9585C93.4058 66.9585 93.5343 67.087 93.5343 67.2442V68.967C93.5343 69.1242 93.4058 69.2527 93.2486 69.2527ZM93.2501 65.807C93.0929 65.807 92.9643 65.6785 92.9643 65.5213V63.7985C92.9643 63.6413 93.0929 63.5127 93.2501 63.5127C93.4072 63.5127 93.5358 63.6413 93.5358 63.7985V65.5213C93.5358 65.6785 93.4072 65.807 93.2501 65.807ZM93.2515 62.3627C93.0943 62.3627 92.9658 62.2342 92.9658 62.077V60.3542C92.9658 60.197 93.0943 60.0685 93.2515 60.0685C93.4086 60.0685 93.5372 60.197 93.5372 60.3542V62.077C93.5372 62.2342 93.4086 62.3627 93.2515 62.3627ZM93.2529 58.9185C93.0958 58.9185 92.9672 58.7899 92.9672 58.6327V56.9099C92.9672 56.7527 93.0958 56.6242 93.2529 56.6242C93.4101 56.6242 93.5386 56.7527 93.5386 56.9099V58.6327C93.5386 58.7899 93.4101 58.9185 93.2529 58.9185ZM93.2543 55.4727C93.0972 55.4727 92.9686 55.3442 92.9686 55.187V54.8885C92.9629 54.4242 92.9429 53.9513 92.9101 53.4856C92.8986 53.3285 93.0172 53.1913 93.1758 53.1813C93.3329 53.1713 93.4701 53.2885 93.4801 53.447C93.5129 53.9227 93.5329 54.407 93.5401 54.8856V55.1885C93.5401 55.3456 93.4115 55.4742 93.2543 55.4742V55.4727ZM93.0172 52.0385C92.8772 52.0385 92.7543 51.9356 92.7343 51.7927C92.6572 51.2327 92.5586 50.6685 92.4415 50.1156C92.4086 49.9613 92.5086 49.8099 92.6629 49.777C92.8172 49.7442 92.9686 49.8427 93.0015 49.9985C93.1201 50.5642 93.2215 51.1413 93.3001 51.7142C93.3215 51.8699 93.2129 52.0142 93.0558 52.037C93.0429 52.0385 93.0286 52.0399 93.0158 52.0399L93.0172 52.0385ZM92.3072 48.6699C92.1829 48.6699 92.0686 48.5885 92.0329 48.4627C91.8786 47.927 91.7029 47.3827 91.5086 46.8413C91.4558 46.6927 91.5329 46.5299 91.6815 46.4756C91.8301 46.4227 91.9929 46.4999 92.0472 46.6485C92.2458 47.2013 92.4258 47.7585 92.5829 48.3056C92.6258 48.457 92.5386 48.6156 92.3872 48.6585C92.3615 48.6656 92.3343 48.6699 92.3086 48.6699H92.3072ZM91.1458 45.4285C91.0358 45.4285 90.9301 45.3642 90.8829 45.2556C90.8101 45.087 90.7343 44.9142 90.6543 44.7399C90.5172 44.4399 90.3558 44.087 90.1672 43.7027C90.0972 43.5613 90.1558 43.3899 90.2986 43.3199C90.4401 43.2499 90.6115 43.3085 90.6815 43.4513C90.8729 43.8413 91.0372 44.1985 91.1743 44.5027C91.2558 44.6813 91.3329 44.8556 91.4072 45.0285C91.4701 45.1727 91.4029 45.3413 91.2586 45.4042C91.2215 45.4199 91.1829 45.427 91.1458 45.427V45.4285ZM89.6143 42.3442C89.5158 42.3442 89.4201 42.2927 89.3672 42.2013C89.0815 41.7113 88.7758 41.2285 88.4558 40.7656C88.3658 40.6356 88.3986 40.4585 88.5286 40.3685C88.6586 40.2785 88.8358 40.3113 88.9258 40.4413C89.2529 40.9156 89.5686 41.4113 89.8601 41.9142C89.9401 42.0513 89.8929 42.2256 89.7572 42.3042C89.7115 42.3299 89.6629 42.3427 89.6143 42.3427V42.3442ZM87.6558 39.5142C87.5715 39.5142 87.4886 39.477 87.4329 39.407L87.6558 39.2285L87.4286 39.4013C87.0758 38.9685 86.7086 38.5556 86.3058 38.1385C86.1958 38.0256 86.1986 37.8442 86.3129 37.7342C86.4258 37.6242 86.6072 37.627 86.7172 37.7413C87.1315 38.1699 87.5086 38.5942 87.8686 39.037C87.8686 39.037 87.8786 39.0485 87.8786 39.0499C87.9772 39.1727 87.9572 39.3527 87.8343 39.4513C87.7815 39.4927 87.7186 39.5142 87.6558 39.5142ZM85.2672 37.0342C85.2001 37.0342 85.1315 37.0099 85.0772 36.9613C84.6558 36.587 84.2143 36.2227 83.7643 35.8785C83.6386 35.7827 83.6158 35.6027 83.7115 35.4785C83.8072 35.3527 83.9872 35.3299 84.1115 35.4256C84.5715 35.7785 85.0243 36.1513 85.4558 36.5356C85.5743 36.6399 85.5843 36.8213 85.4801 36.9385C85.4229 37.0013 85.3458 37.0342 85.2658 37.0342H85.2672ZM82.5343 34.9399C82.4801 34.9399 82.4258 34.9242 82.3786 34.8927C82.0886 34.7027 81.7901 34.5156 81.4915 34.3399C81.3043 34.2285 81.1115 34.1185 80.9215 34.0127C80.7829 33.9356 80.7343 33.7627 80.8101 33.6242C80.8872 33.4856 81.0601 33.4356 81.1986 33.5127C81.3929 33.6213 81.5901 33.7342 81.7829 33.847C82.0872 34.027 82.3929 34.2185 82.6915 34.4127C82.8229 34.4999 82.8601 34.677 82.7743 34.8085C82.7201 34.8927 82.6286 34.937 82.5358 34.937L82.5343 34.9399ZM79.5243 33.2713C79.4843 33.2713 79.4429 33.2627 79.4043 33.2456C78.8915 33.0085 78.3629 32.7885 77.8343 32.5913C77.6872 32.5356 77.6115 32.3713 77.6672 32.2242C77.7229 32.077 77.8872 32.0013 78.0343 32.057C78.5758 32.2599 79.1172 32.4856 79.6429 32.7285C79.7858 32.7942 79.8486 32.9642 79.7829 33.107C79.7343 33.2113 79.6315 33.2727 79.5229 33.2727L79.5243 33.2713ZM76.3015 32.0642C76.2743 32.0642 76.2472 32.0599 76.2215 32.0527C75.6786 31.8942 75.1243 31.7542 74.5729 31.6356C74.4186 31.6027 74.32 31.4513 74.3529 31.297C74.3858 31.1427 74.5372 31.0442 74.6915 31.077C75.2572 31.1985 75.8258 31.3413 76.3815 31.5042C76.5329 31.5485 76.6201 31.707 76.5758 31.8585C76.5386 31.9827 76.4258 32.0642 76.3015 32.0642ZM72.9286 31.3827C72.9143 31.3827 72.9001 31.3827 72.8872 31.3799L71.1829 31.1285C71.0272 31.1056 70.9186 30.9599 70.9415 30.8042C70.9643 30.6485 71.1101 30.5413 71.2658 30.5627L72.9701 30.8142C73.1258 30.837 73.2343 30.9827 73.2115 31.1385C73.1901 31.2799 73.0686 31.3827 72.9286 31.3827ZM69.5215 30.8785C69.5072 30.8785 69.4929 30.8785 69.4786 30.8756L67.7743 30.6242C67.6186 30.6013 67.5101 30.4556 67.5329 30.2999C67.5558 30.1442 67.7015 30.037 67.8572 30.0585L69.5615 30.3099C69.7172 30.3327 69.8258 30.4785 69.8029 30.6342C69.7815 30.7756 69.6601 30.8785 69.5201 30.8785H69.5215ZM66.1129 30.3742C66.0986 30.3742 66.0843 30.3742 66.07 30.3713L64.3658 30.1199C64.2101 30.097 64.1015 29.9513 64.1243 29.7956C64.1472 29.6399 64.2929 29.5313 64.4486 29.5542L66.1529 29.8056C66.3086 29.8285 66.4172 29.9742 66.3943 30.1299C66.3729 30.2713 66.2515 30.3742 66.1115 30.3742H66.1129ZM62.7043 29.8699C62.6901 29.8699 62.6758 29.8699 62.6615 29.867L60.9572 29.6156C60.8015 29.5927 60.6929 29.447 60.7158 29.2913C60.7386 29.1356 60.8843 29.0285 61.0401 29.0499L62.7443 29.3013C62.9001 29.3242 63.0086 29.4699 62.9858 29.6256C62.9643 29.767 62.8429 29.8699 62.7029 29.8699H62.7043ZM59.2972 29.3656C59.2829 29.3656 59.2686 29.3656 59.2558 29.3627L57.5515 29.1113C57.3958 29.0885 57.2872 28.9427 57.3101 28.787C57.3329 28.6313 57.4786 28.5242 57.6343 28.5456L59.3386 28.797C59.4943 28.8199 59.6029 28.9656 59.5801 29.1213C59.5586 29.2627 59.4372 29.3656 59.2972 29.3656ZM55.8886 28.8613C55.8743 28.8613 55.8601 28.8613 55.8472 28.8585L54.1429 28.607C53.9872 28.5842 53.8786 28.4385 53.9015 28.2827C53.9243 28.127 54.07 28.0185 54.2258 28.0413L55.9301 28.2927C56.0858 28.3156 56.1943 28.4613 56.1715 28.617C56.1501 28.7585 56.0286 28.8613 55.8886 28.8613ZM52.4815 28.357C52.4672 28.357 52.4529 28.357 52.4386 28.3542L50.7343 28.1027C50.5786 28.0799 50.4701 27.9342 50.4929 27.7785C50.5158 27.6227 50.6615 27.5142 50.8172 27.537L52.5215 27.7885C52.6772 27.8113 52.7858 27.957 52.7629 28.1127C52.7415 28.2542 52.62 28.357 52.48 28.357H52.4815ZM49.0729 27.8527C49.0586 27.8527 49.0443 27.8527 49.0315 27.8499L47.3272 27.5985C47.1715 27.5756 47.0629 27.4299 47.0858 27.2742C47.1086 27.1185 47.2543 27.0099 47.4101 27.0327L49.1143 27.2842C49.2701 27.307 49.3786 27.4527 49.3558 27.6085C49.3343 27.7499 49.2129 27.8527 49.0729 27.8527ZM45.6643 27.3499C45.6501 27.3499 45.6358 27.3499 45.6229 27.347L43.9186 27.0942C43.7629 27.0713 43.6543 26.9256 43.6772 26.7699C43.7001 26.6142 43.8458 26.507 44.0015 26.5285L45.7058 26.7813C45.8615 26.8042 45.9701 26.9499 45.9472 27.1056C45.9258 27.247 45.8043 27.3499 45.6643 27.3499ZM42.2572 26.8456C42.2429 26.8456 42.2286 26.8456 42.2158 26.8427L42.1672 26.8356C41.6172 26.7485 41.0629 26.6685 40.5158 26.5985C40.3586 26.5785 40.2486 26.4356 40.2686 26.2785C40.2886 26.1213 40.4315 26.0099 40.5886 26.0313C41.1415 26.1027 41.7015 26.1827 42.2543 26.2713L42.3001 26.2785C42.4558 26.3013 42.5643 26.447 42.5415 26.6027C42.5201 26.7442 42.3986 26.847 42.2586 26.847L42.2572 26.8456ZM30.2843 26.5213C30.1586 26.5213 30.0443 26.4385 30.0086 26.3113C29.9672 26.1585 30.0572 26.0013 30.2086 25.9599C30.5115 25.877 30.8029 25.8085 31.1001 25.7485C31.3815 25.6913 31.6529 25.6456 31.9315 25.607C32.0872 25.587 32.2315 25.6956 32.2529 25.8513C32.2743 26.007 32.1643 26.1513 32.0086 26.1727C31.7429 26.2099 31.4815 26.2542 31.2129 26.3085C30.9286 26.3656 30.6486 26.4327 30.3586 26.5113C30.3329 26.5185 30.3086 26.5213 30.2829 26.5213H30.2843ZM38.8401 26.407C38.8301 26.407 38.8215 26.407 38.8115 26.407C38.1915 26.3456 37.6243 26.2899 37.0986 26.2413C36.9415 26.227 36.8258 26.087 36.8401 25.9313C36.8543 25.7742 36.9929 25.6585 37.1515 25.6727C37.6786 25.7213 38.2472 25.777 38.8672 25.8385C39.0243 25.8542 39.1386 25.9942 39.1229 26.1513C39.1086 26.2985 38.9843 26.4085 38.8386 26.4085L38.8401 26.407ZM35.4086 26.1027C35.4086 26.1027 35.3972 26.1027 35.3901 26.1027C34.7401 26.0627 34.1958 26.047 33.6901 26.0527H33.6858C33.5301 26.0527 33.4029 25.927 33.4001 25.7713C33.3972 25.6142 33.5243 25.4842 33.6815 25.4813C34.2015 25.4742 34.7601 25.4913 35.4243 25.5327C35.5815 25.5427 35.7015 25.6785 35.6915 25.8356C35.6815 25.987 35.5558 26.1042 35.4072 26.1042L35.4086 26.1027Z" fill="black"/>
<path id="Vector_36" d="M27.8629 27.4071C27.7557 27.4071 27.6514 27.3457 27.6029 27.2414C27.5371 27.0986 27.5986 26.9286 27.7414 26.8628L28.5171 26.5C28.66 26.4328 28.83 26.4943 28.8971 26.6371C28.9 26.6428 28.9029 26.6486 28.9043 26.6543C28.9086 26.6614 28.9114 26.67 28.9157 26.6786C28.9743 26.8257 28.9029 26.9914 28.7557 27.05C28.4957 27.1528 28.2357 27.2643 27.9814 27.3814C27.9429 27.3986 27.9029 27.4071 27.8629 27.4071Z" fill="black"/>
<path id="Vector_37" d="M86.2343 132.739C86.1272 132.739 86.0243 132.677 85.9758 132.574C85.9086 132.431 85.97 132.261 86.1129 132.194L87.6729 131.464C87.8158 131.397 87.9858 131.459 88.0529 131.601C88.12 131.744 88.0586 131.914 87.9158 131.981L86.3558 132.711C86.3172 132.73 86.2758 132.739 86.2343 132.739ZM89.3529 131.279C89.2458 131.279 89.1429 131.217 89.0943 131.114C89.0272 130.971 89.0886 130.801 89.2315 130.734L90.7915 130.006C90.9343 129.939 91.1043 130 91.1715 130.143C91.2386 130.286 91.1772 130.456 91.0343 130.523L89.4743 131.251C89.4358 131.27 89.3943 131.279 89.3529 131.279ZM92.4715 129.821C92.3643 129.821 92.2615 129.76 92.2129 129.657C92.1458 129.514 92.2072 129.344 92.35 129.277L93.91 128.547C94.0529 128.48 94.2229 128.541 94.29 128.684C94.3572 128.827 94.2958 128.997 94.1529 129.064L92.5929 129.794C92.5543 129.813 92.5129 129.821 92.4715 129.821ZM95.5915 128.361C95.4843 128.361 95.3815 128.3 95.3329 128.197C95.2658 128.054 95.3272 127.884 95.47 127.817L97.03 127.087C97.1729 127.02 97.3429 127.083 97.41 127.226C97.4772 127.369 97.4143 127.539 97.2715 127.606L95.7129 128.334C95.6743 128.353 95.6329 128.361 95.5915 128.361ZM98.6815 126.847C98.5829 126.847 98.4872 126.797 98.4343 126.706C98.3543 126.57 98.4 126.394 98.5372 126.314C99.0186 126.033 99.4958 125.72 99.9529 125.387C100.08 125.294 100.259 125.321 100.351 125.45C100.444 125.577 100.417 125.756 100.289 125.849C99.8158 126.194 99.3243 126.516 98.8243 126.809C98.7786 126.836 98.73 126.847 98.68 126.847H98.6815ZM101.457 124.819C101.379 124.819 101.301 124.787 101.244 124.724C101.139 124.607 101.149 124.427 101.266 124.32C101.376 124.221 101.469 124.134 101.543 124.063C101.86 123.761 102.166 123.444 102.454 123.12C102.559 123.001 102.74 122.991 102.857 123.096C102.976 123.2 102.986 123.381 102.881 123.499C102.583 123.836 102.264 124.164 101.937 124.477C101.859 124.551 101.763 124.641 101.649 124.744C101.594 124.793 101.526 124.817 101.457 124.817V124.819ZM103.736 122.247C103.679 122.247 103.621 122.23 103.571 122.194C103.443 122.103 103.411 121.926 103.503 121.796C103.823 121.341 104.126 120.86 104.401 120.364C104.479 120.227 104.653 120.177 104.79 120.254C104.927 120.331 104.977 120.504 104.9 120.643C104.614 121.156 104.3 121.656 103.969 122.126C103.913 122.204 103.824 122.247 103.734 122.247H103.736ZM105.414 119.247C105.376 119.247 105.337 119.24 105.3 119.223C105.156 119.16 105.09 118.991 105.153 118.846C105.326 118.453 105.467 118.096 105.589 117.793C105.659 117.616 105.724 117.441 105.787 117.266C105.841 117.117 106.004 117.04 106.153 117.094C106.301 117.148 106.379 117.311 106.324 117.46C106.26 117.64 106.191 117.82 106.12 118.003C105.999 118.311 105.853 118.674 105.677 119.076C105.63 119.183 105.526 119.247 105.416 119.247H105.414ZM106.569 116.007C106.544 116.007 106.52 116.004 106.496 115.997C106.343 115.957 106.253 115.8 106.293 115.647C106.437 115.103 106.559 114.546 106.654 113.99C106.681 113.834 106.829 113.73 106.984 113.757C107.14 113.784 107.244 113.931 107.217 114.087C107.119 114.66 106.993 115.233 106.844 115.793C106.81 115.921 106.694 116.006 106.569 116.006V116.007ZM107.156 112.617C107.147 112.617 107.14 112.617 107.131 112.617C106.974 112.604 106.857 112.466 106.871 112.309C106.917 111.761 106.941 111.206 106.941 110.656V110.614C106.941 110.457 107.069 110.329 107.226 110.329C107.383 110.329 107.511 110.456 107.511 110.614V110.657C107.511 111.223 107.487 111.796 107.44 112.359C107.427 112.507 107.303 112.62 107.156 112.62V112.617ZM107.226 109.176C107.069 109.176 106.94 109.047 106.94 108.89V107.169C106.94 107.011 107.069 106.883 107.226 106.883C107.383 106.883 107.511 107.011 107.511 107.169V108.89C107.511 109.047 107.383 109.176 107.226 109.176ZM107.227 105.733C107.07 105.733 106.941 105.604 106.941 105.447V103.726C106.941 103.569 107.07 103.44 107.227 103.44C107.384 103.44 107.513 103.569 107.513 103.726V105.447C107.513 105.604 107.384 105.733 107.227 105.733ZM107.229 102.29C107.071 102.29 106.943 102.161 106.943 102.004V100.283C106.943 100.126 107.071 99.9971 107.229 99.9971C107.386 99.9971 107.514 100.126 107.514 100.283V102.004C107.514 102.161 107.386 102.29 107.229 102.29ZM107.23 98.8471C107.073 98.8471 106.944 98.7185 106.944 98.5614V96.8399C106.944 96.6828 107.073 96.5542 107.23 96.5542C107.387 96.5542 107.516 96.6828 107.516 96.8399V98.5614C107.516 98.7185 107.387 98.8471 107.23 98.8471ZM107.23 95.4042C107.073 95.4042 106.944 95.2757 106.944 95.1185V93.3971C106.944 93.2399 107.073 93.1114 107.23 93.1114C107.387 93.1114 107.516 93.2399 107.516 93.3971V95.1185C107.516 95.2757 107.387 95.4042 107.23 95.4042ZM107.231 91.9599C107.074 91.9599 106.946 91.8314 106.946 91.6742V89.9528C106.946 89.7956 107.074 89.6671 107.231 89.6671C107.389 89.6671 107.517 89.7956 107.517 89.9528V91.6742C107.517 91.8314 107.389 91.9599 107.231 91.9599ZM107.233 88.5171C107.076 88.5171 106.947 88.3885 106.947 88.2314V86.5099C106.947 86.3528 107.076 86.2242 107.233 86.2242C107.39 86.2242 107.519 86.3528 107.519 86.5099V88.2314C107.519 88.3885 107.39 88.5171 107.233 88.5171ZM107.234 85.0742C107.077 85.0742 106.949 84.9456 106.949 84.7885V83.0671C106.949 82.9099 107.077 82.7814 107.234 82.7814C107.391 82.7814 107.52 82.9099 107.52 83.0671V84.7885C107.52 84.9456 107.391 85.0742 107.234 85.0742ZM107.234 81.6314C107.077 81.6314 106.949 81.5028 106.949 81.3456V79.6242C106.949 79.4671 107.077 79.3385 107.234 79.3385C107.391 79.3385 107.52 79.4671 107.52 79.6242V81.3456C107.52 81.5028 107.391 81.6314 107.234 81.6314ZM107.236 78.1885C107.079 78.1885 106.95 78.0599 106.95 77.9028V76.1814C106.95 76.0242 107.079 75.8956 107.236 75.8956C107.393 75.8956 107.521 76.0242 107.521 76.1814V77.9028C107.521 78.0599 107.393 78.1885 107.236 78.1885ZM107.237 74.7456C107.08 74.7456 106.951 74.6171 106.951 74.4599V72.7385C106.951 72.5814 107.08 72.4528 107.237 72.4528C107.394 72.4528 107.523 72.5814 107.523 72.7385V74.4599C107.523 74.6171 107.394 74.7456 107.237 74.7456ZM107.239 71.3014C107.081 71.3014 106.953 71.1728 106.953 71.0156V69.2942C106.953 69.1371 107.081 69.0085 107.239 69.0085C107.396 69.0085 107.524 69.1371 107.524 69.2942V71.0156C107.524 71.1728 107.396 71.3014 107.239 71.3014ZM107.239 67.8585C107.081 67.8585 106.953 67.7299 106.953 67.5728V65.8514C106.953 65.6942 107.081 65.5657 107.239 65.5657C107.396 65.5657 107.524 65.6942 107.524 65.8514V67.5728C107.524 67.7299 107.396 67.8585 107.239 67.8585ZM107.24 64.4157C107.083 64.4157 106.954 64.2871 106.954 64.1299V62.4085C106.954 62.2514 107.083 62.1228 107.24 62.1228C107.397 62.1228 107.526 62.2514 107.526 62.4085V64.1299C107.526 64.2871 107.397 64.4157 107.24 64.4157ZM107.241 60.9728C107.084 60.9728 106.956 60.8442 106.956 60.6871V58.9656C106.956 58.8085 107.084 58.6799 107.241 58.6799C107.399 58.6799 107.527 58.8085 107.527 58.9656V60.6871C107.527 60.8442 107.399 60.9728 107.241 60.9728ZM107.243 57.5299C107.086 57.5299 106.957 57.4014 106.957 57.2442V55.5228C106.957 55.3657 107.086 55.2371 107.243 55.2371C107.4 55.2371 107.529 55.3657 107.529 55.5228V57.2442C107.529 57.4014 107.4 57.5299 107.243 57.5299ZM107.244 54.0856C107.087 54.0856 106.959 53.9571 106.959 53.7999V52.0785C106.959 51.9214 107.087 51.7928 107.244 51.7928C107.401 51.7928 107.53 51.9214 107.53 52.0785V53.7999C107.53 53.9571 107.401 54.0856 107.244 54.0856ZM107.244 50.6428C107.087 50.6428 106.959 50.5142 106.959 50.3571V48.6357C106.959 48.4785 107.087 48.3499 107.244 48.3499C107.401 48.3499 107.53 48.4785 107.53 48.6357V50.3571C107.53 50.5142 107.401 50.6428 107.244 50.6428ZM107.187 47.2014C107.039 47.2014 106.913 47.0856 106.903 46.9356C106.864 46.3728 106.804 45.8028 106.727 45.2428C106.706 45.0871 106.814 44.9428 106.971 44.9199C107.127 44.8971 107.271 45.0071 107.294 45.1642C107.374 45.7371 107.434 46.3199 107.474 46.8956C107.486 47.0528 107.367 47.1899 107.209 47.1999C107.201 47.1999 107.196 47.1999 107.189 47.1999L107.187 47.2014ZM106.713 43.7942C106.58 43.7942 106.461 43.7014 106.433 43.5671C106.397 43.3999 106.36 43.2299 106.32 43.0585C106.233 42.6799 106.136 42.3071 106.023 41.9156C105.98 41.7642 106.067 41.6056 106.219 41.5628C106.37 41.5185 106.529 41.6071 106.571 41.7585C106.686 42.1585 106.786 42.5414 106.876 42.9299C106.916 43.1056 106.954 43.2785 106.99 43.4499C107.023 43.6042 106.923 43.7556 106.769 43.7885C106.749 43.7928 106.729 43.7942 106.71 43.7942H106.713ZM105.77 40.4842C105.653 40.4842 105.543 40.4114 105.501 40.2942C105.31 39.7614 105.1 39.2285 104.876 38.7099C104.813 38.5656 104.88 38.3971 105.026 38.3342C105.17 38.2728 105.339 38.3385 105.401 38.4828C105.63 39.0128 105.844 39.5571 106.04 40.1014C106.093 40.2499 106.016 40.4142 105.867 40.4671C105.836 40.4785 105.803 40.4842 105.77 40.4842ZM104.419 37.3185C104.313 37.3185 104.211 37.2599 104.161 37.1585C103.9 36.6256 103.639 36.1342 103.361 35.6571C103.283 35.5199 103.329 35.3456 103.464 35.2671C103.6 35.1871 103.776 35.2342 103.854 35.3699C104.139 35.8585 104.406 36.3614 104.673 36.9071C104.743 37.0485 104.684 37.2199 104.541 37.2899C104.501 37.3099 104.459 37.3185 104.416 37.3185H104.419ZM102.687 34.3471C102.597 34.3471 102.507 34.3042 102.451 34.2242C102.131 33.7599 101.787 33.3042 101.431 32.8671C101.331 32.7442 101.35 32.5642 101.473 32.4656C101.596 32.3656 101.776 32.3842 101.874 32.5071C102.24 32.9556 102.593 33.4242 102.923 33.9014C103.013 34.0314 102.98 34.2099 102.85 34.2985C102.8 34.3328 102.744 34.3485 102.687 34.3485V34.3471ZM100.509 31.6828C100.434 31.6828 100.359 31.6542 100.303 31.5956C99.9158 31.1942 99.5029 30.7985 99.0772 30.4185C98.96 30.3142 98.9486 30.1328 99.0543 30.0156C99.1586 29.8985 99.34 29.8871 99.4572 29.9928C99.8943 30.3814 100.317 30.7885 100.714 31.1999C100.824 31.3128 100.82 31.4942 100.707 31.6042C100.651 31.6571 100.58 31.6842 100.509 31.6842V31.6828ZM97.94 29.3942C97.88 29.3942 97.8186 29.3756 97.7658 29.3356C97.3172 28.9928 96.8515 28.6614 96.3786 28.3514C96.2472 28.2642 96.21 28.0871 96.2972 27.9556C96.3843 27.8242 96.5615 27.7871 96.6929 27.8742C97.1758 28.1914 97.6543 28.5314 98.1129 28.8828C98.2386 28.9785 98.2615 29.1585 98.1657 29.2828C98.11 29.3556 98.0243 29.3942 97.9386 29.3942H97.94ZM95.0629 27.5071C95.0158 27.5071 94.9686 27.4956 94.9243 27.4714C94.4315 27.1971 93.9215 26.9385 93.4086 26.7014C93.2658 26.6356 93.2029 26.4656 93.2686 26.3228C93.3343 26.1799 93.5043 26.1171 93.6472 26.1828C94.1729 26.4256 94.6943 26.6914 95.2 26.9714C95.3386 27.0485 95.3872 27.2214 95.3115 27.3599C95.2586 27.4542 95.1615 27.5071 95.0615 27.5071H95.0629ZM30.1986 26.3128C30.0915 26.3128 29.9886 26.2514 29.94 26.1485C29.8729 26.0056 29.9343 25.8356 30.0772 25.7685L31.6358 25.0385C31.7786 24.9714 31.9486 25.0328 32.0158 25.1756C32.0829 25.3185 32.0215 25.4885 31.8786 25.5556L30.32 26.2856C30.2815 26.3042 30.24 26.3128 30.1986 26.3128ZM91.9415 26.0642C91.9086 26.0642 91.8743 26.0585 91.8415 26.0456C91.3143 25.8471 90.7715 25.6671 90.2286 25.5071C90.0772 25.4628 89.99 25.3042 90.0343 25.1528C90.0786 25.0014 90.2372 24.9142 90.3886 24.9585C90.9443 25.1214 91.5 25.3071 92.0415 25.5099C92.1886 25.5656 92.2643 25.7299 92.2086 25.8785C92.1658 25.9928 92.0572 26.0642 91.9415 26.0642ZM88.64 25.0956C88.62 25.0956 88.6 25.0942 88.5786 25.0885L88.4586 25.0628L86.8958 24.8314C86.74 24.8085 86.6315 24.6628 86.6543 24.5071C86.6772 24.3514 86.8229 24.2428 86.9786 24.2656L88.55 24.4985C88.55 24.4985 88.5615 24.4999 88.5658 24.5014L88.6986 24.5299C88.8529 24.5628 88.95 24.7156 88.9172 24.8699C88.8886 25.0042 88.77 25.0956 88.6386 25.0956H88.64ZM33.3172 24.8542C33.21 24.8542 33.1072 24.7928 33.0586 24.6899C32.9915 24.5471 33.0529 24.3771 33.1958 24.3099L34.7543 23.5799C34.8972 23.5128 35.0672 23.5742 35.1343 23.7171C35.2015 23.8599 35.14 24.0299 34.9972 24.0971L33.4372 24.8271C33.3986 24.8456 33.3572 24.8542 33.3158 24.8542H33.3172ZM85.2358 24.5828C85.2215 24.5828 85.2072 24.5828 85.1929 24.5799L83.49 24.3285C83.3343 24.3056 83.2258 24.1599 83.2486 24.0042C83.2715 23.8485 83.4172 23.7399 83.5729 23.7628L85.2758 24.0142C85.4315 24.0371 85.54 24.1828 85.5172 24.3385C85.4958 24.4799 85.3743 24.5828 85.2343 24.5828H85.2358ZM81.83 24.0785C81.8158 24.0785 81.8015 24.0785 81.7872 24.0756L80.0843 23.8242C79.9286 23.8014 79.82 23.6556 79.8429 23.4999C79.8658 23.3442 80.0115 23.2371 80.1672 23.2585L81.87 23.5099C82.0258 23.5328 82.1343 23.6785 82.1115 23.8342C82.09 23.9756 81.9686 24.0785 81.8286 24.0785H81.83ZM78.4229 23.5756C78.4086 23.5756 78.3943 23.5756 78.38 23.5728L76.6772 23.3214C76.5215 23.2985 76.4129 23.1528 76.4358 22.9971C76.4586 22.8414 76.6043 22.7342 76.76 22.7556L78.4629 23.0071C78.6186 23.0299 78.7272 23.1756 78.7043 23.3314C78.6829 23.4728 78.5615 23.5756 78.4215 23.5756H78.4229ZM36.4358 23.3942C36.3286 23.3942 36.2258 23.3328 36.1772 23.2299C36.11 23.0871 36.1715 22.9171 36.3143 22.8499L37.8743 22.1199C38.0172 22.0528 38.1872 22.1142 38.2543 22.2571C38.3215 22.3999 38.26 22.5699 38.1172 22.6371L36.5572 23.3671C36.5186 23.3856 36.4772 23.3942 36.4358 23.3942ZM75.0172 23.0714C75.0029 23.0714 74.9886 23.0714 74.9743 23.0685L73.2715 22.8171C73.1158 22.7942 73.0072 22.6485 73.03 22.4928C73.0529 22.3371 73.1986 22.2299 73.3543 22.2514L75.0572 22.5028C75.2129 22.5256 75.3215 22.6714 75.2986 22.8271C75.2772 22.9685 75.1558 23.0714 75.0158 23.0714H75.0172ZM71.6115 22.5671C71.5972 22.5671 71.5829 22.5671 71.5686 22.5642L69.8658 22.3128C69.71 22.2899 69.6015 22.1442 69.6243 21.9885C69.6472 21.8328 69.7929 21.7242 69.9486 21.7471L71.6515 21.9985C71.8072 22.0214 71.9158 22.1671 71.8929 22.3228C71.8715 22.4642 71.75 22.5671 71.61 22.5671H71.6115ZM68.2058 22.0642C68.1915 22.0642 68.1772 22.0642 68.1629 22.0614L66.46 21.8099C66.3043 21.7871 66.1958 21.6414 66.2186 21.4856C66.2415 21.3299 66.3872 21.2228 66.5429 21.2442L68.2458 21.4956C68.4015 21.5185 68.51 21.6642 68.4872 21.8199C68.4658 21.9614 68.3443 22.0642 68.2043 22.0642H68.2058ZM39.5543 21.9356C39.4472 21.9356 39.3443 21.8742 39.2958 21.7714C39.2286 21.6285 39.29 21.4585 39.4329 21.3914L40.9929 20.6614C41.1358 20.5942 41.3058 20.6556 41.3729 20.7985C41.44 20.9414 41.3786 21.1114 41.2358 21.1785L39.6758 21.9085C39.6372 21.9271 39.5958 21.9356 39.5543 21.9356ZM64.7986 21.5599C64.7843 21.5599 64.77 21.5599 64.7558 21.5571L63.0529 21.3056C62.8972 21.2828 62.7886 21.1371 62.8115 20.9814C62.8343 20.8256 62.98 20.7171 63.1358 20.7399L64.8386 20.9914C64.9943 21.0142 65.1029 21.1599 65.08 21.3156C65.0586 21.4571 64.9372 21.5599 64.7972 21.5599H64.7986ZM61.3929 21.0556C61.3786 21.0556 61.3643 21.0556 61.3515 21.0528L59.6486 20.8014C59.4929 20.7785 59.3843 20.6328 59.4072 20.4771C59.43 20.3214 59.5758 20.2128 59.7315 20.2356L61.4343 20.4871C61.59 20.5099 61.6986 20.6556 61.6758 20.8114C61.6543 20.9528 61.5329 21.0556 61.3929 21.0556ZM57.9872 20.5528C57.9729 20.5528 57.9586 20.5528 57.9458 20.5499L56.2429 20.2985C56.0872 20.2756 55.9786 20.1299 56.0015 19.9742C56.0243 19.8185 56.17 19.7114 56.3258 19.7328L58.0286 19.9842C58.1843 20.0071 58.2929 20.1528 58.27 20.3085C58.2486 20.4499 58.1272 20.5528 57.9872 20.5528ZM42.6843 20.5028C42.57 20.5028 42.4629 20.4342 42.4186 20.3214C42.36 20.1742 42.4329 20.0085 42.58 19.9514C43.1343 19.7328 43.6943 19.5471 44.2429 19.3985C44.3958 19.3571 44.5515 19.4471 44.5929 19.5999C44.6343 19.7528 44.5443 19.9099 44.3915 19.9499C43.8629 20.0928 43.3229 20.2714 42.7886 20.4828C42.7543 20.4956 42.7186 20.5028 42.6843 20.5028ZM54.58 20.0542C54.5672 20.0542 54.5558 20.0542 54.5429 20.0514C54.0115 19.9828 53.4729 19.9214 52.9443 19.8685L52.8415 19.8585C52.6843 19.8428 52.57 19.7042 52.5843 19.5471C52.6 19.3899 52.7386 19.2742 52.8958 19.2899L52.99 19.2999C53.5343 19.3542 54.0786 19.4156 54.6158 19.4856C54.7729 19.5056 54.8829 19.6485 54.8629 19.8056C54.8443 19.9499 54.7215 20.0542 54.58 20.0542ZM51.1558 19.6942C51.1472 19.6942 51.1386 19.6942 51.1286 19.6942C50.4372 19.6299 49.8958 19.5856 49.4215 19.5556C49.2643 19.5456 49.1443 19.4099 49.1543 19.2528C49.1643 19.0956 49.3 18.9742 49.4572 18.9856C49.9372 19.0156 50.4843 19.0599 51.1815 19.1256C51.3386 19.1399 51.4543 19.2799 51.44 19.4371C51.4258 19.5856 51.3015 19.6971 51.1558 19.6971V19.6942ZM46.0043 19.6199C45.8629 19.6199 45.74 19.5156 45.7215 19.3728C45.7 19.2171 45.81 19.0728 45.9672 19.0514C46.5286 18.9756 47.1015 18.9371 47.7186 18.9299C47.8772 18.9299 48.0058 19.0542 48.0072 19.2128C48.0086 19.3699 47.8815 19.4999 47.7243 19.5014C47.1315 19.5071 46.5815 19.5456 46.0429 19.6171C46.03 19.6185 46.0172 19.6199 46.0043 19.6199Z" fill="black"/>
</g>
</g>
<g id="Layer 166 copy">
<g id="Group_13">
<path id="Vector_38" d="M7.23706 109.826C16.7628 111.257 26.2885 112.69 35.8156 114.121C41.1199 111.58 46.4242 109.038 51.7285 106.498L23.1171 102.156C17.8242 104.713 12.5313 107.27 7.23849 109.826H7.23706Z" fill="#FF535E"/>
<g id="Group_14">
<path id="Vector_39" d="M8.08569 110.238C8.0714 110.238 8.05712 110.238 8.04283 110.235L7.19569 110.108C7.0714 110.09 6.97426 109.993 6.95569 109.868C6.93712 109.744 7.0014 109.623 7.11426 109.568L7.88569 109.195C8.02712 109.127 8.19854 109.187 8.26712 109.328C8.32854 109.454 8.28854 109.603 8.17854 109.683C8.30569 109.727 8.38854 109.857 8.36712 109.995C8.34569 110.137 8.22426 110.238 8.08426 110.238H8.08569Z" fill="black"/>
<path id="Vector_40" d="M35.9814 114.328C35.8742 114.328 35.7728 114.268 35.7228 114.166C35.6542 114.023 35.7142 113.853 35.8571 113.784L37.3542 113.067C37.4971 112.998 37.6671 113.058 37.7357 113.201C37.8042 113.344 37.7442 113.514 37.6014 113.583L36.1042 114.3C36.0642 114.318 36.0228 114.328 35.9814 114.328ZM34.3557 114.188C34.3414 114.188 34.3271 114.188 34.3128 114.186L32.6714 113.938C32.5157 113.916 32.4085 113.77 32.4314 113.613C32.4542 113.457 32.5999 113.35 32.7571 113.373L34.3985 113.62C34.5542 113.643 34.6614 113.788 34.6385 113.944C34.6171 114.086 34.4957 114.187 34.3557 114.187V114.188ZM31.0714 113.694C31.0571 113.694 31.0428 113.694 31.0285 113.691L29.3871 113.444C29.2314 113.421 29.1242 113.276 29.1471 113.118C29.1699 112.963 29.3157 112.853 29.4728 112.878L31.1142 113.126C31.2699 113.148 31.3771 113.294 31.3542 113.45C31.3328 113.591 31.2114 113.693 31.0714 113.693V113.694ZM27.7885 113.2C27.7742 113.2 27.7599 113.2 27.7457 113.197L26.1042 112.95C25.9485 112.927 25.8414 112.781 25.8642 112.624C25.8871 112.468 26.0328 112.36 26.1899 112.384L27.8314 112.631C27.9871 112.654 28.0942 112.8 28.0714 112.956C28.0499 113.097 27.9285 113.198 27.7885 113.198V113.2ZM38.9757 112.893C38.8685 112.893 38.7671 112.833 38.7171 112.73C38.6485 112.587 38.7085 112.417 38.8514 112.348L40.3485 111.631C40.4914 111.563 40.6614 111.623 40.7299 111.766C40.7985 111.908 40.7385 112.078 40.5957 112.147L39.0985 112.864C39.0585 112.883 39.0171 112.893 38.9757 112.893ZM24.5042 112.707C24.4899 112.707 24.4757 112.707 24.4614 112.704L22.8199 112.457C22.6642 112.434 22.5571 112.288 22.5799 112.131C22.6028 111.976 22.7485 111.867 22.9057 111.891L24.5471 112.138C24.7028 112.161 24.8099 112.307 24.7871 112.463C24.7657 112.604 24.6442 112.706 24.5042 112.706V112.707ZM21.2199 112.213C21.2057 112.213 21.1914 112.213 21.1771 112.21L19.5357 111.963C19.3799 111.94 19.2728 111.794 19.2957 111.637C19.3185 111.481 19.4642 111.374 19.6214 111.397L21.2628 111.644C21.4185 111.667 21.5257 111.813 21.5028 111.968C21.4814 112.11 21.3599 112.211 21.2199 112.211V112.213ZM17.9371 111.72C17.9228 111.72 17.9085 111.72 17.8942 111.717L16.2528 111.47C16.0971 111.447 15.9899 111.301 16.0128 111.144C16.0357 110.988 16.1814 110.88 16.3385 110.904L17.9799 111.151C18.1357 111.174 18.2428 111.32 18.2199 111.476C18.1985 111.617 18.0771 111.718 17.9371 111.718V111.72ZM41.9714 111.458C41.8642 111.458 41.7628 111.398 41.7128 111.296C41.6442 111.153 41.7042 110.983 41.8471 110.914L43.3442 110.197C43.4871 110.128 43.6571 110.188 43.7257 110.331C43.7942 110.474 43.7342 110.644 43.5914 110.713L42.0942 111.43C42.0542 111.448 42.0128 111.458 41.9714 111.458ZM14.6528 111.226C14.6385 111.226 14.6242 111.226 14.6099 111.223L12.9685 110.976C12.8128 110.953 12.7057 110.807 12.7285 110.65C12.7514 110.494 12.8971 110.386 13.0542 110.41L14.6957 110.657C14.8514 110.68 14.9585 110.826 14.9357 110.981C14.9142 111.123 14.7928 111.224 14.6528 111.224V111.226ZM11.3685 110.733C11.3542 110.733 11.3399 110.733 11.3257 110.73L9.68423 110.483C9.52852 110.46 9.42138 110.314 9.44423 110.157C9.46709 110.001 9.61281 109.893 9.76995 109.917L11.4114 110.164C11.5671 110.187 11.6742 110.333 11.6514 110.488C11.6299 110.63 11.5085 110.731 11.3685 110.731V110.733ZM44.9657 110.024C44.8585 110.024 44.7571 109.964 44.7071 109.861C44.6385 109.718 44.6985 109.548 44.8414 109.48L46.3385 108.763C46.4814 108.694 46.6514 108.754 46.7199 108.897C46.7885 109.04 46.7285 109.21 46.5857 109.278L45.0885 109.996C45.0485 110.014 45.0071 110.024 44.9657 110.024ZM47.9599 108.588C47.8528 108.588 47.7514 108.528 47.7014 108.426C47.6328 108.283 47.6928 108.113 47.8357 108.044L49.3328 107.327C49.4757 107.258 49.6457 107.318 49.7142 107.461C49.7828 107.604 49.7228 107.774 49.5799 107.843L48.0828 108.56C48.0428 108.578 48.0014 108.588 47.9599 108.588Z" fill="black"/>
<path id="Vector_41" d="M50.9557 107.154C50.8486 107.154 50.7472 107.094 50.6972 106.991C50.6372 106.865 50.6772 106.718 50.7843 106.638C50.6572 106.594 50.5772 106.464 50.5972 106.325C50.6215 106.17 50.7657 106.061 50.9229 106.085L51.77 106.214C51.8943 106.233 51.9915 106.33 52.01 106.454C52.0286 106.578 51.9643 106.7 51.8515 106.754L51.0786 107.124C51.0386 107.143 50.9972 107.153 50.9557 107.153V107.154Z" fill="black"/>
<path id="Vector_42" d="M9.50563 109.015C9.39992 109.015 9.29706 108.955 9.24849 108.854C9.17992 108.711 9.23992 108.541 9.38135 108.473L10.8771 107.75C11.0185 107.681 11.1899 107.741 11.2585 107.883C11.3271 108.025 11.2671 108.195 11.1256 108.264L9.62992 108.987C9.58992 109.007 9.54706 109.015 9.50563 109.015ZM12.4971 107.57C12.3913 107.57 12.2885 107.51 12.2399 107.408C12.1713 107.265 12.2313 107.095 12.3728 107.027L13.8685 106.304C14.0099 106.235 14.1813 106.295 14.2499 106.437C14.3185 106.58 14.2585 106.75 14.1171 106.818L12.6213 107.541C12.5813 107.561 12.5385 107.57 12.4971 107.57ZM49.2385 106.405C49.2242 106.405 49.2099 106.405 49.1956 106.403L47.5528 106.153C47.3971 106.128 47.2899 105.983 47.3128 105.827C47.3356 105.671 47.4813 105.563 47.6385 105.587L49.2813 105.837C49.4371 105.861 49.5442 106.007 49.5213 106.163C49.4999 106.304 49.3785 106.405 49.2399 106.405H49.2385ZM15.4899 106.125C15.3842 106.125 15.2813 106.065 15.2328 105.964C15.1642 105.821 15.2242 105.651 15.3656 105.583L16.8613 104.86C17.0028 104.791 17.1742 104.851 17.2428 104.993C17.3113 105.135 17.2513 105.305 17.1099 105.374L15.6142 106.097C15.5742 106.117 15.5313 106.125 15.4899 106.125ZM45.9528 105.907C45.9385 105.907 45.9242 105.907 45.9099 105.904L44.2671 105.654C44.1113 105.63 44.0042 105.484 44.0271 105.328C44.0499 105.173 44.1971 105.065 44.3528 105.088L45.9956 105.338C46.1513 105.363 46.2585 105.508 46.2356 105.664C46.2142 105.805 46.0928 105.907 45.9542 105.907H45.9528ZM42.6671 105.408C42.6528 105.408 42.6385 105.408 42.6242 105.405L40.9813 105.155C40.8256 105.131 40.7185 104.985 40.7413 104.83C40.7642 104.674 40.9099 104.565 41.0671 104.59L42.7099 104.84C42.8656 104.864 42.9728 105.01 42.9499 105.165C42.9285 105.307 42.8071 105.408 42.6685 105.408H42.6671ZM39.3828 104.91C39.3685 104.91 39.3542 104.91 39.3399 104.907L37.6971 104.657C37.5413 104.633 37.4342 104.487 37.4571 104.331C37.4813 104.175 37.6256 104.068 37.7828 104.091L39.4256 104.341C39.5813 104.365 39.6885 104.511 39.6656 104.667C39.6442 104.808 39.5228 104.91 39.3842 104.91H39.3828ZM18.4813 104.68C18.3756 104.68 18.2728 104.62 18.2242 104.518C18.1556 104.375 18.2156 104.205 18.3571 104.137L19.8528 103.414C19.9942 103.345 20.1656 103.405 20.2342 103.547C20.3028 103.69 20.2428 103.86 20.1013 103.928L18.6056 104.651C18.5656 104.671 18.5228 104.68 18.4813 104.68ZM36.0971 104.411C36.0828 104.411 36.0685 104.411 36.0542 104.408L34.4113 104.158C34.2556 104.134 34.1485 103.988 34.1713 103.833C34.1942 103.677 34.3399 103.568 34.4971 103.593L36.1399 103.843C36.2956 103.867 36.4028 104.013 36.3799 104.168C36.3585 104.31 36.2371 104.411 36.0985 104.411H36.0971ZM32.8113 103.913C32.7971 103.913 32.7828 103.913 32.7685 103.91L31.1256 103.66C30.9699 103.635 30.8628 103.49 30.8856 103.334C30.9099 103.178 31.0542 103.07 31.2113 103.094L32.8542 103.344C33.0099 103.368 33.1171 103.514 33.0942 103.67C33.0728 103.811 32.9513 103.913 32.8128 103.913H32.8113ZM29.5256 103.414C29.5113 103.414 29.4971 103.414 29.4828 103.411L27.8399 103.161C27.6842 103.137 27.5771 102.991 27.5999 102.835C27.6228 102.68 27.7699 102.571 27.9256 102.595L29.5685 102.845C29.7242 102.87 29.8313 103.015 29.8085 103.171C29.7871 103.313 29.6656 103.414 29.5271 103.414H29.5256ZM21.4742 103.234C21.3685 103.234 21.2656 103.174 21.2171 103.073C21.1485 102.93 21.2085 102.76 21.3499 102.691L22.8456 101.968C22.9871 101.9 23.1585 101.96 23.2271 102.101C23.2956 102.244 23.2356 102.414 23.0942 102.483L21.5985 103.205C21.5585 103.225 21.5156 103.234 21.4742 103.234ZM26.2413 102.915C26.2271 102.915 26.2128 102.915 26.1985 102.913L24.5556 102.663C24.3999 102.638 24.2928 102.493 24.3156 102.337C24.3385 102.181 24.4842 102.073 24.6413 102.097L26.2842 102.347C26.4399 102.371 26.5471 102.517 26.5242 102.673C26.5028 102.814 26.3813 102.915 26.2428 102.915H26.2413Z" fill="black"/>
</g>
</g>
<g id="Group_15">
<path id="Vector_43" d="M51.7286 106.498V135.46C46.4172 138.028 41.1072 140.595 35.7958 143.164C35.8029 133.484 35.8086 123.803 35.8158 114.123C41.1201 111.581 46.4243 109.04 51.7286 106.5V106.498Z" fill="#FF444F"/>
<g id="Group_16">
<path id="Vector_44" d="M51.7286 107.641C51.5715 107.641 51.4429 107.513 51.4429 107.355V106.953L51.0786 107.127C50.9358 107.195 50.7658 107.135 50.6972 106.993C50.6286 106.85 50.6886 106.68 50.8315 106.611L51.6043 106.241C51.6929 106.198 51.7972 106.205 51.88 106.257C51.9629 106.31 52.0129 106.4 52.0129 106.498V107.355C52.0129 107.513 51.8843 107.641 51.7272 107.641H51.7286Z" fill="black"/>
<path id="Vector_45" d="M51.7286 133.071C51.5714 133.071 51.4429 132.943 51.4429 132.785V130.97C51.4429 130.813 51.5714 130.684 51.7286 130.684C51.8857 130.684 52.0143 130.813 52.0143 130.97V132.785C52.0143 132.943 51.8857 133.071 51.7286 133.071ZM51.7286 129.438C51.5714 129.438 51.4429 129.31 51.4429 129.153V127.337C51.4429 127.18 51.5714 127.051 51.7286 127.051C51.8857 127.051 52.0143 127.18 52.0143 127.337V129.153C52.0143 129.31 51.8857 129.438 51.7286 129.438ZM51.7286 125.805C51.5714 125.805 51.4429 125.677 51.4429 125.52V123.704C51.4429 123.547 51.5714 123.418 51.7286 123.418C51.8857 123.418 52.0143 123.547 52.0143 123.704V125.52C52.0143 125.677 51.8857 125.805 51.7286 125.805ZM51.7286 122.173C51.5714 122.173 51.4429 122.044 51.4429 121.887V120.071C51.4429 119.914 51.5714 119.785 51.7286 119.785C51.8857 119.785 52.0143 119.914 52.0143 120.071V121.887C52.0143 122.044 51.8857 122.173 51.7286 122.173ZM51.7286 118.54C51.5714 118.54 51.4429 118.411 51.4429 118.254V116.438C51.4429 116.281 51.5714 116.153 51.7286 116.153C51.8857 116.153 52.0143 116.281 52.0143 116.438V118.254C52.0143 118.411 51.8857 118.54 51.7286 118.54ZM51.7286 114.907C51.5714 114.907 51.4429 114.778 51.4429 114.621V112.805C51.4429 112.648 51.5714 112.52 51.7286 112.52C51.8857 112.52 52.0143 112.648 52.0143 112.805V114.621C52.0143 114.778 51.8857 114.907 51.7286 114.907ZM51.7286 111.274C51.5714 111.274 51.4429 111.145 51.4429 110.988V109.173C51.4429 109.015 51.5714 108.887 51.7286 108.887C51.8857 108.887 52.0143 109.015 52.0143 109.173V110.988C52.0143 111.145 51.8857 111.274 51.7286 111.274Z" fill="black"/>
<path id="Vector_46" d="M50.9572 136.118C50.8515 136.118 50.7486 136.058 50.7 135.957C50.6315 135.815 50.6915 135.644 50.8329 135.575L51.4429 135.28V134.601C51.4429 134.444 51.5715 134.315 51.7286 134.315C51.8857 134.315 52.0143 134.444 52.0143 134.601V135.458C52.0143 135.568 51.9515 135.668 51.8529 135.715L51.0815 136.088C51.0415 136.108 50.9986 136.117 50.9572 136.117V136.118Z" fill="black"/>
<path id="Vector_47" d="M38.1658 142.303C38.0601 142.303 37.9572 142.243 37.9086 142.141C37.8401 142 37.9001 141.828 38.0415 141.76L39.6401 140.987C39.7815 140.918 39.9529 140.978 40.0215 141.12C40.0901 141.261 40.0301 141.433 39.8886 141.501L38.2901 142.274C38.2501 142.294 38.2072 142.303 38.1658 142.303ZM41.3644 140.757C41.2586 140.757 41.1558 140.697 41.1072 140.595C41.0386 140.454 41.0986 140.283 41.2401 140.214L42.8386 139.441C42.9801 139.373 43.1515 139.431 43.2201 139.574C43.2886 139.715 43.2286 139.887 43.0872 139.955L41.4886 140.728C41.4486 140.748 41.4058 140.757 41.3644 140.757ZM44.5615 139.21C44.4558 139.21 44.3529 139.15 44.3044 139.048C44.2358 138.907 44.2958 138.735 44.4372 138.667L46.0358 137.894C46.1772 137.825 46.3486 137.885 46.4172 138.027C46.4858 138.168 46.4258 138.34 46.2844 138.408L44.6858 139.181C44.6458 139.201 44.6029 139.21 44.5615 139.21ZM47.7586 137.664C47.6529 137.664 47.5501 137.604 47.5015 137.503C47.4329 137.361 47.4929 137.19 47.6344 137.121L49.2329 136.348C49.3744 136.28 49.5458 136.34 49.6144 136.481C49.6829 136.623 49.6229 136.794 49.4815 136.863L47.8829 137.635C47.8429 137.655 47.8001 137.664 47.7586 137.664Z" fill="black"/>
<path id="Vector_48" d="M35.7957 143.448C35.7429 143.448 35.69 143.434 35.6443 143.404C35.5614 143.351 35.51 143.26 35.51 143.163V142.305C35.51 142.148 35.6386 142.02 35.7957 142.02C35.9529 142.02 36.0814 142.148 36.0814 142.305V142.707L36.4429 142.533C36.5843 142.464 36.7557 142.524 36.8243 142.665C36.8929 142.807 36.8329 142.978 36.6914 143.047L35.92 143.42C35.88 143.438 35.8386 143.448 35.7957 143.448Z" fill="black"/>
<path id="Vector_49" d="M35.7972 140.77C35.64 140.77 35.5115 140.641 35.5115 140.484V138.663C35.5115 138.505 35.64 138.377 35.7986 138.377C35.9558 138.377 36.0843 138.505 36.0843 138.663V140.484C36.0843 140.641 35.9558 140.77 35.7972 140.77ZM35.8 137.127C35.6429 137.127 35.5143 136.998 35.5143 136.841V135.02C35.5143 134.863 35.6429 134.734 35.8015 134.734C35.9586 134.734 36.0872 134.863 36.0872 135.02V136.841C36.0872 136.998 35.9586 137.127 35.8 137.127ZM35.8029 133.483C35.6458 133.483 35.5172 133.354 35.5172 133.197V131.375C35.5172 131.218 35.6458 131.09 35.8043 131.09C35.9615 131.09 36.09 131.218 36.09 131.375V133.197C36.09 133.354 35.9615 133.483 35.8029 133.483ZM35.8043 129.84C35.6472 129.84 35.5186 129.711 35.5186 129.554V127.733C35.5186 127.575 35.6472 127.447 35.8058 127.447C35.9629 127.447 36.0915 127.575 36.0915 127.733V129.554C36.0915 129.711 35.9629 129.84 35.8043 129.84ZM35.8072 126.195C35.65 126.195 35.5215 126.067 35.5215 125.91V124.088C35.5215 123.931 35.65 123.803 35.8086 123.803C35.9658 123.803 36.0943 123.931 36.0943 124.088V125.91C36.0943 126.067 35.9658 126.195 35.8072 126.195ZM35.81 122.551C35.6529 122.551 35.5243 122.423 35.5243 122.265V120.444C35.5243 120.287 35.6529 120.158 35.8115 120.158C35.9686 120.158 36.0972 120.287 36.0972 120.444V122.265C36.0972 122.423 35.9686 122.551 35.81 122.551ZM35.8129 118.908C35.6558 118.908 35.5272 118.78 35.5272 118.623V116.801C35.5272 116.644 35.6558 116.515 35.8143 116.515C35.9715 116.515 36.1 116.644 36.1 116.801V118.623C36.1 118.78 35.9715 118.908 35.8129 118.908Z" fill="black"/>
<path id="Vector_50" d="M35.8143 115.264C35.6571 115.264 35.5286 115.135 35.5286 114.978V114.121C35.5286 114.011 35.5929 113.911 35.6914 113.864L36.4643 113.494C36.6071 113.425 36.7771 113.485 36.8457 113.628C36.9143 113.771 36.8543 113.941 36.7114 114.01L36.1 114.303V114.98C36.1 115.137 35.9714 115.265 35.8143 115.265V115.264Z" fill="black"/>
<path id="Vector_51" d="M38.1843 113.273C38.0771 113.273 37.9757 113.213 37.9257 113.11C37.8571 112.967 37.9171 112.797 38.06 112.728L39.6557 111.964C39.7986 111.895 39.9686 111.955 40.0371 112.098C40.1057 112.241 40.0457 112.411 39.9028 112.48L38.3071 113.244C38.2671 113.263 38.2257 113.273 38.1843 113.273ZM41.3771 111.743C41.27 111.743 41.1686 111.683 41.1186 111.58C41.05 111.437 41.11 111.267 41.2528 111.198L42.8486 110.434C42.9914 110.365 43.1614 110.425 43.23 110.568C43.2986 110.711 43.2386 110.881 43.0957 110.95L41.5 111.714C41.46 111.733 41.4186 111.743 41.3771 111.743ZM44.57 110.213C44.4628 110.213 44.3614 110.153 44.3114 110.05C44.2428 109.907 44.3028 109.737 44.4457 109.668L46.0414 108.904C46.1843 108.835 46.3543 108.895 46.4228 109.038C46.4914 109.181 46.4314 109.351 46.2886 109.42L44.6928 110.184C44.6528 110.203 44.6114 110.213 44.57 110.213ZM47.7628 108.684C47.6557 108.684 47.5543 108.624 47.5043 108.521C47.4357 108.378 47.4957 108.208 47.6386 108.14L49.2343 107.375C49.3771 107.307 49.5471 107.367 49.6157 107.51C49.6843 107.653 49.6243 107.823 49.4814 107.891L47.8857 108.655C47.8457 108.674 47.8043 108.684 47.7628 108.684Z" fill="black"/>
</g>
</g>
<g id="Group_17">
<path id="Vector_52" d="M35.7958 143.164C26.2543 141.738 16.7129 140.314 7.17004 138.888C7.1929 129.201 7.21433 119.514 7.23719 109.825C16.7629 111.257 26.2886 112.69 35.8158 114.121C35.8086 123.801 35.8029 133.483 35.7958 143.163V143.164Z" fill="#FF7E88"/>
<g id="Group_18">
<path id="Vector_53" d="M35.7958 143.448C35.7815 143.448 35.7672 143.448 35.7543 143.445L34.9058 143.318C34.75 143.295 34.6415 143.15 34.6658 142.994C34.6886 142.838 34.8343 142.73 34.99 142.754L35.51 142.831V142.305C35.51 142.148 35.6386 142.02 35.7958 142.02C35.9529 142.02 36.0815 142.148 36.0815 142.305V143.163C36.0815 143.245 36.0443 143.324 35.9815 143.378C35.9286 143.423 35.8629 143.447 35.7943 143.447L35.7958 143.448Z" fill="black"/>
<path id="Vector_54" d="M33.1529 143.054C33.1386 143.054 33.1243 143.054 33.11 143.051L31.3143 142.783C31.1586 142.76 31.05 142.614 31.0743 142.458C31.0972 142.303 31.2429 142.195 31.3986 142.218L33.1943 142.487C33.35 142.51 33.4586 142.655 33.4343 142.811C33.4129 142.953 33.2914 143.054 33.1514 143.054H33.1529ZM29.5614 142.518C29.5472 142.518 29.5329 142.518 29.5186 142.515L27.7229 142.247C27.5672 142.224 27.4586 142.078 27.4829 141.923C27.5072 141.767 27.6514 141.66 27.8072 141.683L29.6029 141.951C29.7586 141.974 29.8672 142.12 29.8429 142.275C29.8214 142.417 29.7 142.518 29.56 142.518H29.5614ZM25.9714 141.981C25.9572 141.981 25.9429 141.981 25.9286 141.978L24.1329 141.71C23.9772 141.687 23.8686 141.541 23.8929 141.385C23.9157 141.23 24.0614 141.123 24.2172 141.145L26.0129 141.414C26.1686 141.437 26.2772 141.583 26.2529 141.738C26.2314 141.88 26.11 141.981 25.97 141.981H25.9714ZM22.38 141.445C22.3657 141.445 22.3514 141.445 22.3372 141.443L20.5414 141.174C20.3857 141.151 20.2772 141.005 20.3014 140.85C20.3243 140.694 20.47 140.587 20.6257 140.61L22.4214 140.878C22.5772 140.901 22.6857 141.047 22.6614 141.203C22.64 141.344 22.5186 141.445 22.3786 141.445H22.38ZM18.79 140.908C18.7757 140.908 18.7614 140.908 18.7472 140.905L16.9514 140.637C16.7957 140.614 16.6872 140.468 16.7114 140.313C16.7343 140.157 16.88 140.05 17.0357 140.073L18.8314 140.341C18.9872 140.364 19.0957 140.51 19.0714 140.665C19.05 140.807 18.9286 140.908 18.7886 140.908H18.79ZM15.2 140.373C15.1857 140.373 15.1714 140.373 15.1572 140.37L13.3614 140.101C13.2057 140.078 13.0972 139.933 13.1214 139.777C13.1443 139.621 13.29 139.514 13.4457 139.537L15.2414 139.805C15.3972 139.828 15.5057 139.974 15.4814 140.13C15.46 140.271 15.3386 140.373 15.1986 140.373H15.2ZM11.6086 139.837C11.5943 139.837 11.58 139.837 11.5657 139.834L9.77001 139.565C9.6143 139.543 9.50572 139.397 9.53001 139.241C9.55287 139.085 9.69858 138.977 9.8543 139.001L11.65 139.27C11.8057 139.293 11.9143 139.438 11.89 139.594C11.8686 139.735 11.7472 139.837 11.6072 139.837H11.6086Z" fill="black"/>
<path id="Vector_55" d="M8.01858 139.3C8.00429 139.3 7.99001 139.3 7.97572 139.297L7.12715 139.17C6.98715 139.148 6.88286 139.028 6.88429 138.887V138.03C6.88715 137.873 7.01429 137.744 7.17143 137.744C7.32858 137.744 7.45715 137.873 7.45715 138.03V138.64L8.06001 138.73C8.21572 138.753 8.32429 138.898 8.30001 139.054C8.27858 139.195 8.15715 139.298 8.01715 139.298L8.01858 139.3Z" fill="black"/>
<path id="Vector_56" d="M7.17573 136.493C7.01859 136.493 6.89001 136.364 6.89001 136.207L6.8943 134.384C6.8943 134.227 7.02287 134.098 7.18001 134.098C7.33716 134.098 7.46573 134.227 7.46573 134.384L7.46144 136.207C7.46144 136.364 7.33287 136.493 7.17573 136.493ZM7.1843 132.847C7.02716 132.847 6.89859 132.718 6.89859 132.561L6.90287 130.738C6.90287 130.581 7.03144 130.453 7.18859 130.453C7.34573 130.453 7.4743 130.581 7.4743 130.738L7.47001 132.561C7.47001 132.718 7.34144 132.847 7.1843 132.847ZM7.19287 129.2C7.03573 129.2 6.90716 129.071 6.90716 128.914L6.91144 127.091C6.91144 126.934 7.04001 126.805 7.19716 126.805C7.3543 126.805 7.48287 126.934 7.48287 127.091L7.47859 128.914C7.47859 129.071 7.35001 129.2 7.19287 129.2ZM7.20144 125.554C7.0443 125.554 6.91573 125.425 6.91573 125.268L6.92001 123.445C6.92001 123.288 7.04859 123.16 7.20573 123.16C7.36287 123.16 7.49144 123.288 7.49144 123.445L7.48716 125.268C7.48716 125.425 7.35859 125.554 7.20144 125.554ZM7.21001 121.907C7.05287 121.907 6.9243 121.778 6.9243 121.621L6.92859 119.798C6.92859 119.641 7.05716 119.513 7.2143 119.513C7.37144 119.513 7.50001 119.641 7.50001 119.798L7.49573 121.621C7.49573 121.778 7.36716 121.907 7.21001 121.907ZM7.21859 118.261C7.06144 118.261 6.93287 118.133 6.93287 117.975L6.93716 116.153C6.93716 115.995 7.06573 115.867 7.22287 115.867C7.38001 115.867 7.50859 115.995 7.50859 116.153L7.5043 117.975C7.5043 118.133 7.37573 118.261 7.21859 118.261ZM7.22716 114.615C7.07001 114.615 6.94144 114.487 6.94144 114.33L6.94573 112.507C6.94573 112.35 7.0743 112.221 7.23144 112.221C7.38859 112.221 7.51716 112.35 7.51716 112.507L7.51287 114.33C7.51287 114.487 7.3843 114.615 7.22716 114.615Z" fill="black"/>
<path id="Vector_57" d="M7.23567 110.968C7.07852 110.968 6.94995 110.84 6.94995 110.683V109.825C6.95281 109.743 6.98852 109.664 7.05138 109.61C7.11424 109.555 7.19852 109.531 7.27995 109.544L8.12709 109.671C8.28281 109.694 8.38995 109.84 8.36709 109.997C8.34424 110.154 8.19852 110.261 8.04138 110.237L7.52138 110.158V110.684C7.51995 110.841 7.39138 110.97 7.23424 110.97L7.23567 110.968Z" fill="black"/>
<path id="Vector_58" d="M33.1757 114.01C33.1614 114.01 33.1471 114.01 33.1328 114.007L31.34 113.737C31.1843 113.714 31.0771 113.568 31.1 113.411C31.1228 113.255 31.2685 113.147 31.4257 113.171L33.2171 113.441C33.3728 113.464 33.48 113.61 33.4571 113.765C33.4357 113.907 33.3143 114.008 33.1743 114.008L33.1757 114.01ZM29.5914 113.471C29.5771 113.471 29.5628 113.471 29.5485 113.468L27.7557 113.198C27.6 113.175 27.4928 113.03 27.5157 112.873C27.5385 112.717 27.6843 112.61 27.8414 112.633L29.6328 112.903C29.7885 112.925 29.8957 113.071 29.8728 113.227C29.8514 113.368 29.73 113.47 29.59 113.47L29.5914 113.471ZM26.0071 112.933C25.9928 112.933 25.9785 112.933 25.9643 112.93L24.1714 112.66C24.0157 112.637 23.9085 112.491 23.9314 112.334C23.9543 112.178 24.1 112.07 24.2571 112.094L26.0485 112.364C26.2043 112.387 26.3114 112.533 26.2885 112.688C26.2671 112.83 26.1457 112.931 26.0057 112.931L26.0071 112.933ZM22.4228 112.394C22.4085 112.394 22.3943 112.394 22.38 112.391L20.5871 112.121C20.4314 112.098 20.3243 111.953 20.3471 111.795C20.37 111.64 20.5157 111.531 20.6728 111.555L22.4643 111.825C22.62 111.848 22.7271 111.994 22.7043 112.15C22.6828 112.291 22.5614 112.393 22.4214 112.393L22.4228 112.394ZM18.8385 111.855C18.8243 111.855 18.81 111.855 18.7957 111.853L17.0028 111.583C16.8471 111.56 16.74 111.414 16.7628 111.257C16.7857 111.101 16.9314 110.994 17.0885 111.017L18.88 111.287C19.0357 111.31 19.1428 111.455 19.12 111.611C19.0985 111.753 18.9771 111.854 18.8371 111.854L18.8385 111.855ZM15.2543 111.317C15.24 111.317 15.2257 111.317 15.2114 111.314L13.4185 111.044C13.2628 111.021 13.1557 110.875 13.1785 110.718C13.2014 110.563 13.3471 110.454 13.5043 110.478L15.2957 110.748C15.4514 110.771 15.5585 110.917 15.5357 111.073C15.5143 111.214 15.3928 111.315 15.2528 111.315L15.2543 111.317ZM11.67 110.777C11.6557 110.777 11.6414 110.777 11.6271 110.774L9.83426 110.504C9.67854 110.481 9.5714 110.335 9.59426 110.178C9.61712 110.023 9.76283 109.914 9.91997 109.938L11.7114 110.208C11.8671 110.231 11.9743 110.377 11.9514 110.533C11.93 110.674 11.8085 110.775 11.6685 110.775L11.67 110.777Z" fill="black"/>
<path id="Vector_59" d="M35.8143 115.264C35.6572 115.264 35.5286 115.135 35.5286 114.978V114.367L34.9243 114.275C34.7686 114.253 34.6615 114.107 34.6843 113.95C34.7072 113.794 34.8529 113.684 35.0101 113.71L35.8572 113.837C35.9972 113.858 36.1001 113.978 36.1001 114.12V114.977C36.1001 115.134 35.9715 115.263 35.8143 115.263V115.264Z" fill="black"/>
<path id="Vector_60" d="M35.7972 140.77C35.64 140.77 35.5115 140.641 35.5115 140.484V138.663C35.5115 138.506 35.64 138.377 35.7986 138.377C35.9558 138.377 36.0843 138.506 36.0843 138.663V140.484C36.0843 140.641 35.9558 140.77 35.7972 140.77ZM35.8 137.127C35.6429 137.127 35.5143 136.998 35.5143 136.841V135.02C35.5143 134.863 35.6429 134.734 35.8015 134.734C35.9586 134.734 36.0872 134.863 36.0872 135.02V136.841C36.0872 136.998 35.9586 137.127 35.8 137.127ZM35.8029 133.483C35.6458 133.483 35.5172 133.354 35.5172 133.197V131.376C35.5172 131.218 35.6458 131.09 35.8043 131.09C35.9615 131.09 36.09 131.218 36.09 131.376V133.197C36.09 133.354 35.9615 133.483 35.8029 133.483ZM35.8043 129.84C35.6472 129.84 35.5186 129.711 35.5186 129.554V127.733C35.5186 127.576 35.6472 127.447 35.8058 127.447C35.9629 127.447 36.0915 127.576 36.0915 127.733V129.554C36.0915 129.711 35.9629 129.84 35.8043 129.84ZM35.8072 126.196C35.65 126.196 35.5215 126.067 35.5215 125.91V124.088C35.5215 123.931 35.65 123.803 35.8086 123.803C35.9658 123.803 36.0943 123.931 36.0943 124.088V125.91C36.0943 126.067 35.9658 126.196 35.8072 126.196ZM35.81 122.551C35.6529 122.551 35.5243 122.423 35.5243 122.266V120.444C35.5243 120.287 35.6529 120.158 35.8115 120.158C35.9686 120.158 36.0972 120.287 36.0972 120.444V122.266C36.0972 122.423 35.9686 122.551 35.81 122.551ZM35.8129 118.908C35.6558 118.908 35.5272 118.78 35.5272 118.623V116.801C35.5272 116.644 35.6558 116.516 35.8143 116.516C35.9715 116.516 36.1 116.644 36.1 116.801V118.623C36.1 118.78 35.9715 118.908 35.8129 118.908Z" fill="black"/>
</g>
</g>
</g>
</g>
</g>
</g>
</svg>
