<svg width="282" height="58" viewBox="0 0 282 58" fill="none" xmlns="http://www.w3.org/2000/svg">
<g id="logo / sub-brand / black / deriv api" clip-path="url(#clip0_1854_26)">
<g id="wordmark">
<path d="M34.9861 1.82853L31.9963 18.7839H21.6179C11.9356 18.7839 2.70673 26.6285 0.996224 36.3108L0.272218 40.4319C-1.43032 50.1143 5.02984 57.959 14.7122 57.959H23.3682C30.4251 57.959 37.1479 52.2464 38.389 45.1897L46.3608 0L34.9861 1.82853ZM27.6221 43.5905C27.2402 45.7704 25.2776 47.5447 23.0977 47.5447H17.8389C13.487 47.5447 10.5752 44.012 11.3389 39.6522L11.7924 37.0825C12.5641 32.7306 16.7171 29.1902 21.069 29.1902H30.1613L27.6221 43.5905ZM114.914 57.9581L121.724 19.324H132.496L125.686 57.9581H114.905H114.914ZM116.079 19.7695C115.539 22.8339 114.997 25.8983 114.457 28.9627C109.353 27.3768 104.088 27.8818 102.47 28.2044C100.723 38.1247 98.9739 48.0474 97.2245 57.9677H86.4451C87.9089 49.6671 92.9099 21.3197 92.9099 21.3197C96.4158 19.8679 105.025 16.9214 116.079 19.7695ZM72.4022 18.7773H64.0168C55.8461 18.7773 48.0576 25.3966 46.6173 33.5673L44.9228 43.1702C43.4827 51.3408 48.9327 57.9603 57.1034 57.9603H74.9405L76.7704 47.5778H60.007C57.2863 47.5778 55.4642 45.3739 55.9497 42.6451L56.0054 42.3189H83.0316L84.575 33.5673C86.0148 25.3966 80.5651 18.7773 72.3944 18.7773H72.4022ZM73.7628 32.7399L73.6992 33.2968H57.6285L57.716 32.8036C58.201 30.0827 60.6835 27.688 63.4121 27.688H69.6894C72.3865 27.688 74.2086 30.0429 73.7628 32.7399ZM174.527 19.324C170.855 29.0872 162.439 45.6953 154.287 57.9581H143.507C139.765 46.2868 137.349 30.0248 136.888 19.324H147.668C147.862 22.8146 149.425 35.7617 151.208 44.8066C156.1 36.0072 161.492 24.4623 163.739 19.324H174.527Z" fill="#414652"/>
<path d="M222.528 58C221.712 55.84 220.944 53.728 220.224 51.664C219.504 49.552 218.76 47.416 217.992 45.256H195.384L190.848 58H183.576C185.496 52.72 187.296 47.848 188.976 43.384C190.656 38.872 192.288 34.6 193.872 30.568C195.504 26.536 197.112 22.696 198.696 19.048C200.28 15.352 201.936 11.704 203.664 8.104H210.072C211.8 11.704 213.456 15.352 215.04 19.048C216.624 22.696 218.208 26.536 219.792 30.568C221.424 34.6 223.08 38.872 224.76 43.384C226.44 47.848 228.24 52.72 230.16 58H222.528ZM215.976 39.496C214.44 35.32 212.904 31.288 211.368 27.4C209.88 23.464 208.32 19.696 206.688 16.096C205.008 19.696 203.4 23.464 201.864 27.4C200.376 31.288 198.888 35.32 197.4 39.496H215.976Z" fill="#414652"/>
<path d="M247.302 7.6C254.31 7.6 259.686 8.944 263.43 11.632C267.222 14.272 269.118 18.232 269.118 23.512C269.118 26.392 268.59 28.864 267.534 30.928C266.526 32.944 265.038 34.6 263.07 35.896C261.15 37.144 258.798 38.056 256.014 38.632C253.23 39.208 250.086 39.496 246.582 39.496H241.038V58H234.054V8.824C236.022 8.344 238.206 8.032 240.606 7.888C243.054 7.696 245.286 7.6 247.302 7.6ZM247.878 13.72C244.902 13.72 242.622 13.792 241.038 13.936V33.52H246.294C248.694 33.52 250.854 33.376 252.774 33.088C254.694 32.752 256.302 32.224 257.598 31.504C258.942 30.736 259.974 29.704 260.694 28.408C261.414 27.112 261.774 25.456 261.774 23.44C261.774 21.52 261.39 19.936 260.622 18.688C259.902 17.44 258.894 16.456 257.598 15.736C256.35 14.968 254.886 14.44 253.206 14.152C251.526 13.864 249.75 13.72 247.878 13.72Z" fill="#414652"/>
<path d="M274.979 8.104H281.963V58H274.979V8.104Z" fill="#414652"/>
</g>
</g>
<defs>
<clipPath id="clip0_1854_26">
<rect width="282" height="58" fill="white"/>
</clipPath>
</defs>
</svg>
