<svg width="128" height="80" viewBox="0 0 128 80" fill="none" xmlns="http://www.w3.org/2000/svg">
<g id="logo / payment method / mandiri syariah / brand">
<g id="wordmark">
<path fill-rule="evenodd" clip-rule="evenodd" d="M74.2414 21.9551V39.6933C74.2414 41.2428 74.3025 42.9167 74.3646 43.9379H70.9593L70.8062 41.556H70.7417C69.8449 43.2241 68.0179 44.2787 65.8202 44.2787C62.2272 44.2787 59.379 41.2118 59.379 36.5665C59.3479 31.5218 62.5081 28.5183 66.1287 28.5183C68.2021 28.5183 69.6906 29.384 70.3698 30.4995H70.432V21.9551H74.2414ZM70.432 35.1436C70.432 34.8339 70.4021 34.4609 70.3411 34.1536C69.9991 32.6662 68.7904 31.4585 67.0589 31.4585C64.6114 31.4585 63.2506 33.6274 63.2506 36.4445C63.2506 39.1994 64.6114 41.2118 67.0267 41.2118C68.5751 41.2118 69.937 40.1595 70.3088 38.519C70.4021 38.1783 70.432 37.8076 70.432 37.4035V35.1436Z" fill="#005142"/>
<path d="M5.29748 33.3512C5.29748 31.614 5.2664 30.1588 5.172 28.8591H8.45301L8.60728 31.089H8.70168C9.44192 29.9136 10.8061 28.5183 13.3458 28.5183C15.327 28.5183 16.8743 29.6339 17.5259 31.3043H17.5869C18.1142 30.4697 18.7335 29.848 19.4461 29.4163C20.2819 28.8303 21.2409 28.5183 22.4785 28.5183C24.987 28.5183 27.5244 30.221 27.5244 35.0504V43.9379H23.8093V35.6076C23.8093 33.0991 22.9413 31.6151 21.1166 31.6151C19.818 31.614 18.859 32.5442 18.4538 33.6275C18.3582 33.9982 18.2673 34.461 18.2673 34.8961V43.9379H14.5534V35.2035C14.5534 33.0991 13.7165 31.6151 11.9505 31.6151C10.5287 31.614 9.56741 32.7272 9.22664 33.7829C9.07238 34.1536 9.01136 34.5865 9.01136 35.0216V43.9379H5.29748V33.3512Z" fill="#005142"/>
<path fill-rule="evenodd" clip-rule="evenodd" d="M41.7029 40.315C41.7029 41.6781 41.7651 43.0089 41.9205 43.9379H38.4841L38.2366 42.2652H38.1422C37.2154 43.4418 35.6348 44.2787 33.6846 44.2787C30.6511 44.2787 28.9473 42.0798 28.9473 39.7889C28.9473 35.9806 32.3227 34.0627 37.8935 34.0926V33.8451C37.8935 32.8539 37.4929 31.211 34.8301 31.211C33.345 31.211 31.7954 31.6761 30.7754 32.3254L30.0317 29.848C31.1461 29.1688 33.0963 28.5183 35.4817 28.5183C40.3122 28.5183 41.7029 31.584 41.7029 34.8651V40.315ZM37.9868 36.5666C35.2963 36.5067 32.7256 37.095 32.7256 39.386C32.7256 40.8722 33.6846 41.556 34.8911 41.556C36.4084 41.556 37.5251 40.5614 37.8647 39.4792C37.958 39.1995 37.9868 38.8909 37.9868 38.6423V36.5666Z" fill="#005142"/>
<path d="M44.0571 28.8591C44.1469 30.1588 44.178 31.614 44.178 33.3512V43.9379H48.0162V35.0815C48.0162 34.6486 48.0496 34.1847 48.1728 33.8451C48.5769 32.6984 49.6291 31.614 51.1441 31.6151C53.221 31.6151 54.0234 33.2556 54.0234 35.4234V43.9379H57.8328V34.9905C57.8328 30.221 55.109 28.5183 52.4749 28.5183C49.9687 28.5183 48.3282 29.9435 47.6801 31.1189H47.5845L47.4003 28.8591H44.0571Z" fill="#005142"/>
<path d="M80.8253 43.9378H76.9629V28.8313H80.8253V43.9378Z" fill="#005142"/>
<path d="M83.4927 33.7196C83.4927 31.6761 83.4639 30.221 83.3695 28.8591H86.6839L86.8048 31.7372H86.9291C87.6751 29.6028 89.4388 28.5183 91.0482 28.5183C91.4212 28.5183 91.6377 28.5494 91.9485 28.6104V32.2023C91.6377 32.1412 91.2946 32.0791 90.833 32.0791C89.0036 32.0791 87.7661 33.2556 87.4276 34.9583C87.362 35.3002 87.3033 35.702 87.3033 36.1372V43.9379H83.4927V33.7196Z" fill="#005142"/>
<path d="M97.0116 43.9378H93.1527V28.8313H97.0116V43.9378Z" fill="#005142"/>
<path d="M4.49273 63.0012C5.24794 63.4571 6.38075 63.944 7.63099 63.944C9.83791 63.944 10.8809 62.7732 10.8809 61.348C10.8809 59.8364 9.95303 59.0386 7.94988 58.2397C5.65778 57.3832 4.40754 56.1582 4.40754 54.5039C4.40754 52.5088 6.00315 50.7981 8.70509 50.7981C9.98296 50.7981 11.087 51.1688 11.7835 51.6546L11.2597 52.7644C10.767 52.4213 9.86784 51.939 8.47254 51.939C6.70195 51.939 5.77175 53.0499 5.77175 54.3048C5.77175 55.7311 6.75836 56.3286 8.64523 57.0999C10.9132 57.9806 12.2463 59.095 12.2463 61.1765C12.2463 63.5146 10.3882 65.0826 7.5435 65.0826C6.20692 65.0826 4.92905 64.7142 4 64.1432L4.49273 63.0012Z" fill="#005142"/>
<path d="M17.8805 64.9986C17.184 66.6253 15.9855 68.1887 15.0358 68.9013L15.5688 70.0237C17.5351 68.6756 19.0156 65.5673 20.6975 61.3181L24.8788 51.1101H23.3983L20.001 59.9781C19.6938 60.7641 19.4301 61.5353 19.1987 62.212C19.1025 62.4934 19.0116 62.7593 18.9258 63.0024H18.8671C18.6069 62.1481 18.2327 61.0326 17.8528 60.0656L14.1942 51.1101H12.7114L17.8805 63.8002C17.999 64.0857 18.0532 64.2848 18.0532 64.3988C18.0532 64.5404 17.999 64.7142 17.8805 64.9986Z" fill="#005142"/>
<path fill-rule="evenodd" clip-rule="evenodd" d="M35.0442 61.5483C35.0442 62.6305 35.0718 63.7437 35.2479 64.7994H33.9701L33.7674 62.8296H33.7076C33.0122 63.8853 31.473 65.1102 29.2362 65.1102C26.418 65.1102 25.1436 63.1739 25.1436 61.348C25.1436 58.1833 27.9583 56.2722 33.6489 56.3286V55.9579C33.6489 54.6167 33.3898 51.9102 30.0766 51.939C28.8609 51.939 27.5807 52.2498 26.563 52.9636L26.129 51.9666C27.4069 51.1389 28.976 50.7981 30.2251 50.7981C34.2579 50.7981 35.0442 53.7614 35.0442 56.187V61.5483ZM33.6489 57.4718C30.6016 57.3832 26.5953 57.8413 26.5953 61.1189C26.5953 63.0887 27.9284 63.9705 29.3824 63.9705C31.7056 63.9705 33.0399 62.5741 33.505 61.2329C33.6212 60.9474 33.6489 60.6342 33.6489 60.4063V57.4718Z" fill="#005142"/>
<path d="M38.2377 51.1101C38.3252 52.4513 38.3551 53.8489 38.3551 55.2165V64.7994H39.7481V57.2404C39.7481 56.7857 39.7769 56.3286 39.8655 55.9303C40.2443 53.7337 41.6085 52.1094 43.5241 52.1094C43.7866 52.1094 43.9892 52.1094 44.193 52.137V50.8545C44.018 50.8257 43.8154 50.7981 43.6105 50.7981C41.7236 50.7981 40.2696 52.137 39.6617 53.8765H39.5754L39.5155 51.1101H38.2377Z" fill="#005142"/>
<path d="M45.9924 64.7994H47.3866V51.1101H45.9924V64.7994Z" fill="#005142"/>
<path fill-rule="evenodd" clip-rule="evenodd" d="M59.7842 64.7994C59.6127 63.7437 59.5839 62.6305 59.5839 61.5483V56.187C59.5839 53.7614 58.7976 50.7981 54.7625 50.7981C53.5134 50.7981 51.9466 51.1389 50.6676 51.9666L51.1028 52.9636C52.1204 52.2498 53.3972 51.939 54.6186 51.939C57.9273 51.9102 58.1909 54.6167 58.1909 55.9579V56.3286C52.498 56.2722 49.6821 58.1833 49.6821 61.348C49.6821 63.1739 50.9588 65.1102 53.7748 65.1102C56.0116 65.1102 57.5531 63.8853 58.2473 62.8296H58.3083L58.5086 64.7994H59.7842ZM51.1327 61.1189C51.1327 57.8413 55.1424 57.3832 58.1909 57.4718V60.4063C58.1909 60.6342 58.1598 60.9474 58.0447 61.2329C57.5796 62.5741 56.2442 63.9705 53.921 63.9705C52.467 63.9705 51.1338 63.0887 51.1327 61.1189Z" fill="#005142"/>
<path d="M64.3189 53.5631L64.3489 47.1118H63.1412L63.1476 47.1465H63.1055L63.0859 64.7995H64.3189V56.445C64.3189 55.8751 64.3454 55.5033 64.4916 55.075C65.1029 53.3919 66.7284 51.9932 68.704 51.9932C71.5521 51.9932 72.5364 54.2496 72.5364 56.6983V64.7995H73.9306V56.5567C73.9306 51.4544 70.3859 50.7982 69.0793 50.7982C68.0351 50.7982 67.0773 51.1102 66.261 51.596C65.4506 52.0795 64.7817 52.7933 64.3742 53.5635L64.3189 53.5631Z" fill="#005142"/>
</g>
<path id="logo" d="M120.901 12.5981C118.992 10.4252 116.971 11.4091 115.37 12.2086C114.693 12.5366 109.808 15.2835 109.808 15.2835C107.908 16.184 105.641 15.7295 104.236 14.1663C104.157 14.0712 104.088 13.9681 104.031 13.8588L103.836 13.5308C103.529 12.9759 103.186 12.4417 102.81 11.9319C102.57 11.627 102.313 11.3362 102.04 11.0606C100.213 9.2157 97.2888 7.92425 92.394 10.2612C90.0851 11.6039 82.5428 15.9087 82.5428 15.9087C80.5744 16.8516 78.2153 16.3166 76.8475 14.6173L76.7654 14.484L76.6731 14.3303L76.16 13.5718C75.9548 13.2438 75.729 12.9158 75.4725 12.5468C75.2159 12.1778 74.9799 11.9524 74.7028 11.6654C72.8763 9.83068 69.9722 8.59048 65.1287 10.8454L55.3904 16.4109L50.4032 19.2603L52.9789 22.4172C54.5316 24.2284 57.113 24.7635 59.259 23.7189L68.0122 18.6659C75.4622 14.566 79.1359 18.4814 80.7572 21.0848C80.8188 21.1668 80.8598 21.259 80.9111 21.3308V21.4128L81.0959 21.7202C81.8527 22.9378 83.1911 23.6723 84.6259 23.6574C85.4106 23.6112 86.1688 23.3564 86.8219 22.9194L95.2878 18.1021C102.83 14.0023 106.576 18.1021 108.166 20.726C108.289 20.9468 108.426 21.1591 108.577 21.3615C109.298 22.4579 110.526 23.1141 111.84 23.1039C112.564 23.0345 113.265 22.807 113.892 22.4377L124 16.6057C123.048 15.2091 122.013 13.8708 120.901 12.5981Z" fill="#FAB900"/>
</g>
</svg>
