<svg width="276" height="72" viewBox="0 0 276 72" fill="none" xmlns="http://www.w3.org/2000/svg">
<g id="logo / deriv product / white / deriv p2p-logo-wordmark">
<g id="logo">
<path d="M0 13.5C0 6.04416 6.04416 0 13.5 0H58.5C65.9558 0 72 6.04416 72 13.5V58.5C72 65.9558 65.9558 72 58.5 72H13.5C6.04416 72 0 65.9558 0 58.5V13.5Z" fill="white"/>
<path d="M13.5 0C6.04416 0 0 6.04416 0 13.5V13.8921L67.3075 3.26845C64.9433 1.2315 61.8655 0 58.5 0H13.5Z" fill="#EBECEF"/>
<path d="M68.6969 4.65243L56.3498 71.9999L58.5 72C65.9558 72 72 65.9558 72 58.5V13.5C72 10.1155 70.7545 7.02183 68.6969 4.65243Z" fill="#EBECEF"/>
<path d="M18.0864 25.8649C21.1089 25.8649 23.4294 26.4011 25.0479 27.4736C26.6664 28.5266 27.4757 30.2621 27.4757 32.6801C27.4757 35.1176 26.6567 36.8824 25.0187 37.9744C23.3807 39.0469 21.0407 39.5831 17.9987 39.5831H16.5654V46.3691H12.0024V26.3914C12.9969 26.1964 14.0499 26.0599 15.1614 25.9819C16.2729 25.9039 17.2479 25.8649 18.0864 25.8649ZM18.3789 29.7551C18.0474 29.7551 17.7159 29.7649 17.3844 29.7844C17.0724 29.8039 16.7994 29.8234 16.5654 29.8429V35.6929H17.9987C19.5782 35.6929 20.7677 35.4784 21.5672 35.0494C22.3667 34.6204 22.7664 33.8209 22.7664 32.6509C22.7664 32.0854 22.6592 31.6174 22.4447 31.2469C22.2497 30.8764 21.9572 30.5839 21.5672 30.3694C21.1967 30.1354 20.7384 29.9794 20.1924 29.9014C19.6464 29.8039 19.0419 29.7551 18.3789 29.7551Z" fill="#FF444F"/>
<path d="M41.5319 31.4224C41.5319 32.1634 41.3857 32.8751 41.0932 33.5576C40.8007 34.2401 40.4204 34.9031 39.9524 35.5466C39.4844 36.1706 38.9579 36.7751 38.3729 37.3601C37.7879 37.9451 37.2127 38.5009 36.6472 39.0274C36.3547 39.3004 36.0329 39.6124 35.6819 39.9634C35.3504 40.2949 35.0287 40.6361 34.7167 40.9871C34.4047 41.3381 34.1219 41.6696 33.8684 41.9816C33.6344 42.2741 33.4882 42.5179 33.4297 42.7129H42.1462V46.3691H28.6327C28.5937 46.1546 28.5742 45.8816 28.5742 45.5501C28.5742 45.2186 28.5742 44.9846 28.5742 44.8481C28.5742 43.9121 28.7204 43.0541 29.0129 42.2741C29.3249 41.4941 29.7247 40.7726 30.2122 40.1096C30.6997 39.4271 31.2457 38.7934 31.8502 38.2084C32.4742 37.6234 33.0884 37.0384 33.6929 36.4534C34.1609 36.0049 34.5997 35.5856 35.0092 35.1956C35.4187 34.7861 35.7794 34.3961 36.0914 34.0256C36.4034 33.6356 36.6472 33.2554 36.8227 32.8849C36.9982 32.4949 37.0859 32.1049 37.0859 31.7149C37.0859 30.8569 36.8422 30.2524 36.3547 29.9014C35.8672 29.5504 35.2627 29.3749 34.5412 29.3749C34.0147 29.3749 33.5174 29.4626 33.0494 29.6381C32.6009 29.7941 32.1817 29.9891 31.7917 30.2231C31.4212 30.4376 31.0994 30.6619 30.8264 30.8959C30.5534 31.1104 30.3487 31.2859 30.2122 31.4224L28.0477 28.3804C28.9057 27.5809 29.9002 26.9276 31.0312 26.4206C32.1817 25.8941 33.4102 25.6309 34.7167 25.6309C35.9062 25.6309 36.9299 25.7674 37.7879 26.0404C38.6459 26.3134 39.3479 26.7034 39.8939 27.2104C40.4594 27.6979 40.8689 28.3024 41.1224 29.0239C41.3954 29.7259 41.5319 30.5254 41.5319 31.4224Z" fill="#FF444F"/>
<path d="M50.6099 25.8649C53.6324 25.8649 55.9529 26.4011 57.5714 27.4736C59.1899 28.5266 59.9992 30.2621 59.9992 32.6801C59.9992 35.1176 59.1802 36.8824 57.5422 37.9744C55.9042 39.0469 53.5642 39.5831 50.5222 39.5831H49.0889V46.3691H44.5259V26.3914C45.5204 26.1964 46.5734 26.0599 47.6849 25.9819C48.7964 25.9039 49.7714 25.8649 50.6099 25.8649ZM50.9024 29.7551C50.5709 29.7551 50.2394 29.7649 49.9079 29.7844C49.5959 29.8039 49.3229 29.8234 49.0889 29.8429V35.6929H50.5222C52.1017 35.6929 53.2912 35.4784 54.0907 35.0494C54.8902 34.6204 55.2899 33.8209 55.2899 32.6509C55.2899 32.0854 55.1827 31.6174 54.9682 31.2469C54.7732 30.8764 54.4807 30.5839 54.0907 30.3694C53.7202 30.1354 53.2619 29.9794 52.7159 29.9014C52.1699 29.8039 51.5654 29.7551 50.9024 29.7551Z" fill="#FF444F"/>
</g>
<g id="wordmark">
<path fill-rule="evenodd" clip-rule="evenodd" d="M108.739 19.9018L106.967 29.9527H100.815C95.0752 29.9527 89.6045 34.6028 88.5905 40.3423L88.1614 42.7853C87.1521 48.5249 90.9816 53.1751 96.7211 53.1751H101.852C106.035 53.1751 110.02 49.7887 110.756 45.6057L115.482 18.8179L108.739 19.9018ZM104.374 44.6577C104.147 45.9499 102.984 47.0017 101.692 47.0017H98.5745C95.9948 47.0017 94.2687 44.9075 94.7214 42.3231L94.9903 40.7998C95.4477 38.2201 97.9095 36.1214 100.489 36.1214H105.879L104.374 44.6577Z" fill="white"/>
<path d="M156.118 53.1767H162.503L166.54 30.275H160.155L156.118 53.1767Z" fill="white"/>
<path d="M156.331 33.2606L156.331 33.2554C156.491 32.3499 156.651 31.4444 156.811 30.5389C150.259 28.8506 145.155 30.5972 143.077 31.4578C143.077 31.4578 140.112 48.2617 139.245 53.1822H145.634C146.671 47.3016 147.708 41.4196 148.744 35.5389C149.703 35.3477 152.824 35.0483 155.849 35.9885C156.009 35.0792 156.17 34.1699 156.331 33.2606Z" fill="white"/>
<path fill-rule="evenodd" clip-rule="evenodd" d="M130.914 29.9504H125.948C121.104 29.9504 116.487 33.8742 115.634 38.7177L114.629 44.4101C113.776 49.2535 117.006 53.1774 121.85 53.1774H132.423L133.508 47.0229H123.571C121.958 47.0229 120.878 45.7164 121.166 44.0988L121.199 43.9054H137.219L138.134 38.7177C138.988 33.8742 135.757 29.9504 130.914 29.9504ZM131.725 38.2272L131.687 38.5573H122.161L122.213 38.2649C122.5 36.652 123.972 35.2325 125.589 35.2325H129.31C130.909 35.2325 131.989 36.6284 131.725 38.2272Z" fill="white"/>
<path d="M177.639 45.3807C180.538 40.1646 183.734 33.3209 185.066 30.275H191.461C189.284 36.0625 184.296 45.9075 179.463 53.1767H173.073C170.855 46.2581 169.423 36.6183 169.149 30.275H175.54C175.655 32.3442 176.581 40.019 177.639 45.3807Z" fill="white"/>
<path d="M208.96 19.563C213.632 19.563 217.216 20.459 219.712 22.251C222.24 24.011 223.504 26.651 223.504 30.171C223.504 32.091 223.152 33.739 222.448 35.115C221.776 36.459 220.784 37.563 219.472 38.427C218.192 39.259 216.624 39.867 214.768 40.251C212.912 40.635 210.816 40.827 208.48 40.827H204.784V53.163H200.128V20.379C201.44 20.059 202.896 19.851 204.496 19.755C206.128 19.627 207.616 19.563 208.96 19.563ZM209.344 23.643C207.36 23.643 205.84 23.691 204.784 23.787V36.843H208.288C209.888 36.843 211.328 36.747 212.608 36.555C213.888 36.331 214.96 35.979 215.824 35.499C216.72 34.987 217.408 34.299 217.888 33.435C218.368 32.571 218.608 31.467 218.608 30.123C218.608 28.843 218.352 27.787 217.84 26.955C217.36 26.123 216.688 25.467 215.824 24.987C214.992 24.475 214.016 24.123 212.896 23.931C211.776 23.739 210.592 23.643 209.344 23.643Z" fill="white"/>
<path d="M245.699 28.395C245.699 29.547 245.459 30.667 244.979 31.755C244.531 32.811 243.923 33.867 243.155 34.923C242.387 35.947 241.523 36.971 240.563 37.995C239.603 38.987 238.643 39.963 237.683 40.923C237.139 41.467 236.499 42.107 235.763 42.843C235.059 43.579 234.387 44.347 233.747 45.147C233.107 45.947 232.563 46.715 232.115 47.451C231.699 48.187 231.491 48.827 231.491 49.371H246.803V53.163H226.643C226.611 52.971 226.595 52.779 226.595 52.587C226.595 52.395 226.595 52.219 226.595 52.059C226.595 50.555 226.835 49.163 227.315 47.883C227.827 46.571 228.483 45.339 229.283 44.187C230.083 43.035 230.979 41.947 231.971 40.923C232.963 39.899 233.939 38.907 234.899 37.947C235.699 37.179 236.451 36.427 237.155 35.691C237.891 34.923 238.531 34.171 239.075 33.435C239.651 32.667 240.099 31.883 240.419 31.083C240.771 30.283 240.947 29.435 240.947 28.539C240.947 27.579 240.787 26.763 240.467 26.091C240.179 25.419 239.779 24.859 239.267 24.411C238.755 23.963 238.147 23.643 237.443 23.451C236.771 23.227 236.051 23.115 235.283 23.115C234.355 23.115 233.507 23.243 232.739 23.499C231.971 23.755 231.283 24.059 230.675 24.411C230.067 24.731 229.555 25.083 229.139 25.467C228.723 25.819 228.403 26.091 228.179 26.283L225.971 23.115C226.259 22.795 226.691 22.411 227.267 21.963C227.843 21.483 228.531 21.035 229.331 20.619C230.131 20.203 231.027 19.851 232.019 19.563C233.011 19.275 234.083 19.131 235.235 19.131C238.723 19.131 241.331 19.947 243.059 21.579C244.819 23.179 245.699 25.451 245.699 28.395Z" fill="white"/>
<path d="M261.417 19.563C266.089 19.563 269.673 20.459 272.169 22.251C274.697 24.011 275.961 26.651 275.961 30.171C275.961 32.091 275.609 33.739 274.905 35.115C274.233 36.459 273.241 37.563 271.929 38.427C270.649 39.259 269.081 39.867 267.225 40.251C265.369 40.635 263.273 40.827 260.937 40.827H257.241V53.163H252.585V20.379C253.897 20.059 255.353 19.851 256.953 19.755C258.585 19.627 260.073 19.563 261.417 19.563ZM261.801 23.643C259.817 23.643 258.297 23.691 257.241 23.787V36.843H260.745C262.345 36.843 263.785 36.747 265.065 36.555C266.345 36.331 267.417 35.979 268.281 35.499C269.177 34.987 269.865 34.299 270.345 33.435C270.825 32.571 271.065 31.467 271.065 30.123C271.065 28.843 270.809 27.787 270.297 26.955C269.817 26.123 269.145 25.467 268.281 24.987C267.449 24.475 266.473 24.123 265.353 23.931C264.233 23.739 263.049 23.643 261.801 23.643Z" fill="white"/>
</g>
</g>
</svg>
