<svg width="203" height="72" viewBox="0 0 203 72" fill="none" xmlns="http://www.w3.org/2000/svg">
<g id="logo / brand / teal / deriv-wordmark vertical-25 years-portuguese">
<g id="logo">
<path d="M69.2595 42.0387C67.7695 40.6272 65.8871 39.4644 63.6124 38.5486C61.3564 37.6418 58.5734 37.055 55.4684 36.7902L56.8434 32.5564H46.1483L42.0242 45.2542C45.6829 45.2542 49.1534 45.4504 51.6903 45.8428C54.2263 46.2342 56.2523 46.7844 57.7681 47.4897C59.284 48.1951 60.3817 49.0582 61.063 50.0775C61.7425 51.0976 62.0831 52.2345 62.0831 53.4891C62.0831 56.4701 61.0889 58.6655 59.1021 60.077C57.1154 61.4886 54.2397 62.1957 50.4749 62.1957C48.5399 62.1957 46.5264 61.9095 44.4354 61.3334C42.3434 60.7592 39.5167 59.7007 37.6861 58.603H3.16376C2.95511 58.9936 2.62516 59.7302 2.43255 60.1332C1.28225 62.5399 0.471711 65.388 0 68.6829H34.4786C35.554 69.2125 36.9424 69.5496 38.1997 69.9616C39.6372 70.4324 41.1013 70.8123 42.5914 71.0985C44.0814 71.3847 45.5331 71.6086 46.9447 71.7655C48.3562 71.9224 49.6117 72 50.7094 72C54.4733 72 57.794 71.5417 60.6698 70.6277C63.5437 69.7128 65.9504 68.4189 67.8854 66.7452C69.8195 65.0715 71.2704 63.033 72.2387 60.6281C73.2062 58.2232 73.6904 55.5561 73.6904 52.6277C73.6904 50.5884 73.3231 48.6677 72.5919 46.8638C71.8589 45.0598 70.7487 43.4521 69.2578 42.0396L69.2595 42.0387Z" fill="#00F1F1"/>
<path d="M50.9262 17.8682L47.6483 27.948L77.3983 27.9427L80.6744 17.8682H50.9262Z" fill="#00F1F1"/>
<path d="M42.5707 22.3205C41.8377 20.752 40.8069 19.3788 39.473 18.2035C38.1399 17.0274 36.5713 16.1 34.7674 15.4196C32.9635 14.7401 31.0152 14.4004 28.9241 14.4004C25.5775 14.4004 22.2773 14.7615 19.1983 15.9689C13.9854 18.0136 10.0387 21.51 10.0387 21.51L13.7874 29.9294C16.1924 28.0997 18.4145 26.7273 20.4529 25.8124C22.4922 24.8984 24.5824 24.4401 26.7269 24.4401C28.2428 24.4401 29.4841 24.8984 30.4525 25.8124C31.42 26.7282 31.9042 27.866 31.9042 29.2241C31.9042 30.3227 31.6696 31.3686 31.1988 32.362C30.728 33.3553 29.9834 34.4156 28.9642 35.5382C27.945 36.6627 26.611 37.8915 24.964 39.2246C23.3171 40.5577 21.317 42.1404 18.9638 43.9693C16.4536 45.9043 14.1272 47.7216 11.9826 49.4194C10.1787 50.8488 8.17412 52.379 6.68497 53.9938H21.0851C21.5114 53.6523 21.9402 53.317 22.3754 52.9889C23.7602 51.9429 25.1718 50.9237 26.6101 49.9303C28.0475 48.9379 29.4725 47.891 30.8841 46.7924C33.289 44.9101 35.3149 43.2114 36.9619 41.6946C38.6089 40.1787 39.9286 38.6877 40.9238 37.2236C41.9162 35.7603 42.6216 34.2426 43.0416 32.675C43.4589 31.1065 43.6693 29.3302 43.6693 27.3417C43.6693 25.5645 43.3019 23.8899 42.5707 22.3223L42.5725 22.3205H42.5707Z" fill="#00F1F1"/>
<path d="M101.33 0.563807L100.408 5.79097H97.2083C94.2229 5.79097 91.3774 8.20839 90.8513 11.1956L90.6284 12.4654C90.1023 15.4508 92.0961 17.87 95.0806 17.87H97.7486C99.9244 17.87 101.997 16.1089 102.379 13.9331L104.838 0.00024414L101.331 0.5647L101.33 0.563807ZM99.0594 13.4382C98.9417 14.1106 98.3363 14.6581 97.6639 14.6581H96.0428C94.7008 14.6581 93.8037 13.5693 94.0382 12.2246L94.1774 11.4328C94.4146 10.0908 95.695 8.99932 97.037 8.99932H99.8406L99.0568 13.4391H99.0586L99.0594 13.4382ZM125.973 17.8682L128.073 5.95683H131.394L129.294 17.8682H125.97H125.973ZM126.332 6.09505C126.165 7.03937 125.998 7.98457 125.832 8.92889C124.258 8.43934 122.635 8.59627 122.136 8.69436C121.597 11.7529 121.058 14.8132 120.519 17.8718H117.196C117.647 15.3126 119.189 6.5721 119.189 6.5721C120.27 6.12446 122.924 5.21583 126.333 6.09416V6.09594L126.332 6.09505ZM112.867 5.78829H110.282C107.762 5.78829 105.361 7.82852 104.918 10.3485L104.395 13.3089C103.951 15.8289 105.632 17.8691 108.15 17.8691H113.65L114.214 14.6679H109.046C108.207 14.6679 107.645 13.9884 107.795 13.1475L107.812 13.0468H116.145L116.62 10.3485C117.064 7.8303 115.383 5.78829 112.865 5.78829H112.867ZM113.286 10.0934L113.265 10.2647H108.31L108.337 10.1122C108.487 9.27309 109.252 8.53563 110.093 8.53563H112.028C112.861 8.53563 113.423 9.26148 113.284 10.0934H113.286ZM144.354 5.95683C143.222 8.96633 140.627 14.0874 138.113 17.8682H134.789C133.635 14.2693 132.89 9.25525 132.749 5.95683H136.072C136.133 7.03223 136.614 11.0253 137.164 13.8136C138.672 11.1011 140.335 7.54139 141.027 5.95683H144.354Z" fill="#00F1F1"/>
<path d="M108.6 61.8059C108.415 61.3993 108.23 60.9463 108.046 60.4469C107.86 59.9476 107.713 59.4215 107.603 58.8668C106.789 59.6069 105.698 60.3453 104.331 61.0845C102.963 61.8237 101.281 62.1938 99.2847 62.1938C97.6574 62.1938 96.2627 61.9343 95.0982 61.4171C93.9336 60.8999 92.9813 60.1794 92.2421 59.2547C91.5019 58.3309 90.9571 57.2404 90.6067 55.9831C90.2545 54.7266 90.0797 53.3409 90.0797 51.8241C90.0797 49.3479 90.4952 46.926 91.3272 44.5603C92.1591 42.1946 93.4066 40.0875 95.0697 38.239C96.7336 36.3914 98.8211 34.8942 101.336 33.7475C103.849 32.6017 106.788 32.0283 110.152 32.0283C111.15 32.0283 112.314 32.1389 113.646 32.3609C114.976 32.5829 116.122 32.953 117.083 33.4702L112.814 50.8816C112.628 51.7323 112.471 52.5455 112.342 53.3213C112.212 54.098 112.148 54.9112 112.148 55.761C112.148 56.6108 112.222 57.4713 112.37 58.3398C112.517 59.2092 112.776 60.142 113.146 61.1398L108.599 61.805L108.6 61.8059ZM100.338 57.8128C101.89 57.8128 103.222 57.4802 104.33 56.815C105.439 56.1498 106.4 55.3731 107.214 54.4859C107.25 53.8581 107.315 53.2018 107.408 52.517C107.5 51.833 107.62 51.1402 107.768 50.4376L111.095 36.6857C110.91 36.6117 110.605 36.5564 110.18 36.5189C109.755 36.4824 109.376 36.4636 109.044 36.4636C106.936 36.4636 105.032 36.8712 103.332 37.6835C101.632 38.4967 100.18 39.5784 98.9789 40.9275C97.7769 42.2776 96.8531 43.8479 96.2066 45.6411C95.5592 47.4343 95.2364 49.3104 95.2364 51.2695C95.2364 52.0462 95.3104 52.8318 95.4584 53.6263C95.6056 54.4217 95.874 55.1234 96.2627 55.7334C96.6506 56.3433 97.1678 56.8427 97.8152 57.2305C98.4617 57.6184 99.3026 57.8128 100.338 57.8128Z" fill="#00F1F1"/>
<path d="M124.182 61.4733H119.025L125.679 33.7484C127.379 33.2312 129.218 32.8157 131.196 32.5009C133.173 32.187 134.939 32.0292 136.492 32.0292C138.156 32.0292 139.588 32.2601 140.789 32.722C141.99 33.1848 142.96 33.8126 143.7 34.6071C144.44 35.4025 144.985 36.3637 145.336 37.4909C145.686 38.6189 145.863 39.8476 145.863 41.1781C145.863 42.0288 145.788 42.9249 145.641 43.8674C145.493 44.81 145.308 45.7623 145.086 46.7236L141.537 61.4733H136.38L139.652 47.8328C139.911 46.7985 140.159 45.7445 140.4 44.6718C140.64 43.5999 140.761 42.5834 140.761 41.6221C140.761 40.1437 140.353 38.9149 139.541 37.9349C138.727 36.9558 137.212 36.4654 134.994 36.4654C134.069 36.4654 133.164 36.5207 132.277 36.6322C131.39 36.7427 130.649 36.8916 130.058 37.0753L124.18 61.4733H124.182Z" fill="#00F1F1"/>
<path d="M160.613 62.1938C157.581 62.1938 155.206 61.2976 153.487 59.5044C151.768 57.7121 150.908 55.2438 150.908 52.1015C150.908 49.9578 151.213 47.7027 151.823 45.3361C152.433 42.9704 153.403 40.7893 154.734 38.7928C156.066 36.7963 157.784 35.1519 159.891 33.8581C161.998 32.5642 164.549 31.9168 167.543 31.9168C170.536 31.9168 172.949 32.8139 174.669 34.6062C176.388 36.3995 177.247 38.8677 177.247 42.0092C177.247 44.1537 176.942 46.4088 176.332 48.7745C175.723 51.1411 174.752 53.3213 173.421 55.3178C172.091 57.3144 170.371 58.9596 168.264 60.2525C166.157 61.5464 163.607 62.1938 160.613 62.1938ZM161.5 57.8128C163.164 57.8128 164.651 57.3331 165.964 56.3709C167.275 55.4097 168.385 54.1809 169.291 52.6837C170.196 51.1866 170.889 49.5325 171.37 47.7205C171.85 45.9095 172.091 44.1537 172.091 42.4523C172.091 40.5673 171.683 39.0701 170.871 37.9608C170.058 36.8515 168.652 36.2978 166.657 36.2978C164.994 36.2978 163.504 36.7784 162.193 37.7397C160.88 38.7018 159.771 39.9297 158.866 41.4269C157.96 42.924 157.266 44.579 156.786 46.3901C156.306 48.202 156.066 49.9578 156.066 51.6583C156.066 53.5434 156.472 55.0405 157.286 56.1498C158.098 57.2591 159.504 57.8128 161.5 57.8128Z" fill="#00F1F1"/>
<path d="M187.562 57.869C188.339 57.869 189.123 57.795 189.919 57.647C190.713 57.4999 191.416 57.2591 192.026 56.9265C192.636 56.5939 193.135 56.1418 193.523 55.5684C193.911 54.9959 194.105 54.2844 194.105 53.4337C194.105 52.879 194.012 52.3895 193.828 51.9642C193.642 51.5397 193.347 51.142 192.941 50.772C192.533 50.4028 192.026 50.0425 191.416 49.6912C190.806 49.3399 190.076 48.9422 189.226 48.499C188.375 48.0924 187.598 47.6866 186.897 47.2791C186.194 46.8725 185.574 46.3919 185.039 45.8373C184.503 45.2826 184.087 44.6272 183.792 43.8684C183.496 43.1113 183.349 42.1964 183.349 41.1237C183.349 38.3514 184.346 36.1248 186.343 34.4422C188.339 32.7604 191.241 31.9195 195.049 31.9195C196.823 31.9195 198.384 32.0952 199.734 32.4465C201.084 32.7988 202.016 33.1216 202.534 33.4167L200.594 37.6309C200.076 37.3358 199.244 37.021 198.099 36.6884C196.953 36.3558 195.677 36.189 194.273 36.189C193.57 36.189 192.867 36.2639 192.166 36.4111C191.463 36.5591 190.825 36.8088 190.253 37.1601C189.68 37.5114 189.218 37.9733 188.866 38.5458C188.514 39.1192 188.339 39.8129 188.339 40.6253C188.339 41.6231 188.727 42.4461 189.504 43.0926C190.281 43.74 191.444 44.415 192.998 45.1168C193.959 45.5599 194.818 46.0138 195.576 46.4757C196.334 46.9385 196.981 47.4557 197.517 48.0282C198.052 48.6016 198.459 49.2757 198.737 50.0524C199.014 50.829 199.152 51.7528 199.152 52.8247C199.152 54.3771 198.856 55.745 198.265 56.9283C197.673 58.1116 196.851 59.0907 195.798 59.8673C194.745 60.644 193.496 61.2263 192.055 61.6142C190.613 62.0021 189.042 62.1965 187.342 62.1965C186.084 62.1965 184.947 62.1135 183.932 61.9468C182.914 61.78 182.027 61.5865 181.27 61.3645C180.512 61.1425 179.883 60.9124 179.385 60.6717C178.886 60.4318 178.507 60.2374 178.248 60.0894L180.245 55.8752C180.503 56.0232 180.863 56.2078 181.326 56.4298C181.788 56.6519 182.343 56.873 182.99 57.095C183.637 57.3171 184.349 57.5025 185.125 57.6497C185.901 57.7977 186.714 57.8717 187.565 57.8717L187.562 57.869Z" fill="#00F1F1"/>
</g>
</g>
</svg>
