<svg width="254" height="72" viewBox="0 0 254 72" fill="none" xmlns="http://www.w3.org/2000/svg">
<g id="logo / brand / seawater / deriv-25 years-spanish">
<g id="logo">
<path d="M86.9905 34.548C85.1281 32.7837 82.7752 31.33 79.9309 30.1851C77.1108 29.0509 73.6327 28.3182 69.7505 27.9869L71.4689 22.6951H58.1004L52.9454 38.5671C57.5189 38.5671 61.8574 38.8119 65.0285 39.3034C68.1987 39.7931 70.7308 40.4808 72.6264 41.3629C74.5221 42.245 75.8929 43.3234 76.7445 44.5971C77.5942 45.8717 78.019 47.293 78.019 48.861C78.019 52.5866 76.7768 55.332 74.2925 57.0954C71.8091 58.8597 68.2141 59.7436 63.5092 59.7436C61.0906 59.7436 58.5738 59.3853 55.9608 58.6652C53.3451 57.9469 49.8121 56.6237 47.524 55.2528H4.37162C4.11058 55.7407 3.69834 56.6624 3.45711 57.1656C2.01872 60.1739 1.00519 63.7339 0.417418 67.8529H43.5158C44.8606 68.5145 46.5951 68.9357 48.1667 69.4515C49.9633 70.0402 51.7933 70.5146 53.6565 70.8728C55.5197 71.2311 57.3335 71.5101 59.0977 71.7063C60.8619 71.9026 62.4317 71.9998 63.8035 71.9998C68.5084 71.9998 72.6588 71.4273 76.253 70.2841C79.8462 69.141 82.8535 67.5234 85.273 65.4315C87.6899 63.3396 89.5045 60.7913 90.7143 57.7858C91.9231 54.7794 92.5289 51.4462 92.5289 47.7853C92.5289 45.2371 92.0698 42.8355 91.1553 40.5798C90.239 38.3241 88.851 36.3159 86.9877 34.5498L86.9905 34.548Z" fill="#0AA0B0"/>
<path d="M64.0735 4.33419L59.9771 16.9342L97.1644 16.927L101.259 4.33419H64.0735Z" fill="#0AA0B0"/>
<path d="M53.6304 9.90055C52.7141 7.94006 51.4252 6.22351 49.759 4.7545C48.092 3.28368 46.1325 2.12431 43.8768 1.27549C41.6211 0.424862 39.1854 0 36.5714 0C32.3886 0 28.2625 0.451866 24.4145 1.96049C17.8985 4.51686 12.965 8.887 12.965 8.887L17.6501 19.4113C20.6565 17.1232 23.4333 15.4085 25.9825 14.2653C28.5316 13.1221 31.1447 12.5496 33.8252 12.5496C35.7208 12.5496 37.2717 13.1221 38.4815 14.2653C39.6913 15.4103 40.2961 16.8325 40.2961 18.5292C40.2961 19.9028 40.0027 21.2098 39.414 22.4511C38.8253 23.6933 37.8946 25.0183 36.62 26.4216C35.3455 27.8276 33.6785 29.3632 31.6199 31.0293C29.5605 32.6964 27.0608 34.674 24.1193 36.9603C20.9815 39.3799 18.0732 41.6509 15.3926 43.7734C13.1369 45.5611 10.6319 47.473 8.7705 49.492H26.7701C27.3029 49.0653 27.8394 48.6458 28.3831 48.2363C30.1149 46.9293 31.8782 45.6547 33.6767 44.4125C35.4733 43.1721 37.2546 41.8633 39.0188 40.4897C42.0252 38.1368 44.5573 36.0134 46.6167 34.1177C48.6762 32.222 50.3243 30.3597 51.5682 28.5288C52.8086 26.6997 53.6907 24.8031 54.2164 22.8427C54.7385 20.8822 55.0013 18.6615 55.0013 16.1754C55.0013 13.9538 54.5422 11.861 53.6277 9.90055L53.6295 9.89875L53.6304 9.90055Z" fill="#0AA0B0"/>
<path d="M136.17 59.2572C135.939 58.7495 135.708 58.1824 135.477 57.5586C135.245 56.9349 135.062 56.276 134.923 55.5829C133.906 56.5082 132.542 57.4317 130.834 58.3553C129.123 59.2788 127.022 59.7415 124.527 59.7415C122.492 59.7415 120.749 59.4174 119.293 58.7711C117.838 58.1248 116.648 57.2238 115.723 56.068C114.798 54.9132 114.118 53.5504 113.678 51.9787C113.238 50.408 113.02 48.6752 113.02 46.7805C113.02 43.6849 113.54 40.6578 114.579 37.6999C115.619 34.743 117.179 32.1092 119.258 29.7986C121.337 27.4888 123.948 25.6175 127.09 24.1845C130.232 22.7523 133.906 22.0358 138.111 22.0358C139.359 22.0358 140.814 22.1745 142.478 22.4517C144.141 22.7289 145.573 23.1916 146.775 23.8379L141.438 45.6022C141.206 46.6662 141.01 47.6815 140.848 48.6518C140.686 49.6222 140.606 50.6393 140.606 51.7015C140.606 52.7636 140.698 53.8393 140.883 54.9249C141.067 56.0113 141.391 57.1779 141.854 58.4255L136.17 59.2572ZM125.843 54.266C127.783 54.266 129.447 53.8501 130.833 53.0184C132.219 52.1867 133.42 51.2163 134.437 50.1074C134.483 49.3224 134.564 48.5024 134.68 47.6464C134.795 46.7922 134.945 45.9253 135.13 45.0468L139.288 27.857C139.056 27.7652 138.675 27.6959 138.144 27.6491C137.612 27.6032 137.139 27.5797 136.723 27.5797C134.089 27.5797 131.709 28.0892 129.584 29.1046C127.458 30.1217 125.645 31.4728 124.143 33.1597C122.641 34.8474 121.485 36.8106 120.678 39.051C119.869 41.2933 119.464 43.6381 119.464 46.0865C119.464 47.0568 119.556 48.0389 119.742 49.0326C119.926 50.0272 120.262 50.904 120.747 51.6664C121.232 52.4288 121.878 53.0526 122.688 53.5378C123.496 54.0229 124.548 54.266 125.843 54.266Z" fill="#0AA0B0"/>
<path d="M149.201 58.8413L157.518 24.1844C159.644 23.5381 161.942 23.0178 164.415 22.6245C166.887 22.232 169.094 22.0349 171.034 22.0349C173.114 22.0349 174.904 22.3238 176.406 22.9017C177.908 23.4805 179.12 24.2654 180.046 25.2583C180.969 26.2529 181.65 27.4537 182.091 28.8624C182.529 30.2729 182.749 31.8085 182.749 33.472C182.749 34.535 182.655 35.6557 182.471 36.834C182.286 38.0122 182.056 39.2022 181.778 40.4039L177.343 58.8413H170.897L174.986 41.7901C175.309 40.4966 175.621 39.1797 175.922 37.8394C176.222 36.5 176.372 35.229 176.372 34.0273C176.372 32.1794 175.864 30.6429 174.847 29.4178C173.83 28.1936 171.936 27.5806 169.164 27.5806C168.008 27.5806 166.877 27.6499 165.768 27.7885C164.659 27.9272 163.734 28.1126 162.996 28.343L155.649 58.8413H149.201ZM175.401 9.8363C176.094 10.2063 176.718 10.5069 177.272 10.7373C177.827 10.9687 178.381 11.0839 178.936 11.0839C179.906 11.0839 180.714 10.7265 181.362 10.0091C182.008 9.29352 182.586 8.54281 183.094 7.7561L186.352 9.76609C185.426 11.7068 184.33 13.1974 183.059 14.237C181.788 15.2767 180.113 15.797 178.034 15.797C177.108 15.797 176.289 15.6359 175.573 15.3118C174.856 14.9887 174.175 14.6421 173.529 14.2722C172.836 13.9031 172.212 13.6025 171.657 13.3711C171.103 13.1407 170.548 13.0246 169.994 13.0246C169.024 13.0246 168.214 13.3828 167.568 14.0993C166.92 14.8167 166.343 15.5665 165.835 16.3524L162.578 14.3424C163.501 12.4017 164.599 10.9111 165.871 9.87141C167.141 8.83175 168.817 8.31148 170.896 8.31148C171.819 8.31148 172.639 8.4735 173.357 8.79665C174.072 9.1207 174.753 9.46725 175.401 9.8363Z" fill="#0AA0B0"/>
<path d="M201.185 59.7423C197.396 59.7423 194.427 58.6225 192.278 56.3803C190.13 54.1399 189.055 51.0551 189.055 47.1269C189.055 44.4472 189.437 41.628 190.199 38.6711C190.962 35.7142 192.175 32.9877 193.838 30.4925C195.502 27.9973 197.65 25.9414 200.284 24.3239C202.918 22.7073 206.106 21.898 209.85 21.898C213.593 21.898 216.608 23.0187 218.756 25.26C220.905 27.5023 221.98 30.5861 221.98 34.5134C221.98 37.194 221.598 40.0132 220.835 42.9692C220.073 45.9271 218.86 48.6527 217.196 51.1478C215.533 53.643 213.384 55.6998 210.751 57.3164C208.117 58.9331 204.929 59.7423 201.185 59.7423ZM202.294 54.2659C204.373 54.2659 206.233 53.6655 207.874 52.4638C209.514 51.263 210.9 49.7256 212.032 47.8542C213.164 45.9829 214.031 43.9153 214.632 41.6505C215.232 39.3867 215.533 37.1913 215.533 35.0661C215.533 32.7095 215.024 30.8381 214.008 29.4519C212.991 28.0657 211.236 27.3726 208.741 27.3726C206.661 27.3726 204.801 27.9739 203.161 29.1747C201.52 30.3773 200.134 31.9129 199.002 33.7843C197.869 35.6556 197.003 37.7242 196.403 39.988C195.801 42.2527 195.502 44.4481 195.502 46.5725C195.502 48.929 196.009 50.8004 197.027 52.1866C198.043 53.5728 199.799 54.2659 202.294 54.2659Z" fill="#0AA0B0"/>
<path d="M234.871 54.3352C235.841 54.3352 236.822 54.2434 237.817 54.058C238.81 53.8735 239.688 53.5728 240.451 53.157C241.213 52.7411 241.837 52.1758 242.322 51.4584C242.807 50.7428 243.049 49.8535 243.049 48.7895C243.049 48.0964 242.933 47.4843 242.703 46.9523C242.47 46.4213 242.101 45.9244 241.594 45.4617C241.085 45 240.45 44.5499 239.687 44.1097C238.925 43.6714 238.012 43.1736 236.949 42.6191C235.885 42.1114 234.915 41.6029 234.038 41.0943C233.16 40.5866 232.386 39.9853 231.716 39.2922C231.045 38.5991 230.526 37.7791 230.156 36.8313C229.785 35.8843 229.602 34.7412 229.602 33.4C229.602 29.9344 230.849 27.1512 233.344 25.0476C235.839 22.9458 239.467 21.8936 244.227 21.8936C246.444 21.8936 248.396 22.1132 250.084 22.5525C251.77 22.9917 252.936 23.3959 253.584 23.7658L251.158 29.0334C250.51 28.6644 249.471 28.271 248.039 27.8551C246.606 27.4393 245.012 27.2314 243.257 27.2314C242.379 27.2314 241.5 27.3241 240.623 27.5086C239.745 27.694 238.948 28.0055 238.232 28.4447C237.515 28.8849 236.937 29.4619 236.499 30.1775C236.06 30.8949 235.84 31.7608 235.84 32.7771C235.84 34.0246 236.325 35.0535 237.296 35.8618C238.266 36.671 239.722 37.5145 241.662 38.3921C242.863 38.9466 243.938 39.5128 244.885 40.0906C245.832 40.6685 246.641 41.3157 247.311 42.0313C247.981 42.7478 248.489 43.5913 248.836 44.5616C249.183 45.5319 249.356 46.6877 249.356 48.0271C249.356 49.9678 248.985 51.678 248.247 53.1561C247.507 54.6359 246.48 55.8591 245.163 56.8295C243.846 57.7998 242.286 58.528 240.484 59.0132C238.682 59.4984 236.717 59.7414 234.593 59.7414C233.021 59.7414 231.601 59.637 230.33 59.4291C229.059 59.2211 227.949 58.9781 227.003 58.7009C226.055 58.4236 225.27 58.1356 224.646 57.834C224.023 57.5343 223.548 57.2913 223.225 57.1058L225.72 51.8383C226.043 52.0237 226.493 52.2541 227.072 52.5314C227.649 52.8086 228.342 53.0858 229.151 53.3631C229.96 53.6403 230.85 53.8717 231.82 54.0562C232.791 54.2416 233.807 54.3334 234.87 54.3334L234.871 54.3352Z" fill="#0AA0B0"/>
</g>
</g>
</svg>
