<svg width="175" height="72" viewBox="0 0 175 72" fill="none" xmlns="http://www.w3.org/2000/svg">
<g id="logo / brand / black / deriv-wordmark vertical-25 years-russian">
<g id="logo">
<path d="M69.2597 42.0386C67.7696 40.627 65.8872 39.4642 63.6125 38.5484C61.3565 37.6415 58.5734 37.0548 55.4685 36.79L56.8435 32.5562H46.1484L42.0243 45.2541C45.683 45.2541 49.1535 45.4502 51.6904 45.8426C54.2264 46.234 56.2523 46.7842 57.7682 47.4895C59.2841 48.1949 60.3818 49.0581 61.0631 50.0773C61.7426 51.0974 62.0832 52.2343 62.0832 53.489C62.0832 56.4699 61.0889 58.6653 59.1022 60.0769C57.1155 61.4884 54.2398 62.1955 50.475 62.1955C48.54 62.1955 46.5265 61.9093 44.4355 61.3333C42.3435 60.759 39.5168 59.7006 37.6861 58.6029H3.16377C2.95511 58.9934 2.62518 59.73 2.43258 60.133C1.28228 62.5398 0.471712 65.3879 0 68.6827H34.4787C35.5541 69.2124 36.9425 69.5495 38.1998 69.9614C39.6372 70.4323 41.1014 70.8121 42.5914 71.0984C44.0815 71.3846 45.5332 71.6084 46.9447 71.7654C48.3563 71.9223 49.6118 71.9999 50.7095 71.9999C54.4734 71.9999 57.7941 71.5415 60.6698 70.6275C63.5438 69.7126 65.9505 68.4188 67.8855 66.745C69.8196 65.0713 71.2704 63.0329 72.2388 60.628C73.2063 58.223 73.6905 55.5559 73.6905 52.6276C73.6905 50.5882 73.3231 48.6675 72.5919 46.8636C71.859 45.0596 70.7488 43.4519 69.2579 42.0394L69.2597 42.0386Z" fill="#414652"/>
<path d="M50.9263 17.868L47.6484 27.9478L77.3984 27.9425L80.6745 17.868H50.9263Z" fill="#414652"/>
<path d="M42.5718 22.3203C41.8389 20.7518 40.808 19.3786 39.4741 18.2033C38.1409 17.0271 36.5724 16.0997 34.7685 15.4194C32.9646 14.7399 31.0162 14.4001 28.9252 14.4001C25.5786 14.4001 22.2784 14.7613 19.1993 15.9687C13.9864 18.0133 10.0397 21.5097 10.0397 21.5097L13.7885 29.9292C16.1934 28.0994 18.4155 26.7271 20.454 25.8122C22.4933 24.8982 24.5835 24.4399 26.728 24.4399C28.2439 24.4399 29.4852 24.8982 30.4536 25.8122C31.4211 26.728 31.9052 27.8658 31.9052 29.2239C31.9052 30.3224 31.6707 31.3684 31.1999 32.3618C30.7291 33.3551 29.9845 34.4154 28.9653 35.538C27.9461 36.6625 26.6121 37.8912 24.9651 39.2243C23.3181 40.5574 21.318 42.1402 18.9648 43.9691C16.4547 45.9041 14.1282 47.7214 11.9837 49.4192C10.1797 50.8486 8.17519 52.3788 6.68604 53.9936H21.0862C21.5124 53.6521 21.9413 53.3168 22.3765 52.9887C23.7613 51.9427 25.1729 50.9235 26.6112 49.9302C28.0486 48.9377 29.4736 47.8908 30.8851 46.7922C33.2901 44.9099 35.316 43.2112 36.963 41.6944C38.61 40.1785 39.9297 38.6875 40.9249 37.2233C41.9173 35.7601 42.6227 34.2424 43.0427 32.6747C43.46 31.1062 43.6704 29.33 43.6704 27.3415C43.6704 25.5643 43.303 23.8897 42.5718 22.3221L42.5736 22.3203H42.5718Z" fill="#414652"/>
<path d="M101.33 0.563542L100.408 5.79073H97.2084C94.223 5.79073 91.3776 8.20813 90.8515 11.1953L90.6285 12.4652C90.1024 15.4506 92.0963 17.8698 95.0808 17.8698H97.7488C99.9246 17.8698 101.997 16.1087 102.379 13.9329L104.838 0L101.331 0.564457L101.33 0.563542ZM99.0605 13.438C98.9428 14.1103 98.3374 14.6578 97.665 14.6578H96.0439C94.7019 14.6578 93.8048 13.5691 94.0393 12.2244L94.1784 11.4326C94.4156 10.0905 95.6961 8.99909 97.0381 8.99909H99.8416L99.0579 13.4389H99.0596L99.0605 13.438ZM125.974 17.868L128.074 5.95658H131.395L129.295 17.868H125.971H125.974ZM126.332 6.09482C126.166 7.03913 125.998 7.98432 125.832 8.92864C124.258 8.43909 122.635 8.59604 122.136 8.69413C121.597 11.7527 121.058 14.813 120.519 17.8716H117.196C117.647 15.3124 119.189 6.57184 119.189 6.57184C120.271 6.12421 122.924 5.21557 126.333 6.0939V6.09569L126.332 6.09482ZM112.868 5.78807H110.283C107.764 5.78807 105.362 7.82827 104.919 10.3482L104.396 13.3087C103.952 15.8287 105.633 17.8689 108.151 17.8689H113.651L114.215 14.6676H109.047C108.208 14.6676 107.646 13.9882 107.796 13.1473L107.813 13.0465H116.146L116.621 10.3482C117.065 7.83005 115.384 5.78807 112.866 5.78807H112.868ZM113.286 10.0932L113.265 10.2644H108.31L108.337 10.1119C108.487 9.27284 109.252 8.53538 110.094 8.53538H112.029C112.861 8.53538 113.423 9.26125 113.284 10.0932H113.286ZM144.354 5.95571C143.222 8.96521 140.627 14.0863 138.113 17.8671H134.789C133.636 14.2682 132.89 9.25412 132.749 5.95571H136.073C136.133 7.0311 136.614 11.0241 137.164 13.8125C138.672 11.0999 140.335 7.54027 141.028 5.95571H144.354Z" fill="#414652"/>
<path d="M86.2565 57.7025C87.2543 57.6284 88.1326 57.4438 88.8906 57.1478C89.6476 56.8526 90.3048 56.4826 90.8595 56.0385C91.4141 55.5953 91.8938 55.096 92.3013 54.5413C92.7079 53.9867 93.0584 53.432 93.3553 52.8774C94.132 51.399 94.8151 49.8189 95.4072 48.1362C95.9984 46.4545 96.5244 44.7352 96.9872 42.9795C97.4491 41.2237 97.8647 39.468 98.2348 37.7113C98.6039 35.9555 98.9552 34.2648 99.2887 32.6375H118.308L111.377 61.4717H106.22L112.098 36.9622H103.392C103.096 38.1821 102.773 39.4849 102.422 40.8715C102.071 42.2581 101.692 43.6438 101.285 45.0304C100.878 46.417 100.453 47.7849 100.01 49.134C99.5661 50.4841 99.0855 51.7494 98.5683 52.9327C97.9396 54.3746 97.2557 55.6319 96.5164 56.7037C95.7763 57.7765 94.9167 58.6913 93.9376 59.4484C92.9576 60.2063 91.8483 60.7886 90.6107 61.1953C89.3721 61.6019 87.9391 61.8605 86.3135 61.9719L86.2582 57.7025H86.2565Z" fill="#414652"/>
<path d="M132.392 62.1942C130.507 62.1942 128.879 61.9258 127.512 61.3899C126.145 60.8539 124.998 60.1147 124.075 59.1713C123.15 58.2288 122.467 57.1293 122.023 55.872C121.58 54.6156 121.358 53.2852 121.358 51.8798C121.358 49.293 121.746 46.7971 122.522 44.394C123.299 41.9917 124.408 39.8659 125.849 38.0174C127.291 36.1698 129.046 34.7002 131.118 33.6088C133.187 32.5191 135.534 31.9734 138.159 31.9734C139.674 31.9734 140.978 32.1678 142.069 32.5557C143.158 32.9436 144.046 33.4706 144.73 34.1358C145.414 34.801 145.923 35.5688 146.255 36.4373C146.588 37.3067 146.755 38.2028 146.755 39.1267C146.755 40.8646 146.44 42.3341 145.812 43.5352C145.183 44.7373 144.351 45.7449 143.317 46.5572C142.282 47.3705 141.072 47.9991 139.685 48.4423C138.298 48.8855 136.857 49.2377 135.36 49.4954C133.863 49.7549 132.347 49.9305 130.813 50.0224C129.279 50.1151 127.828 50.1981 126.46 50.2721C126.423 50.5681 126.405 50.8089 126.405 50.9926V51.4358C126.405 52.2864 126.507 53.0908 126.71 53.8478C126.912 54.6058 127.292 55.271 127.847 55.8443C128.401 56.4177 129.168 56.8698 130.148 57.2033C131.127 57.5359 132.412 57.7027 134.002 57.7027C134.704 57.7027 135.434 57.6385 136.192 57.5083C136.949 57.379 137.671 57.2131 138.355 57.0089C139.039 56.8065 139.649 56.6023 140.184 56.399C140.719 56.1966 141.099 56.0022 141.321 55.8167L141.765 60.1977C141.024 60.6052 139.832 61.0385 138.188 61.5004C136.543 61.9624 134.611 62.1933 132.394 62.1933L132.392 62.1942ZM127.124 46.3352C129.267 46.2612 131.227 46.123 133.002 45.9197C134.776 45.7173 136.31 45.365 137.604 44.8666C138.898 44.3672 139.905 43.6931 140.626 42.8424C141.346 41.9926 141.707 40.8833 141.707 39.5155C141.707 39.1829 141.642 38.8315 141.513 38.4614C141.383 38.0923 141.162 37.7499 140.848 37.436C140.533 37.1221 140.1 36.8635 139.545 36.6593C138.99 36.4569 138.306 36.3544 137.493 36.3544C136.198 36.3544 134.988 36.6317 133.861 37.1863C132.733 37.741 131.727 38.4713 130.839 39.3764C129.952 40.2823 129.194 41.3363 128.566 42.5374C127.937 43.7394 127.456 45.0039 127.124 46.3352Z" fill="#414652"/>
<path d="M174.337 31.9268L173.526 35.3804H164.615L158.348 61.4726H154.213L160.479 35.3804H151.569L152.378 31.9268H174.337Z" fill="#414652"/>
</g>
</g>
</svg>
