<svg width="74" height="72" viewBox="0 0 74 72" fill="none" xmlns="http://www.w3.org/2000/svg">
<g id="logo / partners product / brand-dark / deriv ctrader-thirdparty-vertical-logo-wordmark">
<g id="wordmark">
<path d="M28.1145 63.2354C28.3209 61.6779 29.7147 59.5181 33.3822 59.5181C37.0495 59.5181 38.1833 61.0219 38.3412 63.1071C38.3858 63.713 38.4083 64.2743 38.4083 64.947V71.6766H35.7L35.3449 70.0894H35.1795C34.7223 71.0616 33.3561 71.9909 31.6331 71.9909C29.4564 71.9909 27.7521 70.7567 27.7521 68.4467C27.7521 65.486 30.0178 64.408 34.5959 64.408H35.2464V63.9825C35.2464 62.8154 34.8654 62.0756 33.2502 62.0756C31.8376 62.0756 31.3208 62.5996 31.1498 63.2354M30.871 68.0656C30.871 68.9409 31.5663 69.4334 32.6665 69.4334C33.9231 69.4334 35.2464 68.5749 35.2464 67.1439V66.6066C35.2464 66.6066 30.871 66.0046 30.871 68.0656Z" fill="#FDFDFF"/>
<path d="M27.7521 59.7058L27.1182 62.7909C26.0103 62.3503 24.713 62.5771 24.0308 63.2646C23.1069 64.1958 23.1423 65.7756 23.1423 66.5414V71.6782H19.9342V59.832H23.0493L22.6387 61.6943H22.8041C23.6573 60.0273 25.5736 59.4995 27.7503 59.7058H27.7521Z" fill="#FDFDFF"/>
<path d="M73.9211 59.7058L73.2873 62.7909C72.1796 62.3503 70.882 62.5771 70.2001 63.2646C69.2762 64.1958 69.3115 65.7756 69.3115 66.5414V71.6782H66.1033V59.832H69.2186L68.8078 61.6943H68.9731C69.8263 60.0273 71.7427 59.4995 73.9193 59.7058H73.9211Z" fill="#FDFDFF"/>
<path d="M22.0103 54.8329L21.3708 57.7045H16.7687V71.6767H13.4192V57.7045H8.5642V54.8329H22.0121H22.0103Z" fill="#FDFDFF"/>
<path d="M51.7094 55.0689L51.6945 71.6859H48.8579L48.5011 70.0802H48.3357C47.9118 71.0744 46.6759 72 44.9045 72C41.3357 72 39.7817 69.0449 39.7817 65.4858C39.7817 61.5569 41.8283 59.3137 45.122 59.3137C46.6088 59.3137 47.8432 60.0498 48.4379 61.1407H48.5234L48.5382 54.45L51.7094 55.0707V55.0689ZM43.0698 65.5083C43.0698 67.5954 43.8785 69.0748 45.8078 69.0748C47.4008 69.0748 48.5234 68.177 48.5234 65.5529V65.1272C48.5234 62.5477 47.1776 61.7837 45.8767 61.7837C43.9696 61.7837 43.0718 63.1515 43.0718 65.5083H43.0698Z" fill="#FDFDFF"/>
<path d="M59.0959 59.52C62.9769 59.52 64.6145 62.055 64.6145 65.5546C64.6145 65.891 64.5922 66.3389 64.5699 66.7218H56.4695C56.6722 68.7178 57.5699 69.4147 59.0493 69.4147C60.2837 69.4147 60.9787 68.9428 61.293 68.0692H64.412C63.9863 70.5596 62.0551 71.9945 58.9825 71.9945C55.1683 71.9945 53.1944 69.9072 53.1944 65.8242C53.1944 61.9659 55.0569 59.52 59.0959 59.52ZM56.4935 64.4768H61.3859C61.2055 62.7501 60.3095 62.0754 58.962 62.0754C57.5477 62.0754 56.6963 62.7036 56.4935 64.4768Z" fill="#FDFDFF"/>
<path d="M6.0029 59.5202C9.77243 59.5202 11.1628 61.3377 11.3877 63.9621H8.20178C8.09027 62.7278 7.23711 62.0997 5.95828 62.0997C4.32073 62.0997 3.42296 63.2446 3.42296 65.7108C3.42296 68.1772 4.23152 69.3907 5.93598 69.3907C7.14788 69.3907 8.04565 68.651 8.20178 67.5508H11.3877C11.0735 70.2438 9.30029 71.9927 5.80028 71.9927C1.85048 71.9927 0.0791016 69.7272 0.0791016 65.7778C0.0791016 61.8284 1.85232 59.5181 6.0029 59.5181V59.5202Z" fill="#FDFDFF"/>
<path d="M37.0011 0C23.0624 0 11.7222 11.3402 11.7222 25.279C11.7222 39.2175 23.0624 50.5577 37.0011 50.5577C50.9399 50.5577 62.2799 39.2175 62.2799 25.279C62.2799 11.3402 50.9399 0 37.0011 0ZM37.0011 4.06136C48.5141 4.06136 57.9137 13.2788 58.2094 24.7212C58.213 24.9053 58.2168 25.0911 58.2168 25.277C58.2168 36.1377 49.8524 40.1562 45.3729 40.7342C38.2872 41.647 32.3207 37.8216 32.3207 30.3347C32.3207 23.2398 40.1664 17.091 50.1089 20.1191L51.3953 14.3327C47.793 12.5818 43.9174 11.7844 40.1349 11.7844C25.5864 11.7844 16.4861 22.6042 17.3262 32.4313C17.2482 32.4722 17.1368 32.5316 17.027 32.5931C16.3635 30.3941 16.0084 27.9518 16.0084 25.279C16.0084 13.5799 25.3023 4.06321 37.0011 4.06321V4.06136Z" fill="#FF101F"/>
</g>
</g>
</svg>
