<svg width="169" height="72" viewBox="0 0 169 72" fill="none" xmlns="http://www.w3.org/2000/svg">
<g id="logo / brand / brand-light / deriv-wordmark vertical-25 years-tagline-english">
<g id="logo">
<path d="M54.0575 32.8244C52.894 31.7217 51.4264 30.8149 49.6505 30.1002C47.8889 29.3916 45.7191 28.9341 43.2941 28.7279L44.3678 25.4216H36.0212L32.8022 35.3363C35.6579 35.3363 38.3666 35.4894 40.3466 35.7957C42.3266 36.1021 43.9065 36.5309 45.0904 37.0823C46.2743 37.6337 47.1296 38.3076 47.6623 39.102C48.1931 39.8984 48.4584 40.7868 48.4584 41.7649C48.4584 44.093 47.6828 45.8063 46.1314 46.9091C44.5801 48.0119 42.3368 48.5632 39.3994 48.5632C37.8889 48.5632 36.3192 48.3386 34.6862 47.8893C33.0533 47.4401 30.8467 46.615 29.4199 45.7573H2.4777C2.3144 46.0616 2.05721 46.6375 1.90616 46.952C1.00801 48.8308 0.375234 51.0547 0.0078125 53.6278H26.9153C27.7542 54.0403 28.8381 54.3037 29.82 54.6264C30.9406 54.994 32.0837 55.2901 33.2472 55.5147C34.4107 55.7394 35.5436 55.9129 36.6438 56.0355C37.746 56.158 38.7258 56.2193 39.5811 56.2193C42.5184 56.2193 45.1108 55.8619 47.3541 55.1471C49.5974 54.4324 51.4753 53.4236 52.9859 52.1166C54.4943 50.8096 55.6272 49.2188 56.3825 47.34C57.1377 45.4633 57.5153 43.3803 57.5153 41.0931C57.5153 39.5002 57.2275 38.0013 56.658 36.5922C56.0865 35.1831 55.219 33.9292 54.0555 32.8265L54.0575 32.8244Z" fill="#414652"/>
<path d="M39.751 13.9548L37.1934 21.8253L60.4103 21.8212L62.9659 13.9548H39.751Z" fill="#414652"/>
<path d="M33.2302 17.4307C32.6586 16.2054 31.8544 15.1333 30.8134 14.2164C29.7723 13.2974 28.5496 12.5745 27.1412 12.0435C25.7327 11.5125 24.212 11.2471 22.5811 11.2471C19.9704 11.2471 17.3943 11.5289 14.9918 12.4724C10.9236 14.0693 7.84342 16.7976 7.84342 16.7976L10.7685 23.3713C12.6444 21.9418 14.3794 20.8717 15.9695 20.157C17.5617 19.4422 19.1926 19.0848 20.8665 19.0848C22.0504 19.0848 23.0179 19.4422 23.7732 20.157C24.5284 20.8717 24.906 21.76 24.906 22.8199C24.906 23.6776 24.7223 24.4945 24.3549 25.2705C23.9875 26.0465 23.4057 26.8736 22.6117 27.7497C21.8156 28.6278 20.7746 29.5876 19.4907 30.6271C18.2047 31.6685 16.6432 32.904 14.8081 34.3315C12.8485 35.8427 11.0339 37.262 9.36005 38.5873C7.9516 39.7044 6.38802 40.897 5.22656 42.1591H16.4635C16.7962 41.8915 17.131 41.6301 17.4699 41.3749C18.5517 40.558 19.6519 39.7616 20.7746 38.9876C21.8952 38.2136 23.0077 37.3947 24.11 36.537C25.9859 35.0667 27.5678 33.7413 28.8538 32.5569C30.1398 31.3724 31.1685 30.2084 31.9462 29.0669C32.7199 27.9253 33.271 26.7388 33.5996 25.5156C33.9262 24.2903 34.0895 22.9037 34.0895 21.3516C34.0895 19.965 33.8038 18.656 33.2322 17.4327L33.2302 17.4307Z" fill="#414652"/>
<path d="M77.1118 44.4033C78.21 42.6654 79.2102 40.8643 80.1083 38.9977C81.0044 37.1292 81.7944 35.3423 82.4741 33.633C83.1539 31.9258 83.7254 30.3533 84.1888 28.9218C84.6521 27.4882 84.9848 26.3385 85.1869 25.4685H89.398C89.0795 26.5692 88.6305 27.9375 88.0528 29.5712C87.4731 31.2069 86.7709 32.9734 85.9463 34.8706C85.1216 36.7677 84.1949 38.7077 83.1681 40.6907C82.1414 42.6736 81.0187 44.5769 79.8042 46.4026C78.8775 47.7647 77.9528 49.0451 77.0261 50.2459C76.0994 51.4467 75.1094 52.4882 74.052 53.3724C72.9947 54.2546 71.8312 54.9489 70.5574 55.4574C69.2837 55.9639 67.8508 56.2171 66.2607 56.2171C65.4503 56.2171 64.6971 56.115 64.0031 55.9128C63.309 55.7107 62.8028 55.4922 62.4844 55.2614L63.8724 51.9613C64.1623 52.192 64.5521 52.3881 65.0441 52.5474C65.536 52.7067 66.0851 52.7863 66.6934 52.7863C68.3713 52.7863 69.7981 52.3799 70.9698 51.5692C72.1414 50.7585 73.2478 49.6863 74.2908 48.3549C73.2192 44.8526 72.3456 41.1604 71.6638 37.2803C70.9841 33.4002 70.5717 29.4629 70.4268 25.4685H74.5501C74.5787 26.7714 74.6501 28.1989 74.7664 29.7468C74.8828 31.2968 75.0481 32.9019 75.2645 34.5683C75.4809 36.2327 75.7422 37.9072 76.0443 39.5838C76.3484 41.2645 76.7015 42.8696 77.1077 44.4053L77.1118 44.4033Z" fill="#414652"/>
<path d="M98.6424 48.6162C97.1666 48.6162 95.8929 48.4059 94.8232 47.9873C93.7516 47.5686 92.8555 46.9887 92.1329 46.2494C91.4083 45.5101 90.8735 44.6504 90.5265 43.6661C90.1795 42.6818 90.0039 41.6403 90.0039 40.5396C90.0039 38.5137 90.3081 36.5594 90.9163 34.6765C91.5246 32.7937 92.3921 31.1314 93.5209 29.6835C94.6497 28.2356 96.0235 27.0859 97.6442 26.2302C99.265 25.3766 101.102 24.9478 103.158 24.9478C104.344 24.9478 105.364 25.0989 106.217 25.4052C107.071 25.7095 107.765 26.122 108.301 26.6427C108.836 27.1635 109.234 27.7639 109.496 28.446C109.757 29.126 109.885 29.8285 109.885 30.5534C109.885 31.9156 109.638 33.0653 109.147 34.0067C108.655 34.9481 108.003 35.7364 107.193 36.3736C106.383 37.0107 105.436 37.5029 104.35 37.85C103.264 38.1972 102.135 38.4729 100.963 38.6751C99.7916 38.8772 98.6036 39.0161 97.4034 39.0876C96.2031 39.1611 95.0662 39.2265 93.9966 39.2836C93.968 39.5144 93.9537 39.7043 93.9537 39.8473V40.1944C93.9537 40.8602 94.0333 41.4912 94.1925 42.0834C94.3517 42.6777 94.6477 43.1984 95.0825 43.6477C95.5152 44.097 96.1174 44.4503 96.8829 44.7117C97.6504 44.973 98.6546 45.1038 99.8998 45.1038C100.449 45.1038 101.02 45.0527 101.614 44.9526C102.208 44.8505 102.772 44.7198 103.307 44.5626C103.841 44.4033 104.319 44.244 104.74 44.0847C105.158 43.9254 105.456 43.7743 105.63 43.6273L105.977 47.0581C105.397 47.3767 104.464 47.7177 103.178 48.0792C101.89 48.4406 100.379 48.6224 98.6403 48.6224V48.6183L98.6424 48.6162ZM94.5191 36.1959C96.197 36.1387 97.73 36.0305 99.12 35.8692C100.51 35.7099 101.71 35.4362 102.723 35.0441C103.735 34.652 104.523 34.1252 105.089 33.4594C105.652 32.7937 105.936 31.9258 105.936 30.8536C105.936 30.5923 105.885 30.3186 105.785 30.0286C105.683 29.7407 105.509 29.4711 105.264 29.224C105.017 28.9769 104.678 28.7747 104.244 28.6154C103.811 28.4562 103.274 28.3765 102.637 28.3765C101.623 28.3765 100.675 28.593 99.7936 29.028C98.9098 29.4629 98.1219 30.0347 97.4279 30.7434C96.7338 31.452 96.1398 32.277 95.6479 33.2184C95.156 34.1599 94.7783 35.1503 94.5191 36.1939V36.1959Z" fill="#414652"/>
<path d="M126.903 48.3119C126.758 47.9933 126.613 47.638 126.468 47.2479C126.323 46.8558 126.207 46.4433 126.121 46.0104C125.484 46.5904 124.629 47.1683 123.56 47.7483C122.488 48.3282 121.171 48.6182 119.61 48.6182C118.336 48.6182 117.244 48.416 116.332 48.0097C115.421 47.6053 114.674 47.0417 114.096 46.3147C113.517 45.5918 113.09 44.7361 112.817 43.7518C112.541 42.7675 112.404 41.681 112.404 40.4946C112.404 38.5545 112.731 36.6594 113.38 34.8051C114.031 32.9529 115.009 31.3028 116.311 29.8529C117.614 28.405 119.249 27.2328 121.216 26.3343C123.184 25.4378 125.484 24.9885 128.118 24.9885C128.899 24.9885 129.812 25.0743 130.853 25.2499C131.894 25.4235 132.792 25.7135 133.543 26.1199L130.202 39.7553C130.057 40.4231 129.932 41.0582 129.832 41.6667C129.73 42.2753 129.681 42.9125 129.681 43.5782C129.681 44.2439 129.738 44.9178 129.855 45.5979C129.971 46.2779 130.173 47.009 130.463 47.7911L126.903 48.3119ZM120.434 45.1854C121.649 45.1854 122.69 44.924 123.56 44.4053C124.429 43.8825 125.18 43.276 125.817 42.5816C125.846 42.0895 125.897 41.5748 125.968 41.0398C126.04 40.5048 126.136 39.9616 126.25 39.4122L128.855 28.6419C128.71 28.5847 128.471 28.5398 128.138 28.5112C127.803 28.4826 127.509 28.4683 127.248 28.4683C125.599 28.4683 124.107 28.7869 122.778 29.4241C121.447 30.0612 120.31 30.9087 119.369 31.9645C118.428 33.0223 117.705 34.2517 117.199 35.6547C116.693 37.0597 116.44 38.528 116.44 40.0637C116.44 40.6722 116.497 41.2869 116.613 41.9098C116.73 42.5326 116.94 43.082 117.242 43.5598C117.546 44.0377 117.95 44.4277 118.459 44.732C118.965 45.0363 119.622 45.1874 120.434 45.1874V45.1854Z" fill="#414652"/>
<path d="M148 24.9906C148.347 24.9906 148.739 25.0049 149.171 25.0335C149.604 25.062 150.033 25.1131 150.451 25.1846C150.872 25.2581 151.254 25.3296 151.601 25.401C151.948 25.4746 152.209 25.5522 152.382 25.64L151.211 29.1586C150.631 28.9278 149.966 28.7542 149.214 28.6378C148.461 28.5214 147.739 28.4643 147.042 28.4643C146.434 28.4643 145.834 28.5071 145.242 28.595C144.648 28.6807 144.136 28.7971 143.701 28.9421L139.1 48.0505H135.062L140.272 26.3343C141.429 25.93 142.672 25.6032 144.005 25.3582C145.336 25.1111 146.667 24.9885 148 24.9885V24.9906Z" fill="#414652"/>
<path d="M156.854 45.2284C157.462 45.2284 158.076 45.1712 158.697 45.0548C159.319 44.9384 159.869 44.7506 160.346 44.4912C160.824 44.2298 161.214 43.8765 161.518 43.4272C161.822 42.978 161.973 42.4225 161.973 41.7547C161.973 41.3218 161.902 40.9379 161.757 40.603C161.612 40.2701 161.381 39.9597 161.063 39.6697C160.744 39.3818 160.346 39.0979 159.869 38.8222C159.391 38.5465 158.819 38.2361 158.154 37.8889C157.486 37.5704 156.88 37.2518 156.331 36.9332C155.78 36.6146 155.296 36.2389 154.878 35.8039C154.457 35.3689 154.133 34.8563 153.902 34.2621C153.669 33.6678 153.555 32.9531 153.555 32.1117C153.555 29.9389 154.337 28.1969 155.898 26.8777C157.46 25.5605 159.732 24.9009 162.714 24.9009C164.104 24.9009 165.325 25.0397 166.382 25.3134C167.439 25.5891 168.168 25.8423 168.574 26.0731L167.056 29.3732C166.65 29.1424 165.998 28.8953 165.102 28.6339C164.204 28.3725 163.206 28.2418 162.108 28.2418C161.557 28.2418 161.008 28.3011 160.458 28.4154C159.907 28.5318 159.409 28.7258 158.96 29.0015C158.511 29.2772 158.15 29.6387 157.874 30.0879C157.599 30.5372 157.462 31.0804 157.462 31.7176C157.462 32.4997 157.766 33.145 158.374 33.6494C158.983 34.1559 159.893 34.6848 161.108 35.2341C161.859 35.5813 162.532 35.9366 163.126 36.2981C163.72 36.6596 164.227 37.066 164.645 37.5152C165.064 37.9645 165.384 38.4914 165.6 39.0999C165.817 39.7085 165.927 40.4314 165.927 41.2728C165.927 42.4899 165.694 43.56 165.233 44.4851C164.77 45.4122 164.127 46.178 163.302 46.7866C162.477 47.3951 161.502 47.8505 160.373 48.1548C159.244 48.4591 158.013 48.6123 156.684 48.6123C155.7 48.6123 154.81 48.5469 154.014 48.4162C153.218 48.2855 152.522 48.1344 151.93 47.9608C151.336 47.7872 150.844 47.6075 150.454 47.4176C150.065 47.2297 149.767 47.0766 149.564 46.9622L151.128 43.6621C151.33 43.7785 151.612 43.9235 151.975 44.095C152.336 44.2686 152.771 44.4422 153.277 44.6158C153.784 44.7894 154.341 44.9343 154.949 45.0487C155.558 45.1651 156.194 45.2223 156.86 45.2223L156.854 45.2284Z" fill="#414652"/>
<path d="M79.0843 0.444034L78.3658 4.52424H75.8694C73.5403 4.52424 71.3195 6.41119 70.9071 8.74332L70.7336 9.7358C70.3233 12.0659 71.8787 13.9549 74.2078 13.9549H76.2898C77.9881 13.9549 79.6048 12.5805 79.9028 10.8814L81.8216 0.00292969L79.0843 0.444034ZM77.3145 10.4955C77.2227 11.0203 76.7512 11.4471 76.2266 11.4471H74.961C73.9138 11.4471 73.2137 10.5976 73.3974 9.54793L73.5056 8.92916C73.6914 7.88153 74.6895 7.02996 75.7367 7.02996H77.9249L77.3125 10.4955H77.3145ZM98.3167 13.9549L99.9558 4.65494H102.546L100.907 13.9549H98.3127H98.3167ZM98.5964 4.76113C98.4658 5.49835 98.3351 6.23556 98.2065 6.97278C96.9777 6.5909 95.7121 6.71343 95.3223 6.78899C94.9018 9.17626 94.4813 11.5656 94.0608 13.9549H91.4664C91.8175 11.9577 93.0218 5.1328 93.0218 5.1328C93.8648 4.7836 95.9367 4.07293 98.5964 4.75909V4.76113ZM88.0881 4.5222H86.0714C84.1057 4.5222 82.2319 6.11508 81.8848 8.08371L81.4766 10.3954C81.1296 12.362 82.4421 13.9569 84.4078 13.9569H88.6985L89.1394 11.4573H85.1059C84.4507 11.4573 84.0118 10.9264 84.1302 10.2708L84.1445 10.1912H90.6478L91.0193 8.08371C91.3664 6.11712 90.0538 4.5222 88.0881 4.5222ZM88.4147 7.88358L88.3984 8.01836H84.5323L84.5527 7.89991C84.6691 7.24438 85.2672 6.6685 85.9244 6.6685H87.435C88.0841 6.6685 88.5229 7.23417 88.4147 7.88562V7.88358ZM112.66 4.65494C111.777 7.00545 109.752 11.0019 107.79 13.9549H105.196C104.295 11.1449 103.714 7.23009 103.604 4.65494H106.198C106.245 5.49426 106.62 8.61262 107.049 10.7896C108.225 8.67185 109.523 5.89248 110.064 4.65494H112.66Z" fill="#FF444F"/>
<path d="M6.88098 62.8909V63.9732H4.06613V71.813H2.81281V63.9732H0V62.8909H6.88098Z" fill="#414652"/>
<path d="M10.0837 64.9759C10.1878 64.9759 10.3041 64.982 10.4389 64.9943C10.5736 65.0066 10.7042 65.0249 10.8328 65.0454C10.9614 65.0658 11.0798 65.0882 11.188 65.1087C11.2962 65.1311 11.3758 65.1495 11.4268 65.1679L11.2207 66.2114C11.1268 66.1767 10.9696 66.1359 10.7491 66.0889C10.5307 66.0419 10.247 66.0174 9.90203 66.0174C9.67749 66.0174 9.45704 66.0419 9.23659 66.0889C9.01818 66.1359 8.87325 66.1685 8.80385 66.1849V71.811H7.60156V65.3986C7.88529 65.2945 8.23843 65.1985 8.66096 65.1087C9.08145 65.0188 9.55706 64.9739 10.0817 64.9739L10.0837 64.9759Z" fill="#414652"/>
<path d="M17.9333 71.6191C17.6577 71.6885 17.2944 71.76 16.8413 71.8376C16.3901 71.9152 15.8676 71.954 15.2715 71.954C14.7551 71.954 14.3203 71.8784 13.9672 71.7293C13.6141 71.5803 13.3303 71.3679 13.116 71.0922C12.8996 70.8185 12.7465 70.4938 12.6506 70.1201C12.5567 69.7464 12.5098 69.3339 12.5098 68.8785V65.1189H13.71V68.6212C13.71 69.436 13.8386 70.0201 14.0978 70.3713C14.3571 70.7225 14.7898 70.9002 15.4022 70.9002C15.5308 70.9002 15.6655 70.8961 15.8023 70.888C15.939 70.8778 16.0676 70.8696 16.1901 70.8553C16.3105 70.843 16.4208 70.8287 16.5187 70.8165C16.6167 70.8042 16.6882 70.7879 16.7331 70.7716V65.1189H17.9333V71.6211V71.6191Z" fill="#414652"/>
<path d="M21.5604 70.9512C22.0523 70.9512 22.4136 70.8859 22.6525 70.7572C22.8892 70.6286 23.0076 70.4223 23.0076 70.1385C23.0076 69.8546 22.8913 69.6136 22.6586 69.4441C22.4259 69.2726 22.0421 69.0806 21.5094 68.8642C21.2501 68.76 21.0031 68.6559 20.7664 68.5476C20.5296 68.4414 20.3255 68.3148 20.1519 68.1678C19.9805 68.0208 19.8417 67.8451 19.7376 67.6409C19.6335 67.4347 19.5824 67.1814 19.5824 66.8812C19.5824 66.289 19.8009 65.8193 20.2418 65.4722C20.6806 65.125 21.2787 64.9514 22.036 64.9514C22.2238 64.9514 22.4157 64.9616 22.6055 64.9841C22.7933 65.0045 22.9709 65.0311 23.1342 65.0617C23.2975 65.0923 23.4424 65.123 23.5669 65.1577C23.6914 65.1924 23.7874 65.221 23.8588 65.2475L23.6404 66.2768C23.5118 66.2094 23.3097 66.1379 23.0342 66.0644C22.7586 65.9909 22.4279 65.9561 22.0401 65.9561C21.7033 65.9561 21.4114 66.0215 21.1624 66.1563C20.9133 66.289 20.7888 66.4973 20.7888 66.7791C20.7888 66.9262 20.8174 67.0528 20.8725 67.1651C20.9297 67.2754 21.0133 67.3775 21.1317 67.4673C21.2481 67.5572 21.393 67.6409 21.5645 67.7185C21.7359 67.7961 21.9441 67.8778 22.185 67.9636C22.5034 68.0841 22.7872 68.2025 23.0362 68.3169C23.2852 68.4333 23.4996 68.5681 23.6751 68.7233C23.8507 68.8764 23.9874 69.0643 24.0813 69.2828C24.1752 69.5013 24.2222 69.7688 24.2222 70.0874C24.2222 70.7062 23.9915 71.1738 23.5302 71.4904C23.0689 71.8089 22.4136 71.9662 21.5604 71.9662C20.9664 71.9662 20.501 71.9172 20.1662 71.8171C19.8294 71.717 19.6029 71.6435 19.4824 71.5925L19.7008 70.5632C19.8376 70.6143 20.0581 70.6919 20.3602 70.794C20.6623 70.8981 21.0623 70.9472 21.5604 70.9472V70.9512Z" fill="#414652"/>
<path d="M26.8798 65.1168H29.4232V66.1216H26.8798V69.2113C26.8798 69.5462 26.9064 69.8219 26.9574 70.0425C27.0084 70.261 27.086 70.4325 27.1901 70.5571C27.2942 70.6817 27.4228 70.7695 27.5779 70.8205C27.7331 70.8716 27.9147 70.8981 28.1209 70.8981C28.4822 70.8981 28.7721 70.8573 28.9925 70.7756C29.2109 70.6939 29.364 70.6367 29.4518 70.602L29.6845 71.5945C29.5641 71.6558 29.3538 71.7293 29.0517 71.8191C28.7496 71.909 28.4067 71.9539 28.0188 71.9539C27.5616 71.9539 27.186 71.8947 26.89 71.7803C26.5941 71.6639 26.3532 71.4904 26.1736 71.2576C25.9919 71.0268 25.8654 70.7409 25.7919 70.3998C25.7184 70.0609 25.6816 69.6688 25.6816 69.2215V63.2483L26.8819 63.042V65.1148L26.8798 65.1168Z" fill="#414652"/>
<path d="M48.2246 62.8909H49.4779V71.813H48.2246V62.8909Z" fill="#414652"/>
<path d="M51.6192 65.3107C51.8948 65.2413 52.2602 65.1698 52.7174 65.0922C53.1726 65.0146 53.6992 64.9758 54.2932 64.9758C54.828 64.9758 55.2689 65.0514 55.6221 65.2005C55.9752 65.3516 56.2569 65.5619 56.4692 65.8315C56.6815 66.1031 56.8284 66.4258 56.9142 66.8036C56.9999 67.1814 57.0428 67.5979 57.0428 68.0533V71.8129H55.8425V68.3107C55.8425 67.9002 55.814 67.5469 55.7588 67.2549C55.7017 66.9649 55.6098 66.728 55.4812 66.5462C55.3526 66.3645 55.1791 66.2358 54.9648 66.1541C54.7484 66.0725 54.4831 66.0316 54.1646 66.0316C54.036 66.0316 53.9013 66.0357 53.7646 66.0439C53.6258 66.0541 53.4951 66.0622 53.3706 66.0765C53.2461 66.0888 53.1338 66.1051 53.0338 66.1215C52.9338 66.1378 52.8644 66.1521 52.8195 66.1603V71.8129H51.6172V65.3107H51.6192Z" fill="#414652"/>
<path d="M59.0294 65.3107C59.305 65.2413 59.6703 65.1698 60.1276 65.0922C60.5828 65.0146 61.1094 64.9758 61.7034 64.9758C62.2382 64.9758 62.6791 65.0514 63.0322 65.2005C63.3854 65.3516 63.6671 65.5619 63.8793 65.8315C64.0916 66.1031 64.2386 66.4258 64.3243 66.8036C64.4101 67.1814 64.4529 67.5979 64.4529 68.0533V71.8129H63.2506V68.3107C63.2506 67.9002 63.2221 67.5469 63.167 67.2549C63.1118 66.9649 63.0179 66.728 62.8894 66.5462C62.7608 66.3645 62.5872 66.2358 62.3729 66.1541C62.1566 66.0725 61.8912 66.0316 61.5728 66.0316C61.4442 66.0316 61.3094 66.0357 61.1727 66.0439C61.0339 66.0541 60.9032 66.0622 60.7787 66.0765C60.6542 66.0888 60.5419 66.1051 60.4419 66.1215C60.3439 66.1378 60.2725 66.1521 60.2276 66.1603V71.8129H59.0273V65.3107H59.0294Z" fill="#414652"/>
<path d="M72.3676 68.466C72.3676 68.9969 72.29 69.4789 72.1349 69.9077C71.9798 70.3366 71.7634 70.7062 71.4837 71.0145C71.2041 71.3229 70.8693 71.5618 70.4835 71.7293C70.0977 71.8968 69.6752 71.9805 69.218 71.9805C68.7607 71.9805 68.3402 71.8968 67.9524 71.7293C67.5646 71.5618 67.2319 71.3229 66.9522 71.0145C66.6726 70.7062 66.4562 70.3366 66.3011 69.9077C66.1459 69.4789 66.0684 68.9989 66.0684 68.466C66.0684 67.933 66.1459 67.4633 66.3011 67.0303C66.4562 66.5974 66.6726 66.2257 66.9522 65.9174C67.2319 65.609 67.5666 65.3701 67.9524 65.2026C68.3402 65.0351 68.7607 64.9514 69.218 64.9514C69.6752 64.9514 70.0957 65.0351 70.4835 65.2026C70.8714 65.3701 71.2041 65.609 71.4837 65.9174C71.7634 66.2257 71.9798 66.5974 72.1349 67.0303C72.29 67.4633 72.3676 67.9432 72.3676 68.466ZM71.1143 68.466C71.1143 67.7104 70.9449 67.112 70.604 66.6709C70.2631 66.2298 69.8018 66.0072 69.2159 66.0072C68.6301 66.0072 68.1667 66.2278 67.8279 66.6709C67.487 67.112 67.3176 67.7124 67.3176 68.466C67.3176 69.2195 67.487 69.8199 67.8279 70.261C68.1667 70.7021 68.6301 70.9247 69.2159 70.9247C69.8018 70.9247 70.2631 70.7041 70.604 70.261C70.9428 69.8199 71.1143 69.2195 71.1143 68.466Z" fill="#414652"/>
<path d="M79.1193 65.1167C78.7825 66.3706 78.3906 67.5714 77.9375 68.7211C77.4864 69.8708 77.0475 70.9021 76.627 71.8109H75.5431C75.1226 70.9021 74.6858 69.8708 74.2327 68.7211C73.7815 67.5714 73.3855 66.3685 73.0508 65.1167H74.3429C74.447 65.5374 74.5674 65.9866 74.7103 66.4625C74.8512 66.9383 75.0022 67.4121 75.1614 67.8797C75.3206 68.3474 75.4819 68.8007 75.6452 69.2378C75.8085 69.6748 75.9636 70.0669 76.1106 70.4099C76.2575 70.0669 76.4127 69.6768 76.576 69.2378C76.7393 68.8007 76.9005 68.3474 77.0598 67.8797C77.219 67.4121 77.37 66.9403 77.5109 66.4625C77.6517 65.9866 77.7762 65.5374 77.8783 65.1167H79.1193Z" fill="#414652"/>
<path d="M82.5284 64.9495C83.0101 64.9495 83.4184 65.0107 83.7491 65.1353C84.0798 65.2599 84.3472 65.4355 84.5492 65.6642C84.7513 65.8909 84.8942 66.1625 84.982 66.4749C85.0677 66.7894 85.1106 67.1346 85.1106 67.5124V71.6967C85.0065 71.7131 84.8636 71.7376 84.6778 71.7682C84.4921 71.7988 84.2839 71.8274 84.0512 71.8519C83.8185 71.8785 83.5674 71.9009 83.2959 71.9234C83.0244 71.9438 82.755 71.9561 82.4896 71.9561C82.112 71.9561 81.763 71.9173 81.4425 71.8397C81.1241 71.7621 80.8485 71.6416 80.6158 71.4741C80.3851 71.3067 80.2014 71.0861 80.0728 70.8104C79.9442 70.5368 79.8789 70.2059 79.8789 69.82C79.8789 69.434 79.9544 69.1338 80.1055 68.8683C80.2565 68.6008 80.4607 68.3884 80.7199 68.2251C80.9791 68.0617 81.2792 67.9412 81.6242 67.8636C81.9671 67.786 82.3304 67.7472 82.7081 67.7472C82.8285 67.7472 82.953 67.7533 83.0816 67.7656C83.2102 67.7778 83.3327 67.7962 83.449 67.8166C83.5654 67.8371 83.6654 67.8575 83.7532 67.8759C83.8389 67.8922 83.9001 67.9065 83.9348 67.9147V67.5798C83.9348 67.3817 83.9144 67.1877 83.8716 66.9937C83.8287 66.7997 83.7511 66.6301 83.6389 66.479C83.5266 66.3299 83.3735 66.2074 83.1796 66.1176C82.9857 66.0277 82.7346 65.9828 82.4243 65.9828C82.0283 65.9828 81.6813 66.0114 81.3853 66.0665C81.0894 66.1217 80.8669 66.1809 80.7199 66.2401L80.5791 65.2497C80.7342 65.1802 80.9934 65.1149 81.3527 65.0495C81.714 64.9842 82.1059 64.9535 82.5284 64.9535V64.9495ZM82.6325 70.9493C82.9163 70.9493 83.1694 70.9432 83.3878 70.9309C83.6062 70.9187 83.7899 70.8941 83.9369 70.8594V68.8643C83.8511 68.8214 83.7103 68.7846 83.5184 68.756C83.3245 68.7254 83.0898 68.7111 82.8142 68.7111C82.6325 68.7111 82.4427 68.7234 82.2406 68.7499C82.0385 68.7765 81.8528 68.8295 81.6854 68.9112C81.518 68.9929 81.3772 69.1052 81.2669 69.2461C81.1547 69.387 81.0996 69.5749 81.0996 69.8057C81.0996 70.2345 81.2363 70.5327 81.5119 70.7001C81.7875 70.8676 82.161 70.9513 82.6366 70.9513H82.6346L82.6325 70.9493Z" fill="#414652"/>
<path d="M88.2236 65.1168H90.767V66.1216H88.2236V69.2113C88.2236 69.5462 88.2501 69.8219 88.3012 70.0425C88.3522 70.261 88.4298 70.4325 88.5339 70.5571C88.638 70.6817 88.7666 70.7695 88.9217 70.8205C89.0768 70.8716 89.2585 70.8981 89.4647 70.8981C89.826 70.8981 90.1158 70.8573 90.3363 70.7756C90.5547 70.6939 90.7078 70.6367 90.7955 70.602L91.0282 71.5945C90.9078 71.6558 90.6976 71.7293 90.3955 71.8191C90.0934 71.909 89.7504 71.9539 89.3626 71.9539C88.9074 71.9539 88.5298 71.8947 88.2338 71.7803C87.9378 71.6639 87.697 71.4904 87.5173 71.2576C87.3357 71.0268 87.2091 70.7409 87.1356 70.3998C87.0621 70.0609 87.0254 69.6688 87.0254 69.2215V63.2483L88.2256 63.042V65.1148L88.2236 65.1168Z" fill="#414652"/>
<path d="M92.8831 63.9079C92.6667 63.9079 92.4851 63.8364 92.334 63.6955C92.1829 63.5526 92.1074 63.3626 92.1074 63.1217C92.1074 62.8807 92.1829 62.6908 92.334 62.5478C92.4851 62.4049 92.6688 62.3354 92.8831 62.3354C93.0974 62.3354 93.2811 62.4069 93.4322 62.5478C93.5832 62.6887 93.6588 62.8807 93.6588 63.1217C93.6588 63.3626 93.5832 63.5526 93.4322 63.6955C93.2811 63.8364 93.0974 63.9079 92.8831 63.9079ZM93.4893 71.8131H92.287V65.1189H93.4893V71.8131Z" fill="#414652"/>
<path d="M101.481 68.466C101.481 68.9969 101.403 69.4789 101.248 69.9077C101.093 70.3366 100.877 70.7062 100.597 71.0145C100.317 71.3229 99.9826 71.5618 99.5968 71.7293C99.211 71.8968 98.7885 71.9805 98.3313 71.9805C97.874 71.9805 97.4535 71.8968 97.0657 71.7293C96.6779 71.5618 96.3451 71.3229 96.0655 71.0145C95.7859 70.7062 95.5695 70.3366 95.4143 69.9077C95.2592 69.4789 95.1816 68.9989 95.1816 68.466C95.1816 67.933 95.2592 67.4633 95.4143 67.0303C95.5695 66.5974 95.7859 66.2257 96.0655 65.9174C96.3451 65.609 96.6799 65.3701 97.0657 65.2026C97.4535 65.0351 97.874 64.9514 98.3313 64.9514C98.7885 64.9514 99.209 65.0351 99.5968 65.2026C99.9846 65.3701 100.317 65.609 100.597 65.9174C100.877 66.2257 101.093 66.5974 101.248 67.0303C101.403 67.4633 101.481 67.9432 101.481 68.466ZM100.23 68.466C100.23 67.7104 100.06 67.112 99.7193 66.6709C99.3784 66.2298 98.9171 66.0072 98.3313 66.0072C97.7454 66.0072 97.2821 66.2278 96.9432 66.6709C96.6023 67.112 96.4329 67.7124 96.4329 68.466C96.4329 69.2195 96.6023 69.8199 96.9432 70.261C97.2821 70.7021 97.7454 70.9247 98.3313 70.9247C98.9171 70.9247 99.3784 70.7041 99.7193 70.261C100.058 69.8199 100.23 69.2195 100.23 68.466Z" fill="#414652"/>
<path d="M103.174 65.3107C103.449 65.2413 103.815 65.1698 104.272 65.0922C104.727 65.0146 105.254 64.9758 105.848 64.9758C106.383 64.9758 106.824 65.0514 107.177 65.2005C107.53 65.3516 107.812 65.5619 108.024 65.8315C108.236 66.1031 108.383 66.4258 108.469 66.8036C108.555 67.1814 108.597 67.5979 108.597 68.0533V71.8129H107.397V68.3107C107.397 67.9002 107.369 67.5469 107.314 67.2549C107.256 66.9649 107.165 66.728 107.036 66.5462C106.907 66.3645 106.734 66.2358 106.519 66.1541C106.303 66.0725 106.038 66.0316 105.719 66.0316C105.591 66.0316 105.456 66.0357 105.319 66.0439C105.18 66.0541 105.052 66.0622 104.925 66.0765C104.801 66.0888 104.689 66.1051 104.588 66.1215C104.488 66.1378 104.419 66.1521 104.374 66.1603V71.8129H103.172V65.3107H103.174Z" fill="#414652"/>
<path d="M130.141 70.9247C131.449 70.9247 132.102 70.4775 132.102 69.5851C132.102 69.3114 132.043 69.0766 131.929 68.8826C131.812 68.6886 131.655 68.5211 131.457 68.3802C131.259 68.2373 131.033 68.1168 130.78 68.0126C130.526 67.9085 130.257 67.8064 129.973 67.7043C129.647 67.5919 129.336 67.4653 129.045 67.3244C128.753 67.1815 128.497 67.0161 128.283 66.8221C128.067 66.6281 127.897 66.3993 127.773 66.1318C127.648 65.8643 127.585 65.5437 127.585 65.1659C127.585 64.3858 127.852 63.7752 128.385 63.3382C128.92 62.9011 129.655 62.6826 130.594 62.6826C131.137 62.6826 131.629 62.7418 132.074 62.8562C132.517 62.9726 132.843 63.0992 133.047 63.236L132.647 64.253C132.466 64.1407 132.198 64.0325 131.841 63.9242C131.484 63.8181 131.067 63.7629 130.594 63.7629C130.353 63.7629 130.128 63.7895 129.922 63.8405C129.716 63.8916 129.534 63.9692 129.379 64.0713C129.224 64.1754 129.102 64.3061 129.012 64.4634C128.922 64.6227 128.877 64.8085 128.877 65.0229C128.877 65.2639 128.924 65.464 129.018 65.6274C129.112 65.7908 129.247 65.9337 129.418 66.0583C129.59 66.1829 129.79 66.2972 130.018 66.3993C130.247 66.5035 130.498 66.6056 130.773 66.7077C131.161 66.8609 131.516 67.0161 131.839 67.1713C132.161 67.3244 132.441 67.5103 132.678 67.7247C132.915 67.9391 133.096 68.1944 133.227 68.4905C133.356 68.7866 133.421 69.144 133.421 69.5647C133.421 70.3468 133.135 70.9472 132.562 71.3658C131.99 71.7865 131.182 71.9969 130.141 71.9969C129.788 71.9969 129.463 71.9723 129.167 71.9254C128.871 71.8784 128.606 71.8212 128.373 71.7579C128.14 71.6946 127.94 71.6252 127.773 71.5517C127.605 71.4781 127.473 71.4169 127.379 71.3658L127.752 70.3366C127.95 70.4469 128.251 70.5735 128.657 70.7103C129.061 70.8471 129.555 70.9166 130.141 70.9166V70.9247Z" fill="#414652"/>
<path d="M134.479 68.4783C134.479 67.8861 134.564 67.3694 134.738 66.9263C134.909 66.4852 135.138 66.1176 135.422 65.8255C135.705 65.5335 136.032 65.315 136.403 65.168C136.773 65.0209 137.153 64.9495 137.54 64.9495C138.445 64.9495 139.137 65.2313 139.618 65.7929C140.1 66.3545 140.341 67.2122 140.341 68.3619V68.562C140.341 68.6437 140.337 68.7172 140.329 68.7867H135.732C135.783 69.481 135.985 70.0099 136.338 70.3714C136.691 70.7328 137.242 70.9125 137.991 70.9125C138.412 70.9125 138.767 70.8758 139.057 70.8043C139.345 70.7308 139.563 70.6614 139.708 70.5919L139.876 71.5966C139.729 71.6742 139.473 71.7559 139.106 71.8417C138.741 71.9275 138.324 71.9704 137.861 71.9704C137.275 71.9704 136.769 71.8826 136.344 71.7069C135.918 71.5313 135.569 71.2883 135.293 70.9799C135.017 70.6716 134.813 70.304 134.679 69.8792C134.544 69.4544 134.479 68.9888 134.479 68.4824V68.4783ZM139.088 67.8207C139.098 67.2796 138.961 66.8364 138.681 66.4892C138.402 66.1421 138.016 65.9685 137.526 65.9685C137.251 65.9685 137.008 66.0216 136.797 66.1298C136.585 66.2381 136.407 66.3769 136.26 66.5485C136.114 66.72 135.999 66.9181 135.92 67.1407C135.838 67.3653 135.783 67.592 135.758 67.8228H139.09L139.088 67.8207Z" fill="#414652"/>
<path d="M144.549 64.9759C144.653 64.9759 144.769 64.982 144.904 64.9943C145.036 65.0066 145.169 65.0249 145.298 65.0454C145.426 65.0658 145.545 65.0882 145.653 65.1087C145.761 65.1311 145.841 65.1495 145.892 65.1679L145.686 66.2114C145.592 66.1767 145.434 66.1359 145.214 66.0889C144.996 66.0419 144.712 66.0174 144.367 66.0174C144.142 66.0174 143.922 66.0419 143.701 66.0889C143.483 66.1359 143.338 66.1685 143.269 66.1849V71.811H142.066V65.3986C142.35 65.2945 142.703 65.1985 143.126 65.1087C143.546 65.0188 144.022 64.9739 144.547 64.9739L144.549 64.9759Z" fill="#414652"/>
<path d="M152.567 65.1167C152.23 66.3706 151.838 67.5714 151.385 68.7211C150.934 69.8708 150.497 70.9021 150.074 71.8109H148.99C148.57 70.9021 148.131 69.8708 147.68 68.7211C147.229 67.5714 146.835 66.3685 146.498 65.1167H147.79C147.894 65.5374 148.017 65.9866 148.158 66.4625C148.298 66.9383 148.449 67.4121 148.609 67.8797C148.768 68.3474 148.929 68.8007 149.092 69.2378C149.256 69.6748 149.411 70.0669 149.558 70.4099C149.705 70.0669 149.86 69.6768 150.023 69.2378C150.187 68.8007 150.348 68.3474 150.507 67.8797C150.666 67.4121 150.817 66.9403 150.958 66.4625C151.101 65.9866 151.223 65.5374 151.326 65.1167H152.567Z" fill="#414652"/>
<path d="M154.401 63.9079C154.184 63.9079 154.003 63.8364 153.852 63.6955C153.701 63.5526 153.625 63.3626 153.625 63.1217C153.625 62.8807 153.701 62.6908 153.852 62.5478C154.003 62.4049 154.186 62.3354 154.401 62.3354C154.615 62.3354 154.799 62.4069 154.95 62.5478C155.101 62.6887 155.176 62.8807 155.176 63.1217C155.176 63.3626 155.101 63.5526 154.95 63.6955C154.799 63.8364 154.615 63.9079 154.401 63.9079ZM155.007 71.8131H153.805V65.1189H155.007V71.8131Z" fill="#414652"/>
<path d="M159.992 71.9663C159.449 71.9663 158.973 71.8805 158.565 71.709C158.157 71.5374 157.812 71.2965 157.532 70.9881C157.252 70.6797 157.042 70.3121 156.905 69.8874C156.767 69.4626 156.699 68.9929 156.699 68.4783C156.699 67.9637 156.775 67.4919 156.926 67.061C157.077 66.6322 157.289 66.2605 157.565 65.946C157.84 65.6315 158.179 65.3885 158.579 65.2129C158.979 65.0373 159.426 64.9495 159.916 64.9495C160.218 64.9495 160.518 64.976 160.82 65.0271C161.123 65.0781 161.41 65.1598 161.686 65.2721L161.414 66.2891C161.233 66.2033 161.025 66.1359 160.788 66.0829C160.551 66.0318 160.3 66.0053 160.033 66.0053C159.361 66.0053 158.847 66.2156 158.489 66.6363C158.132 67.057 157.953 67.6716 157.953 68.4783C157.953 68.8398 157.993 69.1706 158.075 69.4708C158.157 69.771 158.287 70.0283 158.463 70.2427C158.64 70.4571 158.865 70.6226 159.141 70.739C159.416 70.8554 159.753 70.9125 160.147 70.9125C160.465 70.9125 160.753 70.8819 161.012 70.8227C161.272 70.7635 161.474 70.6981 161.619 70.6287L161.786 71.6334C161.717 71.6763 161.619 71.7171 161.49 71.7559C161.361 71.7947 161.214 71.8295 161.051 71.8601C160.888 71.8907 160.712 71.9152 160.529 71.9377C160.343 71.9581 160.165 71.9704 159.992 71.9704V71.9663Z" fill="#414652"/>
<path d="M162.701 68.4783C162.701 67.8861 162.787 67.3694 162.96 66.9263C163.132 66.4852 163.36 66.1176 163.644 65.8255C163.928 65.5335 164.257 65.315 164.626 65.168C164.996 65.0209 165.375 64.9495 165.763 64.9495C166.667 64.9495 167.359 65.2313 167.841 65.7929C168.323 66.3545 168.564 67.2122 168.564 68.3619V68.562C168.564 68.6437 168.559 68.7172 168.551 68.7867H163.954C164.006 69.481 164.208 70.0099 164.561 70.3714C164.914 70.7328 165.465 70.9125 166.214 70.9125C166.635 70.9125 166.99 70.8758 167.28 70.8043C167.567 70.7308 167.786 70.6614 167.931 70.5919L168.098 71.5966C167.951 71.6742 167.696 71.7559 167.331 71.8417C166.963 71.9275 166.549 71.9704 166.083 71.9704C165.498 71.9704 164.991 71.8826 164.567 71.7069C164.14 71.5313 163.791 71.2883 163.516 70.9799C163.24 70.6716 163.036 70.304 162.901 69.8792C162.766 69.4544 162.701 68.9888 162.701 68.4824V68.4783ZM167.31 67.8207C167.318 67.2796 167.184 66.8364 166.904 66.4892C166.624 66.1421 166.239 65.9685 165.749 65.9685C165.473 65.9685 165.23 66.0216 165.02 66.1298C164.808 66.2381 164.63 66.3769 164.483 66.5485C164.336 66.72 164.222 66.9181 164.142 67.1407C164.061 67.3653 164.006 67.592 163.981 67.8228H167.312L167.31 67.8207Z" fill="#414652"/>
<path d="M38.8238 69.6607C39.5934 69.6607 40.218 69.0379 40.218 68.27C40.218 67.5022 39.5934 66.8813 38.8238 66.8813C38.0543 66.8813 37.4297 67.5042 37.4297 68.27C37.4297 69.0358 38.0543 69.6607 38.8238 69.6607Z" fill="#414652"/>
<path d="M117.978 69.6607C118.748 69.6607 119.372 69.0379 119.372 68.27C119.372 67.5022 118.748 66.8813 117.978 66.8813C117.209 66.8813 116.584 67.5042 116.584 68.27C116.584 69.0358 117.209 69.6607 117.978 69.6607Z" fill="#414652"/>
</g>
</g>
</svg>
