<svg width="217" height="72" viewBox="0 0 217 72" fill="none" xmlns="http://www.w3.org/2000/svg">
<g id="logo / brand / teal / deriv-wordmark vertical-25 years-english">
<g id="logo">
<path d="M69.2592 42.0387C67.7688 40.6284 65.8869 39.4647 63.6117 38.5485C61.3554 37.6413 58.5734 37.0554 55.4666 36.7899L56.8418 32.5562H46.147L42.0232 45.2536C45.6826 45.2536 49.1531 45.4498 51.6902 45.8422C54.2264 46.2337 56.2523 46.7836 57.7688 47.4892C59.2853 48.1948 60.3825 49.057 61.0638 50.0767C61.7433 51.0964 62.0835 52.234 62.0835 53.4877C62.0835 56.4686 61.0899 58.6646 59.1026 60.0758C57.1154 61.487 54.2399 62.1944 50.4752 62.1944C48.5401 62.1944 46.5268 61.9082 44.4361 61.3322C42.3436 60.758 39.5176 59.6996 37.6878 58.6016H3.16353C2.95473 58.9922 2.62532 59.7293 2.43182 60.1325C1.28161 62.5391 0.470704 65.3867 0 68.6817H34.4793C35.5548 69.2118 36.9435 69.5484 38.2 69.9606C39.6373 70.4313 41.1007 70.812 42.5911 71.0982C44.0815 71.3844 45.5332 71.6076 46.9444 71.7651C48.3556 71.9217 49.6112 72 50.7083 72C54.4721 72 57.7931 71.5419 60.6687 70.6275C63.5433 69.7131 65.949 68.4189 67.8849 66.7449C69.819 65.0717 71.2699 63.0323 72.2374 60.6275C73.2049 58.2227 73.6891 55.5559 73.6891 52.6264C73.6891 50.587 73.3219 48.6664 72.5902 46.8619C71.8576 45.0573 70.7478 43.4508 69.2574 42.0378L69.2592 42.036V42.0387Z" fill="#00F1F1"/>
<path d="M50.9243 17.8699L47.6465 27.95L77.3962 27.9446L80.6723 17.8699H50.9243Z" fill="#00F1F1"/>
<path d="M42.5695 22.3222C41.8369 20.7544 40.8055 19.3801 39.4717 18.2056C38.1388 17.0293 36.571 16.1014 34.7664 15.4219C32.9619 14.7424 31.0134 14.4022 28.9227 14.4022C25.5765 14.4022 22.2752 14.764 19.1972 15.97C13.9843 18.0148 10.0369 21.5113 10.0369 21.5113L13.7854 29.93C16.1903 28.1003 18.4124 26.7278 20.4509 25.8134C22.4903 24.899 24.581 24.4409 26.7249 24.4409C28.2414 24.4409 29.4825 24.899 30.45 25.8134C31.4175 26.7296 31.9017 27.8672 31.9017 29.2244C31.9017 30.3233 31.6668 31.3682 31.1961 32.3618C30.7254 33.3555 29.9811 34.4157 28.9614 35.5389C27.9417 36.6639 26.6088 37.8915 24.9608 39.2253C23.3138 40.5591 21.3131 42.1413 18.9605 43.9701C16.4504 45.9052 14.1238 47.7232 11.9791 49.4206C10.1746 50.8507 8.17029 52.3798 6.68168 53.9953H21.0809C21.5075 53.6542 21.9359 53.3185 22.3715 52.99C23.7566 51.9442 25.1679 50.9254 26.607 49.9318C28.0443 48.94 29.4699 47.8924 30.8811 46.7944C33.2859 44.9124 35.3118 43.2132 36.9598 41.6967C38.6068 40.1802 39.9253 38.6898 40.9207 37.2255C41.9125 35.7621 42.6181 34.2447 43.0393 32.6768C43.4569 31.109 43.6675 29.3315 43.6675 27.3434C43.6675 25.5668 43.3003 23.8919 42.5686 22.3231L42.5704 22.3213L42.5695 22.3222Z" fill="#00F1F1"/>
<path d="M98.7975 56.87C100.206 54.6451 101.486 52.3366 102.637 49.9453C103.786 47.553 104.797 45.2634 105.668 43.0746C106.539 40.8876 107.272 38.8752 107.866 37.0401C108.459 35.2041 108.886 33.7307 109.146 32.6174H114.541C114.133 34.0268 113.558 35.7801 112.818 37.8735C112.076 39.9687 111.176 42.2304 110.12 44.6595C109.063 47.0887 107.876 49.5745 106.56 52.1134C105.244 54.6532 103.807 57.0913 102.249 59.4287C101.063 61.1729 99.8757 62.8127 98.6904 64.3517C97.5042 65.8898 96.2334 67.2245 94.8798 68.3567C93.5261 69.4872 92.033 70.3773 90.4013 71.0262C88.7687 71.6742 86.9336 71.9991 84.8951 71.9991C83.8565 71.9991 82.8917 71.8677 82.0024 71.6112C81.1123 71.352 80.4643 71.073 80.0557 70.7778L81.8359 66.5495C82.2077 66.8465 82.7072 67.0967 83.3381 67.3001C83.969 67.5035 84.6728 67.607 85.4522 67.607C87.6023 67.607 89.4293 67.0868 90.9314 66.0491C92.4335 65.0114 93.852 63.6389 95.1867 61.9325C93.8142 57.4451 92.6927 52.7182 91.8215 47.7484C90.9503 42.7785 90.422 37.7367 90.2357 32.6192H95.5206C95.5566 34.2878 95.6502 36.1158 95.7987 38.0985C95.9472 40.083 96.1605 42.1395 96.4377 44.2725C96.7158 46.4055 97.0497 48.5476 97.4385 50.6977C97.8273 52.8487 98.2809 54.907 98.8002 56.8726V56.8709L98.7975 56.87Z" fill="#00F1F1"/>
<path d="M126.388 62.2655C124.497 62.2655 122.865 61.9964 121.494 61.4591C120.121 60.9218 118.971 60.1793 118.045 59.2343C117.118 58.2884 116.432 57.185 115.988 55.925C115.543 54.665 115.32 53.3302 115.32 51.9199C115.32 49.3252 115.709 46.8232 116.488 44.4111C117.268 42.0009 118.379 39.8697 119.826 38.0148C121.272 36.1617 123.033 34.6866 125.111 33.5921C127.186 32.4995 129.541 31.9505 132.175 31.9505C133.696 31.9505 135.002 32.1449 136.097 32.5355C137.189 32.9243 138.079 33.4527 138.766 34.1214C139.452 34.7892 139.961 35.5587 140.295 36.4299C140.629 37.3011 140.795 38.2011 140.795 39.1281C140.795 40.8723 140.48 42.3447 139.849 43.5508C139.218 44.7559 138.383 45.7666 137.346 46.582C136.307 47.3974 135.094 48.0274 133.703 48.472C132.311 48.9166 130.866 49.2694 129.364 49.5286C127.862 49.7878 126.341 49.9651 124.802 50.0569C123.263 50.1505 121.807 50.2342 120.436 50.3071C120.399 50.6041 120.381 50.8453 120.381 51.0298V51.4744C120.381 52.3285 120.483 53.1349 120.688 53.8954C120.891 54.656 121.271 55.3229 121.828 55.8989C122.384 56.4731 123.154 56.9267 124.136 57.2615C125.118 57.5954 126.407 57.7628 128.002 57.7628C128.706 57.7628 129.439 57.698 130.2 57.5684C130.96 57.4388 131.683 57.2714 132.369 57.0689C133.055 56.8655 133.667 56.6612 134.205 56.4569C134.742 56.2535 135.122 56.0591 135.345 55.8719L135.79 60.2666C135.048 60.6752 133.851 61.1108 132.202 61.5743C130.552 62.0378 128.615 62.27 126.39 62.27V62.2655H126.388ZM121.103 46.357C123.253 46.2832 125.219 46.1437 126.999 45.9394C128.78 45.736 130.317 45.3832 131.616 44.8827C132.914 44.3814 133.925 43.7065 134.648 42.8523C135.37 42 135.732 40.8867 135.732 39.5142C135.732 39.1803 135.667 38.8284 135.538 38.4576C135.406 38.0877 135.185 37.743 134.87 37.428C134.555 37.113 134.119 36.8538 133.562 36.6486C133.006 36.4452 132.319 36.3417 131.505 36.3417C130.206 36.3417 128.992 36.6198 127.862 37.1769C126.73 37.7331 125.721 38.4657 124.831 39.3747C123.941 40.2837 123.181 41.3403 122.551 42.5454C121.92 43.7505 121.437 45.0205 121.105 46.3561V46.3579L121.103 46.357Z" fill="#00F1F1"/>
<path d="M162.599 61.8749C162.414 61.4672 162.227 61.0127 162.042 60.5123C161.857 60.011 161.708 59.4827 161.597 58.9265C160.781 59.6681 159.687 60.4097 158.316 61.1513C156.943 61.8929 155.257 62.2646 153.255 62.2646C151.623 62.2646 150.224 62.0054 149.055 61.4852C147.887 60.9668 146.931 60.2441 146.191 59.3153C145.448 58.3892 144.902 57.2948 144.551 56.0339C144.198 54.7738 144.023 53.3824 144.023 51.8632C144.023 49.3792 144.441 46.9501 145.274 44.5768C146.107 42.2034 147.36 40.0893 149.03 38.2353C150.698 36.3804 152.793 34.8783 155.315 33.7299C157.836 32.5805 160.784 32.0063 164.159 32.0063C165.16 32.0063 166.329 32.117 167.663 32.3402C168.998 32.5634 170.147 32.9333 171.112 33.4535L166.83 50.9191C166.645 51.7732 166.486 52.5877 166.358 53.3662C166.226 54.1456 166.163 54.9619 166.163 55.8142C166.163 56.6665 166.237 57.5297 166.386 58.4009C166.535 59.2721 166.794 60.2081 167.166 61.2107L162.605 61.8785L162.601 61.8758L162.599 61.8749ZM154.311 57.8708C155.868 57.8708 157.202 57.5369 158.315 56.87C159.428 56.2022 160.391 55.4245 161.208 54.5344C161.244 53.9053 161.31 53.2456 161.402 52.5607C161.494 51.8749 161.615 51.1801 161.764 50.4754L165.102 36.6801C164.917 36.6063 164.611 36.5505 164.185 36.5127C163.757 36.4767 163.379 36.4569 163.045 36.4569C160.93 36.4569 159.02 36.8655 157.315 37.6809C155.61 38.4972 154.153 39.5817 152.948 40.9353C151.743 42.2889 150.815 43.8658 150.167 45.6631C149.517 47.4631 149.193 49.3441 149.193 51.3097C149.193 52.0891 149.267 52.8757 149.417 53.6731C149.565 54.4705 149.834 55.1753 150.223 55.7873C150.612 56.3993 151.13 56.8988 151.781 57.2894C152.429 57.6782 153.273 57.8744 154.313 57.8744L154.311 57.8708Z" fill="#00F1F1"/>
<path d="M189.633 32.0054C190.077 32.0054 190.579 32.0243 191.135 32.0612C191.691 32.099 192.237 32.1638 192.775 32.2556C193.313 32.3492 193.803 32.441 194.249 32.5337C194.693 32.6273 195.028 32.7281 195.25 32.8406L193.747 37.3461C193.004 37.0491 192.153 36.8277 191.19 36.6783C190.225 36.5298 189.298 36.4551 188.408 36.4551C187.628 36.4551 186.858 36.5108 186.099 36.6224C185.339 36.7331 184.681 36.8817 184.125 37.0671L178.228 61.5419H173.055L179.73 33.7289C181.213 33.2105 182.807 32.7929 184.513 32.4779C186.218 32.1629 187.924 32.0054 189.631 32.0054H189.633Z" fill="#00F1F1"/>
<path d="M200.979 57.9266C201.758 57.9266 202.544 57.8528 203.342 57.7034C204.14 57.5549 204.844 57.3146 205.457 56.9807C206.069 56.6468 206.568 56.1932 206.959 55.6171C207.347 55.0429 207.542 54.3301 207.542 53.476C207.542 52.9198 207.45 52.4293 207.264 52.0018C207.078 51.5752 206.781 51.1765 206.374 50.8066C205.965 50.4367 205.457 50.0749 204.845 49.7221C204.232 49.3693 203.5 48.9706 202.647 48.5269C201.793 48.1192 201.015 47.7115 200.311 47.3029C199.606 46.8952 198.985 46.4128 198.448 45.8557C197.91 45.2995 197.492 44.6425 197.197 43.882C196.9 43.1214 196.753 42.2043 196.753 41.1288C196.753 38.3469 197.753 36.1131 199.757 34.4256C201.758 32.738 204.67 31.8938 208.49 31.8938C210.271 31.8938 211.837 32.0711 213.19 32.4221C214.544 32.7749 215.48 33.099 216 33.396L214.053 37.6242C213.533 37.3272 212.7 37.0122 211.55 36.6783C210.4 36.3444 209.121 36.177 207.713 36.177C207.007 36.177 206.303 36.2517 205.599 36.4002C204.893 36.5487 204.254 36.7989 203.679 37.1508C203.105 37.5036 202.64 37.9671 202.288 38.5422C201.935 39.1182 201.759 39.8139 201.759 40.6284C201.759 41.6292 202.15 42.4554 202.928 43.1034C203.708 43.7532 204.875 44.43 206.432 45.133C207.395 45.5776 208.258 46.033 209.019 46.4956C209.779 46.9591 210.427 47.4793 210.965 48.0535C211.503 48.6295 211.911 49.3045 212.189 50.0839C212.468 50.8633 212.607 51.7903 212.607 52.8658C212.607 54.4238 212.309 55.7963 211.717 56.9816C211.124 58.1678 210.299 59.1506 209.242 59.9291C208.185 60.7085 206.933 61.2926 205.488 61.6814C204.043 62.072 202.466 62.2664 200.76 62.2664C199.498 62.2664 198.358 62.1827 197.338 62.0162C196.318 61.8488 195.428 61.6544 194.669 61.433C193.908 61.2098 193.278 60.9794 192.777 60.7373C192.278 60.497 191.897 60.3008 191.638 60.1523L193.64 55.9241C193.899 56.0726 194.261 56.258 194.725 56.4803C195.188 56.7035 195.744 56.9249 196.393 57.1481C197.041 57.3713 197.756 57.5567 198.535 57.7043C199.314 57.8528 200.128 57.9275 200.983 57.9275H200.981L200.979 57.9266Z" fill="#00F1F1"/>
<path d="M101.328 0.565452L100.407 5.79271H97.2072C94.2219 5.79271 91.3769 8.21011 90.8495 11.1972L90.6263 12.4672C90.1007 15.4516 92.0934 17.8708 95.0787 17.8708H97.7472C99.9234 17.8708 101.995 16.1095 102.379 13.9342L104.837 0.00024414L101.33 0.564551L101.328 0.565452ZM99.0594 13.4401C98.9415 14.1124 98.3367 14.6596 97.6644 14.6596H96.0426C94.7007 14.6596 93.8034 13.5706 94.0383 12.226L94.1778 11.434C94.4154 10.092 95.6952 9.00033 97.038 9.00033H99.8415L99.0594 13.4401ZM125.972 17.869L128.072 5.95829H131.393L129.293 17.869H125.97H125.972ZM126.331 6.096C126.163 7.04101 125.997 7.98511 125.831 8.93012C124.257 8.44052 122.634 8.59713 122.135 8.69523C121.597 11.7535 121.057 14.8135 120.517 17.8717H117.194C117.645 15.3139 119.186 6.57301 119.186 6.57301C120.268 6.1248 122.921 5.21759 126.331 6.096ZM112.866 5.7891H110.281C107.762 5.7891 105.361 7.82941 104.918 10.3494L104.395 13.3105C103.951 15.8296 105.631 17.8699 108.149 17.8699H113.649L114.213 14.6695H109.045C108.205 14.6695 107.644 13.99 107.794 13.1485L107.811 13.0477H116.144L116.619 10.3494C117.063 7.83122 115.383 5.7891 112.864 5.7891H112.866ZM113.284 10.0947L113.264 10.2657H108.309L108.336 10.1127C108.485 9.27304 109.25 8.53593 110.093 8.53593H112.028C112.86 8.53593 113.422 9.26132 113.283 10.0938L113.284 10.0947ZM144.352 5.95829C143.22 8.96792 140.625 14.089 138.112 17.869H134.789C133.635 14.2708 132.89 9.25682 132.749 5.95829H136.072C136.133 7.0338 136.614 11.0271 137.164 13.8154C138.671 11.1027 140.334 7.54231 141.027 5.95829H144.352Z" fill="#00F1F1"/>
</g>
</g>
</svg>
