<svg width="197" height="36" viewBox="0 0 197 36" fill="none" xmlns="http://www.w3.org/2000/svg">
<g id="logo / partners product / black / deriv mt5-wordmark">
<g id="wordmark">
<path fill-rule="evenodd" clip-rule="evenodd" d="M20.739 1.08392L18.9667 11.1348H12.8146C7.07515 11.1348 1.60449 15.7849 0.59054 21.5245L0.161365 23.9674C-0.847863 29.707 2.98158 34.3572 8.72108 34.3572H13.8522C18.0354 34.3572 22.0204 30.9709 22.7562 26.7878L27.4817 0L20.739 1.08392ZM16.3738 25.8398C16.1474 27.132 14.984 28.1838 13.6918 28.1838H10.5745C7.9948 28.1838 6.26872 26.0897 6.72144 23.5053L6.99028 21.982C7.44772 19.4022 9.90952 17.3035 12.4892 17.3035H17.879L16.3738 25.8398Z" fill="#414652"/>
<path d="M68.1179 34.3589H74.5034L78.5404 11.4572H72.1549L68.1179 34.3589Z" fill="#414652"/>
<path d="M68.3306 14.4427L68.3315 14.4375C68.4914 13.532 68.6513 12.6265 68.8108 11.721C62.2586 10.0327 57.155 11.7793 55.0768 12.6399C55.0768 12.6399 52.1123 29.4439 51.2446 34.3643H57.6344C58.6714 28.4837 59.7084 22.6017 60.7439 16.7211C61.7029 16.5299 64.8241 16.2305 67.8492 17.1706C68.0094 16.2613 68.17 15.352 68.3306 14.4427Z" fill="#414652"/>
<path fill-rule="evenodd" clip-rule="evenodd" d="M42.9138 11.1325H37.9477C33.1043 11.1325 28.4874 15.0563 27.6337 19.8998L26.6292 25.5922C25.7755 30.4356 29.0062 34.3596 33.8496 34.3596H44.423L45.5078 28.205H35.5708C33.958 28.205 32.8779 26.8986 33.1657 25.2809L33.1987 25.0876H49.2193L50.1342 19.8998C50.9876 15.0563 47.7572 11.1325 42.9138 11.1325ZM43.7249 19.4093L43.6872 19.7394H34.1609L34.2127 19.4471C34.5002 17.8341 35.9718 16.4146 37.5892 16.4146H41.3103C42.9091 16.4146 43.9892 17.8106 43.7249 19.4093Z" fill="#414652"/>
<path d="M89.6385 26.5628C92.5379 21.3467 95.7343 14.5031 97.0662 11.4572H103.461C101.284 17.2446 96.2959 27.0896 91.4635 34.3589H85.0733C82.8551 27.4403 81.4227 17.8004 81.1494 11.4572H87.5398C87.6551 13.5263 88.5814 21.2011 89.6385 26.5628Z" fill="#414652"/>
<path d="M127.056 29.7371C126.736 28.9691 126.304 27.9931 125.76 26.8091C125.248 25.6251 124.688 24.3451 124.08 22.9691C123.472 21.5931 122.816 20.1851 122.112 18.7451C121.44 17.2731 120.8 15.8971 120.192 14.6171C119.584 13.3051 119.008 12.1371 118.464 11.1131C117.952 10.0891 117.536 9.30509 117.216 8.76109C116.864 12.5371 116.576 16.6331 116.352 21.0491C116.128 25.4331 115.936 29.8651 115.776 34.3451H111.216C111.344 31.4651 111.488 28.5691 111.648 25.6571C111.808 22.7131 111.984 19.8331 112.176 17.0171C112.4 14.1691 112.624 11.4011 112.848 8.71309C113.104 6.02509 113.376 3.48109 113.664 1.08109H117.744C118.608 2.48909 119.536 4.15309 120.528 6.07309C121.52 7.99309 122.512 10.0091 123.504 12.1211C124.496 14.2011 125.456 16.2971 126.384 18.4091C127.312 20.4891 128.16 22.3931 128.928 24.1211C129.696 22.3931 130.544 20.4891 131.472 18.4091C132.4 16.2971 133.36 14.2011 134.352 12.1211C135.344 10.0091 136.336 7.99309 137.328 6.07309C138.32 4.15309 139.248 2.48909 140.112 1.08109H144.192C145.28 11.8011 146.096 22.8891 146.64 34.3451H142.08C141.92 29.8651 141.728 25.4331 141.504 21.0491C141.28 16.6331 140.992 12.5371 140.64 8.76109C140.32 9.30509 139.888 10.0891 139.344 11.1131C138.832 12.1371 138.272 13.3051 137.664 14.6171C137.056 15.8971 136.4 17.2731 135.696 18.7451C135.024 20.1851 134.384 21.5931 133.776 22.9691C133.168 24.3451 132.592 25.6251 132.048 26.8091C131.536 27.9931 131.12 28.9691 130.8 29.7371H127.056Z" fill="#414652"/>
<path d="M174.245 1.08109V5.11309H163.781V34.3451H159.124V5.11309H148.661V1.08109H174.245Z" fill="#414652"/>
<path d="M182.665 13.8971C187.497 14.0891 191.033 15.1451 193.273 17.0651C195.545 18.9851 196.681 21.5931 196.681 24.8891C196.681 26.3611 196.425 27.7211 195.913 28.9691C195.433 30.2171 194.681 31.2891 193.657 32.1851C192.665 33.0811 191.401 33.7851 189.865 34.2971C188.329 34.8091 186.505 35.0651 184.393 35.0651C183.561 35.0651 182.713 35.0011 181.849 34.8731C180.985 34.7451 180.185 34.5851 179.449 34.3931C178.713 34.2011 178.057 34.0091 177.481 33.8171C176.905 33.6251 176.489 33.4651 176.233 33.3371L177.097 29.4491C177.641 29.7051 178.521 30.0411 179.737 30.4571C180.985 30.8731 182.505 31.0811 184.297 31.0811C185.737 31.0811 186.937 30.9211 187.897 30.6011C188.889 30.2811 189.689 29.8491 190.297 29.3051C190.905 28.7611 191.337 28.1371 191.593 27.4331C191.881 26.6971 192.025 25.9291 192.025 25.1291C192.025 23.9131 191.817 22.8411 191.401 21.9131C190.985 20.9531 190.249 20.1531 189.193 19.5131C188.137 18.8731 186.729 18.3931 184.969 18.0731C183.209 17.7211 180.985 17.5451 178.297 17.5451C178.489 15.9771 178.633 14.5051 178.729 13.1291C178.857 11.7531 178.969 10.4091 179.065 9.09709C179.161 7.78509 179.241 6.48909 179.305 5.20909C179.369 3.89709 179.433 2.52109 179.497 1.08109H195.529V4.87309H183.385C183.353 5.35309 183.305 6.00909 183.241 6.84109C183.177 7.64109 183.113 8.48909 183.049 9.38509C182.985 10.2491 182.921 11.0971 182.857 11.9291C182.793 12.7611 182.729 13.4171 182.665 13.8971Z" fill="#414652"/>
</g>
</g>
</svg>
