<svg width="215" height="72" viewBox="0 0 215 72" fill="none" xmlns="http://www.w3.org/2000/svg">
<g id="logo / brand / teal / deriv-25 years-french">
<g id="logo">
<path d="M86.5752 34.547C84.7128 32.7827 82.3599 31.329 79.5154 30.184C76.6953 29.0498 73.2172 28.3171 69.3349 27.9858L71.0532 22.6938H57.6844L52.5293 38.5662C57.1029 38.5662 61.4416 38.8111 64.6128 39.3026C67.783 39.7922 70.3151 40.48 72.2108 41.3621C74.1065 42.2442 75.4774 43.3227 76.3289 44.5964C77.1787 45.871 77.6036 47.2923 77.6036 48.8604C77.6036 52.5862 76.3614 55.3316 73.877 57.095C71.3935 58.8593 67.7984 59.7433 63.0933 59.7433C60.6747 59.7433 58.1579 59.385 55.5448 58.6649C52.929 57.9466 49.3959 56.6233 47.1078 55.2524H3.9543C3.69326 55.7403 3.281 56.662 3.03976 57.1652C1.60134 60.1735 0.58779 63.7336 0 67.8528H43.0995C44.4443 68.5144 46.1788 68.9357 47.7505 69.4514C49.5472 70.0401 51.3771 70.5145 53.2404 70.8728C55.1037 71.231 56.9175 71.5101 58.6818 71.7063C60.446 71.9026 62.0159 71.9997 63.3877 71.9997C68.0927 71.9997 72.2432 71.4273 75.8375 70.2841C79.4308 69.1409 82.4382 67.5233 84.8578 65.4313C87.2746 63.3394 89.0893 60.7911 90.2991 57.7854C91.508 54.7789 92.1138 51.4456 92.1138 47.7847C92.1138 45.2364 91.6547 42.8348 90.7401 40.579C89.8238 38.3232 88.4358 36.3149 86.5725 34.5488L86.5752 34.547Z" fill="#00F1F1"/>
<path d="M63.6577 4.3333L59.5612 16.9337L96.7495 16.9265L100.844 4.3333H63.6577Z" fill="#00F1F1"/>
<path d="M53.2134 9.8999C52.2971 7.93936 51.0081 6.22277 49.3419 4.75372C47.6749 3.28287 45.7153 2.12348 43.4595 1.27463C41.2038 0.424887 38.7689 0 36.1549 0C31.972 0 27.8458 0.451902 23.9977 1.96056C17.4816 4.517 12.5479 8.88722 12.5479 8.88722L17.2331 19.4118C20.2396 17.1236 23.0165 15.4088 25.5657 14.2656C28.1149 13.1225 30.728 12.5499 33.4086 12.5499C35.3043 12.5499 36.8552 13.1225 38.065 14.2656C39.2748 15.4106 39.8797 16.8329 39.8797 18.5297C39.8797 19.9033 39.5862 21.2103 38.9976 22.4517C38.4089 23.6939 37.4781 25.0189 36.2035 26.4223C34.9289 27.8283 33.2619 29.364 31.2033 31.0301C29.1438 32.6972 26.6441 34.6748 23.7024 36.9612C20.5645 39.3809 17.6562 41.652 14.9756 43.7745C12.7198 45.5623 10.2148 47.4742 8.35328 49.4932H26.3533C26.8862 49.0665 27.4227 48.647 27.9664 48.2375C29.6982 46.9305 31.4616 45.6558 33.2601 44.4136C35.0568 43.1732 36.8381 41.8644 38.6024 40.4907C41.6089 38.1377 44.1409 36.0143 46.2005 34.1186C48.26 32.2229 49.9081 30.3604 51.1521 28.5295C52.3925 26.7004 53.2746 24.8038 53.8003 22.8432C54.3224 20.8827 54.5852 18.662 54.5852 16.1758C54.5852 13.9542 54.1262 11.8614 53.2116 9.90082L53.2134 9.8999Z" fill="#00F1F1"/>
<path d="M135.75 59.2513C135.518 58.7436 135.287 58.1765 135.057 57.5527C134.825 56.9289 134.641 56.27 134.502 55.5769C133.485 56.5022 132.122 57.4258 130.413 58.3494C128.703 59.2729 126.601 59.7356 124.106 59.7356C122.072 59.7356 120.328 59.4115 118.872 58.7652C117.417 58.1189 116.227 57.2179 115.303 56.0621C114.378 54.9072 113.697 53.5443 113.257 51.9727C112.818 50.4019 112.599 48.6691 112.599 46.7743C112.599 43.6786 113.119 40.6514 114.159 37.6944C115.199 34.7374 116.759 32.1036 118.838 29.7929C120.918 27.4831 123.528 25.6116 126.67 24.1786C129.812 22.7465 133.485 22.0299 137.691 22.0299C138.938 22.0299 140.394 22.1686 142.057 22.4458C143.721 22.723 145.153 23.1857 146.355 23.832L141.018 45.5969C140.786 46.6609 140.59 47.6762 140.429 48.6466C140.267 49.617 140.186 50.6342 140.186 51.6963C140.186 52.7585 140.278 53.8342 140.463 54.9198C140.648 56.0062 140.971 57.1729 141.434 58.4205L135.75 59.2513ZM125.422 54.2609C127.363 54.2609 129.026 53.845 130.412 53.0133C131.798 52.1815 132.999 51.2111 134.016 50.1021C134.061 49.3172 134.143 48.4972 134.259 47.6411C134.375 46.7869 134.525 45.92 134.71 45.0415L138.868 27.8512C138.637 27.7594 138.255 27.6901 137.724 27.6433C137.192 27.5983 136.719 27.574 136.303 27.574C133.669 27.574 131.288 28.0826 129.164 29.0989C127.038 30.116 125.224 31.4671 123.722 33.154C122.22 34.8409 121.064 36.8051 120.257 39.0456C119.448 41.2879 119.044 43.6318 119.044 46.0811C119.044 47.0515 119.136 48.0336 119.322 49.0273C119.506 50.0211 119.841 50.8988 120.327 51.6612C120.813 52.4237 121.459 53.0475 122.268 53.5326C123.076 54.0178 124.127 54.2609 125.422 54.2609Z" fill="#00F1F1"/>
<path d="M148.781 58.8354L157.099 24.1777C159.224 23.5314 161.523 23.0111 163.995 22.6177C166.467 22.2253 168.674 22.029 170.615 22.029C172.694 22.029 174.485 22.318 175.987 22.8959C177.488 23.4738 178.701 24.2596 179.626 25.2525C180.55 26.2463 181.231 27.4479 181.671 28.8567C182.109 30.2672 182.329 31.8029 182.329 33.4664C182.329 34.5295 182.237 35.6501 182.052 36.8284C181.867 38.0067 181.636 39.1968 181.359 40.3985L176.923 58.8363H170.477L174.567 41.7847C174.89 40.4912 175.201 39.1743 175.503 37.8339C175.803 36.4945 175.953 35.2235 175.953 34.0218C175.953 32.1738 175.444 30.6372 174.428 29.4121C173.411 28.1879 171.517 27.5749 168.745 27.5749C167.589 27.5749 166.457 27.6442 165.348 27.7828C164.239 27.9214 163.315 28.1069 162.576 28.3373L155.229 58.8354H148.781Z" fill="#00F1F1"/>
<path d="M195.984 54.3302C196.954 54.3302 197.935 54.2383 198.93 54.0529C199.923 53.8684 200.801 53.5678 201.564 53.1519C202.326 52.736 202.95 52.1707 203.435 51.4533C203.92 50.7377 204.163 49.8483 204.163 48.7843C204.163 48.0912 204.047 47.4791 203.817 46.948C203.584 46.4169 203.215 45.92 202.708 45.4574C202.198 44.9965 201.564 44.5455 200.801 44.1053C200.039 43.667 199.126 43.17 198.063 42.6155C196.999 42.1079 196.029 41.5993 195.152 41.0907C194.273 40.583 193.499 39.9817 192.83 39.2886C192.159 38.5955 191.64 37.7754 191.27 36.8276C190.899 35.8806 190.715 34.7374 190.715 33.3962C190.715 29.9306 191.963 27.1473 194.458 25.0436C196.953 22.9418 200.58 21.8895 205.34 21.8895C207.558 21.8895 209.509 22.1091 211.197 22.5475C212.883 22.9877 214.05 23.3909 214.698 23.7609L212.272 29.0286C211.625 28.6596 210.584 28.2662 209.153 27.8503C207.72 27.4345 206.126 27.2265 204.37 27.2265C203.492 27.2265 202.613 27.3192 201.737 27.5038C200.858 27.6892 200.061 28.0007 199.345 28.439C198.628 28.8783 198.05 29.4562 197.612 30.1718C197.173 30.8884 196.953 31.7552 196.953 32.7715C196.953 34.0191 197.438 35.048 198.409 35.8563C199.379 36.6655 200.835 37.509 202.775 38.3866C203.976 38.9411 205.051 39.5073 205.999 40.0852C206.946 40.664 207.754 41.3103 208.425 42.026C209.094 42.7425 209.603 43.5859 209.949 44.5563C210.296 45.5267 210.47 46.6824 210.47 48.0219C210.47 49.9626 210.099 51.6729 209.361 53.151C208.621 54.6308 207.593 55.8541 206.276 56.8245C204.959 57.7949 203.399 58.5231 201.597 59.0083C199.795 59.4935 197.83 59.7365 195.706 59.7365C194.134 59.7365 192.714 59.6321 191.443 59.4251C190.172 59.2171 189.062 58.974 188.116 58.6968C187.168 58.4196 186.383 58.1315 185.759 57.8309C185.135 57.5311 184.661 57.2881 184.338 57.1026L186.833 51.8349C187.156 52.0204 187.606 52.2508 188.185 52.5281C188.762 52.8053 189.455 53.0826 190.264 53.3598C191.073 53.6371 191.963 53.8693 192.933 54.0529C193.904 54.2383 194.921 54.3302 195.984 54.3302Z" fill="#00F1F1"/>
</g>
</g>
</svg>
