<svg width="128" height="80" viewBox="0 0 128 80" fill="none" xmlns="http://www.w3.org/2000/svg">
<g id="logo / payment method / mifinity / brand">
<g id="logo">
<path d="M101.693 19.6241C101.82 19.7963 101.936 19.9757 102.043 20.1613C101.761 18.974 101.328 17.8277 100.755 16.7504C96.0309 8.0897 82.9048 10.6819 69.81 20.491C66.3593 23.0697 63.2605 26.0883 60.5921 29.4701C62.2208 30.3541 63.696 31.6019 65.12 32.6649C65.9918 33.3012 66.9161 33.8622 67.8828 34.3419C68.7128 33.3812 69.5741 32.4318 70.4779 31.4995C82.1431 19.4791 96.9888 13.3623 101.693 19.6241Z" fill="url(#paint0_linear_499_620)"/>
<path d="M65.9499 29.561C64.739 28.5406 63.514 27.5714 62.3827 26.4742C60.1097 29.1572 57.6002 31.6306 54.8845 33.8644C43.2023 43.5285 30.6163 46.7148 26.7734 41.0073C26.7137 40.9192 26.6597 40.8254 26.6057 40.7231C25.8769 39.6431 25.3287 38.4517 24.9827 37.1957C24.3439 34.787 24.3862 32.2483 25.1049 29.8623C23.3256 33.4693 22.831 37.0393 23.9537 40.0949C26.9439 48.1587 40.1866 49.5174 53.5401 43.1277C59.762 40.1517 64.9096 36.0218 68.3204 31.6331C67.5302 30.9396 66.7656 30.2375 65.9499 29.561Z" fill="url(#paint1_linear_499_620)"/>
<path d="M37.6427 17.5065C37.0174 17.5564 36.4002 17.6795 35.8037 17.8732L35.8406 17.9613L35.7326 17.9101C33.1546 19.7463 33.0693 19.7577 35.8378 17.9613C34.2122 18.9723 32.689 20.1394 31.29 21.446C29.0107 23.6521 27.0762 26.1884 25.5512 28.9698C25.392 29.2541 25.2357 29.561 25.0907 29.8595C24.372 32.2455 24.3297 34.7842 24.9685 37.1928C25.3161 38.4534 25.8672 39.6487 26.6 40.7316C25.6032 38.9619 25.0675 36.9698 25.0424 34.9388C25.0907 29.8595 29.3913 23.1429 32.3075 20.6331C33.959 19.2119 35.5109 18.669 36.8838 18.5497C37.0751 18.161 37.3318 17.8081 37.6427 17.5065Z" fill="url(#paint2_linear_499_620)"/>
<path d="M48.7847 38.3582C54.2563 34.9473 59.185 30.2773 60.7227 28.2877L61.6095 27.3184C62.3031 26.6646 63.1643 25.3287 63.8465 24.7006C65.5889 23.7967 68.832 21.5285 72.2287 19.2716C73.6897 18.3024 75.1592 17.3502 75.9891 16.9011L79.9685 23.4982C77.4814 25.1127 71.1116 30.4876 68.8633 32.4034C68.1527 33.006 68.9997 31.6814 68.3346 32.3068L63.5708 36.5703C60.2954 39.3445 57.4412 41.3375 53.5401 43.1277L48.7847 38.3582Z" fill="url(#paint3_linear_499_620)" fill-opacity="0.49" style="mix-blend-mode:multiply"/>
<path d="M99.8624 15.4401C109.583 33.8303 87.4639 42.4683 75.8585 29.7742C70.9696 23.6318 70.4295 20.5649 67.3768 17.4354C54.3388 4.76127 35.5422 12.6375 25.7729 28.5207C27.069 26.9659 35.329 17.5463 47.3352 19.0471C56.6156 20.2068 58.1362 32.0879 71.8649 39.1001C87.444 47.0587 115.456 36.2861 99.8624 15.4401Z" fill="url(#paint4_linear_499_620)"/>
<path d="M72.2798 38.6282C58.5483 31.6161 57.0304 19.7321 47.7501 18.5724C36.2953 17.1285 28.2542 25.6556 26.4038 27.7789V27.813C28.8397 25.1326 36.5824 17.7254 47.3294 19.0698C56.6098 20.2295 58.1304 32.1135 71.8591 39.1256C81.5062 44.0515 95.917 41.7918 101.792 34.4101C95.6839 41.3967 81.708 43.4404 72.2798 38.6282Z" fill="#0199CC"/>
<path d="M100.34 16.0427C100.181 15.8238 100.027 15.605 99.8623 15.3832C109.381 33.3954 88.362 42.0448 76.5889 30.4706C88.2228 42.3972 109.452 33.9468 100.34 16.0427Z" fill="#0291B1"/>
<path d="M35.2153 53.7952C35.1371 53.7632 35.0563 53.7385 34.9737 53.7212C34.3199 53.5535 32.6997 53.4995 32.1768 53.9259L32.1483 53.9515C32.061 54.0316 31.9905 54.1282 31.9408 54.2357C30.4218 56.2519 29.0173 58.352 27.7341 60.5259L23.8202 54.2499L23.8059 54.2187C23.754 54.1103 23.6805 54.0135 23.5899 53.9344L23.5643 53.9117C23.1096 53.5337 21.7481 53.545 21.0062 53.6729C20.8302 53.6914 20.6573 53.7325 20.4917 53.7952C20.3476 53.8559 20.2244 53.9574 20.137 54.0871C20.0497 54.2169 20.0021 54.3693 20 54.5256V67.774C20 68.0383 20.1222 68.5016 20.9408 68.6267C21.2131 68.6635 21.4876 68.6806 21.7623 68.6778C22.3307 68.6778 23.5274 68.6779 23.5274 67.774V60.1422C23.7832 60.5458 24.2693 61.336 24.8065 62.328C25.5531 63.7094 26.0543 64.6123 26.3101 65.0368L26.4607 65.321C26.5949 65.5247 26.7655 65.702 26.9638 65.844C27.3917 66.0971 27.9004 66.1765 28.385 66.0657C28.5049 66.0335 28.617 65.9774 28.7147 65.9008C28.9321 65.7527 29.1241 65.5703 29.2832 65.3608L29.6243 64.761C29.7892 64.4749 30.1757 63.7586 30.784 62.6122C31.3923 61.4658 31.8546 60.6311 32.1711 60.1081V67.791C32.1711 68.6949 33.362 68.6949 33.9333 68.6949C34.5047 68.6949 35.6956 68.6949 35.6956 67.791V54.537C35.6967 54.38 35.6518 54.226 35.5665 54.0942C35.4811 53.9624 35.359 53.8584 35.2153 53.7952Z" fill="#2D9DD3"/>
<path d="M39.5014 68.8598C38.9329 68.8598 37.7391 68.8598 37.7391 67.9559V59.4799C37.7391 58.576 38.9301 58.576 39.5014 58.576C40.0727 58.576 41.2665 58.576 41.2665 59.4799V67.9388C41.2665 68.8598 40.0756 68.8598 39.5014 68.8598Z" fill="#2D9DD3"/>
<path d="M45.1296 68.8598C44.5611 68.8598 43.373 68.8598 43.373 67.9559V54.6933C43.373 53.8406 44.3593 53.8151 45.0102 53.7952H52.4004C52.9319 53.7952 53.5544 54.23 53.5544 55.4579C53.5544 56.6859 52.9319 57.1179 52.4004 57.1179H46.8833V59.6362H51.667C52.1986 59.6362 52.821 60.0711 52.821 61.299C52.821 62.5269 52.1986 62.959 51.667 62.959H46.8833V67.9474C46.8833 68.8598 45.698 68.8598 45.1296 68.8598Z" fill="#2D9DD3"/>
<path d="M71.6175 68.8598C70.5119 68.8598 70.1963 68.5926 70.0485 68.3936L64.8925 60.776V67.9388C64.8925 68.8541 63.7072 68.8541 63.1359 68.8541C62.5646 68.8541 61.3821 68.8541 61.3821 67.9388V54.7218C61.3837 54.5563 61.436 54.3953 61.5321 54.2606C61.6282 54.1258 61.7634 54.0239 61.9193 53.9685C62.2832 53.8179 64.1336 53.6331 64.6622 54.159L64.7504 54.267L69.8922 61.8675V54.7104C69.8922 53.7923 71.123 53.7923 71.6488 53.7923C72.1746 53.7923 73.4025 53.7923 73.4025 54.7104V67.9275C73.3964 68.1126 73.33 68.2907 73.2136 68.4348C73.0972 68.5789 72.937 68.6812 72.7573 68.7262C72.3845 68.8185 72.0016 68.8634 71.6175 68.8598Z" fill="#2D9DD3"/>
<path d="M77.5666 68.8598C76.9981 68.8598 75.8043 68.8598 75.8043 67.9559V54.6933C75.8043 53.7895 76.9953 53.7895 77.5666 53.7895C78.1379 53.7895 79.3289 53.7895 79.3289 54.6933V67.9445C79.326 68.8598 78.1351 68.8598 77.5666 68.8598Z" fill="#2D9DD3"/>
<path d="M57.1726 68.8598C56.6041 68.8598 55.4103 68.8598 55.4103 67.9559V54.6933C55.4103 53.7895 56.6013 53.7895 57.1726 53.7895C57.7439 53.7895 58.9349 53.7895 58.9349 54.6933V67.9445C58.9349 68.8598 57.7439 68.8598 57.1726 68.8598Z" fill="#2D9DD3"/>
<path d="M87.3047 68.8598C86.7363 68.8598 85.5481 68.8598 85.5481 67.9559V57.3027H82.1373C81.2334 57.3027 81.2334 56.1174 81.2334 55.5489C81.2334 54.9804 81.2334 53.7923 82.1373 53.7923H92.458C93.3647 53.7923 93.3647 54.9804 93.3647 55.5489C93.3647 56.1174 93.3647 57.3027 92.458 57.3027H89.0471V67.9445C89.0585 68.8598 87.8732 68.8598 87.3047 68.8598Z" fill="#2D9DD3"/>
<path d="M101.4 68.8598C100.962 68.8598 99.6349 68.8598 99.6349 67.8962V62.4957L94.8028 54.9605V54.7502C94.8064 54.5614 94.8726 54.3792 94.9909 54.2321C95.1092 54.085 95.273 53.9813 95.4566 53.9373C95.9227 53.7809 98.0289 53.6161 98.5633 54.3295L98.5832 54.3579L101.4 58.7238L104.242 54.3125C104.811 53.6104 106.931 53.7895 107.369 53.9458C107.547 53.9937 107.705 54.0979 107.818 54.2429C107.932 54.388 107.996 54.5659 108 54.7502V54.9634L103.168 62.4985V67.899C103.162 68.8598 101.835 68.8598 101.4 68.8598Z" fill="#2D9DD3"/>
<path d="M39.9166 53.9145H38.9701C38.2056 53.9145 37.5858 54.5343 37.5858 55.2988V56.2709C37.5858 57.0354 38.2056 57.6551 38.9701 57.6551H39.9166C40.6811 57.6551 41.3008 57.0354 41.3008 56.2709V55.2988C41.3008 54.5343 40.6811 53.9145 39.9166 53.9145Z" fill="#2D9DD3"/>
</g>
</g>
<defs>
<linearGradient id="paint0_linear_499_620" x1="14.1752" y1="39.4502" x2="110.024" y2="40.2938" gradientUnits="userSpaceOnUse">
<stop offset="0.01" stop-color="#FFA220"/>
<stop offset="0.04" stop-color="#FFA61C"/>
<stop offset="0.34" stop-color="#FFC000"/>
<stop offset="0.61" stop-color="#FDC200"/>
<stop offset="0.74" stop-color="#F6C900"/>
<stop offset="0.75" stop-color="#F5CB00"/>
<stop offset="0.78" stop-color="#F3C200"/>
<stop offset="0.84" stop-color="#F0B100"/>
<stop offset="0.89" stop-color="#EFAB00"/>
<stop offset="1" stop-color="#B74600"/>
</linearGradient>
<linearGradient id="paint1_linear_499_620" x1="23.2829" y1="25.0873" x2="107.934" y2="38.7403" gradientUnits="userSpaceOnUse">
<stop offset="0.01" stop-color="#C59252"/>
<stop offset="0.22" stop-color="#EBA31C"/>
<stop offset="0.34" stop-color="#FFAC00"/>
<stop offset="0.51" stop-color="#FDAC03"/>
<stop offset="0.63" stop-color="#F6AB0D"/>
<stop offset="0.75" stop-color="#E9AA1E"/>
<stop offset="0.78" stop-color="#E4A925"/>
<stop offset="0.8" stop-color="#E7AC21"/>
<stop offset="0.86" stop-color="#F4B70F"/>
<stop offset="0.93" stop-color="#FCBE04"/>
<stop offset="1" stop-color="#FFC000"/>
</linearGradient>
<linearGradient id="paint2_linear_499_620" x1="82.4109" y1="17.3731" x2="72.3025" y2="78.3631" gradientUnits="userSpaceOnUse">
<stop offset="0.01" stop-color="#C59252"/>
<stop offset="0.22" stop-color="#EBA31C"/>
<stop offset="0.34" stop-color="#FFAC00"/>
<stop offset="0.51" stop-color="#FDAC03"/>
<stop offset="0.63" stop-color="#F6AB0D"/>
<stop offset="0.75" stop-color="#E9AA1E"/>
<stop offset="0.78" stop-color="#E4A925"/>
<stop offset="0.8" stop-color="#E7AC21"/>
<stop offset="0.86" stop-color="#F4B70F"/>
<stop offset="0.93" stop-color="#FCBE04"/>
<stop offset="1" stop-color="#FFC000"/>
</linearGradient>
<linearGradient id="paint3_linear_499_620" x1="73.5047" y1="15.0633" x2="35.6285" y2="30.1728" gradientUnits="userSpaceOnUse">
<stop stop-color="white" stop-opacity="0"/>
<stop offset="0.401042" stop-color="#504E4E"/>
<stop offset="1" stop-color="white" stop-opacity="0"/>
</linearGradient>
<linearGradient id="paint4_linear_499_620" x1="116.386" y1="74.4286" x2="14.7559" y2="46.5925" gradientUnits="userSpaceOnUse">
<stop offset="0.01" stop-color="#001F2A"/>
<stop offset="0.16" stop-color="#004B5D"/>
<stop offset="0.2" stop-color="#00576E"/>
<stop offset="0.31" stop-color="#00799F"/>
<stop offset="0.42" stop-color="#0094C7"/>
<stop offset="0.52" stop-color="#00A8E3"/>
<stop offset="0.61" stop-color="#00B4F4"/>
<stop offset="0.67" stop-color="#00B8FA"/>
<stop offset="0.76" stop-color="#00B6F7"/>
<stop offset="0.83" stop-color="#01AEEC"/>
<stop offset="0.9" stop-color="#03A2DA"/>
<stop offset="0.97" stop-color="#0691C1"/>
<stop offset="1" stop-color="#0788B3"/>
</linearGradient>
</defs>
</svg>
