<svg width="542" height="72" viewBox="0 0 542 72" fill="none" xmlns="http://www.w3.org/2000/svg">
<g id="logo / sub-brand / brand-light / deriv engineering" clip-path="url(#clip0_2138_58)">
<g id="wordmark">
<path d="M34.9861 1.82853L31.9963 18.7839H21.6179C11.9356 18.7839 2.70673 26.6285 0.996224 36.3108L0.272218 40.4319C-1.43032 50.1143 5.02984 57.959 14.7122 57.959H23.3682C30.4251 57.959 37.1479 52.2464 38.389 45.1897L46.3608 0L34.9861 1.82853ZM27.6221 43.5905C27.2402 45.7704 25.2776 47.5447 23.0977 47.5447H17.8389C13.487 47.5447 10.5752 44.012 11.3389 39.6522L11.7924 37.0825C12.5641 32.7306 16.7171 29.1902 21.069 29.1902H30.1613L27.6221 43.5905ZM114.914 57.9581L121.724 19.324H132.496L125.686 57.9581H114.905H114.914ZM116.079 19.7695C115.539 22.8339 114.997 25.8983 114.457 28.9627C109.353 27.3768 104.088 27.8818 102.47 28.2044C100.723 38.1247 98.9739 48.0474 97.2245 57.9677H86.4451C87.9089 49.6671 92.9099 21.3197 92.9099 21.3197C96.4158 19.8679 105.025 16.9214 116.079 19.7695ZM72.4022 18.7773H64.0168C55.8461 18.7773 48.0576 25.3966 46.6173 33.5673L44.9228 43.1702C43.4827 51.3408 48.9327 57.9603 57.1034 57.9603H74.9405L76.7704 47.5778H60.007C57.2863 47.5778 55.4642 45.3739 55.9497 42.6451L56.0054 42.3189H83.0316L84.575 33.5673C86.0148 25.3966 80.5651 18.7773 72.3944 18.7773H72.4022ZM73.7628 32.7399L73.6992 33.2968H57.6285L57.716 32.8036C58.201 30.0827 60.6835 27.688 63.4121 27.688H69.6894C72.3865 27.688 74.2086 30.0429 73.7628 32.7399ZM174.527 19.324C170.855 29.0872 162.439 45.6953 154.287 57.9581H143.507C139.765 46.2868 137.349 30.0248 136.888 19.324H147.668C147.862 22.8146 149.425 35.7617 151.208 44.8066C156.1 36.0072 161.492 24.4623 163.739 19.324H174.527Z" fill="#FF444F"/>
<path d="M189.192 58V8.104H219.648V14.08H196.176V28.912H217.056V34.744H196.176V52.024H221.448V58H189.192Z" fill="#414652"/>
<path d="M227.013 21.64C228.549 21.256 230.589 20.848 233.133 20.416C235.677 19.984 238.605 19.768 241.917 19.768C244.893 19.768 247.365 20.2 249.333 21.064C251.301 21.88 252.861 23.056 254.013 24.592C255.213 26.08 256.053 27.88 256.533 29.992C257.013 32.104 257.253 34.432 257.253 36.976V58H250.557V38.416C250.557 36.112 250.389 34.144 250.053 32.512C249.765 30.88 249.261 29.56 248.541 28.552C247.821 27.544 246.861 26.824 245.661 26.392C244.461 25.912 242.973 25.672 241.197 25.672C240.477 25.672 239.733 25.696 238.965 25.744C238.197 25.792 237.453 25.864 236.733 25.96C236.061 26.008 235.437 26.08 234.861 26.176C234.333 26.272 233.949 26.344 233.709 26.392V58H227.013V21.64Z" fill="#414652"/>
<path d="M288.949 54.256C288.373 54.64 287.245 55.144 285.565 55.768C283.933 56.344 282.013 56.632 279.805 56.632C277.549 56.632 275.413 56.272 273.397 55.552C271.429 54.832 269.701 53.728 268.213 52.24C266.725 50.704 265.549 48.808 264.685 46.552C263.821 44.296 263.389 41.608 263.389 38.488C263.389 35.752 263.797 33.256 264.613 31C265.429 28.696 266.605 26.728 268.141 25.096C269.725 23.416 271.645 22.12 273.901 21.208C276.157 20.248 278.701 19.768 281.533 19.768C284.653 19.768 287.365 20.008 289.669 20.488C292.021 20.92 293.989 21.328 295.573 21.712V55.12C295.573 60.88 294.085 65.056 291.109 67.648C288.133 70.24 283.621 71.536 277.573 71.536C275.221 71.536 272.989 71.344 270.877 70.96C268.813 70.576 267.013 70.12 265.477 69.592L266.701 63.76C268.045 64.288 269.677 64.744 271.597 65.128C273.565 65.56 275.605 65.776 277.717 65.776C281.701 65.776 284.557 64.984 286.285 63.4C288.061 61.816 288.949 59.296 288.949 55.84V54.256ZM288.877 26.464C288.205 26.272 287.293 26.104 286.141 25.96C285.037 25.768 283.525 25.672 281.605 25.672C278.005 25.672 275.221 26.848 273.253 29.2C271.333 31.552 270.373 34.672 270.373 38.56C270.373 40.72 270.637 42.568 271.165 44.104C271.741 45.64 272.485 46.912 273.397 47.92C274.357 48.928 275.437 49.672 276.637 50.152C277.885 50.632 279.157 50.872 280.453 50.872C282.229 50.872 283.861 50.632 285.349 50.152C286.837 49.624 288.013 49.024 288.877 48.352V26.464Z" fill="#414652"/>
<path d="M310.918 58H304.222V20.56H310.918V58ZM307.534 13.792C306.334 13.792 305.302 13.408 304.438 12.64C303.622 11.824 303.214 10.744 303.214 9.4C303.214 8.056 303.622 7 304.438 6.232C305.302 5.416 306.334 5.008 307.534 5.008C308.734 5.008 309.742 5.416 310.558 6.232C311.422 7 311.854 8.056 311.854 9.4C311.854 10.744 311.422 11.824 310.558 12.64C309.742 13.408 308.734 13.792 307.534 13.792Z" fill="#414652"/>
<path d="M319.552 21.64C321.089 21.256 323.128 20.848 325.672 20.416C328.216 19.984 331.144 19.768 334.456 19.768C337.432 19.768 339.905 20.2 341.872 21.064C343.84 21.88 345.4 23.056 346.552 24.592C347.753 26.08 348.592 27.88 349.073 29.992C349.553 32.104 349.793 34.432 349.793 36.976V58H343.096V38.416C343.096 36.112 342.928 34.144 342.592 32.512C342.305 30.88 341.801 29.56 341.081 28.552C340.361 27.544 339.401 26.824 338.201 26.392C337 25.912 335.513 25.672 333.737 25.672C333.017 25.672 332.272 25.696 331.504 25.744C330.736 25.792 329.992 25.864 329.272 25.96C328.6 26.008 327.976 26.08 327.4 26.176C326.872 26.272 326.488 26.344 326.249 26.392V58H319.552V21.64Z" fill="#414652"/>
<path d="M355.928 39.352C355.928 36.04 356.408 33.16 357.368 30.712C358.328 28.216 359.6 26.152 361.184 24.52C362.768 22.888 364.592 21.664 366.656 20.848C368.72 20.032 370.832 19.624 372.992 19.624C378.032 19.624 381.896 21.208 384.584 24.376C387.272 27.496 388.616 32.272 388.616 38.704C388.616 38.992 388.616 39.376 388.616 39.856C388.616 40.288 388.592 40.696 388.544 41.08H362.912C363.2 44.968 364.328 47.92 366.296 49.936C368.264 51.952 371.336 52.96 375.512 52.96C377.864 52.96 379.832 52.768 381.416 52.384C383.048 51.952 384.272 51.544 385.088 51.16L386.024 56.776C385.208 57.208 383.768 57.664 381.704 58.144C379.688 58.624 377.384 58.864 374.792 58.864C371.528 58.864 368.696 58.384 366.296 57.424C363.944 56.416 362 55.048 360.464 53.32C358.928 51.592 357.776 49.552 357.008 47.2C356.288 44.8 355.928 42.184 355.928 39.352ZM381.632 35.68C381.68 32.656 380.912 30.184 379.328 28.264C377.792 26.296 375.656 25.312 372.92 25.312C371.384 25.312 370.016 25.624 368.816 26.248C367.664 26.824 366.68 27.592 365.864 28.552C365.048 29.512 364.4 30.616 363.92 31.864C363.488 33.112 363.2 34.384 363.056 35.68H381.632Z" fill="#414652"/>
<path d="M393.267 39.352C393.267 36.04 393.747 33.16 394.707 30.712C395.667 28.216 396.939 26.152 398.523 24.52C400.107 22.888 401.931 21.664 403.995 20.848C406.059 20.032 408.171 19.624 410.331 19.624C415.371 19.624 419.235 21.208 421.923 24.376C424.611 27.496 425.955 32.272 425.955 38.704C425.955 38.992 425.955 39.376 425.955 39.856C425.955 40.288 425.931 40.696 425.883 41.08H400.251C400.539 44.968 401.667 47.92 403.635 49.936C405.603 51.952 408.675 52.96 412.851 52.96C415.203 52.96 417.171 52.768 418.755 52.384C420.387 51.952 421.611 51.544 422.427 51.16L423.363 56.776C422.547 57.208 421.107 57.664 419.043 58.144C417.027 58.624 414.723 58.864 412.131 58.864C408.867 58.864 406.035 58.384 403.635 57.424C401.283 56.416 399.339 55.048 397.803 53.32C396.267 51.592 395.115 49.552 394.347 47.2C393.627 44.8 393.267 42.184 393.267 39.352ZM418.971 35.68C419.019 32.656 418.251 30.184 416.667 28.264C415.131 26.296 412.995 25.312 410.259 25.312C408.723 25.312 407.355 25.624 406.155 26.248C405.003 26.824 404.019 27.592 403.203 28.552C402.387 29.512 401.739 30.616 401.259 31.864C400.827 33.112 400.539 34.384 400.395 35.68H418.971Z" fill="#414652"/>
<path d="M446.518 19.768C447.094 19.768 447.742 19.816 448.462 19.912C449.23 19.96 449.974 20.056 450.694 20.2C451.414 20.296 452.062 20.416 452.638 20.56C453.262 20.656 453.718 20.752 454.006 20.848L452.854 26.68C452.326 26.488 451.438 26.272 450.19 26.032C448.99 25.744 447.43 25.6 445.51 25.6C444.262 25.6 443.014 25.744 441.766 26.032C440.566 26.272 439.774 26.44 439.39 26.536V58H432.694V22.144C434.278 21.568 436.246 21.04 438.598 20.56C440.95 20.032 443.59 19.768 446.518 19.768Z" fill="#414652"/>
<path d="M464.283 58H457.587V20.56H464.283V58ZM460.899 13.792C459.699 13.792 458.667 13.408 457.803 12.64C456.987 11.824 456.579 10.744 456.579 9.4C456.579 8.056 456.987 7 457.803 6.232C458.667 5.416 459.699 5.008 460.899 5.008C462.099 5.008 463.107 5.416 463.923 6.232C464.787 7 465.219 8.056 465.219 9.4C465.219 10.744 464.787 11.824 463.923 12.64C463.107 13.408 462.099 13.792 460.899 13.792Z" fill="#414652"/>
<path d="M472.918 21.64C474.454 21.256 476.494 20.848 479.038 20.416C481.582 19.984 484.51 19.768 487.822 19.768C490.798 19.768 493.27 20.2 495.238 21.064C497.206 21.88 498.766 23.056 499.918 24.592C501.118 26.08 501.958 27.88 502.438 29.992C502.918 32.104 503.158 34.432 503.158 36.976V58H496.462V38.416C496.462 36.112 496.294 34.144 495.958 32.512C495.67 30.88 495.166 29.56 494.446 28.552C493.726 27.544 492.766 26.824 491.566 26.392C490.366 25.912 488.878 25.672 487.102 25.672C486.382 25.672 485.638 25.696 484.87 25.744C484.102 25.792 483.358 25.864 482.638 25.96C481.966 26.008 481.342 26.08 480.766 26.176C480.238 26.272 479.854 26.344 479.614 26.392V58H472.918V21.64Z" fill="#414652"/>
<path d="M534.854 54.256C534.278 54.64 533.15 55.144 531.47 55.768C529.838 56.344 527.918 56.632 525.71 56.632C523.454 56.632 521.318 56.272 519.302 55.552C517.334 54.832 515.606 53.728 514.118 52.24C512.63 50.704 511.454 48.808 510.59 46.552C509.726 44.296 509.294 41.608 509.294 38.488C509.294 35.752 509.702 33.256 510.518 31C511.334 28.696 512.51 26.728 514.046 25.096C515.63 23.416 517.55 22.12 519.806 21.208C522.062 20.248 524.606 19.768 527.438 19.768C530.558 19.768 533.27 20.008 535.574 20.488C537.926 20.92 539.894 21.328 541.478 21.712V55.12C541.478 60.88 539.99 65.056 537.014 67.648C534.038 70.24 529.526 71.536 523.478 71.536C521.126 71.536 518.894 71.344 516.782 70.96C514.718 70.576 512.918 70.12 511.382 69.592L512.606 63.76C513.95 64.288 515.582 64.744 517.502 65.128C519.47 65.56 521.51 65.776 523.622 65.776C527.606 65.776 530.462 64.984 532.19 63.4C533.966 61.816 534.854 59.296 534.854 55.84V54.256ZM534.782 26.464C534.11 26.272 533.198 26.104 532.046 25.96C530.942 25.768 529.43 25.672 527.51 25.672C523.91 25.672 521.126 26.848 519.158 29.2C517.238 31.552 516.278 34.672 516.278 38.56C516.278 40.72 516.542 42.568 517.07 44.104C517.646 45.64 518.39 46.912 519.302 47.92C520.262 48.928 521.342 49.672 522.542 50.152C523.79 50.632 525.062 50.872 526.358 50.872C528.134 50.872 529.766 50.632 531.254 50.152C532.742 49.624 533.918 49.024 534.782 48.352V26.464Z" fill="#414652"/>
</g>
</g>
<defs>
<clipPath id="clip0_2138_58">
<rect width="542" height="72" fill="white"/>
</clipPath>
</defs>
</svg>
