<svg width="300" height="72" viewBox="0 0 300 72" fill="none" xmlns="http://www.w3.org/2000/svg">
<g id="logo / partners product / white / binary bot-logo-wordmark">
<g id="logo">
<path d="M0 13.5C0 6.04416 6.04416 0 13.5 0H58.5C65.9558 0 72 6.04416 72 13.5V58.5C72 65.9558 65.9558 72 58.5 72H13.5C6.04416 72 0 65.9558 0 58.5V13.5Z" fill="white"/>
<path d="M13.5 0C6.04416 0 0 6.04416 0 13.5V13.8921L67.3075 3.26845C64.9433 1.2315 61.8655 0 58.5 0H13.5Z" fill="#EBECEF"/>
<path d="M68.6969 4.65243L56.3498 71.9999L58.5 72C65.9558 72 72 65.9558 72 58.5V13.5C72 10.1155 70.7545 7.02183 68.6969 4.65243Z" fill="#EBECEF"/>
<path d="M24.8662 47.1825C23.6692 47.1825 22.4722 47.1405 21.2752 47.0565C20.0992 46.9935 18.8707 46.8255 17.5897 46.5525V25.3845C18.5977 25.1955 19.7002 25.059 20.8972 24.975C22.0942 24.87 23.2072 24.8175 24.2362 24.8175C25.6222 24.8175 26.8927 24.9225 28.0477 25.1325C29.2237 25.3215 30.2317 25.6575 31.0717 26.1405C31.9117 26.6235 32.5627 27.264 33.0247 28.062C33.5077 28.839 33.7492 29.805 33.7492 30.96C33.7492 32.703 32.9092 34.0785 31.2292 35.0865C32.6152 35.6115 33.5602 36.3255 34.0642 37.2285C34.5682 38.1315 34.8202 39.1501 34.8202 40.284C34.8202 42.5731 33.9802 44.2951 32.3002 45.4501C30.6412 46.605 28.1632 47.1825 24.8662 47.1825ZM22.3777 37.386V43.0245C22.7347 43.0665 23.1232 43.098 23.5432 43.119C23.9632 43.14 24.4252 43.1505 24.9292 43.1505C26.3992 43.1505 27.5857 42.9405 28.4887 42.5205C29.3917 42.1005 29.8432 41.3235 29.8432 40.1895C29.8432 39.1815 29.4652 38.4675 28.7092 38.0475C27.9532 37.6065 26.8717 37.386 25.4647 37.386H22.3777ZM22.3777 33.6375H24.7717C26.2837 33.6375 27.3652 33.4485 28.0162 33.0705C28.6672 32.6715 28.9927 32.0415 28.9927 31.1805C28.9927 30.2985 28.6567 29.679 27.9847 29.322C27.3127 28.965 26.3257 28.7865 25.0237 28.7865C24.6037 28.7865 24.1522 28.797 23.6692 28.818C23.1862 28.818 22.7557 28.839 22.3777 28.881V33.6375Z" fill="#2A3052"/>
<path d="M44.4553 47.1825C43.2583 47.1825 42.0613 47.1405 40.8643 47.0565C39.6883 46.9935 38.4598 46.8255 37.1788 46.5525V25.3845C38.1868 25.1955 39.2893 25.059 40.4863 24.975C41.6833 24.87 42.7963 24.8175 43.8253 24.8175C45.2113 24.8175 46.4818 24.9225 47.6368 25.1325C48.8128 25.3215 49.8208 25.6575 50.6608 26.1405C51.5008 26.6235 52.1518 27.264 52.6138 28.062C53.0968 28.839 53.3383 29.805 53.3383 30.96C53.3383 32.703 52.4983 34.0785 50.8183 35.0865C52.2043 35.6115 53.1493 36.3255 53.6533 37.2285C54.1573 38.1315 54.4093 39.1501 54.4093 40.284C54.4093 42.5731 53.5693 44.2951 51.8893 45.4501C50.2303 46.605 47.7523 47.1825 44.4553 47.1825ZM41.9668 37.386V43.0245C42.3238 43.0665 42.7123 43.098 43.1323 43.119C43.5523 43.14 44.0143 43.1505 44.5183 43.1505C45.9883 43.1505 47.1748 42.9405 48.0778 42.5205C48.9808 42.1005 49.4323 41.3235 49.4323 40.1895C49.4323 39.1815 49.0543 38.4675 48.2983 38.0475C47.5423 37.6065 46.4608 37.386 45.0538 37.386H41.9668ZM41.9668 33.6375H44.3608C45.8728 33.6375 46.9543 33.4485 47.6053 33.0705C48.2563 32.6715 48.5818 32.0415 48.5818 31.1805C48.5818 30.2985 48.2458 29.679 47.5738 29.322C46.9018 28.965 45.9148 28.7865 44.6128 28.7865C44.1928 28.7865 43.7413 28.797 43.2583 28.818C42.7753 28.818 42.3448 28.839 41.9668 28.881V33.6375Z" fill="#2A3052"/>
</g>
<g id="wordmark">
<path d="M99.1973 50.1514C97.3073 50.1514 95.37 50.0726 93.3855 49.9151C91.401 49.7576 89.6055 49.5056 87.999 49.1591L95.559 17.5016C97.3545 17.1551 99.2288 16.9188 101.182 16.7928C103.166 16.6668 104.978 16.6038 106.616 16.6038C108.506 16.6038 110.128 16.8086 111.482 17.2181C112.868 17.5961 113.987 18.1158 114.837 18.7773C115.719 19.4388 116.365 20.2263 116.774 21.1399C117.215 22.0219 117.436 22.9669 117.436 23.9749C117.436 24.6679 117.357 25.3924 117.2 26.1484C117.074 26.9044 116.79 27.6604 116.349 28.4164C115.94 29.1409 115.357 29.8339 114.601 30.4954C113.876 31.1569 112.916 31.7554 111.719 32.2909C113.136 32.9209 114.176 33.7871 114.837 34.8896C115.499 35.9606 115.829 37.1576 115.829 38.4806C115.829 39.9926 115.53 41.4574 114.932 42.8749C114.333 44.2609 113.372 45.5051 112.049 46.6076C110.726 47.6786 109.01 48.5449 106.899 49.2064C104.789 49.8364 102.221 50.1514 99.1973 50.1514ZM98.5358 35.4094L96.504 43.9144C97.008 44.0089 97.638 44.0876 98.394 44.1506C99.1815 44.1821 99.906 44.1979 100.568 44.1979C101.513 44.1979 102.442 44.1349 103.355 44.0089C104.3 43.8514 105.135 43.5836 105.86 43.2056C106.616 42.8276 107.23 42.3079 107.702 41.6464C108.175 40.9849 108.411 40.1344 108.411 39.0949C108.411 38.6539 108.317 38.2129 108.128 37.7719C107.97 37.3309 107.702 36.9371 107.324 36.5906C106.946 36.2441 106.442 35.9606 105.812 35.7401C105.214 35.5196 104.489 35.4094 103.639 35.4094H98.5358ZM99.906 29.8811H104.537C106.427 29.8811 107.828 29.4716 108.742 28.6526C109.687 27.8336 110.159 26.8571 110.159 25.7231C110.159 25.1246 110.018 24.6206 109.734 24.2111C109.482 23.7701 109.136 23.4236 108.695 23.1716C108.254 22.9196 107.75 22.7464 107.183 22.6519C106.616 22.5259 106.033 22.4629 105.434 22.4629C104.773 22.4629 104.064 22.4944 103.308 22.5574C102.552 22.5889 101.985 22.6361 101.607 22.6991L99.906 29.8811Z" fill="white"/>
<path d="M123.493 49.7261H116.5L122.407 24.8726H129.447L123.493 49.7261ZM126.895 21.8486C125.919 21.8486 125.037 21.5651 124.249 20.9981C123.462 20.3996 123.068 19.5018 123.068 18.3048C123.068 17.6433 123.194 17.0291 123.446 16.4621C123.73 15.8636 124.092 15.3596 124.533 14.9501C124.974 14.5091 125.478 14.1626 126.045 13.9106C126.643 13.6586 127.273 13.5326 127.935 13.5326C128.911 13.5326 129.793 13.8318 130.581 14.4303C131.368 14.9973 131.762 15.8793 131.762 17.0763C131.762 17.7378 131.62 18.3678 131.337 18.9663C131.085 19.5333 130.738 20.0373 130.297 20.4783C129.856 20.8879 129.337 21.2186 128.738 21.4706C128.171 21.7226 127.557 21.8486 126.895 21.8486Z" fill="white"/>
<path d="M133.237 26.0066C133.772 25.8491 134.355 25.6759 134.985 25.4869C135.646 25.2664 136.371 25.0774 137.158 24.9199C137.977 24.7309 138.875 24.5891 139.852 24.4946C140.86 24.3686 141.994 24.3056 143.254 24.3056C146.971 24.3056 149.522 25.3766 150.908 27.5186C152.294 29.6606 152.53 32.5901 151.617 36.3071L148.404 49.7261H141.364L144.482 36.5906C144.671 35.7716 144.813 34.9841 144.907 34.2281C145.033 33.4406 145.033 32.7634 144.907 32.1964C144.781 31.5979 144.482 31.1254 144.01 30.7789C143.569 30.4009 142.876 30.2119 141.931 30.2119C141.017 30.2119 140.088 30.3064 139.143 30.4954L134.56 49.7261H127.519L133.237 26.0066Z" fill="white"/>
<path d="M175.26 39.0004C174.819 40.7959 174.693 42.6071 174.882 44.4341C175.071 46.2296 175.433 47.8361 175.969 49.2536L169.684 50.1514C169.495 49.7734 169.322 49.4111 169.165 49.0646C169.007 48.7181 168.85 48.3244 168.692 47.8834C167.81 48.6079 166.834 49.2064 165.763 49.6789C164.692 50.1514 163.495 50.3876 162.172 50.3876C160.597 50.3876 159.242 50.1199 158.108 49.5844C157.006 49.0174 156.092 48.2771 155.368 47.3636C154.675 46.4186 154.171 45.3319 153.856 44.1034C153.541 42.8434 153.383 41.5046 153.383 40.0871C153.383 37.9136 153.761 35.8661 154.517 33.9446C155.305 32.0231 156.376 30.3536 157.73 28.9361C159.116 27.4871 160.738 26.3531 162.597 25.5341C164.455 24.7151 166.471 24.3056 168.645 24.3056C168.928 24.3056 169.417 24.3214 170.11 24.3529C170.834 24.3844 171.653 24.4631 172.567 24.5891C173.48 24.6836 174.441 24.8569 175.449 25.1089C176.457 25.3609 177.418 25.7074 178.331 26.1484L175.26 39.0004ZM170.346 30.3064C169.936 30.2434 169.558 30.1961 169.212 30.1646C168.897 30.1331 168.503 30.1174 168.031 30.1174C166.96 30.1174 165.952 30.3851 165.007 30.9206C164.093 31.4561 163.29 32.1649 162.597 33.0469C161.904 33.8974 161.353 34.8896 160.943 36.0236C160.565 37.1576 160.376 38.3389 160.376 39.5674C160.376 41.0794 160.628 42.2764 161.132 43.1584C161.636 44.0404 162.565 44.4814 163.92 44.4814C164.644 44.4814 165.29 44.3396 165.857 44.0561C166.456 43.7726 167.086 43.3001 167.747 42.6386C167.81 41.8511 167.905 41.0321 168.031 40.1816C168.188 39.2996 168.346 38.4964 168.503 37.7719L170.346 30.3064Z" fill="white"/>
<path d="M196.375 30.9206C195.745 30.7631 195.115 30.6214 194.485 30.4954C193.887 30.3379 192.989 30.2591 191.792 30.2591C191.351 30.2591 190.863 30.3064 190.327 30.4009C189.792 30.4639 189.351 30.5426 189.004 30.6371L184.421 49.7261H177.381L183.051 26.1956C184.405 25.7546 185.917 25.3451 187.587 24.9671C189.288 24.5576 191.194 24.3529 193.304 24.3529C194.092 24.3529 194.958 24.4316 195.903 24.5891C196.879 24.7151 197.73 24.9356 198.454 25.2506L196.375 30.9206Z" fill="white"/>
<path d="M221.691 24.8726C220.809 27.2666 219.911 29.5031 218.998 31.5821C218.116 33.6611 217.187 35.6456 216.21 37.5356C215.234 39.3941 214.226 41.1739 213.186 42.8749C212.147 44.5759 211.044 46.2611 209.879 47.9306C209.028 49.1591 208.146 50.4034 207.233 51.6634C206.319 52.9234 205.295 54.0574 204.161 55.0654C203.059 56.0734 201.815 56.8924 200.429 57.5224C199.074 58.1524 197.499 58.4674 195.704 58.4674C194.601 58.4674 193.656 58.3571 192.869 58.1366C192.081 57.9476 191.341 57.6799 190.648 57.3334L192.774 51.8051C193.404 52.0571 193.971 52.2461 194.475 52.3721C194.979 52.5296 195.593 52.6084 196.318 52.6084C197.42 52.6084 198.46 52.2461 199.436 51.5216C200.444 50.8286 201.279 49.8836 201.941 48.6866C201.122 45.5366 200.366 42.0086 199.673 38.1026C199.011 34.1966 198.554 29.7866 198.302 24.8726H205.532C205.563 26.1011 205.626 27.4556 205.721 28.9361C205.815 30.4166 205.925 31.9129 206.051 33.4249C206.177 34.9054 206.319 36.3544 206.477 37.7719C206.634 39.1894 206.807 40.4651 206.996 41.5991C208.508 39.3311 209.831 36.8111 210.965 34.0391C212.131 31.2671 213.218 28.2116 214.226 24.8726H221.691Z" fill="white"/>
<path d="M239.124 50.1607C238.452 50.1607 237.716 50.1447 236.916 50.1127C236.148 50.0807 235.364 50.0327 234.564 49.9687C233.796 49.9047 233.028 49.8247 232.26 49.7287C231.492 49.6327 230.788 49.5047 230.148 49.3447V17.0887C230.788 16.9287 231.492 16.8007 232.26 16.7047C233.028 16.6087 233.796 16.5287 234.564 16.4647C235.364 16.4007 236.148 16.3527 236.916 16.3207C237.684 16.2887 238.404 16.2727 239.076 16.2727C240.996 16.2727 242.788 16.4167 244.452 16.7047C246.148 16.9927 247.604 17.4887 248.82 18.1927C250.068 18.8647 251.044 19.7607 251.748 20.8807C252.452 22.0007 252.804 23.3767 252.804 25.0087C252.804 26.8327 252.372 28.3367 251.508 29.5207C250.644 30.6727 249.492 31.5367 248.052 32.1127C250.004 32.6887 251.556 33.6007 252.708 34.8487C253.86 36.0967 254.436 37.8567 254.436 40.1287C254.436 43.4567 253.204 45.9687 250.74 47.6647C248.308 49.3287 244.436 50.1607 239.124 50.1607ZM234.756 34.3687V46.0807C235.108 46.1127 235.524 46.1447 236.004 46.1767C236.42 46.2087 236.9 46.2407 237.444 46.2727C238.02 46.2727 238.676 46.2727 239.412 46.2727C240.788 46.2727 242.084 46.1927 243.3 46.0327C244.548 45.8407 245.636 45.5207 246.564 45.0727C247.492 44.6247 248.228 44.0007 248.772 43.2007C249.348 42.4007 249.636 41.3927 249.636 40.1767C249.636 39.0887 249.428 38.1767 249.012 37.4407C248.596 36.6727 247.988 36.0647 247.188 35.6167C246.42 35.1687 245.492 34.8487 244.404 34.6567C243.316 34.4647 242.1 34.3687 240.756 34.3687H234.756ZM234.756 30.6247H239.652C240.804 30.6247 241.892 30.5447 242.916 30.3847C243.94 30.2247 244.82 29.9367 245.556 29.5207C246.324 29.1047 246.916 28.5607 247.332 27.8887C247.78 27.2167 248.004 26.3687 248.004 25.3447C248.004 24.3847 247.78 23.5847 247.332 22.9447C246.884 22.2727 246.26 21.7447 245.46 21.3607C244.692 20.9447 243.78 20.6407 242.724 20.4487C241.668 20.2567 240.548 20.1607 239.364 20.1607C238.18 20.1607 237.252 20.1767 236.58 20.2087C235.908 20.2407 235.3 20.2887 234.756 20.3527V30.6247Z" fill="white"/>
<path d="M280.815 37.3927C280.815 39.3767 280.527 41.1687 279.951 42.7687C279.375 44.3687 278.559 45.7447 277.503 46.8967C276.479 48.0487 275.247 48.9447 273.807 49.5847C272.367 50.1927 270.799 50.4967 269.103 50.4967C267.407 50.4967 265.839 50.1927 264.399 49.5847C262.959 48.9447 261.711 48.0487 260.655 46.8967C259.631 45.7447 258.831 44.3687 258.255 42.7687C257.679 41.1687 257.391 39.3767 257.391 37.3927C257.391 35.4407 257.679 33.6647 258.255 32.0647C258.831 30.4327 259.631 29.0407 260.655 27.8887C261.711 26.7367 262.959 25.8567 264.399 25.2487C265.839 24.6087 267.407 24.2887 269.103 24.2887C270.799 24.2887 272.367 24.6087 273.807 25.2487C275.247 25.8567 276.479 26.7367 277.503 27.8887C278.559 29.0407 279.375 30.4327 279.951 32.0647C280.527 33.6647 280.815 35.4407 280.815 37.3927ZM276.159 37.3927C276.159 34.5767 275.519 32.3527 274.239 30.7207C272.991 29.0567 271.279 28.2247 269.103 28.2247C266.927 28.2247 265.199 29.0567 263.919 30.7207C262.671 32.3527 262.047 34.5767 262.047 37.3927C262.047 40.2087 262.671 42.4487 263.919 44.1127C265.199 45.7447 266.927 46.5607 269.103 46.5607C271.279 46.5607 272.991 45.7447 274.239 44.1127C275.519 42.4487 276.159 40.2087 276.159 37.3927Z" fill="white"/>
<path d="M289.352 24.9127H298.808V28.6567H289.352V40.1767C289.352 41.4247 289.448 42.4647 289.64 43.2967C289.832 44.0967 290.12 44.7367 290.504 45.2167C290.888 45.6647 291.368 45.9847 291.944 46.1767C292.52 46.3687 293.192 46.4647 293.96 46.4647C295.304 46.4647 296.376 46.3207 297.176 46.0327C298.008 45.7127 298.584 45.4887 298.904 45.3607L299.768 49.0567C299.32 49.2807 298.536 49.5527 297.416 49.8727C296.296 50.2247 295.016 50.4007 293.576 50.4007C291.88 50.4007 290.472 50.1927 289.352 49.7767C288.264 49.3287 287.384 48.6727 286.712 47.8087C286.04 46.9447 285.56 45.8887 285.272 44.6407C285.016 43.3607 284.888 41.8887 284.888 40.2247V17.9527L289.352 17.1847V24.9127Z" fill="white"/>
</g>
</g>
</svg>
