<svg width="345" height="59" viewBox="0 0 345 59" fill="none" xmlns="http://www.w3.org/2000/svg">
<g id="logo / sub-brand / white / deriv pulse">
<g id="wordmark">
<path d="M34.9861 1.82853L31.9963 18.7839H21.6179C11.9356 18.7839 2.70673 26.6285 0.996224 36.3108L0.272218 40.4319C-1.43032 50.1143 5.02984 57.959 14.7122 57.959H23.3682C30.4251 57.959 37.1479 52.2464 38.389 45.1897L46.3608 0L34.9861 1.82853ZM27.6221 43.5905C27.2402 45.7704 25.2776 47.5447 23.0977 47.5447H17.8389C13.487 47.5447 10.5752 44.012 11.3389 39.6522L11.7924 37.0825C12.5641 32.7306 16.7171 29.1902 21.069 29.1902H30.1613L27.6221 43.5905ZM114.914 57.9581L121.724 19.324H132.496L125.686 57.9581H114.905H114.914ZM116.079 19.7695C115.539 22.8339 114.997 25.8983 114.457 28.9627C109.353 27.3768 104.088 27.8818 102.47 28.2044C100.723 38.1247 98.9739 48.0474 97.2245 57.9677H86.4451C87.9089 49.6671 92.9099 21.3197 92.9099 21.3197C96.4158 19.8679 105.025 16.9214 116.079 19.7695ZM72.4022 18.7773H64.0168C55.8461 18.7773 48.0576 25.3966 46.6173 33.5673L44.9228 43.1702C43.4827 51.3408 48.9327 57.9603 57.1034 57.9603H74.9405L76.7704 47.5778H60.007C57.2863 47.5778 55.4642 45.3739 55.9497 42.6451L56.0054 42.3189H83.0316L84.575 33.5673C86.0148 25.3966 80.5651 18.7773 72.3944 18.7773H72.4022ZM73.7628 32.7399L73.6992 33.2968H57.6285L57.716 32.8036C58.201 30.0827 60.6835 27.688 63.4121 27.688H69.6894C72.3865 27.688 74.2086 30.0429 73.7628 32.7399ZM174.527 19.324C170.855 29.0872 162.439 45.6953 154.287 57.9581H143.507C139.765 46.2868 137.349 30.0248 136.888 19.324H147.668C147.862 22.8146 149.425 35.7617 151.208 44.8066C156.1 36.0072 161.492 24.4623 163.739 19.324H174.527Z" fill="white"/>
<path d="M312.121 39.352C312.121 36.04 312.601 33.16 313.561 30.712C314.521 28.216 315.793 26.152 317.377 24.52C318.961 22.888 320.785 21.664 322.849 20.848C324.913 20.032 327.025 19.624 329.185 19.624C334.225 19.624 338.089 21.208 340.777 24.376C343.465 27.496 344.809 32.272 344.809 38.704C344.809 38.992 344.809 39.376 344.809 39.856C344.809 40.288 344.785 40.696 344.737 41.08H319.105C319.393 44.968 320.521 47.92 322.489 49.936C324.457 51.952 327.529 52.96 331.705 52.96C334.057 52.96 336.025 52.768 337.609 52.384C339.241 51.952 340.465 51.544 341.281 51.16L342.217 56.776C341.401 57.208 339.961 57.664 337.897 58.144C335.881 58.624 333.577 58.864 330.985 58.864C327.721 58.864 324.889 58.384 322.489 57.424C320.137 56.416 318.193 55.048 316.657 53.32C315.121 51.592 313.969 49.552 313.201 47.2C312.481 44.8 312.121 42.184 312.121 39.352ZM337.825 35.68C337.873 32.656 337.105 30.184 335.521 28.264C333.985 26.296 331.849 25.312 329.113 25.312C327.577 25.312 326.209 25.624 325.009 26.248C323.857 26.824 322.873 27.592 322.057 28.552C321.241 29.512 320.593 30.616 320.113 31.864C319.681 33.112 319.393 34.384 319.249 35.68H337.825Z" fill="white"/>
<path d="M293.668 53.176C296.404 53.176 298.42 52.816 299.716 52.096C301.06 51.376 301.732 50.224 301.732 48.64C301.732 47.008 301.084 45.712 299.788 44.752C298.492 43.792 296.356 42.712 293.38 41.512C291.94 40.936 290.548 40.36 289.204 39.784C287.908 39.16 286.78 38.44 285.82 37.624C284.86 36.808 284.092 35.824 283.516 34.672C282.94 33.52 282.652 32.104 282.652 30.424C282.652 27.112 283.876 24.496 286.324 22.576C288.772 20.608 292.108 19.624 296.332 19.624C297.388 19.624 298.444 19.696 299.5 19.84C300.556 19.936 301.54 20.08 302.452 20.272C303.364 20.416 304.156 20.584 304.828 20.776C305.548 20.968 306.1 21.136 306.484 21.28L305.26 27.04C304.54 26.656 303.412 26.272 301.876 25.888C300.34 25.456 298.492 25.24 296.332 25.24C294.46 25.24 292.828 25.624 291.436 26.392C290.044 27.112 289.348 28.264 289.348 29.848C289.348 30.664 289.492 31.384 289.78 32.008C290.116 32.632 290.596 33.208 291.22 33.736C291.892 34.216 292.708 34.672 293.668 35.104C294.628 35.536 295.78 35.992 297.124 36.472C298.9 37.144 300.484 37.816 301.876 38.488C303.268 39.112 304.444 39.856 305.404 40.72C306.412 41.584 307.18 42.64 307.708 43.888C308.236 45.088 308.5 46.576 308.5 48.352C308.5 51.808 307.204 54.424 304.612 56.2C302.068 57.976 298.42 58.864 293.668 58.864C290.356 58.864 287.764 58.576 285.892 58C284.02 57.472 282.748 57.064 282.076 56.776L283.3 51.016C284.068 51.304 285.292 51.736 286.972 52.312C288.652 52.888 290.884 53.176 293.668 53.176Z" fill="white"/>
<path d="M279.38 58.72C275.252 58.624 272.324 57.736 270.596 56.056C268.868 54.376 268.004 51.76 268.004 48.208V3.28L274.7 2.128V47.128C274.7 48.232 274.796 49.144 274.988 49.864C275.18 50.584 275.492 51.16 275.924 51.592C276.356 52.024 276.932 52.36 277.652 52.6C278.372 52.792 279.26 52.96 280.316 53.104L279.38 58.72Z" fill="white"/>
<path d="M259.493 56.92C257.957 57.304 255.917 57.712 253.373 58.144C250.877 58.576 247.973 58.792 244.661 58.792C241.781 58.792 239.357 58.384 237.389 57.568C235.421 56.704 233.837 55.504 232.637 53.968C231.437 52.432 230.573 50.632 230.045 48.568C229.517 46.456 229.253 44.128 229.253 41.584V20.56H235.949V40.144C235.949 44.704 236.669 47.968 238.109 49.936C239.549 51.904 241.973 52.888 245.381 52.888C246.101 52.888 246.845 52.864 247.613 52.816C248.381 52.768 249.101 52.72 249.773 52.672C250.445 52.576 251.045 52.504 251.573 52.456C252.149 52.36 252.557 52.264 252.797 52.168V20.56H259.493V56.92Z" fill="white"/>
<path d="M202.44 7.6C209.448 7.6 214.824 8.944 218.568 11.632C222.36 14.272 224.256 18.232 224.256 23.512C224.256 26.392 223.728 28.864 222.672 30.928C221.664 32.944 220.176 34.6 218.208 35.896C216.288 37.144 213.936 38.056 211.152 38.632C208.368 39.208 205.224 39.496 201.72 39.496H196.176V58H189.192V8.824C191.16 8.344 193.344 8.032 195.744 7.888C198.192 7.696 200.424 7.6 202.44 7.6ZM203.016 13.72C200.04 13.72 197.76 13.792 196.176 13.936V33.52H201.432C203.832 33.52 205.992 33.376 207.912 33.088C209.832 32.752 211.44 32.224 212.736 31.504C214.08 30.736 215.112 29.704 215.832 28.408C216.552 27.112 216.912 25.456 216.912 23.44C216.912 21.52 216.528 19.936 215.76 18.688C215.04 17.44 214.032 16.456 212.736 15.736C211.488 14.968 210.024 14.44 208.344 14.152C206.664 13.864 204.888 13.72 203.016 13.72Z" fill="white"/>
</g>
</g>
</svg>
