<svg width="295" height="59" viewBox="0 0 295 59" fill="none" xmlns="http://www.w3.org/2000/svg">
<g id="logo / sub-brand / white / deriv life">
<g id="wordmark">
<path d="M34.9861 1.82853L31.9963 18.7839H21.6179C11.9356 18.7839 2.70673 26.6285 0.996224 36.3108L0.272218 40.4319C-1.43032 50.1143 5.02984 57.959 14.7122 57.959H23.3682C30.4251 57.959 37.1479 52.2464 38.389 45.1897L46.3608 0L34.9861 1.82853ZM27.6221 43.5905C27.2402 45.7704 25.2776 47.5447 23.0977 47.5447H17.8389C13.487 47.5447 10.5752 44.012 11.3389 39.6522L11.7924 37.0825C12.5641 32.7306 16.7171 29.1902 21.069 29.1902H30.1613L27.6221 43.5905ZM114.914 57.9581L121.724 19.324H132.496L125.686 57.9581H114.905H114.914ZM116.079 19.7695C115.539 22.8339 114.997 25.8983 114.457 28.9627C109.353 27.3768 104.088 27.8818 102.47 28.2044C100.723 38.1247 98.9739 48.0474 97.2245 57.9677H86.4451C87.9089 49.6671 92.9099 21.3197 92.9099 21.3197C96.4158 19.8679 105.025 16.9214 116.079 19.7695ZM72.4022 18.7773H64.0168C55.8461 18.7773 48.0576 25.3966 46.6173 33.5673L44.9228 43.1702C43.4827 51.3408 48.9327 57.9603 57.1034 57.9603H74.9405L76.7704 47.5778H60.007C57.2863 47.5778 55.4642 45.3739 55.9497 42.6451L56.0054 42.3189H83.0316L84.575 33.5673C86.0148 25.3966 80.5651 18.7773 72.3944 18.7773H72.4022ZM73.7628 32.7399L73.6992 33.2968H57.6285L57.716 32.8036C58.201 30.0827 60.6835 27.688 63.4121 27.688H69.6894C72.3865 27.688 74.2086 30.0429 73.7628 32.7399ZM174.527 19.324C170.855 29.0872 162.439 45.6953 154.287 57.9581H143.507C139.765 46.2868 137.349 30.0248 136.888 19.324H147.668C147.862 22.8146 149.425 35.7617 151.208 44.8066C156.1 36.0072 161.492 24.4623 163.739 19.324H174.527Z" fill="white"/>
<path d="M219.216 51.952V58H189.192V8.104H196.176V51.952H219.216Z" fill="white"/>
<path d="M229.912 58H223.216V20.56H229.912V58ZM226.528 13.792C225.328 13.792 224.296 13.408 223.432 12.64C222.616 11.824 222.208 10.744 222.208 9.4C222.208 8.056 222.616 7 223.432 6.232C224.296 5.416 225.328 5.008 226.528 5.008C227.728 5.008 228.736 5.416 229.552 6.232C230.416 7 230.848 8.056 230.848 9.4C230.848 10.744 230.416 11.824 229.552 12.64C228.736 13.408 227.728 13.792 226.528 13.792Z" fill="white"/>
<path d="M253.163 2.128C255.131 2.128 256.811 2.272 258.203 2.56C259.643 2.848 260.651 3.112 261.227 3.352L260.003 9.112C259.427 8.824 258.611 8.56 257.555 8.32C256.499 8.032 255.203 7.888 253.667 7.888C250.547 7.888 248.363 8.752 247.115 10.48C245.867 12.16 245.243 14.44 245.243 17.32V20.56H259.643V26.176H245.243V58H238.547V17.176C238.547 12.376 239.723 8.68 242.075 6.088C244.427 3.448 248.123 2.128 253.163 2.128Z" fill="white"/>
<path d="M261.352 39.352C261.352 36.04 261.832 33.16 262.792 30.712C263.752 28.216 265.024 26.152 266.608 24.52C268.192 22.888 270.016 21.664 272.08 20.848C274.144 20.032 276.256 19.624 278.416 19.624C283.456 19.624 287.32 21.208 290.008 24.376C292.696 27.496 294.04 32.272 294.04 38.704C294.04 38.992 294.04 39.376 294.04 39.856C294.04 40.288 294.016 40.696 293.968 41.08H268.336C268.624 44.968 269.752 47.92 271.72 49.936C273.688 51.952 276.76 52.96 280.936 52.96C283.288 52.96 285.256 52.768 286.84 52.384C288.472 51.952 289.696 51.544 290.512 51.16L291.448 56.776C290.632 57.208 289.192 57.664 287.128 58.144C285.112 58.624 282.808 58.864 280.216 58.864C276.952 58.864 274.12 58.384 271.72 57.424C269.368 56.416 267.424 55.048 265.888 53.32C264.352 51.592 263.2 49.552 262.432 47.2C261.712 44.8 261.352 42.184 261.352 39.352ZM287.056 35.68C287.104 32.656 286.336 30.184 284.752 28.264C283.216 26.296 281.08 25.312 278.344 25.312C276.808 25.312 275.44 25.624 274.24 26.248C273.088 26.824 272.104 27.592 271.288 28.552C270.472 29.512 269.824 30.616 269.344 31.864C268.912 33.112 268.624 34.384 268.48 35.68H287.056Z" fill="white"/>
</g>
</g>
</svg>
