<svg width="321" height="59" viewBox="0 0 321 59" fill="none" xmlns="http://www.w3.org/2000/svg">
<g id="logo / sub-brand / brand-light / deriv tech" clip-path="url(#clip0_2289_218)">
<g id="wordmark">
<path d="M34.9861 1.82853L31.9963 18.7839H21.6179C11.9356 18.7839 2.70673 26.6285 0.996224 36.3108L0.272218 40.4319C-1.43032 50.1143 5.02984 57.959 14.7122 57.959H23.3682C30.4251 57.959 37.1479 52.2464 38.389 45.1897L46.3608 0L34.9861 1.82853ZM27.6221 43.5905C27.2402 45.7704 25.2776 47.5447 23.0977 47.5447H17.8389C13.487 47.5447 10.5752 44.012 11.3389 39.6522L11.7924 37.0825C12.5641 32.7306 16.7171 29.1902 21.069 29.1902H30.1613L27.6221 43.5905ZM114.914 57.9581L121.724 19.324H132.496L125.686 57.9581H114.905H114.914ZM116.079 19.7695C115.539 22.8339 114.997 25.8983 114.457 28.9627C109.353 27.3768 104.088 27.8818 102.47 28.2044C100.723 38.1247 98.9739 48.0474 97.2245 57.9677H86.4451C87.9089 49.6671 92.9099 21.3197 92.9099 21.3197C96.4158 19.8679 105.025 16.9214 116.079 19.7695ZM72.4022 18.7773H64.0168C55.8461 18.7773 48.0576 25.3966 46.6173 33.5673L44.9228 43.1702C43.4827 51.3408 48.9327 57.9603 57.1034 57.9603H74.9405L76.7704 47.5778H60.007C57.2863 47.5778 55.4642 45.3739 55.9497 42.6451L56.0054 42.3189H83.0316L84.575 33.5673C86.0148 25.3966 80.5651 18.7773 72.3944 18.7773H72.4022ZM73.7628 32.7399L73.6992 33.2968H57.6285L57.716 32.8036C58.201 30.0827 60.6835 27.688 63.4121 27.688H69.6894C72.3865 27.688 74.2086 30.0429 73.7628 32.7399ZM174.527 19.324C170.855 29.0872 162.439 45.6953 154.287 57.9581H143.507C139.765 46.2868 137.349 30.0248 136.888 19.324H147.668C147.862 22.8146 149.425 35.7617 151.208 44.8066C156.1 36.0072 161.492 24.4623 163.739 19.324H174.527Z" fill="#FF444F"/>
<path d="M222.174 8.104V14.152H206.478V58H199.494V14.152H183.798V8.104H222.174Z" fill="#414652"/>
<path d="M220.211 39.352C220.211 36.04 220.691 33.16 221.651 30.712C222.611 28.216 223.883 26.152 225.467 24.52C227.051 22.888 228.875 21.664 230.939 20.848C233.003 20.032 235.115 19.624 237.275 19.624C242.315 19.624 246.179 21.208 248.867 24.376C251.555 27.496 252.899 32.272 252.899 38.704C252.899 38.992 252.899 39.376 252.899 39.856C252.899 40.288 252.875 40.696 252.827 41.08H227.195C227.483 44.968 228.611 47.92 230.579 49.936C232.547 51.952 235.619 52.96 239.795 52.96C242.147 52.96 244.115 52.768 245.699 52.384C247.331 51.952 248.555 51.544 249.371 51.16L250.307 56.776C249.491 57.208 248.051 57.664 245.987 58.144C243.971 58.624 241.667 58.864 239.075 58.864C235.811 58.864 232.979 58.384 230.579 57.424C228.227 56.416 226.283 55.048 224.747 53.32C223.211 51.592 222.059 49.552 221.291 47.2C220.571 44.8 220.211 42.184 220.211 39.352ZM245.915 35.68C245.963 32.656 245.195 30.184 243.611 28.264C242.075 26.296 239.939 25.312 237.203 25.312C235.667 25.312 234.299 25.624 233.099 26.248C231.947 26.824 230.963 27.592 230.147 28.552C229.331 29.512 228.683 30.616 228.203 31.864C227.771 33.112 227.483 34.384 227.339 35.68H245.915Z" fill="#414652"/>
<path d="M275.91 58.864C272.886 58.864 270.222 58.384 267.918 57.424C265.662 56.464 263.742 55.12 262.158 53.392C260.622 51.664 259.47 49.624 258.702 47.272C257.934 44.872 257.55 42.232 257.55 39.352C257.55 36.472 257.958 33.832 258.774 31.432C259.638 29.032 260.838 26.968 262.374 25.24C263.91 23.464 265.782 22.096 267.99 21.136C270.246 20.128 272.742 19.624 275.478 19.624C277.158 19.624 278.838 19.768 280.518 20.056C282.198 20.344 283.806 20.8 285.342 21.424L283.83 27.112C282.822 26.632 281.646 26.248 280.302 25.96C279.006 25.672 277.614 25.528 276.126 25.528C272.382 25.528 269.502 26.704 267.486 29.056C265.518 31.408 264.534 34.84 264.534 39.352C264.534 41.368 264.75 43.216 265.182 44.896C265.662 46.576 266.382 48.016 267.342 49.216C268.35 50.416 269.622 51.352 271.158 52.024C272.694 52.648 274.566 52.96 276.774 52.96C278.55 52.96 280.158 52.792 281.598 52.456C283.038 52.12 284.166 51.76 284.982 51.376L285.918 56.992C285.534 57.232 284.982 57.472 284.262 57.712C283.542 57.904 282.726 58.072 281.814 58.216C280.902 58.408 279.918 58.552 278.862 58.648C277.854 58.792 276.87 58.864 275.91 58.864Z" fill="#414652"/>
<path d="M290.226 58V3.28L296.922 2.128V21.28C298.17 20.8 299.49 20.44 300.882 20.2C302.322 19.912 303.738 19.768 305.13 19.768C308.106 19.768 310.578 20.2 312.546 21.064C314.514 21.88 316.074 23.056 317.226 24.592C318.426 26.08 319.266 27.88 319.746 29.992C320.226 32.104 320.466 34.432 320.466 36.976V58H313.77V38.416C313.77 36.112 313.602 34.144 313.266 32.512C312.978 30.88 312.474 29.56 311.754 28.552C311.034 27.544 310.074 26.824 308.874 26.392C307.674 25.912 306.186 25.672 304.41 25.672C303.69 25.672 302.946 25.72 302.178 25.816C301.41 25.912 300.666 26.032 299.946 26.176C299.274 26.272 298.65 26.392 298.074 26.536C297.546 26.68 297.162 26.8 296.922 26.896V58H290.226Z" fill="#414652"/>
</g>
</g>
<defs>
<clipPath id="clip0_2289_218">
<rect width="321" height="59" fill="white"/>
</clipPath>
</defs>
</svg>
