<svg width="261" height="38" viewBox="0 0 261 38" fill="none" xmlns="http://www.w3.org/2000/svg">
<g id="logo / partners product / white / deriv ctrader-wordmark">
<g id="wordmark">
<path fill-rule="evenodd" clip-rule="evenodd" d="M20.739 3.98683L18.9667 14.0377H12.8146C7.07515 14.0377 1.60449 18.6879 0.59054 24.4274L0.161365 26.8703C-0.847863 32.6099 2.98158 37.2601 8.72108 37.2601H13.8522C18.0354 37.2601 22.0204 33.8738 22.7562 29.6907L27.4817 2.90291L20.739 3.98683ZM16.3738 28.7427C16.1474 30.0349 14.984 31.0867 13.6918 31.0867H10.5745C7.9948 31.0867 6.26872 28.9926 6.72144 26.4082L6.99028 24.8849C7.44772 22.3051 9.90952 20.2064 12.4892 20.2064H17.879L16.3738 28.7427Z" fill="white"/>
<path d="M68.1179 37.2618H74.5034L78.5404 14.3601H72.1549L68.1179 37.2618Z" fill="white"/>
<path d="M68.3306 17.3456L68.3315 17.3404C68.4914 16.4349 68.6513 15.5294 68.8108 14.6239C62.2586 12.9356 57.155 14.6822 55.0768 15.5428C55.0768 15.5428 52.1123 32.3468 51.2446 37.2672H57.6344C58.6714 31.3866 59.7084 25.5046 60.7439 19.624C61.7029 19.4328 64.8241 19.1334 67.8492 20.0735C68.0094 19.1642 68.17 18.2549 68.3306 17.3456Z" fill="white"/>
<path fill-rule="evenodd" clip-rule="evenodd" d="M42.9138 14.0354H37.9477C33.1043 14.0354 28.4874 17.9592 27.6337 22.8027L26.6292 28.4951C25.7755 33.3385 29.0062 37.2625 33.8496 37.2625H44.423L45.5078 31.1079H35.5708C33.958 31.1079 32.8779 29.8015 33.1657 28.1838L33.1987 27.9905H49.2193L50.1342 22.8027C50.9876 17.9592 47.7572 14.0354 42.9138 14.0354ZM43.7249 22.3122L43.6872 22.6424H34.1609L34.2127 22.35C34.5002 20.737 35.9718 19.3175 37.5892 19.3175H41.3103C42.9091 19.3175 43.9892 20.7135 43.7249 22.3122Z" fill="white"/>
<path d="M89.6385 29.4657C92.5379 24.2496 95.7343 17.406 97.0662 14.3601H103.461C101.284 20.1475 96.2959 29.9925 91.4635 37.2618H85.0733C82.8551 30.3432 81.4227 20.7033 81.1494 14.3601H87.5398C87.6551 16.4292 88.5814 24.1041 89.6385 29.4657Z" fill="white"/>
<path d="M122.688 37.824C120.672 37.824 118.896 37.504 117.36 36.864C115.856 36.224 114.576 35.328 113.52 34.176C112.496 33.024 111.728 31.664 111.216 30.096C110.704 28.496 110.448 26.736 110.448 24.816C110.448 22.896 110.72 21.136 111.264 19.536C111.84 17.936 112.64 16.56 113.664 15.408C114.688 14.224 115.936 13.312 117.408 12.672C118.912 12 120.576 11.664 122.4 11.664C123.52 11.664 124.64 11.76 125.76 11.952C126.88 12.144 127.952 12.448 128.976 12.864L127.968 16.656C127.296 16.336 126.512 16.08 125.616 15.888C124.752 15.696 123.824 15.6 122.832 15.6C120.336 15.6 118.416 16.384 117.072 17.952C115.76 19.52 115.104 21.808 115.104 24.816C115.104 26.16 115.248 27.392 115.536 28.512C115.856 29.632 116.336 30.592 116.976 31.392C117.648 32.192 118.496 32.816 119.52 33.264C120.544 33.68 121.792 33.888 123.264 33.888C124.448 33.888 125.52 33.776 126.48 33.552C127.44 33.328 128.192 33.088 128.736 32.832L129.36 36.576C129.104 36.736 128.736 36.896 128.256 37.056C127.776 37.184 127.232 37.296 126.624 37.392C126.016 37.52 125.36 37.616 124.656 37.68C123.984 37.776 123.328 37.824 122.688 37.824Z" fill="white"/>
<path d="M154.745 3.984V8.016H144.281V37.248H139.624V8.016H129.161V3.984H154.745Z" fill="white"/>
<path d="M164.747 11.76C165.131 11.76 165.563 11.792 166.043 11.856C166.555 11.888 167.051 11.952 167.531 12.048C168.011 12.112 168.443 12.192 168.827 12.288C169.243 12.352 169.547 12.416 169.739 12.48L168.971 16.368C168.619 16.24 168.027 16.096 167.195 15.936C166.395 15.744 165.355 15.648 164.075 15.648C163.243 15.648 162.411 15.744 161.579 15.936C160.779 16.096 160.251 16.208 159.995 16.272V37.248H155.531V13.344C156.587 12.96 157.899 12.608 159.467 12.288C161.035 11.936 162.795 11.76 164.747 11.76Z" fill="white"/>
<path d="M180.575 34.032C181.631 34.032 182.559 34.016 183.359 33.984C184.191 33.92 184.879 33.824 185.423 33.696V26.256C185.103 26.096 184.575 25.968 183.839 25.872C183.135 25.744 182.271 25.68 181.247 25.68C180.575 25.68 179.855 25.728 179.087 25.824C178.351 25.92 177.663 26.128 177.023 26.448C176.415 26.736 175.903 27.152 175.487 27.696C175.071 28.208 174.863 28.896 174.863 29.76C174.863 31.36 175.375 32.48 176.399 33.12C177.423 33.728 178.815 34.032 180.575 34.032ZM180.191 11.664C181.983 11.664 183.487 11.904 184.703 12.384C185.951 12.832 186.943 13.488 187.679 14.352C188.447 15.184 188.991 16.192 189.311 17.376C189.631 18.528 189.791 19.808 189.791 21.216V36.816C189.407 36.88 188.863 36.976 188.159 37.104C187.487 37.2 186.719 37.296 185.855 37.392C184.991 37.488 184.047 37.568 183.023 37.632C182.031 37.728 181.039 37.776 180.047 37.776C178.639 37.776 177.343 37.632 176.159 37.344C174.975 37.056 173.951 36.608 173.087 36C172.223 35.36 171.551 34.528 171.071 33.504C170.591 32.48 170.351 31.248 170.351 29.808C170.351 28.432 170.623 27.248 171.167 26.256C171.743 25.264 172.511 24.464 173.471 23.856C174.431 23.248 175.551 22.8 176.831 22.512C178.111 22.224 179.455 22.08 180.863 22.08C181.311 22.08 181.775 22.112 182.255 22.176C182.735 22.208 183.183 22.272 183.599 22.368C184.047 22.432 184.431 22.496 184.751 22.56C185.071 22.624 185.295 22.672 185.423 22.704V21.456C185.423 20.72 185.343 20 185.183 19.296C185.023 18.56 184.735 17.92 184.319 17.376C183.903 16.8 183.327 16.352 182.591 16.032C181.887 15.68 180.959 15.504 179.807 15.504C178.335 15.504 177.039 15.616 175.919 15.84C174.831 16.032 174.015 16.24 173.471 16.464L172.943 12.768C173.519 12.512 174.479 12.272 175.823 12.048C177.167 11.792 178.623 11.664 180.191 11.664Z" fill="white"/>
<path d="M211.413 17.568C210.869 17.12 210.085 16.688 209.061 16.272C208.037 15.856 206.917 15.648 205.701 15.648C204.421 15.648 203.317 15.888 202.389 16.368C201.493 16.816 200.757 17.456 200.181 18.288C199.605 19.088 199.189 20.048 198.933 21.168C198.677 22.288 198.549 23.488 198.549 24.768C198.549 27.68 199.269 29.936 200.709 31.536C202.149 33.104 204.069 33.888 206.469 33.888C207.685 33.888 208.693 33.84 209.493 33.744C210.325 33.616 210.965 33.488 211.413 33.36V17.568ZM211.413 0.767999L215.877 0V36.528C214.853 36.816 213.541 37.104 211.941 37.392C210.341 37.68 208.501 37.824 206.421 37.824C204.501 37.824 202.773 37.52 201.237 36.912C199.701 36.304 198.389 35.44 197.301 34.32C196.213 33.2 195.365 31.84 194.757 30.24C194.181 28.608 193.893 26.784 193.893 24.768C193.893 22.848 194.133 21.088 194.613 19.488C195.125 17.888 195.861 16.512 196.821 15.36C197.781 14.208 198.949 13.312 200.325 12.672C201.733 12.032 203.333 11.712 205.125 11.712C206.565 11.712 207.829 11.904 208.917 12.288C210.037 12.672 210.869 13.04 211.413 13.392V0.767999Z" fill="white"/>
<path d="M220.239 24.816C220.239 22.608 220.559 20.688 221.199 19.056C221.839 17.392 222.687 16.016 223.743 14.928C224.799 13.84 226.015 13.024 227.391 12.48C228.767 11.936 230.175 11.664 231.615 11.664C234.975 11.664 237.551 12.72 239.343 14.832C241.135 16.912 242.031 20.096 242.031 24.384C242.031 24.576 242.031 24.832 242.031 25.152C242.031 25.44 242.015 25.712 241.983 25.968H224.895C225.087 28.56 225.839 30.528 227.151 31.872C228.463 33.216 230.511 33.888 233.295 33.888C234.863 33.888 236.175 33.76 237.231 33.504C238.319 33.216 239.135 32.944 239.679 32.688L240.303 36.432C239.759 36.72 238.799 37.024 237.423 37.344C236.079 37.664 234.543 37.824 232.815 37.824C230.639 37.824 228.751 37.504 227.151 36.864C225.583 36.192 224.287 35.28 223.263 34.128C222.239 32.976 221.471 31.616 220.959 30.048C220.479 28.448 220.239 26.704 220.239 24.816ZM237.375 22.368C237.407 20.352 236.895 18.704 235.839 17.424C234.815 16.112 233.391 15.456 231.567 15.456C230.543 15.456 229.631 15.664 228.831 16.08C228.063 16.464 227.407 16.976 226.863 17.616C226.319 18.256 225.887 18.992 225.567 19.824C225.279 20.656 225.087 21.504 224.991 22.368H237.375Z" fill="white"/>
<path d="M255.739 11.76C256.123 11.76 256.555 11.792 257.035 11.856C257.547 11.888 258.043 11.952 258.523 12.048C259.003 12.112 259.435 12.192 259.819 12.288C260.235 12.352 260.539 12.416 260.731 12.48L259.963 16.368C259.611 16.24 259.019 16.096 258.187 15.936C257.387 15.744 256.347 15.648 255.067 15.648C254.235 15.648 253.403 15.744 252.571 15.936C251.771 16.096 251.243 16.208 250.987 16.272V37.248H246.523V13.344C247.579 12.96 248.891 12.608 250.459 12.288C252.027 11.936 253.787 11.76 255.739 11.76Z" fill="white"/>
</g>
</g>
</svg>
