<svg width="260" height="38" viewBox="0 0 260 38" fill="none" xmlns="http://www.w3.org/2000/svg">
<g id="logo / partners product / smarttrader / brand-dark / wordmark">
<g id="wordmark">
<path d="M10.962 31.6178C12.0015 31.6178 12.852 31.5391 13.5135 31.3816C14.2065 31.1926 14.7578 30.9563 15.1673 30.6728C15.5768 30.3578 15.8603 29.9956 16.0178 29.5861C16.1753 29.1766 16.254 28.7198 16.254 28.2158C16.254 27.1448 15.75 26.2628 14.742 25.5698C13.734 24.8453 12.0015 24.0736 9.54451 23.2546C8.47351 22.8766 7.40251 22.4513 6.33151 21.9788C5.2605 21.4748 4.29975 20.8606 3.44925 20.1361C2.59875 19.3801 1.90575 18.4823 1.37025 17.4428C0.834751 16.3718 0.567001 15.0803 0.567001 13.5683C0.567001 12.0563 0.850501 10.7018 1.4175 9.50482C1.9845 8.27632 2.78775 7.23681 3.82725 6.38631C4.86675 5.53581 6.12676 4.89006 7.60726 4.44906C9.08776 3.97656 10.7573 3.74031 12.6158 3.74031C14.8208 3.74031 16.7265 3.97656 18.333 4.44906C19.9395 4.92156 21.2625 5.44131 22.302 6.00831L20.1758 11.8201C19.2623 11.3476 18.2385 10.9381 17.1045 10.5916C16.002 10.2136 14.6633 10.0246 13.0883 10.0246C11.3243 10.0246 10.0485 10.2766 9.26101 10.7806C8.50501 11.2531 8.12701 11.9933 8.12701 13.0013C8.12701 13.5998 8.26876 14.1038 8.55226 14.5133C8.83576 14.9228 9.22951 15.3008 9.73351 15.6473C10.269 15.9623 10.8675 16.2616 11.529 16.5451C12.222 16.7971 12.978 17.0648 13.797 17.3483C15.498 17.9783 16.9785 18.6083 18.2385 19.2383C19.4985 19.8368 20.538 20.5456 21.357 21.3646C22.2075 22.1836 22.8375 23.1443 23.247 24.2468C23.6565 25.3493 23.8613 26.6881 23.8613 28.2631C23.8613 31.3186 22.7903 33.6968 20.6483 35.3978C18.5063 37.0673 15.2775 37.9021 10.962 37.9021C9.51301 37.9021 8.20576 37.8076 7.04026 37.6186C5.87476 37.4611 4.83525 37.2563 3.92175 37.0043C3.03975 36.7523 2.268 36.4846 1.6065 36.2011C0.976501 35.9176 0.441 35.6498 0 35.3978L2.079 29.5388C3.0555 30.0743 4.2525 30.5626 5.67001 31.0036C7.11901 31.4131 8.88301 31.6178 10.962 31.6178Z" fill="white"/>
<path d="M40.353 24.0578C40.353 21.7898 40.0538 20.1833 39.4553 19.2383C38.8883 18.2933 37.896 17.8208 36.4785 17.8208C36.0375 17.8208 35.5808 17.8523 35.1083 17.9153C34.6358 17.9468 34.179 17.9941 33.738 18.0571V37.2406H26.6978V13.2376C27.2963 13.0801 27.9893 12.9226 28.7768 12.7651C29.5958 12.5761 30.4463 12.4186 31.3283 12.2926C32.2418 12.1351 33.171 12.0248 34.116 11.9618C35.061 11.8673 35.9903 11.8201 36.9038 11.8201C38.6993 11.8201 40.1483 12.0563 41.2508 12.5288C42.3848 12.9698 43.314 13.5053 44.0385 14.1353C45.0465 13.4108 46.1963 12.8438 47.4878 12.4343C48.8108 12.0248 50.0235 11.8201 51.126 11.8201C53.1105 11.8201 54.7328 12.1036 55.9928 12.6706C57.2843 13.2061 58.308 13.9778 59.064 14.9858C59.82 15.9938 60.3398 17.1908 60.6233 18.5768C60.9068 19.9628 61.0485 21.5063 61.0485 23.2073V37.2406H54.0083V24.0578C54.0083 21.7898 53.709 20.1833 53.1105 19.2383C52.5435 18.2933 51.5513 17.8208 50.1338 17.8208C49.7558 17.8208 49.2203 17.9153 48.5273 18.1043C47.8658 18.2933 47.3145 18.5296 46.8735 18.8131C47.094 19.5376 47.2358 20.3093 47.2988 21.1283C47.3618 21.9158 47.3933 22.7663 47.3933 23.6798V37.2406H40.353V24.0578Z" fill="white"/>
<path d="M74.5764 32.3266C75.2694 32.3266 75.9309 32.3108 76.5609 32.2793C77.1909 32.2478 77.6949 32.2006 78.0729 32.1376V26.7983C77.7894 26.7353 77.3642 26.6723 76.7972 26.6093C76.2302 26.5463 75.7104 26.5148 75.2379 26.5148C74.5764 26.5148 73.9464 26.5621 73.3479 26.6566C72.7809 26.7196 72.2769 26.8613 71.8359 27.0818C71.3949 27.3023 71.0484 27.6016 70.7964 27.9796C70.5444 28.3576 70.4184 28.8301 70.4184 29.3971C70.4184 30.4996 70.7807 31.2713 71.5052 31.7123C72.2612 32.1218 73.2849 32.3266 74.5764 32.3266ZM74.0094 11.7256C76.0884 11.7256 77.8209 11.9618 79.2069 12.4343C80.5929 12.9068 81.6954 13.5841 82.5144 14.4661C83.3649 15.3481 83.9634 16.4191 84.3099 17.6791C84.6564 18.9391 84.8297 20.3408 84.8297 21.8843V36.5318C83.8217 36.7523 82.4199 37.0043 80.6244 37.2878C78.8289 37.6028 76.6554 37.7603 74.1039 37.7603C72.4974 37.7603 71.0327 37.6186 69.7097 37.3351C68.4182 37.0516 67.2999 36.5948 66.3549 35.9648C65.4099 35.3033 64.6854 34.4528 64.1814 33.4133C63.6774 32.3738 63.4254 31.0981 63.4254 29.5861C63.4254 28.1371 63.7089 26.9086 64.2759 25.9006C64.8744 24.8926 65.6619 24.0893 66.6384 23.4908C67.6149 22.8923 68.7332 22.4671 69.9932 22.2151C71.2532 21.9316 72.5604 21.7898 73.9149 21.7898C74.8284 21.7898 75.6317 21.8371 76.3247 21.9316C77.0492 21.9946 77.6319 22.0891 78.0729 22.2151V21.5536C78.0729 20.3566 77.7107 19.3958 76.9862 18.6713C76.2617 17.9468 75.0017 17.5846 73.2062 17.5846C72.0092 17.5846 70.8279 17.6791 69.6624 17.8681C68.4969 18.0256 67.4889 18.2618 66.6384 18.5768L65.7407 12.9068C66.1502 12.7808 66.6542 12.6548 67.2527 12.5288C67.8827 12.3713 68.5599 12.2453 69.2844 12.1508C70.0089 12.0248 70.7649 11.9303 71.5524 11.8673C72.3714 11.7728 73.1904 11.7256 74.0094 11.7256Z" fill="white"/>
<path d="M103.812 18.6241C103.182 18.4666 102.441 18.3091 101.591 18.1516C100.74 17.9626 99.8269 17.8681 98.8504 17.8681C98.4094 17.8681 97.8739 17.9153 97.2439 18.0098C96.6454 18.0728 96.1887 18.1516 95.8737 18.2461V37.2406H88.8334V13.7101C90.0934 13.2691 91.5739 12.8596 93.2749 12.4816C95.0074 12.0721 96.9289 11.8673 99.0394 11.8673C99.4174 11.8673 99.8742 11.8988 100.41 11.9618C100.945 11.9933 101.481 12.0563 102.016 12.1508C102.552 12.2138 103.087 12.3083 103.623 12.4343C104.158 12.5288 104.615 12.6548 104.993 12.8123L103.812 18.6241Z" fill="white"/>
<path d="M106.168 6.19732L113.209 5.06331V12.3871H121.666V18.2461H113.209V26.9873C113.209 28.4678 113.461 29.6491 113.965 30.5311C114.5 31.4131 115.555 31.8541 117.13 31.8541C117.886 31.8541 118.658 31.7911 119.446 31.6651C120.265 31.5076 121.005 31.3028 121.666 31.0508L122.659 36.5318C121.808 36.8783 120.863 37.1776 119.824 37.4296C118.784 37.6816 117.508 37.8076 115.996 37.8076C114.075 37.8076 112.484 37.5556 111.224 37.0516C109.964 36.5161 108.956 35.7916 108.2 34.8781C107.444 33.9331 106.909 32.7991 106.594 31.4761C106.31 30.1531 106.168 28.6883 106.168 27.0818V6.19732Z" fill="white"/>
<path d="M153.232 3.984V8.016H142.768V37.248H138.112V8.016H127.648V3.984H153.232Z" fill="white"/>
<path d="M163.235 11.76C163.619 11.76 164.051 11.792 164.531 11.856C165.043 11.888 165.539 11.952 166.019 12.048C166.499 12.112 166.931 12.192 167.315 12.288C167.731 12.352 168.035 12.416 168.227 12.48L167.459 16.368C167.107 16.24 166.515 16.096 165.683 15.936C164.883 15.744 163.843 15.648 162.563 15.648C161.731 15.648 160.899 15.744 160.067 15.936C159.267 16.096 158.739 16.208 158.483 16.272V37.248H154.019V13.344C155.075 12.96 156.387 12.608 157.955 12.288C159.523 11.936 161.283 11.76 163.235 11.76Z" fill="white"/>
<path d="M179.062 34.032C180.118 34.032 181.046 34.016 181.846 33.984C182.678 33.92 183.366 33.824 183.91 33.696V26.256C183.59 26.096 183.062 25.968 182.326 25.872C181.622 25.744 180.758 25.68 179.734 25.68C179.062 25.68 178.342 25.728 177.574 25.824C176.838 25.92 176.15 26.128 175.51 26.448C174.902 26.736 174.39 27.152 173.974 27.696C173.558 28.208 173.35 28.896 173.35 29.76C173.35 31.36 173.862 32.48 174.886 33.12C175.91 33.728 177.302 34.032 179.062 34.032ZM178.678 11.664C180.47 11.664 181.974 11.904 183.19 12.384C184.438 12.832 185.43 13.488 186.166 14.352C186.934 15.184 187.478 16.192 187.798 17.376C188.118 18.528 188.278 19.808 188.278 21.216V36.816C187.894 36.88 187.35 36.976 186.646 37.104C185.974 37.2 185.206 37.296 184.342 37.392C183.478 37.488 182.534 37.568 181.51 37.632C180.518 37.728 179.526 37.776 178.534 37.776C177.126 37.776 175.83 37.632 174.646 37.344C173.462 37.056 172.438 36.608 171.574 36C170.71 35.36 170.038 34.528 169.558 33.504C169.078 32.48 168.838 31.248 168.838 29.808C168.838 28.432 169.11 27.248 169.654 26.256C170.23 25.264 170.998 24.464 171.958 23.856C172.918 23.248 174.038 22.8 175.318 22.512C176.598 22.224 177.942 22.08 179.35 22.08C179.798 22.08 180.262 22.112 180.742 22.176C181.222 22.208 181.67 22.272 182.086 22.368C182.534 22.432 182.918 22.496 183.238 22.56C183.558 22.624 183.782 22.672 183.91 22.704V21.456C183.91 20.72 183.83 20 183.67 19.296C183.51 18.56 183.222 17.92 182.806 17.376C182.39 16.8 181.814 16.352 181.078 16.032C180.374 15.68 179.446 15.504 178.294 15.504C176.822 15.504 175.526 15.616 174.406 15.84C173.318 16.032 172.502 16.24 171.958 16.464L171.43 12.768C172.006 12.512 172.966 12.272 174.31 12.048C175.654 11.792 177.11 11.664 178.678 11.664Z" fill="white"/>
<path d="M209.901 17.568C209.357 17.12 208.573 16.688 207.549 16.272C206.525 15.856 205.405 15.648 204.189 15.648C202.909 15.648 201.805 15.888 200.877 16.368C199.981 16.816 199.245 17.456 198.669 18.288C198.093 19.088 197.677 20.048 197.421 21.168C197.165 22.288 197.037 23.488 197.037 24.768C197.037 27.68 197.757 29.936 199.197 31.536C200.637 33.104 202.557 33.888 204.957 33.888C206.173 33.888 207.181 33.84 207.981 33.744C208.813 33.616 209.453 33.488 209.901 33.36V17.568ZM209.901 0.767999L214.365 0V36.528C213.341 36.816 212.029 37.104 210.429 37.392C208.829 37.68 206.989 37.824 204.909 37.824C202.989 37.824 201.261 37.52 199.725 36.912C198.189 36.304 196.877 35.44 195.789 34.32C194.701 33.2 193.853 31.84 193.245 30.24C192.669 28.608 192.381 26.784 192.381 24.768C192.381 22.848 192.621 21.088 193.101 19.488C193.613 17.888 194.349 16.512 195.309 15.36C196.269 14.208 197.437 13.312 198.813 12.672C200.221 12.032 201.821 11.712 203.613 11.712C205.053 11.712 206.317 11.904 207.405 12.288C208.525 12.672 209.357 13.04 209.901 13.392V0.767999Z" fill="white"/>
<path d="M218.726 24.816C218.726 22.608 219.046 20.688 219.686 19.056C220.326 17.392 221.174 16.016 222.23 14.928C223.286 13.84 224.502 13.024 225.878 12.48C227.254 11.936 228.662 11.664 230.102 11.664C233.462 11.664 236.038 12.72 237.83 14.832C239.622 16.912 240.518 20.096 240.518 24.384C240.518 24.576 240.518 24.832 240.518 25.152C240.518 25.44 240.502 25.712 240.47 25.968H223.382C223.574 28.56 224.326 30.528 225.638 31.872C226.95 33.216 228.998 33.888 231.782 33.888C233.35 33.888 234.662 33.76 235.718 33.504C236.806 33.216 237.622 32.944 238.166 32.688L238.79 36.432C238.246 36.72 237.286 37.024 235.91 37.344C234.566 37.664 233.03 37.824 231.302 37.824C229.126 37.824 227.238 37.504 225.638 36.864C224.07 36.192 222.774 35.28 221.75 34.128C220.726 32.976 219.958 31.616 219.446 30.048C218.966 28.448 218.726 26.704 218.726 24.816ZM235.862 22.368C235.894 20.352 235.382 18.704 234.326 17.424C233.302 16.112 231.878 15.456 230.054 15.456C229.03 15.456 228.118 15.664 227.318 16.08C226.55 16.464 225.894 16.976 225.35 17.616C224.806 18.256 224.374 18.992 224.054 19.824C223.766 20.656 223.574 21.504 223.478 22.368H235.862Z" fill="white"/>
<path d="M254.227 11.76C254.611 11.76 255.043 11.792 255.523 11.856C256.035 11.888 256.531 11.952 257.011 12.048C257.491 12.112 257.923 12.192 258.307 12.288C258.723 12.352 259.027 12.416 259.219 12.48L258.451 16.368C258.099 16.24 257.507 16.096 256.675 15.936C255.875 15.744 254.835 15.648 253.555 15.648C252.723 15.648 251.891 15.744 251.059 15.936C250.259 16.096 249.731 16.208 249.475 16.272V37.248H245.011V13.344C246.067 12.96 247.379 12.608 248.947 12.288C250.515 11.936 252.275 11.76 254.227 11.76Z" fill="white"/>
</g>
</g>
</svg>
