<svg width="414" height="60" viewBox="0 0 414 60" fill="none" xmlns="http://www.w3.org/2000/svg">
<g id="logo / sub-brand / deriv careers / brand-light" clip-path="url(#clip0_2091_28)">
<g id="wordmark">
<path d="M34.9861 1.82853L31.9963 18.7839H21.6179C11.9356 18.7839 2.70673 26.6285 0.996224 36.3108L0.272218 40.4319C-1.43032 50.1143 5.02984 57.959 14.7122 57.959H23.3682C30.4251 57.959 37.1479 52.2464 38.389 45.1897L46.3608 0L34.9861 1.82853ZM27.6221 43.5905C27.2402 45.7704 25.2776 47.5447 23.0977 47.5447H17.8389C13.487 47.5447 10.5752 44.012 11.3389 39.6522L11.7924 37.0825C12.5641 32.7306 16.7171 29.1902 21.069 29.1902H30.1613L27.6221 43.5905ZM114.914 57.9581L121.724 19.324H132.496L125.686 57.9581H114.905H114.914ZM116.079 19.7695C115.539 22.8339 114.997 25.8983 114.457 28.9627C109.353 27.3768 104.088 27.8818 102.47 28.2044C100.723 38.1247 98.9739 48.0474 97.2245 57.9677H86.4451C87.9089 49.6671 92.9099 21.3197 92.9099 21.3197C96.4158 19.8679 105.025 16.9214 116.079 19.7695ZM72.4022 18.7773H64.0168C55.8461 18.7773 48.0576 25.3966 46.6173 33.5673L44.9228 43.1702C43.4827 51.3408 48.9327 57.9603 57.1034 57.9603H74.9405L76.7704 47.5778H60.007C57.2863 47.5778 55.4642 45.3739 55.9497 42.6451L56.0054 42.3189H83.0316L84.575 33.5673C86.0148 25.3966 80.5651 18.7773 72.3944 18.7773H72.4022ZM73.7628 32.7399L73.6992 33.2968H57.6285L57.716 32.8036C58.201 30.0827 60.6835 27.688 63.4121 27.688H69.6894C72.3865 27.688 74.2086 30.0429 73.7628 32.7399ZM174.527 19.324C170.855 29.0872 162.439 45.6953 154.287 57.9581H143.507C139.765 46.2868 137.349 30.0248 136.888 19.324H147.668C147.862 22.8146 149.425 35.7617 151.208 44.8066C156.1 36.0072 161.492 24.4623 163.739 19.324H174.527Z" fill="#FF444F"/>
<path d="M210.648 59.08C207.144 59.08 203.952 58.504 201.072 57.352C198.192 56.2 195.72 54.52 193.656 52.312C191.592 50.104 189.984 47.392 188.832 44.176C187.728 40.912 187.176 37.192 187.176 33.016C187.176 28.84 187.8 25.144 189.048 21.928C190.344 18.664 192.072 15.928 194.232 13.72C196.392 11.512 198.912 9.832 201.792 8.68C204.672 7.528 207.744 6.952 211.008 6.952C213.072 6.952 214.92 7.096 216.552 7.384C218.232 7.672 219.672 8.008 220.872 8.392C222.12 8.776 223.128 9.16 223.896 9.544C224.664 9.928 225.192 10.216 225.48 10.408L223.464 16.168C223.032 15.88 222.408 15.568 221.592 15.232C220.776 14.896 219.84 14.56 218.784 14.224C217.776 13.888 216.648 13.624 215.4 13.432C214.2 13.192 212.976 13.072 211.728 13.072C209.088 13.072 206.712 13.528 204.6 14.44C202.488 15.352 200.688 16.672 199.2 18.4C197.712 20.128 196.56 22.24 195.744 24.736C194.976 27.184 194.592 29.944 194.592 33.016C194.592 35.992 194.928 38.704 195.6 41.152C196.32 43.6 197.376 45.712 198.768 47.488C200.16 49.216 201.888 50.56 203.952 51.52C206.064 52.48 208.512 52.96 211.296 52.96C214.512 52.96 217.176 52.624 219.288 51.952C221.4 51.28 222.984 50.68 224.04 50.152L225.84 55.912C225.504 56.152 224.904 56.464 224.04 56.848C223.176 57.184 222.096 57.52 220.8 57.856C219.504 58.192 217.992 58.48 216.264 58.72C214.536 58.96 212.664 59.08 210.648 59.08Z" fill="#414652"/>
<path d="M243.2 53.176C244.784 53.176 246.176 53.152 247.376 53.104C248.624 53.008 249.656 52.864 250.472 52.672V41.512C249.992 41.272 249.2 41.08 248.096 40.936C247.04 40.744 245.744 40.648 244.208 40.648C243.2 40.648 242.12 40.72 240.968 40.864C239.864 41.008 238.832 41.32 237.872 41.8C236.96 42.232 236.192 42.856 235.568 43.672C234.944 44.44 234.632 45.472 234.632 46.768C234.632 49.168 235.4 50.848 236.936 51.808C238.472 52.72 240.56 53.176 243.2 53.176ZM242.624 19.624C245.312 19.624 247.568 19.984 249.392 20.704C251.264 21.376 252.752 22.36 253.856 23.656C255.008 24.904 255.824 26.416 256.304 28.192C256.784 29.92 257.024 31.84 257.024 33.952V57.352C256.448 57.448 255.632 57.592 254.576 57.784C253.568 57.928 252.416 58.072 251.12 58.216C249.824 58.36 248.408 58.48 246.872 58.576C245.384 58.72 243.896 58.792 242.408 58.792C240.296 58.792 238.352 58.576 236.576 58.144C234.8 57.712 233.264 57.04 231.968 56.128C230.672 55.168 229.664 53.92 228.944 52.384C228.224 50.848 227.864 49 227.864 46.84C227.864 44.776 228.272 43 229.088 41.512C229.952 40.024 231.104 38.824 232.544 37.912C233.984 37 235.664 36.328 237.584 35.896C239.504 35.464 241.52 35.248 243.632 35.248C244.304 35.248 245 35.296 245.72 35.392C246.44 35.44 247.112 35.536 247.736 35.68C248.408 35.776 248.984 35.872 249.464 35.968C249.944 36.064 250.28 36.136 250.472 36.184V34.312C250.472 33.208 250.352 32.128 250.112 31.072C249.872 29.968 249.44 29.008 248.816 28.192C248.192 27.328 247.328 26.656 246.224 26.176C245.168 25.648 243.776 25.384 242.048 25.384C239.84 25.384 237.896 25.552 236.216 25.888C234.584 26.176 233.36 26.488 232.544 26.824L231.752 21.28C232.616 20.896 234.056 20.536 236.072 20.2C238.088 19.816 240.272 19.624 242.624 19.624Z" fill="#414652"/>
<path d="M279.09 19.768C279.666 19.768 280.314 19.816 281.034 19.912C281.802 19.96 282.546 20.056 283.266 20.2C283.986 20.296 284.634 20.416 285.21 20.56C285.834 20.656 286.29 20.752 286.578 20.848L285.426 26.68C284.898 26.488 284.01 26.272 282.762 26.032C281.562 25.744 280.002 25.6 278.082 25.6C276.834 25.6 275.586 25.744 274.338 26.032C273.138 26.272 272.346 26.44 271.962 26.536V58H265.266V22.144C266.85 21.568 268.818 21.04 271.17 20.56C273.522 20.032 276.162 19.768 279.09 19.768Z" fill="#414652"/>
<path d="M288.071 39.352C288.071 36.04 288.551 33.16 289.511 30.712C290.471 28.216 291.743 26.152 293.327 24.52C294.911 22.888 296.735 21.664 298.799 20.848C300.863 20.032 302.975 19.624 305.135 19.624C310.175 19.624 314.039 21.208 316.727 24.376C319.415 27.496 320.759 32.272 320.759 38.704C320.759 38.992 320.759 39.376 320.759 39.856C320.759 40.288 320.735 40.696 320.687 41.08H295.055C295.343 44.968 296.471 47.92 298.439 49.936C300.407 51.952 303.479 52.96 307.655 52.96C310.007 52.96 311.975 52.768 313.559 52.384C315.191 51.952 316.415 51.544 317.231 51.16L318.167 56.776C317.351 57.208 315.911 57.664 313.847 58.144C311.831 58.624 309.527 58.864 306.935 58.864C303.671 58.864 300.839 58.384 298.439 57.424C296.087 56.416 294.143 55.048 292.607 53.32C291.071 51.592 289.919 49.552 289.151 47.2C288.431 44.8 288.071 42.184 288.071 39.352ZM313.775 35.68C313.823 32.656 313.055 30.184 311.471 28.264C309.935 26.296 307.799 25.312 305.063 25.312C303.527 25.312 302.159 25.624 300.959 26.248C299.807 26.824 298.823 27.592 298.007 28.552C297.191 29.512 296.543 30.616 296.063 31.864C295.631 33.112 295.343 34.384 295.199 35.68H313.775Z" fill="#414652"/>
<path d="M325.41 39.352C325.41 36.04 325.89 33.16 326.85 30.712C327.81 28.216 329.082 26.152 330.666 24.52C332.25 22.888 334.074 21.664 336.138 20.848C338.202 20.032 340.314 19.624 342.474 19.624C347.514 19.624 351.378 21.208 354.066 24.376C356.754 27.496 358.098 32.272 358.098 38.704C358.098 38.992 358.098 39.376 358.098 39.856C358.098 40.288 358.074 40.696 358.026 41.08H332.394C332.682 44.968 333.81 47.92 335.778 49.936C337.746 51.952 340.818 52.96 344.994 52.96C347.346 52.96 349.314 52.768 350.898 52.384C352.53 51.952 353.754 51.544 354.57 51.16L355.506 56.776C354.69 57.208 353.25 57.664 351.186 58.144C349.17 58.624 346.866 58.864 344.274 58.864C341.01 58.864 338.178 58.384 335.778 57.424C333.426 56.416 331.482 55.048 329.946 53.32C328.41 51.592 327.258 49.552 326.49 47.2C325.77 44.8 325.41 42.184 325.41 39.352ZM351.114 35.68C351.162 32.656 350.394 30.184 348.81 28.264C347.274 26.296 345.138 25.312 342.402 25.312C340.866 25.312 339.498 25.624 338.298 26.248C337.146 26.824 336.162 27.592 335.346 28.552C334.53 29.512 333.882 30.616 333.402 31.864C332.97 33.112 332.682 34.384 332.538 35.68H351.114Z" fill="#414652"/>
<path d="M378.661 19.768C379.237 19.768 379.885 19.816 380.605 19.912C381.373 19.96 382.117 20.056 382.837 20.2C383.557 20.296 384.205 20.416 384.781 20.56C385.405 20.656 385.861 20.752 386.149 20.848L384.997 26.68C384.469 26.488 383.581 26.272 382.333 26.032C381.133 25.744 379.573 25.6 377.653 25.6C376.405 25.6 375.157 25.744 373.909 26.032C372.709 26.272 371.917 26.44 371.533 26.536V58H364.837V22.144C366.421 21.568 368.389 21.04 370.741 20.56C373.093 20.032 375.733 19.768 378.661 19.768Z" fill="#414652"/>
<path d="M398.442 53.176C401.178 53.176 403.194 52.816 404.49 52.096C405.834 51.376 406.506 50.224 406.506 48.64C406.506 47.008 405.858 45.712 404.562 44.752C403.266 43.792 401.13 42.712 398.154 41.512C396.714 40.936 395.322 40.36 393.978 39.784C392.682 39.16 391.554 38.44 390.594 37.624C389.634 36.808 388.866 35.824 388.29 34.672C387.714 33.52 387.426 32.104 387.426 30.424C387.426 27.112 388.65 24.496 391.098 22.576C393.546 20.608 396.882 19.624 401.106 19.624C402.162 19.624 403.218 19.696 404.274 19.84C405.33 19.936 406.314 20.08 407.226 20.272C408.138 20.416 408.93 20.584 409.602 20.776C410.322 20.968 410.874 21.136 411.258 21.28L410.034 27.04C409.314 26.656 408.186 26.272 406.65 25.888C405.114 25.456 403.266 25.24 401.106 25.24C399.234 25.24 397.602 25.624 396.21 26.392C394.818 27.112 394.122 28.264 394.122 29.848C394.122 30.664 394.266 31.384 394.554 32.008C394.89 32.632 395.37 33.208 395.994 33.736C396.666 34.216 397.482 34.672 398.442 35.104C399.402 35.536 400.554 35.992 401.898 36.472C403.674 37.144 405.258 37.816 406.65 38.488C408.042 39.112 409.218 39.856 410.178 40.72C411.186 41.584 411.954 42.64 412.482 43.888C413.01 45.088 413.274 46.576 413.274 48.352C413.274 51.808 411.978 54.424 409.386 56.2C406.842 57.976 403.194 58.864 398.442 58.864C395.13 58.864 392.538 58.576 390.666 58C388.794 57.472 387.522 57.064 386.85 56.776L388.074 51.016C388.842 51.304 390.066 51.736 391.746 52.312C393.426 52.888 395.658 53.176 398.442 53.176Z" fill="#414652"/>
</g>
</g>
<defs>
<clipPath id="clip0_2091_28">
<rect width="414" height="60" fill="white"/>
</clipPath>
</defs>
</svg>
