<svg width="558" height="70" viewBox="0 0 558 70" fill="none" xmlns="http://www.w3.org/2000/svg">
<g id="logo / sub-brand / brand-dark / partners academy">
<g id="Vector">
<path d="M14.976 5.4C22.416 5.4 28.128 6.72 32.112 9.36C36.096 11.952 38.088 16.224 38.088 22.176C38.088 28.176 36.072 32.52 32.04 35.208C28.008 37.848 22.248 39.168 14.76 39.168H11.232V55.872H0V6.696C2.448 6.216 5.04 5.88 7.776 5.688C10.512 5.496 12.912 5.4 14.976 5.4ZM15.696 14.976C14.88 14.976 14.064 15 13.248 15.048C12.48 15.096 11.808 15.144 11.232 15.192V29.592H14.76C18.648 29.592 21.576 29.064 23.544 28.008C25.512 26.952 26.496 24.984 26.496 22.104C26.496 20.712 26.232 19.56 25.704 18.648C25.224 17.736 24.504 17.016 23.544 16.488C22.632 15.912 21.504 15.528 20.16 15.336C18.816 15.096 17.328 14.976 15.696 14.976Z" fill="#FF444F"/>
<path d="M55.8017 48.384C56.8577 48.384 57.8657 48.36 58.8257 48.312C59.7857 48.264 60.5537 48.192 61.1297 48.096V39.96C60.6977 39.864 60.0497 39.768 59.1857 39.672C58.3217 39.576 57.5297 39.528 56.8097 39.528C55.8017 39.528 54.8417 39.6 53.9297 39.744C53.0657 39.84 52.2977 40.056 51.6257 40.392C50.9537 40.728 50.4257 41.184 50.0417 41.76C49.6577 42.336 49.4657 43.056 49.4657 43.92C49.4657 45.6 50.0177 46.776 51.1217 47.448C52.2737 48.072 53.8337 48.384 55.8017 48.384ZM54.9377 16.992C58.1057 16.992 60.7457 17.352 62.8577 18.072C64.9697 18.792 66.6497 19.824 67.8977 21.168C69.1937 22.512 70.1057 24.144 70.6337 26.064C71.1617 27.984 71.4257 30.12 71.4257 32.472V54.792C69.8897 55.128 67.7537 55.512 65.0177 55.944C62.2817 56.424 58.9697 56.664 55.0817 56.664C52.6337 56.664 50.4017 56.448 48.3857 56.016C46.4177 55.584 44.7137 54.888 43.2737 53.928C41.8337 52.92 40.7297 51.624 39.9617 50.04C39.1937 48.456 38.8097 46.512 38.8097 44.208C38.8097 42 39.2417 40.128 40.1057 38.592C41.0177 37.056 42.2177 35.832 43.7057 34.92C45.1937 34.008 46.8977 33.36 48.8177 32.976C50.7377 32.544 52.7297 32.328 54.7937 32.328C56.1857 32.328 57.4097 32.4 58.4657 32.544C59.5697 32.64 60.4577 32.784 61.1297 32.976V31.968C61.1297 30.144 60.5777 28.68 59.4737 27.576C58.3697 26.472 56.4497 25.92 53.7137 25.92C51.8897 25.92 50.0897 26.064 48.3137 26.352C46.5377 26.592 45.0017 26.952 43.7057 27.432L42.3377 18.792C42.9617 18.6 43.7297 18.408 44.6417 18.216C45.6017 17.976 46.6337 17.784 47.7377 17.64C48.8417 17.448 49.9937 17.304 51.1937 17.208C52.4417 17.064 53.6897 16.992 54.9377 16.992Z" fill="#FF444F"/>
<path d="M101.071 27.504C100.111 27.264 98.9826 27.024 97.6866 26.784C96.3906 26.496 94.9986 26.352 93.5106 26.352C92.8386 26.352 92.0226 26.424 91.0626 26.568C90.1506 26.664 89.4546 26.784 88.9746 26.928V55.872H78.2466V20.016C80.1666 19.344 82.4226 18.72 85.0146 18.144C87.6546 17.52 90.5826 17.208 93.7986 17.208C94.3746 17.208 95.0706 17.256 95.8866 17.352C96.7026 17.4 97.5186 17.496 98.3346 17.64C99.1506 17.736 99.9666 17.88 100.783 18.072C101.599 18.216 102.295 18.408 102.871 18.648L101.071 27.504Z" fill="#FF444F"/>
<path d="M105.382 8.568L116.11 6.84V18H128.998V26.928H116.11V40.248C116.11 42.504 116.494 44.304 117.262 45.648C118.078 46.992 119.686 47.664 122.086 47.664C123.238 47.664 124.414 47.568 125.614 47.376C126.862 47.136 127.99 46.824 128.998 46.44L130.51 54.792C129.214 55.32 127.774 55.776 126.19 56.16C124.606 56.544 122.662 56.736 120.358 56.736C117.43 56.736 115.006 56.352 113.086 55.584C111.166 54.768 109.63 53.664 108.478 52.272C107.326 50.832 106.51 49.104 106.03 47.088C105.598 45.072 105.382 42.84 105.382 40.392V8.568Z" fill="#FF444F"/>
<path d="M134.854 19.296C136.678 18.768 139.03 18.288 141.91 17.856C144.79 17.376 147.814 17.136 150.982 17.136C154.198 17.136 156.862 17.568 158.974 18.432C161.134 19.248 162.838 20.424 164.086 21.96C165.334 23.496 166.222 25.32 166.75 27.432C167.278 29.544 167.542 31.896 167.542 34.488V55.872H156.814V35.784C156.814 32.328 156.358 29.88 155.446 28.44C154.534 27 152.83 26.28 150.334 26.28C149.566 26.28 148.75 26.328 147.886 26.424C147.022 26.472 146.254 26.544 145.582 26.64V55.872H134.854V19.296Z" fill="#FF444F"/>
<path d="M172.572 37.224C172.572 33.864 173.076 30.936 174.084 28.44C175.14 25.896 176.508 23.784 178.188 22.104C179.868 20.424 181.788 19.152 183.948 18.288C186.156 17.424 188.412 16.992 190.716 16.992C196.092 16.992 200.34 18.648 203.46 21.96C206.58 25.224 208.14 30.048 208.14 36.432C208.14 37.056 208.116 37.752 208.068 38.52C208.02 39.24 207.972 39.888 207.924 40.464H183.588C183.828 42.672 184.86 44.424 186.684 45.72C188.508 47.016 190.956 47.664 194.028 47.664C195.996 47.664 197.916 47.496 199.788 47.16C201.708 46.776 203.268 46.32 204.468 45.792L205.908 54.504C205.332 54.792 204.564 55.08 203.604 55.368C202.644 55.656 201.564 55.896 200.364 56.088C199.212 56.328 197.964 56.52 196.62 56.664C195.276 56.808 193.932 56.88 192.588 56.88C189.18 56.88 186.204 56.376 183.66 55.368C181.164 54.36 179.076 52.992 177.396 51.264C175.764 49.488 174.54 47.4 173.724 45C172.956 42.6 172.572 40.008 172.572 37.224ZM197.772 33.12C197.724 32.208 197.556 31.32 197.268 30.456C197.028 29.592 196.62 28.824 196.044 28.152C195.516 27.48 194.82 26.928 193.956 26.496C193.14 26.064 192.108 25.848 190.86 25.848C189.66 25.848 188.628 26.064 187.764 26.496C186.9 26.88 186.18 27.408 185.604 28.08C185.028 28.752 184.572 29.544 184.236 30.456C183.948 31.32 183.732 32.208 183.588 33.12H197.772Z" fill="#FF444F"/>
<path d="M236.363 27.504C235.403 27.264 234.275 27.024 232.979 26.784C231.683 26.496 230.291 26.352 228.803 26.352C228.131 26.352 227.315 26.424 226.355 26.568C225.443 26.664 224.747 26.784 224.267 26.928V55.872H213.539V20.016C215.459 19.344 217.715 18.72 220.307 18.144C222.947 17.52 225.875 17.208 229.091 17.208C229.667 17.208 230.363 17.256 231.179 17.352C231.995 17.4 232.811 17.496 233.627 17.64C234.443 17.736 235.259 17.88 236.075 18.072C236.891 18.216 237.587 18.408 238.163 18.648L236.363 27.504Z" fill="#FF444F"/>
<path d="M251.906 48.168C253.874 48.168 255.266 47.976 256.082 47.592C256.898 47.208 257.306 46.464 257.306 45.36C257.306 44.496 256.778 43.752 255.722 43.128C254.666 42.456 253.058 41.712 250.898 40.896C249.218 40.272 247.682 39.624 246.29 38.952C244.946 38.28 243.794 37.488 242.834 36.576C241.874 35.616 241.13 34.488 240.602 33.192C240.074 31.896 239.81 30.336 239.81 28.512C239.81 24.96 241.13 22.152 243.77 20.088C246.41 18.024 250.034 16.992 254.642 16.992C256.946 16.992 259.154 17.208 261.266 17.64C263.378 18.024 265.058 18.456 266.306 18.936L264.434 27.288C263.186 26.856 261.818 26.472 260.33 26.136C258.89 25.8 257.258 25.632 255.434 25.632C252.074 25.632 250.394 26.568 250.394 28.44C250.394 28.872 250.466 29.256 250.61 29.592C250.754 29.928 251.042 30.264 251.474 30.6C251.906 30.888 252.482 31.224 253.202 31.608C253.97 31.944 254.93 32.328 256.082 32.76C258.434 33.624 260.378 34.488 261.914 35.352C263.45 36.168 264.65 37.08 265.514 38.088C266.426 39.048 267.05 40.128 267.386 41.328C267.77 42.528 267.962 43.92 267.962 45.504C267.962 49.248 266.546 52.08 263.714 54C260.93 55.92 256.97 56.88 251.834 56.88C248.474 56.88 245.666 56.592 243.41 56.016C241.202 55.44 239.666 54.96 238.802 54.576L240.602 45.864C242.426 46.584 244.298 47.16 246.218 47.592C248.138 47.976 250.034 48.168 251.906 48.168Z" fill="#FF444F"/>
<path d="M318.768 55.872C317.952 53.712 317.184 51.6 316.464 49.536C315.744 47.424 315 45.288 314.232 43.128H291.624L287.088 55.872H279.816C281.736 50.592 283.536 45.72 285.216 41.256C286.896 36.744 288.528 32.472 290.112 28.44C291.744 24.408 293.352 20.568 294.936 16.92C296.52 13.224 298.176 9.576 299.904 5.976H306.312C308.04 9.576 309.696 13.224 311.28 16.92C312.864 20.568 314.448 24.408 316.032 28.44C317.664 32.472 319.32 36.744 321 41.256C322.68 45.72 324.48 50.592 326.4 55.872H318.768ZM312.216 37.368C310.68 33.192 309.144 29.16 307.608 25.272C306.12 21.336 304.56 17.568 302.928 13.968C301.248 17.568 299.64 21.336 298.104 25.272C296.616 29.16 295.128 33.192 293.64 37.368H312.216Z" fill="white"/>
<path d="M345.22 56.736C342.196 56.736 339.532 56.256 337.228 55.296C334.972 54.336 333.052 52.992 331.468 51.264C329.932 49.536 328.78 47.496 328.012 45.144C327.244 42.744 326.86 40.104 326.86 37.224C326.86 34.344 327.268 31.704 328.084 29.304C328.948 26.904 330.148 24.84 331.684 23.112C333.22 21.336 335.092 19.968 337.3 19.008C339.556 18 342.052 17.496 344.788 17.496C346.468 17.496 348.148 17.64 349.828 17.928C351.508 18.216 353.116 18.672 354.652 19.296L353.14 24.984C352.132 24.504 350.956 24.12 349.612 23.832C348.316 23.544 346.924 23.4 345.436 23.4C341.692 23.4 338.812 24.576 336.796 26.928C334.828 29.28 333.844 32.712 333.844 37.224C333.844 39.24 334.06 41.088 334.492 42.768C334.972 44.448 335.692 45.888 336.652 47.088C337.66 48.288 338.932 49.224 340.468 49.896C342.004 50.52 343.876 50.832 346.084 50.832C347.86 50.832 349.468 50.664 350.908 50.328C352.348 49.992 353.476 49.632 354.292 49.248L355.228 54.864C354.844 55.104 354.292 55.344 353.572 55.584C352.852 55.776 352.036 55.944 351.124 56.088C350.212 56.28 349.228 56.424 348.172 56.52C347.164 56.664 346.18 56.736 345.22 56.736Z" fill="white"/>
<path d="M372.209 51.048C373.793 51.048 375.185 51.024 376.385 50.976C377.633 50.88 378.665 50.736 379.481 50.544V39.384C379.001 39.144 378.209 38.952 377.105 38.808C376.049 38.616 374.753 38.52 373.217 38.52C372.209 38.52 371.129 38.592 369.977 38.736C368.873 38.88 367.841 39.192 366.881 39.672C365.969 40.104 365.201 40.728 364.577 41.544C363.953 42.312 363.641 43.344 363.641 44.64C363.641 47.04 364.409 48.72 365.945 49.68C367.481 50.592 369.569 51.048 372.209 51.048ZM371.633 17.496C374.321 17.496 376.577 17.856 378.401 18.576C380.273 19.248 381.761 20.232 382.865 21.528C384.017 22.776 384.833 24.288 385.313 26.064C385.793 27.792 386.033 29.712 386.033 31.824V55.224C385.457 55.32 384.641 55.464 383.585 55.656C382.577 55.8 381.425 55.944 380.129 56.088C378.833 56.232 377.417 56.352 375.881 56.448C374.393 56.592 372.905 56.664 371.417 56.664C369.305 56.664 367.361 56.448 365.585 56.016C363.809 55.584 362.273 54.912 360.977 54C359.681 53.04 358.673 51.792 357.953 50.256C357.233 48.72 356.873 46.872 356.873 44.712C356.873 42.648 357.281 40.872 358.097 39.384C358.961 37.896 360.113 36.696 361.553 35.784C362.993 34.872 364.673 34.2 366.593 33.768C368.513 33.336 370.529 33.12 372.641 33.12C373.313 33.12 374.009 33.168 374.729 33.264C375.449 33.312 376.121 33.408 376.745 33.552C377.417 33.648 377.993 33.744 378.473 33.84C378.953 33.936 379.289 34.008 379.481 34.056V32.184C379.481 31.08 379.361 30 379.121 28.944C378.881 27.84 378.449 26.88 377.825 26.064C377.201 25.2 376.337 24.528 375.233 24.048C374.177 23.52 372.785 23.256 371.057 23.256C368.849 23.256 366.905 23.424 365.225 23.76C363.593 24.048 362.369 24.36 361.553 24.696L360.761 19.152C361.625 18.768 363.065 18.408 365.081 18.072C367.097 17.688 369.281 17.496 371.633 17.496Z" fill="white"/>
<path d="M418.466 26.352C417.65 25.68 416.474 25.032 414.938 24.408C413.402 23.784 411.722 23.472 409.898 23.472C407.978 23.472 406.322 23.832 404.93 24.552C403.586 25.224 402.482 26.184 401.618 27.432C400.754 28.632 400.13 30.072 399.746 31.752C399.362 33.432 399.17 35.232 399.17 37.152C399.17 41.52 400.25 44.904 402.41 47.304C404.57 49.656 407.45 50.832 411.05 50.832C412.874 50.832 414.386 50.76 415.586 50.616C416.834 50.424 417.794 50.232 418.466 50.04V26.352ZM418.466 1.152L425.162 0V54.792C423.626 55.224 421.658 55.656 419.258 56.088C416.858 56.52 414.098 56.736 410.978 56.736C408.098 56.736 405.506 56.28 403.202 55.368C400.898 54.456 398.93 53.16 397.298 51.48C395.666 49.8 394.394 47.76 393.482 45.36C392.618 42.912 392.186 40.176 392.186 37.152C392.186 34.272 392.546 31.632 393.266 29.232C394.034 26.832 395.138 24.768 396.578 23.04C398.018 21.312 399.77 19.968 401.834 19.008C403.946 18.048 406.346 17.568 409.034 17.568C411.194 17.568 413.09 17.856 414.722 18.432C416.402 19.008 417.65 19.56 418.466 20.088V1.152Z" fill="white"/>
<path d="M431.704 37.224C431.704 33.912 432.185 31.032 433.145 28.584C434.104 26.088 435.376 24.024 436.961 22.392C438.545 20.76 440.368 19.536 442.432 18.72C444.496 17.904 446.608 17.496 448.768 17.496C453.809 17.496 457.673 19.08 460.361 22.248C463.048 25.368 464.392 30.144 464.392 36.576C464.392 36.864 464.392 37.248 464.392 37.728C464.392 38.16 464.368 38.568 464.32 38.952H438.689C438.977 42.84 440.105 45.792 442.073 47.808C444.04 49.824 447.112 50.832 451.288 50.832C453.64 50.832 455.608 50.64 457.193 50.256C458.824 49.824 460.048 49.416 460.865 49.032L461.801 54.648C460.984 55.08 459.544 55.536 457.48 56.016C455.465 56.496 453.161 56.736 450.569 56.736C447.305 56.736 444.473 56.256 442.073 55.296C439.721 54.288 437.777 52.92 436.241 51.192C434.704 49.464 433.552 47.424 432.784 45.072C432.064 42.672 431.704 40.056 431.704 37.224ZM457.409 33.552C457.457 30.528 456.688 28.056 455.104 26.136C453.568 24.168 451.432 23.184 448.697 23.184C447.16 23.184 445.793 23.496 444.592 24.12C443.44 24.696 442.457 25.464 441.641 26.424C440.824 27.384 440.177 28.488 439.697 29.736C439.264 30.984 438.977 32.256 438.832 33.552H457.409Z" fill="white"/>
<path d="M471.131 19.512C472.667 19.128 474.683 18.72 477.179 18.288C479.723 17.856 482.651 17.64 485.963 17.64C488.363 17.64 490.379 17.976 492.011 18.648C493.643 19.272 495.011 20.208 496.115 21.456C496.451 21.216 496.979 20.88 497.699 20.448C498.419 20.016 499.307 19.608 500.363 19.224C501.419 18.792 502.595 18.432 503.891 18.144C505.187 17.808 506.579 17.64 508.067 17.64C510.947 17.64 513.299 18.072 515.123 18.936C516.947 19.752 518.363 20.928 519.371 22.464C520.427 24 521.123 25.824 521.459 27.936C521.843 30.048 522.035 32.352 522.035 34.848V55.872H515.339V36.288C515.339 34.08 515.219 32.184 514.979 30.6C514.787 29.016 514.379 27.696 513.755 26.64C513.179 25.584 512.363 24.816 511.307 24.336C510.299 23.808 508.979 23.544 507.347 23.544C505.091 23.544 503.219 23.856 501.731 24.48C500.291 25.056 499.307 25.584 498.779 26.064C499.163 27.312 499.451 28.68 499.643 30.168C499.835 31.656 499.931 33.216 499.931 34.848V55.872H493.235V36.288C493.235 34.08 493.115 32.184 492.875 30.6C492.635 29.016 492.203 27.696 491.579 26.64C491.003 25.584 490.187 24.816 489.131 24.336C488.123 23.808 486.827 23.544 485.243 23.544C484.571 23.544 483.851 23.568 483.083 23.616C482.315 23.664 481.571 23.736 480.851 23.832C480.179 23.88 479.555 23.952 478.979 24.048C478.403 24.144 478.019 24.216 477.827 24.264V55.872H471.131V19.512Z" fill="white"/>
<path d="M524.609 62.856C525.137 63.096 525.809 63.312 526.625 63.504C527.489 63.744 528.329 63.864 529.145 63.864C531.785 63.864 533.849 63.264 535.337 62.064C536.825 60.912 538.169 59.016 539.369 56.376C536.345 50.616 533.513 44.52 530.873 38.088C528.281 31.608 526.121 25.056 524.393 18.432H531.593C532.121 20.592 532.745 22.92 533.465 25.416C534.233 27.912 535.073 30.48 535.985 33.12C536.897 35.76 537.881 38.4 538.937 41.04C539.993 43.68 541.097 46.224 542.249 48.672C544.073 43.632 545.657 38.64 547.001 33.696C548.345 28.752 549.617 23.664 550.817 18.432H557.729C556.001 25.488 554.081 32.28 551.969 38.808C549.857 45.288 547.577 51.36 545.129 57.024C544.169 59.184 543.161 61.032 542.105 62.568C541.097 64.152 539.969 65.448 538.721 66.456C537.473 67.464 536.057 68.208 534.473 68.688C532.937 69.168 531.185 69.408 529.217 69.408C528.689 69.408 528.137 69.36 527.561 69.264C526.985 69.216 526.409 69.12 525.833 68.976C525.305 68.88 524.801 68.76 524.321 68.616C523.889 68.472 523.577 68.352 523.385 68.256L524.609 62.856Z" fill="white"/>
</g>
</g>
</svg>
