<svg width="175" height="72" viewBox="0 0 175 72" fill="none" xmlns="http://www.w3.org/2000/svg">
<g id="logo / brand / teal / deriv-wordmark vertical-25 years-arabic">
<g id="logo">
<path d="M69.2605 42.0384C67.7704 40.6268 65.888 39.464 63.6132 38.5483C61.3572 37.6414 58.5742 37.0546 55.4692 36.7898L56.8443 32.5559H46.149L42.0248 45.2539C45.6835 45.2539 49.1541 45.4501 51.691 45.8425C54.2271 46.2339 56.2531 46.7841 57.769 47.4894C59.2849 48.1948 60.3826 49.058 61.0638 50.0773C61.7433 51.0974 62.084 52.2343 62.084 53.4889C62.084 56.4699 61.0897 58.6653 59.103 60.0769C57.1162 61.4885 54.2405 62.1956 50.4756 62.1956C48.5406 62.1956 46.5271 61.9094 44.436 61.3333C42.3441 60.7591 39.5173 59.7006 37.6866 58.6029H3.16381C2.95515 58.9935 2.62524 59.73 2.43263 60.1331C1.28231 62.5398 0.471718 65.388 0 68.6829H34.4791C35.5545 69.2125 36.9429 69.5496 38.2002 69.9616C39.6377 70.4324 41.1019 70.8123 42.5919 71.0985C44.082 71.3848 45.5337 71.6086 46.9453 71.7656C48.3569 71.9225 49.6124 72.0001 50.7101 72.0001C54.4741 72.0001 57.7948 71.5418 60.6706 70.6277C63.5446 69.7128 65.9514 68.419 67.8864 66.7452C69.8205 65.0715 71.2713 63.0329 72.2397 60.628C73.2072 58.223 73.6914 55.5559 73.6914 52.6275C73.6914 50.5882 73.324 48.6674 72.5928 46.8635C71.8598 45.0596 70.7497 43.4518 69.2587 42.0393L69.2605 42.0384Z" fill="#00F1F1"/>
<path d="M50.9269 17.8675L47.649 27.9475L77.3993 27.9421L80.6755 17.8675H50.9269Z" fill="#00F1F1"/>
<path d="M42.5724 22.3208C41.8394 20.7522 40.8086 19.379 39.4746 18.2037C38.1414 17.0275 36.5729 16.1002 34.769 15.4198C32.965 14.7403 31.0166 14.4005 28.9255 14.4005C25.5789 14.4005 22.2787 14.7617 19.1996 15.9691C13.9866 18.0138 10.0399 21.5102 10.0399 21.5102L13.7886 29.9298C16.1936 28.1 18.4158 26.7276 20.4542 25.8127C22.4936 24.8987 24.5838 24.4404 26.7284 24.4404C28.2443 24.4404 29.4855 24.8987 30.4539 25.8127C31.4215 26.7285 31.9057 27.8664 31.9057 29.2245C31.9057 30.3231 31.6711 31.369 31.2003 32.3624C30.7295 33.3558 29.9849 34.416 28.9657 35.5387C27.9464 36.6632 26.6124 37.8919 24.9654 39.2251C23.3184 40.5582 21.3183 42.141 18.9651 43.9699C16.4549 45.9049 14.1284 47.7222 11.9838 49.4201C10.1799 50.8495 8.1753 52.3796 6.68613 53.9945H21.0865C21.5127 53.653 21.9416 53.3178 22.3768 52.9896C23.7616 51.9436 25.1732 50.9243 26.6116 49.931C28.049 48.9385 29.4739 47.8917 30.8855 46.7931C33.2905 44.9106 35.3165 43.2119 36.9635 41.6951C38.6105 40.1792 39.9302 38.6882 40.9254 37.224C41.9179 35.7607 42.6232 34.243 43.0432 32.6754C43.4605 31.1068 43.671 29.3305 43.671 27.342C43.671 25.5648 43.3036 23.8902 42.5724 22.3225L42.5741 22.3208H42.5724Z" fill="#00F1F1"/>
<path d="M101.331 0.563793L100.409 5.79104H97.2096C94.2242 5.79104 91.3787 8.20847 90.8526 11.1957L90.6297 12.4655C90.1035 15.451 92.0974 17.8702 95.082 17.8702H97.75C99.9258 17.8702 101.998 16.1091 102.381 13.9333L104.839 0.000244143L101.332 0.564664L101.331 0.563793ZM99.0617 13.4384C98.944 14.1107 98.3386 14.6583 97.6662 14.6583H96.045C94.703 14.6583 93.8059 13.5695 94.0405 12.2248L94.1796 11.4329C94.4168 10.0909 95.6973 8.99944 97.0393 8.99944H99.8429L99.059 13.4393H99.0608L99.0617 13.4384ZM125.975 17.8675L128.076 5.95602H131.396L129.296 17.8675H125.973H125.975ZM126.334 6.09422C126.167 7.03855 126 7.98375 125.834 8.92807C124.26 8.43852 122.637 8.59547 122.138 8.69356C121.599 11.7521 121.059 14.8125 120.521 17.8711H117.197C117.649 15.3119 119.19 6.5713 119.19 6.5713C120.272 6.12365 122.926 5.21496 126.335 6.0933V6.09509L126.334 6.09422ZM112.869 5.78747H110.284C107.765 5.78747 105.363 7.82773 104.92 10.3477L104.398 13.3082C103.954 15.8282 105.635 17.8684 108.153 17.8684H113.652L114.216 14.6672H109.048C108.209 14.6672 107.647 13.9877 107.797 13.1468L107.814 13.046H116.147L116.622 10.3477C117.066 7.82952 115.385 5.78747 112.867 5.78747H112.869ZM113.287 10.0936L113.267 10.2648H108.311L108.338 10.1123C108.488 9.27319 109.253 8.53573 110.095 8.53573H112.03C112.863 8.53573 113.425 9.2616 113.285 10.0936H113.287ZM144.356 5.95602C143.224 8.96556 140.629 14.0867 138.114 17.8675H134.791C133.637 14.2686 132.892 9.25448 132.751 5.95602H136.074C136.135 7.03143 136.615 11.0245 137.166 13.8129C138.674 11.1003 140.337 7.5406 141.029 5.95602H144.356Z" fill="#00F1F1"/>
<path d="M103.576 65.0336C100.592 65.0336 98.3273 64.7019 96.7801 64.0393C95.233 63.3768 94.1638 62.3451 93.5753 60.9451C92.9859 59.546 92.6542 57.7403 92.5811 55.5306L91.4762 25.3076H96.007L97.1119 53.7623C97.185 55.5672 97.3606 56.9582 97.6371 57.9337C97.9135 58.9101 98.5395 59.5825 99.5159 59.9508C100.491 60.3191 102.03 60.5037 104.13 60.5037C104.904 60.5037 105.465 60.7159 105.815 61.1394C106.165 61.563 106.34 62.0704 106.34 62.6589C106.34 63.2475 106.083 63.7914 105.567 64.289C105.051 64.7866 104.387 65.0344 103.578 65.0344L103.576 65.0336Z" fill="#00F1F1"/>
<path d="M113.633 31.1635V28.0693L126.009 24.423V27.5726L113.633 31.1635ZM113.633 36.9651V33.8708L126.009 30.2245V33.3741L113.633 36.9651Z" fill="#00F1F1"/>
<path d="M103.576 65.0336L104.129 60.5028C105.16 60.5028 106.026 60.2816 106.726 59.8393C107.425 59.397 108.107 58.6703 108.77 57.6573C109.434 56.6443 110.152 55.2541 110.925 53.4858C111.993 51.129 113.052 49.3421 114.102 48.1267C115.151 46.9112 116.201 46.0819 117.251 45.6405C118.301 45.1982 119.342 44.9771 120.373 44.9771C121.625 44.9771 122.785 45.2999 123.855 45.9437C124.923 46.5884 125.862 47.4454 126.672 48.5128C127.482 49.5819 128.118 50.7501 128.579 52.0216C129.039 53.2923 129.269 54.5551 129.269 55.8061C129.269 58.0158 128.882 59.776 128.109 61.0824C127.336 62.3906 126.35 63.3295 125.153 63.9002C123.955 64.4718 122.712 64.7563 121.424 64.7563C120.355 64.7563 119.001 64.5726 117.363 64.2034C115.724 63.836 113.669 62.8775 111.202 61.3303C110.022 63.0246 108.844 64.0652 107.665 64.4522C106.487 64.8392 105.124 65.0327 103.577 65.0327L103.576 65.0336ZM113.908 56.4142C113.687 56.8931 113.485 57.3532 113.301 57.7955C114.885 58.7167 116.33 59.3524 117.638 59.702C118.946 60.0524 120.042 60.2273 120.926 60.2273C122.51 60.2273 123.633 59.8777 124.297 59.1777C124.96 58.4786 125.291 57.5575 125.291 56.4152C125.291 55.3469 125.033 54.2795 124.517 53.2103C124.001 52.142 123.347 51.2583 122.555 50.5583C121.763 49.8592 120.925 49.5088 120.042 49.5088C119.379 49.5088 118.733 49.6934 118.107 50.0617C117.481 50.43 116.837 51.1112 116.173 52.1064C115.511 53.1006 114.755 54.5372 113.908 56.416V56.4142Z" fill="#00F1F1"/>
<path d="M148.662 65.0336C145.678 65.0336 143.413 64.7019 141.866 64.0393C140.319 63.3768 139.25 62.3451 138.661 60.9451C138.072 59.546 137.74 57.7403 137.667 55.5306L136.562 25.3076H141.093L142.198 53.7623C142.271 55.5672 142.447 56.9582 142.723 57.9337C143 58.9101 143.626 59.5825 144.602 59.9508C145.578 60.3191 147.116 60.5037 149.216 60.5037C149.99 60.5037 150.551 60.7159 150.901 61.1394C151.251 61.563 151.426 62.0704 151.426 62.6589C151.426 63.2475 151.169 63.7914 150.653 64.289C150.137 64.7866 149.473 65.0344 148.664 65.0344L148.662 65.0336Z" fill="#00F1F1"/>
<path d="M148.662 65.0336L149.215 60.5028C151.536 60.5028 153.331 60.4849 154.602 60.4475C155.872 60.4109 156.802 60.3646 157.392 60.3093C157.98 60.254 158.386 60.2263 158.607 60.2263C157.944 59.8589 157.171 59.2785 156.287 58.4857C155.403 57.6939 154.629 56.6818 153.966 55.4467C153.302 54.2135 152.972 52.7493 152.972 51.0542C152.972 48.9916 153.459 47.1591 154.436 45.5567C155.411 43.9543 156.756 42.7112 158.469 41.8276C160.182 40.9439 162.143 40.5016 164.353 40.5016C166.122 40.5016 167.945 40.7967 169.823 41.3853L168.884 45.6396C167.337 45.2348 165.827 45.0315 164.353 45.0315C162.327 45.0315 160.679 45.5754 159.408 46.6616C158.137 47.7486 157.501 49.2128 157.501 51.0542C157.501 52.2696 157.814 53.3468 158.44 54.2866C159.066 55.2256 159.849 56.0183 160.788 56.6621C161.727 57.3068 162.703 57.7946 163.717 58.1263C164.73 58.458 165.641 58.6052 166.452 58.5686C167.04 58.3849 167.584 58.2093 168.082 58.0434C168.579 57.8776 169.205 57.6484 169.961 57.3523C170.715 57.0581 171.812 56.5792 173.248 55.9158L174.795 59.949C172.327 60.9433 169.813 61.8279 167.253 62.601C164.693 63.3741 161.912 63.9733 158.91 64.3969C155.908 64.8196 152.492 65.0318 148.661 65.0318L148.662 65.0336Z" fill="#00F1F1"/>
</g>
</g>
</svg>
