<svg width="446" height="72" viewBox="0 0 446 72" fill="none" xmlns="http://www.w3.org/2000/svg">
<g id="logo / brand / seawater / deriv-wordmark horizontal-25 years-english">
<g id="logo">
<path d="M142.886 71.9896L151.345 23.9999H164.722L156.263 71.9896H142.873H142.886Z" fill="#0AA0B0"/>
<path d="M144.331 24.5573C143.658 28.3628 142.985 32.1683 142.317 35.9738C135.977 34.0019 129.439 34.6342 127.425 35.0279C125.255 47.3497 123.08 59.6779 120.91 71.9998H107.52C109.337 61.6905 115.549 26.476 115.549 26.476C119.906 24.6716 130.598 21.0109 144.33 24.5497V24.5561L144.331 24.5573Z" fill="#0AA0B0"/>
<path d="M216.934 23.9999C212.374 36.1249 201.92 56.7549 191.791 71.9883H178.401C173.754 57.4901 170.749 37.2906 170.181 23.9999H183.571C183.813 28.3336 185.75 44.4203 187.968 55.6514C194.042 44.7213 200.742 30.3805 203.533 23.9999H216.934Z" fill="#0AA0B0"/>
<path d="M43.6063 2.27416H43.6025L39.8884 23.3333H26.999C14.973 23.3333 3.50827 33.0737 1.38648 45.106L0.486214 50.2232C-1.63176 62.2492 6.39826 71.996 18.4243 71.996H29.1741C37.9394 71.996 46.2881 64.9005 47.8296 56.1353L57.7338 0L43.6063 2.27416ZM34.4576 54.1443C33.9815 56.854 31.5461 59.0583 28.8364 59.0583H22.3034C16.8955 59.0583 13.2804 54.6725 14.2289 49.2544L14.7902 46.0634C15.7476 40.6568 20.9041 36.2596 26.3121 36.2596H37.6079L34.4513 54.1455H34.4576V54.1443Z" fill="#0AA0B0"/>
<path d="M90.0761 23.3219H79.6678C69.5211 23.3219 59.8454 31.5423 58.0576 41.6942L55.9523 53.6211C54.1645 63.7729 60.9362 71.9947 71.0816 71.9947H93.2366L95.512 59.0989H74.6903C71.3089 59.0989 69.0462 56.3613 69.6481 52.9723L69.7179 52.5659H103.291L105.205 41.6942C106.993 31.5474 100.223 23.3219 90.0761 23.3219ZM91.77 40.6669L91.6887 41.3577H71.7267L71.8359 40.7431C72.439 37.3604 75.5195 34.3904 78.9136 34.3904H86.71C90.0634 34.3904 92.3274 37.3147 91.77 40.6682V40.6669Z" fill="#0AA0B0"/>
<path d="M236.864 24.0115H234.709V72H236.864V24.0115Z" fill="#0AA0B0"/>
<path d="M316.08 45.5038C314.762 44.2556 313.1 43.2271 311.088 42.417C309.09 41.6145 306.632 41.0964 303.888 40.8615L305.104 37.117H295.643L291.995 48.3468C295.235 48.3468 298.304 48.5195 300.545 48.8674C302.787 49.2141 304.582 49.7004 305.919 50.3238C307.263 50.9473 308.23 51.7104 308.836 52.612C309.434 53.5135 309.734 54.5192 309.734 55.6289C309.734 58.265 308.855 60.2065 307.098 61.4546C305.34 62.7028 302.799 63.3276 299.47 63.3276C297.757 63.3276 295.981 63.0736 294.128 62.5644C292.282 62.0565 289.779 61.1207 288.161 60.1506H257.631C257.447 60.496 257.154 61.1474 256.989 61.5042C255.97 63.6323 255.25 66.1515 254.836 69.0644H285.329C286.277 69.5329 287.506 69.8313 288.613 70.1957C289.887 70.6122 291.18 70.9487 292.498 71.2014C293.816 71.4554 295.102 71.6522 296.35 71.7906C297.598 71.929 298.706 71.9975 299.681 71.9975C303.011 71.9975 305.946 71.5925 308.487 70.7836C311.027 69.9748 313.161 68.8307 314.867 67.3502C316.58 65.8709 317.866 64.0678 318.72 61.941C319.573 59.8141 320.006 57.4561 320.006 54.8658C320.006 53.0627 319.681 51.3638 319.032 49.7677C318.383 48.1716 317.402 46.7507 316.084 45.5013L316.08 45.5038Z" fill="#0AA0B0"/>
<path d="M299.869 24.1285L296.971 33.0423L323.281 33.0372L326.178 24.1285H299.869Z" fill="#0AA0B0"/>
<path d="M292.476 28.066C291.834 26.6794 290.916 25.4642 289.738 24.4256C288.56 23.3856 287.172 22.5653 285.581 21.9635C283.983 21.3629 282.257 21.0619 280.411 21.0619C277.45 21.0619 274.534 21.3819 271.808 22.4485C267.199 24.2567 263.709 27.3486 263.709 27.3486L267.027 34.7945C269.154 33.1755 271.115 31.9629 272.917 31.1541C274.725 30.3452 276.571 29.9402 278.469 29.9402C279.806 29.9402 280.908 30.3452 281.762 31.1541C282.621 31.9642 283.048 32.9698 283.048 34.171C283.048 35.1424 282.837 36.0668 282.425 36.9455C282.004 37.8242 281.349 38.7613 280.444 39.7542C279.546 40.7485 278.368 41.8354 276.91 43.0137C275.452 44.1933 273.682 45.5926 271.6 47.2103C269.384 48.922 267.327 50.5295 265.43 52.0304C263.831 53.2951 262.061 54.6474 260.743 56.0758H273.478C273.854 55.7736 274.236 55.4778 274.618 55.187C275.847 54.2626 277.095 53.3611 278.363 52.4824C279.636 51.605 280.897 50.6793 282.145 49.708C284.272 48.0433 286.061 46.5411 287.519 45.2003C288.977 43.8594 290.142 42.5414 291.021 41.2462C291.9 39.9523 292.523 38.6102 292.899 37.2236C293.268 35.837 293.453 34.265 293.453 32.5064C293.453 30.9344 293.127 29.4538 292.479 28.0673L292.476 28.066Z" fill="#0AA0B0"/>
<path d="M342.204 58.6192C343.452 56.6523 344.579 54.6105 345.598 52.4951C346.617 50.3797 347.508 48.3556 348.279 46.4192C349.049 44.4854 349.698 42.7052 350.22 41.0824C350.748 39.4584 351.124 38.1556 351.354 37.1715H356.13C355.766 38.4184 355.257 39.9675 354.602 41.8201C353.946 43.6727 353.151 45.6739 352.215 47.8223C351.285 49.9708 350.235 52.1688 349.07 54.4137C347.904 56.6599 346.637 58.816 345.255 60.8832C344.205 62.426 343.16 63.876 342.11 65.2372C341.06 66.5972 339.939 67.778 338.741 68.7786C337.544 69.7779 336.22 70.5652 334.781 71.1391C333.336 71.7118 331.712 72 329.91 72C328.993 72 328.14 71.8845 327.35 71.6559C326.56 71.4261 325.988 71.1798 325.631 70.9182L327.204 67.18C327.529 67.4428 327.975 67.6638 328.529 67.8441C329.089 68.0231 329.713 68.1158 330.4 68.1158C332.304 68.1158 333.915 67.6561 335.246 66.7381C336.576 65.8201 337.831 64.6062 339.009 63.0977C337.793 59.1296 336.806 54.9483 336.035 50.5536C335.265 46.1589 334.794 41.6995 334.629 37.174H339.303C339.334 38.6495 339.417 40.2659 339.551 42.0195C339.685 43.7743 339.87 45.5939 340.118 47.4795C340.36 49.3651 340.659 51.2609 341.003 53.1617C341.347 55.0638 341.748 56.8834 342.207 58.6217L342.204 58.6192Z" fill="#0AA0B0"/>
<path d="M366.604 63.391C364.929 63.391 363.49 63.1523 362.274 62.6774C361.064 62.2025 360.045 61.5448 359.224 60.7105C358.402 59.8738 357.798 58.8986 357.403 57.7837C357.015 56.6689 356.818 55.4893 356.818 54.2423C356.818 51.9479 357.162 49.7347 357.849 47.6014C358.537 45.4695 359.517 43.5852 360.797 41.9446C362.077 40.3053 363.636 39.0013 365.471 38.0337C367.311 37.0674 369.394 36.5824 371.724 36.5824C373.067 36.5824 374.22 36.7538 375.187 37.0992C376.155 37.4433 376.945 37.9106 377.549 38.501C378.154 39.0914 378.606 39.772 378.899 40.5428C379.199 41.3135 379.345 42.1097 379.345 42.9287C379.345 44.4715 379.064 45.773 378.504 46.8396C377.951 47.9049 377.211 48.7988 376.295 49.5201C375.378 50.2426 374.301 50.7987 373.073 51.1924C371.844 51.586 370.564 51.8983 369.234 52.1269C367.909 52.3567 366.559 52.5129 365.203 52.5942C363.841 52.6767 362.555 52.7504 361.338 52.8164C361.306 53.0792 361.287 53.2926 361.287 53.4551V53.8487C361.287 54.6042 361.383 55.3166 361.562 55.9895C361.739 56.6625 362.077 57.2517 362.567 57.7609C363.064 58.2688 363.746 58.67 364.612 58.9659C365.478 59.2617 366.618 59.409 368.031 59.409C368.655 59.409 369.305 59.3519 369.973 59.2376C370.648 59.1233 371.284 58.9748 371.889 58.7957C372.499 58.6167 373.042 58.4351 373.513 58.2548C373.99 58.0758 374.328 57.9031 374.525 57.738L374.92 61.6248C374.264 61.9867 373.2 62.3714 371.743 62.7815C370.285 63.1917 368.572 63.3961 366.604 63.3961V63.391ZM361.93 49.322C363.833 49.2572 365.572 49.1341 367.145 48.9525C368.718 48.7734 370.081 48.4611 371.226 48.0179C372.372 47.5748 373.27 46.978 373.906 46.2225C374.549 45.4682 374.868 44.4842 374.868 43.2703C374.868 42.9744 374.81 42.6646 374.696 42.3357C374.582 42.0081 374.384 41.7046 374.104 41.4253C373.824 41.1459 373.442 40.9174 372.945 40.7358C372.455 40.5568 371.851 40.4641 371.131 40.4641C369.978 40.4641 368.908 40.7104 367.909 41.2031C366.903 41.6945 366.012 42.3433 365.229 43.1458C364.439 43.9496 363.765 44.8841 363.21 45.9495C362.65 47.0148 362.223 48.1386 361.93 49.3194V49.322Z" fill="#0AA0B0"/>
<path d="M398.625 63.0455C398.467 62.6849 398.3 62.2824 398.135 61.8405C397.97 61.3974 397.842 60.9301 397.74 60.4387C397.02 61.0939 396.053 61.7504 394.836 62.4056C393.626 63.0608 392.13 63.3897 390.36 63.3897C388.922 63.3897 387.68 63.1598 386.649 62.7002C385.618 62.2418 384.771 61.6031 384.114 60.7815C383.458 59.9625 382.974 58.995 382.663 57.8789C382.351 56.764 382.198 55.5349 382.198 54.1902C382.198 51.9935 382.568 49.845 383.307 47.7461C384.046 45.6472 385.153 43.7781 386.625 42.1375C388.101 40.497 389.955 39.1688 392.184 38.153C394.419 37.1372 397.023 36.6293 400.009 36.6293C400.894 36.6293 401.925 36.727 403.11 36.9251C404.288 37.1219 405.307 37.4495 406.16 37.9092L402.371 53.3547C402.206 54.1102 402.065 54.8301 401.951 55.5196C401.836 56.2091 401.779 56.9303 401.779 57.6846C401.779 58.4388 401.843 59.2007 401.976 59.9714C402.11 60.7422 402.339 61.5701 402.664 62.4564L398.634 63.0468L398.628 63.0443L398.625 63.0455ZM391.296 59.5042C392.671 59.5042 393.856 59.2083 394.836 58.6191C395.823 58.0287 396.676 57.3405 397.396 56.5532C397.428 55.9971 397.485 55.413 397.568 54.8073C397.65 54.2016 397.758 53.5858 397.886 52.9636L400.841 40.7636C400.676 40.6989 400.408 40.6493 400.032 40.6163C399.65 40.5846 399.319 40.5668 399.02 40.5668C397.155 40.5668 395.461 40.9287 393.951 41.6487C392.443 42.3711 391.156 43.3298 390.092 44.5272C389.023 45.7246 388.208 47.1188 387.634 48.7086C387.055 50.3009 386.768 51.963 386.768 53.7013C386.768 54.3908 386.838 55.0866 386.965 55.7926C387.098 56.4986 387.334 57.1208 387.679 57.6617C388.023 58.2026 388.481 58.6445 389.06 58.9899C389.633 59.334 390.378 59.5067 391.295 59.5067V59.5042H391.296Z" fill="#0AA0B0"/>
<path d="M422.534 36.6306C422.928 36.6306 423.368 36.6471 423.864 36.6802C424.354 36.7132 424.838 36.7703 425.316 36.8516C425.787 36.9341 426.22 37.0154 426.615 37.0979C427.01 37.1804 427.303 37.2693 427.5 37.3696L426.175 41.3542C425.514 41.0913 424.762 40.8958 423.909 40.7637C423.055 40.6329 422.234 40.5669 421.451 40.5669C420.762 40.5669 420.082 40.6164 419.406 40.7142C418.738 40.812 418.152 40.944 417.661 41.1078L412.447 62.7523H407.875L413.777 38.1556C415.089 37.6972 416.496 37.3277 418.006 37.0484C419.514 36.769 421.024 36.6306 422.532 36.6306H422.534Z" fill="#0AA0B0"/>
<path d="M432.569 59.5537C433.257 59.5537 433.95 59.4889 434.658 59.3569C435.365 59.2261 435.988 59.0128 436.529 58.7182C437.07 58.4223 437.509 58.0211 437.853 57.5119C438.198 57.004 438.369 56.3729 438.369 55.6187C438.369 55.1273 438.293 54.693 438.127 54.3146C437.961 53.9375 437.7 53.5845 437.337 53.2582C436.974 52.9306 436.528 52.6118 435.987 52.2995C435.446 51.9871 434.796 51.6341 434.045 51.243C433.287 50.8824 432.6 50.5218 431.976 50.1612C431.352 49.8006 430.804 49.3739 430.326 48.8813C429.855 48.3899 429.486 47.8083 429.225 47.1353C428.958 46.4623 428.831 45.6522 428.831 44.6999C428.831 42.2391 429.716 40.2646 431.486 38.7726C433.256 37.2806 435.828 36.534 439.21 36.534C440.783 36.534 442.171 36.6902 443.367 37.0013C444.564 37.3137 445.392 37.5994 445.851 37.8622L444.131 41.6017C443.666 41.3388 442.934 41.0607 441.915 40.7649C440.897 40.469 439.77 40.3217 438.521 40.3217C437.898 40.3217 437.273 40.3878 436.65 40.5186C436.026 40.6493 435.465 40.8716 434.956 41.1826C434.447 41.495 434.039 41.9051 433.727 42.4131C433.414 42.9222 433.256 43.5381 433.256 44.258C433.256 45.1431 433.6 45.8744 434.293 46.4471C434.981 47.021 436.012 47.6204 437.388 48.2426C438.241 48.6362 439.005 49.0387 439.673 49.4476C440.349 49.8577 440.921 50.3174 441.399 50.8253C441.87 51.3345 442.233 51.9325 442.481 52.6207C442.723 53.3102 442.85 54.1292 442.85 55.0816C442.85 56.4593 442.582 57.6731 442.06 58.7207C441.538 59.7695 440.806 60.6381 439.87 61.3275C438.94 62.017 437.832 62.5338 436.552 62.8779C435.272 63.2233 433.878 63.3947 432.369 63.3947C431.255 63.3947 430.249 63.3211 429.345 63.1725C428.441 63.0252 427.657 62.8525 426.983 62.657C426.315 62.4602 425.754 62.2557 425.315 62.0424C424.869 61.8304 424.531 61.6564 424.303 61.5256L426.073 57.7874C426.302 57.9182 426.626 58.0833 427.034 58.2788C427.441 58.4756 427.938 58.6725 428.511 58.8693C429.083 59.0661 429.714 59.2312 430.401 59.3607C431.089 59.4915 431.814 59.5575 432.566 59.5575L432.569 59.5537Z" fill="#0AA0B0"/>
</g>
</g>
</svg>
