<svg width="225" height="72" viewBox="0 0 225 72" fill="none" xmlns="http://www.w3.org/2000/svg">
<g id="logo / deriv product / deriv x / black / logo wordmark" clip-path="url(#clip0_2091_404)">
<g id="logo">
<path d="M0 13.5C0 6.04416 6.04416 0 13.5 0H58.5C65.9558 0 72 6.04416 72 13.5V58.5C72 65.9558 65.9558 72 58.5 72H13.5C6.04416 72 0 65.9558 0 58.5V13.5Z" fill="#414652"/>
<path d="M13.5 0C6.04416 0 0 6.04416 0 13.5V13.8921L67.3075 3.26845C64.9433 1.2315 61.8655 0 58.5 0H13.5Z" fill="#303541"/>
<path d="M68.6969 4.65243L56.3498 71.9999L58.5 72C65.9558 72 72 65.9558 72 58.5V13.5C72 10.1155 70.7545 7.02183 68.6969 4.65243Z" fill="#303541"/>
<path d="M21.4745 42.8984C21.7055 42.9194 21.968 42.9404 22.262 42.9614C22.577 42.9614 22.9445 42.9614 23.3645 42.9614C25.8215 42.9614 27.638 42.3419 28.814 41.1029C30.011 39.8639 30.6095 38.1524 30.6095 35.9684C30.6095 33.6794 30.0425 31.9469 28.9085 30.7709C27.7745 29.5949 25.979 29.0069 23.522 29.0069C23.186 29.0069 22.8395 29.0174 22.4825 29.0384C22.1255 29.0384 21.7895 29.0594 21.4745 29.1014V42.8984ZM35.681 35.9684C35.681 37.8584 35.3871 39.5069 34.799 40.9139C34.211 42.3209 33.371 43.4864 32.279 44.4104C31.208 45.3344 29.8955 46.0274 28.3415 46.4894C26.7875 46.9514 25.0445 47.1824 23.1125 47.1824C22.2305 47.1824 21.2015 47.1404 20.0255 47.0564C18.8495 46.9934 17.6945 46.8464 16.5605 46.6154V25.3529C17.6945 25.1429 18.8705 25.0064 20.0885 24.9434C21.3275 24.8594 22.388 24.8174 23.27 24.8174C25.139 24.8174 26.8295 25.0274 28.3415 25.4474C29.8745 25.8674 31.187 26.5289 32.279 27.4319C33.371 28.3349 34.211 29.4899 34.799 30.8969C35.3871 32.3039 35.681 33.9944 35.681 35.9684Z" fill="#FF444F"/>
<path d="M49.5479 46.8989C48.9389 45.6809 48.2669 44.4524 47.5319 43.2134C46.8179 41.9534 45.9884 40.6724 45.0434 39.3704C44.7494 39.7484 44.3714 40.2734 43.9094 40.9454C43.4684 41.6174 43.0169 42.3314 42.5549 43.0874C42.1139 43.8434 41.6939 44.5679 41.2949 45.2609C40.8959 45.9539 40.6019 46.4999 40.4129 46.8989H34.8059C35.7299 45.1979 36.8009 43.4129 38.0189 41.5439C39.2579 39.6749 40.6334 37.6904 42.1454 35.5904L35.1209 25.0694H41.0744L45.3269 31.8734L49.4849 25.0694H55.0919L48.1619 35.6534C49.9259 37.9424 51.4064 40.0634 52.6034 42.0164C53.8004 43.9484 54.7454 45.5759 55.4384 46.8989H49.5479Z" fill="#FF444F"/>
</g>
<g id="wordmark">
<path d="M219.096 53.1692C218.616 52.2092 218.04 51.1532 217.368 50.0012C216.696 48.8172 215.96 47.6012 215.16 46.3532C214.36 45.0732 213.528 43.8092 212.664 42.5612C211.8 41.2812 210.968 40.0812 210.168 38.9612C209.368 40.0812 208.536 41.2812 207.672 42.5612C206.808 43.8092 205.976 45.0732 205.176 46.3532C204.408 47.6012 203.672 48.8172 202.968 50.0012C202.296 51.1532 201.72 52.2092 201.24 53.1692H196.104C197.544 50.3532 199.208 47.4892 201.096 44.5772C203.016 41.6652 205.048 38.6732 207.192 35.6012L196.536 19.9052H201.912L210.12 32.2892L218.232 19.9052H223.56L213.096 35.4092C215.272 38.5132 217.32 41.5372 219.24 44.4812C221.16 47.4252 222.856 50.3212 224.328 53.1692H219.096Z" fill="#414652"/>
<path fill-rule="evenodd" clip-rule="evenodd" d="M108.739 19.9018L106.967 29.9527H100.815C95.0752 29.9527 89.6045 34.6028 88.5905 40.3423L88.1614 42.7853C87.1521 48.5249 90.9816 53.1751 96.7211 53.1751H101.852C106.035 53.1751 110.02 49.7887 110.756 45.6057L115.482 18.8179L108.739 19.9018ZM104.374 44.6577C104.147 45.9499 102.984 47.0017 101.692 47.0017H98.5745C95.9948 47.0017 94.2687 44.9075 94.7214 42.3231L94.9903 40.7998C95.4477 38.2201 97.9095 36.1214 100.489 36.1214H105.879L104.374 44.6577Z" fill="#414652"/>
<path d="M156.118 53.1767H162.503L166.54 30.275H160.155L156.118 53.1767Z" fill="#414652"/>
<path d="M156.331 33.2606L156.331 33.2554C156.491 32.3499 156.651 31.4444 156.811 30.5389C150.259 28.8506 145.155 30.5972 143.077 31.4578C143.077 31.4578 140.112 48.2617 139.245 53.1822H145.634C146.671 47.3016 147.708 41.4196 148.744 35.5389C149.703 35.3477 152.824 35.0483 155.849 35.9885C156.009 35.0792 156.17 34.1699 156.331 33.2606Z" fill="#414652"/>
<path fill-rule="evenodd" clip-rule="evenodd" d="M130.914 29.9504H125.948C121.104 29.9504 116.487 33.8742 115.634 38.7177L114.629 44.4101C113.776 49.2535 117.006 53.1774 121.85 53.1774H132.423L133.508 47.0229H123.571C121.958 47.0229 120.878 45.7164 121.166 44.0988L121.199 43.9054H137.219L138.134 38.7177C138.988 33.8742 135.757 29.9504 130.914 29.9504ZM131.725 38.2272L131.687 38.5573H122.161L122.213 38.2649C122.5 36.652 123.972 35.2325 125.589 35.2325H129.31C130.909 35.2325 131.989 36.6284 131.725 38.2272Z" fill="#414652"/>
<path d="M177.639 45.3807C180.538 40.1646 183.734 33.3209 185.066 30.275H191.461C189.284 36.0625 184.296 45.9075 179.463 53.1767H173.073C170.855 46.2581 169.423 36.6183 169.149 30.275H175.54C175.655 32.3442 176.581 40.019 177.639 45.3807Z" fill="#414652"/>
</g>
</g>
<defs>
<clipPath id="clip0_2091_404">
<rect width="225" height="72" fill="white"/>
</clipPath>
</defs>
</svg>
