<svg width="360" height="59" viewBox="0 0 360 59" fill="none" xmlns="http://www.w3.org/2000/svg">
<g id="logo / sub-brand / brand-dark / deriv prime" clip-path="url(#clip0_1854_51)">
<g id="wordmark">
<path d="M34.9861 1.82853L31.9963 18.7839H21.6179C11.9356 18.7839 2.70673 26.6285 0.996224 36.3108L0.272218 40.4319C-1.43032 50.1143 5.02984 57.959 14.7122 57.959H23.3682C30.4251 57.959 37.1479 52.2464 38.389 45.1897L46.3608 0L34.9861 1.82853ZM27.6221 43.5905C27.2402 45.7704 25.2776 47.5447 23.0977 47.5447H17.8389C13.487 47.5447 10.5752 44.012 11.3389 39.6522L11.7924 37.0825C12.5641 32.7306 16.7171 29.1902 21.069 29.1902H30.1613L27.6221 43.5905ZM114.914 57.9581L121.724 19.324H132.496L125.686 57.9581H114.905H114.914ZM116.079 19.7695C115.539 22.8339 114.997 25.8983 114.457 28.9627C109.353 27.3768 104.088 27.8818 102.47 28.2044C100.723 38.1247 98.9739 48.0474 97.2245 57.9677H86.4451C87.9089 49.6671 92.9099 21.3197 92.9099 21.3197C96.4158 19.8679 105.025 16.9214 116.079 19.7695ZM72.4022 18.7773H64.0168C55.8461 18.7773 48.0576 25.3966 46.6173 33.5673L44.9228 43.1702C43.4827 51.3408 48.9327 57.9603 57.1034 57.9603H74.9405L76.7704 47.5778H60.007C57.2863 47.5778 55.4642 45.3739 55.9497 42.6451L56.0054 42.3189H83.0316L84.575 33.5673C86.0148 25.3966 80.5651 18.7773 72.3944 18.7773H72.4022ZM73.7628 32.7399L73.6992 33.2968H57.6285L57.716 32.8036C58.201 30.0827 60.6835 27.688 63.4121 27.688H69.6894C72.3865 27.688 74.2086 30.0429 73.7628 32.7399ZM174.527 19.324C170.855 29.0872 162.439 45.6953 154.287 57.9581H143.507C139.765 46.2868 137.349 30.0248 136.888 19.324H147.668C147.862 22.8146 149.425 35.7617 151.208 44.8066C156.1 36.0072 161.492 24.4623 163.739 19.324H174.527Z" fill="#FF444F"/>
<path d="M202.44 7.6C209.448 7.6 214.824 8.944 218.568 11.632C222.36 14.272 224.256 18.232 224.256 23.512C224.256 26.392 223.728 28.864 222.672 30.928C221.664 32.944 220.176 34.6 218.208 35.896C216.288 37.144 213.936 38.056 211.152 38.632C208.368 39.208 205.224 39.496 201.72 39.496H196.176V58H189.192V8.824C191.16 8.344 193.344 8.032 195.744 7.888C198.192 7.696 200.424 7.6 202.44 7.6ZM203.016 13.72C200.04 13.72 197.76 13.792 196.176 13.936V33.52H201.432C203.832 33.52 205.992 33.376 207.912 33.088C209.832 32.752 211.44 32.224 212.736 31.504C214.08 30.736 215.112 29.704 215.832 28.408C216.552 27.112 216.912 25.456 216.912 23.44C216.912 21.52 216.528 19.936 215.76 18.688C215.04 17.44 214.032 16.456 212.736 15.736C211.488 14.968 210.024 14.44 208.344 14.152C206.664 13.864 204.888 13.72 203.016 13.72Z" fill="white"/>
<path d="M243.509 19.768C244.085 19.768 244.733 19.816 245.453 19.912C246.221 19.96 246.965 20.056 247.685 20.2C248.405 20.296 249.053 20.416 249.629 20.56C250.253 20.656 250.709 20.752 250.997 20.848L249.845 26.68C249.317 26.488 248.429 26.272 247.181 26.032C245.981 25.744 244.421 25.6 242.501 25.6C241.253 25.6 240.005 25.744 238.757 26.032C237.557 26.272 236.765 26.44 236.381 26.536V58H229.685V22.144C231.269 21.568 233.237 21.04 235.589 20.56C237.941 20.032 240.581 19.768 243.509 19.768Z" fill="white"/>
<path d="M261.274 58H254.578V20.56H261.274V58ZM257.89 13.792C256.69 13.792 255.658 13.408 254.794 12.64C253.978 11.824 253.57 10.744 253.57 9.4C253.57 8.056 253.978 7 254.794 6.232C255.658 5.416 256.69 5.008 257.89 5.008C259.09 5.008 260.098 5.416 260.914 6.232C261.778 7 262.21 8.056 262.21 9.4C262.21 10.744 261.778 11.824 260.914 12.64C260.098 13.408 259.09 13.792 257.89 13.792Z" fill="white"/>
<path d="M269.909 21.64C271.445 21.256 273.461 20.848 275.957 20.416C278.501 19.984 281.429 19.768 284.741 19.768C287.141 19.768 289.157 20.104 290.789 20.776C292.421 21.4 293.789 22.336 294.893 23.584C295.229 23.344 295.757 23.008 296.477 22.576C297.197 22.144 298.085 21.736 299.141 21.352C300.197 20.92 301.373 20.56 302.669 20.272C303.965 19.936 305.357 19.768 306.845 19.768C309.725 19.768 312.077 20.2 313.901 21.064C315.725 21.88 317.141 23.056 318.149 24.592C319.205 26.128 319.901 27.952 320.237 30.064C320.621 32.176 320.813 34.48 320.813 36.976V58H314.117V38.416C314.117 36.208 313.997 34.312 313.757 32.728C313.565 31.144 313.157 29.824 312.533 28.768C311.957 27.712 311.141 26.944 310.085 26.464C309.077 25.936 307.757 25.672 306.125 25.672C303.869 25.672 301.997 25.984 300.509 26.608C299.069 27.184 298.085 27.712 297.557 28.192C297.941 29.44 298.229 30.808 298.421 32.296C298.613 33.784 298.709 35.344 298.709 36.976V58H292.013V38.416C292.013 36.208 291.893 34.312 291.653 32.728C291.413 31.144 290.981 29.824 290.357 28.768C289.781 27.712 288.965 26.944 287.909 26.464C286.901 25.936 285.605 25.672 284.021 25.672C283.349 25.672 282.629 25.696 281.861 25.744C281.093 25.792 280.349 25.864 279.629 25.96C278.957 26.008 278.333 26.08 277.757 26.176C277.181 26.272 276.797 26.344 276.605 26.392V58H269.909V21.64Z" fill="white"/>
<path d="M326.957 39.352C326.957 36.04 327.437 33.16 328.397 30.712C329.357 28.216 330.629 26.152 332.213 24.52C333.797 22.888 335.621 21.664 337.685 20.848C339.749 20.032 341.861 19.624 344.021 19.624C349.061 19.624 352.925 21.208 355.613 24.376C358.301 27.496 359.645 32.272 359.645 38.704C359.645 38.992 359.645 39.376 359.645 39.856C359.645 40.288 359.621 40.696 359.573 41.08H333.941C334.229 44.968 335.357 47.92 337.325 49.936C339.293 51.952 342.365 52.96 346.541 52.96C348.893 52.96 350.861 52.768 352.445 52.384C354.077 51.952 355.301 51.544 356.117 51.16L357.053 56.776C356.237 57.208 354.797 57.664 352.733 58.144C350.717 58.624 348.413 58.864 345.821 58.864C342.557 58.864 339.725 58.384 337.325 57.424C334.973 56.416 333.029 55.048 331.493 53.32C329.957 51.592 328.805 49.552 328.037 47.2C327.317 44.8 326.957 42.184 326.957 39.352ZM352.661 35.68C352.709 32.656 351.941 30.184 350.357 28.264C348.821 26.296 346.685 25.312 343.949 25.312C342.413 25.312 341.045 25.624 339.845 26.248C338.693 26.824 337.709 27.592 336.893 28.552C336.077 29.512 335.429 30.616 334.949 31.864C334.517 33.112 334.229 34.384 334.085 35.68H352.661Z" fill="white"/>
</g>
</g>
<defs>
<clipPath id="clip0_1854_51">
<rect width="360" height="59" fill="white"/>
</clipPath>
</defs>
</svg>
