<svg width="439" height="59" viewBox="0 0 439 59" fill="none" xmlns="http://www.w3.org/2000/svg">
<g id="logo / sub-brand / black / deriv partners" clip-path="url(#clip0_1854_44)">
<g id="wordmark">
<path d="M34.9861 1.82853L31.9963 18.7839H21.6179C11.9356 18.7839 2.70673 26.6285 0.996224 36.3108L0.272218 40.4319C-1.43032 50.1143 5.02984 57.959 14.7122 57.959H23.3682C30.4251 57.959 37.1479 52.2464 38.389 45.1897L46.3608 0L34.9861 1.82853ZM27.6221 43.5905C27.2402 45.7704 25.2776 47.5447 23.0977 47.5447H17.8389C13.487 47.5447 10.5752 44.012 11.3389 39.6522L11.7924 37.0825C12.5641 32.7306 16.7171 29.1902 21.069 29.1902H30.1613L27.6221 43.5905ZM114.914 57.9581L121.724 19.324H132.496L125.686 57.9581H114.905H114.914ZM116.079 19.7695C115.539 22.8339 114.997 25.8983 114.457 28.9627C109.353 27.3768 104.088 27.8818 102.47 28.2044C100.723 38.1247 98.9739 48.0474 97.2245 57.9677H86.4451C87.9089 49.6671 92.9099 21.3197 92.9099 21.3197C96.4158 19.8679 105.025 16.9214 116.079 19.7695ZM72.4022 18.7773H64.0168C55.8461 18.7773 48.0576 25.3966 46.6173 33.5673L44.9228 43.1702C43.4827 51.3408 48.9327 57.9603 57.1034 57.9603H74.9405L76.7704 47.5778H60.007C57.2863 47.5778 55.4642 45.3739 55.9497 42.6451L56.0054 42.3189H83.0316L84.575 33.5673C86.0148 25.3966 80.5651 18.7773 72.3944 18.7773H72.4022ZM73.7628 32.7399L73.6992 33.2968H57.6285L57.716 32.8036C58.201 30.0827 60.6835 27.688 63.4121 27.688H69.6894C72.3865 27.688 74.2086 30.0429 73.7628 32.7399ZM174.527 19.324C170.855 29.0872 162.439 45.6953 154.287 57.9581H143.507C139.765 46.2868 137.349 30.0248 136.888 19.324H147.668C147.862 22.8146 149.425 35.7617 151.208 44.8066C156.1 36.0072 161.492 24.4623 163.739 19.324H174.527Z" fill="#414652"/>
<path d="M202.44 7.6C209.448 7.6 214.824 8.944 218.568 11.632C222.36 14.272 224.256 18.232 224.256 23.512C224.256 26.392 223.728 28.864 222.672 30.928C221.664 32.944 220.176 34.6 218.208 35.896C216.288 37.144 213.936 38.056 211.152 38.632C208.368 39.208 205.224 39.496 201.72 39.496H196.176V58H189.192V8.824C191.16 8.344 193.344 8.032 195.744 7.888C198.192 7.696 200.424 7.6 202.44 7.6ZM203.016 13.72C200.04 13.72 197.76 13.792 196.176 13.936V33.52H201.432C203.832 33.52 205.992 33.376 207.912 33.088C209.832 32.752 211.44 32.224 212.736 31.504C214.08 30.736 215.112 29.704 215.832 28.408C216.552 27.112 216.912 25.456 216.912 23.44C216.912 21.52 216.528 19.936 215.76 18.688C215.04 17.44 214.032 16.456 212.736 15.736C211.488 14.968 210.024 14.44 208.344 14.152C206.664 13.864 204.888 13.72 203.016 13.72Z" fill="#414652"/>
<path d="M241.021 53.176C242.605 53.176 243.997 53.152 245.197 53.104C246.445 53.008 247.477 52.864 248.293 52.672V41.512C247.813 41.272 247.021 41.08 245.917 40.936C244.861 40.744 243.565 40.648 242.029 40.648C241.021 40.648 239.941 40.72 238.789 40.864C237.685 41.008 236.653 41.32 235.693 41.8C234.781 42.232 234.013 42.856 233.389 43.672C232.765 44.44 232.453 45.472 232.453 46.768C232.453 49.168 233.221 50.848 234.757 51.808C236.293 52.72 238.381 53.176 241.021 53.176ZM240.445 19.624C243.133 19.624 245.389 19.984 247.213 20.704C249.085 21.376 250.573 22.36 251.677 23.656C252.829 24.904 253.645 26.416 254.125 28.192C254.605 29.92 254.845 31.84 254.845 33.952V57.352C254.269 57.448 253.453 57.592 252.397 57.784C251.389 57.928 250.237 58.072 248.941 58.216C247.645 58.36 246.229 58.48 244.693 58.576C243.205 58.72 241.717 58.792 240.229 58.792C238.117 58.792 236.173 58.576 234.397 58.144C232.621 57.712 231.085 57.04 229.789 56.128C228.493 55.168 227.485 53.92 226.765 52.384C226.045 50.848 225.685 49 225.685 46.84C225.685 44.776 226.093 43 226.909 41.512C227.773 40.024 228.925 38.824 230.365 37.912C231.805 37 233.485 36.328 235.405 35.896C237.325 35.464 239.341 35.248 241.453 35.248C242.125 35.248 242.821 35.296 243.541 35.392C244.261 35.44 244.933 35.536 245.557 35.68C246.229 35.776 246.805 35.872 247.285 35.968C247.765 36.064 248.101 36.136 248.293 36.184V34.312C248.293 33.208 248.173 32.128 247.933 31.072C247.693 29.968 247.261 29.008 246.637 28.192C246.013 27.328 245.149 26.656 244.045 26.176C242.989 25.648 241.597 25.384 239.869 25.384C237.661 25.384 235.717 25.552 234.037 25.888C232.405 26.176 231.181 26.488 230.365 26.824L229.573 21.28C230.437 20.896 231.877 20.536 233.893 20.2C235.909 19.816 238.093 19.624 240.445 19.624Z" fill="#414652"/>
<path d="M276.91 19.768C277.486 19.768 278.134 19.816 278.854 19.912C279.622 19.96 280.366 20.056 281.086 20.2C281.806 20.296 282.454 20.416 283.03 20.56C283.654 20.656 284.11 20.752 284.398 20.848L283.246 26.68C282.718 26.488 281.83 26.272 280.582 26.032C279.382 25.744 277.822 25.6 275.902 25.6C274.654 25.6 273.406 25.744 272.158 26.032C270.958 26.272 270.166 26.44 269.782 26.536V58H263.086V22.144C264.67 21.568 266.638 21.04 268.99 20.56C271.342 20.032 273.982 19.768 276.91 19.768Z" fill="#414652"/>
<path d="M294.243 20.56H308.427V26.176H294.243V43.456C294.243 45.328 294.387 46.888 294.675 48.136C294.963 49.336 295.395 50.296 295.971 51.016C296.547 51.688 297.267 52.168 298.131 52.456C298.995 52.744 300.003 52.888 301.155 52.888C303.171 52.888 304.779 52.672 305.979 52.24C307.227 51.76 308.091 51.424 308.571 51.232L309.867 56.776C309.195 57.112 308.019 57.52 306.339 58C304.659 58.528 302.739 58.792 300.579 58.792C298.035 58.792 295.923 58.48 294.243 57.856C292.611 57.184 291.291 56.2 290.283 54.904C289.275 53.608 288.555 52.024 288.123 50.152C287.739 48.232 287.547 46.024 287.547 43.528V10.12L294.243 8.968V20.56Z" fill="#414652"/>
<path d="M314.068 21.64C315.604 21.256 317.644 20.848 320.188 20.416C322.732 19.984 325.66 19.768 328.972 19.768C331.948 19.768 334.42 20.2 336.388 21.064C338.356 21.88 339.916 23.056 341.068 24.592C342.268 26.08 343.108 27.88 343.588 29.992C344.068 32.104 344.308 34.432 344.308 36.976V58H337.612V38.416C337.612 36.112 337.444 34.144 337.108 32.512C336.82 30.88 336.316 29.56 335.596 28.552C334.876 27.544 333.916 26.824 332.716 26.392C331.516 25.912 330.028 25.672 328.252 25.672C327.532 25.672 326.788 25.696 326.02 25.744C325.252 25.792 324.508 25.864 323.788 25.96C323.116 26.008 322.492 26.08 321.916 26.176C321.388 26.272 321.004 26.344 320.764 26.392V58H314.068V21.64Z" fill="#414652"/>
<path d="M350.444 39.352C350.444 36.04 350.924 33.16 351.884 30.712C352.844 28.216 354.116 26.152 355.7 24.52C357.284 22.888 359.108 21.664 361.172 20.848C363.236 20.032 365.348 19.624 367.508 19.624C372.548 19.624 376.412 21.208 379.1 24.376C381.788 27.496 383.132 32.272 383.132 38.704C383.132 38.992 383.132 39.376 383.132 39.856C383.132 40.288 383.108 40.696 383.06 41.08H357.428C357.716 44.968 358.844 47.92 360.812 49.936C362.78 51.952 365.852 52.96 370.028 52.96C372.38 52.96 374.348 52.768 375.932 52.384C377.564 51.952 378.788 51.544 379.604 51.16L380.54 56.776C379.724 57.208 378.284 57.664 376.22 58.144C374.204 58.624 371.9 58.864 369.308 58.864C366.044 58.864 363.212 58.384 360.812 57.424C358.46 56.416 356.516 55.048 354.98 53.32C353.444 51.592 352.292 49.552 351.524 47.2C350.804 44.8 350.444 42.184 350.444 39.352ZM376.148 35.68C376.196 32.656 375.428 30.184 373.844 28.264C372.308 26.296 370.172 25.312 367.436 25.312C365.9 25.312 364.532 25.624 363.332 26.248C362.18 26.824 361.196 27.592 360.38 28.552C359.564 29.512 358.916 30.616 358.436 31.864C358.004 33.112 357.716 34.384 357.572 35.68H376.148Z" fill="#414652"/>
<path d="M403.695 19.768C404.271 19.768 404.919 19.816 405.639 19.912C406.407 19.96 407.151 20.056 407.871 20.2C408.591 20.296 409.239 20.416 409.815 20.56C410.439 20.656 410.895 20.752 411.183 20.848L410.031 26.68C409.503 26.488 408.615 26.272 407.367 26.032C406.167 25.744 404.607 25.6 402.687 25.6C401.439 25.6 400.191 25.744 398.943 26.032C397.743 26.272 396.951 26.44 396.567 26.536V58H389.871V22.144C391.455 21.568 393.423 21.04 395.775 20.56C398.127 20.032 400.767 19.768 403.695 19.768Z" fill="#414652"/>
<path d="M423.476 53.176C426.212 53.176 428.228 52.816 429.524 52.096C430.868 51.376 431.54 50.224 431.54 48.64C431.54 47.008 430.892 45.712 429.596 44.752C428.3 43.792 426.164 42.712 423.188 41.512C421.748 40.936 420.356 40.36 419.012 39.784C417.716 39.16 416.588 38.44 415.628 37.624C414.668 36.808 413.9 35.824 413.324 34.672C412.748 33.52 412.46 32.104 412.46 30.424C412.46 27.112 413.684 24.496 416.132 22.576C418.58 20.608 421.916 19.624 426.14 19.624C427.196 19.624 428.252 19.696 429.308 19.84C430.364 19.936 431.348 20.08 432.26 20.272C433.172 20.416 433.964 20.584 434.636 20.776C435.356 20.968 435.908 21.136 436.292 21.28L435.068 27.04C434.348 26.656 433.22 26.272 431.684 25.888C430.148 25.456 428.3 25.24 426.14 25.24C424.268 25.24 422.636 25.624 421.244 26.392C419.852 27.112 419.156 28.264 419.156 29.848C419.156 30.664 419.3 31.384 419.588 32.008C419.924 32.632 420.404 33.208 421.028 33.736C421.7 34.216 422.516 34.672 423.476 35.104C424.436 35.536 425.588 35.992 426.932 36.472C428.708 37.144 430.292 37.816 431.684 38.488C433.076 39.112 434.252 39.856 435.212 40.72C436.22 41.584 436.988 42.64 437.516 43.888C438.044 45.088 438.308 46.576 438.308 48.352C438.308 51.808 437.012 54.424 434.42 56.2C431.876 57.976 428.228 58.864 423.476 58.864C420.164 58.864 417.572 58.576 415.7 58C413.828 57.472 412.556 57.064 411.884 56.776L413.108 51.016C413.876 51.304 415.1 51.736 416.78 52.312C418.46 52.888 420.692 53.176 423.476 53.176Z" fill="#414652"/>
</g>
</g>
<defs>
<clipPath id="clip0_1854_44">
<rect width="439" height="59" fill="white"/>
</clipPath>
</defs>
</svg>
