<svg width="261" height="72" viewBox="0 0 261 72" fill="none" xmlns="http://www.w3.org/2000/svg">
<g id="logo / deriv product / brand-dark / deriv go-logo-wordmark" clip-path="url(#clip0_2289_7)">
<g id="logo">
<path d="M0 13.5C0 6.04416 6.04416 0 13.5 0H58.5C65.9558 0 72 6.04416 72 13.5V58.5C72 65.9558 65.9558 72 58.5 72H13.5C6.04416 72 0 65.9558 0 58.5V13.5Z" fill="#FF444F"/>
<path d="M13.5 0C6.04416 0 0 6.04416 0 13.5V13.8921L67.3075 3.26845C64.9433 1.2315 61.8655 0 58.5 0H13.5Z" fill="#E12E3A"/>
<path d="M68.6969 4.65243L56.3498 71.9999L58.5 72C65.9558 72 72 65.9558 72 58.5V13.5C72 10.1155 70.7545 7.02183 68.6969 4.65243Z" fill="#E12E3A"/>
<path d="M26.4531 28.8968C24.1641 28.8968 22.5051 29.5373 21.4761 30.8183C20.4681 32.0783 19.9641 33.8108 19.9641 36.0158C19.9641 37.0868 20.0901 38.0633 20.3421 38.9453C20.5941 39.8063 20.9721 40.5518 21.4761 41.1818C21.9801 41.8118 22.6101 42.3053 23.3661 42.6623C24.1221 42.9983 25.0041 43.1663 26.0121 43.1663C26.5581 43.1663 27.0201 43.1558 27.3981 43.1348C27.7971 43.1138 28.1436 43.0718 28.4376 43.0088V35.4173H33.3516V46.2218C32.7636 46.4528 31.8186 46.6943 30.5166 46.9463C29.2146 47.2193 27.6081 47.3558 25.6971 47.3558C24.0591 47.3558 22.5681 47.1038 21.2241 46.5998C19.9011 46.0958 18.7671 45.3608 17.8221 44.3948C16.8771 43.4288 16.1421 42.2423 15.6171 40.8353C15.1131 39.4283 14.8611 37.8218 14.8611 36.0158C14.8611 34.1888 15.1446 32.5718 15.7116 31.1648C16.2786 29.7578 17.0556 28.5713 18.0426 27.6053C19.0296 26.6183 20.1846 25.8728 21.5076 25.3688C22.8516 24.8648 24.2796 24.6128 25.7916 24.6128C26.8206 24.6128 27.7446 24.6863 28.5636 24.8333C29.4036 24.9593 30.1176 25.1168 30.7056 25.3058C31.3146 25.4738 31.8081 25.6523 32.1861 25.8413C32.5851 26.0303 32.8686 26.1773 33.0366 26.2823L31.6191 30.2198C30.9471 29.8628 30.1701 29.5583 29.2881 29.3063C28.4271 29.0333 27.4821 28.8968 26.4531 28.8968Z" fill="white"/>
<path d="M40.4753 36.0158C40.4753 37.0868 40.6013 38.0528 40.8533 38.9138C41.1263 39.7748 41.5043 40.5203 41.9873 41.1503C42.4913 41.7593 43.1003 42.2318 43.8143 42.5678C44.5283 42.9038 45.3473 43.0718 46.2713 43.0718C47.1743 43.0718 47.9828 42.9038 48.6968 42.5678C49.4318 42.2318 50.0408 41.7593 50.5238 41.1503C51.0278 40.5203 51.4058 39.7748 51.6578 38.9138C51.9308 38.0528 52.0673 37.0868 52.0673 36.0158C52.0673 34.9448 51.9308 33.9788 51.6578 33.1178C51.4058 32.2358 51.0278 31.4903 50.5238 30.8813C50.0408 30.2513 49.4318 29.7683 48.6968 29.4323C47.9828 29.0963 47.1743 28.9283 46.2713 28.9283C45.3473 28.9283 44.5283 29.1068 43.8143 29.4638C43.1003 29.7998 42.4913 30.2828 41.9873 30.9128C41.5043 31.5218 41.1263 32.2673 40.8533 33.1493C40.6013 34.0103 40.4753 34.9658 40.4753 36.0158ZM57.1388 36.0158C57.1388 37.8848 56.8553 39.5333 56.2883 40.9613C55.7423 42.3683 54.9863 43.5548 54.0203 44.5208C53.0543 45.4658 51.8993 46.1798 50.5553 46.6628C49.2323 47.1458 47.8043 47.3873 46.2713 47.3873C44.7803 47.3873 43.3733 47.1458 42.0503 46.6628C40.7273 46.1798 39.5723 45.4658 38.5853 44.5208C37.5983 43.5548 36.8213 42.3683 36.2543 40.9613C35.6873 39.5333 35.4038 37.8848 35.4038 36.0158C35.4038 34.1468 35.6978 32.5088 36.2858 31.1018C36.8738 29.6738 37.6613 28.4768 38.6483 27.5108C39.6563 26.5448 40.8113 25.8203 42.1133 25.3373C43.4363 24.8543 44.8223 24.6128 46.2713 24.6128C47.7623 24.6128 49.1693 24.8543 50.4923 25.3373C51.8153 25.8203 52.9703 26.5448 53.9573 27.5108C54.9443 28.4768 55.7213 29.6738 56.2883 31.1018C56.8553 32.5088 57.1388 34.1468 57.1388 36.0158Z" fill="white"/>
</g>
<g id="wordmark">
<path fill-rule="evenodd" clip-rule="evenodd" d="M108.739 19.8182L106.967 29.8691H100.815C95.0752 29.8691 89.6045 34.5192 88.5905 40.2587L88.1614 42.7017C87.1521 48.4413 90.9816 53.0915 96.7212 53.0915H101.852C106.036 53.0915 110.021 49.7051 110.756 45.5221L115.482 18.7343L108.739 19.8182ZM104.374 44.5741C104.148 45.8663 102.984 46.9181 101.692 46.9181H98.5746C95.9949 46.9181 94.2688 44.8239 94.7215 42.2395L94.9903 40.7162C95.4478 38.1365 97.9096 36.0378 100.489 36.0378H105.879L104.374 44.5741Z" fill="white"/>
<path d="M156.119 53.0931H162.504L166.541 30.1914H160.156L156.119 53.0931Z" fill="white"/>
<path d="M156.331 33.177L156.332 33.1718C156.492 32.2663 156.652 31.3608 156.812 30.4553C150.259 28.767 145.156 30.5136 143.077 31.3742C143.077 31.3742 140.113 48.1781 139.245 53.0986H145.635C146.672 47.218 147.709 41.336 148.745 35.4553C149.703 35.2641 152.825 34.9647 155.85 35.9049C156.01 34.9956 156.171 34.0863 156.331 33.177Z" fill="white"/>
<path fill-rule="evenodd" clip-rule="evenodd" d="M130.914 29.8668H125.948C121.105 29.8668 116.488 33.7906 115.634 38.6341L114.629 44.3265C113.776 49.1699 117.006 53.0938 121.85 53.0938H132.423L133.508 46.9393H123.571C121.958 46.9393 120.878 45.6328 121.166 44.0152L121.199 43.8218H137.22L138.135 38.6341C138.988 33.7906 135.758 29.8668 130.914 29.8668ZM131.725 38.1436L131.688 38.4737H122.161L122.213 38.1813C122.501 36.5684 123.972 35.1489 125.59 35.1489H129.311C130.91 35.1489 131.99 36.5448 131.725 38.1436Z" fill="white"/>
<path d="M177.639 45.2971C180.539 40.081 183.735 33.2373 185.067 30.1914H191.462C189.285 35.9789 184.297 45.8239 179.464 53.0931H173.074C170.856 46.1745 169.424 36.5347 169.15 30.1914H175.541C175.656 32.2606 176.582 39.9354 177.639 45.2971Z" fill="white"/>
<path d="M220.432 36.288H225.088V51.84C224.704 51.968 224.144 52.112 223.408 52.272C222.704 52.432 221.872 52.592 220.912 52.752C219.984 52.912 218.96 53.04 217.84 53.136C216.72 53.264 215.584 53.328 214.432 53.328C212.096 53.328 209.968 52.944 208.048 52.176C206.128 51.408 204.48 50.288 203.104 48.816C201.728 47.344 200.656 45.536 199.888 43.392C199.152 41.248 198.784 38.784 198.784 36C198.784 33.216 199.2 30.752 200.032 28.608C200.896 26.432 202.048 24.608 203.488 23.136C204.928 21.664 206.608 20.544 208.528 19.776C210.48 19.008 212.56 18.624 214.768 18.624C216.272 18.624 217.6 18.72 218.752 18.912C219.936 19.104 220.944 19.328 221.776 19.584C222.608 19.84 223.28 20.096 223.792 20.352C224.336 20.608 224.704 20.8 224.896 20.928L223.408 24.816C222.48 24.208 221.248 23.712 219.712 23.328C218.176 22.912 216.608 22.704 215.008 22.704C213.312 22.704 211.76 23.008 210.352 23.616C208.976 24.224 207.792 25.104 206.8 26.256C205.84 27.408 205.088 28.816 204.544 30.48C204 32.112 203.728 33.952 203.728 36C203.728 37.984 203.952 39.792 204.4 41.424C204.88 43.056 205.584 44.464 206.512 45.648C207.472 46.8 208.64 47.696 210.016 48.336C211.424 48.976 213.072 49.296 214.96 49.296C216.304 49.296 217.44 49.232 218.368 49.104C219.328 48.944 220.016 48.8 220.432 48.672V36.288Z" fill="white"/>
<path d="M229.114 36C229.114 33.152 229.53 30.64 230.362 28.464C231.226 26.288 232.378 24.48 233.818 23.04C235.29 21.568 236.986 20.464 238.906 19.728C240.858 18.992 242.922 18.624 245.098 18.624C247.242 18.624 249.258 18.992 251.146 19.728C253.066 20.464 254.746 21.568 256.186 23.04C257.626 24.48 258.762 26.288 259.594 28.464C260.458 30.64 260.89 33.152 260.89 36C260.89 38.848 260.458 41.36 259.594 43.536C258.762 45.712 257.626 47.536 256.186 49.008C254.746 50.448 253.066 51.536 251.146 52.272C249.258 53.008 247.242 53.376 245.098 53.376C242.922 53.376 240.858 53.008 238.906 52.272C236.986 51.536 235.29 50.448 233.818 49.008C232.378 47.536 231.226 45.712 230.362 43.536C229.53 41.36 229.114 38.848 229.114 36ZM234.01 36C234.01 38.016 234.266 39.856 234.778 41.52C235.29 43.152 236.01 44.544 236.938 45.696C237.898 46.848 239.05 47.744 240.394 48.384C241.77 48.992 243.306 49.296 245.002 49.296C246.698 49.296 248.218 48.992 249.562 48.384C250.906 47.744 252.042 46.848 252.97 45.696C253.93 44.544 254.666 43.152 255.178 41.52C255.69 39.856 255.946 38.016 255.946 36C255.946 33.984 255.69 32.16 255.178 30.528C254.666 28.864 253.93 27.456 252.97 26.304C252.042 25.152 250.906 24.272 249.562 23.664C248.218 23.024 246.698 22.704 245.002 22.704C243.306 22.704 241.77 23.024 240.394 23.664C239.05 24.272 237.898 25.152 236.938 26.304C236.01 27.456 235.29 28.864 234.778 30.528C234.266 32.16 234.01 33.984 234.01 36Z" fill="white"/>
</g>
</g>
<defs>
<clipPath id="clip0_2289_7">
<rect width="261" height="72" fill="white"/>
</clipPath>
</defs>
</svg>
