<svg width="172" height="72" viewBox="0 0 172 72" fill="none" xmlns="http://www.w3.org/2000/svg">
<g id="logo / brand / white / deriv-wordmark vertical-25 years-french">
<g id="logo">
<path d="M69.3748 42.0385C67.8847 40.6269 66.0024 39.4641 63.7276 38.5484C61.4716 37.6415 58.6886 37.0548 55.5837 36.7899L56.9587 32.5561H46.2636L42.1395 45.254C45.7981 45.254 49.2686 45.4502 51.8055 45.8425C54.3415 46.234 56.3675 46.7841 57.8834 47.4895C59.3993 48.1948 60.497 49.058 61.1782 50.0772C61.8577 51.0973 62.1984 52.2343 62.1984 53.4889C62.1984 56.4698 61.2041 58.6652 59.2174 60.0768C57.2307 61.4884 54.3549 62.1955 50.5901 62.1955C48.6551 62.1955 46.6417 61.9092 44.5506 61.3332C42.4587 60.7589 39.632 59.7005 37.8013 58.6028H3.279C3.07034 58.9934 2.74041 59.7299 2.5478 60.1329C1.3975 62.5397 0.586945 65.3878 0.115234 68.6826H34.5939C35.6693 69.2123 37.0576 69.5494 38.3149 69.9613C39.7524 70.4322 41.2166 70.812 42.7066 71.0983C44.1966 71.3845 45.6483 71.6083 47.0599 71.7653C48.4715 71.9222 49.727 71.9998 50.8247 71.9998C54.5885 71.9998 57.9093 71.5414 60.785 70.6274C63.659 69.7125 66.0657 68.4187 68.0007 66.7449C69.9348 65.0712 71.3856 63.0328 72.354 60.6279C73.3215 58.2229 73.8057 55.5558 73.8057 52.6275C73.8057 50.5882 73.4383 48.6674 72.7071 46.8635C71.9741 45.0596 70.8639 43.4519 69.373 42.0394L69.3748 42.0385Z" fill="white"/>
<path d="M51.0415 17.868L47.7636 27.9478L77.5135 27.9424L80.7896 17.868H51.0415Z" fill="white"/>
<path d="M42.686 22.3211C41.953 20.7526 40.9222 19.3794 39.5882 18.2041C38.2551 17.028 36.6866 16.1006 34.8827 15.4203C33.0788 14.7408 31.1304 14.401 29.0393 14.401C25.6928 14.401 22.3926 14.7621 19.3135 15.9695C14.1006 18.0142 10.1539 21.5106 10.1539 21.5106L13.9027 29.93C16.3076 28.1003 18.5297 26.7279 20.5681 25.8131C22.6075 24.8991 24.6976 24.4407 26.8422 24.4407C28.3581 24.4407 29.5993 24.8991 30.5677 25.8131C31.5352 26.7288 32.0194 27.8667 32.0194 29.2247C32.0194 30.3233 31.7849 31.3693 31.3141 32.3626C30.8433 33.356 30.0987 34.4162 29.0795 35.5389C28.0602 36.6633 26.7263 37.8921 25.0793 39.2252C23.4323 40.5583 21.4322 42.1411 19.079 43.9699C16.5689 45.9049 14.2424 47.7222 12.0978 49.42C10.2939 50.8494 8.28938 52.3796 6.80023 53.9945H21.2004C21.6266 53.653 22.0555 53.3177 22.4907 52.9895C23.8755 51.9436 25.287 50.9244 26.7254 49.931C28.1628 48.9385 29.5877 47.8916 30.9993 46.7931C33.4042 44.9107 35.4302 43.212 37.0772 41.6952C38.7241 40.1793 40.0439 38.6884 41.039 37.2242C42.0315 35.7609 42.7368 34.2432 43.1568 32.6756C43.5741 31.1071 43.7846 29.3308 43.7846 27.3423C43.7846 25.5652 43.4172 23.8905 42.686 22.3229L42.6878 22.3211H42.686Z" fill="white"/>
<path d="M101.445 0.563541L100.523 5.79072H97.3235C94.3381 5.79072 91.4927 8.20812 90.9666 11.1953L90.7436 12.4651C90.2175 15.4506 92.2114 17.8697 95.1959 17.8697H97.8639C100.04 17.8697 102.112 16.1086 102.495 13.9329L104.953 0L101.446 0.564456L101.445 0.563541ZM99.1747 13.4389C99.057 14.1112 98.4515 14.6587 97.7792 14.6587H96.1581C94.8161 14.6587 93.919 13.57 94.1535 12.2253L94.2926 11.4335C94.5298 10.0914 95.8103 8.99999 97.1523 8.99999H99.9558L99.172 13.4398H99.1738L99.1747 13.4389ZM126.088 17.868L128.188 5.95657H131.509L129.409 17.868H126.085H126.088ZM126.447 6.09481C126.281 7.03912 126.113 7.98431 125.947 8.92862C124.373 8.43908 122.75 8.59603 122.251 8.69412C121.713 11.7527 121.173 14.813 120.634 17.8715H117.311C117.762 15.3123 119.304 6.57188 119.304 6.57188C120.386 6.12424 123.039 5.21556 126.448 6.09389V6.09568L126.447 6.09481ZM112.982 5.78807H110.397C107.878 5.78807 105.476 7.82825 105.033 10.3482L104.511 13.3087C104.067 15.8286 105.747 17.8689 108.266 17.8689H113.765L114.329 14.6677H109.161C108.322 14.6677 107.76 13.9882 107.91 13.1473L107.927 13.0465H116.26L116.735 10.3482C117.179 7.83004 115.498 5.78807 112.98 5.78807H112.982ZM113.401 10.0932L113.38 10.2644H108.425L108.452 10.1119C108.602 9.27282 109.367 8.53541 110.209 8.53541H112.144C112.977 8.53541 113.538 9.26123 113.399 10.0932H113.401ZM144.469 5.95657C143.337 8.96607 140.742 14.0871 138.228 17.868H134.904C133.751 14.269 133.005 9.25498 132.864 5.95657H136.188C136.248 7.03196 136.729 11.025 137.279 13.8134C138.787 11.1008 140.45 7.54112 141.143 5.95657H144.469Z" fill="white"/>
<path d="M108.72 61.8056C108.535 61.3989 108.35 60.9459 108.165 60.4466C107.98 59.9472 107.833 59.4212 107.722 58.8665C106.909 59.6066 105.818 60.3449 104.451 61.0841C103.083 61.8234 101.401 62.1935 99.4044 62.1935C97.7771 62.1935 96.3824 61.9339 95.2179 61.4167C94.0533 60.8996 93.101 60.1791 92.3626 59.2544C91.6225 58.3306 91.0777 57.24 90.7272 55.9827C90.375 54.7263 90.2002 53.3406 90.2002 51.8238C90.2002 49.3476 90.6158 46.9257 91.4477 44.56C92.2797 42.1943 93.5272 40.0872 95.1902 38.2387C96.8541 36.3911 98.9416 34.893 101.456 33.7472C103.97 32.6013 106.909 32.028 110.273 32.028C111.27 32.028 112.435 32.1386 113.766 32.3606C115.097 32.5826 116.242 32.9527 117.204 33.4699L112.934 50.8813C112.749 51.732 112.592 52.5452 112.463 53.321C112.332 54.0977 112.268 54.9109 112.268 55.7607C112.268 56.6105 112.342 57.471 112.49 58.3395C112.637 59.2089 112.897 60.1416 113.267 61.1394L108.72 61.8056ZM100.458 57.8134C102.01 57.8134 103.341 57.4808 104.45 56.8156C105.559 56.1504 106.519 55.3737 107.333 54.4865C107.37 53.8587 107.435 53.2024 107.528 52.5176C107.62 51.8336 107.74 51.1408 107.888 50.4381L111.215 36.6862C111.03 36.6122 110.725 36.5569 110.3 36.5195C109.875 36.4829 109.496 36.4642 109.163 36.4642C107.056 36.4642 105.151 36.8717 103.452 37.6841C101.751 38.4973 100.3 39.579 99.0986 40.9281C97.8965 42.2781 96.9727 43.8484 96.3263 45.6416C95.6789 47.4349 95.3561 49.311 95.3561 51.2701C95.3561 52.0468 95.4301 52.8323 95.5781 53.6268C95.7253 54.4222 95.9936 55.124 96.3824 55.7339C96.7703 56.3438 97.2875 56.8432 97.9349 57.2311C98.5814 57.619 99.4223 57.8134 100.458 57.8134Z" fill="white"/>
<path d="M124.302 61.473H119.145L125.799 33.7481C127.499 33.2309 129.338 32.8154 131.316 32.5006C133.293 32.1867 135.058 32.0289 136.612 32.0289C138.276 32.0289 139.708 32.2598 140.909 32.7217C142.11 33.1845 143.08 33.8123 143.82 34.6068C144.56 35.4022 145.104 36.3626 145.456 37.4906C145.807 38.6186 145.983 39.8473 145.983 41.1778C145.983 42.0285 145.908 42.9246 145.761 43.8672C145.613 44.8097 145.428 45.762 145.206 46.7233L141.657 61.473H136.5L139.772 47.8325C140.031 46.7982 140.279 45.7442 140.521 44.6715C140.761 43.5997 140.881 42.5831 140.881 41.6218C140.881 40.1434 140.474 38.9146 139.661 37.9346C138.848 36.9555 137.332 36.4651 135.115 36.4651C134.19 36.4651 133.285 36.5204 132.398 36.6319C131.51 36.7424 130.77 36.8904 130.18 37.075L124.302 61.473Z" fill="white"/>
<path d="M156.906 57.8687C157.683 57.8687 158.467 57.7947 159.263 57.6466C160.057 57.4995 160.76 57.2587 161.37 56.9261C161.98 56.5935 162.479 56.1415 162.867 55.5672C163.255 54.9947 163.449 54.2832 163.449 53.4325C163.449 52.8778 163.357 52.3883 163.172 51.9629C162.987 51.5385 162.691 51.1408 162.285 50.7707C161.877 50.4016 161.37 50.0413 160.76 49.6891C160.15 49.3387 159.42 48.9401 158.57 48.4969C157.719 48.0903 156.943 47.6845 156.241 47.277C155.538 46.8704 154.918 46.3898 154.383 45.8351C153.848 45.2805 153.431 44.6251 153.136 43.8662C152.84 43.1092 152.693 42.1943 152.693 41.1216C152.693 38.3493 153.691 36.1227 155.687 34.44C157.684 32.7583 160.585 31.9174 164.393 31.9174C166.167 31.9174 167.729 32.0931 169.079 32.4444C170.428 32.7958 171.361 33.1194 171.879 33.4146L169.938 37.6288C169.42 37.3336 168.588 37.0188 167.443 36.6862C166.298 36.3536 165.021 36.1869 163.617 36.1869C162.914 36.1869 162.212 36.2609 161.51 36.4089C160.807 36.557 160.17 36.8066 159.597 37.158C159.024 37.5093 158.562 37.9712 158.211 38.5445C157.858 39.1179 157.684 39.8117 157.684 40.624C157.684 41.6218 158.072 42.4449 158.848 43.0914C159.625 43.7387 160.789 44.4138 162.342 45.1155C163.303 45.5587 164.162 46.0126 164.921 46.4736C165.678 46.9364 166.325 47.4536 166.861 48.026C167.396 48.5994 167.804 49.2735 168.081 50.0502C168.358 50.8269 168.496 51.7507 168.496 52.8225C168.496 54.375 168.2 55.7428 167.609 56.9261C167.017 58.1094 166.195 59.0885 165.142 59.8652C164.089 60.6419 162.84 61.2242 161.399 61.6121C159.958 62 158.386 62.1943 156.686 62.1943C155.429 62.1943 154.292 62.1114 153.276 61.9447C152.259 61.7779 151.371 61.5844 150.614 61.3624C149.856 61.1403 149.228 60.9103 148.729 60.6695C148.23 60.4296 147.851 60.2353 147.592 60.0872L149.589 55.873C149.847 56.0211 150.208 56.2057 150.67 56.4277C151.132 56.6497 151.687 56.8709 152.334 57.0929C152.981 57.3149 153.693 57.5004 154.469 57.6476C155.246 57.7956 156.058 57.8696 156.909 57.8696L156.906 57.8687Z" fill="white"/>
</g>
</g>
</svg>
