<svg width="203" height="72" viewBox="0 0 203 72" fill="none" xmlns="http://www.w3.org/2000/svg">
<g id="logo / brand / teal / deriv-wordmark vertical-25 years-spanish">
<g id="logo">
<path d="M69.2596 42.0385C67.7695 40.6269 65.8871 39.4642 63.6124 38.5484C61.3564 37.6415 58.5734 37.0548 55.4685 36.7899L56.8435 32.5561H46.1484L42.0242 45.254C45.6829 45.254 49.1534 45.4502 51.6903 45.8425C54.2263 46.234 56.2523 46.7842 57.7682 47.4895C59.2841 48.1948 60.3818 49.058 61.063 50.0772C61.7425 51.0973 62.0831 52.2343 62.0831 53.4889C62.0831 56.4698 61.0889 58.6652 59.1022 60.0768C57.1154 61.4884 54.2388 62.1955 50.4749 62.1955C48.5399 62.1955 46.5265 61.9092 44.4354 61.3332C42.3435 60.7589 39.5168 59.7005 37.6861 58.6028H3.16376C2.95511 58.9934 2.62518 59.7299 2.43257 60.133C1.28227 62.5397 0.471712 65.3878 0 68.6826H34.4786C35.554 69.2123 36.9424 69.5494 38.1997 69.9613C39.6372 70.4322 41.1013 70.812 42.5914 71.0983C44.0814 71.3845 45.5331 71.6083 46.9447 71.7653C48.3562 71.9222 49.6117 71.9998 50.7094 71.9998C54.4733 71.9998 57.794 71.5414 60.6698 70.6274C63.5437 69.7125 65.9504 68.4187 67.8854 66.745C69.8195 65.0712 71.2704 63.0328 72.2388 60.6278C73.2062 58.2229 73.6904 55.5558 73.6904 52.6275C73.6904 50.5882 73.3231 48.6674 72.5919 46.8635C71.8589 45.0596 70.7487 43.4518 69.2578 42.0394L69.2596 42.0385Z" fill="#00F1F1"/>
<path d="M50.9262 17.868L47.6483 27.9478L77.3983 27.9424L80.6744 17.868H50.9262Z" fill="#00F1F1"/>
<path d="M42.5707 22.3203C41.8377 20.7518 40.8069 19.3785 39.4729 18.2033C38.1398 17.0271 36.5713 16.0997 34.7674 15.4194C32.9635 14.7399 31.0151 14.4002 28.9241 14.4002C25.5775 14.4002 22.2773 14.7613 19.1983 15.9687C13.9854 18.0133 10.0387 21.5097 10.0387 21.5097L13.7874 29.9292C16.1923 28.0994 18.4145 26.7271 20.4529 25.8122C22.4922 24.8982 24.5824 24.4399 26.7269 24.4399C28.2428 24.4399 29.4841 24.8982 30.4525 25.8122C31.42 26.728 31.9042 27.8658 31.9042 29.2238C31.9042 30.3224 31.6696 31.3684 31.1988 32.3617C30.728 33.3551 29.9834 34.4153 28.9642 35.538C27.945 36.6624 26.611 37.8912 24.964 39.2243C23.317 40.5574 21.3169 42.1402 18.9637 43.9691C16.4536 45.9041 14.1272 47.7214 11.9826 49.4192C10.1787 50.8486 8.17412 52.3787 6.68497 53.9936H21.0851C21.5113 53.6521 21.9402 53.3168 22.3754 52.9887C23.7602 51.9427 25.1718 50.9235 26.6101 49.9301C28.0475 48.9376 29.4725 47.8908 30.8841 46.7922C33.289 44.9098 35.3149 43.2111 36.9619 41.6943C38.6089 40.1784 39.9286 38.6875 40.9237 37.2233C41.9162 35.76 42.6215 34.2423 43.0415 32.6747C43.4589 31.1062 43.6693 29.33 43.6693 27.3415C43.6693 25.5643 43.3019 23.8897 42.5707 22.3221L42.5725 22.3203H42.5707Z" fill="#00F1F1"/>
<path d="M101.33 0.563563L100.408 5.79072H97.2083C94.2229 5.79072 91.3774 8.20814 90.8513 11.1953L90.6284 12.4651C90.1023 15.4506 92.0961 17.8698 95.0807 17.8698H97.7486C99.9244 17.8698 101.997 16.1086 102.379 13.9329L104.838 0L101.331 0.564456L101.33 0.563563ZM99.0603 13.438C98.9426 14.1103 98.3372 14.6578 97.6648 14.6578H96.0437C94.7017 14.6578 93.8046 13.5691 94.0392 12.2244L94.1783 11.4325C94.4155 10.0905 95.6959 8.99907 97.038 8.99907H99.8415L99.0577 13.4389H99.0595L99.0603 13.438ZM125.974 17.868L128.074 5.95659H131.394L129.294 17.868H125.971H125.974ZM126.332 6.09481C126.165 7.03912 125.998 7.98433 125.832 8.92865C124.258 8.4391 122.635 8.59603 122.136 8.69412C121.597 11.7527 121.058 14.813 120.519 17.8715H117.196C117.647 15.3123 119.189 6.57186 119.189 6.57186C120.27 6.12422 122.924 5.21559 126.333 6.09391V6.0957L126.332 6.09481ZM112.867 5.78804H110.282C107.763 5.78804 105.361 7.82827 104.918 10.3482L104.395 13.3087C103.951 15.8286 105.632 17.8689 108.15 17.8689H113.65L114.214 14.6676H109.046C108.207 14.6676 107.645 13.9882 107.795 13.1473L107.812 13.0465H116.145L116.62 10.3482C117.064 7.83006 115.383 5.78804 112.865 5.78804H112.867ZM113.286 10.0932L113.265 10.2644H108.31L108.337 10.1119C108.487 9.27285 109.252 8.53539 110.093 8.53539H112.028C112.861 8.53539 113.423 9.26123 113.284 10.0932H113.286ZM144.354 5.95659C143.222 8.96609 140.627 14.0872 138.113 17.868H134.789C133.635 14.2691 132.89 9.255 132.749 5.95659H136.072C136.133 7.03198 136.614 11.025 137.164 13.8134C138.672 11.1008 140.335 7.54115 141.028 5.95659H144.354Z" fill="#00F1F1"/>
<path d="M108.601 61.8054C108.415 61.3988 108.231 60.9458 108.046 60.4465C107.861 59.9471 107.714 59.421 107.603 58.8663C106.79 59.6064 105.698 60.3457 104.331 61.084C102.964 61.8232 101.282 62.1933 99.2852 62.1933C97.6579 62.1933 96.2632 61.9347 95.0987 61.4166C93.9341 60.8985 92.9818 60.1789 92.2434 59.2542C91.5033 58.3304 90.9585 57.2399 90.6081 55.9826C90.2558 54.7262 90.0811 53.3404 90.0811 51.8237C90.0811 49.3474 90.4966 46.9255 91.3285 44.5598C92.1605 42.1941 93.408 40.0871 95.071 38.2386C96.7349 36.3901 98.8224 34.8929 101.337 33.747C103.851 32.6021 106.789 32.0278 110.153 32.0278C111.151 32.0278 112.316 32.1384 113.647 32.3604C114.977 32.5825 116.123 32.9525 117.085 33.4697L112.815 50.8811C112.63 51.7318 112.473 52.545 112.343 53.3208C112.213 54.0975 112.149 54.9107 112.149 55.7605C112.149 56.6103 112.223 57.4708 112.371 58.3393C112.518 59.2088 112.778 60.1415 113.148 61.1393L108.601 61.8054ZM100.339 57.8124C101.892 57.8124 103.223 57.4798 104.331 56.8145C105.441 56.1493 106.401 55.3726 107.215 54.4854C107.252 53.8576 107.317 53.2013 107.41 52.5165C107.501 51.8326 107.622 51.1397 107.77 50.4371L111.097 36.6852C110.911 36.6112 110.606 36.5559 110.182 36.5185C109.757 36.4819 109.378 36.4632 109.045 36.4632C106.938 36.4632 105.033 36.8707 103.334 37.683C101.633 38.4963 100.181 39.5779 98.9812 40.927C97.7791 42.2771 96.8553 43.8474 96.2088 45.6406C95.5615 47.4338 95.2387 49.3099 95.2387 51.269C95.2387 52.0457 95.3127 52.8313 95.4607 53.6258C95.6078 54.4212 95.8762 55.123 96.265 55.7329C96.6529 56.3428 97.1701 56.8422 97.8175 57.2301C98.464 57.618 99.304 57.8124 100.339 57.8124Z" fill="#00F1F1"/>
<path d="M124.183 61.4719H119.026L125.68 33.7471C127.379 33.2299 129.219 32.8143 131.197 32.4996C133.174 32.1857 134.939 32.0278 136.493 32.0278C138.157 32.0278 139.589 32.2588 140.79 32.7207C141.991 33.1835 142.961 33.8113 143.701 34.6058C144.44 35.4012 144.985 36.3615 145.337 37.4895C145.687 38.6175 145.864 39.8463 145.864 41.1767C145.864 42.0274 145.789 42.9236 145.641 43.8661C145.493 44.8086 145.309 45.761 145.087 46.7222L141.538 61.4719H136.381L139.653 47.8315C139.911 46.7971 140.16 45.7432 140.401 44.6704C140.641 43.5986 140.761 42.5821 140.761 41.6208C140.761 40.1424 140.354 38.9136 139.541 37.9336C138.728 36.9545 137.212 36.4641 134.995 36.4641C134.07 36.4641 133.165 36.5194 132.278 36.6308C131.39 36.7414 130.65 36.8903 130.06 37.0749L124.182 61.4728L124.183 61.4719ZM139.986 22.269C140.541 22.5651 141.04 22.805 141.483 22.9895C141.927 23.175 142.371 23.2669 142.814 23.2669C143.591 23.2669 144.236 22.9806 144.754 22.4073C145.271 21.8348 145.733 21.2338 146.141 20.6051L148.747 22.2129C148.007 23.7653 147.13 24.9575 146.113 25.7895C145.096 26.6214 143.756 27.037 142.093 27.037C141.353 27.037 140.698 26.9077 140.125 26.6491C139.551 26.3914 139.006 26.1141 138.489 25.8171C137.934 25.522 137.436 25.2821 136.992 25.0966C136.548 24.912 136.105 24.8193 135.662 24.8193C134.885 24.8193 134.238 25.1064 133.721 25.6789C133.203 26.2523 132.741 26.8533 132.335 27.481L129.728 25.8733C130.467 24.3208 131.345 23.1286 132.362 22.2967C133.379 21.4647 134.719 21.0492 136.382 21.0492C137.121 21.0492 137.777 21.1794 138.351 21.4371C138.923 21.6957 139.468 21.973 139.986 22.269Z" fill="#00F1F1"/>
<path d="M160.613 62.1933C157.581 62.1933 155.207 61.2972 153.487 59.5039C151.768 57.7116 150.909 55.2434 150.909 52.101C150.909 49.9574 151.214 47.7022 151.823 45.3356C152.433 42.9699 153.404 40.7888 154.735 38.7923C156.065 36.7958 157.784 35.1515 159.892 33.8576C161.999 32.5638 164.55 31.9173 167.544 31.9173C170.538 31.9173 172.951 32.8143 174.67 34.6067C176.389 36.3999 177.249 38.8681 177.249 42.0096C177.249 44.1541 176.944 46.4093 176.334 48.7749C175.724 51.1415 174.754 53.3218 173.422 55.3183C172.092 57.3148 170.373 58.96 168.266 60.253C166.158 61.5468 163.607 62.1933 160.613 62.1933ZM161.5 57.8124C163.164 57.8124 164.651 57.3326 165.964 56.3705C167.276 55.4092 168.385 54.1805 169.291 52.6833C170.196 51.1861 170.89 49.532 171.37 47.7209C171.85 45.9099 172.091 44.1541 172.091 42.4528C172.091 40.5677 171.683 39.0705 170.871 37.9612C170.058 36.852 168.653 36.2973 166.657 36.2973C164.993 36.2973 163.505 36.778 162.193 37.7392C160.88 38.7014 159.771 39.9292 158.866 41.4264C157.96 42.9236 157.266 44.5786 156.787 46.3896C156.306 48.2016 156.066 49.9574 156.066 51.6578C156.066 53.5429 156.473 55.0401 157.286 56.1493C158.098 57.2586 159.504 57.8124 161.5 57.8124Z" fill="#00F1F1"/>
<path d="M187.562 57.8676C188.339 57.8676 189.124 57.7936 189.919 57.6456C190.714 57.4985 191.416 57.2577 192.026 56.9251C192.636 56.5925 193.135 56.1404 193.523 55.5662C193.911 54.9937 194.106 54.2821 194.106 53.4314C194.106 52.8768 194.013 52.3872 193.828 51.9619C193.643 51.5374 193.348 51.1397 192.941 50.7697C192.534 50.4005 192.026 50.0403 191.416 49.688C190.806 49.3376 190.076 48.9399 189.226 48.4958C188.376 48.0892 187.599 47.6835 186.897 47.276C186.194 46.8693 185.575 46.3887 185.04 45.8341C184.504 45.2794 184.087 44.624 183.792 43.8652C183.496 43.1081 183.348 42.1933 183.348 41.1205C183.348 38.3482 184.346 36.1216 186.342 34.439C188.339 32.7572 191.241 31.9164 195.048 31.9164C196.823 31.9164 198.384 32.092 199.734 32.4434C201.083 32.7947 202.016 33.1184 202.534 33.4135L200.594 37.6277C200.076 37.3326 199.244 37.0178 198.099 36.6852C196.952 36.3526 195.677 36.1859 194.272 36.1859C193.57 36.1859 192.867 36.2599 192.165 36.4079C191.463 36.5559 190.825 36.8056 190.253 37.156C189.679 37.5082 189.217 37.9693 188.866 38.5426C188.515 39.116 188.339 39.8097 188.339 40.6221C188.339 41.6199 188.727 42.4429 189.504 43.0894C190.28 43.7368 191.444 44.4118 192.997 45.1136C193.958 45.5568 194.817 46.0106 195.576 46.4725C196.333 46.9353 196.981 47.4525 197.516 48.025C198.051 48.5984 198.459 49.2725 198.736 50.0492C199.014 50.8258 199.152 51.7497 199.152 52.8215C199.152 54.3739 198.856 55.7418 198.265 56.9251C197.672 58.1084 196.85 59.0875 195.797 59.8642C194.743 60.6408 193.496 61.2231 192.055 61.611C190.613 61.9989 189.042 62.1933 187.341 62.1933C186.084 62.1933 184.947 62.1104 183.931 61.9436C182.914 61.7769 182.027 61.5834 181.27 61.3613C180.512 61.1393 179.883 60.9092 179.385 60.6685C178.885 60.4286 178.506 60.2342 178.248 60.0862L180.244 55.872C180.503 56.02 180.863 56.2046 181.326 56.4266C181.788 56.6487 182.342 56.8698 182.99 57.0919C183.636 57.3139 184.349 57.4994 185.124 57.6465C185.901 57.7945 186.713 57.8685 187.564 57.8685L187.562 57.8676Z" fill="#00F1F1"/>
</g>
</g>
</svg>
