<svg width="72" height="72" viewBox="0 0 72 72" fill="none" xmlns="http://www.w3.org/2000/svg">
<g id="logo / partners product / white / deriv ctrader-thirdparty-logo">
<path id="logo" d="M36 0C16.1472 0 0 16.1472 0 36C0 55.8528 16.1472 72 36 72C55.8528 72 72 55.8528 72 36C72 16.1472 55.8528 0 36 0ZM36 5.78646C52.1313 5.78646 65.3505 18.4923 66.1713 34.4223C66.1977 34.9464 66.2136 35.4705 66.2136 36C66.2136 51.4641 54.3018 57.1923 47.9223 58.0128C37.8318 59.31 29.3346 53.8623 29.3346 43.2C29.3346 33.0936 40.5105 24.3423 54.6672 28.6518L56.4987 20.4087C51.3687 17.9154 45.8523 16.7823 40.4628 16.7823C19.7418 16.7823 6.7818 32.1936 7.9782 46.1859C7.8672 46.2441 7.7136 46.3287 7.56 46.4136C6.6123 43.2846 6.1041 39.8064 6.1041 36C6.1041 19.3395 19.3395 5.78646 36 5.78646Z" fill="#FDFDFF"/>
</g>
</svg>
