<svg width="218" height="72" viewBox="0 0 218 72" fill="none" xmlns="http://www.w3.org/2000/svg">
<g id="logo / brand / black / deriv-25 years-russian">
<g id="logo">
<path d="M86.6121 34.547C84.7497 32.7827 82.3967 31.329 79.5523 30.184C76.7322 29.0498 73.254 28.3171 69.3718 27.9858L71.0901 22.6938H57.7213L52.5662 38.5662C57.1398 38.5662 61.4785 38.8111 64.6496 39.3026C67.8199 39.7922 70.352 40.48 72.2477 41.3621C74.1434 42.2442 75.5143 43.3227 76.3658 44.5964C77.2156 45.871 77.6404 47.2923 77.6404 48.8604C77.6404 52.5862 76.3982 55.3316 73.9138 57.095C71.4304 58.8593 67.8352 59.7433 63.1302 59.7433C60.7115 59.7433 58.1948 59.385 55.5817 58.6649C52.9659 57.9466 49.4328 56.6233 47.1447 55.2524H3.99118C3.73014 55.7403 3.31787 56.662 3.07663 57.1652C1.63821 60.1735 0.624655 63.7336 0.0368651 67.8528H43.1364C44.4812 68.5144 46.2157 68.9357 47.7874 69.4514C49.584 70.0401 51.414 70.5145 53.2773 70.8728C55.1406 71.231 56.9543 71.5101 58.7186 71.7063C60.4829 71.9026 62.0527 71.9997 63.4246 71.9997C68.1296 71.9997 72.2801 71.4273 75.8744 70.2841C79.4677 69.1409 82.4751 67.5233 84.8946 65.4313C87.3115 63.3394 89.1262 60.7911 90.3359 57.7854C91.5448 54.7789 92.1506 51.4456 92.1506 47.7847C92.1506 45.2364 91.6916 42.8348 90.777 40.579C89.8607 38.3232 88.4727 36.3149 86.6094 34.5488L86.6121 34.547Z" fill="#414652"/>
<path d="M63.6946 4.3333L59.5981 16.9337L96.7863 16.9265L100.881 4.3333H63.6946Z" fill="#414652"/>
<path d="M53.2503 9.8999C52.3339 7.93936 51.045 6.22277 49.3788 4.75372C47.7118 3.28287 45.7521 2.12348 43.4964 1.27463C41.2407 0.424887 38.8058 0 36.1918 0C32.0089 0 27.8826 0.451902 24.0345 1.96056C17.5184 4.517 12.5848 8.88722 12.5848 8.88722L17.27 19.4118C20.2765 17.1236 23.0534 15.4088 25.6026 14.2656C28.1518 13.1225 30.7649 12.5499 33.4455 12.5499C35.3412 12.5499 36.8921 13.1225 38.1019 14.2656C39.3117 15.4106 39.9166 16.8329 39.9166 18.5297C39.9166 19.9033 39.6231 21.2103 39.0344 22.4517C38.4457 23.6939 37.515 25.0189 36.2404 26.4223C34.9658 27.8283 33.2988 29.364 31.2402 31.0301C29.1806 32.6972 26.681 34.6748 23.7393 36.9612C20.6014 39.3809 17.6931 41.652 15.0125 43.7745C12.7567 45.5623 10.2516 47.4742 8.39016 49.4932H26.3902C26.9231 49.0665 27.4595 48.647 28.0032 48.2375C29.7351 46.9305 31.4985 45.6558 33.2969 44.4136C35.0936 43.1732 36.875 41.8644 38.6393 40.4907C41.6457 38.1377 44.1778 36.0143 46.2373 34.1186C48.2969 32.2229 49.945 30.3604 51.189 28.5295C52.4294 26.7004 53.3115 24.8038 53.8372 22.8432C54.3593 20.8827 54.6221 18.662 54.6221 16.1758C54.6221 13.9542 54.1631 11.8614 53.2485 9.90082L53.2503 9.8999Z" fill="#414652"/>
<path d="M107.857 54.1288C109.105 54.037 110.202 53.8057 111.15 53.4357C112.097 53.0667 112.918 52.604 113.611 52.0495C114.304 51.495 114.905 50.8712 115.413 50.1781C115.921 49.485 116.36 48.7918 116.73 48.0987C117.7 46.2507 118.555 44.2758 119.295 42.1721C120.034 40.0703 120.691 37.9216 121.27 35.7261C121.847 33.5315 122.368 31.336 122.83 29.1415C123.292 26.9469 123.731 24.8333 124.147 22.799H147.922L139.258 58.843H132.812L140.159 28.2053H129.276C128.905 29.7302 128.502 31.3595 128.063 33.0923C127.623 34.8251 127.15 36.5578 126.641 38.2906C126.132 40.0234 125.602 41.7337 125.047 43.4197C124.493 45.1075 123.891 46.6891 123.245 48.168C122.459 49.9702 121.604 51.5418 120.681 52.8812C119.755 54.2225 118.681 55.3657 117.457 56.3126C116.232 57.2605 114.846 57.9878 113.299 58.4964C111.75 59.0041 109.96 59.3282 107.927 59.4668L107.857 54.1288Z" fill="#414652"/>
<path d="M165.527 59.7431C163.17 59.7431 161.136 59.4073 159.427 58.7376C157.717 58.0679 156.284 57.1435 155.13 55.9652C153.974 54.7869 153.12 53.4123 152.565 51.8406C152.011 50.2698 151.734 48.6064 151.734 46.8502C151.734 43.6159 152.219 40.4969 153.189 37.4922C154.16 34.4892 155.546 31.832 157.348 29.5213C159.15 27.2115 161.344 25.3743 163.932 24.0105C166.519 22.6477 169.454 21.9654 172.735 21.9654C174.629 21.9654 176.258 22.2075 177.622 22.6927C178.985 23.1779 180.093 23.8368 180.949 24.6686C181.803 25.5003 182.439 26.4599 182.855 27.5455C183.271 28.6319 183.479 29.7526 183.479 30.9075C183.479 33.0805 183.086 34.9168 182.301 36.4183C181.514 37.9206 180.474 39.18 179.182 40.1962C177.887 41.2134 176.374 41.9984 174.641 42.5528C172.909 43.1073 171.106 43.5466 169.235 43.8698C167.364 44.1938 165.468 44.4134 163.552 44.5287C161.633 44.6448 159.82 44.7483 158.11 44.8401C158.063 45.211 158.041 45.5108 158.041 45.7412V46.2957C158.041 47.3597 158.168 48.3643 158.423 49.3112C158.677 50.2591 159.151 51.0908 159.844 51.8064C160.537 52.5238 161.496 53.0892 162.721 53.505C163.945 53.9209 165.551 54.1288 167.538 54.1288C168.416 54.1288 169.329 54.0487 170.277 53.8858C171.224 53.7247 172.125 53.5167 172.98 53.262C173.834 53.0081 174.596 52.7543 175.267 52.4996C175.937 52.2457 176.411 52.0036 176.688 51.7722L177.243 57.2479C176.317 57.7574 174.828 58.2992 172.772 58.8771C170.715 59.4541 168.301 59.744 165.528 59.744L165.527 59.7431ZM158.941 39.919C161.621 39.8272 164.07 39.6534 166.288 39.3987C168.506 39.1449 170.423 38.7056 172.041 38.0818C173.657 37.458 174.918 36.6154 175.819 35.5514C176.72 34.4892 177.171 33.103 177.171 31.3927C177.171 30.9769 177.09 30.5385 176.928 30.0758C176.766 29.6149 176.488 29.1864 176.096 28.7931C175.703 28.4006 175.16 28.0775 174.467 27.8227C173.774 27.5689 172.918 27.4419 171.902 27.4419C170.284 27.4419 168.772 27.7885 167.362 28.4816C165.951 29.1747 164.693 30.0875 163.584 31.2199C162.475 32.3523 161.527 33.6701 160.742 35.1707C159.956 36.673 159.357 38.2555 158.941 39.919Z" fill="#414652"/>
<path d="M217.959 21.9087L216.946 26.2258H205.808L197.974 58.8421H192.804L200.638 26.2258H189.5L190.513 21.9087H217.959Z" fill="#414652"/>
</g>
</g>
</svg>
