<svg width="173" height="35" viewBox="0 0 173 35" fill="none" xmlns="http://www.w3.org/2000/svg">
<g id="logo / deriv product / black / deriv go-wordmark">
<g id="wordmark">
<path fill-rule="evenodd" clip-rule="evenodd" d="M20.7392 1.19417L18.9669 11.2451H12.8148C7.07522 11.2451 1.60451 15.8952 0.590546 21.6347L0.161366 24.0777C-0.847872 29.8173 2.98161 34.4675 8.72116 34.4675H13.8523C18.0355 34.4675 22.0207 31.0811 22.7564 26.898L27.4819 0.11025L20.7392 1.19417ZM16.3739 25.95C16.1476 27.2423 14.9842 28.294 13.692 28.294H10.5746C7.99488 28.294 6.26878 26.1999 6.72151 23.6155L6.99035 22.0922C7.4478 19.5125 9.90962 17.4138 12.4894 17.4138H17.8791L16.3739 25.95Z" fill="#414652"/>
<path d="M68.1186 34.4691H74.5042L78.5411 11.5674H72.1556L68.1186 34.4691Z" fill="#414652"/>
<path d="M68.3312 14.553L68.3322 14.5477C68.4921 13.6422 68.652 12.7368 68.8115 11.8313C62.2592 10.143 57.1556 11.8896 55.0773 12.7502C55.0773 12.7502 52.1128 29.5541 51.2451 34.4745H57.6349C58.672 28.5939 59.709 22.7119 60.7445 16.8313C61.7035 16.6401 64.8247 16.3407 67.8499 17.2808C68.0101 16.3715 68.1707 15.4623 68.3312 14.553Z" fill="#414652"/>
<path fill-rule="evenodd" clip-rule="evenodd" d="M42.9142 11.2428H37.9481C33.1046 11.2428 28.4877 15.1666 27.6339 20.0101L26.6295 25.7024C25.7758 30.5459 29.0064 34.4698 33.8499 34.4698H44.4235L45.5082 28.3152H35.5711C33.9583 28.3152 32.8782 27.0088 33.166 25.3912L33.199 25.1978H49.2197L50.1346 20.0101C50.9881 15.1666 47.7577 11.2428 42.9142 11.2428ZM43.7253 19.5196L43.6877 19.8497H34.1612L34.2131 19.5573C34.5006 17.9444 35.9722 16.5248 37.5896 16.5248H41.3107C42.9095 16.5248 43.9896 17.9208 43.7253 19.5196Z" fill="#414652"/>
<path d="M89.6394 26.6731C92.5388 21.457 95.7352 14.6133 97.0671 11.5674H103.462C101.285 17.3549 96.2968 27.1999 91.4643 34.4691H85.0741C82.8559 27.5505 81.4235 17.9107 81.1502 11.5674H87.5407C87.656 13.6366 88.5823 21.3114 89.6394 26.6731Z" fill="#414652"/>
<path d="M141.114 17.376C141.114 14.528 141.53 12.016 142.362 9.84C143.226 7.664 144.378 5.856 145.818 4.416C147.29 2.944 148.986 1.84 150.906 1.104C152.858 0.368 154.922 0 157.098 0C159.242 0 161.258 0.368 163.146 1.104C165.066 1.84 166.746 2.944 168.186 4.416C169.626 5.856 170.762 7.664 171.594 9.84C172.458 12.016 172.89 14.528 172.89 17.376C172.89 20.224 172.458 22.736 171.594 24.912C170.762 27.088 169.626 28.912 168.186 30.384C166.746 31.824 165.066 32.912 163.146 33.648C161.258 34.384 159.242 34.752 157.098 34.752C154.922 34.752 152.858 34.384 150.906 33.648C148.986 32.912 147.29 31.824 145.818 30.384C144.378 28.912 143.226 27.088 142.362 24.912C141.53 22.736 141.114 20.224 141.114 17.376ZM146.01 17.376C146.01 19.392 146.266 21.232 146.778 22.896C147.29 24.528 148.01 25.92 148.938 27.072C149.898 28.224 151.05 29.12 152.394 29.76C153.77 30.368 155.306 30.672 157.002 30.672C158.698 30.672 160.218 30.368 161.562 29.76C162.906 29.12 164.042 28.224 164.97 27.072C165.93 25.92 166.666 24.528 167.178 22.896C167.69 21.232 167.946 19.392 167.946 17.376C167.946 15.36 167.69 13.536 167.178 11.904C166.666 10.24 165.93 8.832 164.97 7.68C164.042 6.528 162.906 5.648 161.562 5.04C160.218 4.4 158.698 4.08 157.002 4.08C155.306 4.08 153.77 4.4 152.394 5.04C151.05 5.648 149.898 6.528 148.938 7.68C148.01 8.832 147.29 10.24 146.778 11.904C146.266 13.536 146.01 15.36 146.01 17.376Z" fill="#414652"/>
<path d="M132.432 17.664H137.088V33.216C136.704 33.344 136.144 33.488 135.408 33.648C134.704 33.808 133.872 33.968 132.912 34.128C131.984 34.288 130.96 34.416 129.84 34.512C128.72 34.64 127.584 34.704 126.432 34.704C124.096 34.704 121.968 34.32 120.048 33.552C118.128 32.784 116.48 31.664 115.104 30.192C113.728 28.72 112.656 26.912 111.888 24.768C111.152 22.624 110.784 20.16 110.784 17.376C110.784 14.592 111.2 12.128 112.032 9.984C112.896 7.808 114.048 5.984 115.488 4.512C116.928 3.04 118.608 1.92 120.528 1.152C122.48 0.384 124.56 0 126.768 0C128.272 0 129.6 0.0960007 130.752 0.288002C131.936 0.480001 132.944 0.704001 133.776 0.960002C134.608 1.216 135.28 1.472 135.792 1.728C136.336 1.984 136.704 2.176 136.896 2.304L135.408 6.192C134.48 5.584 133.248 5.088 131.712 4.704C130.176 4.288 128.608 4.08 127.008 4.08C125.312 4.08 123.76 4.384 122.352 4.992C120.976 5.6 119.792 6.48 118.8 7.632C117.84 8.784 117.088 10.192 116.544 11.856C116 13.488 115.728 15.328 115.728 17.376C115.728 19.36 115.952 21.168 116.4 22.8C116.88 24.432 117.584 25.84 118.512 27.024C119.472 28.176 120.64 29.072 122.016 29.712C123.424 30.352 125.072 30.672 126.96 30.672C128.304 30.672 129.44 30.608 130.368 30.48C131.328 30.32 132.016 30.176 132.432 30.048V17.664Z" fill="#414652"/>
</g>
</g>
</svg>
