<svg width="155" height="72" viewBox="0 0 155 72" fill="none" xmlns="http://www.w3.org/2000/svg">
<g id="logo / brand / brand-light / deriv-wordmark vertical-25 years-tagline-portuguese">
<g id="logo">
<path d="M52.8195 32.0612C51.6825 30.9839 50.2482 30.0982 48.5127 29.4C46.7911 28.7078 44.6706 28.261 42.3007 28.0595L43.35 24.8298H35.1931L32.0472 34.5148C34.838 34.5148 37.4852 34.6644 39.4202 34.9637C41.3552 35.2629 42.8992 35.6818 44.0562 36.2204C45.2132 36.759 46.049 37.4173 46.5697 38.1933C47.0884 38.9713 47.3477 39.8391 47.3477 40.7946C47.3477 43.0687 46.5897 44.7424 45.0736 45.8196C43.5575 46.8968 41.3652 47.4354 38.4946 47.4354C37.0184 47.4354 35.4843 47.216 33.8885 46.7771C32.2926 46.3383 30.1362 45.5324 28.7418 44.6945H2.41378C2.2542 44.9917 2.00284 45.5543 1.85522 45.8615C0.977485 47.6968 0.359072 49.8691 0 52.3827H26.2961C27.116 52.7856 28.1752 53.0429 29.1347 53.3581C30.2299 53.7172 31.347 54.0065 32.4841 54.2259C33.6212 54.4453 34.7283 54.6149 35.8035 54.7346C36.8807 54.8543 37.8382 54.9141 38.6741 54.9141C41.5447 54.9141 44.0781 54.565 46.2705 53.8668C48.4628 53.1686 50.2981 52.1832 51.7743 50.9065C53.2484 49.6298 54.3556 48.0758 55.0937 46.2405C55.8318 44.4073 56.2008 42.3725 56.2008 40.1383C56.2008 38.5823 55.9195 37.1181 55.363 35.7416C54.8044 34.3652 53.9566 33.1404 52.8195 32.0631V32.0612Z" fill="#414652"/>
<path d="M38.8374 13.6289L36.3379 21.317L59.0273 21.3131L61.5248 13.6289H38.8374Z" fill="#414652"/>
<path d="M32.4669 17.024C31.9083 15.8271 31.1224 14.7798 30.105 13.8841C29.0876 12.9865 27.8927 12.2803 26.5163 11.7616C25.1398 11.243 23.6537 10.9836 22.0598 10.9836C19.5084 10.9836 16.9909 11.2589 14.6429 12.1806C10.6672 13.7405 7.65699 16.4056 7.65699 16.4056L10.5156 22.827C12.3489 21.4307 14.0445 20.3854 15.5985 19.6872C17.1545 18.989 18.7483 18.6399 20.3841 18.6399C21.5411 18.6399 22.4867 18.989 23.2248 19.6872C23.9629 20.3854 24.3319 21.2531 24.3319 22.2884C24.3319 23.1263 24.1524 23.9242 23.7933 24.6823C23.4342 25.4403 22.8657 26.2482 22.0897 27.104C21.3117 27.9618 20.2944 28.8994 19.0396 29.9147C17.7828 30.9321 16.2568 32.139 14.4634 33.5334C12.5484 35.0096 10.7749 36.396 9.13917 37.6907C7.76273 38.7818 6.23468 39.9468 5.09961 41.1796H16.0812C16.4064 40.9183 16.7336 40.663 17.0647 40.4136C18.122 39.6157 19.1972 38.8377 20.2943 38.0816C21.3895 37.3256 22.4767 36.5257 23.5539 35.6878C25.3872 34.2515 26.9332 32.9569 28.19 31.7999C29.4467 30.6429 30.4521 29.5058 31.2122 28.3907C31.9682 27.2756 32.5068 26.1165 32.828 24.9216C33.1472 23.7247 33.3067 22.3702 33.3067 20.8541C33.3067 19.4996 33.0275 18.2209 32.4689 17.026L32.4669 17.024Z" fill="#414652"/>
<path d="M77.2778 0.430887L76.5756 4.41659H74.1359C71.8598 4.41659 69.6894 6.25983 69.2865 8.53794L69.1169 9.50744C68.7159 11.7836 70.236 13.6288 72.5121 13.6288H74.5469C76.2066 13.6288 77.7865 12.2863 78.0778 10.6265L79.9529 0L77.2778 0.430887ZM75.5483 10.2495C75.4585 10.7622 74.9977 11.1791 74.485 11.1791H73.2482C72.2249 11.1791 71.5406 10.3493 71.7202 9.32391L71.8259 8.71947C72.0074 7.69612 72.9829 6.86427 74.0063 6.86427H76.1448L75.5463 10.2495H75.5483ZM96.0733 13.6288L97.6751 4.54426H100.207L98.6047 13.6288H96.0693H96.0733ZM96.3465 4.64799C96.2189 5.36813 96.0912 6.08827 95.9656 6.80841C94.7647 6.43538 93.5278 6.55507 93.1468 6.62888C92.7359 8.96085 92.3249 11.2948 91.914 13.6288H89.3786C89.7217 11.6778 90.8986 5.01105 90.8986 5.01105C91.7225 4.66994 93.7473 3.97573 96.3465 4.646V4.64799ZM86.0771 4.4146H84.1062C82.1851 4.4146 80.3539 5.97058 80.0147 7.89361L79.6158 10.1518C79.2766 12.0728 80.5594 13.6308 82.4804 13.6308H86.6735L87.1044 11.1891H83.1626C82.5223 11.1891 82.0934 10.6704 82.2091 10.0301L82.2231 9.95229H88.5786L88.9417 7.89361C89.2808 5.97257 87.9981 4.4146 86.0771 4.4146ZM86.3963 7.69811L86.3803 7.82977H82.6021L82.622 7.71407C82.7357 7.07373 83.3202 6.51118 83.9625 6.51118H85.4387C86.0731 6.51118 86.502 7.06375 86.3963 7.70011V7.69811ZM110.091 4.54426C109.227 6.84033 107.248 10.7442 105.331 13.6288H102.796C101.916 10.8839 101.348 7.05976 101.24 4.54426H103.775C103.821 5.36414 104.188 8.41027 104.607 10.5368C105.756 8.46812 107.025 5.75314 107.554 4.54426H110.091Z" fill="#FF444F"/>
<path d="M82.8267 47.1383C82.6851 46.8291 82.5454 46.482 82.4038 46.103C82.2622 45.7219 82.1504 45.321 82.0646 44.8981C81.4442 45.4626 80.6124 46.0252 79.5691 46.5897C78.5258 47.1542 77.2431 47.4355 75.721 47.4355C74.4803 47.4355 73.417 47.238 72.5273 46.8431C71.6396 46.4481 70.9135 45.8995 70.3489 45.1933C69.7844 44.4891 69.3694 43.6573 69.1021 42.6978C68.8348 41.7402 68.7012 40.683 68.7012 39.526C68.7012 37.6368 69.0184 35.7896 69.6527 33.9863C70.2871 32.1829 71.2386 30.5751 72.5074 29.1647C73.7761 27.7544 75.368 26.6133 77.287 25.7396C79.204 24.8658 81.4443 24.429 84.0116 24.429C84.7737 24.429 85.6614 24.5127 86.6767 24.6823C87.6921 24.8519 88.5658 25.1331 89.298 25.5281L86.0424 38.8078C85.9007 39.4561 85.7811 40.0765 85.6833 40.669C85.5836 41.2615 85.5357 41.8819 85.5357 42.5302C85.5357 43.1785 85.5915 43.8348 85.7052 44.4971C85.8169 45.1594 86.0145 45.8716 86.2977 46.6336L82.8307 47.1403L82.8267 47.1383ZM76.525 44.0922C77.7099 44.0922 78.7233 43.8388 79.5691 43.3301C80.4149 42.8234 81.147 42.231 81.7674 41.5547C81.7953 41.0759 81.8452 40.5752 81.915 40.0526C81.9848 39.5319 82.0766 39.0033 82.1903 38.4667L84.7278 27.9778C84.5861 27.9219 84.3527 27.88 84.0296 27.8501C83.7044 27.8222 83.4172 27.8082 83.1618 27.8082C81.554 27.8082 80.1017 28.1194 78.8051 28.7378C77.5084 29.3582 76.4013 30.1821 75.4856 31.2114C74.57 32.2408 73.8638 33.4397 73.3711 34.8061C72.8784 36.1746 72.631 37.6049 72.631 39.0991C72.631 39.6915 72.6869 40.29 72.8006 40.8964C72.9123 41.5028 73.1178 42.0375 73.413 42.5043C73.7082 42.9691 74.1032 43.3501 74.5979 43.6453C75.0907 43.9405 75.733 44.0902 76.523 44.0902L76.525 44.0922Z" fill="#414652"/>
<path d="M94.7092 46.8849H90.7754L95.8503 25.7396C97.1469 25.3446 98.5493 25.0274 100.057 24.788C101.566 24.5486 102.912 24.429 104.097 24.429C105.366 24.429 106.459 24.6045 107.374 24.9576C108.29 25.3107 109.03 25.7894 109.595 26.3959C110.159 27.0023 110.574 27.7344 110.842 28.5942C111.109 29.454 111.243 30.3916 111.243 31.4069C111.243 32.0553 111.185 32.7395 111.073 33.4576C110.959 34.1758 110.82 34.9019 110.65 35.636L107.943 46.8849H104.009L106.505 36.4818C106.702 35.6919 106.892 34.8899 107.075 34.072C107.259 33.2542 107.351 32.4802 107.351 31.7461C107.351 30.619 107.039 29.6814 106.421 28.9333C105.801 28.1872 104.646 27.8122 102.954 27.8122C102.25 27.8122 101.558 27.8541 100.881 27.9399C100.205 28.0237 99.6405 28.1374 99.1896 28.279L94.7072 46.8869L94.7092 46.8849Z" fill="#414652"/>
<path d="M122.497 47.4334C120.185 47.4334 118.373 46.7511 117.063 45.3827C115.752 44.0162 115.096 42.1331 115.096 39.7372C115.096 38.1035 115.329 36.3819 115.794 34.5786C116.259 32.7752 116.999 31.1115 118.014 29.5875C119.03 28.0634 120.34 26.8106 121.948 25.8232C123.556 24.8357 125.501 24.343 127.785 24.343C130.069 24.343 131.908 25.0272 133.219 26.3937C134.529 27.7622 135.186 29.6433 135.186 32.0391C135.186 33.6749 134.952 35.3945 134.488 37.1978C134.023 39.0031 133.283 40.6649 132.267 42.1889C131.252 43.713 129.941 44.9657 128.333 45.9532C126.726 46.9406 124.781 47.4334 122.499 47.4334H122.497ZM123.173 44.092C124.442 44.092 125.577 43.7249 126.578 42.9928C127.579 42.2607 128.423 41.3232 129.115 40.1801C129.806 39.0391 130.334 37.7763 130.701 36.3959C131.066 35.0154 131.252 33.6749 131.252 32.3783C131.252 30.94 130.941 29.7989 130.322 28.9531C129.702 28.1073 128.631 27.6844 127.109 27.6844C125.84 27.6844 124.705 28.0514 123.703 28.7835C122.702 29.5176 121.856 30.4532 121.166 31.5963C120.476 32.7373 119.947 34.0001 119.58 35.3805C119.213 36.7629 119.03 38.1015 119.03 39.3981C119.03 40.8364 119.339 41.9775 119.959 42.8233C120.58 43.6691 121.651 44.092 123.173 44.092Z" fill="#414652"/>
<path d="M143.049 44.1359C143.641 44.1359 144.24 44.08 144.846 43.9663C145.453 43.8546 145.987 43.6711 146.454 43.4157C146.921 43.1604 147.3 42.8173 147.595 42.3804C147.89 41.9436 148.04 41.401 148.04 40.7526C148.04 40.3297 147.97 39.9567 147.829 39.6315C147.687 39.3084 147.462 39.0051 147.152 38.7219C146.841 38.4406 146.454 38.1653 145.989 37.898C145.525 37.6307 144.968 37.3275 144.32 36.9883C143.671 36.6791 143.079 36.368 142.544 36.0588C142.008 35.7495 141.535 35.3825 141.128 34.9596C140.719 34.5367 140.402 34.036 140.176 33.4575C139.951 32.879 139.837 32.1828 139.837 31.3649C139.837 29.2503 140.599 27.5527 142.121 26.268C143.643 24.9854 145.856 24.343 148.76 24.343C150.113 24.343 151.304 24.4767 152.333 24.744C153.362 25.0113 154.073 25.2587 154.469 25.4841L152.989 28.6978C152.594 28.4723 151.96 28.233 151.086 27.9796C150.212 27.7263 149.239 27.5986 148.168 27.5986C147.631 27.5986 147.096 27.6545 146.56 27.7682C146.023 27.8819 145.539 28.0714 145.102 28.3387C144.665 28.606 144.312 28.9591 144.044 29.396C143.777 29.8328 143.643 30.3615 143.643 30.9819C143.643 31.7439 143.939 32.3703 144.531 32.863C145.124 33.3557 146.011 33.8724 147.196 34.407C147.928 34.7461 148.585 35.0913 149.163 35.4423C149.742 35.7954 150.234 36.1904 150.643 36.6273C151.052 37.0642 151.361 37.5788 151.573 38.1713C151.784 38.7638 151.89 39.4679 151.89 40.2858C151.89 41.4708 151.665 42.5141 151.214 43.4157C150.763 44.3174 150.135 45.0655 149.333 45.658C148.529 46.2504 147.577 46.6933 146.478 46.9905C145.379 47.2857 144.18 47.4354 142.883 47.4354C141.924 47.4354 141.058 47.3715 140.282 47.2458C139.506 47.1182 138.83 46.9706 138.251 46.801C137.673 46.6314 137.194 46.4559 136.813 46.2724C136.432 46.0888 136.143 45.9412 135.945 45.8275L137.467 42.6138C137.665 42.7275 137.94 42.8672 138.291 43.0367C138.644 43.2063 139.067 43.3758 139.56 43.5434C140.053 43.713 140.595 43.8546 141.188 43.9663C141.78 44.08 142.401 44.1359 143.049 44.1359Z" fill="#414652"/>
<path d="M5.90371 70.0211C5.35113 70.0211 4.84642 69.9293 4.3916 69.7478C3.93677 69.5663 3.54578 69.301 3.22062 68.9519C2.89546 68.6028 2.64213 68.1739 2.46459 67.6612C2.28705 67.1505 2.19727 66.564 2.19727 65.9037C2.19727 65.2434 2.29701 64.659 2.49849 64.1463C2.69997 63.6356 2.97128 63.2047 3.3124 62.8556C3.65352 62.5065 4.05249 62.2412 4.50731 62.0597C4.96214 61.8781 5.44687 61.7864 5.96354 61.7864C6.2887 61.7864 6.58394 61.8083 6.84527 61.8542C7.10659 61.9001 7.33399 61.9519 7.52749 62.0138C7.72099 62.0736 7.87861 62.1355 8.00029 62.1953C8.12198 62.2552 8.20576 62.301 8.24965 62.331L7.93045 63.2406C7.86263 63.1947 7.76289 63.1469 7.63522 63.093C7.50555 63.0391 7.35994 62.9873 7.19836 62.9334C7.03478 62.8796 6.85723 62.8377 6.66373 62.8018C6.47023 62.7678 6.27475 62.7499 6.07726 62.7499C5.66033 62.7499 5.2853 62.8217 4.95216 62.9653C4.61902 63.109 4.33375 63.3184 4.10036 63.5897C3.86497 63.863 3.68544 64.1942 3.55976 64.5851C3.43409 64.9761 3.37223 65.413 3.37223 65.8978C3.37223 66.3825 3.42808 66.7954 3.5378 67.1824C3.64751 67.5694 3.81311 67.9006 4.03254 68.1779C4.25197 68.4551 4.52726 68.6686 4.85641 68.8202C5.18556 68.9718 5.57055 69.0476 6.01141 69.0476C6.5201 69.0476 6.93903 68.9938 7.27416 68.888C7.6073 68.7823 7.85866 68.6865 8.02423 68.6048L8.30748 69.5144C8.25362 69.5523 8.15988 69.6002 8.02423 69.656C7.88858 69.7139 7.71701 69.7678 7.51154 69.8216C7.30607 69.8755 7.06869 69.9194 6.7954 69.9573C6.5221 69.9952 6.22685 70.0151 5.90768 70.0151L5.90371 70.0211Z" fill="#414652"/>
<path d="M14.5458 66.8933C14.5458 67.3641 14.478 67.787 14.3404 68.166C14.2047 68.545 14.0132 68.8702 13.7658 69.1435C13.5185 69.4168 13.2253 69.6262 12.8841 69.7738C12.543 69.9215 12.172 69.9953 11.769 69.9953C11.366 69.9953 10.995 69.9215 10.6539 69.7738C10.3128 69.6262 10.0195 69.4148 9.77215 69.1435C9.52479 68.8702 9.33531 68.545 9.19766 68.166C9.06201 67.787 8.99219 67.3621 8.99219 66.8933C8.99219 66.4245 9.06002 66.0076 9.19766 65.6246C9.33331 65.2416 9.52479 64.9144 9.77215 64.6411C10.0175 64.3678 10.3128 64.1584 10.6539 64.0107C10.995 63.8631 11.366 63.7893 11.769 63.7893C12.172 63.7893 12.543 63.8631 12.8841 64.0107C13.2253 64.1584 13.5185 64.3698 13.7658 64.6411C14.0112 64.9144 14.2047 65.2416 14.3404 65.6246C14.476 66.0076 14.5458 66.4305 14.5458 66.8933ZM13.4427 66.8933C13.4427 66.227 13.2931 65.6984 12.9938 65.3074C12.6946 64.9164 12.2877 64.7209 11.771 64.7209C11.2543 64.7209 10.8474 64.9164 10.5482 65.3074C10.2489 65.6984 10.0993 66.227 10.0993 66.8933C10.0993 67.5596 10.2489 68.0882 10.5482 68.4792C10.8474 68.8702 11.2543 69.0657 11.771 69.0657C12.2877 69.0657 12.6946 68.8702 12.9938 68.4792C13.2931 68.0882 13.4427 67.5596 13.4427 66.8933Z" fill="#414652"/>
<path d="M16.0332 64.1085C16.2766 64.0486 16.5978 63.9828 16.9988 63.915C17.3997 63.8471 17.8625 63.8132 18.3852 63.8132C18.856 63.8132 19.245 63.8791 19.5562 64.0127C19.8673 64.1464 20.1147 64.3319 20.3002 64.5693C20.4857 64.8087 20.6174 65.0939 20.6932 65.4271C20.769 65.7602 20.8069 66.1292 20.8069 66.5302V69.8496H19.7496V66.7576C19.7496 66.3946 19.7257 66.0834 19.6758 65.826C19.626 65.5687 19.5442 65.3592 19.4305 65.2016C19.3168 65.0421 19.1652 64.9264 18.9756 64.8545C18.7861 64.7827 18.5508 64.7468 18.2715 64.7468C18.1578 64.7468 18.0401 64.7508 17.9184 64.7588C17.7967 64.7668 17.681 64.7767 17.5713 64.7867C17.4616 64.7967 17.3618 64.8107 17.2761 64.8266C17.1883 64.8426 17.1264 64.8525 17.0885 64.8605V69.8516H16.0312V64.1085H16.0332Z" fill="#414652"/>
<path d="M24.8686 61.0265C25.1339 61.0265 25.3613 61.0444 25.5508 61.0783C25.7403 61.1122 25.876 61.1441 25.9597 61.1741L25.8121 62.0837C25.7283 62.0538 25.6147 62.0219 25.471 61.988C25.3274 61.9541 25.1518 61.9361 24.9484 61.9361C24.4556 61.9361 24.1105 62.0698 23.913 62.3391C23.7155 62.6084 23.6178 62.9694 23.6178 63.4243V63.9349H25.8919V64.8226H23.6178V69.8477H22.5605V63.4003C22.5605 62.6423 22.746 62.0578 23.1171 61.6429C23.4881 61.2299 24.0726 61.0225 24.8686 61.0225V61.0265ZM27.5177 62.8697C27.3282 62.8697 27.1666 62.8078 27.035 62.6822C26.9033 62.5565 26.8355 62.3889 26.8355 62.1755C26.8355 61.962 26.9013 61.7945 27.035 61.6688C27.1686 61.5431 27.3282 61.4813 27.5177 61.4813C27.7072 61.4813 27.8688 61.5431 28.0005 61.6688C28.1321 61.7945 28.2 61.962 28.2 62.1755C28.2 62.3889 28.1341 62.5565 28.0005 62.6822C27.8668 62.8078 27.7072 62.8697 27.5177 62.8697ZM28.0523 69.8497H26.9951V63.9369H28.0523V69.8497Z" fill="#414652"/>
<path d="M31.7831 63.7893C32.208 63.7893 32.5651 63.8452 32.8583 63.9549C33.1495 64.0646 33.3849 64.2202 33.5625 64.4217C33.74 64.6232 33.8677 64.8605 33.9435 65.1378C34.0193 65.4151 34.0572 65.7203 34.0572 66.0535V69.7479C33.9654 69.7639 33.8398 69.7838 33.6762 69.8098C33.5126 69.8357 33.3291 69.8616 33.1256 69.8836C32.9201 69.9055 32.6987 69.9275 32.4613 69.9454C32.2219 69.9634 31.9865 69.9733 31.7511 69.9733C31.418 69.9733 31.1108 69.9394 30.8295 69.8716C30.5483 69.8038 30.3069 69.6961 30.1014 69.5484C29.8959 69.4008 29.7383 69.2053 29.6246 68.962C29.5109 68.7186 29.4551 68.4273 29.4551 68.0862C29.4551 67.7451 29.5209 67.4798 29.6546 67.2444C29.7882 67.009 29.9677 66.8195 30.1952 66.6758C30.4226 66.5322 30.6879 66.4265 30.9911 66.3567C31.2943 66.2889 31.6135 66.2549 31.9466 66.2549C32.0524 66.2549 32.1621 66.2609 32.2758 66.2729C32.3895 66.2849 32.4972 66.2988 32.599 66.3188C32.7007 66.3387 32.7905 66.3547 32.8663 66.3706C32.9421 66.3866 32.9959 66.3966 33.0259 66.4046V66.1093C33.0259 65.9358 33.0079 65.7622 32.97 65.5927C32.9321 65.4231 32.8643 65.2715 32.7645 65.1378C32.6668 65.0062 32.5311 64.8984 32.3616 64.8186C32.19 64.7389 31.9686 64.699 31.6973 64.699C31.3482 64.699 31.043 64.7229 30.7817 64.7728C30.5203 64.8226 30.3248 64.8725 30.1952 64.9264L30.0695 64.0506C30.2051 63.9908 30.4326 63.9309 30.7517 63.8751C31.0709 63.8192 31.414 63.7893 31.7871 63.7893H31.7831ZM31.8728 69.0896C32.1222 69.0896 32.3456 69.0836 32.5371 69.0717C32.7306 69.0597 32.8922 69.0397 33.0199 69.0098V67.2464C32.9441 67.2085 32.8204 67.1766 32.6508 67.1506C32.4813 67.1247 32.2738 67.1107 32.0304 67.1107C31.8708 67.1107 31.7033 67.1227 31.5237 67.1446C31.3462 67.1666 31.1826 67.2145 31.035 67.2863C30.8874 67.3581 30.7637 67.4558 30.666 67.5815C30.5682 67.7072 30.5183 67.8708 30.5183 68.0762C30.5183 68.4553 30.64 68.7186 30.8814 68.8662C31.1248 69.0138 31.4539 69.0876 31.8708 69.0876L31.8728 69.0896Z" fill="#414652"/>
<path d="M35.8086 64.1085C36.052 64.0486 36.3732 63.9828 36.7761 63.915C37.1771 63.8471 37.6399 63.8132 38.1625 63.8132C38.6333 63.8132 39.0223 63.8791 39.3335 64.0127C39.6447 64.1464 39.8921 64.3319 40.0776 64.5693C40.2631 64.8087 40.3947 65.0939 40.4706 65.4271C40.5464 65.7602 40.5843 66.1292 40.5843 66.5302V69.8496H39.527V66.7576C39.527 66.3946 39.5031 66.0834 39.4532 65.826C39.4033 65.5687 39.3215 65.3592 39.2078 65.2016C39.0941 65.0421 38.9425 64.9264 38.753 64.8545C38.5635 64.7827 38.3281 64.7468 38.0488 64.7468C37.9351 64.7468 37.8174 64.7508 37.6957 64.7588C37.5741 64.7668 37.4584 64.7767 37.3486 64.7867C37.2389 64.7967 37.1411 64.8107 37.0534 64.8266C36.9656 64.8426 36.9038 64.8525 36.8659 64.8605V69.8516H35.8086V64.1085Z" fill="#414652"/>
<path d="M45.0401 69.9872L44.9144 70.2705C45.1339 70.3762 45.2934 70.4919 45.3912 70.6176C45.4889 70.7433 45.5388 70.9268 45.5388 71.1682C45.5388 71.2519 45.5209 71.3417 45.481 71.4415C45.4431 71.5392 45.3792 71.631 45.2875 71.7147C45.1957 71.7985 45.076 71.8664 44.9244 71.9202C44.7728 71.9741 44.5873 72 44.3678 72C44.1703 72 43.9908 71.9841 43.8272 71.9541C43.6637 71.9242 43.534 71.8903 43.4342 71.8524L43.5599 71.2041C43.6517 71.234 43.7474 71.2599 43.8492 71.2839C43.9509 71.3058 44.0666 71.3178 44.1963 71.3178C44.4696 71.3178 44.6052 71.23 44.6052 71.0564C44.6052 70.9727 44.5633 70.9028 44.4796 70.847C44.3958 70.7911 44.2781 70.7313 44.1265 70.6714L44.0467 70.6375C44.0766 70.5458 44.1185 70.4361 44.1723 70.3084C44.2262 70.1787 44.2821 70.059 44.3439 69.9453C43.9569 69.8915 43.6178 69.7797 43.3265 69.6102C43.0353 69.4406 42.7899 69.2212 42.5924 68.9559C42.3949 68.6906 42.2473 68.3853 42.1496 68.0402C42.0498 67.6951 42.002 67.3181 42.002 66.9092C42.002 66.4543 42.0678 66.0374 42.2014 65.6584C42.3351 65.2794 42.5226 64.9522 42.764 64.6749C43.0073 64.3977 43.3046 64.1822 43.6557 64.0266C44.0088 63.871 44.3997 63.7932 44.8326 63.7932C45.0979 63.7932 45.3633 63.8152 45.6286 63.861C45.8939 63.9069 46.1472 63.9787 46.3906 64.0765L46.1512 64.9742C45.9917 64.8984 45.8081 64.8385 45.6007 64.7926C45.3932 64.7467 45.1698 64.7248 44.9364 64.7248C44.3459 64.7248 43.8911 64.9103 43.5779 65.2814C43.2627 65.6524 43.1051 66.195 43.1051 66.9072C43.1051 67.2263 43.141 67.5176 43.2128 67.7829C43.2846 68.0482 43.3984 68.2756 43.554 68.4651C43.7095 68.6547 43.909 68.8003 44.1504 68.902C44.3938 69.0038 44.689 69.0556 45.0381 69.0556C45.3194 69.0556 45.5727 69.0297 45.8001 68.9758C46.0276 68.922 46.2051 68.8661 46.3348 68.8063L46.4824 69.694C46.4225 69.7239 46.3407 69.7558 46.237 69.7897C46.1333 69.8236 46.0196 69.8536 45.8899 69.8815C45.7602 69.9074 45.6226 69.9314 45.475 69.9493C45.3274 69.9673 45.1817 69.9812 45.0381 69.9892L45.0401 69.9872Z" fill="#414652"/>
<path d="M49.5331 63.7893C49.958 63.7893 50.3151 63.8452 50.6083 63.9549C50.8995 64.0646 51.1349 64.2202 51.3125 64.4217C51.49 64.6232 51.6177 64.8605 51.6935 65.1378C51.7693 65.4151 51.8072 65.7203 51.8072 66.0535V69.7479C51.7154 69.7639 51.5898 69.7838 51.4262 69.8098C51.2626 69.8357 51.0791 69.8616 50.8756 69.8836C50.6701 69.9055 50.4487 69.9275 50.2113 69.9454C49.9719 69.9634 49.7365 69.9733 49.5011 69.9733C49.168 69.9733 48.8608 69.9394 48.5795 69.8716C48.2983 69.8038 48.0569 69.6961 47.8514 69.5484C47.6459 69.4008 47.4883 69.2053 47.3746 68.962C47.2609 68.7186 47.2051 68.4273 47.2051 68.0862C47.2051 67.7451 47.2709 67.4798 47.4046 67.2444C47.5382 67.009 47.7178 66.8195 47.9452 66.6758C48.1726 66.5322 48.4379 66.4265 48.7411 66.3567C49.0443 66.2889 49.3635 66.2549 49.6966 66.2549C49.8024 66.2549 49.9121 66.2609 50.0258 66.2729C50.1395 66.2849 50.2472 66.2988 50.349 66.3188C50.4507 66.3387 50.5405 66.3547 50.6163 66.3706C50.6921 66.3866 50.7459 66.3966 50.7759 66.4046V66.1093C50.7759 65.9358 50.7579 65.7622 50.72 65.5927C50.6821 65.4231 50.6143 65.2715 50.5145 65.1378C50.4168 65.0062 50.2811 64.8984 50.1116 64.8186C49.94 64.7389 49.7186 64.699 49.4473 64.699C49.0982 64.699 48.793 64.7229 48.5317 64.7728C48.2703 64.8226 48.0748 64.8725 47.9452 64.9264L47.8195 64.0506C47.9552 63.9908 48.1826 63.9309 48.5017 63.8751C48.8209 63.8192 49.164 63.7893 49.5371 63.7893H49.5331ZM49.6228 69.0896C49.8722 69.0896 50.0956 69.0836 50.2871 69.0717C50.4806 69.0597 50.6422 69.0397 50.7699 69.0098V67.2464C50.6941 67.2085 50.5704 67.1766 50.4008 67.1506C50.2313 67.1247 50.0238 67.1107 49.7804 67.1107C49.6208 67.1107 49.4533 67.1227 49.2737 67.1446C49.0962 67.1666 48.9326 67.2145 48.785 67.2863C48.6374 67.3581 48.5137 67.4558 48.416 67.5815C48.3182 67.7072 48.2683 67.8708 48.2683 68.0762C48.2683 68.4553 48.39 68.7186 48.6314 68.8662C48.8748 69.0138 49.2039 69.0876 49.6208 69.0876L49.6228 69.0896Z" fill="#414652"/>
<path d="M58.7757 65.8359C58.7757 66.0334 58.7418 66.2189 58.6739 66.3924C58.6061 66.566 58.5084 66.7176 58.3847 66.8473C58.259 66.9769 58.1074 67.0807 57.9299 67.1604C57.7523 67.2402 57.5489 67.2801 57.3214 67.2801C57.094 67.2801 56.8905 67.2402 56.713 67.1604C56.5355 67.0807 56.3838 66.9769 56.2582 66.8473C56.1325 66.7176 56.0368 66.566 55.9689 66.3924C55.9011 66.2189 55.8672 66.0334 55.8672 65.8359C55.8672 65.6384 55.9011 65.4628 55.9689 65.2853C56.0368 65.1077 56.1345 64.9541 56.2582 64.8245C56.3838 64.6948 56.5355 64.5911 56.713 64.5113C56.8905 64.4315 57.094 64.3916 57.3214 64.3916C57.5489 64.3916 57.7523 64.4315 57.9299 64.5113C58.1074 64.5911 58.259 64.6948 58.3847 64.8245C58.5104 64.9541 58.6061 65.1077 58.6739 65.2853C58.7418 65.4628 58.7757 65.6484 58.7757 65.8359Z" fill="#414652"/>
<path d="M62.9727 61.97H64.0758V69.8496H62.9727V61.97Z" fill="#414652"/>
<path d="M65.9629 64.1085C66.2063 64.0486 66.5274 63.9828 66.9304 63.915C67.3314 63.8471 67.7942 63.8132 68.3168 63.8132C68.7876 63.8132 69.1766 63.8791 69.4878 64.0127C69.799 64.1464 70.0463 64.3319 70.2319 64.5693C70.4174 64.8087 70.549 65.0939 70.6248 65.4271C70.7007 65.7602 70.7386 66.1292 70.7386 66.5302V69.8496H69.6813V66.7576C69.6813 66.3946 69.6574 66.0834 69.6075 65.826C69.5576 65.5687 69.4758 65.3592 69.3621 65.2016C69.2484 65.0421 69.0968 64.9264 68.9073 64.8545C68.7178 64.7827 68.4824 64.7468 68.2031 64.7468C68.0894 64.7468 67.9717 64.7508 67.85 64.7588C67.7283 64.7668 67.6126 64.7767 67.5029 64.7867C67.3932 64.7967 67.2954 64.8107 67.2077 64.8266C67.1199 64.8426 67.0581 64.8525 67.0202 64.8605V69.8516H65.9629V64.1085Z" fill="#414652"/>
<path d="M77.7079 66.8933C77.7079 67.3641 77.6401 67.787 77.5025 68.166C77.3668 68.545 77.1753 68.8702 76.9279 69.1435C76.6806 69.4168 76.3874 69.6262 76.0462 69.7738C75.7051 69.9215 75.3341 69.9953 74.9311 69.9953C74.5281 69.9953 74.1571 69.9215 73.816 69.7738C73.4749 69.6262 73.1816 69.4148 72.9343 69.1435C72.6869 68.8702 72.4974 68.545 72.3597 68.166C72.2241 67.787 72.1543 67.3621 72.1543 66.8933C72.1543 66.4245 72.2221 66.0076 72.3597 65.6246C72.4954 65.2416 72.6869 64.9144 72.9343 64.6411C73.1796 64.3678 73.4749 64.1584 73.816 64.0107C74.1571 63.8631 74.5281 63.7893 74.9311 63.7893C75.3341 63.7893 75.7051 63.8631 76.0462 64.0107C76.3874 64.1584 76.6806 64.3698 76.9279 64.6411C77.1733 64.9144 77.3648 65.2416 77.5025 65.6246C77.6381 66.0076 77.7079 66.4305 77.7079 66.8933ZM76.6048 66.8933C76.6048 66.227 76.4552 65.6984 76.1559 65.3074C75.8567 64.9164 75.4498 64.7209 74.9331 64.7209C74.4164 64.7209 74.0095 64.9164 73.7103 65.3074C73.411 65.6984 73.2614 66.227 73.2614 66.8933C73.2614 67.5596 73.411 68.0882 73.7103 68.4792C74.0095 68.8702 74.4164 69.0657 74.9331 69.0657C75.4498 69.0657 75.8547 68.8702 76.1559 68.4792C76.4552 68.0882 76.6048 67.5596 76.6048 66.8933Z" fill="#414652"/>
<path d="M83.6548 63.9368C83.3596 65.0439 83.0125 66.1052 82.6135 67.1205C82.2145 68.1359 81.8316 69.0456 81.4585 69.8495H80.503C80.1319 69.0456 79.7469 68.1359 79.3479 67.1205C78.949 66.1052 78.6039 65.0439 78.3066 63.9368H79.4437C79.5355 64.3078 79.6432 64.7048 79.7669 65.1257C79.8905 65.5466 80.0242 65.9635 80.1658 66.3765C80.3055 66.7894 80.4491 67.1904 80.5927 67.5754C80.7364 67.9624 80.874 68.3075 81.0017 68.6107C81.1313 68.3075 81.267 67.9624 81.4106 67.5754C81.5543 67.1884 81.6959 66.7894 81.8375 66.3765C81.9771 65.9635 82.1108 65.5466 82.2365 65.1257C82.3622 64.7048 82.4699 64.3098 82.5596 63.9368H83.6548Z" fill="#414652"/>
<path d="M86.6561 63.7893C87.081 63.7893 87.4381 63.8452 87.7313 63.9549C88.0226 64.0646 88.258 64.2202 88.4355 64.4217C88.6131 64.6232 88.7407 64.8605 88.8165 65.1378C88.8923 65.4151 88.9303 65.7203 88.9303 66.0535V69.7479C88.8385 69.7639 88.7128 69.7838 88.5492 69.8098C88.3857 69.8357 88.2021 69.8616 87.9986 69.8836C87.7932 69.9055 87.5718 69.9275 87.3344 69.9454C87.095 69.9634 86.8596 69.9733 86.6242 69.9733C86.2911 69.9733 85.9838 69.9394 85.7026 69.8716C85.4213 69.8038 85.1799 69.6961 84.9745 69.5484C84.769 69.4008 84.6114 69.2053 84.4977 68.962C84.384 68.7186 84.3281 68.4273 84.3281 68.0862C84.3281 67.7451 84.394 67.4798 84.5276 67.2444C84.6613 67.009 84.8408 66.8195 85.0682 66.6758C85.2956 66.5322 85.561 66.4265 85.8642 66.3567C86.1674 66.2889 86.4866 66.2549 86.8197 66.2549C86.9254 66.2549 87.0351 66.2609 87.1488 66.2729C87.2626 66.2849 87.3703 66.2988 87.472 66.3188C87.5737 66.3387 87.6635 66.3547 87.7393 66.3706C87.8151 66.3866 87.869 66.3966 87.8989 66.4046V66.1093C87.8989 65.9358 87.881 65.7622 87.8431 65.5927C87.8052 65.4231 87.7373 65.2715 87.6376 65.1378C87.5398 65.0062 87.4042 64.8984 87.2346 64.8186C87.0631 64.7389 86.8417 64.699 86.5704 64.699C86.2213 64.699 85.916 64.7229 85.6547 64.7728C85.3934 64.8226 85.1979 64.8725 85.0682 64.9264L84.9426 64.0506C85.0782 63.9908 85.3056 63.9309 85.6248 63.8751C85.944 63.8192 86.2871 63.7893 86.6601 63.7893H86.6561ZM86.7479 69.0896C86.9972 69.0896 87.2207 69.0836 87.4122 69.0717C87.6057 69.0597 87.7672 69.0397 87.8949 69.0098V67.2464C87.8191 67.2085 87.6954 67.1766 87.5259 67.1506C87.3563 67.1247 87.1488 67.1107 86.9055 67.1107C86.7459 67.1107 86.5783 67.1227 86.3988 67.1446C86.2212 67.1666 86.0577 67.2145 85.91 67.2863C85.7624 67.3581 85.6388 67.4558 85.541 67.5815C85.4433 67.7072 85.3934 67.8708 85.3934 68.0762C85.3934 68.4553 85.5151 68.7186 85.7564 68.8662C85.9998 69.0138 86.329 69.0876 86.7459 69.0876L86.7479 69.0896Z" fill="#414652"/>
<path d="M93.3878 69.9872L93.2621 70.2705C93.4815 70.3762 93.6411 70.4919 93.7389 70.6176C93.8366 70.7433 93.8865 70.9268 93.8865 71.1682C93.8865 71.2519 93.8685 71.3417 93.8286 71.4415C93.7907 71.5392 93.7269 71.631 93.6351 71.7147C93.5434 71.7985 93.4237 71.8664 93.2721 71.9202C93.1205 71.9741 92.9349 72 92.7155 72C92.518 72 92.3385 71.9841 92.1749 71.9541C92.0113 71.9242 91.8817 71.8903 91.7819 71.8524L91.9076 71.2041C91.9994 71.234 92.0951 71.2599 92.1968 71.2839C92.2986 71.3058 92.4143 71.3178 92.5439 71.3178C92.8172 71.3178 92.9529 71.23 92.9529 71.0564C92.9529 70.9727 92.911 70.9028 92.8272 70.847C92.7434 70.7911 92.6257 70.7313 92.4741 70.6714L92.3943 70.6375C92.4242 70.5458 92.4661 70.4361 92.52 70.3084C92.5739 70.1787 92.6297 70.059 92.6916 69.9453C92.3046 69.8915 91.9654 69.7797 91.6742 69.6102C91.3829 69.4406 91.1376 69.2212 90.9401 68.9559C90.7426 68.6906 90.595 68.3853 90.4972 68.0402C90.3975 67.6951 90.3496 67.3181 90.3496 66.9092C90.3496 66.4543 90.4154 66.0374 90.5491 65.6584C90.6827 65.2794 90.8703 64.9522 91.1116 64.6749C91.355 64.3977 91.6523 64.1822 92.0033 64.0266C92.3564 63.871 92.7474 63.7932 93.1803 63.7932C93.4456 63.7932 93.7109 63.8152 93.9762 63.861C94.2416 63.9069 94.4949 63.9787 94.7383 64.0765L94.4989 64.9742C94.3393 64.8984 94.1558 64.8385 93.9483 64.7926C93.7409 64.7467 93.5174 64.7248 93.284 64.7248C92.6935 64.7248 92.2387 64.9103 91.9255 65.2814C91.6104 65.6524 91.4528 66.195 91.4528 66.9072C91.4528 67.2263 91.4887 67.5176 91.5605 67.7829C91.6323 68.0482 91.746 68.2756 91.9016 68.4651C92.0572 68.6547 92.2567 68.8003 92.4981 68.902C92.7414 69.0038 93.0367 69.0556 93.3858 69.0556C93.667 69.0556 93.9204 69.0297 94.1478 68.9758C94.3752 68.922 94.5527 68.8661 94.6824 68.8063L94.83 69.694C94.7702 69.7239 94.6884 69.7558 94.5847 69.7897C94.4809 69.8236 94.3672 69.8536 94.2376 69.8815C94.1079 69.9074 93.9703 69.9314 93.8226 69.9493C93.675 69.9673 93.5294 69.9812 93.3858 69.9892L93.3878 69.9872Z" fill="#414652"/>
<path d="M97.8788 63.7892C98.3037 63.7892 98.6608 63.8451 98.954 63.9548C99.2452 64.0645 99.4806 64.2201 99.6582 64.4216C99.8357 64.6231 99.9634 64.8605 100.039 65.1377C100.115 65.415 100.153 65.7202 100.153 66.0534V69.7478C100.061 69.7638 99.9355 69.7837 99.7719 69.8097C99.6083 69.8356 99.4248 69.8615 99.2213 69.8835C99.0158 69.9054 98.7944 69.9274 98.557 69.9453C98.3176 69.9633 98.0822 69.9733 97.8468 69.9733C97.5137 69.9733 97.2065 69.9393 96.9252 69.8715C96.644 69.8037 96.4026 69.696 96.1971 69.5484C95.9916 69.4007 95.8341 69.2052 95.7204 68.9619C95.6067 68.7185 95.5508 68.4272 95.5508 68.0861C95.5508 67.745 95.6166 67.4797 95.7503 67.2443C95.8839 67.0089 96.0635 66.8194 96.2909 66.6758C96.5183 66.5321 96.7836 66.4264 97.0868 66.3566C97.39 66.2888 97.7092 66.2549 98.0423 66.2549C98.1481 66.2549 98.2578 66.2608 98.3715 66.2728C98.4852 66.2848 98.5929 66.2987 98.6947 66.3187C98.7964 66.3386 98.8862 66.3546 98.962 66.3706C99.0378 66.3865 99.0916 66.3965 99.1216 66.4045V66.1092C99.1216 65.9357 99.1036 65.7621 99.0657 65.5926C99.0278 65.423 98.96 65.2714 98.8603 65.1377C98.7625 65.0061 98.6268 64.8984 98.4573 64.8186C98.2857 64.7388 98.0643 64.6989 97.793 64.6989C97.4439 64.6989 97.1387 64.7228 96.8774 64.7727C96.616 64.8226 96.4205 64.8724 96.2909 64.9263L96.1652 64.0506C96.3009 63.9907 96.5283 63.9309 96.8474 63.875C97.1666 63.8192 97.5097 63.7892 97.8828 63.7892H97.8788ZM99.9255 61.7665C99.8876 61.8582 99.8357 61.9639 99.7719 62.0856C99.708 62.2073 99.6263 62.319 99.5265 62.4208C99.4268 62.5225 99.3131 62.6103 99.1794 62.6821C99.0458 62.7539 98.9001 62.7898 98.7425 62.7898C98.5849 62.7898 98.4493 62.7639 98.3157 62.71C98.182 62.6562 98.0563 62.6003 97.9346 62.5405C97.805 62.4806 97.6953 62.4347 97.6055 62.4048C97.5137 62.3749 97.4279 62.3589 97.3441 62.3589C97.2145 62.3589 97.0948 62.4128 96.9851 62.5185C96.8754 62.6242 96.7896 62.7379 96.7297 62.8596L96.1832 62.5863C96.2131 62.4946 96.2629 62.3889 96.3308 62.2672C96.3986 62.1455 96.4824 62.0338 96.5801 61.932C96.6779 61.8303 96.7936 61.7425 96.9272 61.6707C97.0589 61.5989 97.2065 61.563 97.3641 61.563C97.5217 61.563 97.6574 61.5889 97.791 61.6428C97.9227 61.6966 98.0503 61.7525 98.172 61.8123C98.3017 61.8722 98.4114 61.9181 98.5012 61.948C98.5929 61.9779 98.6787 61.9939 98.7625 61.9939C98.8922 61.9939 99.0098 61.94 99.1216 61.8343C99.2313 61.7286 99.3171 61.6148 99.3769 61.4932L99.9235 61.7665H99.9255ZM97.9685 69.0895C98.2179 69.0895 98.4413 69.0836 98.6328 69.0716C98.8263 69.0596 98.9879 69.0397 99.1156 69.0097V67.2463C99.0398 67.2084 98.9161 67.1765 98.7465 67.1505C98.577 67.1246 98.3695 67.1106 98.1261 67.1106C97.9666 67.1106 97.799 67.1226 97.6194 67.1446C97.4419 67.1665 97.2783 67.2144 97.1307 67.2862C96.9831 67.358 96.8594 67.4558 96.7617 67.5814C96.6639 67.7071 96.6141 67.8707 96.6141 68.0762C96.6141 68.4552 96.7357 68.7185 96.9771 68.8661C97.2205 69.0137 97.5496 69.0875 97.9666 69.0875L97.9685 69.0895Z" fill="#414652"/>
<path d="M107.124 66.8933C107.124 67.3641 107.056 67.787 106.919 68.166C106.783 68.545 106.591 68.8702 106.344 69.1435C106.097 69.4168 105.803 69.6262 105.462 69.7738C105.121 69.9215 104.75 69.9953 104.347 69.9953C103.944 69.9953 103.573 69.9215 103.232 69.7738C102.891 69.6262 102.598 69.4148 102.35 69.1435C102.103 68.8702 101.913 68.545 101.776 68.166C101.64 67.787 101.57 67.3621 101.57 66.8933C101.57 66.4245 101.638 66.0076 101.776 65.6246C101.911 65.2416 102.103 64.9144 102.35 64.6411C102.596 64.3678 102.891 64.1584 103.232 64.0107C103.573 63.8631 103.944 63.7893 104.347 63.7893C104.75 63.7893 105.121 63.8631 105.462 64.0107C105.803 64.1584 106.097 64.3698 106.344 64.6411C106.589 64.9144 106.781 65.2416 106.919 65.6246C107.054 66.0076 107.124 66.4305 107.124 66.8933ZM106.021 66.8933C106.021 66.227 105.871 65.6984 105.572 65.3074C105.273 64.9164 104.866 64.7209 104.349 64.7209C103.832 64.7209 103.426 64.9164 103.126 65.3074C102.827 65.6984 102.677 66.227 102.677 66.8933C102.677 67.5596 102.827 68.0882 103.126 68.4792C103.426 68.8702 103.832 69.0657 104.349 69.0657C104.866 69.0657 105.271 68.8702 105.572 68.4792C105.871 68.0882 106.021 67.5596 106.021 66.8933Z" fill="#414652"/>
<path d="M113.832 65.8359C113.832 66.0334 113.798 66.2189 113.731 66.3924C113.663 66.566 113.565 66.7176 113.441 66.8473C113.316 66.9769 113.164 67.0807 112.986 67.1604C112.809 67.2402 112.605 67.2801 112.378 67.2801C112.151 67.2801 111.947 67.2402 111.77 67.1604C111.592 67.0807 111.44 66.9769 111.315 66.8473C111.189 66.7176 111.093 66.566 111.026 66.3924C110.958 66.2189 110.924 66.0334 110.924 65.8359C110.924 65.6384 110.958 65.4628 111.026 65.2853C111.093 65.1077 111.191 64.9541 111.315 64.8245C111.44 64.6948 111.592 64.5911 111.77 64.5113C111.947 64.4315 112.151 64.3916 112.378 64.3916C112.605 64.3916 112.809 64.4315 112.986 64.5113C113.164 64.5911 113.316 64.6948 113.441 64.8245C113.567 64.9541 113.663 65.1077 113.731 65.2853C113.798 65.4628 113.832 65.6484 113.832 65.8359Z" fill="#414652"/>
<path d="M119.859 69.0657C121.012 69.0657 121.587 68.6708 121.587 67.8828C121.587 67.6394 121.535 67.4339 121.433 67.2624C121.332 67.0908 121.192 66.9432 121.018 66.8195C120.845 66.6959 120.645 66.5861 120.422 66.4964C120.199 66.4046 119.961 66.3148 119.712 66.2231C119.425 66.1253 119.151 66.0136 118.894 65.8879C118.637 65.7623 118.413 65.6147 118.224 65.4451C118.034 65.2755 117.885 65.072 117.775 64.8367C117.665 64.6013 117.609 64.318 117.609 63.9849C117.609 63.2946 117.845 62.756 118.313 62.371C118.784 61.984 119.431 61.7905 120.258 61.7905C120.735 61.7905 121.17 61.8424 121.561 61.9441C121.952 62.0459 122.237 62.1576 122.419 62.2793L122.066 63.1769C121.906 63.0792 121.669 62.9814 121.356 62.8877C121.04 62.7939 120.675 62.7461 120.258 62.7461C120.047 62.7461 119.849 62.768 119.668 62.8139C119.486 62.8598 119.327 62.9276 119.191 63.0194C119.056 63.1111 118.946 63.2268 118.868 63.3665C118.788 63.5061 118.748 63.6717 118.748 63.8612C118.748 64.0726 118.79 64.2522 118.874 64.3958C118.958 64.5394 119.075 64.6671 119.227 64.7768C119.379 64.8865 119.554 64.9863 119.756 65.078C119.957 65.1698 120.179 65.2596 120.42 65.3513C120.761 65.487 121.074 65.6246 121.358 65.7603C121.641 65.8959 121.888 66.0595 122.098 66.249C122.305 66.4385 122.467 66.6639 122.58 66.9253C122.694 67.1866 122.75 67.5038 122.75 67.8748C122.75 68.565 122.499 69.0957 121.994 69.4667C121.489 69.8377 120.779 70.0233 119.861 70.0233C119.55 70.0233 119.265 70.0033 119.004 69.9614C118.742 69.9195 118.509 69.8697 118.303 69.8138C118.098 69.7579 117.922 69.6961 117.775 69.6323C117.627 69.5684 117.512 69.5126 117.428 69.4667L117.757 68.5571C117.93 68.6548 118.196 68.7665 118.553 68.8862C118.91 69.0079 119.345 69.0677 119.859 69.0677V69.0657Z" fill="#414652"/>
<path d="M123.68 66.9053C123.68 66.3826 123.755 65.9258 123.907 65.5348C124.059 65.1438 124.26 64.8206 124.51 64.5633C124.759 64.306 125.048 64.1125 125.373 63.9828C125.698 63.8531 126.034 63.7893 126.375 63.7893C127.171 63.7893 127.781 64.0387 128.206 64.5334C128.631 65.0301 128.842 65.7862 128.842 66.8015V66.9771C128.842 67.0489 128.838 67.1147 128.83 67.1766H124.783C124.829 67.791 125.006 68.2578 125.317 68.575C125.629 68.8941 126.113 69.0517 126.774 69.0517C127.145 69.0517 127.458 69.0198 127.711 68.956C127.965 68.8921 128.156 68.8283 128.286 68.7684L128.433 69.6562C128.304 69.724 128.078 69.7958 127.757 69.8716C127.434 69.9474 127.069 69.9853 126.66 69.9853C126.145 69.9853 125.698 69.9075 125.323 69.7519C124.948 69.5963 124.639 69.3829 124.396 69.1096C124.152 68.8363 123.973 68.5131 123.855 68.1381C123.738 67.763 123.68 67.3521 123.68 66.9053ZM127.739 66.3248C127.747 65.848 127.628 65.455 127.382 65.1478C127.135 64.8406 126.796 64.687 126.365 64.687C126.121 64.687 125.908 64.7349 125.722 64.8286C125.537 64.9244 125.379 65.0461 125.25 65.1977C125.12 65.3493 125.02 65.5228 124.948 65.7203C124.877 65.9178 124.829 66.1193 124.807 66.3228H127.741L127.739 66.3248Z" fill="#414652"/>
<path d="M132.548 63.8132C132.639 63.8132 132.743 63.8192 132.861 63.8312C132.978 63.8432 133.094 63.8571 133.208 63.8771C133.322 63.897 133.425 63.915 133.521 63.9349C133.615 63.9549 133.687 63.9708 133.731 63.9868L133.549 64.9084C133.465 64.8785 133.328 64.8426 133.134 64.8007C132.941 64.7588 132.693 64.7388 132.39 64.7388C132.193 64.7388 131.997 64.7588 131.804 64.8007C131.61 64.8426 131.482 64.8705 131.423 64.8865V69.8556H130.365V64.1923C130.615 64.1005 130.926 64.0167 131.297 63.9369C131.668 63.8571 132.085 63.8172 132.548 63.8172V63.8132Z" fill="#414652"/>
<path d="M139.61 63.9368C139.315 65.0439 138.968 66.1052 138.569 67.1205C138.17 68.1359 137.787 69.0456 137.414 69.8495H136.458C136.087 69.0456 135.702 68.1359 135.303 67.1205C134.904 66.1052 134.559 65.0439 134.262 63.9368H135.399C135.491 64.3078 135.598 64.7048 135.722 65.1257C135.846 65.5466 135.979 65.9635 136.121 66.3765C136.261 66.7894 136.404 67.1904 136.548 67.5754C136.691 67.9624 136.829 68.3075 136.957 68.6107C137.086 68.3075 137.222 67.9624 137.366 67.5754C137.509 67.1884 137.651 66.7894 137.793 66.3765C137.932 65.9635 138.066 65.5466 138.192 65.1257C138.317 64.7048 138.425 64.3098 138.515 63.9368H139.61Z" fill="#414652"/>
<path d="M141.223 62.8696C141.034 62.8696 140.872 62.8078 140.74 62.6821C140.607 62.5564 140.541 62.3889 140.541 62.1754C140.541 61.962 140.607 61.7944 140.74 61.6687C140.872 61.543 141.034 61.4812 141.223 61.4812C141.413 61.4812 141.574 61.543 141.706 61.6687C141.838 61.7944 141.905 61.962 141.905 62.1754C141.905 62.3889 141.84 62.5564 141.706 62.6821C141.572 62.8078 141.413 62.8696 141.223 62.8696ZM141.758 69.8496H140.701V63.9369H141.758V69.8496Z" fill="#414652"/>
<path d="M146.284 69.9872L146.159 70.2705C146.378 70.3762 146.538 70.4919 146.635 70.6176C146.733 70.7433 146.783 70.9268 146.783 71.1682C146.783 71.2519 146.765 71.3417 146.725 71.4415C146.687 71.5392 146.623 71.631 146.532 71.7147C146.44 71.7985 146.32 71.8664 146.169 71.9202C146.017 71.9741 145.831 72 145.612 72C145.414 72 145.235 71.9841 145.071 71.9541C144.908 71.9242 144.778 71.8903 144.678 71.8524L144.804 71.2041C144.896 71.234 144.992 71.2599 145.093 71.2839C145.195 71.3058 145.311 71.3178 145.44 71.3178C145.714 71.3178 145.849 71.23 145.849 71.0564C145.849 70.9727 145.807 70.9028 145.724 70.847C145.64 70.7911 145.522 70.7313 145.371 70.6714L145.291 70.6375C145.321 70.5458 145.363 70.4361 145.416 70.3084C145.47 70.1787 145.526 70.059 145.588 69.9453C145.201 69.8915 144.862 69.7797 144.571 69.6102C144.279 69.4406 144.034 69.2212 143.837 68.9559C143.639 68.6906 143.491 68.3853 143.394 68.0402C143.294 67.6951 143.246 67.3181 143.246 66.9092C143.246 66.4543 143.312 66.0374 143.446 65.6584C143.579 65.2794 143.767 64.9522 144.008 64.6749C144.252 64.3977 144.549 64.1822 144.9 64.0266C145.253 63.871 145.644 63.7932 146.077 63.7932C146.342 63.7932 146.607 63.8152 146.873 63.861C147.138 63.9069 147.391 63.9787 147.635 64.0765L147.395 64.9742C147.236 64.8984 147.052 64.8385 146.845 64.7926C146.637 64.7467 146.414 64.7248 146.181 64.7248C145.59 64.7248 145.135 64.9103 144.822 65.2814C144.507 65.6524 144.349 66.195 144.349 66.9072C144.349 67.2263 144.385 67.5176 144.457 67.7829C144.529 68.0482 144.643 68.2756 144.798 68.4651C144.954 68.6547 145.153 68.8003 145.395 68.902C145.638 69.0038 145.933 69.0556 146.282 69.0556C146.564 69.0556 146.817 69.0297 147.044 68.9758C147.272 68.922 147.449 68.8661 147.579 68.8063L147.727 69.694C147.667 69.7239 147.585 69.7558 147.481 69.7897C147.377 69.8236 147.264 69.8536 147.134 69.8815C147.004 69.9074 146.867 69.9314 146.719 69.9493C146.571 69.9673 146.426 69.9812 146.282 69.9892L146.284 69.9872Z" fill="#414652"/>
<path d="M153.936 66.8933C153.936 67.3641 153.869 67.787 153.731 68.166C153.595 68.545 153.404 68.8702 153.156 69.1435C152.909 69.4168 152.616 69.6262 152.275 69.7738C151.934 69.9215 151.563 69.9953 151.16 69.9953C150.757 69.9953 150.386 69.9215 150.045 69.7738C149.703 69.6262 149.41 69.4148 149.163 69.1435C148.915 68.8702 148.726 68.545 148.588 68.166C148.453 67.787 148.383 67.3621 148.383 66.8933C148.383 66.4245 148.451 66.0076 148.588 65.6246C148.724 65.2416 148.915 64.9144 149.163 64.6411C149.408 64.3678 149.703 64.1584 150.045 64.0107C150.386 63.8631 150.757 63.7893 151.16 63.7893C151.563 63.7893 151.934 63.8631 152.275 64.0107C152.616 64.1584 152.909 64.3698 153.156 64.6411C153.402 64.9144 153.593 65.2416 153.731 65.6246C153.867 66.0076 153.936 66.4305 153.936 66.8933ZM152.833 66.8933C152.833 66.227 152.684 65.6984 152.384 65.3074C152.085 64.9164 151.678 64.7209 151.162 64.7209C150.645 64.7209 150.238 64.9164 149.939 65.3074C149.64 65.6984 149.49 66.227 149.49 66.8933C149.49 67.5596 149.64 68.0882 149.939 68.4792C150.238 68.8702 150.645 69.0657 151.162 69.0657C151.678 69.0657 152.083 68.8702 152.384 68.4792C152.684 68.0882 152.833 67.5596 152.833 66.8933Z" fill="#414652"/>
</g>
</g>
</svg>
