<svg width="411" height="59" viewBox="0 0 411 59" fill="none" xmlns="http://www.w3.org/2000/svg">
<g id="logo / sub-brand / white / deriv InFocus">
<g id="wordmark">
<path d="M34.9861 1.82853L31.9963 18.7839H21.6179C11.9356 18.7839 2.70673 26.6285 0.996224 36.3108L0.272218 40.4319C-1.43032 50.1143 5.02984 57.959 14.7122 57.959H23.3682C30.4251 57.959 37.1479 52.2464 38.389 45.1897L46.3608 0L34.9861 1.82853ZM27.6221 43.5905C27.2402 45.7704 25.2776 47.5447 23.0977 47.5447H17.8389C13.487 47.5447 10.5752 44.012 11.3389 39.6522L11.7924 37.0825C12.5641 32.7306 16.7171 29.1902 21.069 29.1902H30.1613L27.6221 43.5905ZM114.914 57.9581L121.724 19.324H132.496L125.686 57.9581H114.905H114.914ZM116.079 19.7695C115.539 22.8339 114.997 25.8983 114.457 28.9627C109.353 27.3768 104.088 27.8818 102.47 28.2044C100.723 38.1247 98.9739 48.0474 97.2245 57.9677H86.4451C87.9089 49.6671 92.9099 21.3197 92.9099 21.3197C96.4158 19.8679 105.025 16.9214 116.079 19.7695ZM72.4022 18.7773H64.0168C55.8461 18.7773 48.0576 25.3966 46.6173 33.5673L44.9228 43.1702C43.4827 51.3408 48.9327 57.9603 57.1034 57.9603H74.9405L76.7704 47.5778H60.007C57.2863 47.5778 55.4642 45.3739 55.9497 42.6451L56.0054 42.3189H83.0316L84.575 33.5673C86.0148 25.3966 80.5651 18.7773 72.3944 18.7773H72.4022ZM73.7628 32.7399L73.6992 33.2968H57.6285L57.716 32.8036C58.201 30.0827 60.6835 27.688 63.4121 27.688H69.6894C72.3865 27.688 74.2086 30.0429 73.7628 32.7399ZM174.527 19.324C170.855 29.0872 162.439 45.6953 154.287 57.9581H143.507C139.765 46.2868 137.349 30.0248 136.888 19.324H147.668C147.862 22.8146 149.425 35.7617 151.208 44.8066C156.1 36.0072 161.492 24.4623 163.739 19.324H174.527Z" fill="white"/>
<path d="M189.192 8.104H196.176V58H189.192V8.104Z" fill="white"/>
<path d="M205.216 21.64C206.752 21.256 208.792 20.848 211.336 20.416C213.88 19.984 216.808 19.768 220.12 19.768C223.096 19.768 225.568 20.2 227.536 21.064C229.504 21.88 231.064 23.056 232.216 24.592C233.416 26.08 234.256 27.88 234.736 29.992C235.216 32.104 235.456 34.432 235.456 36.976V58H228.76V38.416C228.76 36.112 228.592 34.144 228.256 32.512C227.968 30.88 227.464 29.56 226.744 28.552C226.024 27.544 225.064 26.824 223.864 26.392C222.664 25.912 221.176 25.672 219.4 25.672C218.68 25.672 217.936 25.696 217.168 25.744C216.4 25.792 215.656 25.864 214.936 25.96C214.264 26.008 213.64 26.08 213.064 26.176C212.536 26.272 212.152 26.344 211.912 26.392V58H205.216V21.64Z" fill="white"/>
<path d="M244.112 58V8.104H274.208V14.08H251.096V29.128H271.616V35.032H251.096V58H244.112Z" fill="white"/>
<path d="M311.535 39.28C311.535 42.256 311.103 44.944 310.239 47.344C309.375 49.744 308.151 51.808 306.567 53.536C305.031 55.264 303.183 56.608 301.023 57.568C298.863 58.48 296.511 58.936 293.967 58.936C291.423 58.936 289.071 58.48 286.911 57.568C284.751 56.608 282.879 55.264 281.295 53.536C279.759 51.808 278.559 49.744 277.695 47.344C276.831 44.944 276.399 42.256 276.399 39.28C276.399 36.352 276.831 33.688 277.695 31.288C278.559 28.84 279.759 26.752 281.295 25.024C282.879 23.296 284.751 21.976 286.911 21.064C289.071 20.104 291.423 19.624 293.967 19.624C296.511 19.624 298.863 20.104 301.023 21.064C303.183 21.976 305.031 23.296 306.567 25.024C308.151 26.752 309.375 28.84 310.239 31.288C311.103 33.688 311.535 36.352 311.535 39.28ZM304.551 39.28C304.551 35.056 303.591 31.72 301.671 29.272C299.799 26.776 297.231 25.528 293.967 25.528C290.703 25.528 288.111 26.776 286.191 29.272C284.319 31.72 283.383 35.056 283.383 39.28C283.383 43.504 284.319 46.864 286.191 49.36C288.111 51.808 290.703 53.032 293.967 53.032C297.231 53.032 299.799 51.808 301.671 49.36C303.591 46.864 304.551 43.504 304.551 39.28Z" fill="white"/>
<path d="M334.348 58.864C331.324 58.864 328.66 58.384 326.356 57.424C324.1 56.464 322.18 55.12 320.596 53.392C319.06 51.664 317.908 49.624 317.14 47.272C316.372 44.872 315.988 42.232 315.988 39.352C315.988 36.472 316.396 33.832 317.212 31.432C318.076 29.032 319.276 26.968 320.812 25.24C322.348 23.464 324.22 22.096 326.428 21.136C328.684 20.128 331.18 19.624 333.916 19.624C335.596 19.624 337.276 19.768 338.956 20.056C340.636 20.344 342.244 20.8 343.78 21.424L342.268 27.112C341.26 26.632 340.084 26.248 338.74 25.96C337.444 25.672 336.052 25.528 334.564 25.528C330.82 25.528 327.94 26.704 325.924 29.056C323.956 31.408 322.972 34.84 322.972 39.352C322.972 41.368 323.188 43.216 323.62 44.896C324.1 46.576 324.82 48.016 325.78 49.216C326.788 50.416 328.06 51.352 329.596 52.024C331.132 52.648 333.004 52.96 335.212 52.96C336.988 52.96 338.596 52.792 340.036 52.456C341.476 52.12 342.604 51.76 343.42 51.376L344.356 56.992C343.972 57.232 343.42 57.472 342.7 57.712C341.98 57.904 341.164 58.072 340.252 58.216C339.34 58.408 338.356 58.552 337.3 58.648C336.292 58.792 335.308 58.864 334.348 58.864Z" fill="white"/>
<path d="M378.473 56.92C376.937 57.304 374.897 57.712 372.353 58.144C369.857 58.576 366.953 58.792 363.641 58.792C360.761 58.792 358.337 58.384 356.369 57.568C354.401 56.704 352.817 55.504 351.617 53.968C350.417 52.432 349.553 50.632 349.025 48.568C348.497 46.456 348.233 44.128 348.233 41.584V20.56H354.929V40.144C354.929 44.704 355.649 47.968 357.089 49.936C358.529 51.904 360.953 52.888 364.361 52.888C365.081 52.888 365.825 52.864 366.593 52.816C367.361 52.768 368.081 52.72 368.753 52.672C369.425 52.576 370.025 52.504 370.553 52.456C371.129 52.36 371.537 52.264 371.777 52.168V20.56H378.473V56.92Z" fill="white"/>
<path d="M395.84 53.176C398.576 53.176 400.592 52.816 401.888 52.096C403.232 51.376 403.904 50.224 403.904 48.64C403.904 47.008 403.256 45.712 401.96 44.752C400.664 43.792 398.528 42.712 395.552 41.512C394.112 40.936 392.72 40.36 391.376 39.784C390.08 39.16 388.952 38.44 387.992 37.624C387.032 36.808 386.264 35.824 385.688 34.672C385.112 33.52 384.824 32.104 384.824 30.424C384.824 27.112 386.048 24.496 388.496 22.576C390.944 20.608 394.28 19.624 398.504 19.624C399.56 19.624 400.616 19.696 401.672 19.84C402.728 19.936 403.712 20.08 404.624 20.272C405.536 20.416 406.328 20.584 407 20.776C407.72 20.968 408.272 21.136 408.656 21.28L407.432 27.04C406.712 26.656 405.584 26.272 404.048 25.888C402.512 25.456 400.664 25.24 398.504 25.24C396.632 25.24 395 25.624 393.608 26.392C392.216 27.112 391.52 28.264 391.52 29.848C391.52 30.664 391.664 31.384 391.952 32.008C392.288 32.632 392.768 33.208 393.392 33.736C394.064 34.216 394.88 34.672 395.84 35.104C396.8 35.536 397.952 35.992 399.296 36.472C401.072 37.144 402.656 37.816 404.048 38.488C405.44 39.112 406.616 39.856 407.576 40.72C408.584 41.584 409.352 42.64 409.88 43.888C410.408 45.088 410.672 46.576 410.672 48.352C410.672 51.808 409.376 54.424 406.784 56.2C404.24 57.976 400.592 58.864 395.84 58.864C392.528 58.864 389.936 58.576 388.064 58C386.192 57.472 384.92 57.064 384.248 56.776L385.472 51.016C386.24 51.304 387.464 51.736 389.144 52.312C390.824 52.888 393.056 53.176 395.84 53.176Z" fill="white"/>
</g>
</g>
</svg>
