<svg width="203" height="72" viewBox="0 0 203 72" fill="none" xmlns="http://www.w3.org/2000/svg">
<g id="logo / brand / black / deriv-wordmark vertical-25 years-portuguese">
<g id="logo">
<path d="M69.2597 42.0386C67.7696 40.627 65.8872 39.4642 63.6125 38.5484C61.3565 37.6416 58.5734 37.0548 55.4685 36.79L56.8435 32.5562H46.1484L42.0243 45.254C45.6829 45.254 49.1535 45.4502 51.6904 45.8426C54.2264 46.234 56.2523 46.7842 57.7682 47.4896C59.2841 48.1949 60.3818 49.0581 61.0631 50.0773C61.7426 51.0974 62.0832 52.2343 62.0832 53.489C62.0832 56.4699 61.0889 58.6653 59.1022 60.0769C57.1155 61.4884 54.2398 62.1956 50.475 62.1956C48.54 62.1956 46.5265 61.9093 44.4355 61.3333C42.3435 60.759 39.5168 59.7006 37.6861 58.6029H3.16377C2.95511 58.9935 2.62516 59.73 2.43255 60.1331C1.28225 62.5398 0.471712 65.3879 0 68.6827H34.4787C35.5541 69.2124 36.9425 69.5495 38.1998 69.9614C39.6372 70.4322 41.1014 70.8121 42.5914 71.0984C44.0815 71.3846 45.5332 71.6084 46.9447 71.7654C48.3563 71.9223 49.6118 71.9999 50.7095 71.9999C54.4734 71.9999 57.7941 71.5415 60.6698 70.6275C63.5438 69.7126 65.9505 68.4188 67.8855 66.745C69.8196 65.0713 71.2705 63.0329 72.2389 60.628C73.2064 58.223 73.6905 55.5559 73.6905 52.6276C73.6905 50.5882 73.3232 48.6675 72.592 46.8636C71.859 45.0597 70.7488 43.4519 69.2579 42.0395L69.2597 42.0386Z" fill="#414652"/>
<path d="M50.9263 17.868L47.6484 27.9478L77.3984 27.9425L80.6745 17.868H50.9263Z" fill="#414652"/>
<path d="M42.5708 22.3203C41.8378 20.7518 40.807 19.3786 39.473 18.2033C38.1399 17.0271 36.5714 16.0998 34.7675 15.4194C32.9636 14.7399 31.0152 14.4002 28.9242 14.4002C25.5776 14.4002 22.2774 14.7613 19.1983 15.9687C13.9854 18.0134 10.0388 21.5097 10.0388 21.5097L13.7875 29.9292C16.1924 28.0994 18.4145 26.7271 20.453 25.8122C22.4923 24.8982 24.5825 24.4399 26.727 24.4399C28.2429 24.4399 29.4841 24.8982 30.4525 25.8122C31.42 26.728 31.9043 27.8658 31.9043 29.2239C31.9043 30.3225 31.6697 31.3684 31.1989 32.3618C30.7281 33.3552 29.9835 34.4154 28.9643 35.538C27.9451 36.6625 26.6111 37.8913 24.9641 39.2244C23.3171 40.5575 21.317 42.1402 18.9638 43.9691C16.4537 45.9041 14.1272 47.7214 11.9827 49.4192C10.1787 50.8486 8.17417 52.3788 6.68502 53.9937H21.0852C21.5114 53.6521 21.9403 53.3169 22.3755 52.9887C23.7603 51.9427 25.1719 50.9235 26.6102 49.9302C28.0476 48.9377 29.4726 47.8908 30.8842 46.7923C33.2891 44.9099 35.315 43.2112 36.962 41.6944C38.609 40.1785 39.9287 38.6876 40.9239 37.2234C41.9163 35.7601 42.6217 34.2424 43.0417 32.6748C43.459 31.1063 43.6694 29.33 43.6694 27.3415C43.6694 25.5643 43.302 23.8897 42.5708 22.3221L42.5726 22.3203H42.5708Z" fill="#414652"/>
<path d="M101.33 0.563553L100.408 5.79073H97.2084C94.223 5.79073 91.3776 8.20814 90.8515 11.1954L90.6285 12.4651C90.1024 15.4506 92.0963 17.8698 95.0808 17.8698H97.7488C99.9245 17.8698 101.997 16.1087 102.379 13.9329L104.838 0L101.331 0.564446L101.33 0.563553ZM99.0596 13.438C98.9419 14.1103 98.3364 14.6579 97.6641 14.6579H96.043C94.7009 14.6579 93.8039 13.5691 94.0384 12.2244L94.1775 11.4326C94.4147 10.0905 95.6952 8.99909 97.0372 8.99909H99.8407L99.057 13.4389H99.0587L99.0596 13.438ZM125.973 17.868L128.073 5.95659H131.394L129.294 17.868H125.97H125.973ZM126.332 6.09481C126.166 7.03912 125.998 7.98433 125.832 8.92865C124.258 8.4391 122.635 8.59604 122.136 8.69413C121.597 11.7527 121.058 14.813 120.519 17.8716H117.196C117.647 15.3124 119.189 6.57187 119.189 6.57187C120.271 6.12423 122.924 5.21558 126.333 6.09391V6.0957L126.332 6.09481ZM112.867 5.78806H110.282C107.763 5.78806 105.361 7.82828 104.918 10.3482L104.396 13.3087C103.951 15.8287 105.632 17.8689 108.151 17.8689H113.65L114.214 14.6677H109.046C108.207 14.6677 107.645 13.9882 107.795 13.1473L107.812 13.0465H116.145L116.62 10.3482C117.064 7.83006 115.383 5.78806 112.865 5.78806H112.867ZM113.286 10.0932L113.265 10.2644H108.31L108.337 10.1119C108.487 9.27285 109.252 8.5354 110.094 8.5354H112.029C112.861 8.5354 113.423 9.26125 113.284 10.0932H113.286ZM144.354 5.95659C143.222 8.96609 140.627 14.0872 138.113 17.868H134.789C133.635 14.2691 132.89 9.25501 132.749 5.95659H136.073C136.133 7.03198 136.614 11.0251 137.164 13.8134C138.672 11.1008 140.335 7.54115 141.028 5.95659H144.354Z" fill="#414652"/>
<path d="M108.604 61.8062C108.419 61.3995 108.234 60.9465 108.05 60.4472C107.864 59.9478 107.717 59.4217 107.607 58.8671C106.793 59.6072 105.702 60.3455 104.335 61.0848C102.967 61.824 101.285 62.1941 99.2888 62.1941C97.6615 62.1941 96.2668 61.9345 95.1023 61.4174C93.9377 60.9002 92.9854 60.1797 92.2462 59.255C91.506 58.3312 90.9612 57.2406 90.6108 55.9833C90.2586 54.7269 90.0838 53.3412 90.0838 51.8244C90.0838 49.3481 90.4993 46.9263 91.3312 44.5606C92.1632 42.1949 93.4107 40.0878 95.0738 38.2393C96.7377 36.3908 98.8252 34.8936 101.34 33.7477C103.853 32.6019 106.793 32.0285 110.156 32.0285C111.154 32.0285 112.318 32.1391 113.65 32.3611C114.98 32.5832 116.126 32.9532 117.087 33.4704L112.818 50.8819C112.632 51.7326 112.475 52.5458 112.346 53.3216C112.216 54.0983 112.152 54.9115 112.152 55.7613C112.152 56.6111 112.226 57.4716 112.374 58.3401C112.521 59.2095 112.78 60.1422 113.15 61.14L108.604 61.8053L108.604 61.8062ZM100.342 57.8131C101.894 57.8131 103.226 57.4805 104.334 56.8153C105.443 56.1501 106.404 55.3734 107.218 54.4861C107.254 53.8584 107.32 53.2021 107.412 52.5173C107.504 51.8333 107.625 51.1405 107.773 50.4378L111.099 36.6859C110.914 36.6119 110.609 36.5566 110.185 36.5192C109.759 36.4826 109.38 36.4639 109.048 36.4639C106.941 36.4639 105.036 36.8714 103.336 37.6837C101.636 38.497 100.184 39.5786 98.983 40.9278C97.781 42.2778 96.8572 43.8481 96.2107 45.6413C95.5633 47.4345 95.2405 49.3107 95.2405 51.2698C95.2405 52.0464 95.3145 52.832 95.4625 53.6265C95.6097 54.4219 95.8781 55.1237 96.2668 55.7336C96.6547 56.3436 97.1719 56.8429 97.8193 57.2308C98.4658 57.6187 99.3067 57.8131 100.342 57.8131Z" fill="#414652"/>
<path d="M124.186 61.4736H119.029L125.683 33.7487C127.383 33.2315 129.222 32.8159 131.2 32.5012C133.177 32.1873 134.943 32.0294 136.496 32.0294C138.16 32.0294 139.592 32.2604 140.793 32.7223C141.994 33.1851 142.965 33.8129 143.705 34.6074C144.444 35.4028 144.989 36.3631 145.34 37.4911C145.69 38.6191 145.867 39.8479 145.867 41.1783C145.867 42.029 145.792 42.9252 145.645 43.8677C145.497 44.8103 145.312 45.7626 145.09 46.7239L141.541 61.4736H136.385L139.656 47.8331C139.915 46.7988 140.164 45.7448 140.404 44.6721C140.644 43.6002 140.765 42.5837 140.765 41.6224C140.765 40.144 140.357 38.9152 139.545 37.9352C138.732 36.9561 137.216 36.4657 134.998 36.4657C134.073 36.4657 133.168 36.521 132.281 36.6324C131.394 36.743 130.654 36.8919 130.062 37.0765L124.184 61.4745L124.186 61.4736Z" fill="#414652"/>
<path d="M160.617 62.1941C157.585 62.1941 155.21 61.2979 153.491 59.5047C151.772 57.7123 150.912 55.245 150.912 52.1017C150.912 49.9581 151.217 47.703 151.827 45.3364C152.437 42.9707 153.407 40.7896 154.739 38.793C156.07 36.7965 157.788 35.1522 159.895 33.8583C162.002 32.5645 164.554 31.918 167.547 31.918C170.541 31.918 172.954 32.815 174.673 34.6074C176.392 36.4006 177.252 38.8688 177.252 42.0103C177.252 44.1549 176.947 46.41 176.337 48.7757C175.727 51.1423 174.757 53.3225 173.425 55.319C172.095 57.3155 170.376 58.9607 168.268 60.2537C166.161 61.5476 163.611 62.1941 160.617 62.1941ZM161.504 57.8131C163.168 57.8131 164.655 57.3334 165.968 56.3712C167.28 55.41 168.389 54.1812 169.295 52.684C170.2 51.1868 170.894 49.5327 171.374 47.7208C171.854 45.9097 172.095 44.154 172.095 42.4526C172.095 40.5675 171.687 39.0704 170.875 37.9611C170.062 36.8518 168.656 36.2971 166.661 36.2971C164.998 36.2971 163.509 36.7778 162.197 37.739C160.884 38.7012 159.775 39.9291 158.87 41.4262C157.964 42.9234 157.27 44.5784 156.79 46.3895C156.31 48.2014 156.07 49.9572 156.07 51.6577C156.07 53.5427 156.477 55.0399 157.29 56.1492C158.102 57.2585 159.508 57.8131 161.504 57.8131Z" fill="#414652"/>
<path d="M187.566 57.8693C188.343 57.8693 189.127 57.7953 189.923 57.6472C190.717 57.5001 191.42 57.2594 192.03 56.9268C192.64 56.5942 193.139 56.1421 193.527 55.5678C193.915 54.9953 194.109 54.2838 194.109 53.4331C194.109 52.8784 194.017 52.3889 193.832 51.9635C193.647 51.5391 193.351 51.1414 192.945 50.7713C192.537 50.4021 192.03 50.0419 191.42 49.6897C190.81 49.3383 190.08 48.9406 189.23 48.4975C188.379 48.0908 187.603 47.6851 186.901 47.2776C186.198 46.871 185.578 46.3904 185.043 45.8357C184.508 45.2811 184.091 44.6257 183.796 43.8668C183.5 43.1098 183.353 42.1949 183.353 41.1222C183.353 38.3499 184.351 36.1233 186.347 34.4406C188.344 32.7589 191.245 31.918 195.053 31.918C196.827 31.918 198.389 32.0936 199.739 32.445C201.088 32.7963 202.021 33.12 202.539 33.4152L200.598 37.6294C200.08 37.3342 199.248 37.0194 198.103 36.6868C196.958 36.3542 195.681 36.1875 194.277 36.1875C193.574 36.1875 192.872 36.2624 192.17 36.4095C191.467 36.5575 190.83 36.8072 190.257 37.1585C189.684 37.5099 189.222 37.9718 188.871 38.5451C188.518 39.1185 188.344 39.8122 188.344 40.6246C188.344 41.6224 188.732 42.4455 189.508 43.0919C190.285 43.7393 191.449 44.4143 193.002 45.1161C193.963 45.5593 194.822 46.0132 195.581 46.4751C196.338 46.9379 196.985 47.4551 197.521 48.0275C198.056 48.6009 198.464 49.275 198.741 50.0517C199.018 50.8284 199.156 51.7522 199.156 52.824C199.156 54.3765 198.86 55.7444 198.269 56.9277C197.677 58.1109 196.855 59.09 195.802 59.8667C194.749 60.6434 193.5 61.2257 192.059 61.6136C190.618 62.0015 189.046 62.1958 187.346 62.1958C186.089 62.1958 184.952 62.1129 183.936 61.9462C182.919 61.7794 182.031 61.5859 181.274 61.3639C180.516 61.1419 179.888 60.9118 179.389 60.671C178.89 60.4312 178.511 60.2368 178.252 60.0887L180.249 55.8745C180.507 56.0226 180.868 56.2071 181.33 56.4292C181.792 56.6512 182.347 56.8724 182.994 57.0944C183.641 57.3164 184.353 57.5019 185.129 57.649C185.906 57.797 186.718 57.8711 187.569 57.8711L187.566 57.8693Z" fill="#414652"/>
</g>
</g>
</svg>
