<svg width="386" height="35" viewBox="0 0 386 35" fill="none" xmlns="http://www.w3.org/2000/svg">
<g id="logo / deriv product / brand-light / deriv go ultimate-wordmark">
<g id="wordmark">
<path fill-rule="evenodd" clip-rule="evenodd" d="M20.739 1.19411L18.9667 11.245H12.8146C7.07515 11.245 1.60449 15.8951 0.59054 21.6347L0.161365 24.0776C-0.847863 29.8172 2.98158 34.4674 8.72108 34.4674H13.8522C18.0354 34.4674 22.0204 31.0811 22.7562 26.898L27.4817 0.110188L20.739 1.19411ZM16.3738 25.95C16.1474 27.2422 14.984 28.294 13.6918 28.294H10.5745C7.9948 28.294 6.26872 26.1999 6.72144 23.6154L6.99028 22.0921C7.44772 19.5124 9.90952 17.4137 12.4892 17.4137H17.879L16.3738 25.95Z" fill="#FF444F"/>
<path d="M68.118 34.469H74.5035L78.5404 11.5673H72.1549L68.118 34.469Z" fill="#FF444F"/>
<path d="M68.3311 14.5503C68.4911 13.6439 68.6512 12.7376 68.8109 11.8312C62.2586 10.1429 57.155 11.8895 55.0768 12.7501C55.0768 12.7501 52.1124 29.5541 51.2446 34.4745H57.6344C58.6714 28.5939 59.7084 22.7119 60.744 16.8313C61.7029 16.64 64.8241 16.3407 67.8493 17.2808C68.0095 16.3715 68.17 15.4622 68.3306 14.5529L68.3311 14.5503Z" fill="#FF444F"/>
<path fill-rule="evenodd" clip-rule="evenodd" d="M42.9138 11.2427H37.9477C33.1043 11.2427 28.4874 15.1665 27.6337 20.01L26.6292 25.7024C25.7755 30.5458 29.0062 34.4698 33.8496 34.4698H44.4231L45.5078 28.3152H35.5708C33.958 28.3152 32.878 27.0087 33.1657 25.3911L33.1987 25.1978H49.2193L50.1342 20.01C50.9877 15.1665 47.7572 11.2427 42.9138 11.2427ZM43.7249 19.5195L43.6873 19.8496H34.1609L34.2128 19.5572C34.5003 17.9443 35.9718 16.5248 37.5893 16.5248H41.3103C42.9091 16.5248 43.9892 17.9208 43.7249 19.5195Z" fill="#FF444F"/>
<path d="M89.6386 26.673C92.5379 21.4569 95.7343 14.6133 97.0662 11.5673H103.461C101.284 17.3548 96.2959 27.1998 91.4635 34.469H85.0733C82.8551 27.5505 81.4227 17.9106 81.1494 11.5673H87.5398C87.6552 13.6365 88.5814 21.3113 89.6386 26.673Z" fill="#FF444F"/>
<path d="M132.432 17.664H137.088V33.216C136.704 33.344 136.144 33.488 135.408 33.648C134.704 33.808 133.872 33.968 132.912 34.128C131.984 34.288 130.96 34.416 129.84 34.512C128.72 34.64 127.584 34.704 126.432 34.704C124.096 34.704 121.968 34.32 120.048 33.552C118.128 32.784 116.48 31.664 115.104 30.192C113.728 28.72 112.656 26.912 111.888 24.768C111.152 22.624 110.784 20.16 110.784 17.376C110.784 14.592 111.2 12.128 112.032 9.984C112.896 7.808 114.048 5.984 115.488 4.512C116.928 3.04 118.608 1.92 120.528 1.152C122.48 0.384 124.56 0 126.768 0C128.272 0 129.6 0.0960007 130.752 0.288002C131.936 0.480001 132.944 0.704001 133.776 0.960002C134.608 1.216 135.28 1.472 135.792 1.728C136.336 1.984 136.704 2.176 136.896 2.304L135.408 6.192C134.48 5.584 133.248 5.088 131.712 4.704C130.176 4.288 128.608 4.08 127.008 4.08C125.312 4.08 123.76 4.384 122.352 4.992C120.976 5.6 119.792 6.48 118.8 7.632C117.84 8.784 117.088 10.192 116.544 11.856C116 13.488 115.728 15.328 115.728 17.376C115.728 19.36 115.952 21.168 116.4 22.8C116.88 24.432 117.584 25.84 118.512 27.024C119.472 28.176 120.64 29.072 122.016 29.712C123.424 30.352 125.072 30.672 126.96 30.672C128.304 30.672 129.44 30.608 130.368 30.48C131.328 30.32 132.016 30.176 132.432 30.048V17.664Z" fill="#414652"/>
<path d="M141.114 17.376C141.114 14.528 141.53 12.016 142.362 9.84C143.226 7.664 144.378 5.856 145.818 4.416C147.29 2.944 148.986 1.84 150.906 1.104C152.858 0.368 154.922 0 157.098 0C159.242 0 161.258 0.368 163.146 1.104C165.066 1.84 166.746 2.944 168.186 4.416C169.626 5.856 170.762 7.664 171.594 9.84C172.458 12.016 172.89 14.528 172.89 17.376C172.89 20.224 172.458 22.736 171.594 24.912C170.762 27.088 169.626 28.912 168.186 30.384C166.746 31.824 165.066 32.912 163.146 33.648C161.258 34.384 159.242 34.752 157.098 34.752C154.922 34.752 152.858 34.384 150.906 33.648C148.986 32.912 147.29 31.824 145.818 30.384C144.378 28.912 143.226 27.088 142.362 24.912C141.53 22.736 141.114 20.224 141.114 17.376ZM146.01 17.376C146.01 19.392 146.266 21.232 146.778 22.896C147.29 24.528 148.01 25.92 148.938 27.072C149.898 28.224 151.05 29.12 152.394 29.76C153.77 30.368 155.306 30.672 157.002 30.672C158.698 30.672 160.218 30.368 161.562 29.76C162.906 29.12 164.042 28.224 164.97 27.072C165.93 25.92 166.666 24.528 167.178 22.896C167.69 21.232 167.946 19.392 167.946 17.376C167.946 15.36 167.69 13.536 167.178 11.904C166.666 10.24 165.93 8.832 164.97 7.68C164.042 6.528 162.906 5.648 161.562 5.04C160.218 4.4 158.698 4.08 157.002 4.08C155.306 4.08 153.77 4.4 152.394 5.04C151.05 5.648 149.898 6.528 148.938 7.68C148.01 8.832 147.29 10.24 146.778 11.904C146.266 13.536 146.01 15.36 146.01 17.376Z" fill="#414652"/>
<path d="M199.471 34.752C197.295 34.752 195.407 34.416 193.807 33.744C192.207 33.072 190.895 32.16 189.871 31.008C188.847 29.824 188.079 28.432 187.567 26.832C187.087 25.232 186.847 23.504 186.847 21.648V0.768002H191.503V21.12C191.503 24.448 192.239 26.864 193.711 28.368C195.183 29.872 197.103 30.624 199.471 30.624C200.655 30.624 201.727 30.448 202.687 30.096C203.679 29.712 204.527 29.136 205.231 28.368C205.935 27.6 206.479 26.624 206.863 25.44C207.247 24.224 207.439 22.784 207.439 21.12V0.768002H212.095V21.648C212.095 23.504 211.839 25.232 211.327 26.832C210.847 28.432 210.079 29.824 209.023 31.008C207.999 32.16 206.687 33.072 205.087 33.744C203.519 34.416 201.647 34.752 199.471 34.752Z" fill="#414652"/>
<path d="M238.23 30V34.032H218.214V0.768002H222.87V30H238.23Z" fill="#414652"/>
<path d="M257.877 0.768002V4.8H247.413V34.032H242.757V4.8H232.293V0.768002H257.877Z" fill="#414652"/>
<path d="M260.874 0.768002H265.53V34.032H260.874V0.768002Z" fill="#414652"/>
<path d="M286.772 29.424C286.452 28.656 286.02 27.68 285.476 26.496C284.964 25.312 284.404 24.032 283.796 22.656C283.188 21.28 282.532 19.872 281.828 18.432C281.156 16.96 280.516 15.584 279.908 14.304C279.3 12.992 278.724 11.824 278.18 10.8C277.668 9.776 277.252 8.992 276.932 8.448C276.58 12.224 276.292 16.32 276.068 20.736C275.844 25.12 275.652 29.552 275.492 34.032H270.932C271.06 31.152 271.204 28.256 271.364 25.344C271.524 22.4 271.7 19.52 271.892 16.704C272.116 13.856 272.34 11.088 272.564 8.4C272.82 5.712 273.092 3.168 273.38 0.768002H277.46C278.324 2.176 279.252 3.84 280.244 5.76C281.236 7.68 282.228 9.696 283.22 11.808C284.212 13.888 285.172 15.984 286.1 18.096C287.028 20.176 287.876 22.08 288.644 23.808C289.412 22.08 290.26 20.176 291.188 18.096C292.116 15.984 293.076 13.888 294.068 11.808C295.06 9.696 296.052 7.68 297.044 5.76C298.036 3.84 298.964 2.176 299.828 0.768002H303.908C304.996 11.488 305.812 22.576 306.356 34.032H301.796C301.636 29.552 301.444 25.12 301.22 20.736C300.996 16.32 300.708 12.224 300.356 8.448C300.036 8.992 299.604 9.776 299.06 10.8C298.548 11.824 297.988 12.992 297.38 14.304C296.772 15.584 296.116 16.96 295.412 18.432C294.74 19.872 294.1 21.28 293.492 22.656C292.884 24.032 292.308 25.312 291.764 26.496C291.252 27.68 290.836 28.656 290.516 29.424H286.772Z" fill="#414652"/>
<path d="M333.961 34.032C333.417 32.592 332.905 31.184 332.425 29.808C331.945 28.4 331.449 26.976 330.937 25.536H315.865L312.841 34.032H307.993C309.273 30.512 310.473 27.264 311.593 24.288C312.713 21.28 313.801 18.432 314.857 15.744C315.945 13.056 317.017 10.496 318.073 8.064C319.129 5.6 320.233 3.168 321.385 0.768002H325.657C326.809 3.168 327.913 5.6 328.969 8.064C330.025 10.496 331.081 13.056 332.137 15.744C333.225 18.432 334.329 21.28 335.449 24.288C336.569 27.264 337.769 30.512 339.049 34.032H333.961ZM329.593 21.696C328.569 18.912 327.545 16.224 326.521 13.632C325.529 11.008 324.489 8.496 323.401 6.096C322.281 8.496 321.209 11.008 320.185 13.632C319.193 16.224 318.201 18.912 317.209 21.696H329.593Z" fill="#414652"/>
<path d="M360.775 0.768002V4.8H350.311V34.032H345.655V4.8H335.191V0.768002H360.775Z" fill="#414652"/>
<path d="M363.772 34.032V0.768002H384.076V4.752H368.428V14.64H382.348V18.528H368.428V30.048H385.276V34.032H363.772Z" fill="#414652"/>
</g>
</g>
</svg>
