<svg width="426" height="72" viewBox="0 0 426 72" fill="none" xmlns="http://www.w3.org/2000/svg">
<g id="logo / sub-brand / deriv security / black" clip-path="url(#clip0_2091_56)">
<g id="wordmark">
<path d="M34.9861 1.82853L31.9963 18.7839H21.6179C11.9356 18.7839 2.70673 26.6285 0.996224 36.3108L0.272218 40.4319C-1.43032 50.1143 5.02984 57.959 14.7122 57.959H23.3682C30.4251 57.959 37.1479 52.2464 38.389 45.1897L46.3608 0L34.9861 1.82853ZM27.6221 43.5905C27.2402 45.7704 25.2776 47.5447 23.0977 47.5447H17.8389C13.487 47.5447 10.5752 44.012 11.3389 39.6522L11.7924 37.0825C12.5641 32.7306 16.7171 29.1902 21.069 29.1902H30.1613L27.6221 43.5905ZM114.914 57.9581L121.724 19.324H132.496L125.686 57.9581H114.905H114.914ZM116.079 19.7695C115.539 22.8339 114.997 25.8983 114.457 28.9627C109.353 27.3768 104.088 27.8818 102.47 28.2044C100.723 38.1247 98.9739 48.0474 97.2245 57.9677H86.4451C87.9089 49.6671 92.9099 21.3197 92.9099 21.3197C96.4158 19.8679 105.025 16.9214 116.079 19.7695ZM72.4022 18.7773H64.0168C55.8461 18.7773 48.0576 25.3966 46.6173 33.5673L44.9228 43.1702C43.4827 51.3408 48.9327 57.9603 57.1034 57.9603H74.9405L76.7704 47.5778H60.007C57.2863 47.5778 55.4642 45.3739 55.9497 42.6451L56.0054 42.3189H83.0316L84.575 33.5673C86.0148 25.3966 80.5651 18.7773 72.3944 18.7773H72.4022ZM73.7628 32.7399L73.6992 33.2968H57.6285L57.716 32.8036C58.201 30.0827 60.6835 27.688 63.4121 27.688H69.6894C72.3865 27.688 74.2086 30.0429 73.7628 32.7399ZM174.527 19.324C170.855 29.0872 162.439 45.6953 154.287 57.9581H143.507C139.765 46.2868 137.349 30.0248 136.888 19.324H147.668C147.862 22.8146 149.425 35.7617 151.208 44.8066C156.1 36.0072 161.492 24.4623 163.739 19.324H174.527Z" fill="#414652"/>
<path d="M200.784 53.032C208.08 53.032 211.728 50.536 211.728 45.544C211.728 44.008 211.392 42.712 210.72 41.656C210.096 40.552 209.232 39.616 208.128 38.848C207.024 38.032 205.752 37.336 204.312 36.76C202.92 36.184 201.432 35.608 199.848 35.032C198.024 34.408 196.296 33.712 194.664 32.944C193.032 32.128 191.616 31.192 190.416 30.136C189.216 29.032 188.256 27.736 187.536 26.248C186.864 24.76 186.528 22.96 186.528 20.848C186.528 16.48 188.016 13.072 190.992 10.624C193.968 8.176 198.072 6.952 203.304 6.952C206.328 6.952 209.064 7.288 211.512 7.96C214.008 8.584 215.832 9.28 216.984 10.048L214.752 15.736C213.744 15.112 212.232 14.512 210.216 13.936C208.248 13.312 205.944 13 203.304 13C201.96 13 200.712 13.144 199.56 13.432C198.408 13.72 197.4 14.152 196.536 14.728C195.672 15.304 194.976 16.048 194.448 16.96C193.968 17.824 193.728 18.856 193.728 20.056C193.728 21.4 193.992 22.528 194.52 23.44C195.048 24.352 195.792 25.168 196.752 25.888C197.712 26.56 198.816 27.184 200.064 27.76C201.36 28.336 202.776 28.912 204.312 29.488C206.472 30.352 208.44 31.216 210.216 32.08C212.04 32.944 213.6 33.976 214.896 35.176C216.24 36.376 217.272 37.816 217.992 39.496C218.712 41.128 219.072 43.12 219.072 45.472C219.072 49.84 217.464 53.2 214.248 55.552C211.08 57.904 206.592 59.08 200.784 59.08C198.816 59.08 196.992 58.936 195.312 58.648C193.68 58.408 192.216 58.12 190.92 57.784C189.624 57.4 188.496 57.016 187.536 56.632C186.624 56.2 185.904 55.84 185.376 55.552L187.464 49.792C188.568 50.416 190.248 51.112 192.504 51.88C194.76 52.648 197.52 53.032 200.784 53.032Z" fill="#414652"/>
<path d="M222.112 39.352C222.112 36.04 222.592 33.16 223.552 30.712C224.512 28.216 225.784 26.152 227.368 24.52C228.952 22.888 230.776 21.664 232.84 20.848C234.904 20.032 237.016 19.624 239.176 19.624C244.216 19.624 248.08 21.208 250.768 24.376C253.456 27.496 254.8 32.272 254.8 38.704C254.8 38.992 254.8 39.376 254.8 39.856C254.8 40.288 254.776 40.696 254.728 41.08H229.096C229.384 44.968 230.512 47.92 232.48 49.936C234.448 51.952 237.52 52.96 241.696 52.96C244.048 52.96 246.016 52.768 247.6 52.384C249.232 51.952 250.456 51.544 251.272 51.16L252.208 56.776C251.392 57.208 249.952 57.664 247.888 58.144C245.872 58.624 243.568 58.864 240.976 58.864C237.712 58.864 234.88 58.384 232.48 57.424C230.128 56.416 228.184 55.048 226.648 53.32C225.112 51.592 223.96 49.552 223.192 47.2C222.472 44.8 222.112 42.184 222.112 39.352ZM247.816 35.68C247.864 32.656 247.096 30.184 245.512 28.264C243.976 26.296 241.84 25.312 239.104 25.312C237.568 25.312 236.2 25.624 235 26.248C233.848 26.824 232.864 27.592 232.048 28.552C231.232 29.512 230.584 30.616 230.104 31.864C229.672 33.112 229.384 34.384 229.24 35.68H247.816Z" fill="#414652"/>
<path d="M277.811 58.864C274.787 58.864 272.123 58.384 269.819 57.424C267.563 56.464 265.643 55.12 264.059 53.392C262.523 51.664 261.371 49.624 260.603 47.272C259.835 44.872 259.451 42.232 259.451 39.352C259.451 36.472 259.859 33.832 260.675 31.432C261.539 29.032 262.739 26.968 264.275 25.24C265.811 23.464 267.683 22.096 269.891 21.136C272.147 20.128 274.643 19.624 277.379 19.624C279.059 19.624 280.739 19.768 282.419 20.056C284.099 20.344 285.707 20.8 287.243 21.424L285.731 27.112C284.723 26.632 283.547 26.248 282.203 25.96C280.907 25.672 279.515 25.528 278.027 25.528C274.283 25.528 271.403 26.704 269.387 29.056C267.419 31.408 266.435 34.84 266.435 39.352C266.435 41.368 266.651 43.216 267.083 44.896C267.563 46.576 268.283 48.016 269.243 49.216C270.251 50.416 271.523 51.352 273.059 52.024C274.595 52.648 276.467 52.96 278.675 52.96C280.451 52.96 282.059 52.792 283.499 52.456C284.939 52.12 286.067 51.76 286.883 51.376L287.819 56.992C287.435 57.232 286.883 57.472 286.163 57.712C285.443 57.904 284.627 58.072 283.715 58.216C282.803 58.408 281.819 58.552 280.763 58.648C279.755 58.792 278.771 58.864 277.811 58.864Z" fill="#414652"/>
<path d="M321.936 56.92C320.4 57.304 318.36 57.712 315.816 58.144C313.32 58.576 310.416 58.792 307.104 58.792C304.224 58.792 301.8 58.384 299.832 57.568C297.864 56.704 296.28 55.504 295.08 53.968C293.88 52.432 293.016 50.632 292.488 48.568C291.96 46.456 291.696 44.128 291.696 41.584V20.56H298.392V40.144C298.392 44.704 299.112 47.968 300.552 49.936C301.992 51.904 304.416 52.888 307.824 52.888C308.544 52.888 309.288 52.864 310.056 52.816C310.824 52.768 311.544 52.72 312.216 52.672C312.888 52.576 313.488 52.504 314.016 52.456C314.592 52.36 315 52.264 315.24 52.168V20.56H321.936V56.92Z" fill="#414652"/>
<path d="M344.416 19.768C344.992 19.768 345.64 19.816 346.36 19.912C347.128 19.96 347.872 20.056 348.592 20.2C349.312 20.296 349.96 20.416 350.536 20.56C351.16 20.656 351.616 20.752 351.904 20.848L350.752 26.68C350.224 26.488 349.336 26.272 348.088 26.032C346.888 25.744 345.328 25.6 343.408 25.6C342.16 25.6 340.912 25.744 339.664 26.032C338.464 26.272 337.672 26.44 337.288 26.536V58H330.592V22.144C332.176 21.568 334.144 21.04 336.496 20.56C338.848 20.032 341.488 19.768 344.416 19.768Z" fill="#414652"/>
<path d="M362.181 58H355.485V20.56H362.181V58ZM358.797 13.792C357.597 13.792 356.565 13.408 355.701 12.64C354.885 11.824 354.477 10.744 354.477 9.4C354.477 8.056 354.885 7 355.701 6.232C356.565 5.416 357.597 5.008 358.797 5.008C359.997 5.008 361.005 5.416 361.821 6.232C362.685 7 363.117 8.056 363.117 9.4C363.117 10.744 362.685 11.824 361.821 12.64C361.005 13.408 359.997 13.792 358.797 13.792Z" fill="#414652"/>
<path d="M377.08 20.56H391.264V26.176H377.08V43.456C377.08 45.328 377.224 46.888 377.512 48.136C377.8 49.336 378.232 50.296 378.808 51.016C379.384 51.688 380.104 52.168 380.968 52.456C381.832 52.744 382.84 52.888 383.992 52.888C386.008 52.888 387.616 52.672 388.816 52.24C390.064 51.76 390.928 51.424 391.408 51.232L392.704 56.776C392.032 57.112 390.856 57.52 389.176 58C387.496 58.528 385.576 58.792 383.416 58.792C380.872 58.792 378.76 58.48 377.08 57.856C375.448 57.184 374.128 56.2 373.12 54.904C372.112 53.608 371.392 52.024 370.96 50.152C370.576 48.232 370.384 46.024 370.384 43.528V10.12L377.08 8.968V20.56Z" fill="#414652"/>
<path d="M392.513 64.984C393.041 65.224 393.713 65.44 394.529 65.632C395.393 65.872 396.233 65.992 397.049 65.992C399.689 65.992 401.753 65.392 403.241 64.192C404.729 63.04 406.073 61.144 407.273 58.504C404.249 52.744 401.417 46.648 398.777 40.216C396.185 33.736 394.025 27.184 392.297 20.56H399.497C400.025 22.72 400.649 25.048 401.369 27.544C402.137 30.04 402.977 32.608 403.889 35.248C404.801 37.888 405.785 40.528 406.841 43.168C407.897 45.808 409.001 48.352 410.153 50.8C411.977 45.76 413.561 40.768 414.905 35.824C416.249 30.88 417.521 25.792 418.721 20.56H425.633C423.905 27.616 421.985 34.408 419.873 40.936C417.761 47.416 415.481 53.488 413.033 59.152C412.073 61.312 411.065 63.16 410.009 64.696C409.001 66.28 407.873 67.576 406.625 68.584C405.377 69.592 403.961 70.336 402.377 70.816C400.841 71.296 399.089 71.536 397.121 71.536C396.593 71.536 396.041 71.488 395.465 71.392C394.889 71.344 394.313 71.248 393.737 71.104C393.209 71.008 392.705 70.888 392.225 70.744C391.793 70.6 391.481 70.48 391.289 70.384L392.513 64.984Z" fill="#414652"/>
</g>
</g>
<defs>
<clipPath id="clip0_2091_56">
<rect width="426" height="72" fill="white"/>
</clipPath>
</defs>
</svg>
