<svg width="166" height="72" viewBox="0 0 166 72" fill="none" xmlns="http://www.w3.org/2000/svg">
<g id="logo / brand / brand-light / deriv-wordmark vertical-25 years-tagline-french">
<g id="logo">
<path d="M69.4092 32.9665C68.24 31.8588 66.7652 30.9481 64.9807 30.2302C63.2106 29.5184 61.0302 29.059 58.5934 28.8518L59.6723 25.531H51.2852L48.0505 35.4894C50.92 35.4894 53.6419 35.6432 55.6316 35.9509C57.6212 36.2586 59.2088 36.6893 60.3985 37.2431C61.5881 37.7969 62.4475 38.4738 62.9829 39.2717C63.5162 40.0717 63.7829 40.9639 63.7829 41.9464C63.7829 44.2848 63.0034 46.0057 61.4445 47.1133C59.8856 48.221 57.6314 48.7748 54.6798 48.7748C53.1619 48.7748 51.5846 48.5491 49.9437 48.0979C48.3028 47.6466 46.0854 46.818 44.6517 45.9565H17.5804C17.4163 46.2621 17.1579 46.8405 17.0061 47.1564C16.1036 49.0435 15.4677 51.2772 15.0985 53.8616H42.1369C42.98 54.276 44.0691 54.5406 45.0557 54.8647C46.1818 55.2339 47.3305 55.5313 48.4997 55.7569C49.6688 55.9825 50.8072 56.1569 51.9128 56.28C53.0204 56.403 54.005 56.4646 54.8644 56.4646C57.816 56.4646 60.421 56.1056 62.6752 55.3877C64.9294 54.6698 66.8165 53.6565 68.3344 52.3438C69.8502 51.031 70.9886 49.4332 71.7475 47.5461C72.5064 45.6611 72.8859 43.5689 72.8859 41.2716C72.8859 39.6717 72.5967 38.1661 72.0244 36.7508C71.4501 35.3355 70.5784 34.0761 69.4092 32.9685V32.9665Z" fill="#414652"/>
<path d="M55.0318 14.0137L52.4617 21.9188L75.7917 21.9147L78.3597 14.0137H55.0318Z" fill="#414652"/>
<path d="M48.4806 17.5046C47.9063 16.2739 47.0981 15.1971 46.052 14.2761C45.0059 13.3531 43.7773 12.6269 42.362 12.0936C40.9467 11.5603 39.4186 11.2937 37.7797 11.2937C35.1562 11.2937 32.5677 11.5768 30.1535 12.5244C26.0655 14.1284 22.9703 16.8688 22.9703 16.8688L25.9096 23.4714C27.7946 22.0356 29.5381 20.9608 31.1359 20.2429C32.7358 19.525 34.3747 19.1661 36.0567 19.1661C37.2463 19.1661 38.2186 19.525 38.9776 20.2429C39.7365 20.9608 40.1159 21.8531 40.1159 22.9176C40.1159 23.7791 39.9313 24.5996 39.5621 25.379C39.1929 26.1585 38.6083 26.9892 37.8104 27.8691C37.0105 28.7511 35.9644 29.7152 34.6742 30.7592C33.382 31.8053 31.8128 33.0463 29.9688 34.48C27.9997 35.9979 26.1762 37.4235 24.4943 38.7547C23.079 39.8767 21.5078 41.0745 20.3407 42.3422H31.6323C31.9667 42.0734 32.3031 41.8109 32.6436 41.5545C33.7307 40.734 34.8362 39.9341 35.9644 39.1567C37.0905 38.3793 38.2084 37.5568 39.316 36.6953C41.201 35.2185 42.7907 33.8873 44.0829 32.6976C45.3751 31.5079 46.4089 30.3387 47.1904 29.1921C47.9678 28.0455 48.5216 26.8538 48.8519 25.6252C49.18 24.3945 49.3441 23.0017 49.3441 21.4428C49.3441 20.0501 49.057 18.7353 48.4826 17.5067L48.4806 17.5046Z" fill="#414652"/>
<path d="M94.5577 0.443051L93.8357 4.54128H91.3271C88.9867 4.54128 86.7551 6.43655 86.3407 8.77898L86.1664 9.77584C85.7541 12.1162 87.3171 14.0135 89.6574 14.0135H91.7496C93.4562 14.0135 95.0808 12.6331 95.3802 10.9265L97.3083 0L94.5577 0.443051ZM92.7773 10.5389C92.685 11.066 92.2112 11.4947 91.684 11.4947H90.4123C89.36 11.4947 88.6565 10.6414 88.8411 9.58714L88.9498 8.96564C89.1365 7.91339 90.1395 7.05805 91.1917 7.05805H93.3906L92.7752 10.5389H92.7773ZM113.884 14.0135L115.531 4.67255H118.134L116.487 14.0135H113.88H113.884ZM114.165 4.77921C114.033 5.51968 113.902 6.26015 113.773 7.00062C112.538 6.61705 111.266 6.74012 110.875 6.81602C110.452 9.21383 110.03 11.6137 109.607 14.0135H107C107.353 12.0075 108.563 5.15252 108.563 5.15252C109.41 4.80177 111.492 4.08797 114.165 4.77716V4.77921ZM103.605 4.53922H101.579C99.6036 4.53922 97.7206 6.13913 97.3719 8.11645L96.9617 10.4384C96.613 12.4136 97.9318 14.0156 99.9071 14.0156H104.219L104.662 11.505H100.609C99.9502 11.505 99.5092 10.9717 99.6282 10.3132L99.6425 10.2333H106.178L106.551 8.11645C106.9 6.14118 105.581 4.53922 103.605 4.53922ZM103.934 7.91544L103.917 8.05082H100.032L100.053 7.93185C100.17 7.27343 100.771 6.695 101.431 6.695H102.949C103.601 6.695 104.042 7.26317 103.934 7.91749V7.91544ZM128.297 4.67255C127.409 7.03344 125.374 11.0476 123.403 14.0135H120.796C119.892 11.1911 119.307 7.25907 119.196 4.67255H121.803C121.85 5.51558 122.228 8.64771 122.659 10.8342C123.84 8.70719 125.145 5.91555 125.688 4.67255H128.297Z" fill="#FF444F"/>
<path d="M100.263 48.4691C100.118 48.1511 99.9741 47.7942 99.8285 47.4045C99.6829 47.0127 99.568 46.6005 99.4798 46.1656C98.8419 46.7461 97.9866 47.3245 96.9138 47.905C95.841 48.4855 94.5221 48.7747 92.9571 48.7747C91.6813 48.7747 90.588 48.5716 89.6732 48.1655C88.7584 47.7594 88.0138 47.1953 87.4333 46.4692C86.8528 45.7451 86.4262 44.8898 86.1513 43.9032C85.8765 42.9186 85.7391 41.8315 85.7391 40.6418C85.7391 38.6994 86.0652 36.8 86.7175 34.9458C87.3697 33.0915 88.3481 31.4383 89.6526 29.9881C90.9572 28.5379 92.594 27.3647 94.5672 26.4662C96.5384 25.5678 98.8439 25.1186 101.482 25.1186C102.265 25.1186 103.178 25.2048 104.222 25.3791C105.266 25.5535 106.165 25.8427 106.917 26.2488L103.57 39.9034C103.424 40.57 103.301 41.208 103.201 41.8172C103.098 42.4263 103.049 43.0643 103.049 43.7309C103.049 44.3975 103.106 45.0723 103.223 45.7533C103.338 46.4343 103.541 47.1666 103.832 47.9501L100.267 48.4711L100.263 48.4691ZM93.7837 45.3369C95.0021 45.3369 96.0462 45.0765 96.9138 44.5534C97.7835 44.0324 98.5363 43.4232 99.1762 42.7279C99.205 42.2356 99.2562 41.7207 99.328 41.1833C99.3998 40.648 99.4941 40.1044 99.6111 39.5527L102.22 28.7677C102.074 28.7102 101.835 28.6671 101.502 28.6364C101.168 28.6077 100.873 28.5933 100.61 28.5933C98.9568 28.5933 97.4635 28.9133 96.1302 29.5491C94.797 30.1871 93.6586 31.0342 92.7171 32.0926C91.7756 33.151 91.0495 34.3837 90.5429 35.7888C90.0362 37.1959 89.7819 38.6666 89.7819 40.2029C89.7819 40.8121 89.8393 41.4274 89.9562 42.051C90.0711 42.6745 90.2824 43.2243 90.5859 43.7042C90.8895 44.1821 91.2956 44.5739 91.8043 44.8775C92.311 45.1811 92.9715 45.3349 93.7817 45.3349L93.7837 45.3369Z" fill="#414652"/>
<path d="M112.481 48.2086H108.438L113.656 26.4662C114.99 26.0601 116.432 25.734 117.982 25.4878C119.533 25.2417 120.918 25.1186 122.136 25.1186C123.44 25.1186 124.565 25.2991 125.506 25.6622C126.447 26.0252 127.208 26.5175 127.789 27.1411C128.367 27.7646 128.796 28.5174 129.071 29.4015C129.346 30.2855 129.483 31.2496 129.483 32.2936C129.483 32.9602 129.424 33.6638 129.309 34.4022C129.192 35.1406 129.048 35.8872 128.874 36.6421L126.091 48.2086H122.048L124.614 37.5118C124.817 36.6995 125.012 35.8749 125.2 35.034C125.389 34.193 125.483 33.3971 125.483 32.6423C125.483 31.4834 125.163 30.5193 124.528 29.7502C123.89 28.983 122.702 28.5974 120.963 28.5974C120.239 28.5974 119.527 28.6405 118.831 28.7287C118.136 28.8148 117.556 28.9317 117.092 29.0774L112.483 48.2106L112.481 48.2086Z" fill="#414652"/>
<path d="M138.051 45.3819C138.66 45.3819 139.276 45.3245 139.899 45.2075C140.523 45.0927 141.072 44.904 141.552 44.6414C142.032 44.3789 142.422 44.0261 142.726 43.5769C143.029 43.1277 143.183 42.5697 143.183 41.9031C143.183 41.4683 143.111 41.0847 142.966 40.7504C142.82 40.4181 142.588 40.1063 142.27 39.815C141.95 39.5258 141.552 39.2428 141.075 38.9679C140.597 38.6931 140.024 38.3813 139.356 38.0326C138.689 37.7146 138.08 37.3947 137.53 37.0767C136.978 36.7588 136.492 36.3814 136.074 35.9465C135.653 35.5117 135.327 34.9969 135.095 34.402C134.864 33.8072 134.747 33.0913 134.747 32.2503C134.747 30.0761 135.53 28.3306 137.095 27.0096C138.66 25.6907 140.935 25.0303 143.922 25.0303C145.314 25.0303 146.537 25.1677 147.595 25.4425C148.654 25.7174 149.384 25.9717 149.792 26.2035L148.27 29.5079C147.864 29.2762 147.212 29.03 146.313 28.7695C145.415 28.509 144.414 28.3778 143.312 28.3778C142.761 28.3778 142.211 28.4352 141.659 28.5521C141.107 28.669 140.609 28.8639 140.16 29.1387C139.71 29.4136 139.347 29.7766 139.073 30.2259C138.796 30.6751 138.66 31.2186 138.66 31.8565C138.66 32.6401 138.964 33.2841 139.573 33.7908C140.182 34.2974 141.095 34.8287 142.313 35.3784C143.066 35.7271 143.741 36.0819 144.336 36.4429C144.931 36.806 145.437 37.2121 145.858 37.6613C146.278 38.1105 146.598 38.6397 146.814 39.2489C147.031 39.8581 147.14 40.5822 147.14 41.4231C147.14 42.6415 146.908 43.7143 146.445 44.6414C145.981 45.5686 145.335 46.3377 144.51 46.9469C143.684 47.5561 142.705 48.0115 141.575 48.3171C140.445 48.6207 139.212 48.7745 137.879 48.7745C136.892 48.7745 136.002 48.7089 135.204 48.5797C134.406 48.4484 133.711 48.2966 133.116 48.1223C132.521 47.9479 132.029 47.7674 131.637 47.5787C131.245 47.39 130.948 47.2382 130.745 47.1213L132.31 43.8169C132.513 43.9338 132.796 44.0774 133.157 44.2517C133.52 44.4261 133.953 44.6004 134.462 44.7727C134.968 44.9471 135.528 45.0927 136.135 45.2075C136.745 45.3245 137.382 45.3819 138.049 45.3819H138.051Z" fill="#414652"/>
<path d="M3.93498 71.9979C3.36681 71.9979 2.84785 71.9036 2.38018 71.7169C1.91252 71.5303 1.51051 71.2574 1.17617 70.8985C0.841834 70.5395 0.581329 70.0985 0.398775 69.5714C0.216222 69.0463 0.123901 68.4432 0.123901 67.7643C0.123901 67.0854 0.226461 66.4844 0.433629 65.9572C0.640796 65.4321 0.919771 64.9891 1.27052 64.6301C1.62127 64.2712 2.0315 63.9984 2.49916 63.8117C2.96683 63.6251 3.46527 63.5307 3.99652 63.5307C4.33086 63.5307 4.63442 63.5533 4.90312 63.6004C5.17182 63.6476 5.40564 63.701 5.6046 63.7645C5.80357 63.8261 5.96563 63.8897 6.09075 63.9512C6.21587 64.0127 6.30202 64.0599 6.34715 64.0907L6.01894 65.026C5.9492 64.9788 5.84665 64.9296 5.71537 64.8742C5.58205 64.8188 5.43233 64.7655 5.26618 64.7101C5.09799 64.6547 4.91545 64.6117 4.71648 64.5748C4.51752 64.5399 4.31647 64.5214 4.1134 64.5214C3.68471 64.5214 3.29911 64.5953 2.95657 64.7429C2.61403 64.8906 2.32071 65.106 2.08072 65.385C1.83868 65.666 1.65409 66.0065 1.52486 66.4085C1.39564 66.8105 1.33206 67.2597 1.33206 67.7582C1.33206 68.2566 1.38946 68.6812 1.50228 69.0791C1.61509 69.477 1.78533 69.8175 2.01096 70.1026C2.23659 70.3877 2.51968 70.6072 2.85812 70.7631C3.19656 70.919 3.59244 70.9969 4.04575 70.9969C4.5688 70.9969 4.99951 70.9416 5.3441 70.8328C5.68665 70.7241 5.94509 70.6257 6.11534 70.5416L6.40664 71.4769C6.35126 71.5159 6.25482 71.5651 6.11534 71.6225C5.97586 71.682 5.7995 71.7374 5.58823 71.7928C5.37696 71.8482 5.13285 71.8933 4.85184 71.9323C4.57083 71.9712 4.26727 71.9918 3.93909 71.9918L3.93498 71.9979Z" fill="#414652"/>
<path d="M12.8246 68.7816C12.8246 69.2657 12.7548 69.7006 12.6133 70.0903C12.4738 70.48 12.2769 70.8143 12.0225 71.0954C11.7682 71.3764 11.4667 71.5917 11.116 71.7435C10.7652 71.8953 10.3837 71.9712 9.96933 71.9712C9.555 71.9712 9.17351 71.8953 8.82276 71.7435C8.47202 71.5917 8.17046 71.3743 7.91612 71.0954C7.66177 70.8143 7.46694 70.48 7.32541 70.0903C7.18593 69.7006 7.11413 69.2637 7.11413 68.7816C7.11413 68.2996 7.18388 67.8709 7.32541 67.4771C7.46488 67.0833 7.66177 66.7469 7.91612 66.4659C8.16841 66.1849 8.47202 65.9695 8.82276 65.8177C9.17351 65.6659 9.555 65.59 9.96933 65.59C10.3837 65.59 10.7652 65.6659 11.116 65.8177C11.4667 65.9695 11.7682 66.1869 12.0225 66.4659C12.2748 66.7469 12.4738 67.0833 12.6133 67.4771C12.7528 67.8709 12.8246 68.3058 12.8246 68.7816ZM11.6903 68.7816C11.6903 68.0966 11.5365 67.553 11.2288 67.151C10.9211 66.7489 10.5026 66.5479 9.97139 66.5479C9.44013 66.5479 9.02172 66.7489 8.71405 67.151C8.40637 67.553 8.25254 68.0966 8.25254 68.7816C8.25254 69.4667 8.40637 70.0103 8.71405 70.4123C9.02172 70.8143 9.44013 71.0154 9.97139 71.0154C10.5026 71.0154 10.9211 70.8143 11.2288 70.4123C11.5365 70.0103 11.6903 69.4667 11.6903 68.7816Z" fill="#414652"/>
<path d="M14.3545 65.9183C14.6047 65.8567 14.9349 65.789 15.3472 65.7193C15.7595 65.6496 16.2354 65.6147 16.7728 65.6147C17.2569 65.6147 17.6568 65.6824 17.9768 65.8198C18.2968 65.9572 18.5511 66.148 18.7419 66.3921C18.9326 66.6382 19.068 66.9315 19.1459 67.2741C19.2239 67.6166 19.2629 67.9961 19.2629 68.4084V71.8215H18.1758V68.6422C18.1758 68.2689 18.1512 67.9489 18.0999 67.6843C18.0486 67.4197 17.9645 67.2043 17.8476 67.0423C17.7307 66.8782 17.5748 66.7592 17.3799 66.6854C17.1851 66.6115 16.943 66.5746 16.6559 66.5746C16.5389 66.5746 16.4179 66.5787 16.2928 66.5869C16.1677 66.5951 16.0487 66.6054 15.9359 66.6157C15.8231 66.6259 15.7205 66.6403 15.6323 66.6567C15.5421 66.6731 15.4785 66.6833 15.4395 66.6915V71.8236H14.3524V65.9183H14.3545Z" fill="#414652"/>
<path d="M23.4385 62.7492C23.7113 62.7492 23.9451 62.7676 24.14 62.8025C24.3348 62.8374 24.4743 62.8702 24.5605 62.901L24.4087 63.8363C24.3225 63.8055 24.2056 63.7727 24.0579 63.7378C23.9102 63.703 23.7297 63.6845 23.5205 63.6845C23.0139 63.6845 22.659 63.8219 22.456 64.0988C22.2529 64.3757 22.1524 64.747 22.1524 65.2147V65.7398H24.4907V66.6525H22.1524V71.8194H21.0653V65.1901C21.0653 64.4106 21.2561 63.8096 21.6376 63.383C22.0191 62.9584 22.6201 62.7451 23.4385 62.7451V62.7492ZM26.1624 64.6444C25.9675 64.6444 25.8014 64.5809 25.666 64.4516C25.5307 64.3224 25.4609 64.1501 25.4609 63.9306C25.4609 63.7112 25.5286 63.5389 25.666 63.4096C25.8035 63.2804 25.9675 63.2168 26.1624 63.2168C26.3573 63.2168 26.5234 63.2804 26.6588 63.4096C26.7942 63.5389 26.8639 63.7112 26.8639 63.9306C26.8639 64.1501 26.7962 64.3224 26.6588 64.4516C26.5214 64.5809 26.3573 64.6444 26.1624 64.6444ZM26.7121 71.8215H25.625V65.7418H26.7121V71.8215Z" fill="#414652"/>
<path d="M30.5488 65.59C30.9857 65.59 31.3529 65.6475 31.6544 65.7603C31.9538 65.8731 32.1959 66.0331 32.3784 66.2403C32.561 66.4474 32.6923 66.6915 32.7702 66.9766C32.8482 67.2617 32.8871 67.5756 32.8871 67.9181V71.7169C32.7928 71.7333 32.6636 71.7538 32.4954 71.7804C32.3272 71.8071 32.1385 71.8338 31.9292 71.8563C31.718 71.8789 31.4903 71.9015 31.2462 71.9199C31.0001 71.9384 30.7581 71.9486 30.516 71.9486C30.1735 71.9486 29.8576 71.9138 29.5684 71.844C29.2791 71.7743 29.031 71.6635 28.8197 71.5117C28.6084 71.36 28.4464 71.1589 28.3294 70.9087C28.2125 70.6585 28.1551 70.359 28.1551 70.0082C28.1551 69.6575 28.2228 69.3847 28.3602 69.1426C28.4977 68.9006 28.6823 68.7057 28.9161 68.5581C29.1499 68.4104 29.4227 68.3017 29.7345 68.2299C30.0463 68.1601 30.3745 68.1253 30.717 68.1253C30.8257 68.1253 30.9385 68.1314 31.0555 68.1437C31.1724 68.156 31.2832 68.1704 31.3878 68.1909C31.4924 68.2114 31.5846 68.2278 31.6626 68.2442C31.7405 68.2606 31.7959 68.2709 31.8267 68.2791V67.9755C31.8267 67.7971 31.8082 67.6186 31.7693 67.4443C31.7303 67.2699 31.6605 67.114 31.558 66.9766C31.4575 66.8412 31.318 66.7305 31.1436 66.6484C30.9672 66.5664 30.7396 66.5254 30.4606 66.5254C30.1017 66.5254 29.7878 66.55 29.5191 66.6013C29.2504 66.6525 29.0494 66.7038 28.9161 66.7592L28.7869 65.8587C28.9263 65.7972 29.1602 65.7357 29.4884 65.6782C29.8166 65.6208 30.1694 65.59 30.5529 65.59H30.5488ZM30.6411 71.04C30.8975 71.04 31.1273 71.0338 31.3242 71.0215C31.5231 71.0092 31.6893 70.9887 31.8205 70.9579V69.1447C31.7426 69.1057 31.6154 69.0729 31.4411 69.0462C31.2667 69.0196 31.0534 69.0052 30.8032 69.0052C30.6391 69.0052 30.4668 69.0175 30.2822 69.0401C30.0996 69.0626 29.9314 69.1119 29.7796 69.1857C29.6278 69.2596 29.5007 69.3601 29.4001 69.4893C29.2996 69.6185 29.2484 69.7867 29.2484 69.998C29.2484 70.3877 29.3735 70.6585 29.6217 70.8102C29.8719 70.962 30.2104 71.0379 30.6391 71.0379L30.6411 71.04Z" fill="#414652"/>
<path d="M34.6844 65.9183C34.9347 65.8567 35.2649 65.789 35.6793 65.7193C36.0915 65.6496 36.5674 65.6147 37.1048 65.6147C37.5889 65.6147 37.9889 65.6824 38.3089 65.8198C38.6288 65.9572 38.8832 66.148 39.0739 66.3921C39.2647 66.6382 39.4001 66.9315 39.478 67.2741C39.556 67.6166 39.5949 67.9961 39.5949 68.4084V71.8215H38.5078V68.6422C38.5078 68.2689 38.4832 67.9489 38.4319 67.6843C38.3806 67.4197 38.2965 67.2043 38.1796 67.0423C38.0627 66.8782 37.9068 66.7592 37.7119 66.6854C37.5171 66.6115 37.275 66.5746 36.9879 66.5746C36.871 66.5746 36.7499 66.5787 36.6248 66.5869C36.4997 66.5951 36.3807 66.6054 36.2679 66.6157C36.1551 66.6259 36.0546 66.6403 35.9643 66.6567C35.8741 66.6731 35.8105 66.6833 35.7715 66.6915V71.8236H34.6844V65.9183Z" fill="#414652"/>
<path d="M44.0378 71.9629C43.5476 71.9629 43.1168 71.885 42.7456 71.7291C42.3743 71.5732 42.0625 71.3558 41.8102 71.0747C41.5559 70.7937 41.3672 70.4614 41.2441 70.0758C41.119 69.6902 41.0575 69.2636 41.0575 68.7959C41.0575 68.3282 41.1251 67.8995 41.2626 67.5098C41.4 67.1201 41.5928 66.7837 41.841 66.4986C42.0913 66.2135 42.3969 65.992 42.7579 65.832C43.1209 65.672 43.5229 65.592 43.968 65.592C44.2409 65.592 44.5137 65.6145 44.7865 65.6617C45.0593 65.7089 45.3198 65.7827 45.57 65.8833L45.3239 66.8063C45.1598 66.7283 44.9711 66.6668 44.7578 66.6196C44.5444 66.5724 44.3147 66.5499 44.0747 66.5499C43.4676 66.5499 42.9999 66.7406 42.6779 67.1222C42.3538 67.5037 42.1918 68.0616 42.1918 68.7939C42.1918 69.122 42.2287 69.4215 42.3025 69.6943C42.3764 69.9671 42.4933 70.201 42.6533 70.3958C42.8133 70.5907 43.0184 70.7404 43.2666 70.845C43.5168 70.9496 43.8204 71.003 44.1793 71.003C44.4685 71.003 44.729 70.9763 44.9629 70.9209C45.1967 70.8655 45.3793 70.8081 45.5126 70.7466L45.6644 71.6593C45.6028 71.6983 45.5126 71.7352 45.3957 71.7701C45.2787 71.805 45.1454 71.8357 44.9977 71.8644C44.8501 71.8911 44.6921 71.9157 44.5239 71.9342C44.3557 71.9527 44.1937 71.9629 44.0378 71.9629Z" fill="#414652"/>
<path d="M46.495 68.794C46.495 68.2565 46.5729 67.7868 46.7288 67.3848C46.8847 66.9828 47.0918 66.6505 47.3482 66.3859C47.6046 66.1213 47.9021 65.9223 48.2364 65.789C48.5707 65.6557 48.9153 65.59 49.2661 65.59C50.0845 65.59 50.7121 65.8464 51.149 66.3551C51.5859 66.8659 51.8033 67.6432 51.8033 68.6873V68.8678C51.8033 68.9416 51.7993 69.0093 51.7911 69.0729H47.6293C47.6764 69.7047 47.859 70.1846 48.179 70.5108C48.4989 70.839 48.9974 71.001 49.6763 71.001C50.0578 71.001 50.3799 70.9682 50.6403 70.9026C50.9008 70.8369 51.0978 70.7713 51.2311 70.7097L51.3829 71.6225C51.2496 71.6922 51.0178 71.7661 50.6875 71.844C50.3552 71.922 49.9799 71.9609 49.5594 71.9609C49.0302 71.9609 48.5707 71.881 48.1851 71.721C47.7995 71.561 47.4816 71.3415 47.2313 71.0605C46.9811 70.7795 46.7965 70.4472 46.6754 70.0616C46.5544 69.676 46.495 69.2534 46.495 68.794ZM50.667 68.1971C50.6752 67.7068 50.5522 67.3028 50.2999 66.9869C50.0455 66.671 49.6968 66.5131 49.2538 66.5131C49.0035 66.5131 48.7841 66.5623 48.5933 66.6587C48.4025 66.7572 48.2405 66.8823 48.1071 67.0382C47.9738 67.194 47.8713 67.3725 47.7975 67.5756C47.7236 67.7786 47.6744 67.9858 47.6518 68.195H50.6691L50.667 68.1971Z" fill="#414652"/>
<path d="M58.7355 67.6947C58.7355 67.8978 58.7006 68.0885 58.6309 68.267C58.5612 68.4454 58.4607 68.6013 58.3335 68.7346C58.2043 68.868 58.0484 68.9746 57.8658 69.0567C57.6833 69.1387 57.474 69.1797 57.2402 69.1797C57.0064 69.1797 56.7972 69.1387 56.6146 69.0567C56.4321 68.9746 56.2762 68.868 56.147 68.7346C56.0177 68.6013 55.9193 68.4454 55.8496 68.267C55.7798 68.0885 55.7449 67.8978 55.7449 67.6947C55.7449 67.4916 55.7798 67.3111 55.8496 67.1286C55.9193 66.946 56.0198 66.7881 56.147 66.6548C56.2762 66.5214 56.4321 66.4148 56.6146 66.3327C56.7972 66.2507 57.0064 66.2097 57.2402 66.2097C57.474 66.2097 57.6833 66.2507 57.8658 66.3327C58.0484 66.4148 58.2043 66.5214 58.3335 66.6548C58.4627 66.7881 58.5612 66.946 58.6309 67.1286C58.7006 67.3111 58.7355 67.5019 58.7355 67.6947Z" fill="#414652"/>
<path d="M63.0516 63.7194H64.1859V71.8215H63.0516V63.7194Z" fill="#414652"/>
<path d="M66.1258 65.9183C66.376 65.8567 66.7063 65.789 67.1206 65.7193C67.5329 65.6496 68.0088 65.6147 68.5462 65.6147C69.0303 65.6147 69.4302 65.6824 69.7502 65.8198C70.0702 65.9572 70.3246 66.148 70.5153 66.3921C70.7061 66.6382 70.8414 66.9315 70.9194 67.2741C70.9973 67.6166 71.0363 67.9961 71.0363 68.4084V71.8215H69.9492V68.6422C69.9492 68.2689 69.9246 67.9489 69.8733 67.6843C69.822 67.4197 69.7379 67.2043 69.621 67.0423C69.5041 66.8782 69.3482 66.7592 69.1533 66.6854C68.9585 66.6115 68.7164 66.5746 68.4292 66.5746C68.3123 66.5746 68.1913 66.5787 68.0662 66.5869C67.9411 66.5951 67.8221 66.6054 67.7093 66.6157C67.5965 66.6259 67.496 66.6403 67.4057 66.6567C67.3155 66.6731 67.2519 66.6833 67.2129 66.6915V71.8236H66.1258V65.9183Z" fill="#414652"/>
<path d="M72.8367 65.9183C73.087 65.8567 73.4172 65.789 73.8316 65.7193C74.2438 65.6496 74.7197 65.6147 75.2571 65.6147C75.7412 65.6147 76.1412 65.6824 76.4612 65.8198C76.7812 65.9572 77.0355 66.148 77.2263 66.3921C77.417 66.6382 77.5524 66.9315 77.6303 67.2741C77.7083 67.6166 77.7472 67.9961 77.7472 68.4084V71.8215H76.6601V68.6422C76.6601 68.2689 76.6355 67.9489 76.5842 67.6843C76.5329 67.4197 76.4488 67.2043 76.3319 67.0423C76.215 66.8782 76.0591 66.7592 75.8642 66.6854C75.6694 66.6115 75.4273 66.5746 75.1402 66.5746C75.0233 66.5746 74.9022 66.5787 74.7771 66.5869C74.652 66.5951 74.533 66.6054 74.4202 66.6157C74.3074 66.6259 74.2069 66.6403 74.1167 66.6567C74.0264 66.6731 73.9628 66.6833 73.9239 66.6915V71.8236H72.8367V65.9183Z" fill="#414652"/>
<path d="M84.9144 68.7816C84.9144 69.2657 84.8446 69.7006 84.7031 70.0903C84.5636 70.48 84.3667 70.8143 84.1123 71.0954C83.858 71.3764 83.5565 71.5917 83.2057 71.7435C82.855 71.8953 82.4735 71.9712 82.0591 71.9712C81.6448 71.9712 81.2633 71.8953 80.9125 71.7435C80.5618 71.5917 80.2602 71.3743 80.0059 71.0954C79.7516 70.8143 79.5567 70.48 79.4152 70.0903C79.2757 69.7006 79.2039 69.2637 79.2039 68.7816C79.2039 68.2996 79.2737 67.8709 79.4152 67.4771C79.5547 67.0833 79.7516 66.7469 80.0059 66.4659C80.2582 66.1849 80.5618 65.9695 80.9125 65.8177C81.2633 65.6659 81.6448 65.59 82.0591 65.59C82.4735 65.59 82.855 65.6659 83.2057 65.8177C83.5565 65.9695 83.858 66.1869 84.1123 66.4659C84.3646 66.7469 84.5616 67.0833 84.7031 67.4771C84.8426 67.8709 84.9144 68.3058 84.9144 68.7816ZM83.7801 68.7816C83.7801 68.0966 83.6262 67.553 83.3186 67.151C83.0109 66.7489 82.5924 66.5479 82.0612 66.5479C81.5299 66.5479 81.1115 66.7489 80.8038 67.151C80.4962 67.553 80.3423 68.0966 80.3423 68.7816C80.3423 69.4667 80.4962 70.0103 80.8038 70.4123C81.1115 70.8143 81.5299 71.0154 82.0612 71.0154C82.5924 71.0154 83.0088 70.8143 83.3186 70.4123C83.6262 70.0103 83.7801 69.4667 83.7801 68.7816Z" fill="#414652"/>
<path d="M91.0292 65.7419C90.7256 66.8803 90.3687 67.9715 89.9585 69.0155C89.5483 70.0596 89.1545 70.9949 88.7709 71.8215H87.7884C87.4069 70.9949 87.011 70.0596 86.6008 69.0155C86.1905 67.9715 85.8357 66.8803 85.5301 65.7419H86.6992C86.7936 66.1234 86.9043 66.5316 87.0315 66.9644C87.1587 67.3972 87.2961 67.8259 87.4417 68.2505C87.5853 68.675 87.733 69.0873 87.8807 69.4832C88.0284 69.8811 88.1699 70.236 88.3012 70.5478C88.4345 70.236 88.574 69.8811 88.7217 69.4832C88.8693 69.0853 89.015 68.675 89.1606 68.2505C89.3042 67.8259 89.4416 67.3972 89.5709 66.9644C89.7001 66.5316 89.8108 66.1255 89.9031 65.7419H91.0292Z" fill="#414652"/>
<path d="M94.1152 65.59C94.5521 65.59 94.9193 65.6475 95.2208 65.7603C95.5202 65.8731 95.7623 66.0331 95.9448 66.2403C96.1274 66.4474 96.2587 66.6915 96.3366 66.9766C96.4145 67.2617 96.4535 67.5756 96.4535 67.9181V71.7169C96.3592 71.7333 96.2299 71.7538 96.0617 71.7804C95.8935 71.8071 95.7048 71.8338 95.4956 71.8563C95.2843 71.8789 95.0567 71.9015 94.8126 71.9199C94.5665 71.9384 94.3244 71.9486 94.0824 71.9486C93.7398 71.9486 93.4239 71.9138 93.1347 71.844C92.8455 71.7743 92.5973 71.6635 92.3861 71.5117C92.1748 71.36 92.0128 71.1589 91.8958 70.9087C91.7789 70.6585 91.7215 70.359 91.7215 70.0082C91.7215 69.6575 91.7892 69.3847 91.9266 69.1426C92.064 68.9006 92.2486 68.7057 92.4825 68.5581C92.7163 68.4104 92.9891 68.3017 93.3009 68.2299C93.6126 68.1601 93.9408 68.1253 94.2834 68.1253C94.3921 68.1253 94.5049 68.1314 94.6218 68.1437C94.7387 68.156 94.8495 68.1704 94.9541 68.1909C95.0587 68.2114 95.1511 68.2278 95.229 68.2442C95.3069 68.2606 95.3623 68.2709 95.393 68.2791V67.9755C95.393 67.7971 95.3746 67.6186 95.3356 67.4443C95.2966 67.2699 95.2269 67.114 95.1244 66.9766C95.0239 66.8412 94.8844 66.7305 94.71 66.6484C94.5336 66.5664 94.3059 66.5254 94.027 66.5254C93.668 66.5254 93.3542 66.55 93.0855 66.6013C92.8168 66.6525 92.6158 66.7038 92.4825 66.7592L92.3533 65.8587C92.4927 65.7972 92.7266 65.7357 93.0547 65.6782C93.3829 65.6208 93.7357 65.59 94.1193 65.59H94.1152ZM94.2075 71.04C94.4639 71.04 94.6936 71.0338 94.8905 71.0215C95.0895 71.0092 95.2556 70.9887 95.3869 70.9579V69.1447C95.3089 69.1057 95.1818 69.0729 95.0074 69.0462C94.8331 69.0196 94.6198 69.0052 94.3695 69.0052C94.2054 69.0052 94.0331 69.0175 93.8485 69.0401C93.666 69.0626 93.4978 69.1119 93.346 69.1857C93.1942 69.2596 93.0671 69.3601 92.9666 69.4893C92.866 69.6185 92.8148 69.7867 92.8148 69.998C92.8148 70.3877 92.9398 70.6585 93.188 70.8102C93.4383 70.962 93.7768 71.0379 94.2055 71.0379L94.2075 71.04Z" fill="#414652"/>
<path d="M99.2694 65.7419H101.573V66.6547H99.2694V69.4607C99.2694 69.7643 99.292 70.0166 99.3391 70.2155C99.3863 70.4145 99.4561 70.5704 99.5504 70.6832C99.6448 70.796 99.7617 70.876 99.9012 70.9232C100.041 70.9704 100.205 70.9929 100.391 70.9929C100.72 70.9929 100.982 70.956 101.181 70.8822C101.38 70.8083 101.517 70.755 101.595 70.7242L101.807 71.6247C101.698 71.6801 101.507 71.7478 101.234 71.8298C100.962 71.9119 100.65 71.9529 100.299 71.9529C99.8868 71.9529 99.5443 71.8995 99.2756 71.7949C99.0069 71.6903 98.7894 71.5324 98.6274 71.3211C98.4633 71.1098 98.3485 70.8514 98.2828 70.5437C98.2172 70.236 98.1844 69.8791 98.1844 69.473V64.0477L99.2715 63.861V65.744L99.2694 65.7419Z" fill="#414652"/>
<path d="M103.491 64.6444C103.296 64.6444 103.13 64.5808 102.995 64.4515C102.858 64.3223 102.79 64.15 102.79 63.9305C102.79 63.7111 102.858 63.5388 102.995 63.4096C103.13 63.2803 103.296 63.2167 103.491 63.2167C103.686 63.2167 103.852 63.2803 103.988 63.4096C104.123 63.5388 104.193 63.7111 104.193 63.9305C104.193 64.15 104.125 64.3223 103.988 64.4515C103.85 64.5808 103.686 64.6444 103.491 64.6444ZM104.041 71.8214H102.954V65.7417H104.041V71.8214Z" fill="#414652"/>
<path d="M111.278 68.7816C111.278 69.2657 111.208 69.7006 111.066 70.0903C110.927 70.48 110.73 70.8143 110.476 71.0954C110.221 71.3764 109.92 71.5917 109.569 71.7435C109.218 71.8953 108.837 71.9712 108.422 71.9712C108.008 71.9712 107.627 71.8953 107.276 71.7435C106.925 71.5917 106.623 71.3743 106.369 71.0954C106.115 70.8143 105.92 70.48 105.778 70.0903C105.639 69.7006 105.567 69.2637 105.567 68.7816C105.567 68.2996 105.637 67.8709 105.778 67.4771C105.918 67.0833 106.115 66.7469 106.369 66.4659C106.621 66.1849 106.925 65.9695 107.276 65.8177C107.627 65.6659 108.008 65.59 108.422 65.59C108.837 65.59 109.218 65.6659 109.569 65.8177C109.92 65.9695 110.221 66.1869 110.476 66.4659C110.728 66.7469 110.925 67.0833 111.066 67.4771C111.206 67.8709 111.278 68.3058 111.278 68.7816ZM110.143 68.7816C110.143 68.0966 109.989 67.553 109.682 67.151C109.374 66.7489 108.956 66.5479 108.424 66.5479C107.893 66.5479 107.475 66.7489 107.167 67.151C106.859 67.553 106.706 68.0966 106.706 68.7816C106.706 69.4667 106.859 70.0103 107.167 70.4123C107.475 70.8143 107.893 71.0154 108.424 71.0154C108.956 71.0154 109.372 70.8143 109.682 70.4123C109.989 70.0103 110.143 69.4667 110.143 68.7816Z" fill="#414652"/>
<path d="M112.809 65.9183C113.06 65.8567 113.39 65.789 113.804 65.7193C114.216 65.6496 114.692 65.6147 115.23 65.6147C115.714 65.6147 116.114 65.6824 116.434 65.8198C116.754 65.9572 117.008 66.148 117.199 66.3921C117.39 66.6382 117.525 66.9315 117.603 67.2741C117.681 67.6166 117.72 67.9961 117.72 68.4084V71.8215H116.633V68.6422C116.633 68.2689 116.608 67.9489 116.557 67.6843C116.506 67.4197 116.421 67.2043 116.305 67.0423C116.188 66.8782 116.032 66.7592 115.837 66.6854C115.642 66.6115 115.4 66.5746 115.113 66.5746C114.996 66.5746 114.875 66.5787 114.75 66.5869C114.625 66.5951 114.506 66.6054 114.393 66.6157C114.28 66.6259 114.18 66.6403 114.089 66.6567C113.999 66.6731 113.935 66.6833 113.896 66.6915V71.8236H112.809V65.9183Z" fill="#414652"/>
<path d="M124.886 67.6947C124.886 67.8978 124.851 68.0885 124.781 68.267C124.711 68.4454 124.611 68.6013 124.484 68.7346C124.355 68.868 124.199 68.9746 124.016 69.0567C123.834 69.1387 123.624 69.1797 123.391 69.1797C123.157 69.1797 122.948 69.1387 122.765 69.0567C122.582 68.9746 122.427 68.868 122.297 68.7346C122.168 68.6013 122.07 68.4454 122 68.267C121.93 68.0885 121.895 67.8978 121.895 67.6947C121.895 67.4916 121.93 67.3111 122 67.1286C122.07 66.946 122.17 66.7881 122.297 66.6548C122.427 66.5214 122.582 66.4148 122.765 66.3327C122.948 66.2507 123.157 66.2097 123.391 66.2097C123.624 66.2097 123.834 66.2507 124.016 66.3327C124.199 66.4148 124.355 66.5214 124.484 66.6548C124.613 66.7881 124.711 66.946 124.781 67.1286C124.851 67.3111 124.886 67.5019 124.886 67.6947Z" fill="#414652"/>
<path d="M131.083 71.0155C132.269 71.0155 132.859 70.6093 132.859 69.7991C132.859 69.5489 132.806 69.3376 132.702 69.1612C132.597 68.9848 132.453 68.833 132.275 68.7058C132.096 68.5787 131.891 68.4659 131.662 68.3736C131.432 68.2792 131.188 68.1869 130.931 68.0925C130.636 67.992 130.355 67.8772 130.09 67.748C129.826 67.6187 129.596 67.4669 129.401 67.2926C129.206 67.1182 129.052 66.909 128.94 66.667C128.827 66.4249 128.769 66.1337 128.769 65.7911C128.769 65.0814 129.011 64.5276 129.493 64.1318C129.978 63.7338 130.642 63.5349 131.493 63.5349C131.984 63.5349 132.431 63.5882 132.833 63.6928C133.235 63.7974 133.528 63.9123 133.715 64.0374L133.352 64.9604C133.188 64.8599 132.944 64.7594 132.622 64.663C132.297 64.5666 131.922 64.5174 131.493 64.5174C131.276 64.5174 131.073 64.5399 130.886 64.5871C130.7 64.6343 130.536 64.704 130.396 64.7984C130.257 64.8927 130.144 65.0117 130.064 65.1553C129.982 65.2989 129.941 65.4691 129.941 65.664C129.941 65.8814 129.984 66.066 130.07 66.2137C130.156 66.3614 130.277 66.4926 130.433 66.6055C130.589 66.7183 130.769 66.8208 130.976 66.9152C131.184 67.0095 131.411 67.1018 131.66 67.1962C132.01 67.3357 132.332 67.4772 132.624 67.6167C132.915 67.7562 133.169 67.9244 133.385 68.1192C133.598 68.3141 133.764 68.5458 133.881 68.8145C133.998 69.0832 134.055 69.4094 134.055 69.7909C134.055 70.5006 133.797 71.0462 133.278 71.4277C132.759 71.8093 132.029 72 131.085 72C130.765 72 130.472 71.9795 130.203 71.9364C129.935 71.8933 129.695 71.8421 129.483 71.7846C129.272 71.7272 129.091 71.6636 128.94 71.598C128.788 71.5323 128.669 71.4749 128.583 71.4277L128.921 70.4924C129.1 70.5929 129.373 70.7078 129.74 70.8308C130.107 70.956 130.554 71.0175 131.083 71.0175V71.0155Z" fill="#414652"/>
<path d="M135.012 68.794C135.012 68.2565 135.09 67.7868 135.246 67.3848C135.402 66.9828 135.609 66.6505 135.866 66.3859C136.122 66.1213 136.42 65.9223 136.754 65.789C137.088 65.6557 137.433 65.59 137.784 65.59C138.602 65.59 139.23 65.8464 139.667 66.3551C140.103 66.8659 140.321 67.6432 140.321 68.6873V68.8678C140.321 68.9416 140.317 69.0093 140.309 69.0729H136.147C136.194 69.7047 136.376 70.1846 136.696 70.5108C137.016 70.839 137.515 71.001 138.194 71.001C138.575 71.001 138.897 70.9682 139.158 70.9026C139.418 70.8369 139.615 70.7713 139.749 70.7097L139.9 71.6225C139.767 71.6922 139.535 71.7661 139.205 71.844C138.873 71.922 138.497 71.9609 138.077 71.9609C137.548 71.9609 137.088 71.881 136.703 71.721C136.317 71.561 135.999 71.3415 135.749 71.0605C135.499 70.7795 135.314 70.4472 135.193 70.0616C135.072 69.676 135.012 69.2534 135.012 68.794ZM139.187 68.1971C139.195 67.7068 139.072 67.3028 138.819 66.9869C138.565 66.671 138.216 66.5131 137.773 66.5131C137.523 66.5131 137.304 66.5623 137.113 66.6587C136.922 66.7572 136.76 66.8823 136.627 67.0382C136.493 67.194 136.391 67.3725 136.317 67.5756C136.243 67.7786 136.194 67.9858 136.171 68.195H139.189L139.187 68.1971Z" fill="#414652"/>
<path d="M144.131 65.6147C144.226 65.6147 144.332 65.6208 144.453 65.6332C144.574 65.6455 144.693 65.6598 144.81 65.6803C144.927 65.7008 145.034 65.7193 145.132 65.7398C145.229 65.7603 145.303 65.7767 145.348 65.7931L145.161 66.7408C145.075 66.71 144.933 66.6731 144.734 66.63C144.535 66.5869 144.281 66.5664 143.969 66.5664C143.766 66.5664 143.565 66.5869 143.366 66.63C143.167 66.6731 143.036 66.7018 142.975 66.7182V71.8277H141.887V66.0044C142.144 65.9101 142.464 65.8239 142.845 65.7419C143.227 65.6598 143.656 65.6188 144.131 65.6188V65.6147Z" fill="#414652"/>
<path d="M151.392 65.7419C151.089 66.8803 150.732 67.9715 150.322 69.0155C149.912 70.0596 149.518 70.9949 149.134 71.8215H148.152C147.77 70.9949 147.374 70.0596 146.964 69.0155C146.554 67.9715 146.199 66.8803 145.893 65.7419H147.062C147.157 66.1234 147.268 66.5316 147.395 66.9644C147.522 67.3972 147.659 67.8259 147.805 68.2505C147.949 68.675 148.096 69.0873 148.244 69.4832C148.392 69.8811 148.533 70.236 148.664 70.5478C148.798 70.236 148.937 69.8811 149.085 69.4832C149.233 69.0853 149.378 68.675 149.524 68.2505C149.667 67.8259 149.805 67.3972 149.934 66.9644C150.063 66.5316 150.174 66.1255 150.266 65.7419H151.392Z" fill="#414652"/>
<path d="M153.052 64.6444C152.857 64.6444 152.691 64.5808 152.555 64.4515C152.418 64.3223 152.35 64.15 152.35 63.9305C152.35 63.7111 152.418 63.5388 152.555 63.4096C152.691 63.2803 152.857 63.2167 153.052 63.2167C153.247 63.2167 153.413 63.2803 153.548 63.4096C153.684 63.5388 153.753 63.7111 153.753 63.9305C153.753 64.15 153.686 64.3223 153.548 64.4515C153.411 64.5808 153.247 64.6444 153.052 64.6444ZM153.602 71.8214H152.514V65.7417H153.602V71.8214Z" fill="#414652"/>
<path d="M158.114 71.9629C157.624 71.9629 157.193 71.885 156.822 71.7291C156.45 71.5732 156.139 71.3558 155.886 71.0747C155.632 70.7937 155.443 70.4614 155.32 70.0758C155.195 69.6902 155.134 69.2636 155.134 68.7959C155.134 68.3282 155.201 67.8995 155.339 67.5098C155.476 67.1201 155.669 66.7837 155.917 66.4986C156.167 66.2135 156.473 65.992 156.834 65.832C157.197 65.672 157.599 65.592 158.044 65.592C158.317 65.592 158.59 65.6145 158.863 65.6617C159.135 65.7089 159.396 65.7827 159.646 65.8833L159.4 66.8063C159.236 66.7283 159.047 66.6668 158.834 66.6196C158.621 66.5724 158.391 66.5499 158.151 66.5499C157.544 66.5499 157.076 66.7406 156.754 67.1222C156.43 67.5037 156.268 68.0616 156.268 68.7939C156.268 69.122 156.305 69.4215 156.379 69.6943C156.452 69.9671 156.569 70.201 156.729 70.3958C156.889 70.5907 157.094 70.7404 157.343 70.845C157.593 70.9496 157.896 71.003 158.255 71.003C158.545 71.003 158.805 70.9763 159.039 70.9209C159.273 70.8655 159.455 70.8081 159.589 70.7466L159.74 71.6593C159.679 71.6983 159.589 71.7352 159.472 71.7701C159.355 71.805 159.222 71.8357 159.074 71.8644C158.926 71.8911 158.768 71.9157 158.6 71.9342C158.432 71.9527 158.27 71.9629 158.114 71.9629Z" fill="#414652"/>
<path d="M160.569 68.794C160.569 68.2565 160.647 67.7868 160.803 67.3848C160.959 66.9828 161.166 66.6505 161.422 66.3859C161.679 66.1213 161.976 65.9223 162.311 65.789C162.645 65.6557 162.989 65.59 163.34 65.59C164.159 65.59 164.786 65.8464 165.223 66.3551C165.66 66.8659 165.878 67.6432 165.878 68.6873V68.8678C165.878 68.9416 165.873 69.0093 165.865 69.0729H161.703C161.751 69.7047 161.933 70.1846 162.253 70.5108C162.573 70.839 163.072 71.001 163.75 71.001C164.132 71.001 164.454 70.9682 164.715 70.9026C164.975 70.8369 165.172 70.7713 165.305 70.7097L165.457 71.6225C165.324 71.6922 165.092 71.7661 164.762 71.844C164.429 71.922 164.054 71.9609 163.634 71.9609C163.104 71.9609 162.645 71.881 162.259 71.721C161.874 71.561 161.556 71.3415 161.305 71.0605C161.055 70.7795 160.871 70.4472 160.75 70.0616C160.629 69.676 160.569 69.2534 160.569 68.794ZM164.743 68.1971C164.751 67.7068 164.628 67.3028 164.376 66.9869C164.122 66.671 163.773 66.5131 163.33 66.5131C163.08 66.5131 162.86 66.5623 162.669 66.6587C162.479 66.7572 162.317 66.8823 162.183 67.0382C162.05 67.194 161.947 67.3725 161.874 67.5756C161.8 67.7786 161.751 67.9858 161.728 68.195H164.745L164.743 68.1971Z" fill="#414652"/>
</g>
</g>
</svg>
