<svg width="329" height="72" viewBox="0 0 329 72" fill="none" xmlns="http://www.w3.org/2000/svg">
<g id="logo / deriv product / brand-light / deriv trader-logo-wordmark">
<g id="logo">
<path d="M0 13.5C0 6.04416 6.04416 0 13.5 0H58.5C65.9558 0 72 6.04416 72 13.5V58.5C72 65.9558 65.9558 72 58.5 72H13.5C6.04416 72 0 65.9558 0 58.5V13.5Z" fill="#FF444F"/>
<path d="M13.5 0C6.04416 0 0 6.04416 0 13.5V13.8921L67.3075 3.26845C64.9433 1.2315 61.8655 0 58.5 0H13.5Z" fill="#E12E3A"/>
<path d="M68.6969 4.65243L56.3498 71.9999L58.5 72C65.9558 72 72 65.9558 72 58.5V13.5C72 10.1155 70.7545 7.02183 68.6969 4.65243Z" fill="#E12E3A"/>
<path d="M22.3632 42.8984C22.5942 42.9194 22.8567 42.9404 23.1507 42.9614C23.4657 42.9614 23.8332 42.9614 24.2532 42.9614C26.7102 42.9614 28.5267 42.3419 29.7027 41.1029C30.8997 39.8639 31.4982 38.1524 31.4982 35.9684C31.4982 33.6794 30.9312 31.9469 29.7972 30.7709C28.6632 29.5949 26.8677 29.0069 24.4107 29.0069C24.0747 29.0069 23.7282 29.0174 23.3712 29.0384C23.0142 29.0384 22.6782 29.0594 22.3632 29.1014V42.8984ZM36.5697 35.9684C36.5697 37.8584 36.2757 39.5069 35.6877 40.9139C35.0997 42.3209 34.2597 43.4864 33.1677 44.4104C32.0967 45.3344 30.7842 46.0274 29.2302 46.4894C27.6762 46.9514 25.9332 47.1824 24.0012 47.1824C23.1192 47.1824 22.0902 47.1404 20.9142 47.0564C19.7382 46.9934 18.5832 46.8464 17.4492 46.6154V25.3529C18.5832 25.1429 19.7592 25.0064 20.9772 24.9434C22.2162 24.8594 23.2767 24.8174 24.1587 24.8174C26.0277 24.8174 27.7182 25.0274 29.2302 25.4474C30.7632 25.8674 32.0757 26.5289 33.1677 27.4319C34.2597 28.3349 35.0997 29.4899 35.6877 30.8969C36.2757 32.3039 36.5697 33.9944 36.5697 35.9684Z" fill="white"/>
<path d="M54.552 25.0694V29.2589H47.9685V46.8989H43.0545V29.2589H36.471V25.0694H54.552Z" fill="white"/>
</g>
<g id="wordmark">
<path fill-rule="evenodd" clip-rule="evenodd" d="M108.739 21.0748L106.967 31.1257H100.815C95.0752 31.1257 89.6045 35.7759 88.5905 41.5154L88.1614 43.9584C87.1521 49.6979 90.9816 54.3481 96.7211 54.3481H101.852C106.035 54.3481 110.02 50.9618 110.756 46.7787L115.482 19.9909L108.739 21.0748ZM104.374 45.8307C104.147 47.1229 102.984 48.1747 101.692 48.1747H98.5745C95.9948 48.1747 94.2687 46.0806 94.7214 43.4962L94.9903 41.9729C95.4477 39.3931 97.9095 37.2944 100.489 37.2944H105.879L104.374 45.8307Z" fill="#414652"/>
<path d="M156.118 54.3498H162.503L166.54 31.4481H160.155L156.118 54.3498Z" fill="#414652"/>
<path d="M156.331 34.4336L156.331 34.4284C156.491 33.5229 156.651 32.6174 156.811 31.7119C150.259 30.0236 145.155 31.7702 143.077 32.6309C143.077 32.6309 140.112 49.4348 139.245 54.3552H145.634C146.671 48.4746 147.708 42.5926 148.744 36.712C149.703 36.5208 152.824 36.2214 155.849 37.1615C156.009 36.2522 156.17 35.3429 156.331 34.4336Z" fill="#414652"/>
<path fill-rule="evenodd" clip-rule="evenodd" d="M130.914 31.1234H125.948C121.104 31.1234 116.487 35.0472 115.634 39.8907L114.629 45.5831C113.776 50.4265 117.006 54.3505 121.85 54.3505H132.423L133.508 48.1959H123.571C121.958 48.1959 120.878 46.8895 121.166 45.2718L121.199 45.0785H137.219L138.134 39.8907C138.988 35.0472 135.757 31.1234 130.914 31.1234ZM131.725 39.4002L131.687 39.7304H122.161L122.213 39.438C122.5 37.8251 123.972 36.4055 125.589 36.4055H129.31C130.909 36.4055 131.989 37.8015 131.725 39.4002Z" fill="#414652"/>
<path d="M177.639 46.5538C180.538 41.3376 183.734 34.494 185.066 31.4481H191.461C189.284 37.2356 184.296 47.0805 179.463 54.3498H173.073C170.855 47.4312 169.423 37.7913 169.149 31.4481H175.54C175.655 33.5172 176.581 41.1921 177.639 46.5538Z" fill="#414652"/>
<path d="M222.352 21.072V25.104H211.888V54.336H207.232V25.104H196.768V21.072H222.352Z" fill="#414652"/>
<path d="M232.355 28.848C232.739 28.848 233.171 28.88 233.651 28.944C234.163 28.976 234.659 29.04 235.139 29.136C235.619 29.2 236.051 29.28 236.435 29.376C236.851 29.44 237.155 29.504 237.347 29.568L236.579 33.456C236.227 33.328 235.635 33.184 234.803 33.024C234.003 32.832 232.963 32.736 231.683 32.736C230.851 32.736 230.019 32.832 229.187 33.024C228.387 33.184 227.859 33.296 227.603 33.36V54.336H223.139V30.432C224.195 30.048 225.507 29.696 227.075 29.376C228.643 29.024 230.403 28.848 232.355 28.848Z" fill="#414652"/>
<path d="M248.182 51.12C249.238 51.12 250.166 51.104 250.966 51.072C251.798 51.008 252.486 50.912 253.03 50.784V43.344C252.71 43.184 252.182 43.056 251.446 42.96C250.742 42.832 249.878 42.768 248.854 42.768C248.182 42.768 247.462 42.816 246.694 42.912C245.958 43.008 245.27 43.216 244.63 43.536C244.022 43.824 243.51 44.24 243.094 44.784C242.678 45.296 242.47 45.984 242.47 46.848C242.47 48.448 242.982 49.568 244.006 50.208C245.03 50.816 246.422 51.12 248.182 51.12ZM247.798 28.752C249.59 28.752 251.094 28.992 252.31 29.472C253.558 29.92 254.55 30.576 255.286 31.44C256.054 32.272 256.598 33.28 256.918 34.464C257.238 35.616 257.398 36.896 257.398 38.304V53.904C257.014 53.968 256.47 54.064 255.766 54.192C255.094 54.288 254.326 54.384 253.462 54.48C252.598 54.576 251.654 54.656 250.63 54.72C249.638 54.816 248.646 54.864 247.654 54.864C246.246 54.864 244.95 54.72 243.766 54.432C242.582 54.144 241.558 53.696 240.694 53.088C239.83 52.448 239.158 51.616 238.678 50.592C238.198 49.568 237.958 48.336 237.958 46.896C237.958 45.52 238.23 44.336 238.774 43.344C239.35 42.352 240.118 41.552 241.078 40.944C242.038 40.336 243.158 39.888 244.438 39.6C245.718 39.312 247.062 39.168 248.47 39.168C248.918 39.168 249.382 39.2 249.862 39.264C250.342 39.296 250.79 39.36 251.206 39.456C251.654 39.52 252.038 39.584 252.358 39.648C252.678 39.712 252.902 39.76 253.03 39.792V38.544C253.03 37.808 252.95 37.088 252.79 36.384C252.63 35.648 252.342 35.008 251.926 34.464C251.51 33.888 250.934 33.44 250.198 33.12C249.494 32.768 248.566 32.592 247.414 32.592C245.942 32.592 244.646 32.704 243.526 32.928C242.438 33.12 241.622 33.328 241.078 33.552L240.55 29.856C241.126 29.6 242.086 29.36 243.43 29.136C244.774 28.88 246.23 28.752 247.798 28.752Z" fill="#414652"/>
<path d="M279.021 34.656C278.477 34.208 277.693 33.776 276.669 33.36C275.645 32.944 274.525 32.736 273.309 32.736C272.029 32.736 270.924 32.976 269.997 33.456C269.101 33.904 268.365 34.544 267.788 35.376C267.212 36.176 266.796 37.136 266.54 38.256C266.285 39.376 266.157 40.576 266.157 41.856C266.157 44.768 266.876 47.024 268.316 48.624C269.757 50.192 271.677 50.976 274.077 50.976C275.293 50.976 276.301 50.928 277.101 50.832C277.933 50.704 278.573 50.576 279.021 50.448V34.656ZM279.021 17.856L283.484 17.088V53.616C282.46 53.904 281.149 54.192 279.549 54.48C277.949 54.768 276.109 54.912 274.029 54.912C272.109 54.912 270.38 54.608 268.844 54C267.309 53.392 265.997 52.528 264.909 51.408C263.821 50.288 262.973 48.928 262.365 47.328C261.788 45.696 261.501 43.872 261.501 41.856C261.501 39.936 261.741 38.176 262.221 36.576C262.732 34.976 263.468 33.6 264.428 32.448C265.389 31.296 266.556 30.4 267.932 29.76C269.34 29.12 270.94 28.8 272.732 28.8C274.173 28.8 275.437 28.992 276.525 29.376C277.645 29.76 278.477 30.128 279.021 30.48V17.856Z" fill="#414652"/>
<path d="M287.846 41.904C287.846 39.696 288.166 37.776 288.806 36.144C289.446 34.48 290.294 33.104 291.35 32.016C292.406 30.928 293.622 30.112 294.998 29.568C296.374 29.024 297.782 28.752 299.222 28.752C302.582 28.752 305.158 29.808 306.95 31.92C308.742 34 309.638 37.184 309.638 41.472C309.638 41.664 309.638 41.92 309.638 42.24C309.638 42.528 309.622 42.8 309.59 43.056H292.502C292.694 45.648 293.446 47.616 294.758 48.96C296.07 50.304 298.118 50.976 300.902 50.976C302.47 50.976 303.782 50.848 304.838 50.592C305.926 50.304 306.742 50.032 307.286 49.776L307.91 53.52C307.366 53.808 306.406 54.112 305.03 54.432C303.686 54.752 302.15 54.912 300.422 54.912C298.246 54.912 296.358 54.592 294.758 53.952C293.19 53.28 291.894 52.368 290.87 51.216C289.846 50.064 289.078 48.704 288.566 47.136C288.086 45.536 287.846 43.792 287.846 41.904ZM304.982 39.456C305.014 37.44 304.502 35.792 303.446 34.512C302.422 33.2 300.998 32.544 299.174 32.544C298.15 32.544 297.238 32.752 296.438 33.168C295.67 33.552 295.014 34.064 294.47 34.704C293.926 35.344 293.494 36.08 293.174 36.912C292.886 37.744 292.694 38.592 292.598 39.456H304.982Z" fill="#414652"/>
<path d="M323.347 28.848C323.731 28.848 324.163 28.88 324.643 28.944C325.155 28.976 325.651 29.04 326.131 29.136C326.611 29.2 327.043 29.28 327.427 29.376C327.843 29.44 328.147 29.504 328.339 29.568L327.571 33.456C327.219 33.328 326.627 33.184 325.795 33.024C324.995 32.832 323.955 32.736 322.675 32.736C321.843 32.736 321.011 32.832 320.179 33.024C319.379 33.184 318.851 33.296 318.595 33.36V54.336H314.131V30.432C315.187 30.048 316.499 29.696 318.067 29.376C319.635 29.024 321.395 28.848 323.347 28.848Z" fill="#414652"/>
</g>
</g>
</svg>
