<svg width="241" height="38" viewBox="0 0 241 38" fill="none" xmlns="http://www.w3.org/2000/svg">
<g id="logo / deriv product / black / deriv trader-wordmark">
<g id="wordmark">
<path fill-rule="evenodd" clip-rule="evenodd" d="M20.739 3.98683L18.9667 14.0377H12.8146C7.07515 14.0377 1.60449 18.6879 0.59054 24.4274L0.161365 26.8703C-0.847863 32.6099 2.98158 37.2601 8.72108 37.2601H13.8522C18.0354 37.2601 22.0204 33.8738 22.7562 29.6907L27.4817 2.90291L20.739 3.98683ZM16.3738 28.7427C16.1474 30.0349 14.984 31.0867 13.6918 31.0867H10.5745C7.9948 31.0867 6.26872 28.9926 6.72144 26.4082L6.99028 24.8849C7.44772 22.3051 9.90952 20.2064 12.4892 20.2064H17.879L16.3738 28.7427Z" fill="#414652"/>
<path d="M68.1179 37.2618H74.5034L78.5404 14.3601H72.1549L68.1179 37.2618Z" fill="#414652"/>
<path d="M68.3306 17.3456L68.3315 17.3404C68.4914 16.4349 68.6513 15.5294 68.8108 14.6239C62.2586 12.9356 57.155 14.6822 55.0768 15.5428C55.0768 15.5428 52.1123 32.3468 51.2446 37.2672H57.6344C58.6714 31.3866 59.7084 25.5046 60.7439 19.624C61.7029 19.4328 64.8241 19.1334 67.8492 20.0735C68.0094 19.1642 68.17 18.2549 68.3306 17.3456Z" fill="#414652"/>
<path fill-rule="evenodd" clip-rule="evenodd" d="M42.9138 14.0354H37.9477C33.1043 14.0354 28.4874 17.9592 27.6337 22.8027L26.6292 28.4951C25.7755 33.3385 29.0062 37.2625 33.8496 37.2625H44.423L45.5078 31.1079H35.5708C33.958 31.1079 32.8779 29.8015 33.1657 28.1838L33.1987 27.9905H49.2193L50.1342 22.8027C50.9876 17.9592 47.7572 14.0354 42.9138 14.0354ZM43.7249 22.3122L43.6872 22.6424H34.1609L34.2127 22.35C34.5002 20.737 35.9718 19.3175 37.5892 19.3175H41.3103C42.9091 19.3175 43.9892 20.7135 43.7249 22.3122Z" fill="#414652"/>
<path d="M89.6385 29.4657C92.5379 24.2496 95.7343 17.406 97.0662 14.3601H103.461C101.284 20.1475 96.2959 29.9925 91.4635 37.2618H85.0733C82.8551 30.3432 81.4227 20.7033 81.1494 14.3601H87.5398C87.6551 16.4292 88.5814 24.1041 89.6385 29.4657Z" fill="#414652"/>
<path d="M134.352 3.984V8.016H123.888V37.248H119.232V8.016H108.768V3.984H134.352Z" fill="#414652"/>
<path d="M144.355 11.76C144.739 11.76 145.171 11.792 145.651 11.856C146.163 11.888 146.659 11.952 147.139 12.048C147.619 12.112 148.051 12.192 148.435 12.288C148.851 12.352 149.155 12.416 149.347 12.48L148.579 16.368C148.227 16.24 147.635 16.096 146.803 15.936C146.003 15.744 144.963 15.648 143.683 15.648C142.851 15.648 142.019 15.744 141.187 15.936C140.387 16.096 139.859 16.208 139.603 16.272V37.248H135.139V13.344C136.195 12.96 137.507 12.608 139.075 12.288C140.643 11.936 142.403 11.76 144.355 11.76Z" fill="#414652"/>
<path d="M160.182 34.032C161.238 34.032 162.166 34.016 162.966 33.984C163.798 33.92 164.486 33.824 165.03 33.696V26.256C164.71 26.096 164.182 25.968 163.446 25.872C162.742 25.744 161.878 25.68 160.854 25.68C160.182 25.68 159.462 25.728 158.694 25.824C157.958 25.92 157.27 26.128 156.63 26.448C156.022 26.736 155.51 27.152 155.094 27.696C154.678 28.208 154.47 28.896 154.47 29.76C154.47 31.36 154.982 32.48 156.006 33.12C157.03 33.728 158.422 34.032 160.182 34.032ZM159.798 11.664C161.59 11.664 163.094 11.904 164.31 12.384C165.558 12.832 166.55 13.488 167.286 14.352C168.054 15.184 168.598 16.192 168.918 17.376C169.238 18.528 169.398 19.808 169.398 21.216V36.816C169.014 36.88 168.47 36.976 167.766 37.104C167.094 37.2 166.326 37.296 165.462 37.392C164.598 37.488 163.654 37.568 162.63 37.632C161.638 37.728 160.646 37.776 159.654 37.776C158.246 37.776 156.95 37.632 155.766 37.344C154.582 37.056 153.558 36.608 152.694 36C151.83 35.36 151.158 34.528 150.678 33.504C150.198 32.48 149.958 31.248 149.958 29.808C149.958 28.432 150.23 27.248 150.774 26.256C151.35 25.264 152.118 24.464 153.078 23.856C154.038 23.248 155.158 22.8 156.438 22.512C157.718 22.224 159.062 22.08 160.47 22.08C160.918 22.08 161.382 22.112 161.862 22.176C162.342 22.208 162.79 22.272 163.206 22.368C163.654 22.432 164.038 22.496 164.358 22.56C164.678 22.624 164.902 22.672 165.03 22.704V21.456C165.03 20.72 164.95 20 164.79 19.296C164.63 18.56 164.342 17.92 163.926 17.376C163.51 16.8 162.934 16.352 162.198 16.032C161.494 15.68 160.566 15.504 159.414 15.504C157.942 15.504 156.646 15.616 155.526 15.84C154.438 16.032 153.622 16.24 153.078 16.464L152.55 12.768C153.126 12.512 154.086 12.272 155.43 12.048C156.774 11.792 158.23 11.664 159.798 11.664Z" fill="#414652"/>
<path d="M191.021 17.568C190.477 17.12 189.693 16.688 188.669 16.272C187.645 15.856 186.525 15.648 185.309 15.648C184.029 15.648 182.924 15.888 181.997 16.368C181.101 16.816 180.365 17.456 179.788 18.288C179.212 19.088 178.796 20.048 178.54 21.168C178.285 22.288 178.157 23.488 178.157 24.768C178.157 27.68 178.876 29.936 180.316 31.536C181.757 33.104 183.677 33.888 186.077 33.888C187.293 33.888 188.301 33.84 189.101 33.744C189.933 33.616 190.573 33.488 191.021 33.36V17.568ZM191.021 0.767999L195.484 0V36.528C194.46 36.816 193.149 37.104 191.549 37.392C189.949 37.68 188.109 37.824 186.029 37.824C184.109 37.824 182.38 37.52 180.844 36.912C179.309 36.304 177.997 35.44 176.909 34.32C175.821 33.2 174.973 31.84 174.365 30.24C173.788 28.608 173.501 26.784 173.501 24.768C173.501 22.848 173.741 21.088 174.221 19.488C174.732 17.888 175.468 16.512 176.428 15.36C177.389 14.208 178.556 13.312 179.932 12.672C181.34 12.032 182.94 11.712 184.732 11.712C186.173 11.712 187.437 11.904 188.525 12.288C189.645 12.672 190.477 13.04 191.021 13.392V0.767999Z" fill="#414652"/>
<path d="M199.846 24.816C199.846 22.608 200.166 20.688 200.806 19.056C201.446 17.392 202.294 16.016 203.35 14.928C204.406 13.84 205.622 13.024 206.998 12.48C208.374 11.936 209.782 11.664 211.222 11.664C214.582 11.664 217.158 12.72 218.95 14.832C220.742 16.912 221.638 20.096 221.638 24.384C221.638 24.576 221.638 24.832 221.638 25.152C221.638 25.44 221.622 25.712 221.59 25.968H204.502C204.694 28.56 205.446 30.528 206.758 31.872C208.07 33.216 210.118 33.888 212.902 33.888C214.47 33.888 215.782 33.76 216.838 33.504C217.926 33.216 218.742 32.944 219.286 32.688L219.91 36.432C219.366 36.72 218.406 37.024 217.03 37.344C215.686 37.664 214.15 37.824 212.422 37.824C210.246 37.824 208.358 37.504 206.758 36.864C205.19 36.192 203.894 35.28 202.87 34.128C201.846 32.976 201.078 31.616 200.566 30.048C200.086 28.448 199.846 26.704 199.846 24.816ZM216.982 22.368C217.014 20.352 216.502 18.704 215.446 17.424C214.422 16.112 212.998 15.456 211.174 15.456C210.15 15.456 209.238 15.664 208.438 16.08C207.67 16.464 207.014 16.976 206.47 17.616C205.926 18.256 205.494 18.992 205.174 19.824C204.886 20.656 204.694 21.504 204.598 22.368H216.982Z" fill="#414652"/>
<path d="M235.347 11.76C235.731 11.76 236.163 11.792 236.643 11.856C237.155 11.888 237.651 11.952 238.131 12.048C238.611 12.112 239.043 12.192 239.427 12.288C239.843 12.352 240.147 12.416 240.339 12.48L239.571 16.368C239.219 16.24 238.627 16.096 237.795 15.936C236.995 15.744 235.955 15.648 234.675 15.648C233.843 15.648 233.011 15.744 232.179 15.936C231.379 16.096 230.851 16.208 230.595 16.272V37.248H226.131V13.344C227.187 12.96 228.499 12.608 230.067 12.288C231.635 11.936 233.395 11.76 235.347 11.76Z" fill="#414652"/>
</g>
</g>
</svg>
