<svg width="254" height="72" viewBox="0 0 254 72" fill="none" xmlns="http://www.w3.org/2000/svg">
<g id="logo / brand / seawater / deriv-25 years-portuguese">
<g id="logo">
<path d="M86.9882 34.5477C85.1259 32.7834 82.7729 31.3297 79.9285 30.1847C77.1084 29.0505 73.6303 28.3178 69.7481 27.9866L71.4664 22.6946H58.0978L52.9427 38.5668C57.5162 38.5668 61.8549 38.8117 65.026 39.3032C68.1963 39.7928 70.7283 40.4805 72.624 41.3627C74.5197 42.2448 75.8906 43.3232 76.7421 44.5969C77.5918 45.8715 78.0167 47.2928 78.0167 48.8609C78.0167 52.5866 76.7745 55.332 74.2901 57.0954C71.8067 58.8597 68.2116 59.7436 63.5066 59.7436C61.088 59.7436 58.5712 59.3853 55.9581 58.6652C53.3424 57.9469 49.8094 56.6237 47.5213 55.2528H4.36833C4.10729 55.7407 3.69502 56.6624 3.45379 57.1656C2.01539 60.1739 1.00184 63.7339 0.414061 67.853H43.513C44.8578 68.5146 46.5923 68.9359 48.1639 69.4517C49.9606 70.0404 51.7906 70.5147 53.6538 70.873C55.5171 71.2312 57.3309 71.5103 59.0951 71.7065C60.8594 71.9027 62.4291 72 63.8009 72C68.5059 72 72.6564 71.4275 76.2506 70.2843C79.8439 69.1411 82.8512 67.5235 85.2708 65.4316C87.6876 63.3397 89.5023 60.7914 90.712 57.7858C91.9209 54.7793 92.5266 51.4461 92.5266 47.7852C92.5266 45.2369 92.0676 42.8353 91.1531 40.5796C90.2367 38.3238 88.8488 36.3156 86.9855 34.5495L86.9882 34.5477Z" fill="#0AA0B0"/>
<path d="M64.0709 4.33353L59.9745 16.9337L97.1623 16.9265L101.257 4.33353H64.0709Z" fill="#0AA0B0"/>
<path d="M53.6277 9.90002C52.7114 7.93951 51.4224 6.22293 49.7563 4.7539C48.0893 3.28307 46.1296 2.12368 43.8739 1.27485C41.6182 0.425112 39.1834 0.00024414 36.5694 0.00024414C32.3866 0.00024414 28.2603 0.452116 24.4123 1.96076C17.8963 4.51716 12.9627 8.88736 12.9627 8.88736L17.6479 19.4118C20.6543 17.1237 23.4312 15.4089 25.9803 14.2657C28.5295 13.1225 31.1425 12.55 33.8231 12.55C35.7188 12.55 37.2697 13.1225 38.4795 14.2657C39.6893 15.4107 40.2942 16.8329 40.2942 18.5297C40.2942 19.9033 40.0007 21.2103 39.4121 22.4516C38.8234 23.6938 37.8926 25.0188 36.6181 26.4221C35.3435 27.8282 33.6764 29.3638 31.6178 31.03C29.5583 32.697 27.0586 34.6747 24.117 36.961C20.9792 39.3806 18.0709 41.6517 15.3903 43.7742C13.1346 45.5619 10.6296 47.4738 8.76812 49.4928H26.7679C27.3008 49.0662 27.8373 48.6467 28.3809 48.2371C30.1128 46.9301 31.8762 45.6555 33.6746 44.4133C35.4713 43.1729 37.2526 41.8641 39.0168 40.4905C42.0233 38.1375 44.5553 36.0141 46.6148 34.1184C48.6743 32.2227 50.3224 30.3603 51.5664 28.5294C52.8068 26.7003 53.6889 24.8037 54.2146 22.8432C54.7366 20.8827 54.9995 18.662 54.9995 16.1758C54.9995 13.9543 54.5404 11.8614 53.6259 9.90092L53.6277 9.90002Z" fill="#0AA0B0"/>
<path d="M136.17 59.2573C135.939 58.7496 135.708 58.1825 135.477 57.5587C135.246 56.9349 135.061 56.276 134.923 55.5829C133.906 56.5083 132.542 57.4318 130.833 58.3554C129.123 59.2789 127.021 59.7416 124.526 59.7416C122.492 59.7416 120.748 59.4175 119.293 58.7712C117.837 58.1249 116.647 57.2239 115.723 56.0681C114.798 54.9132 114.117 53.5504 113.678 51.9787C113.239 50.408 113.019 48.6752 113.019 46.7804C113.019 43.6848 113.539 40.6576 114.579 37.6998C115.619 34.7428 117.178 32.109 119.258 29.7983C121.337 27.4885 123.947 25.6162 127.09 24.1841C130.231 22.752 133.906 22.0355 138.111 22.0355C139.358 22.0355 140.814 22.1741 142.477 22.4513C144.141 22.7286 145.573 23.1913 146.775 23.8376L141.438 45.6021C141.206 46.6652 141.01 47.6815 140.848 48.6518C140.686 49.6222 140.606 50.6393 140.606 51.7015C140.606 52.7637 140.698 53.8393 140.883 54.9249C141.067 56.0114 141.391 57.178 141.854 58.4256L136.17 59.2573ZM125.842 54.266C127.783 54.266 129.446 53.8501 130.832 53.0184C132.219 52.1867 133.419 51.2163 134.437 50.1073C134.482 49.3224 134.563 48.5024 134.68 47.6464C134.795 46.7921 134.945 45.9253 135.131 45.0467L139.289 27.8567C139.057 27.7649 138.676 27.6956 138.145 27.6488C137.613 27.6038 137.14 27.5795 136.724 27.5795C134.09 27.5795 131.709 28.0889 129.585 29.1043C127.459 30.1215 125.645 31.4726 124.144 33.1594C122.641 34.8472 121.486 36.8104 120.678 39.0509C119.869 41.2931 119.465 43.638 119.465 46.0864C119.465 47.0568 119.557 48.0388 119.742 49.0326C119.927 50.0272 120.262 50.904 120.747 51.6664C121.233 52.4288 121.879 53.0526 122.688 53.5378C123.496 54.023 124.548 54.266 125.842 54.266Z" fill="#0AA0B0"/>
<path d="M149.201 58.8414L157.519 24.1841C159.645 23.5378 161.943 23.0175 164.416 22.6241C166.888 22.2317 169.095 22.0345 171.036 22.0345C173.115 22.0345 174.905 22.3235 176.408 22.9014C177.909 23.4802 179.121 24.2651 180.047 25.2579C180.97 26.2517 181.652 27.4534 182.092 28.8621C182.53 30.2726 182.751 31.8083 182.751 33.4717C182.751 34.5348 182.657 35.6555 182.474 36.8338C182.288 38.0121 182.058 39.2021 181.78 40.4037L177.345 58.8414H170.899L174.988 41.79C175.31 40.4965 175.623 39.1796 175.924 37.8392C176.224 36.4998 176.374 35.2288 176.374 34.0271C176.374 32.1791 175.865 30.6426 174.85 29.4175C173.832 28.1933 171.938 27.5803 169.166 27.5803C168.01 27.5803 166.879 27.6496 165.77 27.7882C164.661 27.9269 163.736 28.1123 162.998 28.3427L155.651 58.8414H149.201Z" fill="#0AA0B0"/>
<path d="M201.185 59.7425C197.396 59.7425 194.427 58.6227 192.279 56.3805C190.13 54.14 189.055 51.0552 189.055 47.127C189.055 44.4473 189.437 41.628 190.199 38.6711C190.962 35.7141 192.175 32.9876 193.838 30.4924C195.502 27.9972 197.65 25.9412 200.284 24.3237C202.918 22.707 206.106 21.8978 209.85 21.8978C213.593 21.8978 216.608 23.0185 218.757 25.2598C220.905 27.5021 221.98 30.586 221.98 34.5133C221.98 37.1939 221.598 40.0132 220.836 42.9693C220.073 45.9271 218.86 48.6528 217.197 51.148C215.533 53.6432 213.385 55.7 210.751 57.3166C208.117 58.9333 204.929 59.7425 201.185 59.7425ZM202.294 54.2661C204.373 54.2661 206.233 53.6657 207.874 52.464C209.514 51.2632 210.9 49.7257 212.033 47.8543C213.164 45.9829 214.031 43.9153 214.632 41.6506C215.233 39.3867 215.533 37.1912 215.533 35.066C215.533 32.7094 215.025 30.838 214.008 29.4518C212.991 28.0656 211.236 27.3725 208.741 27.3725C206.662 27.3725 204.801 27.9738 203.161 29.1746C201.52 30.3772 200.134 31.9128 199.002 33.7842C197.87 35.6556 197.003 37.7241 196.403 39.988C195.802 42.2527 195.502 44.4482 195.502 46.5725C195.502 48.9291 196.01 50.8005 197.027 52.1867C198.043 53.5729 199.799 54.2661 202.294 54.2661Z" fill="#0AA0B0"/>
<path d="M234.872 54.3353C235.842 54.3353 236.823 54.2435 237.818 54.0581C238.811 53.8735 239.689 53.5729 240.452 53.157C241.214 52.7412 241.838 52.1759 242.323 51.4585C242.808 50.7428 243.05 49.8535 243.05 48.7895C243.05 48.0964 242.934 47.4843 242.704 46.9523C242.472 46.4213 242.103 45.9244 241.595 45.4617C241.086 44.9999 240.451 44.5499 239.688 44.1097C238.926 43.6713 238.013 43.1735 236.95 42.619C235.886 42.1114 234.916 41.6028 234.039 41.0942C233.161 40.5865 232.387 39.9852 231.717 39.2921C231.046 38.599 230.527 37.779 230.157 36.8311C229.786 35.8842 229.602 34.741 229.602 33.3998C229.602 29.9342 230.85 27.151 233.345 25.0474C235.84 22.9455 239.468 21.8933 244.228 21.8933C246.446 21.8933 248.397 22.1129 250.085 22.5522C251.771 22.9914 252.937 23.3956 253.585 23.7656L251.16 29.0332C250.511 28.6641 249.472 28.2708 248.041 27.8549C246.608 27.439 245.013 27.2311 243.258 27.2311C242.38 27.2311 241.501 27.3238 240.624 27.5083C239.746 27.6938 238.949 28.0052 238.233 28.4445C237.516 28.8847 236.938 29.4617 236.5 30.1773C236.061 30.8947 235.841 31.7606 235.841 32.7769C235.841 34.0245 236.326 35.0533 237.297 35.8617C238.267 36.6709 239.723 37.5143 241.663 38.392C242.864 38.9465 243.939 39.5127 244.887 40.0906C245.834 40.6684 246.642 41.3156 247.312 42.0313C247.982 42.7487 248.491 43.5912 248.837 44.5616C249.184 45.5319 249.358 46.6877 249.358 48.0271C249.358 49.9678 248.987 51.6781 248.249 53.1561C247.509 54.636 246.481 55.8593 245.164 56.8296C243.847 57.8 242.287 58.5282 240.485 59.0134C238.683 59.4985 236.718 59.7416 234.594 59.7416C233.022 59.7416 231.602 59.6372 230.331 59.4292C229.06 59.2213 227.95 58.9783 227.004 58.701C226.056 58.4238 225.271 58.1357 224.647 57.8342C224.023 57.5344 223.549 57.2914 223.226 57.106L225.721 51.8383C226.044 52.0237 226.494 52.2542 227.073 52.5314C227.65 52.8087 228.343 53.0859 229.152 53.3632C229.961 53.6404 230.851 53.8717 231.821 54.0563C232.792 54.2417 233.808 54.3335 234.871 54.3335L234.872 54.3353Z" fill="#0AA0B0"/>
</g>
</g>
</svg>
