<svg width="74" height="72" viewBox="0 0 74 72" fill="none" xmlns="http://www.w3.org/2000/svg">
<g id="logo / partners product / brand-light / deriv ctrader-thirdparty-vertical-logo-wordmark">
<g id="wordmark">
<path d="M28.1143 63.2355C28.3206 61.678 29.7145 59.5182 33.382 59.5182C37.0493 59.5182 38.1831 61.022 38.341 63.1072C38.3856 63.7131 38.4081 64.2744 38.4081 64.9471V71.6767H35.6997L35.3447 70.0895H35.1793C34.7221 71.0617 33.3559 71.991 31.6329 71.991C29.4562 71.991 27.7518 70.7568 27.7518 68.4468C27.7518 65.4861 30.0176 64.4081 34.5957 64.4081H35.2461V63.9826C35.2461 62.8155 34.8652 62.0757 33.2499 62.0757C31.8374 62.0757 31.3206 62.5997 31.1496 63.2355M30.8708 68.0657C30.8708 68.941 31.566 69.4335 32.6663 69.4335C33.9229 69.4335 35.2461 68.575 35.2461 67.144V66.6067C35.2461 66.6067 30.8708 66.0047 30.8708 68.0657Z" fill="#060606"/>
<path d="M27.7518 59.7059L27.118 62.7909C26.0101 62.3504 24.7128 62.5772 24.0306 63.2647C23.1067 64.1959 23.142 65.7757 23.142 66.5415V71.6783H19.934V59.8321H23.0491L22.6385 61.6944H22.8039C23.6571 60.0274 25.5734 59.4996 27.75 59.7059H27.7518Z" fill="#060606"/>
<path d="M73.9209 59.7059L73.2871 62.7909C72.1794 62.3504 70.8819 62.5772 70.1999 63.2647C69.276 64.1959 69.3114 65.7757 69.3114 66.5415V71.6783H66.1031V59.8321H69.2184L68.8076 61.6944H68.973C69.8262 60.0274 71.7425 59.4996 73.9191 59.7059H73.9209Z" fill="#060606"/>
<path d="M22.0101 54.833L21.3706 57.7046H16.7685V71.6768H13.419V57.7046H8.56397V54.833H22.0119H22.0101Z" fill="#060606"/>
<path d="M51.7092 55.0689L51.6943 71.6859H48.8577L48.5009 70.0803H48.3355C47.9116 71.0744 46.6757 72 44.9043 72C41.3355 72 39.7815 69.045 39.7815 65.4859C39.7815 61.5569 41.8281 59.3137 45.1218 59.3137C46.6086 59.3137 47.843 60.0498 48.4377 61.1407H48.5232L48.538 54.45L51.7092 55.0707V55.0689ZM43.0696 65.5084C43.0696 67.5955 43.8783 69.0749 45.8076 69.0749C47.4006 69.0749 48.5232 68.177 48.5232 65.5529V65.1273C48.5232 62.5477 47.1774 61.7837 45.8765 61.7837C43.9694 61.7837 43.0716 63.1515 43.0716 65.5084H43.0696Z" fill="#060606"/>
<path d="M59.0957 59.52C62.9767 59.52 64.6143 62.055 64.6143 65.5547C64.6143 65.8911 64.592 66.339 64.5697 66.7219H56.4693C56.672 68.7179 57.5697 69.4148 59.0491 69.4148C60.2835 69.4148 60.9785 68.9428 61.2928 68.0693H64.4118C63.9861 70.5597 62.0549 71.9946 58.9823 71.9946C55.1681 71.9946 53.1942 69.9073 53.1942 65.8243C53.1942 61.966 55.0567 59.52 59.0957 59.52ZM56.4933 64.4769H61.3857C61.2053 62.7502 60.3093 62.0755 58.9618 62.0755C57.5475 62.0755 56.6961 62.7036 56.4933 64.4769Z" fill="#060606"/>
<path d="M6.00266 59.5203C9.77219 59.5203 11.1625 61.3378 11.3874 63.9621H8.20154C8.09003 62.7279 7.23687 62.0998 5.95804 62.0998C4.32049 62.0998 3.42272 63.2447 3.42272 65.7109C3.42272 68.1773 4.23128 69.3908 5.93574 69.3908C7.14764 69.3908 8.04541 68.6511 8.20154 67.5509H11.3874C11.0733 70.2439 9.30005 71.9928 5.80004 71.9928C1.85024 71.9928 0.0788574 69.7273 0.0788574 65.7779C0.0788574 61.8285 1.85208 59.5182 6.00266 59.5182V59.5203Z" fill="#060606"/>
<path d="M37.0009 0C23.0622 0 11.722 11.3402 11.722 25.279C11.722 39.2175 23.0622 50.5577 37.0009 50.5577C50.9397 50.5577 62.2797 39.2175 62.2797 25.279C62.2797 11.3402 50.9397 0 37.0009 0ZM37.0009 4.06136C48.5139 4.06136 57.9135 13.2788 58.2092 24.7212C58.2128 24.9053 58.2166 25.0911 58.2166 25.277C58.2166 36.1377 49.8522 40.1562 45.3727 40.7342C38.287 41.6471 32.3205 37.8216 32.3205 30.3347C32.3205 23.2398 40.1662 17.091 50.1087 20.1191L51.3951 14.3327C47.7928 12.5818 43.9172 11.7844 40.1347 11.7844C25.5862 11.7844 16.4859 22.6042 17.326 32.4313C17.2479 32.4722 17.1366 32.5317 17.0268 32.5931C16.3632 30.3942 16.0082 27.9518 16.0082 25.279C16.0082 13.5799 25.302 4.06321 37.0009 4.06321V4.06136Z" fill="#FF101F"/>
</g>
</g>
</svg>
