<svg width="128" height="80" viewBox="0 0 128 80" fill="none" xmlns="http://www.w3.org/2000/svg">
<g id="logo / payment method / mandiri / brand">
<path id="wordmark" d="M34.6106 42.1466C39.4541 42.1466 40.8497 45.2214 40.8497 48.5013L40.8599 53.9849C40.8415 55.198 40.9136 56.4108 41.0754 57.6132H37.6275L37.3812 55.9425H37.2889C36.1984 57.2729 34.5563 58.0288 32.8353 57.9925C31.5995 58.063 30.3892 57.6214 29.49 56.7717C28.5907 55.922 28.0821 54.7395 28.0841 53.5031C28.0841 49.6903 31.4602 47.7736 37.0426 47.8043V47.4764C37.0426 46.4514 36.6424 44.8422 33.9641 44.8422C32.5374 44.8466 31.1378 45.2324 29.9107 45.9594L29.1616 43.479C30.8308 42.5684 32.7091 42.1091 34.6106 42.1466ZM73.6768 36.4785V53.3699C73.6768 54.9176 73.7383 56.5883 73.7999 57.6132H70.393L70.2391 55.2251H70.1775C69.1729 56.98 67.2743 58.0309 65.2519 57.9515C61.6603 57.9515 58.8076 54.8766 58.8076 50.2438C58.8076 45.2009 61.8861 42.1876 65.5598 42.1876C67.225 42.0714 68.8319 42.8235 69.8081 44.176H69.8697V36.4785H73.6768ZM21.332 42.1876C23.8358 42.1876 26.3807 43.8992 26.3807 48.7268V57.6132H22.6557V49.2803C22.6557 46.7794 21.7835 45.2932 19.9569 45.2932C18.7213 45.3395 17.6506 46.1622 17.2889 47.3431C17.1771 47.758 17.1151 48.1846 17.1042 48.6141V57.6542H13.3894V48.8806C13.3894 46.7794 12.548 45.2932 10.783 45.2932C9.49584 45.3539 8.39406 46.2351 8.05336 47.4764C7.90229 47.8721 7.82912 48.2932 7.83787 48.7166V57.6337H4.12314V47.0254C4.12314 45.2932 4.12314 43.8377 4 42.536H7.28374L7.40688 44.7602H7.49923C8.4216 43.1918 10.0913 42.2218 11.9003 42.1865L12.1478 42.1876C13.9935 42.1379 15.6705 43.2546 16.3345 44.9755H16.3961C16.8567 44.2086 17.4933 43.5621 18.2535 43.0895C19.1542 42.4625 20.2349 42.1459 21.332 42.1876ZM51.7989 42.1876C54.4259 42.1876 57.1555 43.8992 57.1555 48.6653V57.6132H53.3484V49.0958C53.3484 46.9331 52.5377 45.2932 50.4649 45.2932C49.1093 45.3157 47.916 46.1912 47.489 47.4764C47.3715 47.8789 47.3195 48.2976 47.335 48.7166V57.5722H43.4869V47.0254C43.4869 45.2932 43.4869 43.8377 43.3638 42.536H46.7091L46.8938 44.8012H46.9964C48.0088 43.1293 49.8435 42.1308 51.7989 42.1876ZM80.2648 42.536V57.6132H76.3756V42.536H80.2648ZM91.3474 42.536V45.8774C90.9833 45.7973 90.6118 45.7561 90.2391 45.7544C88.5362 45.7116 87.0713 46.95 86.8322 48.6346C86.7554 49.0229 86.7142 49.4174 86.7091 49.8133V57.6132H82.9123L82.9119 46.5513C82.9098 44.9332 82.8947 43.7045 82.7891 42.536H86.1036L86.2268 45.4059H86.3499C86.9221 43.6405 88.5979 42.4688 90.4546 42.536C90.7514 42.5052 91.0506 42.5052 91.3474 42.536ZM96.981 42.536V57.6132H93.1432V42.536H96.981ZM31.9015 53.0624C31.8678 53.6493 32.088 54.2223 32.5061 54.636C32.9242 55.0497 33.5 55.2642 34.0872 55.2251C35.4187 55.2567 36.6195 54.4295 37.0631 53.1751C37.1463 52.9028 37.1878 52.6194 37.1863 52.3347L37.1657 50.2438C34.4669 50.1823 31.9015 50.7665 31.9015 53.0624ZM66.4936 45.0677C64.041 45.0677 62.6762 47.2304 62.6762 50.049C62.6762 52.8677 64.041 54.8151 66.4628 54.8151C68.0588 54.8078 69.4303 53.682 69.7465 52.1194C69.8364 51.754 69.8778 51.3784 69.8697 51.0022V48.7781C69.8714 48.4343 69.8404 48.0911 69.7773 47.7531C69.4677 46.1881 68.0907 45.062 66.4936 45.0677Z" fill="black"/>
<path id="logo" d="M120.901 26.5981C118.992 24.4252 116.971 25.4091 115.37 26.2086C114.693 26.5366 109.808 29.2835 109.808 29.2835C107.908 30.184 105.641 29.7295 104.236 28.1663C104.157 28.0712 104.088 27.9681 104.031 27.8588L103.836 27.5308C103.529 26.9759 103.186 26.4417 102.81 25.9319C102.57 25.627 102.313 25.3362 102.04 25.0606C100.213 23.2157 97.2888 21.9243 92.394 24.2612C90.0851 25.6039 82.5428 29.9087 82.5428 29.9087C80.5745 30.8516 78.2153 30.3166 76.8476 28.6173L76.7655 28.484L76.6731 28.3303L76.16 27.5718C75.9548 27.2438 75.7291 26.9158 75.4725 26.5468C75.216 26.1778 74.98 25.9524 74.7029 25.6654C72.8763 23.8307 69.9723 22.5905 65.1288 24.8454L55.3904 30.4109L50.4033 33.2603L52.9789 36.4172C54.5316 38.2284 57.1131 38.7635 59.2591 37.7189L68.0123 32.6659C75.4623 28.566 79.1359 32.4814 80.7573 35.0848C80.8189 35.1668 80.8599 35.259 80.9112 35.3308V35.4128L81.0959 35.7202C81.8527 36.9378 83.1912 37.6723 84.6259 37.6574C85.4107 37.6112 86.1688 37.3564 86.8219 36.9194L95.2878 32.1021C102.83 28.0023 106.576 32.1021 108.166 34.726C108.289 34.9468 108.426 35.1591 108.577 35.3615C109.298 36.4579 110.527 37.1141 111.84 37.1039C112.565 37.0345 113.265 36.807 113.892 36.4377L124 30.6057C123.048 29.2091 122.013 27.8708 120.901 26.5981Z" fill="#FAB900"/>
</g>
</svg>
