<svg width="175" height="72" viewBox="0 0 175 72" fill="none" xmlns="http://www.w3.org/2000/svg">
<g id="logo / brand / seawater / deriv-wordmark vertical-25 years-russian">
<g id="logo">
<path d="M69.2598 42.0386C67.7697 40.6271 65.8873 39.4643 63.6126 38.5485C61.3566 37.6416 58.5735 37.0549 55.4686 36.7901L56.8436 32.5562H46.1485L42.0244 45.2541C45.683 45.2541 49.1536 45.4503 51.6905 45.8427C54.2265 46.2341 56.2524 46.7843 57.7683 47.4896C59.2842 48.195 60.3819 49.0581 61.0632 50.0774C61.7427 51.0975 62.0833 52.2344 62.0833 53.4891C62.0833 56.47 61.0891 58.6654 59.1023 60.077C57.1156 61.4885 54.2398 62.1957 50.4751 62.1957C48.5401 62.1957 46.5266 61.9094 44.4355 61.3334C42.3436 60.7591 39.5169 59.7007 37.6862 58.603H3.16377C2.95512 58.9935 2.62519 59.7301 2.43258 60.1331C1.28228 62.5399 0.471713 65.388 0 68.6828H34.4787C35.5541 69.2125 36.9425 69.5496 38.1998 69.9616C39.6373 70.4324 41.1014 70.8122 42.5915 71.0985C44.0815 71.3847 45.5332 71.6085 46.9448 71.7655C48.3564 71.9224 49.6119 72 50.7096 72C54.4735 72 57.7942 71.5416 60.67 70.6276C63.5439 69.7127 65.9506 68.4189 67.8856 66.7451C69.8197 65.0714 71.2706 63.033 72.239 60.6281C73.2065 58.2231 73.6907 55.556 73.6907 52.6277C73.6907 50.5883 73.3233 48.6676 72.5921 46.8636C71.8591 45.0597 70.7489 43.452 69.258 42.0395L69.2598 42.0386Z" fill="#0AA0B0"/>
<path d="M50.9264 17.868L47.6485 27.9479L77.3985 27.9425L80.6747 17.868H50.9264Z" fill="#0AA0B0"/>
<path d="M42.5719 22.3203C41.8389 20.7518 40.8081 19.3786 39.4741 18.2033C38.141 17.0272 36.5725 16.0998 34.7686 15.4194C32.9647 14.7399 31.0163 14.4002 28.9252 14.4002C25.5786 14.4002 22.2784 14.7613 19.1994 15.9687C13.9864 18.0134 10.0397 21.5097 10.0397 21.5097L13.7885 29.9293C16.1934 28.0995 18.4156 26.7271 20.454 25.8122C22.4933 24.8982 24.5835 24.4399 26.7281 24.4399C28.244 24.4399 29.4852 24.8982 30.4536 25.8122C31.4211 26.728 31.9053 27.8658 31.9053 29.2239C31.9053 30.3225 31.6708 31.3685 31.2 32.3618C30.7291 33.3552 29.9846 34.4154 28.9653 35.5381C27.9461 36.6625 26.6121 37.8913 24.9652 39.2244C23.3182 40.5575 21.3181 42.1403 18.9649 43.9692C16.4547 45.9042 14.1282 47.7215 11.9837 49.4193C10.1798 50.8487 8.1752 52.3789 6.68605 53.9937H21.0862C21.5125 53.6522 21.9414 53.3169 22.3765 52.9888C23.7613 51.9428 25.1729 50.9236 26.6112 49.9302C28.0487 48.9378 29.4736 47.8909 30.8852 46.7923C33.2901 44.9099 35.3161 43.2112 36.9631 41.6944C38.6101 40.1785 39.9298 38.6876 40.9249 37.2234C41.9174 35.7601 42.6227 34.2424 43.0427 32.6748C43.46 31.1063 43.6705 29.33 43.6705 27.3415C43.6705 25.5644 43.3031 23.8897 42.5719 22.3221L42.5737 22.3203H42.5719Z" fill="#0AA0B0"/>
<path d="M101.33 0.563543L100.408 5.79074H97.2086C94.2232 5.79074 91.3777 8.20815 90.8516 11.1954L90.6287 12.4652C90.1026 15.4506 92.0965 17.8698 95.081 17.8698H97.749C99.9248 17.8698 101.997 16.1087 102.38 13.9329L104.838 0L101.331 0.564458L101.33 0.563543ZM99.0607 13.438C98.943 14.1103 98.3375 14.6579 97.6652 14.6579H96.044C94.702 14.6579 93.805 13.5691 94.0395 12.2244L94.1786 11.4326C94.4158 10.0906 95.6963 8.9991 97.0383 8.9991H99.8418L99.058 13.4389H99.0598L99.0607 13.438ZM125.974 17.868L128.074 5.95659H131.395L129.295 17.868H125.972H125.974ZM126.333 6.09483C126.166 7.03914 125.998 7.98433 125.832 8.92865C124.259 8.43911 122.636 8.59606 122.136 8.69414C121.598 11.7527 121.058 14.813 120.52 17.8716H117.196C117.647 15.3124 119.189 6.57186 119.189 6.57186C120.271 6.12422 122.925 5.21558 126.334 6.09391V6.0957L126.333 6.09483ZM112.868 5.78808H110.283C107.764 5.78808 105.362 7.82828 104.919 10.3482L104.397 13.3087C103.953 15.8287 105.633 17.8689 108.152 17.8689H113.651L114.215 14.6677H109.047C108.208 14.6677 107.646 13.9882 107.796 13.1473L107.813 13.0466H116.146L116.621 10.3482C117.065 7.83006 115.384 5.78808 112.866 5.78808H112.868ZM113.286 10.0932L113.266 10.2644H108.31L108.337 10.1119C108.487 9.27285 109.252 8.5354 110.094 8.5354H112.029C112.862 8.5354 113.423 9.26126 113.284 10.0932H113.286ZM144.354 5.95572C143.222 8.96523 140.628 14.0863 138.113 17.8671H134.79C133.636 14.2682 132.89 9.25414 132.749 5.95572H136.073C136.133 7.03111 136.614 11.0242 137.164 13.8125C138.672 11.1 140.335 7.54028 141.028 5.95572H144.354Z" fill="#0AA0B0"/>
<path d="M86.2566 57.7026C87.2544 57.6285 88.1328 57.4439 88.8907 57.1479C89.6478 56.8527 90.305 56.4827 90.8596 56.0386C91.4143 55.5954 91.894 55.0961 92.3015 54.5414C92.7081 53.9868 93.0585 53.4321 93.3555 52.8775C94.1322 51.399 94.8152 49.819 95.4073 48.1363C95.9985 46.4545 96.5246 44.7353 96.9874 42.9795C97.4493 41.2238 97.8649 39.468 98.2349 37.7114C98.6041 35.9556 98.9554 34.2649 99.2889 32.6375H118.308L111.377 61.4718H106.22L112.098 36.9623H103.393C103.096 38.1822 102.773 39.485 102.422 40.8716C102.071 42.2582 101.692 43.6439 101.285 45.0305C100.878 46.4171 100.453 47.785 100.01 49.1341C99.5662 50.4842 99.0856 51.7495 98.5684 52.9328C97.9398 54.3747 97.2558 55.632 96.5166 56.7038C95.7765 57.7766 94.9169 58.6914 93.9378 59.4485C92.9578 60.2064 91.8485 60.7887 90.6108 61.1954C89.3722 61.602 87.9393 61.8606 86.3137 61.972L86.2584 57.7026H86.2566Z" fill="#0AA0B0"/>
<path d="M132.392 62.1943C130.507 62.1943 128.88 61.9259 127.513 61.39C126.145 60.854 124.998 60.1148 124.075 59.1714C123.15 58.2289 122.467 57.1294 122.023 55.8721C121.58 54.6157 121.358 53.2852 121.358 51.8799C121.358 49.2931 121.746 46.7972 122.523 44.3941C123.299 41.9918 124.408 39.8659 125.85 38.0174C127.291 36.1698 129.046 34.7003 131.118 33.6088C133.187 32.5192 135.534 31.9735 138.16 31.9735C139.675 31.9735 140.978 32.1678 142.069 32.5557C143.158 32.9436 144.046 33.4706 144.731 34.1359C145.415 34.8011 145.923 35.5688 146.255 36.4374C146.588 37.3068 146.755 38.2029 146.755 39.1267C146.755 40.8647 146.44 42.3342 145.812 43.5353C145.184 44.7373 144.352 45.745 143.317 46.5573C142.282 47.3706 141.072 47.9992 139.685 48.4424C138.299 48.8856 136.858 49.2378 135.361 49.4955C133.863 49.755 132.347 49.9306 130.814 50.0225C129.279 50.1152 127.828 50.1982 126.46 50.2722C126.423 50.5682 126.405 50.809 126.405 50.9927V51.4358C126.405 52.2865 126.507 53.0909 126.71 53.8479C126.913 54.6059 127.292 55.2711 127.847 55.8444C128.402 56.4178 129.169 56.8699 130.149 57.2034C131.128 57.536 132.413 57.7028 134.002 57.7028C134.704 57.7028 135.435 57.6386 136.192 57.5084C136.95 57.3791 137.671 57.2132 138.355 57.009C139.039 56.8066 139.649 56.6024 140.185 56.3991C140.72 56.1967 141.1 56.0023 141.322 55.8168L141.765 60.1978C141.025 60.6053 139.832 61.0387 138.188 61.5006C136.543 61.9625 134.611 62.1934 132.394 62.1934L132.392 62.1943ZM127.124 46.3353C129.268 46.2613 131.227 46.1231 133.002 45.9198C134.776 45.7173 136.31 45.3651 137.604 44.8666C138.898 44.3673 139.906 43.6931 140.626 42.8425C141.347 41.9927 141.708 40.8834 141.708 39.5155C141.708 39.1829 141.643 38.8316 141.513 38.4615C141.383 38.0923 141.162 37.7499 140.848 37.436C140.533 37.1222 140.1 36.8636 139.545 36.6594C138.991 36.457 138.307 36.3544 137.493 36.3544C136.199 36.3544 134.989 36.6317 133.862 37.1864C132.734 37.741 131.727 38.4713 130.84 39.3764C129.952 40.2824 129.194 41.3364 128.566 42.5375C127.937 43.7395 127.456 45.004 127.124 46.3353Z" fill="#0AA0B0"/>
<path d="M174.337 31.9269L173.526 35.3804H164.615L158.349 61.4727H154.213L160.48 35.3804H151.569L152.379 31.9269H174.337Z" fill="#0AA0B0"/>
</g>
</g>
</svg>
