<svg width="250" height="38" viewBox="0 0 250 38" fill="none" xmlns="http://www.w3.org/2000/svg">
<g id="logo / partners product / brand-dark/ deriv nakala-wordmark">
<g id="wordmark">
<path fill-rule="evenodd" clip-rule="evenodd" d="M20.739 4.03168L18.9667 14.0826H12.8146C7.07515 14.0826 1.60449 18.7327 0.59054 24.4722L0.161365 26.9152C-0.847863 32.6548 2.98158 37.305 8.72108 37.305H13.8522C18.0354 37.305 22.0204 33.9186 22.7562 29.7355L27.4817 2.94775L20.739 4.03168ZM16.3738 28.7875C16.1474 30.0798 14.984 31.1315 13.6918 31.1315H10.5745C7.9948 31.1315 6.26872 29.0374 6.72144 26.453L6.99028 24.9297C7.44772 22.35 9.90952 20.2513 12.4892 20.2513H17.879L16.3738 28.7875Z" fill="#FF444F"/>
<path d="M68.1179 37.3066H74.5034L78.5404 14.4049H72.1549L68.1179 37.3066Z" fill="#FF444F"/>
<path d="M68.3306 17.3905L68.3315 17.3852C68.4914 16.4798 68.6513 15.5743 68.8108 14.6688C62.2586 12.9805 57.155 14.7271 55.0768 15.5877C55.0768 15.5877 52.1123 32.3916 51.2446 37.312H57.6344C58.6714 31.4314 59.7084 25.5494 60.7439 19.6688C61.7029 19.4776 64.8241 19.1782 67.8492 20.1183C68.0094 19.2091 68.17 18.2998 68.3306 17.3905Z" fill="#FF444F"/>
<path fill-rule="evenodd" clip-rule="evenodd" d="M42.9138 14.0803H37.9477C33.1043 14.0803 28.4874 18.0041 27.6337 22.8476L26.6292 28.54C25.7755 33.3834 29.0062 37.3073 33.8496 37.3073H44.423L45.5078 31.1527H35.5708C33.958 31.1527 32.8779 29.8463 33.1657 28.2287L33.1987 28.0353H49.2193L50.1342 22.8476C50.9876 18.0041 47.7572 14.0803 42.9138 14.0803ZM43.7249 22.3571L43.6872 22.6872H34.1609L34.2127 22.3948C34.5002 20.7819 35.9718 19.3623 37.5892 19.3623H41.3103C42.9091 19.3623 43.9892 20.7583 43.7249 22.3571Z" fill="#FF444F"/>
<path d="M89.6385 29.5106C92.5379 24.2945 95.7343 17.4508 97.0662 14.4049H103.461C101.284 20.1924 96.2959 30.0374 91.4635 37.3066H85.0733C82.8551 30.388 81.4227 20.7482 81.1494 14.4049H87.5398C87.6551 16.4741 88.5814 24.1489 89.6385 29.5106Z" fill="#FF444F"/>
<path d="M140.966 37.3055C140.261 36.1197 139.444 34.7897 138.515 33.3154C137.617 31.8411 136.64 30.3188 135.582 28.7483C134.525 27.1459 133.419 25.5274 132.265 23.8929C131.143 22.2583 130.022 20.6879 128.9 19.1816C127.778 17.6432 126.688 16.201 125.631 14.8549C124.573 13.5088 123.596 12.323 122.698 11.2974V37.3055H118.131V3.99015H121.833C123.339 5.59263 124.942 7.46752 126.64 9.61483C128.371 11.7301 130.07 13.9255 131.736 16.201C133.435 18.4444 135.021 20.6559 136.496 22.8352C138.002 25.0146 139.268 26.9536 140.293 28.6522V3.99015H144.86V37.3055H140.966Z" fill="white"/>
<path d="M159.357 34.0846C160.414 34.0846 161.344 34.0686 162.145 34.0365C162.978 33.9724 163.667 33.8763 164.212 33.7481V26.2966C163.892 26.1363 163.363 26.0081 162.626 25.912C161.921 25.7838 161.055 25.7197 160.03 25.7197C159.357 25.7197 158.636 25.7677 157.866 25.8639C157.129 25.96 156.44 26.1684 155.799 26.4889C155.19 26.7773 154.677 27.1939 154.261 27.7388C153.844 28.2516 153.636 28.9406 153.636 29.806C153.636 31.4084 154.149 32.5302 155.174 33.1712C156.2 33.7801 157.594 34.0846 159.357 34.0846ZM158.972 11.682C160.767 11.682 162.273 11.9224 163.491 12.4031C164.741 12.8518 165.735 13.5088 166.472 14.3742C167.241 15.2075 167.786 16.217 168.106 17.4028C168.427 18.5566 168.587 19.8386 168.587 21.2488V36.8729C168.202 36.937 167.658 37.0331 166.952 37.1613C166.279 37.2575 165.51 37.3536 164.645 37.4498C163.78 37.5459 162.834 37.626 161.808 37.6901C160.815 37.7863 159.821 37.8344 158.828 37.8344C157.418 37.8344 156.12 37.6901 154.934 37.4017C153.748 37.1132 152.722 36.6646 151.857 36.0556C150.992 35.4146 150.319 34.5813 149.838 33.5558C149.357 32.5302 149.117 31.2963 149.117 29.854C149.117 28.4759 149.389 27.2901 149.934 26.2966C150.511 25.303 151.28 24.5018 152.242 23.8929C153.203 23.2839 154.325 22.8352 155.607 22.5468C156.889 22.2583 158.235 22.1141 159.645 22.1141C160.094 22.1141 160.559 22.1462 161.039 22.2103C161.52 22.2423 161.969 22.3064 162.385 22.4026C162.834 22.4667 163.219 22.5308 163.539 22.5949C163.86 22.6589 164.084 22.707 164.212 22.7391V21.4891C164.212 20.752 164.132 20.0309 163.972 19.3258C163.812 18.5887 163.523 17.9477 163.106 17.4028C162.69 16.826 162.113 16.3773 161.376 16.0568C160.671 15.7042 159.741 15.528 158.588 15.528C157.113 15.528 155.815 15.6401 154.694 15.8645C153.604 16.0568 152.787 16.2651 152.242 16.4894L151.713 12.7877C152.29 12.5313 153.251 12.291 154.597 12.0666C155.943 11.8102 157.402 11.682 158.972 11.682Z" fill="white"/>
<path d="M183.128 23.5563C184.089 24.2935 185.099 25.2069 186.156 26.2966C187.246 27.3862 188.303 28.5721 189.329 29.854C190.387 31.104 191.38 32.386 192.31 33.7C193.239 34.982 194.024 36.1838 194.665 37.3055H189.425C188.752 36.1838 187.967 35.0461 187.07 33.8923C186.204 32.7064 185.291 31.5847 184.329 30.5271C183.368 29.4374 182.39 28.4439 181.397 27.5465C180.403 26.6491 179.458 25.8959 178.56 25.287V37.3055H174.09V0.769185L178.56 0V22.7871C179.33 22.018 180.179 21.1687 181.108 20.2392C182.038 19.3098 182.951 18.3643 183.849 17.4028C184.746 16.4414 185.595 15.528 186.397 14.6626C187.198 13.7652 187.887 12.98 188.464 12.307H193.704C192.967 13.1082 192.165 13.9896 191.3 14.9511C190.435 15.9125 189.537 16.8901 188.608 17.8836C187.679 18.8451 186.733 19.8226 185.772 20.8161C184.842 21.7776 183.961 22.691 183.128 23.5563Z" fill="white"/>
<path d="M205.745 34.0846C206.802 34.0846 207.732 34.0686 208.533 34.0365C209.366 33.9724 210.055 33.8763 210.6 33.7481V26.2966C210.28 26.1363 209.751 26.0081 209.014 25.912C208.308 25.7838 207.443 25.7197 206.418 25.7197C205.745 25.7197 205.023 25.7677 204.254 25.8639C203.517 25.96 202.828 26.1684 202.187 26.4889C201.578 26.7773 201.065 27.1939 200.649 27.7388C200.232 28.2516 200.024 28.9406 200.024 29.806C200.024 31.4084 200.536 32.5302 201.562 33.1712C202.588 33.7801 203.982 34.0846 205.745 34.0846ZM205.36 11.682C207.155 11.682 208.661 11.9224 209.879 12.4031C211.129 12.8518 212.122 13.5088 212.859 14.3742C213.629 15.2075 214.174 16.217 214.494 17.4028C214.814 18.5566 214.975 19.8386 214.975 21.2488V36.8729C214.59 36.937 214.045 37.0331 213.34 37.1613C212.667 37.2575 211.898 37.3536 211.033 37.4498C210.167 37.5459 209.222 37.626 208.196 37.6901C207.203 37.7863 206.209 37.8344 205.216 37.8344C203.806 37.8344 202.508 37.6901 201.322 37.4017C200.136 37.1132 199.11 36.6646 198.245 36.0556C197.38 35.4146 196.707 34.5813 196.226 33.5558C195.745 32.5302 195.505 31.2963 195.505 29.854C195.505 28.4759 195.777 27.2901 196.322 26.2966C196.899 25.303 197.668 24.5018 198.63 23.8929C199.591 23.2839 200.713 22.8352 201.995 22.5468C203.277 22.2583 204.623 22.1141 206.033 22.1141C206.482 22.1141 206.946 22.1462 207.427 22.2103C207.908 22.2423 208.357 22.3064 208.773 22.4026C209.222 22.4667 209.606 22.5308 209.927 22.5949C210.247 22.6589 210.472 22.707 210.6 22.7391V21.4891C210.6 20.752 210.52 20.0309 210.36 19.3258C210.199 18.5887 209.911 17.9477 209.494 17.4028C209.078 16.826 208.501 16.3773 207.764 16.0568C207.059 15.7042 206.129 15.528 204.975 15.528C203.501 15.528 202.203 15.6401 201.081 15.8645C199.992 16.0568 199.174 16.2651 198.63 16.4894L198.101 12.7877C198.678 12.5313 199.639 12.291 200.985 12.0666C202.331 11.8102 203.789 11.682 205.36 11.682Z" fill="white"/>
<path d="M227.977 37.7863C225.221 37.7222 223.266 37.1293 222.112 36.0075C220.958 34.8858 220.381 33.1391 220.381 30.7675V0.769185L224.852 0V30.0463C224.852 30.7835 224.916 31.3924 225.044 31.8732C225.173 32.3539 225.381 32.7385 225.669 33.0269C225.958 33.3154 226.342 33.5397 226.823 33.7C227.304 33.8282 227.897 33.9403 228.602 34.0365L227.977 37.7863Z" fill="white"/>
<path d="M240.161 34.0846C241.218 34.0846 242.148 34.0686 242.949 34.0365C243.782 33.9724 244.471 33.8763 245.016 33.7481V26.2966C244.696 26.1363 244.167 26.0081 243.43 25.912C242.725 25.7838 241.859 25.7197 240.834 25.7197C240.161 25.7197 239.44 25.7677 238.67 25.8639C237.933 25.96 237.244 26.1684 236.603 26.4889C235.994 26.7773 235.481 27.1939 235.065 27.7388C234.648 28.2516 234.44 28.9406 234.44 29.806C234.44 31.4084 234.953 32.5302 235.978 33.1712C237.004 33.7801 238.398 34.0846 240.161 34.0846ZM239.776 11.682C241.571 11.682 243.077 11.9224 244.295 12.4031C245.545 12.8518 246.539 13.5088 247.276 14.3742C248.045 15.2075 248.59 16.217 248.91 17.4028C249.231 18.5566 249.391 19.8386 249.391 21.2488V36.8729C249.006 36.937 248.462 37.0331 247.756 37.1613C247.083 37.2575 246.314 37.3536 245.449 37.4498C244.584 37.5459 243.638 37.626 242.613 37.6901C241.619 37.7863 240.625 37.8344 239.632 37.8344C238.222 37.8344 236.924 37.6901 235.738 37.4017C234.552 37.1132 233.526 36.6646 232.661 36.0556C231.796 35.4146 231.123 34.5813 230.642 33.5558C230.161 32.5302 229.921 31.2963 229.921 29.854C229.921 28.4759 230.193 27.2901 230.738 26.2966C231.315 25.303 232.084 24.5018 233.046 23.8929C234.007 23.2839 235.129 22.8352 236.411 22.5468C237.693 22.2583 239.039 22.1141 240.449 22.1141C240.898 22.1141 241.363 22.1462 241.843 22.2103C242.324 22.2423 242.773 22.3064 243.189 22.4026C243.638 22.4667 244.023 22.5308 244.343 22.5949C244.664 22.6589 244.888 22.707 245.016 22.7391V21.4891C245.016 20.752 244.936 20.0309 244.776 19.3258C244.616 18.5887 244.327 17.9477 243.911 17.4028C243.494 16.826 242.917 16.3773 242.18 16.0568C241.475 15.7042 240.545 15.528 239.392 15.528C237.917 15.528 236.619 15.6401 235.498 15.8645C234.408 16.0568 233.591 16.2651 233.046 16.4894L232.517 12.7877C233.094 12.5313 234.055 12.291 235.401 12.0666C236.747 11.8102 238.206 11.682 239.776 11.682Z" fill="white"/>
</g>
</g>
</svg>
