<svg width="367" height="59" viewBox="0 0 367 59" fill="none" xmlns="http://www.w3.org/2000/svg">
<g id="logo / sub-brand / deriv demo / black">
<g id="wordmark">
<path d="M34.9861 1.82853L31.9963 18.7839H21.6179C11.9356 18.7839 2.70673 26.6285 0.996224 36.3108L0.272218 40.4319C-1.43032 50.1143 5.02984 57.959 14.7122 57.959H23.3682C30.4251 57.959 37.1479 52.2464 38.389 45.1897L46.3608 0L34.9861 1.82853ZM27.6221 43.5905C27.2402 45.7704 25.2776 47.5447 23.0977 47.5447H17.8389C13.487 47.5447 10.5752 44.012 11.3389 39.6522L11.7924 37.0825C12.5641 32.7306 16.7171 29.1902 21.069 29.1902H30.1613L27.6221 43.5905ZM114.914 57.9581L121.724 19.324H132.496L125.686 57.9581H114.905H114.914ZM116.079 19.7695C115.539 22.8339 114.997 25.8983 114.457 28.9627C109.353 27.3768 104.088 27.8818 102.47 28.2044C100.723 38.1247 98.9739 48.0474 97.2245 57.9677H86.4451C87.9089 49.6671 92.9099 21.3197 92.9099 21.3197C96.4158 19.8679 105.025 16.9214 116.079 19.7695ZM72.4022 18.7773H64.0168C55.8461 18.7773 48.0576 25.3966 46.6173 33.5673L44.9228 43.1702C43.4827 51.3408 48.9327 57.9603 57.1034 57.9603H74.9405L76.7704 47.5778H60.007C57.2863 47.5778 55.4642 45.3739 55.9497 42.6451L56.0054 42.3189H83.0316L84.575 33.5673C86.0148 25.3966 80.5651 18.7773 72.3944 18.7773H72.4022ZM73.7628 32.7399L73.6992 33.2968H57.6285L57.716 32.8036C58.201 30.0827 60.6835 27.688 63.4121 27.688H69.6894C72.3865 27.688 74.2086 30.0429 73.7628 32.7399ZM174.527 19.324C170.855 29.0872 162.439 45.6953 154.287 57.9581H143.507C139.765 46.2868 137.349 30.0248 136.888 19.324H147.668C147.862 22.8146 149.425 35.7617 151.208 44.8066C156.1 36.0072 161.492 24.4623 163.739 19.324H174.527Z" fill="#414652"/>
<path d="M230.16 33.016C230.16 37.336 229.488 41.104 228.144 44.32C226.8 47.488 224.904 50.128 222.456 52.24C220.008 54.304 217.08 55.864 213.672 56.92C210.264 57.928 206.52 58.432 202.44 58.432C200.424 58.432 198.192 58.336 195.744 58.144C193.344 58 191.16 57.688 189.192 57.208V8.824C191.16 8.344 193.344 8.032 195.744 7.888C198.192 7.696 200.424 7.6 202.44 7.6C206.52 7.6 210.264 8.128 213.672 9.184C217.08 10.192 220.008 11.752 222.456 13.864C224.904 15.928 226.8 18.568 228.144 21.784C229.488 24.952 230.16 28.696 230.16 33.016ZM203.016 52.312C209.64 52.312 214.584 50.632 217.848 47.272C221.112 43.864 222.744 39.112 222.744 33.016C222.744 26.92 221.112 22.192 217.848 18.832C214.584 15.424 209.64 13.72 203.016 13.72C201.048 13.72 199.512 13.744 198.408 13.792C197.352 13.84 196.608 13.888 196.176 13.936V52.096C196.608 52.144 197.352 52.192 198.408 52.24C199.512 52.288 201.048 52.312 203.016 52.312Z" fill="#414652"/>
<path d="M235.12 39.352C235.12 36.04 235.6 33.16 236.56 30.712C237.52 28.216 238.792 26.152 240.376 24.52C241.96 22.888 243.784 21.664 245.848 20.848C247.912 20.032 250.024 19.624 252.184 19.624C257.224 19.624 261.088 21.208 263.776 24.376C266.464 27.496 267.808 32.272 267.808 38.704C267.808 38.992 267.808 39.376 267.808 39.856C267.808 40.288 267.784 40.696 267.736 41.08H242.104C242.392 44.968 243.52 47.92 245.488 49.936C247.456 51.952 250.528 52.96 254.704 52.96C257.056 52.96 259.024 52.768 260.608 52.384C262.24 51.952 263.464 51.544 264.28 51.16L265.216 56.776C264.4 57.208 262.96 57.664 260.896 58.144C258.88 58.624 256.576 58.864 253.984 58.864C250.72 58.864 247.888 58.384 245.488 57.424C243.136 56.416 241.192 55.048 239.656 53.32C238.12 51.592 236.968 49.552 236.2 47.2C235.48 44.8 235.12 42.184 235.12 39.352ZM260.824 35.68C260.872 32.656 260.104 30.184 258.52 28.264C256.984 26.296 254.848 25.312 252.112 25.312C250.576 25.312 249.208 25.624 248.008 26.248C246.856 26.824 245.872 27.592 245.056 28.552C244.24 29.512 243.592 30.616 243.112 31.864C242.68 33.112 242.392 34.384 242.248 35.68H260.824Z" fill="#414652"/>
<path d="M274.547 21.64C276.083 21.256 278.099 20.848 280.595 20.416C283.139 19.984 286.067 19.768 289.379 19.768C291.779 19.768 293.795 20.104 295.427 20.776C297.059 21.4 298.427 22.336 299.531 23.584C299.867 23.344 300.395 23.008 301.115 22.576C301.835 22.144 302.723 21.736 303.779 21.352C304.835 20.92 306.011 20.56 307.307 20.272C308.603 19.936 309.995 19.768 311.483 19.768C314.363 19.768 316.715 20.2 318.539 21.064C320.363 21.88 321.779 23.056 322.787 24.592C323.843 26.128 324.539 27.952 324.875 30.064C325.259 32.176 325.451 34.48 325.451 36.976V58H318.755V38.416C318.755 36.208 318.635 34.312 318.395 32.728C318.203 31.144 317.795 29.824 317.171 28.768C316.595 27.712 315.779 26.944 314.723 26.464C313.715 25.936 312.395 25.672 310.763 25.672C308.507 25.672 306.635 25.984 305.147 26.608C303.707 27.184 302.723 27.712 302.195 28.192C302.579 29.44 302.867 30.808 303.059 32.296C303.251 33.784 303.347 35.344 303.347 36.976V58H296.651V38.416C296.651 36.208 296.531 34.312 296.291 32.728C296.051 31.144 295.619 29.824 294.995 28.768C294.419 27.712 293.603 26.944 292.547 26.464C291.539 25.936 290.243 25.672 288.659 25.672C287.987 25.672 287.267 25.696 286.499 25.744C285.731 25.792 284.987 25.864 284.267 25.96C283.595 26.008 282.971 26.08 282.395 26.176C281.819 26.272 281.435 26.344 281.243 26.392V58H274.547V21.64Z" fill="#414652"/>
<path d="M366.73 39.28C366.73 42.256 366.299 44.944 365.435 47.344C364.57 49.744 363.346 51.808 361.763 53.536C360.227 55.264 358.379 56.608 356.219 57.568C354.059 58.48 351.707 58.936 349.163 58.936C346.618 58.936 344.267 58.48 342.107 57.568C339.947 56.608 338.075 55.264 336.491 53.536C334.954 51.808 333.755 49.744 332.891 47.344C332.026 44.944 331.595 42.256 331.595 39.28C331.595 36.352 332.026 33.688 332.891 31.288C333.755 28.84 334.954 26.752 336.491 25.024C338.075 23.296 339.947 21.976 342.107 21.064C344.267 20.104 346.618 19.624 349.163 19.624C351.707 19.624 354.059 20.104 356.219 21.064C358.379 21.976 360.227 23.296 361.763 25.024C363.346 26.752 364.57 28.84 365.435 31.288C366.299 33.688 366.73 36.352 366.73 39.28ZM359.746 39.28C359.746 35.056 358.787 31.72 356.867 29.272C354.995 26.776 352.427 25.528 349.163 25.528C345.898 25.528 343.307 26.776 341.387 29.272C339.514 31.72 338.578 35.056 338.578 39.28C338.578 43.504 339.514 46.864 341.387 49.36C343.307 51.808 345.898 53.032 349.163 53.032C352.427 53.032 354.995 51.808 356.867 49.36C358.787 46.864 359.746 43.504 359.746 39.28Z" fill="#414652"/>
</g>
</g>
</svg>
