<svg width="137" height="35" viewBox="0 0 137 35" fill="none" xmlns="http://www.w3.org/2000/svg">
<g id="logo / deriv product / brand-light / deriv x-wordmark" clip-path="url(#clip0_2289_100)">
<g id="wordmark">
<path d="M131.096 34.3514C130.616 33.3914 130.04 32.3354 129.368 31.1834C128.696 29.9994 127.96 28.7834 127.16 27.5354C126.36 26.2554 125.528 24.9914 124.664 23.7434C123.8 22.4634 122.968 21.2634 122.168 20.1434C121.368 21.2634 120.536 22.4634 119.672 23.7434C118.808 24.9914 117.976 26.2554 117.176 27.5354C116.408 28.7834 115.672 29.9994 114.968 31.1834C114.296 32.3354 113.72 33.3914 113.24 34.3514H108.104C109.544 31.5354 111.208 28.6714 113.096 25.7594C115.016 22.8474 117.048 19.8554 119.192 16.7834L108.536 1.08738H113.912L122.12 13.4714L130.232 1.08738H135.56L125.096 16.5914C127.272 19.6954 129.32 22.7194 131.24 25.6634C133.16 28.6074 134.856 31.5034 136.328 34.3514H131.096Z" fill="#414652"/>
<path fill-rule="evenodd" clip-rule="evenodd" d="M20.739 1.08392L18.9667 11.1348H12.8146C7.07515 11.1348 1.60449 15.7849 0.59054 21.5245L0.161365 23.9674C-0.847863 29.707 2.98158 34.3572 8.72108 34.3572H13.8522C18.0354 34.3572 22.0204 30.9709 22.7562 26.7878L27.4817 0L20.739 1.08392ZM16.3738 25.8398C16.1474 27.132 14.984 28.1838 13.6918 28.1838H10.5745C7.9948 28.1838 6.26872 26.0897 6.72144 23.5053L6.99028 21.982C7.44772 19.4022 9.90952 17.3035 12.4892 17.3035H17.879L16.3738 25.8398Z" fill="#FF444F"/>
<path d="M68.1179 34.3589H74.5034L78.5404 11.4572H72.1549L68.1179 34.3589Z" fill="#FF444F"/>
<path d="M68.3306 14.4427L68.3315 14.4375C68.4914 13.532 68.6513 12.6265 68.8108 11.721C62.2586 10.0327 57.155 11.7793 55.0768 12.6399C55.0768 12.6399 52.1123 29.4439 51.2446 34.3643H57.6344C58.6714 28.4837 59.7084 22.6017 60.7439 16.7211C61.7029 16.5299 64.824 16.2305 67.8492 17.1706C68.0094 16.2613 68.17 15.352 68.3306 14.4427Z" fill="#FF444F"/>
<path fill-rule="evenodd" clip-rule="evenodd" d="M42.9138 11.1325H37.9477C33.1043 11.1325 28.4874 15.0563 27.6337 19.8998L26.6292 25.5922C25.7755 30.4356 29.0062 34.3596 33.8496 34.3596H44.423L45.5078 28.205H35.5708C33.958 28.205 32.8779 26.8986 33.1657 25.2809L33.1987 25.0876H49.2193L50.1342 19.8998C50.9876 15.0563 47.7572 11.1325 42.9138 11.1325ZM43.7249 19.4093L43.6872 19.7394H34.1609L34.2127 19.4471C34.5002 17.8341 35.9718 16.4146 37.5892 16.4146H41.3103C42.9091 16.4146 43.9892 17.8106 43.7249 19.4093Z" fill="#FF444F"/>
<path d="M89.6385 26.5628C92.5379 21.3467 95.7343 14.5031 97.0662 11.4572H103.461C101.284 17.2446 96.2959 27.0896 91.4634 34.3589H85.0733C82.8551 27.4403 81.4227 17.8004 81.1494 11.4572H87.5398C87.6551 13.5263 88.5814 21.2011 89.6385 26.5628Z" fill="#FF444F"/>
</g>
</g>
<defs>
<clipPath id="clip0_2289_100">
<rect width="137" height="35" fill="white"/>
</clipPath>
</defs>
</svg>
