<svg width="254" height="72" viewBox="0 0 254 72" fill="none" xmlns="http://www.w3.org/2000/svg">
<g id="logo / brand / white / deriv-25 years-spanish">
<g id="logo">
<path d="M86.991 34.548C85.1287 32.7837 82.7758 31.33 79.9314 30.1851C77.1113 29.0509 73.6333 28.3182 69.7511 27.9869L71.4694 22.6951H58.1009L52.946 38.5671C57.5195 38.5671 61.858 38.8119 65.0291 39.3034C68.1993 39.7931 70.7313 40.4808 72.627 41.3629C74.5226 42.245 75.8935 43.3234 76.745 44.5971C77.5947 45.8717 78.0196 47.293 78.0196 48.861C78.0196 52.5866 76.7774 55.332 74.2931 57.0954C71.8096 58.8597 68.2146 59.7436 63.5097 59.7436C61.0911 59.7436 58.5744 59.3853 55.9614 58.6652C53.3456 57.9469 49.8127 56.6237 47.5246 55.2528H4.37217C4.11113 55.7407 3.69889 56.6624 3.45766 57.1656C2.01927 60.1739 1.00574 63.7339 0.417967 67.8529H43.5164C44.8611 68.5145 46.5956 68.9357 48.1672 69.4515C49.9639 70.0402 51.7938 70.5146 53.6571 70.8728C55.5203 71.2311 57.334 71.5101 59.0983 71.7063C60.8625 71.9026 62.4323 71.9998 63.8041 71.9998C68.509 71.9998 72.6594 71.4273 76.2535 70.2841C79.8468 69.141 82.8541 67.5234 85.2736 65.4315C87.6904 63.3396 89.5051 60.7913 90.7148 57.7858C91.9237 54.7794 92.5294 51.4462 92.5294 47.7853C92.5294 45.2371 92.0704 42.8355 91.1558 40.5798C90.2395 38.3241 88.8515 36.3159 86.9883 34.5498L86.991 34.548Z" fill="white"/>
<path d="M64.0741 4.33419L59.9777 16.9342L97.165 16.927L101.26 4.33419H64.0741Z" fill="white"/>
<path d="M53.631 9.90055C52.7146 7.94006 51.4257 6.22351 49.7596 4.7545C48.0926 3.28368 46.133 2.12431 43.8773 1.27549C41.6216 0.424862 39.1859 0 36.572 0C32.3892 0 28.263 0.451866 24.415 1.96049C17.8991 4.51686 12.9656 8.887 12.9656 8.887L17.6507 19.4113C20.6571 17.1232 23.4339 15.4085 25.983 14.2653C28.5321 13.1221 31.1452 12.5496 33.8258 12.5496C35.7214 12.5496 37.2723 13.1221 38.482 14.2653C39.6918 15.4103 40.2967 16.8325 40.2967 18.5292C40.2967 19.9028 40.0032 21.2098 39.4146 22.4511C38.8259 23.6933 37.8952 25.0183 36.6206 26.4216C35.346 27.8276 33.679 29.3632 31.6205 31.0293C29.561 32.6964 27.0614 34.674 24.1198 36.9603C20.982 39.3799 18.0737 41.6509 15.3932 43.7734C13.1375 45.5611 10.6325 47.473 8.77105 49.492H26.7706C27.3035 49.0653 27.84 48.6458 28.3837 48.2363C30.1155 46.9293 31.8788 45.6547 33.6772 44.4125C35.4738 43.1721 37.2552 41.8633 39.0194 40.4897C42.0258 38.1368 44.5578 36.0134 46.6173 34.1177C48.6767 32.222 50.3248 30.3597 51.5688 28.5288C52.8091 26.6997 53.6913 24.8031 54.217 22.8427C54.739 20.8822 55.0018 18.6615 55.0018 16.1754C55.0018 13.9538 54.5428 11.861 53.6283 9.90055L53.6301 9.89875L53.631 9.90055Z" fill="white"/>
<path d="M136.171 59.2572C135.94 58.7495 135.708 58.1824 135.478 57.5586C135.246 56.9349 135.062 56.276 134.923 55.5829C133.906 56.5082 132.543 57.4317 130.834 58.3553C129.124 59.2788 127.022 59.7415 124.527 59.7415C122.493 59.7415 120.749 59.4174 119.294 58.7711C117.838 58.1248 116.648 57.2238 115.724 56.068C114.799 54.9132 114.118 53.5504 113.679 51.9787C113.239 50.408 113.02 48.6752 113.02 46.7805C113.02 43.6849 113.54 40.6578 114.58 37.6999C115.62 34.743 117.18 32.1092 119.259 29.7986C121.338 27.4888 123.948 25.6175 127.091 24.1845C130.232 22.7523 133.906 22.0358 138.112 22.0358C139.359 22.0358 140.815 22.1745 142.478 22.4517C144.142 22.7289 145.574 23.1916 146.775 23.8379L141.439 45.6022C141.206 46.6662 141.011 47.6815 140.849 48.6518C140.687 49.6222 140.607 50.6393 140.607 51.7015C140.607 52.7636 140.699 53.8393 140.884 54.9249C141.068 56.0113 141.392 57.1779 141.854 58.4255L136.171 59.2572ZM125.843 54.266C127.784 54.266 129.447 53.8501 130.833 53.0184C132.22 52.1867 133.42 51.2163 134.437 50.1074C134.483 49.3224 134.564 48.5024 134.68 47.6464C134.796 46.7922 134.946 45.9253 135.131 45.0468L139.289 27.857C139.057 27.7652 138.676 27.6959 138.145 27.6491C137.613 27.6032 137.14 27.5797 136.724 27.5797C134.09 27.5797 131.709 28.0892 129.585 29.1046C127.459 30.1217 125.645 31.4728 124.144 33.1597C122.641 34.8474 121.486 36.8106 120.678 39.051C119.869 41.2933 119.465 43.6381 119.465 46.0865C119.465 47.0568 119.557 48.0389 119.742 49.0326C119.927 50.0272 120.262 50.904 120.748 51.6664C121.233 52.4288 121.879 53.0526 122.688 53.5378C123.497 54.0229 124.549 54.266 125.843 54.266Z" fill="white"/>
<path d="M149.202 58.8413L157.519 24.1844C159.644 23.5381 161.943 23.0178 164.416 22.6245C166.887 22.232 169.094 22.0349 171.035 22.0349C173.114 22.0349 174.905 22.3238 176.407 22.9017C177.908 23.4805 179.121 24.2654 180.046 25.2583C180.97 26.2529 181.651 27.4537 182.091 28.8624C182.53 30.2729 182.749 31.8085 182.749 33.472C182.749 34.535 182.656 35.6557 182.472 36.834C182.286 38.0122 182.056 39.2022 181.779 40.4039L177.343 58.8413H170.897L174.987 41.7901C175.31 40.4966 175.621 39.1797 175.923 37.8394C176.222 36.5 176.373 35.229 176.373 34.0273C176.373 32.1794 175.864 30.6429 174.848 29.4178C173.831 28.1936 171.937 27.5806 169.165 27.5806C168.009 27.5806 166.877 27.6499 165.768 27.7885C164.66 27.9272 163.734 28.1126 162.996 28.343L155.649 58.8413H149.202ZM175.402 9.8363C176.095 10.2063 176.718 10.5069 177.273 10.7373C177.827 10.9687 178.382 11.0839 178.936 11.0839C179.907 11.0839 180.715 10.7265 181.362 10.0091C182.008 9.29352 182.586 8.54281 183.095 7.7561L186.352 9.76609C185.427 11.7068 184.331 13.1974 183.06 14.237C181.789 15.2767 180.114 15.797 178.034 15.797C177.109 15.797 176.29 15.6359 175.573 15.3118C174.857 14.9887 174.176 14.6421 173.529 14.2722C172.836 13.9031 172.212 13.6025 171.658 13.3711C171.103 13.1407 170.549 13.0246 169.995 13.0246C169.024 13.0246 168.215 13.3828 167.569 14.0993C166.921 14.8167 166.344 15.5665 165.836 16.3524L162.578 14.3424C163.502 12.4017 164.599 10.9111 165.871 9.87141C167.141 8.83175 168.817 8.31148 170.896 8.31148C171.82 8.31148 172.64 8.4735 173.357 8.79665C174.073 9.1207 174.753 9.46725 175.402 9.8363Z" fill="white"/>
<path d="M201.186 59.7423C197.396 59.7423 194.428 58.6225 192.279 56.3803C190.13 54.1399 189.056 51.0551 189.056 47.1269C189.056 44.4472 189.437 41.628 190.2 38.6711C190.962 35.7142 192.175 32.9877 193.839 30.4925C195.502 27.9973 197.651 25.9414 200.285 24.3239C202.918 22.7073 206.107 21.898 209.85 21.898C213.594 21.898 216.608 23.0187 218.757 25.26C220.905 27.5023 221.98 30.5861 221.98 34.5134C221.98 37.194 221.598 40.0132 220.836 42.9692C220.074 45.9271 218.86 48.6527 217.197 51.1478C215.533 53.643 213.385 55.6998 210.751 57.3164C208.117 58.9331 204.929 59.7423 201.186 59.7423ZM202.295 54.2659C204.374 54.2659 206.233 53.6655 207.874 52.4638C209.514 51.263 210.901 49.7256 212.033 47.8542C213.164 45.9829 214.031 43.9153 214.632 41.6505C215.233 39.3867 215.533 37.1913 215.533 35.0661C215.533 32.7095 215.025 30.8381 214.009 29.4519C212.992 28.0657 211.236 27.3726 208.741 27.3726C206.662 27.3726 204.801 27.9739 203.161 29.1747C201.52 30.3773 200.134 31.9129 199.003 33.7843C197.87 35.6556 197.004 37.7242 196.403 39.988C195.802 42.2527 195.502 44.4481 195.502 46.5725C195.502 48.929 196.01 50.8004 197.027 52.1866C198.043 53.5728 199.799 54.2659 202.295 54.2659Z" fill="white"/>
<path d="M234.871 54.3352C235.842 54.3352 236.823 54.2434 237.817 54.058C238.81 53.8735 239.689 53.5728 240.451 53.157C241.214 52.7411 241.837 52.1758 242.322 51.4584C242.808 50.7428 243.05 49.8535 243.05 48.7895C243.05 48.0964 242.934 47.4843 242.703 46.9523C242.471 46.4213 242.102 45.9244 241.594 45.4617C241.086 45 240.45 44.5499 239.688 44.1097C238.925 43.6714 238.013 43.1736 236.95 42.6191C235.886 42.1114 234.915 41.6029 234.039 41.0943C233.16 40.5866 232.386 39.9853 231.716 39.2922C231.046 38.5991 230.526 37.7791 230.157 36.8313C229.786 35.8843 229.602 34.7412 229.602 33.4C229.602 29.9344 230.85 27.1512 233.345 25.0476C235.84 22.9458 239.467 21.8936 244.227 21.8936C246.445 21.8936 248.396 22.1132 250.084 22.5525C251.77 22.9917 252.937 23.3959 253.585 23.7658L251.159 29.0334C250.511 28.6644 249.471 28.271 248.04 27.8551C246.607 27.4393 245.013 27.2314 243.258 27.2314C242.379 27.2314 241.501 27.3241 240.624 27.5086C239.745 27.694 238.949 28.0055 238.232 28.4447C237.516 28.8849 236.938 29.4619 236.5 30.1775C236.06 30.8949 235.841 31.7608 235.841 32.7771C235.841 34.0246 236.326 35.0535 237.296 35.8618C238.267 36.671 239.722 37.5145 241.663 38.3921C242.863 38.9466 243.938 39.5128 244.886 40.0906C245.833 40.6685 246.641 41.3157 247.312 42.0313C247.981 42.7478 248.49 43.5913 248.837 44.5616C249.183 45.5319 249.357 46.6877 249.357 48.0271C249.357 49.9678 248.986 51.678 248.248 53.1561C247.508 54.6359 246.48 55.8591 245.163 56.8295C243.846 57.7998 242.286 58.528 240.484 59.0132C238.682 59.4984 236.717 59.7414 234.593 59.7414C233.022 59.7414 231.601 59.637 230.33 59.4291C229.059 59.2211 227.949 58.9781 227.003 58.7009C226.056 58.4236 225.271 58.1356 224.647 57.834C224.023 57.5343 223.549 57.2913 223.226 57.1058L225.721 51.8383C226.044 52.0237 226.494 52.2541 227.073 52.5314C227.65 52.8086 228.343 53.0858 229.152 53.3631C229.96 53.6403 230.851 53.8717 231.821 54.0562C232.791 54.2416 233.807 54.3334 234.87 54.3334L234.871 54.3352Z" fill="white"/>
</g>
</g>
</svg>
