<svg width="349" height="72" viewBox="0 0 349 72" fill="none" xmlns="http://www.w3.org/2000/svg">
<g id="logo / partners product / black / deriv ctrader-logo-wordmark">
<g id="logo">
<path d="M0 13.5C0 6.04416 6.04416 0 13.5 0H58.5C65.9558 0 72 6.04416 72 13.5V58.5C72 65.9558 65.9558 72 58.5 72H13.5C6.04416 72 0 65.9558 0 58.5V13.5Z" fill="#414652"/>
<path d="M13.5 0C6.04416 0 0 6.04416 0 13.5V13.8921L67.3075 3.26845C64.9433 1.2315 61.8655 0 58.5 0H13.5Z" fill="#303541"/>
<path d="M68.6969 4.65243L56.3498 71.9999L58.5 72C65.9558 72 72 65.9558 72 58.5V13.5C72 10.1155 70.7545 7.02183 68.6969 4.65243Z" fill="#303541"/>
<path d="M20.2656 38.4097C20.2656 37.2127 20.4546 36.0892 20.8326 35.0392C21.2316 33.9682 21.7986 33.0442 22.5336 32.2672C23.2686 31.4692 24.1611 30.8392 25.2111 30.3772C26.2611 29.9152 27.4581 29.6842 28.8021 29.6842C29.6841 29.6842 30.4926 29.7682 31.2276 29.9362C31.9626 30.0832 32.6766 30.3037 33.3696 30.5977L32.3931 34.3462C31.9521 34.1782 31.4691 34.0312 30.9441 33.9052C30.4191 33.7792 29.8311 33.7162 29.1801 33.7162C27.7941 33.7162 26.7546 34.1467 26.0616 35.0077C25.3896 35.8687 25.0536 37.0027 25.0536 38.4097C25.0536 39.9007 25.3686 41.0557 25.9986 41.8747C26.6496 42.6937 27.7731 43.1032 29.3691 43.1032C29.9361 43.1032 30.5451 43.0507 31.1961 42.9457C31.8471 42.8407 32.4456 42.6727 32.9916 42.4417L33.6531 46.2847C33.1071 46.5157 32.4246 46.7152 31.6056 46.8832C30.7866 47.0512 29.8836 47.1352 28.8966 47.1352C27.3846 47.1352 26.0826 46.9147 24.9906 46.4737C23.8986 46.0117 22.9956 45.3922 22.2816 44.6152C21.5886 43.8382 21.0741 42.9247 20.7381 41.8747C20.4231 40.8037 20.2656 39.6487 20.2656 38.4097Z" fill="#E22526"/>
<path d="M51.7341 24.8647V29.0542H45.1506V46.6942H40.2366V29.0542H33.6531V24.8647H51.7341Z" fill="#E22526"/>
</g>
<g id="wordmark">
<path fill-rule="evenodd" clip-rule="evenodd" d="M108.739 21.0748L106.967 31.1257H100.815C95.0752 31.1257 89.6045 35.7759 88.5905 41.5154L88.1614 43.9584C87.1521 49.6979 90.9816 54.3481 96.7211 54.3481H101.852C106.035 54.3481 110.02 50.9618 110.756 46.7787L115.482 19.9909L108.739 21.0748ZM104.374 45.8307C104.147 47.1229 102.984 48.1747 101.692 48.1747H98.5745C95.9948 48.1747 94.2687 46.0806 94.7214 43.4962L94.9903 41.9729C95.4477 39.3931 97.9095 37.2944 100.489 37.2944H105.879L104.374 45.8307Z" fill="#414652"/>
<path d="M156.118 54.3498H162.503L166.54 31.4481H160.155L156.118 54.3498Z" fill="#414652"/>
<path d="M156.331 34.4336L156.331 34.4284C156.491 33.5229 156.651 32.6174 156.811 31.7119C150.259 30.0236 145.155 31.7702 143.077 32.6309C143.077 32.6309 140.112 49.4348 139.245 54.3552H145.634C146.671 48.4746 147.708 42.5926 148.744 36.712C149.703 36.5208 152.824 36.2214 155.849 37.1615C156.009 36.2522 156.17 35.3429 156.331 34.4336Z" fill="#414652"/>
<path fill-rule="evenodd" clip-rule="evenodd" d="M130.914 31.1234H125.948C121.104 31.1234 116.487 35.0472 115.634 39.8907L114.629 45.5831C113.776 50.4265 117.006 54.3505 121.85 54.3505H132.423L133.508 48.1959H123.571C121.958 48.1959 120.878 46.8895 121.166 45.2718L121.199 45.0785H137.219L138.134 39.8907C138.988 35.0472 135.757 31.1234 130.914 31.1234ZM131.725 39.4002L131.687 39.7304H122.161L122.213 39.438C122.5 37.8251 123.972 36.4055 125.589 36.4055H129.31C130.909 36.4055 131.989 37.8015 131.725 39.4002Z" fill="#414652"/>
<path d="M177.639 46.5538C180.538 41.3376 183.734 34.494 185.066 31.4481H191.461C189.284 37.2356 184.296 47.0805 179.463 54.3498H173.073C170.855 47.4312 169.423 37.7913 169.149 31.4481H175.54C175.655 33.5172 176.581 41.1921 177.639 46.5538Z" fill="#414652"/>
<path d="M210.688 54.912C208.672 54.912 206.896 54.592 205.36 53.952C203.856 53.312 202.576 52.416 201.52 51.264C200.496 50.112 199.728 48.752 199.216 47.184C198.704 45.584 198.448 43.824 198.448 41.904C198.448 39.984 198.72 38.224 199.264 36.624C199.84 35.024 200.64 33.648 201.664 32.496C202.688 31.312 203.936 30.4 205.408 29.76C206.912 29.088 208.576 28.752 210.4 28.752C211.52 28.752 212.64 28.848 213.76 29.04C214.88 29.232 215.952 29.536 216.976 29.952L215.968 33.744C215.296 33.424 214.512 33.168 213.616 32.976C212.752 32.784 211.824 32.688 210.832 32.688C208.336 32.688 206.416 33.472 205.072 35.04C203.76 36.608 203.104 38.896 203.104 41.904C203.104 43.248 203.248 44.48 203.536 45.6C203.856 46.72 204.336 47.68 204.976 48.48C205.648 49.28 206.496 49.904 207.52 50.352C208.544 50.768 209.792 50.976 211.264 50.976C212.448 50.976 213.52 50.864 214.48 50.64C215.44 50.416 216.192 50.176 216.736 49.92L217.36 53.664C217.104 53.824 216.736 53.984 216.256 54.144C215.776 54.272 215.232 54.384 214.624 54.48C214.016 54.608 213.36 54.704 212.656 54.768C211.984 54.864 211.328 54.912 210.688 54.912Z" fill="#414652"/>
<path d="M242.745 21.072V25.104H232.281V54.336H227.624V25.104H217.161V21.072H242.745Z" fill="#414652"/>
<path d="M252.747 28.848C253.131 28.848 253.563 28.88 254.043 28.944C254.555 28.976 255.051 29.04 255.531 29.136C256.011 29.2 256.443 29.28 256.827 29.376C257.243 29.44 257.547 29.504 257.739 29.568L256.971 33.456C256.619 33.328 256.027 33.184 255.195 33.024C254.395 32.832 253.355 32.736 252.075 32.736C251.243 32.736 250.411 32.832 249.579 33.024C248.779 33.184 248.251 33.296 247.995 33.36V54.336H243.531V30.432C244.587 30.048 245.899 29.696 247.467 29.376C249.035 29.024 250.795 28.848 252.747 28.848Z" fill="#414652"/>
<path d="M268.575 51.12C269.631 51.12 270.559 51.104 271.359 51.072C272.191 51.008 272.879 50.912 273.423 50.784V43.344C273.103 43.184 272.575 43.056 271.839 42.96C271.135 42.832 270.271 42.768 269.247 42.768C268.575 42.768 267.855 42.816 267.087 42.912C266.351 43.008 265.663 43.216 265.023 43.536C264.415 43.824 263.903 44.24 263.487 44.784C263.071 45.296 262.863 45.984 262.863 46.848C262.863 48.448 263.375 49.568 264.399 50.208C265.423 50.816 266.815 51.12 268.575 51.12ZM268.191 28.752C269.983 28.752 271.487 28.992 272.703 29.472C273.951 29.92 274.943 30.576 275.679 31.44C276.447 32.272 276.991 33.28 277.311 34.464C277.631 35.616 277.791 36.896 277.791 38.304V53.904C277.407 53.968 276.863 54.064 276.159 54.192C275.487 54.288 274.719 54.384 273.855 54.48C272.991 54.576 272.047 54.656 271.023 54.72C270.031 54.816 269.039 54.864 268.047 54.864C266.639 54.864 265.343 54.72 264.159 54.432C262.975 54.144 261.951 53.696 261.087 53.088C260.223 52.448 259.551 51.616 259.071 50.592C258.591 49.568 258.351 48.336 258.351 46.896C258.351 45.52 258.623 44.336 259.167 43.344C259.743 42.352 260.511 41.552 261.471 40.944C262.431 40.336 263.551 39.888 264.831 39.6C266.111 39.312 267.455 39.168 268.863 39.168C269.311 39.168 269.775 39.2 270.255 39.264C270.735 39.296 271.183 39.36 271.599 39.456C272.047 39.52 272.431 39.584 272.751 39.648C273.071 39.712 273.295 39.76 273.423 39.792V38.544C273.423 37.808 273.343 37.088 273.183 36.384C273.023 35.648 272.735 35.008 272.319 34.464C271.903 33.888 271.327 33.44 270.591 33.12C269.887 32.768 268.959 32.592 267.807 32.592C266.335 32.592 265.039 32.704 263.919 32.928C262.831 33.12 262.015 33.328 261.471 33.552L260.943 29.856C261.519 29.6 262.479 29.36 263.823 29.136C265.167 28.88 266.623 28.752 268.191 28.752Z" fill="#414652"/>
<path d="M299.413 34.656C298.869 34.208 298.085 33.776 297.061 33.36C296.037 32.944 294.917 32.736 293.701 32.736C292.421 32.736 291.317 32.976 290.389 33.456C289.493 33.904 288.757 34.544 288.181 35.376C287.605 36.176 287.189 37.136 286.933 38.256C286.677 39.376 286.549 40.576 286.549 41.856C286.549 44.768 287.269 47.024 288.709 48.624C290.149 50.192 292.069 50.976 294.469 50.976C295.685 50.976 296.693 50.928 297.493 50.832C298.325 50.704 298.965 50.576 299.413 50.448V34.656ZM299.413 17.856L303.877 17.088V53.616C302.853 53.904 301.541 54.192 299.941 54.48C298.341 54.768 296.501 54.912 294.421 54.912C292.501 54.912 290.773 54.608 289.237 54C287.701 53.392 286.389 52.528 285.301 51.408C284.213 50.288 283.365 48.928 282.757 47.328C282.181 45.696 281.893 43.872 281.893 41.856C281.893 39.936 282.133 38.176 282.613 36.576C283.125 34.976 283.861 33.6 284.821 32.448C285.781 31.296 286.949 30.4 288.325 29.76C289.733 29.12 291.333 28.8 293.125 28.8C294.565 28.8 295.829 28.992 296.917 29.376C298.037 29.76 298.869 30.128 299.413 30.48V17.856Z" fill="#414652"/>
<path d="M308.239 41.904C308.239 39.696 308.559 37.776 309.199 36.144C309.839 34.48 310.687 33.104 311.743 32.016C312.799 30.928 314.015 30.112 315.391 29.568C316.767 29.024 318.175 28.752 319.615 28.752C322.975 28.752 325.551 29.808 327.343 31.92C329.135 34 330.031 37.184 330.031 41.472C330.031 41.664 330.031 41.92 330.031 42.24C330.031 42.528 330.015 42.8 329.983 43.056H312.895C313.087 45.648 313.839 47.616 315.151 48.96C316.463 50.304 318.511 50.976 321.295 50.976C322.863 50.976 324.175 50.848 325.231 50.592C326.319 50.304 327.135 50.032 327.679 49.776L328.303 53.52C327.759 53.808 326.799 54.112 325.423 54.432C324.079 54.752 322.543 54.912 320.815 54.912C318.639 54.912 316.751 54.592 315.151 53.952C313.583 53.28 312.287 52.368 311.263 51.216C310.239 50.064 309.471 48.704 308.959 47.136C308.479 45.536 308.239 43.792 308.239 41.904ZM325.375 39.456C325.407 37.44 324.895 35.792 323.839 34.512C322.815 33.2 321.391 32.544 319.567 32.544C318.543 32.544 317.631 32.752 316.831 33.168C316.063 33.552 315.407 34.064 314.863 34.704C314.319 35.344 313.887 36.08 313.567 36.912C313.279 37.744 313.087 38.592 312.991 39.456H325.375Z" fill="#414652"/>
<path d="M343.739 28.848C344.123 28.848 344.555 28.88 345.035 28.944C345.547 28.976 346.043 29.04 346.523 29.136C347.003 29.2 347.435 29.28 347.819 29.376C348.235 29.44 348.539 29.504 348.731 29.568L347.963 33.456C347.611 33.328 347.019 33.184 346.187 33.024C345.387 32.832 344.347 32.736 343.067 32.736C342.235 32.736 341.403 32.832 340.571 33.024C339.771 33.184 339.243 33.296 338.987 33.36V54.336H334.523V30.432C335.579 30.048 336.891 29.696 338.459 29.376C340.027 29.024 341.787 28.848 343.739 28.848Z" fill="#414652"/>
</g>
</g>
</svg>
