<svg width="276" height="72" viewBox="0 0 276 72" fill="none" xmlns="http://www.w3.org/2000/svg">
<g id="logo / deriv product / brand-light / deriv p2p-logo-wordmark">
<g id="logo">
<path d="M0 13.5C0 6.04416 6.04416 0 13.5 0H58.5C65.9558 0 72 6.04416 72 13.5V58.5C72 65.9558 65.9558 72 58.5 72H13.5C6.04416 72 0 65.9558 0 58.5V13.5Z" fill="#FF444F"/>
<path d="M13.5 0C6.04416 0 0 6.04416 0 13.5V13.8921L67.3075 3.26845C64.9433 1.2315 61.8655 0 58.5 0H13.5Z" fill="#E12E3A"/>
<path d="M68.6969 4.65243L56.3498 71.9999L58.5 72C65.9558 72 72 65.9558 72 58.5V13.5C72 10.1155 70.7545 7.02183 68.6969 4.65243Z" fill="#E12E3A"/>
<path d="M18.086 25.8649C21.1085 25.8649 23.429 26.4011 25.0475 27.4736C26.666 28.5266 27.4752 30.2621 27.4752 32.6801C27.4752 35.1176 26.6562 36.8824 25.0182 37.9744C23.3802 39.0469 21.0402 39.5831 17.9982 39.5831H16.565V46.3691H12.002V26.3914C12.9965 26.1964 14.0495 26.0599 15.161 25.9819C16.2725 25.9039 17.2475 25.8649 18.086 25.8649ZM18.3785 29.7551C18.047 29.7551 17.7155 29.7649 17.384 29.7844C17.072 29.8039 16.799 29.8234 16.565 29.8429V35.6929H17.9982C19.5777 35.6929 20.7672 35.4784 21.5667 35.0494C22.3662 34.6204 22.766 33.8209 22.766 32.6509C22.766 32.0854 22.6587 31.6174 22.4442 31.2469C22.2492 30.8764 21.9567 30.5839 21.5667 30.3694C21.1962 30.1354 20.738 29.9794 20.192 29.9014C19.646 29.8039 19.0415 29.7551 18.3785 29.7551Z" fill="white"/>
<path d="M41.5314 31.4224C41.5314 32.1634 41.3852 32.8751 41.0927 33.5576C40.8002 34.2401 40.4199 34.9031 39.9519 35.5466C39.4839 36.1706 38.9574 36.7751 38.3724 37.3601C37.7874 37.9451 37.2122 38.5009 36.6467 39.0274C36.3542 39.3004 36.0324 39.6124 35.6814 39.9634C35.3499 40.2949 35.0282 40.6361 34.7162 40.9871C34.4042 41.3381 34.1214 41.6696 33.8679 41.9816C33.6339 42.2741 33.4877 42.5179 33.4292 42.7129H42.1457V46.3691H28.6322C28.5932 46.1546 28.5737 45.8816 28.5737 45.5501C28.5737 45.2186 28.5737 44.9846 28.5737 44.8481C28.5737 43.9121 28.7199 43.0541 29.0124 42.2741C29.3244 41.4941 29.7242 40.7726 30.2117 40.1096C30.6992 39.4271 31.2452 38.7934 31.8497 38.2084C32.4737 37.6234 33.0879 37.0384 33.6924 36.4534C34.1604 36.0049 34.5992 35.5856 35.0087 35.1956C35.4182 34.7861 35.7789 34.3961 36.0909 34.0256C36.4029 33.6356 36.6467 33.2554 36.8222 32.8849C36.9977 32.4949 37.0854 32.1049 37.0854 31.7149C37.0854 30.8569 36.8417 30.2524 36.3542 29.9014C35.8667 29.5504 35.2622 29.3749 34.5407 29.3749C34.0142 29.3749 33.5169 29.4626 33.0489 29.6381C32.6004 29.7941 32.1812 29.9891 31.7912 30.2231C31.4207 30.4376 31.0989 30.6619 30.8259 30.8959C30.5529 31.1104 30.3482 31.2859 30.2117 31.4224L28.0472 28.3804C28.9052 27.5809 29.8997 26.9276 31.0307 26.4206C32.1812 25.8941 33.4097 25.6309 34.7162 25.6309C35.9057 25.6309 36.9294 25.7674 37.7874 26.0404C38.6454 26.3134 39.3474 26.7034 39.8934 27.2104C40.4589 27.6979 40.8684 28.3024 41.1219 29.0239C41.3949 29.7259 41.5314 30.5254 41.5314 31.4224Z" fill="white"/>
<path d="M50.6094 25.8649C53.6319 25.8649 55.9524 26.4011 57.5709 27.4736C59.1894 28.5266 59.9987 30.2621 59.9987 32.6801C59.9987 35.1176 59.1797 36.8824 57.5417 37.9744C55.9037 39.0469 53.5637 39.5831 50.5217 39.5831H49.0884V46.3691H44.5254V26.3914C45.5199 26.1964 46.5729 26.0599 47.6844 25.9819C48.7959 25.9039 49.7709 25.8649 50.6094 25.8649ZM50.9019 29.7551C50.5704 29.7551 50.2389 29.7649 49.9074 29.7844C49.5954 29.8039 49.3224 29.8234 49.0884 29.8429V35.6929H50.5217C52.1012 35.6929 53.2907 35.4784 54.0902 35.0494C54.8897 34.6204 55.2894 33.8209 55.2894 32.6509C55.2894 32.0854 55.1822 31.6174 54.9677 31.2469C54.7727 30.8764 54.4802 30.5839 54.0902 30.3694C53.7197 30.1354 53.2614 29.9794 52.7154 29.9014C52.1694 29.8039 51.5649 29.7551 50.9019 29.7551Z" fill="white"/>
</g>
<g id="wordmark">
<path fill-rule="evenodd" clip-rule="evenodd" d="M108.739 19.9018L106.967 29.9527H100.815C95.0752 29.9527 89.6045 34.6028 88.5905 40.3423L88.1614 42.7853C87.1521 48.5249 90.9816 53.1751 96.7211 53.1751H101.852C106.035 53.1751 110.02 49.7887 110.756 45.6056L115.482 18.8178L108.739 19.9018ZM104.374 44.6576C104.147 45.9498 102.984 47.0016 101.692 47.0016H98.5745C95.9948 47.0016 94.2687 44.9075 94.7214 42.3231L94.9903 40.7998C95.4477 38.22 97.9095 36.1214 100.489 36.1214H105.879L104.374 44.6576Z" fill="#414652"/>
<path d="M156.118 53.1767H162.503L166.54 30.275H160.155L156.118 53.1767Z" fill="#414652"/>
<path d="M156.331 33.2606L156.331 33.2553C156.491 32.3498 156.651 31.4443 156.811 30.5389C150.259 28.8505 145.155 30.5972 143.077 31.4578C143.077 31.4578 140.112 48.2617 139.245 53.1821H145.634C146.671 47.3015 147.708 41.4195 148.744 35.5389C149.703 35.3477 152.824 35.0483 155.849 35.9884C156.009 35.0791 156.17 34.1698 156.331 33.2606Z" fill="#414652"/>
<path fill-rule="evenodd" clip-rule="evenodd" d="M130.914 29.9503H125.948C121.104 29.9503 116.487 33.8742 115.634 38.7176L114.629 44.41C113.776 49.2535 117.006 53.1774 121.85 53.1774H132.423L133.508 47.0228H123.571C121.958 47.0228 120.878 45.7164 121.166 44.0988L121.199 43.9054H137.219L138.134 38.7176C138.988 33.8742 135.757 29.9503 130.914 29.9503ZM131.725 38.2272L131.687 38.5573H122.161L122.213 38.2649C122.5 36.652 123.972 35.2324 125.589 35.2324H129.31C130.909 35.2324 131.989 36.6284 131.725 38.2272Z" fill="#414652"/>
<path d="M177.639 45.3807C180.538 40.1645 183.734 33.3209 185.066 30.275H191.461C189.284 36.0625 184.296 45.9074 179.463 53.1767H173.073C170.855 46.2581 169.423 36.6182 169.149 30.275H175.54C175.655 32.3441 176.581 40.019 177.639 45.3807Z" fill="#414652"/>
<path d="M208.96 19.5629C213.632 19.5629 217.216 20.4589 219.712 22.2509C222.24 24.0109 223.504 26.6509 223.504 30.1709C223.504 32.0909 223.152 33.7389 222.448 35.1149C221.776 36.4589 220.784 37.5629 219.472 38.4269C218.192 39.2589 216.624 39.8669 214.768 40.2509C212.912 40.6349 210.816 40.8269 208.48 40.8269H204.784V53.1629H200.128V20.3789C201.44 20.0589 202.896 19.8509 204.496 19.7549C206.128 19.6269 207.616 19.5629 208.96 19.5629ZM209.344 23.6429C207.36 23.6429 205.84 23.6909 204.784 23.7869V36.8429H208.288C209.888 36.8429 211.328 36.7469 212.608 36.5549C213.888 36.3309 214.96 35.9789 215.824 35.4989C216.72 34.9869 217.408 34.2989 217.888 33.4349C218.368 32.5709 218.608 31.4669 218.608 30.1229C218.608 28.8429 218.352 27.7869 217.84 26.9549C217.36 26.1229 216.688 25.4669 215.824 24.9869C214.992 24.4749 214.016 24.1229 212.896 23.9309C211.776 23.7389 210.592 23.6429 209.344 23.6429Z" fill="#414652"/>
<path d="M245.699 28.3949C245.699 29.5469 245.459 30.6669 244.979 31.7549C244.531 32.8109 243.923 33.8669 243.155 34.9229C242.387 35.9469 241.523 36.9709 240.563 37.9949C239.603 38.9869 238.643 39.9629 237.683 40.9229C237.139 41.4669 236.499 42.1069 235.763 42.8429C235.059 43.5789 234.387 44.3469 233.747 45.1469C233.107 45.9469 232.563 46.7149 232.115 47.4509C231.699 48.1869 231.491 48.8269 231.491 49.3709H246.803V53.1629H226.643C226.611 52.9709 226.595 52.7789 226.595 52.5869C226.595 52.3949 226.595 52.2189 226.595 52.0589C226.595 50.5549 226.835 49.1629 227.315 47.8829C227.827 46.5709 228.483 45.3389 229.283 44.1869C230.083 43.0349 230.979 41.9469 231.971 40.9229C232.963 39.8989 233.939 38.9069 234.899 37.9469C235.699 37.1789 236.451 36.4269 237.155 35.6909C237.891 34.9229 238.531 34.1709 239.075 33.4349C239.651 32.6669 240.099 31.8829 240.419 31.0829C240.771 30.2829 240.947 29.4349 240.947 28.5389C240.947 27.5789 240.787 26.7629 240.467 26.0909C240.179 25.4189 239.779 24.8589 239.267 24.4109C238.755 23.9629 238.147 23.6429 237.443 23.4509C236.771 23.2269 236.051 23.1149 235.283 23.1149C234.355 23.1149 233.507 23.2429 232.739 23.4989C231.971 23.7549 231.283 24.0589 230.675 24.4109C230.067 24.7309 229.555 25.0829 229.139 25.4669C228.723 25.8189 228.403 26.0909 228.179 26.2829L225.971 23.1149C226.259 22.7949 226.691 22.4109 227.267 21.9629C227.843 21.4829 228.531 21.0349 229.331 20.6189C230.131 20.2029 231.027 19.8509 232.019 19.5629C233.011 19.2749 234.083 19.1309 235.235 19.1309C238.723 19.1309 241.331 19.9469 243.059 21.5789C244.819 23.1789 245.699 25.4509 245.699 28.3949Z" fill="#414652"/>
<path d="M261.417 19.5629C266.089 19.5629 269.673 20.4589 272.169 22.2509C274.697 24.0109 275.961 26.6509 275.961 30.1709C275.961 32.0909 275.609 33.7389 274.905 35.1149C274.233 36.4589 273.241 37.5629 271.929 38.4269C270.649 39.2589 269.081 39.8669 267.225 40.2509C265.369 40.6349 263.273 40.8269 260.937 40.8269H257.241V53.1629H252.585V20.3789C253.897 20.0589 255.353 19.8509 256.953 19.7549C258.585 19.6269 260.073 19.5629 261.417 19.5629ZM261.801 23.6429C259.817 23.6429 258.297 23.6909 257.241 23.7869V36.8429H260.745C262.345 36.8429 263.785 36.7469 265.065 36.5549C266.345 36.3309 267.417 35.9789 268.281 35.4989C269.177 34.9869 269.865 34.2989 270.345 33.4349C270.825 32.5709 271.065 31.4669 271.065 30.1229C271.065 28.8429 270.809 27.7869 270.297 26.9549C269.817 26.1229 269.145 25.4669 268.281 24.9869C267.449 24.4749 266.473 24.1229 265.353 23.9309C264.233 23.7389 263.049 23.6429 261.801 23.6429Z" fill="#414652"/>
</g>
</g>
</svg>
