<svg width="295" height="72" viewBox="0 0 295 72" fill="none" xmlns="http://www.w3.org/2000/svg">
<g id="logo / partners product / brand-dark / deriv ctrader-thirdparty-horizontal-logo-wordmark">
<g id="wordmark">
<path d="M164.027 36.0316C164.615 31.5951 168.585 25.4436 179.031 25.4436C189.476 25.4436 192.705 29.7262 193.155 35.6662C193.283 37.3924 193.346 38.9912 193.346 40.9073V60.0773H185.633L184.621 55.5561H184.15C182.848 58.325 178.956 60.9723 174.049 60.9723C167.85 60.9723 162.995 57.4569 162.995 50.8762C162.995 42.4427 169.448 39.3724 182.488 39.3724H184.341V38.1596C184.341 34.835 183.255 32.7281 178.655 32.7281C174.632 32.7281 173.16 34.2212 172.673 36.0316M171.873 49.7912C171.873 52.2846 173.853 53.6873 176.987 53.6873C180.566 53.6873 184.335 51.2415 184.335 47.165V45.635C184.335 45.635 171.873 43.9196 171.873 49.7912Z" fill="#FDFDFF"/>
<path d="M162.99 25.9782L161.184 34.7662C158.029 33.5116 154.334 34.1578 152.391 36.1162C149.76 38.7689 149.86 43.2689 149.86 45.4501V60.0827H140.723V26.3382H149.595L148.425 31.6428H148.897C151.327 26.8939 156.785 25.3905 162.984 25.9782H162.99Z" fill="#FDFDFF"/>
<path d="M294.49 25.9782L292.685 34.7662C289.529 33.5116 285.834 34.1578 283.891 36.1162C281.26 38.7689 281.36 43.2689 281.36 45.4501V60.0827H272.223V26.3382H281.096L279.926 31.6428H280.397C282.827 26.8939 288.285 25.3905 294.485 25.9782H294.49Z" fill="#FDFDFF"/>
<path d="M146.642 12.0968L144.82 20.2762H131.712V60.0773H122.172V20.2762H108.344V12.0968H146.647H146.642Z" fill="#FDFDFF"/>
<path d="M231.225 12.7694L231.183 60.1038H223.104L222.087 55.53H221.616C220.409 58.3623 216.889 60.9989 211.844 60.9989C201.679 60.9989 197.253 52.5812 197.253 42.4427C197.253 31.2513 203.082 24.8613 212.463 24.8613C216.698 24.8613 220.214 26.9578 221.908 30.0655H222.151L222.194 11.0065L231.225 12.7747V12.7694ZM206.624 42.5066C206.624 48.4516 208.926 52.6658 214.422 52.6658C218.959 52.6658 222.156 50.1089 222.156 42.6335V41.4212C222.156 39.666 221.938 38.2058 221.554 37C220.333 33.1575 217.438 31.897 214.618 31.897C209.186 31.897 206.629 35.7935 206.629 42.5066H206.624Z" fill="#FDFDFF"/>
<path d="M252.269 25.4436C263.324 25.4436 267.987 32.6647 267.987 42.6335C267.987 43.5916 267.924 44.8673 267.861 45.9581H244.789C245.366 51.6439 247.923 53.6292 252.137 53.6292C255.652 53.6292 257.632 52.2846 258.527 49.7962H267.41C266.198 56.8904 260.697 60.9773 251.946 60.9773C241.083 60.9773 235.461 55.0323 235.461 43.4012C235.461 32.4104 240.765 25.4436 252.269 25.4436ZM244.857 39.5681H258.792C258.278 34.6496 255.726 32.7281 251.888 32.7281C247.859 32.7281 245.435 34.5173 244.857 39.5681Z" fill="#FDFDFF"/>
<path d="M101.049 25.4436C111.785 25.4436 115.745 30.6213 116.385 38.0962H107.312C106.994 34.5812 104.564 32.7916 100.922 32.7916C96.2575 32.7916 93.7006 36.0527 93.7006 43.0781C93.7006 50.1035 96.0032 53.5604 100.858 53.5604C104.31 53.5604 106.867 51.4535 107.312 48.3193H116.385C115.491 55.9904 110.441 60.9723 100.472 60.9723C89.2217 60.9723 84.1763 54.5184 84.1763 43.2685C84.1763 32.0185 89.2267 25.4382 101.049 25.4382V25.4436Z" fill="#FDFDFF"/>
<path d="M35.9999 0C16.147 0 0 16.147 0 36.0001C0 55.8527 16.147 72 35.9999 72C55.853 72 71.9998 55.8527 71.9998 36.0001C71.9998 16.147 55.853 0 35.9999 0ZM35.9999 5.78644C52.131 5.78644 65.3506 18.4923 66.171 34.4224C66.1975 34.9462 66.2133 35.4704 66.2133 36.0001C66.2133 51.4639 54.3018 57.1923 47.9222 58.0127C37.8319 59.31 29.3345 53.8623 29.3345 43.2001C29.3345 33.0935 40.5107 24.3424 54.6668 28.6516L56.4987 20.409C51.3687 17.9153 45.8522 16.7823 40.463 16.7823C19.7417 16.7823 6.78175 32.1936 7.97821 46.1858C7.86706 46.2439 7.71352 46.3289 7.55998 46.4135C6.61233 43.2847 6.1041 39.8062 6.1041 36.0001C6.1041 19.3394 19.3394 5.78644 35.9999 5.78644Z" fill="#FF101F"/>
</g>
</g>
</svg>
