<svg width="172" height="72" viewBox="0 0 172 72" fill="none" xmlns="http://www.w3.org/2000/svg">
<g id="logo / brand / teal / deriv-wordmark vertical-25 years-french">
<g id="logo">
<path d="M69.3755 42.0387C67.8855 40.6272 66.0031 39.4644 63.7284 38.5486C61.4723 37.6418 58.6893 37.055 55.5844 36.7902L56.9594 32.5564H46.2643L42.1402 45.2542C45.7989 45.2542 49.2694 45.4504 51.8063 45.8428C54.3423 46.2342 56.3682 46.7844 57.8841 47.4898C59.4 48.1951 60.4977 49.0583 61.179 50.0775C61.8585 51.0976 62.1991 52.2345 62.1991 53.4891C62.1991 56.4701 61.2048 58.6655 59.2181 60.077C57.2314 61.4886 54.3557 62.1957 50.5909 62.1957C48.6559 62.1957 46.6424 61.9095 44.5514 61.3334C42.4594 60.7592 39.6327 59.7007 37.8021 58.603H3.27973C3.07108 58.9936 2.74114 59.7301 2.54854 60.1332C1.39824 62.5399 0.587678 65.388 0.115966 68.6828H34.5946C35.67 69.2125 37.0584 69.5497 38.3157 69.9616C39.7531 70.4324 41.2173 70.8123 42.7073 71.0985C44.1974 71.3848 45.6491 71.6086 47.0606 71.7655C48.4722 71.9224 49.7277 72 50.8254 72C54.5893 72 57.91 71.5417 60.7857 70.6277C63.6597 69.7128 66.0664 68.4189 68.0014 66.7452C69.9355 65.0715 71.3863 63.033 72.3547 60.6281C73.3222 58.2231 73.8064 55.5561 73.8064 52.6277C73.8064 50.5884 73.439 48.6677 72.7078 46.8638C71.9748 45.0599 70.8647 43.4521 69.3737 42.0397L69.3755 42.0387Z" fill="#00F1F1"/>
<path d="M51.0422 17.8682L47.7643 27.948L77.5142 27.9427L80.7904 17.8682H51.0422Z" fill="#00F1F1"/>
<path d="M42.6867 22.3205C41.9537 20.752 40.9229 19.3788 39.5889 18.2035C38.2558 17.0273 36.6873 16.1 34.8834 15.4196C33.0795 14.7401 31.1311 14.4004 29.0401 14.4004C25.6935 14.4004 22.3933 14.7615 19.3143 15.9689C14.1013 18.0136 10.1547 21.51 10.1547 21.51L13.9034 29.9294C16.3083 28.0996 18.5304 26.7273 20.5689 25.8124C22.6082 24.8984 24.6984 24.4401 26.8429 24.4401C28.3588 24.4401 29.6001 24.8984 30.5684 25.8124C31.5359 26.7282 32.0201 27.866 32.0201 29.2241C32.0201 30.3226 31.7856 31.3686 31.3148 32.362C30.844 33.3553 30.0994 34.4156 29.0802 35.5382C28.061 36.6627 26.727 37.8914 25.08 39.2245C23.433 40.5576 21.4329 42.1404 19.0797 43.9693C16.5696 45.9043 14.2431 47.7216 12.0986 49.4194C10.2947 50.8488 8.29011 52.379 6.80096 53.9938H21.2011C21.6273 53.6523 22.0562 53.317 22.4914 52.9889C23.8762 51.9429 25.2878 50.9237 26.7261 49.9303C28.1635 48.9379 29.5885 47.891 31 46.7924C33.405 44.91 35.4309 43.2113 37.0779 41.6946C38.7249 40.1787 40.0446 38.6877 41.0397 37.2235C42.0322 35.7603 42.7375 34.2426 43.1575 32.675C43.5748 31.1065 43.7853 29.3302 43.7853 27.3417C43.7853 25.5645 43.4179 23.8899 42.6867 22.3223L42.6885 22.3205H42.6867Z" fill="#00F1F1"/>
<path d="M101.446 0.563829L100.524 5.79097H97.3243C94.3388 5.79097 91.4934 8.20841 90.9673 11.1956L90.7444 12.4654C90.2183 15.4508 92.2121 17.87 95.1967 17.87H97.8646C100.04 17.87 102.113 16.1089 102.495 13.9331L104.954 0.00024414L101.447 0.5647L101.446 0.563829ZM99.1754 13.4382C99.0577 14.1106 98.4523 14.6581 97.7799 14.6581H96.1588C94.8168 14.6581 93.9197 13.5693 94.1543 12.2246L94.2934 11.4328C94.5306 10.0908 95.811 8.99932 97.1531 8.99932H99.9566L99.1728 13.4391H99.1746L99.1754 13.4382ZM126.089 17.8682L128.189 5.95685H131.51L129.41 17.8682H126.086H126.089ZM126.448 6.09505C126.281 7.03937 126.114 7.98455 125.948 8.92887C124.374 8.43932 122.751 8.59627 122.252 8.69436C121.713 11.7529 121.174 14.8132 120.635 17.8718H117.312C117.763 15.3126 119.305 6.57212 119.305 6.57212C120.386 6.12449 123.04 5.21585 126.449 6.09418V6.09592L126.448 6.09505ZM112.983 5.78831H110.398C107.878 5.78831 105.477 7.82854 105.034 10.3485L104.511 13.3089C104.067 15.8289 105.748 17.8691 108.266 17.8691H113.766L114.33 14.6679H109.162C108.323 14.6679 107.761 13.9884 107.911 13.1475L107.928 13.0468H116.26L116.736 10.3485C117.18 7.83032 115.499 5.78831 112.981 5.78831H112.983ZM113.402 10.0934L113.381 10.2646H108.426L108.453 10.1122C108.603 9.27307 109.368 8.53566 110.209 8.53566H112.144C112.977 8.53566 113.539 9.26148 113.4 10.0934H113.402ZM144.47 5.95594C143.338 8.96544 140.743 14.0865 138.229 17.8673H134.905C133.751 14.2684 133.006 9.25435 132.865 5.95594H136.188C136.249 7.03133 136.73 11.0244 137.28 13.8127C138.788 11.1002 140.451 7.5405 141.144 5.95594H144.47Z" fill="#00F1F1"/>
<path d="M108.721 61.805C108.535 61.3984 108.351 60.9455 108.166 60.447C107.981 59.9477 107.834 59.4215 107.723 58.8669C106.91 59.607 105.818 60.3462 104.451 61.0845C103.083 61.8238 101.402 62.1939 99.4051 62.1939C97.7778 62.1939 96.3832 61.9344 95.2186 61.4172C94.054 60.9 93.1017 60.1795 92.3634 59.2548C91.6232 58.331 91.0784 57.2404 90.728 55.9831C90.3757 54.7267 90.201 53.341 90.201 51.8242C90.201 49.348 90.6165 46.9261 91.4485 44.5604C92.2804 42.1947 93.5279 40.0876 95.1909 38.2391C96.8549 36.3906 98.9423 34.8943 101.457 33.7476C103.971 32.6026 106.91 32.0284 110.273 32.0284C111.271 32.0284 112.436 32.139 113.767 32.361C115.097 32.583 116.243 32.9531 117.204 33.4703L112.935 50.8817C112.749 51.7323 112.593 52.5456 112.463 53.3214C112.333 54.0981 112.269 54.9113 112.269 55.7611C112.269 56.6109 112.343 57.4714 112.491 58.3399C112.638 59.2093 112.898 60.142 113.268 61.1398L108.721 61.805ZM100.458 57.8129C102.011 57.8129 103.342 57.4803 104.45 56.8151C105.56 56.1499 106.52 55.3732 107.334 54.4859C107.371 53.8582 107.436 53.2019 107.529 52.517C107.62 51.8331 107.741 51.1403 107.889 50.4376L111.216 36.6858C111.03 36.6117 110.725 36.5565 110.301 36.519C109.876 36.4824 109.497 36.4637 109.164 36.4637C107.057 36.4637 105.152 36.8712 103.453 37.6836C101.752 38.4968 100.3 39.5784 99.0993 40.9276C97.8973 42.2776 96.9735 43.8479 96.327 45.6412C95.6796 47.4344 95.3568 49.3105 95.3568 51.2696C95.3568 52.0463 95.4308 52.8318 95.5788 53.6264C95.726 54.4218 95.9944 55.1235 96.3832 55.7334C96.771 56.3434 97.2882 56.8427 97.9356 57.2306C98.5821 57.6185 99.423 57.8129 100.458 57.8129Z" fill="#00F1F1"/>
<path d="M124.303 61.4725H119.146L125.8 33.7476C127.499 33.2304 129.339 32.8149 131.317 32.5001C133.294 32.1862 135.059 32.0284 136.613 32.0284C138.276 32.0284 139.709 32.2593 140.91 32.7212C142.111 33.184 143.081 33.8118 143.821 34.6063C144.56 35.4017 145.105 36.363 145.456 37.4901C145.808 38.6181 145.983 39.8469 145.983 41.1773C145.983 42.028 145.909 42.9241 145.761 43.8666C145.613 44.8092 145.429 45.7615 145.207 46.7228L141.658 61.4725H136.501L139.773 47.8321C140.031 46.7977 140.28 45.7437 140.522 44.6709C140.762 43.5991 140.882 42.5826 140.882 41.6213C140.882 40.1429 140.475 38.9141 139.662 37.9341C138.849 36.9551 137.333 36.4646 135.115 36.4646C134.191 36.4646 133.286 36.5199 132.398 36.6314C131.511 36.7419 130.771 36.8909 130.181 37.0754L124.303 61.4725Z" fill="#00F1F1"/>
<path d="M156.907 57.8682C157.683 57.8682 158.468 57.7942 159.264 57.6462C160.058 57.499 160.761 57.2583 161.371 56.9257C161.981 56.5931 162.48 56.1409 162.868 55.5667C163.256 54.9942 163.45 54.2827 163.45 53.432C163.45 52.8773 163.357 52.3878 163.173 51.9624C162.987 51.538 162.692 51.1403 162.286 50.7702C161.878 50.401 161.371 50.0408 160.761 49.6886C160.151 49.3372 159.42 48.9404 158.571 48.4964C157.72 48.0897 156.943 47.684 156.242 47.2765C155.539 46.8699 154.919 46.3893 154.384 45.8347C153.848 45.28 153.432 44.6246 153.137 43.8658C152.841 43.1087 152.693 42.1938 152.693 41.1211C152.693 38.3488 153.691 36.1222 155.688 34.4396C157.684 32.7578 160.586 31.9169 164.394 31.9169C166.168 31.9169 167.729 32.0926 169.079 32.4439C170.429 32.7962 171.361 33.1189 171.879 33.4141L169.939 37.6283C169.421 37.3331 168.589 37.0184 167.444 36.6858C166.298 36.3532 165.022 36.1864 163.618 36.1864C162.915 36.1864 162.212 36.2613 161.511 36.4084C160.808 36.5565 160.17 36.8061 159.598 37.1566C159.025 37.5088 158.563 37.9698 158.211 38.5432C157.859 39.1166 157.684 39.8103 157.684 40.6226C157.684 41.6204 158.072 42.4435 158.849 43.09C159.626 43.7373 160.789 44.4124 162.343 45.1141C163.304 45.5573 164.163 46.0112 164.921 46.4731C165.679 46.9359 166.326 47.4531 166.862 48.0256C167.397 48.5989 167.804 49.273 168.082 50.0497C168.359 50.8264 168.497 51.7502 168.497 52.822C168.497 54.3744 168.201 55.7424 167.61 56.9257C167.018 58.1089 166.196 59.088 165.143 59.8647C164.089 60.6414 162.841 61.2228 161.4 61.6115C159.959 62.0003 158.387 62.1939 156.687 62.1939C155.429 62.1939 154.292 62.1109 153.277 61.9442C152.259 61.7774 151.372 61.5839 150.615 61.3619C149.857 61.1399 149.228 60.9097 148.73 60.669C148.231 60.4291 147.852 60.2348 147.593 60.0868L149.589 55.8726C149.848 56.0206 150.208 56.2052 150.671 56.4272C151.133 56.6492 151.688 56.8704 152.335 57.0924C152.982 57.3144 153.694 57.4999 154.47 57.647C155.246 57.7951 156.059 57.8691 156.909 57.8691L156.907 57.8682Z" fill="#00F1F1"/>
</g>
</g>
</svg>
