<svg width="270" height="72" viewBox="0 0 270 72" fill="none" xmlns="http://www.w3.org/2000/svg">
<g id="logo / deriv product / brand-light / deriv bot-logo-wordmark">
<g id="logo">
<path d="M0 13.5C0 6.04416 6.04416 0 13.5 0H58.5C65.9558 0 72 6.04416 72 13.5V58.5C72 65.9558 65.9558 72 58.5 72H13.5C6.04416 72 0 65.9558 0 58.5V13.5Z" fill="#FF444F"/>
<path d="M13.5 0C6.04416 0 0 6.04416 0 13.5V13.8921L67.3075 3.26845C64.9433 1.2315 61.8655 0 58.5 0H13.5Z" fill="#E12E3A"/>
<path d="M68.6969 4.65243L56.3498 71.9999L58.5 72C65.9558 72 72 65.9558 72 58.5V13.5C72 10.1155 70.7545 7.02183 68.6969 4.65243Z" fill="#E12E3A"/>
<path d="M21.6298 42.8598C21.8608 42.8808 22.1233 42.9018 22.4173 42.9228C22.7323 42.9228 23.0998 42.9228 23.5198 42.9228C25.9768 42.9228 27.7933 42.3033 28.9693 41.0643C30.1663 39.8253 30.7648 38.1138 30.7648 35.9298C30.7648 33.6408 30.1978 31.9083 29.0638 30.7323C27.9298 29.5563 26.1343 28.9683 23.6773 28.9683C23.3413 28.9683 22.9948 28.9788 22.6378 28.9998C22.2808 28.9998 21.9448 29.0208 21.6298 29.0628V42.8598ZM35.8363 35.9298C35.8363 37.8198 35.5423 39.4683 34.9543 40.8753C34.3663 42.2823 33.5263 43.4478 32.4343 44.3718C31.3633 45.2958 30.0508 45.9888 28.4968 46.4508C26.9428 46.9128 25.1998 47.1438 23.2678 47.1438C22.3858 47.1438 21.3568 47.1018 20.1808 47.0178C19.0048 46.9548 17.8498 46.8078 16.7158 46.5768V25.3143C17.8498 25.1043 19.0258 24.9678 20.2438 24.9048C21.4828 24.8208 22.5433 24.7788 23.4253 24.7788C25.2943 24.7788 26.9848 24.9888 28.4968 25.4088C30.0298 25.8288 31.3423 26.4903 32.4343 27.3933C33.5263 28.2963 34.3663 29.4513 34.9543 30.8583C35.5423 32.2653 35.8363 33.9558 35.8363 35.9298Z" fill="white"/>
<path d="M45.6424 47.1438C44.4454 47.1438 43.2484 47.1018 42.0514 47.0178C40.8754 46.9548 39.6469 46.7868 38.3659 46.5138V25.3458C39.3739 25.1568 40.4764 25.0203 41.6734 24.9363C42.8704 24.8313 43.9834 24.7788 45.0124 24.7788C46.3984 24.7788 47.6689 24.8838 48.8239 25.0938C49.9999 25.2828 51.0079 25.6188 51.8479 26.1018C52.6879 26.5848 53.3389 27.2253 53.8009 28.0233C54.2839 28.8003 54.5254 29.7663 54.5254 30.9213C54.5254 32.6643 53.6854 34.0398 52.0054 35.0478C53.3914 35.5728 54.3364 36.2868 54.8404 37.1898C55.3444 38.0928 55.5964 39.1113 55.5964 40.2453C55.5964 42.5343 54.7564 44.2563 53.0764 45.4113C51.4174 46.5663 48.9394 47.1438 45.6424 47.1438ZM43.1539 37.3473V42.9858C43.5109 43.0278 43.8994 43.0593 44.3194 43.0803C44.7394 43.1013 45.2014 43.1118 45.7054 43.1118C47.1754 43.1118 48.3619 42.9018 49.2649 42.4818C50.1679 42.0618 50.6194 41.2848 50.6194 40.1508C50.6194 39.1428 50.2414 38.4288 49.4854 38.0088C48.7294 37.5678 47.6479 37.3473 46.2409 37.3473H43.1539ZM43.1539 33.5988H45.5479C47.0599 33.5988 48.1414 33.4098 48.7924 33.0318C49.4434 32.6328 49.7689 32.0028 49.7689 31.1418C49.7689 30.2598 49.4329 29.6403 48.7609 29.2833C48.0889 28.9263 47.1019 28.7478 45.7999 28.7478C45.3799 28.7478 44.9284 28.7583 44.4454 28.7793C43.9624 28.7793 43.5319 28.8003 43.1539 28.8423V33.5988Z" fill="white"/>
</g>
<g id="wordmark">
<path fill-rule="evenodd" clip-rule="evenodd" d="M108.739 19.5994L106.967 29.6503H100.815C95.0752 29.6503 89.6045 34.3004 88.5905 40.0399L88.1614 42.4829C87.1521 48.2225 90.9816 52.8727 96.7211 52.8727H101.852C106.035 52.8727 110.02 49.4863 110.756 45.3032L115.482 18.5154L108.739 19.5994ZM104.374 44.3552C104.147 45.6474 102.984 46.6992 101.692 46.6992H98.5745C95.9948 46.6992 94.2687 44.6051 94.7214 42.0207L94.9903 40.4974C95.4477 37.9176 97.9095 35.819 100.489 35.819H105.879L104.374 44.3552Z" fill="#414652"/>
<path d="M156.118 52.8743H162.503L166.54 29.9726H160.155L156.118 52.8743Z" fill="#414652"/>
<path d="M156.331 32.9582L156.331 32.9529C156.491 32.0474 156.651 31.1419 156.811 30.2365C150.259 28.5481 145.155 30.2948 143.077 31.1554C143.077 31.1554 140.112 47.9593 139.245 52.8797H145.634C146.671 46.9991 147.708 41.1171 148.744 35.2365C149.703 35.0453 152.824 34.7459 155.849 35.686C156.009 34.7767 156.17 33.8674 156.331 32.9582Z" fill="#414652"/>
<path fill-rule="evenodd" clip-rule="evenodd" d="M130.914 29.6479H125.948C121.104 29.6479 116.487 33.5718 115.634 38.4152L114.629 44.1076C113.776 48.9511 117.006 52.875 121.85 52.875H132.423L133.508 46.7204H123.571C121.958 46.7204 120.878 45.414 121.166 43.7964L121.199 43.603H137.219L138.134 38.4152C138.988 33.5718 135.757 29.6479 130.914 29.6479ZM131.725 37.9248L131.687 38.2549H122.161L122.213 37.9625C122.5 36.3496 123.972 34.93 125.589 34.93H129.31C130.909 34.93 131.989 36.326 131.725 37.9248Z" fill="#414652"/>
<path d="M177.639 45.0783C180.538 39.8621 183.734 33.0185 185.066 29.9726H191.461C189.284 35.7601 184.296 45.6051 179.463 52.8743H173.073C170.855 45.9557 169.423 36.3158 169.149 29.9726H175.54C175.655 32.0417 176.581 39.7166 177.639 45.0783Z" fill="#414652"/>
<path d="M209.104 53.1485C208.432 53.1485 207.696 53.1325 206.896 53.1005C206.128 53.0685 205.344 53.0205 204.544 52.9565C203.776 52.8925 203.008 52.8125 202.24 52.7165C201.472 52.6205 200.768 52.4925 200.128 52.3325V20.0765C200.768 19.9165 201.472 19.7885 202.24 19.6925C203.008 19.5965 203.776 19.5165 204.544 19.4525C205.344 19.3885 206.128 19.3405 206.896 19.3085C207.664 19.2765 208.384 19.2605 209.056 19.2605C210.976 19.2605 212.768 19.4045 214.432 19.6925C216.128 19.9805 217.584 20.4765 218.8 21.1805C220.048 21.8525 221.024 22.7485 221.728 23.8685C222.432 24.9885 222.784 26.3645 222.784 27.9965C222.784 29.8205 222.352 31.3245 221.488 32.5085C220.624 33.6605 219.472 34.5245 218.032 35.1005C219.984 35.6765 221.536 36.5885 222.688 37.8365C223.84 39.0845 224.416 40.8445 224.416 43.1165C224.416 46.4445 223.184 48.9565 220.72 50.6525C218.288 52.3165 214.416 53.1485 209.104 53.1485ZM204.736 37.3565V49.0685C205.088 49.1005 205.504 49.1325 205.984 49.1645C206.4 49.1965 206.88 49.2285 207.424 49.2605C208 49.2605 208.656 49.2605 209.392 49.2605C210.768 49.2605 212.064 49.1805 213.28 49.0205C214.528 48.8285 215.616 48.5085 216.544 48.0605C217.472 47.6125 218.208 46.9885 218.752 46.1885C219.328 45.3885 219.616 44.3805 219.616 43.1645C219.616 42.0765 219.408 41.1645 218.992 40.4285C218.576 39.6605 217.968 39.0525 217.168 38.6045C216.4 38.1565 215.472 37.8365 214.384 37.6445C213.296 37.4525 212.08 37.3565 210.736 37.3565H204.736ZM204.736 33.6125H209.632C210.784 33.6125 211.872 33.5325 212.896 33.3725C213.92 33.2125 214.8 32.9245 215.536 32.5085C216.304 32.0925 216.896 31.5485 217.312 30.8765C217.76 30.2045 217.984 29.3565 217.984 28.3325C217.984 27.3725 217.76 26.5725 217.312 25.9325C216.864 25.2605 216.24 24.7325 215.44 24.3485C214.672 23.9325 213.76 23.6285 212.704 23.4365C211.648 23.2445 210.528 23.1485 209.344 23.1485C208.16 23.1485 207.232 23.1645 206.56 23.1965C205.888 23.2285 205.28 23.2765 204.736 23.3405V33.6125Z" fill="#414652"/>
<path d="M250.796 40.3805C250.796 42.3645 250.508 44.1565 249.932 45.7565C249.356 47.3565 248.54 48.7325 247.484 49.8845C246.46 51.0365 245.228 51.9325 243.788 52.5725C242.348 53.1805 240.78 53.4845 239.084 53.4845C237.388 53.4845 235.82 53.1805 234.38 52.5725C232.94 51.9325 231.692 51.0365 230.636 49.8845C229.612 48.7325 228.812 47.3565 228.236 45.7565C227.66 44.1565 227.372 42.3645 227.372 40.3805C227.372 38.4285 227.66 36.6525 228.236 35.0525C228.812 33.4205 229.612 32.0285 230.636 30.8765C231.692 29.7245 232.94 28.8445 234.38 28.2365C235.82 27.5965 237.388 27.2765 239.084 27.2765C240.78 27.2765 242.348 27.5965 243.788 28.2365C245.228 28.8445 246.46 29.7245 247.484 30.8765C248.54 32.0285 249.356 33.4205 249.932 35.0525C250.508 36.6525 250.796 38.4285 250.796 40.3805ZM246.14 40.3805C246.14 37.5645 245.5 35.3405 244.22 33.7085C242.972 32.0445 241.26 31.2125 239.084 31.2125C236.908 31.2125 235.18 32.0445 233.9 33.7085C232.652 35.3405 232.028 37.5645 232.028 40.3805C232.028 43.1965 232.652 45.4365 233.9 47.1005C235.18 48.7325 236.908 49.5485 239.084 49.5485C241.26 49.5485 242.972 48.7325 244.22 47.1005C245.5 45.4365 246.14 43.1965 246.14 40.3805Z" fill="#414652"/>
<path d="M259.332 27.9005H268.788V31.6445H259.332V43.1645C259.332 44.4125 259.428 45.4525 259.62 46.2845C259.812 47.0845 260.1 47.7245 260.484 48.2045C260.868 48.6525 261.348 48.9725 261.924 49.1645C262.501 49.3565 263.172 49.4525 263.94 49.4525C265.284 49.4525 266.356 49.3085 267.156 49.0205C267.988 48.7005 268.564 48.4765 268.884 48.3485L269.748 52.0445C269.3 52.2685 268.516 52.5405 267.396 52.8605C266.277 53.2125 264.996 53.3885 263.556 53.3885C261.86 53.3885 260.452 53.1805 259.332 52.7645C258.244 52.3165 257.364 51.6605 256.692 50.7965C256.02 49.9325 255.54 48.8765 255.252 47.6285C254.996 46.3485 254.868 44.8765 254.868 43.2125V20.9405L259.332 20.1725V27.9005Z" fill="#414652"/>
</g>
</g>
</svg>
